<?xml version="1.0" standalone="no"?>
<!DOCTYPE svg PUBLIC "-//W3C//DTD SVG 20010904//EN"
 "http://www.w3.org/TR/2001/REC-SVG-20010904/DTD/svg10.dtd">
<svg version="1.0" xmlns="http://www.w3.org/2000/svg"
 width="453.000000pt" height="423.000000pt" viewBox="0 0 453.000000 423.000000"
 preserveAspectRatio="xMidYMid meet">
<metadata>
Created by potrace 1.16, written by Peter Selinger 2001-2019
</metadata>
<g transform="translate(0.000000,423.000000) scale(0.100000,-0.100000)"
fill="#000000" stroke="none">
<path d="M2279 4086 c-2 -2 -40 -7 -84 -10 -160 -13 -300 -45 -432 -97 -270
-108 -474 -269 -625 -494 -70 -103 -163 -282 -172 -329 -2 -12 -11 -41 -19
-66 -91 -277 -91 -568 -1 -855 14 -44 32 -94 40 -112 8 -17 14 -34 14 -38 0
-35 153 -285 214 -351 6 -7 36 -40 66 -74 150 -169 376 -308 608 -374 64 -19
136 -37 160 -41 l43 -7 -5 -571 c-2 -315 -5 -576 -7 -582 -4 -12 19 -57 34
-67 28 -18 73 50 55 84 -8 17 -2 1103 6 1117 4 5 128 7 157 2 5 -1 5 -160 -1
-171 -1 -3 -1 -9 0 -15 1 -5 2 -176 1 -380 -1 -346 -7 -540 -18 -557 -2 -5 1
-8 6 -8 6 0 11 -6 11 -13 0 -20 57 -19 65 1 3 8 8 198 10 421 3 223 8 471 11
551 4 80 6 153 5 163 -1 9 1 17 4 17 24 0 160 24 205 37 230 62 339 113 516
245 168 124 200 157 327 348 116 173 158 271 223 520 18 69 33 295 23 333 -4
12 -12 69 -18 127 -11 92 -56 286 -71 300 -3 3 -13 29 -23 58 -10 29 -30 69
-43 90 -14 20 -43 71 -64 113 -21 42 -57 96 -79 119 -23 24 -41 47 -41 51 0
17 -208 211 -273 255 -40 27 -74 51 -77 54 -8 8 -108 54 -195 90 -44 18 -91
37 -105 43 -14 5 -34 11 -45 12 -11 1 -63 12 -116 24 -52 11 -128 21 -167 22
-40 1 -75 5 -78 10 -5 9 -37 12 -45 5z m148 -251 c60 -13 179 -50 191 -60 2
-2 -4 -26 -14 -54 -9 -28 -14 -61 -10 -74 4 -16 -2 -31 -20 -50 -25 -28 -39
-32 -112 -41 -61 -6 -104 -54 -101 -111 2 -22 6 -50 11 -63 17 -48 17 -77 1
-102 -28 -43 -45 -51 -94 -45 -41 5 -47 3 -67 -25 -12 -16 -22 -36 -22 -45 0
-8 -4 -15 -9 -15 -7 0 -28 -59 -47 -130 -2 -8 5 -28 16 -45 22 -33 26 -50 10
-40 -19 12 -159 11 -181 -1 -20 -10 -25 -8 -45 22 -13 18 -30 54 -39 80 -9 26
-25 59 -35 75 -11 15 -20 30 -20 33 0 3 -16 39 -35 80 -19 41 -35 81 -35 89 0
8 -9 25 -19 38 -10 14 -26 41 -34 62 -9 20 -20 37 -25 37 -6 0 -17 17 -25 38
-8 20 -27 63 -42 94 -15 31 -25 64 -23 74 6 33 314 172 334 151 4 -4 8 -38 10
-76 1 -39 5 -75 9 -81 9 -15 35 -12 35 5 0 26 1 30 15 45 9 9 15 41 16 77 l2
62 61 10 c78 13 250 6 343 -14z m281 -101 c18 -8 32 -19 32 -23 0 -4 9 -7 20
-8 17 -2 156 -85 170 -102 3 -3 22 -19 43 -34 70 -52 237 -240 237 -266 0 -6
4 -11 8 -11 13 0 87 -166 122 -269 46 -139 75 -380 62 -506 -7 -57 -8 -60 -42
-70 -19 -5 -39 -13 -45 -16 -5 -3 -22 -9 -36 -12 -23 -6 -30 0 -60 46 -18 28
-39 57 -45 62 -7 6 -21 26 -32 45 -27 50 -59 51 -111 4 -23 -20 -41 -33 -41
-28 0 4 -6 1 -12 -8 -7 -9 -25 -23 -40 -33 l-27 -17 -24 55 c-27 60 -43 71
-102 67 -53 -3 -86 -21 -125 -70 -17 -22 -40 -40 -51 -40 -16 0 -19 7 -19 44
0 37 -4 45 -22 51 -33 10 -89 5 -120 -10 l-28 -13 0 50 c0 97 -99 248 -183
278 -38 14 -52 32 -18 23 28 -7 35 34 11 65 -22 27 -20 53 6 134 14 44 17 47
46 43 37 -5 79 15 100 47 9 13 27 36 41 52 17 20 24 37 20 55 -2 14 -6 51 -8
81 -5 69 9 90 63 95 56 5 112 37 112 64 0 5 7 16 15 25 9 8 17 37 19 63 4 39
23 103 31 103 1 0 16 -7 33 -16z m-1178 -149 c0 -8 5 -15 10 -15 6 0 10 -5 10
-10 0 -6 23 -47 50 -91 28 -44 50 -82 50 -85 0 -2 14 -34 31 -71 16 -38 36
-81 44 -98 7 -16 43 -91 79 -165 67 -139 84 -190 63 -190 -12 -1 -39 -39 -89
-127 -30 -53 -40 -97 -42 -192 -1 -54 -1 -55 -51 -84 -47 -28 -85 -62 -85 -77
0 -4 9 -15 19 -24 27 -24 50 -14 90 39 18 25 36 45 40 45 4 0 15 -15 24 -32
33 -65 69 -108 89 -108 4 0 26 -13 49 -29 22 -16 55 -33 72 -36 18 -4 37 -11
43 -16 6 -5 38 -12 70 -15 50 -5 70 -2 126 20 88 35 97 29 145 -94 28 -75 43
-101 69 -120 23 -17 37 -38 44 -65 12 -45 47 -122 58 -127 10 -4 62 -115 62
-131 0 -19 37 -92 53 -106 8 -6 21 -25 28 -42 15 -37 12 -39 -81 -70 -101 -33
-218 -56 -296 -58 l-71 -2 5 28 c2 15 9 34 15 41 6 8 6 12 -3 12 -7 0 -18 8
-25 17 -12 16 -16 16 -40 3 -24 -13 -26 -18 -20 -57 l6 -43 -33 0 c-54 0 -229
37 -314 65 -44 15 -131 52 -194 82 -105 51 -122 63 -212 154 -111 113 -172
190 -208 268 l-24 52 37 35 c20 20 37 41 37 49 0 22 -39 29 -59 11 -20 -18
-61 -22 -61 -6 0 6 -9 29 -20 53 -39 85 -71 236 -73 346 -2 101 -1 104 25 123
l26 21 42 -42 c23 -22 51 -43 63 -46 25 -7 63 -2 73 8 4 4 18 7 31 7 19 0 28
10 43 48 30 72 35 77 69 78 34 1 61 -20 102 -80 39 -58 149 -76 149 -25 0 25
16 55 46 88 25 27 31 50 14 52 -5 1 -16 2 -22 3 -17 3 -48 -29 -48 -49 0 -8
-4 -15 -9 -15 -5 0 -11 -9 -14 -20 -9 -36 -43 -23 -83 33 -57 77 -58 78 -133
86 -67 7 -70 6 -80 -16 -6 -13 -11 -29 -11 -35 0 -18 -51 -79 -61 -73 -5 4 -9
1 -9 -4 0 -6 -11 -11 -24 -11 -17 0 -36 14 -62 45 -39 48 -79 60 -104 30 -24
-29 -31 -15 -25 48 14 146 89 354 186 517 54 91 256 310 286 310 7 0 13 -7 13
-15z m628 -736 c89 -40 97 -44 114 -64 10 -11 20 -29 24 -40 4 -11 13 -24 20
-30 17 -14 31 -121 22 -170 -4 -22 -10 -55 -12 -74 -6 -34 -43 -93 -80 -123
-12 -10 -16 -18 -11 -18 26 -1 -55 -32 -96 -37 -100 -12 -265 71 -283 143 -4
15 -14 33 -21 41 -14 13 -21 69 -17 118 2 11 2 32 2 48 0 28 53 114 96 154 24
22 39 28 98 38 16 2 32 8 35 14 3 5 17 11 31 14 14 2 26 5 28 6 1 0 24 -8 50
-20z m359 -332 c10 -73 46 -103 104 -87 34 10 89 56 89 75 0 19 62 43 86 34
13 -4 32 -30 47 -63 19 -40 32 -56 46 -57 12 -1 26 -2 31 -3 12 -1 43 22 103
77 23 20 43 37 47 37 12 0 87 -88 113 -132 25 -44 31 -48 65 -48 21 0 61 9 90
19 l53 20 -6 -32 c-61 -308 -250 -586 -515 -761 -90 -59 -94 -60 -115 -23 -10
18 -31 47 -47 65 -15 18 -28 39 -28 46 0 21 -66 157 -92 189 -12 15 -28 51
-35 80 -10 39 -25 63 -58 94 -36 35 -48 56 -70 128 -16 52 -37 98 -54 117
l-28 31 34 66 c18 36 33 80 33 98 0 18 3 32 8 31 4 -1 18 3 32 9 61 25 62 24
67 -10z"/>
<path d="M1958 3493 c-14 -16 -14 -26 -2 -82 7 -36 17 -68 21 -72 17 -17 42
20 54 79 12 58 12 63 -7 77 -26 19 -48 19 -66 -2z"/>
<path d="M1995 3197 c-19 -22 -16 -91 6 -140 12 -26 37 -32 32 -8 -2 6 1 11 5
11 12 0 35 106 27 129 -8 27 -50 32 -70 8z"/>
<path d="M3103 3260 c-23 -11 -45 -25 -48 -30 -4 -6 -10 -8 -15 -5 -4 3 -12
-8 -18 -23 -13 -38 7 -67 40 -58 30 8 124 96 123 116 0 22 -35 22 -82 0z"/>
<path d="M2898 3132 c-1 -5 -30 -24 -63 -43 -40 -24 -61 -42 -63 -57 -2 -12 1
-22 7 -22 5 0 13 -9 16 -20 8 -25 18 -20 82 42 64 63 73 74 73 93 0 16 -46 22
-52 7z"/>
<path d="M2634 2981 c-5 -5 -31 -21 -59 -36 -27 -15 -60 -36 -74 -46 -13 -10
-30 -19 -37 -19 -18 0 -36 -37 -29 -59 3 -11 18 -21 36 -23 27 -4 38 2 80 47
63 67 111 133 100 139 -4 3 -12 1 -17 -3z"/>
<path d="M1455 2300 c-27 -22 -55 -40 -61 -40 -6 0 -17 -14 -24 -31 -11 -26
-11 -32 1 -40 20 -13 57 -11 69 4 50 58 61 75 66 94 13 51 1 54 -51 13z"/>
<path d="M2116 2135 c-14 -11 -17 -21 -11 -42 4 -15 9 -47 12 -70 9 -77 51
-48 60 41 8 77 -16 105 -61 71z"/>
<path d="M2170 1803 c-39 -16 -48 -55 -29 -123 11 -39 59 -27 59 15 0 13 6 30
14 37 11 11 11 18 -2 45 -16 34 -18 35 -42 26z"/>
</g>
</svg>
