<?xml version="1.0" standalone="no"?>
<!DOCTYPE svg PUBLIC "-//W3C//DTD SVG 20010904//EN"
 "http://www.w3.org/TR/2001/REC-SVG-20010904/DTD/svg10.dtd">
<svg version="1.0" xmlns="http://www.w3.org/2000/svg"
 width="447.000000pt" height="405.000000pt" viewBox="0 0 447.000000 405.000000"
 preserveAspectRatio="xMidYMid meet">
<metadata>
Created by potrace 1.16, written by Peter Selinger 2001-2019
</metadata>
<g transform="translate(0.000000,405.000000) scale(0.100000,-0.100000)"
fill="#000000" stroke="none">
<path d="M1855 3961 c-80 -17 -171 -51 -205 -78 -19 -15 -71 -64 -115 -108
-103 -102 -133 -167 -185 -390 -54 -228 -59 -283 -59 -630 0 -280 1 -318 13
-470 7 -93 15 -254 21 -454 3 -90 10 -183 15 -208 6 -24 8 -48 5 -53 -3 -5 -1
-19 5 -30 6 -12 13 -31 15 -42 3 -11 10 -28 18 -37 7 -9 19 -28 27 -44 21 -42
137 -139 216 -180 40 -20 77 -37 83 -37 6 0 29 -8 50 -17 39 -17 40 -18 40
-68 0 -27 2 -111 5 -185 3 -74 7 -259 9 -410 4 -323 12 -373 65 -429 48 -50
149 -91 223 -91 74 0 150 24 177 55 30 34 62 96 56 107 -3 4 -1 8 4 8 14 0 43
78 48 130 2 25 8 76 12 113 9 72 8 231 -3 357 -3 41 -8 129 -10 196 -2 66 -5
125 -6 130 -4 25 4 34 40 44 21 5 65 26 97 45 32 19 66 35 76 35 10 0 18 4 18
9 0 5 23 33 50 61 32 32 50 60 50 75 0 13 4 26 9 29 12 8 23 67 27 156 5 89 8
111 17 127 4 6 8 24 8 40 0 15 2 55 5 88 9 126 12 854 4 945 -9 98 -18 158
-25 170 -3 4 -10 68 -16 141 -22 261 -21 257 -43 318 -9 24 -16 57 -16 73 0
17 -7 42 -15 56 -8 15 -26 52 -40 83 -14 31 -40 76 -58 99 -17 24 -41 59 -52
78 -11 19 -33 41 -50 51 -16 9 -32 19 -33 24 -2 4 -7 5 -12 2 -4 -3 -15 6 -24
20 -9 14 -25 25 -36 25 -12 0 -26 12 -35 30 -9 17 -23 31 -33 32 -125 10 -400
16 -437 9z m263 -141 c17 -6 32 -15 32 -19 0 -4 24 -13 53 -20 41 -9 69 -25
120 -68 37 -31 67 -61 67 -67 0 -6 20 -34 45 -63 25 -28 49 -61 55 -74 5 -13
14 -31 20 -39 5 -8 17 -33 26 -55 10 -22 25 -51 33 -64 20 -32 44 -122 80
-301 35 -176 39 -219 47 -480 3 -113 7 -232 9 -265 2 -33 0 -96 -5 -140 -11
-92 -21 -234 -24 -350 -2 -51 -9 -91 -19 -110 -9 -16 -17 -45 -17 -64 0 -34
-14 -89 -31 -123 -5 -10 -9 -27 -9 -38 0 -11 -7 -31 -15 -44 -18 -28 -11 -27
-350 -28 -276 -1 -265 -3 -490 56 -33 8 -91 20 -130 26 -86 13 -137 29 -130
40 3 5 1 19 -4 32 -5 13 -5 31 -1 39 5 9 2 31 -10 57 -17 38 -27 97 -34 213
-2 25 -9 55 -15 67 -21 39 -36 281 -36 564 0 87 -4 158 -9 158 -5 0 -3 7 4 15
6 8 9 23 5 34 -8 27 -14 272 -6 267 4 -3 7 14 8 37 2 42 7 101 18 192 3 28 14
75 24 105 11 30 25 80 32 110 32 140 93 264 153 310 30 23 158 91 186 100 38
11 281 4 318 -10z m-426 -2415 c40 -9 75 -20 76 -25 2 -6 8 -8 13 -5 5 3 28 0
51 -6 24 -7 52 -14 63 -15 11 -2 47 -7 80 -12 33 -6 161 -9 285 -8 124 1 236
-1 250 -4 22 -6 21 -8 -24 -29 -62 -30 -148 -53 -195 -52 -13 1 -30 -4 -38
-11 -17 -14 -202 -13 -252 2 -19 5 -37 8 -41 5 -4 -2 -51 7 -106 21 -54 13
-106 26 -115 27 -8 1 -26 13 -40 25 -13 13 -45 37 -71 54 -79 50 -62 59 64 33z
m311 -192 c-7 -2 -19 -2 -25 0 -7 3 -2 5 12 5 14 0 19 -2 13 -5z m227 -7 c0
-8 -51 -13 -56 -5 -3 5 9 9 25 9 17 0 31 -2 31 -4z m-155 -81 c22 -2 70 -5
106 -6 l66 -2 0 -41 c0 -23 3 -52 7 -66 45 -158 54 -572 15 -735 -22 -97 -63
-144 -126 -147 -21 0 -54 -2 -73 -3 -19 0 -47 5 -61 11 -27 14 -65 62 -55 71
3 4 0 13 -6 21 -7 8 -13 51 -14 98 -5 180 -4 445 1 559 5 105 6 173 3 194 0 3
0 18 1 33 1 30 -2 30 136 13z"/>
</g>
</svg>
