<?xml version="1.0" standalone="no"?>
<!DOCTYPE svg PUBLIC "-//W3C//DTD SVG 20010904//EN"
 "http://www.w3.org/TR/2001/REC-SVG-20010904/DTD/svg10.dtd">
<svg version="1.0" xmlns="http://www.w3.org/2000/svg"
 width="553.000000pt" height="465.000000pt" viewBox="0 0 553.000000 465.000000"
 preserveAspectRatio="xMidYMid meet">
<metadata>
Created by potrace 1.16, written by Peter Selinger 2001-2019
</metadata>
<g transform="translate(0.000000,465.000000) scale(0.100000,-0.100000)"
fill="#000000" stroke="none">
<path d="M4112 4568 c-7 -7 -12 -9 -12 -5 0 8 -192 -91 -200 -103 -3 -4 -19
-14 -35 -23 -39 -20 -152 -104 -187 -139 -14 -15 -40 -47 -58 -73 -17 -25 -34
-45 -38 -45 -4 0 -15 -12 -24 -27 -9 -16 -30 -42 -47 -59 -17 -18 -40 -53 -52
-79 -11 -26 -36 -72 -55 -104 -19 -31 -34 -63 -34 -71 0 -8 -14 -35 -30 -60
-16 -25 -30 -55 -30 -66 0 -12 -6 -26 -12 -31 -16 -12 -105 -46 -177 -67 -30
-9 -69 -27 -85 -40 -17 -13 -49 -32 -71 -43 -42 -22 -141 -84 -162 -103 -7 -5
-16 -10 -20 -10 -4 0 -35 -14 -68 -30 -32 -16 -63 -26 -67 -24 -4 3 -8 1 -8
-3 0 -5 -21 -22 -47 -39 -26 -16 -71 -48 -102 -71 -30 -24 -58 -43 -63 -43
-10 0 -62 -36 -93 -65 -30 -29 -76 -64 -106 -82 -15 -9 -34 -27 -43 -42 -8
-14 -38 -51 -66 -81 -27 -30 -50 -58 -50 -62 0 -4 -6 -13 -13 -20 -34 -35 -87
-109 -116 -160 -18 -32 -38 -58 -45 -58 -14 0 -106 -103 -154 -173 -19 -29
-39 -53 -44 -55 -11 -5 -125 -164 -163 -227 -30 -51 -54 -102 -98 -210 -27
-66 -74 -262 -81 -340 -3 -27 -10 -88 -16 -135 -10 -74 -13 -153 -7 -183 1 -5
-28 -18 -65 -27 -38 -10 -68 -15 -68 -13 0 3 -6 1 -12 -5 -7 -5 -83 -33 -168
-62 -85 -28 -169 -58 -187 -66 -17 -8 -38 -14 -46 -14 -17 0 -87 -37 -167 -88
-197 -126 -199 -127 -307 -229 -35 -32 -43 -47 -43 -74 0 -19 4 -39 8 -46 12
-20 86 -41 180 -54 48 -6 95 -12 104 -13 29 -4 86 -39 97 -60 5 -12 12 -32 15
-46 9 -37 19 -48 48 -54 14 -2 35 -9 46 -15 23 -12 97 -13 126 -2 32 12 63 1
77 -27 7 -15 16 -67 19 -117 4 -79 7 -90 25 -94 11 -2 26 -12 33 -22 17 -24
32 -24 87 2 25 12 66 23 92 25 27 1 58 4 71 6 20 3 27 -5 41 -44 27 -68 71
-108 118 -105 41 2 44 6 170 257 21 41 41 77 46 78 4 2 7 8 7 13 0 6 -4 8 -10
4 -5 -3 -5 7 1 25 13 35 23 41 14 8 -5 -21 -5 -21 9 2 8 14 12 28 10 32 -3 5
-1 8 4 8 13 0 47 58 56 95 4 16 16 40 26 54 24 35 50 98 42 105 -3 3 0 6 6 6
10 0 21 19 50 92 10 24 16 26 64 27 29 0 64 3 78 6 14 4 38 8 55 11 47 7 66
14 135 54 36 21 80 41 98 45 18 4 36 13 39 21 3 8 22 22 42 31 20 9 39 21 43
27 5 8 21 12 63 15 6 1 33 22 60 47 28 25 97 77 155 115 58 38 111 75 119 82
8 6 22 17 31 22 30 18 124 99 160 138 19 21 73 77 120 125 47 48 114 123 150
167 36 44 72 87 82 95 9 8 27 35 41 60 50 92 72 125 94 143 13 10 23 23 23 28
0 6 13 29 29 52 50 74 131 224 131 243 0 8 4 14 9 14 5 0 12 12 16 27 3 16 26
59 50 98 29 45 47 89 53 125 6 30 18 82 28 115 13 45 17 92 16 186 -1 87 2
130 11 141 21 26 104 88 117 88 7 0 18 7 24 15 6 9 23 17 36 19 14 2 48 13 75
25 107 47 130 56 147 57 35 3 39 4 35 12 -3 4 1 13 9 20 8 7 14 11 14 8 0 -2
19 0 43 6 23 5 84 11 136 13 105 4 117 11 158 90 42 82 45 93 37 118 -18 50
-116 159 -188 207 l-36 25 2 90 3 89 -46 22 c-56 27 -61 38 -43 89 28 81 18
98 -67 117 -67 14 -125 14 -144 -2 -8 -7 -15 -9 -15 -5 0 3 -17 -4 -37 -16
l-38 -22 21 24 c23 26 28 34 87 149 20 41 44 81 52 90 22 24 18 49 -9 60 -13
5 -27 18 -31 29 -3 12 -11 22 -16 22 -5 1 -13 2 -18 3 -6 0 -16 7 -22 14 -16
15 -41 16 -57 0z m28 -114 c0 -3 -8 -18 -18 -32 -10 -15 -24 -40 -32 -57 -8
-16 -18 -32 -22 -35 -10 -8 -68 -187 -68 -209 0 -26 26 -51 54 -51 13 0 49 14
80 30 57 31 128 42 147 23 7 -7 7 -23 -1 -51 -19 -71 -4 -110 53 -142 53 -29
54 -32 55 -89 2 -58 35 -138 71 -168 14 -12 30 -22 35 -23 4 0 28 -12 51 -27
31 -20 46 -39 55 -67 6 -21 13 -43 16 -50 9 -25 -59 -49 -149 -52 -57 -3 -103
-10 -130 -22 -23 -11 -58 -25 -77 -32 -19 -7 -39 -17 -45 -20 -5 -4 -37 -15
-70 -25 -33 -9 -70 -23 -82 -31 -12 -8 -59 -28 -105 -44 -78 -29 -128 -33
-128 -10 0 6 -7 10 -15 10 -8 0 -15 8 -15 18 0 9 -13 47 -29 84 -28 65 -28 68
-11 95 24 40 154 126 220 146 62 18 130 24 148 13 16 -10 45 -66 38 -73 -3 -3
-25 0 -50 7 -54 15 -86 6 -86 -23 0 -26 34 -59 47 -46 5 5 22 5 39 0 39 -11
86 8 109 43 16 24 16 29 1 72 -26 77 -63 96 -164 84 -39 -5 -79 -14 -89 -19
-10 -5 -33 -15 -51 -22 -48 -17 -150 -85 -194 -127 l-37 -35 -41 18 c-24 11
-40 25 -40 35 0 16 57 140 70 150 3 3 18 26 33 53 15 26 34 47 42 47 20 0 47
56 40 80 -13 42 -67 8 -105 -65 -8 -16 -40 -67 -71 -112 -31 -46 -62 -97 -69
-113 -11 -26 -14 -28 -38 -19 -15 6 -29 10 -32 10 -6 -1 -72 20 -82 26 -11 6
26 102 90 236 45 95 77 144 138 217 44 52 89 106 99 120 42 54 205 210 220
210 8 0 15 4 15 10 0 15 93 52 123 47 15 -2 30 0 33 5 6 9 24 11 24 2z m-655
-945 c5 -5 16 -9 24 -9 28 0 122 -53 150 -85 31 -36 67 -133 76 -205 3 -25 9
-61 13 -80 13 -60 1 -198 -23 -272 -10 -29 -19 -55 -21 -56 -4 -5 -212 97
-219 107 -2 5 -35 21 -72 36 -38 15 -75 30 -83 35 -9 4 -31 11 -50 14 -19 4
-44 11 -55 16 -21 9 -102 29 -145 36 -14 2 -41 7 -60 10 -35 7 -333 7 -380 0
-102 -14 -134 -21 -204 -42 -44 -13 -82 -22 -84 -20 -2 2 18 27 45 55 45 47
98 86 166 121 16 8 38 24 50 35 41 39 112 93 152 114 22 12 58 33 80 46 51 32
81 45 105 45 11 0 34 8 52 18 51 28 139 62 159 62 11 0 19 3 19 8 0 12 56 33
74 26 9 -3 16 -1 16 4 0 27 184 10 215 -19z m-425 -520 c124 -17 273 -65 370
-117 25 -14 70 -37 100 -53 93 -47 157 -93 152 -109 -2 -8 -21 -51 -42 -95
-155 -326 -158 -331 -185 -306 -14 12 -189 56 -320 80 -154 28 -610 47 -690
28 -16 -3 -70 -9 -120 -12 -49 -2 -112 -8 -140 -11 -27 -4 -60 -8 -73 -10 -12
-1 -44 -7 -70 -13 -26 -6 -64 -13 -84 -16 -21 -3 -38 -11 -38 -16 0 -6 -9 -8
-20 -4 -10 3 -35 2 -55 -4 -19 -5 -35 -6 -35 -1 0 5 4 10 8 12 5 2 27 30 50
63 46 66 137 194 149 210 4 6 21 28 38 50 43 57 66 85 103 123 17 19 32 38 32
43 0 10 36 30 42 23 3 -3 29 9 57 25 66 39 252 103 288 100 15 -2 34 0 41 5 7
4 61 10 120 13 59 3 108 6 109 7 5 5 144 -5 213 -15z m-234 -633 c17 -4 82 -9
145 -11 116 -6 142 -8 169 -17 8 -3 57 -13 108 -23 78 -14 188 -47 200 -60 2
-2 -18 -37 -44 -77 -27 -40 -54 -85 -60 -99 -7 -15 -17 -30 -23 -33 -6 -4 -23
-33 -38 -64 -31 -64 -82 -142 -126 -189 -27 -29 -33 -31 -82 -27 -32 3 -56 1
-60 -6 -3 -5 -11 -8 -16 -4 -6 3 -24 7 -42 9 -70 7 -154 16 -197 21 -25 3 -65
7 -90 9 -25 2 -58 6 -73 10 -39 10 -334 12 -377 3 -19 -4 -55 -10 -80 -13 -25
-4 -72 -13 -105 -21 -55 -13 -209 -40 -280 -48 -16 -2 -61 -14 -100 -27 -77
-26 -86 -28 -132 -33 -20 -2 -33 0 -33 7 0 21 50 176 59 181 5 3 15 30 22 58
7 29 20 67 29 83 9 17 32 57 50 90 69 125 82 138 156 163 185 62 357 98 512
108 62 3 114 10 117 13 5 9 345 5 391 -3z m-121 -634 c33 -6 78 -10 100 -10
22 -1 67 -6 100 -12 33 -6 84 -11 113 -10 48 0 52 -1 43 -17 -16 -29 -99 -105
-206 -188 -55 -43 -123 -100 -150 -126 -28 -27 -78 -68 -111 -91 -33 -24 -70
-52 -81 -63 -20 -18 -177 -100 -323 -169 -266 -124 -594 -36 -705 191 -35 71
-36 75 -41 190 -4 104 7 153 31 133 12 -10 20 -9 42 6 41 28 96 53 115 54 10
0 39 9 66 19 26 11 70 22 98 26 27 4 68 13 92 21 23 8 61 14 84 14 23 0 81 9
128 19 47 11 105 24 129 28 56 10 395 -1 476 -15z m-1305 -572 c11 -21 25 -40
32 -42 21 -7 0 -36 -32 -43 -17 -4 -43 -13 -58 -21 -15 -8 -42 -17 -59 -20
-18 -3 -33 -10 -33 -15 0 -5 -6 -9 -14 -9 -24 0 -109 -42 -177 -86 -92 -62
-133 -123 -94 -138 27 -10 85 25 85 51 0 21 161 122 198 123 6 0 12 5 12 10 0
6 8 10 18 10 10 0 51 11 92 25 83 28 133 26 185 -10 l32 -21 -61 -36 c-118
-70 -230 -193 -209 -228 14 -21 44 -19 57 4 21 37 40 55 49 49 6 -3 7 -2 4 4
-17 27 135 141 191 143 12 0 22 6 22 14 0 14 34 12 55 -4 6 -4 24 -11 42 -14
l31 -7 -17 -52 c-10 -29 -33 -82 -50 -118 -17 -36 -31 -69 -31 -72 0 -3 -15
-38 -34 -79 -18 -40 -37 -84 -41 -98 -4 -14 -16 -37 -26 -51 -10 -15 -31 -59
-47 -98 -24 -60 -59 -111 -75 -111 -2 0 -4 14 -5 31 -1 33 -35 79 -59 79 -8 0
-25 8 -40 17 -35 23 -119 20 -171 -6 l-40 -20 0 49 c-1 54 -17 85 -79 146 -26
27 -39 33 -58 28 -14 -3 -45 2 -70 12 -39 14 -52 15 -79 6 -18 -7 -35 -12 -39
-12 -3 0 -18 25 -32 55 -15 30 -31 53 -36 50 -5 -4 -9 -1 -9 5 0 7 -7 9 -16 6
-8 -3 -13 -2 -10 3 11 16 -39 38 -99 44 -70 7 -192 31 -201 40 -9 9 24 57 44
65 9 3 28 18 42 33 14 15 40 34 59 44 19 9 44 27 56 39 59 56 189 134 240 142
16 3 39 10 50 14 37 16 110 38 185 54 41 9 111 25 155 35 125 28 142 26 165
-19z m-100 -904 c0 -2 -7 -6 -15 -10 -8 -3 -15 -1 -15 4 0 6 7 10 15 10 8 0
15 -2 15 -4z m-53 -12 c-3 -3 -12 -4 -19 -1 -8 3 -5 6 6 6 11 1 17 -2 13 -5z"/>
</g>
</svg>
