<?xml version="1.0" standalone="no"?>
<!DOCTYPE svg PUBLIC "-//W3C//DTD SVG 20010904//EN"
 "http://www.w3.org/TR/2001/REC-SVG-20010904/DTD/svg10.dtd">
<svg version="1.0" xmlns="http://www.w3.org/2000/svg"
 width="505.000000pt" height="347.000000pt" viewBox="0 0 505.000000 347.000000"
 preserveAspectRatio="xMidYMid meet">
<metadata>
Created by potrace 1.16, written by Peter Selinger 2001-2019
</metadata>
<g transform="translate(0.000000,347.000000) scale(0.100000,-0.100000)"
fill="#000000" stroke="none">
<path d="M2455 3324 c-33 -7 -87 -13 -121 -12 -33 0 -70 -5 -81 -11 -12 -6
-59 -22 -105 -37 -152 -47 -360 -152 -508 -257 -48 -34 -372 -353 -373 -367 0
-3 -12 -23 -26 -45 -59 -91 -135 -247 -165 -335 -62 -187 -105 -509 -85 -640
4 -25 10 -83 14 -130 3 -47 10 -89 14 -95 5 -5 11 -30 15 -54 12 -78 83 -265
130 -340 12 -20 35 -61 50 -91 25 -48 67 -108 132 -190 10 -13 67 -72 125
-131 93 -94 192 -171 278 -218 14 -8 28 -17 31 -22 9 -13 228 -119 298 -144
88 -31 300 -82 382 -91 187 -20 451 10 645 73 111 36 285 118 375 177 41 27
77 52 80 55 3 4 25 22 50 40 55 42 244 232 273 276 92 136 122 185 153 248 20
40 42 75 48 79 6 4 8 8 3 8 -4 0 0 12 10 26 18 28 52 120 53 142 0 7 11 37 24
65 13 29 26 79 30 112 3 33 7 69 10 80 5 25 15 130 21 218 11 142 -27 376 -92
567 -58 173 -178 384 -290 511 -57 64 -75 80 -203 179 -36 28 -72 56 -80 63
-44 37 -125 87 -213 130 -104 51 -162 72 -242 87 -27 5 -81 17 -120 26 -133
30 -217 43 -333 49 -64 4 -124 8 -132 10 -8 1 -42 -4 -75 -11z m315 -189 c25
-3 63 -8 85 -11 51 -7 188 -44 195 -53 4 -6 75 -31 100 -36 16 -3 160 -80 160
-86 0 -4 -11 -10 -25 -13 -18 -5 -25 -13 -25 -30 0 -33 -28 -96 -43 -96 -23 0
-54 -96 -56 -177 -1 -34 -14 -28 -36 18 -29 61 -65 84 -126 82 -59 -1 -73 -11
-99 -71 -24 -53 -26 -119 -4 -150 11 -16 12 -22 3 -22 -26 0 -49 -33 -49 -72
0 -21 -3 -38 -6 -38 -10 0 -48 23 -68 41 -26 25 -92 25 -133 -1 -18 -11 -33
-24 -33 -29 0 -5 -9 -12 -19 -16 -24 -7 -45 -57 -39 -90 6 -30 5 -31 -32 -4
-25 19 -36 21 -94 14 -59 -6 -69 -10 -91 -39 -14 -18 -25 -41 -25 -50 0 -10
-5 -26 -10 -36 -27 -51 -30 -192 -4 -221 16 -17 16 -19 -2 -25 -45 -14 -64
-29 -73 -57 -13 -35 -3 -225 11 -244 6 -8 5 -20 -5 -34 l-15 -21 -14 21 c-7
11 -18 21 -23 21 -6 0 -19 6 -29 13 -16 12 -16 13 1 32 39 43 54 91 49 165 -4
70 -16 100 -42 100 -8 0 -14 5 -14 10 0 6 16 10 35 10 42 0 61 24 70 95 4 28
11 58 16 67 11 21 -34 78 -61 78 -35 0 -29 16 18 51 26 19 56 51 67 72 17 32
25 37 56 37 52 0 155 41 200 80 31 26 39 40 39 67 0 37 -44 113 -66 113 -8 0
-14 5 -14 10 0 6 4 10 10 10 29 0 94 81 114 143 3 10 10 16 15 13 4 -3 -5 -31
-20 -62 -19 -36 -26 -61 -20 -68 5 -6 9 -35 10 -65 0 -33 5 -57 13 -62 7 -5 9
-9 4 -9 -20 0 19 -30 51 -39 33 -9 49 -5 118 31 32 18 66 65 72 102 8 51 -3
83 -37 103 l-30 17 33 20 c17 11 37 26 42 34 8 10 16 10 44 -4 43 -22 104 -14
176 21 67 32 87 65 81 132 -2 27 -4 54 -5 61 -1 19 -87 52 -134 52 -24 0 -56
-9 -75 -20 -30 -19 -35 -19 -62 -5 -46 24 -69 18 -127 -32 -32 -26 -58 -42
-61 -36 -4 5 -16 15 -27 21 -18 9 -22 7 -32 -16 -6 -15 -14 -40 -17 -55 -7
-28 -8 -28 -31 -13 -13 9 -32 16 -42 17 -14 0 -13 2 5 9 33 14 90 75 98 105 3
14 4 51 2 81 l-5 54 31 -4 c17 -3 51 -8 76 -11z m-330 -94 c0 -55 2 -106 5
-113 6 -15 -40 -42 -55 -33 -15 9 -24 -17 -22 -65 1 -25 -1 -38 -5 -30 -8 20
-41 48 -65 55 -17 6 -16 8 9 28 43 33 52 49 53 90 0 32 -7 45 -46 82 -41 40
-60 50 -86 46 -5 0 -8 3 -8 8 0 9 108 27 178 30 l42 1 0 -99z m175 50 c14 -44
-50 -131 -96 -131 -16 0 -19 7 -17 40 1 21 5 37 10 34 4 -3 8 0 8 6 0 16 59
70 75 70 8 0 16 -9 20 -19z m-477 -12 c-22 -12 -59 -130 -61 -191 -1 -57 22
-88 65 -88 26 0 29 -3 23 -22 -4 -13 -13 -36 -21 -52 -8 -16 -14 -40 -14 -54
0 -57 76 -132 135 -132 22 0 26 -3 20 -17 -4 -10 -10 -30 -13 -46 -4 -26 -7
-27 -41 -21 -20 4 -58 7 -84 7 -52 0 -67 -11 -67 -50 0 -13 -6 -23 -14 -23 -8
0 -17 -8 -19 -17 -4 -14 -5 -14 -6 3 0 12 -11 33 -22 48 -12 15 -20 28 -18 30
2 1 16 9 30 18 14 9 30 29 36 45 27 74 33 104 33 157 0 47 -5 64 -26 92 -15
19 -34 33 -42 32 -9 -2 -17 4 -18 12 -13 83 -15 88 -48 104 -18 8 -47 17 -65
18 -18 1 -34 6 -37 9 -6 11 102 74 184 107 40 16 75 32 79 35 3 4 11 7 17 7 6
0 3 -5 -6 -11z m136 -63 c34 -32 36 -37 24 -58 -15 -26 -36 -44 -90 -75 -67
-40 -86 -28 -67 39 7 24 12 46 11 51 -1 4 5 7 13 7 8 0 15 6 15 13 0 19 29 57
44 57 6 0 29 -15 50 -34z m844 -80 c11 -56 -41 -103 -119 -108 -41 -3 -44 -1
-47 24 -3 29 25 77 46 78 6 0 12 9 12 19 0 38 101 26 108 -13z m-228 10 c9
-12 7 -24 -9 -58 -35 -75 -75 -108 -132 -108 -46 0 -61 18 -57 67 3 36 5 38
48 46 27 6 56 20 74 38 33 32 57 37 76 15z m508 -53 c15 -3 35 -11 44 -18 16
-11 14 -15 -21 -43 -22 -18 -42 -41 -46 -52 -10 -31 -75 -24 -75 9 0 32 45
121 58 116 8 -3 26 -8 40 -12z m-1448 -28 c18 -11 11 -57 -10 -62 -11 -3 -21
-4 -23 -2 -2 2 -11 -4 -20 -13 -11 -10 -17 -33 -17 -61 0 -42 -2 -45 -40 -62
-22 -10 -43 -15 -47 -11 -4 4 -6 28 -5 54 2 26 4 69 5 95 2 39 7 50 27 62 24
14 108 14 130 0z m-209 -17 c-23 -20 -23 -25 -17 -117 9 -122 19 -135 96 -128
l55 5 1 -42 c0 -22 4 -48 8 -57 5 -12 -2 -17 -31 -25 -30 -7 -42 -17 -57 -47
-14 -29 -22 -37 -35 -31 -9 4 -30 9 -48 12 -30 4 -31 6 -26 38 7 42 -18 112
-51 143 -16 15 -43 25 -76 29 l-52 7 116 118 c64 64 122 117 128 117 7 0 1
-10 -11 -22z m824 -12 c18 -13 18 -15 2 -57 -9 -24 -28 -56 -42 -71 -44 -48
-69 -34 -79 46 -9 66 10 96 62 96 21 0 47 -6 57 -14z m1036 -84 l80 -79 -41
-12 c-23 -7 -44 -19 -47 -28 -9 -24 25 -44 68 -38 34 4 38 2 53 -29 28 -58 22
-69 -51 -103 -38 -17 -75 -32 -83 -33 -36 -5 -61 1 -67 16 -10 26 18 97 49
125 19 18 26 31 22 43 -6 16 -16 17 -81 6 -2 0 -14 -22 -28 -50 -14 -27 -28
-50 -31 -50 -3 0 -12 7 -20 15 -14 13 -14 17 0 30 25 25 31 83 12 121 -9 19
-16 37 -16 40 0 6 91 104 97 104 2 0 40 -35 84 -78z m-1295 6 c20 -39 11 -88
-22 -128 -32 -37 -37 -37 -69 -3 -32 35 -32 61 0 104 14 19 28 41 31 50 9 25
42 11 60 -23z m-280 -39 c33 -65 4 -188 -48 -204 -57 -19 -65 112 -12 193 15
23 31 42 36 42 4 0 15 -14 24 -31z m364 11 c0 -5 -4 -10 -10 -10 -5 0 -10 5
-10 10 0 6 5 10 10 10 6 0 10 -4 10 -10z m6 -42 c3 -12 13 -29 22 -37 13 -14
12 -16 -16 -23 -17 -5 -42 -22 -56 -38 -13 -17 -27 -30 -29 -30 -2 0 9 25 25
56 15 31 28 65 28 75 0 26 17 24 26 -3z m919 -2 c17 -4 41 -15 55 -26 22 -17
23 -20 10 -44 -7 -15 -25 -29 -39 -32 -14 -3 -35 -9 -46 -13 -31 -11 -63 -2
-71 21 -3 11 -3 40 1 65 5 33 10 43 21 39 8 -3 14 0 14 6 0 7 4 7 13 0 6 -5
26 -13 42 -16z m-588 -28 c7 -6 17 -7 23 -3 20 12 60 -4 60 -25 0 -29 -72
-100 -102 -100 -21 0 -27 7 -36 40 -13 54 1 112 26 103 9 -3 22 -10 29 -15z
m339 -39 c23 -37 23 -41 9 -63 -38 -57 -135 -42 -135 21 0 37 17 62 53 77 39
16 41 15 73 -35z m-586 -71 c19 -13 37 -35 41 -50 6 -23 3 -31 -21 -48 -44
-31 -121 -61 -149 -58 -37 4 -42 65 -9 101 13 13 34 36 47 51 28 32 48 33 91
4z m-882 -19 c17 -16 32 -34 32 -39 0 -12 -41 -50 -54 -51 -6 0 -19 -2 -29 -4
-46 -9 -66 80 -25 109 31 22 38 20 76 -15z m1642 -23 c25 -8 37 -14 28 -15
-12 -1 -15 -8 -12 -25 2 -14 0 -27 -4 -30 -13 -8 -7 -109 6 -114 26 -8 10 -17
-30 -17 -24 0 -55 -3 -70 -8 -26 -7 -27 -6 -26 26 1 29 -15 74 -31 87 -4 3
-14 17 -24 33 -17 27 -17 27 6 36 13 5 37 25 53 44 28 33 30 34 44 16 8 -10
35 -25 60 -33z m590 -16 c0 -3 -7 -7 -15 -7 -8 0 -15 9 -15 20 0 16 3 17 15 7
8 -7 15 -16 15 -20z m-2387 -52 c2 -10 13 -29 25 -43 17 -20 31 -25 67 -25 34
0 43 -3 39 -14 -3 -8 -19 -18 -35 -21 -37 -8 -49 -30 -38 -68 5 -17 7 -33 4
-35 -2 -3 -23 12 -45 32 -30 27 -49 36 -76 36 -21 0 -33 -4 -29 -10 3 -5 -1
-10 -9 -10 -21 0 -21 -53 0 -71 11 -9 20 -10 33 -2 13 8 24 4 54 -22 l37 -32
-23 -20 c-28 -25 -71 -43 -102 -43 -27 0 -30 9 -16 57 7 26 6 35 -9 48 -10 9
-24 14 -29 10 -16 -9 -14 3 9 64 24 63 63 140 98 196 25 39 25 39 34 15 5 -13
10 -32 11 -42z m1973 6 c19 -19 34 -42 34 -50 0 -16 -58 -44 -97 -49 -13 -1
-28 4 -34 11 -14 17 -5 44 16 44 19 0 19 24 0 40 -13 11 -13 14 2 26 28 21 43
17 79 -22z m-382 -54 c20 -28 36 -57 36 -66 0 -8 -13 -29 -29 -45 -36 -36 -77
-39 -87 -7 -4 13 -15 34 -25 48 -22 30 -29 74 -11 76 6 1 19 2 27 3 8 0 23 10
32 21 10 11 18 20 19 20 1 0 18 -23 38 -50z m-1081 -9 c19 -21 38 -49 42 -60
13 -41 -71 -122 -110 -107 -7 2 -17 22 -22 44 -8 32 -7 47 5 72 15 31 15 33
-6 49 -18 13 -20 19 -10 29 24 24 64 14 101 -27z m1912 4 c16 -33 16 -36 -9
-89 -28 -59 -83 -110 -113 -104 -16 3 -18 14 -16 82 1 66 5 81 24 102 19 20
58 39 91 43 4 1 14 -15 23 -34z m-1617 -17 c2 -18 -4 -34 -20 -48 -13 -11 -32
-29 -43 -40 -30 -28 -69 -35 -85 -15 -12 15 -12 23 1 60 14 38 14 46 2 58 -12
12 -4 14 64 13 77 -1 78 -1 81 -28z m1420 -20 c-5 -23 -10 -44 -12 -45 -2 -2
-16 1 -32 7 -33 13 -120 11 -147 -2 -34 -17 -52 -43 -51 -73 1 -16 -3 -53 -9
-81 -10 -47 -14 -53 -51 -70 -73 -32 -81 -26 -45 32 31 51 34 92 10 125 -27
36 -26 39 7 39 35 0 107 25 151 53 20 12 48 20 65 19 33 -3 86 15 86 29 0 5 9
9 19 9 17 0 18 -4 9 -42z m-920 15 c15 -10 29 -20 32 -24 3 -3 15 -9 28 -13
29 -9 44 -39 36 -71 -6 -24 -8 -25 -24 -10 -10 9 -30 17 -46 18 -25 2 -32 -4
-54 -48 -14 -27 -32 -57 -40 -67 -33 -37 -83 4 -74 61 15 100 28 146 39 145 6
-1 19 5 30 12 26 18 40 18 73 -3z m-1015 -34 c20 -27 11 -54 -30 -95 -25 -25
-42 -34 -68 -34 -37 0 -69 25 -61 47 3 8 6 26 6 39 0 13 6 24 13 24 7 0 30 9
52 20 50 25 70 25 88 -1z m2225 -96 c37 -103 37 -100 -5 -100 -21 0 -54 -3
-73 -7 -28 -6 -37 -3 -47 12 -9 16 -5 26 33 67 24 27 47 57 50 67 9 31 21 20
42 -39z m-370 26 c28 -10 30 -13 21 -37 -15 -39 -110 -122 -139 -122 -32 0 31
156 65 163 11 2 20 5 21 6 1 0 15 -4 32 -10z m-1782 -28 c-3 -4 4 -24 14 -44
22 -40 11 -51 -15 -14 l-16 22 -20 -24 c-10 -13 -19 -36 -19 -52 0 -33 -17
-47 -33 -26 -7 8 -25 21 -41 29 l-29 15 29 6 c34 8 60 29 92 75 13 18 28 30
33 26 5 -3 7 -9 5 -13z m704 -21 c11 -16 20 -32 20 -37 0 -20 -78 -96 -101
-98 -16 -1 -25 -9 -27 -22 -4 -27 -47 -67 -62 -58 -7 5 -9 26 -5 63 8 69 34
144 47 136 5 -3 12 3 15 15 3 12 13 21 24 21 10 0 20 4 23 9 10 16 45 0 66
-29z m-462 -37 c-15 -16 -29 -40 -33 -54 l-6 -26 -32 31 -32 31 45 42 c45 42
45 42 65 23 19 -19 19 -20 -7 -47z m882 27 c0 -8 91 3 108 14 7 4 21 4 32 1
17 -5 20 -16 21 -63 1 -66 30 -128 70 -151 24 -13 30 -12 69 8 35 18 41 19 36
6 -3 -9 -9 -27 -12 -40 -5 -21 -9 -22 -36 -14 -17 4 -57 6 -89 2 l-57 -6 5 41
c6 47 -11 91 -52 135 -29 30 -60 34 -93 11 -26 -18 -55 -71 -47 -84 10 -16 44
-11 62 9 16 19 17 19 46 -9 30 -28 30 -29 17 -69 -14 -44 -35 -58 -57 -39 -12
9 -23 7 -58 -12 -37 -20 -46 -22 -60 -10 -24 20 -17 88 12 123 28 35 30 63 3
70 -34 9 -78 -51 -84 -115 -2 -12 -16 -21 -16 -10 0 22 -63 52 -111 52 -61 0
-146 -41 -151 -72 -6 -41 15 -142 34 -167 25 -32 79 -72 89 -65 5 3 18 7 30 9
11 2 29 7 40 10 13 5 19 2 19 -10 0 -8 6 -18 13 -21 19 -7 69 14 62 26 -6 10
42 26 51 17 9 -9 -24 -161 -36 -165 -6 -2 -21 -14 -33 -26 -12 -12 -34 -27
-49 -33 -57 -25 -78 53 -32 121 26 38 26 38 7 57 -27 27 -49 15 -69 -37 -17
-44 -17 -44 -58 -38 -22 3 -58 10 -79 16 -32 10 -40 9 -48 -3 -9 -14 -6 -59 5
-78 11 -17 -10 -20 -38 -6 -14 8 -34 11 -43 8 -10 -4 4 14 30 38 37 36 47 53
48 80 2 56 5 74 17 95 9 16 6 26 -15 53 -15 18 -40 42 -57 52 -17 10 -25 19
-18 19 19 0 82 44 82 57 0 7 10 18 23 24 12 7 39 29 61 51 39 38 60 47 71 28
3 -5 26 -10 50 -10 44 0 45 0 103 75 4 6 11 18 15 28 9 24 30 17 37 -13 3 -13
14 -26 25 -30 25 -9 75 18 73 39 -1 9 0 27 1 41 2 24 2 24 16 6 8 -11 15 -23
15 -26z m329 18 c24 -21 30 -54 12 -68 -3 -3 -17 -22 -31 -42 -34 -51 -63 -51
-78 1 -17 54 -15 87 5 111 23 26 59 25 92 -2z m396 -92 c-18 -10 -37 -28 -40
-40 -22 -65 -31 -106 -24 -108 4 -2 9 -14 11 -28 2 -14 7 -31 11 -38 6 -9 -2
-12 -35 -10 -67 4 -101 -15 -124 -70 -13 -30 -18 -56 -13 -72 4 -14 7 -39 8
-56 2 -49 19 -63 91 -70 62 -6 68 -5 98 21 18 15 34 26 36 24 16 -16 6 -42
-29 -73 -37 -33 -39 -37 -22 -49 18 -15 24 -57 8 -57 -5 0 -24 18 -42 41 -31
39 -34 41 -73 35 -61 -10 -153 -55 -172 -84 -9 -14 -17 -37 -18 -51 -1 -20 4
-26 21 -25 17 0 21 -5 21 -32 0 -18 2 -37 5 -41 3 -5 -16 -5 -44 1 -48 10 -50
9 -77 -21 -16 -17 -39 -36 -51 -43 -15 -7 -21 -18 -17 -28 3 -10 14 -42 24
-72 l19 -55 -31 -19 c-17 -10 -34 -23 -37 -29 -4 -5 -14 -7 -23 -4 -23 9 -42
-25 -75 -128 -32 -101 -31 -160 0 -194 11 -12 29 -21 41 -21 17 0 19 -4 14
-27 -4 -16 -8 -32 -10 -38 -2 -5 -7 -20 -11 -32 -7 -21 -8 -21 -26 14 -11 21
-19 41 -19 46 0 4 -10 21 -22 37 -18 25 -29 30 -66 30 -35 0 -45 4 -49 19 -7
28 -34 35 -55 14 -9 -10 -25 -53 -34 -96 -14 -70 -14 -84 -1 -137 9 -32 13
-68 10 -79 -11 -44 69 -51 122 -9 15 11 45 26 67 33 37 10 43 10 60 -7 25 -25
39 -23 98 18 46 32 58 35 103 32 l52 -3 18 82 19 81 33 0 c41 0 107 22 118 40
5 7 30 29 56 50 26 21 46 43 43 50 -2 7 0 12 5 12 16 0 1 94 -20 122 l-20 28
23 20 c21 18 25 19 40 5 27 -24 62 -17 108 22 24 20 53 42 64 48 39 19 80 81
85 127 4 36 0 49 -26 86 -28 38 -35 42 -63 37 -17 -3 -40 -10 -50 -16 -33 -18
-30 -3 4 23 18 14 47 39 65 56 28 28 34 30 47 17 8 -8 17 -24 21 -35 7 -23 37
-34 71 -26 13 4 24 5 24 2 0 -2 -12 -39 -26 -82 -35 -109 -93 -229 -157 -326
-52 -80 -220 -278 -235 -278 -5 0 -26 -17 -47 -38 -103 -97 -288 -199 -460
-252 -38 -12 -92 -28 -120 -37 -74 -22 -184 -32 -330 -28 -125 4 -178 10 -198
22 -9 6 -101 28 -238 59 -57 12 -229 86 -229 98 0 2 20 1 44 -1 26 -3 46 -1
50 6 10 16 46 14 46 -3 0 -21 30 -28 54 -13 12 8 32 36 45 63 14 28 26 42 29
34 2 -8 6 -22 9 -30 9 -23 10 -28 12 -55 0 -14 12 -37 25 -50 23 -23 30 -24
88 -19 39 4 68 12 76 22 6 9 12 12 12 7 0 -5 7 0 16 11 14 18 15 15 9 -39 -4
-39 -3 -63 5 -73 13 -15 60 -19 75 -6 9 8 82 32 114 38 19 4 28 20 46 78 17
57 19 102 5 111 -5 3 -10 10 -10 15 0 13 66 81 73 74 10 -10 19 57 13 92 -5
25 -4 33 6 29 7 -3 31 5 53 18 29 16 41 30 43 50 3 25 7 27 46 27 46 0 70 17
57 38 -7 11 -34 19 -77 21 -13 1 -50 68 -49 90 0 16 25 29 25 13 0 -5 11 -22
25 -38 l25 -29 34 18 c44 25 141 118 161 157 9 17 13 40 10 51 -10 30 -44 57
-66 52 -25 -7 -24 2 6 34 16 19 24 38 23 62 -1 59 1 63 20 57 22 -7 92 19 92
34 0 6 8 10 18 10 28 1 59 34 88 94 15 31 34 62 44 69 38 28 33 72 -15 120
-22 21 -37 27 -71 27 -23 0 -46 -4 -49 -10 -3 -5 -13 -10 -22 -10 -15 0 -14 2
0 18 12 13 17 36 17 72 l0 54 34 -37 c40 -44 72 -48 114 -12 17 14 36 25 43
25 7 0 27 5 45 12 39 14 50 45 29 84 -8 16 -15 37 -15 46 0 25 40 62 114 106
16 9 36 24 45 32 14 14 17 14 28 0 9 -12 5 -18 -22 -34z m-2108 -21 c-13 -20
-32 -35 -46 -37 -31 -4 -45 -50 -38 -121 4 -49 36 -97 64 -97 8 0 27 -7 43
-15 26 -13 34 -14 63 -1 19 7 43 23 54 35 11 12 31 24 44 26 13 3 32 14 42 26
13 16 20 19 31 10 7 -6 33 -14 58 -17 40 -6 49 -3 78 22 17 16 38 41 46 57 16
29 34 36 34 13 0 -8 7 -22 16 -30 10 -11 11 -16 3 -16 -7 0 -9 -3 -6 -7 4 -3
-1 -12 -10 -18 -17 -13 -26 -88 -27 -235 -1 -53 -4 -68 -21 -80 -11 -8 -24
-15 -30 -15 -17 0 -48 -58 -47 -87 1 -37 -4 -35 -28 11 -11 22 -26 44 -34 48
-14 8 14 45 109 143 16 17 23 36 23 57 -1 18 4 38 10 46 17 20 10 57 -12 69
-17 9 -127 6 -166 -5 -49 -14 -81 -34 -86 -54 -3 -12 -14 -25 -24 -28 -10 -3
-21 -12 -24 -20 -3 -8 -22 -17 -43 -20 -21 -3 -50 -8 -65 -10 -21 -3 -27 1
-32 20 -4 14 -11 25 -16 25 -6 0 -10 8 -10 18 0 19 -34 62 -50 62 -5 0 -12 9
-15 20 -7 23 -57 47 -109 51 -53 5 -84 -41 -50 -75 11 -12 20 -13 34 -6 34 18
67 12 74 -13 3 -13 17 -29 31 -37 18 -10 24 -19 21 -36 -8 -43 -23 -59 -58
-60 -18 -1 -43 -5 -55 -9 -20 -6 -22 -2 -33 69 -13 78 -17 83 -51 66 -18 -10
-19 -7 -19 48 0 56 14 160 27 192 3 10 9 4 17 -20 7 -19 23 -40 35 -46 48 -24
165 30 224 103 10 12 24 20 31 17 11 -4 10 -12 -7 -39z m645 -37 c-1 -18 -4
-39 -7 -45 -7 -21 -72 -16 -95 7 -23 23 -27 70 -6 70 7 0 19 6 25 14 10 11 18
11 49 0 34 -11 37 -16 34 -46z m1593 -1 c-20 -67 -70 -137 -99 -137 -60 0 -1
153 68 180 26 9 40 -11 31 -43z m79 1 c8 -6 8 -10 -1 -16 -7 -4 -13 -34 -14
-70 -2 -47 -6 -62 -17 -62 -8 0 -39 -25 -69 -56 -54 -57 -65 -59 -77 -17 -6
17 0 24 31 40 51 25 96 87 113 158 8 32 16 52 18 44 3 -8 10 -17 16 -21z
m-1928 2 c1 0 4 -7 8 -15 6 -17 -39 -74 -57 -71 -37 7 -56 20 -65 45 -6 15 -7
33 -3 39 9 14 51 19 86 10 16 -4 31 -8 31 -8z m-293 -11 c38 -20 67 -52 67
-75 0 -13 -16 -36 -40 -58 l-39 -35 -42 18 c-44 20 -82 51 -61 51 6 0 21 19
33 43 36 71 43 76 82 56z m2358 1 c45 -25 -6 -140 -62 -140 -22 0 -39 48 -27
79 5 16 5 28 -2 35 -5 5 -10 16 -10 23 0 16 72 18 101 3z m-569 -77 c2 -27 -1
-43 -7 -43 -6 0 -20 -8 -31 -17 -48 -43 -53 -46 -69 -33 -32 26 -9 129 27 122
10 -2 28 4 40 12 28 20 35 12 40 -41z m-764 -4 c57 -20 67 -96 17 -134 -39
-30 -65 -34 -93 -13 -26 18 -45 98 -23 98 6 0 11 12 11 26 0 19 4 25 15 21 8
-4 17 -2 20 3 8 13 15 12 53 -1z m374 -124 l-4 -71 -33 0 c-20 0 -46 -10 -66
-25 -58 -44 -58 -44 -57 11 1 27 -2 53 -6 57 -4 5 -33 8 -65 8 -56 -1 -57 0
-47 22 7 15 16 21 26 17 32 -14 70 -16 105 -4 27 9 40 9 48 1 19 -19 44 -12
74 22 15 19 28 33 29 33 0 -1 -1 -33 -4 -71z m145 22 c13 -31 1 -78 -32 -121
-29 -39 -54 -47 -56 -18 -6 77 2 117 28 143 31 29 46 28 60 -4z m856 -39 c3
-40 5 -98 4 -128 l-2 -55 -36 3 c-20 1 -48 -2 -61 -7 -36 -14 -52 16 -38 70 6
23 10 60 8 82 -2 38 0 41 28 49 17 4 41 19 55 32 13 13 27 24 30 25 3 1 9 -32
12 -71z m-1923 17 c6 -8 9 -18 6 -23 -3 -5 2 -21 10 -36 20 -39 18 -46 -19
-90 -25 -29 -38 -38 -52 -32 -15 6 -17 15 -12 69 10 109 35 150 67 112z m242
-28 c21 -15 26 -26 22 -46 -9 -45 -12 -66 -13 -78 -1 -12 -61 -53 -79 -53 -15
0 -20 44 -10 97 5 26 10 59 11 73 1 14 6 28 11 32 11 7 17 5 58 -25z m1499 16
c0 -5 3 -19 5 -33 3 -14 0 -46 -6 -72 -15 -59 -48 -84 -94 -71 -27 8 -31 13
-28 38 2 16 15 43 28 60 13 18 24 37 24 43 0 22 69 56 71 35z m-1946 -20 c-4
-10 -7 -27 -7 -38 1 -24 -20 -57 -65 -105 l-33 -35 2 85 c3 93 10 103 78 108
28 2 31 0 25 -15z m1729 -9 c10 -37 -11 -102 -38 -119 -17 -11 -33 -13 -62 -7
-35 7 -39 11 -42 41 -2 18 1 38 6 44 5 7 12 24 16 39 6 25 10 27 60 27 49 0
55 -3 60 -25z m-2391 -145 c-7 -16 53 -29 86 -19 24 7 38 6 48 -1 7 -6 20 -9
28 -5 10 3 20 -5 31 -27 9 -18 21 -35 27 -38 5 -4 0 -12 -12 -19 -13 -6 -31
-20 -42 -31 -25 -25 -43 -24 -36 1 7 27 -16 43 -53 35 -16 -4 -30 -10 -30 -13
0 -4 -11 -20 -24 -37 l-23 -29 -17 56 c-18 64 -21 105 -10 168 l7 45 12 -40
c6 -22 10 -43 8 -46z m462 38 c-24 -92 -27 -97 -58 -97 -20 0 -30 6 -34 20 -6
23 -31 26 -80 8 -38 -14 -53 -3 -53 40 0 17 6 22 24 22 13 0 27 -6 29 -12 4
-10 8 -9 16 2 6 8 11 10 11 4 0 -17 78 1 110 25 30 22 43 17 35 -12z m1309 12
c33 -15 39 -34 21 -67 -36 -66 -60 -77 -96 -43 -27 25 -21 59 16 93 36 33 29
31 59 17z m300 -21 c8 -13 5 -22 -13 -42 -13 -14 -23 -37 -23 -53 0 -43 -14
-60 -69 -88 -76 -37 -89 -35 -89 20 0 65 24 105 88 148 59 40 88 44 106 15z
m-1547 -98 c18 -14 21 -20 10 -20 -8 0 -22 -3 -31 -6 -12 -5 -16 0 -16 20 0
31 4 32 37 6z m2068 -7 c-4 -10 -7 -30 -6 -45 2 -34 -2 -35 -37 -3 -16 14 -37
32 -48 40 -18 14 -17 15 9 11 16 -3 38 -1 50 4 33 13 40 12 32 -7z m-1755 -15
c36 -21 54 -48 31 -48 -5 0 -11 -11 -15 -23 -8 -32 -45 -79 -57 -71 -6 3 -17
0 -26 -7 -13 -11 -18 -10 -34 10 -11 13 -19 31 -19 41 0 10 -2 25 -5 32 -6 15
28 59 60 76 26 15 20 15 65 -10z m988 -5 c-2 -36 -15 -53 -40 -53 -24 0 -168
-48 -185 -62 -8 -7 -23 -2 -45 15 -18 14 -42 27 -52 28 -16 3 -11 9 23 32 23
15 46 25 51 22 6 -4 23 0 38 8 26 13 31 12 56 -10 39 -33 77 -30 118 11 18 18
34 34 35 35 2 0 2 -11 1 -26z m936 21 c29 -11 20 -75 -16 -122 -18 -23 -35
-42 -39 -42 -10 0 -49 68 -49 84 0 19 26 67 42 77 15 10 40 11 62 3z m-1443
-21 c0 -10 2 -28 4 -39 6 -27 -50 -94 -77 -94 -18 0 -19 5 -13 67 3 36 8 70
11 75 3 4 21 8 40 8 25 0 34 -4 35 -17z m-942 -29 c3 -2 -5 -22 -16 -43 -18
-33 -19 -41 -7 -53 11 -10 11 -22 3 -52 -6 -21 -8 -44 -5 -52 4 -10 -2 -14
-19 -14 -13 0 -54 -16 -91 -35 -37 -18 -71 -32 -75 -29 -5 2 -20 -5 -34 -17
-19 -17 -25 -32 -25 -63 0 -25 -3 -37 -10 -30 -8 8 -60 137 -60 149 0 3 11 -2
24 -10 31 -21 85 -11 123 20 15 13 42 32 60 42 18 10 33 21 33 25 0 5 6 8 13
8 8 0 14 15 16 38 2 20 4 51 6 67 1 17 3 38 4 49 1 15 6 17 28 11 16 -4 30 -9
32 -11z m698 -14 c21 -11 46 -17 55 -14 13 4 18 0 18 -16 0 -20 -21 -50 -35
-50 -7 0 -67 -53 -121 -107 -56 -57 -68 -56 -59 5 4 26 11 51 16 57 5 5 9 19
9 32 0 43 44 113 72 113 4 0 25 -9 45 -20z m1430 -32 c21 -18 40 -33 42 -35 9
-6 -32 -42 -66 -58 -23 -11 -39 -13 -45 -7 -11 11 10 132 23 132 5 0 25 -14
46 -32z m-2273 -83 c-9 -14 -37 -40 -62 -57 -37 -25 -49 -29 -71 -22 -14 5
-31 21 -38 34 -17 32 -9 99 14 115 15 11 19 9 31 -16 19 -38 38 -36 92 11 l45
39 3 -39 c2 -24 -3 -49 -14 -65z m336 73 c7 -18 22 -43 33 -55 21 -24 17 -53
-8 -53 -8 0 -15 4 -15 9 0 13 -39 -9 -73 -41 -28 -26 -46 -27 -74 -5 -8 6 -12
31 -12 63 2 48 5 57 36 84 23 21 44 30 67 30 29 0 35 -5 46 -32z m845 2 c4 -6
11 -8 16 -5 17 11 9 -5 -13 -27 -13 -13 -32 -21 -44 -20 -18 3 -25 -4 -34 -35
-7 -21 -17 -43 -22 -50 -10 -12 1 -59 26 -112 10 -21 6 -27 -33 -62 -42 -37
-70 -51 -55 -28 13 22 32 109 23 109 -5 0 -9 8 -9 18 0 22 -65 88 -74 74 -3
-6 -15 -8 -26 -5 -32 8 -78 -32 -85 -75 -4 -20 -15 -55 -26 -78 -10 -23 -19
-50 -19 -61 0 -29 -6 -31 -53 -23 -40 8 -97 -9 -97 -28 0 -7 -97 -112 -103
-112 -2 0 -2 14 1 30 2 17 10 30 18 30 36 0 98 95 110 169 6 35 10 41 31 41
16 0 43 18 76 50 29 27 59 57 68 65 9 8 21 15 27 15 7 0 12 5 12 10 0 6 7 10
15 10 9 0 18 7 21 15 5 13 9 13 23 -3 42 -48 94 -32 156 47 40 50 58 61 70 41z
m900 -17 c13 -16 25 -33 25 -40 0 -20 -67 -65 -108 -70 -54 -7 -69 13 -47 61
10 20 15 42 12 50 -7 16 10 23 61 25 24 1 39 -6 57 -26z m-500 -31 c-4 -9 -7
-33 -6 -53 1 -31 -5 -42 -43 -77 -57 -52 -82 -49 -91 12 -4 24 -5 54 -3 67 3
24 40 49 78 52 11 1 20 4 20 7 0 3 12 7 26 8 21 2 25 -1 19 -16z m-286 -33
c12 -12 20 -27 17 -34 -3 -8 -8 -30 -12 -49 -5 -31 -9 -35 -29 -30 -13 3 -37
-1 -53 -10 -50 -26 -72 -21 -72 15 0 41 16 69 40 69 11 0 20 6 20 14 0 16 37
46 55 46 6 0 21 -9 34 -21z m-652 -45 c-2 -3 -11 -2 -20 2 -15 5 -15 8 1 29
l17 23 3 -25 c2 -14 2 -27 -1 -29z m-157 16 c15 -11 30 -17 34 -13 3 3 6 2 6
-4 0 -5 -18 -16 -41 -23 -22 -8 -46 -22 -53 -31 -11 -17 -13 -17 -24 1 -10 16
-9 21 8 30 11 6 23 22 26 35 7 30 9 30 44 5z m1680 -94 c-5 -16 -10 -40 -10
-52 0 -26 -18 -30 -79 -18 l-31 6 19 24 c21 27 17 64 -6 64 -9 0 6 17 33 39
l48 38 18 -36 c14 -28 16 -42 8 -65z m-784 52 c-3 -46 8 -75 37 -96 22 -17 22
-21 -9 -57 -17 -20 -23 -36 -19 -52 5 -21 4 -22 -14 -11 -16 10 -23 9 -39 -5
-24 -22 -27 -22 -28 8 -3 37 -21 54 -70 66 -51 13 -54 21 -18 38 21 9 29 9 38
-2 17 -22 43 -27 56 -12 6 7 19 43 30 79 28 98 41 114 36 44z m-1064 -43 c-16
-13 -51 -54 -77 -89 -30 -41 -52 -63 -61 -59 -17 6 -17 9 -3 35 6 11 11 35 11
54 0 30 2 33 27 28 19 -4 37 3 66 25 48 36 79 41 37 6z m296 2 c6 -6 14 -25
17 -40 10 -37 -31 -147 -54 -147 -17 0 -84 123 -73 135 4 3 7 14 7 22 0 9 15
22 35 29 46 16 55 17 68 1z m1367 -3 c13 3 30 9 39 12 12 5 9 -5 -10 -40 -19
-34 -32 -46 -49 -46 -24 0 -31 12 -41 65 -4 24 -3 25 17 15 11 -7 31 -9 44 -6z
m-1010 -26 c35 -30 31 -57 -17 -130 -48 -71 -83 -87 -94 -44 -8 32 1 45 26 39
18 -5 19 0 18 59 -2 44 2 69 12 81 20 21 25 21 55 -5z m898 -10 c11 -39 -4
-108 -27 -123 -28 -20 -31 -19 -45 12 -21 46 -23 99 -6 117 25 24 71 21 78 -6z
m491 1 c19 -28 5 -59 -37 -84 -17 -10 -42 -31 -54 -46 -13 -14 -31 -29 -42
-32 -17 -4 -19 1 -17 44 0 27 4 49 8 49 4 0 5 7 2 15 -4 8 7 27 24 45 38 37
93 42 116 9z m-2224 -17 c0 -16 -13 -47 -30 -70 -28 -39 -33 -42 -79 -42 -41
0 -50 3 -54 21 -4 15 -11 20 -22 15 -12 -4 -15 -1 -13 12 2 10 11 16 21 14 9
-2 17 2 17 8 0 6 8 13 18 17 9 3 28 14 42 23 25 18 51 27 83 29 12 1 17 -7 17
-27z m231 -94 c-3 -109 -10 -118 -88 -113 -29 2 -55 0 -58 -6 -9 -14 -31 12
-39 46 -3 17 -3 25 1 19 15 -20 41 -23 48 -6 3 9 6 18 6 19 0 1 18 21 40 44
21 23 39 46 39 51 0 12 43 48 50 42 2 -3 3 -46 1 -96z m1249 43 c-12 -24 -117
-121 -129 -121 -12 0 -13 3 -16 42 -1 19 4 29 22 37 24 11 30 26 13 36 -18 11
-11 27 10 22 11 -3 18 -1 15 3 -8 13 27 17 62 6 25 -7 30 -12 23 -25z m-1167
-15 c-4 -5 -1 -6 4 -3 14 9 30 -11 39 -48 4 -17 11 -32 15 -35 5 -3 2 -44 -6
-90 -27 -153 -28 -166 -10 -184 24 -24 56 -20 102 14 l40 30 26 -20 c14 -11
37 -20 50 -20 14 0 29 -4 32 -10 3 -5 16 -10 29 -10 l23 0 -21 -45 c-21 -45
-21 -45 -31 -21 -14 32 -65 86 -82 86 -7 0 -30 -9 -50 -20 -21 -11 -54 -20
-74 -20 -21 0 -42 -7 -49 -15 -7 -9 -18 -14 -24 -12 -7 3 -20 -15 -30 -40 -24
-59 -18 -134 14 -168 13 -14 19 -25 14 -25 -23 0 -224 145 -224 162 0 4 17 7
38 6 45 0 68 10 140 66 47 37 52 44 52 81 0 45 -32 122 -58 141 -16 12 -16 15
3 49 15 29 19 54 18 117 -2 71 0 78 12 62 7 -10 11 -23 8 -28z m1660 -25 c33
-13 34 -27 4 -63 -24 -30 -97 -69 -111 -61 -11 7 -1 95 14 124 12 22 34 22 93
0z m-866 -24 c3 -5 -28 -40 -68 -78 -56 -53 -80 -69 -99 -67 -22 3 -25 7 -23
42 1 29 9 44 32 63 17 14 31 32 31 39 0 16 117 16 127 1z m708 -4 c-3 -10 -9
-38 -12 -63 -3 -25 -8 -46 -12 -48 -24 -10 -30 -25 -35 -84 -4 -36 -13 -79
-21 -94 -8 -16 -15 -35 -15 -43 0 -9 -4 -10 -12 -4 -26 19 -92 15 -121 -7 -35
-28 -34 -14 3 30 17 19 30 40 30 47 0 6 6 16 13 20 14 8 47 73 47 91 0 21 52
113 67 119 8 3 19 16 24 29 5 15 17 24 30 24 16 0 20 -4 14 -17z m-939 -40
c-3 -16 -7 -52 -8 -82 -2 -47 1 -56 25 -77 24 -21 26 -26 16 -51 -7 -15 -11
-45 -10 -66 l2 -38 -44 45 c-53 56 -98 62 -137 21 -13 -14 -26 -22 -29 -19 -3
3 -7 46 -8 97 -1 51 -5 100 -7 110 -4 16 -2 16 24 1 45 -27 93 -12 131 41 37
51 53 58 45 18z m-1078 1 c18 -8 56 -18 86 -21 45 -5 57 -2 74 15 24 24 32 19
32 -22 1 -52 43 -86 106 -86 24 0 24 -1 8 -25 -12 -18 -20 -22 -32 -16 -29 17
-49 0 -73 -64 l-24 -64 -23 22 c-34 32 -116 136 -138 177 -10 19 -27 46 -36
59 -17 22 -23 41 -15 41 2 0 18 -7 35 -16z m1351 -33 c-25 -34 -33 -71 -33
-149 0 -29 -2 -49 -5 -45 -3 4 -29 8 -58 8 -36 0 -57 6 -72 19 -26 24 -27 46
-2 46 11 0 27 13 37 29 10 16 28 35 41 42 13 7 23 16 23 20 0 5 15 16 33 25
17 9 36 23 40 31 5 8 11 12 14 10 3 -3 -5 -19 -18 -36z m485 3 c14 -5 14 -9 2
-33 -8 -14 -22 -44 -31 -66 -58 -136 -97 -182 -131 -154 -14 12 -9 96 7 114 5
5 9 17 9 27 0 11 7 18 20 18 11 0 20 6 20 13 0 14 68 87 81 87 4 0 14 -3 23
-6z m-1013 -64 c9 -83 2 -110 -30 -110 -14 1 -37 7 -51 15 -27 15 -80 20 -80
7 0 -8 -60 -46 -64 -40 -1 1 1 22 6 46 8 34 12 41 23 32 15 -13 65 -3 65 13 0
17 92 98 109 95 11 -2 18 -19 22 -58z m602 -30 c9 -22 17 -44 17 -49 0 -5 6
-11 13 -14 6 -2 -2 -11 -20 -20 -35 -19 -62 -14 -64 12 -5 56 10 111 30 111 3
0 14 -18 24 -40z m721 -27 c10 -33 -9 -70 -56 -111 -43 -37 -102 -62 -115 -49
-3 3 5 35 18 72 16 43 29 65 39 64 34 -3 50 2 50 15 0 13 16 22 47 25 6 0 14
-7 17 -16z m-1695 -18 c10 -11 14 -34 12 -83 -1 -27 -8 -37 -48 -62 -49 -31
-81 -37 -113 -20 -13 7 -21 7 -25 0 -17 -28 -48 12 -38 50 5 19 8 20 17 9 20
-26 44 -19 52 15 8 39 40 85 66 95 27 10 65 8 77 -4z m842 -136 c21 -8 25 -15
21 -37 -8 -43 -34 -62 -79 -56 -83 11 -83 11 -83 52 0 21 6 44 12 50 13 13 82
8 129 -9z m-256 -33 l24 -31 -21 -22 c-12 -13 -31 -26 -42 -29 -12 -4 -37 -17
-56 -30 -41 -28 -69 -31 -72 -6 -5 60 13 103 40 94 6 -2 12 1 12 6 0 5 11 21
24 35 29 32 57 27 91 -17z m-307 -14 c24 -16 32 -69 16 -109 l-15 -38 -84 -2
c-65 -2 -88 1 -100 13 -20 21 -19 77 3 96 27 23 50 28 56 12 8 -21 37 -16 71
11 33 28 35 28 53 17z m1160 -26 c2 -9 0 -25 -4 -34 -9 -21 -11 -28 -13 -44
-1 -8 -17 -13 -47 -13 -33 0 -48 -5 -55 -18 -6 -9 -23 -24 -40 -32 l-29 -16
19 52 c11 28 29 60 41 71 11 10 20 23 20 28 0 5 12 16 27 23 32 17 77 8 81
-17z m-302 -53 c12 -24 20 -43 18 -43 -3 0 0 -8 5 -19 9 -16 1 -22 -67 -54
-42 -20 -79 -33 -83 -29 -4 4 -10 39 -13 78 -7 75 2 95 49 107 47 12 68 3 91
-40z m-463 4 c3 -7 -10 -29 -29 -50 -21 -22 -34 -31 -34 -22 0 9 -7 18 -15 21
-23 9 -18 20 18 43 37 24 53 26 60 8z m118 -95 c24 -47 8 -86 -43 -107 -21 -8
-49 -15 -62 -15 -20 0 -24 6 -27 38 -6 61 1 82 34 103 45 28 78 21 98 -19z
m-276 -8 c20 -15 20 -15 1 -29 -17 -13 -60 -11 -76 2 -5 4 40 43 50 42 3 0 14
-7 25 -15z"/>
</g>
</svg>
