<?xml version="1.0" standalone="no"?>
<!DOCTYPE svg PUBLIC "-//W3C//DTD SVG 20010904//EN"
 "http://www.w3.org/TR/2001/REC-SVG-20010904/DTD/svg10.dtd">
<svg version="1.0" xmlns="http://www.w3.org/2000/svg"
 width="465.000000pt" height="413.000000pt" viewBox="0 0 465.000000 413.000000"
 preserveAspectRatio="xMidYMid meet">
<metadata>
Created by potrace 1.16, written by Peter Selinger 2001-2019
</metadata>
<g transform="translate(0.000000,413.000000) scale(0.100000,-0.100000)"
fill="#000000" stroke="none">
<path d="M614 3741 c-11 -1 -26 -9 -34 -16 -8 -8 -27 -16 -42 -20 -31 -8 -36
-20 -39 -90 -1 -27 -6 -60 -11 -73 -4 -13 -10 -60 -13 -105 -5 -100 -23 -228
-38 -280 -13 -46 -1 -87 30 -102 11 -6 49 -48 84 -94 34 -46 71 -86 81 -89 10
-2 18 -11 18 -19 0 -9 8 -23 19 -32 10 -9 21 -26 25 -38 4 -11 31 -46 61 -77
30 -31 55 -61 55 -67 0 -6 24 -35 54 -65 66 -65 124 -140 163 -214 16 -30 42
-70 58 -89 47 -54 125 -145 135 -158 6 -7 10 -16 10 -22 0 -5 4 -11 9 -13 4
-1 20 -22 35 -45 14 -24 30 -43 35 -43 4 0 20 -17 34 -37 14 -21 40 -54 58
-74 19 -20 52 -58 74 -83 22 -26 46 -53 53 -61 7 -8 11 -15 8 -15 -3 0 14 -20
37 -44 23 -24 67 -74 97 -111 119 -145 307 -335 331 -335 22 0 78 -35 92 -57
4 -7 15 -13 23 -13 9 0 46 -30 83 -67 83 -83 98 -95 137 -111 32 -14 57 -35
136 -118 26 -27 72 -69 102 -94 31 -26 57 -56 61 -72 4 -16 12 -28 18 -28 7 0
25 -14 40 -30 16 -17 33 -30 38 -30 4 0 15 -13 24 -30 9 -16 22 -30 31 -30 8
0 32 -18 51 -40 20 -22 41 -40 47 -40 7 0 18 -10 26 -21 8 -12 26 -33 40 -48
14 -14 31 -38 37 -54 7 -15 24 -33 39 -39 17 -8 24 -18 21 -30 -3 -11 0 -18 9
-18 8 0 14 -7 14 -16 0 -8 4 -13 9 -10 5 4 11 1 13 -5 2 -5 27 -11 56 -13 28
-1 55 -6 59 -9 3 -4 24 -7 45 -7 22 0 60 -10 86 -22 52 -24 58 -26 122 -32 24
-2 46 -9 48 -14 1 -5 25 -8 53 -6 27 2 62 -1 77 -7 15 -6 54 -13 87 -15 103
-6 130 -13 178 -46 15 -11 27 -16 27 -12 0 3 6 1 14 -5 10 -8 16 -9 21 -1 8
13 65 13 65 1 0 -17 71 1 94 24 12 12 29 38 36 56 7 19 17 39 21 45 12 16 -10
84 -29 90 -48 16 -108 52 -118 72 -6 12 -43 53 -82 90 -40 37 -72 71 -72 75 0
8 -72 83 -257 270 -73 74 -133 139 -133 145 0 6 -8 15 -17 21 -16 9 -16 11 -1
28 8 10 19 43 22 73 6 48 4 58 -14 78 -11 12 -18 22 -14 22 4 0 -3 8 -14 19
-12 10 -22 21 -22 25 0 9 -31 38 -63 59 -21 13 -26 22 -18 31 5 6 12 27 15 46
18 124 19 132 5 141 -8 4 -14 12 -14 17 0 10 -91 98 -155 151 l-42 33 24 12
c17 9 23 19 21 41 -3 53 -7 65 -20 65 -7 0 -17 10 -24 21 -12 24 -125 140
-149 155 -9 5 -34 32 -55 59 -58 73 -189 221 -262 294 -35 35 -63 68 -63 72 0
5 -8 17 -17 27 -10 9 -36 40 -57 67 -22 28 -47 56 -55 63 -9 7 -34 27 -55 45
-46 38 -102 94 -136 138 -14 18 -33 40 -42 51 -10 10 -18 21 -18 26 0 4 -25
29 -56 57 -33 29 -89 99 -136 170 -81 121 -145 204 -226 292 -12 14 -30 37
-40 51 -50 79 -125 149 -170 161 -20 6 -53 19 -73 30 -36 19 -230 71 -267 71
-12 0 -58 12 -104 27 -46 15 -95 28 -111 30 -15 1 -44 11 -65 21 -20 11 -61
20 -91 21 -30 1 -60 5 -65 9 -12 8 -203 19 -232 13z m221 -95 c11 -3 47 -8 80
-12 33 -3 68 -11 78 -16 10 -5 26 -11 35 -13 9 -3 33 -9 52 -14 19 -6 64 -18
100 -28 36 -10 68 -22 71 -27 4 -5 11 -6 15 -3 21 12 277 -59 294 -83 6 -7 38
-22 58 -26 20 -4 45 -28 109 -107 32 -39 93 -108 135 -154 43 -46 84 -96 93
-113 9 -16 19 -30 23 -30 4 0 20 -21 36 -48 38 -61 103 -140 188 -227 37 -38
80 -90 96 -115 16 -25 53 -65 83 -89 92 -75 169 -154 207 -211 20 -30 66 -85
102 -122 81 -84 140 -150 140 -156 0 -6 82 -100 198 -227 35 -38 32 -40 -41
-37 -40 1 -131 4 -203 5 -71 2 -135 7 -141 10 -6 4 -49 11 -95 17 -45 5 -103
13 -128 17 -25 4 -74 8 -108 8 l-64 0 -79 78 c-43 43 -79 83 -79 88 0 4 -26
28 -57 51 -32 24 -63 50 -69 58 -7 8 -25 29 -40 46 -16 18 -56 65 -89 105 -33
40 -87 101 -120 134 -86 88 -124 131 -180 205 -27 36 -85 101 -129 145 -45 44
-99 103 -121 130 -22 27 -60 70 -85 95 -25 25 -70 74 -99 110 -30 36 -82 96
-117 133 -35 38 -83 99 -107 135 -24 37 -67 90 -95 118 -29 29 -52 57 -52 63
0 6 -12 30 -27 54 -14 23 -26 44 -25 47 4 14 101 18 157 6z m-188 -112 c21
-25 62 -69 91 -99 28 -29 52 -58 52 -64 0 -6 4 -11 9 -11 9 0 81 -105 81 -119
0 -5 6 -11 13 -13 12 -3 107 -111 107 -122 0 -9 68 -83 141 -156 42 -41 90
-95 107 -119 17 -24 49 -57 69 -74 63 -52 116 -109 179 -193 32 -43 103 -124
157 -179 55 -55 109 -116 122 -135 34 -53 163 -192 204 -219 37 -26 70 -60 71
-74 0 -9 3 -13 57 -77 20 -25 44 -53 51 -62 10 -12 12 -21 5 -30 -6 -7 -14
-33 -18 -58 -7 -51 -39 -152 -59 -190 -12 -22 -32 -115 -28 -131 1 -4 -13 -23
-31 -44 l-33 -37 -72 77 c-39 43 -72 82 -72 87 0 4 -6 8 -14 8 -7 0 -26 17
-42 38 -15 20 -33 42 -40 47 -6 6 -26 33 -45 60 -18 28 -52 67 -76 89 -23 21
-45 47 -48 57 -4 11 -10 19 -15 19 -10 0 -60 44 -60 53 0 3 -23 30 -51 59 -63
66 -163 189 -197 243 -13 22 -35 51 -48 65 -12 14 -43 48 -69 75 -25 28 -58
75 -73 105 -14 30 -32 61 -40 69 -7 8 -21 26 -30 40 -32 51 -82 107 -105 120
-14 7 -35 32 -48 55 -13 22 -34 52 -47 65 -13 13 -42 50 -64 83 -22 32 -63 80
-90 106 -27 26 -60 68 -73 93 -13 25 -31 51 -39 58 -18 15 -22 105 -7 157 5
18 12 69 15 115 4 46 12 112 18 147 14 77 31 80 85 16z m1798 -1779 c39 -8 93
-15 122 -15 28 0 55 -5 59 -11 3 -6 15 -9 25 -6 11 3 19 2 19 -2 0 -8 91 -14
230 -15 117 -1 97 8 189 -91 16 -17 51 -46 78 -65 28 -19 57 -47 66 -62 16
-27 16 -27 -18 -34 -19 -3 -56 -1 -82 5 -27 6 -57 12 -68 14 -44 7 -142 43
-174 64 -18 12 -49 25 -70 28 -20 4 -63 13 -96 21 -37 10 -86 14 -127 11 -62
-3 -69 -2 -83 19 -8 12 -28 25 -44 29 -16 3 -41 16 -55 28 -14 12 -39 32 -56
45 -16 13 -30 30 -30 38 0 18 27 18 115 -1z m-157 -155 c7 0 34 -21 60 -47
119 -117 129 -122 277 -138 119 -13 207 -36 281 -72 22 -11 47 -18 57 -15 9 2
39 -3 65 -11 26 -8 56 -15 67 -15 81 -3 110 -16 161 -69 23 -24 46 -43 51 -43
10 -1 46 -50 40 -56 -6 -6 -109 16 -122 26 -14 11 -77 27 -180 45 -125 22
-165 35 -205 67 -19 15 -39 28 -44 28 -5 0 -17 6 -25 14 -21 18 -168 97 -178
95 -5 0 -17 -6 -28 -12 -11 -6 -33 -10 -48 -8 -51 5 -164 65 -172 92 -3 9 -24
29 -46 45 -23 15 -45 38 -50 51 -5 13 -15 23 -24 23 -8 0 -15 4 -15 9 0 16 34
18 51 4 8 -7 21 -13 27 -13z m420 -89 c18 -5 56 -13 84 -16 29 -4 84 -22 123
-41 38 -19 76 -34 82 -34 7 0 13 -4 13 -10 0 -17 -63 -11 -102 10 -20 11 -52
22 -70 25 -18 4 -46 13 -63 22 -16 8 -51 16 -77 18 -55 3 -77 13 -57 26 18 11
27 11 67 0z m-536 -81 c7 -11 18 -20 25 -20 7 0 13 -3 13 -7 0 -5 20 -21 45
-38 25 -16 47 -38 51 -48 3 -10 17 -23 30 -29 13 -6 24 -15 24 -19 0 -5 23
-31 52 -59 34 -33 60 -50 76 -50 14 0 33 -6 41 -13 16 -14 203 -88 214 -86 1
0 26 -9 55 -20 29 -12 60 -21 70 -21 9 0 29 -6 44 -14 30 -16 71 -23 173 -32
39 -3 79 -9 90 -14 31 -13 76 -22 128 -25 46 -3 50 -6 182 -137 74 -73 146
-142 160 -153 26 -20 85 -93 85 -105 0 -12 -45 -9 -60 4 -8 8 -40 19 -70 25
-30 7 -74 16 -98 22 -24 5 -54 6 -67 3 -22 -6 -174 45 -201 67 -6 5 -14 6 -17
2 -4 -3 -12 -1 -19 4 -7 6 -44 21 -83 33 -80 26 -202 31 -215 9 -13 -20 -93
47 -277 228 -89 89 -179 174 -200 189 -48 36 -95 85 -144 151 -21 28 -53 62
-71 74 -43 31 -67 60 -68 82 0 23 17 22 32 -3z m946 -42 c37 -6 88 -12 114
-12 46 -1 68 -10 55 -23 -4 -3 -36 -1 -71 5 -35 7 -82 12 -104 12 -22 0 -44 5
-47 10 -3 6 -15 10 -26 10 -10 0 -19 5 -19 11 0 6 7 8 16 5 8 -3 45 -11 82
-18z m-686 -60 c16 -7 28 -16 28 -20 0 -16 -23 -7 -54 19 -31 26 -26 27 26 1z
m159 -5 c19 -10 41 -18 49 -20 23 -3 138 -61 201 -99 39 -24 84 -41 146 -53
49 -10 98 -23 109 -29 10 -6 46 -17 79 -25 72 -17 127 -38 137 -52 5 -6 8 -5
8 2 0 9 7 10 26 3 14 -6 29 -8 33 -6 4 3 13 1 21 -4 9 -6 1 -12 -29 -20 -23
-6 -46 -8 -51 -5 -6 4 -23 8 -38 11 -15 3 -34 7 -42 10 -8 3 -60 7 -115 9
-101 2 -195 20 -195 36 0 5 -10 9 -23 9 -53 0 -300 97 -322 126 -6 8 -19 16
-30 18 -24 4 -31 31 -13 53 7 9 12 24 10 35 -4 22 -3 22 39 1z m-416 -31 c11
-10 37 -37 58 -60 38 -43 119 -118 172 -159 16 -13 104 -96 195 -185 203 -199
278 -268 290 -268 5 0 15 -6 22 -13 7 -7 48 -38 90 -70 43 -32 89 -73 103 -91
22 -30 24 -37 14 -60 -15 -32 -18 -32 -49 -2 -45 43 -60 64 -60 86 0 6 -6 10
-13 10 -7 0 -26 13 -42 30 -16 16 -34 30 -41 30 -6 0 -24 16 -38 35 -15 19
-38 38 -51 41 -14 3 -25 12 -25 20 0 8 -6 14 -13 14 -14 0 -157 131 -157 144
0 10 -51 56 -63 56 -5 0 -51 43 -104 96 -58 59 -112 103 -139 115 -31 14 -59
39 -96 88 -29 38 -64 75 -76 82 -32 18 -65 66 -58 84 6 17 49 5 81 -23z m946
-662 c38 -12 91 -32 117 -45 26 -13 59 -26 73 -28 15 -3 44 -14 65 -24 21 -10
53 -18 69 -17 47 2 198 -26 215 -40 8 -7 44 -19 80 -27 43 -9 73 -22 90 -39
14 -14 41 -33 62 -44 20 -10 51 -34 70 -53 l33 -34 -65 7 c-36 3 -73 11 -82
15 -9 5 -27 9 -40 9 -13 0 -36 8 -51 19 -19 12 -49 19 -98 20 -43 1 -87 10
-116 22 -30 13 -65 19 -97 18 -32 -1 -62 4 -81 14 -16 9 -42 17 -57 17 -34 0
-70 14 -99 37 -27 23 -100 84 -120 101 -8 7 -35 28 -61 46 -26 18 -46 35 -43
37 12 12 74 7 136 -11z m191 -286 c20 -2 49 -9 65 -17 24 -13 32 -13 53 -2 27
15 44 13 107 -16 26 -11 65 -19 98 -19 39 0 70 -7 103 -24 40 -20 92 -33 162
-41 31 -3 175 -38 182 -44 4 -3 -1 -16 -10 -29 -16 -20 -21 -21 -50 -11 -24 8
-40 8 -60 0 -23 -10 -38 -7 -91 13 -43 18 -85 26 -135 27 -39 1 -83 7 -97 15
-14 7 -47 12 -75 12 -68 0 -216 30 -236 49 -10 9 -35 17 -56 18 -20 1 -46 6
-57 12 -11 6 -26 8 -32 6 -7 -3 -13 1 -13 7 0 7 8 10 20 7 11 -3 20 0 20 6 0
18 34 46 50 40 8 -3 32 -7 52 -9z"/>
</g>
</svg>
