<?xml version="1.0" standalone="no"?>
<!DOCTYPE svg PUBLIC "-//W3C//DTD SVG 20010904//EN"
 "http://www.w3.org/TR/2001/REC-SVG-20010904/DTD/svg10.dtd">
<svg version="1.0" xmlns="http://www.w3.org/2000/svg"
 width="547.000000pt" height="423.000000pt" viewBox="0 0 547.000000 423.000000"
 preserveAspectRatio="xMidYMid meet">
<metadata>
Created by potrace 1.16, written by Peter Selinger 2001-2019
</metadata>
<g transform="translate(0.000000,423.000000) scale(0.100000,-0.100000)"
fill="#000000" stroke="none">
<path d="M1655 4133 c-11 -2 -29 -8 -40 -13 -11 -5 -47 -18 -80 -29 -133 -45
-163 -58 -202 -89 -23 -17 -46 -32 -51 -32 -6 0 -14 -9 -17 -20 -3 -11 -10
-20 -15 -20 -4 0 -27 -30 -51 -67 -41 -66 -76 -163 -58 -163 9 0 -27 -101 -40
-110 -10 -7 -41 -144 -56 -251 -17 -113 -12 -286 9 -369 31 -117 50 -175 67
-200 9 -14 20 -36 24 -50 9 -29 49 -85 85 -118 50 -47 125 -109 145 -121 11
-7 13 -10 5 -7 -304 101 -561 132 -770 92 -92 -17 -130 -32 -130 -52 0 -7 -18
-32 -39 -56 -33 -36 -39 -49 -36 -78 5 -51 11 -82 23 -110 13 -31 186 -192
245 -228 15 -9 27 -20 27 -25 0 -4 4 -6 9 -3 5 3 14 -1 21 -9 6 -8 27 -19 46
-25 19 -6 34 -15 34 -19 0 -4 19 -16 43 -26 23 -9 74 -32 112 -50 39 -18 81
-36 95 -40 14 -4 43 -16 65 -26 49 -22 125 -40 139 -32 5 3 6 1 2 -5 -4 -7 -1
-12 8 -12 22 0 20 -10 -10 -41 -26 -28 -31 -53 -21 -109 2 -14 5 -33 6 -42 2
-27 45 -70 72 -73 14 -2 43 -12 65 -22 66 -34 209 -63 311 -65 13 0 21 -4 18
-8 -6 -9 61 -23 74 -15 5 3 17 -2 25 -11 12 -11 16 -12 16 -2 0 9 2 10 8 1 4
-6 21 -15 37 -19 17 -4 33 -11 36 -16 3 -5 28 -11 55 -12 27 -2 69 -9 94 -15
24 -7 53 -10 62 -8 10 3 18 2 18 -3 0 -9 90 -40 117 -40 11 0 25 6 33 13 12
10 12 9 1 -5 -15 -20 -9 -22 37 -9 23 7 30 7 26 -1 -5 -7 -1 -9 9 -5 9 3 19 1
23 -5 4 -7 9 -6 15 3 6 10 9 11 9 2 0 -8 13 -13 33 -13 17 0 50 -5 72 -10 22
-5 72 -12 110 -15 39 -4 76 -8 83 -10 23 -8 236 26 259 41 12 8 29 14 37 14
45 0 49 149 6 210 -57 81 -155 161 -265 215 -22 11 -42 22 -45 25 -26 26 -267
127 -370 155 -36 10 -69 22 -75 26 -5 5 -17 9 -27 9 -11 0 -38 9 -60 20 -23
11 -48 20 -55 20 -7 0 -13 4 -13 9 0 5 -17 13 -37 18 -30 7 -45 20 -78 68 -68
100 -196 221 -304 288 -40 25 -42 28 -16 22 105 -23 155 -26 312 -21 193 6
288 23 376 67 74 38 154 90 190 123 15 14 33 26 38 26 9 0 60 52 139 141 16
19 30 40 30 47 0 6 4 12 9 12 5 0 12 12 16 28 3 15 21 52 38 82 17 30 32 58
33 63 1 4 3 8 4 10 1 1 4 11 5 22 3 19 16 109 31 205 19 126 9 255 -23 307
-10 14 -11 23 -4 28 26 15 8 52 -61 123 -139 143 -157 161 -205 193 -26 17
-59 42 -73 54 -14 12 -49 39 -79 59 -29 20 -49 36 -45 36 5 0 -3 7 -18 15 -51
27 -73 40 -115 68 -24 15 -49 27 -56 27 -8 0 -17 3 -21 7 -8 8 -72 32 -104 39
-51 11 -392 25 -427 17z m115 -145 c15 -10 29 -10 63 -1 33 9 60 10 103 2 33
-6 80 -12 105 -14 25 -1 52 -6 60 -11 8 -5 16 -9 19 -9 85 -13 190 -62 285
-134 95 -72 205 -171 202 -183 -1 -6 11 -18 27 -27 19 -11 43 -43 67 -90 21
-40 42 -78 47 -84 15 -20 33 -80 38 -127 3 -25 7 -51 9 -58 3 -7 0 -36 -6 -65
-6 -28 -12 -63 -14 -77 -2 -14 -10 -43 -19 -65 -8 -22 -15 -47 -16 -56 0 -26
-51 -171 -69 -199 -9 -13 -33 -41 -53 -63 -21 -21 -38 -42 -38 -47 0 -8 -143
-120 -154 -120 -4 0 -30 -17 -59 -37 -47 -33 -128 -68 -182 -78 -11 -2 -74
-11 -140 -19 -127 -15 -196 -15 -264 4 -23 6 -46 8 -51 5 -6 -3 -10 -1 -10 4
0 6 -7 11 -15 11 -50 0 -222 106 -312 191 -31 30 -61 53 -66 51 -5 -1 -6 1 -3
6 3 5 -4 18 -14 30 -11 12 -20 24 -20 27 0 2 -10 16 -22 30 -12 14 -23 35 -25
47 -2 12 -7 26 -12 32 -14 18 -50 123 -45 129 3 3 -3 38 -15 77 -13 46 -17 79
-12 93 5 12 5 31 1 42 -7 17 -6 67 3 203 0 6 4 12 7 12 4 0 8 10 8 23 0 12 8
42 17 67 9 25 22 68 28 95 6 28 19 57 30 67 10 9 20 26 22 38 2 11 13 36 25
55 26 42 134 147 163 159 12 5 36 14 52 22 25 11 69 22 190 47 36 8 45 7 65
-5z m-920 -1529 c122 -13 381 -78 448 -113 26 -13 68 -35 94 -48 61 -30 189
-108 206 -125 7 -7 19 -13 27 -13 7 0 15 -4 17 -9 2 -5 39 -36 83 -68 44 -33
98 -81 120 -107 22 -26 50 -59 62 -73 12 -14 27 -40 33 -59 6 -19 16 -34 21
-34 20 0 8 -37 -18 -57 -47 -34 -92 -36 -176 -8 -42 14 -83 25 -93 25 -9 0
-40 7 -68 15 -28 8 -81 22 -118 32 -38 10 -68 21 -68 25 0 4 -19 12 -42 19
-41 10 -150 54 -213 84 -16 8 -61 22 -99 30 -38 9 -81 22 -95 29 -14 8 -42 17
-61 21 -51 10 -101 35 -135 67 -16 16 -49 37 -72 49 -56 27 -159 138 -174 187
-28 96 12 127 186 139 17 1 77 -2 135 -8z m220 -599 c0 -5 -7 -7 -15 -4 -8 4
-15 8 -15 10 0 2 7 4 15 4 8 0 15 -4 15 -10z m95 -20 c3 -5 -1 -10 -10 -10 -9
0 -13 5 -10 10 3 6 8 10 10 10 2 0 7 -4 10 -10z m1080 -30 c121 -33 136 -37
195 -58 61 -22 155 -70 201 -103 17 -12 33 -19 36 -15 3 3 14 -5 24 -19 20
-25 114 -82 103 -62 -4 7 9 -5 29 -26 20 -21 41 -46 46 -55 8 -14 10 -14 11
-2 1 25 20 -11 20 -37 0 -13 5 -23 11 -23 5 0 7 5 3 12 -4 7 -3 8 5 4 6 -4 9
-11 6 -16 -3 -4 2 -13 10 -20 12 -10 13 -15 3 -28 -7 -8 -12 -18 -10 -21 14
-26 -277 -51 -363 -32 -22 5 -78 17 -125 26 -47 9 -129 27 -182 41 -53 13
-124 24 -156 24 -33 0 -88 9 -123 19 -35 10 -89 25 -119 32 -30 7 -57 16 -60
19 -11 14 -68 28 -114 30 -27 0 -59 6 -70 12 -12 6 -42 10 -68 9 -27 -1 -60 5
-76 13 -16 8 -32 13 -34 10 -3 -2 -11 2 -18 11 -7 8 -18 15 -25 15 -7 0 -24 9
-38 20 -22 17 -25 26 -20 53 12 67 71 96 121 61 13 -9 26 -14 29 -11 6 7 113
-31 127 -44 6 -5 27 -9 47 -9 21 0 41 -5 45 -11 4 -7 22 -9 44 -6 21 3 43 0
48 -5 27 -27 118 -6 203 47 45 29 58 56 61 125 l3 48 45 -3 c25 -2 81 -13 125
-25z"/>
<path d="M3807 3921 c-42 -10 -79 -15 -82 -13 -2 3 -11 0 -18 -7 -8 -6 -21 -9
-29 -6 -8 3 -40 -3 -70 -15 -31 -11 -60 -20 -64 -18 -5 1 -20 -5 -34 -14 -14
-8 -37 -22 -51 -29 -62 -33 -99 -63 -138 -108 -22 -27 -41 -54 -41 -60 0 -6
-4 -11 -9 -11 -4 0 -22 -26 -40 -57 -17 -32 -36 -65 -40 -73 -5 -8 -19 -44
-32 -78 -12 -35 -32 -78 -44 -95 -41 -62 -57 -149 -59 -322 -1 -139 1 -165 17
-188 9 -15 15 -27 13 -27 -11 0 104 -199 146 -254 50 -65 173 -179 215 -199
21 -10 52 -26 68 -34 114 -60 172 -87 183 -85 6 2 12 -2 12 -7 0 -6 -17 -13
-37 -17 -21 -3 -54 -15 -73 -25 -19 -10 -51 -25 -70 -33 -40 -18 -104 -53
-140 -79 -13 -9 -32 -17 -40 -17 -9 0 -29 -13 -45 -30 -16 -17 -34 -30 -40
-30 -10 0 -39 -22 -114 -87 -21 -18 -46 -48 -56 -67 -11 -20 -23 -36 -27 -36
-3 0 -12 -24 -19 -54 -14 -64 -5 -140 20 -164 58 -55 72 -63 106 -56 27 5 36
2 41 -10 7 -19 30 -21 37 -3 4 9 7 9 14 0 8 -12 59 -11 123 2 14 3 50 9 80 14
30 5 89 18 130 29 41 12 103 26 138 33 45 8 60 15 50 21 -9 7 -7 8 9 5 39 -9
176 24 196 46 9 11 17 15 17 9 0 -15 90 12 101 30 7 10 9 10 9 1 0 -7 7 -13
16 -13 8 0 12 4 9 10 -3 6 1 7 10 4 20 -8 67 15 59 28 -4 5 2 9 12 8 11 -1 21
-1 24 0 3 1 30 4 60 7 30 2 57 9 58 14 2 5 14 9 26 9 12 0 40 9 61 21 22 11
62 27 88 35 26 8 45 19 42 24 -4 6 3 10 15 10 12 0 25 9 30 23 5 12 20 35 32
50 19 23 23 40 22 93 -1 35 -7 70 -14 79 -7 8 -9 15 -6 15 4 0 -2 14 -14 30
-30 43 -111 86 -197 107 l-73 17 30 13 c17 7 38 19 46 28 9 8 21 15 28 15 6 0
27 12 45 28 86 71 137 117 151 136 8 12 27 35 43 51 30 32 94 154 102 194 2
14 8 27 13 30 5 3 10 13 10 21 1 8 7 44 13 80 24 134 14 240 -37 401 -8 26
-16 56 -17 68 -1 11 -4 21 -8 21 -4 0 -10 14 -14 31 -4 17 -26 49 -49 72 -125
124 -249 232 -310 272 -38 25 -76 51 -84 57 -18 16 -133 81 -192 108 -92 43
-208 50 -343 21z m161 -127 c4 -6 34 -13 68 -16 42 -4 84 -17 137 -44 42 -21
77 -41 77 -46 0 -4 6 -8 13 -8 7 0 24 -10 37 -22 39 -35 117 -88 129 -88 6 0
11 -4 11 -9 0 -5 10 -13 21 -16 12 -4 64 -51 116 -104 80 -81 102 -110 140
-189 41 -86 57 -131 54 -157 0 -5 -3 -70 -5 -144 -6 -144 -11 -169 -61 -276
-34 -72 -116 -168 -154 -180 -12 -3 -21 -10 -21 -14 0 -9 -87 -64 -160 -101
-70 -35 -148 -61 -265 -86 -11 -2 -63 -5 -115 -5 -115 -1 -224 24 -331 75 -42
20 -81 36 -87 36 -7 0 -12 4 -12 9 0 5 -8 12 -17 15 -80 29 -149 97 -240 236
-112 170 -128 210 -138 327 -5 56 -2 88 14 140 10 37 22 92 26 121 4 28 10 52
15 52 4 0 22 38 40 85 18 47 36 85 41 85 8 0 24 40 21 53 -1 5 10 25 25 45 16
21 33 46 39 57 20 38 162 132 209 139 6 1 16 6 24 11 50 31 331 46 349 19z
m432 -1627 c93 -21 153 -60 155 -101 1 -6 6 -23 12 -37 20 -45 19 -71 -1 -83
-11 -6 -27 -19 -37 -28 -17 -16 -35 -23 -80 -32 -8 -2 -21 -6 -29 -9 -46 -19
-110 -40 -145 -47 -63 -14 -159 -37 -175 -43 -8 -3 -39 -8 -69 -12 -29 -3 -57
-8 -62 -11 -5 -3 -48 -11 -96 -19 -49 -8 -119 -21 -158 -30 -38 -9 -90 -20
-115 -25 -25 -5 -85 -18 -135 -29 -49 -11 -109 -22 -133 -24 -23 -2 -45 -7
-49 -11 -12 -11 -43 -6 -88 14 -53 24 -62 39 -57 87 4 28 19 50 73 105 38 38
69 73 69 78 0 6 5 10 11 10 5 0 36 17 67 39 31 21 73 42 92 45 19 4 54 16 76
26 23 11 55 22 70 26 16 4 34 10 39 14 6 5 42 18 80 30 39 12 79 25 90 29 48
19 127 33 215 38 52 3 96 6 97 7 3 3 269 -3 283 -7z m-335 -477 c-3 -5 -11
-10 -16 -10 -6 0 -7 5 -4 10 3 6 11 10 16 10 6 0 7 -4 4 -10z m-700 -160 c3
-5 1 -10 -4 -10 -6 0 -11 5 -11 10 0 6 2 10 4 10 3 0 8 -4 11 -10z m52 4 c-3
-3 -12 -4 -19 -1 -8 3 -5 6 6 6 11 1 17 -2 13 -5z"/>
<path d="M4875 1408 c-96 -12 -303 -97 -355 -145 -30 -28 -59 -29 -111 -4 -52
26 -145 48 -244 60 -113 14 -357 5 -425 -14 -30 -9 -62 -18 -70 -20 -72 -20
-159 -58 -177 -80 -12 -14 -26 -25 -30 -25 -24 0 -83 -22 -83 -31 0 -6 -14
-24 -31 -40 -17 -16 -28 -33 -24 -39 3 -5 3 -10 -2 -10 -4 0 -22 -13 -40 -30
-21 -19 -33 -25 -36 -17 -3 7 -16 -2 -33 -23 -16 -19 -42 -48 -59 -65 -16 -16
-43 -48 -58 -71 -33 -48 -35 -48 -213 -9 -136 31 -380 45 -437 26 -27 -9 -42
-10 -50 -2 -9 7 -27 6 -62 -4 -26 -8 -58 -15 -71 -15 -21 0 -62 -22 -167 -87
-51 -32 -67 -74 -52 -133 17 -65 32 -87 104 -158 61 -60 192 -139 211 -127 4
3 11 -2 14 -11 4 -9 13 -14 21 -10 8 3 14 0 12 -6 -3 -19 65 -39 82 -24 11 8
13 8 8 0 -7 -11 65 -38 128 -48 17 -2 53 -12 82 -20 29 -9 77 -18 107 -19 31
-1 56 -5 56 -8 0 -12 70 -16 70 -4 0 6 3 6 8 -1 4 -6 37 -16 73 -23 80 -13 92
-14 84 -2 -3 5 -1 12 5 16 5 3 10 2 10 -3 0 -24 89 -37 265 -37 186 0 252 10
288 43 17 15 60 94 63 117 1 6 3 15 4 20 9 42 -36 122 -101 182 -63 57 -83 73
-90 73 -23 0 -5 17 36 35 25 11 45 23 45 28 0 4 8 7 18 7 11 0 27 9 37 20 9
10 20 19 24 18 3 -1 15 2 26 7 11 4 65 25 120 47 55 22 104 44 110 49 5 5 17
9 27 9 10 0 18 5 18 11 0 5 4 8 8 5 5 -3 21 2 36 10 35 17 36 17 36 -1 0 -8
-4 -15 -10 -15 -5 0 -10 -8 -10 -19 0 -10 -9 -38 -19 -62 -11 -24 -21 -61 -24
-82 -3 -20 -9 -43 -15 -50 -12 -15 1 -110 17 -115 6 -2 11 -8 11 -13 0 -5 10
-20 22 -34 32 -36 119 -35 273 4 48 12 225 99 240 118 6 7 40 28 76 47 37 18
79 45 94 57 14 13 30 24 33 24 4 0 19 12 33 27 15 14 46 36 70 49 52 26 107
69 157 124 20 21 46 48 57 60 28 30 75 92 75 100 0 4 14 24 30 45 17 21 30 42
30 48 0 5 8 20 19 33 10 13 21 33 23 44 2 11 9 19 16 18 6 -2 16 6 21 16 8 14
6 25 -10 45 -11 14 -25 26 -30 26 -6 0 -22 12 -37 26 -46 44 -101 62 -203 66
-52 2 -121 0 -154 -4z m105 -89 c107 -4 195 -55 187 -108 -6 -37 -23 -67 -46
-83 -11 -8 -21 -20 -23 -28 -2 -8 -13 -26 -26 -40 -13 -14 -31 -37 -40 -52 -9
-16 -22 -28 -29 -28 -7 0 -13 -4 -13 -9 0 -17 -125 -131 -143 -131 -6 0 -31
-17 -56 -38 -49 -41 -166 -122 -176 -122 -3 0 -36 -20 -73 -44 -117 -76 -312
-149 -365 -138 -30 6 -38 45 -22 99 8 26 15 59 15 73 0 14 6 34 13 45 8 11 20
41 27 68 7 26 17 47 21 47 5 0 9 7 9 16 0 20 77 134 96 141 8 3 14 11 14 19 0
7 9 18 20 24 11 6 20 16 20 23 0 7 18 25 40 41 22 17 40 33 40 38 0 4 9 8 20
8 13 0 24 10 30 25 6 15 30 35 67 53 50 25 85 40 208 87 11 4 33 9 49 11 16 3
32 6 35 9 2 3 12 3 20 1 9 -3 45 -6 81 -7z m-845 -109 c44 -11 98 -20 120 -21
22 0 57 -6 77 -12 l37 -12 -40 -44 c-23 -25 -53 -61 -67 -80 -37 -49 -49 -61
-62 -61 -6 0 -13 -6 -16 -14 -3 -8 -18 -14 -32 -14 -27 1 -83 -23 -112 -47
-14 -11 -130 -62 -226 -98 -23 -9 -44 -13 -48 -10 -3 4 -6 2 -6 -4 0 -6 -42
-25 -92 -42 -91 -31 -114 -41 -191 -76 l-38 -18 -87 43 c-48 23 -108 47 -134
53 -27 7 -48 15 -48 19 0 11 36 28 44 21 3 -3 6 1 6 9 0 9 -5 18 -10 20 -12 4
160 178 176 178 3 0 29 19 57 43 61 51 161 117 176 117 11 0 52 20 61 31 10
11 66 28 108 32 23 3 46 7 49 11 13 13 219 -4 298 -24z m-1352 -450 c42 -5 85
-14 95 -18 9 -5 44 -13 77 -17 122 -14 202 -37 295 -82 52 -26 97 -49 100 -53
3 -3 17 -11 32 -19 15 -8 38 -24 50 -35 12 -12 26 -20 30 -18 11 3 87 -79 94
-100 3 -10 9 -18 14 -18 14 0 42 -86 36 -108 -4 -11 -14 -23 -24 -27 -35 -13
-130 -16 -172 -5 -24 6 -90 14 -146 16 -57 2 -136 11 -176 19 -40 9 -91 18
-112 21 -22 2 -60 14 -85 26 -25 11 -62 22 -81 25 -19 2 -57 10 -85 18 -27 7
-81 17 -120 20 -102 9 -211 37 -300 76 -11 5 -32 13 -47 18 -15 6 -35 23 -44
38 -9 15 -28 44 -41 64 -26 39 -30 81 -9 98 7 6 49 20 92 30 44 11 106 26 139
35 64 16 229 14 388 -4z m-86 -516 c-3 -3 -12 -4 -19 -1 -8 3 -5 6 6 6 11 1
17 -2 13 -5z m340 -49 c-16 -16 -37 -20 -37 -7 0 8 42 30 49 25 2 -1 -4 -9
-12 -18z m53 -9 c0 -3 -4 -8 -10 -11 -5 -3 -10 -1 -10 4 0 6 5 11 10 11 6 0
10 -2 10 -4z"/>
<path d="M1417 1194 c-1 -1 -47 -4 -102 -7 -123 -7 -229 -41 -330 -107 -22
-14 -62 -37 -90 -50 -68 -32 -67 -31 -120 -65 -57 -36 -192 -150 -220 -185
-11 -14 -27 -32 -35 -40 -31 -32 -128 -166 -145 -200 -10 -19 -25 -44 -35 -55
-9 -11 -24 -40 -33 -65 -9 -25 -22 -63 -30 -85 -26 -71 -30 -142 -10 -178 23
-41 36 -50 91 -67 37 -11 57 -11 106 -1 34 7 65 17 71 22 5 5 19 9 31 9 13 0
25 4 28 9 3 5 14 7 24 4 10 -2 33 6 52 19 19 13 76 43 125 67 98 46 99 47 183
93 31 17 71 38 88 47 92 48 369 230 441 291 7 5 15 10 19 10 9 0 52 40 102 94
21 22 49 53 65 69 15 16 27 34 27 42 0 7 7 18 16 26 22 18 44 64 44 92 0 12 5
28 11 34 9 9 8 18 -5 37 -9 15 -20 26 -25 26 -5 0 -11 8 -14 19 -4 16 -85 61
-152 86 -16 6 -172 13 -178 9z m106 -130 c40 -9 76 -20 82 -25 5 -5 17 -9 27
-9 30 0 21 -38 -28 -114 -59 -91 -74 -107 -159 -174 -38 -31 -77 -61 -85 -69
-30 -26 -106 -79 -123 -86 -9 -3 -54 -31 -100 -60 -45 -29 -102 -66 -127 -81
-104 -62 -145 -89 -150 -95 -3 -4 -12 -11 -20 -14 -8 -4 -31 -17 -50 -29 -160
-97 -329 -140 -365 -92 -22 30 -19 117 7 167 12 23 21 44 21 48 -1 3 14 25 32
50 19 24 42 55 52 67 33 43 122 130 127 124 4 -3 6 -1 6 5 0 14 35 53 49 53 6
0 11 6 12 13 1 21 259 227 285 227 7 0 25 7 41 15 27 14 64 30 133 56 100 38
226 47 333 23z"/>
</g>
</svg>
