<?xml version="1.0" standalone="no"?>
<!DOCTYPE svg PUBLIC "-//W3C//DTD SVG 20010904//EN"
 "http://www.w3.org/TR/2001/REC-SVG-20010904/DTD/svg10.dtd">
<svg version="1.0" xmlns="http://www.w3.org/2000/svg"
 width="559.000000pt" height="455.000000pt" viewBox="0 0 559.000000 455.000000"
 preserveAspectRatio="xMidYMid meet">
<metadata>
Created by potrace 1.16, written by Peter Selinger 2001-2019
</metadata>
<g transform="translate(0.000000,455.000000) scale(0.100000,-0.100000)"
fill="#000000" stroke="none">
<path d="M3118 4405 c-3 -4 -17 -7 -31 -9 -36 -4 -54 -26 -87 -107 -25 -60
-30 -85 -30 -153 1 -52 7 -100 19 -134 l18 -53 -28 -57 c-16 -31 -29 -64 -29
-72 0 -8 -7 -34 -15 -57 -24 -69 -22 -169 5 -230 12 -29 26 -53 31 -53 5 0 9
-5 9 -11 0 -6 6 -17 13 -24 41 -46 41 -42 -12 -102 -28 -31 -51 -61 -51 -66 0
-5 -10 -23 -22 -40 -30 -41 -52 -80 -84 -142 -14 -27 -29 -57 -33 -65 -54 -97
-116 -268 -125 -342 -2 -20 -9 -44 -14 -55 -6 -10 -8 -45 -6 -78 2 -33 4 -69
4 -80 0 -11 10 -51 22 -88 42 -136 196 -254 345 -264 84 -6 183 10 231 38 19
11 38 17 43 14 10 -7 49 12 64 31 14 16 81 27 102 16 10 -6 46 -12 80 -15 34
-3 70 -10 80 -16 35 -19 229 -33 273 -20 22 7 40 16 40 20 0 4 21 17 47 30
111 53 147 144 147 364 -1 150 -23 291 -49 311 -8 6 -15 19 -15 28 0 9 -5 16
-10 16 -6 0 -9 4 -8 8 5 15 -47 102 -61 102 -8 0 -12 3 -8 6 3 3 2 11 -3 18
-62 76 -62 76 -49 92 7 9 38 35 69 59 50 38 59 51 87 126 18 46 39 109 47 141
18 64 22 253 6 263 -6 4 -8 10 -5 15 3 5 1 27 -5 49 -22 82 -19 128 11 184 47
87 60 119 73 189 12 62 11 69 -7 97 -10 17 -22 31 -25 32 -4 0 -16 3 -27 5
-44 11 -105 11 -105 1 0 -6 -3 -8 -6 -4 -4 3 -22 0 -40 -8 -19 -8 -34 -11 -34
-8 0 3 -8 0 -17 -8 -29 -23 -62 -39 -80 -39 -9 0 -26 -9 -38 -20 -32 -30 -82
-35 -145 -13 -43 14 -68 16 -115 10 -109 -14 -166 -9 -205 18 -19 13 -44 36
-54 50 -11 14 -34 33 -53 41 -18 9 -31 20 -28 24 3 4 -14 13 -38 19 -23 7 -47
14 -53 17 -5 2 -13 2 -16 -1z m34 -141 c42 -22 178 -136 178 -149 0 -20 39
-36 60 -25 11 6 24 9 29 6 5 -3 14 0 20 8 20 24 212 27 240 4 49 -42 79 -40
130 8 14 13 39 29 55 36 17 7 39 20 49 28 17 16 100 40 137 40 10 0 20 -6 23
-14 7 -17 -22 -97 -38 -108 -5 -4 -6 -8 -2 -8 5 0 -5 -13 -21 -29 -47 -47 -50
-130 -8 -181 17 -21 34 -86 35 -140 1 -25 3 -57 5 -72 5 -41 -22 -189 -41
-223 -48 -87 -125 -153 -205 -177 -81 -23 -110 -23 -243 2 -60 11 -118 22
-127 23 -10 2 -21 6 -24 10 -4 4 -17 7 -29 7 -12 0 -25 3 -29 8 -4 4 -11 7
-14 7 -37 2 -141 56 -150 78 -2 4 -8 7 -13 7 -19 0 -111 107 -137 160 -26 54
-40 154 -23 165 8 4 34 57 92 182 28 59 27 108 -3 173 -28 60 -31 70 -29 116
1 26 31 74 47 74 3 0 19 -7 36 -16z m-12 -953 c0 -11 121 -69 190 -90 44 -13
250 -58 270 -59 58 -1 144 -17 155 -29 7 -7 20 -13 27 -13 31 -2 141 -176 162
-259 9 -35 22 -77 30 -95 15 -35 53 -215 55 -261 2 -53 -19 -129 -44 -157 -13
-16 -27 -28 -31 -28 -4 0 -16 -8 -26 -17 -22 -20 -187 -29 -219 -12 -11 5 -39
12 -62 15 -23 3 -48 11 -56 17 -8 7 -16 10 -18 9 -2 -2 -20 -1 -41 2 -92 14
-238 15 -282 1 -235 -75 -311 -82 -386 -36 -24 14 -44 31 -44 38 0 6 -3 13 -7
15 -15 6 -46 84 -58 146 -10 50 -9 72 2 114 7 29 13 62 13 73 0 12 4 25 9 31
5 5 12 23 15 39 3 17 11 62 17 100 7 39 15 72 19 75 7 6 40 75 40 84 0 4 11
19 25 34 14 15 33 42 42 60 15 32 181 212 196 212 4 0 7 -4 7 -9z"/>
<path d="M3335 3956 c-16 -7 -39 -23 -50 -35 -18 -21 -18 -23 -2 -54 31 -58
110 -66 122 -13 12 54 11 82 -3 99 -18 20 -27 21 -67 3z"/>
<path d="M3655 3910 c-19 -31 -13 -71 13 -95 15 -14 35 -25 44 -25 22 0 68 21
69 32 1 4 2 12 3 17 0 5 4 13 9 17 13 14 7 22 -33 43 -43 22 -95 28 -105 11z"/>
<path d="M3488 3626 c-16 -5 -34 -24 -44 -44 -15 -33 -15 -36 3 -61 28 -37 57
-38 93 -2 34 33 40 80 14 102 -21 17 -33 18 -66 5z"/>
<path d="M1611 4360 c-18 -12 -38 -26 -45 -33 -23 -24 -76 -95 -76 -102 0 -8
-20 -27 -46 -41 -30 -17 -86 -24 -224 -28 -69 -2 -143 -9 -165 -15 -43 -11
-102 -62 -125 -107 -8 -16 -23 -41 -33 -55 -10 -14 -20 -38 -22 -55 -2 -16 -4
-29 -5 -29 -7 0 -1 -146 8 -205 17 -104 34 -135 113 -211 77 -74 138 -99 240
-99 30 0 60 -5 66 -11 6 -6 17 -11 24 -13 8 -1 57 -44 110 -96 106 -104 115
-112 175 -140 55 -26 258 -40 295 -19 13 7 33 14 43 16 11 2 27 10 36 18 9 8
22 15 30 15 20 0 168 159 179 193 14 42 21 149 11 162 -5 6 -11 26 -13 45 -3
19 -6 35 -7 35 -1 0 -4 12 -5 27 -2 14 -13 44 -24 67 -23 45 -32 161 -14 183
17 21 28 87 27 169 -1 73 -3 78 -49 149 -27 40 -62 80 -79 89 -16 9 -42 28
-57 43 -43 43 -101 59 -224 64 -97 3 -114 2 -144 -16z m138 -90 c10 5 21 7 23
4 3 -2 20 -7 39 -9 44 -7 60 -10 80 -19 16 -7 75 -82 79 -101 5 -21 44 -100
53 -106 14 -10 12 -131 -3 -164 -22 -51 -23 -117 -1 -178 11 -32 17 -57 15
-57 -2 0 2 -13 11 -29 72 -141 65 -248 -23 -339 -54 -55 -110 -79 -213 -88
-118 -11 -200 34 -299 166 -81 107 -153 150 -254 150 -51 0 -116 18 -116 32 0
4 -6 8 -13 8 -40 0 -143 182 -154 270 -12 105 68 230 149 230 16 0 37 4 47 9
9 5 45 12 79 15 34 4 90 9 124 12 35 3 68 9 73 14 6 4 46 14 90 21 70 11 85
18 115 48 19 20 38 34 43 33 10 -3 29 48 23 64 -2 7 -2 15 2 19 4 3 8 2 10 -4
2 -7 10 -8 21 -1z"/>
<path d="M1810 2161 c-60 -19 -130 -69 -130 -94 0 -8 -13 -32 -29 -54 -16 -23
-38 -60 -49 -85 -11 -24 -33 -57 -49 -73 -15 -17 -38 -44 -50 -61 -35 -49
-157 -102 -343 -148 -117 -30 -125 -33 -123 -43 1 -6 -6 -9 -15 -6 -19 5 -173
-72 -230 -114 -47 -35 -124 -113 -147 -149 -11 -18 -31 -49 -45 -70 -56 -85
-114 -257 -127 -374 -9 -88 -8 -113 7 -200 9 -51 17 -70 38 -87 15 -12 30 -22
34 -23 4 0 9 -8 13 -18 6 -22 87 -82 109 -82 9 0 16 -4 16 -9 0 -10 73 -41
150 -64 206 -60 442 -54 611 15 134 55 327 196 365 268 10 19 32 55 49 80 38
58 55 89 55 105 0 7 9 30 19 52 51 100 75 325 48 441 -8 34 -14 68 -13 76 4
26 41 96 51 96 6 0 19 11 29 25 10 14 25 25 32 25 14 0 16 2 89 84 46 53 68
84 111 160 15 28 15 29 -12 52 -16 15 -40 24 -60 24 -30 0 -34 3 -39 34 -4 19
-19 49 -35 67 -24 29 -33 33 -72 33 -42 -1 -47 2 -59 30 -27 61 -134 107 -199
87z m100 -146 c0 -7 -6 -25 -14 -40 -8 -15 -12 -34 -9 -41 3 -7 -5 -30 -17
-50 -19 -30 -20 -38 -9 -45 28 -17 53 -8 88 31 72 79 127 58 78 -31 -15 -26
-27 -54 -27 -62 0 -29 38 -30 85 -3 66 39 89 29 43 -18 -13 -13 -40 -42 -61
-64 -21 -23 -41 -42 -45 -42 -18 0 -114 -102 -129 -137 -21 -50 -21 -49 -38
-278 -5 -75 -14 -125 -38 -220 -5 -22 -11 -49 -13 -61 -2 -22 -53 -125 -65
-134 -8 -6 -41 -60 -65 -108 -9 -17 -23 -32 -30 -32 -8 0 -14 -4 -14 -10 0 -5
-21 -21 -47 -35 -27 -15 -66 -37 -88 -50 -22 -13 -49 -24 -60 -25 -11 0 -38
-8 -60 -16 -46 -17 -246 -56 -253 -49 -6 5 -12 101 -11 173 0 30 -4 59 -9 65
-5 7 -15 39 -22 72 -8 33 -16 62 -19 65 -13 11 -51 70 -51 78 0 24 -195 186
-264 219 -20 9 -36 20 -36 25 0 4 22 41 50 81 57 84 188 196 285 245 61 30
168 64 240 77 37 6 142 43 191 67 35 17 194 160 194 175 0 4 11 19 25 33 39
39 125 144 125 153 0 4 11 7 24 7 14 0 28 5 31 10 8 13 35 -6 35 -25z m-1182
-929 c27 -14 54 -32 61 -40 8 -9 17 -16 22 -16 23 0 131 -109 166 -167 35 -59
59 -171 62 -280 3 -107 2 -107 -101 -99 -49 4 -85 16 -158 53 -106 53 -164
107 -181 166 -29 108 20 407 68 407 7 0 35 -11 61 -24z"/>
<path d="M718 943 c-10 -2 -18 -8 -18 -13 0 -5 -8 -11 -18 -14 -22 -7 -41 -52
-40 -92 1 -23 9 -36 34 -52 42 -27 63 -28 108 -1 46 27 59 73 36 122 -12 24
-62 59 -79 56 -3 -1 -14 -3 -23 -6z m36 -104 c-5 -9 -34 -13 -34 -5 0 2 3 12
6 20 5 13 9 14 20 5 8 -6 11 -15 8 -20z"/>
<path d="M4395 1754 c-11 -2 -43 -9 -72 -15 -28 -5 -70 -23 -92 -40 -23 -16
-43 -29 -46 -29 -8 0 -51 -39 -122 -109 l-64 -64 -62 6 c-34 4 -91 16 -127 27
-120 37 -274 18 -365 -44 -59 -41 -215 -216 -215 -241 0 -23 -93 -105 -127
-111 -29 -5 -134 1 -198 12 -58 9 -295 6 -309 -4 -6 -5 -29 -13 -51 -16 -22
-4 -51 -15 -65 -24 -14 -9 -32 -21 -41 -27 -57 -36 -88 -63 -119 -103 -43 -55
-80 -119 -80 -138 0 -7 -6 -17 -13 -21 -7 -4 -21 -26 -31 -48 -66 -144 -93
-188 -167 -266 -45 -48 -47 -49 -110 -50 -90 -2 -100 -4 -139 -26 -63 -35
-131 -183 -110 -239 22 -56 137 -150 163 -132 1 1 13 -5 27 -12 22 -12 75 -15
125 -6 11 2 26 -1 32 -6 7 -6 21 -7 30 -3 10 4 32 9 50 11 18 2 52 18 77 34
24 17 48 30 54 30 5 0 16 7 23 16 8 9 30 27 50 40 20 12 59 46 87 76 53 54 62
65 122 139 98 119 163 193 183 208 43 33 117 72 126 66 5 -3 16 1 24 9 8 8 17
13 20 10 3 -3 77 -8 164 -10 87 -2 174 -7 193 -9 95 -14 160 -17 160 -7 0 6
15 14 33 17 42 10 107 47 107 62 0 7 13 19 28 27 15 8 33 25 39 38 11 24 30
49 96 124 49 55 167 107 224 99 21 -3 56 -7 78 -9 22 -2 52 -7 66 -11 37 -9
139 11 163 34 12 10 41 28 66 41 25 12 57 29 73 37 31 16 100 26 167 24 46 -1
60 -2 143 -1 26 0 47 4 47 10 0 5 7 7 15 4 9 -4 15 0 15 7 0 9 3 10 8 3 9 -14
63 0 85 23 42 43 62 72 90 133 29 64 38 131 17 138 -5 2 -14 21 -20 43 -6 22
-20 44 -33 50 -12 7 -32 24 -45 38 -23 27 -51 56 -87 91 -12 11 -26 20 -32 20
-6 0 -16 6 -22 14 -6 8 -26 17 -44 20 -41 8 -48 10 -72 23 -22 12 -158 24
-190 17z m250 -171 c68 -35 91 -60 120 -132 37 -91 34 -127 -17 -183 -40 -42
-47 -46 -93 -46 -27 -1 -62 -4 -77 -7 -15 -4 -44 -1 -63 5 -64 21 -163 15
-250 -15 -44 -15 -92 -33 -107 -41 -15 -8 -38 -14 -51 -14 -14 0 -30 -7 -37
-15 -7 -8 -16 -12 -21 -9 -5 3 -9 1 -9 -4 0 -5 -37 -2 -82 6 -140 24 -168 20
-272 -43 -77 -46 -146 -107 -146 -130 0 -4 -11 -31 -25 -61 -14 -30 -25 -59
-25 -64 0 -6 -4 -10 -8 -10 -4 0 -16 -13 -25 -30 -35 -58 -210 -84 -347 -51
-25 6 -97 9 -160 7 -96 -3 -131 -9 -212 -36 -85 -28 -101 -37 -133 -76 -20
-24 -43 -44 -49 -44 -15 0 -142 -131 -138 -143 1 -4 -2 -7 -8 -7 -5 0 -10 -6
-10 -13 0 -7 -20 -35 -45 -63 -24 -27 -44 -52 -45 -56 0 -5 -6 -8 -12 -8 -7 0
-42 -27 -78 -60 -47 -44 -83 -66 -133 -85 -125 -46 -148 -48 -215 -19 -37 16
-64 35 -75 53 -16 28 -16 30 13 66 17 21 30 41 30 46 0 12 34 16 52 5 38 -23
197 49 198 90 0 6 10 22 23 36 37 41 72 90 72 102 0 7 10 25 23 41 12 15 25
40 29 54 3 14 9 28 13 31 3 3 26 33 49 68 96 142 230 254 345 287 49 14 82 16
210 10 327 -16 315 -17 376 18 67 38 113 85 150 152 25 46 114 145 129 145 4
0 20 13 36 30 31 33 143 75 178 67 12 -2 54 -17 92 -31 41 -15 102 -29 146
-33 l75 -6 55 39 c30 21 87 67 127 102 79 68 96 77 187 97 82 18 177 9 240
-22z"/>
</g>
</svg>
