<?xml version="1.0" standalone="no"?>
<!DOCTYPE svg PUBLIC "-//W3C//DTD SVG 20010904//EN"
 "http://www.w3.org/TR/2001/REC-SVG-20010904/DTD/svg10.dtd">
<svg version="1.0" xmlns="http://www.w3.org/2000/svg"
 width="509.000000pt" height="385.000000pt" viewBox="0 0 509.000000 385.000000"
 preserveAspectRatio="xMidYMid meet">
<metadata>
Created by potrace 1.16, written by Peter Selinger 2001-2019
</metadata>
<g transform="translate(0.000000,385.000000) scale(0.100000,-0.100000)"
fill="#000000" stroke="none">
<path d="M662 3264 c-50 -18 -75 -35 -128 -89 -59 -60 -107 -138 -107 -172 0
-7 -6 -13 -13 -13 -8 0 -25 -21 -39 -47 -14 -27 -34 -62 -45 -80 -29 -48 -54
-160 -54 -238 1 -135 15 -203 60 -302 13 -28 24 -56 24 -61 0 -16 125 -140
149 -147 14 -4 36 -18 50 -31 14 -14 43 -30 64 -36 20 -6 37 -14 37 -18 0 -4
15 -13 33 -20 17 -7 66 -28 107 -47 148 -68 327 -91 493 -63 34 6 73 12 87 14
14 3 37 5 52 5 15 1 33 7 41 15 8 8 19 11 27 6 37 -23 252 77 351 163 9 8 41
30 71 50 78 52 142 117 197 202 32 49 49 71 78 102 13 13 23 30 23 37 0 8 7
33 16 57 10 28 17 95 20 186 5 129 4 148 -17 205 -12 35 -44 96 -70 137 -27
41 -49 77 -49 81 0 4 -29 22 -65 40 -56 28 -71 31 -117 26 -29 -3 -71 -7 -93
-8 -22 -2 -44 -6 -50 -9 -5 -4 -26 -10 -45 -14 -19 -4 -47 -16 -62 -26 -14
-11 -31 -19 -36 -19 -6 0 -38 -16 -71 -36 l-61 -36 -93 7 c-50 4 -101 9 -112
10 -24 2 -68 19 -115 44 -81 44 -150 81 -167 90 -104 55 -270 71 -371 35z
m203 -111 c22 -9 58 -29 80 -44 22 -14 72 -42 111 -61 39 -20 79 -41 90 -47
76 -42 162 -72 222 -77 69 -6 164 7 227 30 11 5 34 13 50 19 17 6 43 19 58 30
16 11 60 30 99 43 55 19 81 23 124 18 30 -4 59 -13 65 -20 6 -8 17 -14 25 -14
34 0 80 -120 86 -225 5 -91 -33 -269 -72 -343 -11 -20 -20 -42 -20 -48 0 -6
-11 -21 -25 -34 -14 -13 -23 -25 -20 -28 8 -8 -100 -108 -160 -149 -136 -91
-297 -158 -477 -198 -89 -20 -125 -23 -210 -19 -113 6 -192 20 -223 39 -11 6
-38 18 -59 25 -87 28 -172 85 -282 186 -56 53 -111 159 -121 234 -3 25 -10 51
-16 57 -5 7 -7 19 -4 26 3 7 1 33 -3 58 -14 73 32 242 80 294 15 17 42 56 60
88 17 31 36 57 41 57 4 0 11 15 14 34 6 29 14 37 63 59 32 14 64 28 72 31 23
7 81 -2 125 -21z m1239 -808 c-4 -8 -10 -15 -15 -15 -4 0 -6 7 -3 15 4 8 10
15 15 15 4 0 6 -7 3 -15z"/>
<path d="M3768 3039 c-5 -3 -35 -7 -66 -8 -75 -2 -124 -19 -281 -94 -73 -35
-253 -195 -322 -287 -26 -35 -109 -169 -109 -176 0 -5 -72 -118 -79 -124 -4
-3 -16 -17 -27 -32 -57 -73 -83 -83 -334 -118 -114 -16 -133 -19 -220 -34
-111 -18 -101 -15 -199 -62 -98 -47 -286 -183 -296 -213 -3 -12 -11 -21 -16
-21 -5 0 -9 -5 -9 -11 0 -6 -11 -25 -24 -42 -13 -18 -35 -54 -49 -82 -31 -60
-124 -176 -153 -190 -11 -6 -29 -18 -39 -29 -28 -28 -205 -108 -249 -112 -21
-2 -51 -13 -66 -24 -15 -11 -33 -20 -39 -20 -6 0 -11 -4 -11 -8 0 -4 -11 -9
-25 -10 -14 -1 -43 -11 -65 -22 -22 -11 -40 -18 -40 -14 0 3 -14 -6 -31 -20
-19 -16 -38 -24 -49 -21 -11 4 -23 -3 -34 -20 -9 -14 -23 -25 -31 -25 -8 0
-15 -4 -15 -10 0 -5 -7 -10 -15 -10 -20 0 -57 -23 -125 -80 -73 -60 -85 -75
-121 -145 -17 -33 -34 -62 -38 -65 -16 -11 -28 -90 -25 -161 5 -85 24 -191 36
-200 5 -3 11 -18 14 -34 3 -15 11 -40 19 -56 8 -15 15 -35 15 -44 0 -8 6 -15
13 -15 6 0 23 -16 36 -35 32 -48 57 -75 67 -75 5 0 22 -21 38 -46 27 -43 38
-51 91 -69 26 -9 87 -16 153 -16 28 -1 54 -5 57 -9 3 -4 82 -6 176 -5 162 4
172 5 202 28 18 13 60 30 94 37 35 8 63 18 63 23 0 4 4 5 10 2 5 -3 20 4 32
15 50 47 101 62 166 50 23 -4 42 -3 42 1 0 14 53 10 74 -6 10 -8 23 -12 27 -9
5 3 9 0 9 -5 0 -6 3 -10 8 -9 13 3 62 -14 62 -21 0 -10 125 -32 143 -25 8 3
17 -2 21 -11 5 -13 13 -15 34 -10 15 4 61 6 102 5 103 -2 121 -1 134 8 14 11
88 40 118 46 98 22 230 80 272 121 17 17 51 39 76 50 25 10 55 26 66 35 12 8
32 22 44 30 13 8 35 25 50 37 15 12 30 19 34 16 4 -4 9 2 12 13 5 18 88 67 90
53 0 -2 18 13 40 34 21 20 57 42 79 48 56 16 151 65 158 83 3 8 39 31 80 51
41 19 80 42 86 49 7 8 35 20 63 27 28 6 82 27 120 45 37 19 72 34 77 34 5 0
11 3 13 8 2 4 37 29 78 56 78 51 138 98 197 153 33 32 119 93 129 93 3 0 36
31 75 70 38 38 76 70 84 70 8 0 18 6 22 14 4 7 29 37 56 66 26 28 47 57 47 65
0 7 11 20 25 29 13 9 37 37 52 63 15 26 34 55 43 64 33 35 50 60 50 72 0 7 8
22 18 33 9 10 19 30 20 44 2 14 8 27 13 28 5 2 9 11 9 21 0 9 5 22 11 28 16
16 22 173 7 191 -7 8 -13 44 -14 79 0 35 -6 69 -12 75 -7 7 -12 21 -12 32 0
27 -52 137 -73 155 -10 7 -17 20 -17 27 0 8 -6 14 -13 14 -7 0 -19 17 -26 38
-12 35 -92 122 -112 122 -5 0 -9 5 -9 10 0 17 -35 47 -50 42 -7 -3 -10 0 -6 7
4 6 0 11 -9 11 -9 0 -14 4 -11 9 4 5 -3 7 -14 4 -12 -3 -20 0 -20 7 0 15 -26
41 -38 38 -14 -4 -72 43 -72 58 0 8 -9 14 -20 14 -11 0 -20 5 -20 10 0 6 -11
10 -24 10 -14 0 -31 6 -38 13 -22 20 -87 47 -116 47 -15 0 -47 7 -72 16 -78
27 -327 58 -352 43z m257 -168 c22 -5 75 -18 118 -27 44 -10 81 -23 84 -31 3
-7 13 -13 22 -13 9 0 36 -18 60 -40 24 -22 47 -40 52 -40 4 0 14 -8 21 -19 7
-10 56 -53 108 -96 192 -156 240 -232 266 -428 20 -153 7 -229 -55 -312 -17
-22 -55 -76 -85 -120 -30 -44 -75 -99 -99 -121 -25 -23 -43 -45 -40 -48 4 -3
2 -6 -4 -6 -5 0 -15 -11 -21 -24 -10 -23 -250 -240 -302 -275 -14 -9 -62 -44
-107 -78 -46 -34 -92 -64 -103 -68 -11 -3 -20 -11 -20 -17 0 -6 -3 -8 -7 -5
-3 4 -15 0 -25 -10 -10 -9 -18 -13 -18 -9 0 4 -19 -6 -42 -22 -24 -16 -47 -30
-51 -30 -11 0 -71 -25 -77 -32 -3 -3 -32 -16 -65 -30 -33 -13 -69 -32 -79 -42
-11 -10 -24 -18 -29 -18 -51 0 -364 -143 -375 -172 -2 -4 -10 -8 -17 -8 -8 0
-34 -13 -58 -30 -25 -16 -49 -30 -54 -30 -5 0 -15 -9 -23 -21 -23 -31 -122
-97 -257 -170 -24 -12 -43 -26 -43 -29 0 -11 -48 -30 -74 -30 -13 0 -29 -6
-35 -14 -16 -19 -81 -29 -172 -26 -46 1 -80 -3 -84 -9 -3 -7 -13 -8 -23 -3 -9
4 -42 7 -72 6 -38 -2 -66 4 -90 16 -43 23 -110 41 -110 30 0 -4 -22 0 -49 10
-27 11 -51 17 -54 14 -3 -3 -42 -5 -87 -5 -53 0 -89 -4 -103 -13 -12 -8 -42
-17 -66 -21 -49 -8 -119 -31 -194 -64 -26 -11 -49 -21 -52 -21 -3 -1 -28 -8
-57 -18 -36 -11 -90 -16 -168 -16 -112 -1 -117 0 -190 36 -119 57 -171 105
-219 200 -23 45 -41 95 -41 112 0 17 -5 50 -10 74 -14 60 15 200 51 246 44 57
79 92 118 118 25 17 51 36 56 43 6 6 55 28 110 49 116 44 185 76 203 94 7 6
21 12 31 12 9 0 22 5 29 12 7 7 12 8 12 3 0 -4 8 -1 18 8 10 9 44 26 76 37 31
10 70 28 85 40 16 11 33 20 39 20 5 0 28 14 50 30 23 17 45 30 48 30 4 0 22
11 41 26 33 25 63 71 63 97 0 7 20 51 45 98 25 46 48 94 51 106 3 12 18 30 32
39 15 10 47 34 72 55 47 39 148 86 240 112 30 9 87 25 125 36 39 11 104 23
145 27 116 10 107 9 200 30 14 3 36 8 50 11 14 3 39 11 57 19 17 8 38 14 46
14 8 0 21 7 28 16 8 9 32 28 54 41 22 14 65 51 95 83 53 56 63 72 107 170 47
103 252 340 295 340 5 0 22 8 36 19 73 50 230 85 402 89 69 2 143 -1 165 -7z"/>
</g>
</svg>
