<?xml version="1.0" standalone="no"?>
<!DOCTYPE svg PUBLIC "-//W3C//DTD SVG 20010904//EN"
 "http://www.w3.org/TR/2001/REC-SVG-20010904/DTD/svg10.dtd">
<svg version="1.0" xmlns="http://www.w3.org/2000/svg"
 width="557.000000pt" height="395.000000pt" viewBox="0 0 557.000000 395.000000"
 preserveAspectRatio="xMidYMid meet">
<metadata>
Created by potrace 1.16, written by Peter Selinger 2001-2019
</metadata>
<g transform="translate(0.000000,395.000000) scale(0.100000,-0.100000)"
fill="#000000" stroke="none">
<path d="M1759 3866 c-20 -8 -61 -19 -92 -25 -30 -7 -63 -21 -72 -31 -10 -11
-24 -20 -31 -20 -7 0 -17 -6 -21 -13 -4 -7 -24 -24 -43 -37 -19 -14 -46 -38
-60 -55 -13 -16 -56 -62 -95 -100 -38 -39 -88 -99 -110 -134 -22 -35 -48 -77
-59 -93 -22 -35 -82 -259 -91 -343 -3 -33 -14 -91 -22 -128 -13 -55 -14 -78
-5 -120 7 -29 14 -72 17 -97 11 -101 17 -135 26 -152 14 -26 11 -47 -4 -27
-15 20 -164 99 -186 99 -9 0 -24 9 -34 20 -38 44 -86 22 -163 -76 -44 -55 -51
-72 -58 -136 -4 -32 -11 -60 -16 -63 -4 -3 -7 -21 -5 -40 2 -19 -1 -49 -6 -67
-4 -18 -11 -59 -14 -91 -5 -61 -29 -155 -50 -197 -21 -41 -33 -73 -39 -102 -4
-16 -11 -28 -16 -28 -6 0 -10 -9 -10 -20 0 -11 -4 -28 -9 -38 -11 -23 -31 -78
-45 -127 -6 -22 -14 -45 -18 -51 -14 -22 9 -151 31 -175 11 -12 23 -31 27 -41
3 -10 10 -18 15 -18 6 0 17 -6 24 -13 35 -30 46 -38 82 -51 21 -8 56 -20 78
-25 39 -10 40 -12 38 -51 0 -23 -4 -44 -7 -47 -3 -3 -1 -14 5 -24 6 -12 6 -19
0 -19 -5 0 -8 -9 -6 -20 2 -11 -4 -44 -15 -74 -10 -30 -22 -80 -25 -111 -7
-50 -38 -127 -66 -161 -23 -28 -72 -140 -84 -192 -12 -49 -12 -60 1 -79 8 -12
14 -31 14 -41 0 -16 30 -55 89 -117 27 -28 157 -92 217 -106 32 -7 196 -12
480 -13 237 -2 437 -7 445 -12 17 -11 27 -12 114 -18 39 -2 93 -12 120 -20 28
-9 59 -16 70 -16 11 0 33 -7 49 -15 69 -36 299 2 302 50 1 11 6 32 12 46 6 15
8 29 5 32 -3 4 2 13 11 22 9 9 16 28 16 41 0 14 5 34 10 44 6 10 12 54 14 97
5 99 45 204 131 343 19 30 34 61 35 68 0 8 8 26 19 40 10 15 22 43 26 62 4 19
11 40 16 46 5 6 11 40 14 75 3 56 1 69 -21 101 -28 41 -99 109 -117 112 -7 2
-19 6 -27 9 -8 4 -50 14 -93 22 -44 9 -89 20 -100 25 -25 10 -98 79 -94 89 2
3 8 17 14 31 7 14 21 46 32 71 11 25 27 51 35 59 9 7 21 31 27 54 6 22 17 48
25 56 7 9 20 36 29 60 8 24 20 49 25 55 30 36 22 228 -10 265 -11 13 -22 31
-25 41 -4 11 -10 19 -14 19 -4 0 -16 8 -27 19 -11 10 -37 21 -58 25 -37 7 -38
9 -33 41 3 19 13 49 22 68 8 18 17 46 20 63 6 43 42 129 73 176 15 22 35 53
45 69 10 15 34 45 53 65 19 21 44 52 56 69 12 16 50 56 85 88 l63 58 32 -18
c35 -20 58 -66 58 -115 0 -19 7 -43 15 -55 17 -24 67 -212 59 -224 -2 -4 0 -9
4 -11 12 -4 80 -158 79 -178 0 -20 33 -132 43 -145 7 -10 19 -62 26 -117 2
-16 9 -58 15 -95 6 -38 13 -84 15 -103 2 -19 6 -46 9 -60 10 -46 13 -68 20
-114 l7 -46 -48 17 c-33 11 -106 18 -224 23 -96 4 -186 9 -200 13 -70 16 -75
15 -72 -23 2 -19 12 -64 23 -99 10 -35 19 -71 19 -80 0 -28 73 -205 90 -221 3
-3 17 -21 30 -40 92 -134 278 -231 472 -245 33 -3 71 -14 93 -27 l38 -22 -39
-11 c-78 -24 -177 -75 -205 -107 -16 -18 -29 -36 -29 -40 0 -4 -11 -19 -25
-34 -30 -32 -26 -56 15 -90 15 -13 33 -43 40 -68 13 -46 22 -58 82 -113 20
-17 42 -40 50 -50 16 -22 39 -37 98 -64 25 -11 54 -28 65 -38 11 -10 50 -28
88 -41 37 -12 67 -25 67 -30 0 -5 14 -11 30 -15 17 -4 30 -10 30 -14 0 -4 37
-7 83 -5 76 2 139 19 157 43 3 4 26 15 52 25 26 9 62 28 80 41 49 35 116 66
178 81 65 16 188 18 225 4 32 -12 162 -24 235 -22 60 2 92 15 161 64 225 160
362 313 386 429 5 26 -13 59 -33 59 -4 0 -25 18 -46 39 -30 31 -49 41 -86 47
-26 3 -51 10 -57 14 -11 9 -15 10 -45 10 -12 0 -32 11 -45 24 -21 21 -23 29
-15 51 6 15 8 31 4 36 -7 11 11 105 33 173 15 48 93 146 115 146 6 0 33 24 60
53 111 114 133 179 130 386 -2 104 -7 153 -17 174 -8 17 -15 37 -15 45 0 22
-54 124 -93 175 -19 25 -45 67 -57 93 -32 68 -75 117 -102 119 -26 2 -38 -10
-38 -39 0 -29 -39 -103 -64 -123 -12 -10 -48 -53 -80 -95 -53 -71 -70 -104
-107 -208 -21 -59 -22 -65 -20 -73 0 -4 -6 -21 -15 -38 -8 -17 -19 -56 -24
-87 -14 -85 -66 -180 -117 -212 -23 -15 -40 -29 -38 -32 6 -6 -70 -49 -112
-64 -40 -14 -39 -17 -12 96 11 47 24 112 29 145 5 33 11 71 14 85 26 126 27
408 2 605 -22 175 -26 198 -40 220 -7 11 -20 47 -30 80 -31 106 -51 143 -132
230 -17 18 -43 51 -59 72 -16 21 -65 73 -109 116 -74 72 -95 86 -256 165 -96
47 -193 98 -215 113 -28 19 -58 29 -100 33 -89 8 -125 17 -125 30 0 14 -66 86
-79 86 -6 0 -21 11 -35 25 -14 14 -62 39 -106 56 -44 17 -80 34 -80 39 0 4
-18 10 -41 14 -29 5 -51 17 -74 41 -28 30 -39 35 -81 36 -27 1 -62 3 -79 5
-16 2 -86 5 -155 7 -98 2 -133 7 -160 21 -22 12 -60 20 -105 21 -38 1 -153 5
-255 9 -147 5 -192 3 -221 -8z m336 -66 c50 -6 117 -12 149 -15 33 -3 64 -9
70 -14 6 -4 41 -16 79 -27 65 -18 77 -26 57 -39 -5 -3 -10 -19 -10 -35 0 -48
70 -53 87 -6 l8 23 40 -18 c104 -49 151 -87 194 -158 31 -52 32 -55 15 -68
-27 -20 -46 -17 -39 7 8 25 -11 60 -32 60 -9 0 -24 -7 -34 -16 -16 -15 -17
-19 -4 -44 8 -16 20 -30 27 -33 7 -2 -15 -18 -49 -35 -35 -17 -63 -27 -63 -24
0 4 -4 1 -9 -7 -8 -12 -12 -12 -25 -2 -9 8 -16 20 -16 27 0 8 -5 14 -10 14 -6
0 -20 8 -31 19 -11 10 -34 25 -52 33 -18 8 -52 25 -77 37 -59 28 -160 36 -317
27 -28 -2 -55 -6 -60 -9 -4 -2 -24 -7 -44 -11 -20 -4 -48 -16 -62 -29 -14 -12
-63 -51 -109 -86 -55 -42 -94 -82 -114 -114 -16 -26 -41 -64 -56 -84 -16 -20
-28 -42 -28 -51 0 -12 -3 -12 -17 -1 -16 13 -17 12 -5 -3 11 -13 9 -30 -8 -99
-12 -46 -26 -92 -32 -102 -6 -11 -10 -41 -10 -66 1 -105 12 -322 17 -343 3
-13 7 -39 10 -58 13 -98 18 -126 27 -142 5 -11 5 -18 0 -18 -14 0 -76 23 -82
30 -3 3 -34 17 -70 29 -77 28 -158 67 -182 89 -10 8 -18 25 -18 37 0 13 -6 25
-14 28 -8 3 -19 23 -25 44 -5 21 -15 58 -22 83 -7 25 -12 63 -11 85 0 21 -6
52 -15 68 -13 27 -13 40 7 141 66 346 66 346 155 478 72 106 198 236 327 336
9 7 63 26 119 41 115 31 215 36 364 21z m615 -64 c37 -3 58 -11 67 -23 25 -36
33 -41 72 -48 22 -4 45 -13 51 -20 6 -7 34 -19 61 -26 l50 -13 -26 -14 c-35
-18 -30 -53 9 -63 32 -9 56 7 56 37 0 15 5 13 28 -9 15 -15 33 -27 40 -27 7 0
12 -9 12 -20 0 -23 -50 -35 -110 -27 -22 3 -58 1 -81 -4 -34 -8 -45 -7 -58 6
-14 13 -14 15 1 15 8 0 21 7 29 16 15 18 20 54 7 54 -4 0 -8 6 -8 14 0 8 -7
16 -15 20 -8 3 -15 1 -15 -4 0 -6 -6 -10 -14 -10 -8 0 -16 -7 -20 -15 -10 -26
-30 -16 -54 25 -13 24 -38 48 -58 57 -18 9 -34 20 -34 24 0 4 -8 9 -17 13 -10
3 -36 17 -58 31 l-40 24 35 -4 c19 -2 60 -7 90 -9z m-445 -316 c87 -12 163
-43 201 -82 l34 -34 -45 -32 c-25 -18 -52 -32 -60 -32 -8 0 -15 -3 -15 -7 0
-5 -26 -21 -58 -38 -31 -16 -59 -32 -62 -35 -15 -16 -88 -60 -100 -60 -7 0
-10 -3 -7 -7 4 -3 -32 -46 -78 -95 -47 -48 -94 -107 -105 -131 -11 -23 -32
-64 -48 -92 -15 -27 -39 -81 -52 -120 -13 -38 -27 -74 -31 -80 -4 -5 -13 -37
-20 -70 -7 -33 -13 -62 -14 -65 -2 -8 -19 -85 -20 -90 0 -3 -4 -10 -8 -16 -4
-7 -8 -35 -9 -63 -3 -58 -14 -63 -74 -35 -28 13 -33 20 -28 39 4 18 1 25 -15
30 -12 3 -23 18 -26 33 -4 15 -11 45 -18 67 -16 54 -17 476 -1 496 12 14 28
70 29 99 1 25 37 124 51 141 8 8 14 21 14 27 0 7 5 12 10 12 6 0 10 8 10 18 1
23 24 50 85 98 28 21 61 49 75 63 53 51 194 87 290 74 19 -2 62 -8 95 -13z
m1000 0 c14 -5 51 -12 80 -14 39 -2 68 -12 102 -34 26 -17 61 -36 78 -42 35
-13 198 -93 205 -100 7 -7 41 -28 69 -42 32 -16 141 -127 186 -188 19 -26 39
-50 43 -52 4 -2 31 -31 60 -66 45 -54 74 -116 75 -159 0 -7 3 -13 7 -13 15 0
48 -142 55 -240 3 -36 10 -90 15 -120 14 -79 18 -298 7 -345 -5 -22 -9 -53 -8
-70 1 -60 -45 -301 -61 -319 -4 -6 -8 -22 -8 -36 0 -14 -7 -35 -15 -48 -9 -12
-19 -44 -22 -72 -3 -27 -12 -55 -19 -61 -8 -6 -14 -17 -14 -24 0 -8 -4 -15 -8
-17 -14 -5 -51 -95 -54 -129 -3 -40 -17 -45 -65 -21 -21 11 -57 23 -78 27 -81
13 -135 29 -135 40 0 5 9 27 20 48 11 20 16 37 11 37 -9 0 -2 46 17 115 13 47
39 168 46 210 3 17 10 47 16 69 40 134 50 296 33 497 -7 77 -17 131 -32 163
-11 27 -21 54 -21 60 0 10 -33 84 -66 147 -7 14 -11 29 -7 33 3 3 1 6 -5 6 -7
0 -12 8 -12 18 0 10 -6 26 -14 37 -7 11 -30 52 -50 90 -21 39 -53 86 -71 105
-18 19 -40 49 -49 67 -9 18 -26 39 -39 48 -67 48 -105 68 -127 71 -14 2 -52 9
-85 16 -78 17 -339 3 -368 -20 -13 -10 -77 -27 -89 -24 -5 1 -8 -2 -8 -6 0 -4
-26 -21 -57 -37 -32 -17 -71 -42 -88 -57 -16 -16 -33 -28 -38 -28 -16 0 -187
-181 -240 -256 -69 -97 -142 -244 -150 -302 -3 -24 -15 -54 -26 -66 -12 -12
-21 -30 -21 -39 0 -9 -4 -17 -9 -17 -4 0 -6 -11 -4 -23 7 -37 -20 -57 -70 -52
-23 2 -88 7 -143 10 -96 5 -172 23 -158 38 4 3 1 19 -5 35 -9 22 -9 35 0 58 6
16 14 47 16 69 8 74 54 229 89 301 19 39 34 74 34 78 0 15 85 143 113 171 71
69 177 148 252 186 44 23 102 57 129 77 27 20 74 48 105 64 31 15 63 32 71 37
38 23 146 64 184 68 22 3 47 10 54 16 8 6 53 12 100 14 48 1 112 7 142 12 77
12 95 12 125 1z m77 -385 c14 -4 34 -17 42 -31 9 -13 23 -24 31 -24 12 0 45
-47 45 -63 0 -2 -20 -3 -45 -3 -33 1 -47 6 -50 18 -6 15 -34 33 -42 25 -11
-12 -4 -80 10 -94 20 -20 96 -24 117 -6 14 11 19 8 34 -17 9 -17 21 -30 25
-30 5 0 16 -26 26 -57 10 -32 26 -74 36 -93 10 -19 20 -48 23 -65 2 -16 12
-61 21 -100 9 -38 23 -110 31 -160 9 -49 17 -94 18 -100 10 -39 17 -113 20
-191 2 -51 7 -98 12 -105 25 -39 20 -563 -5 -578 -7 -5 -12 -17 -11 -27 4 -37
0 -44 -30 -44 -46 0 -191 61 -238 100 -38 32 -56 70 -33 70 5 0 8 19 8 43 0
23 4 101 9 172 6 72 9 169 8 217 l-1 87 27 -6 c21 -4 38 2 64 22 50 38 47 55
-9 55 -25 0 -45 -4 -45 -10 0 -5 -9 -10 -20 -10 -14 0 -18 -5 -13 -17 5 -14 3
-15 -7 -6 -7 6 -14 43 -16 85 -9 186 -15 240 -33 290 -10 29 -21 80 -24 113
-3 37 -13 74 -26 95 -11 19 -21 47 -21 61 0 48 -33 124 -82 189 -26 36 -57 84
-68 106 -11 23 -29 49 -40 59 -26 23 -25 33 3 38 30 5 215 -1 249 -8z m-355
-55 c27 0 72 -48 122 -129 24 -39 48 -71 53 -71 4 0 8 -6 8 -14 0 -7 7 -19 15
-26 9 -7 14 -15 11 -17 -5 -6 29 -112 53 -164 12 -25 23 -70 25 -101 3 -30 11
-80 20 -109 8 -30 18 -97 22 -149 4 -52 8 -113 10 -135 4 -50 16 -242 16 -275
1 -14 -2 -50 -5 -80 -4 -30 -10 -80 -13 -110 -4 -30 -11 -64 -17 -75 -6 -11
-10 -23 -9 -27 4 -16 -15 -6 -72 37 -33 24 -60 50 -61 57 -1 7 -5 40 -9 73 -4
33 -15 103 -26 155 -10 52 -21 115 -23 140 -7 55 -23 122 -53 220 -13 41 -26
91 -29 110 -8 49 -32 116 -51 145 -9 14 -13 25 -9 25 4 0 3 6 -2 13 -10 12
-16 33 -51 167 -11 41 -27 93 -35 115 -9 22 -17 55 -19 72 -2 17 -15 50 -30
72 -24 37 -25 41 -9 55 9 8 36 24 61 34 39 17 48 18 67 6 12 -8 30 -14 40 -14z
m563 -101 c0 -6 -4 -7 -10 -4 -5 3 -10 11 -10 16 0 6 5 7 10 4 6 -3 10 -11 10
-16z m61 -67 c8 -16 38 -76 67 -135 30 -59 58 -109 62 -112 5 -3 12 -19 15
-36 4 -18 18 -53 31 -79 13 -26 24 -55 24 -63 0 -8 6 -30 14 -48 30 -73 27
-412 -4 -534 -6 -22 -13 -49 -15 -60 -3 -11 -9 -33 -14 -50 -9 -29 -9 -29 -11
-5 -2 35 -7 71 -13 100 -3 14 -8 86 -12 160 -10 214 -22 293 -86 587 -5 23 -9
56 -9 73 0 16 -14 55 -31 85 -17 30 -28 55 -25 55 4 0 3 8 -2 18 -15 28 -23
72 -14 72 5 0 15 -13 23 -28z m-2771 -257 c0 -8 5 -15 10 -15 6 0 10 -6 10
-14 0 -11 9 -13 32 -10 20 2 42 -3 58 -13 14 -10 31 -18 39 -19 8 -2 17 -6 20
-11 3 -5 17 -14 31 -21 63 -31 104 -61 112 -82 7 -20 13 -22 48 -17 30 4 53
-1 89 -19 27 -13 62 -26 78 -30 15 -4 53 -19 84 -34 31 -15 73 -30 94 -33 20
-3 63 -20 96 -37 46 -24 71 -30 120 -30 33 0 84 -7 112 -15 63 -17 294 -35
395 -30 70 4 74 2 108 -28 20 -17 40 -42 46 -56 16 -43 10 -151 -11 -196 -22
-47 -54 -118 -56 -125 -3 -10 -50 -105 -55 -110 -5 -5 -22 -34 -44 -75 -6 -11
-19 -32 -29 -46 -16 -24 -63 -150 -73 -194 -19 -90 -23 -139 -18 -210 6 -77 5
-84 -16 -105 -20 -20 -29 -22 -89 -17 -36 3 -93 15 -125 26 -33 12 -70 21 -83
21 -14 0 -54 12 -90 26 -36 15 -108 37 -161 50 -52 13 -124 37 -160 54 -35 16
-72 30 -81 30 -10 0 -36 9 -59 20 -23 11 -64 25 -92 30 -27 5 -65 16 -86 25
-20 8 -62 15 -93 15 -31 0 -72 5 -91 10 -19 6 -55 13 -80 16 -25 2 -85 14
-133 26 -79 19 -93 26 -135 68 -69 69 -71 73 -73 132 -2 76 58 278 82 278 5 0
6 6 3 14 -3 7 1 20 9 28 8 7 20 37 27 66 8 29 17 52 21 52 11 0 52 239 51 303
-1 22 5 58 13 81 7 23 16 57 20 76 11 49 27 75 88 138 25 26 37 28 37 7z
m4007 -392 c-4 -94 -12 -163 -21 -188 -8 -22 -15 -48 -16 -57 0 -9 -7 -24 -16
-32 -21 -21 -29 -73 -13 -92 18 -21 49 -18 49 6 0 11 5 20 10 20 6 0 9 3 8 8
-2 8 15 71 39 144 8 28 13 71 11 103 -1 30 1 56 6 58 4 1 8 42 8 90 1 88 8
104 29 65 13 -23 24 -38 52 -70 11 -11 35 -54 55 -96 20 -43 40 -80 46 -84 7
-4 7 -23 0 -55 -5 -28 -6 -71 -1 -103 9 -64 -9 -207 -30 -228 -7 -7 -13 -10
-13 -6 0 4 -11 -14 -25 -42 -15 -29 -40 -59 -62 -74 -103 -68 -172 -165 -190
-265 -3 -16 -12 -61 -20 -100 -8 -38 -17 -82 -20 -97 -4 -24 -9 -26 -47 -26
-46 1 -147 -9 -181 -18 l-23 -6 16 46 c9 25 23 46 30 46 7 0 11 4 8 9 -3 5 1
23 10 40 9 18 14 41 11 52 -3 10 -1 22 4 25 5 3 9 21 9 40 0 32 -2 34 -33 34
-41 0 -49 -7 -37 -31 7 -12 6 -20 -1 -25 -6 -4 -8 -20 -5 -39 6 -32 -9 -85
-24 -85 -4 0 -20 -26 -35 -57 -15 -32 -34 -66 -43 -76 -14 -16 -14 -20 -2 -28
13 -9 13 -9 0 -7 -8 2 -31 -7 -52 -20 -37 -23 -54 -25 -73 -7 -22 20 -55 74
-55 88 0 14 -29 46 -90 100 -30 27 -31 29 -16 52 11 17 15 38 11 70 -3 25 -2
45 3 45 4 0 21 23 37 50 16 28 33 50 37 50 4 0 8 6 8 13 1 15 75 62 113 71 16
4 41 18 55 32 15 14 51 41 80 61 28 19 60 47 70 61 33 49 73 158 71 193 -2 21
8 56 25 91 15 31 25 61 22 66 -3 6 5 29 18 53 13 24 29 61 36 82 6 21 23 45
36 54 13 8 24 22 24 29 0 12 88 113 99 114 2 0 1 -66 -2 -147z m-1891 -583
c75 -13 134 -31 135 -42 1 -4 3 -12 4 -18 1 -5 3 -17 4 -26 1 -14 9 -16 42
-11 29 4 42 1 46 -8 2 -8 13 -17 24 -20 10 -4 25 -12 32 -18 7 -7 35 -27 62
-46 28 -19 66 -49 85 -67 19 -18 54 -37 77 -43 23 -7 44 -15 47 -20 3 -4 31
-14 63 -21 32 -7 63 -17 68 -21 10 -7 44 -14 109 -24 21 -3 43 -8 49 -12 5 -3
26 -6 45 -5 19 1 54 -7 78 -18 23 -11 50 -20 58 -20 9 0 16 -5 16 -12 0 -6 3
-8 6 -5 4 4 21 -6 39 -21 18 -15 48 -40 68 -56 20 -16 39 -41 42 -56 3 -15 15
-37 26 -49 12 -12 22 -28 23 -34 1 -7 5 -18 10 -25 10 -17 -20 -41 -54 -42
-14 -1 -50 -3 -80 -5 -36 -2 -60 2 -71 11 -8 7 -33 17 -54 22 -24 5 -40 14
-41 22 -1 8 -2 20 -2 26 -2 12 -32 25 -63 27 -18 2 -66 43 -109 93 -29 34 -70
38 -98 10 -16 -16 -15 -19 20 -49 20 -18 47 -39 60 -48 40 -29 11 -34 -60 -11
-71 24 -164 29 -220 13 -27 -8 -36 -7 -53 10 -10 10 -25 19 -33 19 -8 0 -18 4
-21 10 -6 9 -67 29 -110 36 -45 8 -101 14 -122 14 -12 0 -25 5 -28 10 -3 6
-15 10 -26 10 -21 0 -134 54 -143 69 -3 5 5 12 19 15 14 4 25 12 25 19 0 6
-26 38 -58 69 -56 56 -58 57 -80 42 -16 -11 -21 -22 -17 -37 5 -21 5 -21 -7
-3 -7 10 -23 31 -35 46 -12 15 -37 65 -54 111 -17 46 -36 94 -42 106 -16 34
-5 36 54 10 51 -22 83 -52 164 -150 17 -20 35 -37 40 -37 6 0 32 -20 58 -44
38 -36 57 -46 95 -51 26 -3 68 -13 95 -21 44 -15 49 -15 73 1 20 13 23 19 13
31 -6 8 -8 14 -3 14 5 0 -1 7 -13 15 -18 12 -53 18 -164 24 -9 1 -34 18 -56
39 -22 20 -58 53 -79 72 -22 19 -59 59 -84 89 -25 29 -61 60 -80 69 l-35 16
50 6 c80 11 108 11 171 0z m-653 -254 c28 -20 66 -37 92 -40 24 -4 47 -11 50
-17 4 -5 17 -9 31 -9 53 0 108 -26 155 -72 44 -44 47 -50 45 -95 -1 -26 -10
-65 -19 -87 -9 -21 -17 -42 -17 -47 0 -4 -16 -35 -35 -68 -19 -32 -35 -64 -35
-69 0 -6 -6 -17 -12 -24 -17 -17 -78 -136 -78 -151 0 -7 -11 -34 -23 -60 -17
-35 -24 -67 -25 -120 -1 -40 -8 -93 -17 -117 -8 -24 -18 -57 -21 -74 -6 -35
-32 -81 -41 -72 -3 3 -12 -2 -19 -12 -18 -25 -174 -31 -193 -8 -7 9 -28 16
-46 16 -17 0 -54 7 -81 15 -27 8 -72 15 -101 15 -29 0 -72 7 -96 15 -24 8 -74
14 -113 14 -38 0 -245 1 -460 3 -313 2 -394 6 -407 17 -10 7 -17 10 -17 7 0
-4 -35 11 -78 34 -59 30 -87 52 -115 90 -20 27 -37 58 -37 69 0 11 -4 22 -9
26 -12 7 10 75 47 143 106 197 104 191 117 292 4 24 10 51 15 60 4 8 11 38 15
65 3 28 9 57 12 65 11 27 14 45 14 65 0 30 15 33 77 19 31 -8 82 -14 113 -14
31 0 78 -8 105 -18 78 -30 144 -52 209 -71 33 -9 80 -27 105 -38 25 -12 90
-34 145 -48 55 -15 129 -38 165 -52 36 -14 72 -26 80 -27 25 -4 73 -17 112
-31 20 -8 74 -15 120 -16 96 -2 144 16 154 56 3 14 10 25 15 25 4 0 6 10 3 23
-2 12 -5 66 -5 119 -1 76 3 113 21 168 12 38 25 70 29 70 3 0 28 -15 54 -34z
m547 -146 c6 -11 9 -20 7 -20 -2 0 -12 9 -22 20 -10 11 -13 20 -7 20 6 0 16
-9 22 -20z m2021 -214 c31 -9 66 -19 78 -21 37 -7 88 -44 87 -63 -2 -26 -38
-68 -66 -77 -14 -4 -27 -11 -30 -14 -3 -4 -34 -22 -70 -40 -36 -19 -77 -43
-91 -53 -34 -25 -99 -34 -130 -18 -17 10 -24 10 -27 1 -2 -6 -10 -11 -18 -11
-8 0 -14 -4 -14 -10 0 -19 34 -79 42 -74 4 3 16 7 25 9 87 19 146 43 220 88
171 104 183 110 183 90 0 -10 -37 -57 -82 -104 -71 -73 -127 -118 -220 -174
-10 -5 -36 -23 -58 -39 -35 -25 -49 -29 -103 -28 -77 1 -177 11 -189 18 -19
12 -169 20 -205 11 -11 -3 -43 -9 -70 -12 -41 -6 -80 -24 -183 -85 -8 -5 -60
-31 -116 -59 -92 -45 -105 -49 -165 -47 -48 2 -75 9 -109 28 -25 15 -65 32
-90 38 -25 7 -54 20 -65 30 -11 10 -41 27 -67 38 -57 25 -175 134 -194 181
-24 56 -20 61 34 44 26 -8 58 -17 71 -19 13 -3 32 -9 41 -14 18 -10 165 -30
218 -30 42 0 58 33 33 67 -17 23 -65 31 -76 13 -7 -12 -85 -6 -135 10 -91 30
-120 42 -114 51 3 5 -4 9 -15 9 -11 0 -31 5 -45 12 l-26 11 21 18 c11 10 19
21 18 25 -2 12 92 63 117 63 12 1 46 12 76 25 120 53 187 59 279 26 32 -12 79
-20 117 -20 46 0 74 -6 110 -24 26 -14 61 -26 77 -28 17 -2 38 -13 48 -26 10
-12 22 -20 26 -17 4 2 47 7 95 10 97 6 148 28 316 135 68 44 148 69 220 71 30
0 64 4 74 8 22 8 64 2 147 -23z"/>
<path d="M1842 3729 c-28 -11 -38 -35 -23 -53 14 -17 61 -27 61 -13 0 6 3 7 6
4 11 -11 44 13 44 32 0 34 -41 48 -88 30z"/>
<path d="M1998 3693 c-34 -17 -36 -48 -6 -73 32 -25 58 -10 58 34 0 44 -17 56
-52 39z"/>
<path d="M2215 3670 c-37 -14 -46 -34 -29 -58 18 -27 28 -27 54 -5 23 20 25
33 8 55 -9 11 -19 14 -33 8z"/>
<path d="M1790 3594 c-12 -21 -12 -27 -1 -34 8 -4 10 -13 7 -19 -10 -15 0 -14
40 5 40 19 44 46 9 62 -36 16 -40 15 -55 -14z"/>
<path d="M1634 3563 c-32 -32 -28 -63 9 -76 23 -7 31 -5 47 13 11 13 16 28 12
34 -4 6 -7 20 -7 30 0 28 -32 28 -61 -1z"/>
<path d="M2537 3550 c-24 -24 -21 -53 8 -67 20 -9 28 -8 40 4 38 37 -9 99 -48
63z"/>
<path d="M1506 3464 c-22 -21 -20 -41 5 -54 31 -17 51 -5 45 27 -2 16 -5 31
-5 36 -2 13 -29 8 -45 -9z"/>
<path d="M1373 3166 c-11 -13 -23 -32 -25 -42 -4 -15 -8 -11 -21 18 -16 35
-18 36 -59 31 -56 -7 -74 -23 -59 -52 7 -11 21 -21 31 -21 15 0 20 -7 20 -29
0 -22 6 -30 25 -35 38 -10 63 8 57 39 -4 24 -2 26 24 23 45 -5 74 34 58 76 -8
22 -25 19 -51 -8z"/>
<path d="M1250 2765 c-22 -66 19 -102 61 -53 24 27 24 30 -3 55 -40 35 -46 35
-58 -2z"/>
<path d="M1168 2735 c-20 -26 -15 -50 10 -60 22 -8 45 19 48 55 2 25 -2 30
-19 30 -12 0 -30 -11 -39 -25z"/>
<path d="M1391 2466 c-16 -29 0 -66 29 -66 29 0 45 37 29 66 -7 13 -20 24 -29
24 -9 0 -22 -11 -29 -24z"/>
<path d="M1672 3020 c0 -19 2 -27 5 -17 2 9 2 25 0 35 -3 9 -5 1 -5 -18z"/>
<path d="M2873 3322 c-22 -3 -25 -10 -27 -59 -1 -11 9 -19 30 -24 27 -5 34 -2
47 20 14 25 14 28 -6 46 -12 12 -32 19 -44 17z"/>
<path d="M3152 3298 c-14 -18 11 -53 33 -45 20 8 19 20 -4 41 -14 13 -20 14
-29 4z"/>
<path d="M3436 3288 c-20 -11 -21 -52 0 -72 14 -14 18 -14 40 1 18 12 24 22
20 37 -3 12 -6 24 -6 27 0 12 -37 17 -54 7z"/>
<path d="M2984 3222 c-6 -4 -14 -17 -18 -29 -5 -17 -1 -26 18 -39 25 -16 27
-15 46 7 10 13 19 31 20 40 0 25 -41 38 -66 21z"/>
<path d="M2507 3194 c-3 -4 -1 -16 5 -28 6 -11 10 -23 9 -26 -1 -2 7 -7 18
-12 26 -9 61 25 54 53 -4 14 -14 19 -42 19 -21 0 -41 -3 -44 -6z"/>
<path d="M3526 3135 c-12 -43 -7 -63 19 -69 33 -8 45 -1 45 28 0 12 5 27 11
33 18 18 0 34 -36 31 -24 -1 -35 -8 -39 -23z"/>
<path d="M3685 3143 c-19 -43 -14 -68 15 -76 34 -9 63 50 39 79 -16 19 -45 17
-54 -3z"/>
<path d="M2624 3055 c-3 -8 -3 -19 1 -25 11 -18 25 -11 25 15 0 27 -17 34 -26
10z"/>
<path d="M3773 2893 c-7 -2 -13 -20 -13 -38 0 -25 5 -35 20 -40 41 -13 86 39
60 70 -12 15 -43 18 -67 8z"/>
<path d="M2231 2858 c-16 -43 8 -73 46 -55 27 12 30 39 7 61 -22 22 -43 20
-53 -6z"/>
<path d="M2364 2828 c-5 -16 0 -27 17 -41 23 -19 23 -19 32 8 7 21 5 29 -9 40
-26 20 -32 18 -40 -7z"/>
<path d="M3988 2723 c-24 -6 -23 -28 2 -53 26 -26 34 -25 48 5 23 51 10 64
-50 48z"/>
<path d="M4083 2636 c-25 -12 -33 -65 -10 -68 6 0 19 -2 27 -2 19 -2 70 49 70
69 0 18 -52 19 -87 1z"/>
<path d="M2148 2560 c-14 -16 -17 -44 -7 -55 12 -11 61 -16 54 -5 -3 5 -2 10
3 10 16 0 23 30 12 50 -12 22 -44 22 -62 0z"/>
<path d="M1972 2451 c-13 -8 -7 -61 7 -61 3 0 16 -3 28 -6 15 -4 23 0 28 15
13 42 -27 75 -63 52z"/>
<path d="M3982 2377 c-22 -23 -28 -53 -14 -73 11 -17 58 -23 60 -7 1 7 3 20 4
28 1 10 8 13 19 10 17 -6 18 -4 5 27 -17 41 -45 46 -74 15z"/>
<path d="M4066 2262 c-3 -2 -1 -12 4 -21 5 -9 11 -24 14 -33 3 -10 12 -18 19
-18 17 0 42 54 33 69 -6 9 -61 12 -70 3z"/>
<path d="M3987 1876 c-6 -16 2 -28 14 -20 12 7 11 34 0 34 -5 0 -11 -6 -14
-14z"/>
<path d="M4026 1757 c-20 -54 -20 -83 0 -91 9 -3 17 -6 19 -6 1 0 5 19 8 43 4
23 9 54 13 70 11 45 -21 33 -40 -16z"/>
<path d="M3985 1521 c-10 -18 -16 -81 -7 -82 39 -8 53 -4 67 18 19 28 6 53
-25 53 -10 0 -20 5 -22 12 -3 9 -7 8 -13 -1z"/>
<path d="M3883 1412 c-13 -39 -6 -59 24 -66 58 -15 73 55 16 79 -30 13 -32 12
-40 -13z"/>
<path d="M3399 2762 c-18 -3 -39 -42 -39 -72 0 -23 64 -39 89 -23 26 17 25 42
-3 52 -13 6 -26 18 -28 28 -2 11 -10 17 -19 15z"/>
<path d="M3392 2509 c-17 -6 -22 -15 -20 -31 4 -28 51 -47 76 -32 19 13 23 59
5 59 -6 0 -15 3 -19 8 -9 9 -13 8 -42 -4z"/>
<path d="M3439 2303 c-21 -5 -39 -45 -32 -71 7 -27 42 -35 71 -16 35 23 37 41
6 69 -15 14 -27 24 -28 24 -1 -1 -8 -3 -17 -6z"/>
<path d="M3433 2162 c-26 -4 -39 -37 -23 -57 21 -26 64 -18 83 14 17 29 17 29
-11 38 -15 5 -37 7 -49 5z"/>
<path d="M3554 1812 c-6 -4 -14 -17 -18 -29 -6 -18 -2 -24 18 -29 17 -4 31 -1
41 9 16 17 20 47 6 47 -5 0 -15 2 -23 5 -7 3 -18 1 -24 -3z"/>
<path d="M3555 1610 c-16 -4 -25 -8 -19 -9 7 -1 9 -12 6 -27 -4 -22 -2 -25 19
-22 13 1 27 8 31 13 10 13 10 55 1 54 -5 -1 -21 -5 -38 -9z"/>
<path d="M3453 1543 c-30 -20 -32 -68 -3 -60 11 3 20 1 20 -4 0 -5 7 -9 15 -9
8 0 12 6 9 14 -3 8 -1 17 5 21 16 10 13 42 -5 49 -19 7 -14 8 -41 -11z"/>
<path d="M2864 2914 c-4 -14 -1 -35 5 -47 13 -24 61 -33 61 -11 0 7 8 18 18
24 15 9 14 12 -13 35 -39 32 -63 32 -71 -1z"/>
<path d="M3010 2805 c-7 -8 -23 -15 -37 -15 -59 0 -103 -72 -50 -85 37 -9 107
2 128 21 21 19 22 61 1 57 -6 -2 -12 3 -12 11 0 22 -16 28 -30 11z"/>
<path d="M3152 2475 c-12 -14 -7 -30 25 -74 1 -2 9 1 16 7 8 7 17 9 20 5 4 -3
7 -2 8 3 0 5 2 19 5 31 6 37 -48 57 -74 28z"/>
<path d="M3090 2407 c0 -9 -6 -22 -13 -29 -7 -7 -19 -33 -26 -57 -10 -36 -10
-45 1 -52 19 -12 31 -11 55 6 17 12 21 22 16 49 -3 19 -1 36 6 40 13 9 15 46
2 46 -5 0 -16 3 -25 6 -10 4 -16 1 -16 -9z"/>
<path d="M3105 2129 c-4 -11 -4 -37 0 -56 6 -35 7 -35 48 -29 42 7 72 30 60
48 -3 6 -18 8 -33 4 -24 -4 -28 -2 -34 24 -6 35 -32 40 -41 9z"/>
<path d="M3211 1998 c-12 -34 7 -71 33 -64 12 3 27 6 35 6 17 0 7 60 -12 72
-23 14 -48 8 -56 -14z"/>
<path d="M3230 1693 c-8 -4 -22 -15 -31 -26 -15 -19 -15 -22 4 -44 23 -26 45
-30 53 -9 3 8 13 12 26 8 18 -4 19 -2 9 16 -6 11 -11 30 -11 41 0 21 -18 26
-50 14z"/>
<path d="M872 2264 c-32 -22 -29 -54 6 -54 16 0 37 -11 51 -25 27 -29 34 -30
50 -11 10 11 7 22 -11 50 -13 19 -33 40 -46 46 -28 12 -23 13 -50 -6z"/>
<path d="M1222 2111 c-15 -22 -14 -25 3 -37 10 -8 26 -14 34 -14 22 0 90 25
102 37 18 18 -21 37 -74 38 -42 0 -52 -4 -65 -24z"/>
<path d="M1576 1995 c-19 -19 -21 -41 -4 -51 18 -11 93 -8 117 5 28 15 27 39
-1 45 -77 16 -97 16 -112 1z"/>
<path d="M1001 1961 c-17 -31 -13 -48 14 -55 36 -9 108 5 122 23 15 22 10 28
-34 35 -21 4 -50 9 -65 12 -20 4 -29 0 -37 -15z"/>
<path d="M2027 1953 c-23 -4 -28 -9 -25 -29 2 -14 6 -25 10 -26 107 -18 152
-12 146 18 -2 14 -80 47 -98 42 -3 0 -18 -3 -33 -5z"/>
<path d="M1350 1845 c-21 -25 -7 -49 33 -58 20 -5 37 -13 37 -17 0 -5 14 -4
30 1 31 11 40 39 18 56 -11 8 -86 33 -100 33 -3 0 -11 -7 -18 -15z"/>
<path d="M848 1785 c-2 -2 -16 -5 -31 -7 -29 -4 -67 -31 -67 -47 0 -13 29 -41
41 -41 6 0 24 7 41 16 17 9 38 14 48 11 24 -6 50 11 50 33 0 13 -9 22 -27 26
-16 3 -33 7 -40 9 -6 2 -13 2 -15 0z"/>
<path d="M1845 1721 c-9 -31 3 -46 48 -57 23 -6 50 -14 60 -19 14 -6 17 -2 17
18 0 54 -110 105 -125 58z"/>
<path d="M1158 1692 c-31 -4 -46 -35 -28 -57 7 -9 30 -15 54 -15 23 0 58 -9
78 -19 40 -22 48 -19 48 16 0 26 -50 63 -85 63 -12 0 -25 4 -30 8 -6 4 -22 6
-37 4z"/>
<path d="M1638 1549 c-30 -17 -21 -52 18 -77 46 -30 98 -27 102 5 3 17 -4 25
-30 36 -18 8 -39 21 -47 30 -16 20 -20 20 -43 6z"/>
<path d="M786 1474 c-14 -36 -7 -54 22 -54 16 0 39 -9 52 -20 26 -22 55 -26
66 -8 4 6 0 16 -9 23 -10 7 -17 17 -17 23 0 17 -56 52 -83 52 -14 0 -28 -7
-31 -16z"/>
<path d="M1944 1437 c-7 -20 21 -74 45 -86 15 -8 20 -5 30 16 10 23 9 31 -7
52 -22 30 -59 39 -68 18z"/>
<path d="M1352 1388 c-20 -20 -14 -35 27 -67 49 -39 91 -42 91 -6 0 17 -12 32
-44 55 -50 33 -57 35 -74 18z"/>
<path d="M1741 1246 c-7 -8 -9 -25 -6 -39 5 -19 15 -26 45 -31 21 -3 40 -12
43 -18 3 -10 9 -9 22 4 27 25 13 67 -25 75 -17 3 -33 10 -36 14 -8 13 -30 11
-43 -5z"/>
<path d="M4967 1978 c-32 -63 -35 -103 -9 -117 23 -12 42 3 42 34 0 11 8 36
18 55 23 47 22 74 -4 78 -16 2 -26 -9 -47 -50z"/>
<path d="M4685 1962 c-16 -10 -32 -18 -34 -19 -9 -5 11 -73 22 -73 28 1 57 38
57 74 0 40 -2 41 -45 18z"/>
<path d="M4863 1676 c-4 -8 -27 -35 -51 -60 -25 -26 -42 -54 -40 -64 6 -30 36
-25 69 12 17 20 37 36 44 36 19 0 38 59 24 76 -15 18 -36 18 -46 0z"/>
<path d="M4490 1489 c-8 -4 -23 -10 -33 -13 -12 -4 -17 -14 -15 -36 2 -25 6
-30 29 -30 35 0 96 52 77 67 -21 16 -42 21 -58 12z"/>
<path d="M4201 1288 c-17 -28 -13 -55 11 -72 16 -11 25 -13 35 -4 14 11 17 66
5 84 -11 17 -38 13 -51 -8z"/>
<path d="M4642 1223 c-27 -40 -33 -71 -15 -88 26 -27 47 -14 60 35 10 36 1 80
-16 80 -5 0 -18 -12 -29 -27z"/>
<path d="M4325 1220 c-5 -5 -25 -22 -42 -38 -18 -16 -33 -36 -33 -44 0 -19 20
-38 40 -38 21 1 82 85 78 107 -4 20 -28 27 -43 13z"/>
<path d="M2961 1498 c-12 -30 14 -57 60 -64 49 -7 67 7 50 39 -25 47 -96 63
-110 25z"/>
<path d="M3162 1368 c-7 -7 -12 -20 -12 -30 0 -17 14 -22 53 -19 9 1 20 -4 23
-13 3 -8 12 -17 20 -20 45 -17 63 46 19 66 -14 6 -25 15 -25 20 0 13 -64 10
-78 -4z"/>
<path d="M3390 1225 c-19 -22 5 -65 36 -65 13 0 26 -4 29 -10 8 -13 38 -13 52
1 18 18 -9 57 -52 74 -50 19 -50 19 -65 0z"/>
<path d="M3072 1188 c-18 -18 -15 -40 11 -71 17 -22 34 -30 67 -34 39 -4 48
-1 69 21 32 34 17 51 -42 51 -36 0 -42 3 -45 23 -4 25 -39 31 -60 10z"/>
<path d="M3346 1104 c-9 -8 -16 -18 -16 -20 0 -18 24 -43 49 -54 17 -7 33 -21
36 -31 5 -14 16 -19 45 -19 34 0 38 2 33 23 -3 12 -15 31 -27 43 -11 12 -31
33 -43 48 -26 29 -54 33 -77 10z"/>
<path d="M3796 1084 c-3 -9 -6 -17 -6 -19 0 -2 25 -20 55 -41 60 -39 95 -46
119 -21 21 21 10 47 -21 47 -14 0 -38 11 -55 25 -33 28 -83 33 -92 9z"/>
<path d="M976 1104 c-31 -31 -15 -61 40 -76 97 -25 126 -23 118 9 -5 16 -46
43 -67 43 -5 0 -20 9 -34 20 -31 24 -37 25 -57 4z"/>
<path d="M2352 1077 c-28 -33 59 -100 90 -69 17 17 1 56 -29 70 -34 15 -48 15
-61 -1z"/>
<path d="M1190 861 c0 -5 -2 -15 -5 -23 -8 -19 52 -51 92 -50 37 2 78 25 87
49 8 21 -13 34 -35 22 -23 -12 -66 -12 -74 1 -8 13 -65 13 -65 1z"/>
<path d="M1653 814 c-12 -33 13 -61 65 -71 53 -10 72 -3 85 30 5 14 1 17 -23
17 -17 0 -30 5 -30 10 0 6 -3 9 -7 8 -5 -1 -21 4 -36 10 -37 16 -46 15 -54 -4z"/>
<path d="M837 721 c-6 -26 21 -47 58 -46 90 5 138 27 119 56 -3 5 -43 9 -88 9
-74 0 -84 -2 -89 -19z"/>
<path d="M2150 690 c0 -11 -1 -23 -1 -27 -3 -13 75 -52 104 -53 41 0 46 27 11
56 -16 13 -35 23 -41 24 -7 0 -13 4 -13 8 0 4 -13 9 -30 10 -24 2 -30 -2 -30
-18z"/>
<path d="M1271 574 c-16 -36 5 -51 87 -59 73 -6 74 -6 70 17 -4 27 -43 49
-105 58 -36 6 -43 4 -52 -16z"/>
<path d="M826 554 c-19 -50 4 -66 120 -80 43 -5 52 -4 58 11 8 21 -10 45 -34
45 -10 0 -39 9 -65 20 -56 24 -71 25 -79 4z"/>
<path d="M1850 520 c-14 -26 -7 -36 40 -60 61 -31 140 -25 140 10 0 13 -11 20
-37 24 -52 10 -103 28 -103 38 0 16 -30 7 -40 -12z"/>
<path d="M4711 897 c-16 -16 -14 -31 7 -50 20 -19 87 -23 97 -7 4 6 10 8 15 5
4 -2 10 6 12 20 3 14 1 25 -4 25 -5 0 -7 3 -5 8 8 12 -109 12 -122 -1z"/>
<path d="M4408 816 c-18 -42 5 -59 71 -54 42 4 59 10 73 29 18 22 19 24 2 36
-11 8 -22 9 -35 3 -9 -6 -24 -8 -31 -6 -56 18 -68 16 -80 -8z"/>
<path d="M3378 775 c-2 -2 -16 -6 -32 -9 -26 -5 -45 -20 -46 -37 0 -3 9 -14
19 -23 16 -15 25 -16 59 -7 48 13 85 42 74 57 -7 11 -66 26 -74 19z"/>
<path d="M3615 753 c-19 -19 -19 -28 1 -48 10 -10 28 -14 48 -12 17 2 43 -2
57 -9 30 -15 39 -10 39 22 0 47 -110 82 -145 47z"/>
<path d="M3934 675 c-8 -33 12 -58 42 -51 12 3 34 2 48 -4 29 -11 56 -4 56 15
0 6 -11 24 -25 39 -19 21 -33 26 -69 26 -40 0 -46 -3 -52 -25z"/>
<path d="M3897 544 c-3 -3 -27 -8 -54 -12 -45 -7 -48 -9 -48 -37 0 -29 2 -30
52 -33 57 -3 113 18 113 43 0 15 -53 48 -63 39z"/>
<path d="M4470 530 c-40 -40 -23 -53 73 -52 73 1 89 10 85 46 -3 15 -14 19
-70 22 -58 4 -71 1 -88 -16z"/>
<path d="M3563 481 c-77 -20 -99 -38 -79 -66 13 -18 18 -18 67 -7 30 7 61 14
69 15 44 9 65 33 54 62 -7 17 -27 16 -111 -4z"/>
</g>
</svg>
