<?xml version="1.0" standalone="no"?>
<!DOCTYPE svg PUBLIC "-//W3C//DTD SVG 20010904//EN"
 "http://www.w3.org/TR/2001/REC-SVG-20010904/DTD/svg10.dtd">
<svg version="1.0" xmlns="http://www.w3.org/2000/svg"
 width="569.000000pt" height="403.000000pt" viewBox="0 0 569.000000 403.000000"
 preserveAspectRatio="xMidYMid meet">
<metadata>
Created by potrace 1.16, written by Peter Selinger 2001-2019
</metadata>
<g transform="translate(0.000000,403.000000) scale(0.100000,-0.100000)"
fill="#000000" stroke="none">
<path d="M4055 3921 c-11 -5 -40 -31 -65 -57 -42 -45 -74 -68 -157 -111 -30
-15 -34 -15 -85 7 -93 40 -112 41 -173 11 -51 -26 -61 -27 -177 -26 -128 2
-192 15 -243 50 -29 19 -41 24 -137 61 -46 18 -49 18 -78 1 -47 -28 -231 -93
-275 -97 -109 -10 -276 12 -309 42 -6 4 -18 8 -27 8 -10 0 -19 3 -21 8 -1 4
-22 19 -45 35 -32 20 -55 27 -91 27 -46 0 -123 -28 -137 -49 -3 -6 -27 -13
-53 -16 -26 -4 -65 -11 -87 -17 -53 -13 -107 -18 -120 -10 -19 13 -80 32 -101
32 -12 0 -27 7 -34 15 -12 14 -15 14 -30 0 -9 -8 -26 -15 -38 -15 -12 0 -22
-6 -23 -12 -5 -64 -2 -73 25 -102 16 -17 40 -55 53 -83 14 -29 28 -53 33 -53
7 0 21 -31 24 -55 1 -5 4 -15 8 -20 10 -17 42 -143 58 -234 18 -107 0 -501
-26 -543 -4 -6 -10 -40 -15 -77 -9 -80 -14 -101 -40 -211 -11 -47 -24 -101
-28 -120 -5 -19 -25 -80 -46 -135 -44 -120 -69 -200 -100 -320 -12 -49 -35
-128 -49 -175 -15 -47 -34 -110 -42 -140 -8 -30 -21 -77 -29 -104 -8 -26 -13
-52 -10 -56 3 -5 1 -10 -4 -12 -5 -1 -12 -28 -16 -58 -3 -30 -8 -62 -11 -71
-5 -17 -22 -201 -28 -299 -2 -30 2 -87 9 -126 12 -71 70 -214 86 -214 5 0 9
-7 9 -15 0 -8 4 -15 10 -15 5 0 30 -20 54 -45 25 -25 50 -45 56 -45 5 0 10 -4
10 -9 0 -8 104 -81 116 -81 4 0 23 -12 42 -26 94 -73 364 -173 532 -199 25 -4
76 -18 114 -31 38 -13 80 -24 93 -24 13 0 59 -7 101 -16 111 -23 118 -24 212
-32 90 -8 112 -8 340 2 255 11 309 17 480 58 47 11 110 24 140 30 131 24 188
40 215 61 6 4 39 26 75 48 36 23 73 50 82 60 10 10 24 21 31 26 7 4 28 35 46
68 48 87 56 102 91 180 34 75 44 96 79 161 12 23 24 55 27 70 3 16 13 65 23
109 15 65 17 101 11 190 -6 99 -15 136 -50 220 -19 44 -98 311 -106 360 -3 17
-12 50 -21 75 -9 25 -17 52 -18 60 -7 47 -19 100 -31 138 -22 68 -45 217 -54
352 -5 69 -16 172 -25 229 -9 57 -14 110 -11 117 3 8 1 38 -5 67 -20 105 -14
417 12 572 5 33 12 85 14 115 11 124 14 146 19 165 19 69 24 100 21 143 -2 28
2 53 10 62 18 21 25 70 13 96 -6 13 -23 24 -40 28 -36 7 -37 7 -63 -3z m-1810
-186 c87 -53 93 -55 197 -59 68 -3 114 -11 136 -22 28 -14 42 -14 95 -5 34 6
78 13 97 16 19 3 50 13 69 21 18 9 55 16 82 16 27 -1 49 3 49 8 0 19 42 21 68
4 15 -10 27 -16 28 -13 0 2 7 -1 15 -7 14 -11 96 -32 209 -53 68 -12 149 -8
263 13 84 16 151 14 163 -5 14 -24 159 -6 232 28 39 19 49 13 29 -19 -8 -12
-15 -45 -16 -72 -2 -27 -6 -59 -10 -70 -5 -12 -9 -37 -10 -56 0 -19 -3 -48 -6
-65 -3 -16 -7 -138 -10 -270 -3 -132 -8 -262 -12 -290 -16 -99 -5 -358 22
-550 3 -22 8 -58 11 -80 10 -77 15 -98 25 -117 6 -11 8 -22 6 -25 -3 -2 1 -21
9 -40 9 -19 13 -38 10 -40 -3 -3 -1 -13 4 -22 5 -9 11 -37 14 -63 6 -48 33
-128 66 -193 11 -21 20 -48 20 -60 0 -11 9 -38 20 -60 30 -61 70 -171 70 -192
0 -11 14 -66 32 -124 32 -107 38 -190 19 -254 -5 -17 -21 -70 -35 -118 -25
-83 -89 -218 -108 -225 -4 -2 -6 -8 -3 -13 3 -4 -6 -11 -20 -15 -14 -3 -24 -9
-21 -11 6 -6 -121 -133 -172 -173 -18 -14 -41 -33 -53 -42 -12 -9 -37 -22 -58
-29 -20 -6 -43 -17 -51 -23 -26 -21 -94 -48 -128 -52 -19 -3 -41 -11 -49 -19
-9 -9 -33 -15 -63 -15 -27 0 -51 -4 -55 -9 -5 -9 -78 -27 -142 -35 -17 -3 -40
-9 -50 -14 -17 -10 -82 -15 -165 -14 -18 1 -70 1 -116 1 -46 0 -88 4 -95 8
-15 10 -17 10 -182 22 -77 6 -151 13 -165 17 -14 4 -40 6 -59 5 -37 -1 -101
16 -101 27 0 4 -28 7 -63 7 -37 0 -79 7 -105 18 -23 10 -47 15 -52 12 -6 -4
-30 2 -53 13 -23 10 -62 25 -86 33 -24 7 -53 20 -65 29 -11 9 -35 22 -53 29
-18 7 -38 19 -44 27 -6 8 -18 14 -25 14 -15 0 -105 39 -114 49 -3 4 -24 19
-47 35 -58 39 -94 76 -86 89 3 6 1 7 -5 3 -7 -4 -16 2 -21 16 -5 13 -22 38
-39 56 -25 27 -49 95 -44 123 1 4 -3 22 -9 40 -16 58 -20 119 -6 119 8 0 7 3
-2 9 -13 8 -13 23 2 108 9 54 19 125 22 158 4 33 18 101 32 150 14 50 26 95
27 100 1 6 15 51 31 100 16 50 29 92 30 95 0 3 8 21 17 40 40 87 110 283 123
347 8 38 22 86 30 107 9 21 20 56 24 79 5 23 19 78 31 122 12 44 26 96 31 115
11 44 29 151 34 205 2 22 7 72 11 110 13 128 9 306 -12 490 -7 57 -58 219 -80
252 -8 12 -14 28 -14 34 0 7 -7 21 -17 31 -9 10 -13 21 -9 25 4 4 53 8 109 9
56 1 113 6 127 12 14 5 44 18 68 27 23 9 42 21 42 26 0 5 26 9 58 9 42 -1 67
-7 97 -25z"/>
<path d="M2969 3237 c-9 -20 -5 -28 25 -61 34 -35 36 -42 36 -101 0 -61 -1
-65 -30 -80 -37 -19 -61 -19 -86 0 -10 8 -26 15 -36 15 -23 0 -38 -48 -24 -80
10 -22 18 -25 67 -28 44 -3 67 1 105 21 27 13 56 22 65 18 22 -9 69 -47 69
-57 0 -5 14 -17 31 -27 17 -9 33 -25 36 -35 7 -27 69 -48 91 -30 26 20 29 27
24 53 -2 15 -17 29 -41 40 -58 26 -73 37 -134 100 -48 50 -58 66 -62 102 -2
23 -11 56 -20 72 -8 17 -15 38 -15 48 0 48 -82 72 -101 30z"/>
<path d="M2818 2879 c-20 -11 -23 -87 -9 -211 4 -38 6 -68 4 -68 -10 0 -62 62
-68 79 -4 15 -15 21 -36 21 -17 0 -28 -4 -24 -9 3 -5 -1 -16 -9 -23 -15 -16
-8 -36 26 -72 10 -11 18 -22 18 -26 0 -3 18 -16 40 -30 22 -14 42 -32 45 -40
3 -8 17 -21 32 -27 16 -7 63 -42 106 -78 61 -51 84 -66 105 -63 54 6 25 59
-79 140 l-34 26 40 17 c22 9 49 20 60 25 101 46 160 70 171 70 19 0 37 38 30
66 -6 21 -12 24 -46 22 -23 -1 -40 -6 -40 -13 0 -9 -68 -50 -77 -46 -2 0 -28
-10 -58 -24 -31 -13 -71 -27 -90 -31 -30 -5 -35 -3 -36 12 0 11 -2 30 -4 44
-9 56 -7 161 3 173 13 16 -2 53 -27 66 -23 13 -22 13 -43 0z"/>
<path d="M2617 2466 c-11 -29 1 -52 45 -81 25 -17 67 -52 93 -78 26 -27 67
-61 92 -76 l44 -28 -50 -21 c-27 -12 -59 -22 -70 -22 -11 0 -41 -5 -66 -12
-49 -13 -59 -7 -87 55 -22 48 -82 49 -94 2 -5 -20 1 -33 30 -65 19 -22 38 -50
41 -63 4 -13 19 -31 35 -40 15 -10 57 -55 91 -102 35 -47 71 -87 80 -90 21 -7
69 11 69 25 0 6 -34 47 -75 90 -41 43 -75 85 -75 93 0 14 171 76 218 80 12 1
22 5 22 9 0 4 7 8 16 8 8 0 22 6 29 14 19 18 -2 76 -27 76 -22 0 -68 21 -68
31 0 4 -9 11 -21 14 -11 4 -62 49 -113 101 -77 78 -98 94 -123 94 -17 0 -33
-6 -36 -14z"/>
<path d="M2442 1968 c-27 -27 -13 -62 39 -97 52 -35 185 -165 183 -179 -3 -18
39 -34 73 -27 31 6 34 9 28 32 -8 34 -36 71 -58 79 -10 3 -63 50 -117 105 -96
96 -123 112 -148 87z"/>
<path d="M2357 1729 c-6 -10 -17 -19 -24 -19 -7 0 -14 -9 -14 -20 -1 -11 -2
-23 -3 -27 -1 -5 -5 -26 -10 -48 -9 -47 -37 -97 -79 -141 -21 -23 -27 -38 -22
-53 9 -29 40 -44 63 -32 17 9 92 149 92 171 0 6 4 10 9 10 5 0 17 -32 25 -70
15 -65 55 -171 109 -293 21 -45 24 -48 56 -45 32 3 35 7 77 102 24 54 44 103
44 109 0 5 11 25 25 43 29 38 32 66 9 88 -29 30 -69 11 -80 -36 -7 -36 -75
-178 -84 -178 -20 0 -132 372 -116 387 3 3 -1 18 -9 33 -18 35 -52 45 -68 19z"/>
<path d="M2148 1334 c-16 -8 -28 -18 -28 -22 0 -4 -13 -23 -30 -42 -51 -60
-52 -166 -2 -250 48 -82 65 -98 136 -130 77 -35 112 -37 163 -10 21 11 42 20
48 20 11 0 18 10 54 84 26 55 24 79 -14 159 -15 33 -39 64 -65 82 -22 17 -50
38 -62 48 -12 10 -37 27 -55 38 -18 11 -33 24 -33 28 0 14 -85 10 -112 -5z
m111 -86 c55 -33 134 -106 154 -141 28 -51 22 -83 -20 -123 -21 -19 -45 -36
-53 -39 -18 -6 -105 23 -136 45 -31 22 -66 97 -71 151 -4 43 -1 51 32 88 21
23 42 41 47 41 6 0 27 -10 47 -22z"/>
<path d="M1944 1010 c-34 -34 -44 -49 -44 -65 0 -8 -4 -15 -10 -15 -5 0 -10
-12 -10 -26 0 -17 -6 -28 -20 -31 -40 -11 -37 -70 5 -93 29 -16 88 -78 98
-102 3 -10 12 -18 20 -18 13 0 160 -145 168 -166 2 -6 18 -14 35 -17 27 -5 33
-2 43 21 12 25 9 29 -74 108 l-86 82 48 17 c49 18 74 24 177 47 69 15 86 34
68 73 -11 24 -16 26 -49 20 -19 -3 -43 -11 -52 -16 -13 -7 -63 -22 -171 -50
-10 -3 -13 1 -10 11 11 36 3 156 -13 187 -29 55 -86 70 -123 33z m65 -134 c-3
-58 -16 -96 -34 -96 -29 0 -28 90 0 134 24 36 37 23 34 -38z"/>
<path d="M4541 1374 c-71 -36 -85 -60 -77 -130 11 -94 51 -120 173 -110 103 9
165 35 221 93 94 99 23 172 -169 173 -83 0 -102 -3 -148 -26z m263 -67 l30
-13 -25 -23 c-42 -39 -82 -54 -159 -59 -84 -5 -101 4 -106 57 -3 22 2 29 24
38 38 15 201 15 236 0z"/>
<path d="M426 1205 c-21 -8 -44 -19 -50 -24 -13 -11 -130 -41 -158 -41 -20 0
-60 -34 -66 -55 -1 -6 -5 -18 -8 -27 -3 -10 1 -25 8 -34 54 -67 112 -103 182
-111 22 -2 54 -6 70 -8 91 -10 219 100 219 188 0 89 -102 147 -197 112z m98
-66 c33 -15 36 -28 20 -69 -20 -48 -79 -88 -138 -93 -74 -7 -194 61 -139 79
10 3 32 12 50 20 17 8 41 14 53 14 12 0 35 9 50 20 22 16 55 32 77 39 1 1 13
-4 27 -10z"/>
<path d="M950 1157 c-65 -29 -100 -59 -100 -84 0 -7 -5 -21 -11 -32 -7 -10 -9
-32 -5 -53 5 -28 14 -40 42 -53 20 -9 33 -19 30 -22 -3 -3 1 -18 9 -34 19 -36
67 -46 140 -30 78 18 165 67 165 93 0 5 7 16 15 24 18 19 19 104 1 154 -15 42
-53 58 -153 63 -59 3 -77 0 -133 -26z m200 -56 c19 -5 26 -15 31 -45 6 -35 3
-42 -30 -74 -36 -35 -86 -62 -116 -62 -11 0 -14 6 -9 24 5 22 2 25 -33 32 -88
16 -96 41 -31 93 44 34 129 49 188 32z"/>
<path d="M4909 1020 c-47 -8 -85 -24 -104 -44 -23 -24 -52 -121 -44 -148 4
-16 5 -28 2 -28 -4 0 2 -9 12 -20 31 -35 99 -49 159 -33 111 29 156 44 156 53
0 6 5 10 10 10 19 0 90 78 90 99 0 73 -60 116 -164 118 -39 1 -92 -2 -117 -7z
m173 -84 c34 -13 35 -26 4 -55 -24 -22 -172 -72 -198 -67 -49 10 -67 49 -28
61 14 4 20 15 20 35 0 19 6 30 18 33 30 9 155 4 184 -7z"/>
<path d="M638 805 c-74 -27 -118 -48 -118 -56 0 -5 -4 -9 -10 -9 -5 0 -18 -8
-29 -19 -16 -16 -17 -21 -4 -45 8 -15 13 -35 12 -44 -3 -33 1 -53 10 -47 5 3
13 1 16 -5 4 -6 23 -21 44 -34 47 -30 103 -28 165 7 25 14 46 22 46 18 0 -4
-12 -14 -27 -22 -16 -7 -44 -26 -64 -41 -32 -24 -38 -36 -49 -93 -15 -77 -9
-108 23 -122 24 -11 91 -11 137 0 52 13 99 16 105 8 3 -5 11 -8 18 -7 6 2 33
6 60 11 44 7 48 10 67 53 23 51 27 92 15 137 -19 73 -72 98 -189 91 l-86 -5
39 40 c49 49 56 70 41 123 -15 55 -54 77 -132 75 -31 -1 -71 -7 -90 -14z m152
-84 c0 -40 -112 -121 -169 -121 -22 0 -71 40 -71 58 0 12 30 37 30 26 0 -5 4
-3 9 5 12 19 99 47 155 50 40 2 46 -1 46 -18z m187 -232 c17 -32 16 -81 -1
-104 -11 -15 -21 -17 -60 -12 -28 4 -74 1 -117 -8 -98 -21 -122 -20 -114 4 3
11 8 29 10 41 7 35 23 47 75 60 27 6 54 17 59 24 6 6 27 13 48 14 20 2 39 5
42 7 11 12 47 -5 58 -26z"/>
<path d="M4548 742 c-9 -4 -26 -19 -37 -33 -11 -15 -33 -30 -48 -34 -38 -9
-73 -53 -73 -93 0 -24 8 -41 33 -63 31 -30 34 -31 97 -24 36 4 94 9 130 11 53
4 147 36 179 61 3 2 7 25 11 51 6 46 4 50 -31 87 l-38 39 -103 3 c-57 1 -111
-1 -120 -5z m198 -84 c13 -6 24 -16 24 -23 0 -29 -144 -65 -267 -68 -65 -1
-55 23 23 60 30 14 54 29 54 34 0 12 138 9 166 -3z"/>
<path d="M295 576 c-92 -28 -115 -48 -149 -131 -17 -41 -13 -95 7 -95 6 0 18
-6 26 -13 59 -50 215 -47 292 4 47 33 79 77 79 111 0 30 -41 98 -59 98 -9 0
-36 7 -61 16 -61 22 -88 24 -135 10z m84 -70 c6 -7 29 -16 52 -20 22 -3 42
-13 45 -21 8 -20 -51 -68 -89 -72 -16 -2 -36 -8 -43 -14 -9 -7 -31 -7 -73 2
-58 11 -61 13 -55 38 11 45 32 69 76 84 55 20 73 20 87 3z"/>
<path d="M4990 542 c-36 -8 -87 -16 -115 -17 -27 -1 -56 -3 -63 -4 -7 0 -24
-13 -37 -27 -36 -39 -35 -103 3 -145 52 -59 159 -107 177 -80 3 5 36 13 73 16
66 7 122 30 122 50 0 5 11 23 25 39 37 43 28 90 -27 138 -52 44 -74 48 -158
30z m92 -85 c31 -13 40 -29 32 -52 -9 -23 -37 -35 -117 -50 -69 -13 -74 -13
-111 8 -21 12 -45 32 -53 44 -14 21 -13 23 22 37 21 9 52 17 69 17 17 1 45 4
61 8 33 8 56 5 97 -12z"/>
<path d="M4330 431 c-29 -12 -95 -59 -111 -77 -8 -11 -20 -36 -26 -56 -9 -31
-8 -42 8 -67 10 -17 24 -31 31 -31 7 0 25 -7 41 -15 43 -22 174 -37 214 -24
104 34 173 102 173 171 0 45 -30 69 -105 87 -59 14 -203 22 -225 12z m233 -92
c33 -15 34 -29 4 -55 -63 -55 -138 -63 -250 -27 -57 18 -59 37 -7 66 19 10 37
23 38 28 5 13 182 3 215 -12z"/>
</g>
</svg>
