<?xml version="1.0" standalone="no"?>
<!DOCTYPE svg PUBLIC "-//W3C//DTD SVG 20010904//EN"
 "http://www.w3.org/TR/2001/REC-SVG-20010904/DTD/svg10.dtd">
<svg version="1.0" xmlns="http://www.w3.org/2000/svg"
 width="557.000000pt" height="391.000000pt" viewBox="0 0 557.000000 391.000000"
 preserveAspectRatio="xMidYMid meet">
<metadata>
Created by potrace 1.16, written by Peter Selinger 2001-2019
</metadata>
<g transform="translate(0.000000,391.000000) scale(0.100000,-0.100000)"
fill="#000000" stroke="none">
<path d="M1460 3864 c-31 -11 -45 -13 -48 -5 -5 16 -22 13 -22 -4 0 -11 -11
-15 -37 -15 -127 -1 -308 -93 -424 -216 -109 -116 -152 -205 -188 -381 -19
-91 -19 -106 -7 -189 7 -49 25 -128 40 -175 22 -72 35 -96 84 -151 114 -131
210 -186 358 -206 66 -9 233 -8 274 1 148 34 296 97 341 146 35 39 129 187
129 204 0 8 7 27 14 43 21 42 45 138 46 187 1 23 1 116 0 207 0 154 -2 169
-25 218 -14 30 -25 59 -25 66 0 6 -13 26 -30 44 -16 18 -30 37 -30 41 0 11
-46 49 -113 95 -31 21 -57 41 -57 45 0 4 -16 13 -36 20 -19 7 -37 18 -40 25
-7 19 -150 19 -204 0z m193 -77 c20 -9 40 -23 43 -32 3 -8 12 -15 20 -15 8 0
14 -4 14 -9 0 -5 10 -11 23 -15 42 -11 116 -93 152 -170 l35 -74 0 -212 c-1
-208 -1 -214 -30 -302 -40 -121 -74 -181 -135 -235 -55 -50 -81 -63 -200 -100
-166 -52 -402 -34 -526 39 -90 54 -187 176 -203 258 -3 14 -12 50 -20 80 -39
139 5 370 96 507 90 135 268 247 409 257 24 2 51 6 59 10 19 8 179 32 205 31
11 -1 37 -8 58 -18z"/>
<path d="M3610 3787 c-3 -3 -27 -8 -55 -11 -80 -11 -125 -25 -200 -64 -93 -49
-255 -208 -318 -312 -53 -89 -97 -237 -98 -332 -1 -70 29 -214 59 -288 19 -47
165 -207 215 -236 19 -10 53 -31 76 -47 226 -151 339 -161 656 -61 168 53 206
72 279 142 64 61 140 198 151 272 3 25 10 59 15 75 9 31 17 95 25 205 5 64
-12 178 -33 216 -27 50 -86 129 -127 171 -35 34 -43 48 -33 54 10 7 8 9 -6 9
-10 0 -41 18 -70 40 -28 22 -55 43 -61 47 -16 13 -85 43 -97 43 -10 0 -115 42
-151 61 -18 10 -219 24 -227 16z m190 -479 c0 -18 -2 -20 -9 -8 -6 8 -7 18 -5
22 9 14 14 9 14 -14z"/>
<path d="M2459 2146 c-3 -3 -30 -7 -60 -10 -30 -3 -74 -9 -97 -14 -85 -19
-231 -128 -293 -218 -65 -95 -113 -296 -110 -459 3 -139 12 -184 49 -251 9
-18 25 -48 35 -67 10 -19 46 -59 80 -88 34 -30 68 -60 76 -67 20 -19 82 -49
116 -55 92 -18 326 -24 410 -11 49 8 188 87 218 125 37 46 97 146 97 162 0 9
4 17 8 19 13 5 69 188 77 248 13 102 8 262 -10 310 -9 25 -22 61 -28 80 -12
36 -141 170 -164 170 -7 0 -32 12 -54 26 -56 35 -122 62 -194 80 -67 17 -149
27 -156 20z m-68 -91 c58 12 171 5 229 -14 30 -11 68 -22 84 -26 17 -3 43 -16
60 -28 17 -12 40 -26 51 -32 51 -25 124 -91 130 -120 4 -16 16 -47 27 -68 16
-32 19 -59 18 -155 0 -65 -4 -144 -9 -177 -13 -87 -72 -236 -122 -310 -50 -72
-137 -135 -187 -135 -17 0 -34 -5 -37 -11 -10 -15 -295 -2 -361 16 -51 15 -94
43 -161 109 -21 20 -40 36 -44 36 -3 0 -25 40 -48 89 -33 70 -43 102 -46 157
-8 129 -7 169 3 209 6 22 16 67 22 100 19 96 112 265 147 265 5 0 22 12 38 26
26 22 100 61 145 76 8 3 18 1 21 -5 4 -5 21 -7 40 -2z"/>
<path d="M4294 1621 c-3 -3 -24 -7 -47 -8 -50 -3 -184 -68 -271 -132 -63 -45
-186 -167 -186 -184 0 -5 -8 -21 -19 -35 -10 -15 -25 -47 -34 -72 -41 -119
-67 -212 -68 -242 0 -18 -4 -42 -8 -52 -4 -10 -4 -44 0 -74 4 -30 9 -74 10
-96 1 -23 6 -46 10 -51 4 -6 17 -35 28 -65 23 -58 56 -123 77 -149 89 -112
121 -144 171 -174 93 -54 134 -61 265 -48 207 22 343 65 421 135 66 59 186
275 201 361 4 22 9 51 12 65 5 31 15 178 16 245 0 79 -26 159 -78 233 -100
143 -193 243 -252 273 -26 13 -54 29 -62 36 -17 13 -177 42 -186 34z m56 -92
c0 -6 -4 -8 -9 -4 -5 3 -12 2 -15 -3 -2 -4 4 -9 15 -9 10 -1 19 4 19 10 1 7 7
1 14 -13 15 -25 13 -40 -5 -40 -6 0 -8 4 -4 9 3 5 1 12 -4 16 -15 9 -4 -37 11
-47 9 -6 5 -8 -12 -6 -19 2 -25 -1 -24 -14 1 -10 -3 -15 -8 -12 -5 3 -7 12 -4
20 3 8 1 14 -4 14 -6 0 -10 -8 -10 -19 0 -10 -7 -24 -15 -31 -21 -17 -12 -24
14 -10 23 12 28 1 9 -18 -7 -7 -8 -12 -2 -12 6 0 11 -7 11 -15 0 -8 -4 -15 -8
-15 -5 0 -6 -7 -3 -15 4 -8 11 -12 18 -8 6 4 5 -1 -3 -10 -7 -9 -20 -17 -27
-17 -8 0 -14 -5 -14 -11 0 -5 -5 -7 -11 -3 -6 4 -9 19 -5 36 4 21 3 27 -7 21
-12 -8 -17 -9 -37 -12 -5 0 -10 -6 -10 -12 0 -8 5 -8 15 1 23 19 18 3 -6 -19
-24 -22 -57 -18 -39 4 13 16 -1 27 -19 16 -11 -7 -9 -13 8 -30 23 -23 37 -26
46 -11 3 6 15 10 26 10 33 0 16 -24 -23 -33 -27 -6 -37 -15 -41 -33 -3 -18 -1
-24 9 -20 9 3 11 -1 8 -12 -5 -15 -4 -15 9 1 8 9 19 17 26 17 6 0 11 4 11 9 0
5 -12 8 -27 5 -23 -4 -25 -3 -13 10 12 15 35 15 78 2 10 -3 25 -18 34 -33 l16
-28 -36 0 c-31 0 -38 -4 -46 -28 -8 -22 -7 -30 4 -37 8 -6 11 -10 5 -10 -5 1
-19 7 -29 15 -22 17 -40 20 -32 6 3 -5 -1 -14 -9 -21 -9 -7 -13 -21 -10 -31 5
-14 1 -19 -14 -19 -12 0 -21 5 -21 10 0 6 -4 10 -10 10 -5 0 -7 -7 -4 -15 7
-17 49 -20 59 -5 3 6 11 10 16 10 6 0 7 -4 4 -10 -8 -13 17 -13 33 0 6 6 10 7
7 4 -3 -4 3 -13 13 -21 9 -8 11 -12 5 -8 -7 3 -13 3 -14 -2 0 -4 -2 -17 -4
-28 -2 -11 1 -23 8 -27 7 -4 -2 -8 -20 -8 -18 0 -33 5 -33 10 0 6 7 10 16 10
11 0 15 6 11 20 -3 11 0 20 6 21 9 0 9 2 0 5 -7 3 -22 0 -34 -6 -17 -10 -19
-14 -8 -21 11 -8 10 -12 -5 -24 -19 -14 -19 -15 -1 -15 16 0 15 -2 -5 -20 -13
-11 -18 -20 -12 -20 7 0 12 -4 12 -10 0 -5 -8 -10 -17 -10 -9 0 -14 -3 -10 -6
3 -3 15 -3 27 1 12 4 19 9 16 12 -15 15 17 43 47 42 27 0 29 -2 12 -9 -17 -7
-17 -9 -2 -9 22 -1 22 -29 1 -60 -16 -23 -16 -23 6 -11 12 6 24 9 28 6 3 -3 0
-6 -7 -6 -8 0 -11 -6 -7 -16 3 -8 2 -12 -3 -9 -5 3 -16 -4 -24 -16 -11 -14
-16 -17 -19 -7 -3 7 -5 1 -5 -14 0 -16 4 -28 9 -28 5 0 6 5 2 12 -4 6 -3 8 4
4 15 -9 62 11 62 28 0 8 6 17 13 19 9 4 8 8 -3 16 -14 10 -7 15 50 34 8 2 3 3
-11 1 -22 -2 -26 1 -24 23 1 27 29 50 40 33 3 -5 0 -10 -7 -10 -20 0 34 -34
60 -38 12 -1 22 2 22 7 0 5 -11 8 -24 7 -15 -2 -27 3 -31 12 -4 10 0 12 11 8
12 -4 15 -2 11 9 -4 8 1 21 9 30 12 12 13 19 5 29 -9 11 -9 16 1 20 11 5 11 7
0 12 -10 5 -10 11 3 30 15 24 19 104 4 104 -4 0 -5 9 -2 20 3 12 0 20 -6 20
-7 0 -9 -5 -6 -10 4 -6 -4 -5 -19 1 -14 7 -28 19 -31 28 -5 13 -4 14 6 4 20
-20 32 -15 27 12 -3 15 -1 22 5 18 6 -3 7 -1 3 5 -4 7 -17 12 -29 13 -17 0
-18 2 -6 7 9 4 15 15 13 25 -3 21 6 22 32 1 13 -11 15 -17 6 -20 -6 -3 -9 -10
-6 -16 4 -5 15 3 25 19 22 33 25 50 5 34 -9 -8 -16 -8 -20 -2 -4 5 3 12 14 16
30 10 24 25 -7 19 -21 -4 -31 0 -41 16 -10 17 -10 21 3 26 12 5 13 9 4 20 -9
11 -8 14 1 14 8 0 9 4 3 13 -17 22 -8 42 22 48 25 6 26 7 6 8 -19 1 -21 3 -11
16 10 13 17 12 53 -7 23 -12 45 -22 50 -23 4 0 7 -4 6 -9 0 -5 5 -13 13 -18
10 -7 8 -8 -5 -4 -18 6 -57 -12 -57 -27 0 -4 9 -3 20 3 12 6 20 7 20 1 0 -5 3
-17 6 -25 4 -11 2 -15 -7 -11 -8 2 -22 -2 -32 -9 -16 -12 -16 -17 -5 -35 7
-12 23 -21 36 -21 13 0 20 -4 17 -10 -3 -5 -2 -10 3 -10 6 0 13 -7 16 -16 5
-13 3 -14 -7 -6 -8 7 -18 7 -27 2 -10 -7 -11 -10 -2 -10 19 0 14 -17 -12 -44
-21 -20 -26 -22 -29 -8 -4 15 -5 15 -6 0 -2 -26 17 -31 29 -8 12 22 35 26 46
8 4 -6 3 -8 -3 -5 -14 9 -37 -19 -28 -33 3 -5 0 -10 -7 -10 -10 0 -11 -2 0 -8
7 -5 10 -16 6 -25 -3 -10 -1 -17 5 -17 6 0 10 3 10 8 -4 27 2 44 16 38 8 -3
15 -1 15 4 0 6 -8 10 -17 11 -15 0 -15 2 2 8 11 5 26 6 33 4 6 -3 12 2 12 10
0 10 6 13 21 10 16 -4 17 -8 7 -14 -7 -5 -9 -9 -4 -9 5 0 17 7 26 15 15 14 18
14 23 2 3 -8 -1 -26 -8 -40 -11 -22 -11 -25 1 -20 8 3 14 13 14 23 0 18 19 30
46 30 9 0 11 -6 7 -17 -6 -16 -5 -16 10 -4 14 11 18 11 23 -5 3 -11 8 -26 11
-34 9 -28 12 -170 3 -170 -4 0 -10 5 -12 12 -3 7 -7 6 -11 -5 -4 -11 -1 -17 8
-17 8 0 15 -4 15 -10 0 -16 -22 -12 -36 7 -9 14 -10 22 -1 33 6 8 8 12 3 8 -4
-4 -20 -2 -34 3 -23 9 -24 8 -11 -7 12 -15 11 -16 -11 -9 -24 7 -24 6 -5 -8
10 -8 24 -13 31 -10 15 5 25 -55 10 -64 -5 -4 -12 -1 -14 5 -3 9 -9 9 -23 2
-16 -9 -19 -7 -19 10 0 11 -4 20 -9 20 -5 0 -7 -9 -4 -20 4 -14 0 -20 -11 -20
-9 0 -16 7 -16 16 0 13 -7 15 -35 11 -19 -3 -34 -3 -34 1 3 20 -2 32 -11 27
-6 -4 -7 -11 -4 -17 4 -7 -4 -8 -26 -3 -23 5 -35 3 -41 -6 -16 -26 -9 -32 13
-13 21 19 21 19 14 -1 -13 -34 -14 -50 -2 -57 7 -5 4 -8 -6 -8 -18 0 -20 -23
-4 -48 7 -11 4 -12 -12 -3 -13 7 -19 17 -16 26 4 8 1 15 -6 15 -6 0 -8 6 -4
13 5 8 4 9 -4 2 -7 -7 -9 -21 -4 -40 8 -29 11 -30 66 -31 31 0 51 3 44 7 -6 4
-17 5 -23 2 -5 -3 3 6 19 21 16 14 25 26 20 26 -5 0 -2 5 6 10 8 5 11 10 5 10
-5 0 -23 -14 -39 -30 -18 -19 -33 -27 -39 -21 -13 13 1 31 26 32 12 0 16 3 10
6 -7 2 -13 10 -13 17 0 17 38 51 47 43 3 -4 1 -7 -5 -7 -6 0 -9 -7 -6 -15 4
-8 10 -15 16 -15 5 0 7 4 4 9 -3 5 3 11 14 14 13 3 18 1 13 -6 -4 -6 -8 -27
-10 -46 -2 -20 -9 -39 -16 -43 -19 -12 2 -9 26 3 22 12 22 12 3 -10 -11 -11
-16 -24 -13 -28 4 -3 7 -1 7 7 0 10 3 10 15 0 8 -6 19 -9 25 -5 12 7 12 -2 0
-30 -7 -17 -9 -17 -9 -2 -1 9 -5 17 -11 17 -5 0 -7 -8 -3 -17 5 -15 3 -16 -8
-5 -7 6 -20 12 -28 12 -12 0 -12 -2 2 -12 26 -20 11 -61 -20 -55 -13 2 -26 0
-29 -4 -3 -5 0 -9 5 -9 6 0 11 -9 11 -19 0 -11 3 -21 8 -24 4 -2 1 -2 -5 -1
-7 2 -13 -5 -13 -16 0 -11 -4 -20 -9 -20 -5 0 -8 8 -7 18 2 9 -2 20 -8 24 -7
5 -3 8 9 8 16 0 17 2 5 10 -19 12 -32 -8 -19 -32 7 -12 6 -18 -2 -18 -6 0 -9
-7 -6 -15 4 -8 2 -17 -3 -20 -6 -4 -10 -15 -10 -26 0 -12 4 -17 11 -14 6 4 8
13 5 20 -11 31 56 43 75 14 4 -6 12 -8 18 -5 6 4 9 12 6 17 -3 5 1 6 10 3 13
-5 15 -2 9 20 -5 20 -2 26 10 26 9 0 16 5 16 11 0 5 -4 7 -10 4 -14 -9 -12 17
4 38 8 10 20 15 30 11 25 -9 19 5 -6 17 -22 9 -22 9 4 6 19 -3 25 0 21 10 -3
7 -10 10 -16 6 -6 -4 -7 -1 -2 6 5 9 10 10 18 2 6 -6 15 -11 21 -11 5 0 -3 10
-17 23 -33 28 -34 35 -4 39 12 2 21 9 20 16 -2 6 4 12 12 12 8 0 14 5 12 11
-1 6 4 14 11 16 6 3 12 -3 12 -11 0 -9 -6 -19 -14 -22 -8 -3 -17 -12 -20 -19
-3 -9 0 -12 8 -9 10 4 13 -3 11 -23 -3 -36 -35 -113 -46 -113 -5 0 -9 -7 -9
-15 0 -18 -42 -85 -53 -85 -5 0 -5 5 -2 10 8 13 -1 13 -25 0 -12 -7 -17 -16
-13 -27 5 -12 3 -14 -8 -8 -11 7 -10 3 2 -16 16 -24 16 -26 -17 -54 -41 -36
-120 -68 -146 -59 -13 4 -18 2 -14 -4 7 -11 -37 -24 -94 -28 -19 -1 -48 -7
-63 -13 -37 -14 -42 -14 -28 3 10 12 8 13 -8 9 -12 -3 -18 -9 -15 -14 3 -5
-15 -9 -40 -9 -26 0 -46 5 -46 11 0 5 5 7 12 3 7 -4 8 -3 4 4 -10 17 -26 15
-26 -4 0 -32 -100 8 -167 66 -29 26 -30 28 -12 33 11 3 36 -1 56 -9 31 -13 35
-13 30 -1 -3 8 0 20 6 26 8 8 1 8 -24 1 -42 -12 -42 -12 -34 -1 3 5 1 12 -4
15 -5 3 -11 -1 -15 -9 -8 -22 -36 -18 -63 7 -29 27 -30 48 -2 48 11 0 17 -4
14 -10 -3 -6 -1 -10 4 -10 6 0 11 6 11 14 0 10 -13 16 -37 18 -20 2 -38 9 -41
16 -2 6 1 12 8 12 6 0 8 -4 5 -10 -4 -6 10 -9 34 -7 37 2 48 17 13 17 -14 1
-14 2 3 12 30 16 31 18 15 29 -12 9 -13 11 -1 16 10 4 10 7 1 13 -7 4 6 7 28
6 33 -1 41 -5 45 -22 2 -13 -2 -21 -10 -21 -8 0 -12 6 -9 14 5 11 1 11 -17 2
-15 -9 -18 -14 -8 -17 10 -3 10 -6 1 -12 -7 -4 -9 -13 -6 -19 9 -13 27 -15 23
-2 -2 10 2 11 36 10 l22 0 -23 -10 c-24 -9 -22 -29 3 -29 8 0 19 -8 24 -17 6
-11 11 -13 11 -5 0 7 4 11 9 8 5 -4 12 0 15 6 3 7 3 1 0 -14 -4 -17 -2 -28 5
-28 6 0 11 -9 11 -21 0 -11 5 -17 10 -14 6 4 10 12 9 18 -2 20 13 57 23 57 5
0 7 -4 3 -9 -3 -5 -1 -12 5 -16 5 -3 10 -13 10 -21 0 -8 -5 -12 -10 -9 -6 4
-8 11 -5 16 3 5 0 6 -8 3 -7 -2 -12 -15 -11 -27 1 -12 3 -29 3 -38 1 -20 32
-34 41 -19 4 6 13 9 21 7 8 -2 11 -2 6 0 -4 3 -4 10 -1 15 4 6 2 8 -4 5 -12
-8 -42 2 -42 14 0 5 13 6 30 3 25 -5 31 -3 39 17 11 29 5 41 -17 35 -10 -3
-24 -1 -32 4 -13 8 -12 11 4 23 16 12 17 16 5 35 -8 12 -18 22 -24 22 -5 0 -5
4 2 8 9 6 7 11 -7 20 -12 7 -20 8 -20 2 0 -5 6 -10 13 -10 8 0 7 -4 -3 -10 -8
-5 -10 -10 -5 -10 6 0 12 -11 13 -25 2 -27 1 -28 -21 -19 -9 3 -12 14 -9 32 5
25 4 26 -11 10 -10 -9 -17 -23 -17 -30 0 -8 -5 -6 -11 5 -8 13 -7 22 1 33 7 7
9 14 4 14 -5 0 -2 5 6 10 8 5 10 10 4 10 -6 0 -17 -7 -24 -15 -9 -11 -17 -12
-31 -4 -22 11 -15 33 7 25 12 -4 11 -1 -1 18 -8 12 -12 26 -8 31 5 4 0 5 -9 2
-12 -4 -18 -1 -18 8 0 9 -6 12 -17 8 -11 -4 -12 -8 -5 -11 25 -8 12 -29 -17
-28 -16 1 -27 3 -25 5 2 2 -1 10 -7 18 -8 9 -23 11 -47 7 -25 -5 -33 -4 -28 5
4 6 0 11 -9 11 -11 0 -15 -5 -12 -15 4 -8 2 -17 -3 -20 -6 -3 -5 -16 0 -31 12
-31 12 -34 1 -34 -5 0 -16 18 -25 40 -17 44 -22 75 -7 52 7 -11 9 -11 14 2 5
12 0 16 -18 16 -19 0 -25 5 -26 23 0 12 -3 34 -5 50 -3 18 0 27 8 27 9 0 8 3
-2 10 -12 7 -15 30 -14 102 1 81 5 103 32 168 18 41 32 82 32 91 0 9 12 22 26
29 22 12 27 12 34 0 9 -14 11 -13 14 10 0 6 7 15 15 19 7 5 10 14 7 20 -7 10
6 16 27 12 4 -1 3 8 -3 19 -11 20 -5 25 27 21 6 -1 14 3 17 7 3 5 -6 10 -19
10 -14 0 -28 -4 -31 -9 -8 -14 -34 -11 -34 3 0 20 101 108 124 109 12 0 15 3
8 6 -9 3 -4 10 13 19 35 18 49 18 41 -1 -3 -8 -1 -15 4 -15 8 0 23 33 25 53 0
13 29 27 58 27 17 0 27 5 27 14 0 17 22 22 103 24 32 0 57 -3 57 -9z m67 -29
c-11 -18 -12 -19 -18 -2 -3 9 -1 20 4 24 19 12 27 -2 14 -22z m-34 -95 c-3
-13 -10 -23 -17 -22 -6 1 -10 -8 -9 -20 3 -24 -12 -32 -20 -10 -4 12 8 41 27
63 17 20 24 16 19 -11z m252 -70 c-3 -11 -2 -14 1 -7 6 13 83 -63 83 -83 0 -5
-5 -3 -12 6 -13 17 -52 35 -42 20 3 -5 1 -12 -5 -16 -5 -3 -10 -1 -10 5 0 6
-4 9 -9 6 -5 -3 -11 3 -14 14 -3 10 0 22 7 25 6 3 1 3 -11 1 -13 -2 -23 0 -23
6 0 6 -6 8 -14 5 -9 -4 -16 3 -20 16 -7 29 1 35 18 11 14 -18 14 -18 12 7 -3
24 -1 25 20 15 17 -8 22 -17 19 -31z m-120 5 c3 -5 2 -10 -4 -10 -5 0 -13 5
-16 10 -3 6 -2 10 4 10 5 0 13 -4 16 -10z m-132 -38 c-5 -20 -43 -48 -43 -32
0 5 5 10 10 10 6 0 10 6 10 14 0 8 6 17 13 19 6 3 13 6 14 6 0 1 -1 -7 -4 -17z
m-483 -44 c0 -6 -7 -7 -16 -4 -14 5 -15 4 -4 -9 10 -12 8 -16 -15 -25 -38 -15
-38 -14 -14 30 18 31 25 37 36 29 7 -6 13 -16 13 -21z m697 26 c-3 -3 -12 -4
-19 -1 -8 3 -5 6 6 6 11 1 17 -2 13 -5z m-283 -29 c-4 -10 0 -15 12 -15 16 0
16 -2 4 -10 -9 -6 -17 -5 -22 3 -11 17 -10 37 2 37 5 0 7 -7 4 -15z m293 -3
c8 -5 9 -13 3 -22 -7 -10 -10 -11 -10 -2 0 15 -27 16 -32 0 -3 -7 -7 -5 -11 6
-4 9 -3 15 2 11 5 -3 12 -1 16 5 7 12 16 12 32 2z m-320 -18 c-3 -3 -12 -4
-19 -1 -8 3 -5 6 6 6 11 1 17 -2 13 -5z m64 -51 c13 -16 12 -17 -3 -4 -10 7
-18 15 -18 17 0 8 8 3 21 -13z m-27 -69 c5 -14 4 -15 -9 -4 -17 14 -19 20 -6
20 5 0 12 -7 15 -16z m76 -18 c0 -3 -7 -3 -15 0 -8 4 -15 13 -15 21 0 12 2 12
15 -1 8 -8 15 -17 15 -20z m31 0 c5 3 9 1 9 -4 0 -10 -23 -23 -52 -28 -10 -2
-18 1 -18 6 0 6 9 10 20 10 12 0 20 7 21 18 0 10 3 12 6 4 2 -6 9 -10 14 -6z
m-211 -36 c0 -5 -2 -10 -4 -10 -3 0 -8 5 -11 10 -3 6 -1 10 4 10 6 0 11 -4 11
-10z m140 -15 c11 -13 8 -15 -16 -14 -17 1 -22 3 -11 6 9 2 15 9 12 14 -10 15
1 10 15 -6z m55 -5 c-3 -5 -14 -10 -23 -10 -15 0 -15 2 -2 10 20 13 33 13 25
0z m-69 -29 c-4 -5 0 -12 6 -14 7 -3 4 -6 -8 -6 -11 -1 -21 -7 -21 -15 0 -10
10 -12 37 -9 39 6 56 -11 40 -37 -7 -11 -12 -11 -23 -2 -7 7 -18 8 -23 4 -4
-4 -2 1 5 10 12 17 10 17 -31 12 -31 -4 -48 -2 -53 6 -5 9 -2 10 14 5 15 -5
21 -2 21 10 0 9 6 22 13 30 13 16 31 20 23 6z m64 -11 c0 -11 -2 -20 -5 -20
-2 0 -9 9 -15 20 -9 16 -8 20 5 20 8 0 15 -9 15 -20z m-98 -77 c-10 -4 -9 -8
5 -19 12 -9 13 -13 5 -14 -7 0 -10 -6 -7 -12 4 -7 -3 -2 -14 11 -23 25 -20 41
7 40 11 0 13 -2 4 -6z m470 -25 c2 -13 1 -34 -3 -48 -4 -14 -8 -18 -8 -10 -1
13 -2 13 -11 0 -5 -8 -10 -12 -10 -8 0 3 -3 13 -6 22 -4 11 0 16 12 17 16 1
17 2 2 6 -9 2 -28 -3 -42 -13 -14 -9 -26 -12 -26 -6 0 5 8 13 18 16 32 12 62
33 55 39 -3 4 -2 7 4 7 6 0 13 -10 15 -22z m-117 -28 c3 -5 1 -10 -4 -10 -6 0
-11 5 -11 10 0 6 2 10 4 10 3 0 8 -4 11 -10z m-28 -15 c0 -8 -4 -15 -9 -15 -4
0 -8 7 -8 15 0 8 4 15 8 15 5 0 9 -7 9 -15z m-12 -35 c3 -5 1 -10 -4 -10 -6 0
-11 5 -11 10 0 6 2 10 4 10 3 0 8 -4 11 -10z m76 -43 c-10 -9 -11 -8 -5 6 3
10 9 15 12 12 3 -3 0 -11 -7 -18z m-31 3 c0 -5 -5 -10 -11 -10 -5 0 -7 5 -4
10 3 6 8 10 11 10 2 0 4 -4 4 -10z m4 -65 c-4 -8 -8 -15 -10 -15 -2 0 -4 7 -4
15 0 8 4 15 10 15 5 0 7 -7 4 -15z m-820 -77 c-3 -4 -12 -8 -20 -8 -8 0 -13 4
-10 8 3 5 12 9 20 9 8 0 13 -4 10 -9z m767 -22 c8 5 8 1 0 -13 -6 -11 -7 -24
-3 -28 4 -5 1 -5 -5 -1 -7 4 -13 3 -13 -2 0 -5 -7 -9 -15 -9 -8 0 -15 6 -15
14 0 7 6 13 14 13 10 0 13 9 10 33 -3 28 -3 29 6 9 6 -13 15 -20 21 -16z
m-751 4 c0 -5 -8 -10 -17 -10 -15 0 -16 2 -3 10 19 12 20 12 20 0z m18 -37 c2
-8 -5 -13 -17 -13 -21 0 -35 13 -24 24 10 10 36 3 41 -11z m162 -58 c0 -8 -2
-15 -4 -15 -2 0 -6 7 -10 15 -3 8 -1 15 4 15 6 0 10 -7 10 -15z m120 -75 c0
-5 -4 -10 -10 -10 -5 0 -10 5 -10 10 0 6 5 10 10 10 6 0 10 -4 10 -10z"/>
<path d="M4238 1513 c10 -4 10 -8 1 -19 -9 -11 -9 -14 0 -14 6 0 14 7 17 15 4
8 11 12 17 8 6 -3 7 -1 3 5 -4 7 -17 12 -29 11 -12 0 -16 -3 -9 -6z"/>
<path d="M4320 1470 c0 -5 5 -10 10 -10 6 0 10 5 10 10 0 6 -4 10 -10 10 -5 0
-10 -4 -10 -10z"/>
<path d="M4220 1459 c0 -5 5 -7 10 -4 6 3 10 8 10 11 0 2 -4 4 -10 4 -5 0 -10
-5 -10 -11z"/>
<path d="M4470 1460 c-8 -5 -12 -11 -9 -14 3 -3 14 1 25 9 21 16 8 20 -16 5z"/>
<path d="M4420 1439 c0 -5 5 -7 10 -4 6 3 10 8 10 11 0 2 -4 4 -10 4 -5 0 -10
-5 -10 -11z"/>
<path d="M4490 1440 c-13 -8 -12 -10 3 -10 9 0 17 5 17 10 0 12 -1 12 -20 0z"/>
<path d="M4145 1431 c-18 -7 -17 -8 6 -13 30 -5 51 0 43 13 -6 11 -21 11 -49
0z"/>
<path d="M4455 1421 c-3 -6 -3 -11 1 -11 4 0 -1 -7 -12 -15 -10 -8 -17 -15
-14 -16 40 -9 50 -5 45 19 -5 30 -11 37 -20 23z"/>
<path d="M4252 1398 c-6 -22 -28 -23 -40 -2 -11 21 -21 7 -24 -35 -1 -20 -8
-31 -18 -32 -10 0 -9 -3 5 -9 26 -11 35 -12 34 -2 -1 4 -1 14 0 22 1 13 2 13
12 0 8 -11 12 -12 16 -2 2 6 9 10 13 7 5 -3 14 4 20 15 8 15 8 20 -1 20 -7 0
-2 9 10 19 l23 20 -23 -2 c-12 -1 -24 -9 -27 -19z m-17 -28 c19 -8 19 -9 -2
-9 -12 -1 -25 4 -28 9 -7 12 2 12 30 0z"/>
<path d="M4072 1397 c-8 -10 -7 -13 7 -14 10 -1 18 5 18 13 0 17 -11 18 -25 1z"/>
<path d="M4079 1353 c-13 -16 -12 -17 4 -4 9 7 17 15 17 17 0 8 -8 3 -21 -13z"/>
<path d="M4110 1354 c0 -8 -5 -14 -11 -14 -8 0 -8 -4 0 -14 9 -11 6 -13 -14
-10 -21 2 -24 0 -15 -11 6 -7 7 -15 3 -17 -4 -3 -2 -3 4 -2 7 2 17 -5 23 -14
10 -15 11 -14 6 6 -3 17 -1 21 8 13 7 -6 17 -6 26 -1 11 7 12 10 2 10 -7 0
-11 4 -7 9 3 6 -2 14 -11 19 -11 6 -13 11 -5 16 6 4 11 2 11 -3 0 -6 5 -11 11
-11 5 0 7 5 4 10 -3 6 2 10 11 10 24 0 14 8 -19 14 -19 3 -27 0 -27 -10z"/>
<path d="M4281 1358 c0 -7 4 -22 8 -33 8 -19 8 -19 15 2 8 24 1 43 -15 43 -5
0 -9 -6 -8 -12z"/>
<path d="M4480 1299 c0 -5 11 -9 25 -9 14 0 25 2 25 4 0 2 -11 6 -25 8 -14 3
-25 1 -25 -3z"/>
<path d="M3970 1278 c-12 -8 -12 -9 2 -5 9 3 19 1 22 -6 3 -9 5 -9 5 0 1 18
-13 23 -29 11z"/>
<path d="M4030 1260 c-9 -6 -10 -10 -3 -10 6 0 15 5 18 10 8 12 4 12 -15 0z"/>
<path d="M4146 1243 c0 -16 -4 -31 -10 -35 -7 -5 -4 -8 7 -8 13 0 17 8 17 35
0 19 -4 35 -8 35 -4 0 -7 -12 -6 -27z"/>
<path d="M4484 1250 c0 -11 4 -20 8 -20 4 0 8 9 8 20 0 11 -4 20 -8 20 -4 0
-8 -9 -8 -20z"/>
<path d="M4017 1223 c-7 -11 40 -69 49 -60 4 4 2 7 -4 7 -7 0 -12 8 -12 19 0
21 -25 47 -33 34z"/>
<path d="M4260 1190 c0 -12 4 -19 9 -16 5 4 12 0 15 -6 3 -7 4 -2 3 11 -3 31
-27 41 -27 11z"/>
<path d="M3915 1170 c3 -5 -2 -10 -12 -11 -15 0 -14 -2 5 -11 12 -6 25 -9 27
-6 8 8 -6 38 -17 38 -5 0 -6 -4 -3 -10z"/>
<path d="M4598 1148 c5 -5 16 -8 23 -6 8 3 3 7 -10 11 -17 4 -21 3 -13 -5z"/>
<path d="M3836 1141 c-3 -5 2 -15 12 -22 15 -13 16 -12 4 3 -11 14 -10 17 5
21 16 4 16 5 1 6 -9 0 -19 -3 -22 -8z"/>
<path d="M4000 1139 l-25 -7 25 -2 c14 -1 35 -3 48 -4 13 -2 22 3 22 11 0 10
-5 11 -19 3 -11 -5 -21 -6 -23 -2 -2 5 -14 5 -28 1z"/>
<path d="M4461 1134 c0 -11 3 -14 6 -6 3 7 2 16 -1 19 -3 4 -6 -2 -5 -13z"/>
<path d="M4724 1131 c0 -13 8 -18 25 -18 22 0 23 1 8 12 -9 6 -14 15 -10 18 3
4 0 7 -8 7 -8 0 -15 -8 -15 -19z"/>
<path d="M4671 1114 c0 -11 3 -14 6 -6 3 7 2 16 -1 19 -3 4 -6 -2 -5 -13z"/>
<path d="M4640 1110 c0 -5 5 -10 11 -10 5 0 7 5 4 10 -3 6 -8 10 -11 10 -2 0
-4 -4 -4 -10z"/>
<path d="M3844 1080 c0 -13 4 -16 10 -10 7 7 7 13 0 20 -6 6 -10 3 -10 -10z"/>
<path d="M3907 1080 c3 -11 7 -20 9 -20 2 0 4 9 4 20 0 11 -4 20 -9 20 -5 0
-7 -9 -4 -20z"/>
<path d="M4700 1093 c0 -7 -7 -10 -17 -6 -10 4 -14 2 -10 -4 4 -6 4 -13 0 -16
-5 -2 -3 -3 4 -1 6 1 14 0 18 -4 4 -4 12 -7 18 -7 7 0 11 -8 11 -16 -1 -12 5
-15 20 -11 11 3 15 7 8 10 -9 3 -9 9 -1 24 8 16 8 22 -2 29 -7 4 -16 6 -18 3
-3 -3 1 -9 9 -14 13 -8 12 -10 -2 -10 -9 0 -22 8 -27 18 -6 9 -11 12 -11 5z"/>
<path d="M4135 1070 c-3 -5 1 -10 10 -10 9 0 13 5 10 10 -3 6 -8 10 -10 10 -2
0 -7 -4 -10 -10z"/>
<path d="M4643 1041 c0 -20 4 -28 13 -24 11 4 11 10 2 26 -6 12 -12 23 -13 25
-1 1 -2 -11 -2 -27z"/>
<path d="M3795 1049 c-4 -6 -5 -12 -2 -15 2 -3 7 2 10 11 7 17 1 20 -8 4z"/>
<path d="M4606 1043 c-6 -14 -5 -15 5 -6 7 7 10 15 7 18 -3 3 -9 -2 -12 -12z"/>
<path d="M3840 1039 c0 -5 -4 -7 -10 -4 -5 3 -10 1 -10 -4 0 -6 9 -11 20 -11
13 0 18 5 14 15 -7 17 -14 20 -14 4z"/>
<path d="M4110 1030 c0 -11 4 -20 9 -20 5 0 7 9 4 20 -3 11 -7 20 -9 20 -2 0
-4 -9 -4 -20z"/>
<path d="M4480 1021 c0 -25 6 -27 13 -6 4 8 2 17 -3 20 -6 4 -10 -3 -10 -14z"/>
<path d="M4590 1010 c0 -5 5 -10 10 -10 6 0 10 5 10 10 0 6 -4 10 -10 10 -5 0
-10 -4 -10 -10z"/>
<path d="M4725 1010 c-13 -6 -15 -9 -5 -9 8 0 22 4 30 9 18 12 2 12 -25 0z"/>
<path d="M3887 991 c3 -13 11 -17 24 -14 18 5 19 6 2 19 -25 19 -32 17 -26 -5z"/>
<path d="M4090 985 c0 -16 27 -32 37 -22 5 6 -21 37 -31 37 -3 0 -6 -7 -6 -15z"/>
<path d="M4143 993 c9 -2 17 -9 17 -14 0 -5 5 -9 11 -9 8 0 8 5 -1 15 -7 8
-20 14 -29 14 -13 -1 -13 -2 2 -6z"/>
<path d="M3818 983 c7 -3 16 -2 19 1 4 3 -2 6 -13 5 -11 0 -14 -3 -6 -6z"/>
<path d="M4446 965 c4 -8 9 -15 13 -15 4 0 8 7 8 15 0 8 -6 15 -13 15 -8 0
-11 -6 -8 -15z"/>
<path d="M3876 954 c18 -14 18 -15 -6 -9 -17 4 -21 3 -11 -3 7 -5 10 -15 7
-21 -8 -12 4 -15 19 -3 16 11 17 34 3 43 -23 15 -33 10 -12 -7z"/>
<path d="M3925 949 c-17 -8 -16 -9 8 -6 15 3 27 0 27 -4 0 -5 5 -9 11 -9 8 0
8 5 -1 15 -14 17 -17 17 -45 4z"/>
<path d="M3775 940 c-4 -6 3 -10 14 -10 25 0 27 6 6 13 -8 4 -17 2 -20 -3z"/>
<path d="M4628 943 c7 -3 16 -2 19 1 4 3 -2 6 -13 5 -11 0 -14 -3 -6 -6z"/>
<path d="M4092 913 c-13 -11 -13 -14 -2 -10 14 4 41 -15 40 -28 -1 -23 3 -27
10 -10 5 14 3 24 -8 33 -9 7 -11 12 -4 12 7 0 12 4 12 8 0 14 -29 10 -48 -5z"/>
<path d="M4016 907 c3 -10 9 -15 12 -12 3 3 0 11 -7 18 -10 9 -11 8 -5 -6z"/>
<path d="M3908 903 c7 -3 16 -2 19 1 4 3 -2 6 -13 5 -11 0 -14 -3 -6 -6z"/>
<path d="M3830 890 c0 -6 -11 -8 -25 -4 -16 4 -30 1 -40 -9 -14 -14 -11 -15
27 -14 32 2 44 7 46 20 2 9 1 17 -2 17 -3 0 -6 -5 -6 -10z"/>
<path d="M3978 873 c7 -3 16 -2 19 1 4 3 -2 6 -13 5 -11 0 -14 -3 -6 -6z"/>
<path d="M4205 841 c-3 -5 -2 -12 3 -15 5 -3 9 1 9 9 0 17 -3 19 -12 6z"/>
<path d="M3831 831 c-8 -5 -9 -11 -3 -15 5 -3 12 1 16 9 6 17 6 18 -13 6z"/>
<path d="M4116 832 c-4 -7 -3 -19 3 -26 9 -10 8 -15 -5 -20 -27 -11 -37 -7
-24 9 9 11 10 15 1 15 -15 0 -46 -29 -34 -31 4 -1 27 -2 50 -3 38 -1 42 1 36
19 -5 17 -4 18 11 6 9 -7 16 -21 16 -30 0 -12 2 -13 9 -3 4 8 11 13 15 13 22
-3 24 1 6 19 -11 11 -31 20 -44 20 -13 0 -26 5 -28 12 -3 9 -6 9 -12 0z"/>
<path d="M4349 838 c-6 -22 -5 -39 3 -45 7 -3 8 -1 4 5 -4 7 -2 12 3 12 6 0
11 7 11 15 0 12 -18 23 -21 13z"/>
<path d="M3858 805 c-8 -18 -17 -24 -30 -19 -10 3 -18 1 -18 -4 0 -8 15 -9 78
-3 7 0 10 6 7 11 -4 6 -11 8 -16 5 -5 -4 -9 0 -9 9 0 8 6 17 13 19 9 4 9 6 -1
6 -7 1 -18 -10 -24 -24z"/>
<path d="M3905 820 c3 -5 18 -10 32 -10 32 0 28 5 -10 14 -19 4 -26 3 -22 -4z"/>
<path d="M4385 790 c3 -5 11 -10 16 -10 6 0 7 5 4 10 -3 6 -11 10 -16 10 -6 0
-7 -4 -4 -10z"/>
<path d="M4325 769 c-4 -6 -4 -13 -1 -16 3 -3 1 -11 -4 -18 -7 -8 -5 -12 6
-12 11 0 14 7 10 23 -4 16 -1 24 11 27 16 4 16 5 1 6 -9 0 -20 -4 -23 -10z"/>
<path d="M4421 763 c-5 -10 -9 -30 -9 -45 1 -40 23 -14 24 28 2 38 -1 42 -15
17z"/>
<path d="M3953 756 c-10 -11 -9 -15 1 -19 8 -3 16 3 19 14 6 22 -3 24 -20 5z"/>
<path d="M4110 760 c-9 -6 -10 -10 -3 -10 6 0 15 5 18 10 8 12 4 12 -15 0z"/>
<path d="M4510 760 c0 -6 6 -10 13 -10 7 0 8 -3 2 -8 -14 -10 -15 -42 -1 -42
18 0 19 57 1 64 -8 3 -15 1 -15 -4z"/>
<path d="M3803 753 c4 -6 1 -14 -5 -16 -7 -3 0 -6 16 -6 16 -1 27 0 25 2 -2 1
-13 9 -23 17 -11 8 -17 10 -13 3z"/>
<path d="M4178 749 c-10 -5 -15 -16 -12 -24 4 -8 2 -15 -4 -15 -5 0 -12 -10
-15 -22 -5 -21 -5 -21 7 -6 10 14 15 15 26 5 10 -9 10 -7 0 7 -14 18 -13 18
23 14 20 -2 37 0 37 4 0 4 -13 8 -29 8 -17 0 -32 4 -35 9 -7 11 22 23 36 14 7
-3 8 -1 4 5 -9 14 -16 15 -38 1z"/>
<path d="M4262 753 c-6 -3 -9 -10 -5 -16 4 -7 0 -8 -12 -3 -15 5 -16 4 -6 -8
9 -11 10 -20 2 -33 -6 -10 -11 -12 -11 -5 0 15 -30 16 -30 1 0 -5 4 -8 9 -5 5
3 14 -1 21 -9 10 -12 9 -15 -4 -15 -9 0 -16 -4 -16 -10 0 -5 -7 -7 -16 -3 -13
5 -13 7 -2 14 7 5 8 9 2 9 -23 0 -24 -15 -2 -33 13 -10 17 -16 11 -12 -9 4
-11 1 -7 -9 3 -9 1 -16 -5 -16 -6 0 -11 -4 -11 -10 0 -25 30 -6 40 25 6 19 16
33 21 30 5 -4 9 -1 9 6 0 9 3 9 14 0 11 -9 16 -9 21 0 4 6 1 15 -6 21 -10 6
-7 8 11 6 14 -2 24 -9 22 -16 -1 -8 2 -11 8 -7 11 7 10 55 -2 55 -4 0 -8 -5
-8 -11 0 -25 -35 -2 -37 24 -2 23 1 26 12 17 8 -6 16 -7 19 -2 7 11 -23 21
-42 15z"/>
<path d="M4458 753 c7 -3 16 -2 19 1 4 3 -2 6 -13 5 -11 0 -14 -3 -6 -6z"/>
<path d="M3898 743 c6 -2 18 -2 25 0 6 3 1 5 -13 5 -14 0 -19 -2 -12 -5z"/>
<path d="M3980 728 c0 -4 7 -8 15 -8 8 0 15 4 15 8 0 5 -7 9 -15 9 -8 0 -15
-4 -15 -9z"/>
<path d="M4070 731 c-37 -6 -53 -34 -25 -45 9 -3 14 -2 11 3 -8 12 14 28 44
33 14 1 21 6 15 9 -5 3 -26 3 -45 0z"/>
<path d="M3875 720 c-3 -5 1 -10 9 -10 9 0 16 5 16 10 0 6 -4 10 -9 10 -6 0
-13 -4 -16 -10z"/>
<path d="M4004 699 c-8 -13 13 -36 23 -24 5 4 2 10 -5 12 -6 3 -10 9 -6 14 3
5 3 9 0 9 -3 0 -8 -5 -12 -11z"/>
<path d="M4112 705 c4 -4 3 -16 -3 -26 -5 -11 -7 -19 -5 -19 3 0 10 9 16 19 7
15 7 22 -2 27 -7 4 -10 4 -6 -1z"/>
<path d="M3912 693 c-10 -4 -10 -8 -1 -19 9 -11 13 -11 25 1 23 23 11 32 -24
18z"/>
<path d="M4560 690 c0 -5 5 -10 11 -10 5 0 7 5 4 10 -3 6 -8 10 -11 10 -2 0
-4 -4 -4 -10z"/>
<path d="M4458 666 c-3 -15 0 -23 9 -23 8 0 12 6 9 13 -3 7 0 14 7 17 6 2 5 6
-5 9 -11 5 -17 0 -20 -16z"/>
<path d="M4051 657 c-15 -15 -14 -34 2 -43 6 -4 9 -4 5 1 -4 4 2 15 14 25 18
14 19 18 6 23 -9 3 -21 0 -27 -6z"/>
<path d="M4360 651 c0 -6 4 -13 10 -16 6 -3 7 1 4 9 -7 18 -14 21 -14 7z"/>
<path d="M4101 634 c0 -11 3 -14 6 -6 3 7 2 16 -1 19 -3 4 -6 -2 -5 -13z"/>
<path d="M4157 633 c-10 -9 -9 -23 1 -23 5 0 9 7 9 15 0 17 -1 18 -10 8z"/>
<path d="M4237 617 c-18 -28 -7 -48 28 -46 16 1 17 2 3 6 -10 2 -18 14 -18 26
0 20 0 20 14 1 8 -10 17 -17 19 -14 3 3 -2 16 -12 29 l-17 23 -17 -25z"/>
<path d="M4407 616 c-4 -10 -1 -13 9 -9 15 6 19 23 5 23 -5 0 -11 -7 -14 -14z"/>
<path d="M4448 623 c6 -2 18 -2 25 0 6 3 1 5 -13 5 -14 0 -19 -2 -12 -5z"/>
<path d="M4675 620 c-3 -5 -1 -10 4 -10 6 0 11 5 11 10 0 6 -2 10 -4 10 -3 0
-8 -4 -11 -10z"/>
<path d="M4453 603 c-7 -3 -13 -9 -13 -15 0 -7 5 -6 14 1 11 9 15 9 19 -1 4
-9 6 -9 6 -1 1 15 -10 22 -26 16z"/>
<path d="M4661 564 c0 -11 3 -14 6 -6 3 7 2 16 -1 19 -3 4 -6 -2 -5 -13z"/>
<path d="M4203 563 c12 -3 16 -11 12 -23 -6 -20 15 -33 34 -20 18 10 18 15 2
33 -7 10 -25 16 -40 16 -17 -1 -20 -3 -8 -6z"/>
<path d="M4440 560 c0 -5 5 -10 11 -10 5 0 7 5 4 10 -3 6 -8 10 -11 10 -2 0
-4 -4 -4 -10z"/>
<path d="M4414 553 c4 -8 1 -13 -9 -13 -9 0 -13 -4 -10 -10 10 -15 33 -12 31
5 -1 8 -6 18 -11 22 -4 4 -5 2 -1 -4z"/>
<path d="M4471 534 c0 -11 3 -14 6 -6 3 7 2 16 -1 19 -3 4 -6 -2 -5 -13z"/>
<path d="M4196 513 c-12 -12 -6 -25 10 -19 9 4 13 2 8 -5 -9 -16 37 -1 56 18
13 12 12 13 -11 5 -14 -6 -32 -6 -41 -1 -8 5 -18 6 -22 2z"/>
<path d="M4374 480 c-1 -17 3 -30 7 -30 14 0 11 -28 -3 -33 -7 -3 -8 -6 -2 -6
5 -1 19 6 30 15 10 8 13 13 7 9 -9 -4 -13 1 -13 15 0 12 -4 18 -10 15 -5 -3
-10 -4 -10 -1 0 3 12 12 28 21 22 13 23 15 5 10 -14 -4 -23 -2 -23 4 0 26 -15
8 -16 -19z"/>
<path d="M4460 499 c0 -5 -4 -7 -10 -4 -6 3 -7 -1 -4 -9 8 -21 11 -20 24 4 7
14 7 20 0 20 -5 0 -10 -5 -10 -11z"/>
<path d="M4307 493 c-4 -3 -7 -13 -7 -22 1 -13 3 -13 11 2 11 19 8 33 -4 20z"/>
<path d="M4499 481 c11 -7 9 -10 -8 -16 -18 -5 -20 -9 -10 -21 9 -11 9 -17 0
-28 -8 -9 -9 -16 -2 -21 13 -7 26 39 15 56 -5 9 -2 10 9 6 8 -3 28 -2 44 3 18
5 22 9 11 10 -10 2 -22 3 -27 4 -5 0 -13 4 -17 9 -4 4 -12 7 -18 7 -6 0 -5 -4
3 -9z"/>
<path d="M4018 463 c7 -3 16 -2 19 1 4 3 -2 6 -13 5 -11 0 -14 -3 -6 -6z"/>
<path d="M4425 460 c3 -5 11 -10 16 -10 6 0 7 5 4 10 -3 6 -11 10 -16 10 -6 0
-7 -4 -4 -10z"/>
<path d="M4313 445 c-3 -9 -3 -18 -1 -21 3 -3 8 4 11 16 6 23 -1 27 -10 5z"/>
<path d="M4350 440 c0 -5 5 -10 11 -10 5 0 7 5 4 10 -3 6 -8 10 -11 10 -2 0
-4 -4 -4 -10z"/>
<path d="M4430 415 c0 -8 -6 -12 -13 -9 -8 3 -13 -4 -14 -18 -2 -15 1 -18 6
-10 4 7 14 12 22 10 8 -2 15 7 17 20 2 12 -1 22 -7 22 -6 0 -11 -7 -11 -15z"/>
<path d="M4325 411 c-3 -5 -1 -12 4 -16 6 -3 8 -12 5 -19 -3 -8 0 -17 6 -21 7
-4 10 5 8 29 -2 35 -11 45 -23 27z"/>
<path d="M4223 395 c0 -8 4 -12 9 -9 5 3 6 10 3 15 -9 13 -12 11 -12 -6z"/>
<path d="M4000 391 c0 -10 19 -25 25 -20 1 2 -3 10 -11 17 -8 7 -14 8 -14 3z"/>
<path d="M4360 388 c0 -4 4 -8 9 -8 6 0 12 4 15 8 3 5 -1 9 -9 9 -8 0 -15 -4
-15 -9z"/>
<path d="M4040 380 c0 -5 9 -10 21 -10 11 0 17 5 14 10 -3 6 -13 10 -21 10 -8
0 -14 -4 -14 -10z"/>
<path d="M4267 349 c7 -7 15 -10 18 -7 3 3 -2 9 -12 12 -14 6 -15 5 -6 -5z"/>
<path d="M845 1512 c-11 -3 -31 -9 -45 -15 -14 -6 -29 -9 -34 -8 -5 1 -16 -4
-25 -12 -9 -7 -38 -24 -66 -38 -50 -25 -176 -140 -212 -194 -40 -62 -84 -175
-102 -266 -31 -149 -33 -210 -8 -339 3 -14 8 -43 12 -65 21 -115 100 -217 216
-275 107 -55 376 -80 529 -49 55 11 189 72 265 121 51 32 97 84 114 129 8 18
22 52 32 74 21 47 25 75 34 255 7 137 -1 199 -36 285 -7 17 -13 35 -14 40 -6
25 -63 117 -91 147 -148 155 -230 197 -401 203 -54 2 -109 6 -123 8 -14 1 -34
1 -45 -1z m15 -91 c3 -1 -5 -7 -16 -14 -12 -6 -31 -18 -43 -25 -13 -8 -21 -9
-21 -2 0 17 -25 11 -54 -11 -20 -16 -26 -28 -22 -43 5 -19 4 -20 -8 -3 -7 9
-17 17 -21 17 -5 0 -5 -3 -2 -6 12 -12 -14 -46 -30 -40 -14 6 -14 4 -2 -10 13
-16 11 -17 -13 -12 -15 3 -25 1 -22 -3 3 -5 0 -9 -6 -9 -6 0 -8 -4 -5 -10 3
-5 16 -10 28 -10 18 0 19 2 7 10 -12 8 -9 10 13 10 15 0 27 -5 27 -11 0 -5 -6
-7 -12 -3 -10 6 -10 4 0 -7 20 -22 14 -47 -15 -57 -25 -9 -22 -10 27 -11 38 0
50 2 40 9 -18 11 -7 23 25 27 26 4 35 -11 13 -20 -10 -4 -10 -6 -1 -6 20 -2
27 21 10 34 -10 7 -17 16 -17 20 0 4 7 2 15 -5 11 -9 19 -10 26 -3 7 7 6 13
-3 20 -19 15 -78 24 -78 13 0 -6 5 -10 10 -10 6 0 10 -7 10 -15 0 -18 -36 -20
-46 -3 -5 7 -2 9 8 5 12 -4 14 -1 11 14 -3 10 -12 19 -19 19 -17 0 -18 16 -3
26 6 3 15 0 20 -7 5 -8 9 -10 9 -5 0 5 6 4 13 -2 8 -7 16 -6 25 4 9 10 9 14 1
14 -8 0 -7 5 2 17 10 11 10 14 2 9 -9 -4 -13 -1 -13 9 0 12 5 15 16 11 9 -3
25 -6 37 -6 18 0 19 -2 7 -10 -10 -6 -11 -10 -2 -10 6 0 12 -9 12 -20 0 -11
-4 -20 -10 -20 -5 0 -10 -5 -10 -11 0 -5 4 -8 9 -4 6 3 15 -4 21 -16 12 -21
22 -19 26 6 1 8 -4 15 -12 15 -9 0 -13 4 -9 9 3 6 18 6 37 1 34 -10 52 -5 44
15 -2 7 0 17 6 23 8 8 5 9 -9 6 -13 -4 -20 0 -20 10 0 9 8 16 18 16 9 0 25 3
35 7 12 4 15 3 10 -5 -5 -8 -2 -10 8 -6 11 4 16 0 16 -15 0 -12 5 -20 11 -18
6 1 13 -6 14 -16 2 -11 -1 -17 -8 -14 -7 2 -21 1 -32 -4 -16 -6 -13 -8 15 -9
19 -1 29 -4 23 -7 -8 -3 -11 -14 -7 -28 4 -18 1 -25 -18 -31 -22 -7 -22 -7 -3
-14 16 -6 24 -1 38 26 15 30 20 33 50 27 17 -3 35 -11 39 -17 4 -6 6 -1 6 10
-2 16 -7 19 -26 16 -23 -4 -24 -2 -20 26 3 21 1 28 -8 25 -17 -6 -25 10 -13
27 8 12 12 12 16 3 9 -22 25 -14 18 10 -5 20 -5 21 6 3 11 -18 12 -18 28 3 20
26 66 34 82 15 9 -11 8 -14 0 -14 -7 0 -9 -5 -5 -12 5 -7 2 -9 -7 -6 -55 23
-55 23 -40 5 12 -15 10 -18 -10 -27 -19 -8 -20 -9 -4 -7 11 2 30 -7 42 -20 13
-13 25 -19 28 -13 4 6 11 8 16 5 5 -4 16 1 25 9 14 14 14 16 0 16 -8 0 -18 5
-22 12 -4 6 -3 8 4 4 5 -3 12 0 15 6 3 10 8 9 22 -2 17 -14 18 -14 5 10 -12
24 -12 24 6 9 10 -9 26 -19 34 -22 12 -4 11 -6 -2 -6 -17 -1 -21 -10 -16 -28
1 -5 9 -7 16 -5 9 2 11 -1 6 -10 -6 -10 -4 -10 9 1 10 8 17 9 17 3 0 -6 -8
-16 -17 -21 -10 -6 -14 -11 -9 -11 6 0 21 10 34 23 l25 22 -5 -28 c-4 -23 -2
-27 12 -22 25 8 34 -11 13 -25 -12 -7 -13 -10 -3 -7 20 5 34 -11 59 -64 19
-42 22 -71 9 -85 -4 -3 -4 -12 -1 -20 3 -8 0 -14 -6 -14 -6 0 -11 -8 -10 -17
0 -11 3 -13 6 -5 2 6 17 11 31 11 21 -1 22 -2 7 -6 -11 -3 -26 -12 -32 -21 -8
-10 -13 -11 -13 -4 0 9 -5 10 -19 2 -26 -14 -31 -13 -25 5 8 19 -13 20 -32 1
-22 -23 -17 -28 26 -24 45 4 50 1 18 -12 l-23 -9 23 0 c22 -1 27 -15 16 -45
-4 -11 -11 -13 -30 -5 -18 6 -23 6 -18 -3 5 -8 0 -9 -14 -6 -12 4 -22 2 -22
-3 0 -4 -8 -6 -17 -2 -12 3 -10 -1 5 -12 13 -9 21 -23 18 -31 -3 -9 2 -14 14
-14 11 0 20 -7 20 -15 0 -8 8 -15 18 -15 10 0 23 -5 30 -12 6 -6 15 -8 19 -4
4 4 1 11 -7 16 -8 6 -12 10 -8 10 3 0 13 3 22 6 12 5 16 0 16 -19 0 -14 5 -29
11 -32 6 -4 10 -1 8 6 -4 31 2 102 8 96 7 -8 7 -121 -1 -184 -6 -43 -40 -139
-58 -160 -15 -19 -38 -16 -38 5 -1 16 -1 16 -11 -1 -12 -21 -31 -23 -23 -2 6
15 -11 21 -20 7 -9 -15 12 -35 29 -28 12 4 16 2 12 -8 -4 -11 -1 -13 11 -10
14 5 13 3 -2 -10 -16 -12 -22 -13 -28 -3 -5 8 -8 5 -8 -8 0 -22 -17 -45 -33
-45 -4 0 -5 5 -2 10 3 6 1 10 -5 10 -6 0 -18 6 -26 14 -10 11 -11 15 -1 19 22
8 3 15 -25 10 -15 -3 -25 -10 -22 -15 4 -6 -2 -8 -15 -3 -16 5 -21 2 -22 -12
-1 -17 -2 -17 -6 0 -3 11 3 24 13 31 16 12 16 13 -2 11 -27 -1 -46 -14 -39
-26 4 -5 -4 -14 -17 -19 l-23 -11 23 5 c26 5 51 -27 30 -40 -6 -4 -14 -2 -16
4 -2 7 -8 12 -13 12 -6 0 -7 -5 -4 -10 12 -20 -3 -39 -25 -33 -20 5 -20 6 -3
25 16 18 16 19 -2 12 -15 -6 -17 -4 -12 9 3 9 2 17 -3 17 -6 0 -10 -5 -10 -11
0 -5 -4 -7 -10 -4 -5 3 -10 1 -10 -4 0 -8 -6 -8 -18 0 -14 9 -23 9 -38 0 -17
-11 -16 -12 9 -6 21 4 28 2 24 -7 -2 -7 -13 -12 -23 -11 -10 1 -13 0 -6 -3 10
-5 10 -9 0 -22 -12 -13 -10 -14 10 -3 12 6 22 16 22 22 0 6 5 7 11 4 7 -5 5
-13 -6 -25 -9 -10 -14 -24 -10 -29 4 -8 -26 -11 -94 -11 -56 0 -101 3 -101 8
0 4 -28 8 -62 9 -34 2 -66 7 -72 13 -7 7 -4 10 9 10 10 0 15 3 12 7 -4 3 -19
0 -34 -8 -21 -11 -27 -11 -30 -1 -3 6 -9 10 -14 6 -5 -3 -9 0 -9 6 0 6 -5 8
-10 5 -6 -4 -9 -1 -8 7 2 8 -5 12 -17 11 -19 -1 -19 -1 -2 11 9 7 17 18 17 25
0 14 17 14 26 -1 4 -6 3 -8 -3 -5 -6 4 -13 0 -16 -7 -8 -20 15 -26 31 -9 12
11 12 16 0 30 -12 15 -10 16 16 9 35 -9 47 6 39 46 -6 30 5 35 37 18 14 -7 20
-6 24 7 4 9 3 19 -2 22 -14 9 -25 81 -12 81 6 0 8 -5 4 -12 -5 -8 -2 -9 10 -5
10 4 23 7 29 7 7 0 6 4 -3 10 -8 5 -26 10 -40 10 -32 -1 -63 -58 -47 -87 9
-16 9 -16 -6 -4 -15 12 -17 11 -17 -8 0 -12 -4 -19 -10 -16 -6 4 -9 -3 -7 -16
2 -13 9 -25 15 -27 7 -2 12 -9 12 -15 0 -8 -3 -8 -11 0 -6 6 -18 9 -26 6 -12
-5 -14 -1 -8 15 4 13 2 22 -4 22 -6 0 -11 10 -11 23 0 18 2 19 10 7 7 -11 10
-12 10 -2 0 7 -6 20 -14 28 -16 16 -40 19 -31 4 4 -7 -2 -7 -19 0 -21 8 -24 7
-19 -7 5 -13 2 -15 -11 -10 -9 4 -15 3 -12 -2 3 -5 -1 -11 -9 -15 -17 -6 -30
10 -15 17 6 3 5 4 -2 3 -7 -1 -14 -10 -16 -19 -5 -25 40 -26 60 0 12 14 25 19
39 16 17 -5 20 -11 15 -37 -4 -17 -11 -33 -16 -34 -6 -2 -8 -8 -5 -13 4 -5 0
-6 -8 -3 -9 3 -21 -4 -30 -16 -9 -13 -17 -17 -22 -11 -3 6 -2 11 3 11 6 0 12
7 16 15 4 13 2 14 -14 5 -15 -8 -24 -8 -33 2 -26 26 -49 67 -42 78 3 5 1 10
-4 10 -6 0 -11 7 -11 16 0 10 5 14 16 10 8 -3 12 -2 9 4 -3 6 -13 10 -21 10
-15 0 -15 1 -19 40 -1 14 -6 39 -10 55 -23 96 -13 136 29 113 28 -16 41 -18
57 -7 10 6 5 10 -18 15 -34 7 -42 18 -22 29 6 4 16 -1 23 -11 7 -9 18 -14 24
-10 11 6 16 -6 13 -26 0 -5 3 -8 8 -8 5 0 12 -11 15 -25 4 -14 11 -25 16 -25
13 0 13 7 -1 32 -14 27 -2 36 16 12 10 -13 14 -15 15 -5 0 10 8 12 31 7 34 -7
69 8 69 29 0 7 5 15 12 17 22 8 1 37 -23 31 -17 -5 -20 -3 -14 7 6 10 3 12
-11 7 -18 -7 -18 -7 0 8 24 18 38 19 55 3 11 -10 13 -10 7 0 -4 6 -2 12 3 12
6 0 11 4 11 9 0 6 -10 8 -22 6 -13 -3 -31 -2 -41 1 -14 4 -16 9 -6 20 14 17 4
48 -12 38 -7 -4 -9 -3 -5 4 4 6 -5 12 -21 15 -26 4 -27 4 -3 5 14 1 38 -10 54
-24 24 -21 27 -28 15 -36 -11 -8 -10 -9 4 -4 9 3 17 1 17 -4 0 -5 7 -7 15 -4
10 4 13 15 10 31 -5 31 -15 43 -15 20 0 -19 -2 -20 -24 -11 -9 3 -16 11 -16
16 0 6 7 7 16 4 12 -5 15 -2 10 9 -3 9 -2 13 4 10 6 -3 10 -1 10 5 0 17 60 48
86 45 13 -1 24 2 24 6 0 5 -12 10 -27 10 -16 1 -21 3 -12 6 11 3 15 11 12 24
-8 28 -17 23 -31 -15 -12 -33 -15 -34 -50 -29 -27 3 -33 2 -22 -6 8 -5 11 -13
7 -18 -13 -12 -41 -9 -53 6 -12 15 -6 71 8 71 5 0 6 5 3 11 -4 6 2 5 13 -2 24
-15 44 -3 22 12 -12 9 -11 10 6 6 23 -5 29 19 7 28 -19 7 -64 -5 -58 -15 2 -4
-6 -6 -18 -5 -20 2 -23 -2 -23 -31 0 -19 4 -34 9 -34 4 0 5 5 2 10 -3 6 -1 10
4 10 14 0 14 -17 1 -25 -7 -4 -7 -13 0 -26 8 -14 7 -19 -2 -19 -9 0 -9 -3 2
-10 12 -8 10 -10 -9 -10 -13 0 -22 3 -18 6 3 3 -2 15 -12 25 -11 12 -16 29
-13 44 5 31 0 31 -24 3 -14 -17 -15 -19 -2 -10 15 12 17 11 15 -7 -1 -12 -6
-20 -12 -20 -5 1 -18 1 -28 0 -17 -1 -17 -3 -3 -16 9 -9 26 -14 41 -11 19 4
25 1 25 -14 0 -10 -6 -21 -12 -23 -8 -3 -6 -6 4 -6 24 -1 68 -23 68 -33 0 -5
-4 -7 -9 -4 -5 3 -11 -1 -15 -9 -3 -8 -1 -15 4 -15 6 0 10 -8 10 -17 0 -14 -2
-15 -9 -4 -5 8 -11 9 -15 3 -3 -6 -1 -14 5 -17 7 -5 2 -16 -13 -32 l-23 -25
30 7 c21 5 27 4 20 -3 -13 -13 -84 -22 -90 -12 -6 10 20 32 28 23 4 -3 7 -1 7
5 0 7 -7 12 -15 12 -8 0 -15 5 -15 10 0 7 -7 7 -20 0 -11 -6 -18 -15 -15 -21
4 -5 0 -9 -8 -9 -17 0 -50 34 -41 43 3 3 -5 3 -18 -1 -18 -5 -19 -7 -5 -10 9
-2 17 -8 17 -13 0 -5 -6 -8 -12 -7 -7 2 -12 -4 -10 -14 2 -12 -3 -15 -20 -10
-14 3 -17 7 -9 10 11 4 11 6 0 13 -12 8 -11 11 1 19 8 5 10 10 4 10 -6 0 -11
7 -11 15 0 8 4 15 8 15 4 0 6 8 4 18 -1 9 0 22 4 27 3 6 7 29 8 52 2 37 81
207 117 250 26 32 51 53 62 53 6 0 14 6 17 14 8 19 84 70 130 87 20 7 37 17
37 21 0 7 19 7 60 -1z m115 -4 c3 -4 2 -5 -1 -2 -4 2 -13 -3 -22 -11 -12 -13
-16 -13 -23 -2 -6 9 -9 10 -9 1 0 -7 -7 -10 -15 -7 -34 14 -6 33 43 29 12 -1
24 -5 27 -8z m120 3 c3 -5 19 -10 35 -10 16 0 32 -4 35 -10 3 -5 -1 -10 -9
-10 -22 0 -28 -1 -52 -11 -18 -6 -21 -5 -17 12 3 10 0 19 -6 19 -6 0 -11 5
-11 10 0 6 4 10 9 10 6 0 13 -4 16 -10z m-38 -6 c-3 -3 -12 -4 -19 -1 -8 3 -5
6 6 6 11 1 17 -2 13 -5z m-37 -25 c0 -5 -10 -9 -22 -9 -13 0 -34 -3 -48 -6
-23 -5 -24 -4 -7 9 10 8 27 12 39 9 14 -3 19 -1 14 6 -5 8 -2 10 8 6 9 -3 16
-10 16 -15z m-100 -19 c0 -5 -4 -10 -10 -10 -5 0 -10 5 -10 10 0 6 5 10 10 10
6 0 10 -4 10 -10z m315 0 c3 -6 -1 -7 -9 -4 -18 7 -21 14 -7 14 6 0 13 -4 16
-10z m-426 -16 c10 -9 -35 -3 -49 6 -11 8 -7 9 15 4 17 -4 32 -8 34 -10z m24
-21 c-5 -12 -3 -14 7 -8 8 5 11 3 8 -5 -2 -8 -10 -16 -18 -18 -7 -3 -10 0 -6
6 3 6 2 13 -4 17 -11 7 -4 25 10 25 5 0 6 -7 3 -17z m632 -379 c20 -16 20 -16
-3 -9 -12 3 -22 3 -21 -2 4 -21 -2 -44 -10 -39 -14 9 -19 55 -7 60 17 7 20 6
41 -10z m15 -76 c0 -4 -7 -8 -15 -8 -8 0 -15 -9 -15 -19 0 -30 -20 -36 -36
-12 -15 20 -41 31 -29 11 3 -6 -1 -7 -9 -4 -27 10 -19 35 8 28 13 -3 26 -2 29
4 8 11 67 12 67 0z m-70 -66 c3 -3 -3 -2 -12 1 -9 3 -19 1 -22 -6 -3 -9 -7 -8
-15 3 -15 21 -3 32 22 19 12 -7 24 -14 27 -17z m-720 -8 c0 -2 -7 -4 -15 -4
-8 0 -15 4 -15 10 0 5 7 7 15 4 8 -4 15 -8 15 -10z m-40 -14 c0 -5 -2 -10 -4
-10 -3 0 -8 5 -11 10 -3 6 -1 10 4 10 6 0 11 -4 11 -10z m622 -392 c-15 -15
-31 -1 -25 22 5 17 7 18 20 4 11 -11 13 -18 5 -26z m-33 -15 c2 -2 -5 -3 -16
-3 -11 0 -20 7 -20 15 0 12 3 12 16 3 9 -7 18 -14 20 -15z m-46 -6 c3 -9 -12
-20 -44 -32 -28 -9 -51 -16 -53 -14 -2 2 10 15 27 29 17 14 28 19 24 13 -5 -7
-4 -13 2 -13 6 0 11 7 11 15 0 19 26 20 33 2z m-133 -37 c0 -5 -4 -10 -10 -10
-5 0 -10 5 -10 10 0 6 5 10 10 10 6 0 10 -4 10 -10z"/>
<path d="M640 1310 c0 -5 5 -10 10 -10 6 0 10 5 10 10 0 6 -4 10 -10 10 -5 0
-10 -4 -10 -10z"/>
<path d="M770 1300 c-9 -6 -10 -10 -3 -10 6 0 15 5 18 10 8 12 4 12 -15 0z"/>
<path d="M1098 1283 c7 -3 16 -2 19 1 4 3 -2 6 -13 5 -11 0 -14 -3 -6 -6z"/>
<path d="M748 1273 c7 -3 16 -2 19 1 4 3 -2 6 -13 5 -11 0 -14 -3 -6 -6z"/>
<path d="M1133 1232 c-12 -12 -11 -16 4 -27 12 -9 23 -10 36 -4 9 6 22 7 29 3
6 -4 9 -1 6 7 -3 8 1 19 9 24 9 7 2 10 -28 11 -23 0 -48 -6 -56 -14z m41 2
c16 -6 12 -24 -5 -24 -6 0 -8 4 -5 9 4 5 0 12 -6 14 -7 3 -10 6 -6 6 3 1 13
-2 22 -5z"/>
<path d="M588 1214 c3 -17 9 -23 19 -20 8 3 20 6 27 6 20 0 15 26 -6 27 -11 1
-18 -5 -19 -15 0 -12 -3 -11 -9 6 -12 30 -18 28 -12 -4z"/>
<path d="M1257 1224 c2 -7 12 -10 21 -7 14 5 15 3 5 -8 -20 -21 -15 -39 10
-38 21 0 21 1 2 9 -11 5 -15 9 -10 9 6 1 11 10 12 20 1 13 -6 20 -22 23 -16 3
-22 1 -18 -8z"/>
<path d="M1027 1223 c-10 -10 -8 -45 2 -39 11 7 21 46 12 46 -4 0 -11 -3 -14
-7z"/>
<path d="M554 1205 c-10 -8 -14 -14 -9 -15 15 0 40 18 34 24 -3 3 -14 -1 -25
-9z"/>
<path d="M787 1213 c-4 -3 -7 -17 -7 -29 0 -12 -6 -24 -12 -27 -7 -2 -3 -2 9
-1 12 2 24 -2 26 -9 4 -9 6 -9 6 1 1 7 5 11 10 7 5 -3 12 -1 16 5 3 5 -1 10
-9 10 -9 0 -16 7 -16 16 0 9 -5 12 -12 8 -8 -5 -9 -2 -5 9 7 18 5 21 -6 10z"/>
<path d="M1073 1195 c0 -8 4 -12 9 -9 4 3 8 9 8 15 0 5 -4 9 -8 9 -5 0 -9 -7
-9 -15z"/>
<path d="M915 1190 c3 -5 8 -10 11 -10 2 0 4 5 4 10 0 6 -5 10 -11 10 -5 0 -7
-4 -4 -10z"/>
<path d="M1162 1172 l-23 -24 23 -12 c21 -11 24 -10 35 13 11 23 12 24 14 6 1
-11 1 -23 0 -27 0 -5 4 -8 10 -8 6 0 9 7 5 15 -3 8 0 15 7 15 8 0 6 4 -3 10
-12 8 -10 10 10 11 17 1 19 3 8 6 -10 2 -18 8 -18 13 0 17 -44 5 -68 -18z"/>
<path d="M560 1170 c12 -8 11 -10 -7 -10 -12 0 -25 -4 -28 -10 -9 -14 29 -12
43 2 17 17 15 28 -5 28 -15 0 -16 -2 -3 -10z"/>
<path d="M1062 1164 c10 -10 20 -15 24 -12 3 4 -5 12 -18 18 -22 12 -22 12 -6
-6z"/>
<path d="M1115 1169 c-4 -6 -4 -13 -1 -16 3 -4 6 -1 6 6 0 7 5 9 12 5 7 -4 8
-3 4 4 -9 15 -13 15 -21 1z"/>
<path d="M1376 1153 c7 -36 12 -43 32 -42 14 1 14 2 -2 6 -15 4 -16 7 -5 14
10 6 10 9 2 9 -7 0 -13 9 -13 20 0 11 -4 20 -9 20 -5 0 -7 -12 -5 -27z"/>
<path d="M1010 1149 c0 -5 5 -7 10 -4 6 3 10 8 10 11 0 2 -4 4 -10 4 -5 0 -10
-5 -10 -11z"/>
<path d="M755 1130 c3 -5 8 -10 11 -10 2 0 4 5 4 10 0 6 -5 10 -11 10 -5 0 -7
-4 -4 -10z"/>
<path d="M938 1133 c7 -3 16 -2 19 1 4 3 -2 6 -13 5 -11 0 -14 -3 -6 -6z"/>
<path d="M1245 1130 c3 -5 14 -10 23 -10 15 0 15 2 2 10 -20 13 -33 13 -25 0z"/>
<path d="M521 1111 l-21 -19 23 -4 c29 -6 49 13 31 29 -9 9 -17 8 -33 -6z"/>
<path d="M1006 1105 c4 -8 11 -15 16 -15 6 0 5 6 -2 15 -7 8 -14 15 -16 15 -2
0 -1 -7 2 -15z"/>
<path d="M875 1100 c-3 -5 -1 -10 4 -10 6 0 11 5 11 10 0 6 -2 10 -4 10 -3 0
-8 -4 -11 -10z"/>
<path d="M1190 1090 c0 -11 5 -20 11 -20 5 0 8 4 5 9 -10 16 21 20 48 6 14 -8
26 -10 26 -6 0 11 -46 31 -70 31 -13 0 -20 -7 -20 -20z"/>
<path d="M846 1061 c15 -45 40 -78 51 -67 4 3 3 6 -1 6 -4 0 -2 9 4 20 9 17 7
22 -15 30 -17 6 -24 14 -19 22 4 7 4 10 -1 6 -4 -4 -14 0 -21 10 -9 12 -9 5 2
-27z"/>
<path d="M1293 1093 c10 -10 -13 -32 -27 -27 -9 4 -12 -3 -11 -20 3 -25 -1
-29 -37 -29 -10 0 -15 -4 -12 -8 3 -5 0 -9 -5 -9 -6 0 -11 -7 -11 -15 0 -8 5
-15 10 -15 6 0 9 6 8 13 -2 6 6 12 17 12 44 1 107 17 95 25 -8 5 -2 10 16 14
21 6 24 10 14 16 -8 5 -18 6 -24 3 -5 -4 -7 1 -3 10 3 10 2 17 -4 17 -6 0 -7
5 -4 10 3 6 -2 10 -11 10 -10 0 -14 -3 -11 -7z"/>
<path d="M670 1080 c0 -5 7 -7 15 -4 8 4 15 8 15 10 0 2 -7 4 -15 4 -8 0 -15
-4 -15 -10z"/>
<path d="M725 1070 c-3 -5 1 -10 10 -10 9 0 13 5 10 10 -3 6 -8 10 -10 10 -2
0 -7 -4 -10 -10z"/>
<path d="M890 1070 c-13 -8 -12 -10 3 -10 9 0 17 5 17 10 0 12 -1 12 -20 0z"/>
<path d="M980 1064 c0 -8 -4 -13 -9 -9 -5 3 -12 2 -15 -3 -2 -4 12 -9 32 -9
20 -1 31 0 25 3 -7 3 -13 12 -13 20 0 8 -4 14 -10 14 -5 0 -10 -7 -10 -16z"/>
<path d="M518 1053 c7 -3 16 -2 19 1 4 3 -2 6 -13 5 -11 0 -14 -3 -6 -6z"/>
<path d="M503 1022 c0 -12 5 -22 9 -22 11 0 10 12 -2 30 -7 12 -9 10 -7 -8z"/>
<path d="M788 1013 c7 -3 16 -2 19 1 4 3 -2 6 -13 5 -11 0 -14 -3 -6 -6z"/>
<path d="M905 1010 c-8 -13 15 -24 27 -12 6 6 4 11 -6 15 -8 3 -18 2 -21 -3z"/>
<path d="M1160 985 c0 -8 5 -15 11 -15 5 0 7 -4 4 -10 -3 -5 0 -10 7 -10 7 0
24 -3 38 -6 19 -4 17 -1 -10 14 -19 10 -34 24 -32 30 1 7 -2 12 -8 12 -5 0
-10 -7 -10 -15z"/>
<path d="M495 980 c-3 -5 -3 -10 2 -10 4 0 1 -5 -7 -11 -12 -8 -12 -10 -1 -7
8 2 15 12 17 21 3 19 -2 22 -11 7z"/>
<path d="M530 980 c-8 -5 -12 -12 -9 -15 4 -3 12 1 19 10 14 17 11 19 -10 5z"/>
<path d="M1258 982 c-20 -4 -24 -17 -8 -27 6 -3 10 -15 10 -26 0 -10 6 -19 13
-19 8 0 12 13 12 35 -2 40 -4 43 -27 37z"/>
<path d="M923 955 c4 -8 -5 -23 -21 -35 -26 -20 -26 -21 -2 -8 14 7 28 11 32
10 4 -1 7 9 6 23 -1 14 -6 25 -11 25 -5 0 -7 -7 -4 -15z"/>
<path d="M890 950 c0 -5 5 -10 10 -10 6 0 10 5 10 10 0 6 -4 10 -10 10 -5 0
-10 -4 -10 -10z"/>
<path d="M520 940 c0 -5 7 -10 16 -10 8 0 12 5 9 10 -3 6 -10 10 -16 10 -5 0
-9 -4 -9 -10z"/>
<path d="M760 925 c0 -14 5 -25 10 -25 6 0 10 6 10 14 0 8 5 18 12 22 7 4 8 3
4 -4 -4 -7 -3 -12 2 -12 6 0 12 7 16 15 4 11 -2 15 -24 15 -25 0 -30 -4 -30
-25z"/>
<path d="M1044 935 c-3 -8 -3 -19 1 -25 3 -5 -1 -10 -10 -10 -9 0 -14 4 -11 8
2 4 0 14 -6 22 -8 12 -9 12 -4 -2 7 -25 -12 -33 -33 -14 -15 13 -18 14 -18 2
0 -21 96 -44 107 -25 5 7 26 13 48 13 35 1 39 3 31 19 -11 19 -49 23 -49 5 -1
-8 -6 -6 -14 5 -16 21 -35 22 -42 2z"/>
<path d="M440 929 c0 -5 5 -7 10 -4 6 3 10 8 10 11 0 2 -4 4 -10 4 -5 0 -10
-5 -10 -11z"/>
<path d="M1170 920 c6 -11 12 -20 14 -20 2 0 6 9 9 20 4 15 0 20 -14 20 -17 0
-18 -3 -9 -20z"/>
<path d="M505 920 c-4 -6 3 -10 14 -10 25 0 27 6 6 13 -8 4 -17 2 -20 -3z"/>
<path d="M1370 910 c0 -5 5 -10 11 -10 5 0 7 5 4 10 -3 6 -8 10 -11 10 -2 0
-4 -4 -4 -10z"/>
<path d="M795 900 c-3 -5 1 -10 9 -10 9 0 16 5 16 10 0 6 -4 10 -9 10 -6 0
-13 -4 -16 -10z"/>
<path d="M1090 890 c-9 -6 -10 -10 -3 -10 6 0 15 5 18 10 8 12 4 12 -15 0z"/>
<path d="M747 868 c-3 -12 -2 -29 4 -39 8 -15 6 -17 -7 -12 -14 5 -15 3 -6
-14 13 -23 4 -66 -11 -56 -6 3 -7 1 -3 -5 3 -6 15 -10 26 -9 12 1 16 5 10 12
-12 15 1 33 22 30 11 -2 15 2 11 11 -4 10 0 12 11 8 12 -5 19 0 23 15 7 29 18
27 18 -4 0 -14 -6 -25 -12 -25 -7 0 -13 -4 -13 -10 0 -6 3 -9 8 -8 10 4 53
-28 47 -34 -3 -2 1 -5 9 -5 8 0 11 7 9 18 -3 10 -11 15 -18 13 -25 -10 -26 16
-1 39 14 13 23 27 19 30 -3 4 -2 7 4 7 20 0 21 37 1 49 -17 11 -18 10 -9 -8
15 -28 14 -31 -14 -31 -19 0 -23 4 -19 18 5 13 4 14 -4 3 -5 -7 -15 -10 -21
-7 -6 4 -11 2 -11 -4 0 -6 -4 -8 -10 -5 -5 3 -10 1 -10 -6 0 -9 -3 -9 -14 0
-8 7 -12 21 -9 31 4 13 0 20 -10 20 -8 0 -17 -10 -20 -22z m66 -55 c-7 -2 -19
-2 -25 0 -7 3 -2 5 12 5 14 0 19 -2 13 -5z"/>
<path d="M1125 880 c-3 -6 1 -7 9 -4 18 7 21 14 7 14 -6 0 -13 -4 -16 -10z"/>
<path d="M496 865 c4 -8 8 -15 10 -15 2 0 4 7 4 15 0 8 -4 15 -10 15 -5 0 -7
-7 -4 -15z"/>
<path d="M945 870 c-11 -5 -16 -9 -11 -9 5 -1 3 -8 -4 -16 -17 -21 -20 -65 -4
-65 8 0 11 6 8 15 -4 8 -1 15 6 15 7 0 10 7 6 15 -3 9 3 24 14 35 21 21 17 24
-15 10z"/>
<path d="M1000 870 c0 -5 5 -10 10 -10 6 0 10 5 10 10 0 6 -4 10 -10 10 -5 0
-10 -4 -10 -10z"/>
<path d="M975 839 c-7 -10 12 -22 24 -14 5 3 12 1 16 -5 3 -5 -3 -10 -15 -10
-12 0 -19 -4 -16 -8 3 -4 21 -6 42 -4 22 3 31 7 24 12 -18 11 -1 33 21 27 11
-3 19 -2 19 3 0 10 -109 9 -115 -1z"/>
<path d="M1286 811 c-4 -7 -5 -15 -2 -18 9 -9 19 4 14 18 -4 11 -6 11 -12 0z"/>
<path d="M1226 802 c-3 -5 1 -9 9 -9 8 0 12 4 9 9 -3 4 -7 8 -9 8 -2 0 -6 -4
-9 -8z"/>
<path d="M1315 801 c3 -6 -2 -14 -10 -19 -18 -10 -9 -46 10 -38 8 3 10 -4 7
-22 -4 -26 -4 -26 11 -7 15 19 13 45 -4 45 -5 0 -9 4 -9 9 0 6 15 8 33 7 17
-2 22 -1 9 1 -13 2 -26 11 -29 19 -3 8 -9 14 -15 14 -5 0 -7 -4 -3 -9z"/>
<path d="M1085 789 l-20 -8 20 -2 c64 -7 73 -6 67 9 -4 11 -7 12 -10 4 -4 -14
-29 -16 -34 -3 -1 4 -12 5 -23 0z"/>
<path d="M1183 789 c9 -6 14 -15 11 -21 -4 -7 -2 -8 4 -4 16 9 3 36 -17 36
-14 -1 -14 -2 2 -11z"/>
<path d="M420 786 c0 -2 7 -7 16 -10 8 -3 12 -2 9 4 -6 10 -25 14 -25 6z"/>
<path d="M684 772 c-17 -9 -29 -23 -27 -30 4 -9 -2 -11 -20 -7 -20 5 -27 2
-32 -14 -4 -12 -12 -18 -21 -14 -7 3 -14 0 -14 -6 0 -6 12 -11 26 -11 14 0 23
-4 19 -10 -3 -5 15 1 39 13 44 21 45 22 29 46 -13 20 -13 23 -1 19 8 -4 20 2
26 13 14 23 15 23 -24 1z m-49 -62 c3 -5 1 -10 -4 -10 -6 0 -11 5 -11 10 0 6
2 10 4 10 3 0 8 -4 11 -10z"/>
<path d="M499 757 c5 -5 17 -5 28 2 16 9 15 10 -9 9 -16 -2 -24 -6 -19 -11z"/>
<path d="M925 760 c-19 -7 -19 -7 2 -14 25 -8 43 -1 43 17 0 8 -3 7 -9 -2 -5
-7 -10 -9 -12 -3 -2 5 -13 6 -24 2z"/>
<path d="M1049 757 c4 -4 18 -3 32 2 23 9 22 9 -8 8 -18 -1 -28 -6 -24 -10z"/>
<path d="M785 750 c-3 -5 -1 -10 4 -10 6 0 11 5 11 10 0 6 -2 10 -4 10 -3 0
-8 -4 -11 -10z"/>
<path d="M1397 748 c4 -7 8 -17 8 -23 0 -5 9 -11 19 -13 18 -4 19 -3 3 13 -10
9 -15 21 -12 26 4 5 -1 9 -10 9 -11 0 -13 -4 -8 -12z"/>
<path d="M1042 734 c10 -10 20 -16 22 -13 3 3 -5 11 -17 18 -21 13 -21 12 -5
-5z"/>
<path d="M460 729 c0 -5 7 -9 15 -9 9 0 12 -6 8 -16 -4 -12 0 -14 23 -8 16 4
30 7 31 8 1 1 -16 9 -38 18 -21 9 -39 12 -39 7z"/>
<path d="M837 733 c-12 -11 -8 -23 9 -23 8 0 12 -4 9 -10 -3 -5 -1 -10 4 -10
16 0 13 20 -4 26 -8 4 -12 10 -9 15 6 11 0 12 -9 2z"/>
<path d="M1262 728 c-9 -9 -7 -14 5 -24 21 -15 43 -7 42 15 0 9 -3 11 -5 4 -3
-7 -12 -9 -20 -6 -7 3 -11 9 -8 14 7 13 0 11 -14 -3z"/>
<path d="M777 710 c-9 -11 -17 -25 -17 -30 0 -6 -5 -10 -11 -10 -6 0 -9 6 -6
13 3 8 -5 13 -22 14 -14 1 -20 -1 -13 -4 18 -7 34 -40 19 -40 -7 0 -23 -3 -36
-7 -14 -5 -21 -4 -18 1 4 5 0 10 -8 10 -15 0 -16 -18 -2 -28 5 -4 -3 -9 -17
-11 -22 -4 -27 0 -36 28 -8 23 -18 34 -30 34 -14 0 -18 -5 -14 -17 5 -15 3
-15 -10 1 -15 18 -21 15 -16 -9 1 -5 -7 -2 -18 8 -18 16 -42 23 -42 11 0 -5
20 -45 26 -53 2 -2 10 4 19 13 20 20 65 14 82 -11 18 -24 16 -33 -7 -33 -12 0
-20 7 -20 16 0 13 -3 14 -15 4 -8 -7 -22 -10 -30 -6 -25 9 -17 -3 13 -17 15
-8 43 -12 63 -10 22 3 40 0 44 -7 10 -17 47 30 41 53 -3 12 0 17 9 14 7 -3 23
2 36 10 12 9 19 12 16 6 -4 -6 2 -13 13 -16 11 -3 18 -1 15 3 -3 5 3 14 14 19
22 12 37 43 16 35 -7 -3 -16 -12 -19 -20 -3 -8 -10 -14 -16 -14 -6 0 -5 13 4
35 17 41 17 42 -7 15z m-113 -115 c-4 -8 -10 -12 -15 -9 -14 8 -10 24 6 24 9
0 12 -6 9 -15z"/>
<path d="M1000 694 c0 -8 5 -12 10 -9 6 3 10 10 10 16 0 5 -4 9 -10 9 -5 0
-10 -7 -10 -16z"/>
<path d="M1056 692 c-3 -5 1 -9 9 -9 8 0 12 4 9 9 -3 4 -7 8 -9 8 -2 0 -6 -4
-9 -8z"/>
<path d="M1340 691 c0 -5 7 -12 16 -15 14 -5 15 -4 4 9 -14 17 -20 19 -20 6z"/>
<path d="M650 679 c0 -6 9 -9 20 -6 11 3 23 1 26 -4 3 -5 11 -9 17 -9 19 1
-25 30 -45 30 -10 0 -18 -5 -18 -11z"/>
<path d="M825 670 c-4 -6 -1 -18 6 -26 12 -14 15 -14 29 3 9 11 22 22 30 26
12 4 12 6 -2 6 -9 1 -20 -3 -23 -9 -3 -5 -11 -10 -16 -10 -6 0 -7 5 -4 10 3 6
2 10 -4 10 -5 0 -13 -5 -16 -10z"/>
<path d="M620 650 c0 -5 5 -10 11 -10 5 0 7 5 4 10 -3 6 -8 10 -11 10 -2 0 -4
-4 -4 -10z"/>
<path d="M1170 640 c0 -5 5 -10 10 -10 6 0 10 5 10 10 0 6 -4 10 -10 10 -5 0
-10 -4 -10 -10z"/>
<path d="M1308 643 c10 -4 10 -8 1 -19 -7 -8 -9 -17 -5 -21 3 -3 6 -1 6 5 0 7
6 12 14 12 8 0 18 5 22 12 4 6 3 8 -4 4 -6 -3 -13 -2 -17 4 -3 5 -12 10 -18 9
-8 0 -8 -2 1 -6z"/>
<path d="M900 610 c-7 -17 -10 -33 -7 -36 3 -3 8 4 12 15 3 12 13 22 21 22 8
1 20 2 27 3 6 1 18 -2 25 -7 17 -13 15 -1 -4 18 -13 12 -19 13 -31 3 -11 -9
-16 -9 -22 1 -6 8 -12 3 -21 -19z"/>
<path d="M1015 631 c-3 -5 -1 -12 5 -16 5 -3 10 1 10 9 0 18 -6 21 -15 7z"/>
<path d="M865 620 c3 -5 8 -10 11 -10 2 0 4 5 4 10 0 6 -5 10 -11 10 -5 0 -7
-4 -4 -10z"/>
<path d="M1370 620 c0 -5 7 -7 15 -4 8 4 15 8 15 10 0 2 -7 4 -15 4 -8 0 -15
-4 -15 -10z"/>
<path d="M500 601 c0 -6 4 -13 10 -16 6 -3 7 1 4 9 -7 18 -14 21 -14 7z"/>
<path d="M1210 600 c0 -5 5 -10 10 -10 6 0 10 5 10 10 0 6 -4 10 -10 10 -5 0
-10 -4 -10 -10z"/>
<path d="M785 580 c4 -6 11 -8 16 -5 14 9 11 15 -7 15 -8 0 -12 -5 -9 -10z"/>
<path d="M928 583 c7 -3 16 -2 19 1 4 3 -2 6 -13 5 -11 0 -14 -3 -6 -6z"/>
<path d="M1335 580 c-3 -5 -1 -10 4 -10 6 0 11 5 11 10 0 6 -2 10 -4 10 -3 0
-8 -4 -11 -10z"/>
<path d="M930 561 c0 -6 5 -13 10 -16 6 -3 10 1 10 9 0 9 -4 16 -10 16 -5 0
-10 -4 -10 -9z"/>
<path d="M981 554 c0 -11 3 -14 6 -6 3 7 2 16 -1 19 -3 4 -6 -2 -5 -13z"/>
<path d="M1070 556 c0 -10 6 -13 17 -9 12 5 14 3 8 -7 -5 -9 -4 -11 3 -6 16
10 15 14 -8 26 -16 8 -20 8 -20 -4z"/>
<path d="M1230 560 c-9 -6 -10 -10 -3 -10 6 0 15 5 18 10 8 12 4 12 -15 0z"/>
<path d="M825 550 c3 -4 14 -10 25 -13 11 -3 18 -2 15 3 -3 4 -14 10 -25 13
-11 3 -18 2 -15 -3z"/>
<path d="M890 550 c0 -20 5 -25 20 -22 11 2 11 0 -2 -8 -20 -12 -24 -40 -6
-40 9 0 9 -3 0 -12 -15 -15 -16 -28 -2 -28 6 0 10 7 10 16 0 9 5 12 13 8 8 -6
8 -3 -1 9 -8 9 -11 21 -7 28 6 8 10 7 17 -2 7 -11 8 -9 4 4 -3 10 -6 22 -6 25
0 4 -9 13 -20 20 -12 7 -20 8 -20 2z"/>
<path d="M1320 550 c-12 -8 -11 -10 8 -10 12 0 22 5 22 10 0 13 -11 13 -30 0z"/>
<path d="M564 519 c-8 -14 18 -31 30 -19 9 9 0 30 -14 30 -5 0 -12 -5 -16 -11z"/>
<path d="M967 524 c-3 -3 -3 -12 0 -20 3 -8 -2 -21 -12 -28 -17 -12 -17 -13 3
-18 15 -4 20 -1 20 11 -1 9 2 26 6 39 7 20 -3 30 -17 16z"/>
<path d="M1268 513 c7 -3 16 -2 19 1 4 3 -2 6 -13 5 -11 0 -14 -3 -6 -6z"/>
<path d="M717 488 c2 -13 7 -30 10 -38 4 -8 6 -18 5 -22 -1 -4 5 -5 13 -2 8 4
15 12 15 19 0 7 9 15 20 18 11 3 20 1 20 -5 0 -6 8 -7 18 -3 9 4 23 8 30 8 6
0 12 3 12 7 0 4 -17 6 -37 5 -21 -1 -44 3 -50 8 -7 5 -13 7 -13 3 0 -4 -11 1
-24 9 -24 16 -24 16 -19 -7z"/>
<path d="M1132 498 c-20 -20 -14 -30 11 -16 12 7 26 11 30 10 5 -1 6 2 2 8 -8
14 -28 13 -43 -2z"/>
<path d="M1048 463 c22 -9 13 -25 -10 -18 -19 5 -20 4 -6 -5 20 -12 45 -4 45
15 0 9 -9 15 -21 14 -12 0 -15 -3 -8 -6z"/>
<path d="M1290 460 c0 -5 5 -10 11 -10 5 0 7 5 4 10 -3 6 -8 10 -11 10 -2 0
-4 -4 -4 -10z"/>
<path d="M800 441 c-17 -5 -25 -14 -25 -28 0 -12 -5 -26 -9 -30 -5 -4 -6 -2
-2 5 5 7 1 12 -10 12 -13 0 -14 -3 -4 -14 6 -8 19 -12 27 -9 11 4 14 2 9 -5
-5 -8 -1 -10 10 -5 11 4 15 3 10 -5 -4 -7 1 -10 14 -9 11 1 20 3 20 4 0 9 -39
40 -44 36 -3 -4 -6 -1 -6 6 0 7 9 9 28 5 34 -9 41 -14 16 -14 -18 -1 -18 -1
-1 -11 9 -5 17 -17 17 -24 0 -16 3 -16 62 -20 27 -2 35 1 31 11 -3 8 2 14 11
14 9 0 16 -7 16 -15 0 -8 4 -15 9 -15 5 0 7 9 4 20 -3 11 -10 20 -17 20 -6 0
-4 5 4 10 9 6 11 10 3 10 -19 0 -3 31 21 40 19 8 18 9 -7 9 -16 1 -26 -3 -22
-9 3 -5 1 -10 -5 -10 -6 0 -8 -5 -5 -10 7 -12 -34 -30 -53 -22 -7 2 -11 10 -9
16 3 7 -2 20 -9 31 -14 19 -15 19 -30 -4 -13 -18 -18 -20 -25 -10 -5 9 -2 16
9 21 23 9 -4 8 -38 -1z m130 -81 c0 -4 -9 -10 -20 -13 -11 -3 -18 -1 -14 4 3
5 0 9 -5 9 -6 0 -11 4 -11 9 0 4 11 6 25 3 14 -2 25 -8 25 -12z"/>
<path d="M925 440 c-3 -6 1 -7 9 -4 18 7 21 14 7 14 -6 0 -13 -4 -16 -10z"/>
<path d="M705 431 c-3 -5 -1 -12 5 -16 5 -3 10 1 10 9 0 18 -6 21 -15 7z"/>
</g>
</svg>
