<?xml version="1.0" standalone="no"?>
<!DOCTYPE svg PUBLIC "-//W3C//DTD SVG 20010904//EN"
 "http://www.w3.org/TR/2001/REC-SVG-20010904/DTD/svg10.dtd">
<svg version="1.0" xmlns="http://www.w3.org/2000/svg"
 width="531.000000pt" height="429.000000pt" viewBox="0 0 531.000000 429.000000"
 preserveAspectRatio="xMidYMid meet">
<metadata>
Created by potrace 1.16, written by Peter Selinger 2001-2019
</metadata>
<g transform="translate(0.000000,429.000000) scale(0.100000,-0.100000)"
fill="#000000" stroke="none">
<path d="M3280 3930 c-19 -5 -72 -11 -116 -14 -45 -3 -92 -7 -105 -10 -13 -3
-37 -7 -54 -10 -16 -2 -70 -23 -119 -46 -76 -35 -103 -55 -181 -133 -101 -101
-129 -145 -139 -225 -4 -29 -11 -64 -16 -77 -9 -23 -13 -24 -62 -19 -110 11
-161 10 -206 -5 -81 -26 -196 -87 -248 -131 -198 -168 -207 -177 -233 -227
-11 -23 -29 -48 -39 -55 -22 -15 -83 -133 -75 -142 4 -3 1 -6 -6 -6 -7 0 -11
-6 -8 -12 2 -7 1 -23 -4 -34 -4 -12 -5 -25 -1 -29 4 -4 8 -28 9 -53 3 -92 24
-178 62 -254 29 -57 36 -79 27 -88 -6 -6 -11 -14 -11 -18 -1 -15 -30 -72 -37
-72 -5 0 -8 -6 -8 -13 0 -8 -9 -24 -20 -37 -11 -13 -20 -29 -20 -37 0 -7 -4
-13 -9 -13 -5 0 -14 -14 -21 -31 -7 -17 -18 -36 -24 -42 -16 -17 -86 -116 -86
-122 0 -3 -16 -28 -35 -55 -19 -27 -35 -52 -35 -55 0 -9 -54 -89 -78 -115 -12
-14 -25 -34 -28 -44 -4 -11 -11 -24 -16 -30 -5 -6 -27 -42 -50 -81 -23 -38
-45 -71 -50 -73 -4 -2 -8 -9 -8 -16 0 -7 -18 -38 -40 -70 -22 -31 -40 -59 -40
-61 0 -2 -23 -36 -50 -76 -28 -40 -50 -77 -50 -82 0 -5 -19 -29 -42 -53 -24
-25 -59 -74 -78 -109 -19 -35 -51 -87 -72 -117 -20 -29 -50 -80 -68 -113 -17
-33 -40 -73 -50 -90 -11 -16 -31 -51 -45 -77 -14 -27 -30 -48 -35 -48 -6 0
-10 -7 -10 -16 0 -9 -8 -28 -18 -42 -10 -15 -27 -46 -37 -69 -11 -24 -23 -43
-27 -43 -5 0 -8 -8 -8 -17 -1 -10 -9 -36 -20 -58 -11 -22 -19 -53 -20 -70 0
-16 -5 -47 -11 -68 -9 -34 -8 -43 13 -73 13 -19 43 -48 68 -65 43 -29 49 -30
120 -24 41 3 89 7 105 8 17 1 39 10 50 20 23 21 91 53 152 72 23 7 54 22 69
34 15 11 35 21 45 21 10 0 33 13 51 29 18 15 49 36 68 46 19 10 49 29 66 41
17 13 35 24 41 24 5 0 18 9 28 20 10 11 24 20 31 20 7 0 32 15 57 34 24 19 55
40 68 47 13 6 29 17 36 23 30 27 43 36 49 36 3 0 18 8 32 19 15 10 54 33 87
51 33 18 69 38 80 44 10 6 25 17 33 23 7 7 20 13 28 13 8 0 14 4 14 10 0 5 19
20 41 32 51 28 52 29 164 103 50 33 104 67 120 75 17 8 67 38 112 67 45 29 86
53 91 53 6 0 12 6 15 13 2 7 30 26 62 42 31 17 67 39 80 50 25 23 53 42 75 52
8 4 20 11 25 15 38 30 132 85 218 128 56 27 118 59 138 71 34 20 39 21 67 6
43 -21 231 -12 282 13 19 9 58 23 86 29 29 7 60 20 71 29 33 29 102 82 107 82
3 0 29 25 58 56 29 30 78 81 109 114 48 50 60 70 87 151 17 52 33 125 36 164
3 38 10 71 16 73 8 3 8 8 0 17 -8 10 0 19 36 39 26 14 48 26 51 26 19 0 168
84 184 104 11 13 28 28 38 31 11 3 37 30 60 59 22 30 52 67 66 82 14 15 25 30
25 35 0 4 11 20 24 36 21 25 33 57 82 228 21 73 18 208 -7 275 -11 30 -28 83
-38 117 -21 73 -48 111 -150 214 -76 75 -151 134 -311 244 -47 33 -91 65 -98
72 -7 7 -18 13 -23 13 -5 0 -9 9 -9 19 0 23 -65 77 -135 113 -141 72 -367 113
-475 88z m187 -75 c43 -8 89 -19 103 -24 14 -5 50 -17 82 -27 80 -25 148 -76
148 -112 0 -15 4 -32 8 -38 9 -13 92 -66 92 -59 0 7 173 -111 250 -170 156
-120 260 -242 260 -308 0 -10 12 -46 26 -80 24 -56 26 -71 22 -157 -9 -172
-81 -331 -210 -460 -57 -58 -90 -80 -185 -127 l-116 -58 -116 0 c-96 0 -127 4
-179 22 -60 22 -123 59 -131 76 -2 5 -15 21 -30 36 -14 15 -35 54 -45 86 -30
95 -53 138 -93 177 -40 38 -115 68 -170 68 -18 0 -33 5 -33 12 0 6 -3 8 -7 5
-8 -9 -63 42 -63 59 0 6 -6 17 -14 23 -8 7 -17 25 -21 40 -11 51 -106 135
-173 153 -20 6 -59 21 -86 34 -27 13 -59 24 -71 24 -25 0 -45 15 -73 55 -18
28 -24 48 -36 125 -2 14 2 46 9 72 6 26 8 52 5 59 -4 6 -1 39 7 73 8 33 17 75
20 91 2 17 11 41 20 55 16 27 123 130 136 130 4 0 7 6 7 13 0 14 60 47 144 79
86 33 108 37 211 42 55 3 114 10 130 15 44 14 84 13 172 -4z m-1005 -547 l78
-12 1 -46 c2 -47 3 -59 15 -125 14 -76 91 -155 152 -155 11 0 42 -11 69 -24
26 -13 64 -31 85 -41 32 -14 128 -95 113 -95 -16 0 45 -91 91 -137 39 -38 64
-54 91 -58 124 -20 171 -48 188 -115 19 -77 89 -220 107 -220 5 0 25 -15 45
-33 75 -66 128 -88 235 -94 54 -3 106 -11 115 -18 25 -19 26 -124 1 -204 -19
-61 -25 -85 -27 -103 -1 -4 -12 -17 -25 -30 -13 -13 -59 -57 -102 -99 -98 -96
-168 -149 -194 -149 -11 0 -20 -4 -20 -10 0 -5 -7 -10 -15 -10 -9 0 -37 -11
-63 -24 -42 -21 -59 -24 -151 -22 -93 2 -106 5 -122 24 -9 12 -22 22 -27 22
-5 0 -15 12 -21 28 -14 32 -82 107 -114 123 -12 7 -42 29 -67 49 -25 21 -63
43 -85 50 -22 7 -47 15 -55 18 -8 3 -22 4 -31 3 -9 -1 -19 7 -22 19 -3 14 -14
21 -34 22 -54 3 -78 5 -89 6 -36 6 -134 135 -134 176 0 8 -7 27 -15 42 -8 16
-12 36 -10 45 7 21 -33 72 -51 65 -7 -3 -35 15 -61 40 -30 28 -66 50 -97 59
-27 8 -54 19 -60 24 -10 7 -43 16 -111 28 -41 7 -116 38 -135 55 -11 10 -23
18 -27 18 -5 0 -21 12 -36 26 -28 26 -43 54 -51 97 -2 12 -9 34 -15 50 -6 15
-8 27 -5 27 3 0 2 5 -2 11 -8 13 -7 97 2 189 6 67 32 137 58 159 8 7 26 32 40
56 14 23 40 55 58 69 36 29 109 90 142 120 33 28 174 97 220 106 60 12 82 11
168 -2z m-445 -1062 c1 -1 3 -23 5 -49 2 -26 7 -47 12 -47 5 0 7 -3 3 -6 -3
-4 -30 -8 -59 -10 -29 -2 -65 -6 -80 -7 -47 -7 -56 8 -32 50 12 21 28 38 35
38 17 0 39 20 39 35 0 9 11 10 38 5 20 -4 38 -8 39 -9z m210 -66 c46 -19 35
-30 -30 -30 -61 0 -65 1 -71 25 -10 39 1 47 42 29 20 -9 47 -20 59 -24z m79
-127 c4 -16 12 -31 18 -35 23 -15 -12 -26 -94 -30 l-85 -3 -3 42 -3 42 73 4
c40 1 76 4 80 5 4 1 11 -10 14 -25z m-240 -17 c14 -56 6 -61 -94 -64 -85 -3
-93 -1 -90 15 1 10 -1 23 -5 30 -10 16 5 24 61 30 26 2 49 7 51 9 2 2 19 4 37
4 27 0 35 -5 40 -24z m-262 -53 c6 -29 4 -31 -32 -36 -20 -3 -48 -9 -62 -13
l-25 -8 19 30 c11 16 33 41 50 56 34 30 41 25 50 -29z m554 -77 c3 -4 7 -12 8
-19 1 -7 6 -27 9 -44 4 -18 6 -33 4 -34 -30 -7 -209 -24 -210 -19 0 3 -3 32
-5 65 l-5 60 96 -1 c53 -1 99 -5 103 -8z m-268 -28 c0 -13 3 -39 6 -59 l6 -36
-91 -7 c-50 -4 -94 -8 -98 -9 -4 -1 -9 14 -10 33 -1 19 -5 47 -7 62 -7 34 0
36 107 37 84 1 87 0 87 -21z m-257 -55 c3 -27 2 -51 -1 -54 -4 -4 -32 -10 -63
-13 l-56 -7 -12 45 c-6 25 -11 46 -11 48 0 2 14 5 31 6 18 1 39 7 48 12 9 5
26 10 37 10 18 0 22 -7 27 -47z m-213 -48 c17 -21 3 -35 -36 -35 -38 0 -41 5
-17 32 20 22 36 23 53 3z m1049 -46 c26 -9 31 -16 31 -44 0 -31 -1 -33 -52
-40 -29 -5 -74 -9 -100 -10 -46 -2 -48 -1 -60 34 -14 41 -16 53 -11 64 6 11
156 8 192 -4z m-282 -6 c11 -4 33 -62 33 -89 0 -9 -89 -28 -182 -39 -34 -4
-38 -2 -38 19 0 13 -6 42 -14 64 l-15 41 32 3 c55 6 170 6 184 1z m-268 -47
c25 -82 24 -86 -11 -87 -18 0 -44 -2 -58 -4 -70 -12 -88 -13 -97 -7 -15 11
-37 102 -27 112 12 11 57 18 126 17 55 0 58 -1 67 -31z m-264 0 c2 -6 6 -29 9
-52 5 -40 4 -41 -32 -53 -20 -7 -53 -13 -72 -14 l-35 -2 0 45 c-1 68 4 78 39
82 58 7 88 5 91 -6z m980 -6 c3 -4 -9 -10 -25 -12 -27 -4 -40 9 -24 24 7 7 43
-2 49 -12z m-1182 -17 c3 -5 8 -27 11 -49 7 -41 7 -41 -31 -51 -50 -12 -153
-17 -154 -6 0 4 -3 19 -6 33 -14 64 -13 65 56 67 35 1 66 4 69 7 8 9 50 7 55
-1z m1287 -64 c0 -6 -9 -24 -21 -40 -17 -25 -27 -29 -65 -29 -42 0 -44 1 -44
30 0 27 3 30 33 31 17 1 43 5 57 9 36 11 40 11 40 -1z m-212 -25 c6 -2 12 -12
12 -23 0 -24 -41 -37 -145 -47 -65 -6 -71 -5 -71 12 0 11 -4 29 -8 41 -7 21
-5 22 71 25 74 3 112 1 141 -8z m-283 -43 c9 -34 -3 -41 -81 -45 -38 -2 -86
-7 -106 -11 -38 -7 -38 -7 -38 27 l0 35 73 9 c122 15 145 13 152 -15z m-291
-32 c3 -18 4 -35 0 -38 -3 -3 -46 -6 -96 -6 l-92 0 -3 32 c-4 35 -7 35 123 41
l61 3 7 -32z m-259 -15 c3 -20 5 -38 2 -40 -6 -6 -108 -24 -138 -24 -27 0 -29
3 -29 40 l0 40 48 1 c26 1 58 5 72 9 14 4 28 8 31 9 4 1 10 -15 14 -35z m-225
-33 l0 -38 -81 -10 c-44 -5 -82 -6 -83 -3 -2 3 -7 20 -11 38 -6 30 -5 32 22
33 53 0 115 7 121 13 17 18 32 3 32 -33z m-246 -14 c10 -36 7 -43 -19 -55 -31
-14 -115 -16 -115 -2 0 5 15 25 34 43 41 41 91 48 100 14z m1311 -12 c-16 -13
-52 -35 -78 -49 -42 -22 -50 -24 -63 -12 -8 8 -23 18 -34 21 -28 9 -26 43 3
50 20 4 63 8 167 13 l35 2 -30 -25z m-261 -13 c2 -9 7 -38 11 -64 5 -42 4 -48
-12 -49 -10 0 -54 -4 -98 -9 -44 -6 -91 -11 -105 -12 -25 -3 -25 -2 -25 67 l0
69 45 4 c25 2 50 4 55 6 6 2 36 4 67 4 46 1 58 -2 62 -16z m-303 -59 c1 -21 2
-51 3 -67 l1 -30 -78 -2 c-42 -2 -81 -6 -87 -9 -13 -8 -21 10 -26 67 -3 28 -5
54 -6 57 0 3 0 8 1 11 0 3 44 7 96 8 l95 3 1 -38z m-257 -29 c11 -86 15 -82
-69 -86 -74 -3 -76 -2 -81 22 -3 14 -10 40 -14 58 -10 39 -11 39 136 50 18 2
22 -5 28 -44z m-228 -9 c3 -13 7 -39 7 -56 2 -30 -1 -33 -38 -41 -22 -5 -62
-7 -90 -6 l-50 3 -5 53 c-6 60 -7 59 85 65 28 2 58 4 67 5 11 1 20 -7 24 -23z
m-237 -53 l1 -49 -37 -7 c-21 -3 -66 -6 -100 -6 l-63 0 0 39 c0 43 -1 42 117
59 29 5 55 11 59 15 14 13 21 -3 23 -51z m961 -47 c0 -12 -111 -74 -124 -69
-13 5 -29 44 -22 52 2 2 21 5 42 8 21 3 40 7 43 9 6 6 61 6 61 0z m-254 -35
c29 0 34 -4 42 -32 5 -18 8 -34 8 -35 -5 -7 -186 -11 -186 -4 0 5 -3 22 -6 39
-6 30 -5 31 37 35 24 2 50 2 57 0 8 -2 29 -3 48 -3z m-263 -16 c39 -6 46 -10
50 -33 3 -14 2 -29 -2 -33 -4 -5 -42 -11 -84 -14 l-77 -7 0 47 c0 46 0 46 34
46 18 0 54 -3 79 -6z m-185 -51 c-3 -37 -4 -38 -58 -50 -30 -7 -66 -12 -80
-10 -21 2 -25 8 -28 44 l-3 42 48 3 c26 2 65 4 86 5 l38 3 -3 -37z m-242 -1
c4 -9 7 -28 8 -41 1 -27 8 -25 -136 -34 l-76 -5 -4 43 -3 44 50 3 c142 8 153
8 161 -10z m-284 -15 c4 -7 8 -24 8 -38 0 -24 -5 -27 -46 -33 -25 -3 -50 -3
-55 0 -5 3 -9 0 -9 -6 0 -6 -4 -9 -9 -6 -5 3 0 25 11 48 17 38 24 43 56 45 20
1 40 -3 44 -10z m928 -82 c-7 -8 -19 -15 -26 -15 -8 0 -14 7 -14 15 0 10 10
15 26 15 22 0 25 -2 14 -15z m-145 -15 c-3 -5 0 -21 5 -36 10 -24 8 -30 -12
-45 -13 -11 -46 -19 -81 -21 l-58 -3 -14 49 c-8 27 -15 53 -15 57 0 9 132 17
162 10 10 -2 16 -7 13 -11z m-241 -16 c3 -9 6 -33 6 -54 0 -39 0 -39 -52 -49
-29 -6 -71 -11 -93 -13 l-40 -2 3 54 c2 30 4 55 5 56 1 1 34 5 72 9 39 4 72 9
74 11 9 8 19 3 25 -12z m-258 -26 c4 -6 8 -30 9 -54 l1 -43 -61 -10 c-34 -6
-78 -11 -98 -11 -36 0 -36 0 -43 50 -4 27 -6 53 -5 57 0 5 40 11 88 14 49 3
91 6 95 7 4 1 10 -3 14 -10z m-270 -33 c-3 -8 2 -31 10 -51 8 -20 14 -38 12
-39 -2 -2 -38 -7 -81 -11 -62 -5 -77 -4 -78 7 0 8 -2 30 -5 49 -6 57 -2 60 77
60 59 0 70 -3 65 -15z m-220 -87 c-1 -26 -6 -34 -23 -36 -13 -2 -23 0 -23 3 0
7 39 65 44 65 2 0 3 -15 2 -32z m778 -43 c3 -8 1 -15 -5 -15 -5 0 -15 -5 -22
-11 -11 -10 -49 -34 -108 -71 l-27 -17 8 28 c6 22 4 32 -11 45 -33 28 -24 45
29 49 110 8 130 7 136 -8z m-262 -32 c5 -59 6 -57 -62 -70 -96 -18 -130 -17
-131 5 -5 71 -8 67 50 69 30 2 57 5 59 8 3 3 23 5 44 5 29 0 38 -4 40 -17z
m-266 -43 c-1 -19 -6 -30 -16 -31 -8 0 -45 -2 -82 -4 l-68 -4 0 29 c0 31 1 32
116 38 l51 3 -1 -31z m-238 -27 c3 -22 -16 -30 -88 -34 -50 -4 -57 0 -53 26 5
21 11 24 57 28 75 5 81 4 84 -20z m492 -83 c0 -11 -130 -71 -140 -65 -14 9
-13 62 3 68 16 6 137 3 137 -3z m-247 -15 c0 -5 3 -18 8 -27 5 -10 8 -18 7
-18 -2 0 -41 -7 -88 -14 -47 -8 -88 -12 -92 -9 -10 5 -10 67 -1 77 11 11 168
2 166 -9z m-242 -12 c7 -42 2 -58 -16 -59 -11 -1 -47 -3 -80 -5 -49 -3 -60 -1
-63 12 -4 21 66 49 146 58 6 0 13 -2 13 -6z m209 -130 c0 -8 -111 -55 -117
-49 -4 3 -1 17 5 30 8 17 17 23 31 19 10 -3 27 0 37 5 16 9 44 6 44 -5z m-197
-45 c7 -50 1 -64 -20 -47 -8 7 -38 12 -67 11 -48 -1 -54 1 -65 24 -21 46 -14
50 90 53 l56 1 6 -42z m-235 -33 c-2 -1 -29 -6 -62 -10 -43 -5 -56 -4 -51 5
12 20 57 32 67 18 6 -10 8 -9 8 4 0 24 34 28 38 5 2 -10 2 -20 0 -22z m10
-112 c-3 -24 -8 -28 -40 -31 -36 -3 -88 20 -88 39 0 4 24 10 53 12 28 2 58 4
65 5 9 1 12 -7 10 -25z"/>
</g>
</svg>
