<?xml version="1.0" standalone="no"?>
<!DOCTYPE svg PUBLIC "-//W3C//DTD SVG 20010904//EN"
 "http://www.w3.org/TR/2001/REC-SVG-20010904/DTD/svg10.dtd">
<svg version="1.0" xmlns="http://www.w3.org/2000/svg"
 width="523.000000pt" height="419.000000pt" viewBox="0 0 523.000000 419.000000"
 preserveAspectRatio="xMidYMid meet">
<metadata>
Created by potrace 1.16, written by Peter Selinger 2001-2019
</metadata>
<g transform="translate(0.000000,419.000000) scale(0.100000,-0.100000)"
fill="#000000" stroke="none">
<path d="M3517 4004 c-1 -2 -64 -4 -139 -5 -133 -1 -246 -21 -313 -56 -11 -5
-51 -25 -89 -44 -64 -32 -117 -74 -235 -190 -52 -51 -131 -153 -131 -169 0 -5
-4 -10 -9 -10 -10 0 -52 -100 -71 -170 -15 -53 -20 -222 -8 -265 4 -16 11 -50
14 -75 4 -34 20 -64 60 -117 30 -40 61 -73 69 -73 8 0 18 -6 22 -14 13 -23 84
-76 94 -70 9 5 89 -34 100 -50 4 -4 8 -3 10 3 3 8 21 3 54 -14 28 -14 56 -23
62 -20 7 2 32 -3 55 -11 24 -9 80 -26 126 -40 95 -28 142 -50 225 -106 31 -21
57 -35 57 -31 0 4 13 -7 29 -24 16 -18 33 -33 39 -33 5 0 29 -18 52 -40 23
-22 46 -40 50 -40 4 0 13 -7 20 -15 7 -8 16 -12 21 -9 5 3 19 -4 31 -15 12
-12 27 -21 34 -21 7 0 19 -6 26 -13 7 -7 38 -25 68 -40 100 -49 155 -87 222
-149 17 -15 39 -28 49 -28 10 0 19 -5 19 -11 0 -5 -4 -7 -10 -4 -5 3 -10 4
-10 1 0 -3 26 -23 57 -43 32 -21 68 -48 81 -60 20 -20 34 -23 95 -23 40 0 104
5 142 12 39 6 79 12 90 13 27 2 135 53 135 63 0 4 13 15 29 25 53 31 231 280
231 323 0 11 3 24 6 27 8 7 16 70 15 106 -1 13 3 29 8 35 11 13 17 128 8 143
-4 6 -9 55 -12 109 -3 55 -10 101 -16 104 -6 4 -10 9 -9 11 3 6 -23 93 -30 99
-3 3 -11 19 -18 35 -53 121 -236 357 -331 426 -21 15 -54 43 -73 63 -19 20
-40 36 -47 36 -6 0 -11 5 -11 10 0 6 -6 10 -13 10 -8 0 -22 9 -32 20 -10 11
-22 20 -27 20 -4 0 -34 20 -65 44 -32 24 -73 47 -90 51 -18 3 -46 19 -62 33
-27 25 -49 40 -96 66 -11 6 -22 14 -25 17 -3 4 -30 19 -60 34 -30 15 -57 30
-60 34 -21 26 -200 98 -260 104 -14 2 -31 7 -38 11 -12 7 -109 16 -115 10z
m-57 -168 c25 -2 74 -8 110 -11 36 -4 70 -10 75 -13 6 -4 15 -7 20 -8 34 -6
126 -42 191 -75 42 -22 82 -39 90 -39 55 0 373 -188 458 -271 22 -21 53 -45
70 -53 35 -16 166 -159 166 -181 0 -3 31 -50 69 -103 71 -100 111 -168 111
-188 0 -7 6 -14 14 -17 8 -3 20 -41 31 -98 23 -128 14 -262 -25 -339 -15 -30
-33 -73 -40 -95 -7 -22 -47 -82 -89 -132 -65 -79 -86 -97 -146 -127 -78 -39
-167 -66 -215 -66 -36 0 -108 37 -153 80 -18 17 -36 30 -40 30 -5 0 -61 52
-125 115 -64 64 -139 131 -167 150 -27 19 -66 48 -85 66 -19 17 -51 39 -70 49
-19 10 -52 32 -73 49 -52 41 -201 115 -261 130 -27 7 -68 23 -90 36 -23 12
-72 30 -111 39 -38 8 -92 22 -120 31 -27 9 -76 20 -108 25 -65 10 -191 64
-224 96 -46 46 -73 120 -83 227 -9 99 -6 121 20 212 23 76 115 216 176 267 11
9 36 31 55 49 86 81 222 154 310 166 55 8 179 8 259 -1z"/>
<path d="M3525 3686 c-43 -14 -58 -44 -34 -72 16 -20 51 -11 89 23 33 29 38
48 14 57 -19 7 -18 7 -69 -8z"/>
<path d="M3033 3579 c-48 -30 -69 -103 -33 -114 29 -9 57 10 63 44 4 17 14 32
26 36 21 6 35 31 25 46 -9 15 -47 10 -81 -12z"/>
<path d="M3729 3315 c-44 -24 -48 -68 -7 -81 13 -4 27 1 42 15 12 12 28 21 34
21 16 0 15 33 0 48 -16 16 -37 15 -69 -3z"/>
<path d="M3278 3302 c-43 -26 -33 -77 13 -70 20 2 24 9 27 46 3 47 -1 49 -40
24z"/>
<path d="M4167 3219 c-44 -23 -64 -54 -46 -75 15 -18 55 -18 62 1 3 7 23 23
44 34 21 11 32 20 26 21 -7 0 -13 6 -13 14 0 22 -34 25 -73 5z"/>
<path d="M2951 3179 c-45 -32 -45 -32 -31 -60 15 -27 42 -24 79 11 37 36 36
35 12 59 -20 20 -20 19 -60 -10z"/>
<path d="M3451 2950 c-47 -41 -53 -51 -47 -74 10 -39 42 -33 87 15 48 52 53
66 31 89 -16 17 -19 16 -71 -30z"/>
<path d="M4466 2935 c-44 -15 -96 -61 -96 -84 0 -30 17 -44 44 -37 14 3 26 13
26 20 0 8 20 27 45 43 70 44 57 84 -19 58z"/>
<path d="M3913 2846 c-13 -6 -23 -18 -23 -27 0 -19 31 -49 50 -49 12 0 65 50
58 54 -27 20 -54 36 -58 35 -3 -1 -15 -6 -27 -13z"/>
<path d="M4530 2575 c-13 -13 -31 -27 -42 -31 -21 -6 -23 -33 -4 -59 13 -17
15 -17 50 10 30 23 36 33 36 66 0 45 -8 48 -40 14z"/>
<path d="M4183 2522 c-13 -2 -23 -8 -23 -13 0 -5 -6 -9 -14 -9 -18 0 -27 -35
-13 -49 16 -16 53 -13 71 5 28 27 13 71 -21 66z"/>
<path d="M1263 3419 c-13 -4 -41 -10 -64 -13 -51 -6 -104 -23 -147 -48 -115
-64 -266 -198 -325 -286 -53 -81 -95 -149 -111 -182 -25 -49 -56 -140 -56
-163 0 -10 -6 -33 -14 -50 -8 -18 -22 -59 -31 -92 -9 -33 -21 -69 -26 -80 -5
-11 -11 -40 -13 -65 -3 -25 -12 -72 -20 -105 -45 -170 -35 -559 19 -758 25
-94 41 -134 76 -199 5 -10 9 -22 9 -28 0 -11 62 -103 72 -108 5 -2 8 -9 8 -14
0 -6 26 -39 58 -72 31 -34 64 -72 72 -84 8 -12 22 -24 31 -27 9 -3 22 -17 29
-30 7 -14 15 -23 18 -20 2 2 11 -3 19 -11 8 -8 42 -33 74 -55 32 -22 96 -75
141 -118 101 -96 131 -120 183 -148 58 -30 167 -72 190 -73 11 0 36 -2 56 -6
25 -4 40 -1 51 10 15 14 17 14 22 0 4 -12 14 -14 36 -9 16 4 44 8 62 10 78 9
171 33 179 47 4 6 28 13 55 16 27 3 66 15 86 26 35 20 107 83 138 122 24 30
53 101 46 112 -3 6 -1 14 5 18 8 4 9 3 5 -4 -4 -7 -2 -12 5 -12 6 0 9 8 6 20
-3 10 -1 18 5 17 5 -1 18 21 29 48 20 51 25 67 35 120 3 17 9 34 13 38 5 5 7
24 4 43 -3 18 1 50 7 69 6 20 14 68 16 107 4 70 3 73 -53 187 -83 170 -105
196 -421 490 -57 52 -87 89 -105 130 -25 52 -31 111 -13 128 3 3 6 19 6 34 0
15 5 31 10 34 6 3 10 19 10 35 0 16 5 41 12 57 6 15 12 33 13 39 2 6 11 38 20
70 10 33 22 75 27 94 13 52 20 308 8 315 -6 3 -10 21 -10 40 0 21 -6 35 -16
39 -8 3 -13 10 -10 15 3 5 -3 20 -14 34 -11 14 -20 29 -20 34 0 5 -33 40 -73
78 -80 78 -192 156 -250 174 -47 16 -145 21 -174 10z m113 -118 c-3 -4 15 -11
39 -14 25 -4 57 -15 72 -24 38 -25 114 -95 109 -101 -3 -2 10 -25 28 -51 71
-101 84 -274 31 -439 -47 -148 -62 -238 -60 -367 1 -87 6 -130 17 -157 14 -30
185 -240 273 -333 26 -28 93 -105 125 -143 14 -17 48 -68 75 -113 49 -81 50
-85 53 -171 2 -85 -17 -207 -37 -232 -5 -6 -14 -29 -21 -51 -20 -64 -67 -148
-102 -184 -29 -30 -148 -97 -148 -84 0 3 -6 1 -12 -5 -7 -6 -42 -20 -78 -32
-89 -30 -204 -36 -309 -16 -100 19 -131 35 -441 242 -26 18 -57 44 -68 59 -12
15 -22 25 -22 23 0 -14 -88 85 -140 157 -82 113 -99 156 -196 510 -17 59 -18
224 -3 279 6 21 12 97 13 170 2 72 8 140 14 151 5 11 18 65 27 120 10 55 31
141 47 190 33 97 126 295 140 295 4 0 8 5 8 11 0 10 65 84 130 147 34 34 131
96 199 129 45 21 72 26 138 27 45 1 85 5 89 9 10 10 16 9 10 -2z m848 -1967
c3 -8 2 -12 -4 -9 -6 3 -10 10 -10 16 0 14 7 11 14 -7z"/>
<path d="M980 2907 c-37 -34 -38 -54 -4 -69 24 -11 28 -9 59 27 24 30 30 43
23 55 -15 24 -44 19 -78 -13z"/>
<path d="M1385 2880 c-27 -18 -31 -26 -26 -60 2 -18 50 -11 71 10 24 24 25 36
6 56 -18 17 -15 18 -51 -6z"/>
<path d="M1189 2582 c-22 -19 -23 -22 -9 -50 15 -30 16 -30 48 -17 29 13 33
19 30 47 -4 40 -33 48 -69 20z"/>
<path d="M912 2493 c-47 -21 -53 -27 -50 -51 4 -38 35 -39 84 -2 44 32 63 75
35 77 -9 0 -40 -10 -69 -24z"/>
<path d="M1334 2198 c-31 -15 -51 -55 -37 -76 17 -27 37 -25 71 8 18 16 27 30
21 30 -6 0 -9 10 -7 22 3 26 -16 32 -48 16z"/>
<path d="M832 2007 c-13 -14 -22 -36 -22 -55 0 -25 5 -33 25 -38 37 -9 58 2
52 28 -4 13 0 29 10 40 13 14 13 20 3 33 -18 22 -43 19 -68 -8z"/>
<path d="M1120 1802 c-17 -6 -40 -28 -40 -38 0 -4 7 -15 16 -25 13 -14 21 -15
44 -7 29 10 45 32 34 49 -9 15 -38 27 -54 21z"/>
<path d="M1535 1677 c-23 -15 -95 -88 -95 -98 0 -12 31 -39 44 -39 13 0 46 31
46 44 0 3 16 21 35 38 36 31 36 31 16 49 -23 22 -20 21 -46 6z"/>
<path d="M912 1565 c-33 -42 -46 -83 -32 -100 23 -27 70 -12 70 23 0 8 9 25
20 40 20 25 20 25 1 44 -26 24 -36 23 -59 -7z"/>
<path d="M1773 1377 c-21 -14 -32 -29 -30 -42 3 -28 47 -31 76 -6 21 19 22 21
6 45 -10 14 -18 26 -19 25 0 0 -16 -11 -33 -22z"/>
<path d="M1240 1376 c0 -7 -9 -25 -21 -40 -25 -32 -22 -70 7 -74 16 -2 31 10
57 46 35 49 35 50 14 60 -41 19 -57 22 -57 8z"/>
<path d="M1570 1190 c-14 -11 -29 -20 -33 -20 -11 0 -37 -26 -37 -38 0 -5 9
-17 20 -27 20 -18 21 -18 47 2 48 35 74 103 39 103 -6 0 -22 -9 -36 -20z"/>
<path d="M3050 2118 c-25 -5 -49 -14 -54 -19 -6 -5 -16 -9 -24 -9 -21 0 -123
-73 -164 -118 -78 -85 -157 -296 -185 -497 -3 -22 -9 -45 -15 -52 -8 -9 -6
-39 7 -133 1 -8 -1 -27 -5 -41 -4 -14 -4 -32 1 -41 4 -8 10 -25 13 -39 2 -13
9 -36 14 -50 6 -15 9 -29 6 -32 -2 -2 1 -17 7 -33 7 -16 11 -34 10 -41 -1 -6
3 -14 9 -18 5 -3 10 -15 10 -26 0 -11 7 -30 15 -43 9 -13 18 -37 21 -52 6 -38
63 -154 75 -154 13 0 45 -34 73 -79 31 -48 88 -105 141 -140 22 -14 61 -44 87
-67 54 -47 241 -174 257 -174 6 0 25 -9 43 -20 18 -11 42 -20 54 -20 11 0 24
-3 28 -7 13 -13 53 -16 251 -18 196 -1 229 1 221 14 -2 3 16 7 40 8 41 2 144
46 152 66 2 4 13 7 25 7 41 0 277 267 277 314 0 9 11 45 25 82 44 116 29 225
-52 394 -25 52 -51 106 -57 120 -20 45 -93 155 -122 182 -16 15 -34 33 -40 40
-6 7 -26 24 -44 38 -19 14 -41 32 -50 40 -19 19 -140 106 -269 194 -96 65
-183 139 -333 283 -37 35 -72 62 -77 58 -6 -3 -15 4 -21 15 -6 11 -20 20 -30
20 -11 0 -20 4 -20 9 0 12 -61 23 -138 26 -35 1 -67 6 -70 11 -10 13 -40 14
-92 2z m230 -179 c95 -23 146 -53 193 -113 46 -59 55 -68 120 -115 31 -23 57
-45 57 -50 0 -5 14 -14 32 -22 17 -7 50 -31 74 -53 52 -50 198 -161 262 -199
116 -71 217 -211 295 -412 24 -63 27 -99 16 -188 -11 -81 -21 -110 -80 -234
-46 -94 -122 -141 -303 -186 -145 -36 -368 -34 -421 3 -5 4 -37 15 -70 25 -33
10 -82 30 -110 45 -27 14 -61 30 -75 33 -79 21 -315 248 -367 354 -15 32 -28
60 -29 63 0 3 -7 21 -16 41 -9 20 -21 60 -27 90 -6 30 -20 79 -31 109 -21 64
-28 102 -35 220 -3 47 -8 106 -11 132 -7 57 22 176 67 274 40 89 144 193 193
195 17 1 42 5 56 9 33 12 105 4 210 -21z"/>
<path d="M3092 1664 c-6 -7 -12 -16 -12 -20 0 -3 -13 -22 -30 -41 -16 -18 -30
-40 -30 -48 0 -19 27 -19 37 -1 4 8 17 14 27 13 12 -1 25 8 32 22 7 13 17 27
23 30 6 4 2 16 -12 33 -18 21 -24 23 -35 12z"/>
<path d="M3404 1475 c-12 -6 -41 -28 -64 -48 -30 -28 -39 -43 -35 -57 12 -38
85 -34 85 5 0 6 9 20 19 29 22 20 30 45 22 67 -5 12 -10 13 -27 4z"/>
<path d="M3660 1311 c0 -5 -8 -12 -17 -16 -30 -9 -54 -52 -47 -80 8 -34 38
-32 64 5 12 17 26 30 31 30 14 0 39 26 39 39 0 12 -33 31 -54 31 -9 0 -16 -4
-16 -9z"/>
<path d="M2966 1199 c-31 -37 -32 -41 -7 -63 18 -17 21 -17 45 -1 35 23 44 62
20 80 -26 20 -29 19 -58 -16z"/>
<path d="M3972 1035 c-35 -37 -41 -48 -33 -64 19 -34 40 -33 76 5 40 40 42 50
17 81 l-17 23 -43 -45z"/>
<path d="M3691 964 c-34 -28 -39 -55 -16 -74 20 -17 48 -9 61 19 7 13 18 27
24 31 15 9 6 26 -20 40 -15 8 -25 4 -49 -16z"/>
<path d="M3340 950 c0 -6 -16 -18 -35 -27 -36 -17 -48 -34 -39 -57 10 -27 52
-25 84 4 31 28 38 58 18 78 -15 15 -28 16 -28 2z"/>
<path d="M3717 572 c-38 -25 -46 -49 -25 -70 19 -19 38 -14 62 15 32 40 36 58
18 70 -13 8 -26 4 -55 -15z"/>
</g>
</svg>
