<?xml version="1.0" standalone="no"?>
<!DOCTYPE svg PUBLIC "-//W3C//DTD SVG 20010904//EN"
 "http://www.w3.org/TR/2001/REC-SVG-20010904/DTD/svg10.dtd">
<svg version="1.0" xmlns="http://www.w3.org/2000/svg"
 width="541.000000pt" height="453.000000pt" viewBox="0 0 541.000000 453.000000"
 preserveAspectRatio="xMidYMid meet">
<metadata>
Created by potrace 1.16, written by Peter Selinger 2001-2019
</metadata>
<g transform="translate(0.000000,453.000000) scale(0.100000,-0.100000)"
fill="#000000" stroke="none">
<path d="M2965 4310 c-3 -5 -13 -10 -21 -10 -19 0 -52 -32 -101 -100 -22 -30
-57 -75 -77 -100 -21 -25 -44 -54 -53 -65 -9 -11 -56 -65 -104 -120 -48 -55
-98 -114 -111 -132 -26 -36 -98 -125 -131 -164 -111 -127 -140 -160 -197 -222
-85 -91 -78 -83 -132 -153 -26 -33 -62 -76 -80 -95 -18 -19 -52 -57 -74 -84
-23 -28 -69 -79 -103 -114 -33 -35 -61 -66 -61 -69 0 -3 -7 -12 -15 -21 -8 -9
-40 -45 -72 -81 -31 -36 -63 -66 -69 -68 -7 -2 -16 -17 -19 -33 -4 -19 -12
-29 -19 -26 -7 3 -28 -13 -47 -35 -19 -21 -58 -64 -86 -95 -29 -31 -53 -64
-53 -73 0 -9 -13 -26 -30 -38 -16 -13 -30 -28 -30 -35 0 -7 -22 -33 -48 -58
-74 -73 -171 -183 -194 -220 -11 -19 -24 -36 -28 -39 -4 -3 -13 -16 -19 -28
-18 -33 -39 -57 -178 -198 -68 -68 -123 -127 -123 -130 0 -9 83 -84 92 -84 5
0 8 -9 8 -20 0 -11 5 -20 11 -20 7 0 28 -15 47 -32 19 -18 46 -43 59 -55 13
-13 28 -23 33 -23 5 0 23 -18 41 -40 17 -21 57 -59 88 -84 31 -24 77 -63 101
-87 25 -24 64 -59 88 -78 23 -19 68 -58 100 -89 31 -30 89 -79 127 -110 39
-31 75 -61 81 -67 6 -5 48 -44 94 -85 46 -41 135 -124 198 -185 63 -60 124
-116 135 -124 21 -14 138 -115 182 -156 53 -51 95 -85 104 -85 5 0 28 -22 51
-49 25 -29 49 -47 56 -44 8 3 14 0 14 -6 0 -6 7 -8 15 -5 8 4 22 1 29 -5 11
-9 16 -9 21 0 6 8 9 8 15 -1 9 -15 30 -4 30 16 0 8 7 14 15 14 9 0 19 8 22 18
4 9 19 29 34 44 15 15 33 41 41 58 7 16 16 30 20 30 4 0 23 24 41 53 19 28 50
69 70 90 20 20 37 44 37 52 0 8 7 15 15 15 8 0 20 10 26 22 7 13 24 37 38 54
99 117 215 253 236 276 14 15 25 29 25 32 0 2 16 22 35 43 19 21 44 49 55 62
12 12 27 35 33 50 6 14 20 33 29 42 10 9 18 21 18 28 0 6 4 11 9 11 6 0 20 18
32 40 12 21 25 38 28 36 3 -2 17 12 31 31 14 19 38 49 53 66 16 18 41 48 55
67 22 29 150 187 195 240 6 8 31 39 54 70 22 30 53 66 67 80 14 14 26 31 26
38 0 7 4 12 9 12 4 0 24 22 43 50 19 27 67 84 106 125 40 42 72 79 72 82 0 3
31 47 68 97 37 50 79 109 93 131 46 73 104 160 110 165 3 3 20 26 37 52 18 25
38 52 44 60 7 7 25 31 40 53 30 43 88 107 131 142 16 14 28 34 29 50 4 87 6
82 -48 118 -28 19 -66 49 -85 67 -19 18 -68 60 -109 93 -78 61 -152 126 -230
198 -43 40 -105 87 -116 87 -9 0 -109 77 -150 116 -22 22 -69 64 -104 94 -34
30 -90 81 -124 112 -33 32 -65 58 -70 58 -9 0 -57 37 -101 78 -16 16 -60 50
-97 75 -36 26 -103 83 -149 127 -45 44 -87 80 -91 80 -5 0 -7 4 -4 9 8 12 -33
63 -45 56 -5 -4 -9 0 -9 8 0 23 -41 69 -56 63 -7 -3 -16 -1 -19 4 -8 13 -52
13 -60 0z m25 -160 c8 -5 13 -10 10 -11 -3 0 -15 -2 -27 -5 -16 -3 -23 1 -23
11 0 17 18 19 40 5z m80 -85 c31 -1 60 -14 60 -26 0 -12 -270 -6 -271 6 0 15
100 34 146 28 22 -3 51 -7 65 -8z m-25 -89 c116 -2 185 -14 185 -31 0 -4 -26
-6 -57 -6 -32 1 -68 1 -80 0 -13 0 -90 0 -173 1 -123 1 -150 4 -150 16 0 10
12 14 41 14 28 0 38 4 33 12 -5 8 3 9 32 4 21 -4 98 -9 169 -10z m80 -89 c190
-17 248 -28 231 -44 -3 -4 -54 -8 -114 -9 -59 -2 -150 -6 -202 -10 -52 -4
-142 -6 -200 -5 -209 5 -206 4 -172 33 23 21 102 33 102 16 0 -10 2 -10 8 -1
4 7 17 16 29 20 23 9 219 8 318 0z m291 -120 c4 -4 0 -15 -10 -25 -15 -15 -42
-17 -244 -16 -125 0 -261 4 -302 8 -81 9 -145 9 -229 0 -42 -5 -52 -3 -49 7 5
16 11 16 302 23 109 3 200 6 201 8 8 7 324 3 331 -5z m-366 -92 c242 -6 313
-12 288 -26 -15 -8 -269 -14 -443 -10 -44 1 -151 -1 -237 -3 -87 -3 -160 -1
-163 3 -7 12 11 17 65 20 25 1 59 5 75 7 17 3 57 8 89 10 33 2 61 6 63 8 3 3
15 2 26 0 12 -3 119 -7 237 -9z m480 -25 c11 -8 2 -10 -32 -8 -27 1 -48 5 -48
10 0 11 62 10 80 -2z m-402 -69 c150 -1 152 -1 140 -21 -7 -12 -22 -23 -33
-25 -15 -4 -523 -17 -595 -15 -8 0 -41 0 -72 0 -40 0 -68 7 -93 21 -19 12 -35
22 -35 23 0 2 44 3 98 4 134 2 274 11 281 18 3 3 39 3 81 0 41 -3 144 -5 228
-5z m444 -3 c10 0 20 -3 23 -9 4 -5 16 -9 27 -9 34 0 14 -11 -28 -16 -63 -6
-235 -7 -241 0 -4 3 2 15 13 26 17 18 28 19 104 13 47 -3 93 -6 102 -5z m216
-108 c12 -8 22 -17 22 -21 0 -5 -113 -4 -299 4 -49 2 -78 -2 -86 -10 -7 -7
-15 -9 -19 -6 -3 3 -38 5 -78 4 -67 -2 -72 0 -57 14 9 9 36 19 60 21 24 3 45
6 46 7 1 1 88 2 195 2 151 -1 198 -4 216 -15z m-610 -6 c-14 -15 -48 -17 -260
-21 -314 -7 -348 -6 -355 1 -17 16 25 20 240 24 128 2 235 4 240 5 4 1 40 3
80 5 68 3 71 2 55 -14z m-833 -4 c-3 -5 -11 -10 -16 -10 -6 0 -7 5 -4 10 3 6
11 10 16 10 6 0 7 -4 4 -10z m90 -10 c3 -5 1 -10 -4 -10 -6 0 -11 5 -11 10 0
6 2 10 4 10 3 0 8 -4 11 -10z m1169 -60 c43 0 57 -3 46 -10 -18 -11 -142 -13
-220 -3 l-55 8 40 6 c22 4 60 5 84 3 24 -2 71 -4 105 -4z m-1284 -16 c13 -1
30 2 37 8 7 6 13 7 13 2 0 -5 32 -7 71 -6 39 2 75 0 81 -6 5 -5 -15 -10 -54
-11 -35 -1 -70 -4 -79 -6 -8 -3 -37 0 -65 5 -27 6 -54 11 -61 12 -7 1 -10 5
-7 10 4 5 13 6 23 3 9 -4 27 -9 41 -11z m790 6 c0 -5 -12 -10 -27 -11 -16 -1
-80 -3 -143 -5 -63 -3 -151 -4 -195 -3 -44 0 -88 1 -97 1 -10 -1 -18 3 -18 8
0 10 65 14 313 18 108 1 167 -1 167 -8z m127 4 c-3 -3 -12 -4 -19 -1 -8 3 -5
6 6 6 11 1 17 -2 13 -5z m540 0 c-3 -3 -12 -4 -19 -1 -8 3 -5 6 6 6 11 1 17
-2 13 -5z m-157 -59 c175 -6 307 -19 250 -25 -14 -1 -28 -2 -32 -1 -49 7 -213
8 -237 1 -19 -5 -33 -5 -37 1 -3 5 -9 7 -13 4 -5 -2 -50 -7 -102 -9 -52 -3
-147 -8 -211 -11 -65 -4 -118 -4 -118 -1 0 17 55 36 115 42 39 3 71 7 72 8 1
1 31 1 65 0 35 -2 146 -6 248 -9z m-731 -14 c63 0 117 2 121 4 3 2 12 0 19 -5
11 -6 10 -10 -5 -18 -24 -12 -244 -24 -244 -13 0 5 -10 6 -23 4 -14 -3 -32 4
-47 17 l-25 21 45 -5 c25 -3 96 -5 159 -5z m-312 -7 c13 -4 21 -9 18 -13 -7
-12 -149 0 -163 14 -7 7 117 6 145 -1z m1283 -64 c43 -10 -8 -12 -350 -16
-129 -1 -257 -6 -285 -10 -27 -5 -77 -7 -110 -4 l-60 6 75 6 c110 11 209 17
355 24 72 4 131 7 132 8 6 5 214 -7 243 -14z m-1632 -7 c12 -7 22 -9 22 -4 0
6 86 8 217 5 172 -3 221 -7 240 -19 40 -27 26 -35 -64 -37 -203 -4 -231 -3
-283 4 -30 5 -91 13 -135 19 -44 7 -88 12 -97 13 -21 0 -22 2 -5 21 15 18 74
17 105 -2z m1892 8 c0 -5 -11 -8 -25 -8 -13 0 -22 3 -19 8 3 5 14 9 25 9 10 0
19 -4 19 -9z m-1155 -31 c-7 -12 -74 -12 -130 -1 -34 7 -26 9 48 10 57 1 86
-3 82 -9z m934 -46 c2 -2 -6 -15 -19 -29 -18 -19 -33 -25 -64 -24 -23 0 -81
-4 -131 -10 -49 -6 -137 -11 -195 -11 -58 0 -163 -7 -235 -15 -147 -17 -291
-19 -299 -6 -4 5 11 27 31 49 l38 40 145 8 c80 4 254 7 387 8 133 1 244 4 248
7 6 7 85 -8 94 -17z m252 -21 c24 -3 52 -5 61 -4 10 0 20 -4 23 -9 10 -16
-156 -28 -235 -16 -36 5 -37 5 -19 19 9 7 16 17 15 22 -2 17 87 22 100 6 6 -7
31 -16 55 -18z m-2050 -4 c19 -1 57 1 86 5 31 4 69 3 95 -5 39 -10 353 -14
463 -4 33 3 47 -2 80 -31 l40 -33 -142 0 c-104 0 -143 3 -143 12 0 8 -3 8 -8
2 -7 -10 -302 -15 -302 -5 0 8 -222 4 -252 -5 -16 -4 -28 -5 -28 -1 0 11 62
76 69 71 4 -2 23 -5 42 -6z m811 -1 c-9 -9 -15 -9 -24 0 -9 9 -7 12 12 12 19
0 21 -3 12 -12z m1241 -84 c48 -4 87 -11 87 -15 0 -5 -8 -9 -17 -10 -95 -3
-198 -12 -242 -19 -66 -12 -121 -13 -121 -2 0 20 33 52 48 48 10 -3 33 -1 52
3 19 5 51 7 70 5 19 -2 74 -7 123 -10z m177 -3 c0 -5 -7 -12 -16 -15 -14 -5
-15 -4 -4 9 14 17 20 19 20 6z m-561 -24 c-22 -21 -34 -22 -199 -23 -236 -2
-405 -11 -462 -25 -38 -9 -51 -8 -67 4 -28 19 -21 23 41 20 29 0 91 5 138 13
47 8 150 17 230 20 80 3 146 6 147 7 1 1 45 3 98 4 l97 2 -23 -22z m-965 -18
c3 -3 3 -14 0 -24 -4 -18 -14 -20 -80 -20 -42 0 -74 4 -74 9 0 6 -5 5 -12 -2
-16 -16 -128 -16 -128 1 0 8 -3 7 -10 -3 -7 -12 -42 -15 -192 -16 -276 -1
-388 12 -388 47 0 11 37 12 42 1 2 -5 39 -4 83 3 77 11 749 14 759 4z m136
-19 c0 -5 -6 -10 -14 -10 -8 0 -22 -3 -30 -6 -12 -5 -15 -2 -10 10 7 17 54 23
54 6z m1307 -21 c61 1 118 4 126 7 8 3 27 -6 43 -21 l29 -25 -50 5 c-27 2 -75
7 -105 10 -30 3 -122 6 -205 7 l-150 1 85 12 c47 7 92 10 100 8 8 -3 65 -4
127 -4z m-637 -19 c0 -4 -21 -10 -47 -14 -27 -4 -59 -9 -73 -12 -14 -3 -61 -6
-105 -8 -44 -2 -119 -7 -166 -11 -58 -5 -88 -4 -93 3 -11 19 13 24 134 28 65
2 129 8 142 14 27 11 208 11 208 0z m220 0 c0 -5 -10 -10 -22 -10 -19 0 -20 2
-8 10 19 13 30 13 30 0z m-790 -51 c0 -5 -30 -10 -67 -11 -38 0 -88 -2 -112
-4 -76 -5 -30 17 50 25 82 7 129 3 129 -10z m-1140 -9 c3 -4 14 -12 25 -18 17
-10 11 -11 -33 -9 -29 1 -52 6 -52 10 0 4 0 14 0 22 0 12 7 14 28 9 15 -4 29
-10 32 -14z m818 15 c13 -3 20 -10 17 -15 -6 -9 -102 -14 -255 -11 -52 1 -169
-3 -259 -9 -138 -9 -167 -8 -179 4 -12 11 4 14 110 20 67 4 183 6 256 5 73 -1
134 0 136 2 7 7 149 10 174 4z m1364 -10 c162 -5 361 -24 372 -36 9 -8 -25
-14 -64 -11 -45 4 -424 2 -542 -2 -76 -3 -138 -4 -138 -1 0 3 8 14 17 25 13
15 30 20 68 21 27 0 68 4 90 8 22 5 47 7 57 4 9 -2 72 -6 140 -8z m-432 -13
c0 -5 -10 -18 -22 -29 -17 -15 -34 -19 -68 -17 -25 1 -81 -2 -125 -8 -106 -13
-186 -14 -208 -2 -38 21 31 37 178 40 77 1 154 7 170 13 38 12 75 13 75 3z
m-505 -61 c-3 -2 -45 -6 -93 -8 -92 -2 -187 -10 -237 -18 -16 -3 -36 -1 -44 4
-33 21 5 29 137 30 75 1 151 5 167 10 28 7 82 -6 70 -18z m-468 -6 c-2 -5 -49
-10 -104 -12 -55 -1 -113 -5 -129 -9 -16 -4 -51 -6 -79 -5 -27 0 -86 -4 -129
-9 -58 -7 -83 -7 -93 2 -29 23 7 33 122 33 63 0 117 3 120 7 10 10 295 4 292
-7z m1681 -27 c23 -3 44 -7 47 -10 9 -9 -81 -20 -144 -17 -32 1 -62 0 -67 -4
-6 -3 -15 -3 -21 1 -6 4 -64 4 -130 1 -65 -3 -140 -3 -168 0 -27 4 -71 2 -97
-3 -28 -5 -66 -5 -95 1 l-48 10 30 12 c20 9 56 11 106 7 42 -3 79 -3 82 1 4 3
104 7 222 8 119 2 219 6 222 9 4 3 9 2 12 -3 4 -5 25 -11 49 -13z m-2568 -9
c0 -5 -11 -9 -25 -9 -24 0 -32 10 -19 22 8 8 44 -3 44 -13z m246 3 c13 -7 -7
-10 -74 -11 -50 -1 -107 -4 -127 -7 -21 -3 -35 -1 -35 5 0 6 13 11 29 11 17 0
33 5 36 10 8 13 146 6 171 -8z m1512 -14 c2 -12 -3 -18 -15 -19 -10 0 -55 -2
-100 -4 -59 -2 -87 0 -100 10 -17 14 -17 14 2 15 89 4 136 8 140 11 2 2 18 4
37 4 23 0 34 -5 36 -17z m-323 -17 c3 -6 -14 -12 -37 -15 -110 -12 -274 -24
-369 -25 -57 -1 -115 -5 -128 -8 -21 -5 -22 -4 -12 16 8 14 22 21 44 22 56 1
272 11 274 12 7 7 223 5 228 -2z m-615 -10 c0 -27 -36 -33 -198 -36 -92 -2
-174 0 -182 6 -18 11 -40 9 240 24 63 4 117 9 119 11 8 7 21 4 21 -5z m-575
-42 c5 -7 -20 -9 -78 -7 -47 1 -80 6 -74 10 18 12 145 9 152 -3z m75 0 c0 -5
-14 -9 -31 -9 -16 0 -28 3 -26 8 7 10 57 12 57 1z m1640 2 c50 6 598 2 614 -4
16 -6 16 -10 -4 -37 -22 -31 -40 -39 -40 -17 0 25 -34 36 -81 25 -53 -13 -189
-16 -196 -5 -3 4 -12 2 -20 -5 -12 -10 -61 -12 -197 -11 -100 2 -205 -2 -234
-8 -30 -6 -56 -9 -58 -6 -9 9 47 66 69 71 12 2 45 2 72 -1 28 -3 61 -3 75 -2z
m-1913 -7 c-3 -3 -12 -4 -19 -1 -8 3 -5 6 6 6 11 1 17 -2 13 -5z m1511 -32
c31 -20 28 -28 -13 -30 -19 -2 -54 -6 -78 -10 -23 -4 -59 -5 -79 -2 -21 4 -40
5 -43 2 -5 -5 -207 -13 -312 -12 -39 0 -63 -3 -63 -10 0 -7 -6 -8 -18 -1 -10
5 -46 9 -79 8 l-60 -2 15 22 c12 19 24 23 71 24 152 2 507 21 542 29 41 9 86
2 117 -18z m152 23 c0 -2 -9 -9 -19 -14 -14 -8 -22 -7 -31 4 -11 13 -8 15 19
15 17 0 31 -2 31 -5z m-956 -44 c10 -16 -15 -34 -50 -37 -127 -10 -145 -8
-170 18 l-25 25 121 0 c66 0 122 -2 124 -6z m-310 -24 c10 -9 16 -17 14 -17
-172 -11 -301 -13 -519 -9 -109 2 -116 3 -111 21 3 13 10 17 23 13 26 -8 87
-7 128 3 19 4 128 7 242 7 180 -1 209 -3 223 -18z m1751 -22 c132 -2 257 -6
277 -10 33 -6 36 -9 25 -26 -9 -15 -19 -17 -49 -13 -20 4 -45 3 -55 -1 -17 -7
-137 -17 -198 -16 -319 2 -361 4 -387 19 -50 29 -43 42 22 43 74 2 76 2 86 12
4 4 15 5 23 1 9 -3 124 -7 256 -9z m-585 -16 c0 -4 -12 -17 -27 -29 -21 -16
-40 -21 -92 -20 -36 0 -75 0 -86 0 -11 0 -110 0 -220 0 -110 1 -254 -2 -320
-6 -112 -6 -119 -5 -104 10 13 14 41 18 145 22 102 3 275 11 349 15 6 0 64 0
130 -1 66 -1 131 3 145 9 28 11 80 11 80 0z m114 -57 c-8 -2 -27 -1 -41 3 -20
5 -22 9 -13 20 9 11 16 11 41 -3 20 -12 24 -18 13 -20z m-1220 14 c57 -1 72
-21 24 -32 -42 -9 -500 -9 -593 0 -38 4 -90 3 -115 -2 -47 -9 -70 -6 -70 8 0
4 17 8 38 8 20 0 66 5 102 11 36 6 139 8 230 6 96 -2 172 0 180 5 8 6 46 7 85
4 39 -3 92 -7 119 -8z m176 -1 c-7 -8 -18 -15 -25 -15 -7 0 -18 7 -25 15 -11
13 -7 15 25 15 32 0 36 -2 25 -15z m1400 -44 c0 -10 104 -22 183 -21 31 1 57
-2 57 -5 0 -16 -68 -26 -214 -30 l-161 -5 -35 30 -35 30 45 -5 c25 -3 68 -1
95 4 28 5 53 9 58 10 4 0 7 -3 7 -8z m-732 -12 c94 0 172 -4 172 -8 0 -20 -58
-31 -200 -35 -85 -3 -172 -10 -193 -15 -21 -5 -64 -8 -95 -5 -31 2 -105 4
-163 3 -96 0 -108 3 -132 24 -36 30 -34 36 11 31 20 -3 82 0 137 5 55 5 143 7
195 5 52 -2 173 -4 268 -5z m358 -8 c27 -4 64 -6 81 -5 20 1 34 -3 37 -12 3
-8 2 -14 -2 -15 -4 0 -20 -2 -37 -4 -43 -5 -170 6 -185 15 -21 13 7 41 34 35
11 -3 44 -9 72 -14z m705 -16 c-1 -15 -24 -12 -29 3 -3 9 2 13 12 10 10 -1 17
-7 17 -13z m-1909 -8 c21 0 54 4 73 7 33 7 35 6 24 -12 -10 -16 -26 -20 -98
-22 -47 -1 -108 -1 -136 0 -27 2 -112 3 -188 4 -75 1 -137 4 -137 9 0 7 54 9
195 8 39 -1 86 3 105 8 19 5 55 7 80 3 25 -3 62 -5 82 -5z m-529 -7 c-9 -8
-187 -21 -180 -13 7 7 97 19 145 19 23 1 39 -3 35 -6z m-193 -16 c0 -2 -12 -4
-27 -4 -21 0 -24 3 -14 9 13 8 41 5 41 -5z m1593 -42 c53 -2 57 -3 48 -21 -9
-16 -24 -19 -110 -20 -55 -1 -110 -4 -123 -6 -42 -9 -143 -17 -185 -16 -23 1
-44 -2 -47 -8 -9 -15 -73 4 -111 34 -19 14 -35 27 -35 28 0 1 69 1 152 1 84
-1 171 1 193 5 37 7 73 7 218 3z m521 -8 c41 -14 -33 -24 -224 -30 l-185 -7
24 26 23 25 170 -3 c94 -3 180 -8 192 -11z m349 -1 c5 -3 -1 -12 -14 -19 -17
-9 -47 -12 -104 -8 -88 7 -127 20 -104 35 15 10 205 3 222 -8z m-1705 -3 c10
0 10 -4 0 -20 -10 -15 -23 -20 -53 -20 -22 1 -141 -2 -265 -4 -276 -7 -315 -7
-410 0 -41 3 -104 7 -140 9 -36 2 -69 4 -75 4 -5 1 -2 8 6 16 12 13 21 14 44
5 16 -6 34 -9 41 -6 7 3 70 8 141 12 70 3 129 7 130 8 2 1 130 1 285 -1 156
-2 289 -3 296 -3z m177 -3 c13 4 73 -34 74 -47 1 -3 -44 -5 -98 -6 l-100 -1
20 26 c19 24 80 45 87 29 2 -4 10 -4 17 -1z m1619 -6 c4 -5 -3 -7 -14 -4 -23
6 -26 13 -6 13 8 0 17 -4 20 -9z m-321 -82 c26 -21 36 -42 20 -37 -5 1 -19 -4
-32 -11 -18 -10 -48 -11 -125 -6 -56 4 -108 7 -116 6 -32 -3 -360 -6 -360 -3
0 2 12 16 28 32 l27 29 203 4 c112 3 204 6 207 8 2 2 30 3 63 3 46 -1 65 -6
85 -25z m-714 5 l64 -6 -21 -21 c-20 -19 -33 -21 -164 -22 -79 -1 -154 -4
-168 -8 -17 -5 -33 -1 -50 12 -14 11 -23 22 -20 24 4 4 131 16 265 24 17 1 59
0 94 -3z m938 -16 c15 -12 16 -18 4 -37 -8 -12 -14 -12 -43 2 -18 9 -44 26
-58 37 l-25 20 55 -6 c30 -3 60 -10 67 -16z m-2327 0 c52 1 181 3 285 5 105 3
209 3 233 0 l44 -5 -28 -29 c-26 -27 -33 -29 -98 -29 -39 0 -152 0 -251 -1
-371 -3 -505 11 -505 52 0 6 3 8 8 6 4 -3 36 -1 72 3 36 4 83 5 105 2 22 -2
83 -4 135 -4z m963 -25 c15 -15 27 -30 27 -33 0 -9 -119 -5 -148 4 -32 11
-158 14 -202 6 -40 -7 -42 -3 -14 30 10 12 43 15 161 17 147 2 148 2 176 -24z
m350 -66 c21 -1 36 -6 34 -12 -6 -15 -187 -16 -210 0 -26 19 -5 24 73 18 36
-3 82 -5 103 -6z m347 -1 c159 9 536 2 547 -10 5 -5 0 -6 -11 -2 -12 4 -23 2
-27 -6 -9 -14 -220 -16 -409 -3 -58 4 -112 7 -120 6 -8 -1 -61 -3 -116 -4 -89
-2 -101 0 -94 13 7 13 21 15 82 9 40 -4 107 -5 148 -3z m-800 -17 c0 -6 -8 -9
-18 -7 -9 3 -46 1 -82 -4 -78 -11 -98 -11 -170 -1 l-55 7 55 7 c101 11 270 10
270 -2z m-1180 -8 c13 -1 13 -3 -1 -11 -15 -9 -85 -14 -153 -11 -32 1 -26 16
9 23 19 3 113 3 145 -1z m419 -1 c24 0 42 -3 39 -6 -9 -9 -308 -12 -313 -4 -9
14 36 19 135 14 52 -2 115 -4 139 -4z m129 3 c-10 -2 -26 -2 -35 0 -10 3 -2 5
17 5 19 0 27 -2 18 -5z m79 1 c-3 -3 -12 -4 -19 -1 -8 3 -5 6 6 6 11 1 17 -2
13 -5z m128 -4 c-42 -11 -103 -12 -109 -2 -3 5 27 9 67 9 52 1 64 -1 42 -7z
m536 -49 c25 1 51 -1 56 -4 6 -4 24 -2 41 4 24 8 37 7 59 -5 32 -16 59 -44 51
-52 -3 -3 -106 -4 -229 -2 -123 1 -279 2 -346 1 -130 -2 -145 4 -103 42 15 13
33 17 68 15 84 -5 156 -3 212 6 30 6 75 6 100 2 24 -5 65 -7 91 -7z m639 -3
c8 0 36 3 63 7 27 4 47 3 47 -2 0 -5 7 -10 15 -10 8 0 15 4 15 9 0 10 157 2
270 -14 41 -6 90 -10 108 -10 17 1 32 -2 32 -7 0 -11 3 -11 -295 -15 -148 -1
-330 -7 -404 -11 l-135 -8 23 29 c28 36 54 42 161 36 47 -2 92 -4 100 -4z
m-1205 -19 c6 -6 3 -16 -8 -26 -15 -16 -40 -18 -195 -18 -227 1 -268 4 -286
24 -17 19 -18 19 141 23 56 2 105 7 109 11 11 10 226 -3 239 -14z m857 13 c12
-5 15 -11 8 -22 -8 -13 -13 -12 -32 8 -23 23 -13 29 24 14z m-1568 -33 c-3 -5
-16 -9 -29 -9 -13 0 -26 4 -29 9 -3 5 10 9 29 9 19 0 32 -4 29 -9z m101 1 c4
-6 -12 -10 -39 -10 -25 0 -46 5 -46 10 0 6 18 10 39 10 22 0 43 -4 46 -10z
m2405 6 c0 -3 -4 -8 -10 -11 -5 -3 -10 -1 -10 4 0 6 5 11 10 11 6 0 10 -2 10
-4z m-2723 -12 c-3 -3 -12 -4 -19 -1 -8 3 -5 6 6 6 11 1 17 -2 13 -5z m66 -1
c-7 -2 -19 -2 -25 0 -7 3 -2 5 12 5 14 0 19 -2 13 -5z m44 1 c-3 -3 -12 -4
-19 -1 -8 3 -5 6 6 6 11 1 17 -2 13 -5z m2296 -54 c55 0 87 -4 87 -11 0 -6
-14 -9 -33 -8 -18 2 -38 -1 -46 -5 -7 -5 -125 -10 -262 -11 -204 -3 -250 -1
-260 11 -6 8 -8 15 -3 15 15 3 155 7 251 9 51 1 95 5 98 10 3 4 22 4 42 -1 21
-5 77 -9 126 -9z m-918 -3 c138 -4 252 -6 254 -7 3 0 -5 -9 -17 -21 -21 -19
-33 -20 -170 -18 -81 2 -183 2 -227 2 -189 -4 -352 -2 -377 3 -32 6 -28 29 8
41 28 9 164 9 529 0z m-1077 -11 c23 -14 -2 -27 -64 -31 -160 -12 -324 -17
-324 -9 0 5 -24 8 -52 6 -50 -2 -90 10 -77 23 4 3 54 7 113 9 59 2 109 5 111
8 8 8 280 2 293 -6z m2225 5 c17 -6 17 -8 4 -20 -13 -10 -17 -9 -24 2 -4 8
-15 17 -23 20 -11 4 -9 5 5 6 11 0 28 -4 38 -8z m-1813 -10 c24 -1 31 -4 23
-12 -6 -6 -59 -10 -134 -9 -142 0 -177 4 -192 19 -8 8 27 10 128 7 77 -2 156
-4 175 -5z m1540 -70 c85 -1 92 -2 74 -15 -24 -17 -94 -24 -274 -27 -116 -2
-139 0 -163 15 -15 10 -27 21 -27 25 0 5 103 6 390 2z m209 -7 c2 -2 -4 -13
-14 -24 -17 -19 -18 -19 -43 0 -13 11 -32 20 -41 21 -12 0 -11 2 4 9 18 8 83
3 94 -6z m-2049 -17 c69 -62 80 -59 -201 -52 -140 4 -309 8 -377 10 -68 1
-125 5 -128 7 -2 3 -2 12 1 20 5 12 42 14 208 15 208 2 377 10 385 18 3 3 24
5 46 5 28 -1 49 -8 66 -23z m249 7 c1 -1 -9 -15 -23 -31 -14 -15 -26 -25 -26
-21 0 4 -13 3 -30 -2 -16 -5 -30 -5 -30 0 0 4 -14 22 -32 39 l-31 31 84 -7
c46 -3 86 -7 88 -9z m836 1 c36 -5 45 -9 36 -18 -8 -8 -70 -12 -185 -13 -96
-1 -200 -5 -233 -9 -68 -9 -403 -13 -403 -4 0 3 10 15 23 27 16 15 38 22 77
24 102 6 638 1 685 -7z m293 -7 c24 -20 11 -23 -89 -25 -99 -1 -100 -1 -83 18
15 16 30 19 88 18 39 -1 77 -6 84 -11z m-304 -77 c4 -5 2 -12 -3 -15 -5 -3
-164 -8 -355 -11 -190 -2 -373 -7 -406 -11 -34 -3 -60 -2 -60 4 0 16 163 31
333 29 92 -1 167 0 167 3 0 10 318 11 324 1z m285 -7 c15 -13 -46 -19 -161
-15 -65 2 -61 19 5 23 54 3 149 -2 156 -8z m116 -1 c17 -11 11 -12 -42 -13
-35 0 -63 4 -63 9 0 19 76 21 105 4z m485 2 c5 -3 6 -13 3 -21 -4 -12 -14 -14
-36 -10 -17 4 -87 9 -156 12 -140 5 -188 11 -195 22 -5 9 370 6 384 -3z
m-2535 -28 c11 1 31 2 45 3 14 1 150 1 304 1 153 -1 282 1 286 4 5 3 19 1 32
-4 22 -9 22 -10 -7 -11 -16 -1 -37 -3 -45 -5 -81 -18 -184 -22 -478 -20 -237
1 -346 5 -354 13 -8 8 -8 13 3 16 21 8 140 12 169 7 14 -3 34 -5 45 -4z m1130
-39 c14 9 427 11 450 2 19 -7 19 -7 -3 -19 -14 -8 -115 -13 -304 -16 -156 -2
-308 -6 -338 -9 -48 -5 -57 -3 -68 14 -12 19 -10 20 40 21 29 1 67 4 83 8 17
4 53 4 80 0 28 -4 54 -4 60 -1z m586 0 c0 -7 2 -8 5 -3 4 10 113 11 318 1 112
-5 155 -24 60 -26 -66 -2 -71 -2 -242 0 -68 0 -127 -2 -131 -5 -5 -3 -22 -2
-39 1 -28 6 -29 7 -14 25 19 22 42 25 43 7z m619 -10 c0 -3 8 -4 19 -1 10 3
22 0 25 -6 11 -17 -105 -13 -127 3 -16 13 -12 14 32 13 28 -1 51 -5 51 -9z
m-1680 -33 c-7 -8 -23 -15 -37 -15 -13 0 -33 -5 -44 -11 -37 -19 -533 -28
-643 -12 -67 11 -73 33 -9 35 26 0 55 0 63 -1 90 -10 550 3 635 18 47 9 52 7
35 -14z m144 0 c19 -14 18 -15 -12 -15 -30 0 -40 9 -25 23 9 10 15 8 37 -8z
m-934 -15 c0 -6 -11 -10 -25 -10 -14 0 -25 4 -25 8 0 4 11 9 25 10 14 1 25 -3
25 -8z m-63 -6 c-3 -3 -12 -4 -19 -1 -8 3 -5 6 6 6 11 1 17 -2 13 -5z m1675
-20 l47 -6 -16 -25 c-15 -23 -21 -24 -80 -21 -35 2 -63 0 -63 -4 0 -9 -13 -10
-205 -8 -166 1 -171 1 -192 25 -13 13 -23 26 -23 29 0 10 463 19 532 10z m759
-13 c20 -8 41 -21 46 -30 11 -18 29 -17 -227 -21 -100 -2 -175 2 -191 8 -15 6
-40 9 -57 6 -42 -7 -242 -10 -242 -4 0 3 11 17 24 31 l25 27 293 -2 c221 -1
302 -5 329 -15z m-1432 -14 c37 -1 66 -7 68 -14 6 -17 -103 -37 -185 -34 -32
1 -32 1 -16 25 15 24 39 36 59 29 6 -2 39 -4 74 -6z m1602 0 c-1 -12 -15 -9
-19 4 -3 6 1 10 8 8 6 -3 11 -8 11 -12z m-2550 -31 c7 4 54 6 103 4 156 -5
376 -4 505 3 83 4 121 3 114 -4 -10 -10 -37 -14 -178 -25 -127 -10 -489 -7
-517 4 -20 8 -28 8 -31 -1 -4 -14 -37 8 -37 25 0 6 6 5 15 -2 8 -6 20 -8 26
-4z m1582 -63 c-3 -9 -27 -14 -72 -15 -36 -1 -79 -3 -96 -4 -169 -16 -191 -15
-213 8 l-21 23 204 1 c164 0 202 -2 198 -13z m689 5 c114 -2 210 -7 214 -11
17 -17 -13 -26 -50 -16 -27 7 -46 7 -65 0 -15 -7 -63 -10 -111 -7 -47 2 -105
1 -130 -3 -25 -3 -72 -2 -105 3 -33 5 -107 10 -165 11 -212 4 -214 4 -201 19
10 11 49 13 209 11 108 -2 290 -6 404 -7z m-1156 -17 c22 -17 23 -20 7 -25
-10 -3 -38 -3 -63 1 -25 3 -109 5 -187 5 -79 0 -143 1 -143 3 0 2 6 10 13 17
10 9 58 14 181 16 153 2 170 1 192 -17z m-466 -3 c0 -5 -6 -9 -12 -10 -29 -4
-330 -9 -365 -6 -7 1 -13 4 -13 8 0 4 55 7 121 8 67 1 123 2 124 4 7 7 145 2
145 -4z m-427 -5 c-7 -2 -19 -2 -25 0 -7 3 -2 5 12 5 14 0 19 -2 13 -5z m-143
-7 c0 -11 -19 -15 -25 -6 -3 5 1 10 9 10 9 0 16 -2 16 -4z m1932 -47 c9 -5 72
-8 140 -8 122 1 198 -7 198 -20 0 -25 -455 -41 -757 -27 -37 1 -42 15 -14 40
16 15 44 18 161 21 78 2 143 5 146 8 7 6 107 -5 126 -14z m-510 -10 c-2 -7
-11 -18 -20 -25 -31 -23 -192 0 -192 26 0 4 18 5 40 3 22 -2 47 0 55 4 23 13
121 6 117 -8z m-375 -3 c43 -1 77 -6 84 -13 10 -11 0 -13 -51 -14 -36 -1 -74
-1 -85 -1 -104 5 -179 2 -187 -6 -6 -6 -17 -8 -25 -5 -8 3 -19 0 -24 -8 -7
-11 -9 -10 -9 4 0 10 -6 17 -12 16 -7 -1 -49 -1 -93 0 -74 2 -78 3 -55 16 18
10 57 14 138 13 62 -1 115 2 119 5 3 4 34 4 67 0 34 -3 93 -7 133 -7z m-564
-6 c14 -6 -22 -8 -108 -8 -92 1 -112 3 -70 7 104 10 155 11 178 1z m-406 -15
c0 -8 -4 -15 -7 -15 -4 0 -13 7 -20 15 -10 12 -9 15 7 15 11 0 20 -7 20 -15z
m2243 -5 c0 -5 -7 -10 -15 -10 -8 0 -15 5 -15 10 0 6 7 10 15 10 8 0 15 -4 15
-10z m-1967 -51 c60 2 77 -1 77 -12 0 -22 -45 -41 -77 -32 -15 5 -35 7 -45 6
-9 -1 -19 2 -22 8 -7 11 -95 4 -110 -9 -10 -7 -56 20 -56 33 0 10 46 15 100
10 30 -3 90 -5 133 -4z m885 -22 c19 -10 32 -20 30 -22 -4 -5 -67 -6 -298 -5
-102 0 -251 -2 -332 -6 -82 -4 -148 -3 -148 2 0 4 10 18 21 30 l21 23 337 -2
c302 -2 339 -4 369 -20z m487 1 c285 -1 496 -4 514 -6 8 -1 11 -5 7 -9 -10
-10 -66 -10 -66 0 0 4 -10 5 -22 1 -13 -4 -140 -9 -283 -11 -143 -2 -308 -5
-367 -6 -96 -2 -105 0 -97 15 13 24 20 24 153 20 67 -2 139 -4 161 -4z m345
-78 l64 -13 -38 -11 c-24 -7 -80 -9 -150 -5 -61 4 -131 5 -156 4 -75 -6 -118
-7 -303 -6 -22 0 -49 20 -42 31 3 4 87 8 187 9 100 1 183 3 185 5 8 8 195 -2
253 -14z m-857 1 c42 -1 57 -5 57 -15 0 -11 -28 -15 -127 -20 -191 -10 -700
-12 -709 -3 -20 20 21 29 129 29 63 0 139 3 169 7 45 6 253 7 481 2z m-893
-11 c0 -6 -7 -10 -15 -10 -8 0 -15 -7 -15 -15 0 -22 -23 -18 -42 9 l-17 23 44
1 c25 1 45 -3 45 -8z m1844 -6 c23 -9 20 -23 -4 -17 -11 3 -20 9 -20 14 0 11
3 11 24 3z m-399 -66 c81 9 283 -3 271 -16 -19 -18 -459 -14 -489 5 -20 13 51
21 128 15 39 -3 79 -5 90 -4z m-322 -15 c30 -17 -64 -35 -127 -25 -32 6 -36 9
-25 19 23 19 122 23 152 6z m-863 -8 c57 0 95 -4 95 -10 0 -6 -35 -9 -90 -7
-105 3 -138 9 -130 22 4 6 12 7 18 3 7 -4 55 -8 107 -8z m625 6 c-22 -22 -186
-30 -452 -21 -58 2 -72 17 -20 22 87 8 480 7 472 -1z m912 -7 c-3 -3 -12 -4
-19 -1 -8 3 -5 6 6 6 11 1 17 -2 13 -5z m-207 -60 c182 -4 165 -2 144 -25 -15
-17 -19 -18 -34 -4 -24 22 -56 23 -125 5 -34 -9 -70 -13 -81 -10 -10 4 -45 6
-77 5 -50 -2 -63 1 -85 22 l-27 24 80 -7 c44 -4 136 -9 205 -10z m-541 -6 c49
0 102 3 118 6 26 6 75 -15 63 -27 -8 -8 -330 -14 -335 -7 -10 17 36 43 58 32
4 -2 48 -4 96 -4z m-808 -9 c57 0 209 0 337 1 128 1 236 0 238 -3 16 -15 -48
-26 -182 -32 -220 -8 -276 -8 -305 3 -19 8 -30 7 -38 -1 -8 -8 -11 -8 -11 1 0
9 -5 10 -17 4 -10 -5 -37 -12 -61 -15 -35 -4 -47 -1 -67 17 -22 20 -25 43 -5
31 4 -3 54 -5 111 -6z m847 -70 c181 1 199 -1 227 -19 35 -23 38 -22 -110 -26
-176 -4 -249 -9 -262 -17 -6 -4 -14 -3 -18 3 -3 5 -31 10 -61 10 l-54 0 16 24
c15 24 41 37 57 28 5 -2 97 -4 205 -3z m441 0 c58 0 101 -5 110 -12 8 -7 16
-11 18 -9 1 1 3 -1 3 -5 -1 -5 -28 -7 -62 -5 -34 1 -76 -2 -94 -7 -28 -8 -38
-6 -61 12 -43 31 -51 41 -29 33 10 -3 62 -7 115 -7z m-792 -29 c-22 -28 -32
-30 -137 -25 -58 3 -133 5 -166 5 -46 -1 -63 3 -67 14 -5 13 2 15 41 13 26 -2
57 -1 70 2 13 3 79 6 147 6 108 0 122 -2 112 -15z m-387 0 c0 -5 -8 -10 -17
-10 -15 0 -16 2 -3 10 19 12 20 12 20 0z m867 -72 c6 -5 14 -5 17 0 8 13 164
-6 189 -23 20 -14 19 -15 -33 -16 -269 -5 -381 -9 -413 -17 -20 -6 -54 -8 -75
-6 -20 3 -70 5 -109 5 -40 0 -73 2 -73 4 0 2 11 16 25 29 23 23 34 26 103 26
42 0 88 -2 102 -4 14 -2 70 2 125 8 100 12 120 11 142 -6z m-617 -16 c97 -16
17 -31 -115 -21 -5 0 -37 0 -70 -1 -81 -3 -85 -2 -85 13 0 10 14 14 52 13 29
-1 70 1 93 5 22 3 49 4 60 2 11 -2 40 -7 65 -11z m825 -82 c39 0 40 0 15 -13
-40 -21 -157 -29 -489 -33 l-305 -3 21 20 c19 19 34 21 207 23 102 1 188 5
191 8 3 2 76 3 162 1 87 -1 176 -3 198 -3z m95 -10 c0 -5 -9 -10 -20 -10 -11
0 -20 5 -20 10 0 6 9 10 20 10 11 0 20 -4 20 -10z m-950 -14 c-11 -11 -99 -18
-114 -9 -15 10 17 18 74 18 32 1 46 -3 40 -9z m866 -78 c5 -7 -25 -12 -53 -9
-7 1 -22 -3 -33 -9 -30 -16 -234 -26 -410 -20 -30 1 -59 1 -65 0 -24 -5 -223
1 -250 6 -53 12 0 23 105 23 52 0 111 5 130 9 45 12 569 12 576 0z m-63 -87
c5 -1 -4 -14 -19 -31 -21 -22 -31 -26 -41 -18 -13 10 -60 8 -128 -7 -57 -12
-355 -11 -363 2 -9 14 -35 -3 -45 -30 -6 -15 -13 -12 -52 25 -25 23 -45 43
-45 43 0 2 98 5 338 8 161 2 295 7 299 10 3 4 15 5 27 2 12 -2 25 -4 29 -4z
m-91 -123 c-17 -17 -43 -19 -228 -22 -117 -1 -166 -5 -178 -15 -19 -16 -46 -8
-46 14 0 12 14 15 63 16 196 4 310 9 315 14 3 3 23 5 46 5 31 0 37 -3 28 -12z
m-65 -94 c-3 -3 -12 -4 -19 -1 -8 3 -5 6 6 6 11 1 17 -2 13 -5z m-87 -75 c0
-4 -9 -13 -21 -19 -16 -9 -25 -8 -40 6 -12 11 -16 20 -9 24 14 9 70 0 70 -11z"/>
<path d="M4293 1429 c-26 -8 -33 -15 -33 -35 0 -14 -5 -35 -11 -46 -8 -15 -8
-22 0 -28 13 -7 6 -35 -15 -60 -51 -63 -114 -120 -138 -126 -16 -4 -57 -23
-90 -42 -34 -19 -71 -40 -83 -47 -27 -14 -132 -120 -190 -191 -85 -103 -114
-261 -70 -376 19 -49 84 -138 101 -138 3 0 34 -14 68 -31 53 -26 163 -64 243
-85 11 -3 81 -8 155 -11 74 -3 140 -10 146 -14 6 -5 40 -2 80 7 69 16 89 23
174 68 25 13 60 29 78 36 17 7 32 17 32 23 0 13 76 105 108 131 13 10 21 21
18 24 -4 3 1 13 9 22 9 10 32 44 52 76 31 51 37 69 40 134 2 48 -1 87 -9 105
-32 73 -100 174 -139 206 -23 19 -56 47 -73 62 -17 15 -53 40 -81 54 -27 14
-66 43 -86 63 -20 21 -56 48 -80 61 -76 39 -119 71 -125 95 -4 13 -12 24 -18
24 -7 0 -12 10 -12 21 1 27 -9 30 -51 18z m60 -156 c-7 -2 -19 -2 -25 0 -7 3
-2 5 12 5 14 0 19 -2 13 -5z m388 -846 c-10 -9 -11 -8 -5 6 3 10 9 15 12 12 3
-3 0 -11 -7 -18z m-251 -17 c0 -5 -8 -10 -17 -10 -15 0 -16 2 -3 10 19 12 20
12 20 0z m218 -20 c-7 -11 -16 -20 -20 -20 -5 0 -3 9 4 20 7 11 16 20 20 20 5
0 3 -9 -4 -20z m-48 -34 c0 -2 -7 -7 -16 -10 -8 -3 -12 -2 -9 4 6 10 25 14 25
6z m-673 -22 c-3 -3 -12 -4 -19 -1 -8 3 -5 6 6 6 11 1 17 -2 13 -5z"/>
</g>
</svg>
