<?xml version="1.0" standalone="no"?>
<!DOCTYPE svg PUBLIC "-//W3C//DTD SVG 20010904//EN"
 "http://www.w3.org/TR/2001/REC-SVG-20010904/DTD/svg10.dtd">
<svg version="1.0" xmlns="http://www.w3.org/2000/svg"
 width="515.000000pt" height="453.000000pt" viewBox="0 0 515.000000 453.000000"
 preserveAspectRatio="xMidYMid meet">
<metadata>
Created by potrace 1.16, written by Peter Selinger 2001-2019
</metadata>
<g transform="translate(0.000000,453.000000) scale(0.100000,-0.100000)"
fill="#000000" stroke="none">
<path d="M3426 4345 c-17 -13 -33 -22 -38 -19 -4 3 -8 0 -8 -6 0 -6 -29 -40
-64 -75 -35 -36 -74 -80 -87 -100 -13 -19 -46 -54 -72 -77 -27 -24 -88 -78
-135 -120 -48 -43 -93 -78 -99 -78 -7 0 -13 -4 -13 -8 0 -20 -348 -349 -471
-446 -13 -10 -31 -25 -40 -33 -22 -19 -67 2 -75 34 -12 46 -92 72 -118 39 -27
-34 -335 -119 -424 -117 -31 1 -92 -49 -92 -74 0 -18 20 -60 20 -42 0 12 52
-19 91 -55 43 -39 99 -120 99 -143 0 -17 -53 -93 -119 -169 -23 -26 -41 -50
-41 -54 0 -4 -21 -29 -47 -57 -25 -27 -63 -75 -83 -106 -37 -58 -90 -124 -149
-188 -18 -20 -45 -52 -59 -71 -15 -19 -63 -73 -107 -119 -107 -112 -113 -117
-186 -181 -35 -30 -89 -80 -119 -112 -31 -32 -61 -58 -67 -58 -6 0 -16 -13
-21 -29 -11 -32 -39 -51 -81 -57 -75 -9 -121 -16 -171 -25 -30 -5 -65 -10 -78
-9 -33 0 -144 -39 -165 -58 -12 -10 -14 -19 -7 -26 15 -15 12 -30 -3 -17 -8 6
-17 8 -20 4 -11 -10 -8 -43 3 -43 5 0 16 -12 24 -28 8 -15 47 -61 88 -103 40
-41 100 -107 133 -145 87 -101 207 -214 227 -214 4 0 8 -4 8 -9 0 -6 27 -43
60 -84 44 -55 73 -81 112 -100 68 -33 229 -188 327 -315 18 -24 35 -41 37 -39
6 5 94 -83 94 -94 0 -5 6 -9 14 -9 8 0 16 -3 18 -8 2 -4 26 -25 53 -47 28 -22
88 -77 135 -124 93 -92 183 -156 233 -166 18 -3 56 -16 86 -27 41 -17 57 -19
71 -10 10 6 34 9 53 5 l34 -5 6 48 c3 27 1 50 -4 52 -13 5 -11 45 5 94 8 24
22 70 31 103 9 33 22 74 28 90 7 17 12 32 12 35 0 3 11 17 25 32 49 53 60 68
60 77 0 5 24 33 53 63 29 29 63 68 76 87 13 18 56 66 95 106 99 101 200 213
204 225 2 6 8 8 13 4 5 -3 9 0 9 6 0 6 10 25 23 41 26 37 157 169 166 169 4 0
15 15 26 33 10 17 40 54 67 81 l48 50 0 -45 c0 -24 -7 -55 -16 -67 -25 -36
-10 -75 39 -102 23 -13 56 -33 72 -45 17 -12 41 -26 55 -30 14 -4 34 -16 45
-26 11 -10 25 -15 30 -11 16 11 33 73 34 117 0 22 9 68 20 102 11 35 25 90 31
123 6 33 17 79 25 101 8 23 15 54 15 70 0 16 4 29 8 29 5 0 14 31 21 70 7 38
17 73 22 76 6 3 9 13 7 22 -1 10 1 18 6 19 17 3 24 27 14 46 -8 16 -7 22 6 29
12 7 14 14 7 26 -10 18 11 50 80 123 22 23 39 47 40 53 0 6 20 27 44 46 24 19
44 40 44 46 1 10 29 36 66 62 6 4 30 34 55 67 49 64 89 113 105 126 6 5 26 22
46 39 20 16 41 30 47 30 6 0 18 10 27 23 8 12 18 21 20 20 14 -8 25 -1 25 15
0 14 9 19 42 21 62 3 86 30 93 99 6 56 9 64 62 183 16 35 28 69 26 76 -2 6 1
14 6 18 6 3 11 20 11 36 0 23 12 43 49 80 28 28 48 56 45 64 -10 26 40 93 81
108 9 4 14 11 11 16 -3 5 1 11 9 15 29 11 14 46 -45 107 -59 60 -73 92 -49
116 6 6 8 17 3 24 -4 7 -9 26 -11 43 -2 16 -6 32 -8 35 -3 3 -30 6 -59 6 -57
2 -54 -1 -194 135 -8 8 -33 24 -56 35 -65 32 -76 39 -76 47 0 5 -7 8 -16 8 -9
0 -34 18 -55 39 -21 22 -51 47 -66 55 -15 8 -41 26 -57 40 -16 14 -35 26 -42
26 -7 0 -14 4 -16 8 -1 5 -39 35 -83 67 -44 33 -94 74 -111 92 -17 18 -36 33
-42 33 -5 0 -36 14 -67 30 -68 36 -91 37 -129 5z m319 -223 c-3 -3 -11 0 -18
7 -9 10 -8 11 6 5 10 -3 15 -9 12 -12z m-386 -34 c-5 -18 -15 -39 -23 -47 -13
-13 -14 -10 -3 25 9 32 22 53 34 54 1 0 -3 -14 -8 -32z m273 -10 c-8 -8 -12
-9 -12 -1 0 6 -3 20 -6 30 -7 17 -6 17 12 1 14 -14 16 -20 6 -30z m-9 -33 c-3
-9 -8 -14 -10 -11 -3 3 -2 9 2 15 9 16 15 13 8 -4z m243 -83 c16 -6 19 -12 13
-27 -4 -11 -8 -15 -8 -8 -1 11 -38 29 -53 25 -5 -1 -8 3 -8 8 0 11 23 12 56 2z
m-518 -127 c-18 -37 -24 -42 -40 -34 -10 5 -18 7 -18 3 0 -4 -3 -5 -6 -1 -3 3
9 32 27 65 33 58 33 59 46 35 10 -20 9 -30 -9 -68z m454 78 c-14 -34 -52 -103
-57 -103 -3 0 8 27 25 60 28 55 49 83 32 43z m216 -5 c15 -15 16 -55 2 -63 -6
-4 -17 -1 -25 5 -11 9 -12 17 -4 32 8 16 8 23 -2 29 -11 7 -11 9 2 9 8 0 20
-5 27 -12z m-934 -95 c-28 -42 -53 -68 -65 -69 -24 -2 -24 0 5 42 18 26 90 92
103 94 1 0 -18 -30 -43 -67z m1051 -23 c-3 -5 -17 -10 -31 -10 -13 0 -24 5
-24 10 0 6 14 10 31 10 17 0 28 -4 24 -10z m95 -29 c0 -10 -7 -24 -15 -31 -8
-6 -14 -15 -13 -18 2 -22 -7 -34 -54 -73 -41 -35 -48 -38 -38 -19 7 14 16 27
20 30 16 10 60 104 60 127 0 21 3 22 20 13 11 -6 20 -19 20 -29z m-720 11 c0
-5 -7 -17 -15 -28 -14 -18 -14 -17 -4 9 12 27 19 34 19 19z m396 -47 c-12 -27
-57 -101 -82 -133 -1 -2 -11 -1 -22 2 -19 6 -19 9 -5 37 8 17 26 34 39 39 13
5 24 16 24 23 0 15 40 65 53 66 4 1 1 -15 -7 -34z m-248 -51 c-18 -27 -38 -53
-45 -59 -7 -5 -17 -23 -23 -38 -5 -16 -14 -26 -20 -22 -9 6 45 107 61 113 5 2
9 8 9 14 0 5 10 24 22 41 38 53 34 6 -4 -49z m678 -5 c28 -30 29 -31 9 -44
-11 -8 -27 -20 -35 -28 -8 -8 -30 -22 -48 -31 -18 -9 -36 -25 -39 -34 -4 -9
-17 -30 -30 -45 -13 -16 -26 -40 -29 -53 -4 -14 -31 -49 -61 -79 -44 -43 -54
-60 -50 -77 4 -12 -2 -41 -12 -63 -29 -65 -34 -141 -16 -213 l16 -62 -25 -33
c-14 -19 -24 -36 -21 -39 9 -9 -23 -30 -35 -23 -6 4 -8 16 -4 27 4 15 3 18 -6
13 -13 -8 -12 20 5 195 5 45 28 115 46 135 28 33 54 142 42 176 -10 25 -9 31
6 39 10 5 35 34 56 65 21 30 42 55 47 55 4 0 8 4 8 8 0 13 123 141 136 142 5
0 23 -14 40 -31z m-254 -106 c-6 -10 -27 -37 -48 -58 -25 -27 -30 -30 -15 -10
12 17 32 44 44 62 23 33 35 38 19 6z m-1128 -33 c-13 -27 -29 -52 -35 -55 -5
-4 3 19 18 49 15 31 31 56 35 56 4 0 -4 -22 -18 -50z m1479 3 c5 -43 2 -51
-21 -74 -80 -78 -109 -117 -116 -154 -9 -52 -28 -95 -41 -95 -31 0 -66 -111
-70 -220 -3 -78 -13 -131 -25 -140 -4 -3 -10 -23 -14 -45 -3 -22 -5 -41 -6
-42 0 -2 -6 -3 -12 -3 -21 -1 -70 -49 -62 -62 5 -8 2 -9 -9 -5 -11 4 -17 1
-17 -8 0 -8 -4 -15 -10 -15 -5 0 -10 11 -10 25 0 14 -4 25 -8 25 -4 0 -6 17
-4 37 5 40 53 109 82 118 14 4 16 17 13 81 -1 42 -7 82 -11 88 -13 15 -21 66
-11 66 4 0 5 16 3 36 -3 25 2 44 16 64 11 15 20 41 20 57 0 20 9 36 31 53 51
41 59 50 66 78 11 46 95 142 125 142 9 0 21 6 25 14 8 13 28 24 49 25 6 1 14
-20 17 -46z m-1199 -75 c-7 -35 -34 -82 -41 -74 -3 2 3 16 12 30 9 14 14 30
10 36 -6 10 11 40 22 40 3 0 1 -15 -3 -32z m1289 -15 c4 -3 -2 -12 -13 -20
-11 -8 -20 -22 -20 -31 0 -9 -11 -28 -25 -42 -14 -15 -28 -40 -31 -56 -3 -16
-12 -37 -21 -46 -9 -10 -13 -18 -9 -18 4 0 -4 -10 -17 -22 -16 -15 -32 -53
-47 -108 -13 -47 -39 -119 -58 -160 -19 -41 -37 -91 -40 -112 -2 -21 -9 -38
-14 -38 -6 0 -8 12 -4 28 11 47 16 94 20 184 5 86 21 136 55 168 26 25 41 58
41 90 0 31 31 71 114 152 38 37 56 45 69 31z m-2218 -159 c7 2 17 -6 24 -20 6
-13 15 -24 21 -24 6 0 8 -4 5 -10 -3 -5 3 -10 13 -10 25 0 38 -16 47 -57 3
-18 14 -35 24 -38 13 -4 20 -20 24 -57 8 -65 35 -105 163 -236 56 -57 106
-113 111 -125 6 -12 17 -35 24 -52 14 -30 54 -79 98 -118 22 -21 71 -110 71
-131 0 -5 7 -18 17 -28 9 -10 12 -18 6 -18 -11 0 -95 43 -126 65 -11 7 -26 11
-33 8 -8 -3 -22 -2 -31 2 -10 5 -46 7 -80 6 -34 -1 -64 2 -68 8 -4 7 -20 4
-45 -9 -45 -23 -85 -25 -154 -7 -42 11 -50 17 -61 49 -12 37 -13 143 -1 156
12 11 56 13 56 2 0 -5 11 -10 25 -10 20 0 25 6 28 33 10 72 7 82 -25 81 -16 0
-34 -6 -40 -12 -18 -18 -77 -14 -108 8 -15 11 -29 17 -32 14 -3 -2 -11 2 -18
11 -7 8 -17 15 -23 15 -17 0 -117 70 -132 93 -7 12 -17 34 -20 50 -4 15 -11
27 -16 27 -5 0 -9 8 -9 18 0 9 -15 57 -34 105 -29 72 -44 95 -85 133 -53 48
-60 60 -38 62 60 7 103 14 166 27 50 10 78 11 86 5 8 -7 21 -7 36 -1 13 5 28
9 34 9 5 0 13 11 17 23 9 22 9 22 40 -15 17 -20 36 -35 43 -32z m259 51 c-4
-8 -10 -15 -15 -15 -4 0 -6 7 -3 15 4 8 10 15 15 15 4 0 6 -7 3 -15z m991 -64
c-22 -44 -26 -38 -7 10 9 23 18 37 20 31 2 -6 -4 -24 -13 -41z m-1008 7 c-3
-7 -5 -2 -5 12 0 14 2 19 5 13 2 -7 2 -19 0 -25z m661 -23 c-1 -25 -11 -47
-34 -73 -18 -20 -33 -32 -34 -26 0 13 58 134 65 134 2 0 4 -16 3 -35z m-491
-17 c-3 -8 -6 -5 -6 6 -1 11 2 17 5 13 3 -3 4 -12 1 -19z m718 -65 c-10 -82
-27 -143 -45 -165 l-19 -23 5 25 c3 14 9 52 15 84 8 49 35 116 46 116 2 0 1
-17 -2 -37z m-165 -52 c-11 -42 -30 -64 -30 -36 0 20 31 88 37 81 2 -2 -1 -22
-7 -45z m-592 9 c-1 -16 -6 -30 -10 -30 -9 0 -10 7 -2 38 9 31 15 27 12 -8z
m0 -86 c-2 -15 -8 -29 -13 -31 -12 -4 -19 52 -9 68 11 18 26 -7 22 -37z m1122
5 c0 -10 -4 -19 -9 -19 -5 0 -17 -3 -25 -6 -12 -5 -15 -2 -10 12 17 45 44 54
44 13z m-663 -84 c-6 -19 -12 -33 -15 -31 -7 7 9 66 18 66 4 0 3 -16 -3 -35z
m-217 -24 c0 -6 -4 -13 -10 -16 -5 -3 -10 1 -10 9 0 9 5 16 10 16 6 0 10 -4
10 -9z m-934 -88 c-9 -9 34 -63 58 -74 22 -9 57 -30 66 -39 16 -16 80 -60 88
-60 5 0 20 -16 34 -35 22 -31 26 -47 27 -123 3 -161 8 -168 115 -183 104 -14
116 -19 116 -50 0 -10 5 -19 10 -19 6 0 10 -6 9 -12 -1 -7 1 -21 6 -31 4 -10
5 -20 2 -23 -8 -9 25 -45 51 -55 17 -7 40 1 110 38 l87 46 103 -6 c59 -3 110
-11 119 -18 11 -10 19 -10 33 -2 17 11 18 6 20 -80 6 -223 0 -291 -27 -317
-10 -10 -56 -60 -103 -111 -47 -51 -128 -137 -180 -191 -52 -53 -99 -102 -105
-108 -5 -6 -137 -136 -292 -289 -155 -154 -289 -291 -298 -304 -22 -35 -11
-77 21 -77 17 0 27 9 38 33 7 18 35 58 62 88 37 41 589 602 721 732 13 12 49
48 81 80 54 53 61 57 85 48 15 -6 27 -17 27 -26 0 -40 54 15 69 71 6 23 21 49
32 60 l22 19 -6 -54 c-9 -80 -30 -108 -242 -325 -33 -33 -58 -65 -57 -71 2 -5
0 -7 -4 -2 -10 10 -55 -33 -47 -46 4 -6 1 -7 -6 -2 -11 6 -47 -30 -45 -45 0
-3 -14 -18 -33 -35 -18 -16 -41 -42 -51 -56 -21 -34 -101 -139 -119 -159 -33
-36 -60 -69 -83 -101 -24 -33 -59 -72 -200 -225 -36 -38 -89 -96 -118 -128
-29 -31 -50 -61 -47 -66 3 -5 -2 -29 -10 -53 -11 -34 -13 -52 -5 -73 10 -26 5
-83 -9 -94 -3 -3 -11 -18 -16 -35 -8 -24 -17 -31 -44 -33 -34 -4 -131 26 -131
40 0 4 -8 8 -18 8 -24 0 -66 36 -58 48 5 9 -47 34 -60 29 -3 -1 -12 10 -20 26
-8 15 -19 27 -24 27 -6 0 -9 4 -8 9 2 4 -26 34 -62 66 -36 31 -72 64 -80 74
-8 9 -50 43 -93 74 -43 32 -75 62 -72 66 2 5 -2 12 -11 15 -8 3 -13 10 -10 15
3 5 -11 24 -31 42 -35 30 -73 95 -73 124 0 16 -22 25 -60 25 -16 0 -36 8 -46
17 -10 10 -21 18 -26 18 -4 0 -20 14 -35 30 -16 17 -50 49 -76 72 -31 26 -46
47 -41 54 4 7 3 9 -4 5 -6 -3 -13 -2 -17 4 -4 6 -11 8 -16 5 -5 -4 -9 1 -9 9
0 9 -4 16 -10 16 -5 0 -10 9 -10 20 0 11 -5 20 -10 20 -10 0 -42 31 -96 91
-12 13 -43 44 -68 68 -25 24 -46 49 -46 55 0 7 -8 19 -17 27 -10 9 -36 36 -58
61 -22 25 -54 62 -72 82 -18 20 -36 36 -40 36 -5 0 -14 9 -21 20 -7 11 -8 20
-2 20 5 0 40 14 77 31 63 29 148 49 204 49 149 0 140 -3 181 43 21 23 50 54
63 69 14 14 25 31 25 37 0 6 4 11 9 11 4 0 20 17 33 38 14 20 37 51 52 67 14
17 26 34 26 38 0 5 4 6 9 3 5 -3 12 6 15 19 4 14 10 24 14 21 4 -2 18 11 32
30 14 18 31 34 38 34 8 0 12 5 10 11 -2 7 8 24 22 38 14 15 39 45 55 66 62 80
147 175 156 175 5 0 9 4 9 10 0 14 31 49 133 152 48 49 87 91 87 94 0 10 59
70 113 115 20 17 37 35 37 40 0 6 7 20 16 34 l15 24 21 -21 c11 -11 17 -22 14
-25z m1483 -54 c-23 -47 -41 -58 -47 -28 -3 19 61 106 66 90 2 -7 -6 -35 -19
-62z m-298 14 c-19 -50 -62 -206 -76 -278 -11 -59 -13 -63 -14 -30 -1 51 54
273 80 322 17 31 24 20 10 -14z m-371 -38 c0 -8 -4 -15 -9 -15 -5 0 -11 7 -15
15 -3 9 0 15 9 15 8 0 15 -7 15 -15z m28 -27 c8 -8 15 -8 25 0 11 9 13 3 13
-38 -1 -46 -2 -48 -19 -33 -9 9 -15 18 -12 21 2 3 -6 15 -20 27 -13 13 -21 26
-18 29 9 9 18 7 31 -6z m223 -65 c-12 -20 -14 -14 -5 12 4 9 9 14 11 11 3 -2
0 -13 -6 -23z m-11 -30 c0 -5 -5 -15 -10 -23 -8 -12 -10 -11 -10 8 0 12 5 22
10 22 6 0 10 -3 10 -7z m657 -15 c-3 -8 -6 -5 -6 6 -1 11 2 17 5 13 3 -3 4
-12 1 -19z m-10 -50 c-3 -7 -5 -2 -5 12 0 14 2 19 5 13 2 -7 2 -19 0 -25z
m103 28 c0 -3 -4 -8 -10 -11 -5 -3 -10 -1 -10 4 0 6 5 11 10 11 6 0 10 -2 10
-4z m-763 -116 c-1 -11 -7 -20 -14 -20 -16 0 -17 12 -1 28 16 16 17 15 15 -8z
m813 -50 c0 -5 -5 -10 -11 -10 -5 0 -7 5 -4 10 3 6 8 10 11 10 2 0 4 -4 4 -10z
m-20 -24 c0 -3 -4 -8 -10 -11 -5 -3 -10 -1 -10 4 0 6 5 11 10 11 6 0 10 -2 10
-4z m-556 -50 c-3 -15 -8 -25 -11 -23 -2 3 -1 17 3 31 3 15 8 25 11 23 2 -3 1
-17 -3 -31z m-485 -25 c33 -14 40 -19 27 -24 -10 -4 -25 -7 -34 -7 -9 0 -46
-14 -80 -30 -35 -17 -68 -30 -73 -30 -12 0 -47 82 -41 98 7 19 148 15 201 -7z
m321 -6 c0 -14 -2 -25 -4 -25 -2 0 -11 11 -20 25 -16 24 -16 25 4 25 15 0 20
-7 20 -25z m20 -39 c0 -3 -4 -8 -10 -11 -5 -3 -10 -1 -10 4 0 6 5 11 10 11 6
0 10 -2 10 -4z m510 -80 c0 -2 -8 -10 -17 -17 -16 -13 -17 -12 -4 4 13 16 21
21 21 13z m-360 -106 c43 -19 100 -62 100 -76 0 -7 9 -15 19 -19 34 -11 75
-131 53 -158 -6 -6 -13 -30 -17 -52 -4 -22 -18 -85 -30 -140 -13 -55 -31 -136
-40 -180 -22 -103 -34 -128 -51 -114 -8 6 -24 9 -37 5 -39 -10 -45 16 -31 149
19 177 24 210 32 213 5 1 7 15 5 30 -2 15 2 51 10 80 10 36 11 52 3 52 -7 0
-7 3 -1 8 16 11 35 50 35 69 0 24 -51 83 -72 83 -23 0 -54 -56 -62 -112 -7
-44 -55 -118 -78 -118 -4 0 -6 48 -5 108 2 59 1 135 -3 170 -3 34 -2 62 2 62
4 0 5 7 2 15 -4 9 22 -1 68 -25 40 -22 84 -44 98 -50z m310 45 c-7 -9 -15 -13
-17 -11 -7 7 7 26 19 26 6 0 6 -6 -2 -15z m-61 -69 c-18 -20 -35 -33 -38 -31
-2 3 11 21 29 40 18 19 36 33 38 30 2 -2 -10 -20 -29 -39z"/>
<path d="M798 1636 c-68 -15 -88 -29 -81 -57 10 -36 39 -42 85 -17 24 13 45
25 48 28 3 3 19 10 35 15 17 6 30 17 30 25 0 20 -45 22 -117 6z"/>
<path d="M985 1501 c-6 -5 -27 -14 -47 -21 -21 -6 -38 -15 -38 -20 0 -5 -9
-12 -20 -15 -15 -5 -20 -15 -20 -40 0 -49 27 -50 75 -4 22 21 52 44 67 50 15
6 29 18 33 27 9 24 -30 43 -50 23z"/>
<path d="M1185 1358 c-11 -11 -36 -27 -55 -36 -43 -21 -51 -53 -18 -77 22 -16
24 -15 76 40 53 57 67 96 35 94 -10 0 -27 -9 -38 -21z"/>
<path d="M1319 1110 c-15 -14 -34 -39 -43 -57 -17 -35 -21 -83 -7 -83 5 0 16
-3 24 -6 11 -4 17 4 22 28 4 18 20 50 36 70 31 39 39 74 15 65 -8 -3 -16 -3
-18 1 -2 4 -15 -4 -29 -18z"/>
<path d="M1525 1000 c-38 -15 -77 -66 -73 -95 4 -34 45 -55 54 -27 18 54 29
75 45 80 15 6 16 11 6 28 -9 16 -17 20 -32 14z"/>
<path d="M1660 885 c0 -8 -4 -15 -9 -15 -5 0 -21 -24 -36 -54 -22 -44 -24 -58
-15 -75 6 -11 16 -20 23 -18 19 3 44 39 51 75 4 17 11 32 16 32 11 0 20 39 13
56 -7 19 -43 18 -43 -1z"/>
<path d="M1920 666 c0 -8 -6 -21 -13 -28 -7 -7 -22 -37 -34 -66 -24 -56 -20
-94 11 -105 20 -8 30 11 51 94 23 89 24 113 3 117 -11 2 -18 -3 -18 -12z"/>
</g>
</svg>
