<?xml version="1.0" standalone="no"?>
<!DOCTYPE svg PUBLIC "-//W3C//DTD SVG 20010904//EN"
 "http://www.w3.org/TR/2001/REC-SVG-20010904/DTD/svg10.dtd">
<svg version="1.0" xmlns="http://www.w3.org/2000/svg"
 width="539.000000pt" height="339.000000pt" viewBox="0 0 539.000000 339.000000"
 preserveAspectRatio="xMidYMid meet">
<metadata>
Created by potrace 1.16, written by Peter Selinger 2001-2019
</metadata>
<g transform="translate(0.000000,339.000000) scale(0.100000,-0.100000)"
fill="#000000" stroke="none">
<path d="M1020 2928 c-77 -56 -107 -99 -132 -192 -11 -42 -11 -49 3 -56 11 -7
15 -20 12 -47 -10 -109 -8 -125 22 -143 22 -14 23 -18 12 -40 -7 -14 -21 -51
-31 -82 -15 -49 -16 -63 -6 -94 7 -21 23 -47 36 -59 l23 -22 -19 -35 c-23 -44
-20 -99 9 -156 l22 -44 -25 -33 c-41 -53 -34 -141 16 -195 28 -31 28 -33 11
-52 -28 -31 -25 -180 5 -229 l22 -35 -20 -39 c-11 -22 -20 -47 -20 -56 0 -21
37 -106 50 -114 5 -3 -2 -22 -15 -42 -22 -32 -26 -48 -29 -113 -1 -41 18 -99
45 -132 31 -39 30 -44 -6 -108 -29 -50 -11 -124 32 -134 23 -6 22 -8 -25 -54
-33 -32 -51 -58 -56 -82 -15 -82 -17 -133 -6 -178 9 -41 19 -55 60 -85 36 -27
60 -37 87 -37 21 0 54 -4 74 -9 25 -6 48 -4 75 6 79 29 128 42 135 37 5 -3 20
3 34 12 14 9 25 13 25 9 0 -4 7 -2 15 5 8 7 15 21 15 32 0 15 4 18 18 13 52
-23 168 -9 233 27 l35 20 34 -32 c19 -18 46 -37 60 -42 26 -10 89 -4 151 14
29 8 42 7 70 -8 61 -32 106 -34 170 -5 42 19 48 19 95 5 66 -20 175 -13 239
15 46 20 49 21 68 4 29 -27 197 -24 251 4 36 18 43 19 84 7 61 -19 109 -10
174 33 34 23 40 24 72 12 48 -17 196 3 237 32 22 16 33 18 48 9 43 -23 145 -8
214 31 15 8 22 6 32 -8 10 -14 31 -19 86 -23 71 -5 72 -6 91 -41 19 -37 29
-48 108 -120 52 -48 88 -68 154 -85 45 -12 51 -11 74 6 14 11 32 20 42 20 9 0
25 9 35 20 11 12 36 31 57 42 41 23 44 32 69 155 12 58 11 66 -9 115 -12 30
-22 58 -22 63 0 6 14 36 30 68 43 80 49 156 20 226 -15 34 -33 57 -52 67 -22
12 -27 18 -19 28 20 24 53 138 46 163 -3 13 -15 33 -26 44 -18 18 -19 22 -5
47 42 75 47 92 37 129 -11 40 -37 73 -58 73 -17 0 -17 0 7 51 25 56 25 115 0
156 -18 30 -18 33 -2 42 9 6 14 11 10 11 -4 0 0 16 8 35 20 48 18 101 -7 151
l-22 42 24 38 c19 32 23 50 21 104 -4 111 -8 119 -58 132 -47 13 -51 18 -32
48 10 15 9 30 -5 74 -10 31 -24 62 -33 70 -12 13 -11 18 11 42 64 69 59 210
-11 325 -40 66 -47 72 -96 88 -21 7 -38 17 -38 23 0 6 -3 8 -7 5 -3 -4 -11 -3
-17 2 -6 4 -43 5 -82 1 -90 -9 -204 -67 -236 -120 -12 -19 -23 -37 -25 -39 -2
-3 -16 11 -32 29 -24 30 -35 35 -68 34 -22 -1 -75 -15 -118 -33 -84 -34 -91
-33 -138 18 -31 34 -69 41 -156 28 -53 -8 -131 -43 -131 -58 0 -4 -9 -11 -20
-14 -21 -7 -116 41 -140 70 -7 8 -22 15 -34 15 -34 0 -136 -35 -208 -71 l-68
-33 -39 38 c-38 37 -40 38 -92 31 -28 -4 -91 -18 -138 -30 -83 -23 -87 -23
-106 -5 -52 47 -115 54 -224 26 -77 -20 -73 -20 -97 2 -57 51 -144 54 -238 8
l-51 -25 -30 29 c-50 49 -95 49 -190 1 -71 -36 -81 -39 -90 -24 -34 55 -76 99
-120 124 -75 44 -94 50 -165 55 -61 4 -68 3 -110 -28z m90 -55 c0 -5 17 -9 37
-10 20 -1 59 -14 87 -29 51 -27 109 -82 101 -95 -3 -4 4 -18 15 -32 11 -14 20
-30 20 -35 0 -17 38 -24 61 -11 13 6 32 21 43 32 80 76 176 75 201 -2 12 -39
66 -35 105 9 63 69 127 67 197 -6 18 -18 38 -31 45 -29 7 3 35 16 62 30 79 40
171 29 208 -24 19 -27 48 -30 90 -9 53 26 116 45 168 51 42 5 46 3 81 -34 44
-48 64 -49 137 -6 103 60 190 84 207 57 3 -5 35 -26 71 -46 63 -35 66 -36 109
-23 25 7 45 17 45 21 0 4 4 8 10 8 5 0 26 11 46 25 27 18 50 25 85 25 41 0 51
-4 73 -31 18 -21 24 -35 17 -43 -7 -8 -5 -12 7 -13 9 -1 34 -6 54 -11 24 -6
40 -6 46 0 9 9 47 26 149 68 24 10 63 -16 63 -43 0 -9 5 -19 10 -22 6 -3 10
-17 10 -30 0 -14 7 -25 18 -27 32 -6 70 4 76 21 3 9 12 35 20 59 22 67 101
133 176 147 56 10 157 -40 194 -96 40 -60 48 -153 16 -203 -14 -24 -19 -43
-15 -57 6 -18 4 -21 -9 -16 -10 4 -22 -2 -32 -18 -14 -21 -14 -30 -4 -55 7
-17 20 -30 29 -30 37 0 54 -47 29 -75 -32 -36 -38 -45 -38 -63 0 -37 22 -51
84 -54 l59 -3 4 -43 c3 -30 -2 -56 -18 -87 -13 -25 -26 -45 -30 -45 -13 0 -39
-49 -33 -64 3 -8 21 -24 39 -35 19 -11 35 -29 37 -43 4 -25 -20 -88 -34 -88
-14 0 -48 -39 -48 -55 0 -8 16 -30 35 -49 19 -20 35 -44 35 -55 0 -29 -21 -72
-48 -100 -16 -16 -22 -31 -18 -45 3 -11 6 -26 6 -33 0 -7 18 -13 42 -15 35 -2
44 -7 52 -29 7 -21 3 -35 -25 -77 -19 -29 -42 -54 -52 -58 -10 -3 -22 -17 -27
-30 -18 -46 11 -72 55 -52 46 21 50 -1 19 -86 -26 -70 -32 -78 -71 -96 -45
-21 -56 -47 -29 -69 11 -9 27 -9 71 3 53 14 58 13 76 -5 34 -34 28 -113 -12
-178 -61 -99 -62 -102 -48 -130 13 -28 19 -48 21 -68 1 -7 5 -13 10 -13 9 0 6
-27 -8 -108 -8 -42 -80 -103 -129 -109 -52 -5 -80 12 -207 128 -16 15 -27 31
-26 35 4 12 -23 76 -38 92 -16 15 -27 15 -42 0 -6 -6 -34 -12 -61 -14 -46 -2
-53 0 -72 27 -24 35 -58 38 -85 8 -43 -48 -115 -63 -164 -34 -67 39 -72 39
-105 1 -16 -19 -43 -40 -58 -45 -46 -18 -111 -13 -140 9 -27 21 -47 26 -47 11
0 -5 -29 -24 -64 -42 -63 -33 -65 -33 -118 -21 -73 18 -93 17 -125 -6 -56 -40
-168 -41 -213 -2 -22 19 -70 28 -70 12 0 -18 -83 -42 -148 -42 -85 0 -105 6
-117 33 -15 33 -46 28 -88 -15 -29 -29 -46 -38 -71 -38 -36 0 -81 29 -91 59
-12 39 -68 29 -100 -16 -10 -14 -31 -24 -60 -28 -38 -6 -49 -3 -83 21 -22 16
-48 41 -58 56 -17 25 -20 25 -45 13 -15 -8 -29 -20 -32 -28 -7 -18 -74 -37
-135 -37 -44 0 -54 4 -68 25 -26 39 -56 32 -103 -24 -23 -27 -41 -53 -41 -59
0 -10 -26 -22 -92 -42 -52 -16 -182 -5 -214 17 -13 10 -27 30 -31 46 -3 15 -9
30 -13 32 -5 3 -2 31 5 62 11 47 22 66 67 109 29 29 60 53 69 54 44 1 22 78
-26 93 -16 5 -38 16 -47 24 -16 14 -16 16 3 36 10 11 19 27 19 34 0 8 5 11 10
8 6 -3 10 -1 10 5 0 6 4 9 9 6 5 -3 11 1 15 9 3 8 11 15 19 15 9 0 12 10 9 35
-2 19 -8 33 -12 30 -4 -3 -10 1 -13 8 -3 9 -16 12 -35 9 -23 -3 -37 2 -56 21
-49 49 -27 164 34 185 19 7 25 16 24 33 -2 38 -15 59 -35 59 -12 0 -24 13 -34
37 -14 32 -14 38 0 60 9 13 29 26 44 29 29 6 41 32 41 89 0 21 -4 23 -49 19
l-48 -3 -11 55 c-14 67 -5 94 41 123 28 17 33 25 29 50 -3 21 -11 31 -30 36
-24 6 -61 43 -73 74 -10 26 11 69 46 99 18 15 36 39 40 53 6 22 2 28 -34 44
-32 14 -42 25 -47 51 -8 42 0 66 37 105 16 18 31 41 32 52 2 20 -5 25 -75 58
-24 11 -27 16 -22 46 6 37 41 103 54 103 4 0 13 14 19 30 14 42 -3 76 -45 90
-27 9 -32 15 -25 28 15 29 25 112 12 112 -20 0 -32 38 -19 62 33 61 64 101 87
113 29 16 51 19 51 8z"/>
<path d="M3586 2258 c-29 -23 -34 -33 -26 -44 7 -7 9 -17 6 -22 -3 -6 8 -16
26 -23 28 -12 32 -11 49 10 24 29 24 56 1 86 l-19 24 -37 -31z"/>
<path d="M3059 2263 c-21 -5 -41 -50 -34 -73 6 -20 56 -31 79 -18 19 11 20 28
5 62 -13 27 -25 34 -50 29z"/>
<path d="M2502 2244 c-24 -17 -30 -62 -10 -82 17 -17 75 -15 81 2 8 19 -3 57
-21 79 -18 21 -22 21 -50 1z"/>
<path d="M1535 2224 c-17 -18 -12 -52 11 -70 39 -31 91 31 58 67 -21 23 -47
24 -69 3z"/>
<path d="M2061 2201 c-15 -27 -14 -56 3 -70 19 -16 73 -3 79 19 13 51 -59 95
-82 51z"/>
<path d="M3812 1832 c-33 -50 34 -101 71 -54 16 19 17 26 6 51 -16 35 -55 37
-77 3z"/>
<path d="M2767 1806 c-22 -8 -27 -16 -27 -43 0 -45 29 -60 70 -36 32 19 33 40
1 72 -13 13 -22 14 -44 7z"/>
<path d="M3275 1796 c-38 -53 -7 -96 54 -75 27 10 28 12 19 49 -12 47 -50 60
-73 26z"/>
<path d="M1817 1772 c-31 -34 -14 -88 28 -92 41 -4 45 0 45 39 0 30 -6 44 -22
55 -28 20 -31 20 -51 -2z"/>
<path d="M2260 1706 c0 -37 3 -45 23 -50 29 -7 67 3 68 18 4 42 3 52 -8 64 -6
6 -28 12 -47 12 -36 0 -36 0 -36 -44z"/>
<path d="M2578 1403 c-17 -4 -29 -36 -24 -68 2 -16 12 -21 43 -23 39 -3 42 -1
48 28 5 23 2 37 -11 51 -17 19 -24 21 -56 12z"/>
<path d="M3060 1400 c-15 -3 -27 -15 -31 -30 -9 -37 7 -60 42 -60 24 0 33 6
44 33 10 24 10 33 2 36 -7 2 -16 9 -22 15 -6 7 -21 10 -35 6z"/>
<path d="M3544 1386 c-24 -18 -24 -56 0 -79 33 -30 92 5 79 48 -13 46 -42 57
-79 31z"/>
<path d="M2003 1382 c-24 -4 -31 -22 -25 -64 7 -47 85 -43 94 6 7 36 -28 65
-69 58z"/>
<path d="M1480 1344 c-15 -39 -12 -50 15 -62 34 -16 38 -15 63 7 27 23 28 43
4 64 -29 26 -71 22 -82 -9z"/>
<path d="M3803 959 c-28 -10 -30 -48 -5 -79 24 -29 69 -19 79 18 11 45 -29 78
-74 61z"/>
<path d="M3314 950 c-28 -11 -36 -35 -23 -64 13 -27 56 -40 74 -22 23 23 24
45 4 70 -22 28 -24 29 -55 16z"/>
<path d="M2785 918 c-11 -6 -23 -16 -27 -22 -10 -14 -10 -56 0 -54 4 0 15 -2
24 -6 24 -11 74 8 69 25 -2 8 -4 21 -4 29 0 14 -25 39 -37 39 -3 0 -14 -5 -25
-11z"/>
<path d="M2314 902 c-18 -12 -34 -50 -28 -66 15 -40 79 -25 90 21 10 37 -31
66 -62 45z"/>
<path d="M1783 855 c-27 -12 -31 -18 -27 -41 7 -36 12 -44 30 -44 8 0 14 -5
14 -10 0 -18 40 14 46 35 6 23 -11 75 -23 75 -5 -1 -22 -7 -40 -15z"/>
</g>
</svg>
