<?xml version="1.0" standalone="no"?>
<!DOCTYPE svg PUBLIC "-//W3C//DTD SVG 20010904//EN"
 "http://www.w3.org/TR/2001/REC-SVG-20010904/DTD/svg10.dtd">
<svg version="1.0" xmlns="http://www.w3.org/2000/svg"
 width="499.000000pt" height="375.000000pt" viewBox="0 0 499.000000 375.000000"
 preserveAspectRatio="xMidYMid meet">
<metadata>
Created by potrace 1.16, written by Peter Selinger 2001-2019
</metadata>
<g transform="translate(0.000000,375.000000) scale(0.100000,-0.100000)"
fill="#000000" stroke="none">
<path d="M2515 3570 c-4 -6 -39 -10 -88 -9 -45 0 -118 -3 -162 -7 -44 -3 -87
-6 -95 -6 -8 0 -42 -6 -75 -14 -34 -7 -73 -15 -89 -16 -15 -1 -32 -8 -38 -15
-6 -7 -15 -13 -20 -13 -5 0 -37 -16 -71 -37 -68 -40 -124 -104 -140 -162 -6
-20 -17 -43 -24 -52 -17 -20 -21 -148 -9 -268 7 -63 6 -85 -4 -91 -7 -4 -13
-26 -14 -49 0 -22 -4 -41 -9 -41 -4 0 -4 -8 1 -17 6 -12 1 -57 -14 -128 -12
-60 -23 -110 -24 -110 -1 0 -3 -8 -5 -19 -2 -10 -8 -23 -14 -29 -6 -6 -11 -19
-11 -28 0 -9 -7 -19 -15 -23 -8 -3 -15 -12 -15 -19 0 -8 -10 -25 -22 -39 -51
-57 -124 -207 -142 -292 -7 -36 -12 -67 -10 -69 2 -2 6 -106 10 -233 3 -126
12 -272 18 -324 7 -52 9 -107 5 -122 -4 -16 -3 -30 2 -34 6 -3 9 -113 8 -282
-3 -370 7 -599 26 -629 8 -12 15 -27 15 -32 0 -12 96 -67 135 -77 17 -4 39
-13 50 -19 33 -21 274 -83 411 -105 131 -23 300 -33 504 -33 259 1 352 9 490
44 19 4 37 8 40 8 3 0 18 5 34 11 16 6 45 13 65 16 70 10 90 15 102 30 6 8 19
14 29 14 10 0 20 6 23 14 4 10 16 13 35 11 33 -4 72 31 72 65 0 11 4 20 9 20
19 0 78 171 79 230 0 8 4 112 8 230 9 255 9 426 1 495 -3 28 -9 111 -12 185
-4 74 -9 143 -12 155 -3 11 -7 119 -9 240 -1 134 -7 236 -14 260 -38 126 -54
169 -90 240 -21 43 -37 81 -35 85 3 4 -2 13 -10 20 -8 7 -17 28 -21 49 -4 20
-13 49 -21 64 -8 15 -12 36 -9 45 3 10 8 32 10 51 3 26 0 35 -15 38 -15 4 -19
15 -20 57 -1 28 -1 55 0 59 3 18 12 218 12 287 1 88 -9 131 -43 185 -46 73
-80 102 -128 110 -25 4 -65 16 -90 28 -25 11 -48 20 -51 19 -3 -1 -42 8 -85
19 -81 20 -180 36 -269 45 -62 5 -112 14 -130 20 -7 3 -16 0 -20 -6z m270
-135 c112 -17 269 -63 315 -92 63 -39 94 -105 106 -225 l6 -57 -55 -35 c-109
-70 -290 -117 -439 -115 -53 1 -101 -1 -106 -5 -15 -9 -211 12 -332 35 -173
33 -307 91 -382 164 -44 44 -52 65 -42 113 4 21 7 40 6 45 -1 4 2 7 8 7 6 0 9
3 8 8 -1 4 5 19 12 35 23 48 116 94 245 123 11 2 58 7 105 10 47 3 87 8 89 10
10 10 358 -6 456 -21z m-892 -439 c75 -58 315 -142 430 -152 29 -2 77 -8 107
-13 30 -5 142 -7 250 -6 169 3 208 6 291 28 52 14 128 41 168 61 l74 36 -7
-57 c-4 -32 -8 -67 -11 -78 -2 -11 -4 -30 -4 -42 -1 -13 -5 -23 -9 -23 -5 0
-27 -17 -50 -38 -58 -54 -155 -100 -229 -108 -251 -29 -452 -23 -693 21 -46 8
-189 72 -215 96 -88 80 -115 112 -116 137 0 15 -2 36 -4 47 -2 11 -5 36 -8 56
-2 20 -8 42 -11 48 -11 18 3 13 37 -13z m-19 -352 c3 -8 12 -14 21 -14 9 0 26
-6 38 -14 12 -8 51 -24 87 -36 36 -12 88 -32 115 -45 77 -35 265 -57 495 -56
167 0 235 3 235 11 0 1 20 4 45 5 72 5 124 22 217 70 79 40 89 43 100 28 7 -9
10 -20 7 -24 -3 -5 -1 -9 4 -9 11 0 42 -72 42 -97 0 -9 9 -34 19 -57 22 -47
44 -119 44 -141 0 -8 4 -15 9 -15 4 0 8 -12 8 -27 0 -14 6 -34 14 -42 12 -15
39 -82 34 -86 -12 -7 -86 -39 -119 -51 -23 -8 -47 -18 -53 -22 -15 -12 -126
-47 -221 -71 -105 -26 -340 -42 -545 -36 -159 5 -203 10 -335 39 -33 8 -87 19
-120 26 -137 29 -445 148 -445 172 0 4 15 22 33 41 44 48 109 142 136 199 13
27 26 50 31 53 4 2 11 19 15 37 4 18 9 38 11 43 2 6 10 35 19 65 8 30 17 61
20 67 5 15 31 7 39 -13z m-274 -608 c34 -27 297 -117 400 -136 25 -5 97 -21
160 -35 269 -59 806 -38 1013 41 20 8 47 14 59 14 12 0 30 8 41 17 10 10 45
25 77 34 l58 16 11 -71 c6 -39 14 -116 16 -171 2 -55 7 -127 11 -160 3 -33 7
-100 9 -150 2 -49 6 -117 10 -150 8 -67 9 -232 2 -370 -2 -49 -5 -124 -6 -166
-1 -75 -1 -76 -25 -72 -15 3 -37 -3 -53 -14 -15 -10 -59 -29 -98 -42 -38 -13
-75 -28 -81 -32 -5 -5 -53 -16 -105 -25 -52 -9 -97 -18 -100 -20 -7 -4 -229
-16 -274 -15 -16 1 -115 3 -220 6 -190 4 -329 19 -460 49 -256 59 -417 115
-442 152 -10 16 -15 63 -19 161 -2 76 -7 203 -10 283 -3 80 -7 173 -8 207 0
35 -3 63 -6 63 -3 0 -6 19 -7 43 -1 23 -4 89 -7 147 -13 216 -17 400 -11 410
7 12 42 4 65 -14z m30 -1419 c14 -7 45 -19 70 -27 25 -7 52 -20 61 -27 9 -7
18 -10 22 -7 3 4 19 2 34 -4 15 -7 43 -14 61 -17 19 -3 71 -14 115 -25 213
-49 343 -61 662 -64 215 -1 324 5 432 23 105 19 243 65 335 112 10 5 20 9 23
9 9 0 5 -69 -5 -75 -5 -3 -10 -14 -10 -23 -1 -34 -68 -92 -106 -92 -12 0 -27
-6 -33 -14 -7 -8 -26 -18 -42 -21 -16 -4 -29 -11 -29 -16 0 -5 -8 -9 -17 -9
-10 -1 -36 -8 -58 -16 -58 -22 -107 -36 -130 -36 -11 0 -42 -4 -70 -8 -71 -13
-344 -22 -358 -13 -7 4 -25 8 -42 9 -101 6 -197 16 -226 24 -19 6 -46 10 -61
10 -16 0 -54 9 -85 19 -53 18 -112 26 -278 37 -150 10 -207 28 -263 82 -42 41
-56 82 -46 143 7 43 9 44 44 26z"/>
<path d="M1649 1914 c-8 -9 -14 -50 -15 -105 -4 -134 23 -176 77 -118 l28 30
21 -33 c11 -18 20 -38 20 -43 0 -6 12 -12 27 -13 30 -2 82 27 65 37 -6 4 -14
49 -17 101 -4 52 -10 98 -13 101 -35 34 -99 0 -88 -47 7 -26 3 -29 -23 -14
-19 10 -18 52 1 76 12 16 -17 44 -46 44 -13 0 -29 -7 -37 -16z"/>
<path d="M1970 1842 c0 -5 -13 -12 -30 -15 -24 -5 -31 -14 -40 -47 -8 -31 -8
-50 0 -76 7 -20 9 -51 5 -71 -5 -28 -2 -39 14 -54 25 -24 32 -24 88 2 29 13
57 19 74 15 17 -3 32 0 39 9 7 8 17 12 23 8 22 -13 -5 53 -30 73 -16 14 -23
26 -18 34 5 8 4 11 -3 6 -12 -7 -62 13 -62 26 0 12 24 10 55 -6 24 -12 29 -12
46 2 24 20 24 47 2 71 -20 21 -163 41 -163 23z"/>
<path d="M2236 1768 c-25 -23 -25 -25 -16 -103 5 -44 8 -95 6 -112 -5 -38 7
-42 113 -37 59 3 77 7 85 21 12 22 15 53 5 53 -4 0 -15 7 -23 16 -13 12 -23
13 -53 5 -20 -6 -39 -8 -42 -5 -3 3 -6 40 -5 82 1 101 -19 125 -70 80z"/>
<path d="M2478 1776 c-15 -11 -17 -26 -13 -107 3 -52 5 -104 5 -116 0 -47 49
-61 193 -53 33 2 87 2 131 0 24 -1 55 4 68 10 31 17 68 51 68 64 0 6 7 24 16
41 12 24 13 38 4 75 -13 55 -47 80 -109 80 -54 0 -87 -17 -101 -51 -7 -15 -22
-35 -35 -43 -13 -9 -25 -30 -29 -50 -7 -35 -8 -36 -54 -36 -26 0 -51 4 -57 8
-5 4 -11 40 -12 81 -3 96 -30 132 -75 97z m392 -131 c0 -50 -33 -68 -102 -56
-16 2 -7 30 12 36 11 3 20 14 20 24 0 24 9 31 42 31 25 0 28 -3 28 -35z"/>
<path d="M3173 1610 c-14 -6 -24 -21 -28 -44 -13 -66 -174 -178 -278 -192 -62
-9 -88 -43 -92 -121 -1 -24 1 -43 5 -43 11 0 20 -54 25 -142 3 -59 1 -78 -8
-78 -17 0 -57 -44 -87 -93 -33 -55 -24 -117 22 -161 39 -37 58 -46 111 -52 91
-11 166 90 150 203 -5 38 -12 48 -44 69 -21 13 -42 32 -47 41 -11 22 -21 153
-11 153 4 0 41 -35 82 -77 l76 -77 -17 -31 c-9 -16 -20 -31 -23 -33 -4 -1 -2
-24 3 -50 13 -70 42 -94 120 -99 60 -4 65 -3 101 29 31 27 39 42 46 85 7 45 5
57 -13 82 -28 40 -88 73 -123 68 -24 -4 -40 8 -110 76 -46 45 -79 85 -75 89 4
4 38 18 75 31 38 13 73 29 80 36 6 6 18 11 27 11 21 0 73 51 76 76 2 10 5 35
9 54 12 77 11 161 -2 180 -16 22 -18 23 -50 10z m-27 -196 c-3 -9 -6 -22 -6
-30 0 -21 -191 -105 -237 -103 l-28 1 26 8 c37 11 127 61 185 103 54 40 69 45
60 21z m44 -469 c14 -17 4 -74 -13 -80 -23 -8 -82 11 -85 27 -4 20 43 68 67
68 10 0 24 -7 31 -15z m-311 -47 c29 -2 36 -8 42 -32 10 -36 -12 -82 -47 -98
-19 -9 -32 -8 -59 5 -30 15 -35 21 -35 53 0 43 36 100 54 85 6 -5 27 -11 45
-13z"/>
<path d="M1887 1436 c-12 -13 -13 -23 -5 -53 13 -50 45 -112 70 -140 l20 -22
-42 -87 c-42 -84 -43 -89 -44 -189 -1 -92 1 -107 22 -134 12 -16 22 -37 22
-46 0 -8 5 -15 10 -15 6 0 20 -15 31 -34 24 -41 100 -89 165 -105 99 -24 269
27 349 103 41 39 98 146 114 214 15 63 7 175 -15 196 -8 8 -14 23 -14 33 0 50
-119 161 -226 210 -49 22 -65 25 -120 20 -76 -7 -118 -27 -160 -74 l-31 -36
-22 24 c-12 13 -31 49 -43 81 -11 32 -24 58 -29 58 -4 0 -14 3 -22 6 -8 3 -21
-2 -30 -10z m398 -136 c6 -4 26 -13 45 -19 19 -6 61 -35 93 -64 46 -40 63 -64
77 -107 32 -94 17 -192 -44 -297 -24 -42 -47 -61 -109 -89 -52 -23 -76 -27
-145 -27 -61 0 -87 4 -100 16 -134 123 -161 189 -131 315 7 26 18 54 25 63 8
8 14 21 14 27 0 7 7 12 15 12 8 0 15 5 15 11 0 14 52 2 62 -14 4 -7 8 -9 8 -5
0 4 14 0 32 -10 31 -17 33 -17 50 0 10 10 18 31 18 46 0 26 -6 31 -55 47 -30
11 -55 25 -55 31 0 7 12 22 28 33 15 12 32 25 38 30 22 18 95 19 119 1z"/>
</g>
</svg>
