<?xml version="1.0" standalone="no"?>
<!DOCTYPE svg PUBLIC "-//W3C//DTD SVG 20010904//EN"
 "http://www.w3.org/TR/2001/REC-SVG-20010904/DTD/svg10.dtd">
<svg version="1.0" xmlns="http://www.w3.org/2000/svg"
 width="523.000000pt" height="465.000000pt" viewBox="0 0 523.000000 465.000000"
 preserveAspectRatio="xMidYMid meet">
<metadata>
Created by potrace 1.16, written by Peter Selinger 2001-2019
</metadata>
<g transform="translate(0.000000,465.000000) scale(0.100000,-0.100000)"
fill="#000000" stroke="none">
<path d="M1307 4473 c-3 -2 -36 -6 -74 -8 -109 -5 -276 -56 -373 -113 -72 -42
-103 -60 -127 -71 -34 -16 -225 -154 -258 -187 -16 -16 -51 -58 -77 -94 -26
-36 -60 -80 -75 -97 -15 -18 -35 -45 -43 -61 -20 -36 -59 -91 -87 -122 -13
-14 -23 -30 -23 -36 0 -6 -22 -56 -49 -110 -27 -55 -53 -115 -59 -134 -18 -58
-29 -226 -25 -393 3 -147 11 -216 47 -412 9 -44 18 -102 21 -130 3 -27 11 -74
17 -104 5 -30 11 -65 13 -78 1 -14 7 -29 14 -36 6 -6 11 -21 11 -33 0 -13 5
-26 10 -29 6 -3 10 -19 10 -35 0 -16 4 -32 10 -35 5 -3 10 -21 10 -39 0 -72
71 -246 147 -360 18 -26 30 -52 27 -57 -6 -10 70 -158 116 -226 17 -24 30 -48
30 -53 0 -37 135 -204 178 -221 12 -5 25 -16 29 -25 5 -15 101 -114 110 -114
2 0 16 -11 31 -25 15 -14 32 -25 39 -25 7 0 13 -6 13 -12 0 -7 30 -35 66 -63
36 -27 71 -55 77 -61 7 -5 62 -31 122 -56 108 -45 151 -55 270 -63 77 -5 118
-17 120 -35 2 -8 10 -37 19 -63 9 -26 16 -54 16 -63 0 -17 29 -66 46 -77 7 -4
15 -20 18 -35 4 -15 20 -42 36 -59 17 -18 30 -36 30 -40 0 -15 77 -84 118
-106 22 -12 64 -35 92 -50 104 -57 305 -115 400 -116 36 -1 79 -5 95 -10 17
-4 41 -6 55 -4 14 2 124 6 245 7 203 4 289 11 420 36 28 5 64 12 80 15 95 17
238 47 290 60 33 8 78 17 100 20 22 3 51 9 65 14 14 5 61 17 105 26 44 10 105
26 135 36 72 24 239 70 265 73 12 1 25 5 30 8 6 3 28 11 50 18 22 7 58 20 80
30 22 11 78 33 123 51 46 18 86 38 89 46 3 7 11 13 18 13 7 0 18 7 25 15 7 8
27 17 46 21 19 3 34 10 34 15 0 5 5 9 11 9 6 0 26 12 45 26 19 15 34 22 34 18
0 -5 10 6 22 24 17 27 22 53 24 125 2 51 6 144 10 207 9 175 8 189 -15 211
-11 10 -26 19 -34 19 -8 0 -36 20 -63 45 -27 24 -53 45 -58 45 -5 0 -34 11
-65 25 -56 26 -101 75 -101 112 0 25 -40 104 -50 98 -5 -3 -20 -1 -34 5 -22 8
-26 16 -26 49 0 33 -7 47 -45 85 -33 35 -52 46 -75 46 -16 0 -30 4 -30 8 0 5
-23 19 -51 31 -28 13 -53 30 -56 38 -3 8 2 37 10 64 11 33 13 57 8 72 -9 24
-83 78 -110 82 -20 2 -66 20 -112 43 -34 17 -34 18 -31 77 2 33 4 94 6 135 2
45 10 91 21 115 26 58 25 81 -7 91 -29 9 -120 5 -133 -6 -12 -9 -156 -33 -162
-26 -2 2 7 28 20 58 22 47 39 104 38 125 0 5 7 19 16 32 18 29 43 214 31 233
-4 7 -8 25 -8 41 0 15 -4 27 -8 27 -4 0 -8 8 -8 18 -2 84 -48 251 -75 272 -11
9 -99 183 -99 197 0 7 -4 13 -8 13 -5 0 -16 17 -25 38 -23 53 -120 179 -175
227 -25 22 -59 55 -76 74 -56 61 -384 261 -427 261 -9 0 -119 68 -129 79 -3 3
-14 7 -25 9 -22 3 -87 33 -95 44 -6 8 -139 75 -178 89 -56 21 -82 34 -82 42 0
5 -5 5 -11 1 -6 -3 -21 -2 -32 4 -12 6 -74 23 -137 38 -63 14 -119 30 -125 33
-22 16 -95 30 -185 36 -122 8 -517 14 -523 8z m442 -102 c141 -2 141 -2 264
-42 48 -16 95 -29 105 -29 9 0 30 -7 46 -15 15 -8 39 -15 51 -15 43 0 499
-218 625 -299 41 -26 162 -91 203 -108 20 -9 37 -19 37 -23 0 -5 10 -10 23
-13 25 -7 135 -111 213 -202 55 -65 128 -187 165 -275 12 -30 26 -59 30 -65
44 -61 101 -226 84 -243 -3 -3 -1 -10 4 -16 10 -12 17 -48 30 -139 5 -40 3
-74 -5 -105 -45 -158 -57 -198 -66 -203 -6 -4 -7 -12 -4 -18 4 -6 0 -14 -8
-17 -9 -3 -16 -14 -16 -23 0 -9 -4 -21 -9 -26 -5 -6 -11 -18 -13 -28 -2 -12
-22 -25 -55 -37 l-53 -18 14 26 c48 96 56 120 63 197 9 93 -55 309 -108 363
-17 18 -35 32 -40 32 -5 0 -17 8 -27 18 -39 38 -89 70 -122 77 -19 4 -39 11
-45 15 -5 4 -32 8 -60 9 -27 1 -77 10 -110 19 -50 14 -102 16 -315 15 -140 -2
-284 -7 -320 -13 -36 -6 -81 -12 -101 -15 -19 -2 -47 -9 -62 -14 -15 -6 -27
-8 -27 -5 0 2 -8 0 -18 -5 -11 -6 -30 -12 -43 -14 -14 -3 -47 -15 -74 -27 -28
-12 -66 -29 -85 -38 -19 -8 -51 -25 -70 -37 -19 -11 -64 -34 -100 -49 -36 -16
-79 -39 -97 -52 -17 -13 -37 -24 -43 -24 -19 0 -103 -51 -140 -86 -19 -17 -52
-41 -73 -52 -21 -11 -63 -42 -94 -69 -67 -58 -226 -213 -219 -213 10 0 -83
-150 -109 -177 -8 -7 -17 -23 -21 -36 -4 -12 -10 -24 -13 -27 -3 -3 -11 -23
-18 -45 -6 -22 -23 -68 -37 -102 -55 -130 -83 -362 -66 -543 13 -137 12 -130
21 -130 4 0 9 -11 13 -23 3 -13 16 -37 28 -52 12 -16 23 -35 24 -43 2 -7 19
-29 38 -48 20 -19 36 -37 36 -40 0 -13 126 -124 141 -124 9 0 99 -66 109 -79
8 -11 76 -41 92 -41 7 0 24 -7 36 -16 12 -8 22 -13 22 -9 0 3 10 -1 23 -9 12
-8 50 -20 85 -27 37 -7 59 -16 54 -21 -5 -5 -20 -4 -36 2 -15 5 -31 8 -35 5
-29 -17 -162 1 -215 29 -22 13 -54 26 -70 30 -39 10 -159 94 -182 128 -11 16
-22 28 -26 28 -13 0 -78 59 -238 214 -49 48 -89 97 -115 141 -15 28 -38 64
-50 80 -12 17 -30 50 -41 75 -10 25 -24 51 -31 58 -7 7 -19 35 -27 62 -16 54
-30 82 -49 102 -13 13 -87 162 -107 214 -6 14 -17 60 -26 101 -8 42 -26 105
-38 142 -25 72 -34 113 -66 301 -33 202 -48 318 -55 440 -8 136 -7 175 5 255
6 33 10 76 10 95 0 22 19 72 50 135 27 55 50 104 50 109 0 4 17 29 39 55 21
25 55 73 74 106 88 147 212 276 345 360 9 6 22 16 30 22 45 42 229 134 317
160 126 36 170 43 320 48 88 4 161 8 163 9 1 2 21 0 44 -4 22 -4 98 -9 167 -9z
m1132 -1291 c9 -5 24 -9 35 -8 31 1 155 -22 175 -32 10 -6 26 -10 35 -10 26 0
105 -40 139 -71 17 -15 40 -36 52 -46 20 -17 47 -95 59 -168 3 -16 10 -43 16
-58 8 -21 8 -39 -1 -70 -12 -40 -70 -167 -81 -177 -3 -3 -12 -18 -20 -35 -11
-22 -28 -34 -65 -45 -28 -9 -67 -24 -89 -33 -21 -9 -45 -17 -53 -17 -8 0 -27
-7 -42 -15 -16 -8 -39 -16 -52 -19 -22 -4 -72 -23 -124 -46 -11 -5 -49 -19
-85 -31 -111 -37 -194 -71 -220 -89 -14 -9 -63 -36 -109 -59 -106 -52 -174
-95 -226 -144 -22 -20 -50 -40 -62 -43 -13 -3 -23 -10 -23 -14 0 -4 -8 -10
-17 -14 -34 -11 -86 -47 -112 -77 -14 -17 -44 -50 -66 -72 -52 -54 -121 -146
-129 -172 -3 -11 -23 -40 -44 -64 -33 -36 -45 -44 -81 -46 -64 -5 -89 -58 -41
-87 16 -10 16 -13 1 -42 -9 -17 -19 -33 -23 -36 -12 -9 -38 -91 -33 -100 3 -5
1 -11 -4 -14 -10 -6 -26 -82 -22 -103 3 -17 -12 -16 -99 2 -61 13 -213 81
-230 104 -13 16 -110 91 -118 91 -9 0 -51 44 -112 116 -14 16 -32 43 -40 59
-8 17 -22 42 -32 56 -30 45 -26 323 7 464 7 33 16 74 19 91 3 17 23 70 45 118
23 47 41 89 41 93 0 3 17 29 38 57 21 28 49 74 62 101 30 64 196 228 295 294
22 14 49 34 59 43 37 34 203 127 359 202 87 42 160 76 163 76 2 0 23 8 47 19
119 52 238 73 444 75 100 1 186 5 190 9 9 9 152 -2 174 -13z m927 -721 c-7
-13 -17 -27 -22 -30 -5 -4 -6 -11 -2 -17 7 -11 -58 -30 -129 -36 -77 -7 -199
-34 -289 -65 -44 -16 -117 -39 -161 -52 -44 -13 -100 -38 -125 -54 -44 -30
-159 -82 -230 -105 -49 -15 -248 -143 -309 -199 -19 -17 -38 -28 -42 -25 -5 3
-9 1 -9 -4 0 -5 -21 -24 -47 -42 -27 -19 -67 -54 -91 -79 -24 -25 -54 -53 -68
-61 -26 -17 -161 -148 -204 -196 -41 -48 -100 -133 -100 -147 0 -6 -6 -24 -14
-39 -48 -92 -59 -141 -61 -288 -2 -80 0 -149 5 -155 4 -5 10 -26 13 -46 7 -48
61 -156 95 -193 31 -33 96 -64 214 -102 73 -24 97 -27 232 -27 111 0 163 4
196 15 25 9 76 16 114 17 38 1 116 13 175 27 58 14 124 28 146 30 34 5 110 30
193 64 13 6 33 10 45 10 23 0 78 18 112 36 11 6 52 21 90 32 39 11 111 32 160
47 50 14 115 33 145 40 86 21 134 36 145 46 6 4 29 12 50 18 104 26 186 51
213 65 43 22 115 48 134 48 9 -1 24 8 34 19 9 10 22 19 27 19 6 0 18 6 26 14
9 8 29 16 44 18 15 2 37 12 48 22 11 9 26 15 32 13 7 -2 29 7 50 20 21 13 50
26 65 29 l28 6 -3 -113 c-2 -69 -8 -116 -14 -120 -7 -4 -8 -12 -5 -18 17 -27
-15 -76 -68 -108 -30 -18 -58 -33 -64 -33 -5 0 -40 -19 -78 -41 -75 -46 -224
-104 -354 -139 -106 -28 -247 -69 -280 -81 -47 -17 -215 -57 -290 -69 -41 -7
-100 -19 -130 -26 -74 -20 -283 -61 -345 -69 -28 -3 -64 -8 -80 -11 -17 -3
-131 -7 -255 -9 -124 -2 -232 -5 -240 -7 -8 -1 -46 1 -85 5 -38 4 -92 10 -120
13 -27 3 -71 12 -97 19 -27 8 -48 11 -48 8 0 -3 -6 -1 -12 5 -7 5 -28 13 -46
17 -18 4 -66 25 -105 46 -40 22 -83 45 -97 52 -56 27 -170 183 -170 233 0 8
-4 14 -8 14 -8 0 -24 28 -31 52 -2 4 -11 31 -22 60 -22 59 -34 230 -20 288 4
19 14 60 21 90 7 30 18 64 24 75 15 28 60 99 67 105 3 3 11 20 18 38 8 17 17
32 22 32 4 0 25 26 45 58 76 117 87 132 162 212 46 50 108 103 157 134 44 29
87 60 96 68 35 36 254 168 278 168 5 0 32 13 58 28 26 16 71 36 98 46 28 10
59 23 70 29 11 6 52 21 90 33 39 13 110 37 158 53 48 17 94 31 101 31 7 0 25
9 38 20 14 10 28 17 31 14 5 -5 96 22 312 94 83 27 281 54 298 41 5 -4 3 -17
-5 -30z m-21 -157 c7 -4 11 -25 11 -47 -2 -54 38 -116 100 -155 26 -16 52 -30
58 -30 6 0 17 -7 24 -15 7 -8 16 -13 20 -10 5 3 20 0 34 -7 20 -9 25 -16 20
-32 -4 -12 -10 -22 -15 -24 -4 -2 -4 -13 0 -25 10 -26 11 -31 11 -55 0 -26 66
-92 104 -105 17 -5 43 -18 58 -29 14 -10 33 -18 42 -18 21 0 40 -39 37 -73 -5
-52 16 -85 59 -92 40 -7 50 -22 50 -79 0 -22 13 -41 58 -83 31 -30 68 -56 82
-60 14 -3 46 -18 71 -34 25 -16 51 -29 57 -29 6 0 18 -10 26 -22 17 -24 6 -48
-21 -48 -7 0 -32 -9 -54 -20 -44 -23 -75 -19 -84 9 -9 30 -64 40 -88 16 -11
-11 -13 -24 -7 -50 7 -32 5 -36 -24 -54 -40 -25 -210 -91 -306 -120 -91 -27
-158 -50 -185 -61 -16 -7 -288 -85 -330 -95 -5 -1 -17 -5 -25 -8 -8 -3 -44
-16 -80 -28 -36 -12 -96 -32 -135 -45 -38 -13 -78 -24 -90 -24 -11 0 -54 -13
-95 -29 -90 -35 -296 -78 -406 -85 -43 -3 -109 -12 -146 -20 -97 -20 -284 -13
-343 14 -24 11 -51 20 -61 20 -22 0 -115 54 -139 80 -10 11 -15 20 -11 20 3 0
-1 14 -10 31 -35 69 -44 122 -41 259 1 74 7 142 12 150 5 8 19 43 31 78 13 35
35 80 50 100 31 41 313 322 363 362 17 14 37 30 44 35 148 124 332 237 464
287 32 12 92 39 133 61 128 67 421 157 564 173 27 3 58 10 70 14 27 11 29 11
43 2z"/>
<path d="M2785 3018 c-31 -18 -35 -30 -17 -60 16 -28 29 -32 87 -28 52 3 77
63 33 79 -45 16 -83 19 -103 9z"/>
<path d="M2110 2772 c-14 -2 -39 -8 -57 -13 -69 -22 -41 -108 31 -94 89 19
106 27 106 55 0 40 -30 59 -80 52z"/>
<path d="M1859 2634 c-28 -30 -20 -69 16 -78 30 -8 98 9 113 27 27 32 -14 76
-58 62 -11 -3 -20 -2 -20 3 0 17 -30 9 -51 -14z"/>
<path d="M2993 2643 c-17 -3 -23 -12 -23 -29 0 -56 37 -81 95 -65 27 7 30 12
29 44 -1 21 -3 39 -5 41 -8 8 -74 14 -96 9z"/>
<path d="M2825 2574 c-11 -3 -29 -9 -40 -14 -11 -4 -28 -11 -37 -14 -29 -9
-23 -54 8 -68 21 -10 31 -9 55 5 16 9 36 14 43 11 8 -3 26 2 41 12 19 12 25
24 23 43 -3 22 -8 26 -38 28 -19 0 -44 -1 -55 -3z"/>
<path d="M2970 2490 c-24 -24 -24 -29 -5 -57 15 -21 82 -37 91 -21 3 4 14 8
25 8 22 0 23 8 9 44 -5 15 -17 26 -28 26 -10 0 -22 3 -26 7 -15 15 -47 12 -66
-7z"/>
<path d="M2286 2318 c-33 -18 -9 -88 30 -88 8 0 35 5 60 11 52 13 71 50 38 74
-21 15 -103 17 -128 3z"/>
<path d="M1199 2267 c-47 -36 -13 -104 46 -93 31 6 75 47 75 70 0 30 -90 47
-121 23z"/>
<path d="M1969 2247 c-10 -12 -19 -26 -19 -33 0 -37 111 -62 124 -28 22 58
-62 107 -105 61z"/>
<path d="M2133 2193 c-18 -7 -16 -58 2 -73 11 -9 29 -10 68 -4 44 8 53 13 55
32 2 14 -4 29 -15 37 -17 14 -85 19 -110 8z"/>
<path d="M1272 2067 c-22 -28 -23 -56 -3 -76 24 -24 32 -25 84 -10 47 13 69
51 45 75 -20 21 -112 29 -126 11z"/>
<path d="M1899 1989 c-11 -28 -10 -33 6 -45 47 -35 127 -25 141 18 8 28 -16
44 -77 51 -56 7 -57 7 -70 -24z"/>
<path d="M1090 1933 c-26 -10 -50 -35 -50 -54 0 -24 46 -58 70 -52 25 7 58 52
53 74 -3 13 -46 42 -56 38 -1 0 -9 -3 -17 -6z"/>
<path d="M1480 1472 c0 -5 -11 -14 -24 -22 -27 -14 -27 -41 -1 -70 14 -15 21
-16 51 -5 44 15 59 30 59 60 1 18 -6 25 -25 30 -14 3 -33 8 -42 11 -10 3 -18
1 -18 -4z"/>
<path d="M1392 1234 c-24 -17 -22 -52 5 -72 20 -15 108 -8 129 9 16 13 24 58
12 65 -23 14 -125 13 -146 -2z"/>
<path d="M3562 2029 c-27 -10 -34 -36 -19 -67 13 -29 27 -33 70 -19 22 7 27
15 27 40 0 54 -22 66 -78 46z"/>
<path d="M3411 1901 c-20 -13 -18 -67 4 -91 19 -21 60 -27 70 -10 12 19 13 95
1 102 -15 10 -58 10 -75 -1z"/>
<path d="M3735 1880 c-18 -19 -17 -21 0 -54 11 -19 27 -37 37 -39 25 -7 68 30
68 57 0 50 -70 74 -105 36z"/>
<path d="M3579 1764 c-44 -30 -42 -55 4 -77 35 -17 60 -10 77 23 8 16 6 26
-12 50 -12 16 -24 30 -27 30 -4 0 -23 -12 -42 -26z"/>
<path d="M3005 1650 c-16 -18 -17 -25 -7 -54 7 -18 12 -40 12 -48 0 -30 27
-48 58 -37 24 8 27 15 29 60 2 36 -3 56 -15 69 -28 29 -56 33 -77 10z"/>
<path d="M2900 1630 c-7 -4 -18 -6 -24 -4 -33 12 -54 -44 -28 -75 15 -19 24
-22 54 -16 43 8 51 29 28 72 -11 22 -21 29 -30 23z"/>
<path d="M2569 1603 c-9 -2 -21 -15 -27 -28 -10 -21 -7 -29 14 -55 15 -17 36
-30 48 -30 45 0 61 89 19 104 -10 3 -22 8 -28 10 -5 2 -17 2 -26 -1z"/>
<path d="M3856 1449 c-13 -19 -13 -26 -1 -49 18 -35 71 -69 96 -63 37 10 40
36 8 86 -24 39 -34 47 -58 47 -19 0 -35 -8 -45 -21z"/>
<path d="M2693 1397 c-24 -51 15 -114 60 -98 24 9 37 52 27 91 -5 20 -13 26
-41 28 -29 2 -37 -1 -46 -21z"/>
<path d="M4103 1381 c-10 -16 -4 -87 9 -95 11 -7 60 -26 68 -26 13 0 29 66 22
92 -3 13 -11 29 -18 36 -19 18 -67 15 -81 -7z"/>
<path d="M2256 1294 c-22 -21 -20 -34 7 -64 36 -40 100 -35 92 8 -15 73 -14
72 -49 72 -19 0 -42 -7 -50 -16z"/>
<path d="M4042 1113 c-7 -3 -19 -17 -27 -32 -12 -25 -12 -30 10 -57 21 -26 26
-28 45 -16 11 7 25 10 29 7 11 -6 21 19 21 52 0 39 -39 62 -78 46z"/>
<path d="M3452 1018 c-14 -14 -16 -50 -3 -63 9 -9 18 -46 20 -82 2 -21 41 -26
62 -7 27 25 27 116 -1 144 -22 22 -60 26 -78 8z"/>
<path d="M2616 981 c-17 -19 -20 -40 -10 -89 12 -61 78 -49 90 15 13 67 -41
117 -80 74z"/>
<path d="M2384 973 c-8 -13 -6 -30 7 -67 10 -27 24 -53 30 -57 18 -11 52 5 65
30 13 25 -3 87 -27 102 -23 14 -63 10 -75 -8z"/>
<path d="M3215 918 c-23 -22 -28 -48 -13 -65 6 -7 7 -13 2 -13 -5 0 5 -9 21
-20 35 -23 63 -25 89 -5 20 15 20 16 -5 64 -27 56 -61 70 -94 39z"/>
<path d="M2137 732 c-13 -15 -15 -25 -7 -52 11 -39 24 -50 61 -50 29 0 39 15
39 60 0 49 -62 77 -93 42z"/>
</g>
</svg>
