<?xml version="1.0" standalone="no"?>
<!DOCTYPE svg PUBLIC "-//W3C//DTD SVG 20010904//EN"
 "http://www.w3.org/TR/2001/REC-SVG-20010904/DTD/svg10.dtd">
<svg version="1.0" xmlns="http://www.w3.org/2000/svg"
 width="545.000000pt" height="475.000000pt" viewBox="0 0 545.000000 475.000000"
 preserveAspectRatio="xMidYMid meet">
<metadata>
Created by potrace 1.16, written by Peter Selinger 2001-2019
</metadata>
<g transform="translate(0.000000,475.000000) scale(0.100000,-0.100000)"
fill="#000000" stroke="none">
<path d="M3830 4619 c-13 -6 -27 -13 -30 -17 -11 -16 -108 -70 -115 -64 -3 3
-9 2 -13 -4 -11 -15 -154 -119 -190 -138 -18 -9 -67 -40 -108 -69 -42 -29 -83
-56 -92 -62 -72 -43 -151 -96 -168 -113 -11 -11 -35 -27 -52 -36 -18 -9 -67
-45 -110 -79 -42 -35 -105 -82 -139 -105 -35 -24 -63 -47 -63 -52 0 -6 -4 -10
-10 -10 -9 0 -18 -7 -71 -55 -9 -8 -23 -15 -32 -15 -10 0 -17 -4 -17 -10 0 -5
-10 -21 -22 -36 -37 -42 -39 -111 -6 -208 25 -72 39 -126 54 -206 3 -14 7 -32
9 -40 2 -8 7 -30 10 -48 3 -18 14 -50 25 -70 11 -20 20 -47 20 -60 0 -13 15
-56 34 -95 35 -76 76 -200 76 -234 0 -11 7 -40 16 -64 9 -24 17 -48 18 -54 2
-5 6 -17 9 -25 20 -52 52 -179 63 -247 3 -21 10 -40 14 -43 5 -3 11 -23 15
-45 4 -22 10 -51 15 -65 25 -77 40 -142 45 -198 4 -35 15 -85 26 -110 28 -65
90 -252 88 -266 -1 -6 0 -18 4 -26 24 -63 117 -365 117 -381 0 -11 6 -41 14
-67 8 -26 17 -64 21 -85 3 -22 13 -41 23 -45 9 -4 43 -24 74 -45 31 -20 60
-37 64 -37 3 0 22 -13 41 -30 18 -16 40 -30 48 -30 16 0 70 -28 133 -71 24
-16 46 -29 51 -29 4 0 22 -11 40 -24 49 -36 96 -42 123 -15 13 12 37 27 53 34
17 7 39 23 49 34 11 12 25 21 33 21 7 0 13 4 13 8 0 5 17 17 38 28 20 10 39
22 42 25 3 3 20 11 38 18 17 8 32 16 32 20 0 3 23 17 51 31 28 14 54 31 56 38
3 6 11 12 18 12 8 0 20 6 27 13 35 33 107 86 143 106 38 21 97 60 122 81 6 5
28 18 47 29 51 29 146 93 175 118 14 12 62 41 106 64 44 22 87 47 95 54 8 7
35 23 60 35 25 13 47 26 50 30 3 4 25 15 50 26 25 10 63 29 85 41 22 13 57 30
78 39 34 15 37 20 37 56 0 25 -7 46 -20 60 -11 12 -20 30 -20 39 0 26 -50 180
-66 207 -20 30 -144 409 -144 437 0 12 -8 33 -18 46 -16 21 -44 75 -46 89 -1
3 -11 25 -23 50 -71 150 -97 213 -114 278 -22 86 -62 199 -86 245 -9 17 -19
46 -20 62 -2 17 -16 64 -31 105 -43 114 -81 232 -86 265 -3 17 -15 57 -26 90
-12 33 -25 74 -29 90 -5 17 -17 50 -28 75 -35 82 -78 255 -89 358 -5 48 -13
70 -31 88 -13 13 -26 24 -30 24 -3 0 -28 12 -56 26 -28 14 -76 32 -106 40 -30
7 -64 21 -77 29 -13 8 -48 22 -78 29 -30 8 -64 20 -75 26 -12 6 -21 8 -21 6 0
-11 -107 58 -132 85 -28 30 -55 35 -98 18z m150 -187 c30 -11 69 -27 85 -36
17 -9 37 -16 45 -16 8 0 49 -13 90 -29 41 -16 92 -35 114 -43 21 -7 38 -17 37
-23 0 -5 -28 -25 -62 -43 -33 -18 -80 -48 -102 -67 -23 -20 -53 -38 -67 -41
-37 -8 -70 -26 -103 -56 -26 -23 -95 -64 -258 -155 -21 -11 -46 -29 -55 -38
-10 -9 -43 -29 -75 -45 -48 -23 -126 -75 -149 -100 -7 -7 -123 -84 -135 -89
-5 -2 -23 -17 -40 -33 -37 -34 -112 -71 -131 -64 -12 5 -19 34 -15 59 1 5 -14
-3 -33 -18 l-35 -26 -63 33 c-35 18 -72 34 -83 36 -11 2 -33 10 -49 18 -16 7
-32 12 -36 9 -4 -3 -10 1 -13 9 -3 8 -29 16 -61 20 -31 4 -58 11 -60 15 -5 7
115 120 159 151 32 22 112 91 142 123 15 15 34 27 44 27 10 0 60 33 111 73 51
39 118 85 148 101 30 16 78 46 108 67 29 21 66 41 82 44 16 3 44 21 63 38 20
18 46 40 59 50 12 9 37 28 53 41 17 13 41 27 55 31 14 4 40 18 58 30 l34 23
41 -28 c23 -15 67 -36 97 -48z m460 -239 c1 -10 17 -84 30 -133 32 -129 52
-195 69 -233 18 -38 33 -85 71 -212 5 -16 11 -41 14 -55 3 -14 14 -50 24 -80
11 -30 27 -77 36 -105 30 -93 67 -200 76 -220 21 -45 53 -140 71 -213 24 -95
39 -134 90 -237 5 -11 11 -31 14 -44 2 -13 11 -31 19 -40 7 -9 17 -27 21 -41
4 -14 14 -34 21 -45 8 -11 14 -30 14 -44 0 -13 7 -32 15 -42 15 -16 76 -197
96 -284 5 -22 25 -72 44 -112 19 -39 35 -78 35 -86 0 -7 3 -17 8 -21 4 -4 7
-11 8 -14 0 -4 4 -23 8 -42 4 -19 9 -52 10 -73 3 -35 0 -40 -33 -58 -20 -10
-43 -24 -51 -29 -35 -24 -245 -140 -252 -140 -5 0 -14 -4 -21 -10 -53 -44
-199 -145 -227 -159 -19 -9 -36 -19 -38 -23 -2 -5 -8 -8 -14 -8 -5 0 -35 -20
-66 -44 -31 -24 -67 -46 -80 -50 -12 -4 -57 -35 -100 -69 -93 -75 -140 -107
-153 -107 -6 0 -17 -6 -24 -12 -30 -27 -41 -34 -75 -48 -19 -7 -55 -27 -79
-44 -24 -17 -57 -41 -75 -53 -37 -26 -47 -28 -40 -9 3 8 0 25 -7 38 -7 13 -14
39 -15 58 -1 19 -8 49 -14 65 -12 28 -14 42 -23 128 -2 17 -11 48 -19 67 -8
19 -25 60 -38 90 -12 30 -31 73 -41 96 -11 22 -19 46 -19 54 0 7 -4 27 -10 44
-5 17 -23 76 -41 131 -17 55 -35 116 -39 135 -5 19 -32 123 -60 230 -28 107
-51 201 -52 208 -1 6 -5 12 -10 12 -4 0 -8 10 -8 21 0 12 -11 67 -25 123 -13
55 -27 117 -30 136 -6 36 -47 162 -70 215 -15 35 -29 87 -55 205 -10 47 -36
126 -56 175 -29 70 -38 104 -39 155 0 36 -4 75 -8 86 -6 16 -3 23 10 28 27 9
87 47 125 79 18 16 59 45 90 65 32 20 58 43 58 50 0 6 5 12 11 12 5 0 27 13
47 30 21 16 67 45 104 63 36 18 96 53 133 78 37 24 70 43 73 43 4 -1 19 7 34
17 14 10 31 19 36 19 13 0 105 63 136 95 14 14 36 25 49 25 14 0 47 16 73 34
27 19 66 44 88 56 21 11 45 27 53 35 8 8 20 15 27 15 8 0 19 7 26 15 13 16 40
21 40 8z m-1693 -596 c12 -2 26 -6 29 -10 4 -4 16 -7 26 -7 10 0 21 -7 24 -15
4 -8 10 -13 14 -10 5 3 24 -1 42 -9 18 -7 50 -19 70 -25 21 -7 60 -26 87 -44
42 -27 52 -40 66 -85 30 -94 4 -145 -86 -168 -39 -10 -62 -11 -94 -3 l-43 11
18 41 c57 134 15 175 -94 92 -30 -23 -48 -31 -52 -23 -4 6 -11 41 -15 77 -9
86 -11 90 -37 132 -28 46 -28 61 1 54 12 -3 32 -6 44 -8z m123 -298 c-13 -25
-27 -39 -40 -39 -27 0 -25 6 13 50 40 46 53 41 27 -11z m348 -257 c23 -70 42
-134 42 -143 0 -8 18 -67 39 -129 46 -134 62 -190 91 -320 12 -52 33 -133 46
-180 13 -47 31 -114 39 -150 37 -160 113 -439 125 -455 4 -5 10 -23 13 -40 10
-62 58 -202 92 -270 36 -72 55 -147 55 -219 0 -22 7 -59 14 -81 8 -22 14 -61
14 -87 0 -55 1 -55 -104 10 -40 24 -78 44 -85 45 -8 2 -35 17 -61 35 -26 17
-50 32 -55 32 -5 0 -23 13 -40 29 -18 16 -34 27 -37 24 -8 -9 -23 31 -51 132
-14 55 -41 145 -59 200 -38 115 -77 240 -95 305 -7 25 -33 97 -56 160 -44 116
-50 138 -60 220 -9 70 -10 74 -18 87 -10 16 -41 141 -57 228 -7 39 -15 75 -19
80 -3 6 -6 15 -7 20 -7 38 -48 182 -54 190 -4 6 -15 46 -24 90 -9 44 -22 89
-27 100 -6 12 -11 27 -12 35 -2 8 -6 20 -10 26 -4 7 -15 39 -26 73 -15 48 -16
61 -6 61 8 0 17 -4 20 -10 3 -5 17 -10 30 -10 13 0 27 -5 30 -11 12 -19 155
-8 195 15 19 11 37 24 38 28 2 4 12 8 21 8 14 0 27 -28 59 -128z"/>
<path d="M4024 3709 c2 -76 1 -139 -3 -139 -3 0 -19 36 -35 80 -30 85 -55 112
-82 89 -18 -15 -18 -53 0 -68 15 -12 66 -114 66 -131 0 -6 -6 -10 -14 -10 -7
0 -19 -7 -26 -15 -21 -25 6 -65 42 -65 15 0 28 4 28 8 0 5 19 24 42 42 31 25
40 29 34 14 -4 -10 -22 -77 -38 -149 -17 -71 -34 -139 -39 -150 -26 -63 -17
-125 17 -125 19 0 68 27 102 56 43 38 58 49 72 52 8 2 25 14 38 27 22 22 23
27 11 54 -11 26 -18 30 -44 27 -18 -2 -31 -10 -33 -20 -2 -9 -13 -16 -28 -16
-13 0 -24 -6 -24 -13 0 -8 -10 -22 -21 -33 l-21 -19 6 60 c3 33 17 98 31 145
14 47 27 92 29 100 2 8 7 27 11 41 8 33 -16 59 -56 59 -16 0 -29 1 -29 3 0 1
7 38 17 82 16 80 20 131 11 141 -3 2 -19 6 -37 9 l-31 4 4 -140z"/>
<path d="M4395 3818 c-10 -6 -38 -26 -62 -44 -23 -18 -53 -36 -65 -39 -13 -4
-31 -14 -40 -23 -19 -16 -25 -67 -9 -76 7 -5 21 -54 21 -78 0 -5 7 -25 15 -45
18 -47 34 -146 28 -177 -4 -18 1 -25 19 -29 12 -3 27 -6 32 -6 5 1 13 -5 17
-13 7 -10 9 -10 9 2 0 31 114 130 149 130 7 0 21 9 33 20 20 18 16 25 -13 22
-3 -1 -5 9 -5 21 1 29 -42 30 -66 2 -9 -12 -32 -30 -52 -40 -20 -11 -36 -23
-36 -27 0 -22 -20 -4 -30 26 -23 70 -22 80 13 104 18 12 38 22 44 22 5 0 18 9
28 20 10 12 24 19 31 16 7 -3 14 5 17 16 6 21 -11 68 -24 68 -22 0 -59 -21
-59 -34 0 -8 -13 -17 -30 -21 -16 -4 -32 -11 -35 -16 -4 -5 -13 -9 -21 -9 -11
0 -12 4 -5 19 6 10 8 21 5 23 -11 11 79 76 121 88 37 10 45 17 45 36 0 24 -24
54 -43 54 -7 0 -21 -6 -32 -12z"/>
<path d="M3808 3666 c-7 -8 -46 -48 -86 -90 -59 -59 -73 -79 -67 -95 11 -37
49 -26 104 32 28 28 51 58 51 65 0 10 27 17 53 13 14 -2 7 58 -9 73 -19 20
-29 20 -46 2z"/>
<path d="M3781 3457 c-6 -8 -9 -16 -6 -19 6 -6 -24 -109 -37 -125 -8 -10 -18
-7 -42 12 -18 14 -42 25 -54 25 -21 0 -38 -31 -27 -50 8 -13 -18 -13 -31 0 -6
6 -28 3 -63 -10 -30 -10 -55 -21 -56 -22 -24 -27 -42 -74 -34 -89 5 -11 14
-28 19 -39 6 -11 10 -37 10 -57 0 -21 4 -54 9 -73 6 -19 11 -48 12 -65 2 -16
8 -36 13 -43 5 -7 9 -27 8 -45 -2 -48 11 -63 44 -52 32 12 47 52 29 75 -10 13
-35 86 -35 104 0 22 60 -6 110 -52 51 -47 90 -39 90 20 0 22 -10 31 -72 63
-76 39 -100 55 -81 55 6 0 22 18 37 40 27 42 33 90 16 134 -6 17 -6 26 0 26 6
0 10 -4 10 -10 0 -5 8 -10 18 -10 41 -1 119 -110 137 -193 6 -32 24 -42 58
-33 20 5 23 11 21 42 -2 20 -9 44 -16 53 -21 26 -38 60 -38 75 0 7 -8 24 -19
37 -16 22 -17 29 -6 69 7 25 21 66 31 91 15 39 16 50 5 63 -16 20 -45 21 -60
3z m-196 -258 c6 -27 3 -35 -26 -60 -32 -27 -55 -30 -46 -6 2 7 1 19 -4 28 -6
11 -1 25 14 42 31 36 54 34 62 -4z"/>
<path d="M4460 2830 c-8 -5 -27 -10 -42 -10 -15 0 -41 -8 -58 -19 -27 -16 -35
-17 -68 -6 -46 16 -62 10 -122 -49 -82 -80 -110 -166 -74 -221 8 -13 18 -39
20 -57 3 -18 7 -39 9 -45 2 -7 -11 -20 -30 -29 -19 -9 -35 -20 -35 -25 0 -5
-6 -9 -13 -9 -7 0 -23 -9 -35 -20 -12 -11 -25 -20 -30 -20 -5 0 -22 -16 -38
-35 -16 -19 -35 -35 -41 -35 -7 0 -13 -7 -13 -15 0 -8 -4 -15 -10 -15 -5 0
-10 -5 -10 -12 0 -6 -12 -35 -26 -64 -25 -51 -25 -55 -11 -96 9 -24 18 -54 21
-68 3 -14 14 -35 26 -47 11 -12 34 -45 50 -73 27 -45 30 -60 30 -133 0 -90 12
-124 51 -146 37 -21 69 -7 107 44 18 25 55 60 82 78 27 17 50 37 50 44 0 6 9
15 20 18 11 3 20 10 20 15 0 5 15 17 33 26 32 17 131 22 218 10 28 -3 49 3 87
25 62 35 73 51 107 154 36 106 39 112 84 135 31 15 39 24 36 42 -5 37 -62 166
-88 201 -14 17 -33 49 -42 70 -20 42 -47 57 -110 61 -42 3 -95 -17 -95 -36 0
-6 -3 -9 -6 -5 -3 3 1 18 10 34 30 52 56 125 56 153 0 16 4 31 9 35 18 11 -16
96 -51 126 -35 30 -54 35 -78 19z m50 -65 c10 -3 20 -14 23 -25 6 -21 -8 -94
-23 -125 -6 -11 -28 -63 -49 -115 -37 -88 -38 -96 -25 -122 21 -40 46 -35 98
20 26 27 53 49 61 50 57 6 69 3 86 -19 10 -13 19 -33 19 -44 0 -11 11 -36 24
-56 18 -26 56 -125 56 -145 0 -1 -15 -11 -33 -22 -30 -17 -35 -26 -40 -73 -4
-29 -13 -56 -21 -61 -7 -4 -17 -24 -20 -43 -4 -19 -11 -35 -16 -35 -6 0 -10
-6 -10 -14 0 -8 -9 -18 -20 -21 -11 -3 -20 -10 -20 -14 0 -17 -50 -31 -76 -21
-28 11 -63 12 -157 3 -53 -5 -63 -10 -115 -57 -31 -28 -70 -60 -87 -70 -16
-11 -39 -30 -50 -44 -49 -62 -71 -82 -82 -74 -7 4 -14 47 -17 105 -5 94 -6
101 -47 165 -23 37 -47 70 -52 74 -6 3 -12 20 -13 36 -1 16 -7 39 -14 52 -15
27 -5 85 18 108 9 10 28 34 42 54 13 20 53 55 87 78 54 35 68 40 98 34 l35 -6
-6 63 c-6 72 -21 138 -36 156 -11 14 -1 73 13 73 5 0 9 8 9 18 0 24 63 90 94
98 15 3 38 0 57 -10 43 -22 63 -20 95 7 26 23 79 33 114 22z"/>
<path d="M2912 3017 c-6 -7 -10 -31 -8 -53 3 -30 8 -39 22 -39 24 0 51 84 31
97 -18 11 -33 10 -45 -5z"/>
<path d="M2545 3288 c-28 -14 -81 -97 -96 -149 -7 -24 -16 -48 -20 -54 -20
-28 -9 -105 15 -105 23 0 67 60 109 148 21 46 40 89 41 95 2 7 6 20 11 30 17
39 -15 58 -60 35z m-25 -142 c-24 -51 -47 -73 -35 -35 9 28 48 89 54 84 2 -2
-7 -24 -19 -49z"/>
<path d="M2632 2964 c-9 -10 -18 -11 -29 -5 -13 7 -21 0 -40 -33 -51 -92 -65
-130 -66 -183 0 -60 14 -84 40 -67 11 7 16 27 17 75 1 48 7 74 24 100 22 34
31 25 11 -12 -9 -18 -8 -20 12 -17 12 2 27 12 33 23 6 11 14 22 18 25 11 8 37
93 32 102 -8 13 -38 9 -52 -8z"/>
<path d="M2341 2801 c-15 -10 -42 -97 -33 -106 14 -14 31 -1 51 40 29 59 20
90 -18 66z"/>
<path d="M2689 2763 c-15 -2 -33 -12 -41 -21 -23 -27 -58 -122 -58 -158 0 -41
24 -68 50 -54 56 30 130 184 107 222 -7 10 -16 17 -22 17 -5 -1 -22 -4 -36 -6z
m9 -80 c-25 -52 -44 -83 -50 -83 -11 0 10 51 29 72 17 19 27 24 21 11z"/>
<path d="M2264 2457 c-26 -27 -64 -138 -64 -188 0 -84 70 -47 129 68 23 46 28
112 9 131 -18 18 -51 13 -74 -11z m46 -61 c0 -2 -6 -19 -14 -38 -14 -33 -46
-69 -46 -52 0 16 42 94 51 94 5 0 9 -2 9 -4z"/>
<path d="M2660 2387 c-23 -53 -45 -146 -35 -155 7 -8 44 37 45 54 0 7 11 32
25 55 31 55 33 89 4 89 -14 0 -26 -12 -39 -43z"/>
<path d="M2453 2363 c-11 -10 -34 -43 -52 -74 -37 -66 -42 -124 -11 -134 11
-3 25 -3 31 0 18 12 80 115 85 143 3 14 7 29 9 32 5 8 -23 50 -34 50 -4 0 -17
-8 -28 -17z m-17 -131 c-18 -16 -18 -16 -6 6 6 13 14 21 18 18 3 -4 -2 -14
-12 -24z"/>
<path d="M2516 2042 c-11 -21 -36 -125 -36 -149 0 -2 6 -3 13 -3 14 0 80 158
71 171 -11 18 -34 8 -48 -19z"/>
<path d="M2267 2002 c-15 -15 -27 -32 -27 -38 0 -5 -9 -20 -20 -34 -24 -30
-27 -80 -5 -80 9 0 26 23 40 53 13 28 32 64 42 79 26 41 4 56 -30 20z"/>
<path d="M2052 1958 c-5 -7 -13 -23 -16 -35 -4 -13 -13 -23 -21 -23 -12 0 -27
-27 -30 -55 0 -5 -5 -31 -9 -57 -10 -60 -1 -88 29 -88 43 0 114 117 117 192 2
56 -43 99 -70 66z m28 -77 c0 -29 -38 -111 -51 -111 -9 0 9 71 22 85 5 5 9 19
9 32 0 13 5 23 10 23 6 0 10 -13 10 -29z"/>
<path d="M2272 1797 c-6 -7 -16 -25 -21 -40 -6 -15 -21 -31 -34 -36 -20 -8
-27 -22 -42 -94 -10 -47 -15 -92 -12 -101 8 -19 34 -21 52 -3 15 15 55 91 61
116 2 9 13 43 24 75 21 61 19 96 -4 96 -8 0 -18 -6 -24 -13z"/>
<path d="M2370 1703 c-31 -25 -43 -47 -56 -98 -7 -30 12 -34 32 -7 12 15 13
14 14 -15 0 -18 4 -33 9 -33 25 0 79 43 94 75 17 36 14 58 -11 88 -21 24 -45
21 -82 -10z"/>
<path d="M1335 1570 c-16 -4 -59 -13 -94 -20 -35 -6 -71 -15 -80 -20 -9 -4
-30 -14 -47 -20 -18 -6 -40 -19 -50 -29 -11 -9 -35 -23 -54 -31 -64 -25 -160
-107 -280 -239 -9 -9 -27 -35 -40 -56 -13 -22 -27 -42 -31 -45 -4 -3 -13 -17
-19 -30 -6 -14 -26 -50 -45 -80 -29 -46 -35 -64 -35 -110 0 -30 7 -77 16 -105
8 -27 17 -58 19 -67 6 -26 84 -139 127 -181 21 -21 38 -45 38 -53 0 -9 6 -14
13 -11 17 6 76 -25 126 -67 24 -20 48 -36 55 -36 6 0 27 -11 46 -24 19 -13 64
-38 98 -56 35 -18 66 -39 69 -46 3 -8 9 -11 14 -8 5 2 19 -1 31 -8 95 -51 298
-102 459 -113 51 -4 100 -10 109 -15 20 -10 247 11 320 31 19 5 60 12 90 15
63 6 56 3 220 84 124 61 225 115 251 136 8 6 41 24 74 40 37 18 79 50 110 83
27 30 70 74 95 97 35 34 45 50 45 77 1 19 8 45 16 58 46 77 79 176 79 239 0
26 3 50 7 54 14 13 1 86 -23 136 -13 27 -24 57 -24 65 0 8 -4 15 -10 15 -5 0
-10 5 -10 11 0 10 -65 106 -80 119 -4 3 -9 13 -13 23 -3 9 -12 17 -20 17 -7 0
-26 14 -42 30 -16 17 -32 30 -36 30 -4 0 -37 14 -74 31 -36 17 -85 33 -108 35
-23 2 -64 7 -92 10 -27 3 -61 7 -75 8 -31 3 -51 -16 -55 -52 -7 -59 19 -72
157 -76 62 -2 86 -8 141 -35 37 -18 67 -37 67 -42 0 -5 5 -9 10 -9 17 0 100
-92 118 -130 10 -19 26 -48 37 -64 25 -38 29 -189 7 -256 -21 -62 -79 -159
-116 -193 -30 -29 -140 -88 -206 -112 -19 -7 -64 -26 -100 -43 -93 -44 -321
-116 -396 -126 -16 -3 -58 -9 -94 -14 -36 -6 -72 -10 -80 -11 -8 0 -31 -3 -50
-6 -85 -14 -221 -12 -325 4 -60 10 -150 23 -200 30 -49 7 -97 15 -105 19 -8 3
-22 6 -30 8 -8 2 -23 7 -35 12 -11 6 -45 15 -75 21 -31 6 -78 23 -105 36 -27
14 -66 30 -86 35 -159 43 -267 165 -284 321 -6 49 -3 62 33 134 22 44 51 91
64 105 12 14 35 43 50 65 15 22 56 67 90 101 93 90 202 149 363 199 83 26 102
28 260 27 93 0 179 -2 190 -5 23 -6 106 -10 148 -8 38 1 58 43 34 69 -10 10
-23 19 -30 20 -50 7 -518 9 -542 2z m1150 -1186 c-11 -9 -38 -24 -60 -34 -22
-9 -60 -27 -83 -38 -24 -11 -57 -24 -75 -27 -18 -4 -36 -11 -42 -15 -5 -4 -35
-10 -65 -13 -30 -3 -77 -13 -104 -22 -35 -12 -85 -17 -175 -18 -141 -1 -321
11 -336 22 -5 4 -36 13 -69 20 -56 12 -126 37 -126 45 0 2 17 -1 38 -6 20 -6
75 -14 122 -19 47 -5 94 -10 105 -12 11 -2 40 -7 65 -11 96 -15 443 26 580 69
146 46 235 74 240 74 3 0 -4 -7 -15 -15z"/>
<path d="M1973 1506 c-39 -54 -43 -66 -52 -180 -1 -14 -7 -17 -27 -13 -17 3
-32 -1 -43 -13 -106 -113 -129 -142 -135 -166 -9 -36 16 -58 58 -49 36 6 109
62 142 107 20 27 30 32 57 30 58 -5 110 70 108 158 0 36 -6 50 -26 68 -21 18
-30 20 -46 11 -19 -10 -19 -7 5 34 13 25 22 48 19 51 -14 13 -30 3 -60 -38z
m71 -161 c-12 -59 -51 -95 -69 -64 -13 19 -16 99 -5 99 6 0 8 -4 5 -10 -15
-24 14 -8 30 17 17 25 18 26 32 7 8 -12 11 -30 7 -49z m-131 -102 c-7 -27 -24
-46 -76 -86 -53 -40 -87 -48 -87 -19 0 12 3 14 8 4 6 -9 27 6 74 53 67 66 90
79 81 48z"/>
<path d="M2250 1366 c-21 -53 -41 -161 -32 -171 12 -12 20 -1 42 63 13 37 32
81 42 97 25 42 23 65 -6 65 -19 0 -28 -10 -46 -54z"/>
<path d="M2377 1414 c-3 -3 -3 -12 -1 -19 3 -7 -4 -15 -16 -18 -31 -8 -22 -43
10 -40 14 1 32 -1 40 -4 8 -3 24 -6 35 -7 11 -1 21 -10 23 -21 6 -29 19 -42
48 -48 24 -4 26 -2 21 23 -3 15 -2 31 3 36 6 6 4 19 -3 34 -10 19 -22 26 -52
28 -21 2 -44 9 -49 17 -13 15 -50 28 -59 19z"/>
<path d="M1617 1353 c-39 -17 -43 -29 -14 -47 12 -8 22 -7 37 2 11 6 26 12 33
12 7 0 24 11 37 25 l23 25 -39 -1 c-21 -1 -56 -8 -77 -16z"/>
<path d="M1516 1320 c-16 -5 -33 -7 -38 -4 -5 3 -20 -2 -34 -11 -18 -12 -23
-22 -19 -36 4 -11 3 -18 -2 -17 -4 1 -24 -3 -44 -10 -20 -7 -43 -11 -50 -10
-7 2 -21 -11 -29 -28 -9 -18 -28 -46 -43 -64 -15 -17 -27 -39 -27 -49 0 -10
-7 -39 -16 -65 -15 -44 -15 -48 1 -66 11 -12 13 -20 6 -20 -8 0 -11 -20 -9
-65 3 -55 6 -65 21 -65 23 0 40 45 34 95 -2 22 0 50 4 63 5 13 5 22 -1 22 -17
0 -11 54 11 95 33 61 96 131 137 150 20 10 45 22 55 27 10 5 17 4 17 -2 0 -5
-4 -10 -10 -10 -5 0 -10 -5 -10 -11 0 -5 8 -9 18 -8 32 3 33 -1 11 -33 -28
-40 -61 -73 -83 -81 -25 -10 -19 9 15 48 18 21 29 41 25 50 -15 40 -121 -68
-114 -116 8 -53 69 -50 120 7 40 42 88 123 88 145 0 19 -26 32 -43 23 -7 -4 4
7 23 24 37 33 34 36 -14 22z"/>
<path d="M1670 1275 c-33 -18 -94 -92 -107 -130 -12 -36 -1 -75 22 -75 31 0
93 40 114 73 22 35 41 113 33 135 -5 16 -31 15 -62 -3z m36 -37 c-10 -52 -29
-85 -63 -110 -40 -31 -53 -29 -53 8 0 16 17 40 53 74 58 55 69 60 63 28z"/>
<path d="M2406 1255 c-11 -8 -28 -15 -38 -15 -23 0 -40 -63 -39 -149 0 -51 5
-69 20 -85 18 -18 23 -18 47 -5 41 21 62 81 66 179 3 79 2 85 -17 87 -11 2
-29 -4 -39 -12z m24 -128 c-12 -56 -33 -93 -48 -83 -10 6 -9 26 3 102 3 18 16
45 28 60 l22 29 3 -28 c2 -15 -2 -51 -8 -80z"/>
<path d="M2533 1214 c-6 -16 13 -38 41 -47 8 -3 8 -11 -1 -29 -6 -14 -9 -42
-6 -63 3 -24 -1 -50 -13 -74 -9 -20 -20 -43 -24 -51 -10 -22 -1 -40 20 -40 30
0 44 25 55 102 2 15 9 36 14 46 14 27 8 136 -8 156 -18 21 -70 21 -78 0z"/>
<path d="M1970 1110 c-11 -11 -30 -22 -43 -25 -18 -5 -28 -19 -41 -63 -17 -53
-17 -56 0 -69 10 -7 28 -13 40 -13 29 0 91 63 99 101 4 16 11 31 16 34 15 10
10 42 -7 49 -27 10 -43 7 -64 -14z m10 -59 c0 -5 -9 -19 -21 -32 l-20 -24 17
33 c19 33 24 38 24 23z"/>
<path d="M2142 1078 c-7 -7 -12 -15 -12 -20 0 -4 -11 -24 -25 -44 -29 -42 -32
-85 -9 -108 8 -9 18 -16 20 -16 13 0 94 41 94 48 0 4 10 12 23 17 37 16 35 61
-5 101 -34 35 -65 43 -86 22z m58 -81 c0 -22 -39 -52 -51 -40 -8 8 -4 17 12
32 26 24 39 27 39 8z"/>
<path d="M1713 1028 c-16 -24 -33 -47 -39 -53 -5 -5 -21 -27 -34 -47 -22 -33
-26 -35 -41 -22 -33 30 -74 18 -129 -38 -54 -55 -70 -90 -51 -120 10 -16 8
-18 -21 -18 -35 1 -68 19 -68 39 0 6 6 11 13 11 43 0 147 170 147 240 0 82
-120 9 -175 -105 -33 -70 -39 -100 -25 -125 9 -16 9 -25 1 -33 -37 -37 25 -78
121 -82 64 -2 88 6 88 31 0 9 -12 14 -32 15 l-33 1 33 11 c34 10 112 77 112
95 0 5 7 15 15 22 12 10 15 9 15 -7 0 -57 55 -43 112 29 49 63 62 92 54 129
-4 23 -1 38 10 51 16 17 16 18 -14 18 -26 0 -37 -7 -59 -42z m-260 -60 c-10
-57 -86 -148 -122 -148 -15 0 20 89 44 112 20 19 78 67 82 68 1 0 0 -15 -4
-32z m263 -46 c-14 -28 -56 -71 -56 -58 0 20 48 86 62 86 5 0 2 -12 -6 -28z
m-136 -52 c0 -19 -80 -90 -100 -90 -25 0 -25 6 0 38 35 44 100 78 100 52z"/>
<path d="M2458 890 c-1 -5 -23 -20 -48 -32 -35 -18 -46 -29 -48 -51 -4 -36 21
-46 50 -19 13 11 38 34 57 50 23 20 32 34 28 45 -7 18 -33 23 -39 7z"/>
<path d="M1852 867 c-12 -7 -51 -40 -86 -74 -61 -59 -65 -61 -104 -56 -35 5
-45 2 -61 -18 -10 -13 -16 -29 -14 -36 6 -15 35 -17 49 -3 7 7 24 3 54 -11 57
-28 85 -21 185 46 96 63 102 70 107 110 2 25 -1 31 -20 33 -24 4 -127 -53
-167 -91 -20 -19 -20 -19 5 -12 14 4 49 21 78 36 60 33 70 36 51 13 -24 -29
-132 -94 -156 -94 -29 0 -29 5 4 49 33 44 47 56 96 82 21 11 35 24 32 29 -8
13 -25 12 -53 -3z"/>
<path d="M2225 790 c-11 -5 -32 -11 -48 -15 -40 -8 -72 -42 -56 -61 14 -18 45
-18 52 -1 3 7 28 24 56 37 56 27 74 50 38 49 -12 0 -31 -4 -42 -9z"/>
<path d="M1948 728 c-20 -18 -50 -38 -70 -44 -25 -9 -30 -32 -9 -43 13 -7 24
-5 41 6 13 9 42 18 64 19 44 3 107 17 125 28 8 5 8 13 0 28 -8 15 -14 17 -22
9 -14 -14 -74 -15 -82 -1 -8 14 -31 13 -47 -2z"/>
</g>
</svg>
