<?xml version="1.0" standalone="no"?>
<!DOCTYPE svg PUBLIC "-//W3C//DTD SVG 20010904//EN"
 "http://www.w3.org/TR/2001/REC-SVG-20010904/DTD/svg10.dtd">
<svg version="1.0" xmlns="http://www.w3.org/2000/svg"
 width="521.000000pt" height="391.000000pt" viewBox="0 0 521.000000 391.000000"
 preserveAspectRatio="xMidYMid meet">
<metadata>
Created by potrace 1.16, written by Peter Selinger 2001-2019
</metadata>
<g transform="translate(0.000000,391.000000) scale(0.100000,-0.100000)"
fill="#000000" stroke="none">
<path d="M4485 3736 c-22 -8 -73 -30 -114 -51 -67 -33 -76 -35 -86 -21 -7 9
-15 13 -18 10 -3 -3 -22 7 -43 22 -35 27 -43 29 -150 31 -99 2 -120 0 -181
-23 -37 -14 -83 -34 -101 -45 -18 -10 -38 -19 -43 -19 -11 0 -160 -97 -169
-110 -3 -3 -32 -25 -65 -47 -61 -42 -73 -52 -204 -170 -40 -37 -108 -93 -150
-124 -42 -32 -92 -72 -112 -91 -54 -50 -139 -123 -186 -160 -53 -41 -220 -178
-253 -208 -14 -12 -45 -36 -70 -53 -25 -17 -61 -46 -80 -63 -19 -18 -57 -49
-85 -70 -80 -61 -268 -219 -295 -249 -14 -15 -45 -41 -70 -58 -63 -43 -62 -43
-154 -132 -45 -44 -112 -105 -149 -135 -36 -30 -66 -60 -66 -67 -1 -6 -9 -14
-18 -18 -10 -3 -38 -24 -63 -46 -25 -22 -65 -57 -89 -77 -44 -38 -229 -211
-338 -317 -34 -33 -88 -84 -120 -114 -174 -160 -225 -217 -255 -281 -26 -55
-30 -73 -26 -131 3 -50 10 -75 28 -103 14 -20 31 -36 38 -36 16 0 4 -22 -38
-69 -30 -33 -42 -66 -59 -154 -6 -37 -4 -55 16 -105 25 -62 36 -74 131 -137
53 -36 126 -57 163 -48 11 3 35 -6 58 -21 72 -50 208 -82 341 -80 107 2 313
14 322 20 4 3 30 7 58 10 28 2 83 16 122 30 39 15 94 30 122 34 28 4 87 22
131 40 44 17 99 36 122 41 35 7 114 48 133 69 5 6 54 21 110 36 22 5 77 34
232 121 22 12 58 38 79 58 22 20 52 41 67 48 15 6 29 14 32 17 15 16 89 69
116 83 18 9 46 31 62 49 17 18 41 44 54 58 27 29 114 100 122 100 3 0 14 8 25
17 10 10 34 29 52 43 19 14 52 43 75 65 23 22 76 69 119 105 42 36 93 85 114
109 20 25 49 56 65 70 55 50 86 81 86 86 0 3 38 45 85 93 47 48 85 90 85 94 0
3 18 26 41 50 22 23 54 62 70 85 29 42 64 82 169 198 31 33 76 89 100 125 24
36 61 85 82 109 21 24 38 49 38 55 0 6 15 41 34 78 18 36 36 75 39 85 6 18 27
53 37 63 5 5 98 306 106 345 3 11 6 48 9 82 3 45 9 67 24 82 12 12 21 29 21
39 0 15 49 90 92 141 17 20 37 82 38 116 0 17 7 39 15 49 19 25 19 82 1 89 -8
3 -19 23 -26 44 -18 54 -48 101 -98 150 -24 24 -45 43 -47 43 -2 0 -21 11 -41
25 -20 14 -40 22 -45 19 -5 -3 -9 0 -9 5 0 15 -116 13 -165 -3z m-303 -114
c15 -15 -2 -38 -44 -62 -22 -12 -62 -42 -89 -66 -27 -24 -75 -60 -106 -80 -32
-20 -94 -71 -138 -113 -45 -42 -112 -103 -149 -136 -38 -33 -106 -97 -152
-142 -45 -45 -94 -87 -107 -95 -14 -7 -56 -34 -95 -60 -39 -27 -73 -48 -76
-48 -5 0 -16 -8 -68 -52 -12 -10 -29 -18 -40 -18 -10 0 -18 -4 -18 -8 0 -4
-27 -25 -61 -47 -33 -21 -133 -111 -222 -199 -89 -89 -177 -172 -195 -185 -18
-13 -48 -36 -65 -53 -18 -16 -73 -60 -123 -98 -49 -37 -97 -76 -105 -86 -18
-21 -153 -134 -239 -199 -36 -27 -96 -75 -135 -107 -38 -33 -81 -68 -95 -80
-14 -11 -52 -46 -86 -77 -33 -31 -78 -69 -99 -86 -153 -120 -341 -290 -369
-333 -10 -15 -66 -64 -123 -108 -157 -119 -254 -196 -287 -228 -27 -26 -30
-27 -39 -10 -5 11 -17 27 -25 37 -47 53 -21 119 92 234 50 52 93 98 94 103 2
6 8 10 14 10 8 0 110 101 177 175 25 28 118 107 147 125 13 8 24 18 24 23 0 5
15 23 33 40 85 81 221 202 255 227 20 15 68 60 106 99 38 39 75 71 83 71 7 0
13 4 13 9 0 15 112 118 181 168 35 25 96 76 135 112 71 67 87 80 165 142 24
19 57 46 73 62 17 15 34 27 38 27 4 0 30 21 58 48 29 26 59 51 68 56 29 16
168 125 183 142 7 9 40 37 74 62 33 25 71 56 85 68 22 20 178 154 255 220 17
14 53 42 81 62 28 20 86 69 128 107 43 39 83 72 89 74 7 2 24 16 38 31 15 14
60 48 100 75 41 27 76 52 79 56 3 3 46 26 95 51 88 45 137 60 240 76 50 8 132
-1 147 -16z m372 -396 c34 -14 69 -61 80 -109 7 -32 8 -189 1 -227 -9 -51 -10
-53 -77 -273 -35 -113 -59 -140 -100 -113 -13 8 -45 20 -73 26 -27 6 -57 13
-65 17 -8 3 -22 7 -30 9 -22 4 -101 16 -128 20 -13 1 -46 8 -72 14 -46 11
-133 4 -220 -17 -27 -7 -35 -15 172 198 116 121 188 201 188 210 0 9 27 19 51
19 12 0 24 12 33 33 8 17 22 43 30 57 8 14 21 41 30 61 15 36 51 60 115 80 14
4 27 8 29 8 1 1 18 -5 36 -13z m-394 -731 c58 -9 129 -22 158 -30 63 -16 132
-59 132 -81 0 -25 -31 -76 -77 -128 -25 -28 -53 -66 -63 -85 -11 -20 -36 -54
-55 -76 -20 -22 -60 -69 -90 -105 -65 -80 -91 -104 -99 -91 -4 6 -19 6 -39 1
-17 -4 -77 -11 -132 -15 -105 -6 -287 -39 -319 -56 -10 -6 -54 -26 -97 -44
-43 -18 -92 -44 -108 -57 -26 -21 -54 -39 -115 -75 -12 -7 -56 -44 -100 -82
-43 -39 -82 -71 -85 -71 -10 0 -136 -124 -189 -185 -24 -28 -59 -79 -79 -115
-20 -36 -52 -88 -70 -117 -18 -29 -33 -55 -33 -58 0 -4 -12 -32 -26 -63 -44
-96 -86 -249 -100 -359 -7 -58 -13 -63 -124 -98 -52 -17 -91 -36 -143 -69 -30
-19 -416 -136 -450 -136 -8 0 12 151 21 163 7 8 10 16 7 19 -8 8 60 192 94
254 17 32 31 63 31 70 0 12 43 90 82 146 10 15 18 29 18 32 0 3 18 24 40 48
23 24 48 54 56 68 9 14 42 45 75 70 39 29 59 52 59 65 0 20 26 43 140 124 38
27 79 58 150 114 79 63 169 138 184 156 11 11 23 21 29 21 5 0 41 31 81 69
124 120 176 169 176 164 0 -4 101 81 155 131 11 10 43 36 72 57 28 21 129 116
223 210 168 167 173 171 206 164 19 -3 34 -2 34 3 0 12 70 40 110 43 19 2 40
6 45 10 12 9 74 17 95 13 8 -2 62 -11 120 -19z m-150 -692 c0 -8 -142 -171
-207 -239 -24 -24 -43 -48 -43 -54 0 -5 -4 -10 -8 -10 -11 0 -95 -81 -142
-137 -32 -37 -256 -230 -340 -293 -50 -37 -160 -134 -199 -174 -18 -20 -54
-49 -80 -66 -25 -16 -51 -33 -56 -38 -6 -5 -24 -17 -40 -28 -17 -10 -57 -38
-90 -62 -68 -50 -134 -86 -142 -78 -3 3 1 27 10 53 8 26 23 82 32 123 10 41
24 86 31 100 7 14 29 60 49 103 77 163 201 323 340 434 22 18 69 57 105 88 36
30 69 55 73 55 10 0 81 52 85 63 2 4 10 7 17 7 8 0 18 6 22 13 15 24 217 99
328 122 92 20 255 31 255 18z m-1953 -760 c-24 -28 -64 -104 -157 -298 -11
-22 -29 -67 -40 -100 -12 -33 -27 -71 -35 -85 -7 -14 -19 -54 -25 -90 -7 -36
-16 -74 -20 -85 -5 -11 -11 -38 -14 -59 -3 -22 -9 -43 -13 -47 -18 -18 -325
-37 -403 -25 -42 6 -114 17 -130 20 -35 6 -89 36 -99 54 -15 29 -14 52 4 52 8
0 14 4 12 8 -2 7 13 24 76 90 12 13 39 32 61 44 21 11 40 27 43 37 2 10 25 25
54 35 27 10 49 22 49 27 0 5 6 9 13 9 8 0 24 9 37 20 13 11 29 20 37 20 7 0
13 4 13 10 0 5 19 19 43 31 33 17 144 96 167 119 3 3 22 13 42 24 20 10 39 25
42 32 3 8 12 14 20 14 8 0 27 10 43 23 15 12 35 27 44 32 73 47 115 78 122 90
4 8 13 15 19 15 6 0 4 -8 -5 -17z"/>
</g>
</svg>
