<?xml version="1.0" standalone="no"?>
<!DOCTYPE svg PUBLIC "-//W3C//DTD SVG 20010904//EN"
 "http://www.w3.org/TR/2001/REC-SVG-20010904/DTD/svg10.dtd">
<svg version="1.0" xmlns="http://www.w3.org/2000/svg"
 width="515.000000pt" height="449.000000pt" viewBox="0 0 515.000000 449.000000"
 preserveAspectRatio="xMidYMid meet">
<metadata>
Created by potrace 1.16, written by Peter Selinger 2001-2019
</metadata>
<g transform="translate(0.000000,449.000000) scale(0.100000,-0.100000)"
fill="#000000" stroke="none">
<path d="M4070 4232 c-19 -2 -93 -17 -165 -33 -71 -16 -138 -29 -147 -29 -10
0 -18 -4 -18 -9 0 -10 -43 -24 -85 -27 -39 -2 -85 -21 -85 -34 0 -5 -5 -10
-11 -10 -34 0 -109 -111 -109 -160 0 -11 -3 -20 -7 -20 -5 0 -8 -31 -8 -70 0
-38 3 -70 6 -70 3 0 6 -12 6 -27 2 -105 16 -275 25 -308 10 -39 12 -51 23
-150 4 -27 8 -57 10 -65 3 -8 7 -33 10 -54 2 -22 11 -62 19 -90 15 -54 28
-121 32 -171 2 -16 9 -67 15 -112 13 -84 10 -104 -13 -86 -7 6 -42 21 -78 33
-65 23 -153 62 -325 145 -49 24 -117 52 -150 62 -33 10 -61 21 -63 25 -2 5
-10 8 -17 8 -7 0 -43 14 -80 30 -37 17 -75 30 -84 30 -10 0 -56 14 -102 31
-99 36 -235 72 -339 90 -81 14 -89 15 -92 19 -5 3 -31 7 -96 14 -35 4 -74 12
-87 18 -16 7 -29 7 -44 -2 -19 -10 -25 -8 -44 17 -33 43 -143 153 -153 153 -5
0 -25 13 -44 28 -43 36 -144 82 -177 82 -14 0 -36 9 -50 20 -14 11 -34 20 -44
20 -10 0 -24 8 -31 18 -7 11 -24 25 -37 32 -14 7 -34 21 -45 32 -67 62 -218
96 -280 63 -57 -31 -73 -76 -79 -232 -1 -29 -6 -53 -12 -52 -5 0 -30 10 -55
21 -98 47 -142 56 -183 42 -58 -20 -111 -63 -132 -106 -10 -21 -22 -38 -27
-38 -4 0 -6 -41 -4 -90 l4 -90 -27 -6 c-38 -9 -120 -55 -155 -86 -17 -16 -34
-28 -38 -28 -4 0 -34 -26 -67 -58 -67 -64 -105 -136 -126 -242 -25 -124 -37
-360 -22 -434 4 -21 9 -59 12 -85 5 -65 81 -266 150 -403 67 -130 202 -311
287 -386 24 -20 100 -94 170 -164 71 -71 132 -128 137 -128 6 0 27 -16 48 -36
38 -35 186 -144 197 -144 3 0 21 -11 40 -24 20 -13 79 -45 133 -71 154 -74
176 -85 213 -105 83 -43 245 -113 301 -130 21 -6 47 -20 60 -31 14 -12 32 -18
43 -15 19 5 107 -31 114 -47 2 -4 8 -4 13 -1 6 3 30 -12 54 -33 24 -21 67 -58
96 -83 28 -25 68 -60 87 -78 19 -17 38 -32 41 -32 3 0 27 -19 52 -43 25 -23
77 -58 115 -77 38 -19 76 -40 84 -46 34 -26 118 -45 166 -38 66 9 148 48 176
84 22 28 26 30 57 19 28 -10 49 -10 136 3 11 2 25 9 31 17 9 12 16 11 44 -9
19 -13 30 -19 26 -12 -5 8 1 12 16 12 35 1 101 66 103 101 0 4 10 15 23 25 25
21 28 36 17 106 -7 42 -5 47 11 48 11 0 109 2 219 5 110 2 211 6 225 8 100 20
185 40 199 47 9 5 41 16 71 25 30 9 62 23 70 30 8 8 39 25 69 38 70 33 193
154 257 253 27 42 47 77 46 78 -2 0 13 37 33 81 53 115 66 186 60 331 -4 118
-25 274 -44 342 -5 17 -7 32 -4 32 3 0 -1 8 -9 18 -8 9 -23 37 -32 62 -10 25
-28 64 -40 86 l-23 42 36 10 c20 6 63 16 96 23 33 7 69 20 80 30 11 9 29 19
40 21 21 3 85 60 85 74 0 13 44 98 54 106 5 3 11 35 13 70 2 34 8 99 14 143 5
44 11 96 13 115 3 19 7 89 11 155 3 66 8 127 11 135 6 17 12 128 19 340 2 85
9 173 15 195 17 65 22 433 6 475 -34 90 -50 117 -82 140 -20 14 -54 42 -77 63
-49 45 -247 142 -247 121 0 -2 -12 2 -27 10 -26 13 -150 41 -226 52 -43 6
-253 10 -297 6z m370 -108 c144 -27 345 -107 357 -143 3 -9 22 -32 43 -51 41
-38 62 -90 35 -90 -8 0 -15 -8 -15 -17 0 -21 -32 -52 -75 -76 -110 -59 -535
-96 -760 -67 -104 14 -157 27 -277 68 -93 32 -161 83 -172 128 -15 58 72 152
168 183 132 41 166 51 173 49 4 -1 28 4 53 11 57 17 224 30 315 24 39 -2 108
-11 155 -19z m-810 -425 c32 -19 174 -67 254 -86 134 -31 171 -33 469 -33 16
0 83 7 150 16 67 8 133 17 147 19 73 9 174 48 235 91 36 26 42 18 34 -45 -9
-59 -16 -142 -18 -193 -1 -25 -3 -26 -30 -15 -25 9 -33 8 -49 -6 -25 -23 -110
-55 -192 -73 -36 -8 -76 -19 -89 -24 -32 -15 -313 -21 -381 -9 -30 5 -95 11
-145 13 -49 2 -108 11 -130 19 -22 8 -60 18 -83 22 -24 4 -46 13 -49 20 -2 8
-11 11 -18 9 -20 -8 -105 32 -105 49 0 14 -27 32 -42 29 -4 -1 -10 10 -14 26
-3 15 -7 32 -9 39 -2 6 -7 54 -11 105 l-6 93 28 -26 c16 -14 40 -32 54 -40z
m-2396 -99 c46 -10 92 -39 183 -114 l35 -30 -40 -38 c-22 -21 -53 -65 -69 -98
-27 -57 -44 -72 -58 -50 -3 6 -20 10 -36 10 -38 0 -69 16 -69 35 0 11 -8 13
-30 8 -27 -5 -30 -3 -28 18 2 13 10 27 18 31 12 5 12 7 -2 7 -24 1 -31 50 -19
138 9 74 25 105 51 98 8 -2 37 -9 64 -15z m440 -229 c78 -41 104 -60 177 -131
44 -43 109 -132 109 -149 0 -5 7 -14 16 -21 8 -8 24 -31 34 -53 19 -40 19 -40
0 -85 -29 -64 -47 -172 -44 -256 0 -20 -4 -36 -10 -36 -6 0 -38 25 -71 55 -33
30 -68 58 -77 61 -10 3 -18 11 -18 17 0 15 -55 47 -81 47 -10 0 -26 12 -36 28
-10 15 -26 36 -35 46 -10 11 -18 24 -18 29 0 4 -12 24 -26 43 -15 19 -23 34
-20 34 4 0 -11 17 -34 38 -22 22 -40 44 -40 50 0 7 -6 12 -12 12 -18 1 -122
100 -106 100 9 0 21 28 33 70 11 39 22 70 25 70 4 0 15 8 26 19 32 29 76 50
107 51 15 0 61 -17 101 -39z m2026 -24 c165 -53 232 -68 312 -68 44 0 91 -4
105 -10 13 -5 106 -9 206 -10 196 -1 215 2 470 79 53 16 99 27 100 23 2 -3 2
-17 1 -31 -1 -14 -5 -79 -8 -145 -3 -66 -8 -154 -12 -195 -3 -41 -7 -102 -9
-135 -5 -125 -16 -251 -25 -285 -9 -30 -32 -199 -44 -325 -7 -63 -61 -146 -86
-130 -5 3 -13 -2 -18 -11 -5 -9 -13 -16 -18 -16 -5 0 -13 -2 -19 -3 -47 -14
-116 -20 -140 -13 -17 5 -39 6 -50 4 -15 -4 -27 5 -45 32 -29 44 -110 126
-129 130 -12 2 -94 64 -111 82 -11 13 -126 97 -140 103 -8 4 -35 23 -60 42
-25 19 -56 41 -70 47 -93 46 -179 116 -181 148 -2 23 -3 27 -13 55 -23 60 -27
75 -36 125 -6 30 -14 82 -19 115 -5 33 -19 98 -30 145 -18 75 -41 232 -41 284
0 18 1 18 18 3 10 -9 51 -27 92 -40z m-2833 12 c27 -12 66 -30 88 -40 22 -11
45 -19 50 -19 6 0 26 -13 45 -28 l34 -29 -30 -10 c-53 -19 -77 -49 -149 -184
-5 -11 -15 -19 -20 -19 -7 0 -9 -14 -7 -35 3 -21 0 -35 -7 -35 -6 0 -11 3 -11
8 0 11 -122 195 -143 216 -50 50 14 188 90 195 7 1 34 -8 60 -20z m448 -234
c40 -36 77 -65 83 -65 15 0 106 -109 130 -155 11 -22 32 -56 47 -75 l26 -35
-22 -10 c-59 -26 -150 -167 -148 -227 1 -13 -5 -52 -11 -87 -13 -66 -2 -231
19 -283 20 -49 72 -221 68 -225 -5 -4 -47 63 -47 75 0 4 -11 17 -23 29 -13 11
-32 39 -42 62 -11 22 -23 41 -27 41 -5 0 -8 6 -8 13 0 14 -103 177 -162 257
-18 24 -35 49 -37 55 -2 5 -17 29 -32 52 -16 23 -29 46 -29 51 0 5 -9 17 -20
27 -11 10 -20 21 -20 26 0 4 -18 36 -40 70 -145 232 -141 226 -114 211 32 -18
61 9 78 71 22 78 73 147 113 153 6 1 22 12 35 24 19 18 31 21 67 16 36 -5 57
-18 116 -71z m840 -25 c54 -11 109 -23 124 -25 14 -3 51 -10 81 -15 109 -18
279 -61 331 -84 30 -12 68 -26 84 -30 67 -15 115 -31 115 -38 0 -4 5 -8 10 -8
6 0 29 -9 53 -19 23 -11 60 -25 82 -31 22 -7 69 -27 105 -45 36 -18 81 -38
100 -46 19 -7 58 -25 85 -40 28 -15 85 -39 128 -53 95 -32 141 -55 187 -95 19
-17 42 -29 50 -26 28 9 337 -194 510 -335 118 -96 290 -312 290 -365 0 -7 4
-15 9 -17 14 -5 58 -110 70 -168 23 -117 24 -127 1 -143 -12 -8 -20 -23 -20
-33 6 -74 4 -154 -2 -154 -4 0 -8 -7 -8 -15 0 -8 -4 -15 -10 -15 -5 0 -10 -8
-10 -18 0 -9 -9 -23 -20 -30 -11 -7 -20 -18 -20 -25 0 -8 -11 -19 -25 -25 -14
-6 -25 -18 -25 -25 0 -34 -255 -237 -298 -237 -7 0 -20 -4 -30 -9 -156 -83
-326 -117 -627 -125 -33 -1 -64 -4 -70 -7 -5 -4 -24 -4 -42 -2 -25 4 -33 11
-38 34 -4 16 -13 32 -20 36 -7 5 -16 28 -18 53 -9 74 -62 211 -154 398 -94
191 -91 178 -78 337 6 67 3 96 -15 165 -13 47 -28 92 -35 100 -6 8 -22 44 -34
80 -13 36 -35 85 -50 110 -15 25 -30 52 -33 60 -3 8 -29 47 -58 85 -28 39 -59
81 -68 94 -9 14 -27 35 -39 48 -12 12 -35 42 -51 65 -17 24 -44 57 -62 73 -44
42 -53 52 -104 121 -25 33 -63 80 -86 105 -22 24 -46 59 -52 76 -7 18 -21 36
-32 39 -21 7 -66 52 -66 66 0 13 -106 79 -131 81 -27 2 -60 31 -77 70 -6 15
-10 27 -8 27 2 0 48 -9 101 -20z m-1492 -135 c18 -68 35 -118 68 -190 12 -27
22 -53 21 -57 -1 -4 9 -31 22 -60 13 -29 27 -69 31 -88 4 -19 12 -44 18 -55 6
-11 12 -27 13 -35 12 -76 15 -93 23 -108 5 -9 13 -30 19 -47 6 -16 33 -81 60
-143 28 -62 53 -121 56 -130 3 -9 20 -42 37 -72 18 -30 55 -100 83 -155 29
-55 66 -120 84 -144 18 -24 32 -48 32 -52 0 -7 55 -101 92 -158 10 -14 22 -36
27 -47 12 -27 95 -148 138 -200 73 -91 93 -117 93 -127 0 -10 -92 -3 -112 9
-6 4 -27 8 -47 9 -20 2 -60 10 -88 18 -29 8 -53 13 -53 10 0 -4 -9 2 -20 12
-11 10 -23 16 -26 13 -9 -10 -124 31 -167 60 -23 15 -76 45 -117 66 -109 55
-150 81 -174 108 -11 14 -26 23 -32 21 -10 -3 -128 106 -169 157 -81 101 -188
287 -209 365 -2 6 -13 32 -25 58 -22 47 -63 196 -75 268 -9 58 -8 207 3 314
14 140 43 238 82 273 17 15 44 41 60 58 17 18 51 43 77 55 25 13 54 31 64 39
20 16 79 30 89 21 3 -3 13 -33 22 -66z m1521 -62 c142 -149 208 -224 216 -248
6 -16 59 -79 135 -159 28 -29 72 -82 100 -117 27 -35 56 -70 63 -78 7 -8 21
-26 30 -40 20 -31 30 -44 57 -74 25 -28 86 -155 145 -297 29 -70 51 -182 49
-241 -2 -43 -5 -48 -48 -75 -43 -27 -53 -29 -146 -29 -100 0 -191 19 -165 35
7 4 -2 10 -24 14 -32 6 -40 14 -58 54 -56 128 -104 229 -119 252 -8 14 -22 41
-29 60 -7 19 -32 64 -55 100 -23 36 -46 76 -50 90 -4 14 -16 36 -26 49 -11 13
-19 30 -19 39 0 8 -15 38 -33 66 -19 28 -49 75 -67 104 -18 28 -36 52 -40 52
-15 0 -41 63 -36 85 3 13 2 26 -2 29 -9 5 -17 100 -14 171 6 156 68 228 136
158z m-385 -238 c65 -53 121 -109 126 -126 4 -11 10 -17 14 -15 15 9 141 -146
141 -173 0 -4 26 -44 58 -89 33 -44 69 -108 81 -141 12 -33 38 -83 58 -112 19
-29 44 -73 55 -98 11 -25 45 -98 75 -161 66 -137 93 -204 93 -229 0 -10 7 -33
16 -50 22 -45 14 -120 -17 -159 -13 -17 -28 -31 -32 -31 -5 -1 -23 -12 -41
-26 -18 -14 -36 -25 -40 -25 -4 0 -14 -7 -22 -15 -18 -17 -91 -20 -138 -5 -17
5 -42 12 -56 15 -25 5 -92 43 -160 90 -68 48 -113 90 -153 145 -22 30 -45 58
-51 62 -6 4 -7 8 -2 8 4 0 -3 15 -17 34 -28 36 -110 195 -122 236 -4 14 -11
30 -15 35 -4 6 -15 35 -25 65 -9 30 -23 69 -31 87 -8 17 -14 36 -14 41 0 6
-18 66 -41 134 -38 116 -40 128 -36 218 2 52 10 115 17 140 6 25 12 59 13 75
4 64 60 116 136 125 47 6 66 -2 130 -55z m-772 -317 c3 -15 12 -33 19 -39 8
-6 14 -17 14 -25 0 -7 25 -39 56 -70 31 -32 60 -67 65 -78 5 -12 18 -34 29
-51 11 -16 27 -43 36 -60 9 -16 47 -74 83 -128 36 -54 80 -122 96 -150 17 -29
42 -70 56 -92 30 -46 98 -163 126 -215 36 -69 155 -240 203 -292 27 -29 50
-58 50 -63 0 -6 18 -29 40 -50 22 -21 40 -45 40 -52 0 -8 6 -16 14 -19 7 -3
28 -26 47 -52 18 -26 36 -49 39 -52 5 -4 56 -67 97 -120 7 -8 41 -60 77 -115
36 -55 84 -124 107 -153 51 -64 47 -78 -7 -22 -21 23 -53 50 -70 61 -18 10
-51 45 -75 76 -24 32 -52 65 -62 75 -9 10 -17 22 -17 27 0 9 -78 87 -148 147
-64 56 -172 169 -193 203 -10 16 -27 34 -37 40 -11 6 -46 49 -77 96 -32 47
-61 85 -65 85 -7 0 -21 19 -75 106 -11 18 -31 45 -45 61 -14 16 -35 49 -48 73
-25 49 -128 217 -179 293 -18 26 -33 51 -33 54 0 4 -43 93 -95 199 -52 106
-95 198 -95 204 0 5 -4 18 -9 28 -37 74 -71 178 -71 219 0 17 101 -125 107
-149z m248 -158 c3 -5 1 -10 -4 -10 -6 0 -11 5 -11 10 0 6 2 10 4 10 3 0 8 -4
11 -10z m1673 -730 c3 -8 15 -23 27 -32 12 -9 39 -56 60 -105 22 -48 56 -119
77 -157 21 -37 45 -94 54 -125 9 -31 23 -73 30 -93 21 -57 -9 -111 -43 -77
-14 14 -76 27 -168 35 -38 3 -73 8 -77 10 -3 2 -9 18 -13 35 -8 35 -30 47 -56
31 -17 -11 -20 -6 -35 43 -26 90 -100 272 -126 307 -21 30 -40 70 -55 121 -5
17 -1 18 48 12 30 -3 63 -6 74 -6 11 0 43 1 72 1 29 0 55 5 58 10 10 15 67 8
73 -10z m-1152 -127 c-4 -4 -11 -1 -16 7 -16 25 -11 35 7 17 9 -9 13 -20 9
-24z m841 -97 c2 -12 8 -22 13 -24 6 -2 10 -11 10 -21 0 -9 6 -25 13 -36 26
-40 57 -132 73 -220 18 -98 20 -138 4 -143 -6 -2 -17 -10 -24 -18 -8 -8 -20
-14 -27 -14 -7 0 -23 -10 -35 -21 -34 -32 -217 -72 -237 -52 -4 3 -19 8 -34 9
-16 2 -32 10 -38 19 -5 9 -25 32 -42 52 -18 19 -33 39 -33 43 0 3 -11 13 -25
20 -13 7 -29 25 -35 39 -5 14 -28 49 -51 76 -22 28 -65 86 -97 130 -31 44 -60
82 -64 83 -4 2 -8 9 -8 15 0 6 -7 18 -16 28 -29 32 -10 44 21 13 16 -16 32
-29 35 -30 3 0 23 -8 45 -18 74 -33 172 -54 232 -50 45 4 69 13 116 45 33 21
61 39 63 39 8 0 63 60 81 86 l17 26 20 -28 c11 -15 22 -37 23 -48z m1958 -23
c-4 -16 -8 -35 -9 -43 -1 -8 -8 -28 -14 -43 -7 -16 -12 -30 -12 -33 0 -14 -94
-194 -102 -194 -5 0 -12 -8 -15 -17 -6 -16 -42 -58 -126 -145 -15 -16 -44 -36
-63 -44 -20 -9 -53 -26 -73 -38 -20 -13 -47 -26 -61 -30 -14 -4 -34 -11 -45
-16 -11 -5 -53 -18 -93 -29 -60 -15 -112 -19 -291 -20 -119 -1 -235 1 -257 5
-39 6 -42 8 -52 53 -6 25 -13 53 -17 63 -7 18 17 24 145 33 91 7 128 11 211
21 35 4 73 8 84 9 84 8 225 55 340 113 69 35 157 83 176 96 41 28 177 158 189
181 7 14 18 25 24 25 6 0 22 18 36 40 29 47 35 50 25 13z m-3540 -69 c35 -19
76 -39 92 -44 246 -74 287 -84 470 -106 39 -5 55 -18 189 -152 146 -146 147
-146 118 -154 -33 -9 -54 -3 -164 49 -353 164 -543 261 -617 316 -85 63 -145
108 -157 119 -22 18 10 6 69 -28z m1977 -341 c11 -9 18 -11 18 -5 0 16 21 15
58 -3 17 -9 51 -16 77 -17 l46 -1 25 -55 c38 -86 81 -229 71 -238 -3 -3 -22 0
-42 7 -28 11 -40 11 -55 1 -17 -10 -23 -9 -37 6 -35 37 -53 62 -74 104 -12 24
-37 65 -56 91 -19 27 -38 59 -43 73 -5 13 -14 24 -19 24 -5 0 -11 7 -15 15 -8
21 22 20 46 -2z m-259 -115 c7 -7 18 -31 24 -53 18 -61 70 -206 84 -235 7 -14
14 -28 16 -32 2 -4 -23 -4 -56 -1 -58 5 -59 4 -97 -34 -35 -35 -73 -63 -87
-63 -5 0 -107 162 -120 190 -4 8 -27 40 -51 70 l-44 55 57 12 c96 19 129 30
163 51 35 22 91 52 96 52 2 0 9 -6 15 -12z m148 -95 c12 -21 37 -57 55 -79 18
-23 31 -44 27 -47 -3 -3 4 -18 16 -32 18 -23 91 -168 91 -180 0 -3 -10 -3 -22
-1 -13 3 -30 5 -39 5 -15 1 -97 181 -130 286 -7 22 -17 44 -21 50 -8 9 -11 35
-4 35 2 0 14 -17 27 -37z m367 -195 c21 -23 23 -49 8 -95 -8 -25 -26 -31 -26
-10 0 8 -9 24 -20 37 -22 26 -27 76 -7 83 20 9 23 8 45 -15z m-403 -122 c19
-8 35 -22 35 -30 0 -25 -12 -46 -26 -46 -8 0 -14 -3 -14 -8 0 -11 -60 -36 -93
-39 -16 -2 -37 2 -48 7 -20 11 -26 40 -9 40 6 0 13 8 17 18 9 24 65 71 86 72
10 0 33 -7 52 -14z"/>
</g>
</svg>
