<?xml version="1.0" standalone="no"?>
<!DOCTYPE svg PUBLIC "-//W3C//DTD SVG 20010904//EN"
 "http://www.w3.org/TR/2001/REC-SVG-20010904/DTD/svg10.dtd">
<svg version="1.0" xmlns="http://www.w3.org/2000/svg"
 width="541.000000pt" height="431.000000pt" viewBox="0 0 541.000000 431.000000"
 preserveAspectRatio="xMidYMid meet">
<metadata>
Created by potrace 1.16, written by Peter Selinger 2001-2019
</metadata>
<g transform="translate(0.000000,431.000000) scale(0.100000,-0.100000)"
fill="#000000" stroke="none">
<path d="M4062 4133 c-16 -6 -56 -13 -88 -14 -72 -3 -162 -37 -267 -103 -81
-50 -111 -83 -123 -132 -4 -16 -10 -31 -15 -34 -4 -3 -9 -21 -10 -40 -2 -19
-10 -40 -17 -45 -11 -9 -9 -25 11 -90 14 -44 28 -100 31 -125 3 -25 8 -56 10
-70 2 -14 7 -72 11 -130 3 -58 10 -121 15 -140 5 -19 11 -71 14 -115 3 -44 10
-100 16 -125 11 -55 38 -264 34 -269 -2 -2 -17 8 -34 23 -17 14 -35 26 -38 26
-4 0 -18 10 -32 23 -39 35 -121 90 -165 111 -22 11 -51 24 -65 31 -28 14 -81
29 -92 27 -5 -1 -8 2 -8 8 0 5 -26 17 -57 25 -32 9 -67 20 -78 25 -27 12 -157
40 -165 35 -3 -2 -55 -6 -115 -9 -147 -7 -204 -15 -237 -32 -15 -8 -35 -14
-46 -14 -10 0 -27 -7 -38 -15 -10 -8 -28 -15 -39 -15 -11 0 -55 -20 -99 -45
-43 -25 -85 -45 -92 -45 -8 0 -14 -4 -14 -8 0 -9 -79 -65 -126 -90 -13 -7 -24
-20 -24 -28 0 -7 -4 -14 -10 -14 -5 0 -10 4 -10 8 0 23 -117 145 -131 136 -5
-3 -9 -1 -9 4 0 9 -151 62 -176 62 -6 0 -37 13 -69 29 -33 17 -62 28 -66 26
-4 -3 -12 2 -18 9 -10 11 -7 24 10 58 29 57 105 146 146 171 27 15 33 25 33
52 0 42 -13 52 -81 60 -53 7 -57 6 -87 -25 -18 -17 -32 -36 -32 -42 0 -6 -16
-32 -35 -58 -19 -26 -35 -51 -35 -55 0 -4 -14 -29 -32 -56 -24 -37 -38 -49
-57 -50 -14 0 -35 -2 -46 -4 -11 -3 -35 -5 -53 -7 -18 -1 -36 -6 -38 -10 -3
-4 -21 -8 -40 -8 -19 0 -60 -9 -92 -19 -31 -10 -73 -22 -92 -26 -19 -4 -46
-16 -59 -26 -13 -11 -32 -19 -42 -19 -11 0 -19 -5 -19 -12 0 -6 -3 -9 -6 -5
-4 3 -26 -9 -49 -28 -23 -19 -47 -35 -53 -35 -6 0 -20 -10 -32 -22 -11 -12
-20 -19 -20 -15 0 11 -46 -40 -108 -120 -33 -43 -86 -127 -118 -187 l-57 -110
-1 -140 c0 -78 5 -163 12 -191 6 -27 13 -61 14 -75 2 -14 7 -28 12 -31 4 -4
-17 -19 -48 -33 -32 -15 -65 -35 -74 -44 -30 -29 -90 -72 -101 -72 -6 0 -10
-3 -8 -8 1 -4 -34 -43 -78 -87 -87 -86 -93 -99 -130 -274 -15 -71 -20 -241 -9
-306 16 -98 84 -267 130 -321 54 -62 59 -70 73 -96 8 -15 22 -30 33 -34 10 -3
18 -9 18 -13 0 -4 17 -17 37 -29 21 -11 51 -35 67 -52 31 -33 109 -90 124 -90
5 0 15 -7 22 -15 7 -8 24 -21 39 -28 14 -8 56 -30 93 -50 37 -21 75 -38 85
-40 10 -2 54 -21 98 -42 44 -21 82 -39 85 -39 3 -1 31 -12 63 -24 32 -12 67
-22 78 -22 10 0 27 -4 37 -9 21 -12 246 -64 367 -85 156 -27 165 -28 213 -32
26 -1 133 -5 237 -8 105 -2 210 -8 235 -12 25 -4 48 -7 52 -6 4 1 56 4 116 6
61 3 121 7 134 10 12 3 108 8 211 11 104 3 194 8 200 10 7 3 77 9 157 15 80 6
161 13 180 15 19 2 98 8 175 14 77 6 147 12 155 14 8 2 38 7 65 12 28 4 62 14
78 22 15 7 27 11 27 9 0 -10 307 77 371 104 37 17 70 30 74 30 33 0 376 182
395 210 3 4 34 28 70 54 65 48 100 80 100 92 0 3 20 33 45 65 25 33 45 62 45
66 0 3 14 36 31 72 77 161 93 241 92 446 -1 93 -5 116 -37 208 -33 95 -94 191
-172 273 -72 74 -170 154 -189 154 -7 0 -15 3 -17 8 -1 4 -32 22 -68 41 -36
19 -69 40 -75 46 -26 29 -161 76 -301 104 -83 17 -160 31 -171 31 -23 0 -33
18 -33 61 0 29 0 29 28 15 39 -20 82 -27 197 -32 55 -3 119 -10 142 -16 23 -5
54 -8 68 -4 17 4 25 2 25 -6 0 -9 3 -10 8 -2 4 6 22 10 40 9 17 -1 32 2 32 6
0 4 15 6 33 3 19 -2 44 3 63 13 18 10 48 26 68 37 65 33 100 89 126 201 13 55
27 107 31 116 13 26 35 139 45 234 3 28 8 61 11 75 3 14 7 43 9 65 1 22 5 51
7 65 8 49 19 115 23 141 2 14 6 64 9 110 3 46 7 95 10 109 3 14 7 58 10 98 3
40 9 92 14 115 25 110 23 187 -5 187 -7 0 -16 10 -19 23 -4 12 -24 41 -46 62
-22 22 -48 48 -57 58 -9 9 -20 17 -25 17 -5 0 -31 16 -57 35 -27 20 -75 44
-107 55 -32 11 -65 23 -73 27 -21 9 -20 9 -75 17 -27 4 -61 10 -75 13 -51 11
-338 8 -368 -4z m348 -113 c187 -31 249 -54 325 -120 25 -22 50 -40 55 -40 7
0 70 -93 70 -104 0 -3 -7 -12 -16 -20 -14 -14 -20 -29 -23 -57 -2 -18 -91 -62
-187 -94 -60 -19 -116 -38 -124 -42 -8 -4 -28 -8 -45 -9 -16 -2 -48 -7 -71
-13 -23 -6 -52 -8 -65 -5 -13 3 -64 7 -114 9 -138 6 -225 14 -243 24 -10 5
-29 9 -44 9 -31 -1 -187 72 -207 96 -9 11 -12 29 -7 56 6 38 -5 77 -25 90 -5
3 -4 22 1 42 8 28 23 45 66 73 30 20 65 38 79 39 13 1 30 8 39 15 8 7 25 13
38 15 13 1 32 7 43 13 12 7 59 17 105 23 47 6 87 14 90 16 7 8 188 -3 260 -16z
m421 -512 c-2 -24 -5 -79 -5 -123 -1 -77 -2 -81 -31 -103 -16 -12 -33 -29 -38
-37 -9 -16 -124 -72 -165 -80 -15 -3 -45 -8 -67 -11 -22 -3 -74 -13 -115 -22
-105 -22 -233 -20 -312 6 -34 11 -88 25 -118 30 -30 5 -68 15 -85 20 -16 6
-51 17 -77 24 -52 13 -53 15 -64 118 -3 36 -12 91 -19 123 -13 54 -12 59 3 54
9 -2 24 -6 32 -8 8 -2 17 -7 20 -10 13 -16 132 -51 185 -55 33 -3 89 -10 125
-16 97 -17 354 -14 410 4 25 9 63 18 86 22 34 5 139 54 204 95 29 19 36 12 31
-31z m-26 -365 c0 -16 -3 -32 -7 -38 -3 -5 -11 -53 -18 -105 -13 -106 -47
-287 -56 -301 -3 -5 -7 -28 -10 -51 -15 -143 -79 -249 -157 -263 -110 -19
-217 -25 -237 -15 -9 5 -52 11 -95 14 -44 3 -80 6 -80 6 0 1 -11 3 -25 6 -14
2 -39 11 -57 19 -17 8 -45 18 -62 21 -17 4 -34 11 -37 15 -3 5 -14 9 -25 9
-10 0 -19 7 -19 15 0 8 -4 15 -9 15 -5 0 -24 18 -41 40 -26 33 -32 51 -35 102
-10 163 -16 235 -21 263 -3 17 -9 66 -14 110 -5 44 -12 88 -14 98 -4 17 0 18
47 12 29 -4 57 -11 62 -16 6 -4 46 -11 90 -15 54 -5 89 -13 108 -26 40 -28
220 -37 297 -14 30 9 80 18 110 21 31 2 74 11 97 19 23 8 43 12 46 10 5 -5
162 68 162 75 0 1 0 -11 0 -26z m-1875 -237 c14 -4 39 -8 55 -11 36 -5 181
-40 210 -50 11 -4 53 -23 93 -41 41 -19 78 -34 82 -34 5 0 15 -6 23 -14 7 -8
39 -30 70 -50 78 -50 129 -106 96 -106 -7 0 -20 -10 -30 -21 -18 -20 -18 -23
-2 -50 19 -32 25 -34 54 -19 16 9 18 17 13 51 l-7 41 49 -49 c42 -43 93 -106
116 -146 43 -74 88 -212 88 -268 0 -30 -32 -54 -77 -57 -23 -2 -63 -5 -90 -7
-82 -6 -177 -16 -184 -20 -3 -3 -25 -7 -48 -10 -23 -3 -54 -11 -69 -19 -15 -7
-49 -17 -77 -21 -27 -5 -57 -10 -65 -12 -8 -1 -49 -5 -90 -8 -41 -3 -82 -8
-90 -10 -28 -9 -292 -28 -435 -32 -241 -6 -297 -7 -407 -3 -93 2 -108 5 -108
19 0 10 4 21 9 26 13 13 35 163 38 255 3 101 10 213 14 225 2 6 0 28 -5 49 -6
30 -3 48 11 74 24 47 50 75 56 59 2 -7 7 5 11 26 4 21 13 37 20 37 8 0 20 7
27 16 8 9 34 25 59 36 24 11 47 23 50 27 15 22 248 110 320 121 49 8 180 5
220 -4z m-1530 -22 c0 -13 -29 -76 -65 -144 -17 -32 -51 -36 -119 -15 -30 9
-62 15 -71 13 -19 -3 -30 -45 -17 -64 12 -17 82 -46 97 -40 8 3 40 -2 72 -10
75 -20 212 -12 313 17 41 11 81 22 88 23 16 3 43 52 34 61 -4 4 -7 11 -7 17 0
6 -7 16 -17 21 -13 8 -32 3 -83 -23 -83 -42 -148 -47 -153 -12 -2 12 1 22 6
22 5 0 12 14 16 30 3 17 17 51 32 75 28 48 53 57 89 31 11 -7 38 -19 60 -26
22 -7 46 -19 53 -27 7 -7 20 -13 28 -13 8 0 14 -3 14 -7 0 -5 21 -16 48 -26
165 -63 214 -123 213 -257 -2 -195 -12 -453 -17 -462 -4 -6 -9 -29 -12 -52 -2
-23 -9 -49 -14 -59 -5 -10 -12 -31 -14 -45 -3 -15 -11 -36 -18 -47 -13 -20
-26 -87 -27 -135 0 -23 -17 -81 -39 -135 -4 -11 -18 -47 -31 -80 -25 -67 -82
-151 -144 -208 -59 -56 -170 -127 -222 -143 -54 -16 -178 -18 -251 -4 -28 5
-73 12 -99 15 -63 8 -76 12 -148 43 -64 27 -145 96 -145 122 0 9 -7 25 -15 36
-8 10 -15 26 -15 35 0 9 -9 45 -21 80 -24 74 -21 61 -54 204 -14 61 -32 133
-39 160 -38 135 -64 426 -46 510 9 43 32 107 41 115 3 3 26 37 51 75 24 39 64
89 86 113 23 23 42 45 42 50 1 9 104 72 118 72 6 0 13 8 16 18 4 10 12 19 19
20 6 0 50 15 97 32 95 34 162 47 226 41 30 -2 44 -8 44 -17z m2700 -785 c0 -4
17 -9 38 -12 20 -3 51 -11 67 -18 17 -7 44 -14 62 -16 17 -2 44 -10 60 -18 15
-8 33 -15 39 -15 17 0 74 -31 74 -40 0 -4 14 -13 30 -20 17 -7 48 -29 69 -49
21 -20 43 -35 49 -33 6 2 13 -6 17 -17 3 -12 10 -21 13 -21 14 0 148 -136 199
-202 28 -37 58 -86 64 -110 7 -24 18 -46 23 -50 12 -8 14 -197 3 -278 -12 -86
-13 -89 -20 -96 -4 -4 -7 -19 -7 -33 0 -29 -79 -201 -92 -201 -4 0 -8 -6 -8
-13 0 -12 -25 -42 -96 -118 -13 -14 -36 -32 -51 -40 -16 -7 -48 -31 -73 -53
-25 -21 -58 -45 -75 -53 -46 -22 -93 -49 -107 -61 -7 -5 -22 -12 -33 -14 -11
-1 -22 -5 -25 -8 -12 -12 -81 -39 -114 -45 -20 -4 -36 -11 -36 -16 0 -5 -7 -9
-15 -9 -9 0 -29 -7 -44 -15 -16 -8 -39 -16 -52 -19 -13 -3 -46 -11 -74 -19
-27 -8 -57 -15 -65 -15 -8 0 -42 -8 -75 -17 -80 -23 -219 -40 -560 -69 -16 -1
-41 -6 -55 -9 -14 -4 -51 -9 -83 -12 -31 -2 -62 -7 -68 -11 -6 -3 -48 -8 -93
-10 -44 -2 -83 -4 -86 -6 -3 -1 -52 -3 -110 -4 -161 -5 -279 -13 -345 -23 -33
-5 -64 -6 -69 -3 -5 2 -63 6 -130 7 -284 6 -566 22 -580 34 -6 5 -27 9 -46 9
-19 -1 -48 5 -65 12 -16 7 -39 14 -50 15 -11 0 -52 11 -91 23 -39 12 -78 22
-87 22 -59 0 -340 113 -379 152 -11 11 -34 26 -51 34 -18 8 -49 25 -69 37 -38
22 -56 35 -135 95 -24 17 -48 32 -54 32 -12 0 -159 145 -159 157 0 5 -13 17
-29 26 -17 10 -33 26 -36 37 -4 11 -10 20 -14 20 -14 0 -63 104 -67 144 -3 22
-9 47 -14 56 -5 10 -6 20 -2 24 3 4 1 11 -6 15 -12 7 -19 35 -28 111 -2 19 -6
40 -8 46 -5 12 10 84 24 119 30 77 44 105 52 105 4 0 8 6 8 13 0 7 13 31 30
53 16 21 30 43 30 48 0 15 107 115 135 126 37 14 44 13 38 -9 -12 -48 44 -332
83 -418 8 -17 14 -35 14 -40 0 -20 22 -84 33 -96 7 -7 17 -22 22 -32 24 -46
172 -100 324 -120 13 -2 35 -8 50 -13 72 -28 269 -37 319 -16 19 8 48 14 64
14 29 0 113 38 158 71 72 54 169 145 214 199 30 37 106 185 106 207 0 8 6 24
14 36 12 20 25 63 41 139 5 25 8 26 31 18 17 -7 39 -7 62 -1 21 5 75 12 121
15 47 4 87 10 90 14 4 5 35 9 71 8 36 0 97 4 135 8 43 4 80 4 96 -3 15 -5 30
-7 33 -4 7 8 129 7 186 -1 27 -3 67 0 100 9 42 11 56 12 62 2 4 -7 8 -7 8 -2
0 18 149 44 250 45 52 0 114 3 138 6 27 4 42 2 42 -4 0 -6 -8 -9 -18 -7 -27 5
-103 -25 -124 -48 -10 -12 -21 -32 -24 -44 -3 -13 -11 -23 -17 -23 -6 0 -7 -3
-4 -6 8 -8 -31 -44 -47 -44 -6 0 -38 4 -71 10 -48 7 -167 15 -320 21 -25 1
-115 -13 -170 -27 -33 -8 -73 -17 -89 -20 -16 -3 -54 -17 -84 -30 -30 -13 -61
-24 -69 -24 -7 0 -45 -17 -83 -37 l-69 -38 -22 -70 c-34 -109 -36 -110 -138
-124 -110 -15 -153 -28 -213 -64 -39 -24 -48 -35 -53 -65 -4 -20 -10 -48 -15
-62 -41 -114 -50 -268 -19 -307 8 -9 21 -26 29 -37 38 -49 62 -63 158 -95 56
-19 102 -40 102 -46 0 -6 33 -45 74 -85 78 -77 115 -95 211 -105 22 -2 51 -6
65 -9 14 -4 103 -8 199 -11 194 -6 216 -1 291 66 52 46 71 51 153 35 102 -20
235 -37 282 -37 70 0 247 29 264 44 9 8 48 31 86 51 40 22 81 52 95 72 14 19
36 48 50 65 27 34 119 99 141 99 8 0 32 7 54 14 38 14 53 27 105 95 14 17 33
42 43 54 10 12 25 37 33 55 7 19 26 52 42 75 75 112 105 235 82 332 -20 82
-83 149 -187 199 -43 20 -91 47 -106 59 -41 32 -162 28 -213 -7 -31 -21 -38
-22 -69 -12 -19 7 -53 27 -75 45 -37 30 -176 80 -222 81 -10 0 -18 4 -18 8 0
4 37 13 83 20 45 7 102 20 126 28 24 8 67 14 95 13 59 -2 91 6 115 29 9 10 28
26 43 38 27 21 32 35 44 127 l7 48 53 -3 c30 -2 54 -6 54 -9z m-550 -389 c36
-10 78 -21 93 -25 20 -4 33 -16 43 -41 8 -19 20 -36 27 -38 7 -2 28 -9 47 -16
52 -19 79 -16 120 13 31 22 97 41 130 38 14 -1 36 -10 50 -20 14 -9 41 -23 60
-31 99 -38 174 -104 192 -166 9 -33 -2 -120 -19 -164 -4 -8 -7 -18 -7 -21 -1
-3 -25 -42 -53 -87 -29 -45 -53 -88 -53 -96 0 -20 -97 -139 -127 -154 -14 -8
-36 -11 -53 -7 -24 5 -36 0 -71 -32 -24 -21 -54 -51 -68 -66 -67 -75 -159
-158 -186 -168 -16 -7 -41 -20 -55 -29 -30 -21 -162 -44 -245 -44 -33 0 -109
9 -170 19 -60 10 -142 19 -181 19 -70 1 -73 0 -122 -41 -51 -44 -97 -67 -116
-60 -6 2 -40 1 -74 -3 -35 -5 -78 -4 -95 1 -18 5 -81 12 -142 15 -60 4 -118
10 -127 15 -9 5 -28 9 -42 9 -14 0 -26 4 -26 10 0 5 -24 34 -53 65 -28 30 -61
66 -73 79 -12 13 -41 30 -65 36 -24 6 -54 18 -66 26 -12 7 -36 15 -53 16 -23
2 -40 13 -62 41 -40 50 -48 97 -30 177 8 36 19 88 26 116 12 54 32 88 47 78 5
-3 9 -1 9 5 0 14 51 28 165 46 55 9 109 22 121 30 24 16 54 68 54 95 0 9 5 21
10 26 6 6 12 21 15 34 2 12 6 24 7 25 10 10 201 95 213 95 8 0 43 9 77 19 78
24 215 44 283 43 103 -3 250 -14 259 -20 15 -9 59 -12 92 -7 42 7 78 40 103
95 33 71 76 82 191 50z"/>
<path d="M3641 2444 c-12 -9 -19 -19 -16 -24 3 -5 1 -11 -5 -15 -14 -9 38 -75
55 -69 11 5 23 30 23 51 0 3 6 9 13 14 11 6 10 9 -4 15 -9 3 -15 9 -13 13 3 4
-3 12 -13 18 -14 9 -23 8 -40 -3z"/>
<path d="M3312 2437 c-18 -21 -4 -73 23 -87 19 -10 26 -9 43 8 19 19 20 22 4
54 -18 36 -51 48 -70 25z"/>
<path d="M2967 2323 c-14 -13 -7 -76 10 -88 14 -10 21 -10 40 2 24 16 31 57
13 68 -6 4 -8 10 -6 14 6 9 -48 13 -57 4z"/>
<path d="M3713 2262 c-9 -29 -8 -35 15 -53 14 -11 30 -18 36 -16 17 6 30 51
22 80 -5 21 -12 26 -34 24 -23 -2 -31 -9 -39 -35z"/>
<path d="M3572 2251 c-8 -5 -12 -23 -10 -47 3 -36 5 -39 33 -39 27 0 30 4 33
33 5 49 -22 75 -56 53z"/>
<path d="M3028 2156 c-22 -20 -25 -29 -19 -52 6 -24 13 -29 35 -27 38 3 58 27
54 65 -4 42 -34 48 -70 14z"/>
<path d="M2790 2135 c-18 -22 -4 -70 22 -72 35 -3 58 15 58 46 0 40 -54 58
-80 26z"/>
<path d="M2920 1408 c-130 -57 -169 -79 -196 -110 -18 -20 -41 -41 -53 -47
-12 -7 -21 -22 -21 -34 0 -12 -7 -35 -16 -52 -19 -36 -34 -134 -22 -141 4 -3
6 -9 3 -14 -5 -8 28 -95 54 -140 12 -23 132 -79 192 -90 112 -22 323 -11 407
21 15 6 49 31 75 57 37 36 52 61 67 110 11 35 21 76 22 90 3 41 -49 138 -106
195 -59 60 -115 107 -124 105 -4 -1 -20 4 -37 11 -16 7 -39 15 -50 17 -11 2
-43 10 -70 19 -58 17 -90 18 -125 3z m160 -106 c0 -11 -35 -43 -90 -79 -25
-17 -60 -46 -78 -64 -111 -114 -182 -195 -183 -208 0 -12 -3 -11 -10 4 -12 25
9 81 46 122 60 66 121 123 137 129 10 3 18 9 18 14 0 5 8 11 18 14 10 4 27 14
38 24 48 43 104 67 104 44z m-285 -87 c-48 -47 -89 -85 -91 -85 -3 0 -2 10 2
23 11 38 135 146 168 147 4 0 -31 -38 -79 -85z m286 -76 c-61 -60 -111 -113
-111 -118 0 -6 -11 -22 -25 -37 -14 -15 -42 -49 -61 -74 -34 -45 -38 -47 -65
-36 -25 9 -27 12 -15 22 9 6 22 26 31 45 21 49 147 179 245 253 129 96 129 71
1 -55z m207 39 c-2 -13 -26 -37 -63 -62 -33 -22 -67 -50 -75 -61 -8 -11 -27
-33 -42 -49 -16 -16 -28 -33 -28 -37 0 -5 -13 -22 -30 -39 -16 -17 -30 -41
-30 -55 0 -13 -5 -25 -12 -27 -17 -6 -71 4 -61 11 5 3 13 16 18 27 20 43 245
284 265 284 4 0 13 7 20 15 19 23 42 19 38 -7z m32 -111 c-44 -28 -75 -52
-124 -99 -51 -50 -65 -48 -24 3 35 44 141 119 167 119 9 0 0 -10 -19 -23z
m-29 -148 c-24 -21 -49 -39 -55 -39 -6 1 11 21 38 45 28 25 52 42 55 39 3 -3
-14 -24 -38 -45z m-161 -29 c0 -5 -5 -10 -11 -10 -5 0 -7 5 -4 10 3 6 8 10 11
10 2 0 4 -4 4 -10z"/>
</g>
</svg>
