<?xml version="1.0" standalone="no"?>
<!DOCTYPE svg PUBLIC "-//W3C//DTD SVG 20010904//EN"
 "http://www.w3.org/TR/2001/REC-SVG-20010904/DTD/svg10.dtd">
<svg version="1.0" xmlns="http://www.w3.org/2000/svg"
 width="551.000000pt" height="321.000000pt" viewBox="0 0 551.000000 321.000000"
 preserveAspectRatio="xMidYMid meet">
<metadata>
Created by potrace 1.16, written by Peter Selinger 2001-2019
</metadata>
<g transform="translate(0.000000,321.000000) scale(0.100000,-0.100000)"
fill="#000000" stroke="none">
<path d="M3840 2919 c-14 -4 -53 -7 -87 -8 -34 -1 -74 -6 -90 -12 -15 -6 -57
-12 -93 -13 -76 -3 -194 -28 -300 -62 -41 -14 -83 -28 -93 -31 -15 -5 -17 -1
-12 25 4 26 1 31 -23 37 -15 4 -54 9 -87 11 -33 1 -74 6 -90 9 -40 9 -62 9
-190 0 -60 -4 -114 -11 -120 -15 -11 -8 -85 -24 -97 -22 -4 1 -20 -3 -35 -10
-15 -6 -32 -12 -38 -14 -38 -9 -137 -52 -174 -75 -26 -16 -57 -35 -71 -41 -61
-30 -122 -83 -127 -110 -3 -15 -9 -28 -12 -28 -4 0 -13 -16 -21 -35 -13 -33
-30 -47 -30 -24 0 5 -4 8 -9 5 -5 -3 -14 8 -19 24 -6 16 -23 45 -37 64 -29 38
-28 61 5 103 23 30 15 68 -18 83 -15 7 -34 16 -42 19 -8 4 -40 3 -70 -3 l-55
-11 -17 -70 c-9 -38 -17 -72 -17 -75 -1 -3 -6 3 -12 13 -12 21 -77 54 -104 52
-39 -2 -95 -17 -95 -26 0 -5 -5 -9 -11 -9 -12 0 -53 -48 -55 -65 0 -5 -2 -16
-2 -22 -3 -18 -29 -16 -62 3 -27 16 -27 18 -14 50 8 18 14 42 14 52 0 24 -36
57 -80 75 -68 27 -75 30 -99 33 -13 1 -25 5 -28 8 -3 3 -16 1 -30 -5 -14 -5
-22 -5 -19 0 12 19 -7 41 -40 47 -68 13 -133 -42 -149 -122 -5 -28 -10 -34
-30 -34 -14 0 -25 5 -25 11 0 5 -5 7 -11 3 -7 -4 -25 -8 -40 -10 -168 -20
-256 -58 -344 -151 -40 -42 -44 -49 -113 -193 -37 -76 -41 -94 -44 -170 -3
-132 15 -223 59 -292 25 -40 29 -58 13 -58 -16 0 -61 -51 -54 -62 5 -7 2 -8
-6 -3 -10 6 -12 -1 -7 -37 4 -28 0 -75 -9 -120 -21 -99 -21 -156 2 -279 9 -53
8 -47 22 -82 7 -16 12 -31 12 -34 0 -4 13 -27 29 -52 16 -25 32 -57 36 -71 4
-14 11 -27 15 -30 3 -3 28 -39 54 -80 27 -41 56 -82 65 -91 44 -44 81 -105 81
-133 0 -11 8 -14 30 -11 22 3 41 -5 73 -29 23 -17 50 -35 60 -39 11 -4 21 -16
24 -27 3 -11 14 -20 25 -20 10 0 31 -9 46 -20 42 -30 248 -114 332 -135 41
-10 80 -21 85 -25 6 -4 26 -11 45 -15 19 -4 37 -11 40 -16 3 -4 26 -11 50 -14
59 -7 80 -14 80 -26 0 -6 4 -8 9 -4 6 3 45 -4 88 -16 43 -11 89 -23 103 -26
14 -3 30 -9 35 -13 11 -9 76 -25 87 -22 4 1 25 -5 46 -14 22 -8 43 -14 48 -13
5 1 22 -3 38 -10 16 -6 70 -16 120 -21 50 -4 103 -13 117 -18 14 -6 32 -7 39
-2 7 5 24 4 38 -1 13 -5 73 -11 132 -14 60 -3 124 -12 142 -19 43 -18 350 -26
515 -14 40 3 64 1 67 -6 3 -7 8 -6 14 3 6 8 34 14 73 16 35 2 96 7 134 10 39
4 117 7 175 7 58 0 135 7 170 15 36 7 90 18 120 23 30 5 91 21 135 35 44 13
90 25 102 25 12 0 23 5 25 10 2 6 37 20 78 31 41 12 80 25 85 29 6 4 45 21 88
39 70 29 242 117 352 181 22 12 56 31 75 42 19 11 55 35 80 53 25 19 77 57
115 84 83 59 245 214 245 236 0 8 4 15 9 15 5 0 17 20 28 45 10 25 21 45 26
45 4 0 7 7 7 15 0 8 4 15 8 15 5 0 8 10 7 22 -1 13 5 43 12 68 22 69 4 278
-32 379 -8 23 -12 48 -8 56 3 9 1 21 -5 28 -5 6 -15 30 -22 52 -7 22 -19 49
-27 61 -7 11 -10 24 -6 27 3 4 2 7 -4 7 -8 0 -41 89 -36 97 1 1 -14 31 -33 65
-19 35 -45 87 -59 116 -14 28 -31 52 -40 52 -12 0 -13 5 -4 28 6 15 13 62 15
105 6 91 -8 125 -99 248 -62 82 -123 132 -176 144 -19 4 -41 14 -49 21 -7 8
-21 14 -31 14 -10 0 -42 25 -72 55 -38 38 -65 57 -89 61 -19 4 -44 11 -54 17
-11 5 -63 11 -115 13 -53 2 -118 9 -146 14 -27 6 -60 12 -72 14 -74 15 -330
25 -363 15z m385 -86 c33 -8 87 -17 120 -19 104 -7 154 -15 223 -36 26 -8 32
-14 32 -39 0 -19 5 -29 15 -29 8 0 15 -4 15 -10 0 -5 6 -10 14 -10 25 0 68
-106 69 -169 1 -100 -54 -228 -138 -319 -130 -142 -239 -242 -263 -242 -6 0
-12 -4 -14 -8 -6 -16 -98 -73 -140 -88 -24 -8 -58 -22 -77 -30 -70 -33 -277
-78 -406 -88 -129 -10 -354 -8 -435 4 -227 32 -415 127 -475 239 -52 99 -58
120 -51 205 8 104 16 130 55 187 17 26 31 52 31 57 0 20 53 73 114 114 33 23
66 47 71 53 33 37 226 135 265 135 6 0 21 7 33 15 45 29 294 72 527 91 41 4
76 7 77 8 11 9 291 -9 338 -21z m-1182 -44 c86 -13 90 -26 15 -49 -37 -10
-105 -55 -158 -103 -8 -8 -40 -32 -70 -54 -71 -52 -81 -64 -126 -153 -10 -19
-21 -37 -24 -40 -3 -3 -17 -30 -30 -60 -19 -46 -23 -73 -24 -160 -1 -99 1
-109 32 -175 39 -82 129 -176 207 -215 28 -14 53 -29 57 -35 4 -5 8 -6 8 -2 0
4 10 2 23 -5 52 -29 168 -60 272 -74 83 -10 410 -12 461 -3 26 5 77 11 113 14
69 6 92 11 126 24 11 5 40 15 65 22 59 17 207 73 245 93 17 9 35 16 40 16 6 0
26 15 46 33 19 17 48 39 64 47 17 8 36 23 42 32 7 9 30 27 50 39 21 13 44 32
52 42 7 10 36 42 64 70 114 118 169 211 201 338 19 79 20 102 2 154 -8 22 -13
42 -11 44 8 7 95 -43 95 -56 0 -7 5 -13 10 -13 6 0 10 -6 10 -13 0 -8 11 -24
25 -37 15 -14 41 -48 60 -76 30 -45 34 -60 36 -120 3 -121 -87 -343 -166 -405
-11 -9 -33 -29 -48 -43 -29 -27 -149 -108 -195 -132 -7 -3 -25 -17 -40 -30
-55 -47 -305 -186 -354 -196 -7 -2 -15 -5 -18 -8 -8 -10 -122 -57 -190 -80
-36 -12 -72 -24 -80 -27 -8 -4 -31 -8 -50 -10 -19 -2 -71 -15 -115 -28 -44
-13 -142 -39 -218 -56 -199 -44 -318 -43 -615 7 -113 18 -259 88 -393 188 -73
54 -92 75 -133 144 -60 103 -66 108 -105 87 -22 -11 -31 -23 -31 -40 0 -14 4
-25 9 -25 5 0 19 -19 30 -42 11 -24 37 -60 56 -81 33 -36 34 -39 19 -62 -18
-27 -95 -76 -124 -78 -11 -1 -20 -4 -20 -7 0 -8 -66 -36 -120 -51 -86 -22
-432 -14 -677 17 -24 3 -44 11 -47 20 -4 11 -13 13 -27 9 -34 -11 -134 14
-163 42 -14 13 -26 21 -26 18 0 -3 -15 2 -32 12 -54 28 -192 83 -210 83 -10 0
-18 5 -18 12 0 6 -3 9 -6 5 -12 -12 -139 63 -171 100 -17 21 -57 64 -88 97
-50 52 -55 62 -53 97 2 46 0 49 -44 55 -61 10 -86 70 -95 234 -5 90 -4 99 22
150 15 29 33 60 41 68 8 7 14 21 14 30 0 21 82 132 107 146 10 5 20 12 23 16
24 32 192 96 270 102 33 3 35 1 41 -35 7 -42 -8 -59 -63 -72 -14 -4 -34 -15
-42 -24 -19 -21 -16 -72 5 -97 8 -9 13 -19 12 -21 -8 -9 -1 -24 20 -44 12 -12
16 -19 9 -15 -7 4 -28 -2 -47 -14 -19 -12 -40 -18 -46 -14 -8 4 -9 3 -5 -4 4
-7 1 -12 -6 -12 -25 0 -96 -60 -106 -90 -15 -43 2 -95 38 -117 17 -9 30 -21
30 -25 0 -4 6 -8 14 -8 18 0 29 -29 16 -45 -15 -18 -15 -55 -2 -96 11 -31 16
-35 51 -37 24 -2 60 7 94 22 111 49 229 56 242 15 4 -11 18 -22 33 -25 15 -3
33 -7 39 -10 7 -2 13 1 13 5 0 15 31 22 65 15 l32 -6 5 -72 c4 -56 10 -80 29
-105 71 -96 185 -93 263 7 56 71 84 93 119 90 30 -2 37 -7 52 -44 17 -41 35
-54 77 -54 23 0 88 60 88 82 0 9 5 20 10 23 6 3 10 22 10 41 0 30 3 34 25 34
14 0 25 -4 25 -9 0 -4 14 -23 32 -42 25 -25 43 -35 80 -39 26 -4 48 -3 48 2 0
4 12 11 28 14 69 18 129 99 118 162 -8 44 -26 92 -35 92 -3 0 -22 14 -41 32
-19 17 -59 42 -88 56 -30 13 -50 28 -45 33 5 5 31 11 58 14 54 7 65 16 65 57
0 53 -33 103 -103 153 -75 54 -14 167 126 235 36 17 71 38 78 46 6 8 18 14 26
14 8 0 54 13 101 29 48 17 101 31 117 33 17 1 35 6 41 10 6 4 30 7 53 6 22 -1
44 2 49 6 9 10 148 2 255 -15z m-1884 -28 c6 -10 8 -21 6 -23 -3 -3 7 -5 22
-6 37 -1 156 -44 160 -58 2 -6 -10 -26 -27 -44 -16 -17 -30 -39 -30 -47 0 -19
37 -53 57 -53 8 0 43 -14 78 -30 78 -37 103 -33 127 18 44 94 65 116 113 121
6 1 18 -12 28 -28 14 -23 16 -43 11 -102 -6 -63 -4 -77 12 -97 16 -20 23 -22
46 -13 23 9 27 17 33 68 6 49 28 117 76 241 9 22 39 31 39 11 0 -6 -12 -30
-26 -54 -29 -50 -29 -55 -3 -73 11 -7 19 -19 19 -27 0 -7 5 -15 10 -17 9 -3
15 -24 19 -70 1 -7 69 -40 141 -68 42 -17 108 -57 133 -83 18 -17 17 -50 0
-45 -4 1 -24 -1 -44 -5 -47 -10 -81 -46 -75 -80 7 -41 14 -47 81 -77 84 -38
145 -98 145 -143 0 -56 -67 -114 -116 -101 -11 3 -32 23 -48 44 -32 43 -44 50
-99 56 -49 5 -82 -25 -98 -90 -13 -53 -24 -58 -33 -15 -3 17 -10 28 -15 24 -5
-3 -12 -1 -16 4 -6 10 -28 9 -98 -4 -30 -6 -57 -26 -123 -91 -97 -96 -126
-105 -176 -57 -26 25 -28 33 -28 102 0 42 -4 81 -8 88 -9 15 -94 35 -146 34
-24 0 -51 8 -68 21 -16 11 -34 21 -41 22 -7 1 -17 5 -24 9 -6 4 -18 4 -27 1
-9 -3 -16 -1 -16 6 0 7 -6 6 -16 -4 -9 -9 -32 -16 -57 -16 -40 0 -107 -18
-117 -32 -6 -8 -60 -29 -60 -24 0 2 6 19 13 37 8 19 11 43 8 55 -9 31 -53 80
-89 98 -19 10 -32 24 -32 36 0 22 45 60 71 60 10 0 21 5 25 11 3 6 17 9 31 6
19 -3 27 1 35 19 9 19 16 22 39 17 18 -3 38 1 53 11 14 8 42 18 64 22 34 5 41
3 46 -13 4 -11 0 -33 -9 -49 -8 -16 -15 -41 -15 -56 0 -30 19 -79 35 -90 5 -4
54 -5 108 -1 l97 6 0 -37 c0 -50 15 -76 46 -76 36 0 46 37 42 162 -1 60 1 108
6 107 4 0 13 7 20 17 15 20 36 11 36 -15 0 -9 8 -26 18 -37 24 -25 34 -51 36
-96 1 -21 11 -46 21 -58 36 -39 127 -16 163 42 11 18 32 44 47 58 22 21 27 22
39 9 8 -8 16 -34 19 -59 8 -80 36 -114 103 -124 26 -4 55 34 43 56 -5 10 -15
18 -22 18 -22 0 -40 18 -42 42 -7 85 -47 143 -105 153 -46 8 -71 -7 -97 -60
-16 -32 -62 -85 -74 -85 -4 0 -10 16 -14 37 -3 20 -18 59 -31 87 -14 28 -25
61 -26 73 -1 12 -4 20 -6 18 -3 -2 -14 2 -26 10 -31 22 -78 18 -130 -11 -58
-32 -69 -53 -64 -119 l4 -53 -85 2 -86 1 3 34 c1 19 10 39 18 46 13 9 15 21
10 51 -6 33 -15 45 -49 67 -50 33 -60 33 -114 5 -35 -19 -45 -20 -67 -10 -18
8 -26 19 -26 36 0 13 -6 27 -12 30 -10 5 -10 7 0 12 6 3 10 10 7 14 -3 5 14
21 39 35 50 29 53 39 56 144 1 72 11 108 34 123 20 14 55 8 65 -11z m3917
-810 c16 -36 43 -222 42 -280 -1 -17 -5 -31 -10 -31 -5 0 -7 -4 -4 -9 3 -5
-10 -41 -29 -80 -19 -39 -35 -73 -35 -77 0 -9 -72 -96 -95 -115 -11 -9 -42
-39 -70 -66 -27 -26 -65 -59 -83 -71 -18 -13 -30 -27 -27 -32 8 -13 -27 -42
-149 -124 -167 -111 -357 -212 -382 -202 -8 3 -14 1 -14 -4 0 -22 -168 -70
-245 -70 -18 0 -35 -4 -37 -10 -1 -5 -33 -12 -70 -14 -37 -2 -72 -7 -77 -10
-5 -3 -26 -8 -47 -11 -230 -32 -431 -42 -524 -26 -36 6 -105 13 -155 16 -126
8 -233 16 -280 20 -22 2 -83 7 -135 10 -52 3 -117 10 -145 15 -54 10 -83 14
-215 30 -47 5 -114 19 -150 31 -35 11 -85 25 -110 29 -46 8 -56 10 -145 31
-95 22 -291 77 -415 117 -69 23 -183 60 -255 82 -71 23 -143 48 -160 55 -84
36 -135 55 -147 55 -14 0 -53 26 -116 78 -37 30 -117 127 -149 182 -12 19 -24
57 -27 83 -2 27 -9 54 -15 60 -5 7 -6 27 -3 46 l7 33 70 -68 c55 -54 93 -80
176 -121 59 -29 114 -53 123 -53 9 0 16 -4 16 -10 0 -5 9 -10 21 -10 21 0 139
-61 171 -87 38 -33 204 -60 413 -68 341 -12 496 -4 599 30 94 31 203 81 243
111 33 25 53 31 53 14 0 -5 4 -10 9 -10 9 0 109 -58 121 -70 10 -10 53 -32 89
-45 20 -8 61 -23 91 -34 30 -12 79 -24 109 -27 30 -3 62 -9 70 -13 9 -5 38 -9
65 -10 27 -1 75 -8 107 -16 41 -11 82 -13 145 -9 49 4 98 6 109 6 22 -1 285
60 385 89 36 10 79 20 95 22 17 2 37 6 45 9 8 3 56 18 105 33 50 16 101 34
115 41 38 19 64 27 78 25 6 -1 12 2 12 6 0 7 54 36 70 38 11 2 146 69 159 79
7 6 41 27 76 46 34 19 78 47 97 62 19 15 45 29 58 31 12 2 28 11 34 19 6 9 25
24 42 34 32 20 81 58 142 111 20 18 40 33 45 33 4 0 7 9 7 20 0 11 4 20 10 20
5 0 18 21 30 46 17 40 22 45 36 34 8 -8 22 -30 30 -49z m-4553 -417 c4 -4 2
-13 -4 -20 -7 -8 -7 -14 1 -19 15 -9 13 -178 -2 -173 -19 7 -40 135 -34 215 6
90 19 116 26 51 3 -26 9 -50 13 -54z m4601 -224 c-1 -14 -5 -38 -8 -55 -2 -16
-10 -66 -16 -110 -18 -125 -41 -205 -60 -205 -7 0 -6 25 9 155 13 112 14 212
2 220 -6 3 7 28 27 55 l37 50 6 -42 c4 -24 5 -54 3 -68z m-4514 20 c0 -16 -4
-30 -9 -30 -5 0 -8 8 -6 18 2 9 4 23 4 30 2 26 11 11 11 -18z m115 -192 c-1
-51 -3 -112 -4 -136 -1 -30 -5 -42 -13 -39 -7 2 -13 8 -14 13 0 5 -4 16 -8 25
-4 10 -8 73 -9 142 l-2 125 26 -19 c26 -18 27 -21 24 -111z m-116 27 c0 -23
-2 -26 -9 -15 -5 8 -9 33 -9 55 1 35 2 37 9 15 4 -14 8 -38 9 -55z m4372 18
c3 -32 2 -99 -1 -150 -3 -50 -2 -108 1 -128 5 -30 2 -38 -15 -47 -12 -6 -39
-25 -61 -43 -22 -17 -55 -39 -72 -48 l-33 -15 -1 46 c-2 71 -1 132 2 184 1 27
-3 54 -11 62 -18 23 -6 42 29 49 18 4 31 13 31 22 0 8 5 15 10 15 6 0 10 6 10
13 1 16 35 57 49 57 6 0 11 5 11 10 0 6 7 10 15 10 8 0 15 5 15 10 0 6 4 10 9
10 5 0 10 -26 12 -57z m-3981 -91 c41 -16 120 -44 175 -61 55 -17 105 -35 111
-39 7 -4 14 -41 17 -82 5 -77 22 -130 41 -130 14 1 50 50 36 50 -11 0 -13 60
-4 109 8 37 15 38 49 9 21 -19 27 -37 35 -103 6 -44 12 -89 14 -100 3 -11 5
-26 5 -32 1 -15 10 -16 30 -4 9 6 17 41 22 101 5 51 11 95 13 97 2 3 13 2 23
-1 26 -8 42 -58 44 -141 2 -80 11 -105 39 -105 14 0 21 9 25 33 4 19 5 40 4
48 -2 8 0 23 3 34 4 11 9 37 13 58 6 40 26 48 66 27 17 -10 19 -22 19 -110 0
-101 6 -116 39 -105 14 4 20 22 28 91 6 47 13 88 17 91 3 3 30 1 58 -6 29 -7
60 -14 68 -15 28 -5 75 -18 150 -41 41 -13 113 -26 160 -29 47 -3 130 -15 185
-25 55 -11 125 -20 155 -21 30 0 69 -2 85 -5 17 -2 100 -7 185 -10 158 -6 259
-18 305 -35 15 -6 38 -10 51 -10 14 0 22 -4 19 -10 -3 -5 -2 -18 4 -28 5 -10
13 -45 16 -77 8 -70 14 -79 44 -67 21 7 23 15 23 72 0 83 12 110 50 110 23 0
28 -4 24 -17 -8 -26 -16 -244 -9 -270 3 -13 11 -23 18 -23 24 0 37 30 40 97 3
37 11 94 20 126 8 32 15 69 15 82 0 20 5 25 25 25 22 0 25 -3 19 -25 -3 -13
-7 -72 -8 -130 -1 -98 0 -107 20 -120 19 -12 22 -12 32 8 6 12 13 49 15 83 2
33 6 65 10 71 4 6 8 37 10 68 2 53 3 56 26 53 20 -2 24 -9 26 -38 3 -41 8 -60
18 -78 5 -6 6 -16 2 -21 -10 -17 25 -42 44 -31 15 7 19 23 20 81 1 40 -3 77
-9 84 -9 11 -2 15 37 20 26 3 93 15 148 25 56 11 109 20 119 20 9 0 38 9 63
21 25 11 46 19 48 17 2 -2 5 -27 6 -57 3 -59 -10 -75 -48 -60 -14 5 -22 5 -19
0 3 -5 -1 -22 -9 -37 -13 -25 -13 -30 2 -46 10 -11 23 -16 32 -12 9 3 21 7 27
8 7 1 19 8 28 15 9 7 22 11 30 8 24 -9 36 17 35 74 -3 111 1 149 15 149 14 0
245 116 261 131 5 5 17 9 27 9 10 0 18 5 18 10 0 19 29 10 35 -11 10 -31 22
-131 26 -217 2 -42 -1 -55 -17 -67 -18 -15 -93 -55 -102 -55 -2 0 0 15 4 33 4
17 8 41 10 52 1 11 6 34 9 51 9 41 -16 68 -54 59 -14 -4 -28 -10 -31 -14 -3
-4 -26 -19 -52 -34 -48 -28 -67 -60 -54 -92 6 -16 43 -20 62 -7 6 4 13 15 17
25 14 38 26 15 22 -40 -6 -68 -12 -76 -73 -97 -26 -10 -56 -22 -67 -27 -11 -4
-47 -18 -80 -30 -33 -12 -68 -28 -77 -37 -10 -8 -18 -12 -18 -9 0 5 -105 -29
-125 -41 -5 -3 -20 -7 -33 -8 -22 -3 -23 0 -18 37 19 126 19 124 -19 145 -23
13 -55 -2 -55 -25 0 -7 -4 -9 -10 -6 -6 4 -7 -2 -1 -17 9 -24 13 -174 5 -165
-3 3 -29 -1 -57 -8 -75 -19 -205 -32 -397 -39 -182 -7 -405 -21 -467 -30 -17
-2 -48 0 -70 4 -21 5 -42 5 -46 1 -5 -5 -17 -6 -28 -4 -17 5 -19 15 -19 88 0
92 -11 112 -55 101 -37 -9 -46 -42 -30 -108 7 -31 16 -61 20 -67 8 -14 0 -14
-50 1 -51 15 -52 15 -70 17 -10 1 -13 9 -10 29 3 15 7 38 8 52 2 14 7 32 11
42 12 27 2 80 -16 92 -42 26 -62 -23 -71 -169 l-2 -40 -40 3 c-49 5 -50 6 -33
31 9 13 13 36 11 59 -2 21 3 57 12 81 20 58 11 91 -25 91 -41 0 -60 -27 -51
-75 4 -22 4 -69 1 -105 -5 -71 -11 -76 -68 -65 l-33 6 2 62 c1 34 6 73 11 87
12 33 2 70 -20 70 -21 0 -70 -41 -66 -55 1 -5 4 -44 7 -86 l4 -76 -26 4 c-14
2 -51 6 -81 9 -30 2 -57 9 -60 14 -3 5 -21 11 -40 14 -66 8 -195 40 -201 49
-3 5 -9 8 -13 6 -15 -5 -116 23 -116 33 0 5 -7 7 -16 4 -9 -4 -27 0 -38 8 -12
7 -38 16 -56 19 -19 3 -57 13 -85 22 -27 8 -63 18 -80 21 -16 3 -35 10 -42 16
-8 6 -26 12 -42 13 -15 1 -43 9 -62 17 -19 9 -53 23 -76 33 -24 10 -43 22 -43
27 0 4 -7 8 -15 8 -24 0 -169 52 -185 66 -53 47 -89 74 -99 74 -6 0 -19 8 -29
18 -9 9 -30 25 -45 35 l-28 18 6 117 c4 64 7 131 8 148 l0 30 61 -22 c34 -12
95 -35 136 -52z m3723 -125 c-8 -14 -22 15 -18 39 6 31 6 31 15 0 5 -16 6 -34
3 -39z m4 -94 c-2 -16 -4 -3 -4 27 0 30 2 43 4 28 2 -16 2 -40 0 -55z m7 -73
c2 -19 7 -47 11 -62 5 -21 2 -29 -14 -38 -19 -10 -21 -8 -17 22 3 18 5 53 5
77 1 51 8 51 15 1z"/>
<path d="M3280 2658 c-25 -4 -61 -10 -81 -13 -20 -2 -62 -17 -95 -33 -32 -16
-70 -33 -83 -37 -31 -9 -118 -71 -153 -108 -45 -47 -93 -120 -97 -147 -2 -14
-7 -33 -12 -42 -22 -41 -4 -171 34 -244 15 -28 73 -86 113 -112 60 -38 231
-106 295 -117 24 -4 53 -9 64 -11 41 -9 113 -5 200 10 133 24 130 23 164 40
17 9 34 15 38 14 4 -1 27 10 50 25 24 15 47 27 53 27 5 0 10 4 10 10 0 5 22
34 48 63 27 30 55 68 63 85 8 18 17 32 21 32 5 0 8 9 8 19 0 11 4 22 9 25 5 4
12 24 16 45 3 22 13 47 20 58 20 25 18 46 -3 59 -10 6 -23 34 -31 62 -7 28
-16 50 -19 49 -9 -3 -52 41 -52 53 0 6 -6 10 -13 10 -8 0 -22 9 -32 20 -10 11
-24 20 -31 20 -7 0 -14 4 -16 8 -10 24 -119 76 -243 117 -51 17 -186 24 -245
13z m117 -74 c8 -20 -66 -90 -148 -139 -35 -21 -84 -53 -109 -70 -25 -18 -76
-49 -114 -69 -38 -20 -80 -49 -93 -64 -12 -15 -27 -27 -31 -27 -5 0 -16 -8
-26 -17 -21 -22 -36 -23 -36 -4 0 8 15 23 33 34 39 24 64 43 131 102 28 25 73
59 99 75 27 17 69 46 95 65 55 41 106 70 121 70 16 0 51 32 51 47 0 18 19 16
27 -3z m-185 -21 c-7 -3 -18 -10 -25 -16 -7 -7 -20 -16 -28 -22 -27 -17 -142
-104 -179 -135 -30 -25 -106 -70 -118 -70 -1 0 10 19 26 43 55 79 138 140 254
186 40 16 75 27 78 24 3 -3 -1 -8 -8 -10z m364 -14 c6 -11 -61 -78 -79 -79 -4
0 -26 -17 -48 -37 -22 -21 -52 -45 -67 -53 -14 -8 -34 -22 -43 -30 -10 -8 -35
-24 -56 -35 -21 -11 -54 -35 -73 -54 -19 -18 -46 -39 -60 -45 -14 -6 -50 -30
-80 -53 -56 -42 -163 -103 -180 -103 -23 0 -9 47 18 61 15 8 51 36 80 64 30
27 77 64 105 80 73 42 251 161 319 212 31 24 66 43 78 43 13 0 24 8 27 20 6
22 47 28 59 9z m104 -67 c0 -9 -76 -82 -108 -104 -12 -8 -42 -33 -65 -55 -24
-22 -56 -47 -73 -56 -16 -8 -73 -46 -126 -84 -54 -37 -115 -79 -137 -92 -22
-13 -52 -35 -67 -48 -15 -12 -30 -23 -34 -23 -4 0 -20 -11 -36 -25 -35 -30
-50 -31 -64 -5 -8 15 -8 20 1 20 6 0 19 8 28 19 9 10 32 26 51 36 19 10 48 31
64 46 16 15 45 36 64 45 20 9 56 36 81 59 25 23 73 57 106 75 73 40 106 61
123 77 7 7 44 33 83 59 38 26 72 51 75 56 6 10 34 11 34 0z m120 -69 c0 -16
-191 -203 -207 -203 -2 0 -26 -18 -54 -40 -27 -21 -76 -53 -107 -70 -32 -17
-82 -51 -112 -75 -30 -25 -59 -45 -65 -45 -5 0 -28 -16 -50 -35 -54 -47 -117
-48 -99 -1 3 9 11 16 17 16 6 0 17 7 26 15 35 33 79 65 90 65 6 0 11 4 11 10
0 5 11 12 25 16 14 3 25 9 25 13 0 10 94 79 147 107 26 13 68 44 93 67 41 38
134 107 145 107 2 0 24 13 47 30 42 29 68 37 68 23z m55 -120 c-3 -29 -65 -92
-161 -163 -28 -21 -57 -44 -65 -52 -21 -21 -138 -108 -145 -108 -3 0 -24 -13
-47 -28 -23 -16 -50 -31 -59 -35 -10 -4 -18 -13 -18 -22 0 -12 -12 -15 -52
-15 -49 1 -51 2 -34 15 11 8 23 15 26 15 3 0 35 27 70 60 36 33 92 75 125 95
33 19 85 55 115 80 30 25 58 45 61 45 4 0 26 18 50 40 36 34 126 100 135 100
1 0 1 -12 -1 -27z m-91 -254 c-47 -58 -71 -78 -119 -99 -33 -15 -73 -30 -89
-34 -28 -7 -27 -5 15 29 24 20 64 53 89 73 55 46 153 112 159 107 2 -3 -23
-37 -55 -76z"/>
<path d="M4878 1769 c-41 -23 0 -79 57 -79 23 0 25 3 19 23 -9 29 -36 66 -49
66 -5 0 -18 -4 -27 -10z"/>
<path d="M4769 1624 c-12 -32 11 -64 46 -64 18 0 24 7 28 37 8 46 3 53 -34 53
-23 0 -32 -6 -40 -26z"/>
<path d="M4496 1508 c-24 -13 -20 -46 10 -73 25 -23 27 -24 49 -7 45 34 -8
108 -59 80z"/>
<path d="M4656 1464 c-11 -28 -7 -43 14 -54 40 -21 81 11 61 49 -12 22 -67 26
-75 5z"/>
<path d="M1672 1212 c-17 -12 -13 -82 5 -82 10 0 12 -9 8 -33 -9 -47 17 -64
93 -59 37 3 27 72 -12 72 -22 0 -61 20 -39 20 8 0 11 15 10 43 -2 37 -5 42
-27 45 -14 1 -31 -2 -38 -6z"/>
<path d="M1386 1191 c-23 -25 -8 -56 31 -66 27 -6 53 13 53 39 -1 39 -57 57
-84 27z"/>
<path d="M2028 1196 c-15 -11 -16 -18 -7 -44 14 -41 44 -47 69 -15 24 31 25
37 4 57 -19 19 -43 20 -66 2z"/>
<path d="M2978 1169 c-26 -15 -22 -46 8 -66 36 -23 64 -27 64 -8 0 9 7 18 15
21 13 5 12 11 -6 35 -21 30 -50 37 -81 18z"/>
<path d="M3943 1133 c-19 -7 -16 -37 6 -57 10 -9 34 -18 54 -20 30 -3 36 0 40
20 2 13 1 24 -4 24 -4 0 -11 9 -14 20 -5 15 -15 20 -38 19 -18 0 -38 -3 -44
-6z"/>
<path d="M3289 1051 c-9 -9 -19 -21 -23 -28 -8 -15 34 -55 52 -48 7 3 22 0 33
-5 16 -9 19 -7 19 15 0 14 -7 40 -16 57 -12 24 -18 28 -25 17 -6 -10 -11 -11
-16 -3 -6 8 -13 6 -24 -5z"/>
<path d="M2117 1043 c-32 -16 -33 -23 -7 -55 43 -55 106 -30 80 32 -14 34 -38
42 -73 23z"/>
<path d="M3690 1025 c-11 -13 -10 -21 1 -42 8 -14 22 -28 32 -31 9 -2 17 -8
17 -14 0 -5 9 -4 20 2 15 8 19 20 18 50 -1 21 -5 37 -9 34 -4 -2 -10 0 -14 6
-9 15 -51 12 -65 -5z"/>
<path d="M2926 998 c-10 -30 -1 -48 27 -58 40 -13 40 -13 71 11 26 20 26 22
10 40 -20 22 -102 27 -108 7z"/>
<path d="M3376 903 c-14 -4 -17 -11 -12 -36 8 -38 4 -35 53 -41 50 -7 64 14
35 54 -19 25 -41 32 -76 23z"/>
</g>
</svg>
