<?xml version="1.0" standalone="no"?>
<!DOCTYPE svg PUBLIC "-//W3C//DTD SVG 20010904//EN"
 "http://www.w3.org/TR/2001/REC-SVG-20010904/DTD/svg10.dtd">
<svg version="1.0" xmlns="http://www.w3.org/2000/svg"
 width="525.000000pt" height="435.000000pt" viewBox="0 0 525.000000 435.000000"
 preserveAspectRatio="xMidYMid meet">
<metadata>
Created by potrace 1.16, written by Peter Selinger 2001-2019
</metadata>
<g transform="translate(0.000000,435.000000) scale(0.100000,-0.100000)"
fill="#000000" stroke="none">
<path d="M4854 4335 c-4 -8 -10 -13 -14 -10 -4 3 -10 -1 -13 -8 -3 -8 -38 -39
-79 -69 -40 -31 -83 -65 -95 -77 -12 -12 -26 -21 -30 -21 -8 0 -144 -106 -153
-120 -3 -4 -30 -20 -60 -35 -30 -15 -66 -37 -80 -50 -21 -19 -94 -66 -175
-113 -34 -19 -131 -62 -142 -62 -5 0 -36 -13 -68 -30 -32 -16 -66 -30 -74 -30
-9 0 -29 -7 -45 -15 -46 -24 -148 -66 -176 -71 -13 -3 -29 -9 -35 -13 -9 -7
-69 -25 -120 -36 -11 -2 -38 -11 -60 -19 -22 -8 -53 -15 -68 -16 -16 0 -36 -4
-46 -10 -10 -5 -39 -11 -63 -14 -25 -2 -55 -9 -67 -15 -12 -7 -47 -15 -78 -18
-30 -3 -69 -13 -87 -23 -17 -10 -47 -21 -66 -25 -72 -15 -268 -130 -340 -199
-14 -13 -38 -32 -55 -42 -16 -10 -35 -26 -42 -34 -7 -8 -13 -12 -13 -8 0 7
-10 -3 -94 -92 -18 -19 -43 -51 -56 -70 -13 -19 -31 -42 -40 -50 -17 -17 -38
-48 -46 -70 -3 -8 -9 -22 -14 -30 -7 -16 -35 -121 -60 -231 -11 -48 -10 -60 3
-86 13 -24 24 -32 53 -35 34 -4 42 0 90 49 50 50 56 53 106 54 115 2 139 -2
201 -37 34 -18 105 -55 157 -80 86 -43 102 -47 170 -48 78 -1 123 4 200 24 25
6 53 13 63 15 10 2 64 26 120 53 56 27 120 56 142 63 22 7 51 21 65 30 28 18
135 69 145 69 4 0 27 14 52 30 24 17 48 30 53 30 18 0 84 44 119 80 20 21 43
41 52 46 34 18 239 210 282 264 37 46 85 104 119 143 15 18 28 37 28 42 0 6
11 22 24 36 13 14 42 59 65 100 23 41 46 81 51 89 6 8 13 22 17 30 4 8 15 24
25 34 10 11 18 23 18 28 0 4 18 37 40 73 22 36 40 69 40 73 0 5 8 17 18 28 18
19 72 124 72 140 0 5 9 20 20 34 11 14 20 33 20 43 0 10 4 16 9 13 12 -8 34
20 27 33 -8 12 59 159 86 188 16 17 19 30 14 57 -7 36 -8 36 -57 36 -35 0 -51
-4 -55 -15z m-117 -233 c-10 -10 -17 -23 -17 -29 0 -19 -29 -35 -50 -28 -20 6
-17 10 27 40 57 39 62 41 40 17z m-87 -138 c0 -8 -134 -134 -138 -129 -23 23
72 135 114 135 13 0 24 -2 24 -6z m-215 -110 c-13 -20 -19 -22 -35 -14 -27 14
-25 21 13 45 38 24 49 9 22 -31z m-85 -84 c0 -5 9 -10 20 -10 32 0 26 -47 -11
-81 -58 -54 -86 -70 -96 -56 -14 17 -24 75 -17 101 7 29 104 72 104 46z m-172
-112 c6 -35 14 -74 18 -88 5 -24 5 -24 -8 -5 -7 11 -17 34 -23 50 -7 21 -20
33 -45 41 -44 15 -49 30 -11 39 17 4 33 11 36 16 13 20 21 6 33 -53z m-309
-118 c-16 -33 -29 -67 -29 -75 0 -18 -4 -18 -30 -5 -11 6 -29 15 -40 20 -11 6
-39 10 -62 10 l-43 1 22 18 c13 11 53 28 90 40 38 12 79 28 93 36 14 8 25 14
26 15 1 0 -12 -27 -27 -60z m204 51 c16 -6 29 -23 37 -47 12 -35 11 -39 -10
-56 -12 -10 -28 -18 -34 -18 -7 0 -27 -13 -45 -29 -18 -16 -46 -35 -62 -41
-16 -7 -29 -16 -29 -21 0 -5 -7 -9 -15 -9 -25 0 -17 78 13 135 26 47 80 95
108 95 7 0 24 -4 37 -9z m310 -101 c-21 -38 -60 -95 -88 -126 -27 -32 -63 -76
-80 -100 -16 -23 -45 -64 -64 -90 -34 -48 -119 -133 -133 -134 -5 0 -8 -7 -8
-15 0 -8 -6 -15 -14 -15 -8 0 -23 -10 -33 -22 -10 -13 -36 -35 -58 -50 -22
-15 -73 -50 -114 -78 -40 -27 -76 -50 -78 -50 -3 0 -18 -9 -34 -21 -48 -34
-159 -89 -180 -89 -23 0 -139 -39 -156 -52 -20 -16 -133 -69 -193 -90 -40 -14
-77 -18 -135 -17 -44 1 -84 5 -90 8 -5 3 -14 6 -20 6 -13 0 -88 37 -95 46 -3
3 -16 10 -30 14 -14 4 -35 17 -48 29 -13 11 -26 20 -28 18 -2 -1 -17 4 -32 12
-15 7 -42 17 -59 21 -34 7 -38 12 -25 31 8 12 70 44 86 44 6 0 25 7 41 16 17
9 37 17 45 19 44 10 227 57 240 61 8 3 16 5 17 5 2 0 18 6 37 14 20 8 47 15
61 15 14 0 33 4 43 9 9 5 42 16 72 25 30 8 80 23 110 32 30 9 62 18 70 21 8 2
16 4 18 4 1 -1 24 10 50 23 27 14 91 41 143 61 52 20 103 40 114 45 119 52
182 83 217 108 58 39 204 134 250 161 21 12 41 28 45 35 5 7 33 29 63 48 30
19 66 47 79 62 14 14 26 26 28 26 2 0 -14 -31 -34 -70z m-905 -71 c-16 -11
-28 -28 -28 -38 0 -9 -6 -26 -14 -37 -14 -19 -15 -19 -22 1 -4 11 -16 30 -27
42 -25 28 -21 32 40 43 75 12 80 11 51 -11z m257 -9 c18 -7 25 -15 21 -25 -3
-8 -1 -17 4 -20 25 -15 -20 -105 -53 -105 -7 0 -26 -14 -43 -31 -25 -27 -96
-68 -121 -71 -5 0 -17 -7 -28 -14 -30 -21 -40 -17 -45 19 -8 65 -4 105 12 121
9 9 20 26 24 39 14 46 61 78 127 86 34 5 65 9 69 10 4 0 19 -4 33 -9z m-389
-115 c18 -52 6 -165 -18 -165 -13 0 -68 -62 -63 -70 5 -8 -143 -60 -167 -60
-8 0 -13 14 -14 35 0 18 -6 51 -13 73 -12 35 -11 44 9 91 14 30 35 60 54 73
17 12 36 26 41 32 18 20 69 34 113 33 42 -2 45 -4 58 -42z m-316 -1 c0 -21
-25 -84 -34 -87 -7 -3 -38 0 -70 5 -41 7 -70 7 -94 0 -19 -6 -31 -7 -26 -3 5
5 27 14 48 21 22 7 65 25 95 41 55 28 81 35 81 23z m-69 -178 c23 -10 49 -60
49 -95 0 -38 -27 -53 -125 -71 -38 -7 -89 -20 -111 -30 -23 -10 -56 -21 -74
-25 l-33 -7 5 60 c5 66 40 132 71 132 9 0 17 7 17 15 0 8 3 15 8 15 4 1 29 7
56 14 46 12 96 9 137 -8z m466 -12 c-3 -3 -12 -4 -19 -1 -8 3 -5 6 6 6 11 1
17 -2 13 -5z m-810 -46 c-8 -13 -14 -42 -13 -68 2 -25 -1 -50 -6 -57 -5 -6 -5
-14 0 -17 8 -5 8 -54 0 -60 -2 -1 -26 -19 -54 -39 -29 -20 -55 -37 -60 -37 -4
0 -17 -9 -28 -19 -12 -11 -45 -33 -74 -50 l-53 -31 6 36 c7 47 56 149 92 194
67 82 188 188 201 175 2 -2 -3 -14 -11 -27z"/>
<path d="M1368 3260 c-21 -11 -38 -25 -38 -30 0 -6 -3 -9 -7 -8 -17 5 -51 -23
-63 -52 -15 -35 -11 -34 -57 -15 -64 27 -133 29 -171 5 -18 -11 -30 -25 -27
-30 3 -6 -1 -10 -10 -10 -20 0 -110 -89 -119 -118 -7 -22 8 -86 25 -108 11
-13 -25 -49 -39 -40 -10 6 -82 -61 -82 -76 0 -22 -19 -4 -25 23 -10 43 -56 61
-132 53 -62 -7 -101 -23 -122 -48 -7 -9 -17 -13 -22 -10 -5 3 -9 -1 -9 -9 0
-7 -9 -23 -21 -35 -24 -26 -72 -159 -66 -184 4 -12 -7 -19 -42 -28 -58 -16
-127 -54 -135 -76 -4 -9 -13 -14 -21 -10 -10 3 -15 -1 -15 -14 0 -10 -6 -25
-14 -33 -26 -26 -35 -82 -20 -124 7 -21 13 -46 14 -55 0 -9 7 -24 16 -32 8 -9
13 -16 10 -16 -4 0 19 -22 49 -50 l55 -50 83 0 c92 1 108 7 173 70 l45 44 64
-16 c53 -12 69 -13 89 -3 45 24 103 80 135 131 39 65 25 164 -27 190 -12 6
-33 21 -46 33 -12 11 -28 21 -34 21 -15 0 -15 6 -1 31 10 20 11 20 45 -6 32
-24 98 -49 152 -57 l22 -3 -25 -47 c-32 -59 -32 -107 0 -164 66 -119 190 -157
293 -89 59 38 77 57 107 109 l28 50 18 -22 c9 -12 43 -36 74 -52 69 -36 106
-34 172 10 l46 31 22 -21 c34 -32 85 -42 155 -31 63 10 120 42 120 67 0 8 4
14 8 14 17 0 62 98 61 131 0 19 -15 61 -32 94 -37 70 -76 94 -166 102 l-57 5
6 37 c19 109 -39 177 -159 188 -63 5 -68 7 -53 26 23 27 48 126 43 173 -1 6
-17 19 -36 30 -24 13 -35 26 -35 41 0 12 -8 27 -17 32 -10 6 -14 11 -8 11 5 0
-1 7 -13 16 -37 26 -121 28 -164 4z m86 -74 c2 -17 91 -96 106 -96 10 0 -3
-51 -25 -97 -9 -18 -27 -41 -41 -50 -44 -29 -154 -14 -154 20 0 7 -9 23 -20
34 -27 30 -32 67 -13 111 17 41 38 59 98 83 44 18 45 18 49 -5z m-309 -97 c38
-9 46 -17 59 -50 18 -45 14 -59 -34 -104 -29 -28 -36 -30 -106 -30 -80 1 -97
10 -108 56 -6 28 23 69 49 69 7 0 24 13 37 29 20 23 37 35 56 40 2 1 23 -4 47
-10z m135 -188 c0 -11 -31 -24 -39 -16 -3 3 1 10 9 15 19 12 30 12 30 1z m424
-78 c31 -23 40 -56 26 -97 -14 -44 -51 -59 -97 -39 -21 8 -57 13 -85 11 l-48
-3 0 32 c0 57 16 81 71 107 57 26 87 23 133 -11z m-254 7 c0 -5 -5 -10 -11
-10 -5 0 -7 5 -4 10 3 6 8 10 11 10 2 0 4 -4 4 -10z m-451 -11 c64 -21 80 -31
91 -62 8 -24 7 -35 -5 -53 -8 -13 -15 -29 -15 -36 0 -18 -69 -61 -86 -54 -8 3
-14 0 -14 -5 0 -7 -10 -9 -27 -5 -16 4 -36 7 -45 7 -10 0 -29 14 -43 31 -21
25 -25 37 -19 62 10 49 22 64 54 71 16 4 30 13 30 20 0 8 8 19 18 24 22 13 19
13 61 0z m363 -39 c7 -36 2 -209 -7 -218 -3 -3 -13 1 -22 10 -25 20 -92 38
-147 38 -38 0 -46 3 -46 18 0 10 7 27 15 38 8 10 15 31 15 46 0 36 51 88 85
88 14 0 25 5 25 11 0 6 16 9 37 7 34 -3 38 -6 45 -38z m-678 -6 c9 -8 16 -24
16 -35 0 -10 4 -19 9 -19 5 0 12 -14 16 -31 5 -24 2 -36 -15 -54 -20 -21 -27
-40 -29 -72 -1 -7 -7 -13 -14 -13 -7 0 -30 -9 -52 -20 -41 -21 -65 -25 -65
-12 0 5 -17 13 -37 18 -26 6 -39 16 -42 29 -2 11 -8 23 -14 27 -18 11 50 137
81 151 15 6 29 15 32 18 5 7 65 26 87 28 6 1 19 -6 27 -15z m956 -181 c37 -25
49 -45 50 -77 0 -34 -39 -116 -55 -116 -7 0 -20 -9 -31 -21 -29 -32 -83 -21
-128 27 -19 22 -36 43 -36 47 0 18 43 69 66 77 30 12 32 46 3 55 -17 6 -19 9
-8 16 24 15 113 10 139 -8z m289 7 c26 -13 53 -58 58 -96 10 -76 -83 -153
-169 -140 -59 9 -68 26 -61 125 5 70 8 81 25 81 10 0 26 9 35 20 19 22 80 27
112 10z m-529 -59 c0 -6 -4 -13 -10 -16 -5 -3 -10 1 -10 9 0 9 5 16 10 16 6 0
10 -4 10 -9z m-119 -34 c29 -19 34 -29 37 -66 2 -31 -2 -49 -16 -65 -10 -11
-26 -33 -35 -48 -21 -34 -85 -68 -128 -68 -56 0 -108 47 -130 115 -14 44 45
135 88 135 13 0 23 4 23 8 0 4 28 9 63 10 52 2 69 -2 98 -21z m-814 -42 c73
-22 94 -42 96 -90 2 -71 -10 -98 -72 -157 -56 -55 -61 -58 -111 -58 -28 0 -60
5 -71 11 -39 20 -86 83 -98 129 l-12 46 53 53 c48 49 101 77 149 80 8 1 38 -6
66 -14z m320 -27 c46 -44 43 -74 -10 -132 -33 -35 -50 -46 -74 -46 -19 0 -33
6 -37 16 -3 8 -10 13 -15 10 -14 -9 -22 21 -12 47 4 12 4 33 0 47 -20 69 -4
88 76 89 31 1 46 -6 72 -31z"/>
<path d="M2759 2096 c-5 -5 -136 -17 -239 -21 -128 -6 -243 -15 -300 -24 -30
-5 -74 -8 -96 -6 -23 1 -66 -2 -95 -6 -30 -5 -76 -12 -104 -14 -81 -9 -289
-35 -305 -40 -8 -2 -33 -6 -54 -10 -22 -3 -44 -9 -50 -14 -6 -5 -36 -14 -66
-21 -30 -7 -62 -17 -70 -21 -24 -12 -134 -48 -158 -52 -12 -2 -25 -6 -28 -10
-4 -4 -18 -7 -30 -7 -13 0 -26 -4 -29 -10 -3 -5 -17 -10 -30 -10 -13 0 -27 -5
-30 -11 -4 -5 -17 -15 -28 -20 -52 -24 -81 -42 -170 -111 -34 -26 -65 -48 -69
-48 -14 0 -93 -92 -116 -134 -35 -66 -35 -218 0 -263 5 -7 7 -17 3 -23 -3 -5
2 -22 13 -38 11 -15 22 -37 26 -49 12 -37 185 -202 222 -211 8 -2 14 -11 14
-20 0 -9 11 -37 25 -61 14 -23 25 -49 25 -57 0 -8 9 -23 20 -34 10 -10 30 -37
44 -58 13 -21 31 -45 39 -54 8 -8 24 -32 36 -54 61 -110 192 -254 232 -254 9
0 19 -4 21 -8 2 -5 28 -21 58 -35 30 -15 71 -36 90 -47 19 -11 45 -20 58 -20
12 0 33 -6 45 -14 12 -8 49 -20 82 -26 33 -6 96 -18 140 -26 44 -8 103 -17
130 -20 28 -3 72 -9 99 -15 26 -5 80 -12 120 -15 39 -3 75 -8 79 -11 17 -10
677 -1 847 12 78 6 248 43 295 64 11 5 56 22 100 37 44 14 84 33 88 40 4 8 15
14 23 14 36 0 123 77 175 155 58 85 119 201 119 224 0 52 52 111 97 111 33 0
134 73 203 147 90 96 128 177 160 340 13 65 9 241 -6 265 -5 7 -14 29 -19 48
-7 23 -22 42 -44 55 -19 11 -62 47 -96 80 -104 99 -156 132 -285 180 -25 10
-52 20 -60 25 -8 4 -42 15 -75 24 -33 9 -80 25 -105 35 -79 33 -313 82 -386
81 -17 0 -44 4 -59 10 -15 6 -66 13 -114 16 -47 3 -108 10 -135 15 -27 5 -93
12 -145 15 -53 3 -103 7 -112 10 -8 2 -17 2 -20 0z m291 -132 c19 -3 55 -8 80
-9 84 -7 332 -56 455 -90 33 -9 87 -23 120 -30 33 -7 86 -25 117 -39 31 -14
62 -26 68 -26 10 0 101 -46 192 -98 47 -27 135 -104 173 -152 10 -14 30 -45
43 -70 22 -40 24 -53 18 -120 -7 -86 -9 -101 -18 -115 -3 -5 -13 -34 -22 -63
-16 -57 -46 -104 -86 -138 -14 -12 -37 -32 -51 -45 -52 -48 -79 -69 -88 -69
-5 0 -14 -7 -21 -15 -7 -9 -19 -14 -27 -11 -7 3 -13 -1 -13 -9 0 -8 -8 -15
-17 -16 -31 -1 -51 -7 -84 -23 -18 -9 -43 -16 -56 -16 -13 0 -33 -5 -44 -10
-11 -6 -43 -13 -72 -16 -28 -2 -92 -11 -142 -19 -49 -8 -110 -17 -135 -20 -25
-2 -86 -9 -136 -15 -50 -5 -228 -12 -395 -15 -288 -5 -429 1 -629 26 -131 16
-151 19 -210 29 -30 5 -93 14 -140 20 -110 14 -343 66 -400 90 -70 28 -200 70
-255 81 -27 6 -57 15 -67 20 -9 5 -32 11 -50 13 -62 8 -180 54 -207 80 -97 96
-121 121 -121 129 0 4 -9 27 -21 50 -12 24 -23 70 -26 107 -4 64 -4 66 41 125
25 33 48 63 53 67 28 27 72 58 80 58 6 0 17 8 26 18 49 54 420 196 607 232 52
11 111 23 130 29 19 5 71 12 114 16 44 3 83 8 88 12 8 4 193 24 238 25 8 0 56
4 105 10 113 13 165 15 165 7 0 -4 24 -1 53 6 53 13 492 12 567 -1z m-1778
-1129 c46 -14 108 -32 138 -41 30 -9 64 -20 75 -24 32 -13 123 -40 134 -40 5
0 22 -5 38 -12 32 -13 30 -12 103 -32 30 -8 69 -15 85 -14 17 0 64 -7 106 -16
42 -9 84 -14 93 -10 8 3 57 -1 108 -10 187 -31 677 -49 898 -32 52 4 127 9
165 11 39 2 104 9 145 14 41 5 92 8 112 7 21 -1 39 1 40 5 3 5 159 32 254 43
17 2 42 7 55 11 21 7 22 6 10 -8 -7 -9 -11 -24 -7 -32 3 -9 2 -23 -3 -33 -4
-9 -20 -43 -36 -75 -36 -74 -136 -174 -218 -217 -65 -34 -174 -70 -194 -63 -6
2 -14 -1 -18 -6 -3 -6 -25 -11 -48 -12 -23 0 -76 -6 -117 -13 -44 -8 -124 -12
-195 -11 -66 2 -136 4 -155 4 -51 2 -167 3 -225 2 -205 -2 -262 -1 -354 4 -57
3 -107 8 -111 10 -4 2 -35 7 -71 10 -135 13 -137 13 -289 48 -134 31 -283 102
-352 167 -26 25 -63 60 -82 77 -20 18 -33 33 -30 33 3 0 -18 28 -46 62 -27 35
-50 68 -50 75 0 7 -3 13 -8 13 -9 0 -28 43 -38 85 -4 17 -12 33 -18 37 -22 15
24 8 106 -17z"/>
<path d="M2908 1845 c-5 -4 -304 -16 -498 -19 -169 -3 -295 -12 -311 -22 -4
-2 -44 -6 -90 -10 -46 -3 -100 -10 -119 -15 -19 -5 -51 -9 -70 -9 -20 0 -61
-9 -93 -20 -31 -11 -69 -20 -85 -20 -16 0 -53 -7 -83 -16 -30 -9 -76 -20 -104
-24 -27 -5 -66 -13 -85 -18 -50 -13 -216 -88 -240 -109 -11 -10 -24 -18 -27
-18 -4 0 -22 -15 -40 -34 -43 -45 -57 -93 -44 -150 5 -25 8 -49 5 -53 -3 -4
-1 -8 4 -8 9 0 21 -29 26 -61 1 -10 34 -49 72 -87 61 -62 77 -73 139 -92 39
-12 79 -25 90 -30 38 -17 59 -20 210 -35 17 -2 48 -8 69 -13 22 -6 44 -8 49
-5 5 3 27 1 50 -5 81 -20 184 -32 332 -37 185 -7 320 -13 405 -20 114 -9 372
-10 480 -2 58 4 141 8 185 8 44 0 118 5 165 10 47 6 99 12 115 14 17 2 31 5
33 6 3 2 11 4 67 14 28 5 52 9 55 10 3 1 28 5 55 9 28 4 64 13 80 21 17 8 41
16 55 18 42 6 145 51 166 71 6 6 26 22 46 35 19 13 46 40 59 60 13 20 26 38
29 41 11 10 30 57 40 98 13 52 11 117 -7 159 -7 18 -14 36 -14 40 -1 9 -52 37
-139 76 -86 39 -357 123 -424 132 -22 2 -62 11 -90 19 -58 17 -238 54 -300 61
-22 3 -70 10 -106 16 -82 14 -109 17 -112 14z m-403 -99 c33 1 143 5 245 9
191 8 313 -2 480 -40 36 -8 79 -15 95 -15 17 0 35 -4 40 -9 10 -9 78 -26 138
-36 33 -5 212 -54 242 -65 23 -10 110 -47 178 -78 44 -20 47 -24 36 -44 -9
-17 -9 -24 2 -32 13 -11 16 -18 25 -59 8 -45 -85 -160 -180 -221 -45 -29 -203
-71 -305 -82 -25 -3 -65 -9 -89 -15 -25 -5 -47 -7 -50 -4 -3 2 -11 0 -18 -6
-8 -6 -42 -13 -76 -15 -35 -2 -63 -4 -63 -5 0 -7 -302 -6 -385 1 -58 5 -206
12 -330 15 -246 6 -386 12 -440 20 -19 3 -64 7 -100 10 -36 3 -76 7 -90 10
-14 3 -90 15 -170 25 -185 25 -313 58 -420 108 -99 46 -117 69 -126 161 -6 57
-5 61 23 88 53 49 154 107 204 117 13 2 37 9 52 15 16 6 42 11 58 11 17 0 39
5 50 11 11 5 58 17 104 25 46 8 103 21 126 29 23 8 55 15 71 15 17 0 53 7 81
15 29 8 68 14 87 13 19 -1 53 1 75 5 22 3 74 9 115 12 42 3 98 9 125 13 28 4
68 5 90 2 22 -3 67 -4 100 -4z"/>
</g>
</svg>
