<?xml version="1.0" standalone="no"?>
<!DOCTYPE svg PUBLIC "-//W3C//DTD SVG 20010904//EN"
 "http://www.w3.org/TR/2001/REC-SVG-20010904/DTD/svg10.dtd">
<svg version="1.0" xmlns="http://www.w3.org/2000/svg"
 width="525.000000pt" height="341.000000pt" viewBox="0 0 525.000000 341.000000"
 preserveAspectRatio="xMidYMid meet">
<metadata>
Created by potrace 1.16, written by Peter Selinger 2001-2019
</metadata>
<g transform="translate(0.000000,341.000000) scale(0.100000,-0.100000)"
fill="#000000" stroke="none">
<path d="M2390 3068 c-47 -5 -122 -6 -166 -3 -60 3 -93 1 -125 -11 -24 -8
-109 -31 -188 -50 -151 -36 -233 -65 -341 -119 -36 -18 -94 -41 -128 -50 -93
-26 -255 -147 -405 -303 -44 -45 -69 -82 -88 -128 -14 -35 -32 -72 -40 -81
-26 -32 -46 -88 -55 -152 -4 -38 30 -136 70 -195 20 -30 36 -58 36 -62 0 -10
-33 -33 -47 -34 -17 0 -110 -88 -132 -124 -44 -72 -34 -175 20 -220 28 -24 47
-66 30 -66 -4 0 -7 -66 -6 -147 2 -132 13 -212 38 -273 3 -8 13 -42 22 -75 9
-33 18 -66 20 -73 3 -7 4 -15 4 -18 0 -4 3 -10 8 -13 4 -3 26 -28 47 -56 22
-27 97 -106 167 -175 133 -132 134 -133 359 -238 47 -22 119 -49 160 -61 115
-31 287 -71 309 -71 11 0 22 -4 26 -9 3 -6 18 -9 33 -7 15 1 45 -2 67 -6 22
-4 85 -14 140 -23 55 -8 115 -20 133 -26 36 -12 442 -14 557 -4 39 4 124 20
190 35 66 15 147 34 180 40 33 7 87 21 119 31 33 11 64 19 69 19 19 0 215 102
232 121 10 10 24 19 32 19 8 0 29 11 47 25 18 14 38 25 45 25 6 0 31 18 55 40
24 22 47 40 52 40 11 0 128 101 162 139 13 14 42 53 64 86 23 33 44 62 47 65
3 3 11 16 17 30 6 14 21 45 32 70 26 54 52 130 52 149 0 8 7 22 16 32 19 21
11 74 -9 64 -7 -4 -1 3 12 14 13 12 30 21 38 21 15 0 113 97 113 111 0 4 7 15
15 23 25 24 33 94 19 156 -16 66 -39 113 -90 181 -37 48 -123 119 -144 119
-15 0 -13 5 19 52 36 54 62 149 57 214 -7 101 -66 247 -151 374 -74 111 -81
118 -157 177 -27 19 -48 40 -48 44 0 5 -7 9 -15 9 -8 0 -29 13 -47 29 -33 28
-175 101 -198 101 -7 0 -34 11 -62 25 -27 14 -75 32 -106 41 -31 9 -75 25 -97
35 -50 22 -121 46 -160 52 -16 3 -50 13 -75 22 -25 9 -61 18 -80 21 -19 3 -46
7 -60 9 -139 23 -546 31 -710 13z m505 -83 c212 -8 423 -53 579 -124 38 -17
73 -31 78 -31 5 0 38 -13 73 -30 35 -16 70 -30 77 -30 30 0 169 -78 248 -139
47 -36 87 -68 90 -72 3 -4 22 -27 44 -52 45 -53 52 -65 106 -174 57 -117 70
-159 70 -233 0 -49 -6 -78 -22 -110 -13 -25 -27 -44 -33 -42 -5 2 -12 -6 -17
-17 -4 -12 -16 -24 -25 -28 -10 -4 -27 -15 -38 -25 -10 -10 -36 -24 -57 -30
-21 -6 -43 -17 -49 -25 -6 -7 -19 -13 -29 -13 -9 0 -20 -3 -24 -7 -3 -4 -12
-8 -19 -9 -7 -1 -66 -20 -131 -43 -66 -22 -123 -38 -128 -35 -4 3 -8 1 -8 -4
0 -16 -185 -68 -270 -76 -91 -9 -234 -26 -250 -31 -8 -2 -35 -7 -60 -10 -25
-2 -54 -7 -65 -9 -68 -13 -243 -36 -320 -41 -122 -9 -121 -9 -360 0 -115 4
-264 8 -330 10 -66 1 -132 7 -146 13 -15 6 -29 8 -32 6 -3 -3 -13 -1 -24 4
-17 10 -78 28 -233 71 -36 9 -81 25 -100 34 -19 8 -49 18 -67 22 -17 3 -50 20
-72 36 -23 16 -41 27 -41 24 0 -9 -156 75 -178 96 -12 10 -26 19 -32 19 -5 0
-10 4 -10 8 0 5 -11 22 -25 38 -14 16 -25 32 -25 35 0 3 -11 19 -25 35 -33 38
-85 143 -85 171 0 20 24 79 55 133 7 14 23 46 34 71 25 58 125 162 258 270 55
44 159 110 182 115 30 6 32 7 169 68 56 26 141 55 190 67 48 11 96 24 107 29
66 30 214 57 325 59 47 1 126 6 175 10 87 7 201 6 470 -4z m-1859 -1170 c4 -8
10 -15 14 -15 5 0 39 -17 77 -39 37 -21 95 -52 127 -69 l60 -31 -67 -30 c-36
-16 -90 -34 -119 -40 -29 -5 -66 -14 -81 -20 -42 -16 -115 -13 -148 6 -30 18
-59 67 -59 101 0 11 16 37 35 57 19 21 36 41 37 44 6 13 69 42 77 36 5 -3 12
-1 16 5 9 15 25 12 31 -5z m3174 -23 c0 -4 15 -16 33 -25 44 -24 127 -104 127
-122 0 -8 4 -15 10 -15 10 0 51 -83 49 -97 -1 -4 -1 -10 0 -13 9 -25 6 -72 -5
-81 -8 -6 -14 -15 -14 -19 0 -19 -98 -109 -130 -118 -33 -11 -113 -7 -133 5
-5 3 -29 7 -53 9 -24 1 -51 10 -60 18 -8 9 -37 30 -62 48 -54 37 -72 53 -72
65 0 4 -34 44 -75 87 -41 44 -75 86 -75 95 0 24 102 53 219 63 7 1 59 25 115
54 99 52 126 62 126 46z m-2535 -247 c11 -2 38 -9 60 -18 115 -41 201 -57 323
-57 71 0 81 -2 70 -14 -7 -8 -21 -25 -31 -39 -23 -31 -76 -54 -181 -77 -54
-12 -90 -15 -115 -9 -20 4 -38 8 -41 9 -3 0 -31 8 -63 17 -65 18 -122 72 -111
106 3 10 0 25 -7 33 -10 12 -9 20 2 40 11 22 18 25 44 19 16 -4 39 -8 50 -10z
m1517 -63 c59 -130 67 -258 21 -349 -46 -91 -114 -109 -138 -36 -5 16 -18 37
-27 47 -10 10 -18 21 -18 25 0 16 -65 27 -95 15 -118 -48 -164 -61 -209 -59
-50 2 -57 7 -103 73 -21 30 -20 130 2 172 19 36 19 55 0 73 -15 16 -15 16 190
33 62 5 186 21 265 34 88 14 94 13 112 -28z m-2075 -128 c-3 -3 -12 -4 -19 -1
-8 3 -5 6 6 6 11 1 17 -2 13 -5z m-114 -59 c20 -4 40 -11 43 -16 3 -5 16 -9
30 -9 13 0 24 -5 24 -10 0 -6 6 -10 13 -9 21 4 101 -24 117 -41 20 -22 78 -53
295 -154 126 -59 125 -59 209 -53 45 3 95 11 111 18 35 14 40 15 77 17 15 1
33 9 42 17 8 8 21 15 28 15 7 0 42 14 77 30 38 18 87 33 125 36 90 9 264 -5
281 -22 7 -8 17 -14 22 -14 5 0 25 -11 45 -25 24 -16 38 -21 40 -13 3 8 18 5
47 -11 28 -14 53 -20 70 -17 14 3 49 8 78 11 29 2 69 14 90 25 51 27 100 35
118 20 8 -7 24 -31 35 -54 12 -22 33 -47 48 -54 31 -14 92 -16 92 -2 0 6 6 10
14 10 8 0 28 11 45 25 29 25 35 26 208 30 179 4 210 6 293 24 25 6 65 12 90
15 59 7 158 39 217 71 26 14 53 25 59 25 5 0 29 9 52 20 22 11 50 20 62 20 19
0 20 -5 16 -47 -7 -81 -37 -165 -73 -206 -12 -14 -19 -28 -16 -30 8 -8 -85
-145 -119 -175 -17 -15 -45 -42 -64 -60 -71 -71 -315 -223 -424 -266 -102 -39
-323 -101 -470 -130 -106 -21 -177 -26 -415 -27 -203 -1 -270 5 -450 41 -52
10 -275 52 -380 71 -68 12 -165 38 -180 49 -5 3 -65 28 -133 55 -140 55 -156
66 -309 216 -185 181 -213 227 -258 434 -10 47 -14 167 -6 183 0 1 11 -4 24
-12 12 -8 39 -18 60 -21z m692 -205 c3 -5 -3 -10 -15 -10 -12 0 -18 5 -15 10
3 6 10 10 15 10 5 0 12 -4 15 -10z m92 -6 c-3 -3 -12 -4 -19 -1 -8 3 -5 6 6 6
11 1 17 -2 13 -5z"/>
</g>
</svg>
