<?xml version="1.0" standalone="no"?>
<!DOCTYPE svg PUBLIC "-//W3C//DTD SVG 20010904//EN"
 "http://www.w3.org/TR/2001/REC-SVG-20010904/DTD/svg10.dtd">
<svg version="1.0" xmlns="http://www.w3.org/2000/svg"
 width="489.000000pt" height="423.000000pt" viewBox="0 0 489.000000 423.000000"
 preserveAspectRatio="xMidYMid meet">
<metadata>
Created by potrace 1.16, written by Peter Selinger 2001-2019
</metadata>
<g transform="translate(0.000000,423.000000) scale(0.100000,-0.100000)"
fill="#000000" stroke="none">
<path d="M1930 4093 c-25 -13 -92 -46 -150 -73 -102 -48 -140 -68 -150 -81 -3
-3 -18 -13 -34 -21 -41 -21 -226 -199 -305 -293 -109 -129 -256 -373 -286
-475 -4 -14 -11 -30 -16 -36 -24 -30 -83 -276 -76 -319 4 -24 1 -38 -10 -47
-24 -20 -12 -168 18 -209 20 -29 20 -31 4 -49 -17 -19 -14 -70 4 -70 5 0 14
-15 22 -32 26 -66 55 -73 204 -50 157 25 572 32 684 13 49 -9 101 -11 150 -6
90 9 143 8 276 -5 55 -5 129 -12 165 -14 66 -5 275 -33 297 -41 6 -2 71 -7
145 -11 73 -3 137 -9 142 -12 13 -7 307 -29 436 -31 63 -1 189 -6 280 -12 91
-5 237 -12 325 -14 88 -2 210 -6 272 -9 79 -3 113 -1 116 7 3 9 8 8 19 -1 14
-11 18 -8 32 20 18 36 13 88 -9 88 -7 0 -16 15 -19 33 -5 24 -20 41 -59 68
-29 21 -91 70 -138 110 -48 41 -139 117 -204 169 -65 52 -150 122 -189 156
-39 33 -80 68 -91 77 -11 9 -40 32 -65 53 -67 55 -224 174 -288 217 -30 20
-78 54 -106 76 -28 21 -66 46 -85 55 -18 10 -68 43 -111 74 -44 31 -107 75
-142 97 -35 22 -65 43 -68 46 -8 12 -222 139 -232 139 -13 0 -128 81 -128 90
0 4 -18 13 -40 20 -22 7 -40 17 -40 22 0 4 -6 8 -14 8 -8 0 -35 16 -61 35 -25
20 -76 52 -112 71 -37 19 -86 48 -109 64 -23 15 -51 31 -62 34 -10 4 -33 22
-51 41 -18 20 -41 35 -54 35 -13 0 -27 4 -32 8 -6 5 -30 -2 -55 -15z m71 -100
c8 -9 28 -22 46 -29 17 -8 47 -24 66 -36 19 -13 49 -31 67 -41 l33 -18 -46
-42 c-25 -23 -80 -68 -123 -100 -87 -63 -239 -213 -271 -267 -32 -52 -173
-338 -173 -349 0 -5 -14 -44 -30 -85 -45 -112 -61 -199 -73 -398 l-2 -28 -235
-3 c-130 -2 -245 1 -257 6 -26 11 -36 78 -16 107 7 10 10 26 7 34 -3 9 -2 22
4 29 5 6 12 53 15 104 5 69 14 111 37 172 17 44 31 83 31 86 0 5 52 105 66
128 4 7 8 14 9 17 11 37 18 50 25 50 5 0 9 6 9 14 0 7 9 24 19 38 11 14 21 31
23 38 2 7 12 22 23 34 11 12 29 34 40 50 11 15 31 41 45 56 14 16 39 45 55 66
70 88 279 264 314 264 6 0 11 3 11 8 0 7 36 27 90 50 14 5 45 19 70 30 84 37
101 39 121 15z m448 -267 c29 -15 63 -36 74 -47 12 -11 53 -35 92 -53 38 -19
134 -77 213 -130 79 -53 145 -96 148 -96 8 0 98 -61 109 -74 6 -7 39 -30 75
-51 36 -22 93 -61 127 -87 34 -27 68 -48 74 -48 6 0 -3 -13 -21 -28 -17 -16
-30 -35 -29 -43 2 -8 -2 -23 -8 -35 -6 -11 -9 -25 -5 -31 13 -19 48 -32 62
-23 8 5 18 6 23 3 6 -4 7 5 3 21 -4 18 -2 26 7 26 7 0 23 9 34 20 l22 20 53
-36 c29 -20 70 -51 92 -70 21 -19 57 -48 80 -64 22 -16 65 -51 95 -79 30 -28
57 -51 62 -51 4 0 9 -4 11 -8 2 -4 35 -33 73 -64 270 -218 315 -258 291 -258
-22 0 -56 -27 -56 -45 0 -16 -38 -27 -46 -13 -3 5 3 12 14 15 31 8 38 54 12
75 -33 26 -54 22 -67 -13 -13 -34 -8 -59 13 -59 8 0 14 -4 14 -10 0 -11 -118
-14 -144 -4 -14 5 -13 10 8 30 27 28 25 63 -5 66 -71 6 -81 4 -96 -19 -12 -19
-13 -26 -3 -38 27 -32 27 -32 -420 19 -69 8 -154 17 -190 21 -36 3 -76 8 -90
10 -175 25 -255 33 -525 51 -55 3 -108 10 -117 15 -9 5 -52 9 -95 9 -43 -1
-139 2 -213 4 -74 3 -209 8 -300 12 -204 7 -292 13 -298 18 -2 3 -6 60 -8 126
-3 88 0 129 10 148 7 15 16 52 20 82 4 30 18 78 32 107 13 28 24 56 24 62 0 6
11 27 25 47 14 20 30 54 37 75 6 22 15 39 19 39 4 0 13 17 20 37 28 87 109
186 233 286 21 18 52 44 68 60 16 15 31 27 33 27 3 0 32 20 66 45 34 25 70 45
80 45 12 0 23 10 29 26 l10 26 48 -34 c26 -19 71 -47 101 -62z m-1411 -1291
c-3 -3 -9 2 -12 12 -6 14 -5 15 5 6 7 -7 10 -15 7 -18z m331 1 c-2 -2 -26 -6
-54 -10 -36 -5 -46 -4 -35 3 13 10 99 16 89 7z m2911 -54 c-25 -4 -25 -4 -35
27 l-7 23 32 -23 c30 -22 31 -24 10 -27z"/>
<path d="M2247 3723 c-2 -5 -7 -25 -11 -45 -6 -32 -4 -38 11 -38 10 0 28 -3
40 -6 30 -8 42 36 19 71 -16 24 -50 34 -59 18z"/>
<path d="M2145 3607 c-19 -30 -13 -48 25 -70 29 -17 29 -17 45 7 22 32 16 72
-8 68 -10 -2 -25 2 -32 8 -11 9 -17 6 -30 -13z"/>
<path d="M2454 3586 c-19 -21 -5 -64 22 -70 34 -9 44 0 44 39 0 42 -40 62 -66
31z"/>
<path d="M2004 3560 c-27 -11 -36 -34 -24 -64 12 -33 49 -44 66 -21 8 10 10
23 7 29 -4 6 -6 23 -5 38 2 29 -7 33 -44 18z"/>
<path d="M2327 3546 c-15 -14 -27 -35 -27 -48 0 -14 -3 -18 -8 -11 -4 6 -23
14 -44 18 -31 6 -37 4 -43 -14 -12 -39 3 -59 50 -67 52 -7 79 0 71 21 -3 10 5
16 29 21 19 3 41 4 48 1 23 -9 13 28 -19 67 l-31 36 -26 -24z"/>
<path d="M2592 3518 c-26 -26 -8 -88 23 -82 52 10 61 26 40 77 -8 20 -45 23
-63 5z"/>
<path d="M1970 3424 c-14 -35 -13 -38 13 -62 24 -23 52 -29 61 -13 9 14 -34
101 -50 101 -8 0 -19 -12 -24 -26z"/>
<path d="M2501 3428 c-10 -27 -8 -43 11 -78 10 -21 18 -25 38 -20 22 6 25 11
23 50 -2 47 -7 54 -41 65 -17 5 -24 1 -31 -17z"/>
<path d="M2345 3418 c-3 -13 -1 -37 5 -52 6 -16 8 -37 4 -48 -4 -13 3 -25 22
-41 39 -30 58 -28 62 6 2 15 -1 27 -7 27 -6 0 -8 12 -5 29 5 23 2 30 -14 35
-15 5 -19 13 -16 31 2 14 0 25 -5 25 -5 0 -16 3 -25 6 -10 4 -17 -2 -21 -18z"/>
<path d="M2805 3368 c-13 -32 -13 -33 18 -50 36 -18 59 -11 78 24 10 18 8 24
-11 40 -36 29 -69 23 -85 -14z"/>
<path d="M2720 3360 c-6 -10 -10 -25 -10 -34 0 -16 26 -46 40 -46 16 0 32 41
26 65 -8 30 -43 39 -56 15z"/>
<path d="M2153 3355 c-30 -21 -35 -62 -9 -80 28 -21 45 -19 67 8 23 28 24 50
1 70 -23 21 -32 21 -59 2z"/>
<path d="M2990 3301 c0 -5 -9 -11 -20 -14 -31 -8 -34 -31 -9 -85 20 -44 27
-51 59 -55 19 -2 43 0 53 5 17 9 17 11 3 33 -9 13 -13 31 -10 39 7 19 -13 56
-31 56 -8 0 -15 4 -15 9 0 5 -7 11 -15 15 -8 3 -15 2 -15 -3z"/>
<path d="M2169 3237 c-22 -16 -31 -50 -23 -81 5 -21 12 -26 39 -26 76 0 112
41 57 65 -12 5 -22 17 -22 26 0 9 -7 20 -16 23 -19 7 -16 8 -35 -7z"/>
<path d="M2538 3243 c-9 -2 -19 -11 -22 -19 -17 -44 68 -85 102 -50 16 16 15
19 -18 47 -19 16 -37 28 -40 28 -3 -1 -12 -3 -22 -6z"/>
<path d="M3123 3235 c-5 -8 -7 -31 -5 -49 3 -29 9 -35 33 -38 17 -3 34 1 40 8
13 16 9 76 -6 86 -17 13 -54 9 -62 -7z"/>
<path d="M1887 3213 c-7 -35 -1 -47 28 -63 31 -17 55 1 55 41 0 27 -2 29 -61
45 -12 3 -18 -4 -22 -23z"/>
<path d="M2673 3220 c-29 -12 -31 -55 -3 -70 15 -8 27 -7 50 5 35 18 36 22 11
53 -21 24 -25 25 -58 12z"/>
<path d="M2810 3115 c0 -38 27 -61 60 -50 31 10 27 59 -5 73 -44 20 -55 15
-55 -23z"/>
<path d="M2520 3130 c0 -5 -7 -10 -15 -10 -13 0 -14 -4 -5 -20 6 -11 8 -20 5
-20 -4 0 1 -7 9 -16 11 -11 25 -14 46 -9 24 5 30 12 30 34 0 20 -7 31 -25 39
-32 15 -45 15 -45 2z"/>
<path d="M1821 3091 c-31 -9 -42 -39 -22 -63 32 -37 98 -12 97 37 -1 25 -5 30
-26 32 -14 1 -36 -2 -49 -6z"/>
<path d="M3218 3089 c-24 -14 -24 -65 1 -78 23 -13 53 7 58 39 2 15 -3 23 -17
27 -11 3 -17 9 -14 14 7 12 -7 11 -28 -2z"/>
<path d="M3010 3062 c-18 -22 -21 -23 -35 -8 -26 25 -59 14 -63 -21 -3 -26 2
-32 29 -43 23 -10 36 -10 49 -3 10 7 22 8 31 2 20 -13 42 -11 64 5 16 11 17
17 7 29 -7 8 -10 22 -6 31 4 11 1 16 -10 16 -9 0 -16 4 -16 8 0 18 -32 8 -50
-16z"/>
<path d="M2165 3017 c-21 -35 -12 -47 43 -54 32 -4 42 -10 44 -27 5 -35 45
-33 84 5 43 42 46 79 6 79 -16 0 -37 -6 -48 -14 -20 -15 -44 -5 -44 19 0 7
-15 15 -34 17 -29 3 -37 -1 -51 -25z"/>
<path d="M2430 3024 c-14 -35 -13 -41 9 -63 18 -18 46 -13 63 12 10 16 -12 54
-38 66 -22 10 -26 8 -34 -15z"/>
<path d="M2671 3027 c-16 -42 17 -75 65 -63 21 6 25 11 22 39 -2 25 -8 32 -25
33 -12 1 -29 4 -38 7 -11 5 -18 0 -24 -16z"/>
<path d="M1995 3000 c-12 -37 3 -60 40 -60 39 0 54 26 33 59 -17 28 -64 28
-73 1z"/>
<path d="M3393 2968 c-41 -25 -44 -60 -7 -85 21 -14 29 -14 46 -4 16 10 23 10
38 -4 11 -10 20 -12 24 -6 4 6 14 7 24 4 9 -3 14 -3 10 2 -4 4 -3 16 3 27 16
29 -13 68 -50 68 -16 0 -32 -6 -34 -12 -3 -8 -6 -7 -6 4 -1 26 -13 27 -48 6z"/>
<path d="M3139 2922 c-18 -23 -18 -25 -1 -48 23 -32 44 -30 60 6 27 59 -19 92
-59 42z"/>
<path d="M1897 2912 c-37 -41 -8 -95 47 -90 28 3 31 6 29 37 -1 23 -9 41 -25
53 -29 22 -31 22 -51 0z"/>
<path d="M2121 2868 c0 -16 -5 -28 -10 -28 -19 0 2 -47 29 -62 27 -15 29 -15
50 7 30 32 19 61 -25 69 -20 4 -36 14 -38 24 -3 10 -5 6 -6 -10z"/>
<path d="M2866 2874 c-18 -17 -21 -50 -7 -56 6 -2 5 -20 -2 -45 -16 -60 13
-88 67 -67 20 8 21 43 1 50 -22 9 -18 37 6 54 53 37 62 47 56 63 -9 23 -99 24
-121 1z"/>
<path d="M3260 2861 c0 -6 -6 -11 -14 -11 -21 0 -7 -49 20 -67 20 -13 26 -13
37 -1 8 7 14 28 15 46 1 33 -12 50 -23 32 -5 -8 -11 -7 -21 1 -10 8 -14 8 -14
0z"/>
<path d="M1771 2824 c-11 -25 -7 -63 7 -65 48 -9 57 -4 60 33 2 29 -1 39 -17
48 -16 8 -21 8 -21 -2 0 -11 -2 -11 -8 0 -6 9 -12 5 -21 -14z"/>
<path d="M2434 2843 c-6 -5 -13 -17 -16 -29 -4 -16 2 -25 26 -37 17 -9 42 -17
56 -19 20 -2 26 2 28 23 2 15 -4 32 -15 41 -22 20 -64 31 -79 21z"/>
<path d="M3642 2838 c-15 -15 -15 -39 1 -59 16 -20 45 -31 52 -18 4 5 11 7 16
3 17 -10 -1 60 -18 74 -21 15 -36 15 -51 0z"/>
<path d="M1676 2798 c-23 -30 -23 -34 -10 -60 24 -47 73 -36 65 15 0 4 3 7 8
7 15 0 0 46 -19 58 -16 10 -23 7 -44 -20z"/>
<path d="M2640 2817 c-21 -17 -18 -44 8 -72 13 -13 22 -35 22 -54 0 -46 25
-39 54 16 22 45 20 56 -16 92 -35 34 -45 37 -68 18z"/>
<path d="M3383 2785 c-20 -22 1 -65 31 -65 14 0 28 -5 32 -11 4 -8 9 -7 15 2
10 17 14 12 23 -24 l7 -28 -44 6 c-43 7 -45 6 -49 -23 -6 -45 3 -57 44 -57 40
0 69 26 61 55 -3 12 4 16 32 17 40 1 85 26 85 47 0 8 -12 19 -27 25 -16 6 -36
16 -45 23 -14 10 -21 9 -37 -6 -21 -19 -21 -19 -21 2 0 14 -11 27 -30 37 -36
19 -61 19 -77 0z"/>
<path d="M3118 2777 c-30 -12 -44 -55 -23 -72 7 -5 15 -17 17 -25 7 -22 78 57
78 87 0 26 -24 29 -72 10z"/>
<path d="M3203 2724 c-40 -42 -41 -56 -7 -78 34 -23 59 -17 60 15 1 14 5 32 9
39 4 7 9 24 11 37 4 35 -35 29 -73 -13z"/>
<path d="M2210 2730 c0 -6 -6 -10 -14 -10 -8 0 -17 -7 -20 -16 -8 -20 19 -64
38 -64 8 0 21 -2 29 -6 16 -6 31 44 21 70 -6 17 -54 40 -54 26z"/>
<path d="M1906 2715 c-19 -14 -19 -17 -3 -50 l17 -35 35 17 c41 20 43 32 12
61 -27 26 -35 26 -61 7z"/>
<path d="M3323 2701 c-17 -27 -5 -58 27 -70 27 -9 28 -7 34 24 4 18 4 40 0 49
-8 22 -46 20 -61 -3z"/>
<path d="M2509 2693 c-27 -7 -29 -49 -5 -70 33 -29 105 -15 106 19 0 7 -76 59
-82 57 -2 -1 -10 -3 -19 -6z"/>
<path d="M3760 2670 c-11 -11 -20 -26 -21 -32 -2 -40 -12 -72 -25 -85 -30 -30
-4 -87 38 -81 29 4 35 37 14 80 -20 39 -20 38 5 38 32 0 79 38 79 65 0 39 -57
48 -90 15z"/>
<path d="M2292 2641 c-13 -38 9 -71 51 -75 23 -3 30 2 38 22 13 33 3 59 -25
66 -13 3 -31 8 -39 12 -10 3 -18 -5 -25 -25z"/>
<path d="M2953 2660 c-26 -11 -31 -51 -9 -69 15 -13 68 -11 78 3 4 6 12 5 22
-3 13 -11 22 -10 51 3 19 9 35 20 35 24 0 18 -27 32 -62 32 -21 0 -38 5 -38
10 0 12 -47 12 -77 0z"/>
<path d="M3520 2615 c-11 -20 -11 -27 1 -42 33 -41 33 -41 62 -26 22 11 27 19
21 36 -8 27 -38 57 -57 57 -7 0 -20 -11 -27 -25z"/>
<path d="M3905 2620 c3 -5 2 -10 -4 -10 -17 0 -5 -62 15 -77 24 -17 42 0 53
50 8 33 7 35 -22 41 -41 8 -49 8 -42 -4z"/>
<path d="M3255 2596 c-16 -12 -18 -19 -10 -41 15 -41 44 -57 75 -42 38 19 36
48 -5 75 -41 26 -36 25 -60 8z"/>
<path d="M1657 2164 c-3 -3 -61 -7 -129 -8 -88 -1 -145 -8 -203 -23 -44 -12
-107 -27 -140 -34 -33 -7 -106 -32 -162 -56 -56 -24 -110 -43 -120 -43 -30 0
-164 -70 -228 -120 -33 -25 -76 -55 -95 -67 -43 -27 -161 -156 -221 -243 -80
-116 -112 -181 -140 -282 -7 -27 -16 -48 -20 -48 -6 0 -6 -7 -9 -175 -1 -95 9
-182 26 -235 3 -8 5 -17 6 -20 0 -10 22 -46 75 -128 86 -133 147 -186 304
-264 74 -37 154 -74 178 -83 24 -8 49 -19 55 -24 37 -28 163 -63 262 -71 60
-6 138 -13 174 -18 82 -9 372 -8 388 2 7 4 86 9 175 11 176 4 209 8 313 31 38
8 89 18 114 21 25 2 83 22 130 43 47 22 115 49 153 60 37 11 67 25 67 30 0 5
12 13 28 17 36 9 122 52 144 73 10 9 44 30 74 46 62 32 189 142 246 213 70 87
140 236 154 326 2 17 8 45 12 64 4 19 4 62 -1 95 -11 82 -65 266 -85 292 -41
53 -169 201 -187 217 -11 9 -74 47 -140 83 -66 36 -142 79 -170 96 -27 17 -79
46 -115 66 -36 19 -76 41 -90 48 -14 8 -33 14 -42 14 -9 0 -27 4 -40 9 -65 26
-69 27 -153 35 -33 3 -73 8 -90 11 -16 3 -50 7 -75 10 -25 4 -79 11 -120 17
-85 12 -294 20 -303 12z m219 -85 c7 -5 38 -11 70 -13 153 -10 227 -20 238
-32 7 -7 30 -11 51 -10 21 2 61 -6 89 -17 28 -10 61 -20 73 -21 12 0 28 -7 35
-13 6 -7 18 -13 26 -13 14 0 115 -53 186 -97 21 -14 57 -33 80 -44 65 -31 200
-111 232 -139 16 -14 45 -45 64 -70 19 -24 41 -51 47 -58 44 -46 91 -166 100
-252 2 -25 9 -59 14 -76 5 -17 7 -37 5 -45 -3 -8 -8 -32 -11 -54 -25 -178
-160 -372 -333 -480 -35 -22 -86 -55 -114 -73 -130 -84 -432 -205 -555 -221
-321 -43 -852 -59 -1048 -32 -113 16 -164 30 -268 76 -76 34 -102 46 -228 111
-26 13 -51 24 -55 24 -5 0 -37 25 -71 56 -63 56 -159 189 -192 267 -37 86 -49
261 -25 366 14 65 71 221 83 231 4 3 25 31 47 62 69 98 193 226 264 272 37 24
71 49 74 55 4 6 16 11 27 11 10 0 19 3 19 8 0 6 52 35 139 76 19 9 43 16 54
16 10 0 58 16 106 34 92 37 283 81 421 97 47 5 90 11 95 13 21 7 251 -7 261
-15z"/>
<path d="M1590 1914 c-114 -12 -184 -28 -270 -58 -24 -9 -56 -18 -70 -19 -14
-2 -38 -9 -55 -17 -16 -7 -46 -20 -65 -28 -19 -8 -42 -21 -51 -29 -18 -15
-129 -83 -136 -83 -11 0 -159 -106 -175 -125 -9 -11 -37 -42 -63 -70 -76 -81
-121 -154 -135 -220 -7 -32 -19 -74 -28 -92 -13 -28 -14 -41 -3 -90 29 -137
52 -217 71 -243 11 -16 20 -31 20 -35 0 -3 25 -42 55 -87 30 -44 55 -84 55
-89 0 -8 34 -22 61 -24 9 -1 39 -15 65 -33 27 -17 70 -40 95 -50 44 -19 178
-51 209 -50 8 0 56 -2 105 -6 191 -12 621 -17 647 -7 14 5 73 15 130 21 56 6
126 19 153 29 28 10 70 22 95 26 52 8 140 43 140 56 0 4 42 29 93 54 52 26
116 68 147 96 30 28 73 63 94 77 28 19 53 53 89 117 64 117 68 131 71 254 3
102 3 104 -39 199 -33 75 -54 107 -101 154 -95 95 -234 180 -409 249 -33 13
-61 27 -63 32 -2 4 -11 7 -20 7 -9 0 -31 9 -49 20 -50 30 -149 52 -258 56
-107 4 -251 13 -275 18 -8 2 -67 -3 -130 -10z m340 -89 c138 -6 193 -17 274
-58 l79 -39 -44 -29 c-24 -16 -53 -35 -64 -41 -55 -35 -233 -154 -255 -170
-21 -15 -238 -158 -277 -181 -7 -4 -21 10 -36 35 -14 24 -36 54 -49 68 -13 14
-37 46 -53 72 -48 75 -147 211 -177 243 -34 36 -36 52 -5 53 12 0 58 9 102 20
44 12 114 24 155 28 41 3 77 8 80 11 3 3 50 2 105 -2 55 -4 129 -9 165 -10z
m-578 -276 c7 -16 16 -29 20 -29 5 0 8 -5 8 -11 0 -6 6 -17 13 -24 6 -8 22
-29 35 -47 13 -18 45 -63 73 -100 27 -36 49 -69 49 -71 0 -3 -33 -7 -72 -9
-40 -3 -104 -10 -143 -16 -38 -6 -144 -16 -235 -23 -91 -6 -196 -15 -235 -20
-131 -18 -225 -22 -225 -9 0 23 34 116 56 150 35 58 165 185 225 221 31 19 89
56 130 83 41 27 90 58 109 68 l35 18 72 -76 c40 -42 78 -90 85 -105z m1143 91
c161 -75 275 -171 317 -269 24 -56 25 -61 8 -66 -28 -9 -480 -23 -883 -28
l-198 -2 28 22 c24 20 146 99 216 141 12 7 51 35 87 62 36 27 94 64 130 82 36
18 67 36 68 40 2 5 8 8 12 8 5 0 30 13 56 29 51 33 45 33 159 -19z m349 -418
c8 -14 9 -74 2 -112 -15 -75 -94 -209 -149 -252 -23 -18 -58 -47 -77 -66 -19
-18 -74 -52 -122 -77 -48 -24 -100 -53 -115 -64 -29 -21 -171 -63 -185 -55 -4
3 -5 11 -2 19 3 8 -4 20 -15 27 -12 7 -21 16 -21 20 0 12 -45 74 -94 130 -25
29 -87 105 -138 168 -51 63 -96 117 -100 118 -5 2 -8 7 -8 11 0 4 -18 27 -40
51 -22 24 -38 45 -36 47 2 2 181 7 397 10 217 3 414 9 439 13 24 5 69 7 100 5
30 -2 71 0 90 5 48 11 68 12 74 2z m-1396 -60 c-15 -9 -78 -51 -140 -93 -210
-141 -230 -154 -282 -184 -83 -49 -115 -68 -164 -99 -71 -45 -82 -44 -118 11
-60 92 -96 175 -101 233 l-5 57 63 11 c113 21 280 40 464 52 99 7 194 16 210
20 17 5 46 9 65 9 l35 1 -27 -18z m193 8 c10 -6 19 -16 19 -23 0 -8 14 -26 31
-43 17 -16 50 -54 72 -84 23 -30 50 -64 62 -75 11 -11 34 -38 50 -60 34 -46
51 -67 82 -101 23 -25 108 -150 130 -191 6 -13 8 -25 4 -28 -5 -2 -64 -11
-132 -20 -149 -18 -667 -12 -784 10 -123 24 -164 34 -187 48 -13 8 -45 26 -72
42 l-48 27 24 17 c13 9 31 22 39 28 26 23 156 118 201 146 23 15 93 59 153 97
61 39 121 78 134 88 13 9 58 43 100 74 80 60 90 64 122 48z"/>
</g>
</svg>
