<?xml version="1.0" standalone="no"?>
<!DOCTYPE svg PUBLIC "-//W3C//DTD SVG 20010904//EN"
 "http://www.w3.org/TR/2001/REC-SVG-20010904/DTD/svg10.dtd">
<svg version="1.0" xmlns="http://www.w3.org/2000/svg"
 width="465.000000pt" height="343.000000pt" viewBox="0 0 465.000000 343.000000"
 preserveAspectRatio="xMidYMid meet">
<metadata>
Created by potrace 1.16, written by Peter Selinger 2001-2019
</metadata>
<g transform="translate(0.000000,343.000000) scale(0.100000,-0.100000)"
fill="#000000" stroke="none">
<path d="M1110 3199 c-38 -40 -78 -89 -88 -109 -10 -20 -37 -63 -60 -96 -117
-161 -154 -221 -195 -311 -49 -108 -70 -157 -68 -161 1 -1 -5 -15 -13 -30 -8
-15 -27 -58 -42 -97 -16 -38 -34 -76 -41 -83 -6 -6 -15 -21 -18 -32 -4 -11
-23 -48 -44 -83 -21 -34 -42 -73 -46 -87 -4 -14 -20 -41 -35 -60 -15 -19 -35
-49 -44 -67 -9 -17 -59 -74 -111 -127 -52 -52 -95 -98 -95 -101 0 -4 -21 -31
-48 -59 -31 -34 -54 -73 -67 -112 -20 -58 -20 -62 -4 -169 10 -60 20 -123 24
-140 9 -41 13 -62 20 -120 4 -27 15 -65 25 -82 16 -28 30 -66 47 -133 5 -20
15 -129 14 -158 -1 -13 -4 -29 -8 -35 -17 -26 -29 -96 -20 -112 5 -9 6 -27 3
-41 -8 -30 16 -78 49 -100 14 -9 47 -17 75 -17 28 0 50 -4 50 -7 0 -10 142 -3
149 7 10 15 154 33 217 27 32 -3 68 -5 79 -5 11 0 45 -6 76 -14 31 -8 66 -15
77 -15 12 0 33 -5 49 -11 15 -6 47 -12 70 -14 37 -2 93 -24 194 -75 42 -21 99
-17 174 12 79 30 142 33 211 9 32 -12 61 -26 62 -31 2 -6 13 -10 26 -10 12 0
37 -10 56 -23 19 -13 50 -29 68 -36 17 -8 32 -17 32 -21 0 -4 11 -11 24 -14
14 -3 47 -20 74 -36 26 -17 59 -33 73 -35 57 -11 70 -14 78 -20 6 -3 27 -3 48
1 29 4 55 22 107 70 38 35 70 64 72 64 3 0 28 20 68 55 26 23 76 55 85 55 26
0 119 92 194 192 77 104 157 248 157 282 0 8 14 26 31 40 24 20 34 24 49 16
40 -22 246 -14 292 11 10 6 23 7 28 4 5 -3 20 0 32 7 13 6 31 13 42 15 10 2
33 10 50 18 17 8 53 19 80 25 27 6 54 14 60 18 6 3 16 7 21 9 6 1 35 9 65 18
30 9 61 16 69 17 20 2 94 77 121 123 12 22 25 64 27 95 5 53 27 95 75 143 41
40 90 134 120 225 56 173 127 331 150 332 11 0 78 67 78 78 0 5 12 30 26 55
20 37 26 62 28 129 2 92 -12 133 -50 142 -33 9 -79 51 -102 94 -10 20 -33 63
-51 95 -17 31 -31 68 -31 81 0 32 -24 50 -69 52 -36 1 -59 6 -141 29 -25 7
-81 21 -125 30 -116 24 -169 37 -180 46 -5 4 -28 10 -50 14 -22 4 -73 18 -114
32 -41 14 -87 27 -103 29 -16 2 -35 7 -41 11 -6 4 -25 8 -42 10 -16 2 -50 10
-75 18 -203 66 -320 87 -490 87 -100 0 -150 -4 -219 -18 -61 -12 -97 -11 -211
6 -95 15 -244 50 -254 60 -6 6 -20 10 -33 10 -12 0 -32 4 -45 9 -38 14 -152
51 -173 55 -41 8 -65 19 -65 28 0 5 -8 7 -19 3 -10 -3 -38 1 -62 8 -85 28
-154 46 -196 52 -24 4 -45 10 -47 13 -2 4 -41 8 -86 10 l-81 3 -69 -72z m245
-83 c7 -7 10 -17 7 -23 -8 -11 -69 -28 -89 -24 -7 1 -13 -3 -13 -10 0 -6 -7
-9 -15 -5 -8 3 -15 1 -15 -5 0 -6 -5 -7 -10 -4 -6 4 -8 10 -5 14 5 9 -44 6
-53 -4 -11 -10 -11 -35 0 -35 6 0 6 -5 -1 -14 -10 -11 -10 -20 -1 -36 6 -12 9
-24 6 -28 -8 -7 -36 30 -30 40 3 5 0 8 -5 8 -6 0 -11 8 -10 18 0 10 3 12 6 5
7 -20 19 -15 19 7 0 11 -4 20 -8 20 -17 0 -7 18 13 23 12 3 18 10 15 15 -24
39 153 75 189 38z m32 8 c-3 -3 -12 -4 -19 -1 -8 3 -5 6 6 6 11 1 17 -2 13 -5z
m70 -28 c13 -13 -8 -19 -31 -8 -19 9 -25 8 -30 -4 -3 -8 -10 -14 -16 -14 -14
0 -13 27 3 33 15 6 66 2 74 -7z m189 -47 c4 -8 9 -7 15 2 7 11 9 11 9 1 0 -7
5 -10 11 -6 6 3 15 1 19 -7 5 -7 22 -14 39 -15 42 -3 55 -12 40 -30 -10 -12
-9 -13 5 -8 9 3 16 9 16 13 0 15 50 7 51 -8 0 -10 2 -11 5 -4 3 7 12 9 20 6
13 -5 13 -8 2 -15 -9 -7 -7 -8 9 -5 12 3 24 0 27 -7 2 -6 5 -2 5 9 1 11 5 16
9 10 4 -6 51 -21 105 -35 83 -21 97 -27 94 -42 -3 -11 0 -18 8 -18 8 0 11 -8
8 -20 -3 -11 -14 -20 -24 -20 -11 0 -19 -7 -19 -17 0 -15 2 -16 10 -3 5 8 12
12 15 9 9 -10 -6 -89 -16 -83 -5 3 -9 -2 -9 -10 0 -21 -40 -87 -50 -81 -4 3
-6 -4 -3 -15 7 -25 -22 -28 -31 -4 -8 20 -19 12 -23 -16 -2 -15 1 -18 15 -13
15 6 15 5 3 -10 -7 -9 -16 -15 -20 -13 -4 3 -13 -9 -20 -26 -10 -22 -16 -27
-22 -17 -5 8 -9 9 -9 3 0 -6 -13 -14 -29 -17 -22 -5 -29 -12 -28 -26 1 -15 4
-17 14 -9 7 5 10 14 7 19 -3 5 2 9 11 9 9 0 15 -3 13 -7 -3 -5 -10 -23 -17
-41 -9 -22 -17 -30 -25 -23 -7 6 -16 4 -24 -5 -11 -12 -10 -14 4 -14 13 0 14
-3 4 -15 -7 -8 -9 -15 -4 -16 5 0 -1 -4 -14 -9 -17 -7 -22 -16 -20 -37 2 -19
-2 -28 -13 -31 -19 -4 -33 26 -20 42 6 7 5 18 -4 29 -13 18 -13 18 -17 0 -2
-10 -1 -30 3 -45 4 -16 4 -28 -2 -28 -5 0 -9 7 -9 17 0 9 -3 14 -6 10 -8 -7
-33 16 -28 25 2 4 0 10 -6 13 -6 4 -10 3 -9 -2 4 -22 -3 -32 -18 -27 -17 5
-17 5 0 -6 9 -6 17 -18 17 -25 0 -15 7 -18 41 -18 9 0 16 -5 16 -11 0 -6 4
-19 8 -28 4 -11 3 -18 -4 -18 -6 0 -11 6 -11 13 0 8 -4 7 -11 -3 -8 -11 -12
-12 -16 -2 -2 6 -13 12 -23 12 -10 0 -28 9 -41 20 -17 14 -19 18 -6 14 9 -3
17 -1 17 5 0 6 -7 11 -15 11 -8 0 -15 4 -15 10 0 5 8 6 17 3 15 -6 16 -5 3 9
-10 10 -17 12 -22 5 -4 -6 -12 -4 -23 7 -10 9 -20 15 -23 12 -3 -3 5 -15 18
-26 13 -11 21 -22 18 -25 -8 -9 -60 14 -54 24 3 4 -2 8 -12 8 -27 -1 -102 34
-96 45 3 5 0 9 -7 7 -34 -4 -60 2 -53 12 4 8 0 9 -15 4 -14 -4 -21 -2 -21 7 0
10 -3 9 -10 -2 -9 -13 -10 -13 -10 0 0 10 -3 11 -8 4 -4 -6 -16 -9 -27 -7 -11
2 -31 5 -45 7 -14 3 -41 7 -60 11 -45 9 -389 12 -384 4 2 -4 -3 -9 -11 -13
-17 -6 -30 10 -15 19 5 3 10 15 10 26 0 11 7 19 16 19 8 0 13 4 9 9 -3 6 8 34
24 64 16 30 28 57 25 59 -2 3 7 17 21 32 13 14 24 27 24 29 -2 9 18 44 30 55
9 8 10 11 3 7 -8 -4 -7 5 4 29 10 19 21 33 26 30 4 -3 8 0 8 6 0 7 7 4 16 -5
9 -9 19 -14 22 -11 2 3 -5 13 -16 23 -21 18 -21 18 -2 53 11 19 19 29 20 23 0
-23 17 -14 17 10 1 39 3 43 23 43 11 0 23 -9 26 -19 4 -12 12 -16 24 -12 10 3
21 1 25 -5 3 -5 -1 -10 -9 -10 -9 0 -16 -4 -16 -10 0 -5 -5 -10 -11 -10 -5 0
-8 4 -5 9 3 4 -4 17 -15 27 -18 16 -19 16 -13 1 3 -9 11 -17 18 -17 7 0 7 -3
1 -8 -5 -4 -11 -12 -12 -18 -3 -14 38 -6 48 8 3 5 18 6 33 2 23 -5 26 -11 22
-30 -4 -13 -1 -26 6 -30 8 -5 9 -2 5 9 -4 10 -1 17 5 17 6 0 8 3 5 6 -3 4 -2
14 3 23 5 10 5 23 -1 32 -6 10 -9 10 -9 2 0 -7 -8 -13 -18 -13 -12 0 -18 9
-20 27 -1 15 -7 30 -14 34 -7 4 -2 9 13 11 13 2 23 9 22 15 -2 7 7 18 19 24
18 10 20 9 15 -5 -7 -19 18 -23 29 -4 4 7 3 8 -4 4 -7 -4 -12 -2 -12 3 0 19
48 12 53 -6 3 -13 5 -12 6 5 1 13 5 20 11 17 6 -4 17 -3 23 2 7 4 5 1 -5 -9
-25 -23 -22 -32 4 -14 30 21 38 20 38 -4 0 -17 3 -18 19 -8 10 6 17 18 14 25
-6 14 9 18 21 6 4 -5 12 -9 17 -9 5 -1 13 -2 19 -3 5 0 7 -7 4 -15 -3 -8 -1
-17 5 -21 11 -6 15 7 11 35 -2 18 3 13 20 -19 10 -19 9 -22 -1 -16 -7 5 -10 4
-5 -3 3 -6 -3 -14 -15 -17 -11 -4 -18 -9 -16 -11 10 -10 57 21 57 37 0 13 5
17 18 13 13 -5 14 -4 3 4 -8 5 -10 15 -6 22 5 8 12 2 22 -20 l13 -33 25 23
c25 24 47 21 27 -3 -7 -8 -7 -18 -2 -27 8 -12 10 -12 10 4 0 33 15 5 19 -36 1
-5 6 -8 12 -8 6 0 7 5 2 13 -21 33 -10 62 18 47 14 -8 19 -7 19 2 0 9 3 9 10
-2 5 -8 10 -10 10 -5 0 6 5 3 11 -5 8 -12 10 -11 7 5 -3 15 -10 19 -31 18 -16
-1 -25 2 -22 7 8 14 -8 13 -22 -1 -8 -8 -13 -8 -17 0 -4 6 -2 11 4 11 6 0 9 4
5 10 -3 5 -12 7 -19 4 -7 -3 -19 2 -26 11 -8 9 -8 15 -2 15 6 0 14 -5 18 -11z
m-456 -36 c-11 -17 -11 -17 -6 0 3 10 0 17 -7 17 -7 0 -6 4 3 10 19 12 25 -3
10 -27z m220 27 c0 -5 -2 -10 -4 -10 -3 0 -8 5 -11 10 -3 6 -1 10 4 10 6 0 11
-4 11 -10z m130 -12 c0 -12 -3 -18 -7 -14 -11 10 -12 36 -2 36 5 0 9 -10 9
-22z m1355 -126 c28 -5 86 -22 129 -36 44 -14 81 -24 84 -21 3 3 11 0 19 -6 7
-6 13 -8 13 -4 0 4 6 2 14 -4 8 -7 29 -14 47 -16 17 -3 34 -6 36 -9 2 -2 -1
-24 -8 -47 -6 -24 -14 -38 -16 -31 -8 20 -19 14 -21 -14 -1 -14 2 -23 8 -19
13 8 4 -60 -15 -114 -18 -53 -52 -101 -71 -101 -8 0 -13 -6 -12 -12 2 -7 -5
-12 -14 -12 -9 1 -14 -4 -12 -11 3 -7 -10 -37 -28 -66 -32 -53 -49 -91 -69
-156 -6 -18 -14 -33 -18 -33 -5 0 -6 -10 -4 -23 3 -13 -6 -37 -20 -58 -13 -19
-27 -49 -31 -65 -3 -16 -8 -36 -10 -44 -3 -8 -5 -18 -5 -22 -2 -14 -31 -9 -31
5 0 7 -20 17 -44 23 -28 6 -43 6 -39 0 4 -6 -1 -6 -13 -1 -10 4 -48 10 -84 12
-72 4 -121 8 -195 17 -27 3 -70 8 -95 11 -25 2 -54 7 -65 9 -11 2 -27 5 -37 5
-11 1 -15 7 -11 24 4 19 3 20 -7 5 -16 -25 -80 -24 -108 2 -12 12 -22 16 -22
11 0 -6 -12 -6 -32 0 -18 6 -44 12 -58 15 -14 3 -29 10 -35 17 -5 7 -14 12
-20 13 -22 1 -69 27 -57 31 6 3 12 9 12 14 0 6 -9 5 -21 -2 -15 -8 -24 -8 -32
0 -8 8 -8 11 1 11 7 0 11 4 9 8 -1 4 13 22 31 40 18 18 29 32 26 32 -4 0 3 11
16 25 13 14 29 25 36 25 8 0 11 6 8 13 -5 15 36 67 53 67 6 0 10 6 10 13 -2
19 47 117 58 117 6 0 11 8 12 18 2 27 27 92 35 92 5 0 8 7 8 15 0 8 3 15 8 15
4 0 8 10 9 23 4 47 16 87 29 98 8 6 14 20 14 31 0 23 27 35 43 19 8 -8 5 -11
-11 -11 -12 0 -22 -4 -22 -9 0 -5 11 -8 25 -6 14 1 25 -2 25 -8 0 -6 2 -8 5
-6 10 10 -8 49 -25 54 -10 3 -20 12 -23 19 -4 10 8 13 51 11 32 -1 102 4 157
10 110 14 331 12 410 -3z m540 -152 c7 -5 15 -7 18 -4 3 3 12 2 19 -2 7 -5 22
-10 33 -10 11 -1 45 -10 75 -19 30 -9 70 -18 88 -20 39 -5 54 -13 47 -26 -3
-5 1 -6 10 -2 10 3 21 0 26 -8 14 -22 11 -26 -17 -26 -14 0 -31 -6 -37 -12 -8
-8 -8 -11 0 -11 6 0 19 -3 27 -6 13 -5 15 -2 9 12 -6 18 -6 18 15 1 32 -29 25
-57 -15 -57 -34 0 -44 -14 -18 -24 8 -3 15 -1 15 4 0 6 5 10 11 10 5 0 8 -3 6
-7 -3 -5 19 -8 48 -9 30 0 60 -6 68 -12 8 -7 17 -9 20 -5 4 3 7 1 7 -6 0 -7 5
-9 10 -6 13 8 13 4 -6 -69 -8 -33 -24 -76 -35 -94 -10 -18 -19 -46 -19 -61 0
-16 -12 -41 -30 -61 -16 -18 -32 -42 -36 -52 -3 -10 -10 -18 -15 -18 -5 0 -9
-6 -9 -14 0 -8 -8 -21 -19 -28 -18 -13 -20 -17 -22 -40 0 -7 -4 -4 -9 7 -9 20
-14 8 -11 -26 1 -8 -15 -49 -36 -90 -21 -41 -47 -96 -58 -121 -18 -41 -42 -63
-68 -59 -4 1 -5 -10 -3 -24 6 -31 -24 -41 -75 -27 l-34 10 43 1 c30 1 42 5 42
16 0 13 -3 13 -21 3 -17 -10 -23 -10 -26 -1 -3 10 -9 10 -26 0 -12 -7 -25 -16
-28 -20 -3 -5 -24 -4 -45 2 -54 14 -93 22 -131 25 -36 3 -114 35 -125 51 -4 5
-8 6 -8 1 0 -5 -11 1 -25 14 -13 12 -22 27 -19 31 3 5 -3 6 -12 2 -11 -4 -15
-3 -11 4 5 7 0 9 -12 6 -28 -7 -32 28 -12 95 24 79 58 142 77 142 8 0 13 -4 9
-9 -3 -5 -1 -12 5 -16 5 -3 10 3 10 14 0 10 -5 21 -11 23 -16 5 -1 48 17 48 8
0 13 3 13 8 -4 22 4 43 34 90 19 28 37 49 40 45 4 -3 7 2 8 13 0 10 3 13 6 7
2 -7 11 -13 20 -13 13 0 13 2 0 15 -13 12 -12 20 6 57 12 24 28 48 37 55 9 7
10 12 3 13 -7 0 -4 18 10 53 12 28 24 54 27 57 3 3 6 16 6 30 1 24 8 71 20
137 6 32 8 33 47 28 22 -3 46 -10 52 -15z m374 -96 c26 -6 29 -8 16 -18 -24
-18 -27 -53 -4 -59 10 -3 19 -11 18 -19 0 -10 -2 -10 -6 -1 -3 9 -10 10 -24 2
-11 -5 -19 -6 -18 -2 1 4 -1 16 -6 27 -5 11 -3 21 5 26 9 5 6 13 -11 29 -24
22 -20 25 30 15z m72 -44 c6 0 8 4 4 9 -10 18 15 22 42 7 16 -8 21 -15 13 -16
-11 0 -12 -2 -3 -8 10 -6 10 -15 1 -40 -16 -40 -32 -42 -23 -2 4 20 3 30 -5
30 -6 0 -9 -4 -5 -9 3 -5 1 -12 -5 -16 -5 -3 -10 3 -10 14 0 14 -6 21 -19 21
-10 0 -21 6 -24 14 -8 20 5 30 15 11 5 -8 14 -15 19 -15z m210 -195 c8 -16 25
-35 39 -42 43 -22 106 -82 94 -90 -6 -5 -11 -24 -11 -44 0 -33 -12 -57 -53
-106 -5 -7 -10 -15 -10 -19 0 -4 -22 -37 -48 -73 -26 -36 -55 -79 -63 -96 -43
-84 -49 -98 -49 -115 0 -35 -39 -118 -95 -204 -30 -47 -55 -89 -55 -95 0 -16
-41 -81 -51 -81 -5 0 -9 -8 -9 -19 0 -10 -7 -24 -15 -31 -13 -11 -15 -5 -15
49 0 33 -4 61 -10 61 -5 0 -14 18 -20 40 -6 22 -15 40 -21 40 -6 0 -6 8 1 21
9 16 8 28 -5 56 -22 46 -14 96 24 160 16 26 54 89 84 140 30 50 58 101 62 112
3 12 11 21 16 21 5 0 9 5 9 11 0 5 12 35 26 64 14 30 27 67 30 82 3 16 9 30
15 31 5 2 9 12 9 21 0 10 16 48 35 85 19 37 35 74 35 83 0 19 30 -17 51 -62z
m-2336 -77 c6 -4 2 -8 -7 -8 -10 0 -18 7 -18 17 0 9 3 12 8 7 4 -5 12 -12 17
-16z m-555 -37 c0 7 10 9 28 5 15 -3 38 -9 52 -11 42 -9 80 -27 80 -38 0 -6 6
-3 14 8 12 17 14 16 20 -11 7 -26 9 -27 20 -11 7 9 22 17 33 17 25 0 75 -25
67 -33 -3 -3 3 -3 14 0 22 5 150 -41 167 -60 6 -7 17 -13 25 -15 21 -5 38 -22
21 -22 -7 0 -9 -5 -6 -10 4 -6 -1 -42 -10 -82 -9 -39 -14 -73 -11 -75 2 -2 0
-18 -4 -34 -5 -18 -5 -27 1 -24 5 4 9 1 9 -4 0 -6 -6 -11 -12 -12 -10 0 -10
-2 0 -6 18 -7 15 -40 -5 -52 -12 -7 -13 -10 -4 -11 8 0 11 -6 6 -17 -4 -10 -8
-22 -10 -28 -13 -44 -18 -55 -26 -55 -5 0 -8 -6 -7 -12 2 -7 -3 -12 -10 -10
-6 1 -11 -1 -11 -5 3 -21 -2 -33 -16 -33 -8 0 -12 -6 -9 -13 2 -7 -4 -22 -16
-32 -11 -10 -20 -22 -20 -26 0 -5 -10 -23 -23 -42 -22 -32 -43 -37 -58 -14 -4
5 -6 -3 -6 -17 0 -14 4 -26 9 -26 5 0 6 5 3 10 -3 6 -1 10 4 10 19 0 12 -22
-9 -27 -11 -3 -18 -9 -15 -13 3 -4 -2 -13 -10 -20 -7 -6 -12 -17 -9 -24 3 -7
-4 -21 -16 -31 -11 -10 -20 -24 -20 -31 0 -23 -49 -49 -69 -37 -9 6 -25 7 -39
2 -13 -5 -22 -4 -22 1 0 6 -11 10 -24 10 -49 0 -256 56 -256 69 0 4 -14 12
-31 17 -32 9 -32 10 -41 91 -1 7 -5 10 -10 7 -5 -4 -7 -12 -4 -19 3 -8 0 -16
-7 -19 -7 -2 -6 -5 4 -5 22 -1 20 -31 -3 -31 -10 0 -18 4 -18 10 0 5 -7 6 -17
3 -12 -5 -14 -3 -8 8 8 12 6 12 -8 0 -11 -9 -17 -10 -17 -2 0 6 -6 11 -12 11
-7 0 -20 4 -28 10 -12 7 -12 12 4 29 19 21 11 29 -19 21 -5 -2 -19 -2 -30 -2
-19 1 -19 0 -2 -13 13 -9 15 -15 7 -20 -7 -4 -17 -2 -23 4 -15 15 -40 14 -31
-1 6 -10 4 -10 -7 -3 -8 6 -27 12 -44 13 -46 4 -85 23 -86 41 -1 14 -2 14 -6
0 -4 -18 -78 -18 -113 1 -11 6 -29 8 -39 5 -33 -10 -131 -13 -137 -3 -3 5 8
22 25 37 17 15 31 31 31 36 0 5 12 20 28 34 15 14 34 38 41 54 8 15 18 27 23
27 4 0 8 9 8 21 0 11 4 18 9 15 5 -3 16 10 25 29 9 19 21 35 26 35 4 0 6 8 3
19 -3 11 6 29 21 46 14 15 30 42 36 61 6 19 16 34 21 34 5 0 9 7 9 15 0 8 5
15 11 15 6 0 9 7 5 15 -3 8 0 15 7 15 7 0 13 9 14 21 2 27 31 71 43 64 4 -3 6
4 3 14 -3 12 3 26 16 37 12 10 21 22 21 26 0 3 5 19 10 33 l10 26 30 -21 c31
-22 34 -22 24 4 -3 8 -11 13 -19 10 -7 -3 -15 2 -18 10 -8 21 17 21 37 0 15
-14 21 -35 17 -57 -1 -5 3 -6 8 -3 5 3 7 16 5 29 -2 12 -2 16 2 10 9 -19 28
-16 42 7 7 11 21 20 32 20 16 0 20 -7 21 -32 0 -18 3 -27 6 -20 2 6 8 10 12 8
4 -3 7 4 7 15 0 10 -4 19 -8 19 -4 0 -8 4 -8 8 0 5 36 9 80 11 48 1 80 -2 80
-8 0 -6 13 -4 33 4 27 12 35 12 55 -1 14 -10 22 -11 22 -3z m780 -289 c19 -2
41 -11 49 -19 10 -10 16 -11 21 -3 11 18 114 -10 123 -34 3 -6 21 -11 41 -10
25 1 36 -2 36 -12 0 -8 -4 -14 -10 -14 -5 0 -2 -8 8 -18 16 -18 17 -18 26 1 7
13 6 21 -5 28 -12 7 -12 9 1 10 8 1 19 1 24 0 42 -8 146 -8 146 0 0 5 10 4 23
-3 12 -7 25 -11 30 -10 4 1 7 -1 7 -6 0 -4 34 -8 76 -8 43 -1 79 -6 83 -12 4
-6 22 -13 41 -15 48 -6 70 -16 70 -34 0 -8 -4 -11 -10 -8 -5 3 -10 2 -10 -4 0
-5 6 -12 13 -14 9 -4 9 -6 0 -6 -6 -1 -15 4 -18 9 -3 6 -16 9 -28 9 -17 -1
-18 -2 -4 -6 18 -5 22 -15 10 -26 -3 -4 -13 -1 -21 6 -13 10 -14 9 -8 -9 4
-13 1 -26 -8 -33 -15 -13 -11 -41 6 -41 5 0 7 4 3 9 -3 5 -1 12 5 16 5 3 10 1
10 -5 0 -6 5 -8 11 -4 8 5 8 9 -1 14 -7 4 -9 13 -6 19 4 6 12 8 18 5 6 -4 8
-2 4 4 -3 6 -2 13 4 17 5 3 10 4 10 1 0 -2 3 -11 6 -20 4 -10 1 -16 -9 -16
-11 0 -14 -8 -10 -31 4 -28 3 -30 -19 -24 -14 4 -18 3 -11 -2 19 -13 5 -53
-15 -45 -14 5 -15 3 -5 -9 10 -13 10 -21 0 -42 -6 -15 -18 -27 -25 -27 -7 0
-11 -4 -8 -9 3 -4 -6 -19 -19 -31 -14 -13 -25 -31 -25 -41 0 -9 -7 -22 -15
-29 -8 -7 -15 -19 -15 -27 0 -7 -7 -16 -15 -19 -8 -4 -13 -9 -11 -13 9 -13
-24 -72 -35 -65 -7 4 -9 3 -6 -4 8 -12 -1 -42 -13 -42 -4 0 -12 10 -19 23 -10
20 -11 19 -7 -13 3 -23 -3 -47 -16 -70 -10 -19 -17 -28 -14 -19 2 9 -1 22 -7
29 -9 10 -8 12 6 7 20 -7 21 -3 7 24 -8 13 -7 19 0 19 6 0 9 12 7 28 -3 20 -9
27 -25 26 -17 0 -19 2 -10 13 9 11 6 12 -16 3 -15 -5 -38 -10 -52 -10 -26 0
-31 -9 -12 -28 16 -16 28 -15 28 3 0 19 5 19 37 -2 18 -12 24 -13 19 -4 -6 9
-5 12 4 9 24 -8 23 -28 -2 -37 -18 -8 -19 -10 -5 -10 15 -1 16 -5 7 -21 -6
-11 -8 -20 -5 -20 3 0 1 -9 -5 -20 -7 -14 -7 -20 0 -20 5 0 10 -4 10 -8 0 -5
-16 -8 -35 -8 -38 1 -49 15 -12 17 17 1 16 3 -8 8 -20 5 -36 3 -46 -6 -9 -7
-19 -10 -23 -6 -4 5 -13 1 -19 -7 -17 -21 -48 -22 -64 -2 -12 16 -13 16 -7 0
8 -25 -36 -45 -62 -28 -18 11 -18 11 1 5 15 -5 17 -3 8 6 -13 13 -47 4 -38
-10 3 -5 1 -12 -5 -16 -5 -3 -10 0 -10 7 0 9 -3 9 -10 -2 -5 -8 -10 -11 -10
-6 0 19 34 46 58 46 l25 0 -27 21 c-30 23 -36 22 -39 -10 -1 -19 -26 -40 -28
-23 -2 23 -8 45 -14 50 -3 4 -4 -5 -1 -20 3 -20 1 -25 -10 -21 -8 3 -11 9 -8
14 3 5 -1 9 -8 9 -8 0 -21 9 -31 20 -9 11 -22 20 -29 20 -6 0 -4 -6 6 -13 11
-8 16 -20 13 -28 -4 -10 -6 -10 -6 3 -1 11 -6 15 -16 12 -8 -4 -12 -10 -9 -15
3 -5 -2 -6 -10 -3 -11 4 -14 14 -10 29 4 15 0 24 -10 28 -9 4 -16 2 -16 -4 0
-6 -7 -17 -15 -25 -19 -20 -19 -38 -1 -31 10 4 13 1 9 -9 -4 -11 -14 -13 -42
-8 -46 8 -48 10 -33 37 l13 22 -19 -22 c-15 -17 -29 -21 -58 -20 -20 2 -39 8
-42 15 -2 7 -8 10 -13 6 -5 -3 -33 2 -62 12 -28 10 -63 18 -77 18 -28 1 -50
13 -50 27 0 6 8 5 21 -1 25 -14 35 -8 15 9 -13 11 -12 16 2 42 9 16 24 29 32
29 13 -1 13 -2 -1 -13 -10 -8 -13 -21 -9 -36 l6 -25 21 27 c12 15 24 24 27 19
6 -11 54 -4 62 9 4 8 -17 12 -42 8 -4 0 -11 5 -15 13 -7 10 -9 10 -9 1 0 -7
-5 -13 -11 -13 -13 0 -1 42 15 52 7 5 7 8 -2 8 -8 0 -16 -9 -19 -20 -3 -11
-12 -20 -20 -20 -12 0 -11 7 6 33 15 23 27 31 43 29 14 -1 18 1 11 6 -18 11
15 75 35 67 9 -3 12 0 9 9 -3 8 -3 17 1 21 7 6 8 10 11 36 0 5 5 8 10 5 5 -3
18 12 29 34 18 36 21 38 38 25 18 -15 18 -15 -1 -8 -18 6 -18 5 -6 -10 11 -15
10 -18 -13 -27 -31 -11 -33 -16 -6 -16 11 0 20 4 20 9 0 5 7 4 15 -3 9 -7 18
-10 22 -6 3 3 2 6 -3 6 -12 0 -16 38 -5 44 5 3 17 -2 27 -10 10 -9 13 -13 7
-9 -8 4 -13 0 -13 -9 0 -9 8 -16 18 -16 11 0 17 8 17 24 0 13 -2 22 -4 20 -3
-3 -11 6 -19 18 -7 13 -11 15 -8 6 3 -10 1 -18 -4 -18 -6 0 -10 4 -10 10 0 5
-6 7 -13 4 -8 -3 -19 2 -26 10 -10 11 -7 25 13 66 14 28 28 72 32 96 3 24 10
47 15 49 4 3 6 12 3 19 -3 8 -1 30 4 50 8 26 7 36 -1 37 -7 0 -3 4 8 9 11 5
14 9 7 9 -10 1 -10 4 0 15 10 10 20 11 43 3 16 -5 46 -12 65 -15z m1580 -252
c0 -5 -2 -10 -4 -10 -3 0 -8 5 -11 10 -3 6 -1 10 4 10 6 0 11 -4 11 -10z
m-526 -45 c15 -8 37 -15 47 -15 11 0 31 -7 44 -16 14 -9 25 -13 25 -10 0 4 10
0 23 -8 19 -13 49 -21 107 -29 8 -2 21 -7 29 -12 8 -4 67 -12 130 -16 64 -4
117 -8 118 -8 1 -1 21 -34 45 -73 42 -72 42 -74 45 -178 3 -122 -1 -150 -24
-150 -9 0 -39 -11 -67 -24 -93 -44 -121 -57 -146 -71 -14 -7 -36 -16 -50 -18
-14 -2 -38 -10 -55 -18 -32 -15 -200 -19 -267 -6 l-36 8 5 52 c8 67 8 317 1
382 -9 81 -29 209 -34 217 -8 13 29 9 60 -7z m-153 -195 c1 -46 -10 -146 -21
-190 -5 -20 -9 -49 -9 -65 1 -17 -2 -81 -5 -142 -5 -99 -9 -118 -32 -155 -15
-23 -38 -66 -50 -95 -13 -29 -27 -53 -32 -53 -4 0 -8 -10 -9 -21 -2 -25 -52
-81 -65 -73 -4 3 -8 -1 -8 -8 0 -7 -14 -22 -30 -33 -16 -11 -30 -23 -30 -27 0
-5 -6 -8 -14 -8 -7 0 -35 -21 -62 -46 -27 -25 -62 -55 -79 -67 -16 -12 -47
-40 -68 -64 -40 -44 -66 -58 -48 -25 5 10 11 29 13 43 2 13 6 29 10 35 4 5 10
35 14 65 4 30 10 59 14 64 4 6 12 37 18 70 7 33 17 87 23 120 7 33 13 79 14
102 0 23 9 50 18 61 9 10 37 58 62 108 26 49 56 100 69 114 12 14 33 46 47 73
13 26 27 47 31 47 4 0 15 14 24 32 9 17 21 37 28 45 6 7 16 19 21 26 6 7 17
26 25 42 8 17 19 37 26 45 6 8 14 28 18 44 4 16 19 50 34 75 l26 44 13 -74 c7
-41 13 -90 14 -109z m-2406 -85 c55 -3 114 -8 130 -11 17 -3 50 -8 74 -10 25
-3 49 -8 55 -13 6 -4 25 -11 41 -15 17 -4 46 -14 65 -23 19 -8 50 -21 68 -29
18 -8 42 -14 52 -14 11 0 20 -4 20 -9 0 -7 37 -21 70 -26 3 0 10 -3 16 -7 6
-4 21 -9 35 -12 13 -3 40 -10 59 -16 19 -6 66 -17 104 -24 l68 -12 -25 -29
c-13 -17 -34 -55 -47 -85 -12 -30 -29 -68 -37 -83 -19 -35 -25 -198 -11 -277
14 -77 17 -97 24 -164 6 -55 5 -58 -12 -51 -11 4 -35 12 -54 17 -19 6 -39 12
-44 15 -4 3 -33 7 -62 9 -30 1 -89 12 -131 24 -78 21 -152 28 -172 15 -7 -4
-17 -2 -24 4 -9 7 -36 7 -86 0 -40 -6 -76 -8 -79 -5 -3 3 -10 2 -16 -3 -6 -5
-29 -12 -51 -15 -22 -3 -59 -8 -82 -12 -23 -4 -50 -3 -60 1 -10 5 -24 9 -32 9
-30 2 -35 32 -14 84 19 44 20 64 16 173 -3 68 -9 131 -13 139 -4 8 -11 41 -14
73 -4 31 -16 88 -27 125 -11 37 -23 80 -26 96 -2 16 -9 40 -14 53 -13 34 -11
69 4 85 7 7 16 20 19 29 5 13 15 14 60 8 29 -5 98 -11 153 -14z m1459 -180
c-4 -8 -11 -15 -16 -15 -6 0 -5 6 2 15 7 8 14 15 16 15 2 0 1 -7 -2 -15z m201
-25 c3 -5 1 -10 -4 -10 -6 0 -11 5 -11 10 0 6 2 10 4 10 3 0 8 -4 11 -10z
m-195 -20 c0 -5 -5 -10 -11 -10 -5 0 -7 5 -4 10 3 6 8 10 11 10 2 0 4 -4 4
-10z m382 -21 c-12 -5 -22 -11 -22 -14 0 -4 6 -3 13 1 8 5 8 3 -2 -9 -7 -9
-17 -14 -22 -11 -5 3 -9 -5 -9 -17 0 -26 -7 -23 -12 6 -1 11 -7 24 -13 28 -5
5 0 6 11 2 16 -4 23 0 27 14 4 15 10 18 28 14 l23 -6 -22 -8z m-732 -30 c36
-5 72 -12 80 -15 8 -4 29 -9 45 -11 31 -3 130 -23 250 -50 71 -16 194 -68 207
-86 3 -6 23 -10 45 -10 60 0 67 -14 80 -145 3 -36 0 -68 -11 -96 -9 -23 -23
-71 -30 -107 -8 -35 -22 -91 -31 -124 -10 -33 -20 -73 -22 -90 -3 -16 -10 -35
-15 -42 -5 -7 -10 -33 -10 -58 0 -38 -3 -45 -20 -45 -11 0 -32 6 -46 14 -15 8
-52 24 -82 36 -30 12 -74 38 -97 56 -23 19 -48 34 -56 34 -7 0 -32 17 -54 39
-34 32 -51 40 -100 46 -32 5 -66 7 -76 6 -10 -1 -24 2 -30 7 -8 6 -37 6 -81 0
-37 -5 -70 -7 -73 -5 -2 3 3 27 12 54 44 127 57 198 56 298 -1 55 -3 109 -5
120 -14 68 -27 117 -37 139 -15 32 -5 61 19 51 9 -4 46 -12 82 -16z m808 -13
c2 -16 -1 -26 -6 -22 -5 3 -12 -7 -15 -23 -5 -23 -10 -28 -30 -24 -24 5 -53
40 -42 51 4 4 12 -1 20 -11 12 -16 13 -16 19 5 3 13 1 25 -4 26 -6 2 -10 8
-10 13 0 6 5 7 10 4 6 -3 10 -1 10 5 0 6 10 10 23 8 16 -2 23 -11 25 -32z
m-155 4 c3 -11 2 -20 -3 -20 -4 0 -10 9 -13 20 -3 11 -2 20 3 20 4 0 10 -9 13
-20z m-38 0 c13 -5 14 -9 5 -9 -8 0 -24 4 -35 9 -13 5 -14 9 -5 9 8 0 24 -4
35 -9z m-800 -228 c-1 -59 -4 -123 -8 -142 -5 -19 -12 -53 -17 -75 -5 -22 -10
-57 -10 -77 0 -55 -18 -55 -25 -1 -3 27 -11 67 -17 90 -6 23 -8 84 -6 135 4
76 9 103 32 147 39 76 51 58 51 -77z"/>
<path d="M1330 3105 c0 -8 4 -15 10 -15 5 0 7 7 4 15 -4 8 -8 15 -10 15 -2 0
-4 -7 -4 -15z"/>
<path d="M1253 3095 c0 -7 6 -12 13 -11 23 3 26 13 6 18 -11 3 -19 0 -19 -7z"/>
<path d="M1277 2990 c-21 -24 -21 -27 -3 -27 8 0 16 11 19 24 5 28 6 28 -16 3z"/>
<path d="M1427 2983 c-10 -10 -8 -33 2 -33 6 0 9 9 8 20 -1 23 -1 22 -10 13z"/>
<path d="M1453 2972 c0 -12 5 -22 9 -22 11 0 10 12 -2 30 -7 12 -9 10 -7 -8z"/>
<path d="M1556 2967 c3 -10 9 -15 12 -12 3 3 0 11 -7 18 -10 9 -11 8 -5 -6z"/>
<path d="M1310 2960 c0 -5 5 -10 11 -10 5 0 7 5 4 10 -3 6 -8 10 -11 10 -2 0
-4 -4 -4 -10z"/>
<path d="M1390 2956 c0 -8 -5 -16 -11 -18 -7 -2 -4 -10 7 -18 12 -10 15 -11
10 -2 -4 7 -3 19 4 27 7 9 8 15 0 20 -5 3 -10 0 -10 -9z"/>
<path d="M1605 2961 c-6 -11 13 -26 22 -17 4 3 1 6 -6 6 -7 0 -9 5 -6 10 3 6
4 10 1 10 -3 0 -7 -4 -11 -9z"/>
<path d="M1910 2940 c0 -5 5 -10 10 -10 6 0 10 5 10 10 0 6 -4 10 -10 10 -5 0
-10 -4 -10 -10z"/>
<path d="M1285 2930 c-19 -8 -19 -9 2 -9 12 -1 25 4 28 9 7 12 -2 12 -30 0z"/>
<path d="M1330 2932 c0 -5 7 -9 15 -9 8 0 15 4 15 9 0 4 -7 8 -15 8 -8 0 -15
-4 -15 -8z"/>
<path d="M1721 2924 c0 -11 3 -14 6 -6 3 7 2 16 -1 19 -3 4 -6 -2 -5 -13z"/>
<path d="M1507 2923 c-10 -9 -9 -23 1 -23 5 0 9 7 9 15 0 17 -1 18 -10 8z"/>
<path d="M1841 2914 c0 -11 3 -14 6 -6 3 7 2 16 -1 19 -3 4 -6 -2 -5 -13z"/>
<path d="M1873 2923 c4 -3 2 -12 -5 -20 -8 -11 -7 -12 6 -7 18 7 22 34 4 34
-6 0 -8 -3 -5 -7z"/>
<path d="M1645 2910 c-3 -5 -1 -10 4 -10 6 0 11 5 11 10 0 6 -2 10 -4 10 -3 0
-8 -4 -11 -10z"/>
<path d="M1756 2913 c-3 -3 -3 -10 0 -14 7 -12 34 -11 34 0 0 11 -26 22 -34
14z"/>
<path d="M1801 2910 c-1 -26 22 -48 44 -40 17 6 17 7 -7 13 -15 4 -29 15 -31
25 -3 12 -5 13 -6 2z"/>
<path d="M1965 2910 c3 -5 10 -10 16 -10 5 0 9 5 9 10 0 6 -7 10 -16 10 -8 0
-12 -4 -9 -10z"/>
<path d="M2040 2913 c0 -5 11 -8 25 -8 14 0 25 3 25 8 0 4 -11 7 -25 7 -14 0
-25 -3 -25 -7z"/>
<path d="M1527 2897 c-3 -8 -1 -20 4 -28 6 -10 9 -7 9 14 0 29 -5 35 -13 14z"/>
<path d="M1577 2879 c7 -7 15 -10 18 -7 3 3 -2 9 -12 12 -14 6 -15 5 -6 -5z"/>
<path d="M1975 2879 c-4 -6 -5 -12 -2 -15 2 -3 7 2 10 11 7 17 1 20 -8 4z"/>
<path d="M1184 2865 c-4 -10 -13 -13 -25 -10 -11 4 -19 2 -19 -5 0 -7 -7 -10
-15 -6 -8 3 -15 0 -15 -6 0 -6 11 -8 31 -4 17 3 38 6 46 6 8 0 11 5 7 11 -3 6
0 15 7 20 11 7 11 9 1 9 -7 0 -15 -7 -18 -15z"/>
<path d="M1764 2868 c-5 -8 -2 -9 10 -5 14 6 17 3 12 -8 -3 -9 -2 -13 4 -10 6
3 10 13 10 21 0 17 -26 19 -36 2z"/>
<path d="M2027 2862 c-39 -11 -56 -20 -53 -29 3 -8 -2 -13 -14 -13 -11 0 -20
-4 -20 -10 0 -6 10 -6 27 1 25 9 67 7 111 -8 15 -4 15 -3 2 6 -8 6 -10 11 -5
11 6 0 10 14 10 30 0 17 0 30 0 29 0 0 -26 -8 -58 -17z m13 -22 c0 -5 -7 -10
-16 -10 -8 0 -12 5 -9 10 3 6 10 10 16 10 5 0 9 -4 9 -10z"/>
<path d="M1244 2843 c-4 -16 -14 -34 -23 -41 -14 -11 -13 -12 6 -3 28 14 54
15 33 1 -13 -8 -13 -10 1 -10 9 0 19 -9 22 -20 6 -23 37 -27 37 -5 0 8 -4 14
-9 13 -17 -5 -56 47 -53 70 5 31 -6 27 -14 -5z"/>
<path d="M1380 2860 c0 -5 5 -10 10 -10 6 0 10 5 10 10 0 6 -4 10 -10 10 -5 0
-10 -4 -10 -10z"/>
<path d="M1698 2845 c3 -17 0 -25 -9 -26 -8 -1 -3 -4 11 -8 14 -5 33 -4 43 1
12 6 22 4 33 -7 14 -13 34 -13 34 1 0 3 -4 3 -9 0 -5 -3 -14 1 -21 9 -7 8 -24
13 -41 11 -25 -3 -29 0 -29 20 0 13 -4 24 -9 24 -4 0 -6 -11 -3 -25z"/>
<path d="M1898 2862 c-19 -4 -26 -52 -7 -52 5 0 8 4 5 9 -3 4 1 17 9 27 13 18
14 16 15 -21 1 -22 4 -33 7 -25 3 8 11 22 19 30 11 13 9 17 -9 25 -12 6 -30 9
-39 7z"/>
<path d="M1063 2844 c0 -8 4 -14 9 -14 4 0 11 0 15 0 15 -1 9 26 -7 27 -9 1
-17 -5 -17 -13z"/>
<path d="M1598 2847 c7 -8 9 -17 5 -20 -3 -4 1 -7 10 -7 20 0 12 26 -10 34
-12 5 -13 4 -5 -7z"/>
<path d="M1814 2839 c-3 -6 4 -21 16 -33 l22 -21 -16 27 c-13 20 -14 27 -4 31
9 4 9 6 1 6 -6 1 -15 -4 -19 -10z"/>
<path d="M1339 2828 c0 -7 -2 -23 -5 -35 -2 -13 -1 -23 4 -24 4 0 19 -3 35 -5
19 -3 27 0 27 10 0 12 -7 14 -32 9 -30 -6 -32 -5 -20 10 8 9 11 21 7 26 -4 7
1 9 12 5 15 -5 16 -4 3 5 -20 14 -30 14 -31 -1z"/>
<path d="M1405 2830 c-7 -11 12 -23 24 -15 6 3 19 -5 30 -17 12 -12 21 -17 21
-12 0 5 9 10 20 11 11 1 18 -2 15 -8 -4 -5 6 -8 22 -8 15 1 21 3 12 6 -10 2
-19 13 -22 24 -5 20 -7 20 -31 4 -14 -10 -26 -13 -26 -8 0 12 -59 33 -65 23z"/>
<path d="M1190 2805 c-7 -9 -8 -15 -2 -15 5 0 12 7 16 15 3 8 4 15 2 15 -2 0
-9 -7 -16 -15z"/>
<path d="M1550 2811 c0 -13 52 -23 63 -12 7 7 3 8 -10 5 -12 -3 -24 -1 -27 5
-9 13 -26 15 -26 2z"/>
<path d="M1645 2810 c3 -5 8 -10 11 -10 2 0 4 5 4 10 0 6 -5 10 -11 10 -5 0
-7 -4 -4 -10z"/>
<path d="M1690 2791 c0 -6 5 -13 10 -16 6 -3 10 1 10 9 0 9 -4 16 -10 16 -5 0
-10 -4 -10 -9z"/>
<path d="M1010 2770 c6 -11 12 -20 13 -20 2 0 3 9 4 20 1 12 -4 20 -13 20 -12
0 -12 -4 -4 -20z"/>
<path d="M1856 2782 c-3 -6 2 -13 12 -17 31 -14 42 -13 42 2 0 13 -3 13 -16 3
-12 -11 -15 -11 -12 0 4 15 -18 25 -26 12z"/>
<path d="M2055 2780 c3 -5 8 -10 11 -10 2 0 4 5 4 10 0 6 -5 10 -11 10 -5 0
-7 -4 -4 -10z"/>
<path d="M1635 2770 c3 -5 11 -10 16 -10 6 0 7 5 4 10 -3 6 -11 10 -16 10 -6
0 -7 -4 -4 -10z"/>
<path d="M1754 2765 c26 -20 42 -19 22 0 -8 8 -21 15 -28 15 -8 -1 -6 -6 6
-15z"/>
<path d="M1984 2772 c3 -5 0 -13 -6 -15 -9 -4 -10 -6 -1 -6 17 -1 25 16 12 25
-7 4 -9 3 -5 -4z"/>
<path d="M1540 2766 c0 -2 7 -6 15 -10 8 -3 15 -1 15 4 0 6 -7 10 -15 10 -8 0
-15 -2 -15 -4z"/>
<path d="M1596 2760 c-11 -3 -15 -9 -10 -13 10 -6 42 9 34 16 -3 3 -14 1 -24
-3z"/>
<path d="M1920 2766 c0 -2 7 -7 16 -10 8 -3 12 -2 9 4 -6 10 -25 14 -25 6z"/>
<path d="M1162 2744 c10 -10 20 -16 22 -13 3 3 -5 11 -17 18 -21 13 -21 12 -5
-5z"/>
<path d="M1231 2744 c0 -11 3 -14 6 -6 3 7 2 16 -1 19 -3 4 -6 -2 -5 -13z"/>
<path d="M1376 2743 c-14 -4 -16 -7 -6 -13 15 -9 40 -2 40 11 0 9 -3 10 -34 2z"/>
<path d="M1636 2741 c-4 -5 3 -7 14 -4 23 6 26 13 6 13 -8 0 -17 -4 -20 -9z"/>
<path d="M1050 2729 c0 -4 9 -9 20 -12 11 -3 18 -1 15 3 -3 5 1 10 7 13 7 2 1
4 -14 3 -16 0 -28 -4 -28 -7z"/>
<path d="M2050 2736 c0 -2 7 -7 16 -10 8 -3 12 -2 9 4 -6 10 -25 14 -25 6z"/>
<path d="M1196 2722 c-2 -4 4 -9 15 -9 11 -1 17 2 14 8 -7 11 -22 12 -29 1z"/>
<path d="M1280 2720 c0 -5 5 -10 11 -10 5 0 7 5 4 10 -3 6 -8 10 -11 10 -2 0
-4 -4 -4 -10z"/>
<path d="M1604 2711 c0 -11 4 -17 8 -15 4 3 8 12 8 20 0 8 -4 14 -8 14 -4 0
-8 -9 -8 -19z"/>
<path d="M1790 2720 c0 -5 5 -10 11 -10 5 0 3 -10 -5 -22 -18 -26 -21 -52 -5
-43 6 4 8 9 5 12 -3 3 0 15 6 27 17 31 18 46 2 46 -8 0 -14 -4 -14 -10z"/>
<path d="M1984 2723 c10 -11 37 -12 30 -2 -3 5 -12 9 -21 9 -9 0 -13 -3 -9 -7z"/>
<path d="M1390 2710 c-9 -6 -10 -10 -3 -10 6 0 15 5 18 10 8 12 4 12 -15 0z"/>
<path d="M1425 2700 c3 -5 8 -10 11 -10 2 0 4 5 4 10 0 6 -5 10 -11 10 -5 0
-7 -4 -4 -10z"/>
<path d="M1538 2693 c7 -3 16 -2 19 1 4 3 -2 6 -13 5 -11 0 -14 -3 -6 -6z"/>
<path d="M1518 2673 c7 -3 16 -2 19 1 4 3 -2 6 -13 5 -11 0 -14 -3 -6 -6z"/>
<path d="M1866 2668 c3 -4 -7 -8 -23 -8 -19 0 -24 -3 -15 -9 8 -4 13 -11 13
-15 -3 -20 1 -25 14 -20 8 4 15 10 15 16 0 5 -4 6 -10 3 -5 -3 -10 -1 -10 5 0
21 24 4 30 -21 5 -20 7 -21 13 -7 4 12 13 16 24 12 10 -3 6 3 -9 13 -18 13
-24 23 -18 29 6 6 3 10 -9 10 -11 0 -17 -4 -15 -8z"/>
<path d="M1341 2661 c-7 -5 -9 -11 -4 -14 5 -3 15 -2 22 2 7 5 9 11 4 14 -5 3
-15 2 -22 -2z"/>
<path d="M1465 2650 c3 -5 8 -10 11 -10 2 0 4 5 4 10 0 6 -5 10 -11 10 -5 0
-7 -4 -4 -10z"/>
<path d="M1498 2653 c7 -3 16 -2 19 1 4 3 -2 6 -13 5 -11 0 -14 -3 -6 -6z"/>
<path d="M1727 2654 c7 -3 9 -13 6 -22 -4 -15 -3 -15 6 -2 15 22 14 30 -6 29
-10 0 -13 -3 -6 -5z"/>
<path d="M1910 2648 c0 -4 7 -8 15 -8 8 0 15 -4 15 -10 0 -5 10 -9 23 -9 19 1
19 2 3 6 -14 4 -15 7 -6 13 8 5 1 9 -19 12 -17 2 -31 1 -31 -4z"/>
<path d="M1424 2625 c-4 -8 -10 -13 -14 -10 -5 3 -11 1 -15 -5 -4 -6 4 -9 19
-8 17 2 26 8 26 20 0 22 -9 23 -16 3z"/>
<path d="M1258 2600 c3 -14 7 -19 10 -12 2 6 7 10 11 8 4 -3 7 3 7 13 0 9 -8
17 -16 17 -12 0 -15 -7 -12 -26z"/>
<path d="M1342 2621 c-11 -7 -11 -9 1 -14 9 -3 18 1 21 9 6 16 -2 18 -22 5z"/>
<path d="M1156 2608 c3 -5 10 -6 15 -3 13 9 11 12 -6 12 -8 0 -12 -4 -9 -9z"/>
<path d="M1135 2591 c-3 -5 -2 -12 3 -15 5 -3 9 1 9 9 0 17 -3 19 -12 6z"/>
<path d="M1181 2590 c-18 -11 0 -19 23 -10 16 5 17 8 4 12 -8 4 -21 3 -27 -2z"/>
<path d="M1638 2593 c7 -3 16 -2 19 1 4 3 -2 6 -13 5 -11 0 -14 -3 -6 -6z"/>
<path d="M1021 2562 c-7 -14 -5 -21 12 -31 12 -8 19 -10 14 -6 -4 5 0 19 8 32
9 13 12 23 7 23 -5 0 -14 -10 -21 -22 l-12 -23 5 23 c5 27 0 28 -13 4z"/>
<path d="M1125 2550 c-3 -6 1 -7 9 -4 18 7 21 14 7 14 -6 0 -13 -4 -16 -10z"/>
<path d="M1325 2534 c2 -33 15 -43 15 -11 0 14 -4 28 -8 31 -4 2 -7 -6 -7 -20z"/>
<path d="M1601 2552 c-1 -8 -6 -10 -13 -6 -10 5 -10 4 -1 -6 15 -16 28 -8 20
12 -4 11 -6 11 -6 0z"/>
<path d="M1796 2545 c-3 -9 1 -23 10 -32 13 -14 14 -13 8 13 -9 37 -10 38 -18
19z"/>
<path d="M945 2541 c-3 -5 -2 -12 3 -15 5 -3 9 1 9 9 0 17 -3 19 -12 6z"/>
<path d="M1840 2545 c0 -8 29 -12 39 -5 9 5 4 8 -13 8 -14 0 -26 -2 -26 -3z"/>
<path d="M1375 2519 c-11 -16 -1 -19 13 -3 7 8 8 14 3 14 -5 0 -13 -5 -16 -11z"/>
<path d="M1530 2522 c0 -4 9 -8 20 -9 11 -1 18 2 15 8 -7 11 -35 12 -35 1z"/>
<path d="M1235 2509 c-4 -6 -5 -12 -2 -15 2 -3 7 2 10 11 7 17 1 20 -8 4z"/>
<path d="M1186 2502 c-2 -4 4 -8 15 -8 10 0 19 4 19 8 0 4 -6 8 -14 8 -8 0
-17 -4 -20 -8z"/>
<path d="M1758 2483 c7 -3 16 -2 19 1 4 3 -2 6 -13 5 -11 0 -14 -3 -6 -6z"/>
<path d="M1536 2414 c-6 -16 2 -18 22 -5 11 7 11 9 -1 14 -9 3 -18 -1 -21 -9z"/>
<path d="M1644 2402 c3 -5 0 -13 -6 -15 -9 -4 -10 -6 -1 -6 17 -1 25 16 12 25
-7 4 -9 3 -5 -4z"/>
<path d="M1678 2403 c7 -3 16 -2 19 1 4 3 -2 6 -13 5 -11 0 -14 -3 -6 -6z"/>
<path d="M1800 2360 c0 -5 7 -10 16 -10 8 0 12 5 9 10 -3 6 -10 10 -16 10 -5
0 -9 -4 -9 -10z"/>
<path d="M2633 2877 c-3 -5 3 -7 13 -6 11 2 24 0 30 -3 6 -4 11 -1 11 7 0 16
-45 17 -54 2z"/>
<path d="M2876 2877 c3 -10 9 -15 12 -12 3 3 0 11 -7 18 -10 9 -11 8 -5 -6z"/>
<path d="M2365 2870 c-3 -5 -2 -10 4 -10 5 0 13 5 16 10 3 6 2 10 -4 10 -5 0
-13 -4 -16 -10z"/>
<path d="M2446 2863 c-6 -14 -5 -15 5 -6 7 7 10 15 7 18 -3 3 -9 -2 -12 -12z"/>
<path d="M2560 2859 c0 -5 5 -7 10 -4 6 3 10 8 10 11 0 2 -4 4 -10 4 -5 0 -10
-5 -10 -11z"/>
<path d="M2865 2840 c-3 -5 1 -10 10 -10 9 0 13 5 10 10 -3 6 -8 10 -10 10 -2
0 -7 -4 -10 -10z"/>
<path d="M2910 2828 c13 -15 13 -31 0 -23 -6 3 -7 -1 -4 -9 8 -20 6 -21 33 15
20 27 21 30 3 20 -12 -6 -23 -7 -30 -1 -9 7 -9 7 -2 -2z"/>
<path d="M2988 2833 c7 -3 16 -2 19 1 4 3 -2 6 -13 5 -11 0 -14 -3 -6 -6z"/>
<path d="M2825 2820 c-3 -6 1 -7 9 -4 18 7 21 14 7 14 -6 0 -13 -4 -16 -10z"/>
<path d="M2775 2810 c3 -5 8 -10 11 -10 2 0 4 5 4 10 0 6 -5 10 -11 10 -5 0
-7 -4 -4 -10z"/>
<path d="M2978 2813 c7 -3 16 -2 19 1 4 3 -2 6 -13 5 -11 0 -14 -3 -6 -6z"/>
<path d="M2260 2795 c-8 -9 -8 -15 -2 -15 12 0 26 19 19 26 -2 2 -10 -2 -17
-11z"/>
<path d="M2850 2801 c0 -5 5 -13 10 -16 6 -3 10 -2 10 4 0 5 -4 13 -10 16 -5
3 -10 2 -10 -4z"/>
<path d="M3056 2796 c21 -15 30 -14 19 3 -3 6 -14 11 -23 11 -13 0 -13 -2 4
-14z"/>
<path d="M3168 2763 c6 -2 9 -10 6 -15 -4 -7 -2 -8 5 -4 13 9 5 26 -12 25 -9
0 -8 -2 1 -6z"/>
<path d="M2358 2743 c7 -3 16 -2 19 1 4 3 -2 6 -13 5 -11 0 -14 -3 -6 -6z"/>
<path d="M2798 2733 c7 -3 16 -2 19 1 4 3 -2 6 -13 5 -11 0 -14 -3 -6 -6z"/>
<path d="M2890 2729 c0 -5 5 -7 10 -4 6 3 10 8 10 11 0 2 -4 4 -10 4 -5 0 -10
-5 -10 -11z"/>
<path d="M3007 2718 c2 -5 11 -8 19 -8 9 0 12 -5 8 -12 -5 -10 -4 -10 6 -1 10
9 17 9 26 2 9 -8 11 -6 8 8 -4 13 -15 18 -39 18 -18 0 -31 -3 -28 -7z"/>
<path d="M2970 2675 c0 -8 4 -15 10 -15 5 0 7 7 4 15 -4 8 -8 15 -10 15 -2 0
-4 -7 -4 -15z"/>
<path d="M2259 2667 c6 -6 11 -19 11 -29 0 -10 4 -18 9 -18 4 0 8 12 7 27 -1
17 -7 27 -20 29 -14 2 -16 0 -7 -9z"/>
<path d="M2325 2671 c-3 -5 1 -16 9 -24 8 -8 13 -16 11 -19 -2 -2 6 -10 18
-17 19 -13 21 -12 10 1 -7 8 -14 27 -15 42 -2 25 -21 35 -33 17z"/>
<path d="M2475 2669 c-4 -6 -5 -12 -2 -15 2 -3 7 2 10 11 7 17 1 20 -8 4z"/>
<path d="M2740 2671 c0 -5 5 -13 10 -16 6 -3 10 -2 10 4 0 5 -4 13 -10 16 -5
3 -10 2 -10 -4z"/>
<path d="M3133 2657 c-3 -6 -1 -7 5 -3 5 3 12 1 14 -6 3 -8 6 -7 10 3 7 17
-19 22 -29 6z"/>
<path d="M3073 2645 c-3 -9 -3 -18 -1 -21 3 -3 8 4 11 16 6 23 -1 27 -10 5z"/>
<path d="M2898 2643 c6 -2 18 -2 25 0 6 3 1 5 -13 5 -14 0 -19 -2 -12 -5z"/>
<path d="M3181 2634 c0 -11 3 -14 6 -6 3 7 2 16 -1 19 -3 4 -6 -2 -5 -13z"/>
<path d="M2503 2625 c0 -8 4 -15 9 -15 4 0 8 7 8 15 0 8 -4 15 -8 15 -5 0 -9
-7 -9 -15z"/>
<path d="M2230 2621 c0 -5 -8 -12 -17 -14 -14 -4 -12 -5 5 -6 13 -1 22 5 22
14 0 8 -2 15 -5 15 -3 0 -5 -4 -5 -9z"/>
<path d="M2430 2610 c-9 -6 -10 -10 -3 -10 6 0 15 5 18 10 8 12 4 12 -15 0z"/>
<path d="M2346 2571 c-2 -3 0 -17 4 -31 6 -25 6 -25 12 -3 4 16 12 21 27 18
12 -2 21 0 21 4 0 10 -59 21 -64 12z"/>
<path d="M2285 2560 c-3 -5 -1 -10 4 -10 6 0 11 5 11 10 0 6 -2 10 -4 10 -3 0
-8 -4 -11 -10z"/>
<path d="M2515 2549 c-4 -6 -5 -12 -2 -15 2 -3 7 2 10 11 7 17 1 20 -8 4z"/>
<path d="M2240 2530 c0 -12 4 -19 9 -16 5 4 7 -2 4 -12 -5 -19 40 -48 58 -36
5 3 8 0 7 -7 -2 -6 3 -14 10 -16 6 -3 12 2 12 11 0 9 -3 16 -7 16 -25 1 -33
18 -23 46 9 23 9 27 -1 17 -17 -17 -34 -16 -53 3 -15 14 -16 13 -16 -6z"/>
<path d="M2877 2544 c-3 -3 -3 -12 0 -20 3 -8 -1 -14 -10 -14 -9 0 -18 -3 -20
-7 -3 -5 6 -8 19 -8 13 0 24 5 24 12 0 6 3 18 6 27 6 16 -7 22 -19 10z"/>
<path d="M2191 2519 c-19 -18 -25 -19 -32 -8 -7 11 -9 10 -9 -3 0 -10 7 -18
15 -18 9 0 12 -6 9 -15 -4 -9 0 -15 9 -15 8 0 18 -6 20 -12 3 -8 6 -6 6 5 1 9
-3 17 -9 17 -5 0 -10 10 -10 23 0 18 2 19 10 7 8 -12 10 -11 10 7 0 12 6 24
13 26 6 3 7 6 1 6 -5 1 -21 -9 -33 -20z"/>
<path d="M2456 2519 c3 -5 12 -9 21 -9 19 0 9 13 -12 16 -8 1 -13 -2 -9 -7z"/>
<path d="M2654 2505 c-3 -13 -4 -30 -1 -37 4 -8 6 -7 6 5 1 9 7 17 14 17 8 0
7 4 -3 10 -10 6 -11 10 -2 10 6 0 12 5 12 10 0 20 -20 9 -26 -15z"/>
<path d="M2553 2501 c-2 -18 18 -23 33 -9 3 4 13 4 22 1 14 -5 15 -3 5 7 -10
11 -15 11 -28 0 -12 -10 -15 -10 -15 4 0 23 -15 20 -17 -3z"/>
<path d="M2400 2490 l-25 -8 28 -1 c15 -1 27 4 27 9 0 6 -1 10 -2 9 -2 -1 -14
-5 -28 -9z"/>
<path d="M2462 2486 c7 -8 15 -12 17 -11 5 6 -10 25 -20 25 -5 0 -4 -6 3 -14z"/>
<path d="M2777 2481 c-4 -17 -3 -21 5 -13 5 5 8 16 6 23 -3 8 -7 3 -11 -10z"/>
<path d="M2507 2460 c3 -11 9 -17 14 -15 10 7 1 35 -11 35 -5 0 -6 -9 -3 -20z"/>
<path d="M2230 2447 c0 -8 6 -14 14 -14 8 0 12 6 9 14 -3 7 -9 13 -14 13 -5 0
-9 -6 -9 -13z"/>
<path d="M2123 2439 c-13 -5 -23 -12 -23 -15 0 -4 3 -4 7 -1 3 4 12 2 19 -4
11 -9 15 -7 20 5 9 22 4 25 -23 15z"/>
<path d="M2287 2437 c-3 -8 1 -14 9 -14 16 0 19 13 5 21 -5 3 -11 0 -14 -7z"/>
<path d="M2340 2430 c-9 -6 -10 -10 -3 -10 6 0 15 5 18 10 8 12 4 12 -15 0z"/>
<path d="M2400 2430 c0 -5 5 -10 11 -10 5 0 7 5 4 10 -3 6 -8 10 -11 10 -2 0
-4 -4 -4 -10z"/>
<path d="M2242 2386 c7 -8 15 -12 17 -11 5 6 -10 25 -20 25 -5 0 -4 -6 3 -14z"/>
<path d="M2108 2383 c7 -3 16 -2 19 1 4 3 -2 6 -13 5 -11 0 -14 -3 -6 -6z"/>
<path d="M2640 2356 c-13 -34 -13 -36 2 -36 6 0 8 3 5 6 -3 4 -2 15 4 26 6 11
8 22 5 25 -3 3 -10 -6 -16 -21z"/>
<path d="M2165 2360 c-3 -5 -2 -10 4 -10 5 0 13 5 16 10 3 6 2 10 -4 10 -5 0
-13 -4 -16 -10z"/>
<path d="M2060 2348 c0 -9 7 -19 16 -22 15 -6 15 -4 3 11 -7 10 -15 20 -16 22
-2 2 -3 -3 -3 -11z"/>
<path d="M2286 2345 c-3 -8 -1 -15 4 -15 6 0 10 7 10 15 0 8 -2 15 -4 15 -2 0
-6 -7 -10 -15z"/>
<path d="M2340 2356 c0 -2 7 -7 16 -10 8 -3 12 -2 9 4 -6 10 -25 14 -25 6z"/>
<path d="M2424 2352 c3 -6 0 -13 -6 -15 -7 -3 -1 -6 15 -6 32 -1 34 4 6 20
-13 6 -19 7 -15 1z"/>
<path d="M2197 2329 c7 -7 15 -10 18 -7 3 3 -2 9 -12 12 -14 6 -15 5 -6 -5z"/>
<path d="M2120 2316 c0 -2 7 -7 16 -10 8 -3 12 -2 9 4 -6 10 -25 14 -25 6z"/>
<path d="M2207 2290 c3 -11 7 -20 9 -20 2 0 4 9 4 20 0 11 -4 20 -9 20 -5 0
-7 -9 -4 -20z"/>
<path d="M2451 2294 c0 -11 3 -14 6 -6 3 7 2 16 -1 19 -3 4 -6 -2 -5 -13z"/>
<path d="M2676 2301 c-3 -5 1 -11 9 -14 9 -4 12 -1 8 9 -6 16 -10 17 -17 5z"/>
<path d="M2330 2276 c0 -19 5 -24 20 -23 24 2 26 13 4 21 -8 3 -12 10 -9 16 3
5 1 10 -4 10 -6 0 -11 -11 -11 -24z"/>
<path d="M2510 2280 c0 -11 4 -20 9 -20 5 0 7 9 4 20 -3 11 -7 20 -9 20 -2 0
-4 -9 -4 -20z"/>
<path d="M2576 2288 c3 -4 9 -8 15 -8 5 0 9 4 9 8 0 5 -7 9 -15 9 -8 0 -12 -4
-9 -9z"/>
<path d="M2067 2283 c7 -2 15 -4 19 -3 4 1 10 -4 14 -10 5 -8 9 -7 13 4 5 13
0 16 -26 15 -18 0 -26 -3 -20 -6z"/>
<path d="M2633 2276 c3 -8 1 -16 -6 -19 -7 -2 -5 -6 4 -9 11 -4 15 1 15 18 0
13 -4 24 -9 24 -5 0 -7 -6 -4 -14z"/>
<path d="M1999 2263 c-13 -16 -12 -17 4 -4 9 7 17 15 17 17 0 8 -8 3 -21 -13z"/>
<path d="M2138 2273 c7 -3 16 -2 19 1 4 3 -2 6 -13 5 -11 0 -14 -3 -6 -6z"/>
<path d="M2301 2264 c0 -11 3 -14 6 -6 3 7 2 16 -1 19 -3 4 -6 -2 -5 -13z"/>
<path d="M2420 2259 c0 -5 5 -7 10 -4 6 3 10 8 10 11 0 2 -4 4 -10 4 -5 0 -10
-5 -10 -11z"/>
<path d="M2577 2249 c7 -7 15 -10 18 -7 3 3 -2 9 -12 12 -14 6 -15 5 -6 -5z"/>
<path d="M2688 2253 c6 -2 9 -10 6 -15 -4 -7 -2 -8 5 -4 13 9 5 26 -12 25 -9
0 -8 -2 1 -6z"/>
<path d="M2217 2231 c-4 -17 -3 -21 5 -13 5 5 8 16 6 23 -3 8 -7 3 -11 -10z"/>
<path d="M2350 2226 c0 -9 -4 -14 -10 -11 -5 3 -10 2 -10 -4 0 -5 4 -12 9 -16
11 -6 26 33 17 42 -3 4 -6 -1 -6 -11z"/>
<path d="M2482 2220 c0 -14 2 -19 5 -12 2 6 2 18 0 25 -3 6 -5 1 -5 -13z"/>
<path d="M1940 2218 c0 -4 7 -8 15 -8 8 0 15 4 15 8 0 5 -7 9 -15 9 -8 0 -15
-4 -15 -9z"/>
<path d="M2106 2214 c-4 -10 -1 -21 6 -25 16 -11 22 5 10 27 -8 15 -10 15 -16
-2z"/>
<path d="M2815 2210 c3 -5 11 -10 16 -10 6 0 7 5 4 10 -3 6 -11 10 -16 10 -6
0 -7 -4 -4 -10z"/>
<path d="M2065 2201 c-3 -5 -1 -12 5 -16 5 -3 10 1 10 9 0 18 -6 21 -15 7z"/>
<path d="M1988 2183 c7 -3 16 -2 19 1 4 3 -2 6 -13 5 -11 0 -14 -3 -6 -6z"/>
<path d="M2033 2165 c0 -7 6 -11 14 -8 7 3 13 6 13 8 0 2 -6 5 -13 8 -8 3 -14
-1 -14 -8z"/>
<path d="M2155 2170 c-4 -6 -11 -8 -16 -5 -5 4 -9 4 -9 0 0 -6 61 -45 70 -45
3 0 6 9 6 20 0 14 -7 20 -24 20 -13 0 -20 4 -17 10 3 6 4 10 1 10 -3 0 -8 -5
-11 -10z"/>
<path d="M2260 2170 c0 -5 5 -10 11 -10 5 0 7 -5 3 -12 -4 -7 -3 -8 5 -4 9 6
9 11 0 22 -14 17 -19 18 -19 4z"/>
<path d="M2420 2169 c0 -5 5 -7 10 -4 6 3 10 8 10 11 0 2 -4 4 -10 4 -5 0 -10
-5 -10 -11z"/>
<path d="M2227 2140 c3 -11 9 -17 15 -14 5 3 4 12 -3 20 -16 19 -18 18 -12 -6z"/>
<path d="M2290 2116 c0 -2 9 -6 20 -9 11 -3 18 -1 14 4 -5 9 -34 13 -34 5z"/>
<path d="M2208 2103 c6 -2 18 -2 25 0 6 3 1 5 -13 5 -14 0 -19 -2 -12 -5z"/>
<path d="M2376 2063 c-6 -14 -5 -15 5 -6 7 7 10 15 7 18 -3 3 -9 -2 -12 -12z"/>
<path d="M2765 2060 c-3 -5 -1 -10 4 -10 6 0 11 5 11 10 0 6 -2 10 -4 10 -3 0
-8 -4 -11 -10z"/>
<path d="M3343 2676 c0 -14 3 -26 8 -26 11 0 11 21 0 39 -6 9 -8 5 -8 -13z"/>
<path d="M3441 2676 c-12 -14 -10 -16 13 -16 14 0 26 5 26 11 0 5 -4 8 -9 5
-5 -4 -11 -1 -13 5 -2 7 -9 5 -17 -5z"/>
<path d="M3578 2682 c-18 -4 -26 -52 -9 -52 5 0 7 8 4 19 -3 11 2 21 11 24 10
4 16 1 16 -8 0 -8 8 -19 19 -24 15 -9 18 -7 17 11 -1 22 -29 37 -58 30z"/>
<path d="M3675 2670 c-3 -5 1 -10 10 -10 9 0 13 5 10 10 -3 6 -8 10 -10 10 -2
0 -7 -4 -10 -10z"/>
<path d="M3455 2640 c-7 -11 22 -26 32 -16 4 3 -2 6 -13 6 -16 0 -17 2 -4 10
9 6 10 10 3 10 -6 0 -15 -5 -18 -10z"/>
<path d="M3661 2638 c-1 -10 -9 -18 -18 -18 -15 0 -16 -2 -3 -10 17 -10 35 12
26 33 -2 7 -5 4 -5 -5z"/>
<path d="M3690 2640 c0 -5 7 -7 15 -4 8 4 15 8 15 10 0 2 -7 4 -15 4 -8 0 -15
-4 -15 -10z"/>
<path d="M3563 2605 c0 -8 4 -12 9 -9 5 3 6 10 3 15 -9 13 -12 11 -12 -6z"/>
<path d="M3600 2600 c20 -13 33 -13 25 0 -3 6 -14 10 -23 10 -15 0 -15 -2 -2
-10z"/>
<path d="M3416 2573 c-6 -14 -5 -15 5 -6 7 7 10 15 7 18 -3 3 -9 -2 -12 -12z"/>
<path d="M3370 2570 c8 -5 20 -10 25 -10 6 0 3 5 -5 10 -8 5 -19 10 -25 10 -5
0 -3 -5 5 -10z"/>
<path d="M3660 2565 c-17 -21 -9 -27 13 -10 10 7 14 16 9 19 -5 3 -15 -1 -22
-9z"/>
<path d="M3607 2559 c7 -7 15 -10 18 -7 3 3 -2 9 -12 12 -14 6 -15 5 -6 -5z"/>
<path d="M3345 2513 c0 -15 5 -21 13 -18 7 3 10 0 7 -5 -3 -6 -17 -10 -31 -10
-17 0 -23 -4 -19 -12 4 -7 -1 -4 -10 7 -17 20 -17 20 -10 -5 4 -14 10 -31 13
-39 4 -10 -1 -11 -18 -6 -18 6 -22 4 -17 -8 3 -9 1 -18 -6 -20 -7 -2 -4 -3 5
-2 10 2 21 -1 24 -6 7 -12 34 -12 34 1 0 5 -6 7 -14 4 -8 -3 -17 -1 -20 5 -4
5 3 12 14 16 11 3 19 10 17 15 -2 8 2 10 28 10 8 0 14 -3 14 -7 -4 -23 3 -33
21 -33 11 0 20 5 20 10 0 6 -8 10 -17 10 -14 0 -15 2 -5 9 11 7 10 11 -3 24
-9 9 -14 26 -11 40 2 15 -2 27 -12 34 -14 8 -17 6 -17 -14z"/>
<path d="M3295 2510 c-3 -5 -2 -10 4 -10 5 0 13 5 16 10 3 6 2 10 -4 10 -5 0
-13 -4 -16 -10z"/>
<path d="M3506 2507 c3 -10 9 -15 12 -12 3 3 0 11 -7 18 -10 9 -11 8 -5 -6z"/>
<path d="M3720 2510 c-11 -8 -9 -9 13 -8 15 1 27 6 27 10 0 11 -22 10 -40 -2z"/>
<path d="M3845 2510 c3 -5 8 -10 11 -10 2 0 4 5 4 10 0 6 -5 10 -11 10 -5 0
-7 -4 -4 -10z"/>
<path d="M3477 2491 c20 -17 21 -20 6 -25 -12 -5 -13 -10 -5 -18 6 -6 8 -17 5
-24 -3 -9 2 -14 16 -14 13 0 21 6 21 18 0 13 -2 14 -9 4 -6 -10 -10 -9 -14 7
-3 12 -1 24 5 27 10 6 -24 44 -39 44 -4 -1 2 -9 14 -19z"/>
<path d="M3798 2503 c7 -3 16 -2 19 1 4 3 -2 6 -13 5 -11 0 -14 -3 -6 -6z"/>
<path d="M3416 2478 c3 -5 10 -6 15 -3 13 9 11 12 -6 12 -8 0 -12 -4 -9 -9z"/>
<path d="M3820 2476 c0 -4 9 -6 20 -3 11 3 20 1 20 -4 0 -4 7 -6 15 -3 27 11
16 21 -20 20 -19 0 -35 -5 -35 -10z"/>
<path d="M3810 2442 c0 -7 -8 -12 -17 -13 -11 0 -13 -3 -6 -6 9 -3 10 -10 3
-24 -9 -16 -7 -21 16 -29 15 -6 30 -13 34 -15 5 -3 11 2 14 11 4 9 2 13 -5 8
-7 -4 -9 0 -5 14 6 18 3 20 -14 17 -18 -4 -20 -2 -9 11 9 11 9 18 1 26 -9 9
-12 9 -12 0z"/>
<path d="M3414 2409 c1 -25 5 -29 26 -26 14 1 28 6 32 11 8 12 -1 36 -14 36
-6 0 -8 -7 -4 -15 3 -9 0 -15 -10 -15 -10 0 -14 6 -11 14 3 8 0 17 -7 19 -9 4
-13 -4 -12 -24z"/>
<path d="M3534 2411 c4 -5 1 -12 -4 -14 -6 -3 -5 -4 2 -3 15 3 23 26 8 26 -6
0 -9 -4 -6 -9z"/>
<path d="M3620 2410 c0 -5 5 -10 11 -10 5 0 7 5 4 10 -3 6 -8 10 -11 10 -2 0
-4 -4 -4 -10z"/>
<path d="M3655 2400 c3 -5 11 -10 16 -10 6 0 7 5 4 10 -3 6 -11 10 -16 10 -6
0 -7 -4 -4 -10z"/>
<path d="M3760 2386 c0 -5 7 -18 17 -28 10 -12 12 -18 4 -18 -7 0 -10 -4 -7
-9 9 -14 43 -2 43 15 0 8 -8 14 -18 14 -10 0 -23 8 -28 18 -6 9 -11 13 -11 8z"/>
<path d="M3520 2356 c0 -2 8 -10 18 -17 15 -13 16 -12 3 4 -13 16 -21 21 -21
13z"/>
<path d="M3735 2351 c-6 -11 9 -23 19 -14 9 9 7 23 -3 23 -6 0 -12 -4 -16 -9z"/>
<path d="M3331 2334 c0 -11 3 -14 6 -6 3 7 2 16 -1 19 -3 4 -6 -2 -5 -13z"/>
<path d="M3680 2341 c0 -5 6 -12 13 -14 9 -4 9 -6 -1 -6 -17 -1 -5 -21 13 -21
17 0 8 37 -11 44 -8 3 -14 1 -14 -3z"/>
<path d="M3588 2333 c7 -3 16 -2 19 1 4 3 -2 6 -13 5 -11 0 -14 -3 -6 -6z"/>
<path d="M3735 2309 c-11 -16 -1 -19 13 -3 7 8 8 14 3 14 -5 0 -13 -5 -16 -11z"/>
<path d="M3388 2253 c7 -3 16 -2 19 1 4 3 -2 6 -13 5 -11 0 -14 -3 -6 -6z"/>
<path d="M3430 2239 c0 -5 5 -7 10 -4 6 3 10 8 10 11 0 2 -4 4 -10 4 -5 0 -10
-5 -10 -11z"/>
<path d="M3363 2224 c0 -7 6 -10 14 -7 7 3 13 8 13 12 0 4 -6 8 -13 8 -8 0
-14 -6 -14 -13z"/>
<path d="M3486 2221 c-4 -5 3 -7 14 -4 23 6 26 13 6 13 -8 0 -17 -4 -20 -9z"/>
<path d="M3316 2204 c-4 -9 -4 -19 -1 -22 2 -3 7 3 11 12 4 9 4 19 1 22 -2 3
-7 -3 -11 -12z"/>
<path d="M3730 2210 c-9 -6 -10 -10 -3 -10 6 0 15 5 18 10 8 12 4 12 -15 0z"/>
<path d="M3665 2160 c-3 -5 1 -10 10 -10 9 0 13 5 10 10 -3 6 -8 10 -10 10 -2
0 -7 -4 -10 -10z"/>
<path d="M3600 2126 c0 -2 7 -7 16 -10 8 -3 12 -2 9 4 -6 10 -25 14 -25 6z"/>
<path d="M3667 2106 c-4 -10 -5 -21 -2 -24 9 -9 17 6 13 25 -3 17 -4 17 -11
-1z"/>
<path d="M3578 2103 c6 -2 18 -2 25 0 6 3 1 5 -13 5 -14 0 -19 -2 -12 -5z"/>
<path d="M3114 2079 c-3 -6 1 -17 10 -25 9 -8 12 -9 7 -3 -5 6 -7 18 -4 25 6
17 -3 19 -13 3z"/>
<path d="M3446 2082 c-3 -5 1 -9 9 -9 8 0 12 4 9 9 -3 4 -7 8 -9 8 -2 0 -6 -4
-9 -8z"/>
<path d="M3620 2055 c0 -14 4 -25 9 -25 4 0 6 11 3 25 -2 14 -6 25 -8 25 -2 0
-4 -11 -4 -25z"/>
<path d="M3147 2059 c7 -7 15 -10 18 -7 3 3 -2 9 -12 12 -14 6 -15 5 -6 -5z"/>
<path d="M3520 2020 c-11 -8 -7 -9 15 -4 37 8 45 14 19 14 -10 0 -26 -5 -34
-10z"/>
<path d="M3026 1995 c-4 -16 -10 -37 -12 -45 -4 -12 -2 -12 11 1 10 10 15 27
13 45 l-4 29 -8 -30z"/>
<path d="M3052 1990 c0 -14 2 -19 5 -12 2 6 2 18 0 25 -3 6 -5 1 -5 -13z"/>
<path d="M3420 1999 c0 -5 5 -7 10 -4 6 3 10 8 10 11 0 2 -4 4 -10 4 -5 0 -10
-5 -10 -11z"/>
<path d="M3138 1983 c-16 -4 -22 -15 -19 -35 0 -5 -3 -8 -9 -8 -5 0 -10 8 -10
17 0 12 -3 14 -11 6 -13 -13 -4 -33 15 -33 7 0 22 14 34 30 13 17 21 29 20 29
-2 -1 -11 -3 -20 -6z"/>
<path d="M3360 1979 c0 -5 5 -7 10 -4 6 3 10 8 10 11 0 2 -4 4 -10 4 -5 0 -10
-5 -10 -11z"/>
<path d="M3185 1930 c-8 -13 8 -18 30 -9 11 4 18 8 15 9 -23 7 -41 7 -45 0z"/>
<path d="M3267 1929 c7 -7 15 -10 18 -7 3 3 -2 9 -12 12 -14 6 -15 5 -6 -5z"/>
<path d="M3311 1931 c-9 -6 -10 -11 -2 -15 6 -4 11 -3 11 2 0 6 9 8 20 5 11
-3 20 0 20 6 0 13 -29 14 -49 2z"/>
<path d="M3070 1915 c-8 -10 -8 -15 1 -21 7 -4 9 -3 5 4 -4 6 3 12 16 14 19 3
20 4 6 10 -9 4 -21 1 -28 -7z"/>
<path d="M3490 1880 c0 -5 7 -7 15 -4 8 4 15 8 15 10 0 2 -7 4 -15 4 -8 0 -15
-4 -15 -10z"/>
<path d="M3431 1861 c-8 -14 -7 -20 5 -25 9 -3 12 -2 9 5 -4 5 -1 16 5 24 8
10 9 15 2 15 -6 0 -16 -9 -21 -19z"/>
<path d="M3460 1849 c0 -20 27 -33 36 -17 4 6 3 8 -4 4 -6 -3 -15 2 -21 11 -9
16 -10 16 -11 2z"/>
<path d="M3185 1840 c-3 -5 -2 -10 4 -10 5 0 13 5 16 10 3 6 2 10 -4 10 -5 0
-13 -4 -16 -10z"/>
<path d="M3220 1830 c-9 -6 -10 -10 -3 -10 6 0 15 5 18 10 8 12 4 12 -15 0z"/>
<path d="M3325 1790 c-3 -5 -1 -10 4 -10 6 0 11 5 11 10 0 6 -2 10 -4 10 -3 0
-8 -4 -11 -10z"/>
<path d="M3390 1769 c0 -5 5 -7 10 -4 6 3 10 8 10 11 0 2 -4 4 -10 4 -5 0 -10
-5 -10 -11z"/>
<path d="M3895 2610 c-3 -5 -2 -10 4 -10 5 0 13 5 16 10 3 6 2 10 -4 10 -5 0
-13 -4 -16 -10z"/>
<path d="M963 2272 c-1 -15 5 -17 32 -14 27 3 31 7 22 17 -7 8 -16 9 -23 4 -6
-5 -15 -4 -20 1 -6 6 -10 3 -11 -8z"/>
<path d="M1090 2270 c0 -5 5 -10 11 -10 5 0 7 5 4 10 -3 6 -8 10 -11 10 -2 0
-4 -4 -4 -10z"/>
<path d="M1252 2240 c0 -14 2 -19 5 -12 2 6 2 18 0 25 -3 6 -5 1 -5 -13z"/>
<path d="M1336 2245 c4 -8 8 -15 10 -15 2 0 4 7 4 15 0 8 -4 15 -10 15 -5 0
-7 -7 -4 -15z"/>
<path d="M986 2235 c4 -8 16 -15 28 -15 17 0 18 -2 6 -10 -11 -7 -11 -10 -2
-10 7 0 10 -4 7 -10 -3 -5 -1 -10 5 -10 14 0 9 50 -5 51 -5 1 -18 5 -27 10
-14 7 -16 6 -12 -6z"/>
<path d="M760 2220 c0 -5 5 -10 11 -10 5 0 7 5 4 10 -3 6 -8 10 -11 10 -2 0
-4 -4 -4 -10z"/>
<path d="M1325 2200 c3 -5 8 -10 11 -10 2 0 4 5 4 10 0 6 -5 10 -11 10 -5 0
-7 -4 -4 -10z"/>
<path d="M858 2193 c7 -3 16 -2 19 1 4 3 -2 6 -13 5 -11 0 -14 -3 -6 -6z"/>
<path d="M1500 2196 c0 -2 7 -7 16 -10 8 -3 12 -2 9 4 -6 10 -25 14 -25 6z"/>
<path d="M1649 2173 c-4 -42 -3 -63 3 -63 4 0 8 16 8 35 0 19 -2 35 -5 35 -3
0 -5 -3 -6 -7z"/>
<path d="M1674 2139 c3 -17 6 -35 6 -39 0 -4 6 -10 14 -13 11 -5 11 0 -1 24
-8 16 -12 36 -9 44 3 8 0 15 -6 15 -6 0 -8 -11 -4 -31z"/>
<path d="M1015 2131 c-3 -5 -2 -12 3 -15 5 -3 9 1 9 9 0 17 -3 19 -12 6z"/>
<path d="M936 2111 c-4 -5 -2 -12 3 -15 5 -4 12 -2 15 3 4 5 2 12 -3 15 -5 4
-12 2 -15 -3z"/>
<path d="M885 2100 c3 -5 11 -10 16 -10 6 0 7 5 4 10 -3 6 -11 10 -16 10 -6 0
-7 -4 -4 -10z"/>
<path d="M966 2093 c-6 -14 -5 -15 5 -6 7 7 10 15 7 18 -3 3 -9 -2 -12 -12z"/>
<path d="M1160 2101 c0 -7 -5 -9 -12 -5 -7 5 -8 3 -3 -5 5 -9 10 -10 18 -2 6
6 8 14 4 18 -4 3 -7 1 -7 -6z"/>
<path d="M1063 2086 c0 -8 6 -12 14 -9 7 3 10 9 7 14 -8 14 -21 11 -21 -5z"/>
<path d="M730 2082 c0 -19 29 -27 43 -12 10 10 8 12 -7 6 -12 -4 -23 -1 -28 6
-6 11 -8 11 -8 0z"/>
<path d="M900 2076 c0 -2 7 -7 16 -10 8 -3 12 -2 9 4 -6 10 -25 14 -25 6z"/>
<path d="M1200 2060 c0 -5 4 -10 9 -10 6 0 13 5 16 10 3 6 -1 10 -9 10 -9 0
-16 -4 -16 -10z"/>
<path d="M1332 2056 c7 -8 15 -12 17 -11 5 6 -10 25 -20 25 -5 0 -4 -6 3 -14z"/>
<path d="M1508 2063 c7 -3 16 -2 19 1 4 3 -2 6 -13 5 -11 0 -14 -3 -6 -6z"/>
<path d="M1276 2035 c-9 -26 -7 -32 5 -12 6 10 9 21 6 23 -2 3 -7 -2 -11 -11z"/>
<path d="M1530 2040 c-9 -6 -10 -10 -3 -10 6 0 15 5 18 10 8 12 4 12 -15 0z"/>
<path d="M1198 2033 c7 -3 16 -2 19 1 4 3 -2 6 -13 5 -11 0 -14 -3 -6 -6z"/>
<path d="M1580 1991 c0 -11 4 -22 9 -25 4 -3 6 6 3 19 -5 30 -12 33 -12 6z"/>
<path d="M1180 1980 c0 -5 5 -10 11 -10 5 0 7 5 4 10 -3 6 -8 10 -11 10 -2 0
-4 -4 -4 -10z"/>
<path d="M755 1971 c-3 -5 -2 -12 3 -15 5 -3 9 1 9 9 0 17 -3 19 -12 6z"/>
<path d="M908 1973 c7 -3 16 -2 19 1 4 3 -2 6 -13 5 -11 0 -14 -3 -6 -6z"/>
<path d="M1120 1970 c0 -5 7 -7 15 -4 8 4 15 8 15 10 0 2 -7 4 -15 4 -8 0 -15
-4 -15 -10z"/>
<path d="M1160 1961 c0 -5 5 -13 10 -16 6 -3 10 -2 10 4 0 5 -4 13 -10 16 -5
3 -10 2 -10 -4z"/>
<path d="M645 1920 c-3 -5 -1 -10 4 -10 6 0 11 5 11 10 0 6 -2 10 -4 10 -3 0
-8 -4 -11 -10z"/>
<path d="M1089 1908 c-11 -21 -34 -25 -26 -4 4 10 1 13 -7 10 -23 -9 -13 -30
16 -32 16 -1 28 3 28 9 0 7 7 17 16 24 15 11 15 12 0 12 -9 0 -21 -9 -27 -19z"/>
<path d="M1167 1913 c-10 -9 -9 -23 1 -23 5 0 9 7 9 15 0 17 -1 18 -10 8z"/>
<path d="M1630 1908 c0 -4 4 -8 9 -8 6 0 12 4 15 8 3 5 -1 9 -9 9 -8 0 -15 -4
-15 -9z"/>
<path d="M1383 1895 c0 -8 4 -15 9 -15 4 0 8 4 8 9 0 6 -4 12 -8 15 -5 3 -9
-1 -9 -9z"/>
<path d="M1335 1879 c-9 -13 24 -51 38 -42 5 3 -1 12 -14 19 -20 11 -21 13 -6
14 10 0 15 5 12 10 -8 13 -22 13 -30 -1z"/>
<path d="M1480 1870 c0 -5 5 -10 11 -10 5 0 7 5 4 10 -3 6 -8 10 -11 10 -2 0
-4 -4 -4 -10z"/>
<path d="M1186 1861 c-6 -10 24 -25 32 -16 3 3 0 5 -7 5 -7 0 -9 5 -6 10 3 6
2 10 -4 10 -5 0 -12 -4 -15 -9z"/>
<path d="M1642 1858 c3 -7 12 -14 22 -14 13 -2 13 -1 1 3 -8 2 -13 9 -10 14 4
5 1 9 -5 9 -7 0 -10 -6 -8 -12z"/>
<path d="M1576 1846 c3 -9 13 -16 22 -16 8 0 13 1 11 3 -2 1 -12 9 -22 16 -15
12 -17 12 -11 -3z"/>
<path d="M914 1834 c3 -8 6 -18 6 -20 0 -2 8 -4 18 -3 10 0 12 3 4 6 -6 2 -10
8 -7 13 3 4 -2 11 -11 14 -12 5 -15 2 -10 -10z"/>
<path d="M1002 1828 c7 -15 15 -23 17 -17 2 6 -4 18 -13 27 -15 15 -15 15 -4
-10z"/>
<path d="M1398 1843 c7 -3 16 -2 19 1 4 3 -2 6 -13 5 -11 0 -14 -3 -6 -6z"/>
<path d="M964 1814 c0 -13 5 -24 12 -24 7 0 10 8 7 20 -8 30 -19 32 -19 4z"/>
<path d="M1120 1831 c0 -6 4 -13 10 -16 6 -3 7 1 4 9 -7 18 -14 21 -14 7z"/>
<path d="M1231 1817 c-8 -10 -7 -14 4 -14 8 0 16 6 19 14 3 7 2 13 -3 13 -5 0
-14 -6 -20 -13z"/>
<path d="M1171 1806 c-10 -12 -8 -13 8 -9 12 3 18 9 15 14 -7 12 -10 11 -23
-5z"/>
<path d="M1307 1803 c-4 -3 -7 -11 -7 -17 0 -6 5 -5 12 2 6 6 9 14 7 17 -3 3
-9 2 -12 -2z"/>
<path d="M1390 1795 c-9 -10 -9 -15 -1 -15 6 0 11 5 11 11 0 5 5 7 10 4 6 -3
10 -1 10 4 0 16 -16 13 -30 -4z"/>
<path d="M1593 1795 c0 -8 4 -12 9 -9 5 3 6 10 3 15 -9 13 -12 11 -12 -6z"/>
<path d="M1620 1795 c0 -8 2 -15 4 -15 2 0 6 7 10 15 3 8 1 15 -4 15 -6 0 -10
-7 -10 -15z"/>
<path d="M640 1781 c0 -6 5 -13 12 -17 6 -4 8 -3 4 4 -3 6 2 13 11 15 14 4 13
5 -4 6 -13 0 -23 -3 -23 -8z"/>
<path d="M831 1744 c0 -11 3 -14 6 -6 3 7 2 16 -1 19 -3 4 -6 -2 -5 -13z"/>
<path d="M1305 1750 c3 -5 8 -10 11 -10 2 0 4 5 4 10 0 6 -5 10 -11 10 -5 0
-7 -4 -4 -10z"/>
<path d="M460 1738 c-16 -7 -20 -12 -12 -15 8 -3 21 2 30 11 19 18 17 19 -18
4z"/>
<path d="M1053 1725 c0 -8 4 -12 9 -9 5 3 6 10 3 15 -9 13 -12 11 -12 -6z"/>
<path d="M1608 1733 c7 -3 16 -2 19 1 4 3 -2 6 -13 5 -11 0 -14 -3 -6 -6z"/>
<path d="M500 1720 c-9 -6 -10 -10 -3 -10 6 0 15 5 18 10 8 12 4 12 -15 0z"/>
<path d="M579 1725 c-1 -3 -2 -9 -3 -14 0 -5 -4 -13 -8 -17 -5 -4 -8 -12 -8
-18 0 -17 20 8 25 32 3 18 -2 33 -6 17z"/>
<path d="M695 1700 c3 -5 8 -10 11 -10 2 0 4 5 4 10 0 6 -5 10 -11 10 -5 0 -7
-4 -4 -10z"/>
<path d="M752 1701 c2 -19 -4 -22 -19 -10 -11 10 -14 10 -9 2 4 -7 2 -13 -3
-13 -6 0 -11 -4 -11 -9 0 -11 19 -9 38 3 9 5 13 3 11 -5 -5 -42 24 -57 36 -19
9 27 25 25 17 -2 -5 -19 -4 -20 10 -7 9 7 14 17 12 21 -2 3 2 9 8 11 7 3 1 6
-13 6 -17 1 -33 -8 -43 -21 l-17 -23 11 23 c6 12 7 22 3 22 -4 0 -2 4 5 9 10
6 7 10 -12 13 -14 3 -25 2 -24 -1z"/>
<path d="M1089 1698 c-1 -7 -1 -16 0 -20 0 -5 -6 -8 -16 -8 -9 0 -13 -3 -10
-6 7 -7 77 23 77 33 0 4 -3 3 -6 0 -4 -3 -15 -2 -25 4 -14 7 -19 6 -20 -3z"/>
<path d="M1280 1695 c0 -7 5 -17 12 -21 6 -4 8 -3 4 4 -3 5 -1 12 6 14 8 3 6
7 -5 11 -11 4 -17 1 -17 -8z"/>
<path d="M640 1690 c0 -13 11 -13 30 0 12 8 11 10 -7 10 -13 0 -23 -4 -23 -10z"/>
<path d="M865 1664 c-19 -47 -19 -47 8 -21 14 13 20 27 15 33 -4 6 -5 14 -1
17 3 4 3 7 0 7 -4 0 -14 -16 -22 -36z"/>
<path d="M953 1688 c-2 -5 1 -8 7 -8 6 0 9 -4 6 -9 -3 -4 5 -7 17 -6 12 1 28
3 35 4 6 0 12 8 12 16 0 11 -10 14 -36 12 -20 -1 -38 -5 -41 -9z"/>
<path d="M1175 1690 c-3 -5 1 -10 9 -10 9 0 16 5 16 10 0 6 -4 10 -9 10 -6 0
-13 -4 -16 -10z"/>
<path d="M1217 1680 c-9 -11 -23 -20 -31 -20 -8 0 -18 -5 -22 -12 -4 -7 -3 -8
4 -4 7 4 12 0 12 -10 0 -10 3 -14 8 -10 4 4 7 13 7 19 0 7 6 12 13 11 48 -4
48 -4 32 -15 -12 -9 -11 -9 5 -4 11 4 29 7 40 7 15 -1 17 1 5 8 -8 5 -18 6
-22 4 -4 -3 -8 3 -8 13 0 15 -2 16 -10 3 -9 -13 -10 -13 -11 0 -1 8 -1 18 0
23 2 11 -3 8 -22 -13z"/>
<path d="M510 1680 c-9 -6 -10 -10 -3 -10 6 0 15 5 18 10 8 12 4 12 -15 0z"/>
<path d="M612 1679 c3 -8 1 -22 -4 -31 -5 -11 -5 -18 1 -18 5 0 18 -3 28 -6
14 -5 15 -4 4 4 -8 6 -12 16 -9 24 3 7 -1 19 -10 27 -13 12 -14 12 -10 0z"/>
<path d="M920 1665 c0 -17 4 -23 14 -19 8 3 12 13 9 25 -7 27 -23 24 -23 -6z"/>
<path d="M1338 1683 c6 -2 18 -2 25 0 6 3 1 5 -13 5 -14 0 -19 -2 -12 -5z"/>
<path d="M1461 1671 c-1 -20 1 -21 14 -11 16 14 21 25 6 16 -5 -4 -12 0 -14 6
-3 7 -6 2 -6 -11z"/>
<path d="M1547 1683 c-16 -16 -6 -30 18 -25 20 3 23 7 14 18 -13 15 -22 17
-32 7z"/>
<path d="M651 1653 c0 -5 5 -17 10 -28 9 -18 9 -18 5 3 -4 20 -2 21 12 10 9
-8 13 -8 9 -1 -4 6 -1 14 5 16 7 3 1 6 -14 6 -16 1 -28 -2 -27 -6z"/>
<path d="M1010 1649 c0 -5 5 -7 10 -4 6 3 10 8 10 11 0 2 -4 4 -10 4 -5 0 -10
-5 -10 -11z"/>
<path d="M386 1633 c-6 -14 -5 -15 5 -6 7 7 10 15 7 18 -3 3 -9 -2 -12 -12z"/>
<path d="M459 1642 c11 -8 11 -10 0 -15 -10 -4 -8 -6 4 -6 21 -1 18 21 -4 27
-12 3 -12 2 0 -6z"/>
<path d="M1580 1634 c0 -8 5 -12 10 -9 6 3 10 10 10 16 0 5 -4 9 -10 9 -5 0
-10 -7 -10 -16z"/>
<path d="M416 1627 c-16 -12 -16 -13 2 -13 10 0 19 6 19 13 0 7 -1 13 -2 13
-1 0 -9 -6 -19 -13z"/>
<path d="M520 1633 c7 -3 5 -10 -6 -17 -13 -10 -14 -15 -4 -21 9 -5 11 -4 6 3
-4 7 -1 12 9 12 19 0 16 22 -3 26 -8 2 -8 0 -2 -3z"/>
<path d="M1055 1630 c-3 -6 1 -7 9 -4 18 7 21 14 7 14 -6 0 -13 -4 -16 -10z"/>
<path d="M1342 1624 c-7 -8 -8 -14 -3 -14 10 0 25 19 20 25 -2 1 -10 -3 -17
-11z"/>
<path d="M1375 1630 c3 -5 8 -10 11 -10 2 0 4 5 4 10 0 6 -5 10 -11 10 -5 0
-7 -4 -4 -10z"/>
<path d="M450 1599 c0 -5 5 -7 10 -4 6 3 10 8 10 11 0 2 -4 4 -10 4 -5 0 -10
-5 -10 -11z"/>
<path d="M618 1603 c7 -3 16 -2 19 1 4 3 -2 6 -13 5 -11 0 -14 -3 -6 -6z"/>
<path d="M1230 1595 c0 -9 9 -15 23 -14 20 1 20 2 2 7 l-20 5 20 8 c19 7 19 8
-2 8 -14 1 -23 -5 -23 -14z"/>
<path d="M711 1581 c-8 -5 -9 -11 -3 -15 5 -3 12 1 16 9 6 17 6 18 -13 6z"/>
<path d="M900 1586 c0 -2 7 -6 15 -10 8 -3 15 -1 15 4 0 6 -7 10 -15 10 -8 0
-15 -2 -15 -4z"/>
<path d="M880 1554 c0 -7 5 -16 12 -20 6 -4 8 -3 4 4 -4 6 5 12 21 14 28 3 28
4 -4 9 -23 4 -33 2 -33 -7z"/>
<path d="M760 1556 c0 -2 7 -6 15 -10 8 -3 15 -1 15 4 0 6 -7 10 -15 10 -8 0
-15 -2 -15 -4z"/>
<path d="M958 1553 c7 -3 16 -2 19 1 4 3 -2 6 -13 5 -11 0 -14 -3 -6 -6z"/>
<path d="M1125 1550 c3 -5 8 -10 11 -10 2 0 4 5 4 10 0 6 -5 10 -11 10 -5 0
-7 -4 -4 -10z"/>
<path d="M665 1540 c3 -5 10 -10 16 -10 5 0 9 5 9 10 0 6 -7 10 -16 10 -8 0
-12 -4 -9 -10z"/>
<path d="M850 1535 c0 -8 4 -15 10 -15 5 0 7 7 4 15 -4 8 -8 15 -10 15 -2 0
-4 -7 -4 -15z"/>
<path d="M1160 1539 c0 -4 7 -10 16 -13 8 -3 13 -2 9 3 -3 5 1 11 7 14 7 3 3
4 -9 4 -13 -1 -23 -4 -23 -8z"/>
<path d="M1261 1540 c-12 -7 -11 -14 3 -45 17 -36 36 -42 44 -14 3 11 2 12 -6
0 -7 -10 -13 -6 -25 17 -11 22 -12 32 -3 35 6 2 9 7 6 10 -3 3 -12 2 -19 -3z"/>
<path d="M1354 1533 c5 -9 0 -13 -15 -13 -38 0 -16 -7 44 -14 31 -3 57 -3 57
1 0 5 -14 9 -31 10 -17 1 -38 8 -47 15 -12 10 -14 10 -8 1z"/>
<path d="M1033 1500 c-3 -10 -17 -21 -31 -25 l-27 -7 24 -9 c31 -12 36 -7 40
37 1 11 7 13 21 9 11 -3 20 -3 20 2 0 18 -42 12 -47 -7z"/>
<path d="M1203 1494 c-24 -25 -30 -40 -14 -29 5 3 12 1 16 -5 12 -19 20 -10
22 25 1 19 1 35 0 34 -1 -1 -12 -12 -24 -25z"/>
<path d="M840 1500 c0 -5 5 -10 11 -10 5 0 7 5 4 10 -3 6 -8 10 -11 10 -2 0
-4 -4 -4 -10z"/>
<path d="M1060 1475 c0 -8 5 -15 10 -15 6 0 10 7 10 15 0 8 -4 15 -10 15 -5 0
-10 -7 -10 -15z"/>
<path d="M1120 1459 c0 -11 4 -18 10 -14 5 3 7 12 3 20 -7 21 -13 19 -13 -6z"/>
<path d="M1153 1465 c0 -8 4 -15 9 -15 4 0 8 4 8 9 0 6 -4 12 -8 15 -5 3 -9
-1 -9 -9z"/>
<path d="M1427 1474 c-11 -12 -8 -44 5 -44 6 0 9 3 5 6 -3 4 2 14 11 23 10 9
13 12 6 8 -7 -4 -14 -3 -16 3 -2 6 -7 8 -11 4z"/>
<path d="M1095 1460 c-3 -5 -1 -10 4 -10 6 0 11 5 11 10 0 6 -2 10 -4 10 -3 0
-8 -4 -11 -10z"/>
<path d="M1323 1454 c-9 -9 -10 -15 -2 -20 14 -8 30 8 21 22 -5 9 -10 8 -19
-2z"/>
<path d="M1399 1460 c-1 -5 -3 -14 -4 -20 -1 -5 -3 -13 -4 -16 0 -4 -8 -1 -16
6 -10 9 -15 9 -15 1 0 -6 4 -11 10 -11 6 0 6 -9 1 -22 -5 -13 -14 -22 -20 -20
-17 3 -13 -13 9 -33 11 -10 23 -15 27 -12 3 4 0 7 -8 7 -12 0 -11 2 1 11 13 9
12 10 -2 5 -24 -7 -22 6 5 35 20 23 37 79 23 79 -3 0 -7 -4 -7 -10z"/>
<path d="M1008 1433 c7 -3 16 -2 19 1 4 3 -2 6 -13 5 -11 0 -14 -3 -6 -6z"/>
<path d="M1162 1431 c-11 -6 -9 -9 6 -13 15 -4 19 -2 15 8 -6 16 -4 16 -21 5z"/>
<path d="M1120 1415 c0 -8 4 -15 10 -15 5 0 7 7 4 15 -4 8 -8 15 -10 15 -2 0
-4 -7 -4 -15z"/>
<path d="M1265 1410 c-3 -5 -2 -10 4 -10 5 0 13 5 16 10 3 6 2 10 -4 10 -5 0
-13 -4 -16 -10z"/>
<path d="M1313 1385 c-10 -10 -9 -14 2 -18 7 -3 16 1 19 8 7 20 -6 26 -21 10z"/>
<path d="M1891 1994 c0 -11 3 -14 6 -6 3 7 2 16 -1 19 -3 4 -6 -2 -5 -13z"/>
<path d="M2035 1960 c-3 -5 1 -10 10 -10 9 0 13 5 10 10 -3 6 -8 10 -10 10 -2
0 -7 -4 -10 -10z"/>
<path d="M1988 1953 c7 -3 16 -2 19 1 4 3 -2 6 -13 5 -11 0 -14 -3 -6 -6z"/>
<path d="M1967 1928 c-6 -4 7 -6 30 -5 23 0 39 5 37 9 -6 9 -50 7 -67 -4z"/>
<path d="M2076 1923 c-6 -14 -5 -15 5 -6 7 7 10 15 7 18 -3 3 -9 -2 -12 -12z"/>
<path d="M2185 1905 c33 -28 54 -33 35 -10 -7 8 -19 15 -26 15 -8 0 -14 5 -14
10 0 6 -6 10 -12 10 -7 -1 1 -12 17 -25z"/>
<path d="M2450 1916 c0 -10 -4 -14 -12 -10 -6 4 -8 3 -4 -4 3 -5 0 -13 -6 -15
-7 -3 -8 -6 -3 -6 6 0 19 6 29 14 16 12 17 18 8 27 -9 9 -12 8 -12 -6z"/>
<path d="M2300 1900 c8 -5 23 -10 33 -10 9 0 17 -5 17 -11 0 -5 -4 -7 -10 -4
-5 3 -10 -1 -10 -9 0 -9 -5 -16 -10 -16 -6 0 -10 7 -8 16 2 10 -3 19 -9 21
-15 5 -17 -16 -3 -37 7 -12 13 -12 33 -1 14 7 38 14 55 14 17 1 28 6 25 10 -3
5 -16 6 -30 2 -14 -3 -22 -2 -19 4 3 5 -8 14 -26 20 -38 14 -58 14 -38 1z"/>
<path d="M2390 1900 c-9 -6 -10 -10 -3 -10 6 0 15 5 18 10 8 12 4 12 -15 0z"/>
<path d="M2486 1896 c3 -9 -4 -16 -22 -20 -35 -9 -23 -19 26 -21 38 -1 39 -1
23 17 -13 14 -13 18 -2 18 11 0 11 2 -1 10 -21 14 -30 12 -24 -4z"/>
<path d="M2160 1890 c0 -6 7 -10 15 -10 8 0 15 2 15 4 0 2 -7 6 -15 10 -8 3
-15 1 -15 -4z"/>
<path d="M2540 1889 c0 -5 5 -7 10 -4 6 3 10 8 10 11 0 2 -4 4 -10 4 -5 0 -10
-5 -10 -11z"/>
<path d="M2571 1887 c-1 -26 24 -48 45 -40 12 4 15 3 10 -5 -4 -7 -3 -12 2
-12 14 0 21 -48 8 -54 -7 -3 -7 -5 0 -5 5 -1 19 6 30 15 10 8 12 12 4 8 -13
-7 -13 -5 -2 8 10 13 9 16 -9 21 -16 4 -20 11 -15 24 4 9 4 14 0 11 -3 -4 -13
-1 -20 7 -8 8 -21 12 -28 9 -8 -3 -16 2 -19 13 -5 17 -5 17 -6 0z"/>
<path d="M2680 1869 c0 -7 -8 -18 -17 -25 -17 -12 -16 -13 5 -14 17 0 22 6 22
25 0 14 -2 25 -5 25 -3 0 -5 -5 -5 -11z"/>
<path d="M2260 1859 c0 -6 -7 -9 -15 -5 -8 3 -15 1 -15 -4 0 -6 11 -10 25 -10
18 0 23 4 19 15 -7 18 -14 20 -14 4z"/>
<path d="M2715 1860 c3 -5 8 -10 11 -10 2 0 4 5 4 10 0 6 -5 10 -11 10 -5 0
-7 -4 -4 -10z"/>
<path d="M2544 1845 c3 -21 16 -31 16 -12 0 9 -4 18 -9 21 -5 4 -8 -1 -7 -9z"/>
<path d="M1927 1833 c-10 -9 -9 -23 1 -23 5 0 9 7 9 15 0 17 -1 18 -10 8z"/>
<path d="M2500 1836 c0 -2 7 -7 16 -10 8 -3 12 -2 9 4 -6 10 -25 14 -25 6z"/>
<path d="M2236 1814 c-8 -22 -8 -26 3 -20 5 4 11 1 13 -5 2 -7 9 -5 17 5 12
14 12 16 -4 9 -14 -5 -17 -3 -12 10 3 9 2 17 -2 17 -5 0 -12 -7 -15 -16z"/>
<path d="M1885 1800 c-3 -5 -1 -10 4 -10 6 0 11 5 11 10 0 6 -2 10 -4 10 -3 0
-8 -4 -11 -10z"/>
<path d="M2290 1795 c-7 -8 -8 -15 -2 -15 5 0 15 7 22 15 7 8 8 15 2 15 -5 0
-15 -7 -22 -15z"/>
<path d="M2494 1802 c3 -6 -2 -15 -11 -21 -16 -9 -16 -10 -2 -11 20 0 33 27
17 36 -6 4 -8 3 -4 -4z"/>
<path d="M2580 1800 c7 -4 15 -12 19 -18 4 -7 10 -5 17 6 9 15 7 17 -18 18
-17 1 -24 -2 -18 -6z"/>
<path d="M2380 1788 c-12 -8 -12 -9 2 -4 10 3 20 1 23 -4 4 -6 16 -9 28 -9 20
1 21 2 2 6 -11 3 -25 9 -30 14 -6 4 -17 3 -25 -3z"/>
<path d="M2545 1780 c-3 -5 -1 -10 4 -10 6 0 11 5 11 10 0 6 -2 10 -4 10 -3 0
-8 -4 -11 -10z"/>
<path d="M2570 1781 c0 -6 4 -12 8 -15 5 -3 9 1 9 9 0 8 -4 15 -9 15 -4 0 -8
-4 -8 -9z"/>
<path d="M2102 1751 c-11 -7 -11 -9 2 -14 9 -4 16 -14 16 -22 0 -9 -4 -13 -10
-10 -5 3 -10 1 -10 -4 0 -6 7 -11 15 -11 8 0 15 7 15 15 0 8 6 15 13 16 6 0 2
4 -11 10 -13 5 -20 13 -17 19 7 12 4 12 -13 1z"/>
<path d="M2375 1740 c3 -5 11 -10 16 -10 6 0 7 5 4 10 -3 6 -11 10 -16 10 -6
0 -7 -4 -4 -10z"/>
<path d="M2563 1727 c0 -9 13 -13 44 -13 45 1 67 -18 32 -29 -11 -4 -19 -9
-17 -11 3 -2 24 2 49 10 24 8 37 14 27 15 -9 1 -18 6 -20 13 -3 7 -22 13 -44
14 -21 0 -46 4 -55 8 -10 4 -16 2 -16 -7z"/>
<path d="M2413 1723 c-19 -7 -16 -19 6 -20 14 -1 18 3 14 13 -3 8 -6 14 -7 13
0 0 -7 -3 -13 -6z"/>
<path d="M2582 1687 c-7 -8 -6 -18 4 -31 13 -19 14 -19 14 6 0 17 6 28 18 31
13 4 13 5 -4 6 -12 0 -26 -5 -32 -12z"/>
<path d="M2170 1680 c0 -5 5 -10 11 -10 5 0 7 5 4 10 -3 6 -8 10 -11 10 -2 0
-4 -4 -4 -10z"/>
<path d="M2310 1679 c0 -5 5 -7 10 -4 6 3 10 8 10 11 0 2 -4 4 -10 4 -5 0 -10
-5 -10 -11z"/>
<path d="M2523 1669 c15 -24 37 -25 37 -1 0 11 -8 17 -24 18 -22 2 -23 0 -13
-17z"/>
<path d="M2110 1668 c0 -4 4 -8 9 -8 6 0 12 4 15 8 3 5 -1 9 -9 9 -8 0 -15 -4
-15 -9z"/>
<path d="M2370 1655 c0 -8 2 -15 4 -15 2 0 6 7 10 15 3 8 1 15 -4 15 -6 0 -10
-7 -10 -15z"/>
<path d="M2410 1661 c0 -5 7 -12 16 -15 24 -9 27 -7 10 9 -17 17 -26 19 -26 6z"/>
<path d="M2160 1636 c0 -2 7 -7 16 -10 8 -3 12 -2 9 4 -6 10 -25 14 -25 6z"/>
<path d="M2513 1623 c-7 -2 -13 -11 -13 -19 0 -7 6 -11 13 -8 8 3 14 11 14 19
0 8 -1 15 -1 14 -1 0 -7 -3 -13 -6z"/>
<path d="M2608 1613 c7 -3 16 -2 19 1 4 3 -2 6 -13 5 -11 0 -14 -3 -6 -6z"/>
<path d="M2551 1596 c-15 -8 -20 -16 -12 -20 6 -4 11 -2 11 3 0 6 4 11 9 11 5
0 8 -8 6 -17 -2 -10 -4 -21 -4 -25 -1 -5 -8 -8 -16 -8 -17 0 -20 -16 -5 -25 6
-3 10 -1 10 4 0 6 5 11 11 11 5 0 7 -6 3 -12 -4 -7 -3 -10 1 -5 6 5 17 98 11
97 0 -1 -12 -7 -25 -14z"/>
<path d="M2052 1569 c-15 -23 -15 -29 -2 -29 6 0 10 7 10 15 0 22 17 18 23 -6
3 -12 10 -18 15 -15 6 3 13 0 15 -6 3 -8 6 -6 6 5 1 9 -6 17 -14 17 -8 0 -15
6 -15 14 0 22 -25 26 -38 5z"/>
<path d="M2596 1574 c-8 -22 -8 -49 1 -40 8 8 16 56 9 56 -2 0 -7 -7 -10 -16z"/>
<path d="M1968 1568 c5 -5 16 -8 23 -6 8 3 3 7 -10 11 -17 4 -21 3 -13 -5z"/>
<path d="M2015 1570 c3 -5 8 -10 11 -10 2 0 4 5 4 10 0 6 -5 10 -11 10 -5 0
-7 -4 -4 -10z"/>
<path d="M2205 1570 c-3 -5 -1 -10 4 -10 6 0 11 5 11 10 0 6 -2 10 -4 10 -3 0
-8 -4 -11 -10z"/>
<path d="M2267 1561 c3 -12 9 -21 14 -21 14 0 11 16 -5 29 -12 10 -13 8 -9 -8z"/>
<path d="M1760 1561 c0 -6 4 -12 8 -15 5 -3 9 1 9 9 0 8 -4 15 -9 15 -4 0 -8
-4 -8 -9z"/>
<path d="M2145 1553 c11 -3 23 -10 27 -17 5 -7 8 -5 8 7 0 12 -7 17 -27 16
-22 -1 -23 -2 -8 -6z"/>
<path d="M2325 1550 c-3 -5 -1 -10 4 -10 6 0 11 5 11 10 0 6 -2 10 -4 10 -3 0
-8 -4 -11 -10z"/>
<path d="M2505 1550 c-16 -7 -17 -9 -3 -9 9 -1 20 4 23 9 7 11 7 11 -20 0z"/>
<path d="M2230 1519 c0 -4 7 -10 16 -13 8 -3 13 -2 9 3 -3 5 1 11 7 14 7 3 3
4 -9 4 -13 -1 -23 -4 -23 -8z"/>
<path d="M2443 1513 c14 -14 19 -15 29 -4 11 11 10 13 -4 8 -10 -4 -18 -2 -18
3 0 6 -5 10 -12 10 -8 0 -6 -6 5 -17z"/>
<path d="M2352 1508 c2 -6 10 -13 16 -14 7 -1 8 0 2 3 -5 2 -8 9 -4 14 3 5 0
9 -6 9 -7 0 -10 -5 -8 -12z"/>
<path d="M2500 1504 c0 -9 -10 -26 -22 -37 -17 -15 -18 -18 -5 -14 10 4 17 2
17 -5 0 -19 29 25 30 44 0 9 -4 20 -10 23 -5 3 -10 -1 -10 -11z"/>
<path d="M1680 1490 c0 -5 5 -10 11 -10 5 0 7 5 4 10 -3 6 -8 10 -11 10 -2 0
-4 -4 -4 -10z"/>
<path d="M1715 1490 c-3 -5 1 -10 9 -10 9 0 16 5 16 10 0 6 -4 10 -9 10 -6 0
-13 -4 -16 -10z"/>
<path d="M2203 1472 c1 -12 6 -18 15 -15 7 3 10 9 5 12 -4 3 -11 10 -15 15 -4
4 -6 -1 -5 -12z"/>
<path d="M2535 1472 c2 -9 4 -21 4 -25 1 -11 31 19 31 30 0 5 -9 9 -19 10 -13
1 -18 -4 -16 -15z"/>
<path d="M1800 1469 c0 -5 -5 -7 -12 -3 -7 4 -8 3 -4 -4 10 -17 33 -15 33 3 0
8 -4 15 -9 15 -4 0 -8 -5 -8 -11z"/>
<path d="M1937 1457 c-3 -8 1 -14 8 -14 7 0 11 6 8 14 -3 7 -6 13 -8 13 -2 0
-5 -6 -8 -13z"/>
<path d="M2058 1463 c6 -2 18 -2 25 0 6 3 1 5 -13 5 -14 0 -19 -2 -12 -5z"/>
<path d="M2100 1466 c0 -2 11 -6 25 -8 13 -3 22 -1 19 3 -5 9 -44 13 -44 5z"/>
<path d="M2283 1455 c-3 -9 -3 -19 1 -22 3 -4 6 1 6 11 0 10 5 14 12 10 7 -4
8 -3 4 4 -10 16 -15 15 -23 -3z"/>
<path d="M2514 1437 c-11 -13 -8 -37 6 -37 4 0 8 11 8 25 0 14 -1 25 -2 25 0
-1 -6 -6 -12 -13z"/>
<path d="M1702 1419 c-16 -25 -15 -38 1 -17 9 11 18 14 28 7 8 -5 9 -9 4 -9
-6 0 -11 -9 -12 -21 -2 -19 0 -19 23 6 27 30 30 37 10 29 -7 -3 -20 1 -28 9
-13 13 -16 13 -26 -4z"/>
<path d="M2005 1430 c3 -5 8 -10 11 -10 2 0 4 5 4 10 0 6 -5 10 -11 10 -5 0
-7 -4 -4 -10z"/>
<path d="M2190 1430 c-9 -6 -10 -10 -3 -10 6 0 15 5 18 10 8 12 4 12 -15 0z"/>
<path d="M1666 1415 c4 -8 8 -15 10 -15 2 0 4 7 4 15 0 8 -4 15 -10 15 -5 0
-7 -7 -4 -15z"/>
<path d="M2404 1419 c-4 -7 -3 -9 4 -5 5 3 13 0 15 -6 4 -9 6 -10 6 -1 1 17
-16 25 -25 12z"/>
<path d="M2280 1416 c0 -2 7 -6 15 -10 8 -3 15 -1 15 4 0 6 -7 10 -15 10 -8 0
-15 -2 -15 -4z"/>
<path d="M2358 1413 c7 -3 16 -2 19 1 4 3 -2 6 -13 5 -11 0 -14 -3 -6 -6z"/>
<path d="M1826 1395 c13 -10 15 -14 5 -15 -8 0 -12 -3 -8 -6 3 -3 11 -3 17 1
13 8 -5 35 -23 35 -6 0 -2 -7 9 -15z"/>
<path d="M2465 1397 c-4 -10 -5 -21 -1 -24 10 -10 18 4 13 24 -4 17 -4 17 -12
0z"/>
<path d="M2195 1390 c3 -5 8 -10 11 -10 2 0 4 5 4 10 0 6 -5 10 -11 10 -5 0
-7 -4 -4 -10z"/>
<path d="M2350 1390 c-8 -5 -10 -10 -5 -10 6 0 17 5 25 10 8 5 11 10 5 10 -5
0 -17 -5 -25 -10z"/>
<path d="M1750 1370 c-7 -14 -7 -20 0 -20 5 0 10 5 10 11 0 5 5 7 10 4 6 -3
10 1 10 9 0 22 -17 20 -30 -4z"/>
<path d="M2238 1373 c6 -2 18 -2 25 0 6 3 1 5 -13 5 -14 0 -19 -2 -12 -5z"/>
<path d="M1799 1346 c10 -12 8 -13 -10 -9 -15 4 -20 3 -15 -5 4 -7 0 -15 -9
-18 -9 -4 -14 -13 -11 -20 3 -8 0 -11 -8 -8 -8 3 -17 0 -21 -6 -5 -8 3 -10 26
-8 19 2 35 9 35 16 1 6 2 17 3 22 1 13 31 13 31 1 0 -6 -4 -13 -10 -16 -5 -3
-10 -14 -9 -23 0 -11 2 -12 6 -4 2 6 9 10 14 6 5 -3 9 0 9 5 0 6 11 11 25 11
18 0 23 4 19 15 -7 18 0 19 28 4 15 -8 19 -8 14 0 -4 6 0 11 8 11 10 0 13 -6
10 -15 -4 -10 0 -15 14 -15 11 0 27 -3 36 -6 11 -4 16 -1 16 11 0 12 5 15 18
11 15 -5 14 -4 -2 9 -13 10 -24 11 -37 5 -25 -14 -32 -12 -26 4 5 11 -1 14
-24 11 -16 -2 -29 1 -29 6 0 5 -9 9 -20 9 -11 0 -20 -7 -20 -15 0 -19 -16 -20
-27 -2 -4 8 -17 17 -27 20 -16 6 -17 5 -7 -7z"/>
<path d="M1656 1325 c-3 -8 -1 -15 4 -15 5 0 7 -7 4 -15 -4 -8 -3 -15 1 -15
11 0 44 44 38 52 -8 14 -41 9 -47 -7z"/>
<path d="M1720 1324 c0 -7 -8 -17 -17 -23 -10 -5 -14 -13 -9 -18 5 -4 11 -2
13 5 3 6 12 12 21 12 8 0 12 3 9 7 -4 3 -2 11 3 18 7 8 5 12 -5 12 -8 0 -15
-6 -15 -13z"/>
<path d="M2295 1329 c-4 -6 -13 -8 -21 -5 -8 3 -14 1 -14 -3 0 -9 24 -21 40
-21 5 0 8 9 7 20 -1 23 -3 24 -12 9z"/>
<path d="M2135 1320 c-3 -6 1 -7 9 -4 18 7 21 14 7 14 -6 0 -13 -4 -16 -10z"/>
<path d="M2320 1324 c0 -10 28 -34 52 -44 23 -10 23 -10 -3 -7 -27 4 -37 -18
-12 -27 7 -3 13 -1 13 4 0 6 7 10 15 10 8 0 15 7 15 15 0 8 -9 15 -20 15 -11
0 -23 6 -26 14 -5 14 -34 31 -34 20z"/>
<path d="M2045 1300 c-8 -13 5 -13 25 0 13 8 13 10 -2 10 -9 0 -20 -4 -23 -10z"/>
<path d="M2236 1296 c4 -10 1 -16 -7 -16 -24 -1 23 -30 47 -30 16 0 22 6 21
19 -1 15 -5 17 -18 10 -24 -12 -29 -11 -29 5 0 8 -4 18 -10 21 -6 3 -7 -1 -4
-9z"/>
<path d="M1596 1291 c-4 -5 1 -8 9 -7 21 3 31 16 12 16 -9 0 -18 -4 -21 -9z"/>
<path d="M2145 1290 c-3 -6 1 -7 9 -4 18 7 21 14 7 14 -6 0 -13 -4 -16 -10z"/>
<path d="M2310 1289 c0 -5 5 -7 10 -4 6 3 10 8 10 11 0 2 -4 4 -10 4 -5 0 -10
-5 -10 -11z"/>
<path d="M2020 1265 c0 -6 7 -12 15 -12 8 0 15 6 15 12 0 6 -7 12 -15 12 -8 0
-15 -6 -15 -12z"/>
<path d="M2150 1250 c0 -16 20 -22 34 -11 7 6 16 9 19 6 4 -3 5 -2 2 2 -8 10
-55 13 -55 3z"/>
<path d="M2185 1210 c3 -5 8 -10 11 -10 2 0 4 5 4 10 0 6 -5 10 -11 10 -5 0
-7 -4 -4 -10z"/>
</g>
</svg>
