<?xml version="1.0" standalone="no"?>
<!DOCTYPE svg PUBLIC "-//W3C//DTD SVG 20010904//EN"
 "http://www.w3.org/TR/2001/REC-SVG-20010904/DTD/svg10.dtd">
<svg version="1.0" xmlns="http://www.w3.org/2000/svg"
 width="531.000000pt" height="435.000000pt" viewBox="0 0 531.000000 435.000000"
 preserveAspectRatio="xMidYMid meet">
<metadata>
Created by potrace 1.16, written by Peter Selinger 2001-2019
</metadata>
<g transform="translate(0.000000,435.000000) scale(0.100000,-0.100000)"
fill="#000000" stroke="none">
<path d="M3940 4059 c-45 -40 -107 -76 -145 -85 -16 -4 -34 -10 -40 -14 -5 -4
-46 -22 -90 -39 -44 -18 -120 -53 -170 -77 -49 -24 -146 -66 -215 -93 -69 -27
-163 -66 -210 -86 -170 -74 -199 -85 -242 -91 -25 -4 -59 -20 -81 -38 -31 -25
-37 -35 -32 -55 4 -14 16 -34 28 -46 33 -31 95 -126 102 -157 8 -33 -40 -142
-84 -191 -16 -18 -38 -43 -48 -56 -17 -21 -28 -24 -99 -25 -43 -1 -87 2 -96 6
-11 5 -20 3 -25 -5 -4 -7 -26 -24 -48 -36 -22 -13 -65 -49 -95 -80 -30 -31
-65 -62 -77 -70 -12 -8 -20 -18 -17 -23 3 -4 -2 -20 -10 -36 -8 -16 -13 -32
-10 -35 4 -3 -3 -18 -14 -34 -11 -15 -23 -48 -26 -73 -4 -25 -13 -65 -21 -90
-7 -25 -17 -63 -21 -85 -4 -22 -9 -47 -11 -55 -3 -8 -6 -40 -8 -70 -3 -52 -54
-196 -92 -261 -29 -49 -67 -57 -298 -64 -164 -5 -279 -15 -415 -37 -36 -5 -98
-14 -139 -18 -41 -5 -77 -13 -80 -18 -3 -6 -35 -20 -71 -32 -36 -11 -79 -27
-95 -35 -17 -8 -43 -16 -59 -19 -16 -3 -32 -9 -35 -14 -3 -5 -21 -12 -39 -15
-18 -4 -40 -14 -48 -22 -9 -8 -24 -15 -34 -15 -10 0 -22 -5 -25 -10 -4 -6 -11
-8 -16 -5 -5 4 -9 2 -9 -4 0 -5 -21 -23 -47 -39 -75 -46 -161 -129 -183 -175
-11 -23 -35 -69 -54 -101 -42 -72 -61 -163 -51 -246 4 -33 10 -60 14 -60 10 0
61 -115 61 -137 0 -10 4 -23 9 -29 5 -5 18 -38 30 -74 12 -36 26 -74 31 -85 5
-11 16 -43 25 -72 14 -46 75 -152 108 -189 24 -27 36 -39 49 -49 7 -6 33 -26
58 -46 25 -20 81 -53 125 -73 44 -21 98 -46 120 -57 22 -10 50 -19 63 -19 12
0 22 -4 22 -10 0 -5 8 -10 19 -10 10 0 38 -7 62 -16 24 -9 54 -16 67 -15 12 0
22 -3 22 -8 0 -5 26 -12 58 -16 72 -8 100 -12 137 -20 17 -3 64 -13 105 -21
90 -18 122 -24 175 -30 22 -2 72 -11 112 -20 39 -8 96 -15 125 -14 29 0 104 1
166 0 64 0 122 4 133 11 12 6 35 12 53 14 102 11 171 26 201 43 5 3 19 7 32 8
33 4 167 48 171 57 2 4 8 5 12 2 5 -3 35 6 67 21 32 14 96 39 143 55 103 36
140 52 140 60 0 4 8 10 18 13 22 8 47 24 104 65 41 29 63 60 59 84 -1 5 8 21
19 37 11 15 20 32 20 37 0 4 6 19 13 33 22 43 56 134 61 163 3 16 9 34 14 40
6 7 18 39 27 72 10 33 20 67 23 75 3 8 7 24 8 35 9 65 23 115 42 150 12 22 26
63 33 90 6 28 15 58 20 67 4 9 6 27 3 40 -3 13 -8 36 -11 53 -3 16 -11 42 -19
57 -8 15 -15 31 -15 35 -2 12 -19 54 -35 88 -49 101 -204 203 -409 269 -44 15
-87 29 -95 33 -8 3 -18 6 -21 5 -4 -1 -82 10 -174 23 -93 13 -171 24 -174 23
-3 0 -31 0 -62 1 l-56 1 -7 104 c-4 57 -10 119 -13 138 -14 72 -3 205 20 259
l15 37 104 -19 c56 -11 159 -22 228 -24 69 -3 136 -7 150 -9 14 -2 33 -4 43
-5 9 0 17 -7 17 -15 0 -8 9 -18 20 -21 11 -3 20 -11 20 -16 0 -5 6 -9 14 -9 8
0 29 -24 47 -52 19 -29 37 -54 41 -56 5 -2 8 -8 8 -14 0 -5 20 -41 45 -79 25
-38 45 -72 45 -74 0 -3 20 -36 44 -73 24 -38 54 -89 68 -113 13 -24 41 -71 63
-104 21 -33 50 -80 64 -105 13 -25 40 -70 60 -100 19 -30 51 -86 71 -125 40
-79 69 -125 87 -140 6 -5 26 -39 44 -75 18 -36 42 -76 54 -90 24 -28 134 -199
158 -247 9 -17 13 -33 10 -37 -4 -3 -2 -6 4 -6 5 0 20 -24 33 -52 48 -108 60
-134 80 -163 11 -16 20 -40 20 -51 0 -12 10 -33 21 -48 17 -22 27 -26 48 -21
14 4 29 13 34 20 4 8 13 12 20 9 11 -4 39 13 102 64 14 11 216 142 320 208 17
10 34 19 38 19 4 0 11 5 15 10 7 10 34 26 117 68 22 11 47 26 55 32 8 6 31 18
50 25 19 7 44 21 55 31 11 9 29 19 40 21 11 1 29 11 39 21 30 26 212 127 230
127 12 0 16 11 16 48 0 26 -5 53 -12 60 -15 15 -84 16 -101 2 -56 -47 -74 -60
-85 -60 -7 0 -15 -7 -18 -15 -4 -8 -12 -15 -20 -15 -8 0 -14 -4 -14 -8 0 -4
-16 -14 -35 -21 -19 -7 -35 -16 -35 -21 0 -5 -9 -12 -21 -15 -17 -6 -102 -61
-203 -132 -17 -12 -37 -22 -43 -22 -7 -1 -13 -5 -13 -11 0 -5 -9 -10 -19 -10
-34 0 -253 -124 -305 -172 -11 -10 -26 -18 -33 -18 -7 0 -13 -5 -13 -10 0 -6
-16 -18 -36 -27 -36 -18 -36 -17 -55 7 -11 14 -26 34 -35 45 -9 11 -25 37 -36
59 -11 21 -66 109 -124 196 -57 87 -120 187 -139 222 -43 75 -56 96 -73 117
-26 32 -122 169 -122 175 0 3 -8 15 -17 25 -28 30 -35 40 -104 139 -93 135
-92 135 -114 170 -11 17 -23 32 -27 32 -5 0 -8 7 -8 15 0 8 -5 15 -12 15 -6 0
-9 3 -5 6 3 4 -5 23 -18 43 -14 19 -25 39 -25 44 0 5 -11 23 -24 40 -14 18
-43 68 -66 112 -23 44 -51 89 -61 101 -11 11 -19 25 -19 31 0 7 -6 18 -13 25
-22 23 -57 89 -52 98 3 4 39 27 80 49 41 23 75 45 75 50 0 5 12 12 28 16 15 3
36 15 47 24 11 10 36 21 55 25 19 3 98 37 175 75 146 71 186 90 245 112 19 7
46 20 60 29 24 16 166 92 288 154 31 15 59 31 62 35 3 4 49 29 102 55 53 26
98 55 100 63 3 18 146 93 163 87 6 -3 17 -21 24 -42 16 -45 68 -162 81 -182 6
-8 17 -31 26 -50 9 -19 31 -64 49 -100 18 -36 36 -76 40 -90 4 -14 14 -32 22
-41 8 -9 36 -59 62 -110 101 -195 120 -231 133 -246 7 -8 28 -48 48 -87 19
-40 40 -71 47 -69 6 2 14 -1 18 -6 4 -7 14 -4 26 8 34 32 32 102 -5 164 -17
29 -40 72 -51 97 -10 25 -26 56 -35 70 -9 14 -27 50 -39 80 -13 30 -45 100
-71 155 -27 55 -55 115 -62 133 -7 17 -16 32 -20 32 -5 0 -8 6 -8 14 0 7 -10
24 -23 37 -13 13 -31 38 -40 54 -25 46 -111 233 -137 297 -14 34 -30 58 -42
61 -10 3 -18 11 -18 19 -1 7 -24 24 -53 37 -47 22 -103 61 -147 101 -9 8 -35
26 -59 40 -23 14 -61 39 -85 57 -23 17 -59 38 -79 47 -26 10 -37 21 -37 35 0
13 -7 21 -18 21 -21 0 -45 51 -62 133 -9 45 -17 61 -36 69 -13 6 -24 19 -24
29 0 10 -15 23 -40 33 -22 9 -41 16 -43 16 -1 0 -18 -14 -37 -31z m80 -171
c12 -21 19 -46 16 -56 -4 -10 1 -27 9 -38 30 -39 22 -45 -185 -134 -41 -17
-100 -43 -130 -57 -30 -14 -71 -32 -90 -40 -19 -9 -64 -30 -100 -48 -36 -18
-76 -36 -90 -40 -14 -4 -67 -27 -118 -52 -52 -24 -108 -47 -125 -50 -18 -3
-61 -22 -97 -43 -91 -50 -99 -53 -146 -39 -33 10 -43 19 -47 38 -3 14 -17 43
-31 64 -14 21 -26 41 -26 46 0 8 81 51 96 51 7 0 204 88 246 111 9 5 59 25
110 45 51 20 125 52 163 71 39 19 95 44 125 55 30 11 78 31 105 44 28 13 89
39 137 58 49 19 96 39 105 45 31 17 51 8 73 -31z m129 -233 c16 -1 43 -20 82
-57 9 -9 26 -19 38 -23 11 -3 27 -12 34 -19 7 -7 35 -30 63 -52 117 -90 184
-146 184 -152 -1 -11 -86 -62 -150 -89 -34 -15 -62 -34 -66 -45 -5 -18 -104
-88 -124 -88 -6 0 -27 -11 -48 -23 -20 -13 -73 -41 -117 -62 -44 -22 -107 -56
-139 -77 -33 -21 -64 -38 -69 -38 -6 0 -29 -9 -51 -19 -23 -11 -90 -43 -151
-72 -60 -28 -139 -63 -174 -76 -36 -13 -77 -33 -92 -44 -15 -11 -70 -40 -121
-65 -51 -26 -95 -49 -98 -53 -3 -4 -17 -14 -32 -24 -23 -14 -29 -15 -40 -4 -6
8 -23 11 -36 9 -24 -5 -24 -4 -23 84 0 49 0 182 -2 296 l-2 207 76 51 c42 27
80 50 83 50 10 0 89 35 160 71 32 16 65 29 73 29 14 0 185 74 263 115 49 26
222 95 236 95 5 0 52 22 104 49 71 36 98 46 108 38 8 -6 21 -11 31 -12z
m-1207 -567 c3 -7 3 -44 0 -83 -7 -88 -7 -99 1 -278 l5 -147 -106 5 c-93 4
-157 12 -249 31 -29 6 -26 16 15 60 17 20 32 43 32 53 0 9 12 30 28 47 15 16
41 49 57 74 17 24 37 52 45 62 8 10 26 31 40 48 14 17 34 41 45 54 11 13 31
38 45 55 27 34 36 38 42 19z m-350 -192 c17 -12 16 -16 -12 -52 -16 -21 -40
-54 -52 -71 -13 -18 -29 -33 -37 -33 -8 0 -33 -21 -57 -46 -33 -37 -46 -61
-58 -113 -9 -36 -22 -89 -30 -116 -13 -50 -14 -202 -2 -392 5 -63 2 -80 -21
-129 -21 -46 -24 -62 -16 -88 5 -18 6 -48 1 -70 -5 -24 -4 -52 2 -71 8 -23 7
-41 0 -61 -6 -16 -11 -31 -11 -34 0 -3 -16 -5 -37 -5 -51 -1 -112 -14 -142
-30 -51 -27 -129 -54 -134 -46 -3 4 -40 25 -82 46 -62 30 -74 39 -61 47 9 5
17 15 17 23 0 7 3 15 8 17 4 2 21 29 37 62 17 32 57 87 90 122 80 85 81 87
102 126 10 18 30 47 45 62 18 20 29 45 33 80 4 28 13 66 21 85 8 18 14 46 14
62 0 16 5 29 11 29 7 0 9 12 7 32 -6 38 10 107 29 130 8 9 16 40 18 70 2 29
15 85 28 123 20 57 37 83 93 143 37 39 73 72 79 72 6 0 28 9 50 20 46 23 45
23 67 6z m-707 -1028 c-11 -13 -26 -27 -32 -31 -7 -4 -13 -13 -13 -19 0 -6
-11 -21 -25 -34 -14 -13 -25 -29 -25 -37 0 -8 -7 -20 -15 -27 -8 -7 -15 -21
-15 -32 0 -17 -4 -19 -27 -13 -66 18 -107 22 -141 15 -20 -5 -55 -11 -77 -15
-22 -3 -44 -10 -49 -15 -6 -6 -17 -10 -26 -10 -17 0 -74 -55 -82 -80 -3 -9
-23 -28 -44 -42 -35 -24 -44 -26 -79 -18 -93 22 -170 7 -380 -74 -27 -10 -134
-77 -162 -101 -6 -5 -26 -21 -44 -35 -18 -14 -38 -31 -45 -37 -7 -7 -20 -13
-29 -13 -9 0 -25 -4 -35 -10 -16 -9 -19 -3 -30 54 -9 48 -9 73 0 106 14 53 56
117 81 125 11 4 19 12 19 18 1 16 36 57 48 57 6 0 17 6 24 13 18 17 84 54 138
78 25 11 54 25 65 30 48 22 271 89 318 95 29 4 63 11 77 16 14 5 47 12 74 14
27 3 57 9 67 14 9 5 86 12 170 16 85 3 155 7 157 8 1 2 37 4 79 5 l77 2 -19
-23z m825 -2 c47 -8 127 -22 179 -31 94 -16 208 -54 310 -104 78 -38 165 -126
186 -190 9 -28 20 -53 25 -56 21 -13 21 -78 -2 -141 -21 -58 -38 -82 -38 -52
0 20 -84 87 -155 122 -105 52 -163 76 -184 76 -23 0 -69 18 -91 36 -8 7 -51
30 -95 53 -90 46 -125 50 -275 27 -93 -14 -124 -8 -134 28 -9 34 -6 106 7 171
12 57 14 60 47 66 62 11 133 9 220 -5z m-1037 -252 c31 -4 47 -11 47 -20 0 -8
16 -22 35 -31 19 -9 35 -23 35 -30 0 -7 8 -14 18 -14 9 -1 24 -2 32 -3 8 -1
25 -7 36 -13 12 -7 23 -10 26 -8 2 2 17 -7 32 -20 35 -30 57 -31 114 -5 24 11
46 19 50 18 4 -1 25 7 47 19 52 27 121 39 139 23 20 -15 221 -16 324 -1 46 7
98 9 115 5 44 -9 149 -63 168 -86 8 -11 31 -21 50 -24 90 -11 115 -17 124 -28
6 -6 29 -18 53 -25 23 -8 42 -18 42 -22 0 -4 17 -13 37 -20 43 -14 67 -38 94
-97 l20 -42 -33 -40 c-18 -22 -38 -40 -45 -40 -6 0 -13 -3 -15 -8 -7 -16 -95
-79 -128 -92 -19 -8 -53 -25 -75 -40 -50 -32 -151 -75 -169 -71 -5 1 -17 -5
-26 -14 -19 -17 -104 -38 -205 -50 -33 -4 -65 -11 -70 -16 -14 -11 -112 -33
-190 -43 -16 -3 -43 -9 -60 -16 -16 -6 -50 -14 -75 -17 -64 -7 -94 -11 -100
-13 -3 -1 -9 -3 -15 -5 -5 -1 -12 -3 -15 -4 -19 -9 -59 -12 -155 -11 -142 2
-128 2 -215 -3 -41 -2 -100 0 -130 4 -30 4 -94 10 -142 13 -48 3 -104 9 -125
15 -21 5 -76 15 -123 21 -46 6 -93 16 -103 22 -10 5 -40 12 -65 15 -26 3 -51
8 -57 12 -5 4 -38 16 -73 26 -35 10 -69 27 -76 36 -7 10 -23 23 -37 29 -85 37
-240 184 -223 211 3 5 10 7 15 4 5 -4 9 4 9 17 0 16 13 31 43 51 23 15 69 50
102 78 59 49 85 66 135 90 14 6 33 15 42 20 10 5 23 9 28 9 6 0 30 9 53 21 48
23 67 28 155 36 38 3 73 1 91 -7 24 -10 35 -9 66 6 38 18 109 82 135 123 12
17 35 28 84 41 80 20 87 21 149 14z m1612 -685 c-20 -57 -38 -112 -40 -123 -3
-10 -11 -26 -20 -36 -8 -9 -15 -25 -15 -36 0 -34 -54 -129 -101 -175 -40 -41
-172 -119 -200 -119 -6 0 -45 -16 -87 -36 -68 -32 -195 -79 -240 -88 -18 -3
-45 -13 -77 -26 -69 -30 -267 -49 -505 -49 -145 1 -225 10 -450 53 -14 3 -68
12 -120 20 -125 21 -178 32 -215 46 -16 7 -43 14 -59 16 -16 2 -34 8 -40 14
-5 5 -20 10 -33 10 -13 0 -23 4 -23 9 0 4 -15 11 -32 14 -33 5 -97 32 -153 65
-49 28 -131 118 -159 174 -14 29 -30 60 -34 68 -46 81 -42 85 35 45 36 -20 82
-37 102 -39 20 -2 54 -12 76 -24 38 -19 70 -26 170 -36 22 -3 74 -12 115 -21
41 -10 98 -19 125 -22 28 -2 61 -8 75 -12 14 -4 50 -9 80 -10 30 -1 75 -7 100
-12 57 -13 302 -11 545 5 132 9 157 13 239 42 38 13 82 23 97 22 15 -1 44 5
65 14 22 9 75 24 119 33 173 36 477 148 499 184 4 5 44 33 91 61 48 30 87 61
91 74 4 11 9 16 11 10 2 -7 -12 -59 -32 -115z"/>
<path d="M2700 1428 c0 -6 -7 -16 -15 -22 -19 -15 -9 -53 17 -62 36 -11 67 37
45 72 -9 16 -47 25 -47 12z"/>
<path d="M1794 1385 c-48 -20 -56 -67 -13 -80 28 -9 79 30 72 55 -9 32 -25 40
-59 25z"/>
<path d="M2444 1329 c-32 -17 -66 -38 -75 -45 -8 -8 -19 -14 -23 -14 -4 0 -21
-9 -37 -21 -16 -11 -69 -29 -118 -39 -122 -25 -126 -27 -129 -54 -3 -40 17
-47 89 -31 116 26 137 32 166 52 15 10 49 30 76 44 26 13 47 28 47 32 0 5 4 6
9 3 5 -3 14 0 20 8 33 40 91 23 178 -51 65 -54 70 -56 134 -54 47 1 63 7 88
29 38 33 43 78 9 77 -13 0 -34 -8 -48 -17 -36 -26 -82 -23 -111 8 -13 14 -50
43 -83 65 -73 49 -111 51 -192 8z"/>
<path d="M1159 1336 c-3 -3 -22 -7 -43 -10 -22 -3 -44 -10 -49 -15 -16 -16 4
-65 27 -69 21 -4 106 34 106 48 0 12 -35 52 -41 46z"/>
<path d="M1480 1241 c-47 -15 -114 -41 -150 -59 -79 -38 -127 -49 -245 -58
-49 -3 -92 -8 -94 -10 -2 -2 -13 3 -25 11 -29 21 -41 19 -54 -10 -18 -39 -15
-45 25 -61 75 -32 316 10 444 77 95 49 239 76 239 44 0 -8 3 -14 8 -14 17 3
29 -2 48 -19 10 -9 32 -25 47 -35 26 -17 30 -17 53 -2 42 27 27 59 -46 98 -25
13 -62 33 -83 45 -48 28 -64 27 -167 -7z"/>
<path d="M2731 1049 c-27 -25 -26 -34 3 -64 28 -28 51 -24 60 8 10 39 6 54
-18 65 -19 9 -28 7 -45 -9z"/>
<path d="M2426 1026 c-31 -24 -21 -76 15 -76 49 0 111 62 76 76 -28 10 -78 10
-91 0z"/>
<path d="M1471 922 c-1 -48 14 -71 47 -70 26 1 28 5 31 40 2 33 -2 39 -25 48
-20 8 -29 8 -34 -1 -6 -8 -9 -7 -13 2 -3 8 -6 -1 -6 -19z"/>
<path d="M1683 931 c-9 -14 -3 -44 13 -69 8 -12 73 -11 119 3 41 12 55 20 55
34 0 30 -20 38 -101 43 -62 4 -78 2 -86 -11z"/>
<path d="M1248 913 c-23 -6 -29 -29 -16 -58 13 -29 33 -32 55 -9 12 12 14 22
7 42 -10 27 -19 32 -46 25z"/>
<path d="M2342 3993 c-7 -2 -27 -26 -44 -51 -17 -26 -35 -50 -40 -53 -5 -3
-10 -14 -12 -25 -2 -10 -20 -58 -40 -106 -57 -137 -58 -198 -5 -383 25 -91 35
-180 22 -198 -5 -7 -18 -34 -28 -62 -10 -27 -21 -54 -25 -60 -11 -14 6 -54 25
-62 38 -14 59 12 89 108 24 79 28 105 23 165 -3 39 -10 80 -15 90 -28 51 -56
182 -53 248 2 75 72 227 131 285 43 42 50 70 24 95 -16 16 -29 19 -52 9z"/>
<path d="M1274 3799 c-3 -5 -9 -7 -13 -5 -3 3 -20 -21 -36 -52 -16 -31 -44
-78 -61 -104 -18 -27 -36 -63 -39 -80 -4 -18 -12 -39 -17 -45 -6 -7 -7 -13 -4
-13 4 0 2 -8 -3 -17 -29 -55 -37 -262 -13 -336 18 -59 81 -180 127 -247 54
-78 80 -147 84 -217 2 -45 -5 -66 -53 -165 -30 -62 -57 -132 -61 -155 -9 -55
7 -85 43 -81 34 4 42 14 42 59 0 22 19 73 53 140 50 100 52 107 53 189 0 55
-4 92 -13 105 -7 11 -13 27 -13 36 0 9 -25 56 -56 105 -128 202 -144 238 -150
349 -7 119 52 315 112 370 13 12 24 29 24 38 0 8 6 17 13 20 16 6 51 67 38 67
-6 0 -8 6 -6 13 6 14 -42 39 -51 26z"/>
<path d="M1821 3473 c-42 -17 -140 -164 -168 -252 -48 -150 -51 -201 -20 -321
34 -128 33 -126 89 -197 64 -81 72 -136 38 -245 -12 -40 -27 -79 -32 -85 -6
-7 -7 -13 -3 -13 4 0 2 -6 -4 -13 -6 -8 -8 -17 -4 -20 3 -4 0 -13 -7 -22 -9
-11 -9 -15 -1 -15 7 0 10 -8 7 -17 -9 -32 16 -58 57 -59 l37 -2 -4 47 c-2 31
5 74 22 131 48 157 32 287 -43 360 -44 42 -86 164 -89 260 -6 137 65 301 161
368 33 24 35 50 5 85 -16 18 -19 19 -41 10z"/>
</g>
</svg>
