<?xml version="1.0" standalone="no"?>
<!DOCTYPE svg PUBLIC "-//W3C//DTD SVG 20010904//EN"
 "http://www.w3.org/TR/2001/REC-SVG-20010904/DTD/svg10.dtd">
<svg version="1.0" xmlns="http://www.w3.org/2000/svg"
 width="545.000000pt" height="437.000000pt" viewBox="0 0 545.000000 437.000000"
 preserveAspectRatio="xMidYMid meet">
<metadata>
Created by potrace 1.16, written by Peter Selinger 2001-2019
</metadata>
<g transform="translate(0.000000,437.000000) scale(0.100000,-0.100000)"
fill="#000000" stroke="none">
<path d="M2663 3996 c-13 -7 -31 -20 -40 -29 -12 -10 -23 -13 -34 -7 -17 10
-38 8 -56 -3 -7 -5 -13 -5 -13 -2 0 4 -12 -2 -28 -13 -15 -11 -65 -28 -112
-38 -87 -17 -307 -114 -323 -141 -4 -7 -13 -13 -18 -13 -24 0 -117 -76 -149
-122 -19 -27 -50 -69 -67 -93 -18 -24 -33 -53 -33 -64 0 -12 -4 -21 -9 -21 -5
0 -14 -12 -20 -27 -6 -16 -15 -35 -21 -43 -5 -8 -14 -26 -20 -40 -5 -14 -14
-32 -19 -40 -17 -30 -70 -206 -72 -240 -1 -19 4 -80 11 -135 12 -95 36 -160
75 -205 47 -54 96 -99 133 -124 23 -16 42 -33 42 -37 0 -12 105 -79 123 -79 7
0 19 -10 26 -22 13 -23 120 -98 140 -98 12 0 91 -26 136 -44 52 -22 198 -66
250 -75 51 -9 233 -6 315 6 25 3 51 5 59 4 8 -1 17 1 20 6 6 8 112 49 161 62
22 5 57 24 177 89 13 8 27 20 30 28 3 8 12 14 21 14 15 0 120 65 132 82 3 4
22 14 43 23 20 8 37 20 37 25 0 6 6 10 14 10 8 0 25 14 38 30 13 17 44 52 69
78 25 26 48 55 52 65 3 9 11 17 17 17 5 0 10 7 10 15 0 9 12 28 26 42 33 33
94 150 94 181 0 12 3 22 8 22 11 0 17 64 17 186 0 89 -3 116 -16 130 -9 11
-20 30 -24 44 -11 36 -75 127 -134 189 -28 30 -60 68 -72 86 -12 17 -37 42
-55 55 -19 12 -44 33 -57 45 -13 13 -48 33 -77 45 -30 12 -62 28 -70 35 -8 7
-28 17 -45 20 -16 4 -68 20 -115 35 -81 27 -166 47 -235 56 -16 2 -48 8 -70
13 -113 28 -240 36 -272 17z m317 -128 c25 -5 54 -12 65 -14 29 -5 60 -12 60
-14 0 -1 9 -3 20 -5 60 -11 277 -91 297 -110 13 -12 35 -25 48 -28 31 -8 92
-65 149 -137 23 -30 49 -59 57 -63 8 -4 23 -26 35 -48 11 -22 26 -42 34 -46 8
-3 15 -11 15 -18 0 -6 8 -27 17 -46 20 -39 20 -104 0 -151 -13 -32 -20 -70
-33 -188 -3 -30 -12 -59 -19 -65 -8 -5 -19 -21 -25 -35 -23 -54 -57 -100 -86
-121 -12 -8 -38 -34 -59 -59 -20 -25 -51 -53 -69 -63 -17 -10 -43 -25 -57 -35
-15 -9 -52 -32 -82 -50 -31 -18 -57 -36 -59 -40 -8 -20 -157 -111 -183 -112
-6 0 -60 -16 -120 -35 l-110 -35 -160 5 c-147 5 -271 23 -317 46 -10 5 -26 9
-37 9 -10 0 -57 18 -104 40 -46 22 -89 40 -96 40 -6 0 -26 15 -44 33 -18 17
-54 43 -81 56 -26 14 -50 31 -53 38 -3 7 -9 13 -13 13 -4 0 -23 15 -41 33 -19
18 -51 46 -73 62 -41 32 -90 100 -89 125 0 8 -4 21 -10 28 -5 7 -13 54 -17
105 l-7 92 44 110 c23 61 43 114 43 118 0 10 43 71 53 75 4 2 7 9 7 14 0 18
60 108 115 173 67 80 106 115 126 115 10 0 19 4 21 8 8 20 118 76 163 84 28 4
70 13 95 19 25 6 74 14 110 19 36 5 75 11 86 15 20 6 22 2 27 -57 6 -87 -16
-134 -102 -217 -79 -77 -144 -157 -168 -209 -10 -20 -27 -48 -40 -61 -12 -14
-25 -43 -29 -65 -3 -23 -11 -49 -16 -59 -27 -51 5 -163 60 -214 42 -38 122
-73 169 -73 23 0 48 -6 55 -12 16 -16 70 -34 126 -43 40 -6 52 -17 33 -29 -26
-16 19 -77 50 -69 19 5 24 24 20 71 -2 19 3 22 39 22 22 0 86 7 142 15 86 13
108 20 132 43 41 37 118 109 136 126 28 26 39 98 36 227 -3 154 -29 238 -91
289 -16 14 -48 42 -69 62 -22 21 -43 38 -48 38 -4 0 -8 5 -8 10 0 19 122 11
165 -10 119 -59 217 -149 234 -213 5 -23 9 -42 8 -44 -1 -1 -16 -3 -32 -6 -26
-3 -29 -8 -30 -38 -1 -41 24 -64 61 -55 25 7 26 6 19 -41 -3 -26 -10 -52 -14
-58 -5 -5 -14 -28 -21 -50 -20 -62 -93 -149 -152 -181 -9 -5 -34 -26 -56 -46
-40 -37 -40 -37 -54 -16 -11 16 -20 20 -40 15 -20 -5 -24 -12 -23 -38 1 -17 8
-35 16 -40 29 -17 -60 -68 -134 -76 -29 -3 -81 -14 -117 -25 -74 -22 -243 -26
-324 -8 -27 6 -110 9 -185 8 l-136 -3 -63 38 c-35 20 -70 37 -77 37 -15 0 -55
54 -100 135 -30 55 -65 169 -65 212 1 73 78 239 142 305 24 24 72 76 108 114
83 90 153 138 200 138 23 0 41 7 52 20 23 27 22 39 -1 60 -17 16 -24 16 -58 5
-64 -21 -166 -93 -231 -164 -34 -37 -60 -70 -58 -72 2 -2 -9 -18 -24 -35 -82
-90 -151 -202 -180 -293 -17 -50 3 -210 33 -270 46 -94 120 -193 156 -210 20
-9 58 -31 86 -48 l50 -32 175 -2 c96 0 195 -5 221 -10 75 -16 179 -15 264 2
44 9 96 18 115 21 100 13 151 37 224 104 39 37 105 96 146 131 41 35 76 67 78
70 2 4 14 19 26 32 28 31 86 200 86 251 0 21 -4 45 -9 54 -5 9 -11 42 -14 73
-6 72 -22 101 -100 182 -85 88 -201 147 -289 147 -44 0 -68 6 -96 23 -20 13
-59 26 -85 29 -26 3 -56 13 -66 22 -10 10 -48 22 -83 28 -55 9 -66 14 -81 39
-11 19 -28 32 -49 36 l-33 7 30 7 c39 10 257 1 315 -13z m-143 -154 c-3 -3
-12 -4 -19 -1 -8 3 -5 6 6 6 11 1 17 -2 13 -5z m-72 -34 c3 -5 1 -10 -4 -10
-6 0 -11 5 -11 10 0 6 2 10 4 10 3 0 8 -4 11 -10z m-71 -62 c-2 -80 -10 -99
-82 -196 -106 -143 -148 -284 -112 -372 16 -40 50 -41 51 -2 1 15 0 32 -1 37
-11 49 3 135 22 135 4 0 8 11 8 23 0 13 9 35 21 48 12 13 30 41 40 62 11 20
23 37 27 37 5 0 5 -30 0 -67 -12 -99 -1 -178 35 -246 31 -59 90 -110 142 -123
21 -5 25 -2 25 14 0 11 -8 23 -17 26 -31 10 -85 68 -103 110 -40 91 -32 222
23 371 21 55 26 64 27 40 1 -71 58 -205 87 -205 7 0 13 -6 13 -14 0 -8 27 -38
60 -66 34 -29 68 -66 76 -82 18 -34 34 -28 34 12 0 29 -20 58 -93 135 -91 96
-118 159 -109 254 4 49 10 59 26 44 7 -8 9 -8 86 -21 41 -7 59 -16 77 -38 13
-16 23 -32 23 -35 0 -3 12 -12 28 -20 15 -7 35 -21 44 -30 42 -42 75 -296 47
-365 -7 -16 -12 -32 -11 -36 2 -9 -106 -103 -150 -131 -13 -8 -43 -18 -68 -21
-25 -3 -65 -10 -90 -14 -25 -4 -91 -6 -147 -6 -83 1 -108 5 -135 22 -18 11
-53 23 -78 26 -86 13 -99 18 -136 47 -26 20 -43 45 -55 81 -17 50 -17 53 2 90
10 20 19 47 19 59 0 12 6 29 14 38 8 9 26 29 41 44 14 16 28 41 31 57 4 16 29
53 58 83 28 31 57 61 63 69 7 7 26 27 43 43 16 17 30 38 30 47 0 10 9 22 19
28 11 5 22 23 26 40 11 50 20 34 19 -32z m286 45 c25 -7 60 -24 60 -28 0 -12
-133 19 -153 35 -6 5 71 -1 93 -7z"/>
<path d="M2264 3496 c-17 -17 5 -75 32 -82 30 -8 44 2 44 29 -1 42 -51 78 -76
53z"/>
<path d="M2114 3284 c-10 -40 40 -70 70 -42 14 13 9 49 -8 60 -25 17 -56 8
-62 -18z"/>
<path d="M2069 3050 c-33 -19 0 -90 44 -95 30 -4 41 24 26 63 -15 40 -38 51
-70 32z"/>
<path d="M2311 2828 c-11 -30 15 -67 47 -68 21 0 23 4 20 43 -3 38 -6 42 -31
45 -21 3 -29 -2 -36 -20z"/>
<path d="M1443 1981 c-12 -6 -50 -13 -85 -17 -39 -4 -90 -19 -133 -39 -83 -40
-197 -85 -212 -85 -6 0 -13 -3 -15 -8 -5 -11 -81 -68 -101 -75 -9 -4 -20 -8
-24 -9 -3 -2 -24 -19 -47 -40 -23 -20 -63 -55 -89 -79 -78 -69 -158 -218 -238
-444 -56 -155 -61 -239 -21 -361 15 -45 32 -88 37 -95 6 -8 17 -27 25 -43 16
-33 85 -108 112 -122 9 -5 36 -28 60 -50 52 -49 116 -84 153 -84 24 0 146 -37
200 -60 11 -4 35 -14 53 -22 17 -7 32 -16 32 -20 0 -5 7 -8 16 -8 9 0 48 -11
87 -23 133 -44 202 -54 357 -50 70 1 261 42 299 64 9 5 56 25 105 44 49 19
114 52 145 73 52 35 95 58 114 60 4 1 17 11 29 22 12 11 37 25 55 31 29 9 144
114 187 169 7 8 27 35 46 60 19 25 38 48 43 51 5 3 8 10 8 15 -2 8 26 46 55
78 5 6 31 53 57 104 64 127 68 210 15 284 -10 15 -29 55 -42 90 -50 134 -61
158 -68 158 -4 0 -8 5 -8 10 0 12 -4 17 -56 78 -21 24 -54 52 -74 62 -19 10
-58 37 -85 59 -83 69 -230 132 -310 133 -27 1 -199 44 -222 56 -38 20 -130 32
-281 37 -90 3 -166 1 -179 -4z m337 -125 c36 -10 99 -23 140 -28 41 -6 79 -17
85 -24 5 -8 37 -19 70 -25 58 -11 87 -21 171 -60 22 -10 46 -19 52 -19 7 0 20
-4 30 -9 9 -5 46 -24 82 -42 36 -18 70 -40 77 -49 6 -8 29 -35 52 -58 23 -23
39 -42 36 -42 -3 0 1 -10 10 -23 8 -12 16 -32 18 -42 2 -11 11 -37 21 -57 9
-21 16 -43 16 -51 0 -7 8 -22 18 -33 19 -21 19 -28 8 -124 -12 -97 -104 -302
-158 -351 -10 -9 -18 -20 -18 -24 0 -16 -131 -135 -155 -141 -14 -3 -25 -10
-25 -15 0 -9 -183 -99 -245 -120 -22 -8 -53 -22 -70 -31 -77 -46 -234 -117
-273 -123 -76 -12 -91 -12 -169 1 -126 20 -186 36 -213 54 -14 10 -34 16 -45
14 -10 -1 -24 1 -30 5 -5 4 -35 16 -65 25 -30 10 -62 23 -70 30 -18 15 -160
62 -215 71 -85 13 -179 55 -227 100 -27 24 -48 49 -48 55 0 10 -20 50 -30 60
-12 12 -28 48 -34 75 -31 143 -31 147 7 282 8 28 22 66 31 84 9 18 16 42 16
54 0 13 7 28 15 35 8 7 15 19 15 26 0 8 5 14 10 14 6 0 10 7 10 15 0 8 5 15
10 15 6 0 10 6 10 13 0 8 25 37 55 66 30 29 55 56 55 60 0 4 18 27 40 51 22
25 40 49 40 53 1 36 233 169 380 218 43 14 64 16 95 9 61 -14 94 -12 121 9 20
15 39 18 126 16 60 -1 130 -9 168 -19z"/>
<path d="M1429 1818 c-1 -7 0 -23 0 -34 2 -18 -10 -25 -86 -49 -48 -15 -110
-30 -138 -33 -33 -3 -65 -15 -93 -34 -46 -31 -252 -232 -252 -246 0 -4 -15
-37 -34 -72 -18 -36 -37 -83 -42 -105 -4 -22 -8 -42 -9 -45 -22 -81 -8 -180
31 -225 13 -15 24 -31 24 -35 0 -3 12 -21 28 -38 15 -18 42 -52 61 -77 18 -25
40 -45 47 -45 8 0 14 -4 14 -9 0 -11 99 -108 104 -101 2 3 12 -2 22 -12 23
-20 90 -48 115 -48 11 0 36 -11 57 -24 52 -34 163 -57 270 -57 29 0 58 3 64 7
6 4 47 6 93 5 60 -1 100 4 151 20 106 33 153 52 174 71 11 10 23 18 29 18 5 0
11 6 14 14 3 8 33 33 67 55 34 23 72 53 85 68 12 16 41 48 64 72 23 24 41 48
41 52 0 5 16 33 35 63 19 30 35 60 35 66 0 5 3 10 8 10 19 0 40 79 48 181 4
58 1 87 -15 136 -11 34 -23 79 -27 99 -4 21 -16 48 -27 61 -24 26 -162 104
-221 123 -22 7 -51 24 -65 37 -36 34 -132 77 -220 98 -63 15 -81 16 -122 6
-27 -7 -57 -10 -67 -7 -11 4 -32 2 -48 -4 -22 -9 -34 -7 -61 7 -25 13 -38 15
-50 7 -12 -8 -21 -5 -39 13 -25 25 -63 31 -65 11z m461 -105 c32 -3 68 -15 85
-27 17 -11 32 -21 35 -22 17 -3 58 -24 61 -31 7 -17 67 -53 88 -53 24 0 71
-20 116 -50 17 -11 37 -23 45 -27 21 -9 28 -22 41 -68 5 -22 17 -55 26 -74 12
-27 14 -55 9 -134 -6 -93 -8 -102 -41 -147 -19 -26 -35 -51 -35 -55 0 -3 -7
-13 -15 -21 -8 -9 -15 -24 -15 -33 0 -17 -148 -181 -163 -181 -4 0 -16 9 -26
19 -11 11 -28 18 -38 16 -10 -2 -21 -4 -24 -4 -13 -2 -17 -44 -7 -61 10 -15 5
-23 -27 -51 -54 -48 -90 -70 -126 -76 -17 -2 -51 -10 -75 -18 -39 -12 -44 -11
-44 3 0 22 30 52 52 52 25 0 89 33 109 56 9 11 28 40 43 67 15 26 30 47 34 47
13 0 41 64 48 110 4 26 18 59 36 81 45 56 67 235 34 283 -23 33 -108 119 -143
143 -17 13 -56 34 -85 47 -29 13 -75 45 -103 71 -27 25 -69 54 -91 65 -68 30
-82 70 -26 71 51 1 93 7 101 14 3 4 19 4 36 0 16 -3 55 -9 85 -12z m-440 -37
c0 -27 -68 -156 -82 -156 -4 0 -24 -19 -45 -42 -21 -23 -47 -48 -57 -57 -45
-38 -76 -69 -76 -77 0 -5 -21 -32 -47 -59 -53 -58 -65 -95 -67 -225 -2 -101 4
-136 37 -213 24 -57 71 -117 91 -117 17 0 105 -64 106 -77 0 -6 9 -15 20 -18
11 -3 20 -11 20 -16 0 -12 -32 4 -49 25 -7 8 -38 20 -69 27 -67 13 -180 78
-160 91 7 4 9 8 4 8 -5 0 -3 6 3 14 8 10 8 21 1 41 -6 15 -8 31 -5 36 4 5 -9
8 -27 6 -25 -2 -36 -9 -46 -30 l-14 -28 -29 41 c-16 22 -33 40 -38 40 -4 0
-16 20 -25 44 -9 24 -26 52 -36 61 -11 10 -20 28 -20 40 0 12 -5 37 -11 55 -9
24 -9 41 -1 64 6 17 14 45 16 62 11 60 83 192 122 223 14 11 36 36 49 55 14
20 41 51 61 69 21 17 43 38 50 45 7 6 16 12 20 12 4 0 15 7 25 16 10 9 37 16
70 16 29 1 85 11 123 23 74 23 86 23 86 1z m160 -72 c0 -14 -4 -23 -9 -20 -5
3 -7 15 -4 26 7 28 13 25 13 -6z m-83 -1 c-3 -10 -8 -30 -11 -45 -4 -16 -11
-28 -16 -28 -6 0 -10 -9 -10 -20 0 -10 -20 -40 -45 -66 -25 -26 -53 -61 -62
-78 -9 -17 -28 -47 -43 -66 -14 -19 -32 -55 -39 -80 -7 -25 -21 -59 -32 -76
-24 -40 -24 -79 1 -157 21 -66 61 -104 94 -91 22 8 20 17 -8 51 -14 16 -28 43
-32 59 -4 16 -11 35 -17 42 -7 9 -1 30 21 71 17 32 34 75 37 95 4 20 17 44 30
54 12 10 31 33 41 52 l18 35 8 -105 c4 -58 15 -129 25 -158 17 -56 75 -128 94
-117 7 5 6 11 -1 20 -21 25 -49 87 -54 119 -21 136 -13 265 20 329 9 18 24 46
32 62 l16 30 7 -33 c9 -45 43 -90 107 -142 97 -79 118 -103 113 -132 0 -5 3
-8 8 -8 13 0 51 -110 52 -150 1 -19 -8 -55 -19 -79 -28 -62 -13 -90 30 -57 21
15 48 87 48 125 0 27 -44 159 -74 223 -10 20 -37 53 -59 72 -23 19 -63 54 -89
79 -45 42 -48 47 -48 96 0 66 19 68 80 6 25 -26 75 -60 118 -80 93 -45 112
-60 172 -134 41 -51 49 -69 43 -96 -3 -11 -8 -43 -13 -72 -4 -29 -19 -67 -32
-85 -27 -36 -43 -76 -52 -124 -5 -33 -28 -71 -86 -144 -30 -38 -59 -56 -101
-65 -8 -2 -40 -10 -69 -19 -78 -23 -237 -21 -319 4 -35 10 -67 17 -71 15 -3
-2 -25 11 -48 30 -23 18 -54 36 -68 39 -21 6 -52 50 -59 86 0 3 -7 16 -14 29
-8 14 -11 40 -8 64 3 22 1 51 -4 65 -7 18 -5 39 6 73 9 27 14 53 10 59 -3 6 8
24 25 41 17 17 43 47 58 67 15 20 70 79 122 131 62 63 104 114 120 149 23 48
57 74 47 35z m-70 -966 c16 -9 46 -11 100 -6 94 8 108 6 108 -12 0 -8 -15 -16
-35 -20 -19 -3 -39 -8 -45 -10 -14 -4 -207 11 -219 18 -11 7 34 43 54 42 8 0
25 -5 37 -12z"/>
<path d="M1949 1594 c-1 -2 -2 -8 -3 -13 0 -5 -4 -13 -8 -17 -12 -11 3 -58 21
-68 40 -24 71 -6 67 39 -2 32 -19 52 -48 57 -16 3 -29 4 -29 2z"/>
<path d="M2217 1384 c-20 -26 -15 -64 8 -64 7 0 15 -5 17 -11 2 -7 15 -9 35
-5 33 8 36 21 13 81 -12 33 -49 33 -73 -1z"/>
<path d="M2211 1086 c-6 -7 -8 -16 -4 -19 3 -4 1 -7 -5 -7 -32 0 8 -69 43 -74
28 -5 45 12 45 43 0 34 -10 48 -42 60 -20 7 -29 7 -37 -3z"/>
<path d="M1149 1523 c-4 -54 18 -78 55 -61 30 13 34 45 9 64 -26 20 -63 18
-64 -3z"/>
<path d="M1000 1320 c0 -7 -7 -9 -16 -6 -13 5 -14 4 -6 -7 7 -7 13 -24 15 -37
2 -13 13 -30 25 -38 18 -12 23 -11 41 7 16 16 20 28 15 49 -8 33 -3 28 -41 37
-23 4 -33 3 -33 -5z"/>
<path d="M916 1050 c-38 -43 31 -112 69 -70 14 16 15 24 5 54 -9 29 -16 35
-36 34 -14 -2 -31 -9 -38 -18z"/>
<path d="M4069 1945 c-4 -3 -30 -8 -60 -11 -30 -3 -61 -7 -69 -8 -31 -4 -250
-99 -279 -121 -41 -30 -211 -206 -240 -248 -18 -26 -50 -64 -71 -85 -53 -52
-167 -231 -180 -283 -6 -24 -15 -63 -20 -86 -5 -23 -15 -56 -23 -75 -31 -74
-40 -179 -22 -247 19 -71 53 -107 179 -186 18 -11 49 -39 71 -63 36 -41 85
-70 130 -79 11 -2 24 -8 29 -13 6 -6 17 -10 26 -10 9 0 33 -9 55 -20 22 -11
44 -20 51 -20 6 0 17 -7 24 -15 7 -8 18 -15 25 -15 7 0 47 -16 88 -35 79 -37
187 -68 272 -79 28 -4 70 -9 95 -13 87 -13 233 7 322 46 24 10 58 22 76 26 17
3 34 11 37 16 4 5 13 9 21 9 40 0 294 148 294 171 0 6 4 8 9 5 5 -3 28 20 52
52 24 31 49 63 56 71 8 7 32 40 54 72 22 32 43 59 47 59 4 0 12 10 17 23 6 12
17 21 25 19 8 -2 12 0 7 4 -4 4 1 16 10 27 10 10 16 20 14 21 -2 0 -1 10 2 21
17 53 35 187 33 250 -3 89 -32 217 -60 266 -26 47 -61 85 -162 176 -87 79
-182 153 -197 153 -5 0 -26 13 -46 29 -33 26 -136 71 -171 76 -8 1 -29 9 -47
18 -18 9 -40 17 -50 17 -21 0 -103 28 -118 39 -5 5 -66 16 -135 25 -69 10
-134 20 -145 22 -11 3 -23 2 -26 -1z m61 -188 c0 -12 -12 -37 -27 -54 -16 -17
-45 -51 -65 -75 -20 -23 -51 -58 -67 -76 -17 -18 -31 -36 -31 -39 0 -3 -15
-26 -34 -52 -48 -64 -105 -174 -127 -243 -35 -110 -1 -207 107 -314 36 -35 69
-64 74 -64 4 0 29 -21 55 -47 45 -43 74 -57 150 -67 11 -2 44 -10 73 -19 69
-21 173 -15 267 16 94 31 129 51 156 89 13 18 38 48 55 66 44 45 116 214 116
271 0 24 -5 47 -11 51 -7 4 -10 33 -9 77 3 68 2 72 -39 132 -24 34 -43 64 -43
66 0 3 11 5 23 5 34 0 48 36 28 72 -9 15 -22 30 -29 33 -15 5 -51 -32 -52 -52
0 -7 -3 -13 -7 -13 -15 0 -103 82 -103 96 0 8 -4 14 -9 14 -5 0 -11 9 -14 20
-4 17 -1 19 21 14 61 -15 118 -37 125 -50 4 -7 23 -16 42 -20 24 -4 37 -13 44
-32 13 -34 31 -56 57 -70 14 -7 24 -25 27 -49 4 -21 17 -54 30 -73 43 -64 67
-143 56 -186 -4 -22 -9 -62 -9 -89 0 -37 -7 -60 -25 -87 -14 -20 -25 -41 -25
-46 0 -20 -84 -167 -120 -209 -5 -7 -10 -15 -10 -18 0 -3 -31 -37 -70 -75 -48
-49 -77 -70 -94 -70 -13 0 -26 -4 -28 -9 -1 -5 -33 -12 -71 -15 -37 -4 -86
-13 -110 -21 -75 -26 -169 -19 -282 21 -55 20 -129 42 -165 49 -123 26 -214
72 -297 150 -20 19 -45 37 -55 41 -10 3 -27 26 -38 51 -11 26 -35 65 -54 87
-18 23 -36 57 -40 76 -17 92 -17 103 5 144 23 44 34 80 49 163 6 34 21 67 46
100 20 26 42 59 48 73 6 14 39 57 74 96 62 70 143 123 202 132 13 2 27 7 30
11 6 8 79 29 125 34 70 9 75 8 75 -16z m244 13 c11 0 37 -14 56 -30 19 -16 38
-30 43 -30 4 0 2 -9 -5 -20 -13 -20 -58 -28 -58 -10 0 16 -53 60 -87 71 -43
14 -44 34 -2 25 17 -3 41 -6 53 -6z m-574 -10 c0 -5 -5 -10 -11 -10 -5 0 -7 5
-4 10 3 6 8 10 11 10 2 0 4 -4 4 -10z m-56 -35 c-10 -8 -23 -14 -29 -14 -5 0
-1 6 9 14 11 8 24 15 30 15 5 0 1 -7 -10 -15z m456 -56 c0 -15 -12 -51 -28
-80 -15 -30 -27 -60 -27 -67 0 -6 -26 -41 -57 -76 -32 -36 -58 -68 -58 -71 0
-4 -11 -20 -24 -35 -14 -18 -26 -48 -30 -81 -4 -30 -11 -58 -16 -64 -4 -5 -11
-33 -15 -62 -7 -57 17 -165 43 -195 17 -20 22 -21 40 -10 10 7 9 17 -2 50 -9
23 -15 45 -15 47 0 3 -3 21 -7 40 -4 21 0 61 9 97 9 35 19 79 22 99 3 20 16
48 30 63 13 14 21 26 18 26 -3 0 18 24 46 53 33 34 60 75 78 117 15 36 30 69
34 74 12 14 31 -43 23 -68 -4 -11 -7 -47 -6 -80 2 -62 -38 -195 -64 -217 -8
-6 -14 -18 -14 -26 0 -7 -6 -16 -14 -19 -20 -8 -14 -135 10 -204 21 -62 52
-83 134 -95 59 -9 61 -10 93 -25 15 -7 27 -17 27 -22 0 -5 4 -7 9 -4 5 4 11 1
13 -5 5 -16 38 1 38 20 0 18 -34 60 -50 62 -19 3 -25 4 -35 10 -5 3 -44 14
-86 24 l-77 18 -16 59 c-21 75 -20 96 4 138 25 43 53 101 56 116 1 6 10 29 20
50 12 25 18 58 17 96 -2 60 10 71 20 20 7 -36 43 -81 73 -93 14 -5 29 -20 34
-35 14 -35 110 -144 137 -154 19 -8 21 -13 13 -41 -5 -17 -7 -35 -5 -39 3 -4
7 -25 11 -46 7 -47 10 -51 32 -38 20 13 32 53 22 74 -5 9 2 34 14 60 l22 45
-26 22 c-14 13 -37 23 -52 23 -20 0 -32 8 -43 30 -8 16 -21 33 -29 37 -7 4
-28 31 -45 59 -19 31 -43 57 -61 64 -17 7 -30 17 -30 21 0 5 -15 40 -33 77
-19 37 -36 83 -39 102 -4 19 -9 44 -13 55 -5 14 2 10 22 -12 25 -30 111 -66
186 -80 10 -2 35 -22 55 -44 20 -23 49 -47 64 -55 16 -8 36 -33 48 -61 11 -26
27 -54 34 -63 8 -8 16 -44 19 -80 3 -36 10 -82 15 -102 9 -34 5 -46 -34 -130
-32 -68 -60 -109 -107 -158 -60 -62 -68 -67 -155 -94 -104 -32 -147 -31 -294
2 -74 17 -96 27 -135 61 -27 23 -77 65 -112 95 -64 55 -110 129 -111 182 0 39
84 244 100 244 6 0 10 6 10 13 0 8 9 22 20 32 11 10 20 24 20 32 0 7 5 13 11
13 5 0 8 4 5 9 -4 5 20 35 53 68 32 32 64 69 71 83 7 14 27 42 43 63 33 40 47
36 47 -14z m-531 -6 c-7 -10 -33 -41 -56 -70 -24 -28 -43 -56 -43 -61 0 -6
-18 -38 -40 -71 -49 -74 -60 -101 -60 -151 0 -21 -14 -71 -31 -111 -32 -75
-39 -132 -20 -168 6 -11 11 -30 11 -44 0 -13 13 -38 29 -56 17 -19 40 -54 51
-80 25 -52 57 -91 76 -91 7 0 17 -7 21 -15 12 -20 124 -110 163 -130 45 -23
109 -46 145 -51 31 -5 134 -38 170 -54 94 -44 213 -59 305 -39 25 5 79 14 120
19 100 13 171 39 203 75 10 11 33 36 52 56 44 46 97 120 135 189 17 30 47 82
67 115 43 74 66 134 59 160 -3 10 -1 52 5 92 10 72 10 74 -22 136 -73 139 -82
158 -74 165 13 13 96 -91 133 -167 31 -65 36 -86 38 -155 1 -44 -2 -103 -7
-131 -6 -27 -13 -68 -18 -90 -9 -47 -37 -105 -51 -105 -6 0 -10 -5 -10 -11 0
-30 -227 -293 -247 -287 -4 2 -35 -13 -68 -32 -86 -49 -165 -82 -186 -77 -10
3 -19 1 -21 -5 -5 -13 -128 -46 -196 -53 -112 -10 -204 -7 -275 10 -111 27
-300 87 -317 100 -8 7 -32 18 -52 25 -21 6 -38 16 -38 21 0 5 -5 9 -11 9 -7 0
-48 24 -93 53 -44 30 -101 64 -126 75 -45 22 -100 86 -100 116 0 8 -4 18 -10
21 -5 3 -10 16 -10 29 0 12 -5 27 -11 33 -13 13 -7 128 10 203 21 93 24 105
31 110 5 3 25 41 46 85 20 44 51 93 68 110 33 32 36 36 81 114 17 29 56 80 88
114 31 33 57 66 57 74 0 7 10 13 21 13 19 0 20 -2 8 -17z"/>
<path d="M3806 1627 c-19 -14 -33 -93 -15 -81 5 3 9 1 9 -4 0 -5 14 -7 33 -3
26 5 33 12 35 34 4 29 -14 61 -28 52 -5 -3 -10 0 -12 5 -2 7 -10 6 -22 -3z"/>
<path d="M3670 1355 c-19 -23 5 -75 35 -75 25 0 35 17 35 61 0 25 -4 29 -29
29 -16 0 -34 -7 -41 -15z"/>
<path d="M4862 1287 c-15 -20 -21 -57 -10 -63 6 -4 6 -9 -2 -14 -8 -5 -1 -10
20 -15 44 -10 65 13 61 67 -1 21 -56 41 -69 25z"/>
<path d="M3597 1125 c-10 -10 -13 -24 -8 -47 6 -28 11 -33 38 -34 28 -1 31 2
37 38 4 22 4 43 1 49 -9 14 -52 11 -68 -6z"/>
<path d="M4804 979 c-33 -42 -37 -88 -8 -95 36 -9 58 -1 72 29 11 23 11 29 -2
42 -8 8 -21 15 -29 15 -9 0 -17 5 -19 11 -2 7 -7 7 -14 -2z"/>
<path d="M3705 887 c-12 -7 -20 -23 -21 -39 -1 -15 3 -25 7 -22 5 3 9 -2 9
-11 0 -14 6 -16 27 -10 51 13 57 48 13 82 -11 9 -20 9 -35 0z"/>
<path d="M3950 763 c-41 -7 -52 -31 -33 -64 13 -22 24 -28 45 -27 17 1 30 9
34 20 6 21 -4 79 -14 77 -4 -1 -18 -4 -32 -6z"/>
<path d="M4565 730 c-11 -5 -17 -9 -13 -9 4 -1 3 -12 -2 -25 -7 -19 -4 -28 13
-43 26 -23 38 -23 60 -1 26 26 22 67 -9 78 -14 6 -26 10 -27 9 -1 0 -11 -4
-22 -9z"/>
<path d="M4193 668 c-17 -17 -19 -24 -10 -48 13 -35 40 -44 61 -21 23 25 20
56 -8 74 -21 14 -25 14 -43 -5z"/>
</g>
</svg>
