<?xml version="1.0" standalone="no"?>
<!DOCTYPE svg PUBLIC "-//W3C//DTD SVG 20010904//EN"
 "http://www.w3.org/TR/2001/REC-SVG-20010904/DTD/svg10.dtd">
<svg version="1.0" xmlns="http://www.w3.org/2000/svg"
 width="503.000000pt" height="413.000000pt" viewBox="0 0 503.000000 413.000000"
 preserveAspectRatio="xMidYMid meet">
<metadata>
Created by potrace 1.16, written by Peter Selinger 2001-2019
</metadata>
<g transform="translate(0.000000,413.000000) scale(0.100000,-0.100000)"
fill="#000000" stroke="none">
<path d="M2455 3978 c-22 -4 -49 -12 -60 -18 -11 -5 -60 -12 -110 -16 -49 -4
-103 -8 -120 -10 -38 -4 -168 -37 -220 -56 -22 -8 -46 -13 -54 -10 -8 2 -21
-5 -30 -16 -9 -11 -52 -34 -96 -52 -44 -17 -90 -38 -102 -46 -12 -8 -27 -14
-33 -14 -9 0 -24 -11 -64 -45 -6 -5 -32 -21 -58 -33 -25 -13 -57 -34 -69 -45
-13 -12 -42 -30 -64 -40 -22 -10 -58 -35 -80 -57 -270 -265 -395 -391 -395
-399 0 -5 -21 -31 -47 -58 -45 -46 -83 -102 -83 -123 0 -5 -15 -31 -33 -57
-18 -27 -44 -73 -57 -103 -14 -30 -27 -57 -31 -60 -21 -17 -78 -123 -82 -151
-7 -49 -27 -122 -38 -135 -5 -6 -11 -29 -13 -50 -3 -22 -5 -42 -5 -46 -1 -4
-8 -14 -18 -23 -13 -14 -14 -23 -6 -48 7 -21 9 -127 6 -307 -6 -295 -7 -617
-3 -795 1 -60 2 -175 1 -255 -2 -332 -1 -442 6 -453 5 -7 9 -21 9 -32 1 -11 2
-31 3 -44 1 -15 6 -21 15 -18 8 3 22 0 32 -8 11 -8 23 -10 29 -5 10 9 61 1
135 -20 182 -51 190 -53 294 -65 23 -3 58 -10 77 -16 18 -5 73 -14 121 -19 47
-5 107 -17 133 -26 26 -8 55 -17 64 -19 33 -6 136 -19 142 -17 4 1 33 -3 65
-8 33 -5 82 -11 109 -15 87 -10 139 -16 165 -20 125 -18 324 -24 390 -10 19 3
123 8 230 10 107 2 247 7 310 11 63 4 300 8 525 9 248 1 436 6 475 13 36 6 88
14 115 17 114 12 145 17 151 26 3 5 10 7 15 3 13 -8 135 21 244 57 49 17 108
30 130 29 98 -4 109 -1 133 34 21 30 22 41 18 142 -4 107 -3 110 30 178 19 39
34 80 34 92 0 12 6 27 14 33 10 9 13 26 10 57 -3 36 -12 53 -41 80 -20 19 -40
34 -45 34 -12 0 -5 69 10 97 7 12 12 30 12 41 0 11 8 30 18 43 17 22 42 118
42 158 0 9 -20 38 -44 66 l-44 49 19 26 c10 14 20 35 22 47 2 12 6 26 10 29
12 12 8 105 -7 137 -36 86 -36 82 -8 123 15 22 30 40 35 42 4 2 7 12 7 23 0
10 4 19 8 19 5 0 17 18 27 39 9 22 28 49 42 61 21 18 24 27 20 66 -3 24 -9 50
-15 57 -19 24 -62 108 -62 122 0 7 -4 15 -8 17 -8 3 -92 158 -92 169 0 11 -68
79 -79 79 -5 0 -13 9 -16 20 -3 11 -10 20 -15 20 -11 0 -190 183 -204 208 -5
9 -16 23 -23 30 -7 7 -13 18 -13 23 0 5 -19 28 -43 52 -24 23 -54 58 -67 77
-13 19 -50 61 -82 95 -32 33 -58 63 -58 68 0 4 -6 7 -14 7 -8 0 -24 12 -36 27
-11 15 -32 34 -45 42 -37 25 -254 211 -267 230 -7 10 -26 26 -43 37 -16 10
-37 26 -45 35 -8 9 -25 19 -36 23 -12 4 -29 15 -39 26 -10 11 -23 20 -30 20
-6 0 -22 11 -35 25 -13 14 -28 25 -34 25 -5 0 -21 11 -35 24 -15 13 -51 34
-81 47 -30 13 -70 33 -88 46 -18 12 -49 27 -67 33 -19 6 -35 15 -35 20 0 6
-18 14 -60 25 -3 0 -45 21 -95 45 -49 24 -96 45 -104 46 -8 2 -18 9 -22 16 -5
7 -9 9 -9 5 0 -4 -10 1 -22 13 -12 11 -27 20 -34 20 -7 0 -14 3 -16 8 -6 13
-82 49 -133 62 -27 7 -54 16 -60 20 -21 14 -41 16 -80 8z m67 -156 c40 -20 93
-50 118 -66 25 -16 76 -45 115 -63 102 -50 316 -162 345 -181 14 -9 34 -18 45
-19 11 -2 24 -8 29 -13 6 -6 17 -10 25 -10 14 0 50 -16 126 -57 11 -6 40 -21
65 -33 25 -13 48 -28 52 -34 4 -6 8 -8 8 -3 0 9 66 -24 98 -50 13 -10 52 -46
88 -80 35 -35 68 -63 72 -63 4 0 30 -22 57 -48 28 -27 59 -51 68 -55 9 -3 17
-11 17 -17 0 -5 6 -10 13 -10 8 0 20 -11 27 -25 7 -13 17 -22 22 -19 6 4 7 -7
5 -25 -3 -17 -1 -31 4 -31 5 0 9 7 9 15 0 8 4 15 8 15 15 0 44 -38 38 -49 -4
-5 -1 -13 5 -17 8 -4 9 -3 5 4 -17 28 14 9 40 -24 16 -20 44 -52 61 -72 18
-21 33 -43 33 -49 0 -7 6 -13 14 -13 8 0 17 -21 24 -55 12 -59 8 -85 -13 -85
-7 0 -21 -3 -31 -7 -13 -5 -15 -3 -9 8 7 11 5 11 -10 -1 -10 -8 -20 -14 -22
-12 -7 5 -36 2 -30 -4 3 -4 -5 -16 -19 -27 -23 -18 -25 -24 -19 -66 6 -44 37
-108 59 -123 16 -11 106 -9 151 3 34 9 53 25 61 49 19 59 17 58 47 30 18 -18
19 -22 7 -30 -9 -6 -16 -6 -18 0 -6 17 -18 11 -18 -9 0 -15 4 -17 17 -10 20
10 56 12 46 2 -4 -3 1 -12 11 -19 26 -20 37 -16 17 6 -10 11 -13 20 -7 20 6 0
12 -6 15 -12 3 -10 7 -10 19 0 13 11 17 9 22 -13 4 -14 11 -25 16 -25 18 0 80
-75 107 -130 15 -30 31 -56 35 -58 4 -2 8 -9 8 -15 0 -6 7 -18 16 -28 20 -22
11 -60 -9 -40 -8 8 -9 14 -1 19 8 5 6 13 -6 25 -15 16 -18 16 -23 2 -4 -8 -2
-15 3 -15 6 0 10 -4 10 -10 0 -5 -7 -7 -15 -4 -8 4 -15 1 -15 -5 0 -10 14 -15
33 -12 4 0 7 -3 7 -8 0 -13 -81 -49 -199 -87 -123 -39 -114 -37 -106 -21 4 6
0 4 -8 -6 -10 -12 -17 -14 -22 -7 -4 6 -12 7 -22 2 -20 -12 -65 -3 -56 11 4 6
1 7 -8 1 -15 -10 -15 -10 -139 -23 -47 -5 -96 -12 -110 -15 -32 -7 -118 -25
-148 -31 -22 -4 -290 -22 -404 -27 -42 -2 -54 0 -47 9 8 9 1 11 -25 7 -21 -2
-36 0 -36 6 0 5 -4 10 -10 10 -5 0 -10 -7 -10 -16 0 -8 4 -13 9 -9 5 3 12 1
16 -5 10 -16 -24 -23 -42 -9 -9 8 -14 9 -10 3 5 -8 -18 -12 -78 -12 -82 0 -85
1 -91 25 -6 22 -16 26 -16 6 0 -22 -25 -33 -74 -33 -62 0 -104 14 -104 34 0 8
-5 18 -12 22 -7 4 -8 3 -4 -4 4 -7 2 -12 -5 -12 -7 0 -4 -7 7 -15 10 -8 15
-15 9 -15 -5 0 -3 -5 5 -10 10 -7 -36 -9 -145 -6 -242 8 -222 5 -218 35 4 24
3 25 -8 6 -7 -11 -17 -23 -23 -27 -16 -11 -64 -9 -71 2 -4 7 3 9 22 5 25 -5
24 -4 -5 8 -18 7 -30 15 -27 19 3 3 -1 8 -10 11 -18 8 -21 -23 -3 -41 9 -9 7
-12 -12 -12 -14 0 -31 4 -39 9 -7 5 -25 5 -40 1 -14 -4 -36 -4 -47 1 -12 4
-38 10 -58 13 -28 5 -35 3 -30 -6 5 -8 0 -7 -11 2 -10 8 -16 10 -12 4 5 -9
-13 -11 -62 -10 -38 0 -67 5 -64 9 3 5 -1 8 -8 6 -28 -3 -38 1 -33 16 6 15 -3
19 -41 16 -17 -2 -18 0 -5 9 13 10 13 11 0 7 -8 -2 -16 -9 -16 -15 -1 -7 -2
-18 -3 -26 -1 -11 -9 -12 -38 -4 -21 5 -47 9 -58 9 -39 -2 -105 10 -100 19 3
4 -4 6 -16 3 -24 -7 -45 17 -26 29 9 6 9 8 0 8 -7 0 -17 -9 -24 -21 -8 -15
-17 -19 -32 -14 -12 3 -47 8 -77 10 -88 6 -193 27 -260 52 -8 3 -32 7 -53 8
-25 1 -46 10 -60 25 -12 12 -16 19 -8 15 9 -5 12 -3 9 6 -3 8 -12 15 -21 17
-12 2 -15 -1 -11 -12 5 -14 0 -15 -32 -10 -22 3 -42 8 -46 10 -4 3 -39 7 -78
9 -56 3 -83 11 -132 38 -34 19 -64 40 -66 48 -3 11 -1 10 7 -1 8 -11 11 -12
11 -2 0 8 -9 16 -21 19 -12 4 -18 11 -15 20 3 8 1 11 -4 8 -6 -3 -10 -1 -10 5
0 7 -7 10 -15 6 -17 -6 -48 21 -40 35 4 5 -3 9 -14 9 -21 0 -28 15 -30 70 -1
29 1 33 12 20 13 -17 42 -26 33 -11 -7 11 14 20 32 13 6 -2 12 -10 12 -18 0
-8 5 -14 10 -14 6 0 10 -7 10 -15 0 -8 5 -15 12 -15 6 0 21 -9 33 -20 11 -11
31 -21 43 -23 29 -4 48 -22 33 -31 -6 -4 -11 1 -12 11 0 16 -1 16 -9 -2 -6
-13 -9 -15 -9 -5 -2 24 -21 -10 -20 -35 l0 -20 9 20 c7 16 9 17 9 3 1 -23 18
-31 25 -12 3 8 2 12 -4 9 -6 -3 -10 -1 -10 4 0 6 9 11 20 11 12 0 20 7 21 18
1 16 2 16 6 0 5 -21 19 -23 29 -6 4 7 3 8 -4 4 -7 -4 -12 -3 -12 3 0 16 15 21
30 10 13 -8 12 -11 -2 -23 -22 -16 -23 -30 -2 -22 12 4 14 1 9 -14 -5 -15 -3
-18 9 -14 8 3 17 12 20 20 4 10 2 13 -7 8 -9 -6 -9 -5 0 8 7 8 10 18 6 22 -8
8 15 26 33 26 7 0 15 -7 18 -16 3 -9 2 -12 -5 -8 -7 4 -9 -2 -7 -17 2 -13 9
-23 16 -21 6 1 12 -2 12 -8 0 -5 5 -10 11 -10 8 0 7 6 -2 17 -11 13 -11 17 -1
20 6 3 10 9 6 14 -3 5 0 9 5 9 11 0 15 -20 12 -48 -2 -11 2 -11 19 -2 15 8 25
9 32 2 7 -7 19 -7 34 -2 14 6 24 6 24 0 0 -5 -8 -11 -18 -14 -10 -4 -19 -12
-19 -19 0 -6 -4 -20 -8 -29 -4 -11 -3 -18 4 -18 6 0 10 6 9 13 -2 7 5 11 15 9
15 -3 17 1 12 17 -9 30 23 41 44 14 13 -15 19 -17 28 -8 8 9 2 15 -23 24 -31
11 -34 15 -31 46 2 19 0 32 -4 29 -5 -3 -9 -13 -9 -24 0 -10 -7 -20 -15 -24
-22 -8 -45 4 -38 21 4 9 0 14 -8 13 -28 -4 -40 0 -33 12 4 7 3 8 -4 4 -7 -4
-18 -3 -27 1 -11 7 -7 14 22 37 20 16 42 29 49 29 7 0 11 3 9 7 -2 4 7 18 20
30 14 13 25 28 25 33 0 25 35 87 49 87 14 0 14 2 2 9 -8 5 -16 21 -18 35 -2
13 -10 37 -18 53 -8 15 -15 32 -15 36 0 5 -9 21 -19 36 -17 23 -17 29 -5 46
12 17 18 14 15 -7 0 -3 13 -11 29 -17 29 -10 30 -9 30 20 0 19 5 29 15 29 18
0 20 -16 3 -24 -7 -3 -4 -4 7 -3 11 2 19 9 17 15 -3 17 15 15 21 -2 3 -8 4
-25 1 -38 l-5 -23 11 24 c10 23 11 24 25 5 9 -12 18 -15 22 -9 11 14 47 19 38
6 -3 -7 3 -11 15 -11 12 0 18 -5 15 -10 -4 -6 -11 -7 -17 -4 -6 4 -9 1 -7 -5
7 -20 23 -16 34 8 6 13 17 20 26 18 12 -3 15 1 11 15 -6 26 -38 42 -46 23 -3
-8 -1 -15 5 -15 6 0 7 -4 4 -10 -12 -19 -23 -10 -20 15 2 21 0 23 -12 13 -11
-9 -16 -9 -23 2 -13 21 -3 30 34 30 66 0 135 31 177 78 35 40 39 51 39 97 0
105 -61 230 -129 265 -22 11 -43 24 -46 30 -8 12 26 100 38 100 5 0 1 7 -7 16
-18 18 -56 27 -56 13 0 -5 -6 -9 -14 -9 -8 0 -17 -8 -20 -17 -6 -15 -8 -15
-16 -3 -8 13 -10 12 -10 -2 0 -10 -4 -18 -9 -18 -5 0 -49 -40 -98 -88 -75 -74
-94 -99 -117 -157 -28 -70 -34 -115 -23 -169 5 -24 3 -27 -13 -23 -11 3 -23 1
-26 -4 -3 -5 5 -9 18 -9 24 -1 73 -64 62 -81 -3 -5 2 -9 10 -9 25 0 26 -15 0
-17 -46 -4 -54 -6 -54 -16 0 -5 9 -7 20 -4 13 3 20 0 20 -8 0 -18 -20 -30 -29
-18 -3 5 -14 13 -25 16 -15 6 -16 10 -6 22 11 13 10 14 -3 9 -14 -5 -47 15
-47 29 0 3 18 8 40 12 37 6 51 18 33 28 -19 10 -64 17 -59 9 3 -6 -1 -15 -9
-22 -11 -9 -14 -4 -17 32 -2 36 -7 44 -25 46 -13 2 -23 10 -23 17 0 8 -4 16
-9 20 -6 3 -8 -3 -6 -14 4 -23 -25 -38 -37 -19 -6 11 -8 10 -8 0 0 -9 -7 -11
-22 -7 -23 7 -23 7 -3 -9 12 -9 15 -15 7 -16 -7 0 -17 -11 -22 -25 -5 -14 -14
-25 -20 -25 -5 0 -10 -10 -9 -22 0 -17 2 -19 7 -8 14 32 38 57 59 64 19 6 21
4 15 -17 -7 -23 -45 -77 -55 -77 -3 0 -41 -36 -85 -80 -75 -77 -92 -86 -92
-51 0 11 3 12 8 4 9 -14 31 1 49 33 9 17 8 23 -7 34 -24 17 -17 29 13 24 12
-2 16 -2 10 2 -7 3 -13 12 -13 20 0 19 30 65 39 60 4 -3 13 0 21 6 12 8 12 9
-2 4 -10 -3 -20 -1 -23 4 -4 6 -1 10 4 10 6 0 11 7 11 15 0 20 31 55 50 55 13
0 13 1 0 10 -13 9 -13 11 0 20 8 5 11 10 6 10 -5 0 1 8 12 19 12 10 22 29 22
42 0 13 12 38 26 54 14 17 44 52 67 80 23 27 96 102 162 166 166 162 165 161
210 194 22 16 54 41 70 55 17 14 44 34 59 45 16 11 41 30 56 43 15 12 31 22
34 22 7 0 99 53 144 82 15 10 34 20 42 24 8 3 27 12 42 20 15 8 29 14 30 13 5
-4 102 34 108 42 15 20 229 66 346 75 71 5 147 16 161 23 1 1 35 -16 75 -37z
m-1140 -690 c7 -9 36 -35 65 -56 55 -42 91 -104 101 -178 4 -30 -1 -45 -23
-73 -29 -39 -58 -54 -120 -61 -22 -3 -58 -9 -80 -14 -53 -11 -85 -9 -85 7 0 8
-13 16 -29 19 -24 5 -31 14 -41 49 -11 38 -9 52 10 114 19 62 29 78 93 141 39
38 77 70 84 70 6 0 18 -8 25 -18z m-285 -388 c-3 -3 -12 -4 -19 -1 -8 3 -5 6
6 6 11 1 17 -2 13 -5z m-57 -135 c67 -60 75 -75 87 -152 8 -52 -49 -129 -117
-159 -92 -40 -168 -30 -221 30 -21 23 -25 37 -23 77 3 74 17 99 91 170 38 36
75 72 83 80 8 8 18 15 23 15 5 0 39 -28 77 -61z m166 46 c-3 -20 -16 -31 -16
-13 0 13 8 28 16 28 1 0 1 -7 0 -15z m114 11 c0 -2 -7 -6 -15 -10 -8 -3 -15
-1 -15 4 0 6 7 10 15 10 8 0 15 -2 15 -4z m2907 -49 c14 -23 31 -45 37 -49 16
-11 3 -18 -22 -11 -12 3 -19 9 -16 14 3 5 0 9 -6 9 -6 0 -8 5 -5 10 9 14 -8
12 -24 -2 -11 -11 -13 -10 -8 5 4 9 2 28 -3 41 -9 25 -4 39 12 30 5 -3 21 -24
35 -47z m59 -107 c8 0 14 -9 14 -20 0 -11 -4 -20 -10 -20 -5 0 -10 6 -10 13 0
8 -9 22 -20 32 -11 10 -20 23 -19 29 0 6 7 1 16 -11 8 -13 22 -23 29 -23z m55
-39 c0 -19 2 -22 7 -9 6 14 10 15 26 3 10 -8 15 -19 10 -26 -4 -8 -3 -10 4 -5
7 4 12 1 12 -8 0 -10 -6 -13 -15 -10 -8 4 -15 10 -15 15 0 5 -8 9 -19 9 -23 0
-36 17 -40 55 -3 26 -1 28 13 16 9 -7 16 -25 17 -40z m-3643 22 c11 -21 5 -46
-9 -37 -5 3 -9 0 -9 -5 0 -6 6 -11 13 -12 6 0 3 -4 -8 -9 -17 -7 -17 -9 -2 -9
22 -1 22 -13 -2 -42 l-19 -23 -6 30 c-4 17 -2 43 4 58 5 15 8 32 4 37 -6 11 4
29 16 29 5 0 13 -8 18 -17z m3494 -11 c6 -6 7 -19 4 -30 -10 -30 -83 -35 -102
-8 -16 23 -19 50 -5 41 5 -3 12 -1 15 3 7 12 75 7 88 -6z m-3498 -126 c-11
-28 -54 -31 -54 -3 0 7 4 6 10 -3 8 -13 11 -13 27 3 21 21 24 21 17 3z m-2
-275 c25 -21 60 -45 77 -52 17 -8 31 -17 31 -21 0 -10 94 -35 159 -43 29 -3
58 -8 63 -11 5 -3 22 -8 36 -9 15 -2 79 -17 142 -34 115 -31 246 -56 350 -66
54 -6 131 -16 160 -21 8 -2 55 -8 105 -14 49 -6 101 -13 115 -16 14 -3 60 -5
103 -5 l77 -1 0 -39 c0 -26 5 -42 15 -45 8 -4 13 -10 10 -14 -9 -14 55 -70 80
-70 14 0 25 2 25 4 0 2 3 12 6 20 5 12 -2 19 -25 27 -31 11 -41 32 -20 45 6 4
9 19 5 36 l-6 29 143 -8 c155 -9 838 -8 927 1 30 3 154 12 275 21 121 8 254
22 295 30 41 9 95 20 120 25 61 11 283 11 291 -1 5 -9 108 20 152 43 10 5 48
18 84 29 35 11 84 31 108 45 24 13 47 24 50 24 9 0 -16 -44 -31 -52 -7 -5 -22
-28 -34 -53 -18 -37 -25 -43 -36 -34 -8 6 -14 16 -14 21 0 21 -29 39 -48 29
-49 -26 -52 -76 -6 -87 29 -7 32 -30 4 -39 -46 -15 -31 -101 19 -111 16 -4 32
-14 35 -23 31 -88 34 -103 24 -139 -11 -41 -28 -68 -43 -72 -5 -2 -19 -9 -30
-16 -11 -7 -65 -22 -120 -33 -55 -11 -116 -25 -135 -30 -19 -5 -64 -13 -100
-16 -36 -4 -76 -12 -89 -17 -14 -5 -74 -13 -135 -18 -61 -5 -165 -15 -231 -24
-233 -29 -942 -27 -1185 3 -47 6 -141 13 -210 15 -115 3 -193 11 -355 36 -33
6 -96 12 -140 16 -44 3 -100 9 -125 14 -54 10 -102 28 -79 29 11 1 20 15 26
40 9 32 7 41 -6 53 -14 12 -19 11 -38 -6 -25 -21 -31 -71 -10 -79 19 -8 -143
4 -193 13 -25 5 -71 16 -104 24 -32 8 -84 16 -116 17 -32 1 -109 15 -172 31
-62 16 -135 31 -163 34 -50 6 -175 66 -175 84 0 6 -7 10 -15 10 -8 0 -15 8
-16 18 0 16 2 279 4 454 l1 78 21 -20 c11 -11 41 -37 67 -59z m1248 -189 c0
-11 -7 -18 -20 -18 -25 0 -27 23 -2 29 9 3 18 5 20 6 1 0 2 -7 2 -17z m2600
-101 c0 -12 -20 -25 -27 -18 -7 7 6 27 18 27 5 0 9 -4 9 -9z m-23 -63 c-3 -7
-5 -2 -5 12 0 14 2 19 5 13 2 -7 2 -19 0 -25z m-3867 -239 c35 -23 109 -46
210 -64 47 -8 117 -24 155 -35 39 -11 97 -21 130 -21 53 -1 106 -11 199 -40
16 -5 54 -9 86 -9 66 0 170 -18 187 -32 7 -5 17 -7 22 -4 5 4 12 2 15 -2 3 -5
42 -10 88 -11 45 -1 84 -4 88 -6 7 -4 143 -23 224 -30 32 -3 61 -7 65 -9 13
-8 112 -17 236 -20 72 -3 144 -7 160 -11 68 -16 702 -23 1030 -13 11 1 85 9
165 19 80 11 168 19 195 19 28 0 86 7 130 16 44 8 98 18 120 20 22 3 67 12
100 20 33 8 80 17 105 19 25 3 60 9 78 14 17 5 32 7 32 4 0 -3 6 0 14 6 26 21
62 2 86 -45 21 -40 22 -48 10 -86 -6 -24 -21 -53 -31 -67 -10 -13 -19 -28 -19
-33 0 -22 -33 -78 -46 -78 -8 0 -14 -4 -14 -9 0 -5 -15 -13 -32 -16 -18 -4
-37 -11 -43 -15 -5 -5 -44 -13 -85 -19 -100 -14 -124 -19 -200 -36 -80 -18
-446 -71 -555 -80 -259 -21 -889 -20 -1200 3 -221 16 -397 32 -405 37 -7 4
-57 12 -265 40 -85 12 -242 26 -340 30 -135 6 -321 33 -356 51 -14 7 -48 18
-75 24 -78 18 -184 65 -184 81 0 5 -7 9 -15 9 -22 0 -94 40 -108 61 -9 12 -14
61 -15 153 -1 74 -2 138 -3 143 -1 4 -1 18 0 30 1 25 17 23 61 -8z m73 -474
c62 -30 133 -59 159 -65 26 -5 71 -18 100 -29 65 -24 240 -48 413 -56 72 -4
143 -8 160 -10 38 -5 126 -17 145 -20 8 -1 60 -8 115 -15 55 -7 114 -17 130
-22 35 -12 207 -27 380 -33 66 -3 154 -9 195 -14 126 -17 789 -14 1065 4 55 4
134 13 175 21 79 15 108 19 258 38 84 11 92 10 92 -5 0 -13 9 -16 43 -15 37 1
42 4 46 26 4 35 16 40 103 40 55 0 81 4 92 15 19 20 25 19 20 -2 -7 -29 12
-46 51 -46 44 0 60 19 40 49 -12 19 -12 23 0 28 8 3 17 -3 20 -15 4 -10 12
-19 20 -19 25 0 26 -30 0 -40 -31 -12 -34 -51 -5 -80 22 -22 25 -41 10 -56 -9
-9 -23 -66 -37 -147 -3 -20 -10 -37 -15 -37 -20 0 -33 -25 -30 -54 3 -30 0
-33 -50 -55 -29 -12 -62 -27 -73 -32 -12 -6 -27 -11 -35 -13 -8 -2 -22 -6 -30
-9 -20 -9 -158 -39 -191 -41 -14 -2 -30 -6 -36 -9 -11 -7 -40 -11 -168 -21
-46 -4 -63 -3 -50 3 11 5 36 10 56 10 24 1 43 9 57 24 27 29 20 37 -31 37 -32
0 -38 3 -33 16 10 25 -12 44 -50 44 -30 0 -34 -3 -34 -25 0 -15 -6 -25 -14
-25 -18 0 -46 -27 -46 -43 0 -21 15 -36 38 -40 49 -7 27 -15 -65 -22 -159 -13
-187 -13 -205 -4 -9 5 -19 6 -22 1 -2 -4 -33 -6 -68 -4 -35 2 -135 2 -223 1
-88 -1 -290 -2 -450 -3 -159 0 -292 -4 -295 -8 -7 -8 -436 -21 -460 -13 -14 4
-17 14 -13 49 5 38 3 44 -17 49 -47 12 -81 -38 -48 -71 18 -18 8 -20 -52 -11
-48 8 -182 25 -260 34 -14 1 -25 3 -25 4 0 1 -18 4 -40 6 -22 1 -78 12 -125
24 -47 11 -100 21 -117 21 -35 0 -42 10 -19 29 19 16 13 66 -7 65 -12 -1 -14
6 -10 31 3 19 0 35 -6 39 -6 4 -11 21 -11 37 0 16 -6 32 -14 35 -20 8 -53 -12
-61 -35 -7 -23 31 -91 51 -91 17 0 17 -5 4 -31 -7 -13 -7 -25 0 -38 13 -25 -1
-34 -32 -22 -50 20 -65 24 -115 26 -63 4 -73 9 -73 39 0 13 -7 29 -15 36 -8 7
-15 19 -15 27 0 10 -9 13 -27 11 -25 -3 -28 -7 -27 -41 1 -38 1 -39 -29 -33
-17 4 -34 11 -37 16 -4 6 -14 8 -23 4 -16 -6 -127 23 -137 36 -3 4 -21 12 -40
19 -22 7 -36 18 -37 29 -5 67 -11 552 -7 552 3 0 56 -25 117 -55z m3887 -211
c0 -8 -4 -12 -10 -9 -5 3 -10 13 -10 21 0 8 5 12 10 9 6 -3 10 -13 10 -21z"/>
<path d="M2160 3782 c-8 -3 -21 -11 -28 -19 -7 -7 -22 -13 -32 -13 -20 0 -44
-32 -33 -44 3 -3 0 -6 -8 -7 -8 0 -29 -18 -46 -40 -30 -38 -48 -83 -73 -187
l-11 -43 -29 21 c-16 11 -52 26 -80 33 l-51 12 6 45 c5 39 3 49 -15 65 -30 27
-54 10 -60 -46 -3 -26 -8 -39 -13 -32 -4 7 -15 9 -25 6 -18 -7 -51 -43 -52
-55 0 -11 -47 -78 -51 -73 -2 2 -5 -37 -5 -86 -1 -49 3 -89 7 -89 5 0 9 -11 9
-25 0 -29 75 -109 113 -121 12 -4 24 -9 27 -13 13 -16 49 -28 77 -26 55 4 202
68 209 90 4 11 13 28 22 37 11 13 13 31 9 68 l-6 50 42 0 c23 -1 65 -7 92 -14
28 -7 52 -10 55 -6 3 4 15 6 27 5 28 -2 93 57 94 87 1 30 -10 118 -18 143 -5
16 -3 18 8 8 8 -6 18 -12 23 -12 5 0 10 -12 11 -25 0 -14 -3 -22 -7 -20 -4 3
-8 1 -8 -5 0 -5 4 -12 9 -16 12 -7 24 31 15 47 -4 7 -4 10 1 6 4 -4 16 -3 26
3 16 8 21 6 29 -13 5 -13 9 -19 9 -15 1 4 9 3 20 -2 17 -10 106 -14 162 -7 14
1 36 10 49 19 14 9 30 17 36 17 17 0 26 63 15 93 -9 22 -8 25 7 21 9 -2 6 1
-8 8 -14 6 -26 13 -28 14 -1 0 2 13 8 28 8 21 7 31 -4 41 -7 8 -17 11 -20 7
-4 -4 -16 4 -26 18 l-18 24 5 -27 c5 -24 10 -29 29 -26 8 1 24 -22 24 -33 0
-14 -24 -8 -49 11 -13 10 -32 16 -41 14 -21 -6 -33 30 -16 48 8 9 8 10 -1 5
-6 -3 -14 0 -17 6 -4 7 -4 -1 -1 -19 4 -31 4 -32 -33 -29 -20 2 -48 6 -62 10
-20 5 -32 0 -57 -22 -40 -37 -51 -88 -29 -133 19 -39 19 -36 0 -43 -8 -3 -12
-2 -9 4 3 5 -4 14 -16 20 -17 10 -20 9 -14 -1 5 -8 4 -10 -3 -5 -17 10 -15 26
3 26 8 0 15 5 15 10 0 6 -9 10 -21 10 -15 0 -19 5 -15 15 3 8 1 15 -4 15 -6 0
-10 -5 -10 -11 0 -6 -7 -3 -16 6 -13 12 -14 19 -5 28 15 15 14 27 -1 27 -7 0
-28 14 -45 30 -29 27 -31 33 -20 50 21 34 -12 66 -53 52z m3 -124 c33 -29 88
-147 95 -203 10 -92 -22 -123 -106 -104 -26 6 -65 12 -86 14 -43 4 -67 22 -68
51 -1 28 22 114 40 149 16 31 82 112 93 114 3 1 18 -9 32 -21z m421 -54 c67
-31 75 -48 33 -65 -66 -27 -177 -5 -177 36 0 11 64 51 87 55 1 0 27 -12 57
-26z m-848 -159 c20 -14 47 -25 59 -25 12 0 25 -3 29 -7 3 -4 13 -8 21 -9 7
-1 34 -16 59 -33 39 -27 46 -37 52 -76 9 -61 -2 -110 -29 -128 -12 -8 -49 -24
-83 -36 l-60 -22 -55 25 c-57 27 -78 50 -97 105 -15 43 -16 131 -1 131 5 0 8
4 5 9 -3 5 1 14 9 21 8 7 15 17 15 23 0 8 28 44 37 46 1 1 19 -10 39 -24z"/>
<path d="M2368 3776 c-10 -7 -15 -16 -11 -19 3 -4 12 1 19 11 11 16 13 16 32
-1 15 -14 22 -15 28 -6 4 8 3 10 -5 5 -6 -4 -14 0 -17 8 -7 19 -23 20 -46 2z"/>
<path d="M2290 3760 c0 -13 18 -22 24 -11 3 5 -1 11 -9 15 -8 3 -15 1 -15 -4z"/>
<path d="M2415 3730 c-3 -5 -1 -10 4 -10 6 0 11 5 11 10 0 6 -2 10 -4 10 -3 0
-8 -4 -11 -10z"/>
<path d="M2290 3670 c0 -5 5 -10 11 -10 5 0 7 5 4 10 -3 6 -8 10 -11 10 -2 0
-4 -4 -4 -10z"/>
<path d="M2720 3641 c0 -5 5 -13 12 -17 7 -4 8 -3 4 4 -4 7 -2 12 3 12 6 0 11
-11 11 -25 0 -14 5 -25 10 -25 6 0 10 -7 10 -15 0 -8 10 -23 21 -34 13 -12 19
-26 16 -35 -4 -9 -3 -16 2 -16 5 0 11 9 14 20 3 11 0 20 -6 20 -6 0 -7 3 -4 7
4 3 -2 13 -14 21 -11 8 -18 20 -15 28 3 8 0 13 -6 11 -6 -1 -12 3 -14 8 -2 6
4 11 13 12 61 4 79 15 30 18 -12 1 -37 5 -54 9 -21 5 -33 4 -33 -3z"/>
<path d="M2831 3594 c0 -11 3 -14 6 -6 3 7 2 16 -1 19 -3 4 -6 -2 -5 -13z"/>
<path d="M2850 3581 c0 -18 12 -41 22 -41 6 0 5 6 -2 15 -9 11 -9 15 -1 15 7
0 9 5 6 10 -8 13 -25 13 -25 1z"/>
<path d="M2890 3560 c0 -11 5 -20 11 -20 5 0 7 -5 4 -10 -4 -6 -11 -8 -16 -5
-5 4 -9 1 -9 -5 0 -7 7 -10 15 -6 8 3 15 0 15 -5 0 -7 10 -5 24 4 21 14 25 15
30 1 4 -10 1 -13 -7 -9 -6 4 -3 -1 7 -9 11 -9 14 -16 7 -16 -7 0 -10 -4 -7 -9
10 -16 -38 -21 -54 -6 -13 13 -12 15 8 15 12 0 22 4 22 8 0 5 -16 7 -35 6 -21
-2 -40 3 -50 12 -13 14 -15 14 -15 0 0 -9 6 -16 14 -16 8 0 18 -5 21 -10 4 -7
-3 -9 -22 -5 -20 5 -17 1 15 -14 40 -19 41 -21 31 -45 -7 -14 -15 -23 -20 -21
-4 3 -6 -14 -5 -38 3 -56 47 -132 88 -153 61 -31 149 -18 228 35 18 12 24 117
7 128 -7 4 -3 10 13 14 23 7 23 7 3 8 -12 1 -33 11 -47 24 -45 41 -55 47 -80
47 -16 0 -30 8 -37 23 -31 60 -86 86 -117 55 -15 -15 -16 -3 -2 23 9 16 7 19
-15 19 -18 0 -25 -5 -25 -20z m110 -30 c0 -5 -2 -10 -4 -10 -3 0 -8 5 -11 10
-3 6 -1 10 4 10 6 0 11 -4 11 -10z m30 -39 c0 -13 -28 -22 -35 -11 -3 4 1 11
7 13 20 8 28 8 28 -2z m98 -166 c2 -32 -1 -37 -33 -51 -40 -16 -99 -11 -126
12 -9 8 -16 28 -17 44 -1 30 11 40 23 20 10 -16 45 -12 45 5 0 8 9 15 19 15
11 0 22 4 25 9 4 5 18 3 34 -5 22 -10 28 -21 30 -49z"/>
<path d="M3090 3309 c0 -5 5 -7 10 -4 6 3 10 8 10 11 0 2 -4 4 -10 4 -5 0 -10
-5 -10 -11z"/>
<path d="M2755 3491 c-6 -5 -23 -11 -40 -13 -16 -2 -29 -7 -27 -13 2 -5 9 -9
17 -7 7 1 16 -2 20 -8 3 -5 14 -10 23 -9 12 0 9 4 -8 11 -24 11 -24 12 -3 15
12 2 24 11 27 19 6 16 4 18 -9 5z"/>
<path d="M2535 3430 c-3 -5 -3 -10 2 -11 4 0 -1 -4 -12 -9 -19 -8 -19 -9 1 -9
12 -1 24 6 27 14 7 17 -9 30 -18 15z"/>
<path d="M2475 3381 c3 -6 14 -9 25 -8 23 2 17 10 -11 14 -11 2 -18 -1 -14 -6z"/>
<path d="M2765 3380 c4 -6 2 -17 -4 -24 -9 -10 -7 -15 5 -20 9 -4 19 -5 21 -3
5 6 -15 57 -22 57 -4 0 -3 -5 0 -10z"/>
<path d="M2715 3364 l-30 -13 30 6 c32 6 41 11 34 17 -2 2 -17 -2 -34 -10z"/>
<path d="M2790 3369 c0 -5 5 -7 10 -4 6 3 10 8 10 11 0 2 -4 4 -10 4 -5 0 -10
-5 -10 -11z"/>
<path d="M2590 3356 c-30 -11 -32 -13 -13 -18 12 -3 24 -1 27 6 3 6 4 2 3 -8
-1 -10 4 -21 11 -23 8 -3 10 1 6 11 -3 9 -1 23 6 31 15 18 7 18 -40 1z"/>
<path d="M2671 3354 c0 -11 3 -14 6 -6 3 7 2 16 -1 19 -3 4 -6 -2 -5 -13z"/>
<path d="M2812 3358 c-7 -7 -12 -16 -12 -22 0 -5 3 -6 7 -3 3 4 12 -1 19 -11
16 -23 27 -11 18 22 -7 29 -14 32 -32 14z"/>
<path d="M2725 3340 c-3 -5 -1 -10 4 -10 6 0 11 5 11 10 0 6 -2 10 -4 10 -3 0
-8 -4 -11 -10z"/>
<path d="M3400 3341 c0 -6 4 -13 10 -16 6 -3 7 1 4 9 -7 18 -14 21 -14 7z"/>
<path d="M2735 3300 c-3 -5 1 -10 9 -10 9 0 16 5 16 10 0 6 -4 10 -9 10 -6 0
-13 -4 -16 -10z"/>
<path d="M2540 3289 c0 -5 5 -7 10 -4 6 3 10 8 10 11 0 2 -4 4 -10 4 -5 0 -10
-5 -10 -11z"/>
<path d="M2855 3280 c2 -27 10 -33 12 -10 1 11 -2 22 -6 24 -4 3 -7 -4 -6 -14z"/>
<path d="M3428 3280 c-22 -21 -23 -41 -2 -33 12 4 15 1 13 -12 -3 -12 -15 -20
-33 -22 -49 -7 -61 -19 -76 -75 -22 -86 -9 -146 40 -185 15 -12 107 -38 125
-35 6 1 32 4 58 6 40 3 53 9 77 37 15 19 26 42 25 52 -2 9 1 17 7 17 6 0 8
-11 6 -25 -6 -28 6 -32 28 -10 14 13 14 15 0 15 -9 0 -16 5 -16 10 0 6 5 10
11 10 8 0 8 5 -1 15 -14 17 -35 21 -25 5 3 -5 -1 -10 -9 -10 -9 0 -16 4 -16
10 0 34 -90 90 -146 90 -22 0 -24 3 -15 14 7 8 21 12 31 9 11 -3 20 0 20 6 0
6 -7 8 -17 4 -12 -5 -14 -3 -8 8 8 12 6 12 -8 1 -14 -12 -17 -10 -23 12 -3 14
-10 23 -15 20 -13 -8 -11 20 3 34 9 9 9 12 0 12 -9 0 -10 5 -3 18 13 24 -7 25
-31 2z m-3 -160 c-3 -5 -11 -10 -16 -10 -6 0 -7 5 -4 10 3 6 11 10 16 10 6 0
7 -4 4 -10z m21 -73 c14 23 71 22 107 -2 26 -16 27 -19 12 -34 -10 -11 -34
-16 -74 -16 -68 0 -101 21 -101 64 l1 26 22 -27 c20 -25 23 -26 33 -11z"/>
<path d="M1306 3275 c4 -8 8 -15 10 -15 2 0 4 7 4 15 0 8 -4 15 -10 15 -5 0
-7 -7 -4 -15z"/>
<path d="M2650 3280 c0 -5 5 -10 10 -10 6 0 10 -4 10 -9 0 -5 -10 -7 -22 -5
-21 4 -22 4 -3 -5 31 -15 35 -13 35 14 0 16 -6 25 -15 25 -8 0 -15 -4 -15 -10z"/>
<path d="M3270 3279 c0 -5 5 -7 10 -4 6 3 10 8 10 11 0 2 -4 4 -10 4 -5 0 -10
-5 -10 -11z"/>
<path d="M3370 3286 c0 -2 7 -6 15 -10 8 -3 15 -1 15 4 0 6 -7 10 -15 10 -8 0
-15 -2 -15 -4z"/>
<path d="M3485 3260 c-3 -5 -1 -10 4 -10 6 0 11 5 11 10 0 6 -2 10 -4 10 -3 0
-8 -4 -11 -10z"/>
<path d="M3290 3251 c0 -5 5 -13 10 -16 6 -3 10 -2 10 4 0 5 -4 13 -10 16 -5
3 -10 2 -10 -4z"/>
<path d="M2387 3237 c-3 -8 -1 -20 4 -28 6 -10 9 -7 9 14 0 29 -5 35 -13 14z"/>
<path d="M1480 3230 c0 -6 -4 -8 -10 -5 -5 3 -10 1 -10 -4 0 -13 10 -14 29 -2
9 6 10 11 2 15 -6 4 -11 2 -11 -4z"/>
<path d="M2835 3230 c3 -5 8 -10 11 -10 2 0 4 5 4 10 0 6 -5 10 -11 10 -5 0
-7 -4 -4 -10z"/>
<path d="M2235 3220 c3 -5 8 -10 11 -10 2 0 4 5 4 10 0 6 -5 10 -11 10 -5 0
-7 -4 -4 -10z"/>
<path d="M1545 3209 c-4 -6 -5 -12 -2 -15 2 -3 7 2 10 11 7 17 1 20 -8 4z"/>
<path d="M2305 3200 c-4 -6 -10 -8 -14 -6 -4 3 -8 -1 -8 -9 0 -8 4 -12 9 -9 5
4 12 -3 15 -15 4 -15 11 -19 27 -17 11 3 23 5 26 5 3 1 -6 7 -20 14 -14 7 -24
21 -24 30 2 19 -2 22 -11 7z"/>
<path d="M2402 3192 c-32 -16 -40 -43 -14 -48 7 -1 8 0 2 3 -17 8 -11 23 7 16
11 -4 14 -3 9 6 -5 8 -1 14 13 18 12 3 21 9 21 14 0 11 2 11 -38 -9z"/>
<path d="M1515 3180 c-3 -5 -1 -10 4 -10 6 0 11 5 11 10 0 6 -2 10 -4 10 -3 0
-8 -4 -11 -10z"/>
<path d="M2240 3168 c0 -10 5 -18 11 -18 5 0 7 -4 4 -10 -10 -16 1 -11 16 7 8
10 9 14 2 10 -7 -4 -16 0 -22 10 -10 17 -10 17 -11 1z"/>
<path d="M2607 3173 c-4 -3 -7 -11 -7 -17 0 -6 5 -5 12 2 6 6 9 14 7 17 -3 3
-9 2 -12 -2z"/>
<path d="M3317 3173 c-4 -3 -7 -11 -7 -17 0 -6 5 -5 12 2 6 6 9 14 7 17 -3 3
-9 2 -12 -2z"/>
<path d="M2505 3160 c4 -6 11 -8 16 -5 14 9 11 15 -7 15 -8 0 -12 -5 -9 -10z"/>
<path d="M2642 3165 c4 -4 4 -13 -2 -19 -6 -8 -2 -16 11 -24 10 -7 19 -8 19
-3 0 6 -5 13 -10 16 -6 4 -8 10 -5 15 3 5 0 12 -7 16 -7 4 -10 4 -6 -1z"/>
<path d="M2788 3163 c7 -3 16 -2 19 1 4 3 -2 6 -13 5 -11 0 -14 -3 -6 -6z"/>
<path d="M2743 3140 c6 -10 15 -16 19 -14 14 9 9 22 -11 27 -17 4 -18 2 -8
-13z"/>
<path d="M2984 3141 c0 -11 4 -17 8 -15 4 3 8 0 8 -7 0 -7 3 -10 6 -6 7 7 -5
47 -15 47 -3 0 -7 -9 -7 -19z"/>
<path d="M3588 3148 c5 -5 19 -4 33 1 23 10 22 10 -8 8 -18 0 -29 -5 -25 -9z"/>
<path d="M2463 3143 c9 -2 23 -2 30 0 6 3 -1 5 -18 5 -16 0 -22 -2 -12 -5z"/>
<path d="M2550 3140 c0 -5 10 -10 23 -10 18 0 19 2 7 10 -19 13 -30 13 -30 0z"/>
<path d="M3020 3136 c0 -8 4 -17 9 -20 5 -4 7 3 4 14 -6 23 -13 26 -13 6z"/>
<path d="M3615 3121 c-5 -13 -4 -13 6 -4 16 16 50 -2 43 -22 -4 -8 -1 -15 5
-15 6 0 11 5 11 10 0 6 7 10 15 10 8 0 15 -4 15 -10 0 -5 -4 -10 -10 -10 -5 0
-10 -4 -10 -10 0 -16 27 -11 34 6 7 19 -12 47 -25 38 -5 -3 -14 -2 -20 2 -8 5
-8 8 0 13 6 4 -5 7 -24 7 -22 0 -37 -6 -40 -15z"/>
<path d="M2680 3120 c0 -5 7 -10 16 -10 8 0 12 5 9 10 -3 6 -10 10 -16 10 -5
0 -9 -4 -9 -10z"/>
<path d="M2228 3113 c-28 -7 -21 -21 7 -15 14 2 22 8 19 13 -3 5 -6 8 -7 8 -1
-1 -10 -3 -19 -6z"/>
<path d="M2405 3111 c-3 -5 -1 -12 5 -16 5 -3 10 1 10 9 0 18 -6 21 -15 7z"/>
<path d="M2369 3093 c-13 -16 -12 -17 4 -4 9 7 17 15 17 17 0 8 -8 3 -21 -13z"/>
<path d="M2329 3068 c26 -7 31 -12 20 -19 -10 -6 -11 -9 -1 -9 7 0 10 -4 7
-10 -3 -5 -1 -10 4 -10 6 0 11 11 11 24 0 16 -7 26 -22 30 -38 10 -55 5 -19
-6z"/>
<path d="M2406 3065 c4 -8 10 -15 15 -15 4 0 6 7 3 15 -4 8 -10 15 -15 15 -4
0 -6 -7 -3 -15z"/>
<path d="M2075 3051 c-3 -6 4 -9 15 -8 11 1 20 5 20 9 0 11 -28 10 -35 -1z"/>
<path d="M2188 3053 c7 -3 16 -2 19 1 4 3 -2 6 -13 5 -11 0 -14 -3 -6 -6z"/>
<path d="M2250 3047 c0 -10 8 -17 18 -17 9 0 13 4 7 8 -5 4 -13 11 -17 16 -5
5 -8 2 -8 -7z"/>
<path d="M2990 3056 c0 -2 7 -6 15 -10 8 -3 15 -1 15 4 0 6 -7 10 -15 10 -8 0
-15 -2 -15 -4z"/>
<path d="M3738 3038 c11 -14 10 -18 -4 -26 -14 -8 -13 -10 8 -14 21 -4 24 -1
21 13 -3 10 -13 24 -22 31 -14 11 -14 11 -3 -4z"/>
<path d="M3710 3030 c0 -5 5 -10 11 -10 5 0 7 5 4 10 -3 6 -8 10 -11 10 -2 0
-4 -4 -4 -10z"/>
<path d="M3776 3031 c-4 -5 3 -7 14 -4 23 6 26 13 6 13 -8 0 -17 -4 -20 -9z"/>
<path d="M3820 3020 c0 -5 5 -10 11 -10 5 0 7 5 4 10 -3 6 -8 10 -11 10 -2 0
-4 -4 -4 -10z"/>
<path d="M1650 3016 c0 -2 7 -7 16 -10 8 -3 12 -2 9 4 -6 10 -25 14 -25 6z"/>
<path d="M2465 3010 c4 -6 11 -8 16 -5 14 9 11 15 -7 15 -8 0 -12 -5 -9 -10z"/>
<path d="M3776 2971 c-13 -14 -14 -21 -5 -27 8 -4 10 -3 5 5 -4 7 2 14 15 19
13 5 18 12 12 15 -6 4 -18 -2 -27 -12z"/>
<path d="M3690 2969 c0 -5 -4 -7 -10 -4 -5 3 -10 1 -10 -4 0 -6 5 -11 11 -11
6 0 9 -8 6 -19 -3 -14 0 -17 13 -14 10 3 21 0 24 -5 3 -6 16 -8 29 -5 22 5 22
4 -3 -15 -13 -11 -29 -20 -35 -19 -5 1 -14 -13 -19 -30 -6 -19 -17 -33 -26
-33 -10 0 -11 -3 -3 -8 6 -4 14 -21 18 -37 4 -17 9 -37 12 -45 11 -30 12 -60
1 -54 -6 4 -6 -2 1 -15 7 -11 17 -21 24 -21 7 0 6 4 -3 10 -11 7 -8 10 15 9
17 0 24 -3 18 -6 -7 -2 -13 -12 -13 -20 0 -9 3 -13 7 -10 3 4 17 -3 30 -15 25
-24 43 -19 18 5 -20 20 -19 29 3 26 9 -1 26 2 36 6 13 6 21 4 24 -3 2 -7 10
-12 18 -12 8 0 11 6 8 15 -4 8 -2 15 4 15 19 0 71 56 86 93 8 20 22 40 30 43
12 5 13 9 3 25 -6 10 -17 19 -23 19 -6 0 -17 6 -23 14 -9 11 -9 15 1 20 10 5
10 7 1 12 -7 3 -13 11 -13 18 0 6 -9 12 -20 12 -22 0 -27 -12 -7 -19 6 -2 9
-7 5 -11 -3 -4 -16 -2 -28 4 -12 7 -33 10 -46 7 -12 -2 -25 1 -27 7 -3 6 -33
17 -67 24 -44 9 -60 16 -52 24 6 6 8 17 5 24 -6 16 -23 19 -23 3z m197 -164
c18 -13 20 -18 10 -39 -14 -30 -56 -56 -91 -56 -19 0 -29 8 -41 34 -20 42 -12
60 22 52 15 -4 29 -1 39 9 19 19 34 19 61 0z m108 -4 c3 -5 1 -12 -5 -16 -5
-3 -10 1 -10 9 0 18 6 21 15 7z"/>
<path d="M3827 2973 c-13 -12 -7 -21 18 -25 14 -3 25 -1 25 3 0 5 -9 9 -21 9
-11 0 -17 5 -14 10 7 11 2 13 -8 3z"/>
<path d="M3630 2929 c0 -5 -4 -8 -8 -5 -4 2 -14 0 -22 -6 -11 -7 -6 -8 17 -4
33 6 53 -7 31 -20 -23 -14 -60 -10 -73 9 -11 16 -13 16 -19 2 -3 -9 -2 -14 3
-11 5 3 14 -1 21 -9 8 -10 21 -13 33 -9 21 7 21 6 2 -22 -14 -22 -14 -26 -3
-16 13 10 17 10 22 0 3 -7 4 -4 1 8 -6 22 26 43 68 45 16 1 14 3 -10 10 -34
10 -42 24 -20 32 6 3 0 6 -15 6 -16 1 -28 -4 -28 -10z"/>
<path d="M940 2901 c-8 -6 -19 -7 -25 -4 -5 4 -6 2 -2 -2 13 -15 35 -14 41 1
6 16 6 17 -14 5z"/>
<path d="M1001 2844 c0 -11 3 -14 6 -6 3 7 2 16 -1 19 -3 4 -6 -2 -5 -13z"/>
<path d="M2408 2853 c7 -3 16 -2 19 1 4 3 -2 6 -13 5 -11 0 -14 -3 -6 -6z"/>
<path d="M3503 2853 c4 -6 0 -16 -10 -22 -10 -6 -13 -11 -7 -11 5 0 15 5 22
12 9 9 12 6 12 -17 0 -23 -3 -26 -12 -17 -14 14 -28 16 -28 3 0 -5 9 -11 20
-14 14 -4 23 3 35 26 8 16 13 33 10 35 -3 3 -5 -1 -5 -8 0 -9 -7 -7 -22 6 -12
10 -18 14 -15 7z"/>
<path d="M3405 2840 c-3 -5 -1 -10 4 -10 6 0 11 5 11 10 0 6 -2 10 -4 10 -3 0
-8 -4 -11 -10z"/>
<path d="M3445 2840 c-3 -5 -1 -10 4 -10 6 0 11 5 11 10 0 6 -2 10 -4 10 -3 0
-8 -4 -11 -10z"/>
<path d="M3665 2839 c-4 -6 -5 -12 -2 -15 2 -3 7 2 10 11 7 17 1 20 -8 4z"/>
<path d="M1038 2810 c-3 -17 -1 -30 3 -30 10 0 18 50 9 55 -4 3 -10 -9 -12
-25z"/>
<path d="M1710 2829 c0 -4 7 -9 15 -13 9 -3 15 0 15 8 0 7 -7 13 -15 13 -8 0
-15 -4 -15 -8z"/>
<path d="M1797 2819 c-3 -12 -3 -18 0 -15 3 3 15 1 27 -5 19 -9 19 -9 4 4 -10
8 -15 16 -12 19 3 4 1 9 -4 12 -5 3 -12 -4 -15 -15z"/>
<path d="M2320 2830 c0 -5 5 -10 11 -10 5 0 7 5 4 10 -3 6 -8 10 -11 10 -2 0
-4 -4 -4 -10z"/>
<path d="M4035 2810 c-4 -6 -1 -18 7 -27 11 -15 11 -16 -4 -10 -22 8 -23 0 -3
-19 13 -14 15 -14 15 0 0 10 6 13 18 10 11 -4 9 0 -7 14 -13 11 -21 24 -17 31
4 6 5 11 2 11 -3 0 -8 -5 -11 -10z"/>
<path d="M843 2804 c3 -4 -3 -15 -15 -25 l-21 -19 29 0 c22 0 26 3 14 10 -13
8 -12 10 3 10 22 0 22 16 0 24 -10 4 -14 4 -10 0z"/>
<path d="M2353 2795 c0 -8 4 -12 9 -9 5 3 6 10 3 15 -9 13 -12 11 -12 -6z"/>
<path d="M3553 2795 c0 -7 6 -11 14 -8 7 3 13 6 13 8 0 2 -6 5 -13 8 -8 3 -14
-1 -14 -8z"/>
<path d="M3450 2775 c0 -9 6 -12 15 -9 8 4 12 10 9 15 -8 14 -24 10 -24 -6z"/>
<path d="M3596 2774 c-5 -12 -2 -15 10 -10 8 3 18 6 20 6 3 0 2 5 -1 10 -9 15
-22 12 -29 -6z"/>
<path d="M2416 2765 c-3 -8 -1 -15 4 -15 13 0 22 18 11 24 -5 3 -11 -1 -15 -9z"/>
<path d="M2505 2770 c3 -5 2 -10 -4 -10 -6 0 -8 -7 -5 -15 5 -11 9 -11 19 -2
13 13 9 37 -7 37 -5 0 -6 -4 -3 -10z"/>
<path d="M3237 2766 c-3 -8 0 -17 7 -19 10 -4 12 1 9 14 -6 23 -9 24 -16 5z"/>
<path d="M3300 2771 c0 -6 4 -12 8 -15 5 -3 9 1 9 9 0 8 -4 15 -9 15 -4 0 -8
-4 -8 -9z"/>
<path d="M3405 2768 c11 -6 23 -16 27 -22 5 -7 8 -5 8 5 0 16 -20 29 -43 29
-7 0 -3 -6 8 -12z"/>
<path d="M3490 2776 c0 -2 8 -10 18 -17 15 -13 16 -12 3 4 -13 16 -21 21 -21
13z"/>
<path d="M2547 2753 c3 -7 -2 -13 -12 -13 -9 0 -14 -4 -10 -9 3 -5 -3 -12 -12
-14 -14 -4 -13 -5 5 -6 12 0 22 4 22 9 0 6 7 10 16 10 10 0 14 6 11 14 -3 8
-1 17 6 19 7 3 2 4 -9 4 -14 -1 -20 -6 -17 -14z"/>
<path d="M3193 2757 c0 -8 11 -20 24 -26 14 -7 23 -7 23 -1 0 6 -5 10 -11 10
-7 0 -17 7 -24 16 -10 15 -12 15 -12 1z"/>
<path d="M2455 2750 c-3 -6 1 -7 9 -4 18 7 21 14 7 14 -6 0 -13 -4 -16 -10z"/>
<path d="M3330 2751 c0 -5 12 -8 26 -8 18 0 22 2 13 8 -18 11 -39 11 -39 0z"/>
<path d="M3394 2728 c1 -29 -2 -33 -24 -31 -15 1 -18 0 -7 -3 11 -4 16 -12 13
-22 -7 -21 10 -50 21 -38 4 5 3 11 -4 13 -13 5 -7 29 12 53 9 10 10 23 4 38
-12 31 -17 28 -15 -10z"/>
<path d="M3473 2752 c-8 -5 -9 -13 -3 -22 6 -10 10 -11 10 -3 0 7 7 10 18 7
10 -4 13 -2 7 3 -5 4 -12 11 -15 15 -3 4 -11 4 -17 0z"/>
<path d="M3606 2742 c-3 -5 1 -9 9 -9 8 0 12 4 9 9 -3 4 -7 8 -9 8 -2 0 -6 -4
-9 -8z"/>
<path d="M4052 2731 c-11 -6 -10 -10 4 -15 20 -8 32 0 18 14 -5 5 -15 5 -22 1z"/>
<path d="M1078 2713 c-10 -2 -18 -8 -18 -13 0 -4 9 -6 20 -3 11 3 20 9 20 14
0 5 -1 8 -2 8 -2 -1 -11 -3 -20 -6z"/>
<path d="M2160 2705 c0 -8 2 -15 4 -15 2 0 6 7 10 15 3 8 1 15 -4 15 -6 0 -10
-7 -10 -15z"/>
<path d="M3610 2709 c0 -5 5 -7 10 -4 6 3 10 8 10 11 0 2 -4 4 -10 4 -5 0 -10
-5 -10 -11z"/>
<path d="M4107 2700 c-9 -11 -17 -27 -17 -36 0 -10 -6 -14 -15 -10 -8 3 -15 0
-16 -7 0 -7 -2 -23 -4 -37 -2 -14 -1 -19 1 -12 3 6 11 9 16 6 6 -4 8 -2 4 4
-3 6 1 17 9 25 8 9 15 21 15 27 0 6 5 8 10 5 6 -4 8 -10 5 -15 -3 -4 4 -6 16
-3 16 4 17 8 7 14 -11 7 -11 9 1 9 11 0 11 3 0 17 -8 9 -12 18 -11 20 2 3 2 6
0 9 -2 2 -12 -6 -21 -16z"/>
<path d="M780 2701 c0 -5 7 -12 16 -15 14 -5 15 -4 4 9 -14 17 -20 19 -20 6z"/>
<path d="M1115 2700 c-3 -5 -1 -10 4 -10 6 0 11 5 11 10 0 6 -2 10 -4 10 -3 0
-8 -4 -11 -10z"/>
<path d="M3157 2699 c7 -7 15 -10 18 -7 3 3 -2 9 -12 12 -14 6 -15 5 -6 -5z"/>
<path d="M2241 2684 c0 -11 3 -14 6 -6 3 7 2 16 -1 19 -3 4 -6 -2 -5 -13z"/>
<path d="M3298 2692 c7 -5 10 -16 6 -28 -6 -15 -4 -17 6 -7 15 14 7 43 -12 43
-11 0 -11 -2 0 -8z"/>
<path d="M2092 2674 c10 -10 20 -16 22 -13 3 3 -5 11 -17 18 -21 13 -21 12 -5
-5z"/>
<path d="M3147 2679 c7 -7 15 -10 18 -7 3 3 -2 9 -12 12 -14 6 -15 5 -6 -5z"/>
<path d="M1925 2670 c-3 -5 -2 -10 4 -10 5 0 13 5 16 10 3 6 2 10 -4 10 -5 0
-13 -4 -16 -10z"/>
<path d="M2312 2665 c-23 -12 -23 -13 -3 -18 12 -3 19 -1 16 3 -3 5 1 10 7 13
7 2 11 6 8 9 -3 3 -15 -1 -28 -7z"/>
<path d="M1546 2654 c-8 -21 -8 -21 8 -21 8 0 11 8 8 19 -5 22 -8 23 -16 2z"/>
<path d="M1961 2654 c0 -11 3 -14 6 -6 3 7 2 16 -1 19 -3 4 -6 -2 -5 -13z"/>
<path d="M2025 2660 c3 -5 8 -10 11 -10 2 0 4 5 4 10 0 6 -5 10 -11 10 -5 0
-7 -4 -4 -10z"/>
<path d="M3645 2659 c-4 -6 -5 -12 -2 -15 2 -3 7 2 10 11 7 17 1 20 -8 4z"/>
<path d="M2239 2653 c0 -5 -2 -16 -4 -25 -2 -10 0 -20 4 -22 3 -2 7 9 7 25 1
16 0 29 -2 29 -2 0 -4 -3 -5 -7z"/>
<path d="M1611 2634 c0 -11 3 -14 6 -6 3 7 2 16 -1 19 -3 4 -6 -2 -5 -13z"/>
<path d="M1710 2640 c0 -5 7 -7 15 -4 8 4 15 8 15 10 0 2 -7 4 -15 4 -8 0 -15
-4 -15 -10z"/>
<path d="M3040 2639 c0 -5 5 -7 10 -4 6 3 10 8 10 11 0 2 -4 4 -10 4 -5 0 -10
-5 -10 -11z"/>
<path d="M3330 2640 c0 -5 9 -10 21 -10 11 0 17 5 14 10 -3 6 -13 10 -21 10
-8 0 -14 -4 -14 -10z"/>
<path d="M2384 2604 c0 -19 2 -30 6 -23 4 6 12 14 17 18 6 3 4 13 -6 23 -15
15 -16 14 -17 -18z"/>
<path d="M2330 2621 c0 -6 5 -11 11 -11 5 0 8 -4 5 -9 -3 -5 1 -12 9 -15 13
-4 13 -2 5 14 -12 23 -30 35 -30 21z"/>
<path d="M2445 2610 c-23 -26 -17 -32 15 -15 14 8 19 14 12 15 -7 0 -10 5 -7
10 10 17 -1 11 -20 -10z"/>
<path d="M3480 2603 c-13 -15 -12 -16 4 -10 10 4 20 7 22 7 2 0 4 5 4 10 0 15
-13 12 -30 -7z"/>
<path d="M1550 2599 c0 -5 5 -7 10 -4 6 3 10 8 10 11 0 2 -4 4 -10 4 -5 0 -10
-5 -10 -11z"/>
<path d="M1581 2598 c-1 -10 6 -18 14 -18 8 0 15 5 15 11 0 5 -4 8 -9 5 -5 -4
-12 0 -14 6 -3 8 -6 6 -6 -4z"/>
<path d="M3592 2590 c0 -14 2 -19 5 -12 2 6 2 18 0 25 -3 6 -5 1 -5 -13z"/>
<path d="M1240 2590 c-12 -8 -10 -10 8 -10 13 0 20 4 17 10 -7 12 -6 12 -25 0z"/>
<path d="M1435 2590 c3 -5 8 -10 11 -10 2 0 4 5 4 10 0 6 -5 10 -11 10 -5 0
-7 -4 -4 -10z"/>
<path d="M1501 2584 c0 -11 3 -14 6 -6 3 7 2 16 -1 19 -3 4 -6 -2 -5 -13z"/>
<path d="M2536 2584 c-4 -9 -4 -19 -1 -22 2 -3 7 3 11 12 4 9 4 19 1 22 -2 3
-7 -3 -11 -12z"/>
<path d="M3150 2590 c0 -5 5 -10 10 -10 6 0 10 5 10 10 0 6 -4 10 -10 10 -5 0
-10 -4 -10 -10z"/>
<path d="M3665 2575 c0 -14 3 -25 6 -25 4 0 9 11 11 25 3 15 1 25 -6 25 -6 0
-11 -11 -11 -25z"/>
<path d="M3845 2590 c3 -5 8 -10 11 -10 2 0 4 5 4 10 0 6 -5 10 -11 10 -5 0
-7 -4 -4 -10z"/>
<path d="M2818 2583 c7 -3 16 -2 19 1 4 3 -2 6 -13 5 -11 0 -14 -3 -6 -6z"/>
<path d="M3480 2564 c0 -14 3 -14 15 -4 8 7 15 14 15 16 0 2 -7 4 -15 4 -8 0
-15 -7 -15 -16z"/>
<path d="M1235 2560 c-3 -6 1 -7 9 -4 18 7 21 14 7 14 -6 0 -13 -4 -16 -10z"/>
<path d="M1305 2560 c-3 -5 -3 -10 2 -11 4 0 -8 -6 -27 -14 l-35 -13 37 1 c26
2 38 7 42 19 5 20 -9 34 -19 18z"/>
<path d="M1434 2558 c1 -7 5 -19 9 -25 5 -7 5 -17 2 -23 -4 -7 3 -7 20 0 15 6
31 8 36 5 5 -4 6 1 3 9 -3 8 -12 12 -19 10 -8 -3 -20 4 -27 15 -14 23 -27 28
-24 9z"/>
<path d="M2015 2560 c-3 -5 1 -10 10 -10 9 0 13 5 10 10 -3 6 -8 10 -10 10 -2
0 -7 -4 -10 -10z"/>
<path d="M2158 2563 c7 -3 16 -2 19 1 4 3 -2 6 -13 5 -11 0 -14 -3 -6 -6z"/>
<path d="M3160 2561 c13 -10 13 -12 0 -22 -13 -9 -13 -10 0 -6 8 2 15 10 15
17 0 7 -7 15 -15 17 -13 4 -13 3 0 -6z"/>
<path d="M3205 2560 c-3 -5 1 -10 10 -10 9 0 13 5 10 10 -3 6 -8 10 -10 10 -2
0 -7 -4 -10 -10z"/>
<path d="M3532 2561 c-11 -7 -11 -9 1 -14 9 -3 18 1 21 9 6 16 -2 18 -22 5z"/>
<path d="M3847 2550 c-3 -11 -3 -20 -1 -20 2 0 8 9 14 20 6 11 7 20 2 20 -6 0
-12 -9 -15 -20z"/>
<path d="M3944 2548 c8 -13 15 -26 16 -30 0 -5 2 -8 5 -8 3 0 7 0 10 0 3 0 -1
14 -10 30 -9 17 -20 30 -25 30 -6 0 -4 -10 4 -22z"/>
<path d="M3070 2556 c0 -9 30 -14 35 -6 4 6 -3 10 -14 10 -12 0 -21 -2 -21 -4z"/>
<path d="M3583 2531 c0 -22 5 -31 16 -30 11 0 12 2 3 6 -6 2 -10 9 -7 14 4 5
2 16 -3 25 -6 12 -9 8 -9 -15z"/>
<path d="M3895 2550 c4 -6 11 -8 16 -5 14 9 11 15 -7 15 -8 0 -12 -5 -9 -10z"/>
<path d="M1350 2535 c-9 -11 -10 -19 -3 -26 8 -8 13 -7 18 2 5 8 4 10 -3 5 -7
-4 -12 -3 -12 3 0 5 8 15 18 20 9 6 12 11 6 11 -6 0 -17 -7 -24 -15z"/>
<path d="M1390 2540 c0 -5 5 -10 10 -10 6 0 10 5 10 10 0 6 -4 10 -10 10 -5 0
-10 -4 -10 -10z"/>
<path d="M2304 2538 c-4 -7 -2 -8 4 -4 7 4 12 3 12 -2 0 -6 7 -13 16 -16 8 -3
12 -2 9 4 -3 6 -1 10 6 10 18 0 5 10 -19 15 -12 2 -25 -1 -28 -7z"/>
<path d="M2530 2541 c0 -6 4 -13 10 -16 6 -3 7 1 4 9 -7 18 -14 21 -14 7z"/>
<path d="M3785 2540 c3 -5 8 -10 11 -10 2 0 4 5 4 10 0 6 -5 10 -11 10 -5 0
-7 -4 -4 -10z"/>
<path d="M3680 2531 c0 -6 4 -13 10 -16 6 -3 7 1 4 9 -7 18 -14 21 -14 7z"/>
<path d="M1418 2516 c-10 -7 -15 -16 -11 -19 11 -12 21 -7 26 13 3 11 4 20 4
20 -1 0 -10 -7 -19 -14z"/>
<path d="M2475 2520 c3 -5 10 -10 16 -10 5 0 9 5 9 10 0 6 -7 10 -16 10 -8 0
-12 -4 -9 -10z"/>
<path d="M3508 2523 c7 -3 16 -2 19 1 4 3 -2 6 -13 5 -11 0 -14 -3 -6 -6z"/>
<path d="M3644 2504 c6 -13 16 -24 23 -24 17 0 7 23 -16 37 -17 11 -18 10 -7
-13z"/>
<path d="M3716 2522 c-3 -5 1 -9 9 -9 8 0 15 4 15 9 0 4 -4 8 -9 8 -6 0 -12
-4 -15 -8z"/>
<path d="M2068 2513 c7 -3 16 -2 19 1 4 3 -2 6 -13 5 -11 0 -14 -3 -6 -6z"/>
<path d="M2245 2510 c3 -5 8 -10 11 -10 2 0 4 5 4 10 0 6 -5 10 -11 10 -5 0
-7 -4 -4 -10z"/>
<path d="M1484 2490 c0 -13 4 -16 10 -10 7 7 7 13 0 20 -6 6 -10 3 -10 -10z"/>
<path d="M1555 2500 c-3 -5 -1 -10 4 -10 6 0 11 5 11 10 0 6 -2 10 -4 10 -3 0
-8 -4 -11 -10z"/>
<path d="M3840 2500 c0 -13 18 -22 24 -11 3 5 -1 11 -9 15 -8 3 -15 1 -15 -4z"/>
<path d="M1745 2480 c-21 -9 -21 -9 8 -15 9 -2 15 0 12 5 -3 5 1 11 7 13 7 3
9 5 3 6 -5 0 -19 -4 -30 -9z"/>
<path d="M3266 2482 c-3 -5 1 -9 9 -9 8 0 15 4 15 9 0 4 -4 8 -9 8 -6 0 -12
-4 -15 -8z"/>
<path d="M2886 2473 c5 -5 12 -12 15 -16 3 -5 9 -2 12 7 5 12 0 16 -15 16 -12
0 -17 -3 -12 -7z"/>
<path d="M3760 2470 c0 -7 -8 -9 -22 -4 -20 6 -21 5 -10 -8 14 -17 65 -12 59
5 -5 15 -27 21 -27 7z"/>
<path d="M1362 2448 c14 -14 28 -21 34 -16 17 13 24 -2 12 -28 -6 -13 -15 -21
-20 -17 -6 3 -5 -4 1 -15 7 -12 7 -23 2 -26 -5 -4 -11 -3 -13 2 -1 4 -11 0
-20 -10 -14 -14 -15 -18 -3 -18 7 0 19 -8 24 -17 9 -16 10 -16 11 4 0 12 5 25
10 28 6 3 10 -1 10 -9 0 -9 7 -16 16 -16 14 0 15 2 3 17 -8 10 -9 14 -2 10 16
-10 27 11 14 27 -6 7 -8 16 -4 20 4 4 0 4 -10 0 -18 -7 -24 11 -6 21 6 4 8 13
5 20 -2 7 0 17 6 23 6 6 0 9 -19 9 -15 0 -38 3 -51 7 l-23 8 23 -24z"/>
<path d="M1690 2459 c0 -5 5 -7 10 -4 6 3 10 8 10 11 0 2 -4 4 -10 4 -5 0 -10
-5 -10 -11z"/>
<path d="M3810 2460 c-9 -6 -10 -10 -3 -10 6 0 15 5 18 10 8 12 4 12 -15 0z"/>
<path d="M1995 2450 c-13 -6 -15 -9 -5 -9 8 0 22 4 30 9 18 12 2 12 -25 0z"/>
<path d="M2980 2454 c0 -1 6 -7 14 -13 10 -8 16 -8 24 1 8 10 4 13 -14 13 -13
0 -24 -1 -24 -1z"/>
<path d="M3268 2443 c7 -3 16 -2 19 1 4 3 -2 6 -13 5 -11 0 -14 -3 -6 -6z"/>
<path d="M3130 2429 c0 -5 5 -7 10 -4 6 3 10 8 10 11 0 2 -4 4 -10 4 -5 0 -10
-5 -10 -11z"/>
<path d="M1326 2422 c-3 -5 1 -9 9 -9 8 0 12 4 9 9 -3 4 -7 8 -9 8 -2 0 -6 -4
-9 -8z"/>
<path d="M2060 2420 c-9 -6 -10 -10 -3 -10 6 0 15 5 18 10 8 12 4 12 -15 0z"/>
<path d="M3470 2419 c0 -5 5 -7 10 -4 6 3 10 8 10 11 0 2 -4 4 -10 4 -5 0 -10
-5 -10 -11z"/>
<path d="M3785 2420 c3 -5 11 -10 16 -10 6 0 7 5 4 10 -3 6 -11 10 -16 10 -6
0 -7 -4 -4 -10z"/>
<path d="M1460 2409 c0 -5 5 -7 10 -4 6 3 10 8 10 11 0 2 -4 4 -10 4 -5 0 -10
-5 -10 -11z"/>
<path d="M2136 2406 c3 -9 16 -16 28 -15 14 0 16 2 6 6 -8 3 -21 10 -28 16 -9
7 -11 6 -6 -7z"/>
<path d="M2950 2396 c0 -31 6 -34 13 -6 3 11 1 23 -4 26 -5 3 -9 -6 -9 -20z"/>
<path d="M3398 2413 c7 -3 16 -2 19 1 4 3 -2 6 -13 5 -11 0 -14 -3 -6 -6z"/>
<path d="M3428 2397 c-3 -15 -1 -30 4 -33 15 -10 18 0 9 32 l-8 29 -5 -28z"/>
<path d="M2360 2406 c0 -2 7 -7 16 -10 8 -3 12 -2 9 4 -6 10 -25 14 -25 6z"/>
<path d="M2886 2394 c-5 -13 -4 -14 7 -6 8 7 18 8 22 4 5 -4 5 -1 1 6 -10 17
-23 15 -30 -4z"/>
<path d="M1632 2368 c-2 -25 0 -29 8 -18 12 18 13 50 2 50 -4 0 -9 -15 -10
-32z"/>
<path d="M2970 2385 c0 -7 5 -17 12 -21 6 -4 8 -3 4 4 -3 5 -1 12 6 14 8 3 6
7 -5 11 -11 4 -17 1 -17 -8z"/>
<path d="M1810 2373 c0 -7 -8 -13 -17 -14 -13 0 -11 -3 6 -10 29 -12 36 -6 22
18 -6 10 -11 12 -11 6z"/>
<path d="M2720 2369 c0 -5 5 -7 10 -4 6 3 10 8 10 11 0 2 -4 4 -10 4 -5 0 -10
-5 -10 -11z"/>
<path d="M3281 2364 c-12 -14 -11 -16 4 -12 10 1 20 9 23 16 5 17 -10 15 -27
-4z"/>
<path d="M3340 2370 c0 -5 5 -10 10 -10 6 0 10 5 10 10 0 6 -4 10 -10 10 -5 0
-10 -4 -10 -10z"/>
<path d="M1480 2359 c0 -5 5 -7 10 -4 6 3 10 8 10 11 0 2 -4 4 -10 4 -5 0 -10
-5 -10 -11z"/>
<path d="M1920 2352 c0 -13 2 -14 9 -3 6 9 11 10 15 2 4 -6 0 -14 -9 -17 -13
-6 -14 -8 -3 -15 8 -5 15 -2 20 9 11 29 9 38 -12 39 -13 1 -20 -4 -20 -15z"/>
<path d="M3886 2357 c3 -10 9 -15 12 -12 3 3 0 11 -7 18 -10 9 -11 8 -5 -6z"/>
<path d="M1731 2355 c-1 -5 -3 -26 -4 -46 -2 -30 1 -35 16 -31 10 3 14 8 9 11
-6 3 -12 22 -15 41 -2 19 -5 31 -6 25z"/>
<path d="M3925 2349 c-4 -6 -5 -12 -2 -15 2 -3 7 2 10 11 7 17 1 20 -8 4z"/>
<path d="M4016 2352 c-3 -4 4 -9 15 -9 23 -2 25 3 4 10 -8 4 -16 3 -19 -1z"/>
<path d="M1267 2343 c-10 -9 -9 -33 1 -33 4 0 8 9 8 20 0 23 0 22 -9 13z"/>
<path d="M1315 2340 c3 -5 8 -10 11 -10 2 0 4 5 4 10 0 6 -5 10 -11 10 -5 0
-7 -4 -4 -10z"/>
<path d="M2186 2342 c-3 -5 1 -9 9 -9 8 0 12 4 9 9 -3 4 -7 8 -9 8 -2 0 -6 -4
-9 -8z"/>
<path d="M2657 2335 c-17 -13 -17 -14 3 -20 12 -4 24 -4 27 -1 4 3 0 6 -8 6
-12 0 -12 2 0 9 7 5 9 11 4 14 -4 3 -16 -1 -26 -8z"/>
<path d="M2700 2338 c0 -7 4 -19 9 -27 6 -9 9 -5 9 13 0 14 -4 26 -9 26 -5 0
-9 -6 -9 -12z"/>
<path d="M3161 2334 c0 -11 3 -14 6 -6 3 7 2 16 -1 19 -3 4 -6 -2 -5 -13z"/>
<path d="M3336 2335 c4 -8 8 -15 10 -15 2 0 4 7 4 15 0 8 -4 15 -10 15 -5 0
-7 -7 -4 -15z"/>
<path d="M3970 2330 c-9 -17 -8 -20 7 -20 10 0 25 5 33 11 12 8 9 9 -9 4 -19
-6 -23 -4 -18 9 9 23 0 20 -13 -4z"/>
<path d="M4300 2339 c0 -5 5 -7 10 -4 6 3 10 8 10 11 0 2 -4 4 -10 4 -5 0 -10
-5 -10 -11z"/>
<path d="M1975 2330 c-3 -5 -1 -10 4 -10 6 0 11 5 11 10 0 6 -2 10 -4 10 -3 0
-8 -4 -11 -10z"/>
<path d="M2780 2335 c0 -5 4 -16 9 -24 7 -11 13 -10 32 8 18 17 19 21 6 21 -8
0 -19 -5 -23 -11 -4 -8 -9 -7 -15 2 -5 8 -9 10 -9 4z"/>
<path d="M3564 2320 c0 -11 4 -20 8 -20 4 0 8 9 8 20 0 11 -4 20 -8 20 -4 0
-8 -9 -8 -20z"/>
<path d="M1560 2321 c0 -5 7 -11 15 -15 8 -3 15 -1 15 3 0 5 -7 11 -15 15 -8
3 -15 1 -15 -3z"/>
<path d="M1750 2320 c0 -5 5 -10 11 -10 5 0 7 5 4 10 -3 6 -8 10 -11 10 -2 0
-4 -4 -4 -10z"/>
<path d="M2100 2322 c0 -5 7 -9 15 -9 8 0 12 4 9 9 -3 4 -9 8 -15 8 -5 0 -9
-4 -9 -8z"/>
<path d="M2226 2322 c-4 -7 -2 -13 3 -13 6 -1 16 -3 21 -4 6 -1 18 -3 28 -4
15 -1 15 -3 2 -11 -9 -6 -10 -10 -3 -10 19 0 27 21 12 31 -8 5 -22 7 -31 5 -9
-2 -19 1 -21 7 -2 8 -6 7 -11 -1z"/>
<path d="M2390 2319 c0 -5 5 -7 10 -4 6 3 10 8 10 11 0 2 -4 4 -10 4 -5 0 -10
-5 -10 -11z"/>
<path d="M2489 2327 c0 -1 -2 -10 -4 -20 -5 -25 -15 -34 -15 -14 0 10 -5 14
-15 11 -8 -4 -15 -14 -15 -23 0 -13 2 -13 9 -2 6 10 10 10 16 2 4 -7 -3 -20
-14 -31 -15 -12 -18 -19 -9 -22 7 -3 18 5 23 16 6 12 16 21 22 21 7 0 18 6 25
14 11 12 10 13 -4 8 -12 -4 -16 -1 -15 14 2 26 8 24 36 -11 13 -17 28 -27 35
-23 7 5 7 2 -1 -8 -10 -12 -8 -15 7 -15 10 0 16 4 14 8 -3 4 0 8 5 8 18 0 12
29 -8 40 -28 15 -35 12 -20 -7 13 -15 12 -15 -8 -4 -13 6 -23 17 -23 24 0 10
-37 22 -41 14z"/>
<path d="M2600 2320 c19 -13 30 -13 30 0 0 6 -10 10 -22 10 -19 0 -20 -2 -8
-10z"/>
<path d="M3665 2320 c-3 -6 1 -7 9 -4 18 7 21 14 7 14 -6 0 -13 -4 -16 -10z"/>
<path d="M3251 2304 c0 -11 3 -14 6 -6 3 7 2 16 -1 19 -3 4 -6 -2 -5 -13z"/>
<path d="M4093 2305 c-9 -24 1 -27 15 -5 8 13 8 20 2 20 -6 0 -13 -7 -17 -15z"/>
<path d="M1857 2290 c-10 -13 -10 -13 4 -3 10 9 19 9 26 2 7 -7 14 -5 23 6 11
13 9 15 -14 13 -15 -1 -33 -9 -39 -18z"/>
<path d="M2826 2303 c5 -5 12 -12 16 -18 4 -6 8 -2 8 8 0 9 -7 17 -17 17 -9 0
-12 -3 -7 -7z"/>
<path d="M3138 2303 c6 -2 18 -2 25 0 6 3 1 5 -13 5 -14 0 -19 -2 -12 -5z"/>
<path d="M3285 2300 c-4 -6 3 -10 14 -10 25 0 27 6 6 13 -8 4 -17 2 -20 -3z"/>
<path d="M3506 2294 c-18 -17 -20 -24 -8 -24 4 0 13 9 20 20 15 24 9 26 -12 4z"/>
<path d="M4139 2293 c-13 -15 -12 -15 7 -5 12 6 25 8 29 4 5 -4 5 -1 1 6 -10
16 -21 15 -37 -5z"/>
<path d="M1148 2293 c7 -3 16 -2 19 1 4 3 -2 6 -13 5 -11 0 -14 -3 -6 -6z"/>
<path d="M3970 2296 c0 -2 11 -6 25 -8 13 -3 22 -1 19 3 -5 9 -44 13 -44 5z"/>
<path d="M4200 2277 c0 -13 -5 -28 -11 -34 -8 -8 -5 -13 11 -18 12 -4 24 -4
27 -1 4 3 -1 6 -10 6 -12 0 -15 7 -10 35 3 19 3 35 -1 35 -3 0 -6 -10 -6 -23z"/>
<path d="M1400 2275 c-9 -11 -26 -15 -51 -14 -21 2 -42 0 -46 -5 -4 -4 -3 -7
2 -6 26 6 56 -1 50 -11 -4 -6 -14 -8 -22 -5 -8 3 -11 1 -8 -4 4 -6 7 -32 9
-59 1 -28 10 -60 21 -77 11 -16 19 -32 18 -35 -1 -3 6 -6 15 -7 90 -8 133 5
188 57 18 17 35 27 39 23 9 -9 -16 50 -27 62 -4 5 -3 15 3 22 7 8 7 14 -1 19
-5 3 -10 0 -10 -7 0 -8 -3 -9 -8 -3 -15 21 -118 59 -134 49 -6 -4 -14 -1 -18
5 -5 9 -10 8 -20 -4z m108 -84 c28 -2 9 -31 -34 -51 -41 -20 -47 -21 -61 -7
-33 32 7 69 67 61 8 -2 21 -3 28 -3z"/>
<path d="M1570 2286 c0 -2 11 -6 25 -8 13 -3 22 -1 19 3 -5 9 -44 13 -44 5z"/>
<path d="M1920 2279 c0 -5 5 -7 10 -4 6 3 10 8 10 11 0 2 -4 4 -10 4 -5 0 -10
-5 -10 -11z"/>
<path d="M2131 2278 c-1 -10 -6 -18 -12 -18 -5 0 -7 -5 -3 -11 4 -8 9 -7 15 2
5 8 9 10 9 5 0 -5 7 -3 15 4 8 7 15 18 15 24 0 6 -6 2 -12 -9 -11 -19 -11 -19
-19 0 -7 17 -8 18 -8 3z"/>
<path d="M4070 2270 c6 -11 13 -20 16 -20 2 0 0 9 -6 20 -6 11 -13 20 -16 20
-2 0 0 -9 6 -20z"/>
<path d="M4338 2283 c-21 -2 -38 -9 -38 -14 0 -6 -4 -8 -8 -5 -20 12 -52 -25
-52 -60 0 -46 13 -69 68 -123 25 -25 42 -39 38 -33 -10 17 10 15 38 -3 22 -15
24 -14 30 7 5 18 8 20 15 9 7 -11 10 -9 16 8 6 19 45 31 45 13 0 -4 9 -8 19
-8 11 0 17 4 15 8 -3 4 0 8 6 8 24 0 -17 108 -57 152 -22 24 -67 49 -85 46 -7
-1 -30 -3 -50 -5z m73 -90 c16 -10 29 -21 29 -25 0 -4 -17 -12 -39 -19 -33
-10 -42 -9 -67 7 -28 19 -28 19 -6 22 13 2 26 10 29 18 7 18 19 18 54 -3z
m119 -82 c0 -12 -20 -25 -27 -18 -7 7 6 27 18 27 5 0 9 -4 9 -9z"/>
<path d="M650 2276 c0 -2 7 -7 16 -10 8 -3 12 -2 9 4 -6 10 -25 14 -25 6z"/>
<path d="M2657 2269 c7 -7 15 -10 18 -7 3 3 -2 9 -12 12 -14 6 -15 5 -6 -5z"/>
<path d="M2940 2271 c0 -6 4 -12 8 -15 5 -3 9 1 9 9 0 8 -4 15 -9 15 -4 0 -8
-4 -8 -9z"/>
<path d="M3570 2269 c0 -5 -3 -8 -8 -6 -4 3 -7 -8 -7 -23 -1 -16 3 -26 8 -23
4 2 16 -1 25 -9 15 -12 16 -11 4 4 -8 9 -10 23 -6 29 4 8 3 9 -4 5 -7 -4 -12
-2 -12 3 0 6 5 11 10 11 6 0 10 5 10 10 0 6 -4 10 -10 10 -5 0 -10 -5 -10 -11z"/>
<path d="M3974 2269 c-4 -7 -3 -9 4 -5 6 3 13 2 16 -3 4 -5 -1 -12 -9 -14 -11
-4 -10 -4 2 -3 10 1 18 8 18 15 0 19 -21 25 -31 10z"/>
<path d="M4110 2271 c0 -6 4 -13 10 -16 6 -3 7 1 4 9 -7 18 -14 21 -14 7z"/>
<path d="M1265 2260 c-3 -5 -3 -10 2 -10 4 0 0 -5 -10 -11 -11 -7 -22 -7 -30
-1 -19 15 -43 10 -56 -11 -10 -15 -10 -18 0 -11 7 4 33 8 57 9 37 0 46 5 53
23 8 22 -4 31 -16 12z"/>
<path d="M1735 2254 c-12 -12 -12 -19 -3 -34 9 -14 14 -16 20 -7 4 6 2 15 -5
19 -9 6 -8 8 3 9 8 1 18 1 22 1 3 -1 8 4 11 11 7 18 -30 19 -48 1z"/>
<path d="M1840 2260 c0 -5 7 -10 15 -10 8 0 15 5 15 10 0 6 -7 10 -15 10 -8 0
-15 -4 -15 -10z"/>
<path d="M1895 2260 c3 -5 1 -10 -4 -10 -6 0 -11 -7 -11 -15 0 -8 5 -15 10
-15 6 0 10 7 10 15 0 9 9 15 23 16 21 0 21 1 2 9 -28 12 -37 12 -30 0z"/>
<path d="M2980 2260 c-9 -6 -10 -10 -3 -10 6 0 15 5 18 10 8 12 4 12 -15 0z"/>
<path d="M1110 2251 c0 -6 4 -12 8 -15 5 -3 9 1 9 9 0 8 -4 15 -9 15 -4 0 -8
-4 -8 -9z"/>
<path d="M1631 2246 c-10 -12 -8 -17 9 -26 12 -6 24 -9 27 -7 2 3 -5 8 -17 12
-17 5 -19 10 -9 21 6 8 9 14 6 14 -2 0 -10 -6 -16 -14z"/>
<path d="M1950 2249 c0 -5 5 -7 10 -4 6 3 10 8 10 11 0 2 -4 4 -10 4 -5 0 -10
-5 -10 -11z"/>
<path d="M2035 2250 c4 -6 11 -8 16 -5 14 9 11 15 -7 15 -8 0 -12 -5 -9 -10z"/>
<path d="M2345 2250 c-3 -5 -1 -10 4 -10 6 0 11 5 11 10 0 6 -2 10 -4 10 -3 0
-8 -4 -11 -10z"/>
<path d="M3345 2250 c3 -5 8 -10 11 -10 2 0 4 5 4 10 0 6 -5 10 -11 10 -5 0
-7 -4 -4 -10z"/>
<path d="M3450 2249 c0 -5 5 -7 10 -4 6 3 10 8 10 11 0 2 -4 4 -10 4 -5 0 -10
-5 -10 -11z"/>
<path d="M1977 2239 c-26 -15 -10 -32 16 -17 12 7 26 11 30 10 5 -1 6 2 2 8
-8 13 -25 12 -48 -1z"/>
<path d="M3610 2225 c0 -14 4 -25 9 -25 5 0 8 11 7 25 -1 33 -16 33 -16 0z"/>
<path d="M3665 2240 c-3 -5 -1 -10 4 -10 6 0 11 5 11 10 0 6 -2 10 -4 10 -3 0
-8 -4 -11 -10z"/>
<path d="M3876 2238 c-8 -5 -36 -10 -61 -11 -29 -1 -45 -7 -45 -15 0 -7 -4
-11 -9 -8 -8 6 -28 -33 -32 -64 -7 -48 38 -114 86 -126 11 -3 41 0 65 6 59 14
50 11 132 42 35 13 78 53 78 72 0 33 -24 64 -60 80 -50 22 -134 35 -154 24z
m105 -78 c35 0 19 -17 -33 -38 -78 -31 -122 -37 -137 -18 -16 19 -6 36 22 36
12 0 33 7 47 15 14 7 38 12 54 9 16 -2 37 -4 47 -4z"/>
<path d="M1820 2236 c0 -10 28 -13 41 -5 10 6 7 9 -13 9 -16 0 -28 -2 -28 -4z"/>
<path d="M3470 2231 c0 -6 4 -13 10 -16 6 -3 7 1 4 9 -7 18 -14 21 -14 7z"/>
<path d="M770 2220 c-1 -8 -3 -25 -6 -37 -2 -13 1 -23 7 -23 7 0 9 9 6 23 -5
20 -5 20 7 5 14 -19 26 -14 26 10 0 9 -3 12 -7 9 -3 -4 -12 1 -19 11 -11 14
-14 14 -14 2z"/>
<path d="M1906 2213 c-6 -14 -5 -15 5 -6 7 7 10 15 7 18 -3 3 -9 -2 -12 -12z"/>
<path d="M2396 2222 c-3 -4 4 -9 15 -9 23 -2 25 3 4 10 -8 4 -16 3 -19 -1z"/>
<path d="M3300 2220 c-14 -4 -38 -15 -55 -24 -16 -9 -45 -19 -62 -22 -18 -3
-33 -7 -34 -8 -8 -19 -7 -91 2 -102 6 -8 8 -14 5 -14 -10 0 14 -23 44 -43 28
-18 88 -24 140 -13 51 10 130 48 130 61 0 7 6 18 14 24 20 17 14 50 -14 88
-39 54 -104 74 -170 53z m108 -95 c5 -38 -113 -72 -172 -49 -25 9 -19 20 10
19 16 0 31 8 38 20 17 31 28 35 76 33 37 -3 46 -7 48 -23z"/>
<path d="M690 2216 c0 -2 7 -6 15 -10 8 -3 15 -1 15 4 0 6 -7 10 -15 10 -8 0
-15 -2 -15 -4z"/>
<path d="M1116 2211 c-3 -5 1 -11 9 -14 9 -4 12 -1 8 9 -6 16 -10 17 -17 5z"/>
<path d="M2117 2213 c-4 -7 -15 -12 -25 -12 -58 0 -193 -47 -213 -75 -8 -10
37 -93 63 -119 10 -10 17 -21 14 -25 -7 -11 113 -5 161 8 47 14 110 70 119
107 7 27 -31 81 -63 89 -13 4 -20 11 -16 17 4 6 0 8 -10 4 -9 -3 -17 -1 -20 6
-2 8 -5 8 -10 0z m9 -93 c25 -10 26 -11 10 -29 -26 -29 -116 -47 -148 -30 -21
11 -20 31 3 35 7 2 32 10 54 18 49 18 47 18 81 6z"/>
<path d="M3121 2206 c-8 -10 -8 -16 3 -25 11 -10 14 -7 12 14 -1 29 0 29 -15
11z"/>
<path d="M3505 2211 c-3 -5 -2 -12 3 -15 5 -3 9 1 9 9 0 17 -3 19 -12 6z"/>
<path d="M4150 2205 c0 -8 4 -15 10 -15 5 0 7 7 4 15 -4 8 -8 15 -10 15 -2 0
-4 -7 -4 -15z"/>
<path d="M2250 2200 c0 -5 5 -10 11 -10 5 0 7 5 4 10 -3 6 -8 10 -11 10 -2 0
-4 -4 -4 -10z"/>
<path d="M2660 2193 c-8 -4 -28 -16 -45 -28 -16 -12 -39 -20 -49 -17 -12 2
-26 -5 -37 -19 -16 -22 -20 -23 -41 -10 -13 7 -20 10 -16 6 4 -5 0 -14 -10
-22 -15 -13 -14 -14 11 -8 25 5 27 3 27 -30 0 -19 4 -35 8 -35 4 0 15 -13 25
-29 28 -48 71 -64 137 -50 30 6 65 17 77 25 12 7 29 11 37 8 11 -4 13 0 9 14
-4 16 -1 20 14 18 20 -3 53 14 53 28 0 4 -7 2 -17 -5 -15 -13 -16 -11 -9 14 7
29 -11 73 -38 96 -9 7 -13 17 -10 22 3 5 -6 9 -20 9 -14 0 -27 4 -30 8 -6 9
-55 13 -76 5z m87 -94 c7 -6 13 -15 13 -19 0 -16 -87 -50 -127 -50 -61 0 -64
24 -5 61 48 31 87 33 119 8z"/>
<path d="M1781 2164 c0 -11 3 -14 6 -6 3 7 2 16 -1 19 -3 4 -6 -2 -5 -13z"/>
<path d="M1870 2169 c0 -5 5 -7 10 -4 6 3 10 8 10 11 0 2 -4 4 -10 4 -5 0 -10
-5 -10 -11z"/>
<path d="M2513 2168 c-11 -19 -13 -38 -2 -38 5 0 9 6 9 14 0 8 5 16 12 18 9 3
9 6 1 11 -7 4 -15 2 -20 -5z"/>
<path d="M4144 2160 c0 -11 4 -20 8 -20 4 0 8 7 8 16 0 8 5 12 10 9 6 -3 10
-1 10 4 0 6 -8 11 -18 11 -11 0 -18 -7 -18 -20z"/>
<path d="M1695 2160 c3 -5 8 -10 11 -10 2 0 4 5 4 10 0 6 -5 10 -11 10 -5 0
-7 -4 -4 -10z"/>
<path d="M2270 2159 c0 -4 7 -9 15 -13 9 -3 15 0 15 8 0 7 -7 13 -15 13 -8 0
-15 -4 -15 -8z"/>
<path d="M805 2120 c3 -5 16 -15 28 -21 l22 -11 -22 21 c-23 22 -39 28 -28 11z"/>
<path d="M900 2121 c0 -5 7 -11 14 -14 10 -4 13 -1 9 9 -6 15 -23 19 -23 5z"/>
<path d="M1033 2122 c-13 -2 -23 -8 -23 -15 0 -8 -3 -8 -12 1 -17 17 -45 15
-52 -3 -6 -16 -6 -16 41 -19 18 -1 36 -6 40 -10 4 -5 1 -7 -8 -4 -9 4 -22 2
-30 -4 -11 -8 -11 -9 2 -5 9 3 22 0 28 -6 6 -6 11 -7 11 -3 0 5 7 3 15 -4 11
-10 18 -9 30 4 21 20 32 21 15 1 -7 -9 -10 -18 -7 -21 10 -10 26 32 17 46 -4
7 -6 19 -3 25 5 14 -29 22 -64 17z m-46 -18 c-3 -3 -12 -4 -19 -1 -8 3 -5 6 6
6 11 1 17 -2 13 -5z"/>
<path d="M1665 2120 c-3 -5 -1 -10 4 -10 6 0 11 5 11 10 0 6 -2 10 -4 10 -3 0
-8 -4 -11 -10z"/>
<path d="M1720 2109 c0 -5 5 -7 10 -4 6 3 10 8 10 11 0 2 -4 4 -10 4 -5 0 -10
-5 -10 -11z"/>
<path d="M865 2100 c3 -5 8 -10 11 -10 2 0 4 5 4 10 0 6 -5 10 -11 10 -5 0 -7
-4 -4 -10z"/>
<path d="M900 2090 c0 -6 7 -10 15 -10 8 0 15 2 15 4 0 2 -7 6 -15 10 -8 3
-15 1 -15 -4z"/>
<path d="M1651 2088 l-34 -9 23 -16 c17 -12 24 -13 33 -3 9 10 9 11 0 6 -7 -4
-13 -2 -13 3 0 6 6 11 14 11 8 0 18 5 21 10 7 12 2 12 -44 -2z"/>
<path d="M1185 2080 c-3 -6 1 -7 9 -4 18 7 21 14 7 14 -6 0 -13 -4 -16 -10z"/>
<path d="M1757 2083 c-9 -9 12 -33 29 -33 8 0 14 5 14 10 0 6 -3 9 -7 9 -20
-3 -34 2 -28 11 7 11 2 13 -8 3z"/>
<path d="M920 2070 c-23 -7 -23 -8 -3 -9 12 -1 25 4 28 9 3 6 5 10 3 9 -2 -1
-14 -5 -28 -9z"/>
<path d="M1833 2065 c-7 -8 -9 -16 -4 -19 5 -3 12 1 15 10 8 22 4 25 -11 9z"/>
<path d="M1180 2055 c-24 -13 -24 -14 -3 -12 12 1 25 7 27 14 6 16 7 16 -24
-2z"/>
<path d="M3045 2060 c3 -5 8 -10 11 -10 2 0 4 5 4 10 0 6 -5 10 -11 10 -5 0
-7 -4 -4 -10z"/>
<path d="M4290 2055 c-6 -8 -10 -19 -8 -24 1 -6 8 1 15 14 13 28 11 31 -7 10z"/>
<path d="M1243 2048 c0 -7 -2 -18 -4 -24 -2 -7 0 -13 5 -13 5 -1 10 10 12 24
1 14 -1 25 -5 25 -4 0 -8 -6 -8 -12z"/>
<path d="M2890 2056 c0 -3 9 -10 19 -16 15 -7 22 -7 27 2 4 7 4 10 -1 6 -4 -4
-16 -3 -26 3 -11 5 -19 7 -19 5z"/>
<path d="M3070 2040 c0 -5 5 -10 11 -10 5 0 7 5 4 10 -3 6 -8 10 -11 10 -2 0
-4 -4 -4 -10z"/>
<path d="M4210 2046 c0 -2 7 -7 16 -10 8 -3 12 -2 9 4 -6 10 -25 14 -25 6z"/>
<path d="M1507 2034 c7 -3 11 -11 9 -17 -1 -7 -1 -8 2 -4 2 5 11 -1 19 -12 15
-22 43 -29 43 -11 0 6 -7 10 -16 10 -8 0 -13 4 -10 9 5 8 -36 32 -52 30 -4 0
-2 -3 5 -5z"/>
<path d="M1590 1995 c0 -14 8 -29 19 -35 25 -13 36 2 22 28 -6 11 -8 21 -6 24
2 2 -5 4 -15 5 -15 1 -20 -5 -20 -22z"/>
<path d="M1654 2009 c-3 -5 9 -9 25 -9 17 0 31 2 31 4 0 8 -51 13 -56 5z"/>
<path d="M2350 2010 c-18 -6 -20 -8 -7 -9 10 -1 15 -5 12 -11 -3 -5 -1 -10 4
-10 6 0 11 8 11 18 0 14 2 15 10 2 8 -13 10 -12 10 3 0 18 -3 19 -40 7z"/>
<path d="M4095 2010 c-3 -5 -2 -18 4 -27 7 -14 9 -12 8 10 -2 30 -3 31 -12 17z"/>
<path d="M1350 1995 c-11 -13 -10 -14 4 -9 9 3 16 10 16 15 0 13 -6 11 -20 -6z"/>
<path d="M1440 2006 c0 -9 40 -13 46 -5 3 5 -6 9 -20 9 -14 0 -26 -2 -26 -4z"/>
<path d="M4130 1990 c-9 -6 -10 -10 -3 -10 6 0 15 5 18 10 8 12 4 12 -15 0z"/>
<path d="M4260 1990 c0 -5 5 -10 11 -10 5 0 7 5 4 10 -3 6 -8 10 -11 10 -2 0
-4 -4 -4 -10z"/>
<path d="M1440 1975 c-7 -9 -8 -15 -2 -15 5 0 12 7 16 15 3 8 4 15 2 15 -2 0
-9 -7 -16 -15z"/>
<path d="M1496 1975 c4 -8 14 -15 23 -15 9 0 22 -5 29 -12 9 -9 12 -9 12 3 0
22 -21 39 -47 39 -16 0 -21 -4 -17 -15z"/>
<path d="M1646 1977 c3 -9 14 -14 26 -12 26 5 36 15 15 15 -8 0 -23 3 -31 6
-12 5 -15 2 -10 -9z"/>
<path d="M1730 1982 c0 -5 -10 -13 -22 -19 -20 -9 -18 -10 15 -9 28 1 37 5 37
18 0 10 -7 18 -15 18 -8 0 -15 -4 -15 -8z"/>
<path d="M1803 1975 c-3 -9 -3 -18 -1 -21 3 -3 8 4 11 16 6 23 -1 27 -10 5z"/>
<path d="M1893 1970 c-3 -11 -10 -17 -16 -13 -5 3 -7 1 -3 -5 3 -6 2 -13 -4
-17 -5 -3 -10 -1 -10 5 0 6 -6 18 -14 25 -12 12 -15 12 -20 -1 -3 -8 -2 -12 3
-9 5 3 12 1 16 -5 3 -5 -3 -10 -14 -10 -13 0 -21 -6 -21 -17 0 -15 2 -16 10
-3 8 12 13 13 30 3 26 -17 30 -16 30 2 0 14 17 20 48 16 7 -1 12 9 12 24 0 19
-5 25 -21 25 -12 0 -23 -8 -26 -20z"/>
<path d="M3357 1969 c-6 -22 6 -25 22 -5 9 10 8 15 -3 19 -8 3 -16 -2 -19 -14z"/>
<path d="M4065 1980 c-3 -5 -1 -10 4 -10 6 0 11 5 11 10 0 6 -2 10 -4 10 -3 0
-8 -4 -11 -10z"/>
<path d="M1470 1970 c0 -5 5 -10 11 -10 5 0 7 5 4 10 -3 6 -8 10 -11 10 -2 0
-4 -4 -4 -10z"/>
<path d="M3321 1964 c0 -11 3 -14 6 -6 3 7 2 16 -1 19 -3 4 -6 -2 -5 -13z"/>
<path d="M2000 1961 c0 -5 10 -11 23 -13 12 -2 21 -9 20 -16 -2 -6 2 -12 8
-12 6 0 17 -7 25 -15 16 -15 39 -21 31 -7 -3 4 8 7 24 7 16 0 29 -4 29 -10 0
-16 118 -14 124 2 6 15 36 18 36 3 0 -5 -6 -10 -12 -10 -7 0 -5 -5 5 -11 23
-14 28 -9 20 19 -3 15 -13 22 -28 22 -13 0 -25 6 -28 13 -3 9 -7 9 -19 -1 -13
-10 -17 -10 -21 0 -4 10 -6 10 -6 1 -1 -7 -6 -13 -11 -13 -6 0 -10 6 -9 13 4
34 -1 40 -19 24 -20 -19 -37 -23 -27 -7 3 6 0 10 -8 10 -8 0 -17 -7 -21 -15
-3 -10 1 -15 11 -15 13 0 14 -3 5 -12 -15 -15 -43 8 -35 29 4 10 2 14 -4 10
-6 -4 -13 -1 -16 5 -3 8 -8 4 -14 -11 -8 -21 -11 -22 -24 -8 -19 19 -59 31
-59 18z m209 -53 c1 -5 -4 -8 -10 -8 -5 0 -7 5 -4 10 3 6 2 10 -4 10 -6 0 -7
8 -4 17 6 15 7 15 14 -3 4 -10 8 -22 8 -26z"/>
<path d="M2418 1962 c9 -6 6 -12 -13 -20 -36 -16 -31 -32 10 -32 19 0 35 5 35
10 0 6 -14 8 -32 5 -33 -5 -33 -5 -8 9 14 8 28 12 32 10 4 -3 5 2 2 10 -3 9
-14 16 -23 16 -12 0 -13 -2 -3 -8z"/>
<path d="M2474 1947 c6 -38 -9 -54 -45 -49 -20 3 -30 1 -26 -6 7 -10 67 -23
64 -13 -1 3 4 16 11 29 7 12 10 22 6 22 -3 0 -1 6 5 14 9 10 8 15 -4 19 -11 5
-14 1 -11 -16z"/>
<path d="M3435 1960 c3 -5 10 -10 16 -10 5 0 9 5 9 10 0 6 -7 10 -16 10 -8 0
-12 -4 -9 -10z"/>
<path d="M3522 1954 c10 -10 20 -16 22 -13 3 3 -5 11 -17 18 -21 13 -21 12 -5
-5z"/>
<path d="M1580 1945 c0 -8 4 -15 10 -15 5 0 7 7 4 15 -4 8 -8 15 -10 15 -2 0
-4 -7 -4 -15z"/>
<path d="M1960 1953 c0 -3 8 -15 18 -26 9 -11 11 -17 5 -13 -9 5 -11 2 -7 -8
3 -9 13 -16 21 -16 8 0 11 5 8 10 -4 6 -1 17 5 25 10 12 9 15 -4 15 -9 0 -16
5 -16 10 0 6 -7 10 -15 10 -8 0 -15 -3 -15 -7z"/>
<path d="M2730 1950 c0 -6 7 -10 15 -10 8 0 15 2 15 4 0 2 -7 6 -15 10 -8 3
-15 1 -15 -4z"/>
<path d="M2923 1940 c-35 -14 -27 -20 10 -8 17 6 34 13 36 14 8 7 -24 3 -46
-6z"/>
<path d="M3290 1941 c0 -6 4 -13 10 -16 6 -3 7 1 4 9 -7 18 -14 21 -14 7z"/>
<path d="M3481 1933 c0 -11 3 -13 6 -5 2 6 9 10 14 6 5 -3 9 0 9 5 0 6 -7 11
-15 11 -8 0 -15 -8 -14 -17z"/>
<path d="M3565 1940 c3 -5 8 -10 11 -10 2 0 4 5 4 10 0 6 -5 10 -11 10 -5 0
-7 -4 -4 -10z"/>
<path d="M1778 1933 c7 -3 16 -2 19 1 4 3 -2 6 -13 5 -11 0 -14 -3 -6 -6z"/>
<path d="M2588 1928 c6 -6 18 -8 28 -6 14 3 12 5 -9 10 -19 3 -25 2 -19 -4z"/>
<path d="M2641 1922 c-7 -13 -6 -19 2 -19 7 0 13 9 13 19 0 10 -1 18 -3 18 -1
0 -7 -8 -12 -18z"/>
<path d="M3818 1933 c7 -3 16 -2 19 1 4 3 -2 6 -13 5 -11 0 -14 -3 -6 -6z"/>
<path d="M2548 1923 c7 -3 16 -2 19 1 4 3 -2 6 -13 5 -11 0 -14 -3 -6 -6z"/>
<path d="M2745 1921 c-3 -5 -2 -12 3 -15 5 -3 9 1 9 9 0 17 -3 19 -12 6z"/>
<path d="M3038 1923 c7 -3 16 -2 19 1 4 3 -2 6 -13 5 -11 0 -14 -3 -6 -6z"/>
<path d="M2790 1895 c0 -23 -2 -24 -27 -12 -16 6 -31 16 -35 22 -5 6 -8 5 -8
-3 0 -7 11 -17 25 -24 13 -6 23 -14 20 -17 -2 -4 8 -7 23 -8 15 -1 22 1 16 3
-6 2 -8 18 -6 34 2 17 2 30 -2 30 -3 0 -6 -11 -6 -25z"/>
<path d="M2890 1887 c0 -7 11 -13 25 -12 14 0 25 5 24 10 -1 15 -9 20 -9 6 0
-9 -5 -9 -20 -1 -15 8 -20 8 -20 -3z"/>
<path d="M2985 1881 c-3 -5 -1 -12 5 -16 5 -3 10 1 10 9 0 18 -6 21 -15 7z"/>
<path d="M2675 1870 c-3 -5 1 -10 10 -10 9 0 13 5 10 10 -3 6 -8 10 -10 10 -2
0 -7 -4 -10 -10z"/>
<path d="M686 1927 c-12 -9 -17 -23 -14 -42 3 -27 6 -30 33 -27 38 4 46 17 33
53 -11 32 -25 36 -52 16z"/>
<path d="M958 1856 c-25 -18 -22 -35 8 -62 29 -27 35 -29 52 -12 19 19 14 55
-10 72 -27 19 -28 19 -50 2z"/>
<path d="M1196 1855 c-9 -25 15 -65 40 -65 26 0 42 44 23 66 -15 19 -55 18
-63 -1z"/>
<path d="M1370 1836 c-13 -6 -22 -14 -21 -18 0 -5 1 -14 1 -21 0 -17 65 -48
85 -41 8 4 15 18 15 33 0 36 -48 64 -80 47z"/>
<path d="M4336 1828 c-23 -13 -20 -54 6 -72 19 -14 24 -14 38 -1 14 13 16 25
11 66 -2 12 -38 17 -55 7z"/>
<path d="M4103 1804 c-3 -8 0 -28 7 -44 11 -27 16 -31 35 -30 3 1 17 -8 31
-19 14 -11 32 -17 40 -14 22 8 17 51 -8 64 -13 7 -30 20 -38 29 -21 24 -60 32
-67 14z"/>
<path d="M3913 1780 c-28 -11 -31 -50 -5 -66 23 -15 60 0 71 28 15 41 -15 58
-66 38z"/>
<path d="M835 1763 c-51 -5 -59 -14 -44 -46 12 -27 48 -42 63 -27 6 6 20 10
33 10 13 0 23 2 23 4 0 13 -23 66 -28 64 -4 -1 -25 -3 -47 -5z"/>
<path d="M3431 1748 c-14 -22 -14 -48 -1 -48 6 0 10 -6 10 -14 0 -8 9 -12 24
-11 35 4 44 11 44 38 0 17 -10 28 -33 39 -30 13 -33 13 -44 -4z"/>
<path d="M1737 1738 c-3 -11 1 -31 10 -44 26 -40 93 -27 93 18 0 20 -28 37
-69 43 -23 2 -30 -1 -34 -17z"/>
<path d="M3778 1733 c-29 -8 -33 -43 -7 -68 19 -18 29 -21 47 -14 24 9 27 24
12 63 -9 25 -17 28 -52 19z"/>
<path d="M3992 1728 c-26 -26 0 -61 54 -72 23 -5 34 -2 48 13 18 20 18 21 -7
30 -14 5 -28 14 -31 20 -4 6 -13 8 -21 4 -8 -3 -15 0 -15 6 0 14 -13 14 -28
-1z"/>
<path d="M2370 1722 c0 -7 -7 -12 -16 -10 -11 2 -18 -5 -19 -19 -3 -36 33 -59
83 -54 21 2 14 49 -10 62 -13 7 -26 17 -30 23 -5 8 -8 7 -8 -2z"/>
<path d="M2555 1720 c-3 -5 -1 -19 5 -30 15 -28 90 -29 107 -1 10 16 8 20 -13
30 -31 14 -91 14 -99 1z"/>
<path d="M1897 1702 c-15 -17 -15 -19 3 -35 24 -21 28 -21 46 -3 19 20 18 33
-5 46 -25 13 -25 13 -44 -8z"/>
<path d="M1576 1691 c-14 -16 -15 -23 -5 -39 21 -33 48 -45 64 -28 22 22 18
52 -10 70 -30 20 -28 20 -49 -3z"/>
<path d="M3089 1698 c-21 -7 -25 -14 -21 -34 5 -29 24 -39 71 -39 30 0 35 4
38 28 3 20 -1 29 -14 33 -10 3 -25 9 -33 13 -8 4 -27 4 -41 -1z"/>
<path d="M3533 1700 c-30 -12 -33 -74 -4 -90 29 -15 38 -13 44 11 4 14 11 20
20 16 21 -8 46 14 49 43 3 23 0 25 -42 27 -25 1 -55 -2 -67 -7z"/>
<path d="M667 1663 c-8 -45 30 -86 59 -62 30 25 8 89 -30 89 -18 0 -25 -7 -29
-27z"/>
<path d="M4328 1670 c-33 -26 -40 -71 -15 -102 17 -21 25 -19 30 9 1 5 14 20
29 35 15 15 30 38 34 52 6 24 3 26 -24 26 -16 0 -41 -9 -54 -20z"/>
<path d="M1443 1658 c-26 -28 -15 -58 22 -58 25 0 27 4 29 55 1 28 -26 30 -51
3z"/>
<path d="M2924 1661 c3 -5 -15 -8 -41 -7 -49 2 -73 -13 -73 -44 0 -21 35 -45
51 -34 6 3 16 -2 23 -11 9 -13 20 -16 44 -10 18 3 32 13 32 21 0 8 10 14 24
14 20 0 23 4 19 23 -7 28 -23 48 -33 42 -5 -3 -11 -1 -15 5 -3 5 -13 10 -21
10 -8 0 -13 -4 -10 -9z m13 -67 c-3 -3 -12 -4 -19 -1 -8 3 -5 6 6 6 11 1 17
-2 13 -5z"/>
<path d="M1094 1650 c-26 -10 -84 -76 -84 -96 0 -8 10 -19 23 -23 18 -7 28 -2
60 31 25 27 37 49 37 69 0 31 -3 33 -36 19z"/>
<path d="M1803 1618 c-20 -33 21 -90 57 -81 28 8 27 57 -2 77 -27 19 -44 20
-55 4z"/>
<path d="M2712 1618 c-16 -16 -15 -25 9 -64 20 -33 20 -33 40 -13 29 29 16 89
-20 89 -9 0 -22 -5 -29 -12z"/>
<path d="M3977 1616 c-32 -16 -34 -51 -3 -71 34 -23 51 -9 51 41 0 43 -9 49
-48 30z"/>
<path d="M1172 1602 c-17 -11 -1 -57 23 -66 35 -13 55 -7 55 17 0 41 -45 69
-78 49z"/>
<path d="M1280 1584 c-19 -35 3 -74 41 -71 22 2 28 8 31 29 5 34 -1 44 -33 57
-23 8 -28 6 -39 -15z"/>
<path d="M2477 1582 c-22 -14 -27 -22 -22 -42 9 -35 23 -40 62 -22 29 14 34
21 31 47 -4 36 -30 43 -71 17z"/>
<path d="M3233 1583 c-17 -14 -20 -23 -12 -41 5 -15 15 -22 26 -20 20 4 29 39
15 63 -8 15 -11 14 -29 -2z"/>
<path d="M3431 1586 c-25 -30 -11 -86 22 -86 41 0 51 14 38 53 -12 36 -43 54
-60 33z"/>
<path d="M4093 1588 c-21 -26 -19 -44 6 -65 29 -26 27 -25 61 -28 13 -1 26 -7
28 -13 1 -5 11 -8 22 -5 23 6 35 55 20 83 -9 17 -17 20 -49 15 -27 -4 -42 -1
-51 10 -15 18 -24 19 -37 3z"/>
<path d="M2087 1577 c-4 -10 -11 -15 -17 -12 -17 11 -50 -5 -50 -25 0 -38 11
-50 49 -50 59 0 66 10 44 61 -15 35 -21 40 -26 26z"/>
<path d="M4444 1575 c-7 -16 1 -52 15 -73 12 -20 75 13 67 34 -3 9 -6 19 -6
23 0 8 -45 31 -61 31 -5 0 -12 -7 -15 -15z"/>
<path d="M3804 1549 c-17 -5 -38 -17 -48 -28 -9 -10 -25 -17 -35 -14 -21 5
-45 -21 -37 -42 11 -29 53 -36 99 -18 51 20 63 36 65 79 1 37 2 37 -44 23z"/>
<path d="M2265 1520 c-14 -15 -16 -23 -7 -32 16 -16 64 10 60 31 -5 24 -32 24
-53 1z"/>
<path d="M3006 1495 c-22 -22 -20 -42 4 -57 11 -7 20 -20 20 -28 0 -22 48 -70
70 -70 15 0 20 7 20 25 0 14 -6 28 -14 31 -8 3 -13 11 -10 17 6 17 -39 91 -58
95 -8 2 -23 -4 -32 -13z"/>
<path d="M3292 1489 c-26 -41 15 -86 47 -52 24 25 15 73 -13 73 -12 0 -27 -9
-34 -21z"/>
<path d="M4381 1482 c-26 -21 -19 -53 13 -68 30 -14 56 4 56 38 0 36 -41 53
-69 30z"/>
<path d="M2592 1461 c0 -54 60 -83 66 -31 3 33 -10 51 -40 54 -21 3 -26 -1
-26 -23z"/>
<path d="M1787 1473 c-17 -16 -6 -61 17 -77 33 -21 56 -11 56 24 0 36 -52 74
-73 53z"/>
<path d="M3878 1468 c-16 -5 -28 -14 -28 -19 0 -5 -8 -9 -18 -9 -25 0 -72 -23
-72 -35 0 -6 -13 -16 -30 -22 -19 -7 -30 -18 -30 -31 0 -24 18 -32 45 -21 11
4 32 8 48 8 15 1 36 10 47 21 11 11 26 20 34 20 8 0 17 7 20 16 5 13 15 15 50
10 35 -6 45 -4 50 9 8 23 -1 35 -40 51 -38 16 -39 16 -76 2z"/>
<path d="M4086 1441 c-31 -34 -13 -71 35 -71 25 0 39 15 39 44 0 6 -13 19 -29
29 -27 16 -29 16 -45 -2z"/>
<path d="M2256 1423 c-4 -5 -12 -9 -17 -9 -5 -1 -13 -2 -19 -3 -21 -2 -9 -41
20 -61 52 -37 91 5 54 58 -16 23 -26 27 -38 15z"/>
<path d="M2474 1419 c-4 -8 34 -49 45 -49 15 1 39 27 33 37 -9 13 -71 23 -78
12z"/>
<path d="M3522 1417 c-25 -11 -26 -16 -13 -50 10 -26 57 -45 73 -29 14 14 -2
80 -21 85 -9 2 -26 -1 -39 -6z"/>
<path d="M3298 1381 c-24 -23 -23 -53 2 -74 25 -21 34 -21 54 -2 13 13 13 21
2 53 -15 42 -33 49 -58 23z"/>
<path d="M2751 1377 c-27 -27 6 -62 45 -47 27 10 36 24 29 43 -7 17 -58 20
-74 4z"/>
<path d="M704 916 c-3 -15 1 -34 11 -49 15 -24 17 -24 45 -10 51 25 35 83 -22
83 -21 0 -29 -6 -34 -24z"/>
<path d="M1030 835 c-6 -8 -9 -19 -5 -25 4 -6 2 -16 -3 -23 -7 -8 -3 -17 13
-30 23 -17 25 -16 49 8 30 30 29 27 14 60 -13 28 -48 34 -68 10z"/>
<path d="M1283 826 c-11 -12 -29 -38 -39 -58 -17 -36 -17 -38 1 -58 10 -11 30
-20 45 -20 24 0 29 5 34 35 6 30 11 35 35 35 30 0 45 19 35 44 -4 12 -77 49
-87 45 -1 -1 -12 -11 -24 -23z"/>
<path d="M4240 812 c-54 -27 -80 -53 -80 -83 0 -21 6 -28 26 -33 39 -10 64 2
71 35 3 16 12 29 19 29 17 0 48 46 39 60 -9 14 -34 12 -75 -8z"/>
<path d="M1495 798 c-3 -7 -7 -27 -9 -45 -2 -24 0 -30 11 -26 8 3 19 0 24 -8
13 -21 39 19 36 56 -2 25 -7 31 -30 33 -16 2 -29 -2 -32 -10z"/>
<path d="M4428 793 c-13 -3 -16 -11 -11 -36 3 -18 9 -36 14 -41 5 -6 2 -18 -8
-28 -13 -15 -14 -23 -5 -44 10 -20 18 -25 40 -22 31 3 42 38 19 59 -11 11 -10
16 5 31 19 19 25 58 8 58 -5 0 -10 7 -10 15 0 15 -17 17 -52 8z"/>
<path d="M3908 782 c-13 -2 -18 -13 -18 -35 0 -24 7 -36 28 -48 25 -14 29 -14
43 0 8 9 14 22 13 29 -1 6 -2 16 -3 21 -2 15 -45 37 -63 33z"/>
<path d="M1654 745 c-12 -31 5 -63 36 -67 36 -5 49 2 55 30 7 39 -77 74 -91
37z"/>
<path d="M2066 744 c-14 -13 -21 -13 -50 -3 -57 21 -115 -18 -89 -60 6 -9 21
-15 34 -14 13 2 39 3 57 4 28 1 32 5 32 28 l1 26 14 -26 c16 -30 52 -43 90
-33 41 10 26 47 -32 77 -39 21 -38 21 -57 1z"/>
<path d="M813 743 c-21 -8 -15 -51 10 -67 28 -19 67 -10 67 15 0 20 -37 59
-54 58 -6 0 -17 -3 -23 -6z"/>
<path d="M3620 714 c0 -14 6 -31 13 -38 42 -43 107 -43 107 0 0 13 -4 24 -8
24 -5 0 -19 9 -32 20 -13 11 -36 20 -52 20 -23 0 -28 -4 -28 -26z"/>
<path d="M4061 717 c-6 -6 -11 -21 -11 -34 0 -26 -8 -29 -35 -9 -20 15 -66 8
-73 -12 -2 -6 8 -22 22 -35 31 -29 76 -26 76 4 0 11 7 19 16 19 12 0 14 -5 9
-17 -13 -30 -17 -80 -8 -86 17 -11 51 4 56 25 3 11 15 22 26 25 34 9 38 43 7
66 -14 10 -26 27 -26 37 0 21 -43 33 -59 17z"/>
<path d="M3103 705 c-27 -11 -30 -41 -8 -73 14 -18 19 -20 35 -9 23 13 25 42
7 72 -10 17 -16 19 -34 10z"/>
<path d="M3474 702 c-21 -16 -21 -18 -5 -45 18 -32 75 -57 129 -57 27 0 32 4
32 23 0 17 -14 30 -62 57 -35 19 -65 36 -68 37 -3 2 -15 -5 -26 -15z"/>
<path d="M4292 695 c-10 -12 -10 -20 -1 -37 7 -13 16 -26 21 -29 14 -9 56 2
62 16 8 23 -6 55 -24 55 -10 0 -24 2 -32 5 -7 2 -19 -2 -26 -10z"/>
<path d="M2545 669 c-4 -17 -5 -32 -2 -35 2 -2 -11 -21 -29 -40 -36 -40 -51
-81 -35 -97 13 -13 30 1 35 29 7 34 42 84 52 74 5 -5 22 -3 42 5 47 20 45 59
-4 80 -49 20 -51 20 -59 -16z"/>
<path d="M1432 678 c-7 -7 -12 -24 -12 -39 0 -21 8 -30 36 -44 32 -15 38 -15
58 -1 16 10 23 24 22 43 -1 24 -6 28 -36 33 -20 4 -40 9 -46 13 -6 3 -16 1
-22 -5z"/>
<path d="M2262 657 c-17 -21 4 -66 35 -73 13 -4 23 -10 23 -14 0 -18 29 -17
49 1 37 35 22 71 -37 84 -9 2 -26 7 -38 10 -12 4 -25 1 -32 -8z"/>
<path d="M682 653 c-23 -3 -36 -12 -44 -29 -14 -29 -4 -41 37 -47 55 -7 106
51 65 73 -10 6 -20 9 -22 8 -2 0 -18 -3 -36 -5z"/>
<path d="M1754 636 c-17 -25 -61 -30 -73 -8 -9 16 -11 15 -25 -3 -20 -26 -20
-50 0 -69 18 -19 16 -19 47 -7 14 6 38 6 54 2 19 -5 35 -3 50 6 26 17 40 68
23 88 -16 20 -59 15 -76 -9z"/>
<path d="M3282 651 c-8 -5 -12 -22 -10 -42 3 -30 7 -34 33 -37 26 -2 31 1 33
20 5 58 -19 83 -56 59z"/>
<path d="M1023 639 c-35 -13 -28 -69 8 -69 10 0 19 -6 19 -12 0 -7 7 -2 16 10
18 27 15 74 -6 77 -8 1 -25 -1 -37 -6z"/>
<path d="M3740 635 c-21 -26 -3 -71 33 -82 41 -12 57 -7 57 21 0 41 -69 87
-90 61z"/>
<path d="M2105 623 c-3 -10 -1 -19 4 -21 6 -2 11 -11 11 -20 1 -20 63 -54 85
-46 23 9 18 36 -16 72 -33 35 -73 42 -84 15z"/>
<path d="M2930 620 c0 -6 -6 -10 -12 -8 -19 7 -40 -19 -34 -39 8 -25 34 -39
84 -48 42 -7 42 -7 42 23 0 22 -6 32 -20 37 -11 3 -20 14 -20 22 0 9 -3 13 -7
10 -3 -4 -12 -2 -20 4 -10 9 -13 8 -13 -1z"/>
<path d="M1912 600 c-20 -33 5 -76 42 -73 15 1 34 10 41 19 10 15 7 21 -20 46
-39 33 -46 34 -63 8z"/>
<path d="M2754 592 c-6 -4 -17 -18 -24 -31 -12 -23 -10 -27 19 -52 22 -18 40
-25 56 -21 14 2 25 8 25 12 0 5 3 15 6 23 3 10 -3 17 -21 21 -15 4 -30 17 -35
31 -11 28 -11 28 -26 17z"/>
<path d="M4205 587 c-13 -10 -16 -21 -11 -41 6 -24 11 -27 47 -24 32 1 41 6
45 25 4 13 4 30 0 38 -7 19 -56 20 -81 2z"/>
<path d="M880 566 c-6 -8 -10 -25 -8 -38 2 -18 9 -23 33 -23 36 0 45 27 19 56
-21 23 -28 24 -44 5z"/>
<path d="M2640 560 c-13 -11 -27 -20 -32 -20 -12 0 -9 -33 5 -51 20 -26 51
-28 68 -5 8 12 14 28 13 36 0 8 -2 25 -2 38 -2 27 -22 28 -52 2z"/>
<path d="M3915 569 c-12 -19 4 -57 28 -63 32 -8 69 4 63 20 -3 7 0 15 7 18 8
3 6 10 -7 20 -22 18 -81 21 -91 5z"/>
<path d="M3374 528 c-37 -18 -56 -82 -32 -106 19 -19 36 -14 50 15 7 14 21 27
31 29 36 5 47 14 47 38 0 35 -48 48 -96 24z"/>
<path d="M4326 518 c-18 -25 -7 -53 23 -61 15 -4 22 2 30 26 18 51 -23 79 -53
35z"/>
<path d="M3129 512 c-29 -5 -39 -80 -17 -127 8 -18 19 -25 40 -25 17 0 28 -5
28 -14 0 -7 9 -16 19 -19 25 -6 111 74 111 103 0 35 -41 30 -88 -12 -35 -30
-56 -32 -31 -2 11 14 11 18 -4 29 -9 7 -17 20 -17 29 0 23 -21 42 -41 38z"/>
<path d="M3650 510 c0 -5 -6 -10 -13 -10 -20 0 -47 -33 -47 -58 0 -28 36 -64
58 -60 9 2 19 14 20 28 2 14 12 34 21 45 10 11 16 26 15 33 -1 6 -2 17 -3 22
0 6 -12 10 -26 10 -14 0 -25 -4 -25 -10z"/>
<path d="M3828 503 c-8 -33 3 -51 34 -57 53 -10 64 -7 66 18 3 41 -91 77 -100
39z"/>
<path d="M4041 507 c-31 -15 -36 -31 -16 -50 12 -12 22 -14 41 -7 14 6 36 10
49 10 22 0 35 17 35 46 0 18 -75 19 -109 1z"/>
<path d="M2153 496 c-28 -13 -31 -56 -4 -80 29 -27 59 -5 52 38 -1 4 3 14 9
21 9 10 6 16 -9 24 -11 6 -21 10 -23 10 -2 -1 -13 -6 -25 -13z"/>
<path d="M1495 494 c-87 -13 -113 -74 -45 -109 37 -19 34 -20 70 15 17 17 40
30 51 30 19 0 48 44 36 56 -8 8 -76 13 -112 8z"/>
<path d="M4231 484 c-16 -12 -19 -19 -11 -33 5 -10 7 -21 4 -23 -9 -10 26 -30
41 -24 20 7 21 82 1 89 -7 3 -23 -1 -35 -9z"/>
<path d="M1661 468 c-10 -27 21 -78 47 -78 46 1 56 35 21 73 -32 33 -57 35
-68 5z"/>
<path d="M1862 439 c-18 -7 -23 -15 -20 -35 4 -33 27 -49 60 -41 36 9 43 35
17 64 -25 26 -25 26 -57 12z"/>
<path d="M2758 417 c-44 -37 -40 -87 8 -87 18 0 24 5 24 21 0 11 9 32 20 46
11 14 20 30 20 34 0 17 -45 9 -72 -14z"/>
<path d="M2537 393 c-14 -13 -7 -50 14 -71 17 -20 22 -20 35 -8 7 8 14 19 14
25 0 6 5 11 11 11 6 0 3 7 -5 16 -9 8 -16 20 -16 25 0 10 -43 12 -53 2z"/>
<path d="M3362 377 c-21 -25 9 -87 41 -87 20 0 41 45 33 74 -5 20 -13 26 -35
26 -16 0 -33 -6 -39 -13z"/>
<path d="M2305 363 c-30 -30 0 -103 42 -103 8 0 15 6 17 13 21 78 22 96 9 102
-26 9 -51 5 -68 -12z"/>
<path d="M2149 351 c-21 -23 -7 -64 28 -80 21 -10 28 -9 34 1 14 22 6 69 -15
84 -25 17 -27 17 -47 -5z"/>
<path d="M2939 340 c-23 -13 -13 -65 16 -80 56 -30 88 25 38 67 -29 26 -31 26
-54 13z"/>
<path d="M4150 3241 c0 -5 7 -11 15 -15 8 -3 15 -1 15 3 0 5 -7 11 -15 15 -8
3 -15 1 -15 -3z"/>
<path d="M4190 3219 c0 -5 5 -7 10 -4 6 3 10 8 10 11 0 2 -4 4 -10 4 -5 0 -10
-5 -10 -11z"/>
</g>
</svg>
