<?xml version="1.0" standalone="no"?>
<!DOCTYPE svg PUBLIC "-//W3C//DTD SVG 20010904//EN"
 "http://www.w3.org/TR/2001/REC-SVG-20010904/DTD/svg10.dtd">
<svg version="1.0" xmlns="http://www.w3.org/2000/svg"
 width="523.000000pt" height="383.000000pt" viewBox="0 0 523.000000 383.000000"
 preserveAspectRatio="xMidYMid meet">
<metadata>
Created by potrace 1.16, written by Peter Selinger 2001-2019
</metadata>
<g transform="translate(0.000000,383.000000) scale(0.100000,-0.100000)"
fill="#000000" stroke="none">
<path d="M1715 3386 c-55 -10 -102 -22 -105 -25 -7 -8 -95 -40 -147 -54 -24
-5 -43 -14 -43 -19 0 -4 -6 -8 -12 -8 -19 0 -178 -81 -178 -90 0 -5 -12 -13
-27 -19 -42 -18 -86 -43 -101 -58 -7 -7 -20 -13 -27 -13 -8 0 -17 -9 -20 -21
-4 -11 -9 -18 -12 -16 -2 3 -15 -5 -28 -17 -13 -11 -52 -46 -88 -76 -35 -30
-80 -80 -98 -110 -19 -30 -46 -68 -61 -85 -15 -16 -28 -36 -28 -43 0 -7 -4
-20 -9 -30 -26 -51 -71 -151 -71 -157 0 -3 -11 -31 -25 -61 -14 -30 -25 -60
-25 -67 0 -7 -6 -21 -13 -32 -18 -26 -67 -162 -61 -167 2 -3 -3 -24 -11 -48
-8 -23 -20 -70 -26 -104 -6 -33 -13 -72 -15 -86 -3 -14 -10 -88 -15 -165 -6
-77 -15 -147 -19 -157 -5 -9 -5 -30 1 -50 5 -18 9 -53 8 -78 -1 -25 0 -54 4
-65 3 -11 8 -49 12 -84 8 -89 87 -281 116 -281 5 0 9 -7 9 -15 0 -9 5 -21 10
-28 6 -7 32 -45 59 -86 27 -40 62 -87 78 -105 40 -44 138 -125 208 -171 33
-22 62 -43 65 -47 9 -11 64 -31 79 -29 14 3 51 -32 51 -48 0 -5 7 -11 15 -15
8 -3 15 -9 14 -13 -4 -25 3 -42 21 -48 12 -4 22 -19 26 -41 3 -19 10 -34 14
-34 7 0 22 -30 25 -50 3 -20 41 -60 65 -68 31 -11 72 0 145 37 21 12 45 21 52
21 7 0 13 4 13 10 0 14 51 25 59 12 6 -11 281 -22 281 -11 0 3 48 6 108 6 163
0 539 10 549 15 4 3 87 6 183 7 96 1 193 6 215 11 22 5 72 10 111 10 39 0 73
2 76 5 3 3 46 7 97 10 l92 4 72 -72 c104 -104 150 -144 178 -152 13 -4 42 -20
64 -35 53 -36 145 -54 153 -30 2 5 9 10 14 10 6 0 25 16 42 35 17 19 45 45 62
57 17 13 31 25 31 28 1 12 46 80 52 80 5 0 16 17 27 38 10 20 23 40 27 43 15
11 -4 58 -35 88 l-31 30 29 6 c16 4 40 12 54 20 14 7 41 16 60 20 36 7 115 82
182 172 17 24 35 43 40 43 4 0 8 4 8 10 0 5 20 39 45 76 25 36 45 71 45 79 0
7 3 15 7 17 9 3 54 92 54 105 1 4 15 26 33 48 39 48 57 80 61 109 1 11 7 39
13 61 6 22 16 63 22 90 17 75 30 123 52 194 21 66 28 215 14 311 -4 25 -9 63
-12 85 -3 22 -13 67 -21 100 -8 33 -16 69 -17 80 -3 24 -66 186 -107 273 -16
35 -29 65 -29 68 0 9 -181 278 -194 289 -7 6 -32 38 -55 73 -43 62 -117 142
-132 142 -5 0 -26 17 -48 38 -120 113 -142 132 -156 132 -8 0 -43 15 -77 34
-78 42 -273 88 -428 102 -36 3 -85 12 -110 19 -46 14 -324 16 -346 2 -6 -3
-23 -8 -38 -11 -52 -9 -129 -39 -205 -77 -41 -22 -78 -39 -82 -39 -4 0 -17 11
-30 25 -16 16 -35 25 -57 25 -18 0 -46 7 -62 15 -17 9 -30 13 -30 10 0 -3 -13
1 -30 10 -16 9 -30 12 -30 8 0 -4 -6 0 -12 9 -11 14 -74 32 -188 53 -118 23
-362 23 -475 1z m470 -120 c39 -9 93 -27 120 -40 28 -13 71 -33 98 -44 26 -12
47 -28 47 -35 0 -13 -29 -49 -52 -64 -7 -4 -25 -24 -40 -43 -14 -19 -35 -45
-47 -57 -12 -12 -21 -26 -21 -32 0 -6 -12 -6 -32 0 -31 8 -267 29 -330 29 -18
0 -28 5 -28 15 0 8 -7 16 -15 16 -8 1 -21 2 -27 3 -19 2 -41 -22 -35 -38 4
-11 -6 -16 -36 -21 -23 -4 -50 -11 -59 -16 -10 -5 -45 -12 -79 -15 -34 -2 -88
-14 -120 -24 -32 -11 -63 -19 -67 -18 -5 2 -34 -16 -66 -39 -31 -24 -61 -43
-65 -43 -5 0 -32 -22 -61 -50 -29 -27 -56 -50 -61 -50 -4 0 -24 -16 -44 -35
-21 -19 -46 -37 -57 -41 -11 -3 -18 -13 -16 -22 2 -10 -16 -46 -39 -82 -24
-36 -43 -71 -43 -77 0 -7 -4 -13 -9 -13 -8 0 -68 -121 -76 -157 -3 -10 -14
-52 -25 -93 -20 -73 -32 -174 -34 -280 -1 -47 -4 -55 -19 -53 -29 2 -59 -28
-45 -44 6 -7 8 -16 5 -19 -11 -12 17 -30 40 -26 21 4 23 0 24 -34 1 -42 2 -50
17 -134 35 -183 98 -337 177 -427 25 -28 45 -54 45 -57 0 -16 127 -126 146
-126 4 0 85 -52 129 -84 20 -14 19 -14 -10 -37 -16 -13 -43 -38 -59 -56 -16
-18 -36 -33 -43 -33 -7 0 -13 -3 -13 -8 0 -13 -53 -31 -87 -30 -32 1 -33 2
-27 38 5 33 3 39 -15 45 -26 8 -71 -18 -71 -41 0 -13 -5 -12 -26 5 -15 12 -31
21 -36 21 -10 0 -31 16 -56 43 -9 9 -20 17 -25 17 -11 0 -67 61 -67 73 0 4 -6
7 -14 7 -23 0 -27 29 -6 42 24 15 26 44 5 64 -13 13 -18 12 -40 -10 l-24 -24
-23 36 c-12 20 -34 52 -50 70 -15 18 -28 41 -28 52 0 11 -8 27 -18 37 -21 21
-57 125 -50 144 3 8 1 22 -4 33 -23 44 -33 163 -23 296 2 30 7 105 10 165 4
61 14 122 22 138 7 15 13 33 11 40 -3 16 22 109 34 122 6 6 12 5 17 -4 12 -19
58 -6 66 19 3 11 3 25 0 31 -11 17 -49 28 -62 17 -20 -16 18 100 67 207 47
104 60 134 60 142 0 4 6 19 13 33 7 14 21 46 31 73 10 26 22 47 27 47 6 0 7 4
4 10 -3 5 56 71 132 146 l137 137 26 -31 c19 -23 31 -30 48 -25 14 3 22 1 22
-8 0 -25 13 2 17 35 3 30 0 34 -24 39 -15 3 -32 2 -38 -1 -5 -4 -16 -7 -23 -8
-19 -3 -9 19 15 31 12 6 27 16 35 22 8 7 45 28 83 48 39 20 84 45 102 56 18
11 43 21 57 23 13 1 35 9 48 17 38 24 80 40 118 45 36 4 91 15 195 36 73 16
258 7 360 -16z m1255 -31 c18 -3 45 -12 61 -20 15 -8 37 -15 49 -15 11 0 20
-5 20 -11 0 -5 4 -8 9 -5 5 3 35 -8 66 -24 31 -17 64 -30 74 -30 9 0 30 -8 46
-18 17 -10 46 -24 65 -31 52 -18 160 -84 160 -98 0 -7 4 -13 9 -13 5 0 26 -16
46 -35 33 -29 36 -35 21 -41 -14 -5 -17 -14 -12 -37 10 -47 41 -61 71 -31 15
16 19 14 51 -22 18 -21 36 -47 40 -56 3 -10 9 -18 13 -18 4 0 20 -24 35 -52
77 -149 116 -217 138 -240 13 -15 30 -39 37 -55 7 -15 24 -49 37 -74 13 -25
25 -62 28 -82 2 -20 7 -41 11 -46 3 -6 14 -48 23 -94 l18 -84 -30 -9 c-22 -6
-31 -15 -32 -31 -1 -13 3 -23 7 -23 5 0 9 -7 9 -15 0 -8 9 -15 21 -15 19 0 20
-5 19 -67 -2 -79 -30 -245 -44 -254 -5 -4 -6 -20 -3 -35 3 -17 -5 -56 -20 -99
-14 -38 -25 -78 -25 -87 1 -14 -7 -18 -33 -18 -24 0 -38 -6 -45 -19 -15 -30
-12 -40 15 -53 14 -6 25 -18 25 -27 -1 -24 -34 -115 -53 -144 -9 -15 -17 -30
-17 -35 0 -22 -77 -145 -92 -150 -10 -2 -18 -10 -18 -17 0 -6 -9 -20 -20 -30
-11 -10 -20 -22 -20 -26 0 -4 -10 -19 -22 -31 -13 -13 -34 -38 -47 -56 -13
-17 -30 -32 -38 -32 -14 0 -54 -20 -63 -31 -7 -10 -50 9 -50 21 0 6 -11 -1
-25 -16 -14 -15 -25 -30 -25 -35 0 -4 -11 -6 -24 -3 -14 2 -28 0 -31 -6 -17
-28 -84 13 -193 117 l-71 68 47 2 c26 1 74 11 106 22 33 12 66 21 75 21 9 0
41 22 70 50 29 28 56 50 59 50 2 0 10 7 16 15 8 12 18 13 42 6 22 -6 36 -5 43
2 16 16 13 54 -5 61 -20 7 -10 42 20 73 32 33 46 51 46 59 0 4 7 15 16 25 8 9
17 26 19 36 2 10 4 18 5 18 1 0 3 16 5 35 6 60 17 100 27 100 6 0 7 11 4 24
-7 29 28 112 55 129 24 15 27 77 3 77 -12 0 -15 14 -14 83 1 221 -11 329 -57
502 -16 62 -17 74 -4 100 8 17 21 35 29 41 20 15 8 44 -18 44 -11 0 -29 -6
-40 -12 -18 -11 -23 -9 -47 20 -16 19 -40 47 -56 64 -47 51 -49 62 -17 81 17
11 27 24 25 35 -2 9 -4 20 -4 25 -1 4 -10 7 -21 7 -11 0 -20 5 -20 10 0 6 -11
3 -24 -5 -17 -11 -22 -22 -19 -38 5 -17 -3 -13 -36 21 -23 23 -45 42 -50 42
-4 0 -13 11 -19 25 -6 13 -24 28 -39 31 -15 4 -36 17 -48 28 -26 27 -47 40
-113 71 -30 13 -51 28 -48 33 3 5 0 9 -7 10 -7 1 -36 4 -65 7 -29 3 -61 9 -70
13 -9 5 -32 9 -51 11 -19 1 -41 7 -49 13 -8 7 -39 16 -71 20 -72 10 -61 10
-171 5 -87 -4 -131 -12 -216 -38 -17 -5 -36 -9 -43 -9 -10 0 -72 -41 -91 -60
-18 -18 -72 -50 -85 -50 -8 0 -15 -5 -15 -11 0 -10 -56 -69 -66 -69 -1 0 -18
-15 -37 -32 -51 -49 -62 -88 -60 -202 2 -61 -2 -105 -8 -113 -8 -9 -8 -13 0
-13 6 0 20 -9 31 -20 l20 -20 -44 -84 c-52 -100 -68 -124 -122 -180 -52 -53
-87 -76 -102 -67 -14 8 -66 105 -93 174 -16 39 -21 73 -20 136 0 46 5 89 11
96 5 6 7 14 4 17 -12 13 91 260 116 278 4 3 13 16 20 30 36 69 247 299 321
350 19 13 52 40 74 60 22 21 61 49 87 63 65 36 237 67 366 66 57 0 106 2 109
5 6 5 92 0 143 -9z m-1337 -417 c4 -10 7 -10 14 -1 7 10 13 10 28 -1 18 -13
17 -21 -4 -56 -36 -62 -78 -235 -87 -360 -6 -88 14 -203 49 -281 8 -19 23 -56
33 -84 10 -27 20 -52 23 -55 4 -3 6 -9 6 -15 1 -22 39 -85 52 -85 7 0 13 -2
13 -4 0 -19 -55 -93 -112 -149 -37 -38 -68 -74 -68 -81 0 -7 -22 -36 -50 -64
-27 -29 -50 -58 -50 -65 0 -12 -24 -43 -100 -125 -22 -23 -40 -44 -40 -46 0
-2 -16 -20 -35 -40 -19 -21 -35 -42 -35 -47 0 -6 -14 -22 -30 -36 -17 -14 -38
-39 -47 -56 -8 -17 -21 -37 -27 -43 -6 -7 -29 -33 -51 -58 -39 -44 -69 -58
-77 -35 -2 6 -13 13 -23 14 -39 4 -86 18 -91 26 -3 5 -14 9 -25 9 -10 0 -19 5
-19 10 0 6 -7 10 -15 10 -8 0 -15 5 -15 10 0 6 -7 10 -15 10 -8 0 -15 5 -15
10 0 6 -6 10 -14 10 -33 0 -156 146 -156 185 0 8 -5 15 -11 15 -10 0 -35 58
-31 73 1 4 -2 7 -8 7 -5 0 -10 9 -10 20 0 11 -4 20 -10 20 -8 0 -38 84 -46
130 -2 8 -6 29 -9 45 -9 42 -11 413 -3 451 4 17 10 46 12 65 7 55 17 89 27 89
5 0 9 6 9 13 0 15 31 78 58 118 49 73 62 95 62 105 0 6 25 34 55 62 30 28 55
56 55 62 0 5 6 10 13 10 7 0 23 14 35 30 13 17 29 30 36 30 7 0 21 9 32 21 21
24 94 64 94 52 0 -5 4 -3 8 3 11 15 72 42 127 54 28 6 111 11 185 10 74 -1
146 -1 160 -1 53 3 102 9 107 15 11 10 31 7 36 -6z m1036 -7 c10 -6 48 -11 85
-12 37 -1 69 -6 72 -10 2 -5 11 -6 19 -2 15 5 98 -11 235 -44 67 -17 144 -54
170 -82 8 -9 28 -25 43 -34 47 -30 127 -100 127 -111 0 -4 19 -26 41 -49 50
-51 61 -63 85 -102 10 -16 21 -32 24 -35 15 -13 69 -194 74 -250 2 -14 6 -38
10 -55 10 -49 15 -267 6 -321 -5 -27 -11 -69 -14 -94 -2 -25 -19 -103 -36
-175 -18 -71 -33 -136 -33 -142 0 -7 -3 -13 -7 -13 -4 0 -23 -24 -43 -54 -49
-75 -186 -196 -221 -196 -7 0 -19 -7 -26 -15 -7 -9 -19 -14 -25 -11 -7 2 -18
-1 -24 -7 -18 -18 -112 -36 -137 -27 -14 6 -24 5 -26 -1 -2 -7 -14 -6 -32 3
-23 10 -30 10 -33 1 -4 -12 -133 81 -133 95 0 4 -21 30 -47 57 -96 103 -213
279 -262 395 -18 41 -36 84 -41 95 -10 23 -29 84 -34 111 -3 10 -12 36 -20 57
-9 20 -14 37 -10 37 3 0 -4 12 -15 26 -17 21 -18 29 -8 47 7 12 14 24 17 27
17 17 78 171 86 219 4 20 11 42 17 49 5 6 6 12 2 12 -4 0 -3 6 2 13 5 6 9 19
8 27 0 8 7 35 17 59 21 51 22 124 2 226 -7 39 -16 90 -18 115 -3 25 -11 70
-19 100 l-14 55 46 11 c61 15 69 16 90 5z m-253 -82 c-3 -22 0 -29 13 -27 12
2 17 -6 19 -30 2 -19 1 -41 -3 -50 -6 -15 -9 -14 -25 6 l-19 23 -21 -21 c-11
-11 -20 -29 -20 -40 0 -25 46 -68 81 -75 26 -6 28 -11 36 -73 4 -37 7 -80 6
-95 -3 -43 -30 -130 -48 -152 -9 -11 -14 -14 -10 -7 8 15 -38 34 -79 34 -37
-1 -50 -21 -28 -45 13 -15 26 -18 59 -13 43 6 60 -7 23 -17 -28 -7 -44 -54
-30 -86 9 -21 5 -36 -30 -108 -22 -46 -47 -86 -55 -90 -8 -3 -15 -11 -15 -18
0 -15 -80 -135 -90 -135 -4 0 -13 -18 -20 -40 -7 -22 -17 -40 -22 -40 -4 0 -8
-6 -8 -14 0 -8 -8 -21 -18 -28 -15 -11 -51 -60 -114 -155 -9 -14 -20 -29 -25
-32 -4 -3 -26 -30 -48 -58 -21 -29 -44 -53 -51 -53 -6 0 -14 -10 -18 -23 -3
-13 -22 -41 -43 -63 -21 -21 -60 -66 -88 -99 -82 -97 -240 -251 -345 -335 -24
-19 -54 -45 -67 -58 -12 -12 -26 -22 -31 -22 -5 0 -17 -9 -27 -20 -10 -11 -24
-20 -30 -20 -7 0 -15 -7 -19 -15 -3 -8 -12 -15 -21 -15 -8 0 -27 -13 -42 -28
-16 -16 -59 -50 -98 -77 -38 -26 -72 -51 -75 -55 -8 -11 -47 -30 -63 -30 -12
0 -69 92 -78 125 -2 6 -13 21 -26 35 -13 14 -23 28 -23 32 0 3 20 17 45 29 25
12 45 27 45 33 0 6 14 20 30 31 16 11 30 26 30 33 0 7 10 16 23 21 12 5 32 19
44 30 12 12 24 21 27 21 8 0 126 118 126 127 0 5 18 26 40 48 21 22 39 45 40
52 0 6 3 13 8 15 4 2 28 30 55 63 71 90 87 108 87 97 0 -14 51 -33 72 -26 15
4 19 12 15 30 -2 13 2 29 9 35 16 13 19 49 4 49 -20 0 -9 22 28 59 37 38 114
125 168 191 16 19 53 59 82 87 28 29 52 57 52 63 0 5 20 10 45 10 34 0 47 5
55 20 8 14 7 22 -4 32 -12 11 -10 17 13 40 31 31 36 38 80 101 19 26 38 47 43
47 4 0 8 7 8 15 0 8 3 15 8 15 4 0 22 26 40 58 18 31 44 76 57 98 25 42 69
164 80 219 10 54 12 149 2 175 -5 14 -11 39 -14 57 -4 26 0 35 24 50 15 9 32
23 36 30 4 7 15 13 22 13 8 0 15 7 15 15 0 8 4 15 8 15 5 0 17 8 28 18 42 39
65 36 60 -9z m53 -167 l-1 -37 -12 35 c-14 36 -12 55 5 45 5 -4 9 -23 8 -43z
m-120 -877 c-1 -11 9 -45 23 -75 23 -51 23 -55 6 -58 -12 -2 -16 -10 -14 -25
3 -12 5 -26 5 -30 1 -5 5 -6 10 -2 5 3 13 1 16 -5 4 -6 15 -8 24 -5 13 4 25
-6 45 -35 14 -22 26 -46 26 -55 0 -8 7 -15 16 -15 8 0 13 -4 9 -9 -3 -5 -1
-12 3 -15 5 -3 35 -45 67 -93 33 -49 66 -95 74 -104 27 -27 61 -69 61 -74 0
-14 98 -115 111 -115 6 0 8 -3 6 -7 -3 -5 28 -35 69 -68 40 -33 76 -68 79 -77
4 -10 18 -21 32 -24 25 -7 103 -71 103 -86 0 -4 -12 -6 -27 -5 -21 2 -28 -4
-33 -25 -6 -20 -3 -31 14 -45 20 -18 25 -18 44 -5 12 8 22 23 22 34 0 25 13
17 85 -50 31 -29 67 -57 81 -62 13 -5 24 -14 24 -20 0 -5 7 -10 15 -10 8 0 15
-4 15 -10 0 -5 7 -10 15 -10 9 0 18 -7 21 -15 4 -8 12 -15 20 -15 21 0 17 -32
-9 -61 -37 -44 -131 -117 -157 -124 -26 -6 -97 33 -134 74 -17 18 -17 19 4 26
16 5 20 13 18 33 -2 20 -9 26 -33 29 -20 3 -33 -1 -42 -13 -11 -15 -16 -14
-52 19 -22 19 -51 43 -65 52 -14 10 -26 24 -26 32 0 8 -4 12 -8 9 -5 -3 -21 6
-38 20 -28 24 -28 24 -3 15 24 -9 26 -6 36 30 11 43 4 55 -34 57 -16 0 -25 -6
-29 -23 -3 -13 -3 -29 1 -34 29 -48 -151 101 -206 170 -25 32 -27 40 -18 72 7
25 7 43 -1 57 -10 19 -13 19 -46 5 l-35 -14 -67 56 c-159 135 -196 188 -275
393 -44 113 -43 119 5 190 24 34 50 74 58 89 64 114 64 113 78 94 7 -10 12
-27 11 -38z m-261 -442 c12 -17 22 -37 22 -43 0 -12 27 -47 107 -138 23 -26
44 -59 48 -74 4 -15 12 -25 19 -22 6 2 25 -9 41 -25 l28 -31 -34 0 c-56 0 -71
-2 -139 -11 -36 -5 -92 -11 -125 -14 -33 -2 -73 -7 -90 -10 -95 -17 -258 -27
-284 -17 -23 8 -22 11 44 78 37 38 79 85 94 104 14 19 34 42 44 52 9 10 17 24
17 32 0 7 18 28 40 47 22 19 40 40 40 47 0 6 5 12 10 12 6 0 14 8 17 18 4 9
15 26 26 38 18 19 21 20 36 5 9 -9 26 -30 39 -48z m454 -525 c24 -24 71 -67
106 -97 34 -30 62 -58 62 -63 0 -14 -48 -9 -53 6 -11 28 -47 26 -69 -4 -12
-16 -24 -27 -28 -25 -4 2 -21 0 -39 -5 -28 -8 -47 3 -20 12 7 2 7 12 0 30 -8
22 -17 26 -55 30 l-46 3 0 -41 0 -41 -52 -11 c-29 -6 -110 -11 -179 -11 -69 0
-133 -3 -141 -6 -10 -4 -24 1 -34 12 -18 17 -19 17 -39 0 -15 -14 -42 -20
-105 -24 -47 -2 -94 -4 -105 -3 -11 1 -37 2 -58 3 -33 2 -39 6 -44 29 -3 15
-14 30 -24 33 -23 8 -61 -3 -54 -15 3 -5 1 -11 -4 -15 -6 -3 -7 -13 -4 -21 5
-14 -9 -15 -123 -11 -198 9 -209 15 -138 73 26 21 56 47 66 57 10 9 22 17 28
17 5 0 31 22 57 48 27 27 58 54 70 60 27 15 53 15 53 2 0 -5 -6 -10 -14 -10
-9 0 -12 -7 -9 -20 3 -11 10 -20 15 -20 6 0 8 -6 5 -14 -8 -19 25 -26 48 -10
23 17 14 57 -17 72 -18 9 11 11 132 10 85 0 192 3 238 7 45 4 82 5 82 2 0 -3
-5 -18 -12 -31 -9 -22 -8 -29 7 -46 19 -21 65 -28 65 -9 0 8 4 8 14 0 11 -9
15 -8 20 5 18 46 5 60 -51 55 -12 -1 -24 3 -28 9 -7 11 -6 12 96 14 l76 1 -1
-45 c-1 -39 2 -45 20 -48 44 -6 76 64 34 75 -34 9 -22 22 20 21 23 0 43 1 45
3 2 2 35 3 74 2 68 -2 71 -4 113 -45z"/>
<path d="M1741 3231 c-34 -34 -22 -81 21 -81 14 0 18 8 18 38 0 55 -13 69 -39
43z"/>
<path d="M2154 3126 c-3 -9 -3 -27 0 -41 5 -19 12 -24 29 -21 12 3 27 5 34 5
6 1 11 15 10 34 -2 28 -6 32 -35 35 -22 2 -34 -2 -38 -12z"/>
<path d="M1432 2978 c-17 -17 -15 -55 4 -66 27 -15 62 -2 67 24 2 13 0 24 -4
24 -5 0 -8 6 -6 13 3 16 -45 21 -61 5z"/>
<path d="M974 2728 c-9 -29 14 -58 45 -58 34 0 45 20 29 55 -8 18 -18 23 -39
22 -18 -1 -31 -9 -35 -19z"/>
<path d="M789 2474 c-10 -13 -10 -20 4 -43 9 -16 14 -31 11 -33 -3 -3 2 -8 11
-11 9 -4 15 -1 15 7 0 8 7 16 15 20 20 7 20 62 -1 70 -25 10 -41 7 -55 -10z"/>
<path d="M860 2311 c0 -7 -4 -10 -9 -7 -5 3 -14 -1 -21 -9 -7 -8 -19 -15 -27
-15 -9 0 -4 -9 13 -25 30 -28 41 -30 67 -11 23 17 22 39 -3 61 -12 11 -20 13
-20 6z"/>
<path d="M632 1632 c-33 -5 -48 -39 -27 -62 32 -36 73 -16 74 36 1 24 -13 32
-47 26z"/>
<path d="M796 1574 c-13 -12 -23 -64 -13 -64 1 0 16 -4 34 -9 29 -9 32 -7 42
20 8 25 7 32 -11 49 -26 24 -32 25 -52 4z"/>
<path d="M643 1359 c-26 -9 -31 -50 -10 -67 20 -17 55 -10 68 14 11 22 5 63
-8 51 -3 -4 -11 -3 -17 2 -6 5 -21 5 -33 0z"/>
<path d="M820 1264 c-9 -3 -21 -14 -28 -25 -10 -16 -10 -20 3 -25 8 -4 15 -13
15 -21 0 -10 11 -6 40 14 l39 28 -22 17 c-12 10 -24 17 -27 17 -3 -1 -12 -3
-20 -5z"/>
<path d="M1081 1041 c-15 -28 -14 -38 8 -60 19 -19 20 -19 45 6 29 29 31 36
14 51 -28 22 -57 23 -67 3z"/>
<path d="M3204 3118 c-6 -20 16 -58 33 -58 7 0 13 -4 13 -10 0 -5 5 -10 10
-10 6 0 10 7 10 15 0 8 4 15 9 15 17 0 22 34 7 48 -21 21 -75 21 -82 0z"/>
<path d="M2983 3055 c-17 -18 -16 -47 0 -69 31 -42 76 11 54 62 -11 25 -36 28
-54 7z"/>
<path d="M3500 3043 c-18 -13 -19 -17 -6 -41 15 -30 45 -48 88 -55 20 -3 29 2
38 19 14 24 7 44 -16 44 -8 0 -14 6 -14 13 0 6 -16 17 -35 23 -27 9 -39 8 -55
-3z"/>
<path d="M3810 2996 c0 -8 -5 -16 -12 -18 -17 -6 -2 -51 21 -65 17 -11 23 -10
41 9 13 14 18 29 14 42 -11 38 -64 64 -64 32z"/>
<path d="M2562 2854 c-12 -8 -22 -21 -22 -28 0 -21 37 -48 62 -44 25 3 33 26
24 64 -7 28 -31 31 -64 8z"/>
<path d="M4159 2629 c-14 -5 -32 -21 -39 -35 -13 -22 -11 -27 12 -51 29 -29
52 -23 46 12 -3 14 2 26 14 34 17 11 18 10 9 -8 -13 -24 -5 -49 17 -54 27 -6
72 31 72 59 0 21 -5 24 -34 24 -21 0 -36 6 -40 15 -6 17 -19 18 -57 4z"/>
<path d="M2366 2574 c-18 -18 -18 -55 0 -61 16 -5 40 55 27 68 -7 7 -16 5 -27
-7z"/>
<path d="M2396 2441 c-9 -10 -14 -25 -10 -35 14 -36 104 -32 104 4 0 11 -2 20
-4 20 -2 0 -19 7 -39 15 -32 13 -36 13 -51 -4z"/>
<path d="M4342 2364 c-11 -12 -12 -21 -2 -44 11 -26 16 -28 52 -25 46 4 45 4
50 30 5 32 -78 64 -100 39z"/>
<path d="M2265 2273 c-30 -7 -37 -18 -30 -46 6 -21 13 -26 34 -25 36 3 51 24
37 54 -6 13 -13 23 -16 23 -3 -1 -14 -3 -25 -6z"/>
<path d="M4305 1994 c-11 -12 -14 -25 -10 -43 8 -32 4 -28 39 -33 25 -2 31 1
37 24 6 23 3 31 -21 48 -26 19 -30 19 -45 4z"/>
<path d="M4160 1125 c-19 -10 -19 -11 3 -38 19 -25 25 -27 49 -18 34 13 53 45
35 59 -15 12 -61 11 -87 -3z"/>
<path d="M4060 873 c-8 -3 -18 -10 -21 -16 -7 -11 0 -47 10 -48 3 0 21 -2 39
-5 31 -4 32 -3 32 32 0 21 -4 33 -10 29 -5 -3 -10 -1 -10 4 0 12 -16 13 -40 4z"/>
<path d="M2725 2325 c-32 -27 -34 -52 -8 -72 14 -10 22 -7 50 23 19 20 33 44
31 53 -5 25 -40 23 -73 -4z"/>
<path d="M2613 1925 c-27 -30 -9 -75 29 -75 11 0 23 11 29 27 9 23 7 30 -13
45 -28 21 -30 21 -45 3z"/>
<path d="M2354 1433 c4 -6 -3 -14 -14 -18 -32 -10 -54 -49 -40 -74 10 -20 54
-29 63 -13 15 26 16 80 1 97 -8 11 -13 15 -10 8z"/>
<path d="M2103 1303 c-18 -9 -35 -23 -38 -30 -6 -18 18 -43 42 -43 24 0 56 38
58 67 1 27 -16 29 -62 6z"/>
<path d="M1796 1124 c-21 -21 -20 -41 3 -54 27 -14 28 -14 38 18 17 48 -8 70
-41 36z"/>
<path d="M1853 942 c-24 -15 -20 -55 7 -69 21 -11 27 -10 38 4 31 42 -3 92
-45 65z"/>
<path d="M1490 695 c-11 -21 -11 -29 0 -50 10 -19 16 -22 26 -14 8 6 21 9 29
5 10 -3 17 3 21 20 7 26 -3 44 -27 47 -8 2 -19 6 -25 9 -6 4 -17 -4 -24 -17z"/>
<path d="M2728 1355 c-10 -22 -8 -28 12 -45 21 -19 25 -19 41 -4 10 9 17 27
16 42 -2 19 -9 26 -30 29 -21 3 -30 -2 -39 -22z"/>
<path d="M2983 1168 c-13 -29 2 -65 30 -74 38 -12 54 66 18 86 -28 15 -37 13
-48 -12z"/>
<path d="M2943 1035 c-15 -11 -15 -17 -5 -39 6 -14 21 -27 32 -27 11 -1 25 -2
32 -3 16 -1 29 51 15 62 -22 17 -56 20 -74 7z"/>
<path d="M3248 906 c-9 -22 -8 -29 7 -46 27 -30 63 -26 71 7 9 34 -6 57 -39
61 -21 3 -30 -3 -39 -22z"/>
<path d="M3780 450 c0 -6 -6 -10 -13 -7 -18 7 -37 -26 -31 -51 5 -16 54 -51
54 -38 0 2 7 19 15 39 13 32 13 36 -5 52 -13 12 -20 14 -20 5z"/>
<path d="M2091 646 c-15 -18 2 -56 24 -56 20 0 45 28 45 51 0 14 -7 19 -29 19
-16 0 -34 -6 -40 -14z"/>
<path d="M2348 609 c-39 -22 -9 -80 36 -72 20 4 26 11 26 32 0 44 -27 61 -62
40z"/>
</g>
</svg>
