<?xml version="1.0" standalone="no"?>
<!DOCTYPE svg PUBLIC "-//W3C//DTD SVG 20010904//EN"
 "http://www.w3.org/TR/2001/REC-SVG-20010904/DTD/svg10.dtd">
<svg version="1.0" xmlns="http://www.w3.org/2000/svg"
 width="505.000000pt" height="409.000000pt" viewBox="0 0 505.000000 409.000000"
 preserveAspectRatio="xMidYMid meet">
<metadata>
Created by potrace 1.16, written by Peter Selinger 2001-2019
</metadata>
<g transform="translate(0.000000,409.000000) scale(0.100000,-0.100000)"
fill="#000000" stroke="none">
<path d="M3680 3413 c-8 -3 -17 -9 -20 -13 -3 -4 -50 -22 -105 -40 -55 -17
-109 -35 -120 -40 -66 -29 -255 -99 -285 -105 -19 -4 -39 -11 -45 -15 -5 -4
-134 -52 -285 -105 -151 -54 -297 -107 -325 -120 -33 -14 -63 -20 -87 -17 -24
3 -38 0 -38 -7 0 -6 -11 -11 -25 -11 -15 0 -25 -6 -25 -14 0 -8 -19 -21 -42
-29 -24 -9 -68 -25 -98 -36 -30 -10 -108 -36 -173 -57 -64 -20 -120 -41 -123
-45 -3 -5 -12 -9 -21 -9 -8 0 -27 -9 -43 -20 -15 -11 -29 -17 -32 -15 -4 5
-65 -19 -143 -55 -11 -5 -39 -14 -62 -21 -24 -7 -43 -16 -43 -21 0 -4 -7 -8
-15 -8 -8 0 -50 -18 -93 -40 -42 -21 -133 -60 -200 -86 -68 -25 -158 -64 -200
-85 -43 -21 -81 -39 -85 -39 -13 0 -41 -31 -44 -49 -2 -9 -3 -38 -2 -66 3 -72
1 -133 -7 -278 -8 -144 -2 -160 62 -170 39 -7 81 -46 116 -108 17 -30 19 -42
10 -51 -15 -15 -16 -58 -2 -58 6 0 10 -22 10 -50 0 -37 -4 -50 -15 -50 -7 0
-18 -6 -22 -13 -14 -23 -107 -75 -146 -82 -21 -4 -36 -10 -33 -12 3 -3 -1 -11
-8 -18 -11 -12 -12 -92 -1 -103 2 -2 0 -16 -5 -32 -12 -42 20 -90 60 -90 39 0
140 -42 140 -58 0 -20 -32 -50 -73 -67 -20 -8 -37 -20 -37 -26 0 -5 -4 -7 -10
-4 -6 4 -10 -8 -11 -27 0 -18 -2 -46 -3 -63 -2 -16 -6 -66 -10 -110 -3 -44 -9
-93 -11 -110 -2 -16 -7 -68 -10 -115 -3 -47 -8 -97 -11 -112 -3 -15 -7 -39 -9
-55 -2 -16 -4 -33 -5 -38 -7 -33 42 -87 78 -86 109 5 481 1 505 -5 18 -4 44
-9 60 -11 15 -1 39 -5 55 -7 56 -8 281 -25 407 -32 72 -4 150 -8 175 -9 82 -4
184 -16 215 -25 35 -10 93 -20 156 -25 24 -3 58 -6 74 -9 64 -8 328 -25 485
-31 91 -3 197 -8 235 -12 87 -9 414 -9 515 -1 41 4 89 12 105 18 20 8 61 9
123 5 64 -5 92 -4 92 4 0 6 6 11 14 11 13 0 18 17 32 105 3 22 11 70 18 107 7
37 13 106 14 153 1 48 6 115 11 149 5 33 9 68 9 76 0 15 9 76 19 120 2 14 5
34 4 45 0 10 4 24 8 30 8 10 19 64 27 135 2 19 9 58 14 85 5 28 12 96 15 152
7 128 20 232 39 300 8 28 12 54 9 57 -3 2 0 20 6 38 6 18 15 69 21 113 6 44
12 89 14 100 2 11 7 43 11 70 19 141 23 158 50 236 15 41 22 80 19 100 -6 48
-7 109 -1 115 12 13 -58 234 -95 299 -7 11 -22 40 -34 65 -13 25 -36 59 -51
75 -16 17 -44 56 -62 88 -18 31 -36 57 -39 57 -4 0 -20 21 -37 48 -16 26 -48
67 -71 92 -23 25 -53 56 -66 70 -26 28 -83 70 -95 70 -4 0 -23 14 -40 30 -18
17 -36 31 -40 31 -15 0 -111 49 -115 58 -4 11 -59 21 -78 14z m81 -151 c42
-16 86 -39 97 -50 12 -12 26 -22 32 -22 15 0 148 -138 183 -190 16 -25 42 -56
56 -70 14 -14 35 -38 45 -55 11 -16 23 -34 28 -40 5 -5 20 -23 33 -40 14 -16
25 -40 25 -52 0 -12 8 -26 18 -32 9 -5 16 -13 16 -18 -1 -4 7 -25 18 -47 25
-48 67 -171 74 -211 8 -55 10 -115 4 -115 -3 0 -7 -14 -8 -32 -2 -18 -5 -34
-7 -37 -3 -2 -30 -6 -61 -8 -31 -2 -59 -5 -64 -8 -11 -7 -251 -7 -345 0 -44 3
-129 8 -190 10 -60 3 -141 7 -180 9 -38 3 -90 1 -114 -4 -26 -5 -99 -2 -185 6
-100 10 -155 11 -191 4 -74 -15 -530 -16 -850 -1 -154 6 -356 13 -450 15 -93
2 -215 7 -270 11 -120 9 -124 9 -250 6 -55 -1 -120 -2 -145 -1 l-45 1 80 41
c44 22 123 55 175 73 52 18 129 48 170 67 129 60 242 108 385 163 182 71 217
83 252 90 21 4 49 13 63 21 14 7 77 30 140 49 63 20 124 40 135 45 57 25 263
103 360 135 61 20 119 41 130 46 63 28 128 49 136 44 5 -4 9 -3 9 2 0 4 28 16
63 27 34 10 87 29 117 41 30 13 66 26 80 30 14 4 30 11 35 15 6 4 57 22 115
40 58 17 119 37 135 45 17 7 39 15 50 18 11 3 20 5 20 6 0 0 34 -12 76 -27z
m-2266 -1038 c94 -3 186 -8 205 -12 19 -4 76 -5 125 -2 50 3 117 2 150 -3 119
-16 621 -23 965 -12 251 7 258 7 367 -4 54 -5 125 -7 158 -3 33 4 110 4 170 0
340 -22 396 -23 583 -15 82 4 140 2 137 -3 -3 -5 -1 -11 5 -15 7 -4 7 -12 0
-25 -6 -10 -17 -74 -26 -142 -8 -68 -19 -139 -24 -158 -5 -19 -12 -68 -15
-108 -3 -40 -10 -85 -16 -99 -5 -14 -8 -28 -5 -30 2 -2 -3 -25 -11 -51 -8 -26
-16 -99 -19 -162 -4 -100 -8 -165 -20 -270 -2 -14 -10 -59 -19 -100 -8 -41
-17 -84 -19 -95 -2 -11 -7 -27 -10 -35 -12 -31 -52 -357 -51 -410 1 -30 -2
-62 -7 -71 -4 -9 -10 -41 -13 -70 -3 -29 -9 -57 -14 -62 -5 -5 -7 -15 -5 -22
4 -10 -8 -13 -45 -13 -28 -1 -59 -6 -70 -11 -11 -6 -57 -14 -103 -17 -45 -3
-86 -8 -90 -11 -15 -9 -352 -4 -538 7 -102 7 -241 13 -310 15 -69 1 -154 6
-190 10 -36 4 -78 8 -95 10 -93 8 -172 17 -265 30 -58 8 -136 17 -175 20 -38
3 -88 8 -110 11 -22 2 -132 9 -245 15 -113 5 -230 14 -260 19 -127 22 -194 28
-360 35 -96 5 -190 8 -208 8 l-34 0 7 111 c3 61 8 134 11 161 2 28 6 73 9 100
13 144 15 149 44 166 16 9 43 38 62 65 18 27 37 52 42 55 6 4 7 29 4 55 -4 38
-12 55 -36 76 -17 15 -38 28 -46 28 -8 0 -15 4 -15 10 0 5 -18 13 -40 16 -22
4 -40 10 -40 15 0 5 -7 6 -15 3 -11 -5 -14 1 -12 24 2 25 9 32 50 48 89 34
173 157 182 264 4 58 -17 152 -42 181 -7 8 -13 20 -13 25 0 23 -91 112 -120
117 -26 6 -30 11 -32 39 -2 51 0 85 13 191 l11 97 62 1 c33 0 84 4 111 8 28 5
70 7 95 5 25 -2 122 -6 215 -10z"/>
<path d="M3128 2064 c-4 -3 -32 -7 -62 -9 -31 -2 -62 -8 -69 -13 -7 -6 -29 -9
-50 -8 -20 2 -37 -1 -37 -6 0 -5 -22 -19 -50 -32 -27 -13 -47 -25 -45 -28 3
-2 -15 -19 -39 -36 -29 -21 -47 -42 -51 -62 -4 -17 -10 -30 -14 -30 -5 0 -8
-8 -7 -17 0 -10 -3 -50 -7 -89 -6 -64 -4 -75 19 -123 15 -30 48 -71 79 -97
154 -133 366 -163 500 -71 48 34 125 118 132 146 3 14 15 44 24 67 10 22 21
72 25 110 6 63 4 76 -24 141 -36 84 -82 134 -138 151 -42 12 -176 17 -186 6z
m-111 -142 c4 -9 10 -19 13 -22 31 -23 25 -174 -8 -209 -9 -10 -25 -32 -34
-49 -10 -19 -28 -34 -45 -38 -15 -4 -33 -14 -39 -22 -9 -13 -14 -13 -36 2 -50
33 -90 140 -67 181 3 6 5 24 5 40 -1 40 72 115 112 115 15 0 32 4 39 8 22 14
54 11 60 -6z m124 -219 c-12 -20 -14 -14 -5 12 4 9 9 14 11 11 3 -2 0 -13 -6
-23z"/>
<path d="M2015 1528 c-86 -22 -122 -41 -183 -97 -35 -32 -89 -70 -121 -85 -41
-20 -61 -36 -71 -59 -8 -18 -22 -41 -32 -51 -22 -24 -42 -119 -34 -160 3 -17
12 -53 19 -79 19 -69 130 -217 163 -217 6 0 26 -10 45 -23 19 -12 45 -23 58
-24 13 -1 27 -7 31 -13 10 -16 193 -18 212 -3 8 7 37 16 64 19 44 6 113 43
152 81 7 7 21 18 31 25 11 8 40 58 66 113 26 55 51 108 57 119 5 10 12 44 14
75 2 31 7 74 10 96 8 52 -27 144 -73 196 -33 36 -96 76 -138 86 -41 10 -231
10 -270 1z m197 -136 c9 -101 -69 -274 -130 -289 -15 -3 -38 -14 -51 -25 -13
-10 -30 -18 -37 -18 -8 0 -14 -3 -14 -7 0 -5 -11 -9 -25 -9 -14 -1 -41 -9 -61
-19 -60 -28 -102 -31 -127 -7 -21 19 -25 20 -50 7 -25 -13 -27 -12 -27 6 0 11
-5 29 -10 40 -6 11 -8 40 -4 68 8 61 59 124 124 154 25 11 47 23 50 27 3 3 17
11 33 17 15 7 27 18 27 24 0 18 31 49 48 49 7 0 28 7 45 15 37 16 81 21 154
17 l51 -4 4 -46z m-102 -392 c0 -5 -5 -10 -11 -10 -5 0 -7 5 -4 10 3 6 8 10
11 10 2 0 4 -4 4 -10z m-295 -111 c11 -17 0 -20 -21 -4 -17 13 -17 14 -2 15 9
0 20 -5 23 -11z m380 -39 c-3 -5 -11 -10 -16 -10 -6 0 -7 5 -4 10 3 6 11 10
16 10 6 0 7 -4 4 -10z"/>
<path d="M3609 1056 c-3 -3 -21 -8 -39 -10 -63 -9 -164 -55 -188 -85 -7 -9
-24 -37 -37 -63 -55 -105 -55 -216 -1 -273 17 -18 38 -42 46 -54 34 -49 88
-81 162 -95 42 -8 81 -10 93 -5 11 4 36 10 55 13 49 8 147 74 155 103 3 13 13
31 23 41 9 10 18 27 20 37 2 11 12 47 23 80 20 60 19 155 -1 155 -5 0 -11 9
-15 19 -11 35 -93 110 -133 120 -47 13 -156 24 -163 17z m101 -106 c0 -5 -2
-10 -4 -10 -3 0 -8 5 -11 10 -3 6 -1 10 4 10 6 0 11 -4 11 -10z m-129 -21 c12
-23 11 -25 -33 -114 -44 -89 -62 -115 -90 -124 -33 -12 -43 -1 -53 56 -5 35
-2 52 20 96 25 53 69 102 83 94 4 -3 16 -1 27 4 30 12 33 11 46 -12z"/>
</g>
</svg>
