<?xml version="1.0" standalone="no"?>
<!DOCTYPE svg PUBLIC "-//W3C//DTD SVG 20010904//EN"
 "http://www.w3.org/TR/2001/REC-SVG-20010904/DTD/svg10.dtd">
<svg version="1.0" xmlns="http://www.w3.org/2000/svg"
 width="355.000000pt" height="329.000000pt" viewBox="0 0 355.000000 329.000000"
 preserveAspectRatio="xMidYMid meet">
<metadata>
Created by potrace 1.16, written by Peter Selinger 2001-2019
</metadata>
<g transform="translate(0.000000,329.000000) scale(0.100000,-0.100000)"
fill="#000000" stroke="none">
<path d="M1919 3096 c-2 -3 -49 -6 -104 -7 -54 -1 -124 -8 -155 -16 -30 -7
-64 -15 -75 -18 -33 -8 -128 -26 -161 -30 -69 -10 -294 -91 -294 -107 0 -4 -5
-8 -11 -8 -7 0 -34 -13 -60 -30 -27 -16 -49 -27 -49 -24 0 4 -15 -5 -32 -18
-18 -14 -55 -37 -83 -53 -27 -16 -82 -57 -121 -92 -40 -35 -75 -63 -78 -63
-15 0 -139 -142 -162 -186 -14 -27 -37 -64 -50 -82 -14 -17 -32 -62 -40 -100
-67 -293 -60 -507 21 -732 26 -72 27 -84 31 -325 5 -288 5 -259 -1 -310 -7
-63 -24 -314 -26 -380 0 -33 4 -73 10 -88 6 -15 10 -31 10 -35 -3 -21 6 -33
59 -73 97 -76 236 -149 283 -149 9 0 30 -7 47 -16 33 -16 66 -23 137 -29 22
-1 40 -3 40 -4 0 -1 44 -4 98 -7 108 -6 214 8 263 34 17 9 57 30 90 47 32 16
62 34 66 39 4 6 10 7 14 3 8 -8 41 28 49 54 4 11 10 19 15 19 5 0 30 27 56 61
25 33 57 72 70 86 24 25 44 24 44 -4 0 -15 29 -62 59 -95 53 -59 55 -60 96
-54 22 3 76 7 120 9 81 4 184 26 243 53 84 37 99 43 128 49 18 3 40 15 50 26
9 10 24 19 32 19 7 0 26 8 40 19 15 10 32 20 39 22 47 15 353 331 353 364 0 3
11 21 24 38 25 33 66 203 72 298 1 25 9 70 18 100 9 30 15 63 15 74 -1 11 2
56 6 100 4 44 7 89 7 100 -1 11 6 45 14 75 9 30 16 87 16 125 0 39 5 76 10 83
6 6 8 12 5 12 -3 0 5 24 18 54 13 30 26 76 28 103 3 26 10 79 17 117 14 76 8
172 -14 214 -7 15 -16 44 -20 66 -4 21 -11 46 -16 55 -5 9 -19 38 -31 64 -14
29 -31 49 -43 52 -34 8 -86 1 -86 -12 0 -17 -79 -38 -93 -24 -6 6 -11 48 -12
93 -1 63 -6 93 -22 123 -21 40 -65 85 -83 85 -10 0 -32 9 -143 60 -74 33 -212
80 -238 80 -9 0 -29 7 -45 15 -16 8 -76 21 -134 30 -58 9 -112 20 -122 25 -9
5 -49 12 -89 15 -40 3 -82 8 -94 11 -11 3 -23 3 -26 0z m145 -121 c54 -8 124
-24 155 -34 31 -11 112 -36 181 -56 69 -20 150 -46 180 -57 30 -10 60 -20 65
-21 23 -5 75 -30 75 -36 0 -3 -27 -35 -60 -69 -33 -35 -63 -74 -66 -88 -3 -13
-10 -24 -14 -24 -4 0 -13 -13 -20 -29 -6 -16 -21 -38 -31 -47 -11 -10 -27 -33
-36 -52 -9 -18 -34 -52 -55 -75 -68 -73 -132 -149 -149 -176 -9 -14 -69 -80
-134 -146 -64 -66 -141 -155 -171 -197 -30 -43 -60 -80 -65 -84 -6 -3 -19 -19
-28 -35 -10 -16 -44 -56 -75 -88 -31 -33 -56 -63 -56 -68 0 -6 -21 -31 -47
-56 -27 -26 -64 -65 -83 -87 -19 -22 -52 -50 -72 -62 -21 -12 -38 -25 -38 -30
0 -4 -6 -8 -14 -8 -7 0 -31 -8 -52 -17 -22 -10 -50 -18 -64 -19 -14 -1 -68 -5
-120 -9 -52 -4 -102 -8 -110 -8 -32 0 -203 34 -233 47 -18 7 -57 19 -87 26
-68 16 -166 65 -202 102 -29 29 -68 106 -68 135 0 11 -4 23 -9 29 -23 23 -51
190 -52 298 0 152 23 235 94 340 30 45 66 101 82 126 15 25 49 70 75 100 26
30 55 67 65 82 37 58 332 244 455 288 19 6 44 15 55 20 92 34 125 43 160 41
23 -1 60 5 83 13 23 8 42 13 42 10 0 -2 9 0 19 6 11 5 38 12 60 15 21 3 49 8
60 13 29 10 189 4 305 -13z m738 -377 c7 -89 0 -100 -73 -125 -35 -12 -73 -23
-83 -23 -17 0 -16 4 10 29 16 16 52 61 79 100 28 39 53 71 57 71 3 0 8 -24 10
-52z m269 -151 c23 -41 40 -377 19 -377 -3 0 -6 -9 -7 -19 -4 -45 -24 -135
-32 -140 -4 -3 -14 -24 -21 -45 -13 -42 -109 -146 -134 -146 -8 0 -17 -8 -21
-19 -6 -20 -39 -40 -200 -120 -190 -94 -248 -117 -381 -146 -39 -8 -81 -18
-95 -21 -53 -13 -131 -13 -144 -1 -16 16 -32 69 -40 132 -4 28 -13 71 -22 97
l-15 47 59 72 c32 39 72 90 89 113 17 23 53 64 79 91 157 165 225 241 225 254
0 5 3 11 8 13 4 2 22 22 40 46 19 23 42 42 51 42 31 0 230 56 366 102 138 47
162 51 176 25z m-51 -819 c-5 -25 -10 -66 -11 -90 -2 -62 -24 -213 -69 -477
-11 -64 -31 -113 -57 -141 -18 -20 -63 -89 -63 -98 0 -9 -73 -57 -82 -54 -5 1
-8 -2 -8 -8 0 -13 -88 -98 -95 -92 -3 3 -5 0 -5 -6 0 -7 -5 -12 -10 -12 -6 0
-28 -11 -50 -25 -33 -21 -88 -45 -135 -59 -5 -2 -26 -10 -45 -18 -19 -9 -73
-26 -120 -38 -47 -12 -99 -28 -117 -36 -17 -8 -35 -14 -40 -14 -5 0 -26 -9
-48 -20 -52 -26 -61 -25 -62 8 -4 119 -3 323 1 347 2 17 9 59 14 95 6 36 15
86 21 113 6 26 13 62 16 80 14 85 17 105 22 149 6 53 9 55 108 74 88 16 156
31 220 49 28 8 63 17 79 20 17 4 43 15 58 27 16 11 35 17 43 14 8 -3 15 -1 15
4 0 5 30 23 68 41 154 72 229 113 265 146 21 19 49 39 63 45 13 6 24 16 24 21
0 6 2 8 4 6 2 -2 0 -25 -4 -51z m-1115 -48 c-4 -6 -9 -65 -11 -133 -3 -67 -9
-136 -15 -153 -5 -18 -12 -60 -14 -93 -3 -34 -10 -71 -16 -82 -6 -13 -10 -71
-9 -147 1 -91 -3 -145 -15 -192 -9 -36 -17 -82 -17 -102 0 -22 -5 -38 -12 -38
-6 0 -18 -10 -26 -21 -16 -22 -46 -61 -115 -147 -22 -27 -44 -57 -50 -66 -12
-21 -13 236 -1 324 4 30 8 66 8 80 0 14 4 41 9 60 19 86 37 241 40 360 2 82
19 124 66 170 15 15 46 46 67 69 22 22 43 41 48 41 4 0 8 5 8 10 0 15 42 70
52 70 5 0 6 -5 3 -10z m69 -142 c3 -13 6 -35 6 -50 0 -15 4 -29 9 -32 27 -17
29 -216 2 -321 -43 -170 -54 -244 -56 -395 -2 -141 -2 -139 -20 -112 -9 12
-18 35 -20 52 -2 16 -7 35 -11 42 -10 16 -5 104 8 137 5 14 10 93 10 175 0 97
5 166 14 195 7 24 11 47 9 51 -2 3 3 38 10 78 8 39 15 101 16 137 2 66 12 84
23 43z m-1294 -162 c30 -14 61 -26 68 -26 8 0 28 -6 45 -14 18 -8 75 -23 127
-34 109 -23 343 -25 440 -3 30 6 70 14 89 17 19 2 38 7 42 10 5 3 19 7 31 9
13 3 35 7 49 10 25 6 27 4 32 -41 2 -25 1 -60 -3 -78 -5 -17 -11 -53 -15 -81
-13 -104 -25 -183 -40 -275 -9 -52 -15 -129 -14 -170 2 -91 1 -138 -5 -165 -2
-11 -5 -39 -5 -62 -1 -42 -2 -43 -63 -72 -103 -48 -337 -95 -370 -75 -7 5 -38
9 -68 11 -51 1 -81 11 -241 72 -31 12 -68 32 -81 44 -13 12 -37 28 -52 35
l-29 13 7 72 c8 77 8 276 0 288 -8 14 -15 564 -7 552 5 -6 33 -23 63 -37z"/>
<path d="M1981 2801 c-6 -10 -19 -58 -30 -106 -10 -47 -22 -89 -25 -92 -14
-15 -14 7 1 71 13 57 13 70 2 77 -37 24 -46 6 -66 -124 -4 -27 -12 -41 -27
-47 -11 -4 -35 -23 -53 -42 -74 -78 -68 -168 12 -168 42 0 137 49 133 69 -4
21 -45 26 -66 9 -16 -14 -72 -23 -72 -13 0 17 30 72 46 86 25 21 63 30 84 19
24 -13 35 -1 50 53 7 26 16 47 21 47 4 0 7 8 7 18 -1 9 6 38 16 64 20 51 15
98 -9 98 -8 0 -19 -8 -24 -19z"/>
<path d="M1696 2750 c-22 -11 -45 -20 -51 -20 -20 0 -41 -49 -28 -68 15 -25
28 -22 98 28 95 66 80 109 -19 60z"/>
<path d="M2453 2756 c-10 -6 -22 -11 -28 -11 -5 -1 -19 -5 -30 -9 -11 -4 -26
-10 -32 -12 -19 -5 -16 -44 3 -51 9 -3 36 -1 60 4 23 6 47 6 51 2 4 -4 18 0
30 9 46 36 -2 98 -54 68z"/>
<path d="M1327 2642 c-10 -10 -17 -33 -17 -50 0 -17 -4 -33 -8 -36 -9 -5 -37
-140 -35 -166 4 -57 26 -95 50 -85 8 2 22 1 31 -4 12 -6 28 -4 50 8 30 15 31
18 17 38 -8 11 -31 24 -51 27 -33 7 -36 10 -31 34 15 71 23 89 59 125 62 63
49 127 -25 127 -13 0 -31 -8 -40 -18z"/>
<path d="M1178 2611 c-13 -24 -22 -29 -47 -27 -17 1 -43 12 -58 24 -15 12 -30
22 -34 22 -17 0 -30 -34 -44 -112 -8 -47 -19 -96 -23 -109 -12 -30 5 -69 29
-69 19 0 24 12 34 80 9 64 27 110 39 103 5 -4 27 -6 47 -4 l37 2 -10 -43 c-25
-108 -26 -138 -7 -148 26 -15 39 -12 39 8 0 9 14 77 32 150 27 114 30 135 18
143 -24 14 -34 11 -52 -20z"/>
<path d="M1587 2613 c-4 -3 -17 -7 -30 -9 -12 -1 -25 -3 -29 -3 -3 -1 -10 -16
-13 -33 -4 -18 -16 -51 -25 -73 -26 -57 -33 -101 -20 -125 19 -35 50 -40 139
-23 75 15 81 18 81 41 0 24 0 24 -85 19 -47 -3 -85 -2 -84 2 3 32 20 46 70 58
30 6 68 12 84 13 17 0 41 7 53 16 19 13 21 18 10 31 -9 11 -29 14 -84 11 -85
-4 -89 6 -7 18 73 10 65 8 87 21 12 6 17 17 13 27 -5 13 -21 16 -80 16 -41 0
-77 -3 -80 -7z"/>
<path d="M2269 2573 c-10 -23 -19 -48 -19 -55 0 -7 -9 -31 -21 -52 -11 -21
-21 -57 -22 -80 -2 -34 1 -41 17 -41 12 0 23 13 34 40 8 22 16 41 18 43 1 2
18 0 39 -4 33 -6 36 -9 33 -38 -2 -25 1 -31 17 -31 32 0 59 67 59 151 1 94
-15 114 -86 111 -48 -2 -50 -3 -69 -44z m95 -45 c9 -35 8 -38 -17 -38 -33 0
-38 9 -20 36 19 30 29 30 37 2z"/>
<path d="M2171 2584 c-12 -15 -26 -43 -31 -63 -18 -62 -32 -80 -57 -70 -26 10
-38 42 -24 68 16 29 13 48 -6 56 -12 4 -24 -1 -35 -14 -9 -12 -21 -21 -27 -21
-6 0 -11 -17 -11 -38 0 -21 -6 -46 -13 -57 -8 -11 -19 -39 -25 -63 -9 -36 -8
-44 5 -49 23 -9 46 10 55 45 5 18 10 32 12 32 1 0 20 -9 42 -19 33 -16 43 -17
69 -7 25 10 34 24 56 89 15 43 32 84 39 92 10 12 10 18 0 30 -17 21 -25 19
-49 -11z"/>
<path d="M1463 2228 c-5 -7 -18 -44 -28 -81 -10 -38 -24 -71 -31 -74 -28 -11
-33 3 -15 42 20 44 13 85 -13 85 -19 0 -32 -24 -40 -74 -9 -53 -14 -58 -51
-54 -24 3 -36 -1 -44 -15 -17 -26 8 -47 65 -55 l45 -7 -67 -45 c-37 -25 -71
-47 -75 -50 -3 -3 -9 -14 -13 -26 -16 -53 77 -85 175 -59 27 7 49 10 49 7 0
-4 5 0 10 8 15 24 12 44 -10 58 -16 10 -27 9 -56 -3 -20 -8 -50 -15 -67 -15
-29 0 -27 2 32 37 94 56 125 91 143 159 9 33 21 73 28 90 22 53 -7 110 -37 72z"/>
<path d="M1215 2210 c-55 -13 -165 -68 -165 -84 0 -33 47 -31 126 4 23 10 49
17 60 16 22 -3 59 28 50 43 -13 20 -41 28 -71 21z"/>
<path d="M790 2078 c-10 -13 -20 -27 -21 -33 0 -5 -10 -32 -21 -60 -24 -63
-33 -191 -12 -199 23 -9 44 23 44 66 l0 40 30 -26 c40 -33 106 -52 126 -35 16
13 15 54 -1 54 -29 1 -64 17 -69 31 -4 10 3 23 20 36 43 34 48 63 19 108 -22
34 -30 40 -60 40 -24 0 -41 -7 -55 -22z m65 -58 c0 -8 -10 -16 -22 -18 -25 -4
-26 -2 -17 23 8 19 39 16 39 -5z"/>
<path d="M971 2072 c-18 -34 16 -112 49 -112 15 0 17 -6 13 -42 -3 -24 -9 -58
-15 -76 -7 -24 -6 -37 2 -47 20 -25 49 -18 56 13 4 15 9 31 12 36 2 4 6 29 8
54 4 48 26 82 54 82 23 0 44 43 36 74 -8 34 -26 33 -58 -4 -20 -23 -35 -30
-61 -30 -33 0 -36 3 -39 33 -2 24 -8 33 -25 35 -13 2 -26 -4 -32 -16z"/>
<path d="M1680 2068 c-14 -6 -56 -13 -95 -17 l-70 -6 -7 -67 c-3 -37 -16 -95
-27 -127 -32 -94 -16 -108 79 -71 28 11 71 20 95 20 43 0 45 1 45 30 0 50 -31
57 -117 27 -30 -10 -43 -11 -43 -3 1 26 19 35 80 41 54 5 95 16 119 32 2 2 -8
14 -24 29 -18 17 -33 23 -44 18 -27 -12 -101 -17 -101 -6 0 12 164 43 168 31
2 -5 12 0 22 9 20 19 18 62 -4 62 -6 0 -20 2 -31 5 -11 2 -31 -1 -45 -7z"/>
</g>
</svg>
