<?xml version="1.0" standalone="no"?>
<!DOCTYPE svg PUBLIC "-//W3C//DTD SVG 20010904//EN"
 "http://www.w3.org/TR/2001/REC-SVG-20010904/DTD/svg10.dtd">
<svg version="1.0" xmlns="http://www.w3.org/2000/svg"
 width="465.000000pt" height="311.000000pt" viewBox="0 0 465.000000 311.000000"
 preserveAspectRatio="xMidYMid meet">
<metadata>
Created by potrace 1.16, written by Peter Selinger 2001-2019
</metadata>
<g transform="translate(0.000000,311.000000) scale(0.100000,-0.100000)"
fill="#000000" stroke="none">
<path d="M2965 2888 c-229 -9 -287 -10 -300 -8 -5 1 -13 2 -17 1 -4 0 -176 -3
-382 -5 -206 -2 -379 -7 -384 -10 -6 -3 -72 -8 -148 -11 -77 -3 -157 -7 -179
-10 -22 -2 -74 -6 -115 -9 -46 -3 -91 -13 -117 -25 -23 -12 -46 -21 -50 -21
-7 0 -38 -26 -98 -80 -5 -4 -23 -25 -40 -44 -16 -20 -43 -48 -60 -63 -64 -60
-125 -125 -125 -134 0 -14 -106 -173 -130 -194 -11 -10 -20 -24 -20 -31 0 -7
-48 -62 -108 -122 -59 -61 -117 -122 -128 -135 -22 -25 -94 -143 -94 -154 0
-4 -11 -18 -24 -32 -49 -53 -70 -172 -46 -260 10 -37 40 -81 55 -81 5 0 22
-10 39 -23 33 -25 111 -57 138 -57 8 0 18 -9 21 -19 6 -24 0 -274 -8 -321 -5
-31 -17 -485 -16 -595 1 -50 16 -89 55 -140 40 -52 52 -62 106 -87 25 -11 58
-32 74 -45 25 -21 39 -24 95 -23 36 1 68 1 71 0 3 0 70 -3 150 -5 80 -3 210
-8 290 -11 80 -3 280 -7 445 -10 165 -2 307 -4 315 -4 8 0 85 0 170 1 107 2
168 -2 195 -11 29 -10 103 -13 260 -13 l220 0 87 32 c47 17 96 31 108 31 19 0
49 12 115 47 11 5 42 21 69 34 55 27 96 72 115 126 8 21 26 49 40 63 44 43
105 113 136 155 16 22 42 54 58 70 16 17 41 48 55 70 15 22 37 51 50 65 12 14
22 28 22 31 0 3 10 17 23 31 37 42 51 62 67 92 30 58 35 66 42 66 5 0 8 6 8
14 0 8 7 21 15 29 8 8 33 51 56 96 22 44 45 81 49 81 14 0 32 86 39 191 8 112
6 184 -6 294 -4 39 -7 151 -6 250 3 201 17 288 56 334 45 54 85 152 92 229 4
40 12 75 16 78 15 9 10 33 -11 51 -11 10 -20 21 -20 26 0 13 -31 41 -85 77
-27 19 -52 36 -55 40 -10 12 -189 51 -257 55 -37 3 -140 8 -228 11 -88 3 -171
7 -185 9 -30 5 -220 16 -315 18 -38 1 -155 -1 -260 -5z m485 -133 c102 -3 205
-6 230 -8 104 -10 221 -18 310 -22 132 -6 190 -17 190 -35 0 -5 14 -11 30 -15
17 -4 30 -13 30 -21 0 -8 5 -14 11 -14 7 0 10 -11 7 -27 -3 -16 -2 -41 2 -58
8 -40 -13 -89 -54 -126 -18 -16 -46 -53 -62 -83 -16 -31 -39 -61 -51 -67 -13
-7 -23 -17 -24 -23 -3 -45 -9 -58 -30 -79 -106 -104 -162 -174 -190 -235 -16
-37 -31 -69 -31 -72 -1 -3 -9 -13 -17 -22 -9 -9 -32 -42 -51 -74 -19 -31 -54
-76 -77 -99 -24 -23 -43 -47 -43 -53 0 -7 -4 -12 -9 -12 -5 0 -15 -13 -23 -30
-16 -33 -81 -88 -112 -95 -12 -3 -61 -7 -111 -8 -49 -2 -101 -8 -115 -14 -41
-18 -396 -47 -520 -43 -120 3 -128 3 -250 2 -41 -1 -172 1 -290 3 -118 2 -438
6 -710 9 -477 4 -625 13 -669 40 -7 5 -54 10 -104 13 -51 3 -97 10 -104 15 -7
5 -31 19 -55 31 -24 13 -45 30 -47 42 -3 15 0 17 10 9 9 -7 78 -12 179 -13 91
-1 215 -3 275 -6 249 -11 349 -17 356 -20 14 -9 1365 -3 1374 6 3 4 21 3 40
-1 19 -4 87 -9 152 -11 159 -4 165 -3 268 6 97 8 109 8 170 0 92 -13 128 -9
144 15 8 12 40 53 72 90 31 37 67 88 79 113 13 25 42 65 66 88 24 24 44 48 44
54 0 5 11 22 25 37 13 14 39 55 57 90 18 35 35 65 38 68 3 3 11 18 18 33 7 16
31 45 53 65 22 20 60 66 85 102 24 36 69 92 100 125 67 72 94 121 91 166 -3
48 -14 61 -46 56 -16 -3 -79 4 -142 14 -63 11 -145 21 -184 24 -38 3 -108 8
-155 11 -84 6 -149 6 -405 -1 -71 -1 -368 -6 -660 -9 -291 -3 -568 -11 -615
-17 -96 -11 -291 -14 -362 -4 -35 5 -48 3 -48 -5 0 -10 -3 -10 -15 0 -8 7 -15
10 -15 7 0 -3 -15 -1 -32 4 -18 6 -66 12 -105 13 -75 3 -93 -3 -132 -47 -9
-11 -30 -33 -46 -50 -17 -18 -42 -48 -55 -67 -23 -32 -88 -100 -97 -100 -2 0
3 14 12 30 9 17 20 30 26 30 6 0 8 4 5 9 -3 5 8 24 25 42 70 78 124 129 140
134 9 3 19 12 22 19 14 37 151 56 372 54 321 -4 464 -2 600 6 414 24 526 25
1155 11z m214 -120 c132 -7 216 -14 306 -27 41 -5 94 -12 118 -15 l43 -5 -6
-36 c-3 -20 -12 -40 -20 -45 -8 -4 -15 -13 -15 -18 0 -6 -15 -27 -34 -47 -54
-57 -86 -96 -86 -104 0 -9 -13 -24 -83 -98 -30 -32 -70 -91 -95 -140 -43 -86
-64 -117 -116 -174 -54 -58 -96 -113 -96 -123 0 -23 -30 -65 -90 -127 l-63
-65 -83 3 c-46 2 -86 0 -89 -4 -3 -5 -19 -4 -37 2 -23 8 -40 8 -64 -1 -18 -6
-47 -12 -66 -11 -18 0 -58 0 -88 0 -30 0 -125 1 -210 2 -192 1 -252 1 -615 -2
-630 -6 -750 -4 -1015 16 -25 2 -144 6 -265 10 -121 3 -236 9 -255 13 l-35 7
22 19 c13 11 23 27 23 36 0 24 237 334 325 425 17 17 46 59 65 93 30 53 122
186 139 201 4 3 26 29 50 58 25 30 64 73 88 97 l43 43 83 -4 c45 -2 116 -7
157 -11 98 -8 208 -6 347 8 62 5 348 12 635 14 584 5 928 12 936 20 3 2 14 3
26 0 12 -2 66 -6 120 -10z m-2574 -233 c0 -5 -8 -17 -19 -28 -10 -11 -31 -42
-46 -70 -15 -27 -33 -56 -41 -65 -8 -8 -14 -20 -14 -26 0 -6 -26 -37 -58 -69
-32 -33 -65 -70 -74 -84 -8 -14 -41 -53 -72 -88 -31 -35 -69 -82 -83 -105 -14
-23 -32 -46 -39 -50 -8 -4 -14 -14 -14 -22 0 -8 -12 -27 -28 -43 -32 -35 -52
-67 -52 -86 0 -16 -28 -42 -36 -33 -3 3 5 27 19 54 15 26 35 67 46 89 11 23
26 50 35 60 8 11 37 46 63 79 56 71 69 85 144 162 31 32 66 76 79 98 13 22 26
42 29 45 4 3 11 14 18 25 6 11 16 19 22 18 6 -2 11 4 11 13 0 8 14 29 30 46
17 16 30 32 30 34 0 3 7 16 16 29 16 24 34 33 34 17z m2996 -396 c-1 -35 6
-110 17 -167 21 -121 27 -269 15 -423 -8 -99 -12 -115 -50 -187 -22 -43 -47
-84 -54 -90 -8 -6 -14 -18 -14 -25 0 -8 -4 -14 -8 -14 -5 0 -17 -17 -28 -37
-10 -20 -26 -45 -34 -54 -33 -38 -40 -49 -40 -57 0 -9 -107 -163 -120 -172 -9
-7 -109 -127 -142 -172 -15 -20 -60 -67 -100 -105 -40 -37 -93 -90 -120 -117
l-47 -49 1 87 c0 47 3 88 7 90 3 2 2 64 -2 138 -4 73 -8 138 -7 143 0 6 1 123
2 260 3 278 4 282 71 310 20 8 52 15 71 15 39 0 96 28 96 48 0 6 7 12 15 12 8
0 15 7 15 15 0 8 4 15 9 15 6 0 26 25 46 55 20 30 51 67 70 84 18 16 47 48 63
70 17 23 42 51 56 62 13 11 31 32 39 47 31 60 87 154 99 166 7 7 27 36 43 64
17 29 31 52 32 52 1 0 0 -29 -1 -64z m-3171 -682 c22 -3 56 -9 75 -13 29 -6
96 -5 265 1 44 1 283 -16 295 -22 19 -9 186 -3 265 10 126 20 361 8 480 -25
28 -7 82 -12 120 -11 39 1 80 -2 93 -6 44 -15 552 -9 601 7 13 4 46 11 75 15
28 5 67 13 88 18 l36 9 5 -51 c3 -28 4 -121 2 -206 -3 -180 -4 -271 -3 -430 1
-163 -8 -294 -22 -298 -8 -3 -8 -8 0 -17 13 -15 4 -23 -50 -43 -139 -52 -151
-54 -310 -54 -85 0 -198 3 -250 6 -52 3 -311 8 -575 10 -264 3 -505 8 -535 11
-30 4 -101 6 -158 5 -56 0 -107 2 -112 5 -9 6 -144 12 -297 14 -66 1 -86 5
-100 20 -10 10 -33 26 -50 35 -18 9 -33 21 -33 26 0 6 -9 10 -19 10 -11 0 -23
9 -26 20 -3 11 -10 20 -15 20 -11 0 -23 49 -22 95 1 22 4 94 7 160 3 66 5 143
4 170 -3 82 -3 105 4 205 9 121 13 201 15 269 l2 54 53 -7 c28 -4 70 -9 92
-12z"/>
<path d="M3310 2482 c-18 -8 -63 -46 -96 -82 -28 -29 -31 -76 -6 -106 35 -42
88 -72 139 -79 46 -6 53 -4 63 15 6 11 8 30 5 42 -6 18 -12 20 -55 14 -43 -6
-50 -4 -79 23 -38 36 -39 45 -3 81 37 36 95 52 171 45 49 -5 65 -11 94 -38 41
-38 57 -67 57 -101 0 -40 -43 -126 -88 -179 -39 -45 -177 -157 -193 -157 -4 0
-21 -13 -39 -30 -18 -16 -38 -30 -46 -30 -8 0 -14 -3 -14 -7 0 -18 -96 -67
-134 -70 -23 -1 -59 -7 -80 -12 -21 -5 -71 -12 -110 -15 -90 -7 -276 -19 -296
-19 -86 1 -762 15 -885 18 -88 3 -189 9 -225 15 -36 5 -91 10 -122 10 -32 0
-58 2 -58 5 0 3 6 14 12 25 10 16 10 24 0 38 -7 9 -15 25 -18 34 -4 10 -16 20
-28 24 -28 9 -94 6 -117 -6 -12 -7 -22 -6 -31 3 -39 37 -131 38 -183 0 -41
-29 -49 -81 -17 -116 16 -18 24 -31 60 -97 20 -37 27 -41 50 -37 36 7 167 54
203 73 16 8 35 11 42 7 7 -4 44 -8 82 -10 39 -1 126 -7 195 -13 143 -13 254
-17 640 -25 151 -3 298 -6 325 -7 53 -2 385 12 445 18 19 2 53 6 75 8 49 4
152 40 175 61 9 8 20 15 25 15 5 0 15 7 24 15 43 39 101 85 146 115 86 57 183
166 223 251 23 47 29 120 13 161 -16 42 -89 106 -135 119 -36 10 -184 11 -206
1z m-2235 -611 c15 -45 28 -48 65 -18 31 27 82 43 100 32 21 -13 10 -45 -22
-61 -66 -34 -162 -63 -175 -52 -7 6 -10 14 -7 19 3 5 -2 9 -10 9 -9 0 -16 6
-16 14 0 7 -10 26 -22 41 -21 27 -21 28 -2 42 10 8 32 13 48 11 23 -2 32 -10
41 -37z"/>
<path d="M1490 2396 c-19 -75 -87 -190 -162 -273 -43 -48 -49 -78 -16 -89 18
-5 29 1 55 32 19 22 41 53 50 69 9 17 28 46 44 66 24 31 34 36 77 38 27 1 61
-3 75 -8 31 -12 77 3 77 25 0 28 -30 43 -86 43 -31 0 -60 3 -65 8 -20 20 11
33 92 39 69 5 88 4 100 -8 13 -14 19 -14 52 -1 45 18 50 48 10 64 -17 7 -69 9
-126 6 -77 -3 -99 -1 -106 10 -4 8 -20 16 -34 17 -24 3 -28 -1 -37 -38z"/>
<path d="M1911 2367 c-6 -6 -11 -20 -11 -32 0 -20 -37 -79 -63 -100 -16 -14
-47 -70 -47 -87 0 -7 -14 -26 -30 -42 -17 -16 -29 -31 -26 -33 3 -3 1 -15 -4
-28 -9 -23 3 -45 25 -45 16 0 55 35 55 48 0 6 11 24 25 40 13 16 26 42 29 58
3 16 10 30 16 32 5 2 10 9 10 16 0 9 9 12 24 9 44 -9 111 25 130 63 22 46 20
67 -6 91 -26 23 -108 29 -127 10z m79 -71 c0 -16 -7 -26 -22 -29 -30 -8 -32
-4 -7 26 25 33 29 33 29 3z"/>
<path d="M2681 2192 c-14 -26 9 -52 47 -52 24 -1 21 -4 -23 -27 -60 -31 -79
-50 -89 -87 -5 -22 -2 -34 15 -52 12 -13 25 -21 30 -19 4 3 10 1 14 -5 8 -13
76 -13 109 0 17 6 35 6 51 0 20 -8 27 -6 35 10 15 28 12 44 -10 68 -11 12 -20
29 -20 38 0 34 -23 94 -44 113 -12 11 -40 23 -63 27 -35 5 -43 3 -52 -14z m99
-158 c0 -18 -32 -34 -69 -34 -37 0 -46 12 -23 33 41 37 92 38 92 1z"/>
<path d="M2302 2126 c-32 -85 -38 -124 -17 -132 12 -5 33 9 71 47 l55 54 75 1
c85 1 108 14 93 52 -6 17 -16 22 -41 22 -30 0 -96 -13 -139 -26 -11 -3 -18 3
-22 16 -3 13 -13 20 -30 20 -20 0 -28 -9 -45 -54z"/>
<path d="M2105 2154 c-5 -1 -30 -5 -55 -8 -25 -4 -56 -15 -70 -26 -14 -11 -36
-28 -49 -38 -21 -16 -23 -22 -14 -48 13 -39 52 -56 131 -56 77 0 146 28 155
62 3 12 0 38 -7 57 -9 28 -21 39 -47 48 -19 7 -38 11 -44 9z m31 -77 c10 -9
-10 -24 -44 -33 -26 -7 -92 3 -92 15 0 22 117 38 136 18z"/>
<path d="M2745 1920 c-3 -5 -1 -10 4 -10 6 0 11 5 11 10 0 6 -2 10 -4 10 -3 0
-8 -4 -11 -10z"/>
</g>
</svg>
