<?xml version="1.0" standalone="no"?>
<!DOCTYPE svg PUBLIC "-//W3C//DTD SVG 20010904//EN"
 "http://www.w3.org/TR/2001/REC-SVG-20010904/DTD/svg10.dtd">
<svg version="1.0" xmlns="http://www.w3.org/2000/svg"
 width="475.000000pt" height="383.000000pt" viewBox="0 0 475.000000 383.000000"
 preserveAspectRatio="xMidYMid meet">
<metadata>
Created by potrace 1.16, written by Peter Selinger 2001-2019
</metadata>
<g transform="translate(0.000000,383.000000) scale(0.100000,-0.100000)"
fill="#000000" stroke="none">
<path d="M3449 3646 c-2 -2 -71 -7 -154 -10 -269 -10 -329 -20 -450 -71 -16
-7 -49 -15 -73 -19 -24 -4 -53 -13 -65 -20 -12 -7 -51 -19 -87 -26 -36 -7 -85
-24 -109 -37 -110 -61 -210 -162 -211 -215 -1 -12 -8 -41 -16 -63 -17 -45 -40
-135 -39 -150 10 -92 33 -185 46 -185 5 0 26 -19 48 -42 33 -35 39 -48 35 -73
-3 -16 -6 -39 -7 -50 -2 -11 -8 -30 -15 -42 -7 -12 -12 -30 -12 -40 0 -46 -90
-161 -171 -218 -16 -11 -28 -24 -27 -30 2 -5 -6 -23 -17 -39 -25 -38 -25 -33
-32 -246 -6 -204 -7 -345 0 -523 2 -65 1 -116 -2 -114 -3 1 -19 9 -36 17 -16
7 -62 28 -101 47 -38 18 -74 33 -78 33 -4 0 -32 12 -63 26 -44 21 -85 30 -192
41 -190 19 -177 13 -185 79 -3 31 -13 69 -21 84 -8 16 -15 38 -15 50 0 11 -9
33 -19 48 -11 15 -31 45 -45 67 -47 74 -88 130 -118 162 -17 17 -27 36 -24 42
9 13 -11 51 -26 51 -6 0 -19 6 -27 14 -9 8 -28 17 -43 20 -15 2 -33 8 -38 11
-17 11 -54 -2 -67 -24 -15 -23 1 -81 21 -81 23 0 48 -38 48 -74 0 -172 -73
-297 -252 -435 -25 -19 -64 -52 -87 -73 -24 -21 -49 -38 -56 -38 -64 0 -207
-102 -207 -147 0 -13 -5 -23 -11 -23 -14 0 -4 -111 11 -120 4 -3 12 -18 15
-33 7 -25 5 -27 -26 -29 -56 -3 -64 -4 -74 -9 -6 -4 -21 -9 -35 -12 -14 -4
-41 -20 -60 -37 -18 -16 -37 -30 -42 -30 -4 0 -8 -5 -8 -11 0 -6 -6 -17 -13
-24 -54 -61 -71 -107 -71 -190 -1 -117 45 -176 161 -210 44 -12 113 -20 138
-15 45 9 90 -3 79 -22 -4 -5 -3 -13 2 -17 5 -3 15 -17 22 -31 29 -60 125 -165
141 -155 5 2 14 -2 21 -10 7 -8 19 -15 27 -15 8 0 27 -7 41 -14 111 -61 250
-93 446 -102 114 -6 187 0 306 27 97 21 190 52 209 70 11 11 27 19 34 19 16 0
104 47 127 67 8 8 44 32 79 54 36 23 86 59 113 82 26 22 50 38 53 35 3 -3 6
-21 7 -41 1 -20 5 -34 10 -31 4 3 8 -2 8 -11 0 -9 8 -28 17 -42 20 -30 133
-143 143 -143 10 0 164 -72 170 -79 3 -3 16 -8 30 -9 14 -2 31 -9 38 -14 6 -6
12 -7 12 -3 0 4 6 2 13 -4 8 -6 33 -13 57 -16 24 -3 47 -8 52 -11 6 -4 74 -18
151 -32 154 -27 352 -35 502 -19 44 5 94 9 110 9 78 1 190 22 288 54 131 42
340 140 385 182 18 16 53 42 76 57 l43 27 18 126 c10 70 16 163 15 207 -3 98
-3 98 5 160 5 43 6 295 1 675 -2 181 17 550 29 570 3 5 1 11 -5 15 -6 3 -9 59
-8 138 2 138 -2 197 -13 197 -4 0 -9 13 -12 29 -7 34 -39 82 -87 133 -24 25
-40 55 -50 95 l-15 58 55 43 c99 78 137 169 94 230 -8 12 -16 32 -18 45 -1 12
-7 33 -13 47 -7 14 -14 42 -18 63 -3 20 -10 37 -15 37 -4 0 -12 14 -15 31 -9
38 -105 134 -155 155 -19 8 -37 20 -41 26 -4 6 -18 13 -31 15 -13 2 -39 10
-59 18 -21 8 -59 17 -85 21 -69 9 -77 10 -94 17 -8 4 -69 8 -135 10 -66 2
-127 7 -136 11 -8 4 -17 5 -20 2z m276 -131 c44 -8 91 -17 105 -20 14 -4 36
-9 50 -12 76 -14 208 -109 224 -161 8 -23 -29 -98 -67 -140 -59 -64 -210 -119
-377 -137 -69 -7 -147 -18 -175 -24 -105 -22 -403 -54 -504 -54 -160 -1 -271
4 -276 13 -3 5 -13 6 -23 3 -47 -12 -223 51 -286 102 -28 23 -28 23 -12 55 9
18 16 39 16 47 0 39 43 103 92 139 74 54 99 66 164 80 7 1 50 16 96 33 47 17
90 31 96 31 7 0 38 9 69 20 66 22 109 29 243 39 141 11 473 3 565 -14z m444
-381 c8 -22 11 -52 8 -66 -9 -34 -48 -80 -84 -98 -15 -8 -45 -29 -66 -48 -21
-18 -51 -35 -67 -39 -17 -3 -30 -9 -30 -13 0 -10 -62 -35 -145 -59 -71 -20
-208 -39 -325 -46 -36 -2 -78 -6 -95 -10 -65 -14 -311 -17 -432 -6 -71 7 -173
24 -228 38 -55 14 -116 29 -135 33 -50 12 -101 32 -134 55 -33 22 -66 88 -59
116 4 16 8 17 27 7 11 -7 23 -13 26 -14 3 0 22 -8 42 -17 21 -10 43 -17 50
-17 7 0 36 -8 63 -18 28 -10 81 -20 120 -21 38 -1 72 -4 75 -6 24 -15 387 -3
460 15 38 9 96 16 205 26 39 3 86 10 105 15 19 5 54 9 78 9 136 0 381 92 460
173 20 21 43 36 52 35 8 -2 21 -21 29 -44z m-132 -364 c3 -16 9 -30 13 -30 4
0 13 -13 19 -28 7 -15 23 -40 36 -55 14 -14 25 -32 25 -38 0 -7 3 -9 7 -6 8 8
52 -55 60 -86 9 -35 8 -423 -2 -622 -4 -99 -7 -236 -6 -305 1 -69 3 -172 4
-230 1 -58 -1 -240 -5 -405 l-7 -300 -30 -65 c-27 -60 -82 -120 -110 -120 -5
0 -11 -4 -13 -9 -1 -5 -32 -29 -68 -53 -57 -38 -122 -66 -170 -73 -8 -2 -42
-10 -75 -19 -32 -9 -71 -16 -87 -16 -15 0 -29 -4 -33 -9 -3 -6 -27 -13 -53
-16 -49 -7 -83 -13 -117 -20 -68 -15 -138 -20 -275 -19 -85 1 -162 3 -170 6
-8 3 -34 9 -58 13 -23 4 -45 11 -48 16 -2 4 -15 4 -28 -1 -24 -9 -76 -1 -111
17 -11 6 -40 13 -65 17 -25 4 -67 17 -95 31 -27 13 -77 33 -109 44 -32 11 -67
28 -78 38 -117 110 -131 144 -134 318 -2 66 -5 141 -8 167 -3 26 -2 49 3 52 9
6 85 -34 162 -85 66 -44 155 -63 354 -78 190 -15 291 3 344 60 17 19 21 31 16
59 -3 20 -1 58 6 85 7 28 13 77 15 110 8 168 16 530 14 675 0 36 2 102 4 147
4 77 -12 159 -33 173 -5 3 -13 15 -20 28 -11 21 -13 21 -43 6 -25 -13 -59 -15
-217 -11 -199 5 -231 10 -386 64 -55 19 -120 42 -145 50 -48 17 -70 31 -70 43
0 5 22 32 49 62 67 72 141 185 141 214 0 13 4 24 9 24 6 0 13 19 16 43 3 23 8
51 10 62 2 11 4 23 4 28 1 11 34 8 62 -7 34 -17 95 -33 154 -39 11 -1 23 -5
26 -9 19 -27 530 -45 699 -25 36 4 85 10 110 13 56 6 200 33 220 41 8 3 22 7
30 9 30 6 136 46 185 69 28 14 53 25 58 25 4 0 10 -13 14 -30z m-1762 -580
c22 -6 54 -18 70 -25 59 -26 151 -57 228 -76 65 -16 115 -19 288 -19 l209 0
12 -27 c7 -16 11 -62 10 -103 0 -41 -1 -113 0 -160 1 -205 1 -263 -5 -395 -10
-244 -18 -359 -28 -376 -5 -10 -9 -40 -9 -68 l0 -49 -47 -19 c-38 -14 -70 -17
-158 -15 -172 5 -227 9 -270 20 -22 6 -53 13 -68 16 -16 3 -40 16 -54 30 -14
15 -30 26 -35 26 -5 0 -24 11 -42 25 -18 14 -35 23 -38 20 -6 -7 -73 58 -83
81 -16 39 -20 104 -9 167 4 22 1 50 -6 67 -18 43 -21 81 -26 320 -2 118 -9
231 -14 250 -5 20 -8 51 -5 70 2 18 5 81 6 139 2 117 5 136 23 123 6 -5 29
-15 51 -22z m-1078 -257 c13 -16 31 -41 38 -58 8 -16 24 -44 35 -62 34 -57 79
-222 79 -293 0 -100 53 -264 94 -288 23 -14 28 -14 51 1 31 21 33 47 6 101
-11 23 -21 50 -22 61 -2 11 -6 25 -10 30 -6 10 -11 49 -9 73 1 11 20 12 94 7
50 -3 105 -8 121 -12 35 -6 219 -82 226 -92 3 -4 49 -29 103 -55 87 -43 97
-51 97 -75 0 -15 7 -50 15 -78 9 -30 17 -113 21 -204 8 -225 7 -243 -5 -247
-7 -2 -27 -21 -46 -41 -19 -20 -57 -48 -84 -61 -28 -14 -51 -28 -51 -32 0 -5
-5 -8 -11 -8 -7 0 -39 -17 -73 -39 -34 -21 -72 -42 -86 -46 -14 -4 -27 -11
-30 -14 -6 -9 -117 -57 -150 -66 -14 -3 -34 -10 -45 -15 -77 -33 -157 -48
-320 -60 -111 -8 -128 -7 -225 16 -58 14 -114 31 -125 38 -11 7 -35 18 -53 24
-67 23 -120 65 -135 107 -21 57 -27 95 -18 134 9 46 77 96 154 112 33 8 57 18
57 26 0 21 -41 36 -86 29 -30 -4 -45 -1 -54 9 -25 30 -48 19 -156 -77 -11 -9
-27 -28 -37 -42 -15 -22 -24 -25 -57 -23 -22 2 -40 0 -40 -5 0 -13 -91 2 -148
24 -60 23 -57 16 -53 168 1 28 11 44 55 85 62 59 97 72 184 70 57 -2 65 0 79
22 20 30 18 95 -3 128 -9 14 -13 25 -10 25 3 0 0 15 -8 34 -13 31 -12 37 5 66
11 18 29 34 40 37 10 3 19 9 19 14 0 5 6 9 14 9 9 0 17 -16 21 -42 12 -84 17
-97 46 -137 32 -44 64 -53 74 -21 4 13 -3 31 -20 54 -25 33 -50 132 -39 160 3
7 16 11 33 8 24 -3 33 3 57 35 15 21 69 79 119 128 50 50 105 108 121 130 39
50 102 177 110 222 3 18 9 33 11 33 3 0 17 -12 30 -27z"/>
</g>
</svg>
