<?xml version="1.0" standalone="no"?>
<!DOCTYPE svg PUBLIC "-//W3C//DTD SVG 20010904//EN"
 "http://www.w3.org/TR/2001/REC-SVG-20010904/DTD/svg10.dtd">
<svg version="1.0" xmlns="http://www.w3.org/2000/svg"
 width="495.000000pt" height="407.000000pt" viewBox="0 0 495.000000 407.000000"
 preserveAspectRatio="xMidYMid meet">
<metadata>
Created by potrace 1.16, written by Peter Selinger 2001-2019
</metadata>
<g transform="translate(0.000000,407.000000) scale(0.100000,-0.100000)"
fill="#000000" stroke="none">
<path d="M3095 3987 c-57 -14 -117 -44 -159 -81 -16 -14 -34 -26 -40 -26 -16
0 -76 -72 -76 -91 0 -9 -7 -22 -15 -29 -8 -7 -15 -18 -15 -26 0 -7 -6 -19 -13
-26 -18 -17 -30 -65 -18 -72 7 -5 7 -38 -2 -76 -3 -13 15 -80 21 -80 4 0 23
-15 42 -33 19 -18 59 -51 89 -72 138 -101 179 -125 245 -147 33 -11 77 -27 96
-34 63 -24 296 -14 327 15 10 9 32 23 50 30 17 7 34 19 37 27 3 8 12 14 20 14
8 0 18 10 21 21 4 12 22 36 40 54 18 17 43 53 55 79 24 49 50 70 78 62 9 -2
78 -7 152 -11 74 -4 149 -9 165 -11 36 -6 118 -4 160 3 17 2 116 6 220 9 293
6 295 7 321 37 13 15 20 34 17 45 -3 14 2 21 16 25 26 6 28 45 4 62 -13 10
-14 16 -7 26 18 22 25 67 13 74 -14 9 -70 15 -219 21 -152 7 -676 7 -745 0
-27 -2 -113 -10 -190 -16 -77 -6 -144 -12 -150 -14 -5 -2 -21 20 -35 48 -14
28 -35 56 -48 62 -12 6 -33 20 -45 31 -33 29 -97 46 -161 41 -31 -2 -56 -2
-56 1 0 3 -15 18 -33 32 -40 32 -96 41 -162 26z m155 -109 c40 -39 54 -61 63
-99 9 -38 17 -51 34 -55 47 -12 63 17 37 68 -8 15 -18 38 -23 51 -9 24 -9 24
42 15 29 -6 59 -16 67 -24 8 -7 28 -24 43 -37 29 -23 35 -48 24 -99 -14 -68
-87 -143 -148 -153 -67 -11 -143 -13 -161 -4 -9 5 -36 10 -60 13 -23 2 -60 11
-80 20 -21 9 -48 16 -61 16 -14 0 -30 7 -37 15 -7 8 -21 15 -31 15 -11 0 -19
3 -19 8 0 10 -67 79 -82 85 -10 4 -11 7 0 18 6 7 12 21 12 30 0 19 76 89 96
89 6 0 14 6 17 13 6 16 88 57 126 64 14 2 27 5 28 7 2 1 16 1 32 -2 19 -2 50
-23 81 -54z m1475 -211 c22 -2 51 -4 64 -5 76 -6 -53 -23 -164 -22 -5 0 -30 1
-55 1 -50 1 -186 0 -210 -2 -8 0 -97 -2 -197 -4 -335 -7 -335 -7 -378 -30 -28
-14 -39 -26 -37 -39 8 -42 -152 -230 -206 -242 -15 -3 -53 -12 -84 -20 -81
-20 -197 -13 -236 15 -17 11 -36 21 -43 21 -14 0 -81 43 -118 77 -13 11 -35
27 -50 34 -36 18 -92 61 -88 66 3 2 15 0 28 -6 13 -5 44 -15 69 -22 25 -7 50
-16 55 -20 6 -4 30 -10 55 -14 25 -4 70 -11 100 -16 75 -13 66 -12 150 -4 57
5 81 12 103 31 16 13 32 24 37 24 4 0 35 26 68 59 46 45 57 62 50 74 -11 20 3
24 122 32 139 10 225 17 228 20 4 3 690 -4 737 -8z m128 -14 c-7 -2 -19 -2
-25 0 -7 3 -2 5 12 5 14 0 19 -2 13 -5z"/>
<path d="M1360 3250 c-91 -23 -196 -87 -239 -144 -18 -24 -32 -46 -30 -48 1
-1 -9 -22 -24 -45 -14 -23 -29 -53 -33 -68 -10 -38 -25 -40 -85 -8 -42 22 -67
28 -115 28 -34 0 -72 -5 -85 -11 -13 -6 -49 -19 -79 -29 -30 -10 -64 -26 -75
-35 -34 -30 -103 -69 -109 -63 -3 4 -6 -2 -6 -13 0 -11 -14 -36 -31 -57 -16
-20 -33 -52 -36 -71 -3 -20 -8 -35 -12 -34 -21 2 -30 -6 -41 -34 -7 -18 -33
-63 -57 -99 -23 -37 -43 -74 -43 -83 0 -9 -17 -51 -39 -94 -21 -42 -44 -101
-51 -131 -18 -78 -4 -224 35 -361 9 -30 17 -64 19 -76 4 -26 70 -144 99 -176
12 -13 42 -47 67 -75 25 -28 70 -70 100 -94 30 -23 71 -59 90 -79 35 -35 88
-72 145 -100 17 -8 47 -27 69 -42 21 -15 64 -37 95 -48 31 -12 75 -32 98 -46
23 -13 51 -24 62 -24 11 0 22 -4 25 -9 7 -11 142 -58 192 -66 24 -4 51 -16 64
-30 l22 -23 -39 -6 c-21 -3 -76 -11 -123 -17 -57 -7 -105 -21 -145 -41 -91
-45 -102 -52 -161 -103 -55 -47 -79 -82 -88 -126 -2 -13 -9 -43 -14 -65 -7
-30 -6 -50 4 -73 8 -18 13 -36 11 -40 -1 -5 12 -28 29 -52 22 -30 58 -60 115
-93 46 -27 91 -55 101 -63 19 -17 133 -49 238 -68 106 -19 118 -21 185 -39 88
-24 417 -21 585 5 197 30 269 49 359 93 104 49 180 121 200 186 7 24 18 55 24
69 17 43 20 54 22 105 2 47 0 50 -64 115 -36 37 -82 78 -101 92 -52 37 -248
115 -315 125 -11 2 -46 7 -77 12 -32 5 -61 11 -64 15 -10 10 52 67 73 67 10 0
27 7 37 15 10 8 23 12 27 9 5 -2 16 0 26 5 19 11 84 39 143 61 19 8 53 25 74
39 21 14 46 30 55 36 40 25 126 90 129 97 2 4 9 8 16 8 7 0 21 8 32 18 38 33
101 87 132 112 18 14 32 30 32 37 0 7 9 18 20 25 11 7 20 18 20 24 0 7 13 26
30 44 16 18 30 38 30 45 0 6 9 20 20 30 11 10 20 24 20 32 0 7 5 13 10 13 6 0
10 4 10 10 0 10 32 84 76 176 13 28 24 58 24 67 0 9 4 18 9 21 4 3 6 17 3 31
-2 14 0 31 6 38 25 30 34 257 13 334 -6 23 -11 45 -10 50 3 20 -2 33 -15 33
-13 0 -19 20 -31 105 -15 102 -26 150 -36 154 -7 2 -30 21 -51 42 -22 22 -45
39 -50 39 -14 0 -38 26 -38 42 -2 58 -101 172 -186 214 -52 26 -70 29 -149 29
-56 0 -102 -6 -121 -14 -30 -14 -34 -13 -80 21 -71 51 -150 73 -264 73 -52 0
-110 -3 -128 -8 -66 -15 -145 -37 -148 -40 -2 -2 -24 15 -48 38 -32 31 -58 46
-97 55 -30 7 -60 17 -67 23 -16 13 -178 19 -222 7z m177 -101 c74 -31 90 -40
112 -63 l24 -25 -32 -36 c-30 -34 -35 -46 -32 -71 1 -6 -17 -14 -39 -18 -40
-6 -73 -20 -97 -42 -9 -9 -9 -15 0 -26 16 -21 45 -29 49 -16 3 7 36 13 83 15
65 2 86 -1 124 -20 25 -12 56 -33 67 -46 28 -31 69 -23 78 15 5 20 2 30 -15
43 -36 25 -123 71 -136 71 -22 0 -14 19 15 37 15 10 34 24 42 32 24 23 90 49
175 68 132 29 223 17 288 -39 l38 -33 -21 -38 c-24 -44 -15 -72 27 -88 24 -9
30 -6 57 24 49 53 121 94 178 102 45 6 59 4 109 -21 73 -37 135 -119 132 -175
-3 -54 -20 -88 -48 -101 -50 -23 -22 -103 33 -94 15 2 30 5 34 5 12 2 59 55
69 79 12 31 22 28 53 -20 34 -52 50 -162 30 -206 -80 -173 -95 -201 -114 -207
-11 -3 -20 -10 -20 -15 0 -19 -64 -102 -98 -128 -20 -15 -49 -38 -65 -52 -37
-34 -143 -87 -310 -155 -133 -54 -202 -73 -372 -100 -44 -7 -100 -18 -125 -25
-60 -15 -86 -18 -210 -26 -158 -9 -210 -10 -260 -2 -25 5 -63 11 -85 14 -22 3
-44 9 -50 14 -5 4 -37 11 -69 14 -87 9 -126 17 -126 27 0 5 -12 9 -27 9 -23 0
-179 70 -208 93 -5 4 -37 26 -70 47 -72 47 -156 125 -172 162 -6 14 -20 36
-29 47 -10 11 -19 33 -21 48 -2 15 -13 47 -23 70 -11 24 -20 49 -20 56 0 7 -7
22 -15 33 -19 24 -20 114 -2 114 16 0 72 -58 80 -82 4 -10 16 -18 30 -18 58 0
94 90 43 110 -13 4 -33 21 -45 36 -22 28 -29 88 -10 100 6 3 9 18 6 32 -9 47
26 86 126 140 53 27 71 32 132 32 83 0 145 -15 145 -35 0 -8 4 -14 9 -13 5 2
20 -13 33 -32 47 -69 111 -39 120 56 5 56 51 163 94 220 59 77 249 136 331
103z m-1186 -821 c9 -100 25 -153 60 -204 16 -24 29 -47 29 -52 0 -6 16 -24
35 -41 19 -17 35 -34 35 -38 0 -4 20 -23 44 -40 23 -18 53 -42 66 -53 13 -11
27 -20 32 -20 5 0 39 -19 76 -43 37 -23 81 -49 97 -56 17 -7 38 -17 47 -22 79
-40 276 -89 440 -109 160 -19 419 -10 537 20 42 11 112 24 156 29 96 11 223
38 247 51 10 6 23 10 30 10 7 1 31 9 53 20 22 11 49 19 60 20 31 0 241 109
277 144 18 17 54 47 79 66 26 19 68 66 95 104 27 37 60 77 73 87 13 11 21 22
18 26 -4 3 6 22 22 42 16 20 31 45 34 56 2 11 3 -38 2 -110 -2 -71 -5 -139 -8
-150 -3 -11 -26 -63 -52 -115 -25 -52 -60 -131 -77 -175 -17 -44 -36 -87 -43
-95 -7 -8 -14 -20 -16 -27 -5 -16 -84 -96 -165 -168 -37 -33 -74 -68 -83 -77
-8 -10 -21 -18 -28 -18 -7 0 -13 -4 -13 -10 0 -5 -6 -10 -14 -10 -8 0 -16 -6
-19 -14 -5 -13 -219 -125 -248 -129 -8 -2 -40 -14 -69 -29 -54 -26 -156 -56
-211 -63 -15 -2 -47 -9 -71 -16 -58 -15 -566 -18 -576 -3 -4 6 -20 14 -37 18
-16 4 -46 11 -65 15 -19 5 -59 17 -87 29 -29 11 -53 18 -53 16 0 -2 -9 5 -20
16 -11 11 -31 22 -45 26 -14 3 -25 10 -25 15 0 5 -8 9 -19 9 -10 0 -24 7 -31
15 -7 8 -21 15 -30 15 -10 0 -20 3 -22 8 -2 4 -37 24 -78 44 -85 42 -166 106
-201 158 -28 42 -100 110 -115 110 -16 0 -103 99 -124 140 -10 19 -25 64 -33
100 -9 36 -23 92 -31 124 -15 59 -20 155 -12 208 4 25 41 132 52 150 8 12 24
10 25 -4z m1529 -1352 c0 -5 -21 -69 -30 -91 -15 -36 -23 -60 -23 -65 1 -3 4
-36 7 -75 11 -122 16 -149 33 -167 20 -22 46 -23 79 -2 22 15 24 21 18 68 -12
91 -12 178 -2 209 l11 29 91 -7 c50 -3 95 -10 100 -15 5 -5 14 -6 20 -4 7 3
26 -2 42 -11 16 -8 35 -15 42 -15 21 0 171 -81 201 -107 63 -56 72 -67 78 -91
4 -16 2 -27 -5 -30 -7 -2 -12 -8 -12 -13 0 -20 -39 -95 -63 -121 -13 -14 -51
-38 -83 -53 -32 -15 -72 -33 -89 -41 -69 -31 -185 -62 -260 -69 -44 -3 -100
-11 -125 -15 -46 -9 -271 -13 -365 -7 -27 2 -66 8 -85 14 -19 6 -62 16 -95 23
-147 27 -194 40 -290 78 -109 43 -141 65 -167 115 -21 41 -20 105 1 146 7 11
9 21 6 21 -4 0 15 16 42 37 26 20 50 39 53 43 23 30 184 79 295 89 44 4 86 10
94 12 18 5 30 -36 36 -121 3 -36 7 -76 10 -90 6 -31 42 -59 67 -52 23 6 52 47
44 61 -3 5 -1 11 5 13 9 3 8 23 -4 77 -10 41 -17 85 -17 99 0 14 -11 44 -24
66 l-24 42 106 -1 c59 0 113 -4 121 -9 9 -6 12 -5 7 2 -4 6 17 14 56 20 74 11
98 13 98 8z"/>
</g>
</svg>
