<?xml version="1.0" standalone="no"?>
<!DOCTYPE svg PUBLIC "-//W3C//DTD SVG 20010904//EN"
 "http://www.w3.org/TR/2001/REC-SVG-20010904/DTD/svg10.dtd">
<svg version="1.0" xmlns="http://www.w3.org/2000/svg"
 width="473.000000pt" height="385.000000pt" viewBox="0 0 473.000000 385.000000"
 preserveAspectRatio="xMidYMid meet">
<metadata>
Created by potrace 1.16, written by Peter Selinger 2001-2019
</metadata>
<g transform="translate(0.000000,385.000000) scale(0.100000,-0.100000)"
fill="#000000" stroke="none">
<path d="M1925 3755 c-60 -7 -137 -20 -170 -29 -33 -8 -69 -15 -80 -15 -72 1
-163 -16 -213 -39 -31 -14 -67 -27 -80 -28 -12 -2 -52 -20 -88 -41 -37 -21
-78 -44 -93 -52 -30 -16 -119 -104 -142 -141 -29 -47 -64 -165 -60 -205 0 -5
2 -44 4 -85 2 -41 6 -82 10 -90 14 -35 36 -129 42 -175 6 -53 12 -84 21 -125
10 -42 23 -122 29 -185 4 -33 10 -69 15 -80 5 -11 11 -36 14 -55 3 -19 8 -46
11 -60 3 -14 10 -54 15 -90 5 -36 15 -82 21 -103 6 -22 8 -41 5 -44 -2 -3 0
-17 5 -32 14 -35 31 -118 33 -161 1 -19 5 -46 9 -60 7 -30 38 -222 42 -264 1
-17 6 -67 10 -111 3 -44 13 -118 21 -165 8 -47 19 -130 24 -185 9 -103 34
-249 68 -415 11 -52 22 -113 23 -135 2 -22 11 -55 20 -74 10 -18 23 -55 30
-82 7 -27 16 -49 21 -49 4 0 12 -18 18 -40 6 -24 17 -40 26 -40 17 0 56 -20
66 -35 5 -7 8 -7 8 0 0 7 3 7 8 0 4 -5 16 -15 27 -22 11 -6 19 -16 17 -23 -1
-6 4 -10 11 -8 7 2 29 -5 48 -14 58 -28 106 -48 118 -48 6 0 11 -4 11 -9 0
-17 179 -59 285 -67 33 -2 83 -8 111 -12 57 -9 191 2 274 23 125 31 149 39
232 76 47 22 91 39 97 39 6 0 11 3 11 8 0 4 17 16 37 27 21 11 51 32 68 46 16
14 44 33 60 42 17 9 44 30 60 47 17 16 38 39 48 49 17 17 43 134 33 149 -3 4
5 59 16 122 12 63 22 138 23 165 7 145 44 612 65 810 5 50 12 126 14 170 3 44
9 112 15 150 5 39 13 111 16 160 4 50 8 101 10 115 2 14 6 57 10 95 3 39 10
93 15 120 5 28 12 82 14 122 9 130 27 246 52 338 7 28 15 64 18 80 17 108 39
222 45 235 9 18 9 21 -8 90 -31 124 -80 181 -197 224 -43 16 -90 37 -104 47
-105 71 -316 127 -510 135 -63 2 -142 7 -175 10 -135 12 -454 12 -560 -1z
m534 -114 c10 -6 21 -7 25 -4 3 3 27 5 53 4 114 -4 220 -10 243 -15 14 -2 54
-10 90 -16 36 -6 67 -15 68 -21 2 -5 7 -7 11 -4 5 2 17 -2 27 -10 16 -13 17
-16 4 -25 -13 -8 -13 -10 3 -10 9 0 17 8 18 18 0 10 3 12 6 4 2 -6 8 -10 13
-7 5 3 20 1 34 -5 18 -7 24 -14 20 -27 -5 -15 -4 -16 5 -3 9 13 13 13 33 1 13
-8 33 -20 45 -26 13 -7 20 -15 16 -18 -3 -4 1 -7 11 -7 14 0 15 -2 4 -14 -7
-8 -17 -11 -23 -8 -5 3 -4 -2 4 -11 14 -18 26 -24 17 -8 -3 5 5 9 19 9 13 0
26 -7 29 -14 3 -8 2 -14 -3 -14 -4 0 -8 -7 -8 -15 0 -10 4 -12 10 -6 13 13 42
-2 51 -25 4 -10 -1 -22 -11 -31 -17 -13 -17 -14 2 -9 16 5 22 -1 31 -30 10
-30 9 -39 -5 -53 -9 -9 -17 -29 -18 -45 -3 -32 12 -25 20 9 4 18 5 18 6 -2 0
-13 5 -23 10 -23 5 0 7 -8 5 -18 -6 -19 -62 -62 -83 -62 -7 0 -9 -4 -6 -10 3
-5 0 -10 -8 -10 -7 0 -22 -8 -33 -18 -10 -10 -46 -30 -79 -46 -33 -16 -77 -37
-97 -48 l-37 -19 -4 33 -4 33 -1 -36 c-2 -34 -5 -37 -41 -46 -23 -6 -45 -7
-55 -1 -11 6 -14 5 -10 -5 4 -11 -15 -17 -83 -26 -98 -14 -147 -12 -149 7 -3
25 -5 27 -14 10 -6 -10 -18 -14 -30 -11 -11 3 -20 1 -20 -4 0 -7 -18 -7 -52
-1 -56 10 -251 5 -282 -8 -16 -6 -18 -4 -13 9 8 22 -2 22 -18 0 -10 -13 -36
-17 -145 -20 -73 -3 -153 0 -179 6 -25 5 -67 13 -94 16 -26 3 -45 10 -42 15 3
4 -4 6 -15 3 -25 -7 -26 12 -3 26 10 5 14 13 10 18 -5 4 -19 -4 -30 -18 -20
-24 -29 -27 -95 -28 -58 -1 -72 1 -66 11 6 10 5 11 -8 1 -8 -7 -17 -10 -20 -7
-4 3 -27 7 -51 9 -25 1 -70 12 -99 23 -29 11 -68 26 -86 33 -25 9 -30 14 -20
21 9 6 8 8 -7 6 -27 -3 -45 9 -38 27 3 8 0 15 -6 15 -6 0 -11 -6 -12 -12 0
-10 -2 -10 -5 -1 -3 7 -12 9 -21 6 -10 -4 -14 -2 -9 5 3 6 -3 13 -14 17 -20 6
-28 35 -10 35 6 0 10 -5 10 -11 0 -5 5 -7 10 -4 15 9 12 35 -4 35 -9 0 -12 7
-9 23 3 16 2 18 -5 8 -7 -9 -12 -10 -16 -2 -4 6 -2 11 3 11 6 0 11 5 11 10 0
6 -8 10 -17 10 -13 0 -14 3 -5 12 16 16 15 31 0 22 -10 -6 -10 -5 -1 8 7 8 9
19 5 23 -4 5 0 6 8 3 8 -3 23 3 34 13 18 17 17 17 -5 12 -22 -6 -23 -5 -9 12
8 10 10 16 3 12 -6 -4 -14 -3 -17 2 -4 5 4 11 16 13 17 2 23 9 22 26 -1 26 2
27 23 7 8 -8 19 -13 24 -10 5 4 9 1 9 -4 0 -22 15 -10 16 12 0 12 2 28 5 36 5
18 -28 23 -35 4 -3 -8 -1 -11 4 -8 6 3 10 -1 10 -9 0 -24 -18 -28 -30 -6 -12
22 -3 47 24 69 11 10 19 9 35 -1 16 -10 23 -10 33 0 9 9 7 12 -10 12 -21 0
-21 1 -4 20 16 19 18 20 30 3 12 -16 12 -16 10 2 -3 21 1 25 28 25 13 0 14 -3
5 -14 -8 -10 -8 -16 3 -25 11 -9 15 -8 20 4 3 8 9 15 13 14 20 -3 24 2 13 16
-7 9 -16 12 -19 7 -3 -6 -11 -4 -18 3 -10 11 -4 16 32 29 25 8 45 11 45 5 0
-5 -7 -9 -15 -9 -8 0 -15 -5 -15 -11 0 -5 6 -7 13 -3 7 5 6 0 -3 -11 -14 -17
-13 -18 4 -11 20 7 20 7 0 -15 -10 -12 -14 -19 -7 -16 6 4 13 1 16 -5 2 -7 10
4 17 25 10 27 20 37 36 37 29 0 51 27 36 42 -9 9 -12 9 -12 0 0 -7 -8 -12 -17
-12 -15 0 -16 -2 -3 -10 13 -8 12 -10 -2 -10 -10 0 -18 7 -18 16 0 9 -5 12
-12 8 -7 -4 -10 -3 -5 1 21 23 77 35 342 70 101 14 120 17 124 21 2 2 11 -2
19 -9 9 -6 13 -7 10 -2 -6 10 94 18 240 20 34 0 62 2 62 5 0 9 189 -9 209 -19z
m857 -627 c-3 -25 -9 -51 -13 -57 -4 -6 -6 -26 -5 -43 2 -18 -5 -72 -14 -120
-9 -49 -18 -114 -20 -144 -5 -87 -26 -264 -32 -274 -3 -5 -4 -40 -3 -79 2 -60
-1 -72 -20 -93 -12 -13 -28 -24 -36 -24 -7 0 -13 -6 -13 -14 0 -19 -91 -53
-204 -77 -49 -10 -91 -19 -93 -19 -9 0 -1 55 12 87 15 36 15 38 -7 55 -13 9
-43 22 -68 28 -25 7 -65 19 -90 27 -25 8 -56 15 -70 15 -14 0 -30 4 -36 9 -6
4 -44 14 -85 20 -72 11 -83 14 -142 38 -15 6 -43 11 -62 11 -19 0 -37 5 -40
10 -7 11 -65 10 -65 -1 0 -4 -35 -10 -77 -14 -43 -3 -91 -12 -108 -19 -16 -8
-61 -23 -100 -34 -38 -12 -92 -28 -120 -36 -27 -9 -63 -17 -78 -20 -44 -8 -57
-24 -57 -70 0 -49 4 -47 -140 -47 -83 0 -127 7 -226 36 -22 7 -36 52 -50 161
-7 55 -14 96 -20 118 -5 16 -3 18 17 11 13 -5 56 -8 95 -8 70 0 127 19 147 51
4 6 13 12 19 12 8 0 44 33 48 44 1 2 28 136 43 214 8 40 18 77 23 82 5 5 32 5
59 0 229 -37 284 -43 321 -34 21 5 63 7 93 4 29 -3 86 0 125 6 93 16 231 18
386 7 69 -6 139 -6 155 -2 17 4 48 10 70 14 82 12 110 22 295 108 30 14 82 43
115 65 33 22 64 41 68 41 4 1 6 -20 3 -45z m-2034 -99 c0 -5 -5 -10 -11 -11
-8 -2 -7 -1 0 3 8 4 7 8 -2 15 -11 8 -11 9 -1 6 8 -2 14 -8 14 -13z m145 -75
c-2 -31 -11 -38 -23 -18 -4 6 -2 14 4 16 6 2 8 10 5 18 -3 8 0 14 6 14 5 0 9
-13 8 -30z m-233 -1 c-3 -5 -10 -7 -15 -3 -5 3 -7 10 -3 15 3 5 10 7 15 3 5
-3 7 -10 3 -15z m199 4 c-8 -3 -11 -15 -7 -31 4 -18 2 -23 -3 -14 -6 7 -17 10
-26 6 -10 -3 -17 -1 -17 5 0 6 7 11 16 11 8 0 13 4 9 9 -6 11 27 33 35 24 3
-3 -1 -8 -7 -10z m107 -10 c0 -30 -9 -27 -15 6 -2 11 0 21 6 21 5 0 9 -12 9
-27z m37 15 c12 -16 11 -62 -1 -65 -10 -1 -26 -24 -26 -35 0 -5 4 -7 9 -5 10
2 11 -2 11 -30 0 -23 -17 -49 -25 -41 -4 4 -3 13 1 20 12 19 14 37 3 43 -4 3
-11 -6 -15 -21 -5 -18 -9 -22 -15 -13 -4 8 -4 16 0 19 15 9 40 67 33 75 -4 5
1 5 11 2 15 -6 17 -3 11 16 -3 12 -11 28 -16 35 -7 8 -7 12 0 12 5 0 14 -6 19
-12z m-222 -46 c-3 -15 -6 -44 -7 -64 -1 -21 -5 -35 -10 -32 -5 3 -6 15 -2 26
5 16 3 19 -7 12 -12 -6 -12 -5 -1 8 7 9 13 32 14 51 1 20 5 34 10 31 5 -3 7
-18 3 -32z m143 8 c0 -16 -4 -30 -9 -30 -5 0 -9 14 -9 30 0 17 4 30 8 30 5 0
9 -13 10 -30z m-191 -2 c-3 -8 -6 -5 -6 6 -1 11 2 17 5 13 3 -3 4 -12 1 -19z
m-62 -18 c-3 -5 -12 -10 -18 -10 -7 0 -6 4 3 10 19 12 23 12 15 0z m292 -17
c-3 -3 -11 -2 -17 2 -9 6 -9 10 1 16 14 8 27 -7 16 -18z m-162 7 c3 -5 1 -10
-4 -10 -6 0 -11 5 -11 10 0 6 2 10 4 10 3 0 8 -4 11 -10z m72 -12 c2 -17 0
-19 -7 -8 -5 8 -6 18 -4 22 8 12 10 10 11 -14z m-137 -25 c0 -13 -3 -13 -15
-3 -13 11 -15 8 -15 -14 0 -15 -4 -25 -9 -22 -12 8 -8 30 8 50 15 18 31 12 31
-11z m193 2 c-5 -21 -7 -22 -20 -10 -16 16 -10 35 11 35 9 0 12 -9 9 -25z
m-253 11 c0 -11 -19 -15 -25 -6 -3 5 1 10 9 10 9 0 16 -2 16 -4z m130 -16 c0
-5 -5 -10 -11 -10 -5 0 -7 5 -4 10 3 6 8 10 11 10 2 0 4 -4 4 -10z m80 -5 c0
-2 -7 -8 -15 -15 -12 -10 -15 -10 -15 2 0 8 7 15 15 15 8 0 15 -1 15 -2z m20
-24 c0 -5 6 -11 13 -14 6 -2 0 -2 -15 0 -22 4 -28 1 -28 -14 0 -13 3 -14 8 -6
6 10 12 10 28 -3 10 -8 13 -13 6 -9 -7 4 -24 0 -37 -9 -13 -9 -28 -16 -32 -16
-4 0 0 5 10 11 12 7 15 15 8 27 -6 11 -4 20 7 29 20 15 32 16 32 4z m-228 -25
c-2 -10 2 -23 8 -30 5 -8 7 -22 3 -32 -6 -16 -5 -17 9 -6 11 9 18 10 23 2 3
-5 -1 -10 -10 -10 -9 0 -14 -4 -10 -9 3 -5 0 -13 -6 -17 -8 -4 -9 -3 -5 4 4 7
2 12 -4 12 -6 0 -10 10 -9 23 1 12 -1 30 -5 40 -15 41 -16 49 -4 44 7 -2 12
-12 10 -21z m68 4 c8 -15 8 -18 -3 -14 -8 3 -14 11 -14 19 0 20 4 19 17 -5z
m97 -22 c-3 -7 -5 -2 -5 12 0 14 2 19 5 13 2 -7 2 -19 0 -25z m-77 -13 c-7 -8
-17 -15 -23 -15 -6 0 -2 7 9 15 25 19 30 19 14 0z m55 -5 c3 -5 1 -10 -4 -10
-6 0 -11 5 -11 10 0 6 2 10 4 10 3 0 8 -4 11 -10z m91 -34 c1 -14 -4 -27 -12
-30 -8 -3 -14 -12 -14 -20 0 -9 -6 -13 -15 -10 -11 5 -9 10 10 28 18 16 21 26
14 39 -7 12 -6 17 3 17 7 0 14 -11 14 -24z m-39 -8 c-3 -8 -6 -5 -6 6 -1 11 2
17 5 13 3 -3 4 -12 1 -19z m91 -6 c1 -16 -4 -26 -18 -29 -11 -3 -20 -12 -20
-20 0 -8 -4 -12 -9 -9 -5 3 -11 0 -14 -8 -3 -7 -16 -16 -29 -19 -21 -6 -21 -5
5 14 15 12 24 26 21 31 -4 7 -2 8 4 4 7 -4 12 -2 12 3 0 6 10 12 23 12 16 1
18 2 5 6 -24 6 -24 42 0 40 11 0 19 -10 20 -25z m-188 14 c0 -2 -9 -6 -20 -9
-11 -3 -18 -1 -14 4 5 9 34 13 34 5z m3 -35 c3 -13 0 -18 -7 -15 -7 3 -13 11
-13 19 0 22 14 18 20 -4z m-13 -56 c0 -9 -6 -12 -16 -8 -13 5 -13 7 -2 14 17
11 18 11 18 -6z m54 3 c-5 -8 -1 -9 12 -4 14 5 16 4 7 -5 -13 -13 -37 -3 -28
12 4 5 8 9 11 9 3 0 2 -5 -2 -12z m-19 -18 c3 -6 -1 -7 -9 -4 -18 7 -21 14 -7
14 6 0 13 -4 16 -10z m1043 -226 c18 -7 50 -16 70 -18 64 -9 95 -16 157 -36
33 -11 82 -24 110 -30 75 -17 85 -30 85 -116 0 -51 -4 -77 -15 -87 -20 -21
-169 -70 -225 -74 -25 -2 -61 -10 -80 -18 -49 -19 -105 -28 -170 -27 -65 1
-180 21 -196 34 -7 5 -27 8 -45 8 -64 -1 -168 24 -284 69 -23 9 -53 112 -47
164 4 31 6 33 107 65 57 18 121 36 142 39 21 3 47 11 58 16 49 26 278 34 333
11z m827 -231 c-4 -38 -15 -107 -26 -155 -11 -48 -24 -131 -30 -185 -6 -54
-11 -107 -13 -118 -1 -11 -6 -60 -10 -110 -4 -49 -9 -103 -12 -120 -2 -16 -6
-61 -9 -100 -3 -38 -10 -90 -15 -115 -5 -25 -12 -97 -16 -160 -3 -63 -8 -126
-10 -140 -2 -14 -6 -50 -9 -80 -3 -30 -10 -83 -16 -118 -10 -65 -18 -127 -21
-175 -2 -26 -55 -87 -76 -87 -5 0 -17 -8 -26 -19 -9 -10 -45 -31 -79 -46 -34
-15 -92 -42 -129 -61 -38 -19 -93 -44 -125 -55 -79 -27 -249 -52 -303 -45 -25
3 -72 8 -105 11 -33 2 -74 9 -92 14 -18 5 -41 7 -51 4 -11 -2 -23 0 -26 6 -4
6 -17 11 -29 11 -54 1 -203 73 -248 121 -14 15 -39 31 -55 35 -16 4 -37 17
-46 28 -10 12 -22 26 -28 33 -5 7 -10 19 -10 28 0 8 -4 15 -10 15 -5 0 -15 19
-21 43 -7 23 -16 47 -20 52 -4 6 -12 42 -18 82 -6 39 -15 83 -20 96 -10 26
-32 134 -36 177 -2 14 -8 52 -15 85 -6 33 -13 85 -15 115 -2 30 -7 71 -10 90
-3 19 -9 78 -15 130 -18 172 -21 191 -35 273 -8 45 -15 101 -15 124 0 23 -4
53 -9 66 -5 13 -12 60 -16 103 -4 44 -13 103 -22 132 -8 30 -12 56 -9 59 3 3
28 -2 55 -11 35 -11 87 -16 173 -16 68 0 128 -4 135 -8 7 -4 15 -23 18 -42 8
-44 26 -72 56 -87 35 -17 271 -73 308 -73 18 0 40 -4 49 -9 9 -5 31 -11 47
-14 53 -9 89 -19 121 -33 27 -12 38 -11 90 6 32 10 104 28 159 40 55 12 123
28 150 36 125 36 162 46 185 53 19 5 26 14 28 38 3 30 24 47 48 42 5 -1 16 0
24 3 8 3 53 18 100 33 47 15 99 35 115 45 17 10 34 19 38 19 4 1 5 -29 2 -66z"/>
<path d="M2696 3618 c3 -4 -2 -8 -11 -8 -9 0 -14 -4 -11 -9 3 -5 1 -23 -5 -40
-9 -25 -15 -30 -30 -26 -11 4 -19 2 -19 -4 0 -6 6 -11 13 -11 8 0 7 -4 -3 -10
-8 -5 -10 -10 -5 -10 16 0 65 49 65 66 0 8 7 25 15 38 13 20 13 23 0 23 -8 0
-12 -4 -9 -9z"/>
<path d="M1850 3610 c0 -5 5 -10 11 -10 5 0 7 5 4 10 -3 6 -8 10 -11 10 -2 0
-4 -4 -4 -10z"/>
<path d="M2020 3612 c0 -7 -7 -12 -16 -12 -8 0 -12 -4 -9 -10 3 -5 10 -10 15
-10 10 0 22 31 15 38 -3 3 -5 0 -5 -6z"/>
<path d="M2192 3600 c0 -14 2 -19 5 -12 2 6 2 18 0 25 -3 6 -5 1 -5 -13z"/>
<path d="M2366 3605 c-3 -8 -1 -15 4 -15 6 0 10 5 10 11 0 5 5 7 10 4 6 -3 10
-1 10 4 0 17 -27 13 -34 -4z"/>
<path d="M2581 3604 c0 -11 3 -14 6 -6 3 7 2 16 -1 19 -3 4 -6 -2 -5 -13z"/>
<path d="M2636 3605 c4 -8 8 -15 10 -15 2 0 4 7 4 15 0 8 -4 15 -10 15 -5 0
-7 -7 -4 -15z"/>
<path d="M2741 3610 c0 -8 4 -22 9 -30 12 -18 12 -2 0 25 -6 13 -9 15 -9 5z"/>
<path d="M1767 3604 c-8 -8 1 -24 12 -24 4 0 8 7 8 15 0 16 -9 20 -20 9z"/>
<path d="M2551 3587 c-13 -21 -12 -21 5 -5 10 10 16 20 13 22 -3 3 -11 -5 -18
-17z"/>
<path d="M1720 3585 c-7 -9 -8 -15 -2 -15 5 0 12 7 16 15 3 8 4 15 2 15 -2 0
-9 -7 -16 -15z"/>
<path d="M1920 3585 c0 -12 -4 -13 -19 -6 -18 10 -20 4 -12 -41 2 -15 21 -8
21 8 0 8 4 13 9 10 5 -3 11 5 13 19 3 14 1 25 -3 25 -5 0 -9 -7 -9 -15z"/>
<path d="M1952 3587 c-8 -10 -6 -13 8 -14 13 -1 17 3 13 13 -6 17 -8 17 -21 1z"/>
<path d="M1855 3577 c-4 -10 -2 -23 4 -31 9 -11 9 -15 -1 -19 -8 -4 -7 -6 5
-6 18 -1 20 9 7 49 -6 22 -8 23 -15 7z"/>
<path d="M2707 3571 c-2 -10 -1 -24 3 -30 4 -7 7 1 8 18 1 35 -3 40 -11 12z"/>
<path d="M2816 3578 c3 -5 10 -6 15 -3 13 9 11 12 -6 12 -8 0 -12 -4 -9 -9z"/>
<path d="M1823 3574 c9 -16 -28 -25 -42 -11 -8 8 -11 5 -11 -11 0 -19 -2 -21
-14 -10 -8 7 -11 18 -8 23 3 6 -2 4 -11 -4 -17 -13 -14 -36 4 -26 5 4 9 1 9
-5 0 -6 8 -10 17 -8 11 2 18 -4 20 -17 1 -11 0 -14 -3 -7 -8 17 -21 15 -21 -4
0 -17 43 -38 61 -30 6 2 3 5 -7 5 -11 1 -17 7 -14 14 2 6 0 20 -5 31 -13 25 4
42 22 21 8 -10 9 -15 1 -15 -18 0 -12 -20 7 -21 14 0 14 -2 -3 -9 -15 -6 -8
-8 22 -6 42 1 62 16 23 16 -21 0 -27 9 -33 47 -2 12 -7 26 -12 30 -4 5 -5 3
-2 -3z"/>
<path d="M2490 3566 c0 -9 5 -16 11 -16 5 0 7 5 4 10 -3 6 -1 10 5 10 7 0 9
-8 5 -20 -5 -15 -2 -20 12 -20 10 0 14 4 8 8 -5 4 -10 14 -10 22 0 8 -8 16
-17 18 -11 2 -18 -3 -18 -12z"/>
<path d="M1601 3547 c-6 -16 -11 -40 -11 -54 0 -20 -3 -23 -13 -14 -8 6 -17 8
-20 4 -12 -11 -8 -23 8 -23 8 0 15 -6 15 -12 0 -7 3 -24 6 -38 l5 -25 -14 25
c-9 14 -13 28 -11 32 3 5 0 8 -5 8 -14 0 -14 -6 -1 -30 9 -16 7 -18 -15 -14
-14 2 -25 0 -25 -6 0 -5 10 -11 23 -12 63 -4 77 -3 78 7 0 5 4 1 9 -10 5 -11
9 -14 9 -7 1 7 6 10 11 7 6 -3 10 1 10 9 0 9 -6 13 -13 10 -8 -3 -20 2 -27 10
-7 9 -16 13 -21 10 -5 -3 -9 0 -9 5 0 6 6 11 13 11 9 0 9 2 0 8 -8 5 -9 12 -2
22 8 13 11 12 21 -4 10 -18 11 -18 23 4 7 13 10 31 7 39 -3 9 -1 12 6 7 7 -4
12 -2 12 4 0 7 -7 9 -16 6 -9 -3 -21 -6 -27 -6 -8 0 -7 -4 1 -12 18 -18 15
-27 -8 -21 -22 6 -27 32 -9 50 6 6 9 17 6 25 -3 8 -9 2 -16 -15z m14 -137 c3
-5 1 -10 -4 -10 -6 0 -11 5 -11 10 0 6 2 10 4 10 3 0 8 -4 11 -10z"/>
<path d="M2005 3560 c4 -6 11 -8 16 -5 14 9 11 15 -7 15 -8 0 -12 -5 -9 -10z"/>
<path d="M2290 3555 c0 -23 -1 -29 -11 -47 -7 -13 -6 -16 5 -12 16 6 30 34 17
34 -5 0 -7 9 -4 20 3 11 3 20 -1 20 -3 0 -6 -7 -6 -15z"/>
<path d="M2406 3563 c-3 -3 -6 -16 -5 -27 0 -15 2 -17 6 -6 3 8 10 18 16 21 6
4 6 9 -1 12 -5 4 -12 4 -16 0z"/>
<path d="M2625 3560 c-3 -5 -1 -10 4 -10 6 0 11 5 11 10 0 6 -2 10 -4 10 -3 0
-8 -4 -11 -10z"/>
<path d="M2791 3556 c-9 -10 -8 -15 3 -19 11 -4 13 -1 9 10 -5 12 -3 14 7 8 9
-5 11 -4 6 3 -9 15 -11 15 -25 -2z"/>
<path d="M2881 3559 c17 -11 39 -12 39 -1 0 4 -12 8 -27 9 -19 1 -22 -1 -12
-8z"/>
<path d="M1950 3551 c0 -16 12 -41 20 -41 4 0 5 11 2 25 -4 23 -22 36 -22 16z"/>
<path d="M2056 3543 c-6 -14 -5 -15 5 -6 7 7 10 15 7 18 -3 3 -9 -2 -12 -12z"/>
<path d="M2590 3550 c-13 -8 -12 -10 3 -10 9 0 17 5 17 10 0 12 -1 12 -20 0z"/>
<path d="M2236 3524 c-8 -31 -5 -36 14 -24 9 6 10 10 3 10 -6 0 -9 9 -6 20 3
11 3 20 0 20 -3 0 -8 -12 -11 -26z"/>
<path d="M2321 3539 c-1 -17 22 -32 33 -22 12 12 6 25 -8 20 -8 -3 -17 -1 -20
6 -2 7 -5 5 -5 -4z"/>
<path d="M1706 3526 c4 -10 1 -22 -7 -28 -10 -6 -3 -8 21 -4 34 5 34 5 8 -6
-16 -7 -28 -17 -28 -22 1 -15 30 -53 30 -39 0 7 -4 15 -10 18 -15 9 -12 25 4
25 21 0 36 23 26 40 -5 8 -12 11 -16 7 -4 -4 -13 1 -21 11 -12 16 -13 16 -7
-2z"/>
<path d="M1920 3530 c0 -5 7 -10 16 -10 8 0 12 5 9 10 -3 6 -10 10 -16 10 -5
0 -9 -4 -9 -10z"/>
<path d="M2485 3530 c-3 -5 -4 -14 -1 -19 4 -5 1 -12 -4 -14 -6 -3 -5 -4 1 -3
7 1 14 12 16 24 3 23 -2 28 -12 12z"/>
<path d="M2203 3518 c-5 -7 -6 -26 -2 -43 l8 -30 -3 32 c-1 18 2 34 8 36 6 3
8 7 5 11 -3 4 -10 1 -16 -6z"/>
<path d="M2444 3515 c4 -24 16 -30 16 -7 0 12 -4 22 -9 22 -5 0 -8 -7 -7 -15z"/>
<path d="M2768 3523 c7 -3 16 -2 19 1 4 3 -2 6 -13 5 -11 0 -14 -3 -6 -6z"/>
<path d="M1515 3510 c-3 -6 1 -7 9 -4 18 7 21 14 7 14 -6 0 -13 -4 -16 -10z"/>
<path d="M2550 3507 c0 -10 8 -17 18 -17 9 0 13 4 7 8 -5 4 -13 11 -17 16 -5
5 -8 2 -8 -7z"/>
<path d="M2670 3503 c0 -10 4 -14 8 -8 4 6 11 13 16 18 5 4 2 7 -7 7 -10 0
-17 -8 -17 -17z"/>
<path d="M1910 3490 c6 -11 12 -20 14 -20 2 0 2 9 -1 20 -3 11 -9 20 -15 20
-5 0 -4 -9 2 -20z"/>
<path d="M2000 3500 c0 -5 5 -10 10 -10 6 0 10 5 10 10 0 6 -4 10 -10 10 -5 0
-10 -4 -10 -10z"/>
<path d="M2055 3499 c-17 -6 -16 -8 7 -8 15 -1 29 3 32 7 6 11 -14 11 -39 1z"/>
<path d="M2125 3499 c-4 -6 -4 -13 -1 -16 3 -4 6 -1 6 5 0 6 8 13 18 15 15 4
15 5 0 6 -9 0 -20 -4 -23 -10z"/>
<path d="M2595 3500 c-3 -5 -1 -10 4 -10 6 0 11 5 11 10 0 6 -2 10 -4 10 -3 0
-8 -4 -11 -10z"/>
<path d="M2776 3494 c-8 -22 -4 -25 11 -9 7 8 9 16 4 19 -5 3 -12 -1 -15 -10z"/>
<path d="M2830 3506 c0 -2 7 -6 15 -10 8 -3 15 -1 15 4 0 6 -7 10 -15 10 -8 0
-15 -2 -15 -4z"/>
<path d="M1489 3497 c-7 -19 -6 -44 2 -56 8 -12 9 -11 4 7 -5 16 -2 22 9 22
20 0 21 16 1 24 -8 3 -15 4 -16 3z"/>
<path d="M1537 3493 c-4 -3 -7 -16 -6 -27 0 -19 1 -19 10 3 10 24 8 36 -4 24z"/>
<path d="M1958 3493 c7 -3 16 -2 19 1 4 3 -2 6 -13 5 -11 0 -14 -3 -6 -6z"/>
<path d="M1665 3470 c3 -5 8 -10 11 -10 2 0 4 5 4 10 0 6 -5 10 -11 10 -5 0
-7 -4 -4 -10z"/>
<path d="M2434 3468 c-4 -6 -3 -8 4 -4 6 3 13 -2 15 -11 4 -14 5 -13 6 5 1 23
-13 30 -25 10z"/>
<path d="M2520 3470 c-9 -6 -10 -10 -3 -10 6 0 15 5 18 10 8 12 4 12 -15 0z"/>
<path d="M2600 3469 c0 -6 4 -8 9 -4 5 3 11 -3 13 -12 3 -16 5 -15 9 2 5 16 1
21 -12 22 -11 1 -19 -3 -19 -8z"/>
<path d="M2975 3458 c1 -13 5 -22 9 -21 24 6 25 10 8 26 -18 16 -19 16 -17 -5z"/>
<path d="M3076 3469 c6 -11 44 -12 44 -1 0 4 -11 8 -25 8 -14 1 -22 -2 -19 -7z"/>
<path d="M1383 3449 c-1 -11 4 -19 12 -19 22 0 25 15 6 27 -14 9 -17 7 -18 -8z"/>
<path d="M2570 3460 c-9 -6 -10 -10 -3 -10 6 0 15 5 18 10 8 12 4 12 -15 0z"/>
<path d="M2690 3460 c-13 -8 -12 -10 3 -10 9 0 17 5 17 10 0 12 -1 12 -20 0z"/>
<path d="M2921 3451 c-9 -17 -8 -18 11 -13 13 3 17 7 10 10 -7 2 -10 8 -6 13
3 5 3 9 0 9 -3 0 -10 -9 -15 -19z"/>
<path d="M1835 3450 c-3 -5 -3 -10 1 -10 4 0 -3 -9 -16 -20 -18 -16 -20 -20
-7 -20 10 0 17 5 17 10 0 6 7 10 15 10 8 0 15 5 15 10 0 6 -5 10 -11 10 -5 0
-7 5 -4 10 3 6 4 10 1 10 -3 0 -8 -4 -11 -10z"/>
<path d="M1320 3434 c0 -8 -4 -13 -8 -10 -16 9 -31 -10 -25 -32 l6 -23 11 22
c13 26 39 39 30 15 -3 -9 -1 -16 5 -16 15 0 14 23 -1 38 -16 16 4 16 22 0 12
-11 12 -10 1 5 -17 21 -41 22 -41 1z"/>
<path d="M2180 3440 c0 -5 10 -10 23 -10 18 0 19 2 7 10 -19 13 -30 13 -30 0z"/>
<path d="M2388 3431 c-7 -10 -20 -17 -29 -16 -9 2 -16 -3 -16 -11 0 -10 4 -11
14 -3 9 8 13 8 13 0 0 -6 5 -11 10 -11 6 0 10 8 10 18 0 10 5 23 12 30 7 7 9
12 6 12 -4 0 -13 -8 -20 -19z"/>
<path d="M3096 3433 c-6 -14 -5 -15 5 -6 7 7 10 15 7 18 -3 3 -9 -2 -12 -12z"/>
<path d="M2060 3430 c0 -5 5 -10 10 -10 6 0 10 5 10 10 0 6 -4 10 -10 10 -5 0
-10 -4 -10 -10z"/>
<path d="M2475 3431 c3 -5 -2 -16 -10 -24 -19 -20 -20 -33 0 -17 8 6 20 8 27
4 10 -6 9 -3 -1 9 -9 12 -10 17 -2 17 7 0 9 5 6 10 -3 6 -11 10 -16 10 -6 0
-8 -4 -4 -9z"/>
<path d="M2510 3429 c0 -5 5 -7 10 -4 6 3 10 8 10 11 0 2 -4 4 -10 4 -5 0 -10
-5 -10 -11z"/>
<path d="M1520 3426 c0 -2 7 -7 16 -10 8 -3 12 -2 9 4 -6 10 -25 14 -25 6z"/>
<path d="M1756 3414 c-3 -9 -4 -20 0 -25 9 -16 -8 -10 -21 7 -10 15 -13 15
-28 0 -9 -9 -13 -24 -10 -32 5 -13 9 -10 19 12 9 21 13 24 13 11 1 -25 36 -18
36 7 0 11 9 23 20 27 19 7 19 8 -1 8 -12 1 -25 -6 -28 -15z"/>
<path d="M1890 3419 c0 -5 5 -7 10 -4 6 3 10 8 10 11 0 2 -4 4 -10 4 -5 0 -10
-5 -10 -11z"/>
<path d="M2620 3415 c0 -9 6 -12 15 -9 8 4 12 10 9 15 -8 14 -24 10 -24 -6z"/>
<path d="M2870 3415 c0 -8 6 -15 14 -15 8 0 17 -6 19 -12 3 -7 6 -3 6 9 1 17
-3 21 -16 16 -11 -4 -14 -3 -9 5 4 7 2 12 -3 12 -6 0 -11 -7 -11 -15z"/>
<path d="M2100 3402 c11 -23 12 -23 31 -6 10 9 19 20 19 23 0 3 -8 -2 -17 -11
-15 -16 -17 -16 -30 0 -12 15 -13 14 -3 -6z"/>
<path d="M2664 3412 c3 -6 -2 -13 -11 -15 -16 -4 -16 -5 -1 -6 21 -1 32 15 17
25 -7 4 -9 3 -5 -4z"/>
<path d="M2786 3408 c3 -5 10 -6 15 -3 13 9 11 12 -6 12 -8 0 -12 -4 -9 -9z"/>
<path d="M1360 3400 c0 -5 5 -10 11 -10 5 0 7 5 4 10 -3 6 -8 10 -11 10 -2 0
-4 -4 -4 -10z"/>
<path d="M1425 3365 c2 -25 5 -48 8 -51 3 -4 5 14 4 39 -1 25 -5 48 -8 51 -3
3 -5 -15 -4 -39z"/>
<path d="M2031 3394 c0 -11 3 -14 6 -6 3 7 2 16 -1 19 -3 4 -6 -2 -5 -13z"/>
<path d="M2050 3404 c0 -17 27 -37 34 -25 4 5 2 12 -4 16 -5 3 -10 3 -10 -2 0
-4 -5 -1 -10 7 -5 8 -10 10 -10 4z"/>
<path d="M2161 3394 c-7 -8 -11 -17 -9 -20 3 -2 13 5 23 16 10 11 14 20 9 20
-5 -1 -15 -8 -23 -16z"/>
<path d="M3035 3400 c-3 -5 0 -10 7 -10 10 0 9 -3 -2 -11 -12 -8 -10 -9 10 -5
14 3 28 6 33 6 4 0 7 5 7 12 0 6 -3 8 -6 5 -4 -3 -15 -2 -25 3 -12 7 -20 7
-24 0z"/>
<path d="M3101 3394 c0 -11 3 -14 6 -6 3 7 2 16 -1 19 -3 4 -6 -2 -5 -13z"/>
<path d="M1780 3391 c0 -6 4 -13 10 -16 6 -3 7 1 4 9 -7 18 -14 21 -14 7z"/>
<path d="M2411 3384 c0 -11 3 -14 6 -6 3 7 2 16 -1 19 -3 4 -6 -2 -5 -13z"/>
<path d="M2943 3393 c-18 -7 -16 -20 2 -20 8 0 15 6 15 14 0 7 -1 13 -2 12 -2
0 -9 -3 -15 -6z"/>
<path d="M1260 3375 c-7 -9 -8 -15 -2 -15 5 0 12 7 16 15 3 8 4 15 2 15 -2 0
-9 -7 -16 -15z"/>
<path d="M1310 3378 c0 -17 20 -38 35 -38 5 0 2 5 -8 11 -9 6 -15 14 -12 19 3
5 1 11 -5 15 -5 3 -10 0 -10 -7z"/>
<path d="M2260 3370 c-9 -6 -10 -10 -3 -10 6 0 15 5 18 10 8 12 4 12 -15 0z"/>
<path d="M2563 3373 c-7 -2 -12 -17 -12 -31 1 -21 2 -23 6 -7 3 11 10 26 15
33 11 13 10 13 -9 5z"/>
<path d="M2675 3369 c-4 -5 5 -9 19 -9 14 0 26 4 26 8 0 11 -39 12 -45 1z"/>
<path d="M1651 3363 c4 -22 -3 -31 -18 -28 -10 2 -18 4 -18 5 0 1 -8 3 -17 5
-10 2 -18 -1 -18 -7 0 -6 6 -8 14 -5 8 3 23 -3 34 -14 22 -20 33 -24 31 -11
-1 4 -1 9 1 12 8 22 8 50 0 50 -6 0 -9 -3 -9 -7z"/>
<path d="M2096 3351 c-10 -11 -13 -20 -7 -22 8 -3 8 -15 2 -36 -5 -17 -7 -34
-3 -37 14 -15 19 -2 16 44 -1 28 1 48 6 45 4 -3 10 2 14 10 8 21 -8 19 -28 -4z"/>
<path d="M2396 3357 c3 -10 9 -15 12 -12 3 3 0 11 -7 18 -10 9 -11 8 -5 -6z"/>
<path d="M1461 3344 c0 -11 3 -14 6 -6 3 7 2 16 -1 19 -3 4 -6 -2 -5 -13z"/>
<path d="M2185 3350 c3 -5 8 -10 11 -10 2 0 4 5 4 10 0 6 -5 10 -11 10 -5 0
-7 -4 -4 -10z"/>
<path d="M2491 3343 c-6 -12 -5 -22 4 -30 9 -8 12 -5 11 18 -1 34 -2 35 -15
12z"/>
<path d="M2950 3350 c0 -5 5 -10 11 -10 5 0 7 5 4 10 -3 6 -8 10 -11 10 -2 0
-4 -4 -4 -10z"/>
<path d="M3240 3344 c0 -8 5 -12 10 -9 6 4 8 11 5 16 -9 14 -15 11 -15 -7z"/>
<path d="M1296 3335 c-3 -9 0 -15 9 -15 16 0 20 16 6 24 -5 3 -11 -1 -15 -9z"/>
<path d="M1389 3347 c-1 -4 -2 -12 -3 -17 0 -6 -7 -15 -15 -19 -9 -6 -10 -11
-2 -15 6 -4 11 -1 12 6 1 7 5 2 9 -12 8 -25 8 -25 9 -2 1 14 5 21 12 16 7 -4
7 2 -1 17 -15 29 -20 34 -21 26z"/>
<path d="M1720 3340 c0 -5 5 -10 11 -10 5 0 7 5 4 10 -3 6 -8 10 -11 10 -2 0
-4 -4 -4 -10z"/>
<path d="M1940 3340 c0 -5 5 -10 10 -10 6 0 10 5 10 10 0 6 -4 10 -10 10 -5 0
-10 -4 -10 -10z"/>
<path d="M2055 3340 c3 -5 8 -10 11 -10 2 0 4 5 4 10 0 6 -5 10 -11 10 -5 0
-7 -4 -4 -10z"/>
<path d="M2370 3339 c0 -5 5 -7 10 -4 6 3 10 8 10 11 0 2 -4 4 -10 4 -5 0 -10
-5 -10 -11z"/>
<path d="M2891 3334 c0 -11 3 -14 6 -6 3 7 2 16 -1 19 -3 4 -6 -2 -5 -13z"/>
<path d="M3045 3341 c-6 -11 9 -23 19 -14 9 9 7 23 -3 23 -6 0 -12 -4 -16 -9z"/>
<path d="M1182 3320 c-9 -15 -8 -19 5 -24 9 -4 21 -1 27 5 8 9 6 10 -9 5 -19
-6 -19 -5 -2 8 14 11 15 15 4 19 -7 3 -19 -3 -25 -13z"/>
<path d="M1260 3333 c0 -7 11 -23 24 -36 19 -19 26 -21 30 -11 3 8 -1 14 -9
14 -8 0 -21 10 -29 22 -9 12 -16 17 -16 11z"/>
<path d="M2230 3325 c0 -8 2 -15 4 -15 2 0 6 7 10 15 3 8 1 15 -4 15 -6 0 -10
-7 -10 -15z"/>
<path d="M3185 3330 c-3 -5 1 -10 9 -10 9 0 16 5 16 10 0 6 -4 10 -9 10 -6 0
-13 -4 -16 -10z"/>
<path d="M2150 3312 c0 -13 2 -14 8 -4 7 9 13 8 27 -8 16 -17 16 -20 2 -20 -9
0 -15 -8 -14 -19 1 -13 7 -17 21 -13 20 5 20 5 0 13 -17 6 -15 8 10 14 28 8
29 9 8 16 -12 5 -22 14 -22 22 0 7 -9 13 -20 14 -13 1 -20 -4 -20 -15z"/>
<path d="M2205 3320 c-3 -5 -1 -10 4 -10 6 0 11 5 11 10 0 6 -2 10 -4 10 -3 0
-8 -4 -11 -10z"/>
<path d="M2257 3323 c-4 -3 -7 -11 -7 -17 0 -6 5 -5 12 2 6 6 9 14 7 17 -3 3
-9 2 -12 -2z"/>
<path d="M2330 3325 c0 -3 9 -16 21 -28 13 -14 19 -17 17 -7 -5 23 -38 53 -38
35z"/>
<path d="M2855 3320 c-3 -5 -1 -10 4 -10 6 0 11 5 11 10 0 6 -2 10 -4 10 -3 0
-8 -4 -11 -10z"/>
<path d="M1671 3304 c0 -11 3 -14 6 -6 3 7 2 16 -1 19 -3 4 -6 -2 -5 -13z"/>
<path d="M1740 3310 c0 -6 7 -10 15 -10 8 0 15 2 15 4 0 2 -7 6 -15 10 -8 3
-15 1 -15 -4z"/>
<path d="M1991 3308 c0 -10 -6 -18 -13 -18 -22 0 0 -11 32 -17 28 -4 30 -3 19
10 -8 8 -17 13 -21 11 -3 -2 -9 4 -11 13 -4 17 -5 17 -6 1z"/>
<path d="M2290 3306 c0 -8 -7 -17 -16 -20 -8 -3 -13 -10 -9 -15 3 -6 12 -8 20
-5 8 4 13 10 10 14 -3 5 2 13 11 18 15 8 15 10 0 15 -10 4 -16 1 -16 -7z"/>
<path d="M2571 3304 c0 -11 3 -14 6 -6 3 7 2 16 -1 19 -3 4 -6 -2 -5 -13z"/>
<path d="M3234 3312 c4 -7 1 -12 -8 -12 -9 0 -16 -4 -16 -9 0 -5 9 -7 20 -4
22 6 26 18 8 29 -7 4 -8 3 -4 -4z"/>
<path d="M1229 3298 c-1 -7 -1 -16 0 -20 0 -5 -6 -8 -14 -8 -8 0 -15 -8 -15
-17 0 -15 -2 -16 -10 -3 -8 13 -10 13 -10 -2 0 -11 -7 -15 -22 -12 -13 2 -16
1 -8 -2 19 -9 56 -44 46 -44 -4 0 -16 5 -27 10 -14 8 -19 7 -19 -3 0 -8 3 -17
8 -21 4 -4 8 -12 8 -17 1 -5 2 -13 3 -19 2 -14 31 0 31 15 0 7 -10 15 -22 18
-36 10 -16 15 27 8 28 -5 40 -12 39 -23 -1 -10 4 -14 13 -11 7 3 11 8 9 11 -3
3 0 12 7 21 10 14 10 14 -4 3 -14 -10 -18 -10 -22 2 -4 9 0 22 8 30 8 8 15 22
15 30 0 9 5 16 12 16 6 0 9 2 6 5 -8 9 -38 -6 -32 -16 3 -5 -2 -19 -10 -31 -9
-12 -16 -18 -16 -13 0 6 -4 4 -9 -4 -7 -11 -11 -9 -20 8 -11 19 -9 21 16 21
26 0 26 1 7 16 -17 14 -17 15 -1 10 10 -3 15 -2 12 3 -3 5 3 12 12 14 17 4 17
5 1 6 -11 1 -15 6 -12 16 4 8 3 15 0 15 -3 0 -7 -6 -7 -12z"/>
<path d="M1690 3300 c0 -5 5 -10 10 -10 6 0 10 5 10 10 0 6 -4 10 -10 10 -5 0
-10 -4 -10 -10z"/>
<path d="M2617 3290 c3 -11 7 -20 9 -20 2 0 4 9 4 20 0 11 -4 20 -9 20 -5 0
-7 -9 -4 -20z"/>
<path d="M2660 3306 c0 -4 7 -14 15 -22 8 -9 15 -11 15 -6 0 5 -7 15 -15 22
-8 7 -15 9 -15 6z"/>
<path d="M3139 3293 c-13 -16 -12 -17 4 -4 9 7 17 15 17 17 0 8 -8 3 -21 -13z"/>
<path d="M1590 3290 c13 -9 13 -10 0 -11 -8 -1 -19 -1 -23 0 -5 1 -6 -3 -3 -8
4 -5 2 -12 -4 -16 -14 -9 -12 -28 3 -22 6 2 11 10 9 17 -2 8 3 10 13 7 8 -4
15 -2 15 3 0 5 10 12 21 15 17 6 19 9 8 16 -8 5 -23 9 -34 9 -17 0 -17 -2 -5
-10z"/>
<path d="M2592 3274 c-7 -8 -8 -14 -3 -14 10 0 25 19 20 25 -2 1 -10 -3 -17
-11z"/>
<path d="M3280 3282 c0 -12 19 -26 26 -19 2 2 -2 10 -11 17 -9 8 -15 8 -15 2z"/>
<path d="M1525 3269 c-4 -6 -5 -13 -1 -16 3 -3 -2 -12 -10 -20 -8 -9 -12 -18
-9 -21 9 -9 25 13 31 41 5 28 0 35 -11 16z"/>
<path d="M1643 3273 c-21 -8 -15 -23 8 -23 18 0 19 -2 9 -15 -13 -16 -3 -20
17 -7 15 10 -17 52 -34 45z"/>
<path d="M2131 3266 c-9 -10 -8 -15 4 -20 8 -3 15 -4 15 -2 0 3 3 11 6 20 8
20 -9 21 -25 2z"/>
<path d="M2427 3267 c-3 -9 -2 -28 3 -44 5 -15 9 -20 9 -10 1 9 7 17 14 18 6
0 3 4 -8 9 -17 7 -16 9 10 10 22 2 25 4 10 7 -11 3 -23 10 -26 15 -4 5 -9 3
-12 -5z"/>
<path d="M2760 3270 c0 -5 5 -10 11 -10 5 0 7 5 4 10 -3 6 -8 10 -11 10 -2 0
-4 -4 -4 -10z"/>
<path d="M2795 3270 c-3 -5 1 -10 10 -10 9 0 13 5 10 10 -3 6 -8 10 -10 10 -2
0 -7 -4 -10 -10z"/>
<path d="M2911 3267 c-8 -10 -7 -14 2 -14 8 0 14 6 14 14 0 7 -1 13 -2 13 -2
0 -8 -6 -14 -13z"/>
<path d="M1827 3263 c-8 -13 9 -48 16 -36 4 7 3 14 -3 18 -6 4 -8 11 -5 16 4
5 4 9 1 9 -3 0 -7 -3 -9 -7z"/>
<path d="M1863 3263 c-10 -4 -9 -9 3 -20 18 -18 24 -15 15 8 -3 9 -12 14 -18
12z"/>
<path d="M2840 3260 c0 -5 5 -10 11 -10 8 0 8 -4 1 -13 -6 -7 -7 -18 -3 -25 5
-9 12 -7 26 8 17 19 17 20 2 14 -10 -3 -17 -3 -16 2 3 19 -1 34 -11 34 -5 0
-10 -4 -10 -10z"/>
<path d="M3181 3253 c7 -8 15 -10 18 -6 4 4 10 11 14 14 4 4 -4 7 -18 7 -21 0
-23 -3 -14 -15z"/>
<path d="M1295 3250 c-3 -5 -2 -10 4 -10 5 0 13 5 16 10 3 6 2 10 -4 10 -5 0
-13 -4 -16 -10z"/>
<path d="M1915 3249 c-4 -6 -4 -13 -1 -16 3 -4 6 -1 6 6 0 7 5 9 12 5 7 -4 8
-3 4 4 -9 15 -13 15 -21 1z"/>
<path d="M2245 3250 c3 -5 8 -10 11 -10 2 0 4 5 4 10 0 6 -5 10 -11 10 -5 0
-7 -4 -4 -10z"/>
<path d="M2291 3248 c-1 -10 8 -22 19 -28 19 -10 19 -12 5 -27 -9 -8 -14 -18
-11 -20 3 -3 13 2 23 12 16 17 16 18 -3 34 -12 9 -23 23 -27 31 -4 12 -6 11
-6 -2z"/>
<path d="M2615 3249 c-4 -6 -5 -12 -2 -15 2 -3 7 2 10 11 7 17 1 20 -8 4z"/>
<path d="M1361 3245 c0 -5 4 -17 9 -25 7 -11 10 -11 10 -2 0 7 4 11 9 8 5 -3
15 2 22 12 13 15 12 16 -3 3 -15 -11 -18 -11 -18 0 0 12 -2 12 -9 0 -7 -11 -9
-11 -14 0 -3 8 -6 10 -6 4z"/>
<path d="M1601 3241 c-9 -6 -12 -18 -7 -37 7 -25 9 -27 17 -11 15 26 8 59 -10
48z"/>
<path d="M2208 3242 c-10 -2 -18 -10 -18 -18 0 -18 8 -18 27 1 18 18 15 23 -9
17z"/>
<path d="M2384 3235 c-5 -12 -9 -13 -20 -4 -19 16 -18 4 2 -15 12 -12 12 -16
2 -16 -7 0 -21 -12 -31 -25 -20 -28 -14 -33 10 -10 8 8 19 13 24 9 5 -3 12 2
15 10 3 9 12 16 19 16 8 0 11 8 8 20 -7 27 -22 35 -29 15z"/>
<path d="M2570 3246 c0 -2 7 -7 16 -10 8 -3 12 -2 9 4 -6 10 -25 14 -25 6z"/>
<path d="M2740 3239 c0 -5 5 -7 10 -4 6 3 10 8 10 11 0 2 -4 4 -10 4 -5 0 -10
-5 -10 -11z"/>
<path d="M2060 3220 c-13 -11 -19 -20 -13 -20 5 0 18 9 28 20 10 11 16 20 13
20 -3 0 -15 -9 -28 -20z"/>
<path d="M2258 3229 c-19 -11 -25 -39 -8 -39 5 0 7 7 4 15 -4 8 -1 15 5 15 6
0 11 -4 11 -10 0 -5 5 -10 11 -10 8 0 9 4 0 13 -6 8 -8 17 -4 20 9 10 1 8 -19
-4z"/>
<path d="M3040 3229 c0 -5 5 -7 10 -4 6 3 10 8 10 11 0 2 -4 4 -10 4 -5 0 -10
-5 -10 -11z"/>
<path d="M3255 3230 c-3 -5 -1 -10 4 -10 6 0 11 5 11 10 0 6 -2 10 -4 10 -3 0
-8 -4 -11 -10z"/>
<path d="M1288 3223 c7 -3 16 -2 19 1 4 3 -2 6 -13 5 -11 0 -14 -3 -6 -6z"/>
<path d="M1345 3221 c3 -5 -3 -11 -12 -13 -13 -3 -10 -6 9 -10 24 -4 26 -3 17
13 -5 11 -12 19 -15 19 -3 0 -3 -4 1 -9z"/>
<path d="M1444 3218 c-3 -4 2 -8 11 -8 9 0 13 -5 10 -11 -4 -6 3 -13 15 -16
12 -3 19 -11 16 -19 -3 -7 -1 -16 4 -19 6 -4 10 0 10 9 0 8 3 22 6 31 5 13 2
15 -22 10 -16 -4 -24 -3 -19 2 18 15 15 32 -6 30 -11 -1 -23 -5 -25 -9z"/>
<path d="M2678 3225 c-7 -7 2 -54 12 -60 10 -6 40 4 40 14 0 3 -10 11 -22 16
-13 6 -22 16 -20 23 2 13 -1 15 -10 7z m27 -45 c3 -5 1 -10 -4 -10 -6 0 -11 5
-11 10 0 6 2 10 4 10 3 0 8 -4 11 -10z"/>
<path d="M2752 3221 c-11 -6 -9 -9 5 -13 12 -3 20 0 20 8 0 16 -6 17 -25 5z"/>
<path d="M2803 3207 c0 -12 1 -16 4 -9 3 6 9 12 14 12 6 0 7 -5 3 -12 -4 -7
-3 -8 4 -4 16 10 15 14 -6 25 -15 8 -18 5 -19 -12z"/>
<path d="M3139 3213 c-13 -16 -12 -17 4 -4 16 13 21 21 13 21 -2 0 -10 -8 -17
-17z"/>
<path d="M1396 3204 c-20 -20 -21 -50 -1 -58 11 -4 15 1 15 17 0 18 -2 19 -10
7 -8 -13 -10 -12 -10 3 0 9 4 17 9 17 5 0 11 7 15 15 7 19 1 19 -18 -1z"/>
<path d="M2970 3214 c0 -5 7 -19 15 -30 11 -13 14 -14 13 -4 -2 8 4 15 13 14
9 -1 16 5 16 12 0 10 -5 10 -20 2 -15 -7 -22 -7 -28 3 -5 8 -9 9 -9 3z"/>
<path d="M1550 3206 c0 -2 7 -7 16 -10 8 -3 12 -2 9 4 -6 10 -25 14 -25 6z"/>
<path d="M1765 3200 c-3 -5 -1 -10 4 -10 6 0 11 5 11 10 0 6 -2 10 -4 10 -3 0
-8 -4 -11 -10z"/>
<path d="M2566 3193 c2 -6 -2 -13 -9 -16 -7 -2 -7 -6 -1 -10 5 -3 16 3 23 15
7 11 8 17 3 14 -6 -3 -12 -3 -15 1 -2 5 -2 3 -1 -4z"/>
<path d="M2945 3200 c3 -5 8 -10 11 -10 2 0 4 5 4 10 0 6 -5 10 -11 10 -5 0
-7 -4 -4 -10z"/>
<path d="M3215 3200 c-4 -6 -11 -7 -17 -4 -7 4 -8 2 -4 -5 4 -6 13 -9 19 -5 7
3 2 -3 -11 -13 -13 -10 -20 -22 -16 -26 4 -4 15 0 24 8 10 9 21 15 26 14 24
-4 34 3 33 24 -1 15 -3 17 -6 6 -3 -11 -11 -15 -23 -12 -11 3 -17 9 -14 14 3
5 3 9 0 9 -3 0 -8 -5 -11 -10z"/>
<path d="M1962 3186 c10 -7 12 -18 7 -31 -4 -11 -8 -14 -8 -7 -1 7 -6 10 -13
6 -8 -5 -9 -2 -5 10 4 10 3 15 -3 11 -17 -11 -11 -32 11 -38 12 -3 18 -10 14
-16 -3 -7 0 -8 9 -5 8 3 13 11 10 19 -4 8 4 13 22 13 14 0 30 6 35 13 15 24
10 30 -13 17 -27 -14 -48 -19 -47 -10 3 20 -3 29 -17 29 -15 0 -15 -2 -2 -11z"/>
<path d="M3086 3187 c3 -10 9 -15 12 -12 3 3 0 11 -7 18 -10 9 -11 8 -5 -6z"/>
<path d="M1343 3175 c0 -8 4 -12 9 -9 5 3 6 10 3 15 -9 13 -12 11 -12 -6z"/>
<path d="M1425 3179 c11 -16 -4 -59 -20 -59 -8 0 -15 5 -15 11 0 5 -4 8 -10 4
-5 -3 -7 -12 -4 -19 6 -17 43 -9 51 10 3 8 10 11 15 8 6 -4 8 2 3 15 -4 14 -2
21 7 21 10 0 9 3 -2 10 -20 13 -33 13 -25 -1z"/>
<path d="M1740 3180 c0 -5 6 -11 13 -14 6 -4 -2 -4 -18 -2 -26 4 -31 1 -32
-17 0 -12 1 -16 4 -9 3 6 15 12 28 12 12 0 28 6 34 14 9 11 7 15 -9 19 -11 3
-20 1 -20 -3z"/>
<path d="M2281 3182 c-1 -7 -5 -10 -11 -7 -16 10 -12 -11 5 -25 21 -17 28 -8
16 21 -5 13 -10 18 -10 11z"/>
<path d="M2495 3179 c-4 -6 -5 -12 -2 -15 2 -3 7 2 10 11 7 17 1 20 -8 4z"/>
<path d="M2625 3180 c3 -5 8 -10 11 -10 2 0 4 5 4 10 0 6 -5 10 -11 10 -5 0
-7 -4 -4 -10z"/>
<path d="M2056 3173 c-3 -4 -2 -11 2 -17 11 -14 -9 -51 -27 -51 -8 0 -16 -7
-18 -15 -4 -12 -3 -13 5 -1 5 7 14 11 20 7 5 -3 16 1 23 10 7 9 22 20 34 24
18 8 18 9 1 9 -11 1 -16 6 -13 15 6 15 -16 30 -27 19z"/>
<path d="M1288 3163 c7 -3 16 -2 19 1 4 3 -2 6 -13 5 -11 0 -14 -3 -6 -6z"/>
<path d="M1520 3150 c0 -11 5 -20 10 -20 6 0 10 -7 10 -15 0 -8 5 -15 10 -15
17 0 11 35 -10 53 -19 16 -20 16 -20 -3z"/>
<path d="M1586 3155 c4 -8 8 -15 10 -15 2 0 4 7 4 15 0 8 -4 15 -10 15 -5 0
-7 -7 -4 -15z"/>
<path d="M2790 3160 c0 -5 7 -7 15 -4 8 4 15 8 15 10 0 2 -7 4 -15 4 -8 0 -15
-4 -15 -10z"/>
<path d="M3006 3153 c-4 -10 -4 -14 0 -10 4 4 13 -1 20 -11 12 -15 13 -15 14
-1 0 9 -6 22 -14 28 -11 9 -15 8 -20 -6z"/>
<path d="M3125 3160 c3 -4 14 -10 25 -13 11 -3 18 -2 15 3 -3 4 -14 10 -25 13
-11 3 -18 2 -15 -3z"/>
<path d="M3223 3146 c4 -11 1 -16 -11 -17 -9 0 -12 -3 -5 -5 14 -6 86 26 78
34 -3 3 -10 1 -17 -6 -8 -8 -17 -8 -31 0 -17 9 -19 8 -14 -6z"/>
<path d="M2490 3143 c0 -16 25 -23 41 -11 11 8 11 9 -2 5 -9 -3 -22 0 -28 6
-8 8 -11 8 -11 0z"/>
<path d="M2595 3140 c-3 -5 -1 -10 4 -10 6 0 11 5 11 10 0 6 -2 10 -4 10 -3 0
-8 -4 -11 -10z"/>
<path d="M2846 3135 c-3 -8 -1 -15 4 -15 6 0 10 7 10 15 0 8 -2 15 -4 15 -2 0
-6 -7 -10 -15z"/>
<path d="M1275 3129 c-4 -6 -5 -12 -2 -15 2 -3 7 2 10 11 7 17 1 20 -8 4z"/>
<path d="M1673 3118 c-2 -16 1 -18 10 -9 7 7 8 14 1 21 -6 6 -10 2 -11 -12z"/>
<path d="M1746 3125 c4 -8 8 -15 10 -15 2 0 4 7 4 15 0 8 -4 15 -10 15 -5 0
-7 -7 -4 -15z"/>
<path d="M2211 3132 c-15 -5 -14 -18 5 -36 20 -20 34 -20 34 -1 0 8 -5 15 -11
15 -5 0 -7 -5 -3 -12 4 -7 3 -8 -4 -4 -17 10 -15 14 16 30 l27 15 -26 -1 c-15
-1 -32 -4 -38 -6z"/>
<path d="M2310 3129 c0 -5 5 -7 10 -4 6 3 10 8 10 11 0 2 -4 4 -10 4 -5 0 -10
-5 -10 -11z"/>
<path d="M3125 3130 c4 -7 2 -16 -6 -21 -11 -7 -10 -9 4 -9 19 0 23 25 5 36
-7 5 -8 3 -3 -6z"/>
<path d="M1775 3121 c-3 -5 -2 -12 3 -15 5 -3 9 1 9 9 0 17 -3 19 -12 6z"/>
<path d="M2380 3126 c0 -2 7 -7 16 -10 8 -3 12 -2 9 4 -6 10 -25 14 -25 6z"/>
<path d="M2908 3123 c6 -2 12 -12 13 -21 0 -14 2 -13 9 3 5 11 9 14 9 7 1 -7
6 -10 11 -7 20 13 9 25 -22 24 -18 0 -27 -3 -20 -6z"/>
<path d="M1180 3105 c0 -8 8 -11 20 -8 11 3 20 7 20 8 0 1 -9 5 -20 8 -12 3
-20 0 -20 -8z"/>
<path d="M1322 3097 c3 -31 29 -34 34 -4 1 9 -2 14 -8 11 -6 -4 -14 0 -19 7
-6 10 -8 5 -7 -14z"/>
<path d="M1885 3109 c-4 -6 -4 -13 -1 -16 3 -4 6 -1 6 6 0 9 5 9 20 1 11 -6
20 -8 20 -6 0 13 -39 26 -45 15z"/>
<path d="M2091 3104 c0 -11 3 -14 6 -6 3 7 2 16 -1 19 -3 4 -6 -2 -5 -13z"/>
<path d="M2581 3113 c0 -7 -9 -10 -18 -7 -14 5 -15 4 -4 -4 7 -5 10 -15 7 -21
-4 -6 -2 -11 3 -11 6 0 11 -10 11 -22 0 -13 3 -18 8 -12 4 6 18 17 30 23 13 7
21 15 18 18 -3 3 -12 0 -21 -7 -16 -13 -18 -10 -28 35 -3 11 -5 15 -6 8z"/>
<path d="M2690 3108 c0 -4 4 -8 9 -8 6 0 12 4 15 8 3 5 -1 9 -9 9 -8 0 -15 -4
-15 -9z"/>
<path d="M2827 3099 c6 -22 23 -26 23 -5 0 8 -6 16 -14 19 -10 4 -12 0 -9 -14z"/>
<path d="M3087 3107 c-3 -8 -1 -20 4 -28 6 -10 9 -7 9 14 0 29 -5 35 -13 14z"/>
<path d="M2174 3095 c3 -9 -3 -19 -14 -25 -14 -7 -20 -7 -20 0 0 5 -4 10 -10
10 -5 0 -10 -7 -10 -15 0 -9 -11 -27 -25 -41 -14 -14 -25 -33 -24 -42 0 -11 3
-9 10 8 8 19 12 21 19 11 5 -9 4 -22 -3 -32 -6 -10 -8 -21 -4 -25 12 -12 19 3
21 47 2 41 23 69 53 69 7 0 13 5 13 11 0 5 4 8 9 5 5 -4 7 3 4 14 -3 11 -10
20 -15 20 -6 0 -8 -7 -4 -15z"/>
<path d="M2500 3096 c0 -9 5 -16 10 -16 6 0 10 4 10 9 0 6 -4 13 -10 16 -5 3
-10 -1 -10 -9z"/>
<path d="M2656 3093 c-4 -10 -4 -14 0 -10 4 4 13 2 21 -4 9 -9 13 -8 13 0 0 6
-5 11 -11 11 -5 0 -7 5 -4 10 3 6 2 10 -3 10 -6 0 -13 -8 -16 -17z"/>
<path d="M2725 3100 c-3 -6 1 -7 9 -4 18 7 21 14 7 14 -6 0 -13 -4 -16 -10z"/>
<path d="M2867 3103 c-9 -9 -9 -41 1 -46 4 -3 7 8 7 24 0 16 0 29 -1 29 0 0
-4 -3 -7 -7z"/>
<path d="M2890 3095 c-11 -13 -11 -19 2 -31 13 -13 15 -13 15 1 0 8 -5 15 -11
15 -6 0 -4 4 4 10 8 5 12 12 9 15 -4 3 -12 -2 -19 -10z"/>
<path d="M3156 3101 c-3 -4 6 -6 19 -3 14 2 25 6 25 8 0 8 -39 4 -44 -5z"/>
<path d="M1965 3089 c-4 -6 -5 -12 -2 -15 2 -3 7 2 10 11 7 17 1 20 -8 4z"/>
<path d="M3038 3093 c7 -3 16 -2 19 1 4 3 -2 6 -13 5 -11 0 -14 -3 -6 -6z"/>
<path d="M1250 3075 c0 -9 6 -12 15 -9 8 4 15 7 15 9 0 2 -7 5 -15 9 -9 3 -15
0 -15 -9z"/>
<path d="M1377 3083 c-10 -9 -9 -23 1 -23 5 0 9 7 9 15 0 17 -1 18 -10 8z"/>
<path d="M1415 3080 c-3 -5 -1 -10 4 -10 6 0 11 5 11 10 0 6 -2 10 -4 10 -3 0
-8 -4 -11 -10z"/>
<path d="M1904 3070 c0 -13 4 -16 10 -10 7 7 7 13 0 20 -6 6 -10 3 -10 -10z"/>
<path d="M2735 3080 c-3 -5 1 -10 10 -10 9 0 13 5 10 10 -3 6 -8 10 -10 10 -2
0 -7 -4 -10 -10z"/>
<path d="M3132 3070 c0 -14 2 -19 5 -12 2 6 2 18 0 25 -3 6 -5 1 -5 -13z"/>
<path d="M1716 3072 c-3 -6 3 -12 14 -15 11 -3 23 0 27 6 3 7 3 9 -2 5 -4 -4
-14 -3 -21 3 -7 6 -15 6 -18 1z"/>
<path d="M2422 3050 c0 -19 2 -27 5 -17 2 9 2 25 0 35 -3 9 -5 1 -5 -18z"/>
<path d="M2453 3072 c-8 -5 -8 -12 3 -26 13 -19 14 -19 14 7 0 30 0 30 -17 19z"/>
<path d="M2480 3069 c0 -5 5 -7 10 -4 6 4 10 -6 11 -22 l1 -28 7 25 c4 15 3
28 -3 32 -16 11 -26 10 -26 -3z"/>
<path d="M2530 3070 c0 -5 5 -10 11 -10 5 0 7 5 4 10 -3 6 -8 10 -11 10 -2 0
-4 -4 -4 -10z"/>
<path d="M3030 3069 c-13 -9 -12 -10 3 -5 9 3 17 1 17 -4 0 -6 -7 -10 -15 -10
-8 0 -15 -8 -14 -17 0 -11 3 -13 6 -5 2 6 9 12 14 12 6 0 7 -4 4 -10 -3 -6 1
-7 9 -4 19 7 20 15 4 37 -10 13 -17 14 -28 6z"/>
<path d="M3150 3069 c0 -11 27 -12 34 -1 2 4 -4 9 -15 9 -10 1 -19 -2 -19 -8z"/>
<path d="M1293 3048 c-2 -16 1 -18 10 -9 7 7 8 14 1 21 -6 6 -10 2 -11 -12z"/>
<path d="M1844 3055 c-3 -8 -3 -19 1 -25 10 -16 -23 -24 -40 -10 -13 11 -14
10 -9 -4 6 -16 53 -23 55 -8 0 4 3 19 5 35 5 29 -3 37 -12 12z"/>
<path d="M2987 3033 c7 -48 11 -51 19 -19 4 17 1 31 -9 41 -14 14 -15 11 -10
-22z"/>
<path d="M1461 3030 c1 -17 3 -19 6 -7 2 9 9 17 15 17 5 0 8 -7 4 -15 -3 -8
-2 -15 3 -15 5 0 11 10 13 23 3 18 0 22 -19 22 -18 0 -23 -5 -22 -25z"/>
<path d="M1980 3048 c0 -9 5 -20 10 -23 13 -8 13 5 0 25 -8 13 -10 13 -10 -2z"/>
<path d="M2751 3051 c-9 -6 -7 -10 8 -14 12 -3 21 -1 21 3 0 14 -15 19 -29 11z"/>
<path d="M3094 3052 c-6 -4 -13 -14 -16 -23 -5 -13 -2 -16 15 -11 12 3 16 7 9
10 -9 3 -8 8 5 18 18 14 7 20 -13 6z"/>
<path d="M1371 3036 c-1 -15 -4 -16 -16 -6 -8 6 -20 10 -27 7 -8 -4 -7 -6 4
-6 11 -1 15 -6 12 -16 -7 -17 4 -19 24 -6 8 5 12 17 9 27 -5 18 -5 18 -6 0z"/>
<path d="M1441 3034 c0 -11 3 -14 6 -6 3 7 2 16 -1 19 -3 4 -6 -2 -5 -13z"/>
<path d="M1577 3035 c-4 -8 -2 -17 3 -20 6 -4 10 3 10 14 0 25 -6 27 -13 6z"/>
<path d="M1600 3041 c0 -5 8 -15 17 -22 15 -12 16 -12 10 3 -3 9 -1 19 6 22 7
2 2 5 -10 5 -13 1 -23 -3 -23 -8z"/>
<path d="M1816 3035 c4 -8 8 -15 10 -15 2 0 4 7 4 15 0 8 -4 15 -10 15 -5 0
-7 -7 -4 -15z"/>
<path d="M1931 3041 c-10 -7 -7 -9 12 -8 15 1 27 5 27 10 0 10 -22 9 -39 -2z"/>
<path d="M2481 3034 c0 -11 3 -14 6 -6 3 7 2 16 -1 19 -3 4 -6 -2 -5 -13z"/>
<path d="M2830 3040 c0 -4 11 -10 25 -12 13 -3 22 -2 20 2 -7 11 -45 20 -45
10z"/>
<path d="M1230 3029 c0 -5 5 -7 10 -4 6 3 10 8 10 11 0 2 -4 4 -10 4 -5 0 -10
-5 -10 -11z"/>
<path d="M1894 3026 c-9 -10 -7 -15 7 -24 12 -8 19 -8 19 -2 0 5 -4 10 -10 10
-5 0 -7 7 -4 15 7 18 3 19 -12 1z"/>
<path d="M2947 3027 c-3 -9 -16 -13 -34 -11 -15 2 -22 1 -16 -2 10 -4 10 -11
2 -27 -9 -20 -9 -20 4 -4 8 9 22 17 31 17 16 0 33 26 23 36 -2 3 -7 -2 -10 -9z"/>
<path d="M1550 3001 c0 -24 3 -28 20 -24 11 3 20 7 20 9 0 2 -9 13 -20 24
l-20 20 0 -29z"/>
<path d="M2380 3019 c0 -5 5 -7 10 -4 6 3 10 8 10 11 0 2 -4 4 -10 4 -5 0 -10
-5 -10 -11z"/>
<path d="M2800 3020 c0 -5 5 -10 11 -10 5 0 7 5 4 10 -3 6 -8 10 -11 10 -2 0
-4 -4 -4 -10z"/>
<path d="M1521 3004 c0 -11 3 -14 6 -6 3 7 2 16 -1 19 -3 4 -6 -2 -5 -13z"/>
<path d="M2046 3007 c3 -10 9 -15 12 -12 3 3 0 11 -7 18 -10 9 -11 8 -5 -6z"/>
<path d="M1993 2995 c-3 -9 2 -22 13 -30 13 -9 20 -10 23 -3 2 6 -4 15 -13 20
-9 5 -14 13 -11 19 4 5 4 9 0 9 -3 0 -8 -7 -12 -15z"/>
<path d="M2310 3001 c0 -5 5 -13 10 -16 6 -3 10 -2 10 4 0 5 -4 13 -10 16 -5
3 -10 2 -10 -4z"/>
<path d="M2468 2993 c-3 -12 0 -20 8 -20 14 0 28 26 19 35 -3 3 -5 -1 -5 -9 0
-11 -2 -12 -9 -1 -6 11 -9 9 -13 -5z"/>
<path d="M2850 2985 c0 -23 3 -27 10 -15 8 12 10 12 10 1 0 -8 3 -12 6 -8 3 3
-1 16 -10 29 l-16 22 0 -29z"/>
<path d="M1693 2985 c0 -7 6 -11 14 -8 7 3 13 6 13 8 0 2 -6 5 -13 8 -8 3 -14
-1 -14 -8z"/>
<path d="M2401 2984 c0 -11 3 -14 6 -6 3 7 2 16 -1 19 -3 4 -6 -2 -5 -13z"/>
<path d="M1655 2980 c4 -6 11 -8 16 -5 14 9 11 15 -7 15 -8 0 -12 -5 -9 -10z"/>
<path d="M1751 2978 c0 -9 4 -20 9 -23 6 -4 8 -11 5 -16 -9 -14 5 -11 21 6 14
13 13 15 -5 15 -11 0 -22 8 -24 18 -4 15 -5 15 -6 0z"/>
<path d="M2800 2980 c0 -7 -7 -9 -16 -6 -8 3 -12 2 -9 -3 3 -5 -3 -11 -12 -13
-15 -3 -14 -5 5 -10 12 -3 20 -2 16 3 -3 5 4 9 15 9 22 0 28 14 11 25 -5 3
-10 1 -10 -5z"/>
<path d="M1903 2965 c0 -8 4 -15 9 -15 4 0 8 4 8 9 0 6 -4 12 -8 15 -5 3 -9
-1 -9 -9z"/>
<path d="M1944 2969 c-3 -6 -2 -15 4 -21 7 -7 14 -3 21 11 10 17 9 21 -3 21
-8 0 -18 -5 -22 -11z"/>
<path d="M1577 2951 c-3 -13 -1 -18 9 -14 7 2 10 11 7 19 -7 19 -10 18 -16 -5z"/>
<path d="M1628 2963 c7 -3 16 -2 19 1 4 3 -2 6 -13 5 -11 0 -14 -3 -6 -6z"/>
<path d="M2405 2955 c-27 -13 -28 -14 -7 -15 13 0 30 7 38 15 19 18 9 18 -31
0z"/>
<path d="M2071 2944 c0 -11 3 -14 6 -6 3 7 2 16 -1 19 -3 4 -6 -2 -5 -13z"/>
<path d="M2640 2946 c0 -10 4 -15 9 -11 6 3 19 -5 30 -17 l21 -22 0 28 c0 22
-4 27 -16 22 -9 -4 -23 -1 -30 5 -11 9 -14 8 -14 -5z"/>
<path d="M1837 2943 c-13 -12 -7 -33 9 -33 13 0 14 3 5 13 -6 8 -8 17 -4 20 3
4 4 7 1 7 -2 0 -8 -3 -11 -7z"/>
<path d="M2242 2930 c0 -14 2 -19 5 -12 2 6 2 18 0 25 -3 6 -5 1 -5 -13z"/>
<path d="M2273 2935 c0 -8 4 -15 9 -15 4 0 8 4 8 9 0 6 -4 12 -8 15 -5 3 -9
-1 -9 -9z"/>
<path d="M2596 2927 c3 -10 9 -15 12 -12 3 3 0 11 -7 18 -10 9 -11 8 -5 -6z"/>
<path d="M2100 2920 c-9 -6 -10 -10 -3 -10 6 0 15 5 18 10 8 12 4 12 -15 0z"/>
<path d="M2505 2920 c4 -6 11 -8 16 -5 14 9 11 15 -7 15 -8 0 -12 -5 -9 -10z"/>
<path d="M2265 1598 c-33 -5 -76 -10 -95 -11 -19 -1 -37 -4 -40 -7 -9 -9 -97
-50 -107 -50 -5 0 -37 -25 -71 -55 -67 -61 -125 -166 -143 -258 -12 -64 -15
-179 -5 -195 4 -6 9 -21 11 -32 2 -12 12 -35 21 -53 9 -18 28 -54 42 -82 14
-27 37 -66 51 -85 29 -41 109 -120 122 -120 5 0 9 -4 9 -9 0 -5 26 -12 58 -16
31 -3 83 -13 115 -21 87 -22 221 -13 327 22 83 27 88 31 188 132 81 81 106
113 118 150 8 26 20 56 27 67 20 34 20 223 -1 278 -10 25 -21 49 -25 53 -4 4
-7 16 -7 26 0 10 -11 24 -25 30 -13 6 -27 19 -30 29 -8 25 -109 116 -148 133
-18 7 -52 23 -77 33 -97 43 -143 54 -192 44 -26 -4 -50 -5 -55 -1 -4 3 -35 2
-68 -2z m183 -118 c23 -7 42 -16 42 -20 0 -4 -48 -11 -107 -15 -120 -8 -303
-13 -303 -8 0 1 14 10 30 18 77 40 246 52 338 25z m192 -100 l23 -20 -44 -1
c-24 0 -53 -2 -64 -3 -92 -12 -142 -17 -215 -22 -47 -4 -92 -6 -100 -6 -8 0
-42 -4 -75 -9 -33 -4 -82 -10 -110 -13 -27 -3 -60 -8 -72 -12 -20 -5 -23 -3
-23 20 0 40 47 55 193 62 67 3 160 9 207 13 47 5 124 9 171 10 73 1 89 -2 109
-19z m99 -111 c18 -52 15 -59 -29 -59 -21 0 -61 -4 -87 -10 -56 -11 -171 -19
-373 -25 -80 -2 -187 -6 -237 -8 -51 -2 -93 -3 -93 -2 0 19 26 65 38 69 17 5
128 20 227 31 28 3 64 7 80 10 17 2 84 7 150 11 66 3 122 8 124 10 2 2 46 4
97 4 l92 0 11 -31z m35 -132 c3 -12 6 -34 6 -48 0 -26 -1 -26 -97 -33 -54 -3
-123 -8 -153 -11 -175 -14 -361 -26 -472 -30 l-126 -4 -11 30 c-13 37 -5 58
23 64 11 2 109 7 216 10 107 3 215 8 240 10 117 10 274 26 276 28 2 1 23 3 47
5 39 1 46 -2 51 -21z m2 -141 c-3 -6 -10 -28 -17 -48 -10 -30 -17 -38 -38 -39
-206 -12 -503 -43 -523 -55 -5 -3 -41 -5 -81 -5 l-72 0 -42 48 c-23 26 -41 49
-39 50 1 2 47 4 101 5 55 0 115 5 135 10 19 5 78 11 130 13 117 6 235 14 320
23 98 11 131 10 126 -2z m-127 -196 c-23 -21 -45 -37 -48 -35 -4 2 -29 -1 -56
-6 -28 -6 -86 -12 -130 -14 -44 -2 -105 -7 -136 -11 -48 -5 -64 -2 -104 19
l-46 25 72 17 c109 24 253 39 432 44 l59 1 -43 -40z"/>
</g>
</svg>
