<?xml version="1.0" standalone="no"?>
<!DOCTYPE svg PUBLIC "-//W3C//DTD SVG 20010904//EN"
 "http://www.w3.org/TR/2001/REC-SVG-20010904/DTD/svg10.dtd">
<svg version="1.0" xmlns="http://www.w3.org/2000/svg"
 width="509.000000pt" height="455.000000pt" viewBox="0 0 509.000000 455.000000"
 preserveAspectRatio="xMidYMid meet">
<metadata>
Created by potrace 1.16, written by Peter Selinger 2001-2019
</metadata>
<g transform="translate(0.000000,455.000000) scale(0.100000,-0.100000)"
fill="#000000" stroke="none">
<path d="M2850 4537 c-14 -8 -42 -23 -64 -35 l-39 -21 -16 20 c-12 15 -23 19
-43 14 -35 -9 -41 -28 -24 -70 10 -23 24 -37 41 -41 29 -7 106 18 126 42 11
14 15 11 24 -23 14 -49 36 -53 121 -19 35 14 66 26 69 26 3 0 5 -13 5 -28 0
-16 9 -37 20 -47 17 -16 26 -17 77 -6 74 15 76 14 70 -10 -7 -25 24 -58 56
-60 12 -1 40 -1 62 1 39 2 40 2 22 -17 -17 -19 -17 -21 0 -42 12 -15 35 -24
68 -29 l50 -7 -3 -36 c-4 -45 15 -65 75 -81 39 -9 44 -13 29 -23 -25 -19 -19
-54 15 -82 24 -21 30 -32 26 -53 -3 -14 -3 -31 1 -37 9 -14 79 -48 116 -57 29
-7 29 -7 7 -22 -27 -19 -27 -49 0 -67 20 -14 19 -15 -10 -25 -39 -14 -41 -49
-5 -85 26 -26 25 -47 -2 -47 -22 0 -17 -36 12 -80 32 -49 26 -70 -19 -70 -45
0 -94 -18 -101 -37 -7 -18 17 -59 48 -84 17 -14 18 -19 7 -33 -7 -9 -23 -16
-35 -16 -12 0 -27 -10 -35 -21 -11 -19 -10 -25 8 -50 32 -43 27 -51 -25 -43
-49 7 -94 -9 -94 -33 0 -8 7 -25 16 -38 8 -13 14 -34 12 -47 -2 -19 -8 -23
-36 -20 -18 1 -42 -3 -53 -9 -17 -9 -20 -17 -14 -46 6 -32 4 -35 -12 -28 -58
24 -93 13 -93 -31 0 -21 -5 -24 -36 -24 -41 0 -114 -37 -114 -57 0 -8 -4 -12
-9 -8 -5 3 -16 -4 -24 -15 -14 -20 -20 -21 -418 -16 -222 2 -417 7 -434 11
-16 3 -58 0 -92 -8 -35 -9 -71 -13 -80 -11 -19 5 -97 11 -150 13 -26 1 -36 8
-49 32 -13 26 -20 30 -45 27 -24 -4 -34 1 -50 23 -13 19 -26 26 -43 25 l-24
-3 25 38 c45 68 15 104 -64 77 -26 -9 -63 -20 -82 -23 l-34 -7 7 36 c4 20 4
46 0 58 -5 17 -12 20 -43 15 -20 -3 -45 -8 -55 -13 -22 -8 -21 -3 10 77 16 43
16 48 1 63 -8 9 -30 16 -48 16 -30 0 -31 2 -25 30 3 17 17 47 31 68 26 38 31
67 16 91 -9 13 -24 13 -81 -5 -22 -7 -21 -4 13 30 37 39 77 110 77 138 0 9 -7
21 -15 28 -13 10 -8 22 36 86 51 73 51 74 34 100 -19 30 -17 33 73 85 57 34
65 56 36 97 -9 13 -14 24 -13 26 15 11 102 46 114 46 23 0 50 60 36 82 -8 13
-8 18 0 18 22 0 120 51 125 65 3 7 7 20 8 29 3 23 7 25 76 27 36 1 71 4 78 7
14 5 16 36 2 61 -8 15 -6 17 13 14 12 -2 49 1 82 7 33 7 85 13 115 14 30 2 67
4 81 5 17 1 30 9 37 26 10 22 15 24 33 15 25 -14 68 -5 84 16 8 12 17 13 37 5
37 -14 72 12 63 48 -7 31 -31 52 -51 44 -8 -3 -29 1 -47 8 -48 20 -103 5 -91
-26 4 -10 -2 -11 -31 -5 -61 14 -80 3 -75 -44 2 -17 -4 -18 -62 -12 -56 6 -67
5 -87 -13 -15 -13 -33 -19 -47 -17 -32 6 -145 -11 -157 -23 -5 -5 -10 -20 -11
-32 -1 -18 -9 -25 -40 -31 -21 -5 -54 -15 -72 -24 -29 -14 -34 -21 -34 -50 0
-27 -4 -34 -19 -34 -11 0 -42 -10 -70 -22 -42 -19 -51 -27 -51 -49 0 -14 5
-30 11 -36 7 -7 0 -14 -23 -24 -18 -7 -55 -29 -81 -49 -50 -36 -49 -33 -35
-101 2 -9 -27 -39 -74 -78 -44 -35 -78 -70 -78 -80 0 -10 11 -24 25 -31 14 -7
25 -18 25 -24 0 -5 -17 -30 -38 -55 -21 -25 -44 -56 -51 -69 -14 -27 -6 -62
15 -62 8 0 14 -3 14 -6 0 -6 -47 -70 -73 -99 -22 -25 -31 -58 -23 -90 5 -18
15 -26 42 -31 28 -5 34 -10 28 -23 -27 -60 -6 -141 36 -141 24 0 24 3 5 -51
-9 -24 -13 -54 -10 -67 7 -29 60 -53 91 -42 19 7 21 5 22 -22 2 -58 70 -90
134 -63 15 6 16 2 12 -27 -7 -41 21 -82 58 -83 13 -1 35 -9 48 -18 14 -9 33
-17 44 -17 29 0 9 -14 -59 -40 -222 -87 -489 -282 -591 -433 -16 -23 -31 -44
-34 -47 -3 -3 -13 -19 -22 -35 -63 -114 -96 -335 -85 -565 1 -19 -3 -78 -7
-130 -12 -128 -13 -164 -14 -455 -2 -264 2 -335 16 -344 4 -3 19 -32 31 -64
30 -74 109 -186 158 -224 111 -86 314 -183 483 -232 41 -12 91 -29 110 -38 19
-8 60 -19 90 -24 30 -4 87 -15 125 -24 142 -33 273 -45 525 -49 239 -3 461 20
595 64 53 16 99 30 104 30 5 0 42 19 82 41 40 23 87 46 104 50 16 5 54 24 83
44 30 19 58 35 63 35 5 0 9 4 9 8 0 7 61 61 145 127 21 17 57 50 79 74 23 24
60 64 83 88 26 29 45 61 51 87 20 84 44 173 64 231 12 36 21 96 24 150 2 50 6
104 8 120 3 17 8 66 12 110 3 44 8 94 10 110 5 32 5 297 0 355 -10 126 -35
247 -62 310 -35 80 -68 140 -76 140 -4 0 -8 5 -8 10 0 6 -20 31 -45 58 -25 26
-45 52 -45 57 0 6 -24 29 -53 52 -102 83 -207 163 -212 163 -4 0 -23 13 -43
29 -47 37 -171 101 -197 101 -32 0 -41 13 -41 53 0 36 2 38 26 33 97 -23 116
-17 104 31 -5 20 -2 22 42 25 48 3 48 3 57 46 5 25 14 42 22 42 29 0 74 51 82
93 8 39 11 42 47 48 21 3 42 12 47 20 11 17 23 98 16 105 -3 3 6 16 19 29 32
33 41 73 22 106 -16 27 -16 27 18 34 27 5 39 14 51 41 15 30 15 41 4 82 -10
40 -10 48 3 58 18 13 21 56 5 86 -9 16 -7 24 11 40 14 13 19 26 15 41 -4 12
-9 30 -11 39 -3 9 2 29 12 43 15 22 15 27 1 48 -8 12 -42 32 -76 45 -41 16
-61 29 -61 41 0 9 -13 33 -30 52 -26 33 -28 38 -15 55 18 24 19 65 2 88 -8 11
-31 20 -60 23 -44 5 -46 7 -41 30 8 30 -25 68 -71 83 -25 8 -35 19 -44 49 -14
47 -50 64 -117 54 -42 -5 -44 -5 -44 19 0 42 -33 62 -100 61 -47 -2 -59 1 -63
15 -2 9 -21 26 -42 37 -35 18 -40 18 -96 4 -54 -14 -59 -14 -64 1 -6 19 -42
60 -53 60 -4 0 -18 -6 -32 -13z m-87 -1851 c163 -2 299 -5 300 -7 2 -2 8 -16
14 -30 8 -19 23 -29 55 -37 51 -13 83 -43 75 -71 -7 -27 3 -38 54 -64 40 -20
45 -26 50 -65 7 -53 18 -64 71 -71 34 -5 43 -10 44 -26 1 -11 3 -24 4 -30 1
-5 2 -13 1 -17 0 -4 22 -19 50 -35 48 -25 51 -29 46 -59 -7 -44 11 -64 61 -71
48 -6 51 -13 19 -47 -13 -14 -24 -39 -25 -60 -2 -30 2 -38 23 -48 32 -14 31
-21 -5 -87 -35 -64 -37 -89 -10 -124 11 -14 20 -28 20 -31 0 -3 -18 -11 -40
-17 -44 -14 -53 -32 -32 -70 21 -37 11 -54 -48 -84 -53 -27 -57 -36 -35 -75 8
-14 14 -28 15 -31 0 -3 -22 -11 -50 -18 -66 -17 -100 -45 -100 -82 0 -28 -22
-41 -35 -20 -3 6 -18 8 -33 7 -15 -2 -33 -4 -39 -5 -14 -1 -43 -63 -43 -90 0
-10 -6 -26 -14 -36 -14 -19 -15 -19 -33 -2 -37 33 -107 9 -125 -44 -4 -12 -11
-11 -43 6 -53 28 -73 27 -89 -4 -8 -14 -25 -36 -39 -49 -23 -21 -26 -22 -41
-7 -9 9 -16 20 -16 24 0 4 -11 13 -25 19 -32 15 -63 1 -118 -54 -21 -20 -39
-35 -41 -33 -2 2 -11 21 -19 42 -14 33 -20 37 -52 37 -20 0 -44 -8 -55 -18
-10 -9 -32 -25 -49 -35 -30 -18 -31 -18 -31 1 0 11 -9 30 -19 43 -24 30 -86
31 -128 1 -16 -11 -44 -22 -63 -24 -34 -3 -35 -2 -44 40 -9 37 -13 42 -38 42
-38 0 -138 -39 -145 -56 -9 -23 -33 -16 -34 11 -1 14 -3 30 -4 35 -1 6 -3 19
-4 29 0 11 -8 26 -16 35 -17 16 -41 11 -122 -25 -63 -28 -67 -26 -60 34 4 28
2 59 -3 67 -11 19 -70 17 -127 -3 l-42 -14 5 48 c3 27 3 57 -1 67 -8 26 -47
42 -106 42 -62 0 -68 12 -35 71 30 52 33 95 9 107 -19 10 -67 8 -102 -3 -15
-4 -21 -2 -21 8 0 9 4 17 8 19 4 2 18 18 30 35 31 44 28 106 -5 111 -13 2 -23
6 -23 9 0 3 25 28 55 55 61 56 81 107 52 135 -13 14 -10 20 37 58 49 40 51 44
49 87 -1 44 0 46 39 64 22 10 62 39 90 65 42 39 49 51 43 70 -4 13 -12 27 -17
30 -7 5 82 55 127 71 6 2 27 14 48 27 31 19 37 29 35 50 -2 18 -9 26 -20 25
-10 -1 -18 1 -18 5 0 17 130 65 168 63 15 -1 25 6 31 21 11 28 4 46 -23 58
-13 5 2 6 44 2 36 -3 66 -7 68 -8 1 -1 23 4 49 10 30 8 98 11 183 8 74 -2 269
-5 433 -7z m564 -118 c43 -19 126 -69 148 -90 38 -36 70 -60 120 -92 48 -32
182 -172 218 -228 32 -51 46 -143 44 -292 l-2 -141 -60 -120 c-33 -66 -63
-121 -67 -123 -5 -2 -8 -9 -8 -16 0 -20 -251 -268 -320 -316 -113 -78 -288
-146 -421 -164 -19 -2 -63 -11 -99 -19 -36 -9 -96 -18 -135 -22 -38 -3 -99
-10 -135 -15 -89 -13 -342 -3 -445 16 -11 2 -47 7 -80 10 -33 3 -112 17 -175
31 -97 20 -141 37 -276 103 -174 85 -238 130 -357 253 -106 109 -126 151 -126
260 0 49 -5 96 -12 108 -7 14 -11 60 -11 113 1 72 8 111 31 186 17 52 31 100
32 105 10 57 148 225 233 282 23 16 43 31 46 34 3 3 20 14 38 24 17 11 32 23
32 27 0 5 26 20 58 34 31 15 70 33 86 40 27 14 52 10 30 -4 -17 -11 -24 -40
-11 -46 8 -3 5 -10 -8 -21 -11 -8 -27 -21 -35 -28 -8 -6 -27 -17 -42 -24 -99
-44 -129 -85 -88 -120 19 -16 19 -17 -13 -38 -18 -12 -56 -34 -84 -50 -42 -22
-53 -33 -53 -53 0 -14 7 -30 16 -37 15 -10 10 -17 -39 -56 -31 -24 -66 -51
-79 -60 -20 -14 -21 -19 -10 -43 6 -15 21 -30 33 -34 20 -8 19 -10 -17 -43
-66 -60 -84 -82 -91 -107 -7 -30 5 -53 35 -67 22 -10 30 -25 14 -25 -14 0 -52
-76 -52 -102 0 -31 34 -50 89 -52 23 0 41 -1 41 -1 0 -1 -9 -18 -20 -40 -11
-22 -20 -48 -20 -60 1 -19 30 -68 30 -49 0 5 4 3 9 -5 5 -8 35 -15 76 -18 55
-5 66 -9 62 -22 -28 -96 -31 -113 -21 -129 15 -23 68 -27 115 -8 55 22 64 20
66 -14 1 -17 12 -44 23 -60 17 -24 29 -30 59 -30 20 0 41 4 47 9 5 4 23 13 40
19 l32 10 6 -46 c7 -55 29 -82 66 -82 33 0 90 19 90 30 0 8 59 35 63 29 1 -2
9 -17 17 -34 23 -45 64 -52 142 -26 34 12 71 25 81 28 11 3 17 0 17 -10 0 -25
50 -77 74 -77 13 0 34 10 47 21 13 12 34 28 47 37 22 15 25 14 47 -14 14 -16
24 -32 25 -35 0 -4 18 -11 41 -17 35 -9 43 -8 60 9 10 10 19 27 19 37 0 11 12
24 26 31 23 10 30 9 48 -7 29 -27 61 -42 87 -42 24 0 59 26 59 43 0 6 7 19 16
28 16 18 18 18 43 0 36 -25 70 -18 109 24 32 35 33 35 63 20 31 -17 94 -12
106 8 4 6 12 36 18 66 10 51 13 56 36 54 82 -8 92 -7 110 16 11 13 19 36 19
52 0 24 6 31 36 44 20 8 46 15 58 15 40 1 59 25 53 69 -5 37 -1 43 39 84 37
38 44 51 44 84 0 33 5 42 25 51 13 6 27 22 31 36 6 25 -12 96 -27 106 -4 3 8
30 26 60 30 50 33 60 25 95 -5 21 -16 42 -24 47 -23 13 -20 32 9 66 14 17 25
39 25 50 0 29 -30 60 -69 69 -26 7 -35 15 -37 33 -4 26 -77 100 -99 100 -7 0
-10 11 -8 28 5 37 -29 74 -74 81 -31 5 -38 11 -50 46 -13 39 -56 85 -80 85 -6
0 -11 9 -10 20 2 24 -1 23 34 8z m588 -996 c-3 -3 -10 -1 -16 5 -8 8 -8 20 2
43 l14 31 3 -37 c2 -20 1 -39 -3 -42z m-35 -58 c-7 -7 -8 -14 -4 -14 5 0 15
-10 23 -22 13 -22 13 -22 -5 -7 -19 17 -49 15 -38 -2 3 -5 0 -9 -5 -9 -6 0
-10 -5 -8 -12 1 -6 -6 -14 -15 -16 -13 -2 -16 1 -12 12 3 9 10 16 15 16 5 0 9
7 9 15 0 8 4 15 10 15 5 0 7 7 3 15 -3 10 0 15 8 13 8 -2 13 3 11 11 -2 8 0
21 4 30 6 13 8 12 12 -7 2 -13 -2 -30 -8 -38z m-60 -108 c0 -8 6 -17 13 -20 6
-3 2 -3 -10 0 -15 3 -25 -1 -32 -14 -9 -16 -7 -21 8 -25 11 -2 24 0 29 5 6 6
12 6 16 -1 7 -10 -12 -16 -41 -12 -7 1 -10 -7 -8 -19 2 -11 0 -18 -6 -15 -5 4
-9 14 -9 23 0 15 -2 15 -10 2 -8 -12 -10 -9 -10 13 0 15 4 27 8 27 5 0 15 11
22 25 15 27 30 33 30 11z m83 -9 c-4 -6 -6 -26 -5 -45 2 -27 -1 -33 -14 -30
-22 4 -31 28 -11 28 8 0 15 6 14 13 -1 36 4 57 13 52 6 -4 7 -12 3 -18z m-71
-97 c-2 -17 0 -30 4 -29 33 6 44 -2 44 -33 0 -22 -3 -28 -9 -20 -14 22 -60 6
-61 -21 0 -4 10 -11 22 -16 l22 -8 -22 -5 c-12 -4 -20 -2 -16 3 3 5 0 9 -5 9
-6 0 -11 -4 -11 -10 0 -5 -7 -7 -16 -3 -9 3 -20 0 -24 -7 -5 -8 -10 -8 -14 -2
-3 6 8 15 24 21 24 8 30 16 30 40 0 17 -5 31 -11 31 -5 0 -7 -6 -4 -12 4 -7
-1 -4 -9 6 -19 23 -22 46 -4 28 15 -15 31 -16 22 0 -5 8 -2 9 10 5 13 -5 15
-2 12 18 -2 13 1 26 7 29 7 2 12 5 13 5 0 1 -1 -13 -4 -29z m-119 0 c3 -11 1
-18 -4 -14 -5 3 -9 12 -9 20 0 20 7 17 13 -6z m175 -2 c-5 -13 -38 -20 -38 -8
0 5 8 11 18 13 9 3 19 5 20 6 2 0 2 -4 0 -11z m-2715 -16 c-10 -10 -20 -17
-22 -16 -6 5 20 34 30 34 5 0 1 -8 -8 -18z m2508 -9 c-8 -15 -10 -15 -11 -2 0
17 10 32 18 25 2 -3 -1 -13 -7 -23z m29 -7 c0 -3 -4 -8 -10 -11 -5 -3 -10 -1
-10 4 0 6 5 11 10 11 6 0 10 -2 10 -4z m-2469 -23 c1 -10 0 -27 -1 -38 -2 -20
-1 -20 13 -1 8 11 19 16 26 12 20 -13 -7 -35 -40 -33 -33 2 -37 14 -11 33 10
8 12 13 5 14 -15 0 -18 30 -3 30 6 0 11 -8 11 -17z m2411 -12 c-7 -4 -8 -12
-2 -21 16 -25 10 -36 -6 -15 -16 19 -16 19 -12 -7 4 -22 1 -28 -13 -28 -11 0
-19 -7 -19 -17 0 -13 3 -14 12 -5 7 7 19 12 28 11 10 0 11 -2 2 -6 -6 -2 -10
-9 -7 -13 3 -5 0 -12 -6 -16 -8 -4 -9 -3 -5 4 4 7 2 12 -3 12 -6 0 -11 -6 -12
-12 0 -10 -2 -10 -6 0 -2 6 -11 12 -19 12 -8 0 -14 7 -14 16 0 8 -5 12 -10 9
-6 -4 -8 -11 -5 -16 3 -5 0 -6 -8 -3 -8 3 -18 0 -22 -6 -3 -6 -1 -9 7 -8 7 2
14 -7 16 -19 4 -25 18 -31 25 -10 2 6 4 -4 4 -23 0 -19 -2 -27 -4 -18 -3 10
-10 15 -19 11 -7 -3 -11 -10 -7 -16 3 -6 1 -7 -5 -3 -6 3 -15 -1 -20 -10 -8
-14 -10 -14 -15 5 -3 13 -1 19 5 15 12 -8 28 15 22 31 -3 7 -18 11 -37 9 l-32
-4 35 30 c19 16 41 35 48 40 7 6 17 8 22 5 6 -3 10 2 11 12 0 10 3 13 6 6 8
-21 26 -15 20 7 -3 11 -1 18 4 14 5 -3 9 0 9 5 0 16 34 49 39 38 2 -5 -1 -12
-7 -16z m98 -1 c-6 -11 -15 -20 -21 -20 -6 0 -8 -4 -4 -9 3 -5 1 -12 -4 -15
-5 -4 -8 2 -7 11 2 10 -4 24 -13 31 -13 11 -12 11 8 1 20 -9 26 -8 33 5 13 23
21 20 8 -4z m-61 -19 c7 -5 10 -14 7 -20 -10 -16 -29 -13 -23 3 3 8 1 17 -6
20 -7 2 -7 5 -2 5 6 0 16 -3 24 -8z m101 -1 c0 -5 -7 -7 -15 -4 -8 4 -15 8
-15 10 0 2 7 4 15 4 8 0 15 -4 15 -10z m64 -5 c-6 -16 -24 -21 -24 -7 0 11 11
22 21 22 5 0 6 -7 3 -15z m26 -20 c0 -8 -4 -15 -8 -15 -5 0 -9 7 -9 15 0 8 4
15 9 15 4 0 8 -7 8 -15z m-2695 -19 c-14 -10 -17 -21 -12 -49 4 -25 2 -37 -9
-41 -8 -3 -14 -1 -14 4 0 6 4 10 8 10 4 0 6 16 4 36 -3 26 0 39 14 49 11 7 21
11 23 9 3 -2 -4 -10 -14 -18z m145 -6 c0 -5 -4 -10 -10 -10 -5 0 -10 5 -10 10
0 6 5 10 10 10 6 0 10 -4 10 -10z m2360 -28 c0 -10 7 -28 16 -40 8 -12 13 -28
11 -35 -3 -6 -10 0 -16 16 -6 15 -13 27 -15 27 -11 0 1 -76 14 -87 17 -14 2
-17 -19 -4 -8 5 -11 16 -6 31 6 17 3 21 -11 18 -9 -1 -19 -9 -22 -17 -3 -8 0
-11 7 -7 6 4 11 2 11 -3 0 -6 -7 -11 -15 -11 -23 0 -18 36 8 48 12 6 16 11 10
11 -7 1 -13 6 -13 12 0 5 5 7 10 4 6 -4 10 8 10 30 0 22 4 34 10 30 6 -3 10
-14 10 -23z m185 1 c-4 -16 -8 -34 -8 -40 0 -7 -6 -13 -14 -13 -7 0 -13 -6
-13 -14 0 -7 -10 -16 -21 -19 -17 -4 -19 -3 -10 6 14 14 15 30 1 22 -15 -9
-12 2 6 30 10 15 12 25 5 25 -6 0 -11 4 -11 10 0 5 6 7 14 4 8 -3 17 -1 21 5
3 6 13 11 22 11 12 0 14 -6 8 -27z m-2639 -7 c-1 -20 -4 -22 -20 -14 -12 7
-16 7 -12 0 3 -6 2 -13 -4 -17 -6 -4 -9 4 -8 19 1 13 5 23 8 21 3 -2 12 0 20
6 8 5 16 9 16 9 1 0 1 -11 0 -24z m133 10 c10 -12 9 -14 -6 -11 -10 2 -25 4
-33 4 -13 1 -13 2 0 11 20 13 26 12 39 -4z m2426 -18 c-5 -22 -13 -34 -19 -27
-8 8 6 59 15 54 4 -3 6 -15 4 -27z m-47 -7 c1 -16 -2 -32 -7 -35 -9 -6 -13 43
-4 57 7 12 9 9 11 -22z m-2598 10 c0 -6 -4 -13 -10 -16 -5 -3 -10 1 -10 9 0 9
5 16 10 16 6 0 10 -4 10 -9z m2570 -1 c0 -5 -2 -10 -4 -10 -3 0 -8 5 -11 10
-3 6 -1 10 4 10 6 0 11 -4 11 -10z m-2450 -24 c0 -3 -4 -8 -10 -11 -5 -3 -10
-1 -10 4 0 6 5 11 10 11 6 0 10 -2 10 -4z m46 -8 c4 -6 3 -8 -4 -4 -6 3 -13 2
-17 -4 -3 -5 -11 -10 -16 -10 -11 0 12 29 23 30 4 0 10 -5 14 -12z m74 -2 c23
2 30 1 21 -5 -8 -5 -11 -16 -8 -26 4 -9 3 -14 -3 -10 -6 3 -10 13 -10 21 0 8
-5 12 -11 9 -5 -4 -8 -21 -5 -38 5 -25 4 -27 -3 -12 -5 11 -10 16 -11 10 -1
-5 -5 -1 -10 10 -11 25 -13 65 -2 49 4 -7 22 -10 42 -8z m-160 0 c0 -3 -4 -8
-10 -11 -5 -3 -10 -1 -10 4 0 6 5 11 10 11 6 0 10 -2 10 -4z m270 -24 c2 -2
-2 -7 -9 -11 -12 -8 -51 19 -51 34 0 4 48 -14 60 -23z m1988 6 c-18 -6 -25
-14 -21 -24 4 -12 0 -13 -22 -4 -15 6 -32 7 -38 3 -7 -4 -5 1 3 11 8 11 16 14
18 7 2 -6 8 -11 13 -11 4 0 6 6 3 14 -4 10 3 16 23 18 39 5 52 -4 21 -14z
m-2323 -3 c6 -1 9 -6 8 -13 -2 -7 2 -12 8 -12 6 0 9 7 6 15 -4 8 -2 17 3 20 6
4 10 -1 10 -10 0 -12 5 -15 18 -10 19 7 22 8 40 6 7 0 10 -5 7 -11 -3 -5 -1
-10 6 -10 7 0 9 -3 6 -6 -4 -4 -12 -2 -19 4 -9 7 -17 6 -26 -4 -12 -13 -6 -18
19 -16 3 1 6 -6 6 -14 0 -7 -6 -14 -14 -14 -7 0 -13 5 -13 10 0 6 -5 10 -11
10 -5 0 -7 -6 -3 -12 5 -10 4 -10 -7 0 -11 10 -15 8 -24 -9 -11 -19 -12 -19
-26 -3 -8 10 -9 15 -2 11 7 -5 16 0 22 12 9 16 8 18 -8 14 -27 -7 -34 -31 -17
-55 13 -18 13 -23 0 -36 -13 -12 -13 -16 -2 -23 17 -11 41 -11 34 0 -3 5 1 14
9 21 8 7 15 9 16 4 0 -5 5 2 11 16 10 23 11 23 16 5 3 -12 -3 -24 -17 -33 -11
-8 -21 -19 -21 -25 0 -6 -10 -22 -22 -35 -13 -14 -17 -22 -10 -18 6 4 12 2 12
-3 0 -6 -6 -11 -12 -12 -10 0 -10 -2 0 -6 10 -4 10 -8 1 -20 -10 -12 -10 -16
2 -24 12 -7 11 -9 -2 -9 -9 0 -22 -7 -29 -15 -15 -18 -29 -11 -29 13 0 9 -3
38 -7 64 -8 58 1 102 21 94 10 -3 12 0 8 11 -5 12 -3 14 7 8 9 -5 11 -4 6 4
-6 9 -11 9 -24 -1 -14 -12 -15 -7 -9 44 9 70 16 90 31 81 6 -4 16 -8 21 -8z
m163 -9 c-2 -1 -12 -8 -22 -16 -18 -14 -18 -14 -6 7 8 12 18 19 23 16 4 -3 7
-6 5 -7z m2489 -23 c10 6 38 -51 29 -60 -3 -4 -6 2 -6 11 0 13 -5 16 -16 12
-12 -5 -15 -2 -10 9 3 9 1 15 -7 14 -29 -4 -37 3 -37 29 l0 27 19 -24 c10 -13
22 -21 28 -18z m40 -5 c-3 -8 -6 -5 -6 6 -1 11 2 17 5 13 3 -3 4 -12 1 -19z
m-473 1 c-4 -8 0 -9 15 -4 13 4 21 2 21 -5 0 -6 7 -10 16 -8 10 2 18 -3 20
-10 1 -7 0 -8 -3 -2 -3 8 -9 7 -19 -1 -10 -8 -14 -8 -14 0 0 6 -9 11 -19 11
-21 0 -34 13 -24 24 10 10 15 7 7 -5z m-2020 -25 c3 -8 1 -14 -4 -14 -6 0 -10
6 -11 13 -1 6 -5 1 -9 -13 -8 -24 -8 -23 -9 7 -1 24 3 31 13 27 8 -3 17 -12
20 -20z m2401 -26 l0 -28 -17 23 c-11 14 -21 18 -25 12 -9 -12 -28 -14 -37 -4
-6 5 1 7 44 11 15 2 18 7 14 22 -5 16 -4 17 8 6 7 -7 14 -26 13 -42z m-2451
26 c9 -24 2 -26 -12 -4 -7 11 -8 20 -3 20 5 0 12 -7 15 -16z m2056 -12 c0 -13
-2 -13 -13 2 -12 17 -15 17 -29 2 -9 -9 -23 -16 -30 -16 -7 0 0 9 16 19 32 21
56 18 56 -7z m240 8 c-8 -5 -17 -7 -19 -4 -3 3 1 9 9 14 8 5 17 7 19 4 3 -3
-1 -9 -9 -14z m-2050 0 c-19 -13 -30 -13 -30 0 0 6 10 10 23 10 18 0 19 -2 7
-10z m1982 1 c7 10 8 8 2 -6 -4 -11 -7 -30 -7 -42 1 -14 -5 -23 -14 -23 -8 0
-11 -4 -8 -10 4 -6 -1 -7 -11 -3 -15 5 -15 7 -1 17 12 10 13 15 2 29 -6 9 -14
15 -17 12 -2 -3 -5 2 -5 10 0 19 16 19 23 0 7 -17 25 -10 20 8 -1 7 -1 8 2 3
2 -4 9 -2 14 5z m79 -4 c26 16 31 16 39 3 7 -11 4 -17 -13 -22 -12 -3 -17 -7
-12 -7 6 -1 3 -6 -5 -11 -13 -8 -12 -10 3 -10 11 0 15 -5 11 -11 -4 -7 1 -9
12 -7 11 2 18 10 17 16 -2 7 2 12 7 12 6 0 10 -5 10 -11 0 -6 7 -8 16 -5 9 3
12 2 9 -4 -12 -19 -16 -62 -6 -56 6 4 15 -2 21 -13 11 -22 2 -21 -48 5 -22 11
-22 12 -3 17 11 2 19 12 17 21 -3 21 -16 33 -16 14 0 -11 -8 -14 -27 -11 -23
4 -25 2 -13 -7 13 -10 13 -11 0 -9 -8 1 -23 -1 -34 -6 -17 -8 -17 -9 5 -22 21
-12 21 -13 3 -8 -12 3 -28 3 -37 -1 -20 -7 -18 -42 3 -49 8 -3 16 -16 16 -30
1 -14 -2 -22 -7 -19 -5 3 -9 12 -9 20 0 17 -26 19 -33 2 -4 -10 -8 -10 -15 1
-12 17 -25 -2 -18 -27 4 -13 1 -18 -14 -18 -23 0 -25 7 -7 25 10 11 9 13 -3 7
-8 -4 -6 0 4 8 11 9 14 16 7 16 -7 0 -9 5 -6 10 4 6 16 8 28 5 19 -5 20 -4 6
7 -9 7 -14 19 -11 27 3 10 0 12 -11 8 -11 -4 -14 -2 -10 9 5 13 8 13 24 -2 11
-9 19 -12 19 -6 0 6 8 13 18 15 13 4 12 5 -5 6 -12 0 -25 6 -29 12 -4 8 0 9
15 4 24 -7 43 22 22 35 -9 5 -5 10 11 15 12 4 26 7 31 6 4 -1 7 6 7 15 0 8 -4
13 -9 10 -16 -10 -40 5 -34 21 5 13 7 13 15 -1 8 -15 12 -15 39 1z m-2101 -7
c0 -5 -7 -10 -16 -10 -8 0 -12 5 -9 10 3 6 10 10 16 10 5 0 9 -4 9 -10z m1753
-15 c-3 -9 -8 -14 -10 -11 -3 3 -2 9 2 15 9 16 15 13 8 -4z m-2053 2 c0 -2 -9
-12 -19 -21 -19 -17 -19 -17 -14 3 3 12 12 21 19 21 8 0 14 -2 14 -3z m232
-49 c-14 -16 -13 -18 1 -18 10 0 17 4 17 8 0 5 7 9 15 9 9 0 15 -9 15 -21 0
-18 -2 -19 -11 -6 -8 11 -9 7 -6 -20 3 -19 3 -29 0 -22 -2 6 -9 9 -15 6 -6 -4
-8 1 -3 15 4 13 2 21 -5 21 -6 0 -9 -4 -5 -9 3 -5 1 -12 -5 -16 -5 -3 -10 2
-10 12 0 11 -5 24 -10 29 -8 8 -6 15 5 24 8 7 15 20 16 29 0 12 2 11 9 -4 5
-13 3 -26 -8 -37z m106 30 c-10 -7 -10 -10 5 -19 9 -5 17 -15 17 -22 0 -7 -4
-6 -10 3 -8 12 -10 13 -10 1 0 -8 -7 -22 -16 -32 -15 -17 -14 -18 20 -12 24 4
36 2 36 -6 0 -6 -8 -11 -17 -11 -15 0 -16 -2 -3 -10 9 -6 10 -10 3 -10 -6 0
-15 5 -18 10 -12 20 -22 9 -19 -20 2 -16 -1 -30 -6 -30 -6 0 -10 -5 -10 -11 0
-5 4 -8 8 -5 4 2 9 -5 9 -17 l2 -22 -17 22 c-11 14 -22 20 -30 15 -8 -6 -4
-15 18 -30 16 -13 30 -28 29 -35 0 -9 -2 -9 -6 1 -2 6 -9 9 -15 6 -6 -4 -14 0
-19 7 -7 11 -9 9 -9 -6 0 -11 9 -26 20 -33 12 -7 18 -17 15 -22 -3 -5 5 -12
18 -15 13 -4 24 -13 24 -20 0 -10 -5 -11 -19 -4 -16 8 -18 6 -18 -21 0 -19 4
-29 10 -25 6 4 7 11 4 17 -4 6 -2 8 4 4 6 -3 13 -2 17 4 3 5 28 10 54 10 43 0
50 4 82 40 32 38 59 51 59 30 0 -5 7 -7 15 -4 28 11 15 -12 -29 -51 -33 -29
-54 -40 -79 -41 -42 -1 -72 -25 -54 -43 8 -8 6 -11 -7 -11 -10 0 -16 -5 -13
-13 6 -16 -20 -41 -28 -27 -3 6 -1 10 4 10 6 0 11 8 11 18 0 14 -2 15 -10 2
-5 -8 -10 -12 -10 -8 0 3 -3 13 -6 21 -3 10 2 17 13 20 14 4 12 5 -6 6 -19 1
-22 -3 -18 -20 7 -26 -2 -51 -15 -43 -5 3 -12 -3 -15 -14 -3 -12 -11 -18 -18
-16 -9 4 -12 -1 -8 -14 6 -23 -2 -29 -46 -37 -23 -4 -33 -1 -37 10 -8 21 5 33
15 16 6 -9 11 -10 15 -2 4 6 4 11 -1 11 -4 0 -8 13 -8 30 l0 29 22 -27 c13
-15 20 -19 17 -10 -3 10 3 26 15 39 l21 22 -21 15 c-15 10 -23 11 -33 3 -19
-16 -83 -24 -68 -9 8 8 8 17 0 32 -16 29 -16 59 1 72 22 17 7 43 -21 37 -18
-4 -20 -3 -8 6 12 9 13 14 2 31 -15 24 -4 27 13 3 15 -20 37 -9 28 15 -6 15
-5 15 12 -1 18 -18 19 -18 31 4 6 13 10 31 9 41 -3 12 2 18 16 18 11 0 18 4
15 9 -4 5 3 7 14 4 24 -6 16 -23 -11 -23 -10 0 -19 -4 -19 -10 0 -14 6 -13 42
6 24 12 28 18 17 25 -11 7 -11 11 -2 17 10 6 10 12 -2 28 -20 26 -19 34 6 34
22 0 23 18 4 62 -5 13 -2 15 15 11 17 -4 19 -8 8 -15z m106 -27 c5 -28 4 -32
-8 -22 -12 10 -17 8 -26 -10 -8 -15 -15 -18 -19 -10 -4 7 -16 9 -27 5 -18 -6
-18 -6 1 9 10 8 25 13 32 10 8 -3 13 3 13 18 0 19 2 21 10 9 8 -12 10 -10 10
9 0 32 6 24 14 -18z m1744 30 c11 -7 10 -9 -3 -14 -10 -5 -14 -3 -9 5 5 8 -3
9 -27 5 -24 -5 -30 -4 -19 3 18 12 41 12 58 1z m398 -3 c4 -7 3 -8 -4 -4 -7 4
-12 3 -12 -2 0 -16 13 -21 30 -12 16 9 18 5 15 -28 -4 -51 -33 -119 -50 -119
-25 0 -25 26 -1 50 18 18 21 28 15 46 -6 14 -13 20 -21 15 -7 -4 -10 -4 -6 1
4 4 2 15 -5 23 -7 10 -8 13 -1 9 7 -4 14 2 17 13 6 23 13 25 23 8z m-2281 -16
c-3 -3 -11 0 -18 7 -9 10 -8 11 6 5 10 -3 15 -9 12 -12z m195 3 c0 -9 -6 -12
-17 -8 -11 4 -14 3 -9 -5 4 -7 2 -12 -3 -12 -14 0 -14 13 1 28 16 16 28 15 28
-3z m1780 6 c0 -6 -5 -13 -11 -17 -6 -3 -9 -15 -6 -25 3 -10 -2 -26 -10 -36
-13 -17 -13 -17 -4 3 6 13 6 25 1 30 -13 13 -1 54 16 54 8 0 14 -4 14 -9z
m-320 -36 c0 -5 -5 -3 -10 5 -5 8 -10 20 -10 25 0 6 5 3 10 -5 5 -8 10 -19 10
-25z m197 15 c1 -12 -3 -18 -9 -14 -6 4 -8 -1 -3 -15 4 -12 2 -21 -4 -21 -6 0
-12 -10 -12 -22 -1 -21 -2 -21 -6 -3 -3 11 -10 25 -15 30 -8 7 -9 6 -4 -2 4
-7 -2 -14 -14 -18 -11 -4 -18 -11 -15 -16 4 -5 2 -9 -3 -9 -5 0 -14 10 -20 23
-8 17 -11 18 -11 5 -1 -20 -16 -24 -27 -6 -5 7 -3 8 6 3 10 -6 12 -4 7 9 -4
10 -7 24 -7 32 0 9 -4 12 -10 9 -5 -3 -10 -1 -10 4 0 18 17 12 34 -11 9 -13
15 -18 15 -13 -3 23 2 26 17 11 8 -9 12 -20 9 -26 -3 -5 -1 -10 4 -10 6 0 11
7 11 15 0 8 6 15 13 15 9 0 8 3 -2 9 -10 7 -10 10 -1 16 7 4 16 2 20 -5 6 -9
11 -7 19 9 14 26 16 26 18 1z m-2087 0 c0 -5 -7 -10 -15 -10 -11 0 -14 -7 -11
-25 3 -17 -1 -26 -15 -30 -10 -4 -19 -13 -19 -21 0 -8 -5 -12 -10 -9 -8 5 -8
11 0 20 8 9 8 15 0 20 -5 3 -10 12 -9 18 0 9 2 9 6 0 2 -7 12 -13 21 -12 10 0
12 3 5 5 -8 4 -5 13 9 30 23 25 38 31 38 14z m107 -4 c0 -8 -9 -17 -20 -20
-18 -4 -18 -4 -1 15 21 23 21 23 21 5z m220 8 c-3 -3 -12 -4 -19 -1 -8 3 -5 6
6 6 11 1 17 -2 13 -5z m157 -3 c4 -5 -3 -7 -14 -4 -23 6 -26 13 -6 13 8 0 17
-4 20 -9z m1976 -17 c0 -14 -4 -23 -9 -20 -5 3 -7 15 -4 26 7 28 13 25 13 -6z
m-290 -15 c0 -4 -5 -11 -11 -14 -6 -4 -8 -14 -4 -23 3 -8 1 -19 -6 -22 -8 -6
-8 -13 0 -29 l12 -21 -32 19 c-35 21 -57 18 -38 -5 6 -8 9 -17 5 -21 -3 -3 -6
-1 -6 5 0 7 -5 12 -11 12 -6 0 -8 -9 -4 -20 3 -11 2 -28 -4 -37 -6 -10 -11
-12 -11 -5 0 6 -7 12 -16 12 -14 0 -14 1 0 16 15 15 20 29 17 48 -1 4 3 14 10
22 6 7 7 19 3 26 -4 7 5 0 20 -16 15 -15 29 -27 31 -24 9 8 12 64 4 79 -7 13
-4 15 16 11 14 -2 25 -8 25 -13z m-1594 -4 c-3 -9 0 -15 10 -15 9 0 12 5 8 12
-5 8 2 9 26 5 18 -4 39 -7 46 -7 8 0 14 -4 14 -9 0 -6 -16 -8 -35 -7 -27 3
-35 0 -35 -13 0 -12 -2 -13 -8 -3 -5 7 -16 10 -24 7 -11 -4 -17 1 -20 19 -4
18 -1 26 9 26 9 0 13 -6 9 -15z m1174 11 c0 -2 -9 -6 -20 -9 -11 -3 -18 -1
-14 4 5 9 34 13 34 5z m-55 -16 c-3 -5 -12 -7 -20 -3 -21 7 -19 13 6 13 11 0
18 -4 14 -10z m420 0 c-3 -5 -12 -10 -18 -10 -7 0 -6 4 3 10 19 12 23 12 15 0z
m-1987 -12 c-2 -4 6 -14 17 -22 20 -15 20 -15 -2 -13 -12 0 -20 4 -17 8 6 10
-15 23 -23 15 -6 -5 -8 -16 -12 -59 -1 -5 -5 -6 -10 -3 -5 4 -7 -3 -4 -14 3
-11 9 -20 14 -20 5 0 5 7 2 17 -4 10 -2 14 5 9 6 -3 13 3 17 14 3 11 11 20 16
20 30 0 -20 -64 -51 -66 -11 -1 -19 2 -18 5 2 18 -3 31 -13 31 -5 0 -7 -5 -3
-12 4 -7 3 -8 -4 -4 -15 9 -16 36 -1 36 5 0 7 5 4 10 -3 6 -1 10 6 10 6 0 22
12 36 26 20 22 50 31 41 12z m254 -12 c6 4 5 10 -3 15 -10 6 -10 9 -2 9 6 0
15 -5 18 -10 4 -6 12 -8 18 -4 7 3 2 -3 -10 -14 -12 -11 -20 -22 -17 -24 2 -3
-10 -11 -28 -19 -24 -10 -33 -10 -36 -1 -2 7 -9 9 -14 6 -7 -4 -8 -2 -4 5 4 6
11 9 15 6 5 -2 17 2 27 10 13 10 14 14 4 12 -8 -2 -12 -2 -7 0 4 3 7 12 7 21
1 15 2 15 11 -1 6 -9 15 -15 21 -11z m1225 -16 c1 -22 -2 -40 -6 -40 -5 0 -8
67 -2 78 4 8 7 -3 8 -38z m47 32 c2 -4 -2 -16 -10 -27 -8 -10 -14 -14 -14 -8
0 6 -3 18 -6 27 -6 16 20 24 30 8z m-1119 -15 c11 -11 9 -16 -9 -27 -11 -8
-25 -13 -29 -12 -5 1 -6 -2 -2 -8 4 -6 1 -17 -5 -25 -16 -19 6 -49 29 -40 9 3
5 -3 -8 -13 -13 -11 -21 -24 -17 -31 4 -6 2 -11 -3 -11 -10 0 -15 14 -12 33 1
5 -3 6 -9 2 -6 -3 -8 -11 -5 -16 4 -5 2 -9 -4 -9 -5 0 -12 6 -14 13 -4 8 -6 6
-6 -4 -1 -9 -12 -28 -26 -43 -13 -14 -26 -30 -27 -34 -2 -4 -22 -7 -45 -7 -23
-1 -40 2 -37 6 2 4 -4 12 -13 18 -12 7 -13 10 -4 11 7 0 11 6 8 14 -4 11 -1
13 10 9 11 -4 14 -3 9 6 -4 6 -4 11 1 10 4 -1 11 0 16 1 12 4 26 7 38 9 5 0 8
5 5 10 -3 5 3 11 14 14 11 3 20 0 21 -6 0 -8 2 -8 6 1 2 6 9 10 14 7 5 -4 6 2
2 12 -6 16 -5 16 10 4 10 -8 20 -11 24 -7 4 3 -2 13 -13 21 -13 10 -14 13 -3
10 24 -9 45 21 29 40 -11 13 -8 15 16 15 22 0 26 3 14 10 -11 7 -11 10 -2 10
7 0 10 5 7 10 -9 14 4 12 20 -3z m235 4 c0 -4 -14 -7 -32 -5 -45 6 -48 14 -5
14 21 0 37 -4 37 -9z m810 -2 c0 -5 -4 -7 -10 -4 -5 3 -10 1 -10 -5 0 -7 -7
-10 -15 -6 -8 3 -15 1 -15 -4 0 -6 -4 -10 -10 -10 -19 0 -10 21 13 30 30 12
47 12 47 -1z m142 -12 c-7 -8 -10 -17 -7 -21 3 -3 0 -2 -6 3 -8 7 -8 13 2 24
17 18 26 13 11 -6z m638 -12 c0 -27 -4 -35 -17 -35 -14 0 -15 2 -5 9 8 4 13
11 13 15 -3 19 0 46 4 46 3 0 5 -16 5 -35z m-1506 6 c9 -7 16 -19 15 -25 0 -6
-3 -5 -6 3 -5 11 -7 11 -15 0 -8 -11 -9 -11 -5 2 4 12 -1 17 -20 17 -13 0 -29
4 -35 10 -16 16 46 9 66 -7z m644 -4 c2 -10 -3 -17 -12 -17 -9 0 -16 5 -16 10
0 6 5 10 12 10 6 0 9 2 7 5 -3 2 -20 1 -37 -4 -18 -5 -32 -6 -32 -1 0 9 35 18
60 16 8 -1 16 -9 18 -19z m-1275 -2 c-3 -9 -8 -14 -10 -11 -3 3 -2 9 2 15 9
16 15 13 8 -4z m675 -3 c6 -18 -15 -14 -22 4 -4 10 -1 14 6 12 6 -2 14 -10 16
-16z m489 -14 c-3 -7 -5 -2 -5 12 0 14 2 19 5 13 2 -7 2 -19 0 -25z m420 10
c-3 -8 -6 -5 -6 6 -1 11 2 17 5 13 3 -3 4 -12 1 -19z m73 7 c-7 -8 -16 -15
-21 -15 -5 0 -6 7 -3 15 4 8 13 15 21 15 13 0 13 -3 3 -15z m437 -3 c-9 -2
-15 -8 -12 -13 4 -5 2 -9 -3 -9 -11 0 -23 26 -16 33 3 3 15 2 27 -1 18 -5 19
-7 4 -10z m-2300 -24 c-3 -7 -5 -2 -5 12 0 14 2 19 5 13 2 -7 2 -19 0 -25z
m936 9 c3 5 27 11 53 11 25 1 50 5 54 7 5 3 11 1 15 -5 3 -6 -4 -10 -16 -10
-22 0 -22 0 -3 -14 18 -14 18 -15 -9 -36 -15 -12 -25 -26 -22 -31 4 -5 0 -6
-7 -4 -8 3 -31 -13 -53 -35 -21 -22 -43 -40 -47 -40 -14 0 -8 41 8 57 13 14
17 14 25 2 7 -11 9 -11 9 4 0 9 7 17 15 17 8 0 15 5 15 11 0 5 4 7 10 4 6 -3
7 1 4 9 -3 9 -12 16 -20 16 -8 0 -17 0 -21 1 -4 0 -9 -5 -11 -13 -2 -9 0 -8 8
2 10 13 11 13 7 0 -2 -8 -12 -15 -23 -15 -10 0 -24 -3 -30 -7 -7 -5 -15 -1
-18 9 -6 15 -8 15 -16 3 -8 -13 -10 -12 -10 3 0 9 4 17 9 17 5 0 12 8 14 18 4
13 5 12 6 -5 1 -14 7 -20 18 -19 21 3 26 35 6 43 -12 5 -12 7 -1 14 8 5 15 3
19 -8 3 -10 8 -12 12 -6z m1090 3 c3 -11 2 -22 -2 -24 -4 -3 -8 6 -9 20 -2 29
4 31 11 4z m377 0 c0 -21 -15 -27 -25 -10 -7 12 2 30 16 30 5 0 9 -9 9 -20z
m-2518 -32 c-6 -6 -7 0 -4 19 5 21 7 23 10 9 2 -10 0 -22 -6 -28z m695 20 c-3
-8 -6 -5 -6 6 -1 11 2 17 5 13 3 -3 4 -12 1 -19z m206 15 c-7 -2 -13 -9 -13
-14 0 -6 8 -6 19 1 29 15 21 -17 -9 -40 -22 -16 -22 -20 -10 -36 13 -16 13
-17 -2 -11 -13 4 -18 1 -18 -9 0 -10 6 -14 15 -11 8 4 16 3 19 -1 9 -14 -36
-11 -51 4 -11 11 -12 14 -1 14 10 0 9 3 -2 10 -14 9 -6 15 15 10 6 -1 7 2 3 5
-4 4 -3 16 2 26 17 31 -5 29 -30 -3 -16 -20 -23 -41 -21 -60 2 -20 -4 -35 -20
-49 -12 -10 -25 -19 -29 -19 -4 0 -7 -13 -6 -30 1 -16 4 -30 9 -30 16 0 6 -16
-12 -17 -14 -1 -22 7 -26 26 -5 23 -11 28 -33 27 -17 -1 -27 -7 -27 -16 0 -8
-3 -16 -7 -17 -14 -5 -63 -1 -52 3 7 3 10 14 7 24 -3 11 -1 20 4 20 6 0 26 16
47 36 20 19 40 33 44 30 4 -3 13 4 20 14 10 16 9 18 -3 14 -8 -4 -15 -1 -15 5
0 7 7 14 16 18 8 3 13 11 10 18 -3 8 2 11 15 8 11 -3 19 0 19 8 0 7 3 9 7 6 3
-4 -2 -17 -13 -28 -19 -22 -19 -22 3 -10 13 6 25 22 29 36 3 13 12 26 20 29 8
3 12 2 9 -4 -3 -5 7 -3 22 5 15 8 35 15 43 14 10 0 11 -2 3 -6z m480 1 c-8 -4
-9 -15 -2 -37 12 -41 12 -41 -7 -22 -10 9 -24 13 -38 10 -14 -4 -17 -3 -8 3
11 7 10 12 -3 26 -18 17 -30 22 -21 7 4 -5 3 -11 -1 -14 -5 -2 -1 -2 7 0 12 3
11 0 -3 -14 -9 -9 -27 -18 -40 -18 -12 0 -21 -5 -20 -11 1 -5 -7 -15 -18 -22
-15 -9 -19 -9 -19 0 0 6 -7 3 -15 -8 -14 -18 -14 -18 -8 4 3 12 10 22 17 22 6
1 22 10 35 21 20 16 22 22 11 32 -10 9 -11 9 -6 0 4 -8 1 -13 -7 -13 -21 0
-27 11 -14 26 8 9 37 13 92 13 44 0 75 -3 68 -5z m284 -14 c4 -11 2 -12 -5 -2
-5 7 -16 10 -27 6 -13 -5 -16 -4 -11 5 10 16 38 10 43 -9z m435 9 c17 -9 18
-13 7 -20 -8 -5 -9 -9 -4 -9 6 0 11 -17 12 -37 1 -21 -1 -29 -4 -18 -7 28 -23
43 -23 22 0 -9 -4 -17 -10 -17 -5 0 -10 -6 -10 -14 0 -8 -7 -16 -15 -20 -8 -3
-15 -1 -15 4 0 6 4 10 9 10 8 0 10 12 10 83 1 29 11 33 43 16z m-1442 -9 c0
-5 -7 -6 -17 -3 -10 4 -14 2 -10 -4 4 -6 0 -13 -8 -17 -16 -6 -16 14 0 26 14
11 35 10 35 -2z m1176 -12 c0 -12 -7 -23 -14 -24 -7 -1 -8 0 -2 3 5 2 8 9 4
14 -3 5 -2 14 1 19 9 15 12 12 11 -12z m-1056 8 c0 -2 -7 -7 -16 -10 -8 -3
-12 -2 -9 4 6 10 25 14 25 6z m630 -5 c0 -6 -4 -13 -10 -16 -5 -3 -10 1 -10 9
0 9 5 16 10 16 6 0 10 -4 10 -9z m40 -6 c-7 -8 -18 -15 -24 -15 -6 0 -2 7 8
15 25 19 32 19 16 0z m1046 4 c3 -6 15 -9 25 -6 11 3 19 1 19 -4 0 -5 -6 -9
-12 -9 -9 0 -10 -2 -2 -8 17 -11 2 -37 -23 -38 -13 0 -23 3 -23 8 0 4 7 8 15
8 19 0 20 26 1 33 -14 6 -29 -22 -29 -55 0 -19 -22 -24 -32 -8 -3 6 -1 10 6
10 7 0 10 3 6 6 -3 4 0 13 8 21 8 8 15 23 15 34 0 21 15 26 26 8z m-2112 -10
c-4 -8 1 -9 17 -4 23 7 24 7 4 -9 -26 -20 -34 -20 -30 2 5 23 4 22 11 22 3 0
2 -5 -2 -11z m1186 -14 c0 -14 7 -28 15 -31 8 -4 15 -11 15 -16 0 -6 -6 -5
-15 2 -8 7 -15 9 -16 4 0 -5 -4 0 -9 11 -8 18 -9 18 -9 -5 l-1 -24 -16 22
c-17 24 -12 42 12 42 8 0 12 5 9 10 -3 6 -1 10 4 10 6 0 11 -11 11 -25z m-623
-32 c-3 -10 -5 -2 -5 17 0 19 2 27 5 18 2 -10 2 -26 0 -35z m703 37 c8 -5 11
-10 5 -10 -5 0 -17 5 -25 10 -8 5 -10 10 -5 10 6 0 17 -5 25 -10z m380 6 c0
-9 -30 -14 -35 -6 -4 6 3 10 14 10 12 0 21 -2 21 -4z m535 -6 c-11 -17 5 -32
20 -20 23 19 10 -25 -25 -81 -16 -27 -30 -51 -30 -54 0 -12 -34 -43 -42 -39
-4 3 -8 -2 -8 -10 0 -8 -4 -18 -10 -21 -20 -12 -10 35 12 55 23 21 19 33 -13
35 -12 1 -18 -3 -15 -10 3 -8 -4 -10 -19 -8 -19 4 -22 1 -22 -22 0 -15 -7 -31
-14 -36 -10 -6 -8 -9 8 -9 25 0 39 16 21 23 -10 4 -11 7 0 18 10 11 12 11 13
-1 0 -8 2 -23 4 -32 2 -10 -1 -20 -6 -24 -5 -3 -7 -10 -4 -15 4 -5 -1 -12 -9
-15 -9 -3 -16 -12 -16 -19 0 -17 -49 -57 -61 -49 -5 3 -9 12 -9 21 0 13 3 13
15 3 12 -10 19 -10 27 -2 9 9 8 12 -3 12 -21 0 -21 38 -1 43 9 2 5 3 -10 2
-16 -1 -28 2 -28 7 0 5 -12 -3 -27 -17 -24 -22 -29 -23 -39 -10 -15 21 -35 19
-27 -2 6 -16 5 -16 -10 -4 -15 12 -17 12 -11 -3 4 -10 0 -18 -12 -23 -16 -6
-16 -7 2 -14 17 -6 17 -8 -8 -19 -15 -7 -25 -17 -22 -21 3 -5 0 -17 -5 -26 -7
-13 -10 -14 -11 -4 0 20 -13 5 -17 -19 -2 -14 5 -22 23 -26 14 -4 28 -4 31 0
4 3 -3 6 -15 6 -11 0 -24 5 -28 12 -5 8 -2 9 9 5 13 -5 17 -1 18 16 1 17 2 18
6 5 5 -21 12 -22 47 -8 21 7 26 6 26 -5 0 -8 -9 -15 -20 -15 -11 0 -20 -7 -20
-15 0 -11 -12 -15 -42 -16 -24 -1 -47 -1 -52 0 -5 1 -6 -5 -3 -13 4 -10 1 -13
-9 -9 -7 3 -14 1 -14 -5 0 -11 -79 -47 -94 -43 -5 1 -12 -3 -16 -10 -4 -6 -13
-8 -19 -5 -15 10 -14 26 3 26 19 0 39 27 31 40 -5 8 -11 8 -21 -1 -10 -9 -14
-9 -14 0 0 6 8 15 17 18 15 6 15 7 -3 15 -13 6 -7 7 19 4 31 -4 38 -2 33 9 -3
8 -1 17 5 20 5 4 8 -6 7 -24 -2 -26 -6 -30 -23 -25 -15 4 -17 3 -6 -5 12 -8
13 -12 1 -25 -7 -9 -10 -19 -7 -22 9 -10 27 6 27 24 0 12 3 13 8 5 5 -8 16 11
29 51 17 53 18 66 7 70 -8 3 -14 0 -14 -7 0 -9 -2 -9 -8 0 -4 6 -14 13 -22 15
-8 2 -20 9 -26 17 -9 11 -12 12 -19 1 -5 -9 -4 -11 3 -6 7 4 12 1 12 -8 0 -8
-4 -17 -10 -21 -5 -3 -6 -13 -3 -22 4 -11 3 -14 -5 -9 -8 5 -10 1 -5 -11 5
-15 3 -16 -8 -5 -7 6 -18 12 -23 12 -6 0 -5 -4 2 -8 10 -7 9 -15 -4 -40 -8
-17 -13 -36 -9 -42 3 -5 0 -7 -8 -4 -21 8 -31 -14 -16 -32 18 -21 -5 -40 -58
-48 -37 -5 -42 -4 -37 11 2 10 -1 8 -7 -4 -6 -12 -19 -25 -28 -28 -27 -12
-131 -22 -131 -13 0 4 5 8 12 8 6 0 8 3 5 6 -4 4 -13 2 -20 -4 -8 -7 -17 -9
-20 -5 -4 3 -7 1 -7 -5 0 -7 -7 -12 -15 -12 -8 0 -15 5 -15 10 0 6 -5 10 -11
10 -6 0 -9 -6 -6 -13 3 -8 -1 -14 -9 -14 -8 0 -14 4 -14 9 0 4 -10 8 -22 8
-17 0 -19 -3 -9 -9 8 -5 -10 -10 -50 -13 -35 -3 -65 -1 -67 4 -2 4 -14 5 -27
2 -12 -3 -26 -1 -30 6 -5 8 -10 8 -20 0 -10 -9 -15 -2 -21 32 -6 38 -8 40 -14
18 -4 -14 -12 -24 -18 -23 -7 2 -12 -6 -12 -17 0 -17 -3 -18 -26 -10 -14 6
-36 10 -50 10 -29 0 -32 20 -4 27 11 3 20 10 20 15 0 5 7 2 16 -6 18 -18 30
-20 39 -7 3 5 -4 12 -15 16 -14 4 -19 12 -16 23 8 25 -9 45 -36 46 -26 2 -35
-23 -14 -36 19 -13 29 -9 16 7 -9 11 -9 15 -1 15 25 0 22 -30 -6 -54 -15 -13
-30 -23 -32 -20 -2 2 -4 26 -4 54 l0 51 -28 -32 c-35 -39 -35 -42 -6 -33 12 3
19 3 15 -1 -4 -4 -1 -17 7 -29 22 -31 19 -36 -22 -33 -25 1 -40 8 -45 19 -4
11 -13 15 -23 12 -8 -3 -15 -1 -15 6 0 6 4 9 9 6 10 -7 33 49 24 58 -11 11
-22 -5 -16 -22 6 -15 5 -15 -10 -3 -15 12 -17 11 -17 -3 0 -9 -4 -16 -9 -16
-6 0 -9 9 -8 20 1 23 44 43 81 38 14 -1 25 0 26 5 1 23 -2 27 -17 28 -16 0
-16 1 1 8 23 9 78 2 71 -9 -3 -5 -14 -6 -25 -3 -11 3 -20 0 -20 -6 0 -7 11 -9
30 -6 17 3 30 1 30 -5 0 -5 5 -10 11 -10 5 0 7 5 4 11 -4 5 -2 23 5 39 9 22
15 26 24 17 10 -9 9 -15 -8 -28 l-20 -16 21 -13 c12 -8 19 -20 16 -27 -3 -7 0
-13 7 -13 10 0 10 -3 0 -15 -9 -11 -9 -15 -1 -15 6 0 15 8 18 18 4 9 11 20 17
24 7 5 7 8 -2 8 -7 0 -10 5 -7 10 3 5 2 10 -2 10 -5 0 -9 9 -10 20 -1 11 2 18
8 15 5 -4 9 -13 9 -21 0 -21 17 -17 23 6 3 13 11 18 20 14 19 -7 60 44 52 65
-5 13 -4 14 6 4 19 -19 28 -16 24 7 -2 11 1 20 6 20 6 0 8 4 5 8 -3 5 6 15 19
22 29 15 34 32 8 24 -15 -5 -15 -4 -3 5 10 7 19 5 31 -7 16 -16 5 -37 -13 -26
-4 3 -5 -2 -2 -11 5 -11 2 -14 -12 -8 -12 4 -15 3 -10 -5 4 -7 1 -15 -8 -18
-9 -3 -13 -10 -10 -15 3 -5 18 5 34 22 17 16 30 24 30 17 1 -7 7 -2 15 12 14
24 20 16 16 -19 -2 -7 2 -10 8 -6 13 7 14 3 5 -19 -8 -20 -24 -21 -24 -1 0 22
-17 18 -23 -5 -3 -11 -1 -18 4 -14 5 3 9 0 9 -5 0 -6 -6 -11 -12 -12 -10 0
-10 -2 0 -6 15 -6 16 -53 1 -53 -5 0 -7 -4 -4 -10 3 -5 1 -10 -4 -10 -14 0
-14 6 0 32 8 15 8 19 0 14 -6 -4 -11 -2 -11 4 0 6 -5 8 -10 5 -6 -4 -8 -10 -5
-15 3 -5 0 -12 -6 -16 -7 -4 -9 -3 -5 4 3 6 2 13 -3 16 -5 3 -7 15 -4 26 4 17
0 20 -23 20 -24 -1 -26 -2 -12 -10 18 -11 18 -42 0 -48 -7 -2 -10 2 -6 11 3 8
1 18 -5 22 -21 12 -11 -35 11 -57 24 -24 48 -32 48 -16 0 6 -7 8 -15 4 -8 -3
-15 -4 -15 -2 0 3 -3 12 -7 21 -5 15 -3 16 15 6 12 -7 22 -8 22 -4 0 4 5 0 11
-10 6 -9 8 -26 4 -36 -4 -14 0 -21 15 -26 11 -4 18 -11 14 -16 -3 -6 -16 1
-29 15 -21 22 -25 23 -36 10 -12 -14 -14 -14 -20 3 -4 11 -6 4 -6 -19 1 -21 5
-38 9 -38 7 0 12 15 9 33 0 4 4 7 9 7 6 0 10 -7 10 -15 0 -8 6 -15 13 -16 6 0
-1 -5 -18 -10 -16 -5 -38 -6 -47 -3 -12 3 -18 0 -18 -9 0 -9 10 -14 30 -13 16
1 30 4 30 8 0 4 7 5 15 1 9 -3 23 3 31 13 15 18 15 18 11 -4 -3 -12 -1 -20 4
-16 5 3 9 12 9 20 0 8 4 14 8 14 5 0 10 21 10 46 2 34 -1 43 -10 38 -10 -6
-10 -4 -2 7 5 8 9 24 8 36 0 12 3 20 7 17 5 -3 9 -24 9 -46 0 -23 3 -39 6 -35
3 3 6 22 6 41 0 20 4 36 8 36 14 0 17 -24 6 -43 -16 -25 14 -44 32 -20 6 9 12
12 12 7 0 -6 7 -11 15 -11 18 0 19 9 4 24 -8 8 -5 13 11 18 11 4 25 18 30 31
5 13 16 24 24 24 8 0 17 9 21 19 3 11 15 23 26 26 10 4 19 10 19 14 0 4 8 17
18 28 l17 20 18 -23 c10 -13 13 -24 7 -24 -5 0 -10 5 -10 11 0 8 -4 8 -14 0
-19 -16 -27 -93 -8 -86 8 3 17 5 22 5 4 0 8 6 7 13 -1 31 4 47 15 47 6 0 8 -3
5 -7 -4 -3 0 -11 9 -18 14 -9 10 -15 -25 -38 -33 -22 -43 -24 -53 -14 -10 11
-15 11 -30 -2 -10 -8 -18 -20 -18 -26 0 -5 5 -3 10 5 5 8 10 11 10 6 0 -5 -8
-18 -17 -28 -17 -19 -16 -19 12 -13 23 5 26 4 15 -4 -9 -6 -10 -11 -3 -11 6 0
13 -8 16 -17 2 -10 4 -3 4 15 0 17 -3 32 -7 32 -4 0 -7 7 -7 15 0 18 27 20 27
3 0 -7 5 -5 11 5 13 21 31 23 22 1 -5 -14 -3 -14 15 -3 17 11 19 16 9 28 -10
12 -9 14 4 9 9 -4 22 -1 28 5 8 8 14 8 23 -1 9 -9 8 -12 -7 -12 -17 0 -18 -2
-5 -10 13 -8 12 -10 -3 -10 -10 0 -15 -4 -12 -10 3 -5 -1 -10 -9 -10 -9 0 -16
-7 -16 -16 0 -8 -4 -13 -8 -10 -4 2 -13 -4 -20 -14 -9 -15 -8 -19 4 -24 23 -9
34 -7 34 5 0 6 18 29 40 51 22 22 37 45 33 51 -4 6 2 8 15 5 18 -5 21 -2 18
15 -1 11 -11 24 -22 28 -29 11 -34 10 -28 -5 3 -8 1 -17 -5 -21 -7 -4 -11 4
-11 19 0 14 5 26 11 26 5 0 7 5 4 10 -3 6 -1 10 6 10 8 0 8 4 -1 15 -13 16
-31 20 -29 8 1 -5 1 -26 0 -48 -1 -28 -4 -36 -10 -26 -5 8 -7 20 -4 28 3 7 -1
13 -10 13 -10 0 -14 7 -10 23 3 16 2 18 -5 8 -10 -13 -14 -10 -25 22 -6 15 -2
18 16 15 12 -2 25 -7 29 -13 4 -6 8 -2 8 8 0 13 -8 17 -36 17 -21 0 -33 4 -29
10 4 6 11 8 16 5 5 -4 12 1 15 9 8 20 24 21 24 2 0 -16 32 -15 38 2 2 6 9 9
17 6 7 -3 16 -1 20 5 3 6 1 11 -5 11 -7 0 -6 5 2 14 7 8 18 11 23 8 6 -3 3 3
-5 13 -9 11 -10 16 -2 11 6 -4 12 -3 12 3 0 22 -21 20 -31 -3 -7 -14 -16 -23
-21 -20 -5 3 -8 -2 -6 -11 3 -19 -27 -29 -48 -17 -9 5 -9 10 2 20 7 7 15 12
16 12 2 -1 11 2 21 6 15 5 15 9 5 22 -11 14 -10 15 6 8 20 -7 20 -6 1 14 -14
16 -15 19 -3 15 19 -8 33 22 18 40 -8 10 -8 15 1 21 7 4 9 3 5 -4 -3 -6 -1
-14 5 -17 5 -4 8 -13 5 -21 -3 -8 1 -14 8 -14 8 0 17 -6 19 -12 3 -7 6 -4 6 7
1 12 6 26 13 33 9 9 9 12 0 12 -7 0 -12 5 -12 11 0 6 6 9 14 6 16 -7 41 17 32
31 -3 5 6 14 21 21 l26 12 -17 -25 c-15 -24 -15 -25 1 -19 16 6 16 4 -1 -15
-13 -15 -15 -22 -6 -22 7 0 10 -8 7 -20 -3 -11 -1 -23 4 -26 5 -3 9 -16 9 -29
0 -37 15 -37 30 0 14 34 44 44 55 17 3 -9 -2 -12 -17 -10 -11 2 -23 -3 -26
-11 -3 -8 0 -11 7 -7 6 4 11 2 11 -4 0 -7 -7 -10 -14 -7 -9 4 -17 -2 -21 -13
-8 -25 2 -41 20 -33 19 7 19 -4 1 -23 -17 -16 -30 -19 -21 -4 8 13 -6 13 -25
0 -13 -9 -13 -11 0 -19 8 -6 11 -13 7 -17 -4 -4 -2 -13 5 -21 6 -8 7 -13 2
-11 -5 2 -9 -1 -9 -7 0 -5 2 -9 5 -8 3 1 14 5 25 9 19 6 19 6 2 -8 -18 -13
-17 -14 2 -14 28 0 37 26 11 33 -27 7 -25 27 3 41 13 6 16 11 7 11 -10 1 -7 6
8 17 13 9 26 13 29 10 4 -3 1 -6 -5 -6 -7 0 -12 -7 -12 -15 0 -7 -8 -18 -17
-23 -15 -9 -15 -11 -1 -26 18 -18 33 -22 23 -6 -3 6 -2 10 4 10 5 0 12 -8 15
-17 2 -10 4 -5 3 12 -2 22 4 32 21 41 15 7 20 14 13 18 -14 9 -14 36 0 36 5 0
7 -4 4 -10 -3 -5 -1 -10 4 -10 6 0 11 5 11 10 0 6 7 10 16 10 14 0 14 1 0 16
-16 16 -21 46 -9 57 3 4 12 -1 20 -11 12 -15 13 -15 11 8 -2 14 -9 24 -15 23
-6 -1 -9 6 -6 18 5 16 8 18 15 7 7 -9 8 -7 5 10 -3 12 -1 20 3 17 5 -3 14 3
19 12 10 15 11 14 8 -8 -1 -15 -8 -34 -15 -42 -11 -13 -10 -17 5 -25 17 -10
17 -11 -1 -31 -16 -18 -17 -21 -3 -21 10 0 13 -6 10 -20 -3 -11 -9 -20 -14
-20 -5 0 -9 -5 -9 -11 0 -6 7 -8 16 -5 8 3 12 2 9 -4 -3 -5 -2 -18 4 -27 8
-15 10 -11 9 17 -1 19 0 52 0 74 2 32 4 37 17 26 12 -10 13 -8 10 10 -3 17 0
20 12 16 14 -6 14 -4 2 10 -8 10 -15 12 -17 5 -5 -14 -42 -15 -42 -1 0 5 6 9
13 7 6 -1 11 5 11 15 -1 9 8 18 21 21 17 3 22 0 18 -10 -4 -9 0 -11 11 -7 19
7 22 -12 4 -20 -10 -5 -10 -7 0 -12 10 -5 9 -9 -4 -18 -11 -9 -14 -19 -10 -34
10 -31 24 -27 19 6 -3 25 -3 26 8 5 9 -17 8 -26 -5 -44 -13 -19 -16 -20 -16
-6 0 9 -5 17 -11 17 -5 0 -7 5 -4 10 3 6 -1 10 -9 10 -9 0 -13 -6 -10 -14 3
-8 0 -17 -5 -21 -13 -7 -5 -25 10 -25 6 0 7 5 3 12 -4 6 3 4 17 -5 28 -20 77
-24 62 -4 -6 6 -9 21 -6 32 2 11 5 30 6 42 1 13 6 23 10 23 5 0 5 5 2 10 -3 6
-2 10 3 10 5 0 12 9 15 19 4 17 10 18 40 11 19 -4 41 -4 48 1 10 6 11 9 2 9
-7 0 -13 5 -13 10 0 6 6 10 13 9 25 -3 38 1 36 14 -3 27 2 47 12 47 5 0 7 -4
4 -10z m-2422 -24 c3 3 5 -3 4 -15 -1 -11 -6 -21 -12 -22 -5 0 -1 -4 10 -9 14
-6 15 -9 5 -9 -22 -1 -40 19 -33 37 4 10 2 13 -5 8 -8 -5 -12 1 -12 15 0 21 1
21 18 6 10 -10 21 -14 25 -11z m492 14 c-3 -5 -16 -10 -28 -9 -20 1 -20 2 3 9
14 4 26 8 28 9 2 1 0 -3 -3 -9z m1305 0 c0 -5 -7 -7 -15 -4 -8 4 -15 8 -15 10
0 2 7 4 15 4 8 0 15 -4 15 -10z m40 -26 c0 -8 -4 -14 -9 -14 -11 0 -22 26 -14
34 9 9 23 -3 23 -20z m400 16 c0 -5 -10 -10 -22 -9 -22 0 -22 1 -3 9 11 5 21
9 23 9 1 1 2 -3 2 -9z m-1943 -22 c2 -17 0 -19 -7 -8 -5 8 -6 18 -4 22 8 12
10 10 11 -14z m490 8 c0 -8 -6 -12 -15 -9 -11 5 -11 7 0 14 7 5 13 9 14 9 0 0
1 -6 1 -14z m235 -16 c-17 -16 -22 -17 -22 -6 0 8 8 19 17 25 27 15 29 3 5
-19z m165 -1 c1 -16 0 -18 -3 -6 -6 18 -46 21 -44 4 0 -4 -13 -19 -30 -33 -32
-28 -40 -54 -14 -54 8 0 12 -5 9 -10 -5 -8 -11 -8 -19 -1 -7 6 -15 8 -18 5 -3
-2 -8 6 -10 20 -3 14 -1 23 3 20 5 -3 9 1 9 9 0 17 34 49 43 40 4 -3 7 -1 7 6
0 12 38 31 55 27 6 -1 11 -13 12 -27z m39 19 c5 -7 3 -8 -6 -3 -9 5 -10 2 -5
-14 4 -12 2 -21 -4 -21 -6 0 -11 11 -11 25 0 26 14 33 26 13z m251 6 c-3 -3
-12 -4 -19 -1 -8 3 -5 6 6 6 11 1 17 -2 13 -5z m121 -19 c-3 -3 -9 2 -12 12
-6 14 -5 15 5 6 7 -7 10 -15 7 -18z m112 15 c0 -5 -2 -10 -4 -10 -3 0 -8 5
-11 10 -3 6 -1 10 4 10 6 0 11 -4 11 -10z m-1883 -45 c1 -25 -2 -45 -8 -45 -6
0 -7 9 -4 21 5 14 3 19 -3 15 -11 -7 -9 25 3 44 9 15 10 13 12 -35z m1532 29
c-7 -9 -7 -31 2 -74 9 -49 9 -66 -1 -85 -7 -13 -17 -22 -22 -19 -11 7 -10 41
1 46 5 2 5 29 0 63 -5 37 -4 61 2 63 5 2 7 7 5 11 -3 4 1 8 9 8 11 0 12 -4 4
-13z m721 8 c0 -13 -12 -22 -22 -16 -10 6 -1 24 13 24 5 0 9 -4 9 -8z m-1824
-17 c-1 -8 -5 -17 -8 -21 -5 -4 -4 16 1 34 3 9 9 -1 7 -13z m1019 5 c3 -6 -1
-7 -9 -4 -18 7 -21 14 -7 14 6 0 13 -4 16 -10z m112 -10 c1 -11 -2 -20 -8 -20
-10 0 -12 23 -2 33 9 9 9 10 10 -13z m103 10 c0 -5 -4 -10 -10 -10 -5 0 -10 5
-10 10 0 6 5 10 10 10 6 0 10 -4 10 -10z m90 2 c0 -5 -9 -19 -20 -32 -11 -12
-17 -27 -14 -32 4 -6 10 -5 16 3 6 10 8 7 6 -10 -2 -14 -10 -26 -18 -28 -13
-4 -13 -3 0 6 13 9 13 11 -2 11 -24 0 -23 25 4 60 23 32 28 35 28 22z m653 -8
c-3 -9 -9 -12 -12 -7 -3 4 -10 11 -15 16 -5 4 0 7 12 7 15 0 20 -4 15 -16z
m-1667 -6 c4 -7 3 -8 -4 -4 -7 4 -12 2 -12 -5 0 -7 -3 -10 -6 -6 -6 5 3 27 11
27 2 0 7 -5 11 -12z m1384 -38 c-4 -8 -10 -22 -13 -30 -3 -8 -4 3 -2 25 6 61
6 61 14 40 5 -11 5 -27 1 -35z m-1096 19 c-8 -14 -24 -10 -24 6 0 9 6 12 15 9
8 -4 12 -10 9 -15z m132 9 c-3 -18 -25 -55 -26 -42 0 5 6 16 13 23 10 11 9 13
-5 8 -20 -7 -25 9 -5 16 20 9 25 8 23 -5z m174 -9 c-7 -11 -14 -18 -17 -15 -3
3 0 12 7 21 18 21 23 19 10 -6z m106 -7 c-9 -9 -37 8 -31 18 5 8 11 7 21 -1 8
-6 12 -14 10 -17z m164 6 c0 -16 -3 -19 -11 -11 -6 6 -8 16 -5 22 11 17 16 13
16 -11z m180 12 c0 -5 -7 -10 -16 -10 -8 0 -12 5 -9 10 3 6 10 10 16 10 5 0 9
-4 9 -10z m30 0 c0 -5 -2 -10 -4 -10 -3 0 -8 5 -11 10 -3 6 -1 10 4 10 6 0 11
-4 11 -10z m100 -5 c-7 -8 -14 -15 -15 -15 -2 0 -5 7 -9 15 -4 10 1 15 16 15
17 0 18 -2 8 -15z m343 -5 c-3 -12 -8 -19 -11 -16 -5 6 5 36 12 36 2 0 2 -9
-1 -20z m197 10 c0 -5 -2 -10 -4 -10 -3 0 -8 5 -11 10 -3 6 -1 10 4 10 6 0 11
-4 11 -10z m-1786 -15 c-4 -8 -11 -12 -16 -9 -6 4 -5 10 3 15 19 12 19 11 13
-6z m1206 11 c0 -2 3 -11 6 -20 3 -9 1 -16 -6 -16 -6 0 -8 6 -5 13 4 6 0 4 -8
-5 -8 -10 -20 -18 -27 -18 -9 0 -7 6 5 20 20 22 8 28 -15 8 -12 -11 -12 -10
-1 5 12 15 51 25 51 13z m350 -7 c-11 -8 -12 -12 -3 -15 9 -4 7 -12 -7 -26
-11 -12 -17 -25 -14 -30 3 -5 -6 -20 -20 -33 -23 -21 -26 -22 -26 -6 0 10 7
24 15 31 11 9 12 17 4 31 -15 28 5 59 39 59 22 0 24 -2 12 -11z m-2151 -17
c-4 -36 29 -70 44 -44 2 4 3 2 1 -4 -3 -15 35 -46 48 -38 5 4 3 -5 -7 -19 -16
-24 -15 -26 5 -37 11 -6 18 -15 15 -21 -4 -5 -1 -9 4 -9 6 0 11 -5 11 -11 0
-8 -5 -8 -15 1 -14 11 -19 7 -16 -12 0 -4 -6 -5 -15 -1 -11 4 -12 8 -4 13 9 6
9 9 1 14 -6 4 -9 11 -6 16 3 5 1 11 -5 15 -5 3 -10 1 -10 -6 0 -7 -3 -10 -6
-7 -3 3 0 15 7 26 17 27 5 52 -25 52 -16 0 -26 7 -30 23 -6 20 -7 20 -17 5
-12 -22 -39 -24 -39 -3 0 8 4 15 9 15 10 0 9 19 -1 35 -3 6 7 11 24 12 22 2
29 -2 27 -15z m804 3 c-3 -9 -8 -14 -10 -11 -3 3 -2 9 2 15 9 16 15 13 8 -4z
m507 -5 c0 -11 -4 -20 -9 -20 -5 0 -7 9 -4 20 3 11 7 20 9 20 2 0 4 -9 4 -20z
m260 10 c0 -5 -5 -10 -11 -10 -5 0 -7 5 -4 10 3 6 8 10 11 10 2 0 4 -4 4 -10z
m447 -12 c-3 -8 -6 -5 -6 6 -1 11 2 17 5 13 3 -3 4 -12 1 -19z m-1917 -5 c0
-10 -4 -14 -8 -8 -4 6 -11 13 -16 18 -5 4 -2 7 7 7 10 0 17 -8 17 -17z m516 2
c-8 -8 -20 -15 -27 -15 -7 0 -4 6 7 15 25 19 40 19 20 0z m906 -19 c9 6 9 3
-1 -9 -15 -18 -26 -23 -16 -7 3 6 2 10 -4 10 -5 0 -12 -8 -14 -17 -3 -10 -4
-4 -4 12 1 42 9 53 19 26 5 -14 12 -20 20 -15z m178 30 c0 -3 -4 -8 -10 -11
-5 -3 -10 -1 -10 4 0 6 5 11 10 11 6 0 10 -2 10 -4z m160 0 c0 -3 -4 -8 -10
-11 -5 -3 -10 -1 -10 4 0 6 5 11 10 11 6 0 10 -2 10 -4z m-1800 -16 c0 -5 -5
-10 -11 -10 -5 0 -7 5 -4 10 3 6 8 10 11 10 2 0 4 -4 4 -10z m757 -12 c-3 -8
-6 -5 -6 6 -1 11 2 17 5 13 3 -3 4 -12 1 -19z m38 14 c-14 -10 -17 -32 -4 -32
5 0 7 -5 4 -11 -9 -14 -15 -7 -21 25 -3 20 0 26 13 26 10 0 14 -4 8 -8z m154
-8 c11 10 25 15 31 11 8 -5 2 -14 -17 -26 -15 -10 -28 -27 -29 -37 -1 -25 -12
-42 -26 -42 -6 0 -3 9 7 20 11 12 13 20 6 20 -7 0 -9 5 -6 10 15 25 -9 27 -30
2 -24 -27 -24 -27 -25 -4 0 14 -4 21 -11 17 -6 -4 -8 -13 -5 -21 3 -8 0 -11
-10 -7 -15 6 -11 16 26 54 14 15 17 15 42 1 25 -15 29 -14 47 2z m322 2 c-9
-10 -7 -17 6 -27 15 -12 16 -12 10 3 -4 12 -2 15 9 11 11 -4 12 -9 3 -19 -7
-9 -18 -10 -34 -4 -20 8 -28 5 -45 -17 -11 -14 -20 -21 -20 -15 0 12 61 79 74
81 5 0 3 -5 -3 -13z m54 4 c3 -5 1 -10 -4 -10 -6 0 -11 5 -11 10 0 6 2 10 4
10 3 0 8 -4 11 -10z m-250 -10 c-3 -5 -1 -10 4 -10 19 0 12 -20 -6 -21 -13 0
-14 -2 -4 -6 11 -5 11 -7 0 -14 -10 -6 -11 -9 -1 -9 6 0 12 -5 12 -11 0 -5 -4
-7 -10 -4 -5 3 -10 0 -10 -7 0 -7 -12 0 -27 15 l-28 28 30 25 c31 25 51 32 40
14z m110 0 c3 -5 1 -10 -4 -10 -6 0 -11 5 -11 10 0 6 2 10 4 10 3 0 8 -4 11
-10z m180 -10 c-4 -6 -1 -17 5 -25 10 -12 9 -15 -3 -15 -9 0 -21 -8 -26 -17
-6 -10 -11 -13 -11 -7 0 13 29 74 36 74 3 0 2 -5 -1 -10z m174 -21 c-10 -6 -5
-9 16 -10 29 -1 29 -1 5 -8 -14 -4 -26 -4 -28 1 -2 4 -12 3 -23 -2 -15 -8 -17
-7 -13 5 3 8 10 12 15 10 4 -3 14 3 21 15 7 11 15 15 17 9 2 -6 -3 -15 -10
-20z m198 13 c-10 -10 -14 -22 -10 -25 3 -4 -5 -7 -18 -7 -19 0 -21 2 -9 10 8
5 11 12 7 16 -4 4 -15 0 -26 -10 -17 -15 -19 -15 -32 1 -9 11 -10 14 -1 9 7
-4 12 -2 12 4 0 7 6 10 13 7 6 -2 21 -1 32 4 38 15 50 11 32 -9z m-1210 2 c-3
-3 -12 -4 -19 -1 -8 3 -5 6 6 6 11 1 17 -2 13 -5z m172 -49 c0 -5 -6 -1 -14 9
-8 10 -11 24 -8 29 6 10 21 -16 22 -38z m-638 19 c21 -25 20 -47 -1 -41 -12 3
-21 -1 -23 -12 -4 -14 -5 -14 -6 1 0 9 4 20 9 23 15 9 12 25 -6 25 -8 0 -12 5
-9 10 9 14 21 12 36 -6z m1279 12 c0 -2 -7 -9 -15 -16 -12 -10 -15 -10 -15 4
0 9 7 16 15 16 8 0 15 -2 15 -4z m424 -17 c-6 -11 -24 -2 -24 11 0 5 7 7 15 4
8 -4 12 -10 9 -15z m-651 -29 c-6 -43 2 -51 23 -22 12 15 12 15 7 -5 -5 -22
-14 -27 -39 -24 -6 1 -16 -13 -22 -31 -11 -33 -11 -33 -5 7 3 22 10 42 14 43
5 2 9 8 9 13 0 6 -4 8 -10 4 -5 -3 -5 7 1 25 15 43 28 37 22 -10z m71 29 c3
-3 -4 -5 -14 -6 -11 -1 -20 2 -20 7 0 8 25 8 34 -1z m431 -29 c11 9 14 7 12
-9 0 -11 -5 -17 -9 -15 -4 3 -8 0 -8 -6 0 -6 -6 -8 -12 -4 -7 4 -6 -1 3 -12 9
-10 14 -25 12 -32 -3 -7 2 -19 12 -25 15 -12 15 -13 -4 -13 -11 0 -19 3 -19 6
2 25 -3 52 -9 46 -5 -4 -8 -13 -8 -19 0 -6 -18 -12 -40 -13 -22 -1 -34 0 -27
3 6 3 10 8 7 13 -3 4 2 11 11 14 12 4 15 2 10 -9 -3 -8 -1 -15 4 -15 12 0 14
36 3 43 -5 2 -2 2 4 1 16 -4 33 26 34 63 l2 28 4 -28 c4 -23 7 -26 18 -17z
m-1671 15 c3 -8 11 -15 18 -15 9 0 9 3 -2 11 -10 7 -11 9 -2 7 8 -2 13 -7 13
-11 -1 -4 -1 -13 -1 -21 0 -7 -10 -13 -22 -12 -15 1 -23 7 -22 19 1 9 -2 17
-8 17 -5 0 -6 5 -3 10 9 15 22 12 29 -5z m826 11 c0 -3 -4 -8 -10 -11 -5 -3
-10 -1 -10 4 0 6 5 11 10 11 6 0 10 -2 10 -4z m-154 -18 c4 -7 3 -8 -4 -4 -16
10 -15 -17 0 -32 9 -9 5 -12 -17 -11 -26 0 -27 2 -10 9 11 5 14 9 7 9 -10 1
-10 6 -2 21 12 23 16 24 26 8z m224 2 c8 -5 11 -10 5 -10 -5 0 -2 -7 8 -15 15
-11 17 -17 7 -32 -10 -16 -11 -16 -6 0 3 11 0 17 -10 17 -9 0 -12 -5 -8 -12 6
-10 4 -10 -7 0 -7 6 -16 12 -19 12 -11 0 -8 -64 2 -77 7 -9 3 -16 -17 -23 -41
-16 -66 -13 -58 7 4 11 3 14 -5 9 -7 -4 -12 -13 -12 -21 0 -7 -12 -18 -27 -23
-16 -6 -22 -11 -15 -11 6 -1 12 -9 12 -18 0 -15 -2 -15 -9 -4 -5 8 -16 11 -26
8 -9 -4 -14 -3 -10 3 7 12 -5 13 -21 2 -12 -8 16 -68 28 -61 4 2 14 -5 23 -16
16 -19 16 -19 9 5 -5 20 -4 23 6 13 10 -9 18 -8 37 4 13 9 27 13 31 9 6 -7 1
-11 -38 -36 -13 -9 -13 -11 0 -21 13 -9 12 -10 -3 -5 -13 4 -17 2 -13 -6 3 -7
9 -21 12 -31 7 -19 20 -22 29 -6 4 6 13 8 20 5 20 -7 26 4 14 27 -7 13 -7 17
-1 13 6 -3 13 -2 17 3 3 6 13 7 22 4 12 -5 14 -3 8 8 -4 8 -5 11 -1 7 8 -7 25
5 82 58 19 17 31 34 27 38 -3 3 3 6 15 6 12 0 22 5 22 10 0 6 -5 10 -11 10 -6
0 -2 8 10 18 15 12 18 21 11 32 -8 13 -10 13 -10 -1 0 -17 -28 -34 -38 -24 -3
3 -1 5 5 5 6 0 13 7 17 15 5 13 2 14 -16 4 -12 -6 -31 -20 -41 -30 -11 -10
-24 -16 -28 -13 -4 2 -10 0 -14 -6 -3 -6 4 -14 16 -18 17 -7 19 -11 9 -17 -8
-5 -15 -4 -17 2 -5 13 -43 5 -43 -8 0 -5 -6 -9 -14 -9 -7 0 -16 -11 -18 -25
-4 -17 -1 -25 9 -25 8 0 11 -4 8 -10 -3 -5 -13 -10 -21 -10 -12 0 -14 8 -8 43
4 23 7 51 6 62 0 11 2 14 5 7 4 -10 8 -10 21 0 12 10 14 10 8 1 -4 -9 -1 -13
10 -13 13 0 15 6 11 30 -4 16 -2 32 3 35 6 3 10 -1 10 -9 0 -9 5 -16 11 -16 5
0 7 5 4 10 -3 6 1 10 9 10 8 0 18 5 22 12 4 6 3 8 -3 5 -6 -4 -14 0 -17 9 -4
11 -2 15 8 11 8 -3 20 1 27 9 14 18 70 49 82 46 4 -1 7 3 7 8 0 6 7 10 15 10
8 0 15 -4 15 -10 0 -5 -4 -10 -10 -10 -5 0 -10 -4 -10 -9 0 -5 8 -7 19 -4 10
3 21 1 24 -4 3 -4 -13 -8 -35 -9 -40 -1 -68 -18 -53 -31 4 -5 10 -2 12 5 5 13
53 17 53 4 0 -16 -13 -22 -25 -12 -8 7 -12 5 -12 -5 0 -8 4 -15 8 -15 4 0 15
-3 25 -7 13 -5 15 -3 9 7 -5 8 -4 11 3 6 5 -3 12 0 15 6 3 7 4 3 4 -9 -1 -23
-29 -42 -35 -24 -5 16 -22 13 -22 -4 0 -8 -8 -15 -17 -15 -15 0 -16 -2 -3 -10
9 -6 17 -5 21 2 4 6 12 9 17 7 6 -2 -7 -21 -28 -42 -22 -21 -40 -32 -40 -25 0
8 -3 9 -8 3 -4 -6 -20 -19 -36 -29 -16 -10 -25 -21 -20 -25 5 -3 10 -12 12
-20 3 -12 0 -12 -12 -1 -17 13 -21 3 -7 -18 10 -17 22 -17 32 -1 4 8 11 10 15
6 9 -9 1 -18 -23 -22 -10 -1 -17 -8 -16 -14 2 -6 -4 -11 -13 -11 -12 0 -14 4
-7 13 6 8 6 20 -2 35 -11 20 -13 21 -19 6 -4 -10 -1 -21 6 -27 10 -7 9 -8 -3
-4 -9 3 -23 -3 -32 -14 -9 -10 -13 -19 -7 -19 5 0 12 5 15 10 3 6 11 10 16 10
6 0 7 -6 2 -12 -4 -7 -6 -21 -4 -32 1 -11 -2 -16 -8 -11 -6 3 -9 11 -6 16 8
12 -1 11 -24 -3 -16 -9 -27 -8 -60 7 -22 10 -38 22 -35 26 3 5 0 9 -5 9 -6 0
-11 -7 -11 -15 0 -9 -6 -12 -16 -8 -15 5 -15 7 0 15 9 5 16 17 16 26 -1 13 -6
11 -24 -9 -15 -18 -28 -24 -37 -19 -7 5 -17 6 -21 4 -4 -3 -8 0 -8 6 0 7 6 10
13 7 7 -2 23 3 35 13 18 15 19 19 7 24 -8 3 -15 12 -15 19 0 8 -7 20 -15 27
-8 7 -13 16 -10 20 6 9 -45 24 -53 15 -3 -3 -1 -19 5 -35 10 -26 9 -30 -8 -35
-15 -5 -18 -12 -14 -28 4 -13 3 -17 -2 -10 -5 6 -15 11 -23 11 -43 -3 -71 3
-64 13 3 6 -1 10 -12 9 -50 -6 -60 10 -19 28 34 16 40 15 25 -3 -26 -32 24 -2
63 37 21 21 42 38 48 38 11 0 44 29 44 39 1 10 24 47 25 38 0 -4 10 1 22 13
12 11 26 20 32 20 5 0 1 -7 -10 -15 -20 -15 -16 -19 10 -9 9 3 16 13 16 21 0
8 5 11 11 8 6 -4 13 2 16 14 3 12 13 21 24 21 15 0 17 -6 12 -45 -4 -39 -3
-44 11 -39 18 7 22 24 6 24 -5 0 -10 5 -10 11 0 5 6 7 13 3 8 -5 8 -2 -2 9
-10 13 -10 17 -1 17 9 0 10 3 1 13 -14 18 -4 27 28 27 21 0 23 2 11 10 -8 5
-10 10 -5 10 6 0 17 -5 25 -10z m480 -9 c0 -14 -29 -46 -30 -33 0 7 -4 11 -9
7 -18 -11 -23 17 -5 30 18 12 44 10 44 -4z m790 11 c0 -4 -9 -8 -20 -8 -11 0
-20 4 -20 8 0 4 9 8 20 8 11 0 20 -4 20 -8z m-620 -13 c13 -9 13 -10 0 -8 -38
4 -43 -1 -20 -21 13 -11 19 -20 14 -20 -6 0 -16 6 -23 13 -11 10 -12 7 -7 -13
3 -14 3 -19 0 -11 -5 10 -8 11 -14 1 -4 -7 -13 -9 -19 -6 -16 10 -14 26 4 26
8 0 15 6 15 13 0 13 19 37 30 37 3 0 12 -5 20 -11z m37 -11 c-3 -8 -6 -5 -6 6
-1 11 2 17 5 13 3 -3 4 -12 1 -19z m144 9 c-6 -6 -11 -20 -11 -31 0 -26 -12
-13 -15 17 -2 17 3 23 18 24 15 2 17 -1 8 -10z m49 -8 c0 -18 -2 -19 -15 -5
-8 8 -15 17 -15 20 0 3 7 6 15 6 9 0 15 -9 15 -21z m272 -1 c-7 -7 -12 -8 -12
-2 0 14 12 26 19 19 2 -3 -1 -11 -7 -17z m68 13 c0 -6 -4 -13 -10 -16 -5 -3
-10 1 -10 9 0 9 5 16 10 16 6 0 10 -4 10 -9z m-1690 -16 c-7 -9 -15 -13 -19
-10 -3 3 1 10 9 15 21 14 24 12 10 -5z m88 -25 c0 -16 4 -35 9 -42 4 -7 8 -19
9 -26 2 -10 -1 -11 -12 -1 -8 6 -17 9 -21 5 -3 -3 -1 -6 6 -6 7 0 9 -5 6 -10
-20 -32 -33 56 -14 91 13 26 16 24 17 -11z m51 23 c-4 -22 3 -33 19 -33 14 0
15 2 2 10 -12 8 -11 10 8 10 12 0 21 -5 20 -12 -2 -8 9 -12 32 -10 19 1 29 -1
22 -4 -6 -3 -10 -10 -7 -14 3 -5 0 -12 -6 -16 -7 -4 -9 -3 -5 4 3 6 2 13 -4
17 -6 4 -10 -4 -10 -19 0 -14 -4 -28 -10 -31 -6 -4 -7 1 -4 12 5 16 4 16 -10
-1 -9 -11 -16 -27 -16 -35 0 -14 -1 -14 -10 -1 -9 13 -11 13 -20 0 -6 -11 -5
-16 5 -20 12 -4 11 -8 -5 -18 -17 -10 -20 -10 -20 4 0 8 -5 12 -11 9 -6 -4 -8
-13 -5 -21 3 -8 1 -14 -5 -14 -5 0 -19 -9 -31 -20 -12 -11 -28 -20 -35 -20 -7
0 -13 -4 -13 -10 0 -5 -8 -10 -17 -10 -14 0 -12 5 10 24 18 15 26 30 21 37 -4
7 -3 9 4 5 6 -3 27 10 48 29 20 19 40 35 45 35 4 0 6 12 4 28 -2 15 -4 35 -4
45 -1 10 -5 16 -10 13 -7 -5 -8 11 -2 32 2 6 21 1 20 -5z m742 -27 c-10 -12
-9 -14 8 -9 13 3 21 1 21 -7 0 -8 -9 -10 -27 -7 -23 4 -33 -1 -55 -26 -30 -34
-40 -34 -31 1 3 13 13 22 24 22 11 0 19 7 19 15 0 8 7 15 15 15 8 0 14 3 14 8
-3 19 2 25 13 14 8 -8 8 -15 -1 -26z m93 19 c-4 -8 -1 -15 5 -15 6 0 11 -4 11
-10 0 -5 -7 -6 -17 -3 -10 4 -14 2 -9 -5 3 -6 2 -14 -4 -17 -12 -8 -9 32 3 53
11 17 18 15 11 -3z m86 11 c0 -2 -7 -7 -16 -10 -8 -3 -12 -2 -9 4 6 10 25 14
25 6z m77 -42 c1 -25 0 -26 -4 -4 -3 14 -10 29 -17 33 -7 6 -6 7 4 4 8 -2 16
-16 17 -33z m-1331 17 c-4 -5 0 -11 6 -14 7 -2 11 -7 8 -10 -9 -10 -33 10 -26
22 4 6 9 11 12 11 3 0 3 -4 0 -9z m484 5 c0 -3 -4 -8 -10 -11 -5 -3 -10 -1
-10 4 0 6 5 11 10 11 6 0 10 -2 10 -4z m1025 -6 c3 -5 1 -10 -4 -10 -6 0 -11
5 -11 10 0 6 2 10 4 10 3 0 8 -4 11 -10z m-1600 -20 c3 -5 2 -10 -4 -10 -5 0
-13 5 -16 10 -3 6 -2 10 4 10 5 0 13 -4 16 -10z m279 -5 c-25 -19 -38 -19 -22
0 7 8 19 14 27 15 11 0 9 -4 -5 -15z m946 5 c0 -5 -5 -10 -11 -10 -5 0 -7 5
-4 10 3 6 8 10 11 10 2 0 4 -4 4 -10z m370 -4 c0 -2 -7 -6 -15 -10 -8 -3 -15
-1 -15 4 0 6 7 10 15 10 8 0 15 -2 15 -4z m-234 -16 c8 0 14 -10 14 -24 0 -29
14 -41 38 -31 15 6 15 8 -3 15 -16 7 -17 9 -3 9 9 1 20 -4 23 -10 4 -6 14 -8
22 -5 11 4 13 1 8 -14 -4 -13 -1 -22 8 -25 7 -3 14 -12 14 -20 0 -18 -17 -20
-17 -2 0 6 -9 23 -20 37 -16 20 -20 22 -20 8 0 -15 -4 -16 -25 -8 -20 7 -25 6
-25 -5 0 -8 7 -15 15 -15 8 0 14 -3 14 -7 -1 -5 -1 -21 0 -38 1 -23 4 -26 11
-15 5 8 12 12 15 8 3 -3 -1 -12 -9 -21 -8 -8 -12 -18 -8 -21 3 -4 -1 -4 -11 0
-12 4 -15 13 -11 28 3 14 -3 37 -16 59 -12 19 -20 42 -19 49 3 28 -2 40 -15
35 -8 -3 -17 1 -20 10 -5 11 -2 14 10 9 8 -3 22 -6 30 -6z m-1344 -50 c6 0 9
-2 6 -5 -3 -3 -12 -3 -20 0 -10 4 -13 14 -9 33 l6 27 3 -27 c2 -16 8 -28 14
-28z m258 25 c-7 -9 -15 -13 -17 -11 -6 6 20 36 26 30 2 -2 -2 -10 -9 -19z
m879 18 c-3 -21 2 -26 12 -13 9 13 10 13 6 0 -2 -8 -11 -14 -20 -14 -10 1 -13
-4 -10 -15 5 -12 3 -13 -7 -5 -13 13 -5 54 11 54 5 0 8 -3 8 -7z m73 -11 c-7
-2 -10 -8 -6 -13 3 -5 0 -9 -5 -9 -12 0 -15 23 -5 33 4 4 12 4 17 0 8 -5 7 -8
-1 -11z m881 -52 c8 0 7 -4 -3 -10 -13 -8 -12 -10 3 -10 19 0 20 4 11 37 -4
14 -11 20 -18 16 -6 -4 -5 1 3 10 7 9 21 17 30 17 14 0 14 -2 1 -10 -13 -9
-13 -12 3 -24 22 -17 22 -24 -5 -47 -27 -21 -48 -24 -48 -6 0 9 -2 9 -8 0 -10
-16 -50 -13 -56 4 -4 8 3 12 17 10 19 -2 22 2 20 32 -1 24 2 30 8 20 7 -11 9
-10 10 6 0 13 4 8 10 -12 5 -18 15 -33 22 -33z m-1876 18 c-3 -7 -5 -2 -5 12
0 14 2 19 5 13 2 -7 2 -19 0 -25z m97 20 c-3 -7 -18 -23 -34 -36 -27 -21 -29
-22 -27 -3 1 12 11 22 24 26 13 3 23 10 23 15 0 6 4 10 10 10 5 0 7 -6 4 -12z
m739 -38 c-3 -11 -10 -20 -15 -20 -5 0 -7 -4 -3 -10 3 -5 12 -7 19 -4 19 7 31
-15 16 -29 -10 -9 -12 -8 -6 7 5 14 3 17 -11 12 -9 -4 -20 -1 -24 6 -6 9 -11
9 -22 0 -11 -9 -14 -8 -14 3 0 8 7 15 14 15 8 0 13 8 11 18 -2 10 2 16 11 14
9 -2 11 3 7 14 -5 14 -4 15 8 5 8 -6 12 -21 9 -31z m-890 10 c3 -11 1 -18 -4
-14 -5 3 -9 12 -9 20 0 20 7 17 13 -6z m1017 13 c-1 -25 -14 -53 -26 -53 -14
0 -15 25 -1 48 9 13 27 17 27 5z m-344 -10 c-11 -11 -48 -14 -41 -3 3 5 16 10
27 10 12 0 18 -3 14 -7z m-486 -7 c0 -2 -8 -10 -17 -17 -16 -13 -17 -12 -4 4
13 16 21 21 21 13z m746 -21 c1 -14 -2 -25 -7 -25 -10 0 -12 33 -2 43 3 4 7 7
7 7 1 0 2 -11 2 -25z m-436 11 c0 -3 -4 -8 -10 -11 -5 -3 -10 -1 -10 4 0 6 5
11 10 11 6 0 10 -2 10 -4z m464 -28 c-4 -14 -2 -18 5 -14 16 10 13 -3 -5 -21
-11 -11 -18 -13 -26 -5 -8 8 -6 16 6 28 10 9 15 23 12 31 -3 8 -1 11 5 8 5 -4
7 -16 3 -27z m-884 11 c0 -13 -33 -20 -44 -9 -8 8 -6 9 8 4 12 -5 17 -4 13 3
-3 5 0 10 8 10 8 0 15 -4 15 -8z m59 -6 c-26 -33 -37 -42 -43 -36 -3 4 -6 1
-6 -5 0 -7 -10 -12 -22 -11 -15 0 -18 3 -8 6 20 8 40 29 35 37 -3 3 -2 4 1 1
4 -2 13 2 21 10 21 21 38 19 22 -2z m1296 7 c3 -5 1 -10 -4 -10 -6 0 -11 5
-11 10 0 6 2 10 4 10 3 0 8 -4 11 -10z m262 -5 c0 -8 -5 -15 -10 -15 -5 0 -16
-8 -24 -17 -13 -16 -13 -16 -4 4 14 28 14 36 -1 27 -7 -4 -8 -3 -4 4 10 17 43
15 43 -3z m-1686 -12 c1 -10 1 -22 0 -27 -1 -5 5 -4 13 4 9 7 16 8 16 2 0 -5
-7 -13 -16 -16 -17 -7 -54 10 -54 24 0 14 17 12 24 -2 3 -7 3 -3 0 10 -3 12
-1 22 5 22 6 0 12 -8 12 -17z m454 -3 c-3 -5 -12 -10 -18 -10 -7 0 -6 4 3 10
19 12 23 12 15 0z m45 -6 c0 -8 -5 -12 -10 -9 -6 4 -8 11 -5 16 9 14 15 11 15
-7z m90 -4 c-18 -12 -30 -13 -30 -2 0 4 10 9 22 9 18 2 20 0 8 -7z m980 6 c0
-3 -4 -8 -10 -11 -5 -3 -10 -1 -10 4 0 6 5 11 10 11 6 0 10 -2 10 -4z m-1236
-32 c4 -11 1 -14 -11 -12 -10 2 -19 11 -21 21 -4 21 24 13 32 -9z m81 5 c-29
-11 -32 -11 -38 4 -4 10 3 12 27 9 27 -4 28 -6 11 -13z m397 6 c0 -5 -5 -10
-11 -12 -8 -1 -7 0 0 4 8 4 7 8 -2 15 -11 8 -11 9 -1 6 8 -2 14 -8 14 -13z
m379 -4 c11 -13 11 -14 -5 -8 -10 4 -24 7 -32 7 -8 0 -14 4 -14 8 0 13 36 8
51 -7z m-492 -15 c9 -11 8 -18 -4 -30 -9 -9 -21 -13 -27 -10 -7 4 -6 9 1 14 7
3 9 14 5 23 -8 21 9 22 25 3z m-44 -5 c3 -5 2 -12 -3 -15 -5 -3 -9 1 -9 9 0
17 3 19 12 6z m230 -31 c3 -5 2 -10 -4 -10 -5 0 -13 5 -16 10 -3 6 -2 10 4 10
5 0 13 -4 16 -10z m-395 -14 c0 -3 -4 -8 -10 -11 -5 -3 -10 -1 -10 4 0 6 5 11
10 11 6 0 10 -2 10 -4z m1137 -12 c-3 -3 -12 -4 -19 -1 -8 3 -5 6 6 6 11 1 17
-2 13 -5z m-1007 -74 c0 -5 -4 -10 -10 -10 -5 0 -10 5 -10 10 0 6 5 10 10 10
6 0 10 -4 10 -10z m22 -12 c-7 -7 -12 -8 -12 -2 0 14 12 26 19 19 2 -3 -1 -11
-7 -17z m308 -33 c0 -9 -6 -12 -16 -8 -13 5 -13 7 -2 14 17 11 18 11 18 -6z"/>
<path d="M2712 2448 c-41 -29 -46 -30 -86 -18 -52 14 -158 7 -209 -15 -23 -9
-46 -30 -59 -51 -28 -48 -64 -64 -146 -64 -69 0 -140 -18 -200 -52 -18 -10
-41 -18 -52 -18 -14 0 -20 -7 -20 -21 0 -61 50 -77 104 -32 50 42 88 53 184
53 85 0 91 2 128 31 22 17 46 41 54 54 8 14 26 29 41 35 32 14 116 16 186 5
44 -6 57 -4 88 14 34 20 40 20 83 8 58 -17 108 -6 118 25 9 29 -31 61 -57 45
-12 -8 -25 -5 -51 11 -45 28 -54 27 -106 -10z"/>
<path d="M2762 2051 c-23 -9 -51 -25 -62 -34 -20 -17 -20 -17 2 -42 26 -30 38
-31 68 -5 13 11 33 22 44 25 94 18 124 13 183 -33 33 -26 86 -48 96 -40 2 2
11 -3 21 -11 9 -8 34 -17 56 -21 31 -6 43 -4 56 11 14 15 14 20 2 36 -7 10
-24 20 -38 22 -45 6 -150 53 -164 72 -7 11 -29 24 -47 29 -52 15 -169 10 -217
-9z"/>
<path d="M1744 1759 c-59 -8 -161 -51 -180 -77 -21 -27 -16 -52 12 -62 27 -11
33 -8 78 32 10 10 43 23 73 29 49 11 57 11 92 -9 49 -28 71 -28 124 0 23 12
47 21 54 20 19 -4 26 36 10 53 -17 16 -57 14 -100 -6 -24 -11 -33 -10 -65 6
-46 24 -38 23 -98 14z"/>
<path d="M2205 1480 c-68 -28 -81 -33 -93 -36 -8 -1 -20 -11 -27 -21 -11 -15
-12 -21 -1 -38 16 -24 49 -22 88 7 16 11 28 16 28 12 0 -5 5 -3 12 4 17 17 54
15 84 -5 38 -25 177 -29 226 -7 35 16 41 16 76 1 103 -45 145 -45 196 -3 43
35 30 60 -27 52 -71 -11 -81 -9 -139 18 l-56 27 -48 -19 c-69 -27 -161 -28
-199 -2 -31 20 -85 25 -120 10z"/>
<path d="M3851 1124 c0 -11 3 -14 6 -6 3 7 2 16 -1 19 -3 4 -6 -2 -5 -13z"/>
<path d="M1116 912 c-3 -6 2 -13 12 -17 16 -6 16 -8 -3 -22 -19 -15 -19 -15 5
-8 34 10 35 11 12 35 -11 12 -23 17 -26 12z"/>
<path d="M1135 821 c3 -5 1 -12 -5 -16 -6 -4 -7 -11 -4 -17 4 -6 10 -5 15 3
12 19 11 39 -2 39 -5 0 -8 -4 -4 -9z"/>
<path d="M1463 729 c-6 -6 -23 -11 -36 -11 -19 0 -23 -5 -20 -19 5 -17 6 -17
39 2 19 10 33 14 31 8 -1 -7 3 -13 9 -16 7 -2 10 5 7 22 -6 27 -13 31 -30 14z"/>
<path d="M1450 677 c0 -4 -4 -5 -10 -2 -6 4 -7 -1 -3 -12 6 -15 4 -16 -8 -6
-13 10 -16 10 -16 -2 0 -8 5 -15 11 -16 6 0 1 -4 -11 -9 -16 -7 -21 -14 -16
-26 6 -15 7 -15 12 -2 3 8 14 14 24 12 10 -1 17 4 17 14 0 10 11 22 24 28 17
8 23 8 22 0 -2 -22 19 -16 22 7 3 20 -1 23 -33 23 -19 0 -35 -4 -35 -9z"/>
<path d="M1750 664 c0 -8 5 -12 10 -9 6 4 8 11 5 16 -9 14 -15 11 -15 -7z"/>
<path d="M1515 590 c3 -6 -1 -7 -9 -4 -10 4 -16 1 -16 -9 0 -15 37 -34 47 -24
8 8 -7 47 -18 47 -6 0 -7 -4 -4 -10z"/>
<path d="M3790 920 c0 -4 7 -13 15 -20 10 -9 15 -9 15 -1 0 6 1 14 3 18 1 3
-6 7 -15 9 -10 1 -18 -1 -18 -6z"/>
<path d="M1615 678 c-16 -16 -17 -20 -5 -28 19 -12 28 -2 10 11 -12 9 -12 10
3 5 10 -3 21 -6 23 -6 3 0 2 -4 -1 -10 -3 -5 1 -10 9 -10 9 0 16 5 16 10 0 6
-5 10 -10 10 -6 0 -14 8 -18 18 -7 18 -8 18 -27 0z"/>
<path d="M2250 819 c0 -5 5 -7 10 -4 6 3 10 8 10 11 0 2 -4 4 -10 4 -5 0 -10
-5 -10 -11z"/>
<path d="M2300 790 c0 -5 5 -10 11 -10 5 0 7 5 4 10 -3 6 -8 10 -11 10 -2 0
-4 -4 -4 -10z"/>
<path d="M1970 731 c0 -5 6 -11 13 -14 8 -3 14 1 14 9 0 8 -6 14 -14 14 -7 0
-13 -4 -13 -9z"/>
<path d="M1967 682 c3 -7 9 -10 12 -5 3 4 10 11 15 15 4 4 -1 6 -12 5 -12 -1
-18 -6 -15 -15z"/>
<path d="M1930 675 c0 -8 2 -15 4 -15 2 0 6 7 10 15 3 8 1 15 -4 15 -6 0 -10
-7 -10 -15z"/>
<path d="M1905 649 c-9 -14 -2 -20 14 -10 8 6 9 11 3 15 -6 3 -14 1 -17 -5z"/>
<path d="M2537 816 c-3 -8 0 -17 8 -19 7 -3 12 0 11 8 -3 22 -13 27 -19 11z"/>
<path d="M3647 678 c2 -5 13 -8 24 -8 10 0 19 3 19 8 0 4 -11 7 -24 7 -13 0
-22 -3 -19 -7z"/>
<path d="M3166 672 c-4 -7 -5 -12 -1 -12 3 0 1 -9 -5 -20 -7 -14 -7 -20 0 -20
5 0 10 -7 10 -15 0 -8 5 -15 11 -15 6 0 8 7 5 16 -3 8 -2 12 4 9 14 -9 12 -27
-7 -50 -13 -16 -15 -17 -10 -2 4 9 2 17 -3 17 -6 0 -10 -7 -10 -15 0 -8 -5
-15 -11 -15 -5 0 -7 5 -3 12 4 7 3 8 -5 4 -6 -4 -9 -12 -6 -17 4 -5 -4 -9 -17
-9 -13 0 -32 -7 -42 -15 -19 -14 -19 -15 -1 -35 13 -14 22 -17 29 -10 19 19
28 10 13 -13 -18 -27 -12 -41 21 -49 25 -7 30 10 10 31 -11 11 -9 13 10 8 17
-4 23 0 28 20 5 17 10 21 17 14 15 -15 30 -14 20 2 -13 20 -13 41 0 52 11 9
15 18 18 43 2 15 -14 52 -23 52 -6 0 -7 -7 -4 -16 3 -8 2 -12 -4 -9 -16 10
-11 33 8 38 11 3 7 5 -10 6 -14 0 -28 6 -30 13 -3 9 -6 9 -12 0z m24 -26 c0
-3 -4 -8 -10 -11 -5 -3 -10 -1 -10 4 0 6 5 11 10 11 6 0 10 -2 10 -4z m30 -80
c0 -2 -7 -7 -16 -10 -8 -3 -12 -2 -9 4 6 10 25 14 25 6z m-20 -36 c0 -5 -6 -7
-14 -4 -8 3 -17 0 -22 -7 -5 -8 -3 -10 6 -4 9 5 11 4 6 -3 -8 -13 -46 -16 -46
-4 0 15 19 28 45 30 14 1 25 -3 25 -8z m-87 -27 c-7 -2 -21 -2 -30 0 -10 3 -4
5 12 5 17 0 24 -2 18 -5z"/>
<path d="M3316 447 c2 -7 13 -13 24 -13 24 0 26 11 4 20 -24 9 -34 7 -28 -7z"/>
<path d="M2916 405 c-19 -14 -19 -15 7 -15 17 0 27 5 27 15 0 19 -9 19 -34 0z"/>
<path d="M2640 390 c0 -5 5 -10 10 -10 6 0 10 5 10 10 0 6 -4 10 -10 10 -5 0
-10 -4 -10 -10z"/>
<path d="M3305 391 c-3 -5 -1 -12 5 -16 5 -3 10 1 10 9 0 18 -6 21 -15 7z"/>
<path d="M2905 370 c-3 -5 -1 -10 4 -10 6 0 11 5 11 10 0 6 -2 10 -4 10 -3 0
-8 -4 -11 -10z"/>
<path d="M2849 323 c-13 -16 -12 -17 4 -4 9 7 17 15 17 17 0 8 -8 3 -21 -13z"/>
<path d="M2960 300 c0 -5 7 -10 15 -10 8 0 15 5 15 10 0 6 -7 10 -15 10 -8 0
-15 -4 -15 -10z"/>
<path d="M2290 272 c0 -10 -5 -23 -11 -29 -15 -15 -2 -34 17 -26 11 4 12 8 4
13 -9 6 -9 13 -1 28 14 26 14 32 1 32 -5 0 -10 -8 -10 -18z"/>
<path d="M2501 264 c0 -11 3 -14 6 -6 3 7 2 16 -1 19 -3 4 -6 -2 -5 -13z"/>
<path d="M2897 256 c4 -21 4 -21 -12 -1 -9 11 -17 20 -18 20 -8 -2 -47 -41
-47 -47 0 -15 38 -8 44 8 4 11 10 13 19 7 18 -14 41 -10 45 8 2 9 -5 19 -16
21 -16 4 -19 1 -15 -16z"/>
<path d="M3060 265 c-7 -9 -11 -17 -9 -20 3 -2 10 5 17 15 14 24 10 26 -8 5z"/>
<path d="M2735 262 c-6 -4 -11 -20 -12 -37 -1 -25 1 -27 10 -14 7 9 18 14 26
11 8 -3 11 0 7 7 -4 6 -14 11 -23 11 -13 0 -13 3 -3 15 13 16 11 19 -5 7z"/>
<path d="M3098 252 c-10 -2 -18 -8 -18 -13 0 -13 27 -11 35 2 9 13 4 16 -17
11z"/>
<path d="M2375 240 c-3 -5 -1 -10 4 -10 6 0 11 5 11 10 0 6 -2 10 -4 10 -3 0
-8 -4 -11 -10z"/>
<path d="M2980 230 c0 -5 5 -10 10 -10 6 0 10 5 10 10 0 6 -4 10 -10 10 -5 0
-10 -4 -10 -10z"/>
<path d="M2785 210 c-4 -6 3 -10 14 -10 25 0 27 6 6 13 -8 4 -17 2 -20 -3z"/>
<path d="M2888 213 c7 -3 16 -2 19 1 4 3 -2 6 -13 5 -11 0 -14 -3 -6 -6z"/>
<path d="M2935 210 c3 -5 8 -10 11 -10 2 0 4 5 4 10 0 6 -5 10 -11 10 -5 0 -7
-4 -4 -10z"/>
<path d="M2425 190 c3 -5 8 -10 11 -10 2 0 4 5 4 10 0 6 -5 10 -11 10 -5 0 -7
-4 -4 -10z"/>
<path d="M2755 190 c3 -5 8 -10 11 -10 2 0 4 5 4 10 0 6 -5 10 -11 10 -5 0 -7
-4 -4 -10z"/>
<path d="M1310 529 c0 -5 5 -7 10 -4 6 3 10 8 10 11 0 2 -4 4 -10 4 -5 0 -10
-5 -10 -11z"/>
<path d="M2331 624 c0 -11 3 -14 6 -6 3 7 2 16 -1 19 -3 4 -6 -2 -5 -13z"/>
<path d="M2090 576 c0 -9 30 -14 35 -6 4 6 -3 10 -14 10 -12 0 -21 -2 -21 -4z"/>
<path d="M1906 463 c-3 -10 -9 -25 -13 -33 -5 -13 -4 -13 9 0 8 8 15 19 15 24
1 5 7 13 15 17 10 7 9 9 -3 9 -9 0 -19 -8 -23 -17z"/>
<path d="M2260 425 c-7 -9 -8 -15 -2 -15 5 0 12 7 16 15 3 8 4 15 2 15 -2 0
-9 -7 -16 -15z"/>
<path d="M1795 340 c3 -5 8 -10 11 -10 2 0 4 5 4 10 0 6 -5 10 -11 10 -5 0 -7
-4 -4 -10z"/>
<path d="M2035 250 c-3 -5 -1 -10 4 -10 6 0 11 5 11 10 0 6 -2 10 -4 10 -3 0
-8 -4 -11 -10z"/>
<path d="M2576 591 c-4 -5 -2 -12 3 -15 5 -4 12 -2 15 3 4 5 2 12 -3 15 -5 4
-12 2 -15 -3z"/>
<path d="M1804 501 c0 -16 4 -17 18 -10 10 5 18 14 18 19 0 6 -8 10 -18 10
-11 0 -18 -7 -18 -19z"/>
<path d="M2500 4263 c-124 -15 -241 -61 -368 -146 -43 -29 -87 -57 -97 -63
-11 -6 -24 -20 -29 -31 -5 -11 -27 -31 -48 -44 -45 -28 -98 -109 -134 -206
-14 -37 -32 -78 -40 -91 -19 -29 -27 -206 -13 -302 10 -76 34 -160 60 -210 16
-32 103 -130 114 -130 6 0 101 -65 125 -85 8 -7 56 -28 105 -48 99 -38 246
-66 370 -69 83 -2 271 24 302 41 10 6 56 28 103 50 92 43 176 95 219 134 126
117 196 225 239 367 18 58 34 229 28 289 -13 116 -37 194 -82 256 -110 155
-240 256 -371 289 -75 19 -321 18 -483 -1z m175 -67 c33 -8 67 -17 76 -20 11
-5 24 0 37 15 19 19 27 21 74 15 53 -7 178 -43 188 -55 3 -3 19 -13 35 -21 36
-18 169 -150 207 -206 45 -65 61 -151 55 -289 -9 -217 -69 -357 -206 -484 -44
-40 -92 -80 -108 -88 -180 -96 -210 -108 -368 -137 -145 -26 -374 10 -505 80
-186 100 -257 173 -286 293 -2 9 -8 36 -15 61 -6 25 -11 95 -10 156 0 103 2
117 30 179 17 37 31 73 31 80 0 26 102 162 145 195 25 19 45 37 45 42 0 4 4 8
10 8 5 0 42 22 82 49 40 26 84 52 97 56 14 4 45 19 70 32 25 13 62 26 81 28
19 2 62 7 95 10 33 4 62 8 64 11 6 5 7 5 76 -10z"/>
<path d="M2556 3919 c-22 -5 -56 -21 -75 -36 -54 -40 -147 -137 -176 -183 -14
-22 -41 -61 -60 -86 -53 -69 -66 -124 -49 -209 21 -105 39 -131 123 -187 99
-65 162 -82 265 -74 166 14 318 120 360 252 35 111 33 189 -10 350 -15 56 -61
117 -108 142 -67 36 -189 50 -270 31z m204 -90 c51 -27 88 -68 95 -108 3 -19
9 -41 14 -50 14 -28 13 -163 -3 -229 -15 -63 -61 -130 -110 -159 -77 -46 -194
-66 -276 -49 -19 4 -63 26 -98 49 -82 55 -109 110 -103 209 1 24 145 235 194
286 65 66 109 84 187 76 35 -4 80 -15 100 -25z"/>
</g>
</svg>
