<?xml version="1.0" standalone="no"?>
<!DOCTYPE svg PUBLIC "-//W3C//DTD SVG 20010904//EN"
 "http://www.w3.org/TR/2001/REC-SVG-20010904/DTD/svg10.dtd">
<svg version="1.0" xmlns="http://www.w3.org/2000/svg"
 width="453.000000pt" height="425.000000pt" viewBox="0 0 453.000000 425.000000"
 preserveAspectRatio="xMidYMid meet">
<metadata>
Created by potrace 1.16, written by Peter Selinger 2001-2019
</metadata>
<g transform="translate(0.000000,425.000000) scale(0.100000,-0.100000)"
fill="#000000" stroke="none">
<path d="M3865 4102 c-11 -2 -25 -8 -31 -13 -6 -5 -36 -16 -65 -25 -30 -9 -59
-20 -65 -25 -8 -7 -19 -1 -33 17 -12 15 -21 30 -21 34 0 14 -59 -3 -80 -22
-18 -17 -21 -29 -17 -67 2 -25 8 -56 12 -68 6 -20 4 -23 -20 -23 -15 0 -43 -9
-61 -20 l-33 -21 -16 31 c-30 58 -151 91 -203 54 -18 -13 -29 -13 -57 -4 -51
17 -148 14 -186 -5 -29 -16 -34 -16 -69 0 -25 11 -51 15 -76 11 -79 -11 -92
-18 -108 -50 -13 -28 -20 -32 -44 -28 -31 4 -102 -26 -139 -60 -12 -11 -25
-33 -28 -49 -5 -20 -15 -31 -40 -39 -79 -26 -169 -129 -161 -185 6 -41 90 -53
149 -23 25 13 30 6 18 -23 -6 -18 -3 -44 15 -97 34 -104 38 -110 87 -117 56
-9 61 -13 73 -55 7 -28 18 -39 53 -55 l43 -20 -6 -50 c-7 -52 -13 -90 -16 -90
-1 0 -3 -11 -5 -25 -6 -45 -26 -114 -37 -128 -9 -10 -6 -18 10 -35 21 -20 24
-21 98 -8 111 19 104 11 97 101 -4 57 -1 98 12 153 25 105 26 107 71 68 36
-32 38 -33 121 -29 76 3 86 5 103 28 l18 25 40 -23 c49 -27 152 -31 172 -7 7
9 18 14 23 12 12 -4 14 -18 23 -132 4 -44 12 -83 18 -87 8 -5 8 -15 -1 -37
-24 -66 32 -88 142 -55 60 17 75 39 51 76 -8 13 -19 57 -24 99 -5 42 -14 85
-20 95 -6 11 -12 39 -13 64 -3 42 -2 45 28 51 51 10 90 45 108 97 9 26 20 56
24 67 7 19 2 59 -14 118 -5 17 -3 27 4 27 6 0 20 8 30 18 10 9 31 28 45 41
l26 23 68 -32 c138 -66 213 -78 261 -43 24 19 30 31 36 82 8 69 -2 158 -19
172 -6 5 -24 20 -39 34 -15 14 -32 25 -37 25 -5 0 -9 24 -9 53 1 69 -32 111
-86 110 -29 -1 -33 2 -26 15 5 10 5 24 -3 36 -6 12 -12 22 -13 24 0 2 -9 5
-20 7 -10 2 -18 4 -18 6 0 4 -100 5 -120 1z m64 -81 c13 -9 13 -16 -5 -88 -5
-15 0 -23 15 -28 29 -9 81 4 88 21 7 19 29 18 37 -2 9 -25 7 -64 -4 -64 -12 0
-13 -40 -2 -55 4 -5 29 -21 57 -35 39 -20 51 -32 58 -59 4 -18 6 -35 4 -37 -2
-3 -18 3 -35 13 -26 15 -34 16 -55 4 -24 -13 -27 -25 -12 -63 6 -15 3 -15 -31
-3 -21 7 -43 21 -51 31 -7 10 -13 14 -13 10 0 -4 -13 1 -29 10 -19 11 -35 14
-47 9 -11 -4 -29 -7 -41 -6 -13 1 -30 -7 -40 -20 -40 -48 -57 -59 -94 -59 -50
0 -86 -15 -91 -37 -2 -10 9 -34 24 -53 16 -19 32 -40 37 -45 4 -6 5 -17 3 -24
-3 -8 0 -11 6 -8 26 17 10 -97 -18 -126 -4 -5 -32 -5 -61 0 -45 7 -56 13 -67
36 -11 23 -17 26 -40 21 -41 -10 -41 -10 -36 -67 l5 -52 -44 -27 c-77 -48
-147 -30 -147 37 0 41 -34 60 -62 36 -10 -8 -18 -23 -18 -32 0 -10 -12 -31
-26 -48 -23 -27 -32 -31 -77 -31 -43 0 -55 4 -74 27 -13 14 -28 44 -34 65 -17
65 -61 64 -83 -2 -16 -49 -55 -67 -116 -51 -63 16 -80 39 -67 89 6 21 7 46 4
55 -8 21 -50 22 -67 2 -7 -8 -26 -15 -42 -15 -24 0 -32 6 -41 30 -6 17 -14 30
-18 30 -11 0 -4 111 7 118 15 10 16 71 2 86 -9 9 -20 11 -35 5 -13 -5 -23 -6
-23 -4 0 3 -17 -4 -37 -14 -49 -25 -83 -35 -83 -24 0 37 95 99 136 89 14 -4
33 -2 44 4 17 9 19 18 16 55 -4 40 -2 47 24 65 34 24 53 25 70 5 15 -18 76
-20 83 -2 3 7 3 25 2 39 -3 30 17 52 55 61 28 7 56 -12 83 -55 32 -52 87 -44
87 12 0 36 42 55 107 47 35 -4 51 -11 66 -31 27 -37 55 -34 73 9 12 28 20 35
43 35 41 0 77 -33 84 -76 7 -39 32 -74 54 -74 7 0 29 16 49 35 37 38 64 44 84
20 17 -20 55 -19 76 3 16 15 17 15 12 1 -5 -13 0 -18 20 -22 55 -11 97 26 74
64 -19 30 -14 40 14 33 17 -4 29 -2 35 7 15 24 10 36 -21 49 -16 7 -30 16 -30
20 0 7 81 42 108 46 8 2 16 5 20 8 8 9 35 7 51 -3z m-213 -116 c10 -8 14 -15
7 -15 -19 0 -43 11 -43 21 0 13 14 11 36 -6z m-156 -739 c0 -14 5 -37 11 -53
20 -54 42 -204 30 -216 -14 -14 -17 -4 -35 128 -8 61 -18 122 -21 138 -3 15
-1 27 5 27 5 0 10 -11 10 -24z m-737 -199 c-3 -37 -10 -67 -15 -67 -9 0 -4 66
9 118 10 41 13 18 6 -51z"/>
<path d="M3896 3839 c-13 -19 -13 -24 0 -44 12 -18 20 -21 52 -16 29 5 38 11
40 31 7 47 -64 69 -92 29z"/>
<path d="M400 3253 c-14 -10 -34 -28 -44 -41 -10 -13 -29 -34 -41 -45 -13 -12
-34 -41 -48 -64 -15 -23 -31 -44 -37 -48 -6 -3 -8 -10 -5 -15 3 -4 -2 -10 -10
-14 -8 -3 -15 -12 -15 -20 0 -7 -11 -21 -24 -29 -13 -9 -29 -32 -36 -52 -11
-32 -10 -37 12 -55 12 -11 30 -19 39 -20 23 0 161 -57 168 -69 3 -5 31 -17 61
-28 60 -20 133 -66 220 -138 30 -25 69 -55 87 -67 17 -13 38 -34 46 -48 9 -14
34 -45 56 -70 22 -25 41 -51 41 -57 0 -7 4 -13 8 -13 10 0 101 -137 132 -198
12 -23 26 -45 31 -48 5 -3 9 -16 9 -29 0 -13 3 -25 8 -27 6 -3 53 -94 72 -143
14 -34 46 -106 83 -185 19 -41 47 -113 62 -159 14 -47 39 -112 54 -145 15 -34
42 -108 60 -166 80 -254 113 -350 131 -386 11 -21 20 -44 20 -52 0 -17 75
-194 106 -250 13 -23 24 -54 24 -67 0 -13 4 -26 9 -29 5 -3 28 -38 51 -78 24
-40 50 -77 58 -82 8 -5 36 -28 61 -52 25 -24 51 -44 56 -44 6 0 29 -18 53 -39
29 -26 67 -47 120 -64 42 -14 79 -22 82 -19 3 4 55 8 115 9 61 0 119 3 130 5
17 4 116 48 202 90 21 10 123 107 148 140 41 54 101 168 110 208 4 19 11 40
15 45 7 9 21 151 22 215 1 104 -7 297 -13 305 -7 10 -15 88 -25 235 -7 112
-35 239 -88 402 -44 134 -75 210 -88 216 -5 2 -8 8 -8 13 0 17 -122 259 -131
259 -5 0 -9 7 -9 15 0 8 -4 15 -10 15 -5 0 -10 8 -10 18 0 9 -18 40 -40 67
-22 28 -44 61 -50 75 -14 31 -238 250 -257 250 -7 0 -16 6 -19 14 -3 8 -47 35
-97 60 -146 72 -350 97 -520 61 -42 -9 -82 -13 -87 -10 -6 3 -10 1 -10 -4 0
-24 -93 3 -111 31 -3 5 -8 9 -10 8 -10 -5 -90 22 -103 35 -8 8 -21 15 -28 15
-7 0 -22 7 -32 15 -11 8 -28 15 -39 15 -10 0 -51 21 -90 47 -40 26 -83 53 -97
61 -14 7 -48 31 -75 52 -28 22 -68 47 -90 57 -22 10 -52 26 -66 36 -14 9 -65
30 -115 47 -49 17 -97 35 -106 40 -26 15 -50 12 -78 -7z m75 -123 c3 -5 14
-10 23 -10 9 0 37 -11 62 -24 25 -13 70 -36 100 -50 30 -15 62 -31 70 -36 8
-6 24 -14 35 -19 11 -5 29 -18 40 -28 11 -10 39 -30 62 -43 23 -13 40 -26 38
-30 -3 -4 9 -10 25 -13 36 -8 270 -122 297 -145 10 -9 28 -22 38 -28 24 -13
31 -34 12 -34 -9 0 -19 -9 -22 -20 -4 -11 -18 -32 -32 -46 -28 -28 -37 -71
-19 -96 18 -25 108 -35 125 -14 7 9 11 16 8 16 -14 0 22 64 62 110 70 81 106
93 291 94 137 1 240 -14 270 -39 8 -7 26 -16 40 -20 35 -10 116 -66 175 -119
l50 -46 -70 34 c-161 79 -295 101 -385 62 -25 -11 -64 -28 -86 -37 -43 -19
-134 -111 -134 -135 0 -8 -4 -14 -10 -14 -5 0 -10 -8 -10 -17 0 -10 -10 -45
-21 -78 -24 -72 -23 -126 3 -220 11 -38 20 -74 22 -80 4 -20 79 -160 117 -220
14 -22 35 -67 47 -100 22 -66 137 -350 153 -378 5 -9 16 -43 23 -75 8 -31 21
-82 29 -112 8 -30 23 -93 32 -140 27 -133 81 -315 110 -368 59 -107 147 -173
310 -234 81 -30 106 -31 208 -11 43 9 30 -7 -61 -70 -69 -49 -172 -94 -185
-80 -3 3 -52 5 -109 5 -105 -1 -145 11 -200 58 -9 8 -43 35 -75 59 -53 40
-133 136 -133 160 0 5 -5 11 -10 13 -6 2 -12 13 -13 26 0 12 -4 22 -8 22 -4 0
-10 12 -14 27 -3 15 -22 59 -40 99 -49 105 -120 288 -144 369 -35 122 -146
433 -186 520 -7 17 -19 50 -25 75 -11 42 -37 102 -130 295 -21 44 -41 91 -45
105 -4 14 -11 30 -15 35 -4 6 -27 48 -51 95 -23 47 -60 108 -81 137 -21 29
-38 56 -38 60 0 4 -11 21 -25 37 -14 16 -25 32 -25 35 0 4 -12 20 -27 37 -16
16 -40 46 -54 65 -103 133 -432 389 -503 389 -7 0 -23 8 -35 18 l-22 17 46 69
c24 38 53 75 62 82 21 16 49 18 58 4z m1507 -619 c76 -22 148 -56 216 -103 50
-35 222 -203 222 -217 0 -5 14 -18 30 -28 24 -15 91 -126 105 -173 1 -3 18
-39 38 -80 49 -102 119 -304 131 -380 26 -159 31 -208 41 -415 20 -393 20
-361 13 -410 -17 -121 -96 -232 -187 -263 -151 -52 -410 74 -476 232 -34 80
-82 250 -99 351 -3 17 -15 64 -26 105 -11 41 -25 97 -31 125 -6 27 -25 78 -41
113 -30 65 -64 152 -98 252 -21 63 -70 166 -137 290 -82 154 -110 293 -77 392
35 107 74 158 144 190 93 42 138 46 232 19z"/>
<path d="M1975 2249 c-11 -7 -27 -19 -35 -28 -27 -29 -92 -121 -94 -134 -1 -6
-4 -16 -8 -22 -17 -28 -19 -132 -3 -175 9 -25 27 -93 40 -152 13 -59 33 -125
45 -147 11 -22 20 -48 20 -59 0 -27 57 -253 90 -357 15 -49 31 -106 35 -125
18 -96 191 -322 272 -356 83 -36 150 -2 177 88 8 29 13 54 11 58 -2 3 -6 84
-10 180 -9 233 -34 379 -80 470 -7 14 -20 54 -29 90 -9 36 -22 81 -30 100 -7
19 -26 73 -41 120 -16 47 -39 101 -52 120 -12 19 -34 52 -48 72 -31 46 -79 73
-124 69 -78 -6 -173 -69 -187 -125 -11 -44 -26 -15 -25 49 0 66 29 124 86 174
33 28 40 31 83 25 80 -10 161 -54 204 -111 7 -10 29 -29 49 -42 37 -25 69 -71
69 -100 0 -9 13 -38 29 -63 62 -98 91 -159 96 -200 3 -24 7 -59 9 -78 2 -19
13 -64 25 -100 11 -36 21 -90 21 -120 0 -30 7 -76 15 -103 34 -114 37 -376 5
-482 -13 -42 -16 -88 -7 -103 14 -21 46 -14 51 11 20 106 26 144 32 227 10
116 7 235 -7 298 -6 26 -15 90 -20 142 -6 52 -21 136 -34 185 -13 50 -26 116
-30 147 -4 32 -10 60 -15 63 -4 3 -11 17 -14 31 -4 15 -21 47 -38 71 -16 25
-41 72 -54 106 -23 58 -58 107 -76 107 -5 0 -38 29 -73 65 -78 80 -150 116
-244 122 -40 2 -74 -1 -86 -8z m208 -323 c53 -75 82 -132 97 -194 7 -29 20
-69 30 -90 10 -20 21 -57 25 -82 4 -25 15 -59 25 -76 19 -34 52 -127 49 -140
-1 -5 1 -16 4 -24 22 -54 32 -156 40 -425 3 -95 -6 -145 -28 -145 -51 0 -176
109 -212 185 -7 17 -25 45 -38 63 -13 18 -31 58 -40 90 -58 199 -92 325 -111
407 -8 33 -30 98 -48 145 -48 121 -51 137 -26 152 30 19 63 75 57 99 -7 24 35
76 66 82 60 12 71 7 110 -47z"/>
</g>
</svg>
