<?xml version="1.0" standalone="no"?>
<!DOCTYPE svg PUBLIC "-//W3C//DTD SVG 20010904//EN"
 "http://www.w3.org/TR/2001/REC-SVG-20010904/DTD/svg10.dtd">
<svg version="1.0" xmlns="http://www.w3.org/2000/svg"
 width="535.000000pt" height="385.000000pt" viewBox="0 0 535.000000 385.000000"
 preserveAspectRatio="xMidYMid meet">
<metadata>
Created by potrace 1.16, written by Peter Selinger 2001-2019
</metadata>
<g transform="translate(0.000000,385.000000) scale(0.100000,-0.100000)"
fill="#000000" stroke="none">
<path d="M2436 3553 c-4 -4 -44 -9 -89 -11 -130 -4 -208 -11 -262 -22 -27 -6
-81 -15 -120 -20 -109 -15 -217 -37 -250 -50 -16 -6 -62 -17 -101 -25 -40 -8
-92 -23 -115 -34 -24 -12 -52 -21 -64 -21 -11 0 -38 -9 -60 -20 -22 -11 -46
-20 -53 -20 -8 0 -42 -13 -76 -29 -33 -16 -87 -41 -118 -56 -32 -14 -58 -30
-58 -35 0 -4 -15 -13 -32 -20 -18 -7 -43 -22 -56 -33 -12 -11 -22 -16 -22 -11
0 5 -4 4 -8 -1 -4 -6 -38 -35 -77 -65 -86 -66 -131 -113 -157 -165 -11 -22
-29 -50 -40 -62 -14 -15 -22 -39 -24 -75 -2 -29 -6 -71 -9 -93 -11 -82 -13
-144 -14 -305 0 -163 2 -230 13 -525 3 -82 8 -269 11 -415 3 -146 10 -299 16
-341 9 -72 11 -116 9 -235 -1 -41 4 -57 25 -82 14 -16 25 -33 25 -36 0 -3 8
-14 17 -24 10 -11 44 -47 75 -80 32 -34 60 -62 63 -62 15 0 114 -52 125 -65 7
-8 21 -15 31 -15 11 0 19 -4 19 -10 0 -5 8 -10 19 -10 10 0 24 -6 30 -14 7 -8
24 -17 39 -21 15 -3 56 -18 92 -32 36 -14 72 -26 80 -25 21 0 133 -29 145 -39
12 -9 75 -26 145 -39 25 -5 62 -16 83 -25 21 -8 41 -14 45 -11 5 3 42 -4 83
-15 57 -15 120 -21 279 -25 396 -11 496 -12 565 -3 125 15 289 32 335 35 71 3
326 50 425 78 50 14 101 27 115 30 14 2 66 19 115 36 50 17 101 34 115 36 14
3 50 16 80 28 30 13 102 38 160 56 210 66 323 126 470 249 30 25 59 52 64 60
5 8 20 25 33 37 27 25 73 91 73 104 0 6 3 10 8 10 14 0 29 47 25 81 -5 55 -5
65 1 274 3 110 8 396 11 635 2 239 7 446 10 460 8 37 9 548 1 600 -10 66 -15
78 -42 105 -26 27 -123 77 -135 69 -4 -2 -9 2 -12 9 -3 8 -27 21 -54 31 -26 9
-61 23 -78 31 -16 7 -64 23 -105 35 -41 11 -90 28 -109 36 -19 8 -68 26 -110
40 -42 14 -83 28 -91 31 -39 16 -255 62 -320 69 -25 2 -73 9 -108 15 -35 5
-93 11 -130 14 -37 2 -109 7 -160 11 -52 3 -245 8 -430 9 -186 1 -346 5 -357
9 -11 4 -24 4 -29 -1z m614 -152 c52 -6 133 -13 180 -16 47 -3 99 -8 115 -10
17 -2 73 -7 125 -10 52 -4 172 -20 265 -36 94 -17 190 -32 215 -34 64 -6 178
-35 225 -57 l40 -18 -69 6 c-93 8 -114 12 -161 29 -103 37 -246 55 -560 70
-60 3 -141 10 -180 15 -157 21 -259 26 -600 35 -126 3 -246 1 -280 -5 -33 -5
-112 -14 -175 -19 -63 -6 -144 -13 -180 -16 -74 -7 -320 -63 -335 -76 -5 -5
-16 -9 -25 -9 -19 0 -293 -98 -377 -135 -35 -15 -63 -31 -63 -36 0 -9 -57 -41
-64 -37 -11 7 -107 -131 -120 -172 -15 -44 -14 -54 10 -151 3 -15 35 -59 71
-98 85 -93 177 -140 423 -214 83 -26 287 -67 328 -67 19 0 68 -9 106 -19 39
-11 109 -22 156 -25 47 -4 103 -11 125 -16 22 -5 74 -10 115 -11 41 0 95 -4
120 -8 39 -7 33 -9 -50 -11 -52 -1 -98 -2 -101 -2 -3 1 -72 4 -154 7 -82 3
-153 9 -157 11 -5 3 -48 10 -96 14 -113 12 -259 35 -347 55 -38 9 -83 18 -100
21 -16 4 -55 15 -86 25 -30 10 -61 19 -68 19 -7 0 -36 11 -64 24 -29 14 -75
34 -103 45 -52 20 -195 93 -269 136 -50 30 -91 77 -105 120 -23 69 54 184 185
279 22 16 48 38 57 49 10 11 28 25 40 32 13 6 58 30 100 53 124 67 412 163
548 182 47 7 93 17 102 21 28 15 334 47 592 63 49 3 91 8 94 11 8 8 442 -3
552 -14z m-270 -105 c140 -3 275 -8 300 -11 64 -7 132 -13 429 -35 145 -10
287 -24 315 -29 28 -6 62 -12 76 -15 14 -2 50 -11 79 -20 30 -9 69 -16 86 -16
17 0 49 -8 71 -19 21 -10 57 -22 79 -25 53 -9 77 -29 118 -98 36 -60 54 -132
38 -152 -5 -6 -12 -26 -16 -45 -5 -24 -29 -56 -80 -107 -67 -65 -81 -74 -157
-99 -46 -16 -92 -34 -103 -40 -11 -7 -38 -18 -60 -25 -22 -6 -60 -21 -85 -32
-24 -11 -56 -25 -70 -30 -31 -12 -235 -53 -405 -82 -16 -2 -44 -9 -60 -14 -17
-5 -73 -12 -125 -16 -52 -4 -111 -9 -130 -11 -19 -2 -66 -6 -105 -9 -38 -4
-108 -11 -155 -16 -226 -25 -250 -24 -550 10 -47 6 -110 13 -141 15 -31 3 -67
8 -80 10 -13 3 -58 11 -99 19 -41 8 -97 18 -125 21 -49 7 -159 34 -305 75 -64
18 -178 63 -258 103 -40 19 -128 116 -144 159 -14 36 3 118 33 156 21 27 178
142 194 142 9 0 135 46 285 103 30 12 60 22 65 22 6 0 35 8 65 17 30 10 84 24
120 33 63 16 87 19 200 29 155 15 281 28 335 35 33 4 71 6 85 4 14 -1 140 -5
280 -7z m1467 -82 c-3 -3 -12 -4 -19 -1 -8 3 -5 6 6 6 11 1 17 -2 13 -5z m193
-75 c77 -43 126 -113 129 -182 0 -27 5 -57 11 -66 6 -13 3 -29 -13 -58 -37
-66 -48 -77 -147 -144 -52 -35 -101 -69 -108 -76 -7 -7 -17 -13 -21 -13 -4 0
21 30 57 66 124 127 147 258 71 396 -36 67 -66 101 -106 122 -18 9 -33 18 -33
21 0 5 127 -47 160 -66z m165 -582 c-3 -78 -7 -205 -10 -282 -2 -77 -7 -304
-10 -505 -9 -559 -10 -581 -33 -626 -32 -60 -157 -175 -235 -214 -37 -18 -73
-40 -79 -47 -6 -7 -16 -13 -22 -13 -11 0 -145 -57 -287 -123 -118 -54 -406
-140 -609 -182 -99 -21 -244 -41 -420 -59 -25 -3 -103 -15 -175 -27 -113 -20
-164 -23 -395 -23 -235 0 -275 2 -355 21 -49 12 -117 26 -150 32 -176 34 -460
108 -504 131 -9 5 -47 21 -86 35 -105 40 -289 152 -326 199 -9 12 -27 32 -39
46 -12 14 -29 39 -36 57 -8 17 -18 34 -23 38 -6 3 -8 12 -4 20 3 8 1 15 -3 15
-5 0 -10 30 -10 68 -2 101 -14 276 -26 377 -6 50 -12 153 -14 230 -2 77 -7
264 -11 415 -5 151 -7 321 -5 378 l3 102 30 -30 c35 -35 195 -130 288 -172 36
-16 84 -38 106 -48 50 -22 240 -86 280 -94 17 -3 49 -8 72 -11 23 -2 61 -11
85 -20 24 -8 61 -15 83 -15 22 0 72 -7 110 -16 39 -9 85 -15 103 -15 18 1 59
-3 90 -8 43 -8 267 -22 347 -23 6 0 44 0 85 -1 292 -2 401 6 725 54 72 10 166
26 210 34 44 9 134 24 200 35 161 25 350 67 388 85 18 8 52 19 77 24 43 9 200
71 223 89 7 5 35 17 62 27 28 10 67 33 87 51 21 19 49 36 63 40 14 3 25 9 25
13 0 4 20 20 45 35 25 16 50 35 56 42 23 28 28 0 24 -139z m-436 -11 c-9 -9
-180 -76 -192 -76 -6 1 8 9 33 19 25 9 61 25 80 33 51 23 91 36 79 24z m-1031
-253 c-10 -2 -28 -2 -40 0 -13 2 -5 4 17 4 22 1 32 -1 23 -4z m-121 -9 c-3 -3
-12 -4 -19 -1 -8 3 -5 6 6 6 11 1 17 -2 13 -5z m-147 -13 c-19 -11 -298 -35
-325 -29 -23 5 42 14 205 26 63 5 120 9 125 10 6 1 3 -2 -5 -7z m78 2 c-10 -2
-28 -2 -40 0 -13 2 -5 4 17 4 22 1 32 -1 23 -4z m1432 -1423 c-8 -5 -32 -20
-52 -32 -117 -73 -241 -139 -270 -144 -18 -4 -47 -17 -65 -30 -17 -13 -38 -24
-45 -24 -16 0 -118 -34 -163 -55 -16 -7 -57 -21 -90 -30 -33 -10 -78 -23 -100
-31 -79 -27 -192 -53 -305 -69 -63 -9 -158 -25 -210 -35 -121 -23 -213 -39
-270 -45 -179 -19 -279 -26 -302 -21 -15 3 -116 6 -224 6 -267 2 -547 31 -589
60 -12 9 -115 39 -235 71 -47 12 -92 24 -100 27 -8 3 -18 4 -22 4 -13 -3 -175
67 -228 98 -28 17 -54 30 -57 30 -3 0 -25 16 -49 35 -23 19 -46 35 -51 35 -13
0 -112 90 -124 113 -9 16 -8 17 8 9 10 -6 29 -22 43 -37 13 -14 49 -40 80 -57
30 -18 69 -42 85 -54 17 -13 57 -35 89 -50 79 -36 305 -114 331 -114 12 0 48
-9 81 -19 32 -11 120 -32 194 -46 116 -22 182 -37 275 -61 11 -3 110 -7 220
-10 204 -5 391 8 585 41 47 8 120 17 163 20 43 4 93 11 109 16 17 4 34 6 39 4
4 -3 28 -1 54 5 25 6 60 12 78 14 129 17 562 132 591 158 6 4 16 8 24 8 18 0
173 68 192 84 8 8 27 16 43 20 35 8 124 47 207 91 35 18 67 31 70 29 3 -3 -2
-10 -10 -14z"/>
<path d="M3529 1966 c-2 -2 -56 -6 -119 -9 -190 -10 -283 -17 -325 -23 -22 -4
-49 -8 -60 -10 -111 -14 -334 -48 -390 -60 -38 -8 -105 -21 -147 -29 -42 -8
-100 -24 -128 -35 -28 -11 -61 -20 -73 -20 -13 0 -45 -6 -72 -14 -28 -8 -77
-22 -110 -31 -33 -9 -69 -22 -80 -29 -11 -7 -42 -18 -70 -25 -27 -7 -54 -16
-60 -21 -6 -5 -37 -18 -70 -30 -33 -11 -68 -25 -78 -31 -10 -5 -22 -7 -26 -4
-5 2 -28 -4 -52 -14 -65 -28 -96 -33 -111 -18 -7 7 -33 28 -58 47 -57 43 -230
217 -230 231 0 20 -55 79 -75 79 -11 0 -29 7 -39 15 -25 19 -60 19 -76 0 -19
-23 -14 -90 9 -122 11 -15 23 -48 26 -73 3 -25 20 -87 37 -139 28 -87 30 -100
24 -190 -9 -127 -9 -131 -16 -131 -3 0 -6 -16 -7 -35 -1 -27 4 -39 24 -55 35
-27 49 -25 70 10 9 17 33 41 53 54 19 13 55 42 80 64 25 23 56 44 69 47 14 4
38 17 54 31 16 13 35 24 42 24 7 0 15 6 18 13 3 9 10 9 28 -2 13 -8 67 -37
119 -64 52 -28 126 -67 163 -89 38 -21 71 -38 73 -38 2 0 23 -12 47 -27 166
-106 355 -144 775 -159 193 -7 292 5 442 51 58 18 139 43 180 55 41 12 97 30
124 41 27 10 56 19 65 19 10 0 26 7 37 15 10 8 28 15 40 15 18 0 123 49 209
98 103 58 165 97 165 103 0 4 10 9 23 13 40 10 207 196 207 231 0 14 4 25 9
25 5 0 14 13 19 29 8 24 7 32 -6 44 -23 19 -82 47 -100 47 -9 0 -23 6 -31 14
-9 8 -43 21 -76 30 -33 9 -67 18 -75 21 -28 8 -135 37 -150 40 -8 2 -35 8 -60
13 -42 9 -253 15 -261 8z m326 -97 c50 -12 112 -30 139 -40 27 -10 52 -19 57
-19 5 0 33 -12 64 -26 48 -23 55 -30 55 -55 0 -16 -4 -29 -10 -29 -5 0 -10 -6
-10 -12 0 -7 -20 -35 -45 -63 -25 -27 -45 -52 -45 -56 0 -4 -17 -17 -37 -30
-21 -12 -61 -37 -89 -55 -28 -18 -57 -34 -65 -36 -8 -2 -16 -5 -19 -8 -29 -29
-177 -103 -240 -120 -43 -11 -142 -47 -205 -75 -25 -11 -115 -38 -285 -87
-110 -31 -338 -36 -630 -13 -157 12 -327 57 -400 105 -34 22 -220 124 -337
183 -52 27 -93 51 -91 53 3 2 28 8 56 14 29 5 73 19 99 31 42 19 161 73 218
100 45 21 236 73 410 113 66 15 149 33 185 42 57 13 98 19 250 40 19 2 80 12
135 20 95 15 184 23 440 39 61 4 111 8 112 9 10 9 217 -9 288 -25z m-2518
-221 c25 -25 63 -59 86 -75 23 -15 49 -37 58 -48 16 -18 16 -20 -5 -34 -11 -8
-62 -45 -113 -83 -50 -37 -94 -68 -97 -68 -3 0 -5 48 -4 108 1 88 -2 117 -20
164 -11 31 -24 80 -28 110 l-6 53 42 -40 c24 -22 63 -61 87 -87z"/>
<path d="M3728 1825 c-34 -19 -58 -63 -58 -106 0 -47 65 -109 114 -109 72 0
128 98 94 164 -30 57 -98 80 -150 51z m76 -83 c7 -12 -22 -45 -33 -37 -15 9
-14 32 2 38 18 8 25 8 31 -1z"/>
</g>
</svg>
