<?xml version="1.0" standalone="no"?>
<!DOCTYPE svg PUBLIC "-//W3C//DTD SVG 20010904//EN"
 "http://www.w3.org/TR/2001/REC-SVG-20010904/DTD/svg10.dtd">
<svg version="1.0" xmlns="http://www.w3.org/2000/svg"
 width="419.000000pt" height="429.000000pt" viewBox="0 0 419.000000 429.000000"
 preserveAspectRatio="xMidYMid meet">
<metadata>
Created by potrace 1.16, written by Peter Selinger 2001-2019
</metadata>
<g transform="translate(0.000000,429.000000) scale(0.100000,-0.100000)"
fill="#000000" stroke="none">
<path d="M2846 4172 c-4 -3 -14 -7 -24 -8 -83 -12 -300 -118 -366 -179 -15
-14 -31 -25 -37 -25 -5 0 -9 -3 -9 -7 -1 -5 -23 -33 -50 -63 -28 -30 -50 -59
-50 -63 0 -4 -5 -13 -10 -20 -15 -17 -100 -135 -133 -183 -15 -23 -69 -79
-119 -125 -118 -108 -131 -121 -148 -156 -8 -15 -19 -31 -23 -34 -4 -3 -11
-31 -14 -62 l-6 -55 102 -104 c105 -106 153 -174 131 -188 -8 -5 -7 -9 4 -13
9 -4 16 -17 16 -30 0 -13 12 -47 27 -77 25 -51 35 -90 49 -185 3 -22 15 -59
26 -82 17 -35 30 -46 76 -64 68 -28 126 -26 194 5 29 13 78 35 109 49 31 14
60 30 64 37 8 12 46 29 85 37 14 2 50 15 80 28 30 12 82 30 115 40 61 17 168
61 195 80 8 6 31 18 50 28 69 33 105 61 220 171 80 77 130 142 130 168 0 9 4
19 9 23 9 5 14 37 25 153 4 43 12 57 52 99 38 41 118 214 130 283 11 65 7 274
-5 278 -6 2 -11 8 -11 14 0 27 -46 107 -62 108 -9 0 -18 3 -20 8 -20 45 -216
58 -320 20 -35 -12 -78 -33 -97 -45 -26 -18 -37 -20 -47 -12 -8 6 -14 16 -14
21 0 31 -132 108 -185 108 -12 0 -25 4 -30 9 -12 11 -101 22 -109 13z m160
-142 c31 -12 94 -68 94 -83 0 -5 16 -23 36 -41 34 -30 36 -35 31 -82 -8 -89
-36 -166 -75 -207 -76 -80 -90 -92 -118 -107 -16 -8 -40 -22 -54 -31 -59 -39
-121 -69 -144 -69 -14 0 -27 -4 -30 -9 -3 -4 -25 -11 -48 -15 -23 -4 -47 -10
-53 -15 -11 -8 -103 -35 -195 -56 -30 -7 -98 -23 -150 -35 -52 -13 -130 -37
-173 -54 l-79 -31 -18 23 c-10 12 -28 22 -39 22 -12 0 -21 2 -21 5 0 25 36 78
81 119 89 80 209 200 209 208 0 5 23 38 50 74 28 36 58 80 67 97 31 62 194
207 232 207 5 0 11 5 13 10 4 13 139 69 193 80 48 10 151 5 191 -10z m546 -45
c31 -3 61 -33 83 -83 17 -39 8 -148 -19 -247 -15 -54 -114 -237 -135 -250 -5
-3 -17 7 -26 22 -15 23 -16 28 -3 37 15 11 25 29 73 124 42 84 49 175 15 222
-11 15 -20 32 -20 38 0 13 -48 31 -85 33 -26 1 -86 -14 -137 -36 -12 -5 -21 1
-31 22 -21 39 -8 57 61 89 77 36 110 44 157 37 22 -3 52 -6 67 -8z m-299 -246
c9 -17 17 -35 17 -41 0 -5 13 -38 29 -72 26 -57 34 -80 46 -145 2 -13 21 -51
40 -84 20 -33 39 -74 42 -91 3 -17 10 -37 16 -43 18 -24 -3 -124 -36 -168 -45
-59 -185 -195 -201 -195 -8 0 -23 -10 -33 -22 -35 -43 -316 -168 -377 -168 -9
0 -24 -5 -34 -10 -18 -11 -118 -46 -167 -59 -16 -4 -73 -29 -126 -54 -53 -26
-108 -47 -122 -47 -30 0 -50 30 -49 72 0 15 -4 30 -9 33 -5 4 -9 20 -9 36 0
16 -7 46 -15 66 -8 19 -15 42 -15 50 0 8 -6 29 -14 46 -25 54 -66 163 -66 174
0 5 -18 35 -41 66 -24 34 -35 57 -27 57 8 0 31 9 51 19 21 11 55 22 75 25 57
8 403 95 437 110 17 7 53 19 80 26 60 16 211 88 269 130 12 8 53 47 93 87 62
63 75 81 93 139 11 36 20 72 20 80 0 23 14 16 33 -17z m206 11 c13 -1 -15 -99
-35 -123 -13 -16 -24 -34 -24 -40 -1 -7 -14 17 -30 52 -17 35 -28 67 -25 71 3
5 -1 10 -7 12 -26 9 47 38 82 33 19 -2 37 -4 39 -5z"/>
<path d="M2835 3986 c-90 -29 -232 -125 -335 -226 -14 -13 -50 -45 -80 -71
-30 -25 -124 -114 -208 -197 -144 -142 -153 -154 -147 -181 5 -26 12 -31 48
-36 23 -4 56 -4 72 0 17 3 55 10 85 15 104 18 147 29 241 61 102 34 299 125
299 137 0 4 9 8 21 9 35 3 175 131 205 187 70 132 67 123 52 163 -13 37 -20
49 -47 79 -12 13 -16 13 -37 -7 -29 -27 -30 -39 -4 -72 23 -29 25 -43 8 -80
-9 -19 -25 -30 -53 -38 -22 -6 -60 -17 -85 -26 -98 -34 -141 -39 -222 -27 -42
6 -84 17 -93 24 -13 11 -12 15 11 33 15 11 46 38 70 60 24 22 54 45 66 52 13
6 54 29 92 49 62 33 76 37 133 34 76 -3 94 9 69 46 -14 23 -23 26 -69 25 -28
0 -70 -6 -92 -13z"/>
<path d="M2250 3031 c-14 -26 2 -65 35 -87 14 -9 25 -25 25 -35 0 -10 5 -21
10 -24 6 -3 10 -17 10 -30 0 -55 67 -88 87 -43 8 18 1 37 -35 102 -24 45 -50
88 -58 97 -8 8 -14 21 -14 27 0 20 -48 14 -60 -7z"/>
<path d="M1842 3098 c-15 -8 -22 -19 -20 -37 2 -35 -38 -124 -68 -150 -13 -11
-24 -25 -24 -29 0 -5 -36 -39 -81 -78 -44 -38 -87 -75 -94 -81 -8 -7 -16 -13
-19 -13 -3 0 -24 -19 -48 -43 -59 -58 -88 -110 -88 -159 0 -34 6 -47 39 -79
63 -63 105 -54 173 39 46 62 54 75 128 224 18 37 44 78 57 92 19 21 21 29 13
51 -9 23 -1 54 20 75 10 10 40 68 40 78 0 6 5 23 12 39 17 42 18 56 6 70 -12
15 -16 15 -46 1z m-344 -535 c-24 -57 -38 -74 -38 -50 0 30 39 95 57 97 1 0
-7 -21 -19 -47z"/>
<path d="M1196 2268 c-3 -7 -10 -42 -17 -77 -8 -37 -27 -84 -46 -113 -18 -27
-33 -53 -33 -57 0 -5 -13 -21 -28 -38 -20 -20 -39 -30 -60 -30 -46 0 -127 -57
-151 -106 -27 -56 -32 -93 -19 -123 17 -38 47 -38 136 -4 58 22 94 30 129 28
26 -1 64 1 83 5 35 8 35 8 10 -7 -14 -8 -50 -20 -80 -27 -30 -6 -63 -17 -75
-24 -19 -12 -40 -18 -107 -30 -15 -3 -40 -10 -55 -17 -30 -12 -38 -15 -52 -17
-5 0 -17 -8 -25 -17 -12 -12 -13 -20 -6 -35 14 -25 40 -24 103 5 29 13 67 27
85 31 32 7 33 6 26 -22 -4 -15 -13 -39 -20 -53 -7 -14 -15 -33 -18 -43 -5 -15
-9 -16 -28 -6 -13 7 -29 20 -36 31 -23 32 -44 24 -171 -70 l-31 -23 35 73 c46
96 46 130 0 152 -19 9 -35 21 -35 26 0 11 -30 13 -54 4 -9 -3 -16 -13 -16 -21
0 -42 -115 -180 -143 -170 -18 6 -36 70 -25 91 15 29 -20 60 -53 47 -13 -5
-59 -17 -102 -27 -84 -19 -93 -31 -62 -84 8 -14 17 -32 21 -40 4 -8 17 -37 29
-65 12 -27 26 -61 30 -75 3 -14 16 -45 27 -70 28 -62 38 -90 33 -90 -10 0 -43
39 -67 79 -14 24 -44 62 -67 86 -23 24 -62 70 -86 102 -76 101 -87 111 -112
100 -13 -6 -23 -16 -23 -23 0 -23 12 -44 26 -44 8 0 14 -4 14 -9 0 -5 14 -22
31 -38 17 -15 36 -39 44 -53 7 -14 28 -41 46 -61 38 -40 74 -83 104 -125 11
-16 40 -51 65 -80 25 -28 61 -74 80 -102 19 -28 39 -51 43 -52 5 0 5 -4 2 -10
-3 -5 -1 -10 4 -10 6 0 11 -6 11 -13 0 -8 13 -32 30 -55 16 -22 32 -53 36 -67
4 -15 13 -29 20 -32 8 -3 14 -11 14 -18 0 -7 4 -15 9 -17 15 -5 111 -184 117
-216 5 -29 86 -152 99 -152 8 0 15 -4 15 -9 0 -13 81 -57 121 -65 30 -5 174
-57 249 -89 14 -6 36 -12 50 -14 14 -2 52 -10 85 -19 107 -26 235 -26 350 0 6
2 33 6 60 10 49 7 139 26 220 47 22 6 63 21 90 33 28 12 92 40 143 61 51 22
105 52 120 68 15 15 42 39 61 52 43 30 225 208 299 293 31 36 80 89 107 117
89 94 263 279 282 301 10 12 70 67 134 123 117 101 149 137 149 165 0 17 -34
39 -44 29 -3 -4 -16 4 -27 16 -13 13 -18 26 -12 30 17 11 23 41 13 66 -10 25
-10 25 -42 9 -18 -9 -38 -23 -46 -30 -29 -30 -78 -62 -103 -67 -26 -7 -26 -7
-18 41 4 26 11 61 14 78 5 20 3 34 -5 39 -6 4 -53 9 -103 12 -79 3 -93 2 -104
-13 -7 -10 -13 -16 -14 -13 -6 35 -11 46 -31 61 -13 10 -18 18 -13 18 18 0
-47 30 -65 30 -10 0 -20 -5 -22 -12 -2 -6 -15 0 -30 15 -15 14 -39 29 -55 32
-15 4 -73 19 -128 35 -55 16 -133 31 -172 35 -40 4 -73 11 -73 15 0 5 -14 11
-30 15 -18 4 -41 21 -56 41 -19 25 -40 38 -78 48 -87 24 -240 36 -285 21 -11
-3 -23 -15 -26 -26 -5 -16 -13 -20 -31 -16 -13 2 -50 -2 -82 -9 -70 -17 -82
-17 -82 -3 0 26 -36 38 -110 38 -41 0 -92 -3 -112 -8 -21 -5 -38 -5 -38 -1 0
12 -28 20 -45 14 -8 -4 -15 -13 -15 -20 0 -27 -43 -83 -62 -84 -9 0 -58 75
-58 88 0 5 9 19 20 32 11 13 20 33 20 45 0 13 7 28 15 35 18 15 20 41 4 57 -7
7 -7 22 2 52 9 31 9 47 1 66 -12 26 -40 34 -46 13z m609 -378 c8 -13 -15 -13
-35 0 -12 8 -11 10 7 10 12 0 25 -4 28 -10z m-840 -30 c-3 -5 -11 -10 -16 -10
-6 0 -7 5 -4 10 3 6 11 10 16 10 6 0 7 -4 4 -10z m165 -25 c-25 -13 -52 -24
-60 -25 -8 0 5 11 30 25 25 13 52 24 60 24 8 0 -5 -11 -30 -24z m1037 9 c-3
-3 -12 -4 -19 -1 -8 3 -5 6 6 6 11 1 17 -2 13 -5z m-564 -31 c-7 -2 -19 -2
-25 0 -7 3 -2 5 12 5 14 0 19 -2 13 -5z m-273 -22 c0 -8 -61 -22 -68 -16 -2 2
9 10 25 18 27 15 43 14 43 -2z m100 11 c0 -10 -45 -32 -63 -32 -7 1 4 9 23 20
41 23 40 22 40 12z m336 -19 c-2 -16 -5 -35 -5 -43 -1 -10 -13 -16 -39 -17
-43 -3 -120 21 -103 31 6 4 15 4 21 1 13 -8 77 23 84 41 3 8 15 14 26 14 17 0
20 -5 16 -27z m227 -33 c16 0 17 -3 7 -15 -15 -18 -4 -89 16 -106 10 -8 13
-22 9 -41 -6 -27 14 -90 33 -102 5 -3 37 -6 73 -7 134 -4 153 2 151 50 0 24 6
34 33 51 18 11 35 29 38 39 3 13 15 21 37 23 36 3 66 37 41 45 -8 4 1 14 25
27 32 18 45 20 72 12 17 -5 32 -12 32 -16 0 -8 -32 -23 -75 -37 -28 -8 -30
-12 -29 -54 1 -25 11 -63 22 -85 31 -62 64 -166 55 -174 -4 -5 -22 -11 -38
-14 l-30 -7 0 58 c0 67 -6 70 -118 72 -61 1 -70 -2 -93 -26 -14 -16 -21 -30
-16 -35 6 -6 2 -25 -9 -48 -11 -22 -18 -54 -17 -72 3 -30 0 -33 -47 -50 -27
-10 -58 -18 -68 -18 -16 0 -16 3 6 33 13 17 30 51 37 74 15 49 8 64 -44 90
-17 9 -39 24 -48 33 -10 11 -25 16 -37 13 -16 -4 -20 2 -24 44 -3 26 -5 65 -5
86 0 51 -20 97 -43 97 -11 0 -37 -13 -60 -29 -22 -17 -47 -27 -55 -24 -23 8
-16 21 15 28 37 8 112 72 110 94 -3 31 2 36 13 14 6 -13 20 -23 31 -23z m743
-42 c-2 -7 -8 -26 -14 -41 -7 -16 -12 -31 -12 -34 0 -9 -32 -43 -40 -43 -9 0
-27 45 -34 87 -5 32 -5 32 42 36 26 2 50 4 54 5 3 1 5 -4 4 -10z m-1388 -20
c26 -22 9 -51 -43 -71 -27 -11 -58 -20 -67 -20 -9 -1 -14 -5 -12 -9 3 -4 -6
-8 -19 -8 -14 0 -27 7 -31 15 -3 9 -18 15 -34 15 -16 0 -35 7 -42 16 -11 13
-10 16 7 20 12 3 56 19 99 34 77 28 115 30 142 8z m173 -54 c10 -12 23 -14 53
-9 l40 6 -22 -24 c-12 -13 -22 -32 -22 -43 0 -10 -9 -25 -20 -32 -29 -18 -25
-47 11 -72 l30 -22 -32 -24 c-35 -26 -67 -39 -76 -31 -3 3 -5 18 -5 34 -1 65
-5 71 -60 78 l-51 7 41 19 c36 17 42 24 44 52 0 18 2 37 3 42 2 6 3 16 4 23 2
17 46 15 62 -4z m1283 8 c10 -17 -24 -108 -60 -161 -6 -7 -34 28 -34 42 0 17
71 127 82 127 4 0 9 -4 12 -8z m-221 -24 c3 -17 47 -101 56 -108 13 -8 63
-100 56 -100 -4 0 0 -11 9 -25 9 -13 16 -32 16 -41 0 -9 7 -22 14 -28 8 -6 18
-23 21 -37 5 -21 1 -29 -21 -44 -15 -9 -46 -37 -70 -61 -28 -27 -56 -45 -79
-50 -19 -3 -32 -10 -29 -15 3 -5 0 -9 -6 -9 -8 0 -11 -14 -8 -40 3 -40 3 -41
-37 -52 -22 -7 -49 -13 -60 -15 -11 -1 -47 -9 -80 -17 -82 -21 -88 -21 -79 7
12 40 48 74 94 90 25 8 83 31 130 51 46 20 92 36 101 36 26 0 40 25 35 61 -6
47 -61 208 -96 284 -5 11 -13 37 -19 57 -8 34 -7 39 17 57 29 21 32 21 35 -1z
m313 -24 c7 -36 -1 -180 -12 -219 -6 -22 -60 -58 -74 -50 -5 3 -14 21 -20 40
-11 33 -9 42 28 118 22 45 43 97 46 115 10 42 23 41 32 -4z m-1103 -34 c3 -30
6 -59 7 -65 7 -30 0 -38 -20 -20 -12 11 -20 31 -20 51 0 18 -5 36 -11 39 -7 5
-2 16 12 31 12 13 23 23 25 21 1 -1 4 -27 7 -57z m-1086 24 c3 -8 -11 -47 -31
-86 -20 -38 -36 -74 -36 -79 0 -15 -43 -69 -55 -69 -12 0 -40 30 -47 51 -5 13
18 46 77 114 15 17 34 42 43 58 18 30 39 35 49 11z m1213 -178 c-5 -16 -10
-39 -10 -50 0 -12 -7 -32 -16 -45 -24 -33 -32 -12 -32 74 0 40 -3 94 -6 121
-6 47 -5 50 26 69 l33 21 8 -81 c4 -49 3 -91 -3 -109z m1111 189 c5 -4 -1 -74
-16 -195 -9 -77 -38 -180 -51 -180 -6 0 -17 -13 -24 -30 -19 -46 -36 -38 -32
15 3 31 10 48 23 55 23 13 36 77 20 102 -8 13 -8 31 0 65 6 27 11 76 11 111
l0 62 32 0 c18 0 35 -2 37 -5z m-2620 -82 c6 -21 28 -69 49 -108 52 -99 54
-111 21 -134 -27 -19 -28 -19 -43 -1 -16 18 -90 194 -101 242 -5 20 -3 28 10
31 42 11 52 7 64 -30z m701 28 c9 -1 -27 -132 -57 -206 -13 -33 -39 -109 -56
-170 -42 -145 -52 -165 -88 -165 -34 0 -44 9 -30 27 7 7 13 35 15 61 2 26 15
79 30 117 14 39 27 78 29 87 2 9 10 27 18 40 9 13 22 46 30 74 8 28 20 60 26
70 6 11 15 31 21 46 7 22 15 27 32 24 13 -3 26 -5 30 -5z m210 -21 l22 -20
-25 0 c-13 0 -34 -3 -46 -6 -24 -6 -24 -21 -6 -109 5 -22 8 -46 7 -52 -1 -7
-2 -35 -3 -63 -1 -41 -4 -50 -19 -50 -9 0 -23 -9 -29 -19 -7 -11 -34 -32 -60
-47 -26 -15 -68 -46 -92 -68 -39 -37 -43 -39 -37 -16 4 14 15 58 26 98 11 40
22 77 25 83 4 5 9 21 11 35 3 15 13 43 23 63 11 20 27 63 36 94 14 47 20 57
34 52 10 -3 38 6 62 20 24 13 45 25 47 25 2 0 12 -9 24 -20z m1918 -87 c0 -7
-5 -13 -10 -13 -6 0 -33 -21 -60 -46 -49 -46 -62 -77 -37 -87 9 -4 9 -6 0 -6
-6 -1 -15 4 -18 9 -3 6 -17 10 -30 10 -17 0 -22 5 -20 18 2 9 4 34 4 55 1 32
4 37 25 37 14 0 32 8 41 17 10 9 31 25 49 34 28 16 32 16 44 1 6 -9 12 -22 12
-29z m-2360 7 c0 -5 9 -10 20 -10 11 0 20 -2 20 -5 0 -10 -215 -220 -265 -260
-27 -21 -60 -49 -71 -63 -21 -23 -24 -24 -60 -11 -22 7 -47 14 -57 15 -19 1
-48 34 -41 46 3 5 11 8 19 8 8 0 34 19 59 43 70 67 112 97 134 97 11 0 30 12
42 28 12 15 54 48 93 74 70 45 107 58 107 38z m526 -13 c0 -1 7 -30 15 -64 13
-57 16 -159 11 -354 l-2 -75 -42 5 -43 6 -8 55 c-13 92 -9 422 6 432 9 6 59 2
63 -5z m344 -17 c0 -5 -5 -10 -11 -10 -5 0 -7 5 -4 10 3 6 8 10 11 10 2 0 4
-4 4 -10z m-106 -22 c-22 -37 -54 -77 -95 -120 l-47 -49 -5 33 c-5 33 7 68 22
68 5 0 35 18 67 40 66 44 68 45 58 28z m760 -5 c3 -10 2 -31 -2 -48 -7 -25
-16 -32 -66 -46 l-58 -18 7 32 c3 18 9 47 12 65 5 31 7 32 54 32 37 0 49 -4
53 -17z m-584 -143 c23 0 4 -30 -66 -105 -42 -44 -86 -96 -99 -115 -12 -19
-34 -48 -49 -63 -22 -24 -31 -27 -59 -22 -17 4 -35 10 -38 14 -10 10 -20 61
-12 61 5 0 6 25 5 55 -2 30 -1 55 2 55 3 0 20 -9 38 -20 18 -11 45 -20 60 -20
32 0 71 43 88 97 6 21 14 45 17 53 3 8 8 26 10 40 2 14 22 42 46 64 l42 38 3
-66 c2 -36 7 -66 12 -66z m253 95 c3 -6 -24 -52 -59 -101 -35 -49 -64 -93 -64
-99 0 -8 -56 -78 -135 -168 -9 -10 -13 -23 -9 -28 4 -8 -9 -9 -42 -4 -27 4
-59 7 -71 6 -13 0 -23 1 -23 4 0 5 173 215 285 347 61 72 68 76 90 66 13 -6
26 -16 28 -23z m-1206 -121 c-13 -33 -29 -81 -37 -109 -23 -85 -24 -86 -108
-61 l-73 22 118 117 c69 68 119 111 121 103 2 -8 -8 -40 -21 -72z m1650 29 l9
-38 -71 -33 c-90 -43 -165 -72 -187 -72 -10 0 -18 -4 -18 -8 0 -5 -28 -16 -62
-25 -127 -32 -180 -47 -206 -61 -72 -36 -75 -31 -23 41 39 52 60 72 93 85 55
21 429 145 445 147 6 0 15 -16 20 -36z m328 -30 c-4 -16 -11 -43 -14 -62 -6
-31 -12 -37 -66 -59 -73 -29 -135 -43 -135 -30 0 12 26 38 37 38 5 0 25 16 44
36 18 19 53 47 76 62 24 15 43 30 43 35 0 4 5 7 11 7 7 0 9 -10 4 -27z m-1575
-115 c0 -37 -5 -46 -52 -90 -43 -40 -58 -48 -78 -43 -14 4 -43 9 -65 13 l-40
7 40 30 c22 17 46 36 54 43 7 7 31 23 53 35 23 12 50 28 62 34 11 7 22 13 24
13 1 0 2 -19 2 -42z m950 -82 c0 -3 -7 -12 -17 -21 -13 -13 -13 -19 -4 -25 9
-5 2 -9 -18 -12 -25 -4 -31 -1 -26 9 3 8 5 19 5 24 0 5 10 14 23 19 25 10 37
12 37 6z m-160 -61 c-7 -8 -24 -15 -39 -14 l-26 1 30 13 c40 18 50 18 35 0z
m-1236 -61 c27 -14 74 -27 105 -30 31 -3 63 -8 71 -11 30 -10 218 -34 340 -44
69 -5 181 -7 250 -4 69 3 174 8 233 11 101 4 358 29 555 54 46 6 109 19 141
30 31 10 85 23 119 29 34 5 67 13 72 16 21 13 8 -3 -62 -76 -40 -42 -107 -112
-148 -156 -96 -103 -164 -172 -194 -200 -13 -12 -25 -25 -27 -30 -5 -11 -142
-82 -166 -86 -10 -2 -32 -10 -48 -19 -79 -42 -152 -57 -296 -64 -79 -3 -148
-5 -154 -5 -5 1 -32 3 -60 6 -27 2 -61 7 -75 11 -30 8 -58 12 -131 18 -30 3
-109 15 -175 27 -65 12 -132 24 -149 27 -59 10 -128 64 -162 130 -18 33 -33
65 -33 71 0 6 -13 32 -28 58 -16 26 -29 50 -29 53 0 15 -27 87 -37 100 -7 8
-18 29 -26 45 -8 17 -22 42 -32 57 -10 14 -18 28 -18 31 0 10 115 -25 164 -49z
m1613 -300 c-3 -3 -12 -4 -19 -1 -8 3 -5 6 6 6 11 1 17 -2 13 -5z"/>
</g>
</svg>
