<?xml version="1.0" standalone="no"?>
<!DOCTYPE svg PUBLIC "-//W3C//DTD SVG 20010904//EN"
 "http://www.w3.org/TR/2001/REC-SVG-20010904/DTD/svg10.dtd">
<svg version="1.0" xmlns="http://www.w3.org/2000/svg"
 width="503.000000pt" height="269.000000pt" viewBox="0 0 503.000000 269.000000"
 preserveAspectRatio="xMidYMid meet">
<metadata>
Created by potrace 1.16, written by Peter Selinger 2001-2019
</metadata>
<g transform="translate(0.000000,269.000000) scale(0.100000,-0.100000)"
fill="#000000" stroke="none">
<path d="M4475 2421 c-36 -5 -40 -9 -43 -36 -3 -36 -41 -123 -64 -149 -10 -11
-18 -25 -18 -32 0 -25 -43 -114 -56 -114 -19 0 -154 120 -170 153 -12 22 -21
28 -41 25 -38 -4 -51 -30 -33 -64 17 -31 129 -142 162 -161 13 -7 19 -13 13
-13 -5 0 -37 -2 -70 -5 -87 -6 -98 -8 -120 -28 -11 -10 -40 -30 -65 -44 -25
-15 -51 -36 -59 -47 -8 -12 -40 -47 -70 -78 -75 -76 -140 -151 -340 -388 -78
-93 -160 -173 -252 -248 -134 -109 -169 -136 -183 -141 -6 -2 -25 -15 -42 -28
-17 -12 -36 -23 -42 -23 -7 0 -12 -4 -12 -8 0 -5 -44 -26 -97 -47 -54 -22
-102 -42 -108 -46 -5 -4 -32 -10 -60 -14 -27 -4 -54 -10 -59 -13 -30 -17 -239
6 -256 28 -3 4 -27 11 -55 17 -68 14 -177 56 -213 82 -17 12 -33 21 -37 21 -4
0 -21 10 -38 23 -17 12 -39 27 -49 32 -49 29 -191 131 -243 175 -33 27 -82 65
-110 84 -27 19 -66 50 -85 68 -20 18 -49 41 -64 52 -30 19 -93 76 -210 189
-39 37 -73 67 -76 67 -3 0 -21 14 -40 30 -19 17 -55 40 -80 52 -25 12 -56 30
-70 40 -35 25 -148 41 -202 28 -24 -5 -47 -10 -51 -10 -14 0 136 130 181 156
23 14 42 27 42 29 0 2 -4 15 -10 29 -18 49 -52 34 -169 -73 -87 -79 -140 -121
-153 -121 -15 0 -27 49 -33 132 -3 46 -7 94 -10 108 -3 14 -10 46 -15 73 -14
69 -26 87 -60 87 -33 0 -46 -15 -41 -49 2 -20 0 -23 -16 -16 -88 36 -149 10
-128 -55 5 -16 2 -20 -18 -20 -14 0 -41 -7 -61 -15 -30 -13 -36 -20 -36 -44 0
-17 4 -42 10 -56 l10 -26 -44 6 c-53 8 -151 -17 -160 -41 -12 -32 -5 -74 16
-98 25 -26 87 -49 182 -65 51 -9 67 -18 116 -63 79 -74 87 -88 64 -105 -11 -8
-39 -31 -64 -52 -97 -84 -97 -85 -71 -127 13 -19 16 -20 40 -8 14 8 57 45 96
84 39 39 73 66 78 61 5 -5 12 -37 17 -72 5 -46 21 -91 56 -159 26 -52 52 -96
56 -98 4 -2 8 -10 8 -18 0 -8 4 -14 9 -14 5 0 14 -12 20 -27 13 -30 66 -93 78
-93 5 0 35 -27 67 -60 33 -33 63 -60 68 -60 9 0 46 -31 112 -94 23 -21 57 -49
76 -61 19 -12 49 -34 65 -49 17 -14 33 -26 37 -26 10 0 118 -69 143 -91 28
-25 136 -84 178 -98 20 -7 54 -25 76 -42 23 -16 46 -29 53 -29 7 0 24 -9 38
-20 14 -11 31 -20 38 -20 8 0 28 -6 45 -14 65 -30 164 -69 219 -87 31 -11 85
-32 120 -48 35 -16 83 -34 107 -41 24 -6 51 -15 60 -20 17 -9 155 -35 181 -34
133 5 258 18 292 30 24 9 52 17 62 19 57 12 327 151 398 205 29 22 57 40 62
40 5 0 27 15 50 33 23 19 52 40 66 47 13 7 44 32 68 54 24 23 55 50 70 61 40
31 172 156 212 200 19 21 114 118 210 215 96 96 187 189 201 205 14 17 41 44
60 62 43 40 79 82 79 93 0 5 15 28 33 52 89 118 131 207 128 272 l-2 50 28
-34 c16 -19 49 -57 74 -84 45 -48 46 -48 75 -35 44 22 36 48 -35 120 -87 88
-89 92 -43 120 70 43 103 60 147 74 53 18 163 79 189 105 13 13 17 26 12 45
-6 23 -11 26 -34 22 -15 -2 -44 -12 -65 -21 l-39 -17 6 28 c3 15 2 34 -3 42
-8 13 -15 12 -51 -2 l-42 -16 15 22 c8 12 20 39 26 60 22 67 -21 83 -81 29
-15 -14 -41 -33 -58 -43 -29 -18 -30 -18 -30 0 0 10 7 40 15 67 19 63 19 90
-1 98 -9 3 -16 5 -17 5 -1 -1 -20 -5 -42 -8z m-9 -237 c17 -11 36 -15 61 -11
28 5 33 3 25 -5 -35 -35 14 -87 63 -68 18 7 32 7 38 1 11 -11 1 -31 -17 -31
-18 0 -170 -80 -174 -91 -7 -17 -39 -9 -62 16 -21 23 -22 28 -12 64 7 21 12
45 12 53 0 19 28 88 35 88 3 0 17 -7 31 -16z m-4088 -141 c15 -10 32 -23 37
-30 16 -19 69 -36 73 -24 2 6 10 11 17 11 24 0 45 -30 45 -65 0 -18 9 -54 20
-80 11 -26 20 -53 20 -62 0 -16 -62 -83 -76 -83 -5 0 -37 27 -70 58 -68 64
-88 75 -184 92 -68 12 -130 36 -130 50 0 25 142 22 205 -4 26 -11 34 -11 53 2
30 20 28 30 -18 80 -57 62 -52 93 8 55z m3842 -133 c0 -6 10 -8 24 -4 33 8 40
-18 39 -128 -1 -73 -6 -94 -28 -133 -14 -26 -33 -54 -41 -62 -8 -8 -32 -41
-53 -72 -21 -31 -62 -76 -90 -100 -28 -25 -51 -49 -51 -54 0 -6 -71 -81 -157
-167 -87 -86 -170 -170 -184 -186 -45 -49 -231 -227 -283 -269 -78 -64 -237
-177 -283 -202 -12 -6 -50 -26 -85 -44 -35 -18 -70 -38 -78 -44 -8 -7 -31 -18
-50 -25 -19 -7 -42 -19 -50 -25 -25 -20 -109 -42 -207 -55 -137 -17 -157 -18
-250 -9 -107 11 -180 32 -264 76 -37 19 -109 49 -160 67 -52 19 -123 44 -159
56 -36 13 -72 29 -80 35 -13 10 -99 59 -185 105 -16 9 -70 40 -119 68 -49 29
-93 52 -97 52 -5 0 -9 4 -9 8 0 5 -12 15 -28 23 -37 18 -110 67 -149 98 -17
14 -46 38 -65 53 -64 53 -112 93 -158 133 -25 22 -57 49 -71 60 -14 11 -36 36
-49 55 -14 19 -41 58 -60 85 -49 67 -90 174 -90 231 0 49 33 119 70 150 19 16
37 31 40 35 14 17 88 31 142 26 47 -4 73 -14 131 -51 39 -25 90 -61 112 -81
22 -20 66 -59 98 -88 131 -118 175 -155 232 -197 33 -25 66 -51 73 -58 8 -6
23 -17 34 -23 20 -11 127 -95 138 -108 3 -4 48 -35 100 -70 52 -35 106 -73
120 -85 23 -19 39 -30 95 -61 11 -6 46 -26 78 -45 33 -19 71 -42 85 -51 40
-23 212 -71 252 -70 14 1 83 3 155 4 115 3 137 6 185 29 30 14 73 31 95 38 67
22 238 116 255 141 10 15 143 109 154 109 6 0 20 14 31 30 11 17 27 33 37 35
18 6 176 159 222 215 15 19 45 53 65 76 20 22 50 58 66 79 17 21 54 62 83 91
28 28 52 56 52 60 1 14 126 144 139 144 6 0 11 5 11 12 0 6 3 9 6 5 5 -5 20 5
58 38 43 38 156 71 156 45z"/>
</g>
</svg>
