<?xml version="1.0" standalone="no"?>
<!DOCTYPE svg PUBLIC "-//W3C//DTD SVG 20010904//EN"
 "http://www.w3.org/TR/2001/REC-SVG-20010904/DTD/svg10.dtd">
<svg version="1.0" xmlns="http://www.w3.org/2000/svg"
 width="461.000000pt" height="359.000000pt" viewBox="0 0 461.000000 359.000000"
 preserveAspectRatio="xMidYMid meet">
<metadata>
Created by potrace 1.16, written by Peter Selinger 2001-2019
</metadata>
<g transform="translate(0.000000,359.000000) scale(0.100000,-0.100000)"
fill="#000000" stroke="none">
<path d="M2860 3219 c-89 -11 -225 -19 -370 -23 -133 -3 -226 -14 -365 -41
-38 -8 -90 -17 -115 -21 -42 -6 -127 -46 -179 -83 -22 -16 -25 -16 -62 2 -34
16 -45 18 -86 8 -27 -6 -57 -13 -69 -15 -65 -12 -174 -46 -188 -58 -6 -5 -49
-33 -96 -63 -47 -29 -90 -58 -95 -63 -6 -5 -22 -12 -35 -15 -14 -4 -39 -20
-57 -37 -18 -16 -36 -30 -42 -30 -5 0 -11 -3 -13 -8 -1 -4 -46 -40 -98 -79
-52 -39 -106 -81 -120 -93 -14 -13 -55 -43 -93 -67 -37 -24 -67 -48 -67 -53 0
-6 -7 -10 -15 -10 -9 0 -18 -7 -21 -15 -4 -8 -10 -15 -15 -15 -20 0 -112 -71
-214 -166 -14 -13 -29 -24 -34 -24 -4 0 -22 -16 -41 -35 -19 -19 -40 -35 -47
-35 -7 0 -13 -4 -13 -9 0 -5 -14 -14 -30 -21 -17 -7 -30 -16 -30 -20 0 -5 -14
-17 -31 -28 -81 -51 -128 -217 -86 -299 34 -65 140 -92 223 -57 22 9 64 23 94
30 61 16 103 33 170 68 25 14 85 38 133 55 48 17 107 43 130 58 23 15 54 34
69 42 16 8 28 18 28 23 0 5 4 6 10 3 11 -7 125 51 151 77 10 9 43 33 75 53 79
51 124 88 208 170 39 38 86 80 104 92 59 41 138 108 167 142 65 76 83 101 105
144 14 26 29 47 33 47 4 0 20 -9 35 -20 49 -36 233 -68 342 -60 25 1 56 3 70
2 122 -3 234 0 284 7 34 6 106 12 161 16 55 3 150 13 210 21 189 26 209 31
306 64 l79 27 11 -41 c20 -78 71 -231 85 -253 8 -13 15 -34 16 -48 2 -15 8
-31 15 -37 7 -6 13 -15 13 -21 0 -13 110 -240 120 -247 4 -3 10 -17 14 -32 3
-15 20 -48 36 -75 16 -26 31 -60 32 -75 1 -16 5 -28 8 -28 7 0 33 -85 35 -114
3 -43 59 -211 77 -230 4 -6 8 -19 8 -30 0 -31 53 -138 89 -179 42 -47 76 -63
132 -62 44 0 50 4 107 64 33 36 68 84 78 108 10 24 21 43 25 43 4 0 10 19 14
43 4 23 9 51 12 62 12 55 8 152 -12 242 -12 54 -24 105 -27 113 -7 16 -32 92
-33 100 -1 3 -4 14 -8 25 -4 11 -9 34 -11 50 -2 17 -22 80 -45 140 -22 61 -41
114 -41 118 0 5 -25 60 -55 122 -30 63 -55 119 -55 124 0 5 -4 11 -8 13 -5 2
-40 53 -80 113 -39 61 -78 118 -86 128 -9 9 -16 20 -16 23 0 7 -50 56 -87 86
-35 27 -55 35 -111 42 -45 6 -60 3 -103 -19 -58 -29 -59 -29 -59 -13 0 18 -86
95 -131 118 -20 11 -59 24 -86 30 -56 13 -254 18 -333 9z m225 -142 c80 -3
151 -10 165 -17 35 -17 76 -70 62 -79 -7 -4 -10 -17 -7 -29 5 -26 -27 -43
-125 -68 -36 -8 -90 -22 -120 -30 -114 -29 -114 -29 -245 -39 -55 -4 -109 -10
-120 -12 -11 -3 -50 -6 -86 -8 -36 -1 -71 -5 -77 -9 -13 -8 -350 -8 -447 -1
-102 9 -137 22 -167 65 -47 65 -35 87 60 105 18 4 36 14 42 24 8 17 74 33 180
46 19 2 51 7 70 10 19 3 96 10 170 16 154 12 216 17 315 27 38 4 97 6 130 5
33 -1 123 -4 200 -6z m528 -151 c49 -33 69 -55 160 -179 30 -42 88 -146 93
-167 0 -3 11 -27 23 -55 13 -27 34 -79 47 -115 13 -36 28 -74 33 -85 5 -11 24
-67 41 -125 44 -147 75 -243 106 -330 24 -67 26 -85 21 -163 -6 -99 -28 -156
-82 -213 -29 -30 -37 -34 -54 -25 -11 6 -23 20 -26 31 -3 11 -11 20 -16 20 -6
0 -17 16 -25 35 -8 19 -19 35 -24 35 -5 0 -14 19 -20 42 -7 22 -17 51 -24 62
-13 22 -17 34 -61 196 -25 93 -53 170 -66 180 -6 5 -14 27 -50 145 -11 39 -27
84 -35 102 -8 17 -14 40 -14 51 0 12 -4 23 -8 26 -5 3 -26 47 -47 98 -35 85
-63 149 -125 281 -43 91 -10 179 69 185 23 2 48 -8 84 -32z m-1924 -5 c11 -6
25 -19 30 -29 14 -25 -28 -160 -64 -208 -35 -46 -155 -164 -168 -164 -5 0 -14
-6 -22 -12 -7 -7 -27 -24 -45 -38 -18 -14 -51 -45 -74 -69 -37 -39 -116 -97
-255 -185 -25 -16 -82 -53 -126 -81 -101 -64 -191 -115 -206 -115 -6 0 -58
-22 -115 -50 -57 -27 -110 -50 -117 -50 -7 0 -17 -4 -22 -9 -27 -27 -209 -53
-229 -34 -4 5 -13 8 -19 8 -19 0 -8 66 16 103 12 17 57 57 99 88 42 30 78 58
80 62 4 9 234 198 288 237 146 105 174 126 204 153 18 16 57 47 87 68 30 20
82 59 117 86 35 26 73 53 85 59 12 7 24 15 27 18 3 3 21 15 40 25 19 11 70 38
113 62 43 23 90 45 105 49 15 3 40 14 56 24 30 20 79 21 115 2z"/>
<path d="M815 1473 c-35 -9 -82 -51 -89 -80 -23 -99 -15 -179 20 -222 45 -55
181 -227 194 -245 20 -29 68 -76 115 -111 21 -16 60 -48 85 -71 25 -22 74 -64
110 -93 36 -28 80 -64 98 -79 19 -15 66 -48 105 -75 40 -26 77 -51 82 -55 6
-4 29 -16 53 -26 24 -11 49 -27 55 -36 7 -9 27 -22 45 -29 17 -7 32 -16 32
-20 0 -4 24 -21 54 -39 70 -43 165 -60 201 -36 24 16 27 16 41 -2 8 -10 18
-26 24 -35 21 -36 88 -71 137 -72 47 -1 199 49 233 77 8 7 26 17 40 24 28 13
52 28 95 58 17 11 42 24 58 28 15 3 27 11 27 16 0 6 9 10 20 10 11 0 20 4 20
8 0 4 26 21 58 37 57 28 182 109 235 152 15 12 54 36 87 54 33 18 71 42 85 55
13 12 42 35 62 51 21 15 56 44 78 64 22 20 64 56 94 80 67 54 93 103 97 180 3
49 -1 63 -19 83 -44 47 -175 73 -274 55 -49 -10 -171 -66 -261 -121 -34 -21
-65 -38 -69 -38 -3 0 -14 -6 -22 -14 -9 -7 -50 -31 -91 -53 -41 -21 -87 -47
-102 -57 -16 -10 -28 -15 -28 -11 0 3 -13 -3 -29 -14 -16 -12 -32 -21 -37 -21
-4 0 -23 -12 -43 -27 -20 -16 -62 -45 -95 -66 -57 -37 -73 -50 -161 -132 -94
-88 -152 -133 -158 -124 -2 2 -15 20 -29 40 -15 20 -25 39 -22 41 5 6 -83 108
-106 122 -8 5 -26 21 -40 36 -14 15 -43 40 -65 56 -22 16 -42 32 -45 35 -3 3
-19 14 -37 23 -18 9 -36 22 -40 29 -4 7 -21 21 -37 32 -16 11 -43 30 -60 43
-17 12 -50 35 -73 50 -22 15 -91 74 -153 132 -62 58 -119 109 -128 114 -10 5
-19 12 -22 16 -3 3 -34 29 -70 58 -36 28 -72 57 -80 64 -68 58 -190 97 -255
81z m74 -125 c20 -7 38 -15 41 -18 3 -3 22 -14 43 -25 20 -11 37 -23 37 -27 0
-3 9 -9 19 -13 10 -3 30 -16 42 -28 42 -40 117 -97 127 -97 6 0 19 -11 29 -24
10 -13 68 -63 128 -111 61 -48 112 -91 115 -94 3 -4 21 -16 40 -27 126 -69
386 -299 420 -372 7 -15 21 -43 31 -64 l19 -36 -26 -31 c-25 -30 -26 -31 -62
-15 -20 8 -38 19 -40 24 -2 6 -9 10 -15 10 -7 0 -23 9 -37 20 -14 11 -33 20
-42 20 -10 0 -18 4 -18 8 0 5 -12 14 -27 21 -49 22 -107 65 -166 124 -32 31
-61 57 -63 57 -2 0 -28 17 -57 37 -106 75 -180 123 -190 123 -5 0 -31 17 -56
37 -25 21 -54 45 -64 53 -27 22 -77 74 -112 117 -16 20 -42 48 -57 63 -16 15
-28 32 -28 39 0 6 -4 11 -8 11 -12 0 -84 145 -86 172 -2 24 10 58 21 58 4 0
23 -6 42 -12z m2422 -280 c41 -34 55 -88 23 -88 -8 0 -14 -4 -14 -8 0 -21 -99
-108 -206 -180 -49 -34 -100 -70 -114 -81 -14 -12 -29 -21 -34 -21 -5 0 -34
-18 -66 -39 -67 -46 -140 -84 -147 -78 -2 3 -13 -2 -22 -11 -36 -33 -421 -264
-461 -277 -14 -4 -31 -12 -37 -17 -15 -12 -77 -2 -91 15 -10 12 -15 45 -13 79
1 14 36 54 96 107 45 40 122 101 127 101 9 0 220 129 378 230 215 138 389 236
450 252 19 5 49 13 65 18 43 12 49 11 66 -2z"/>
</g>
</svg>
