<?xml version="1.0" standalone="no"?>
<!DOCTYPE svg PUBLIC "-//W3C//DTD SVG 20010904//EN"
 "http://www.w3.org/TR/2001/REC-SVG-20010904/DTD/svg10.dtd">
<svg version="1.0" xmlns="http://www.w3.org/2000/svg"
 width="469.000000pt" height="423.000000pt" viewBox="0 0 469.000000 423.000000"
 preserveAspectRatio="xMidYMid meet">
<metadata>
Created by potrace 1.16, written by Peter Selinger 2001-2019
</metadata>
<g transform="translate(0.000000,423.000000) scale(0.100000,-0.100000)"
fill="#000000" stroke="none">
<path d="M3600 3981 c-70 -23 -160 -90 -160 -119 0 -40 -84 -44 -165 -9 -73
32 -112 26 -171 -29 -33 -30 -54 -42 -64 -37 -29 14 -95 7 -142 -16 -25 -12
-79 -51 -120 -86 -40 -36 -89 -70 -108 -76 -19 -6 -49 -20 -66 -30 -40 -24
-45 -24 -40 4 5 31 -13 65 -38 73 -61 20 -116 22 -150 5 -22 -11 -33 -11 -45
-2 -94 68 -379 137 -516 126 -38 -4 -91 -13 -116 -21 -25 -9 -52 -17 -60 -18
-8 -2 -27 -8 -42 -14 -16 -7 -31 -12 -34 -12 -15 0 -106 -78 -123 -106 -11
-16 -31 -36 -44 -44 -14 -7 -28 -25 -31 -41 -4 -15 -13 -33 -21 -40 -20 -16
-17 -164 3 -181 7 -6 13 -16 13 -23 0 -6 9 -22 20 -35 12 -13 17 -28 12 -34
-5 -6 -24 -31 -44 -56 -72 -94 -99 -202 -86 -348 8 -85 12 -210 11 -322 -1
-64 3 -230 12 -495 4 -104 7 -228 6 -275 0 -47 0 -164 0 -260 1 -96 1 -182 1
-190 -8 -343 -9 -806 -3 -818 17 -33 31 -89 31 -120 0 -18 5 -32 10 -32 6 0
10 -5 10 -11 0 -38 164 -141 285 -179 49 -16 335 -15 415 1 30 6 66 12 80 14
14 1 45 11 70 22 25 11 63 26 85 34 39 13 104 54 117 74 3 5 16 21 28 35 11
13 31 40 42 60 12 19 25 37 28 40 3 3 6 16 6 30 1 14 6 57 12 95 11 71 14 176
13 560 0 116 0 287 0 380 1 261 0 326 -5 333 -2 4 -7 59 -11 122 -4 63 -8 131
-10 150 -5 53 -14 177 -20 255 -3 39 -7 81 -9 95 -5 34 -15 133 -21 205 -2 33
-4 121 -4 195 0 190 1 184 -16 196 -8 6 -15 19 -15 28 0 10 -5 26 -11 38 -12
23 -96 105 -113 111 -6 2 5 21 25 41 31 31 40 35 60 28 47 -18 186 17 189 48
0 3 4 11 9 18 7 11 21 7 70 -19 33 -18 61 -36 61 -41 0 -4 13 -8 29 -8 16 0
34 -7 41 -15 7 -8 18 -15 24 -15 7 0 20 -6 29 -12 13 -10 15 -20 8 -49 -12
-51 4 -82 88 -167 70 -71 71 -73 57 -100 -8 -16 -14 -51 -13 -83 3 -81 40
-123 149 -169 l83 -36 8 -69 c19 -167 82 -224 238 -213 52 4 69 2 69 -8 0 -19
48 -72 73 -79 12 -4 40 -15 62 -25 43 -20 114 -33 181 -34 30 0 51 7 77 27 42
32 91 100 100 138 6 25 88 89 113 89 23 0 80 136 88 210 2 25 5 60 5 78 1 21
6 32 15 32 20 0 58 53 84 116 21 50 29 141 18 211 -5 34 -49 128 -72 154 -11
12 -12 27 -4 69 15 80 11 189 -8 237 -45 111 -124 177 -205 171 l-42 -3 -1 50
c-2 163 -68 214 -299 230 -38 2 -81 1 -95 -4z m116 -72 c188 -33 208 -51 209
-186 0 -47 5 -87 11 -93 8 -8 27 -9 64 -2 46 8 59 7 91 -10 41 -21 84 -77 99
-129 15 -50 12 -140 -5 -189 -21 -59 -19 -85 9 -113 47 -47 66 -101 68 -190 2
-70 -1 -88 -22 -125 -20 -36 -32 -45 -68 -55 -52 -14 -71 -40 -48 -66 18 -20
22 -129 6 -159 -5 -9 -17 -34 -26 -55 -10 -22 -29 -44 -43 -50 -25 -12 -57
-35 -92 -69 -10 -9 -23 -35 -29 -58 -6 -23 -27 -59 -47 -81 l-36 -40 -66 7
c-36 4 -97 19 -136 35 -59 23 -72 32 -81 59 -17 50 -41 72 -77 69 -18 -2 -38
-7 -45 -12 -19 -15 -119 -3 -141 17 -23 21 -44 99 -36 136 4 16 0 43 -9 64
-15 35 -57 61 -171 105 -63 25 -84 95 -49 163 21 40 10 65 -57 135 -30 32 -65
73 -78 90 -21 30 -21 34 -7 55 27 38 20 64 -26 96 -46 30 -110 62 -126 62 -5
0 -33 16 -61 35 -28 19 -55 35 -61 35 -5 0 -10 4 -10 9 0 5 -13 14 -30 20 -23
7 -30 16 -30 35 0 16 6 26 15 26 8 0 15 4 15 10 0 5 3 9 8 8 13 -3 72 13 72
20 0 4 15 13 33 21 17 8 34 17 37 21 17 21 155 132 181 145 41 22 82 22 123 0
38 -21 62 -15 75 17 15 37 60 78 85 78 13 0 40 -7 60 -15 21 -9 72 -18 115
-22 l78 -6 7 27 c11 44 73 105 125 120 58 18 55 18 127 5z m-1755 -205 c8 -5
39 -11 69 -15 59 -7 201 -54 210 -69 3 -5 20 -10 38 -12 20 -1 33 -8 34 -18 3
-36 6 -55 7 -60 1 -3 4 -38 7 -79 3 -61 1 -78 -16 -101 -11 -16 -20 -31 -20
-34 0 -13 -37 -49 -75 -74 -51 -34 -102 -53 -140 -53 -47 0 -55 -13 -48 -83 5
-52 2 -66 -13 -84 -10 -12 -30 -22 -44 -22 -14 0 -30 -4 -36 -10 -26 -26 -230
-5 -249 26 -5 9 -20 28 -33 42 -12 14 -25 43 -29 65 -6 43 -42 92 -74 102 -65
21 -134 92 -148 154 -15 67 1 101 89 194 63 68 136 103 275 131 67 14 174 14
196 0z m519 -114 c19 -12 22 -246 3 -262 -7 -5 -29 -7 -50 -3 l-38 6 2 72 c1
40 -3 92 -8 116 -7 31 -6 45 4 55 24 25 62 32 87 16z m-240 -530 c5 0 10 -4
10 -10 0 -5 16 -31 36 -57 44 -58 41 -83 -23 -140 -43 -39 -142 -82 -248 -109
-81 -21 -240 -20 -347 1 -80 16 -92 22 -150 71 -35 30 -66 54 -69 54 -4 0 -21
29 -39 64 l-33 64 28 36 c15 20 31 36 36 36 5 0 31 14 57 30 27 17 51 30 53
30 2 0 4 -19 4 -43 1 -69 57 -127 148 -153 84 -25 129 -30 177 -22 25 5 65 11
89 15 25 3 55 12 69 19 34 17 65 72 68 119 1 22 3 44 3 48 1 4 11 11 23 16 19
7 30 1 60 -30 21 -22 42 -39 48 -39z m-723 -336 c24 -23 160 -57 250 -63 203
-14 431 47 541 143 l22 19 1 -44 c4 -125 10 -200 19 -259 6 -36 12 -102 15
-147 4 -66 3 -83 -8 -83 -8 0 -22 -10 -33 -21 -38 -43 -95 -71 -230 -113 -93
-28 -324 -27 -464 3 -201 43 -240 58 -241 94 0 12 0 49 2 82 1 33 1 67 1 75
-1 8 -3 89 -6 180 -2 91 -7 187 -11 214 l-6 49 68 -59 c37 -32 73 -64 80 -70z
m848 -623 c-10 -84 -10 -80 -2 -306 4 -104 4 -195 0 -201 -25 -36 -200 -84
-324 -89 -37 -1 -72 -6 -78 -10 -20 -12 -179 -6 -265 10 -137 27 -254 56 -272
69 -15 11 -18 34 -20 152 -1 76 -5 201 -8 277 -3 75 -2 137 2 137 4 0 35 -7
69 -15 167 -39 220 -46 383 -52 148 -5 181 -3 214 11 21 9 47 16 57 16 19 0
69 21 174 71 53 26 60 27 68 13 6 -10 6 -45 2 -83z m6 -658 c1 -38 3 -77 4
-88 1 -11 6 -85 10 -165 4 -80 10 -188 14 -240 17 -219 -1 -477 -36 -534 -4
-6 -8 -18 -10 -26 -1 -8 -27 -38 -58 -66 -53 -49 -125 -81 -205 -90 -14 -1
-47 -7 -75 -12 -72 -15 -309 -15 -353 -1 -79 25 -138 56 -179 93 -23 22 -40
43 -37 48 3 5 -1 17 -9 26 -9 9 -16 22 -17 27 0 6 -4 26 -9 45 -12 45 -13 87
-14 310 -1 170 13 722 17 727 2 2 29 -4 62 -13 81 -21 153 -36 269 -54 58 -9
168 -4 240 9 28 6 84 12 125 14 41 3 82 7 90 10 25 8 154 45 163 46 4 0 8 -29
8 -66z"/>
<path d="M1754 3186 c-34 -25 6 -85 50 -77 5 1 35 5 65 9 55 7 56 8 57 40 1
41 -15 49 -70 34 -22 -6 -45 -8 -51 -4 -18 11 -33 10 -51 -2z"/>
<path d="M1513 2024 c-5 -13 6 -59 23 -100 3 -6 -9 -17 -25 -24 -23 -9 -32
-21 -37 -45 -10 -55 2 -73 74 -108 85 -40 102 -60 62 -70 -12 -3 -34 5 -55 19
-43 29 -90 24 -92 -9 -2 -27 14 -47 38 -47 11 0 19 -4 19 -9 0 -4 20 -14 45
-21 39 -11 50 -10 89 6 51 21 61 43 41 88 -22 49 -37 63 -97 89 -51 23 -76 42
-66 53 9 8 74 11 99 4 47 -14 77 27 50 69 -5 8 -3 24 8 42 12 22 13 33 5 46
-19 29 -71 8 -60 -24 3 -6 -2 -19 -9 -30 -13 -17 -14 -17 -29 2 -8 11 -16 35
-16 53 0 29 -3 32 -30 32 -19 0 -33 -6 -37 -16z"/>
<path d="M2020 1929 c-27 -30 -27 -34 -30 -176 -2 -89 -3 -92 -22 -82 -11 6
-41 8 -74 3 l-55 -6 4 121 c3 107 2 123 -13 131 -11 6 -23 5 -34 -3 -14 -10
-18 -33 -20 -117 -2 -58 -7 -121 -11 -140 -9 -48 9 -62 77 -60 29 0 58 1 63 1
6 0 20 -3 32 -6 17 -6 25 -1 38 24 14 27 18 30 36 20 16 -8 29 -7 51 2 16 7
58 13 91 13 77 1 92 13 88 69 -1 19 -9 19 -129 -1 -43 -7 -55 -6 -59 5 -9 22
2 25 75 25 66 -1 70 0 74 23 7 36 -9 45 -79 45 -55 0 -63 2 -63 19 0 23 59 41
142 44 47 2 58 5 58 19 0 9 5 20 10 23 8 5 8 11 0 20 -7 9 -22 10 -56 4 -53
-10 -145 -10 -159 1 -5 4 -21 -6 -35 -21z"/>
</g>
</svg>
