<?xml version="1.0" standalone="no"?>
<!DOCTYPE svg PUBLIC "-//W3C//DTD SVG 20010904//EN"
 "http://www.w3.org/TR/2001/REC-SVG-20010904/DTD/svg10.dtd">
<svg version="1.0" xmlns="http://www.w3.org/2000/svg"
 width="525.000000pt" height="365.000000pt" viewBox="0 0 525.000000 365.000000"
 preserveAspectRatio="xMidYMid meet">
<metadata>
Created by potrace 1.16, written by Peter Selinger 2001-2019
</metadata>
<g transform="translate(0.000000,365.000000) scale(0.100000,-0.100000)"
fill="#000000" stroke="none">
<path d="M3636 3363 c-4 -4 -208 -14 -386 -18 -96 -2 -220 -7 -275 -10 -151
-9 -394 -11 -445 -3 -25 3 -88 0 -140 -7 -114 -16 -199 -22 -590 -40 -47 -2
-121 -9 -165 -14 -44 -6 -113 -11 -155 -12 -134 -1 -234 -1 -305 1 -44 1 -83
-4 -105 -13 -38 -16 -40 -17 -70 -17 -11 0 -24 -8 -27 -17 -8 -20 -43 -52 -58
-53 -36 -1 -152 -158 -215 -290 -23 -47 -45 -92 -50 -100 -56 -91 -108 -178
-113 -190 -4 -8 -18 -33 -32 -55 -14 -22 -31 -51 -38 -65 -6 -14 -20 -34 -29
-44 -10 -11 -18 -25 -18 -31 0 -6 -8 -20 -18 -31 -10 -10 -21 -26 -26 -34 -4
-8 -20 -37 -36 -65 -16 -27 -37 -67 -46 -87 -9 -21 -20 -38 -24 -38 -5 0 -20
-24 -35 -52 -47 -95 -70 -134 -92 -165 -12 -17 -25 -49 -29 -72 -4 -22 -10
-41 -14 -41 -6 0 -19 -55 -20 -83 0 -4 -7 -21 -16 -39 -14 -27 -14 -37 -4 -72
7 -23 22 -49 33 -58 10 -10 16 -18 12 -18 -4 0 3 -8 16 -19 30 -23 82 -36 136
-32 38 2 42 0 47 -26 29 -151 38 -349 24 -523 -13 -165 -17 -450 -6 -505 5
-27 11 -65 14 -83 2 -18 10 -45 18 -60 7 -15 11 -32 9 -38 -4 -13 65 -73 112
-97 17 -8 64 -18 105 -22 173 -16 1184 -24 1400 -12 197 12 897 20 911 11 4
-2 10 0 13 5 3 5 56 9 118 10 61 1 116 5 121 8 5 3 46 5 91 3 44 -1 90 -2 101
-1 11 0 63 3 115 6 149 7 264 15 280 18 14 3 95 16 130 21 8 1 36 10 62 20 39
15 51 16 63 6 10 -9 15 -9 15 -1 0 6 6 11 14 11 8 0 16 7 20 15 3 8 12 15 20
15 8 0 27 20 43 45 15 25 31 45 36 45 4 0 7 4 7 9 0 6 12 23 26 38 14 15 33
42 41 58 9 17 28 46 43 65 15 19 37 55 48 80 23 49 53 102 64 110 11 9 73 104
107 165 19 33 37 62 41 65 4 3 15 28 25 55 10 28 27 63 38 78 19 28 49 82 90
162 11 22 49 83 84 136 35 54 63 101 63 106 0 5 9 19 20 31 19 20 21 35 21
244 1 123 -1 257 -4 298 -4 41 -9 115 -12 164 -3 49 -8 93 -11 97 -3 5 -4 41
-4 81 1 40 1 82 1 94 0 11 8 29 17 40 41 43 136 223 147 277 4 18 13 42 21 54
19 30 30 155 16 190 -6 15 -13 45 -16 65 -11 75 -46 129 -111 168 -98 60 -165
71 -446 73 -134 1 -249 5 -255 9 -6 4 -14 5 -17 2 -5 -6 -412 -6 -500 -1 -21
1 -39 1 -41 0z m1089 -145 c28 -7 54 -11 59 -9 17 4 61 -20 79 -45 10 -13 20
-46 22 -72 2 -26 7 -64 10 -84 8 -45 -12 -106 -67 -197 -21 -34 -38 -65 -38
-68 0 -11 -84 -170 -116 -221 -19 -29 -34 -55 -34 -57 0 -5 -11 -18 -50 -62
-11 -13 -20 -29 -20 -37 0 -7 -7 -19 -15 -26 -8 -7 -15 -17 -15 -22 0 -6 -13
-30 -30 -55 -16 -24 -30 -50 -30 -58 0 -8 -4 -17 -10 -20 -5 -3 -10 -14 -10
-24 0 -9 -8 -26 -17 -37 -10 -10 -25 -32 -33 -48 -38 -73 -199 -286 -233 -309
-30 -19 -131 -37 -213 -37 -132 0 -403 -10 -464 -16 -36 -3 -211 -8 -390 -9
-292 -3 -564 -11 -660 -20 -19 -2 -99 -6 -178 -9 -78 -3 -146 -7 -150 -10 -4
-2 -79 -7 -165 -10 -87 -3 -162 -8 -167 -11 -4 -3 -108 -7 -229 -10 -122 -2
-225 -6 -230 -9 -13 -9 -345 -17 -651 -17 -288 0 -436 7 -477 22 -24 9 -31 43
-13 54 6 4 8 10 5 15 -3 5 -1 11 5 15 5 3 10 16 10 29 0 12 3 26 7 30 4 3 8
16 10 28 2 12 12 37 23 56 11 18 20 40 20 48 0 8 9 24 20 36 11 12 20 28 20
35 0 7 4 13 9 13 5 0 15 15 22 33 7 17 23 47 36 65 12 18 36 62 53 97 17 35
37 69 45 75 8 7 15 19 15 26 0 8 20 40 44 71 24 32 65 99 91 148 26 50 56 102
66 117 11 14 19 31 19 36 0 6 16 29 35 52 19 23 35 48 35 56 0 8 3 14 8 14 4
0 16 17 27 38 11 20 30 48 42 62 13 14 23 29 23 33 0 10 52 81 63 85 4 2 7 9
7 15 0 17 79 100 115 122 21 13 52 19 108 20 43 1 80 -1 82 -4 1 -3 32 -5 67
-3 34 1 110 4 168 6 180 6 341 16 435 28 148 17 129 17 985 17 245 0 492 2
550 5 58 3 236 8 395 12 160 4 291 7 292 8 1 1 121 3 265 4 173 1 280 -3 313
-10z m-20 -908 c-2 -11 1 -22 6 -25 5 -4 7 -10 5 -14 -3 -4 0 -40 5 -81 10
-84 13 -481 4 -520 -4 -14 -8 -44 -9 -68 -1 -24 -8 -47 -14 -51 -7 -4 -14 -22
-17 -40 -8 -65 -23 -55 -39 26 -10 51 -15 58 -37 61 -19 2 -28 -3 -37 -23 -7
-14 -12 -31 -12 -37 0 -6 -8 -18 -19 -27 -10 -9 -36 -50 -59 -91 -30 -56 -38
-80 -31 -93 12 -21 15 -106 5 -182 -11 -82 -12 -87 -23 -115 -6 -14 -9 -28 -6
-32 2 -5 0 -8 -5 -8 -11 0 -35 105 -36 161 -1 32 -5 41 -23 45 -35 9 -56 1
-58 -23 -1 -13 -9 -31 -18 -41 -9 -10 -17 -24 -17 -30 0 -7 -3 -12 -7 -12 -5
0 -21 -21 -38 -47 -28 -46 -30 -52 -32 -175 -1 -78 -8 -146 -17 -178 -8 -28
-13 -57 -10 -64 11 -30 -74 -161 -92 -143 -8 8 -8 282 -1 294 3 5 8 67 12 138
4 72 11 156 16 187 5 32 9 75 9 95 -1 21 2 63 5 93 4 30 6 110 6 176 0 115 2
122 22 132 12 7 40 23 62 37 22 14 49 30 60 36 11 6 36 31 55 57 19 26 37 49
40 52 3 3 13 21 22 40 25 49 39 70 75 114 6 7 9 17 6 20 -4 3 1 6 10 6 9 0 18
12 22 30 4 16 11 32 16 36 6 3 32 51 60 107 65 132 146 239 134 177z m-677
-690 c26 0 27 -2 31 -68 5 -100 -1 -277 -12 -342 -8 -49 -16 -146 -23 -280 -3
-63 -8 -129 -11 -145 -4 -17 -7 -113 -7 -215 -1 -102 -5 -193 -10 -202 -5 -12
-20 -18 -42 -18 -22 0 -37 -6 -40 -15 -4 -8 -13 -15 -21 -15 -8 0 -29 -6 -46
-14 -21 -9 -89 -17 -197 -21 -91 -3 -206 -8 -256 -11 l-90 -5 -16 33 c-49 100
-80 176 -82 195 0 13 -5 23 -10 23 -4 0 -6 13 -4 29 3 24 -1 32 -24 46 -17 10
-36 14 -46 9 -23 -10 -35 -12 -125 -24 -43 -5 -82 -12 -86 -15 -5 -2 -29 -46
-54 -97 -24 -51 -59 -110 -76 -131 -16 -21 -33 -48 -36 -58 -7 -22 -44 -40
-90 -45 -16 -1 -49 -5 -72 -9 -35 -5 -43 -3 -43 9 0 9 -4 16 -8 16 -10 0 -34
65 -38 100 -2 14 -6 41 -10 60 -4 19 -8 54 -8 77 -1 23 -4 45 -8 49 -4 4 -42
5 -85 4 -43 -2 -110 -2 -149 -1 -67 2 -73 1 -93 -25 -12 -15 -24 -39 -28 -53
-3 -14 -18 -44 -33 -66 -14 -22 -33 -56 -40 -75 -8 -19 -23 -49 -34 -66 -19
-30 -24 -32 -100 -38 -113 -8 -178 -8 -172 3 3 4 1 21 -4 37 -43 128 -61 208
-56 237 13 70 -27 82 -211 66 -130 -11 -138 -15 -156 -60 -9 -22 -16 -42 -17
-44 -5 -21 -36 -85 -52 -108 -11 -15 -28 -51 -38 -80 -18 -51 -19 -52 -57 -50
-21 1 -143 3 -270 5 -128 2 -233 6 -233 9 0 3 -14 6 -30 6 -31 0 -74 18 -98
41 -7 6 -17 12 -21 12 -13 0 -30 47 -25 68 3 10 -2 26 -11 36 -18 18 -20 91
-9 471 2 99 6 280 7 402 2 215 3 223 22 224 52 2 277 0 425 -4 91 -3 185 -2
210 2 25 4 63 3 85 -3 56 -13 290 -16 328 -5 44 14 257 12 308 -1 53 -14 305
-16 340 -2 14 6 54 8 89 6 49 -3 67 -1 81 12 12 10 48 19 101 25 46 5 112 12
148 17 36 5 112 10 169 11 58 1 107 4 110 5 3 2 73 7 154 10 82 4 154 9 160
11 34 12 384 36 527 36 91 0 188 4 215 8 28 5 56 7 63 5 8 -2 26 -4 40 -4z
m578 -185 c8 -33 -1 -69 -33 -132 -30 -59 -38 -64 -47 -30 -14 52 -3 90 44
165 19 29 28 28 36 -3z m-272 -401 c12 -32 27 -147 19 -153 -4 -3 -26 -32 -47
-64 -21 -32 -43 -60 -47 -63 -5 -3 -7 42 -5 101 4 95 7 110 33 150 30 49 38
53 47 29z m-1195 -571 c15 -45 38 -101 51 -125 6 -10 10 -26 10 -36 0 -10 5
-23 11 -29 9 -9 -1 -12 -38 -11 -28 0 -83 -5 -124 -11 -41 -6 -109 -12 -152
-15 -96 -6 -103 4 -55 71 19 27 39 63 46 80 6 18 23 50 39 70 15 21 28 39 28
40 1 1 32 5 71 9 38 4 71 8 73 10 9 8 27 -17 40 -53z m-1549 22 c11 -4 20 -15
20 -25 0 -10 11 -65 25 -122 14 -57 25 -109 25 -115 0 -10 -42 -13 -167 -14
-188 -1 -236 0 -241 5 -4 4 41 100 69 146 11 19 22 42 24 51 7 36 31 59 69 66
55 11 153 15 176 8z m810 -32 c6 -7 26 -93 45 -188 3 -16 -1 -21 -18 -22 -228
-9 -357 -12 -357 -8 0 3 25 54 56 115 48 93 60 109 83 112 49 6 183 0 191 -9z"/>
<path d="M4320 3142 c-14 -2 -59 -10 -100 -19 -61 -13 -156 -17 -495 -19 -516
-4 -936 -11 -1075 -19 -94 -6 -915 -10 -1145 -6 -113 1 -215 -7 -230 -19 -6
-5 -28 -7 -49 -3 -20 3 -47 1 -59 -5 -12 -5 -49 -22 -81 -37 -36 -16 -80 -48
-113 -81 -29 -29 -53 -56 -53 -58 0 -2 -20 -38 -45 -80 -44 -74 -105 -197
-105 -213 -1 -4 -9 -26 -20 -48 -11 -22 -19 -45 -20 -52 0 -7 -11 -28 -24 -47
-12 -19 -33 -61 -46 -93 -13 -32 -29 -65 -36 -73 -7 -8 -25 -42 -41 -75 -25
-52 -57 -102 -118 -180 -48 -62 -83 -132 -98 -194 -21 -86 -13 -113 37 -128
46 -14 89 -11 211 16 55 12 125 27 155 33 58 11 1440 25 1720 17 8 -1 94 2
190 5 155 6 223 10 310 22 25 3 241 10 660 19 323 7 335 9 378 42 47 35 78 70
99 108 9 17 19 32 23 35 4 3 29 43 55 90 26 47 55 96 64 110 9 14 31 57 50 95
87 177 129 257 176 330 60 92 126 232 155 324 20 65 21 78 10 112 -18 54 -66
75 -199 83 -57 4 -107 8 -110 9 -3 2 -17 1 -31 -1z m70 -83 c45 -10 138 -21
175 -20 11 0 23 -5 27 -12 10 -16 10 -57 0 -57 -5 0 -9 -6 -10 -12 -3 -41 -33
-127 -48 -143 -8 -8 -13 -15 -10 -15 9 0 -74 -146 -111 -196 -18 -24 -71 -126
-129 -249 -29 -62 -64 -125 -129 -233 -28 -46 -56 -95 -64 -110 -21 -43 -92
-111 -120 -117 -14 -3 -129 -7 -254 -10 -125 -2 -232 -7 -236 -9 -4 -3 -93 -6
-197 -7 -104 0 -245 -8 -314 -16 -96 -12 -269 -17 -755 -20 -346 -2 -659 -4
-695 -5 -55 -1 -118 -1 -365 1 -11 0 -78 2 -150 4 -71 2 -146 0 -165 -4 -19
-4 -53 -9 -75 -12 -22 -2 -56 -9 -75 -15 -42 -13 -197 -42 -227 -42 -12 0 -25
5 -28 10 -15 23 9 95 52 158 25 37 67 99 92 137 53 79 182 337 261 523 29 67
56 122 61 122 5 0 9 5 9 11 0 22 72 127 125 183 45 46 71 63 88 55 1 -1 19 6
40 14 22 10 50 14 67 11 16 -4 44 -1 62 5 42 15 130 26 188 24 146 -5 1031 -3
1225 2 338 10 743 18 800 17 269 -6 604 4 735 23 52 7 97 13 100 14 3 0 25 -4
50 -10z"/>
<path d="M3485 2803 c-14 -33 -12 -53 6 -53 9 0 19 -7 23 -15 3 -9 0 -15 -8
-15 -8 0 -21 -3 -30 -6 -10 -4 -16 -1 -16 9 0 15 -20 27 -44 27 -13 0 -36 -41
-36 -65 0 -43 63 -57 137 -29 43 17 63 48 63 100 0 48 -78 86 -95 47z"/>
<path d="M1680 2730 c-8 -5 -100 -10 -205 -10 -210 0 -231 -3 -238 -31 -10
-36 15 -46 100 -42 43 2 84 5 91 8 6 2 12 3 12 2 0 -10 -147 -289 -169 -322
-15 -22 -40 -58 -54 -80 -15 -22 -31 -45 -35 -50 -5 -6 -11 -23 -14 -38 -4
-20 0 -30 18 -41 26 -18 32 -13 62 56 11 26 36 69 54 95 18 26 56 94 85 151
79 154 128 222 161 222 15 1 66 3 115 7 49 3 87 1 87 -4 0 -5 11 -10 26 -11
20 -1 28 5 39 31 13 30 12 33 -8 49 -24 19 -102 24 -127 8z"/>
<path d="M2320 2569 c0 -6 -6 -9 -14 -6 -8 3 -20 0 -26 -8 -6 -7 -25 -16 -43
-19 -19 -3 -58 -22 -88 -41 l-54 -34 -8 30 c-9 34 -41 40 -56 10 -11 -21 -60
-41 -98 -41 -16 0 -27 -8 -33 -26 -14 -35 1 -52 40 -46 16 2 30 0 30 -5 0 -5
-18 -44 -40 -86 -43 -81 -49 -117 -24 -138 14 -11 19 -10 35 10 11 13 19 29
19 36 0 14 39 65 115 151 47 53 156 115 223 128 19 3 44 14 58 25 l24 19 -25
26 c-26 28 -35 32 -35 15z"/>
<path d="M3355 2556 c-23 -34 -80 -59 -120 -53 -43 7 -70 -20 -61 -59 6 -24
10 -26 46 -20 21 3 45 9 54 12 15 6 -34 -94 -81 -163 -23 -35 -19 -83 7 -83
29 0 50 11 50 26 0 22 86 186 120 229 17 21 33 50 36 64 3 14 7 31 8 36 3 10
-23 34 -36 35 -4 0 -15 -11 -23 -24z"/>
<path d="M3020 2560 c0 -5 -8 -10 -17 -10 -10 0 -31 -7 -47 -15 -15 -8 -33
-15 -38 -15 -5 0 -21 -9 -35 -20 l-26 -20 -19 30 c-31 52 -54 56 -141 22 -75
-29 -76 -29 -79 -8 -5 33 -36 31 -70 -3 -17 -17 -49 -36 -72 -42 -22 -6 -48
-14 -56 -19 -40 -20 -10 -75 35 -64 14 3 25 4 25 2 0 -2 -20 -30 -45 -63 -25
-33 -45 -64 -45 -68 0 -5 -7 -16 -16 -24 -14 -15 -14 -66 0 -81 12 -11 50 25
90 86 43 64 176 202 194 202 5 0 22 6 38 14 16 8 41 18 56 21 24 6 28 3 34
-21 4 -15 3 -33 -2 -39 -5 -7 -26 -39 -48 -71 -21 -33 -41 -61 -45 -64 -7 -6
-27 -37 -42 -67 -7 -12 -9 -29 -6 -37 14 -35 77 -4 92 45 14 42 114 161 173
205 58 42 115 63 126 45 10 -15 -23 -100 -64 -165 -48 -76 -57 -108 -35 -126
13 -11 19 -9 40 10 14 13 25 29 25 36 0 6 21 49 46 94 67 119 72 189 15 223
-33 20 -41 21 -41 7z"/>
<path d="M3809 2549 c-13 -12 -35 -29 -49 -38 -14 -8 -49 -35 -78 -58 -29 -24
-54 -43 -56 -43 -2 0 -1 19 1 43 4 32 0 48 -14 66 l-20 24 -22 -22 c-17 -17
-21 -29 -16 -53 4 -16 4 -49 1 -72 -6 -37 -12 -44 -53 -66 -26 -14 -53 -24
-60 -22 -7 2 -13 -2 -13 -8 0 -5 -7 -10 -15 -10 -8 0 -14 -3 -13 -7 1 -5 -3
-18 -10 -30 -11 -20 -9 -24 12 -38 28 -19 46 -13 106 37 42 34 56 35 64 5 8
-34 55 -77 82 -77 65 0 183 50 214 90 3 4 10 9 16 11 6 2 48 38 93 81 62 57
82 83 84 105 2 22 -3 29 -21 31 -22 3 -52 -18 -52 -37 0 -5 -27 -37 -59 -69
-109 -110 -244 -169 -283 -125 -8 10 -19 28 -23 41 -5 18 -1 25 24 40 17 9 31
20 31 24 0 4 47 39 105 78 58 40 105 77 105 84 0 17 -21 36 -40 36 -10 0 -28
-10 -41 -21z"/>
<path d="M1650 2472 c-103 -33 -154 -66 -192 -127 -48 -77 -31 -150 42 -179
36 -14 56 -15 151 -6 60 6 113 9 118 5 12 -7 51 30 51 48 0 23 -21 36 -44 27
-12 -4 -48 -11 -79 -15 -51 -7 -57 -5 -57 11 0 10 36 55 80 100 44 45 80 79
80 77 0 -3 7 0 15 7 20 17 19 36 -5 60 -26 26 -56 24 -160 -8z m10 -109 c-36
-37 -68 -70 -72 -73 -3 -3 -10 -18 -13 -33 -10 -37 -19 -41 -54 -23 -25 13
-29 21 -26 48 8 63 100 124 225 147 2 1 -25 -29 -60 -66z"/>
<path d="M858 833 c7 -3 16 -2 19 1 4 3 -2 6 -13 5 -11 0 -14 -3 -6 -6z"/>
</g>
</svg>
