<?xml version="1.0" standalone="no"?>
<!DOCTYPE svg PUBLIC "-//W3C//DTD SVG 20010904//EN"
 "http://www.w3.org/TR/2001/REC-SVG-20010904/DTD/svg10.dtd">
<svg version="1.0" xmlns="http://www.w3.org/2000/svg"
 width="521.000000pt" height="455.000000pt" viewBox="0 0 521.000000 455.000000"
 preserveAspectRatio="xMidYMid meet">
<metadata>
Created by potrace 1.16, written by Peter Selinger 2001-2019
</metadata>
<g transform="translate(0.000000,455.000000) scale(0.100000,-0.100000)"
fill="#000000" stroke="none">
<path d="M4430 4420 c-19 -4 -51 -14 -70 -23 -41 -18 -130 -102 -130 -123 0
-8 -4 -14 -9 -14 -4 0 -11 -32 -15 -72 -3 -39 -8 -74 -11 -76 -2 -2 -31 6 -65
17 -85 30 -195 29 -282 -2 -36 -13 -64 -30 -121 -77 -28 -22 -30 -23 -23 -5
23 62 34 137 24 168 -24 70 -66 114 -151 159 -45 24 -54 26 -72 14 -11 -7 -25
-23 -31 -35 -17 -33 -19 -33 -59 -17 -66 28 -77 21 -100 -61 -4 -14 -17 -24
-36 -28 -31 -7 -89 -79 -89 -110 0 -9 -14 -34 -31 -55 -28 -34 -30 -43 -24
-82 4 -24 13 -55 20 -71 13 -25 12 -30 -11 -52 -36 -36 -33 -86 7 -120 18 -14
45 -29 61 -32 40 -8 43 -19 9 -32 -22 -9 -30 -22 -38 -56 -11 -47 2 -81 38
-103 26 -17 135 -34 206 -32 62 1 103 -11 103 -31 0 -27 99 -119 146 -136 104
-37 139 -42 197 -28 56 13 57 13 63 -9 10 -39 -16 -187 -37 -214 -24 -32 -24
-34 7 -71 25 -30 45 -34 72 -17 7 4 19 3 26 -3 7 -6 29 -8 49 -4 34 5 37 4 30
-13 -6 -17 -5 -17 10 -6 9 8 20 12 24 9 15 -9 50 11 56 33 4 16 -3 26 -32 46
-25 16 -44 22 -56 18 -15 -6 -17 -4 -11 12 35 84 46 132 47 201 1 43 6 84 12
91 6 8 5 12 -4 13 -23 1 43 19 87 23 50 5 58 0 62 -39 4 -42 32 -76 85 -103
40 -21 50 -23 81 -12 19 6 53 29 75 51 23 21 50 39 60 39 11 0 23 5 26 10 3 6
25 19 49 29 40 19 129 91 112 91 -5 0 -2 10 7 23 17 26 16 118 -2 182 -6 22
-11 57 -11 78 0 21 -13 69 -29 105 -41 98 -44 104 -48 134 -4 24 0 28 34 37
21 5 56 13 78 17 47 7 85 29 85 47 0 28 -46 55 -112 67 -38 7 -69 16 -69 21
-1 5 -3 14 -4 19 -1 6 -3 30 -4 54 -1 60 -57 129 -116 144 -59 16 -106 19
-145 12z m134 -101 c37 -29 44 -52 34 -113 -8 -50 -3 -87 10 -85 25 4 52 -3
52 -12 0 -8 -14 -10 -39 -6 -33 4 -40 2 -49 -17 -7 -16 -6 -27 4 -41 8 -10 14
-32 14 -47 0 -16 16 -59 35 -96 38 -73 68 -206 69 -302 0 -44 -5 -61 -25 -84
-36 -43 -57 -62 -82 -73 -12 -6 -48 -23 -79 -38 -32 -14 -58 -32 -58 -39 0 -7
-9 -21 -19 -30 -18 -16 -20 -16 -45 7 -18 17 -25 33 -24 52 3 29 21 41 96 65
62 20 68 30 64 129 -2 47 -4 97 -4 111 0 14 9 50 21 80 35 85 38 103 27 132
-8 21 -17 28 -37 28 -36 0 -57 -28 -56 -72 1 -20 -10 -59 -23 -88 -22 -48 -23
-55 -12 -118 13 -77 8 -86 -66 -129 -30 -18 -62 -26 -110 -30 -37 -2 -83 -8
-102 -13 -19 -4 -42 -8 -51 -7 -29 1 -78 -24 -81 -41 -2 -10 -1 -42 3 -72 3
-30 3 -62 -2 -70 -5 -10 -8 1 -9 32 0 26 -4 50 -10 53 -5 3 -10 15 -10 25 0
25 -39 51 -66 44 -12 -3 -27 -16 -34 -29 -15 -28 -75 -59 -93 -48 -6 4 -23 9
-37 11 -54 7 -127 49 -141 81 -8 17 -17 31 -20 31 -3 0 -14 30 -24 68 -20 75
-33 91 -70 84 -32 -6 -53 -40 -34 -53 11 -7 11 -9 1 -9 -7 0 -10 -4 -7 -10 8
-14 -63 -13 -141 2 -52 9 -64 15 -64 30 0 11 5 16 10 13 6 -3 10 -1 10 6 0 8
15 9 53 5 45 -6 54 -4 64 13 10 16 10 26 1 46 -13 29 -114 93 -159 102 -29 6
-41 33 -15 33 24 0 46 -12 40 -21 -3 -5 13 -9 35 -9 42 0 62 18 54 50 -2 9
-26 30 -52 45 -53 33 -78 60 -83 95 -5 40 30 38 68 -4 37 -41 77 -48 94 -16
10 18 3 29 -49 84 -34 34 -61 67 -61 73 0 6 7 17 16 24 13 11 17 11 24 -1 5
-8 18 -26 29 -39 11 -13 23 -32 26 -42 7 -22 33 -28 63 -15 19 8 21 14 16 45
-4 20 -12 42 -17 50 -13 15 -37 80 -37 99 0 22 19 13 35 -18 8 -16 15 -39 15
-52 0 -38 27 -68 61 -68 33 0 31 -4 29 119 -1 67 0 73 17 67 44 -17 84 -53 92
-84 11 -39 9 -56 -23 -153 -30 -91 -41 -186 -25 -205 33 -40 103 8 138 94 8
18 26 39 41 47 14 7 32 20 39 29 20 24 105 47 174 48 48 0 75 -6 113 -25 48
-24 108 -80 97 -90 -3 -3 12 -9 32 -13 30 -5 41 -3 57 14 18 18 19 24 8 57
-17 52 -13 179 7 218 19 38 29 48 78 81 50 35 139 37 179 5z m-531 -1101 c-7
-54 -19 -39 -14 18 2 29 6 42 11 33 4 -8 5 -31 3 -51z"/>
<path d="M4462 4240 c-26 -24 -25 -22 -10 -55 6 -14 19 -25 29 -25 9 0 20 -6
22 -12 3 -8 6 -6 6 4 1 9 8 21 17 26 15 8 15 12 -1 46 -20 41 -32 44 -63 16z"/>
<path d="M2957 3100 c-48 -9 -87 -15 -87 -13 0 5 -102 -48 -110 -57 -3 -3 -45
-25 -95 -50 -49 -24 -133 -73 -185 -108 -287 -194 -531 -261 -760 -207 -64 15
-132 7 -203 -23 -38 -16 -75 -39 -83 -51 -8 -11 -21 -21 -28 -21 -7 0 -18 -10
-25 -23 -16 -30 -116 -97 -213 -141 -42 -20 -81 -36 -85 -36 -15 0 -138 -54
-165 -72 -14 -10 -31 -18 -37 -18 -6 0 -19 -4 -29 -9 -9 -5 -31 -15 -48 -21
-30 -11 -54 -45 -54 -75 0 -8 -7 -15 -15 -15 -8 0 -19 -10 -26 -21 -9 -18 -7
-25 10 -42 20 -20 21 -20 73 -2 45 15 63 16 108 7 51 -10 217 -63 238 -76 19
-12 -13 -79 -52 -107 -33 -25 -45 -28 -95 -24 -63 4 -88 11 -114 33 -9 8 -20
12 -23 9 -4 -3 -26 5 -49 18 -23 14 -49 25 -58 25 -10 0 -17 5 -17 10 0 6 -8
10 -17 10 -10 0 -45 14 -78 30 -33 16 -68 30 -78 30 -38 0 -83 -29 -112 -71
-17 -24 -40 -52 -53 -62 -12 -10 -29 -31 -36 -45 -8 -15 -35 -49 -60 -77 -25
-27 -45 -53 -46 -56 0 -4 -12 -20 -27 -36 -16 -17 -35 -43 -43 -59 -8 -16 -23
-41 -33 -56 -10 -16 -16 -28 -13 -28 3 0 1 -12 -5 -27 -6 -16 -20 -64 -31
-108 -11 -44 -26 -91 -33 -105 -34 -69 -53 -221 -34 -277 7 -21 13 -45 14 -53
1 -8 7 -27 13 -41 6 -15 12 -34 14 -44 2 -10 14 -30 28 -45 14 -15 42 -47 63
-70 21 -23 52 -48 70 -56 18 -8 52 -26 76 -39 24 -14 50 -25 57 -25 36 0 202
-69 242 -101 13 -10 47 -25 75 -35 50 -16 107 -43 117 -55 3 -3 46 -19 95 -34
50 -16 92 -32 95 -36 3 -4 37 -20 75 -35 39 -15 79 -34 91 -41 11 -7 24 -10
27 -6 4 3 7 2 7 -4 0 -6 11 -14 24 -17 14 -3 39 -18 57 -33 18 -16 33 -27 33
-25 1 5 34 -8 93 -34 28 -13 58 -24 65 -24 8 0 18 -4 23 -9 12 -10 129 -40
182 -46 118 -13 268 -18 513 -18 l275 0 115 38 c63 21 138 48 165 60 42 19
197 115 230 142 6 5 26 18 45 30 20 12 49 33 64 47 16 13 41 30 55 38 14 7 32
19 39 26 7 6 18 12 24 12 15 0 108 62 108 72 0 4 8 8 18 8 10 0 23 5 28 10 15
15 51 23 124 26 36 1 72 5 80 8 8 3 45 10 82 15 38 5 93 21 124 35 69 32 76
32 158 1 37 -14 81 -25 99 -25 20 0 53 -12 80 -30 26 -16 50 -30 52 -30 8 0
103 -70 107 -78 5 -11 104 -62 121 -62 8 0 17 -5 19 -11 10 -29 266 -56 283
-29 3 6 15 10 26 10 10 0 19 3 19 8 0 4 13 15 29 24 21 11 32 27 36 51 6 28
14 38 46 52 61 28 72 46 73 123 0 60 -3 73 -31 113 -45 66 -143 160 -183 177
-36 15 -119 36 -181 46 -20 3 -49 11 -65 17 -16 6 -51 15 -79 19 -27 5 -59 11
-70 13 -11 3 -22 6 -25 6 -3 1 -5 16 -5 34 -1 50 -14 163 -30 256 -19 108 -20
103 18 87 47 -21 69 -28 95 -32 13 -1 33 -9 45 -17 12 -8 33 -17 47 -20 14 -3
43 -10 65 -16 37 -9 122 -19 217 -26 56 -4 112 28 146 83 39 63 55 108 49 133
-4 13 5 38 24 67 16 25 29 51 29 58 0 6 7 17 15 24 10 9 12 17 5 30 -5 9 -6
21 -2 24 4 4 -1 12 -11 17 -9 6 -17 20 -17 33 0 12 -11 33 -25 46 -14 13 -25
28 -25 34 0 13 -46 30 -155 57 -70 18 -88 19 -145 8 -36 -6 -75 -18 -87 -25
-20 -13 -30 -11 -85 12 -34 14 -74 28 -88 30 -14 3 -34 9 -45 14 -11 5 -47 16
-80 25 -127 35 -246 112 -261 169 -3 14 -12 27 -20 30 -8 3 -14 12 -14 21 0 9
-7 26 -15 39 -9 13 -15 28 -13 32 1 5 -8 32 -21 59 -12 28 -29 64 -37 82 -8
18 -19 35 -24 38 -5 3 -19 25 -31 49 -12 24 -44 73 -73 109 -28 37 -67 88 -86
114 -31 42 -128 151 -155 174 -37 31 -77 58 -125 83 -30 16 -67 38 -82 48 -15
10 -43 21 -61 23 -19 3 -47 9 -62 15 -35 13 -76 11 -188 -10z m186 -121 c118
-32 303 -164 409 -293 27 -33 59 -71 69 -84 10 -12 19 -25 19 -29 0 -3 11 -21
25 -39 14 -18 25 -37 25 -42 0 -6 4 -12 8 -14 10 -4 48 -78 74 -142 11 -28 50
-113 87 -191 38 -77 80 -167 94 -200 35 -79 117 -316 117 -336 0 -8 4 -19 9
-24 5 -6 11 -31 14 -56 3 -25 12 -72 20 -105 9 -32 15 -72 15 -88 0 -16 7 -35
16 -41 16 -13 35 -125 21 -125 -12 0 -34 33 -35 50 0 9 -9 22 -20 30 -11 8
-20 18 -20 23 0 4 -18 45 -39 90 -22 46 -43 96 -47 112 -4 17 -9 35 -13 40 -3
6 -6 16 -8 24 -1 8 -15 42 -31 75 -17 34 -48 97 -69 141 -95 195 -180 283
-361 377 -88 46 -98 48 -185 52 -87 3 -170 -9 -222 -33 -18 -9 -78 -23 -90
-22 -3 0 -19 -8 -37 -19 -18 -10 -53 -28 -77 -39 -24 -12 -59 -35 -78 -52 -20
-17 -46 -35 -59 -41 -35 -16 -34 -75 2 -88 39 -15 62 -12 85 11 47 47 117 71
219 76 99 6 228 -15 258 -40 17 -14 34 -24 101 -60 53 -28 139 -108 244 -228
74 -84 76 -86 140 -210 73 -140 133 -236 186 -298 60 -71 201 -158 277 -172
33 -5 66 -12 74 -15 8 -3 34 -7 56 -9 41 -3 174 -42 184 -54 3 -3 28 -22 55
-41 97 -67 151 -132 138 -166 -6 -16 -49 -19 -58 -4 -4 6 -10 8 -15 5 -18 -11
-41 9 -59 51 -22 48 -25 50 -91 57 -38 5 -50 1 -75 -21 -19 -16 -25 -27 -17
-30 6 -2 12 -9 12 -15 0 -16 101 -117 117 -117 7 0 13 -4 13 -10 0 -5 6 -10
14 -10 19 0 9 -38 -14 -50 -39 -21 -270 33 -270 63 0 23 -51 74 -96 97 -27 14
-50 28 -52 33 -2 4 -19 7 -37 7 -18 0 -35 5 -37 11 -2 5 -10 11 -18 13 -48 9
-111 30 -116 37 -3 5 -14 9 -24 9 -17 0 -18 3 -8 25 6 14 14 25 18 25 13 0 18
53 7 77 -5 13 -18 23 -28 23 -25 0 -69 -21 -69 -33 0 -16 -79 -85 -123 -106
-58 -28 -133 -42 -257 -47 -58 -3 -112 -6 -120 -6 -81 -4 -330 13 -381 27 -35
9 -80 20 -100 26 -20 5 -46 9 -58 9 -12 0 -29 4 -39 10 -9 5 -73 28 -142 50
-238 76 -360 186 -360 324 0 85 -117 118 -135 38 -3 -16 -1 -42 6 -58 6 -16
13 -40 15 -54 7 -52 53 -135 89 -159 20 -14 53 -40 73 -58 40 -37 164 -103
193 -103 10 0 20 -4 23 -9 5 -7 22 -13 85 -27 7 -1 36 -11 65 -22 120 -46 279
-81 419 -91 l92 -6 -47 -15 c-27 -8 -48 -20 -48 -27 0 -7 -3 -13 -8 -13 -4 0
-32 -16 -61 -35 -30 -20 -60 -34 -68 -31 -7 3 -13 0 -13 -7 0 -7 -16 -19 -35
-27 -19 -8 -35 -17 -35 -22 0 -4 -13 -14 -29 -23 -26 -13 -83 -57 -143 -110
-10 -8 -18 -13 -18 -11 0 5 -38 -10 -115 -44 -42 -18 -104 -40 -133 -45 -9 -2
-17 -4 -17 -6 0 -7 -86 -10 -345 -10 l-295 -1 -170 41 c-190 46 -273 70 -295
86 -15 11 -216 110 -313 153 -26 12 -54 22 -62 22 -8 0 -15 4 -15 8 0 4 -9 8
-20 9 -17 2 -71 24 -217 89 -17 8 -33 14 -36 14 -3 0 -34 17 -68 38 -35 21
-91 49 -124 62 -33 13 -69 32 -80 42 -11 9 -38 24 -60 33 -48 20 -163 137
-171 174 -3 14 -10 41 -16 58 -11 37 -8 193 4 193 4 0 5 6 2 13 -5 15 32 169
48 200 5 10 12 31 14 45 3 15 9 28 14 30 5 2 6 10 3 18 -3 8 0 14 6 14 6 0 11
6 11 13 0 12 32 55 77 104 13 13 23 28 23 33 0 6 4 10 9 10 5 0 28 26 52 58
24 31 49 63 56 70 7 8 18 22 23 32 10 18 12 18 58 -5 60 -30 156 -62 207 -68
22 -3 75 -12 118 -21 93 -19 133 -20 192 -5 47 12 135 83 135 110 0 8 7 24 15
35 22 29 19 106 -7 158 -22 45 -38 55 -93 57 -16 0 -54 8 -84 18 l-55 18 30
11 c35 13 81 41 108 64 11 10 44 27 73 38 70 26 160 78 201 115 19 16 52 43
75 58 23 15 44 31 47 35 25 33 102 41 225 23 80 -12 254 -4 305 14 22 8 44 14
48 15 23 1 117 37 181 68 146 72 186 94 189 103 2 5 9 9 16 9 7 0 34 16 59 35
42 32 174 92 217 98 11 2 27 10 37 19 10 9 28 19 41 22 12 4 22 11 22 15 0 7
55 34 90 44 33 9 133 7 173 -4z m277 -921 c73 -18 211 -117 266 -189 28 -37
46 -69 38 -69 -4 0 -1 -6 8 -12 18 -15 107 -175 91 -165 -6 4 -37 39 -69 79
-101 126 -182 198 -289 258 -33 18 -67 39 -75 45 -15 13 -159 44 -208 46 -19
1 -13 4 23 13 56 14 147 12 215 -6z m700 -111 c19 -9 82 -29 139 -46 123 -36
133 -43 120 -77 -11 -32 -13 -27 12 -55 13 -14 23 -19 26 -13 2 7 12 10 23 7
17 -5 71 26 95 54 28 32 148 72 160 53 3 -6 17 -10 30 -10 23 0 100 -35 122
-57 15 -14 7 -98 -11 -112 -6 -5 -30 -16 -52 -24 -36 -12 -45 -12 -69 0 -17
10 -37 12 -53 7 -15 -4 -33 -8 -41 -8 -23 -2 -32 -51 -12 -67 35 -30 76 -44
123 -42 53 1 58 -5 28 -32 -25 -23 -109 -32 -141 -14 -13 7 -37 14 -53 16 -58
6 -233 72 -315 118 -14 8 -38 19 -53 24 -35 13 -73 99 -105 239 -3 12 -9 25
-14 28 -11 6 -12 37 -1 31 4 -2 23 -11 42 -20z"/>
</g>
</svg>
