<?xml version="1.0" standalone="no"?>
<!DOCTYPE svg PUBLIC "-//W3C//DTD SVG 20010904//EN"
 "http://www.w3.org/TR/2001/REC-SVG-20010904/DTD/svg10.dtd">
<svg version="1.0" xmlns="http://www.w3.org/2000/svg"
 width="471.000000pt" height="355.000000pt" viewBox="0 0 471.000000 355.000000"
 preserveAspectRatio="xMidYMid meet">
<metadata>
Created by potrace 1.16, written by Peter Selinger 2001-2019
</metadata>
<g transform="translate(0.000000,355.000000) scale(0.100000,-0.100000)"
fill="#000000" stroke="none">
<path d="M3180 3424 c-8 -1 -49 -7 -90 -14 -41 -6 -104 -17 -140 -25 -36 -7
-94 -19 -130 -26 -100 -19 -456 -142 -582 -201 -187 -87 -465 -232 -511 -265
-28 -20 -63 -44 -77 -53 -147 -83 -302 -209 -444 -358 -22 -24 -64 -67 -91
-95 -102 -105 -164 -190 -236 -322 -134 -247 -151 -303 -150 -515 1 -168 15
-287 41 -346 10 -23 21 -56 25 -73 4 -17 10 -31 15 -31 5 0 12 -10 17 -23 4
-12 25 -47 46 -77 21 -30 60 -89 88 -130 62 -95 293 -330 392 -399 12 -8 48
-29 82 -46 33 -17 69 -36 80 -42 47 -26 201 -77 267 -88 17 -3 35 -8 39 -11 7
-4 97 -18 184 -28 73 -9 183 -8 200 1 11 6 52 16 90 22 104 16 226 57 273 91
23 16 44 30 47 30 18 0 105 66 172 130 43 41 92 86 108 100 17 14 55 55 85 90
30 36 57 67 60 70 31 28 198 233 227 278 20 31 55 86 78 122 55 85 135 225
135 235 0 4 16 30 35 57 20 27 53 82 74 122 21 40 53 95 71 121 34 49 168 306
188 360 6 17 20 46 31 65 28 49 69 149 77 185 3 17 13 64 22 105 24 110 20
345 -7 465 -23 101 -55 171 -117 251 -20 27 -41 61 -46 77 -6 15 -14 27 -19
27 -6 0 -21 12 -34 26 -27 29 -124 78 -176 89 -19 4 -52 13 -74 20 -22 7 -56
16 -75 19 -38 7 -225 15 -250 10z m278 -173 c141 -47 172 -61 172 -76 0 -6 19
-26 43 -43 52 -38 117 -101 117 -114 0 -6 13 -29 29 -53 16 -24 32 -51 35 -62
3 -10 6 -92 7 -183 1 -135 -2 -180 -19 -250 -27 -113 -71 -250 -87 -276 -7
-11 -28 -59 -45 -105 -48 -125 -69 -178 -114 -284 -8 -16 -43 -66 -78 -110
-36 -44 -78 -105 -92 -135 -28 -57 -71 -121 -143 -212 -22 -29 -49 -67 -60
-85 -91 -156 -115 -193 -123 -193 -6 0 -10 -5 -10 -11 0 -7 -27 -49 -60 -96
-33 -46 -60 -87 -60 -91 0 -4 -10 -19 -23 -34 -12 -15 -33 -42 -46 -60 -13
-18 -45 -50 -70 -70 -25 -21 -77 -67 -116 -103 -90 -84 -314 -201 -403 -211
-31 -4 -63 -12 -71 -18 -9 -7 -67 -11 -155 -11 -130 0 -216 12 -306 43 -8 2
-22 6 -30 7 -8 1 -44 10 -80 20 -111 31 -178 71 -266 159 -78 78 -130 125
-241 218 -54 45 -113 114 -113 130 0 6 -9 22 -20 38 -11 15 -17 29 -14 32 2 3
-2 11 -11 18 -8 7 -15 19 -15 26 0 8 -4 14 -9 14 -13 0 -50 83 -66 148 -8 31
-17 93 -20 137 -4 44 -8 82 -10 85 -8 13 -8 168 -1 220 17 127 73 278 132 360
14 19 33 46 42 59 9 13 26 35 38 50 12 14 30 42 40 63 17 31 110 146 139 169
6 5 26 23 45 40 19 17 55 47 80 67 25 20 52 43 60 53 8 9 45 37 81 63 37 25
72 53 80 62 7 8 31 25 53 36 23 11 43 24 46 28 13 18 225 150 242 150 10 0 18
4 18 8 0 5 33 23 73 42 39 19 79 39 87 46 8 6 58 26 110 44 52 18 103 37 114
42 10 6 57 23 104 40 47 16 104 38 126 49 23 11 57 24 76 29 19 5 69 18 110
30 41 11 84 21 95 23 11 2 27 7 35 10 58 24 195 54 234 53 26 -1 50 2 52 6 3
4 37 8 76 8 55 0 95 -8 186 -39z"/>
</g>
</svg>
