<?xml version="1.0" standalone="no"?>
<!DOCTYPE svg PUBLIC "-//W3C//DTD SVG 20010904//EN"
 "http://www.w3.org/TR/2001/REC-SVG-20010904/DTD/svg10.dtd">
<svg version="1.0" xmlns="http://www.w3.org/2000/svg"
 width="503.000000pt" height="461.000000pt" viewBox="0 0 503.000000 461.000000"
 preserveAspectRatio="xMidYMid meet">
<metadata>
Created by potrace 1.16, written by Peter Selinger 2001-2019
</metadata>
<g transform="translate(0.000000,461.000000) scale(0.100000,-0.100000)"
fill="#000000" stroke="none">
<path d="M1406 4578 c-40 -5 -74 -14 -80 -23 -6 -7 -34 -23 -63 -33 -29 -11
-75 -34 -102 -51 -28 -17 -66 -37 -86 -45 -38 -16 -123 -83 -164 -130 -14 -16
-56 -60 -93 -97 -63 -62 -158 -194 -158 -218 0 -6 -4 -11 -8 -11 -7 0 -36 -48
-106 -172 -14 -26 -26 -54 -26 -62 0 -9 -4 -16 -8 -16 -18 0 -47 -161 -46
-255 1 -34 10 -67 29 -105 26 -51 63 -109 76 -120 3 -3 8 -10 10 -16 6 -16
122 -144 201 -222 37 -36 70 -73 73 -83 3 -10 14 -20 23 -23 9 -3 71 -58 137
-121 65 -63 121 -115 123 -115 7 0 223 -211 277 -270 137 -150 174 -182 228
-196 82 -22 177 -36 240 -35 l57 1 1 -52 c1 -29 1 -59 0 -66 -2 -8 5 -29 13
-48 9 -19 23 -49 32 -68 9 -19 25 -41 37 -49 12 -8 67 -58 122 -111 55 -52
106 -101 113 -108 8 -7 66 -67 130 -134 64 -66 137 -136 162 -154 25 -19 47
-37 50 -41 14 -18 102 -58 160 -72 47 -12 92 -15 160 -11 125 6 137 8 146 16
4 5 19 8 33 8 14 0 37 6 51 14 14 7 47 25 73 40 26 14 62 39 80 56 l32 30 13
-54 c10 -41 19 -56 35 -60 24 -6 62 28 51 46 -3 5 -8 24 -11 41 -6 36 -17 46
-53 47 -24 1 -24 1 -5 12 40 22 141 137 170 194 17 33 38 67 48 76 9 10 17 26
17 35 0 9 6 24 13 32 16 19 60 208 52 221 -3 5 -1 11 4 14 8 6 7 29 -5 116 -8
60 -49 156 -80 186 -13 14 -24 28 -24 32 0 10 -96 112 -105 112 -8 0 -57 47
-274 263 -84 83 -133 123 -168 138 -124 53 -113 42 -113 119 0 77 -17 214 -30
245 -5 11 -16 43 -25 72 -19 62 -67 125 -129 173 -25 19 -48 42 -51 50 -3 8
-21 26 -41 39 -43 30 -130 114 -166 161 -15 19 -47 51 -72 70 -25 19 -45 41
-46 48 0 6 -4 12 -9 12 -5 0 -63 55 -128 121 -65 67 -158 160 -207 208 -119
116 -216 213 -216 219 0 2 -18 23 -40 46 -38 40 -167 113 -235 133 -16 5 -61
5 -99 1z m83 -110 c20 -7 50 -22 68 -35 17 -13 37 -23 43 -23 10 0 120 -99
163 -148 7 -7 41 -41 76 -75 97 -94 220 -217 277 -278 29 -30 78 -80 110 -111
33 -31 64 -63 70 -70 7 -7 36 -36 65 -64 30 -28 77 -75 106 -105 29 -30 71
-70 94 -89 77 -65 162 -154 175 -186 23 -55 54 -183 50 -206 -2 -13 0 -33 5
-45 5 -13 4 -34 -1 -48 -6 -17 -6 -25 1 -25 6 0 8 -4 5 -8 -3 -5 -6 -25 -8
-45 -1 -21 -6 -37 -10 -37 -5 0 -5 11 -2 26 7 27 -20 57 -43 49 -6 -2 -14 2
-17 10 -4 10 -14 11 -48 3 -24 -5 -51 -14 -61 -19 -10 -5 -22 -7 -27 -4 -6 4
-10 1 -10 -5 0 -17 -52 -33 -61 -18 -5 8 -30 12 -78 10 -61 -3 -72 -1 -82 16
-12 18 -15 19 -52 6 -22 -8 -48 -14 -58 -14 -10 0 -20 -9 -24 -20 -8 -26 12
-63 31 -56 10 4 13 2 8 -6 -13 -21 -13 -57 -1 -53 7 3 18 1 25 -3 10 -7 9 -16
-3 -45 -16 -39 -9 -69 17 -81 9 -3 4 -12 -15 -28 -57 -47 -104 -95 -152 -152
-36 -43 -51 -55 -53 -43 -4 20 -61 24 -80 5 -10 -10 -12 -8 -9 7 6 29 19 58
33 72 9 10 13 7 18 -11 3 -13 14 -27 23 -31 19 -7 35 9 66 65 10 19 23 30 31
27 17 -7 24 -1 64 50 32 42 41 73 21 73 -8 0 -8 4 -1 13 14 16 10 46 -8 57 -8
5 -27 6 -42 3 -30 -6 -35 5 -18 37 13 25 -11 43 -59 46 -21 1 -47 6 -59 13
-11 6 -31 11 -44 11 -23 0 -23 0 5 24 15 13 27 29 27 37 0 7 10 24 23 38 25
28 47 91 47 135 0 30 -28 76 -84 136 -20 21 -36 41 -36 43 0 3 -26 31 -57 64
-32 32 -93 95 -135 139 -42 43 -82 84 -90 90 -34 29 -271 294 -318 357 -19 25
-41 48 -47 51 -19 8 -90 -20 -116 -46 -37 -37 -75 -93 -83 -121 -5 -24 7 -39
115 -147 66 -66 138 -144 159 -173 22 -29 46 -58 55 -66 23 -19 21 -34 -12
-88 -16 -27 -39 -77 -51 -111 -37 -107 -19 -257 38 -324 12 -14 12 -21 3 -32
-14 -17 -7 -48 13 -65 9 -8 22 -8 45 0 21 8 35 8 44 1 19 -16 155 -54 167 -47
5 3 10 2 10 -4 0 -5 -9 -13 -20 -16 -19 -6 -20 -12 -14 -51 l6 -44 -31 0 c-24
0 -34 -6 -40 -22 -15 -40 6 -70 40 -61 21 6 43 38 35 51 -3 4 12 9 32 10 42 3
48 8 57 42 4 19 -2 33 -25 57 l-31 32 28 6 c74 15 139 39 151 56 18 26 39 24
46 -6 5 -18 14 -25 31 -26 14 -1 30 -2 37 -3 7 0 15 -12 18 -26 3 -14 16 -30
28 -36 21 -10 20 -11 -14 -27 -19 -9 -41 -17 -48 -17 -8 0 -18 -6 -24 -13 -17
-20 -82 -21 -82 -2 0 9 9 15 25 15 34 0 67 37 54 61 -5 11 -15 20 -22 21 -7 0
-16 2 -22 2 -5 1 -16 5 -22 9 -9 5 -11 3 -7 -6 3 -8 1 -18 -5 -21 -7 -5 -7
-15 -1 -31 5 -14 6 -25 1 -25 -5 0 -11 7 -15 15 -3 9 -18 15 -35 15 -40 0 -59
-32 -38 -63 19 -30 11 -47 -22 -47 -15 0 -36 -7 -47 -15 -10 -8 -27 -15 -36
-15 -33 0 -35 -71 -2 -84 9 -3 27 3 41 14 14 11 34 20 44 20 10 0 22 8 28 17
5 10 18 18 28 19 10 0 35 1 56 2 22 1 45 10 58 23 14 14 24 18 31 11 15 -15
38 -4 81 40 28 29 36 44 32 61 -4 15 0 26 14 34 17 11 20 8 25 -23 5 -22 13
-34 24 -35 10 0 4 -7 -16 -17 -18 -9 -35 -26 -38 -39 -4 -13 -11 -23 -16 -23
-6 0 -28 -14 -50 -32 -34 -26 -42 -29 -49 -16 -7 12 -20 14 -60 9 -6 -1 -9
-18 -10 -53 0 -10 -5 -18 -11 -18 -6 0 -19 -7 -29 -16 -17 -15 -19 -15 -34 0
-30 29 -59 29 -108 0 -53 -32 -66 -64 -42 -101 12 -18 22 -22 38 -18 17 5 19
4 7 -4 -8 -6 -23 -11 -32 -11 -9 0 -21 -8 -27 -17 -8 -14 -12 -15 -22 -6 -9 9
-9 15 0 26 28 35 -33 77 -84 57 -18 -7 -32 -7 -38 -1 -6 6 5 13 31 20 22 6 43
18 46 26 3 8 12 15 20 15 21 0 28 31 11 50 -18 20 -83 19 -96 -2 -7 -10 -9
-10 -9 0 0 15 -44 16 -71 1 -17 -9 -26 -5 -58 23 -20 18 -51 44 -68 58 -22 19
-30 34 -31 59 -1 45 -15 58 -45 42 -21 -11 -27 -10 -53 16 -16 16 -40 36 -53
46 -14 9 -22 20 -18 23 4 4 15 0 25 -9 10 -10 24 -17 30 -17 17 0 27 51 12 60
-9 5 -10 17 -5 36 19 65 3 91 -49 78 -22 -5 -24 -10 -19 -35 3 -18 1 -29 -5
-29 -6 0 -19 -9 -30 -20 -17 -19 -19 -19 -33 -2 -9 10 -13 24 -11 30 6 19 -18
42 -44 42 -15 0 -50 27 -106 83 -122 123 -248 259 -248 269 0 4 -4 8 -10 8 -5
0 -10 6 -10 13 0 7 -11 24 -24 38 -42 45 -66 117 -63 186 1 35 5 63 8 63 3 0
11 24 18 53 8 28 18 57 23 64 5 6 11 23 14 38 3 15 20 52 39 81 19 30 35 56
35 58 0 2 18 34 40 70 22 36 40 69 40 74 0 4 13 15 28 24 16 10 37 29 48 44
10 14 63 70 116 125 77 78 113 106 170 134 40 19 92 46 116 60 23 14 42 22 42
20 0 -3 26 8 58 25 64 34 71 35 121 18z m-234 -669 c11 -17 -1 -21 -15 -4 -8
9 -8 15 -2 15 6 0 14 -5 17 -11z m509 -651 c31 -34 56 -65 56 -70 0 -4 -14
-17 -32 -27 -52 -32 -123 -12 -134 37 -3 15 -8 33 -10 40 -8 26 28 78 58 81 3
1 31 -27 62 -61z m931 -269 c4 -11 4 -23 1 -27 -12 -11 -162 -58 -174 -54 -17
5 -4 22 17 22 10 0 26 11 34 23 11 17 25 24 49 25 18 0 37 8 43 16 13 22 22
20 30 -5z m-379 -9 c0 -11 -1 -20 -2 -20 -1 0 -9 3 -18 6 -12 5 -13 9 -3 20
17 19 23 17 23 -6z m187 -12 c4 -12 4 -24 2 -27 -3 -2 -5 1 -5 7 0 15 -45 16
-71 2 -25 -14 -24 -36 1 -52 27 -17 26 -22 -20 -52 -46 -30 -50 -31 -50 -12 0
8 -7 17 -16 20 -15 6 -15 9 5 29 11 13 21 33 21 45 0 14 6 22 18 22 9 0 33 9
52 19 46 26 56 26 63 -1z m435 -92 c13 -1 32 -10 43 -19 10 -9 24 -17 31 -17
6 0 66 -54 132 -121 67 -66 156 -155 199 -197 43 -42 73 -78 67 -80 -6 -2 -19
3 -28 11 -26 22 -51 25 -126 16 -141 -17 -314 -104 -456 -229 -19 -17 -52 -45
-73 -63 -103 -87 -233 -295 -252 -402 -4 -22 -9 -43 -11 -47 -4 -6 -294 278
-294 288 0 2 -18 22 -39 44 -57 59 -75 102 -68 168 3 30 11 58 17 62 7 4 11 9
10 11 -1 2 3 23 9 45 14 51 40 84 157 199 215 213 255 240 419 290 66 19 127
40 135 45 8 5 35 7 60 4 25 -3 55 -6 68 -8z m-1057 -339 c-5 -7 -9 -23 -10
-37 -1 -48 -4 -60 -18 -60 -12 0 -17 -13 -14 -33 2 -14 -30 -20 -42 -8 -9 10
-5 19 20 39 38 33 31 63 -13 54 -19 -3 -25 -1 -22 8 2 8 17 15 34 17 16 2 36
12 44 22 8 10 19 17 23 14 4 -3 4 -10 -2 -16z m159 -58 c0 -16 -62 -99 -73
-99 -7 0 -20 7 -30 15 -18 13 -17 16 20 52 34 35 83 54 83 32z m1280 -79 c8
-5 15 -15 15 -21 0 -7 11 -15 25 -19 140 -40 140 -40 171 -88 23 -37 29 -57
29 -104 0 -143 -76 -332 -181 -448 -27 -30 -49 -58 -49 -62 0 -5 -4 -8 -9 -8
-5 0 -24 -15 -43 -33 -18 -19 -61 -50 -96 -70 -62 -36 -84 -44 -80 -29 5 18
-15 52 -34 58 -26 8 -51 -20 -43 -48 3 -10 7 -26 10 -37 5 -16 -1 -20 -37 -25
-74 -10 -162 -9 -191 3 -16 6 -39 11 -51 11 -13 0 -36 11 -52 25 -15 13 -40
29 -54 35 -14 6 -33 24 -43 41 -9 17 -26 33 -37 36 -11 3 -20 10 -21 17 0 6
-3 20 -5 31 -12 46 -7 112 10 150 22 50 56 120 76 156 22 41 132 159 142 153
5 -3 7 -1 6 4 -6 19 148 143 227 184 156 80 275 113 315 88z"/>
<path d="M1261 2932 c-7 -13 -5 -32 5 -63 21 -59 33 -70 68 -61 49 13 54 34
20 84 -16 24 -33 46 -39 50 -18 14 -44 8 -54 -10z"/>
<path d="M1380 2775 c-18 -21 -5 -45 25 -45 36 0 63 20 57 42 -6 23 -64 25
-82 3z"/>
<path d="M1500 2750 c0 -23 6 -33 25 -40 17 -7 25 -17 25 -35 0 -37 46 -46 71
-14 26 33 34 66 19 84 -14 17 -72 35 -112 35 -24 0 -28 -4 -28 -30z"/>
<path d="M1436 2695 c-8 -9 -13 -22 -10 -29 3 -7 -2 -16 -12 -20 -12 -5 -15
-14 -10 -38 3 -17 11 -37 17 -45 13 -15 53 -18 44 -3 -3 6 5 10 19 10 26 0 43
30 30 52 -4 7 -7 26 -6 42 4 44 -40 63 -72 31z"/>
<path d="M3225 2177 c-14 -22 -14 -27 2 -58 21 -40 42 -58 65 -59 21 0 35 55
18 75 -6 8 -9 18 -6 23 4 8 -11 18 -56 39 -4 2 -14 -7 -23 -20z"/>
<path d="M2994 2076 c-25 -27 -23 -46 6 -76 33 -34 60 -38 76 -12 14 21 4 50
-25 76 -26 24 -43 27 -57 12z"/>
<path d="M3422 2028 c-19 -24 -18 -75 2 -97 31 -35 74 -26 67 13 -1 5 -3 25
-5 43 -3 46 -40 69 -64 41z"/>
<path d="M3241 1966 c-8 -9 -10 -28 -5 -53 10 -58 21 -73 54 -73 33 0 47 27
31 59 -6 11 -11 31 -11 44 0 36 -46 51 -69 23z"/>
<path d="M2827 1904 c-15 -16 -6 -54 19 -77 47 -44 86 -10 54 48 -16 29 -57
45 -73 29z"/>
<path d="M3044 1805 c-12 -47 58 -109 96 -85 31 19 -24 110 -67 110 -16 0 -24
-7 -29 -25z"/>
<path d="M3303 1760 c-42 -17 -41 -69 3 -89 38 -17 53 -13 66 15 11 24 9 29
-14 49 -15 13 -24 26 -21 29 9 8 -8 6 -34 -4z"/>
<path d="M2684 1743 c-11 -11 -14 -69 -4 -93 1 -3 2 -8 1 -12 -1 -12 79 -20
93 -9 14 12 11 51 -4 51 -4 0 -15 17 -24 38 -18 40 -38 48 -62 25z"/>
<path d="M2896 1658 c-12 -16 -13 -26 -4 -42 27 -53 106 -88 109 -48 2 30 -2
47 -15 57 -7 6 -18 20 -25 33 -15 28 -45 28 -65 0z"/>
<path d="M3152 1667 c-29 -37 -33 -57 -17 -87 16 -32 50 -51 73 -43 16 7 15
48 -3 82 -8 16 -12 31 -9 34 3 3 -3 10 -14 16 -15 8 -22 7 -30 -2z"/>
<path d="M2875 1482 c-19 -3 -45 -28 -45 -42 0 -4 16 -24 35 -46 29 -32 38
-37 52 -28 32 20 29 90 -4 110 -10 5 -27 8 -38 6z"/>
<path d="M3531 1561 c-14 -25 25 -100 62 -121 24 -13 28 -13 44 3 14 14 15 21
6 35 -7 9 -21 36 -32 60 -16 33 -25 42 -45 42 -15 0 -30 -8 -35 -19z"/>
<path d="M3660 1258 c-13 -15 -17 -25 -10 -32 5 -5 10 -20 10 -33 0 -13 10
-29 25 -39 24 -16 27 -15 45 1 11 10 17 22 14 27 -3 5 -7 23 -10 41 -3 29 -26
57 -46 57 -4 0 -16 -10 -28 -22z"/>
<path d="M3151 1182 c-1 -7 -5 -11 -10 -7 -6 3 -15 -3 -20 -13 -24 -44 41
-125 73 -91 12 12 12 21 0 62 -8 26 -19 45 -24 42 -4 -3 -11 1 -13 7 -4 10 -6
10 -6 0z"/>
<path d="M3461 1121 c-25 -16 -21 -59 10 -92 38 -41 54 -34 53 26 0 34 -6 51
-19 61 -22 16 -25 17 -44 5z"/>
<path d="M3772 1009 c-45 -17 -17 -124 31 -117 37 5 43 93 9 115 -10 6 -26 7
-40 2z"/>
<path d="M3196 947 c-14 -10 -17 -21 -12 -45 8 -34 20 -46 54 -55 15 -3 22 -1
22 9 0 8 5 14 10 14 6 0 7 7 1 18 -5 9 -14 29 -22 45 -14 30 -26 33 -53 14z"/>
<path d="M3497 827 c-2 -7 1 -28 7 -47 9 -30 16 -35 41 -35 25 0 31 4 33 27 5
41 -14 68 -47 68 -16 0 -31 -6 -34 -13z"/>
<path d="M3850 749 c0 -7 -7 -17 -16 -23 -20 -15 -9 -43 25 -61 32 -16 46 -10
54 26 5 18 1 32 -14 47 -21 24 -49 29 -49 11z"/>
<path d="M3262 694 c-7 -7 -11 -27 -10 -43 2 -34 26 -45 65 -30 19 7 23 14 18
30 -4 12 -8 28 -9 37 -3 19 -47 24 -64 6z"/>
<path d="M4067 683 c-21 -21 2 -73 32 -73 39 0 58 51 27 72 -14 10 -50 10 -59
1z"/>
<path d="M3587 622 c-36 -40 -4 -102 44 -87 23 8 24 35 4 75 -18 35 -26 37
-48 12z"/>
<path d="M4291 592 c-10 -19 5 -102 18 -102 14 1 27 17 39 53 11 30 11 41 2
52 -17 21 -47 19 -59 -3z"/>
<path d="M4092 566 c-20 -20 -22 -27 -13 -45 15 -27 47 -45 56 -31 4 7 11 7
18 2 29 -22 45 -20 66 9 18 24 20 33 11 50 -11 20 -14 21 -71 6 -4 -1 -7 2 -7
7 0 9 -22 26 -32 25 -3 0 -16 -11 -28 -23z"/>
<path d="M2912 525 c-16 -35 3 -67 38 -63 47 6 44 88 -4 88 -15 0 -27 -9 -34
-25z"/>
<path d="M3940 475 c-12 -32 6 -65 36 -65 20 0 35 17 39 45 2 17 -27 45 -47
45 -11 0 -23 -11 -28 -25z"/>
<path d="M3371 463 c-13 -26 -14 -35 -2 -42 8 -5 7 -17 -1 -39 -15 -40 -2 -67
33 -67 20 0 25 7 36 60 16 76 16 71 -3 89 -21 21 -51 20 -63 -1z"/>
<path d="M4213 468 c-6 -7 -13 -23 -16 -35 -4 -19 0 -23 29 -29 55 -10 86 32
47 62 -23 17 -48 18 -60 2z"/>
<path d="M3669 447 c-23 -18 -31 -47 -14 -53 8 -4 15 -12 15 -20 0 -36 46 6
48 43 1 29 -27 46 -49 30z"/>
<path d="M4260 377 c-19 -18 -41 -42 -48 -53 -7 -10 -10 -13 -7 -7 3 7 1 21
-5 32 -9 17 -14 18 -40 9 -41 -14 -41 -52 0 -76 17 -10 30 -27 32 -41 2 -13
11 -29 21 -35 25 -15 45 13 45 62 0 20 5 38 11 40 6 2 9 7 6 12 -3 4 4 6 15 3
41 -11 67 57 31 77 -25 13 -21 15 -61 -23z"/>
<path d="M3068 369 c-10 -5 -18 -20 -18 -33 0 -13 8 -30 18 -39 15 -13 19 -14
36 -1 26 18 29 44 9 66 -18 21 -22 21 -45 7z"/>
<path d="M3745 365 c-3 -8 -7 -21 -9 -29 -3 -7 7 -19 20 -25 33 -15 30 -16 43
21 9 24 8 34 -1 40 -21 13 -48 9 -53 -7z"/>
<path d="M3962 359 c-10 -15 -7 -23 12 -46 24 -28 24 -28 46 -8 13 12 20 28
18 44 -2 21 -9 26 -34 27 -20 1 -35 -5 -42 -17z"/>
<path d="M3212 330 c-18 -29 -15 -53 9 -68 12 -7 22 -12 24 -10 1 2 9 16 18
33 14 28 14 31 -6 47 -25 23 -29 22 -45 -2z"/>
<path d="M3556 298 c-25 -35 -21 -87 7 -97 43 -17 56 12 36 82 -11 43 -22 46
-43 15z"/>
<path d="M2808 293 c-22 -5 -35 -50 -21 -72 12 -20 42 -26 55 -13 15 15 19 64
6 79 -11 13 -12 14 -40 6z"/>
<path d="M3343 223 c-15 -5 -17 -41 -5 -61 5 -7 18 -14 30 -17 17 -3 23 2 28
22 11 42 -18 71 -53 56z"/>
</g>
</svg>
