<?xml version="1.0" standalone="no"?>
<!DOCTYPE svg PUBLIC "-//W3C//DTD SVG 20010904//EN"
 "http://www.w3.org/TR/2001/REC-SVG-20010904/DTD/svg10.dtd">
<svg version="1.0" xmlns="http://www.w3.org/2000/svg"
 width="475.000000pt" height="419.000000pt" viewBox="0 0 475.000000 419.000000"
 preserveAspectRatio="xMidYMid meet">
<metadata>
Created by potrace 1.16, written by Peter Selinger 2001-2019
</metadata>
<g transform="translate(0.000000,419.000000) scale(0.100000,-0.100000)"
fill="#000000" stroke="none">
<path d="M1265 4009 c-111 -7 -305 -70 -305 -99 0 -5 -8 -11 -17 -14 -19 -6
-123 -102 -123 -113 0 -3 -7 -11 -16 -18 -28 -20 -72 -172 -68 -235 7 -124 16
-357 16 -390 0 -66 19 -100 105 -188 77 -79 84 -90 82 -122 -3 -27 -15 -47
-59 -90 -85 -86 -111 -128 -147 -245 -24 -76 -24 -87 -17 -240 4 -88 8 -200
10 -250 2 -49 5 -110 8 -135 8 -74 7 -432 -2 -470 -10 -45 -1 -258 13 -280 2
-4 6 -49 9 -101 2 -52 7 -103 11 -114 4 -11 13 -37 21 -58 8 -20 11 -37 8 -37
-3 0 25 -30 63 -66 68 -66 143 -124 161 -124 6 0 12 -4 14 -8 3 -7 40 -24 163
-77 48 -21 106 -37 111 -32 3 3 19 1 36 -4 64 -18 184 -30 338 -32 79 -2 98 2
282 63 118 38 208 73 224 87 15 13 29 22 30 20 2 -2 11 -41 20 -87 19 -102 47
-159 111 -225 117 -121 214 -172 358 -186 391 -38 682 -5 852 98 70 43 158
115 198 162 31 36 91 140 101 176 27 93 40 379 23 545 -12 130 -21 256 -24
350 -2 47 -6 135 -9 195 -3 61 -8 177 -10 260 -5 160 -15 274 -25 290 -11 19
-40 110 -41 128 0 9 -4 17 -10 17 -5 0 -10 6 -10 13 0 7 -34 48 -75 91 -41 43
-75 85 -75 92 0 8 -3 14 -7 14 -5 0 -14 4 -22 9 -12 8 -10 14 10 35 13 14 29
26 34 26 6 1 18 11 27 23 10 12 29 35 42 51 13 15 29 46 36 67 7 21 17 39 22
39 4 0 8 22 8 48 0 26 4 52 9 57 14 16 31 135 31 218 0 80 -28 216 -54 264 -8
15 -21 39 -28 53 -7 13 -48 59 -90 100 -65 65 -86 80 -141 98 -69 23 -228 53
-274 52 -15 0 -73 -1 -128 -2 -55 0 -109 0 -120 -1 -11 0 -56 1 -100 2 -110 4
-186 -17 -369 -99 -83 -37 -156 -133 -200 -262 -19 -58 -21 -80 -12 -183 3
-44 8 -146 11 -226 6 -219 29 -298 106 -369 15 -14 29 -45 36 -80 3 -18 -37
-98 -54 -104 -12 -5 -63 64 -63 85 0 24 -61 105 -111 148 -57 49 -91 113 -94
176 -1 33 5 47 36 83 24 28 40 58 44 85 4 23 14 55 22 71 17 34 20 136 10 326
-9 174 -18 263 -25 275 -4 5 -7 12 -8 15 -19 115 -108 244 -199 290 -70 35
-129 44 -405 60 -107 6 -202 12 -210 13 -8 1 -55 0 -105 -4z m460 -134 c17 -3
51 -7 76 -9 128 -9 201 -52 231 -136 5 -17 14 -30 19 -30 13 0 51 -132 40
-143 -5 -5 -7 -16 -4 -24 9 -24 -145 -166 -223 -204 l-69 -34 -155 1 c-147 1
-174 3 -210 17 -8 3 -68 13 -133 22 -157 22 -282 66 -357 125 -45 36 -80 105
-80 160 0 35 7 47 53 93 59 60 108 97 129 97 8 0 19 5 26 12 6 6 42 23 79 38
68 26 69 26 308 23 132 -1 254 -5 270 -8z m1265 -273 c80 4 180 2 220 -4 19
-3 59 -6 88 -7 45 -1 55 -4 59 -21 5 -17 14 -20 63 -20 49 0 61 -4 77 -23 10
-13 23 -26 30 -28 21 -8 94 -104 104 -139 9 -29 7 -46 -10 -94 -11 -32 -27
-66 -36 -76 -8 -9 -15 -20 -15 -24 0 -4 -19 -24 -41 -46 -27 -26 -69 -50 -123
-70 -101 -40 -232 -73 -256 -67 -11 3 -21 0 -22 -5 -2 -5 -53 -10 -118 -11
-110 -1 -120 1 -236 41 -67 22 -152 48 -190 57 -66 15 -154 54 -179 79 -34 34
-21 180 23 255 34 59 107 135 121 126 6 -3 11 -1 11 4 0 6 9 11 20 11 11 0 20
5 20 10 0 6 3 9 8 8 4 -1 31 6 61 16 70 24 143 34 211 29 30 -2 80 -3 110 -1z
m-2036 -252 c78 -44 218 -87 341 -104 61 -8 151 -23 200 -31 132 -24 270 -16
357 20 36 15 81 41 100 56 18 16 37 29 41 29 4 0 28 20 54 45 25 25 47 45 49
45 2 0 2 -84 -1 -186 -3 -127 -8 -191 -17 -201 -7 -8 -13 -22 -14 -31 -2 -9
-27 -39 -57 -67 -64 -59 -110 -77 -277 -107 -104 -19 -126 -20 -223 -9 -272
29 -473 111 -573 232 -56 68 -71 121 -78 271 l-5 117 26 -25 c15 -13 49 -38
77 -54z m2701 -302 c-2 -62 -6 -124 -9 -138 -3 -14 -8 -38 -12 -55 -11 -57
-55 -116 -130 -175 -42 -33 -80 -61 -85 -61 -18 -3 -24 -5 -59 -20 -33 -15
-135 -41 -205 -53 -34 -6 -181 -16 -299 -21 -84 -4 -172 11 -246 41 -46 18
-102 53 -108 67 -2 4 -17 14 -32 22 -45 23 -66 96 -73 253 -4 72 -4 132 -1
132 2 0 21 -8 42 -19 20 -10 69 -26 108 -34 39 -9 115 -32 170 -51 147 -51
181 -58 264 -57 122 2 268 26 338 57 18 8 40 14 48 14 9 0 53 17 98 39 59 28
95 54 134 94 28 31 52 61 52 67 0 5 2 10 4 10 2 0 2 -51 1 -112z m-2532 -270
c12 -6 38 -15 57 -19 19 -4 82 -19 140 -34 180 -47 352 -40 613 24 26 6 37 6
38 -3 2 -21 5 -31 23 -91 34 -108 57 -140 158 -209 71 -49 91 -79 100 -154 7
-61 5 -70 -23 -131 -23 -49 -33 -89 -41 -161 -16 -155 -25 -431 -14 -448 2 -4
7 -57 10 -117 3 -61 11 -207 17 -326 7 -119 9 -232 5 -252 -7 -36 -107 -152
-153 -176 -34 -18 -142 -48 -196 -56 -27 -3 -59 -9 -70 -11 -58 -13 -279 -16
-342 -5 -203 33 -425 124 -503 205 -65 68 -78 108 -88 270 -2 32 -6 67 -9 77
-4 11 -6 63 -5 117 5 298 4 452 -3 682 -5 140 -11 279 -13 309 -2 30 3 79 11
109 8 31 12 59 9 63 -2 4 0 10 6 14 5 3 10 15 10 26 0 10 4 19 10 19 5 0 12
11 16 25 3 13 22 40 43 58 20 19 41 41 46 50 43 68 109 157 117 157 5 0 19 -5
31 -12z m2361 -293 c4 -14 11 -25 16 -25 5 0 17 -15 25 -32 32 -66 39 -75 71
-98 96 -65 114 -106 120 -275 6 -167 17 -369 29 -510 13 -157 23 -801 14 -877
-8 -61 -52 -168 -70 -168 -6 0 -8 -3 -6 -8 3 -4 -9 -20 -26 -37 -22 -23 -28
-25 -22 -10 19 50 -4 89 -42 74 -16 -6 -23 -17 -23 -34 0 -37 17 -65 35 -59
32 12 14 -24 -20 -40 -19 -9 -37 -21 -40 -26 -3 -6 -15 -15 -25 -20 -15 -8
-18 -7 -14 3 2 7 1 24 -4 37 -12 32 -49 34 -70 3 -14 -23 -14 -27 2 -54 l17
-29 -34 0 c-19 0 -40 -6 -46 -14 -19 -23 -102 -41 -226 -49 -54 -4 -57 -3 -32
8 53 22 56 55 7 75 -21 9 -34 9 -49 0 -26 -13 -28 -58 -5 -75 13 -9 -19 -11
-156 -9 -95 2 -187 6 -204 9 -89 19 -183 63 -220 104 -11 12 -25 21 -33 21 -7
0 -19 11 -25 25 -6 14 -14 25 -18 25 -4 0 -13 15 -20 33 -7 17 -19 47 -27 65
-8 19 -12 36 -9 39 3 3 1 14 -5 25 -6 12 -10 107 -10 241 0 132 -6 267 -14
332 -8 61 -17 146 -20 190 -3 44 -10 108 -16 142 -17 113 -9 423 14 563 2 8 9
26 17 40 8 14 22 41 31 61 9 20 26 45 37 55 47 45 174 198 183 221 5 13 14 21
20 18 17 -11 129 -35 194 -43 67 -7 307 -6 345 2 14 2 49 9 78 15 29 6 60 15
70 20 9 5 35 12 57 16 22 3 60 17 85 30 56 30 57 30 64 0z"/>
<path d="M1242 3831 c-13 -8 -16 -31 -11 -72 2 -16 25 -19 47 -5 6 4 17 4 22
1 10 -6 15 14 11 50 -3 31 -39 45 -69 26z"/>
<path d="M1451 3819 c-21 -17 -22 -21 -10 -49 18 -40 35 -44 64 -15 19 18 23
29 17 46 -12 33 -43 40 -71 18z"/>
<path d="M1647 3791 c-13 -67 50 -102 72 -40 14 41 -3 70 -41 67 -20 -2 -28
-9 -31 -27z"/>
<path d="M1040 3793 c-24 -6 -40 -39 -34 -70 4 -22 12 -28 32 -30 41 -2 63 22
50 57 -11 34 -27 48 -48 43z"/>
<path d="M1882 3774 c-33 -23 -27 -84 9 -84 38 0 67 81 33 94 -20 8 -16 9 -42
-10z"/>
<path d="M1681 3614 c-14 -18 -18 -31 -12 -43 5 -9 6 -21 4 -28 -6 -17 57 -10
68 8 12 18 12 59 0 59 -5 0 -16 7 -25 15 -13 13 -17 12 -35 -11z"/>
<path d="M1236 3611 c-23 -25 -20 -56 8 -75 24 -15 26 -15 47 15 25 35 19 56
-18 70 -15 5 -26 2 -37 -10z"/>
<path d="M1880 3604 c-16 -40 -12 -72 9 -84 25 -13 46 -5 58 23 13 32 6 50
-28 69 -29 17 -30 17 -39 -8z"/>
<path d="M1452 3608 c-17 -17 -15 -54 4 -72 41 -41 84 8 61 68 -7 19 -48 21
-65 4z"/>
<path d="M1028 3548 c-30 -11 -40 -30 -32 -63 7 -29 27 -37 59 -25 28 11 33
41 12 76 -10 17 -17 20 -39 12z"/>
<path d="M1810 3453 c-39 -66 -16 -99 42 -60 44 30 47 77 6 88 -24 6 -30 3
-48 -28z"/>
<path d="M1165 3456 c-15 -22 -15 -27 -1 -55 15 -29 17 -29 45 -15 19 10 32
25 36 45 8 36 9 35 -32 43 -27 6 -34 3 -48 -18z"/>
<path d="M1395 3430 c-4 -11 -4 -34 0 -50 5 -24 12 -30 34 -30 23 0 28 6 37
40 13 46 4 60 -37 60 -19 0 -30 -6 -34 -20z"/>
<path d="M1640 3424 c-13 -34 -13 -40 6 -58 22 -23 41 -20 60 9 14 21 15 31 6
50 -16 35 -59 34 -72 -1z"/>
<path d="M2857 3492 c-21 -23 -22 -46 -1 -66 19 -20 24 -20 53 3 19 15 22 23
16 49 -5 25 -12 32 -29 32 -13 0 -30 -8 -39 -18z"/>
<path d="M3092 3497 c-22 -26 -18 -69 7 -84 16 -10 23 -8 44 13 24 24 27 57 6
70 -19 11 -48 12 -57 1z"/>
<path d="M2626 3451 c-13 -14 -16 -28 -11 -50 9 -40 14 -43 53 -24 36 17 39
32 16 68 -20 30 -35 31 -58 6z"/>
<path d="M3323 3455 c-7 -7 -14 -29 -16 -47 -3 -28 1 -36 19 -45 25 -12 34 -8
52 24 18 33 15 61 -7 73 -25 13 -33 12 -48 -5z"/>
<path d="M3460 3401 c-16 -31 -12 -69 8 -80 42 -22 92 56 55 85 -26 19 -51 17
-63 -5z"/>
<path d="M2477 3382 c-24 -26 -21 -68 5 -86 19 -14 23 -14 38 4 10 11 23 20
29 20 18 0 4 41 -21 63 -25 21 -31 21 -51 -1z"/>
<path d="M2947 3332 c-28 -31 -19 -82 15 -82 51 0 74 43 44 83 -17 22 -39 22
-59 -1z"/>
<path d="M2736 3324 c-3 -9 -6 -28 -6 -44 0 -22 5 -29 25 -32 27 -6 55 17 55
44 0 33 -13 48 -40 48 -16 0 -30 -7 -34 -16z"/>
<path d="M3186 3311 c-20 -21 -13 -66 11 -75 19 -8 64 4 58 14 -3 5 -1 11 5
15 15 10 -17 65 -39 65 -10 0 -26 -8 -35 -19z"/>
<path d="M2603 3229 c-32 -12 -46 -42 -31 -73 20 -46 78 -28 78 24 -1 38 -21
59 -47 49z"/>
<path d="M3376 3208 c-9 -43 9 -78 39 -78 16 0 24 4 20 11 -4 6 2 17 14 25 19
14 20 17 5 38 -8 13 -28 26 -44 28 -24 4 -29 1 -34 -24z"/>
<path d="M3247 3187 c-49 -16 -48 -86 2 -94 22 -3 61 32 61 55 0 29 -32 50
-63 39z"/>
<path d="M2822 3172 c-24 -21 -29 -38 -19 -73 11 -44 56 -29 76 24 8 20 6 30
-8 46 -22 25 -23 25 -49 3z"/>
<path d="M3034 3165 c-24 -26 -22 -66 2 -86 17 -14 59 4 68 28 5 13 -33 84
-44 82 -3 -1 -15 -12 -26 -24z"/>
<path d="M1454 2250 c-60 -12 -157 -64 -187 -99 -14 -17 -33 -52 -43 -78 -10
-26 -23 -57 -30 -68 -6 -11 -11 -53 -10 -96 1 -63 5 -82 26 -112 14 -20 29
-37 33 -37 5 0 29 -18 54 -40 25 -22 52 -40 59 -40 8 0 14 -3 14 -8 0 -4 28
-17 63 -30 72 -26 88 -39 145 -110 39 -50 42 -58 42 -117 0 -35 -3 -70 -6 -79
-3 -8 -37 -27 -75 -41 -70 -27 -70 -27 -141 -11 -39 9 -105 16 -147 16 -71 0
-78 -2 -113 -33 -30 -26 -36 -38 -33 -62 6 -49 23 -83 47 -96 36 -20 171 -34
310 -33 125 1 127 1 185 35 52 32 62 42 96 113 34 70 66 187 72 269 2 28 -14
100 -33 147 -25 61 -162 146 -267 164 -97 17 -113 25 -123 59 -18 57 -10 89
25 110 67 38 259 52 339 23 38 -13 42 -13 57 4 15 18 23 37 33 82 3 13 8 33
11 46 4 16 1 22 -11 22 -10 0 -23 15 -32 35 -8 20 -19 32 -27 30 -7 -3 -35 -1
-62 5 -28 6 -79 15 -115 20 -36 6 -76 12 -90 14 -14 2 -44 0 -66 -4z"/>
<path d="M2960 1809 c-202 -10 -215 -12 -241 -35 -20 -18 -21 -25 -14 -214 4
-125 3 -247 -5 -340 -16 -187 -15 -472 1 -502 6 -12 22 -33 35 -47 20 -22 30
-24 106 -23 53 0 75 -3 62 -8 -28 -11 -35 -33 -23 -69 9 -26 15 -30 45 -29 41
2 52 25 30 68 -14 28 -13 30 6 30 11 0 50 5 85 12 53 10 67 16 77 37 8 14 12
33 11 41 -1 8 -6 44 -10 80 -5 36 -10 81 -13 100 -2 19 -7 103 -9 186 l-4 151
78 5 c87 6 165 36 198 76 31 38 75 124 75 149 0 12 6 23 13 25 8 3 12 32 12
99 0 80 -3 99 -23 131 -40 65 -80 80 -212 83 -63 1 -189 -2 -280 -6z m207
-145 c-3 -3 -12 -4 -19 -1 -8 3 -5 6 6 6 11 1 17 -2 13 -5z m68 -96 c66 -30
-3 -78 -113 -77 -68 1 -69 1 -85 34 l-16 34 52 5 c29 4 70 8 92 9 22 2 41 4
42 5 1 1 14 -3 28 -10z m85 -178 c0 -5 -15 -17 -32 -25 l-33 -16 30 25 c34 29
35 30 35 16z"/>
<path d="M2391 1376 c-6 -7 -8 -27 -5 -45 7 -36 28 -40 62 -12 18 16 21 24 12
45 -11 29 -49 36 -69 12z"/>
<path d="M2588 1288 c-16 -5 -28 -15 -29 -21 0 -7 -2 -20 -4 -29 -2 -10 4 -27
13 -38 16 -20 18 -20 55 -3 20 9 37 23 37 29 0 7 5 14 12 16 19 7 2 35 -29 45
-17 6 -38 6 -55 1z"/>
<path d="M3505 1276 c-37 -56 25 -96 70 -46 16 18 16 20 -9 44 -31 32 -41 32
-61 2z"/>
<path d="M3411 1188 c-32 -33 -40 -65 -19 -86 16 -16 43 1 59 40 7 18 19 37
26 41 11 7 11 12 2 23 -18 21 -34 17 -68 -18z"/>
<path d="M3138 1179 c-30 -17 -22 -65 16 -106 33 -37 34 -37 60 -19 26 16 27
19 12 41 -14 22 -14 24 9 39 28 19 32 41 9 50 -24 9 -87 7 -106 -5z"/>
<path d="M2423 1164 c-14 -14 -5 -64 13 -71 35 -13 69 40 46 73 -9 14 -46 13
-59 -2z"/>
<path d="M3590 1169 c0 -5 -6 -9 -14 -9 -21 0 -30 -39 -16 -65 11 -20 16 -22
35 -13 23 10 45 46 45 72 0 8 -11 16 -25 18 -14 3 -25 1 -25 -3z"/>
<path d="M3660 1128 c-22 -24 -25 -49 -10 -79 15 -27 36 -24 49 9 20 48 20 68
0 80 -15 10 -22 8 -39 -10z"/>
<path d="M2492 1017 c-12 -13 -23 -35 -24 -49 -2 -20 -9 -28 -30 -32 -22 -4
-28 -11 -28 -30 0 -14 5 -28 10 -31 20 -13 11 -36 -12 -30 -51 12 -76 -53 -32
-82 l25 -16 -21 -19 c-28 -26 -12 -77 23 -78 13 0 57 52 57 67 0 7 -11 18 -24
25 -24 10 -24 11 -6 27 22 19 36 61 21 61 -21 0 -11 18 13 24 14 3 28 16 31
29 4 12 15 31 25 42 10 11 26 37 35 58 15 33 16 40 4 48 -23 15 -44 10 -67
-14z"/>
<path d="M3431 1003 c-13 -9 -38 -19 -55 -22 -26 -6 -32 -12 -34 -37 -2 -19 3
-36 12 -44 9 -7 16 -23 16 -35 0 -13 6 -25 14 -28 16 -6 36 11 36 30 0 7 13
25 30 39 34 31 51 91 29 105 -19 12 -21 11 -48 -8z"/>
<path d="M3230 941 c-16 -30 -12 -44 20 -81 29 -34 30 -34 45 -15 16 20 12 78
-8 103 -14 18 -45 15 -57 -7z"/>
<path d="M3573 943 c4 -3 2 -12 -3 -18 -12 -15 -3 -45 14 -46 6 0 19 -2 29 -4
11 -2 19 5 23 21 10 38 -2 54 -37 54 -18 0 -29 -3 -26 -7z"/>
<path d="M3530 770 c-10 -24 -10 -33 0 -45 17 -21 29 -19 51 8 23 27 23 32 3
51 -23 24 -40 19 -54 -14z"/>
<path d="M3682 758 c-27 -27 -7 -78 30 -78 27 0 52 44 38 69 -12 23 -49 28
-68 9z"/>
<path d="M3390 737 c0 -5 -17 -25 -37 -45 -30 -29 -37 -43 -38 -78 -1 -32 3
-44 16 -47 19 -5 39 10 39 30 0 7 14 19 30 28 18 9 30 23 30 35 0 10 9 25 20
33 13 9 17 20 13 35 -4 18 -12 21 -39 19 -19 -1 -34 -6 -34 -10z"/>
<path d="M3179 712 c-23 -29 -24 -39 -5 -58 28 -28 76 -4 80 40 5 46 -44 57
-75 18z"/>
<path d="M2552 699 c-20 -18 -20 -63 0 -75 30 -19 84 30 73 66 -8 25 -50 31
-73 9z"/>
<path d="M3551 638 c-6 -17 -11 -39 -11 -49 0 -27 36 -34 64 -12 28 22 21 51
-17 76 -25 16 -25 16 -36 -15z"/>
<path d="M3161 551 c-30 -19 -17 -81 17 -81 9 0 24 11 33 23 31 42 -7 85 -50
58z"/>
<path d="M3375 529 c-33 -35 -4 -96 32 -68 38 30 51 53 42 71 -12 22 -54 20
-74 -3z"/>
<path d="M2654 529 c-30 -11 -36 -23 -24 -53 11 -29 41 -34 60 -11 7 8 18 15
25 15 7 0 18 6 24 14 22 26 -41 52 -85 35z"/>
<path d="M2495 506 c-45 -19 -57 -39 -45 -70 10 -26 43 -36 55 -16 4 6 10 8
15 5 7 -4 14 11 25 51 1 5 -3 17 -9 26 -10 14 -16 14 -41 4z"/>
<path d="M2792 407 c-19 -9 -22 -16 -17 -36 4 -14 11 -32 17 -38 12 -15 38
-17 38 -3 0 15 21 12 41 -6 17 -15 21 -14 54 21 34 36 46 75 24 75 -5 0 -30
-11 -55 -25 -41 -23 -44 -23 -44 -6 0 23 -28 31 -58 18z"/>
<path d="M3176 388 c-5 -25 -2 -36 11 -45 23 -18 29 -16 53 9 32 34 23 62 -21
66 -34 3 -37 1 -43 -30z"/>
<path d="M3301 358 c-12 -20 -14 -48 -5 -72 5 -13 10 -13 27 -4 21 11 67 58
67 68 -1 33 -70 39 -89 8z"/>
</g>
</svg>
