<?xml version="1.0" standalone="no"?>
<!DOCTYPE svg PUBLIC "-//W3C//DTD SVG 20010904//EN"
 "http://www.w3.org/TR/2001/REC-SVG-20010904/DTD/svg10.dtd">
<svg version="1.0" xmlns="http://www.w3.org/2000/svg"
 width="539.000000pt" height="481.000000pt" viewBox="0 0 539.000000 481.000000"
 preserveAspectRatio="xMidYMid meet">
<metadata>
Created by potrace 1.16, written by Peter Selinger 2001-2019
</metadata>
<g transform="translate(0.000000,481.000000) scale(0.100000,-0.100000)"
fill="#000000" stroke="none">
<path d="M1900 4749 c-154 -18 -224 -30 -272 -46 -83 -26 -400 -188 -454 -231
-84 -67 -254 -333 -254 -399 0 -10 -6 -30 -14 -45 -39 -74 -38 -247 1 -353 8
-22 15 -46 15 -52 1 -7 4 -13 8 -13 3 0 14 -15 23 -32 10 -18 28 -51 42 -73
14 -22 28 -46 32 -54 7 -15 68 -110 82 -127 4 -5 25 -32 46 -60 21 -27 46 -55
56 -62 11 -7 19 -20 19 -28 0 -8 3 -14 8 -14 4 0 12 -9 17 -20 13 -26 159
-213 206 -264 20 -23 63 -72 95 -111 31 -38 103 -113 158 -165 55 -52 134
-128 174 -168 41 -39 78 -72 83 -72 5 0 9 -4 9 -10 0 -5 20 -23 44 -39 25 -17
50 -37 58 -43 58 -56 127 -77 228 -72 l80 3 5 -27 c24 -123 49 -189 121 -317
31 -55 63 -112 71 -127 8 -16 18 -28 23 -28 5 0 23 -16 42 -36 18 -19 49 -45
68 -57 19 -12 44 -29 54 -39 11 -10 42 -28 68 -40 26 -12 48 -25 48 -29 0 -13
109 -49 153 -50 98 -3 200 13 239 37 21 13 44 24 53 24 8 0 15 4 15 8 0 8 33
27 53 31 4 0 16 10 27 21 11 11 27 20 35 20 8 0 15 4 15 8 0 4 14 16 30 26 17
10 50 35 73 57 23 21 45 39 49 39 3 0 20 12 36 28 70 65 102 92 110 92 13 0
72 58 72 70 0 6 10 10 23 10 26 0 67 38 67 62 0 9 6 20 13 26 7 6 29 44 49 84
44 88 69 223 70 375 0 87 -3 108 -23 149 -25 49 -75 105 -137 152 -20 15 -44
35 -54 45 -10 9 -23 17 -28 17 -10 0 -46 23 -93 60 -11 8 -39 34 -64 57 -68
65 -152 98 -267 108 -29 2 -33 21 -41 164 -4 73 -11 145 -17 160 -30 74 -71
150 -98 180 -17 18 -30 37 -30 40 0 4 -15 22 -33 41 -18 19 -54 62 -80 95 -25
33 -60 75 -77 94 -16 18 -30 36 -30 40 0 6 -17 26 -123 145 -34 38 -84 95
-111 125 -41 48 -83 93 -126 136 -6 6 -102 103 -214 217 -112 113 -218 214
-235 222 -17 9 -31 21 -31 27 0 6 -4 8 -8 5 -4 -2 -51 -2 -102 2 -52 4 -120 4
-150 1z m210 -127 c44 -18 129 -92 267 -233 59 -61 114 -116 121 -122 50 -44
205 -206 252 -265 21 -26 51 -61 67 -78 17 -18 47 -54 69 -80 21 -27 41 -51
44 -54 3 -3 18 -23 34 -45 16 -22 34 -44 40 -50 7 -5 27 -31 46 -57 18 -27 37
-48 41 -48 5 0 31 -30 59 -67 42 -56 62 -98 85 -183 1 -3 5 -14 10 -24 6 -15
2 -25 -19 -42 -20 -18 -25 -29 -20 -48 7 -30 29 -50 44 -41 6 4 10 -11 10 -43
0 -35 -4 -52 -15 -56 -8 -3 -15 -14 -15 -25 0 -16 -12 -24 -57 -36 -105 -30
-153 -46 -159 -56 -3 -6 -16 -15 -27 -20 -36 -15 -85 -47 -144 -92 -31 -23
-65 -49 -76 -57 -12 -8 -40 -33 -62 -55 -23 -22 -51 -48 -61 -57 -29 -26 -74
-76 -74 -82 0 -3 -22 -37 -49 -74 -27 -38 -52 -80 -56 -93 -11 -35 -39 -84
-57 -103 -42 -42 -132 -47 -218 -12 -51 21 -82 45 -162 123 -55 54 -144 152
-199 218 -110 133 -136 164 -183 215 -17 19 -39 46 -49 60 -36 51 -106 133
-257 298 -170 187 -199 224 -255 327 -59 110 -87 206 -88 303 0 51 4 87 11 94
7 7 12 22 12 34 0 12 4 24 8 26 5 2 21 29 36 61 57 121 199 307 236 307 5 0
10 4 10 9 0 9 60 37 73 33 4 -1 7 2 7 8 0 6 9 10 20 10 11 0 20 4 20 9 0 5 19
16 43 26 23 9 56 23 72 30 34 16 135 54 240 92 70 25 217 44 265 35 14 -3 41
-12 60 -20z m1365 -1703 c50 -19 76 -36 179 -123 28 -23 28 -26 10 -32 -51
-18 -157 -67 -233 -108 -46 -25 -93 -48 -104 -52 -11 -3 -44 -26 -74 -50 -30
-24 -58 -44 -63 -44 -5 0 -31 -19 -58 -42 -27 -24 -60 -52 -73 -64 -35 -30
-228 -234 -221 -234 3 0 -4 -10 -15 -22 -55 -60 -133 -246 -133 -321 l-1 -42
-28 33 c-15 18 -28 38 -28 45 0 6 -18 44 -40 82 -81 146 -107 258 -74 326 10
19 29 65 44 102 30 74 65 135 91 156 9 7 16 19 16 25 0 12 120 126 190 181
138 108 237 163 327 181 36 8 72 19 81 24 25 16 142 4 207 -21z m199 -248 c3
-4 32 -11 64 -13 53 -5 123 -32 159 -61 54 -45 64 -72 57 -162 -2 -27 -6 -79
-8 -115 -2 -36 -12 -81 -21 -100 -56 -112 -171 -246 -225 -264 -25 -8 -35 -17
-33 -31 2 -20 -33 -58 -116 -127 -38 -31 -46 -34 -58 -22 -19 18 -32 18 -54
-2 -13 -12 -15 -22 -9 -44 5 -19 4 -31 -3 -34 -7 -4 -30 -17 -52 -31 -50 -30
-133 -75 -138 -75 -3 0 -3 14 -1 32 4 33 -18 68 -43 68 -25 0 -39 -77 -19
-108 5 -9 -17 -12 -89 -12 -87 0 -104 3 -159 30 -93 44 -140 97 -156 175 -10
46 -8 62 11 121 27 85 51 135 95 195 19 26 34 49 34 52 0 4 24 31 53 60 28 30
75 79 102 109 28 30 65 63 83 73 17 11 32 22 32 26 0 15 183 130 291 184 63
31 125 62 139 70 28 16 56 19 64 6z"/>
<path d="M2020 4150 c-70 -14 -193 -82 -239 -132 -47 -50 -78 -89 -88 -110
-36 -78 -44 -109 -45 -181 -1 -76 3 -89 47 -190 17 -39 90 -114 128 -131 44
-20 117 -38 131 -33 6 3 19 0 28 -7 10 -8 62 -11 154 -9 77 1 159 -2 184 -7
25 -5 67 -12 93 -15 44 -6 50 -10 64 -43 11 -28 12 -40 4 -52 -6 -8 -14 -23
-18 -33 -8 -24 -75 -62 -152 -87 -79 -25 -84 -25 -71 1 24 44 22 66 -7 74 -20
5 -31 2 -40 -11 -18 -24 -16 -63 2 -70 24 -9 18 -21 -14 -27 -27 -6 -30 -11
-36 -61 -10 -81 -3 -98 50 -120 60 -24 173 -19 230 11 132 68 162 85 182 100
24 20 83 126 83 150 0 12 2 12 13 1 8 -7 16 -19 18 -26 3 -9 16 -2 37 19 37
37 37 50 -2 64 -24 8 -31 6 -46 -12 -17 -22 -17 -22 -13 20 6 54 -34 170 -79
231 -55 76 -225 145 -318 130 -78 -13 -201 -36 -237 -46 -32 -8 -55 -7 -104 6
-87 22 -109 49 -109 132 l0 62 53 46 c28 26 70 56 92 67 39 20 95 53 163 94
40 24 49 55 33 114 -20 80 -68 103 -171 81z"/>
<path d="M3072 3250 c-26 -24 -26 -29 -7 -53 10 -14 20 -17 37 -12 28 9 67 35
52 35 -6 0 -16 11 -22 25 -14 30 -31 32 -60 5z"/>
<path d="M2862 3248 c-25 -25 -14 -54 24 -66 47 -14 64 -7 58 26 -8 43 -55 67
-82 40z"/>
<path d="M2009 3177 c-36 -27 -3 -92 39 -76 27 10 30 56 5 75 -22 16 -24 16
-44 1z"/>
<path d="M1761 3156 c-27 -49 31 -89 66 -46 21 26 15 47 -18 59 -18 6 -33 11
-34 11 -1 0 -7 -11 -14 -24z"/>
<path d="M1531 3128 c-11 -27 5 -58 35 -68 15 -6 22 0 35 26 9 18 12 31 8 28
-5 -3 -9 1 -9 9 0 32 -57 36 -69 5z"/>
<path d="M3706 2564 c-19 -18 -19 -14 -5 -53 19 -54 71 -31 85 37 6 31 6 32
-29 32 -20 0 -43 -7 -51 -16z"/>
<path d="M3550 2530 c-24 -24 -24 -29 -5 -56 8 -12 11 -24 8 -28 -3 -3 -2 -6
4 -6 16 0 63 47 63 63 0 14 -31 47 -43 47 -4 0 -16 -9 -27 -20z"/>
<path d="M3826 2411 c-21 -23 -21 -77 1 -89 31 -18 77 52 55 84 -14 20 -40 23
-56 5z"/>
<path d="M3349 2386 c-20 -21 -17 -49 7 -74 12 -11 18 -11 37 5 13 10 22 24
19 31 -2 7 2 19 8 27 10 12 9 15 -4 15 -9 0 -16 4 -16 8 0 16 -32 9 -51 -12z"/>
<path d="M3580 2310 c-19 -27 -20 -32 -6 -45 8 -8 26 -19 40 -25 22 -8 26 -7
26 10 0 10 5 22 10 25 15 9 12 31 -6 49 -23 23 -40 20 -64 -14z"/>
<path d="M3160 2252 c-17 -19 -15 -49 5 -69 18 -18 24 -17 50 11 17 19 20 28
12 42 -20 37 -43 42 -67 16z"/>
<path d="M3705 2252 c-15 -40 7 -92 36 -85 9 3 23 18 30 34 10 25 9 32 -6 49
-19 21 -52 23 -60 2z"/>
<path d="M3426 2178 c-20 -28 -20 -33 0 -52 20 -20 24 -20 53 5 21 17 22 23
13 44 -14 31 -46 32 -66 3z"/>
<path d="M3041 2111 c-53 -14 -60 -91 -8 -91 30 0 47 18 47 50 0 36 -11 47
-39 41z"/>
<path d="M3591 2098 c-16 -25 -14 -42 7 -68 l19 -23 26 23 c15 13 27 31 27 39
-1 43 -57 63 -79 29z"/>
<path d="M3276 2054 c-10 -37 18 -78 43 -65 37 20 45 39 27 66 -23 34 -62 34
-70 -1z"/>
<path d="M3441 1944 c-16 -21 -18 -30 -9 -50 19 -41 64 -28 74 22 5 25 2 32
-20 42 -22 10 -28 8 -45 -14z"/>
<path d="M2890 1937 c-28 -14 -38 -51 -20 -73 32 -38 81 15 57 62 -11 21 -15
22 -37 11z"/>
<path d="M3104 1915 c-8 -31 10 -75 29 -75 24 0 59 46 52 69 -3 12 -9 21 -13
22 -4 0 -19 3 -34 5 -23 4 -29 0 -34 -21z"/>
<path d="M3240 1813 c-10 -11 -13 -29 -10 -48 7 -39 43 -46 71 -14 22 26 22
22 7 54 -13 29 -46 33 -68 8z"/>
<path d="M3055 1732 c-24 -5 -44 -31 -40 -51 2 -9 4 -22 4 -28 2 -36 101 14
101 51 0 16 -39 33 -65 28z"/>
<path d="M3767 1712 c-10 -10 -17 -35 -17 -54 0 -27 6 -40 26 -53 25 -16 27
-16 47 4 13 13 16 21 9 21 -7 0 -10 5 -7 10 3 6 2 10 -3 10 -6 0 -8 17 -5 40
5 35 3 40 -14 40 -11 0 -27 -8 -36 -18z"/>
<path d="M3836 1481 c-37 -41 -15 -111 35 -111 19 0 33 26 23 42 -4 6 -7 27
-8 47 -1 42 -23 52 -50 22z"/>
<path d="M3532 1478 c-16 -20 -18 -52 -4 -54 6 -1 15 -2 18 -3 4 0 0 -9 -7
-18 -12 -14 -12 -15 0 -9 8 5 17 3 22 -5 12 -21 44 2 45 32 1 51 -47 89 -74
57z"/>
<path d="M3222 1407 c-14 -17 -12 -57 5 -74 6 -7 13 -18 16 -25 3 -10 9 -10
23 -2 15 9 19 23 19 60 0 45 -2 49 -26 52 -14 2 -31 -3 -37 -11z"/>
<path d="M3595 1266 c-31 -22 4 -110 35 -91 21 13 31 54 18 75 -17 26 -33 31
-53 16z"/>
<path d="M3900 1247 c-20 -10 -25 -20 -25 -52 0 -38 2 -40 30 -40 28 0 30 2
33 44 4 53 -5 64 -38 48z"/>
<path d="M3276 1173 c-18 -47 4 -86 41 -77 26 7 33 30 20 61 -11 25 -54 37
-61 16z"/>
<path d="M3628 1049 c-24 -13 -23 -61 0 -82 26 -24 47 -21 60 8 7 15 8 25 2
25 -6 0 -9 3 -9 8 8 48 -14 64 -53 41z"/>
<path d="M4122 1027 c-15 -17 -11 -57 5 -57 7 0 13 -6 13 -14 0 -9 8 -12 25
-8 14 2 36 -3 50 -12 14 -10 34 -16 43 -14 9 1 22 0 27 -3 6 -4 31 -10 58 -13
42 -6 47 -5 47 11 0 12 -16 27 -42 41 -24 13 -54 29 -68 37 -14 8 -38 15 -55
15 -16 0 -39 7 -49 15 -24 18 -40 19 -54 2z"/>
<path d="M3939 994 c-8 -9 -14 -32 -14 -50 0 -28 4 -34 27 -40 34 -7 66 19 49
40 -6 7 -8 15 -5 19 9 9 -15 47 -30 47 -8 0 -20 -7 -27 -16z"/>
<path d="M3300 951 c0 -11 -6 -22 -12 -24 -10 -4 -10 -6 0 -6 6 -1 12 -6 12
-12 0 -11 24 -39 34 -39 15 0 41 38 41 58 -1 26 -20 42 -52 42 -16 0 -23 -6
-23 -19z"/>
<path d="M3137 939 c-17 -16 -119 -20 -134 -6 -19 20 -123 -14 -167 -54 -13
-12 -35 -77 -28 -84 17 -17 53 -1 86 39 42 52 68 63 97 43 23 -16 63 -10 103
16 18 12 23 12 34 0 19 -19 73 -9 94 18 23 27 17 36 -30 41 -26 2 -44 -2 -55
-13z"/>
<path d="M3980 875 c-7 -8 -9 -15 -5 -15 4 0 2 -6 -4 -14 -29 -35 43 -70 74
-36 23 26 17 39 -32 67 -17 10 -24 9 -33 -2z"/>
<path d="M4406 854 c-19 -18 -19 -14 -5 -52 7 -20 15 -29 25 -25 8 3 14 0 14
-6 0 -9 25 2 59 26 5 4 -62 73 -71 73 -4 0 -14 -7 -22 -16z"/>
<path d="M3691 786 c-31 -33 -28 -83 5 -98 28 -13 44 -1 44 34 0 9 7 21 16 26
15 8 15 10 0 15 -9 4 -16 13 -16 21 0 24 -27 26 -49 2z"/>
<path d="M3359 782 c-52 -6 -38 -89 14 -89 21 0 32 38 20 69 -6 17 -14 22 -34
20z"/>
<path d="M4489 723 c-20 -5 -36 -117 -20 -137 6 -7 6 -17 1 -26 -15 -24 -12
-80 5 -86 19 -8 45 13 45 36 0 9 7 32 16 50 14 28 15 36 4 54 -7 11 -12 37
-12 57 2 39 -13 58 -39 52z"/>
<path d="M2740 674 c-21 -6 -56 -63 -76 -123 -21 -66 -13 -112 28 -146 17 -14
28 -28 25 -31 -14 -15 30 -44 66 -44 47 0 149 -47 206 -94 24 -20 55 -37 69
-37 87 -5 118 12 81 43 -12 10 -25 15 -30 12 -11 -7 -89 14 -89 25 0 10 -204
121 -223 121 -27 0 -87 64 -87 93 0 27 22 84 51 127 36 55 31 68 -21 54z"/>
<path d="M4424 368 c-47 -22 -57 -88 -14 -88 21 0 50 21 50 36 0 4 8 12 17 19
15 11 15 15 4 29 -15 18 -27 19 -57 4z"/>
<path d="M4159 283 c-20 -5 -44 -47 -35 -62 15 -24 106 -4 106 23 0 14 -38 48
-50 45 -3 -1 -12 -3 -21 -6z"/>
<path d="M4070 243 c0 -11 -50 -33 -75 -33 -55 0 -73 -56 -24 -74 20 -7 38 -3
77 14 56 26 70 47 50 79 -13 21 -28 28 -28 14z"/>
<path d="M3490 227 c-27 -8 -76 -10 -123 -7 -43 3 -81 3 -83 0 -3 -2 -17 -6
-32 -8 -42 -5 -49 -20 -16 -32 42 -16 150 -20 219 -8 92 17 108 16 120 -8 24
-48 36 -55 91 -53 51 2 107 29 91 45 -6 6 -47 8 -72 4 -35 -7 -55 3 -71 35
-10 21 -24 35 -34 35 -10 0 -24 2 -32 4 -7 3 -33 -1 -58 -7z"/>
</g>
</svg>
