<?xml version="1.0" standalone="no"?>
<!DOCTYPE svg PUBLIC "-//W3C//DTD SVG 20010904//EN"
 "http://www.w3.org/TR/2001/REC-SVG-20010904/DTD/svg10.dtd">
<svg version="1.0" xmlns="http://www.w3.org/2000/svg"
 width="451.000000pt" height="427.000000pt" viewBox="0 0 451.000000 427.000000"
 preserveAspectRatio="xMidYMid meet">
<metadata>
Created by potrace 1.16, written by Peter Selinger 2001-2019
</metadata>
<g transform="translate(0.000000,427.000000) scale(0.100000,-0.100000)"
fill="#000000" stroke="none">
<path d="M2080 4176 c-33 -18 -89 -89 -117 -147 -39 -81 -37 -194 5 -257 35
-54 55 -127 57 -213 2 -94 9 -113 43 -122 31 -7 54 37 48 95 -11 113 -31 186
-68 256 l-40 73 12 67 c13 76 47 134 100 170 43 29 50 41 39 70 -10 25 -41 29
-79 8z"/>
<path d="M1664 4057 c-41 -21 -97 -85 -126 -141 -26 -51 -30 -70 -29 -131 1
-66 5 -79 48 -156 45 -82 46 -86 45 -166 -2 -84 3 -96 40 -98 37 -3 50 29 47
112 -4 70 -9 88 -53 173 -38 75 -48 105 -48 142 1 73 36 129 121 196 45 35 5
96 -45 69z"/>
<path d="M2544 3941 c-51 -14 -144 -165 -144 -234 0 -44 25 -130 56 -194 22
-44 25 -59 19 -108 -6 -46 -4 -59 10 -75 22 -25 47 -25 68 -2 24 26 13 151
-18 212 -28 53 -52 135 -51 170 2 38 53 124 87 144 49 29 27 102 -27 87z"/>
<path d="M2396 3202 c-2 -1 -111 -7 -242 -12 -580 -24 -682 -34 -885 -85 -182
-47 -365 -167 -385 -253 -4 -15 -10 -31 -14 -37 -3 -5 -5 -35 -3 -65 2 -30 5
-118 7 -195 1 -77 5 -149 8 -160 3 -11 11 -54 18 -95 6 -41 18 -104 25 -140 7
-36 17 -94 20 -130 4 -36 11 -72 16 -81 4 -9 11 -72 14 -140 8 -154 10 -177
18 -186 4 -3 7 -21 7 -39 0 -17 6 -67 14 -110 8 -44 18 -106 21 -139 4 -32 9
-63 12 -68 3 -5 5 -36 4 -70 0 -35 5 -70 13 -82 7 -11 16 -41 19 -66 14 -102
156 -514 211 -612 37 -67 138 -175 202 -219 84 -57 241 -112 349 -123 33 -4
87 -10 120 -15 81 -10 341 -5 439 10 78 11 185 52 258 97 21 13 42 23 48 23
13 0 180 166 180 179 0 5 23 47 52 93 84 134 132 239 182 399 l37 116 57 16
c31 9 77 19 102 21 54 7 131 27 185 51 97 42 207 97 227 113 41 32 128 119
128 127 0 5 8 17 18 27 39 43 113 158 150 233 42 85 65 174 61 228 -2 18 0 37
3 43 17 26 6 250 -16 323 -17 59 -158 221 -192 221 -7 0 -17 6 -21 13 -8 13
-14 14 -128 21 -38 2 -82 9 -97 14 -14 6 -35 11 -45 10 -29 -1 -173 23 -198
32 -14 5 -26 5 -33 -2 -17 -17 -22 7 -13 58 5 26 8 88 6 136 -3 82 -6 94 -50
180 -26 51 -64 111 -84 133 -20 22 -43 49 -51 60 -18 24 -60 48 -115 65 -22 7
-44 16 -50 20 -21 16 -123 48 -175 56 -49 7 -428 13 -434 6z m274 -116 c185
-1 236 -9 285 -42 11 -8 26 -14 33 -14 13 0 26 -9 102 -68 43 -34 89 -107 111
-175 24 -76 24 -102 -2 -144 -22 -35 -127 -109 -189 -133 -19 -7 -39 -16 -45
-20 -18 -13 -149 -49 -220 -60 -38 -6 -108 -18 -155 -26 -47 -8 -114 -16 -150
-19 -36 -3 -116 -9 -178 -15 -121 -10 -602 -7 -620 4 -6 3 -37 9 -69 12 -32 3
-69 8 -83 11 -14 3 -38 7 -55 10 -68 11 -184 42 -213 57 -17 9 -37 16 -44 16
-30 1 -123 87 -150 139 -37 71 -57 148 -46 186 21 80 232 182 413 200 73 7 86
8 175 20 55 8 80 10 245 20 50 3 127 10 173 16 45 5 86 8 91 5 4 -3 23 -1 42
5 19 5 86 12 149 15 63 3 116 7 119 9 2 3 25 2 50 -1 25 -4 129 -7 231 -8z
m807 -756 c154 3 142 3 193 -3 70 -8 98 -17 153 -53 123 -79 141 -103 155
-214 19 -150 -1 -320 -49 -427 -10 -24 -19 -46 -19 -50 0 -5 -10 -19 -23 -33
-13 -14 -41 -54 -62 -89 -65 -106 -132 -165 -259 -226 -119 -58 -238 -93 -324
-94 -46 -1 -53 2 -48 17 2 9 12 60 21 113 l17 95 41 11 c23 7 67 14 98 17 63
7 149 38 196 73 17 13 35 23 40 23 20 1 93 86 93 109 0 5 3 11 8 13 4 2 20 23
37 48 28 43 29 51 32 164 2 107 0 126 -23 185 -29 75 -87 135 -144 151 -42 11
-270 9 -270 -3 0 -5 -6 -7 -12 -5 -13 5 -13 28 -2 141 5 48 8 56 20 46 9 -7
54 -11 131 -9z m-244 -97 c-3 -49 -9 -103 -13 -120 -5 -18 -6 -42 -3 -53 6
-23 -5 -95 -14 -86 -3 3 -25 -8 -50 -25 -77 -53 -311 -149 -463 -190 -231 -63
-322 -79 -500 -87 -327 -14 -404 -10 -620 33 -122 24 -414 136 -461 176 -18
15 -36 26 -40 23 -5 -2 -13 4 -18 14 -11 21 -32 141 -33 187 0 17 -6 52 -14
79 -22 76 -15 96 20 61 23 -24 182 -105 234 -120 26 -8 74 -19 107 -24 33 -6
116 -20 185 -32 113 -20 160 -22 475 -22 221 0 374 4 415 11 89 16 159 31 195
41 17 5 66 17 110 26 44 10 87 21 95 26 9 4 36 10 60 14 25 4 61 15 80 25 19
10 64 31 100 46 36 16 83 41 104 56 21 15 42 28 46 28 4 0 6 -39 3 -87z m241
-199 c39 -9 80 -17 91 -19 33 -6 83 -105 93 -182 8 -62 7 -71 -16 -113 -51
-93 -110 -159 -162 -182 -40 -16 -131 -35 -184 -37 -47 -2 -48 -1 -42 23 12
47 25 171 32 296 3 69 9 145 13 170 6 43 7 45 46 51 22 3 44 7 49 8 4 0 40 -6
80 -15z m-296 -408 c1 -2 -2 -30 -8 -62 -5 -33 -17 -111 -26 -174 l-16 -115
-67 -38 c-36 -21 -95 -55 -129 -77 -87 -52 -259 -108 -387 -125 -27 -4 -94
-16 -148 -26 -76 -15 -150 -20 -322 -22 -235 -3 -339 3 -464 28 -210 42 -280
66 -416 142 -48 27 -65 71 -80 198 -11 90 -16 122 -24 163 -4 23 -7 42 -6 42
1 0 19 -13 39 -30 21 -16 63 -36 94 -45 31 -9 62 -20 67 -25 15 -11 161 -40
205 -40 21 0 49 -4 62 -9 13 -5 71 -12 128 -16 57 -3 107 -8 111 -11 5 -2 66
-7 136 -10 163 -8 355 11 588 57 166 33 396 100 472 138 23 12 48 21 56 21 7
0 29 11 48 25 24 19 41 24 59 20 14 -4 26 -8 28 -9z m-1863 -86 c3 -6 -1 -7
-9 -4 -18 7 -21 14 -7 14 6 0 13 -4 16 -10z m1719 -675 c-35 -109 -62 -158
-98 -183 -17 -12 -48 -37 -69 -55 -21 -19 -64 -44 -95 -57 -31 -13 -84 -36
-117 -51 -54 -24 -121 -44 -127 -38 -2 1 -12 -3 -24 -9 -24 -12 -223 -47 -334
-58 -125 -12 -380 -7 -465 10 -11 2 -42 7 -70 10 -61 9 -208 52 -252 74 -21
10 -38 30 -48 54 -25 64 -55 157 -55 173 0 8 -4 15 -10 15 -8 0 -33 70 -27 76
1 1 36 -9 77 -23 86 -28 178 -54 200 -55 8 0 44 -6 80 -13 317 -64 547 -65
815 -4 44 10 109 23 145 29 75 13 156 37 185 55 11 6 44 18 72 24 29 7 94 34
145 60 51 26 94 47 95 46 1 0 -9 -37 -23 -80z m-857 -91 c-3 -3 -12 -4 -19 -1
-8 3 -5 6 6 6 11 1 17 -2 13 -5z m-249 -591 c-10 -2 -26 -2 -35 0 -10 3 -2 5
17 5 19 0 27 -2 18 -5z"/>
</g>
</svg>
