<?xml version="1.0" standalone="no"?>
<!DOCTYPE svg PUBLIC "-//W3C//DTD SVG 20010904//EN"
 "http://www.w3.org/TR/2001/REC-SVG-20010904/DTD/svg10.dtd">
<svg version="1.0" xmlns="http://www.w3.org/2000/svg"
 width="533.000000pt" height="441.000000pt" viewBox="0 0 533.000000 441.000000"
 preserveAspectRatio="xMidYMid meet">
<metadata>
Created by potrace 1.16, written by Peter Selinger 2001-2019
</metadata>
<g transform="translate(0.000000,441.000000) scale(0.100000,-0.100000)"
fill="#000000" stroke="none">
<path d="M2215 4266 c-84 -25 -272 -119 -315 -157 -87 -78 -150 -141 -169
-173 -31 -50 -85 -94 -128 -104 -21 -5 -77 -17 -125 -25 -109 -20 -200 -61
-223 -100 -22 -37 -14 -93 21 -153 20 -34 35 -46 73 -59 26 -8 70 -15 97 -14
27 1 61 -3 75 -9 26 -10 89 -81 89 -100 0 -5 8 -29 19 -53 12 -29 21 -79 24
-146 6 -92 14 -137 49 -258 7 -22 32 -80 57 -130 44 -88 119 -178 184 -220 27
-17 36 -35 17 -35 -9 0 -29 -12 -108 -65 -33 -22 -84 -78 -93 -103 -31 -79
-41 -209 -28 -362 14 -163 20 -216 44 -355 21 -122 30 -189 49 -355 2 -19 9
-69 15 -110 5 -41 13 -97 15 -125 3 -27 10 -75 16 -105 5 -30 17 -104 25 -165
19 -138 22 -158 35 -224 5 -30 8 -56 5 -59 -2 -3 0 -13 6 -24 7 -13 7 -29 1
-46 -5 -15 -6 -34 -3 -43 7 -19 56 -81 90 -115 48 -47 243 -149 316 -164 143
-29 367 -44 465 -30 36 5 83 11 105 14 61 7 113 17 179 31 117 27 151 35 171
44 11 5 47 19 80 31 100 36 148 63 198 112 26 27 52 48 57 48 5 0 13 12 16 28
4 15 13 37 21 48 8 12 13 26 12 30 -2 8 8 88 16 135 2 9 6 59 9 110 4 52 8
114 11 139 2 25 7 72 10 105 4 32 8 62 11 66 2 4 6 28 9 55 3 27 12 85 19 129
8 44 17 105 20 135 5 48 12 103 32 252 2 20 5 58 5 85 0 26 4 73 9 103 11 66
21 150 25 205 2 22 7 65 13 95 11 61 10 88 -9 163 -7 29 -12 55 -11 60 1 4 -1
7 -6 7 -4 0 -13 15 -21 33 -8 17 -17 34 -21 37 -4 3 -30 32 -60 65 -29 33 -69
72 -89 87 -47 35 -209 118 -286 146 -64 23 -245 62 -289 62 -32 0 -32 1 -2 55
14 24 40 90 59 147 48 146 56 174 71 253 8 39 23 111 34 161 12 52 22 135 23
190 1 99 -16 241 -32 258 -5 6 -9 19 -9 31 0 12 -4 25 -8 31 -5 5 -14 29 -21
53 -24 83 -188 211 -291 227 -18 3 -45 11 -59 16 -14 6 -31 12 -36 12 -6 1
-28 8 -50 17 -160 65 -417 103 -510 75z m265 -80 c14 -3 59 -15 100 -27 41
-12 80 -23 87 -25 6 -1 -19 -34 -56 -73 -38 -38 -76 -87 -86 -107 -10 -21 -38
-66 -62 -101 -23 -34 -43 -64 -43 -68 0 -3 -10 -22 -23 -43 -37 -59 -124 -286
-165 -427 -45 -157 -62 -236 -72 -331 -15 -157 0 -357 31 -418 11 -21 17 -41
14 -44 -3 -3 -30 2 -60 12 l-54 19 14 28 c23 44 19 78 -9 85 -32 8 -43 0 -51
-36 l-7 -30 -31 22 c-53 38 -130 125 -165 189 -19 34 -29 58 -24 55 13 -8 43
4 37 14 -3 5 4 25 16 45 12 20 20 37 18 38 -2 1 -14 8 -27 15 -28 15 -45 3
-56 -42 l-7 -29 -14 27 c-16 30 -45 211 -45 272 1 60 -5 86 -33 147 -15 30
-27 59 -27 62 0 4 -13 25 -29 49 -44 63 -111 96 -199 96 -66 0 -72 2 -96 31
-30 36 -33 69 -8 92 20 18 112 46 165 49 20 1 37 6 37 11 0 4 4 6 9 3 4 -3 23
-1 42 4 19 6 47 13 62 15 34 7 98 64 139 125 17 25 63 76 102 113 68 65 114
92 316 185 24 12 202 10 260 -2z m388 -131 c31 -5 97 -40 143 -77 29 -23 38
-36 33 -51 -3 -10 -8 -29 -9 -40 -8 -46 -25 -105 -40 -133 -8 -16 -15 -36 -15
-45 0 -15 -57 -139 -69 -149 -6 -5 -19 -28 -88 -162 -19 -38 -40 -68 -47 -68
-18 0 -36 160 -51 445 -9 178 -15 239 -26 246 -28 17 59 51 111 43 19 -3 45
-7 58 -9z m-227 -152 c0 -16 2 -37 4 -48 2 -10 7 -64 10 -120 4 -55 8 -107 10
-115 2 -8 7 -62 11 -120 3 -58 9 -109 12 -115 9 -16 -38 26 -103 91 -33 34
-84 73 -112 88 -29 14 -53 30 -53 34 0 8 78 163 100 201 31 51 98 131 111 131
5 0 9 -12 10 -27z m478 -135 c22 -73 33 -161 27 -225 -3 -38 -6 -71 -6 -75 0
-5 -6 -8 -12 -8 -7 0 -29 -14 -48 -30 -19 -17 -46 -33 -60 -37 -14 -3 -49 -17
-78 -30 -54 -24 -74 -25 -55 -1 16 21 153 287 153 298 0 6 11 33 25 62 14 28
25 58 25 65 0 25 19 13 29 -19z m-668 -282 c19 -8 61 -42 94 -75 72 -73 81
-81 123 -110 43 -30 42 -57 -5 -79 -21 -9 -40 -19 -43 -22 -3 -3 -41 -22 -85
-42 -127 -58 -248 -117 -271 -134 -21 -15 -21 -14 3 88 14 57 27 117 30 133 3
17 9 35 14 40 4 6 12 29 18 50 5 22 20 68 31 103 24 68 32 73 91 48z m658
-197 c-23 -114 -51 -219 -59 -224 -10 -6 -78 54 -133 118 l-47 55 47 27 c27
15 75 35 108 46 33 10 67 23 75 28 21 14 22 10 9 -50z m-177 -237 c74 -76 88
-96 83 -115 -9 -30 -32 -86 -52 -122 -8 -16 -31 -60 -49 -96 -30 -60 -60 -98
-68 -88 -1 2 -8 54 -15 114 -7 61 -17 142 -21 180 -17 133 -23 233 -16 252 7
17 9 16 28 -7 11 -14 60 -67 110 -118z m-242 93 c0 -3 -9 -23 -20 -45 -11 -22
-20 -44 -20 -50 0 -12 -71 -123 -82 -128 -5 -2 -8 -10 -8 -17 0 -7 -20 -48
-45 -89 -25 -42 -45 -79 -45 -83 0 -4 -19 -44 -42 -91 -39 -76 -80 -132 -97
-132 -3 0 -21 23 -40 51 -36 55 -50 120 -56 254 -4 107 1 134 26 128 11 -3 28
2 38 11 17 16 368 194 384 195 4 1 7 -1 7 -4z m45 -255 c8 -72 13 -148 16
-238 2 -58 6 -76 20 -86 18 -12 17 -14 -12 -44 -17 -18 -35 -32 -40 -32 -5 0
-32 -14 -60 -32 -43 -26 -64 -32 -120 -35 -38 -1 -80 2 -94 7 -22 8 -24 12
-14 37 17 47 84 178 92 181 4 2 7 9 7 16 0 15 86 184 123 243 15 24 27 45 27
48 0 4 8 17 18 30 l17 23 7 -32 c4 -17 10 -56 13 -86z m271 -229 c5 -5 38 -11
74 -15 103 -9 184 -22 206 -34 10 -6 67 -33 125 -59 58 -26 123 -61 144 -78
60 -48 134 -126 141 -149 3 -12 12 -28 19 -36 19 -22 36 -117 31 -176 -12
-176 -105 -263 -410 -388 -125 -52 -181 -65 -346 -81 -278 -27 -617 -5 -793
51 -104 34 -241 135 -289 213 -36 57 -71 197 -75 299 -4 80 -2 97 16 125 29
47 96 92 167 112 61 17 62 17 148 -10 47 -15 89 -31 92 -37 3 -5 20 -8 38 -6
19 1 54 -9 91 -27 51 -24 71 -29 135 -28 79 2 89 3 131 21 41 17 163 93 176
111 34 44 38 -74 7 -179 -17 -55 -18 -150 -3 -183 24 -52 79 -59 133 -16 l27
22 -6 146 c-8 198 -13 253 -22 262 -4 4 -23 11 -40 16 l-33 8 40 45 c22 25 43
53 46 63 6 19 15 22 30 8z m-84 -441 c0 -63 -15 -99 -26 -63 -9 29 9 141 21
129 3 -3 5 -32 5 -66z m804 -407 c-3 -21 -9 -78 -12 -128 -5 -82 -59 -490 -69
-525 -2 -8 -6 -33 -9 -55 -3 -22 -12 -87 -20 -145 -8 -58 -20 -161 -26 -229
-5 -68 -12 -127 -15 -131 -7 -11 -26 -106 -29 -142 -3 -27 -80 -118 -101 -118
-7 0 -20 -9 -29 -19 -16 -18 -64 -35 -82 -31 -4 1 -10 -3 -14 -10 -6 -9 -69
-31 -135 -45 -115 -26 -207 -45 -240 -50 -22 -4 -51 -9 -65 -12 -140 -27 -374
-13 -545 33 -82 22 -212 110 -272 184 -28 36 -47 67 -42 71 6 3 10 14 10 25 0
28 -20 144 -26 154 -3 5 -10 42 -15 82 -5 40 -17 118 -26 173 -8 55 -21 152
-29 215 -8 63 -17 134 -21 158 l-7 42 33 -14 c40 -16 70 -10 70 15 0 25 -57
60 -86 53 -24 -6 -19 -23 -54 201 -11 66 -21 129 -23 140 -3 11 -8 47 -12 80
l-7 60 54 -50 c77 -71 84 -76 178 -127 86 -46 130 -63 185 -72 17 -3 68 -13
115 -22 112 -22 449 -29 640 -14 148 12 256 35 345 75 27 12 98 43 156 69 64
29 130 67 165 96 33 27 61 49 63 49 2 1 1 -16 -3 -36z"/>
<path d="M1796 3114 c-3 -8 -3 -26 0 -38 4 -18 11 -21 40 -18 19 2 34 7 35 11
0 3 2 16 5 27 2 16 -3 23 -19 28 -37 10 -55 7 -61 -10z"/>
<path d="M1918 3025 c-12 -59 41 -90 64 -39 15 33 0 59 -35 60 -18 1 -26 -5
-29 -21z"/>
<path d="M2034 2952 c-33 -22 -43 -82 -18 -103 22 -18 46 -1 60 41 18 55 -4
88 -42 62z"/>
<path d="M1921 2859 c-11 -32 -3 -57 21 -65 28 -8 40 7 36 47 -2 26 -8 35 -26
37 -16 2 -25 -3 -31 -19z"/>
<path d="M2004 2769 c-24 -30 -23 -39 2 -64 l27 -27 17 28 c21 31 16 54 -10
54 -10 0 -20 5 -22 11 -2 7 -7 7 -14 -2z"/>
<path d="M2626 2234 c-17 -17 -18 -19 -21 -79 -1 -22 -12 -67 -24 -99 -46
-121 -34 -257 23 -272 32 -8 54 0 91 33 27 24 30 32 28 81 -1 29 -7 60 -13 67
-7 8 -8 20 -4 26 4 7 6 33 5 58 -1 25 -3 72 -4 104 -2 48 -6 62 -26 78 -28 23
-35 23 -55 3z m22 -361 c-24 -29 -31 -12 -23 59 9 99 19 107 27 23 4 -44 3
-74 -4 -82z"/>
<path d="M3600 1350 c0 -5 -6 -10 -13 -10 -26 0 -36 -21 -25 -52 8 -21 15 -27
27 -22 9 3 24 9 34 11 17 5 18 8 21 56 2 22 -2 27 -21 27 -13 0 -23 -4 -23
-10z"/>
<path d="M3432 1257 c-23 -10 -28 -32 -13 -56 13 -20 78 -6 86 19 3 11 4 24 1
29 -9 14 -50 18 -74 8z"/>
<path d="M2090 1221 c0 -39 103 -88 121 -59 16 24 9 34 -39 56 -60 27 -82 28
-82 3z"/>
<path d="M3283 1198 c-25 -12 -29 -29 -13 -59 15 -26 42 -24 75 6 l27 26 -23
19 c-25 22 -34 23 -66 8z"/>
<path d="M2313 1163 c-20 -7 -15 -51 6 -63 33 -17 78 -12 83 8 7 26 -59 65
-89 55z"/>
<path d="M3130 1157 c-51 -26 -28 -78 31 -69 16 2 27 8 24 12 -3 5 1 10 7 13
9 3 5 13 -12 31 -22 23 -28 24 -50 13z"/>
<path d="M2932 1134 c-42 -29 -23 -54 43 -54 41 0 58 33 28 55 -24 19 -44 18
-71 -1z"/>
<path d="M2537 1123 c-12 -11 -8 -41 6 -46 6 -2 22 -1 34 4 29 11 20 49 -11
49 -13 0 -26 -3 -29 -7z"/>
<path d="M2722 1121 c-25 -15 -9 -46 24 -49 24 -2 31 1 31 15 1 36 -27 52 -55
34z"/>
</g>
</svg>
