<?xml version="1.0" standalone="no"?>
<!DOCTYPE svg PUBLIC "-//W3C//DTD SVG 20010904//EN"
 "http://www.w3.org/TR/2001/REC-SVG-20010904/DTD/svg10.dtd">
<svg version="1.0" xmlns="http://www.w3.org/2000/svg"
 width="429.000000pt" height="439.000000pt" viewBox="0 0 429.000000 439.000000"
 preserveAspectRatio="xMidYMid meet">
<metadata>
Created by potrace 1.16, written by Peter Selinger 2001-2019
</metadata>
<g transform="translate(0.000000,439.000000) scale(0.100000,-0.100000)"
fill="#000000" stroke="none">
<path d="M2185 4069 c-309 -16 -348 -18 -353 -24 -3 -3 -16 -5 -28 -5 -13 0
-25 -4 -28 -8 -3 -5 -31 -14 -63 -21 -162 -36 -193 -45 -248 -73 -64 -32 -105
-64 -105 -83 0 -6 -11 -26 -24 -44 -14 -18 -22 -39 -19 -47 3 -7 -13 -40 -36
-73 -22 -33 -43 -71 -47 -85 -3 -14 -12 -30 -20 -37 -8 -6 -14 -17 -14 -23 0
-7 -16 -31 -35 -53 -19 -23 -35 -46 -35 -51 0 -5 -7 -15 -15 -22 -8 -7 -15
-20 -15 -30 0 -10 -20 -53 -45 -96 -24 -43 -47 -92 -51 -109 -3 -16 -12 -43
-19 -60 -27 -62 -115 -381 -121 -440 -2 -22 -11 -60 -19 -85 -17 -55 -30 -191
-29 -315 0 -70 6 -110 28 -180 16 -49 32 -94 37 -99 5 -6 9 -22 9 -37 0 -15
12 -41 26 -59 15 -17 28 -43 29 -58 5 -56 20 -79 135 -208 78 -88 78 -88 151
-148 103 -84 226 -141 369 -170 14 -3 59 -12 100 -21 82 -17 171 -26 265 -29
l60 -1 0 -58 c0 -40 -4 -61 -15 -67 -8 -5 -52 -9 -98 -9 -46 0 -88 -4 -95 -9
-7 -6 -41 -15 -77 -20 -117 -17 -320 -85 -368 -122 -14 -11 -31 -20 -38 -20
-8 0 -14 -4 -14 -10 0 -5 -6 -10 -12 -11 -22 -1 -109 -117 -123 -162 -15 -52
-17 -171 -3 -229 6 -24 25 -59 42 -78 17 -19 42 -56 55 -82 34 -68 109 -126
222 -173 35 -14 73 -30 84 -34 22 -9 118 -28 186 -37 24 -3 94 -13 154 -24
135 -22 190 -25 425 -23 338 2 482 26 629 104 89 47 198 136 223 182 42 77 64
205 39 230 -6 6 -11 17 -11 25 0 8 -13 43 -30 79 -16 35 -30 68 -30 73 0 5 -3
10 -7 12 -11 4 -58 70 -66 90 -3 10 -18 20 -32 24 -14 3 -25 12 -25 20 0 8 -9
14 -19 14 -11 0 -23 5 -27 11 -4 7 -50 32 -103 57 -53 25 -99 50 -103 56 -4 6
-10 8 -13 4 -4 -4 -28 0 -53 8 -42 12 -125 30 -192 40 -14 3 -58 7 -97 11 -84
7 -92 16 -72 85 7 24 14 45 15 47 2 2 38 6 79 8 42 2 95 11 117 19 22 8 48 14
57 14 9 0 30 7 46 16 17 9 125 64 240 122 116 58 224 119 240 135 17 16 63 56
103 89 39 34 72 65 72 71 0 5 17 30 38 56 39 47 132 199 132 215 0 5 13 37 29
70 58 120 100 272 104 381 5 122 -7 289 -27 370 -8 33 -17 74 -19 90 -12 78
-22 115 -49 172 -15 34 -28 67 -28 73 0 6 -16 44 -36 83 -53 107 -119 265
-133 322 -7 28 -26 74 -43 103 -30 53 -32 79 -13 139 6 18 1 23 -27 33 -19 7
-41 25 -50 41 -9 15 -34 39 -55 52 -21 13 -44 32 -52 41 -8 10 -22 14 -35 10
-12 -3 -42 0 -66 6 -25 7 -65 16 -90 20 -25 5 -65 14 -90 20 -25 5 -58 13 -75
15 -56 10 -399 12 -560 4z m523 -63 c24 -3 48 -9 54 -12 6 -4 34 -8 63 -10 65
-3 137 -22 131 -33 -11 -16 31 -42 57 -36 28 7 72 -12 100 -43 21 -23 34 -106
28 -173 0 -8 -25 -40 -55 -70 -51 -53 -115 -85 -226 -114 -14 -4 -40 -13 -58
-21 -64 -30 -157 -37 -447 -36 -330 1 -408 5 -577 31 -85 13 -220 59 -283 96
-73 42 -103 132 -71 208 17 42 90 100 134 108 4 0 16 6 26 11 29 16 273 68
336 73 30 2 75 8 100 13 25 6 112 10 193 10 82 1 151 3 153 5 6 6 285 0 342
-7z m-1323 -448 c33 -33 106 -68 206 -97 41 -13 85 -27 99 -32 14 -5 48 -11
75 -14 28 -3 64 -7 80 -10 75 -11 319 -25 520 -28 258 -5 381 10 535 66 135
49 132 48 162 59 15 5 57 40 93 76 77 76 78 75 110 -25 19 -62 46 -131 78
-203 11 -25 21 -49 23 -55 1 -5 20 -49 43 -96 23 -47 41 -92 41 -98 0 -7 7
-26 16 -42 20 -39 11 -49 -20 -20 -38 36 -168 80 -237 81 -19 0 -40 5 -46 11
-6 6 -17 12 -24 13 -8 2 -21 6 -29 9 -58 23 -145 41 -200 40 -36 0 -68 4 -71
9 -3 5 -28 9 -55 8 -64 -1 -59 -1 -207 2 -94 2 -130 7 -136 16 -7 12 -19 12
-67 2 -73 -15 -78 -18 -63 -37 21 -25 -19 -38 -71 -23 -3 1 5 5 18 10 28 12
29 46 2 55 -11 4 -60 6 -108 5 -48 -1 -111 1 -141 3 -50 5 -132 -13 -154 -33
-5 -5 -18 1 -29 12 -18 18 -28 19 -100 13 -68 -6 -85 -4 -115 11 -33 18 -35
18 -47 2 -18 -24 -87 -47 -134 -45 -27 1 -48 -6 -67 -22 -25 -19 -31 -20 -40
-8 -17 23 -51 29 -65 12 -7 -8 -18 -15 -24 -15 -6 0 -52 -13 -101 -29 -50 -16
-91 -28 -92 -27 -10 9 133 304 165 340 10 12 27 38 37 59 11 20 23 37 27 37 5
0 8 6 8 13 0 6 9 27 21 46 l20 34 18 -29 c10 -16 31 -41 46 -56z m696 -373
c-2 -18 -64 -33 -88 -22 -36 16 -27 26 25 30 59 4 64 4 63 -8z m-406 -4 c-6
-10 -64 -26 -79 -22 -5 1 -17 -6 -27 -15 -11 -9 -19 -14 -19 -11 0 4 -12 2
-26 -3 -14 -6 -36 -7 -50 -4 -22 6 -23 8 -8 18 9 7 34 13 57 15 22 1 45 5 51
9 6 3 31 9 56 13 25 3 46 7 48 8 2 0 1 -3 -3 -8z m816 -17 c-10 -23 -63 -51
-86 -46 -32 6 -31 11 2 38 26 21 93 27 84 8z m-731 -24 c-33 -28 -69 -38 -84
-23 -6 6 87 52 109 53 5 0 -6 -13 -25 -30z m173 10 c4 -17 1 -19 -29 -14 -29
4 -34 2 -34 -15 0 -11 5 -23 10 -26 36 -22 -19 -34 -64 -14 l-25 12 34 23 c40
26 87 53 96 54 4 0 9 -9 12 -20z m760 5 c-3 -13 -30 -18 -51 -10 -14 5 -14 7
-2 16 19 11 56 8 53 -6z m-474 -16 c17 -29 -1 -42 -48 -35 -53 8 -60 23 -20
40 45 20 52 20 68 -5z m598 6 c1 -5 -11 -18 -28 -28 -19 -11 -29 -12 -25 -5 3
7 9 21 12 31 7 18 35 20 41 2z m153 -5 c18 -12 2 -12 -25 0 -13 6 -15 9 -5 9
8 0 22 -4 30 -9z m-390 -29 c0 -5 10 -11 23 -13 21 -4 21 -5 -5 -18 -23 -11
-33 -11 -55 0 -23 11 -25 14 -10 17 9 3 17 9 17 14 0 5 7 9 15 9 8 0 15 -4 15
-9z m540 -1 c0 -12 -28 -25 -36 -17 -9 9 6 27 22 27 8 0 14 -5 14 -10z m-1745
-10 c9 -15 -42 -31 -73 -23 l-27 6 30 13 c37 16 62 17 70 4z m1555 0 c13 -8
11 -11 -7 -16 -13 -4 -23 -10 -23 -15 0 -12 -31 -11 -49 0 -11 7 -7 12 15 25
34 18 44 19 64 6z m-795 -31 c12 -12 -36 -12 -69 1 -14 5 -26 14 -26 19 0 11
81 -6 95 -20z m229 22 c7 -11 -38 -31 -69 -31 -31 0 -32 14 -2 28 27 13 64 15
71 3z m-709 -11 c3 -5 2 -10 -4 -10 -5 0 -13 5 -16 10 -3 6 -2 10 4 10 5 0 13
-4 16 -10z m1559 -5 c-4 -8 -10 -15 -15 -15 -4 0 -6 7 -3 15 4 8 10 15 15 15
4 0 6 -7 3 -15z m-1653 -20 c32 -13 32 -14 9 -15 -15 0 -31 -5 -36 -10 -12
-12 -104 8 -104 21 0 21 88 23 131 4z m228 -9 c24 -9 31 -15 22 -20 -15 -9
-91 12 -91 26 0 11 28 9 69 -6z m256 -27 c15 -15 -28 -11 -70 7 -28 11 -35 18
-25 24 14 9 75 -11 95 -31z m454 27 l25 -14 -33 -16 c-27 -14 -38 -15 -67 -6
-40 13 -42 21 -11 36 31 16 58 16 86 0z m541 6 c0 -9 -44 -32 -60 -32 -21 0
-9 19 18 28 35 13 42 14 42 4z m296 -23 c33 -17 64 -35 69 -42 6 -6 -2 -3 -17
6 -16 10 -28 16 -28 13 0 -12 -85 24 -88 38 -4 21 -4 21 64 -15z m-1102 5 c28
-11 18 -27 -11 -19 -37 9 -53 25 -26 25 12 0 28 -3 37 -6z m581 -3 c3 -5 -4
-16 -16 -25 -16 -11 -27 -12 -45 -4 -22 10 -22 12 -6 24 20 16 58 18 67 5z
m-1400 -33 c13 -12 -23 -10 -46 2 -30 16 -23 31 9 18 15 -7 31 -15 37 -20z
m-210 12 c3 -5 2 -10 -4 -10 -5 0 -13 5 -16 10 -3 6 -2 10 4 10 5 0 13 -4 16
-10z m492 -2 c39 -14 41 -21 8 -36 -19 -9 -35 -7 -77 7 l-53 18 30 11 c40 14
53 14 92 0z m1448 3 c7 -13 -32 -34 -47 -25 -7 5 -5 11 7 21 22 15 32 16 40 4z
m-1219 -18 c34 -15 36 -18 16 -21 -29 -5 -94 17 -87 29 9 13 28 11 71 -8z
m674 9 c0 -10 -45 -32 -65 -32 -25 0 -17 18 13 28 35 13 52 14 52 4z m-461
-16 c32 -18 11 -29 -29 -15 -23 9 -28 14 -18 20 17 11 18 11 47 -5z m212 -7
c21 -18 21 -20 4 -14 -11 4 -28 10 -37 12 -10 3 -15 9 -12 14 8 14 20 11 45
-12z m579 2 c0 -10 -35 -21 -69 -21 -24 0 -24 0 -5 15 21 16 74 20 74 6z
m-1914 -17 c-3 -9 -6 -18 -6 -20 0 -2 -4 -4 -9 -4 -5 0 -7 9 -4 20 3 11 10 20
15 20 6 0 7 -7 4 -16z m1674 6 c13 -8 12 -11 -5 -24 -22 -17 -49 -19 -80 -7
-17 7 -16 9 12 15 18 4 35 12 38 17 8 11 16 11 35 -1z m-1101 -22 c27 -12 30
-16 16 -22 -17 -6 -99 18 -119 35 -15 13 67 2 103 -13z m229 6 c12 -8 22 -12
22 -9 0 3 5 3 11 -1 17 -10 -10 -24 -46 -24 -16 0 -37 5 -45 10 -13 8 -12 11
5 24 25 19 26 19 53 0z m262 -26 c0 -15 -53 -12 -85 5 -19 10 -19 10 0 17 21
8 85 -9 85 -22z m188 11 c33 -11 34 -29 2 -29 -32 0 -73 22 -58 32 17 10 19
10 56 -3z m760 2 c10 -6 4 -10 -18 -15 -18 -3 -40 -6 -49 -6 -13 1 -13 3 3 15
22 17 44 19 64 6z m-1771 -7 c-3 -3 -12 -4 -19 -1 -8 3 -5 6 6 6 11 1 17 -2
13 -5z m2093 -2 c0 -5 -16 -16 -35 -25 -36 -17 -49 -5 -23 21 13 13 58 16 58
4z m-1884 -18 c19 -15 19 -15 -1 -6 -11 5 -27 12 -35 15 -13 5 -13 6 1 6 8 1
24 -6 35 -15z m1318 -11 c-10 -7 -25 -11 -32 -8 -8 3 -19 5 -25 5 -7 1 -1 7
12 14 13 7 33 11 44 8 19 -5 19 -6 1 -19z m-1063 -9 c38 -19 31 -28 -16 -20
-34 7 -42 15 -28 29 9 9 10 9 44 -9z m232 4 c31 -15 34 -23 11 -32 -18 -7 -94
13 -94 25 0 20 47 23 83 7z m236 -14 c2 -2 2 -7 -2 -10 -3 -4 -23 1 -44 10
l-38 17 40 -7 c22 -3 42 -8 44 -10z m195 7 c7 -10 -23 -20 -43 -13 -11 4 -11
6 0 13 18 11 36 11 43 0z m1126 -6 c0 -8 -6 -15 -14 -15 -17 0 -28 14 -19 24
12 12 33 6 33 -9z m-610 -16 c0 -11 -12 -11 -35 -3 -12 5 -14 9 -4 14 14 9 39
2 39 -11z m300 6 c0 -9 -44 -23 -54 -18 -4 3 -2 9 5 14 15 10 49 12 49 4z
m-695 -26 c5 -5 -4 -9 -23 -9 -22 0 -32 5 -32 16 0 11 6 14 23 9 12 -4 26 -11
32 -16z m-890 1 c8 -13 -15 -13 -35 0 -12 8 -11 10 7 10 12 0 25 -4 28 -10z
m228 -6 c9 -4 17 -10 17 -15 0 -4 -13 -3 -30 2 -16 6 -30 15 -30 21 0 5 6 7
13 4 6 -3 20 -9 30 -12z m240 2 c23 -18 6 -30 -28 -22 -16 4 -22 11 -19 21 7
18 23 19 47 1z m204 -2 c-3 -3 -12 -4 -19 -1 -8 3 -5 6 6 6 11 1 17 -2 13 -5z
m768 -3 c3 -6 -11 -13 -32 -16 -21 -3 -50 -9 -65 -14 -24 -8 -26 -7 -15 10 6
10 18 20 27 23 30 8 79 6 85 -3z m-420 -46 c23 -26 49 -26 101 2 l52 27 36
-19 c19 -11 34 -21 32 -22 -4 -5 -28 -9 -96 -18 -30 -4 -62 -9 -70 -10 -66
-12 -170 -16 -170 -6 0 6 6 11 13 11 7 0 23 13 35 30 22 30 45 32 67 5z m-852
-14 c4 -4 -6 -6 -23 -3 -17 2 -33 9 -37 15 -7 11 47 1 60 -12z m182 9 c8 -13
-5 -13 -25 0 -13 8 -13 10 2 10 9 0 20 -4 23 -10z m265 -7 c14 -10 34 -16 45
-15 11 1 43 -5 70 -13 l50 -15 -70 4 c-69 3 -149 31 -139 48 8 12 17 10 44 -9z
m-615 -28 c30 -8 40 -14 25 -14 -14 0 -38 6 -55 14 -39 17 -32 17 30 0z m469
-23 c-17 -2 -34 4 -47 17 l-20 20 47 -17 c43 -15 45 -17 20 -20z m817 -705
c-13 -13 -15 1 -4 30 7 17 8 17 11 -1 2 -10 -1 -23 -7 -29z m437 -153 c-7 -15
-14 -21 -16 -15 -5 16 5 41 17 41 7 0 6 -10 -1 -26z m-2203 -74 c3 -5 1 -10
-4 -10 -6 0 -11 5 -11 10 0 6 2 10 4 10 3 0 8 -4 11 -10z m1959 -175 c-28 -22
-40 -18 -13 4 13 11 26 17 28 15 3 -2 -4 -11 -15 -19z m-1364 5 c-20 -13 -33
-13 -25 0 3 6 14 10 23 10 15 0 15 -2 2 -10z m973 -25 c-3 -9 -8 -14 -10 -11
-3 3 -2 9 2 15 9 16 15 13 8 -4z m-423 -85 c0 -5 -5 -10 -11 -10 -5 0 -7 5 -4
10 3 6 8 10 11 10 2 0 4 -4 4 -10z m4 -430 c-1 -203 -8 -307 -28 -393 -12 -51
-12 -59 4 -77 10 -11 22 -20 27 -20 44 0 75 149 76 373 1 90 2 98 21 102 28 7
62 5 116 -6 25 -5 65 -11 90 -13 80 -9 126 -22 202 -59 42 -21 80 -37 85 -37
6 0 22 -11 37 -25 15 -14 31 -25 35 -25 14 0 91 -89 91 -104 0 -8 7 -19 15
-23 16 -9 75 -145 75 -174 0 -10 4 -20 9 -24 12 -7 5 -67 -16 -129 -19 -60
-70 -111 -173 -171 -80 -48 -168 -80 -240 -89 -204 -25 -598 -26 -745 -1 -234
38 -341 60 -395 81 -150 59 -185 93 -281 273 -29 55 -38 155 -19 207 19 51 74
123 102 135 16 6 28 15 28 18 0 17 155 81 245 102 133 31 317 58 340 49 23 -9
24 -13 25 -97 0 -48 3 -101 6 -118 3 -16 5 -69 5 -117 0 -75 2 -89 18 -97 40
-22 76 50 66 129 -15 117 -18 158 -17 275 0 72 5 153 9 180 l8 50 50 -3 c28
-2 61 1 75 7 54 22 55 21 54 -179z"/>
</g>
</svg>
