<?xml version="1.0" standalone="no"?>
<!DOCTYPE svg PUBLIC "-//W3C//DTD SVG 20010904//EN"
 "http://www.w3.org/TR/2001/REC-SVG-20010904/DTD/svg10.dtd">
<svg version="1.0" xmlns="http://www.w3.org/2000/svg"
 width="435.000000pt" height="325.000000pt" viewBox="0 0 435.000000 325.000000"
 preserveAspectRatio="xMidYMid meet">
<metadata>
Created by potrace 1.16, written by Peter Selinger 2001-2019
</metadata>
<g transform="translate(0.000000,325.000000) scale(0.100000,-0.100000)"
fill="#000000" stroke="none">
<path d="M3325 2860 c-292 -38 -433 -87 -546 -190 -67 -62 -71 -68 -78 -120
-4 -31 -10 -61 -14 -68 -5 -6 -3 -20 2 -30 5 -10 12 -55 15 -100 2 -45 7 -85
9 -89 3 -5 6 -51 8 -103 1 -52 6 -105 10 -116 9 -25 16 -105 24 -264 3 -63 10
-155 15 -205 5 -49 15 -146 21 -215 12 -138 14 -160 30 -305 6 -55 15 -145 19
-200 5 -55 13 -140 19 -190 6 -49 11 -112 13 -140 2 -41 7 -55 32 -78 17 -15
42 -30 56 -33 14 -3 34 -9 45 -14 11 -5 36 -12 55 -16 19 -3 40 -9 45 -13 6
-3 19 -7 30 -8 44 -5 232 -17 270 -16 127 1 256 37 322 90 23 18 48 33 57 33
9 0 16 4 16 10 0 5 18 26 40 46 22 21 40 45 40 54 0 9 3 20 7 24 4 3 8 17 10
29 1 12 7 40 13 62 16 68 40 254 46 375 4 63 10 124 13 135 4 11 8 54 10 95 1
41 8 118 16 170 7 52 16 136 20 185 4 50 11 119 16 155 6 36 12 81 15 100 2
19 8 67 14 105 5 39 12 102 15 140 7 95 41 345 48 351 3 3 -4 32 -14 63 -22
63 -114 185 -149 196 -11 3 -20 11 -20 16 0 5 -11 9 -25 9 -18 0 -26 7 -31 25
-5 18 -14 26 -40 30 -19 3 -49 7 -66 10 -18 3 -44 7 -58 10 -75 15 -255 13
-395 -5z m396 -71 c56 -10 66 -15 62 -30 -6 -20 41 -48 70 -41 25 5 76 -29
119 -82 35 -42 37 -48 31 -92 -11 -86 -86 -144 -248 -191 -75 -22 -92 -23
-285 -18 -210 4 -376 22 -465 49 -27 8 -66 18 -85 21 -48 7 -103 42 -96 61 6
16 -13 64 -26 64 -17 0 -7 31 22 63 80 92 247 160 438 178 51 5 97 11 101 13
3 3 36 8 71 11 36 4 67 9 70 12 7 8 145 -3 221 -18z m274 -447 c-10 -51 -28
-177 -30 -205 -1 -18 -2 -66 -3 -107 -2 -47 -6 -70 -11 -61 -7 10 -15 6 -40
-19 -17 -18 -31 -38 -31 -43 0 -15 31 -47 45 -47 7 0 15 -7 19 -15 3 -8 1 -15
-4 -15 -6 0 -10 5 -10 10 0 18 -20 11 -50 -18 -16 -16 -26 -33 -22 -38 4 -4
-2 -2 -12 6 -18 13 -19 13 -14 -2 5 -11 2 -15 -10 -13 -9 1 -20 -3 -24 -9 -4
-6 -11 -1 -17 14 -5 14 -10 19 -10 12 -1 -7 -8 -20 -16 -28 -13 -14 -15 -12
-15 13 0 44 20 66 50 55 14 -4 39 -6 55 -3 36 7 46 43 19 72 -18 20 -54 26
-54 9 0 -5 -11 -10 -25 -10 -27 0 -28 10 -4 84 11 35 -6 52 -48 47 -6 -1 -14
3 -18 9 -3 5 -12 10 -18 10 -7 0 -4 -7 6 -14 17 -13 14 -52 -3 -41 -4 3 -10
-2 -13 -10 -4 -9 -1 -12 9 -8 12 4 13 1 4 -23 -6 -15 -9 -33 -6 -41 3 -7 -1
-13 -10 -13 -18 0 -37 -47 -30 -76 4 -13 2 -26 -4 -29 -5 -3 -10 3 -10 15 0
26 -42 66 -75 72 -25 5 -30 -4 -28 -50 1 -7 -5 -11 -13 -8 -18 7 -18 -3 1 -24
14 -16 14 -18 1 -23 -11 -4 -21 6 -34 37 -23 50 -52 63 -76 34 -9 -10 -14 -23
-11 -28 3 -5 0 -12 -6 -16 -9 -5 -10 26 -5 127 4 74 9 136 12 138 7 7 -28 41
-43 41 -8 0 -11 5 -8 10 3 6 2 10 -2 10 -14 0 -45 -82 -37 -99 3 -9 8 -57 9
-108 3 -89 3 -92 -16 -80 -15 9 -23 9 -39 -1 -22 -14 -47 -5 -84 29 -18 17
-22 17 -42 4 -19 -12 -26 -12 -57 4 -20 10 -34 21 -31 24 3 2 5 32 6 66 0 34
5 64 9 67 16 10 9 49 -11 61 -28 18 -66 1 -73 -32 -2 -15 0 -43 5 -62 5 -19 8
-46 6 -61 -2 -22 -7 -26 -26 -24 -14 2 -30 -4 -39 -15 -8 -10 -12 -12 -8 -5 4
7 0 12 -9 12 -9 0 -16 6 -16 13 0 7 -9 18 -19 24 -11 7 -20 20 -19 30 0 10 -2
34 -5 53 -3 19 -9 71 -12 115 -4 44 -9 82 -10 85 -2 3 -7 32 -10 64 -7 55 -6
58 11 52 11 -4 46 -14 79 -21 33 -7 78 -17 100 -23 22 -6 103 -18 180 -27 77
-10 151 -19 165 -21 78 -11 316 -4 387 12 80 17 215 72 227 93 10 16 25 4 21
-17z m-222 -472 c-3 -11 -7 -20 -9 -20 -2 0 -4 9 -4 20 0 11 4 20 9 20 5 0 7
-9 4 -20z m-837 -35 c4 -9 19 -15 35 -15 22 0 29 -5 29 -19 0 -26 -37 -20 -57
9 -18 25 -53 27 -54 3 0 -15 -2 -15 -8 2 -6 15 -3 21 13 27 33 10 36 9 42 -7z
m202 -63 c-2 -14 -9 -27 -16 -28 -7 -1 -8 0 -2 3 18 9 11 32 -10 30 -11 -1
-20 -5 -20 -9 0 -4 -7 -5 -15 -2 -23 9 -19 43 4 37 10 -3 22 0 26 7 11 19 36
-10 33 -38z m-225 11 c-7 -2 -19 -2 -25 0 -7 3 -2 5 12 5 14 0 19 -2 13 -5z
m317 -12 c9 -1 6 -6 -9 -12 -14 -5 -32 -7 -40 -3 -9 4 -20 6 -24 5 -5 -1 -6 2
-3 7 5 8 34 9 76 3z m190 -8 c0 -7 -7 -13 -15 -13 -8 0 -15 6 -15 13 0 8 7 14
15 14 8 0 15 -6 15 -14z m-83 -9 c-3 -3 -12 -4 -19 -1 -8 3 -5 6 6 6 11 1 17
-2 13 -5z m573 0 c0 -3 -7 -12 -15 -20 -19 -19 -40 -9 -22 11 12 14 37 20 37
9z m-976 -66 c-10 -16 -19 -7 -20 18 -2 23 -1 24 11 7 7 -10 11 -21 9 -25z
m683 36 c-3 -3 -12 -4 -19 -1 -8 3 -5 6 6 6 11 1 17 -2 13 -5z m-630 -11 c-4
-3 0 -11 8 -17 13 -9 10 -11 -14 -11 -31 0 -37 15 -11 27 20 9 25 9 17 1z
m673 -13 c0 -5 -4 -10 -10 -10 -5 0 -10 5 -10 10 0 6 5 10 10 10 6 0 10 -4 10
-10z m95 -8 c-3 -3 -11 0 -18 7 -9 10 -8 11 6 5 10 -3 15 -9 12 -12z m155 2
c0 -8 -5 -12 -10 -9 -6 4 -8 11 -5 16 9 14 15 11 15 -7z m-785 -24 c-6 -9 -43
-2 -50 9 -2 4 9 5 25 3 17 -2 28 -8 25 -12z m-160 -41 c-3 -4 1 -10 7 -12 7
-3 2 -6 -12 -7 l-25 -2 28 -10 c15 -5 24 -14 21 -20 -4 -7 -9 -6 -14 2 -4 7
-20 13 -35 13 -23 0 -25 1 -12 9 10 5 17 17 17 27 0 20 -25 35 -41 25 -5 -3
-9 2 -9 11 0 14 6 13 40 -6 21 -12 37 -26 35 -30z m695 43 c0 -5 -7 -9 -15 -9
-8 0 -15 4 -15 9 0 4 7 8 15 8 8 0 15 -4 15 -8z m-394 -20 c-10 -2 -22 0 -28
6 -6 6 0 7 19 4 21 -5 23 -7 9 -10z m305 1 c11 -15 11 -16 -1 -5 -19 16 -31
15 -24 -2 3 -8 1 -17 -5 -21 -12 -7 -15 27 -4 38 10 11 20 8 34 -10z m314 -3
c3 -5 -1 -10 -9 -10 -8 0 -18 5 -21 10 -3 6 1 10 9 10 8 0 18 -4 21 -10z
m-874 -43 c-6 -6 -11 -9 -12 -6 0 2 -2 14 -5 27 -4 22 -3 22 12 7 13 -12 14
-19 5 -28z m499 23 c-6 -11 -15 -20 -20 -20 -14 0 -12 6 6 24 21 22 27 20 14
-4z m228 -15 c-3 -3 -9 2 -12 12 -6 14 -5 15 5 6 7 -7 10 -15 7 -18z m126 0
c3 -9 0 -15 -9 -15 -9 0 -12 6 -9 15 4 8 7 15 9 15 2 0 5 -7 9 -15z m-289 -5
c-3 -5 -12 -10 -18 -10 -7 0 -6 4 3 10 19 12 23 12 15 0z m27 -22 c-7 -7 -10
-5 -7 8 5 29 6 30 12 16 3 -8 1 -18 -5 -24z m-465 0 c-3 -8 -6 -5 -6 6 -1 11
2 17 5 13 3 -3 4 -12 1 -19z m63 12 c0 -5 -4 -10 -10 -10 -5 0 -10 5 -10 10 0
6 5 10 10 10 6 0 10 -4 10 -10z m447 4 c-3 -3 -12 -4 -19 -1 -8 3 -5 6 6 6 11
1 17 -2 13 -5z m-4 -29 c-3 -9 -8 -14 -10 -11 -3 3 -2 9 2 15 9 16 15 13 8 -4z
m144 0 c0 -8 -6 -15 -14 -15 -7 0 -13 -8 -12 -17 0 -11 3 -13 6 -5 2 6 9 12
15 12 6 0 6 -6 -2 -15 -7 -8 -18 -15 -26 -15 -25 0 -24 18 3 44 30 31 30 30
30 11z m-867 -27 c0 -5 5 -6 12 -2 7 4 8 3 4 -4 -12 -19 -42 -14 -43 7 -1 14
3 18 13 14 8 -3 14 -9 14 -15z m67 6 c-3 -3 -12 -4 -19 -1 -8 3 -5 6 6 6 11 1
17 -2 13 -5z m244 -25 c8 0 3 -5 -10 -10 -13 -5 -26 -7 -29 -4 -3 3 0 5 7 5 9
0 9 6 1 23 -10 20 -10 20 3 5 8 -10 20 -18 28 -19z m236 15 c-3 -3 -12 -4 -19
-1 -8 3 -5 6 6 6 11 1 17 -2 13 -5z m-494 -42 c-5 -22 -4 -25 8 -16 11 9 17 9
26 -1 10 -11 5 -13 -27 -10 -22 2 -47 9 -57 15 -17 11 -17 11 0 6 12 -4 21 2
29 19 14 31 30 22 21 -13z m140 9 c-2 -10 3 -25 12 -35 9 -9 12 -16 6 -16 -7
0 -7 -8 0 -27 9 -25 8 -26 -4 -13 -18 18 -35 126 -19 116 6 -3 8 -14 5 -25z
m452 19 c3 -5 1 -10 -4 -10 -6 0 -11 5 -11 10 0 6 2 10 4 10 3 0 8 -4 11 -10z
m-419 -15 c-3 -8 -1 -15 4 -15 6 0 10 7 10 16 0 8 5 12 10 9 6 -4 8 -11 5 -16
-5 -8 32 -14 58 -10 4 0 7 -3 7 -9 0 -8 -58 -3 -69 6 -2 2 -12 -1 -22 -7 -16
-8 -19 -6 -17 16 1 14 6 25 11 25 5 0 7 -7 3 -15z m591 -23 c-9 -2 -15 -7 -12
-12 3 -4 -2 -10 -10 -14 -8 -3 -14 0 -12 7 3 18 30 36 42 29 5 -4 2 -8 -8 -10z
m73 8 c0 -5 -7 -7 -15 -4 -8 4 -15 8 -15 10 0 2 7 4 15 4 8 0 15 -4 15 -10z
m-384 -27 c5 3 23 -1 39 -8 28 -13 28 -14 5 -12 -18 2 -25 -3 -24 -15 1 -10
-5 -18 -13 -18 -8 0 -11 5 -8 10 3 6 1 10 -5 10 -6 0 -8 5 -4 12 4 6 -3 4 -17
-5 -13 -9 -28 -17 -34 -17 -5 1 1 7 15 15 14 8 19 14 12 15 -10 0 -10 3 0 14
8 9 15 10 19 4 4 -6 11 -8 15 -5z m-506 -3 c0 -5 -5 -10 -11 -10 -5 0 -7 5 -4
10 3 6 8 10 11 10 2 0 4 -4 4 -10z m606 -7 c13 -13 19 -14 22 -5 2 6 13 11 25
11 17 -1 18 -2 5 -6 -21 -5 -24 -29 -5 -36 7 -3 5 -6 -5 -6 -10 -1 -18 4 -18
9 0 6 -4 10 -10 10 -5 0 -9 -5 -7 -11 1 -6 -5 -14 -13 -17 -8 -2 -12 -1 -8 3
4 5 3 14 -3 22 -9 10 -8 13 1 13 10 0 10 3 0 15 -17 21 -5 19 16 -2z m-476 3
c0 -2 -7 -7 -16 -10 -8 -3 -12 -2 -9 4 6 10 25 14 25 6z m253 -13 c3 -5 -5 -8
-18 -8 -13 0 -21 3 -18 8 2 4 10 7 18 7 8 0 16 -3 18 -7z m-383 -13 c0 -5 7
-10 16 -10 9 0 13 5 9 13 -4 6 2 2 12 -11 10 -13 22 -20 26 -16 4 4 2 13 -4
21 -7 8 -8 13 -1 13 14 0 22 -24 12 -39 -6 -10 -12 -10 -28 -2 -29 16 -43 14
-40 -5 2 -10 -3 -19 -9 -21 -9 -3 -13 7 -13 31 0 20 5 36 10 36 6 0 10 -4 10
-10z m837 4 c-3 -3 -12 -4 -19 -1 -8 3 -5 6 6 6 11 1 17 -2 13 -5z m-717 -35
c-8 -14 -7 -19 2 -19 9 0 9 -3 -2 -10 -20 -13 -40 -13 -40 1 0 5 5 7 10 4 6
-3 10 -1 10 4 0 6 -4 11 -10 11 -5 0 -2 8 8 18 21 23 36 17 22 -9z m178 5 c-1
-5 -9 -9 -16 -10 -10 -2 -11 1 -1 12 12 14 24 13 17 -2z m87 6 c-3 -5 -11 -10
-16 -10 -6 0 -7 5 -4 10 3 6 11 10 16 10 6 0 7 -4 4 -10z m311 -6 c-3 -9 -6
-17 -6 -20 0 -2 -7 -1 -15 2 -11 5 -12 9 -2 20 16 18 30 17 23 -2z m102 10
c-3 -3 -2 -21 2 -40 6 -27 5 -34 -7 -34 -11 0 -13 7 -8 30 5 25 4 29 -9 24 -9
-3 -16 -2 -16 4 0 6 6 13 13 15 17 7 31 8 25 1z m35 -23 c-4 -3 -11 -10 -15
-15 -5 -5 -8 0 -8 12 0 15 4 20 16 15 9 -3 12 -9 7 -12z m-563 -33 c0 -10 4
-17 10 -13 5 3 7 12 3 20 -3 8 0 15 6 15 6 0 11 -7 11 -15 0 -8 9 -15 20 -15
11 0 20 -5 20 -11 0 -5 5 -7 10 -4 14 8 50 -4 50 -17 0 -5 -7 -8 -15 -4 -21 8
-38 -27 -22 -45 10 -12 10 -12 -2 -2 -12 10 -19 6 -38 -19 -16 -22 -23 -27
-23 -15 0 9 6 17 13 18 10 0 10 2 0 6 -20 8 -15 23 7 23 23 0 23 0 10 34 -10
26 -34 35 -45 16 -11 -18 6 -32 23 -18 14 12 14 10 2 -11 -11 -21 -14 -22 -22
-8 -11 21 -50 23 -42 3 3 -7 13 -13 22 -12 14 1 17 -9 18 -53 l1 -54 -17 34
c-15 30 -15 35 -1 47 12 10 8 12 -25 12 -21 0 -34 4 -28 8 6 4 13 15 17 25 3
9 13 17 22 17 19 0 19 -1 -1 46 -15 35 -15 37 0 25 9 -7 16 -22 16 -33z m216
30 c4 -7 3 -8 -4 -4 -7 4 -12 2 -12 -3 0 -16 -17 -13 -24 4 -7 18 29 21 40 3z
m38 -4 c4 -10 1 -14 -6 -12 -15 5 -23 28 -10 28 5 0 13 -7 16 -16z m-90 -2 c2
-4 -9 -8 -25 -9 -16 -1 -28 1 -25 5 6 10 44 13 50 4z m135 -1 c7 -5 9 -11 5
-14 -5 -3 -15 1 -22 9 -14 16 -5 18 17 5z m-239 -11 c0 -5 -2 -10 -4 -10 -3 0
-8 5 -11 10 -3 6 -1 10 4 10 6 0 11 -4 11 -10z m333 -9 c-3 -13 -10 -18 -20
-14 -14 5 -13 8 3 20 23 17 23 17 17 -6z m-640 -6 c-3 -9 -8 -14 -10 -11 -3 3
-2 9 2 15 9 16 15 13 8 -4z m215 -8 c2 -10 0 -16 -5 -15 -4 2 -10 -1 -11 -7
-10 -28 -42 -47 -42 -25 0 6 6 10 14 10 9 0 13 10 12 30 -2 23 2 30 13 28 9
-2 17 -11 19 -21z m-183 3 c-3 -5 -11 -10 -16 -10 -6 0 -7 5 -4 10 3 6 11 10
16 10 6 0 7 -4 4 -10z m462 -8 c-20 -21 -22 -52 -5 -52 6 0 8 -3 5 -6 -13 -13
-35 17 -29 38 5 19 4 20 -10 7 -9 -7 -14 -17 -11 -21 2 -5 0 -8 -5 -8 -6 0
-12 7 -16 15 -3 9 0 15 10 15 8 0 13 4 9 9 -3 6 5 8 19 5 14 -2 28 0 31 6 3 5
9 10 12 10 3 0 -1 -8 -10 -18z m408 -3 c7 -20 -14 -99 -25 -99 -4 0 -6 10 -5
23 3 29 -5 48 -16 41 -5 -3 -9 0 -9 5 0 6 12 11 26 11 14 0 23 4 19 10 -4 6
-15 6 -30 0 -21 -8 -25 -6 -25 8 0 25 57 26 65 1z m-844 -8 c-10 -6 -8 -10 5
-15 16 -6 16 -8 4 -16 -13 -8 -12 -10 3 -10 12 0 17 8 18 28 l1 27 7 -25 c6
-20 3 -27 -16 -36 -14 -6 -24 -15 -23 -20 1 -4 -3 -10 -9 -12 -6 -2 -11 3 -11
11 0 8 -7 18 -16 21 -22 8 -33 -3 -14 -14 12 -8 12 -10 -3 -16 -21 -8 -22 -24
-1 -24 9 0 12 -5 8 -12 -4 -7 -3 -8 4 -4 6 4 22 0 34 -8 23 -15 61 -6 45 11
-5 4 -11 2 -15 -4 -5 -8 -13 -9 -22 -3 -13 8 -12 10 3 10 10 0 16 4 13 9 -4 5
3 7 13 4 26 -7 31 -45 10 -71 -16 -21 -17 -21 -22 -2 -4 15 -12 18 -37 15 -32
-4 -55 -15 -31 -15 9 0 9 -5 1 -21 -10 -17 -8 -21 9 -26 12 -3 17 -11 14 -19
-7 -20 -33 -17 -34 4 0 9 -2 24 -5 32 -15 58 -16 73 -5 66 17 -11 62 -15 56
-6 -3 4 -20 11 -39 14 -27 5 -33 11 -33 31 0 16 5 25 16 26 12 0 11 3 -5 10
-14 7 -21 20 -21 40 0 16 5 28 10 26 13 -4 18 -37 6 -37 -6 0 -7 -5 -4 -10 5
-8 11 -7 20 0 8 7 19 9 25 5 5 -3 10 -1 10 5 0 6 5 8 12 4 7 -5 9 -2 5 8 -6
16 12 42 22 32 3 -3 0 -9 -8 -13z m-34 -7 c-3 -3 -12 -4 -19 -1 -8 3 -5 6 6 6
11 1 17 -2 13 -5z m570 -11 c0 -8 -7 -11 -14 -9 -8 3 -12 2 -9 -2 5 -9 -33
-46 -40 -39 -3 3 2 12 11 21 12 12 13 16 3 16 -9 1 -8 5 4 14 22 17 45 16 45
-1z m173 13 c0 -2 -7 -7 -16 -10 -8 -3 -12 -2 -9 4 6 10 25 14 25 6z m62 -38
c-3 -12 -7 -17 -10 -10 -2 7 -8 9 -14 6 -6 -4 -5 3 2 15 14 27 30 19 22 -11z
m-457 -7 c-6 -5 -25 10 -25 20 0 5 6 4 14 -3 8 -7 12 -15 11 -17z m285 -1 c0
-5 -7 -7 -15 -4 -8 4 -15 8 -15 10 0 2 7 4 15 4 8 0 15 -4 15 -10z m107 -5 c0
-8 -4 -12 -9 -9 -5 3 -6 10 -3 15 9 13 12 11 12 -6z m-657 -15 c0 -13 -5 -18
-15 -14 -16 7 -19 17 -8 27 12 13 23 7 23 -13z m270 1 c0 -6 -4 -13 -10 -16
-5 -3 -10 1 -10 9 0 9 5 16 10 16 6 0 10 -4 10 -9z m97 3 c-3 -3 -12 -4 -19
-1 -8 3 -5 6 6 6 11 1 17 -2 13 -5z m43 -4 c0 -5 -5 -10 -11 -10 -5 0 -7 5 -4
10 3 6 8 10 11 10 2 0 4 -4 4 -10z m60 -20 c0 -10 7 -21 16 -24 16 -6 11 -26
-7 -26 -6 0 -8 4 -5 9 4 5 2 11 -3 13 -6 1 -12 15 -15 31 -3 16 -1 25 5 22 5
-4 9 -14 9 -25z m53 16 c4 -10 1 -13 -9 -9 -7 3 -14 0 -14 -6 0 -6 -5 -11 -12
-11 -6 0 -3 9 7 20 22 24 21 24 28 6z m187 3 c0 -8 5 -8 15 1 12 10 16 9 21
-5 4 -9 2 -21 -5 -28 -18 -18 -13 -27 17 -28 16 -1 20 -3 10 -6 -10 -2 -18
-12 -19 -21 0 -14 -3 -13 -16 6 -19 27 -38 30 -23 3 14 -26 13 -28 -10 -34
-13 -3 -18 -10 -14 -21 6 -14 9 -14 36 2 17 9 33 25 36 35 7 25 20 21 16 -5
-2 -13 -6 -44 -9 -70 -6 -43 -8 -47 -32 -45 -18 1 -28 -4 -34 -19 -6 -18 -4
-21 11 -17 11 3 20 11 22 19 2 8 8 10 16 5 10 -6 12 -21 7 -54 -6 -41 -9 -45
-26 -34 -14 9 -16 14 -6 26 10 12 7 13 -20 8 -21 -4 -33 -2 -37 6 -2 7 -5 -3
-5 -20 -1 -18 4 -33 9 -33 5 0 9 -5 8 -11 -2 -6 2 -13 9 -16 7 -3 9 3 6 16 -3
12 -10 21 -16 21 -6 0 -8 3 -4 6 8 8 43 -18 42 -33 0 -6 -3 -15 -7 -19 -14
-13 -8 -34 9 -34 9 0 14 -3 10 -6 -3 -3 -20 -3 -38 1 -21 5 -27 10 -19 15 23
14 2 29 -24 17 -13 -7 -22 -15 -19 -19 2 -5 9 -6 14 -3 5 4 9 -4 9 -17 -1 -20
-2 -21 -11 -5 -5 9 -17 17 -25 17 -9 0 -13 5 -9 13 4 6 0 4 -8 -5 -8 -10 -17
-15 -20 -11 -11 10 -8 93 3 93 5 0 7 -7 4 -15 -5 -11 -2 -13 10 -9 24 9 17 50
-8 46 -15 -3 -17 0 -11 15 14 34 26 96 21 110 -3 7 -1 13 3 13 5 0 11 -6 13
-12 3 -7 7 -2 11 11 4 17 2 21 -9 17 -18 -7 -19 35 -2 52 9 9 9 12 0 12 -9 0
-10 5 -3 19 6 10 7 22 3 26 -4 5 1 5 11 2 10 -4 17 -1 18 6 0 9 2 9 6 -1 2 -6
10 -9 15 -6 7 4 8 2 4 -5 -4 -6 -11 -9 -16 -6 -4 3 -14 -3 -21 -12 -12 -15
-12 -16 6 -9 20 8 24 9 78 21 15 3 27 11 27 17 0 9 -3 9 -12 0 -19 -19 -48
-15 -48 8 0 11 7 20 15 20 8 0 15 -5 15 -11z m-630 -8 c0 -5 -7 -11 -14 -14
-10 -4 -13 -1 -9 9 6 15 23 19 23 5z m26 -6 c-3 -8 0 -15 5 -15 7 0 4 -11 -6
-26 -9 -15 -12 -23 -6 -20 17 11 13 -16 -7 -42 -15 -20 -18 -20 -18 -5 -1 10
-5 27 -9 37 -6 14 -5 17 3 12 7 -4 12 -3 12 3 0 5 -6 11 -12 14 -8 3 -4 8 10
14 13 5 23 12 23 16 -2 18 0 27 5 27 3 0 4 -7 0 -15z m111 -47 c-2 -13 -4 -5
-4 17 -1 22 1 32 4 23 2 -10 2 -28 0 -40z m179 25 c-7 -7 -26 7 -26 19 0 6 6
6 15 -2 9 -7 13 -15 11 -17z m49 7 c3 -5 -3 -10 -14 -10 -12 0 -21 5 -21 10 0
6 6 10 14 10 8 0 18 -4 21 -10z m-195 -25 c0 -8 -4 -15 -10 -15 -5 0 -10 7
-10 15 0 8 5 15 10 15 6 0 10 -7 10 -15z m82 -27 c-6 -6 -12 -6 -16 1 -4 6 -2
11 3 11 6 0 12 8 12 18 1 15 2 15 6 -2 3 -10 0 -23 -5 -28z m38 32 c0 -5 -2
-10 -4 -10 -3 0 -8 5 -11 10 -3 6 -1 10 4 10 6 0 11 -4 11 -10z m43 -16 c-5
-13 -2 -15 13 -10 10 3 25 2 32 -3 10 -6 10 -10 -3 -21 -10 -8 -15 -9 -15 -1
0 6 -7 11 -16 11 -13 0 -14 -3 -4 -15 12 -15 60 -17 60 -3 0 4 4 8 10 8 5 0 7
-7 4 -15 -4 -9 -11 -15 -18 -14 -26 3 -46 -2 -46 -11 0 -5 12 -11 28 -11 20
-1 22 -2 7 -6 -11 -3 -28 -12 -37 -21 -11 -9 -18 -11 -18 -4 0 7 -9 12 -21 12
-11 0 -18 -4 -14 -9 3 -6 -3 -9 -14 -8 -15 1 -17 4 -9 14 8 10 4 13 -17 13
-22 0 -25 3 -16 13 6 8 8 17 4 20 -3 4 2 7 13 7 16 0 17 2 4 10 -13 8 -13 11
2 26 10 10 23 14 34 10 14 -5 15 -9 6 -15 -8 -4 -19 -20 -27 -34 -12 -23 -11
-25 5 -22 10 2 29 -3 43 -10 24 -12 25 -12 23 10 -1 13 -8 31 -16 39 -7 9 -9
16 -5 16 5 0 0 9 -10 20 -18 19 -17 20 3 20 16 0 20 -4 15 -16z m-286 -16 c-3
-8 -6 -5 -6 6 -1 11 2 17 5 13 3 -3 4 -12 1 -19z m68 12 c-3 -5 -12 -10 -18
-10 -7 0 -6 4 3 10 19 12 23 12 15 0z m10 -29 c-19 -8 -19 -8 0 -19 20 -11 20
-11 0 -12 -11 0 -26 4 -34 9 -11 7 -10 11 5 20 11 6 26 10 34 10 10 0 8 -3 -5
-8z m332 -7 c-3 -3 -12 -4 -19 -1 -8 3 -5 6 6 6 11 1 17 -2 13 -5z m-397 -8
c0 -2 -6 -9 -13 -15 -10 -8 -14 -7 -14 4 0 8 6 15 14 15 7 0 13 -2 13 -4z
m117 -43 c-3 -10 -5 -2 -5 17 0 19 2 27 5 18 2 -10 2 -26 0 -35z m-250 12 c0
-8 -5 -15 -11 -15 -6 0 -4 -5 4 -10 13 -9 13 -10 0 -10 -13 0 -13 -1 0 -10 13
-8 13 -13 -2 -37 -22 -36 -36 -40 -48 -11 -9 20 -10 20 -7 2 4 -17 0 -20 -19
-16 -24 4 -32 26 -14 37 6 4 8 11 5 16 -4 5 1 9 9 9 9 0 16 5 16 11 0 6 9 9
20 6 11 -3 20 -1 20 3 0 5 -8 10 -17 13 -15 3 -14 6 7 15 34 15 37 14 37 -3z
m509 -44 c-10 -11 -12 -21 -7 -27 15 -14 -8 -174 -25 -174 -7 0 -15 -4 -18 -9
-4 -5 3 -7 14 -4 24 6 25 1 4 -38 -8 -17 -16 -53 -17 -80 -2 -42 -5 -49 -22
-49 -19 -1 -18 -2 3 -13 12 -7 19 -16 16 -20 -12 -11 -26 -8 -18 4 4 7 1 10
-7 7 -8 -3 -13 -10 -12 -16 2 -6 -6 -14 -17 -17 -24 -8 -45 -41 -27 -42 7 0
21 -4 31 -9 15 -6 17 -4 11 7 -6 11 -5 11 5 2 7 -6 14 -23 15 -37 2 -14 10
-32 18 -41 18 -18 31 -20 21 -3 -5 8 -2 9 10 5 13 -5 19 -1 23 13 3 11 9 20
13 20 4 0 10 9 13 21 3 12 10 18 16 14 6 -3 9 -11 6 -16 -4 -5 6 -9 20 -9 14
0 24 3 22 8 -3 4 10 7 29 7 37 0 39 -2 21 -26 -17 -23 -56 -41 -69 -33 -7 5
-8 3 -3 -6 6 -10 3 -12 -13 -8 -15 4 -19 2 -15 -8 3 -8 -1 -14 -10 -14 -8 0
-28 -7 -43 -15 -36 -19 -68 -20 -58 -2 6 9 4 9 -7 1 -37 -29 -216 -27 -205 2
3 8 1 14 -4 14 -6 0 -10 -7 -10 -16 0 -13 -3 -14 -15 -4 -8 7 -13 15 -11 19 2
3 -2 12 -10 19 -17 15 -18 8 -4 -19 12 -22 11 -23 -27 -7 -15 6 -41 12 -58 13
-16 2 -36 3 -43 4 -22 2 5 38 34 45 22 6 25 11 21 32 -4 24 -2 26 24 22 30 -5
43 10 32 39 -5 14 -8 13 -14 -5 -8 -20 -48 -32 -50 -14 0 4 -2 15 -4 25 -2 9
1 17 7 17 5 0 20 8 33 18 21 17 22 19 7 30 -15 11 -15 12 3 11 35 -2 45 1 45
12 0 7 -10 9 -25 6 -14 -2 -23 -2 -20 1 2 3 -1 12 -8 20 -10 13 -9 15 8 8 11
-5 29 -11 40 -14 17 -5 18 -3 7 11 -11 13 -10 17 7 27 12 6 21 16 21 22 0 7
-4 7 -14 -1 -9 -8 -16 -8 -20 -2 -8 13 60 65 74 56 18 -11 11 -23 -12 -17 -19
5 -21 2 -15 -27 6 -27 3 -33 -15 -40 l-22 -8 22 -5 c12 -4 20 -2 16 3 -3 5 -1
9 4 9 5 0 14 10 21 23 9 18 10 7 5 -56 -3 -43 -10 -92 -14 -108 -7 -22 -5 -29
5 -29 7 0 15 -6 17 -12 3 -9 12 -8 31 5 36 23 46 21 42 -8 -1 -14 1 -25 5 -25
12 0 19 64 8 80 -8 12 -9 12 -4 -2 4 -12 0 -18 -10 -18 -11 0 -14 6 -10 16 3
9 6 20 6 25 0 5 9 9 20 9 11 0 19 -5 18 -12 -2 -6 6 -13 17 -15 12 -3 16 -1 9
4 -6 4 -14 18 -18 29 -5 16 -2 23 14 27 11 3 18 1 14 -4 -7 -12 3 -11 27 2 23
12 18 40 -13 73 -18 19 -19 19 -12 2 5 -14 4 -17 -4 -12 -7 4 -12 3 -12 -2 0
-6 7 -13 16 -16 28 -11 5 -23 -37 -20 l-42 4 19 -22 c10 -12 13 -18 7 -14 -8
4 -13 2 -13 -5 0 -7 -3 -9 -7 -5 -4 4 -8 24 -8 45 0 33 2 37 20 33 18 -4 17
-2 -5 17 -14 12 -20 21 -15 20 28 -4 45 3 45 16 0 8 6 15 14 15 7 0 19 7 26
15 19 23 1 18 -36 -10 -38 -29 -50 -31 -58 -9 -5 13 -2 15 13 11 26 -6 36 20
10 28 -27 9 -24 25 6 25 15 0 25 6 25 14 0 8 7 16 15 20 8 3 15 13 15 22 0 14
2 15 17 3 13 -11 17 -11 21 -1 3 9 7 10 17 2 11 -9 12 -7 8 9 -4 17 -11 20
-32 15 -18 -4 -22 -3 -12 4 8 6 11 18 6 31 -4 14 -1 23 9 27 9 3 16 12 16 20
0 8 4 14 9 14 6 0 8 -9 6 -19 -2 -14 1 -18 10 -15 15 6 9 33 -9 47 -7 5 -6 7
4 6 31 -3 40 2 41 24 2 22 2 22 6 -1 3 -13 -2 -31 -11 -41z m-377 18 c-11 -7
-12 -11 -1 -17 10 -7 9 -12 -4 -23 -16 -12 -17 -12 -12 3 9 23 -19 32 -31 9
-9 -15 -4 -20 27 -29 24 -8 40 -8 46 -2 6 6 17 10 26 10 13 0 13 -2 0 -11 -12
-8 -10 -10 10 -8 49 3 52 0 48 -31 -3 -16 0 -30 5 -30 6 0 7 -3 4 -6 -4 -4
-13 -1 -22 6 -12 10 -13 16 -3 27 9 11 8 13 -3 11 -7 -2 -20 -15 -28 -30 -10
-20 -21 -28 -41 -28 -16 0 -38 -10 -52 -25 -17 -17 -25 -20 -25 -10 0 8 4 15
9 15 4 0 8 5 8 10 0 6 -7 10 -15 10 -13 0 -15 13 -13 79 l3 79 28 -3 c15 -2
27 1 27 6 0 6 5 7 11 3 8 -4 7 -9 -2 -15z m96 -10 c-10 -15 -25 -10 -19 6 4 8
10 12 15 9 5 -3 7 -10 4 -15z m-25 -14 c11 -13 8 -15 -14 -15 -25 0 -33 10
-19 23 10 11 19 8 33 -8z m183 -8 c60 4 61 4 44 -15 -9 -10 -17 -24 -17 -30 0
-7 -4 -12 -10 -12 -5 0 -10 4 -10 10 0 5 -6 7 -13 4 -8 -3 -20 2 -27 10 -7 9
-17 13 -22 9 -6 -3 0 -12 13 -20 24 -13 24 -13 -6 -7 -16 4 -31 7 -32 8 -1 1
1 15 5 31 3 17 7 25 9 18 3 -7 24 -10 66 -6z m-463 -87 c-7 -13 -5 -21 5 -30
17 -14 21 -35 5 -25 -5 3 -10 1 -10 -5 0 -7 6 -10 13 -7 7 2 12 21 11 47 0 38
1 40 13 24 8 -11 19 -19 26 -19 7 0 12 -9 12 -20 0 -11 5 -23 10 -27 6 -4 -1
-6 -15 -5 -30 2 -43 -16 -15 -21 11 -2 24 -8 29 -12 5 -5 -1 -6 -14 -3 -13 4
-25 1 -30 -8 -7 -11 -13 -11 -33 0 -20 11 -24 21 -26 68 -1 31 -4 59 -6 64 -3
4 4 5 15 2 15 -4 17 -9 10 -23z m425 20 c5 -7 11 -8 19 -1 20 16 38 -3 30 -32
-3 -15 -10 -27 -16 -27 -5 0 -7 4 -3 9 3 6 -8 8 -28 4 -24 -4 -34 -1 -34 8 0
8 -4 22 -8 32 -5 13 -2 17 13 17 12 0 24 -5 27 -10z m-107 -46 c26 -7 29 -32
5 -41 -15 -6 -15 -7 3 -15 12 -5 7 -6 -16 -2 -19 3 -40 6 -47 7 -16 1 -24 37
-8 37 7 0 15 -7 19 -15 3 -8 11 -15 18 -14 10 0 10 2 1 6 -14 5 -18 43 -5 43
4 0 17 -3 30 -6z m122 -29 c0 -8 -4 -15 -10 -15 -5 0 -10 7 -10 15 0 8 5 15
10 15 6 0 10 -7 10 -15z m370 -14 c-12 -24 -30 -36 -30 -22 0 6 5 11 10 11 6
0 10 7 10 15 0 8 5 15 10 15 7 0 7 -6 0 -19z m-610 -20 c0 -12 -21 -19 -38
-13 -11 4 -11 6 0 13 17 11 38 11 38 0z m34 -2 c-4 -7 0 -9 12 -5 36 11 45 -8
18 -37 -14 -15 -24 -34 -22 -43 2 -11 -5 -18 -22 -21 -24 -4 -42 -21 -34 -34
2 -4 -3 -9 -11 -13 -8 -3 -17 -1 -20 4 -4 6 0 10 7 11 10 0 10 2 1 6 -18 7
-16 52 2 59 8 4 12 10 9 15 -3 5 1 6 9 3 21 -8 17 -35 -5 -28 -10 3 -18 0 -18
-6 0 -6 10 -10 23 -8 12 2 22 9 22 16 0 7 7 17 15 22 8 5 11 10 5 10 -5 0 -1
7 9 15 19 15 19 15 -3 15 -20 0 -21 2 -11 15 14 17 24 20 14 4z m-159 -27 c14
-9 18 -62 4 -62 -5 0 -7 5 -4 10 3 6 1 10 -5 10 -7 0 -9 7 -6 17 4 9 1 20 -6
25 -7 4 -8 8 -3 8 6 0 15 -4 20 -8z m128 -6 c4 -10 1 -13 -9 -9 -15 6 -19 23
-5 23 5 0 11 -7 14 -14z m-33 0 c0 -3 -4 -8 -10 -11 -5 -3 -10 -1 -10 4 0 6 5
11 10 11 6 0 10 -2 10 -4z m575 -6 c-3 -5 -1 -10 5 -10 7 0 10 -6 7 -12 -19
-46 -19 -48 -3 -48 9 0 16 7 16 15 0 8 5 15 10 15 7 0 7 6 0 20 -9 16 -8 20 5
20 21 0 20 -63 -1 -84 -17 -18 -39 -22 -29 -6 3 6 -1 10 -9 10 -9 0 -16 7 -16
15 0 12 -4 14 -19 5 -14 -7 -22 -7 -27 2 -4 6 -3 8 4 4 6 -3 13 -2 16 3 3 4
-2 8 -12 8 -31 0 -62 15 -62 29 0 14 33 14 46 1 12 -12 41 -8 54 8 14 17 24
20 15 5z m-693 -16 c-7 -12 -2 -23 16 -41 20 -20 24 -31 19 -64 -3 -24 -1 -39
5 -39 7 0 9 -18 5 -50 -3 -27 -2 -52 2 -54 12 -8 11 -65 -1 -72 -5 -3 -15 -1
-21 5 -6 6 -19 11 -28 11 -29 0 -28 23 4 60 18 20 25 36 18 38 -6 2 -11 12
-11 23 0 12 -7 19 -20 19 -11 0 -20 -5 -20 -11 0 -5 5 -7 10 -4 6 3 10 1 10
-4 0 -6 -6 -11 -12 -12 -7 0 -4 -4 7 -9 19 -8 19 -9 -2 -9 -15 -1 -23 5 -24
17 0 9 -2 33 -5 52 -9 71 -7 109 10 134 18 29 53 38 38 10z m600 -36 c-15 -15
-15 -26 1 -25 43 1 70 -6 87 -23 12 -12 18 -26 14 -32 -4 -6 -1 -9 7 -6 8 3
13 11 12 17 -2 6 2 11 7 11 13 0 13 -37 0 -45 -6 -4 -8 -10 -5 -15 3 -4 2 -16
-2 -27 -6 -14 -9 -11 -13 17 -4 22 -11 34 -19 32 -8 -2 -11 3 -8 13 5 10 0 15
-13 15 -10 0 -22 5 -26 11 -4 6 -20 8 -40 4 -32 -6 -34 -5 -32 22 2 27 14 43
33 43 5 0 4 -5 -3 -12z m-456 -94 c-2 -25 -8 -29 -29 -21 -9 4 -8 8 3 16 13 9
13 11 -2 11 -29 0 -29 17 1 18 23 0 28 -3 27 -24z m444 16 c0 -5 -2 -10 -4
-10 -3 0 -8 5 -11 10 -3 6 -1 10 4 10 6 0 11 -4 11 -10z m65 -11 c2 -9 6 -27
10 -40 6 -22 6 -23 -7 -6 -16 21 -50 13 -41 -9 3 -9 -1 -14 -11 -14 -9 0 -16
6 -15 13 3 27 -2 36 -18 30 -11 -4 -14 -3 -9 5 4 7 12 12 17 12 6 0 17 7 26
15 19 19 45 16 48 -6z m-18 -61 c-3 -8 -6 -5 -6 6 -1 11 2 17 5 13 3 -3 4 -12
1 -19z m-163 -7 c3 -5 -1 -11 -9 -14 -9 -4 -12 -1 -8 9 6 16 10 17 17 5z m111
-10 c3 -5 1 -12 -5 -16 -5 -3 -10 1 -10 9 0 18 6 21 15 7z m-589 -36 c-16 -16
-36 -20 -36 -7 0 14 12 22 32 22 17 0 18 -2 4 -15z m719 5 c3 -5 1 -10 -4 -10
-6 0 -11 5 -11 10 0 6 2 10 4 10 3 0 8 -4 11 -10z"/>
<path d="M3270 2190 c0 -5 5 -10 11 -10 5 0 7 5 4 10 -3 6 -8 10 -11 10 -2 0
-4 -4 -4 -10z"/>
<path d="M3450 2178 c3 -3 21 -13 40 -23 27 -13 32 -14 20 -2 -8 8 -26 18 -40
22 -14 4 -23 5 -20 3z"/>
<path d="M3119 2142 c11 -8 11 -10 0 -15 -10 -4 -8 -6 4 -6 21 -1 18 21 -4 27
-12 3 -12 2 0 -6z"/>
<path d="M3450 2140 c0 -5 5 -10 11 -10 5 0 7 5 4 10 -3 6 -8 10 -11 10 -2 0
-4 -4 -4 -10z"/>
<path d="M3768 2143 c7 -3 16 -2 19 1 4 3 -2 6 -13 5 -11 0 -14 -3 -6 -6z"/>
<path d="M3402 2121 c7 -12 18 -17 27 -13 14 6 14 7 -1 10 -10 2 -18 8 -18 13
0 5 -5 9 -10 9 -6 0 -6 -7 2 -19z"/>
<path d="M3698 2133 c7 -3 16 -2 19 1 4 3 -2 6 -13 5 -11 0 -14 -3 -6 -6z"/>
<path d="M3545 2110 c-10 -11 -13 -20 -7 -20 6 0 16 9 22 20 6 11 9 20 7 20
-2 0 -12 -9 -22 -20z"/>
<path d="M3780 2113 c8 -3 22 -11 30 -17 13 -10 13 -9 1 7 -7 9 -21 17 -30 16
-13 0 -14 -1 -1 -6z"/>
<path d="M3576 2093 c-13 -33 -17 -85 -6 -78 6 4 10 12 9 18 -4 34 2 47 24 48
15 0 17 2 7 6 -8 3 -18 10 -21 15 -3 5 -9 1 -13 -9z"/>
<path d="M3610 2106 c0 -2 7 -6 15 -10 8 -3 15 -1 15 4 0 6 -7 10 -15 10 -8 0
-15 -2 -15 -4z"/>
<path d="M3280 2090 c-9 -6 -10 -10 -3 -10 6 0 15 5 18 10 8 12 4 12 -15 0z"/>
<path d="M3835 2090 c-3 -5 1 -10 9 -10 8 0 18 5 21 10 3 6 -1 10 -9 10 -8 0
-18 -4 -21 -10z"/>
<path d="M3160 2075 c0 -8 2 -15 4 -15 2 0 6 7 10 15 3 8 1 15 -4 15 -6 0 -10
-7 -10 -15z"/>
<path d="M3711 2073 c-1 -17 16 -25 25 -12 4 7 3 9 -4 5 -5 -3 -13 0 -15 6 -4
9 -6 10 -6 1z"/>
<path d="M3591 2065 c-2 -24 16 -37 35 -26 18 10 18 10 -3 11 -12 0 -24 6 -26
13 -3 6 -6 8 -6 2z"/>
<path d="M3196 2045 c-3 -8 -1 -15 3 -15 5 0 11 7 15 15 3 8 1 15 -3 15 -5 0
-11 -7 -15 -15z"/>
<path d="M3820 2050 c0 -7 6 -10 14 -7 7 3 19 0 26 -6 10 -9 11 -9 8 3 -5 18
-48 26 -48 10z"/>
<path d="M3901 2056 c2 -2 15 -9 29 -15 24 -11 24 -11 6 3 -16 13 -49 24 -35
12z"/>
<path d="M3495 2031 c-3 -6 -10 -9 -15 -6 -4 3 -7 -3 -5 -12 2 -10 4 -21 4
-25 1 -5 5 -8 10 -8 5 0 8 8 7 18 -2 9 2 20 8 24 6 4 8 10 4 13 -3 4 -9 1 -13
-4z"/>
<path d="M3430 2020 c0 -6 7 -10 15 -10 8 0 15 2 15 4 0 2 -7 6 -15 10 -8 3
-15 1 -15 -4z"/>
<path d="M3201 2004 c0 -11 3 -14 6 -6 3 7 2 16 -1 19 -3 4 -6 -2 -5 -13z"/>
<path d="M3608 2013 c7 -3 16 -2 19 1 4 3 -2 6 -13 5 -11 0 -14 -3 -6 -6z"/>
<path d="M3817 2009 c7 -7 15 -10 18 -7 3 3 -2 9 -12 12 -14 6 -15 5 -6 -5z"/>
<path d="M3869 2001 c11 -7 11 -9 0 -14 -10 -4 -9 -6 4 -6 9 -1 17 6 17 14 0
8 -8 15 -17 15 -14 0 -15 -2 -4 -9z"/>
<path d="M3435 1991 c-3 -5 -2 -12 3 -15 5 -3 9 1 9 9 0 17 -3 19 -12 6z"/>
<path d="M3818 1983 c7 -3 16 -2 19 1 4 3 -2 6 -13 5 -11 0 -14 -3 -6 -6z"/>
<path d="M3645 1961 c-3 -5 -1 -12 4 -15 5 -3 11 1 15 9 6 16 -9 21 -19 6z"/>
<path d="M3815 1959 c-4 -6 -4 -13 -1 -16 3 -4 6 -1 6 6 0 8 7 10 21 6 15 -5
19 -4 15 4 -9 14 -33 14 -41 0z"/>
<path d="M3675 1939 c-4 -6 -5 -12 -2 -15 2 -3 7 2 10 11 7 17 1 20 -8 4z"/>
<path d="M3724 1200 c0 -11 6 -20 13 -20 15 0 15 2 7 24 -9 22 -20 20 -20 -4z"/>
<path d="M3690 1164 c0 -7 27 -34 35 -34 3 0 1 9 -5 20 -10 18 -30 28 -30 14z"/>
<path d="M3783 1110 c0 -16 4 -30 9 -30 10 0 10 31 0 48 -6 8 -9 2 -9 -18z"/>
<path d="M3711 1106 c-18 -21 4 -30 29 -13 18 13 19 15 5 21 -22 8 -21 8 -34
-8z"/>
<path d="M3704 1062 c-14 -9 -26 -42 -15 -42 5 0 11 9 14 21 3 12 10 18 16 14
6 -3 11 -1 11 4 0 13 -10 14 -26 3z"/>
<path d="M3662 928 c-26 -31 -16 -38 16 -10 11 10 18 23 14 29 -4 6 -16 -2
-30 -19z"/>
<path d="M3508 1023 c7 -3 16 -2 19 1 4 3 -2 6 -13 5 -11 0 -14 -3 -6 -6z"/>
<path d="M3498 933 c7 -3 16 -2 19 1 4 3 -2 6 -13 5 -11 0 -14 -3 -6 -6z"/>
<path d="M3523 916 c-6 -8 -9 -17 -6 -20 12 -11 19 -6 20 14 2 23 2 23 -14 6z"/>
<path d="M3496 801 c-4 -7 -5 -15 -2 -18 9 -9 19 4 14 18 -4 11 -6 11 -12 0z"/>
<path d="M3432 780 c0 -14 2 -19 5 -12 2 6 2 18 0 25 -3 6 -5 1 -5 -13z"/>
<path d="M3290 739 c0 -5 5 -7 10 -4 6 3 10 8 10 11 0 2 -4 4 -10 4 -5 0 -10
-5 -10 -11z"/>
<path d="M3260 721 c0 -5 -10 -12 -22 -16 -15 -4 -18 -8 -10 -12 7 -3 21 2 31
11 10 9 21 13 26 9 4 -5 5 -2 1 5 -8 14 -26 16 -26 3z"/>
<path d="M3450 680 c0 -5 5 -10 10 -10 6 0 10 5 10 10 0 6 -4 10 -10 10 -5 0
-10 -4 -10 -10z"/>
<path d="M3242 644 c-7 -8 -8 -14 -3 -14 10 0 25 19 20 25 -2 1 -10 -3 -17
-11z"/>
<path d="M3281 581 c-8 -5 -9 -11 -3 -15 5 -3 12 1 16 9 6 17 6 18 -13 6z"/>
<path d="M3220 570 c0 -5 5 -10 11 -10 5 0 7 5 4 10 -3 6 -8 10 -11 10 -2 0
-4 -4 -4 -10z"/>
<path d="M3364 555 c-4 -8 -11 -12 -17 -8 -6 3 -7 1 -3 -5 9 -15 33 -5 33 13
0 19 -6 19 -13 0z"/>
<path d="M3450 554 c0 -14 3 -14 15 -4 8 7 15 14 15 16 0 2 -7 4 -15 4 -8 0
-15 -7 -15 -16z"/>
<path d="M3591 556 c-11 -13 -5 -26 11 -26 5 0 6 5 2 12 -5 8 -2 9 9 5 10 -3
17 -2 17 2 0 15 -28 20 -39 7z"/>
<path d="M3295 540 c-3 -5 -1 -10 4 -10 6 0 11 5 11 10 0 6 -2 10 -4 10 -3 0
-8 -4 -11 -10z"/>
<path d="M3160 525 c-7 -9 -10 -18 -6 -22 3 -3 6 -1 6 5 0 6 8 12 18 14 11 2
13 6 6 11 -7 4 -17 0 -24 -8z"/>
<path d="M3412 520 c0 -14 2 -19 5 -12 2 6 2 18 0 25 -3 6 -5 1 -5 -13z"/>
<path d="M3110 519 c0 -5 5 -7 10 -4 6 3 10 8 10 11 0 2 -4 4 -10 4 -5 0 -10
-5 -10 -11z"/>
<path d="M3370 495 c-11 -13 -10 -14 4 -9 9 3 16 10 16 15 0 13 -6 11 -20 -6z"/>
<path d="M3435 490 c3 -5 8 -10 11 -10 2 0 4 5 4 10 0 6 -5 10 -11 10 -5 0 -7
-4 -4 -10z"/>
<path d="M3517 486 c-4 -10 1 -12 14 -9 23 6 24 9 5 16 -8 3 -17 0 -19 -7z"/>
<path d="M3400 469 c0 -5 5 -7 10 -4 6 3 10 8 10 11 0 2 -4 4 -10 4 -5 0 -10
-5 -10 -11z"/>
<path d="M3146 1014 c-9 -8 -16 -24 -16 -35 0 -17 3 -18 20 -7 11 7 16 14 10
16 -6 2 0 12 12 23 19 15 20 18 6 19 -9 0 -24 -7 -32 -16z"/>
<path d="M3194 995 c3 -8 1 -15 -5 -15 -6 0 -7 -4 -4 -10 9 -14 28 -12 50 3
14 11 15 16 5 22 -9 6 -11 4 -5 -5 5 -8 3 -11 -6 -8 -8 3 -13 11 -11 17 1 6
-5 11 -14 11 -10 0 -14 -6 -10 -15z"/>
<path d="M3455 1050 c4 -6 11 -8 16 -5 14 9 11 15 -7 15 -8 0 -12 -5 -9 -10z"/>
<path d="M2983 883 c9 -9 19 -14 23 -11 10 10 -6 28 -24 28 -15 0 -15 -1 1
-17z"/>
<path d="M3031 759 c-1 -17 4 -26 14 -26 8 0 15 7 15 14 0 8 -4 12 -9 8 -5 -3
-12 3 -14 12 -3 12 -5 9 -6 -8z"/>
<path d="M3010 701 c0 -6 4 -13 10 -16 6 -3 7 1 4 9 -7 18 -14 21 -14 7z"/>
<path d="M3025 560 c-3 -5 -1 -10 4 -10 6 0 11 5 11 10 0 6 -2 10 -4 10 -3 0
-8 -4 -11 -10z"/>
<path d="M1030 2853 c-117 -21 -215 -60 -267 -106 -25 -23 -53 -91 -84 -205
-11 -41 -23 -80 -27 -86 -3 -6 -8 -15 -9 -21 -1 -5 -12 -37 -23 -70 -12 -33
-25 -78 -30 -100 -5 -22 -13 -56 -19 -75 -6 -19 -20 -71 -31 -115 -11 -44 -25
-90 -30 -102 -23 -53 -29 -73 -54 -175 -39 -161 -35 -358 10 -458 30 -68 49
-101 67 -117 9 -9 17 -20 17 -24 0 -9 36 -55 58 -73 7 -6 22 -19 33 -28 10
-10 19 -16 19 -14 0 3 15 -1 34 -9 18 -8 44 -17 57 -19 13 -3 58 -15 99 -26
41 -11 83 -20 93 -20 10 0 22 -12 28 -27 13 -35 10 -210 -5 -222 -6 -5 -65
-18 -131 -29 -211 -37 -323 -113 -333 -227 -3 -42 1 -63 22 -105 14 -28 26
-57 26 -64 0 -16 70 -69 133 -100 60 -29 127 -48 246 -72 120 -23 443 -15 551
14 41 11 89 22 105 24 43 6 84 30 146 87 l54 50 2 65 c2 58 -1 69 -29 108 -17
24 -35 45 -41 47 -5 2 -23 16 -40 31 -18 15 -63 39 -102 54 -38 15 -83 33
-100 40 -29 13 -101 29 -200 44 l-50 8 -1 131 -1 132 56 6 c31 4 79 14 106 22
62 19 172 70 179 82 4 5 41 36 84 68 99 75 117 94 154 173 58 123 69 185 69
378 0 84 -3 157 -6 162 -3 5 -8 36 -10 70 -2 34 -7 65 -10 70 -3 4 -12 43 -20
85 -8 43 -19 83 -24 89 -11 13 -33 123 -35 178 0 21 -4 38 -8 38 -5 0 -8 9 -8
19 0 11 -5 23 -11 26 -6 4 -8 13 -5 21 3 7 1 16 -4 19 -6 4 -10 26 -10 49 0
26 -6 48 -15 56 -8 7 -12 16 -9 21 3 5 0 9 -5 9 -6 0 -11 7 -11 15 0 44 -86
130 -145 146 -22 6 -50 15 -63 20 -13 5 -40 9 -61 9 -21 0 -55 7 -74 15 -27
11 -70 15 -159 14 -68 -1 -134 -4 -148 -6z m268 -86 c13 -12 40 -19 85 -21
114 -7 188 -42 213 -102 8 -18 11 -41 7 -51 -9 -24 -63 -73 -83 -75 -29 -2
-40 -6 -97 -28 -73 -29 -346 -16 -455 21 -35 12 -69 22 -77 22 -29 1 -63 51
-67 99 -3 42 0 49 26 68 42 30 111 60 140 60 14 0 36 6 49 13 15 7 67 12 132
12 88 0 110 -3 127 -18z m-443 -301 c108 -46 297 -76 444 -72 98 3 164 17 259
55 29 12 55 21 57 21 14 0 47 -108 64 -210 4 -25 13 -56 20 -69 7 -13 19 -58
26 -100 8 -42 20 -105 28 -141 16 -74 21 -196 11 -278 -5 -42 -11 -56 -26 -60
-10 -2 -17 -10 -14 -17 2 -6 0 -18 -5 -26 -7 -11 -9 -11 -9 3 0 23 -36 43 -47
26 -12 -20 -14 -52 -3 -68 7 -12 11 -12 28 3 11 11 26 15 36 11 16 -6 15 -9
-8 -30 -14 -13 -33 -25 -43 -25 -17 -1 -17 -2 0 -6 9 -2 17 -9 17 -14 0 -19
-21 -50 -30 -44 -6 3 -8 0 -5 -7 3 -7 -6 -25 -19 -39 -14 -15 -22 -30 -19 -33
4 -3 1 -6 -5 -6 -7 0 -12 -7 -12 -15 0 -8 -5 -15 -10 -15 -6 0 -13 -8 -17 -17
-8 -22 -62 -76 -90 -92 -12 -6 -30 -8 -40 -5 -14 5 -15 4 -4 -4 12 -9 9 -13
-15 -23 -16 -6 -47 -19 -68 -29 -32 -14 -65 -16 -190 -14 -166 4 -196 6 -212
16 -5 4 -30 5 -53 2 -38 -5 -43 -3 -37 12 5 14 4 15 -8 5 -9 -8 -24 -10 -38
-5 -13 4 -24 6 -25 6 -2 -1 -23 7 -48 18 -48 21 -109 77 -117 108 -4 15 0 18
26 15 29 -3 29 -3 -8 11 -40 15 -59 33 -49 49 2 4 12 2 21 -5 15 -11 15 -11 6
2 -9 12 -6 20 11 37 13 12 26 19 30 15 3 -3 3 2 -1 12 -5 14 -4 17 4 12 7 -4
12 -2 12 5 0 6 8 18 17 25 10 7 14 16 10 20 -8 8 -77 -62 -77 -78 0 -4 -6 -8
-14 -8 -8 0 -17 -8 -21 -17 -6 -17 -7 -17 -16 -1 -8 14 -4 24 15 43 14 14 30
25 36 25 5 0 10 3 10 8 0 4 14 16 30 27 16 11 30 25 30 30 0 21 22 34 40 25
11 -6 26 -4 42 4 25 13 26 12 30 -14 3 -17 0 -26 -6 -24 -6 2 -17 -5 -24 -16
-16 -25 -6 -25 37 1 18 11 36 18 39 15 3 -4 1 -6 -4 -6 -6 0 -20 -9 -32 -21
-13 -11 -35 -22 -50 -23 -38 -5 -39 -5 -22 -16 12 -8 11 -10 -7 -10 -12 0 -25
-5 -28 -10 -4 -6 -11 -8 -16 -5 -8 6 -13 -8 -10 -27 0 -4 -5 -5 -12 -2 -8 3
-18 -6 -25 -21 -6 -14 -17 -25 -24 -26 -7 0 -4 -4 7 -9 22 -8 72 17 112 57 13
12 40 34 60 50 21 15 40 30 43 34 15 17 57 39 75 39 17 0 14 -6 -18 -35 -25
-23 -33 -35 -22 -35 8 0 18 7 21 15 4 8 10 12 15 9 5 -3 9 0 9 6 0 6 5 8 12 4
6 -4 8 -3 5 3 -4 6 5 15 18 21 15 7 25 8 25 2 0 -6 -7 -10 -15 -10 -8 0 -15
-9 -15 -20 0 -11 -3 -19 -7 -19 -18 3 -36 -1 -30 -7 6 -6 -61 -73 -74 -74 -3
0 -18 -11 -33 -25 -19 -18 -22 -25 -12 -25 9 0 16 4 16 9 0 5 8 12 18 15 10 4
39 26 64 51 48 46 58 52 58 35 0 -14 -28 -43 -63 -65 -15 -10 -26 -20 -24 -22
7 -6 57 19 57 28 0 5 7 6 15 3 8 -4 12 -11 9 -16 -4 -6 2 -7 17 -3 13 4 26 12
27 16 2 5 7 7 11 5 4 -3 8 4 8 15 2 19 1 19 -27 -1 -35 -25 -49 -11 -15 14 14
10 22 22 19 27 -3 5 2 6 10 3 11 -4 16 0 16 10 0 10 9 16 25 16 14 0 25 5 25
11 0 5 5 7 10 4 6 -3 10 -1 10 5 0 15 -63 2 -77 -17 -8 -10 -18 -13 -30 -8
-16 6 -15 8 7 18 14 7 34 20 44 29 20 18 20 18 0 46 -12 15 -34 33 -49 41 -26
13 -30 12 -46 -8 l-18 -22 -32 32 -31 31 -28 -21 c-16 -11 -31 -21 -34 -21 -3
0 -21 14 -41 31 -21 19 -47 32 -62 32 -28 0 -46 12 -54 36 -3 8 -21 20 -40 27
-19 6 -33 17 -31 23 1 6 5 39 8 74 3 34 14 85 24 114 10 28 21 70 25 93 4 23
18 68 31 101 13 32 24 70 24 84 0 31 22 105 55 190 13 33 27 73 31 88 3 16 12
26 18 23 6 -3 38 -16 71 -30z m-265 -872 c0 -2 -7 -4 -15 -4 -8 0 -15 4 -15
10 0 5 7 7 15 4 8 -4 15 -8 15 -10z m-15 -24 c3 -5 1 -10 -4 -10 -6 0 -11 5
-11 10 0 6 2 10 4 10 3 0 8 -4 11 -10z m43 -42 c-25 -29 -49 -52 -54 -51 -15
3 -16 23 -2 23 8 0 21 11 28 25 7 14 17 25 21 25 5 0 6 7 3 15 -5 11 1 15 21
15 l28 0 -45 -52z m87 33 c3 -5 -10 -22 -30 -36 -19 -15 -32 -31 -29 -36 3 -5
-2 -9 -11 -9 -10 0 -13 -5 -9 -12 4 -7 3 -8 -5 -4 -6 4 -14 0 -17 -8 -6 -16
-34 -23 -34 -8 0 12 87 92 100 92 7 0 10 7 6 15 -6 16 19 21 29 6z m-15 -195
c0 -11 -19 -15 -25 -6 -3 5 1 10 9 10 9 0 16 -2 16 -4z m443 -523 c-1 -82 -5
-201 -7 -267 -5 -139 3 -171 43 -161 45 11 51 26 55 126 3 52 5 97 5 101 2 14
165 -10 216 -32 11 -5 52 -22 90 -38 77 -32 124 -69 149 -119 24 -47 20 -65
-21 -105 -57 -54 -61 -56 -243 -93 -104 -22 -374 -32 -385 -15 -3 5 -13 6 -21
3 -25 -9 -163 18 -244 50 -41 16 -82 31 -90 33 -20 7 -74 88 -91 135 -11 33
-10 40 9 71 29 46 167 114 219 107 10 -1 25 1 33 4 8 3 36 8 62 12 51 7 63 -5
53 -55 -3 -14 -6 -56 -6 -95 0 -72 12 -95 52 -95 33 0 38 25 44 216 3 104 8
225 10 269 3 44 5 83 5 88 0 4 15 7 33 7 l33 0 -3 -147z"/>
<path d="M928 1843 c7 -3 16 -2 19 1 4 3 -2 6 -13 5 -11 0 -14 -3 -6 -6z"/>
<path d="M1018 1843 c7 -3 16 -2 19 1 4 3 -2 6 -13 5 -11 0 -14 -3 -6 -6z"/>
<path d="M837 1829 c7 -7 15 -10 18 -7 3 3 -2 9 -12 12 -14 6 -15 5 -6 -5z"/>
<path d="M1123 1833 c9 -2 23 -2 30 0 6 3 -1 5 -18 5 -16 0 -22 -2 -12 -5z"/>
<path d="M1255 1820 c11 -5 27 -9 35 -9 9 0 8 4 -5 9 -11 5 -27 9 -35 9 -9 0
-8 -4 5 -9z"/>
<path d="M1352 1798 c7 -4 23 -8 36 -8 12 0 22 -6 22 -12 0 -10 2 -10 9 0 7
11 9 11 14 -2 4 -9 12 -16 19 -16 9 0 8 3 -2 10 -20 13 -3 13 40 -1 46 -13 58
-17 104 -28 21 -5 42 -14 45 -19 7 -11 83 -53 88 -48 6 6 -9 36 -19 36 -5 0
-28 13 -51 29 -41 28 -57 33 -147 51 -62 12 -173 18 -158 8z"/>
<path d="M628 1763 c7 -3 16 -2 19 1 4 3 -2 6 -13 5 -11 0 -14 -3 -6 -6z"/>
<path d="M1248 1733 c6 -2 9 -10 6 -15 -4 -7 -2 -8 5 -4 13 9 5 26 -12 25 -9
0 -8 -2 1 -6z"/>
<path d="M1540 1720 c0 -5 5 -10 10 -10 6 0 10 5 10 10 0 6 -4 10 -10 10 -5 0
-10 -4 -10 -10z"/>
<path d="M1150 1700 c-9 -6 -10 -10 -3 -10 6 0 15 5 18 10 8 12 4 12 -15 0z"/>
<path d="M1560 1580 c-9 -16 -15 -19 -24 -11 -14 12 -43 11 -63 -2 -16 -10
-44 -67 -33 -67 5 0 12 -9 15 -21 4 -11 9 -18 12 -15 3 3 14 1 24 -5 11 -5 19
-6 19 -1 0 6 -10 13 -22 17 -21 6 -20 8 12 15 19 5 37 7 41 4 4 -2 12 2 18 10
8 10 24 12 51 9 l40 -6 -16 39 c-19 46 -14 40 -41 48 -16 5 -25 2 -33 -14z"/>
<path d="M1114 1576 c-6 -7 -16 -22 -23 -34 -10 -19 -8 -24 16 -38 16 -10 34
-25 41 -33 31 -38 38 49 7 95 -17 27 -25 29 -41 10z"/>
<path d="M1200 1545 c0 -19 6 -40 13 -47 8 -7 13 -23 12 -36 -1 -15 3 -21 11
-18 8 3 17 -2 22 -11 6 -11 11 -12 16 -4 4 6 2 11 -4 11 -6 0 -8 5 -5 10 4 6
1 9 -6 8 -6 -2 -13 2 -16 9 -3 7 3 10 16 6 54 -14 30 78 -25 95 l-34 10 0 -33z"/>
<path d="M1314 1551 c-21 -17 -21 -28 -2 -68 14 -28 17 -28 46 -3 19 16 22 26
17 49 -7 35 -34 44 -61 22z"/>
<path d="M720 1515 c-11 -13 -11 -18 0 -28 9 -9 11 -9 6 0 -4 7 2 14 14 18 11
4 18 11 15 16 -9 13 -21 11 -35 -6z"/>
<path d="M1606 1485 c-3 -8 -1 -15 3 -15 5 0 11 7 15 15 3 8 1 15 -3 15 -5 0
-11 -7 -15 -15z"/>
<path d="M1394 1476 c-10 -8 -16 -18 -11 -22 4 -4 7 -2 7 4 0 7 7 12 15 12 8
0 15 -4 15 -10 0 -5 5 -10 11 -10 8 0 9 4 0 13 -6 8 -8 17 -4 20 12 13 -13 7
-33 -7z"/>
<path d="M1118 1473 c7 -3 16 -2 19 1 4 3 -2 6 -13 5 -11 0 -14 -3 -6 -6z"/>
<path d="M1286 1461 c-3 -5 3 -11 13 -14 14 -3 18 -1 14 9 -6 16 -19 18 -27 5z"/>
<path d="M1556 1458 c3 -5 10 -6 15 -3 13 9 11 12 -6 12 -8 0 -12 -4 -9 -9z"/>
<path d="M1072 1448 c6 -18 25 -21 25 -3 0 8 -7 15 -14 15 -8 0 -13 -5 -11
-12z"/>
<path d="M1110 1451 c0 -12 23 -31 38 -31 23 0 8 35 -16 36 -12 1 -22 -2 -22
-5z"/>
<path d="M1615 1450 c-3 -6 1 -7 9 -4 18 7 21 14 7 14 -6 0 -13 -4 -16 -10z"/>
<path d="M1330 1441 c-8 -6 -17 -8 -21 -5 -4 2 -10 0 -14 -6 -3 -5 -1 -10 4
-10 6 0 10 -3 10 -7 -4 -27 3 -53 15 -53 8 0 17 -6 19 -12 3 -8 6 -6 6 5 1 9
-4 17 -10 17 -5 0 -7 5 -4 10 3 6 1 10 -4 10 -18 0 -12 21 11 41 22 20 14 26
-12 10z"/>
<path d="M1456 1441 c9 -9 34 -9 34 -1 0 5 -9 8 -20 7 -10 -1 -17 -3 -14 -6z"/>
<path d="M845 1430 c4 -7 -3 -9 -22 -4 -27 6 -27 6 -8 -10 20 -16 20 -16 -2
-22 -13 -3 -23 -11 -23 -16 0 -6 -7 -7 -16 -4 -8 3 -12 2 -9 -4 3 -6 2 -10 -4
-10 -6 0 -8 -7 -5 -15 5 -11 11 -9 30 10 14 14 32 25 40 25 8 0 13 4 9 9 -3 6
4 15 15 21 20 11 19 30 -1 30 -6 0 -7 -5 -4 -10z"/>
<path d="M1040 1425 c-17 -21 -6 -30 13 -11 13 14 16 14 21 1 3 -9 0 -15 -9
-15 -7 0 -17 -9 -20 -20 -3 -11 -12 -20 -18 -20 -7 -1 -26 -13 -44 -28 l-31
-27 46 -1 c26 -1 37 0 25 3 -13 2 -23 11 -23 19 0 16 38 34 57 27 7 -3 10 3 9
14 -3 21 35 45 46 29 4 -6 8 -1 8 12 0 18 -4 22 -19 17 -11 -3 -22 -1 -26 5
-9 14 -20 13 -35 -5z"/>
<path d="M1375 1420 c-10 -11 -14 -20 -9 -20 13 0 41 20 29 20 -5 0 -3 5 5 10
8 5 10 10 4 10 -6 0 -19 -9 -29 -20z"/>
<path d="M1172 1406 c1 -14 6 -22 10 -20 12 7 10 44 -2 44 -5 0 -9 -11 -8 -24z"/>
<path d="M1230 1411 c-6 -12 -7 -21 -1 -21 10 0 24 30 17 37 -2 3 -9 -5 -16
-16z"/>
<path d="M1553 1420 c2 -8 12 -16 23 -17 13 -2 15 -1 4 4 -8 3 -19 11 -23 17
-6 7 -7 6 -4 -4z"/>
<path d="M1420 1405 c-7 -8 -16 -12 -21 -9 -5 3 -9 0 -9 -5 0 -17 15 -13 35 9
10 11 16 20 13 20 -3 0 -11 -7 -18 -15z"/>
<path d="M1620 1399 c0 -5 5 -7 10 -4 6 3 10 8 10 11 0 2 -4 4 -10 4 -5 0 -10
-5 -10 -11z"/>
<path d="M1270 1381 c0 -5 7 -12 16 -15 8 -3 12 -10 9 -16 -3 -5 -1 -10 5 -10
6 0 8 -5 5 -11 -5 -6 -12 -4 -21 8 -7 10 -14 14 -14 8 0 -5 -5 -3 -10 5 -8 13
-10 12 -10 -2 0 -10 5 -18 10 -18 6 0 9 -6 8 -12 -3 -12 12 -13 49 -5 18 4 28
17 14 17 -7 0 -9 5 -5 12 4 6 3 8 -3 5 -5 -4 -16 5 -23 18 -13 25 -30 34 -30
16z"/>
<path d="M1450 1380 c0 -5 5 -10 10 -10 6 0 10 5 10 10 0 6 -4 10 -10 10 -5 0
-10 -4 -10 -10z"/>
<path d="M1097 1363 c3 -7 8 -13 12 -13 4 0 8 6 8 13 0 8 -6 14 -13 14 -7 0
-10 -6 -7 -14z"/>
<path d="M1168 1363 c7 -3 16 -2 19 1 4 3 -2 6 -13 5 -11 0 -14 -3 -6 -6z"/>
<path d="M1505 1360 c-3 -6 1 -7 9 -4 18 7 21 14 7 14 -6 0 -13 -4 -16 -10z"/>
<path d="M1231 1344 c0 -11 3 -14 6 -6 3 7 2 16 -1 19 -3 4 -6 -2 -5 -13z"/>
<path d="M1383 1335 c-26 -18 -30 -24 -17 -29 24 -9 42 -6 19 4 -19 8 -19 9 3
9 12 1 22 7 22 15 0 8 6 17 13 19 6 3 8 5 2 5 -5 0 -25 -10 -42 -23z"/>
<path d="M730 1330 c0 -5 -7 -10 -15 -10 -8 0 -15 -4 -15 -9 0 -11 31 -24 38
-16 3 3 -1 5 -8 5 -9 0 -8 6 5 20 10 11 13 20 7 20 -7 0 -12 -4 -12 -10z"/>
<path d="M910 1325 c-14 -17 -36 -20 -42 -6 -2 5 -13 5 -27 0 -34 -13 -20 -21
42 -22 45 -2 53 0 44 11 -8 10 -7 16 4 23 8 5 9 9 3 9 -6 0 -17 -7 -24 -15z"/>
<path d="M1110 1330 c0 -5 4 -10 9 -10 6 0 13 5 16 10 3 6 -1 10 -9 10 -9 0
-16 -4 -16 -10z"/>
<path d="M1450 1325 c7 -9 15 -13 17 -11 7 7 -7 26 -19 26 -6 0 -6 -6 2 -15z"/>
<path d="M1538 1333 c7 -3 16 -2 19 1 4 3 -2 6 -13 5 -11 0 -14 -3 -6 -6z"/>
<path d="M760 1298 c0 -12 3 -17 8 -12 4 5 11 12 15 15 5 3 2 9 -7 12 -12 5
-16 0 -16 -15z"/>
<path d="M1178 1299 c-17 -18 -17 -19 0 -19 11 0 18 8 19 20 2 24 3 24 -19 -1z"/>
<path d="M1417 1300 c-16 -20 -12 -27 8 -12 9 6 19 32 12 32 -1 0 -10 -9 -20
-20z"/>
<path d="M1091 1294 c0 -11 3 -14 6 -6 3 7 2 16 -1 19 -3 4 -6 -2 -5 -13z"/>
<path d="M1117 1293 c-14 -13 -7 -23 16 -22 12 0 16 3 9 6 -6 2 -10 9 -6 14 6
10 -9 12 -19 2z"/>
<path d="M800 1281 c0 -5 9 -7 20 -4 11 3 20 7 20 9 0 2 -9 4 -20 4 -11 0 -20
-4 -20 -9z"/>
<path d="M837 1265 c-10 -14 -14 -25 -10 -25 14 1 43 27 43 39 0 18 -14 12
-33 -14z"/>
<path d="M976 1274 c-4 -9 -4 -19 -1 -22 3 -3 5 0 5 7 0 7 4 9 10 6 6 -3 7 1
4 9 -8 20 -10 20 -18 0z"/>
<path d="M727 1273 c-12 -12 -7 -22 8 -17 8 4 15 10 15 15 0 11 -14 12 -23 2z"/>
<path d="M1046 1273 c-3 -4 -6 -13 -6 -22 0 -10 3 -12 8 -5 4 6 14 13 21 16
13 4 12 5 -1 10 -9 4 -19 4 -22 1z"/>
<path d="M1231 1271 c-7 -5 -23 -6 -35 -4 -25 5 -44 -11 -26 -22 5 -3 10 0 10
7 1 8 6 6 15 -6 8 -11 15 -14 15 -8 0 19 18 14 23 -5 3 -13 5 -12 6 5 1 22 26
28 26 6 0 -5 4 -14 8 -21 4 -6 3 -14 -3 -18 -5 -3 -10 -10 -10 -16 0 -5 9 -4
19 3 15 9 17 16 10 25 -6 7 -9 16 -6 20 8 13 -38 42 -52 34z"/>
<path d="M1310 1270 c0 -5 10 -10 23 -10 18 0 19 2 7 10 -19 13 -30 13 -30 0z"/>
<path d="M1361 1264 c0 -11 3 -14 6 -6 3 7 2 16 -1 19 -3 4 -6 -2 -5 -13z"/>
<path d="M1446 1265 c4 -8 8 -15 10 -15 2 0 4 7 4 15 0 8 -4 15 -10 15 -5 0
-7 -7 -4 -15z"/>
<path d="M1490 1260 c0 -5 5 -10 11 -10 5 0 7 5 4 10 -3 6 -8 10 -11 10 -2 0
-4 -4 -4 -10z"/>
<path d="M754 1238 c-17 -20 -17 -21 -1 -8 20 15 20 14 47 -30 4 -8 12 -11 17
-7 4 5 0 15 -10 22 -13 10 -15 14 -5 18 8 3 5 6 -7 6 -17 1 -17 3 -5 11 13 8
13 10 -1 10 -9 0 -24 -10 -35 -22z"/>
<path d="M911 1252 c-1 -8 -6 -10 -13 -6 -10 5 -10 4 -1 -6 15 -16 28 -8 20
12 -4 11 -6 11 -6 0z"/>
<path d="M1103 1245 c0 -8 4 -15 9 -15 4 0 8 7 8 15 0 8 -4 15 -8 15 -5 0 -9
-7 -9 -15z"/>
<path d="M1136 1247 c3 -10 9 -15 12 -12 3 3 0 11 -7 18 -10 9 -11 8 -5 -6z"/>
<path d="M846 1229 c-11 -11 -16 -22 -12 -26 8 -9 40 22 35 35 -2 5 -13 1 -23
-9z"/>
<path d="M1004 1241 c4 -5 0 -12 -6 -14 -8 -3 -6 -6 5 -6 9 -1 17 6 17 14 0 8
-5 15 -11 15 -5 0 -8 -4 -5 -9z"/>
<path d="M1081 1239 c0 -9 -10 -24 -21 -34 -11 -10 -17 -22 -13 -28 4 -6 10
-1 14 11 6 15 14 19 31 15 14 -3 18 -1 12 4 -7 4 -14 17 -17 28 -3 13 -5 15
-6 4z"/>
<path d="M910 1209 c0 -5 5 -7 10 -4 6 3 10 8 10 11 0 2 -4 4 -10 4 -5 0 -10
-5 -10 -11z"/>
<path d="M922 1186 c-32 -23 -32 -24 -9 -22 14 0 23 4 21 8 -2 4 5 9 16 13 11
3 20 11 20 16 0 14 -12 10 -48 -15z"/>
<path d="M1198 1203 c6 -2 18 -2 25 0 6 3 1 5 -13 5 -14 0 -19 -2 -12 -5z"/>
<path d="M1073 1175 c0 -9 10 -15 26 -15 24 0 24 1 5 15 -24 18 -31 19 -31 0z"/>
<path d="M1140 1186 c0 -2 7 -7 16 -10 8 -3 12 -2 9 4 -6 10 -25 14 -25 6z"/>
<path d="M818 1173 c7 -3 16 -2 19 1 4 3 -2 6 -13 5 -11 0 -14 -3 -6 -6z"/>
<path d="M1035 1150 c-3 -5 -1 -10 4 -10 6 0 11 5 11 10 0 6 -2 10 -4 10 -3 0
-8 -4 -11 -10z"/>
<path d="M1060 1146 c0 -10 28 -13 41 -5 10 6 7 9 -13 9 -16 0 -28 -2 -28 -4z"/>
</g>
</svg>
