<?xml version="1.0" standalone="no"?>
<!DOCTYPE svg PUBLIC "-//W3C//DTD SVG 20010904//EN"
 "http://www.w3.org/TR/2001/REC-SVG-20010904/DTD/svg10.dtd">
<svg version="1.0" xmlns="http://www.w3.org/2000/svg"
 width="549.000000pt" height="451.000000pt" viewBox="0 0 549.000000 451.000000"
 preserveAspectRatio="xMidYMid meet">
<metadata>
Created by potrace 1.16, written by Peter Selinger 2001-2019
</metadata>
<g transform="translate(0.000000,451.000000) scale(0.100000,-0.100000)"
fill="#000000" stroke="none">
<path d="M1650 4343 c-220 -17 -282 -35 -352 -102 -34 -33 -39 -44 -52 -126
-10 -56 -15 -151 -15 -253 l0 -164 30 -16 29 -17 -1 -110 c-1 -95 -5 -143 -24
-262 -13 -84 -47 -178 -110 -308 -72 -145 -133 -289 -140 -330 -25 -142 -21
-474 5 -483 6 -2 10 -9 10 -16 0 -12 66 -85 103 -114 13 -10 17 -31 19 -85 3
-130 6 -171 15 -217 5 -25 9 -90 9 -146 l-1 -100 -48 -47 c-26 -26 -47 -54
-47 -62 0 -8 -4 -15 -9 -15 -5 0 -11 -15 -14 -33 -3 -17 -10 -49 -15 -70 -20
-74 -11 -157 48 -487 11 -59 15 -264 6 -278 -9 -15 -34 -156 -33 -189 0 -18 4
-33 8 -33 4 0 10 -8 13 -17 14 -43 70 -90 111 -94 6 0 15 -5 21 -10 12 -10 89
-39 119 -44 66 -13 252 -30 310 -29 175 4 459 15 505 20 84 9 198 41 267 74
73 36 108 87 125 182 12 68 0 123 -32 145 -10 7 -35 45 -55 84 l-37 72 6 196
c7 216 7 372 -1 405 -2 12 -9 41 -14 65 -12 56 -41 103 -88 140 -35 28 -38 35
-38 78 1 64 -12 163 -24 185 -6 10 -12 93 -15 183 -5 162 -5 165 15 165 26 0
101 66 101 89 0 9 5 22 11 28 24 24 29 337 6 433 -15 64 -24 112 -33 180 -12
92 -82 238 -136 285 -30 25 -46 51 -64 102 -14 37 -23 80 -21 95 2 15 0 29 -4
30 -8 3 -16 68 -24 196 -6 97 -23 184 -37 193 -5 3 7 14 26 23 37 17 61 49 51
66 -3 5 -8 44 -11 87 -9 115 -49 312 -74 372 -8 17 -16 22 -33 17 -17 -4 -26
1 -38 22 -14 25 -24 28 -110 40 -91 12 -121 13 -219 5z m-260 -219 c0 -14 -3
-15 -17 -3 -10 7 -20 15 -22 16 -2 2 5 3 17 3 14 0 22 -6 22 -16z m639 -137
c6 -47 4 -61 -12 -88 -17 -25 -18 -35 -9 -50 15 -23 15 -39 2 -39 -5 0 -10 9
-10 20 0 11 -3 20 -7 21 -5 0 -16 2 -26 4 -18 3 -50 -32 -41 -46 2 -4 7 -33
10 -63 7 -69 -11 -76 -21 -9 -8 55 -30 93 -55 93 -32 0 -38 -21 -28 -90 12
-80 22 -93 64 -86 26 5 31 3 31 -11 -1 -17 3 -48 24 -183 17 -113 41 -224 55
-255 7 -16 20 -50 29 -75 11 -31 32 -59 69 -90 49 -41 84 -96 127 -195 8 -19
35 -202 44 -305 3 -25 7 -57 10 -72 2 -15 0 -30 -5 -33 -6 -4 -7 -13 -1 -23 4
-9 8 -50 9 -90 0 -95 -24 -123 -75 -87 -20 14 -20 17 -8 43 17 33 19 68 11
137 -4 28 -9 66 -12 85 -2 19 -7 73 -10 120 -3 47 -9 87 -15 88 -5 2 -9 10 -9
18 0 18 -5 18 -37 -3 -24 -16 -25 -20 -19 -82 3 -37 9 -95 12 -131 3 -36 10
-82 14 -102 6 -27 4 -38 -4 -38 -8 0 -13 -24 -14 -72 -2 -59 -6 -77 -28 -105
-46 -60 -97 -39 -108 44 -4 26 -9 59 -11 73 -8 55 -23 263 -25 331 0 15 -9 38
-21 52 -19 25 -22 26 -44 11 -18 -12 -23 -22 -20 -47 3 -18 9 -93 15 -167 6
-74 13 -157 16 -184 4 -40 2 -48 -10 -43 -19 7 -29 -7 -45 -60 -13 -48 -34
-63 -85 -63 -65 0 -73 32 -91 397 -5 90 -9 111 -26 130 -18 18 -24 20 -40 10
-18 -11 -19 -22 -14 -137 7 -155 14 -250 21 -272 3 -10 -3 -21 -15 -27 -11 -6
-21 -23 -23 -38 -2 -22 -12 -31 -51 -47 -45 -19 -50 -19 -75 -4 -46 27 -56 61
-58 198 -6 360 -5 344 -35 361 -15 7 -23 6 -34 -5 -13 -13 -15 -49 -10 -246
l6 -232 -34 -33 c-47 -46 -70 -51 -112 -25 -26 16 -36 30 -40 58 -3 20 -9 48
-13 62 -5 14 -7 88 -5 165 4 159 23 225 96 345 22 36 46 77 54 93 8 15 19 27
24 27 5 0 9 8 9 18 0 9 14 49 31 87 51 120 72 258 73 481 1 109 5 155 14 167
7 9 16 39 18 68 3 29 6 55 7 58 4 19 -18 52 -39 57 -31 8 -48 -7 -50 -44 0
-15 -2 -42 -2 -59 -3 -55 -20 -37 -28 30 -4 34 -7 66 -5 71 1 5 2 51 2 102 l0
93 39 -20 c60 -32 228 -58 355 -55 114 2 203 23 270 65 17 10 34 15 38 11 5
-4 12 -33 16 -63z m-49 -1902 c33 -17 78 -19 114 -5 23 8 26 7 31 -23 3 -18 7
-61 9 -97 2 -36 7 -94 10 -130 3 -36 8 -99 11 -140 4 -41 10 -108 14 -147 5
-56 3 -80 -9 -105 -20 -41 -30 -44 -66 -13 -16 14 -38 25 -49 25 -12 0 -26 5
-31 10 -7 7 -26 -4 -57 -34 -44 -40 -48 -42 -58 -25 -5 10 -32 34 -60 53 -46
31 -53 33 -86 23 -20 -6 -51 -30 -73 -55 -37 -41 -60 -48 -60 -17 0 16 -64 73
-95 85 -33 13 -84 -4 -123 -40 -18 -16 -36 -30 -39 -30 -4 0 -23 19 -43 42
-37 41 -37 42 -39 137 -1 53 -4 116 -6 141 -3 25 -7 79 -9 120 -3 41 -8 105
-12 142 -6 66 -5 67 19 73 14 4 33 15 43 26 23 25 27 24 67 -11 54 -47 79 -53
139 -30 28 11 63 31 78 45 l26 25 39 -40 c36 -37 44 -40 91 -40 71 0 99 12
131 58 l28 39 18 -24 c10 -13 32 -30 47 -38z m-687 -714 c11 -17 21 -59 24
-94 2 -34 9 -72 15 -84 13 -26 44 -36 67 -21 15 9 16 18 8 57 -17 89 18 163
79 165 33 1 41 -4 65 -39 15 -22 27 -42 26 -45 -1 -3 2 -32 6 -65 15 -121 87
-130 102 -13 4 29 13 63 21 76 8 12 12 22 9 22 -4 0 1 7 9 16 9 8 16 22 16 30
0 19 35 18 66 -3 33 -21 45 -54 45 -123 1 -59 15 -88 47 -95 26 -5 37 9 51 65
28 109 62 155 98 132 14 -9 52 -93 51 -113 -2 -40 4 -57 26 -67 40 -18 56 3
61 82 5 60 28 126 45 126 17 0 50 -34 50 -51 0 -10 4 -19 8 -19 16 0 37 -85
36 -145 0 -33 -4 -162 -9 -287 l-7 -227 56 -113 c52 -105 78 -198 56 -198 -6
0 -12 -10 -15 -23 -6 -23 -37 -40 -140 -79 -58 -21 -73 -22 -450 -23 -352 0
-480 6 -495 26 -3 3 -21 11 -40 18 -19 6 -51 24 -70 40 -30 25 -34 35 -33 73
1 55 21 168 33 189 5 9 6 20 3 23 -4 3 -6 45 -5 93 0 48 -4 93 -9 100 -6 7 -8
17 -4 22 3 6 2 19 -4 28 -5 10 -12 43 -16 73 -3 30 -11 72 -16 93 -6 21 -9 46
-8 55 1 9 -1 25 -5 34 -10 22 -2 151 13 209 15 60 65 120 94 115 12 -1 30 -17
40 -35z"/>
<path d="M1479 3816 c-18 -13 -24 -153 -7 -173 16 -20 38 -15 64 12 13 14 18
25 13 25 -6 0 -7 9 -3 23 4 12 8 31 9 42 2 23 -14 75 -23 76 -4 0 -14 2 -23 4
-8 1 -22 -2 -30 -9z"/>
<path d="M1732 3813 c-25 -9 -33 -41 -21 -90 6 -26 12 -54 13 -62 4 -20 37
-31 59 -19 45 23 -3 188 -51 171z"/>
<path d="M1592 3783 c-15 -31 -14 -89 2 -127 17 -41 39 -54 61 -36 19 16 18
126 -2 158 -16 26 -49 29 -61 5z"/>
<path d="M1355 1019 c-7 -10 1 -95 12 -144 7 -32 3 -264 -5 -332 -8 -61 -8
-63 14 -63 13 0 25 8 28 18 24 79 35 321 20 451 -5 44 -12 64 -25 71 -23 13
-36 13 -44 -1z"/>
<path d="M2063 1003 c-29 -44 -21 -171 20 -335 19 -76 45 -154 57 -174 20 -32
24 -34 38 -20 14 14 14 21 -1 73 -27 90 -46 196 -53 286 -4 45 -8 84 -10 86
-2 2 5 20 16 41 18 36 18 37 -1 53 -27 24 -46 21 -66 -10z"/>
<path d="M1691 966 c-21 -38 -3 -447 20 -462 4 -2 6 -11 3 -18 -3 -7 2 -19 11
-26 12 -10 15 -10 16 1 0 8 2 106 3 219 2 113 6 221 10 241 7 32 5 39 -15 53
-30 21 -33 20 -48 -8z"/>
<path d="M4332 3978 c-8 -11 -22 -46 -27 -68 -1 -3 -5 -43 -9 -90 -4 -47 -9
-101 -12 -120 -2 -19 -6 -78 -9 -130 -4 -52 -8 -117 -11 -145 -2 -27 -8 -117
-13 -200 -5 -82 -14 -163 -20 -180 -7 -16 -12 -54 -12 -83 0 -30 -7 -75 -15
-100 -7 -26 -14 -63 -14 -82 0 -19 -4 -39 -8 -45 -4 -6 -96 -11 -232 -12 -205
-2 -234 -4 -325 -28 -116 -30 -238 -88 -265 -125 -10 -15 -22 -38 -25 -53 -4
-15 -12 -27 -17 -27 -6 0 -6 -6 1 -14 8 -9 8 -16 2 -20 -6 -4 -3 -23 9 -49 17
-39 26 -104 50 -355 5 -51 11 -96 14 -100 10 -16 40 -184 61 -342 9 -63 20
-126 25 -140 5 -14 9 -58 9 -98 0 -39 2 -76 5 -81 3 -5 8 -53 11 -107 3 -55 7
-106 10 -114 6 -19 12 -55 36 -215 11 -71 25 -149 31 -172 5 -24 8 -49 5 -57
-6 -16 20 -59 32 -51 5 2 17 -2 27 -10 10 -8 27 -15 36 -15 9 0 18 -3 20 -7 2
-5 30 -19 63 -33 56 -23 74 -25 273 -28 129 -2 218 0 225 6 7 5 31 13 54 17
44 7 147 72 173 109 10 13 15 46 16 91 1 39 4 266 8 505 4 239 9 460 12 490
10 88 12 125 19 316 3 100 8 193 11 209 3 15 6 66 7 114 2 65 7 95 21 115 21
33 15 72 -14 81 -11 3 -19 9 -18 13 1 4 -3 23 -10 42 -14 38 -74 90 -104 90
-10 0 -32 7 -48 15 -16 8 -49 17 -72 19 -24 2 -46 4 -50 5 -12 2 -9 54 6 118
8 32 17 93 20 136 4 42 10 87 15 100 5 12 12 99 15 192 4 94 9 190 11 215 9
103 18 216 17 235 0 11 11 71 25 133 20 89 22 116 13 127 -15 18 -44 19 -58 3z
m-422 -1331 c84 4 169 4 185 0 11 -3 32 -6 47 -6 l27 -1 0 -150 1 -150 -50 -1
c-27 -1 -58 -2 -67 -2 -18 -1 -155 10 -248 19 -27 3 -95 16 -150 30 -55 14
-107 27 -115 29 -51 13 -72 23 -100 48 -17 16 -30 33 -28 39 4 10 43 36 119
77 47 26 190 61 248 61 25 0 53 5 61 10 8 5 24 7 35 3 11 -4 27 -6 35 -6z
m423 -31 c12 -8 37 -17 56 -21 80 -17 116 -111 63 -164 -20 -20 -122 -66 -169
-76 l-32 -6 1 140 1 141 29 0 c16 0 39 -6 51 -14z m-808 -293 c125 -36 198
-51 281 -58 49 -4 92 -9 97 -12 9 -5 224 -6 248 -1 10 2 14 -10 14 -47 l0 -50
-45 3 c-128 8 -345 2 -440 -13 -54 -9 -178 -43 -202 -56 -14 -7 -18 -5 -19 8
0 10 -2 29 -5 43 -13 79 -24 162 -24 185 0 23 3 25 23 19 12 -4 45 -13 72 -21z
m959 4 c-5 -15 -10 -94 -14 -227 -1 -52 -5 -86 -7 -75 -16 61 -102 115 -186
115 -46 0 -49 1 -43 23 3 12 6 34 6 49 0 33 24 58 56 58 14 0 43 9 65 19 22
11 53 23 69 26 17 4 32 11 35 16 9 14 25 11 19 -4z m-379 -232 c46 -7 46 -8
44 -44 -2 -20 -7 -42 -12 -48 -6 -9 -4 -21 6 -37 14 -20 14 -25 2 -30 -8 -2
-92 -8 -187 -12 -145 -5 -180 -4 -218 10 -25 9 -56 16 -69 16 -14 0 -53 14
-89 31 -56 28 -62 33 -46 43 28 16 116 45 139 46 11 1 36 7 55 13 40 14 305
22 375 12z m229 -28 c105 -29 69 -80 -80 -111 l-67 -14 26 22 c20 17 23 26 15
40 -5 10 -7 34 -3 53 7 39 2 39 109 10z m-838 -76 c-21 -33 68 -85 183 -108
42 -8 94 -19 116 -23 21 -4 80 -4 130 1 49 5 144 12 210 15 65 3 122 7 126 10
4 2 24 6 45 10 45 7 100 33 132 64 l22 21 0 -83 c0 -46 -4 -121 -10 -168 -5
-47 -12 -240 -14 -430 -3 -190 -8 -367 -10 -395 -3 -27 -8 -94 -10 -149 -6
-115 -10 -122 -97 -161 -58 -26 -65 -27 -247 -26 -171 0 -193 2 -252 23 -78
29 -151 66 -148 76 2 6 -3 35 -17 102 -6 26 -19 93 -36 190 -21 120 -49 350
-54 451 -3 42 -9 89 -15 104 -6 16 -13 63 -17 104 -3 42 -16 128 -30 191 -36
171 -38 190 -18 190 9 0 14 -4 11 -9z"/>
<path d="M4271 1787 c-26 -26 0 -67 42 -67 16 0 30 40 21 63 -6 17 -48 19 -63
4z"/>
<path d="M4035 1702 c-6 -4 -10 -18 -10 -30 1 -47 88 -69 126 -33 l21 19 -20
11 c-12 6 -27 11 -36 11 -8 0 -16 4 -18 8 -4 12 -51 23 -63 14z"/>
<path d="M4253 1640 c2 -8 0 -23 -4 -32 -11 -21 -2 -46 23 -59 27 -14 45 3 50
47 5 40 -19 63 -41 41 -9 -9 -14 -8 -22 3 -9 13 -10 13 -6 0z"/>
<path d="M3817 1524 c-16 -16 -6 -54 20 -74 l28 -21 14 29 c18 40 8 66 -24 60
-13 -3 -26 -1 -27 4 -2 5 -7 6 -11 2z"/>
<path d="M4120 1459 c-15 -28 -7 -45 24 -51 21 -4 27 -1 32 18 12 46 -35 73
-56 33z"/>
<path d="M4309 1463 c-23 -28 -18 -56 15 -72 27 -12 30 -12 46 9 14 18 15 27
6 47 -7 15 -17 22 -28 19 -9 -2 -18 0 -20 6 -2 5 -10 1 -19 -9z"/>
<path d="M4260 1383 c-21 -5 -41 -39 -34 -57 6 -17 46 -29 68 -20 39 15 7 86
-34 77z"/>
<path d="M4090 1341 c0 -10 -3 -26 -6 -35 -4 -10 5 -20 27 -32 32 -16 33 -16
51 6 10 12 18 26 18 30 0 10 -38 35 -67 44 -19 6 -23 4 -23 -13z"/>
<path d="M4195 1250 c-13 -15 -14 -23 -5 -39 14 -27 42 -27 65 -1 10 11 16 21
14 23 -46 34 -57 36 -74 17z"/>
<path d="M4303 1240 c-23 -36 15 -88 49 -66 18 11 23 41 12 70 -9 22 -47 20
-61 -4z"/>
<path d="M3976 1225 c-3 -8 -3 -29 1 -45 7 -39 44 -42 61 -5 15 32 15 31 -4
49 -20 20 -50 21 -58 1z"/>
<path d="M4304 1127 c-15 -16 4 -64 28 -70 24 -7 49 31 41 61 -6 24 -49 30
-69 9z"/>
<path d="M4170 1071 c0 -5 -3 -16 -6 -24 -3 -10 5 -18 25 -25 24 -9 32 -7 46
8 25 28 12 50 -30 50 -19 0 -35 -4 -35 -9z"/>
<path d="M4278 982 c-14 -15 -23 -33 -21 -39 3 -7 -3 -20 -11 -29 -22 -21 -20
-46 4 -67 11 -9 20 -12 20 -6 0 5 4 8 9 5 5 -3 14 8 20 24 6 18 6 30 0 30 -5
0 -9 5 -9 10 0 6 9 10 19 10 29 0 36 36 13 65 l-19 24 -25 -27z"/>
<path d="M4213 775 c-19 -21 3 -65 33 -65 30 0 43 48 18 67 -23 16 -36 16 -51
-2z"/>
</g>
</svg>
