<?xml version="1.0" standalone="no"?>
<!DOCTYPE svg PUBLIC "-//W3C//DTD SVG 20010904//EN"
 "http://www.w3.org/TR/2001/REC-SVG-20010904/DTD/svg10.dtd">
<svg version="1.0" xmlns="http://www.w3.org/2000/svg"
 width="517.000000pt" height="425.000000pt" viewBox="0 0 517.000000 425.000000"
 preserveAspectRatio="xMidYMid meet">
<metadata>
Created by potrace 1.16, written by Peter Selinger 2001-2019
</metadata>
<g transform="translate(0.000000,425.000000) scale(0.100000,-0.100000)"
fill="#000000" stroke="none">
<path d="M3506 3904 c-10 -25 -9 -28 47 -110 29 -44 65 -104 80 -134 24 -52
30 -72 42 -155 2 -16 9 -55 15 -86 10 -53 7 -268 -5 -334 -3 -16 -8 -46 -11
-65 -8 -52 -74 -260 -82 -260 -4 0 -7 28 -8 63 -1 80 -30 143 -86 189 -58 47
-73 54 -154 73 -86 20 -134 14 -221 -30 -138 -70 -207 -156 -220 -275 l-6 -60
-39 0 c-21 0 -55 -7 -74 -15 -43 -18 -58 -11 -51 21 2 13 1 24 -2 24 -4 0 -7
96 -8 213 -2 344 -2 334 -18 351 -9 8 -22 34 -30 57 -40 113 -181 274 -290
331 -30 16 -70 23 -170 30 -71 5 -137 12 -145 15 -34 12 -212 14 -315 3 -213
-22 -329 -42 -545 -95 -50 -12 -120 -35 -160 -52 -8 -3 -18 -5 -22 -5 -5 1 -8
-2 -8 -8 0 -5 -13 -10 -29 -10 -17 0 -33 -4 -36 -10 -3 -5 -15 -10 -26 -10
-11 0 -22 -7 -25 -15 -4 -8 -10 -15 -15 -15 -12 0 -93 -52 -97 -62 -2 -5 -9
-8 -16 -8 -12 0 -46 -86 -46 -116 0 -8 -6 -17 -13 -20 -20 -7 -21 -185 -1
-264 15 -61 22 -108 39 -255 4 -33 11 -76 15 -95 5 -19 11 -62 15 -95 7 -69
13 -112 19 -140 2 -11 9 -63 15 -115 6 -52 16 -135 22 -185 17 -140 29 -289
34 -420 5 -108 29 -328 55 -490 5 -33 12 -78 14 -100 3 -22 10 -65 17 -95 6
-30 12 -83 14 -117 2 -34 6 -67 10 -73 4 -6 8 -28 9 -48 2 -21 12 -54 22 -74
29 -56 107 -132 158 -157 26 -12 49 -28 53 -36 3 -9 10 -15 17 -14 6 1 24 -3
39 -9 16 -7 32 -12 36 -12 5 0 44 -11 87 -25 43 -14 108 -28 144 -31 36 -3 83
-9 105 -14 79 -17 212 -23 261 -11 49 11 182 28 302 38 l62 5 1 -31 c1 -17 3
-35 4 -41 1 -5 3 -16 4 -23 1 -16 56 -74 101 -107 62 -45 89 -54 153 -53 110
2 141 12 201 62 57 47 125 142 126 175 0 13 5 16 18 11 57 -24 168 -26 257 -3
87 22 172 109 211 214 14 40 23 77 20 83 -4 5 -2 12 2 15 9 5 8 42 -2 131 l-5
40 97 0 c85 0 104 3 152 27 30 14 69 39 85 55 42 39 101 166 109 234 4 31 13
63 19 71 11 14 103 31 230 43 l47 5 -35 -70 c-19 -39 -40 -70 -45 -70 -6 0
-10 -6 -10 -13 0 -7 -20 -42 -45 -79 -25 -37 -45 -71 -45 -75 0 -10 -37 -50
-77 -84 -40 -33 -65 -73 -58 -90 6 -16 60 -40 70 -31 3 3 11 7 18 9 7 1 39 9
72 16 33 7 76 21 95 29 19 9 74 28 122 43 71 22 93 34 121 66 20 21 55 49 79
62 25 13 49 35 58 53 8 17 38 50 65 74 58 50 69 65 71 103 3 51 20 50 22 0 4
-69 10 -83 37 -83 24 0 55 33 55 58 0 8 6 28 14 45 20 44 46 125 46 142 0 21
17 19 24 -2 9 -30 55 -73 77 -73 15 0 28 17 53 73 36 79 50 130 67 256 13 90
7 143 -31 312 -19 83 -24 119 -16 119 2 0 17 -7 32 -15 35 -18 94 -20 95 -2 6
59 -3 172 -17 207 -10 24 -13 45 -8 48 5 4 18 20 28 36 22 35 18 87 -16 206
-34 120 -42 133 -169 275 -59 67 -127 125 -146 125 -7 0 -13 4 -13 9 0 10
-140 96 -225 138 -191 95 -254 120 -322 128 -59 7 -153 41 -153 55 0 4 -15 13
-32 21 -18 7 -49 22 -68 34 -19 12 -54 27 -77 35 -56 17 -68 32 -87 107 -8 34
-29 90 -47 124 -32 65 -106 179 -124 191 -18 13 -53 9 -59 -8z m-1376 -303
c146 -30 209 -49 226 -66 8 -8 19 -15 23 -15 11 0 121 -111 121 -123 0 -6 8
-20 19 -31 34 -38 57 -156 31 -156 -5 0 -10 -6 -10 -14 0 -17 -92 -101 -133
-123 -27 -14 -35 -13 -96 5 -209 64 -384 66 -676 7 -16 -3 -52 -12 -80 -20
-27 -8 -70 -19 -95 -26 -25 -7 -74 -26 -110 -42 -36 -16 -78 -29 -93 -29 -30
1 -176 67 -242 110 -56 36 -123 109 -145 157 -23 51 -24 123 -1 151 9 12 33
30 52 39 19 10 45 26 59 36 14 9 53 22 87 28 35 5 77 17 95 25 37 17 138 39
146 31 3 -3 10 -1 16 4 6 4 42 11 81 15 38 4 123 16 189 27 65 11 124 18 130
16 6 -2 20 -1 31 3 45 17 278 11 375 -9z m1746 -231 c7 0 15 -9 19 -19 3 -11
15 -23 25 -26 23 -7 54 -37 150 -144 41 -46 96 -105 121 -130 52 -51 84 -127
95 -226 8 -64 -3 -71 -31 -18 -27 50 -93 117 -136 136 -56 26 -167 29 -244 8
-52 -15 -77 -28 -111 -62 -24 -24 -44 -40 -44 -37 0 4 9 44 20 90 34 144 50
355 34 446 l-6 33 47 -26 c27 -14 54 -25 61 -25z m358 -146 c28 -9 79 -29 112
-45 34 -16 68 -29 75 -29 8 0 25 -9 39 -20 14 -11 29 -20 34 -20 10 0 67 -35
176 -106 80 -52 141 -111 218 -209 37 -47 80 -166 84 -233 3 -42 1 -47 -17
-43 -24 4 -86 4 -90 -1 -12 -11 14 -63 52 -107 39 -44 46 -59 50 -106 3 -30 3
-55 0 -55 -20 0 -55 26 -77 56 -19 25 -31 33 -50 32 -22 -3 -25 -7 -24 -43 1
-22 14 -94 29 -160 37 -167 45 -210 50 -287 6 -80 -17 -222 -43 -274 l-19 -36
-10 28 c-10 27 -19 59 -29 108 -6 30 -20 39 -48 32 -22 -5 -26 -12 -26 -41 0
-30 -10 -63 -59 -190 -5 -12 -7 14 -6 60 2 89 -9 145 -29 145 -26 0 -44 -36
-50 -101 -7 -68 -9 -73 -66 -174 -19 -33 -40 -72 -47 -87 -8 -15 -29 -42 -46
-60 -18 -18 -40 -42 -48 -53 -7 -11 -48 -45 -89 -75 -73 -53 -201 -107 -292
-124 -38 -7 -52 5 -25 21 7 4 28 33 46 63 18 30 50 82 71 115 49 75 130 231
130 248 0 7 -6 22 -14 32 -12 17 -18 18 -52 7 -22 -6 -65 -13 -98 -16 l-58 -5
21 23 c11 12 21 26 21 31 0 5 18 30 40 57 23 26 47 63 55 82 8 19 19 37 25 41
5 3 10 17 10 30 0 36 -51 47 -99 23 -67 -34 -70 -20 -8 44 78 83 84 89 156
186 33 45 61 87 61 92 0 6 11 31 25 58 13 26 31 71 40 101 13 48 13 57 -1 86
l-15 33 -36 -14 c-19 -9 -37 -13 -40 -10 -3 3 13 38 35 78 62 113 75 179 75
376 0 101 0 102 19 85 63 -57 123 -232 138 -402 5 -68 7 -129 2 -135 -4 -6 -7
-22 -6 -36 3 -40 -34 -147 -73 -208 -83 -132 -110 -170 -161 -224 -46 -47 -54
-60 -48 -82 7 -30 34 -34 58 -8 9 9 23 22 30 28 7 7 38 49 68 94 30 45 68 98
84 118 l29 37 -7 -35 c-4 -19 -12 -61 -17 -94 -5 -32 -19 -76 -30 -97 -11 -22
-24 -62 -29 -89 -10 -52 -66 -183 -81 -188 -5 -2 -9 -10 -9 -18 0 -8 -9 -22
-19 -31 -11 -9 -18 -20 -15 -25 3 -4 1 -8 -4 -8 -10 0 -8 -42 3 -59 12 -21 44
-12 51 14 3 14 10 25 15 25 5 0 9 6 9 13 0 16 63 162 78 179 6 7 16 36 22 63
7 28 22 73 35 100 20 44 78 269 78 303 0 23 21 6 43 -36 20 -37 32 -110 33
-198 1 -36 41 -63 60 -40 22 27 9 200 -20 259 -11 20 -28 54 -39 76 -11 21
-20 50 -20 63 0 13 -7 33 -15 44 -8 10 -15 33 -15 51 0 18 -4 54 -10 80 -5 26
-11 91 -14 143 -4 65 -13 118 -31 168 -14 41 -25 75 -25 77 0 10 110 -32 133
-51 16 -13 35 -24 43 -24 8 0 22 -9 31 -20 20 -22 58 -27 70 -7 23 37 -3 80
-57 92 -16 4 -40 16 -53 27 -13 11 -68 36 -123 54 l-99 34 -102 105 c-57 58
-103 109 -103 114 0 5 -3 11 -7 13 -5 2 -21 19 -37 38 -15 19 -38 39 -49 45
-11 5 -22 15 -24 22 -5 14 17 11 91 -13z m-3207 -279 c59 -26 112 -51 116 -55
5 -4 -11 -23 -35 -41 -53 -42 -77 -69 -125 -139 -21 -30 -40 -57 -43 -60 -3
-3 -13 -22 -23 -44 -10 -21 -20 -37 -22 -34 -2 2 -11 65 -20 139 -9 73 -17
141 -20 149 -2 8 -7 40 -10 70 -3 30 -10 73 -15 95 -5 22 -10 44 -10 48 0 5
22 -11 49 -35 32 -29 87 -62 158 -93z m1088 110 c85 -7 182 -32 168 -44 -9 -8
-103 -37 -143 -45 -14 -2 -54 -11 -90 -20 -129 -31 -233 -39 -421 -33 -177 6
-265 16 -244 29 9 5 71 24 205 63 112 32 307 62 385 59 33 -1 96 -5 140 -9z
m501 -90 l6 -57 -49 33 c-26 19 -50 35 -52 36 -2 2 13 18 35 37 46 40 51 36
60 -49z m768 24 c58 -22 93 -52 112 -98 20 -47 18 -56 -13 -77 -18 -11 -24
-12 -17 -3 19 24 23 58 9 69 -16 14 -40 3 -74 -34 -19 -20 -27 -23 -38 -14
-19 15 -76 -14 -91 -45 -5 -12 -20 -46 -33 -74 -17 -39 -29 -53 -44 -53 -11 0
-48 -10 -81 -22 l-61 -22 -34 38 c-51 58 -57 72 -48 126 13 86 47 129 145 186
96 57 165 63 268 23z m-859 -89 c39 -27 87 -90 69 -90 -4 0 -1 -6 5 -14 7 -8
10 -47 8 -105 l-4 -92 -41 -45 c-23 -26 -44 -59 -47 -77 -9 -54 -13 -91 -14
-114 -1 -20 -5 -22 -31 -16 -25 4 -30 2 -30 -13 0 -22 -48 -74 -69 -74 -9 0
-45 -11 -81 -23 -36 -13 -94 -27 -130 -31 -36 -3 -76 -8 -90 -11 -76 -15 -316
-25 -460 -20 -309 12 -361 25 -520 131 -70 47 -104 90 -126 163 -13 44 -12 48
13 96 52 100 123 186 215 258 l46 37 74 -16 c40 -8 109 -19 153 -24 44 -5 91
-12 105 -15 26 -6 258 -6 300 0 101 14 225 37 238 44 10 5 42 11 72 15 30 4
80 16 112 27 32 10 65 19 75 19 10 0 27 8 38 16 27 20 65 12 120 -26z m1563
-40 c34 -16 58 -37 86 -76 21 -31 36 -57 35 -58 -13 -11 -48 -15 -54 -6 -10
16 -43 12 -54 -7 -9 -17 -11 -17 -27 -1 -17 17 -19 17 -41 -4 -16 -15 -26 -18
-35 -10 -17 13 -48 -11 -69 -56 -16 -32 -16 -32 -37 -14 -12 11 -18 23 -14 27
4 5 -1 5 -10 2 -10 -3 -20 -2 -23 2 -2 5 -20 12 -38 15 -30 6 -33 10 -35 43
-3 38 32 123 50 123 6 0 20 8 33 18 36 28 172 29 233 2z m-378 -60 c0 -11 -4
-20 -9 -20 -5 0 -7 9 -4 20 3 11 7 20 9 20 2 0 4 -9 4 -20z m-15 -69 c-4 -17
-11 -31 -16 -31 -12 0 -11 12 1 46 14 35 24 24 15 -15z m-344 -78 c13 -15 12
-15 -8 -4 -24 12 -29 21 -14 21 5 0 15 -7 22 -17z m-488 -33 c-19 -22 -26 -21
-17 4 3 9 12 16 20 16 11 0 10 -4 -3 -20z m66 6 c7 -8 8 -17 3 -19 -4 -3 -13
3 -20 14 -14 22 0 26 17 5z m685 -66 l-26 -54 22 -15 c24 -16 35 -19 88 -25
40 -4 64 -33 50 -59 -7 -14 -5 -23 11 -36 12 -10 21 -27 21 -37 0 -24 34 -46
57 -37 10 4 -7 -18 -37 -48 -66 -66 -129 -90 -180 -69 -16 7 -30 16 -30 20 0
5 -17 16 -37 25 l-38 17 3 82 c3 68 0 95 -21 153 -16 48 -21 76 -15 87 5 9 13
14 17 12 4 -3 37 5 72 18 35 13 65 23 66 21 2 -1 -9 -26 -23 -55z m-438 -14
c-9 -14 -16 -34 -16 -45 0 -21 27 -41 46 -34 19 7 32 -38 18 -66 -22 -45 -28
-81 -12 -81 7 0 19 -9 26 -20 14 -24 54 -26 72 -5 13 15 55 12 74 -6 6 -5 18
-9 29 -9 10 0 15 -4 12 -10 -3 -5 -21 -10 -38 -10 -67 0 -153 -40 -219 -101
l-46 -44 -27 53 c-15 28 -36 57 -48 64 -73 38 -108 140 -67 191 5 7 25 32 43
57 24 33 45 49 77 60 25 9 54 21 65 27 27 16 31 8 11 -21z m-521 -13 c-11 -26
-7 -66 8 -75 6 -5 22 -6 34 -3 12 3 34 0 49 -5 19 -8 30 -7 41 1 10 9 17 9 25
1 19 -19 56 -14 72 9 24 34 35 14 19 -33 -9 -26 -13 -60 -9 -84 l5 -40 -61
-13 c-33 -7 -89 -26 -123 -42 -34 -16 -69 -29 -77 -29 -56 0 -90 162 -50 240
15 30 59 86 71 89 2 1 0 -7 -4 -16z m1486 -79 c32 -20 59 -40 59 -44 0 -28
-91 -159 -110 -159 -8 -1 -35 4 -59 10 -40 9 -46 7 -78 -17 -45 -34 -59 -21
-33 32 28 55 49 144 43 176 -6 30 5 35 75 37 34 1 57 -7 103 -35z m-3183 -124
c26 -36 122 -119 122 -106 0 3 17 -4 38 -16 76 -43 109 -57 185 -72 105 -22
496 -32 637 -16 58 6 133 13 167 15 35 2 71 8 80 13 10 5 23 7 30 5 28 -10
197 56 252 98 33 26 38 24 52 -18 7 -21 21 -46 31 -55 19 -16 18 -18 -16 -62
-55 -72 -62 -211 -14 -276 l22 -30 -22 -15 c-32 -23 -64 -58 -91 -104 -6 -10
-13 -10 -29 -2 -15 8 -33 7 -72 -5 -40 -12 -66 -30 -120 -84 -73 -74 -105
-131 -118 -214 -11 -70 -2 -170 22 -236 5 -15 -62 -70 -84 -70 -6 0 -10 -7
-10 -15 0 -8 -13 -29 -28 -47 -42 -50 -59 -104 -57 -184 3 -96 49 -177 134
-236 21 -15 18 -15 -41 -17 -252 -9 -468 1 -545 23 -29 9 -74 22 -100 30 -169
49 -264 152 -278 301 -3 22 -7 56 -9 75 -3 19 -8 67 -11 105 -3 39 -8 79 -10
90 -2 11 -7 54 -10 95 -10 121 -15 161 -19 168 -2 4 -7 36 -11 72 -3 36 -10
79 -15 95 -4 17 -11 60 -14 96 -3 36 -10 88 -15 115 -5 27 -12 85 -16 129 -3
44 -8 88 -11 98 -3 11 -7 29 -9 40 -1 12 -8 60 -14 107 -18 133 -20 150 -16
150 2 0 17 -18 33 -40z m2060 -185 c13 -18 26 -46 31 -63 17 -58 -5 -222 -30
-222 -5 0 -9 6 -9 13 0 7 -9 18 -20 25 -29 18 -50 -5 -50 -56 0 -38 -2 -40
-37 -46 -98 -16 -205 6 -275 55 -57 41 -76 141 -40 209 20 36 52 59 34 24 -5
-11 -12 -31 -16 -47 -5 -23 -3 -29 20 -37 21 -8 29 -7 38 5 6 9 32 16 64 19
49 3 56 7 82 44 26 34 34 39 62 35 74 -8 81 -7 91 9 9 13 9 25 0 47 -6 16 -9
32 -6 35 9 8 38 -15 61 -49z m861 -17 c20 -27 31 -54 31 -75 0 -19 7 -44 15
-57 21 -32 11 -52 -28 -53 -24 -1 -36 5 -43 20 -5 11 -18 22 -29 23 -11 1 -27
4 -35 8 -21 8 -33 -3 -55 -49 -18 -38 -18 -39 -27 -15 -5 13 -14 31 -21 39 -7
8 -12 36 -12 63 0 45 2 49 30 58 17 6 53 26 80 44 28 19 53 35 57 35 3 1 20
-18 37 -41z m-279 -134 c0 -52 4 -68 21 -85 18 -18 21 -29 16 -69 -5 -41 -47
-136 -67 -150 -4 -3 -11 -18 -17 -34 -17 -55 -153 -82 -304 -61 -73 10 -199
107 -199 153 0 8 15 33 33 55 17 23 31 41 29 42 -2 0 -1 12 3 27 6 25 11 27
41 23 33 -4 64 14 64 37 0 6 9 8 20 5 10 -3 24 1 31 9 6 8 25 14 41 14 16 0
31 6 34 15 4 8 15 15 25 15 10 0 30 13 44 28 28 32 71 37 113 13 26 -14 25
-15 41 17 19 36 31 16 31 -54z m480 -56 c-10 -13 -26 -32 -33 -42 -14 -19 -15
-19 -21 2 -9 26 20 60 51 61 23 1 23 1 3 -21z m-220 -28 c0 -5 -5 -10 -11 -10
-5 0 -7 5 -4 10 3 6 8 10 11 10 2 0 4 -4 4 -10z m-20 -39 c0 -5 -9 -19 -21
-32 l-20 -24 17 33 c19 33 24 38 24 23z m-1227 -117 c3 -4 0 -22 -8 -41 -23
-54 -19 -65 38 -109 71 -56 137 -71 162 -37 10 13 15 13 47 -3 35 -16 38 -16
62 0 28 18 33 35 15 53 -6 6 -8 16 -4 23 14 23 32 -10 34 -64 2 -63 -27 -139
-75 -193 -75 -84 -285 -84 -354 -1 -66 79 -68 262 -4 320 11 9 28 26 39 37 21
20 37 25 48 15z m1227 -24 c0 -5 -9 -10 -21 -10 -11 0 -17 5 -14 10 3 6 13 10
21 10 8 0 14 -4 14 -10z m173 -102 c-17 -18 -34 -43 -38 -56 -8 -26 -55 -64
-109 -86 -47 -20 -46 -20 -46 2 0 24 -57 133 -78 149 -9 7 -12 13 -7 13 6 0
15 -4 20 -9 27 -24 74 -29 127 -14 69 19 118 30 142 32 17 1 15 -4 -11 -31z
m-1715 -81 c-33 -65 -38 -115 -12 -130 8 -4 14 -15 14 -22 0 -8 5 -15 10 -15
6 0 10 -8 10 -18 0 -33 31 -83 59 -95 14 -7 32 -17 39 -24 7 -7 24 -13 37 -13
27 0 36 23 23 58 -9 27 11 30 35 5 14 -16 14 -22 -2 -68 -24 -70 -63 -95 -150
-95 -127 0 -173 29 -194 121 -25 108 10 226 86 295 55 49 69 50 45 1z m1212
-37 c-6 -11 -15 -20 -20 -20 -6 0 -10 -11 -10 -24 0 -36 84 -82 123 -68 25 9
27 8 27 -14 0 -14 7 -27 16 -31 10 -4 14 -13 10 -26 -3 -12 -1 -26 4 -33 7 -7
5 -26 -5 -53 -14 -42 -14 -42 13 -53 15 -7 28 -13 30 -14 2 -1 -7 -17 -18 -37
-33 -56 -116 -92 -211 -92 -69 0 -79 2 -96 24 -12 15 -32 25 -50 27 -34 2 -73
20 -73 34 0 5 9 14 19 19 10 6 31 31 45 56 15 25 30 45 35 45 17 0 46 130 44
202 l-2 46 57 15 c31 8 61 15 65 16 4 0 3 -8 -3 -19z m-466 -19 c3 -5 1 -23
-6 -42 -10 -29 -9 -34 12 -51 16 -13 32 -17 48 -13 19 5 23 3 19 -9 -8 -19 12
-34 43 -34 59 0 95 -9 98 -25 2 -9 10 -17 19 -19 29 -6 -58 -102 -104 -116
-102 -30 -196 -8 -243 58 -28 40 -25 60 19 103 26 26 44 56 56 97 17 57 27 70
39 51z m-367 -279 c-6 -15 -17 -36 -24 -47 -23 -34 -16 -51 27 -64 23 -7 40
-18 40 -27 0 -16 39 -35 54 -26 16 9 76 11 76 2 0 -5 9 -14 20 -20 17 -9 23
-6 40 22 12 20 17 41 14 53 -5 16 -1 14 18 -8 21 -24 25 -37 22 -75 -7 -89
-71 -198 -136 -232 -27 -14 -58 -20 -102 -20 -92 0 -120 8 -167 48 -56 48 -76
96 -74 177 2 61 5 69 37 103 36 37 78 110 78 134 0 9 13 12 44 10 44 -4 45 -4
33 -30z m380 -157 c-15 -32 -27 -32 -27 0 0 18 5 25 19 25 17 0 18 -3 8 -25z
m-885 -42 c-2 -18 3 -37 12 -46 9 -9 16 -23 16 -31 0 -9 6 -16 13 -16 8 0 19
-11 25 -25 6 -14 17 -25 24 -25 16 0 98 -72 98 -86 0 -19 35 -43 73 -51 l37
-8 -25 -37 c-35 -52 -114 -89 -181 -84 -90 6 -221 110 -243 193 -13 49 -6 128
13 158 29 43 64 76 93 85 40 12 48 7 45 -27z m238 28 c0 -13 -28 -22 -35 -11
-3 4 1 11 7 13 20 8 28 8 28 -2z m634 -58 c-3 -13 10 -28 43 -50 27 -18 54
-33 61 -33 6 0 12 -4 12 -8 0 -5 18 -21 39 -38 28 -21 41 -38 43 -59 3 -25 7
-30 30 -30 19 1 25 -4 23 -16 -7 -35 -45 -97 -83 -135 -47 -47 -102 -64 -205
-64 -61 0 -80 5 -123 30 -43 24 -94 80 -94 103 0 3 21 15 46 26 44 20 124 91
124 110 0 5 6 16 14 23 17 18 56 105 56 128 0 14 8 30 16 30 1 0 0 -8 -2 -17z
m-556 -208 c-3 -3 -9 2 -12 12 -6 14 -5 15 5 6 7 -7 10 -15 7 -18z m-28 -215
c0 -5 24 -9 53 -8 66 2 76 -1 104 -34 23 -25 37 -28 74 -13 11 4 18 0 21 -13
3 -10 15 -22 27 -25 17 -4 27 2 42 26 15 26 19 28 19 12 0 -53 -97 -162 -156
-175 -106 -25 -205 -2 -257 59 -44 53 -35 126 21 158 43 24 52 27 52 13z"/>
</g>
</svg>
