<?xml version="1.0" standalone="no"?>
<!DOCTYPE svg PUBLIC "-//W3C//DTD SVG 20010904//EN"
 "http://www.w3.org/TR/2001/REC-SVG-20010904/DTD/svg10.dtd">
<svg version="1.0" xmlns="http://www.w3.org/2000/svg"
 width="491.000000pt" height="381.000000pt" viewBox="0 0 491.000000 381.000000"
 preserveAspectRatio="xMidYMid meet">
<metadata>
Created by potrace 1.16, written by Peter Selinger 2001-2019
</metadata>
<g transform="translate(0.000000,381.000000) scale(0.100000,-0.100000)"
fill="#000000" stroke="none">
<path d="M1677 3624 c-1 -1 -99 -5 -217 -8 -270 -7 -458 -25 -560 -53 -30 -8
-62 -16 -70 -17 -38 -6 -156 -52 -170 -66 -14 -14 -68 -48 -85 -54 -28 -8 -62
-63 -71 -111 -4 -22 -13 -49 -21 -61 -7 -11 -11 -22 -9 -25 2 -2 7 -60 11
-129 3 -69 10 -159 15 -200 5 -41 12 -120 15 -175 3 -55 8 -127 12 -160 7 -71
11 -116 18 -210 3 -38 10 -97 14 -130 5 -33 10 -87 10 -120 1 -33 6 -85 11
-115 5 -30 12 -84 15 -120 3 -36 7 -90 10 -120 8 -81 16 -186 19 -266 5 -109
27 -245 45 -279 9 -16 16 -34 16 -40 2 -26 41 -80 112 -153 95 -98 169 -139
284 -157 14 -2 53 -11 85 -19 106 -27 355 -37 429 -17 22 5 72 12 110 15 107
7 227 39 322 85 23 12 45 25 48 31 12 19 21 10 54 -52 18 -35 50 -88 72 -118
21 -30 54 -77 72 -105 77 -114 135 -171 218 -214 45 -23 93 -41 107 -41 15 -1
63 -10 107 -21 44 -11 116 -23 159 -25 44 -3 86 -8 93 -13 8 -4 36 -4 61 1 26
4 72 11 102 14 30 4 61 11 68 17 9 7 21 2 45 -20 30 -29 129 -93 187 -120 42
-20 141 -41 226 -47 44 -4 89 -8 100 -10 10 -3 37 -8 59 -13 94 -19 253 -1
380 43 71 26 128 43 155 48 32 6 66 25 93 50 15 14 32 26 38 26 5 0 9 4 9 9 0
5 15 25 33 43 84 89 95 106 163 253 52 113 65 148 69 185 1 8 19 65 39 125 59
173 51 320 -18 326 -6 0 -22 3 -36 5 -30 5 -7 5 -232 2 l-186 -3 -12 70 c-7
39 -13 95 -14 125 -1 30 -5 60 -8 66 -4 6 -16 45 -27 86 -11 42 -30 92 -42
112 -11 20 -19 36 -16 36 6 0 -108 228 -134 268 -20 33 -163 143 -236 183 -35
18 -63 37 -63 42 0 4 -5 5 -10 2 -6 -4 -26 3 -46 15 -19 12 -37 20 -40 17 -3
-3 -25 1 -47 10 -23 8 -64 16 -92 18 -27 2 -50 4 -50 5 0 9 -101 8 -167 0 -45
-6 -103 -14 -128 -16 -38 -5 -95 -13 -197 -29 -12 -2 -27 -6 -32 -10 -6 -3
-11 -1 -11 5 0 7 -7 5 -16 -4 -8 -9 -27 -19 -42 -22 -15 -3 -34 -8 -42 -11 -8
-3 -22 -7 -30 -8 -17 -3 -200 -75 -269 -107 -27 -12 -46 -16 -50 -10 -5 8 -6
167 -1 167 7 0 12 60 15 166 2 69 6 148 9 175 3 27 10 117 16 199 6 83 12 159
15 170 2 11 6 47 10 80 3 33 11 89 17 124 10 59 9 65 -9 80 -11 9 -33 40 -49
69 -27 52 -35 59 -133 111 -14 8 -29 19 -33 25 -4 6 -8 7 -8 3 0 -5 -17 1 -37
11 -53 28 -135 58 -228 83 -65 18 -110 22 -238 23 -87 1 -159 1 -160 0z m223
-108 c205 -24 321 -55 366 -97 11 -10 24 -19 29 -19 4 0 25 -7 45 -16 47 -21
79 -68 89 -135 l9 -54 -68 -68 c-65 -64 -70 -67 -107 -62 -21 3 -71 8 -112 11
-41 3 -82 9 -91 14 -10 5 -19 7 -22 5 -2 -2 -33 0 -68 6 -36 5 -108 14 -160
20 -52 5 -108 12 -125 15 -16 3 -37 6 -45 6 -69 0 -132 -5 -169 -13 -24 -5
-112 -12 -195 -15 -83 -3 -164 -9 -181 -14 -16 -5 -56 -12 -87 -15 -31 -3 -69
-10 -83 -15 -40 -15 -72 -12 -123 12 -26 12 -50 21 -54 20 -11 -3 -109 110
-119 138 -6 13 -7 36 -4 50 7 25 37 60 53 60 5 0 14 11 22 24 14 28 105 71
165 80 22 3 78 12 125 22 47 9 94 17 106 18 11 2 27 7 34 11 26 16 648 25 770
11z m-105 -461 c33 -3 71 -8 84 -10 13 -2 78 -9 145 -16 66 -7 125 -15 129
-19 19 -17 -334 -84 -415 -79 -24 2 -49 0 -54 -4 -11 -6 -206 -2 -362 9 -94 6
-262 41 -297 62 -20 11 -20 11 0 13 26 2 55 6 81 12 11 3 54 8 95 12 153 13
251 24 256 28 6 6 267 0 338 -8z m-1109 -62 c53 -36 150 -74 204 -79 25 -3 59
-9 75 -14 30 -10 134 -31 257 -54 94 -18 376 -24 513 -12 39 4 125 10 192 16
80 5 152 18 207 34 46 14 93 26 104 26 12 0 48 12 82 26 33 15 64 24 67 20 8
-8 11 -160 5 -223 -3 -28 -12 -51 -28 -65 -15 -15 -24 -34 -24 -55 0 -27 4
-32 29 -38 l28 -6 -2 -82 c-3 -99 -15 -317 -20 -349 -2 -13 -6 -48 -10 -80 -7
-49 -14 -63 -59 -112 -29 -31 -62 -75 -74 -98 -11 -24 -30 -53 -42 -66 -11
-12 -18 -22 -14 -22 4 0 0 -8 -8 -17 -12 -15 -31 -65 -44 -115 -1 -5 -2 -9 -4
-10 -1 -2 -3 -12 -4 -23 -4 -30 -26 -127 -36 -155 -13 -37 -19 -88 -21 -180
-1 -75 -4 -85 -31 -115 -59 -69 -145 -102 -318 -126 -41 -6 -79 -14 -85 -19
-18 -14 -67 -20 -200 -25 -286 -11 -349 -6 -420 32 -16 9 -46 24 -66 34 -20
10 -51 35 -68 56 -18 21 -45 52 -60 68 -27 28 -49 82 -49 115 0 26 -12 123
-23 179 -17 85 -18 95 -24 276 -3 94 -7 206 -10 250 -2 44 -7 157 -10 250 -3
94 -8 191 -12 218 -4 38 -3 47 10 47 26 0 37 81 14 104 -7 7 -18 11 -25 8 -6
-2 -13 5 -13 15 -1 10 -3 29 -5 43 -2 14 -4 50 -4 80 0 30 -6 75 -13 100 -16
54 -22 170 -9 170 5 0 27 -12 48 -27z m2789 -756 c82 -16 215 -64 231 -83 6
-8 13 -11 16 -9 12 12 278 -186 296 -221 7 -13 9 -24 5 -24 -4 0 -3 -4 2 -8
11 -8 75 -132 79 -153 2 -8 6 -23 10 -34 29 -75 34 -96 41 -145 4 -30 12 -66
17 -80 5 -14 12 -61 15 -105 l5 -80 -178 7 c-137 6 -774 3 -909 -4 -11 0 -73
0 -138 2 -71 1 -123 -2 -129 -8 -6 -6 -10 -77 -10 -181 1 -140 5 -185 21 -245
23 -85 66 -163 121 -221 121 -127 131 -140 115 -151 -16 -12 -83 -18 -185 -18
-58 0 -155 20 -215 44 -11 5 -47 18 -80 30 -32 12 -76 33 -96 48 -50 37 -129
111 -129 120 0 5 -13 21 -30 37 -16 16 -42 51 -56 79 -15 28 -30 53 -33 56
-33 24 -74 140 -87 240 -15 123 4 319 37 382 5 10 9 28 9 40 0 33 19 95 33
110 7 7 20 30 29 51 10 20 23 37 28 37 6 0 9 3 6 8 -10 17 50 96 132 176 61
58 162 127 174 120 4 -3 8 0 8 6 0 6 19 20 43 31 23 12 62 31 87 44 25 12 79
30 120 40 41 9 93 23 115 32 22 8 60 16 85 18 25 2 63 6 85 9 22 3 62 7 89 10
27 3 51 8 55 11 7 8 70 1 166 -18z m167 -1004 c28 -8 28 -8 -56 -96 l-84 -87
-28 15 c-45 23 -73 19 -80 -12 -4 -16 -3 -28 3 -30 6 -2 18 -9 28 -17 16 -11
14 -15 -18 -47 -19 -19 -40 -39 -48 -45 -8 -6 -36 -37 -62 -68 -27 -31 -55
-56 -63 -56 -8 0 -14 -6 -14 -14 0 -23 -19 -29 -27 -9 -4 10 -19 36 -34 58
-29 43 -51 130 -48 186 1 19 -1 50 -6 69 -4 19 -8 58 -9 87 l-1 52 65 6 c36 3
74 7 85 9 49 6 373 5 397 -1z m193 -70 c-4 -88 -14 -143 -44 -257 -12 -44 -21
-100 -22 -125 -1 -77 -3 -79 -94 -77 -63 1 -80 -2 -82 -14 -6 -31 14 -42 87
-48 l72 -5 -7 -61 c-4 -34 -7 -74 -6 -90 1 -25 -1 -28 -21 -22 -13 4 -48 11
-78 17 -30 6 -57 14 -60 17 -3 4 -48 24 -100 45 -85 34 -128 60 -203 119 -21
17 -21 19 -4 32 9 7 17 18 17 24 0 6 3 12 8 14 4 2 43 43 87 93 44 49 90 101
102 114 13 15 27 21 37 18 22 -9 66 9 66 27 0 7 -6 16 -14 19 -25 10 210 235
245 236 15 1 17 -10 14 -76z m570 51 l81 -5 -3 -77 c-2 -42 -6 -84 -10 -92 -3
-8 -7 -21 -9 -28 -2 -12 -27 -64 -59 -123 -16 -30 -38 -33 -55 -7 -8 12 -27
37 -42 54 -16 17 -28 36 -28 41 0 5 14 30 30 55 34 52 32 79 -8 75 -22 -1 -53
-35 -65 -72 -2 -5 -32 22 -68 60 -35 39 -77 82 -92 97 l-28 27 63 3 c69 3 170
1 293 -8z m-1395 -14 c-9 -6 -8 -27 3 -91 8 -46 15 -99 16 -118 1 -19 6 -52
12 -75 6 -23 14 -57 18 -78 12 -56 109 -198 166 -243 111 -88 249 -157 380
-190 28 -7 76 -20 108 -29 76 -20 93 -17 310 50 102 31 127 44 178 86 33 28
64 59 70 69 5 10 16 19 23 19 12 0 133 163 145 195 2 5 13 23 23 38 50 71 86
165 103 269 l18 107 29 -4 c84 -11 85 -11 78 -63 -4 -26 -13 -69 -20 -95 -7
-26 -10 -50 -7 -53 3 -4 2 -17 -3 -30 -5 -13 -14 -50 -19 -82 -9 -58 -96 -254
-145 -327 -33 -49 -128 -141 -170 -164 -17 -10 -51 -21 -76 -25 -25 -4 -81
-18 -125 -32 -44 -14 -91 -27 -105 -29 -14 -2 -45 -8 -70 -13 -26 -5 -55 -5
-65 -1 -11 4 -34 8 -52 8 -32 1 -150 28 -168 39 -5 4 -12 7 -15 7 -67 9 -111
20 -136 35 -17 10 -46 21 -64 25 -19 4 -45 18 -59 31 -14 13 -30 24 -35 24
-17 0 -142 100 -156 124 -7 15 -19 26 -26 26 -16 0 -129 116 -155 159 -11 18
-29 42 -39 54 -11 12 -19 26 -17 32 2 5 -2 26 -9 47 -16 46 -25 196 -14 244 5
20 15 41 22 45 7 5 9 9 3 10 -5 0 1 4 15 8 28 9 49 2 30 -9z m1008 -72 c19
-16 61 -60 93 -98 54 -62 58 -71 49 -95 -13 -34 -5 -48 20 -35 25 13 41 6 67
-33 13 -17 36 -46 51 -62 32 -34 30 -53 -7 -92 -12 -12 -21 -26 -21 -30 -1 -4
-39 -40 -86 -80 -67 -56 -96 -74 -137 -84 -29 -6 -83 -22 -122 -34 -38 -12
-83 -25 -98 -29 -27 -6 -28 -6 -12 17 9 14 15 44 14 78 -1 72 13 107 48 114
40 9 58 20 58 36 0 10 -12 13 -45 12 l-45 -2 6 82 c4 45 16 118 27 162 12 44
24 112 28 150 3 39 8 73 11 77 6 11 61 -19 101 -54z"/>
<path d="M2263 2595 c-18 -8 -33 -21 -33 -30 0 -9 -9 -15 -22 -15 -40 0 -54
-15 -42 -47 12 -36 50 -43 71 -14 8 12 21 21 30 21 25 0 73 33 73 51 0 14 -30
50 -41 49 -2 -1 -19 -7 -36 -15z"/>
<path d="M785 2496 c-9 -44 8 -76 35 -69 42 11 35 69 -11 94 -15 8 -19 4 -24
-25z"/>
<path d="M2005 2490 c-16 -18 -17 -21 -1 -44 16 -26 31 -26 68 -1 16 10 16 13
0 36 -22 31 -44 34 -67 9z"/>
<path d="M922 2478 c-30 -30 5 -77 47 -63 27 8 32 29 15 54 -17 23 -44 27 -62
9z"/>
<path d="M1870 2465 c-16 -19 -21 -75 -7 -76 50 -5 82 19 73 55 -7 27 -50 40
-66 21z"/>
<path d="M1318 2451 c-24 -24 -25 -43 -4 -68 16 -18 23 -20 40 -10 12 6 24 10
29 9 4 -1 7 9 7 22 0 16 -10 32 -27 44 -26 18 -29 18 -45 3z"/>
<path d="M1123 2453 c-7 -2 -13 -20 -13 -38 0 -27 5 -34 27 -39 36 -10 57 13
49 51 -7 28 -31 39 -63 26z"/>
<path d="M1476 2434 c-20 -19 -20 -29 -1 -58 13 -20 21 -23 43 -17 33 9 39 34
18 66 -19 29 -38 32 -60 9z"/>
<path d="M1683 2424 c-9 -24 17 -64 43 -64 30 0 43 49 18 67 -24 18 -53 16
-61 -3z"/>
<path d="M3562 2130 c-16 -26 -15 -57 1 -63 21 -8 68 4 74 20 3 8 1 25 -5 39
-14 30 -52 32 -70 4z"/>
<path d="M3550 2009 c-9 -15 -8 -24 1 -35 6 -8 13 -40 14 -72 3 -72 11 -89 38
-88 21 1 22 6 25 88 2 77 0 90 -18 108 -26 26 -46 26 -60 -1z"/>
<path d="M3704 1796 c-21 -33 -15 -70 13 -74 40 -6 74 78 37 92 -26 10 -33 7
-50 -18z"/>
<path d="M3420 1799 c0 -5 -7 -9 -15 -9 -21 0 -19 -22 5 -48 21 -22 55 -28 78
-14 21 14 -2 58 -37 70 -19 7 -31 7 -31 1z"/>
<path d="M2873 1783 c4 -3 0 -14 -9 -24 -12 -14 -13 -22 -4 -38 13 -25 20 -26
65 -7 28 12 33 18 28 38 -4 13 -11 26 -17 30 -14 10 -72 10 -63 1z"/>
<path d="M3034 1746 c-16 -42 27 -56 177 -56 44 0 79 -4 79 -8 0 -5 14 -7 30
-4 31 4 39 22 18 40 -7 6 -58 15 -113 21 -55 6 -119 14 -143 17 -32 4 -44 2
-48 -10z"/>
<path d="M3886 1711 c-3 -5 -19 -11 -35 -14 -37 -8 -73 -41 -65 -62 16 -41
148 11 137 55 -5 20 -29 34 -37 21z"/>
<path d="M3430 1697 c-35 -18 -34 -58 2 -68 33 -9 51 9 46 47 -4 33 -15 38
-48 21z"/>
<path d="M3545 1689 c-32 -9 -61 -51 -71 -106 -5 -26 -1 -36 21 -57 16 -14 35
-26 44 -26 19 0 88 -23 97 -33 4 -4 1 -13 -5 -21 -17 -20 -10 -87 11 -99 12
-8 24 -7 42 1 22 10 26 18 26 56 0 24 -5 46 -11 48 -9 3 -9 10 0 26 7 12 9 27
6 32 -6 10 22 60 42 73 18 11 -4 67 -27 67 -11 0 -22 5 -25 10 -4 6 -11 8 -16
4 -5 -3 -26 4 -45 15 -38 23 -44 24 -89 10z m70 -99 c36 -14 24 -27 -19 -22
-25 3 -33 8 -29 18 6 17 13 17 48 4z"/>
<path d="M3348 1568 c-13 -7 -21 -68 -10 -69 4 0 20 -3 35 -5 16 -3 35 1 44 7
12 11 13 8 8 -14 -5 -17 -2 -33 5 -42 10 -13 8 -15 -14 -15 -22 0 -26 -4 -26
-29 0 -41 18 -52 59 -35 26 11 32 18 28 35 -4 14 1 23 18 31 28 13 38 43 19
59 -8 6 -14 8 -14 4 0 -5 -9 0 -20 10 -11 10 -20 13 -20 7 0 -26 -20 -9 -30
26 -10 32 -16 37 -42 37 -16 0 -35 -3 -40 -7z"/>
<path d="M3846 1541 c-4 -6 -18 -11 -31 -11 -26 0 -51 -33 -39 -52 4 -6 8 -28
9 -50 4 -66 54 -89 83 -38 9 16 21 30 25 30 4 0 -1 10 -13 22 -11 12 -20 25
-20 29 0 11 29 19 34 10 3 -4 22 -5 43 -2 47 8 57 36 18 51 -45 17 -102 23
-109 11z"/>
<path d="M3191 1511 c-6 -4 -9 -15 -5 -24 5 -15 3 -16 -17 -9 -41 15 -71 -4
-62 -39 8 -27 57 -25 77 3 9 12 16 17 16 10 0 -17 26 -15 45 4 14 14 14 19 2
37 -14 22 -37 29 -56 18z"/>
</g>
</svg>
