<?xml version="1.0" standalone="no"?>
<!DOCTYPE svg PUBLIC "-//W3C//DTD SVG 20010904//EN"
 "http://www.w3.org/TR/2001/REC-SVG-20010904/DTD/svg10.dtd">
<svg version="1.0" xmlns="http://www.w3.org/2000/svg"
 width="451.000000pt" height="365.000000pt" viewBox="0 0 451.000000 365.000000"
 preserveAspectRatio="xMidYMid meet">
<metadata>
Created by potrace 1.16, written by Peter Selinger 2001-2019
</metadata>
<g transform="translate(0.000000,365.000000) scale(0.100000,-0.100000)"
fill="#000000" stroke="none">
<path d="M1865 3519 c-55 -4 -138 -12 -184 -18 -46 -7 -90 -10 -97 -7 -8 3
-14 1 -14 -4 0 -8 -96 -34 -114 -30 -5 1 -12 -2 -15 -7 -3 -4 -33 -21 -65 -36
-79 -38 -162 -110 -176 -153 -13 -37 -15 -120 -7 -199 10 -90 24 -261 32 -385
2 -30 8 -102 14 -160 5 -58 9 -130 8 -160 -2 -30 1 -77 5 -105 4 -27 11 -133
14 -235 3 -102 8 -214 10 -250 2 -36 3 -78 3 -95 -4 -100 -1 -271 5 -340 14
-165 26 -313 31 -400 4 -49 10 -108 15 -129 5 -21 7 -84 5 -140 -2 -58 2 -135
10 -181 9 -49 11 -81 5 -83 -13 -5 40 -80 80 -114 18 -16 41 -28 52 -28 11 0
38 -11 61 -24 23 -14 91 -41 151 -61 92 -31 130 -38 250 -46 77 -6 168 -12
201 -15 33 -3 96 0 140 6 44 5 109 12 145 15 184 14 350 84 350 147 0 11 12
48 26 82 40 94 42 100 42 116 -1 8 9 50 21 93 12 43 24 95 27 115 2 20 6 48 9
62 3 14 8 43 11 65 4 22 10 45 15 51 5 6 11 33 14 60 3 27 11 74 17 104 6 30
12 73 14 95 1 22 7 67 13 100 30 176 52 336 52 385 0 30 5 71 9 90 16 61 20
99 35 265 2 28 9 66 15 85 9 31 21 103 35 210 21 175 28 237 28 250 0 8 5 58
13 110 7 52 16 131 19 175 4 44 9 96 13 115 9 53 4 171 -10 205 -17 46 -74
111 -126 147 -57 39 -129 78 -145 78 -7 0 -36 11 -65 25 -29 13 -63 26 -75 27
-12 2 -28 7 -36 12 -8 5 -32 11 -55 14 -23 2 -48 8 -57 13 -16 8 -118 25 -131
21 -5 -1 -8 2 -8 8 0 6 -3 9 -7 8 -5 -1 -33 2 -63 7 -62 9 -82 12 -160 20 -30
3 -86 11 -125 16 -94 14 -160 16 -280 8z m554 -149 c57 -12 121 -28 142 -35
21 -8 69 -21 106 -31 38 -9 73 -20 78 -24 6 -3 33 -15 60 -25 109 -39 192 -83
214 -114 12 -17 19 -31 15 -31 -3 0 -1 -6 5 -14 18 -22 41 -109 34 -131 -3
-11 -13 -30 -22 -41 -19 -24 -6 -28 -141 44 -147 78 -416 148 -660 173 -162
16 -552 9 -603 -10 -16 -6 -38 -11 -51 -11 -23 0 -201 -73 -223 -92 -28 -23
-53 94 -29 140 16 31 72 79 116 99 57 27 183 63 305 88 142 30 139 30 270 40
49 3 91 7 92 8 7 8 207 -15 292 -33z m-178 -305 c215 -14 573 -117 691 -200
17 -11 16 -13 -5 -32 -26 -23 -57 -36 -147 -58 -73 -19 -75 -19 -110 -28 -23
-7 -64 -12 -165 -23 -69 -7 -390 0 -442 10 -10 2 -63 7 -118 11 -95 6 -135 17
-300 78 -70 27 -205 114 -205 133 0 14 138 74 205 91 103 25 355 33 596 18z
m-836 -261 c38 -24 195 -89 260 -108 134 -38 357 -83 450 -90 218 -17 634 5
757 40 29 8 71 19 93 25 22 5 57 19 78 30 20 11 37 18 37 15 0 -3 -6 -45 -14
-93 -14 -81 -24 -161 -25 -190 -1 -8 -11 -11 -29 -7 -25 5 -30 2 -42 -26 -12
-28 -11 -37 2 -59 8 -14 20 -25 27 -23 8 1 10 -19 5 -80 -7 -98 -42 -326 -54
-348 -4 -8 -11 -42 -14 -75 -4 -33 -15 -91 -26 -130 -11 -40 -24 -136 -30
-225 -10 -142 -24 -256 -66 -525 -9 -55 -17 -116 -19 -135 -7 -70 -27 -170
-36 -176 -5 -3 -7 -9 -4 -14 3 -5 -4 -35 -15 -67 -11 -31 -20 -70 -20 -85 0
-30 -19 -78 -31 -78 -4 0 -11 -10 -15 -23 -6 -20 -59 -76 -73 -78 -14 -2 -39
-8 -81 -19 -65 -17 -78 -20 -145 -27 -72 -7 -334 -6 -390 2 -22 3 -65 8 -95
11 -30 3 -70 7 -88 9 -35 5 -164 45 -172 54 -5 7 -34 23 -93 55 -38 20 -63 59
-73 115 -3 14 -8 29 -11 34 -6 9 -6 14 -23 242 -5 77 -14 199 -20 270 -6 72
-10 150 -9 175 3 108 -16 638 -30 850 -13 195 -21 380 -15 380 2 0 13 -6 25
-12 17 -11 22 -10 33 4 7 10 16 15 19 11 10 -9 8 6 -4 50 -9 32 -14 37 -39 37
-17 0 -30 -4 -30 -10 0 -5 -4 -10 -9 -10 -8 0 -12 36 -27 275 l-6 100 28 -26
c16 -14 43 -34 59 -45z"/>
<path d="M1534 2409 c-3 -5 -9 -7 -12 -5 -4 2 -7 -14 -6 -36 2 -62 47 -79 77
-29 14 25 23 61 14 61 -1 0 -17 4 -34 9 -20 6 -35 6 -39 0z"/>
<path d="M2856 2364 c-9 -8 -17 -22 -17 -30 -1 -8 -2 -20 -3 -26 -4 -33 56
-46 75 -17 16 25 10 68 -10 79 -25 13 -27 13 -45 -6z"/>
<path d="M1712 2361 c-16 -10 -3 -80 17 -90 9 -4 27 -7 40 -7 19 1 27 8 33 34
6 23 5 38 -3 48 -6 8 -14 13 -16 10 -3 -2 -17 -1 -32 4 -16 4 -33 5 -39 1z"/>
<path d="M2694 2314 c-18 -33 -18 -34 3 -55 32 -32 69 -20 71 23 1 27 -5 36
-27 49 -29 17 -29 17 -47 -17z"/>
<path d="M1986 2290 c-58 -10 -52 -89 7 -90 10 0 24 6 30 13 15 15 20 57 8 57
-5 0 -11 6 -13 13 -2 8 -13 11 -32 7z"/>
<path d="M2186 2284 c-26 -26 -31 -63 -10 -79 16 -11 50 -13 60 -2 2 2 6 17
10 33 5 25 1 33 -20 47 -22 15 -26 15 -40 1z"/>
<path d="M2335 2263 c-17 -36 -17 -37 4 -54 29 -23 63 -11 72 25 9 31 2 59
-12 50 -5 -2 -17 0 -28 5 -16 9 -21 5 -36 -26z"/>
<path d="M2490 2269 c-10 -23 -10 -35 -1 -52 13 -25 61 -33 61 -11 0 8 4 14 9
14 16 0 19 36 4 56 -23 31 -59 28 -73 -7z"/>
</g>
</svg>
