<?xml version="1.0" standalone="no"?>
<!DOCTYPE svg PUBLIC "-//W3C//DTD SVG 20010904//EN"
 "http://www.w3.org/TR/2001/REC-SVG-20010904/DTD/svg10.dtd">
<svg version="1.0" xmlns="http://www.w3.org/2000/svg"
 width="539.000000pt" height="425.000000pt" viewBox="0 0 539.000000 425.000000"
 preserveAspectRatio="xMidYMid meet">
<metadata>
Created by potrace 1.16, written by Peter Selinger 2001-2019
</metadata>
<g transform="translate(0.000000,425.000000) scale(0.100000,-0.100000)"
fill="#000000" stroke="none">
<path d="M2557 4099 c-9 -6 -21 -8 -26 -5 -5 3 -22 -1 -37 -9 -16 -8 -38 -15
-49 -15 -27 -1 -56 -18 -105 -63 -37 -35 -43 -37 -58 -24 -34 30 -102 57 -142
57 -50 0 -84 -16 -76 -36 6 -16 -10 -19 -19 -4 -14 23 -62 8 -127 -39 -57 -43
-72 -60 -103 -125 -37 -75 -41 -105 -20 -158 6 -15 1 -17 -28 -16 -52 2 -124
-53 -160 -122 -40 -76 -41 -91 -12 -162 14 -34 25 -66 25 -71 0 -5 16 -28 36
-52 34 -42 35 -45 21 -72 -9 -15 -20 -49 -26 -75 -13 -54 -3 -84 43 -136 25
-27 36 -32 71 -30 62 2 80 -12 76 -61 -3 -51 24 -101 56 -101 27 0 30 -5 49
-77 22 -84 57 -115 144 -128 25 -4 48 -9 52 -11 5 -3 5 -30 2 -60 -6 -44 -3
-58 11 -74 10 -11 26 -20 35 -20 39 0 43 -21 47 -298 3 -147 5 -292 6 -322 0
-30 -3 -83 -7 -118 -10 -85 -15 -157 -21 -281 -2 -57 -7 -106 -9 -109 -3 -2
-8 14 -12 37 -4 22 -11 41 -16 41 -5 0 -7 4 -4 9 3 5 -1 14 -9 21 -8 7 -20 31
-26 54 -16 62 -99 274 -130 332 -15 29 -26 54 -24 56 6 5 -37 129 -66 193 -12
28 -24 57 -25 65 -1 8 -9 44 -18 80 -18 74 -35 146 -40 175 -9 50 -19 195 -17
244 1 30 -2 57 -6 60 -5 3 -16 17 -25 30 l-17 23 -23 -25 c-28 -30 -68 -94
-68 -109 0 -5 -12 -33 -26 -62 -40 -78 -55 -127 -45 -140 9 -11 9 -102 -1
-111 -2 -3 -29 25 -58 63 -30 37 -69 82 -87 101 -18 19 -42 54 -54 78 -11 23
-24 43 -28 43 -14 0 -47 34 -73 75 -14 22 -64 79 -112 128 -47 48 -92 100
-101 115 -9 15 -48 52 -86 82 -38 30 -69 58 -69 63 0 4 -7 7 -16 7 -9 0 -38
18 -64 40 -26 22 -52 40 -58 40 -6 0 -24 12 -41 26 -17 14 -47 28 -68 31 -21
3 -42 9 -48 13 -15 11 -105 10 -105 -1 0 -5 -7 -9 -15 -9 -8 0 -32 -17 -54
-39 -64 -64 -75 -116 -72 -345 0 -70 27 -245 45 -301 8 -22 19 -60 26 -85 7
-25 16 -54 20 -65 4 -11 20 -54 35 -95 15 -41 54 -133 87 -205 33 -71 68 -148
77 -170 8 -22 22 -47 30 -56 7 -9 26 -48 41 -87 15 -39 41 -88 59 -109 17 -20
31 -43 31 -50 0 -16 39 -91 51 -99 24 -14 5 -21 -25 -9 -19 8 -63 21 -98 29
-34 8 -84 20 -110 27 -41 11 -56 10 -110 -7 -35 -10 -78 -29 -97 -41 -19 -13
-46 -23 -60 -23 -14 0 -44 -9 -66 -19 -22 -10 -45 -16 -51 -14 -21 7 -24 -50
-5 -77 14 -20 30 -26 77 -32 105 -12 123 -17 171 -45 27 -15 50 -30 53 -33 3
-4 18 -10 34 -14 16 -4 42 -21 59 -38 17 -16 47 -36 67 -43 51 -18 149 -95
239 -189 156 -161 201 -209 201 -214 0 -8 204 -206 238 -230 45 -34 112 -100
112 -112 0 -5 5 -10 11 -10 6 0 37 -22 69 -50 31 -27 79 -60 106 -72 27 -13
65 -34 84 -48 33 -24 42 -25 147 -23 125 3 183 13 252 45 54 24 111 66 111 81
0 5 12 20 26 32 16 14 25 29 21 38 -3 9 3 38 14 66 10 28 19 62 19 75 0 43 10
56 44 56 17 0 52 8 79 17 46 17 48 17 62 -4 15 -21 125 -63 165 -63 32 0 90
27 135 65 28 23 50 33 68 31 83 -9 194 38 216 92 29 72 38 147 28 242 -5 52
-10 192 -11 310 -2 118 -7 244 -12 280 -4 36 -7 83 -6 105 2 38 11 639 10 700
0 51 0 59 8 88 5 22 1 32 -16 47 -26 22 -30 23 -48 12 -9 -6 -10 -27 -6 -78 7
-78 7 -80 -2 -229 -3 -60 -2 -128 3 -150 5 -22 6 -64 3 -94 -3 -30 -2 -87 4
-125 5 -39 10 -93 10 -121 1 -47 -1 -51 -32 -64 -21 -10 -32 -22 -32 -35 0
-11 -20 -39 -45 -62 -40 -39 -47 -41 -79 -34 -19 4 -37 6 -39 4 -2 -3 -9 1
-15 8 -14 18 -24 102 -28 233 -1 61 -4 173 -6 250 -3 77 -2 175 1 218 4 43 2
85 -2 93 -5 9 -3 14 7 14 8 0 27 13 43 28 15 16 43 37 61 47 17 11 32 23 32
28 0 5 18 27 40 48 22 22 40 43 40 48 0 5 17 5 41 0 22 -5 45 -7 50 -3 6 3 20
-3 32 -14 41 -39 165 -50 204 -19 45 36 103 104 104 122 4 76 34 115 86 115
32 0 101 49 108 77 3 15 11 31 17 34 6 4 13 31 15 60 3 39 11 61 27 79 28 30
50 93 43 126 -2 13 -1 24 3 24 10 0 -2 52 -22 99 -13 33 -13 36 14 63 71 73
83 158 43 301 -15 54 -33 97 -39 97 -7 0 -25 14 -41 30 -19 19 -39 30 -57 30
-27 0 -28 2 -28 45 0 25 -10 68 -23 98 -20 43 -32 56 -65 71 -23 10 -49 29
-57 42 -18 28 -40 30 -82 9 -16 -8 -46 -17 -67 -20 -21 -2 -44 -9 -52 -15 -10
-9 -21 -3 -48 24 -19 20 -38 37 -43 37 -43 8 -168 6 -206 -2 -47 -11 -67 -26
-159 -116 l-48 -47 6 62 c8 79 0 107 -35 128 -17 10 -32 28 -36 41 -5 20 -12
23 -58 24 -28 0 -68 2 -87 4 -19 2 -43 -1 -53 -6z m56 -51 c11 -5 33 -12 50
-15 32 -5 92 -45 100 -66 2 -7 2 -27 0 -44 -4 -27 -10 -33 -30 -33 -13 0 -41
9 -61 19 -31 16 -40 27 -50 65 -13 50 -51 78 -77 56 -15 -12 -2 -90 17 -101
18 -11 1 -26 -44 -38 -64 -16 -120 -70 -124 -118 -4 -46 13 -83 37 -83 26 0
53 44 45 74 -5 20 0 28 30 45 47 28 56 27 78 -9 21 -37 15 -78 -20 -132 -21
-34 -28 -37 -71 -38 -27 0 -82 -2 -123 -3 l-75 -2 0 55 c0 37 8 71 24 104 13
27 24 64 23 82 -1 22 7 43 23 63 14 16 25 33 25 39 0 14 42 40 76 47 42 9 84
26 84 34 0 11 42 11 63 -1z m-409 -93 c51 -24 63 -65 14 -46 -35 13 -74 3
-108 -29 -17 -16 -30 -24 -30 -19 0 5 -16 9 -35 9 -26 0 -45 -9 -74 -35 -21
-19 -43 -35 -49 -35 -5 0 -13 -7 -16 -16 -19 -50 10 -114 51 -114 70 0 153 50
153 91 0 29 -46 29 -70 0 -22 -25 -59 -44 -76 -37 -17 7 -19 46 -1 46 8 0 7 4
-3 10 -13 8 -13 10 2 10 10 0 32 9 49 19 17 11 38 17 45 14 8 -3 14 1 14 8 0
11 2 11 10 -1 8 -12 10 -12 16 3 3 9 10 14 15 11 6 -3 20 0 32 8 12 8 29 13
37 12 8 0 23 -2 33 -2 26 -3 21 -28 -19 -101 -48 -87 -80 -119 -123 -127 -20
-3 -61 -13 -92 -21 -55 -14 -57 -14 -93 9 -31 20 -37 30 -43 73 -10 67 -10 65
9 111 32 80 117 150 166 137 14 -3 25 1 32 14 10 15 23 18 66 16 29 -1 69 -9
88 -18z m909 -18 c3 2 22 5 43 7 34 3 43 -1 76 -35 41 -42 45 -62 24 -119 -17
-46 -2 -100 28 -100 35 0 49 16 52 57 2 21 8 59 14 84 10 44 14 48 70 72 59
25 59 25 77 5 10 -11 30 -26 45 -34 69 -36 78 -157 20 -269 -9 -16 -20 -33
-26 -37 -23 -16 -75 -8 -102 15 -22 19 -26 31 -26 76 0 55 29 133 47 128 17
-6 17 -53 1 -67 -22 -17 -20 -57 3 -70 26 -14 27 -14 55 15 33 33 41 81 23
136 -14 41 -18 45 -60 53 -44 9 -47 8 -74 -23 -34 -39 -73 -173 -62 -215 16
-58 52 -90 123 -108 48 -13 73 -15 86 -8 30 16 56 12 95 -14 37 -26 59 -25 69
1 7 16 -3 63 -13 63 -3 0 -19 10 -35 23 -25 20 -27 26 -17 45 25 46 82 16 116
-62 25 -59 32 -151 14 -201 -18 -49 -36 -51 -58 -7 -27 52 -70 89 -111 95 -19
4 -48 9 -65 12 -24 5 -42 -2 -93 -34 -70 -46 -72 -46 -72 -28 0 8 -11 24 -24
36 -33 31 -113 31 -254 0 -54 -11 -63 -17 -68 -39 -3 -14 -12 -43 -20 -65 -31
-90 -9 -139 66 -146 87 -8 140 35 140 117 0 36 -39 49 -62 22 -10 -11 -18 -25
-18 -32 0 -15 -38 -38 -50 -31 -13 8 -12 32 2 72 10 26 17 33 39 33 15 0 40 5
56 12 15 6 33 10 38 8 6 -1 29 -2 53 -1 33 2 44 -2 48 -16 3 -10 10 -26 15
-36 15 -28 -41 -135 -104 -199 -70 -71 -130 -91 -186 -62 -44 23 -95 76 -112
116 -12 30 -11 41 17 158 3 14 7 31 8 37 3 19 45 73 56 73 5 0 35 18 66 40 46
32 60 38 76 29 11 -6 22 -8 25 -5 3 3 13 1 23 -4 27 -14 60 -1 60 25 0 27 -8
31 -81 40 l-54 7 39 41 c56 59 67 90 53 157 -11 55 -40 94 -64 85 -7 -2 -26 3
-44 12 -57 29 -143 -16 -183 -95 -46 -90 63 -154 141 -83 32 30 53 61 53 81 0
25 -32 21 -65 -9 -41 -35 -65 -40 -65 -12 0 52 108 93 142 54 18 -22 29 -71
16 -79 -4 -3 -6 -9 -3 -14 3 -4 -28 -42 -68 -84 -67 -70 -76 -76 -112 -76 -45
0 -98 28 -115 60 -11 20 -9 100 2 140 8 30 39 81 71 116 42 49 98 74 142 64
19 -4 36 -6 38 -3z m-442 -108 c11 -11 28 -18 37 -15 9 3 37 8 61 11 37 5 43
4 38 -9 -7 -17 -22 -139 -21 -166 2 -49 6 -61 30 -90 l26 -31 -25 5 c-53 9
-170 -93 -183 -159 -7 -42 -2 -60 24 -74 27 -14 51 6 56 45 2 25 37 91 49 95
1 0 21 2 43 5 50 7 56 -3 47 -77 -5 -43 -13 -58 -49 -94 -64 -65 -98 -80 -148
-65 -53 16 -104 54 -112 85 -6 23 14 99 39 155 26 59 84 99 102 70 9 -15 51
-12 65 5 16 20 4 65 -18 66 -74 6 -108 -3 -143 -39 -47 -49 -69 -84 -74 -118
-3 -16 -12 -51 -21 -79 -13 -40 -14 -58 -5 -91 12 -46 46 -94 65 -94 6 0 17
-5 24 -12 7 -7 33 -17 58 -24 39 -10 54 -9 95 5 27 10 60 30 73 44 14 15 30
27 36 27 5 0 13 0 17 0 5 0 9 -13 10 -30 3 -34 4 -34 63 -101 75 -86 190 -114
266 -66 35 21 135 127 121 127 -3 0 9 15 27 34 17 19 37 53 44 75 12 39 69
105 120 139 21 13 25 13 45 -5 12 -11 28 -18 35 -16 15 6 62 -34 62 -52 0 -7
10 -25 22 -41 24 -30 68 -152 68 -188 0 -12 -4 -26 -9 -32 -5 -5 -11 -18 -13
-29 -4 -26 -52 -33 -131 -21 -47 7 -64 16 -92 45 -19 19 -36 47 -36 61 -3 51
3 95 16 108 10 11 14 7 19 -23 7 -38 37 -75 59 -75 20 0 39 47 27 68 -5 9 -18
38 -29 64 -21 50 -70 87 -79 60 -2 -6 -9 -12 -16 -12 -14 0 -44 -29 -46 -45 0
-5 -5 -27 -11 -48 -11 -40 -3 -143 12 -152 4 -3 6 -12 3 -20 -4 -10 -12 -11
-28 -5 -13 5 -29 4 -37 -1 -8 -5 -26 -9 -41 -9 -38 0 -50 -43 -20 -73 21 -20
23 -20 56 -4 27 12 42 14 64 6 44 -15 40 -60 -11 -111 l-40 -41 -63 6 c-44 4
-64 3 -67 -6 -8 -21 -23 5 -37 65 -20 87 -40 105 -135 118 -118 17 -139 19
-145 12 -7 -10 -114 -62 -126 -62 -6 0 -26 -19 -45 -42 -37 -47 -41 -76 -21
-178 9 -42 19 -61 44 -82 18 -16 37 -28 43 -28 5 0 32 -11 58 -24 l49 -24 43
29 c31 21 46 39 51 62 3 17 13 41 20 52 21 29 17 88 -7 118 -18 24 -56 47 -99
60 -21 6 -88 -32 -95 -54 -15 -46 39 -77 75 -44 9 8 25 12 38 8 31 -8 29 -62
-4 -114 -25 -40 -26 -40 -46 -22 -11 10 -30 17 -41 15 -34 -4 -49 12 -57 59
-4 24 -10 56 -14 70 -7 26 5 43 74 102 21 18 86 44 105 42 6 -1 33 -5 60 -9
110 -16 103 -11 124 -84 31 -107 33 -130 21 -185 -18 -74 -23 -82 -42 -63 -18
17 -67 24 -85 13 -7 -4 -15 -24 -19 -45 -5 -25 -20 -49 -45 -73 -22 -20 -41
-34 -44 -31 -3 3 -5 1 -5 -5 0 -15 -48 -65 -65 -67 -8 -1 -23 -10 -35 -21 -19
-18 -20 -18 -21 1 -6 86 -8 99 -25 111 -11 8 -27 12 -36 9 -20 -5 -24 19 -8
44 5 8 5 19 1 25 -5 5 -12 25 -16 43 -11 52 -72 66 -95 22 -7 -13 -3 -26 15
-51 14 -18 25 -36 25 -40 0 -9 -58 -39 -74 -39 -6 0 -24 21 -40 47 -25 42 -26
48 -12 59 54 39 64 49 60 55 -2 4 3 10 12 13 8 3 22 20 30 38 9 18 23 47 32
63 18 32 21 117 9 196 -13 77 -74 129 -154 129 l-48 1 28 15 c32 17 35 44 7
69 -18 16 -21 17 -44 1 -39 -25 -108 -21 -135 8 -22 24 -22 26 -8 73 8 26 24
74 36 105 23 63 20 83 -12 92 -28 7 -51 -15 -70 -67 -9 -23 -21 -55 -27 -71
-8 -22 -13 -26 -24 -17 -7 6 -15 8 -19 5 -15 -15 -51 11 -67 49 -28 63 -14
121 40 169 26 23 40 44 38 55 -6 31 -38 27 -75 -9 -86 -82 -114 -178 -74 -255
11 -23 30 -48 41 -56 19 -13 18 -15 -23 -20 -23 -3 -52 -9 -62 -13 -19 -7 -19
-7 -2 13 21 24 22 47 2 63 -17 14 -40 1 -50 -29 -9 -28 -69 -54 -131 -55 -54
-1 -58 1 -64 24 -5 20 -12 25 -36 24 -44 -2 -88 58 -104 141 -11 59 -11 70 5
103 34 70 147 119 180 79 6 -6 27 -23 47 -37 21 -14 38 -30 38 -35 0 -6 9 -16
20 -23 20 -12 26 -47 12 -68 -4 -6 -21 -14 -39 -17 -37 -7 -58 12 -58 52 0 22
-4 26 -30 26 -27 0 -30 -4 -33 -34 -5 -54 5 -75 47 -99 44 -25 88 -22 133 10
54 37 58 138 7 184 -20 18 -19 18 28 30 26 7 61 13 76 14 35 0 75 20 106 54
30 32 41 33 41 5 0 -41 39 -88 81 -99 22 -6 43 -9 48 -6 4 3 50 8 102 11 54 4
103 12 116 21 70 45 113 177 79 242 -19 36 -6 42 25 11z m294 -339 c17 -4 25
-8 20 -9 -6 -1 -19 -14 -28 -31 -16 -27 -39 -42 -35 -22 1 8 -9 40 -24 66 -9
17 -7 18 14 12 12 -4 37 -11 53 -16z m-812 -302 c32 -17 46 -39 47 -73 0 -34
-21 -109 -44 -152 -17 -34 -120 -122 -145 -124 -17 -1 -18 -1 -54 5 -12 3 -28
5 -35 5 -11 1 -12 13 -7 51 5 34 3 50 -4 50 -6 0 -11 6 -11 13 0 21 -59 47
-109 47 -44 0 -49 3 -66 34 -18 33 -18 36 0 81 l18 47 51 -6 c28 -3 62 -6 75
-6 19 0 22 -4 17 -24 -10 -39 4 -83 40 -124 32 -38 35 -40 93 -38 67 2 94 18
111 71 13 38 0 81 -27 89 -10 3 -31 2 -48 -2 -23 -6 -31 -15 -33 -36 -3 -21 1
-29 18 -33 28 -7 7 -23 -32 -23 -20 0 -31 7 -41 28 -29 62 0 97 99 121 54 13
62 13 87 -1z m137 -88 c-25 -16 -30 -12 -30 22 l0 32 23 -22 c19 -19 20 -24 7
-32z m134 -24 c-44 -20 -54 -31 -79 -82 -33 -70 -32 -64 -12 -135 23 -77 49
-90 116 -59 34 17 54 34 65 57 20 42 20 58 0 88 -18 28 -31 30 -68 14 -36 -17
-39 -37 -11 -65 l24 -24 -25 -16 c-29 -20 -33 -17 -44 31 -17 77 39 144 117
139 47 -3 103 -28 104 -47 1 -11 3 -31 13 -105 5 -36 -32 -116 -84 -182 -29
-37 -97 -70 -143 -70 -27 0 -97 41 -97 57 0 7 -12 36 -27 65 -28 53 -32 86
-20 153 12 63 45 122 90 159 37 30 57 37 122 44 6 0 -13 -10 -41 -22z m-1712
-88 c37 -44 36 -69 -1 -29 -30 32 -46 61 -33 61 3 0 19 -15 34 -32z m88 6 c0
-20 -7 -17 -20 6 -9 16 -8 18 5 14 8 -4 15 -12 15 -20z m-296 -199 c-36 -27
-39 -19 -33 78 8 133 21 142 38 29 14 -88 14 -93 -5 -107z m101 88 c11 -36 11
-43 -3 -48 -18 -7 -15 -10 -29 43 -5 23 -8 54 -5 69 l5 27 9 -25 c6 -13 16
-43 23 -66z m322 35 c37 -26 40 -36 16 -53 -14 -10 -21 -7 -45 21 -16 18 -27
38 -23 44 9 14 15 13 52 -12z m2724 0 c1 -10 2 -24 3 -30 3 -19 -21 -76 -39
-94 -8 -8 -23 -14 -32 -13 -10 1 -35 -5 -55 -15 -21 -9 -44 -16 -52 -16 -25 0
-56 -67 -56 -123 0 -45 -4 -55 -26 -72 -15 -11 -30 -20 -33 -21 -3 0 -14 -4
-24 -8 -24 -11 -81 1 -107 22 -20 16 -21 22 -11 95 5 43 12 81 15 84 3 4 23 1
44 -5 61 -18 149 13 178 63 9 16 24 38 33 49 9 10 17 32 17 50 1 17 2 37 3 44
1 9 20 12 71 10 58 -3 70 -6 71 -20z m-2967 -29 c-8 -13 -21 -3 -27 22 -5 20
-5 20 13 4 11 -10 17 -22 14 -26z m164 -32 l43 -43 -25 -28 -24 -29 -36 54
c-44 66 -45 82 -6 88 3 1 25 -18 48 -42z m1346 -23 c-3 -46 2 -73 29 -141 l32
-84 61 -30 c34 -16 78 -29 98 -29 30 0 38 -5 46 -25 5 -13 20 -42 34 -63 28
-45 69 -58 124 -43 17 5 32 6 32 2 0 -5 -20 -27 -45 -50 -41 -37 -47 -40 -68
-29 -12 7 -25 11 -29 10 -3 -1 -9 17 -13 40 -10 57 -31 104 -50 112 -23 8 -83
7 -125 -3 -20 -4 -44 -5 -55 -1 -11 4 -28 3 -38 -2 -17 -8 -18 -6 -12 32 3 22
3 50 0 61 -9 27 -55 48 -103 46 -23 0 -42 1 -44 3 -2 3 -14 17 -26 32 -29 32
-36 97 -12 106 8 3 36 20 61 39 26 18 50 33 53 33 4 0 16 9 28 20 12 11 23 20
24 20 1 0 0 -25 -2 -56z m-1442 -38 c42 -65 43 -75 17 -84 -25 -10 -49 5 -49
30 0 7 -7 26 -15 42 -12 22 -12 32 -4 42 17 20 21 18 51 -30z m338 -34 c0 -4
-9 -18 -20 -32 l-19 -25 -35 40 c-19 22 -35 43 -36 47 0 4 12 14 28 22 26 14
28 13 55 -15 15 -17 27 -33 27 -37z m-433 2 c-3 -3 3 -26 13 -50 l19 -43 -27
-21 -27 -22 -17 39 c-22 50 -22 80 0 92 18 11 49 15 39 5z m313 -64 c22 -21
40 -43 40 -47 0 -12 -48 -69 -53 -63 -2 3 -21 31 -41 62 l-36 57 22 15 c12 9
24 16 25 16 1 0 20 -18 43 -40z m-409 -48 c17 -48 17 -52 1 -52 -9 0 -30 -7
-46 -15 -15 -8 -29 -15 -30 -15 0 0 -1 15 -2 33 0 17 -4 50 -8 73 l-8 41 37
-6 c35 -6 39 -10 56 -59z m617 26 c14 -14 16 -77 3 -97 -7 -11 -16 -6 -43 24
-40 46 -41 55 -8 72 31 16 33 16 48 1z m-297 -72 c21 -47 12 -74 -32 -100 -16
-9 -29 -15 -29 -13 0 2 -11 35 -25 73 -14 38 -25 72 -25 75 0 3 15 11 33 16
39 12 54 3 78 -51z m-143 -54 c12 -32 22 -63 22 -69 0 -12 -58 -58 -64 -52 -2
2 -13 33 -25 69 l-22 65 26 23 c14 12 29 22 33 22 4 0 17 -26 30 -58z m357 7
l38 -51 -37 -34 c-40 -37 -46 -40 -46 -23 0 6 -15 31 -32 56 l-33 45 33 29
c18 16 34 29 35 29 2 0 20 -23 42 -51z m193 -26 c23 -36 22 -64 -4 -90 -10
-11 -18 -6 -43 24 -17 21 -31 42 -31 47 0 11 40 56 49 56 3 -1 16 -17 29 -37z
m-665 -75 l15 -46 -26 -10 c-37 -14 -72 -24 -72 -20 0 2 -9 28 -20 58 -24 66
-24 60 -2 60 9 0 31 8 47 19 34 21 29 26 58 -61z m1131 30 c3 -18 7 -49 10
-68 13 -102 28 -189 46 -258 11 -42 21 -88 24 -102 2 -14 19 -56 36 -95 18
-38 40 -97 51 -130 10 -33 50 -139 89 -235 39 -96 84 -209 100 -250 62 -164
80 -210 99 -251 24 -51 58 -155 72 -219 36 -164 52 -351 33 -382 -5 -7 -9 -19
-11 -27 -10 -66 -28 -111 -61 -146 -59 -65 -124 -87 -294 -102 -62 -5 -72 -3
-148 32 -62 30 -101 58 -171 124 -50 47 -102 93 -116 101 -13 8 -108 100 -211
204 -243 246 -261 265 -301 311 -33 38 -118 105 -133 105 -4 0 -21 13 -39 29
-17 16 -48 37 -68 48 -20 10 -52 30 -71 44 -19 15 -45 30 -58 34 -12 3 -22 10
-22 14 0 5 -28 19 -62 32 -35 12 -65 26 -68 29 -3 4 -12 9 -20 12 -23 8 112
68 167 74 34 4 65 -1 107 -15 33 -12 66 -21 75 -21 9 0 36 -11 61 -24 25 -13
69 -35 98 -50 30 -15 79 -53 110 -85 32 -32 73 -69 93 -82 20 -13 84 -76 144
-139 59 -63 127 -133 151 -156 24 -22 54 -54 66 -71 159 -217 304 -343 390
-343 51 1 104 16 126 36 34 32 72 114 72 155 0 21 5 58 11 81 12 47 8 61 -36
133 -13 22 -24 50 -25 63 0 13 -13 42 -28 65 -31 45 -64 122 -56 129 2 3 -2
11 -11 18 -8 7 -15 24 -15 38 0 26 -64 151 -84 164 -6 4 -8 8 -4 8 4 0 0 21
-8 48 -8 26 -17 55 -19 65 -2 9 -25 63 -50 120 -46 101 -50 114 -60 211 -2 27
-12 57 -20 66 -15 17 -27 91 -41 270 -15 178 3 343 41 398 22 31 33 28 39 -10z
m-788 -5 c10 -16 24 -34 31 -41 14 -15 17 -41 5 -57 -4 -5 -28 -20 -54 -32
-53 -25 -49 -27 -85 49 l-22 48 28 14 c15 8 33 22 40 30 19 23 36 20 57 -11z
m229 -50 c33 -49 32 -63 -10 -103 -34 -33 -35 -33 -55 -15 -11 10 -20 23 -20
29 0 6 -9 22 -20 36 l-19 25 32 32 c42 42 61 41 92 -4z m1235 -63 c7 -38 17
-70 21 -70 4 0 15 -25 25 -56 17 -56 20 -104 15 -329 -1 -55 0 -109 3 -120 2
-11 7 -62 11 -112 7 -89 6 -93 -13 -93 -12 0 -24 -4 -27 -10 -9 -15 -42 -12
-48 4 -3 7 -20 16 -39 20 -18 3 -45 12 -61 19 -27 11 -28 14 -21 61 5 42 6
570 1 696 -2 42 0 45 28 51 17 4 44 7 61 8 30 1 31 0 44 -69z m-1023 21 c28
-42 29 -82 3 -106 -11 -10 -21 -16 -23 -14 -2 2 -18 27 -36 56 -31 50 -32 52
-15 78 21 33 42 29 71 -14z m-588 -26 c11 -25 21 -51 21 -59 0 -11 -79 -53
-84 -44 -7 12 -25 59 -34 86 -10 31 -9 33 26 51 20 11 40 17 43 15 4 -2 16
-24 28 -49z m1907 -22 c4 -16 13 -34 22 -40 10 -8 16 -30 17 -60 0 -27 7 -59
14 -72 8 -15 15 -70 18 -135 3 -61 7 -118 10 -126 3 -8 5 -84 5 -168 -1 -107
3 -164 13 -192 l14 -40 -52 -31 c-44 -25 -60 -29 -105 -26 -62 4 -106 33 -108
68 -1 13 -2 27 -3 32 0 4 -1 10 0 13 0 4 -4 10 -9 13 -18 12 -28 305 -19 526
3 66 6 128 6 138 1 9 7 17 14 17 7 0 23 10 37 23 66 58 102 87 110 87 5 0 12
-12 16 -27z m-1659 -32 l31 -49 -47 -46 c-26 -25 -52 -46 -59 -46 -10 0 -72
108 -72 125 0 3 10 10 23 15 12 6 36 19 52 29 17 11 33 20 36 20 3 1 20 -21
36 -48z m-363 -82 c-2 -4 -20 -10 -40 -13 -19 -4 -41 -9 -49 -12 -8 -4 -18 11
-29 42 -18 54 -12 68 39 90 l30 13 26 -57 c15 -31 25 -60 23 -63z m587 84 c11
-10 26 -29 34 -43 28 -56 27 -65 -15 -109 -45 -47 -60 -47 -82 -4 -8 15 -24
44 -35 64 l-21 36 46 36 c26 20 48 36 49 36 2 1 12 -7 24 -16z m241 -85 c29
-34 35 -53 19 -62 -5 -3 -12 -22 -15 -41 -4 -19 -10 -35 -13 -35 -8 0 -41 39
-65 78 -20 32 -20 33 -2 55 20 23 36 37 44 37 2 0 17 -15 32 -32z m-629 -38
l36 -61 -41 -25 c-22 -14 -45 -23 -52 -21 -11 5 -71 116 -64 122 9 8 74 45 79
45 3 0 22 -27 42 -60z m256 -16 c12 -20 28 -51 35 -69 13 -30 12 -36 -7 -62
-19 -27 -68 -63 -86 -63 -11 0 -81 115 -81 133 0 9 8 18 18 21 10 4 33 22 52
41 19 19 37 35 41 35 4 0 17 -16 28 -36z m-411 -52 c17 -21 33 -49 37 -63 6
-23 -4 -32 -77 -66 -4 -2 -24 32 -46 76 l-39 80 41 4 c23 2 44 4 48 5 3 1 20
-15 36 -36z m684 -32 c7 -14 18 -31 25 -38 7 -7 13 -16 13 -18 0 -12 -45 -64
-55 -64 -7 0 -20 -9 -30 -20 -10 -11 -21 -17 -25 -15 -4 3 -22 33 -40 67 l-32
62 52 49 52 50 13 -24 c8 -13 20 -35 27 -49z m178 -71 c0 -60 -2 -70 -14 -60
-8 6 -20 26 -27 43 -11 27 -10 32 6 44 10 8 16 14 12 14 -7 0 13 29 21 30 1 0
2 -32 2 -71z m-621 18 c10 -23 26 -48 35 -56 25 -21 19 -40 -19 -62 -19 -12
-35 -25 -35 -30 0 -5 -9 -9 -19 -9 -14 0 -28 19 -51 65 l-32 66 28 22 c25 20
65 46 72 47 1 0 11 -19 21 -43z m266 -35 c10 -7 65 -105 65 -115 0 -4 -20 -18
-44 -32 -24 -14 -50 -32 -56 -40 -7 -8 -16 -15 -20 -15 -4 0 -24 31 -44 69
l-36 69 28 11 c16 7 39 23 53 36 25 25 38 29 54 17z m-417 -74 c12 -24 27 -50
34 -60 15 -21 -1 -43 -40 -53 -15 -4 -29 -11 -33 -16 -5 -9 -69 107 -69 125 0
5 66 42 81 45 3 1 15 -18 27 -41z m692 0 c0 -5 9 -18 20 -30 30 -33 26 -79
-12 -129 -18 -23 -38 -44 -43 -46 -6 -2 -19 14 -30 34 -11 21 -22 40 -25 43
-12 11 -40 60 -40 70 0 13 32 46 75 77 28 20 31 21 43 6 6 -9 12 -21 12 -25z
m-438 -70 c38 -51 53 -95 39 -112 -17 -20 -92 -56 -103 -50 -12 7 -58 100 -58
117 0 12 75 74 91 76 4 1 18 -14 31 -31z m323 -123 l34 -59 -32 -28 c-18 -15
-36 -27 -40 -28 -4 0 -20 -11 -34 -25 l-27 -24 -48 86 c-36 65 -45 89 -36 94
14 8 87 63 103 78 12 11 34 -14 80 -94z m260 9 c5 -30 3 -39 -14 -51 -12 -8
-21 -19 -21 -25 0 -21 -33 -79 -50 -88 -15 -8 -23 -2 -44 34 -14 25 -26 47
-26 49 0 3 16 14 35 26 20 11 48 41 63 65 31 50 46 47 57 -10z m-732 -21 c31
-63 28 -72 -30 -91 -26 -9 -32 -8 -37 6 -3 10 -19 35 -35 57 l-30 40 47 22
c26 12 49 21 52 22 3 0 18 -26 33 -56z m243 -63 c9 -22 19 -40 23 -40 9 0 41
-55 41 -69 0 -10 -93 -61 -111 -61 -4 0 -13 17 -20 38 -6 20 -15 39 -18 42 -3
3 -14 19 -24 37 -13 25 -15 33 -5 39 16 10 92 52 96 53 1 1 9 -17 18 -39z
m310 -54 c5 -6 15 -25 21 -42 12 -35 7 -41 -86 -109 l-34 -24 -16 22 c-51 71
-50 78 25 122 24 14 44 29 44 34 0 11 33 9 46 -3z m-442 -92 c26 -52 26 -64
-4 -64 -10 0 -23 -7 -27 -15 -7 -11 -21 1 -61 53 l-53 67 31 6 c18 4 39 14 48
23 18 18 25 11 66 -70z m675 18 c12 -39 12 -44 -6 -60 -10 -9 -28 -30 -40 -45
-20 -26 -22 -27 -28 -7 -3 11 -12 26 -18 33 -7 7 -17 22 -24 34 -11 19 -8 24
25 49 20 16 39 32 41 37 9 21 37 -2 50 -41z m656 -11 c17 -7 49 -11 72 -8 l41
4 7 -56 c4 -31 9 -96 10 -146 5 -192 18 -365 27 -365 13 0 3 -236 -11 -273 -7
-18 -18 -28 -33 -28 -13 -1 -32 -2 -43 -3 -11 -1 -25 3 -32 7 -7 5 -16 6 -21
3 -8 -5 -29 77 -37 149 -8 68 -58 246 -79 280 -13 20 -38 88 -42 115 -2 8 -8
16 -13 18 -23 8 -10 24 13 18 37 -9 39 -3 34 129 -1 22 2 69 6 105 8 65 8 65
39 64 18 0 46 -6 62 -13z m739 -75 c16 -62 18 -95 12 -207 -4 -74 -6 -165 -5
-204 8 -237 5 -261 -43 -320 -26 -31 -35 -35 -77 -35 -26 0 -56 7 -67 15 -10
8 -29 15 -41 15 -21 0 -30 17 -23 45 1 6 2 154 2 330 l-1 321 30 2 c46 4 52 5
84 27 17 11 43 27 59 35 16 8 31 23 34 33 8 32 18 17 36 -57z m-1800 -27 c16
-27 16 -27 -19 -39 -19 -6 -35 -15 -35 -20 0 -17 -44 -19 -56 -2 -20 26 -46
83 -41 88 3 3 27 13 53 23 54 20 58 19 98 -50z m267 -4 l33 -65 -34 -30 c-18
-16 -37 -30 -41 -30 -4 0 -15 -7 -24 -16 -9 -9 -17 -15 -19 -13 -26 32 -75
124 -69 129 11 11 117 90 120 90 1 0 17 -29 34 -65z m1003 4 c29 -17 48 -20
98 -17 35 3 77 11 95 18 18 8 35 12 37 9 5 -5 18 -212 19 -294 1 -168 -8 -332
-21 -344 -19 -20 -3 -131 19 -131 5 0 9 -6 9 -14 0 -17 -81 -66 -110 -66 -38
0 -120 41 -120 60 0 10 -6 20 -12 23 -10 3 -13 39 -14 133 0 71 -6 156 -12
189 -18 93 -40 455 -28 455 3 0 21 -9 40 -21z m-804 -62 c0 -10 5 -27 10 -38
8 -15 7 -23 -5 -35 -8 -8 -15 -21 -15 -29 0 -11 -30 -31 -34 -23 -12 24 -28
59 -36 81 -9 26 -7 32 22 61 29 29 35 31 46 18 6 -9 12 -24 12 -35z m-656 1
l28 -41 -23 -18 c-13 -10 -27 -18 -30 -16 -10 3 -91 78 -87 80 1 1 17 10 33
19 42 24 46 23 79 -24z m281 -73 l37 -55 -23 -20 c-13 -11 -30 -17 -37 -15 -7
3 -11 1 -8 -4 3 -5 -6 -12 -19 -15 -28 -7 -37 -1 -72 49 -35 50 -33 62 17 88
25 14 50 25 56 26 6 0 28 -24 49 -54z m288 -102 c-3 -7 -9 -13 -13 -13 -4 0
-19 -11 -33 -24 -54 -50 -59 -50 -94 6 l-33 51 23 15 c12 9 39 31 60 50 l39
34 28 -53 c15 -29 26 -59 23 -66z m-466 19 l25 -42 -50 33 c-44 28 -48 34 -34
45 22 17 31 12 59 -36z m634 -2 c3 -19 5 -25 18 -48 11 -21 10 -27 -7 -45 -11
-12 -21 -29 -24 -36 -3 -10 -15 1 -36 31 -18 26 -32 50 -32 55 0 8 59 51 73
52 4 1 8 -3 8 -9z m-369 -84 l26 -53 -34 -17 -35 -16 -27 31 c-45 53 -45 56
-5 83 21 15 40 26 43 25 3 0 17 -24 32 -53z m248 5 c0 -6 14 -31 32 -57 30
-45 31 -48 13 -58 -11 -6 -32 -24 -47 -40 -16 -15 -34 -26 -42 -23 -18 7 -79
95 -74 107 3 11 98 79 111 79 4 1 7 -3 7 -8z m187 -97 c-3 -3 2 -20 12 -38 17
-30 16 -39 -7 -76 -4 -6 -51 53 -52 66 0 11 37 54 47 54 4 0 4 -3 0 -6z m-335
-68 l36 -54 -34 -17 c-20 -9 -42 -14 -49 -11 -8 3 -25 27 -39 54 l-25 49 32
16 c18 9 34 16 37 16 3 1 22 -24 42 -53z m266 -53 c23 -53 19 -64 -30 -89 -31
-16 -58 -6 -58 21 0 7 -7 18 -15 25 -8 7 -15 16 -15 21 0 9 78 69 90 69 4 0
17 -21 28 -47z m159 -86 c14 -24 17 -37 10 -49 -9 -13 -14 -11 -39 15 -15 18
-28 35 -28 39 0 5 27 26 37 28 0 0 10 -15 20 -33z m-313 -8 c32 -38 32 -43 1
-63 -26 -17 -30 -32 -17 -53 5 -9 19 -9 47 -3 38 9 42 7 73 -25 l33 -34 -36
-15 c-42 -18 -62 -9 -105 46 -14 18 -42 52 -62 76 -21 24 -38 47 -38 52 0 11
51 49 67 50 6 0 23 -14 37 -31z m225 -120 c-29 -22 -39 -24 -39 -5 0 8 -11 23
-25 34 -14 11 -25 23 -25 26 0 3 17 14 37 23 l38 18 19 -39 19 -38 -24 -19z
m46 -68 c-3 -5 6 -21 20 -35 23 -23 24 -29 13 -48 -12 -23 -12 -23 -19 9 -3
17 -14 39 -23 48 -16 17 -14 35 5 35 6 0 8 -4 4 -9z m-91 -83 c5 -9 8 -20 5
-23 -9 -9 -70 26 -63 36 9 15 45 6 58 -13z m43 -34 c-3 -3 -12 -4 -19 -1 -8 3
-5 6 6 6 11 1 17 -2 13 -5z"/>
<path d="M2753 3097 c-38 -21 -43 -47 -13 -77 25 -25 41 -25 69 -1 47 41 -1
107 -56 78z"/>
<path d="M5183 3533 c-13 -2 -23 -10 -24 -16 0 -7 -1 -50 -2 -97 -2 -47 -8
-94 -14 -105 -6 -11 -14 -45 -17 -75 -8 -67 -14 -90 -27 -90 -5 0 -9 -6 -9
-14 0 -8 -16 -38 -36 -67 -20 -30 -40 -63 -46 -74 -25 -54 -110 -166 -155
-205 -76 -66 -153 -120 -170 -120 -11 0 -29 -9 -40 -20 -12 -10 -33 -22 -47
-26 -15 -3 -30 -12 -34 -18 -11 -18 -101 -68 -111 -61 -5 3 -12 1 -16 -5 -10
-16 -45 -12 -45 6 0 20 -22 42 -38 36 -6 -2 -12 1 -12 6 0 18 -29 22 -44 6
-11 -11 -14 -29 -11 -68 l4 -53 -77 -16 c-43 -10 -93 -17 -112 -17 -45 0 -65
-27 -49 -64 16 -35 87 -59 177 -60 70 -1 76 -3 84 -26 5 -13 9 -49 8 -80 0
-30 6 -89 14 -130 7 -41 19 -106 24 -145 6 -38 20 -88 32 -110 11 -21 20 -47
20 -57 0 -10 11 -41 24 -70 46 -100 56 -126 56 -147 0 -12 11 -33 24 -46 13
-13 36 -50 50 -81 25 -54 26 -58 10 -82 -19 -29 -145 -152 -156 -152 -4 0 -20
-11 -35 -25 -40 -35 -150 -121 -177 -137 -22 -14 -162 -77 -183 -83 l-21 -6
19 38 c10 20 19 48 19 60 0 13 4 23 9 23 9 0 51 108 51 134 0 9 4 16 9 16 12
0 30 45 46 116 17 80 45 186 53 204 6 15 13 131 14 225 0 88 -28 225 -70 341
-16 45 -29 93 -29 106 0 14 -6 42 -13 62 -12 36 -37 47 -68 28 -17 -12 -22
-86 -7 -115 14 -28 11 -54 -24 -182 -12 -44 -28 -114 -37 -155 -8 -41 -19 -88
-24 -105 -21 -67 -49 -152 -63 -185 -22 -55 -30 -74 -33 -85 -61 -185 -90
-246 -212 -444 -55 -89 -88 -135 -129 -179 -14 -15 -31 -38 -38 -52 -11 -22
-77 -88 -165 -167 -14 -12 -38 -36 -55 -53 -16 -16 -36 -30 -42 -30 -7 0 -13
-4 -13 -10 0 -5 -7 -10 -16 -10 -10 0 -41 -25 -69 -55 -29 -30 -61 -55 -71
-55 -16 0 -44 -39 -44 -61 0 -20 35 -39 71 -39 41 0 169 39 231 71 21 10 42
19 48 19 6 0 27 11 48 24 20 14 51 28 67 32 17 4 36 11 42 16 7 6 46 27 87 48
42 21 88 50 103 64 33 31 40 32 48 6 5 -17 15 -20 70 -20 35 0 67 -5 70 -10 4
-7 13 -7 26 0 11 6 23 9 27 6 5 -3 24 -1 43 4 93 23 156 41 179 52 14 6 30 12
37 14 17 3 64 37 87 63 11 12 25 21 33 21 7 0 13 5 13 10 0 6 6 10 13 10 6 0
27 13 45 28 17 15 49 41 69 57 21 17 78 71 128 120 77 77 97 104 139 190 27
55 51 102 53 105 3 2 18 -3 34 -13 33 -19 59 -22 59 -8 0 5 15 1 34 -9 27 -13
52 -16 113 -13 43 3 122 6 176 7 108 2 123 10 106 55 -14 34 -28 51 -46 51
-16 0 -63 39 -63 53 0 4 -9 18 -20 30 -33 36 -103 129 -134 177 -16 25 -40 53
-52 62 l-22 18 18 57 c10 32 30 95 44 140 14 45 23 89 20 97 -15 40 -83 23
-85 -21 -3 -59 -7 -72 -43 -129 -20 -33 -36 -65 -36 -72 0 -7 -20 2 -43 20
-163 123 -206 163 -241 227 -11 22 -30 50 -41 63 -36 41 -95 145 -110 194 -8
27 -13 49 -12 50 1 1 25 -2 52 -6 36 -6 54 -4 65 5 17 14 91 40 104 37 4 -2
25 3 45 10 20 7 38 13 41 13 84 17 120 41 255 168 33 32 66 61 72 65 16 10 93
151 93 170 0 9 6 23 14 31 12 14 63 143 64 164 0 4 8 32 17 63 19 67 15 279
-9 388 -8 38 -13 73 -11 77 5 6 -22 81 -28 78 -1 -1 -12 -4 -24 -6z m18 -250
c4 -20 7 -64 9 -133 6 -125 -26 -236 -118 -419 -45 -89 -197 -248 -277 -288
-82 -42 -198 -66 -307 -63 -61 1 -78 -2 -85 -15 -7 -12 -12 -6 -19 28 -9 39
-9 44 6 40 9 -3 24 3 33 11 8 9 23 16 32 16 9 0 29 8 43 19 15 10 46 25 69 33
23 8 67 35 97 61 29 26 71 60 92 76 60 43 139 123 157 157 9 18 23 34 32 37 8
4 15 13 15 21 0 8 14 30 30 48 17 18 30 38 30 45 0 7 13 33 30 59 16 26 27 51
24 55 -3 5 -1 9 5 9 9 0 22 42 26 81 1 9 11 28 23 43 11 15 24 40 27 56 6 27
23 41 26 23z m-848 -923 c3 -11 1 -20 -4 -20 -5 0 -9 9 -9 20 0 11 2 20 4 20
2 0 6 -9 9 -20z m73 -216 c24 -50 44 -96 44 -101 0 -5 15 -27 33 -49 18 -21
45 -59 59 -84 24 -41 116 -142 144 -158 7 -4 37 -29 68 -56 l55 -49 -35 -42
c-19 -23 -34 -46 -34 -52 0 -5 -22 -34 -49 -64 l-49 -54 -51 54 c-49 52 -123
188 -150 276 -7 22 -26 76 -43 120 -17 44 -32 104 -33 132 -2 29 -6 77 -10
105 -3 29 -7 64 -9 78 -1 14 -5 30 -7 35 -3 6 -4 16 -3 23 1 6 3 20 4 30 1 9
7 2 12 -18 6 -19 30 -76 54 -126z m-315 -132 c62 -141 72 -390 23 -539 -13
-39 -31 -100 -39 -135 -17 -71 -34 -119 -57 -163 -8 -16 -21 -48 -28 -70 -23
-72 -61 -145 -96 -182 -19 -19 -34 -41 -34 -48 0 -7 -7 -18 -15 -25 -8 -7 -15
-18 -15 -25 0 -7 -24 -33 -52 -59 -29 -26 -78 -71 -108 -101 -42 -41 -86 -68
-190 -118 -217 -104 -360 -158 -360 -136 0 4 29 26 65 48 64 41 81 54 177 141
57 51 178 193 178 208 0 5 6 12 13 15 7 3 35 38 62 78 63 93 63 94 102 167 18
33 44 77 57 97 40 59 72 133 101 234 15 52 36 108 46 125 10 17 19 43 19 57 0
15 8 46 19 70 10 24 26 80 35 124 10 44 26 107 36 140 11 33 22 77 26 98 3 20
9 37 13 37 3 0 13 -17 22 -38z m773 -414 c-29 -75 -75 -173 -199 -419 -42 -82
-130 -200 -181 -240 -21 -17 -41 -34 -44 -38 -8 -12 -198 -161 -205 -161 -4 0
-19 -9 -34 -19 -33 -24 -125 -61 -165 -68 -16 -3 -40 -9 -53 -14 -13 -5 -37
-9 -53 -9 -30 0 -139 26 -148 35 -3 2 22 37 54 75 47 57 71 77 119 98 33 14
62 29 65 33 3 3 17 12 32 20 15 8 62 33 106 55 44 24 101 64 130 93 28 28 56
51 61 51 6 0 30 20 53 45 23 25 47 45 53 45 23 1 317 305 323 335 2 8 7 15 12
15 5 0 12 9 15 21 6 19 62 89 71 89 2 0 -3 -19 -12 -42z m111 -75 c21 -44 43
-74 103 -141 23 -26 42 -50 42 -54 0 -3 11 -20 24 -36 l25 -29 -42 7 c-23 3
-58 3 -77 -1 -19 -4 -60 -5 -90 -2 -63 5 -163 49 -153 67 4 6 16 27 28 46 12
19 31 68 44 108 21 67 24 72 51 72 22 0 31 -7 45 -37z"/>
</g>
</svg>
