<?xml version="1.0" standalone="no"?>
<!DOCTYPE svg PUBLIC "-//W3C//DTD SVG 20010904//EN"
 "http://www.w3.org/TR/2001/REC-SVG-20010904/DTD/svg10.dtd">
<svg version="1.0" xmlns="http://www.w3.org/2000/svg"
 width="515.000000pt" height="415.000000pt" viewBox="0 0 515.000000 415.000000"
 preserveAspectRatio="xMidYMid meet">
<metadata>
Created by potrace 1.16, written by Peter Selinger 2001-2019
</metadata>
<g transform="translate(0.000000,415.000000) scale(0.100000,-0.100000)"
fill="#000000" stroke="none">
<path d="M4197 3748 c-6 -4 -25 -8 -41 -8 -16 0 -37 -6 -45 -13 -12 -11 -96
-42 -141 -52 -24 -6 -60 -26 -60 -34 0 -5 -13 -12 -30 -16 -16 -4 -30 -11 -30
-16 0 -5 -7 -9 -15 -9 -8 0 -15 -3 -15 -8 0 -4 -16 -16 -37 -27 -39 -21 -143
-120 -143 -135 0 -6 -6 -10 -13 -10 -8 0 -20 -12 -28 -26 -7 -14 -24 -30 -38
-35 -13 -5 -21 -12 -18 -15 7 -7 -69 -123 -90 -139 -8 -6 -19 -20 -26 -32 -7
-12 -32 -55 -57 -95 -25 -40 -45 -75 -45 -78 0 -3 -5 -12 -10 -20 -5 -8 -21
-37 -35 -65 -15 -27 -38 -70 -52 -95 -14 -25 -29 -59 -32 -77 -4 -18 -18 -48
-31 -67 -13 -19 -42 -70 -65 -113 -23 -43 -54 -94 -68 -113 -15 -19 -42 -57
-61 -85 -19 -27 -39 -53 -45 -57 -6 -4 -7 -8 -3 -8 5 0 -6 -19 -25 -42 -39
-52 -58 -72 -58 -63 0 3 -15 -11 -32 -32 -52 -59 -78 -83 -90 -83 -6 0 -18 -8
-27 -18 -9 -10 -46 -40 -83 -67 -186 -139 -368 -257 -384 -251 -8 3 -14 0 -14
-7 -1 -7 -25 -27 -55 -46 -30 -19 -72 -50 -92 -68 -21 -18 -41 -33 -44 -33 -3
0 -19 -12 -36 -27 -16 -16 -42 -40 -59 -54 -59 -53 -95 -108 -191 -289 -25
-46 -54 -95 -64 -109 -10 -13 -19 -29 -19 -36 0 -7 -8 -30 -17 -51 -9 -22 -17
-41 -18 -44 -1 -3 -7 -26 -14 -52 -12 -43 -17 -49 -58 -64 -26 -10 -48 -26
-53 -38 -5 -16 -11 -5 -26 51 -16 64 -22 74 -56 95 -20 13 -38 27 -38 32 0 4
-6 6 -13 3 -10 -4 -13 9 -12 49 0 30 -4 54 -9 54 -5 0 -6 3 -3 6 12 12 -53
119 -89 146 -99 75 -270 25 -340 -99 -18 -33 -37 -42 -49 -23 -10 16 -104 11
-143 -7 -47 -22 -74 -56 -87 -107 -11 -40 -12 -40 -52 -38 -27 2 -55 -4 -82
-17 -22 -12 -46 -21 -54 -21 -16 0 -57 -42 -57 -58 0 -7 -8 -15 -17 -19 -10
-3 -25 -12 -33 -19 -8 -7 -22 -14 -29 -16 -8 -2 -26 -15 -38 -30 -13 -15 -32
-29 -41 -32 -27 -9 -57 -74 -57 -125 0 -32 7 -56 23 -78 25 -35 27 -45 9 -42
-37 5 -59 -5 -100 -47 -25 -25 -46 -53 -46 -62 -2 -41 -14 -92 -22 -92 -6 0
-5 -8 1 -19 5 -11 10 -38 10 -60 0 -23 4 -41 8 -41 5 0 15 -11 22 -24 19 -36
46 -45 156 -53 53 -4 66 -1 99 21 44 30 48 31 65 11 32 -39 133 -64 203 -51
43 8 124 61 140 92 l13 24 13 -37 c14 -38 72 -107 104 -125 28 -14 117 -36
117 -28 0 4 23 7 51 7 30 0 54 5 58 12 5 7 10 12 12 10 13 -9 90 59 109 96 13
25 24 45 26 45 2 0 25 -22 51 -48 53 -53 84 -65 174 -65 69 0 116 22 173 80
38 40 45 43 50 27 18 -52 130 -85 221 -65 29 7 59 19 65 27 7 7 17 14 22 14 5
0 19 10 32 23 57 56 85 138 61 183 -8 16 -15 36 -15 44 0 20 -61 111 -80 121
-21 11 -53 23 -65 24 -100 14 -105 17 -105 45 0 15 -9 39 -21 54 -11 14 -17
26 -12 26 4 0 -7 10 -24 21 -18 12 -33 24 -33 28 0 4 -16 13 -36 20 -42 15
-33 35 21 45 19 4 35 10 35 15 0 4 24 13 53 21 28 7 59 17 67 21 31 16 235 66
306 74 21 3 59 9 84 15 25 5 61 11 80 14 19 2 51 10 70 16 19 6 64 17 100 25
112 23 223 55 239 68 9 7 44 26 79 42 34 16 62 33 62 37 0 5 4 7 9 4 5 -4 11
-3 13 1 4 9 85 73 92 73 3 0 20 15 39 32 18 18 51 49 73 70 75 70 209 228 260
308 52 82 129 213 129 220 1 9 50 105 57 110 19 14 163 319 195 410 77 225
106 300 167 425 35 72 70 148 77 170 6 22 34 78 61 125 26 46 48 91 48 100 0
13 36 88 97 203 8 15 18 27 23 27 5 0 12 16 16 36 4 19 12 38 20 41 7 2 11 10
8 17 -3 7 2 26 11 42 8 16 15 37 15 47 0 9 4 17 10 17 5 0 7 6 4 14 -3 8 -1
23 5 34 8 15 6 23 -13 39 -25 22 -88 34 -109 21z m-107 -145 c-1 -5 -18 -27
-39 -51 -26 -30 -42 -41 -54 -36 -9 3 -17 10 -17 15 0 5 -10 9 -22 9 -16 0 -5
9 32 27 30 14 62 29 70 34 20 10 30 11 30 2z m41 -122 c-12 -16 -21 -34 -21
-41 0 -6 -10 -26 -23 -43 -13 -18 -34 -59 -46 -92 -13 -33 -36 -87 -51 -120
-34 -76 -85 -185 -115 -250 -87 -188 -146 -323 -150 -341 -17 -74 -89 -269
-109 -294 -7 -8 -25 -46 -41 -85 -33 -80 -84 -176 -99 -187 -6 -4 -8 -8 -4 -8
6 0 -79 -171 -91 -180 -8 -6 -46 -73 -72 -127 -12 -24 -37 -60 -58 -81 -20
-21 -49 -55 -64 -75 -16 -21 -52 -62 -80 -92 -29 -29 -61 -64 -73 -77 -11 -13
-31 -30 -44 -38 -12 -8 -48 -36 -79 -62 -31 -26 -62 -48 -68 -48 -7 0 -13 -4
-13 -9 0 -9 -48 -26 -62 -23 -5 1 -8 -2 -8 -7 0 -14 -109 -64 -125 -57 -8 3
-15 0 -15 -6 0 -6 -3 -8 -6 -5 -4 3 -15 2 -25 -3 -9 -6 -33 -12 -51 -15 -18
-2 -51 -9 -73 -15 -22 -6 -56 -13 -75 -16 -19 -2 -48 -9 -65 -13 -29 -9 -104
-21 -155 -26 -41 -3 -274 -55 -290 -64 -26 -14 -132 -42 -138 -37 -3 3 2 6 11
6 8 0 17 3 19 8 10 23 149 102 181 102 7 0 17 4 23 9 9 9 135 46 189 55 17 3
55 11 85 19 31 7 62 11 69 9 8 -3 11 0 7 7 -5 7 1 11 14 11 12 0 38 7 58 16
21 9 46 20 57 25 11 4 49 18 85 30 36 11 72 26 80 33 8 7 31 19 50 26 61 24
150 78 150 90 0 5 8 11 19 15 22 7 71 50 71 62 0 5 16 17 35 27 20 11 54 39
76 63 21 24 43 43 47 43 4 0 23 22 42 47 19 26 43 56 52 67 51 61 123 169 149
226 17 36 34 67 37 70 7 5 19 25 39 65 5 11 24 48 42 82 28 55 76 175 86 213
2 8 11 33 20 55 10 22 24 63 32 90 8 28 27 70 42 95 14 25 32 56 39 70 6 14
16 32 21 40 5 8 26 51 46 95 51 109 66 137 87 159 9 11 25 42 34 70 17 53 40
100 61 126 6 8 12 19 12 23 0 4 9 20 20 35 12 15 35 49 53 76 17 27 46 63 63
80 17 17 44 52 61 78 16 27 33 48 37 48 5 0 -1 -13 -12 -29z m-207 -37 c9 -8
16 -17 16 -20 0 -8 -65 -104 -70 -104 -11 0 -40 59 -40 81 0 49 60 77 94 43z
m-177 -111 c-3 -2 -24 -7 -47 -10 l-42 -6 43 41 44 41 3 -31 c2 -16 1 -32 -1
-35z m23 -113 c31 -22 31 -47 -1 -76 -10 -9 -19 -29 -19 -43 0 -35 -34 -84
-61 -88 -30 -5 -56 29 -69 90 l-11 51 43 43 c47 48 75 54 118 23z m-234 -112
c-1 -13 1 -27 5 -33 3 -5 9 -24 12 -41 6 -31 5 -32 -42 -38 -27 -4 -61 -16
-75 -27 -14 -11 -26 -16 -26 -10 0 6 4 11 9 11 5 0 12 12 15 26 8 31 55 104
67 104 5 0 9 7 9 15 0 8 6 15 14 15 8 0 13 -9 12 -22z m58 -209 c14 -7 27 -17
29 -23 8 -20 -100 -231 -117 -230 -60 3 -65 5 -80 35 -8 16 -12 37 -9 45 3 8
0 21 -7 29 -15 18 3 78 31 109 11 11 19 23 19 27 0 18 99 23 134 8z m-240
-264 c10 -15 14 -25 8 -21 -17 10 -114 -20 -138 -43 -19 -19 -24 -20 -24 -7 0
9 4 16 8 16 5 0 20 21 33 48 13 26 29 52 35 57 7 6 17 28 24 50 21 71 24 71
30 -1 4 -43 13 -83 24 -99z m126 -75 c0 -5 -2 -10 -4 -10 -3 0 -8 5 -11 10 -3
6 -1 10 4 10 6 0 11 -4 11 -10z m-85 -73 c43 -39 43 -35 -4 -167 -16 -47 -34
-84 -40 -82 -6 1 -11 -2 -11 -7 0 -14 -60 -2 -86 17 -27 20 -64 99 -64 137 0
29 50 108 78 124 37 22 88 13 127 -22z m-278 -139 c3 -23 11 -54 19 -69 19
-37 18 -39 -11 -37 -14 1 -25 6 -25 10 0 5 -21 -3 -47 -16 -47 -24 -83 -57
-83 -75 0 -5 -4 -11 -8 -13 -19 -8 -55 -98 -60 -151 -4 -53 -6 -57 -26 -51
-12 4 -36 11 -55 15 -66 15 -63 24 40 122 52 51 104 106 115 122 10 17 22 35
27 40 12 16 67 98 85 127 20 33 25 29 29 -24z m18 -198 c3 -5 15 -10 26 -10
10 0 19 -3 19 -7 0 -5 16 -25 35 -46 27 -30 34 -44 29 -63 -3 -13 -10 -24 -15
-24 -5 0 -8 -3 -8 -7 1 -5 0 -11 -1 -15 -1 -5 -3 -11 -4 -15 -2 -11 -39 -67
-49 -74 -4 -3 -22 -28 -40 -55 -30 -46 -77 -73 -77 -44 0 7 -11 21 -24 31 -38
30 -60 98 -52 163 8 58 45 141 74 163 20 15 78 17 87 3z m-374 -274 c16 10 69
-7 93 -29 12 -12 33 -46 45 -76 18 -44 22 -65 17 -105 -4 -28 -7 -57 -8 -64
-1 -7 -33 -38 -72 -69 -39 -31 -76 -63 -83 -71 -12 -14 -24 -14 -97 3 -43 9
-62 22 -88 57 -19 28 -23 45 -23 113 0 74 2 84 33 130 34 51 111 109 144 109
10 0 18 5 19 11 0 5 3 4 6 -3 2 -6 9 -10 14 -6z m-265 -98 c-9 -12 -16 -32
-16 -43 0 -11 -4 -26 -9 -34 -8 -12 -15 -9 -41 12 -17 15 -26 27 -19 27 6 0
19 8 28 18 18 19 51 40 64 41 5 1 1 -9 -7 -21z m-78 -182 c27 -29 42 -55 43
-73 1 -15 2 -46 4 -68 2 -41 -18 -95 -35 -95 -6 0 -10 -8 -10 -18 0 -25 -118
-82 -154 -73 -4 1 -14 -3 -21 -9 -7 -6 -22 -13 -34 -15 -17 -3 -21 1 -21 26 0
16 -4 29 -9 29 -10 0 -27 64 -36 132 -5 35 -1 56 15 90 29 60 49 82 104 111
61 32 95 24 154 -37z m-354 -148 c-2 -26 6 -73 21 -120 37 -114 44 -102 -90
-140 -22 -6 -46 -16 -52 -21 -7 -5 -13 -6 -13 -1 0 5 -4 4 -8 -2 -4 -5 -28
-18 -53 -27 -25 -10 -55 -26 -67 -37 -33 -31 -47 -23 -18 11 14 17 26 37 26
44 0 7 6 20 13 27 7 7 19 29 27 48 24 58 102 164 158 214 29 25 54 46 56 46 2
0 2 -19 0 -42z m516 -48 c0 -5 7 -10 16 -10 8 0 12 -4 9 -10 -3 -5 -17 -10
-31 -10 -13 0 -24 -4 -24 -10 0 -5 -7 -10 -15 -10 -18 0 -18 2 -3 35 11 24 48
36 48 15z m-1401 -208 c34 -25 69 -88 74 -135 4 -34 2 -39 -27 -51 -17 -8 -40
-21 -50 -29 -18 -13 -21 -12 -36 17 -11 20 -35 40 -70 58 -49 24 -57 25 -81
13 -26 -14 -26 -14 -24 23 3 47 47 99 98 116 49 16 83 13 116 -12z m-338 -149
c39 -23 42 -38 14 -72 -14 -16 -25 -34 -25 -40 0 -23 -33 -61 -51 -61 -11 0
-23 8 -26 17 -4 10 -20 28 -35 41 -17 14 -25 29 -21 35 5 7 8 28 8 47 0 20 5
35 12 35 6 0 15 3 19 8 13 13 75 7 105 -10z m209 -90 c0 -7 6 -13 13 -13 8 0
13 -13 14 -34 1 -46 -40 -92 -88 -99 -56 -8 -128 42 -85 59 8 3 17 22 21 42 6
34 28 59 65 73 20 8 60 -10 60 -28z m286 -45 c55 -46 56 -50 51 -123 -3 -38
-9 -78 -13 -88 -6 -18 -8 -17 -28 5 -48 54 -91 78 -158 85 l-66 8 20 43 c11
23 26 42 34 42 7 0 23 11 36 24 35 37 82 39 124 4z m-697 -32 c36 -37 36 -64
1 -73 -11 -3 -20 -10 -20 -15 0 -5 -4 -7 -9 -3 -5 3 -12 1 -16 -5 -9 -14 -25
-13 -25 3 0 14 -32 45 -73 72 l-28 18 28 18 c15 9 46 18 69 18 33 1 46 -5 73
-33z m-190 -100 c35 -18 51 -55 51 -115 0 -73 -43 -103 -133 -94 -52 5 -60 10
-92 49 -35 42 -35 44 -21 72 16 30 79 68 96 57 6 -3 14 5 20 19 11 30 37 33
79 12z m394 -47 c53 -56 55 -62 26 -162 -18 -66 -109 -80 -176 -28 -14 12 -34
21 -43 21 -18 0 -60 60 -60 85 0 32 35 86 60 92 14 4 39 15 55 25 52 31 83 24
138 -33z m667 -14 c0 -24 39 -34 71 -18 25 12 32 12 60 -3 47 -24 89 -74 89
-106 0 -43 -62 -88 -122 -88 -26 0 -50 5 -53 10 -3 6 -16 10 -29 10 -14 0 -36
16 -59 42 -30 34 -36 47 -31 72 5 29 9 36 44 78 18 22 30 23 30 3z m-523 -35
c-17 -63 -26 -49 -18 28 0 6 7 12 15 12 11 0 11 -8 3 -40z m222 14 c52 -22 79
-62 82 -118 2 -41 -1 -50 -26 -72 -72 -62 -205 14 -205 119 0 72 68 104 149
71z m-236 -117 c2 -20 10 -43 16 -51 10 -12 7 -15 -18 -14 -17 1 -31 2 -31 4
0 14 23 105 26 102 1 -2 5 -20 7 -41z m917 -87 c34 -8 52 -21 73 -50 15 -21
27 -44 27 -52 0 -8 6 -23 14 -33 12 -17 12 -24 -1 -49 -25 -49 -48 -66 -115
-84 -28 -8 -43 -7 -65 5 -15 8 -29 14 -30 14 -22 -6 -63 64 -63 107 0 16 7 48
15 71 8 22 12 41 9 41 -9 0 19 25 41 37 20 12 24 11 95 -7z m-1255 -36 c30
-20 52 -40 49 -45 -3 -5 0 -9 5 -9 17 0 13 -87 -5 -123 -31 -60 -70 -83 -133
-78 -48 4 -72 14 -102 45 -31 31 -47 110 -27 134 7 8 12 17 10 19 -9 11 34 65
61 77 52 23 83 19 142 -20z m-372 -8 c10 10 47 -7 47 -22 0 -8 5 -14 10 -14 6
0 9 -28 8 -68 -1 -38 2 -74 6 -80 4 -7 2 -13 -3 -13 -18 -2 -25 -5 -54 -19
-23 -11 -37 -12 -75 -1 -26 7 -54 19 -63 27 -35 31 -27 138 13 181 24 26 67
34 89 16 9 -7 18 -10 22 -7z m1191 -21 c24 -8 57 -16 72 -16 16 -1 44 -6 62
-11 52 -15 56 -70 10 -138 -38 -56 -72 -74 -132 -74 -89 2 -154 65 -153 149 0
32 7 47 35 73 38 37 45 38 106 17z m-429 -15 c89 -11 117 -22 138 -54 24 -36
21 -79 -9 -135 -32 -63 -85 -91 -161 -86 -121 9 -202 132 -150 232 19 37 63
64 92 57 11 -3 52 -9 90 -14z"/>
</g>
</svg>
