<?xml version="1.0" standalone="no"?>
<!DOCTYPE svg PUBLIC "-//W3C//DTD SVG 20010904//EN"
 "http://www.w3.org/TR/2001/REC-SVG-20010904/DTD/svg10.dtd">
<svg version="1.0" xmlns="http://www.w3.org/2000/svg"
 width="477.000000pt" height="423.000000pt" viewBox="0 0 477.000000 423.000000"
 preserveAspectRatio="xMidYMid meet">
<metadata>
Created by potrace 1.16, written by Peter Selinger 2001-2019
</metadata>
<g transform="translate(0.000000,423.000000) scale(0.100000,-0.100000)"
fill="#000000" stroke="none">
<path d="M2525 3954 c-19 -8 -69 -13 -135 -12 -112 0 -200 -6 -352 -27 -20 -3
-63 -15 -95 -26 -32 -11 -82 -24 -112 -29 -30 -5 -89 -27 -132 -49 -43 -22
-86 -44 -96 -49 -10 -5 -40 -20 -68 -33 -27 -12 -52 -26 -55 -30 -3 -4 -34
-21 -68 -39 -41 -21 -98 -65 -157 -122 -52 -49 -115 -103 -141 -121 -85 -56
-170 -209 -352 -637 -8 -19 -27 -60 -41 -90 -15 -30 -35 -91 -45 -135 -10 -44
-24 -98 -31 -120 -32 -98 -37 -512 -9 -670 28 -155 45 -238 51 -249 4 -5 7
-19 8 -30 7 -81 113 -340 176 -433 16 -23 29 -46 29 -51 0 -5 9 -17 20 -27 11
-10 20 -22 20 -27 0 -5 13 -29 30 -53 16 -24 30 -46 30 -50 0 -8 47 -70 79
-104 13 -15 40 -46 60 -70 53 -66 102 -111 166 -156 31 -22 74 -53 95 -70 67
-52 124 -91 160 -111 19 -10 37 -21 40 -24 14 -14 226 -112 250 -116 8 -1 67
-16 130 -33 63 -17 141 -31 172 -31 31 0 67 -4 80 -8 31 -11 250 2 418 24 74
9 147 18 163 18 15 1 27 3 27 6 0 3 19 6 43 6 111 2 362 78 477 145 8 5 46 25
85 44 38 20 76 41 84 48 8 7 38 26 67 42 56 32 104 70 192 152 31 29 63 55 72
58 9 3 23 17 30 30 8 14 49 59 92 100 43 41 78 79 78 84 0 5 16 28 35 51 19
23 35 45 35 49 0 4 13 23 30 42 16 19 34 39 40 46 5 7 10 19 10 27 0 8 5 18
10 21 6 3 10 13 10 21 0 9 12 45 26 80 14 36 27 75 29 87 15 95 35 199 41 208
3 6 8 25 10 42 3 18 9 56 14 86 6 29 8 56 6 60 -3 4 0 38 5 76 10 75 11 261 5
555 -3 138 -9 207 -24 270 -17 73 -123 368 -168 467 -8 17 -14 33 -14 36 0 11
-93 161 -132 215 -40 53 -103 117 -178 178 -19 16 -36 32 -38 37 -2 4 -7 7
-11 7 -4 0 -47 22 -96 49 -48 27 -115 60 -149 72 -33 13 -63 25 -66 28 -10 11
-46 32 -100 57 -123 58 -137 64 -151 64 -9 0 -38 11 -65 25 -27 14 -53 25 -57
25 -4 0 -27 9 -50 19 -69 31 -210 57 -384 70 -61 5 -115 11 -120 13 -4 3 -21
-1 -38 -8z m102 -105 c28 -11 84 -18 173 -20 25 0 68 -6 95 -12 28 -6 54 -10
59 -9 4 2 13 -2 20 -7 6 -5 31 -14 55 -21 24 -6 68 -22 97 -36 29 -13 60 -24
69 -24 18 0 177 -74 215 -100 14 -9 51 -27 83 -39 76 -28 240 -124 308 -181
84 -70 124 -114 178 -198 28 -42 54 -82 59 -87 20 -28 64 -134 107 -260 26
-77 51 -144 55 -150 13 -17 61 -220 61 -256 0 -19 2 -153 5 -299 2 -146 0
-301 -5 -345 -6 -44 -13 -105 -16 -135 -3 -30 -8 -68 -10 -85 -3 -16 -7 -41
-9 -55 -2 -14 -7 -36 -10 -50 -3 -14 -8 -36 -11 -50 -39 -210 -88 -324 -187
-438 -15 -18 -28 -37 -28 -42 0 -12 -218 -230 -231 -230 -5 0 -9 -6 -9 -13 0
-7 -13 -21 -30 -30 -16 -10 -30 -22 -30 -28 0 -5 -4 -9 -9 -9 -6 0 -25 -14
-43 -31 -48 -44 -190 -132 -290 -180 -27 -13 -48 -26 -48 -31 0 -4 -8 -8 -19
-8 -10 0 -29 -8 -42 -19 -13 -10 -42 -21 -63 -25 -22 -4 -80 -21 -130 -36 -89
-29 -186 -45 -316 -55 -126 -10 -169 -15 -214 -25 -27 -6 -115 -8 -209 -6
-157 5 -267 21 -405 60 -74 20 -284 128 -352 181 -32 25 -61 45 -64 45 -5 0
-180 132 -211 159 -26 22 -105 112 -105 118 0 5 -18 27 -40 51 -22 24 -40 46
-40 49 0 3 -11 21 -25 39 -14 18 -25 37 -25 43 0 5 -6 16 -14 23 -7 8 -21 27
-30 43 -9 17 -25 44 -35 61 -39 65 -108 201 -129 254 -27 70 -77 276 -98 405
-18 112 -27 423 -14 500 4 28 11 81 15 120 13 141 94 351 288 745 61 125 126
211 192 257 17 12 57 46 89 77 32 30 66 58 77 61 10 4 19 10 19 15 0 4 8 11
18 14 18 7 22 9 112 67 87 56 229 124 310 149 41 13 79 27 84 32 6 4 21 8 34
8 13 0 31 4 40 9 9 5 37 11 62 14 25 3 78 11 119 17 41 6 111 8 155 5 45 -2
97 -1 116 4 51 13 144 13 177 0z"/>
<path d="M2740 3636 c0 -10 -4 -15 -9 -12 -12 8 -30 -16 -27 -34 1 -8 7 -25
14 -37 19 -34 13 -153 -7 -153 -4 0 -16 8 -27 18 -11 11 -38 19 -67 21 -26 1
-62 7 -80 12 -17 6 -63 12 -101 15 -38 2 -72 7 -77 9 -4 3 -28 1 -52 -5 -24
-5 -61 -12 -82 -14 -21 -3 -42 -9 -48 -15 -5 -5 -16 -7 -23 -4 -8 3 -20 1 -27
-5 -6 -5 -32 -13 -57 -17 -25 -4 -52 -11 -61 -16 -44 -23 -236 -205 -245 -231
-3 -10 -11 -18 -17 -18 -13 0 -50 -53 -61 -86 -17 -55 69 -78 115 -30 13 13
29 22 36 19 7 -3 15 2 19 10 6 16 100 82 186 130 25 15 84 36 130 47 91 22
257 37 285 25 10 -4 32 -9 48 -11 17 -2 43 -9 58 -15 l28 -12 -23 -16 c-36
-25 -60 -44 -90 -73 -28 -26 -49 -40 -113 -73 -16 -8 -39 -27 -50 -42 -11 -14
-32 -39 -46 -54 -29 -30 -59 -88 -59 -113 0 -36 94 -51 105 -17 3 11 12 22 20
25 8 3 15 10 15 16 0 13 61 69 76 70 6 0 17 7 24 15 17 21 69 19 77 -2 4 -10
11 -21 17 -25 8 -6 8 -10 0 -15 -12 -9 -104 -159 -104 -170 0 -4 -15 -48 -34
-98 -33 -87 -49 -149 -61 -227 -2 -21 -9 -57 -14 -79 -5 -23 -7 -92 -5 -153 6
-125 10 -215 13 -233 0 -7 14 -19 30 -27 46 -24 54 -5 63 153 5 91 14 159 28
201 11 36 20 75 20 88 0 12 4 30 10 40 5 9 21 46 34 82 13 36 40 103 60 150
20 46 36 88 36 92 0 4 8 16 18 27 9 10 42 48 72 83 80 94 107 112 114 76 1 -7
8 -33 15 -58 7 -24 14 -62 16 -85 1 -22 3 -49 4 -60 1 -16 9 -20 40 -22 43 -3
53 5 70 57 15 48 21 208 8 243 -5 15 -7 30 -4 33 8 9 54 -7 74 -25 10 -9 32
-23 49 -30 49 -20 127 -114 139 -168 2 -10 20 -63 39 -118 20 -55 38 -111 41
-125 3 -14 8 -36 11 -50 4 -14 7 -85 8 -158 1 -120 4 -136 21 -148 37 -27 83
-7 85 36 0 8 15 42 32 75 32 62 43 115 54 250 6 77 4 86 -40 218 -25 75 -46
146 -46 157 0 10 -5 22 -10 25 -6 4 -17 21 -24 39 -8 19 -45 65 -83 104 -52
53 -88 78 -146 106 -43 20 -82 36 -88 36 -6 0 4 17 22 38 30 32 49 66 112 199
16 36 -5 75 -39 69 -33 -6 -45 -17 -79 -70 -26 -42 -31 -45 -69 -43 -24 1 -47
-4 -56 -12 -12 -12 -15 -11 -22 5 -13 28 -69 58 -79 42 -4 -7 -9 -10 -11 -8
-5 7 -45 112 -52 136 -4 11 -12 21 -19 22 -6 0 -22 4 -34 7 -18 6 -23 3 -23
-9z m-275 -1095 c3 -5 1 -12 -5 -16 -5 -3 -10 1 -10 9 0 18 6 21 15 7z"/>
</g>
</svg>
