<?xml version="1.0" standalone="no"?>
<!DOCTYPE svg PUBLIC "-//W3C//DTD SVG 20010904//EN"
 "http://www.w3.org/TR/2001/REC-SVG-20010904/DTD/svg10.dtd">
<svg version="1.0" xmlns="http://www.w3.org/2000/svg"
 width="447.000000pt" height="445.000000pt" viewBox="0 0 447.000000 445.000000"
 preserveAspectRatio="xMidYMid meet">
<metadata>
Created by potrace 1.16, written by Peter Selinger 2001-2019
</metadata>
<g transform="translate(0.000000,445.000000) scale(0.100000,-0.100000)"
fill="#000000" stroke="none">
<path d="M3976 4375 c-10 -7 -15 -18 -11 -24 3 -6 1 -11 -5 -11 -6 0 -20 -21
-31 -47 -11 -27 -27 -61 -35 -77 -8 -16 -14 -34 -14 -41 0 -7 -9 -20 -19 -29
-11 -10 -27 -42 -37 -72 -14 -45 -21 -54 -40 -54 -13 0 -24 5 -24 10 0 13 -67
13 -75 0 -4 -6 -10 -8 -15 -5 -12 7 -50 -31 -50 -50 0 -8 -11 -31 -25 -51 -14
-20 -32 -60 -40 -87 -8 -28 -22 -58 -31 -68 -22 -24 -84 -149 -84 -169 0 -9
-5 -21 -12 -28 -7 -7 -9 -12 -5 -12 4 0 -1 -10 -13 -22 -11 -12 -20 -28 -20
-35 0 -7 -3 -13 -8 -13 -11 0 -49 -96 -55 -140 0 -3 -18 -32 -39 -65 -21 -32
-41 -71 -45 -85 -5 -24 -83 -179 -153 -303 -32 -58 -33 -59 -68 -52 -58 11
-121 16 -219 18 -51 2 -95 6 -99 9 -3 4 3 20 15 36 11 16 25 42 31 57 6 15 19
29 30 32 11 3 20 9 20 13 0 9 47 60 56 60 4 0 26 19 49 43 40 38 83 67 127 81
14 4 15 11 8 35 -5 18 -5 33 0 36 12 7 1 36 -19 53 -9 7 -41 25 -71 40 -30 15
-62 31 -72 37 -20 11 -24 25 -8 25 16 0 11 17 -7 24 -23 9 -43 -12 -23 -24 12
-8 11 -10 -7 -10 -12 0 -25 5 -28 10 -3 6 -17 10 -31 10 -14 0 -33 4 -43 9 -9
6 -53 13 -97 16 -43 4 -110 10 -149 13 -38 4 -117 3 -175 -1 -71 -6 -136 -4
-201 4 -58 7 -125 9 -165 5 -38 -4 -112 -9 -164 -11 -52 -2 -111 -7 -130 -10
-19 -3 -73 -7 -120 -8 -55 -2 -96 -8 -115 -18 -97 -52 -135 -69 -148 -69 -8 0
-30 -11 -49 -24 -33 -22 -80 -48 -181 -98 -43 -22 -160 -108 -166 -122 -6 -14
-142 -145 -188 -181 -45 -35 -161 -152 -208 -209 -18 -23 -43 -63 -56 -91 -12
-27 -33 -63 -44 -80 -22 -31 -65 -115 -69 -137 -2 -7 -7 -22 -11 -33 -4 -11
-14 -34 -21 -52 -7 -17 -15 -74 -18 -125 -6 -85 -19 -201 -46 -398 -13 -95
-15 -202 -6 -260 18 -109 111 -342 154 -390 10 -10 35 -39 57 -65 22 -27 55
-63 72 -82 l33 -33 -39 0 c-43 0 -101 -18 -101 -31 0 -5 -6 -9 -14 -9 -7 0
-25 -11 -40 -25 -14 -13 -28 -23 -29 -22 -9 6 -79 -52 -93 -78 -19 -35 -16
-80 6 -80 9 0 14 7 12 17 -1 10 6 35 18 57 17 34 33 46 105 80 46 22 97 43
112 46 l28 5 -27 -13 c-53 -25 -76 -54 -87 -109 -9 -41 -22 -64 -60 -105 -27
-29 -62 -58 -77 -64 -16 -6 -24 -13 -17 -16 23 -9 88 31 139 83 46 48 62 80
68 136 1 9 46 42 46 33 0 -3 13 1 30 10 37 19 66 19 74 -1 12 -31 6 -64 -14
-76 -13 -8 -20 -24 -20 -44 0 -43 -51 -140 -105 -199 -24 -27 -45 -55 -45 -60
0 -11 36 -45 48 -45 4 0 13 13 20 30 7 16 22 32 33 35 10 4 19 13 19 21 0 8 6
14 13 14 14 0 84 88 104 130 7 14 12 42 13 63 0 34 2 37 28 37 21 0 27 -5 28
-22 1 -13 5 -46 9 -75 6 -41 3 -67 -16 -127 -13 -42 -27 -76 -31 -76 -5 0 -8
-7 -8 -15 0 -8 -16 -29 -35 -48 -40 -39 -41 -42 -18 -51 11 -5 27 5 49 28 64
67 104 175 105 277 1 50 4 67 12 62 8 -4 7 -1 -1 9 -10 13 -10 17 4 22 22 9
23 8 20 -12 -16 -88 -16 -123 0 -216 15 -86 22 -105 48 -131 31 -31 52 -20 23
13 -27 30 -54 239 -31 235 7 -1 15 17 19 42 3 25 9 45 12 45 3 0 19 -6 36 -14
44 -20 106 -36 141 -36 16 0 66 -18 112 -40 46 -22 91 -40 99 -40 9 0 26 -7
39 -15 31 -20 103 -21 216 -1 52 9 122 21 155 26 156 25 281 52 295 63 8 7 26
18 40 26 14 8 41 24 60 35 34 20 35 20 20 1 -21 -28 -36 -40 -105 -85 -63 -41
-165 -143 -165 -165 0 -7 -9 -24 -20 -38 -18 -22 -20 -37 -16 -96 5 -80 13
-98 74 -163 31 -33 40 -48 28 -48 -23 0 -128 -54 -148 -77 -10 -10 -24 -35
-33 -56 -15 -36 -14 -37 5 -37 18 0 25 15 21 43 0 4 6 7 15 7 8 0 13 4 10 9
-5 7 7 17 34 26 3 1 25 11 50 23 25 11 54 19 65 17 11 -2 24 -4 28 -4 5 -1 -3
-15 -17 -32 -15 -17 -33 -44 -42 -60 -14 -27 -13 -29 6 -29 11 0 20 5 20 10 0
12 29 40 61 59 13 8 34 20 46 28 22 14 22 14 11 -24 -5 -21 -14 -46 -19 -55
-7 -14 -6 -18 6 -18 15 0 56 40 89 85 19 27 34 11 44 -45 7 -41 8 -42 25 -26
9 10 17 28 17 41 0 30 12 38 128 78 17 7 32 18 32 25 0 7 10 16 23 21 40 16
84 73 96 126 6 28 10 127 9 220 0 94 2 178 6 187 4 9 9 22 10 30 1 7 12 32 24
56 13 23 20 47 17 51 -2 5 1 14 9 20 8 7 17 28 21 48 3 20 16 48 27 64 18 24
23 26 47 16 14 -6 33 -18 42 -27 9 -8 40 -33 69 -55 29 -22 62 -50 73 -62 11
-13 24 -23 29 -23 9 0 12 -2 61 -42 15 -13 39 -32 53 -43 14 -11 31 -25 37
-30 23 -20 86 -56 106 -60 24 -5 43 43 36 94 -5 43 27 218 55 296 31 88 46
110 121 187 38 38 69 74 69 78 0 5 11 15 24 22 20 11 96 76 190 163 14 13 26
29 26 34 0 6 6 14 14 18 7 4 26 36 41 71 15 34 31 62 35 62 9 0 60 112 60 133
0 9 4 18 9 21 18 12 68 228 69 301 0 11 4 53 8 93 5 55 3 86 -9 125 -8 29 -23
78 -32 110 -9 33 -27 67 -39 78 -13 11 -48 44 -78 72 -30 29 -80 70 -110 91
l-56 40 22 30 c23 31 56 97 56 111 0 4 14 33 32 64 18 31 34 65 36 76 1 11 7
22 12 23 6 2 10 8 10 13 0 5 21 42 48 82 26 40 65 108 87 152 22 44 42 82 45
85 23 23 128 220 219 410 37 78 78 152 112 201 14 20 26 53 27 76 3 41 -13 57
-62 65 -31 5 -29 23 3 61 25 28 31 44 31 79 0 38 -4 47 -25 56 -14 6 -32 9
-40 6 -8 -4 -15 -2 -15 3 0 12 -77 53 -98 53 -10 0 -25 -7 -36 -15z m111 -117
c9 -7 6 -19 -13 -49 -13 -22 -22 -44 -19 -49 4 -6 2 -10 -2 -10 -5 0 -24 -30
-43 -67 -18 -38 -50 -93 -71 -123 -45 -67 -153 -275 -163 -314 -4 -15 -16 -41
-26 -57 -11 -16 -29 -42 -40 -59 -11 -16 -20 -33 -20 -38 0 -5 -7 -15 -15 -22
-8 -7 -12 -16 -10 -21 3 -5 -3 -14 -15 -21 -11 -7 -20 -18 -20 -25 0 -7 -4
-13 -9 -13 -5 0 -16 -20 -24 -44 -8 -24 -26 -56 -38 -70 -30 -34 -89 -145 -89
-168 0 -10 -4 -18 -9 -18 -5 0 -15 -15 -22 -32 -7 -18 -39 -67 -71 -109 -32
-42 -58 -81 -58 -85 -1 -21 -40 -54 -64 -54 -32 0 -33 10 -1 60 14 22 25 45
25 51 0 7 11 27 25 45 14 18 25 37 25 42 0 14 66 130 96 169 13 17 24 35 24
40 0 5 25 49 55 98 30 50 55 95 55 102 0 6 6 18 13 25 12 12 79 127 109 188 7
14 15 27 19 30 3 3 12 19 21 35 41 80 64 120 71 123 4 2 7 9 7 15 0 15 71 156
81 163 5 3 9 12 9 20 0 17 52 126 72 149 7 9 19 22 26 30 6 7 12 18 12 24 0
15 63 60 75 54 5 -3 15 -10 22 -15z m36 -217 c-3 -9 -11 -30 -18 -46 -20 -45
-33 -79 -33 -89 0 -5 -5 -12 -10 -15 -18 -11 -94 -160 -87 -171 3 -5 2 -10 -3
-10 -8 0 -82 -146 -82 -163 0 -10 -42 -71 -52 -75 -5 -2 -8 -8 -8 -13 0 -6
-22 -48 -50 -95 -27 -47 -50 -90 -50 -96 0 -6 -11 -26 -25 -44 -14 -18 -25
-37 -25 -42 0 -5 -9 -17 -20 -27 -11 -10 -20 -23 -20 -29 0 -6 -16 -31 -35
-55 -20 -25 -34 -50 -31 -57 3 -7 -2 -18 -10 -25 -8 -6 -27 -39 -43 -73 -55
-118 -162 -201 -144 -113 7 34 35 89 63 122 9 11 27 43 40 70 13 28 26 52 30
55 11 9 70 150 70 167 0 9 3 13 7 10 8 -9 20 9 87 132 32 57 68 118 82 136 13
17 24 37 24 43 0 7 5 12 11 12 5 0 7 5 4 10 -3 6 1 13 9 16 8 3 18 16 22 27 3
12 30 70 60 129 30 59 54 112 54 118 0 5 13 24 29 40 16 17 34 45 41 63 6 18
16 39 21 47 51 81 49 79 74 68 15 -7 22 -16 18 -27z m-372 -107 c14 -5 8 -21
-37 -97 -30 -51 -54 -95 -54 -100 0 -4 -22 -42 -49 -85 -26 -42 -52 -88 -56
-102 -4 -14 -13 -32 -20 -40 -7 -8 -20 -31 -29 -50 -13 -29 -67 -121 -106
-180 -5 -8 -19 -31 -30 -50 -11 -19 -33 -51 -50 -70 l-31 -35 22 55 c13 30 33
71 46 90 13 19 23 39 23 44 0 15 40 101 122 264 43 83 78 158 78 165 0 8 11
27 25 43 14 16 25 36 25 44 0 8 18 35 40 59 22 24 40 48 40 53 0 5 6 7 13 4 6
-3 19 -9 28 -12z m-1658 -550 c32 -3 57 -8 55 -10 -2 -2 -37 -8 -77 -15 -90
-13 -294 -112 -399 -191 -37 -28 -85 -63 -108 -77 -61 -40 -300 -255 -393
-356 -25 -27 -61 -63 -78 -79 -18 -16 -33 -38 -33 -49 0 -10 -12 -31 -27 -47
-36 -36 -49 -56 -74 -110 -11 -25 -29 -61 -40 -80 -11 -19 -30 -55 -41 -80
-11 -25 -29 -54 -38 -65 -46 -50 -136 -278 -210 -530 -18 -60 -41 -136 -52
-167 -27 -77 -31 -170 -12 -286 8 -53 17 -107 19 -120 12 -76 -41 61 -60 158
-4 19 -11 40 -15 45 -37 46 -29 622 9 692 6 12 13 39 15 60 5 51 15 75 39 94
17 14 18 18 5 42 -13 25 -15 26 -35 12 -15 -11 -27 -40 -43 -112 -13 -54 -25
-105 -28 -113 -3 -8 -6 -19 -7 -25 0 -5 -4 -21 -7 -35 -4 -14 -10 -86 -13
-160 -3 -74 -8 -148 -10 -165 -5 -39 50 -374 70 -421 21 -50 19 -61 -6 -33
-11 13 -34 39 -50 57 -25 27 -90 138 -97 165 -1 4 -8 17 -16 30 -50 78 -73
288 -48 427 22 118 41 264 47 355 4 55 13 106 24 130 65 138 85 179 128 255
68 120 106 172 150 205 21 16 43 36 50 45 6 9 54 49 106 88 57 44 106 91 123
117 15 25 36 47 46 51 10 3 24 11 30 17 24 22 83 63 113 79 17 8 64 33 105 54
41 22 95 48 120 59 25 10 56 27 70 36 24 16 48 22 129 33 45 6 28 -8 -35 -28
-28 -9 -69 -31 -90 -49 -21 -18 -55 -44 -74 -57 -62 -42 -280 -244 -280 -260
0 -6 -21 -29 -120 -135 -85 -92 -182 -224 -247 -339 -16 -27 -33 -58 -40 -70
-15 -26 -11 -29 26 -21 26 5 34 16 61 83 42 100 103 186 252 356 173 195 343
361 407 395 14 7 35 21 46 31 25 22 128 69 169 77 17 3 39 10 48 15 18 9 48
12 200 23 51 4 94 9 96 10 4 3 51 0 145 -11z m504 -19 c50 -3 109 -12 130 -19
l38 -13 -35 -8 c-19 -5 -40 -8 -47 -7 -6 1 -27 -7 -47 -19 -21 -12 -61 -23
-98 -26 -35 -3 -79 -14 -98 -23 -19 -10 -50 -21 -69 -25 -19 -4 -51 -17 -70
-28 -62 -35 -130 -67 -145 -67 -8 0 -36 -18 -62 -40 -27 -23 -74 -52 -104 -67
-30 -14 -76 -41 -101 -59 -26 -19 -49 -34 -53 -34 -12 0 -113 -70 -151 -105
-42 -39 -83 -70 -126 -95 -40 -24 -149 -112 -149 -121 0 -5 -51 -60 -114 -123
-63 -62 -117 -124 -121 -137 -4 -13 -13 -29 -20 -35 -33 -33 -111 -186 -145
-283 -20 -59 -41 -114 -45 -121 -14 -23 -41 -146 -35 -165 3 -11 13 -21 22
-23 15 -2 18 5 18 35 0 21 7 61 15 88 9 28 18 63 21 80 3 16 8 34 13 40 4 5
24 55 46 110 21 55 44 107 51 115 7 8 32 48 56 88 38 63 148 194 201 241 10 9
54 50 97 93 44 42 105 91 136 109 32 18 87 59 123 92 36 33 93 73 126 89 58
28 113 60 205 121 41 27 112 67 195 110 17 8 46 20 65 27 19 7 64 23 100 36
36 13 77 23 92 24 14 0 50 8 80 19 117 41 201 51 255 30 l28 -11 -25 -10 c-14
-5 -26 -9 -28 -8 -6 2 -181 -123 -215 -155 -21 -19 -48 -41 -61 -47 -29 -17
-198 -204 -218 -243 -6 -11 -17 -28 -25 -37 -22 -24 -123 -247 -123 -270 0
-10 6 -18 13 -18 26 0 45 27 71 100 14 41 35 87 46 102 11 15 20 32 20 38 0 5
9 19 20 30 11 11 23 34 26 49 4 16 20 44 38 63 17 19 58 65 91 103 76 86 104
115 113 115 4 0 21 12 38 28 38 33 60 47 144 89 35 17 67 30 70 27 2 -3 -4
-10 -15 -16 -28 -16 -119 -114 -136 -146 -15 -30 -75 -92 -90 -92 -5 0 -9 -6
-9 -13 0 -6 -20 -33 -44 -60 -57 -61 -93 -137 -101 -212 -3 -33 -10 -80 -15
-105 -16 -76 -30 -154 -35 -185 -2 -17 -9 -57 -14 -90 -5 -33 -12 -74 -14 -91
-3 -16 4 -68 14 -114 10 -46 16 -87 14 -90 -2 -4 4 -29 14 -56 11 -27 19 -76
20 -109 1 -33 5 -96 10 -140 8 -81 -4 -169 -30 -218 -7 -11 -18 -47 -25 -80
-8 -33 -28 -85 -45 -116 -17 -31 -30 -57 -30 -59 5 -9 -93 -173 -116 -194 -16
-14 -47 -48 -70 -75 -69 -82 -243 -171 -374 -192 -35 -6 -75 -13 -89 -16 -30
-7 -225 -34 -296 -41 -33 -4 -62 0 -85 9 l-34 15 57 -5 c42 -4 68 -1 102 13
25 11 46 22 46 27 0 4 6 7 14 7 8 0 16 6 19 14 3 8 21 17 39 21 34 8 90 43
143 89 34 30 81 56 102 56 19 0 55 22 71 43 7 9 19 17 27 17 8 0 20 8 27 18 7
9 25 25 39 34 22 14 89 130 89 153 0 4 9 18 19 31 10 13 36 72 56 131 20 60
48 136 61 171 13 34 24 75 24 91 0 16 6 44 14 62 7 19 12 43 10 54 -2 11 1 34
6 50 18 54 40 270 37 363 -1 50 -3 89 -5 88 -7 -7 -15 -57 -22 -131 -5 -44
-16 -125 -25 -180 -9 -55 -19 -129 -22 -165 -3 -36 -9 -70 -14 -75 -4 -6 -10
-26 -12 -45 -2 -19 -14 -66 -26 -104 -11 -37 -21 -74 -21 -82 0 -8 -9 -33 -20
-57 -10 -23 -21 -54 -24 -68 -5 -31 -65 -149 -75 -149 -4 0 -18 -24 -32 -53
-13 -28 -27 -53 -31 -55 -3 -2 -19 -14 -34 -27 -26 -22 -45 -33 -119 -66 -16
-8 -36 -20 -43 -27 -23 -21 -139 -102 -147 -102 -5 0 -23 -11 -41 -25 -18 -14
-37 -25 -43 -25 -5 0 -16 -6 -23 -13 -24 -22 -85 -49 -109 -48 -189 5 -227 8
-248 20 -14 8 -36 17 -50 20 -21 6 -15 10 45 30 101 34 188 78 236 118 23 19
61 48 84 64 23 15 52 37 65 48 13 11 48 39 77 61 29 23 56 49 59 58 7 18 72
100 111 139 12 12 22 30 22 40 0 23 55 168 74 195 8 11 12 27 9 34 -3 8 3 31
13 52 21 43 22 48 28 122 4 52 4 53 -8 25 -7 -16 -16 -50 -20 -73 -3 -24 -13
-51 -21 -59 -8 -8 -15 -30 -15 -50 0 -33 -25 -102 -42 -113 -9 -7 -58 -117
-58 -131 0 -11 -54 -84 -76 -104 -6 -5 -24 -28 -40 -50 -35 -48 -66 -75 -158
-139 -39 -27 -88 -64 -108 -82 -60 -54 -170 -107 -302 -146 -60 -17 -74 -18
-115 -7 -25 7 -48 16 -51 19 -3 4 -24 19 -46 33 l-41 26 14 58 c8 32 23 65 32
73 10 8 32 38 49 65 17 28 45 61 62 73 33 25 40 52 13 52 -13 1 -7 11 22 38
23 20 54 54 69 75 16 20 33 37 38 37 5 0 33 22 61 49 83 77 128 114 187 152
62 41 136 111 145 139 3 10 21 35 40 56 34 37 145 237 145 262 0 7 13 39 29
72 16 32 32 69 36 82 12 41 30 78 37 78 5 0 8 5 8 11 0 6 7 17 15 26 9 8 19
28 22 44 3 16 9 29 14 29 5 0 9 9 9 20 0 11 13 29 29 41 16 12 31 33 34 48 3
15 24 47 47 72 22 24 48 60 57 79 9 19 22 38 28 42 31 19 105 96 105 109 0 9
22 38 50 65 27 27 50 53 50 58 0 6 9 19 20 31 13 14 16 25 10 35 -7 12 -12 11
-29 -4 -12 -11 -21 -29 -21 -41 0 -14 -16 -33 -46 -55 -29 -20 -52 -48 -64
-74 -9 -23 -30 -52 -45 -66 -15 -14 -38 -35 -52 -47 -13 -13 -27 -23 -31 -23
-4 0 -19 -22 -34 -49 -15 -26 -34 -54 -43 -61 -8 -7 -15 -17 -15 -22 0 -6 -23
-44 -50 -85 -28 -41 -50 -80 -50 -87 0 -8 -8 -24 -18 -37 -10 -13 -26 -41 -37
-61 -11 -21 -22 -38 -26 -38 -3 0 -12 -19 -18 -42 -7 -24 -22 -61 -32 -82 -10
-22 -19 -45 -19 -51 0 -9 -13 -36 -67 -140 -6 -11 -17 -33 -24 -48 -7 -16 -32
-50 -56 -75 -23 -26 -46 -56 -49 -66 -11 -33 -66 -86 -111 -106 -24 -10 -46
-26 -49 -34 -3 -8 -31 -32 -62 -55 -31 -22 -75 -56 -96 -76 -21 -20 -44 -39
-51 -43 -12 -7 -90 -106 -193 -245 -30 -40 -70 -107 -90 -150 -20 -42 -39 -77
-43 -77 -16 0 -74 48 -90 75 -62 103 -80 179 -81 343 0 86 4 118 20 161 12 30
26 79 33 110 6 31 20 75 30 99 11 23 24 65 29 93 5 28 23 76 39 107 16 32 32
71 36 87 13 61 59 161 86 189 15 15 41 56 58 90 78 154 120 225 167 276 12 14
32 44 44 67 19 38 300 333 316 333 8 0 108 82 112 93 2 4 18 15 35 24 18 9 43
24 57 35 83 63 231 148 258 148 5 0 25 10 43 23 55 37 389 90 509 80 19 -1 76
-5 127 -8z m686 -269 c-21 -28 -24 -28 -16 2 3 12 12 22 20 22 11 0 10 -5 -4
-24z m-468 -325 c33 0 71 1 85 3 14 1 33 -1 42 -6 19 -9 104 -18 227 -24 46
-2 88 -7 95 -12 6 -4 27 -9 46 -11 19 -2 41 -8 49 -14 13 -11 29 -18 126 -54
27 -10 66 -35 87 -55 20 -21 43 -38 49 -38 7 0 10 -2 7 -5 -3 -3 16 -28 43
-55 54 -55 66 -86 51 -129 -6 -16 -8 -38 -6 -48 3 -11 -5 -31 -20 -48 -15 -17
-29 -38 -32 -47 -3 -10 -9 -18 -13 -18 -5 0 -26 -17 -47 -38 -55 -53 -119
-102 -135 -102 -8 0 -27 -11 -43 -25 -16 -14 -36 -25 -45 -25 -37 -1 -96 -13
-101 -20 -10 -16 -84 -40 -122 -40 -22 0 -49 -5 -60 -11 -22 -12 -87 -14 -163
-4 -65 8 -199 35 -205 41 -2 3 68 3 155 0 123 -4 175 -1 225 11 134 31 206 56
224 77 10 11 21 21 25 21 12 1 97 48 127 71 17 13 36 24 42 24 6 0 16 9 22 19
5 11 25 28 43 40 40 25 71 90 64 134 -9 54 -13 67 -25 79 -7 7 -12 18 -12 25
0 6 -6 16 -12 20 -7 4 -18 17 -24 28 -6 12 -28 24 -52 29 -23 6 -42 13 -42 17
0 4 -13 5 -29 3 -16 -3 -35 1 -42 8 -8 8 -27 15 -42 16 -16 1 -34 5 -40 9 -7
4 -25 8 -42 8 -26 1 -88 24 -147 55 -39 21 -152 29 -223 17 -16 -3 -46 -3 -65
1 -19 5 -51 3 -71 -2 -33 -8 -40 -7 -68 16 -23 20 -40 26 -68 23 -55 -4 -70 4
-44 24 15 11 39 15 83 14 35 -2 90 -2 123 -2z m-128 -96 c23 -16 47 -17 286
-16 57 1 100 -4 123 -14 20 -8 45 -15 55 -15 11 0 19 -4 19 -10 0 -15 40 -32
79 -35 48 -3 89 -14 131 -33 19 -8 57 -19 84 -23 47 -8 96 -40 96 -64 0 -6 9
-18 20 -28 34 -29 26 -78 -21 -134 -71 -83 -90 -103 -103 -103 -8 0 -30 -13
-51 -30 -21 -16 -47 -30 -59 -30 -11 0 -31 -10 -42 -23 -44 -46 -223 -84 -433
-92 -135 -5 -138 -5 -160 19 -21 23 -21 24 -4 29 29 9 142 19 228 22 44 1 91
4 105 7 14 3 45 8 70 12 25 5 54 14 65 20 11 7 34 16 50 20 61 15 225 157 225
195 0 12 10 35 21 51 26 34 21 52 -18 72 -15 8 -47 25 -69 37 -23 12 -59 25
-80 28 -22 3 -46 11 -54 18 -15 13 -121 27 -175 24 -16 -1 -37 -1 -45 -1 -231
6 -288 10 -309 21 -15 8 -49 12 -92 9 l-69 -4 0 38 c0 34 2 37 33 41 63 8 73
7 94 -8z m-79 -106 c20 4 57 3 82 -2 39 -8 112 -12 290 -16 25 0 57 4 72 10
22 9 30 8 43 -5 9 -9 33 -16 54 -16 20 0 54 -9 76 -20 22 -11 44 -20 50 -20
12 -1 66 -27 112 -55 18 -11 31 -27 29 -35 -7 -38 -36 -87 -60 -103 -14 -10
-26 -24 -26 -32 0 -8 -5 -15 -11 -15 -5 0 -27 -13 -47 -29 -20 -17 -59 -36
-87 -43 -27 -7 -52 -15 -55 -19 -20 -23 -189 -42 -277 -29 -38 5 -63 4 -71 -3
-15 -12 -150 -20 -172 -10 -8 3 -18 7 -22 7 -7 1 -31 21 -53 46 -5 6 -19 17
-29 24 -27 18 -14 46 21 46 15 0 46 7 68 15 40 14 40 14 9 15 -45 0 -94 20
-94 36 0 12 10 13 53 7 59 -8 70 -8 148 1 77 9 99 14 113 24 6 5 27 9 46 10
38 2 83 42 74 65 -12 32 -371 22 -382 -11 -4 -14 39 -33 53 -22 24 18 123 30
190 24 69 -8 69 -8 35 -18 -20 -6 -51 -21 -70 -32 -50 -30 -161 -39 -204 -17
-17 10 -35 17 -41 18 -9 0 -9 15 -2 67 6 37 17 39 238 39 128 1 174 -3 203
-15 29 -12 48 -13 87 -6 40 8 62 6 100 -6 60 -20 74 -35 59 -63 -6 -12 -7 -21
-3 -21 23 -1 -43 -40 -68 -40 -15 0 -31 -4 -34 -10 -3 -5 -21 -10 -40 -10 -19
0 -37 -5 -40 -10 -3 -6 -16 -8 -28 -5 -12 3 -49 7 -82 10 -33 3 -61 9 -63 13
-1 5 -35 3 -75 -4 -40 -6 -75 -10 -79 -8 -3 2 -14 1 -24 -3 -34 -13 17 -22 96
-16 93 7 80 7 172 -7 67 -11 83 -10 125 5 26 9 73 23 103 31 68 19 100 47 100
89 0 39 -22 60 -89 85 -41 15 -58 16 -89 8 -26 -8 -65 -7 -136 2 -54 7 -170
13 -257 13 -175 0 -174 -1 -147 64 8 20 12 23 15 12 3 -12 12 -14 41 -10z
m1137 -461 c-4 -84 -35 -212 -63 -266 -11 -20 -31 -57 -43 -81 -13 -25 -34
-56 -46 -70 -13 -14 -23 -31 -23 -38 0 -7 -8 -23 -17 -35 -28 -36 -276 -278
-285 -278 -4 0 -8 -5 -8 -10 0 -6 -15 -25 -33 -43 -18 -17 -43 -47 -56 -64
-33 -48 -41 -40 -24 20 20 72 51 133 83 165 15 15 42 50 60 77 18 28 49 66 69
86 55 54 131 150 131 163 0 7 11 27 25 46 14 19 25 42 25 51 0 10 6 22 13 26
23 14 38 67 33 116 -5 47 -4 47 53 94 32 27 66 63 76 81 10 17 21 32 26 32 4
0 5 -33 4 -72z m-1232 18 c3 -8 28 -23 56 -32 55 -20 59 -34 9 -28 -41 5 -115
74 -79 74 5 0 11 -6 14 -14z m166 -115 c23 -15 -3 -19 -39 -5 l-35 12 30 1
c17 0 36 -3 44 -8z m862 -53 c2 -43 -3 -59 -34 -111 -18 -29 -35 -54 -39 -57
-3 -3 -10 -18 -13 -33 -4 -15 -11 -27 -15 -27 -5 0 -11 -8 -14 -18 -4 -10 -27
-41 -54 -68 -26 -27 -65 -76 -87 -108 -22 -32 -46 -64 -52 -71 -7 -8 -13 -16
-13 -19 0 -3 -22 -38 -49 -78 -32 -48 -51 -89 -55 -118 -4 -25 -13 -55 -21
-67 -9 -13 -14 -45 -14 -84 1 -34 -3 -64 -8 -68 -6 -3 -10 -13 -10 -21 -1 -26
-30 -83 -37 -72 -4 6 -8 30 -11 54 -8 78 -16 118 -30 145 -8 15 -11 31 -8 36
3 5 9 56 14 114 4 57 12 110 17 116 5 7 17 35 27 62 28 79 55 136 86 182 17
24 35 71 44 110 21 98 26 113 37 113 6 0 24 6 41 14 18 8 53 19 79 25 25 6 59
16 75 23 57 23 118 45 131 47 6 0 13 -9 13 -21z m-949 -32 c15 -5 26 -15 26
-24 0 -10 4 -30 9 -47 14 -45 9 -198 -11 -299 -9 -49 -15 -95 -12 -101 2 -6 1
-42 -3 -80 -4 -39 -4 -88 0 -110 4 -22 9 -62 12 -90 3 -27 8 -58 12 -67 7 -17
5 -17 -30 -2 -50 21 -75 37 -75 49 0 5 -14 18 -30 27 -17 9 -30 13 -30 7 0 -6
-5 -7 -11 -3 -6 3 -15 0 -20 -7 -4 -7 -11 -10 -15 -6 -4 4 4 20 18 35 29 30
56 89 63 136 8 54 35 157 47 179 14 25 13 249 -1 307 -5 19 -9 51 -10 71 0 38
4 40 61 25z m153 -41 c55 -4 62 -13 74 -89 l12 -74 -45 -133 c-40 -120 -45
-144 -46 -229 -2 -118 14 -204 46 -252 13 -21 24 -41 24 -46 0 -4 18 -34 40
-67 22 -33 40 -64 40 -68 0 -5 9 -22 21 -38 11 -16 16 -29 10 -29 -6 0 -11 3
-11 8 0 4 -16 16 -35 26 -19 11 -35 23 -35 28 0 4 -6 8 -12 8 -7 1 -37 23 -66
51 -43 39 -60 65 -83 125 -16 42 -29 81 -28 88 1 6 -2 40 -6 76 -5 36 -8 70
-6 75 2 6 4 60 6 120 1 63 9 133 19 165 10 37 15 82 12 138 -4 113 1 135 28
125 11 -4 30 -7 41 -8z m390 -34 c13 -22 -17 -146 -48 -200 -18 -31 -39 -72
-47 -91 -7 -19 -17 -39 -21 -45 -3 -5 -10 -26 -14 -45 -4 -19 -12 -44 -18 -55
-6 -11 -12 -22 -12 -25 -1 -3 -5 -18 -10 -34 -4 -15 -9 -51 -10 -80 -1 -28 -5
-63 -9 -77 -4 -14 -1 -54 7 -90 8 -35 18 -89 22 -119 4 -30 12 -66 17 -80 44
-110 18 -106 -47 7 -156 271 -179 334 -169 471 4 62 39 183 78 274 10 23 16
66 16 112 l0 74 96 1 c53 0 98 2 100 3 8 9 63 7 69 -1z m-8 -693 c-3 -8 -6 -5
-6 6 -1 11 2 17 5 13 3 -3 4 -12 1 -19z m-722 -36 c-2 -12 9 -29 31 -45 29
-24 32 -30 24 -53 -6 -14 -10 -35 -10 -47 0 -12 -7 -35 -15 -51 -8 -15 -15
-35 -15 -43 0 -9 -14 -43 -31 -76 l-31 -61 4 -188 c5 -215 0 -238 -58 -297
-73 -72 -183 -92 -293 -51 -52 18 -111 63 -111 83 0 5 -10 17 -22 27 -20 16
-23 27 -22 87 1 65 3 70 40 110 36 39 154 123 173 123 24 0 138 150 124 164
-3 3 -1 11 4 18 5 7 18 35 28 62 16 44 77 116 97 116 7 0 40 56 38 62 -4 11
36 78 47 78 1 0 0 -8 -2 -18z m-1722 -252 c-13 -13 -63 -23 -63 -13 0 11 52
32 63 25 5 -2 5 -8 0 -12z m-104 -172 c-19 -36 -83 -117 -93 -118 -5 0 0 10
12 23 12 13 22 27 22 31 0 12 62 98 67 93 2 -3 -1 -16 -8 -29z"/>
<path d="M2274 2305 c-3 -8 -4 -20 -2 -27 3 -7 7 -1 10 15 6 29 1 36 -8 12z"/>
<path d="M1996 2103 c-3 -10 -9 -24 -12 -30 -3 -7 -1 -13 4 -13 5 0 13 12 16
26 8 30 2 44 -8 17z"/>
<path d="M1984 2028 c-5 -13 -7 -26 -6 -30 1 -5 -2 -8 -6 -8 -11 0 -35 -70
-31 -90 1 -8 -3 -28 -9 -43 -16 -37 -15 -42 3 -27 8 7 17 28 21 49 4 20 13 54
21 76 15 41 25 95 18 95 -2 0 -7 -10 -11 -22z"/>
<path d="M3185 1790 c-3 -5 1 -10 9 -10 9 0 16 5 16 10 0 6 -4 10 -9 10 -6 0
-13 -4 -16 -10z"/>
</g>
</svg>
