<?xml version="1.0" standalone="no"?>
<!DOCTYPE svg PUBLIC "-//W3C//DTD SVG 20010904//EN"
 "http://www.w3.org/TR/2001/REC-SVG-20010904/DTD/svg10.dtd">
<svg version="1.0" xmlns="http://www.w3.org/2000/svg"
 width="483.000000pt" height="453.000000pt" viewBox="0 0 483.000000 453.000000"
 preserveAspectRatio="xMidYMid meet">
<metadata>
Created by potrace 1.16, written by Peter Selinger 2001-2019
</metadata>
<g transform="translate(0.000000,453.000000) scale(0.100000,-0.100000)"
fill="#000000" stroke="none">
<path d="M4439 4180 c-9 -5 -34 -27 -57 -49 -25 -25 -57 -44 -84 -51 -24 -6
-58 -16 -75 -21 -18 -6 -37 -7 -43 -4 -6 4 -17 2 -24 -4 -8 -7 -48 -9 -109 -6
-126 6 -147 10 -203 40 -26 14 -59 25 -73 25 -14 0 -39 7 -55 15 -16 8 -45 14
-65 12 -30 -2 -36 -6 -39 -28 -2 -15 7 -36 23 -54 l25 -30 -37 -5 c-21 -3 -64
0 -95 7 -88 19 -394 24 -429 6 -32 -16 -33 -20 -20 -55 9 -24 8 -24 -92 -41
-56 -9 -127 -19 -157 -21 -30 -3 -84 -14 -119 -26 -89 -28 -242 -103 -265
-128 -11 -12 -25 -22 -31 -22 -7 0 -15 -6 -18 -14 -3 -8 -19 -17 -35 -21 -34
-7 -54 -43 -46 -83 4 -22 11 -28 31 -27 44 0 36 -20 -14 -34 -27 -8 -61 -22
-78 -32 -16 -9 -61 -27 -100 -39 -51 -17 -86 -36 -130 -74 -33 -28 -62 -53
-65 -56 -3 -3 -24 -18 -47 -33 -45 -29 -55 -57 -30 -87 9 -12 72 -20 72 -10 0
1 14 4 30 6 29 5 28 3 -30 -58 -33 -34 -64 -65 -68 -69 -68 -52 -117 -100
-130 -129 -31 -65 -61 -115 -74 -123 -7 -4 -13 -14 -13 -20 0 -7 -12 -26 -28
-43 -47 -52 -65 -95 -53 -126 13 -34 42 -34 96 2 55 37 282 121 361 133 l41 7
2 -58 c0 -48 5 -61 26 -79 15 -13 35 -23 45 -23 40 0 183 98 305 209 22 20 58
45 80 56 22 11 51 31 64 43 18 18 26 21 31 11 5 -7 6 -17 4 -24 -3 -6 2 -27
10 -47 13 -30 19 -35 38 -31 13 3 33 16 44 29 12 13 24 24 27 24 6 0 34 25
154 143 81 78 116 106 98 76 -4 -5 -2 -23 5 -38 9 -22 18 -28 42 -29 24 -1 46
13 101 61 38 34 86 78 106 98 39 39 112 96 149 117 21 11 23 10 28 -16 8 -39
56 -89 84 -87 12 1 60 38 109 86 100 95 178 166 212 192 25 18 49 23 49 8 0
-5 12 -13 28 -19 29 -9 64 5 129 54 17 13 39 24 47 24 9 0 16 5 16 11 0 15 89
100 130 124 8 4 6 -3 -6 -16 -11 -13 -29 -37 -39 -54 -54 -87 -329 -369 -401
-411 -27 -16 -53 -34 -59 -40 -15 -18 -94 -77 -192 -141 -48 -32 -100 -68
-117 -80 -17 -12 -37 -22 -43 -22 -7 -1 -13 -5 -13 -9 0 -5 -23 -18 -52 -31
-29 -12 -63 -31 -76 -42 -14 -10 -33 -19 -44 -19 -10 0 -21 -7 -24 -15 -3 -8
-16 -17 -27 -21 -12 -4 -48 -22 -80 -40 -32 -19 -62 -32 -66 -29 -4 2 -17 -3
-27 -13 -42 -37 -296 -147 -309 -134 -4 4 -11 -1 -16 -9 -5 -9 -21 -20 -36
-24 -15 -3 -63 -24 -108 -45 -93 -44 -171 -79 -235 -106 -25 -10 -76 -37 -115
-60 -38 -23 -82 -48 -96 -55 -48 -26 -121 -78 -160 -114 -21 -19 -43 -35 -49
-35 -5 0 -10 -4 -10 -10 0 -5 -7 -10 -15 -10 -8 0 -15 -4 -15 -10 0 -5 -7 -10
-15 -10 -8 0 -15 -4 -15 -8 0 -5 -20 -23 -45 -41 -46 -33 -53 -33 -85 -1 -13
13 -101 50 -135 57 -19 4 -85 7 -245 12 -67 2 -225 -23 -244 -38 -6 -5 -31
-15 -56 -22 -44 -12 -223 -117 -260 -151 -11 -10 -23 -18 -27 -18 -27 0 -153
-161 -153 -195 0 -7 -6 -18 -14 -24 -8 -7 -16 -28 -19 -49 -3 -20 -8 -50 -12
-67 -10 -47 -21 -175 -19 -230 1 -52 60 -245 75 -245 4 0 13 -16 20 -35 7 -19
17 -35 21 -35 4 0 8 -5 8 -10 0 -6 30 -49 67 -95 47 -59 88 -98 133 -127 36
-23 70 -47 75 -54 13 -16 163 -61 230 -69 28 -4 59 -9 70 -12 25 -8 114 -7
230 2 50 3 98 6 108 6 9 0 17 4 17 9 0 5 8 11 18 14 10 4 60 28 110 55 51 27
92 47 92 45 0 -4 41 34 139 129 116 113 248 315 265 407 1 3 5 11 9 18 5 7 9
52 9 100 1 78 -3 96 -36 175 -20 48 -36 93 -36 99 0 6 -7 18 -15 27 -8 9 -33
41 -55 71 -21 30 -43 60 -48 65 -4 6 -11 17 -14 25 -3 8 -37 31 -76 51 -51 27
-67 40 -59 48 6 6 17 11 23 11 7 0 16 9 19 20 3 11 11 20 17 20 6 0 27 12 47
28 39 29 67 49 178 124 39 26 74 48 77 48 3 0 16 11 30 23 14 13 31 24 39 24
7 0 38 11 68 25 175 82 210 98 218 98 5 0 29 11 52 25 24 14 50 25 56 25 7 0
42 14 76 30 35 17 69 30 76 30 11 0 138 56 185 81 10 6 27 12 38 14 11 3 25
11 32 19 13 17 105 66 123 66 7 0 13 5 13 10 0 6 6 10 14 10 8 0 21 6 28 13 7
6 22 13 32 15 10 2 25 10 33 18 8 8 19 14 24 14 6 0 25 11 43 25 18 14 38 25
44 25 7 0 12 5 12 10 0 6 12 16 28 23 15 7 52 30 82 53 30 22 63 43 72 47 18
6 153 102 176 124 19 18 52 35 52 27 0 -10 -49 -75 -76 -100 -12 -12 -32 -43
-45 -70 -12 -27 -33 -64 -47 -82 -33 -43 -73 -116 -185 -337 -74 -146 -145
-327 -161 -407 -2 -13 -11 -52 -20 -88 -8 -36 -18 -90 -21 -120 -3 -30 -10
-68 -15 -85 -4 -16 -7 -43 -6 -60 4 -47 -2 -57 -27 -43 -28 15 -40 17 -158 24
-76 5 -107 3 -155 -11 -32 -10 -67 -20 -76 -22 -10 -1 -37 -11 -60 -21 -24
-11 -60 -25 -82 -31 -21 -7 -46 -21 -57 -32 -10 -10 -41 -30 -69 -44 -27 -14
-50 -29 -50 -34 0 -6 -9 -13 -20 -16 -11 -4 -44 -32 -73 -63 -28 -30 -59 -63
-69 -73 -23 -25 -83 -120 -90 -144 -46 -164 -50 -185 -49 -286 0 -85 5 -120
25 -182 29 -89 40 -112 72 -146 13 -14 24 -30 24 -34 0 -12 32 -38 115 -94 39
-27 72 -51 73 -55 2 -5 8 -8 12 -8 5 0 26 -11 46 -25 20 -14 47 -25 60 -25 12
0 26 -5 29 -10 9 -15 85 -51 120 -57 17 -3 38 -9 47 -14 10 -5 35 -9 55 -8 38
2 165 -10 171 -16 2 -2 29 3 60 11 31 7 71 13 88 14 48 0 275 60 291 76 8 8
21 14 29 14 37 0 215 115 283 182 107 107 167 191 191 268 13 41 25 93 27 115
2 22 8 58 13 79 9 40 7 124 -4 186 -14 73 -89 235 -118 254 -10 6 -18 16 -18
23 0 7 -6 13 -13 13 -7 0 -19 9 -27 20 -8 11 -20 20 -26 20 -7 0 -14 6 -17 14
-3 8 -18 21 -34 29 -83 45 -132 67 -149 67 -10 1 -30 7 -44 15 -14 8 -36 15
-50 15 -14 0 -44 7 -66 15 -23 8 -52 12 -65 10 -49 -9 -58 15 -44 110 5 33 8
63 7 68 -1 4 9 54 23 111 14 57 25 111 25 119 0 20 60 176 97 252 79 163 187
365 194 365 5 0 9 6 9 14 0 8 3 16 8 18 11 5 58 80 66 106 4 12 12 22 17 22 5
0 9 6 9 13 0 7 13 26 28 43 16 17 36 47 45 65 9 19 41 61 72 94 30 33 74 85
97 115 23 30 59 73 80 94 21 22 38 44 38 48 0 5 39 65 86 133 106 155 184 309
184 363 0 22 7 57 16 78 9 22 19 53 21 69 3 17 10 39 15 49 9 16 4 25 -25 53
-40 37 -36 36 -58 23z m-595 -201 c47 -20 131 -32 241 -32 51 0 105 9 232 38
21 5 21 3 -10 -47 -30 -50 -112 -136 -212 -223 -26 -22 -52 -45 -58 -51 -34
-30 -48 -31 -78 -3 -43 41 -83 26 -143 -51 -6 -8 -29 -28 -51 -44 -22 -17 -42
-33 -45 -36 -3 -3 -40 -36 -83 -73 -68 -59 -80 -66 -93 -53 -7 8 -14 18 -14
22 0 4 -12 18 -27 31 -20 20 -33 24 -57 19 -17 -4 -37 -14 -43 -23 -7 -9 -13
-13 -13 -7 0 5 -5 1 -11 -8 -5 -10 -35 -34 -67 -54 -31 -21 -80 -60 -107 -88
-28 -28 -60 -57 -73 -64 -20 -11 -22 -10 -22 10 -1 33 -42 61 -74 49 -13 -6
-28 -16 -33 -25 -10 -18 -235 -226 -245 -226 -3 0 -1 13 5 30 10 26 9 32 -8
45 -24 19 -95 13 -107 -8 -4 -9 -29 -29 -56 -46 -26 -17 -67 -44 -92 -61 -25
-16 -48 -30 -52 -30 -4 0 -22 -15 -41 -32 -51 -51 -127 -115 -169 -144 -39
-27 -61 -27 -38 1 7 8 10 15 6 15 -3 0 0 16 8 35 22 51 6 90 -32 81 -15 -4
-54 -10 -87 -15 -33 -5 -71 -13 -85 -19 -14 -6 -59 -20 -100 -32 -41 -12 -85
-26 -98 -31 -33 -13 -47 -12 -34 4 5 6 22 35 38 62 15 28 48 69 73 93 25 24
76 71 113 105 191 177 189 174 186 207 -3 37 -11 43 -49 42 -16 0 -31 3 -34 8
-6 10 39 40 63 40 10 0 22 4 27 8 6 5 37 19 70 31 33 12 74 28 90 35 37 16 89
32 132 41 18 4 35 11 38 16 4 5 15 9 25 9 37 0 37 93 0 105 -9 3 -28 14 -40
25 l-22 19 43 27 c58 36 140 74 162 74 10 0 34 7 55 16 20 9 51 18 67 20 17 3
55 9 85 14 63 10 206 24 235 23 11 -1 38 -2 61 -3 55 -3 84 14 84 48 0 16 -4
32 -9 37 -18 19 195 18 250 0 42 -14 62 -15 141 -5 95 11 113 19 123 51 8 23
3 23 59 -2z m-2426 -1955 c66 -4 108 -12 117 -20 7 -8 20 -14 28 -14 8 0 21
-8 30 -18 16 -17 15 -20 -19 -51 -62 -54 -69 -55 -93 -15 -12 19 -21 43 -21
53 0 12 -14 25 -36 36 -20 9 -36 15 -37 13 -1 -1 -13 -15 -26 -30 l-24 -28 19
-56 c27 -81 142 -186 225 -207 40 -10 83 33 74 74 -4 17 -13 33 -21 36 -23 9
-17 23 31 70 44 43 46 44 84 33 48 -13 82 -30 105 -53 9 -9 25 -22 34 -29 20
-15 65 -81 83 -120 7 -16 15 -28 19 -28 4 0 21 -35 38 -77 30 -76 47 -173 32
-173 -5 0 -6 -9 -3 -20 3 -11 1 -20 -5 -20 -6 0 -9 -9 -7 -20 5 -24 -55 -147
-90 -184 -14 -15 -25 -31 -25 -36 0 -4 -9 -19 -20 -32 -11 -12 -28 -32 -37
-44 -77 -92 -184 -184 -233 -199 -14 -4 -27 -11 -30 -15 -3 -3 -34 -21 -69
-38 -54 -27 -80 -33 -160 -38 -83 -5 -214 3 -316 21 -41 7 -106 36 -129 57
-11 10 -24 18 -28 18 -33 0 -200 184 -241 265 -35 70 -77 212 -77 262 0 55 17
197 27 223 4 8 6 18 5 22 -1 4 22 42 51 85 36 55 66 87 100 108 27 17 75 49
108 72 32 24 89 52 126 64 38 12 73 26 79 30 6 5 31 12 55 15 24 4 64 10 89
14 25 5 54 7 65 5 11 -2 66 -7 123 -11z m1727 -376 c17 -6 49 -19 72 -30 39
-17 41 -20 33 -47 -4 -16 -6 -32 -3 -35 3 -3 3 -12 0 -20 -5 -13 -12 -14 -32
-6 -15 6 -33 17 -41 25 -9 8 -30 15 -48 15 -60 0 -70 -78 -14 -114 29 -18 128
-47 139 -40 4 2 31 -3 59 -12 33 -11 71 -15 110 -12 33 2 60 0 60 -4 0 -23 59
28 64 55 8 39 -4 52 -62 67 -53 15 -84 13 -94 -3 -12 -19 -21 1 -25 52 -2 36
1 51 12 55 9 3 20 17 25 31 8 21 13 24 27 17 10 -5 52 -15 93 -22 41 -7 81
-16 90 -20 8 -5 36 -18 62 -29 26 -11 51 -28 57 -38 6 -10 11 -14 11 -10 0 10
54 -26 93 -62 33 -30 94 -152 103 -206 1 -11 7 -46 13 -78 7 -37 7 -67 1 -83
-6 -14 -10 -37 -10 -52 0 -38 -23 -132 -32 -132 -5 0 -8 -12 -8 -28 0 -29 -66
-121 -87 -122 -7 0 -13 -4 -13 -9 0 -25 -177 -171 -207 -171 -3 0 -14 -6 -22
-14 -23 -20 -178 -83 -236 -95 -27 -6 -79 -12 -115 -14 -36 -1 -68 -6 -71 -11
-9 -12 -63 -11 -194 4 -99 11 -159 28 -205 60 -17 11 -67 31 -89 36 -8 1 -26
12 -40 23 -14 12 -39 27 -56 35 -84 38 -182 162 -204 256 -14 61 -11 297 5
321 5 8 9 19 10 24 7 42 66 134 121 190 63 64 165 138 191 138 6 0 12 4 12 9
0 5 17 16 38 25 20 10 44 22 52 29 31 23 135 53 208 58 24 2 46 6 49 9 7 7 57
-1 98 -15z"/>
</g>
</svg>
