<?xml version="1.0" standalone="no"?>
<!DOCTYPE svg PUBLIC "-//W3C//DTD SVG 20010904//EN"
 "http://www.w3.org/TR/2001/REC-SVG-20010904/DTD/svg10.dtd">
<svg version="1.0" xmlns="http://www.w3.org/2000/svg"
 width="551.000000pt" height="455.000000pt" viewBox="0 0 551.000000 455.000000"
 preserveAspectRatio="xMidYMid meet">
<metadata>
Created by potrace 1.16, written by Peter Selinger 2001-2019
</metadata>
<g transform="translate(0.000000,455.000000) scale(0.100000,-0.100000)"
fill="#000000" stroke="none">
<path d="M2843 4435 c-13 -9 -30 -42 -43 -87 -12 -40 -34 -93 -47 -117 l-26
-44 -18 48 c-10 27 -24 52 -31 56 -11 7 -67 -15 -78 -31 -3 -4 -32 -24 -65
-45 -33 -21 -85 -60 -116 -87 -37 -31 -62 -46 -73 -42 -9 3 -16 2 -16 -4 0 -5
-11 -7 -25 -4 -14 2 -25 8 -25 12 0 4 -17 7 -37 7 -21 0 -54 3 -73 7 -23 5
-47 2 -70 -7 -19 -9 -47 -13 -61 -10 -15 3 -37 -1 -50 -8 -34 -18 -102 -22
-114 -6 -5 7 -31 30 -57 51 -40 32 -53 37 -80 33 -46 -7 -130 -37 -148 -53 -9
-7 -34 -26 -57 -41 -42 -28 -136 -143 -152 -185 -9 -24 -10 -23 -25 25 -2 8
-28 26 -57 41 -41 22 -68 28 -128 31 -42 1 -84 -2 -94 -7 -10 -5 -30 -10 -44
-11 -14 -1 -31 -11 -37 -22 -31 -55 -77 -71 -145 -51 -46 13 -50 13 -70 -5
-26 -25 -27 -73 -3 -97 11 -11 25 -40 33 -65 7 -26 17 -47 21 -47 4 0 8 -5 8
-11 0 -5 11 -34 24 -62 54 -116 68 -151 73 -182 5 -30 3 -33 -25 -37 -22 -3
-37 3 -61 24 -17 15 -31 30 -31 33 0 24 -114 127 -165 149 -39 17 -187 14
-242 -6 -85 -29 -110 -23 -180 43 -32 30 -44 35 -70 32 -47 -7 -60 -50 -32
-112 24 -55 54 -88 94 -106 49 -21 113 -83 133 -128 10 -23 25 -49 33 -57 29
-30 121 -199 125 -230 1 -8 9 -44 18 -80 9 -36 21 -112 26 -170 5 -58 13 -125
19 -150 28 -121 29 -129 15 -147 -7 -10 -14 -15 -14 -10 0 10 -65 -25 -151
-81 -46 -30 -76 -59 -98 -93 -17 -28 -31 -55 -31 -60 0 -5 -4 -9 -9 -9 -16 0
-23 -52 -11 -81 7 -16 25 -32 43 -39 18 -6 45 -18 60 -26 16 -8 34 -14 41 -14
7 0 20 -8 29 -17 9 -10 56 -38 104 -63 48 -25 90 -48 93 -51 3 -4 33 -20 67
-38 34 -17 77 -44 95 -59 43 -38 124 -92 136 -92 14 0 236 -227 269 -274 16
-22 63 -76 106 -119 42 -44 77 -84 77 -88 0 -5 24 -25 53 -43 28 -19 95 -78
146 -130 52 -53 98 -96 101 -96 4 0 18 -9 31 -21 48 -42 165 -103 249 -130
108 -35 158 -54 166 -62 4 -4 16 -7 26 -7 10 0 18 -4 18 -9 0 -4 21 -13 48
-19 26 -5 85 -21 132 -35 47 -14 112 -30 145 -36 33 -6 62 -16 63 -21 2 -6 9
-10 16 -10 9 0 12 -22 10 -82 -2 -46 -5 -94 -8 -108 -18 -81 -32 -123 -48
-139 -9 -11 -23 -33 -30 -50 -8 -19 -27 -38 -48 -49 -38 -19 -50 -54 -30 -92
20 -37 63 -26 120 32 28 28 57 66 65 85 8 18 22 49 31 68 8 19 13 39 10 43 -3
5 2 19 12 33 9 13 15 36 13 52 -1 15 2 33 7 40 6 8 6 36 0 80 -9 59 -8 70 7
87 10 11 33 22 51 26 19 3 34 9 34 13 0 4 7 8 15 8 11 0 13 -6 9 -21 -4 -12
-6 -40 -5 -63 1 -24 -3 -62 -10 -85 -22 -81 -1 -245 42 -330 5 -10 9 -25 9
-34 0 -27 40 -74 63 -74 30 1 57 23 57 46 0 10 -14 46 -31 79 -28 56 -38 87
-55 175 -8 42 -8 44 0 95 16 113 32 152 63 158 13 2 26 1 28 -3 5 -8 94 -25
110 -21 5 2 69 4 141 6 73 2 140 7 150 13 11 5 39 12 64 16 25 4 73 23 108 41
34 19 69 35 77 35 8 0 49 18 91 40 43 22 83 40 89 40 6 0 20 8 31 18 21 19 48
39 109 79 22 14 61 47 86 72 51 51 100 91 112 91 4 0 7 6 7 14 0 8 16 37 35
65 19 28 35 57 35 64 0 20 47 166 58 180 5 7 15 33 22 60 7 26 17 50 21 53 5
3 9 15 9 27 1 21 21 57 33 57 3 0 22 11 41 24 20 13 52 27 71 30 20 4 52 16
71 27 19 10 43 19 53 19 10 0 33 8 52 17 29 14 58 36 166 123 7 6 15 10 18 10
26 -3 142 140 156 193 6 23 14 47 19 52 4 6 11 26 15 45 4 19 11 40 16 46 17
21 57 197 59 259 1 33 3 79 4 103 1 24 -4 52 -12 63 -17 25 -57 24 -83 -2 -17
-17 -36 -22 -93 -25 -39 -2 -88 -6 -108 -9 -42 -7 -41 -15 -13 101 31 124 153
343 193 344 7 0 28 11 45 24 40 31 184 79 217 72 36 -7 57 13 57 54 0 44 -10
57 -50 66 -17 3 -38 10 -47 14 -39 20 -106 30 -216 31 -65 0 -125 5 -131 11
-8 6 -24 7 -40 2 -16 -4 -40 -9 -55 -10 l-26 -2 14 40 c7 21 23 52 33 67 11
16 18 30 15 33 -2 3 2 11 11 18 8 7 15 18 15 24 0 6 17 25 37 41 65 54 73 65
73 94 0 37 -22 55 -60 48 -16 -4 -32 -2 -35 3 -4 6 -11 7 -17 4 -21 -13 -80
-4 -115 17 -39 24 -52 52 -60 124 -3 29 -13 57 -23 67 -10 10 -21 26 -25 37
-5 17 -10 18 -31 11 -13 -5 -24 -7 -24 -4 0 4 -11 -1 -25 -10 -17 -11 -37 -15
-62 -11 -28 4 -65 -4 -138 -29 -101 -35 -115 -36 -115 -11 0 24 -46 119 -64
134 -10 8 -26 31 -36 51 -10 20 -34 45 -54 55 -20 11 -36 23 -36 27 0 35 -188
152 -268 168 -29 5 -60 14 -70 19 -15 8 -96 27 -162 37 -28 4 -165 5 -225 1
-50 -3 -61 -10 -68 -44 -6 -32 1 -53 17 -53 15 0 62 -48 54 -55 -3 -4 -20 7
-37 22 -17 16 -70 49 -118 73 -103 53 -112 59 -181 127 -59 59 -87 71 -119 48z
m105 -168 c6 -7 54 -35 108 -62 53 -28 111 -61 127 -75 54 -44 111 -104 128
-134 15 -27 15 -31 -10 -87 -34 -79 -60 -88 -116 -44 -22 18 -55 40 -72 49
-18 9 -33 21 -33 26 0 6 -6 10 -13 10 -16 0 -77 100 -100 165 -20 54 -47 145
-47 158 0 11 17 8 28 -6z m-59 -39 c7 -23 15 -52 17 -63 2 -12 24 -67 48 -123
l45 -102 -37 -1 c-20 0 -48 -2 -61 -5 -39 -7 -91 16 -133 58 -36 37 -49 68
-28 68 6 0 10 8 10 18 0 9 18 37 40 62 21 25 46 64 55 88 9 23 20 42 24 42 4
0 14 -19 20 -42z m698 -18 c109 -25 159 -44 246 -90 64 -34 201 -153 189 -165
-3 -3 -1 -5 4 -5 15 0 54 -74 59 -109 2 -17 6 -35 10 -41 4 -6 -8 -10 -30 -10
-46 0 -125 -20 -125 -31 0 -5 -5 -9 -10 -9 -14 0 -93 -58 -103 -76 -4 -8 -11
-14 -16 -14 -9 0 -37 66 -45 107 -3 18 -17 50 -31 72 -14 22 -30 61 -37 86 -7
25 -20 54 -28 63 -9 9 -19 24 -23 32 -29 59 -60 96 -122 145 -78 62 -81 65
-51 65 14 0 65 -9 113 -20z m-145 -42 c13 -7 27 -18 33 -24 5 -6 31 -27 57
-48 28 -22 57 -58 74 -91 15 -30 31 -55 36 -55 4 0 8 -8 8 -17 1 -10 9 -36 20
-58 11 -22 19 -48 20 -58 0 -10 7 -31 15 -47 9 -17 16 -51 17 -77 1 -27 8 -56
16 -65 13 -15 12 -17 -9 -15 -13 0 -27 5 -30 10 -4 5 -35 16 -70 24 -117 26
-173 33 -210 23 -65 -18 -82 -11 -106 41 -20 45 -20 49 -5 68 45 53 66 85 69
100 1 8 16 27 34 42 24 20 30 31 25 45 -4 10 -9 48 -10 84 -2 36 -7 80 -11 98
-8 35 -5 38 27 20z m-837 -40 c-4 -18 -13 -42 -20 -54 -34 -53 -46 -129 -41
-265 3 -105 9 -147 26 -194 12 -33 24 -69 27 -80 2 -11 9 -29 13 -40 21 -48
52 -156 47 -161 -3 -3 -18 1 -35 10 -19 10 -42 13 -66 9 -30 -5 -42 -1 -61 17
-13 12 -27 34 -30 49 -4 14 -21 53 -38 86 -35 65 -72 92 -143 100 -109 14
-135 27 -124 65 4 15 14 38 21 51 7 13 12 30 11 37 -2 6 1 12 5 12 5 0 14 13
21 28 16 37 140 172 158 172 8 0 14 5 14 11 0 15 129 136 170 158 48 27 53 26
45 -11z m-762 -168 c81 -77 102 -110 112 -170 7 -41 48 -138 64 -150 12 -9 33
-69 27 -78 -7 -11 28 -29 74 -37 19 -3 58 -10 85 -15 28 -5 66 -12 86 -16 33
-5 40 -13 83 -90 25 -47 46 -89 46 -94 0 -5 11 -21 25 -36 22 -23 32 -27 77
-25 28 1 65 -3 83 -9 44 -15 135 -135 135 -180 0 -11 10 -20 30 -23 16 -4 42
-20 57 -38 16 -17 41 -43 58 -57 62 -55 146 -144 174 -186 34 -49 43 -125 20
-166 -7 -14 -14 -32 -16 -40 -1 -8 -3 -27 -4 -42 -4 -35 -22 -42 -49 -18 -19
16 -23 32 -25 92 -1 40 -10 90 -19 110 -9 21 -16 47 -16 58 0 11 -18 38 -40
59 -45 43 -87 54 -197 52 -59 -1 -63 0 -69 24 -3 14 -10 25 -14 25 -8 0 -59
79 -102 158 -16 30 -44 68 -62 85 -37 37 -91 77 -103 77 -5 0 -14 9 -21 20
-10 16 -22 20 -53 18 -47 -2 -53 -9 -54 -63 -2 -46 -24 -143 -34 -149 -4 -3
-17 15 -30 39 -13 25 -31 47 -40 50 -9 2 -27 15 -41 27 -27 25 -73 48 -95 48
-8 0 -36 23 -62 51 -29 31 -69 61 -100 75 -46 21 -123 86 -123 104 0 4 -12 12
-27 19 -16 7 -58 30 -94 52 -60 36 -72 40 -139 40 -44 1 -100 9 -139 21 -36
11 -90 20 -119 19 -66 -1 -105 15 -162 68 -25 22 -49 41 -53 41 -5 0 -7 6 -4
13 2 6 0 20 -5 30 -6 12 -5 19 6 23 9 3 29 24 46 47 16 22 38 42 47 44 49 8
68 12 73 13 35 13 116 -14 146 -48 12 -14 25 -45 28 -72 8 -57 34 -85 71 -76
14 4 30 17 35 29 33 82 45 107 50 107 3 0 6 9 7 20 1 11 9 27 17 36 9 8 16 24
16 34 0 11 11 25 24 32 31 17 96 75 96 86 0 5 21 13 48 18 58 12 70 5 165 -86z
m823 0 c11 -13 36 -40 57 -62 20 -21 37 -42 37 -47 0 -17 55 -22 140 -12 106
12 167 1 225 -39 52 -35 86 -78 114 -140 27 -59 26 -85 -4 -118 -14 -15 -25
-33 -25 -41 0 -17 -59 -81 -75 -81 -16 0 -118 -71 -140 -98 -11 -14 -33 -44
-50 -68 -27 -39 -94 -94 -114 -94 -8 0 -34 28 -83 88 -9 11 -14 23 -11 26 4 3
2 6 -3 6 -5 0 -11 11 -12 25 -1 14 -9 39 -17 56 -9 16 -25 60 -36 97 -11 37
-29 85 -40 108 -10 22 -19 49 -19 60 0 10 -7 27 -14 37 -10 13 -13 55 -11 172
2 128 5 159 20 181 l17 27 13 -30 c7 -17 21 -41 31 -53z m-453 40 c21 -4 40
-10 43 -12 2 -3 -11 -21 -31 -41 -19 -19 -35 -38 -35 -42 0 -4 -10 -21 -22
-38 -28 -38 -44 -65 -57 -94 -5 -11 -14 -24 -20 -27 -15 -9 -39 32 -47 80 -3
23 -18 67 -34 98 -15 31 -24 59 -20 61 4 2 27 7 51 11 24 4 51 11 59 15 8 5
29 6 45 3 17 -3 47 -10 68 -14z m2267 -233 c0 -5 5 -5 10 -2 6 3 10 1 10 -4 0
-6 8 -11 18 -11 21 0 37 -24 51 -77 11 -42 23 -56 85 -103 34 -26 64 -35 114
-33 23 1 6 -22 -29 -38 -50 -23 -120 -45 -243 -73 -61 -14 -112 -29 -115 -33
-3 -5 -22 -17 -41 -27 -164 -90 -336 -159 -553 -221 -81 -23 -90 -24 -197 -30
-118 -6 -142 -11 -199 -37 -89 -40 -217 -158 -235 -216 -10 -30 -27 -28 -56
10 -14 18 -38 44 -53 58 -16 14 -51 46 -78 72 l-50 47 30 53 c17 29 39 59 51
66 11 7 20 19 20 28 0 29 40 72 105 113 35 23 68 41 72 41 19 0 64 47 66 68 1
12 6 22 13 22 6 0 16 17 22 38 8 27 24 46 59 69 l48 33 96 -9 c53 -5 110 -16
127 -25 31 -16 104 -22 153 -14 15 3 54 34 92 72 85 86 109 96 232 92 90 -3
155 8 155 25 0 4 17 13 38 19 20 6 46 15 57 20 38 17 125 21 125 7z m-3471
-135 c58 -54 99 -71 172 -70 43 0 77 -6 99 -17 22 -11 69 -20 135 -24 97 -6
103 -8 166 -48 36 -24 69 -43 73 -43 5 0 25 -18 45 -39 20 -21 55 -49 76 -61
22 -12 69 -46 105 -75 36 -29 81 -60 100 -70 30 -15 55 -33 107 -75 7 -6 16
-10 21 -10 12 0 40 -66 47 -110 6 -36 -7 -66 -64 -154 l-24 -37 -28 27 c-16
15 -29 32 -29 37 0 10 -71 100 -82 105 -5 2 -8 8 -8 13 0 19 -147 151 -190
170 -61 27 -179 43 -227 30 -45 -13 -48 -11 -115 88 -58 85 -82 113 -101 118
-6 1 -39 8 -72 13 -33 6 -67 15 -76 19 -8 5 -30 8 -47 6 -25 -2 -33 2 -38 19
-4 11 -15 32 -25 45 -11 13 -19 33 -19 45 0 12 -15 44 -33 72 -19 28 -37 61
-40 73 -6 22 -5 23 16 4 11 -10 37 -33 56 -51z m-351 -165 c12 -6 22 -15 22
-21 0 -6 8 -16 19 -23 10 -6 28 -32 40 -56 12 -25 28 -48 36 -51 8 -3 15 -11
15 -18 1 -7 11 -26 25 -42 29 -36 76 -40 106 -8 11 12 23 22 27 23 29 3 46 10
63 25 22 20 49 21 150 10 86 -10 130 -44 172 -135 17 -37 30 -73 29 -81 0 -9
13 -22 29 -29 26 -11 38 -11 84 3 29 10 66 18 82 18 73 2 253 -88 253 -127 0
-8 4 -15 9 -15 5 0 23 -23 41 -50 18 -28 40 -56 50 -63 20 -14 63 -91 67 -121
2 -10 -1 -24 -6 -30 -13 -16 -61 -160 -61 -185 0 -11 -4 -22 -9 -25 -5 -3 -7
-46 -4 -96 4 -89 -2 -105 -27 -75 -43 51 -262 84 -402 61 -37 -6 -51 -5 -62 7
-8 8 -12 17 -9 20 3 4 2 14 -2 24 -5 10 -7 24 -6 32 1 8 -2 10 -10 5 -8 -4
-10 -3 -5 4 8 13 -5 42 -29 66 -9 8 -27 40 -40 70 -18 42 -35 62 -67 82 -24
15 -45 30 -48 34 -3 4 -19 15 -37 23 -53 28 -230 211 -255 264 -31 66 -86 151
-130 198 -20 22 -45 52 -57 66 -22 28 -154 123 -192 138 -13 5 -44 24 -68 41
-40 29 -42 33 -26 43 47 26 170 23 233 -6z m4055 -44 c-11 -29 -36 -67 -54
-80 -9 -7 -22 -36 -29 -63 -10 -40 -16 -50 -28 -45 -8 3 -18 1 -22 -5 -4 -6
-42 -17 -86 -24 -43 -8 -95 -20 -114 -27 -62 -23 -196 -98 -220 -124 -13 -14
-28 -25 -34 -25 -11 0 -81 -104 -103 -152 -10 -24 -16 -27 -45 -22 -18 4 -48
13 -67 20 -18 8 -53 15 -78 16 -24 1 -46 5 -49 9 -3 5 -31 6 -62 2 -31 -3 -84
-7 -117 -8 -33 -1 -69 -5 -80 -8 -11 -4 -38 -11 -61 -16 -63 -16 -205 -86
-243 -120 -26 -24 -37 -28 -48 -20 -18 15 -16 33 6 70 11 17 17 38 14 45 -3 8
-1 14 4 14 6 0 18 16 29 35 20 38 78 89 117 104 13 5 40 20 60 34 31 21 52 25
149 31 62 4 129 12 148 17 19 4 73 18 120 30 110 27 223 65 280 94 25 12 63
28 85 35 22 7 54 22 70 33 17 12 42 28 56 38 14 9 46 23 70 30 24 7 48 16 54
21 5 4 19 8 32 8 13 0 23 5 23 11 0 6 16 9 38 8 21 -2 42 0 47 3 6 3 35 11 65
19 30 7 59 16 65 21 13 12 15 10 8 -9z m-4228 -65 c139 -73 274 -197 320 -294
13 -28 31 -57 40 -64 8 -7 15 -17 15 -22 0 -18 68 -113 112 -158 24 -25 71
-67 104 -95 32 -27 61 -52 64 -55 3 -3 21 -14 40 -25 46 -25 62 -45 108 -140
74 -151 77 -175 23 -211 -49 -32 -82 -27 -144 20 -56 42 -222 112 -337 142
-30 8 -62 17 -70 21 -8 3 -22 5 -31 4 -13 -1 -19 10 -24 48 -4 28 -12 49 -18
48 -6 -1 -14 21 -19 48 -4 28 -13 58 -18 67 -6 10 -10 43 -10 74 0 63 -18 241
-27 264 -4 8 -7 17 -8 20 -14 38 -84 173 -104 200 -44 57 -91 146 -74 138 5
-2 31 -15 58 -30z m4563 -197 c22 -1 31 -5 26 -12 -6 -10 -106 -59 -129 -63
-5 -1 -15 -4 -20 -8 -6 -3 -28 -9 -50 -13 -41 -8 -109 -38 -135 -60 -8 -7 -44
-23 -80 -35 -47 -17 -80 -37 -120 -75 -30 -29 -70 -60 -88 -69 -18 -9 -48 -39
-67 -65 -20 -27 -65 -75 -102 -107 -37 -33 -93 -85 -125 -117 -33 -31 -74 -64
-93 -71 -19 -8 -52 -33 -72 -54 -21 -22 -57 -49 -80 -61 -24 -12 -49 -34 -57
-49 -15 -28 -87 -113 -193 -224 -30 -32 -52 -58 -49 -58 3 0 -5 -19 -19 -42
-14 -24 -39 -68 -57 -98 l-31 -55 -46 46 c-25 25 -56 49 -68 53 -22 7 -39 39
-35 63 5 22 -26 112 -49 146 -26 39 -78 87 -93 87 -6 0 -25 13 -42 29 -40 36
-60 122 -37 157 8 12 16 42 18 67 3 24 9 55 14 68 11 30 67 100 73 93 3 -3 18
9 34 26 16 16 32 30 36 30 15 0 88 35 88 42 0 4 16 10 35 14 19 3 35 10 35 14
0 14 55 29 110 29 30 0 73 5 95 10 63 16 158 2 305 -44 59 -19 89 -16 96 10
27 94 89 180 167 232 20 14 37 29 37 33 0 9 43 26 87 35 18 4 36 12 40 18 5 7
19 13 33 15 14 1 48 4 75 7 45 4 121 14 152 21 6 1 29 8 50 15 21 7 44 12 51
11 6 -2 12 1 12 5 0 7 154 9 268 4z m-2712 -133 c-13 -203 -7 -418 14 -472 4
-12 16 -63 25 -112 19 -104 30 -137 83 -259 54 -123 125 -241 180 -301 10 -10
39 -50 64 -89 26 -38 59 -82 75 -97 16 -14 35 -45 43 -67 7 -23 17 -41 22 -41
4 0 7 -3 6 -7 -2 -11 24 -96 33 -109 12 -15 41 -145 34 -152 -6 -6 -29 23 -61
77 -11 20 -38 45 -60 56 -21 11 -40 23 -42 28 -2 4 -12 7 -23 7 -12 0 -19 7
-19 18 0 10 -5 23 -11 29 -6 6 -13 33 -15 60 -8 122 -11 127 -85 201 -41 41
-81 72 -97 75 -15 3 -69 17 -120 32 l-94 26 -39 -20 -38 -20 -26 33 c-14 18
-25 38 -25 44 0 6 -9 14 -20 17 -11 4 -18 10 -16 14 3 4 -13 27 -34 50 -22 24
-40 49 -40 56 0 8 -5 17 -11 21 -6 3 -8 15 -5 27 3 11 -4 38 -15 60 -10 23
-19 53 -19 68 0 15 -4 30 -9 33 -10 6 -9 24 1 41 3 6 9 44 13 85 4 41 11 80
16 86 6 7 9 16 7 20 -1 5 4 30 12 57 10 33 20 47 32 47 12 0 27 20 46 63 16
34 36 68 45 76 9 7 17 20 17 27 0 8 5 14 11 14 6 0 9 6 6 14 -3 8 5 26 17 39
13 14 32 52 42 84 9 32 26 70 36 86 11 15 17 27 13 27 -3 0 -3 5 0 10 3 6 13
10 21 10 13 0 14 -13 10 -72z m94 21 c0 -5 23 -44 50 -88 45 -70 49 -81 39
-104 -9 -19 -8 -31 3 -53 23 -48 59 -59 185 -56 104 2 113 1 132 -19 31 -33
52 -120 51 -207 -2 -100 2 -132 16 -132 7 0 14 -7 18 -15 3 -8 17 -15 31 -15
14 0 25 -5 25 -11 0 -7 10 -9 25 -7 26 5 25 6 39 -82 3 -19 17 -48 31 -64 14
-16 25 -32 25 -36 0 -8 52 -34 63 -32 4 1 7 -2 7 -7 0 -5 8 -12 18 -15 21 -7
43 -72 49 -151 5 -57 8 -62 52 -95 25 -20 64 -44 86 -54 53 -23 77 -57 79
-114 2 -50 -14 -134 -31 -167 -16 -29 -36 -78 -39 -93 -1 -8 -10 -22 -18 -31
-9 -10 -16 -23 -16 -30 0 -25 -51 -92 -130 -169 -73 -72 -85 -82 -97 -82 -7 0
-16 -6 -20 -14 -8 -14 -94 -49 -101 -41 -7 6 -21 90 -38 215 -10 78 -29 157
-59 247 -48 142 -73 189 -128 240 -19 18 -42 49 -52 69 -10 21 -22 43 -26 48
-60 74 -113 146 -126 175 -10 20 -22 41 -28 47 -9 9 -54 103 -76 159 -32 81
-51 146 -56 189 -3 28 -9 58 -13 66 -10 19 -21 80 -26 145 -10 133 -2 392 13
418 5 9 43 -21 43 -34z m2407 -81 c-14 -18 -34 -53 -45 -78 -11 -25 -28 -65
-40 -90 -11 -25 -26 -67 -33 -94 -7 -28 -23 -72 -36 -98 -22 -46 -25 -48 -66
-49 -23 -1 -57 -1 -75 0 -18 2 -39 -3 -47 -9 -8 -7 -30 -10 -49 -8 -25 3 -38
-1 -48 -14 -7 -10 -18 -18 -24 -18 -7 0 -19 -6 -26 -14 -8 -7 -23 -16 -35 -20
-21 -7 -96 -97 -105 -125 -3 -11 -19 -14 -64 -12 -32 1 -63 2 -69 2 -5 0 -28
-4 -50 -10 -73 -19 -79 -14 -36 27 54 50 63 57 97 75 16 9 46 32 67 51 21 20
42 36 47 36 5 0 16 12 26 28 9 15 48 54 86 86 39 33 80 74 92 92 11 18 37 42
58 54 20 11 57 40 83 64 45 43 78 62 215 124 108 49 114 49 77 0z m113 -505
c0 -13 -86 -112 -97 -113 -7 0 -13 -7 -13 -15 0 -22 -63 -110 -102 -142 -18
-16 -44 -41 -57 -56 -21 -25 -163 -106 -201 -115 -8 -2 -29 -15 -47 -28 -17
-13 -36 -24 -42 -24 -5 0 -14 -6 -18 -13 -4 -7 -35 -28 -68 -46 -33 -18 -73
-47 -90 -65 -79 -85 -135 -157 -171 -221 -21 -38 -45 -79 -51 -90 -7 -11 -22
-40 -34 -65 -20 -41 -64 -105 -97 -139 -7 -8 -21 -26 -30 -40 -28 -43 -35 -52
-82 -100 -60 -62 -112 -106 -141 -121 -13 -7 -26 -16 -29 -19 -10 -12 -70 -51
-78 -51 -5 0 -15 -6 -21 -14 -6 -7 -28 -16 -47 -19 -20 -4 -44 -13 -53 -21
-30 -27 -175 -94 -241 -111 -36 -9 -73 -21 -82 -26 -10 -5 -38 -9 -63 -9 l-44
0 20 46 c11 26 17 49 15 52 -9 9 14 42 29 42 8 0 15 5 15 10 0 6 7 10 15 10 8
0 15 5 15 10 0 6 7 10 15 10 8 0 15 5 15 11 0 5 5 7 10 4 6 -3 10 -2 10 2 0 5
12 16 28 25 15 9 47 38 72 63 25 26 68 70 97 99 58 57 123 151 123 178 0 10 4
18 10 18 28 0 102 220 101 303 0 39 3 47 19 47 23 0 33 14 37 53 2 15 8 37 13
48 6 11 9 23 6 28 -3 5 6 21 19 37 14 16 28 39 31 52 4 12 17 25 30 28 13 3
22 10 19 14 -13 20 147 156 225 191 14 6 44 20 66 31 34 16 62 20 147 20 90
-1 106 2 113 16 4 9 6 20 6 25 -1 4 2 7 7 7 5 0 19 19 30 43 27 53 89 99 166
121 49 14 88 17 210 13 83 -2 158 -1 168 2 23 8 97 11 97 4z m44 -105 c-6 -68
-9 -80 -49 -208 -38 -120 -58 -158 -112 -216 -72 -76 -207 -166 -266 -176 -27
-5 -63 -18 -80 -29 -18 -10 -40 -19 -50 -19 -10 0 -33 -11 -50 -24 -18 -13
-55 -36 -84 -51 -41 -22 -53 -34 -58 -59 -11 -49 -58 -186 -65 -186 -3 0 -7
-15 -8 -33 -4 -63 -57 -177 -106 -228 -25 -26 -46 -52 -46 -56 0 -5 -15 -17
-32 -28 -18 -10 -56 -39 -84 -64 -78 -71 -469 -260 -491 -238 -3 3 -17 1 -32
-5 -14 -6 -55 -12 -91 -14 -36 -1 -80 -5 -97 -8 -21 -3 -33 0 -33 7 0 9 -2 9
-8 0 -6 -10 -23 -9 -75 6 -36 10 -69 16 -72 13 -3 -3 -5 -1 -5 4 0 5 50 21
111 36 75 18 132 39 179 66 37 22 83 43 102 47 18 4 73 35 123 69 49 34 101
67 115 74 14 7 34 18 46 25 34 20 173 169 201 217 14 24 36 54 48 66 12 12 33
39 46 61 12 21 25 40 28 43 4 3 21 37 40 75 19 39 38 72 42 75 4 3 20 30 35
60 44 89 203 229 308 273 26 10 138 79 154 95 8 7 18 10 23 7 5 -4 9 -2 9 3 0
5 18 15 41 22 23 8 48 25 57 39 9 15 20 28 23 31 51 38 99 86 105 103 4 12 20
38 36 57 61 74 113 130 121 130 4 0 5 -28 1 -62z m-4194 -2 c36 -8 96 -28 133
-45 38 -17 75 -31 83 -31 8 0 41 -17 72 -37 31 -21 69 -44 83 -52 15 -7 32
-24 38 -37 12 -27 52 -47 76 -38 9 4 22 19 30 35 20 38 77 90 93 84 6 -2 12
-1 12 3 0 11 46 15 160 15 130 0 160 -5 207 -34 99 -60 119 -80 246 -250 26
-35 54 -72 62 -81 20 -24 46 -76 43 -85 -5 -15 24 -72 39 -78 25 -9 53 5 64
31 5 14 24 31 42 39 28 11 42 11 97 -1 74 -18 97 -28 127 -61 12 -12 27 -23
32 -23 6 0 15 -17 20 -37 6 -21 16 -56 22 -78 6 -22 13 -73 15 -113 2 -42 11
-83 20 -96 14 -23 70 -41 79 -26 10 16 58 -5 80 -35 14 -17 25 -35 25 -40 0
-4 11 -20 25 -37 14 -16 25 -38 25 -49 0 -10 4 -19 8 -19 12 0 32 -111 27
-150 -3 -19 -5 -43 -6 -53 0 -10 -5 -31 -11 -45 -6 -15 -13 -36 -14 -47 -10
-54 -15 -64 -29 -59 -8 4 -15 2 -15 -4 0 -19 -66 -50 -84 -40 -11 6 -22 6 -30
-2 -11 -8 -32 -1 -92 29 -44 22 -101 46 -129 53 -55 15 -101 41 -127 74 -10
12 -33 25 -53 28 -19 4 -40 13 -47 20 -18 17 -61 41 -71 38 -19 -5 -76 30
-117 73 -24 26 -61 55 -82 66 -21 11 -53 34 -72 52 -18 17 -55 50 -82 72 -26
22 -57 49 -69 60 -11 11 -42 40 -70 64 -95 83 -300 286 -344 341 -42 52 -74
84 -180 179 -28 25 -64 45 -100 56 -31 9 -64 20 -73 26 -10 5 -24 9 -32 9 -8
0 -16 4 -18 8 -1 5 -34 21 -73 36 -38 15 -86 37 -105 50 -33 21 -56 29 -160
56 -25 7 -63 21 -84 31 -22 10 -55 19 -73 19 -18 0 -33 4 -33 9 0 16 104 99
133 106 15 4 27 11 27 17 0 5 9 7 19 3 11 -3 22 -1 26 5 9 14 108 12 185 -4z
m-275 -212 c21 -9 65 -20 98 -25 38 -6 77 -21 104 -39 38 -26 267 -122 343
-145 14 -4 27 -11 30 -14 3 -3 21 -19 40 -35 67 -54 143 -131 199 -201 30 -38
64 -76 76 -84 11 -8 54 -48 96 -90 86 -86 208 -197 319 -291 41 -35 80 -69 85
-75 6 -7 28 -21 50 -33 22 -11 62 -43 90 -71 27 -28 54 -51 60 -51 10 0 166
-77 260 -130 28 -15 80 -38 117 -50 37 -13 66 -26 63 -28 -7 -7 -137 20 -167
35 -15 7 -34 13 -43 13 -10 0 -29 8 -43 18 -35 24 -123 58 -187 73 -27 6 -57
13 -65 16 -8 4 -26 8 -39 10 -25 4 -163 68 -215 100 -39 24 -74 54 -164 143
-43 41 -97 91 -122 110 -24 19 -51 43 -59 54 -9 10 -48 52 -88 93 -40 40 -72
77 -71 80 1 3 -46 56 -103 116 -102 107 -228 217 -248 217 -6 0 -20 8 -30 18
-26 23 -137 99 -203 138 -10 6 -26 18 -35 26 -10 9 -29 19 -43 23 -14 4 -32
13 -40 20 -8 8 -19 14 -25 16 -17 3 -40 13 -50 21 -5 5 -19 15 -30 23 -27 19
-6 19 40 -1z"/>
</g>
</svg>
