<?xml version="1.0" standalone="no"?>
<!DOCTYPE svg PUBLIC "-//W3C//DTD SVG 20010904//EN"
 "http://www.w3.org/TR/2001/REC-SVG-20010904/DTD/svg10.dtd">
<svg version="1.0" xmlns="http://www.w3.org/2000/svg"
 width="435.000000pt" height="401.000000pt" viewBox="0 0 435.000000 401.000000"
 preserveAspectRatio="xMidYMid meet">
<metadata>
Created by potrace 1.16, written by Peter Selinger 2001-2019
</metadata>
<g transform="translate(0.000000,401.000000) scale(0.100000,-0.100000)"
fill="#000000" stroke="none">
<path d="M2585 3789 c-22 -4 -59 -9 -83 -13 -24 -3 -60 -10 -80 -15 -20 -5
-57 -11 -82 -12 -25 -1 -53 -6 -63 -11 -10 -5 -26 -11 -35 -13 -9 -2 -53 -18
-97 -35 -44 -17 -87 -33 -95 -35 -21 -5 -62 -21 -114 -45 -25 -11 -47 -20 -50
-20 -6 0 -245 -140 -265 -154 -7 -6 -31 -28 -51 -48 -21 -21 -41 -38 -46 -38
-4 0 -36 -28 -70 -62 -34 -35 -83 -81 -108 -103 -25 -22 -45 -46 -45 -52 -1
-7 -5 -13 -10 -13 -5 0 -32 -35 -62 -77 -29 -43 -58 -82 -64 -88 -19 -17 -65
-83 -65 -93 0 -5 -9 -17 -20 -27 -11 -10 -22 -26 -26 -37 -3 -11 -28 -55 -55
-99 -27 -44 -49 -83 -49 -85 0 -3 -18 -44 -41 -92 -45 -97 -60 -130 -78 -182
-12 -32 -17 -52 -37 -133 -3 -15 -10 -30 -15 -33 -5 -3 -9 -15 -9 -27 0 -12
-7 -40 -14 -62 -8 -22 -17 -58 -20 -80 -4 -22 -9 -48 -12 -57 -3 -9 -7 -25 -9
-35 -2 -10 -11 -45 -19 -78 -8 -33 -15 -104 -15 -158 -1 -54 -4 -104 -7 -111
-3 -8 -1 -17 5 -20 6 -4 8 -12 5 -20 -6 -15 33 -199 51 -241 7 -16 22 -51 34
-77 11 -26 21 -53 22 -60 0 -7 9 -26 20 -43 10 -16 23 -39 29 -50 5 -11 23
-38 39 -60 17 -22 38 -51 48 -65 10 -14 38 -43 62 -65 23 -22 58 -55 76 -72
19 -18 38 -33 44 -33 6 0 11 -4 11 -9 0 -5 14 -14 31 -22 18 -7 46 -26 63 -41
25 -24 95 -68 116 -73 3 -1 16 -6 30 -12 14 -6 30 -12 37 -14 6 -2 50 -40 98
-84 87 -79 146 -125 162 -125 5 0 25 -11 45 -25 123 -83 326 -154 518 -181
126 -17 209 -14 460 21 68 10 243 55 258 68 10 8 123 51 187 71 27 8 52 18 70
29 11 6 31 16 44 23 29 15 117 89 151 127 13 15 30 27 37 27 7 0 13 7 13 15 0
8 3 15 8 15 4 0 44 35 88 78 87 82 164 179 164 205 0 8 3 17 8 19 4 1 21 31
38 64 18 34 43 81 56 105 21 39 40 81 80 176 6 15 12 30 13 33 0 3 6 14 12 25
10 19 50 151 58 196 2 10 7 24 10 29 4 6 8 23 11 38 3 15 13 77 24 137 10 61
21 139 25 175 3 36 11 84 17 108 8 32 7 91 -3 235 -8 105 -13 199 -12 207 5
44 -71 290 -117 381 -11 21 -20 44 -20 51 0 8 -9 32 -21 53 -11 22 -29 63 -40
92 -11 29 -39 73 -62 99 -38 42 -81 104 -121 175 -8 14 -43 56 -78 93 -34 37
-68 76 -76 87 -30 43 -273 200 -412 266 -59 28 -217 82 -265 91 -40 7 -201 8
-240 1z m270 -124 c28 -9 59 -20 70 -25 37 -15 60 -23 79 -27 11 -2 58 -27
105 -55 47 -28 106 -62 131 -75 69 -36 205 -153 260 -224 27 -35 60 -77 72
-94 13 -16 30 -42 37 -57 12 -23 30 -47 106 -139 7 -9 16 -27 20 -40 5 -13 21
-50 37 -82 16 -31 43 -101 60 -155 16 -53 34 -101 38 -107 8 -10 43 -150 54
-215 3 -19 8 -100 11 -180 4 -79 8 -147 11 -151 2 -4 -1 -40 -7 -81 -5 -40
-12 -93 -15 -118 -15 -155 -63 -393 -94 -465 -5 -11 -12 -31 -16 -45 -7 -26
-96 -221 -117 -255 -25 -43 -88 -161 -93 -177 -4 -10 -10 -18 -15 -18 -5 0 -9
-5 -9 -11 0 -22 -123 -160 -180 -201 -19 -14 -70 -58 -113 -97 -42 -39 -84
-71 -91 -71 -7 0 -19 -7 -26 -15 -7 -8 -21 -15 -31 -15 -11 0 -19 -4 -19 -8 0
-4 -26 -16 -57 -27 -32 -10 -69 -24 -83 -30 -23 -12 -53 -21 -190 -59 -56 -15
-300 -54 -355 -57 -98 -3 -277 15 -340 35 -5 2 -13 4 -17 5 -60 11 -318 128
-318 143 0 5 -4 7 -8 4 -14 -9 -119 61 -182 121 -57 55 -160 174 -160 186 0 3
-12 19 -26 34 -15 15 -31 40 -36 56 -6 15 -14 27 -19 27 -5 0 -9 7 -9 15 0 8
-13 43 -29 77 -16 35 -34 88 -41 118 -7 30 -16 60 -20 65 -13 18 -22 102 -35
336 -5 84 25 287 59 402 25 85 152 344 184 376 8 9 36 45 63 81 54 74 106 126
197 194 34 26 62 51 62 55 0 4 17 17 38 29 20 11 46 33 56 47 11 15 33 33 50
42 16 8 43 28 60 44 30 28 30 30 16 56 -9 15 -23 29 -32 31 -23 4 -111 -53
-200 -130 -40 -35 -93 -79 -118 -98 -25 -19 -58 -47 -75 -62 -16 -15 -33 -28
-37 -28 -4 0 -32 -33 -62 -73 -30 -40 -65 -84 -78 -98 -13 -13 -29 -35 -36
-49 -6 -14 -32 -61 -57 -105 -25 -44 -57 -105 -71 -135 -14 -30 -32 -67 -40
-82 -8 -14 -14 -33 -14 -42 0 -9 -3 -16 -7 -16 -5 0 -9 -17 -11 -38 -1 -20 -9
-58 -17 -83 -9 -25 -17 -59 -19 -75 -2 -16 -9 -67 -16 -114 -7 -49 -9 -123 -5
-175 3 -49 8 -138 10 -198 4 -79 10 -117 24 -145 10 -20 29 -71 41 -112 12
-41 34 -100 49 -131 l26 -55 -55 42 c-115 87 -230 211 -260 279 -9 22 -27 61
-39 87 -11 26 -21 54 -21 62 0 9 -8 30 -19 49 -10 18 -21 48 -24 67 -3 19 -10
55 -16 80 -17 76 -4 321 24 425 13 50 27 113 30 140 4 28 16 67 26 89 10 21
25 63 34 95 23 82 51 153 106 268 27 57 49 105 49 107 0 9 146 235 189 293 25
34 53 71 61 83 41 61 230 251 328 331 55 45 156 114 182 125 8 4 51 24 95 45
172 81 352 140 500 164 38 6 88 15 140 26 60 12 233 2 290 -16z"/>
<path d="M2443 3338 c-14 -7 -24 -23 -28 -49 -4 -22 -14 -43 -22 -47 -8 -5
-14 -13 -13 -18 4 -15 -73 -49 -102 -46 -17 2 -36 15 -50 35 -28 40 -37 47
-67 47 -47 0 -67 -62 -31 -95 12 -11 18 -25 15 -36 -4 -11 4 -24 21 -38 20
-16 25 -27 21 -47 -3 -18 2 -33 14 -45 30 -30 74 -22 124 21 11 10 43 20 70
23 66 7 172 63 196 102 25 41 24 81 -2 95 -17 10 -27 7 -61 -16 -22 -15 -48
-38 -58 -51 -35 -45 -31 -22 5 29 51 70 60 103 34 129 -21 21 -34 23 -66 7z"/>
</g>
</svg>
