<?xml version="1.0" standalone="no"?>
<!DOCTYPE svg PUBLIC "-//W3C//DTD SVG 20010904//EN"
 "http://www.w3.org/TR/2001/REC-SVG-20010904/DTD/svg10.dtd">
<svg version="1.0" xmlns="http://www.w3.org/2000/svg"
 width="495.000000pt" height="427.000000pt" viewBox="0 0 495.000000 427.000000"
 preserveAspectRatio="xMidYMid meet">
<metadata>
Created by potrace 1.16, written by Peter Selinger 2001-2019
</metadata>
<g transform="translate(0.000000,427.000000) scale(0.100000,-0.100000)"
fill="#000000" stroke="none">
<path d="M3801 4087 c-88 -57 -181 -128 -236 -179 -22 -21 -44 -38 -50 -38 -5
0 -21 -11 -35 -25 -14 -13 -47 -46 -75 -72 -83 -80 -175 -182 -175 -195 0 -7
-26 -47 -56 -88 -31 -41 -64 -91 -73 -111 -15 -33 -19 -35 -41 -27 -14 6 -38
11 -55 12 -16 2 -37 5 -45 9 -41 16 -189 28 -259 20 -42 -4 -85 -6 -96 -5 -11
1 -29 -1 -40 -6 -11 -5 -38 -15 -60 -22 -98 -30 -263 -106 -330 -149 -22 -15
-61 -37 -87 -49 -25 -13 -52 -30 -58 -38 -7 -7 -16 -14 -21 -14 -25 0 -299
-249 -299 -271 0 -4 -9 -11 -20 -14 -11 -3 -20 -13 -20 -20 0 -8 -9 -19 -20
-25 -11 -6 -30 -26 -43 -45 -12 -18 -50 -62 -83 -98 -33 -35 -67 -75 -77 -88
-43 -61 -185 -277 -197 -299 -7 -14 -16 -27 -20 -30 -14 -10 -48 -86 -63 -140
-9 -30 -27 -82 -41 -115 -14 -33 -26 -68 -26 -78 0 -10 -5 -27 -10 -38 -6 -10
-15 -45 -21 -76 -6 -32 -20 -75 -30 -96 -11 -21 -18 -41 -15 -45 2 -4 -6 -28
-18 -52 -13 -25 -25 -56 -29 -70 -10 -41 -21 -198 -22 -305 0 -84 4 -108 23
-147 12 -26 22 -52 22 -58 0 -5 5 -10 11 -10 6 0 9 -6 6 -12 -2 -7 6 -29 18
-48 12 -20 26 -51 30 -70 4 -19 16 -46 27 -60 11 -15 20 -33 22 -41 1 -8 15
-27 30 -44 16 -16 51 -58 78 -93 28 -34 53 -62 57 -62 4 0 14 -11 21 -25 8
-14 18 -24 24 -22 6 2 21 -7 34 -20 12 -13 27 -23 32 -23 6 0 10 -7 10 -15 0
-8 6 -15 13 -15 8 0 22 -9 32 -20 28 -31 96 -66 177 -90 40 -13 78 -26 83 -30
6 -5 12 -8 15 -8 3 0 23 -4 45 -10 54 -14 293 -32 357 -26 70 6 188 30 263 53
101 32 150 46 157 46 3 0 10 3 14 8 4 4 18 7 31 7 12 0 32 9 43 20 11 11 24
20 30 20 6 0 10 5 10 10 0 6 9 10 19 10 11 0 23 4 26 10 3 5 15 10 26 10 24 0
79 39 79 56 0 6 24 30 54 53 49 36 143 121 245 219 18 18 45 42 60 53 45 36
114 104 161 159 109 129 121 145 137 180 4 8 10 17 13 20 4 3 19 28 35 55 15
28 52 87 81 131 30 45 54 85 54 90 0 5 6 20 13 34 7 14 21 52 32 85 11 33 22
62 25 65 5 5 5 5 15 70 3 25 10 61 15 80 63 248 78 295 110 365 11 22 24 60
30 85 6 25 18 62 26 83 19 49 21 264 4 367 -6 41 -13 90 -15 109 -2 18 -8 38
-14 44 -6 6 -11 19 -11 29 0 10 -4 18 -9 18 -5 0 -12 11 -15 24 -8 31 -67 124
-99 155 -64 62 -99 91 -132 107 -19 9 -35 20 -35 25 0 5 -7 9 -16 9 -17 0
-137 61 -142 73 -2 4 -14 7 -27 7 -13 0 -27 5 -30 10 -3 6 -17 10 -30 10 -18
0 -22 4 -18 19 3 11 13 28 24 40 10 11 19 23 19 27 0 10 80 108 96 117 8 4 32
35 54 67 23 33 45 60 50 60 5 0 24 16 42 36 48 54 81 84 93 84 5 0 47 29 92
63 46 35 105 74 132 88 32 15 54 34 62 52 11 26 9 31 -27 68 -70 73 -115 85
-173 46z m95 -101 c-65 -39 -115 -75 -142 -101 -17 -16 -44 -39 -59 -50 -48
-34 -88 -68 -138 -117 -27 -26 -54 -46 -60 -45 -6 1 -12 -4 -13 -10 -1 -7 -2
-17 -3 -22 0 -5 -24 -33 -52 -63 -28 -29 -72 -82 -97 -118 -25 -36 -52 -71
-59 -78 -8 -8 -20 -27 -29 -43 -15 -29 -15 -29 -39 -12 -13 10 -25 24 -25 31
0 15 39 75 52 80 4 2 8 8 8 14 0 6 14 27 30 48 17 21 30 41 30 45 0 14 85 112
112 131 16 11 28 24 28 29 0 20 125 124 304 254 95 69 104 73 140 54 28 -15
29 -17 12 -27z m-1042 -714 c-57 -30 -126 -86 -221 -177 -80 -77 -127 -132
-256 -299 -12 -15 -27 -33 -33 -40 -9 -9 -96 -143 -129 -198 -33 -54 -77 -118
-122 -179 -29 -38 -53 -74 -53 -79 0 -6 -4 -10 -10 -10 -5 0 -10 -7 -10 -15 0
-8 -18 -47 -39 -87 -71 -133 -81 -152 -116 -230 -19 -42 -35 -81 -35 -87 0 -7
-9 -24 -20 -39 -11 -15 -22 -47 -25 -70 -2 -24 -8 -49 -14 -55 -5 -7 -12 -28
-15 -47 -5 -30 -3 -38 20 -54 25 -18 29 -18 53 -3 21 12 30 31 46 95 25 96 64
184 78 175 6 -4 8 0 4 10 -7 18 16 82 33 92 5 3 10 13 10 22 0 21 78 182 101
208 9 11 29 42 43 69 15 27 39 65 54 85 15 20 32 43 37 52 6 9 28 44 51 77 22
33 51 81 65 107 13 26 36 61 52 77 15 17 27 34 27 40 0 5 13 20 29 33 15 14
34 38 41 55 7 16 16 30 21 30 5 0 9 5 9 10 0 19 205 230 223 230 5 0 21 12 36
28 45 46 78 70 142 103 75 39 94 42 184 28 39 -7 76 -12 83 -12 6 0 12 -4 12
-9 0 -5 30 -8 68 -8 90 0 102 -2 102 -12 0 -5 5 -6 11 -3 6 4 20 -2 32 -13 12
-11 34 -24 49 -27 15 -4 32 -13 39 -21 6 -8 21 -14 34 -14 12 0 33 -9 46 -21
13 -11 39 -33 57 -50 19 -16 38 -29 42 -29 4 0 13 -13 19 -30 5 -16 15 -30 20
-30 6 0 11 -4 11 -9 0 -5 16 -37 35 -72 20 -34 34 -68 31 -76 -3 -7 1 -31 9
-54 20 -54 32 -263 17 -273 -8 -5 -8 -15 -1 -33 7 -19 5 -39 -8 -77 -9 -28
-18 -53 -18 -56 -9 -48 -20 -81 -35 -106 -29 -51 -57 -134 -74 -224 -10 -47
-20 -92 -23 -100 -4 -8 -8 -22 -9 -30 -12 -79 -43 -186 -86 -301 -17 -44 -69
-129 -80 -129 -4 0 -14 -15 -21 -32 -8 -18 -21 -39 -30 -47 -10 -7 -17 -19
-17 -26 0 -8 -10 -26 -23 -42 -12 -15 -29 -41 -37 -58 -29 -61 -192 -238 -231
-250 -10 -4 -19 -10 -19 -15 0 -14 -213 -218 -276 -264 -32 -24 -72 -58 -88
-75 -17 -17 -34 -31 -38 -31 -5 0 -18 -9 -29 -19 -12 -11 -33 -22 -47 -26 -14
-3 -37 -14 -51 -24 -14 -9 -48 -24 -76 -33 -78 -25 -169 -52 -175 -51 -3 1
-12 -3 -21 -8 -9 -4 -27 -10 -40 -12 -63 -12 -147 -27 -171 -30 -35 -5 -233
14 -233 23 0 0 -22 2 -50 4 -27 2 -51 9 -53 15 -2 6 -7 9 -12 6 -19 -12 -228
73 -238 97 -2 4 -8 8 -14 8 -12 0 -128 92 -128 101 0 9 -59 69 -68 69 -8 0
-82 95 -82 106 0 4 -11 22 -25 40 -13 18 -32 54 -41 81 -9 26 -22 55 -29 63
-8 8 -14 18 -15 22 0 4 -9 27 -19 51 -67 157 -56 327 43 617 69 205 127 385
135 421 4 20 30 70 57 112 27 42 60 95 74 118 14 23 32 50 40 60 8 11 24 31
35 46 11 14 35 42 53 61 17 19 32 37 32 41 0 11 99 109 104 103 3 -3 6 3 6 13
0 9 21 39 48 65 26 26 61 63 78 82 17 19 37 39 46 44 8 5 21 19 30 32 13 20
48 51 135 122 7 6 16 10 21 10 5 0 19 11 32 25 13 14 27 25 32 25 5 0 40 20
77 44 66 44 112 67 236 121 33 15 74 33 90 41 40 19 217 40 308 36 l72 -4 -31
-16z"/>
</g>
</svg>
