<?xml version="1.0" standalone="no"?>
<!DOCTYPE svg PUBLIC "-//W3C//DTD SVG 20010904//EN"
 "http://www.w3.org/TR/2001/REC-SVG-20010904/DTD/svg10.dtd">
<svg version="1.0" xmlns="http://www.w3.org/2000/svg"
 width="439.000000pt" height="411.000000pt" viewBox="0 0 439.000000 411.000000"
 preserveAspectRatio="xMidYMid meet">
<metadata>
Created by potrace 1.16, written by Peter Selinger 2001-2019
</metadata>
<g transform="translate(0.000000,411.000000) scale(0.100000,-0.100000)"
fill="#000000" stroke="none">
<path d="M3568 4038 c-19 -7 -28 -17 -28 -31 0 -12 -9 -37 -20 -55 -11 -18
-22 -46 -23 -61 -2 -16 -13 -41 -24 -56 -19 -27 -22 -28 -52 -16 -17 8 -31 17
-31 22 0 4 -17 13 -37 19 -36 10 -39 9 -65 -22 -15 -17 -26 -34 -23 -36 2 -2
-18 -37 -46 -78 -27 -40 -54 -86 -60 -101 -5 -15 -25 -48 -44 -75 -19 -26 -37
-58 -41 -72 -3 -13 -14 -32 -25 -42 -23 -21 -24 -15 -4 33 8 19 15 50 15 69 0
18 5 45 10 60 6 15 12 61 14 103 3 102 -3 108 -129 109 -102 1 -104 0 -104
-58 0 -71 -44 -232 -82 -299 -5 -9 -18 -41 -30 -71 -11 -30 -26 -62 -34 -70
-7 -8 -28 -60 -46 -115 -19 -55 -39 -103 -46 -108 -7 -4 -24 -30 -39 -57 -15
-28 -31 -50 -36 -50 -5 0 -7 -4 -4 -9 3 -5 -1 -11 -9 -15 -8 -3 -15 -11 -15
-18 0 -6 -10 -22 -21 -34 -12 -13 -27 -32 -33 -43 -39 -70 -80 -136 -90 -147
-6 -6 -22 -26 -36 -44 -14 -18 -30 -37 -36 -44 -5 -6 -30 -36 -55 -67 -78 -96
-192 -219 -202 -219 -4 0 -16 -9 -27 -20 -11 -11 -33 -20 -51 -20 -39 0 -58
-19 -52 -53 4 -20 -2 -32 -23 -51 -16 -14 -35 -26 -41 -26 -7 0 -13 -4 -13 -9
0 -11 -143 -121 -157 -121 -7 0 -38 -17 -70 -39 -32 -21 -83 -54 -113 -74 -30
-20 -80 -54 -111 -75 -53 -37 -238 -131 -329 -167 -70 -28 -153 -68 -170 -82
-9 -7 -36 -23 -61 -36 -101 -54 -119 -68 -229 -177 -67 -66 -92 -102 -159
-225 -16 -29 -34 -93 -47 -166 -6 -39 17 -99 37 -99 20 0 -8 -26 -56 -50 -25
-13 -45 -27 -45 -32 0 -4 -7 -8 -15 -8 -9 0 -18 -7 -22 -16 -3 -9 -15 -26 -27
-38 -12 -12 -56 -59 -98 -103 -42 -45 -95 -96 -117 -114 -27 -21 -41 -40 -41
-56 0 -23 2 -23 58 17 31 22 104 87 162 144 103 102 218 192 229 180 3 -3 -12
-21 -34 -40 -22 -19 -47 -41 -55 -48 -8 -7 -26 -19 -40 -26 -35 -18 -88 -74
-136 -145 -39 -57 -63 -125 -45 -125 9 0 61 64 61 76 0 15 147 150 185 169 22
11 42 22 45 25 49 52 120 82 120 52 0 -11 -55 -65 -123 -122 -96 -80 -197
-215 -197 -264 0 -39 19 -24 78 59 56 79 71 96 132 145 24 19 57 47 74 61 17
14 47 35 66 46 l35 20 28 -27 28 -28 -30 -10 c-16 -6 -32 -8 -35 -5 -3 4 -6
-1 -6 -10 0 -9 -6 -17 -13 -17 -8 0 -38 -26 -67 -57 -205 -222 -265 -283 -273
-283 -5 0 -16 -8 -23 -17 -14 -20 -2 -43 23 -43 14 0 242 223 244 238 1 13
117 105 169 134 36 20 56 26 63 19 11 -11 -28 -57 -182 -212 -47 -48 -93 -95
-102 -105 -8 -11 -34 -36 -58 -57 -26 -23 -40 -44 -37 -53 8 -20 44 -17 51 5
3 10 36 46 73 81 37 34 81 75 98 91 16 16 33 29 37 29 4 0 20 12 35 27 85 85
135 124 145 114 12 -12 -19 -42 -137 -136 -41 -33 -75 -65 -76 -72 0 -6 -5
-13 -11 -15 -6 -2 -13 -18 -15 -35 -3 -26 -1 -30 16 -26 11 3 31 21 46 40 14
19 69 66 121 104 105 78 127 90 117 65 -3 -9 -11 -16 -18 -17 -6 0 -22 -14
-36 -30 -14 -17 -66 -74 -117 -127 -106 -111 -164 -189 -156 -208 10 -26 40
-14 68 25 28 42 299 311 312 311 5 0 20 -11 34 -24 15 -14 33 -26 40 -27 15
-3 108 26 143 45 37 20 105 71 106 78 0 5 9 18 19 30 11 13 28 33 38 44 16 19
69 122 122 234 25 55 81 130 97 130 8 0 14 7 14 15 0 8 5 15 11 15 6 0 26 12
44 27 120 102 153 124 354 230 47 25 104 59 127 76 24 18 91 68 151 111 59 44
124 94 143 112 39 37 138 126 185 167 68 59 85 73 116 97 18 14 74 66 124 115
86 87 184 165 205 165 6 0 10 4 10 9 0 5 48 42 108 82 59 39 109 75 112 79 3
4 15 10 28 14 12 4 22 12 22 17 0 5 4 9 10 9 5 0 34 16 64 35 30 19 59 35 63
35 15 1 138 65 195 103 31 20 61 37 65 37 4 0 28 16 53 36 25 20 94 60 155 90
60 30 124 63 140 72 17 10 46 24 65 32 19 8 40 18 45 22 6 4 20 16 32 26 12 9
25 33 28 52 6 33 4 37 -29 53 -20 9 -36 23 -36 30 0 7 -11 23 -25 35 -13 12
-27 32 -30 44 -7 28 -49 30 -86 5 -13 -10 -31 -17 -41 -17 -9 0 -37 -6 -60
-14 -24 -7 -63 -19 -88 -26 -64 -19 -135 -57 -230 -123 -30 -20 -66 -45 -80
-54 -14 -9 22 32 80 91 58 60 113 117 123 127 9 11 22 19 27 19 6 0 10 4 10 9
0 10 131 143 196 200 90 78 199 184 205 200 4 10 -4 33 -20 56 -14 22 -35 59
-45 83 -20 44 -47 59 -85 47 -11 -3 -23 -15 -26 -26 -4 -10 -16 -24 -27 -30
-12 -6 -32 -24 -46 -40 -13 -16 -28 -27 -33 -23 -5 3 -9 -1 -9 -9 0 -13 -24
-37 -80 -82 l-25 -20 23 35 c13 19 29 47 35 63 6 15 15 27 19 27 4 0 8 7 8 15
0 8 7 15 15 15 8 0 14 4 13 8 -3 9 53 101 75 125 21 22 67 93 67 103 0 6 8 28
19 49 22 47 18 69 -24 109 -18 17 -45 50 -59 72 -31 48 -75 63 -101 34 -8 -9
-12 -20 -8 -23 3 -4 1 -7 -6 -7 -6 0 -15 -9 -19 -20 -7 -18 -11 -16 -52 20
-25 22 -50 40 -57 40 -6 0 -14 8 -17 18 -9 28 -37 40 -68 30z m52 -137 c0 -4
12 -20 28 -37 40 -46 37 -64 -23 -135 -30 -35 -55 -69 -55 -74 0 -6 -11 -23
-25 -38 -14 -15 -23 -27 -20 -27 10 0 -43 -69 -98 -129 -26 -29 -47 -57 -47
-63 0 -5 -12 -22 -28 -36 -15 -15 -38 -40 -50 -56 -12 -16 -25 -26 -29 -23 -3
4 17 40 45 82 29 41 52 79 52 85 0 5 4 10 9 10 5 0 22 26 36 58 15 31 33 64
40 72 11 14 44 110 49 142 1 8 16 35 34 61 17 27 32 57 32 68 0 31 18 59 35
53 8 -4 15 -9 15 -13z m249 -77 c6 -14 11 -35 11 -48 0 -24 -84 -160 -113
-185 -9 -7 -17 -17 -17 -22 0 -4 -18 -34 -40 -66 -54 -77 -53 -76 -109 -168
-28 -44 -60 -91 -73 -105 -13 -14 -29 -37 -36 -51 -8 -14 -23 -38 -35 -52 -12
-14 -30 -38 -39 -54 -33 -54 -43 -68 -59 -83 -9 -8 -23 -28 -32 -45 -13 -25
-35 -53 -126 -160 -5 -5 -22 -21 -37 -35 -16 -14 -42 -43 -59 -64 -36 -46 -60
-73 -128 -146 -29 -30 -64 -71 -79 -91 -15 -20 -57 -69 -93 -110 -37 -41 -86
-95 -108 -121 -56 -63 -300 -308 -329 -331 -13 -9 -37 -27 -54 -40 -17 -12
-57 -47 -88 -77 -32 -30 -66 -58 -76 -62 -11 -4 -25 -16 -32 -28 -7 -11 -18
-20 -24 -20 -6 0 -16 -11 -22 -25 -6 -13 -25 -31 -42 -40 -17 -9 -30 -23 -30
-35 0 -10 -4 -21 -9 -24 -12 -8 -2 -52 12 -54 7 -1 24 -4 40 -8 17 -4 27 -2
27 5 0 6 7 11 15 11 8 0 20 10 26 23 14 24 149 157 161 157 4 0 21 14 36 30
16 17 33 30 37 30 4 0 33 26 65 58 102 103 257 252 262 252 11 0 68 58 68 69
0 6 4 11 9 11 13 0 73 53 151 131 37 38 89 79 120 94 30 15 72 41 93 57 20 16
37 27 37 23 0 -4 22 12 49 34 27 23 54 41 60 41 6 0 11 4 11 9 0 7 39 29 178
99 26 13 49 28 50 33 2 5 9 9 17 9 7 0 18 6 24 14 21 26 146 102 201 123 108
42 181 63 213 63 34 -1 67 -19 67 -39 0 -6 5 -11 10 -11 20 0 10 -16 -17 -27
-27 -12 -113 -58 -143 -78 -8 -5 -49 -26 -90 -45 -41 -19 -102 -55 -135 -80
-60 -45 -130 -85 -235 -136 -162 -78 -220 -111 -220 -125 0 -5 -9 -9 -19 -9
-11 0 -23 -5 -26 -10 -4 -6 -23 -22 -43 -35 -21 -13 -66 -45 -102 -69 -36 -25
-73 -51 -83 -58 -11 -7 -27 -20 -37 -28 -126 -104 -157 -131 -188 -165 -66
-72 -146 -144 -181 -162 -18 -10 -61 -46 -95 -80 -33 -35 -66 -63 -73 -63 -7
0 -31 -20 -55 -45 -43 -46 -169 -145 -183 -145 -4 0 -17 -10 -29 -22 -12 -13
-37 -32 -56 -42 -19 -11 -39 -25 -43 -33 -4 -7 -17 -13 -27 -13 -11 0 -20 -3
-20 -7 0 -5 -10 -13 -23 -19 -87 -42 -228 -121 -258 -145 -20 -16 -42 -29 -48
-29 -6 0 -11 -4 -11 -10 0 -5 -5 -10 -11 -10 -6 0 -20 -11 -31 -25 -11 -14
-25 -25 -33 -25 -7 0 -15 -7 -19 -15 -3 -8 -11 -15 -18 -15 -7 0 -28 -16 -45
-35 -18 -19 -37 -35 -42 -35 -15 0 -73 -107 -116 -212 -15 -37 -39 -80 -53
-95 -15 -15 -26 -31 -25 -35 2 -3 -13 -23 -32 -44 -19 -21 -35 -42 -35 -46 0
-4 -5 -8 -11 -8 -6 0 -23 -9 -38 -19 -15 -11 -43 -19 -62 -19 -31 1 -52 19
-214 182 -99 100 -201 199 -226 221 -24 22 -59 57 -76 77 l-32 38 15 52 c8 29
24 71 36 93 50 94 158 216 232 263 22 14 47 31 54 39 8 7 33 23 56 35 22 11
43 24 46 28 7 10 107 60 119 60 10 0 100 41 131 59 8 5 51 26 95 46 124 56
139 64 170 91 15 13 32 24 36 24 4 0 38 23 74 50 37 28 90 62 118 77 29 14 68
38 87 53 19 15 49 34 65 43 17 9 44 28 61 44 18 15 58 51 90 78 33 28 61 53
62 58 2 4 8 7 14 7 6 0 27 17 48 38 20 20 77 75 128 122 148 137 363 355 417
425 17 21 54 61 83 90 28 29 52 57 52 63 0 7 6 12 14 12 15 0 66 62 66 81 0 6
13 25 30 40 16 16 36 42 45 58 8 16 31 47 50 68 20 21 43 52 52 68 9 17 40 59
71 95 30 36 62 81 70 100 7 19 29 52 48 74 19 22 34 47 34 55 0 9 9 27 20 41
11 14 20 31 20 38 0 6 4 12 8 12 5 0 16 16 25 35 9 19 23 35 30 35 13 0 57
-36 57 -46 0 -3 -13 -34 -30 -69 -16 -35 -30 -67 -30 -71 0 -4 -11 -22 -25
-40 -14 -18 -25 -37 -25 -42 0 -6 -4 -12 -8 -14 -5 -1 -15 -15 -23 -29 -28
-52 -129 -199 -137 -199 -5 0 -14 -10 -20 -22 -11 -25 -45 -69 -79 -105 -13
-13 -23 -26 -23 -28 0 -3 -13 -24 -29 -47 -16 -24 -63 -95 -104 -159 -42 -64
-83 -122 -92 -129 -8 -7 -15 -17 -15 -22 0 -11 -91 -131 -102 -136 -5 -2 -8
-10 -8 -18 0 -12 -26 -47 -67 -90 -7 -7 -13 -16 -13 -20 0 -3 -8 -14 -18 -23
-9 -9 -43 -49 -75 -88 -32 -40 -62 -73 -67 -73 -5 0 -12 -9 -15 -20 -3 -11
-12 -20 -20 -20 -8 0 -17 -10 -20 -21 -8 -25 -81 -96 -107 -105 -10 -3 -18 -9
-18 -14 0 -5 -26 -29 -57 -54 -32 -25 -76 -61 -97 -78 -22 -18 -52 -41 -68
-50 -15 -10 -28 -22 -28 -27 0 -5 -16 -16 -35 -25 -39 -19 -106 -101 -99 -120
3 -7 15 -19 28 -26 19 -10 29 -9 62 8 21 11 45 30 52 41 7 12 19 21 27 21 8 0
15 4 15 8 0 5 33 31 73 59 39 28 90 67 112 87 22 20 48 39 58 42 9 3 17 11 17
19 0 8 8 16 18 19 25 8 102 82 184 179 38 45 109 121 157 168 47 47 100 103
116 124 17 21 38 47 48 57 11 11 29 35 42 53 21 31 100 126 136 164 8 9 31 41
51 71 20 30 50 70 67 87 17 18 31 35 31 37 0 2 18 23 40 47 22 24 66 80 98
123 31 44 77 102 102 130 25 28 59 71 75 96 15 25 52 70 82 100 29 30 53 57
53 61 0 3 13 22 30 40 16 19 30 42 30 52 0 9 3 17 8 17 4 0 16 16 27 36 10 19
34 48 52 64 18 16 33 33 33 38 0 4 14 27 30 50 33 44 50 46 69 6z m-896 -110
c8 -3 13 -15 11 -27 -13 -94 -31 -174 -54 -242 -15 -44 -42 -123 -60 -175 -36
-103 -61 -160 -71 -160 -3 0 -22 -20 -41 -44 -40 -52 -245 -268 -233 -246 5 8
24 38 42 65 19 28 39 58 46 68 7 11 22 33 35 50 12 17 22 37 22 43 0 7 10 20
22 28 12 9 19 16 15 16 -10 0 26 94 84 215 16 33 36 83 44 110 9 28 31 88 50
135 18 47 36 102 39 122 4 20 12 39 19 41 7 3 13 6 14 6 1 1 8 -1 16 -5z
m1011 -292 c14 -28 14 -29 -47 -93 -68 -70 -102 -99 -117 -99 -6 0 -10 -5 -10
-11 0 -6 -46 -57 -102 -113 -119 -118 -158 -162 -158 -176 0 -6 -4 -10 -10
-10 -15 0 -57 -37 -120 -104 -119 -128 -304 -308 -324 -317 -12 -5 -32 -16
-46 -26 -22 -15 28 43 103 119 15 16 27 32 27 38 0 5 8 15 18 22 10 7 33 33
52 57 19 24 59 69 87 100 29 31 53 59 53 63 0 9 35 50 108 127 134 140 176
181 188 181 11 0 34 23 98 104 16 20 31 34 33 32 4 -4 85 67 122 107 14 15 27
27 28 27 1 0 9 -13 17 -28z m-738 -189 c-8 -17 -36 -52 -62 -79 -51 -54 -43
-38 26 54 48 63 61 72 36 25z"/>
</g>
</svg>
