<?xml version="1.0" standalone="no"?>
<!DOCTYPE svg PUBLIC "-//W3C//DTD SVG 20010904//EN"
 "http://www.w3.org/TR/2001/REC-SVG-20010904/DTD/svg10.dtd">
<svg version="1.0" xmlns="http://www.w3.org/2000/svg"
 width="525.000000pt" height="445.000000pt" viewBox="0 0 525.000000 445.000000"
 preserveAspectRatio="xMidYMid meet">
<metadata>
Created by potrace 1.16, written by Peter Selinger 2001-2019
</metadata>
<g transform="translate(0.000000,445.000000) scale(0.100000,-0.100000)"
fill="#000000" stroke="none">
<path d="M1650 4387 c-25 -4 -62 -8 -83 -7 -33 0 -39 -3 -51 -30 -7 -17 -15
-28 -18 -25 -3 3 -17 1 -32 -4 -18 -8 -26 -18 -26 -35 0 -13 -5 -26 -11 -28
-15 -5 -50 -113 -61 -188 -10 -72 -11 -337 -2 -352 3 -5 8 -42 10 -81 4 -67
22 -148 46 -207 6 -14 12 -36 15 -49 2 -13 15 -48 28 -76 14 -29 25 -58 25
-66 0 -8 7 -23 15 -33 8 -11 15 -32 15 -47 0 -14 8 -37 18 -50 22 -28 48 -90
44 -103 -2 -5 1 -12 5 -15 11 -8 60 -111 68 -144 4 -15 11 -27 16 -27 5 0 9
-4 9 -10 0 -14 -96 47 -119 76 -11 14 -22 25 -25 25 -18 -2 -24 1 -43 19 -20
18 -173 96 -218 110 -11 4 -29 2 -40 -3 -11 -6 -34 -11 -52 -13 -17 -1 -42 -9
-55 -18 -12 -9 -34 -16 -49 -16 -14 0 -55 -9 -89 -20 -34 -11 -77 -20 -94 -20
-18 0 -61 -16 -96 -34 -54 -29 -72 -34 -108 -30 -47 6 -40 11 -153 -114 -38
-42 -59 -74 -64 -99 -6 -33 -18 -64 -62 -163 -24 -52 -40 -177 -31 -230 5 -27
4 -68 -2 -101 -10 -54 -13 -170 -6 -239 2 -19 7 -66 11 -104 3 -38 17 -115 30
-170 26 -111 54 -289 57 -356 0 -8 5 -20 9 -26 5 -6 12 -40 15 -75 4 -35 10
-68 14 -74 4 -5 13 -44 20 -85 7 -41 21 -87 32 -102 23 -33 88 -193 88 -217 0
-10 11 -27 24 -40 21 -20 49 -88 45 -108 -1 -4 5 -24 14 -43 8 -19 13 -39 10
-44 -4 -5 -1 -6 4 -3 6 4 13 -3 17 -16 3 -12 15 -28 27 -35 36 -23 47 7 46
128 -1 85 2 110 16 130 9 13 17 32 17 41 0 9 14 44 30 77 16 34 30 65 30 71 0
5 9 31 21 58 14 32 23 76 25 133 12 241 25 393 34 420 5 14 12 49 15 78 3 30
12 71 19 93 7 21 11 41 7 44 -15 16 -18 178 -3 209 25 53 31 72 36 101 7 50
52 217 63 238 3 5 12 2 21 -6 10 -8 30 -17 45 -21 25 -6 113 -62 145 -93 7 -7
19 -13 26 -13 7 0 24 -10 37 -21 13 -12 48 -33 77 -46 28 -13 52 -29 52 -34 0
-5 6 -9 13 -9 8 0 22 -9 32 -20 10 -11 24 -20 32 -20 7 0 36 -21 63 -47 26
-27 65 -57 86 -68 21 -11 54 -35 74 -53 19 -19 65 -48 102 -67 37 -18 80 -42
96 -54 17 -12 34 -21 40 -21 5 0 21 -18 35 -39 29 -44 63 -79 98 -101 30 -20
79 -72 79 -85 0 -5 23 -32 50 -58 28 -27 50 -53 50 -57 0 -5 28 -38 63 -73
111 -115 211 -254 273 -382 39 -79 63 -113 117 -166 61 -60 163 -127 175 -115
2 3 18 -2 35 -10 16 -9 46 -18 66 -20 20 -3 45 -8 56 -11 11 -4 28 -8 38 -9 9
-1 20 -3 25 -4 4 -1 16 -3 27 -4 11 0 20 -5 21 -11 0 -5 6 -21 12 -35 6 -14
16 -44 22 -67 6 -24 15 -43 20 -43 5 0 10 -10 12 -22 4 -31 60 -62 127 -70 22
-2 40 5 64 27 33 32 36 85 8 148 -18 39 -24 59 -38 131 -5 27 -4 28 25 21 18
-3 33 -2 37 5 3 5 10 8 15 5 31 -19 114 129 118 210 2 28 7 64 12 80 5 17 8
76 7 133 -1 56 0 102 3 102 3 0 5 21 4 48 0 26 3 61 8 77 5 17 11 59 14 95 6
83 13 113 27 122 9 6 9 8 0 8 -7 0 -13 9 -13 20 0 18 3 19 23 9 25 -13 77 -53
92 -71 6 -6 48 -50 94 -97 98 -101 102 -106 127 -149 10 -17 23 -32 29 -32 10
0 85 -118 85 -133 0 -4 8 -15 18 -25 10 -10 26 -42 36 -70 20 -64 82 -178 105
-195 9 -6 25 -34 35 -60 20 -52 91 -147 144 -191 17 -15 32 -32 32 -38 0 -11
40 -47 53 -48 22 -1 77 -47 77 -66 0 -30 20 -84 31 -84 5 0 9 -7 9 -15 0 -9 6
-18 14 -21 7 -3 21 -23 31 -45 10 -21 24 -39 31 -39 7 0 19 -3 27 -6 24 -9 27
21 7 85 -13 42 -15 61 -7 61 9 0 9 2 0 8 -6 4 -19 27 -28 52 -9 25 -30 73 -46
108 -16 35 -29 69 -29 77 0 8 -4 16 -9 20 -6 3 -13 27 -17 53 -3 26 -11 52
-16 58 -5 7 -8 16 -7 20 1 5 -5 25 -14 44 -8 19 -13 38 -11 42 2 4 -4 22 -15
41 -21 38 -40 73 -53 100 -4 9 -12 25 -17 35 -12 22 -25 54 -26 67 -2 20 -18
60 -25 65 -14 9 -70 117 -70 133 0 9 -4 17 -9 17 -5 0 -11 8 -15 18 -7 23 -43
84 -53 91 -16 12 -59 77 -80 121 -50 104 -103 232 -103 248 0 10 -6 26 -14 37
-7 11 -19 38 -26 60 -7 22 -18 47 -25 55 -7 8 -16 26 -20 40 -4 14 -19 38 -32
54 -13 15 -30 41 -39 57 -21 41 -90 71 -162 72 -125 0 -215 -14 -272 -44 l-54
-28 -15 32 c-7 18 -15 38 -17 45 -1 8 -10 22 -20 33 -9 10 -14 19 -11 19 3 0
-11 37 -33 83 -60 129 -87 189 -106 237 -10 25 -26 51 -36 58 -10 7 -18 20
-18 27 0 32 -53 131 -90 169 -30 29 -46 58 -60 106 -14 48 -31 77 -63 110 -24
25 -62 77 -85 115 -22 39 -51 81 -64 95 -58 64 -92 116 -95 144 -3 40 24 123
43 130 7 3 14 11 14 19 0 17 36 50 77 71 18 9 44 29 58 44 24 26 29 27 130 28
58 0 108 -3 111 -8 3 -4 13 -8 22 -8 9 0 35 -17 57 -37 22 -20 57 -49 78 -64
22 -16 52 -50 69 -76 29 -48 94 -112 113 -113 21 -1 110 -100 91 -100 -3 0 22
-28 54 -62 33 -34 76 -93 96 -132 20 -39 42 -78 50 -86 48 -53 72 -89 79 -119
6 -30 24 -57 66 -101 22 -23 84 -115 79 -116 -8 -1 28 -34 37 -34 4 0 18 -19
31 -42 12 -24 35 -57 50 -75 15 -17 56 -68 92 -113 96 -120 147 -170 196 -191
24 -11 44 -24 44 -29 0 -13 72 -90 84 -90 6 0 28 -18 50 -40 21 -22 45 -40 52
-40 8 0 14 -5 14 -10 0 -20 40 -54 64 -56 20 -1 25 5 29 30 3 18 -1 38 -8 46
-20 23 -55 89 -55 103 0 7 -15 29 -33 49 -33 38 -63 91 -116 209 -16 37 -43
82 -59 100 -16 19 -43 55 -61 81 -17 26 -54 73 -81 104 -28 32 -66 86 -86 121
-20 35 -48 79 -62 96 -32 38 -42 54 -78 127 -15 30 -35 66 -45 80 -9 14 -32
53 -50 85 -18 33 -43 71 -56 85 -14 13 -31 40 -39 59 -8 19 -30 58 -49 87 -19
29 -35 57 -35 62 0 6 -4 12 -9 14 -10 3 -72 124 -70 135 4 25 -2 53 -11 48 -5
-3 -10 -1 -10 5 0 6 -7 18 -15 26 -12 12 -15 12 -15 2 0 -20 -77 67 -101 114
-11 22 -29 50 -40 61 -10 12 -19 26 -19 32 0 7 -22 29 -50 51 -27 21 -49 44
-50 50 0 6 -13 17 -30 24 -16 7 -30 16 -30 20 0 6 -57 20 -140 34 -14 3 -47
11 -75 19 -74 22 -142 31 -215 28 -67 -2 -83 -5 -184 -41 -33 -11 -61 -18 -64
-16 -2 3 -9 0 -16 -5 -25 -21 -82 -59 -103 -68 -11 -5 -24 -14 -27 -20 -4 -5
-27 -20 -53 -33 -25 -13 -66 -43 -91 -67 l-45 -43 -26 29 c-14 16 -51 51 -81
78 -30 27 -68 67 -85 89 -41 56 -201 216 -208 209 -4 -3 -28 13 -55 36 -28 22
-52 41 -56 41 -6 0 -97 61 -106 71 -15 16 -80 60 -80 54 0 -4 -6 -2 -13 4 -8
6 -17 8 -20 4 -4 -3 -7 -1 -7 5 0 7 -5 12 -10 12 -6 0 -28 8 -48 18 -29 13
-47 16 -82 9z m-90 -111 c0 6 10 10 23 9 12 -1 38 2 57 6 19 4 36 6 38 4 3 -2
-2 -21 -10 -42 -9 -21 -13 -43 -11 -50 2 -6 -5 -30 -17 -53 -20 -39 -23 -41
-53 -33 -18 4 -56 8 -85 7 -44 -1 -52 2 -46 15 3 9 10 31 16 48 5 20 20 39 36
47 15 8 26 17 25 20 -2 3 -3 16 -3 28 0 21 0 21 15 2 8 -10 15 -14 15 -8z
m278 -43 c20 -16 39 -31 40 -35 2 -5 10 -8 17 -8 20 0 27 -33 19 -85 -6 -46
-12 -53 -30 -35 -5 5 -36 12 -69 15 -33 3 -74 8 -92 11 l-31 5 19 57 c39 114
59 126 127 75z m190 -123 c12 -12 22 -25 22 -30 0 -6 3 -9 8 -8 13 4 55 -23
98 -63 l42 -37 -37 6 c-20 3 -56 16 -81 28 -25 12 -57 26 -72 29 -29 7 -34 25
-22 73 8 27 14 28 42 2z m-421 -64 c1 0 -11 -44 -25 -96 l-27 -95 -36 5 c-20
4 -44 3 -55 -1 -40 -16 -44 -11 -44 55 0 104 7 123 49 135 28 7 128 6 138 -3z
m203 -31 c8 -1 30 -6 49 -10 35 -8 37 -16 15 -95 -4 -14 -9 -44 -11 -67 -5
-39 -8 -43 -32 -43 -14 0 -46 8 -71 16 -25 9 -64 16 -88 16 -29 0 -45 5 -49
14 -5 13 21 114 36 139 6 10 8 16 10 36 1 10 39 8 141 -6z m273 -88 c15 -9 31
-17 36 -17 6 0 28 -7 48 -15 34 -13 38 -19 37 -48 -1 -17 -2 -51 -3 -74 l-1
-43 -47 18 c-27 10 -57 16 -68 14 -10 -2 -52 4 -93 14 -70 18 -73 19 -67 44 4
14 9 36 11 50 11 71 16 95 20 101 5 8 95 -23 127 -44z m1210 0 c17 -8 34 -14
37 -14 56 -7 108 -19 129 -29 14 -8 34 -14 43 -14 17 0 48 -25 48 -39 0 -7
-45 -13 -195 -26 -43 -3 -154 -34 -187 -51 -16 -8 -40 -13 -55 -12 -22 3 -28
-2 -35 -29 -5 -21 -15 -33 -26 -34 -10 0 -12 -3 -5 -6 9 -3 4 -15 -15 -39 -15
-19 -31 -34 -35 -34 -20 0 -166 -166 -167 -190 0 -8 -7 -23 -14 -33 -13 -17
-17 -15 -59 30 -72 78 -98 111 -102 132 -6 30 -26 64 -52 86 -31 27 -29 35 15
82 50 53 270 187 325 197 14 2 34 9 46 15 59 32 234 37 304 8z m-967 -103 c13
-3 24 -10 24 -15 0 -5 13 -22 30 -37 25 -24 28 -34 23 -64 -5 -35 -6 -36 -37
-26 -17 6 -38 17 -47 24 -8 8 -25 14 -37 14 -18 0 -21 5 -18 38 2 20 4 48 5
61 1 17 5 21 17 17 9 -3 27 -9 40 -12z m-779 -37 c2 -3 -28 -181 -32 -185 -2
-2 -19 0 -38 3 -33 6 -35 9 -42 58 -13 88 -11 112 5 112 8 1 24 6 35 13 16 9
62 9 72 -1z m228 -40 l60 -14 6 -84 c4 -46 5 -86 3 -88 -3 -3 -39 1 -82 8 -42
7 -101 15 -129 18 -29 3 -53 8 -53 11 0 15 21 138 26 156 5 16 13 18 58 12 28
-3 78 -11 111 -19z m1719 -5 c3 -5 18 -7 33 -5 16 3 54 -5 85 -17 46 -17 62
-29 80 -61 12 -21 25 -39 30 -39 4 0 8 -6 8 -13 0 -8 9 -22 20 -32 12 -10 18
-25 15 -33 -4 -10 0 -12 11 -8 12 4 15 2 10 -9 -3 -9 0 -15 9 -15 14 0 19 -12
16 -32 0 -5 5 -8 11 -8 7 0 22 -20 32 -43 11 -23 31 -58 46 -77 34 -44 120
-186 120 -198 0 -4 15 -26 34 -48 19 -22 44 -60 57 -85 12 -24 30 -53 40 -64
10 -12 36 -57 59 -102 22 -44 55 -99 73 -121 19 -22 40 -55 47 -73 14 -34 68
-113 110 -159 13 -14 48 -58 79 -99 31 -40 64 -84 73 -96 25 -31 98 -177 98
-194 0 -10 -7 -8 -22 8 -27 26 -95 71 -108 71 -6 0 -24 20 -42 44 -18 24 -73
90 -122 147 -48 57 -100 125 -115 151 -14 26 -30 48 -36 48 -5 0 -26 24 -45
52 -19 29 -52 70 -72 92 -20 23 -42 58 -49 78 -7 21 -32 61 -56 90 -24 28 -58
78 -74 110 -30 59 -38 71 -119 163 -25 28 -59 72 -76 96 -17 25 -47 53 -68 63
-36 17 -86 63 -86 79 0 5 -6 14 -12 21 -7 8 -20 23 -28 35 -8 12 -37 40 -65
61 -27 21 -63 50 -80 65 -16 15 -45 33 -63 40 -27 12 -116 27 -159 28 -7 0
-13 5 -13 10 0 5 6 7 14 4 8 -3 17 1 20 9 3 9 14 14 23 13 10 -2 33 5 51 14
17 10 32 15 32 12 0 -3 9 -1 21 5 11 7 40 12 63 12 23 0 49 4 57 9 18 11 26
11 33 1z m-1509 -36 c17 -7 48 -11 70 -9 22 1 59 -5 81 -14 l41 -17 -5 -66
c-5 -74 -7 -77 -25 -61 -8 6 -53 11 -108 11 -52 0 -101 1 -111 1 -18 0 -29 32
-23 64 2 11 4 42 4 68 1 53 0 53 76 23z m301 -66 c6 -6 33 -16 60 -23 27 -7
48 -15 47 -19 -2 -5 -3 -29 -3 -54 l0 -46 -31 7 c-54 12 -63 13 -96 14 -29 1
-33 4 -33 29 0 60 12 102 29 102 9 0 22 -5 27 -10z m209 -84 c11 -8 36 -12 58
-10 30 2 37 0 37 -15 0 -10 7 -34 15 -54 l14 -35 -32 8 c-133 32 -141 38 -130
90 6 34 10 36 38 16z m-977 -66 c-4 -61 -47 -48 -48 14 0 5 3 7 6 3 4 -3 13 0
21 8 21 22 24 19 21 -25z m157 27 c22 -6 43 -11 48 -13 4 -1 34 -2 67 -3 l60
-1 -1 -49 c-3 -71 -7 -75 -75 -67 -33 4 -89 9 -126 12 -61 6 -66 8 -71 31 -3
14 -2 43 0 63 5 32 9 38 32 38 14 0 44 -5 66 -11z m415 -37 c0 -4 10 -5 23 -3
37 6 45 -8 48 -87 3 -88 16 -83 -155 -54 l-108 18 6 45 c3 24 6 53 6 65 0 20
5 22 90 22 50 1 90 -2 90 -6z m223 -34 c32 -7 61 -16 64 -20 3 -3 7 -33 8 -67
l2 -61 -46 8 c-25 4 -62 9 -81 9 l-35 2 -3 72 c-4 82 -7 80 91 57z m237 -58
c8 -4 27 -9 43 -12 28 -7 29 -9 31 -98 l1 -36 -50 5 c-27 3 -68 14 -90 25
l-40 20 2 62 c1 33 2 61 2 62 1 1 85 -22 101 -28z m204 -88 c15 -23 43 -59 62
-80 l35 -39 -33 9 c-18 6 -45 10 -60 10 -16 0 -28 4 -28 9 0 5 -8 7 -18 4 -17
-4 -19 2 -21 55 -1 50 1 61 16 65 10 3 19 5 19 6 1 0 13 -17 28 -39z m-986 14
c81 -8 78 -4 85 -107 3 -49 1 -57 -12 -52 -36 14 -100 21 -115 13 -9 -5 -30
-5 -50 0 -18 6 -45 7 -60 5 -14 -3 -26 -1 -26 3 0 5 -2 42 -3 82 l-3 74 56 -6
c30 -3 88 -8 128 -12z m307 -60 c29 -8 59 -12 68 -9 13 6 15 -4 16 -60 l0 -67
-72 6 c-40 3 -88 7 -107 9 -19 3 -42 5 -51 6 -13 1 -16 15 -18 71 l-2 71 57
-6 c32 -3 81 -12 109 -21z m278 -20 c15 -3 27 -6 27 -7 9 -111 12 -167 9 -167
-2 0 -20 5 -39 10 -19 6 -53 13 -74 15 -22 2 -43 9 -47 16 -4 7 -7 43 -7 80
l0 68 52 -4 c28 -3 63 -8 79 -11z m177 -53 c30 -7 64 -14 75 -16 18 -4 20 -11
18 -76 -2 -40 -4 -74 -6 -76 -2 -2 -20 4 -40 12 -20 8 -57 15 -82 15 l-45 0
-1 38 c-1 20 -2 58 -3 84 -1 38 2 45 14 38 8 -4 40 -13 70 -19z m269 -70 c12
-7 26 -9 31 -6 6 4 10 -24 10 -74 0 -45 -1 -81 -2 -81 -2 0 -26 9 -54 20 -29
10 -54 17 -57 14 -3 -3 -15 -3 -26 1 -19 6 -21 14 -21 77 l0 70 49 -5 c27 -3
58 -10 70 -16z m-946 -31 c9 -8 15 -36 21 -108 l5 -53 -47 7 c-77 11 -85 13
-92 24 -4 6 -14 8 -24 4 -24 -9 -56 36 -81 116 -6 20 -4 22 14 17 11 -3 42 0
68 7 46 12 115 5 136 -14z m1093 -17 c11 -16 31 -48 44 -73 13 -25 35 -57 49
-73 18 -20 22 -30 14 -38 -8 -8 -29 -3 -77 21 -36 17 -66 36 -67 41 -5 46 1
149 9 149 5 0 17 -12 28 -27z m-858 -9 c57 -5 72 -10 72 -23 1 -9 3 -46 6 -82
l6 -66 -54 -2 c-29 -1 -81 6 -114 16 l-62 17 -9 79 -9 79 46 -6 c25 -3 78 -8
118 -12z m265 -55 c33 -12 36 -16 40 -63 2 -28 9 -68 15 -88 9 -35 8 -38 -12
-38 -27 0 -116 24 -142 38 -17 9 -20 22 -23 92 l-2 82 44 -5 c24 -3 60 -11 80
-18z m239 -56 c12 -4 18 -24 25 -86 l8 -82 -28 -3 c-16 -2 -34 1 -40 6 -7 5
-29 12 -50 16 -23 4 -37 12 -34 19 2 7 -2 32 -9 57 -8 25 -14 57 -14 72 0 41
16 41 142 1z m-1123 -79 c18 -10 45 -28 58 -39 l24 -20 -31 -2 c-17 -1 -48
-17 -71 -35 -61 -49 -309 -302 -323 -329 -29 -58 -49 -118 -56 -176 -4 -34
-15 -76 -24 -94 -9 -18 -16 -45 -16 -61 0 -34 -45 -172 -68 -205 -8 -13 -11
-31 -7 -40 7 -19 17 -81 16 -98 0 -5 -3 -35 -6 -65 -3 -30 -7 -83 -9 -117 -2
-34 -7 -67 -11 -73 -4 -6 -9 -55 -11 -108 -3 -53 -7 -133 -9 -177 -2 -44 -6
-109 -8 -145 -2 -45 -11 -82 -30 -121 -15 -31 -27 -60 -27 -66 0 -5 -13 -30
-30 -54 -16 -24 -30 -53 -30 -64 0 -11 -7 -31 -16 -43 -9 -13 -14 -31 -11 -42
2 -10 1 -24 -4 -31 -6 -11 -9 -9 -9 7 0 12 -12 39 -27 60 -29 43 -76 152 -88
202 -3 17 -11 35 -16 38 -12 7 -42 74 -38 87 0 1 -4 15 -10 30 -6 15 -14 42
-17 60 -6 31 -8 51 -17 143 -2 23 -8 47 -13 55 -4 8 -11 39 -15 69 -4 30 -20
123 -34 205 -53 299 -65 467 -42 556 12 44 13 67 5 100 -18 77 -10 144 24 217
17 37 40 78 50 91 10 13 18 37 18 52 0 19 11 40 33 62 18 19 43 50 57 70 27
40 56 55 73 38 18 -18 39 -13 86 19 25 17 50 29 57 26 7 -3 18 2 24 10 7 8 24
14 38 14 31 0 143 30 157 41 5 5 22 9 38 9 15 0 38 6 50 12 12 7 45 17 72 23
48 10 53 8 130 -31 44 -22 95 -49 114 -60z m1313 30 c15 -8 34 -14 43 -14 11
0 15 -10 15 -39 0 -21 3 -52 6 -68 l6 -30 -59 8 c-62 7 -94 17 -104 31 -3 5
-7 30 -8 56 -1 26 -4 55 -7 64 -5 15 0 17 38 12 24 -4 55 -13 70 -20z m-900
-50 c15 -10 7 -122 -10 -129 -10 -4 -13 -14 -8 -37 l6 -31 -21 19 c-12 10 -32
43 -45 72 -13 28 -28 52 -32 52 -5 0 -14 11 -20 25 -13 29 -15 42 -6 32 4 -3
15 0 26 7 14 10 30 11 60 4 23 -5 45 -11 50 -14z m1058 -16 c0 -5 4 -7 10 -3
5 3 32 -6 60 -20 47 -24 50 -27 50 -65 0 -30 -4 -40 -16 -40 -13 0 -110 37
-123 46 -6 5 -18 79 -14 91 5 13 33 6 33 -9z m-943 1 c15 -6 56 -12 91 -13 38
-2 69 -9 77 -17 7 -8 16 -38 20 -68 7 -49 6 -53 -11 -47 -35 11 -145 23 -169
18 -29 -5 -41 16 -49 86 -6 55 -4 58 41 41z m348 -74 c76 -17 85 -25 85 -72 0
-35 -15 -42 -48 -24 -9 5 -39 5 -67 1 -27 -4 -53 -5 -56 -2 -4 4 -9 33 -12 65
-5 51 -4 57 11 53 9 -3 48 -12 87 -21z m805 -37 c0 -6 8 -20 18 -31 16 -20 16
-20 -1 -14 -10 4 -23 7 -28 7 -5 0 -9 14 -9 31 0 17 4 28 10 24 6 -3 10 -11
10 -17z m-1517 -3 c20 -8 48 -15 63 -15 18 0 41 -14 72 -46 26 -25 55 -50 67
-56 44 -23 105 -86 122 -128 20 -47 52 -80 77 -80 50 0 67 -13 92 -69 39 -86
50 -104 93 -152 23 -24 41 -47 41 -51 0 -4 18 -26 41 -50 22 -24 47 -59 56
-78 8 -19 30 -51 48 -70 28 -29 51 -68 60 -100 10 -38 122 -188 145 -195 17
-5 28 -23 86 -137 13 -27 31 -48 39 -48 8 0 15 -4 15 -9 0 -8 45 -70 76 -105
9 -11 35 -49 57 -85 22 -36 48 -75 58 -86 26 -28 65 -84 89 -128 11 -21 38
-50 59 -65 33 -23 42 -37 57 -92 9 -36 18 -79 19 -97 1 -21 14 -46 38 -73 21
-22 37 -44 37 -50 0 -15 -43 -35 -48 -22 -2 6 -10 8 -18 5 -8 -3 -20 0 -28 6
-7 6 -16 8 -19 4 -4 -3 -16 2 -26 11 -13 12 -27 15 -40 11 -14 -4 -33 1 -55
14 -18 11 -35 19 -37 16 -8 -7 -136 130 -155 166 -75 145 -98 185 -110 192 -8
4 -25 30 -39 57 -14 27 -31 53 -38 57 -7 4 -32 34 -56 65 -23 32 -52 65 -66
74 -13 9 -35 34 -49 57 -13 23 -37 52 -53 63 -16 12 -49 49 -73 83 -25 33 -49
61 -55 61 -16 0 -71 56 -105 104 -24 36 -49 54 -132 96 -57 28 -121 69 -143
89 -22 21 -62 50 -89 66 -28 15 -66 45 -87 66 -20 20 -56 47 -80 60 -24 12
-46 25 -49 29 -3 3 -29 20 -57 36 -29 16 -53 32 -53 37 0 4 -6 7 -14 7 -8 0
-16 3 -18 8 -1 4 -23 18 -48 31 -25 13 -66 41 -91 62 -26 22 -52 39 -59 39
-15 0 -90 41 -90 49 1 12 26 47 53 76 239 251 285 291 337 298 19 2 38 5 41 5
4 1 23 -5 42 -13z m912 -1 c65 -11 72 -14 83 -38 14 -31 -6 -51 -40 -40 -13 4
-40 6 -60 5 -36 -2 -38 0 -38 28 0 16 -3 37 -7 47 -5 14 -3 16 13 10 10 -4 33
-10 49 -12z m201 -24 c15 -6 46 -11 70 -12 l42 -2 0 -44 c0 -35 -3 -42 -16
-38 -24 7 -103 19 -127 20 -16 1 -20 9 -23 44 -3 46 4 50 54 32z m260 -52 l64
-22 0 -44 c0 -40 -1 -43 -22 -36 -13 4 -34 8 -48 9 -14 1 -37 6 -52 10 -26 7
-28 11 -28 56 0 29 4 49 11 49 6 0 40 -10 75 -22z m-838 -28 c2 -6 9 -10 16
-10 16 0 36 -57 36 -102 0 -35 -2 -36 -44 -42 -24 -4 -54 -2 -67 3 -47 18 -64
24 -79 25 -9 1 -16 13 -18 31 -1 17 -7 48 -13 69 -8 28 -8 41 0 45 16 10 165
-7 169 -19z m226 -25 c25 -4 46 -12 46 -19 0 -6 3 -44 6 -83 l6 -73 -46 0
c-25 0 -64 7 -86 16 -39 16 -40 17 -40 64 0 27 -4 60 -10 74 -8 22 -6 25 18
28 28 4 31 4 106 -7z m814 -20 c47 -27 88 -78 76 -96 -6 -10 -62 5 -104 28
-31 16 -35 24 -38 62 -2 24 0 42 5 40 4 -2 32 -17 61 -34z m-570 -10 c3 -3 6
-38 6 -78 l1 -72 -57 0 c-32 0 -62 5 -67 10 -5 6 -11 43 -14 83 l-4 73 65 -5
c36 -3 67 -8 70 -11z m110 -22 c18 -7 31 -9 75 -12 31 -1 41 -20 49 -93 l6
-48 -47 1 c-25 0 -62 3 -81 7 -33 7 -35 9 -36 47 0 22 -3 57 -6 77 -7 38 -6
39 40 21z m300 -73 c29 -11 32 -16 32 -55 0 -24 3 -50 6 -59 5 -14 2 -14 -35
-1 -23 8 -57 15 -76 17 -30 2 -35 6 -35 28 0 14 -3 41 -6 61 l-6 36 43 -7 c24
-4 59 -13 77 -20z m159 -51 c27 -12 55 -25 63 -29 8 -4 16 -23 18 -44 3 -35 2
-36 -32 -36 -29 0 -76 14 -95 27 -9 6 -17 103 -9 103 4 0 29 -10 55 -21z
m-978 -41 c13 -35 28 -128 21 -128 -12 0 -37 34 -64 87 -23 47 -24 52 -8 56
34 9 43 7 51 -15z m184 -19 l47 2 0 -63 0 -63 -47 3 c-94 6 -98 9 -110 96 l-5
38 33 -7 c19 -5 55 -7 82 -6z m209 -22 c35 0 37 -2 47 -43 18 -70 19 -69 -63
-71 l-74 -1 -6 45 c-11 83 -10 86 27 77 17 -4 49 -7 69 -7z m758 -36 c7 -24 6
-31 -3 -28 -7 2 -13 19 -15 38 -4 40 5 35 18 -10z m-500 12 c2 -2 7 -31 10
-64 l6 -59 -48 0 c-26 0 -60 5 -75 12 -15 7 -29 12 -30 13 0 0 -4 25 -8 56
l-7 56 74 -5 c40 -2 75 -6 78 -9z m179 -31 c24 -5 47 -16 52 -23 8 -13 13
-119 5 -119 -2 0 -20 7 -39 15 -20 8 -52 15 -71 15 -19 0 -37 4 -40 8 -3 4 -7
34 -10 66 l-6 58 32 -5 c18 -3 53 -10 77 -15z m235 -53 c2 -2 10 -28 19 -57
14 -48 14 -54 -1 -69 -11 -10 -17 -12 -20 -4 -2 6 -10 11 -18 11 -8 0 -14 5
-14 10 0 6 -6 10 -12 8 -7 -1 -23 2 -35 6 -18 6 -23 16 -24 42 -1 19 -2 40 -3
47 -1 6 -1 15 0 18 3 6 101 -4 108 -12z m157 -88 c6 -20 15 -41 20 -46 12 -16
-6 -39 -22 -29 -8 5 -20 9 -28 11 -20 3 -29 20 -29 62 -1 31 3 36 23 37 19 2
26 -5 36 -35z m-995 23 c17 -4 22 -18 31 -77 5 -40 9 -74 7 -75 -1 -2 -20 -1
-42 3 -29 5 -43 13 -53 33 -7 15 -20 35 -27 44 -25 29 -21 62 8 69 34 9 52 10
76 3z m215 -10 c16 -5 28 -48 34 -128 3 -38 3 -38 -27 -32 -17 3 -47 6 -68 6
-43 0 -47 6 -56 83 -4 29 -8 55 -10 59 -7 11 94 21 127 12z m210 -34 c34 0 54
-37 63 -115 3 -27 9 -61 12 -74 6 -19 4 -22 -7 -15 -8 5 -16 9 -19 9 -3 1 -21
6 -40 12 -19 6 -52 14 -72 18 -42 7 -43 9 -52 114 l-6 64 46 -7 c26 -3 59 -6
75 -6z m194 -37 c22 -8 47 -18 55 -23 13 -6 33 -59 44 -115 2 -11 7 -32 11
-46 l6 -25 -83 14 c-65 12 -84 19 -85 32 -2 20 -22 136 -30 169 -6 26 2 25 82
-6z m205 -50 c8 -3 24 -6 35 -7 25 -1 45 -53 41 -105 -2 -20 1 -41 6 -48 6 -7
2 -13 -11 -18 -12 -3 -21 -10 -21 -14 0 -5 -15 -2 -34 7 -35 16 -46 41 -51
112 -1 14 -7 35 -13 47 -22 40 -9 47 48 26z m691 -25 c38 -11 38 -10 115 -153
56 -102 81 -159 89 -195 4 -19 12 -40 17 -47 5 -7 7 -17 3 -23 -3 -5 -2 -10 4
-10 10 0 18 -19 26 -59 5 -28 47 -100 126 -219 38 -57 69 -107 69 -111 0 -9
30 -65 58 -110 11 -19 19 -38 17 -42 -3 -4 1 -9 8 -12 7 -2 13 -15 14 -29 2
-13 14 -45 27 -72 14 -27 23 -53 20 -58 -3 -4 -1 -8 4 -8 13 0 50 -63 58 -98
4 -15 12 -36 18 -47 7 -11 25 -66 41 -122 16 -57 32 -103 37 -103 5 0 7 -4 4
-9 -10 -16 -55 12 -73 46 -9 17 -27 36 -40 42 -27 13 -112 128 -133 181 -8 21
-27 52 -42 68 -33 38 -98 163 -101 194 -1 14 -10 32 -19 42 -10 10 -18 22 -18
28 0 6 -10 25 -23 42 -13 17 -35 52 -50 79 -16 26 -32 47 -38 47 -5 0 -15 12
-21 28 -7 15 -22 37 -33 49 -11 12 -33 37 -50 57 -16 20 -34 36 -38 36 -12 0
-37 27 -37 39 0 6 -5 11 -12 11 -6 0 -27 17 -47 38 -58 60 -123 111 -152 117
-16 4 -29 15 -32 27 -4 13 -11 19 -21 15 -8 -3 -18 -2 -21 3 -3 5 -31 20 -62
35 -51 23 -68 25 -155 23 -54 -1 -98 -6 -98 -10 0 -4 -12 -8 -26 -8 -14 0 -34
-5 -45 -11 -11 -6 -25 -9 -32 -6 -22 7 142 154 243 217 30 19 57 38 58 42 2 5
11 8 20 8 10 0 33 10 52 22 53 33 216 48 291 26z m-484 -33 c12 -12 9 -16 -16
-30 -39 -20 -38 -20 -43 21 -4 33 -3 35 20 29 13 -3 31 -12 39 -20z m-785 -56
c10 -5 18 -18 18 -27 0 -10 9 -43 20 -75 26 -75 26 -77 -11 -67 -18 5 -52 8
-78 5 -47 -4 -69 9 -50 31 11 13 -7 110 -22 120 -22 13 -5 21 48 22 31 0 65
-4 75 -9z m188 -54 c14 -7 40 -16 58 -20 17 -3 32 -12 33 -18 2 -28 10 -73 16
-87 17 -40 14 -48 -15 -39 -15 4 -55 13 -89 20 -64 12 -67 15 -77 71 -3 15 -7
32 -11 38 -4 6 -8 21 -11 35 -4 22 -2 23 33 18 21 -3 49 -11 63 -18z m310 -70
c4 -3 11 -20 14 -40 8 -42 -17 -100 -40 -91 -8 3 -14 0 -14 -6 0 -9 -3 -9 -12
0 -7 7 -22 12 -34 12 -26 0 -33 8 -38 47 -2 15 -6 35 -9 43 -3 8 -8 27 -11 41
l-6 26 71 -14 c39 -7 74 -15 79 -18z m-458 -115 c25 0 29 -6 43 -57 9 -32 23
-75 31 -96 17 -46 17 -47 0 -47 -23 0 -116 123 -116 153 0 7 -8 23 -17 36 -16
24 -16 24 8 18 13 -4 36 -7 51 -7z m152 -28 c2 -4 23 -9 46 -10 55 -4 87 -26
96 -65 3 -18 11 -37 16 -44 5 -7 9 -22 7 -35 -2 -25 9 -60 24 -69 5 -4 8 -11
6 -17 -3 -6 -28 -1 -64 13 -33 13 -72 26 -86 29 -20 4 -29 15 -38 48 -7 23
-19 51 -26 62 -7 12 -16 38 -19 59 -6 32 -4 37 13 37 11 0 22 -4 25 -8z m769
-32 c55 -27 72 -51 58 -77 -5 -10 -12 -61 -16 -113 -3 -52 -10 -108 -15 -125
-14 -48 -22 -122 -26 -235 -4 -125 -22 -247 -40 -275 -8 -11 -14 -26 -14 -34
0 -27 -32 -51 -69 -51 -75 0 -87 -11 -97 -89 -3 -18 -1 -38 5 -45 5 -6 17 -38
26 -71 10 -33 21 -64 26 -70 14 -14 11 -52 -4 -58 -28 -11 -67 6 -85 37 -22
39 -33 67 -67 181 -15 50 -34 101 -42 114 -8 13 -16 34 -18 46 -1 13 -14 34
-29 48 -17 16 -29 40 -32 64 -3 21 -12 52 -20 69 -7 16 -16 50 -20 75 -3 24
-14 71 -24 104 -19 66 -26 185 -10 185 5 0 10 20 10 44 0 53 30 113 79 160 20
19 47 50 61 69 23 33 81 63 105 56 6 -2 20 2 33 9 12 7 26 11 30 8 4 -3 13 -1
20 3 21 13 126 -4 175 -29z m-533 -45 c0 -8 -4 -15 -10 -15 -5 0 -10 7 -10 15
0 8 5 15 10 15 6 0 10 -7 10 -15z m-125 -221 c28 -15 54 -30 59 -35 5 -4 10
-49 12 -99 1 -50 7 -97 13 -104 8 -10 9 -16 1 -21 -5 -3 -10 -2 -10 2 0 5 -12
22 -27 39 -16 16 -34 42 -40 57 -7 15 -19 27 -28 27 -8 0 -17 12 -21 28 -3 15
-12 51 -19 80 -15 62 -12 63 60 26z"/>
</g>
</svg>
