<?xml version="1.0" standalone="no"?>
<!DOCTYPE svg PUBLIC "-//W3C//DTD SVG 20010904//EN"
 "http://www.w3.org/TR/2001/REC-SVG-20010904/DTD/svg10.dtd">
<svg version="1.0" xmlns="http://www.w3.org/2000/svg"
 width="545.000000pt" height="477.000000pt" viewBox="0 0 545.000000 477.000000"
 preserveAspectRatio="xMidYMid meet">
<metadata>
Created by potrace 1.16, written by Peter Selinger 2001-2019
</metadata>
<g transform="translate(0.000000,477.000000) scale(0.100000,-0.100000)"
fill="#000000" stroke="none">
<path d="M2116 4501 c-20 -23 -21 -51 -2 -93 10 -25 16 -65 16 -120 0 -94 15
-210 31 -251 7 -15 10 -29 8 -32 -6 -5 -73 27 -78 38 -2 4 -13 13 -25 18 -11
5 -32 16 -46 24 -29 17 -59 19 -79 6 -12 -8 -12 -19 4 -78 10 -37 21 -72 25
-78 10 -14 29 -100 35 -165 8 -85 11 -101 33 -165 11 -33 26 -96 32 -140 6
-44 18 -93 25 -110 7 -16 28 -74 46 -129 21 -63 42 -109 61 -130 16 -17 43
-58 60 -92 16 -33 54 -87 84 -119 30 -32 73 -81 97 -109 23 -28 57 -64 76 -81
36 -31 91 -102 91 -116 0 -8 -466 -4 -510 4 -14 3 -56 8 -95 12 -108 10 -105
8 -100 68 3 29 7 66 10 82 17 108 17 135 1 141 -30 11 -113 -59 -193 -164 -11
-15 -12 -15 -13 -1 0 9 6 29 14 45 24 50 28 94 9 101 -19 7 -48 -9 -49 -28 0
-8 -5 -30 -11 -49 -15 -44 -18 -99 -8 -123 6 -15 15 -18 38 -13 16 3 35 12 41
20 34 43 101 116 106 116 10 0 -1 -174 -12 -181 -18 -11 -238 6 -238 19 0 2 6
10 14 16 8 6 16 22 18 36 2 19 -1 25 -15 23 -25 -2 -17 31 23 95 44 73 83 161
76 177 -7 18 -53 20 -59 3 -2 -7 -8 -10 -12 -6 -4 4 -3 13 2 20 23 28 84 188
81 210 -5 37 -42 35 -72 -4 -14 -18 -50 -64 -81 -103 -30 -38 -55 -76 -55 -82
0 -7 -3 -13 -8 -13 -4 0 -22 -23 -41 -51 -30 -47 -34 -49 -50 -35 -33 30 -66
14 -138 -67 -17 -20 -29 -38 -25 -41 3 -3 1 -6 -5 -6 -14 0 -93 -125 -114
-180 -14 -37 -23 -46 -48 -51 -17 -4 -31 -4 -31 -2 0 5 94 152 108 168 43 51
51 95 18 95 -18 0 -16 2 -106 -119 -38 -52 -72 -108 -76 -123 -5 -24 -10 -29
-32 -26 -25 3 -27 6 -26 53 1 36 13 75 43 138 22 48 41 90 41 93 0 3 9 18 19
33 28 39 37 81 18 81 -20 0 -76 -77 -122 -168 -48 -96 -65 -147 -65 -193 l0
-39 -50 0 c-49 0 -49 0 -56 36 -7 38 6 111 36 206 16 50 33 86 113 240 26 51
13 67 -25 31 -32 -31 -98 -136 -98 -157 0 -8 -6 -19 -14 -25 -7 -6 -19 -33
-26 -59 -17 -61 -26 -70 -34 -36 -4 16 -19 52 -33 81 -20 40 -32 53 -49 53
-42 0 -40 -24 11 -135 13 -30 29 -89 34 -132 5 -43 13 -86 17 -96 4 -12 1 -17
-10 -17 -9 0 -16 7 -16 15 0 24 -30 107 -57 160 -29 54 -114 168 -147 198 -20
18 -21 18 -38 -3 -24 -29 -23 -34 13 -74 43 -49 135 -176 151 -206 7 -14 20
-37 30 -51 10 -14 15 -29 11 -33 -3 -3 -84 -6 -179 -6 l-172 0 -5 -27 c-7 -36
17 -56 58 -48 37 7 172 13 476 20 237 5 298 11 393 41 125 39 257 47 383 23
32 -6 130 -14 218 -19 88 -4 176 -10 195 -13 72 -12 220 -20 393 -20 97 1 177
0 177 -1 0 -1 -9 -21 -20 -44 -11 -22 -20 -51 -20 -64 0 -13 -12 -59 -26 -103
-40 -122 -31 -272 22 -396 13 -31 24 -62 24 -68 0 -7 11 -36 24 -65 45 -98 41
-256 -10 -416 -21 -65 -24 -79 -34 -140 -22 -148 -41 -256 -51 -293 -6 -23
-14 -63 -19 -89 -5 -27 -11 -52 -15 -57 -3 -6 -8 -32 -10 -58 -3 -26 -7 -59
-10 -73 -7 -36 16 -75 44 -75 13 0 27 7 32 15 17 32 39 89 69 180 41 127 55
165 82 230 l23 55 2 -155 c2 -134 6 -165 27 -232 14 -42 30 -87 37 -100 8 -15
13 -77 13 -183 1 -88 5 -166 9 -172 10 -16 49 -17 65 -1 7 7 12 22 12 34 0 11
11 66 25 120 13 54 26 117 29 139 7 67 35 228 46 265 6 19 13 51 15 70 9 70
17 106 30 130 7 14 30 60 50 104 20 43 50 97 65 120 25 38 54 106 45 106 -2 0
3 19 11 43 13 35 24 106 27 180 2 23 3 22 38 -18 17 -19 54 -51 83 -70 45 -30
53 -33 71 -21 21 14 23 34 12 116 -8 51 -16 121 -24 198 -4 34 0 73 10 110 26
91 29 167 12 261 -15 83 -38 172 -56 219 -5 13 -9 32 -9 42 0 11 -4 20 -9 20
-8 0 -26 47 -23 62 2 9 -56 69 -91 94 l-29 20 49 2 c72 4 155 12 185 18 14 3
29 0 33 -5 3 -6 23 -9 43 -6 71 9 432 14 432 5 0 -18 34 -19 75 0 25 11 74 22
112 24 37 2 88 9 113 14 71 16 217 24 465 26 205 1 234 3 259 19 18 13 26 25
24 40 -3 19 -8 21 -38 17 -19 -3 -134 -5 -255 -5 l-220 0 2 51 c2 59 54 180
121 283 42 65 51 91 31 91 -6 0 -9 6 -6 14 3 8 3 16 0 19 -6 7 -87 -44 -129
-83 -18 -16 -38 -30 -44 -30 -5 0 -10 -4 -10 -10 0 -5 -16 -20 -36 -34 -20
-13 -52 -46 -70 -72 -19 -27 -38 -51 -42 -54 -4 -3 -23 -38 -42 -78 -36 -77
-63 -111 -35 -45 56 130 67 163 62 177 -8 22 -46 20 -53 -1 -3 -10 -21 -56
-41 -103 -19 -47 -39 -103 -44 -125 -10 -40 -23 -55 -48 -55 -9 0 -12 9 -9 30
6 38 -7 38 -40 0 -30 -34 -52 -39 -52 -12 0 21 30 114 39 122 3 3 15 23 26 44
11 22 41 69 68 104 56 76 58 92 17 92 -39 0 -110 -69 -175 -168 -45 -70 -60
-135 -34 -144 7 -2 9 -15 5 -35 -7 -31 -8 -31 -84 -37 -42 -4 -99 -8 -126 -11
l-49 -4 6 58 c2 32 9 66 14 77 53 110 93 180 136 236 28 37 53 66 55 63 2 -2
-3 -25 -12 -51 -9 -26 -16 -58 -16 -70 0 -13 -5 -26 -11 -29 -11 -8 -9 -125 3
-125 5 0 8 15 8 33 0 18 4 37 9 43 5 5 16 34 25 64 23 81 82 189 131 238 31
30 42 48 38 62 -11 43 -59 15 -117 -69 -17 -25 -34 -40 -42 -37 -15 6 -96 -75
-160 -161 -59 -79 -128 -235 -126 -288 l2 -40 -43 -2 c-62 -4 -70 4 -57 61 11
48 77 188 92 194 4 2 8 8 8 13 0 5 20 35 45 68 25 32 45 64 45 69 0 5 6 12 13
15 17 6 51 76 42 85 -7 7 -135 -126 -135 -139 0 -4 -13 -20 -28 -36 -51 -51
-126 -193 -143 -268 l-11 -51 -77 -12 c-42 -7 -111 -12 -153 -12 -42 0 -89 -5
-103 -10 -15 -6 -31 -7 -37 -4 -13 8 54 78 107 112 22 14 89 75 150 137 122
122 231 275 281 390 16 38 51 115 78 170 43 89 77 188 107 309 5 21 14 47 20
58 14 26 56 167 63 211 3 19 10 47 16 62 13 35 41 185 47 250 6 82 -2 109 -40
123 -49 17 -115 -2 -274 -82 -50 -25 -96 -46 -102 -46 -6 0 -11 -4 -11 -9 0
-10 -97 -71 -114 -71 -8 0 -19 -7 -26 -15 -7 -8 -20 -15 -29 -15 -18 0 -133
-122 -141 -150 -3 -9 -17 -31 -32 -49 -27 -31 -48 -34 -48 -7 0 23 -49 115
-82 152 -45 51 -165 172 -210 211 -20 18 -63 41 -95 52 -32 11 -83 30 -113 41
-30 12 -91 25 -135 30 -145 17 -169 21 -258 38 -79 16 -89 17 -101 3z m200
-115 c44 -8 105 -17 136 -21 105 -12 301 -91 316 -127 2 -4 9 -8 16 -8 6 0 19
-8 28 -17 9 -10 46 -46 82 -81 36 -35 74 -77 84 -94 37 -65 50 -93 46 -99 -5
-9 22 -60 37 -70 9 -5 6 -17 -10 -45 -13 -21 -36 -72 -53 -114 -38 -96 -67
-160 -73 -160 -6 0 -27 78 -31 115 -4 33 -8 52 -17 75 -3 8 -8 28 -12 45 -18
81 -85 188 -167 265 -61 58 -65 61 -119 88 -72 37 -120 18 -105 -41 5 -20 16
-29 49 -38 42 -11 83 -37 146 -94 86 -78 157 -222 198 -405 3 -14 12 -33 20
-42 18 -20 11 -79 -10 -97 -11 -8 -21 5 -47 59 -19 39 -37 70 -42 70 -4 0 -8
7 -8 16 0 8 -34 49 -76 90 -56 55 -97 86 -157 115 -136 67 -178 95 -200 130
-12 19 -25 36 -29 37 -5 2 -8 10 -8 18 0 8 -4 14 -9 14 -14 0 -67 116 -80 175
-6 28 -12 96 -13 153 -4 118 -13 110 108 88z m1517 -94 c7 -36 2 -71 -30 -202
-14 -58 -27 -114 -28 -125 -2 -11 -13 -47 -25 -80 -11 -33 -23 -67 -25 -75 -2
-8 -9 -28 -15 -45 -7 -16 -18 -52 -25 -80 -8 -27 -21 -63 -29 -80 -9 -16 -16
-38 -16 -47 0 -9 -4 -19 -9 -22 -5 -3 -12 -18 -15 -33 -10 -40 -30 -83 -38
-83 -5 0 -8 -9 -8 -19 0 -11 -4 -22 -9 -26 -5 -3 -17 -29 -27 -58 -9 -28 -30
-71 -45 -95 -16 -24 -29 -45 -29 -48 0 -23 -152 -209 -219 -268 -50 -44 -91
-87 -91 -96 0 -6 -6 -10 -13 -10 -7 0 -29 -13 -47 -30 -18 -16 -36 -30 -39
-30 -3 0 -31 -23 -61 -50 -47 -43 -56 -48 -62 -33 -13 35 -8 114 13 186 12 39
23 83 26 97 3 14 13 44 24 67 10 24 19 51 19 62 0 56 65 257 124 386 13 28 34
73 47 100 12 28 25 52 28 55 11 10 51 69 51 76 0 4 14 29 30 56 30 49 39 88
19 88 -13 0 -67 -59 -75 -82 -3 -10 -9 -18 -14 -18 -10 0 -70 -102 -99 -170
-13 -30 -40 -91 -61 -135 -20 -45 -47 -117 -59 -160 -12 -44 -26 -94 -32 -111
-5 -17 -9 -42 -9 -57 0 -15 -4 -27 -9 -27 -5 0 -12 -10 -16 -22 -6 -20 -8 -18
-15 17 -19 92 -21 184 -6 217 8 18 16 44 18 58 2 15 9 24 17 22 8 -2 11 3 8
12 -4 9 1 20 11 25 9 6 12 11 6 11 -11 0 6 74 27 112 5 10 9 23 9 29 0 7 13
33 28 58 16 25 35 64 42 86 7 22 23 60 36 85 13 25 24 50 24 56 0 7 22 36 50
65 27 30 50 59 50 66 0 25 124 133 189 165 36 18 69 38 73 43 4 6 8 7 8 2 0
-4 17 4 38 17 46 29 153 79 204 95 21 7 40 17 43 22 12 19 33 8 38 -19z
m-1708 -381 c71 -51 88 -61 108 -67 9 -4 17 -10 17 -15 0 -5 5 -9 11 -9 7 0
19 -8 28 -18 9 -9 34 -26 56 -37 22 -11 58 -34 80 -51 22 -17 60 -42 85 -57
46 -27 103 -80 124 -115 6 -11 22 -39 35 -63 13 -24 27 -46 31 -49 13 -8 70
-110 70 -124 0 -8 7 -27 15 -42 20 -39 19 -86 -5 -227 -11 -65 -20 -132 -20
-149 l0 -30 -32 39 c-30 36 -133 229 -173 325 -8 20 -22 43 -29 51 -15 14 -67
113 -65 122 0 4 -6 16 -14 28 -8 12 -19 39 -26 59 -7 20 -19 42 -27 48 -7 7
-14 25 -14 41 0 46 -63 64 -73 21 -7 -32 45 -155 173 -405 141 -279 176 -345
194 -367 19 -24 34 -62 41 -105 4 -22 11 -43 16 -46 6 -3 11 -25 12 -49 2 -35
-2 -45 -15 -48 -13 -2 -26 13 -48 59 -29 60 -60 96 -238 277 -34 35 -75 87
-91 116 -15 29 -47 78 -71 110 -61 80 -147 333 -151 441 -1 22 -8 53 -16 68
-13 27 -63 262 -63 300 0 21 2 20 75 -32z m-566 -977 c-64 -136 -93 -208 -104
-261 -6 -30 -10 -33 -45 -33 -35 0 -38 2 -33 23 3 12 9 27 13 32 4 6 33 60 65
120 32 61 75 134 97 162 21 29 38 55 38 58 -1 7 24 34 28 30 1 -1 -25 -60 -59
-131z m2952 87 c-51 -71 -116 -239 -123 -316 l-3 -30 -78 -3 -78 -3 32 63 c58
116 113 193 178 248 35 30 69 60 75 66 21 22 18 5 -3 -25z m-2893 -118 c0 -16
-11 -48 -24 -73 -37 -70 -53 -124 -47 -163 4 -32 2 -35 -16 -30 -12 3 -21 14
-21 25 0 32 22 112 35 128 7 8 25 43 41 78 15 34 29 62 30 62 1 0 2 -12 2 -27z
m-218 -28 c0 -3 -16 -27 -35 -54 -36 -50 -59 -130 -48 -169 4 -17 0 -22 -23
-27 -16 -4 -46 -12 -66 -20 l-38 -13 7 26 c3 15 19 50 34 77 16 28 36 64 45
80 24 44 85 105 106 105 10 0 18 -2 18 -5z m2784 -200 c3 -9 0 -15 -9 -15 -9
0 -12 6 -9 15 4 8 7 15 9 15 2 0 5 -7 9 -15z m-1102 -198 c4 -7 8 -9 8 -4 0
10 61 -24 97 -54 15 -13 35 -40 42 -59 8 -19 18 -39 22 -45 4 -5 10 -30 14
-55 4 -25 11 -49 15 -55 4 -5 10 -22 14 -36 8 -36 -8 -41 -104 -33 -73 6 -79
5 -89 -15 -28 -51 17 -81 121 -81 33 0 68 5 78 10 25 13 32 1 32 -56 0 -48
-16 -126 -38 -186 -11 -31 -11 -52 1 -133 8 -53 17 -100 20 -105 7 -12 -8 -20
-21 -12 -13 8 -64 87 -80 123 -16 36 -50 43 -74 16 -15 -16 -19 -33 -18 -76 1
-31 -1 -66 -5 -79 -3 -13 -9 -56 -12 -95 -3 -40 -8 -84 -11 -100 -7 -32 -45
-107 -78 -150 -25 -34 -66 -122 -66 -142 0 -7 -6 -15 -13 -18 -17 -6 -45 -105
-49 -167 -1 -25 -8 -58 -16 -73 -8 -15 -11 -35 -8 -43 3 -9 3 -21 -1 -27 -11
-17 -14 -35 -22 -102 l-6 -60 -16 30 c-36 68 -49 134 -51 260 0 54 3 71 14 73
8 2 21 14 29 29 13 23 12 27 -14 47 -25 20 -27 27 -27 92 0 92 -13 129 -51
144 -26 11 -32 10 -44 -6 -8 -11 -17 -32 -21 -48 -3 -16 -17 -52 -31 -80 -14
-28 -22 -40 -19 -26 3 14 11 57 17 95 6 39 17 93 25 120 20 66 54 251 54 293
0 38 16 41 92 18 55 -17 82 -12 102 20 23 34 9 60 -30 55 -7 -1 -33 8 -59 19
-52 22 -90 26 -101 9 -11 -18 -24 11 -24 54 0 20 -4 37 -9 37 -5 0 -13 15 -16
33 -4 17 -15 48 -25 67 -50 95 -70 250 -45 351 8 35 17 72 19 81 11 44 64 107
91 108 6 0 22 6 36 14 15 7 62 17 105 20 44 4 93 11 109 16 37 11 127 3 137
-13z"/>
<path d="M2694 2360 c-24 -9 -37 -53 -21 -69 6 -6 27 -11 47 -11 37 0 125 -24
144 -39 13 -11 56 4 56 19 0 14 -36 51 -75 77 -34 23 -120 37 -151 23z"/>
<path d="M3075 1470 c3 -5 8 -10 11 -10 2 0 4 5 4 10 0 6 -5 10 -11 10 -5 0
-7 -4 -4 -10z"/>
<path d="M2910 1406 c-7 -14 -10 -32 -6 -41 8 -23 68 -45 121 -45 49 0 62 12
51 53 -4 18 -18 26 -73 40 -84 21 -77 22 -93 -7z"/>
<path d="M370 2580 c0 -5 10 -10 23 -10 18 0 19 2 7 10 -19 13 -30 13 -30 0z"/>
<path d="M578 2583 c7 -3 16 -2 19 1 4 3 -2 6 -13 5 -11 0 -14 -3 -6 -6z"/>
<path d="M508 2573 c6 -2 18 -2 25 0 6 3 1 5 -13 5 -14 0 -19 -2 -12 -5z"/>
<path d="M408 2387 c-47 -22 -78 -65 -78 -108 0 -26 40 -99 54 -100 6 0 25 -2
42 -4 41 -6 115 32 132 67 15 33 7 90 -17 118 -9 11 -32 26 -51 34 -33 13 -40
13 -82 -7z m97 -77 c9 -10 15 -29 13 -42 -2 -19 -12 -24 -52 -32 -43 -8 -51
-6 -63 10 -16 22 -8 53 19 75 24 19 60 14 83 -11z"/>
<path d="M3788 2354 c-90 -29 -113 -46 -98 -75 12 -21 21 -24 36 -10 5 5 56
23 114 41 105 33 130 45 130 61 0 18 -106 8 -182 -17z"/>
<path d="M1852 2333 c-29 -6 -78 -72 -86 -119 -15 -77 41 -154 113 -154 88 0
191 86 191 160 0 66 -34 100 -102 100 -15 0 -30 5 -33 10 -6 10 -40 11 -83 3z
m158 -93 c23 -43 -35 -107 -107 -117 -34 -4 -43 -2 -57 18 -26 38 -21 77 12
91 75 30 138 34 152 8z"/>
<path d="M4490 2301 c-29 -4 -56 -17 -77 -35 -27 -24 -30 -32 -22 -53 5 -14
12 -42 15 -62 6 -45 45 -81 85 -81 61 0 157 70 185 137 19 44 18 59 -6 83 -21
21 -82 25 -180 11z m145 -60 c3 -6 -9 -26 -26 -46 -59 -66 -133 -87 -145 -40
-9 36 9 78 37 86 37 11 127 10 134 0z"/>
<path d="M1040 2293 c-14 -2 -59 -14 -100 -25 -41 -12 -109 -24 -150 -27 -68
-5 -75 -8 -78 -28 -8 -54 82 -53 258 2 47 14 114 28 150 31 91 8 97 10 75 34
-14 16 -30 20 -74 19 -31 -1 -67 -4 -81 -6z"/>
<path d="M4160 2199 c-36 -11 -86 -19 -112 -19 -47 0 -48 -1 -48 -30 0 -29 1
-30 50 -30 68 0 216 52 213 75 -3 20 -41 21 -103 4z"/>
<path d="M905 1980 c-16 -4 -46 -8 -66 -9 -38 -1 -55 -24 -39 -51 11 -18 189
16 197 37 11 29 -29 39 -92 23z"/>
<path d="M1845 1909 c-48 -6 -190 -51 -227 -70 -19 -10 -24 -44 -8 -54 5 -3
51 10 102 29 51 19 116 40 143 47 28 6 56 17 62 23 22 20 -16 33 -72 25z"/>
<path d="M976 1844 c-41 -41 -53 -87 -37 -137 19 -57 44 -72 120 -72 47 1 77
7 107 22 51 27 64 42 71 88 7 45 -10 80 -55 110 -27 18 -40 21 -68 15 -19 -4
-37 -4 -40 1 -13 22 -63 8 -98 -27z m198 -67 l21 -29 -33 -28 c-53 -44 -125
-45 -159 -2 -22 27 -14 41 40 67 65 32 103 29 131 -8z"/>
<path d="M640 1744 c-58 -13 -130 -26 -159 -28 -64 -7 -73 -13 -64 -45 6 -22
9 -23 67 -17 56 6 256 52 334 77 17 6 32 16 32 22 0 20 -99 16 -210 -9z"/>
<path d="M3785 1740 c-68 -15 -100 -49 -128 -139 -23 -74 -22 -87 16 -121 40
-36 70 -37 133 -4 86 45 183 169 168 216 -6 21 -68 53 -84 43 -5 -3 -24 -2
-42 3 -18 4 -46 5 -63 2z m120 -100 c-36 -69 -160 -155 -178 -122 -18 31 -16
63 4 79 12 10 27 24 35 31 20 19 84 40 122 41 l33 1 -16 -30z"/>
<path d="M4340 1685 c-41 -14 -94 -27 -118 -31 -43 -6 -67 -30 -53 -52 5 -9
21 -10 62 -2 117 22 230 75 214 101 -8 13 -19 11 -105 -16z"/>
<path d="M1735 1575 c-183 -48 -255 -81 -255 -116 0 -31 24 -33 76 -5 54 28
234 86 268 86 11 0 32 9 46 20 21 17 23 21 10 30 -22 14 -44 12 -145 -15z"/>
<path d="M4935 1563 c-32 -8 -167 -54 -202 -70 -35 -15 -45 -49 -18 -59 9 -4
53 8 98 26 136 54 168 71 165 88 -3 18 -15 22 -43 15z"/>
<path d="M769 1415 c-76 -19 -168 -61 -175 -80 -4 -9 0 -24 9 -32 15 -15 25
-12 115 30 55 26 106 47 113 47 24 0 40 16 33 33 -7 20 -20 20 -95 2z"/>
<path d="M3999 1389 c-23 -23 -24 -33 -5 -48 10 -8 27 -8 64 0 87 18 91 57 8
64 -37 3 -51 0 -67 -16z"/>
<path d="M955 1348 c-16 -12 -43 -30 -60 -39 -21 -11 -33 -28 -41 -55 -27 -96
51 -158 151 -120 35 14 47 26 64 61 25 54 26 99 2 140 -23 40 -74 46 -116 13z
m83 -82 c6 -50 -15 -83 -56 -90 -32 -5 -40 -2 -60 20 l-23 27 37 31 c65 54 97
58 102 12z"/>
<path d="M4390 1301 c-14 -5 -37 -6 -52 -4 -19 4 -29 0 -37 -16 -7 -12 -18
-21 -25 -21 -31 0 -25 -49 5 -50 4 0 13 -25 20 -56 19 -78 37 -89 109 -64 67
23 105 63 115 120 6 37 4 46 -16 66 -27 25 -81 37 -119 25z m85 -72 c16 -16
-16 -60 -58 -82 -46 -24 -55 -17 -63 45 l-7 47 34 4 c41 5 80 -1 94 -14z"/>
<path d="M1893 1232 c-48 -31 -78 -75 -67 -100 4 -9 8 -32 9 -51 3 -48 37 -75
85 -66 59 11 136 51 159 84 47 66 37 136 -22 145 -109 17 -121 16 -164 -12z
m161 -57 c12 -33 -70 -95 -126 -95 -23 0 -28 4 -28 25 0 37 21 75 44 80 67 14
102 11 110 -10z"/>
<path d="M475 1237 c-51 -16 -60 -23 -63 -51 -3 -23 0 -26 26 -26 16 0 51 7
78 15 27 8 68 15 91 15 32 0 45 5 53 20 8 15 6 21 -10 30 -24 13 -131 11 -175
-3z"/>
<path d="M1475 1192 c-114 -31 -125 -36 -125 -62 0 -32 27 -30 142 11 110 39
139 56 115 71 -16 11 -19 10 -132 -20z"/>
<path d="M3981 1076 c-68 -24 -94 -47 -74 -67 21 -21 185 42 191 74 5 24 -36
21 -117 -7z"/>
<path d="M3394 1023 c-12 -2 -42 -24 -67 -49 -55 -54 -70 -110 -42 -163 50
-97 214 -59 254 58 16 49 14 96 -6 113 -15 13 -109 51 -116 47 -1 -1 -12 -4
-23 -6z m104 -115 c2 -18 -6 -35 -28 -57 -38 -37 -72 -48 -107 -32 -23 10 -25
16 -20 52 8 58 18 66 89 64 60 -1 63 -2 66 -27z"/>
<path d="M472 859 c-88 -11 -203 -14 -261 -5 -57 9 -73 0 -64 -35 12 -46 219
-44 411 3 30 8 42 15 40 27 -4 17 -43 21 -126 10z"/>
<path d="M1325 794 c-27 -7 -62 -17 -77 -20 -36 -8 -51 -28 -43 -54 7 -23 22
-25 62 -9 15 6 37 15 48 20 11 4 36 10 56 13 47 8 74 28 66 50 -8 20 -44 20
-112 0z"/>
<path d="M554 684 c-29 -7 -77 -59 -108 -117 -28 -53 -27 -98 3 -129 52 -55
237 16 258 99 3 13 -1 38 -8 55 -7 18 -14 40 -14 50 -1 10 -7 24 -12 29 -12
12 -86 20 -119 13z m91 -114 c17 -19 17 -20 -13 -48 -16 -15 -48 -34 -70 -41
-39 -13 -82 -8 -82 10 0 16 60 70 94 85 42 18 50 17 71 -6z"/>
<path d="M4365 656 c-11 -7 -44 -16 -74 -19 -58 -7 -91 -29 -117 -80 -33 -62
16 -147 84 -147 99 0 168 48 202 137 32 87 16 122 -55 123 -11 0 -29 -6 -40
-14z m55 -58 c0 -7 -9 -32 -19 -55 -23 -49 -62 -73 -121 -73 -34 0 -42 4 -50
26 -12 30 2 64 28 65 33 1 58 8 103 28 52 24 59 25 59 9z"/>
<path d="M1221 616 c-77 -11 -100 -28 -87 -61 5 -14 13 -16 39 -10 17 3 68 13
112 21 85 15 106 27 87 46 -16 16 -65 18 -151 4z"/>
<path d="M3470 570 c-41 -11 -87 -19 -102 -20 -33 0 -41 -11 -32 -45 6 -25 10
-26 43 -20 20 4 77 20 126 37 50 16 96 32 104 34 23 7 -8 34 -38 33 -14 0 -60
-9 -101 -19z"/>
<path d="M5099 586 c-2 -2 -26 -7 -52 -9 -57 -7 -77 -20 -70 -47 6 -24 25 -25
106 -3 64 18 83 31 67 47 -10 10 -45 18 -51 12z"/>
<path d="M1700 533 c-25 -8 -56 -14 -69 -14 -64 3 -95 -91 -48 -143 23 -27 35
-30 104 -28 54 2 125 54 134 97 13 72 -43 113 -121 88z m67 -70 c9 -25 -99
-69 -134 -56 -8 3 -13 15 -11 27 6 41 133 66 145 29z"/>
<path d="M4018 405 c-2 -3 -18 -7 -34 -10 -79 -12 -99 -21 -102 -44 -6 -37 16
-41 85 -15 35 13 71 24 81 24 9 0 26 7 37 16 17 13 18 16 5 24 -16 10 -63 13
-72 5z"/>
</g>
</svg>
