<?xml version="1.0" standalone="no"?>
<!DOCTYPE svg PUBLIC "-//W3C//DTD SVG 20010904//EN"
 "http://www.w3.org/TR/2001/REC-SVG-20010904/DTD/svg10.dtd">
<svg version="1.0" xmlns="http://www.w3.org/2000/svg"
 width="529.000000pt" height="477.000000pt" viewBox="0 0 529.000000 477.000000"
 preserveAspectRatio="xMidYMid meet">
<metadata>
Created by potrace 1.16, written by Peter Selinger 2001-2019
</metadata>
<g transform="translate(0.000000,477.000000) scale(0.100000,-0.100000)"
fill="#000000" stroke="none">
<path d="M4253 4763 c-16 -6 -16 -17 -2 -66 8 -31 14 -38 30 -34 10 3 19 1 19
-4 0 -5 -6 -9 -14 -9 -18 0 -42 -38 -44 -73 -2 -37 -23 -73 -70 -125 -22 -24
-45 -55 -53 -70 -8 -15 -30 -43 -49 -63 -19 -19 -49 -51 -66 -70 -16 -19 -40
-43 -53 -54 l-22 -19 5 44 c15 131 17 299 4 319 -7 12 -16 21 -21 21 -4 0 -5
-4 -2 -10 10 -17 -4 -11 -25 10 -24 24 -43 25 -61 4 -11 -13 -10 -21 6 -51 22
-41 39 -50 60 -33 12 10 14 -4 11 -102 -4 -133 -16 -189 -62 -281 -8 -16 -14
-37 -14 -48 0 -18 -36 -96 -51 -109 -11 -10 -77 -126 -84 -147 -3 -13 -11 -23
-16 -23 -5 0 -8 -3 -7 -7 2 -13 -15 -47 -36 -70 l-21 -22 1 32 c1 29 3 47 20
132 21 109 24 136 18 185 -3 30 -8 91 -10 135 -6 139 -17 200 -36 199 -10 -1
-19 9 -23 25 -4 14 -13 33 -21 42 -16 18 -53 14 -55 -5 -5 -45 28 -110 58
-114 16 -2 22 -15 32 -70 25 -139 13 -381 -20 -427 -4 -5 -10 -43 -13 -83 -4
-47 -12 -79 -22 -89 -10 -10 -13 -25 -10 -39 6 -23 -34 -92 -82 -143 -9 -10
-24 -27 -32 -37 -37 -47 -164 -194 -167 -194 -2 0 -1 5 2 10 4 6 11 52 16 103
21 188 21 232 5 287 -9 29 -13 56 -11 60 12 20 7 92 -14 175 -5 22 -9 49 -9
60 2 62 -3 105 -14 117 -7 7 -22 30 -32 51 -16 32 -24 37 -53 37 -18 0 -34 -4
-34 -10 -1 -5 -2 -16 -3 -23 -2 -18 39 -67 56 -67 34 0 46 -32 46 -125 -1 -57
4 -100 12 -115 7 -14 15 -59 16 -100 4 -80 7 -105 18 -131 8 -17 3 -83 -7
-109 -14 -35 -28 -104 -38 -182 -14 -116 -40 -179 -118 -283 -37 -49 -76 -105
-86 -122 -19 -33 -38 -42 -50 -24 -3 6 2 14 12 19 9 6 18 24 19 42 2 27 -2 33
-27 42 -31 11 -30 28 1 28 26 0 33 28 12 55 -22 31 -34 31 -69 1 l-28 -25 23
-16 c21 -16 32 -43 12 -30 -5 3 -15 -6 -22 -20 -11 -25 -10 -29 22 -56 19 -16
30 -29 23 -29 -6 0 -13 4 -15 9 -4 12 -47 -6 -54 -23 -6 -16 61 -86 83 -86 7
0 10 -6 7 -13 -8 -21 24 -43 44 -31 12 8 21 5 37 -14 l21 -25 20 21 c15 16 18
32 16 66 -5 57 -30 62 -55 14 l-18 -33 6 30 c11 54 62 153 83 159 11 4 23 12
26 19 3 7 16 30 29 51 21 36 27 40 65 41 22 1 49 8 59 17 31 26 54 29 97 10
74 -33 106 -35 161 -7 43 22 115 32 115 15 0 -3 15 -14 34 -24 28 -15 45 -17
100 -11 58 6 66 5 66 -10 0 -24 34 -14 38 12 5 37 -32 54 -109 47 -59 -6 -71
-4 -110 19 -48 28 -77 29 -134 3 -52 -24 -103 -21 -163 10 -19 10 -34 9 -78
-3 -79 -23 -79 -19 -9 77 11 15 36 50 56 78 19 28 60 77 90 109 55 59 153 193
182 248 8 17 24 39 34 50 35 39 98 138 128 204 46 99 64 131 75 131 6 0 10 -5
10 -11 0 -14 88 -1 118 18 22 14 51 36 76 58 22 21 84 55 99 55 8 0 27 -6 42
-14 22 -12 34 -12 78 0 83 22 94 20 89 -18 -3 -22 0 -35 14 -45 22 -16 66 -17
82 -1 17 17 15 63 -3 78 -16 13 -21 60 -7 60 5 0 15 18 22 40 20 60 2 72 -45
31 -20 -17 -43 -31 -51 -31 -8 0 -13 -4 -10 -8 10 -17 -12 -32 -73 -51 -49
-15 -69 -17 -92 -9 -17 6 -42 8 -58 5 -28 -6 -123 -63 -152 -92 -9 -9 -32 -18
-51 -22 -51 -8 -60 14 -20 47 18 15 32 32 32 38 0 7 4 12 9 12 5 0 12 8 15 18
3 9 45 58 93 108 82 85 164 199 195 269 20 47 48 71 48 42 0 -21 33 -54 49
-49 25 8 51 36 51 54 0 20 -35 42 -56 34 -21 -8 -17 2 16 44 37 47 37 55 1 68
-23 8 -32 7 -46 -6 -10 -10 -15 -11 -11 -4 4 6 2 12 -3 12 -6 0 -11 9 -11 20
0 20 -26 26 -57 13z m87 -153 c0 -5 -5 -10 -11 -10 -5 0 -7 5 -4 10 3 6 8 10
11 10 2 0 4 -4 4 -10z"/>
<path d="M4151 4741 c-24 -16 1 -121 30 -121 23 0 37 31 32 72 -7 54 -28 70
-62 49z"/>
<path d="M4061 4673 c-19 -13 -22 -22 -17 -51 3 -19 11 -39 18 -43 37 -23 72
56 40 91 -17 18 -20 19 -41 3z"/>
<path d="M3941 4646 c-12 -15 2 -71 25 -95 20 -22 44 4 44 48 0 54 -40 82 -69
47z"/>
<path d="M3702 4527 c-13 -15 35 -83 58 -81 36 3 40 5 40 23 0 49 -71 91 -98
58z"/>
<path d="M4415 4510 c-4 -7 -20 -10 -35 -8 -19 3 -26 0 -23 -8 2 -7 0 -22 -7
-33 -13 -25 2 -61 26 -61 24 0 74 52 74 76 0 27 -25 50 -35 34z"/>
<path d="M1666 4488 c-24 -34 -20 -54 21 -93 35 -34 38 -35 50 -19 7 10 10 26
7 36 -3 11 0 25 6 33 7 8 8 15 3 15 -5 0 -16 11 -23 25 -17 31 -44 32 -64 3z"/>
<path d="M1522 4488 c-22 -22 -13 -47 22 -62 18 -8 37 -19 40 -25 7 -10 2 -12
-36 -15 -7 -1 -16 -10 -21 -20 -9 -23 17 -56 44 -56 28 0 69 22 69 37 0 7 5
13 10 13 23 0 7 41 -36 89 -46 51 -70 61 -92 39z"/>
<path d="M1793 4468 c-5 -7 -9 -35 -9 -62 1 -56 23 -80 54 -58 9 7 24 15 33
18 8 3 20 23 26 44 l10 39 -48 15 c-57 19 -54 19 -66 4z"/>
<path d="M3596 4465 c-3 -8 -1 -25 5 -38 37 -81 52 -92 82 -59 21 23 22 51 2
58 -8 4 -15 14 -15 24 0 30 -63 43 -74 15z"/>
<path d="M1953 4413 c-7 -3 -13 -12 -13 -21 0 -8 -7 -23 -15 -32 -20 -22 -11
-44 22 -59 14 -6 26 -10 27 -9 0 2 7 13 14 25 27 50 5 110 -35 96z"/>
<path d="M3427 4388 c-21 -11 -22 -61 -2 -78 8 -7 15 -18 15 -26 0 -15 35 -28
50 -19 14 9 12 47 -5 88 -16 39 -33 49 -58 35z"/>
<path d="M4404 4379 c-39 -25 -48 -53 -23 -75 22 -20 59 -26 59 -10 0 5 9 20
21 32 42 45 -4 88 -57 53z"/>
<path d="M2070 4372 c-22 -24 -40 -61 -40 -83 0 -21 41 -42 64 -33 14 5 14
-23 -2 -116 -11 -67 -5 -222 12 -299 6 -25 22 -41 42 -41 14 0 25 60 15 75 -9
11 -27 98 -36 164 -3 25 -3 75 1 112 6 66 7 67 36 65 35 -1 64 30 74 80 5 24
2 33 -11 38 -10 3 -25 0 -34 -7 -33 -29 -47 -27 -46 7 0 17 -4 33 -10 35 -5 2
-19 7 -30 11 -13 5 -25 2 -35 -8z"/>
<path d="M1684 4335 c-8 -19 3 -35 25 -35 18 0 20 -4 61 -97 14 -32 43 -70 72
-97 26 -24 48 -52 48 -63 0 -11 10 -28 21 -39 31 -27 65 -84 73 -121 5 -22 16
-36 37 -45 16 -7 29 -16 29 -20 0 -26 -175 49 -290 125 -52 34 -64 47 -62 65
4 26 -22 56 -42 49 -7 -3 -25 0 -39 8 -35 18 -47 7 -40 -43 6 -43 17 -50 71
-43 7 1 20 -5 28 -14 15 -15 14 -16 -7 -11 -35 8 -63 -17 -55 -48 6 -23 12
-26 49 -26 23 0 53 7 65 16 21 14 24 14 48 -5 15 -12 30 -21 35 -21 4 0 30
-13 56 -28 50 -30 161 -72 189 -72 8 0 22 -16 29 -35 8 -19 25 -39 36 -46 24
-13 68 -59 69 -73 0 -4 14 -26 31 -47 22 -28 26 -39 15 -39 -8 0 -17 4 -20 9
-3 4 -24 11 -46 15 -22 3 -40 10 -40 15 0 10 2 9 -125 46 -112 33 -191 45
-227 34 -16 -4 -30 -3 -33 2 -11 17 -54 9 -69 -12 -20 -29 -3 -56 35 -57 16 0
38 -4 49 -7 15 -5 22 0 30 20 9 22 14 26 38 21 15 -4 41 -8 57 -10 74 -9 200
-54 319 -112 131 -65 133 -66 165 -129 18 -36 43 -68 60 -78 15 -9 34 -31 42
-49 7 -18 26 -50 41 -72 15 -21 25 -43 22 -48 -7 -12 -86 -4 -259 26 -87 16
-111 20 -223 46 -30 7 -66 10 -81 8 -24 -3 -27 -1 -23 15 11 42 -61 51 -95 11
-27 -32 -22 -46 24 -68 26 -12 33 -20 24 -26 -10 -6 -9 -12 8 -29 11 -11 27
-21 35 -21 23 0 76 49 69 65 -7 20 8 19 121 -10 139 -35 267 -57 371 -64 l90
-6 40 -60 c22 -33 52 -76 68 -96 15 -20 27 -41 27 -46 0 -6 7 -16 15 -23 8 -7
13 -16 10 -20 -3 -5 -1 -11 5 -15 5 -3 10 -14 10 -23 0 -27 60 -93 99 -110 20
-8 30 -17 24 -19 -18 -6 -16 -28 3 -47 10 -10 33 -16 64 -16 48 0 111 -22 138
-47 7 -7 16 -13 20 -14 4 0 16 -3 27 -6 11 -2 43 -8 71 -13 74 -12 108 -37
121 -90 1 -8 8 -51 13 -95 14 -111 31 -186 47 -210 15 -22 18 -65 4 -65 -5 0
-17 -7 -25 -16 -14 -14 -28 -19 -76 -28 -8 -2 -24 3 -35 10 -11 7 -37 16 -58
19 -46 9 -52 18 -32 49 15 23 15 25 -2 34 -13 7 -26 6 -43 -4 -14 -7 -34 -13
-44 -14 -26 0 -56 -28 -49 -46 3 -8 -1 -14 -11 -14 -15 0 -55 -20 -123 -62
-26 -16 -33 -26 -33 -52 0 -28 -8 -40 -53 -75 -29 -23 -62 -56 -72 -72 -11
-16 -23 -29 -27 -29 -5 0 -8 -7 -8 -15 0 -8 -4 -15 -8 -15 -11 0 -102 -89
-100 -98 1 -4 -2 -33 -6 -64 -6 -44 -12 -58 -25 -58 -9 0 -29 -7 -45 -15 -15
-8 -33 -15 -40 -15 -12 0 -53 -56 -58 -80 -2 -8 -6 -17 -10 -20 -4 -3 -8 -21
-10 -40 -1 -19 -10 -42 -20 -51 -10 -9 -18 -20 -18 -25 0 -10 -49 -54 -60 -54
-4 0 -10 -8 -13 -18 -4 -9 -17 -35 -30 -57 -20 -32 -24 -49 -20 -86 l5 -45
-60 -50 c-92 -75 -105 -138 -49 -236 33 -59 118 -128 156 -128 16 0 19 -7 19
-49 1 -28 7 -62 16 -78 14 -28 83 -100 91 -96 9 4 72 -27 84 -41 14 -17 65
-15 115 4 15 5 29 10 31 10 3 0 2 -20 -2 -45 -5 -41 -3 -48 26 -75 17 -17 31
-34 31 -38 0 -13 102 -62 128 -62 12 0 38 -6 57 -14 44 -19 99 -12 152 20 34
20 52 24 86 20 159 -21 180 -20 236 8 37 19 57 36 64 57 6 16 15 29 19 29 4 0
8 11 8 25 0 24 2 25 74 25 41 0 77 4 81 10 3 5 11 7 18 4 14 -5 50 38 61 74 6
18 15 22 46 22 23 0 60 12 95 30 44 23 61 28 71 19 12 -10 44 -8 123 7 18 3
69 53 86 84 40 70 55 108 55 138 0 17 4 32 9 32 6 0 30 13 54 30 99 67 135
165 82 225 -14 16 -21 31 -16 33 6 2 11 8 11 12 0 5 15 24 33 42 76 75 75 175
-4 256 -61 62 -21 54 47 -10 32 -31 73 -84 96 -127 52 -93 88 -131 163 -171
49 -26 72 -33 125 -34 63 -1 65 0 68 26 3 26 -32 63 -50 52 -4 -3 -8 -1 -8 5
0 6 -7 8 -15 5 -15 -6 -55 49 -55 77 0 9 -12 29 -27 45 -14 15 -34 47 -44 69
-23 52 -39 66 -118 105 -59 30 -140 101 -141 125 0 12 -68 69 -92 78 -14 5
-18 18 -18 52 0 32 -5 47 -15 52 -17 6 -44 -22 -45 -45 0 -33 -70 -61 -70 -29
0 19 55 73 90 87 17 7 30 17 30 22 0 5 16 23 36 41 20 18 48 42 62 55 14 12
27 22 30 22 26 0 82 -33 116 -67 23 -23 54 -45 69 -48 43 -11 54 -35 47 -101
-5 -48 -3 -61 12 -76 35 -35 53 -19 52 43 -1 46 2 55 17 56 12 1 20 -8 24 -30
8 -35 31 -67 50 -67 16 0 37 47 25 55 -6 4 -10 13 -10 22 0 10 4 13 13 7 6 -5
26 -9 42 -9 26 0 30 4 33 30 3 27 -1 32 -31 43 -45 16 -67 15 -81 -3 -10 -14
-13 -14 -31 2 -11 10 -31 19 -45 21 -14 1 -37 16 -52 32 -15 17 -37 30 -48 30
-12 0 -42 22 -69 50 -26 28 -53 50 -60 50 -6 0 -11 5 -11 10 0 6 5 10 10 10 6
0 10 6 10 13 0 6 16 26 35 42 69 58 195 196 195 212 0 5 27 38 61 74 33 35 67
75 74 89 8 14 27 40 44 59 43 50 45 76 7 112 -17 16 -39 32 -48 35 -9 3 -22
20 -28 39 -23 68 -80 52 -86 -25 -3 -40 -80 -208 -110 -241 -8 -8 -14 -20 -14
-25 -1 -5 -10 -20 -21 -33 -15 -18 -23 -21 -31 -13 -18 18 -35 15 -58 -10 -25
-27 -26 -54 -1 -70 19 -12 19 -13 1 -47 -25 -49 -161 -176 -175 -165 -6 5 -33
25 -60 44 -26 19 -62 49 -79 66 -17 17 -38 33 -48 36 -13 5 -28 51 -32 100 -1
3 -4 10 -9 14 -16 16 -5 43 32 80 39 39 55 51 144 102 27 15 45 32 42 40 -2 6
2 12 9 12 16 0 39 51 34 77 -5 29 -43 28 -67 -3 -26 -32 -27 -61 -3 -67 16 -4
16 -5 -1 -6 -10 0 -15 -5 -12 -11 3 -5 -1 -10 -10 -10 -21 0 -76 -29 -144 -74
l-54 -36 -14 27 c-28 55 -76 82 -109 61 -16 -11 -4 -67 18 -83 12 -7 22 -25
23 -39 3 -23 -1 -26 -26 -26 -24 0 -29 -4 -29 -23 0 -13 5 -28 12 -35 8 -8 9
-12 1 -12 -6 0 -32 20 -56 45 -28 28 -56 46 -72 47 -20 2 -32 12 -45 39 -14
27 -31 40 -65 53 -25 10 -62 35 -81 56 -19 21 -55 48 -80 61 -24 13 -44 27
-44 31 0 17 124 85 193 105 42 12 86 27 97 33 27 15 14 33 -19 27 -123 -24
-187 -44 -260 -83 -72 -39 -90 -44 -128 -40 -24 3 -60 14 -80 26 -20 12 -55
23 -77 25 -43 4 -130 37 -140 53 -3 6 -29 16 -57 23 -45 12 -53 18 -66 52 -15
36 -19 39 -49 35 -22 -3 -34 0 -34 8 0 7 -13 26 -29 43 -16 17 -38 50 -49 73
-11 24 -32 57 -46 73 -15 17 -32 42 -39 58 -6 15 -15 27 -18 27 -3 0 -16 23
-29 50 -13 28 -29 50 -36 50 -20 0 -37 37 -21 43 10 4 14 35 14 116 1 60 6
134 12 163 6 29 13 78 16 108 3 30 10 88 17 127 11 65 14 71 27 59 16 -14 81
-11 81 4 0 4 9 10 21 13 33 9 20 41 -19 45 -22 2 -32 8 -32 21 0 25 -20 41
-53 41 -22 0 -28 4 -25 18 5 29 -21 52 -58 52 -28 0 -35 -5 -40 -25 -11 -44 1
-58 47 -52 38 5 40 4 25 -12 -15 -17 -14 -20 10 -44 15 -15 22 -27 17 -27 -15
0 -31 -66 -54 -220 -6 -36 -14 -74 -20 -85 -7 -16 -29 -204 -29 -254 0 -24
-29 8 -52 56 -11 24 -28 49 -37 56 -15 10 -39 44 -89 122 -6 11 -16 29 -21 40
-5 11 -32 43 -59 72 -28 28 -49 53 -46 55 2 3 -5 13 -16 23 -11 10 -20 24 -20
31 0 7 -18 30 -41 51 -40 38 -53 57 -83 121 -9 19 -29 46 -46 62 -16 15 -30
37 -30 49 0 12 -4 21 -8 21 -4 0 -13 15 -20 34 -7 19 -21 36 -32 39 -11 3 -23
13 -26 24 -17 49 -36 83 -49 83 -31 0 -105 109 -105 155 0 19 -44 55 -68 55
-13 0 -25 -7 -28 -15z m1820 -1935 c47 -28 89 -56 93 -63 11 -18 59 -47 77
-47 15 0 69 -61 61 -69 -3 -2 -15 3 -27 11 -13 8 -41 21 -63 28 -51 16 -65 28
-65 52 0 12 -12 24 -36 34 -20 8 -37 14 -39 12 -23 -28 -23 -47 0 -73 14 -14
23 -30 20 -34 -6 -11 65 -92 76 -86 5 4 6 0 4 -7 -3 -8 16 -34 42 -59 l48 -45
2 -87 c1 -48 -2 -87 -6 -87 -4 0 -16 19 -26 43 -24 54 -76 103 -117 110 -109
20 -105 18 -114 65 -4 20 -10 42 -14 47 -22 28 -30 305 -10 305 4 0 47 -23 94
-50z m1304 24 c27 -8 28 -33 2 -67 -11 -14 -20 -29 -20 -34 0 -5 -10 -18 -22
-29 -13 -11 -32 -33 -43 -48 -28 -40 -105 -134 -149 -181 -21 -22 -41 -47 -46
-55 -5 -8 -12 -12 -15 -8 -6 6 61 111 104 163 9 11 27 40 40 65 13 25 36 62
52 82 16 20 29 44 29 52 0 27 19 66 32 66 7 0 23 -3 36 -6z m-1106 -250 c15
-8 36 -14 48 -14 13 0 24 -10 31 -27 6 -16 17 -36 26 -45 11 -12 13 -27 8 -50
-3 -18 -8 -57 -10 -85 -1 -29 -8 -59 -14 -67 -6 -8 -11 -18 -10 -22 4 -15 -12
-88 -23 -111 -6 -13 -8 -26 -5 -30 7 -7 -11 -33 -23 -33 -14 0 2 95 21 122 18
26 19 35 9 105 -6 43 -11 95 -10 115 1 41 -39 115 -68 125 -9 3 -26 15 -36 26
-19 19 -19 19 5 12 13 -4 36 -14 51 -21z m165 -44 c39 -41 77 -52 100 -29 32
32 41 -114 10 -150 -8 -9 -20 -33 -27 -54 -11 -35 -48 -80 -98 -119 -26 -21
-39 -24 -24 -5 5 6 10 31 10 54 1 23 5 50 11 61 5 10 8 27 5 38 -3 10 2 39 11
63 16 47 20 87 8 93 -10 4 -56 88 -49 88 3 0 23 -18 43 -40z m182 5 c9 -33 1
-138 -12 -151 -3 -4 -5 22 -4 57 0 35 -3 79 -7 97 -12 45 10 42 23 -3z m-919
-134 c0 -5 15 -14 33 -20 21 -8 28 -14 20 -19 -7 -4 -14 -19 -15 -32 -2 -19 3
-26 31 -34 32 -9 33 -11 27 -47 -4 -24 0 -55 9 -81 19 -55 19 -68 0 -68 -9 0
-18 -7 -21 -15 -4 -10 -18 -15 -43 -14 -20 1 -56 -2 -81 -6 -40 -6 -49 -4 -88
24 -52 38 -82 93 -65 120 9 14 9 28 1 54 -18 59 2 81 115 123 71 26 77 27 77
15z m1036 -46 c20 -19 43 -35 51 -35 15 0 63 -49 62 -65 0 -16 -50 -51 -91
-64 -21 -7 -38 -16 -38 -20 0 -7 -45 -33 -60 -35 -3 -1 -26 -13 -52 -29 -26
-15 -49 -27 -52 -27 -13 0 -5 30 24 93 17 37 30 72 30 78 0 25 62 139 75 139
8 0 30 -16 51 -35z m-647 3 c51 -18 72 -43 98 -118 19 -53 21 -71 12 -97 -12
-39 -34 -47 -114 -45 -60 1 -148 34 -172 64 -6 7 -16 44 -22 81 -14 80 -4 102
39 94 16 -4 34 1 50 13 29 23 60 25 109 8z m431 -180 c-23 -35 -23 -31 -1 15
8 15 16 25 19 22 2 -2 -5 -19 -18 -37z m-1077 -38 c4 -17 1 -19 -21 -14 -33 8
-41 15 -24 21 6 3 12 12 12 20 0 21 26 0 33 -27z m1046 -34 c-6 -6 -13 -6 -21
2 -8 8 -8 15 2 28 13 15 15 14 21 -3 4 -10 3 -22 -2 -27z m-1047 -69 c4 -7 8
-19 8 -27 0 -9 5 -21 12 -28 9 -9 8 -15 -4 -24 -30 -25 -47 -159 -27 -222 23
-76 21 -87 -18 -105 -28 -13 -113 -5 -113 10 0 5 -8 9 -18 9 -35 0 -53 34 -59
110 -4 53 -3 71 5 66 16 -9 28 42 13 57 -15 15 -14 90 1 105 7 7 9 12 5 12 -4
0 1 9 10 20 11 13 24 18 39 14 14 -4 29 1 41 13 15 16 25 18 58 11 22 -5 43
-14 47 -21z m1206 7 c-16 -8 -28 -19 -28 -24 0 -6 -4 -10 -10 -10 -5 0 -10 4
-10 10 0 10 48 39 65 39 6 0 -2 -7 -17 -15z m-204 -25 c-32 -35 7 -93 47 -68
8 5 17 3 21 -4 12 -19 9 -37 -7 -37 -8 0 -15 -7 -15 -15 0 -11 -12 -15 -50
-15 -46 0 -54 4 -91 42 -60 62 -64 74 -33 95 27 17 108 33 132 25 10 -3 9 -9
-4 -23z m-334 -10 c0 -3 11 -11 25 -17 17 -8 25 -8 25 -1 0 6 6 5 14 -3 7 -7
23 -20 36 -28 24 -17 46 -57 44 -80 -1 -8 -2 -25 -3 -37 -1 -13 -17 -33 -41
-50 -22 -15 -40 -32 -40 -38 -1 -22 -39 -58 -75 -71 -34 -11 -40 -11 -50 3 -7
9 -26 17 -43 18 -38 2 -72 37 -72 75 0 15 -7 46 -15 70 -12 33 -12 44 -2 54 7
7 21 31 32 54 11 23 26 42 33 43 27 3 31 4 38 12 9 9 94 5 94 -4z m-444 -40
c3 -6 19 -9 35 -5 18 3 42 -1 64 -12 30 -15 35 -22 35 -53 0 -32 10 -68 40
-134 28 -64 6 -118 -64 -156 -41 -21 -125 -26 -144 -7 -7 7 -12 9 -12 4 0 -13
-59 34 -86 69 -30 39 -46 92 -45 150 0 31 5 43 26 59 15 10 31 29 35 42 14 37
100 68 116 43z m1204 -118 c67 -67 69 -74 14 -50 -27 12 -56 28 -65 36 -9 8
-50 20 -90 27 -65 11 -70 14 -44 20 17 4 35 9 40 11 6 1 32 0 60 -3 39 -4 56
-12 85 -41z m-265 5 c-11 -7 -31 -17 -45 -21 -22 -7 -24 -6 -11 9 8 9 20 15
27 12 7 -3 16 -1 19 4 4 6 11 10 18 10 6 0 3 -6 -8 -14z m-1454 -68 c1 -13 0
-33 -1 -46 -1 -13 4 -30 12 -39 7 -9 12 -18 10 -20 -1 -2 1 -15 4 -29 5 -21
-1 -33 -32 -65 -21 -21 -44 -39 -51 -39 -27 0 -42 44 -42 127 0 95 17 127 68
131 26 2 31 -1 32 -20z m1191 -31 c3 -6 30 -10 59 -10 39 1 63 -5 91 -23 21
-13 39 -28 39 -32 9 -56 8 -85 -2 -128 -11 -50 -14 -53 -78 -86 -52 -26 -74
-32 -104 -28 -34 4 -41 10 -51 41 -7 20 -22 50 -34 67 -12 16 -22 34 -22 39 0
4 -10 14 -22 22 -21 13 -21 13 11 43 17 16 40 46 50 67 19 37 48 50 63 28z
m358 -20 c25 -7 75 -29 111 -49 59 -33 68 -42 78 -80 10 -36 10 -49 -3 -80
-32 -75 -78 -107 -149 -104 -40 2 -53 7 -85 39 -34 35 -37 42 -39 100 0 34 -4
78 -7 97 -12 73 -12 73 14 81 34 9 29 10 80 -4z m375 -59 c17 -10 40 -22 52
-27 12 -6 30 -30 41 -54 11 -25 29 -54 40 -65 10 -10 22 -31 26 -45 6 -26 6
-26 -26 -15 -31 11 -67 43 -68 61 0 4 -18 32 -40 62 -22 30 -40 58 -40 64 0 5
-12 19 -27 30 -33 25 -5 18 42 -11z m-1500 -126 c22 -12 52 -26 68 -32 17 -6
27 -17 27 -30 0 -11 9 -25 20 -32 11 -7 20 -18 20 -24 0 -7 9 -14 20 -17 21
-5 27 -31 10 -42 -5 -3 -10 -16 -10 -29 0 -19 -6 -23 -35 -24 -19 -1 -43 -5
-53 -10 -9 -4 -35 -5 -57 -2 -29 4 -41 10 -43 25 -6 28 -23 47 -38 41 -19 -7
-37 50 -38 121 0 57 3 68 24 85 20 16 26 17 35 6 5 -8 28 -24 50 -36z m480 35
c40 -1 75 -21 75 -44 0 -7 4 -13 8 -13 5 0 15 -12 23 -27 8 -16 24 -38 37 -51
29 -30 28 -37 -10 -81 -44 -50 -65 -60 -131 -61 -89 0 -180 58 -213 136 -21
50 -17 69 19 108 37 40 56 46 112 40 22 -3 58 -6 80 -7z m-1070 -38 c4 -12 22
-38 39 -58 21 -23 37 -55 44 -90 11 -48 10 -55 -5 -67 -10 -7 -22 -14 -27 -14
-5 0 -17 -10 -27 -21 l-19 -22 -35 27 c-19 15 -35 33 -35 41 0 7 -6 15 -12 18
-9 2 -13 24 -13 63 0 50 5 66 30 101 33 47 50 53 60 22z m390 -10 c6 -2 10
-26 10 -54 0 -27 6 -60 13 -72 6 -12 12 -29 12 -37 0 -9 4 -16 9 -16 11 0 21
-49 10 -55 -4 -3 -12 2 -17 12 -8 14 -15 15 -43 7 -27 -8 -33 -15 -32 -32 6
-54 -130 -3 -175 66 -19 30 -25 130 -9 151 32 39 161 56 222 30z m1219 -179
c57 -53 63 -79 32 -129 -27 -42 -95 -103 -107 -95 -4 2 -10 0 -13 -5 -7 -11
-88 -3 -96 9 -3 4 -23 16 -45 25 -50 20 -74 52 -80 108 -5 39 -3 46 20 61 15
10 43 20 63 23 20 4 55 14 77 24 66 29 99 25 149 -21z m-719 -56 c56 -52 100
-73 162 -77 31 -2 48 -9 55 -21 13 -23 4 -109 -11 -114 -6 -2 -18 -10 -25 -18
-8 -8 -47 -16 -92 -20 -71 -6 -83 -4 -119 16 -61 35 -94 70 -101 107 -3 18
-10 36 -15 39 -15 9 -10 34 9 41 24 9 82 65 82 81 0 18 2 16 55 -34z m941 1
c27 -35 27 -65 0 -65 -9 0 -13 -6 -10 -13 7 -18 -55 -61 -93 -64 -36 -3 -37
-1 -24 25 38 78 43 93 37 116 -4 18 -2 26 11 29 40 10 53 5 79 -28z m-1926
-55 c23 -27 48 -50 56 -50 9 0 15 -13 16 -37 1 -21 2 -47 2 -58 1 -20 -33 -45
-62 -45 -30 0 -101 41 -108 63 -4 12 -15 34 -25 49 -30 42 -25 82 14 107 17
11 39 21 49 21 9 0 35 -22 58 -50z m276 -6 c51 -35 97 -54 131 -54 24 0 31 -8
50 -48 12 -26 18 -48 13 -50 -5 -2 -6 -19 -3 -38 5 -27 2 -34 -11 -34 -9 0
-19 -7 -22 -15 -7 -18 -81 -29 -139 -21 -67 11 -135 76 -151 145 -9 43 -9 57
4 84 26 59 71 69 128 31z m361 5 c9 -9 42 -16 88 -19 13 0 26 -14 39 -41 16
-35 16 -42 4 -57 -8 -9 -17 -24 -21 -33 -3 -9 -25 -21 -50 -28 -39 -11 -48
-11 -81 7 -45 24 -86 67 -86 91 0 9 -5 22 -12 29 -8 8 -5 14 16 22 15 5 31 10
35 10 5 0 14 7 21 15 15 18 32 19 47 4z m741 -108 c45 -46 110 -91 134 -91 24
0 57 -38 53 -61 -5 -23 -35 -67 -61 -90 -31 -27 -63 -29 -101 -8 -19 11 -40
18 -46 17 -12 -2 -61 26 -82 47 -16 15 -34 61 -31 78 1 8 7 21 13 29 6 7 15
26 19 42 6 24 48 74 62 76 2 0 20 -17 40 -39z m374 -62 c12 -8 12 -42 2 -84
-14 -59 -124 -108 -124 -56 0 9 5 22 11 28 9 9 8 20 0 45 -6 18 -8 34 -3 36 5
1 29 15 53 31 26 16 46 23 48 17 2 -6 8 -14 13 -17z m-896 -44 c4 -8 11 -15
16 -15 6 0 29 -9 52 -20 23 -10 67 -24 98 -30 l57 -11 -16 -34 c-28 -58 -126
-84 -191 -51 -35 18 -58 86 -48 141 7 36 22 46 32 20z m-182 -50 l63 0 10 -37
c6 -21 7 -38 3 -38 -4 0 -6 -18 -4 -39 4 -58 -25 -81 -105 -84 -51 -2 -64 1
-72 16 -6 9 -16 17 -23 17 -23 0 -57 47 -58 81 -1 24 6 38 25 53 14 12 29 33
32 48 l7 27 30 -22 c23 -17 43 -22 92 -22z m-520 -14 c32 -33 152 -75 197 -69
31 5 30 8 13 -53 -3 -12 -11 -18 -20 -15 -8 3 -14 -1 -14 -8 0 -8 -16 -20 -36
-28 -33 -13 -39 -13 -84 9 -27 13 -52 28 -55 33 -3 6 -14 10 -23 10 -25 0 -62
62 -55 91 6 25 31 59 43 59 3 0 19 -13 34 -29z m1035 -25 c23 -47 76 -100 111
-111 23 -7 22 -30 -1 -30 -8 0 -21 -5 -29 -10 -8 -6 -31 -18 -50 -27 -32 -16
-36 -16 -47 -1 -7 9 -16 13 -20 10 -8 -9 -43 43 -43 64 0 9 6 19 14 22 15 6
37 92 29 114 -3 7 -1 13 4 13 5 0 19 -20 32 -44z m-643 -222 c24 -13 52 -24
63 -24 11 0 23 -5 26 -10 5 -8 12 -7 22 1 12 10 16 10 24 -2 5 -8 9 -20 9 -28
0 -8 7 -23 16 -32 16 -17 15 -19 -12 -30 -50 -19 -157 -12 -205 13 -83 43 -99
76 -74 149 8 21 12 39 9 39 -3 0 -2 5 1 11 4 6 21 -5 42 -26 20 -21 55 -48 79
-61z m303 72 c18 -22 73 -27 122 -13 42 13 47 13 61 -5 10 -12 16 -41 17 -78
1 -53 -1 -60 -18 -60 -11 0 -21 -5 -23 -12 -4 -12 -94 -25 -139 -20 -15 2 -44
18 -64 35 -49 43 -56 95 -17 137 30 33 44 37 61 16z"/>
<path d="M3311 4298 c-12 -32 30 -103 60 -103 28 0 50 32 31 44 -8 4 -13 12
-13 17 2 16 -39 64 -55 64 -8 0 -18 -10 -23 -22z"/>
<path d="M1563 4268 c-25 -40 -5 -62 59 -66 39 -2 48 1 53 18 3 11 3 29 0 40
-5 16 -15 20 -55 20 -28 0 -52 -5 -57 -12z"/>
<path d="M2263 4248 c-18 -11 -33 -24 -33 -30 0 -49 68 -67 88 -23 7 14 12 37
12 50 0 31 -22 32 -67 3z"/>
<path d="M3227 4229 c-20 -12 -21 -26 -5 -60 18 -39 56 -63 73 -49 19 16 19
24 -1 66 -20 41 -43 56 -67 43z"/>
<path d="M2387 4175 c-9 -8 -20 -15 -26 -15 -6 0 -11 -13 -11 -28 0 -34 45
-66 59 -43 6 8 10 3 14 -18 6 -27 11 -31 38 -31 22 0 32 5 36 20 3 11 9 20 14
20 4 0 7 9 6 20 -2 25 -41 37 -62 20 -22 -18 -31 -4 -15 25 15 28 14 30 -16
39 -14 4 -28 1 -37 -9z"/>
<path d="M1636 4171 c-3 -5 -19 -11 -36 -15 -27 -5 -31 -10 -28 -33 6 -54 110
-47 116 8 2 19 -3 28 -22 37 -14 6 -28 7 -30 3z"/>
<path d="M2366 4049 c-9 -30 -27 -137 -31 -189 -2 -30 -7 -89 -10 -130 -8 -94
3 -154 30 -158 19 -3 20 3 17 164 -2 92 2 199 8 238 7 46 7 73 1 79 -7 7 -12
6 -15 -4z"/>
<path d="M3047 4039 c-33 -19 -21 -60 30 -103 19 -15 25 -16 38 -6 28 24 14
68 -35 107 -10 8 -21 8 -33 2z"/>
<path d="M2513 4020 c-25 -10 -30 -39 -11 -58 33 -33 107 4 93 47 -7 23 -42
27 -82 11z"/>
<path d="M4385 3999 c-24 -11 -39 -24 -39 -33 1 -9 2 -23 3 -31 2 -24 66 -19
91 7 25 27 26 64 3 70 -10 3 -36 -3 -58 -13z"/>
<path d="M2970 3925 c0 -14 9 -33 21 -43 11 -9 27 -29 35 -44 18 -35 42 -36
50 -3 10 38 -49 115 -88 115 -13 0 -18 -8 -18 -25z"/>
<path d="M4324 3863 c-16 -16 -18 -41 -5 -61 13 -21 95 -12 99 11 8 41 -64 79
-94 50z"/>
<path d="M1670 3843 c-23 -8 -50 -35 -50 -48 0 -6 11 -17 25 -23 20 -9 33 -9
60 3 40 16 45 37 13 59 -24 17 -25 17 -48 9z"/>
<path d="M2909 3826 c-24 -51 55 -158 90 -123 18 18 13 45 -11 61 -12 9 -27
30 -32 48 -14 41 -33 46 -47 14z"/>
<path d="M1657 3723 c-9 -21 -8 -27 8 -39 23 -17 81 -13 100 7 23 23 -7 53
-56 55 -34 1 -42 -2 -52 -23z"/>
<path d="M4280 3735 c-9 -11 -16 -12 -25 -5 -14 12 -65 3 -65 -11 0 -23 -78
-40 -181 -41 -105 0 -106 0 -205 -48 -54 -27 -116 -51 -136 -55 -38 -6 -54
-28 -42 -59 10 -26 31 -20 159 45 l120 61 105 4 c100 4 119 8 183 40 34 17 69
18 84 3 7 -7 22 -7 52 1 34 9 41 15 41 35 0 27 -3 30 -46 39 -22 5 -35 2 -44
-9z"/>
<path d="M2757 3698 c-23 -8 -28 -15 -25 -37 2 -22 9 -27 37 -29 42 -4 81 15
81 39 0 10 -3 20 -7 22 -21 12 -61 14 -86 5z"/>
<path d="M2880 3682 c0 -32 51 -89 69 -78 16 10 13 42 -5 60 -8 9 -12 16 -8
16 3 0 1 7 -6 15 -22 26 -50 19 -50 -13z"/>
<path d="M4246 3624 c-8 -21 -7 -56 2 -70 14 -22 59 -25 82 -6 l23 18 -30 31
c-38 39 -68 49 -77 27z"/>
<path d="M2781 3607 c-15 -19 -4 -46 25 -57 15 -6 21 -15 18 -27 -8 -30 19
-56 57 -55 36 1 59 23 54 50 -2 9 -4 21 -4 25 -1 5 -5 6 -10 2 -5 -3 -13 0
-16 6 -4 5 -13 8 -21 5 -8 -3 -14 -1 -14 4 0 6 5 10 11 10 6 0 9 10 7 23 -3
19 -10 22 -49 25 -30 2 -50 -2 -58 -11z"/>
<path d="M1738 3546 c-26 -9 -33 -17 -33 -36 0 -21 6 -26 37 -31 30 -5 41 -2
57 15 43 46 9 74 -61 52z"/>
<path d="M4198 3503 c-23 -6 -24 -55 -3 -73 48 -40 113 -3 80 46 -8 13 -19 24
-24 24 -5 0 -15 2 -23 4 -7 2 -21 2 -30 -1z"/>
<path d="M2870 3442 c-19 -6 -30 -22 -30 -45 0 -27 20 -42 63 -46 47 -3 57 17
26 58 -25 34 -37 40 -59 33z"/>
<path d="M1783 3422 c-24 -11 -33 -22 -33 -39 0 -32 36 -45 73 -26 23 12 28
20 25 46 -4 37 -19 41 -65 19z"/>
<path d="M4147 3373 c-4 -3 -7 -19 -7 -35 0 -32 26 -48 66 -40 49 9 57 64 11
76 -29 8 -62 8 -70 -1z"/>
<path d="M1821 3320 c-39 -9 -50 -36 -24 -61 21 -21 21 -21 60 -3 21 11 39 26
41 34 3 19 -45 38 -77 30z"/>
<path d="M2869 3309 c-5 -11 -7 -28 -4 -39 9 -27 81 -82 102 -78 28 5 27 41
-2 68 -14 13 -25 28 -25 35 0 6 -14 16 -30 22 -26 10 -32 9 -41 -8z"/>
<path d="M4082 3283 c-14 -26 2 -58 36 -72 39 -16 63 -11 73 15 6 17 2 26 -19
41 -41 30 -79 37 -90 16z"/>
<path d="M4032 3207 c-9 -10 -6 -24 9 -55 12 -23 24 -42 28 -42 3 0 16 -3 27
-6 17 -5 24 0 32 25 7 19 7 31 1 31 -5 0 -23 14 -41 30 -35 34 -41 36 -56 17z"/>
<path d="M2896 3158 c-21 -30 -20 -43 6 -67 23 -22 47 -23 72 -2 23 19 20 34
-14 64 -36 33 -44 33 -64 5z"/>
<path d="M2031 3083 c-8 -3 -24 -15 -37 -26 -19 -17 -21 -23 -12 -41 22 -41
37 -40 90 7 46 40 17 83 -41 60z"/>
<path d="M3972 3078 c-20 -20 -14 -42 20 -77 19 -20 39 -31 52 -29 29 4 33 45
8 68 -11 11 -22 23 -23 28 -7 16 -44 23 -57 10z"/>
<path d="M2095 2991 c-36 -21 -43 -51 -16 -68 41 -25 97 20 80 65 -10 26 -23
27 -64 3z"/>
<path d="M3860 2965 c0 -45 63 -102 100 -90 21 7 29 55 9 55 -6 0 -22 14 -36
30 -32 39 -73 41 -73 5z"/>
<path d="M2178 2933 c-60 -41 -45 -103 18 -75 25 12 66 70 61 87 -7 19 -42 14
-79 -12z"/>
<path d="M2245 2875 c-40 -45 -42 -61 -6 -73 25 -9 32 -7 50 12 27 29 30 96 4
95 -10 0 -31 -15 -48 -34z"/>
<path d="M3781 2871 c-10 -6 -12 -18 -7 -37 8 -32 9 -57 3 -94 -6 -35 8 -58
35 -56 19 1 24 8 29 42 3 23 13 49 22 58 27 27 20 51 -22 74 -44 25 -42 25
-60 13z"/>
<path d="M3350 2810 c-29 -33 -33 -45 -25 -70 7 -23 39 -31 60 -16 12 9 15 24
13 61 -2 26 -7 50 -13 51 -5 2 -21 -10 -35 -26z"/>
<path d="M3495 2811 c-35 -31 -34 -53 1 -72 35 -18 58 -2 62 44 5 52 -23 64
-63 28z"/>
<path d="M2320 2814 c-44 -15 -59 -37 -40 -59 10 -12 23 -15 47 -12 18 3 32 3
32 -1 -3 -21 4 -31 27 -36 36 -10 59 0 73 31 11 23 10 29 -4 39 -17 12 -51 8
-72 -9 -10 -7 -12 -3 -7 20 7 37 -7 44 -56 27z"/>
<path d="M1530 2808 c-95 -23 -149 -64 -142 -105 2 -11 -29 -20 -81 -22 -40
-1 -111 -46 -138 -86 -13 -19 -27 -35 -30 -35 -3 0 -16 11 -29 25 -25 26 -75
34 -108 16 -9 -6 -34 -13 -55 -16 -37 -6 -87 -47 -87 -72 0 -7 -4 -13 -9 -13
-6 0 -18 -13 -28 -30 -15 -27 -23 -30 -65 -30 -27 0 -56 5 -66 11 -23 14 -130
-14 -139 -36 -3 -8 -10 -15 -17 -15 -6 0 -20 -14 -30 -30 -9 -17 -26 -38 -36
-48 -17 -16 -26 -83 -21 -168 1 -23 39 -68 79 -96 21 -14 22 -19 13 -60 -11
-49 4 -129 33 -173 9 -14 17 -33 19 -44 2 -10 9 -26 16 -35 17 -20 7 -33 -32
-41 -17 -4 -44 -19 -59 -33 -23 -21 -30 -23 -42 -12 -15 11 -38 11 -182 -5
-12 -1 -32 -9 -45 -18 -13 -10 -31 -17 -41 -17 -10 0 -18 -4 -18 -10 0 -5 -5
-10 -10 -10 -24 0 -113 -78 -140 -122 l-30 -48 25 -16 c23 -15 27 -15 50 0 14
9 25 22 25 29 0 21 60 47 108 47 34 0 58 -7 85 -26 21 -14 53 -28 72 -31 l34
-6 -27 -20 c-69 -54 -148 -128 -162 -154 -10 -17 -16 -52 -15 -88 0 -52 3 -60
20 -63 14 -2 30 12 54 47 45 68 88 104 138 119 23 7 49 19 57 27 8 8 17 15 21
15 3 0 23 14 44 30 21 17 55 33 77 37 21 3 46 11 54 17 13 10 13 9 0 -9 -26
-34 -37 -44 -44 -38 -3 4 -6 1 -6 -6 0 -7 -12 -28 -26 -47 -15 -19 -23 -34
-19 -34 4 0 2 -6 -4 -13 -6 -8 -8 -17 -4 -20 3 -4 2 -7 -4 -7 -6 0 -9 -8 -7
-18 3 -9 -3 -35 -12 -57 -23 -52 -25 -63 -23 -105 2 -60 2 -73 -11 -154 -6
-43 -20 -98 -30 -121 -10 -24 -16 -46 -13 -48 15 -16 -137 -258 -174 -278 -28
-15 -45 -60 -28 -76 7 -6 29 -16 48 -21 20 -6 50 -20 67 -32 36 -26 75 -21 85
10 4 11 17 32 29 48 13 15 31 54 40 87 10 33 23 74 31 90 7 17 15 35 16 40 5
16 39 136 55 190 10 32 14 75 11 119 -3 38 0 83 5 100 5 17 13 59 18 93 4 35
17 82 28 105 11 24 26 58 33 76 8 17 17 32 21 32 5 0 8 6 8 13 0 11 102 107
114 107 3 0 6 -8 6 -18 0 -10 5 -23 11 -29 11 -11 8 -102 -5 -148 -29 -106
-37 -139 -32 -151 3 -7 0 -28 -5 -46 -6 -18 -10 -47 -10 -65 1 -49 59 -189 93
-223 16 -17 32 -45 35 -63 6 -36 17 -47 50 -47 32 0 42 44 19 84 -33 57 -59
149 -59 210 -1 130 13 168 92 256 18 19 34 46 37 60 14 62 19 62 48 3 11 -21
29 -48 40 -61 25 -28 109 -54 139 -43 12 5 45 11 72 15 28 4 60 14 73 22 23
15 23 15 17 -19 -4 -21 -3 -37 4 -41 6 -4 11 -15 11 -25 0 -10 22 -41 49 -69
l50 -52 93 3 c111 3 129 13 178 94 32 52 35 65 37 142 1 59 6 87 15 91 41 16
128 86 128 102 0 5 11 25 23 46 32 49 37 78 27 132 -7 37 -6 47 8 57 75 53
102 78 102 92 0 9 4 21 10 27 5 5 12 39 16 74 3 35 8 68 10 72 3 4 1 8 -4 8
-20 0 1 39 24 44 13 4 24 13 24 20 0 8 3 16 8 18 14 6 54 70 62 99 6 20 4 38
-6 58 -11 21 -12 36 -4 56 12 32 13 107 2 121 -5 5 -15 28 -22 52 -9 28 -23
49 -42 60 -15 9 -28 20 -28 24 0 4 -13 8 -28 8 -25 0 -31 6 -40 38 -16 54 -77
84 -142 72 -62 -12 -60 -13 -51 12 10 27 -15 107 -35 115 -8 3 -14 11 -14 19
0 8 -22 19 -52 28 -77 21 -128 28 -128 18 0 -5 -18 -15 -40 -22 -22 -7 -40
-19 -40 -27 0 -8 -4 -12 -10 -8 -5 3 -7 11 -5 18 9 24 -53 75 -83 68 -8 -1
-19 2 -25 7 -7 5 -26 5 -47 0z m49 -91 c9 -11 3 -18 -29 -32 -22 -10 -45 -24
-50 -30 -6 -7 -21 -10 -35 -7 -29 5 -44 22 -21 22 9 0 16 5 16 10 0 37 94 66
119 37z m289 -33 c43 -10 72 -43 72 -80 l0 -33 -60 2 c-39 1 -59 6 -56 13 2 6
-9 31 -25 55 l-29 44 23 6 c12 4 28 5 35 3 8 -2 26 -7 40 -10z m-147 -65 c13
-13 24 -28 25 -34 1 -24 -19 -64 -45 -89 -26 -25 -28 -25 -47 -8 -33 30 -72
52 -93 52 -26 0 -35 28 -17 55 37 56 132 69 177 24z m-323 -29 c17 -8 32 -18
32 -24 0 -5 10 -17 22 -27 l21 -19 -37 0 c-69 0 -132 -41 -155 -102 -8 -20
-15 -25 -31 -21 -27 7 -41 34 -43 83 -2 49 16 82 56 103 28 14 83 27 97 22 3
-1 20 -8 38 -15z m-305 -89 c12 -10 17 -26 15 -54 -3 -39 -4 -40 -68 -64 -36
-14 -72 -31 -81 -39 -22 -20 -34 -18 -53 11 -44 67 -15 135 69 164 52 19 79
15 118 -18z m803 -6 c10 -8 26 -15 35 -15 33 0 39 -23 21 -79 -18 -58 -54 -86
-104 -83 -16 1 -28 -2 -28 -8 0 -14 -60 -12 -90 3 -21 11 -24 18 -21 52 4 52
17 75 41 75 11 0 28 10 39 21 21 23 59 46 77 48 5 1 19 -6 30 -14z m220 -3
c16 -11 34 -48 34 -72 0 -18 -2 -19 -22 -9 -13 7 -39 12 -58 10 -34 -1 -35 -1
-33 36 1 21 2 39 2 41 2 5 67 1 77 -6z m-528 -38 c12 -8 22 -22 22 -30 0 -8 5
-14 10 -14 7 0 8 -6 1 -17 -6 -11 -6 -24 0 -35 14 -25 -8 -139 -30 -159 -46
-43 -98 -50 -178 -23 -69 23 -76 32 -75 106 1 90 10 128 35 149 29 24 75 25
73 2 -2 -29 28 -25 64 7 38 34 47 36 78 14z m-845 -90 c98 -35 101 -38 77 -83
-11 -20 -24 -48 -29 -62 -6 -16 -20 -29 -37 -33 -14 -4 -51 -23 -80 -42 -30
-18 -63 -34 -73 -34 -10 0 -33 14 -50 32 -26 27 -31 40 -31 79 0 27 5 58 11
71 16 33 96 98 121 98 11 0 52 -12 91 -26z m1523 -20 c0 -5 6 -22 13 -38 6
-16 10 -30 9 -32 -9 -8 -58 11 -58 22 0 8 -4 14 -9 14 -4 0 -7 10 -6 23 1 12
3 28 4 36 1 11 5 11 24 -1 12 -9 22 -19 23 -24z m-144 -28 c6 -11 17 -27 25
-34 23 -23 16 -88 -14 -131 -30 -43 -55 -54 -100 -45 -23 4 -34 17 -57 67 -16
34 -39 70 -50 79 -19 16 -19 18 -3 18 10 0 32 13 48 29 35 36 43 39 97 38 33
0 46 -5 54 -21z m-1022 4 c0 -5 9 -10 20 -10 11 0 20 3 20 8 0 14 82 10 100
-6 48 -41 -18 -264 -92 -311 -30 -19 -31 -19 -51 0 -12 10 -27 19 -34 19 -7 0
-13 4 -13 9 0 5 -8 11 -17 13 -11 2 -18 13 -18 28 0 16 -11 32 -35 48 -46 31
-57 55 -39 90 8 15 17 29 20 32 3 3 11 15 17 26 6 12 31 31 54 42 48 23 68 27
68 12z m768 -112 c7 -7 12 -23 12 -35 0 -28 22 -74 44 -92 18 -15 22 -91 6
-91 -5 0 -10 -6 -10 -13 0 -6 -13 -24 -29 -39 -39 -37 -112 -42 -142 -9 -11
12 -24 19 -29 16 -6 -4 -19 14 -24 35 -1 3 -7 15 -14 28 -7 12 -16 44 -19 71
-5 44 -3 51 28 85 18 21 42 42 53 46 32 13 110 12 124 -2z m392 -38 c0 -9 9
-25 20 -35 28 -25 25 -57 -7 -87 -42 -38 -57 -39 -87 -7 l-27 28 35 56 c20 30
36 60 36 65 0 5 7 7 15 4 8 -4 15 -14 15 -24z m-1416 -75 c3 -8 12 -15 19 -15
21 0 81 -75 88 -110 12 -57 -78 -195 -144 -220 -56 -20 -127 -5 -127 28 0 6
-8 19 -19 29 -27 27 -60 124 -56 168 3 39 13 54 36 59 26 5 88 36 94 46 3 5
19 10 35 10 16 0 32 5 35 10 9 15 32 12 39 -5z m553 -16 c-14 -8 -15 -14 -7
-24 8 -10 27 -12 65 -8 48 5 60 2 96 -21 l41 -27 -6 -72 c-7 -112 -15 -134
-46 -147 -50 -21 -119 -19 -148 4 -42 32 -103 98 -98 104 3 3 2 10 -4 17 -5 6
-11 33 -14 61 -3 37 0 54 14 72 20 25 74 51 105 51 19 0 19 0 2 -10z m748 -89
c9 -10 15 -26 12 -34 -3 -8 3 -24 13 -36 13 -15 17 -32 14 -68 -6 -70 -13 -92
-29 -92 -8 0 -15 -6 -15 -14 0 -25 -57 -38 -93 -21 -42 18 -56 31 -94 84 l-32
44 30 36 c16 20 41 47 54 61 14 14 25 30 25 37 0 29 89 31 115 3z m-1028 -182
c-2 -22 2 -23 67 -24 51 -1 75 -7 95 -22 23 -18 26 -26 25 -84 0 -54 -4 -67
-26 -88 -37 -36 -55 -45 -131 -64 -86 -22 -110 -15 -178 55 -48 48 -50 54 -48
98 3 48 12 62 69 117 29 29 41 34 82 34 44 0 48 -2 45 -22z m691 -43 c2 -11
10 -27 17 -35 7 -8 19 -35 27 -60 16 -51 8 -118 -20 -152 -44 -54 -51 -58
-109 -59 -80 -2 -86 -1 -103 22 -8 11 -28 34 -44 51 -25 27 -28 37 -23 76 3
24 10 48 17 52 6 4 11 10 11 14 -2 10 56 58 108 88 56 33 114 34 119 3z
m-1148 -110 c9 -8 30 -16 46 -16 38 -2 136 -29 148 -40 6 -5 -24 -6 -72 -3
-70 5 -86 4 -102 -11 -10 -9 -25 -17 -33 -19 -8 -1 -32 -14 -53 -28 -37 -26
-146 -52 -202 -49 -13 0 -44 15 -68 33 -31 22 -56 32 -81 32 -35 0 -36 0 -11
11 14 5 31 15 39 21 8 6 36 11 62 10 27 -1 51 2 53 6 7 11 52 10 59 -2 10 -17
51 -11 70 10 10 11 28 20 39 20 12 0 35 9 51 20 36 24 34 24 55 5z m1327 -35
c53 -19 62 -58 32 -147 -12 -36 -60 -86 -106 -110 -21 -11 -28 -10 -49 5 -31
23 -30 33 10 89 18 27 37 64 41 83 4 19 12 41 17 47 6 7 8 20 4 28 -6 18 9 19
51 5z m-1297 -99 c0 -11 -91 -56 -130 -65 -18 -5 70 46 128 73 1 0 2 -3 2 -8z
m775 -2 c27 0 43 -16 72 -73 22 -43 24 -54 14 -85 -15 -47 -47 -81 -102 -108
-69 -34 -135 -44 -187 -28 -33 11 -63 77 -66 146 -3 58 3 71 32 75 6 1 27 15
45 30 49 41 87 55 132 48 22 -3 49 -5 60 -5z m-489 -63 c8 -8 14 -18 14 -23 0
-4 14 -28 30 -53 29 -44 41 -110 20 -110 -5 0 -7 -6 -4 -13 2 -7 -12 -31 -31
-52 -32 -34 -53 -68 -60 -100 -13 -55 -25 -137 -25 -174 l0 -46 -16 30 c-11
21 -14 43 -9 75 3 25 10 70 14 100 4 30 12 66 18 80 6 14 11 28 12 32 2 9 5
21 20 67 15 46 14 97 -4 154 -14 48 -7 60 21 33z m144 -51 c0 -19 -4 -35 -10
-35 -5 0 -10 5 -10 11 0 6 -7 17 -15 26 -18 18 -11 33 16 33 15 0 19 -7 19
-35z m-600 -22 c-1 -11 -113 -63 -134 -63 -9 0 -42 -23 -72 -51 -30 -29 -54
-48 -54 -42 0 16 22 39 93 96 53 44 74 55 103 55 19 0 38 3 41 6 9 8 23 7 23
-1z m205 -35 c-4 -13 -15 -32 -25 -43 -10 -11 -23 -31 -29 -45 -6 -14 -15 -32
-20 -40 -5 -8 -13 -26 -19 -40 -14 -36 -49 -290 -41 -296 17 -10 -6 -125 -41
-209 -24 -58 -37 -101 -33 -112 2 -6 -1 -14 -6 -18 -6 -3 -11 -15 -11 -26 0
-10 -4 -19 -10 -19 -5 0 -14 -17 -20 -37 -5 -21 -18 -49 -29 -62 -17 -22 -21
-23 -55 -11 -20 6 -36 13 -36 16 0 2 16 25 36 51 41 53 114 203 133 273 7 25
19 63 27 85 8 23 14 54 14 70 0 17 5 46 10 65 6 19 11 63 11 98 0 68 24 156
61 223 42 78 99 130 83 77z m1058 -12 c15 -4 25 -11 22 -16 -3 -5 6 -21 20
-36 37 -40 34 -91 -9 -183 -14 -31 -63 -51 -121 -51 -39 0 -50 5 -86 41 -40
40 -41 42 -35 92 6 42 14 56 43 81 19 17 39 40 44 53 9 23 66 46 84 33 6 -4
23 -10 38 -14z"/>
<path d="M3182 2797 c-30 -32 -39 -82 -18 -102 27 -28 50 -15 58 34 4 24 13
50 19 57 14 16 12 19 -17 28 -14 4 -27 -1 -42 -17z"/>
<path d="M3638 2794 c-39 -21 -40 -69 -1 -77 15 -3 32 -3 38 0 20 7 38 49 30
72 -7 24 -29 26 -67 5z"/>
<path d="M3935 2737 c-46 -29 -51 -38 -26 -58 34 -28 64 -24 91 13 22 30 22
32 5 45 -23 16 -43 16 -70 0z"/>
<path d="M2485 2728 c-28 -16 -65 -57 -65 -72 0 -8 6 -19 14 -25 28 -23 86 29
86 76 0 28 -10 34 -35 21z"/>
<path d="M2538 2678 c-16 -16 -28 -35 -28 -42 0 -22 26 -37 54 -30 19 4 27 14
32 40 13 68 -12 81 -58 32z"/>
<path d="M2771 2681 c-6 -11 -11 -31 -11 -45 0 -14 -4 -26 -10 -26 -15 0 -12
-67 3 -73 43 -16 79 48 67 123 -6 40 -33 52 -49 21z"/>
<path d="M2648 2673 c-22 -6 -33 -40 -18 -58 18 -22 54 -18 78 8 17 19 19 25
8 40 -13 16 -33 20 -68 10z"/>
<path d="M4065 2640 c-35 -36 -37 -42 -27 -65 16 -35 56 -34 76 3 29 52 35 72
30 87 -10 26 -38 17 -79 -25z"/>
<path d="M4194 2549 l-26 -41 23 -24 c12 -13 28 -24 35 -24 16 0 56 94 48 114
-12 31 -52 18 -80 -25z"/>
<path d="M2890 2569 c-14 -4 -37 -11 -52 -14 -21 -4 -28 -11 -28 -30 0 -33 25
-45 69 -33 42 11 67 31 74 58 7 28 -17 35 -63 19z"/>
<path d="M2860 2446 c-37 -37 19 -75 83 -56 31 9 37 15 37 39 0 28 -1 28 -55
27 -31 0 -60 -5 -65 -10z"/>
<path d="M4375 2420 c-3 -11 -13 -20 -21 -20 -8 0 -19 -12 -25 -27 -8 -22 -7
-30 7 -40 23 -17 59 -17 71 0 14 17 24 73 17 92 -9 22 -42 18 -49 -5z"/>
<path d="M2965 2366 c-45 -13 -56 -37 -29 -67 23 -25 46 -24 70 4 30 35 35 44
28 61 -7 19 -15 19 -69 2z"/>
<path d="M4452 2328 c-7 -7 -12 -9 -12 -5 0 4 -9 3 -20 -3 -39 -21 -14 -79 33
-80 35 0 63 51 45 84 -11 19 -29 21 -46 4z"/>
<path d="M2971 2212 c-14 -30 -16 -27 25 -47 32 -15 37 -15 60 -1 13 9 25 20
25 24 9 49 8 50 -47 49 -45 -2 -55 -6 -63 -25z"/>
<path d="M4610 1985 c-14 -26 -5 -61 14 -55 5 1 12 -3 16 -9 4 -8 21 -5 53 9
40 18 45 23 38 42 -4 12 -16 23 -27 25 -76 15 -80 15 -94 -12z"/>
<path d="M4692 1869 c-33 -13 -38 -37 -14 -61 18 -19 24 -20 51 -9 32 14 44
34 36 60 -6 19 -39 24 -73 10z"/>
<path d="M4768 1762 c-27 -2 -39 -9 -43 -23 -15 -47 54 -71 95 -34 40 36 15
63 -52 57z"/>
<path d="M4504 1649 c-4 -7 -9 -28 -11 -47 -2 -19 -8 -42 -13 -52 -7 -13 -3
-20 16 -31 36 -19 59 -2 60 45 1 41 -38 106 -52 85z"/>
<path d="M4371 1598 c-6 -13 -13 -36 -14 -53 -2 -28 0 -30 33 -30 33 0 35 2
38 38 5 61 -32 90 -57 45z"/>
</g>
</svg>
