<?xml version="1.0" standalone="no"?>
<!DOCTYPE svg PUBLIC "-//W3C//DTD SVG 20010904//EN"
 "http://www.w3.org/TR/2001/REC-SVG-20010904/DTD/svg10.dtd">
<svg version="1.0" xmlns="http://www.w3.org/2000/svg"
 width="461.000000pt" height="333.000000pt" viewBox="0 0 461.000000 333.000000"
 preserveAspectRatio="xMidYMid meet">
<metadata>
Created by potrace 1.16, written by Peter Selinger 2001-2019
</metadata>
<g transform="translate(0.000000,333.000000) scale(0.100000,-0.100000)"
fill="#000000" stroke="none">
<path d="M2667 3264 c-3 -3 -50 -10 -104 -14 -96 -8 -210 -39 -224 -61 -4 -6
-30 -15 -58 -20 -29 -4 -65 -14 -81 -22 -16 -8 -51 -21 -79 -28 -54 -13 -67
-29 -51 -59 14 -27 13 -30 -15 -30 -14 0 -41 -14 -62 -33 -21 -18 -54 -44 -73
-57 -19 -13 -37 -27 -40 -30 -3 -3 -14 -10 -25 -16 -37 -20 -175 -201 -175
-230 0 -7 -3 -14 -7 -15 -5 0 -21 -3 -38 -6 -76 -15 -101 -7 -206 63 -99 65
-104 68 -168 69 -36 1 -80 -3 -98 -8 -25 -8 -35 -7 -48 7 -20 19 -14 19 -70 0
-26 -8 -54 -13 -63 -11 -9 2 -39 -5 -66 -15 -45 -17 -49 -17 -60 -2 -10 13
-22 15 -66 9 -51 -7 -59 -12 -136 -91 -46 -45 -87 -91 -92 -101 -5 -10 -19
-57 -31 -104 -27 -110 -24 -203 8 -247 24 -34 93 -69 150 -77 20 -2 55 -13 78
-25 24 -11 62 -20 88 -20 26 0 57 -7 71 -16 20 -14 40 -16 110 -10 l85 6 56
-40 c31 -22 62 -40 68 -40 7 0 34 -21 61 -48 46 -44 50 -50 46 -88 l-4 -40
-81 -17 c-179 -38 -212 -48 -276 -84 -36 -20 -92 -63 -124 -95 -32 -32 -62
-58 -66 -58 -4 0 -16 -10 -27 -22 -20 -24 -22 -28 -87 -143 -22 -38 -65 -95
-96 -126 -50 -51 -59 -67 -84 -148 -28 -89 -29 -94 -20 -214 8 -107 13 -131
43 -197 36 -78 153 -262 187 -292 11 -10 46 -27 79 -38 32 -11 76 -32 98 -46
36 -24 44 -25 155 -22 101 3 120 6 148 26 19 14 34 18 38 12 9 -15 41 -12 59
5 8 8 19 15 24 15 5 0 16 8 25 18 15 16 58 32 268 98 26 7 52 14 59 14 6 0 31
13 54 29 29 20 46 27 53 20 20 -20 66 5 134 76 39 40 76 83 83 96 6 13 24 26
41 30 66 14 165 80 227 153 43 49 68 70 81 68 19 -4 144 66 167 92 7 9 18 16
25 16 7 0 18 7 25 15 17 20 27 19 33 -4 11 -42 136 -45 232 -6 85 36 171 77
185 90 32 29 64 28 100 -4 19 -17 44 -31 56 -31 22 0 29 -5 113 -98 57 -63 92
-81 161 -85 14 -1 30 -9 37 -18 38 -50 121 -84 203 -82 110 3 139 7 177 28 23
13 56 26 72 30 34 7 194 159 233 220 14 22 33 46 42 54 9 7 16 18 16 23 0 6 8
22 18 36 11 15 36 70 57 122 35 87 38 103 38 184 -1 49 -6 93 -11 98 -5 5 -7
28 -5 51 10 83 -58 234 -118 264 -29 15 -59 50 -59 69 0 19 -60 98 -90 118
-14 9 -43 30 -65 46 -22 16 -46 29 -53 30 -7 0 -23 9 -35 20 -12 12 -33 20
-47 19 -46 -4 -120 22 -138 49 -22 31 -49 59 -99 99 -52 41 -156 57 -255 38
-31 -5 -37 -4 -33 8 4 8 -10 34 -29 58 -51 64 -60 72 -94 91 -26 14 -32 24
-38 65 -3 26 -13 62 -23 79 -45 87 -91 184 -107 228 -14 37 -31 59 -76 95 -33
25 -87 72 -121 103 -34 32 -71 58 -82 58 -11 0 -29 7 -39 15 -21 16 -39 19
-49 9z m42 -80 c29 -10 68 -38 114 -84 39 -39 74 -70 78 -70 22 0 68 -61 84
-110 10 -30 22 -60 27 -67 17 -22 76 -151 80 -174 3 -22 0 -23 -55 -20 -32 1
-64 -2 -70 -7 -7 -5 -20 -12 -30 -16 -18 -6 -18 -2 -12 53 6 50 3 69 -20 127
-48 125 -55 144 -50 144 13 0 -40 81 -73 110 -65 59 -104 82 -166 95 -44 10
-52 14 -31 15 17 1 39 5 50 10 27 12 24 12 74 -6z m-161 -74 c39 -11 78 -20
86 -20 13 0 34 -15 116 -88 21 -18 40 -45 43 -60 10 -57 38 -147 48 -152 14
-9 24 -100 10 -100 -6 0 -11 -11 -11 -25 0 -23 -2 -24 -27 -14 -16 6 -66 11
-113 12 -88 2 -166 -18 -220 -54 -24 -16 -27 -16 -50 2 -27 20 -53 26 -138 34
-31 2 -60 11 -69 21 -29 28 -79 44 -142 44 -43 0 -60 4 -65 15 -3 9 -18 15
-36 15 -31 0 -31 0 -13 24 20 27 65 48 172 83 83 27 60 29 245 -32 76 -26 80
-26 93 -9 7 10 13 26 13 36 0 18 -33 42 -43 31 -6 -5 -50 8 -165 48 -56 20
-69 19 -162 -12 -134 -44 -250 -119 -270 -173 -5 -16 -13 -26 -16 -23 -4 3
-22 0 -40 -8 l-34 -14 18 27 c9 15 23 33 30 41 7 8 21 25 29 38 9 14 41 42 72
63 31 21 70 52 88 68 18 17 47 33 65 37 18 4 38 10 43 14 24 14 83 31 113 31
18 0 42 5 53 11 16 8 25 7 38 -5 10 -10 25 -14 35 -10 20 8 106 -36 106 -53 0
-7 3 -12 8 -11 4 1 18 -4 31 -11 21 -12 26 -11 38 5 18 25 18 27 -24 63 -87
73 -102 82 -125 76 -14 -3 -34 2 -52 14 l-29 19 59 7 c33 3 66 8 74 9 32 7 48
5 118 -14z m-297 -26 c-18 -8 -36 -12 -39 -9 -10 10 21 25 48 24 23 -1 22 -2
-9 -15z m-875 -421 c41 -25 74 -50 74 -54 0 -9 21 -17 82 -33 58 -16 160 0
204 31 30 20 96 46 148 58 l29 6 -29 -24 c-16 -13 -36 -26 -46 -30 -35 -13
-118 -80 -118 -96 0 -17 18 -41 30 -41 4 0 24 16 46 35 39 35 126 86 199 117
51 21 109 21 159 -1 l38 -17 -50 -27 c-27 -15 -61 -27 -74 -27 -22 0 -24 -4
-20 -30 7 -48 33 -47 138 5 85 43 99 47 144 42 27 -3 66 -17 87 -31 21 -14 51
-28 66 -32 21 -5 34 -18 47 -48 26 -57 45 -78 67 -74 23 4 30 48 9 60 -9 5
-16 17 -16 28 0 10 -12 33 -26 50 -15 17 -25 32 -23 34 20 15 111 38 148 38
52 0 214 -45 232 -65 6 -7 20 -30 32 -51 12 -22 34 -48 50 -60 25 -19 28 -19
44 -4 15 16 14 20 -13 60 -46 68 -55 95 -38 108 10 9 22 9 45 1 18 -6 43 -11
57 -11 35 0 103 -42 127 -79 11 -17 23 -31 28 -31 4 0 7 -16 7 -35 0 -30 -7
-39 -52 -74 -80 -59 -112 -92 -141 -142 -32 -55 -35 -99 -7 -124 27 -25 44 -8
45 44 1 50 33 92 131 171 76 62 172 107 204 95 8 -4 35 -8 60 -11 25 -2 56
-13 70 -24 14 -11 35 -25 46 -31 17 -9 54 -66 54 -83 0 -2 -28 -17 -63 -34
-107 -53 -165 -119 -127 -144 12 -7 24 -1 53 26 38 35 191 116 220 116 9 0 19
-4 22 -10 3 -5 23 -10 44 -10 23 0 45 -7 59 -20 12 -11 32 -20 45 -20 24 0
147 -109 147 -130 0 -9 -15 -11 -85 -14 -34 -2 -77 -42 -73 -68 2 -14 9 -22
18 -19 71 18 99 21 127 16 45 -8 116 -41 136 -62 24 -28 57 -104 57 -136 l0
-29 -31 27 c-57 47 -108 68 -152 61 -42 -7 -130 -57 -184 -105 -36 -31 -112
-132 -137 -179 -9 -17 -34 -51 -56 -77 -23 -27 -40 -57 -40 -71 0 -13 -4 -24
-9 -24 -4 0 -18 -19 -29 -42 -56 -116 -73 -159 -71 -190 3 -62 -1 -128 -8
-128 -5 0 -13 11 -19 24 -16 33 -11 250 5 270 17 20 10 60 -10 64 -42 8 -68
-94 -69 -267 l0 -54 -37 6 c-22 4 -46 16 -56 29 -10 13 -27 33 -37 45 -39 45
-47 138 -21 245 8 31 11 63 8 72 -10 25 -36 19 -48 -11 -6 -16 -15 -36 -20
-46 -5 -9 -12 -51 -16 -92 -6 -71 -7 -75 -27 -69 -20 6 -43 23 -89 68 -17 16
-19 29 -15 105 5 99 16 124 85 196 74 77 76 81 63 104 -6 12 -14 21 -18 21
-12 0 -111 -98 -105 -103 2 -3 -5 -10 -16 -16 -45 -25 -81 -146 -73 -245 4
-55 4 -56 -38 -95 -23 -21 -81 -56 -129 -77 -70 -31 -97 -37 -145 -36 -76 2
-88 13 -53 50 30 31 36 76 12 86 -11 4 -40 -18 -88 -67 -40 -40 -89 -81 -109
-90 -21 -10 -38 -22 -38 -26 0 -5 -11 -12 -25 -15 -14 -4 -25 -11 -25 -16 0
-6 -7 -10 -16 -10 -13 0 -15 7 -9 38 4 20 11 42 16 48 5 7 12 35 16 63 3 28
10 54 14 57 5 3 9 18 9 34 0 28 -28 49 -49 36 -7 -5 -25 -63 -37 -121 -2 -11
-15 -57 -29 -101 -25 -80 -33 -94 -100 -165 -34 -36 -105 -85 -105 -72 0 6 24
61 53 122 12 25 13 237 1 273 -3 10 -14 18 -24 18 -27 0 -44 -35 -32 -68 4
-15 8 -61 8 -102 -1 -76 -15 -112 -110 -285 -25 -46 -155 -190 -163 -181 -2 2
8 25 22 51 14 26 25 55 25 64 0 10 4 21 10 27 12 12 31 105 32 153 0 41 -13
55 -44 48 -21 -6 -23 -13 -25 -68 -2 -54 -21 -122 -55 -194 -51 -111 -131
-164 -287 -190 l-45 -7 15 23 c8 13 21 51 28 84 8 33 17 75 22 94 14 58 1 184
-32 317 -18 71 -40 137 -50 147 -10 11 -28 53 -41 94 -18 58 -29 78 -49 89
-15 7 -38 27 -51 43 -24 28 -125 87 -178 103 -14 5 -65 15 -114 23 -49 8 -94
20 -100 26 -8 8 3 23 39 55 55 49 167 98 250 109 28 4 70 13 95 20 25 6 54 10
65 8 11 -2 49 -6 85 -9 67 -7 112 -31 179 -95 38 -36 61 -43 77 -22 21 28 17
61 -8 68 -13 4 -54 30 -92 57 -59 43 -78 51 -128 55 -51 5 -58 8 -58 27 1 25
27 58 60 76 15 8 63 14 120 15 l95 1 70 -54 c39 -30 89 -78 113 -108 37 -47
45 -53 62 -44 15 8 18 17 13 43 -7 37 -34 68 -120 137 -52 41 -63 56 -63 80 0
63 114 74 224 20 23 -11 47 -20 52 -20 15 0 57 -56 68 -92 9 -26 17 -34 40
-36 l29 -4 -6 54 c-4 29 -13 58 -21 64 -31 22 -8 77 58 135 23 21 28 31 22 52
-3 15 -11 27 -17 27 -20 0 -68 -41 -100 -85 -36 -49 -58 -55 -112 -31 -56 25
-101 36 -158 37 -66 2 -102 -17 -129 -71 -23 -46 -30 -49 -102 -42 l-57 4 6
82 c3 49 13 96 25 119 20 39 13 67 -16 67 -20 0 -53 -45 -60 -82 -9 -49 -20
-138 -20 -170 -1 -16 -6 -28 -12 -28 -6 0 -23 -9 -37 -20 l-25 -20 -36 34
c-19 19 -38 48 -41 63 -3 15 -10 42 -16 60 -11 35 0 94 28 146 24 46 -4 85
-43 59 -15 -10 -38 -53 -41 -77 -5 -39 -9 -55 -16 -61 -4 -4 -7 -25 -7 -46 0
-21 -4 -38 -8 -38 -16 0 -41 26 -62 65 -20 36 -22 49 -16 124 4 46 14 104 22
128 12 35 13 48 3 59 -25 31 -56 2 -64 -61 -1 -11 -3 -20 -5 -20 -1 0 -4 -25
-6 -55 -3 -30 -9 -71 -14 -90 -6 -19 -10 -49 -10 -66 0 -30 -3 -32 -41 -36
-23 -2 -57 3 -78 10 -20 8 -56 15 -81 17 -44 2 -81 11 -150 36 -152 54 -167
71 -151 176 21 134 35 164 115 246 61 63 81 77 105 77 l31 0 -50 -70 c-43 -60
-49 -74 -40 -91 8 -15 17 -18 33 -13 12 3 22 7 23 8 14 35 95 141 119 156 29
18 105 28 105 14 0 -5 -13 -22 -102 -127 -33 -39 -35 -61 -7 -81 21 -14 23
-12 60 42 40 61 92 122 104 122 4 0 20 9 36 21 39 28 73 37 138 38 47 1 62 -4
127 -46z m2762 -943 l26 -21 -45 6 c-24 4 -50 8 -57 11 -7 2 -17 -7 -21 -20
-5 -12 -33 -47 -61 -77 -97 -101 -108 -114 -114 -135 -3 -11 -42 -58 -86 -104
-44 -45 -83 -95 -87 -109 -3 -14 -13 -37 -22 -50 -28 -43 -37 -84 -30 -133 8
-50 50 -108 78 -108 57 0 151 53 234 129 21 20 47 41 57 46 32 18 126 111 161
161 60 84 74 128 74 226 0 73 2 85 13 74 14 -13 18 -101 8 -141 -9 -36 -41
-120 -47 -125 -3 -3 -9 -18 -13 -35 -4 -16 -11 -32 -15 -35 -4 -3 -24 -31 -45
-63 -69 -110 -196 -232 -271 -261 -61 -24 -204 -42 -247 -31 -25 6 -25 8 -26
108 0 88 3 108 23 143 12 23 25 58 29 78 4 20 15 40 26 46 10 5 21 24 25 41 4
18 26 56 49 85 22 29 53 72 68 96 42 67 64 94 118 142 38 34 117 76 143 76 16
0 41 -9 55 -20z m25 -109 c23 -22 29 -72 15 -135 -12 -60 -75 -152 -145 -213
-165 -144 -207 -176 -258 -197 -39 -17 -40 -17 -58 6 -23 27 -17 86 12 127 10
14 22 37 26 51 4 14 29 48 55 75 79 81 110 119 110 134 0 7 38 51 84 98 76 76
87 83 113 77 15 -3 36 -14 46 -23z m-3303 -133 c0 -6 16 -7 40 -3 55 9 201
-21 267 -56 82 -43 163 -120 173 -163 8 -37 -4 -51 -15 -17 -9 29 -35 55 -96
93 -31 20 -63 45 -70 55 -25 35 -239 87 -262 64 -6 -6 -19 -11 -29 -11 -9 0
-22 -9 -28 -19 -5 -11 -16 -25 -23 -33 -32 -33 -96 -120 -103 -140 -4 -13 -20
-39 -35 -58 -24 -30 -28 -45 -29 -100 -2 -94 15 -289 35 -410 17 -102 50 -180
76 -180 5 0 22 -9 37 -19 15 -11 63 -32 107 -46 44 -15 84 -31 89 -36 6 -5 20
-9 33 -9 13 0 23 -4 23 -10 0 -19 -103 -11 -135 11 -33 23 -59 35 -125 59 -42
15 -50 24 -122 146 -97 161 -116 210 -122 316 -7 126 22 242 76 301 84 92 112
132 165 237 10 19 22 38 27 41 11 9 46 -1 46 -13z m194 -113 c26 -8 66 -30 87
-50 21 -19 54 -41 72 -49 41 -17 89 -94 111 -180 16 -61 12 -231 -5 -250 -5
-6 -9 -33 -9 -61 0 -30 -6 -60 -16 -73 -8 -12 -16 -41 -18 -64 -4 -57 -38
-112 -84 -134 -20 -9 -49 -26 -64 -37 -35 -26 -93 -19 -180 21 -35 16 -75 32
-88 35 -14 3 -41 20 -61 36 -37 31 -46 56 -55 161 -2 19 -8 62 -13 95 -10 58
-19 169 -22 268 -1 29 4 54 13 65 8 9 18 24 22 32 6 14 15 28 61 96 10 16 35
46 55 66 32 35 39 38 90 38 30 0 77 -7 104 -15z m361 -290 c4 -27 10 -54 13
-60 8 -13 9 -15 25 -110 16 -96 13 -193 -8 -258 -23 -69 -93 -163 -132 -177
-35 -12 -96 -44 -153 -78 -19 -12 -44 -22 -55 -22 -20 1 -20 1 -1 15 11 8 25
15 32 15 25 0 133 72 159 106 32 42 57 111 50 136 -4 10 1 28 9 40 9 12 16 43
16 68 0 25 5 63 11 85 18 63 15 242 -4 294 -22 58 -21 62 7 26 15 -18 27 -50
31 -80z"/>
<path d="M3721 2174 c0 -11 3 -14 6 -6 3 7 2 16 -1 19 -3 4 -6 -2 -5 -13z"/>
<path d="M2869 913 c-13 -16 -12 -17 4 -4 9 7 17 15 17 17 0 8 -8 3 -21 -13z"/>
<path d="M100 42 c0 -5 7 -15 15 -22 8 -7 15 -8 15 -2 0 5 -7 15 -15 22 -8 7
-15 8 -15 2z"/>
</g>
</svg>
