<?xml version="1.0" standalone="no"?>
<!DOCTYPE svg PUBLIC "-//W3C//DTD SVG 20010904//EN"
 "http://www.w3.org/TR/2001/REC-SVG-20010904/DTD/svg10.dtd">
<svg version="1.0" xmlns="http://www.w3.org/2000/svg"
 width="417.000000pt" height="481.000000pt" viewBox="0 0 417.000000 481.000000"
 preserveAspectRatio="xMidYMid meet">
<metadata>
Created by potrace 1.16, written by Peter Selinger 2001-2019
</metadata>
<g transform="translate(0.000000,481.000000) scale(0.100000,-0.100000)"
fill="#000000" stroke="none">
<path d="M2445 4739 c-11 -4 -31 -8 -45 -8 -14 -1 -48 -13 -76 -27 -50 -25
-53 -25 -107 -12 -61 16 -66 15 -122 -36 -21 -20 -42 -36 -45 -36 -7 0 -31
-53 -44 -92 -3 -10 -11 -15 -20 -12 -7 3 -20 -3 -27 -14 -8 -10 -37 -33 -65
-52 -73 -47 -100 -97 -111 -203 -4 -43 -8 -49 -39 -62 -19 -8 -34 -18 -34 -22
0 -5 -10 -19 -23 -33 -33 -36 -48 -76 -61 -160 -10 -59 -10 -82 0 -105 11 -27
9 -33 -22 -73 -20 -27 -36 -61 -40 -89 -6 -42 -8 -44 -33 -37 -14 5 -43 8 -63
8 -21 0 -39 5 -39 11 -1 5 -3 19 -4 31 -10 94 -33 146 -92 211 -28 30 -48 43
-75 47 -116 18 -105 10 -112 72 -6 51 -20 91 -35 104 -4 3 -21 24 -40 48 -36
46 -139 112 -175 112 -13 0 -43 -7 -66 -15 -23 -8 -44 -15 -45 -15 -2 0 -19
29 -39 63 -19 35 -42 70 -51 77 -9 8 -23 26 -30 41 -17 32 -88 69 -134 69 -33
0 -91 -33 -91 -51 0 -6 -11 -34 -25 -63 -42 -89 -33 -216 19 -250 33 -21 50
-71 30 -90 -8 -8 -14 -19 -14 -25 0 -6 -3 -11 -8 -11 -4 0 -17 -19 -29 -42
-18 -34 -23 -60 -23 -128 -1 -100 1 -120 10 -120 4 0 10 -13 13 -29 8 -41 62
-98 113 -121 54 -25 56 -30 38 -66 -8 -16 -18 -65 -21 -109 -6 -91 1 -114 60
-177 29 -31 42 -38 73 -38 22 0 69 -3 106 -6 l67 -7 23 -46 c13 -25 28 -49 33
-53 6 -4 6 -8 1 -8 -5 0 -1 -9 9 -20 10 -11 15 -23 12 -27 -11 -11 134 -123
193 -150 8 -4 17 -9 20 -12 15 -17 72 -41 111 -47 24 -3 68 -15 97 -25 29 -10
65 -19 79 -19 15 0 24 -3 20 -6 -3 -3 4 -22 15 -42 11 -20 21 -49 22 -65 1
-16 8 -32 14 -36 7 -4 14 -30 16 -58 2 -28 6 -56 10 -61 19 -30 31 -212 21
-302 -1 -14 -3 -37 -4 -52 -1 -21 -7 -28 -33 -33 -106 -24 -248 -80 -316 -126
-40 -27 -76 -49 -81 -49 -4 0 -20 -12 -34 -27 -15 -16 -36 -37 -47 -47 -11
-11 -35 -44 -53 -75 -17 -30 -39 -66 -48 -80 -9 -14 -24 -51 -33 -81 -10 -30
-22 -64 -27 -75 -5 -11 -7 -28 -6 -39 2 -10 0 -38 -3 -62 -4 -25 -3 -47 2 -50
4 -3 8 -18 8 -34 0 -16 5 -32 11 -35 6 -4 8 -13 5 -21 -3 -7 -1 -16 4 -19 6
-4 10 -17 10 -31 0 -13 5 -24 10 -24 6 0 16 -12 23 -28 6 -15 15 -31 20 -37 4
-5 22 -39 40 -75 34 -69 113 -144 165 -156 15 -4 33 -13 40 -22 6 -9 12 -12
12 -8 0 5 7 2 16 -5 9 -8 22 -14 28 -14 15 0 95 -43 125 -66 13 -11 32 -19 42
-19 11 0 21 -10 25 -24 3 -13 14 -26 25 -29 19 -5 23 -11 33 -60 4 -16 16 -32
29 -37 17 -7 18 -9 4 -9 -20 -1 -18 -15 14 -112 28 -86 25 -268 -5 -327 -9
-17 -17 -45 -18 -64 -3 -31 -1 -33 27 -33 22 0 33 6 40 23 5 12 13 22 17 22 5
0 8 6 8 14 0 8 6 21 13 28 13 14 54 143 69 218 14 75 30 242 26 288 -2 29 0
41 9 38 12 -5 83 74 83 93 0 11 39 26 47 17 19 -19 18 -99 -4 -192 -32 -139
-31 -254 1 -254 17 0 47 38 36 45 -15 9 -12 101 5 175 9 36 16 71 17 78 1 6 5
12 10 12 5 0 6 44 3 99 l-6 99 42 31 c24 17 48 31 55 31 12 0 24 -44 24 -89 0
-29 24 -70 35 -60 3 4 7 22 7 40 0 19 3 38 6 43 3 6 7 37 10 70 3 54 8 64 35
88 18 15 44 33 60 40 15 7 27 16 27 19 0 4 19 19 42 34 48 32 72 55 112 108
16 20 44 54 62 74 19 20 34 44 34 52 0 9 7 25 15 35 8 11 15 34 15 51 0 17 5
36 10 41 17 17 25 208 10 257 -16 53 -32 89 -46 102 -24 22 -84 103 -84 113 0
10 -140 82 -187 96 -13 4 -23 12 -23 17 0 5 -10 9 -23 9 -13 0 -27 3 -31 7 -8
8 -14 9 -114 11 l-72 2 5 68 c5 66 7 83 19 132 4 14 11 57 16 95 23 171 58
315 77 315 2 0 16 -6 31 -14 15 -7 45 -13 68 -13 22 0 53 -8 68 -18 22 -15 40
-17 103 -11 86 7 157 39 201 92 52 60 62 74 62 84 0 5 9 26 20 46 12 20 27 60
35 90 18 71 22 75 51 68 15 -4 34 0 49 10 27 18 165 197 165 215 0 5 5 22 12
38 6 15 12 30 13 33 1 3 4 12 8 20 3 8 8 41 12 72 7 62 13 70 57 75 81 9 143
70 207 204 39 82 40 87 38 180 -2 68 -7 102 -19 120 -13 20 -13 28 -4 41 21
29 12 164 -16 232 -20 51 -31 63 -68 84 -76 40 -163 33 -265 -22 -33 -18 -83
-40 -110 -49 -43 -15 -85 -45 -85 -62 0 -9 -43 -76 -46 -72 -5 4 49 114 64
133 11 13 40 102 43 129 1 11 1 48 0 82 -1 50 -5 67 -25 87 -25 27 -49 32
-106 21 -31 -6 -41 -2 -85 32 -59 47 -73 53 -100 42z m25 -87 c0 -4 13 -16 30
-25 16 -10 29 -23 27 -29 -1 -6 10 -18 24 -26 24 -14 30 -14 62 1 67 32 79 21
73 -74 -5 -71 -13 -96 -42 -128 -13 -14 -24 -33 -24 -41 0 -18 -43 -104 -61
-124 -23 -23 -49 -56 -49 -61 0 -2 -16 -19 -35 -38 -19 -18 -57 -78 -86 -133
-35 -69 -68 -116 -108 -155 -31 -30 -67 -78 -80 -105 -30 -60 -81 -238 -76
-264 4 -19 -49 -70 -72 -70 -5 0 -18 -12 -29 -27 -38 -53 -49 -95 -49 -198 0
-72 -5 -111 -17 -138 -10 -20 -18 -41 -18 -45 -1 -4 -9 -16 -19 -27 -10 -11
-24 -44 -31 -72 -14 -61 -36 -74 -26 -15 4 20 8 55 10 77 3 22 9 51 14 65 12
32 5 80 -15 102 -14 16 -14 27 -4 90 6 40 17 78 23 85 5 7 11 53 13 101 2 72
7 96 27 133 14 24 26 49 26 54 3 13 78 192 97 228 8 16 15 34 15 41 0 25 41
66 66 66 18 0 27 9 38 35 9 20 26 39 41 45 14 5 25 13 25 18 0 5 12 15 28 23
15 8 32 17 37 22 87 66 122 95 133 109 7 10 26 25 41 33 20 10 29 22 29 40 0
36 -22 32 -78 -15 -26 -22 -52 -40 -58 -40 -6 0 -12 -3 -14 -7 -5 -13 -88 -64
-88 -55 0 12 62 85 137 161 59 61 75 92 54 106 -5 3 -33 -18 -63 -46 -141
-134 -162 -156 -192 -193 -18 -23 -54 -77 -81 -121 -45 -72 -50 -77 -56 -55
-11 46 -7 284 7 348 19 91 5 119 -31 60 -18 -31 -28 -72 -40 -163 -9 -71 -13
-370 -5 -380 4 -5 -13 -53 -38 -105 -26 -52 -47 -88 -48 -80 -1 8 -8 62 -14
120 -13 109 -24 144 -42 138 -12 -4 -15 -378 -3 -398 3 -5 2 -25 -3 -43 -11
-34 -17 -69 -28 -152 -3 -27 -8 -53 -10 -57 -2 -3 -7 -30 -9 -59 -3 -29 -7
-54 -8 -55 -1 -1 -12 -5 -24 -8 -20 -6 -23 -4 -23 21 -1 74 -13 109 -47 145
-25 26 -34 43 -30 57 3 12 1 24 -4 27 -13 7 -11 61 2 69 7 5 4 14 -8 27 -13
14 -19 39 -20 87 -1 36 -3 66 -3 66 -1 0 -4 12 -6 27 -6 34 16 77 61 124 40
41 46 81 16 108 -11 10 -18 23 -16 29 2 7 6 35 8 62 3 28 15 69 28 92 18 35
31 45 71 59 54 18 71 43 56 83 -30 82 66 211 157 211 39 0 51 16 61 77 4 27
18 50 48 79 l42 41 61 -9 c58 -9 65 -7 120 21 54 28 123 41 123 23z m-1894
-223 c19 -11 34 -24 34 -29 0 -4 11 -18 25 -31 13 -13 25 -30 25 -36 0 -7 4
-13 8 -13 4 0 20 -27 35 -59 15 -34 35 -61 45 -63 9 -2 37 2 62 10 72 21 120
9 178 -46 57 -54 83 -100 83 -145 1 -18 5 -43 10 -57 12 -31 80 -67 132 -69
30 -1 46 -10 78 -44 52 -54 57 -68 64 -173 3 -47 8 -90 11 -96 6 -9 25 -8 101
8 27 5 37 2 53 -17 26 -31 51 -75 44 -81 -2 -3 3 -33 11 -67 9 -34 15 -69 14
-79 -1 -9 0 -24 4 -32 3 -8 8 -27 11 -42 4 -18 15 -30 31 -34 17 -4 27 -16 34
-40 11 -40 -3 -102 -25 -111 -8 -3 -14 -14 -14 -25 0 -25 -28 -78 -41 -78 -6
0 -13 9 -16 19 -6 24 -27 33 -60 25 -21 -6 -24 -11 -21 -40 2 -19 2 -34 -2
-34 -7 0 -40 59 -40 73 0 6 -9 20 -20 32 -11 11 -32 38 -46 59 -23 35 -24 40
-9 48 11 7 15 18 11 36 -3 15 -8 72 -11 127 -8 143 -15 192 -30 205 -11 9 -17
5 -29 -18 -8 -16 -13 -32 -10 -35 9 -9 13 -193 5 -206 -11 -17 -55 21 -104 91
-100 144 -106 155 -132 265 -14 59 -29 122 -34 138 -6 17 -17 64 -25 105 -9
41 -20 92 -25 113 -15 65 -56 95 -46 35 3 -18 10 -64 16 -103 6 -38 20 -116
30 -173 10 -57 19 -112 19 -122 0 -32 -24 -13 -61 48 -18 31 -44 65 -56 75
-13 10 -23 27 -23 38 0 10 -4 19 -10 19 -5 0 -13 12 -16 28 -7 30 -43 95 -56
100 -4 2 -8 10 -8 17 0 12 -21 25 -41 25 -14 0 -11 -78 4 -87 15 -9 31 -38 75
-135 17 -36 37 -70 44 -75 7 -4 30 -34 51 -66 24 -36 50 -63 69 -71 17 -8 37
-26 44 -42 35 -72 61 -110 85 -121 28 -13 55 -41 48 -48 -2 -2 -45 21 -94 51
-50 29 -97 54 -105 54 -8 0 -37 11 -65 25 -27 13 -60 25 -72 25 -20 0 -23 -5
-23 -40 0 -24 5 -42 13 -44 151 -44 274 -101 356 -165 20 -15 41 -30 47 -32
20 -7 94 -71 94 -82 0 -5 11 -24 24 -41 36 -48 55 -90 54 -122 -1 -16 2 -39 6
-52 9 -27 13 -27 -81 -1 -43 12 -109 40 -146 63 -38 22 -84 50 -102 61 -51 31
-82 67 -90 103 -3 17 -11 32 -16 32 -5 0 -9 9 -9 20 0 11 -17 37 -37 57 -34
32 -45 37 -116 45 -44 4 -84 8 -91 7 -31 -4 -45 4 -69 39 -22 31 -26 46 -24
95 3 46 8 62 30 85 15 15 27 33 27 39 0 33 -39 79 -101 118 -88 57 -112 100
-112 201 1 79 17 121 60 152 25 18 28 26 26 73 -2 38 -10 62 -30 92 -50 71
-54 81 -50 127 8 90 30 140 60 140 11 0 35 -9 53 -21z m2589 -160 c19 -60 17
-114 -6 -192 -12 -44 -12 -50 3 -58 25 -14 40 -72 34 -129 -6 -49 -54 -159
-82 -187 -8 -8 -14 -18 -14 -23 0 -9 -52 -41 -65 -40 -47 2 -66 -4 -92 -27
-34 -31 -49 -72 -58 -151 -3 -29 -10 -61 -15 -70 -5 -9 -16 -34 -24 -54 -8
-21 -20 -38 -25 -38 -6 0 -11 -7 -11 -15 0 -8 -3 -15 -7 -15 -5 0 -20 -20 -35
-44 -28 -43 -28 -43 -78 -38 -42 4 -51 2 -57 -14 -3 -11 -13 -30 -22 -43 -16
-26 -17 -27 -27 -81 -10 -55 -58 -152 -93 -187 -52 -52 -204 -89 -236 -57 -8
8 -40 18 -70 21 -32 3 -53 10 -52 17 1 6 -8 10 -20 8 -26 -4 -33 25 -8 34 8 4
15 17 15 31 0 14 8 37 19 51 21 31 45 98 38 109 -10 17 76 173 95 173 5 0 30
20 55 45 24 25 52 45 61 46 9 0 24 2 32 4 8 3 42 11 74 19 32 8 64 20 69 25 6
6 19 11 28 11 40 0 125 77 106 96 -3 4 -25 -3 -49 -14 -24 -11 -52 -23 -63
-27 -35 -13 -155 -32 -155 -24 0 4 49 58 108 119 83 85 116 112 138 115 35 3
151 47 190 71 31 18 98 84 86 84 -3 0 -1 5 6 12 7 7 12 22 12 34 0 16 -6 22
-25 22 -17 0 -25 -6 -25 -17 0 -29 -55 -72 -116 -91 -33 -10 -60 -17 -62 -15
-3 3 17 43 43 84 41 66 83 142 95 171 7 19 16 40 20 45 4 6 10 23 14 40 4 16
12 33 18 36 7 5 6 14 -4 28 -14 20 -16 20 -30 4 -9 -10 -26 -43 -39 -73 -25
-60 -79 -153 -91 -158 -4 -2 -8 -8 -8 -14 0 -5 -13 -28 -29 -51 -15 -23 -30
-48 -32 -54 -6 -18 -179 -203 -191 -203 -5 0 -7 3 -5 8 3 4 8 32 12 62 3 30 8
66 10 80 5 35 -4 60 -21 60 -17 0 -35 -40 -40 -87 -1 -18 -10 -55 -18 -82 -8
-28 -13 -64 -11 -81 3 -25 -4 -39 -40 -78 -25 -26 -45 -49 -45 -53 0 -3 -23
-30 -51 -60 -45 -48 -139 -179 -139 -193 0 -3 -16 -30 -35 -60 -19 -30 -35
-60 -35 -66 0 -6 -11 -27 -23 -48 -14 -21 -24 -54 -25 -77 -1 -23 -8 -45 -17
-51 -8 -6 -12 -13 -9 -16 2 -3 -2 -23 -9 -44 -27 -73 -57 -179 -61 -214 -2
-19 -11 -63 -20 -98 -9 -34 -14 -67 -10 -73 3 -5 3 -18 -1 -27 -8 -19 -10 -26
-24 -127 -6 -38 -13 -81 -17 -95 -5 -23 -6 -23 -16 -6 -10 17 -7 123 6 211 3
17 8 68 12 115 4 46 14 100 22 120 9 19 17 44 19 55 2 11 7 31 12 45 6 14 13
44 16 68 4 24 13 46 20 48 7 3 11 14 8 25 -3 11 5 33 19 52 13 17 29 43 36 57
7 14 20 39 30 55 19 30 18 64 -2 77 -6 4 -10 31 -10 61 1 65 25 110 74 139 61
37 72 55 78 124 2 36 9 67 13 70 5 3 9 16 9 28 0 38 44 144 73 178 15 16 27
32 27 35 0 6 27 33 34 33 8 0 46 38 47 48 1 4 5 17 10 30 5 13 9 28 9 33 0 5
4 9 8 9 5 0 21 27 36 60 17 36 34 60 44 60 8 0 31 12 51 27 20 16 38 28 41 28
3 0 29 16 58 34 39 26 59 48 79 88 21 40 33 53 49 53 13 0 26 5 29 10 3 6 14
10 23 10 9 0 40 15 67 33 30 19 73 36 110 43 54 9 64 8 97 -10 30 -17 39 -30
53 -77z m-1425 -1216 c0 -29 -15 -61 -24 -52 -5 5 14 79 21 79 2 0 3 -12 3
-27z m65 -102 c-4 -23 -11 -43 -16 -47 -12 -7 -11 -2 2 52 14 55 24 51 14 -5z
m-276 -46 c7 -19 16 -35 21 -35 5 0 12 -15 15 -32 4 -18 15 -42 25 -53 10 -11
21 -40 25 -65 4 -24 9 -49 13 -54 3 -6 5 -26 3 -45 -1 -19 6 -50 15 -69 14
-30 16 -58 11 -176 -5 -144 -11 -180 -30 -173 -6 2 -11 63 -13 161 -2 124 -6
162 -18 175 -8 9 -18 41 -21 71 -4 30 -13 66 -20 80 -8 14 -24 59 -36 100 -12
41 -28 82 -35 91 -8 9 -11 19 -7 23 5 4 9 12 9 17 3 17 4 19 17 19 7 0 19 -16
26 -35z m165 -96 c-7 -73 -8 -73 -19 -39 -6 19 -19 51 -29 71 -18 35 -18 37 0
56 18 19 20 19 38 3 16 -16 17 -26 10 -91z m90 -36 c-4 -65 -8 -183 -9 -263
-1 -80 -3 -189 -5 -242 l-4 -98 -33 0 c-36 0 -36 1 -16 72 2 10 4 75 4 145 0
71 5 136 11 147 12 23 18 68 21 178 1 43 4 78 7 78 3 0 6 19 8 42 3 40 8 58
18 58 3 0 2 -53 -2 -117z m166 -688 c130 -9 150 -13 250 -57 91 -40 132 -63
138 -78 3 -8 23 -33 45 -55 58 -60 78 -114 76 -204 -3 -98 -26 -211 -49 -236
-9 -11 -19 -25 -21 -32 -11 -32 -146 -173 -167 -173 -4 0 -25 -16 -46 -35 -21
-19 -41 -35 -44 -35 -6 0 -102 -72 -123 -92 -30 -29 -72 -58 -84 -58 -7 0 -15
17 -19 39 -5 34 -8 38 -31 33 -38 -7 -48 -33 -29 -77 18 -45 13 -62 -21 -71
-14 -3 -25 -9 -25 -13 0 -4 -18 -26 -40 -51 -33 -37 -41 -41 -55 -30 -8 7 -15
18 -15 25 0 29 -66 34 -75 6 -7 -22 3 -71 15 -71 4 0 13 -14 20 -31 10 -22 11
-65 6 -162 -9 -165 -14 -176 -41 -74 -8 31 -16 74 -17 96 -2 23 -5 41 -9 41
-3 0 -13 24 -23 53 -11 28 -29 63 -42 78 -13 14 -24 30 -24 37 0 6 -14 19 -30
27 -17 9 -63 36 -101 62 -39 25 -108 62 -152 83 -45 21 -94 51 -109 67 -14 15
-49 73 -78 128 -28 55 -56 104 -61 110 -5 5 -9 21 -9 36 0 15 -5 31 -10 34
-30 19 20 275 56 289 8 3 13 10 10 14 -3 5 5 23 17 42 12 18 27 41 33 51 22
38 111 120 164 153 93 57 281 122 384 132 22 2 42 6 45 9 4 5 149 0 291 -10z"/>
</g>
</svg>
