<?xml version="1.0" standalone="no"?>
<!DOCTYPE svg PUBLIC "-//W3C//DTD SVG 20010904//EN"
 "http://www.w3.org/TR/2001/REC-SVG-20010904/DTD/svg10.dtd">
<svg version="1.0" xmlns="http://www.w3.org/2000/svg"
 width="485.000000pt" height="443.000000pt" viewBox="0 0 485.000000 443.000000"
 preserveAspectRatio="xMidYMid meet">
<metadata>
Created by potrace 1.16, written by Peter Selinger 2001-2019
</metadata>
<g transform="translate(0.000000,443.000000) scale(0.100000,-0.100000)"
fill="#000000" stroke="none">
<path d="M3805 4280 c-11 -5 -16 -9 -11 -9 4 -1 1 -13 -9 -27 -23 -35 -27 -64
-10 -70 11 -5 12 -11 5 -24 -6 -10 -10 -28 -10 -40 0 -12 -8 -34 -19 -48 -10
-15 -33 -61 -50 -102 -18 -41 -62 -120 -99 -175 -80 -120 -74 -113 -79 -98
-10 28 -154 183 -170 183 -8 0 -30 7 -51 16 -20 10 -46 19 -57 21 -10 2 -30
11 -43 19 -29 19 -178 34 -192 20 -5 -5 -31 -9 -57 -8 -26 0 -53 -4 -58 -8
-11 -9 -107 19 -113 33 -6 11 -153 8 -197 -5 -22 -6 -43 -13 -47 -14 -5 -1
-11 -3 -15 -4 -5 -1 -12 -2 -18 0 -36 7 -165 -50 -331 -145 -50 -29 -101 -56
-115 -60 -51 -16 -231 -176 -332 -295 -37 -45 -69 -104 -103 -190 -17 -43 -96
-182 -118 -207 -31 -36 -146 -152 -174 -175 -18 -15 -37 -37 -42 -50 -18 -40
-34 -63 -74 -112 -22 -25 -53 -70 -69 -99 -17 -28 -34 -53 -38 -55 -5 -2 -9
-10 -9 -17 0 -7 -3 -15 -7 -17 -9 -3 -30 -45 -61 -119 -11 -25 -36 -62 -57
-82 -21 -20 -35 -37 -30 -37 7 0 -4 -13 -99 -123 -43 -50 -165 -174 -176 -179
-11 -6 -70 -118 -70 -135 0 -10 -10 -30 -23 -45 -45 -55 -57 -72 -57 -85 0 -7
-9 -18 -20 -25 -11 -7 -20 -18 -20 -24 0 -6 -7 -17 -15 -24 -8 -7 -20 -30 -27
-51 -6 -22 -14 -39 -18 -39 -4 0 -15 -25 -25 -55 -9 -30 -20 -55 -24 -55 -5 0
-16 -19 -26 -42 -9 -24 -21 -52 -26 -63 -5 -11 -10 -77 -12 -146 -2 -88 -7
-131 -16 -143 -10 -12 -11 -19 -2 -30 9 -11 9 -15 -1 -19 -10 -3 -10 -8 2 -23
8 -10 24 -37 35 -58 26 -52 66 -96 86 -96 12 0 16 -12 18 -52 1 -41 7 -58 27
-79 15 -15 32 -25 39 -23 14 6 20 -13 30 -91 4 -27 11 -65 17 -83 5 -18 11
-39 12 -45 11 -56 33 -99 64 -124 19 -15 47 -40 61 -54 35 -34 126 -99 140
-99 6 0 11 -4 11 -10 0 -5 4 -10 9 -10 5 0 31 -13 58 -30 26 -16 61 -31 76
-34 16 -3 43 -9 60 -15 18 -5 46 -10 62 -9 17 0 80 -3 140 -5 61 -3 133 -1
160 4 28 5 68 10 90 12 56 6 167 60 219 107 24 22 50 40 59 40 8 0 38 12 66
27 35 18 66 26 98 25 39 0 50 4 70 29 14 16 35 29 46 29 12 0 36 7 52 16 75
40 109 46 286 49 178 4 305 16 368 34 19 6 38 8 43 5 11 -7 158 47 158 58 0 4
6 5 14 2 8 -3 53 13 101 35 47 23 89 41 94 41 23 0 178 83 210 113 20 18 51
44 69 57 17 13 32 30 32 37 0 8 4 12 9 9 13 -9 173 156 286 294 20 25 47 54
59 65 33 30 96 116 96 131 0 8 4 14 9 14 5 0 13 9 16 20 3 11 11 20 16 20 12
0 51 39 53 54 1 7 12 25 24 40 12 16 22 33 22 38 0 5 15 24 33 42 36 37 52 60
67 94 5 12 14 22 20 22 5 0 10 10 10 22 0 12 7 29 16 39 8 9 17 23 18 31 2 7
6 20 9 28 7 20 40 160 43 185 1 11 3 20 4 20 1 0 2 16 4 35 1 19 10 53 20 75
31 72 51 110 59 116 19 14 37 133 33 212 -3 45 -6 83 -7 85 -1 1 -2 5 -3 10
-26 116 -54 217 -67 247 -5 11 -10 31 -12 45 -1 14 -8 34 -13 45 -6 11 -17 43
-23 70 -14 56 -42 115 -53 115 -5 0 -8 6 -8 13 0 13 -92 97 -127 116 -13 6
-26 23 -29 36 -5 19 -13 25 -35 25 -16 0 -29 5 -29 10 0 6 -7 10 -16 10 -9 0
-14 6 -12 12 3 7 -4 21 -13 32 -11 11 -18 33 -17 51 2 45 -42 133 -91 182 -23
23 -47 44 -54 47 -8 3 -2 14 16 30 15 14 27 29 27 33 0 5 10 13 22 18 24 11
117 137 145 198 10 20 22 37 28 37 15 0 65 88 65 115 0 13 5 27 10 30 20 13 8
41 -40 95 -28 30 -50 58 -50 61 0 4 -16 10 -35 13 -26 5 -42 17 -59 44 -24 38
-70 83 -84 81 -4 0 -16 -4 -27 -9z m-1057 -440 c2 -5 20 -10 39 -10 33 0 73
-28 73 -51 0 -4 9 -11 21 -14 11 -4 18 -9 15 -12 -3 -3 5 -22 18 -42 23 -39
27 -68 8 -64 -6 2 -24 -2 -39 -9 -15 -6 -33 -10 -40 -9 -6 1 -14 -3 -18 -9 -3
-5 -20 -10 -37 -10 -31 0 -98 -34 -98 -50 0 -4 -20 -18 -44 -30 -24 -11 -50
-28 -56 -36 -7 -7 -62 -42 -123 -77 -88 -50 -123 -76 -176 -135 -36 -41 -68
-78 -70 -84 -2 -6 -11 -19 -20 -28 -27 -30 -56 -75 -53 -82 1 -5 -3 -8 -8 -8
-6 0 -10 -5 -10 -10 0 -6 -17 -27 -38 -48 -22 -20 -50 -53 -62 -72 -13 -19
-27 -37 -30 -40 -11 -10 -46 -67 -80 -131 -19 -36 -47 -88 -62 -116 -14 -27
-29 -66 -33 -86 -4 -20 -11 -37 -16 -37 -5 0 -9 -6 -9 -13 0 -7 -19 -37 -41
-67 -23 -30 -46 -67 -51 -82 -11 -30 -126 -136 -177 -163 -40 -20 -49 -27
-106 -80 -74 -69 -123 -105 -147 -107 -33 -4 -70 -47 -66 -77 3 -23 8 -26 46
-29 49 -4 67 8 164 102 32 30 83 72 115 93 32 21 67 45 77 53 36 27 151 144
162 165 20 39 39 70 44 75 13 12 50 82 50 95 0 7 4 15 9 17 4 2 29 48 55 103
73 153 79 164 108 193 15 15 28 32 28 37 0 6 11 22 25 37 14 15 25 31 25 36 0
5 11 18 25 28 14 10 25 24 25 31 0 6 8 14 18 17 16 6 35 32 75 108 35 68 162
188 231 219 14 7 26 16 26 20 0 4 34 24 76 44 41 20 90 50 108 65 57 51 260
111 322 96 39 -10 153 -78 192 -115 18 -16 32 -27 32 -24 0 8 64 -41 87 -67
13 -14 28 -43 34 -65 6 -22 14 -44 19 -50 4 -5 6 -18 4 -28 -1 -10 4 -44 12
-75 18 -69 16 -137 -7 -219 -9 -34 -15 -64 -11 -67 3 -3 1 -6 -4 -6 -5 0 -11
-12 -12 -27 -1 -15 -9 -37 -17 -50 -9 -13 -14 -23 -11 -23 2 0 -6 -30 -19 -67
-13 -37 -21 -72 -18 -77 4 -6 3 -8 -1 -4 -9 8 -53 -36 -68 -67 -46 -99 -232
-345 -261 -345 -12 0 -124 -80 -171 -122 -22 -21 -44 -38 -48 -38 -15 0 -81
-72 -117 -127 -21 -33 -54 -71 -72 -83 -19 -13 -36 -27 -39 -30 -17 -21 -224
-110 -255 -110 -8 0 -29 -6 -47 -14 -56 -24 -167 -57 -186 -55 -61 6 -93 -3
-153 -44 -35 -24 -80 -49 -99 -57 -19 -7 -46 -24 -61 -37 -14 -12 -29 -23 -33
-23 -4 0 -28 -14 -53 -30 -24 -17 -53 -32 -64 -33 -10 -2 -22 -6 -25 -10 -4
-4 -18 -7 -31 -7 -12 0 -34 -10 -48 -22 -32 -27 -30 -65 3 -92 21 -16 29 -17
63 -7 21 6 43 21 49 32 6 11 15 17 20 14 6 -3 38 14 72 38 35 24 80 51 100 61
21 9 42 25 48 35 5 11 22 24 37 30 16 7 48 23 73 36 25 14 61 25 80 25 46 0
143 25 196 50 22 11 48 20 57 20 9 0 47 11 84 25 38 15 68 25 68 24 0 -11 98
40 140 74 6 4 34 26 64 47 29 22 50 40 46 40 -4 0 6 15 21 33 16 19 36 44 44
56 23 33 196 180 277 234 66 45 123 102 123 125 0 5 7 16 16 23 14 12 81 102
109 148 6 9 25 35 43 59 18 23 31 42 27 42 -3 0 3 10 15 22 11 12 20 28 20 35
0 7 11 31 25 54 14 22 37 72 51 112 15 40 30 77 34 82 27 35 34 252 12 351 -9
41 -5 103 7 105 40 8 136 11 167 5 17 -3 47 -8 67 -10 55 -7 139 -74 173 -136
11 -19 22 -37 25 -40 14 -12 25 -70 23 -120 -8 -156 -25 -274 -53 -357 -16
-48 -32 -101 -36 -118 -4 -16 -13 -37 -20 -45 -14 -15 -14 -43 0 -87 6 -18 15
-23 40 -23 40 0 63 31 69 90 2 22 6 43 10 47 3 3 6 18 6 33 0 14 7 51 15 81
47 167 54 205 60 308 2 52 6 96 8 98 11 10 57 -19 71 -44 39 -71 56 -110 56
-130 0 -13 4 -23 9 -23 9 0 29 -43 34 -75 2 -11 8 -30 15 -42 7 -12 12 -31 12
-42 0 -10 4 -21 9 -23 5 -1 12 -25 15 -53 8 -65 10 -78 17 -90 4 -5 6 -26 5
-45 -1 -19 1 -52 5 -73 3 -20 3 -40 -2 -43 -4 -2 -6 -11 -3 -19 3 -7 -4 -34
-15 -59 -11 -26 -21 -50 -22 -54 0 -4 -9 -23 -20 -43 -10 -20 -15 -40 -11 -44
4 -5 -1 -5 -10 -2 -14 5 -18 1 -19 -21 -1 -15 -1 -33 0 -39 1 -7 -3 -13 -9
-13 -6 0 -9 -4 -6 -9 7 -11 -19 -150 -39 -205 -57 -166 -101 -246 -219 -401
-34 -44 -64 -81 -68 -83 -5 -2 -8 -8 -8 -14 0 -6 -20 -32 -45 -57 -25 -25 -57
-62 -72 -82 -46 -59 -136 -161 -178 -202 -22 -21 -69 -67 -105 -101 -36 -35
-78 -71 -95 -82 -16 -10 -36 -25 -44 -32 -38 -36 -144 -88 -286 -139 -22 -8
-53 -20 -70 -28 -55 -23 -89 -34 -200 -61 -96 -24 -139 -28 -330 -34 -121 -4
-231 -10 -244 -13 -13 -4 -45 -13 -70 -21 -83 -25 -125 -35 -173 -41 -28 -4
-48 -11 -48 -19 0 -13 -80 -56 -105 -56 -7 0 -51 -28 -97 -62 -89 -68 -125
-85 -203 -98 -27 -5 -65 -13 -84 -19 -55 -17 -332 5 -401 32 -30 11 -59 27
-63 34 -4 7 -12 13 -18 13 -32 0 -234 155 -256 197 -15 29 -24 143 -16 199 l5
31 67 -5 c59 -4 74 -1 117 22 27 14 52 26 56 26 5 0 17 9 28 20 20 20 22 43 7
68 -13 19 -72 15 -91 -7 -30 -33 -73 -46 -111 -32 -18 6 -67 12 -109 13 -76 2
-100 12 -95 40 1 7 -1 26 -6 42 -7 24 -4 32 23 52 17 13 33 37 37 53 3 15 28
52 55 82 l48 53 -14 35 c-18 44 -19 44 -42 37 -39 -13 -104 -95 -117 -148 -8
-33 -51 -81 -68 -75 -6 2 -22 21 -33 42 -20 34 -21 41 -8 71 8 20 12 51 9 76
-13 104 -5 149 41 246 19 40 50 108 68 152 19 43 48 93 65 112 17 18 31 39 31
47 0 8 3 12 6 8 10 -9 64 75 64 99 0 12 7 24 15 28 8 3 15 14 15 26 0 23 17
46 84 109 72 68 116 117 116 129 0 4 13 14 29 24 36 20 117 143 152 231 6 15
15 27 19 27 5 0 11 13 15 29 3 17 31 66 61 111 30 45 54 85 54 89 0 5 18 29
40 54 22 25 40 48 40 51 0 15 144 166 159 166 6 0 25 31 37 62 3 10 15 20 25
23 10 4 19 10 19 15 0 4 15 30 34 57 18 26 37 60 41 73 4 14 13 32 19 40 7 8
35 61 63 117 29 55 60 111 70 123 56 67 203 210 233 226 19 11 37 21 40 24 9
9 119 69 250 137 19 10 37 21 38 26 2 4 10 7 18 7 8 0 14 5 14 10 0 6 13 10
29 10 17 0 33 5 36 10 3 6 25 10 48 11 23 0 60 4 82 9 49 11 169 4 173 -10z
m397 -11 c5 -5 16 -9 25 -9 8 0 38 -11 65 -25 28 -13 55 -25 61 -25 14 0 99
-86 99 -100 0 -6 6 -14 12 -18 7 -5 16 -22 19 -39 5 -26 1 -35 -21 -55 -15
-12 -33 -28 -39 -34 -16 -15 -46 -25 -46 -15 0 5 -20 17 -45 26 -24 10 -58 30
-74 44 -17 15 -53 38 -80 52 -31 14 -50 31 -51 41 0 9 -7 21 -15 25 -8 5 -16
21 -17 36 -1 15 -6 27 -10 27 -4 0 -8 5 -8 12 0 6 -7 20 -16 30 -13 14 -14 21
-5 32 22 26 115 23 146 -5z m601 -397 c26 -20 57 -62 51 -68 -3 -3 -39 2 -81
10 -41 9 -88 16 -103 17 -16 0 -22 3 -13 6 8 3 30 19 48 35 36 31 57 31 98 0z"/>
</g>
</svg>
