<?xml version="1.0" standalone="no"?>
<!DOCTYPE svg PUBLIC "-//W3C//DTD SVG 20010904//EN"
 "http://www.w3.org/TR/2001/REC-SVG-20010904/DTD/svg10.dtd">
<svg version="1.0" xmlns="http://www.w3.org/2000/svg"
 width="517.000000pt" height="447.000000pt" viewBox="0 0 517.000000 447.000000"
 preserveAspectRatio="xMidYMid meet">
<metadata>
Created by potrace 1.16, written by Peter Selinger 2001-2019
</metadata>
<g transform="translate(0.000000,447.000000) scale(0.100000,-0.100000)"
fill="#000000" stroke="none">
<path d="M4039 4360 c-13 -8 -30 -20 -37 -27 -6 -6 -21 -15 -32 -18 -11 -3
-20 -10 -20 -15 0 -5 -13 -11 -29 -15 -16 -3 -43 -19 -62 -36 -18 -16 -38 -29
-45 -29 -28 0 -156 -82 -284 -183 -9 -7 -42 -32 -75 -56 -33 -24 -64 -49 -70
-55 -5 -7 -27 -22 -48 -34 -69 -40 -147 -115 -147 -142 0 -16 -48 -31 -77 -24
-36 9 -142 120 -166 174 -11 25 -23 47 -26 50 -19 15 -111 133 -111 143 0 5
-3 7 -6 4 -4 -3 -15 4 -25 17 -10 13 -34 31 -54 40 -19 9 -35 21 -35 26 0 4
-13 11 -29 15 -15 3 -38 15 -50 26 -12 11 -56 38 -97 60 l-76 39 -146 0 c-131
0 -155 -3 -217 -25 -38 -13 -78 -25 -88 -25 -29 0 -189 -71 -229 -102 -20 -15
-41 -28 -46 -28 -5 0 -15 -7 -22 -15 -7 -8 -16 -13 -20 -10 -23 14 -212 -139
-295 -239 -22 -27 -70 -84 -108 -128 -37 -43 -67 -85 -67 -93 0 -7 -9 -17 -20
-20 -11 -4 -20 -15 -20 -26 0 -11 -13 -34 -30 -51 -16 -16 -30 -38 -30 -47 0
-10 -16 -34 -35 -54 -19 -20 -35 -40 -35 -44 0 -4 -9 -19 -20 -33 -24 -31 -64
-209 -85 -380 -4 -33 -18 -86 -25 -95 -4 -5 -11 -26 -15 -45 -4 -19 -15 -48
-25 -65 -18 -30 -35 -83 -32 -98 1 -4 -5 -21 -14 -38 -8 -17 -13 -33 -10 -37
3 -3 2 -10 -4 -17 -5 -6 -11 -67 -14 -136 -6 -137 -10 -159 -56 -304 -17 -55
-36 -118 -41 -140 -5 -22 -13 -49 -18 -60 -27 -59 -40 -108 -39 -137 1 -19 -4
-42 -9 -53 -6 -11 -9 -44 -8 -74 2 -30 -1 -66 -7 -80 -15 -38 -19 -100 -8
-120 5 -11 12 -45 14 -76 5 -51 10 -62 45 -94 45 -41 72 -98 101 -208 10 -40
21 -77 24 -81 8 -14 17 -65 19 -117 3 -55 35 -166 51 -177 6 -4 8 -10 4 -13
-10 -10 93 -102 142 -127 25 -13 59 -35 75 -50 17 -16 33 -28 36 -28 11 0 69
-60 69 -71 0 -21 101 -135 168 -190 57 -48 174 -108 226 -118 31 -6 65 -15 76
-21 12 -6 51 -11 88 -10 37 0 90 -5 117 -11 68 -14 197 -18 213 -6 7 6 34 10
60 8 27 -1 72 7 107 20 33 11 86 24 118 29 31 4 68 15 82 24 13 9 34 16 45 16
34 0 120 40 188 87 35 24 65 43 68 43 3 0 32 26 64 58 75 73 104 99 160 142
25 19 51 43 59 54 21 28 73 76 82 76 5 0 9 6 9 13 0 7 8 19 18 27 33 28 157
108 195 126 20 10 37 22 37 27 0 5 6 7 14 4 7 -3 17 -2 22 3 19 17 102 59 125
62 13 2 34 10 47 17 13 7 30 10 38 7 8 -3 14 -1 14 5 0 5 12 15 28 21 32 14
94 58 104 74 4 6 22 17 40 25 18 7 39 21 46 31 7 10 17 18 23 18 5 0 17 8 27
17 10 10 40 36 67 58 27 22 83 74 126 115 43 41 105 101 138 133 34 31 61 62
61 67 0 6 5 10 10 10 6 0 9 3 8 8 -2 4 20 41 48 82 48 71 67 106 112 210 21
48 45 119 47 135 1 6 6 21 12 35 6 14 16 56 22 94 7 39 15 75 19 80 3 6 7 20
7 31 0 11 3 25 7 31 6 8 15 124 20 254 2 58 -17 192 -33 227 -10 24 -19 47
-19 53 0 6 -11 33 -25 60 -14 27 -25 61 -25 75 0 14 -5 25 -10 25 -12 0 -80
70 -80 82 0 4 -17 26 -37 47 -21 21 -45 49 -53 60 -8 12 -22 24 -32 27 -10 3
-30 17 -45 32 -24 23 -82 57 -106 61 -4 0 -29 12 -57 26 -27 14 -61 25 -74 25
-14 0 -29 6 -33 13 -7 12 -112 46 -150 49 -7 1 -13 5 -13 10 0 4 -10 8 -23 8
-12 0 -34 8 -47 17 -39 28 -130 73 -130 65 0 -4 -4 -2 -8 4 -4 6 -27 18 -52
28 -25 10 -58 31 -73 48 l-29 31 33 26 c19 14 49 41 69 60 39 38 125 101 138
101 5 0 17 9 27 20 10 11 24 20 31 20 7 0 19 6 26 13 12 13 33 23 123 63 17 7
42 15 55 18 14 2 51 10 83 17 51 11 63 10 87 -4 33 -20 47 -16 111 29 43 32
53 44 78 108 13 33 2 115 -31 211 -26 79 -34 92 -65 112 -38 25 -134 33 -164
13z m136 -148 c9 -31 21 -62 26 -68 5 -7 9 -16 7 -20 -1 -5 1 -19 5 -30 9 -26
-9 -77 -25 -72 -17 6 -73 87 -84 123 -5 17 -8 51 -6 77 3 39 7 47 25 50 32 6
34 3 52 -60z m-1730 -12 c17 -8 62 -38 100 -66 39 -28 81 -55 95 -59 38 -12
70 -36 70 -51 0 -8 5 -14 11 -14 13 0 22 -9 82 -83 26 -32 54 -75 64 -95 14
-32 41 -71 72 -107 9 -10 64 -57 110 -93 l24 -18 -32 -33 c-17 -17 -31 -35
-31 -39 0 -5 -21 -30 -47 -57 -45 -46 -92 -122 -129 -207 -15 -35 -34 -51 -34
-28 0 6 -7 10 -16 10 -21 0 -231 212 -244 245 -5 14 -21 31 -36 37 -24 11 -29
10 -50 -17 l-23 -29 26 -48 c44 -81 275 -302 358 -343 22 -11 42 -23 43 -28 2
-4 8 -5 12 -2 5 3 38 -10 74 -30 68 -37 206 -85 266 -92 19 -2 51 -8 70 -13
19 -5 64 -9 100 -10 36 0 99 -3 140 -7 104 -11 152 -4 166 25 26 52 -17 102
-71 82 -27 -10 -260 -5 -305 6 -14 4 -43 8 -65 11 -22 2 -47 7 -55 10 -19 8
-20 8 -52 17 -16 5 -28 10 -28 12 0 3 9 23 20 44 11 22 19 43 18 47 -2 9 54
101 77 124 8 9 15 21 15 28 0 6 7 14 15 17 8 3 25 25 39 47 13 23 33 50 44 60
19 17 21 17 60 -23 23 -22 48 -40 57 -40 17 0 56 -20 66 -33 3 -5 10 -8 15 -7
5 0 18 -2 29 -6 11 -3 23 -6 28 -5 4 1 7 -3 7 -8 0 -5 15 -14 33 -22 17 -7 46
-23 62 -35 17 -12 70 -32 119 -44 50 -12 97 -26 105 -30 9 -4 66 -32 126 -61
61 -30 119 -62 129 -71 11 -10 25 -18 32 -18 7 0 15 -9 19 -20 3 -11 25 -35
49 -55 27 -22 48 -49 56 -75 7 -22 19 -45 27 -51 7 -6 13 -18 13 -26 0 -8 13
-26 30 -39 44 -37 85 -190 83 -309 -2 -127 -6 -185 -15 -220 -5 -22 -15 -69
-23 -105 -7 -36 -21 -92 -30 -125 -10 -33 -19 -69 -20 -80 -2 -11 -4 -21 -5
-22 -2 -2 -3 -6 -5 -10 -1 -5 -16 -39 -33 -76 -18 -38 -32 -73 -32 -78 0 -5
-4 -9 -8 -9 -5 0 -17 -19 -28 -42 -10 -24 -21 -45 -24 -48 -4 -3 -21 -27 -40
-54 -36 -53 -155 -175 -217 -222 -21 -15 -69 -60 -108 -98 -38 -38 -106 -94
-150 -124 -44 -29 -89 -62 -100 -72 -23 -22 -58 -36 -135 -56 -30 -8 -57 -18
-60 -22 -3 -4 -32 -21 -65 -36 -33 -16 -69 -34 -80 -40 -11 -5 -42 -21 -70
-35 -27 -14 -55 -32 -62 -40 -6 -9 -15 -16 -20 -16 -9 0 -41 -26 -92 -75 -20
-19 -49 -44 -64 -55 -16 -11 -35 -32 -43 -47 -8 -15 -29 -34 -48 -43 -38 -18
-76 -51 -76 -65 0 -6 -4 -10 -9 -10 -6 0 -42 -32 -80 -70 -39 -39 -74 -70 -78
-70 -4 0 -18 -11 -32 -24 -15 -13 -48 -36 -76 -51 -27 -15 -54 -30 -60 -34 -5
-3 -35 -12 -65 -18 -80 -18 -86 -20 -145 -42 -29 -11 -61 -20 -71 -20 -29 1
-90 -10 -116 -20 -13 -5 -43 -7 -68 -5 -131 10 -163 15 -182 25 -11 6 -44 12
-72 14 -28 1 -62 7 -76 13 -14 5 -44 10 -67 10 -55 1 -119 21 -139 44 -10 10
-23 18 -31 18 -7 0 -13 4 -13 9 0 5 -9 13 -20 16 -25 8 -130 115 -130 132 0 7
-4 13 -8 13 -5 0 -25 24 -46 54 -35 51 -96 101 -193 156 -98 56 -138 128 -149
266 -3 49 -12 99 -20 111 -8 12 -14 33 -14 47 0 14 -4 27 -9 31 -5 3 -15 29
-21 58 -13 65 -69 169 -98 182 -25 11 -26 21 -23 240 3 136 14 207 45 290 8
22 15 52 16 68 0 15 9 46 19 70 52 116 80 228 86 347 7 148 34 277 80 390 47
116 44 105 56 190 5 36 14 76 19 90 5 14 10 45 11 70 1 25 6 53 12 64 5 10 11
33 14 50 5 35 42 106 55 106 4 0 8 7 8 15 0 8 4 15 8 15 5 0 17 19 28 43 10
23 24 47 31 52 7 6 23 29 36 53 12 23 36 59 52 79 17 20 45 54 63 75 17 22 32
44 32 49 0 5 44 54 98 108 91 92 180 159 231 176 25 8 86 45 113 69 20 18 140
67 171 70 12 2 33 9 47 16 36 20 87 25 235 25 92 -1 139 -5 160 -15z m1556 -3
c-11 -28 16 -113 48 -153 21 -27 27 -46 14 -42 -20 5 -154 -27 -203 -49 -126
-57 -179 -84 -185 -93 -10 -16 -22 -12 -28 10 -7 28 -33 35 -65 19 -24 -12
-99 -65 -112 -79 -3 -3 -29 -25 -59 -48 -69 -54 -141 -120 -141 -130 -1 -13
-49 -42 -55 -32 -3 5 -12 7 -20 3 -8 -3 -15 0 -15 6 0 6 5 11 10 11 6 0 10 5
10 12 0 6 27 36 60 65 33 30 60 60 60 66 0 7 15 19 33 26 33 15 76 46 168 120
30 24 67 53 83 65 15 11 49 38 75 59 62 51 58 48 131 84 36 18 92 48 125 67
72 42 77 43 66 13z"/>
<path d="M1127 942 c-20 -22 -22 -75 -4 -90 7 -6 29 -12 48 -13 19 -2 39 -5
44 -8 11 -6 17 -7 55 -10 31 -2 11 -15 -40 -26 -19 -4 -48 -16 -63 -27 -22
-16 -27 -27 -25 -51 6 -62 78 -55 181 16 33 22 48 15 24 -11 -10 -10 -17 -22
-17 -26 0 -5 -14 -28 -30 -53 -31 -46 -30 -64 4 -93 13 -10 19 -10 31 0 8 7
13 16 10 20 -3 5 -1 10 4 12 5 1 21 23 35 48 l26 45 0 -31 c0 -17 -5 -56 -11
-85 -21 -110 -9 -156 38 -139 16 7 23 20 28 54 4 25 11 44 15 41 5 -3 6 -13 3
-23 -7 -27 27 -63 54 -56 12 3 22 13 21 22 0 30 14 117 21 130 5 9 11 4 20
-15 32 -70 38 -78 51 -78 14 0 58 -119 59 -158 1 -25 24 -46 59 -53 23 -5 33
-1 46 17 21 31 20 40 -9 83 -14 20 -25 47 -25 59 0 12 -10 38 -21 57 -12 19
-28 56 -36 82 -7 26 -18 48 -24 48 -5 0 -16 15 -24 34 -21 50 -143 166 -175
166 -5 0 -10 4 -10 9 0 17 -65 47 -129 59 -35 6 -71 18 -81 27 -9 8 -19 13
-21 10 -3 -2 -27 2 -54 10 -60 19 -59 19 -78 -3z"/>
</g>
</svg>
