<?xml version="1.0" standalone="no"?>
<!DOCTYPE svg PUBLIC "-//W3C//DTD SVG 20010904//EN"
 "http://www.w3.org/TR/2001/REC-SVG-20010904/DTD/svg10.dtd">
<svg version="1.0" xmlns="http://www.w3.org/2000/svg"
 width="551.000000pt" height="447.000000pt" viewBox="0 0 551.000000 447.000000"
 preserveAspectRatio="xMidYMid meet">
<metadata>
Created by potrace 1.16, written by Peter Selinger 2001-2019
</metadata>
<g transform="translate(0.000000,447.000000) scale(0.100000,-0.100000)"
fill="#000000" stroke="none">
<path d="M2650 4406 c-3 -2 -17 -6 -30 -8 -29 -5 -82 -31 -125 -63 -16 -13
-47 -29 -67 -36 -21 -7 -38 -17 -38 -21 0 -5 -48 -8 -107 -7 -60 1 -137 -2
-173 -6 -36 -5 -85 -8 -109 -7 -24 1 -71 -4 -105 -12 -33 -8 -87 -20 -118 -27
-32 -7 -58 -16 -58 -21 0 -5 -4 -7 -8 -4 -5 3 -19 -1 -33 -8 -32 -16 -124 -46
-143 -46 -9 0 -16 -4 -16 -10 0 -5 -11 -10 -24 -10 -13 0 -26 -3 -28 -7 -5
-13 -70 -58 -128 -90 -30 -16 -71 -45 -91 -64 -20 -19 -43 -38 -50 -44 -8 -5
-30 -22 -49 -36 -19 -14 -43 -28 -52 -32 -10 -3 -18 -13 -18 -22 0 -8 -4 -15
-8 -15 -14 0 -142 -132 -142 -147 0 -7 -4 -13 -9 -13 -18 0 -131 -139 -131
-162 0 -2 -25 -42 -55 -88 -30 -46 -55 -89 -55 -96 0 -6 -7 -17 -15 -24 -18
-15 -86 -155 -121 -250 -27 -71 -51 -134 -65 -165 -5 -11 -13 -49 -19 -85 -5
-36 -15 -90 -20 -120 -6 -30 -13 -71 -16 -90 -2 -19 -8 -48 -12 -65 -8 -33 -8
-51 3 -315 14 -340 7 -515 -26 -630 -7 -25 -13 -47 -14 -50 -3 -15 -60 -167
-65 -175 -8 -11 -22 -113 -22 -160 0 -16 5 -48 11 -70 7 -22 14 -51 17 -65 3
-13 10 -27 15 -31 6 -3 10 -9 10 -13 -2 -11 29 -66 38 -66 4 0 14 -11 21 -25
7 -14 21 -25 31 -25 9 0 19 -7 23 -15 3 -8 16 -15 28 -15 13 0 34 -6 48 -13
18 -10 60 -13 133 -12 102 2 111 4 187 41 44 22 80 45 80 52 0 6 7 12 15 12 7
0 18 6 22 13 10 15 86 67 99 67 6 0 28 13 50 29 46 34 142 55 229 49 30 -1 55
0 55 3 0 4 38 6 84 6 45 0 88 3 93 6 6 4 42 9 81 11 73 5 120 14 137 26 6 3
26 7 45 8 53 3 134 29 158 51 13 10 36 24 52 31 17 7 30 16 30 21 0 5 7 9 15
9 8 0 24 9 35 20 31 31 38 25 45 -37 4 -32 16 -78 26 -103 41 -103 68 -177 74
-205 16 -73 64 -206 101 -275 54 -104 263 -335 348 -385 25 -15 46 -31 46 -36
0 -5 10 -9 23 -9 12 0 31 -6 42 -13 46 -31 218 -76 302 -79 5 0 17 -5 28 -11
44 -25 184 -4 300 44 11 5 51 13 88 19 65 10 140 34 163 52 6 4 18 6 26 3 8
-3 41 8 74 25 32 16 64 30 72 30 7 0 30 11 50 25 20 14 42 25 49 25 18 0 85
40 132 80 75 63 135 115 159 138 12 12 26 22 31 22 4 0 14 12 22 26 7 15 35
46 61 69 27 24 48 46 48 50 0 3 6 13 13 20 6 8 26 32 42 54 17 22 38 40 48 41
9 0 17 5 17 11 0 6 33 55 73 109 39 54 84 120 99 147 16 26 33 57 40 68 7 11
22 36 34 55 11 19 23 51 26 71 4 19 17 59 31 88 14 28 29 66 32 84 6 29 20 64
46 122 24 52 38 343 25 505 -3 33 1 67 9 87 7 17 11 34 7 37 -3 3 -1 6 4 6 6
0 25 29 43 65 31 60 33 69 29 142 -3 43 -1 91 5 107 8 23 7 30 -7 38 -9 5 -16
16 -16 24 0 8 -23 37 -51 65 -45 44 -88 65 -171 85 -5 1 -11 3 -15 4 -5 1 -11
2 -15 1 -4 0 -24 -3 -45 -6 -74 -11 -124 -10 -135 2 -6 7 -17 13 -25 13 -19 0
-103 39 -103 48 0 4 -18 16 -40 26 -22 11 -40 23 -40 27 0 9 -118 66 -151 73
-26 5 -143 38 -196 54 -17 6 -34 8 -37 4 -3 -3 -6 -1 -6 4 0 5 -17 9 -38 10
-20 0 -64 3 -97 7 -145 18 -411 24 -510 13 -36 -4 -162 -24 -190 -31 -16 -3
-21 1 -22 18 -3 37 -14 99 -29 162 -9 33 -17 71 -19 85 -2 14 -11 50 -20 80
-36 126 -47 179 -49 245 -1 17 -5 33 -9 36 -16 11 -7 253 10 283 10 15 12 91
4 104 -4 8 -1 33 8 57 13 37 14 51 3 92 -7 26 -24 65 -37 85 -27 41 -107 93
-130 84 -9 -3 -15 0 -15 8 0 22 -203 70 -220 52z m76 -120 c69 -13 92 -20 135
-42 28 -14 56 -38 69 -59 20 -32 21 -40 10 -85 -7 -27 -10 -55 -7 -62 2 -7 -2
-33 -9 -58 -22 -78 -22 -353 0 -425 9 -27 16 -64 16 -82 0 -18 4 -42 9 -55 18
-44 40 -123 46 -168 4 -24 10 -51 15 -60 15 -29 23 -100 21 -191 -1 -46 -2
-47 -51 -67 -28 -12 -53 -21 -55 -22 -3 0 -20 -9 -37 -19 -18 -10 -49 -27 -68
-37 -19 -11 -38 -24 -42 -30 -4 -6 -32 -28 -63 -49 -30 -21 -55 -42 -55 -46 0
-4 -8 -10 -19 -14 -20 -6 -91 -74 -91 -87 0 -5 -22 -38 -50 -73 -27 -35 -50
-68 -50 -73 0 -5 -8 -20 -19 -33 -10 -13 -21 -35 -25 -49 -4 -14 -16 -43 -26
-65 -10 -22 -21 -47 -24 -55 -3 -8 -10 -22 -15 -30 -34 -57 -84 -203 -97 -284
-14 -82 -28 -161 -39 -206 -3 -14 -8 -41 -10 -60 -3 -19 -7 -46 -10 -60 -2
-14 -7 -58 -10 -99 -5 -68 -8 -77 -38 -104 -60 -55 -72 -64 -97 -77 -14 -7
-27 -16 -30 -20 -9 -11 -90 -50 -105 -50 -8 0 -15 -4 -15 -8 0 -7 -110 -32
-205 -47 -33 -5 -143 -11 -360 -20 -77 -3 -149 -10 -160 -14 -74 -32 -104 -48
-175 -91 -74 -45 -96 -62 -153 -116 -28 -25 -113 -53 -152 -49 -16 2 -35 -1
-41 -6 -8 -7 -14 -6 -19 1 -3 6 -10 8 -15 5 -16 -10 -88 15 -118 40 -27 22
-61 80 -66 109 -1 6 -5 17 -10 25 -12 19 -9 156 4 180 6 12 8 21 4 21 -3 0 -2
6 3 13 6 6 16 35 23 62 7 28 17 55 21 61 5 6 10 19 12 30 2 10 9 32 16 47 13
33 20 81 27 182 2 39 8 123 12 188 4 65 4 121 -1 126 -6 6 -20 321 -18 401 1
8 1 34 1 58 0 24 5 53 11 64 7 12 14 38 16 57 20 154 88 387 143 493 11 21 20
44 20 50 0 6 15 31 33 57 18 25 43 66 56 91 12 25 31 54 40 65 9 11 23 32 31
48 7 15 17 27 22 27 4 0 8 5 8 11 0 16 71 108 132 172 16 16 28 33 28 38 0 5
6 9 13 9 7 0 18 9 24 19 11 18 82 79 159 138 16 12 45 36 64 53 19 18 53 41
75 52 22 11 42 24 45 28 7 11 186 94 235 110 22 7 45 16 50 20 6 4 33 13 60
19 28 6 59 14 70 17 11 3 63 7 116 9 52 1 105 6 116 9 36 11 175 15 201 5 30
-12 137 7 153 27 6 8 17 14 25 14 7 0 41 19 76 43 35 24 69 42 75 40 6 -2 24
2 40 10 15 9 31 14 34 12 3 -2 19 -6 35 -9z m1044 -1351 c12 -4 38 -7 59 -6
69 1 89 -7 83 -34 -2 -14 3 -36 12 -50 29 -45 63 -26 67 36 l3 36 39 -9 c22
-5 48 -13 58 -18 10 -6 22 -9 26 -8 7 1 58 -19 105 -43 10 -5 29 -9 43 -9 14
0 28 -7 31 -15 4 -9 13 -13 23 -10 10 3 29 -7 47 -23 38 -33 59 -47 104 -70
19 -9 37 -19 40 -22 3 -3 16 -7 30 -9 14 -1 28 -7 31 -12 3 -5 62 -8 132 -5
112 3 132 1 165 -17 75 -40 108 -93 96 -156 -3 -20 -7 -45 -8 -56 -1 -11 -26
-69 -55 -130 l-54 -110 2 -94 c1 -52 5 -100 9 -108 5 -7 5 -44 1 -81 -5 -37
-8 -99 -8 -138 -1 -50 -9 -94 -27 -145 -14 -41 -27 -83 -28 -94 -2 -11 -9 -33
-15 -50 -7 -16 -24 -59 -38 -95 -14 -36 -32 -74 -39 -85 -8 -11 -14 -27 -14
-37 0 -9 -6 -21 -12 -25 -7 -4 -21 -24 -32 -43 -10 -19 -31 -52 -47 -72 -16
-20 -29 -43 -29 -50 0 -16 -66 -98 -121 -150 -21 -21 -39 -42 -39 -48 0 -5 -4
-10 -10 -10 -5 0 -10 -6 -10 -14 0 -8 -7 -16 -15 -20 -12 -4 -13 -2 -2 14 16
26 -2 55 -34 55 -45 0 -60 -81 -17 -92 24 -7 23 -10 -17 -54 -19 -22 -35 -35
-35 -30 0 17 -34 18 -67 3 -39 -18 -52 -58 -26 -77 16 -12 15 -16 -18 -47 -20
-18 -58 -49 -84 -68 -27 -19 -57 -41 -67 -49 -16 -12 -18 -12 -11 5 3 11 10
21 14 24 8 6 99 158 99 166 0 4 15 27 33 53 67 93 132 248 163 394 25 115 25
119 26 397 1 244 0 270 -19 330 -12 36 -24 86 -28 112 -3 26 -19 73 -35 105
-16 32 -30 65 -32 73 -2 8 -9 21 -15 28 -7 7 -16 25 -19 40 -19 83 -28 102
-68 146 -25 26 -48 58 -52 69 -8 25 -25 40 -72 63 -18 9 -45 33 -60 53 -15 20
-29 38 -33 41 -3 3 -12 15 -20 26 -22 33 -108 96 -173 128 -32 15 -106 43
-165 61 -98 30 -135 40 -246 66 -43 10 -140 7 -152 -4 -3 -4 -20 -7 -37 -7
l-31 1 40 21 c40 21 184 60 195 53 4 -2 50 1 103 8 94 12 310 7 357 -8z m-482
-162 c9 -3 24 -5 34 -4 9 1 19 -3 23 -9 3 -5 14 -10 24 -10 10 0 41 -7 67 -15
27 -8 77 -22 112 -32 34 -10 62 -21 62 -25 0 -4 8 -8 18 -8 54 -1 143 -68 220
-168 14 -18 45 -47 69 -63 51 -35 93 -73 93 -84 0 -4 20 -34 45 -67 25 -33 45
-68 45 -78 0 -22 21 -74 66 -165 19 -38 39 -97 45 -130 6 -33 17 -80 26 -105
18 -52 27 -211 23 -415 -2 -149 -21 -250 -75 -403 -24 -69 -74 -169 -100 -202
-12 -14 -39 -62 -88 -153 -12 -20 -36 -54 -54 -73 -18 -20 -33 -40 -33 -43 0
-4 -18 -26 -40 -49 -39 -40 -125 -92 -163 -99 -10 -2 -34 -11 -55 -22 -24 -12
-60 -19 -102 -19 l-65 -1 62 23 c35 13 77 34 95 48 18 13 48 30 66 37 45 19
116 101 148 172 15 33 32 63 38 67 14 9 32 42 96 172 54 110 84 206 124 405
43 208 48 254 48 373 0 98 -5 137 -32 242 -36 143 -51 191 -62 204 -4 6 -8 20
-8 32 0 12 -11 35 -24 51 -13 16 -41 62 -62 103 -29 55 -61 97 -126 160 -48
47 -100 95 -116 107 -34 26 -145 83 -161 83 -6 0 -30 9 -54 19 -68 30 -80 34
-127 36 -25 2 -81 13 -125 25 -80 22 -178 27 -199 11 -6 -4 -24 -11 -41 -15
-16 -4 -53 -23 -82 -42 -28 -19 -56 -34 -62 -34 -6 0 -11 -4 -11 -9 0 -5 -8
-11 -17 -15 -33 -10 -58 -31 -146 -118 -49 -49 -92 -88 -98 -88 -5 0 -9 -7 -9
-15 0 -9 -7 -18 -15 -21 -8 -4 -15 -12 -15 -20 0 -8 -4 -14 -10 -14 -5 0 -10
-5 -10 -12 0 -6 -8 -20 -17 -31 -42 -45 -128 -215 -159 -311 -13 -43 -23 -62
-26 -50 -4 22 15 128 30 164 5 14 20 50 32 80 13 30 33 78 45 105 13 28 37 81
54 118 35 78 96 167 115 167 16 0 46 27 68 60 8 14 38 36 64 50 27 14 51 28
52 33 2 4 12 7 22 7 11 0 34 10 53 23 32 22 136 45 297 65 65 8 75 8 108 -5z
m-74 -161 c35 1 100 -28 91 -41 -3 -5 -39 -9 -81 -10 -41 0 -80 -3 -85 -6 -5
-4 -18 -8 -29 -10 -27 -5 -79 -47 -79 -64 -1 -9 -9 -11 -28 -7 -37 9 -80 8
-126 -5 -60 -16 -190 -154 -202 -214 -2 -6 -13 -33 -25 -60 -12 -27 -23 -60
-24 -72 -1 -15 -18 -37 -48 -61 -26 -20 -47 -43 -48 -50 0 -8 -9 -16 -20 -19
-11 -3 -18 -8 -15 -12 2 -4 -2 -34 -10 -67 -21 -87 -19 -277 4 -333 17 -42 17
-44 -2 -82 -33 -67 -63 -224 -45 -235 4 -3 8 -16 8 -28 0 -13 7 -29 15 -36 8
-7 12 -16 9 -21 -3 -5 0 -9 5 -9 6 0 11 -7 11 -15 0 -7 6 -18 13 -22 23 -15
34 -48 35 -104 1 -112 36 -191 137 -307 70 -81 72 -82 119 -82 31 0 49 -5 58
-18 7 -9 26 -25 41 -35 15 -10 25 -22 22 -27 -4 -6 2 -10 13 -10 10 0 66 -15
124 -34 112 -36 149 -45 213 -51 22 -2 48 -7 58 -10 9 -4 17 -3 17 3 0 6 33
22 73 37 186 69 269 119 314 192 12 20 25 39 30 42 11 9 39 69 53 116 19 64
39 105 50 105 5 0 10 6 10 13 0 7 16 43 35 79 52 97 85 238 85 357 0 68 -4
103 -14 117 -12 16 -13 33 -5 80 21 126 22 170 4 230 -19 67 -74 184 -87 184
-4 0 -8 5 -8 11 0 12 -38 49 -49 49 -3 0 -7 33 -9 73 -5 123 -6 131 -25 152
-15 18 -57 93 -57 103 0 2 22 -19 49 -45 51 -50 124 -157 114 -166 -3 -3 9
-21 25 -39 31 -33 85 -148 96 -203 3 -16 16 -72 30 -124 37 -140 30 -352 -19
-561 -23 -98 -72 -253 -97 -310 -12 -25 -33 -72 -48 -105 -15 -34 -34 -67 -42
-75 -7 -8 -31 -46 -51 -84 -52 -93 -86 -125 -200 -184 -147 -77 -232 -95 -435
-90 -90 2 -166 8 -170 13 -4 6 -18 11 -31 13 -26 4 -113 40 -121 50 -3 4 -23
16 -44 27 -37 19 -166 137 -166 153 0 4 -16 25 -36 47 -71 81 -133 243 -159
415 -43 279 -38 675 8 782 8 18 25 60 37 93 36 92 118 223 175 281 16 17 55
60 85 94 79 91 94 103 250 193 59 33 132 54 164 45 16 -4 43 -7 60 -6z m236
-65 c19 -7 40 -15 45 -18 6 -4 26 -10 45 -14 54 -12 133 -51 163 -81 28 -28
27 -56 -1 -30 -10 8 -29 18 -45 21 -15 4 -32 15 -37 24 -8 13 -11 14 -19 2
-14 -21 -50 -7 -100 39 -24 22 -51 40 -61 40 -10 0 -23 7 -30 15 -15 18 -6 19
40 2z m-70 -93 c23 -9 52 -26 64 -38 12 -12 34 -31 49 -44 26 -21 27 -23 12
-52 -8 -16 -15 -40 -15 -53 0 -14 -7 -30 -15 -37 -8 -7 -15 -21 -15 -31 0 -10
-5 -21 -10 -24 -6 -4 -8 -11 -5 -16 6 -8 -21 -67 -36 -79 -3 -3 -15 -30 -27
-60 -11 -30 -32 -75 -46 -100 -30 -51 -30 -43 5 85 11 39 22 86 25 105 3 19 9
53 13 75 9 52 3 85 -16 92 -27 11 -42 -20 -48 -102 -4 -44 -11 -100 -16 -125
-5 -25 -14 -72 -20 -105 -5 -33 -13 -63 -18 -67 -9 -10 -1 -78 9 -78 9 0 1
-42 -10 -50 -3 -3 -14 -22 -24 -43 -10 -21 -20 -37 -22 -34 -3 2 -11 41 -18
86 -11 69 -11 86 1 109 8 15 16 41 18 57 4 35 30 178 53 285 19 91 27 200 15
200 -29 0 -44 -30 -58 -110 -30 -180 -45 -291 -45 -329 0 -85 -26 -42 -36 59
-1 14 -3 25 -4 25 -1 0 -9 124 -14 208 -2 31 -6 60 -10 64 -3 3 -6 14 -6 24 0
10 -7 25 -16 33 -28 29 9 76 53 68 6 -2 14 2 17 6 11 17 171 14 216 -4z m-395
-76 c14 -6 24 -17 21 -24 -3 -7 3 -23 13 -36 21 -26 31 -76 36 -171 1 -36 5
-69 8 -74 3 -5 6 -38 8 -73 1 -36 6 -76 12 -90 17 -47 36 -151 41 -231 l5 -80
-27 20 c-62 45 -138 143 -187 242 -20 41 -41 81 -46 89 -5 8 -12 23 -15 33 -4
9 -10 17 -14 17 -5 0 -23 23 -42 51 -30 47 -35 50 -65 46 -30 -5 -31 -4 -23
18 5 12 7 25 4 27 -12 13 65 138 113 185 65 62 106 75 158 51z m686 -59 c15
-10 39 -41 54 -67 24 -43 26 -54 21 -122 -9 -119 -18 -150 -41 -150 -7 0 -15
-7 -19 -15 -3 -8 -10 -15 -17 -15 -6 0 -30 -20 -53 -44 -23 -24 -66 -56 -96
-70 -30 -14 -90 -49 -133 -77 -94 -60 -94 -64 0 131 36 74 75 155 86 180 11
25 24 53 29 62 4 10 8 26 8 37 0 10 6 24 14 30 7 6 19 33 26 59 20 73 37 95
68 87 14 -3 38 -15 53 -26z m-911 -370 c19 -23 49 -68 65 -100 66 -126 88
-165 103 -181 8 -10 11 -18 6 -18 -5 0 5 -13 21 -28 70 -64 70 -63 -51 -62
-60 1 -156 4 -213 7 l-104 6 -19 44 c-15 34 -19 66 -19 135 0 49 3 93 5 97 3
4 8 23 11 41 9 52 34 86 84 113 51 29 38 35 111 -54z m1079 -22 c8 -17 17 -34
20 -37 15 -12 42 -86 48 -127 3 -24 0 -76 -7 -114 -12 -62 -17 -72 -43 -86
-16 -8 -32 -11 -36 -6 -11 14 -35 15 -89 2 -44 -10 -62 -10 -120 4 -39 10 -88
14 -117 12 l-50 -5 60 29 c60 29 115 51 170 67 22 7 31 16 33 37 3 23 0 27
-23 27 -15 0 -41 -6 -58 -14 -18 -8 -54 -20 -82 -27 -27 -7 -67 -21 -87 -32
-21 -10 -57 -21 -80 -24 l-43 -6 19 21 c10 12 23 19 27 16 5 -3 9 -1 9 5 0 13
92 74 167 111 32 16 86 54 121 84 35 31 67 54 71 52 3 -2 18 8 31 23 30 33 41
31 59 -12z m-1494 -69 c-13 -61 -16 -97 -22 -276 -6 -189 4 -346 32 -497 4
-18 -5 -7 -21 30 -14 32 -28 70 -31 84 -2 14 -7 29 -10 34 -35 57 -13 417 38
610 10 39 23 52 14 15z m1280 -378 c32 -11 61 -17 64 -13 3 5 20 13 37 19 24
9 37 8 59 -4 22 -11 33 -12 46 -4 13 9 25 7 48 -4 33 -16 34 -22 34 -126 1
-56 -28 -172 -55 -223 -11 -22 -31 -61 -44 -87 -13 -27 -28 -48 -32 -48 -9 0
-83 68 -80 73 5 5 -76 119 -88 124 -7 3 -28 28 -46 56 -18 29 -46 64 -63 80
-16 15 -25 27 -19 27 24 0 120 -33 135 -46 22 -20 33 -18 44 9 14 30 -21 59
-124 102 -121 51 -144 69 -98 78 55 11 128 5 182 -13z m-991 -12 c183 5 408 3
414 -3 4 -3 -11 -22 -33 -41 -55 -49 -63 -54 -74 -54 -5 0 -28 -20 -51 -44
-24 -25 -56 -50 -71 -57 -16 -6 -29 -15 -29 -20 0 -4 -26 -25 -57 -46 -32 -20
-60 -40 -63 -44 -3 -3 -20 -6 -38 -7 -26 -1 -35 5 -44 24 -6 13 -14 24 -18 24
-15 0 -49 88 -49 125 1 46 17 95 31 95 5 0 7 4 3 10 -8 13 17 50 28 43 6 -3
28 -5 51 -5z m731 -56 c-7 -7 -74 52 -69 60 3 5 21 -6 39 -24 19 -17 33 -34
30 -36z m-352 -89 c-4 -10 -9 -20 -12 -23 -3 -3 -28 -34 -55 -70 -28 -36 -65
-82 -83 -103 -38 -43 -45 -82 -13 -72 29 9 25 -2 -29 -79 -42 -58 -47 -72 -38
-88 12 -19 34 -23 52 -10 15 11 75 128 75 146 0 9 5 16 10 16 6 0 10 4 10 10
0 5 11 25 24 45 18 26 23 42 17 58 -6 15 0 32 23 65 19 27 32 38 34 29 6 -27
-43 -194 -94 -322 -6 -16 -14 -49 -18 -73 -3 -23 -13 -59 -21 -80 -15 -36 -16
-37 -67 -37 -34 0 -53 5 -56 14 -2 7 -16 23 -29 35 -51 44 -113 150 -120 204
-5 44 -3 52 11 52 9 0 16 4 16 8 0 5 18 17 40 27 22 10 40 22 40 26 0 5 26 26
58 48 32 22 83 62 113 90 54 50 112 100 116 101 1 0 -1 -8 -4 -17z m407 -42
c46 -33 48 -36 99 -103 24 -32 47 -58 51 -58 5 0 18 -17 31 -37 38 -65 74
-118 82 -121 4 -2 7 -10 7 -18 0 -8 6 -14 14 -14 8 0 17 -7 20 -16 3 -8 10
-13 14 -10 15 9 -29 -109 -49 -130 -10 -11 -19 -24 -19 -28 0 -17 -80 -80
-136 -107 -66 -32 -192 -71 -204 -64 -4 2 -10 33 -12 67 -3 35 -13 97 -22 138
-34 150 -37 166 -42 220 -9 97 -11 110 -17 117 -4 3 -7 34 -6 67 l1 61 10 -45
c24 -116 41 -168 78 -241 22 -44 40 -85 40 -92 0 -20 39 -18 50 3 8 15 3 34
-23 87 -35 70 -71 171 -82 233 -4 19 -9 43 -11 53 -3 9 -1 17 5 17 6 0 11 -5
11 -12 0 -6 9 -30 19 -52 11 -23 32 -70 47 -106 15 -36 34 -81 42 -100 9 -19
18 -51 20 -70 9 -80 52 -100 52 -24 0 76 -23 149 -100 319 -13 28 -40 97 -40
101 0 8 37 -11 70 -35z m-260 -21 c0 -5 -5 -10 -11 -10 -5 0 -7 5 -4 10 3 6 8
10 11 10 2 0 4 -4 4 -10z m-4 -72 c-1 -64 7 -129 17 -145 5 -7 7 -29 6 -50 -1
-21 4 -58 11 -83 7 -25 14 -69 16 -98 2 -29 8 -61 14 -72 12 -23 21 -129 13
-158 -4 -16 -10 -18 -41 -12 -79 16 -137 33 -147 44 -5 6 -22 12 -38 13 -15 1
-38 10 -52 21 -22 18 -23 21 -10 46 8 15 16 42 18 59 2 18 11 55 19 82 9 28
21 70 28 95 17 62 42 131 46 127 2 -1 -1 -32 -7 -67 -5 -36 -12 -90 -16 -120
-3 -30 -11 -76 -17 -101 -12 -45 -4 -99 14 -99 14 0 21 17 31 82 10 66 15 92
30 173 5 28 11 66 14 85 3 19 12 74 20 123 8 48 15 92 15 97 0 6 4 10 8 10 5
0 8 -24 8 -52z m-416 -767 c0 -8 115 -67 140 -73 8 -2 17 -6 20 -9 7 -10 191
-40 201 -33 5 3 9 0 9 -6 0 -8 9 -10 23 -7 12 3 69 7 127 8 58 1 116 6 130 10
38 12 90 18 90 11 0 -16 -105 -66 -127 -61 -4 1 -15 -1 -23 -4 -30 -12 -118
-24 -132 -17 -7 4 -50 13 -95 21 -46 7 -83 16 -83 20 0 3 -11 7 -24 7 -35 0
-126 32 -126 44 0 6 -3 8 -6 5 -8 -8 -34 5 -101 51 -50 34 -70 58 -38 46 8 -4
15 -9 15 -13z"/>
<path d="M2622 4144 c-17 -18 -12 -54 9 -67 26 -16 68 0 75 29 11 43 -54 73
-84 38z"/>
<path d="M2480 4044 c0 -5 -13 -14 -29 -20 -44 -17 -51 -96 -9 -110 24 -7 30
-1 52 54 15 39 15 45 1 65 -8 12 -15 17 -15 11z"/>
<path d="M1776 3995 c-32 -29 -33 -49 -4 -69 29 -20 34 -20 57 3 22 22 17 67
-9 81 -13 7 -24 3 -44 -15z"/>
<path d="M2138 4003 c-10 -2 -18 -8 -19 -11 0 -4 -2 -14 -4 -23 -1 -8 4 -24
11 -34 8 -10 14 -15 14 -11 0 5 12 1 26 -9 46 -30 71 5 42 58 -21 36 -31 40
-70 30z"/>
<path d="M1480 3902 c-33 -10 -60 -46 -60 -78 0 -26 5 -33 25 -36 20 -4 26 -1
31 18 3 13 12 28 20 35 15 12 19 55 7 62 -5 2 -15 2 -23 -1z"/>
<path d="M1782 3736 c-53 -25 -31 -76 34 -76 59 0 79 21 56 58 -13 19 -64 29
-90 18z"/>
<path d="M1358 3687 c-30 -25 -30 -62 2 -72 25 -8 122 45 115 62 -3 8 -5 18
-5 21 0 4 -19 8 -43 9 -30 1 -50 -5 -69 -20z"/>
<path d="M2670 3680 c-35 -9 -36 -60 -1 -75 39 -17 87 -7 100 21 16 35 14 42
-11 50 -33 10 -60 12 -88 4z"/>
<path d="M2130 3656 c-28 -21 -9 -86 25 -86 17 0 50 69 38 81 -15 15 -47 18
-63 5z"/>
<path d="M1585 3580 c-16 -11 -33 -31 -36 -44 -6 -22 -3 -27 28 -37 44 -14 54
-5 56 51 2 51 -7 57 -48 30z"/>
<path d="M1818 3460 c-29 -18 6 -90 44 -90 19 0 32 34 26 71 -3 27 -40 36 -70
19z"/>
<path d="M2485 3442 c-26 -21 -21 -50 13 -80 25 -22 27 -22 39 -6 16 22 17 76
1 92 -16 16 -29 15 -53 -6z"/>
<path d="M932 3397 c-29 -31 -28 -42 7 -66 27 -20 29 -20 45 -2 28 31 15 91
-19 91 -6 0 -21 -10 -33 -23z"/>
<path d="M2808 3409 c-22 -12 -23 -57 -3 -83 15 -20 15 -20 43 1 35 26 38 46
11 72 -26 24 -28 24 -51 10z"/>
<path d="M2623 3403 c-7 -3 -13 -18 -13 -34 0 -37 48 -66 80 -49 11 6 18 15
15 20 -3 5 -1 11 5 15 5 3 10 15 10 25 0 23 -56 36 -97 23z"/>
<path d="M1328 3393 c-26 -7 -22 -46 7 -77 l24 -26 21 22 c30 33 24 82 -10 85
-14 0 -33 -1 -42 -4z"/>
<path d="M2885 3202 c-3 -4 -12 -7 -17 -7 -6 0 -16 -13 -21 -28 -7 -22 -6 -33
6 -44 18 -19 87 -28 87 -13 0 6 4 9 9 6 17 -11 18 31 2 51 -20 26 -56 45 -66
35z"/>
<path d="M1067 3174 c-12 -16 -17 -34 -13 -50 5 -20 12 -24 46 -24 67 0 78 55
17 85 -16 8 -31 15 -31 15 -1 0 -9 -12 -19 -26z"/>
<path d="M2512 3146 c-30 -14 -38 -48 -18 -78 9 -14 13 -27 10 -30 -3 -4 4
-11 15 -17 18 -10 21 -8 27 16 4 16 15 38 26 50 20 21 22 54 3 55 -5 0 -17 3
-25 7 -8 4 -25 2 -38 -3z"/>
<path d="M1290 3137 c-48 -24 -28 -97 27 -97 19 0 23 5 23 28 -1 15 -6 39 -13
54 -11 25 -14 27 -37 15z"/>
<path d="M813 3068 c-6 -7 -12 -25 -15 -40 -5 -25 -2 -26 38 -30 37 -3 45 0
53 19 13 29 5 50 -22 57 -33 9 -44 7 -54 -6z"/>
<path d="M2021 3052 c-11 -9 -22 -27 -26 -39 -5 -18 0 -23 28 -32 56 -19 77
-8 77 41 0 36 -50 55 -79 30z"/>
<path d="M2668 3005 c-40 -27 -46 -38 -40 -73 10 -51 105 -62 123 -14 8 22 6
29 -12 43 -14 11 -18 18 -10 23 6 4 11 16 11 27 0 26 -28 24 -72 -6z"/>
<path d="M1481 2986 c-17 -32 0 -66 34 -66 32 0 52 57 27 78 -24 19 -47 14
-61 -12z"/>
<path d="M2336 2875 c-22 -34 -20 -52 9 -71 22 -14 26 -14 40 -1 20 21 19 67
-2 83 -25 18 -28 17 -47 -11z"/>
<path d="M1768 2846 c-26 -20 -22 -54 7 -68 22 -10 29 -8 50 12 26 25 34 60
13 60 -7 0 -22 2 -33 5 -11 3 -28 -1 -37 -9z"/>
<path d="M790 2788 c-35 -38 -34 -75 2 -87 26 -9 30 -7 52 28 24 38 30 54 27
79 -2 22 -55 9 -81 -20z"/>
<path d="M1188 2806 c-34 -25 -14 -94 23 -82 8 2 26 7 42 10 27 6 37 36 19 62
-12 19 -65 25 -84 10z"/>
<path d="M1714 2745 c-4 -8 -9 -13 -13 -11 -10 7 -11 -55 -1 -74 11 -21 58
-32 99 -24 25 5 29 11 28 33 -2 21 -9 28 -40 35 -29 8 -37 14 -37 33 0 26 -27
32 -36 8z"/>
<path d="M2176 2639 c-35 -34 1 -91 47 -73 36 13 28 76 -10 86 -10 3 -26 -3
-37 -13z"/>
<path d="M1016 2554 c-31 -31 -14 -84 27 -84 43 0 60 59 24 85 -27 19 -32 19
-51 -1z"/>
<path d="M1620 2410 c-24 -24 -17 -46 22 -66 23 -12 33 -13 44 -3 17 14 9 58
-14 77 -21 16 -29 15 -52 -8z"/>
<path d="M2119 2343 c-24 -6 -40 -47 -26 -66 21 -26 55 -30 66 -8 24 44 2 84
-40 74z"/>
<path d="M851 2266 c-29 -31 -18 -66 20 -66 21 0 32 7 41 24 22 50 -24 82 -61
42z"/>
<path d="M585 2216 c-29 -23 -17 -76 19 -76 29 1 56 23 56 47 0 36 -44 53 -75
29z"/>
<path d="M1205 2149 c-11 -7 -21 -13 -23 -15 -2 -1 4 -16 12 -33 19 -36 57
-49 90 -31 23 12 28 52 9 71 -15 15 -67 20 -88 8z"/>
<path d="M1622 2078 c-44 -27 -60 -67 -36 -85 21 -16 64 -17 64 -3 0 6 16 26
35 45 21 21 32 41 29 50 -9 21 -53 18 -92 -7z"/>
<path d="M1782 2063 c-13 -14 -21 -32 -18 -40 4 -8 6 -19 6 -24 0 -5 12 -9 26
-9 61 0 84 45 42 81 -29 23 -29 24 -56 -8z"/>
<path d="M650 1945 c-17 -20 -16 -64 2 -81 11 -11 21 -12 41 -5 22 9 27 17 27
45 0 19 -6 38 -12 43 -23 14 -46 13 -58 -2z"/>
<path d="M1452 1854 c-34 -23 -27 -68 11 -72 39 -5 59 15 55 52 -4 37 -31 45
-66 20z"/>
<path d="M1102 1625 c-27 -31 -28 -47 -2 -70 23 -21 43 -15 66 19 38 60 -18
104 -64 51z"/>
<path d="M1924 1637 c-15 -18 -11 -97 7 -108 24 -15 49 -10 73 14 27 27 26 73
-2 95 -20 15 -64 15 -78 -1z"/>
<path d="M780 1583 c-24 -30 -25 -46 -6 -62 21 -18 66 -2 77 26 19 50 -38 78
-71 36z"/>
<path d="M1339 1445 c-20 -11 -26 -21 -23 -41 3 -35 15 -46 55 -47 28 -2 35 2
43 26 9 24 6 31 -17 52 -30 29 -25 28 -58 10z"/>
<path d="M1664 1365 c-20 -31 -10 -63 22 -71 32 -8 33 -7 36 45 3 38 0 44 -19
47 -16 3 -28 -4 -39 -21z"/>
<path d="M824 1180 c-29 -11 -37 -26 -30 -55 13 -51 86 -38 86 15 0 34 -25 51
-56 40z"/>
<path d="M3570 2933 c-20 -8 -30 -24 -30 -49 0 -27 46 -50 66 -33 20 17 26 46
14 69 -11 20 -22 23 -50 13z"/>
<path d="M3840 2800 c-30 -30 -23 -63 17 -71 28 -6 33 -3 44 24 22 53 -21 87
-61 47z"/>
<path d="M4206 2788 c-21 -30 -20 -40 10 -61 31 -23 59 -14 72 23 8 23 7 31
-7 44 -25 23 -57 20 -75 -6z"/>
<path d="M4011 2667 c-24 -26 -20 -51 9 -67 24 -13 43 -5 56 25 9 19 9 28 -3
44 -18 27 -34 26 -62 -2z"/>
<path d="M4348 2630 c-19 -18 -25 -70 -8 -70 6 0 9 -5 8 -11 -4 -17 16 -21 35
-7 21 16 41 78 25 78 -6 0 -19 6 -27 14 -14 12 -19 11 -33 -4z"/>
<path d="M4773 2617 c-26 -8 -33 -15 -33 -36 0 -33 9 -47 37 -55 38 -12 68 51
41 86 -10 12 -20 13 -45 5z"/>
<path d="M4548 2543 c-15 -14 -15 -19 -2 -45 23 -44 67 -34 75 17 7 44 -40 62
-73 28z"/>
<path d="M4147 2510 c-17 -28 -17 -30 3 -50 34 -34 70 -19 70 30 0 54 -46 67
-73 20z"/>
<path d="M4728 2423 c-43 -18 -44 -22 -22 -64 13 -26 19 -30 42 -24 32 8 28 3
36 42 4 19 3 34 -4 38 -5 3 -8 11 -5 16 8 12 -2 10 -47 -8z"/>
<path d="M4309 2417 c-36 -18 -38 -68 -4 -84 22 -10 28 -8 45 10 42 44 11 99
-41 74z"/>
<path d="M4426 2364 c-33 -32 -14 -72 34 -72 22 0 25 5 28 44 3 41 1 44 -22
44 -13 0 -32 -7 -40 -16z"/>
<path d="M4590 2265 c0 -8 -4 -15 -10 -15 -11 0 -13 -30 -4 -54 4 -9 18 -16
34 -16 22 0 30 6 38 29 12 34 6 46 -31 60 -22 9 -27 8 -27 -4z"/>
<path d="M4708 2259 c-22 -12 -24 -62 -3 -79 9 -7 25 -10 40 -6 22 6 26 12 23
38 -4 37 -35 62 -60 47z"/>
<path d="M4398 2158 c-18 -6 -28 -17 -28 -29 0 -31 19 -59 39 -59 24 0 73 50
66 68 -3 7 -5 17 -5 20 0 11 -42 10 -72 0z"/>
<path d="M4536 2084 c-20 -19 -20 -34 -2 -69 8 -16 17 -22 21 -16 3 6 11 9 16
5 18 -10 39 18 39 51 0 25 -5 34 -22 39 -32 8 -35 8 -52 -10z"/>
<path d="M4720 2000 c-12 -12 -19 -28 -16 -37 3 -8 6 -20 6 -25 0 -6 3 -8 7
-5 3 4 12 2 19 -4 23 -19 59 15 58 53 -1 28 -5 33 -27 36 -16 2 -34 -5 -47
-18z"/>
<path d="M4373 1903 c-18 -7 -16 -68 1 -83 23 -18 60 -8 72 20 13 30 9 46 -14
53 -9 3 -24 7 -32 10 -8 3 -21 3 -27 0z"/>
<path d="M4548 1902 c-46 -5 -50 -70 -6 -93 18 -9 24 -8 35 7 14 19 17 63 5
79 -4 6 -19 9 -34 7z"/>
<path d="M4693 1787 c-16 -7 -23 -19 -23 -38 0 -21 6 -29 32 -38 17 -6 32 -10
32 -9 1 2 7 13 14 26 23 41 -12 79 -55 59z"/>
<path d="M4493 1671 c-35 -30 -29 -72 13 -85 31 -10 51 32 34 73 -14 36 -17
37 -47 12z"/>
<path d="M4658 1489 c-23 -13 -23 -52 1 -73 15 -14 23 -15 45 -5 22 10 25 17
20 43 -6 35 -3 32 -29 39 -11 4 -28 2 -37 -4z"/>
<path d="M4510 1454 c-32 -17 -44 -49 -24 -69 32 -31 73 -11 78 38 4 32 -22
47 -54 31z"/>
<path d="M4392 1337 c-28 -17 -32 -24 -27 -46 4 -14 7 -26 8 -26 1 -1 14 -6
28 -12 33 -14 47 -5 59 38 11 39 13 65 4 56 -4 -3 -14 -3 -23 2 -10 5 -28 1
-49 -12z"/>
<path d="M4586 1334 c-10 -26 -7 -40 14 -64 11 -13 20 -18 20 -11 0 7 4 10 9
7 12 -8 41 38 41 64 0 17 -6 20 -39 20 -26 0 -41 -5 -45 -16z"/>
<path d="M4432 1104 c-38 -26 -22 -74 25 -74 30 0 49 35 34 66 -12 28 -28 30
-59 8z"/>
<path d="M2956 2110 c-11 -3 -21 -15 -22 -25 -3 -19 32 -156 46 -184 5 -9 21
-41 35 -71 26 -52 40 -69 58 -70 14 0 7 36 -22 110 -28 71 -42 109 -46 120 -1
3 -5 28 -9 55 -9 63 -16 74 -40 65z"/>
<path d="M3654 2187 c-37 -41 -84 -104 -84 -112 0 -6 -55 -82 -81 -113 -13
-16 -5 -42 15 -42 8 0 24 15 35 33 11 19 32 47 47 63 69 76 117 124 124 124
15 0 17 69 2 75 -23 9 -28 6 -58 -28z"/>
<path d="M2703 1809 c-13 -5 -23 -12 -23 -17 0 -13 64 -82 76 -82 5 0 21 -12
34 -27 14 -16 35 -29 48 -31 20 -3 22 0 16 25 -9 38 -7 35 -71 91 -48 41 -62
48 -80 41z"/>
<path d="M2768 1416 c-32 -12 -63 -27 -70 -34 -6 -6 -18 -12 -25 -12 -7 0 -13
-9 -13 -20 0 -27 21 -26 121 10 93 34 104 42 96 64 -8 21 -39 19 -109 -8z"/>
</g>
</svg>
