<?xml version="1.0" standalone="no"?>
<!DOCTYPE svg PUBLIC "-//W3C//DTD SVG 20010904//EN"
 "http://www.w3.org/TR/2001/REC-SVG-20010904/DTD/svg10.dtd">
<svg version="1.0" xmlns="http://www.w3.org/2000/svg"
 width="515.000000pt" height="431.000000pt" viewBox="0 0 515.000000 431.000000"
 preserveAspectRatio="xMidYMid meet">
<metadata>
Created by potrace 1.16, written by Peter Selinger 2001-2019
</metadata>
<g transform="translate(0.000000,431.000000) scale(0.100000,-0.100000)"
fill="#000000" stroke="none">
<path d="M3683 3976 c-40 -6 -80 -20 -91 -29 -10 -9 -26 -17 -35 -17 -9 0 -17
-4 -17 -10 0 -5 -6 -10 -12 -10 -21 0 -92 -62 -141 -122 -26 -32 -47 -60 -47
-63 0 -4 -16 -39 -36 -79 -44 -90 -54 -149 -61 -339 l-5 -148 31 -63 c17 -35
37 -66 45 -69 14 -6 13 -14 -10 -79 -3 -10 -15 -20 -25 -23 -10 -4 -19 -13
-19 -21 0 -8 -7 -17 -15 -20 -8 -4 -15 -11 -15 -16 0 -26 -92 -142 -179 -225
-53 -51 -99 -93 -103 -93 -5 0 -8 -10 -9 -22 0 -13 -3 -58 -5 -101 -5 -67 -3
-80 15 -103 12 -15 21 -32 21 -39 0 -11 20 -29 60 -56 16 -10 13 -13 -55 -68
-23 -18 -95 -132 -95 -150 0 -6 -4 -11 -10 -11 -5 0 -10 -8 -10 -18 0 -10 -7
-27 -15 -38 -13 -19 -11 -26 12 -70 14 -26 31 -53 37 -60 7 -6 28 -43 47 -80
19 -38 37 -71 40 -74 3 -3 22 -36 43 -74 20 -37 43 -74 50 -81 21 -22 51 -128
37 -133 -6 -2 -25 -15 -40 -28 -16 -13 -32 -24 -36 -24 -21 0 -188 -161 -212
-204 -6 -11 -31 -35 -55 -52 -56 -40 -79 -88 -84 -183 -4 -73 7 -129 32 -161
10 -13 26 -46 28 -60 1 -3 5 -11 9 -17 5 -7 5 -17 2 -23 -3 -5 1 -10 9 -10 8
0 21 -10 27 -23 6 -12 27 -37 45 -54 19 -18 34 -37 34 -41 0 -14 49 -76 113
-140 59 -60 110 -91 272 -163 73 -32 242 -47 329 -29 31 6 59 11 63 12 5 0 13
4 20 9 6 6 30 12 54 14 37 4 125 38 139 54 3 3 39 23 81 43 42 21 96 52 119
70 51 40 250 230 250 240 0 4 21 40 47 80 50 77 96 166 106 208 19 75 26 272
12 334 -12 55 -52 147 -65 151 -8 3 -26 21 -39 40 -34 51 -128 134 -159 142
-15 3 -36 12 -48 20 -11 7 -43 16 -70 19 -27 3 -60 10 -74 15 -29 10 -73 17
-113 18 -17 1 -30 8 -34 19 -3 9 -11 23 -16 30 -6 7 -12 25 -13 39 -2 14 -14
38 -27 52 -13 14 -35 46 -48 71 -13 25 -32 53 -41 64 -16 17 -13 23 59 107 41
48 84 91 94 94 10 4 19 9 19 13 0 4 15 24 33 44 51 58 67 78 63 78 -2 0 13 17
33 38 53 57 68 77 76 102 5 17 9 19 15 9 5 -7 25 -13 47 -12 21 1 42 -2 47 -5
6 -3 42 -7 82 -8 40 -2 76 -4 80 -5 5 -1 23 3 39 10 17 7 70 21 119 32 49 11
96 24 105 28 9 5 19 8 23 8 4 -1 16 6 28 15 11 10 20 15 20 11 0 -3 11 4 25
17 14 13 25 29 25 37 0 7 7 13 15 13 9 0 20 12 26 27 5 15 19 33 29 40 11 8
20 23 20 33 0 10 5 22 11 26 11 6 35 58 47 98 11 40 13 224 3 273 -25 120 -45
182 -80 248 -43 80 -105 184 -121 202 -5 7 -27 36 -48 66 -20 29 -49 66 -65
83 -183 194 -237 245 -285 269 -57 29 -162 67 -162 59 0 -3 -10 1 -22 7 -13 7
-52 14 -88 16 -212 11 -292 10 -357 -1z m292 -111 c99 -7 205 -34 276 -71 54
-27 219 -172 219 -192 0 -4 16 -25 35 -46 19 -21 35 -40 35 -43 0 -7 44 -66
68 -91 12 -12 22 -27 22 -32 0 -5 16 -29 35 -54 19 -25 32 -46 28 -46 -3 0 1
-8 9 -17 23 -26 63 -105 65 -128 1 -11 11 -45 22 -76 23 -69 33 -207 17 -269
-6 -25 -13 -47 -16 -50 -3 -3 -14 -24 -24 -47 -10 -23 -38 -63 -62 -88 -24
-25 -41 -45 -38 -45 8 0 -19 -23 -43 -37 -23 -13 -91 -28 -110 -25 -6 2 -14
-2 -18 -8 -3 -5 -18 -10 -33 -10 -15 0 -34 -4 -41 -9 -9 -6 -22 -6 -32 0 -11
6 -19 5 -21 -2 -2 -6 -15 -9 -28 -7 -23 4 -24 5 -5 12 106 41 160 100 209 228
34 90 9 268 -55 402 -16 33 -29 65 -29 73 0 7 -4 13 -8 13 -5 0 -17 18 -27 40
-10 22 -22 40 -27 40 -4 0 -27 18 -49 40 -23 22 -44 40 -48 40 -3 0 -25 18
-49 40 -24 22 -62 49 -85 60 -23 11 -64 34 -92 50 -27 16 -55 28 -62 25 -7 -2
-15 0 -18 6 -10 15 -76 40 -135 50 -126 21 -169 22 -195 5 -13 -9 -33 -16 -43
-16 -32 0 -121 -41 -127 -59 -3 -9 -22 -34 -43 -56 -20 -23 -42 -52 -49 -65
-6 -14 -20 -45 -32 -70 -20 -44 -21 -44 -22 -15 -1 17 0 35 1 40 1 6 4 33 5
62 2 28 9 69 16 90 7 21 12 44 11 51 -3 14 57 125 70 130 4 2 8 9 8 15 0 16
47 66 90 96 19 14 66 36 104 51 75 27 122 29 321 15z m-151 -386 c11 -9 -10
-157 -25 -175 -5 -6 -19 -10 -29 -7 -18 5 -20 13 -19 92 1 47 4 92 7 98 4 13
49 8 66 -8z m-138 -45 c2 -27 7 -65 9 -85 5 -36 4 -37 -30 -41 -33 -4 -35 -2
-35 27 0 16 -7 54 -14 83 l-14 52 26 6 c15 3 32 7 37 9 15 4 15 2 21 -51z
m241 28 c18 -12 -37 -194 -57 -189 -8 2 -13 10 -11 18 2 8 8 30 13 49 5 19 15
56 21 83 11 49 14 52 34 39z m107 -48 c22 -8 20 -26 -10 -92 -14 -31 -30 -67
-35 -79 -10 -26 -22 -29 -37 -10 -7 8 -1 33 19 82 15 39 30 78 32 88 6 19 8
20 31 11z m-474 -58 c0 -12 3 -37 6 -58 5 -31 3 -38 -16 -48 -26 -14 -33 -7
-51 50 -10 31 -8 40 13 72 20 32 24 35 36 20 6 -9 12 -25 12 -36z m601 -16
c20 0 7 -45 -33 -121 -24 -43 -45 -79 -48 -79 -3 1 -16 9 -28 20 l-24 20 29
47 c16 27 37 65 47 86 12 27 22 37 33 33 8 -3 19 -6 24 -6z m108 -94 c9 -11
-1 -29 -50 -87 -81 -98 -77 -95 -90 -82 -9 9 -6 19 12 41 33 39 56 71 79 110
22 35 32 39 49 18z m-806 -45 c2 -10 1 -25 -4 -32 -10 -16 -10 -15 -14 28 -3
34 9 37 18 4z m312 -17 c44 -15 88 -27 97 -28 25 -3 98 -64 98 -81 0 -8 6 -15
13 -15 6 0 22 -13 34 -28 12 -15 37 -44 56 -64 19 -21 52 -63 73 -95 21 -32
44 -61 49 -65 6 -5 5 -11 -4 -17 -8 -5 -11 -16 -6 -30 10 -31 -33 -151 -65
-181 -10 -10 -50 -69 -50 -75 0 -10 -74 -105 -82 -105 -4 0 -8 -6 -8 -14 0 -8
-16 -31 -35 -52 -19 -20 -35 -40 -35 -44 0 -16 -221 -231 -231 -225 -5 4 -16
2 -24 -5 -11 -9 -20 -1 -44 42 -34 59 -36 64 -21 73 6 3 10 21 10 38 0 25 -7
37 -27 49 -16 9 -31 16 -36 17 -4 0 -21 8 -38 17 -36 18 -56 23 -124 29 -57 5
-192 -22 -217 -43 -15 -12 -21 -11 -47 8 -36 25 -51 49 -51 81 0 12 -7 27 -16
34 -15 11 -16 15 -2 41 9 16 22 43 29 59 17 36 34 55 48 55 6 0 11 6 11 13 0
7 14 23 31 36 17 13 43 42 57 64 15 23 41 57 57 76 17 18 30 36 30 39 1 10 27
56 35 62 4 3 20 23 36 45 16 23 35 47 41 55 42 50 63 79 63 89 0 6 11 18 25
27 14 9 25 20 25 24 0 11 67 80 77 80 5 0 19 9 33 20 32 25 40 25 135 -6z
m585 -89 c-7 -12 -39 -49 -71 -81 l-59 -59 -25 27 -24 27 27 32 c15 18 40 44
55 58 16 14 38 36 49 48 l21 22 20 -25 c17 -22 18 -29 7 -49z m60 -85 c0 -12
-91 -100 -104 -100 -5 0 -15 -8 -22 -17 -12 -16 -15 -16 -24 -3 -7 11 -4 19
12 30 12 8 45 34 72 57 52 44 66 51 66 33z m30 -129 c0 -16 3 -36 6 -44 4 -10
-16 -25 -65 -51 -38 -20 -74 -36 -80 -36 -5 0 -8 12 -7 26 2 19 22 43 67 80
35 29 67 53 72 53 4 1 7 -12 7 -28z m-20 -173 c0 -7 -7 -21 -15 -32 -13 -17
-16 -18 -52 -3 -40 16 -38 18 27 36 19 5 36 10 38 10 1 1 2 -5 2 -11z m-110
-28 c0 -13 -11 -13 -30 0 -12 8 -11 10 8 10 12 0 22 -4 22 -10z m-15 -93 c11
-3 4 -5 -17 -6 -33 -1 -38 2 -38 21 0 19 1 20 18 6 9 -9 26 -18 37 -21z m-870
-388 c7 -8 36 -58 64 -111 28 -54 72 -133 99 -175 26 -43 54 -91 62 -108 8
-16 18 -32 21 -35 3 -3 14 -20 23 -37 9 -18 20 -33 24 -33 9 0 34 -62 28 -68
-4 -3 -115 -33 -210 -57 -11 -2 -39 -14 -63 -25 -23 -11 -49 -20 -56 -20 -8 0
-17 -3 -21 -7 -3 -4 -16 -8 -28 -10 -12 -2 -36 -12 -53 -23 -18 -11 -40 -20
-49 -20 -9 0 -16 -4 -16 -9 0 -5 -9 -11 -20 -14 -13 -3 -20 0 -20 9 0 8 -17
38 -37 67 -38 53 -44 62 -91 146 -13 25 -37 65 -51 90 -15 26 -35 62 -44 82
-9 20 -24 40 -33 43 -13 5 -15 14 -9 43 7 40 27 83 47 105 7 7 28 31 45 54 19
24 54 51 87 67 31 15 56 32 56 36 0 5 15 9 33 9 17 0 43 5 57 10 36 14 138 8
155 -9z m546 -693 c46 -8 97 -18 113 -21 35 -7 106 -43 106 -53 0 -4 14 -16
30 -25 17 -10 30 -23 30 -28 0 -6 14 -22 30 -36 17 -13 30 -31 30 -39 0 -8 3
-14 8 -14 4 0 16 -16 27 -36 16 -30 19 -56 19 -157 0 -74 -6 -140 -14 -167 -7
-25 -14 -47 -15 -50 -3 -18 -31 -70 -37 -70 -5 0 -8 -8 -8 -18 0 -11 -11 -32
-24 -47 -14 -16 -33 -44 -43 -62 -10 -18 -21 -33 -25 -33 -5 0 -8 -5 -8 -10 0
-19 -153 -160 -220 -203 -113 -73 -216 -127 -242 -127 -8 0 -18 -3 -22 -7 -3
-4 -14 -8 -24 -9 -9 -1 -60 -12 -112 -23 -104 -23 -165 -27 -175 -11 -3 6 -19
10 -36 10 -16 0 -46 9 -66 20 -21 11 -43 20 -49 20 -17 0 -84 32 -117 55 -50
35 -147 127 -147 139 0 6 -10 22 -23 36 -38 43 -87 113 -87 127 0 7 -4 13 -9
13 -4 0 -23 30 -42 68 -27 53 -34 80 -34 129 -1 35 1 61 3 58 7 -7 42 14 42
26 0 11 66 103 102 142 13 14 35 38 49 53 38 41 67 64 83 64 8 0 16 6 19 13 3
6 22 21 43 32 22 11 53 29 69 41 17 11 45 27 63 34 17 7 32 17 32 23 0 6 3 7
7 4 3 -4 16 -1 28 7 12 8 57 26 101 41 43 15 84 32 91 37 29 23 266 75 327 72
23 -2 80 -10 127 -18z"/>
<path d="M1414 3519 c-3 -6 -11 -8 -17 -6 -7 2 -31 -4 -54 -14 -24 -10 -43
-16 -43 -12 0 3 -7 0 -15 -7 -8 -7 -25 -10 -39 -6 -13 3 -26 2 -28 -2 -5 -12
-131 -72 -150 -72 -9 0 -20 -4 -23 -10 -6 -9 -70 -30 -89 -29 -5 0 -12 -3 -15
-8 -12 -17 -100 -63 -121 -63 -12 0 -18 -4 -15 -10 3 -5 0 -10 -8 -10 -15 0
-110 -59 -115 -72 -2 -5 -10 -8 -17 -8 -18 0 -195 -178 -195 -197 0 -4 -16
-24 -35 -43 -35 -34 -105 -159 -105 -186 0 -8 -6 -17 -14 -20 -8 -3 -17 -22
-21 -42 -3 -20 -14 -55 -24 -77 -33 -72 -34 -79 -37 -174 -2 -65 -7 -97 -16
-102 -8 -6 -9 -9 -2 -9 7 0 15 -16 18 -35 9 -49 56 -133 99 -178 21 -21 37
-43 37 -48 0 -5 4 -9 10 -9 5 0 37 -21 69 -48 33 -26 79 -58 102 -70 88 -47
237 -63 459 -49 60 4 90 -6 90 -28 0 -8 9 -30 21 -49 12 -20 18 -36 15 -36 -3
0 5 -17 18 -39 14 -21 32 -65 41 -97 10 -33 21 -63 26 -68 5 -6 9 -19 9 -31 0
-12 4 -25 9 -31 7 -7 49 -132 56 -164 0 -3 6 -14 12 -25 6 -11 11 -36 12 -55
1 -67 17 -106 62 -151 10 -10 19 -23 19 -29 0 -5 4 -10 9 -10 5 0 26 -8 47
-17 54 -24 64 -25 196 -24 88 0 126 4 149 16 17 9 33 14 37 11 3 -3 12 0 21 7
9 8 32 20 51 27 63 25 172 94 209 133 20 21 55 57 79 81 75 75 131 219 119
307 -3 20 -19 58 -36 82 -17 25 -31 49 -31 52 0 4 -8 19 -19 33 -28 40 -91
161 -91 174 0 6 -8 21 -19 32 -10 12 -28 48 -41 81 -22 62 -49 103 -94 145
-14 14 -26 31 -26 38 0 6 -4 12 -10 12 -5 0 -19 19 -31 42 -17 33 -18 43 -7
49 7 4 24 17 37 28 13 12 28 21 33 21 5 0 16 16 24 36 9 21 21 43 27 50 29 32
37 44 37 52 0 5 15 42 34 83 27 58 35 91 39 154 11 167 -61 379 -164 483 -27
27 -49 55 -49 61 0 6 -7 11 -16 11 -8 0 -12 5 -9 10 3 6 -1 10 -9 10 -9 0 -16
5 -16 10 0 6 -7 10 -15 10 -8 0 -15 3 -15 8 0 4 -24 19 -53 33 -28 15 -74 38
-102 51 -27 14 -65 29 -83 33 -53 11 -191 14 -198 4z m205 -116 c8 -13 71 -43
88 -43 7 0 13 -4 13 -8 0 -5 11 -14 25 -20 31 -14 38 -20 121 -97 35 -32 64
-63 64 -68 0 -5 15 -30 34 -56 18 -25 37 -62 40 -81 4 -19 11 -44 15 -55 20
-49 32 -127 26 -172 -9 -63 -24 -113 -36 -113 -5 0 -9 -6 -9 -13 0 -15 -29
-79 -40 -87 -3 -3 -14 -22 -23 -42 -10 -21 -26 -42 -36 -47 -16 -9 -17 -3 -14
79 1 48 -2 103 -9 122 -11 34 -63 88 -86 88 -7 0 -20 9 -29 19 -9 11 -20 18
-24 16 -4 -3 -22 1 -40 8 -35 13 -48 13 -134 2 -27 -4 -75 -8 -105 -9 -30 -2
-69 -10 -87 -19 -18 -9 -37 -17 -43 -17 -5 0 -29 -13 -51 -30 -23 -16 -45 -28
-49 -25 -4 3 -13 -2 -20 -10 -7 -8 -19 -15 -26 -15 -8 0 -14 -4 -14 -8 0 -5
-21 -20 -47 -33 -27 -13 -50 -27 -53 -30 -3 -4 -39 -25 -80 -48 -41 -22 -100
-64 -131 -94 -30 -29 -63 -56 -73 -60 -9 -4 -15 -11 -12 -16 4 -5 -7 -24 -24
-42 -30 -34 -34 -64 -13 -104 12 -22 28 -86 25 -97 -1 -5 5 -8 13 -8 8 0 15
-4 15 -8 0 -18 100 -81 155 -97 33 -9 66 -19 73 -21 25 -7 11 -22 -25 -27 -21
-2 -94 -3 -163 -2 -136 2 -228 25 -280 68 -15 12 -41 33 -60 47 -18 14 -38 31
-44 38 -6 7 -19 22 -28 33 -10 10 -32 44 -49 74 -28 50 -31 63 -30 136 1 87
16 162 38 194 7 11 13 25 13 32 0 27 96 211 134 258 23 27 48 58 56 69 75 94
195 187 305 235 39 17 56 25 80 39 26 15 175 82 182 82 3 0 19 6 36 14 30 13
53 21 69 25 4 1 27 9 50 17 24 9 48 17 53 18 6 2 21 8 35 15 29 13 219 8 229
-6z m-69 -702 c3 0 5 -17 4 -36 -1 -19 4 -39 12 -46 8 -6 14 -18 14 -25 0 -8
4 -14 9 -14 5 0 16 -15 24 -32 9 -18 59 -85 112 -148 54 -63 103 -128 110
-145 7 -16 38 -59 69 -94 30 -35 53 -67 51 -71 -3 -4 1 -13 9 -19 7 -6 21 -31
31 -56 9 -25 21 -45 26 -45 5 0 9 -6 9 -12 0 -7 14 -40 30 -73 17 -33 30 -60
30 -61 0 -1 -52 -1 -115 1 -63 2 -115 0 -115 -5 0 -4 -15 -11 -34 -14 -20 -4
-37 -14 -40 -24 -3 -9 -25 -27 -48 -38 -24 -12 -69 -34 -101 -50 -32 -16 -70
-40 -86 -54 -15 -14 -49 -43 -75 -65 -25 -22 -46 -43 -46 -48 0 -4 -10 -19
-23 -33 l-23 -24 -13 37 c-8 21 -18 49 -24 63 -5 14 -12 33 -14 43 -7 38 -44
123 -85 197 -14 25 -34 71 -46 102 -12 32 -26 66 -32 75 -12 23 -56 145 -85
243 -13 41 -35 106 -50 143 l-28 68 34 29 c19 16 39 29 46 30 6 0 13 3 15 8 5
12 122 78 152 86 15 4 46 18 68 33 23 14 53 29 67 34 49 15 101 35 106 41 5 4
36 4 55 -1z m523 -994 c20 -1 37 -5 37 -9 0 -3 15 -11 33 -17 43 -15 76 -72
69 -123 -2 -21 -8 -38 -13 -38 -5 0 -9 -6 -9 -13 0 -16 -59 -102 -96 -142 -51
-54 -117 -101 -194 -138 -67 -32 -97 -42 -205 -65 -65 -15 -152 -7 -199 17
-52 27 -66 55 -61 124 3 46 46 137 65 137 6 0 10 6 10 14 0 11 34 47 124 133
26 23 156 83 198 89 24 4 45 10 48 14 16 22 49 30 100 24 30 -3 72 -6 93 -7z"/>
</g>
</svg>
