<?xml version="1.0" standalone="no"?>
<!DOCTYPE svg PUBLIC "-//W3C//DTD SVG 20010904//EN"
 "http://www.w3.org/TR/2001/REC-SVG-20010904/DTD/svg10.dtd">
<svg version="1.0" xmlns="http://www.w3.org/2000/svg"
 width="545.000000pt" height="417.000000pt" viewBox="0 0 545.000000 417.000000"
 preserveAspectRatio="xMidYMid meet">
<metadata>
Created by potrace 1.16, written by Peter Selinger 2001-2019
</metadata>
<g transform="translate(0.000000,417.000000) scale(0.100000,-0.100000)"
fill="#000000" stroke="none">
<path d="M2672 4045 c-35 -19 -46 -32 -33 -39 6 -4 25 7 42 24 33 31 30 37 -9
15z"/>
<path d="M2050 3966 c-14 -9 -32 -15 -41 -16 -27 0 -31 -55 -30 -334 l1 -258
-40 4 c-22 2 -40 1 -40 -2 0 -3 -173 -6 -384 -7 -211 0 -389 -4 -395 -8 -14
-8 -54 -85 -45 -85 4 0 2 -6 -4 -12 -8 -11 -23 -83 -37 -183 -2 -16 -11 -61
-20 -100 -8 -38 -22 -104 -31 -145 -9 -41 -17 -76 -19 -78 -5 -5 -522 -15
-564 -10 -3 0 -8 0 -11 -1 -3 -1 -24 -3 -47 -5 -23 -1 -51 -10 -61 -19 -10 -9
-23 -17 -29 -17 -13 0 -25 -28 -18 -40 3 -5 1 -11 -4 -14 -5 -3 -10 -66 -11
-138 0 -73 -3 -155 -6 -183 -2 -27 -7 -113 -9 -190 -3 -77 -7 -174 -9 -216 -4
-66 -2 -80 15 -97 10 -12 19 -28 19 -36 0 -7 7 -17 16 -20 19 -7 282 -18 447
-18 115 -1 117 -1 117 -23 0 -41 28 -102 75 -166 52 -71 108 -129 125 -129 5
0 10 -5 10 -11 0 -5 5 -7 10 -4 6 3 16 3 23 -2 6 -4 21 -9 31 -10 31 -5 30 -9
-7 -50 -20 -21 -46 -50 -59 -64 -13 -15 -51 -44 -86 -66 -74 -47 -161 -128
-205 -192 -17 -25 -30 -47 -29 -49 2 -1 -4 -25 -13 -54 -8 -28 -18 -72 -21
-97 -3 -25 -9 -50 -11 -55 -9 -13 -8 -117 1 -153 9 -38 50 -70 86 -66 63 6
424 3 430 -4 3 -4 15 -52 24 -105 11 -60 25 -106 37 -120 38 -45 103 -108 112
-108 5 0 22 -9 38 -21 16 -11 29 -18 29 -15 0 2 26 -6 59 -19 60 -25 193 -40
221 -25 8 5 29 10 45 13 60 9 185 77 233 127 75 76 84 90 99 149 8 31 17 63
20 71 3 8 8 24 10 34 2 11 6 22 9 25 3 3 231 7 507 8 544 3 542 3 667 0 l85
-2 0 -75 c0 -56 5 -83 18 -103 9 -15 14 -27 10 -27 -5 0 0 -5 10 -11 9 -5 17
-16 17 -23 0 -11 86 -102 139 -146 13 -11 39 -22 57 -26 19 -3 37 -10 39 -15
3 -4 12 -6 19 -3 8 3 17 1 20 -4 3 -5 45 -10 93 -11 91 -2 191 20 228 50 57
46 165 164 165 179 0 6 7 21 15 33 16 25 55 143 55 170 0 13 9 17 38 18 44 1
198 1 262 0 25 0 65 0 90 1 25 0 66 0 91 -2 40 -3 52 1 85 28 21 18 46 32 56
32 11 0 21 12 27 32 5 18 17 51 25 74 20 56 20 200 -1 254 -3 8 -8 23 -9 32
-6 29 -47 112 -66 132 -10 11 -18 24 -18 30 0 5 -3 6 -6 3 -4 -3 -22 9 -41 28
-19 19 -41 35 -49 35 -8 0 -14 4 -14 9 0 5 -21 17 -47 26 -27 10 -55 20 -63
23 -8 3 -19 6 -25 7 -5 1 -17 3 -25 5 -8 2 17 6 55 10 39 4 84 13 100 20 17 7
32 14 35 15 18 4 71 39 103 68 63 57 108 138 111 201 1 20 6 21 101 20 73 -1
103 2 113 13 8 7 23 11 33 8 11 -4 25 0 34 8 15 16 23 76 12 94 -4 7 -9 184
-12 395 -2 211 -7 482 -10 603 -9 336 -9 1026 -1 1063 8 36 -10 96 -25 86 -5
-3 -9 0 -9 6 0 7 -6 8 -18 1 -29 -16 -33 -16 -572 4 -125 5 -139 5 -162 5 -57
-2 -917 11 -1003 15 -163 8 -477 15 -865 19 -190 2 -381 6 -425 10 -62 5 -85
3 -105 -8z m495 -107 c6 0 48 -1 95 -1 47 0 153 -1 235 -3 424 -7 807 -15 955
-20 277 -8 638 -17 770 -20 69 -2 179 -6 245 -9 66 -3 143 -6 170 -7 99 -1
102 -2 109 -72 9 -87 16 -565 18 -1310 1 -493 -1 -640 -11 -650 -7 -7 -42 -12
-93 -12 l-81 0 -16 55 c-21 77 -66 120 -181 177 -28 14 -61 17 -173 17 -76 -1
-148 -6 -160 -11 -12 -6 -42 -17 -67 -24 -25 -7 -58 -26 -75 -41 -16 -15 -35
-28 -40 -28 -19 0 -64 -61 -76 -101 -7 -21 -15 -39 -18 -40 -11 -1 -106 -1
-240 1 l-134 2 -40 39 c-22 21 -44 39 -48 39 -4 0 -14 6 -21 13 -27 24 -128
81 -128 72 0 -4 -6 -3 -12 2 -19 11 -39 15 -77 15 -19 0 -41 7 -49 14 -15 16
-38 18 -46 6 -3 -5 -31 -7 -63 -5 -32 2 -83 2 -113 1 -72 -2 -756 2 -927 6
-73 1 -136 5 -139 9 -7 6 -9 121 -19 787 -3 217 -8 490 -10 605 -9 424 -8 445
11 466 9 10 13 19 8 20 -5 0 0 4 11 9 15 7 369 6 430 -1z m-1268 -618 c1 -1
-9 -13 -22 -27 -20 -22 -23 -30 -13 -47 13 -25 11 -166 -3 -183 -14 -17 -27
-107 -19 -130 5 -12 -1 -32 -15 -54 -28 -43 -42 -145 -23 -164 7 -7 33 -13 58
-13 25 -1 194 -3 375 -6 182 -2 341 -6 355 -9 l25 -5 1 -316 1 -317 -46 -1
c-25 -1 -50 -1 -54 0 -4 1 -61 2 -125 2 l-117 1 -40 61 c-45 69 -120 121 -192
132 -24 3 -43 10 -43 16 0 5 -3 8 -7 7 -5 -1 -39 2 -78 7 -116 15 -185 4 -208
-32 -4 -7 -16 -13 -26 -13 -10 0 -26 -12 -36 -26 -9 -15 -32 -40 -51 -56 -18
-16 -50 -53 -71 -81 -20 -29 -40 -54 -43 -57 -3 -3 -13 -22 -22 -42 -17 -37
-20 -38 -68 -38 -33 0 -50 4 -50 13 0 9 -2 9 -8 -1 -9 -13 -60 -15 -255 -9
-59 2 -110 6 -113 10 -3 3 -13 3 -21 0 -12 -5 -13 42 -8 354 4 198 8 369 9
379 2 15 13 20 52 22 54 4 125 5 164 2 14 -1 66 -2 115 -1 50 0 110 -1 135 -2
25 -1 60 1 77 6 23 5 41 3 63 -8 27 -14 31 -14 36 -1 4 10 18 14 41 13 31 -2
38 2 52 28 9 17 16 35 16 40 2 52 20 165 30 185 7 14 16 59 19 100 4 41 11 89
16 105 11 34 21 100 21 132 -1 19 6 22 42 25 35 3 65 2 74 -1z m372 -7 c13
-13 -20 -15 -118 -9 -61 4 -111 11 -111 16 0 9 220 3 229 -7z m-332 0 c-3 -3
-12 -4 -19 -1 -8 3 -5 6 6 6 11 1 17 -2 13 -5z m56 -1 c-7 -2 -21 -2 -30 0
-10 3 -4 5 12 5 17 0 24 -2 18 -5z m342 -3 c-3 -5 -17 -10 -31 -10 -13 0 -24
5 -24 10 0 6 14 10 31 10 17 0 28 -4 24 -10z m240 0 c3 -4 -47 -8 -110 -9 -72
0 -115 3 -115 10 0 12 218 11 225 -1z m-82 -94 c59 -1 109 -5 111 -7 8 -8 13
-420 5 -424 -4 -3 -24 -6 -46 -6 -34 -1 -685 9 -690 10 -7 3 6 51 20 78 9 18
17 52 17 76 0 25 7 61 15 81 9 20 17 58 19 84 2 26 7 64 11 84 l7 36 211 -4
c117 -3 260 -6 320 -8z m-548 -1051 c70 -15 126 -35 154 -56 40 -29 88 -102
72 -107 -6 -2 -24 -14 -39 -26 -15 -12 -49 -38 -77 -56 -69 -47 -73 -50 -111
-89 -19 -19 -34 -41 -34 -47 0 -7 -6 -17 -13 -21 -13 -8 -22 -26 -71 -135 -14
-32 -29 -58 -35 -58 -58 0 -171 55 -171 83 0 4 -18 30 -39 59 -43 56 -63 136
-42 162 6 7 9 20 6 28 -6 14 45 87 102 149 18 19 42 45 55 59 49 53 88 70 153
66 33 -2 74 -7 90 -11z m3360 -196 c54 -14 95 -32 95 -41 0 -5 6 -8 14 -8 17
0 33 -19 38 -45 1 -11 7 -23 13 -27 5 -4 9 -40 9 -80 0 -70 -2 -76 -45 -137
-62 -90 -114 -116 -229 -116 -116 0 -178 20 -239 77 -27 26 -57 60 -65 76 -25
48 -22 143 5 193 11 22 57 69 67 69 4 0 20 7 36 15 34 18 116 30 116 16 0 -5
19 -3 43 4 52 17 91 18 142 4z m-2645 -35 c415 -4 604 -9 618 -18 6 -3 13 -3
15 1 8 13 420 7 444 -6 13 -6 24 -7 28 -2 7 12 156 6 182 -7 14 -8 32 -8 61 0
55 14 125 2 159 -26 16 -13 39 -27 53 -31 27 -8 60 -38 60 -55 0 -5 6 -10 14
-10 14 0 136 -118 136 -132 0 -4 7 -8 15 -8 7 0 18 -6 22 -13 4 -7 19 -21 32
-29 34 -24 107 -86 159 -136 24 -23 55 -45 68 -48 13 -3 24 -10 24 -15 0 -5 4
-9 10 -9 5 0 32 -14 60 -31 63 -38 103 -50 200 -56 91 -5 231 -38 246 -58 6
-8 16 -15 22 -15 21 0 101 -85 126 -135 21 -41 25 -65 26 -135 1 -106 -4 -141
-24 -152 -9 -5 -16 -17 -16 -26 0 -15 -12 -17 -88 -19 -48 0 -169 -3 -270 -5
-157 -3 -182 -1 -182 12 0 8 -6 26 -13 40 -7 14 -14 41 -15 60 -2 19 -7 36
-12 38 -6 2 -10 8 -10 12 0 13 -49 60 -62 60 -7 0 -22 10 -34 21 -13 12 -42
25 -66 30 -73 15 -247 23 -271 12 -38 -17 -91 -35 -119 -40 -16 -3 -28 -9 -28
-14 0 -5 -6 -9 -13 -9 -10 0 -42 -28 -118 -108 -25 -26 -59 -85 -59 -103 0
-18 18 -17 -375 -19 -82 0 -328 -2 -545 -5 l-395 -5 -12 28 c-6 15 -17 45 -24
67 -20 64 -41 108 -63 133 -90 101 -111 113 -191 116 -27 1 -56 5 -64 10 -14
9 -22 11 -98 21 -69 9 -215 -35 -266 -82 -77 -69 -137 -138 -157 -180 -11 -24
-24 -43 -29 -43 -5 0 -12 -14 -16 -30 -7 -34 20 -31 -277 -34 l-138 -1 -2 25
c-2 34 -1 47 6 100 17 124 45 183 113 246 83 75 81 74 93 74 5 0 10 3 10 8 0
4 17 18 37 32 42 28 123 105 123 117 0 5 15 25 34 45 18 20 39 52 47 70 7 18
20 40 28 48 8 8 25 39 38 70 34 79 56 120 65 120 5 0 8 5 8 11 0 27 117 130
163 145 12 4 28 15 35 25 7 11 19 19 26 19 6 0 17 5 24 12 17 17 75 36 92 31
8 -3 157 -7 330 -9z m2073 -211 c36 -5 45 -19 38 -57 -1 -5 5 -16 12 -25 8 -9
18 -26 21 -38 7 -21 67 -88 113 -124 31 -25 75 -47 107 -54 23 -5 27 -8 15
-16 -23 -15 -72 -1 -189 54 -25 12 -47 24 -50 27 -3 3 -21 17 -40 30 -19 14
-52 42 -74 62 -21 21 -42 38 -47 38 -7 0 -119 106 -119 113 0 4 175 -4 213
-10z m-2363 -722 c19 1 53 -6 75 -16 41 -17 115 -90 115 -113 0 -7 5 -21 10
-32 6 -11 15 -29 20 -40 6 -11 10 -31 10 -45 0 -14 5 -25 10 -25 7 0 7 -6 1
-18 -6 -11 -6 -24 0 -33 11 -18 2 -92 -17 -127 -8 -15 -14 -32 -14 -38 0 -18
-70 -93 -114 -123 -108 -72 -256 -92 -347 -46 -27 13 -49 22 -49 19 0 -2 -18
8 -40 22 -22 15 -40 31 -40 35 0 5 -6 9 -13 9 -34 0 -69 109 -72 225 -2 74 0
84 31 137 40 69 140 170 186 188 18 6 42 16 53 21 29 12 95 15 130 6 17 -4 46
-7 65 -6z m2198 -69 c2 -6 10 -8 18 -5 8 3 20 0 28 -6 8 -7 18 -11 22 -10 14
3 46 -13 67 -34 43 -43 79 -254 49 -290 -6 -7 -9 -16 -6 -19 8 -9 -49 -112
-91 -162 -20 -25 -54 -53 -76 -63 -21 -9 -39 -20 -39 -24 0 -4 -8 -8 -17 -9
-10 0 -45 -3 -78 -5 -65 -4 -162 21 -204 53 -58 43 -101 85 -107 105 -4 12
-16 34 -27 49 -16 22 -19 37 -14 81 3 30 15 74 26 98 12 23 21 49 21 56 0 26
133 149 175 162 22 7 47 15 55 18 8 3 28 7 44 9 16 3 32 6 34 9 9 9 116 -3
120 -13z"/>
<path d="M2780 1740 c-16 -17 -36 -54 -46 -83 -9 -29 -20 -56 -24 -62 -8 -11
-18 -52 -26 -107 -3 -18 -7 -49 -10 -68 -7 -52 -7 -49 0 -134 4 -47 13 -85 22
-93 8 -8 14 -21 14 -28 0 -56 52 -89 117 -75 21 4 63 9 93 9 30 1 114 4 185 7
72 2 222 4 335 4 498 0 503 0 520 15 9 8 21 15 27 15 13 0 33 45 33 74 0 33
-29 66 -115 131 -41 31 -75 60 -75 64 0 4 -15 16 -34 26 -18 10 -41 31 -51 47
-9 16 -34 45 -55 65 -22 20 -42 44 -45 54 -4 11 -10 19 -15 19 -5 0 -24 16
-43 35 -19 19 -38 35 -42 35 -5 0 -18 9 -30 20 -24 22 -71 31 -165 31 -36 0
-93 3 -127 7 -35 5 -63 6 -63 2 0 -10 -320 3 -338 14 -8 5 -23 -4 -42 -24z
m378 -74 c6 -3 13 -2 17 3 7 12 137 5 264 -13 55 -8 79 -29 273 -234 26 -27
112 -102 117 -102 12 0 61 -48 61 -59 0 -7 4 -10 9 -7 4 3 18 -5 29 -17 21
-22 21 -23 4 -38 -15 -13 -47 -15 -183 -14 -90 1 -217 5 -281 7 -64 3 -121 2
-128 -2 -6 -4 -28 -4 -48 0 -20 3 -50 3 -67 -2 -31 -8 -125 -11 -235 -9 -36 1
-92 -1 -125 -4 l-60 -7 -23 36 c-22 31 -24 46 -24 153 0 111 2 147 14 183 3 8
11 33 18 55 28 86 21 84 199 81 87 -2 163 -6 169 -10z"/>
<path d="M2456 1753 c-2 -2 -41 -6 -87 -9 -100 -6 -332 -50 -373 -72 -40 -20
-126 -84 -126 -94 0 -4 -7 -8 -15 -8 -21 0 -30 -59 -29 -200 1 -105 5 -133 23
-173 12 -26 26 -45 31 -42 5 3 24 -1 43 -9 19 -7 85 -17 148 -21 63 -4 120
-12 127 -17 8 -7 12 -7 12 1 0 16 46 14 192 -10 71 -12 139 -19 151 -15 12 3
26 5 30 5 14 0 40 33 42 51 1 10 7 25 14 34 9 11 10 16 2 16 -8 0 -7 11 3 35
11 25 13 57 9 112 -2 43 -5 92 -5 108 0 45 21 215 27 226 13 20 -6 65 -33 76
-23 10 -177 15 -186 6z m128 -121 c-2 -20 -5 -107 -6 -192 0 -85 -3 -159 -7
-165 -3 -5 -7 -19 -8 -30 -2 -11 -8 -35 -14 -53 -10 -31 -12 -32 -62 -31 -29
0 -72 7 -97 15 -26 8 -105 16 -180 19 -74 2 -152 8 -172 13 -22 6 -38 6 -38 1
0 -17 -22 -9 -51 20 -34 34 -43 79 -40 196 2 88 -7 73 98 166 12 11 54 27 94
35 40 8 75 17 78 18 12 8 380 33 397 28 7 -2 10 -18 8 -40z"/>
</g>
</svg>
