<?xml version="1.0" standalone="no"?>
<!DOCTYPE svg PUBLIC "-//W3C//DTD SVG 20010904//EN"
 "http://www.w3.org/TR/2001/REC-SVG-20010904/DTD/svg10.dtd">
<svg version="1.0" xmlns="http://www.w3.org/2000/svg"
 width="547.000000pt" height="493.000000pt" viewBox="0 0 547.000000 493.000000"
 preserveAspectRatio="xMidYMid meet">
<metadata>
Created by potrace 1.16, written by Peter Selinger 2001-2019
</metadata>
<g transform="translate(0.000000,493.000000) scale(0.100000,-0.100000)"
fill="#000000" stroke="none">
<path d="M1523 4715 c-29 -12 -83 -68 -83 -85 0 -5 8 -17 19 -27 10 -10 26
-30 35 -45 12 -19 44 -37 109 -63 51 -20 99 -43 108 -51 8 -8 19 -14 23 -14 7
0 107 -44 139 -61 10 -5 50 -26 90 -46 40 -20 74 -38 76 -39 1 -2 0 -8 -4 -15
-15 -24 -18 -74 -11 -219 3 -58 1 -154 -4 -215 -16 -187 -17 -414 -2 -420 6
-2 12 -11 12 -19 0 -22 36 -38 120 -53 41 -7 86 -16 100 -19 14 -2 57 -6 95
-8 103 -5 198 -17 217 -27 17 -9 44 -86 35 -96 -12 -12 -348 0 -431 15 -22 4
-69 4 -105 1 -36 -3 -75 -2 -87 2 -51 18 -85 18 -97 -2 -6 -10 -16 -19 -20
-19 -5 0 -21 -11 -35 -25 -140 -131 -178 -165 -185 -165 -5 0 -26 -15 -47 -33
-22 -18 -52 -40 -67 -47 -15 -8 -42 -25 -59 -37 -17 -13 -34 -23 -38 -23 -9 0
-161 -96 -185 -117 -22 -18 -132 -82 -144 -83 -4 0 -6 3 -6 8 5 33 -33 72 -71
72 -17 0 -30 -5 -30 -11 0 -6 -14 -9 -32 -7 -27 2 -33 8 -38 33 -9 40 -31 74
-45 68 -7 -2 -20 3 -29 12 -14 15 -20 13 -18 -6 1 -4 -24 -19 -56 -34 -31 -14
-70 -33 -85 -41 -69 -38 -83 -44 -102 -44 -12 0 -26 -5 -33 -12 -18 -18 -15
-100 4 -127 16 -23 16 -24 -28 -65 -25 -22 -55 -48 -68 -57 -12 -10 -23 -28
-25 -40 -2 -13 -7 -36 -11 -51 -5 -23 0 -33 29 -60 21 -20 42 -52 52 -82 17
-54 34 -88 46 -96 4 -3 28 -47 53 -98 36 -73 51 -93 72 -98 16 -4 29 -2 34 6
4 6 9 11 11 10 5 -2 30 7 107 36 34 13 71 24 81 24 10 0 34 14 52 30 19 17 45
33 59 36 14 4 30 10 35 15 6 4 31 15 57 23 43 15 131 68 171 103 20 18 23 53
5 53 -19 0 83 90 115 102 15 5 27 14 27 19 0 5 9 9 20 9 11 0 20 5 20 10 0 6
8 10 18 10 10 0 36 13 58 30 21 16 43 30 47 30 4 0 13 5 20 10 7 6 31 23 54
38 23 15 55 40 72 55 36 31 109 72 117 64 14 -13 35 -198 39 -342 3 -88 7
-180 9 -205 2 -25 7 -94 10 -155 4 -60 11 -123 16 -140 23 -72 4 -114 -93
-205 -27 -25 -56 -58 -64 -75 -22 -42 -129 -184 -167 -220 -39 -37 -59 -81
-50 -109 6 -20 16 -33 94 -127 19 -23 41 -53 49 -68 8 -14 18 -28 22 -32 5 -3
22 -30 37 -61 l29 -56 -31 -17 c-17 -10 -44 -30 -61 -46 -16 -15 -82 -64 -145
-108 -63 -43 -124 -86 -135 -95 -62 -49 -77 -57 -90 -52 -10 4 -15 -1 -15 -16
0 -11 -6 -26 -14 -32 -23 -17 -23 -27 0 -172 7 -47 49 -56 263 -58 100 0 181
-4 181 -8 0 -4 10 -4 23 1 12 5 51 9 87 10 36 1 81 5 99 11 19 5 37 7 42 5 4
-3 9 -2 11 2 4 10 94 83 102 83 7 0 109 72 116 82 3 4 23 15 45 25 22 10 84
52 138 93 54 41 109 82 123 91 37 24 64 60 64 84 0 12 -27 75 -60 141 -67 132
-77 149 -102 176 -10 10 -15 18 -11 18 4 0 -5 12 -18 28 -48 52 -61 107 -31
133 9 9 32 37 50 63 18 27 41 50 51 53 11 3 21 17 24 31 6 27 62 111 111 166
14 16 26 34 26 40 0 6 13 26 29 45 l29 34 73 -7 c41 -4 94 -11 119 -15 118
-23 172 -29 252 -27 70 2 91 0 103 -13 32 -34 63 -79 98 -142 20 -36 43 -72
52 -79 8 -7 15 -21 15 -31 0 -11 5 -19 11 -19 5 0 7 -5 4 -10 -3 -6 3 -23 14
-38 11 -16 23 -41 27 -58 4 -16 11 -32 16 -35 5 -3 10 -34 11 -68 2 -59 0 -64
-30 -92 -18 -16 -33 -35 -33 -43 0 -19 -39 -86 -50 -86 -16 0 -23 -38 -26
-160 l-4 -124 38 -41 c21 -22 50 -58 65 -80 30 -45 92 -115 101 -115 6 0 169
-164 199 -199 9 -11 17 -25 17 -30 0 -15 28 -33 34 -22 4 6 19 5 42 -3 30 -10
49 -10 103 2 36 7 73 11 83 9 9 -3 18 -1 20 5 2 6 19 6 45 0 52 -12 156 -7
161 8 2 5 8 8 13 5 5 -3 19 0 31 7 24 13 29 15 51 17 23 2 41 45 43 101 1 30
5 85 9 123 4 39 3 67 -3 67 -5 0 -44 36 -88 81 -81 83 -94 96 -116 115 -7 6
-48 48 -90 93 -75 78 -89 106 -69 126 14 14 131 248 131 262 0 6 9 15 20 18
26 8 27 56 0 80 -11 10 -17 21 -15 26 3 4 -8 23 -25 41 -17 18 -42 45 -55 60
-14 15 -25 31 -25 37 0 6 -9 15 -20 21 -11 6 -20 15 -20 20 0 5 -13 31 -29 57
-16 27 -35 65 -42 86 -7 21 -22 47 -32 58 -16 17 -19 44 -24 227 -6 236 -7
393 -4 503 3 68 5 76 21 72 10 -3 28 -16 41 -29 12 -13 29 -24 36 -24 8 0 16
-7 19 -15 4 -8 12 -15 19 -15 7 0 15 -4 17 -8 4 -10 165 -152 172 -152 3 0 17
-10 30 -21 26 -23 25 -40 -5 -72 -23 -26 -30 -87 -12 -115 8 -13 26 -28 41
-34 15 -5 36 -15 47 -21 11 -6 70 -36 131 -67 124 -64 159 -85 192 -114 12
-11 22 -16 22 -13 0 4 11 0 24 -9 36 -23 66 -14 87 26 11 19 19 31 19 27 0 -4
18 9 40 29 22 21 40 42 40 48 0 6 13 25 28 41 15 17 41 48 57 70 17 22 35 46
42 52 38 41 76 133 54 133 -6 0 -11 6 -11 13 0 7 -25 39 -55 72 -30 32 -55 64
-55 69 0 6 11 20 25 30 14 10 25 28 25 40 0 20 -67 106 -83 106 -7 0 -32 19
-67 50 -9 8 -23 17 -31 19 -89 23 -87 23 -113 5 -14 -11 -26 -25 -26 -31 0
-18 -17 -16 -75 6 l-50 19 -25 -29 -25 -29 -45 40 c-25 22 -63 57 -85 77 -39
36 -77 68 -143 120 -19 15 -82 73 -140 130 -59 57 -119 111 -134 120 -16 10
-28 21 -28 25 0 4 -5 8 -12 8 -6 0 -38 27 -69 59 -65 68 -58 66 -249 54 -169
-11 -326 -5 -450 16 -3 1 -6 26 -8 56 l-3 55 143 0 c260 1 318 6 342 29 15 16
20 32 19 68 -1 26 3 53 9 60 8 10 13 352 7 473 -1 14 -1 36 0 50 4 46 -9 263
-18 301 -7 32 -5 41 13 58 12 12 26 21 29 21 4 0 51 29 105 64 155 101 216
136 221 128 13 -17 58 -32 86 -29 43 5 62 15 80 44 28 41 27 69 -2 117 -28 46
-48 55 -132 57 -67 2 -108 -50 -81 -101 13 -25 3 -36 -65 -71 -62 -32 -83 -44
-102 -62 -10 -8 -29 -20 -43 -26 -14 -6 -38 -20 -55 -30 -93 -60 -91 -59 -267
-58 l-165 2 -89 90 c-119 120 -159 139 -285 140 -55 0 -106 -5 -120 -12 -13
-6 -41 -19 -62 -29 -21 -9 -42 -25 -48 -35 -5 -11 -16 -19 -23 -19 -8 0 -17
-7 -20 -16 -4 -9 -9 -14 -13 -11 -7 8 -40 -33 -53 -67 -5 -14 -22 -31 -36 -37
-15 -5 -99 -10 -188 -11 -93 0 -167 -5 -177 -11 -13 -8 -23 -7 -41 5 -12 8
-47 23 -75 33 -29 11 -53 22 -53 25 0 6 -113 61 -154 74 -11 4 -39 19 -63 34
-42 26 -43 29 -41 73 3 40 -1 51 -32 85 -43 47 -103 67 -147 49z m60 -76 c54
-15 45 -49 -13 -49 -19 0 -53 43 -43 54 8 8 11 8 56 -5z m2511 -31 c20 -28 9
-48 -25 -48 -21 0 -32 7 -44 30 -20 39 -20 38 20 38 24 0 40 -6 49 -20z
m-1202 -169 c115 -24 191 -59 216 -99 l13 -21 -183 5 c-101 2 -213 5 -250 5
-80 1 -81 10 -14 78 39 39 44 41 103 42 34 1 86 -4 115 -10z m448 -194 c85 -2
158 -4 161 -4 18 -2 33 -270 33 -581 0 -300 3 -296 -239 -293 -359 4 -653 21
-746 42 -25 6 -92 12 -150 15 -100 4 -244 21 -259 31 -9 6 -15 117 -12 235 2
52 4 195 6 317 1 122 5 226 9 230 12 11 318 12 365 1 37 -9 46 -8 60 6 16 16
41 17 317 11 165 -4 370 -9 455 -10z m-440 -938 l95 -2 2 -92 3 -92 -53 5
c-28 2 -88 9 -132 14 -44 6 -85 10 -92 10 -7 0 -11 11 -8 28 1 16 -1 50 -6 76
-5 27 -7 52 -4 56 3 4 26 6 52 3 27 -3 91 -5 143 -6z m0 -248 c102 -11 214
-25 250 -31 36 -5 171 -11 300 -12 129 -2 246 -6 259 -11 70 -22 86 -95 75
-340 -3 -88 -6 -167 -6 -175 1 -8 1 -82 1 -165 0 -224 0 -266 4 -435 2 -85 1
-161 -1 -168 -4 -11 -25 -12 -96 -8 -180 11 -304 16 -481 17 -115 1 -198 6
-230 15 -27 7 -88 13 -133 13 -84 0 -192 18 -192 32 0 4 -15 4 -32 0 -18 -4
-69 -4 -113 1 -76 8 -273 4 -376 -8 -39 -4 -49 -2 -57 13 -5 10 -7 23 -5 30 2
6 -4 17 -15 25 -10 7 -20 20 -20 28 -1 8 -4 40 -7 70 -2 30 -9 100 -14 155 -5
55 -10 133 -11 174 -1 106 -18 306 -32 374 -11 51 -10 61 7 92 16 31 16 39 5
60 -7 14 -17 25 -21 25 -3 0 -7 38 -8 84 -1 67 2 85 14 90 8 3 15 13 15 23 0
35 38 39 333 37 159 -1 302 2 318 5 55 11 83 10 269 -10z m-1014 -130 l5 -114
-52 -35 c-28 -19 -60 -45 -71 -57 -11 -12 -31 -24 -44 -27 -13 -4 -24 -10 -24
-15 0 -5 -23 -21 -51 -36 -28 -14 -56 -31 -63 -36 -48 -38 -78 -58 -121 -79
-27 -13 -68 -36 -90 -50 -22 -14 -48 -29 -57 -35 -9 -5 -37 -24 -62 -42 l-45
-32 -35 42 c-18 23 -36 52 -40 65 -3 12 -8 30 -11 40 -4 14 6 23 45 41 27 12
50 27 50 32 0 5 6 9 14 9 8 0 16 3 18 8 6 13 72 58 113 77 22 11 61 34 87 52
26 18 52 33 58 33 5 0 10 5 10 10 0 6 6 10 13 10 7 0 18 9 25 20 7 11 17 20
22 20 6 0 18 8 28 18 11 9 31 26 46 36 28 20 45 34 104 87 19 16 38 29 42 29
5 0 15 6 22 13 16 16 52 37 56 33 1 -2 5 -55 8 -117z m1997 -35 c9 -4 17 -10
17 -14 0 -5 28 -34 62 -67 69 -65 77 -73 207 -207 52 -53 98 -96 102 -96 4 0
9 -6 12 -14 3 -8 27 -29 53 -47 26 -18 62 -48 80 -66 l32 -33 -42 -44 c-41
-44 -41 -44 -71 -29 -17 9 -37 23 -46 32 -9 9 -26 23 -39 31 -67 45 -147 106
-161 122 -9 10 -22 18 -29 18 -7 0 -20 8 -29 18 -23 24 -76 61 -106 72 -14 5
-25 14 -25 20 0 6 -11 15 -25 20 -25 9 -25 10 -21 118 3 60 1 126 -4 146 -6
27 -5 36 3 32 7 -4 20 -9 30 -12z m-3045 -222 c15 -23 14 -25 -6 -41 -12 -9
-43 -24 -68 -35 -44 -18 -45 -18 -59 0 -22 29 -18 44 15 51 17 3 30 9 30 14 0
5 6 9 14 9 8 0 16 6 19 13 8 22 37 16 55 -11z m223 -195 c1 -13 15 -38 65
-110 17 -26 30 -56 28 -69 -1 -13 -3 -30 -3 -39 -1 -16 -33 -34 -76 -44 -37
-8 -91 -30 -118 -48 -14 -9 -30 -17 -35 -17 -5 0 -44 -20 -88 -45 -91 -52
-121 -57 -130 -20 -3 14 -10 25 -14 25 -5 0 -14 17 -21 38 -7 20 -17 42 -24
47 -6 6 -26 47 -44 93 -32 79 -33 83 -16 102 10 11 27 22 38 26 11 4 25 11 31
15 32 27 132 99 138 99 4 0 17 4 30 9 13 5 28 10 33 11 6 1 18 8 28 15 10 7
26 11 36 8 10 -2 24 2 32 10 31 30 43 25 77 -35 17 -32 32 -64 33 -71z m3761
-81 c3 -5 1 -17 -5 -27 -11 -17 -13 -17 -38 7 -35 34 -29 58 9 41 15 -6 30
-16 34 -21z m-215 3 c6 -6 20 -16 31 -23 67 -39 176 -125 159 -126 -4 0 22
-30 58 -66 75 -74 76 -80 15 -144 -22 -24 -40 -45 -40 -48 0 -2 -25 -30 -55
-60 -30 -31 -55 -59 -55 -64 0 -5 -12 1 -27 12 -16 11 -59 31 -98 45 -38 14
-81 33 -95 42 -44 31 -109 63 -123 63 -42 0 -35 58 12 107 11 12 21 33 21 46
0 13 13 35 28 50 15 15 52 60 82 102 56 76 67 84 87 64z m-2070 -723 c-6 -17
-14 -35 -19 -41 -5 -5 -25 -36 -44 -67 -20 -32 -40 -58 -45 -58 -5 0 -9 -6 -9
-13 0 -7 -10 -23 -23 -37 -19 -21 -43 -51 -89 -115 -38 -51 -63 -75 -77 -74
-9 2 -34 0 -56 -4 -22 -4 -85 -10 -140 -13 -136 -8 -221 -13 -277 -18 -54 -4
-59 4 -23 32 14 11 25 23 25 26 0 13 115 171 133 185 26 18 55 51 142 160 47
58 73 66 244 75 58 3 106 7 107 9 2 1 39 -2 82 -7 l80 -9 -11 -31z m978 -33
c72 -4 135 -8 140 -9 6 -1 40 -2 76 -3 66 -1 66 -1 84 -38 10 -21 22 -46 26
-55 5 -10 9 -24 9 -32 0 -7 7 -19 15 -26 8 -7 25 -33 37 -59 13 -25 25 -48 28
-51 3 -3 23 -28 44 -57 22 -29 45 -54 53 -57 7 -3 13 -10 13 -16 0 -6 -48 -10
-131 -10 -83 0 -155 -6 -200 -16 -39 -9 -73 -14 -76 -11 -3 3 -15 2 -27 -3
-20 -7 -25 -3 -42 33 -10 23 -19 44 -20 47 -1 3 -5 16 -9 29 -13 38 -65 133
-91 164 -13 16 -27 41 -30 55 -4 15 -22 48 -40 73 -40 55 -41 61 -11 55 12 -3
81 -8 152 -13z m-1265 -503 c20 -62 43 -109 79 -157 13 -17 22 -33 20 -36 -2
-2 2 -11 10 -20 7 -10 12 -17 10 -18 -66 -14 -436 -18 -471 -5 -17 6 -36 26
-48 51 -29 57 -83 138 -112 167 -27 28 -22 39 20 37 20 0 80 4 132 9 52 6 136
12 187 13 50 1 97 6 105 10 30 20 51 5 68 -51z m1785 -18 c-3 -15 -13 -33 -22
-39 -9 -7 -14 -13 -10 -13 18 0 -33 -86 -88 -146 l-30 -32 -187 -6 c-179 -6
-188 -5 -188 12 0 11 10 27 21 38 12 10 30 38 41 62 10 23 23 42 27 42 8 0 23
39 25 65 1 5 20 13 43 17 24 4 51 12 60 17 10 6 82 10 166 10 l149 0 -7 -27z
m-1746 -325 c-18 -12 -48 -36 -68 -54 -20 -18 -39 -33 -43 -33 -5 0 -17 -8
-27 -17 -49 -44 -145 -112 -158 -113 -7 0 -13 -3 -13 -8 0 -4 -17 -16 -37 -27
-21 -11 -50 -29 -65 -41 -22 -18 -36 -21 -65 -17 -21 3 -93 6 -160 6 -68 0
-123 3 -123 6 1 9 78 61 90 61 11 0 88 73 111 105 25 36 179 138 179 119 0 -4
9 1 21 12 18 16 39 18 189 19 93 0 172 4 176 8 4 3 11 4 17 0 5 -3 -6 -15 -24
-26z m1625 -14 c8 -16 81 -95 162 -177 133 -134 145 -149 116 -143 -35 7 -136
-14 -275 -59 -49 -15 -83 -21 -93 -16 -8 5 -29 31 -47 59 -83 131 -89 139
-219 276 -31 33 -55 63 -53 67 2 3 43 7 92 9 48 1 90 4 92 7 2 2 51 4 107 4
103 0 104 0 118 -27z m-1465 -15 c10 -29 9 -34 -16 -55 -16 -12 -36 -25 -45
-28 -10 -4 -18 -11 -18 -16 0 -5 -6 -9 -14 -9 -8 0 -16 -3 -18 -7 -5 -13 -94
-82 -109 -85 -8 -2 -21 -10 -29 -18 -8 -9 -29 -25 -47 -35 -17 -11 -65 -43
-105 -71 -40 -28 -83 -56 -95 -63 -22 -11 -23 -10 -23 34 0 34 4 47 18 52 9 4
22 11 27 15 6 5 41 28 78 53 38 25 88 61 112 80 23 19 46 35 50 35 4 0 17 9
29 21 40 39 91 78 126 96 19 10 37 21 38 26 8 18 31 4 41 -25z m1071 -109 c0
-4 27 -34 61 -66 33 -32 66 -72 74 -90 7 -17 27 -46 44 -64 17 -17 31 -36 31
-41 0 -6 9 -21 20 -35 33 -43 12 -40 -26 2 -44 51 -56 64 -145 161 -41 44 -83
93 -94 108 -22 32 -36 72 -27 81 6 6 62 -44 62 -56z m-1950 -241 c14 0 50 1
80 2 53 1 143 -6 186 -15 12 -3 24 -14 27 -25 5 -18 1 -19 -41 -15 -86 9 -227
7 -273 -4 -25 -6 -62 -8 -81 -5 -30 5 -37 11 -40 35 -5 35 4 40 67 32 28 -3
61 -5 75 -5z m2666 -38 l31 0 -7 -47 c-5 -27 -6 -51 -4 -55 3 -4 -6 -13 -18
-20 -16 -9 -81 -13 -213 -14 -104 -1 -193 0 -198 3 -14 9 15 45 50 59 19 9 38
13 41 10 3 -3 10 -1 17 4 6 5 20 11 31 13 10 1 25 6 32 10 13 9 105 28 134 28
10 0 20 5 24 11 3 5 16 7 28 4 11 -3 35 -6 52 -6z"/>
<path d="M2259 4159 c-11 -11 -19 -33 -19 -53 0 -18 -3 -53 -6 -78 -5 -33 -2
-48 10 -60 9 -9 16 -19 16 -23 0 -4 6 -13 14 -20 10 -11 28 -11 87 -4 129 18
244 23 302 15 35 -5 38 1 40 100 l2 79 -40 19 c-29 14 -76 21 -175 27 -74 5
-152 10 -173 13 -29 3 -44 -1 -58 -15z m279 -73 c90 -4 108 -12 97 -45 -4 -15
-14 -21 -33 -20 -31 1 -143 -10 -216 -21 -70 -11 -86 -4 -86 35 0 62 4 65 84
59 39 -3 108 -7 154 -8z"/>
<path d="M3007 4164 c-4 -4 -7 -16 -7 -26 0 -10 -7 -29 -16 -42 -8 -13 -11
-26 -7 -29 4 -3 8 -27 8 -54 0 -26 5 -53 11 -60 6 -6 36 -16 68 -22 31 -6 64
-14 74 -19 9 -4 28 -7 42 -6 14 1 75 5 135 9 146 8 155 11 155 38 0 12 7 43
14 69 8 25 13 48 10 50 -2 2 -5 15 -7 28 -2 13 -10 27 -18 30 -8 4 -23 11 -34
17 -11 5 -85 10 -165 11 -80 0 -170 4 -200 7 -30 4 -59 3 -63 -1z m158 -84
c22 -1 69 1 105 4 61 5 134 -4 148 -18 3 -4 1 -19 -4 -33 -10 -29 -14 -31
-119 -35 -33 -2 -63 -7 -67 -13 -4 -6 -28 -5 -65 4 -32 7 -67 14 -78 15 -11 2
-23 4 -27 5 -5 0 -8 19 -8 40 l0 39 38 -3 c20 -2 55 -4 77 -5z"/>
<path d="M2410 3802 c-93 -6 -119 -13 -125 -33 -4 -11 0 -30 9 -43 8 -13 17
-54 19 -92 5 -77 18 -93 76 -96 20 0 180 -2 356 -2 293 -2 475 -8 596 -21 35
-4 49 -1 62 12 8 10 16 21 16 26 0 4 2 20 5 35 12 54 15 98 10 129 -5 28 -12
35 -48 45 -22 6 -104 12 -181 14 -77 1 -223 5 -325 9 -102 4 -202 7 -222 7
-21 0 -38 4 -38 8 0 4 -18 4 -41 -1 -23 -5 -62 -6 -87 -2 -26 5 -63 7 -82 5z
m127 -85 c2 -3 1 -28 -3 -56 l-7 -51 -56 0 c-69 0 -90 13 -98 62 -5 33 -3 39
18 47 23 8 137 7 146 -2z m197 -22 c6 -11 13 -22 16 -25 3 -3 6 -16 6 -30 2
-25 0 -25 -77 -26 -60 -1 -79 1 -79 12 0 7 5 16 10 19 6 4 10 14 9 23 -5 50
-1 53 52 50 40 -2 55 -8 63 -23z m252 7 c6 -4 14 -27 17 -51 l5 -43 -85 6
c-47 3 -87 7 -87 8 -1 2 -7 22 -13 46 l-10 42 81 0 c45 0 86 -4 92 -8z m209
-12 c4 -6 4 -29 0 -50 l-7 -40 -58 0 c-32 0 -62 5 -65 10 -3 6 -1 10 5 10 8 0
10 13 6 40 l-5 40 59 0 c32 0 62 -5 65 -10z m171 -3 c0 -1 -1 -21 -4 -44 -4
-39 -7 -43 -31 -42 -52 1 -65 12 -66 58 l-2 43 51 -7 c28 -3 51 -7 52 -8z"/>
<path d="M2195 2557 c-33 -18 -60 -37 -60 -44 0 -7 -6 -18 -12 -24 -18 -18
-16 -112 3 -152 16 -33 74 -80 99 -80 30 0 155 48 155 59 0 7 4 14 8 16 4 2
17 19 29 38 17 28 20 46 16 88 -3 28 -9 52 -14 52 -5 0 -9 7 -9 15 0 9 -8 18
-17 22 -10 3 -25 11 -33 18 -8 7 -35 15 -60 18 -37 4 -55 0 -105 -26z m125
-67 c21 -11 41 -24 44 -29 10 -16 -6 -73 -23 -79 -9 -3 -19 -10 -22 -14 -3 -5
-12 -10 -20 -11 -8 -2 -19 -6 -26 -10 -18 -11 -73 -5 -85 10 -6 7 -10 31 -10
54 1 44 29 79 63 79 10 0 21 5 24 10 8 13 10 13 55 -10z"/>
<path d="M3368 2540 c-2 -6 -16 -13 -32 -16 -49 -9 -81 -33 -99 -77 -34 -83
-12 -146 64 -186 77 -41 125 -32 193 34 37 37 38 40 33 87 -8 61 -35 107 -85
142 -40 27 -68 33 -74 16z m77 -126 c18 -44 19 -37 -4 -63 -30 -34 -70 -41
-113 -20 -44 23 -48 33 -28 75 17 37 26 41 87 43 40 1 44 -1 58 -35z"/>
<path d="M2721 2511 c-44 -36 -58 -73 -51 -133 8 -58 27 -80 98 -115 90 -44
162 -31 212 39 27 37 31 49 27 95 -4 59 -44 127 -80 137 -12 3 -56 6 -97 6
-67 -1 -78 -3 -109 -29z m207 -68 c19 -27 14 -71 -12 -100 -21 -23 -30 -25
-73 -21 -89 8 -141 70 -95 111 19 17 111 36 147 30 11 -1 26 -10 33 -20z"/>
</g>
</svg>
