<?xml version="1.0" standalone="no"?>
<!DOCTYPE svg PUBLIC "-//W3C//DTD SVG 20010904//EN"
 "http://www.w3.org/TR/2001/REC-SVG-20010904/DTD/svg10.dtd">
<svg version="1.0" xmlns="http://www.w3.org/2000/svg"
 width="421.000000pt" height="405.000000pt" viewBox="0 0 421.000000 405.000000"
 preserveAspectRatio="xMidYMid meet">
<metadata>
Created by potrace 1.16, written by Peter Selinger 2001-2019
</metadata>
<g transform="translate(0.000000,405.000000) scale(0.100000,-0.100000)"
fill="#000000" stroke="none">
<path d="M2845 3789 c-16 -5 -39 -7 -50 -4 -11 2 -35 -1 -52 -7 -24 -9 -47 -9
-83 -2 -28 6 -53 8 -55 4 -2 -4 -181 -8 -397 -10 -216 -2 -411 -4 -433 -4 -22
0 -63 2 -92 6 -29 3 -55 3 -58 0 -3 -3 -31 -7 -63 -8 -61 -3 -152 -12 -191
-20 -21 -5 -23 -9 -18 -45 3 -21 2 -41 -3 -44 -4 -2 -19 -39 -35 -82 -15 -43
-38 -102 -51 -131 -13 -29 -24 -57 -24 -62 0 -5 -17 -47 -38 -92 -21 -46 -40
-87 -43 -93 -2 -5 -7 -9 -10 -8 -4 1 -24 3 -45 4 -22 1 -46 6 -55 10 -26 13
-76 -25 -84 -63 -4 -18 -13 -53 -22 -78 -28 -88 -54 -236 -52 -307 1 -39 12
-123 25 -185 13 -62 26 -127 28 -144 2 -17 9 -40 14 -50 6 -11 26 -53 46 -94
21 -45 50 -89 73 -110 73 -67 138 -117 183 -142 58 -31 79 -74 90 -185 5 -49
14 -107 20 -131 5 -23 13 -59 16 -80 3 -20 12 -68 20 -107 9 -38 28 -133 45
-210 16 -77 34 -158 40 -180 6 -22 15 -65 20 -95 21 -115 28 -147 48 -220 12
-41 23 -86 26 -100 2 -14 20 -96 40 -182 19 -86 35 -170 35 -185 0 -16 10 -39
23 -53 28 -32 37 -114 13 -123 -9 -4 -16 -18 -16 -31 0 -26 2 -27 73 -41 9 -2
17 2 17 8 0 14 268 3 450 -19 74 -8 173 -19 220 -24 47 -4 97 -11 112 -15 21
-6 29 -3 34 10 4 9 18 28 30 41 18 17 24 34 24 69 0 25 9 67 21 92 18 40 19
51 9 94 -9 39 -9 53 0 64 7 8 14 34 15 57 2 24 8 70 14 103 6 33 12 74 12 90
1 17 5 46 10 65 4 19 10 51 13 70 3 19 15 87 26 150 12 63 28 160 36 215 7 55
21 123 29 151 8 29 15 67 15 86 0 18 9 66 20 107 11 41 20 89 20 107 0 18 5
45 10 59 6 15 15 59 20 98 17 112 31 169 51 203 10 17 16 34 13 37 -4 3 9 28
29 54 94 129 191 338 212 458 4 22 12 45 17 51 20 26 25 175 15 438 l-6 158
-27 14 c-19 10 -31 11 -38 4 -17 -17 -26 -11 -26 18 0 34 -31 97 -60 122 -12
10 -22 22 -22 27 -1 8 -7 23 -43 108 -8 20 -15 40 -15 46 0 6 -11 34 -24 62
-31 68 -45 107 -51 134 -7 38 -29 78 -45 80 -8 1 -28 -3 -45 -8z m-830 -162
c1 -90 14 -379 19 -402 2 -11 0 -29 -4 -41 -7 -18 -17 -21 -82 -21 l-74 -1 4
34 c2 19 -1 41 -7 48 -18 21 -24 196 -11 309 17 154 10 143 88 139 l67 -3 0
-62z m-415 48 c0 -2 -7 -35 -15 -74 -19 -92 -23 -394 -5 -416 11 -13 4 -15
-53 -15 -59 0 -66 2 -73 22 -22 69 14 350 57 437 19 41 51 63 77 54 6 -3 12
-7 12 -8z m193 -2 c5 -3 5 -66 1 -147 -4 -77 -8 -177 -9 -221 -1 -44 -3 -95
-3 -114 l-2 -34 -52 6 c-49 6 -73 21 -61 39 2 5 0 14 -5 21 -38 46 -32 333 8
424 l20 45 47 -7 c25 -3 51 -9 56 -12z m433 -25 c18 -52 26 -118 30 -236 2
-57 6 -111 9 -121 3 -9 7 -45 10 -79 l5 -62 -86 0 -85 0 1 43 c0 23 -4 74 -10
112 -9 61 -11 112 -11 323 0 23 3 47 6 53 4 5 32 9 62 7 55 -3 56 -4 69 -40z
m189 32 c-3 -5 1 -10 9 -10 9 0 16 -4 16 -8 0 -5 9 -17 19 -29 29 -31 47 -74
50 -118 1 -22 10 -74 18 -115 9 -41 18 -107 22 -146 l6 -72 -80 -11 c-107 -15
-114 -14 -111 7 2 9 -3 37 -10 62 -21 67 -35 167 -35 240 0 35 -6 92 -13 125
-7 33 -11 66 -8 73 2 8 25 12 63 12 38 0 58 -4 54 -10z m213 -51 c29 -30 52
-59 52 -64 0 -6 11 -31 25 -57 14 -26 25 -62 25 -80 0 -18 5 -52 10 -74 5 -23
12 -67 15 -98 l6 -56 -29 0 c-16 0 -44 -3 -62 -7 l-33 -6 6 51 c4 35 2 54 -7
61 -19 16 -76 228 -76 282 0 14 -9 42 -20 64 -11 22 -20 40 -20 41 0 1 13 1
28 -1 20 -1 45 -18 80 -56z m132 3 c25 -26 56 -60 67 -75 29 -37 60 -137 68
-217 7 -70 11 -97 17 -119 2 -9 -8 -14 -31 -15 -42 -1 -59 27 -67 116 -3 34
-8 66 -10 70 -3 4 -9 33 -14 63 -10 63 -54 169 -83 203 -15 16 -17 22 -6 22 8
0 34 -22 59 -48z m119 7 c13 -22 20 -43 17 -46 -3 -3 -11 6 -17 21 -7 14 -16
26 -20 26 -5 0 -13 9 -19 20 -8 15 -8 20 3 20 7 0 24 -18 36 -41z m-1460 -71
c-10 -40 -21 -98 -24 -128 -4 -30 -11 -80 -16 -110 -6 -30 -10 -81 -9 -114 l1
-59 -33 8 c-18 4 -45 8 -59 8 -24 -1 -25 1 -18 41 8 47 60 196 83 241 9 17 16
36 16 42 0 21 59 143 69 143 5 0 1 -33 -10 -72z m1509 -33 c-3 -3 -9 2 -12 12
-6 14 -5 15 5 6 7 -7 10 -15 7 -18z m76 -212 c21 -42 36 -102 29 -121 -6 -13
-8 -13 -14 4 -4 10 -8 32 -8 48 -1 16 -10 44 -22 62 -11 19 -16 34 -10 34 6 0
17 -12 25 -27z m-54 -213 c30 -5 82 -12 114 -15 107 -9 102 -2 112 -150 12
-174 5 -257 -32 -405 -27 -105 -25 -101 -83 -220 -48 -101 -58 -117 -118 -189
-18 -22 -30 -26 -80 -27 -71 -2 -197 -19 -213 -29 -19 -12 -166 -15 -197 -5
-16 5 -179 12 -363 15 -184 3 -348 6 -365 7 -16 1 -61 -2 -100 -6 -104 -13
-189 -8 -243 13 -33 13 -53 16 -59 10 -13 -13 -132 68 -184 124 -21 22 -51 65
-68 96 -29 55 -75 211 -87 295 -15 110 -21 161 -19 185 4 52 26 169 44 226
l19 60 47 8 c31 5 67 4 99 -4 33 -7 185 -13 428 -15 207 -2 403 -8 435 -13 80
-13 279 -3 492 25 18 2 70 7 115 10 44 3 83 7 85 10 7 7 165 2 221 -6z m-892
-1106 c173 -1 321 -7 361 -15 69 -12 113 -10 251 11 41 6 95 11 118 11 47 -1
86 -17 77 -30 -3 -5 -10 -51 -15 -102 -15 -137 -27 -212 -49 -319 -23 -110
-67 -354 -76 -420 -3 -25 -10 -65 -15 -90 -5 -25 -21 -108 -35 -185 -14 -77
-29 -153 -34 -170 -6 -16 -13 -56 -16 -88 -3 -32 -12 -75 -20 -95 -14 -39 -23
-97 -32 -221 -7 -98 -25 -130 -72 -130 -20 0 -47 -1 -61 -2 -14 -1 -56 1 -95
4 -117 11 -196 16 -285 21 -131 7 -254 17 -261 22 -3 2 -9 31 -12 65 -3 34
-10 65 -15 68 -15 10 -35 54 -37 82 -2 14 -9 37 -18 50 -8 13 -18 48 -21 76
-9 75 -93 403 -108 420 -6 8 -13 40 -14 71 -2 31 -10 77 -19 102 -9 25 -19 63
-21 85 -3 22 -11 63 -19 92 -8 28 -15 64 -15 81 0 16 -9 56 -19 89 -10 32 -21
74 -24 93 -7 43 -24 138 -38 205 -6 28 -11 85 -12 128 l-2 79 80 4 c44 3 107
9 140 14 33 4 78 6 100 3 22 -3 172 -7 333 -9z"/>
</g>
</svg>
