<?xml version="1.0" standalone="no"?>
<!DOCTYPE svg PUBLIC "-//W3C//DTD SVG 20010904//EN"
 "http://www.w3.org/TR/2001/REC-SVG-20010904/DTD/svg10.dtd">
<svg version="1.0" xmlns="http://www.w3.org/2000/svg"
 width="525.000000pt" height="403.000000pt" viewBox="0 0 525.000000 403.000000"
 preserveAspectRatio="xMidYMid meet">
<metadata>
Created by potrace 1.16, written by Peter Selinger 2001-2019
</metadata>
<g transform="translate(0.000000,403.000000) scale(0.100000,-0.100000)"
fill="#000000" stroke="none">
<path d="M3915 3699 c-16 -5 -44 -8 -62 -5 -33 5 -43 -6 -43 -44 0 -37 43 -44
121 -19 30 9 41 8 70 -7 38 -20 87 -20 107 0 13 13 7 46 -8 46 -5 0 -16 7 -24
16 -19 19 -119 27 -161 13z"/>
<path d="M3545 3668 c-38 -10 -79 -22 -90 -28 -11 -5 -38 -15 -60 -22 -37 -12
-40 -16 -43 -52 -3 -39 -3 -39 28 -32 17 3 46 12 63 20 58 26 161 56 191 56
57 1 88 47 47 70 -24 12 -46 10 -136 -12z"/>
<path d="M4298 3632 c-10 -2 -18 -7 -18 -10 0 -4 -3 -17 -6 -29 -5 -20 2 -26
62 -55 38 -18 71 -35 74 -38 19 -22 91 -70 112 -75 21 -5 27 -3 33 15 4 14 1
28 -9 39 -9 10 -16 23 -16 29 0 7 -4 12 -9 12 -5 0 -31 15 -58 34 -69 47 -145
83 -165 78z"/>
<path d="M3200 3465 c-36 -19 -146 -136 -152 -161 -3 -12 -1 -29 4 -38 11 -19
48 -22 48 -3 1 17 87 107 136 140 70 48 38 102 -36 62z"/>
<path d="M4694 3342 c-37 -12 -24 -63 30 -123 28 -31 46 -61 46 -75 0 -27 36
-68 51 -58 17 10 30 55 21 68 -5 6 -12 22 -15 36 -4 14 -25 50 -49 80 -23 30
-41 56 -40 58 1 1 2 7 2 12 0 11 -14 11 -46 2z"/>
<path d="M2906 3066 c-14 -25 -26 -51 -26 -59 0 -7 -9 -40 -20 -73 -22 -63
-20 -98 7 -108 24 -10 32 3 53 88 10 42 28 93 39 112 29 49 28 84 -3 84 -18 0
-31 -11 -50 -44z"/>
<path d="M4852 2940 c-14 -23 -16 -50 -3 -50 5 0 9 -16 9 -36 0 -20 4 -39 9
-43 5 -3 10 -31 10 -62 1 -60 15 -99 38 -99 22 0 27 17 25 93 -2 105 -5 130
-18 154 -7 12 -12 26 -11 30 6 37 -37 47 -59 13z"/>
<path d="M1455 2802 c-85 -9 -272 -78 -283 -104 -2 -5 -11 -8 -19 -8 -35 0
-223 -228 -223 -270 0 -9 -6 -24 -14 -35 -7 -11 -17 -40 -21 -65 -4 -25 -10
-54 -12 -65 -11 -42 -9 -190 4 -254 15 -72 60 -172 102 -225 14 -18 35 -45 46
-61 11 -15 29 -35 39 -44 11 -9 29 -25 40 -36 111 -108 292 -171 462 -161 98
5 135 10 150 18 5 3 36 13 69 23 33 11 62 21 65 25 3 3 32 23 65 45 118 77
189 174 255 347 26 69 39 198 30 298 -5 52 -62 208 -95 261 -48 76 -81 113
-150 167 -67 53 -121 83 -180 102 -22 7 -48 19 -57 27 -12 11 -47 15 -130 17
-62 1 -126 0 -143 -2z m165 -153 c0 -6 5 -7 11 -4 14 9 130 -35 136 -52 3 -7
15 -13 26 -13 35 0 81 -39 117 -101 19 -32 38 -59 42 -59 10 0 55 -150 58
-195 12 -167 -52 -342 -165 -448 -46 -43 -87 -66 -165 -93 -75 -26 -250 -26
-299 -1 -19 9 -41 17 -50 18 -9 0 -29 9 -46 20 -16 10 -39 23 -50 28 -26 11
-125 109 -125 123 0 6 -11 23 -25 40 -14 16 -25 37 -25 47 0 9 -5 22 -10 27
-16 16 -40 145 -36 195 4 58 15 119 26 144 47 114 88 172 158 226 20 16 46 36
57 44 10 8 26 15 35 15 9 0 21 5 26 10 34 34 304 59 304 29z"/>
<path d="M2803 2652 c-24 -4 -27 -12 -25 -77 1 -33 11 -76 38 -172 2 -7 12
-13 23 -13 35 0 39 49 11 144 -6 21 -9 48 -6 60 7 31 -15 62 -41 58z"/>
<path d="M4905 2550 c-33 -13 -42 -31 -55 -118 -7 -45 -16 -85 -21 -88 -17
-10 -9 -53 11 -64 28 -15 56 16 64 73 4 26 11 49 16 52 5 3 7 12 4 20 -4 8 -1
38 6 66 13 55 7 71 -25 59z"/>
<path d="M2843 2252 c-22 -15 -21 -45 2 -97 13 -30 28 -55 34 -55 5 0 12 -13
16 -29 9 -44 38 -69 72 -64 26 4 29 8 25 34 -2 16 -13 34 -23 40 -11 5 -19 14
-19 20 0 5 -11 27 -25 48 -13 22 -27 50 -30 63 -7 27 -37 50 -52 40z"/>
<path d="M4754 2083 c-10 -31 -33 -79 -52 -106 -34 -49 -34 -50 -15 -69 11
-10 26 -16 34 -13 15 6 79 109 79 129 0 7 5 17 10 22 29 29 15 94 -19 94 -14
0 -24 -14 -37 -57z"/>
<path d="M3076 1864 c-14 -14 -14 -19 3 -53 27 -52 138 -142 171 -139 38 4 40
51 3 74 -37 24 -57 41 -107 92 -47 47 -49 48 -70 26z"/>
<path d="M4613 1834 c-18 -8 -33 -20 -33 -27 -1 -21 -44 -66 -96 -100 -50 -33
-69 -71 -42 -88 24 -16 56 0 115 60 75 76 103 114 103 139 0 28 -10 31 -47 16z"/>
<path d="M3311 1611 c-20 -13 -17 -62 5 -75 11 -6 36 -16 56 -22 36 -11 37
-11 47 19 11 31 1 57 -23 57 -7 0 -17 5 -24 12 -15 15 -44 19 -61 9z"/>
<path d="M3176 1534 c-14 -26 -26 -50 -26 -55 0 -5 -13 -35 -30 -67 -16 -33
-30 -66 -30 -74 0 -23 24 -50 40 -43 14 5 70 121 70 145 0 5 14 29 30 52 35
48 37 63 11 78 -31 16 -38 13 -65 -36z"/>
<path d="M4259 1573 c-6 -14 -116 -64 -153 -70 -39 -6 -55 -20 -61 -52 -6 -30
23 -42 65 -26 81 30 165 66 187 80 34 23 29 69 -8 73 -15 2 -29 0 -30 -5z"/>
<path d="M3569 1511 c-23 -19 -23 -21 -9 -48 13 -23 26 -30 80 -41 35 -7 65
-14 67 -16 2 -2 -9 -32 -25 -67 -17 -35 -33 -74 -37 -86 -10 -35 3 -63 29 -63
18 0 27 12 50 73 15 39 32 81 37 93 6 12 9 31 7 44 -3 21 1 22 69 25 79 3 118
23 118 60 0 22 -31 36 -55 25 -8 -4 -51 -8 -95 -10 -44 -1 -89 -2 -100 -2 -29
-1 -84 13 -91 23 -8 14 -20 11 -45 -10z"/>
<path d="M3024 1182 c-6 -4 -28 -52 -49 -107 -21 -55 -42 -106 -48 -112 -5 -7
-6 -29 -3 -48 6 -28 11 -34 28 -32 21 4 58 65 58 96 0 22 43 113 62 132 23 23
12 79 -16 79 -11 0 -26 -4 -32 -8z"/>
<path d="M3562 1053 c-6 -2 -10 -9 -7 -14 3 -5 0 -19 -6 -31 -7 -13 -14 -36
-16 -52 -2 -16 -8 -34 -13 -41 -5 -7 -8 -14 -5 -17 3 -3 -1 -11 -10 -18 -20
-17 -19 -37 4 -61 16 -17 23 -19 40 -10 12 7 21 20 21 29 0 23 38 131 55 158
8 12 10 26 5 34 -5 8 -6 18 -4 22 6 9 -43 10 -64 1z"/>
<path d="M2831 703 c-13 -32 -30 -71 -37 -88 -7 -16 -14 -37 -17 -45 -7 -24
12 -50 36 -50 22 0 35 20 52 80 4 14 17 45 29 70 30 64 28 84 -9 88 -28 2 -32
-2 -54 -55z"/>
<path d="M3450 692 c-18 -6 -40 -34 -34 -43 5 -9 -23 -89 -38 -107 -7 -8 -13
-20 -14 -27 -1 -7 -5 -22 -8 -33 -7 -21 15 -52 38 -52 16 0 40 43 60 110 10
30 21 64 26 75 18 42 18 65 2 74 -10 4 -24 6 -32 3z"/>
<path d="M2781 450 c-8 -4 -13 -19 -13 -32 0 -27 60 -116 80 -117 6 -1 12 -5
12 -11 0 -5 6 -10 14 -10 8 0 17 -6 19 -12 4 -10 6 -10 6 0 1 6 7 12 15 12 42
0 27 61 -19 83 -21 10 -37 26 -41 42 -7 29 -53 58 -73 45z"/>
<path d="M3303 363 c-7 -2 -13 -15 -13 -28 0 -27 -26 -51 -51 -47 -9 2 -20 -2
-24 -8 -9 -14 -38 -13 -96 6 -43 14 -53 15 -64 3 -38 -38 24 -88 113 -91 30
-1 55 -6 58 -9 8 -13 104 34 104 50 0 9 9 31 20 49 24 39 25 49 6 68 -15 14
-31 17 -53 7z"/>
</g>
</svg>
