<?xml version="1.0" standalone="no"?>
<!DOCTYPE svg PUBLIC "-//W3C//DTD SVG 20010904//EN"
 "http://www.w3.org/TR/2001/REC-SVG-20010904/DTD/svg10.dtd">
<svg version="1.0" xmlns="http://www.w3.org/2000/svg"
 width="545.000000pt" height="405.000000pt" viewBox="0 0 545.000000 405.000000"
 preserveAspectRatio="xMidYMid meet">
<metadata>
Created by potrace 1.16, written by Peter Selinger 2001-2019
</metadata>
<g transform="translate(0.000000,405.000000) scale(0.100000,-0.100000)"
fill="#000000" stroke="none">
<path d="M5020 3631 c-63 -27 -133 -65 -198 -107 -38 -25 -112 -92 -112 -102
0 -18 -67 -80 -78 -73 -25 15 -103 11 -172 -10 -38 -11 -70 -25 -70 -30 0 -5
-6 -9 -13 -9 -7 0 -27 -16 -46 -35 -18 -19 -38 -35 -44 -35 -32 0 -88 -177
-80 -250 8 -76 89 -184 157 -210 19 -7 22 -14 18 -39 -3 -25 -9 -31 -29 -31
-32 0 -77 -24 -100 -53 -10 -13 -31 -32 -48 -42 -16 -11 -49 -38 -72 -61 -24
-23 -43 -39 -44 -35 -1 3 -8 -23 -18 -59 -24 -96 -4 -250 34 -250 6 0 28 -15
48 -32 28 -26 34 -37 26 -50 -20 -36 20 -66 45 -33 16 21 121 -14 121 -41 0
-11 -8 -20 -20 -22 -56 -7 -139 -39 -151 -57 -15 -23 -13 -53 5 -64 9 -6 6
-10 -11 -14 -42 -11 -103 -82 -132 -154 -24 -60 -27 -77 -21 -136 10 -100 18
-119 74 -177 38 -41 48 -57 39 -67 -18 -22 -27 -15 -73 57 -60 93 -73 96 -159
31 -37 -28 -72 -51 -78 -51 -7 0 -22 -9 -34 -21 -12 -11 -28 -21 -37 -23 -8
-1 -22 -10 -32 -19 -9 -10 -43 -31 -74 -46 -31 -16 -79 -44 -106 -63 -28 -18
-67 -41 -87 -51 -21 -10 -40 -22 -43 -27 -4 -6 -10 -8 -14 -6 -12 8 -51 -32
-51 -50 0 -9 14 -33 30 -54 17 -21 30 -45 30 -54 0 -22 31 -98 47 -114 34 -35
34 -49 -1 -66 -62 -29 -73 -23 -78 41 -7 85 -18 91 -233 125 -44 7 -89 12
-100 12 -53 -3 -110 -2 -217 2 -72 4 -145 1 -190 -7 -71 -12 -95 -13 -168 -7
-30 3 -36 -1 -44 -25 -7 -20 -7 -34 1 -47 10 -15 9 -23 -6 -42 -12 -15 -16
-30 -11 -43 4 -11 4 -32 -1 -48 -9 -34 -9 -30 -9 -71 l0 -34 -53 21 c-28 12
-54 23 -56 24 -2 2 3 11 11 20 28 32 45 77 44 116 0 20 1 37 4 37 13 0 -13
220 -28 229 -5 3 -16 20 -25 36 -34 66 -91 96 -257 137 -44 11 -62 12 -90 2
-24 -8 -39 -9 -47 -2 -17 14 -16 28 1 28 8 0 27 6 43 14 108 52 174 80 185 78
13 -3 29 28 30 60 2 33 0 41 -22 128 -6 25 -12 50 -13 57 -2 7 -6 16 -10 19
-4 4 -7 16 -7 26 0 10 -4 18 -9 18 -7 0 -29 95 -57 241 -8 42 -42 51 -86 23
-20 -13 -49 -26 -65 -30 -15 -3 -63 -18 -105 -32 -43 -14 -81 -23 -84 -19 -4
4 17 32 47 62 45 46 59 69 81 136 34 101 32 207 -4 246 -12 13 -18 23 -14 23
4 0 1 6 -6 14 -7 8 -30 35 -51 60 -39 46 -159 116 -200 116 -18 0 -19 2 -5 18
13 15 21 31 27 54 1 4 7 22 12 40 30 97 -7 247 -74 302 -102 83 -159 107 -262
111 -54 2 -62 -1 -85 -27 -13 -15 -30 -28 -37 -28 -7 0 -13 -4 -13 -10 0 -18
-29 -11 -40 10 -6 11 -15 18 -19 16 -4 -3 -17 1 -27 9 -10 8 -29 15 -42 15
-13 0 -31 4 -41 9 -18 10 -52 16 -191 31 -47 6 -105 13 -130 16 -51 6 -88 7
-245 1 -60 -2 -119 -6 -130 -10 -40 -12 -110 -16 -124 -8 -10 6 -25 4 -43 -5
-16 -8 -39 -14 -51 -12 -20 3 -22 -2 -25 -46 l-3 -48 38 6 c21 3 72 10 113 15
41 5 104 14 140 20 36 6 66 7 67 3 4 -9 84 -5 143 7 25 5 48 7 52 5 7 -5 42
-9 193 -24 132 -13 125 -12 125 -20 0 -3 15 -6 34 -7 19 -1 55 -11 80 -24 44
-22 45 -22 31 -50 -8 -15 -18 -29 -23 -31 -11 -4 -50 -128 -42 -133 4 -2 17
-36 31 -76 24 -71 33 -84 129 -169 56 -49 87 -63 163 -69 15 -2 6 -22 -18 -43
-14 -12 -25 -27 -25 -34 0 -6 -6 -14 -14 -17 -22 -9 -36 -115 -21 -157 8 -19
19 -60 26 -90 12 -55 37 -86 135 -170 43 -38 133 -71 195 -72 69 -1 29 -16
-47 -17 -28 -1 -56 -7 -61 -13 -14 -18 -24 -90 -14 -102 5 -6 24 -56 42 -111
18 -55 36 -102 40 -105 3 -3 9 -21 12 -40 3 -19 11 -62 17 -95 6 -33 9 -73 7
-90 -6 -41 26 -69 68 -59 16 4 40 7 53 8 12 1 22 4 22 9 0 4 9 7 20 7 10 0 30
5 44 11 21 10 30 9 52 -6 l26 -17 -23 -12 c-13 -6 -30 -25 -39 -41 -8 -17 -18
-31 -22 -33 -5 -2 -8 -8 -8 -14 0 -6 -13 -27 -29 -47 -28 -36 -51 -113 -51
-173 0 -55 43 -160 82 -203 21 -22 38 -43 38 -47 0 -5 6 -8 14 -8 7 0 19 -7
26 -14 6 -8 33 -22 58 -32 26 -9 54 -19 62 -22 61 -22 159 -13 216 19 27 15
101 20 124 8 3 -1 10 -3 15 -4 64 -12 87 -20 92 -31 6 -16 -15 -114 -28 -130
-20 -25 60 -56 141 -55 134 2 198 1 218 -3 13 -3 44 2 70 10 25 9 84 18 131
20 416 18 468 25 456 65 -12 36 -6 137 9 172 8 21 17 37 19 37 2 0 31 11 66
24 44 18 63 21 66 13 37 -122 59 -139 133 -100 27 14 76 45 108 69 32 24 62
44 67 44 16 0 197 120 197 132 0 4 5 8 11 8 6 0 25 11 43 25 17 14 36 29 42
34 5 4 28 17 50 27 21 10 41 21 44 24 3 4 17 10 33 14 17 4 28 13 29 26 0 11
1 24 2 30 1 11 -69 112 -101 147 -43 45 -43 53 -6 86 28 24 38 28 52 20 16
-10 44 -18 107 -28 90 -14 272 63 321 136 30 46 36 78 36 209 1 90 -3 112 -22
153 -13 26 -27 47 -32 47 -5 0 -9 6 -9 13 0 29 -133 140 -182 152 -20 5 -28
13 -28 30 0 23 22 32 107 41 55 5 129 60 175 129 29 44 68 161 68 204 0 32
-32 104 -67 149 -39 51 -188 142 -233 142 -11 0 -20 7 -20 16 0 12 7 14 33 9
114 -21 142 -22 201 -6 34 9 66 20 73 26 7 5 19 16 27 23 8 6 20 12 25 12 5 0
13 10 17 23 3 12 15 40 25 63 28 64 29 211 1 285 -15 37 -78 135 -104 158 -19
19 -20 22 -6 43 9 13 25 34 37 47 11 13 21 27 21 30 0 6 24 21 73 43 15 7 27
16 27 21 0 4 5 5 10 2 6 -3 10 -2 10 4 0 5 14 12 30 16 17 4 30 11 30 16 0 5
7 9 15 9 8 0 15 3 15 8 0 4 29 16 65 27 52 15 65 23 65 40 -1 54 -44 63 -130
26z m-345 -375 c24 -13 98 -76 89 -76 -4 0 2 -12 12 -27 25 -37 29 -219 7
-272 -23 -54 -101 -99 -175 -100 -47 -1 -188 43 -221 69 -14 11 -29 20 -34 20
-13 1 -43 46 -58 91 -13 36 -13 48 1 105 9 35 20 64 24 64 4 0 10 8 13 19 5
20 59 51 88 51 9 0 29 14 44 31 14 18 38 33 51 35 14 1 29 5 32 9 9 9 102 -5
127 -19z m-221 -681 c-8 -21 -22 -44 -30 -52 -8 -8 -14 -19 -14 -24 0 -5 -16
-33 -35 -62 -19 -28 -35 -57 -35 -64 0 -7 -5 -13 -10 -13 -6 0 -15 -11 -20
-25 -10 -26 -57 -102 -76 -122 -10 -10 -14 -9 -23 1 -8 9 -8 16 -2 20 15 10
198 286 210 317 5 15 6 31 0 40 -6 10 -2 15 19 20 15 3 28 5 30 4 1 -1 -5 -19
-14 -40z m185 -54 c8 -14 7 -20 -3 -24 -7 -3 -16 -19 -19 -35 -3 -16 -13 -37
-22 -45 -8 -9 -15 -22 -15 -29 0 -8 -4 -18 -10 -24 -11 -11 -60 -143 -60 -161
0 -17 16 -17 30 0 56 66 110 142 130 183 12 27 25 43 27 36 11 -29 -10 -102
-43 -159 -41 -68 -96 -109 -158 -118 -65 -8 -116 -13 -116 -9 0 2 30 50 66
106 37 57 74 116 83 132 9 16 31 50 49 77 17 27 32 58 32 69 0 25 16 26 29 1z
m-336 -23 c-9 -18 -30 -53 -47 -78 -18 -25 -43 -71 -56 -102 -25 -58 -36 -69
-46 -44 -4 11 150 256 161 256 2 0 -4 -15 -12 -32z m207 -9 c-7 -11 -14 -18
-17 -15 -3 3 0 12 7 21 18 21 23 19 10 -6z m-324 -23 c-14 -19 -26 -39 -26
-45 0 -6 -4 -11 -10 -11 -13 0 -13 6 1 33 16 30 40 57 52 57 5 0 -2 -15 -17
-34z m-2562 -38 c41 -22 95 -75 96 -94 0 -6 9 -19 19 -28 12 -11 21 -38 26
-72 10 -84 -24 -171 -93 -235 -98 -91 -193 -89 -300 4 -57 49 -61 57 -84 137
-17 58 -22 95 -17 118 8 36 93 142 114 142 7 0 15 4 17 8 6 14 128 49 156 45
15 -3 45 -14 66 -25z m2827 -43 c-23 -41 -52 -90 -64 -109 -22 -31 -36 -62
-50 -107 -4 -12 -13 -15 -31 -12 -14 3 -26 7 -26 10 0 9 23 48 37 63 7 8 40
53 72 100 82 118 91 130 97 130 3 0 -13 -34 -35 -75z m6 -474 c54 -27 117 -93
146 -151 18 -37 22 -62 22 -140 0 -121 -11 -147 -80 -189 -118 -72 -210 -81
-305 -30 -64 34 -118 82 -131 116 -5 13 -11 51 -15 85 -6 60 -4 66 30 126 20
34 43 62 51 62 8 0 15 5 15 10 0 6 11 15 24 21 30 14 43 69 14 64 -22 -5 -35
14 -17 26 8 5 17 3 21 -4 5 -7 8 -8 8 -1 0 37 148 41 217 5z m-2491 -57 c0 -5
3 -16 6 -24 3 -8 13 -44 22 -80 10 -36 28 -88 41 -116 14 -29 27 -76 31 -105
l6 -54 -91 -42 c-50 -24 -97 -43 -104 -43 -7 0 -17 -4 -22 -9 -11 -11 -217
-73 -222 -67 -2 2 -8 32 -14 67 -9 57 -24 110 -49 174 -29 74 -51 149 -48 168
2 16 10 22 33 23 17 1 49 11 71 22 22 11 62 25 90 31 27 5 87 23 134 39 85 29
114 33 116 16z m144 -684 c8 -5 11 -12 8 -16 -4 -3 -14 1 -23 10 -18 17 -9 21
15 6z m-99 -93 c-11 -34 -23 -82 -26 -107 -12 -84 -46 -210 -56 -210 -14 0
-21 20 -13 38 4 9 8 26 10 37 4 40 52 212 75 272 30 77 38 55 10 -30z m-86 44
c-3 -12 -10 -21 -15 -21 -4 0 -3 11 3 24 14 29 22 27 12 -3z m190 -18 c-9 -52
-53 -250 -65 -295 -13 -46 -8 -130 8 -136 23 -7 1 -22 -33 -22 -31 0 -52 19
-37 34 6 7 8 13 17 66 17 95 101 390 111 390 3 0 2 -17 -1 -37z m86 -36 c-13
-13 -15 11 -4 40 7 16 8 15 11 -6 2 -13 -1 -28 -7 -34z m-402 -68 c-11 -46
-24 -104 -28 -129 -6 -40 -8 -43 -18 -25 -23 43 6 205 37 205 5 0 12 9 15 21
4 11 9 19 11 16 3 -2 -5 -42 -17 -88z m121 83 c0 -4 -4 -12 -9 -17 -9 -9 -48
-182 -57 -249 -13 -108 -36 -118 -30 -13 6 84 8 94 36 167 12 30 26 70 31 88
9 28 29 45 29 24z m280 -41 c0 -5 -4 -21 -9 -34 -5 -13 -12 -60 -16 -103 -3
-43 -11 -97 -16 -119 -6 -22 -11 -53 -12 -69 -3 -46 -22 -41 -25 6 -1 24 -3
48 -4 53 -2 19 66 275 74 275 4 0 8 -4 8 -9z m57 -148 c-3 -10 -5 -4 -5 12 0
17 2 24 5 18 2 -7 2 -21 0 -30z m733 -4 c19 -1 42 2 51 5 9 4 36 2 60 -5 24
-6 68 -13 96 -15 70 -4 88 -15 91 -54 1 -18 6 -40 11 -49 5 -9 10 -32 12 -51
3 -48 -23 -191 -36 -196 -17 -6 -295 -27 -375 -29 -41 0 -93 -6 -115 -12 -22
-6 -107 -11 -188 -11 l-149 0 7 26 c4 15 7 31 8 37 1 5 9 15 17 22 19 15 20
35 1 49 -19 15 -18 121 2 186 13 41 13 48 -1 62 -15 15 -12 16 38 17 30 0 84
6 120 14 57 11 150 12 350 4z m-731 -56 c0 -5 -4 -17 -9 -28 -8 -18 -9 -17 -9
8 -1 15 4 27 9 27 6 0 10 -3 9 -7z m-329 -93 c0 -5 -4 -10 -10 -10 -5 0 -10 5
-10 10 0 6 5 10 10 10 6 0 10 -4 10 -10z m-10 -46 c0 -14 -4 -23 -9 -20 -5 3
-7 15 -4 26 7 28 13 25 13 -6z"/>
</g>
</svg>
