<?xml version="1.0" standalone="no"?>
<!DOCTYPE svg PUBLIC "-//W3C//DTD SVG 20010904//EN"
 "http://www.w3.org/TR/2001/REC-SVG-20010904/DTD/svg10.dtd">
<svg version="1.0" xmlns="http://www.w3.org/2000/svg"
 width="465.000000pt" height="385.000000pt" viewBox="0 0 465.000000 385.000000"
 preserveAspectRatio="xMidYMid meet">
<metadata>
Created by potrace 1.16, written by Peter Selinger 2001-2019
</metadata>
<g transform="translate(0.000000,385.000000) scale(0.100000,-0.100000)"
fill="#000000" stroke="none">
<path d="M2170 3645 c-52 -8 -115 -19 -140 -25 -25 -5 -61 -13 -80 -16 -19 -4
-39 -10 -45 -14 -5 -4 -26 -11 -45 -15 -74 -16 -189 -60 -295 -112 -110 -54
-153 -79 -276 -159 -95 -62 -329 -299 -384 -389 -120 -196 -225 -396 -240
-460 -2 -5 -19 -73 -38 -150 -19 -77 -40 -191 -47 -252 -16 -140 -8 -384 16
-503 2 -14 9 -48 14 -77 5 -28 16 -72 24 -98 9 -25 16 -52 16 -59 0 -7 8 -33
19 -57 10 -24 25 -64 34 -89 40 -108 175 -333 267 -445 76 -92 314 -315 337
-315 5 0 25 -14 45 -30 42 -35 103 -69 238 -135 180 -88 226 -104 440 -149
269 -56 614 -33 900 59 88 28 292 122 298 137 2 4 9 8 16 8 21 0 181 105 259
170 55 46 236 230 263 266 11 16 41 58 65 94 24 36 46 67 49 70 9 7 49 84 104
201 46 97 96 261 116 379 6 36 15 88 20 115 29 153 18 484 -22 660 -23 103
-55 221 -68 250 -5 11 -23 54 -41 95 -43 103 -169 319 -191 328 -5 2 -8 8 -8
14 0 12 -25 45 -98 127 -91 103 -150 157 -250 227 -26 19 -57 42 -70 51 -13
10 -51 35 -85 55 -34 21 -67 42 -74 48 -7 5 -17 10 -23 10 -6 0 -43 16 -83 36
-107 53 -304 117 -392 128 -22 3 -65 10 -95 16 -92 18 -344 21 -450 5z m389
-110 c52 -3 97 -8 101 -10 4 -2 51 -14 106 -26 54 -12 137 -37 184 -56 113
-45 230 -104 230 -114 0 -5 3 -8 8 -7 13 2 45 -15 105 -56 32 -23 73 -50 91
-61 52 -32 77 -55 165 -150 97 -104 203 -236 230 -286 89 -168 121 -234 140
-294 13 -38 29 -83 37 -100 8 -16 17 -46 20 -65 3 -19 10 -46 15 -60 7 -22 24
-137 35 -245 15 -149 -1 -379 -36 -532 -19 -80 -71 -243 -106 -334 -21 -54
-157 -280 -187 -312 -12 -13 -49 -55 -82 -93 -32 -38 -85 -91 -117 -119 -32
-27 -75 -65 -96 -83 -20 -18 -49 -40 -64 -49 -16 -10 -28 -21 -28 -25 0 -4 -6
-8 -14 -8 -8 0 -16 -3 -18 -8 -7 -17 -222 -125 -323 -162 -33 -12 -73 -28 -90
-35 -42 -18 -203 -51 -315 -66 -122 -15 -405 -6 -510 16 -102 21 -278 82 -377
130 -62 30 -115 55 -118 55 -6 0 -178 113 -185 121 -3 4 -27 24 -55 45 -27 21
-55 42 -61 48 -6 6 -31 29 -55 52 -110 103 -170 173 -243 286 -24 37 -46 65
-49 61 -4 -3 -7 3 -7 13 0 11 -16 46 -35 78 -19 32 -35 62 -35 67 0 5 -5 9
-12 9 -6 0 -9 3 -5 6 3 4 -3 29 -14 58 -56 142 -98 298 -116 431 -10 73 -10
313 0 415 8 82 48 259 72 316 8 19 14 38 13 42 -1 4 6 25 16 47 10 22 19 47
21 55 8 37 35 102 53 127 10 15 46 68 78 117 112 169 129 193 144 208 8 9 39
41 68 72 30 31 57 56 60 56 13 0 72 57 72 69 0 6 5 11 11 11 6 0 30 16 53 35
24 19 46 35 50 35 4 0 24 13 44 29 94 74 402 204 511 216 20 2 61 9 91 15 112
24 313 29 529 15z"/>
<path d="M2247 3284 c-1 -1 -31 -4 -67 -7 -90 -8 -217 -32 -294 -56 -66 -20
-256 -106 -266 -120 -3 -4 -21 -13 -40 -21 -101 -40 -314 -226 -418 -366 -28
-38 -56 -74 -61 -80 -20 -25 -90 -164 -120 -239 -78 -201 -111 -381 -104 -570
2 -60 4 -121 4 -135 0 -88 128 -444 196 -548 10 -15 23 -34 28 -43 15 -24 126
-170 155 -203 67 -79 228 -206 355 -281 78 -46 258 -115 340 -131 19 -3 38
-10 41 -15 3 -5 9 -7 14 -4 5 3 19 1 32 -4 33 -12 126 -22 250 -26 329 -10
659 97 903 293 181 146 294 284 388 472 23 47 45 87 48 90 17 14 87 274 110
410 29 172 0 484 -59 650 -22 63 -148 309 -175 343 -93 118 -161 197 -170 197
-6 0 -8 3 -4 6 6 6 -29 38 -93 86 -19 14 -46 35 -60 47 -14 11 -30 25 -36 30
-6 5 -42 26 -80 46 -38 21 -76 43 -84 50 -26 21 -126 65 -149 65 -12 0 -37 6
-56 14 -19 8 -51 17 -72 21 -21 3 -67 10 -103 16 -52 8 -346 19 -353 13z m240
-98 c10 -2 38 -7 63 -10 67 -11 150 -35 150 -45 0 -16 31 -21 53 -10 22 13 19
14 157 -56 137 -68 155 -79 211 -126 50 -42 132 -115 142 -127 7 -7 34 -36 61
-65 27 -28 64 -77 84 -107 19 -30 38 -57 41 -60 12 -9 109 -213 110 -233 0 -4
8 -22 17 -39 21 -41 33 -82 40 -136 3 -24 10 -56 15 -70 24 -63 21 -286 -5
-462 -11 -68 -22 -113 -42 -171 -13 -38 -24 -75 -24 -82 0 -18 -99 -211 -140
-272 -28 -42 -119 -153 -155 -190 -36 -37 -142 -120 -205 -161 -41 -26 -81
-54 -88 -61 -7 -7 -18 -13 -24 -13 -6 0 -54 -20 -107 -44 -146 -66 -336 -106
-511 -106 -115 0 -274 21 -360 47 -30 9 -57 17 -60 18 -68 19 -105 34 -205 84
-66 33 -151 85 -190 115 -38 31 -85 69 -104 84 -19 15 -41 36 -50 46 -9 11
-32 38 -52 60 -65 74 -164 232 -205 326 -8 19 -21 46 -28 60 -22 40 -74 247
-87 345 -15 114 -5 333 21 435 22 93 71 227 107 300 26 51 112 185 144 225 38
47 177 188 195 198 20 12 62 43 128 97 28 23 160 92 211 111 100 37 269 80
370 95 78 11 262 11 322 0z"/>
</g>
</svg>
