<?xml version="1.0" standalone="no"?>
<!DOCTYPE svg PUBLIC "-//W3C//DTD SVG 20010904//EN"
 "http://www.w3.org/TR/2001/REC-SVG-20010904/DTD/svg10.dtd">
<svg version="1.0" xmlns="http://www.w3.org/2000/svg"
 width="491.000000pt" height="385.000000pt" viewBox="0 0 491.000000 385.000000"
 preserveAspectRatio="xMidYMid meet">
<metadata>
Created by potrace 1.16, written by Peter Selinger 2001-2019
</metadata>
<g transform="translate(0.000000,385.000000) scale(0.100000,-0.100000)"
fill="#000000" stroke="none">
<path d="M1496 3659 c-27 -4 -52 -11 -55 -16 -11 -15 -90 -53 -110 -53 -14 0
-21 -7 -21 -19 0 -10 -12 -28 -27 -40 -16 -11 -40 -30 -55 -42 -16 -11 -28
-28 -28 -38 0 -9 -6 -23 -12 -29 -7 -7 -13 -16 -13 -20 -1 -11 -56 -155 -68
-177 -6 -11 -13 -61 -15 -111 -3 -74 0 -105 18 -165 12 -41 27 -89 32 -106 5
-18 14 -35 19 -38 11 -7 49 -89 49 -105 0 -20 25 -38 69 -50 l41 -11 -14 -28
c-8 -15 -42 -56 -76 -90 -33 -35 -60 -65 -60 -67 0 -5 -82 -107 -124 -154 -17
-19 -40 -48 -50 -64 -10 -17 -33 -42 -49 -58 -26 -23 -31 -34 -29 -68 2 -27
-4 -50 -16 -68 -11 -15 -34 -61 -51 -102 -18 -41 -35 -77 -39 -80 -15 -11 -45
-110 -62 -205 -12 -72 -16 -137 -14 -235 5 -167 5 -171 52 -360 25 -101 31
-114 151 -325 26 -44 112 -158 124 -163 10 -5 29 -25 47 -51 8 -11 20 -21 27
-21 7 0 17 -9 23 -20 6 -11 15 -20 21 -20 5 0 19 -9 31 -19 30 -28 173 -115
238 -144 110 -49 147 -59 233 -58 20 1 37 -2 37 -7 0 -13 184 -5 261 13 42 9
87 18 100 19 52 6 233 97 284 142 78 70 91 80 108 87 9 3 17 13 17 20 0 8 18
29 39 48 22 18 48 52 58 74 9 22 27 56 39 75 13 19 30 55 40 80 26 67 31 72
64 55 15 -8 47 -32 70 -55 23 -22 45 -40 48 -40 4 0 27 -19 52 -42 25 -22 86
-73 135 -111 50 -39 100 -80 112 -91 13 -12 38 -33 55 -48 18 -15 65 -57 103
-93 39 -36 82 -73 98 -81 15 -8 27 -21 27 -29 0 -22 36 -27 69 -10 17 8 30 19
28 23 -4 14 95 129 226 262 20 21 37 43 37 49 0 12 67 122 80 131 4 3 10 15
14 27 4 12 25 38 47 56 21 19 39 38 39 43 0 5 14 25 31 44 16 19 42 54 56 77
13 24 29 43 34 43 5 0 9 7 9 15 0 8 5 15 10 15 6 0 10 7 10 15 0 8 4 15 8 15
5 0 19 19 32 43 13 23 32 51 43 62 10 11 39 49 64 85 25 36 51 70 57 75 6 6
20 26 30 45 11 19 22 37 25 40 9 8 71 100 71 105 0 3 9 14 20 25 11 11 20 29
20 40 0 11 5 20 10 20 6 0 10 8 10 18 0 10 11 29 25 42 23 22 25 30 22 88 -5
78 20 50 -267 309 -35 32 -87 79 -115 105 -27 25 -75 67 -105 93 -30 26 -71
63 -90 83 -19 21 -64 62 -100 92 -36 30 -67 58 -70 61 -3 3 -27 20 -53 38 -27
18 -73 56 -102 85 -29 28 -62 58 -72 66 -10 8 -56 51 -103 95 -105 98 -241
221 -295 266 -22 19 -45 39 -51 44 -7 6 -22 18 -35 27 -13 9 -58 42 -99 73
-41 30 -113 74 -160 96 -81 40 -186 72 -201 63 -4 -2 -20 1 -36 7 -65 26 -326
12 -371 -19 -15 -10 -41 -24 -59 -31 -17 -7 -34 -19 -37 -27 -10 -25 -23 -15
-35 29 -30 100 -73 165 -162 244 -26 22 -95 47 -161 58 -21 3 -38 10 -38 15 0
13 -100 43 -150 45 -25 0 -67 -2 -94 -6z m157 -109 c7 -20 17 -28 26 -25 7 3
19 1 25 -4 12 -9 81 -33 106 -36 28 -3 70 -17 70 -24 0 -3 25 -33 55 -66 30
-33 56 -65 56 -72 2 -20 4 -25 23 -68 14 -32 16 -59 13 -130 -6 -109 -5 -107
-58 -224 -35 -77 -76 -118 -161 -158 -90 -44 -125 -53 -210 -53 -124 0 -225
40 -307 121 -41 41 -101 236 -97 314 8 122 84 281 164 341 20 16 42 33 47 39
32 36 131 71 208 74 23 1 31 -5 40 -29z m967 -311 c110 -23 245 -79 305 -128
31 -25 84 -61 90 -61 7 0 52 -38 91 -77 18 -18 35 -33 39 -33 7 0 42 -29 74
-62 9 -9 21 -21 26 -27 17 -17 71 -65 116 -102 24 -21 69 -61 99 -90 31 -30
69 -65 85 -79 43 -36 137 -113 155 -127 65 -50 140 -115 140 -121 0 -4 16 -16
35 -26 19 -11 35 -22 35 -27 0 -9 83 -91 155 -154 134 -115 385 -359 385 -374
0 -5 -4 -13 -10 -16 -5 -3 -10 -14 -10 -24 0 -21 -75 -177 -87 -183 -10 -4
-91 -110 -127 -165 -13 -21 -36 -51 -50 -67 -14 -16 -28 -37 -31 -47 -4 -11
-10 -19 -15 -19 -5 0 -11 -8 -14 -18 -4 -10 -14 -27 -24 -38 -10 -11 -27 -33
-37 -49 -20 -31 -78 -106 -107 -139 -10 -11 -18 -23 -18 -27 0 -14 -60 -98
-83 -116 -12 -10 -43 -46 -68 -79 l-46 -62 -59 55 c-117 107 -259 248 -256
256 1 4 -3 7 -9 7 -16 0 -78 48 -159 126 -41 40 -97 91 -124 115 -26 24 -67
64 -90 87 -22 24 -50 51 -60 60 -11 10 -50 44 -87 77 -131 116 -235 206 -284
246 -45 36 -133 114 -219 195 -18 16 -37 29 -43 27 -5 -2 -20 6 -34 18 -13 11
-41 35 -63 52 -21 18 -44 38 -51 45 -8 6 -18 12 -24 12 -6 0 -27 16 -47 36
-21 19 -60 50 -89 67 -28 18 -60 37 -71 44 -10 7 -43 25 -71 40 -29 15 -53 30
-53 34 0 4 -41 17 -92 29 -75 18 -113 21 -212 17 -122 -4 -246 -24 -246 -39 0
-4 -12 -8 -27 -8 -16 0 -40 -7 -55 -14 -38 -20 -35 -6 7 38 19 21 35 40 35 44
0 7 11 20 79 97 33 38 34 38 50 19 34 -40 123 -73 245 -89 60 -9 233 13 261
31 11 8 28 14 38 14 10 0 42 18 72 40 30 22 59 40 65 40 5 0 10 5 10 10 0 6
10 21 23 34 48 51 73 82 83 106 50 110 67 190 55 256 -9 49 -60 142 -82 149
-11 4 -16 19 -17 50 -2 35 1 43 12 39 13 -5 91 29 106 47 3 3 28 15 55 27 64
27 196 27 325 1z m-505 -329 c8 -38 -2 -101 -25 -155 -19 -44 -80 -115 -99
-115 -6 0 -11 -5 -11 -10 0 -15 -50 -60 -66 -60 -8 0 -14 -4 -14 -10 0 -5 -8
-10 -18 -10 -10 0 -22 -4 -27 -8 -30 -26 -285 -46 -293 -23 -2 5 -9 8 -17 5
-19 -8 -84 25 -96 48 -9 17 -8 19 8 15 17 -5 143 -21 153 -20 3 0 30 3 61 7
64 6 75 10 180 60 88 42 169 119 189 181 7 22 23 56 36 76 13 20 20 40 17 43
-4 3 -1 6 5 6 6 0 13 -14 17 -30z m-403 -690 c31 -6 62 -18 68 -26 7 -7 20
-14 30 -14 10 0 28 -11 41 -25 13 -13 31 -25 40 -25 22 0 141 -74 186 -115 21
-19 42 -35 46 -35 4 0 23 -16 43 -35 19 -19 37 -35 39 -35 16 0 173 -123 261
-205 38 -35 42 -38 112 -89 28 -21 58 -46 65 -56 7 -11 42 -42 78 -69 76 -60
79 -63 100 -87 9 -11 39 -39 65 -64 27 -24 59 -58 72 -74 12 -17 22 -26 22
-21 0 5 21 -12 48 -37 95 -94 202 -194 248 -233 77 -64 354 -341 354 -354 0
-6 5 -11 10 -11 23 0 6 -36 -47 -100 -32 -38 -63 -69 -68 -69 -6 -1 -19 -12
-29 -26 -18 -25 -56 -35 -56 -15 0 6 -7 10 -15 10 -8 0 -15 7 -15 15 0 8 -4
14 -9 13 -9 -3 -94 66 -197 160 -14 12 -28 22 -32 22 -4 0 -32 23 -62 50 -30
27 -60 50 -66 50 -6 0 -40 28 -77 63 -77 71 -166 143 -211 171 -17 10 -33 22
-36 25 -3 4 -20 17 -37 30 -29 20 -36 21 -60 9 -23 -11 -28 -20 -28 -49 -1
-41 -53 -183 -77 -209 -10 -10 -27 -36 -38 -57 -23 -44 -74 -103 -89 -103 -6
0 -11 -6 -11 -13 0 -14 -11 -26 -75 -80 -60 -50 -136 -94 -175 -102 -19 -4
-39 -11 -45 -15 -8 -7 -55 -20 -90 -25 -5 -1 -12 -3 -15 -4 -52 -24 -325 -18
-415 9 -56 17 -224 97 -252 120 -7 6 -16 10 -21 10 -5 0 -49 38 -98 85 -49 46
-92 85 -96 85 -5 0 -8 5 -8 10 0 6 -14 29 -30 52 -17 22 -30 45 -30 50 0 6
-10 24 -22 41 -13 18 -28 41 -34 52 -6 11 -22 40 -36 65 -45 81 -85 250 -99
424 -16 183 -3 291 48 416 57 139 110 235 155 282 13 13 29 34 37 45 13 19 35
32 51 29 3 -1 18 7 33 17 15 9 27 15 27 11 0 -4 6 -2 13 4 6 5 28 13 47 17 19
4 41 11 50 15 33 17 127 33 208 36 46 2 87 5 89 8 3 2 17 0 31 -4 15 -5 53
-14 84 -20z"/>
<path d="M1515 3412 c-55 -18 -185 -139 -168 -156 4 -3 2 -6 -4 -6 -6 0 -13
-21 -17 -47 -3 -27 -8 -60 -11 -74 -7 -39 16 -95 61 -149 57 -69 116 -92 234
-91 141 1 176 23 230 138 18 37 35 75 39 83 4 8 9 47 10 86 2 66 0 74 -31 114
-40 52 -79 75 -133 79 -22 1 -53 8 -69 16 -29 15 -104 18 -141 7z m95 -102 c9
-5 19 -5 27 2 9 7 20 4 39 -11 15 -12 35 -21 44 -21 10 0 28 -8 40 -18 48 -39
26 -164 -41 -228 -28 -27 -36 -29 -112 -29 -101 1 -137 17 -166 78 -12 24 -21
52 -21 63 0 50 87 158 135 167 35 7 40 7 55 -3z"/>
<path d="M2916 2686 c-66 -67 -124 -133 -130 -147 -11 -26 -21 -39 -48 -70
-10 -10 -18 -22 -18 -25 0 -12 -154 -187 -231 -263 -46 -46 -40 -94 14 -114 9
-3 17 -11 17 -17 0 -13 73 -86 102 -101 30 -16 56 -38 130 -111 88 -87 136
-100 157 -46 5 13 20 34 34 46 14 13 31 37 37 53 7 16 18 29 24 29 7 0 20 18
30 41 10 22 24 43 32 46 8 3 14 9 14 13 0 5 44 53 98 107 181 183 262 275 262
294 0 10 -16 36 -35 56 -20 21 -33 44 -30 51 3 7 0 10 -6 7 -9 -6 -39 21 -110
101 -87 98 -109 127 -103 137 4 7 3 9 -1 4 -5 -4 -16 0 -25 8 -9 8 -34 17 -56
19 -39 5 -40 4 -158 -118z m192 -24 c26 -43 69 -92 81 -92 6 0 11 -3 11 -7 1
-5 23 -33 50 -63 28 -30 50 -61 50 -68 0 -7 -20 -33 -45 -59 -25 -25 -45 -47
-45 -49 0 -2 -19 -23 -42 -48 -24 -24 -48 -52 -54 -62 -6 -11 -23 -25 -37 -32
-15 -7 -34 -26 -44 -42 -9 -17 -21 -30 -25 -30 -4 0 -8 -7 -8 -15 0 -8 -4 -15
-9 -15 -5 0 -13 -10 -17 -22 -4 -13 -21 -42 -38 -65 -82 -113 -96 -120 -128
-63 -10 17 -21 29 -25 28 -14 -5 -172 116 -183 140 -9 20 -6 29 20 62 29 37
30 37 77 29 54 -10 184 -3 228 13 54 20 105 82 105 129 0 10 4 21 10 24 14 8
4 151 -12 171 -7 9 -25 28 -39 43 -26 26 -26 27 -9 49 10 12 21 22 24 22 3 0
17 11 32 25 35 32 50 32 72 -3z"/>
</g>
</svg>
