<?xml version="1.0" standalone="no"?>
<!DOCTYPE svg PUBLIC "-//W3C//DTD SVG 20010904//EN"
 "http://www.w3.org/TR/2001/REC-SVG-20010904/DTD/svg10.dtd">
<svg version="1.0" xmlns="http://www.w3.org/2000/svg"
 width="481.000000pt" height="455.000000pt" viewBox="0 0 481.000000 455.000000"
 preserveAspectRatio="xMidYMid meet">
<metadata>
Created by potrace 1.16, written by Peter Selinger 2001-2019
</metadata>
<g transform="translate(0.000000,455.000000) scale(0.100000,-0.100000)"
fill="#000000" stroke="none">
<path d="M2088 4390 c-26 -5 -69 -11 -95 -14 -27 -3 -57 -7 -68 -10 -11 -3
-58 -15 -105 -26 -281 -66 -468 -154 -780 -366 -71 -48 -280 -248 -280 -267 0
-4 -9 -18 -20 -30 -144 -160 -275 -365 -344 -542 -25 -62 -81 -244 -109 -350
-40 -151 -51 -392 -32 -700 8 -127 60 -388 95 -470 4 -11 17 -43 29 -71 58
-144 128 -268 239 -424 34 -49 62 -94 62 -100 0 -6 4 -9 8 -6 4 2 18 -11 31
-30 13 -19 27 -34 32 -34 5 0 9 -4 9 -9 0 -5 29 -37 65 -72 36 -35 68 -72 71
-82 3 -9 9 -15 13 -13 4 3 27 -13 51 -36 25 -22 79 -65 120 -96 41 -31 77 -60
78 -64 2 -5 10 -8 18 -8 8 0 14 -4 14 -9 0 -5 8 -11 18 -14 18 -6 90 -48 132
-76 14 -10 41 -24 60 -31 19 -8 52 -24 72 -37 21 -13 44 -23 51 -23 8 0 36
-11 63 -25 27 -14 58 -25 70 -25 11 0 24 -4 30 -8 28 -24 299 -81 464 -98 97
-10 336 -8 410 4 305 50 461 91 602 161 173 85 306 157 341 184 19 15 38 27
42 27 11 0 126 100 226 197 55 54 103 97 106 95 3 -2 11 6 17 16 6 11 42 64
80 118 72 104 166 252 166 261 0 4 10 20 23 37 21 29 43 71 45 89 1 4 8 20 16
35 17 32 48 119 78 212 11 36 23 69 26 75 3 5 7 16 8 25 1 8 5 26 8 40 60 252
71 627 26 855 -12 61 -23 119 -25 130 -1 11 -5 27 -7 35 -3 8 -13 38 -22 65
-9 28 -16 57 -16 65 0 8 -6 27 -14 41 -7 14 -16 37 -19 52 -4 14 -20 54 -36
89 -16 35 -32 74 -36 87 -4 13 -22 45 -40 70 -18 25 -45 70 -59 99 -15 29 -49
85 -77 123 -27 38 -49 77 -49 87 -1 23 -24 52 -42 52 -9 0 -37 25 -64 56 -57
67 -156 164 -239 232 -57 47 -222 162 -232 162 -3 0 -17 9 -32 19 -43 31 -217
115 -321 156 -88 35 -327 95 -430 110 -72 10 -471 14 -522 5z m390 -118 c-7
-15 -17 -31 -22 -37 -6 -5 -22 -27 -36 -47 -14 -21 -28 -38 -32 -38 -5 0 -8
-5 -8 -12 0 -30 -108 -165 -230 -288 -149 -149 -264 -235 -430 -318 -30 -15
-57 -29 -60 -32 -27 -27 -224 -97 -369 -131 -159 -37 -322 -53 -525 -51 -77 1
-141 4 -143 6 -4 4 16 45 27 56 3 3 37 52 75 110 50 75 107 142 202 237 149
149 189 178 253 187 76 10 92 15 106 33 18 24 17 42 -2 50 -19 7 11 26 166
104 122 60 190 91 190 84 0 -2 24 4 54 15 29 10 89 26 132 35 44 10 84 21 89
26 6 4 20 8 30 8 38 1 130 13 160 21 17 5 110 9 207 8 l177 0 -11 -26z m270
-18 c150 -34 149 -34 136 -67 -4 -12 -12 -13 -35 -7 -16 5 -29 7 -29 4 0 -5
-131 65 -144 77 -13 12 -5 11 72 -7z m-130 -69 c45 -4 218 -95 216 -114 -4
-40 -3 -40 -46 -19 -137 64 -172 79 -203 85 -34 6 -49 28 -35 52 9 18 14 20
26 10 8 -7 27 -13 42 -14z m570 -91 c83 -41 152 -79 152 -84 0 -6 5 -10 11
-10 6 0 30 -14 54 -31 l43 -31 -4 -91 c-6 -119 -10 -150 -27 -222 -27 -107
-34 -130 -46 -153 -6 -12 -9 -22 -6 -22 5 0 -25 -86 -57 -160 -10 -25 -24 -56
-30 -70 -24 -57 -54 -115 -60 -118 -5 -2 -8 -10 -8 -17 0 -18 -51 -115 -72
-139 -10 -11 -18 -26 -18 -33 0 -7 -4 -13 -10 -13 -5 0 -10 -6 -10 -12 0 -37
-257 -334 -353 -408 -31 -25 -67 -53 -80 -63 -12 -10 -43 -35 -69 -55 -56 -45
-238 -153 -288 -172 -32 -12 -75 -30 -180 -77 -19 -9 -41 -17 -50 -18 -8 -1
-22 -4 -30 -8 -47 -19 -328 -74 -420 -82 -190 -15 -263 -14 -292 3 -23 13 -31
14 -37 4 -12 -19 -218 2 -376 39 -126 30 -274 73 -306 89 -8 4 -51 23 -95 41
-43 18 -94 41 -112 51 -18 10 -39 18 -48 18 -13 0 -14 20 -11 143 2 78 7 162
11 187 28 182 60 306 77 303 43 -6 154 -45 161 -55 6 -10 8 -10 8 0 0 7 4 11
9 8 5 -3 65 -15 133 -26 200 -32 499 -30 693 6 93 17 284 67 370 96 71 25 372
172 394 193 29 27 135 111 185 146 28 19 64 50 80 69 17 19 38 41 46 50 8 9
35 40 59 70 25 30 50 60 56 65 6 6 32 39 57 75 26 36 56 74 67 84 12 11 21 26
21 35 0 9 7 25 15 35 8 11 15 28 15 38 0 10 4 18 8 18 7 0 59 90 92 160 47 99
66 148 74 193 9 48 5 49 204 -49z m-650 -22 c20 -10 57 -25 82 -32 35 -11 147
-68 169 -86 2 -2 -2 -11 -10 -20 -8 -10 -13 -19 -11 -21 1 -2 -1 -10 -6 -19
-7 -13 -12 -11 -33 8 -16 15 -34 22 -51 20 -17 -2 -34 4 -47 17 -12 12 -28 21
-38 21 -9 0 -45 16 -80 36 -56 31 -62 37 -53 55 6 10 15 19 21 19 6 0 7 5 4
10 -9 15 12 12 53 -8z m-93 -133 c22 -7 52 -21 67 -31 14 -10 31 -18 37 -18
12 0 62 -29 71 -42 5 -6 58 -30 72 -32 16 -2 20 -17 8 -31 -16 -19 -25 -19
-44 1 -9 8 -16 12 -16 8 0 -3 -7 0 -16 7 -9 7 -28 15 -43 16 -24 3 -53 13 -93
34 -10 5 -22 9 -28 9 -18 0 -110 43 -110 52 0 4 4 8 9 8 5 0 13 9 16 21 4 11
12 19 18 16 7 -2 30 -10 52 -18z m-94 -121 c24 -12 46 -23 49 -23 43 -12 66
-19 70 -24 7 -8 73 -31 91 -31 8 0 28 -11 44 -24 l30 -24 -19 -36 c-16 -29
-23 -35 -40 -30 -12 4 -28 7 -36 7 -8 0 -24 6 -35 13 -11 8 -29 14 -40 14 -11
0 -30 7 -43 15 -12 9 -60 35 -108 59 l-86 42 36 32 c20 18 38 32 39 32 2 0 23
-10 48 -22z m1266 -9 l35 -30 -38 7 c-50 9 -54 11 -54 35 0 27 17 24 57 -12z
m-1406 -119 c8 0 64 -24 124 -54 61 -29 121 -57 135 -61 44 -13 51 -24 35 -54
-21 -42 -40 -54 -55 -36 -7 8 -16 12 -21 10 -4 -3 -34 8 -65 25 -31 16 -62 30
-69 30 -12 0 -154 69 -185 90 -12 8 -8 16 25 44 34 29 42 33 51 20 6 -8 18
-14 25 -14z m1442 5 c32 -8 66 -15 77 -15 10 0 22 -5 25 -10 6 -10 -105 -6
-165 6 -8 1 -21 3 -27 3 -24 2 -14 31 10 31 12 0 49 -7 80 -15z m74 -108 c11
-12 0 -13 -104 -9 -62 2 -103 8 -103 14 0 12 195 6 207 -5z m-1619 -37 c42
-21 100 -49 127 -60 28 -12 78 -35 112 -52 l61 -30 -34 -30 c-26 -23 -37 -28
-48 -19 -7 6 -16 8 -19 4 -4 -3 -13 0 -22 7 -8 7 -15 9 -15 5 0 -3 -15 2 -32
13 -18 11 -64 31 -103 46 -38 14 -90 39 -115 56 -25 16 -54 30 -65 30 -16 1
-13 7 19 35 22 19 43 35 48 35 4 0 43 -18 86 -40z m1727 30 c4 -6 -7 -10 -27
-9 -27 0 -30 2 -13 9 27 12 33 12 40 0z m-68 -6 c-3 -3 -12 -4 -19 -1 -8 3 -5
6 6 6 11 1 17 -2 13 -5z m96 -100 c3 -17 -1 -25 -14 -29 -11 -4 -19 -11 -19
-16 0 -11 -293 -6 -322 6 -20 8 -24 51 -6 57 7 3 90 5 184 5 l172 1 5 -24z
m-1984 -8 c6 -7 26 -16 43 -20 17 -3 52 -19 78 -35 25 -16 75 -39 111 -51 35
-13 69 -29 75 -37 6 -7 19 -13 28 -13 9 0 16 -4 16 -10 0 -5 7 -10 15 -10 23
0 18 -17 -13 -39 -28 -19 -72 -19 -72 0 0 5 -8 9 -19 9 -19 0 -81 31 -172 86
-31 19 -75 41 -98 49 -23 8 -51 21 -62 28 -19 14 -19 15 13 36 39 25 42 25 57
7z m-116 -106 c35 -16 69 -30 76 -30 22 0 130 -66 144 -87 4 -7 12 -13 17 -13
5 0 34 -11 65 -25 51 -24 65 -45 29 -45 -8 0 -14 -3 -14 -7 0 -5 -11 -13 -25
-20 -14 -6 -25 -7 -25 -2 0 5 -4 9 -10 9 -5 0 -65 27 -132 60 -68 33 -129 60
-135 60 -7 0 -13 4 -13 8 0 4 -31 23 -69 42 -39 19 -70 37 -70 40 -1 5 72 36
91 39 5 0 37 -12 71 -29z m2053 -22 c10 -11 -83 -21 -200 -21 -111 -1 -166 6
-166 22 0 9 356 8 366 -1z m221 -59 c8 -21 19 -39 24 -39 5 0 9 -15 9 -34 0
-19 4 -37 8 -40 22 -13 20 -303 -2 -441 -3 -16 -8 -56 -11 -88 -3 -33 -11 -71
-17 -85 -6 -15 -12 -31 -13 -37 -6 -44 -20 -92 -29 -104 -6 -8 -10 -17 -9 -20
6 -16 -65 -238 -79 -247 -4 -3 -8 -12 -8 -19 0 -18 -68 -162 -116 -247 -20
-35 -45 -78 -55 -96 -11 -18 -24 -39 -29 -45 -32 -40 -112 -151 -122 -172 -18
-33 -78 -101 -179 -203 -131 -131 -164 -161 -212 -196 -25 -17 -79 -57 -120
-88 -100 -76 -363 -200 -482 -229 -27 -7 -54 -15 -60 -20 -5 -4 -23 -10 -40
-13 -16 -3 -57 -12 -90 -21 -174 -44 -593 -67 -746 -41 -41 7 -85 12 -99 11
-14 -1 -29 0 -35 3 -5 4 -16 7 -25 8 -8 1 -26 5 -40 9 -14 3 -61 13 -105 21
-44 9 -84 19 -90 23 -5 5 -55 23 -110 41 -55 18 -104 36 -110 40 -23 18 -147
61 -160 56 -8 -3 -18 1 -22 9 -5 7 -22 28 -38 47 -26 28 -49 57 -97 123 -4 5
-24 31 -43 58 -19 26 -35 52 -35 57 0 6 -4 10 -8 10 -4 0 -18 19 -29 42 -12
24 -32 58 -43 76 -18 26 -19 32 -7 32 9 0 23 -8 33 -17 10 -10 19 -17 21 -16
1 1 23 -6 49 -17 25 -11 57 -23 70 -26 13 -3 24 -9 24 -13 0 -4 42 -19 93 -35
50 -16 99 -31 107 -34 8 -3 19 -4 23 -3 4 0 17 -4 28 -10 11 -6 28 -12 37 -14
9 -1 35 -8 57 -14 44 -11 277 -50 340 -56 42 -4 313 -17 330 -15 6 0 38 2 73
5 35 2 89 9 120 14 31 6 73 13 92 16 19 3 55 10 80 15 25 5 56 12 70 14 62 12
200 56 224 71 14 10 32 15 40 12 7 -3 23 1 35 9 12 8 26 12 31 9 6 -3 10 -1
10 4 0 6 5 11 11 11 5 0 47 18 93 40 45 22 87 40 93 40 6 0 13 3 15 8 3 7 183
112 193 112 3 0 13 7 22 15 10 8 70 55 133 105 63 50 155 128 204 173 48 45
92 84 97 85 5 2 9 9 9 15 0 7 15 28 33 47 18 19 44 51 57 70 13 19 31 43 40
52 8 9 30 43 49 75 19 32 42 67 52 78 21 25 107 190 144 275 15 36 33 79 41
95 7 17 16 44 20 60 4 17 12 36 17 43 6 8 13 24 14 35 2 12 14 58 28 102 13
44 27 98 30 120 4 22 11 54 15 70 16 52 31 158 39 268 2 27 20 11 38 -34z
m-2533 26 c3 -8 12 -15 20 -15 7 0 27 -7 42 -15 16 -8 37 -15 47 -15 9 0 43
-17 75 -38 31 -21 77 -47 102 -57 25 -10 57 -27 72 -37 14 -10 30 -18 35 -18
12 0 48 -38 42 -44 -2 -2 -27 -13 -54 -24 l-51 -20 -29 21 c-17 12 -32 24 -35
28 -3 3 -18 9 -34 13 -16 4 -48 20 -70 35 -23 15 -72 45 -111 66 -38 22 -72
42 -75 46 -3 3 -14 9 -25 13 -11 3 -31 15 -44 25 l-24 18 44 16 c57 20 66 20
73 2z m-147 -89 c11 -4 27 -13 33 -21 7 -8 21 -15 30 -15 10 0 20 -3 22 -7 2
-5 28 -21 58 -37 30 -16 91 -53 135 -83 44 -29 86 -53 93 -53 28 0 -1 -20 -50
-35 l-52 -15 -60 39 c-34 22 -74 45 -91 52 -16 8 -44 24 -61 36 -17 13 -34 23
-39 23 -6 0 -81 55 -95 70 -3 3 -24 18 -47 33 -24 15 -43 31 -43 36 0 4 19 12
43 18 36 8 46 6 72 -13 17 -12 40 -25 52 -28z m2270 24 c70 0 154 2 186 5 l57
4 0 -29 c0 -45 -9 -61 -29 -51 -19 10 -10 10 -243 13 -179 3 -205 8 -192 41 6
18 37 27 71 21 12 -2 80 -4 150 -4z m-2992 -36 c27 -15 55 -33 63 -40 7 -8 17
-14 22 -14 10 0 209 -138 225 -156 6 -6 26 -21 45 -34 45 -29 81 -66 73 -74
-13 -13 -73 -6 -73 8 0 8 -13 17 -28 21 -15 3 -41 17 -57 31 -17 14 -46 34
-66 44 -19 10 -54 34 -77 52 -23 18 -80 62 -126 98 -62 48 -81 68 -74 78 14
16 16 16 73 -14z m482 -10 c23 -19 44 -34 48 -34 3 0 26 -15 49 -32 76 -57
202 -139 259 -169 20 -11 37 -23 37 -27 0 -12 -104 -32 -108 -21 -2 5 -8 7
-13 3 -5 -3 -12 2 -15 10 -3 9 -14 16 -23 16 -10 0 -36 16 -58 35 -23 19 -44
35 -47 35 -7 0 -148 103 -167 123 -8 8 -25 19 -38 26 -12 7 -34 22 -48 34
l-25 22 28 5 c63 11 80 8 121 -26z m-266 2 c1 -6 1 -16 0 -22 -1 -6 11 -9 26
-7 22 3 46 -9 103 -52 41 -30 89 -67 105 -81 17 -14 46 -34 65 -44 19 -10 47
-29 62 -43 15 -14 37 -32 50 -41 12 -9 18 -16 13 -17 -55 -6 -67 -4 -72 8 -3
7 -24 21 -47 32 -22 10 -55 31 -73 47 -17 16 -64 52 -103 79 -40 28 -78 55
-84 60 -6 6 -37 28 -70 50 -53 36 -56 40 -35 46 30 7 59 0 60 -15z m-303 -83
c15 -10 29 -20 32 -23 3 -3 21 -17 40 -30 42 -29 56 -40 80 -62 10 -9 27 -19
38 -22 11 -4 23 -13 25 -21 3 -7 22 -21 41 -30 20 -10 36 -21 36 -26 0 -9 -10
-8 -72 6 -13 3 -34 20 -47 38 -14 18 -43 42 -65 52 -23 11 -61 36 -85 57 -24
21 -48 38 -52 38 -5 0 -9 9 -9 20 0 24 3 25 38 3z m3029 -7 c138 -2 209 -7
236 -16 41 -15 50 -39 15 -41 -41 -3 -56 -2 -167 10 -60 7 -153 12 -207 11
-127 -3 -125 -3 -117 18 8 20 24 33 35 26 4 -3 97 -6 205 -8z m-3087 -97 c0
-5 5 -7 10 -4 6 4 26 -7 44 -23 33 -28 33 -30 10 -28 -13 0 -24 4 -24 7 0 3
-13 6 -30 6 -37 0 -44 6 -35 32 7 22 25 29 25 10z m2915 -21 c39 -1 93 1 120
6 32 4 84 2 145 -8 53 -9 108 -17 123 -18 28 -2 35 -20 18 -47 -10 -15 -107
-12 -276 9 -44 5 -122 13 -172 16 -51 4 -93 9 -93 12 0 15 35 42 49 37 9 -2
48 -5 86 -7z m-161 -107 c3 -4 65 -11 138 -14 176 -8 257 -16 292 -27 16 -6
46 -10 67 -10 35 0 39 -3 39 -25 0 -29 -7 -30 -46 -11 -28 15 -49 12 -39 -5
15 -23 -120 -7 -340 41 -55 12 -112 22 -127 22 -25 -1 -26 1 -15 19 13 21 23
24 31 10z m984 -77 c12 -22 4 -51 -15 -59 -22 -8 -23 -4 -16 38 6 40 17 47 31
21z m-1044 -34 c14 -5 26 -6 26 -1 0 5 19 7 43 4 35 -4 218 -38 252 -47 38
-10 91 -17 158 -20 42 -2 78 -6 79 -8 0 -1 -2 -13 -6 -25 -9 -27 -31 -30 -45
-5 -6 10 -11 12 -11 4 0 -7 -4 -11 -9 -8 -4 3 -28 8 -52 11 -24 3 -84 14 -134
25 -49 10 -133 26 -185 34 -52 9 -102 18 -110 20 -8 2 -21 5 -27 5 -7 1 -13 6
-13 11 0 12 2 12 34 0z m-28 -84 c22 -8 67 -17 100 -21 32 -4 73 -9 89 -12 17
-2 41 -6 55 -8 66 -7 194 -38 257 -62 l42 -15 -16 -34 c-20 -40 -40 -50 -48
-23 -4 10 -12 19 -18 20 -77 6 -103 11 -149 28 -29 10 -82 26 -118 35 -254 60
-281 70 -265 96 8 13 22 12 71 -4z m1055 -21 c19 -6 27 -25 10 -25 -26 0 -41
14 -40 39 1 16 3 19 6 9 2 -9 13 -20 24 -23z m-966 -120 c128 -26 286 -75 311
-96 7 -6 18 -8 23 -5 5 4 13 2 16 -4 5 -8 11 -7 21 1 18 15 18 5 -2 -33 -9
-17 -19 -27 -23 -21 -3 5 -21 15 -38 22 -18 8 -33 18 -33 23 0 6 -13 8 -29 5
-18 -4 -53 2 -88 14 -60 21 -118 35 -179 45 -20 3 -72 21 -116 40 -44 19 -86
34 -94 34 -16 0 -16 2 -9 22 5 12 14 12 58 -3 29 -9 110 -29 182 -44z m978 -7
c5 -17 2 -19 -16 -14 -12 3 -28 6 -34 6 -7 0 -13 8 -13 18 0 27 56 18 63 -10z
m-1093 -83 c25 -9 77 -23 115 -31 74 -15 193 -52 210 -64 6 -4 22 -10 38 -14
15 -3 27 -10 27 -15 0 -5 9 -7 20 -4 24 6 25 3 4 -41 -13 -26 -21 -32 -33 -26
-21 11 -53 22 -71 25 -8 1 -68 19 -134 39 -65 20 -125 36 -132 36 -8 0 -33 9
-57 19 -23 11 -78 32 -122 47 -104 35 -111 40 -84 68 l21 22 77 -22 c42 -12
96 -30 121 -39z m520 15 c0 -5 -5 -10 -11 -10 -5 0 -7 5 -4 10 3 6 8 10 11 10
2 0 4 -4 4 -10z m559 -32 c-1 -18 -14 -50 -19 -48 -3 1 -18 -2 -33 -5 -35 -9
-41 -4 -32 34 6 28 10 31 46 31 25 0 39 -5 38 -12z m-1319 -57 c25 -7 53 -13
63 -16 38 -9 64 -18 127 -45 36 -16 82 -31 102 -34 20 -3 54 -12 75 -20 21 -7
57 -19 81 -25 23 -7 42 -16 42 -21 0 -6 6 -10 13 -10 7 0 29 -8 50 -19 l37
-19 -25 -26 c-22 -24 -25 -25 -52 -11 -15 8 -35 15 -43 15 -8 0 -42 13 -75 28
-33 16 -91 39 -130 53 -38 13 -72 26 -75 30 -3 3 -39 18 -81 32 -118 40 -209
78 -209 87 0 20 23 20 100 1z m-104 -82 c24 -6 44 -15 44 -20 0 -5 8 -9 18 -9
10 0 22 -4 28 -8 5 -5 29 -14 54 -21 53 -14 81 -25 210 -79 52 -22 113 -46
135 -53 22 -8 42 -16 45 -19 3 -3 18 -11 33 -18 l28 -12 -28 -35 c-15 -19 -31
-35 -35 -35 -11 0 -183 73 -192 81 -6 5 -16 9 -23 9 -7 0 -32 8 -56 19 -160
70 -205 89 -227 96 -14 4 -53 20 -86 36 -34 16 -67 29 -73 29 -18 0 -12 17 12
33 27 19 54 21 113 6z m1376 -35 c-13 -39 -18 -44 -43 -44 -33 0 -44 18 -35
54 6 24 22 31 72 33 20 0 20 -1 6 -43z m125 -106 c-4 -73 -9 -146 -12 -163
-30 -164 -30 -167 -75 -308 -39 -123 -152 -371 -212 -462 -24 -38 -74 -105
-109 -149 -35 -43 -73 -89 -84 -103 -79 -100 -209 -213 -370 -320 -255 -171
-506 -268 -813 -313 -185 -27 -379 -27 -555 0 -41 6 -85 12 -98 14 -45 4 -184
38 -193 47 -5 5 15 5 45 1 115 -15 398 -5 551 19 62 10 131 20 153 24 22 3 54
10 70 14 35 9 211 78 239 93 10 5 35 16 55 23 52 18 214 98 230 113 7 7 34 23
60 35 45 21 216 144 299 215 24 20 80 73 125 117 45 44 92 87 103 95 12 8 33
33 48 55 15 22 30 42 34 45 4 3 26 28 47 55 22 28 43 52 46 55 3 3 9 12 13 20
8 18 15 30 89 147 31 51 57 95 57 98 0 2 20 41 45 86 24 44 54 108 67 142 12
34 28 71 35 82 7 11 13 33 13 50 0 17 4 35 9 40 11 14 41 109 41 134 0 11 4
22 9 25 5 4 15 29 22 56 7 28 15 50 17 50 3 0 2 -60 -1 -132z m-1486 -28 c45
-17 93 -37 108 -44 31 -17 80 -38 141 -62 25 -9 49 -21 54 -26 6 -4 18 -8 28
-8 10 0 18 -3 18 -8 0 -4 23 -17 50 -30 52 -24 61 -40 35 -62 -12 -10 -24 -8
-64 9 -65 27 -105 44 -111 46 -24 5 -177 70 -222 93 -31 16 -69 33 -85 37 -38
11 -32 9 -86 33 -27 12 -52 22 -56 22 -4 0 -21 6 -37 13 -16 8 -40 18 -53 24
l-24 9 34 21 34 20 78 -29 c42 -15 114 -42 158 -58z m-2426 0 c4 -11 11 -18
16 -14 12 7 114 -73 194 -151 11 -11 50 -45 87 -74 37 -30 65 -58 61 -64 -3
-6 -1 -7 5 -3 6 4 20 -1 30 -11 11 -10 30 -27 43 -37 42 -34 251 -225 329
-301 92 -90 142 -137 181 -170 36 -30 27 -31 -71 -10 -47 10 -71 21 -87 40
-13 14 -23 24 -23 21 0 -3 -8 2 -18 12 -17 16 -49 42 -137 112 -53 42 -204
180 -224 205 -21 25 -89 93 -127 125 -46 40 -209 220 -212 236 -2 8 -7 14 -10
14 -17 1 -49 38 -56 63 -7 31 9 37 19 7z m3743 0 c-9 -14 -24 -20 -50 -20 -41
0 -41 0 -32 24 4 11 19 16 50 16 42 0 43 -1 32 -20z m-1698 -13 c0 -7 14 -13
38 -13 39 -2 278 -92 373 -140 30 -16 61 -30 69 -32 8 -1 40 -13 70 -26 72
-31 94 -39 102 -40 4 -1 13 -7 20 -13 6 -7 17 -13 24 -13 6 0 17 -6 23 -14 9
-11 4 -20 -24 -45 -35 -30 -43 -31 -73 -8 -7 6 -24 12 -38 13 -13 2 -51 21
-84 42 -33 22 -81 48 -107 58 -27 10 -77 33 -112 51 -36 19 -103 50 -150 69
-84 35 -191 91 -191 100 0 5 39 22 53 23 4 1 7 -5 7 -12z m-87 -84 c20 -13 99
-48 175 -79 75 -30 144 -61 152 -68 8 -7 53 -30 100 -51 73 -34 164 -87 180
-106 3 -3 18 -9 33 -13 32 -8 31 -26 -1 -42 -12 -6 -31 -19 -41 -28 -18 -17
-20 -17 -40 3 -12 12 -27 21 -35 21 -7 0 -24 10 -38 23 -13 12 -96 58 -184
102 -87 44 -164 85 -171 90 -6 6 -64 43 -127 84 -98 64 -113 76 -99 86 20 15
47 9 96 -22z m-1604 -27 c7 -1 26 -17 41 -34 15 -18 33 -32 39 -32 7 0 37 -25
68 -55 31 -30 60 -55 65 -55 4 0 8 -4 8 -9 0 -5 15 -19 34 -30 18 -12 74 -57
122 -101 49 -44 94 -80 99 -80 6 0 32 -23 59 -51 27 -27 61 -56 75 -64 14 -7
45 -34 69 -59 23 -25 52 -48 62 -51 11 -4 20 -10 20 -14 0 -5 24 -32 53 -60
l52 -52 -65 4 c-35 3 -66 10 -68 16 -2 6 -8 11 -13 11 -5 0 -28 17 -51 38
-120 108 -160 146 -257 238 -58 56 -133 125 -166 155 -33 29 -65 58 -71 63
-12 12 -73 64 -184 156 -41 34 -85 73 -98 85 l-22 22 57 -19 c32 -11 64 -21
72 -22z m3361 19 c-1 -27 -18 -37 -51 -29 -19 4 -37 8 -41 8 -5 1 -8 6 -8 11
-1 6 14 13 32 16 47 8 68 6 68 -6z m-1932 -35 c12 -11 24 -20 27 -20 9 0 70
-30 100 -50 17 -11 37 -23 45 -27 8 -3 40 -23 70 -43 30 -20 88 -53 129 -74
41 -21 88 -47 105 -57 17 -11 39 -22 49 -25 9 -4 17 -12 17 -19 0 -7 8 -11 18
-9 9 2 31 -7 47 -20 17 -14 41 -33 54 -44 l24 -19 -47 -26 c-37 -21 -46 -23
-46 -10 0 9 -8 22 -17 30 -31 24 -117 79 -136 86 -10 4 -61 35 -115 70 -53 35
-122 76 -152 93 -30 16 -57 32 -58 37 -2 4 -18 14 -35 21 -18 7 -45 25 -60 40
-15 14 -30 26 -33 26 -11 0 -52 48 -47 54 12 12 40 6 61 -14z m-1649 -145 c14
-16 48 -50 76 -75 27 -25 70 -67 95 -94 25 -27 63 -65 84 -85 22 -20 69 -65
105 -99 36 -35 87 -80 114 -99 26 -19 47 -37 47 -39 0 -6 -30 0 -93 20 -52 17
-58 22 -69 57 -6 22 -17 39 -25 39 -15 0 -64 29 -75 45 -4 5 -8 6 -8 2 0 -9
-129 99 -142 118 -13 21 -54 61 -88 86 -57 43 -130 120 -135 143 -2 12 -6 40
-10 64 l-5 43 52 -48 c28 -27 63 -61 77 -78z m1491 110 c0 -8 12 -18 28 -21
15 -4 43 -20 62 -36 19 -15 37 -28 41 -28 3 0 36 -19 72 -42 36 -24 97 -61
136 -83 39 -22 71 -43 71 -47 0 -5 5 -8 10 -8 10 0 110 -66 120 -80 3 -3 20
-12 38 -19 18 -8 36 -19 40 -25 12 -19 76 -54 92 -50 8 2 -12 -9 -45 -26 -75
-38 -95 -38 -120 0 -11 16 -26 30 -33 30 -7 0 -19 6 -26 13 -7 6 -25 21 -41
32 -15 11 -35 28 -44 38 -8 9 -21 17 -27 17 -7 0 -14 4 -16 8 -1 4 -23 20 -48
34 -25 14 -74 49 -109 78 -35 28 -91 70 -125 92 -33 23 -66 47 -72 52 -6 6
-25 22 -42 36 -28 22 -46 50 -24 36 4 -2 14 -1 22 5 22 13 40 11 40 -6z m-940
-40 c19 -10 37 -21 40 -25 3 -4 25 -19 50 -33 25 -15 79 -59 120 -98 41 -40
91 -84 110 -98 84 -61 281 -260 273 -275 -3 -6 -3 -8 1 -4 5 4 13 3 20 -3 6
-5 29 -23 51 -39 56 -41 75 -61 69 -71 -7 -13 -62 -11 -86 2 -22 12 -31 19
-109 91 -53 49 -77 69 -179 153 -40 33 -94 80 -120 105 -26 25 -69 60 -96 79
-27 19 -69 53 -94 76 -25 23 -63 54 -85 70 -38 27 -115 100 -115 108 0 9 117
-21 150 -38z m830 -34 c152 -100 255 -175 329 -239 43 -37 50 -42 60 -42 5 0
11 -3 13 -7 2 -5 23 -21 48 -38 25 -16 69 -54 99 -84 49 -51 52 -56 35 -68
-10 -7 -23 -13 -30 -13 -7 0 -19 -3 -28 -6 -10 -4 -16 -1 -16 9 0 8 -19 25
-42 36 -47 23 -255 181 -363 276 -13 11 -47 40 -75 65 -29 25 -58 51 -64 59
-6 8 -26 29 -43 47 -70 70 -27 73 77 5z m2119 43 c23 -5 31 -12 31 -28 0 -19
-6 -21 -48 -20 -73 1 -72 1 -59 29 13 26 24 29 76 19z m-2274 -86 c4 -10 15
-18 26 -18 20 0 26 -15 9 -25 -6 -4 -40 19 -76 51 -45 39 -62 59 -53 65 15 9
86 -45 94 -73z m-395 42 c4 -17 15 -26 35 -31 20 -4 71 -46 150 -123 65 -64
131 -123 145 -129 14 -7 24 -20 24 -29 -1 -11 4 -15 15 -11 9 4 13 3 9 -2 -9
-10 16 -35 36 -35 9 0 16 -4 16 -9 0 -4 19 -21 43 -36 42 -28 202 -184 195
-190 -2 -2 -22 -5 -44 -6 -27 -2 -47 3 -63 17 -53 44 -68 57 -98 85 -18 16
-35 28 -38 27 -2 -2 -22 12 -44 31 -31 27 -38 38 -29 48 8 10 7 12 -3 8 -13
-5 -45 20 -129 98 -52 49 -119 107 -170 147 -24 19 -71 62 -104 96 -34 33 -68
63 -76 66 -8 4 16 5 55 4 65 -1 70 -3 75 -26z m214 -7 c20 -15 36 -31 36 -35
0 -5 6 -8 14 -8 8 0 16 -7 20 -15 3 -8 11 -15 19 -15 7 0 53 -39 103 -87 49
-48 92 -88 95 -88 5 0 59 -45 135 -113 42 -38 132 -102 143 -102 5 0 20 -15
32 -32 13 -18 28 -36 34 -41 15 -11 -24 -37 -57 -37 -21 0 -28 5 -28 19 0 11
-9 21 -23 25 -12 3 -57 41 -100 85 -42 44 -86 82 -97 86 -11 3 -20 10 -20 15
0 5 -9 12 -20 15 -11 3 -20 15 -20 26 0 11 -7 19 -17 19 -10 0 -37 18 -61 40
-24 22 -46 40 -49 40 -26 0 -249 220 -233 230 21 13 58 2 94 -27z m2435 -89
c1 -1 0 -7 -3 -13 -4 -6 -16 -6 -37 1 -16 5 -43 8 -58 6 -21 -3 -28 -1 -24 9
4 10 20 11 62 7 31 -4 58 -8 60 -10z m-2189 -10 c0 -8 4 -13 10 -9 5 3 26 -9
47 -27 21 -18 63 -53 93 -78 74 -61 95 -78 150 -125 26 -22 59 -49 74 -59 25
-18 49 -37 83 -66 7 -5 16 -10 21 -10 5 0 19 -11 32 -25 19 -20 20 -25 8 -25
-9 0 -22 -2 -30 -5 -7 -3 -23 10 -37 30 -13 20 -26 33 -29 30 -3 -2 -22 13
-42 35 -21 22 -42 40 -47 40 -23 0 -132 87 -265 213 -16 15 -31 27 -33 27 -5
0 -65 61 -65 66 0 2 7 4 15 4 8 0 15 -7 15 -16z m2131 -122 c-9 -18 -21 -21
-72 -21 -43 1 -62 5 -66 15 -8 21 -5 22 67 32 72 9 87 4 71 -26z m-3418 -7
c26 -16 47 -34 47 -40 0 -5 20 -29 44 -52 50 -48 42 -55 -23 -18 -23 14 -51
25 -61 25 -12 0 -27 19 -44 55 -37 79 -39 77 37 30z m3343 -98 c2 -2 -2 -15
-9 -30 -12 -28 -31 -35 -42 -17 -4 6 -12 10 -18 8 -7 -1 -29 1 -50 5 -34 7
-36 10 -26 29 10 19 17 20 76 15 36 -4 67 -8 69 -10z m-156 -107 c11 -7 2 -10
-33 -10 -30 0 -46 4 -42 10 8 13 55 13 75 0z m71 -25 c-1 -15 -24 -12 -29 3
-3 9 2 13 12 10 10 -1 17 -7 17 -13z m-187 -54 c3 -4 28 -9 56 -10 28 0 58 -5
66 -9 14 -8 14 -11 -2 -26 -13 -14 -19 -15 -25 -4 -5 7 -9 9 -9 4 0 -5 -6 -4
-12 2 -7 5 -23 8 -35 6 -13 -2 -23 0 -23 5 0 5 -9 13 -20 16 -11 3 -20 11 -20
16 0 11 17 12 24 0z m-44 -88 c25 -13 25 -13 -12 -13 -45 0 -74 10 -58 20 17
10 41 8 70 -7z m70 -29 c0 -2 -9 0 -20 6 -11 6 -20 13 -20 16 0 2 9 0 20 -6
11 -6 20 -13 20 -16z m-195 -44 c-4 -6 6 -10 22 -11 52 -2 106 -8 121 -14 13
-5 12 -8 -3 -25 -23 -25 -27 -25 -99 4 -33 13 -66 22 -75 18 -13 -4 -12 -1 3
16 19 22 43 31 31 12z m-55 -107 c14 -3 34 -5 45 -5 11 1 27 -7 37 -17 16 -18
16 -20 -15 -35 -26 -12 -33 -13 -35 -2 -2 7 -33 22 -70 34 -62 19 -65 21 -42
30 14 6 32 8 40 5 8 -2 26 -7 40 -10z m-124 -92 c70 5 120 -25 94 -57 -20 -23
-106 1 -145 41 -5 5 -12 19 -14 30 -3 19 -2 19 17 2 10 -10 32 -17 48 -16z
m-146 -56 c7 -8 18 -15 25 -15 6 0 22 -9 35 -20 13 -11 34 -23 47 -26 13 -4
23 -10 23 -15 0 -13 -6 -12 -108 23 -92 33 -93 33 -71 50 26 22 33 22 49 3z
m-146 -82 c8 3 40 -5 71 -18 31 -14 64 -25 75 -25 22 0 35 -16 20 -25 -12 -8
-70 13 -70 25 0 4 -11 5 -24 3 -31 -6 -120 33 -110 48 5 8 9 8 14 -1 4 -7 15
-10 24 -7z m-76 -72 c27 -16 63 -32 80 -36 41 -9 49 -23 19 -30 -33 -9 -153
48 -160 75 -7 27 3 25 61 -9z m-167 -27 c7 -9 22 -20 34 -26 49 -23 89 -47 78
-48 -13 0 -65 21 -73 31 -3 3 -20 14 -37 24 -18 11 -33 23 -33 27 0 13 17 9
31 -8z m-1467 -19 c20 -8 36 -19 36 -25 0 -5 17 -25 37 -45 51 -50 13 -34 -64
28 -80 62 -82 72 -9 42z m1343 -19 c9 -15 51 -39 73 -41 8 -1 35 -14 59 -29
38 -24 42 -30 28 -38 -12 -6 -22 -5 -32 5 -8 8 -53 34 -101 57 -60 30 -82 45
-72 51 19 13 36 11 45 -5z m-1129 -32 c12 -4 22 -10 22 -15 0 -13 35 -46 57
-53 10 -3 31 -18 47 -32 16 -15 52 -40 80 -56 68 -38 17 -26 -61 14 -48 25
-83 51 -187 140 -12 9 9 10 42 2z m967 -4 c3 -5 13 -10 21 -10 21 0 185 -96
177 -103 -12 -13 -38 -7 -98 23 -70 36 -149 100 -123 100 9 0 20 -4 23 -10z
m-115 -43 c0 -6 3 -7 6 -4 6 6 46 -18 84 -51 8 -7 29 -24 45 -37 22 -18 25
-24 13 -25 -9 0 -23 -2 -30 -5 -9 -4 -19 4 -26 20 -7 14 -17 23 -22 20 -11 -7
-100 53 -100 67 0 5 -4 6 -10 3 -5 -3 -10 -2 -10 3 0 5 -10 13 -22 17 l-23 7
25 7 c27 8 70 -6 70 -22z m-626 -13 c10 -14 25 -24 35 -22 10 2 25 -3 35 -11
17 -14 75 -48 134 -78 45 -23 41 -37 -9 -29 -27 4 -51 17 -68 35 -14 15 -43
36 -63 45 -20 9 -43 22 -50 29 -8 6 -22 17 -33 23 -24 13 -31 34 -12 34 8 0
22 -11 31 -26z m262 -2 c11 -9 41 -28 67 -42 26 -13 47 -28 47 -32 0 -5 5 -8
11 -8 5 0 24 -13 42 -30 l32 -30 -32 0 c-18 0 -33 5 -33 10 0 6 -7 10 -16 10
-9 0 -45 18 -80 40 -35 22 -68 40 -74 40 -5 0 -10 5 -10 11 0 5 -4 7 -10 4 -5
-3 -10 -1 -10 4 0 6 -6 11 -12 11 -7 0 -21 7 -31 14 -16 12 -12 14 36 15 38 0
60 -5 73 -17z m154 10 c0 -4 28 -21 63 -36 109 -51 181 -109 124 -101 -45 6
-58 14 -200 127 -19 15 -20 17 -4 18 9 0 17 -4 17 -8z m-720 -17 c11 -13 10
-14 -4 -9 -9 3 -16 10 -16 15 0 13 6 11 20 -6z"/>
</g>
</svg>
