<?xml version="1.0" standalone="no"?>
<!DOCTYPE svg PUBLIC "-//W3C//DTD SVG 20010904//EN"
 "http://www.w3.org/TR/2001/REC-SVG-20010904/DTD/svg10.dtd">
<svg version="1.0" xmlns="http://www.w3.org/2000/svg"
 width="461.000000pt" height="415.000000pt" viewBox="0 0 461.000000 415.000000"
 preserveAspectRatio="xMidYMid meet">
<metadata>
Created by potrace 1.16, written by Peter Selinger 2001-2019
</metadata>
<g transform="translate(0.000000,415.000000) scale(0.100000,-0.100000)"
fill="#000000" stroke="none">
<path d="M1251 4140 c-28 -12 -65 -57 -69 -85 -1 -11 -5 -110 -8 -220 -3 -110
-8 -216 -13 -235 -4 -19 -4 -53 -1 -75 3 -22 4 -211 2 -420 -1 -209 -2 -432
-1 -495 1 -63 3 -484 5 -935 5 -1297 9 -1475 34 -1460 5 3 16 -5 24 -17 10
-14 27 -22 53 -24 21 -1 52 -5 68 -9 17 -4 125 -9 240 -11 116 -2 350 -6 520
-9 368 -6 318 -6 440 -6 55 0 181 -1 280 -3 191 -4 256 6 299 45 10 10 23 16
28 13 4 -3 8 2 8 10 0 8 11 26 25 40 14 14 25 29 25 35 0 5 6 22 14 38 29 58
35 100 31 203 -6 143 -17 443 -20 565 -2 55 -6 211 -9 347 -4 136 -9 300 -11
365 -2 65 -6 262 -10 438 -3 176 -8 349 -10 385 -3 36 -7 218 -10 405 -6 341
-14 427 -43 475 -24 37 -100 110 -115 110 -7 0 -18 5 -24 11 -5 5 -64 12 -129
15 -131 5 -861 14 -1185 15 l-206 0 4 97 c2 53 -1 126 -7 162 -6 36 -12 90
-13 122 -1 31 -5 54 -8 52 -3 -2 -20 11 -38 28 -28 27 -41 32 -89 35 -31 1
-68 -2 -81 -7z m315 -664 c4 -10 15 -11 47 -5 23 4 58 6 77 4 54 -4 157 -4
355 2 302 8 413 8 595 0 96 -5 211 -9 255 -9 106 0 141 -11 154 -50 14 -40 20
-150 27 -528 3 -168 7 -366 9 -440 5 -170 13 -511 20 -835 10 -458 22 -881 30
-1031 4 -74 -13 -127 -53 -164 -9 -9 -22 -24 -28 -35 -6 -10 -19 -23 -30 -29
-10 -6 -23 -17 -27 -23 -4 -7 -15 -13 -23 -13 -8 0 -25 -6 -37 -14 -33 -21
-124 -39 -163 -33 -18 3 -36 1 -40 -5 -4 -6 -196 -8 -583 -4 -498 4 -582 7
-623 21 -27 9 -50 21 -54 26 -3 5 -13 9 -23 9 -18 0 -101 76 -101 93 0 5 -11
31 -25 59 l-25 49 -3 503 c-2 276 -7 508 -11 514 -4 7 -3 12 3 12 7 0 7 8 1
24 -5 13 -7 26 -5 28 6 5 5 155 -1 979 l-5 717 30 43 c41 61 74 90 139 121 62
30 110 36 118 14z"/>
<path d="M1695 3347 c-8 -19 -19 -37 -24 -39 -14 -5 -22 -93 -12 -139 14 -63
27 -71 117 -73 44 -1 84 -4 89 -8 6 -3 134 -4 285 -1 151 2 287 4 302 4 15 -1
36 7 47 18 20 20 41 79 41 117 0 11 4 24 10 30 13 13 2 75 -20 104 -18 23 -18
23 -101 11 -89 -13 -133 -14 -409 -12 -174 1 -216 3 -277 17 -31 6 -34 4 -48
-29z m106 -67 c29 0 29 -1 23 -42 -4 -24 -11 -45 -16 -46 -4 -2 -6 -7 -3 -12
8 -13 -63 -9 -75 5 -12 14 -10 75 2 75 4 0 8 7 8 16 0 11 5 14 16 10 9 -3 29
-6 45 -6z m673 -32 c-10 -65 -18 -74 -63 -76 -22 -1 -44 -2 -48 -3 -23 -4 -29
4 -26 34 8 69 11 74 44 75 17 0 34 3 37 6 3 3 18 6 34 6 28 0 28 -1 22 -42z
m-503 13 c0 -9 1 -34 2 -56 2 -40 2 -40 -35 -40 -21 -1 -38 4 -39 10 -5 50 -3
72 10 85 20 21 61 22 62 1z m302 7 c-2 -5 -3 -28 -3 -52 l0 -44 -43 -3 c-48
-4 -45 -10 -32 74 6 37 7 38 43 35 20 -2 36 -6 35 -10z m-153 -53 c0 -45 -7
-52 -50 -51 -20 1 -26 7 -28 30 -2 15 -1 38 2 50 5 19 11 21 41 18 34 -4 35
-5 35 -47z"/>
<path d="M1957 3013 c-1 0 -81 -2 -177 -4 -148 -2 -179 -5 -201 -20 -14 -10
-37 -21 -52 -24 -21 -6 -27 -13 -27 -34 -3 -181 9 -926 15 -956 2 -11 4 -25 4
-31 1 -15 71 -26 86 -14 7 6 16 5 23 -2 7 -7 72 -10 204 -9 265 3 418 2 732
-1 l269 -4 11 28 c6 15 14 28 18 28 4 0 1 18 -7 41 -8 23 -11 47 -7 55 4 8 7
121 5 252 -2 130 1 250 5 266 14 53 -25 320 -52 358 -7 10 -35 18 -76 23 -36
4 -73 11 -83 17 -10 5 -84 11 -165 14 -81 3 -192 7 -247 9 -185 7 -277 10
-278 8z m268 -149 c239 -5 404 -10 438 -13 9 0 17 -9 17 -19 0 -10 9 -25 19
-34 18 -15 20 -32 21 -230 1 -215 1 -380 0 -474 l0 -52 -397 4 c-654 7 -688 8
-691 27 -2 9 2 25 8 36 6 12 7 21 2 21 -5 0 -10 37 -10 83 -1 45 -4 208 -7
363 l-6 281 33 11 c22 8 84 10 183 6 83 -2 258 -7 390 -10z"/>
<path d="M2455 1790 c-33 -5 -139 -11 -235 -14 -96 -3 -236 -9 -310 -13 -74
-3 -184 -7 -245 -8 -60 -1 -115 -2 -122 -3 -9 -2 -11 -45 -8 -169 3 -93 7
-284 10 -426 2 -142 7 -262 11 -268 5 -8 7 -251 3 -389 -3 -96 21 -136 85
-145 40 -5 183 -14 261 -16 87 -1 353 12 400 21 28 5 84 10 125 12 41 1 80 5
85 9 13 8 87 18 200 24 124 8 131 10 148 47 14 32 22 182 9 202 -10 17 -12
245 -2 271 5 14 6 25 2 25 -4 0 -6 35 -5 78 1 42 0 84 -4 92 -4 8 -7 51 -9 95
-1 44 -5 162 -9 263 -5 136 -3 187 5 197 17 20 4 64 -26 92 -22 20 -36 22
-166 27 -79 2 -170 1 -203 -4z m265 -80 c24 -5 47 -7 50 -5 3 2 4 -52 3 -118
l-2 -122 -63 -7 c-105 -13 -149 -17 -240 -24 l-88 -7 -1 72 c-1 39 -2 77 -3
84 -1 6 2 18 7 24 5 7 6 33 3 58 -8 50 -17 45 86 49 26 1 50 5 53 8 8 7 131 0
195 -12z m-422 -57 c-1 -43 9 -186 15 -216 1 -6 -7 -12 -18 -13 -103 -12 -141
-14 -214 -15 -45 0 -85 2 -87 4 -11 11 -10 194 1 222 6 17 10 35 8 42 -5 14
19 17 174 21 l122 2 -1 -47z m-381 -98 l-1 -134 -43 -7 c-24 -3 -58 -4 -75 0
-18 3 -62 6 -97 7 -52 2 -67 -1 -78 -16 -11 -16 -13 -9 -14 61 -1 43 -3 98 -4
122 -3 65 4 91 24 87 10 -2 42 0 72 4 30 4 91 8 135 8 l82 2 -1 -134z m864
-219 c7 -185 5 -206 -16 -206 -12 0 -26 -5 -31 -10 -9 -9 -332 -46 -339 -38
-7 8 -14 268 -7 269 4 0 21 2 37 4 33 4 228 25 260 28 11 1 37 0 58 -2 36 -3
37 -4 38 -45z m-473 -16 c2 -14 6 -73 9 -132 l5 -108 -34 -1 c-102 -3 -206 -9
-226 -14 -12 -3 -33 -3 -46 1 l-25 6 2 129 2 129 65 1 c109 2 181 7 187 12 3
3 17 5 31 4 20 -2 28 -9 30 -27z m-382 -110 c0 -69 -1 -130 -3 -136 -3 -9
-115 -12 -260 -6 l-51 2 0 118 c0 66 3 124 6 129 11 17 41 21 177 19 l130 -1
1 -125z m869 -265 c-4 -55 -8 -106 -8 -112 -1 -17 -30 -25 -104 -29 -35 -1
-66 -5 -71 -8 -4 -2 -55 -8 -111 -11 l-104 -7 5 26 c3 15 2 28 -1 31 -7 3 -7
29 -2 132 1 29 5 33 41 43 27 7 46 7 58 1 13 -7 22 -7 29 0 6 6 54 14 108 19
53 5 99 11 103 14 3 3 19 5 35 4 l30 -2 -8 -101z m-469 -53 l2 -119 -117 2
c-64 1 -139 3 -167 4 l-51 1 -2 105 -1 105 42 2 c24 1 85 2 136 4 51 1 96 5
99 8 4 3 18 6 32 6 l26 0 1 -118z m-405 41 c2 -85 -2 -137 -11 -147 -5 -5 -70
-10 -144 -11 l-136 -1 1 25 c0 14 -3 57 -6 94 -4 37 -5 73 -2 80 3 8 48 13
151 15 l146 3 1 -58z m875 -235 c1 -29 2 -86 3 -127 1 -40 0 -75 -2 -78 -3 -2
-60 -8 -128 -14 -68 -6 -131 -13 -139 -16 -18 -7 -30 -9 -89 -18 -38 -6 -43
-4 -38 9 4 9 7 68 8 131 l1 114 41 6 c65 9 105 13 202 21 50 3 99 10 110 15
11 4 22 8 25 8 3 1 6 -23 6 -51z m-594 -1 l133 -2 0 -108 c0 -100 2 -110 22
-127 22 -17 22 -18 -30 -25 -73 -10 -326 -21 -347 -15 -3 1 6 6 19 11 22 9 23
13 16 62 -4 28 -10 87 -14 129 -7 77 -7 77 19 80 14 2 30 2 37 0 7 -2 72 -4
145 -5z m-277 -10 c2 -7 6 -61 9 -122 4 -82 9 -113 21 -121 8 -6 15 -17 15
-23 0 -10 -26 -11 -107 -7 -147 8 -195 16 -215 34 -19 16 -25 67 -9 76 4 3 5
24 1 47 -4 23 -5 54 0 68 4 14 5 31 3 38 -6 16 16 19 155 20 86 1 124 -2 127
-10z"/>
<path d="M2443 1587 c-8 -14 -1 -15 96 -21 51 -3 97 -9 102 -12 6 -3 16 -1 23
5 7 6 21 9 30 5 11 -4 16 -1 16 10 0 19 -7 20 -153 20 -60 1 -111 -3 -114 -7z"/>
<path d="M2073 1563 c-33 -13 -6 -23 60 -23 40 0 77 -4 83 -10 11 -11 54 -2
54 11 0 18 -42 29 -112 28 -40 0 -79 -3 -85 -6z"/>
<path d="M1656 1552 c-19 -19 7 -26 127 -37 44 -3 47 -2 47 21 0 23 -3 24 -50
22 -27 -2 -50 -6 -50 -9 0 -4 -16 -3 -34 1 -19 4 -37 5 -40 2z"/>
<path d="M2558 1262 c-41 -2 -58 -7 -58 -17 0 -11 21 -13 105 -10 105 4 125 8
125 26 0 6 -24 9 -57 7 -32 -2 -84 -4 -115 -6z"/>
<path d="M2082 1211 c2 -12 17 -15 63 -14 98 1 107 2 102 16 -2 8 -29 12 -86
13 -68 0 -81 -2 -79 -15z"/>
<path d="M1712 1219 c8 -23 109 -37 138 -19 22 14 12 17 -69 25 -60 6 -73 5
-69 -6z"/>
<path d="M2525 894 c-9 -9 -15 -17 -13 -19 2 -1 47 0 100 3 70 3 98 8 102 18
8 22 -167 20 -189 -2z"/>
<path d="M2045 900 c-4 -6 -2 -17 4 -23 15 -15 159 -16 172 -1 14 17 4 21 -87
29 -59 5 -84 4 -89 -5z"/>
<path d="M1707 913 c-19 -3 -27 -10 -25 -20 3 -15 41 -19 133 -14 30 1 63 16
55 24 -8 7 -133 15 -163 10z"/>
<path d="M2588 632 c-69 -3 -78 -5 -78 -22 0 -18 7 -19 113 -15 61 2 115 4
120 4 4 1 7 8 7 16 0 19 -27 22 -162 17z"/>
<path d="M2085 580 c-10 -16 18 -22 117 -24 77 -1 93 2 93 14 0 12 -19 16
-102 18 -62 2 -104 -1 -108 -8z"/>
<path d="M1715 590 c-10 -15 43 -31 94 -28 33 2 46 7 46 18 0 12 -15 16 -67
18 -38 2 -69 -1 -73 -8z"/>
</g>
</svg>
