<?xml version="1.0" standalone="no"?>
<!DOCTYPE svg PUBLIC "-//W3C//DTD SVG 20010904//EN"
 "http://www.w3.org/TR/2001/REC-SVG-20010904/DTD/svg10.dtd">
<svg version="1.0" xmlns="http://www.w3.org/2000/svg"
 width="509.000000pt" height="483.000000pt" viewBox="0 0 509.000000 483.000000"
 preserveAspectRatio="xMidYMid meet">
<metadata>
Created by potrace 1.16, written by Peter Selinger 2001-2019
</metadata>
<g transform="translate(0.000000,483.000000) scale(0.100000,-0.100000)"
fill="#000000" stroke="none">
<path d="M3539 4712 c-107 -49 -129 -62 -172 -104 -23 -24 -60 -56 -81 -73
-126 -99 -244 -216 -313 -312 -24 -34 -47 -63 -51 -65 -4 -2 -34 -43 -66 -93
-33 -49 -63 -91 -68 -93 -4 -2 -8 -10 -8 -18 0 -14 -24 -13 -70 3 -8 3 -28 7
-45 10 -16 2 -43 8 -60 13 -64 19 -186 27 -235 15 -14 -3 -52 -7 -85 -9 -65
-5 -67 -5 -140 -31 -27 -9 -57 -18 -65 -19 -9 0 -33 36 -65 101 -27 55 -58
110 -67 120 -10 11 -18 29 -18 41 0 12 -3 22 -8 22 -4 0 -14 15 -21 33 -20 44
-91 156 -118 186 -13 13 -23 27 -23 30 0 17 -182 192 -233 224 -49 31 -66 37
-114 37 -71 0 -135 -29 -160 -73 -25 -43 -53 -118 -52 -142 0 -11 0 -43 -1
-71 -1 -29 4 -78 11 -110 7 -33 12 -65 10 -71 -1 -7 2 -13 7 -13 6 0 13 -21
17 -47 11 -72 37 -133 83 -195 23 -30 47 -69 53 -86 6 -18 15 -32 20 -32 5 0
9 -6 9 -13 0 -6 20 -37 45 -67 25 -30 45 -58 45 -62 0 -3 18 -34 40 -67 22
-33 40 -65 40 -71 0 -5 4 -10 8 -10 5 0 14 -16 22 -35 8 -19 20 -35 27 -35 7
0 13 -3 13 -8 0 -4 13 -13 28 -20 l29 -12 -18 -83 c-21 -96 -24 -142 -15 -252
12 -151 17 -184 47 -287 17 -57 31 -109 31 -115 1 -7 4 -13 7 -13 3 0 12 -15
20 -32 8 -18 22 -45 32 -59 l18 -25 -112 -13 c-62 -7 -130 -14 -151 -17 -22
-2 -49 -7 -60 -11 -12 -4 -25 -8 -31 -9 -5 -2 -23 -7 -40 -11 -16 -5 -41 -9
-55 -9 -14 1 -28 -2 -31 -7 -3 -4 -30 -12 -60 -17 -239 -42 -360 -83 -451
-154 -27 -20 -48 -33 -48 -29 0 14 -91 -89 -129 -146 -21 -32 -47 -80 -57
-107 -10 -27 -29 -69 -42 -93 -27 -48 -26 -76 4 -156 24 -64 45 -90 119 -150
33 -27 62 -51 65 -54 3 -3 12 -7 20 -9 8 -2 22 -10 30 -17 21 -19 121 -25 210
-13 41 6 210 11 375 12 166 1 305 5 311 9 6 3 22 0 37 -8 15 -8 27 -10 27 -4
0 5 7 9 15 9 12 0 15 -16 16 -82 0 -46 2 -92 3 -103 5 -32 16 -98 21 -125 3
-14 7 -54 10 -90 2 -36 7 -91 10 -124 8 -93 13 -575 6 -661 -6 -74 -6 -79 21
-113 15 -19 29 -39 29 -43 1 -5 2 -13 3 -18 2 -13 69 -85 107 -114 45 -34 174
-75 257 -82 186 -16 385 -20 477 -11 39 4 86 8 105 10 19 2 42 6 50 9 29 11
114 25 122 21 4 -3 24 5 45 16 21 11 47 20 59 20 12 0 27 7 34 15 7 8 20 15
29 15 9 0 39 22 67 48 41 38 55 60 72 115 12 37 21 71 20 75 -1 4 2 33 6 64 5
31 4 62 0 70 -4 7 -9 19 -9 28 -1 8 -6 40 -10 70 -5 30 -8 58 -7 62 1 4 -2 29
-8 55 -5 27 -11 80 -14 118 -3 39 -10 93 -15 120 -37 176 -71 369 -77 435 -3
25 -9 65 -14 90 -6 25 -11 68 -12 95 l-3 50 85 6 c134 11 201 18 265 30 33 5
92 14 132 19 39 5 85 16 100 24 16 8 49 16 75 18 25 2 57 12 71 21 15 9 32 17
39 17 8 0 24 7 36 16 13 9 29 13 37 10 8 -3 15 -2 15 3 0 5 10 12 23 15 21 5
93 69 128 113 9 11 29 45 44 77 25 52 28 69 29 164 1 101 -1 111 -31 175 -18
37 -39 74 -47 82 -8 8 -16 18 -18 22 -10 24 -108 84 -178 110 -14 5 -47 20
-74 33 -30 15 -70 25 -105 26 -31 2 -112 8 -181 14 -219 19 -333 23 -487 17
-34 -1 -64 1 -67 4 -7 7 11 61 23 69 11 8 61 147 77 215 14 61 21 401 8 449
-4 18 0 25 23 35 15 6 39 28 52 49 14 20 48 60 75 87 28 28 73 78 101 110 27
33 74 87 103 120 29 33 63 77 75 98 11 20 24 37 29 37 4 0 8 5 8 11 0 6 26 50
57 97 124 189 160 288 163 447 1 51 -3 72 -18 87 -7 7 -12 17 -12 22 0 20 -67
84 -109 106 -61 31 -117 31 -182 2z m-2086 -94 c18 -12 34 -25 37 -29 3 -3 20
-14 38 -23 18 -9 49 -39 70 -66 20 -27 42 -49 47 -49 12 -1 45 -37 45 -49 0
-4 14 -22 30 -41 16 -18 55 -84 86 -145 31 -61 62 -118 70 -127 8 -8 14 -18
14 -22 0 -7 65 -151 80 -177 6 -11 -10 -33 -63 -84 -71 -67 -90 -93 -142 -188
-25 -48 -45 -62 -45 -33 0 8 -13 34 -30 57 -16 22 -30 45 -30 51 0 5 -22 40
-50 78 -27 38 -50 73 -50 77 0 5 -15 25 -32 44 -18 19 -46 61 -63 93 -16 33
-43 73 -58 89 -43 47 -66 107 -83 211 -3 22 -10 48 -15 57 -20 38 -2 214 26
258 9 13 54 36 78 39 5 1 23 -9 40 -21z m2239 -23 c2 3 14 -5 26 -18 35 -37
46 -122 27 -204 -13 -58 -55 -157 -74 -173 -3 -3 -13 -18 -21 -35 -17 -36 -82
-129 -92 -133 -5 -2 -8 -11 -8 -19 0 -16 -15 -36 -127 -169 -10 -12 -36 -44
-58 -70 -22 -27 -70 -78 -107 -115 -38 -37 -68 -72 -68 -78 0 -6 -7 -11 -15
-11 -7 0 -19 -8 -24 -17 -8 -14 -10 -14 -11 -3 0 12 -32 84 -74 166 -18 35
-70 89 -117 121 -68 47 -73 55 -52 92 10 17 21 31 26 31 4 0 7 5 7 11 0 14 80
135 109 166 12 12 21 27 21 32 0 6 6 14 13 18 7 4 26 26 42 48 15 23 44 52 62
65 19 14 55 46 81 72 26 27 51 48 55 48 8 0 21 10 109 92 44 40 74 59 125 75
87 29 115 32 129 16 6 -7 13 -11 16 -8z m-1042 -742 c63 -14 125 -33 136 -42
12 -9 32 -23 44 -31 12 -8 28 -20 34 -26 7 -6 21 -14 31 -18 32 -11 118 -138
130 -190 1 -6 5 -18 8 -26 12 -31 25 -88 37 -157 15 -82 9 -351 -9 -396 -6
-15 -13 -38 -15 -50 -7 -37 -36 -97 -46 -97 -6 0 -10 -6 -10 -14 0 -19 -42
-96 -52 -96 -18 0 -6 -53 17 -76 14 -14 23 -29 20 -34 -3 -5 5 -16 19 -25 20
-13 63 -17 238 -20 117 -1 231 -5 253 -8 22 -3 69 -8 105 -12 123 -12 165 -16
176 -20 6 -2 16 0 23 5 14 8 77 -13 157 -54 29 -14 56 -26 60 -26 19 -1 74
-58 110 -115 36 -57 38 -63 36 -140 -1 -84 -20 -135 -77 -211 -28 -37 -199
-116 -260 -119 -22 -2 -56 -9 -75 -18 -19 -8 -51 -17 -70 -20 -224 -34 -257
-38 -435 -42 -77 -2 -148 -4 -157 -4 -25 -1 -31 -34 -19 -109 6 -37 14 -85 17
-107 3 -22 10 -65 14 -95 5 -30 11 -73 14 -95 4 -22 11 -63 17 -92 6 -29 12
-69 14 -90 2 -21 10 -72 19 -113 9 -41 18 -93 22 -115 3 -22 8 -43 11 -47 2
-5 8 -54 14 -110 8 -96 14 -144 23 -211 2 -15 2 -27 -1 -27 -9 0 -48 24 -58
35 -5 7 -31 20 -57 30 -27 10 -48 21 -48 25 0 3 -29 12 -65 19 -36 7 -67 17
-70 21 -19 31 -273 47 -396 26 -180 -32 -207 -38 -299 -67 -108 -34 -157 -58
-230 -112 l-51 -38 0 78 c1 193 -10 534 -19 598 -5 39 -12 95 -15 125 -2 30
-9 87 -14 126 -6 39 -11 118 -12 175 -1 56 -3 109 -6 116 -7 17 -70 32 -113
26 -40 -5 -291 -14 -525 -17 -88 -2 -187 -8 -220 -14 -105 -21 -163 -10 -247
45 -97 64 -107 76 -125 139 -16 54 -16 54 16 118 17 35 31 68 31 72 0 12 79
118 92 123 5 1 20 14 33 27 13 13 31 24 40 24 8 0 15 6 15 13 0 15 61 57 83
57 9 0 17 5 17 10 0 6 9 10 19 10 11 0 22 4 26 9 3 5 31 13 63 17 31 3 65 11
75 16 10 5 28 11 40 13 12 3 49 9 82 15 33 6 85 15 115 19 30 4 72 16 93 25
21 9 52 16 70 15 18 -1 52 3 77 9 25 5 52 10 60 11 22 2 170 10 206 10 22 1
34 7 41 24 13 28 5 77 -13 84 -8 3 -14 10 -14 17 0 6 -13 36 -28 66 -16 30
-35 73 -42 95 -7 22 -16 44 -21 50 -5 5 -9 22 -9 37 0 16 -6 44 -14 62 -19 46
-40 286 -31 361 3 33 13 89 22 125 16 67 60 160 75 160 4 0 8 7 8 15 0 25 161
181 203 196 20 7 37 16 37 19 0 19 92 40 234 55 21 3 41 7 44 9 10 10 142 -6
252 -31z m151 -3238 c74 -8 307 -97 329 -124 3 -3 22 -17 42 -31 21 -14 38
-29 39 -35 0 -5 2 -19 4 -29 2 -11 -1 -28 -6 -38 -6 -11 -12 -29 -14 -40 -3
-11 -6 -22 -7 -23 -39 -32 -194 -102 -204 -92 -3 2 -29 -1 -57 -9 -95 -24
-130 -27 -389 -30 -243 -3 -270 -1 -343 26 -11 4 -39 14 -63 21 -24 7 -52 23
-62 36 -10 13 -22 23 -26 23 -10 1 -54 67 -54 81 0 6 12 24 28 39 15 16 32 35
38 42 23 26 86 73 97 73 7 0 17 5 22 12 8 9 95 39 170 59 47 13 160 34 204 38
30 4 57 8 59 11 5 4 126 -2 193 -10z"/>
<path d="M2126 3561 c-3 -4 -23 -7 -44 -5 -36 2 -41 -1 -70 -47 -26 -39 -32
-57 -31 -96 2 -58 22 -100 54 -115 14 -6 25 -15 25 -20 0 -7 49 -4 107 8 24 4
102 78 104 97 1 7 3 23 4 37 3 33 -13 78 -42 116 -19 26 -31 32 -63 32 -22 0
-42 -3 -44 -7z m51 -117 c6 -19 -22 -45 -51 -47 -41 -3 -43 19 -4 43 34 20 49
21 55 4z"/>
<path d="M2674 3529 c-3 -5 -12 -9 -21 -9 -22 0 -71 -53 -79 -85 -9 -37 1 -90
23 -114 42 -49 66 -70 74 -66 4 3 10 1 13 -4 3 -5 27 -7 53 -6 65 4 110 44
118 106 3 24 8 56 10 71 3 21 -4 36 -33 66 -33 35 -44 40 -95 45 -31 3 -60 1
-63 -4z m67 -109 c27 0 25 -35 -3 -55 -21 -14 -24 -14 -40 7 -10 13 -18 28
-18 35 0 15 34 35 38 22 2 -5 12 -9 23 -9z"/>
<path d="M2428 3165 c-2 -3 -20 -7 -39 -9 -19 -3 -34 -5 -34 -6 0 -1 -18 -3
-40 -5 -60 -3 -164 -84 -165 -127 0 -10 -4 -18 -10 -18 -5 0 -9 -3 -8 -7 0 -5
-1 -15 -4 -23 -31 -89 -36 -134 -23 -220 13 -96 63 -148 201 -210 94 -43 270
-22 331 39 127 128 138 152 127 278 -9 118 -5 98 -36 158 -25 47 -67 85 -113
101 -11 4 -44 18 -73 30 -48 22 -102 31 -114 19z m67 -106 c5 -5 17 -9 27 -9
11 0 28 -9 40 -20 12 -11 30 -20 40 -20 41 0 89 -172 64 -230 -38 -90 -140
-160 -239 -163 -66 -2 -170 46 -207 95 -22 29 -25 43 -24 119 0 72 4 92 24
125 31 52 78 94 107 96 13 1 36 2 51 3 16 1 37 7 48 13 19 11 51 7 69 -9z"/>
<path d="M2323 3024 c4 -4 0 -18 -8 -31 -25 -38 -16 -93 22 -136 38 -43 40
-51 16 -77 -16 -16 -21 -17 -42 -5 -22 11 -27 10 -43 -10 -19 -24 -25 -71 -9
-60 5 3 12 1 16 -5 4 -6 11 -8 16 -4 6 3 18 2 27 -2 34 -15 48 -12 73 12 25
24 29 25 50 11 47 -29 99 -40 125 -26 13 7 24 20 24 30 0 20 -49 59 -74 59
-25 0 -36 59 -17 93 8 15 21 27 28 27 24 0 27 50 6 78 -17 23 -28 27 -74 28
-30 0 -61 3 -69 6 -28 12 -75 20 -67 12z"/>
</g>
</svg>
