<?xml version="1.0" standalone="no"?>
<!DOCTYPE svg PUBLIC "-//W3C//DTD SVG 20010904//EN"
 "http://www.w3.org/TR/2001/REC-SVG-20010904/DTD/svg10.dtd">
<svg version="1.0" xmlns="http://www.w3.org/2000/svg"
 width="545.000000pt" height="395.000000pt" viewBox="0 0 545.000000 395.000000"
 preserveAspectRatio="xMidYMid meet">
<metadata>
Created by potrace 1.16, written by Peter Selinger 2001-2019
</metadata>
<g transform="translate(0.000000,395.000000) scale(0.100000,-0.100000)"
fill="#000000" stroke="none">
<path d="M815 2652 c-11 -2 -24 -8 -30 -12 -5 -4 -32 -11 -58 -14 -36 -6 -47
-11 -43 -22 3 -8 2 -14 -2 -14 -11 0 -9 -54 3 -62 11 -8 23 -224 13 -241 -4
-6 -2 -17 3 -23 7 -9 -5 -13 -48 -15 -45 -2 -252 -1 -385 1 -10 0 -31 0 -48
-1 -60 -4 -59 21 -64 -1067 -3 -541 -3 -989 1 -997 3 -8 9 -12 14 -9 5 3 9 1
9 -4 0 -14 69 -32 76 -20 4 6 10 5 15 -3 5 -8 9 -9 9 -4 0 6 10 11 23 11 22 1
338 4 367 3 8 0 47 2 85 5 39 3 421 7 850 10 429 3 1169 8 1645 11 476 3 1000
8 1165 11 165 3 338 4 385 4 220 -3 372 -10 388 -19 13 -7 24 -3 46 16 24 20
29 32 28 63 -1 22 2 41 7 44 4 3 7 20 5 38 -2 18 -5 449 -9 958 -3 508 -9 926
-13 930 -79 54 -65 51 -307 50 -124 0 -231 -3 -239 -6 -9 -3 -20 7 -30 26 -20
42 -25 68 -40 225 -4 33 -8 69 -11 81 -6 28 -54 41 -140 37 -60 -2 -162 -3
-295 -1 -94 2 -99 0 -115 -39 -9 -20 -13 -44 -9 -52 4 -9 8 -56 9 -104 2 -48
6 -108 9 -131 l7 -44 -123 -2 c-68 -1 -188 -2 -268 -3 l-145 -2 -2 55 c-7 178
-12 262 -18 279 -10 33 -53 40 -250 41 -321 1 -322 1 -309 -105 7 -58 8 -128
5 -228 l-1 -47 -280 0 c-212 1 -280 4 -281 13 0 7 -2 35 -3 62 -2 28 -6 79
-11 115 -4 36 -8 84 -9 107 -3 77 -13 81 -204 81 -92 -1 -194 0 -227 1 -33 0
-78 1 -99 1 -21 1 -42 2 -45 2 -19 4 -61 -17 -66 -32 -3 -9 1 -45 9 -79 15
-65 18 -278 4 -273 -5 1 -97 2 -207 2 l-198 0 -8 78 c-5 42 -9 91 -10 109 -4
44 -15 133 -22 166 -4 24 -9 28 -29 24 -14 -2 -27 -1 -29 4 -3 4 -97 7 -208 7
-112 -1 -208 1 -213 4 -5 2 -18 3 -29 0z m230 -132 c55 -6 118 -13 141 -16
l41 -5 13 -115 c7 -63 11 -116 9 -118 -2 -2 -92 -6 -199 -10 l-196 -7 -10 40
c-6 23 -9 43 -5 46 3 3 4 43 2 89 -2 77 -1 83 20 92 33 15 75 16 184 4z m3481
-44 c8 -49 8 -182 -1 -195 -3 -6 -75 -10 -165 -9 l-159 0 -6 37 c-3 20 -8 71
-10 113 -3 60 -1 79 10 85 7 4 83 9 169 9 l155 2 7 -42z m-2451 25 c101 4 204
-1 211 -12 2 -5 7 -58 9 -119 l5 -110 -188 0 -187 0 -14 78 c-21 124 -21 145
3 158 12 7 41 10 66 7 25 -2 68 -4 95 -2z m1362 -147 c-1 -83 -1 -84 -26 -85
-15 -1 -90 -2 -169 -3 l-143 -2 6 96 c4 52 8 101 10 107 3 10 33 12 117 9 62
-2 131 -1 153 3 36 6 41 4 47 -17 4 -13 6 -61 5 -108z m1669 -197 c9 -8 11
-980 3 -1137 -2 -28 -1 -72 5 -213 2 -53 0 -100 -5 -102 -12 -8 -3 -123 11
-140 8 -10 8 -19 1 -34 -6 -11 -11 -34 -11 -51 0 -18 -4 -29 -10 -25 -10 6 4
-40 19 -60 4 -5 8 -27 10 -47 2 -36 2 -37 -36 -37 -21 0 -184 -2 -363 -5 -730
-13 -2377 -22 -2985 -17 -137 1 -376 0 -530 -4 -510 -11 -746 -12 -751 -4 -2
5 -16 4 -30 -1 -34 -13 -81 -13 -90 1 -4 8 -9 8 -17 0 -6 -6 -19 -11 -29 -11
-21 0 -20 -19 -19 495 1 863 3 1070 8 1210 l6 150 41 2 c157 8 1354 21 2596
28 519 3 945 7 946 8 7 7 1224 1 1230 -6z"/>
</g>
</svg>
