<?xml version="1.0" standalone="no"?>
<!DOCTYPE svg PUBLIC "-//W3C//DTD SVG 20010904//EN"
 "http://www.w3.org/TR/2001/REC-SVG-20010904/DTD/svg10.dtd">
<svg version="1.0" xmlns="http://www.w3.org/2000/svg"
 width="569.000000pt" height="449.000000pt" viewBox="0 0 569.000000 449.000000"
 preserveAspectRatio="xMidYMid meet">
<metadata>
Created by potrace 1.16, written by Peter Selinger 2001-2019
</metadata>
<g transform="translate(0.000000,449.000000) scale(0.100000,-0.100000)"
fill="#000000" stroke="none">
<path d="M3787 4284 c-1 -2 -33 -5 -70 -7 -114 -6 -102 143 -104 -1285 -1
-686 -2 -1260 -2 -1276 l-1 -29 -25 27 c-13 14 -30 26 -36 26 -7 0 -22 9 -33
19 -27 25 -37 26 -126 17 -80 -8 -85 -11 -134 -84 -16 -23 -31 -41 -33 -39 -5
5 -4 2463 1 2511 3 31 -1 44 -20 62 -13 13 -35 24 -49 24 -14 0 -25 4 -25 9 0
5 -18 5 -42 -1 -24 -5 -52 -12 -63 -14 -11 -3 -38 -7 -60 -10 -22 -3 -43 -8
-47 -12 -4 -4 -7 -70 -7 -147 1 -77 1 -183 1 -235 -1 -151 0 -523 3 -1090 1
-289 0 -529 -3 -534 -2 -4 -7 -3 -11 2 -4 6 -19 13 -34 16 -15 2 -47 15 -72
27 -40 20 -48 21 -89 9 -25 -7 -46 -16 -46 -20 0 -3 -11 -13 -25 -20 -14 -7
-25 -19 -25 -27 0 -7 -5 -13 -10 -13 -6 0 -15 -10 -20 -22 -10 -27 -10 -33
-10 917 0 391 2 744 4 785 12 223 7 340 -15 340 -5 0 -9 7 -9 15 0 8 -10 21
-22 29 -20 13 -32 13 -93 0 -38 -8 -93 -13 -121 -10 -28 2 -57 1 -64 -4 -12
-7 -15 -295 -11 -1135 1 -154 2 -301 1 -328 l0 -47 -27 17 c-16 10 -31 22 -35
27 -10 15 -128 15 -166 0 -18 -7 -52 -29 -76 -49 -24 -19 -46 -35 -50 -35 -3
0 -6 208 -7 463 0 463 0 642 1 642 0 0 3 87 6 192 5 191 5 193 -18 216 -13 14
-28 33 -34 43 -12 20 -52 21 -89 1 -10 -5 -64 -11 -119 -13 -72 -2 -103 -7
-111 -17 -6 -9 -10 -123 -9 -323 5 -986 4 -1621 -2 -2024 -3 -250 -5 -485 -4
-522 l1 -66 -457 -1 c-422 -1 -458 -2 -470 -19 -7 -9 -14 -24 -14 -33 0 -9 -9
-24 -20 -34 -21 -19 -27 -50 -11 -59 15 -10 30 -163 37 -368 9 -266 10 -274
52 -285 15 -4 70 -7 122 -7 528 3 809 2 1585 -2 495 -3 1051 -6 1235 -8 184
-2 461 -4 615 -4 493 0 650 -2 667 -8 10 -3 26 0 38 6 14 7 26 8 39 0 24 -12
47 -5 56 18 11 29 22 112 15 112 -4 0 -6 26 -5 58 1 31 -1 95 -5 142 -7 71
-17 235 -25 390 -3 47 -15 90 -27 90 -5 0 -7 4 -4 8 2 4 -4 13 -15 20 -11 7
-19 8 -19 2 0 -6 -49 -10 -129 -10 l-130 0 -5 53 c-7 57 -16 1281 -14 1787 1
337 1 476 -3 690 -1 74 1 194 5 266 8 149 7 153 -66 159 -45 4 -82 10 -136 25
-35 9 -59 4 -79 -16 -8 -8 -12 -69 -14 -200 -2 -221 -2 -648 -1 -684 1 -14 -1
-35 -3 -48 -5 -18 -9 -21 -24 -13 -36 20 -260 10 -317 -14 l-33 -13 5 126 c3
70 7 281 9 470 3 327 3 344 -15 362 -11 11 -32 22 -47 25 -16 3 -45 9 -65 14
-21 4 -39 7 -41 5z m44 -125 c20 -36 21 -111 14 -974 -9 -1190 -20 -1883 -29
-1893 -3 -3 -24 -5 -46 -6 -34 -1 -40 2 -41 19 -9 282 -10 2487 0 2822 l1 53
46 -4 c27 -2 50 -9 55 -17z m672 -32 c3 -12 6 -152 6 -312 0 -159 3 -587 6
-950 4 -540 5 -1006 3 -1120 0 -11 0 -108 1 -215 2 -107 2 -205 2 -217 -1 -20
-6 -23 -46 -23 l-45 0 -1 103 c-1 56 -1 106 0 110 2 11 2 878 0 1437 -1 239
-2 557 -2 705 0 149 0 288 0 310 0 71 6 200 10 207 7 14 61 -14 66 -35z
m-2040 -82 c4 -61 5 -128 2 -149 -5 -32 -5 -286 -2 -901 0 -11 -1 -171 -1
-355 0 -184 0 -344 0 -355 1 -170 -13 -947 -18 -971 -6 -32 -9 -34 -45 -34
-36 0 -38 2 -44 38 -3 20 -8 45 -10 54 -2 10 0 20 5 23 4 3 8 78 9 167 1 90 2
179 2 198 1 19 -3 379 -7 800 -7 710 -8 1014 -5 1427 1 179 -3 168 70 168 l36
0 8 -110z m-690 -1273 c-1 -757 -2 -1386 -2 -1397 -1 -11 1 -37 3 -57 l4 -38
-73 0 c-88 0 -86 -4 -86 142 1 495 -1 1864 -2 2235 -1 254 1 465 5 468 6 6 77
18 138 24 13 1 15 -157 13 -1377z m1301 1363 c3 -8 12 -15 21 -15 11 0 15 -11
16 -42 4 -261 -4 -2771 -9 -2786 -2 -7 -21 -12 -43 -12 l-39 0 -1 43 c-1 23
-1 53 0 67 1 14 1 444 0 955 -3 1202 -1 1783 6 1795 9 15 42 12 49 -5z m1242
-1353 c-3 -3 -14 6 -25 19 -17 22 -27 24 -98 24 -67 0 -85 -4 -129 -28 -40
-22 -56 -39 -78 -83 -15 -30 -29 -54 -31 -54 -2 0 -3 64 -4 143 0 78 3 136 5
130 10 -23 133 -75 177 -74 74 1 174 51 179 90 1 9 4 -24 5 -73 2 -49 1 -91
-1 -94z m-303 -335 c15 -6 30 -20 33 -30 3 -10 8 -16 11 -13 3 3 15 0 27 -6
11 -6 46 -11 78 -10 64 2 121 30 142 70 12 22 13 12 13 -86 l0 -110 -25 16
c-15 10 -52 16 -105 18 -95 4 -197 -24 -222 -59 -14 -19 -15 -8 -15 128 1 146
1 149 18 122 9 -15 29 -33 45 -40z m-1768 -138 c-2 -44 -6 -83 -8 -86 -3 -2
-16 2 -29 11 -12 8 -45 20 -72 26 -64 14 -102 1 -163 -56 -27 -24 -51 -44 -55
-44 -5 0 -8 -6 -8 -14 0 -8 -6 -16 -14 -19 -11 -5 -14 18 -15 126 0 118 1 130
14 113 8 -11 15 -17 15 -13 0 9 64 -15 72 -27 4 -7 38 -10 83 -9 70 2 80 5
123 37 26 19 50 35 54 35 4 1 5 -35 3 -80z m2070 -466 c-2 -60 -4 -110 -5
-113 0 -3 -7 9 -16 26 -13 26 -23 32 -60 38 -80 10 -220 -36 -254 -84 -8 -12
-19 -28 -25 -36 -7 -10 -9 26 -8 112 2 70 5 129 8 132 3 3 5 -2 5 -11 0 -9 18
-35 40 -58 38 -40 41 -41 89 -37 31 3 66 15 91 32 22 14 46 26 53 26 15 0 77
57 77 71 0 5 2 9 5 9 2 0 2 -48 0 -107z m-1407 -95 l-3 -63 -18 33 c-11 19
-33 40 -52 48 -37 15 -101 19 -109 6 -2 -4 -33 -22 -69 -41 -43 -22 -67 -42
-74 -60 -10 -23 -11 -18 -13 39 -1 36 -3 88 -5 115 -1 28 0 58 2 69 4 16 8 15
36 -12 18 -17 44 -34 60 -37 15 -4 29 -11 32 -15 2 -4 36 -6 76 -4 63 3 74 7
95 31 14 16 28 39 32 53 9 30 15 -66 10 -162z m-968 104 c30 -14 156 -40 188
-39 12 1 22 5 22 9 0 4 8 8 19 8 10 0 29 13 42 30 13 16 27 30 31 30 4 0 4
-51 2 -112 -3 -62 -5 -124 -5 -138 1 -23 0 -23 -23 10 -13 19 -22 39 -19 43 8
13 -16 62 -37 75 -11 7 -20 8 -20 3 0 -4 -22 -9 -49 -9 -55 -2 -125 -25 -157
-54 -11 -10 -28 -18 -36 -18 -14 0 -17 15 -17 101 -1 96 0 101 17 88 9 -8 28
-20 42 -27z m2305 -382 c-3 -5 -12 -10 -18 -10 -7 0 -6 4 3 10 19 12 23 12 15
0z m-1665 -40 c0 -17 52 -60 98 -82 37 -18 48 -19 88 -9 50 13 124 57 124 75
0 6 5 3 11 -7 6 -10 8 -35 4 -57 -4 -22 -6 -43 -5 -46 5 -18 -39 -24 -182 -23
-163 1 -164 1 -160 40 1 3 2 31 3 62 1 31 6 57 11 57 4 0 8 -5 8 -10z m1399
-14 c34 -32 100 -66 128 -66 12 0 24 -4 27 -8 6 -10 121 12 153 29 30 16 35
10 27 -40 l-7 -41 -76 0 c-128 -1 -255 -1 -273 -1 -16 1 -18 12 -18 76 0 41 3
75 7 75 4 0 18 -11 32 -24z m-368 -67 c0 -29 -5 -55 -10 -58 -14 -9 -381 -7
-381 2 0 4 0 27 0 52 l0 46 37 -36 c20 -19 43 -35 52 -36 9 0 25 -2 36 -5 61
-12 106 -6 162 21 32 16 66 39 77 52 24 31 29 25 27 -38z m-1381 -49 c0 -11
-7 -20 -15 -20 -13 0 -13 3 -3 20 7 11 14 20 15 20 2 0 3 -9 3 -20z m-313 -16
c-3 -3 -12 -4 -19 -1 -8 3 -5 6 6 6 11 1 17 -2 13 -5z m1140 -146 c1501 -2
1720 -5 1713 -17 -4 -8 -4 -24 0 -35 13 -36 31 -195 37 -337 l6 -135 -1664 3
c-1818 3 -2365 7 -2390 17 -13 6 -17 29 -22 119 -4 62 -9 125 -11 141 -5 29
-9 176 -7 227 l1 26 308 -3 c169 -2 1082 -5 2029 -6z"/>
<path d="M716 4233 c-3 -3 -18 -6 -33 -8 -44 -4 -103 -36 -103 -57 0 -10 -3
-18 -8 -18 -4 0 -16 -19 -26 -42 -10 -24 -22 -46 -27 -49 -13 -8 26 -107 55
-140 20 -23 61 -45 76 -42 3 1 4 -29 2 -66 -2 -37 0 -83 5 -102 12 -43 0 -99
-24 -116 -42 -29 -62 -56 -80 -109 -14 -41 -14 -49 2 -96 19 -58 57 -99 125
-133 57 -30 152 -28 204 4 90 56 137 196 91 272 -11 17 -57 54 -68 54 -4 0
-11 5 -15 11 -4 6 -21 18 -37 27 l-30 15 2 110 1 110 66 66 66 66 -1 57 c-1
93 -17 124 -80 155 -49 25 -150 44 -163 31z m2 -102 c-12 -32 -64 -130 -69
-130 -4 -1 -9 13 -13 29 -9 49 30 105 77 109 5 1 7 -3 5 -8z m44 -378 c-2 -54
-5 -104 -7 -110 -7 -22 -33 -14 -33 10 0 12 -3 45 -7 74 -11 75 0 123 28 123
22 0 23 -2 19 -97z m48 -218 c0 -2 -15 -12 -32 -21 -18 -9 -49 -34 -69 -55
-42 -44 -56 -49 -55 -16 1 29 26 63 57 79 25 13 99 23 99 13z"/>
<path d="M440 2971 c0 -6 -16 -11 -35 -11 -19 0 -35 -4 -35 -10 0 -5 -11 -12
-25 -16 -14 -3 -25 -9 -25 -13 0 -3 -18 -26 -40 -51 -22 -25 -40 -51 -40 -57
0 -7 -4 -13 -10 -13 -14 0 -13 -76 1 -115 15 -40 102 -100 158 -110 51 -8 138
11 167 36 15 14 30 18 55 14 56 -10 113 -28 130 -42 8 -7 20 -13 25 -13 6 0
18 -25 28 -55 9 -30 20 -55 24 -55 4 0 19 -11 34 -25 15 -14 30 -26 33 -26 2
0 24 -9 47 -19 65 -29 159 -25 201 10 6 6 24 19 38 29 25 19 47 73 55 135 13
105 -3 140 -86 191 -60 37 -62 37 -128 29 -37 -4 -76 -9 -87 -9 -46 -3 -54 -6
-69 -20 -14 -14 -46 -11 -46 5 0 4 -11 5 -25 2 -24 -4 -95 33 -95 50 0 4 -6 5
-13 2 -17 -6 -32 12 -41 49 -8 36 -74 82 -128 91 -23 4 -48 12 -55 18 -9 7
-13 7 -13 -1z m34 -120 c3 -5 -12 -20 -34 -34 -21 -15 -51 -42 -67 -62 -33
-42 -39 -43 -47 -9 -5 20 0 31 26 56 48 45 110 70 122 49z m279 -168 c15 -3
27 -9 27 -14 0 -14 -14 -11 -61 12 -24 11 -33 17 -19 14 14 -4 37 -9 53 -12z
m192 -39 c-20 -19 -38 -49 -42 -66 -7 -34 -23 -19 -23 22 1 32 17 52 55 66 47
18 48 16 10 -22z"/>
<path d="M5083 2439 c-7 -7 -13 -10 -13 -6 0 4 -21 -7 -47 -23 -26 -17 -53
-30 -61 -30 -9 0 -12 -6 -8 -15 3 -9 -1 -18 -9 -21 -8 -4 -15 -12 -15 -19 0
-7 -7 -18 -15 -25 -10 -9 -15 -31 -15 -72 0 -50 5 -67 30 -104 17 -24 37 -44
45 -44 8 0 15 -5 15 -10 0 -14 46 -32 90 -37 37 -4 84 -47 109 -100 7 -15 24
-49 37 -74 l23 -47 -24 -22 c-19 -18 -33 -55 -36 -95 -3 -44 61 -157 100 -177
14 -7 28 -16 31 -19 8 -11 126 -26 161 -21 72 11 152 131 134 201 -4 14 -7 42
-8 61 -2 38 -25 80 -44 80 -7 0 -27 13 -45 28 -36 31 -66 46 -86 43 -7 -1 -15
6 -18 16 -4 10 -22 51 -40 91 -19 40 -34 77 -34 81 0 5 -7 14 -15 21 -15 12
-9 31 22 70 15 19 19 74 8 120 -9 40 -51 100 -70 100 -7 0 -15 5 -17 12 -2 6
-13 12 -24 14 -23 2 -101 20 -129 29 -11 3 -26 0 -32 -6z m107 -119 c0 -4 -7
-11 -17 -14 -9 -4 -39 -21 -66 -39 -28 -17 -54 -31 -59 -29 -4 1 -8 -7 -8 -17
0 -32 -18 -33 -25 -2 -13 61 36 106 119 108 31 1 56 -2 56 -7z m94 -303 c34
-45 70 -131 56 -135 -5 -2 -17 -10 -25 -18 -13 -13 -16 -10 -30 22 -8 20 -15
39 -15 43 0 3 -9 17 -20 31 -11 14 -20 33 -20 43 0 10 -8 21 -17 24 -15 6 -14
8 7 14 14 4 28 7 32 8 4 1 18 -14 32 -32z m138 -241 c-32 -9 -78 -62 -95 -109
-10 -27 -27 -10 -27 27 0 55 79 112 135 97 17 -4 14 -7 -13 -15z"/>
<path d="M865 2221 c-3 -6 -18 -11 -33 -11 -15 0 -38 -9 -52 -20 -14 -11 -32
-20 -42 -20 -9 0 -27 -13 -41 -29 -14 -17 -28 -27 -32 -23 -4 4 -5 2 -4 -3 1
-6 -3 -30 -10 -54 -7 -24 -11 -52 -8 -61 6 -22 1 -28 -49 -68 -40 -31 -73 -40
-88 -25 -21 22 -111 18 -153 -7 -20 -12 -42 -19 -49 -16 -17 6 -74 -41 -74
-60 0 -8 -11 -26 -24 -40 -25 -27 -42 -126 -29 -161 10 -25 65 -107 75 -111 5
-2 14 -9 21 -16 31 -30 127 -40 180 -18 16 7 32 12 36 12 4 0 25 17 47 39 35
33 43 50 59 117 10 43 23 84 29 89 6 6 40 28 75 49 l64 39 41 -22 c79 -42 147
-33 233 31 28 22 58 54 67 73 17 36 24 173 10 184 -5 3 -10 15 -12 25 -4 23
-38 53 -69 62 -13 3 -23 10 -23 14 0 5 -26 14 -57 20 -32 7 -63 14 -69 17 -7
2 -15 0 -19 -6z m-51 -143 c-31 -52 -37 -59 -45 -46 -15 22 -10 38 14 48 31
12 39 12 31 -2z m205 -55 c0 -25 -1 -25 -8 -8 -5 11 -7 23 -4 28 8 14 13 7 12
-20z m-321 -135 c2 -10 -6 -19 -20 -23 -13 -4 -36 -17 -51 -27 -16 -11 -31
-17 -35 -13 -4 4 3 14 16 24 13 9 33 26 45 39 23 24 40 24 45 0z m-340 -145
c-18 -32 -38 -64 -45 -71 -7 -7 -13 -18 -13 -23 0 -6 -4 -8 -9 -4 -9 5 -7 42
5 98 3 15 9 25 14 22 5 -3 24 4 42 15 18 11 34 20 35 20 1 0 -12 -26 -29 -57z
m142 10 c0 -20 -3 -24 -11 -16 -7 7 -9 19 -6 27 10 24 17 19 17 -11z m-15
-112 c6 -10 -32 -51 -48 -51 -5 0 2 13 15 29 27 35 25 34 33 22z"/>
<path d="M5375 806 c-11 -6 -39 -22 -62 -35 -33 -19 -47 -36 -63 -76 -22 -53
-25 -126 -7 -156 8 -13 1 -28 -33 -66 l-42 -50 -70 5 c-57 3 -81 0 -128 -19
l-58 -23 -22 -69 c-25 -78 -32 -152 -17 -184 12 -27 89 -83 114 -83 11 0 24
-5 31 -12 15 -15 113 -19 156 -6 64 20 111 77 139 170 10 32 23 61 30 65 7 5
23 28 36 53 47 86 61 100 103 100 21 0 48 8 60 18 44 35 97 90 91 96 -3 3 0
12 7 21 20 24 4 132 -26 177 -46 66 -181 108 -239 74z m55 -84 c0 -5 -9 -19
-20 -32 -11 -13 -20 -26 -20 -30 0 -12 -41 -50 -50 -45 -13 8 1 45 17 45 8 0
17 9 20 20 3 10 14 22 24 25 10 4 19 11 19 16 0 5 2 9 5 9 3 0 5 -4 5 -8z
m-96 -273 c25 -12 25 -12 7 -38 -10 -14 -21 -34 -24 -43 -8 -23 -23 -23 -53 1
l-23 18 32 37 c17 20 33 36 34 36 1 0 13 -5 27 -11z m-181 -269 c16 0 27 -5
27 -14 0 -24 -71 -43 -108 -29 -21 8 -21 10 -6 32 12 16 23 21 38 17 11 -3 33
-6 49 -6z"/>
</g>
</svg>
