<?xml version="1.0" standalone="no"?>
<!DOCTYPE svg PUBLIC "-//W3C//DTD SVG 20010904//EN"
 "http://www.w3.org/TR/2001/REC-SVG-20010904/DTD/svg10.dtd">
<svg version="1.0" xmlns="http://www.w3.org/2000/svg"
 width="521.000000pt" height="485.000000pt" viewBox="0 0 521.000000 485.000000"
 preserveAspectRatio="xMidYMid meet">
<metadata>
Created by potrace 1.16, written by Peter Selinger 2001-2019
</metadata>
<g transform="translate(0.000000,485.000000) scale(0.100000,-0.100000)"
fill="#000000" stroke="none">
<path d="M4126 4803 c-3 -4 -34 -8 -69 -9 -34 -2 -101 -12 -149 -23 -49 -10
-88 -17 -88 -15 0 5 -134 -67 -140 -76 -3 -4 -23 -16 -45 -28 -22 -11 -68 -41
-103 -66 -34 -25 -66 -46 -72 -46 -5 0 -13 -6 -17 -13 -4 -7 -24 -25 -45 -41
-35 -26 -36 -27 -43 -7 -3 12 -17 24 -31 27 -13 3 -24 9 -24 13 0 13 -64 44
-99 48 -65 8 -181 8 -181 1 0 -13 -48 -9 -52 3 -4 13 -170 -24 -233 -52 -120
-55 -231 -160 -290 -275 -11 -21 -22 -41 -25 -44 -3 -3 -18 -30 -33 -60 -39
-81 -50 -150 -44 -266 4 -89 9 -110 37 -168 18 -36 39 -71 46 -77 8 -6 14 -18
14 -25 0 -8 4 -14 9 -14 5 0 12 -9 16 -19 8 -25 50 -70 100 -107 22 -16 42
-29 45 -30 3 0 26 -11 52 -22 53 -25 52 -18 17 -172 -11 -47 -26 -121 -35
-165 -9 -44 -19 -87 -22 -95 -3 -8 -6 -19 -7 -25 -11 -49 -49 -177 -60 -205
-8 -19 -26 -97 -40 -174 -30 -166 -35 -188 -46 -202 -5 -6 -18 -44 -29 -85
-10 -41 -30 -105 -44 -144 -39 -108 -33 -155 21 -155 13 0 26 -6 29 -14 4 -11
52 -36 69 -36 10 0 56 87 59 112 3 18 11 53 19 78 14 44 39 128 77 260 10 36
26 89 34 119 9 29 16 63 16 75 0 11 10 48 21 81 21 64 54 230 64 330 7 62 22
128 48 205 9 25 20 64 27 88 10 38 14 42 43 43 18 0 43 3 57 5 29 5 162 65
170 76 4 4 18 -16 33 -45 22 -44 98 -141 132 -168 6 -4 28 -23 50 -41 44 -37
86 -58 115 -58 11 0 41 -11 67 -25 75 -38 156 -74 183 -80 14 -2 43 -9 66 -13
22 -5 46 -12 52 -16 14 -8 97 -17 162 -18 116 -1 170 6 231 28 37 13 75 24 86
24 17 0 116 43 185 81 10 5 25 9 33 9 8 0 15 4 15 9 0 6 10 16 23 23 60 34 98
62 108 79 5 11 15 19 22 19 7 0 29 18 48 40 19 22 39 40 44 40 11 1 55 66 55
82 0 6 19 38 43 72 65 91 101 191 118 321 18 139 24 260 16 306 -4 24 -12 70
-16 102 -5 31 -13 63 -19 70 -11 13 -27 94 -23 115 1 7 -11 34 -27 60 -16 26
-35 64 -42 84 -6 21 -17 41 -25 45 -7 5 -36 29 -64 55 -29 26 -66 54 -84 62
-76 35 -125 54 -162 66 -22 7 -47 15 -55 18 -65 24 -379 59 -394 45z m94 -99
c102 -6 185 -15 210 -24 14 -5 36 -11 50 -14 14 -2 39 -10 55 -17 17 -7 37
-13 45 -14 8 -2 35 -13 60 -26 25 -13 53 -25 64 -26 11 -2 31 -16 45 -32 73
-80 91 -103 91 -119 0 -9 11 -39 25 -66 14 -27 25 -56 25 -64 0 -7 13 -68 29
-135 28 -120 34 -233 16 -305 -3 -14 -10 -61 -15 -104 -5 -43 -16 -91 -23
-106 -8 -15 -23 -45 -33 -67 -11 -22 -22 -42 -25 -45 -3 -3 -20 -31 -38 -62
-29 -52 -68 -103 -112 -147 -30 -31 -132 -116 -153 -127 -75 -42 -188 -93
-212 -97 -16 -2 -42 -9 -59 -16 -82 -35 -278 -47 -396 -25 -70 13 -174 45
-211 65 -10 5 -23 9 -31 9 -7 0 -30 12 -51 26 -21 15 -54 28 -73 30 -20 2 -46
10 -59 19 -43 28 -164 147 -164 161 0 7 -9 29 -19 48 l-20 34 65 58 c74 65
154 162 176 214 46 103 60 228 39 347 -5 32 -12 72 -15 88 -3 17 -15 62 -26
100 -35 116 -36 108 9 153 23 23 67 61 99 84 31 24 59 46 62 49 3 3 21 14 41
23 20 9 45 25 55 34 21 20 84 48 98 44 4 -1 14 2 22 9 8 6 23 9 34 6 11 -3 20
-1 20 3 0 5 8 7 18 6 9 -2 26 3 37 10 11 7 38 12 60 12 46 1 72 5 81 15 4 4
17 4 28 1 12 -4 46 -8 76 -10z m-1164 -254 c63 8 99 8 118 0 15 -5 32 -8 36
-5 5 3 12 0 17 -8 4 -7 21 -21 38 -31 57 -37 109 -122 127 -211 5 -27 14 -68
19 -90 18 -72 21 -159 8 -218 -6 -32 -16 -60 -20 -63 -5 -3 -9 -13 -9 -23 0
-16 -55 -97 -90 -133 -8 -8 -25 -26 -37 -39 -34 -37 -53 -52 -97 -76 -123 -65
-207 -98 -264 -102 -46 -3 -112 15 -112 30 0 6 -4 8 -9 5 -5 -3 -20 3 -34 14
-14 11 -28 20 -31 20 -14 0 -141 84 -157 103 -10 12 -41 62 -68 110 -49 86
-51 91 -51 167 0 80 31 210 50 210 6 0 9 3 8 8 -1 4 10 33 26 66 47 98 190
228 239 218 4 -1 7 6 8 16 0 9 3 12 6 5 3 -8 13 -3 29 14 13 14 24 23 24 20 0
-3 12 -2 28 2 16 5 42 3 67 -6 32 -11 57 -12 131 -3z m-372 -1657 c-11 -47
-36 -124 -40 -120 -4 4 24 126 32 138 10 17 14 9 8 -18z"/>
<path d="M4511 4048 c-5 -13 -8 -26 -7 -29 0 -4 -8 -16 -18 -28 -11 -12 -17
-21 -14 -21 7 0 -12 -63 -42 -140 -12 -30 -25 -66 -29 -80 -18 -56 -65 -131
-92 -147 -16 -10 -29 -22 -29 -28 0 -5 -7 -22 -14 -37 -13 -25 -13 -28 2 -28
17 0 92 64 92 78 0 4 12 21 28 38 15 16 38 55 51 85 13 29 32 73 42 96 11 24
19 51 19 60 1 10 8 29 16 43 14 24 15 23 10 -30 -3 -30 -8 -67 -12 -82 -6 -25
-4 -28 19 -28 20 0 37 16 82 78 51 69 57 73 50 42 -5 -19 -8 -41 -8 -47 0 -7
-4 -13 -7 -13 -4 0 -7 -11 -7 -24 0 -14 -12 -48 -27 -77 -14 -29 -26 -67 -26
-85 0 -29 -43 -95 -84 -129 -6 -5 -22 -26 -35 -45 -14 -19 -33 -42 -45 -52
-19 -15 -21 -15 -40 5 -15 17 -18 18 -13 5 4 -10 3 -18 -2 -18 -14 0 1 -65 18
-75 25 -15 34 -12 61 20 14 16 32 38 40 47 8 10 20 18 27 18 7 0 13 4 13 8 0
5 16 25 35 45 19 19 37 48 41 64 4 15 13 37 20 48 8 11 14 29 14 40 0 12 4 25
8 31 13 14 53 113 58 143 3 14 11 55 18 91 11 53 13 100 7 151 -1 4 -17 9 -36
11 -19 2 -32 2 -30 0 2 -3 -9 -23 -24 -46 -16 -23 -30 -50 -32 -61 -8 -39 -24
-14 -27 42 -2 39 -8 61 -20 69 -25 20 -41 17 -51 -8z"/>
<path d="M4320 3519 c-19 -10 -49 -19 -66 -19 -40 0 -73 -34 -57 -58 6 -9 19
-16 29 -14 11 2 33 6 51 9 17 3 39 14 49 24 9 10 25 19 34 19 19 0 33 14 43
43 9 24 -37 22 -83 -4z"/>
<path d="M2905 4377 c-38 -5 -77 -15 -86 -23 -8 -7 -25 -15 -37 -17 -28 -4
-82 -44 -82 -60 0 -7 -8 -22 -18 -33 -10 -10 -28 -37 -42 -59 -13 -22 -36 -55
-52 -73 -15 -18 -28 -39 -28 -47 0 -8 -9 -31 -20 -52 -17 -35 -26 -107 -18
-158 7 -46 52 -146 70 -156 10 -5 16 -14 13 -20 -4 -5 2 -12 12 -16 10 -3 30
-15 45 -25 14 -10 32 -18 40 -18 8 0 24 -11 36 -25 12 -14 31 -25 42 -25 11 0
23 -7 26 -15 4 -10 14 -13 29 -9 13 3 32 1 42 -5 24 -12 100 8 143 39 15 11
33 20 39 20 6 0 15 9 21 20 6 11 16 20 22 20 6 0 26 11 44 25 18 14 36 25 41
25 14 1 93 78 93 92 0 7 9 27 20 43 43 62 53 105 52 220 -1 75 -22 195 -34
195 -4 0 -8 5 -8 10 0 34 -96 90 -167 97 -32 3 -65 9 -74 14 -36 18 -98 24
-164 16z m130 -84 c11 -6 51 -13 90 -16 38 -3 71 -10 73 -16 2 -6 9 -11 16
-11 18 0 40 -29 58 -76 11 -29 14 -70 12 -150 -3 -114 -13 -146 -69 -215 -24
-29 -97 -85 -107 -81 -5 1 -8 -2 -8 -8 0 -5 -6 -10 -14 -10 -8 0 -16 -3 -18
-8 -1 -4 -24 -24 -50 -45 -48 -39 -103 -61 -122 -50 -6 4 -23 6 -37 5 -14 -2
-31 4 -38 12 -7 8 -19 12 -27 9 -8 -3 -17 4 -22 17 -4 12 -11 21 -15 21 -17
-2 -82 31 -102 53 -53 57 -92 161 -78 214 14 59 91 203 122 232 4 3 23 26 44
53 25 30 46 47 60 47 13 0 33 7 45 16 12 8 22 12 22 9 0 -3 8 -1 18 4 20 13
119 9 147 -6z"/>
<path d="M1380 3348 c-19 -5 -46 -11 -60 -12 -14 -1 -31 -5 -37 -9 -7 -5 -13
-5 -13 -1 0 4 -8 0 -17 -9 -21 -18 -132 -59 -144 -51 -4 2 -68 -16 -142 -41
-74 -24 -145 -47 -158 -49 -13 -3 -24 -5 -24 -7 0 -1 -9 -3 -20 -5 -89 -16
-187 -40 -245 -60 -45 -15 -71 -33 -80 -55 -17 -40 -4 -141 26 -206 23 -51 25
-67 21 -133 -8 -115 -13 -141 -42 -206 -46 -103 -77 -237 -70 -302 8 -71 41
-213 63 -272 9 -25 17 -47 18 -50 0 -3 6 -18 13 -35 7 -16 15 -41 17 -55 3
-14 9 -38 14 -55 4 -16 16 -57 25 -90 19 -68 57 -171 86 -231 10 -23 19 -46
19 -52 0 -6 3 -12 8 -14 11 -5 51 -98 68 -158 18 -67 19 -70 43 -145 10 -33
30 -98 44 -145 32 -111 68 -204 78 -208 5 -2 9 -14 9 -27 0 -13 4 -27 10 -30
5 -3 16 -27 24 -53 8 -26 21 -60 30 -77 9 -16 16 -39 16 -51 0 -11 12 -45 26
-75 87 -184 92 -192 161 -224 24 -11 43 -23 43 -28 0 -4 24 -5 53 -2 28 3 61
6 72 6 22 1 144 34 188 51 15 6 27 15 27 20 0 5 4 7 9 4 4 -3 24 3 43 13 20
10 69 26 108 35 40 10 87 27 104 37 17 10 38 19 47 19 9 0 50 15 91 34 40 19
116 44 168 56 104 24 119 29 200 70 30 15 73 33 95 40 22 7 46 19 53 27 7 7
20 13 28 13 8 0 20 4 27 10 43 34 67 59 67 68 0 5 6 12 13 15 12 5 31 86 41
177 4 31 -8 124 -19 158 -3 7 -5 14 -5 17 0 3 -9 14 -20 25 -11 11 -21 29 -21
40 -2 27 -2 27 -28 85 -13 28 -24 55 -25 60 -1 6 -8 21 -16 35 -8 14 -15 32
-17 41 -1 9 -16 45 -33 80 -16 35 -30 70 -30 77 0 7 -4 20 -10 30 -5 9 -21 58
-35 107 -29 99 -80 253 -99 300 -7 17 -27 75 -43 130 -17 55 -51 160 -77 233
-25 72 -46 141 -46 152 0 11 -4 20 -10 20 -5 0 -10 8 -10 18 0 9 -11 39 -25
66 -14 27 -25 55 -25 61 0 16 -77 164 -95 182 -8 8 -15 19 -15 24 0 5 -7 25
-15 45 -8 19 -14 37 -15 39 0 3 -8 21 -19 40 -19 36 -71 79 -126 104 -16 7
-38 17 -47 22 -10 5 -29 9 -44 9 -43 0 -98 41 -99 75 -1 28 -18 54 -38 57 -16
2 -26 18 -43 63 -12 33 -25 78 -30 99 -10 45 -15 48 -64 34z m-23 -130 c-2 -7
2 -28 10 -46 15 -36 22 -31 -87 -68 -25 -9 -53 -20 -62 -25 -10 -5 -23 -9 -29
-9 -13 0 -116 -42 -164 -67 -28 -14 -90 -33 -177 -54 -21 -5 -62 -20 -91 -34
-30 -14 -65 -27 -78 -29 -13 -1 -32 -6 -41 -10 -47 -21 -80 9 -91 86 -5 34 -3
37 26 48 46 17 151 39 160 33 4 -2 7 1 7 7 0 7 6 10 13 7 6 -2 26 0 42 5 17 5
64 18 105 29 41 11 82 23 90 26 8 3 17 7 20 8 33 10 98 27 155 42 39 9 90 28
115 40 50 25 84 30 77 11z m89 -173 c-3 -8 -1 -15 4 -15 6 0 10 -7 10 -15 0
-15 73 -94 88 -96 4 0 16 -2 27 -5 11 -2 36 -6 56 -8 20 -2 42 -7 50 -12 8 -5
23 -10 33 -11 11 -2 28 -11 38 -20 19 -17 78 -126 78 -143 0 -5 20 -42 44 -82
24 -40 47 -87 51 -105 3 -17 13 -37 21 -44 8 -6 14 -23 14 -36 0 -14 9 -36 20
-50 11 -14 20 -35 20 -47 1 -20 29 -110 41 -131 4 -5 12 -35 19 -65 6 -30 20
-73 30 -95 11 -22 29 -71 40 -110 12 -38 32 -93 46 -121 13 -28 24 -59 24 -68
0 -9 7 -33 16 -54 9 -20 17 -45 19 -55 8 -39 72 -249 86 -282 29 -71 69 -178
69 -186 0 -6 10 -25 22 -42 23 -32 30 -50 31 -76 0 -8 16 -42 35 -75 50 -88
57 -201 17 -298 -8 -20 -68 -68 -85 -68 -6 0 -41 -16 -78 -35 -90 -46 -187
-82 -247 -90 -28 -4 -54 -11 -60 -15 -5 -4 -26 -11 -45 -15 -19 -4 -78 -24
-130 -45 -52 -21 -104 -40 -115 -43 -11 -3 -50 -17 -88 -31 -43 -17 -80 -24
-102 -21 -28 3 -38 0 -48 -16 -21 -35 -100 -63 -213 -75 -55 -5 -66 -3 -102
20 -24 15 -39 31 -36 39 2 7 -5 23 -17 36 -12 13 -34 58 -49 100 -14 42 -31
85 -37 96 -6 11 -16 38 -23 60 -7 22 -16 45 -20 50 -4 6 -10 24 -14 40 -4 17
-14 37 -21 45 -7 8 -23 42 -35 75 -11 33 -25 68 -30 77 -10 17 -34 100 -70
238 -26 97 -73 225 -122 325 -29 60 -97 246 -108 296 -12 56 -32 125 -63 214
-48 137 -62 199 -61 272 1 39 5 80 9 90 5 10 9 21 10 26 2 4 3 8 5 10 1 1 3 9
5 17 2 8 15 47 29 85 15 39 29 82 31 97 14 76 22 156 18 179 -3 24 0 27 34 33
65 12 165 47 213 75 8 5 42 17 75 25 106 29 169 50 214 73 25 12 48 20 53 17
4 -3 8 -1 8 3 0 8 58 28 106 37 12 3 30 9 40 14 16 9 113 49 123 51 2 1 1 -6
-3 -14z"/>
<path d="M4646 2513 c-4 -4 -32 -9 -63 -10 -30 -1 -70 -7 -88 -13 -17 -6 -41
-12 -51 -14 -18 -4 -85 -35 -171 -80 -19 -10 -36 -28 -39 -42 -3 -13 -13 -28
-21 -33 -16 -8 -47 -84 -65 -156 -16 -65 12 -223 42 -233 5 -2 10 -10 10 -17
0 -21 60 -68 125 -99 79 -37 95 -43 125 -52 14 -4 28 -12 32 -18 5 -8 8 -7 8
2 0 9 14 11 53 6 61 -7 191 23 228 53 73 59 92 82 132 151 47 81 53 96 62 152
7 38 -14 190 -26 190 -3 0 -13 15 -20 33 -17 43 -73 119 -97 134 -11 6 -37 15
-58 19 -22 3 -44 11 -51 16 -7 5 -17 7 -23 3 -6 -4 -17 -2 -24 4 -7 6 -16 8
-20 4z m29 -122 c2 -5 15 -6 28 -4 17 3 35 -5 61 -27 20 -18 34 -36 31 -40 -3
-5 -1 -11 5 -15 18 -11 52 -99 56 -145 3 -36 -3 -57 -32 -114 -42 -80 -82
-125 -139 -154 -32 -16 -56 -19 -120 -17 -81 2 -165 21 -165 37 0 4 -8 8 -17
8 -27 0 -93 51 -110 84 -22 41 -26 140 -8 198 15 52 48 89 98 109 17 7 48 23
68 35 20 13 45 23 55 23 11 0 44 6 74 14 64 16 108 19 115 8z"/>
<path d="M3385 2040 c-4 -6 -10 -8 -15 -5 -5 3 -12 1 -15 -5 -4 -6 -23 -18
-43 -26 -41 -17 -127 -114 -162 -183 -32 -63 -49 -138 -45 -201 4 -83 41 -170
73 -170 6 0 12 -4 14 -9 2 -5 27 -26 57 -46 71 -47 132 -51 246 -17 97 30 121
46 165 111 19 28 39 51 43 51 5 0 6 4 3 9 -3 4 3 33 14 64 39 111 20 243 -47
326 -44 55 -52 61 -78 61 -11 0 -33 7 -49 15 -16 8 -46 16 -68 17 -21 1 -41 5
-44 10 -7 11 -42 10 -49 -2z m95 -125 c19 -3 51 -19 70 -35 19 -16 38 -30 42
-30 4 0 15 -14 23 -31 17 -33 18 -108 2 -168 -11 -43 -56 -111 -72 -111 -7 0
-15 -7 -19 -15 -6 -15 -37 -31 -79 -39 -12 -2 -30 -7 -39 -11 -10 -4 -18 -3
-18 3 0 5 -11 7 -24 5 -24 -5 -70 15 -118 50 -38 28 -55 102 -38 165 15 54 77
172 91 172 5 0 17 8 27 18 45 42 52 43 152 27z"/>
<path d="M4200 1320 c-8 -5 -25 -10 -37 -10 -13 0 -23 -4 -23 -9 0 -5 -12 -12
-27 -16 -44 -11 -128 -71 -178 -128 -125 -142 -186 -381 -141 -550 7 -29 19
-77 26 -106 9 -40 28 -75 69 -127 31 -39 64 -75 73 -80 94 -50 171 -85 181
-81 7 2 21 0 32 -6 38 -20 271 -25 335 -7 88 24 166 54 202 78 46 30 126 125
145 172 8 19 23 53 34 76 10 22 24 76 30 120 14 98 14 90 1 205 -14 128 -43
179 -181 316 -30 29 -60 53 -68 53 -7 0 -13 5 -13 10 0 6 -5 10 -12 10 -6 0
-19 6 -27 14 -31 27 -137 57 -163 47 -18 -7 -29 -6 -39 4 -17 17 -197 30 -219
15z m125 -105 c86 -6 145 -14 165 -22 18 -8 27 -10 40 -12 5 0 25 -14 43 -31
19 -16 36 -27 39 -25 11 11 159 -148 177 -190 7 -16 17 -38 22 -47 13 -26 13
-153 0 -233 -12 -76 -55 -171 -99 -222 -40 -45 -136 -98 -214 -117 -65 -16
-135 -16 -263 0 -79 10 -185 54 -234 98 -27 24 -91 121 -96 145 -18 96 -26
184 -20 235 4 34 9 70 10 81 6 62 104 231 146 252 9 4 33 22 53 38 35 28 129
65 151 59 6 -2 42 -6 80 -9z"/>
</g>
</svg>
