<?xml version="1.0" standalone="no"?>
<!DOCTYPE svg PUBLIC "-//W3C//DTD SVG 20010904//EN"
 "http://www.w3.org/TR/2001/REC-SVG-20010904/DTD/svg10.dtd">
<svg version="1.0" xmlns="http://www.w3.org/2000/svg"
 width="537.000000pt" height="471.000000pt" viewBox="0 0 537.000000 471.000000"
 preserveAspectRatio="xMidYMid meet">
<metadata>
Created by potrace 1.16, written by Peter Selinger 2001-2019
</metadata>
<g transform="translate(0.000000,471.000000) scale(0.100000,-0.100000)"
fill="#000000" stroke="none">
<path d="M4455 4508 c-38 -14 -78 -61 -82 -96 -2 -15 -8 -47 -13 -72 -6 -25
-9 -110 -7 -189 3 -126 5 -145 21 -157 17 -12 17 -16 5 -33 -8 -10 -36 -51
-62 -90 -27 -39 -52 -71 -57 -71 -4 0 -13 -13 -20 -30 -7 -16 -16 -30 -21 -30
-5 0 -9 -6 -9 -14 0 -8 -3 -16 -7 -18 -10 -4 -95 -132 -122 -182 -11 -22 -24
-42 -29 -45 -9 -6 -83 -112 -117 -166 -35 -56 -97 -135 -106 -135 -5 0 -9 9
-9 19 0 15 -5 18 -22 13 -20 -5 -58 -36 -58 -47 0 -3 -20 -27 -45 -52 -36 -36
-50 -44 -68 -39 -12 4 -46 13 -74 21 -29 8 -80 26 -113 40 -67 28 -70 29 -70
15 0 -6 -11 -34 -25 -62 -51 -105 -74 -233 -82 -456 l-6 -163 -29 -6 c-33 -6
-49 -30 -42 -60 5 -19 9 -20 47 -8 23 7 43 19 45 28 2 9 12 19 23 22 30 10 38
43 23 92 -13 44 -12 108 5 271 14 133 65 277 88 247 7 -9 19 -12 76 -18 9 0
17 -5 17 -9 0 -4 7 -8 16 -8 9 0 34 -5 55 -12 43 -12 48 -31 30 -92 -37 -120
-38 -142 -16 -246 15 -69 36 -82 68 -42 38 46 86 91 135 124 26 17 49 35 50
40 2 4 9 8 16 8 7 0 23 11 36 25 39 41 75 19 192 -120 26 -31 27 -33 10 -56
-34 -49 -97 -117 -153 -164 -13 -12 -31 -31 -39 -43 -8 -12 -23 -25 -34 -28
-11 -4 -42 -20 -68 -36 -26 -16 -54 -31 -61 -32 -49 -9 -64 -22 -57 -51 1 -5
3 -33 4 -62 1 -46 -1 -50 -17 -42 -23 13 -33 5 -40 -27 -3 -20 1 -28 19 -36
13 -6 24 -17 24 -25 0 -20 28 -16 40 7 15 28 37 25 44 -5 7 -28 40 -34 70 -12
15 11 16 17 5 39 -10 23 -16 26 -40 21 -24 -5 -29 -2 -29 15 0 11 -6 25 -14
31 -8 6 -16 22 -18 35 -4 18 2 26 31 40 20 9 54 28 76 40 39 23 40 23 60 5 19
-17 23 -18 44 -3 18 13 22 24 19 51 -4 29 0 38 26 56 40 28 92 83 121 129 14
20 35 46 47 58 38 35 31 88 -17 136 -22 22 -64 65 -93 97 -29 31 -57 57 -63
57 -5 0 0 19 12 42 16 32 20 53 16 92 -5 50 5 81 40 125 41 52 80 107 134 189
34 50 66 92 71 92 4 0 8 9 8 19 0 11 4 21 9 23 8 3 39 39 106 123 17 21 40 47
53 58 12 11 22 26 22 33 0 6 18 30 40 52 22 22 40 47 40 56 0 9 7 16 15 16 8
0 15 6 15 13 1 29 35 53 75 53 105 1 235 43 280 92 l35 37 -4 85 c-2 53 -10
96 -20 115 -9 17 -16 37 -16 46 0 9 -9 28 -20 42 -11 14 -20 30 -20 35 0 15
-90 87 -130 104 -19 9 -62 28 -95 43 -66 30 -154 40 -200 23z m143 -86 c2 -7
14 -12 27 -12 12 0 28 -7 35 -15 7 -8 16 -13 20 -10 5 3 11 1 15 -5 3 -5 16
-10 27 -10 51 0 148 -112 148 -170 0 -12 7 -35 16 -51 8 -17 13 -33 10 -36 -2
-3 -1 -16 5 -30 7 -20 4 -28 -19 -49 -41 -38 -86 -54 -165 -61 -40 -3 -77 -10
-84 -15 -8 -7 -19 -5 -34 6 -26 18 -44 5 -54 -37 -4 -15 -18 -38 -31 -52 -13
-14 -24 -30 -24 -34 0 -5 -16 -26 -35 -47 -19 -21 -35 -41 -35 -44 0 -3 -8
-15 -17 -26 -10 -10 -44 -51 -75 -90 -31 -39 -63 -77 -70 -85 -8 -8 -25 -30
-38 -49 -13 -19 -28 -39 -33 -45 -4 -5 -34 -50 -67 -100 -107 -160 -166 -240
-182 -243 -9 -2 -23 4 -31 13 -15 14 -14 20 14 64 16 27 36 54 44 61 8 6 31
41 52 76 20 35 41 64 45 64 4 0 8 4 8 10 0 12 150 234 162 238 4 2 8 9 9 15 0
7 16 32 35 57 43 56 125 175 140 201 6 11 21 29 33 40 12 12 27 33 32 47 9 23
6 30 -22 54 -17 15 -36 25 -41 21 -12 -7 -5 276 7 315 4 12 19 29 34 37 32 16
133 15 139 -3z m-763 -1340 c50 -21 125 -72 125 -84 0 -16 -113 -123 -192
-182 -43 -32 -86 -68 -97 -81 -10 -14 -20 -22 -23 -20 -2 2 -3 35 -2 73 1 68
12 117 40 179 8 17 14 36 14 42 0 6 5 11 10 11 6 0 10 4 10 9 0 13 53 70 65
70 6 0 28 -8 50 -17z"/>
<path d="M4563 4336 c-4 -8 -21 -16 -38 -18 l-30 -3 -2 -80 c-1 -73 1 -82 29
-124 62 -89 86 -98 161 -60 23 12 55 24 72 28 22 5 31 14 36 36 4 17 10 39 14
51 4 14 0 27 -12 39 -10 10 -31 39 -48 63 -21 32 -42 50 -70 60 -61 22 -103
25 -112 8z m109 -88 c22 -8 41 -37 35 -53 -1 -2 7 -11 18 -19 19 -14 19 -15
-10 -26 -16 -6 -32 -11 -34 -10 -2 1 -8 -5 -13 -14 -14 -26 -46 -19 -83 19
-28 28 -35 42 -35 74 0 33 4 40 23 44 26 4 61 -1 99 -15z"/>
<path d="M1687 4323 c-4 -3 -29 -14 -57 -24 -27 -10 -56 -23 -63 -31 -8 -7
-32 -28 -55 -47 -23 -18 -42 -39 -42 -46 0 -6 -13 -26 -29 -44 -23 -26 -31
-46 -36 -95 -13 -118 7 -248 44 -287 11 -12 21 -29 21 -36 0 -13 19 -53 30
-63 3 -3 26 -34 50 -70 50 -74 57 -106 66 -310 l5 -125 -31 -12 c-19 -7 -30
-18 -30 -30 0 -22 42 -49 59 -39 6 4 12 1 12 -6 1 -7 4 -31 5 -53 2 -22 6 -57
9 -77 2 -22 0 -38 -6 -38 -15 0 -59 -47 -59 -64 0 -26 42 -31 61 -8 16 21 17
20 23 -21 4 -23 8 -49 10 -57 3 -20 41 -93 47 -89 2 2 33 -16 68 -40 77 -53
122 -67 233 -76 57 -5 87 -12 95 -23 11 -13 16 -14 38 -2 21 11 24 19 20 54
-4 47 -27 69 -59 56 -12 -4 -58 -7 -102 -5 -62 2 -93 9 -144 32 -121 56 -142
85 -155 223 -3 36 -10 94 -16 130 -13 86 -22 347 -11 335 5 -6 15 -26 22 -45
15 -38 27 -50 51 -50 24 0 33 47 14 76 -20 31 -19 37 6 29 107 -34 346 -21
434 24 22 11 62 30 89 43 27 13 73 45 102 71 29 26 54 44 57 40 2 -4 5 -64 6
-133 1 -69 6 -150 11 -180 13 -76 19 -241 11 -264 -12 -33 0 -67 27 -77 17 -6
29 -6 36 1 10 10 12 91 3 198 -5 62 -5 62 22 62 25 0 51 33 51 65 0 19 -37 47
-57 43 -15 -3 -18 -12 -16 -53 2 -33 0 -45 -6 -35 -15 24 -21 101 -27 335 -3
121 -7 240 -8 265 -1 39 -4 45 -23 45 -12 0 -37 17 -55 37 -36 39 -101 63
-142 52 -22 -5 -29 0 -55 43 -16 26 -39 60 -51 75 -11 15 -21 29 -21 32 0 10
-65 81 -138 153 -93 90 -168 128 -267 137 -39 3 -74 3 -77 -1z m199 -115 c57
-27 174 -124 174 -144 0 -5 18 -29 40 -53 22 -25 49 -59 60 -78 l19 -33 -22
-4 c-12 -3 -38 -7 -57 -10 -38 -5 -68 -12 -208 -51 -101 -27 -186 -74 -239
-132 -18 -20 -33 -32 -33 -27 -1 5 -7 -4 -14 -21 l-13 -30 -13 25 c-7 14 -21
34 -31 45 -10 11 -32 46 -49 79 -26 48 -32 74 -37 147 -6 82 -4 91 22 143 55
109 186 189 290 178 28 -3 77 -18 111 -34z m308 -400 c4 3 6 -5 6 -17 0 -28
27 -39 43 -16 29 39 143 22 171 -26 42 -71 -12 -188 -112 -244 -61 -34 -163
-75 -199 -79 -32 -4 -120 -17 -143 -21 -14 -2 -108 9 -156 19 -31 6 -86 33
-112 53 -30 25 -42 111 -19 143 38 54 181 140 233 140 12 0 35 5 51 11 62 25
168 46 200 39 17 -4 34 -5 37 -2z"/>
<path d="M2757 3243 c-4 -3 -7 -21 -7 -40 0 -27 5 -35 26 -43 35 -14 41 -13
47 9 11 42 -40 100 -66 74z"/>
<path d="M2927 3192 c-10 -10 -17 -24 -17 -30 0 -16 64 -42 88 -36 10 3 24 -2
31 -10 18 -22 38 -20 51 4 16 31 -4 58 -48 65 -20 3 -45 10 -54 16 -25 13 -33
12 -51 -9z"/>
<path d="M3127 3105 c-9 -8 -13 -23 -10 -33 5 -22 46 -49 51 -34 1 5 12 8 22
5 15 -4 20 0 20 16 0 54 -49 81 -83 46z"/>
<path d="M424 3092 c-20 -19 -28 -80 -14 -97 8 -10 10 -34 6 -77 -8 -77 -9
-668 -2 -723 14 -109 16 -193 3 -198 -9 -4 -9 -8 1 -15 10 -7 12 -23 7 -64 -5
-37 -3 -58 4 -62 6 -4 11 -18 11 -32 0 -13 3 -24 8 -24 4 0 15 -19 26 -42 10
-24 25 -52 35 -63 9 -11 32 -54 51 -95 19 -41 49 -97 66 -125 30 -49 94 -180
94 -192 0 -4 6 -14 14 -22 8 -9 65 -118 129 -243 63 -124 123 -239 134 -255
11 -15 33 -57 48 -93 16 -36 36 -76 46 -90 9 -14 43 -81 76 -150 77 -158 79
-160 262 -156 69 2 128 5 131 6 3 1 8 2 12 1 46 -7 1227 -12 2443 -12 530 1
629 -2 666 -17 25 -10 27 -9 34 21 4 18 7 46 5 62 -1 17 -3 68 -5 115 -1 47
-6 148 -10 225 -21 425 -25 559 -17 571 4 7 16 13 27 16 25 4 28 51 6 91 -13
22 -22 27 -56 27 -35 0 -42 4 -53 28 -16 36 -94 176 -108 193 -7 8 -24 39 -39
69 -15 30 -37 69 -49 85 -12 17 -26 39 -32 50 -6 11 -21 21 -33 23 -12 2 -19
8 -16 13 4 5 -1 9 -9 9 -9 0 -16 -4 -16 -10 0 -5 -7 -10 -15 -10 -25 0 -8 -66
30 -125 32 -49 177 -327 172 -331 -6 -6 -1292 -15 -1922 -13 -401 1 -827 2
-945 1 l-215 -1 -30 57 c-17 31 -39 71 -50 87 -11 17 -38 66 -60 110 -22 44
-43 82 -46 85 -4 3 -26 43 -49 90 -23 47 -51 97 -61 112 -11 14 -19 31 -19 37
0 6 -31 66 -69 134 -37 67 -80 147 -94 177 -15 30 -43 84 -63 120 -20 36 -60
110 -89 165 -29 55 -69 132 -90 170 -34 64 -78 148 -127 247 l-18 37 313 0
c171 0 317 0 324 0 19 1 37 74 25 97 -10 18 -24 19 -288 17 -153 -1 -313 -4
-356 -7 -50 -4 -78 -3 -78 4 0 14 -50 8 -66 -8z m149 -362 c30 -58 100 -195
157 -305 56 -110 106 -204 110 -210 5 -5 40 -71 78 -145 39 -74 82 -155 96
-180 14 -25 29 -52 32 -60 3 -8 22 -46 42 -85 20 -38 72 -142 117 -230 45 -88
91 -176 103 -195 21 -33 22 -46 22 -225 -1 -104 2 -212 5 -240 3 -27 9 -81 14
-120 7 -56 7 -164 1 -332 0 -18 -13 -16 -37 5 -18 15 -41 56 -166 292 -21 41
-43 80 -47 85 -5 6 -40 73 -80 150 -39 77 -76 147 -80 155 -5 8 -40 78 -78
155 -87 176 -171 338 -202 390 -36 63 -150 293 -150 305 0 5 5 10 10 10 11 0
5 209 -7 260 -9 40 -12 643 -3 634 5 -5 33 -56 63 -114z m2687 -1465 c1037 -5
1298 -9 1308 -19 10 -9 16 -66 22 -187 5 -96 12 -214 14 -264 3 -49 8 -142 11
-205 3 -63 8 -141 10 -172 3 -47 1 -58 -13 -61 -16 -5 -152 -10 -197 -8 -47 1
-892 11 -1385 16 -768 7 -1241 14 -1350 21 -117 6 -106 6 -159 1 -80 -8 -78
-12 -73 137 2 74 -1 165 -8 207 -6 41 -14 167 -17 280 -5 181 -3 207 11 222 9
9 16 20 15 24 -1 4 -1 10 0 13 0 3 117 4 258 3 142 -1 841 -5 1553 -8z"/>
<path d="M1438 3093 c-35 -5 -46 -38 -22 -64 19 -21 47 -18 72 7 7 8 18 14 23
14 6 0 9 10 7 23 -3 23 -25 29 -80 20z"/>
<path d="M3212 3023 c-14 -26 3 -63 28 -63 17 0 20 6 20 40 0 33 -3 40 -20 40
-10 0 -23 -8 -28 -17z"/>
<path d="M1558 3023 c-22 -5 -23 -32 -4 -58 13 -18 17 -18 40 -5 20 10 25 18
20 34 -6 20 -23 37 -34 35 -3 -1 -13 -3 -22 -6z"/>
<path d="M1271 2996 c-14 -17 -5 -43 20 -56 14 -8 24 -6 39 7 24 21 25 27 4
47 -19 20 -48 21 -63 2z"/>
<path d="M1469 2983 c-21 -5 -31 -41 -18 -65 13 -24 31 -23 54 2 15 17 16 24
7 45 -12 25 -14 26 -43 18z"/>
<path d="M1153 2938 c-26 -12 -36 -37 -27 -63 5 -13 14 -16 38 -11 46 10 62
29 48 61 -12 27 -25 30 -59 13z"/>
<path d="M1301 2871 c-22 -14 -6 -58 23 -63 19 -4 25 0 28 17 5 23 -12 55 -28
55 -5 0 -15 -4 -23 -9z"/>
<path d="M1515 2827 c-23 -14 -29 -57 -9 -57 8 0 14 -5 14 -11 0 -8 5 -8 15 1
16 13 21 65 7 74 -4 2 -16 -1 -27 -7z"/>
<path d="M2506 2824 c-22 -21 -20 -40 5 -57 30 -21 59 -10 59 22 0 47 -34 65
-64 35z"/>
<path d="M2686 2818 c-15 -16 -17 -27 -10 -47 8 -22 16 -27 52 -29 36 -3 42 0
42 17 0 19 -45 82 -58 80 -4 0 -16 -10 -26 -21z"/>
<path d="M1409 2797 c-41 -31 -25 -87 26 -87 24 0 35 22 35 73 0 21 -5 27 -22
27 -13 0 -30 -6 -39 -13z"/>
<path d="M2882 2803 c-20 -4 -23 -10 -20 -41 3 -34 6 -37 36 -40 30 -3 32 -1
32 27 0 33 -9 62 -19 60 -3 -1 -16 -4 -29 -6z"/>
<path d="M2997 2764 l-22 -46 25 -20 c22 -18 25 -18 36 -4 19 26 27 98 12 108
-22 13 -28 9 -51 -38z"/>
<path d="M2361 2787 c-18 -23 -7 -62 19 -65 31 -5 41 8 32 43 -9 33 -33 43
-51 22z"/>
<path d="M965 2770 c-10 -32 4 -78 23 -76 23 2 51 32 48 52 -2 10 -17 24 -34
31 -28 11 -31 11 -37 -7z"/>
<path d="M1290 2739 c0 -4 -7 -6 -16 -2 -12 5 -15 -1 -12 -28 3 -30 7 -34 35
-37 28 -3 33 1 39 23 4 15 2 31 -5 38 -14 14 -41 18 -41 6z"/>
<path d="M743 2734 c-20 -9 -15 -48 7 -61 15 -10 22 -10 35 3 33 34 2 76 -42
58z"/>
<path d="M2265 2721 c6 -11 3 -13 -14 -8 -17 4 -24 0 -30 -16 -12 -31 -2 -54
24 -59 19 -4 25 1 31 21 9 31 6 52 -8 66 -8 7 -8 6 -3 -4z"/>
<path d="M1609 2708 c0 -7 -2 -24 -5 -38 -3 -19 2 -28 23 -37 15 -7 27 -12 28
-10 31 62 26 97 -16 97 -16 0 -29 -6 -30 -12z"/>
<path d="M1761 2487 c-14 -14 -14 -33 -1 -57 9 -16 15 -17 41 -8 24 8 30 15
27 36 -3 29 -48 48 -67 29z"/>
<path d="M2684 2494 c-6 -3 -9 -16 -6 -29 7 -38 92 -56 92 -19 0 32 -53 61
-86 48z"/>
<path d="M1518 2435 c-14 -32 1 -51 48 -58 46 -8 64 0 64 28 0 27 -22 48 -43
39 -8 -3 -18 -1 -22 5 -11 19 -35 12 -47 -14z"/>
<path d="M2000 2450 c-8 -5 -24 -7 -36 -4 -12 3 -26 -1 -33 -10 -18 -22 1 -50
43 -63 31 -10 38 -8 61 13 27 25 31 44 13 62 -14 14 -28 15 -48 2z"/>
<path d="M2506 2442 c-9 -28 3 -52 25 -52 24 0 36 27 22 49 -15 23 -40 25 -47
3z"/>
<path d="M3045 2433 c-33 -8 -47 -25 -40 -50 4 -16 1 -23 -9 -23 -17 0 -29
-27 -15 -35 5 -4 7 -11 4 -16 -8 -13 43 -31 67 -23 14 4 16 9 9 18 -6 7 -8 16
-4 19 3 4 -1 9 -9 12 -11 5 -7 14 19 42 45 47 36 70 -22 56z"/>
<path d="M2862 2414 c-9 -17 -5 -53 7 -55 3 -1 21 -2 38 -4 31 -2 32 -1 27 24
-3 14 -7 32 -10 39 -5 18 -51 15 -62 -4z"/>
<path d="M1392 2408 c-16 -16 -15 -46 2 -64 22 -21 43 -17 48 11 6 31 -32 71
-50 53z"/>
<path d="M3356 2407 c-15 -11 -17 -17 -7 -35 14 -27 68 -31 78 -6 15 39 -35
67 -71 41z"/>
<path d="M2073 2383 c-16 -6 -17 -55 -1 -71 7 -7 22 -12 35 -12 13 0 23 -4 23
-10 0 -16 14 -11 27 9 10 15 8 22 -8 37 -11 11 -27 27 -37 37 -17 18 -19 18
-39 10z"/>
<path d="M3550 2329 c0 -26 22 -49 48 -49 13 0 36 56 28 68 -3 6 -22 10 -41
10 -32 0 -35 -3 -35 -29z"/>
<path d="M1254 2324 c-17 -25 -17 -27 1 -40 39 -29 72 -5 52 36 -17 34 -33 35
-53 4z"/>
<path d="M2182 2282 c-16 -35 -15 -46 6 -64 23 -20 56 -27 75 -16 21 11 11 37
-20 49 -13 5 -22 13 -19 18 3 4 -2 15 -12 24 -16 14 -18 14 -30 -11z"/>
<path d="M4015 2272 c-5 -20 -1 -30 17 -44 31 -24 48 -22 48 5 0 27 -17 52
-42 60 -11 4 -18 -2 -23 -21z"/>
<path d="M3090 2240 c-11 -11 -20 -24 -20 -30 0 -18 39 -50 55 -44 10 4 15 19
15 44 0 46 -22 58 -50 30z"/>
<path d="M2266 2184 c-10 -27 -7 -43 13 -63 21 -21 34 -14 43 25 11 43 -41 78
-56 38z"/>
<path d="M3154 2170 c-30 -12 -37 -26 -24 -50 23 -43 75 -8 62 42 -5 20 -8 21
-38 8z"/>
<path d="M4135 2156 c-18 -27 -10 -56 16 -56 23 0 37 25 31 56 -6 31 -27 31
-47 0z"/>
<path d="M3906 2104 c-9 -8 -16 -22 -16 -30 0 -19 41 -35 58 -21 16 13 25 3
27 -31 3 -66 32 -68 63 -4 26 54 22 88 -9 72 -14 -8 -23 -6 -39 10 -24 24 -63
26 -84 4z"/>
<path d="M1369 2089 c-16 -31 6 -72 32 -59 24 13 34 47 19 65 -18 21 -37 18
-51 -6z"/>
<path d="M3550 2080 c0 -23 5 -30 19 -30 11 0 21 9 24 22 8 27 1 38 -24 38
-14 0 -19 -7 -19 -30z"/>
<path d="M2222 2030 c4 -42 35 -53 56 -20 18 29 0 60 -34 58 -22 -2 -25 -6
-22 -38z"/>
<path d="M3458 2043 c-16 -19 -1 -63 21 -63 22 0 53 43 45 63 -6 18 -51 17
-66 0z"/>
<path d="M2022 2038 c-19 -19 -14 -44 11 -55 32 -15 48 -3 45 35 -2 25 -7 32
-23 32 -12 0 -26 -5 -33 -12z"/>
<path d="M4233 2028 c-31 -40 -20 -78 16 -58 16 8 21 19 19 37 -3 30 -20 40
-35 21z"/>
<path d="M1820 1965 c0 -38 24 -59 48 -44 29 18 14 63 -21 67 -23 3 -27 0 -27
-23z"/>
<path d="M3213 1954 c-19 -20 -16 -62 5 -73 38 -20 57 34 25 68 -15 16 -20 17
-30 5z"/>
<path d="M4272 1947 c-25 -27 -29 -65 -7 -73 27 -11 61 48 48 82 -7 20 -16 18
-41 -9z"/>
<path d="M1620 1914 c-8 -21 -8 -31 4 -42 24 -24 48 -7 44 30 -4 43 -34 50
-48 12z"/>
<path d="M3298 1823 c-35 -9 -34 -83 1 -83 26 0 43 24 39 56 -3 29 -12 34 -40
27z"/>
<path d="M1930 1803 c-36 -14 -55 -66 -33 -88 20 -21 28 -19 41 10 7 15 20 25
32 25 15 0 20 7 20 25 0 14 -4 25 -9 25 -5 0 -15 2 -23 4 -7 3 -20 2 -28 -1z"/>
<path d="M2993 1759 c-8 -8 -8 -20 -1 -40 11 -33 12 -33 39 -19 23 13 24 33 3
54 -18 19 -26 20 -41 5z"/>
<path d="M1395 1710 c-9 -29 3 -60 24 -60 26 0 38 17 33 50 -3 23 -9 30 -27
30 -15 0 -26 -8 -30 -20z"/>
<path d="M2049 1691 c-36 -40 -30 -81 12 -81 20 0 33 33 27 71 -4 28 -18 32
-39 10z"/>
<path d="M1628 1679 c-12 -6 -18 -22 -18 -44 0 -23 6 -37 18 -43 24 -13 42 -4
42 21 0 12 4 29 10 37 5 9 5 19 -2 27 -12 15 -27 16 -50 2z"/>
<path d="M1782 1594 c-38 -26 -19 -81 25 -72 25 5 44 47 32 70 -12 22 -28 23
-57 2z"/>
</g>
</svg>
