<?xml version="1.0" standalone="no"?>
<!DOCTYPE svg PUBLIC "-//W3C//DTD SVG 20010904//EN"
 "http://www.w3.org/TR/2001/REC-SVG-20010904/DTD/svg10.dtd">
<svg version="1.0" xmlns="http://www.w3.org/2000/svg"
 width="423.000000pt" height="305.000000pt" viewBox="0 0 423.000000 305.000000"
 preserveAspectRatio="xMidYMid meet">
<metadata>
Created by potrace 1.16, written by Peter Selinger 2001-2019
</metadata>
<g transform="translate(0.000000,305.000000) scale(0.100000,-0.100000)"
fill="#000000" stroke="none">
<path d="M2780 2919 c-19 -4 -80 -13 -134 -19 -73 -7 -106 -15 -120 -29 -12
-10 -40 -30 -63 -45 -24 -14 -43 -33 -43 -41 0 -9 -7 -26 -15 -38 -8 -12 -17
-54 -21 -92 -4 -38 -10 -81 -14 -95 -10 -39 14 -132 53 -204 l36 -65 -42 -12
c-23 -6 -55 -18 -71 -26 -15 -8 -40 -17 -54 -19 -14 -3 -45 -16 -69 -30 -23
-14 -43 -21 -43 -16 0 6 -11 5 -27 -3 -16 -7 -45 -15 -66 -18 -24 -3 -47 -15
-62 -31 -30 -32 -30 -36 -7 -67 11 -13 27 -46 37 -74 10 -27 29 -74 42 -103
12 -29 23 -55 23 -58 0 -3 7 -12 15 -20 8 -8 17 -38 21 -66 4 -29 16 -61 28
-75 19 -22 24 -23 51 -13 35 13 60 38 69 68 4 12 12 22 17 22 6 0 8 4 4 9 -7
12 77 81 98 81 9 0 19 5 22 10 11 17 84 11 128 -11 23 -12 43 -21 45 -20 1 1
23 -18 48 -41 55 -51 74 -93 74 -160 0 -40 -6 -57 -32 -91 -39 -49 -69 -76
-84 -77 -7 0 -14 -7 -18 -15 -3 -8 -12 -15 -21 -15 -8 0 -15 -4 -15 -8 0 -11
-111 -42 -149 -42 -20 0 -34 -7 -41 -19 -12 -23 -14 -91 -2 -91 9 0 26 -41 52
-125 28 -88 44 -131 57 -146 6 -8 15 -27 18 -42 4 -15 11 -30 16 -33 5 -3 9
-12 9 -21 0 -9 10 -27 21 -39 17 -18 28 -22 53 -17 17 3 33 9 36 12 5 6 29 15
145 56 126 45 190 77 200 103 2 7 -1 27 -9 45 -7 18 -18 62 -25 98 -18 92 -3
162 44 212 19 21 35 41 35 47 0 18 91 72 125 73 55 2 126 -65 138 -129 2 -10
9 -32 16 -49 9 -21 10 -45 3 -85 -18 -99 13 -117 113 -65 38 19 73 39 79 44 6
5 29 14 51 21 22 7 45 18 50 24 6 7 22 16 37 19 34 9 41 42 28 121 -10 65 -37
154 -52 172 -6 8 6 14 39 20 59 9 50 7 97 27 70 31 185 132 223 197 27 45 47
142 38 187 -9 49 -79 182 -121 231 -19 22 -58 52 -87 66 -63 30 -177 51 -215
40 -15 -4 -36 -9 -47 -11 -17 -3 -52 -23 -80 -45 -5 -4 -24 -19 -42 -33 l-32
-26 -6 38 c-14 83 -29 139 -47 168 -10 16 -18 39 -18 50 0 22 -35 58 -61 62
-9 1 -27 -7 -40 -18 -12 -11 -34 -22 -48 -25 -14 -3 -45 -11 -69 -18 -39 -12
-42 -12 -28 3 17 19 20 126 4 186 -5 22 -21 54 -34 72 -13 17 -24 35 -24 38 0
4 -11 16 -24 26 -14 11 -27 32 -31 47 -3 15 -17 35 -30 45 -24 17 -100 48
-114 46 -3 -1 -22 -5 -41 -10z m17 -120 c15 -6 38 -20 51 -31 12 -12 22 -18
22 -13 0 5 16 -6 35 -25 19 -19 35 -38 35 -42 0 -4 9 -17 20 -28 16 -16 19
-29 15 -82 -6 -83 -7 -88 -17 -88 -4 0 -11 -18 -14 -40 -4 -22 -11 -43 -15
-46 -5 -3 -9 -21 -9 -39 0 -49 27 -61 99 -44 31 7 76 22 101 34 69 32 92 28
108 -20 24 -70 40 -178 30 -205 -8 -20 -4 -28 22 -49 29 -24 100 -38 100 -19
0 4 6 8 14 8 8 0 16 6 19 14 3 7 19 16 35 19 27 5 110 55 139 83 24 23 89 25
138 4 92 -39 186 -164 184 -244 -1 -50 -51 -156 -74 -156 -5 0 -22 -10 -37
-23 -54 -46 -64 -52 -93 -66 -36 -17 -141 -25 -149 -12 -3 5 -21 2 -40 -7 -29
-13 -35 -21 -38 -55 -2 -23 2 -47 10 -59 18 -24 72 -183 72 -209 0 -13 -15
-25 -47 -40 -27 -11 -55 -24 -64 -29 -13 -7 -18 -3 -23 21 -14 72 -66 180
-102 211 -43 38 -79 58 -105 58 -10 0 -20 4 -24 9 -3 6 -13 8 -23 6 -10 -1
-44 -6 -77 -10 -51 -7 -65 -14 -109 -54 -28 -25 -53 -50 -55 -54 -1 -5 -14
-19 -27 -32 -13 -13 -24 -27 -24 -31 0 -3 -8 -18 -18 -32 -42 -62 -50 -206
-16 -287 17 -41 12 -51 -26 -58 -14 -3 -54 -17 -88 -31 -35 -15 -67 -24 -72
-21 -6 4 -10 1 -10 -4 0 -6 -4 -11 -10 -11 -11 0 -60 92 -60 114 0 7 -7 27
-15 42 -8 16 -15 37 -15 46 0 9 -4 18 -10 20 -5 2 -11 12 -13 23 -1 11 -6 26
-11 34 -11 17 -5 20 86 51 40 14 75 28 76 33 2 4 8 7 13 7 21 0 101 77 120
115 11 22 28 53 36 69 39 74 23 200 -34 268 -20 24 -40 53 -46 65 -5 13 -30
32 -53 44 -24 11 -60 32 -81 46 -77 53 -249 22 -338 -59 -16 -15 -35 -28 -40
-28 -6 0 -30 41 -53 91 -34 72 -41 94 -30 100 7 5 16 9 20 9 4 0 24 11 44 25
21 14 49 28 63 31 27 6 83 28 112 44 9 5 33 12 53 15 20 4 36 11 36 16 0 5 9
9 20 9 46 0 89 77 60 106 -10 10 -33 50 -72 128 -21 40 -34 129 -22 147 3 6 8
31 10 55 3 43 45 124 64 124 6 0 12 0 15 0 3 0 30 9 60 21 30 11 58 18 62 16
5 -3 17 -1 28 4 28 11 40 11 72 -2z"/>
<path d="M1295 1846 c-11 -7 -31 -17 -45 -20 -23 -7 -96 -40 -162 -73 -14 -7
-33 -13 -42 -13 -9 0 -16 -5 -16 -10 0 -6 -6 -10 -12 -8 -17 3 -89 -21 -108
-37 -22 -18 -150 -66 -160 -60 -4 3 -10 2 -12 -3 -5 -12 -283 -106 -353 -119
-16 -3 -32 -9 -35 -12 -8 -10 -62 -32 -89 -38 -42 -7 -211 -95 -221 -114 -16
-29 -12 -50 15 -70 13 -11 34 -38 46 -59 13 -22 27 -40 31 -40 5 0 7 -4 3 -9
-3 -5 -1 -12 4 -15 4 -3 23 -47 41 -98 18 -51 48 -125 67 -165 18 -40 43 -100
54 -135 24 -73 66 -184 82 -213 6 -11 11 -24 12 -30 1 -25 69 -213 96 -268 10
-22 19 -43 19 -49 0 -5 9 -23 21 -39 20 -29 61 -40 73 -20 4 5 39 22 79 37 39
15 77 30 82 34 6 4 28 13 50 20 22 6 55 18 73 27 19 8 36 12 39 10 4 -5 35 18
75 56 25 24 23 61 -7 88 -13 13 -25 29 -25 35 0 6 -7 17 -15 24 -8 7 -13 16
-10 20 3 5 2 10 -3 12 -13 5 -50 91 -53 123 -4 54 21 118 62 158 22 20 48 37
59 37 10 0 22 5 25 11 10 16 143 8 182 -11 52 -25 88 -113 97 -240 6 -83 14
-110 35 -111 55 -3 95 1 114 13 12 8 56 27 97 43 41 16 77 32 80 35 3 4 31 17
64 31 91 37 102 73 55 173 -10 23 -22 56 -24 72 -3 16 -7 41 -11 55 -5 22 -1
26 32 37 20 6 41 9 45 7 11 -7 199 184 211 214 17 44 23 93 22 177 0 65 -4 87
-22 116 -37 60 -85 104 -133 121 -55 21 -196 47 -205 38 -3 -3 -9 -6 -12 -6
-28 -3 -121 -42 -143 -62 -26 -22 -42 -7 -81 75 -41 86 -61 151 -64 200 0 18
-5 37 -10 41 -18 17 -50 21 -69 7z m-15 -201 c0 -7 7 -15 14 -18 8 -3 20 -24
26 -46 6 -23 15 -41 20 -41 6 0 10 -5 10 -11 0 -6 11 -25 25 -43 15 -19 25
-46 25 -65 0 -67 38 -74 117 -20 23 16 44 29 47 29 4 0 26 9 50 21 37 17 58
20 130 16 100 -5 124 -17 162 -83 51 -88 21 -196 -87 -305 -58 -59 -69 -62
-146 -48 -19 4 -72 -26 -80 -45 -5 -12 -6 -37 -2 -56 14 -64 30 -135 34 -148
3 -7 5 -16 6 -20 0 -4 6 -16 12 -27 7 -11 12 -27 12 -35 0 -16 -75 -61 -87
-53 -5 2 -8 0 -8 -5 0 -10 -77 -42 -102 -42 -11 0 -20 16 -28 53 -15 64 -62
166 -95 205 -27 32 -123 82 -170 88 -90 11 -233 -40 -296 -106 -116 -122 -119
-268 -7 -436 l27 -42 -32 -13 c-17 -8 -36 -12 -41 -11 -5 2 -12 -1 -15 -5 -5
-7 -103 -47 -162 -66 -22 -7 -69 74 -72 126 -1 9 -4 17 -8 17 -4 0 -15 30 -25
68 -10 37 -28 87 -41 111 -13 24 -32 75 -44 114 -11 38 -33 93 -49 122 -16 29
-35 72 -44 96 -40 115 -67 184 -76 193 -6 6 -10 17 -10 26 0 19 -27 77 -40 85
-4 3 -17 22 -28 43 l-20 39 46 19 c26 10 49 19 52 20 3 0 16 5 30 11 39 15
168 60 240 82 69 21 282 95 315 109 37 16 129 54 230 93 55 21 107 43 115 48
18 10 70 -23 70 -44z"/>
</g>
</svg>
