<?xml version="1.0" standalone="no"?>
<!DOCTYPE svg PUBLIC "-//W3C//DTD SVG 20010904//EN"
 "http://www.w3.org/TR/2001/REC-SVG-20010904/DTD/svg10.dtd">
<svg version="1.0" xmlns="http://www.w3.org/2000/svg"
 width="616.000000pt" height="634.000000pt" viewBox="0 0 616.000000 634.000000"
 preserveAspectRatio="xMidYMid meet">
<metadata>
Created by potrace 1.16, written by Peter Selinger 2001-2019
</metadata>
<g transform="translate(0.000000,634.000000) scale(0.100000,-0.100000)"
fill="#000000" stroke="none">
<path d="M2805 6320 c-547 -40 -1109 -262 -1575 -619 -643 -494 -1085 -1258
-1201 -2076 -19 -137 -22 -202 -22 -460 0 -256 3 -323 22 -455 133 -935 673
-1768 1464 -2259 182 -113 313 -179 501 -250 403 -154 822 -218 1266 -191 224
13 389 39 583 91 1080 287 1918 1152 2208 2274 124 481 125 1088 3 1576 -276
1109 -1124 1987 -2201 2280 -239 64 -417 88 -698 93 -132 3 -289 1 -350 -4z"/>
</g>
</svg>
