<?xml version="1.0" standalone="no"?>
<!DOCTYPE svg PUBLIC "-//W3C//DTD SVG 20010904//EN"
 "http://www.w3.org/TR/2001/REC-SVG-20010904/DTD/svg10.dtd">
<svg version="1.0" xmlns="http://www.w3.org/2000/svg"
 width="531.000000pt" height="477.000000pt" viewBox="0 0 531.000000 477.000000"
 preserveAspectRatio="xMidYMid meet">
<metadata>
Created by potrace 1.16, written by Peter Selinger 2001-2019
</metadata>
<g transform="translate(0.000000,477.000000) scale(0.100000,-0.100000)"
fill="#000000" stroke="none">
<path d="M3515 4725 c-57 -12 -154 -44 -165 -55 -18 -18 -72 -50 -83 -50 -8 0
-23 -17 -32 -37 -10 -21 -31 -55 -46 -77 -16 -21 -29 -50 -29 -63 0 -13 -6
-34 -14 -46 -7 -12 -13 -32 -11 -44 1 -13 -2 -23 -6 -23 -4 0 -14 -6 -21 -12
-7 -7 -34 -24 -60 -36 -25 -13 -73 -46 -105 -73 -32 -27 -74 -60 -94 -73 -40
-27 -51 -37 -94 -91 -16 -21 -38 -46 -47 -58 -10 -11 -18 -25 -18 -32 0 -6 -8
-29 -19 -51 -18 -39 -38 -85 -59 -136 -23 -55 -51 -187 -53 -249 l-3 -65 -32
0 c-17 0 -39 -8 -48 -17 -10 -9 -25 -17 -35 -17 -10 0 -21 -3 -25 -7 -7 -7
-16 -9 -81 -16 -22 -3 -48 -8 -57 -12 -37 -15 -55 11 -68 97 -6 46 -13 110
-14 143 -2 33 -12 94 -23 135 -11 41 -23 95 -26 120 -16 130 -68 260 -130 322
-56 57 -141 125 -176 143 -19 10 -68 19 -111 22 -62 5 -89 2 -141 -16 -73 -25
-95 -42 -162 -129 -48 -61 -107 -177 -107 -208 0 -9 -6 -28 -14 -42 -22 -44
-38 -122 -42 -207 -9 -214 -8 -307 4 -314 6 -3 18 -43 27 -86 18 -89 30 -133
50 -185 7 -19 24 -69 36 -110 13 -41 29 -86 36 -100 7 -14 13 -34 13 -45 0
-25 10 -40 33 -48 16 -6 15 -11 -15 -39 -70 -68 -195 -244 -257 -363 -23 -44
-63 -120 -89 -170 -27 -49 -59 -127 -71 -172 -27 -96 -22 -92 -186 -118 -60
-10 -115 -22 -121 -26 -6 -5 -14 -6 -17 -2 -4 3 -12 1 -19 -4 -12 -10 -37 -17
-99 -28 -79 -14 -120 -41 -244 -160 -34 -33 -83 -80 -109 -104 -25 -24 -46
-48 -46 -53 0 -5 -13 -26 -29 -46 -18 -23 -31 -54 -35 -82 -12 -88 -14 -143
-6 -164 4 -11 13 -39 20 -61 14 -45 16 -47 94 -128 58 -59 86 -76 146 -84 19
-2 49 -7 65 -9 55 -9 152 -6 172 5 11 5 31 12 44 15 13 3 38 9 54 12 17 4 32
10 35 14 7 9 106 50 121 50 6 0 22 11 35 25 13 14 32 25 43 25 11 0 22 8 25
18 8 24 60 62 73 54 6 -4 19 -38 28 -77 10 -38 31 -89 46 -112 16 -23 29 -44
29 -48 0 -9 68 -66 122 -103 26 -18 48 -37 48 -42 0 -6 8 -10 18 -10 9 0 22
-8 29 -19 7 -11 29 -21 57 -25 l46 -7 -16 -31 c-8 -16 -18 -27 -21 -24 -11 11
-71 -180 -78 -250 -14 -122 -9 -204 14 -227 6 -6 11 -19 11 -28 0 -34 86 -113
163 -151 93 -46 129 -54 242 -52 170 3 243 47 404 239 13 16 40 58 59 94 20
36 44 75 54 85 9 10 15 23 12 27 -3 5 7 37 21 72 14 35 25 75 25 88 0 14 5 30
12 37 6 6 11 24 10 41 0 24 4 30 26 34 36 7 125 39 192 70 30 13 72 30 93 37
75 24 211 112 315 205 83 74 194 190 208 218 17 32 39 34 74 7 14 -11 29 -20
34 -20 5 0 32 -11 60 -24 80 -38 123 -56 135 -56 6 0 11 -4 11 -9 0 -13 57
-31 96 -31 18 0 36 -5 39 -10 4 -6 10 -8 15 -5 5 3 37 -6 72 -21 56 -24 75
-27 168 -26 131 1 294 33 377 73 45 21 73 44 102 82 23 29 45 57 50 63 40 48
55 217 27 286 -30 70 -156 205 -241 258 -31 19 -59 35 -63 35 -32 3 -82 18
-82 25 0 6 -7 10 -15 10 -8 0 -23 4 -33 9 -33 17 -187 70 -222 76 -19 3 -55 7
-80 9 -77 7 -101 16 -91 35 5 9 17 48 26 86 10 39 20 75 24 80 3 6 6 25 7 42
1 18 10 56 19 84 18 54 15 117 -7 130 -21 13 -4 20 98 40 53 10 104 25 114 34
9 8 24 15 33 15 9 0 17 5 17 12 0 6 3 9 6 6 7 -8 138 60 194 101 72 52 166
148 211 215 44 66 64 83 82 68 26 -19 237 6 237 29 0 5 21 20 48 33 81 41 133
124 152 243 10 66 10 92 0 135 -32 131 -140 228 -274 247 -76 11 -74 10 -79
37 -2 10 -9 29 -15 42 -7 12 -11 22 -8 22 9 0 -65 176 -89 212 -14 21 -25 42
-25 48 0 5 -4 10 -9 10 -5 0 -12 8 -16 19 -6 21 -48 67 -88 96 -15 11 -48 39
-72 61 -61 58 -181 122 -252 135 -32 6 -59 12 -61 14 -1 1 2 15 8 30 10 25 5
40 -36 122 -46 91 -90 143 -120 143 -8 0 -14 4 -14 8 0 11 -53 29 -124 41 -33
6 -60 10 -60 10 -1 -1 -28 -7 -61 -14z m150 -114 c5 -5 23 -11 39 -15 17 -4
36 -15 43 -24 17 -21 63 -113 63 -127 0 -6 -56 -10 -147 -10 -82 0 -164 -3
-183 -7 -19 -4 -62 -12 -95 -17 -88 -16 -98 -18 -117 -26 -22 -9 -22 -3 -4 38
8 18 17 39 20 47 17 39 36 63 59 75 15 7 39 20 54 28 40 22 66 30 85 28 9 -1
19 2 22 8 8 12 146 13 161 2z m67 -290 c18 -5 53 -14 78 -19 102 -22 176 -46
210 -68 19 -13 38 -24 43 -24 10 0 66 -39 87 -60 8 -9 45 -38 82 -64 51 -38
70 -58 83 -92 9 -24 20 -44 23 -44 13 0 97 -201 123 -295 10 -34 14 -102 13
-215 -1 -164 -1 -165 -33 -232 -18 -37 -39 -72 -47 -79 -8 -6 -14 -17 -14 -24
0 -7 -7 -18 -14 -25 -8 -6 -24 -31 -36 -55 -45 -93 -201 -225 -357 -303 -130
-65 -188 -80 -340 -89 -67 -4 -93 -2 -93 6 0 7 -6 11 -12 9 -7 -1 -26 2 -43 9
-16 6 -39 14 -50 18 -34 13 -79 5 -97 -18 -22 -29 -12 -77 17 -77 7 0 15 -5
17 -11 2 -6 21 -12 43 -13 22 -1 47 -5 55 -9 33 -14 101 -28 110 -22 5 3 12 0
15 -6 4 -6 18 -8 31 -5 14 4 24 2 24 -4 0 -6 -4 -8 -10 -5 -6 4 -10 -10 -10
-34 0 -22 -9 -87 -21 -143 -11 -57 -23 -118 -26 -137 -3 -19 -18 -60 -33 -90
-15 -31 -30 -71 -34 -90 -6 -31 -34 -95 -118 -267 -16 -34 -38 -71 -48 -82
-11 -11 -33 -44 -51 -74 -18 -29 -42 -64 -55 -78 -21 -24 -145 -187 -161 -213
-5 -7 -44 -44 -88 -82 -44 -39 -82 -73 -85 -76 -3 -3 -39 -28 -80 -55 -41 -26
-77 -52 -78 -56 -2 -5 -7 -6 -12 -3 -4 3 -13 -2 -20 -10 -7 -8 -19 -15 -27
-15 -7 0 -69 -22 -137 -49 -67 -27 -145 -53 -172 -56 -62 -9 -84 -21 -84 -44
0 -10 -7 -24 -15 -31 -7 -6 -17 -33 -20 -58 -11 -77 -13 -84 -39 -157 -26 -75
-103 -215 -117 -215 -5 0 -17 8 -27 18 -10 10 -25 22 -33 25 -8 4 -21 11 -29
16 -8 6 -34 18 -57 27 -23 10 -40 21 -37 26 3 5 2 8 -3 6 -11 -3 -126 32 -138
42 -6 5 -22 11 -35 14 -14 2 -52 11 -85 20 -33 8 -71 17 -85 18 -14 2 -31 7
-37 11 -7 5 -13 4 -13 -1 0 -5 -14 -7 -30 -4 -17 2 -30 9 -30 14 0 19 52 114
80 147 17 18 30 38 30 42 0 14 17 10 34 -7 24 -23 73 -9 91 26 20 39 19 49
-11 76 -26 25 -38 27 -111 24 -28 -1 -63 8 -98 24 -30 14 -55 23 -55 21 0 -3
-28 9 -62 27 -58 29 -118 79 -118 96 0 5 -9 17 -19 29 -30 32 -47 73 -61 148
-8 39 -20 82 -27 98 -7 15 -11 27 -7 27 4 0 1 7 -6 15 -7 9 -20 13 -27 10 -11
-4 -14 5 -13 43 4 105 -7 132 -53 132 -39 0 -53 -44 -43 -129 l9 -75 -44 -38
c-24 -20 -56 -43 -71 -49 -16 -6 -28 -15 -28 -19 0 -4 -10 -10 -23 -14 -12 -3
-43 -18 -67 -34 -60 -39 -99 -49 -101 -25 -3 27 -6 47 -8 53 -1 3 -4 16 -7 30
-2 14 -13 57 -25 95 -11 39 -25 86 -31 105 -24 81 -70 179 -87 185 -32 10 -69
-11 -66 -37 1 -13 3 -28 4 -35 0 -6 7 -18 14 -25 8 -7 20 -38 27 -68 7 -30 17
-63 22 -73 10 -20 35 -112 37 -137 6 -87 7 -141 1 -145 -15 -9 -133 15 -183
38 -71 32 -110 76 -132 148 -20 69 -15 142 14 190 22 37 213 234 261 270 32
23 90 48 130 55 47 9 110 25 146 38 23 8 68 17 100 21 112 12 191 36 203 62 6
13 11 29 11 34 0 6 6 25 13 42 8 18 22 59 33 92 22 71 63 157 108 229 18 28
37 62 41 76 4 14 13 32 20 40 7 8 39 53 70 100 87 129 175 229 291 330 28 25
65 57 82 73 18 15 34 27 37 27 3 0 35 25 72 55 38 30 73 55 80 55 7 0 23 10
37 23 14 13 51 32 83 42 32 11 68 25 79 33 12 7 38 15 59 17 21 3 43 9 49 14
10 8 47 16 119 27 15 2 49 11 77 20 27 9 55 14 62 11 7 -2 21 0 30 5 14 7 19
3 24 -19 3 -16 8 -35 11 -43 3 -8 14 -48 24 -89 21 -77 39 -120 62 -143 7 -7
30 -47 50 -88 30 -62 45 -80 82 -102 64 -39 93 -45 110 -22 8 11 15 25 15 31
0 16 -40 63 -53 63 -30 0 -141 194 -166 290 -7 25 -18 68 -25 95 -17 69 -13
270 7 332 9 26 25 80 37 118 26 89 50 145 72 169 10 11 18 23 18 27 0 9 129
135 173 169 15 12 27 19 27 15 0 -7 94 57 98 68 2 4 12 7 22 7 9 0 23 6 29 14
6 7 26 16 43 20 17 3 39 13 49 21 9 9 45 20 80 26 35 6 78 15 96 20 18 6 58
12 90 16 32 3 59 6 60 7 7 6 127 -4 155 -13z m-1946 -65 c18 -5 59 -33 93 -65
l62 -56 -61 -62 c-34 -35 -64 -62 -68 -60 -4 1 -24 -8 -44 -21 -21 -13 -49
-25 -62 -28 -14 -2 -36 -8 -48 -13 -29 -10 -196 -14 -231 -6 -34 9 -34 22 -1
88 54 106 132 199 188 222 32 14 119 14 172 1z m233 -266 c6 -28 18 -64 26
-80 8 -16 15 -49 15 -72 0 -24 7 -69 15 -101 19 -72 22 -93 30 -195 4 -46 13
-109 20 -140 8 -31 13 -57 12 -58 -1 -1 -29 -11 -62 -23 -33 -13 -88 -40 -122
-62 -34 -21 -66 -39 -70 -39 -5 0 -37 -25 -73 -55 -36 -30 -72 -60 -80 -67
-59 -49 -166 -144 -168 -150 -13 -28 -34 9 -72 125 -24 72 -46 137 -49 142 -3
6 -6 15 -7 21 -1 6 -10 38 -19 70 -53 179 -76 311 -63 368 5 21 9 68 10 105
l2 66 131 1 c115 0 173 8 292 37 31 8 78 34 92 51 8 9 18 16 23 16 5 0 28 20
51 45 23 25 45 45 49 45 3 0 11 -23 17 -50z m2687 -442 c65 -42 95 -97 101
-181 3 -47 0 -73 -15 -108 -19 -43 -76 -109 -96 -109 -4 0 -22 -12 -39 -26
-28 -23 -37 -26 -85 -21 -30 3 -56 8 -59 11 -3 2 10 35 27 73 28 57 34 86 42
183 5 63 9 139 8 169 l-1 54 33 -6 c18 -3 56 -20 84 -39z m-899 -1602 c18 -3
54 -15 80 -27 27 -12 55 -23 63 -25 8 -2 23 -7 35 -12 11 -5 40 -18 64 -28 24
-10 38 -20 32 -22 -6 -2 -11 -10 -11 -19 0 -8 -20 -38 -45 -66 -30 -34 -45
-61 -45 -79 0 -32 -19 -78 -32 -78 -6 0 -8 -6 -5 -12 2 -7 -2 -27 -10 -45 -7
-18 -13 -54 -13 -80 0 -27 -6 -57 -13 -68 -8 -11 -15 -48 -16 -82 -2 -58 -1
-63 26 -78 18 -10 21 -14 8 -11 -11 3 -42 8 -69 12 -28 4 -68 15 -90 24 -23
10 -68 23 -101 30 -33 7 -67 18 -75 25 -8 8 -18 14 -22 15 -34 4 -120 45 -190
90 l-58 37 22 29 c12 16 25 31 28 34 8 7 28 41 45 75 18 37 42 78 77 130 15
22 30 54 34 70 4 17 23 60 42 98 28 53 39 66 54 61 10 -3 18 0 18 6 0 12 67
10 167 -4z m389 -161 c4 -8 12 -15 19 -15 11 0 42 -28 106 -97 23 -25 60 -85
65 -105 1 -5 2 -9 3 -10 8 -10 7 -79 0 -84 -5 -3 -9 -16 -9 -30 0 -13 -4 -24
-8 -24 -5 0 -14 -17 -21 -38 -13 -40 -91 -103 -141 -115 -14 -3 -45 -10 -70
-16 -105 -26 -132 -31 -163 -30 -18 1 -24 3 -14 6 16 4 18 12 14 46 -13 123
47 347 116 431 83 102 93 109 103 81z m-2651 -1295 c33 -5 78 -12 100 -15 59
-9 166 -46 194 -67 13 -10 32 -18 42 -18 10 0 21 -4 24 -10 3 -5 25 -18 48
-28 23 -11 50 -28 60 -40 19 -20 18 -21 -42 -65 -114 -85 -253 -86 -408 -5
-24 13 -43 28 -43 35 0 7 -6 13 -13 13 -27 0 -70 121 -62 173 8 42 9 42 100
27z"/>
<path d="M3345 4036 c-11 -8 -27 -16 -35 -16 -20 0 -40 -24 -64 -74 -20 -42
-17 -125 7 -175 26 -55 137 -83 219 -55 113 37 182 164 136 252 -6 12 -17 22
-25 22 -7 0 -13 4 -13 9 0 14 -29 24 -95 32 -33 4 -71 10 -85 14 -16 4 -32 0
-45 -9z m81 -114 c51 20 84 7 84 -32 0 -27 -40 -67 -82 -83 -22 -8 -88 19 -89
36 0 6 -2 23 -3 37 -2 14 1 35 7 47 l10 22 17 -21 c16 -20 19 -21 56 -6z"/>
<path d="M3135 3615 c-145 -33 -187 -51 -237 -98 -63 -59 -96 -142 -99 -245
-2 -93 18 -135 71 -145 23 -5 30 -12 30 -30 0 -52 168 -235 236 -257 21 -7 59
-23 84 -36 98 -49 201 -51 303 -6 71 32 164 135 172 192 32 222 31 239 -34
381 -25 53 -120 155 -183 196 -39 25 -111 50 -163 57 -11 2 -33 6 -50 9 -16 3
-75 -5 -130 -18z m192 -97 c76 -24 103 -41 164 -99 54 -52 82 -94 98 -149 7
-25 18 -54 25 -65 11 -16 11 -34 1 -90 -16 -89 -34 -155 -43 -155 -4 0 -25
-16 -46 -36 -50 -46 -77 -55 -156 -56 -53 0 -77 6 -128 31 -34 17 -65 31 -69
31 -4 0 -16 9 -28 20 -11 11 -44 43 -72 71 -29 28 -53 58 -53 68 0 9 -4 21 -9
27 -4 5 -18 41 -31 81 -22 67 -25 72 -52 71 -16 -1 -33 -8 -39 -17 -16 -25 -4
101 12 129 56 93 156 139 346 159 7 0 43 -9 80 -21z"/>
<path d="M3290 3449 c-17 -11 -28 -24 -25 -30 4 -5 9 -32 12 -59 l5 -49 -49
-31 c-26 -16 -57 -36 -68 -45 -28 -22 -33 -19 -53 23 -9 20 -20 39 -24 40 -5
2 -8 17 -8 32 0 34 -37 74 -60 64 -8 -3 -22 -8 -32 -11 -37 -11 -31 -51 26
-167 40 -81 69 -126 108 -164 28 -29 58 -52 65 -52 6 0 16 -6 20 -13 9 -15 97
-49 126 -48 9 0 17 -5 17 -10 0 -16 42 -6 62 14 18 17 27 104 10 93 -7 -4
-131 24 -167 39 -16 7 -75 60 -75 68 0 2 9 3 20 4 11 1 39 18 63 37 l43 35 42
-24 c23 -13 42 -20 42 -15 0 10 56 8 66 -3 3 -3 19 -1 35 5 27 9 29 14 29 58
0 30 -5 50 -13 53 -7 2 -25 30 -41 60 -43 86 -121 129 -176 96z"/>
<path d="M3992 3521 c-47 -8 -118 -68 -129 -108 -3 -13 -8 -23 -12 -23 -3 0
-5 -25 -4 -56 3 -62 18 -87 78 -130 33 -24 48 -28 97 -27 52 1 104 23 128 54
3 3 15 11 28 18 12 7 20 16 16 22 -3 5 0 16 6 24 17 21 14 88 -5 127 -22 43
-53 68 -87 68 -17 0 -33 8 -40 20 -7 11 -17 19 -23 19 -5 -1 -29 -5 -53 -8z
m51 -117 c4 -8 14 -14 22 -14 7 0 20 -7 29 -15 13 -13 13 -20 3 -43 -15 -36
-25 -42 -68 -42 -53 0 -83 27 -75 67 14 63 64 90 89 47z"/>
<path d="M2165 2558 c-22 -6 -62 -21 -90 -33 -42 -20 -71 -31 -95 -38 -3 0
-51 -47 -107 -103 -73 -74 -104 -113 -112 -139 -5 -21 -17 -45 -25 -54 -8 -9
-17 -29 -20 -46 -3 -16 -15 -42 -27 -58 -15 -21 -22 -47 -24 -87 -1 -31 -8
-66 -14 -78 -12 -22 -6 -147 10 -196 5 -16 9 -47 9 -70 0 -31 7 -49 30 -75 17
-18 30 -42 30 -52 0 -11 3 -19 8 -19 9 0 72 -63 100 -99 15 -20 30 -24 97 -29
189 -14 332 -2 387 34 21 13 44 24 51 24 8 0 32 18 55 39 23 22 55 47 72 57
16 10 54 45 83 78 28 32 69 77 90 100 21 22 40 51 44 63 3 13 9 23 13 23 5 0
14 17 21 38 6 20 20 49 30 64 11 14 19 37 19 51 0 14 4 27 9 29 16 6 47 93 49
138 3 59 -7 74 -41 61 -30 -12 -34 -28 -13 -56 15 -21 7 -56 -26 -110 -10 -16
-18 -38 -18 -47 0 -10 -3 -18 -8 -18 -4 0 -18 -27 -31 -60 -13 -33 -42 -81
-65 -108 -23 -27 -48 -60 -56 -72 -24 -36 -121 -133 -161 -160 -21 -14 -59
-41 -86 -60 -34 -25 -60 -35 -90 -36 -22 -1 -46 -5 -53 -9 -11 -7 -167 -8
-240 -2 -19 2 -50 4 -67 5 -25 2 -38 10 -55 37 -13 19 -33 40 -45 46 -12 7
-27 25 -33 42 -5 17 -19 36 -30 44 -12 8 -20 26 -20 41 0 15 -5 45 -11 66 -15
52 -15 161 -1 211 7 22 12 52 12 67 0 15 11 51 24 80 13 29 32 73 42 98 21 51
17 44 85 128 28 35 58 66 67 69 10 4 28 18 42 31 32 32 130 79 184 87 51 9 66
21 66 51 0 26 -4 27 -65 12z"/>
<path d="M1963 1918 c-4 -7 -6 -35 -5 -63 3 -68 36 -102 102 -107 44 -3 50 0
76 31 40 47 47 76 23 97 -10 9 -25 14 -34 11 -8 -4 -16 -1 -16 6 -1 7 -4 -4
-8 -23 -7 -40 -33 -50 -66 -26 -17 13 -18 18 -7 35 22 36 15 51 -22 51 -19 0
-38 -6 -43 -12z"/>
</g>
</svg>
