<?xml version="1.0" standalone="no"?>
<!DOCTYPE svg PUBLIC "-//W3C//DTD SVG 20010904//EN"
 "http://www.w3.org/TR/2001/REC-SVG-20010904/DTD/svg10.dtd">
<svg version="1.0" xmlns="http://www.w3.org/2000/svg"
 width="535.000000pt" height="453.000000pt" viewBox="0 0 535.000000 453.000000"
 preserveAspectRatio="xMidYMid meet">
<metadata>
Created by potrace 1.16, written by Peter Selinger 2001-2019
</metadata>
<g transform="translate(0.000000,453.000000) scale(0.100000,-0.100000)"
fill="#000000" stroke="none">
<path d="M2692 4340 c-29 -9 -61 -25 -71 -34 -9 -9 -22 -16 -27 -16 -5 0 -18
-14 -29 -31 -11 -17 -31 -35 -44 -40 -13 -5 -21 -12 -18 -15 7 -7 -30 -44 -44
-44 -5 0 -7 -4 -4 -10 3 -5 2 -10 -2 -10 -5 0 -26 -17 -48 -38 -22 -22 -58
-52 -80 -68 -23 -16 -47 -35 -55 -42 -8 -6 -40 -28 -70 -48 -30 -20 -65 -46
-77 -58 -34 -32 -51 -46 -60 -46 -4 0 -26 -14 -47 -30 -21 -16 -44 -27 -50
-23 -6 3 -8 3 -4 -2 4 -4 -12 -21 -35 -38 -23 -17 -44 -33 -47 -37 -3 -3 -20
-12 -38 -19 -17 -8 -47 -26 -65 -42 -17 -15 -57 -41 -87 -56 -30 -15 -76 -42
-102 -60 -26 -18 -52 -33 -57 -33 -5 0 -16 -6 -23 -14 -8 -7 -28 -21 -45 -29
-17 -9 -76 -48 -131 -87 -54 -38 -104 -70 -109 -70 -5 0 -18 -9 -28 -20 -10
-11 -22 -20 -26 -20 -4 0 -20 -11 -35 -25 -15 -14 -32 -25 -39 -25 -12 0 -35
-66 -55 -155 -14 -67 -15 -68 -22 -80 -15 -25 -17 -107 -3 -140 22 -53 117
-145 151 -145 19 0 38 -12 65 -42 21 -24 39 -46 39 -50 0 -3 17 -9 38 -13 37
-6 38 -8 50 -63 6 -31 14 -106 17 -167 3 -60 11 -128 17 -150 6 -22 13 -78 14
-124 2 -46 8 -97 14 -114 11 -34 14 -178 2 -160 -9 14 -40 22 -104 27 -59 4
-75 -10 -62 -57 9 -29 13 -32 48 -31 25 1 34 -2 27 -9 -5 -5 -7 -22 -4 -37 3
-17 -1 -37 -12 -53 -9 -14 -18 -36 -19 -49 -2 -12 -7 -40 -11 -60 -11 -59 0
-88 34 -88 33 0 43 11 62 63 15 41 42 50 59 17 7 -13 7 -33 0 -67 -17 -76 -6
-137 31 -173 18 -16 36 -31 40 -31 5 -1 15 -2 22 -4 6 -1 22 4 33 11 28 17 34
10 34 -37 0 -56 39 -85 79 -60 9 6 12 19 7 42 -3 19 -8 52 -12 74 -3 22 -8 43
-11 48 -2 4 0 7 4 7 15 0 46 -43 49 -67 9 -83 17 -104 41 -114 32 -12 30 -13
42 24 15 44 -8 129 -54 201 -19 30 -35 63 -35 73 0 17 -12 54 -37 113 -6 14
-9 28 -6 33 7 12 29 -16 37 -46 3 -15 17 -33 31 -39 13 -6 26 -21 29 -34 9
-35 47 -57 79 -45 21 8 26 19 32 61 4 31 3 61 -3 74 -75 156 -85 186 -61 186
6 0 3 7 -6 16 -25 25 -118 15 -145 -16 -24 -28 -22 -52 -26 245 -3 250 -7 324
-17 363 -3 12 -1 35 4 51 10 27 13 28 42 20 21 -6 50 -4 82 4 l50 12 23 -33
c12 -18 22 -36 22 -40 0 -4 12 -13 28 -19 15 -7 49 -22 77 -34 63 -28 93 -27
140 5 21 14 41 26 46 26 4 0 22 -25 39 -55 31 -54 34 -56 102 -70 24 -4 141
58 154 83 10 20 11 20 37 -14 55 -68 141 -86 233 -48 18 8 38 14 43 14 5 0 8
-28 7 -62 -2 -35 2 -119 9 -188 6 -68 9 -137 6 -152 -3 -16 -3 -66 1 -111 4
-45 10 -119 13 -165 l7 -84 -43 3 c-55 3 -129 -10 -129 -22 0 -15 -19 -10 -50
12 -24 19 -36 21 -82 15 -45 -6 -59 -14 -98 -54 -25 -26 -62 -60 -83 -76 -21
-15 -43 -39 -49 -52 -25 -54 52 -76 146 -44 28 10 66 21 84 25 32 7 33 6 26
-22 -4 -15 -11 -31 -16 -34 -6 -3 -9 -8 -8 -10 2 -5 -15 -47 -46 -116 -30 -65
-30 -81 0 -94 30 -14 55 6 102 83 53 87 72 98 166 98 l79 0 -2 -53 c-1 -30 0
-58 3 -63 3 -5 2 -18 -2 -29 -8 -22 7 -76 24 -87 6 -4 21 -8 34 -8 12 0 22 -4
22 -8 0 -15 95 -7 120 11 24 16 25 21 24 122 l0 105 51 0 c46 0 55 -4 95 -42
25 -24 54 -54 63 -68 20 -28 53 -36 75 -18 15 13 9 50 -14 76 -8 9 -33 38 -56
64 -22 26 -44 45 -49 42 -5 -3 -9 -1 -9 5 0 5 -9 13 -21 16 -11 4 -18 9 -15
12 3 3 -1 12 -9 20 -17 16 -8 40 26 77 11 11 19 23 19 28 0 16 19 8 25 -10 8
-27 85 -79 128 -87 98 -19 122 31 92 187 -4 21 -11 38 -15 38 -11 0 -108 66
-136 93 -13 12 -24 33 -24 47 -1 36 -24 62 -51 58 -16 -2 -26 -15 -37 -46 -10
-30 -22 -47 -41 -54 -14 -6 -29 -11 -33 -10 -4 1 -16 -12 -28 -28 -12 -17 -26
-28 -31 -25 -5 4 -10 0 -10 -7 -1 -7 -4 3 -8 22 -3 19 -2 71 2 115 10 102 11
116 3 195 -4 36 -7 72 -6 80 0 8 0 47 0 87 1 88 17 131 66 169 40 31 47 38 69
69 13 18 16 18 28 5 26 -32 99 -82 120 -83 38 0 105 11 126 22 10 6 25 24 33
41 15 34 24 38 32 12 10 -29 68 -53 133 -55 51 -2 66 2 104 28 24 16 47 34 51
39 3 5 21 -3 39 -18 17 -15 45 -30 61 -33 15 -3 32 -11 35 -17 4 -6 8 -63 10
-126 1 -63 7 -145 13 -183 6 -42 7 -74 1 -85 -5 -10 -6 -24 -1 -33 11 -19 1
-89 -12 -89 -5 0 -23 -16 -41 -35 -17 -19 -36 -35 -41 -35 -9 0 -18 -11 -62
-73 -25 -34 -26 -39 -11 -55 11 -12 13 -22 6 -35 -10 -17 -19 -52 -23 -87 -3
-30 -28 -90 -37 -90 -16 0 -10 -21 14 -49 21 -26 25 -27 45 -13 12 8 22 21 22
28 0 13 39 94 45 94 5 0 -1 -41 -8 -65 -7 -23 -18 -80 -22 -110 -2 -26 44 -57
64 -42 16 14 30 48 37 96 3 20 11 45 16 55 16 30 27 0 24 -62 -3 -43 0 -52 14
-52 9 0 20 -3 24 -7 10 -10 48 -15 71 -9 11 3 37 22 59 41 31 29 40 45 44 81
5 51 13 54 36 18 13 -18 24 -24 44 -22 25 3 27 7 28 48 1 25 -1 50 -5 55 -3 6
-6 12 -6 15 -1 16 -29 107 -36 115 -7 10 -12 54 -10 84 1 14 71 -50 71 -66 0
-8 14 -9 72 -4 12 1 15 8 12 31 -4 20 0 36 11 46 9 9 13 24 10 32 -3 9 -13 39
-22 66 -9 28 -22 58 -29 67 -8 8 -14 28 -14 42 0 37 -34 71 -59 58 -10 -6 -21
-8 -24 -5 -7 8 4 44 14 44 5 0 9 5 9 11 0 5 -4 7 -10 4 -5 -3 -10 0 -10 8 0
23 -27 40 -55 33 -17 -4 -25 -13 -25 -28 0 -12 -3 -19 -6 -16 -9 10 -11 289
-1 354 9 63 15 68 60 49 10 -4 46 2 87 15 64 21 70 25 70 50 0 15 7 47 15 70
8 23 13 46 10 50 -15 24 8 35 74 35 38 0 72 2 74 5 3 3 8 21 11 42 3 20 14 58
24 84 19 47 19 50 1 111 -9 35 -15 63 -13 63 3 0 -1 6 -8 14 -7 7 -25 28 -40
47 -14 19 -38 48 -52 64 -14 17 -26 35 -26 42 0 6 -9 15 -20 18 -11 3 -20 10
-20 15 0 12 -154 170 -166 170 -8 0 -52 32 -129 95 -16 13 -33 24 -37 25 -5 0
-20 10 -35 23 -87 73 -134 113 -180 154 -29 26 -63 54 -77 62 -29 20 -94 74
-146 122 -22 20 -66 56 -97 80 -32 24 -69 55 -83 69 -14 14 -41 36 -60 50 -18
14 -47 36 -64 50 -17 14 -39 32 -50 40 -10 8 -40 33 -66 55 -26 22 -62 52 -80
68 -17 15 -36 27 -40 27 -5 0 -21 14 -37 30 -15 17 -31 30 -34 30 -3 0 -22 15
-42 34 -53 50 -125 88 -171 91 -23 1 -65 -5 -94 -15z m128 -82 c0 -6 3 -8 7
-5 3 4 12 2 20 -4 7 -6 13 -8 13 -3 0 5 7 -2 16 -14 11 -16 13 -34 9 -65 -8
-54 -12 -60 -52 -81 -67 -34 -136 -16 -201 52 -35 36 -14 84 51 116 38 18 137
22 137 4z m309 -226 c30 -26 75 -63 100 -82 25 -19 51 -40 56 -46 6 -6 25 -21
43 -34 19 -12 44 -32 56 -44 20 -19 111 -95 296 -247 41 -34 77 -65 80 -68 3
-4 25 -22 50 -41 25 -19 50 -40 55 -46 8 -10 75 -63 150 -121 6 -5 30 -24 55
-43 25 -20 58 -42 74 -50 40 -20 146 -125 146 -145 0 -8 5 -15 11 -15 6 0 8
-9 4 -21 -5 -15 -4 -19 5 -14 6 4 20 -2 31 -14 11 -12 23 -21 27 -21 4 0 7
-15 6 -32 0 -18 5 -39 13 -47 20 -19 11 -88 -13 -106 -11 -7 -30 -22 -43 -34
-22 -19 -24 -19 -47 -3 -13 9 -24 23 -24 30 0 6 -4 12 -9 12 -4 0 -24 24 -44
54 -20 29 -66 85 -104 124 -124 127 -173 181 -173 187 0 10 -63 89 -75 94 -5
2 -79 75 -164 163 -85 87 -159 158 -166 158 -6 0 -45 34 -88 75 -42 41 -84 75
-93 75 -17 0 -304 284 -304 301 0 5 -8 9 -18 9 -35 0 -78 65 -67 101 6 17 12
15 63 -21 31 -22 81 -62 111 -88z m-461 -76 c2 -36 -3 -66 -13 -85 -8 -17 -15
-39 -15 -49 0 -11 -11 -44 -24 -73 -13 -30 -23 -68 -24 -86 0 -18 -7 -47 -16
-65 -20 -45 -36 -107 -36 -144 0 -17 -7 -37 -15 -44 -8 -7 -15 -21 -15 -31 0
-10 -4 -38 -9 -61 -6 -24 -15 -72 -21 -108 -7 -35 -16 -73 -22 -83 -5 -11 -11
-43 -13 -72 -2 -29 -8 -63 -15 -74 -6 -12 -13 -38 -15 -59 -9 -75 -17 -112
-24 -112 -3 0 -7 -21 -8 -46 -2 -26 -7 -52 -14 -60 -6 -7 -12 -23 -13 -36 -2
-18 -23 -89 -32 -106 0 -1 -21 5 -45 14 -24 9 -73 20 -109 25 -102 12 -216 36
-275 57 -16 6 -66 22 -110 35 -193 59 -233 72 -277 94 -26 13 -53 32 -60 42
-7 10 -26 21 -42 25 l-30 7 92 87 c50 48 107 101 127 119 19 18 35 36 35 41 0
4 19 19 42 32 23 14 70 54 105 89 35 35 63 61 63 57 0 -9 19 7 97 82 36 34 69
62 73 62 3 0 116 108 250 240 134 132 247 240 250 240 3 0 35 27 70 59 40 37
68 57 75 51 5 -4 11 -33 13 -64z m272 -46 c0 -5 24 -47 53 -94 71 -118 95
-158 106 -181 6 -11 28 -45 51 -75 22 -30 43 -62 47 -70 4 -8 15 -21 25 -28
10 -7 18 -19 18 -26 0 -7 9 -21 20 -31 11 -10 20 -22 20 -27 0 -13 52 -86 92
-129 18 -20 47 -63 63 -95 16 -33 37 -65 47 -72 10 -7 16 -18 13 -23 -4 -5 -2
-9 3 -9 6 0 15 -13 20 -29 6 -16 33 -63 61 -104 28 -41 51 -77 51 -81 0 -4 18
-29 39 -56 22 -27 47 -71 57 -97 9 -26 23 -55 31 -64 16 -19 16 -25 1 -26 -7
-1 -38 -4 -68 -7 -69 -9 -115 -13 -209 -21 -41 -3 -77 -8 -80 -9 -3 -2 -40 -7
-81 -10 -41 -4 -85 -9 -96 -12 -12 -3 -67 -6 -122 -7 l-100 -2 -6 35 c-3 19
-5 95 -6 169 0 73 -2 136 -5 140 -2 4 -5 29 -6 57 -1 27 -10 72 -19 99 -9 28
-20 95 -25 150 -4 55 -9 116 -11 135 -4 34 -6 421 -3 450 1 8 -2 53 -6 100 -7
77 -6 83 9 71 9 -7 16 -17 16 -21z m-1774 -1003 c23 -17 50 -37 60 -43 17 -10
17 -12 1 -34 -9 -14 -17 -32 -17 -42 0 -23 -27 -23 -66 1 -48 29 -63 68 -55
144 2 17 39 5 77 -26z m1751 -89 c-3 -7 -5 -2 -5 12 0 14 2 19 5 13 2 -7 2
-19 0 -25z m-1507 -63 c6 -8 27 -19 46 -25 19 -7 32 -16 28 -21 -3 -5 -9 -7
-14 -4 -4 3 -11 -6 -14 -19 -8 -31 -29 -38 -91 -30 -38 5 -55 13 -73 35 -20
24 -21 31 -10 51 7 13 16 25 19 28 3 3 8 13 12 23 6 16 9 16 46 -4 22 -11 45
-27 51 -34z m3075 38 c11 -30 -16 -143 -34 -143 -71 1 -83 31 -31 81 22 21 40
48 40 59 0 25 15 26 25 3z m-2888 -128 c15 -2 76 -18 135 -36 l106 -32 -34
-33 c-65 -64 -164 -63 -221 2 -18 20 -30 41 -27 45 3 5 1 9 -4 9 -6 0 -12 15
-14 34 -3 30 -2 33 14 25 9 -5 30 -11 45 -14z m2712 -82 c-3 -72 -25 -130 -53
-139 -50 -17 -136 4 -136 32 0 6 -9 23 -20 36 -10 14 -16 28 -13 32 3 3 0 6
-8 6 -16 1 49 27 96 39 17 4 48 17 70 29 62 33 66 30 64 -35z m-2768 -85 c5
-9 5 -27 1 -39 -5 -12 -5 -45 0 -73 5 -28 11 -85 14 -126 3 -41 8 -88 13 -105
4 -16 5 -73 1 -125 -3 -52 -5 -134 -4 -182 l2 -87 -28 1 c-26 1 -28 4 -35 54
-3 30 -4 58 -1 63 3 5 -1 30 -8 57 -8 27 -15 91 -15 141 0 51 -2 97 -6 103
-17 27 -34 134 -23 141 7 4 7 9 -1 13 -6 4 -10 39 -10 84 1 42 -2 93 -6 113
-6 31 -4 36 16 45 21 10 27 7 52 -25 16 -20 33 -44 38 -53z m406 67 c21 -3 66
-12 100 -21 68 -18 65 -11 48 -100 -5 -22 -43 -44 -78 -44 -24 0 -105 28 -124
43 -15 11 -17 77 -3 77 14 0 7 34 -10 56 -14 16 -13 16 7 5 13 -6 40 -14 60
-16z m2056 -66 c-6 -111 -30 -146 -100 -143 -27 1 -51 3 -55 3 -12 2 -38 58
-41 91 -2 18 -11 40 -21 51 -16 19 -15 20 46 18 35 -1 83 3 108 9 61 13 65 11
63 -29z m-1728 6 c39 -8 85 -16 103 -17 38 -3 50 -14 33 -31 -6 -6 -11 -17
-11 -24 0 -30 -52 -92 -83 -100 -75 -18 -97 1 -122 108 -7 33 -19 67 -27 76
-11 15 -10 16 12 10 14 -4 57 -14 95 -22z m1455 -39 c-8 -54 -23 -80 -62 -107
-33 -24 -61 -26 -114 -8 -39 12 -61 62 -55 126 1 14 81 27 172 29 l65 2 -6
-42z m-310 -14 c0 -26 -10 -53 -31 -85 -29 -44 -33 -47 -75 -47 -39 0 -51 6
-94 46 -85 79 -73 90 128 114 37 4 68 8 70 9 1 0 2 -16 2 -37z m-835 -2 c6 -5
47 -8 92 -6 45 1 79 -2 76 -7 -2 -4 -6 -19 -8 -33 -4 -38 -39 -64 -104 -76
-95 -18 -144 17 -146 102 0 36 0 36 39 33 22 -2 44 -7 51 -13z m503 -26 c2
-14 -2 -32 -9 -41 -7 -8 -18 -24 -24 -35 -5 -11 -23 -27 -39 -36 -16 -10 -38
-24 -48 -32 -31 -26 -71 -28 -89 -5 -23 29 -53 167 -38 176 6 3 64 5 128 3
116 -4 116 -4 119 -30z m976 -100 c-7 -29 -10 -189 -5 -329 5 -152 4 -162 -21
-170 -13 -4 -27 -8 -33 -9 -13 -1 -24 100 -31 296 -5 132 -4 160 9 172 8 8 17
13 20 10 2 -3 15 8 28 25 30 37 41 39 33 5z m-1204 -144 c26 0 59 -46 59 -83
0 -58 8 -202 11 -212 2 -5 0 -59 -4 -120 -14 -229 -17 -242 -37 -229 -5 3 -16
0 -24 -6 -13 -11 -15 -5 -16 36 0 27 -3 60 -5 74 -2 14 -6 84 -9 155 -2 72 -7
195 -10 275 -5 108 -3 140 5 128 6 -10 19 -18 30 -18z m1277 -262 c-3 -8 -6
-5 -6 6 -1 11 2 17 5 13 3 -3 4 -12 1 -19z m-2596 -445 c3 -31 11 -58 23 -75
13 -18 12 -23 -3 -39 -31 -34 -53 -15 -50 45 1 28 4 57 7 64 5 13 22 17 23 5z
m2523 -92 c-4 -25 -6 -52 -5 -60 3 -14 -32 -51 -47 -51 -10 0 -22 56 -22 100
0 16 14 38 38 60 33 32 37 33 40 16 2 -10 0 -40 -4 -65z m-1609 9 c-3 -5 -12
-10 -18 -10 -7 0 -6 4 3 10 19 12 23 12 15 0z m473 -185 c1 -1 4 -31 6 -68 3
-48 1 -69 -9 -77 -15 -13 -59 -4 -50 10 3 5 1 11 -4 14 -5 3 -9 24 -9 46 0 22
-3 44 -6 49 -14 22 6 40 37 34 18 -3 33 -7 35 -8z"/>
<path d="M1120 1611 c0 -7 -5 -9 -11 -6 -12 8 -59 -44 -59 -66 0 -9 -6 -22
-14 -28 -7 -6 -19 -33 -27 -59 -7 -26 -27 -84 -44 -128 -31 -79 -32 -86 -29
-205 4 -155 9 -207 22 -240 6 -15 8 -29 6 -32 -3 -3 0 -16 7 -29 7 -12 12 -40
10 -60 -1 -21 2 -38 7 -38 5 0 12 -13 15 -28 7 -33 121 -156 155 -166 12 -4
22 -12 22 -17 0 -5 6 -9 14 -9 8 0 16 -3 18 -7 2 -5 19 -15 38 -24 19 -9 47
-22 62 -29 15 -7 35 -13 45 -14 35 -4 73 -18 73 -28 0 -5 6 -8 13 -5 6 2 31
-2 55 -8 23 -7 42 -11 42 -9 0 2 24 -5 53 -16 51 -19 240 -53 285 -51 12 0 22
-3 22 -7 0 -5 21 -9 48 -10 26 -1 61 -3 77 -6 72 -9 237 -26 315 -31 94 -6
574 -6 745 0 227 9 320 13 320 15 0 2 27 4 60 6 152 8 236 16 315 31 47 9 94
17 106 18 11 1 24 4 30 7 5 3 34 11 64 18 30 7 100 29 155 47 55 19 122 40
149 47 28 7 52 18 54 24 2 7 10 12 19 12 23 0 103 86 103 110 0 12 6 27 13 34
7 8 19 33 26 57 7 24 16 51 20 59 8 16 32 115 50 210 20 104 10 299 -20 365
-23 53 -89 125 -114 125 -68 0 -85 -45 -39 -105 13 -18 24 -39 24 -48 0 -10 4
-17 8 -17 5 0 15 -24 22 -54 15 -65 1 -122 -35 -136 -13 -5 -26 -14 -30 -19
-3 -6 -15 -11 -26 -11 -10 0 -19 -4 -19 -10 0 -5 -17 -12 -37 -16 -21 -4 -47
-13 -59 -20 -11 -8 -34 -15 -50 -17 -16 -2 -35 -7 -42 -11 -33 -20 -399 -65
-667 -82 -178 -10 -190 -12 -218 -23 -49 -19 -207 -26 -592 -26 -352 0 -501 5
-522 18 -16 10 -134 29 -258 41 -38 4 -83 10 -100 12 -16 3 -52 9 -80 14 -27
4 -66 15 -85 23 -42 18 -152 52 -200 62 -74 14 -131 53 -165 113 -20 34 -84
82 -109 82 -19 0 -47 87 -49 153 -1 45 4 60 36 108 20 31 37 65 37 76 0 10
-13 32 -30 48 -16 16 -30 23 -30 16z m13 -473 c16 3 77 -55 77 -73 0 -6 9 -17
21 -25 12 -8 25 -25 30 -37 6 -16 17 -23 37 -23 15 0 32 -4 38 -10 9 -9 174
-60 196 -60 6 0 35 -11 64 -25 29 -14 74 -27 100 -30 26 -4 51 -8 56 -11 4 -3
42 -7 85 -9 43 -3 89 -7 103 -10 14 -3 43 -7 65 -10 22 -4 67 -13 100 -21 33
-9 103 -18 155 -20 196 -9 836 -10 869 -2 18 6 52 12 75 14 22 2 80 11 129 19
48 7 145 16 215 20 70 3 161 10 202 15 41 6 105 12 142 14 36 3 92 9 125 15
32 6 72 13 88 15 17 3 30 5 30 6 0 1 15 3 33 6 18 2 45 10 61 18 15 8 50 20
77 27 27 6 73 24 102 40 28 16 52 24 52 19 0 -23 -49 -220 -60 -241 -5 -9 -13
-34 -19 -56 -14 -52 -40 -81 -71 -79 -18 1 -32 -8 -48 -31 -21 -30 -74 -62
-127 -76 -11 -3 -49 -17 -85 -30 -36 -14 -87 -28 -114 -31 -27 -4 -54 -10 -60
-13 -10 -7 -21 -8 -111 -17 -27 -3 -50 -6 -50 -6 0 -2 -106 -8 -235 -15 -52
-3 -113 -7 -136 -10 -43 -5 -163 -14 -284 -21 -106 -6 -461 -13 -655 -13 -16
0 -100 7 -185 16 -85 8 -173 17 -195 19 -22 2 -56 7 -75 10 -19 4 -48 8 -65
10 -16 2 -46 6 -65 10 -55 10 -93 16 -112 17 -10 1 -18 5 -18 9 0 4 -21 10
-47 14 -27 3 -54 11 -60 16 -7 6 -13 7 -13 2 0 -5 -4 -4 -8 2 -4 5 -34 18 -67
27 -33 10 -74 22 -91 27 -17 6 -40 10 -51 10 -12 0 -23 3 -25 8 -1 4 -21 16
-43 27 -48 24 -145 116 -145 137 0 9 -7 19 -16 22 -8 3 -13 10 -9 16 3 5 1 17
-5 27 -14 25 -34 77 -32 85 1 4 -3 19 -8 33 -11 30 -25 221 -21 285 2 24 3 24
36 -15 19 -22 41 -39 48 -37z"/>
</g>
</svg>
