<?xml version="1.0" standalone="no"?>
<!DOCTYPE svg PUBLIC "-//W3C//DTD SVG 20010904//EN"
 "http://www.w3.org/TR/2001/REC-SVG-20010904/DTD/svg10.dtd">
<svg version="1.0" xmlns="http://www.w3.org/2000/svg"
 width="519.000000pt" height="427.000000pt" viewBox="0 0 519.000000 427.000000"
 preserveAspectRatio="xMidYMid meet">
<metadata>
Created by potrace 1.16, written by Peter Selinger 2001-2019
</metadata>
<g transform="translate(0.000000,427.000000) scale(0.100000,-0.100000)"
fill="#000000" stroke="none">
<path d="M1310 3924 c-52 -6 -110 -16 -129 -22 -26 -9 -38 -9 -48 0 -11 9 -13
8 -11 -2 2 -9 -10 -16 -34 -20 -34 -6 -73 -28 -135 -78 -30 -23 -56 -129 -54
-217 1 -38 11 -115 21 -170 10 -55 21 -126 24 -158 3 -32 9 -64 13 -69 10 -17
33 -173 39 -273 4 -49 11 -98 16 -108 5 -10 12 -39 15 -65 3 -26 9 -55 14 -64
5 -9 9 -43 9 -75 0 -33 4 -63 8 -68 4 -6 16 -35 27 -65 10 -30 36 -80 57 -111
38 -55 106 -119 127 -119 6 0 11 -3 11 -8 0 -9 54 -39 118 -63 12 -5 32 -14
45 -20 30 -14 164 -18 202 -6 26 8 69 14 215 29 14 2 30 9 36 17 6 8 16 11 22
7 7 -4 12 -2 12 3 0 6 7 11 17 11 9 0 32 12 51 26 19 15 44 28 56 29 11 1 24
3 29 4 15 2 28 57 33 140 3 47 9 100 14 116 14 45 31 170 36 260 3 44 9 98 14
120 5 22 12 65 15 95 4 30 8 71 10 90 2 19 7 82 10 139 3 58 8 107 10 110 2 3
6 40 10 81 4 41 10 81 15 90 4 8 9 35 11 60 5 68 -27 145 -86 206 -54 54 -83
66 -245 100 -36 7 -85 18 -110 24 -137 31 -360 42 -510 24z m440 -107 c14 -4
50 -12 80 -18 112 -22 126 -27 185 -58 33 -17 66 -31 75 -31 25 0 54 -64 47
-106 -6 -39 -34 -77 -48 -68 -5 3 -9 -1 -9 -9 0 -8 -9 -22 -20 -32 -22 -20
-111 -56 -150 -60 -14 -2 -52 -7 -85 -12 -57 -9 -282 -2 -335 11 -14 3 -63 10
-110 16 -47 6 -92 13 -100 17 -8 3 -17 7 -20 7 -21 5 -170 90 -170 97 0 5 -7
9 -15 9 -18 0 -43 46 -51 97 -6 41 0 51 50 80 41 24 62 31 121 43 33 7 71 16
85 20 29 10 432 6 470 -3z m-649 -387 c18 -7 42 -20 52 -29 10 -8 23 -16 30
-17 7 -1 57 -11 112 -23 55 -11 152 -28 215 -37 215 -32 506 3 596 71 l36 28
-7 -44 c-3 -24 -8 -74 -11 -110 -2 -36 -8 -87 -13 -114 -5 -27 -7 -54 -5 -60
3 -7 -2 -57 -11 -111 -9 -54 -18 -139 -21 -189 -2 -49 -9 -94 -14 -99 -6 -6
-10 -25 -10 -44 0 -18 -8 -65 -17 -105 -9 -40 -17 -80 -16 -89 0 -10 -4 -18
-8 -18 -5 0 -9 -12 -9 -26 0 -19 -4 -25 -15 -20 -11 4 -15 -2 -15 -20 0 -19
-8 -29 -37 -41 -21 -9 -40 -17 -43 -18 -3 0 -19 -8 -35 -17 -34 -18 -158 -38
-286 -45 -70 -4 -87 -2 -98 11 -8 9 -20 16 -29 16 -36 0 -131 59 -187 115 -72
73 -102 149 -107 262 -2 40 -6 73 -10 73 -5 0 -8 9 -8 21 0 12 -7 49 -16 83
-9 33 -18 71 -19 83 -7 50 -16 110 -25 153 -5 25 -12 69 -14 98 -3 29 -8 58
-12 64 -4 6 -9 25 -11 42 -15 130 -23 184 -29 206 -7 25 -7 25 27 -5 19 -17
51 -37 70 -45z"/>
<path d="M3850 3400 c-157 -23 -189 -30 -240 -53 -30 -13 -76 -34 -102 -45
-27 -12 -49 -29 -53 -41 -3 -12 -16 -26 -27 -32 -19 -10 -20 -17 -13 -92 4
-45 14 -95 22 -111 8 -16 19 -54 23 -85 5 -31 14 -83 21 -116 6 -33 13 -85 15
-115 3 -30 11 -75 20 -100 20 -61 64 -260 75 -343 5 -37 16 -91 24 -120 15
-55 68 -208 79 -225 13 -22 61 -72 68 -72 9 0 90 -51 98 -62 3 -3 39 -15 80
-25 120 -29 324 -18 400 22 32 17 87 38 95 35 11 -2 80 75 94 105 7 17 17 38
22 48 5 9 16 43 23 75 8 31 21 84 30 117 9 32 16 75 16 95 0 20 4 40 9 45 5 6
11 42 14 81 2 39 10 80 16 92 6 11 8 27 5 35 -3 8 0 39 6 68 13 66 41 346 41
414 0 172 -13 231 -47 218 -12 -4 -14 0 -9 20 7 25 -9 68 -23 65 -4 -1 -20 4
-37 11 -60 27 -71 30 -135 40 -218 35 -265 42 -360 50 -127 11 -178 11 -250 1z
m260 -94 c52 -3 133 -13 180 -21 47 -8 103 -18 125 -21 88 -11 155 -45 153
-78 0 -11 2 -37 6 -56 6 -30 4 -39 -19 -60 -15 -14 -30 -24 -33 -23 -12 4 -52
-9 -52 -17 0 -40 -393 -55 -630 -24 -63 8 -119 19 -124 24 -6 6 -20 10 -33 10
-37 0 -110 51 -132 92 -11 22 -16 40 -10 43 5 4 7 10 4 15 -6 10 82 67 127 81
47 15 277 46 313 43 17 -2 73 -6 125 -8z m494 -368 c-2 -18 -5 -73 -9 -123 -6
-90 -23 -211 -50 -360 -1 -5 -3 -14 -4 -20 -2 -5 -2 -28 -1 -50 0 -22 -11 -85
-26 -140 -14 -55 -27 -109 -28 -120 -5 -41 -19 -85 -27 -85 -5 0 -9 -6 -9 -14
0 -25 -41 -86 -57 -86 -8 0 -36 -11 -62 -24 -65 -34 -102 -44 -184 -52 -172
-14 -313 45 -371 156 -28 54 -64 160 -68 205 -2 17 -6 32 -10 35 -4 3 -9 34
-13 69 -3 36 -10 83 -16 105 -6 23 -14 59 -19 81 -5 22 -16 67 -25 100 -9 33
-18 76 -20 95 -5 63 -16 134 -26 170 -5 19 -9 45 -9 56 0 20 4 21 33 14 17 -4
45 -13 62 -19 16 -7 52 -14 80 -16 27 -2 57 -6 65 -9 24 -8 107 -16 225 -21
61 -3 121 -7 134 -10 12 -3 37 -1 55 4 17 5 69 12 115 15 45 3 88 9 95 14 6 6
27 13 46 17 19 4 40 10 45 14 9 6 64 27 76 30 3 0 4 -14 3 -31z"/>
<path d="M2755 1888 c-82 -4 -179 -13 -215 -20 -36 -6 -67 -12 -70 -13 -3 0
-11 -4 -18 -9 -7 -4 -19 -5 -27 -2 -8 3 -17 1 -20 -4 -4 -6 -15 -10 -26 -10
-76 0 -267 -146 -271 -206 -2 -50 5 -139 17 -214 3 -14 7 -56 11 -93 3 -37 10
-82 15 -100 5 -18 14 -63 20 -102 36 -256 49 -325 70 -370 6 -11 11 -31 13
-45 3 -27 7 -39 36 -110 61 -147 103 -239 118 -261 9 -13 17 -30 18 -37 3 -16
59 -66 94 -84 14 -7 43 -24 65 -37 22 -14 42 -26 45 -26 21 -4 50 -18 50 -25
0 -5 8 -8 18 -8 9 1 52 -7 94 -16 56 -13 101 -16 170 -12 139 8 155 11 201 42
47 32 157 135 157 147 0 5 13 27 29 50 15 23 34 60 41 82 7 22 18 54 26 70 7
17 16 50 19 75 3 25 10 54 14 65 5 11 14 52 21 90 6 39 13 77 14 85 2 8 8 40
14 70 6 30 14 67 16 82 3 15 7 31 10 36 2 4 7 36 10 71 4 34 11 72 18 84 6 12
13 42 15 67 1 25 5 77 8 115 11 161 11 181 -1 206 -7 15 -16 42 -19 60 -7 40
-41 94 -90 143 -19 19 -35 40 -35 46 0 5 -9 10 -20 10 -11 0 -20 4 -20 8 0 8
-52 29 -105 43 -16 4 -64 16 -106 28 -102 28 -244 37 -424 29z m285 -103 c36
-2 72 -6 80 -9 8 -3 26 -7 40 -10 14 -2 58 -13 97 -25 52 -15 72 -26 76 -41 3
-11 16 -24 29 -29 28 -11 43 -27 69 -78 19 -38 25 -73 11 -73 -4 0 -13 -15
-21 -32 -20 -46 -124 -145 -160 -153 -17 -3 -48 -15 -70 -26 -22 -10 -50 -18
-63 -17 -13 1 -40 -4 -61 -11 -57 -19 -434 -3 -479 20 -9 5 -30 9 -46 9 -57 0
-181 51 -239 99 -42 35 -83 116 -83 164 0 31 8 46 43 82 23 25 48 45 55 45 6
0 12 4 12 8 0 4 21 14 48 21 26 7 58 17 72 22 14 5 39 11 56 13 17 1 37 7 45
12 30 18 271 23 489 9z m424 -494 c-4 -9 -8 -32 -10 -51 -3 -47 -23 -170 -31
-195 -6 -21 -9 -40 -17 -112 -3 -23 -12 -72 -21 -110 -9 -37 -18 -76 -20 -86
-2 -9 -6 -21 -9 -26 -3 -4 -8 -35 -11 -67 -7 -70 -53 -214 -75 -231 -8 -7 -12
-13 -8 -13 10 0 -20 -48 -52 -86 -50 -57 -112 -97 -160 -105 -114 -18 -281 -6
-339 25 -118 61 -150 83 -188 131 -24 29 -43 57 -43 64 0 6 -4 11 -10 11 -5 0
-10 10 -10 23 0 12 -9 39 -19 58 -31 58 -70 154 -87 217 -9 31 -23 80 -30 107
-14 48 -41 205 -51 290 -2 22 -11 69 -19 104 -8 35 -12 66 -10 69 3 2 17 -5
32 -17 33 -26 209 -84 292 -96 19 -3 64 -11 100 -19 127 -26 482 -4 567 35 22
10 50 20 62 22 13 2 34 13 47 25 14 11 39 28 56 37 16 8 36 24 42 35 12 19 13
19 21 -2 4 -12 5 -29 1 -37z"/>
</g>
</svg>
