<?xml version="1.0" standalone="no"?>
<!DOCTYPE svg PUBLIC "-//W3C//DTD SVG 20010904//EN"
 "http://www.w3.org/TR/2001/REC-SVG-20010904/DTD/svg10.dtd">
<svg version="1.0" xmlns="http://www.w3.org/2000/svg"
 width="491.000000pt" height="309.000000pt" viewBox="0 0 491.000000 309.000000"
 preserveAspectRatio="xMidYMid meet">
<metadata>
Created by potrace 1.16, written by Peter Selinger 2001-2019
</metadata>
<g transform="translate(0.000000,309.000000) scale(0.100000,-0.100000)"
fill="#000000" stroke="none">
<path d="M1460 2693 c0 -9 0 -9 -136 -16 -50 -3 -125 -12 -165 -20 -103 -21
-229 -38 -239 -32 -5 3 -10 1 -12 -4 -1 -5 -23 -11 -48 -14 -47 -6 -65 -10
-90 -20 -8 -3 -46 -16 -85 -27 -206 -62 -242 -75 -262 -93 -13 -11 -23 -17
-23 -13 0 13 -57 -58 -90 -113 -46 -75 -45 -146 4 -294 20 -59 36 -113 36
-121 0 -8 7 -27 15 -42 8 -16 15 -40 15 -54 0 -14 9 -50 20 -80 11 -30 20 -61
20 -68 0 -8 6 -28 14 -45 14 -33 50 -189 61 -265 4 -23 16 -66 27 -95 11 -28
31 -99 43 -157 13 -58 35 -148 49 -200 14 -52 30 -115 37 -140 6 -25 20 -72
31 -105 12 -33 22 -71 23 -85 6 -54 28 -89 91 -141 110 -92 227 -145 379 -171
82 -13 273 -10 370 7 50 9 102 17 116 19 14 2 35 8 45 14 11 5 33 12 49 16 47
8 185 65 185 76 0 12 49 60 61 60 7 0 9 3 6 7 -4 3 2 12 13 20 11 8 20 22 20
31 0 10 9 26 21 35 17 15 19 26 15 65 -3 26 -1 63 4 82 5 19 11 68 15 108 3
40 14 100 25 135 10 34 21 80 25 102 9 59 16 68 49 55 37 -14 75 -13 143 5 65
17 183 72 183 85 0 5 16 25 35 46 22 23 35 47 35 63 0 15 5 32 11 38 27 27 3
129 -42 178 -16 16 -29 33 -29 38 0 4 -5 7 -10 7 -6 0 -29 17 -51 38 -23 20
-54 49 -71 65 -16 15 -32 27 -34 27 -2 0 -19 15 -37 34 -28 28 -32 38 -25 62
5 16 10 52 13 79 5 54 22 134 36 175 5 14 16 70 24 125 9 55 19 117 22 138 3
21 10 40 14 43 16 10 9 79 -11 104 -11 14 -20 30 -20 37 0 17 -70 85 -112 110
-36 21 -168 45 -323 59 -38 3 -83 8 -100 10 -16 2 -106 6 -198 9 -93 3 -173 7
-178 11 -5 3 -9 2 -9 -3z m274 -108 c78 -3 145 -10 152 -16 7 -6 18 -8 23 -5
9 6 84 -5 230 -34 86 -16 161 -77 161 -129 0 -51 -61 -141 -131 -193 -38 -28
-155 -88 -173 -88 -6 0 -23 -7 -39 -15 -53 -27 -231 -64 -342 -70 -60 -3 -117
-8 -125 -10 -8 -2 -44 -7 -80 -10 -36 -3 -76 -8 -90 -11 -14 -2 -102 0 -195 6
-94 5 -200 12 -237 14 -37 2 -100 14 -140 26 -125 38 -242 82 -259 96 -8 8
-20 14 -26 14 -17 0 -73 69 -73 89 0 30 28 76 70 115 33 30 61 43 155 71 63
18 119 36 125 40 19 12 116 33 205 44 125 17 146 20 175 31 33 12 109 22 200
26 41 2 102 8 135 12 33 5 78 7 100 6 22 -2 102 -6 179 -9z m541 -452 c-4 -21
-8 -46 -7 -55 0 -10 -3 -18 -7 -18 -5 0 -14 -35 -20 -77 -15 -94 -26 -148 -47
-233 -8 -36 -22 -94 -30 -130 -7 -36 -17 -72 -20 -80 -3 -8 -8 -35 -11 -60 -5
-55 -33 -172 -42 -183 -4 -4 -19 2 -33 13 -15 11 -31 20 -37 20 -6 0 -11 5
-11 10 0 6 -6 10 -14 10 -8 0 -16 3 -18 8 -4 10 -63 42 -78 42 -6 0 -30 13
-53 29 -23 15 -76 50 -117 77 -41 27 -80 54 -87 59 -7 6 -19 16 -27 23 -8 6
-20 12 -26 12 -5 0 -10 4 -10 9 0 5 -14 12 -30 16 -17 4 -36 12 -43 20 -7 7
-26 15 -43 19 -41 8 -66 -14 -62 -55 3 -27 11 -36 53 -58 27 -14 51 -29 53
-33 2 -5 9 -8 16 -8 12 0 43 -21 75 -51 10 -8 24 -19 32 -22 23 -12 115 -73
150 -102 14 -12 52 -34 85 -50 32 -17 62 -34 65 -38 7 -9 44 -32 69 -42 44
-18 65 -36 62 -52 -2 -10 -5 -31 -7 -46 -2 -16 -8 -40 -13 -55 -9 -23 -44
-186 -58 -272 -2 -14 -5 -58 -7 -98 -3 -50 -8 -77 -18 -83 -8 -5 -11 -9 -7 -9
14 0 -110 -120 -124 -120 -8 0 -18 -3 -22 -7 -11 -11 -155 -51 -261 -72 -122
-25 -299 -21 -410 10 -94 25 -190 71 -207 99 -7 11 -17 20 -22 20 -16 0 -96
94 -102 120 -3 14 -26 88 -50 165 -40 129 -84 293 -103 390 -5 22 -13 52 -19
68 -7 15 -9 27 -6 27 4 0 2 6 -3 13 -10 11 -22 56 -62 232 -24 103 -56 219
-75 272 -9 23 -20 66 -25 95 -5 29 -16 71 -24 93 -18 46 -5 57 35 31 13 -8 55
-24 93 -36 39 -12 81 -27 95 -33 14 -6 29 -10 33 -9 4 1 16 -2 26 -7 18 -10
56 -15 211 -28 109 -9 448 -10 520 -1 30 4 98 10 150 13 52 4 127 13 165 21
39 8 77 16 85 17 9 2 20 6 25 9 11 6 123 41 140 44 37 5 235 120 251 145 12
20 16 7 9 -28z m5 -513 c0 -6 8 -14 18 -17 9 -4 22 -12 28 -17 6 -6 26 -22 44
-36 116 -91 150 -136 132 -174 -6 -11 -13 -33 -16 -48 -17 -76 -222 -147 -281
-96 -19 16 -22 25 -15 47 4 15 11 57 16 92 4 35 8 66 9 69 1 3 7 25 15 50 7
25 13 49 12 53 -4 16 19 87 28 87 6 0 10 -5 10 -10z"/>
<path d="M1280 1783 c-40 -13 -63 -30 -74 -58 -19 -45 -27 -95 -16 -95 6 0 10
-7 10 -16 0 -9 16 -31 35 -50 72 -69 173 -23 119 54 -9 13 -22 21 -29 19 -6
-3 -19 3 -27 12 -23 27 1 55 42 49 35 -5 75 27 51 41 -7 5 -12 11 -11 15 4 16
-8 23 -45 29 -22 3 -47 3 -55 0z"/>
<path d="M4140 2393 c0 -7 -8 -13 -18 -13 -10 0 -30 -17 -43 -37 -22 -34 -61
-92 -247 -363 -24 -36 -75 -105 -113 -155 -116 -154 -186 -247 -241 -322 -29
-40 -61 -83 -71 -95 -11 -13 -26 -36 -34 -53 -9 -16 -19 -32 -22 -35 -3 -3
-12 -17 -20 -32 -8 -16 -20 -28 -28 -28 -7 0 -13 -6 -13 -12 0 -10 -2 -10 -8
-1 -11 17 -57 32 -80 26 -11 -2 -22 0 -26 5 -9 14 -143 -16 -171 -39 -71 -58
-155 -141 -178 -177 -16 -23 -33 -42 -38 -42 -5 0 -9 -8 -9 -19 0 -10 -10 -33
-22 -52 -13 -19 -34 -56 -47 -84 -13 -27 -32 -62 -42 -76 -17 -25 -22 -69 -8
-69 4 0 11 -9 14 -20 4 -11 10 -18 15 -15 4 2 18 -3 31 -13 13 -10 35 -23 49
-30 14 -6 36 -20 50 -31 14 -10 77 -52 140 -94 63 -41 124 -84 135 -94 29 -27
117 -83 130 -83 6 0 25 -14 42 -30 22 -21 38 -29 54 -26 13 3 27 5 31 5 4 1
20 20 34 43 15 24 34 51 43 60 26 27 34 39 79 114 23 38 42 76 42 82 0 7 4 12
8 12 14 0 33 99 39 195 6 117 -14 199 -57 236 -38 32 -38 49 0 104 17 24 30
48 30 53 0 6 14 22 31 36 17 14 27 26 22 26 -4 0 -3 4 3 8 6 4 28 36 48 72 21
36 48 76 61 90 13 14 32 41 42 61 11 20 38 59 61 87 23 27 42 55 42 61 0 6 5
11 10 11 6 0 10 6 10 14 0 8 15 34 33 58 52 70 83 121 141 230 56 107 113 197
148 235 20 21 33 41 59 90 10 19 9 26 -6 43 -10 11 -33 22 -52 26 -21 4 -43
18 -58 38 -14 17 -25 25 -25 19z m-47 -229 c-7 -20 -53 -66 -53 -54 0 9 49 70
56 70 2 0 1 -7 -3 -16z m-89 -141 c-20 -38 -51 -95 -68 -128 -25 -50 -63 -106
-114 -170 -5 -6 -17 -24 -27 -40 -21 -34 -58 -82 -79 -105 -8 -8 -24 -34 -36
-57 -12 -23 -28 -47 -36 -54 -8 -6 -14 -15 -14 -20 0 -8 -58 -97 -70 -109 -3
-3 -27 -34 -54 -70 -26 -36 -57 -78 -69 -94 -12 -15 -26 -41 -30 -57 -4 -16
-14 -29 -21 -29 -8 0 -16 -12 -19 -27 -6 -32 17 -83 37 -83 8 0 28 -8 45 -17
38 -22 53 -68 46 -139 -13 -126 -18 -150 -42 -198 -15 -28 -26 -54 -25 -57 1
-4 -9 -18 -22 -32 -13 -14 -26 -30 -27 -35 -2 -6 -19 -28 -38 -50 -34 -39 -34
-39 -65 -24 -17 9 -33 18 -36 22 -3 3 -35 28 -72 54 -38 26 -68 52 -68 57 0 5
-9 9 -19 9 -11 0 -22 4 -25 9 -10 15 -120 88 -146 96 -12 4 -33 17 -44 30 -12
12 -36 30 -53 39 -18 9 -33 20 -33 25 0 12 31 74 46 91 7 8 13 17 13 20 0 11
13 46 22 60 5 8 17 27 27 42 9 16 22 28 29 28 7 0 20 16 29 35 9 19 20 35 24
35 5 0 24 15 44 33 19 17 41 37 49 43 16 13 125 15 133 3 2 -4 11 -6 19 -2 8
3 15 0 15 -6 0 -6 6 -11 14 -11 8 0 16 -7 20 -15 8 -22 59 -19 79 5 9 11 17
22 17 24 0 3 12 17 26 33 15 15 69 93 121 173 52 80 98 147 103 150 4 3 18 21
31 40 13 20 30 42 36 50 18 22 186 253 198 272 22 36 156 218 161 218 2 0 -12
-30 -32 -67z"/>
</g>
</svg>
