<?xml version="1.0" standalone="no"?>
<!DOCTYPE svg PUBLIC "-//W3C//DTD SVG 20010904//EN"
 "http://www.w3.org/TR/2001/REC-SVG-20010904/DTD/svg10.dtd">
<svg version="1.0" xmlns="http://www.w3.org/2000/svg"
 width="563.000000pt" height="399.000000pt" viewBox="0 0 563.000000 399.000000"
 preserveAspectRatio="xMidYMid meet">
<metadata>
Created by potrace 1.16, written by Peter Selinger 2001-2019
</metadata>
<g transform="translate(0.000000,399.000000) scale(0.100000,-0.100000)"
fill="#000000" stroke="none">
<path d="M1352 3650 c-7 -16 -24 -45 -37 -64 -12 -18 -26 -45 -30 -57 -14 -48
-60 -110 -85 -116 -38 -9 -190 -85 -190 -94 0 -5 -6 -9 -13 -9 -7 0 -74 -59
-148 -131 -129 -126 -202 -178 -234 -165 -8 3 -16 2 -19 -2 -2 -4 -34 -23 -71
-42 -90 -46 -145 -107 -145 -158 0 -21 5 -43 12 -50 6 -6 13 -31 14 -54 5 -79
25 -163 43 -183 23 -25 34 -55 20 -55 -10 0 -7 -47 7 -123 9 -43 44 -57 204
-81 103 -16 152 -15 158 2 6 19 14 15 60 -27 24 -21 61 -44 84 -52 41 -13 66
-30 119 -82 16 -15 33 -27 39 -27 5 0 10 -3 10 -7 0 -5 15 -24 33 -45 104
-118 101 -109 92 -242 -13 -216 -68 -364 -187 -506 -7 -8 -31 -38 -53 -65 -41
-52 -69 -85 -111 -130 -13 -14 -24 -29 -24 -33 0 -20 -133 -143 -234 -217 -53
-38 -131 -99 -174 -133 -42 -35 -101 -77 -130 -94 -63 -36 -134 -105 -152
-147 -17 -43 -5 -97 27 -118 18 -12 49 -18 102 -18 73 -2 147 -11 164 -22 8
-5 125 -4 182 1 17 2 41 4 55 5 23 1 38 12 119 81 13 11 27 20 31 20 3 0 38
30 77 67 38 38 83 80 99 95 32 30 47 45 72 71 9 9 22 17 28 17 7 0 14 3 16 8
2 4 30 29 63 57 33 27 78 65 101 85 22 19 60 51 83 70 24 19 77 68 119 107 43
40 83 73 91 73 8 0 25 10 38 22 20 19 25 20 33 8 15 -24 11 -134 -6 -175 -8
-21 -14 -49 -13 -64 1 -14 -8 -48 -20 -74 -11 -27 -21 -53 -21 -59 0 -5 -9
-21 -20 -35 -11 -14 -20 -31 -20 -37 0 -12 -48 -49 -150 -116 -47 -31 -77 -61
-130 -127 -6 -7 -10 -17 -10 -23 0 -5 -3 -10 -8 -10 -14 0 -43 -66 -36 -83 9
-24 53 -44 89 -40 17 1 53 -5 80 -14 57 -19 114 -23 122 -10 3 5 30 7 62 6 31
-1 64 1 74 5 9 5 24 6 32 3 8 -4 37 1 65 9 28 8 54 12 59 10 5 -3 22 1 37 9
16 8 34 15 41 15 6 0 13 3 15 8 7 17 84 72 100 72 10 0 31 19 48 42 16 22 30
38 30 34 0 -4 15 8 34 26 19 18 44 42 57 53 52 44 91 108 120 197 16 50 29
103 30 117 1 14 15 67 33 116 l31 90 55 2 c91 3 286 22 305 29 10 4 20 1 25
-6 5 -8 13 -9 21 -4 8 5 32 9 55 10 37 1 86 14 139 35 11 4 49 10 85 13 82 6
140 16 162 27 20 11 16 -9 -24 -106 -16 -38 -31 -74 -32 -80 -2 -5 -11 -27
-20 -47 -9 -21 -17 -50 -18 -65 -1 -16 -5 -33 -10 -39 -5 -7 -10 -20 -12 -30
-7 -35 -38 -104 -47 -104 -5 0 -9 -7 -9 -15 0 -9 -6 -18 -14 -21 -8 -3 -17
-16 -20 -28 -4 -18 -15 -25 -45 -30 -22 -3 -56 -16 -75 -27 -20 -12 -36 -18
-36 -15 0 3 -22 -6 -49 -19 -27 -14 -59 -26 -72 -27 -13 -2 -27 -11 -31 -21
-4 -9 -19 -22 -33 -27 -14 -5 -25 -16 -25 -24 0 -8 -11 -27 -24 -43 -29 -34
-32 -48 -23 -88 7 -29 42 -53 87 -62 33 -7 164 -7 320 0 196 9 262 14 313 28
46 12 109 67 139 120 12 22 29 39 37 40 9 0 11 3 4 5 -8 4 -7 13 5 35 9 16 20
29 25 29 4 0 7 6 7 13 0 11 53 93 70 107 3 3 19 22 34 43 16 20 36 37 45 37
14 1 81 53 81 64 0 3 13 25 30 49 16 25 30 49 30 54 0 6 22 25 50 44 27 19 50
37 50 42 0 4 6 7 14 7 8 0 33 -30 57 -67 23 -38 48 -72 56 -76 7 -4 32 -27 56
-50 23 -23 56 -51 72 -62 16 -11 40 -29 53 -41 24 -19 24 -21 9 -51 -9 -16
-33 -44 -54 -62 -21 -18 -59 -51 -86 -74 -26 -23 -58 -47 -72 -54 -18 -10 -26
-25 -31 -59 -6 -45 -5 -47 37 -90 25 -25 54 -43 67 -44 12 0 22 -3 22 -7 0 -9
0 -9 206 -17 84 -3 156 -6 160 -7 5 -1 20 1 34 4 14 4 50 8 80 11 30 2 73 9
95 15 22 6 43 9 47 8 3 -1 19 9 33 23 27 24 27 27 21 105 -14 168 -17 291 -9
330 9 41 -2 137 -24 210 -6 19 -40 50 -55 50 -4 0 -24 18 -45 41 -21 22 -51
50 -68 63 -16 12 -37 34 -45 48 -9 14 -24 27 -34 29 -10 1 -19 4 -20 6 -1 2
-19 27 -40 55 l-37 53 8 97 c8 105 7 341 -2 411 -4 23 -3 42 0 42 10 0 73 -72
101 -115 14 -22 46 -55 70 -73 24 -18 55 -50 68 -70 13 -20 33 -46 45 -56 12
-11 32 -37 43 -58 12 -21 25 -38 29 -38 10 0 25 -16 69 -70 19 -24 56 -67 83
-95 26 -29 47 -56 47 -61 0 -5 9 -15 20 -22 11 -7 20 -17 20 -22 0 -13 35 -63
72 -105 16 -16 28 -33 28 -36 0 -4 9 -9 20 -12 11 -3 24 -16 29 -29 11 -29
111 -115 137 -118 40 -5 62 1 84 20 13 11 26 20 29 20 11 0 56 89 48 96 -3 4
0 21 8 40 19 46 14 149 -10 206 -11 27 -23 48 -27 48 -5 0 -8 7 -8 15 0 8 -4
15 -8 15 -5 0 -16 17 -25 39 -10 21 -42 73 -72 115 -30 42 -55 81 -55 86 0 6
-4 10 -9 10 -5 0 -12 8 -16 19 -3 10 -35 49 -70 86 -36 37 -65 70 -65 74 0 13
-56 71 -68 71 -7 0 -12 5 -12 11 0 13 -101 129 -113 129 -15 0 -85 81 -98 114
-7 17 -18 34 -25 38 -15 10 -104 141 -104 155 0 5 -9 18 -21 29 -12 10 -30 37
-41 58 -21 41 -105 136 -120 136 -5 0 -22 15 -38 33 -25 28 -130 95 -165 104
-84 22 -269 24 -560 6 -38 -2 -126 -6 -195 -8 -69 -2 -137 -5 -153 -8 -15 -2
-29 -1 -32 3 -2 3 -26 7 -52 9 -223 10 -341 25 -360 44 -12 12 -23 12 -55 4
-28 -7 -50 -7 -72 1 -17 6 -47 13 -66 16 -19 3 -50 10 -68 15 -18 5 -35 10
-37 10 -17 -1 -92 14 -100 20 -5 4 -19 8 -30 9 -38 2 -168 32 -199 46 -17 8
-42 18 -55 21 -13 4 -56 29 -96 56 -65 44 -98 77 -177 174 -38 46 -98 144 -98
159 0 7 -12 26 -26 42 -14 16 -30 40 -35 53 -5 13 -12 21 -16 17 -9 -8 -53 34
-53 51 0 7 -10 23 -21 34 -13 13 -32 59 -46 113 -41 155 -103 222 -150 163
-30 -39 -42 -40 -91 -16 -49 25 -64 38 -56 50 2 4 -3 13 -12 20 -13 10 -17 10
-24 -1 -7 -11 -14 -12 -35 -2 -36 17 -38 16 -53 -18z m52 -129 c9 -28 16 -52
16 -54 0 -5 -82 -27 -100 -27 -10 0 25 76 41 90 3 3 8 13 12 23 10 26 13 22
31 -32z m122 -2 c3 -6 2 -15 -4 -21 -7 -7 -14 -3 -21 11 -10 17 -9 21 3 21 8
0 18 -5 22 -11z m89 -101 c-4 -29 -11 -57 -15 -63 -4 -5 -11 -28 -14 -49 -8
-42 2 -56 39 -56 17 0 24 12 38 68 9 37 17 77 17 89 0 28 16 38 25 15 13 -31
26 -106 26 -148 -1 -50 29 -85 54 -64 13 11 19 9 38 -6 53 -45 94 -103 89
-126 -1 -5 2 -8 7 -8 5 0 14 -15 22 -32 21 -53 88 -140 177 -231 l47 -47 -2
-66 c-2 -79 -31 -211 -63 -289 -45 -108 -173 -335 -189 -335 -4 0 -8 -11 -9
-25 -1 -15 3 -25 11 -25 14 0 103 117 117 155 5 13 14 26 20 30 6 4 24 32 39
63 16 32 46 93 68 137 40 80 83 223 83 277 0 33 1 33 55 12 63 -24 75 -84 43
-209 -16 -64 -50 -169 -58 -180 -4 -5 -11 -21 -15 -35 -4 -14 -21 -54 -37 -90
-41 -87 -50 -112 -54 -132 -7 -32 14 -19 46 28 35 53 180 346 180 366 0 7 7
31 15 53 8 22 14 65 15 96 l0 56 73 -14 c39 -8 84 -16 99 -18 15 -2 45 -9 67
-16 47 -14 55 -34 46 -117 -9 -82 -65 -272 -87 -296 -4 -6 -8 -16 -8 -24 0
-14 -20 -65 -46 -115 -16 -32 -18 -63 -5 -71 8 -5 51 26 51 37 0 4 22 52 49
109 27 57 64 146 82 198 18 52 35 97 38 100 3 3 7 34 9 70 2 36 8 69 13 74 5
6 29 3 62 -7 30 -9 63 -17 75 -17 20 0 21 -4 17 -57 -3 -32 -7 -67 -10 -78
-12 -52 -44 -163 -53 -186 -6 -15 -8 -29 -6 -32 3 -3 -6 -28 -20 -56 -24 -46
-34 -91 -20 -91 33 0 68 65 133 252 41 115 54 168 54 206 l-1 34 47 -6 c25 -4
64 -9 86 -12 22 -3 50 -6 63 -7 12 -1 22 -1 22 -1 1 -1 3 -42 6 -92 6 -98 -3
-143 -58 -284 -41 -105 -141 -302 -207 -404 -33 -53 -38 -71 -21 -81 12 -8 26
6 66 65 98 144 133 207 184 329 74 177 72 172 77 201 2 13 8 27 12 30 12 8 23
59 26 120 2 30 6 63 10 73 4 9 2 24 -4 31 -10 12 -7 13 21 8 18 -3 63 -6 100
-6 58 -1 69 -4 79 -23 6 -11 8 -27 4 -33 -5 -7 -9 -27 -11 -44 -4 -29 -55
-197 -74 -241 -41 -93 -50 -121 -44 -137 12 -39 36 -10 93 112 57 120 102 246
116 322 7 35 8 36 63 42 115 14 106 17 108 -38 3 -73 -13 -178 -42 -291 -15
-55 -30 -116 -34 -135 -5 -19 -23 -73 -41 -120 -17 -47 -34 -99 -36 -117 -5
-28 -3 -31 16 -26 12 3 24 17 28 32 3 14 16 44 28 66 13 22 35 81 50 130 15
50 40 132 56 184 28 89 56 227 61 298 2 29 5 32 43 36 22 3 65 4 95 3 46 -1
55 -4 52 -18 -2 -10 2 -27 9 -39 32 -60 -2 -225 -85 -413 -14 -32 -26 -65 -26
-72 0 -8 -4 -14 -10 -14 -5 0 -10 -7 -10 -16 0 -8 -13 -39 -30 -69 -27 -48
-38 -85 -26 -85 19 0 40 18 57 49 11 20 31 56 45 81 74 129 144 303 144 355 0
12 3 25 7 29 13 12 18 50 17 129 l0 77 41 -2 c23 0 47 2 54 6 6 4 27 2 45 -4
l34 -11 -3 -82 c-2 -46 -13 -112 -25 -152 -22 -71 -167 -377 -182 -383 -4 -2
-8 -8 -8 -13 0 -5 -15 -31 -34 -57 -30 -43 -32 -51 -21 -72 12 -22 13 -21 59
41 65 90 90 129 106 169 7 19 18 42 25 50 6 8 17 29 25 45 8 17 18 32 22 35 3
3 22 41 42 84 39 86 63 166 69 235 5 54 15 59 49 28 15 -14 41 -35 60 -48 40
-29 71 -62 100 -109 12 -19 27 -38 32 -42 6 -4 8 -8 4 -8 -4 0 3 -11 16 -24
12 -14 33 -46 46 -71 13 -25 36 -59 51 -75 15 -15 35 -43 45 -61 9 -18 33 -49
53 -69 62 -61 65 -67 49 -92 -21 -31 -8 -61 25 -62 15 -1 29 4 31 11 3 7 10
13 17 13 13 0 48 -41 49 -57 0 -7 18 -27 40 -44 22 -18 40 -38 40 -46 0 -7 20
-32 44 -56 40 -39 71 -80 120 -161 10 -17 27 -37 37 -44 10 -7 19 -17 19 -22
0 -5 25 -47 55 -94 30 -46 55 -89 55 -95 0 -6 4 -11 10 -11 8 0 15 -25 24 -85
2 -11 0 -31 -5 -45 -4 -14 -10 -42 -14 -63 -6 -38 -38 -75 -76 -89 -14 -5 -23
-1 -35 17 -9 14 -21 25 -26 25 -13 0 -30 18 -57 63 -12 20 -28 37 -35 37 -13
0 -38 27 -57 61 -15 29 -80 114 -117 154 -15 17 -39 45 -52 64 -13 19 -55 66
-92 104 -37 39 -68 74 -68 79 0 4 -18 26 -39 49 -22 22 -46 53 -53 69 -7 16
-16 27 -20 24 -11 -7 -98 77 -119 116 -10 19 -36 55 -59 78 -22 24 -40 49 -40
55 0 7 -13 28 -30 47 -19 22 -34 55 -41 90 -22 104 -25 113 -42 124 -38 24
-71 -30 -46 -76 15 -27 19 -41 23 -83 1 -16 5 -39 9 -50 10 -32 26 -223 27
-310 0 -44 0 -98 0 -120 l0 -40 -68 -27 c-81 -33 -124 -35 -187 -8 -26 11 -51
18 -55 15 -5 -3 -11 -1 -14 4 -10 15 -65 -18 -80 -47 -8 -15 -24 -34 -36 -42
-12 -8 -39 -31 -59 -52 -46 -45 -79 -51 -105 -20 -10 13 -25 21 -33 18 -15 -6
-23 -1 -75 48 -24 22 -28 30 -17 37 8 5 17 9 20 9 4 0 17 11 30 24 13 12 50
44 81 69 54 44 59 46 100 39 123 -21 388 8 402 45 7 17 -23 45 -37 36 -19 -12
-36 -14 -147 -18 -58 -3 -121 0 -140 5 -19 5 -63 11 -97 14 -60 4 -63 4 -88
-27 -34 -43 -34 -43 -80 -77 -22 -16 -45 -34 -51 -39 -6 -5 -26 -11 -44 -13
-32 -3 -34 -1 -51 50 -10 29 -27 64 -37 77 -12 16 -22 49 -27 91 -5 46 -13 72
-27 86 l-20 20 -26 -25 c-25 -26 -25 -27 -9 -64 9 -21 18 -51 21 -68 7 -51 18
-85 27 -85 13 0 49 -79 43 -95 -5 -13 0 -22 33 -59 10 -11 8 -17 -10 -29 -12
-8 -31 -24 -43 -35 -11 -10 -30 -24 -41 -31 -22 -11 -22 -10 -22 101 -1 125
-8 176 -28 196 -14 14 -53 8 -65 -12 -11 -15 -10 -56 1 -56 16 0 34 -94 36
-182 1 -94 -1 -98 -64 -98 -17 0 -22 4 -17 16 4 10 9 49 13 89 7 84 -9 165
-40 199 -20 22 -21 22 -39 4 -22 -22 -23 -43 -1 -99 11 -29 17 -76 17 -140 l1
-96 -65 -17 c-83 -21 -94 -21 -85 2 7 17 20 91 30 167 6 49 -12 144 -32 166
-33 38 -72 -8 -51 -60 13 -32 19 -191 10 -245 -7 -37 -9 -39 -86 -67 -44 -16
-90 -29 -103 -29 -27 0 -27 2 11 130 30 98 33 199 10 239 -22 37 -37 44 -60
27 -22 -17 -28 -140 -7 -158 7 -6 13 -27 13 -47 0 -50 -27 -160 -43 -176 -8
-7 -44 -16 -81 -20 l-67 -7 24 54 c36 80 50 153 43 214 -12 101 -38 129 -83
90 -25 -21 -26 -25 -13 -41 8 -10 14 -21 14 -24 -1 -3 3 -17 8 -31 17 -44 -11
-240 -34 -240 -4 0 -8 -6 -8 -13 0 -10 -14 -13 -47 -12 -27 0 -57 -2 -69 -6
-11 -4 -27 -4 -34 1 -11 7 -10 13 3 34 9 13 21 46 27 73 6 26 17 54 24 63 25
28 60 141 73 230 3 25 10 48 15 51 13 8 20 72 10 88 -6 9 -19 11 -39 7 -25 -6
-31 -14 -42 -57 -7 -27 -14 -62 -16 -77 -4 -49 -17 -102 -26 -108 -5 -3 -9
-19 -9 -35 0 -16 -11 -47 -25 -69 -14 -22 -25 -48 -25 -57 0 -10 -5 -25 -10
-33 -9 -13 -12 -13 -21 3 -6 9 -14 15 -20 12 -5 -4 -9 -2 -9 3 0 13 -26 23
-75 28 -31 3 -49 14 -89 54 -27 27 -57 50 -67 50 -11 0 -19 6 -19 14 0 35 -95
36 -146 1 -20 -14 -46 -25 -57 -25 -11 0 -28 -6 -36 -14 -9 -7 -30 -18 -47
-24 -31 -10 -32 -9 -38 20 -11 56 -8 81 10 74 20 -8 86 14 148 49 25 14 51 23
56 20 5 -3 11 -2 14 3 3 4 25 9 50 11 36 1 53 -4 79 -23 18 -14 62 -36 98 -49
52 -20 71 -22 99 -15 19 6 51 8 70 5 34 -4 60 9 60 32 0 13 -83 25 -128 18
-43 -8 -135 31 -167 69 -34 41 -146 35 -235 -14 -49 -26 -139 -56 -147 -49 -2
3 1 15 7 27 6 12 13 42 16 67 2 25 10 53 18 62 8 9 21 35 29 59 14 42 14 42
-9 48 -13 3 -31 4 -39 1 -16 -7 -58 -86 -70 -132 -7 -31 -8 -36 -24 -118 -5
-27 -10 -83 -11 -125 -1 -43 -2 -92 -2 -110 -1 -31 -18 -48 -18 -17 0 8 -13
21 -29 29 -16 9 -42 32 -58 53 -33 43 -66 132 -58 154 10 26 -18 51 -47 44
-42 -11 -51 -69 -17 -114 12 -16 19 -37 17 -47 -2 -10 8 -30 23 -44 14 -14 34
-40 43 -58 9 -18 28 -38 41 -44 13 -6 26 -17 29 -25 3 -8 1 -11 -4 -8 -6 4
-17 -1 -26 -9 -8 -9 -12 -16 -8 -16 4 0 -10 -11 -30 -25 -20 -14 -38 -25 -39
-25 -1 0 -41 -38 -89 -84 -48 -47 -125 -114 -170 -150 -46 -37 -94 -76 -108
-89 -14 -13 -43 -36 -64 -53 -22 -16 -49 -38 -61 -49 -12 -11 -74 -69 -139
-130 -64 -60 -123 -111 -131 -113 -8 -2 -15 -7 -15 -12 0 -16 -57 -29 -148
-33 l-94 -5 7 27 c3 14 19 37 35 51 22 19 28 32 23 48 -8 34 -48 28 -89 -13
-37 -38 -46 -43 -38 -21 7 18 -22 46 -49 46 -26 0 -72 -40 -82 -70 -3 -11 -12
-20 -20 -20 -7 0 -15 -5 -17 -11 -2 -7 -9 -5 -17 5 -11 13 -5 23 41 68 29 29
67 60 83 68 17 8 36 21 43 28 7 6 17 12 21 12 4 0 25 17 47 38 21 21 57 51 79
67 22 17 44 33 50 37 5 5 30 24 54 43 24 20 47 34 50 33 3 -2 29 -15 57 -30
71 -37 209 -38 221 -1 7 20 -26 43 -49 34 -28 -10 -101 2 -132 22 -29 20 -24
37 22 71 25 19 25 19 41 -1 27 -33 62 -46 123 -46 109 1 111 55 2 58 -45 1
-60 6 -81 27 l-26 26 34 43 c19 23 51 60 72 82 20 22 50 57 66 78 l28 39 19
-21 c31 -36 113 -69 170 -69 28 0 53 3 56 6 9 8 -3 44 -13 38 -5 -3 -9 -1 -9
4 0 5 -13 7 -29 4 -35 -5 -88 21 -123 61 l-26 30 29 31 c16 17 29 37 29 44 0
18 9 15 47 -14 38 -29 135 -74 160 -74 9 0 32 -5 50 -12 24 -9 36 -9 44 -1 19
19 -12 52 -66 70 -58 19 -164 81 -178 104 -7 11 -1 44 22 113 17 53 34 122 37
152 6 46 10 54 28 54 11 0 41 11 65 25 23 14 49 25 57 25 8 0 14 4 14 10 0 5
34 25 75 45 69 34 98 65 59 65 -19 0 -215 -78 -229 -91 -5 -5 -19 -9 -30 -9
-19 0 -22 6 -24 54 l-2 53 52 28 c29 15 62 32 73 39 32 17 226 218 226 233 0
26 -27 12 -93 -49 -94 -88 -118 -108 -132 -108 -6 0 -26 -11 -45 -25 -18 -13
-48 -30 -67 -36 -33 -11 -34 -10 -101 62 -84 92 -123 129 -137 129 -6 0 -30
16 -52 35 -23 19 -46 35 -52 35 -16 0 -51 21 -93 55 -20 17 -48 38 -63 48 -24
18 -26 23 -24 85 2 66 2 66 -29 79 -31 13 -32 12 -40 -20 -8 -29 -11 -32 -48
-31 -125 4 -234 75 -234 153 0 26 34 83 44 74 10 -11 158 -11 183 0 32 14 38
39 14 58 -16 13 -37 15 -113 12 l-93 -4 3 50 c3 40 0 52 -12 57 -9 3 -16 10
-16 15 0 11 109 67 143 73 42 7 82 33 132 84 66 69 133 135 180 178 69 64 190
133 233 133 42 0 62 4 62 11 0 9 140 34 147 26 4 -3 -3 -6 -15 -6 -13 0 -22
-6 -22 -15 0 -8 -5 -15 -11 -15 -6 0 -9 -14 -7 -32 4 -38 34 -51 55 -22 7 10
13 15 13 12 0 -9 71 62 114 116 27 32 46 46 63 46 24 0 25 -1 18 -52z m-1010
-1008 c10 -8 103 -24 139 -25 26 0 44 -31 29 -46 -14 -14 -168 3 -203 21 -19
10 -27 49 -14 63 6 6 32 -1 49 -13z m3819 -1051 c-10 -16 -14 -169 -5 -169 5
0 13 -9 16 -20 3 -11 23 -36 43 -54 33 -32 35 -36 17 -42 -33 -12 -43 -36 -26
-62 6 -11 17 -11 49 -2 38 10 45 8 82 -15 22 -14 65 -50 96 -80 30 -30 59 -55
63 -55 5 0 12 -17 16 -37 4 -21 9 -49 12 -63 3 -14 5 -50 4 -80 -2 -54 -3
-201 -2 -309 1 -88 -9 -94 -154 -109 -70 -6 -224 -6 -231 1 -3 3 9 27 28 52
59 83 66 96 61 116 -6 20 -24 20 -68 -2 -21 -10 -59 -69 -84 -127 -8 -19 -23
-35 -37 -38 -24 -6 -52 4 -38 15 5 3 25 26 45 51 20 25 49 58 63 74 32 34 30
57 -5 66 -23 7 -31 0 -72 -51 -26 -32 -47 -62 -47 -66 -1 -4 -13 -22 -28 -40
l-28 -32 -32 21 c-30 19 -42 38 -24 38 4 0 28 19 53 42 25 24 67 64 94 89 63
59 85 86 85 103 0 7 7 19 15 26 8 7 15 21 15 30 0 23 -45 77 -70 85 -23 7 -50
30 -127 103 l-55 54 23 16 c13 8 43 35 67 58 23 23 42 37 42 33 0 -5 19 -6 43
-2 23 3 63 6 90 5 39 -2 47 1 47 16 0 21 -16 47 -30 48 -5 1 -30 2 -55 3 -33
1 -45 5 -45 16 0 10 -10 15 -32 15 -25 0 -39 -8 -58 -32 -50 -64 -85 -97 -112
-104 -23 -5 -29 -2 -38 20 -5 15 -19 36 -30 49 -12 12 -23 32 -26 44 -3 12
-14 25 -25 28 -19 6 -89 82 -89 96 0 5 39 47 88 94 83 82 89 86 122 80 105
-20 130 -21 179 -8 29 7 64 19 79 27 19 10 29 11 34 3 4 -6 5 -14 2 -18z
m-2323 -40 c23 -11 55 -36 71 -55 39 -44 71 -60 128 -63 25 -2 47 -7 48 -12 2
-5 10 -16 18 -23 8 -8 14 -19 14 -24 0 -6 6 -13 13 -16 8 -3 7 -9 -7 -20 -10
-8 -24 -17 -30 -19 -8 -3 -7 -12 3 -31 11 -20 12 -29 3 -38 -7 -7 -12 -18 -12
-24 0 -31 -20 -63 -35 -58 -8 3 -15 13 -15 21 0 12 -3 12 -21 -1 -19 -13 -25
-13 -50 0 -16 8 -31 14 -34 14 -3 0 -16 11 -29 25 -20 22 -36 27 -94 31 -65 5
-75 3 -144 -30 -40 -19 -86 -36 -103 -38 l-30 -3 1 80 c3 154 6 185 22 185 9
0 12 3 9 7 -10 9 13 33 32 33 9 1 34 9 56 20 22 11 47 19 56 20 9 0 27 9 40
20 30 25 41 25 90 -1z m1572 -33 c3 -8 27 -27 54 -43 26 -15 64 -43 83 -63 20
-19 44 -42 55 -52 32 -26 65 -65 65 -76 0 -6 7 -15 16 -20 15 -8 15 -11 -3
-29 -10 -10 -26 -28 -34 -39 -8 -10 -26 -25 -42 -33 -15 -8 -30 -26 -34 -39
-11 -46 -80 -138 -113 -152 -17 -7 -50 -33 -73 -58 -23 -25 -50 -53 -59 -64
-10 -10 -18 -20 -18 -23 0 -10 -130 -216 -148 -234 -9 -10 -30 -21 -47 -24
-16 -3 -50 -11 -75 -18 -25 -6 -70 -13 -100 -15 -30 -1 -81 -6 -112 -10 -32
-3 -58 -3 -58 2 1 18 59 76 69 70 6 -4 11 0 11 9 0 9 5 13 10 10 13 -8 13 1
-2 27 -32 56 -30 57 -110 -32 -26 -29 -40 -60 -34 -75 4 -11 -7 -14 -49 -14
l-55 1 20 29 c12 15 32 37 45 48 28 22 31 39 11 67 -15 20 -5 44 19 44 6 0 43
10 81 22 65 20 103 48 104 76 0 6 4 12 9 12 17 0 105 211 99 237 0 5 1 15 5
23 3 8 13 38 22 66 8 28 22 60 30 70 8 10 15 25 15 32 0 27 63 161 72 156 6
-4 22 2 36 13 15 11 44 23 65 27 21 4 40 13 43 21 3 7 23 20 44 29 21 8 41 20
45 26 9 15 32 12 38 -4z m-1544 -342 c14 -8 44 -26 66 -39 22 -14 55 -25 73
-25 29 0 32 -3 32 -32 0 -17 -6 -47 -12 -66 -13 -34 -13 -34 -61 -29 -53 7
-123 41 -149 74 -18 21 -58 22 -58 1 0 -5 -4 -6 -10 -3 -5 3 -10 2 -10 -3 0
-5 -15 -15 -32 -22 -18 -6 -40 -15 -48 -19 -25 -13 -99 -12 -107 2 -4 6 -17
17 -28 23 -19 11 -33 73 -17 75 4 1 20 3 35 5 46 5 150 43 177 64 20 16 35 18
74 14 27 -3 61 -12 75 -20z m-77 -182 c9 -21 112 -62 158 -63 28 -1 50 -5 50
-9 0 -11 -82 -113 -104 -129 -11 -8 -50 -45 -87 -83 -37 -37 -74 -68 -82 -68
-7 0 -32 -16 -54 -35 -22 -19 -51 -36 -64 -39 -50 -9 -84 -19 -96 -28 -7 -5
-13 -5 -17 0 -7 11 -66 6 -79 -7 -5 -5 -15 -7 -23 -4 -10 4 -6 15 14 46 15 23
30 44 35 45 4 2 7 8 7 14 0 6 7 16 16 23 12 8 15 20 11 37 -11 40 -33 41 -72
3 -19 -19 -32 -35 -29 -35 2 0 -13 -27 -36 -59 -22 -33 -40 -65 -40 -70 0 -6
-13 -11 -30 -11 -41 0 -38 17 15 73 25 27 45 56 45 66 0 20 -19 41 -37 41 -16
0 -69 -59 -101 -112 -20 -33 -28 -38 -60 -37 -20 0 -31 3 -24 6 6 2 12 11 12
18 0 8 16 30 35 51 19 20 35 41 35 45 0 5 19 18 42 30 23 12 73 46 109 75 54
43 73 66 98 119 17 36 31 70 31 75 0 18 18 11 25 -10 4 -11 16 -21 28 -21 93
-5 146 5 217 42 39 21 47 23 52 11z m848 -322 c0 -5 -11 -20 -23 -32 -13 -13
-36 -45 -51 -70 -23 -40 -31 -46 -53 -42 -44 8 -45 14 -13 57 24 32 95 82 138
96 1 1 2 -3 2 -9z m-2432 -25 c0 -26 -9 -29 -41 -16 -33 12 -16 32 34 40 4 1
7 -10 7 -24z"/>
<path d="M1073 3140 c-29 -10 -66 -28 -82 -39 -16 -12 -32 -21 -35 -21 -9 0
-43 -36 -48 -51 -15 -41 90 -120 157 -120 67 0 139 19 157 41 10 12 18 19 18
15 0 -3 14 7 31 24 17 17 36 31 43 31 7 0 18 16 24 36 13 44 1 83 -28 85 -32
2 -38 4 -46 12 -14 14 -139 6 -191 -13z m155 -56 c30 -8 28 -15 -17 -46 -46
-33 -55 -35 -42 -10 6 10 6 24 1 32 -17 27 7 37 58 24z m-182 -69 c1 -39 -2
-41 -29 -20 -18 13 -18 14 2 34 12 12 22 21 24 21 1 0 2 -16 3 -35z"/>
<path d="M1706 3017 c-17 -13 -27 -33 -63 -137 -24 -69 -64 -148 -114 -222
-62 -92 -229 -277 -274 -304 -18 -10 -18 -12 -2 -34 9 -14 17 -19 17 -13 0 6
34 40 76 75 78 65 95 81 180 180 112 129 149 189 199 321 10 26 21 47 25 47
11 0 10 61 -1 82 -12 21 -19 22 -43 5z"/>
<path d="M1774 2803 c-17 -77 -27 -103 -62 -160 -88 -146 -161 -242 -251 -329
-37 -37 -43 -47 -31 -54 22 -14 23 -13 65 23 99 85 252 268 309 370 20 35 40
84 44 109 8 39 6 47 -9 57 -33 20 -58 13 -65 -16z"/>
</g>
</svg>
