<?xml version="1.0" standalone="no"?>
<!DOCTYPE svg PUBLIC "-//W3C//DTD SVG 20010904//EN"
 "http://www.w3.org/TR/2001/REC-SVG-20010904/DTD/svg10.dtd">
<svg version="1.0" xmlns="http://www.w3.org/2000/svg"
 width="515.000000pt" height="435.000000pt" viewBox="0 0 515.000000 435.000000"
 preserveAspectRatio="xMidYMid meet">
<metadata>
Created by potrace 1.16, written by Peter Selinger 2001-2019
</metadata>
<g transform="translate(0.000000,435.000000) scale(0.100000,-0.100000)"
fill="#000000" stroke="none">
<path d="M1925 4082 c-60 -8 -125 -15 -142 -16 -18 0 -33 -4 -33 -8 0 -5 -6
-8 -14 -8 -20 0 -187 -64 -266 -102 -36 -17 -100 -55 -142 -84 -43 -29 -78
-51 -78 -49 0 3 -45 -40 -100 -94 -55 -53 -100 -103 -100 -110 0 -7 -4 -10 -9
-6 -5 3 -12 -3 -16 -14 -3 -10 -26 -40 -50 -66 -25 -26 -45 -52 -45 -59 0 -6
-11 -31 -25 -56 -47 -87 -73 -145 -80 -180 -4 -19 -10 -39 -14 -45 -30 -42
-73 -303 -73 -440 0 -19 -4 -37 -9 -40 -4 -3 -4 -18 2 -32 6 -15 8 -37 5 -49
-4 -13 -2 -26 4 -29 16 -10 12 -25 -6 -25 -13 0 -13 -3 4 -17 12 -11 24 -43
32 -83 13 -64 53 -189 84 -262 12 -29 13 -38 4 -38 -7 0 -29 -14 -48 -30 -19
-17 -44 -38 -56 -48 -12 -10 -26 -27 -32 -39 -7 -12 -18 -27 -24 -35 -27 -28
-40 -68 -47 -147 -5 -66 -3 -94 11 -139 10 -31 18 -64 18 -72 1 -60 140 -230
223 -272 78 -41 142 -68 159 -68 10 0 23 -9 30 -20 7 -11 19 -20 26 -20 7 0
10 -5 6 -12 -4 -7 -3 -8 4 -4 9 5 43 -5 60 -19 1 -1 -9 -22 -23 -47 -38 -68
-32 -159 17 -252 24 -45 117 -124 184 -156 64 -30 73 -32 142 -26 110 9 174
48 230 138 28 45 57 78 69 78 38 0 240 -79 388 -151 22 -10 45 -19 50 -19 6 0
42 -15 80 -34 114 -56 198 -93 238 -106 20 -6 67 -27 103 -46 36 -19 73 -34
82 -34 9 0 25 -7 35 -15 17 -12 18 -18 7 -51 -20 -59 -6 -114 45 -188 52 -73
113 -130 165 -153 19 -8 44 -19 55 -25 11 -6 49 -13 85 -15 56 -4 73 -1 125
24 65 30 130 75 156 106 12 15 24 18 50 13 67 -11 285 -57 344 -72 33 -8 96
-20 140 -25 74 -10 84 -9 155 17 99 36 115 47 141 100 41 87 2 200 -135 390
-26 36 -133 118 -179 136 -9 4 -20 14 -23 23 -4 8 -12 15 -20 15 -8 0 -14 5
-14 10 0 6 -4 10 -10 10 -15 0 -72 42 -125 92 -83 79 -95 92 -95 105 0 7 -4
13 -8 13 -12 0 -56 100 -48 108 4 3 28 -2 54 -12 26 -10 67 -23 92 -28 25 -5
50 -10 55 -12 6 -1 20 -7 32 -14 12 -7 29 -12 37 -12 9 0 24 -4 34 -10 31 -17
196 -68 242 -75 24 -4 51 -10 60 -15 8 -4 18 -8 23 -8 17 -1 169 -63 199 -82
49 -30 86 -27 95 7 4 16 6 34 4 42 -1 7 7 20 18 28 12 8 21 20 21 27 0 8 18
49 39 92 21 44 42 99 46 124 12 85 37 190 46 196 5 3 9 13 9 23 0 10 7 32 15
49 9 17 18 52 21 79 9 69 -7 83 -153 129 -111 35 -121 39 -112 57 16 29 37
108 43 159 5 43 25 131 46 203 42 144 41 136 19 167 -11 15 -27 28 -35 28 -8
0 -14 7 -14 16 0 8 -4 13 -9 9 -11 -6 -61 15 -61 26 0 4 -10 11 -22 14 -13 4
-46 18 -75 33 -49 25 -51 27 -46 62 3 19 10 43 15 53 5 10 12 31 14 45 12 72
40 170 55 192 9 14 17 27 17 30 1 10 20 55 52 123 21 46 30 79 28 104 -3 32
-9 39 -58 66 -58 31 -124 51 -202 61 -26 4 -76 15 -110 25 -136 40 -217 62
-244 67 -27 5 -58 24 -40 24 5 0 3 7 -4 15 -29 35 -90 2 -90 -48 0 -17 -19
-67 -41 -109 -5 -10 -9 -24 -9 -32 0 -8 -5 -27 -12 -43 -7 -15 -13 -50 -13
-78 -1 -31 -11 -71 -27 -105 -14 -30 -31 -74 -37 -97 -11 -40 -32 -56 -45 -34
-3 5 -25 12 -48 15 -43 7 -113 28 -123 37 -2 3 -7 41 -9 85 -4 76 -30 209 -60
305 -12 38 -99 216 -131 268 -40 64 -113 155 -164 205 -34 32 -61 62 -61 67 0
5 -6 9 -13 9 -6 0 -32 18 -56 40 -24 22 -45 40 -48 40 -2 0 -31 18 -64 40 -79
54 -225 126 -296 146 -121 35 -271 61 -357 63 -49 1 -92 3 -95 5 -3 1 -55 -4
-116 -12z m340 -77 c58 -10 249 -65 258 -75 5 -4 9 -30 9 -58 -1 -52 -44 -160
-83 -204 -11 -13 -35 -48 -54 -78 -67 -109 -194 -250 -300 -335 -21 -16 -54
-43 -75 -60 -67 -55 -159 -119 -212 -148 -67 -35 -112 -61 -163 -92 -22 -13
-87 -48 -145 -78 -58 -29 -114 -59 -125 -65 -11 -6 -47 -21 -80 -33 -33 -13
-65 -26 -70 -30 -26 -19 -160 -60 -181 -56 -13 2 -25 0 -26 -5 -4 -12 -86 -30
-99 -23 -5 4 -9 1 -9 -6 0 -8 -4 -8 -13 -1 -13 11 -49 9 -81 -4 -18 -7 -18 -2
-13 127 4 74 8 145 10 159 18 111 38 191 64 250 3 8 7 20 7 25 1 6 11 9 23 7
12 -2 24 2 28 8 3 5 13 10 22 10 16 0 115 43 303 132 128 61 298 164 323 195
11 13 34 31 52 41 30 15 119 91 209 177 17 17 44 48 61 70 37 50 62 75 75 75
6 0 10 5 10 12 0 6 10 27 23 45 l22 34 95 -4 c52 -3 113 -8 135 -12z m763
-437 c96 -112 170 -242 210 -364 16 -49 17 -65 8 -75 -7 -8 -21 -34 -32 -59
-10 -25 -50 -78 -89 -118 -38 -40 -70 -77 -70 -81 0 -5 -18 -27 -40 -49 -22
-21 -56 -59 -75 -82 -19 -24 -50 -57 -69 -74 -19 -17 -53 -49 -76 -71 -42 -40
-106 -93 -131 -108 -7 -4 -32 -25 -55 -47 -24 -22 -46 -40 -50 -40 -4 0 -14
-6 -21 -13 -7 -7 -39 -30 -72 -51 -32 -21 -66 -47 -75 -57 -8 -11 -20 -19 -26
-19 -5 0 -37 -18 -69 -40 -33 -22 -61 -38 -64 -36 -2 3 -9 1 -16 -4 -64 -52
-80 -65 -83 -62 -2 1 -29 -11 -61 -26 -60 -30 -157 -66 -180 -66 -7 -1 -17 -7
-21 -15 -11 -16 -148 -21 -159 -5 -4 5 -25 11 -47 13 -22 1 -47 9 -56 17 -8 8
-20 14 -26 14 -6 0 -28 8 -50 18 -21 10 -63 30 -93 45 -30 14 -75 34 -100 43
-58 22 -71 34 -37 34 15 0 27 4 27 8 0 5 24 19 53 32 103 45 197 92 202 99 2
5 26 14 52 21 27 8 50 17 53 21 3 4 30 20 60 36 101 53 155 85 175 103 11 10
47 32 80 50 33 18 73 44 88 56 16 13 32 24 37 24 5 0 15 6 22 13 7 7 63 50
123 96 61 46 115 90 121 97 6 8 16 14 21 14 5 0 23 15 40 33 24 26 208 198
232 217 8 7 43 56 109 154 30 44 69 98 88 120 19 22 34 48 34 58 0 10 11 35
25 56 13 20 29 52 36 70 6 17 13 32 16 32 2 0 16 -14 31 -32z m-323 -168 c3
-5 3 -15 -1 -21 -6 -11 -23 6 -24 24 0 10 18 9 25 -3z m-2 -135 c-3 -9 -8 -14
-10 -11 -3 3 -2 9 2 15 9 16 15 13 8 -4z m1162 -75 c3 -5 3 -10 -2 -10 -4 0
-24 -13 -43 -30 -19 -16 -36 -28 -37 -26 -2 2 4 19 12 39 12 28 21 37 40 37
13 0 27 -4 30 -10z m180 -39 c16 -6 8 -14 -50 -47 -39 -22 -83 -46 -100 -54
-16 -8 -54 -30 -82 -48 l-53 -33 0 26 c0 18 7 26 25 31 14 3 25 9 25 13 0 7
96 73 155 108 23 14 51 15 80 4z m155 -48 c0 -5 -32 -26 -71 -48 -39 -22 -76
-45 -82 -50 -17 -15 -155 -105 -161 -105 -3 0 -25 -13 -49 -30 -25 -16 -50
-30 -56 -30 -5 0 -26 -13 -44 -30 -39 -34 -47 -36 -47 -15 0 30 31 76 48 74
29 -5 61 11 67 32 4 11 9 18 12 15 4 -3 11 0 17 8 6 7 49 33 96 57 47 23 106
55 131 71 30 19 53 26 65 22 11 -4 16 -4 12 1 -12 13 12 35 38 35 13 0 24 -3
24 -7z m161 -39 c11 -13 10 -17 -3 -25 -10 -5 -23 -15 -30 -22 -7 -7 -30 -21
-50 -30 -54 -25 -190 -106 -211 -126 -10 -9 -25 -24 -35 -33 -9 -10 -20 -18
-24 -18 -5 0 -26 -11 -48 -25 -22 -14 -40 -23 -40 -20 0 3 -15 -8 -32 -24 -18
-17 -39 -31 -45 -31 -7 0 -18 -8 -24 -18 -11 -17 -15 -17 -58 -4 -56 17 -111
41 -94 42 6 0 23 -4 36 -9 16 -6 36 -5 58 3 47 16 82 37 75 43 -3 3 14 20 37
37 50 38 297 186 350 211 20 9 37 21 37 26 0 5 6 9 14 9 7 0 19 7 26 15 16 20
44 19 61 -1z m6 -146 c-10 -25 -20 -34 -43 -36 -34 -4 -67 -30 -60 -49 3 -7
-19 -27 -57 -48 -62 -36 -117 -73 -150 -100 -9 -8 -22 -15 -27 -15 -17 0 -41
-46 -33 -65 5 -15 3 -17 -13 -11 -10 5 -32 13 -49 18 -16 6 -34 14 -38 18 -13
11 46 64 105 95 29 15 72 43 95 61 23 19 70 51 105 71 125 72 163 93 171 93 4
0 1 -15 -6 -32z m-917 -194 c41 -8 88 -23 105 -33 16 -10 62 -28 100 -41 73
-22 92 -30 188 -76 55 -27 58 -29 51 -58 -3 -17 -14 -44 -24 -61 -10 -16 -26
-55 -35 -85 -9 -30 -20 -64 -25 -75 -14 -34 -41 -119 -47 -145 -2 -14 -12 -47
-20 -73 -12 -38 -19 -47 -32 -42 -73 29 -307 106 -441 144 -57 17 -107 34
-111 38 -5 5 2 31 15 58 12 28 25 67 29 89 3 21 15 55 26 76 11 21 18 46 17
56 -5 37 94 244 117 244 7 0 46 -7 87 -16z m838 -21 c-12 -47 -19 -54 -93 -94
-33 -17 -67 -38 -76 -45 -12 -11 -22 -12 -49 -3 -29 11 -31 13 -14 22 11 6 24
16 29 22 34 38 176 131 207 134 3 1 2 -16 -4 -36z m-53 -183 c-3 -5 -13 -10
-21 -10 -8 0 -14 5 -14 10 0 6 9 10 21 10 11 0 17 -4 14 -10z m-133 -45 c47
-18 97 -40 110 -48 12 -8 37 -18 53 -21 42 -10 116 -46 121 -60 3 -7 14 -12
25 -13 12 -1 30 -10 40 -19 11 -9 19 -13 19 -9 0 4 9 -2 20 -15 16 -18 19 -31
14 -59 -4 -20 -7 -40 -8 -46 0 -5 -5 -13 -9 -16 -5 -3 -10 -17 -12 -30 -6 -34
-22 -101 -28 -119 -3 -8 -11 -46 -17 -85 -7 -45 -19 -80 -34 -98 -20 -25 -25
-27 -52 -17 -16 7 -37 14 -46 16 -10 2 -26 6 -35 8 -10 2 -40 14 -68 26 -27
12 -68 28 -90 35 -22 7 -64 22 -92 33 -29 11 -53 19 -53 16 0 -3 -139 45 -148
51 -1 1 2 22 8 46 16 61 32 131 34 149 2 8 11 33 20 55 10 22 20 49 22 60 3
11 6 25 8 30 2 9 42 97 69 153 7 15 16 20 26 16 9 -4 55 -21 103 -39z m-1334
-206 c-2 -4 -23 -21 -48 -38 -36 -24 -46 -27 -48 -15 -2 8 3 26 12 39 11 17
24 23 51 22 19 -1 34 -4 33 -8z m175 -45 c35 -8 30 -13 -53 -57 -36 -19 -87
-47 -115 -61 -27 -15 -61 -37 -75 -50 -41 -38 -120 -44 -120 -10 0 15 41 35
75 38 11 0 20 8 20 16 0 8 11 21 25 29 14 7 42 25 63 39 61 41 121 70 137 66
8 -2 28 -6 43 -10z m-1896 -20 c-3 -3 -12 -4 -19 -1 -8 3 -5 6 6 6 11 1 17 -2
13 -5z m2042 -47 c25 -11 29 -16 19 -24 -17 -14 -139 -73 -151 -73 -15 0 -150
-82 -182 -110 -34 -31 -76 -60 -86 -60 -4 0 -9 13 -11 30 -4 27 1 33 61 74 36
24 118 69 181 101 63 31 119 61 125 66 11 11 7 12 44 -4z m-1902 -41 c41 -6
111 -25 132 -36 81 -42 301 -132 343 -141 29 -6 62 -16 72 -21 29 -15 126 -10
161 9 11 6 26 8 33 6 7 -3 18 0 25 6 8 6 31 13 53 16 59 9 68 11 84 18 38 17
183 39 265 40 72 2 183 -33 228 -71 9 -8 17 -26 17 -39 0 -29 -30 -154 -40
-168 -11 -15 -30 -103 -34 -160 -5 -61 23 -141 63 -184 46 -49 165 -68 235
-38 21 9 41 17 45 17 14 0 59 48 86 90 16 25 34 50 39 55 6 6 20 28 31 50 37
76 49 81 135 61 14 -3 37 -8 51 -11 15 -4 59 -38 99 -76 54 -53 83 -91 116
-157 24 -48 44 -94 44 -102 0 -8 9 -33 20 -55 11 -22 19 -48 20 -57 0 -10 4
-18 9 -18 5 0 12 -13 16 -28 3 -15 17 -40 30 -55 14 -14 25 -30 25 -34 0 -4
16 -24 35 -43 20 -19 48 -48 63 -64 15 -16 61 -51 102 -79 41 -28 77 -53 80
-57 3 -4 42 -32 86 -63 81 -56 125 -103 143 -149 5 -14 23 -46 39 -72 64 -101
53 -170 -36 -213 -47 -23 -67 -27 -125 -25 -38 1 -83 8 -100 16 -18 8 -57 17
-87 21 -85 10 -158 24 -237 47 l-72 21 20 39 c24 46 27 148 8 194 -16 36 -81
138 -91 142 -5 2 -14 10 -21 17 -14 13 -88 33 -172 45 -49 7 -118 -5 -160 -28
-11 -5 -41 -17 -66 -26 -25 -9 -68 -36 -95 -61 -27 -24 -58 -44 -68 -45 -31 0
-131 37 -311 115 -16 7 -40 16 -52 19 -11 4 -88 38 -170 76 -81 39 -153 70
-160 70 -7 0 -38 13 -70 29 -59 30 -180 78 -220 88 -13 3 -23 9 -23 14 0 5 -6
9 -12 9 -12 0 -17 23 -18 82 0 16 -9 34 -25 46 -14 11 -25 26 -25 34 0 9 -11
27 -24 41 -14 15 -27 36 -31 47 -3 11 -11 20 -16 20 -6 0 -26 12 -45 27 -20
15 -51 28 -72 29 -20 2 -62 6 -94 10 -47 5 -64 3 -110 -18 -29 -14 -67 -37
-82 -51 -16 -15 -32 -27 -36 -27 -14 0 -85 32 -90 40 -7 12 -163 91 -168 86
-6 -7 -89 49 -135 91 -48 44 -67 80 -111 203 -25 72 -16 220 14 220 4 0 10 10
14 23 9 36 106 127 136 127 14 1 36 7 49 14 24 13 153 14 238 2z m2103 -32 c0
-8 -6 -14 -12 -14 -7 0 -23 -10 -34 -23 -12 -12 -57 -40 -100 -62 -44 -22 -94
-55 -112 -72 -18 -18 -39 -33 -47 -33 -8 0 -15 -3 -15 -7 0 -5 -19 -17 -43
-28 -47 -22 -44 -21 -106 -71 -25 -19 -65 -47 -90 -60 -25 -14 -61 -34 -78
-45 -28 -18 -33 -19 -33 -5 0 9 5 16 11 16 5 0 8 3 5 8 -6 11 27 79 50 100 10
10 39 31 64 48 25 17 76 52 113 77 55 38 246 137 263 137 2 0 24 9 48 21 28
13 43 26 40 34 -4 11 2 11 35 3 23 -6 41 -16 41 -24z m-780 -6 c0 -16 -3 -19
-11 -11 -6 6 -8 16 -5 22 11 17 16 13 16 -11z m1055 -67 c93 -40 145 -60 145
-56 0 2 51 -14 113 -37 61 -22 117 -41 122 -42 6 -2 17 -6 25 -9 8 -3 28 -8
44 -12 26 -5 28 -9 22 -37 -3 -18 -11 -35 -17 -39 -7 -4 -9 -11 -5 -17 3 -6 3
-12 -1 -14 -5 -1 -16 -37 -27 -78 -17 -67 -29 -108 -96 -318 -11 -34 -24 -70
-29 -80 -5 -9 -12 -25 -15 -36 -5 -14 -13 -17 -34 -13 -64 13 -116 29 -136 42
-11 8 -31 15 -43 15 -13 0 -23 4 -23 9 0 4 -11 6 -25 4 -20 -4 -27 0 -36 23
-6 16 -18 43 -27 59 -9 17 -33 62 -53 100 -21 39 -49 77 -63 85 -35 21 -69 67
-60 82 4 7 4 10 -1 6 -15 -14 -35 12 -25 32 7 12 6 20 -1 22 -6 2 4 33 24 73
19 39 45 93 57 120 69 156 61 146 108 134 20 -6 46 -14 57 -18z m-220 -46
c-13 -28 -25 -56 -25 -63 0 -9 -10 -11 -34 -6 -31 5 -36 3 -50 -24 -8 -16 -35
-40 -58 -52 -24 -13 -79 -42 -124 -65 -44 -23 -118 -66 -165 -96 -109 -70
-118 -75 -156 -95 -18 -9 -33 -19 -33 -23 0 -11 -59 -33 -70 -26 -5 3 -10 1
-10 -6 0 -29 -14 5 -18 43 -3 42 -3 42 16 25 19 -17 21 -17 63 13 76 54 141
94 151 95 4 0 21 15 39 32 17 18 35 30 40 27 5 -3 9 -1 9 4 0 5 21 20 48 33
26 13 49 27 52 30 3 3 16 12 30 19 14 7 31 21 38 31 7 10 47 36 90 57 42 22
102 53 132 70 30 17 56 30 57 29 1 -2 -9 -25 -22 -52z m823 -166 c12 0 9 -4
-8 -12 -14 -6 -31 -17 -38 -24 -15 -14 -32 -17 -32 -5 0 19 33 53 47 48 8 -3
22 -6 31 -7z m-921 -52 c-8 -15 -18 -23 -22 -19 -5 4 -5 -1 -2 -10 5 -15 1
-18 -21 -17 -28 0 -77 17 -55 18 7 1 34 14 59 31 26 16 49 28 51 26 2 -1 -3
-15 -10 -29z m1063 4 c23 -1 0 -16 -65 -41 -33 -13 -62 -27 -65 -30 -3 -4 -16
-13 -29 -20 -14 -7 -30 -17 -35 -22 -57 -47 -71 -57 -74 -53 -6 6 21 75 31 75
4 0 6 -4 3 -9 -3 -5 1 -11 9 -15 9 -3 15 0 15 9 0 8 6 15 13 15 6 0 25 14 41
30 16 17 35 30 43 30 7 0 13 4 13 8 0 11 51 29 70 26 8 -1 22 -3 30 -3z m149
-65 c9 -11 1 -19 -41 -41 -29 -15 -55 -30 -58 -34 -3 -3 -41 -24 -84 -46 -44
-22 -94 -52 -112 -68 -17 -15 -49 -34 -69 -43 -21 -8 -51 -25 -66 -36 -36 -27
-44 -19 -29 27 9 28 15 33 25 25 13 -11 29 -1 57 38 7 10 30 28 51 41 20 12
37 26 37 30 0 9 137 77 173 86 14 4 31 13 38 21 15 18 63 18 78 0z m112 -79
c-12 -31 -94 -94 -176 -134 -84 -42 -125 -67 -125 -75 0 -5 -5 -8 -10 -8 -6 0
-21 -9 -33 -20 -12 -12 -53 -36 -92 -55 -38 -18 -79 -42 -90 -52 -31 -27 -84
-55 -94 -49 -5 4 -12 0 -14 -6 -3 -7 -6 -4 -6 7 -1 26 39 92 47 78 13 -21 60
-2 71 27 5 16 19 31 30 35 12 3 21 10 21 15 0 5 13 11 29 15 16 3 46 21 67 39
22 19 100 64 174 102 74 37 137 71 140 75 6 7 64 36 68 34 1 -1 -2 -14 -7 -28z
m54 23 c4 -6 11 -8 16 -5 5 4 9 -1 9 -9 0 -9 -4 -16 -10 -16 -5 0 -10 5 -10
10 0 6 -9 10 -20 10 -11 0 -20 5 -20 10 0 13 27 13 35 0z m-1681 -48 c-6 -4
-29 -35 -53 -70 -29 -43 -53 -67 -79 -78 -38 -17 -94 -19 -120 -5 -13 7 -11
11 8 21 13 7 33 21 43 31 11 10 35 25 55 35 19 9 60 31 90 50 31 18 58 31 61
28 3 -3 1 -8 -5 -12z m1667 -91 c-6 -11 -11 -29 -11 -41 0 -12 -9 -24 -23 -29
-13 -5 -29 -16 -36 -25 -7 -9 -19 -16 -26 -16 -8 0 -15 -3 -17 -7 -1 -5 -24
-19 -50 -33 -27 -13 -48 -28 -48 -32 0 -5 -7 -8 -15 -8 -8 0 -15 -3 -15 -8 0
-4 -12 -13 -27 -19 -16 -7 -51 -30 -79 -52 -30 -22 -72 -43 -102 -51 -30 -7
-52 -18 -52 -25 0 -10 -9 -11 -42 -2 l-41 10 29 24 c48 40 105 74 125 76 10 1
55 27 99 59 44 31 117 76 162 98 45 23 102 59 127 81 46 38 62 39 42 0z m-51
-208 c0 -24 -9 -33 -63 -62 -173 -93 -234 -121 -262 -120 -27 0 -28 1 -8 9 11
5 68 39 125 76 87 57 197 123 206 124 1 0 2 -12 2 -27z m-67 -173 c-3 -11 -9
-23 -14 -26 -5 -3 -9 -13 -9 -22 0 -10 -9 -23 -19 -29 -16 -10 -26 -9 -51 4
l-32 15 59 38 c68 45 73 46 66 20z m-3053 -262 c0 -6 -7 -7 -16 -4 -9 3 -18 6
-20 6 -3 0 -3 4 1 10 7 11 35 2 35 -12z"/>
</g>
</svg>
