<?xml version="1.0" standalone="no"?>
<!DOCTYPE svg PUBLIC "-//W3C//DTD SVG 20010904//EN"
 "http://www.w3.org/TR/2001/REC-SVG-20010904/DTD/svg10.dtd">
<svg version="1.0" xmlns="http://www.w3.org/2000/svg"
 width="449.000000pt" height="427.000000pt" viewBox="0 0 449.000000 427.000000"
 preserveAspectRatio="xMidYMid meet">
<metadata>
Created by potrace 1.16, written by Peter Selinger 2001-2019
</metadata>
<g transform="translate(0.000000,427.000000) scale(0.100000,-0.100000)"
fill="#000000" stroke="none">
<path d="M2946 4043 c-26 -7 -96 -83 -96 -104 0 -10 -4 -20 -8 -23 -4 -2 -9
-24 -10 -48 -4 -71 -9 -78 -42 -68 -17 5 -32 5 -35 0 -3 -5 -11 -7 -18 -4 -16
6 -133 -31 -165 -52 -13 -8 -39 -32 -57 -52 -19 -19 -42 -37 -51 -38 -22 -3
-65 -45 -58 -56 7 -11 -40 -136 -78 -206 -15 -29 -28 -59 -28 -67 0 -9 -4 -23
-9 -33 -41 -77 -111 -228 -111 -239 0 -13 -20 -54 -31 -63 -6 -5 -18 -51 -21
-77 -1 -7 -5 -13 -9 -13 -4 0 -10 -15 -14 -32 -3 -18 -10 -42 -15 -53 -17 -39
-52 -141 -66 -190 -15 -54 -80 -192 -101 -213 -7 -7 -13 -19 -13 -25 0 -18
-68 -149 -81 -157 -7 -5 -13 -47 -16 -106 l-5 -99 34 -36 c18 -20 61 -51 96
-69 41 -21 62 -38 62 -50 0 -10 -3 -20 -7 -22 -17 -7 -40 -64 -33 -78 5 -8 13
-34 19 -57 10 -36 20 -47 71 -78 33 -20 75 -37 94 -38 19 -2 38 -6 42 -10 4
-4 16 -7 26 -7 10 0 18 -3 18 -7 0 -15 213 -8 240 7 63 37 110 97 110 141 0
16 7 19 43 19 26 0 60 10 89 25 26 14 52 25 58 25 14 0 70 41 70 51 0 5 15 29
33 54 43 63 57 87 57 105 0 8 11 42 25 75 l24 60 163 1 c168 0 197 4 228 32
56 52 69 62 77 62 15 0 34 -48 47 -120 13 -67 13 -84 2 -135 -4 -16 -9 -46
-12 -65 -2 -19 -7 -42 -10 -50 -3 -8 -8 -31 -11 -50 -3 -19 -9 -39 -14 -44 -5
-6 -9 -18 -9 -28 0 -10 -4 -18 -10 -18 -5 0 -10 -6 -10 -13 0 -24 -51 -119
-78 -148 -15 -15 -47 -48 -71 -73 -43 -45 -71 -58 -71 -33 0 6 -3 22 -6 34 -5
18 -3 21 14 16 27 -7 62 30 62 66 0 33 -66 138 -92 147 -10 3 -18 10 -18 15 0
5 -8 9 -17 9 -9 0 -13 3 -10 7 9 9 -53 63 -72 63 -8 0 -22 6 -30 14 -15 13
-41 20 -66 17 -6 0 -18 -13 -26 -28 -14 -24 -14 -32 -3 -58 7 -16 13 -26 14
-22 0 5 7 1 16 -7 8 -9 24 -16 35 -16 10 0 19 -4 19 -10 0 -5 5 -10 10 -10 6
0 20 -10 31 -21 17 -17 18 -23 8 -29 -8 -6 -17 -1 -24 13 -12 26 -41 32 -78
18 -22 -9 -27 -17 -27 -45 0 -19 4 -37 9 -40 5 -3 11 -15 14 -26 4 -15 -2 -25
-26 -37 -18 -9 -38 -16 -44 -15 -7 2 -13 -2 -13 -7 0 -14 -58 -43 -71 -35 -6
3 -18 -1 -27 -9 -72 -64 -253 -123 -420 -137 -70 -6 -144 -15 -165 -21 -51
-13 -160 -9 -210 8 -21 7 -77 14 -125 15 -54 1 -103 8 -134 19 -78 28 -182 97
-176 116 1 4 -4 18 -11 31 -8 15 -9 28 -3 35 5 7 12 31 16 54 5 33 17 53 57
93 59 59 120 100 149 100 11 0 20 5 20 11 0 5 4 8 9 5 5 -4 11 -2 13 4 2 6 13
12 26 15 31 6 52 29 52 57 0 30 -17 48 -47 48 -26 0 -158 -56 -199 -85 -61
-43 -148 -132 -166 -170 -23 -49 -40 -78 -52 -86 -5 -4 -7 -21 -4 -38 2 -17 1
-31 -3 -31 -16 0 -29 -79 -16 -97 5 -7 6 -16 3 -21 -3 -5 1 -24 10 -41 16 -33
12 -51 -12 -51 -8 0 -22 -4 -32 -10 -15 -8 -137 -32 -242 -47 -19 -3 -39 -9
-45 -13 -5 -4 -25 -11 -42 -15 -18 -3 -35 -10 -38 -15 -3 -4 -29 -22 -58 -38
-68 -39 -100 -74 -130 -142 -31 -69 -33 -186 -4 -218 26 -29 96 -60 152 -67
167 -23 499 -22 536 1 5 3 12 -9 15 -26 9 -41 68 -98 140 -134 l58 -30 -44
-14 c-66 -22 -147 -109 -190 -202 -36 -77 -15 -148 40 -135 l25 6 -24 -22
c-15 -14 -20 -24 -13 -27 7 -2 10 -13 7 -25 -7 -25 29 -72 46 -61 5 3 17 0 25
-7 9 -7 26 -15 37 -18 29 -6 336 -4 412 2 152 13 411 29 520 32 311 10 705 30
773 40 21 3 71 8 112 11 41 4 82 12 90 19 8 7 25 16 38 20 51 15 172 75 172
85 0 5 5 10 11 10 6 0 20 11 31 25 11 14 24 25 30 25 33 0 141 160 173 255 32
97 38 141 38 260 -1 144 -18 222 -57 255 -9 7 -16 16 -16 21 0 5 -14 23 -32
39 -28 27 -30 34 -20 50 7 11 12 29 12 39 0 11 5 23 11 26 5 4 15 17 20 28 5
12 18 36 28 52 11 17 20 38 20 48 1 9 4 17 9 17 13 0 102 186 102 213 0 15 61
171 82 210 10 19 62 199 73 252 40 192 30 495 -20 630 -33 90 -29 81 -67 147
-36 61 -100 138 -115 138 -6 0 -18 9 -27 19 -10 11 -32 25 -49 32 -18 7 -46
22 -63 34 -34 22 -96 58 -104 60 -3 1 -30 13 -61 28 -31 14 -76 31 -100 37
-24 7 -48 15 -54 19 -5 3 -39 15 -75 27 -60 19 -65 23 -65 50 -1 16 5 38 11
50 7 12 10 42 8 72 -5 51 -21 80 -72 126 -69 62 -77 67 -98 62 -29 -8 -34 1
-18 32 8 15 14 35 14 45 0 9 4 17 8 17 12 0 46 81 44 105 0 11 -8 25 -17 31
-8 6 -15 23 -15 38 0 72 -74 143 -156 148 -21 1 -52 10 -69 20 -29 17 -94 22
-139 11z m64 -112 c0 -11 53 -22 107 -21 30 1 49 -6 67 -21 49 -43 25 -73 -44
-58 -25 6 -57 12 -71 14 -31 4 -96 44 -104 63 -3 8 -3 18 1 23 7 12 44 12 44
0z m3 -179 c4 0 32 -8 61 -16 30 -9 71 -16 93 -16 30 -1 34 -3 21 -11 -10 -5
-32 -10 -50 -10 -32 -1 -138 23 -158 36 -6 3 -10 1 -10 -5 0 -7 -6 -10 -14 -7
-18 7 -20 -58 -2 -71 12 -10 157 -28 194 -24 27 3 28 -12 3 -37 -15 -15 -29
-17 -82 -14 -35 3 -78 11 -95 18 -37 15 -50 9 -59 -26 -10 -40 25 -57 130 -65
63 -5 81 -12 69 -24 -17 -17 -146 -15 -180 3 -41 21 -67 5 -62 -38 3 -27 8
-31 58 -42 62 -14 164 -10 186 8 8 6 14 18 14 25 0 8 5 14 10 14 6 0 10 -4 10
-10 0 -17 18 -11 52 19 30 26 36 27 69 17 36 -11 99 -57 99 -73 0 -28 -25 -87
-46 -110 -21 -23 -34 -27 -90 -30 -40 -2 -94 4 -142 16 -42 10 -95 19 -117 19
-85 2 -331 114 -373 171 -12 17 -22 34 -22 40 0 5 -7 12 -16 15 -40 16 20 112
92 146 91 44 131 33 100 -29 -24 -45 -20 -68 14 -86 36 -19 33 -19 59 4 13 11
24 36 27 58 3 21 17 73 31 115 l24 77 47 -28 c26 -15 50 -28 55 -29z m-400
-425 c81 -48 144 -78 201 -97 63 -20 150 -39 158 -34 4 3 24 -2 44 -11 35 -14
57 -18 187 -32 31 -3 57 -10 57 -14 0 -5 -4 -9 -10 -9 -5 0 -10 -6 -10 -13 0
-18 -201 -11 -257 9 -50 18 -75 9 -79 -29 -2 -20 5 -28 34 -41 47 -21 133 -35
158 -25 10 4 38 8 61 8 33 1 41 -2 37 -13 -6 -17 -47 -35 -89 -40 -31 -4 -163
26 -201 45 -43 22 -91 -12 -68 -48 15 -24 120 -52 234 -62 52 -4 86 -9 74 -10
-11 0 -36 -9 -55 -18 -52 -27 -173 -25 -222 4 l-38 23 -24 -26 -25 -27 25 -23
c24 -22 68 -38 125 -47 29 -5 151 18 180 33 21 11 23 8 14 -27 -4 -13 -13 -23
-20 -23 -8 0 -14 -4 -14 -8 0 -12 -90 -52 -120 -54 -38 -2 -140 13 -140 21 0
13 -54 11 -76 -4 -32 -21 -21 -52 25 -66 20 -6 79 -13 132 -16 80 -5 101 -3
120 11 35 24 41 20 20 -18 -19 -34 -51 -117 -55 -146 -4 -24 -56 -48 -132 -61
-61 -11 -80 -10 -147 6 -76 18 -78 18 -92 -1 -18 -24 -18 -29 0 -48 38 -37
186 -43 293 -11 47 15 47 15 30 -32 -10 -26 -17 -33 -39 -33 -15 0 -30 -4 -33
-9 -3 -5 -34 -14 -68 -20 -61 -11 -143 -1 -199 23 -17 7 -49 -16 -49 -35 0 -6
10 -20 23 -33 18 -18 38 -24 102 -29 45 -4 95 -3 114 3 19 5 37 8 39 5 3 -2
16 5 30 15 13 11 28 20 32 20 14 0 -3 -52 -19 -58 -9 -3 -29 -16 -44 -29 -16
-13 -36 -23 -46 -23 -9 0 -26 -7 -39 -15 -22 -16 -52 -17 -63 -2 -4 5 -24 11
-45 14 -22 3 -47 9 -56 14 -30 16 -58 -7 -58 -46 0 -21 5 -35 13 -36 6 0 21
-3 32 -5 11 -3 58 -5 105 -4 84 0 141 12 169 34 11 9 13 8 8 -4 -4 -8 -10 -23
-13 -32 -7 -19 -29 -24 -39 -9 -3 6 -24 2 -48 -9 -59 -26 -187 -41 -233 -27
-29 9 -37 8 -45 -4 -14 -22 -11 -44 10 -68 17 -19 27 -22 68 -17 99 11 164 25
208 45 25 11 45 17 45 13 0 -3 -12 -23 -26 -43 -44 -65 -187 -106 -294 -85
-14 2 -52 7 -85 11 -33 4 -67 11 -75 15 -8 4 -31 10 -50 12 -19 1 -37 5 -40 8
-14 14 -69 39 -100 45 -19 4 -37 10 -40 14 -3 4 -38 20 -79 36 -40 16 -76 36
-79 45 -3 8 -12 20 -19 25 -10 8 -10 22 1 73 7 35 18 67 23 70 6 4 30 52 53
107 23 55 50 117 61 138 19 38 37 84 88 232 15 44 35 96 43 115 20 44 70 172
72 185 11 51 20 81 25 85 10 7 121 243 121 258 0 6 12 34 27 61 l28 49 38 -39
c21 -22 71 -58 110 -82z m817 -182 c14 -8 36 -14 51 -15 14 0 29 -4 35 -9 5
-5 27 -14 49 -21 22 -7 45 -16 50 -20 6 -3 30 -13 55 -20 25 -7 52 -19 60 -25
8 -6 31 -18 50 -28 43 -21 68 -37 92 -59 10 -10 24 -18 32 -18 27 0 121 -91
148 -142 15 -28 31 -54 36 -57 4 -3 14 -26 21 -51 7 -25 17 -49 21 -55 10 -14
18 -63 26 -170 3 -49 7 -92 9 -95 8 -16 -19 -256 -35 -315 -32 -113 -71 -227
-92 -270 -12 -22 -24 -47 -29 -56 -4 -9 -13 -36 -19 -60 -21 -78 -136 -315
-175 -359 -12 -14 -25 -34 -29 -44 -6 -18 -9 -17 -26 12 -11 18 -20 36 -20 41
0 14 -34 47 -65 63 -73 38 -85 41 -149 36 -35 -3 -68 -2 -73 3 -11 11 -53 14
-75 4 -26 -10 -22 -1 15 39 50 55 57 64 72 101 8 18 19 36 25 40 5 3 10 13 10
22 0 8 9 27 19 42 21 29 51 134 77 261 30 154 6 300 -63 378 -28 32 -31 39
-20 57 7 11 21 47 31 80 10 33 24 72 32 87 8 14 14 33 14 41 0 9 6 22 13 29 6
7 21 39 32 72 10 32 24 64 30 70 18 19 32 72 28 103 -4 24 -12 32 -38 40 -28
9 -37 8 -54 -9 -12 -10 -21 -31 -21 -47 0 -15 -9 -36 -19 -45 -11 -10 -17 -24
-15 -31 3 -7 -3 -28 -12 -47 -10 -18 -20 -44 -21 -56 -2 -13 -19 -58 -38 -99
-19 -41 -35 -77 -35 -80 0 -22 -77 -156 -106 -184 l-35 -34 -117 2 c-91 2
-119 6 -128 18 -6 8 -16 15 -22 15 -11 0 12 83 28 105 4 6 11 26 15 45 4 19
27 78 51 131 24 53 44 101 44 108 0 7 11 33 25 59 14 26 25 57 25 69 0 13 5
23 10 23 6 0 10 6 10 13 0 7 9 32 20 55 11 22 20 46 20 52 0 6 8 25 17 43 9
18 18 34 18 37 4 23 71 140 79 140 6 -1 22 -7 36 -15z m-1241 -1325 c11 0 21
-5 23 -10 3 -11 -1 -10 158 -45 l115 -25 -79 4 c-43 3 -82 8 -85 13 -8 12 -42
9 -70 -6 -17 -10 -21 -18 -17 -36 6 -22 4 -23 -31 -18 -53 8 -121 42 -125 61
-2 9 1 36 6 59 l10 41 38 -19 c20 -10 46 -19 57 -19z m951 -402 c6 -20 4 -31
-9 -42 -22 -20 -32 -20 -25 -1 4 8 1 15 -5 15 -6 0 -11 6 -11 13 0 7 -9 29
-19 50 -10 20 -15 37 -11 37 4 0 11 12 15 28 7 27 7 26 32 -23 14 -27 29 -62
33 -77z m-131 -25 c5 -10 11 -27 12 -38 2 -11 12 -29 22 -40 10 -11 15 -26 11
-35 -4 -8 -9 -28 -13 -43 -5 -24 -8 -26 -23 -15 -18 13 -50 151 -41 175 7 18
21 16 32 -4z m-98 -95 c29 -84 28 -86 -53 -112 -16 -5 -18 2 -18 58 0 36 -3
71 -6 79 -3 10 4 18 23 25 15 5 30 8 32 6 2 -2 12 -27 22 -56z m339 22 c0 -5
-2 -10 -4 -10 -3 0 -8 5 -11 10 -3 6 -1 10 4 10 6 0 11 -4 11 -10z m-491 -69
c1 -28 4 -59 6 -69 4 -23 -30 -38 -42 -19 -11 18 -3 121 11 129 20 13 22 9 25
-41z m471 44 c0 -2 -9 -21 -21 -42 -45 -79 -32 -202 27 -260 18 -18 30 -33 26
-33 -4 0 25 -15 63 -33 61 -28 80 -32 155 -32 83 0 87 1 140 39 62 44 107 94
130 143 l16 32 24 -23 c73 -69 102 -121 107 -196 7 -105 5 -208 -5 -226 -6
-11 -10 -21 -9 -24 2 -15 -37 -120 -45 -120 -5 0 -7 -4 -4 -9 5 -8 -60 -103
-76 -109 -4 -2 -24 -19 -45 -37 -21 -19 -58 -43 -83 -55 -25 -12 -57 -28 -72
-36 -16 -9 -38 -12 -53 -8 -14 4 -25 2 -25 -4 0 -6 -15 -14 -32 -18 -47 -11
-47 -11 -55 -14 -5 -1 -12 -2 -17 -1 -4 1 -22 -3 -40 -8 -32 -10 -90 -16 -256
-26 -52 -3 -133 -8 -180 -11 -47 -3 -150 -7 -230 -9 -155 -3 -345 -14 -371
-21 -9 -2 -74 -7 -145 -9 -71 -3 -140 -7 -154 -10 -40 -8 -292 -9 -327 -1 -18
4 -33 12 -33 17 0 5 -9 9 -19 9 -10 0 -22 7 -25 16 -4 11 -14 15 -31 12 -14
-3 -25 -1 -25 3 0 5 4 9 8 9 12 0 33 41 36 71 7 46 17 64 69 118 17 18 83 54
132 72 37 14 149 23 320 25 141 1 178 5 218 21 26 11 45 22 41 25 -3 4 3 4 14
1 14 -3 24 2 31 16 7 12 18 21 25 21 17 0 36 51 36 93 0 29 -37 107 -50 107
-4 0 -23 13 -41 30 -20 17 -63 38 -104 51 -106 31 -159 59 -178 91 -9 15 -24
31 -34 35 -10 3 -29 14 -43 24 -28 19 -173 47 -231 45 -61 -3 -239 -101 -239
-132 0 -4 -11 -22 -25 -39 -25 -34 -68 -49 -132 -48 -18 0 -33 -3 -33 -8 0
-10 -29 -7 -47 4 -8 5 -13 3 -13 -4 0 -8 -23 -10 -87 -5 -49 4 -119 9 -158 11
-38 3 -92 12 -118 21 l-48 16 7 46 c8 58 29 100 63 130 37 32 141 81 198 92
26 5 79 16 116 25 37 8 72 13 77 10 5 -3 11 -1 14 4 3 4 20 11 37 15 17 3 46
13 64 22 32 15 36 15 64 -5 16 -12 32 -21 36 -21 7 0 47 -17 131 -56 28 -13
58 -24 66 -24 8 0 41 -9 74 -21 105 -36 128 -41 235 -44 59 -2 135 -7 170 -11
35 -4 78 -7 94 -7 344 9 416 16 505 51 14 5 59 15 100 21 99 15 107 18 113 42
4 16 11 19 27 14 25 -8 71 12 68 29 -4 26 15 77 39 100 23 24 43 33 43 21z
m345 -7 c71 -15 93 -44 86 -118 -3 -34 -38 -93 -63 -109 -93 -58 -153 -62
-231 -17 -51 30 -69 59 -70 113 -1 39 31 97 72 131 19 15 131 15 206 0z m-940
-99 l0 -44 -42 -3 c-39 -3 -41 -1 -38 20 7 48 18 67 39 71 36 7 41 2 41 -44z
m-161 -5 c-3 -40 -16 -54 -51 -54 -20 0 -23 5 -23 39 0 33 4 40 23 44 52 10
54 9 51 -29z m-574 11 c0 -18 -13 -18 -60 0 l-35 13 48 1 c35 1 47 -3 47 -14z
m409 -4 c17 -11 23 -58 8 -64 -27 -10 -54 11 -55 42 -1 32 17 41 47 22z m-267
-23 c17 -28 9 -38 -19 -26 -38 16 -46 24 -39 37 8 13 47 5 58 -11z m141 -2 c8
-19 -1 -26 -34 -26 -22 0 -27 4 -26 20 1 15 8 20 28 20 15 0 29 -6 32 -14z
m-293 -242 c73 -25 131 -54 126 -63 -3 -5 1 -14 9 -21 41 -34 -7 -124 -101
-186 -11 -8 -47 -17 -80 -20 -51 -6 -68 -3 -117 20 -31 14 -71 38 -88 53 -28
25 -30 33 -26 70 13 120 148 191 277 147z m335 -165 c30 -11 55 -25 55 -30 0
-5 6 -9 14 -9 19 0 56 -47 56 -70 0 -11 -18 -28 -45 -43 -40 -23 -52 -25 -132
-21 -48 3 -103 5 -122 4 l-34 -1 42 41 c24 23 54 66 67 96 13 30 28 54 33 54
6 0 35 -9 66 -21z"/>
<path d="M2684 2612 c-12 -8 -34 -46 -34 -59 0 -12 56 -44 64 -36 3 3 6 2 6
-3 0 -8 183 -3 235 7 49 9 62 66 15 62 -14 -1 -46 -4 -72 -6 -68 -5 -167 9
-186 26 -10 9 -22 13 -28 9z"/>
</g>
</svg>
