<?xml version="1.0" standalone="no"?>
<!DOCTYPE svg PUBLIC "-//W3C//DTD SVG 20010904//EN"
 "http://www.w3.org/TR/2001/REC-SVG-20010904/DTD/svg10.dtd">
<svg version="1.0" xmlns="http://www.w3.org/2000/svg"
 width="533.000000pt" height="391.000000pt" viewBox="0 0 533.000000 391.000000"
 preserveAspectRatio="xMidYMid meet">
<metadata>
Created by potrace 1.16, written by Peter Selinger 2001-2019
</metadata>
<g transform="translate(0.000000,391.000000) scale(0.100000,-0.100000)"
fill="#000000" stroke="none">
<path d="M2470 3508 c0 -3 -8 -4 -18 -1 -17 4 -101 -12 -305 -57 -48 -11 -92
-22 -97 -25 -5 -3 -33 -8 -62 -11 -29 -2 -66 -9 -83 -14 -16 -5 -54 -11 -84
-15 -30 -3 -71 -9 -90 -15 -20 -5 -58 -11 -86 -15 -27 -3 -65 -8 -84 -11 -23
-5 -36 -2 -42 7 -5 8 -9 9 -9 3 0 -13 -37 -22 -129 -30 -35 -3 -74 -9 -87 -15
-33 -12 -84 -22 -106 -21 -10 1 -24 2 -30 2 -7 1 -33 -4 -58 -11 -25 -6 -63
-13 -85 -14 -61 -5 -81 -12 -165 -55 -30 -16 -59 -37 -65 -47 -31 -57 -40 -63
-89 -59 -58 4 -137 -10 -147 -26 -4 -6 -31 -13 -61 -14 -51 -3 -81 -7 -143
-20 -37 -9 -109 -59 -131 -92 -10 -15 -19 -58 -23 -101 -5 -62 -3 -85 12 -121
31 -77 76 -103 212 -125 44 -7 131 -53 159 -84 15 -17 17 -30 12 -82 -4 -34
-10 -67 -14 -73 -3 -6 -5 -18 -4 -27 1 -8 -7 -56 -19 -105 -11 -49 -23 -116
-25 -149 -5 -59 -14 -136 -21 -165 -2 -8 -5 -37 -7 -65 -2 -27 -7 -75 -12
-105 -4 -30 -8 -67 -8 -82 -1 -16 -4 -28 -7 -28 -7 0 -21 -208 -20 -295 3
-290 9 -372 34 -460 13 -49 30 -110 37 -135 17 -62 69 -170 98 -200 13 -14 30
-37 39 -51 23 -38 109 -91 183 -111 84 -24 106 -27 218 -35 92 -6 93 -6 170
32 142 70 195 110 294 223 20 23 33 42 30 42 -4 0 -2 4 3 8 6 4 16 19 24 34 8
15 21 36 30 46 22 24 47 76 69 144 10 32 26 66 35 76 10 10 14 22 10 25 -3 4
1 35 10 69 20 78 35 173 41 258 14 184 18 229 28 273 10 48 11 49 87 84 42 20
83 41 91 48 13 11 72 45 137 80 13 7 52 38 88 71 36 32 67 57 70 54 3 -3 15
11 26 30 12 19 31 44 43 56 30 29 76 88 90 116 7 12 36 61 63 108 27 47 50 93
50 101 0 8 10 36 23 61 17 35 33 50 69 67 36 17 162 58 186 60 3 1 21 8 41 16
20 8 40 12 45 9 5 -3 9 0 9 5 0 6 7 11 15 11 8 0 23 4 33 9 9 5 43 21 75 37
31 16 57 31 57 35 0 4 20 31 45 60 25 29 45 58 45 65 0 7 15 16 33 19 17 4 39
12 47 19 50 37 60 39 100 11 21 -15 56 -43 77 -64 51 -49 154 -136 174 -147
65 -36 214 -179 259 -248 21 -34 44 -67 50 -73 6 -7 37 -69 70 -138 34 -69 65
-123 70 -120 22 14 8 75 -41 174 -101 207 -165 287 -334 425 -131 105 -153
125 -321 284 -8 8 -11 18 -8 24 3 5 9 20 13 34 6 23 7 23 35 9 15 -8 32 -15
38 -15 5 0 18 -9 29 -19 21 -19 54 -32 239 -94 58 -19 119 -41 137 -48 36 -15
52 -7 33 15 -14 18 -85 52 -225 108 -55 22 -107 45 -115 51 -15 12 -29 20 -99
59 -20 11 -43 27 -51 35 -13 14 -13 15 5 9 11 -5 79 -27 150 -50 160 -53 243
-85 363 -142 51 -25 114 -51 140 -60 26 -8 84 -34 130 -56 82 -41 97 -44 87
-17 -5 12 -135 99 -148 99 -3 0 -61 26 -129 58 -115 55 -182 86 -253 117 -39
17 -182 71 -242 91 -27 9 -55 22 -64 30 -8 8 -30 14 -47 14 -24 0 -32 4 -32
18 0 10 -22 41 -50 70 -39 41 -58 53 -91 58 -36 6 -89 44 -89 65 0 13 -102
109 -111 104 -5 -4 -9 -2 -9 3 0 6 -30 17 -67 26 -54 13 -109 16 -270 14 -112
-2 -203 -6 -203 -10z m453 -87 c31 -10 72 -31 91 -46 l35 -26 -37 -33 c-20
-18 -49 -43 -64 -56 -16 -13 -28 -28 -28 -33 0 -4 -7 -15 -15 -23 -8 -9 -18
-27 -22 -42 -3 -15 -9 -29 -13 -32 -17 -12 -35 -118 -29 -175 5 -51 11 -66 40
-96 53 -56 105 -83 161 -83 26 0 48 -1 48 -2 0 -1 -16 -21 -36 -43 -27 -29
-56 -48 -108 -67 -39 -15 -85 -33 -101 -40 -17 -7 -42 -15 -55 -18 -28 -5 -62
-16 -165 -53 -126 -45 -125 -44 -125 -81 0 -18 -6 -48 -14 -67 -8 -18 -12 -35
-10 -38 7 -7 -82 -162 -142 -248 -30 -43 -75 -95 -100 -116 -25 -21 -61 -53
-81 -70 -19 -18 -39 -33 -44 -33 -4 0 -14 -6 -21 -13 -20 -19 -113 -74 -139
-82 -13 -4 -29 -14 -37 -21 -7 -8 -20 -14 -27 -14 -8 0 -29 -9 -47 -19 -18
-11 -67 -28 -108 -39 -41 -11 -76 -25 -78 -32 -3 -7 1 -30 9 -52 10 -30 17
-38 31 -35 16 5 18 -2 18 -56 0 -34 -4 -89 -10 -122 -5 -33 -10 -76 -11 -95
-4 -107 -38 -265 -83 -383 -36 -95 -50 -120 -123 -219 -77 -105 -140 -163
-219 -202 -32 -16 -72 -38 -87 -49 -52 -36 -259 -17 -378 34 -44 19 -129 99
-129 122 0 5 -9 21 -19 36 -20 28 -62 148 -97 276 -17 61 -19 106 -19 345 0
245 6 339 31 472 1 9 5 43 9 75 3 32 8 72 10 88 2 17 6 64 10 105 4 41 17 127
30 190 35 172 36 178 42 269 3 46 2 86 -3 90 -5 3 -17 18 -27 34 -10 15 -26
27 -36 27 -44 0 -111 59 -124 108 -5 22 5 76 22 117 5 11 15 36 22 55 28 74
73 97 197 104 64 4 122 45 126 90 1 5 24 21 52 37 39 22 67 30 125 34 80 5
209 28 251 44 28 11 55 15 193 31 50 6 115 15 145 20 30 5 71 11 90 13 36 4
116 19 204 39 27 6 68 12 91 14 24 1 67 10 97 18 29 8 76 18 103 22 28 3 55
10 60 14 31 24 220 43 456 48 135 3 165 0 212 -17z m335 -236 c39 -43 41 -59
4 -62 -20 -1 -31 4 -37 19 -26 56 -80 47 -80 -13 0 -30 3 -34 29 -37 16 -2 33
1 39 7 17 17 27 13 27 -12 0 -28 17 -47 42 -47 13 0 18 -8 18 -25 0 -26 -9
-32 -26 -16 -5 6 -27 13 -49 16 -32 6 -44 3 -58 -13 -24 -27 -7 -74 26 -72 12
1 27 1 32 0 16 -5 30 -8 38 -9 13 -2 -16 -27 -52 -46 -71 -36 -134 -17 -166
52 -16 34 -22 94 -11 133 2 8 7 30 11 48 4 18 17 39 28 47 12 8 17 20 14 29
-4 10 -1 16 8 16 8 0 15 4 15 9 0 13 37 20 80 15 24 -2 45 -14 68 -39z m-294
-77 c-16 -50 -20 -85 -17 -135 4 -55 -10 -72 -21 -28 -13 50 15 185 37 185 5
0 5 -10 1 -22z m-2526 -181 c-30 -57 -50 -145 -43 -187 8 -48 -5 -51 -71 -19
-58 28 -69 60 -50 151 10 48 31 66 103 87 69 22 84 14 61 -32z"/>
<path d="M2240 2541 c0 -9 -62 -35 -90 -37 -14 -2 -50 -7 -80 -13 -30 -5 -98
-12 -150 -15 -168 -10 -214 -19 -243 -48 -15 -15 -32 -31 -39 -35 -7 -4 -23
-27 -36 -50 -20 -36 -22 -52 -18 -118 5 -72 21 -149 37 -170 4 -5 14 -35 22
-67 14 -55 14 -56 -7 -62 -11 -3 -33 -6 -47 -6 -14 0 -36 -11 -48 -24 l-22
-24 23 -27 23 -27 70 15 c39 8 100 28 137 46 37 17 72 31 77 31 6 0 14 6 18
13 4 7 34 28 65 46 31 17 58 35 60 39 2 4 23 18 48 31 39 22 104 83 105 100 1
3 17 31 37 61 47 73 78 135 78 157 0 10 7 31 16 48 8 16 17 55 20 87 l4 57
-30 -1 c-17 -1 -30 -4 -30 -7z m-45 -143 c-20 -94 -128 -255 -183 -272 -12 -4
-22 -12 -22 -17 0 -5 -4 -9 -9 -9 -5 0 -6 11 -1 28 10 32 30 163 30 196 0 13
7 29 15 36 8 6 13 17 12 23 -1 6 34 18 78 27 44 10 81 18 83 19 2 0 1 -14 -3
-31z m-252 -65 c-5 -77 -24 -173 -34 -173 -10 0 -32 40 -26 47 3 2 -3 13 -14
24 -14 14 -19 33 -19 79 0 66 11 79 66 80 l31 0 -4 -57z m-176 -13 c-3 -27 -1
-52 3 -55 5 -3 7 -12 3 -20 -3 -8 0 -15 7 -15 6 0 8 -5 5 -10 -3 -6 3 -23 14
-39 12 -16 21 -32 21 -37 0 -4 11 -22 25 -40 14 -18 25 -39 25 -46 0 -10 2
-10 9 1 5 7 14 10 20 7 16 -10 4 -26 -20 -26 -11 0 -22 -7 -25 -15 -6 -14 -95
-65 -114 -65 -4 0 -10 8 -13 18 -45 140 -59 197 -62 249 -4 60 -3 63 36 102
55 57 72 55 66 -9z"/>
<path d="M889 2522 c-28 -3 -53 -41 -43 -65 9 -23 57 -53 119 -75 74 -25 134
-41 160 -42 59 -3 265 1 298 6 33 5 37 9 37 36 0 42 -17 68 -45 68 -13 0 -26
-4 -30 -9 -3 -6 -13 -9 -23 -9 -9 0 -63 -2 -120 -6 -89 -5 -113 -3 -174 15
-84 26 -111 39 -135 65 -11 13 -27 19 -44 16z"/>
<path d="M3083 3058 c-41 -11 -44 -44 -8 -78 14 -13 25 -18 25 -12 0 7 9 12
20 12 11 0 20 4 20 9 0 5 2 16 5 23 3 8 -2 23 -12 34 -15 17 -24 19 -50 12z"/>
<path d="M4431 2596 c-13 -16 15 -73 47 -94 13 -9 34 -28 45 -41 12 -13 27
-28 32 -32 66 -54 85 -73 85 -83 0 -7 16 -39 36 -72 19 -32 35 -59 33 -59 -10
0 19 -55 38 -72 33 -31 65 -29 85 5 19 32 35 132 21 132 -5 0 -10 10 -10 22
-3 29 -23 68 -37 68 -6 0 -18 15 -27 33 -8 17 -29 41 -46 52 -17 11 -35 32
-40 46 -11 28 -69 59 -147 79 -22 6 -48 14 -56 17 -26 11 -49 11 -59 -1z m205
-124 c13 -9 37 -52 29 -52 -7 0 -22 15 -44 43 -14 17 -5 23 15 9z m72 -78 c12
-8 22 -21 22 -29 0 -7 13 -26 29 -41 17 -15 27 -32 25 -36 -3 -5 -1 -14 4 -21
13 -16 3 -67 -13 -67 -7 0 -15 16 -18 35 -3 19 -17 49 -30 67 -28 37 -60 108
-49 108 4 0 18 -7 30 -16z"/>
<path d="M4106 2537 c-7 -28 10 -58 54 -91 37 -28 74 -86 85 -137 6 -26 78
-109 94 -109 5 0 11 -6 13 -12 4 -10 16 -9 53 3 39 12 50 20 56 43 10 35 -18
126 -45 145 -10 8 -34 28 -51 45 -43 40 -74 66 -81 66 -2 0 -10 4 -17 10 -69
56 -76 60 -115 58 -31 -1 -42 -6 -46 -21z m228 -172 c19 -19 39 -35 44 -35 17
0 26 -61 11 -71 -19 -11 -74 39 -88 81 -7 19 -15 41 -17 48 -11 24 17 12 50
-23z"/>
<path d="M4194 1866 c-8 -20 24 -84 48 -97 26 -14 37 -47 54 -154 14 -94 38
-158 72 -188 27 -24 83 -20 99 8 14 24 17 88 4 113 -5 9 -16 33 -25 52 -9 19
-20 42 -25 50 -5 8 -17 36 -26 62 -9 26 -29 62 -45 80 -17 18 -30 37 -30 42 0
4 -7 6 -15 2 -9 -3 -24 4 -37 19 -24 27 -65 33 -74 11z m199 -298 c23 -48 26
-78 7 -78 -9 0 -24 38 -39 93 -14 53 3 46 32 -15z"/>
<path d="M4779 1236 c-2 -2 -29 -6 -59 -9 -62 -6 -90 -15 -90 -28 0 -5 -50 -9
-111 -9 -92 0 -115 -3 -137 -19 -15 -10 -37 -21 -49 -25 -42 -13 -66 -74 -45
-114 10 -18 10 -23 0 -26 -7 -3 -36 -12 -64 -20 -28 -9 -65 -18 -83 -21 -59
-7 -161 -63 -207 -112 -36 -40 -44 -55 -44 -87 0 -47 36 -87 72 -79 22 4 22 4
4 -11 -11 -9 -23 -16 -26 -16 -7 0 -31 -55 -46 -105 -5 -16 -8 -44 -6 -62 8
-77 204 -114 396 -74 122 26 132 26 192 -1 125 -55 345 -2 408 99 29 44 38
111 22 161 -7 21 -5 22 51 23 32 1 61 1 66 0 4 0 7 3 7 9 0 5 7 7 15 4 29 -12
64 7 120 62 44 45 54 60 49 78 -4 11 -11 23 -16 24 -4 2 -15 10 -22 18 -21 20
-62 34 -102 34 -47 0 -43 14 15 45 27 15 52 37 56 49 21 64 16 126 -10 126 -8
0 -15 7 -15 15 0 27 -49 48 -116 52 -36 1 -73 7 -84 13 -18 9 -132 15 -141 6z
m156 -86 c22 -5 58 -10 80 -10 50 0 85 -23 85 -55 0 -25 -52 -61 -157 -110
-24 -11 -43 -26 -43 -33 0 -27 21 -52 45 -52 13 0 35 -4 50 -10 14 -5 51 -12
83 -16 69 -7 82 -17 58 -43 -22 -24 -134 -51 -213 -51 -33 0 -64 -5 -69 -10
-12 -12 -154 -43 -162 -36 -10 10 -42 -15 -42 -33 0 -34 25 -44 93 -37 74 9
106 10 113 3 14 -14 14 -65 -1 -77 -8 -7 -15 -17 -15 -22 0 -23 -43 -49 -120
-71 -93 -27 -169 -28 -223 -2 -44 20 -106 20 -215 1 -109 -20 -238 -16 -294 7
-35 15 -37 18 -31 49 8 45 18 55 82 87 61 29 72 51 50 103 -12 29 -38 38 -79
27 -14 -3 -34 -3 -44 1 -19 6 -19 7 2 28 12 12 22 26 22 31 0 5 8 11 18 15 9
3 35 17 57 31 22 13 58 27 80 30 22 3 49 10 60 14 11 5 33 14 48 20 15 6 49
11 75 11 56 0 67 6 81 42 9 25 7 29 -24 48 -49 30 -45 47 19 80 58 30 296 9
296 -26 0 -17 24 -18 51 -4 21 12 25 40 7 58 -28 28 80 36 177 12z"/>
</g>
</svg>
