<?xml version="1.0" standalone="no"?>
<!DOCTYPE svg PUBLIC "-//W3C//DTD SVG 20010904//EN"
 "http://www.w3.org/TR/2001/REC-SVG-20010904/DTD/svg10.dtd">
<svg version="1.0" xmlns="http://www.w3.org/2000/svg"
 width="505.000000pt" height="465.000000pt" viewBox="0 0 505.000000 465.000000"
 preserveAspectRatio="xMidYMid meet">
<metadata>
Created by potrace 1.16, written by Peter Selinger 2001-2019
</metadata>
<g transform="translate(0.000000,465.000000) scale(0.100000,-0.100000)"
fill="#000000" stroke="none">
<path d="M1962 4562 c-17 -23 -38 -82 -43 -117 0 -5 -5 -18 -11 -28 -5 -10
-14 -46 -19 -80 -6 -34 -16 -75 -24 -92 -27 -60 -28 -92 -3 -109 12 -9 34 -16
49 -16 14 0 29 -3 32 -7 4 -3 23 -7 42 -8 45 -2 49 -7 24 -34 -28 -30 -42
-119 -23 -148 22 -35 18 -40 -39 -46 -30 -3 -71 -15 -93 -26 -21 -12 -43 -21
-47 -21 -19 0 -98 -75 -130 -123 -32 -48 -34 -57 -31 -120 3 -60 1 -68 -13
-63 -9 4 -19 2 -22 -3 -6 -10 -62 -55 -101 -81 -12 -8 -33 -25 -46 -37 -14
-13 -29 -23 -33 -23 -5 0 -11 -18 -15 -40 -3 -22 -11 -40 -16 -40 -10 0 -9
-18 4 -115 1 -5 5 -15 8 -21 4 -6 -10 -27 -32 -48 -22 -20 -54 -59 -71 -86
-18 -28 -36 -50 -41 -50 -4 0 -8 -6 -8 -14 0 -8 -8 -21 -17 -28 -24 -18 -55
-74 -52 -96 1 -9 -2 -25 -6 -36 -5 -10 -4 -26 2 -34 15 -24 105 -71 138 -71
40 -2 19 -15 -54 -37 -30 -9 -65 -27 -78 -40 -13 -14 -28 -22 -33 -19 -15 10
-150 13 -150 4 0 -5 -4 -8 -9 -7 -18 6 -91 -49 -110 -82 -27 -48 -22 -118 13
-196 22 -48 38 -68 74 -90 44 -28 113 -39 137 -22 23 15 159 38 166 27 10 -18
53 -17 273 1 116 10 267 18 334 19 l124 1 -7 -43 c-7 -39 -38 -152 -52 -187
-16 -40 -68 -309 -77 -400 -1 -14 -5 -30 -8 -36 -4 -5 -14 -49 -23 -97 -9 -48
-25 -114 -35 -145 -10 -31 -21 -79 -24 -107 -3 -27 -8 -65 -11 -83 -3 -28 2
-39 39 -77 48 -51 76 -56 100 -20 14 22 24 25 59 24 23 -1 47 -4 53 -6 12 -4
19 -80 17 -193 -1 -41 -2 -93 -2 -115 0 -162 -2 -191 -17 -212 -17 -27 -85
-92 -96 -93 -10 0 -67 -58 -108 -110 -73 -92 -106 -211 -70 -255 22 -26 72
-45 121 -45 53 0 208 39 257 64 18 9 32 14 32 12 0 -7 191 95 217 115 6 6 23
34 37 63 22 45 27 71 31 167 5 132 16 275 22 304 2 11 11 62 19 114 8 52 19
100 25 107 6 7 8 18 4 23 -3 6 -1 19 4 30 8 14 26 20 73 25 97 10 114 13 136
25 33 18 62 14 63 -9 2 -23 1 -19 18 -87 7 -29 10 -56 7 -61 -3 -5 0 -33 7
-63 7 -30 10 -72 7 -94 -4 -35 0 -97 16 -215 2 -19 6 -71 7 -116 2 -44 8 -87
13 -95 5 -8 9 -18 9 -23 0 -5 28 -24 62 -41 35 -18 59 -36 55 -40 -4 -5 1 -5
11 -2 9 4 32 -2 50 -12 17 -10 52 -21 77 -25 25 -4 55 -14 68 -22 13 -9 45
-19 70 -23 26 -5 52 -9 57 -11 33 -8 95 2 115 20 13 11 26 20 30 20 4 0 15 16
25 36 13 28 15 49 10 90 -3 30 -11 54 -16 54 -5 0 -9 8 -9 18 -1 11 -20 26
-53 42 -29 13 -63 32 -76 42 -12 10 -38 20 -56 24 -28 5 -34 11 -38 37 -3 18
-1 36 3 41 5 5 4 20 -1 34 -6 15 -13 103 -16 197 -3 93 -9 177 -13 185 -5 8
-9 35 -11 60 -1 25 -5 49 -8 55 -9 17 -9 51 -1 65 7 11 15 11 47 1 64 -20 119
-10 159 28 38 38 43 75 16 141 -18 44 -64 212 -87 315 -10 44 -21 85 -25 90
-6 9 -29 70 -36 100 -20 78 -39 136 -54 165 -10 19 -20 52 -23 72 -2 21 -17
71 -32 113 -34 92 -38 87 113 141 56 20 102 41 102 46 0 5 4 7 8 4 9 -5 77 16
88 27 4 4 16 7 26 7 10 0 26 4 36 9 9 5 38 15 64 22 26 7 44 17 42 21 -3 4 5
8 18 8 13 0 29 5 35 11 5 5 21 11 34 13 13 1 33 7 44 13 11 6 48 11 83 11 39
1 70 7 84 16 12 9 30 16 40 16 10 0 18 3 18 8 0 4 20 21 45 37 24 17 45 38 45
47 0 9 5 18 11 20 13 4 14 42 2 113 -13 72 -52 119 -121 145 -66 25 -103 19
-210 -31 l-63 -30 -81 16 c-44 8 -99 15 -121 15 l-41 0 41 43 c55 56 62 87 31
135 -49 74 -58 92 -58 117 0 15 -4 34 -9 44 -6 10 -11 28 -13 42 -7 46 -28 69
-73 81 -37 10 -42 14 -34 29 14 27 11 96 -6 128 -9 19 -25 31 -45 35 -16 3
-43 9 -60 12 -16 3 -35 12 -41 20 -6 8 -18 14 -26 14 -29 0 -44 27 -38 70 5
39 0 58 -37 135 -6 14 -5 31 2 50 7 17 14 39 16 50 2 10 28 69 59 130 30 61
55 120 55 130 -1 25 -23 55 -40 55 -7 0 -19 8 -26 18 -11 14 -13 15 -14 1 0
-13 -17 -15 -127 -12 -163 4 -208 8 -258 23 -22 6 -59 15 -82 20 -23 5 -61 23
-84 39 -22 17 -66 40 -96 51 -31 11 -74 31 -97 44 -22 13 -63 29 -90 35 -27 7
-61 20 -75 30 -14 9 -45 23 -68 29 -108 30 -128 37 -133 42 -9 9 -49 30 -59
30 -5 0 -18 -12 -29 -28z m126 -131 c34 -18 90 -41 101 -41 6 0 11 -4 11 -9 0
-4 28 -16 63 -26 34 -9 102 -37 151 -61 50 -24 96 -44 102 -44 7 0 15 -4 18
-8 7 -12 -31 -92 -44 -92 -6 0 -23 12 -37 26 -28 28 -54 30 -293 24 -30 -1
-71 2 -90 5 -19 3 -46 7 -60 8 -18 1 -26 9 -28 25 -2 12 2 22 8 22 7 0 9 8 5
20 -5 17 5 72 23 120 5 14 8 23 11 35 2 8 40 6 59 -4z m632 -268 c36 -7 76
-16 90 -18 14 -3 80 -8 148 -12 134 -7 136 -8 102 -68 -11 -19 -18 -35 -15
-35 2 0 -9 -26 -25 -57 l-30 -57 -57 3 c-68 3 -98 19 -107 58 -11 50 -48 82
-125 108 -40 14 -86 25 -102 25 -27 0 -28 2 -18 27 16 42 29 54 53 47 12 -4
50 -13 86 -21z m-362 -72 c13 -1 43 -21 69 -47 34 -33 52 -44 67 -40 12 3 28
-2 39 -12 14 -12 35 -17 76 -16 65 2 111 -23 111 -60 0 -54 89 -106 191 -111
39 -2 74 -6 77 -10 7 -6 10 -18 22 -85 17 -95 36 -133 86 -177 38 -34 59 -44
97 -49 27 -4 51 -12 53 -19 3 -6 -2 -32 -10 -56 -16 -46 -14 -52 31 -96 12
-13 28 -23 35 -23 21 0 57 -50 64 -89 4 -20 13 -45 21 -57 7 -11 10 -24 6 -28
-5 -4 1 -14 11 -22 32 -23 12 -27 -54 -10 -71 18 -116 20 -125 6 -3 -5 -15
-10 -25 -10 -10 0 -25 -6 -32 -13 -33 -32 -88 -68 -96 -63 -5 3 -40 8 -78 12
-89 7 -120 22 -117 54 2 14 4 41 6 60 2 19 7 41 11 49 11 17 8 158 -4 180 -5
9 -14 54 -21 98 -12 73 -16 83 -42 98 -21 13 -39 15 -65 10 -21 -3 -54 -9 -75
-12 -36 -5 -37 -4 -28 19 14 37 15 100 2 131 -6 15 -14 39 -17 52 -7 29 -33
39 -75 30 -31 -7 -41 -21 -43 -59 -1 -11 -8 -30 -16 -42 -14 -19 -23 -21 -118
-19 -98 2 -104 1 -141 -27 -67 -49 -74 -68 -56 -163 6 -37 4 -44 -25 -72 -21
-20 -32 -42 -34 -64 -2 -19 -9 -54 -16 -79 -7 -25 -14 -70 -16 -100 -2 -30 -3
-58 -3 -62 -1 -4 -22 -10 -49 -14 -50 -6 -87 -31 -118 -80 -10 -16 -29 -38
-42 -49 -14 -11 -38 -32 -56 -47 -37 -33 -59 -35 -107 -9 -83 45 -171 56 -208
28 -63 -50 -166 -85 -188 -63 -5 5 33 73 52 91 5 6 29 23 53 39 50 34 57 45
76 119 10 37 12 73 7 117 -8 65 2 90 35 90 18 0 116 53 161 86 17 13 41 38 53
55 21 29 22 32 6 72 -27 72 -18 134 20 143 13 3 24 10 24 15 0 5 5 9 11 9 6 0
22 9 36 20 29 22 82 39 152 47 75 8 118 31 125 66 6 31 -14 100 -41 143 -12
19 -10 24 22 50 44 36 134 70 178 67 17 -1 42 -2 55 -2z m228 -478 c-17 -61
-15 -79 9 -108 24 -29 28 -30 102 -30 l77 0 13 -50 c28 -100 30 -113 28 -161
-5 -93 -25 -161 -62 -211 -86 -113 -142 -144 -279 -151 -118 -6 -167 11 -185
66 -11 33 -22 50 -80 114 -37 41 -43 104 -17 182 11 34 27 68 36 77 53 52 66
97 43 152 -16 42 -14 50 22 74 33 23 57 25 221 22 11 0 29 9 40 21 25 25 39
26 32 3z m787 -659 c36 -17 54 -43 20 -29 -10 4 -35 9 -56 12 -21 3 -40 10
-43 14 -3 5 -21 9 -40 9 -19 0 -34 5 -34 11 0 17 107 5 153 -17z m-1253 -13
c14 -4 20 -10 15 -13 -11 -6 -143 -48 -153 -48 -3 0 9 16 28 35 34 35 57 41
110 26z m792 -45 c46 -9 74 -20 87 -34 10 -12 26 -22 35 -22 9 0 16 -4 16 -8
0 -15 59 -6 77 11 13 11 23 13 36 6 9 -6 45 -12 80 -15 34 -2 85 -8 112 -14
89 -17 118 -20 210 -26 156 -9 151 -7 159 -64 4 -27 11 -52 16 -55 15 -9 12
-22 -7 -29 -10 -3 -25 -10 -33 -15 -25 -15 -114 -51 -135 -55 -11 -1 -33 -8
-48 -14 -16 -7 -36 -12 -46 -12 -9 0 -22 -5 -28 -11 -11 -11 -40 -23 -158 -66
-22 -8 -58 -23 -81 -34 -22 -10 -48 -19 -57 -19 -9 0 -18 -4 -21 -9 -3 -4 -21
-11 -41 -14 -19 -3 -42 -13 -50 -21 -16 -15 -18 -72 -3 -92 4 -6 10 -28 14
-50 3 -21 13 -55 21 -74 8 -19 21 -66 29 -103 8 -38 25 -92 39 -121 14 -29 25
-62 25 -74 0 -11 9 -36 19 -54 11 -18 23 -55 26 -83 4 -27 16 -69 26 -92 10
-23 23 -70 28 -105 5 -35 17 -78 27 -97 9 -19 17 -48 18 -65 1 -17 8 -36 16
-43 21 -17 -2 -16 -36 2 -36 19 -74 19 -99 1 -11 -7 -32 -16 -47 -20 -15 -3
-30 -15 -33 -26 -9 -28 -104 -102 -118 -93 -7 4 -20 9 -29 10 -9 1 -32 19 -51
38 -28 29 -44 37 -82 40 -40 4 -53 0 -88 -24 -56 -39 -114 -55 -170 -47 -43 7
-97 41 -97 62 0 10 -18 13 -86 14 -43 0 -98 -23 -152 -64 -49 -36 -101 -42
-150 -17 -45 23 -83 28 -125 16 l-28 -7 5 63 c3 35 10 82 17 104 7 22 12 43
11 48 -1 4 2 7 6 7 5 0 9 6 9 13 2 24 12 102 17 127 3 14 12 63 21 110 9 47
20 105 26 130 5 25 19 88 30 140 11 52 26 124 33 160 17 81 34 130 54 153 13
15 13 23 2 57 -7 22 -17 37 -21 34 -4 -2 -12 3 -17 12 -7 13 -33 17 -138 21
-231 8 -428 9 -474 1 -25 -4 -81 -5 -124 -1 -88 9 -80 -1 -92 105 -8 67 -7 67
111 93 44 9 125 34 180 55 55 21 125 41 155 45 62 7 125 22 155 34 42 18 127
41 135 36 5 -3 21 0 37 7 15 6 33 13 38 13 16 3 66 24 113 47 56 28 67 30 111
13 42 -16 287 -11 301 6 3 3 30 20 60 37 63 36 110 40 222 18z m1036 -62 c12
-8 31 -33 41 -54 18 -39 18 -39 -3 -58 -11 -10 -39 -27 -60 -37 -33 -14 -45
-15 -77 -6 -32 10 -40 18 -49 49 -16 59 -13 65 48 94 69 32 72 32 100 12z
m-2294 -25 c32 -19 27 -24 -29 -32 -31 -5 -136 -36 -213 -64 -24 -8 -45 -13
-47 -11 -4 4 118 88 129 88 3 0 22 11 42 25 40 27 66 26 118 -6z m-468 -324
c27 -11 32 -19 36 -55 3 -35 0 -44 -15 -48 -10 -2 -16 -10 -14 -16 5 -14 -46
-36 -82 -36 -44 0 -99 19 -106 38 -15 38 -16 89 -1 101 34 28 132 37 182 16z
m1218 -1420 c-2 -36 -9 -85 -15 -108 -14 -54 -35 -199 -43 -302 -3 -44 -10
-105 -15 -135 -6 -30 -13 -79 -16 -109 -3 -30 -12 -62 -20 -71 -18 -20 -129
-80 -148 -80 -8 0 -20 -6 -26 -13 -6 -8 -28 -19 -48 -25 -21 -6 -71 -21 -111
-34 -88 -27 -98 -20 -74 51 12 36 40 70 129 157 62 62 118 125 124 140 8 19
12 108 11 261 -1 242 2 275 22 267 20 -8 55 10 139 68 37 26 41 26 67 13 28
-14 29 -17 24 -80z m709 -30 c4 -27 9 -120 12 -205 6 -194 29 -358 53 -380 9
-8 29 -21 45 -27 15 -7 27 -18 27 -24 0 -9 4 -8 14 0 11 9 17 8 28 -2 7 -8 30
-20 51 -26 37 -13 54 -32 53 -61 -2 -30 -100 -20 -204 21 -13 5 -32 9 -43 9
-11 0 -42 11 -69 25 -27 14 -54 25 -61 25 -27 0 -48 46 -54 120 -3 41 -8 100
-11 130 -3 30 -7 100 -10 155 -3 55 -11 140 -18 190 -8 49 -13 90 -12 91 0 1
27 -2 59 -6 41 -4 63 -2 75 7 9 7 26 12 37 10 16 -1 22 -12 28 -52z"/>
<path d="M2317 3379 c-6 -23 10 -56 30 -63 21 -8 44 5 54 32 13 33 -4 52 -46
52 -25 0 -34 -5 -38 -21z"/>
<path d="M2616 3374 c-27 -26 -18 -56 22 -68 44 -14 73 52 33 74 -27 14 -37
13 -55 -6z"/>
<path d="M2584 3152 c-23 -22 -86 -52 -108 -52 -20 0 -68 22 -81 36 -21 24
-49 24 -67 -1 -17 -23 -17 -25 7 -54 14 -16 39 -32 55 -36 16 -4 32 -11 35
-16 13 -19 99 -9 155 18 58 30 79 49 80 73 0 40 -46 59 -76 32z"/>
<path d="M2539 2677 c-10 -8 -15 -27 -15 -52 1 -30 -3 -40 -16 -43 -13 -3 -18
3 -18 22 0 13 -7 32 -16 40 -18 19 -17 19 -47 5 -19 -8 -23 -17 -21 -45 4 -47
19 -71 57 -91 76 -40 153 7 148 91 -3 58 -41 96 -72 73z"/>
<path d="M2528 2193 c-10 -2 -18 -10 -18 -16 0 -7 -10 -24 -23 -37 -23 -24
-23 -26 -9 -81 17 -60 31 -72 104 -82 33 -5 37 -3 48 24 7 16 18 29 25 29 13
0 25 30 25 61 0 9 -15 24 -32 32 -32 15 -33 15 -45 -6 -6 -12 -9 -25 -6 -29 2
-5 -3 -11 -12 -15 -27 -10 -37 19 -14 40 10 10 19 23 19 30 0 16 -29 57 -38
56 -4 -1 -15 -3 -24 -6z"/>
<path d="M2563 1853 c-12 -2 -27 -11 -33 -19 -7 -8 -18 -14 -25 -14 -14 0 -47
-72 -36 -80 4 -3 11 -23 16 -44 9 -34 17 -43 57 -63 47 -24 48 -24 68 -5 12
11 36 28 55 38 26 14 35 25 35 44 0 50 -37 64 -80 30 -30 -23 -70 -26 -70 -6
0 20 19 30 53 28 17 -2 26 2 22 8 -3 5 -2 10 4 10 16 0 18 34 3 58 -14 21 -24
24 -69 15z"/>
</g>
</svg>
