<?xml version="1.0" standalone="no"?>
<!DOCTYPE svg PUBLIC "-//W3C//DTD SVG 20010904//EN"
 "http://www.w3.org/TR/2001/REC-SVG-20010904/DTD/svg10.dtd">
<svg version="1.0" xmlns="http://www.w3.org/2000/svg"
 width="479.000000pt" height="471.000000pt" viewBox="0 0 479.000000 471.000000"
 preserveAspectRatio="xMidYMid meet">
<metadata>
Created by potrace 1.16, written by Peter Selinger 2001-2019
</metadata>
<g transform="translate(0.000000,471.000000) scale(0.100000,-0.100000)"
fill="#000000" stroke="none">
<path d="M2417 4483 c-2 -1 -100 -3 -218 -4 -179 0 -218 -3 -239 -16 -33 -22
-50 -46 -41 -58 4 -5 8 -57 10 -115 2 -81 6 -108 18 -117 11 -8 60 -11 157
-10 l141 1 -3 -34 c-2 -19 -17 -63 -33 -96 -35 -75 -36 -84 -5 -113 24 -23 25
-23 49 -5 13 10 30 32 37 49 7 16 23 54 37 84 14 29 27 68 30 85 l5 32 124 0
c81 -1 127 3 132 10 4 6 24 14 44 18 47 9 55 33 38 119 -14 72 -29 107 -45
107 -7 0 -10 9 -8 24 3 13 0 27 -6 31 -11 6 -218 14 -224 8z m71 -123 c50 -1
93 -4 93 -8 1 -4 3 -21 5 -39 l2 -31 -156 -2 c-179 -3 -285 -3 -357 -1 l-50 1
3 44 4 44 181 -3 c100 -3 224 -5 275 -5z"/>
<path d="M2330 3985 c-17 -21 -110 -205 -110 -219 0 -20 45 -63 60 -58 30 9
60 46 60 73 0 15 5 31 11 35 15 9 59 109 59 134 0 41 -55 66 -80 35z"/>
<path d="M2332 3712 c-12 -10 -24 -27 -27 -40 -2 -12 -13 -35 -24 -51 -27 -38
-19 -84 16 -100 38 -18 59 -5 82 50 41 93 10 184 -47 141z"/>
<path d="M2333 3460 c-18 -11 -33 -24 -33 -28 0 -5 -11 -14 -25 -20 -14 -7
-25 -20 -25 -31 0 -29 -16 -35 -105 -37 -85 -3 -142 -15 -137 -29 2 -4 -2 -11
-8 -15 -6 -4 -13 -27 -15 -51 -2 -24 -10 -64 -18 -89 -9 -25 -18 -64 -22 -87
-4 -24 -10 -43 -14 -43 -4 0 -13 -16 -20 -35 -6 -19 -28 -53 -47 -76 -18 -22
-34 -45 -34 -50 0 -13 -47 -79 -85 -118 -18 -20 -51 -54 -72 -76 -21 -22 -59
-56 -83 -75 -25 -19 -52 -42 -61 -52 -9 -10 -19 -18 -22 -18 -8 0 -47 -35
-152 -135 -46 -44 -98 -91 -115 -105 -16 -14 -30 -30 -30 -36 0 -7 -11 -19
-24 -27 -13 -9 -27 -28 -31 -44 -3 -15 -12 -35 -19 -43 -7 -8 -22 -49 -35 -90
-12 -41 -29 -89 -37 -107 -32 -72 -56 -342 -40 -458 3 -22 8 -53 10 -70 14
-94 74 -295 88 -295 4 0 8 -5 8 -12 0 -41 74 -152 161 -241 30 -30 68 -71 85
-90 18 -19 54 -49 80 -68 27 -19 50 -37 52 -41 7 -14 68 -47 152 -81 120 -48
177 -74 241 -107 31 -16 67 -31 80 -34 28 -5 202 -67 242 -86 15 -7 27 -17 27
-22 0 -4 5 -8 12 -8 36 0 183 -132 193 -173 4 -16 17 -26 43 -33 51 -13 68 -8
82 27 7 16 16 29 21 29 5 0 9 4 9 9 0 5 28 39 63 76 68 73 179 159 236 182 20
8 44 22 54 31 9 8 26 20 36 26 114 67 182 110 202 127 13 11 36 28 52 37 15 9
27 19 27 22 0 3 11 18 25 34 14 16 25 26 25 22 0 -4 7 -1 15 8 8 8 15 19 15
25 0 5 8 16 18 23 31 22 152 232 152 264 0 8 5 14 10 14 6 0 10 5 10 12 0 7
15 51 34 98 52 129 49 120 70 205 30 122 27 562 -3 599 -7 8 -13 27 -15 44 -3
17 -9 39 -15 50 -6 11 -8 22 -5 25 4 3 -3 18 -15 33 -11 15 -21 33 -21 42 0
46 -156 233 -232 280 -16 9 -28 22 -28 29 0 7 -6 13 -13 13 -8 0 -22 9 -32 20
-10 11 -24 20 -31 20 -7 0 -17 6 -21 13 -4 6 -26 25 -49 40 -22 15 -50 36 -62
47 -12 11 -25 20 -31 20 -5 0 -11 7 -15 15 -3 8 -11 15 -18 15 -8 0 -20 9 -28
20 -8 11 -20 20 -27 20 -7 0 -13 4 -13 9 0 4 -10 19 -23 32 -13 13 -36 42 -53
64 -16 22 -32 42 -35 45 -21 17 -129 176 -129 190 0 9 -4 20 -9 25 -5 6 -19
43 -30 84 -23 84 -23 83 -54 87 -12 1 -25 3 -29 3 -4 1 -5 7 -3 14 8 22 -30
55 -66 57 -19 1 -36 1 -39 0 -14 -5 -122 -4 -126 1 -2 4 3 12 11 19 9 7 15 29
15 51 0 32 -4 39 -19 39 -11 0 -21 4 -23 10 -1 5 -18 1 -35 -10z m256 -270 c3
-58 6 -74 20 -105 24 -54 55 -110 68 -123 7 -7 13 -18 13 -23 0 -11 15 -31 43
-57 9 -9 17 -22 17 -28 0 -7 11 -25 24 -40 13 -16 43 -51 66 -78 28 -33 38
-52 31 -60 -5 -6 -11 -23 -13 -36 -6 -39 -20 -57 -73 -92 -51 -33 -143 -68
-180 -68 -12 0 -25 -4 -30 -9 -10 -10 -62 -18 -170 -27 -76 -7 -69 -7 -145 0
-108 10 -153 17 -171 27 -10 5 -28 9 -41 9 -13 0 -41 9 -63 20 -22 11 -45 20
-52 20 -7 0 -13 5 -13 10 0 6 -10 10 -22 10 -26 0 -114 55 -122 76 -4 10 7 30
28 52 83 88 166 203 166 230 0 5 4 12 9 14 10 4 67 132 76 173 22 93 37 134
53 138 9 2 121 3 248 3 l231 0 2 -36z m392 -593 c30 -23 40 -108 17 -152 -14
-24 -49 -54 -65 -55 -7 0 -13 -3 -13 -7 0 -14 -135 -78 -157 -74 -6 1 -14 -3
-18 -9 -3 -5 -15 -10 -26 -10 -11 0 -30 -6 -42 -14 -25 -16 -148 -50 -222 -62
-27 -4 -57 -9 -65 -10 -49 -10 -206 -13 -270 -4 -158 20 -234 39 -315 79 -45
23 -85 41 -90 41 -5 0 -26 17 -47 37 -37 36 -49 63 -27 63 7 0 8 16 3 46 -4
30 -3 45 3 41 6 -4 16 5 23 18 15 27 52 44 58 26 2 -6 8 -11 14 -11 6 0 18 -8
27 -17 9 -10 22 -19 30 -21 8 -2 47 -19 88 -38 40 -18 78 -34 83 -34 6 0 18
-4 28 -9 47 -24 134 -42 200 -43 23 0 42 -3 42 -6 0 -12 115 -10 122 2 5 7 8
4 8 -7 0 -14 4 -16 19 -7 11 5 44 13 73 16 29 3 60 10 68 14 8 4 29 6 47 4 20
-2 33 1 37 11 3 10 17 13 43 11 21 -2 43 -1 48 2 6 4 24 12 40 18 54 19 166
105 183 140 17 36 28 41 53 21z m149 -107 c0 -5 6 -10 14 -10 8 0 17 -8 20
-17 5 -16 60 -56 79 -57 4 -1 17 -12 30 -26 12 -14 39 -36 59 -50 21 -14 52
-45 70 -70 18 -25 38 -51 45 -58 7 -7 13 -18 13 -24 0 -6 7 -19 15 -28 16 -18
75 -177 80 -217 2 -12 6 -35 9 -51 5 -20 2 -33 -9 -42 -8 -7 -15 -17 -15 -22
0 -6 -12 -33 -26 -62 -14 -28 -25 -53 -24 -54 1 -2 -12 -19 -28 -38 -17 -19
-31 -37 -31 -40 0 -9 -51 -54 -93 -82 -33 -21 -105 -53 -153 -66 -5 -2 -28
-11 -50 -21 -44 -19 -128 -38 -245 -54 -135 -19 -169 -21 -175 -11 -3 6 -15 6
-30 0 -13 -5 -44 -10 -67 -10 -24 0 -50 -1 -58 -1 -8 -1 -100 2 -205 5 -167 6
-238 12 -335 31 -14 2 -41 7 -60 9 -19 2 -48 9 -63 15 -16 6 -41 11 -57 11
-16 0 -32 5 -35 10 -4 6 -12 10 -18 9 -22 -4 -145 29 -164 44 -7 5 -16 6 -21
3 -5 -3 -22 2 -38 10 -16 9 -29 15 -29 14 0 -3 -43 13 -75 28 -19 9 -39 17
-45 18 -29 4 -74 27 -69 35 3 5 0 9 -6 9 -6 0 -28 12 -48 27 -109 80 -143 155
-122 260 15 71 39 133 52 133 5 0 7 4 4 9 -8 12 14 70 35 95 10 12 27 32 38
45 12 13 21 28 21 33 0 5 5 6 10 3 6 -3 10 -1 10 5 0 6 8 14 17 17 10 4 50 40
91 81 65 65 102 86 95 53 -2 -6 5 -19 15 -29 9 -9 26 -29 38 -44 11 -14 56
-45 99 -67 43 -23 83 -45 89 -49 16 -12 183 -58 241 -67 11 -2 40 -7 65 -11
66 -11 365 -6 365 6 0 1 16 4 35 6 19 3 53 11 75 19 22 8 54 16 70 18 17 2 44
10 60 19 17 8 37 14 45 13 8 -1 24 5 35 12 11 7 28 13 39 13 10 0 35 10 55 22
20 13 38 23 41 23 18 1 69 29 64 36 -3 5 2 9 10 9 9 0 29 11 44 24 15 14 31
25 36 25 10 0 35 60 43 104 5 25 23 39 23 17z m-1934 -900 c8 0 14 -4 14 -9 0
-5 13 -12 30 -16 16 -4 32 -15 35 -26 4 -10 12 -19 20 -19 7 0 15 -5 17 -11 2
-7 16 -13 31 -15 15 -1 34 -10 43 -18 8 -9 28 -16 43 -16 15 0 30 -3 34 -6 9
-10 165 -63 170 -58 2 2 24 -3 48 -12 24 -8 53 -17 64 -19 11 -1 52 -11 90
-20 39 -10 81 -19 95 -21 61 -7 95 -17 102 -27 6 -9 8 -9 8 -1 0 11 45 10 83
-2 43 -14 505 -21 642 -11 139 11 271 27 302 38 18 6 37 8 42 5 5 -4 11 -2 13
3 1 6 19 13 38 16 19 3 42 13 52 22 9 8 21 12 27 9 5 -4 12 -2 15 3 4 5 35 19
71 31 61 20 103 50 182 128 48 48 57 43 49 -30 -19 -187 -75 -341 -133 -367
-36 -16 -104 -61 -123 -82 -8 -9 -25 -19 -37 -23 -13 -4 -23 -11 -23 -16 0
-10 -102 -60 -122 -60 -13 0 -32 -9 -103 -50 -70 -40 -192 -76 -280 -84 -164
-14 -204 -18 -230 -26 -39 -11 -297 -10 -355 1 -25 5 -72 11 -105 13 -33 2
-86 11 -117 21 -32 9 -60 16 -63 15 -3 -1 -17 6 -31 15 -13 9 -29 13 -34 10
-5 -3 -17 -1 -27 4 -16 10 -69 25 -175 52 -34 8 -202 92 -223 110 -5 5 -15 9
-23 9 -30 0 -119 91 -144 148 -61 135 -76 201 -84 372 l-5 95 32 -37 c17 -21
37 -38 45 -38z m2132 -682 c-30 -39 -117 -128 -125 -128 -3 0 -13 -9 -23 -20
-11 -12 -39 -23 -83 -30 -37 -6 -82 -19 -99 -30 -52 -31 -96 -50 -118 -50 -12
0 -31 -5 -43 -12 -12 -6 -31 -13 -42 -14 -11 -2 -47 -7 -80 -13 -165 -27 -229
-34 -330 -32 -166 3 -236 9 -317 26 -40 9 -109 23 -153 31 -103 19 -186 45
-192 61 -3 7 -12 13 -21 13 -31 0 -81 24 -85 41 -3 10 -19 20 -38 24 -19 4
-50 17 -69 30 -37 24 -103 86 -97 91 2 2 30 -10 63 -26 32 -17 67 -30 76 -30
9 0 19 -4 22 -9 3 -4 38 -16 78 -26 40 -9 78 -21 83 -25 6 -4 30 -11 55 -15
25 -4 77 -16 115 -27 39 -12 101 -23 138 -24 37 -2 77 -9 88 -15 21 -11 57
-11 334 -5 138 3 195 9 235 23 8 3 33 6 55 7 22 2 47 5 55 8 8 3 42 13 75 23
95 26 179 56 195 70 15 13 41 22 80 30 28 5 169 75 176 87 3 5 8 7 11 4 3 -3
-5 -20 -19 -38z m-528 -392 c0 -3 -4 -8 -10 -11 -5 -3 -10 -1 -10 4 0 6 5 11
10 11 6 0 10 -2 10 -4z m-36 -20 c-3 -7 -16 -18 -29 -24 -35 -16 -76 -54 -167
-153 -32 -35 -35 -36 -65 -24 -17 7 -43 29 -59 49 -16 20 -35 36 -41 36 -7 0
-13 3 -13 8 0 4 -21 18 -47 32 -27 14 -54 30 -61 37 -7 7 -20 13 -28 13 -8 0
-13 3 -11 8 3 4 47 4 99 1 51 -3 125 -1 163 3 39 5 102 10 142 12 40 1 75 5
79 9 13 13 44 8 38 -7z"/>
</g>
</svg>
