<?xml version="1.0" standalone="no"?>
<!DOCTYPE svg PUBLIC "-//W3C//DTD SVG 20010904//EN"
 "http://www.w3.org/TR/2001/REC-SVG-20010904/DTD/svg10.dtd">
<svg version="1.0" xmlns="http://www.w3.org/2000/svg"
 width="487.000000pt" height="461.000000pt" viewBox="0 0 487.000000 461.000000"
 preserveAspectRatio="xMidYMid meet">
<metadata>
Created by potrace 1.16, written by Peter Selinger 2001-2019
</metadata>
<g transform="translate(0.000000,461.000000) scale(0.100000,-0.100000)"
fill="#000000" stroke="none">
<path d="M3184 4355 c-31 -30 -61 -55 -67 -55 -17 0 -149 -80 -182 -110 -42
-39 -79 -44 -149 -20 -32 11 -62 18 -66 15 -4 -3 -27 2 -51 9 -134 42 -406 38
-492 -6 -13 -6 -25 -3 -43 11 -14 11 -31 18 -38 15 -7 -3 -36 4 -64 15 -61 24
-269 61 -358 64 -40 1 -68 -3 -76 -11 -23 -22 -11 -86 32 -170 39 -76 42 -87
51 -209 5 -70 12 -136 15 -147 3 -10 -1 -35 -9 -55 -26 -62 -58 -235 -60 -321
l-1 -83 -406 6 c-223 4 -410 3 -417 -1 -6 -4 -13 -13 -15 -21 -2 -12 63 -14
419 -15 232 -1 424 -4 427 -7 4 -3 9 -24 11 -45 3 -22 8 -47 11 -56 4 -14 -2
-17 -38 -15 -106 3 -409 -21 -524 -42 -52 -10 -76 -27 -56 -40 14 -9 21 -8
117 8 75 13 341 31 447 31 68 0 79 -2 76 -16 -4 -20 -96 -52 -221 -78 l-88
-19 -15 22 c-13 18 -22 21 -52 15 -67 -12 -90 -36 -59 -62 18 -15 123 -21 183
-11 27 5 63 11 79 14 17 3 69 16 117 29 l87 24 24 -27 c19 -22 22 -32 15 -52
-5 -13 -7 -34 -5 -46 5 -28 47 -25 -453 -28 -469 -3 -480 -5 -621 -97 -14 -10
-29 -15 -33 -11 -3 3 -6 -1 -6 -10 0 -9 -8 -22 -17 -29 -45 -34 -68 -82 -71
-153 -4 -71 5 -98 80 -227 21 -35 137 -142 171 -157 39 -17 146 -39 247 -52
41 -5 89 -11 105 -13 17 -2 96 -7 176 -12 121 -6 163 -4 235 10 49 10 97 22
107 27 38 21 44 -10 39 -215 -8 -346 0 -1326 12 -1401 11 -69 15 -242 7 -300
-7 -49 -5 -57 15 -76 14 -13 30 -19 39 -15 9 3 25 -3 37 -14 12 -11 27 -20 32
-20 6 0 24 -7 39 -15 15 -8 51 -17 79 -20 28 -3 54 -8 58 -10 3 -2 38 -7 76
-10 38 -4 71 -9 74 -10 8 -5 198 -19 215 -16 6 1 49 2 97 1 52 -1 89 3 93 10
3 5 10 8 15 5 12 -7 189 21 237 39 23 8 71 20 105 27 35 6 70 18 78 24 8 7 35
18 60 25 25 6 65 23 89 36 24 13 48 24 54 24 18 0 57 51 57 75 0 11 5 26 10
31 7 7 6 24 -5 54 -11 31 -16 100 -20 249 -5 213 -11 350 -19 436 -6 61 -16
213 -21 315 -5 107 -14 200 -25 235 -4 17 -9 52 -9 80 -1 27 -6 88 -12 135
-14 121 -15 126 -23 138 -6 10 -8 70 -4 124 1 10 13 20 28 23 36 8 170 -2 184
-14 14 -12 203 -13 276 -1 84 13 190 40 240 61 25 10 61 21 80 24 19 3 52 18
74 33 21 15 47 31 57 37 11 5 19 13 19 17 0 5 15 29 34 55 31 45 33 52 29 108
-3 33 -9 65 -13 70 -4 6 -8 32 -9 58 -1 48 -17 89 -49 129 -96 119 -146 148
-297 174 -28 4 -85 6 -160 4 -50 -1 -429 10 -445 13 -69 14 -72 26 -35 113 56
129 51 124 130 125 38 0 97 2 130 4 33 1 124 4 202 6 130 2 176 9 162 23 -2 3
-113 6 -244 7 -132 0 -255 3 -273 6 -30 5 -33 8 -27 32 4 14 8 28 10 30 7 6
151 32 215 38 36 3 70 9 75 13 6 4 46 11 90 14 44 4 122 13 173 20 86 12 92
12 92 -5 0 -29 16 -30 67 -5 26 14 60 28 76 31 15 4 27 14 27 22 0 13 -10 15
-57 9 -55 -7 -202 -23 -408 -46 -95 -11 -163 -19 -205 -25 -14 -2 -50 -7 -81
-10 l-55 -7 4 34 c4 33 5 35 65 46 34 6 82 16 107 21 25 5 59 12 75 15 17 3
50 10 75 17 25 6 68 15 95 19 28 5 91 18 140 29 50 10 111 22 138 25 42 4 47
3 47 -15 0 -12 7 -19 20 -19 11 0 20 4 20 9 0 5 23 17 51 26 42 14 50 21 47
38 -4 28 -25 27 -223 -13 -55 -11 -131 -25 -168 -31 -38 -5 -103 -19 -145 -31
-43 -11 -84 -20 -92 -20 -8 0 -42 -6 -75 -13 -33 -8 -85 -16 -116 -19 l-57 -5
-1 92 c-1 51 -11 135 -22 187 -27 123 -30 169 -13 203 8 15 12 27 8 27 -4 0
-1 6 5 14 13 15 47 245 57 386 l6 96 -26 12 c-15 7 -29 12 -31 12 -3 0 -30
-25 -61 -55z m6 -133 c0 -10 -38 -42 -49 -42 -5 0 -37 -27 -72 -60 -67 -64
-67 -64 -88 -51 -11 7 -10 13 5 35 11 14 28 28 38 32 11 4 24 11 30 16 16 13
120 76 129 77 4 1 7 -2 7 -7z m-1222 -95 c34 -11 62 -23 62 -26 -1 -3 -17 -16
-37 -29 -40 -26 -29 -31 -117 52 l-41 39 35 -8 c19 -4 63 -16 98 -28z m1207
-24 c-4 -16 -9 -45 -12 -66 -3 -21 -10 -40 -14 -43 -5 -3 -9 -18 -9 -33 0 -42
-9 -43 -46 -1 -41 45 -39 53 28 126 47 51 61 55 53 17z m-1325 -80 c14 -13 28
-23 33 -23 9 0 -81 -113 -94 -118 -5 -2 -9 10 -9 27 0 16 -7 56 -16 88 -9 32
-19 71 -22 87 l-5 30 44 -34 c24 -19 55 -45 69 -57z m820 53 c174 -36 189 -43
275 -123 102 -96 153 -174 184 -283 21 -74 33 -190 27 -253 l-7 -64 -67 -11
c-98 -17 -211 -44 -323 -79 -9 -2 -23 3 -32 12 -22 21 -97 55 -124 55 -12 0
-24 4 -27 9 -4 5 -23 5 -47 0 -31 -7 -47 -6 -63 4 -27 18 -107 8 -134 -16 -10
-10 -23 -17 -29 -17 -5 0 -20 -11 -33 -25 -21 -22 -30 -25 -70 -21 -25 3 -80
8 -123 11 -43 4 -93 8 -110 11 -18 2 -79 4 -136 4 l-104 1 6 92 c12 182 60
343 125 412 10 12 33 40 50 63 63 87 252 207 376 238 74 19 238 10 386 -20z
m481 -779 c-6 -6 -11 -19 -11 -29 0 -10 -9 -20 -22 -22 -70 -15 -273 -43 -303
-42 -36 1 -44 18 -11 23 11 2 25 8 32 14 7 6 18 8 24 4 5 -3 10 -1 10 4 0 6 8
11 19 11 10 0 35 7 55 15 40 17 196 45 209 37 5 -2 4 -9 -2 -15z m-788 -33
c-5 -14 -1 -16 20 -12 15 3 27 1 27 -3 0 -10 -41 -12 -64 -3 -15 6 -15 8 1 20
23 17 24 17 16 -2z m-328 -30 c93 -15 171 -27 172 -28 1 0 -1 -13 -4 -28 l-5
-27 -158 0 c-87 -1 -183 -4 -212 -7 -60 -7 -66 0 -87 79 l-9 37 66 0 c37 0
143 -12 237 -26z m455 19 c0 -5 -5 -15 -10 -23 -8 -13 -13 -12 -32 8 l-22 22
32 0 c18 0 32 -3 32 -7z m148 -17 c23 -12 22 -13 -20 -25 -24 -7 -51 -17 -60
-22 -36 -19 -39 0 -5 36 25 27 51 30 85 11z m492 -42 c0 -3 -4 -13 -9 -22 -8
-15 -24 -16 -122 -13 l-114 4 100 17 c111 19 145 23 145 14z m-774 -15 c47
-12 59 -22 48 -41 -5 -8 -11 -6 -20 6 -10 14 -24 17 -63 15 -28 -2 -51 -3 -51
-2 0 1 3 8 6 17 7 19 20 20 80 5z m734 -77 c0 -14 -30 -69 -30 -57 -1 6 -8 -6
-17 -25 -9 -20 -16 -65 -16 -106 -1 -67 0 -73 28 -97 17 -15 39 -29 50 -31 11
-2 47 -10 79 -16 32 -7 172 -14 312 -16 385 -5 457 -28 526 -162 20 -39 32
-103 32 -173 1 -41 -3 -50 -42 -87 -24 -23 -56 -45 -70 -48 -15 -4 -31 -10
-37 -14 -13 -10 -103 -38 -140 -44 -16 -3 -52 -13 -80 -21 -76 -25 -223 -27
-341 -5 -100 18 -181 20 -219 5 -97 -39 -88 -23 -88 -150 0 -27 5 -85 11 -128
7 -44 10 -83 7 -87 -3 -5 -1 -10 5 -12 5 -1 12 -30 15 -63 4 -33 8 -78 11
-100 3 -22 7 -77 9 -122 3 -45 7 -94 10 -110 8 -39 27 -349 40 -633 2 -52 5
-102 6 -110 1 -8 1 -66 1 -128 -2 -106 -3 -112 -21 -103 -10 6 -29 22 -42 35
-13 14 -30 26 -36 26 -7 0 -32 9 -55 19 -24 11 -70 25 -103 32 -33 7 -68 19
-78 28 -16 13 -18 13 -15 1 2 -9 -3 -14 -12 -11 -34 8 -340 2 -403 -8 -37 -7
-72 -9 -78 -5 -5 3 -15 1 -22 -4 -7 -5 -43 -13 -82 -17 -38 -4 -88 -15 -110
-25 -22 -9 -69 -30 -105 -46 -36 -15 -87 -41 -114 -57 -37 -21 -51 -25 -57
-16 -4 7 -8 50 -8 96 0 47 -3 89 -7 94 -3 5 -7 170 -10 367 -2 196 -7 391 -10
432 -7 86 -7 77 1 155 9 104 17 294 18 468 1 108 5 167 12 167 6 0 7 3 0 8 -6
4 -16 18 -23 32 -28 55 -35 55 -225 2 -54 -14 -95 -18 -185 -16 -229 6 -432
27 -509 54 -93 32 -179 125 -219 236 -17 49 -17 54 -1 96 12 31 31 54 62 76
25 18 50 32 54 32 5 0 11 5 13 10 5 15 134 43 198 42 30 0 109 -1 175 -3 66
-1 161 -2 210 -1 50 1 99 2 110 2 166 -3 270 3 316 20 63 23 59 19 70 70 10
42 4 116 -12 158 -5 13 -9 27 -9 31 0 5 35 12 78 16 42 5 84 9 92 10 8 1 54 6
102 10 81 7 88 6 93 -11 22 -72 97 -164 134 -164 6 0 11 -4 11 -10 0 -5 9 -10
19 -10 11 0 22 -4 25 -8 4 -7 128 -6 184 1 28 4 117 90 133 128 6 16 19 31 29
34 12 4 16 13 13 29 -5 23 -2 24 59 30 61 6 86 8 216 14 35 2 62 -1 62 -6z
m-1267 -9 c-7 -2 -19 -2 -25 0 -7 3 -2 5 12 5 14 0 19 -2 13 -5z m557 -13 c0
-24 25 -26 47 -4 11 10 19 12 26 5 7 -7 15 -7 24 0 9 9 17 8 28 -1 8 -7 25
-10 39 -6 16 4 26 1 30 -9 7 -20 24 -19 28 2 2 13 13 18 41 18 20 1 37 -1 37
-2 0 -15 -44 -83 -67 -105 -51 -49 -191 -42 -249 13 -11 10 -25 19 -31 19 -8
0 -17 13 -41 63 -2 4 7 7 20 7 13 0 30 5 38 10 23 15 30 12 30 -10z m526
-2618 c44 -15 92 -35 107 -45 14 -9 31 -17 37 -17 5 0 10 -4 10 -10 0 -5 18
-20 40 -32 40 -23 55 -42 45 -59 -19 -30 -318 -129 -440 -145 -22 -3 -64 -10
-92 -15 -29 -6 -57 -8 -63 -4 -5 3 -10 2 -10 -3 0 -13 -370 -3 -450 12 -55 10
-137 28 -150 33 -8 3 -21 7 -29 9 -23 4 -40 27 -46 62 -4 27 -1 37 22 58 14
13 37 27 50 30 13 4 23 9 23 13 0 10 67 41 87 41 9 0 24 6 32 13 22 18 144 54
211 62 30 4 82 11 115 15 33 4 141 8 240 8 171 1 184 0 261 -26z"/>
<path d="M2735 3777 c-71 -28 -78 -39 -91 -137 -3 -29 26 -66 73 -92 34 -19
93 -24 93 -8 0 6 6 10 13 10 38 1 89 94 80 144 -7 36 -44 71 -89 84 -23 7 -43
12 -45 11 -2 0 -17 -6 -34 -12z"/>
<path d="M2195 3772 c-11 -2 -32 -15 -46 -28 -14 -13 -28 -21 -32 -17 -4 3 -7
-3 -7 -14 0 -12 -6 -23 -13 -26 -14 -5 -15 -59 -1 -92 17 -43 66 -85 98 -85
38 0 96 34 103 61 3 10 9 19 12 19 13 0 4 112 -8 120 -7 4 -20 20 -30 35 -16
28 -36 35 -76 27z"/>
</g>
</svg>
