<?xml version="1.0" standalone="no"?>
<!DOCTYPE svg PUBLIC "-//W3C//DTD SVG 20010904//EN"
 "http://www.w3.org/TR/2001/REC-SVG-20010904/DTD/svg10.dtd">
<svg version="1.0" xmlns="http://www.w3.org/2000/svg"
 width="517.000000pt" height="449.000000pt" viewBox="0 0 517.000000 449.000000"
 preserveAspectRatio="xMidYMid meet">
<metadata>
Created by potrace 1.16, written by Peter Selinger 2001-2019
</metadata>
<g transform="translate(0.000000,449.000000) scale(0.100000,-0.100000)"
fill="#000000" stroke="none">
<path d="M2363 4188 c-18 -13 -37 -33 -44 -44 -13 -25 -3 -84 14 -84 7 0 42
-28 79 -63 51 -47 69 -71 73 -97 4 -19 13 -57 21 -85 25 -86 19 -241 -10 -270
-9 -9 -16 -23 -16 -31 0 -29 -37 -90 -75 -122 -10 -9 -35 -34 -55 -54 -19 -21
-41 -38 -47 -38 -6 0 -13 -4 -15 -8 -1 -4 -20 -18 -41 -30 l-38 -22 -52 56
c-29 31 -53 61 -55 65 -2 5 -8 9 -13 9 -8 0 -42 26 -73 56 -7 6 -25 18 -41 27
-17 8 -39 24 -50 34 -11 10 -34 29 -51 41 -20 13 -32 31 -32 44 0 13 -1 91 -2
173 -1 90 -8 177 -16 216 -16 72 -64 159 -88 159 -8 0 -16 5 -18 12 -5 14 -75
21 -83 7 -4 -5 -11 -7 -16 -4 -5 4 -9 2 -9 -3 0 -6 -11 -13 -25 -16 -36 -9
-47 -37 -32 -82 6 -20 21 -42 32 -48 10 -6 25 -17 33 -24 8 -7 27 -19 43 -28
51 -26 79 -85 90 -187 17 -158 14 -210 -17 -275 -15 -31 -30 -59 -34 -62 -4
-3 -23 -34 -40 -70 -18 -36 -48 -86 -66 -111 -19 -26 -34 -51 -34 -56 0 -6
-10 -18 -23 -27 -13 -10 -23 -25 -24 -35 -2 -19 -72 -200 -84 -216 -4 -5 -28
-53 -54 -105 -26 -52 -50 -97 -54 -100 -9 -7 -69 -162 -89 -230 -10 -30 -21
-61 -26 -69 -5 -8 -10 -27 -11 -41 -2 -15 -18 -61 -37 -101 -19 -41 -40 -94
-47 -119 -7 -25 -19 -58 -27 -75 -7 -16 -27 -61 -42 -100 -16 -38 -34 -69 -39
-68 -5 1 -7 -11 -5 -28 3 -17 0 -29 -7 -29 -6 0 -10 -3 -9 -7 3 -8 -11 -57
-45 -158 -10 -33 -23 -73 -28 -90 -4 -16 -21 -68 -38 -115 -17 -47 -31 -93
-31 -103 0 -9 -4 -25 -9 -35 -14 -28 -39 -109 -75 -247 -19 -71 -40 -146 -47
-165 -7 -19 -22 -64 -34 -100 -12 -36 -27 -81 -34 -100 -7 -19 -22 -60 -32
-90 -11 -30 -23 -62 -26 -70 -7 -18 -10 -27 -18 -65 -5 -25 -2 -36 20 -57 23
-23 30 -25 55 -16 31 10 31 11 50 98 7 30 25 87 41 125 15 39 37 103 49 142
12 40 22 73 23 73 1 0 58 -7 127 -15 69 -9 139 -17 155 -19 17 -3 63 -7 103
-9 59 -3 74 -1 82 12 14 24 12 -2 -4 -51 -18 -53 -33 -113 -41 -155 -3 -18 -9
-43 -14 -55 -10 -26 -5 -68 12 -108 8 -20 17 -26 43 -26 28 0 34 4 44 35 6 20
12 59 14 86 2 28 8 68 14 90 6 22 18 72 27 110 22 94 34 139 56 211 11 33 21
69 24 80 2 10 14 46 25 79 12 33 25 80 30 105 21 108 32 148 64 244 19 55 39
126 46 156 11 53 32 123 50 165 11 25 42 112 86 240 33 96 253 553 254 528 0
-7 13 -27 29 -45 40 -46 93 -151 115 -228 11 -36 25 -72 32 -80 7 -8 19 -38
27 -67 9 -29 22 -67 30 -85 8 -18 22 -60 32 -93 9 -33 27 -89 40 -125 13 -36
28 -83 35 -105 6 -22 15 -49 20 -60 23 -54 27 -69 29 -94 0 -11 8 -26 16 -35
8 -8 15 -22 15 -31 0 -25 115 -345 144 -399 14 -27 23 -52 20 -57 -3 -5 0 -9
5 -9 6 0 11 -11 11 -24 0 -13 6 -26 14 -29 7 -3 33 -44 56 -92 30 -58 63 -106
107 -151 34 -36 63 -69 63 -73 0 -4 29 -34 64 -67 68 -64 136 -123 136 -119 0
2 17 -13 37 -31 20 -19 44 -34 53 -34 9 0 20 -4 26 -9 16 -15 124 -72 124 -65
0 4 6 2 13 -4 7 -6 46 -18 87 -28 41 -9 82 -20 90 -24 8 -5 38 -11 66 -14 27
-3 67 -12 87 -21 20 -8 40 -16 44 -16 5 -1 19 -6 33 -11 14 -5 88 -14 165 -19
77 -5 160 -12 185 -15 65 -9 177 -5 208 8 15 6 31 10 36 9 5 -1 23 5 40 13 29
14 79 29 101 30 6 1 19 9 29 19 11 9 24 17 28 17 5 0 28 15 52 32 49 37 103
138 131 246 16 63 17 152 2 152 -5 0 -6 4 -3 8 9 15 -24 52 -47 52 -13 0 -46
6 -75 14 -36 9 -52 10 -52 2 0 -6 -5 -3 -11 7 -5 9 -16 17 -24 17 -29 0 -163
50 -221 83 -55 31 -134 88 -134 97 0 5 -5 10 -12 10 -7 0 -30 19 -53 43 -22
23 -71 69 -109 102 -100 87 -213 203 -249 255 -17 25 -34 47 -39 48 -4 2 -8
10 -8 19 0 8 -9 27 -20 43 -11 15 -24 38 -30 51 -6 13 -21 42 -35 64 -13 22
-46 78 -71 125 -26 47 -51 87 -56 88 -4 2 -8 9 -8 17 0 7 -7 18 -15 25 -16 13
-185 348 -185 367 0 6 -6 24 -14 40 -8 15 -22 53 -31 83 -10 30 -25 69 -35 85
-14 26 -26 60 -35 100 -2 9 -27 67 -81 192 -8 17 -14 35 -14 40 0 6 -9 18 -20
28 -11 10 -20 28 -20 41 0 13 -4 26 -10 29 -5 3 -10 13 -10 21 0 8 -11 32 -25
54 -14 22 -23 40 -21 40 7 0 -154 313 -171 332 -8 9 -16 22 -17 30 -4 23 -27
61 -77 124 -37 46 -45 64 -37 72 7 7 11 27 10 45 -1 17 6 71 16 119 14 69 16
103 9 170 -10 104 -35 204 -53 219 -8 6 -14 17 -14 23 0 23 -71 59 -123 63
-42 4 -58 0 -84 -19z m116 -88 c4 0 15 -16 24 -35 9 -19 15 -35 14 -35 -7 0
-77 68 -77 75 0 4 7 4 16 1 9 -3 19 -6 23 -6z m-778 -77 c13 -15 12 -15 -8 -4
-24 12 -29 21 -14 21 5 0 15 -7 22 -17z m154 -613 c8 0 15 -4 15 -9 0 -5 33
-31 73 -57 39 -27 86 -61 102 -76 17 -15 33 -28 38 -28 4 0 7 -6 7 -14 0 -8 8
-21 18 -28 9 -7 26 -26 36 -43 11 -16 38 -55 60 -85 22 -30 41 -58 41 -61 0
-4 12 -26 28 -49 15 -23 27 -48 27 -56 0 -8 4 -14 8 -14 18 0 103 -204 153
-365 15 -49 39 -120 53 -156 14 -37 23 -69 21 -71 -3 -2 11 -42 31 -89 19 -46
46 -118 59 -159 14 -41 36 -111 50 -155 14 -44 35 -111 46 -150 12 -38 31 -95
44 -125 13 -30 31 -75 40 -100 10 -25 39 -90 65 -145 26 -55 62 -133 80 -172
18 -40 36 -73 41 -73 4 0 11 -9 14 -21 9 -27 137 -219 167 -251 31 -32 63 -72
64 -78 0 -3 32 -34 70 -70 38 -36 71 -68 74 -72 3 -4 26 -17 50 -28 25 -12 56
-28 70 -36 14 -7 33 -14 42 -14 9 0 20 -5 23 -10 4 -6 11 -8 16 -5 5 4 9 -2 9
-12 0 -14 2 -15 9 -4 7 11 14 11 41 -3 18 -9 44 -16 57 -16 13 0 40 -7 61 -15
20 -9 50 -18 67 -20 16 -2 51 -7 77 -10 26 -3 50 -10 53 -16 4 -5 14 -9 24 -9
10 0 31 -18 46 -41 16 -22 48 -54 72 -71 24 -17 43 -33 43 -34 0 -3 -47 2
-135 16 -33 5 -96 9 -140 9 -44 1 -105 8 -135 17 -30 8 -62 17 -70 18 -8 2
-26 8 -40 13 -14 6 -65 18 -114 28 -109 21 -233 59 -255 79 -9 8 -27 19 -41
25 -58 26 -109 60 -160 109 -30 28 -59 52 -65 52 -5 1 -30 26 -55 56 -25 31
-66 77 -92 105 -25 27 -56 70 -68 96 -11 27 -27 59 -35 73 -80 146 -165 353
-210 512 -8 26 -20 62 -29 80 -19 43 -108 311 -136 413 -12 44 -33 102 -45
130 -13 27 -33 79 -45 115 -12 36 -30 83 -40 105 -10 22 -27 61 -38 87 -11 26
-32 63 -46 81 -14 19 -26 39 -26 45 0 7 -4 12 -10 12 -5 0 -10 7 -10 15 0 8
-4 15 -9 15 -5 0 -13 9 -16 20 -3 11 -12 26 -18 32 -22 23 -47 67 -47 83 0 8
-4 15 -10 15 -5 0 -10 7 -10 15 0 9 -11 26 -24 38 -14 12 -42 47 -63 78 -42
62 -149 177 -208 223 -32 26 -35 31 -22 41 9 6 39 58 68 116 28 57 55 105 60
107 5 2 11 19 15 39 5 28 9 32 16 19 5 -9 16 -16 23 -16z m730 -15 c18 -18 72
-108 108 -180 19 -38 55 -110 81 -158 25 -48 48 -97 49 -108 2 -12 8 -24 14
-27 7 -4 21 -34 34 -67 12 -33 30 -71 39 -85 19 -27 60 -119 63 -141 2 -8 5
-18 9 -24 12 -20 68 -167 68 -179 0 -6 5 -17 12 -24 6 -6 13 -17 14 -24 3 -18
82 -228 96 -258 7 -14 29 -52 48 -85 20 -33 56 -100 79 -150 24 -49 46 -92 50
-95 4 -3 21 -30 37 -60 15 -30 38 -68 51 -85 12 -16 36 -59 54 -95 76 -155
178 -285 337 -434 17 -16 32 -34 32 -38 0 -4 5 -8 10 -8 6 0 60 -48 120 -107
59 -59 114 -108 122 -109 7 -1 40 -18 72 -38 33 -20 66 -36 73 -36 15 0 55
-21 64 -33 3 -5 8 -7 10 -5 2 1 23 -3 47 -10 46 -13 95 -26 160 -42 47 -12 50
-23 31 -95 -22 -85 -97 -203 -120 -189 -5 3 -9 1 -9 -4 0 -13 -46 -32 -102
-42 -41 -8 -54 -6 -83 10 -19 11 -35 16 -35 12 0 -4 -4 -2 -8 4 -4 6 -26 21
-49 34 -24 13 -43 29 -43 35 0 6 -19 29 -42 52 -43 41 -90 58 -213 78 -22 3
-53 10 -70 15 -67 19 -143 40 -190 51 -27 7 -66 23 -85 36 -19 13 -42 23 -51
23 -26 0 -238 221 -269 279 -7 14 -23 36 -35 49 -13 14 -29 36 -37 51 -7 14
-16 28 -19 31 -12 10 -178 359 -211 445 -73 184 -87 223 -91 246 -2 13 -9 37
-15 52 -7 16 -12 31 -12 35 0 7 -37 107 -50 132 -4 8 -15 48 -25 88 -9 40 -21
75 -26 78 -5 3 -9 14 -9 25 0 10 -4 19 -8 19 -5 0 -14 19 -21 43 -7 23 -16 51
-21 62 -4 11 -31 90 -58 175 -64 198 -157 430 -172 430 -9 0 -70 116 -70 132
0 6 -9 22 -21 34 -21 22 -21 23 -3 48 11 14 31 30 46 36 26 12 131 110 176
165 12 16 22 37 22 48 0 17 2 18 17 6 10 -8 23 -18 28 -24z m-959 -373 c55
-35 164 -150 164 -173 0 -2 -61 -4 -135 -4 -116 0 -134 2 -129 15 4 8 15 37
26 64 39 100 50 114 74 98z m184 -282 c0 -3 17 -7 38 -8 37 -3 88 -44 76 -63
-3 -5 -7 -18 -9 -30 -2 -11 -15 -44 -28 -72 l-24 -52 -79 3 c-114 4 -207 11
-222 17 -8 3 -50 8 -95 11 -45 4 -84 8 -87 11 -2 2 5 22 18 43 12 21 22 44 22
50 0 6 11 28 25 50 22 34 29 39 60 38 19 -1 37 1 40 4 7 7 265 5 265 -2z
m-284 -312 c38 -6 103 -12 144 -13 68 -2 130 -16 130 -30 0 -3 -11 -23 -25
-45 -14 -22 -25 -44 -25 -50 0 -6 -7 -24 -15 -40 -11 -21 -22 -29 -43 -29 -15
0 -112 -2 -217 -4 -104 -2 -195 -2 -202 0 -13 5 -6 32 26 106 12 27 21 55 21
62 0 8 4 24 9 37 8 22 14 24 68 21 33 -1 91 -8 129 -15z m-1 -319 c80 0 145
-2 145 -4 0 -3 -11 -34 -25 -70 -13 -36 -25 -69 -26 -73 -1 -4 -6 -18 -12 -32
-5 -14 -9 -34 -9 -45 1 -11 -2 -15 -6 -10 -18 25 -59 30 -249 30 -112 0 -203
4 -203 8 0 5 11 32 24 61 14 29 29 72 35 94 l11 40 72 1 c39 0 73 3 76 5 3 3
8 3 13 0 4 -2 74 -5 154 -5z m13 -322 c25 -2 25 -1 13 -41 -24 -76 -45 -152
-46 -159 0 -5 -90 -10 -200 -12 -110 -3 -221 -7 -247 -10 -27 -4 -48 -5 -48
-3 1 10 50 160 65 196 l18 43 211 -6 c116 -3 221 -7 234 -8z m-92 -330 c20 -4
-15 -137 -36 -137 -11 0 -12 -3 -3 -8 12 -8 12 -14 -1 -69 -7 -32 -26 -46 -26
-20 0 9 -48 12 -203 13 -232 1 -257 4 -257 37 0 13 4 27 8 32 5 6 14 35 21 65
7 30 15 62 17 71 5 18 67 23 327 24 77 0 127 4 127 10 0 6 4 4 9 -3 4 -8 12
-14 17 -15z m-81 -346 c-3 -8 -17 -55 -31 -105 -35 -128 -30 -119 -56 -103
-14 9 -62 17 -120 20 -54 3 -102 9 -109 12 -6 4 -57 10 -113 12 -55 3 -102 6
-104 7 -1 2 4 15 12 31 8 15 17 54 21 86 l7 59 249 -3 c209 -2 248 -4 244 -16z"/>
</g>
</svg>
