<?xml version="1.0" standalone="no"?>
<!DOCTYPE svg PUBLIC "-//W3C//DTD SVG 20010904//EN"
 "http://www.w3.org/TR/2001/REC-SVG-20010904/DTD/svg10.dtd">
<svg version="1.0" xmlns="http://www.w3.org/2000/svg"
 width="495.000000pt" height="435.000000pt" viewBox="0 0 495.000000 435.000000"
 preserveAspectRatio="xMidYMid meet">
<metadata>
Created by potrace 1.16, written by Peter Selinger 2001-2019
</metadata>
<g transform="translate(0.000000,435.000000) scale(0.100000,-0.100000)"
fill="#000000" stroke="none">
<path d="M1489 4180 c-31 -9 -80 -20 -110 -24 -29 -4 -81 -16 -114 -27 -63
-21 -165 -77 -165 -91 0 -4 -6 -8 -13 -8 -7 0 -23 -9 -35 -20 -12 -11 -26 -20
-32 -20 -5 0 -10 -4 -10 -10 0 -5 -4 -10 -10 -10 -8 0 -130 -119 -130 -127 0
-1 -21 -31 -47 -66 -41 -54 -63 -93 -115 -199 -4 -10 -8 -26 -8 -36 0 -9 -6
-27 -14 -38 -8 -11 -17 -38 -21 -60 -4 -21 -9 -46 -12 -54 -3 -8 -7 -21 -9
-28 -1 -8 -6 -21 -10 -30 -4 -9 -8 -24 -9 -32 -2 -8 -8 -37 -15 -65 -6 -27
-12 -57 -14 -65 -1 -9 -5 -20 -8 -25 -27 -46 -29 -329 -4 -560 3 -29 33 -127
67 -221 16 -44 29 -92 29 -107 0 -15 4 -27 9 -27 5 0 12 -18 16 -40 4 -22 11
-42 16 -46 5 -3 27 -42 48 -88 22 -45 47 -89 56 -96 8 -7 15 -17 15 -23 0 -11
41 -52 108 -107 23 -19 42 -41 42 -47 0 -7 6 -13 13 -14 6 0 36 -27 65 -60 28
-32 52 -56 52 -53 0 3 13 -4 29 -15 16 -12 33 -21 38 -21 5 0 22 -12 39 -28
16 -15 48 -33 70 -41 21 -8 62 -31 90 -53 28 -21 55 -38 61 -38 6 0 16 -7 23
-15 7 -8 16 -13 20 -10 5 3 10 0 12 -6 2 -6 31 -21 64 -33 34 -12 81 -35 105
-50 24 -15 148 -86 274 -157 127 -71 241 -136 255 -145 14 -8 33 -18 42 -21
12 -3 0 -13 -39 -34 -30 -16 -73 -42 -96 -59 -23 -16 -69 -43 -102 -59 -34
-17 -72 -38 -85 -48 -38 -29 -144 -91 -172 -102 -23 -9 -28 -6 -44 25 -10 19
-22 34 -26 34 -5 0 -14 12 -20 28 -14 32 -97 122 -114 122 -6 0 -22 9 -36 19
-14 11 -37 22 -52 24 -15 2 -31 8 -34 13 -8 11 -10 11 -163 20 -101 6 -109 5
-158 -20 -29 -14 -63 -38 -75 -53 -13 -16 -33 -39 -45 -52 -12 -13 -21 -29
-21 -35 0 -6 -11 -35 -25 -64 -14 -30 -27 -64 -29 -76 -2 -12 -11 -39 -20 -60
-9 -22 -14 -46 -12 -55 3 -9 8 -45 11 -80 10 -118 72 -258 132 -301 19 -14 43
-32 52 -40 44 -39 133 -70 227 -80 53 -6 108 -7 122 -4 45 10 136 48 157 66
11 9 34 28 50 42 17 14 35 26 40 26 6 0 16 10 22 23 34 64 56 113 55 119 -1 3
5 27 12 53 8 25 14 77 12 116 -1 56 2 69 14 70 8 0 65 0 125 -2 61 -1 153 -3
205 -4 52 -1 97 -2 100 -3 3 -1 79 -5 170 -7 91 -3 199 -9 240 -12 41 -4 94
-7 118 -7 23 -1 42 -3 42 -6 0 -5 30 -6 210 -10 l56 -1 23 -65 c12 -35 27 -64
32 -64 5 0 17 -17 28 -38 17 -34 117 -122 137 -122 4 0 17 -9 29 -20 53 -50
296 -67 370 -27 17 9 36 17 43 17 15 0 83 67 123 120 48 64 80 144 92 230 2 8
6 20 9 26 11 16 -1 197 -13 205 -6 3 -10 9 -9 13 6 18 -23 99 -40 116 -11 11
-16 20 -11 20 5 0 -4 14 -21 30 -16 17 -33 30 -37 30 -4 0 -16 9 -26 20 -10
11 -24 20 -32 20 -7 0 -13 5 -13 11 0 6 -6 9 -12 6 -7 -2 -20 1 -28 8 -26 22
-83 32 -165 28 -142 -7 -200 -25 -292 -94 -102 -76 -148 -137 -193 -256 l-12
-32 -42 28 c-22 16 -52 32 -66 36 -14 4 -27 11 -30 15 -7 11 -118 70 -131 70
-6 0 -23 8 -37 19 -42 29 -112 65 -175 90 -46 19 -55 26 -46 37 6 8 16 14 22
14 5 0 33 15 61 33 28 19 78 49 111 67 133 74 155 86 211 119 33 19 61 37 64
41 4 5 93 58 185 109 17 10 46 23 65 31 36 15 131 70 140 82 3 3 18 10 33 13
15 4 27 10 27 14 0 4 15 14 33 23 51 25 267 225 267 248 0 6 4 10 8 10 9 0 29
37 30 54 0 5 4 12 10 15 11 7 49 103 87 216 43 132 48 149 52 185 2 19 6 49 8
65 3 17 7 69 9 117 2 51 11 100 20 118 17 36 24 104 31 330 3 85 10 175 15
200 25 126 32 150 62 210 17 36 34 67 38 70 4 3 10 14 14 25 5 16 87 73 106
73 3 1 18 7 34 16 40 20 160 12 201 -14 17 -11 43 -25 58 -31 l29 -12 -7 -71
c-7 -76 -21 -99 -66 -110 -25 -5 -26 -4 -22 32 4 31 0 42 -24 65 -51 48 -150
34 -168 -25 -4 -13 -14 -31 -22 -40 -13 -14 -12 -21 5 -60 10 -24 30 -48 43
-54 48 -23 75 -33 104 -40 17 -4 37 -9 45 -11 59 -16 135 -2 151 29 6 10 15
16 22 12 7 -4 9 -4 5 0 -3 4 0 24 9 43 16 39 26 106 26 168 -1 110 -10 127
-117 206 l-58 43 -109 3 c-112 3 -147 -6 -201 -54 -9 -8 -22 -12 -27 -8 -6 3
-11 2 -11 -3 0 -6 -15 -19 -34 -30 -40 -24 -77 -76 -141 -197 -25 -49 -49 -94
-53 -99 -8 -12 -23 -63 -53 -181 -18 -71 -29 -164 -31 -263 l0 -33 -127 1
c-160 0 -434 -9 -440 -16 -3 -2 -102 -4 -220 -4 -119 0 -394 0 -611 0 -217 -1
-420 -1 -452 -1 l-56 1 0 118 c1 116 -8 497 -17 747 -2 72 -5 199 -6 283 0 84
-6 167 -11 186 -10 31 -15 34 -74 45 -35 7 -64 17 -64 22 0 5 -35 9 -78 9 -43
0 -82 4 -87 9 -6 4 -34 1 -66 -9z m37 -152 c-28 -130 -41 -183 -66 -261 -16
-51 -36 -123 -45 -162 -10 -38 -37 -112 -62 -163 -44 -91 -45 -92 -78 -90 -18
1 -40 -4 -48 -11 -22 -17 -86 -23 -285 -24 -182 0 -203 4 -183 41 6 11 11 29
11 39 0 10 17 63 38 118 36 93 113 217 184 295 28 30 112 100 122 100 3 0 27
15 53 34 73 51 128 76 181 81 26 2 61 8 77 14 17 5 47 10 68 10 34 1 37 -1 33
-21z m205 9 c1 -7 0 -37 -1 -67 -2 -30 -3 -68 -2 -85 2 -69 12 -212 16 -240
10 -57 16 -170 22 -390 3 -121 5 -224 6 -230 2 -51 -6 -205 -11 -205 -12 0
-47 53 -61 92 -8 21 -22 40 -32 44 -10 3 -18 9 -18 12 0 4 -49 58 -110 120
-98 100 -110 116 -110 147 0 20 -7 49 -16 66 -17 34 -14 47 27 133 16 32 30
68 32 80 1 12 5 26 9 31 3 6 9 31 13 55 4 25 11 49 16 55 5 5 9 19 9 32 0 13
5 23 10 23 6 0 10 10 10 23 0 12 9 47 20 77 11 30 23 73 25 95 3 22 10 44 15
49 6 6 10 21 10 34 0 47 16 61 70 60 30 0 50 -5 51 -11z m-966 -787 c0 -8 233
-19 240 -11 10 10 131 7 149 -3 14 -8 20 -8 23 2 9 24 33 13 33 -17 0 -16 11
-39 26 -56 23 -25 30 -27 81 -23 l55 5 119 -118 c65 -65 128 -138 140 -161 12
-24 27 -50 34 -58 39 -44 49 -43 -473 -45 -272 0 -496 3 -498 7 -3 5 -5 65 -4
133 2 180 4 205 12 205 5 0 8 16 8 36 0 57 20 112 39 109 9 -2 16 -4 16 -5z
m585 -11 c0 -5 -9 -9 -20 -9 -11 0 -20 6 -20 14 0 9 7 12 20 9 11 -3 20 -9 20
-14z m-105 -592 c88 2 221 2 295 1 74 -1 187 -1 250 0 648 8 1970 10 1975 3 3
-5 14 -7 25 -4 19 5 19 0 16 -158 -2 -90 -6 -173 -9 -184 -8 -29 -27 -106 -34
-135 -3 -14 -9 -30 -14 -35 -4 -6 -15 -33 -24 -60 -30 -95 -74 -170 -132 -228
-107 -106 -168 -157 -193 -163 -14 -3 -43 -9 -65 -14 -22 -5 -65 -9 -95 -9
-49 1 -162 -1 -800 -16 -91 -3 -349 -7 -575 -10 -416 -5 -498 0 -536 32 -8 7
-23 13 -31 13 -9 0 -18 4 -20 8 -1 4 -37 33 -78 64 -41 30 -86 66 -100 80
-127 127 -214 237 -264 335 -53 106 -105 301 -118 448 l-3 30 154 2 c84 1 155
4 158 7 2 2 17 1 31 -3 15 -5 99 -6 187 -4z m1884 -1094 c8 8 11 7 11 -5 0 -9
-10 -20 -22 -23 -23 -7 -129 -73 -138 -86 -3 -4 -22 -16 -42 -28 -21 -11 -55
-31 -75 -42 -21 -12 -49 -29 -63 -38 -14 -9 -44 -26 -67 -36 -24 -11 -43 -23
-43 -27 0 -5 -7 -8 -15 -8 -9 0 -50 -23 -91 -50 -42 -28 -95 -60 -118 -71 -22
-11 -55 -29 -71 -39 -27 -17 -33 -18 -55 -5 -14 8 -32 17 -40 21 -19 9 -111
62 -158 92 -21 12 -57 32 -82 44 -25 12 -47 25 -50 28 -8 9 -147 90 -240 139
-46 24 -100 55 -119 68 -18 13 -38 23 -42 23 -5 0 -9 5 -9 11 0 7 41 10 118 9
294 -2 1332 17 1340 25 2 2 16 0 32 -5 18 -5 32 -4 39 3z m436 -525 c47 2 71
-3 111 -22 109 -53 147 -109 169 -253 17 -116 6 -187 -43 -273 -20 -36 -39
-69 -41 -75 -7 -17 -84 -95 -93 -95 -5 0 -28 -8 -51 -19 -33 -15 -62 -18 -138
-17 -91 2 -98 4 -155 39 -68 43 -130 95 -122 103 3 3 -4 16 -16 29 -35 38 -40
47 -61 105 -22 63 -28 146 -12 175 6 11 12 25 13 30 11 51 60 117 135 180 44
37 110 75 120 70 5 -4 9 -2 9 3 0 13 72 30 95 23 11 -3 47 -5 80 -3z m-1149
-104 c21 -15 70 -43 107 -63 107 -57 127 -68 145 -84 9 -8 40 -25 67 -37 45
-20 48 -23 28 -30 -12 -5 -93 -7 -180 -4 -87 3 -260 5 -385 5 -126 1 -228 4
-228 7 0 4 32 22 70 41 39 18 73 37 76 42 2 5 24 17 47 28 40 20 69 36 91 54
28 22 102 66 112 66 6 1 29 -11 50 -25z m-996 -20 c79 -26 140 -65 148 -96 2
-10 8 -18 13 -18 5 0 9 -6 9 -13 0 -8 10 -22 21 -33 36 -32 56 -87 62 -171 1
-17 5 -34 8 -38 9 -9 1 -104 -12 -144 -7 -20 -21 -49 -32 -66 -30 -45 -138
-123 -204 -147 -53 -19 -66 -20 -146 -10 -103 13 -158 39 -227 111 -76 79
-117 227 -94 341 23 113 113 280 152 280 10 0 25 7 35 14 31 24 181 18 267
-10z"/>
<path d="M3316 2517 c-18 -13 -40 -92 -31 -107 9 -14 16 -144 15 -270 0 -63 4
-121 8 -128 6 -8 23 -12 43 -10 30 3 34 6 31 28 -2 27 -14 359 -14 400 0 14 3
34 7 46 9 29 -34 59 -59 41z"/>
<path d="M1328 2493 c-15 -4 -17 -14 -14 -66 3 -34 7 -69 9 -77 9 -24 19 -137
23 -254 3 -94 7 -112 24 -128 14 -13 28 -17 41 -13 20 7 21 12 15 69 -3 33 -8
86 -11 116 -3 30 -8 78 -11 105 -3 28 -8 82 -10 120 -2 39 -6 80 -9 92 -6 26
-32 41 -57 36z"/>
<path d="M1714 2416 c2 -35 9 -81 14 -102 9 -33 17 -128 27 -309 1 -33 6 -42
27 -49 14 -5 33 -6 43 -2 15 5 16 14 10 54 -11 68 -15 106 -19 200 -3 45 -10
98 -16 117 -6 19 -11 52 -10 72 4 82 4 83 -40 83 l-41 0 5 -64z"/>
<path d="M2098 2469 c-23 -13 -23 -31 3 -82 20 -41 31 -139 33 -300 1 -31 5
-57 10 -57 5 0 18 -7 28 -17 17 -15 19 -15 38 2 21 19 26 55 11 70 -6 6 -12
51 -16 100 -12 198 -24 259 -54 282 -19 15 -31 15 -53 2z"/>
<path d="M2509 2458 c-1 -7 -1 -18 0 -25 1 -6 -2 -14 -7 -17 -4 -2 -4 -33 0
-68 5 -35 11 -79 13 -98 2 -19 10 -55 16 -80 6 -25 11 -69 10 -98 -1 -61 10
-87 38 -95 14 -3 25 3 36 19 13 20 14 34 5 91 -6 36 -13 70 -15 74 -3 4 -8 31
-11 61 -3 29 -9 67 -14 84 -4 18 -4 53 1 78 11 58 -4 86 -43 86 -16 0 -29 -6
-29 -12z"/>
<path d="M2909 2448 c-7 -23 -5 -46 7 -84 8 -26 14 -59 14 -73 0 -14 1 -82 3
-150 4 -116 5 -125 27 -141 34 -26 66 -12 63 26 -2 16 -5 69 -8 119 -7 150
-23 276 -37 292 -9 11 -66 19 -69 11z"/>
<path d="M3453 810 c-40 -9 -58 -23 -78 -63 -51 -101 21 -208 140 -207 50 1
87 42 105 119 7 27 4 39 -13 62 -11 16 -26 29 -32 29 -7 0 -17 11 -23 24 -13
29 -57 45 -99 36z m63 -106 c22 -23 24 -30 15 -50 -20 -44 -110 -21 -94 24 8
21 33 52 44 52 4 0 20 -12 35 -26z"/>
<path d="M1245 674 c-39 -20 -80 -117 -70 -164 11 -49 75 -85 147 -83 37 1 66
8 83 20 24 17 26 22 23 94 -3 67 -6 80 -29 102 -46 47 -100 58 -154 31z m94
-78 c7 -8 11 -32 9 -53 -4 -45 -28 -54 -78 -28 -30 15 -31 18 -16 34 9 10 16
22 16 27 0 31 49 44 69 20z"/>
</g>
</svg>
