<?xml version="1.0" standalone="no"?>
<!DOCTYPE svg PUBLIC "-//W3C//DTD SVG 20010904//EN"
 "http://www.w3.org/TR/2001/REC-SVG-20010904/DTD/svg10.dtd">
<svg version="1.0" xmlns="http://www.w3.org/2000/svg"
 width="551.000000pt" height="483.000000pt" viewBox="0 0 551.000000 483.000000"
 preserveAspectRatio="xMidYMid meet">
<metadata>
Created by potrace 1.16, written by Peter Selinger 2001-2019
</metadata>
<g transform="translate(0.000000,483.000000) scale(0.100000,-0.100000)"
fill="#000000" stroke="none">
<path d="M2250 4777 c-30 -15 -44 -64 -26 -92 8 -11 19 -47 27 -80 7 -33 21
-76 31 -95 10 -19 18 -46 18 -60 0 -14 15 -74 34 -135 18 -60 39 -137 45 -170
7 -33 19 -80 26 -105 8 -25 17 -72 21 -105 10 -91 11 -95 36 -115 18 -15 21
-21 11 -31 -7 -7 -13 -24 -14 -39 0 -28 -36 -143 -38 -122 -1 18 -43 31 -63
21 -24 -13 -48 -62 -54 -108 -3 -30 2 -47 28 -87 40 -59 54 -73 104 -100 21
-12 39 -28 39 -35 0 -8 4 -20 8 -26 5 -7 6 -13 3 -13 -3 0 14 -21 37 -46 46
-50 45 -47 53 -179 l6 -90 -42 -13 c-23 -7 -45 -10 -50 -7 -4 3 -10 -1 -13 -7
-2 -7 -8 14 -12 47 -4 33 -12 65 -17 72 -5 7 -7 16 -4 21 4 7 -34 90 -87 187
-9 17 -17 35 -17 41 0 6 -7 17 -15 24 -8 7 -15 23 -15 36 0 13 -4 24 -8 24 -5
0 -14 24 -21 53 -22 87 -107 337 -126 367 -26 42 -55 107 -55 125 0 11 -7 29
-15 39 -8 11 -15 26 -15 33 0 29 -51 123 -68 124 -30 2 -45 -2 -60 -18 -9 -8
-24 -12 -38 -9 -26 7 -58 -19 -50 -41 3 -8 1 -23 -4 -34 -8 -15 -6 -24 10 -41
11 -12 20 -30 20 -40 0 -9 10 -36 22 -59 29 -56 78 -196 70 -203 -3 -3 0 -6 7
-6 7 0 11 -6 8 -14 -3 -8 1 -22 8 -33 8 -10 15 -28 15 -40 0 -12 5 -25 10 -28
6 -4 4 -12 -6 -22 -9 -9 -27 -33 -40 -54 -41 -65 -28 -189 28 -271 24 -35 33
-105 17 -143 -24 -59 -15 -132 27 -214 20 -38 18 -47 -18 -62 -43 -17 -55 -30
-64 -65 -4 -16 -25 -67 -47 -114 -21 -47 -44 -98 -51 -115 -33 -78 -58 -128
-83 -167 -15 -24 -28 -45 -28 -48 -1 -17 -29 -70 -36 -70 -5 0 -9 -7 -9 -15 0
-18 -39 -115 -82 -202 l-30 -63 20 -34 c19 -32 19 -36 4 -41 -21 -6 -64 -68
-68 -98 -2 -12 -6 -40 -9 -62 -6 -35 -3 -44 24 -73 24 -26 44 -36 90 -44 53
-10 65 -9 123 13 70 26 123 68 132 105 5 17 13 24 32 24 18 0 30 9 42 31 9 17
33 49 52 71 19 22 42 52 50 66 9 15 27 45 41 67 14 22 31 55 38 73 8 17 17 32
20 32 4 0 14 -17 22 -37 8 -21 29 -60 48 -87 18 -27 42 -68 52 -91 17 -39 17
-47 5 -86 -27 -83 -66 -180 -82 -205 -22 -33 -24 -82 -6 -116 16 -28 46 -38
113 -38 24 0 39 -5 40 -12 4 -40 9 -61 34 -138 15 -46 28 -93 30 -105 1 -11
17 -60 35 -110 18 -49 36 -112 42 -140 5 -27 12 -68 17 -91 4 -25 3 -57 -3
-80 -6 -21 -11 -48 -10 -59 0 -11 -4 -25 -9 -32 -5 -7 -6 -16 -3 -21 3 -5 1
-33 -4 -63 -6 -30 -12 -69 -14 -87 -2 -18 -9 -39 -15 -46 -6 -7 -9 -15 -7 -17
10 -10 -15 -101 -37 -136 -40 -64 -11 -150 63 -188 67 -35 258 2 351 67 13 9
23 7 47 -11 71 -50 288 -46 341 7 43 43 52 110 21 149 -11 14 -20 32 -20 39 0
7 -11 21 -23 31 -27 21 -52 62 -43 71 3 3 0 15 -7 26 -8 12 -17 47 -21 79 -3
31 -22 98 -42 147 -40 100 -41 76 11 280 25 98 36 155 65 335 19 122 17 118
53 113 40 -4 80 28 80 64 0 28 -39 138 -65 186 -10 18 -18 40 -18 48 0 9 -9
27 -20 41 -11 14 -20 34 -20 43 0 19 23 43 32 35 8 -8 35 36 42 71 4 16 15 44
26 62 l19 31 38 -40 c21 -22 64 -67 95 -99 31 -32 64 -71 74 -85 9 -14 26 -28
39 -31 16 -4 22 -13 23 -36 1 -56 33 -127 61 -136 40 -13 132 -7 168 11 90 47
122 240 53 314 -11 12 -34 71 -51 130 -41 147 -67 224 -85 251 -9 13 -17 33
-18 45 -3 22 -17 58 -35 87 -11 19 -72 171 -75 187 -1 7 -5 16 -9 19 -4 4 -7
33 -7 65 0 51 -3 59 -22 65 -13 4 -35 7 -51 6 -15 -1 -45 7 -67 18 -21 11 -45
20 -51 20 -7 0 -20 6 -28 14 -34 30 -96 57 -135 60 -23 2 -65 17 -95 34 -30
16 -60 28 -66 25 -8 -3 -15 9 -18 34 -8 63 -33 151 -51 177 -15 24 -15 26 3
35 29 16 121 138 121 161 0 17 5 19 24 14 34 -8 69 18 97 74 13 26 27 49 31
52 4 4 9 24 11 46 2 23 7 46 11 53 4 6 3 11 -2 11 -6 0 -13 11 -16 24 -9 36
-68 54 -102 31 -13 -8 -28 -14 -33 -11 -4 3 -13 30 -20 60 -7 30 -19 60 -27
66 -16 14 -18 42 -4 56 6 6 12 28 14 51 2 22 8 49 13 59 6 11 15 53 22 94 15
90 31 156 66 270 14 47 27 105 30 130 2 25 16 85 30 133 25 86 25 129 1 145
-6 4 -16 16 -22 27 -10 17 -23 20 -130 22 -384 8 -545 14 -591 21 -28 5 -58 5
-67 0 -8 -5 -28 -6 -43 -4 -15 2 -48 8 -73 11 -25 4 -50 11 -55 16 -6 4 -21 3
-35 -4z m523 -112 c15 -4 56 -2 91 5 53 10 70 9 108 -3 27 -10 61 -13 86 -10
22 3 57 2 78 -1 l37 -7 -6 -51 c-4 -29 -10 -54 -15 -57 -5 -3 -12 -19 -16 -36
-8 -40 -14 -60 -16 -60 -1 0 -4 -16 -7 -35 -2 -19 -10 -53 -18 -75 -15 -46
-43 -177 -51 -238 -7 -57 -9 -69 -18 -90 -5 -10 -6 -20 -3 -24 3 -3 0 -12 -8
-20 -8 -8 -15 -25 -15 -38 0 -14 -8 -29 -18 -34 -16 -8 -140 -6 -168 4 -6 1
-37 -3 -70 -10 -32 -7 -87 -15 -121 -18 -59 -5 -63 -4 -63 16 -1 39 -12 101
-27 157 -8 30 -19 73 -23 95 -5 22 -18 61 -29 88 -11 26 -18 47 -15 47 2 0 -2
14 -11 30 -9 17 -13 30 -11 30 3 0 1 12 -5 28 -6 15 -13 39 -16 54 -2 15 -15
60 -29 100 -13 40 -26 80 -28 88 -2 8 -9 28 -15 43 -6 16 -11 30 -11 31 0 6
407 -2 433 -9z m-783 -638 c0 -8 13 -41 29 -74 16 -33 34 -78 40 -99 6 -21 22
-61 36 -88 13 -27 27 -64 31 -82 3 -19 10 -34 15 -34 5 0 9 -11 9 -25 0 -14 5
-25 10 -25 6 0 10 -13 10 -28 0 -16 3 -32 7 -35 5 -6 41 -127 60 -206 3 -14
17 -40 30 -59 12 -19 23 -40 23 -46 0 -6 10 -27 23 -46 13 -19 31 -57 41 -85
10 -27 20 -57 23 -65 8 -19 10 -30 17 -79 6 -44 -4 -55 -57 -65 -25 -4 -38 8
-43 44 -4 29 -63 227 -94 315 -17 50 -40 117 -50 150 -9 33 -27 85 -38 115
-11 30 -38 109 -61 175 -23 66 -53 147 -66 180 -22 58 -32 84 -33 95 0 3 -5
17 -11 31 -7 19 -6 30 2 38 15 15 47 14 47 -2z m844 -215 c2 -4 33 -9 67 -10
35 -1 68 -7 73 -12 7 -7 4 -10 -7 -10 -9 0 -17 -4 -17 -10 0 -10 -50 -34 -105
-51 -44 -14 -171 8 -212 36 -33 22 -33 23 -11 29 13 3 39 6 58 6 19 1 58 7 85
15 61 17 63 17 69 7z m-179 -156 c114 -38 231 -30 310 23 62 41 68 41 88 9 15
-26 28 -113 30 -203 2 -73 -32 -150 -96 -219 -65 -69 -195 -94 -301 -57 -44
16 -70 34 -107 73 -27 29 -49 60 -49 69 0 9 -11 49 -23 90 -27 84 -27 153 -1
233 24 72 22 71 63 33 20 -19 59 -42 86 -51z m-265 -109 c0 -8 9 -22 19 -31
19 -18 35 -56 22 -56 -3 0 -19 14 -34 31 -27 31 -36 69 -17 69 6 0 10 -6 10
-13z m811 -60 c-20 -44 -37 -64 -47 -55 -7 7 -12 71 -7 85 3 7 13 13 23 13 11
0 22 5 26 11 4 7 10 7 16 1 6 -6 2 -26 -11 -55z m-1102 -152 c23 -71 46 -139
51 -150 8 -19 21 -67 25 -90 3 -22 18 -71 25 -80 4 -5 10 -28 13 -50 4 -22 9
-54 13 -71 6 -30 5 -30 -40 -33 -41 -2 -46 0 -46 19 0 11 -7 23 -15 27 -38 14
-58 124 -32 174 10 18 12 39 7 70 -8 47 -27 100 -39 109 -18 13 -44 89 -44
130 0 49 20 98 33 84 4 -5 27 -67 49 -139z m619 -221 l37 -6 2 -56 c2 -32 4
-70 5 -87 3 -30 3 -30 -50 -30 -38 0 -56 4 -61 15 -3 8 -5 52 -3 98 3 70 6 83
19 78 8 -3 31 -9 51 -12z m207 -24 c4 -17 11 -28 16 -24 11 7 29 -38 29 -76 0
-34 -14 -40 -88 -40 l-57 0 0 48 c0 26 -2 61 -5 77 -5 28 -2 30 30 36 64 12
68 10 75 -21z m111 -222 c-1 -22 13 -31 102 -75 10 -4 -47 -143 -60 -143 -4 0
-7 -4 -5 -9 3 -12 -63 -121 -75 -121 -5 0 -11 7 -14 15 -4 9 -19 15 -39 15
-26 0 -32 -4 -30 -17 13 -62 17 -73 25 -68 20 13 8 -11 -24 -49 -19 -21 -39
-35 -45 -32 -9 6 -9 168 0 266 1 8 1 58 -1 110 -2 52 1 95 6 96 5 0 34 6 64
12 30 6 64 14 75 16 11 2 20 4 21 5 0 0 0 -9 0 -21z m-448 -29 c21 10 182 14
182 4 0 -5 5 -35 10 -68 14 -83 22 -293 11 -299 -5 -4 -5 -24 1 -48 15 -64 4
-152 -21 -179 -15 -17 -21 -19 -21 -8 0 9 -11 25 -23 38 -21 18 -26 20 -36 7
-6 -8 -16 -28 -21 -45 -7 -26 -5 -33 12 -45 16 -12 17 -16 5 -23 -8 -4 -19
-18 -26 -31 -7 -12 -31 -34 -54 -49 -23 -14 -48 -32 -55 -40 -7 -7 -17 -13
-21 -13 -7 0 -24 -13 -69 -50 -7 -6 -28 -14 -46 -17 -48 -8 -50 18 -9 87 18
30 36 71 39 90 3 19 8 42 11 50 4 8 6 18 5 22 -1 4 5 33 12 65 32 129 37 361
11 462 -9 35 -15 64 -13 65 24 13 94 31 96 25 2 -5 11 -5 20 0z m-193 -59 c-2
-11 -1 -20 3 -20 4 0 15 -26 25 -57 16 -49 18 -80 14 -193 -6 -153 -15 -237
-28 -261 -4 -9 -13 -38 -19 -64 -6 -26 -23 -65 -37 -85 l-27 -37 -18 33 c-17
33 -17 36 3 111 11 43 23 85 26 93 4 8 8 29 9 45 1 17 5 46 9 65 3 19 8 111
10 204 4 121 9 172 17 178 17 11 17 11 13 -12z m915 -52 c8 -4 27 -12 43 -18
22 -8 26 -13 18 -27 -26 -48 -40 -86 -35 -94 3 -5 0 -9 -5 -9 -6 0 -11 -6 -11
-14 0 -7 -11 -25 -25 -40 -14 -15 -25 -31 -25 -36 0 -9 -88 -142 -100 -150 -4
-3 -14 -19 -23 -36 -9 -17 -42 -60 -74 -96 -32 -35 -67 -75 -78 -89 -49 -60
-246 -199 -282 -199 -7 0 -13 -4 -13 -8 0 -15 -96 -42 -175 -48 -77 -6 -81 -6
-82 15 -1 12 4 21 13 21 8 0 14 5 14 10 0 6 6 10 14 10 8 0 16 3 18 8 2 4 39
35 83 68 44 33 113 92 154 132 51 51 78 71 91 67 21 -7 40 15 44 50 2 17 31
60 72 109 107 126 197 249 209 285 3 11 17 29 30 40 29 22 47 64 38 88 -5 14
0 13 33 -7 21 -13 46 -27 54 -32z m-1003 -30 c8 -81 7 -203 -1 -224 -4 -11 -9
-53 -11 -94 -3 -70 -26 -140 -45 -140 -11 0 -47 106 -55 160 -3 25 -17 68 -30
97 -14 28 -25 61 -25 72 0 11 -9 45 -21 76 -11 31 -18 62 -15 70 8 21 172 59
190 44 4 -4 10 -31 13 -61z m-194 -257 c9 -19 17 -48 17 -65 1 -17 9 -54 18
-82 10 -28 14 -55 10 -60 -16 -18 -88 -165 -88 -178 0 -10 -34 -61 -77 -115
-5 -7 -84 21 -132 46 -24 13 -50 23 -57 23 -8 0 -14 5 -14 10 0 6 -6 10 -13
10 -8 0 -14 7 -14 15 0 8 3 15 7 15 3 0 12 17 19 38 7 20 50 111 94 202 44 91
89 187 99 214 10 27 28 64 40 83 l23 33 25 -78 c14 -42 33 -92 43 -111z m1436
69 c9 -19 23 -55 30 -80 7 -25 25 -70 40 -100 14 -30 26 -59 26 -65 1 -9 10
-32 46 -110 5 -11 13 -34 18 -51 9 -31 8 -32 -43 -58 -28 -14 -57 -26 -63 -26
-7 0 -16 -6 -20 -12 -7 -12 -46 -41 -80 -61 -13 -8 -80 53 -127 115 l-28 37
20 38 c32 61 52 110 52 127 0 9 5 16 11 16 5 0 8 4 5 9 -3 4 1 26 9 47 16 46
26 78 26 81 0 2 8 23 19 48 11 25 21 57 24 73 6 38 7 39 13 22 3 -8 13 -31 22
-50z m-149 35 c0 -8 -4 -15 -10 -15 -5 0 -7 7 -4 15 4 8 8 15 10 15 2 0 4 -7
4 -15z m-28 -47 c-7 -7 -12 -8 -12 -2 0 14 12 26 19 19 2 -3 -1 -11 -7 -17z
m-29 -33 c-3 -9 -8 -14 -10 -11 -3 3 -2 9 2 15 9 16 15 13 8 -4z m5 -102 c-8
-16 -28 -64 -37 -85 -45 -113 -110 -243 -158 -316 -24 -36 -45 -74 -48 -83 -7
-20 -31 -28 -65 -19 -17 4 -21 8 -12 14 8 5 10 16 6 29 -13 43 -46 49 -69 13
-13 -20 -14 -29 -5 -47 8 -15 9 -19 1 -15 -15 10 -61 19 -88 19 -34 -1 -30 38
5 59 32 20 68 51 137 117 42 41 66 68 127 146 85 108 111 142 118 155 8 13 11
12 25 -5 15 -20 15 -20 33 2 16 21 37 32 30 16z m405 -405 c7 -24 -8 -48 -29
-48 -8 0 -14 -4 -14 -10 0 -5 -6 -10 -14 -10 -7 0 -30 -11 -50 -25 -43 -29
-53 -30 -77 -9 -17 15 -17 17 5 41 24 26 130 82 157 83 9 0 19 -10 22 -22z
m-1993 -18 c0 -5 -2 -10 -4 -10 -3 0 -8 5 -11 10 -3 6 -1 10 4 10 6 0 11 -4
11 -10z m91 -36 c2 2 10 -2 17 -10 7 -8 9 -14 4 -14 -15 0 -62 25 -62 33 0 4
8 3 19 -2 10 -6 20 -9 22 -7z m1971 -96 c11 -19 10 -42 -4 -57 -11 -11 -10
-12 1 -6 11 6 13 4 8 -9 -4 -10 -7 -21 -7 -25 0 -5 -12 -20 -26 -35 -42 -41
-134 -36 -134 9 0 27 -34 59 -55 52 -8 -4 -15 -2 -15 3 0 5 9 12 20 15 11 4
48 24 83 44 52 32 67 37 91 30 16 -5 33 -14 38 -21z m-2092 3 c0 -5 9 -7 20
-4 11 3 20 1 20 -5 0 -5 14 -12 32 -16 32 -6 58 -23 58 -37 0 -12 -49 -59 -63
-61 -25 -3 -33 -5 -60 -18 -23 -11 -35 -11 -75 1 -40 13 -47 19 -45 40 2 39 8
55 25 73 28 27 88 46 88 27z m1094 -68 c105 -2 201 -4 214 -3 34 0 92 -63 96
-105 1 -5 7 -20 13 -31 7 -12 9 -24 6 -28 -3 -3 1 -6 10 -6 10 0 17 -7 17 -15
0 -17 2 -17 -290 -19 -113 -1 -216 1 -230 5 -14 3 -52 0 -85 -6 -34 -7 -83
-12 -110 -10 -28 1 -65 3 -82 3 -26 2 -33 6 -33 22 0 11 4 20 9 20 5 0 15 25
22 55 7 30 16 55 21 55 4 0 8 8 8 19 0 31 25 42 112 48 46 2 85 7 87 9 2 2 8
1 14 -3 6 -3 96 -8 201 -10z m-78 -383 c4 -36 9 -153 10 -260 4 -187 9 -290
19 -355 3 -16 7 -74 10 -129 2 -54 7 -101 10 -104 8 -9 6 -76 -4 -91 -6 -9
-41 -14 -123 -17 l-115 -4 4 27 c3 16 7 35 10 43 3 8 7 29 8 45 7 85 16 146
25 169 5 14 8 26 5 26 -2 0 2 17 9 38 11 33 10 49 -11 137 -13 55 -25 105 -26
110 -1 6 -6 15 -10 21 -3 6 -13 36 -21 65 -8 30 -28 93 -45 141 -17 48 -28 94
-25 103 4 8 1 15 -7 15 -7 0 -10 3 -7 6 4 3 2 19 -2 35 -6 20 -5 29 3 30 7 1
34 3 61 5 27 2 51 6 54 9 2 2 39 3 82 2 l78 -2 8 -65z m368 57 c10 -4 9 -27
-5 -119 -10 -62 -19 -125 -19 -141 0 -15 -4 -35 -9 -45 -5 -9 -17 -53 -27 -97
-10 -44 -31 -116 -46 -160 l-28 -80 30 -59 c17 -32 30 -67 30 -76 0 -10 9 -37
19 -61 11 -24 22 -68 25 -96 l6 -53 -33 -2 c-17 -1 -50 -2 -73 -3 -22 -1 -51
-5 -65 -8 -22 -5 -54 4 -48 14 1 2 -1 58 -5 124 -6 105 -11 150 -31 300 -6 47
-16 286 -18 432 l-2 132 60 3 c82 4 223 1 239 -5z m49 -1124 c20 -24 37 -51
37 -59 0 -21 -48 -36 -97 -31 -24 2 -43 1 -43 -3 0 -12 -93 9 -102 23 -4 6
-12 13 -18 13 -5 1 -13 2 -17 3 -5 0 -9 21 -10 45 -1 43 -1 44 30 45 18 1 59
5 92 9 33 4 67 6 75 4 8 -2 32 -24 53 -49z m-328 0 c3 -14 2 -29 -3 -32 -5 -3
-12 -16 -16 -29 -4 -12 -11 -20 -16 -17 -5 3 -10 2 -12 -2 -8 -19 -109 -46
-185 -50 -80 -3 -82 -3 -102 25 l-20 29 22 22 c13 11 28 21 34 21 6 0 18 11
27 24 17 27 30 29 188 33 74 2 76 1 83 -24z"/>
<path d="M2860 4593 c0 -9 -67 -24 -126 -28 -27 -2 -102 -62 -110 -87 -9 -28
13 -72 44 -90 42 -24 107 -30 146 -14 21 9 36 11 38 5 2 -6 14 -1 27 10 13 11
31 23 40 26 17 5 51 77 51 108 0 24 -48 67 -66 60 -8 -3 -21 0 -29 7 -8 7 -15
8 -15 3z m5 -102 c19 -8 19 -8 -3 -20 -29 -16 -114 -22 -132 -11 -12 8 -12 10
0 14 8 2 29 9 45 14 36 12 63 13 90 3z"/>
<path d="M2980 3623 c-36 -10 -58 -26 -54 -38 3 -7 1 -16 -5 -19 -13 -8 6 -66
22 -67 47 -5 67 21 62 80 -4 49 -5 50 -25 44z"/>
<path d="M2579 3570 c-27 -16 -12 -70 24 -83 13 -5 20 0 28 20 21 55 -8 89
-52 63z"/>
<path d="M2740 3482 c0 -7 -7 -12 -15 -12 -10 0 -15 -10 -15 -27 1 -38 39 -65
87 -61 30 2 38 8 44 28 9 38 -7 63 -38 55 -17 -4 -32 0 -44 11 -11 10 -19 12
-19 6z"/>
<path d="M2924 3385 c-32 -32 -53 -41 -79 -35 -5 2 -32 7 -59 12 -28 5 -59 16
-69 23 -15 10 -25 11 -43 3 -39 -18 -30 -72 15 -90 65 -27 227 -40 240 -20 3
5 16 14 29 21 12 6 22 21 22 31 0 11 4 20 9 20 5 0 8 8 6 18 -2 9 -4 22 -4 28
-2 28 -33 22 -67 -11z"/>
<path d="M2927 2748 c-9 -7 -19 -27 -23 -44 -5 -28 -3 -32 21 -38 48 -12 87
48 53 82 -15 15 -30 15 -51 0z"/>
<path d="M2658 2752 c-32 -36 -26 -82 11 -82 29 0 55 35 42 57 -19 37 -36 45
-53 25z"/>
<path d="M2647 2543 c3 -7 0 -13 -5 -13 -16 0 13 -65 30 -66 25 -1 46 27 46
62 0 33 -1 34 -38 32 -27 -1 -37 -5 -33 -15z"/>
</g>
</svg>
