<?xml version="1.0" standalone="no"?>
<!DOCTYPE svg PUBLIC "-//W3C//DTD SVG 20010904//EN"
 "http://www.w3.org/TR/2001/REC-SVG-20010904/DTD/svg10.dtd">
<svg version="1.0" xmlns="http://www.w3.org/2000/svg"
 width="553.000000pt" height="389.000000pt" viewBox="0 0 553.000000 389.000000"
 preserveAspectRatio="xMidYMid meet">
<metadata>
Created by potrace 1.16, written by Peter Selinger 2001-2019
</metadata>
<g transform="translate(0.000000,389.000000) scale(0.100000,-0.100000)"
fill="#000000" stroke="none">
<path d="M932 3454 c-27 -20 -41 -242 -28 -459 4 -66 9 -148 11 -182 2 -34 7
-67 10 -73 4 -7 7 -46 7 -88 0 -42 3 -81 6 -87 4 -5 8 -17 10 -25 8 -29 7
-692 -1 -697 -4 -2 -5 -8 -2 -13 2 -4 7 -77 9 -161 2 -85 9 -184 15 -220 6
-36 12 -92 13 -125 l3 -59 -48 0 c-41 0 -47 3 -43 18 2 10 -2 30 -10 45 -8 15
-14 33 -14 40 0 7 -7 26 -15 42 -8 16 -16 38 -18 48 -4 25 -69 132 -81 132 -5
0 -17 7 -26 15 -21 19 -45 24 -128 30 -35 3 -67 7 -72 10 -4 3 -10 1 -12 -5
-1 -5 -30 -12 -63 -16 -41 -5 -71 -15 -95 -33 -53 -40 -110 -99 -110 -115 0
-7 -8 -32 -19 -55 -14 -32 -16 -51 -10 -84 4 -23 8 -45 9 -49 0 -5 -26 -8 -57
-8 -51 -1 -63 -5 -96 -33 l-38 -33 0 -145 c0 -79 4 -184 10 -234 28 -237 32
-288 31 -400 0 -66 -2 -135 -4 -153 -9 -59 -7 -60 444 -68 223 -4 513 -8 645
-10 132 -1 407 -6 610 -9 204 -4 523 -9 710 -11 187 -2 396 -6 465 -9 69 -3
260 -7 425 -10 683 -11 835 -14 940 -20 61 -4 211 -9 335 -11 124 -2 286 -6
360 -8 351 -12 420 -12 430 4 9 15 7 401 -5 800 -8 263 -14 280 -115 273 l-57
-4 -8 43 c-4 24 -9 73 -11 110 -1 37 -5 72 -8 77 -6 9 -17 193 -19 296 0 28 3
127 8 220 10 207 10 275 0 475 -10 193 -10 175 -2 236 6 43 4 55 -13 77 -20
25 -22 26 -149 24 -71 -1 -132 1 -136 4 -3 4 4 18 17 32 13 14 29 36 35 49 23
45 46 103 44 111 -1 4 4 17 9 28 15 27 5 54 -25 67 -14 6 -25 18 -25 26 0 17
-47 29 -112 27 -26 0 -48 4 -48 9 0 6 -9 6 -23 1 -13 -5 -202 -8 -420 -6 -358
3 -399 2 -416 -13 -21 -18 -29 -73 -16 -107 23 -62 50 -115 57 -115 4 0 8 -5
8 -12 0 -7 19 -31 42 -55 l41 -42 -171 2 -171 2 -6 25 c-4 14 -9 77 -11 140
-7 203 -15 384 -20 435 -8 93 69 85 -854 90 -1705 10 -1913 10 -1928 -1z m246
-94 c670 1 887 0 1012 -5 80 -4 159 -6 175 -5 51 4 123 4 625 -3 267 -3 516
-6 553 -6 42 -1 66 -5 62 -11 -3 -5 -1 -36 5 -69 6 -32 13 -130 16 -217 4 -88
8 -204 10 -259 4 -114 14 -605 16 -800 0 -73 6 -150 14 -175 14 -50 21 -119
29 -295 3 -66 8 -159 11 -207 l6 -88 -53 -1 c-153 -3 -1194 14 -1609 27 -96 3
-337 7 -535 8 -198 2 -375 4 -392 5 -32 1 -33 2 -33 44 0 23 -8 83 -16 132
-13 72 -17 189 -20 595 -4 468 -12 639 -39 795 -9 51 -16 437 -10 493 5 42 10
52 22 48 8 -3 76 -6 151 -6z m3509 -371 c116 -2 218 -6 227 -9 13 -4 9 -16
-24 -69 -44 -73 -41 -71 -141 -108 -89 -32 -230 -39 -349 -16 -41 8 -102 18
-134 24 -33 5 -64 14 -71 19 -7 5 -15 7 -18 3 -4 -3 -7 1 -7 10 0 10 -5 17
-11 17 -14 0 -59 47 -59 61 0 5 -4 9 -10 9 -8 0 -40 50 -40 62 0 3 311 2 637
-3z m-302 -345 c237 -4 494 -7 572 -6 l141 2 7 -58 c10 -91 16 -214 21 -402 2
-96 4 -179 4 -185 0 -5 -4 -35 -9 -65 -8 -52 -6 -382 3 -442 2 -16 7 -45 10
-65 3 -21 8 -79 11 -130 l5 -91 -373 5 c-204 3 -502 6 -661 7 l-289 2 -13 61
c-7 34 -15 145 -19 247 -3 102 -10 198 -14 213 -4 16 -6 33 -4 40 2 7 0 21 -6
32 -8 15 -25 266 -23 326 3 60 1 422 -2 462 l-5 52 57 3 c31 2 80 2 107 2 28
-1 244 -5 480 -10z m-3845 -1126 c0 10 12 12 45 8 82 -10 96 -17 126 -64 31
-48 76 -178 66 -189 -7 -6 -448 -5 -455 1 -6 7 -7 78 0 108 18 78 84 133 154
129 18 -1 35 3 39 9 6 9 10 9 16 -1 7 -11 9 -11 9 -1z m-150 -363 c118 -4 222
-7 230 -7 8 0 100 1 204 1 118 2 191 -2 195 -8 4 -6 21 -7 45 -1 22 5 76 6
120 4 45 -3 329 -7 631 -9 303 -2 780 -8 1060 -12 281 -4 587 -7 680 -7 142 0
172 -2 182 -15 7 -9 13 -13 13 -9 0 4 10 4 23 -1 15 -6 26 -4 36 6 12 13 68
14 430 8 229 -3 566 -8 749 -10 183 -1 335 -5 337 -7 11 -11 7 -291 -4 -297
-6 -4 -231 -7 -499 -6 l-487 2 -10 49 c-5 27 -20 63 -32 80 -21 29 -21 30
-115 27 -177 -4 -854 -3 -1188 2 -594 9 -938 15 -1275 20 -822 15 -1084 14
-1100 -2 -15 -14 -19 -43 -15 -113 l1 -36 -218 4 c-120 2 -220 5 -222 8 -11
11 -25 319 -16 335 3 4 11 6 18 4 7 -2 109 -7 227 -10z m1604 -294 c28 -1 28
-1 21 -48 -15 -93 -14 -137 3 -163 9 -14 17 -30 18 -37 2 -9 -136 -11 -599 -6
-682 7 -709 7 -725 17 -8 5 -12 47 -12 127 l0 120 633 -5 c347 -3 645 -5 661
-5z m315 -15 c6 -4 11 -17 11 -29 -1 -100 -1 -123 0 -132 0 -5 2 -27 4 -47 l4
-38 -79 0 c-43 0 -79 4 -79 9 0 5 -12 12 -27 16 -28 6 -71 59 -78 94 -5 27 13
110 27 125 9 10 39 13 109 11 53 -1 102 -5 108 -9z m958 -2 c745 -7 939 -11
952 -19 6 -3 11 -21 10 -38 0 -18 1 -69 4 -114 l6 -81 -62 -2 c-57 -2 -1029
-1 -1385 0 -140 1 -153 3 -147 18 4 9 10 25 12 35 3 9 8 17 12 17 3 0 6 42 6
93 0 83 2 93 20 98 11 3 23 4 27 2 4 -2 249 -6 545 -9z m-667 -20 c6 -14 10
-56 10 -93 0 -55 -4 -71 -20 -86 -11 -10 -20 -27 -20 -37 0 -17 -7 -18 -77
-14 -92 5 -83 3 -83 17 0 7 -8 17 -17 24 -13 10 -16 27 -15 86 1 41 5 86 8
102 l6 27 99 0 c98 0 100 0 109 -26z m-2077 -111 c4 -3 21 -8 39 -10 17 -2 33
-5 36 -7 2 -3 5 -45 5 -93 l2 -89 75 -3 c41 -2 82 -3 90 -3 126 4 622 3 810
-2 135 -3 520 -9 855 -12 336 -3 738 -8 895 -10 157 -3 330 -5 385 -5 288 3
486 -2 561 -13 58 -9 69 10 67 110 -1 49 2 91 7 94 9 6 431 3 710 -5 102 -2
206 -5 231 -4 l47 0 2 -103 c3 -182 1 -309 -5 -318 -3 -5 -80 -7 -178 -4 -94
3 -469 7 -832 9 -363 3 -788 7 -945 11 -157 3 -397 7 -535 9 -137 3 -333 7
-435 10 -102 3 -279 7 -395 10 -115 2 -282 7 -370 11 -88 4 -279 8 -425 9
-458 5 -1030 21 -1037 29 -2 2 -5 79 -7 172 -3 93 -7 176 -11 185 -5 14 11 15
142 14 81 -1 159 2 173 6 34 10 36 10 43 2z"/>
<path d="M1263 3212 c-70 -5 -72 -13 -54 -231 6 -68 15 -117 22 -121 6 -5 147
-8 313 -9 476 -1 923 -17 942 -32 14 -12 36 65 23 78 -11 11 -14 135 -4 185 6
30 3 40 -15 58 -16 16 -25 19 -33 11 -15 -15 -27 -14 -27 3 0 35 -29 40 -239
44 -113 2 -305 6 -426 8 -373 8 -458 9 -502 6z m687 -77 c176 -8 413 -17 442
-17 15 1 30 -3 33 -8 3 -5 6 -53 8 -107 l2 -98 -115 2 c-63 1 -286 5 -495 8
-209 3 -409 8 -444 10 -35 2 -72 0 -82 -6 -16 -8 -19 -6 -19 13 -1 18 -7 112
-12 188 -2 33 -3 33 290 26 158 -3 334 -8 392 -11z"/>
<path d="M3000 3210 c0 -5 -20 -18 -45 -29 -79 -35 -105 -72 -105 -152 0 -101
56 -150 180 -156 89 -5 127 11 176 74 53 69 35 156 -44 221 -25 19 -52 32 -69
32 -15 0 -43 4 -61 9 -18 6 -32 6 -32 1z m86 -80 c12 0 36 -13 53 -29 45 -42
43 -90 -3 -127 -29 -23 -46 -28 -108 -32 l-73 -3 -19 33 c-21 35 -23 93 -4
115 17 21 91 52 113 48 11 -3 30 -5 41 -5z"/>
<path d="M1333 2789 c-13 -5 -23 -6 -23 -4 0 2 -21 -7 -47 -20 -26 -14 -54
-23 -65 -19 -10 3 -18 2 -19 -3 0 -4 -2 -18 -5 -31 -4 -25 16 -52 39 -52 8 0
35 11 58 25 57 32 63 31 55 -7 -19 -86 -12 -77 -54 -80 -31 -2 -33 -4 -30 -38
3 -32 6 -35 35 -35 27 0 31 -3 31 -25 -1 -37 12 -70 27 -70 17 0 46 40 39 52
-8 13 6 49 19 47 62 -8 98 21 77 61 -8 15 -21 20 -50 20 -22 0 -40 3 -40 8 0
4 7 37 17 73 15 58 15 68 2 81 -21 21 -41 26 -66 17z"/>
<path d="M1810 2787 c-71 -32 -104 -105 -64 -144 19 -20 7 -62 -26 -93 -38
-36 -45 -64 -24 -100 20 -33 55 -44 114 -36 19 3 35 5 35 6 0 1 11 3 25 6 32
5 60 39 60 73 0 26 -33 90 -53 103 -15 9 -18 40 -5 55 6 8 14 32 18 55 7 38 5
45 -16 65 -28 26 -29 26 -64 10z m7 -97 c-12 -17 -16 -18 -20 -6 -4 9 1 20 11
25 23 13 27 6 9 -19z m37 -166 c9 -22 7 -28 -6 -30 -7 -1 -30 -5 -50 -9 -46
-9 -48 2 -8 37 31 27 54 28 64 2z"/>
<path d="M2714 2792 c-21 -15 -23 -40 -2 -58 19 -18 20 -18 39 5 23 28 24 47
3 55 -20 8 -27 7 -40 -2z"/>
<path d="M2224 2780 c-28 -4 -60 -12 -71 -18 -32 -18 -67 -64 -82 -109 -18
-56 4 -104 59 -126 36 -14 41 -13 72 5 18 11 45 32 60 46 41 38 41 23 2 -36
-23 -33 -48 -58 -70 -67 -31 -13 -35 -18 -32 -47 11 -113 186 51 205 191 8 57
-3 103 -34 139 -27 34 -28 34 -109 22z m76 -80 c17 -10 17 -10 -36 -43 -22
-14 -48 -33 -57 -42 -21 -20 -71 -16 -75 6 -5 25 49 77 83 82 53 7 70 7 85 -3z"/>
<path d="M3165 2760 c-34 -12 -40 -90 -7 -90 13 0 13 -2 -3 -13 -23 -18 -13
-82 15 -97 25 -13 69 8 99 46 22 28 29 115 12 143 -10 15 -85 22 -116 11z m70
-88 c1 -13 -5 -27 -13 -31 -22 -12 -45 13 -37 40 9 28 48 22 50 -9z"/>
<path d="M3434 2730 c-12 -5 -24 -19 -28 -33 -3 -13 -18 -33 -33 -43 -37 -23
-253 -246 -253 -260 0 -6 9 -19 19 -28 18 -17 20 -17 40 3 12 12 26 21 33 21
6 0 9 2 6 5 -6 6 32 52 92 111 34 34 35 34 43 12 15 -42 27 -49 50 -33 28 20
37 19 37 -4 0 -34 -58 -43 -78 -11 -16 26 -26 25 -40 -5 -21 -46 13 -92 63
-86 11 2 39 12 62 22 35 16 44 27 54 60 12 38 11 42 -13 64 -14 13 -28 30 -30
37 -4 11 -11 11 -39 1 -47 -18 -59 -1 -23 35 16 15 36 33 45 38 32 19 48 55
37 80 -12 26 -13 27 -44 14z"/>
<path d="M2716 2637 c-9 -41 -3 -57 18 -57 35 0 48 14 40 43 -3 15 -9 27 -13
28 -3 0 -14 2 -24 4 -11 2 -19 -4 -21 -18z"/>
<path d="M2820 2473 c-14 -9 -29 -23 -33 -30 -11 -19 -31 -16 -52 7 -19 21
-50 26 -60 10 -4 -6 -10 -8 -15 -5 -13 8 -19 -33 -6 -50 10 -14 28 -21 59 -24
4 -1 0 -12 -9 -26 -9 -14 -20 -22 -25 -19 -5 3 -9 -1 -9 -9 0 -8 -7 -17 -15
-21 -22 -8 -18 -39 5 -54 22 -14 40 -8 40 12 0 7 17 26 37 42 28 22 45 28 74
26 42 -3 57 16 37 48 -10 16 -8 23 12 45 19 20 22 30 14 42 -15 24 -26 25 -54
6z"/>
<path d="M1809 2335 c-3 -2 -16 -6 -29 -8 -40 -6 -59 -44 -66 -132 -5 -68 -4
-83 10 -94 15 -12 20 -11 44 12 32 31 70 32 78 2 9 -34 0 -108 -13 -112 -12
-4 -39 19 -60 53 -18 29 -35 -1 -28 -51 7 -46 36 -74 78 -75 67 0 97 45 90
135 -6 91 -47 145 -107 145 -14 0 -26 3 -26 8 1 36 82 55 102 23 7 -11 19 -16
30 -13 24 6 25 73 2 93 -16 13 -96 24 -105 14z"/>
<path d="M2253 2333 c-27 -5 -74 -63 -94 -116 -29 -75 8 -227 55 -227 6 0 29
-9 51 -21 33 -18 44 -20 76 -10 88 26 132 144 72 191 -21 16 -38 21 -73 18
-25 -2 -47 -5 -50 -8 -15 -16 -62 -40 -68 -36 -23 14 13 121 45 133 9 4 29 1
44 -4 34 -13 52 3 47 39 -6 42 -38 54 -105 41z m117 -255 c0 -15 -30 -48 -45
-48 -6 0 -23 6 -37 12 l-26 13 26 17 c31 20 82 24 82 6z"/>
<path d="M1318 2252 c-22 -24 -25 -37 -27 -106 0 -43 -4 -82 -7 -87 -10 -17
44 -59 76 -59 23 0 30 -4 30 -19 0 -23 25 -51 45 -51 8 0 21 14 30 30 9 17 11
30 5 30 -5 0 -10 9 -10 21 0 16 4 19 18 14 54 -23 96 -5 90 39 -2 16 -12 22
-43 26 -35 4 -40 8 -43 34 -2 16 1 32 6 35 6 4 2 16 -9 30 -18 22 -20 23 -44
7 -21 -14 -25 -24 -25 -65 0 -42 -3 -49 -22 -54 -12 -4 -25 -4 -27 -1 -10 9
-3 131 8 152 8 15 7 23 -8 36 -16 15 -19 14 -43 -12z"/>
<path d="M3490 2240 c-17 -24 -62 -26 -84 -4 -15 14 -16 14 -16 0 0 -9 -5 -16
-10 -16 -6 0 -16 -5 -23 -10 -7 -6 -21 -17 -32 -25 -20 -13 -20 -14 -1 -50 15
-27 19 -54 18 -111 -1 -69 0 -76 21 -83 28 -11 40 8 39 63 -1 42 -1 42 33 40
19 -2 35 1 35 7 0 5 12 8 28 7 23 -3 27 1 30 23 4 38 -20 55 -58 39 -24 -10
-37 -10 -57 -1 -22 10 -24 14 -12 22 7 5 28 9 45 9 17 0 48 7 68 15 40 17 49
51 20 79 -20 21 -27 20 -44 -4z"/>
<path d="M3165 2206 c-13 -13 -27 -37 -30 -53 -3 -15 -10 -41 -15 -58 -5 -16
-12 -49 -16 -72 -5 -36 -3 -45 19 -66 30 -31 109 -46 133 -26 31 25 54 87 54
144 0 77 -21 122 -64 140 -47 20 -53 19 -81 -9z m69 -59 c16 -11 18 -24 14
-75 -2 -34 -9 -67 -14 -72 -6 -6 -25 -7 -42 -4 -25 5 -32 12 -32 30 0 13 5 24
10 24 6 0 9 3 8 8 -3 13 24 102 31 102 4 0 15 -6 25 -13z"/>
<path d="M2795 2092 c-2 -3 -25 -6 -50 -8 -25 -2 -50 -6 -56 -9 -16 -11 -10
-54 10 -65 20 -10 72 -4 104 12 19 10 53 19 74 20 18 2 25 28 12 45 -11 12
-82 16 -94 5z"/>
<path d="M3301 1790 c-25 -4 -47 -12 -49 -18 -2 -7 -12 -12 -23 -12 -11 0 -22
-8 -26 -17 -3 -10 -12 -25 -18 -33 -11 -14 -28 -61 -30 -85 0 -5 -4 -16 -9
-23 -12 -19 3 -122 22 -154 30 -51 153 -78 217 -47 36 17 45 27 45 57 0 27
-34 30 -70 5 -25 -18 -88 -19 -104 -3 -6 6 -17 10 -26 10 -19 0 -42 91 -28
112 4 7 8 24 8 36 0 33 38 85 57 78 10 -4 13 -2 10 8 -3 8 1 17 9 20 22 9 84
7 83 -1 -1 -5 2 -18 6 -30 13 -40 64 -40 60 0 -1 12 -3 27 -4 33 -2 19 -58 74
-73 73 -7 -1 -33 -5 -57 -9z"/>
<path d="M2304 1775 c-39 -11 -70 -12 -81 -1 -10 9 -36 -25 -39 -50 -4 -43 60
-52 138 -19 21 8 37 -21 22 -40 -44 -59 -45 -63 -33 -83 12 -18 16 -19 56 -7
37 11 46 11 58 -2 19 -18 19 -47 1 -62 -10 -9 -104 -30 -134 -31 -1 0 -2 -16
0 -35 1 -19 4 -32 7 -30 2 3 10 0 17 -6 9 -7 25 -8 41 -4 16 5 33 9 38 10 12
1 45 14 65 24 20 11 48 61 49 88 2 41 -30 103 -60 119 -21 10 -29 22 -29 42 0
34 -32 88 -57 94 -10 3 -37 0 -59 -7z"/>
<path d="M1790 1750 c-18 -18 -29 -41 -33 -71 -3 -24 -7 -52 -9 -63 -2 -10 5
-23 15 -30 22 -14 42 9 58 66 8 31 14 38 34 38 19 0 26 -7 31 -27 3 -16 7 -32
9 -38 1 -5 -13 -37 -31 -71 -37 -66 -41 -89 -22 -129 11 -24 16 -26 77 -25 36
1 85 -2 108 -5 36 -6 42 -4 48 14 9 29 -4 81 -20 81 -7 0 -15 -5 -17 -11 -2
-7 -12 -7 -31 0 -15 6 -46 8 -68 6 l-40 -5 31 57 c28 51 31 64 26 110 -8 73
-13 81 -60 105 -56 29 -74 29 -106 -2z"/>
<path d="M1431 1724 c-12 -15 -21 -29 -21 -33 0 -3 -14 -21 -30 -40 -17 -18
-30 -36 -30 -40 0 -3 -18 -19 -40 -35 -46 -34 -54 -70 -18 -79 31 -9 61 14
103 78 20 30 39 55 41 55 2 0 1 -49 -3 -110 -6 -116 0 -140 38 -137 28 2 34
40 34 205 0 116 -3 144 -15 152 -24 15 -37 12 -59 -16z"/>
<path d="M2795 1676 c-15 -11 -17 -22 -12 -65 6 -54 -6 -68 -33 -36 -12 14
-15 13 -31 -4 -15 -16 -16 -24 -6 -50 9 -26 19 -33 49 -38 l38 -6 0 -54 c0
-40 4 -55 16 -60 23 -9 34 15 34 74 l0 52 45 7 c27 4 45 12 45 19 0 23 -30 45
-61 45 l-29 0 0 65 c0 56 -2 65 -18 65 -10 0 -26 -6 -37 -14z"/>
<path d="M3981 2492 c-24 -2 -49 -9 -56 -15 -13 -14 -18 -84 -7 -101 4 -6 8
-29 8 -51 1 -22 2 -56 3 -76 2 -61 17 -72 104 -73 43 0 77 1 77 4 0 4 430 4
735 -1 61 0 117 2 125 5 12 5 16 28 18 104 2 53 8 100 14 103 12 8 1 69 -14
69 -5 0 -16 7 -24 15 -10 10 -35 15 -72 15 -31 0 -239 1 -462 3 -223 1 -425 1
-449 -1z m912 -81 l39 0 -4 -73 c-3 -67 -5 -72 -28 -78 -14 -3 -223 -6 -465
-5 l-440 0 -3 77 -3 77 53 3 c29 2 224 2 433 1 209 -1 397 -2 418 -2z"/>
</g>
</svg>
