<?xml version="1.0" standalone="no"?>
<!DOCTYPE svg PUBLIC "-//W3C//DTD SVG 20010904//EN"
 "http://www.w3.org/TR/2001/REC-SVG-20010904/DTD/svg10.dtd">
<svg version="1.0" xmlns="http://www.w3.org/2000/svg"
 width="505.000000pt" height="371.000000pt" viewBox="0 0 505.000000 371.000000"
 preserveAspectRatio="xMidYMid meet">
<metadata>
Created by potrace 1.16, written by Peter Selinger 2001-2019
</metadata>
<g transform="translate(0.000000,371.000000) scale(0.100000,-0.100000)"
fill="#000000" stroke="none">
<path d="M2538 3599 c-14 -4 -68 -10 -119 -14 -162 -14 -194 -18 -270 -36 -56
-13 -69 -15 -136 -24 -29 -4 -53 -12 -53 -17 0 -5 -4 -7 -8 -4 -12 7 -192 -20
-202 -30 -8 -9 -13 -37 -11 -62 2 -25 50 -33 110 -18 31 8 74 18 96 22 47 8
41 7 125 27 217 51 365 67 580 61 85 -2 160 -4 165 -5 6 0 65 0 131 1 67 1
130 -2 140 -8 11 -5 53 -12 94 -16 85 -8 176 -30 237 -57 22 -10 74 -30 113
-43 65 -23 94 -38 110 -57 3 -3 17 -9 33 -13 23 -5 29 -2 38 18 10 21 8 29
-12 53 -78 95 -547 221 -773 208 -57 -3 -157 0 -232 8 -72 7 -142 10 -156 6z"/>
<path d="M2395 3210 c-18 -11 -25 -23 -25 -47 0 -22 5 -33 14 -33 8 0 16 -5
18 -10 2 -7 27 -6 73 4 114 23 148 26 236 16 155 -17 238 -29 256 -39 35 -19
91 -41 103 -41 6 0 24 -7 40 -15 43 -22 80 -11 80 25 0 15 -6 33 -14 40 -26
21 -198 71 -281 81 -44 5 -108 16 -142 24 -85 20 -324 16 -358 -5z"/>
<path d="M2410 2871 c-63 -16 -140 -39 -170 -51 -30 -12 -72 -28 -93 -36 -40
-14 -158 -74 -167 -84 -3 -3 -23 -17 -45 -30 -57 -34 -173 -127 -222 -178 -24
-24 -47 -41 -53 -37 -5 3 -36 1 -67 -4 -56 -10 -178 -25 -293 -37 -30 -3 -62
-10 -71 -15 -9 -4 -19 -6 -21 -4 -3 3 -29 -2 -59 -11 -154 -47 -288 -145 -310
-226 -6 -24 -8 -64 -4 -95 5 -39 3 -53 -6 -53 -7 0 -20 -7 -30 -16 -15 -14
-17 -27 -12 -81 5 -54 11 -71 34 -94 16 -16 33 -29 39 -29 5 0 10 -5 10 -11 0
-23 101 -149 119 -149 5 0 22 -10 38 -23 15 -13 51 -31 78 -42 28 -10 55 -22
61 -27 12 -9 129 -43 202 -58 23 -5 51 -14 61 -19 20 -11 88 -29 134 -36 15
-3 35 -9 45 -14 21 -11 165 -43 178 -40 5 2 26 0 46 -4 l38 -8 -23 -31 c-12
-17 -32 -41 -44 -54 -13 -13 -23 -28 -23 -35 0 -7 -16 -31 -35 -55 -19 -23
-35 -47 -35 -52 0 -6 -5 -12 -10 -14 -6 -2 -12 -14 -15 -28 -3 -14 -14 -36
-25 -50 -10 -14 -36 -58 -56 -97 -21 -40 -41 -73 -45 -73 -4 0 -10 -13 -14
-29 -8 -37 -20 -41 -91 -32 -70 10 -85 6 -150 -35 -52 -33 -64 -53 -64 -108 0
-44 39 -116 69 -130 14 -6 37 -19 51 -28 44 -29 90 -28 137 3 36 25 44 38 64
101 12 40 33 90 46 110 12 21 23 41 23 46 0 4 20 39 45 77 25 39 45 73 45 78
0 4 18 36 40 71 22 35 40 68 40 73 0 6 17 32 38 59 21 27 49 67 61 89 13 22
31 45 40 52 10 6 25 29 35 51 17 37 20 39 46 32 15 -4 69 -8 120 -9 51 -1 96
-4 101 -7 16 -9 504 -38 624 -36 162 2 407 12 416 17 5 4 13 -4 18 -17 18 -46
72 -214 76 -238 3 -14 9 -41 14 -60 6 -19 16 -64 23 -100 15 -79 13 -72 21
-90 11 -29 25 -135 20 -160 -11 -64 -8 -105 9 -122 10 -10 18 -25 18 -33 0 -8
12 -18 28 -21 15 -4 32 -9 37 -13 27 -15 128 -16 164 -1 61 25 98 129 67 188
-18 36 -80 87 -95 78 -5 -4 -12 -2 -16 4 -3 5 -26 10 -49 10 -39 0 -45 3 -56
30 -7 16 -10 36 -7 45 4 8 2 17 -3 20 -6 4 -10 19 -10 35 0 16 -4 31 -9 34 -5
3 -12 26 -16 51 -3 25 -19 85 -36 133 -16 48 -29 94 -29 103 0 9 -6 29 -14 45
-7 16 -16 41 -20 56 -6 25 -3 28 26 32 48 8 174 24 243 31 33 4 67 8 75 9 121
21 263 56 275 67 5 5 17 9 27 9 29 0 157 47 173 64 8 8 25 18 37 22 30 9 97
83 104 114 3 14 9 32 13 40 18 35 1 154 -34 237 -19 45 -35 86 -35 92 0 20
-42 80 -60 86 -10 3 -33 22 -49 41 -17 19 -31 30 -31 25 0 -9 -28 3 -85 39
-94 58 -243 113 -340 124 -108 13 -131 24 -171 84 -45 69 -117 145 -204 215
-78 63 -75 61 -225 135 -194 97 -312 128 -510 136 -108 5 -131 2 -235 -23z
m350 -85 c118 -18 260 -66 370 -127 8 -5 34 -18 58 -30 23 -13 50 -30 60 -38
9 -9 29 -22 44 -30 15 -8 30 -22 34 -33 3 -10 12 -18 19 -18 18 0 98 -81 133
-135 15 -22 30 -42 34 -45 13 -10 75 -193 82 -241 6 -41 4 -48 -17 -62 -13 -8
-44 -20 -68 -26 -24 -6 -66 -18 -94 -26 -78 -22 -139 -38 -155 -41 -8 -1 -46
-9 -85 -18 -38 -8 -90 -17 -115 -20 -25 -3 -74 -10 -110 -15 -67 -9 -317 -7
-405 3 -27 4 -97 15 -155 26 -58 11 -125 23 -150 26 -25 3 -53 10 -63 16 -10
5 -21 7 -24 4 -3 -2 -17 0 -31 5 -14 5 -55 18 -91 28 -36 11 -91 29 -121 41
-30 12 -68 24 -85 26 -38 7 -157 61 -167 77 -12 19 4 70 39 124 18 29 33 55
33 58 0 4 17 32 37 63 38 58 88 111 133 140 14 10 33 27 43 39 10 13 46 37 80
53 34 17 88 46 119 63 73 42 274 110 353 120 67 9 175 6 265 -7z m-1156 -455
c3 -4 -4 -17 -14 -29 -11 -12 -20 -24 -20 -28 0 -3 -9 -17 -20 -31 -20 -26
-28 -97 -12 -107 5 -3 7 -18 4 -34 -4 -28 0 -31 80 -70 154 -73 173 -81 223
-92 28 -6 86 -24 131 -40 44 -17 90 -30 102 -30 11 0 24 -5 27 -10 4 -6 10 -8
15 -5 5 3 11 1 15 -5 4 -6 11 -8 16 -4 5 3 33 1 62 -5 283 -57 515 -77 677
-60 79 8 148 16 215 25 34 5 227 46 275 59 62 17 302 104 321 117 27 17 30 44
11 91 -7 16 -12 37 -12 47 0 10 -4 29 -9 42 -4 13 -11 36 -15 51 -6 26 -5 28
16 21 13 -4 34 -8 48 -10 66 -7 116 -17 125 -24 6 -4 27 -13 48 -20 51 -16
187 -87 213 -111 11 -10 24 -19 28 -19 14 0 36 -29 51 -64 17 -40 20 -106 5
-106 -5 0 -10 -6 -11 -12 0 -7 -20 -29 -45 -48 -24 -19 -50 -40 -57 -46 -13
-11 -56 -35 -97 -53 -14 -6 -55 -18 -92 -26 -37 -8 -79 -20 -94 -25 -25 -10
-50 -14 -164 -25 -30 -3 -86 -10 -125 -15 -100 -13 -215 -22 -330 -27 -378
-13 -585 -17 -680 -12 -60 4 -171 10 -245 13 -74 4 -171 13 -215 21 -44 8 -98
16 -120 19 -22 3 -61 8 -88 11 -38 5 -273 56 -312 69 -5 1 -28 6 -50 11 -22 4
-45 12 -51 16 -6 5 -35 18 -65 28 -164 58 -223 81 -232 90 -6 6 -17 11 -24 11
-15 0 -110 63 -133 88 -30 33 -45 76 -44 123 0 43 5 53 46 94 25 25 50 45 55
45 6 0 16 6 22 14 6 7 26 17 44 21 17 4 39 9 47 12 8 2 24 6 35 7 11 2 46 11
77 21 83 24 332 43 342 26z m-659 -471 c3 -5 21 -17 40 -26 19 -9 35 -20 35
-25 0 -5 7 -9 15 -9 8 0 15 -4 15 -9 0 -5 21 -14 46 -20 25 -7 65 -20 87 -30
23 -10 58 -23 77 -30 135 -48 170 -59 170 -54 0 3 9 -2 20 -12 11 -10 40 -20
67 -22 26 -2 52 -8 58 -13 7 -6 14 -8 17 -5 3 3 47 -6 99 -20 52 -13 103 -24
114 -25 31 0 105 -10 215 -28 188 -32 621 -45 945 -28 72 4 211 9 310 11 169
4 235 9 295 22 14 3 61 9 105 14 95 10 257 45 303 65 18 8 38 14 45 14 26 0
136 60 190 104 31 25 61 46 67 46 15 0 12 -65 -5 -108 -12 -29 -29 -46 -71
-70 -78 -45 -132 -67 -195 -81 -29 -7 -68 -17 -86 -22 -40 -12 -45 -13 -173
-37 -124 -24 -258 -42 -355 -48 -38 -3 -122 -9 -185 -13 -238 -16 -777 0 -950
28 -36 6 -82 11 -102 11 -24 0 -38 5 -38 13 0 8 -3 8 -9 -2 -8 -12 -26 -12
-113 -4 -56 6 -119 11 -138 12 -19 1 -57 8 -85 16 -27 7 -70 17 -95 20 -25 4
-51 12 -58 18 -7 5 -15 7 -18 4 -4 -3 -23 0 -43 8 -42 15 -187 59 -251 76 -25
6 -57 17 -71 25 -15 7 -40 16 -56 18 -16 3 -43 12 -59 20 -39 20 -140 118
-159 156 -8 16 -23 34 -32 39 -10 6 -13 11 -6 11 6 0 15 -4 18 -10z m503
-1148 c12 -8 18 -61 11 -92 -14 -56 -99 -24 -103 39 -2 26 3 35 23 46 30 16
51 18 69 7z m2228 -103 c8 -8 11 -24 8 -36 -6 -20 -12 -22 -56 -19 -28 2 -54
10 -59 17 -11 17 -11 43 -1 53 11 12 92 0 108 -15z"/>
<path d="M2972 975 c-9 -7 -55 -15 -102 -19 -47 -3 -103 -8 -125 -11 -76 -10
-241 -7 -285 6 -54 15 -58 15 -91 1 -33 -13 -43 -55 -19 -77 22 -20 279 -29
385 -14 39 5 111 10 160 11 101 0 140 14 156 55 7 20 6 30 -5 42 -19 19 -51
21 -74 6z"/>
<path d="M3036 653 c-6 -6 -55 -16 -166 -34 -133 -21 -716 -12 -762 12 -26 14
-75 10 -92 -7 -20 -19 -21 -68 -2 -83 8 -7 71 -13 152 -16 77 -3 159 -8 184
-11 25 -3 72 -6 105 -6 100 1 425 18 490 26 101 12 144 19 173 29 27 9 32 16
32 44 0 38 -21 53 -74 51 -20 -1 -38 -3 -40 -5z"/>
</g>
</svg>
