<?xml version="1.0" standalone="no"?>
<!DOCTYPE svg PUBLIC "-//W3C//DTD SVG 20010904//EN"
 "http://www.w3.org/TR/2001/REC-SVG-20010904/DTD/svg10.dtd">
<svg version="1.0" xmlns="http://www.w3.org/2000/svg"
 width="513.000000pt" height="427.000000pt" viewBox="0 0 513.000000 427.000000"
 preserveAspectRatio="xMidYMid meet">
<metadata>
Created by potrace 1.16, written by Peter Selinger 2001-2019
</metadata>
<g transform="translate(0.000000,427.000000) scale(0.100000,-0.100000)"
fill="#000000" stroke="none">
<path d="M3865 4000 c-74 -16 -147 -65 -258 -174 -126 -125 -140 -143 -199
-266 -66 -136 -68 -144 -68 -252 -1 -88 26 -206 55 -238 8 -9 15 -20 15 -24 0
-10 42 -63 88 -113 l33 -36 -20 -51 c-10 -28 -30 -79 -43 -113 -27 -74 -29
-74 -160 -44 -46 10 -116 24 -155 31 -40 6 -75 16 -79 21 -7 13 -51 11 -59 -2
-4 -6 -14 -8 -22 -5 -10 4 -13 1 -8 -13 3 -11 1 -22 -5 -26 -5 -3 -26 -31 -46
-62 -19 -31 -49 -70 -65 -87 -17 -17 -39 -49 -51 -70 -11 -22 -25 -45 -32 -51
-10 -10 -34 -37 -165 -184 -17 -19 -31 -39 -31 -43 0 -5 -19 -28 -43 -51 -23
-24 -69 -76 -102 -117 -33 -41 -62 -77 -65 -80 -24 -24 -90 -111 -90 -118 0
-23 -35 -37 -85 -34 -104 7 -205 -74 -207 -166 -1 -30 36 -102 53 -102 20 0 7
-38 -21 -65 -16 -16 -30 -34 -30 -40 0 -6 -11 -17 -25 -26 -14 -8 -40 -36 -58
-61 -17 -26 -69 -93 -114 -149 -46 -56 -83 -106 -83 -111 0 -5 -5 -6 -10 -3
-6 3 -10 0 -10 -8 0 -7 -12 -24 -26 -38 -26 -25 -104 -136 -104 -148 0 -4 -11
-18 -25 -31 -14 -13 -25 -29 -25 -36 0 -6 -9 -22 -19 -35 -19 -23 -20 -23 -34
-5 -10 14 -11 26 -3 52 6 19 14 34 18 34 5 0 8 7 8 15 0 8 -4 15 -9 15 -6 0
-10 8 -11 17 -2 40 2 228 6 234 2 4 20 10 41 14 119 22 160 93 85 146 -20 15
-63 35 -95 45 -53 16 -58 20 -68 57 -11 43 -58 96 -100 114 -41 17 -114 26
-163 19 -33 -5 -54 -18 -90 -51 -25 -25 -44 -45 -40 -45 3 0 -4 -12 -15 -26
-13 -16 -21 -41 -21 -65 0 -61 -27 -96 -79 -104 -24 -4 -68 -17 -98 -30 -29
-13 -53 -21 -53 -17 0 4 -5 -1 -11 -10 -5 -10 -14 -18 -20 -18 -5 0 -19 -9
-31 -20 -12 -11 -29 -20 -37 -20 -19 0 -150 121 -179 166 -42 61 -65 30 -78
-101 -3 -38 -6 -72 -7 -75 -1 -6 14 -153 19 -190 1 -14 12 -50 24 -80 12 -30
22 -59 24 -65 1 -5 7 -19 12 -30 9 -16 5 -31 -20 -75 -29 -50 -36 -56 -81 -67
-51 -13 -104 -50 -139 -97 -15 -20 -21 -43 -21 -87 0 -54 3 -63 30 -88 71 -68
177 -99 243 -72 28 12 82 78 82 101 0 5 14 11 30 11 17 1 42 3 58 4 69 7 581
4 612 -3 19 -5 47 -4 62 1 23 7 31 4 56 -21 16 -16 41 -37 55 -47 32 -20 103
-23 145 -6 30 13 82 75 82 99 0 7 5 12 11 12 8 0 10 18 7 55 -5 63 -38 107
-92 125 -43 14 -84 96 -66 130 25 46 136 206 167 240 17 19 45 54 63 78 17 23
39 51 50 62 11 11 20 23 20 28 0 4 10 18 23 32 12 14 46 55 75 92 30 37 63 76
75 85 12 10 44 47 71 83 45 61 52 65 82 62 43 -5 96 13 124 43 22 24 39 81 45
155 1 19 3 40 4 47 0 7 31 50 69 96 37 46 78 100 92 120 14 20 31 37 38 37 6
0 12 6 12 14 0 7 12 26 27 42 15 16 43 47 61 69 19 22 58 67 87 100 68 75 130
155 175 222 48 73 62 72 36 -2 -8 -22 -24 -83 -35 -135 -52 -234 -71 -327 -75
-355 -7 -62 -18 -110 -28 -122 -6 -7 -8 -13 -4 -13 3 0 -3 -22 -13 -48 -11
-27 -21 -68 -24 -93 -4 -38 -37 -184 -67 -298 -10 -37 11 -101 34 -101 6 0 20
-19 30 -43 10 -23 29 -65 42 -93 13 -28 24 -56 24 -62 0 -7 4 -12 9 -12 8 0
15 -18 27 -65 5 -22 58 -125 99 -195 63 -105 70 -137 45 -191 -11 -24 -33 -66
-49 -94 -17 -27 -35 -60 -41 -73 -5 -13 -21 -38 -34 -55 -13 -18 -36 -54 -51
-80 -31 -56 -48 -80 -89 -120 -33 -32 -40 -59 -23 -99 15 -36 20 -37 97 -26
59 8 90 7 200 -8 42 -6 64 13 75 63 5 25 2 36 -15 53 -18 18 -31 21 -101 19
-44 -1 -82 0 -85 3 -7 7 17 58 28 58 4 0 8 4 8 9 0 5 19 40 42 77 23 38 58
100 77 137 106 203 109 215 70 282 -31 51 -62 108 -90 165 -13 25 -26 47 -29
50 -4 3 -17 33 -29 68 -12 35 -31 76 -42 92 -12 15 -18 33 -15 39 4 6 3 11 -2
11 -5 0 -14 12 -21 26 l-12 27 63 -7 c35 -4 68 -12 74 -17 6 -4 24 -7 41 -5
17 3 64 0 105 -6 40 -5 98 -11 128 -13 30 -2 73 -7 95 -12 22 -5 68 -8 102 -8
35 0 63 -3 63 -7 0 -5 6 -8 14 -8 9 0 13 -7 11 -20 -4 -21 9 -27 20 -10 12 19
66 9 150 -26 17 -6 57 -17 90 -24 33 -7 69 -17 80 -23 11 -6 27 -12 35 -12 27
-3 100 -37 100 -46 0 -5 7 -9 15 -9 10 0 15 -10 15 -33 0 -19 -3 -37 -7 -41
-10 -10 -60 -200 -73 -281 -4 -27 -11 -61 -14 -75 -3 -14 -9 -41 -12 -60 -3
-19 -9 -44 -14 -55 -24 -59 -40 -108 -40 -125 0 -11 -4 -20 -8 -20 -4 0 -9
-17 -10 -37 -2 -21 -5 -39 -7 -41 -2 -3 2 -17 10 -33 13 -24 18 -27 44 -19 16
4 84 6 152 3 200 -7 219 -1 232 77 6 32 4 36 -27 52 -25 12 -37 13 -45 5 -13
-13 -241 -18 -241 -5 0 5 6 21 14 37 16 30 66 229 66 261 0 30 29 171 40 195
44 97 62 270 30 285 -84 39 -118 52 -202 79 -54 17 -106 31 -116 31 -10 0 -34
8 -53 18 -19 10 -60 24 -91 31 l-55 13 9 47 c5 25 11 64 15 86 3 22 8 42 12
45 3 3 7 16 8 30 6 60 81 457 103 545 6 22 13 49 15 60 59 241 56 239 85 55 5
-30 14 -75 20 -100 6 -25 12 -67 13 -95 2 -27 6 -57 10 -65 3 -8 8 -28 10 -45
3 -25 12 -35 65 -62 35 -18 82 -39 105 -47 51 -17 97 -37 192 -82 39 -19 74
-34 78 -34 4 0 26 -12 50 -27 37 -24 53 -28 86 -24 13 1 39 71 34 91 -4 15
-67 49 -122 65 -14 4 -39 16 -55 26 -46 28 -96 49 -115 49 -9 0 -21 4 -26 9
-6 4 -32 17 -60 27 -118 43 -135 65 -151 194 -3 30 -13 82 -21 115 -8 33 -17
71 -20 85 -9 50 -65 255 -75 273 -5 10 -7 25 -4 32 11 30 -15 73 -52 88 -46
18 -190 53 -255 62 -47 6 -48 7 -45 41 1 19 6 34 10 34 4 0 8 7 8 16 0 8 10
38 22 65 19 46 23 50 47 44 46 -12 214 -6 271 10 78 23 169 70 221 117 107 95
141 134 170 191 31 64 52 103 78 147 9 14 17 36 18 50 2 14 8 44 13 67 15 63
14 222 -1 273 -22 76 -76 157 -140 210 -33 28 -64 50 -70 50 -5 0 -24 10 -40
23 -27 19 -44 22 -147 24 -65 1 -135 -2 -157 -7z m61 -89 c5 -5 47 -11 92 -14
64 -5 96 -12 134 -32 62 -32 112 -80 134 -126 8 -19 22 -47 31 -63 9 -17 15
-51 14 -85 -1 -78 -12 -184 -19 -196 -4 -5 -7 -14 -8 -20 -6 -31 -72 -157 -86
-163 -5 -2 -8 -9 -8 -15 0 -39 -185 -188 -275 -222 -71 -27 -281 -29 -296 -2
-6 9 -15 17 -22 17 -16 0 -77 61 -77 77 0 7 -4 13 -10 13 -5 0 -17 17 -26 38
-10 20 -23 44 -31 53 -21 25 -40 189 -25 214 4 6 8 19 9 29 2 10 19 52 38 93
19 41 35 77 35 79 0 3 18 31 39 62 56 82 175 193 251 236 67 37 89 43 106 27z
m-751 -1306 c39 -9 90 -18 113 -21 24 -3 55 -9 68 -14 13 -5 52 -12 86 -15 35
-4 88 -11 118 -16 30 -6 75 -12 100 -15 58 -7 110 -23 135 -42 20 -15 20 -16
1 -96 -10 -45 -25 -101 -33 -126 -20 -64 -42 -152 -57 -234 -8 -39 -25 -121
-40 -181 -14 -61 -32 -147 -41 -190 -8 -44 -24 -127 -36 -185 -11 -58 -24
-124 -28 -148 -4 -23 -10 -44 -12 -47 -8 -7 -115 -9 -127 -1 -11 7 -174 24
-293 31 -36 2 -78 9 -95 15 -16 7 -42 13 -59 15 -38 3 -148 34 -156 43 -9 9
14 152 34 217 8 28 18 70 22 95 4 25 17 77 30 115 13 39 31 115 40 170 9 55
22 114 29 130 8 17 16 56 20 89 4 32 11 66 16 76 6 10 10 30 10 44 0 14 7 43
15 63 8 21 19 74 24 118 5 44 14 81 20 83 6 2 11 12 11 23 0 23 -3 23 85 4z
m-949 -935 c3 -49 -52 -82 -92 -55 -49 32 -12 87 56 82 30 -2 35 -6 36 -27z
m-939 -232 c34 -16 78 -56 70 -64 -3 -4 0 -13 8 -20 8 -8 12 -21 8 -29 -8 -23
14 -43 55 -50 20 -3 48 -13 62 -20 24 -14 24 -14 3 -15 -12 0 -25 -5 -28 -10
-4 -7 -13 -6 -27 1 -15 8 -27 8 -45 -2 -22 -12 -24 -17 -18 -59 13 -90 15
-324 4 -352 -6 -16 -14 -28 -18 -28 -3 0 -24 -16 -46 -36 -61 -54 -131 -81
-247 -97 -85 -12 -115 -12 -173 -2 -124 23 -174 34 -192 43 -10 5 -36 18 -58
30 -41 20 -89 93 -80 120 2 6 -1 12 -7 12 -7 0 -6 5 2 15 11 13 10 14 -5 9
-15 -6 -17 -3 -11 19 3 15 3 27 -2 27 -15 0 -31 70 -37 154 -5 73 -4 77 12 65
36 -28 103 -99 103 -109 0 -31 102 -16 114 17 4 8 13 13 21 10 8 -4 16 2 20
13 7 23 74 59 115 62 17 1 30 5 30 9 0 4 30 7 68 7 104 0 102 -1 115 35 6 17
10 35 9 40 -1 4 4 7 11 7 7 0 4 7 -7 15 -11 8 -17 15 -14 15 3 0 2 19 -4 42
-11 52 1 85 45 116 36 25 100 29 144 10z m121 -765 c35 -23 62 -46 62 -53 0
-3 -18 -16 -40 -30 -22 -14 -40 -28 -40 -33 0 -4 -19 -7 -42 -7 -24 1 -77 -1
-118 -4 -41 -2 -199 -7 -350 -10 -151 -4 -283 -9 -292 -12 -11 -3 -25 7 -42
33 -32 47 -32 48 0 78 18 17 31 22 38 16 20 -17 200 -72 256 -79 190 -23 367
6 470 78 30 21 59 38 63 39 4 1 20 -7 35 -16z"/>
<path d="M1191 1349 c-21 -8 -22 -13 -16 -47 7 -40 19 -52 52 -52 14 0 27 11
37 32 15 30 15 33 -6 55 -23 25 -31 27 -67 12z"/>
</g>
</svg>
