<?xml version="1.0" standalone="no"?>
<!DOCTYPE svg PUBLIC "-//W3C//DTD SVG 20010904//EN"
 "http://www.w3.org/TR/2001/REC-SVG-20010904/DTD/svg10.dtd">
<svg version="1.0" xmlns="http://www.w3.org/2000/svg"
 width="495.000000pt" height="433.000000pt" viewBox="0 0 495.000000 433.000000"
 preserveAspectRatio="xMidYMid meet">
<metadata>
Created by potrace 1.16, written by Peter Selinger 2001-2019
</metadata>
<g transform="translate(0.000000,433.000000) scale(0.100000,-0.100000)"
fill="#000000" stroke="none">
<path d="M3347 3964 c-5 -6 -147 -32 -212 -40 -22 -2 -78 -23 -125 -45 -47
-23 -94 -44 -105 -49 -58 -22 -105 -46 -105 -53 0 -5 -6 -15 -14 -23 -18 -18
-9 -52 15 -59 10 -4 19 -10 19 -15 0 -10 -59 -42 -99 -55 -14 -4 -35 -18 -49
-30 -27 -26 -24 -53 10 -85 29 -27 19 -42 -43 -64 -56 -20 -99 -58 -99 -88 0
-9 11 -25 25 -36 31 -25 31 -28 -2 -37 -15 -3 -38 -15 -52 -24 -14 -10 -35
-20 -45 -22 -40 -8 -39 -119 1 -119 8 0 11 -5 8 -11 -4 -6 -13 -8 -20 -6 -18
8 -114 -51 -126 -76 -12 -26 3 -74 25 -83 11 -4 9 -11 -10 -31 -39 -42 -31
-60 56 -136 23 -21 31 -35 27 -50 -3 -12 -11 -44 -17 -72 -18 -75 -48 -95
-225 -145 -60 -17 -137 -43 -170 -57 -33 -14 -85 -35 -117 -47 -31 -12 -65
-28 -75 -37 -29 -25 -125 -69 -150 -69 -13 0 -23 -4 -23 -8 0 -5 -12 -20 -28
-34 -75 -70 -140 -126 -164 -141 -15 -9 -35 -33 -44 -53 -9 -20 -23 -38 -30
-41 -7 -2 -18 -19 -25 -36 -7 -18 -15 -34 -18 -37 -14 -12 -51 -70 -51 -80 0
-5 -4 -10 -10 -10 -5 0 -10 -7 -10 -16 0 -14 -32 -68 -50 -84 -3 -3 -12 -18
-20 -35 -8 -16 -29 -50 -47 -74 -18 -24 -33 -50 -33 -56 0 -7 -18 -37 -40 -66
-22 -30 -40 -59 -40 -66 0 -7 -3 -13 -7 -13 -5 0 -16 -18 -26 -39 -11 -21 -42
-58 -69 -82 -28 -24 -62 -56 -76 -71 -14 -16 -29 -28 -34 -28 -8 0 -60 -38
-143 -102 -24 -19 -116 -70 -213 -118 -34 -17 -69 -38 -77 -46 -8 -8 -27 -17
-42 -19 -43 -5 -84 -17 -112 -31 -14 -8 -33 -14 -41 -14 -48 -1 -67 -67 -28
-94 24 -17 60 -21 72 -9 4 5 11 8 14 9 22 3 69 18 80 27 6 5 12 6 12 1 0 -5 6
-2 13 6 7 8 18 16 26 18 19 4 68 29 191 97 58 32 122 67 143 78 21 11 41 26
44 34 3 8 27 26 53 41 40 23 79 55 173 140 20 18 146 198 147 209 0 7 6 16 13
20 13 8 60 82 87 138 8 17 27 49 42 72 15 23 28 45 28 50 1 4 14 24 30 43 17
19 30 41 30 48 0 8 13 31 28 51 16 20 37 51 48 70 31 57 55 82 173 184 31 27
65 56 76 66 27 23 290 150 326 158 16 3 32 10 35 14 3 5 13 9 23 9 10 0 32 7
47 15 16 8 37 15 47 15 9 0 25 4 35 9 9 5 42 14 72 21 30 7 66 17 80 23 14 6
28 10 31 9 4 -1 15 8 24 18 10 11 23 20 29 20 13 0 48 56 53 85 9 51 16 115
17 162 1 46 -3 56 -26 78 -30 28 -37 51 -13 41 8 -3 15 -1 15 4 0 6 6 10 14
10 15 0 48 59 39 73 -2 4 -22 15 -44 24 -21 8 -39 19 -39 23 0 4 21 12 48 18
58 12 113 33 130 49 6 6 12 26 12 43 0 26 -6 33 -35 46 -54 22 -44 38 32 50
19 3 49 12 68 20 30 12 35 19 35 48 0 25 -5 36 -19 41 -10 3 -26 14 -36 25
-16 18 -16 19 16 33 19 7 56 19 82 26 106 26 129 74 54 110 -24 12 -50 21 -57
21 -34 0 19 31 85 50 69 20 85 31 85 61 0 21 -25 70 -41 79 -8 5 -4 10 12 15
13 4 58 23 99 42 41 19 95 39 120 44 25 4 69 14 98 21 38 9 55 9 63 1 8 -8 18
-8 34 -1 27 12 134 -17 142 -39 3 -7 10 -13 17 -13 6 0 23 -8 36 -17 14 -10
31 -18 38 -20 8 -1 21 -8 30 -16 23 -18 116 -57 139 -57 11 0 24 -5 30 -11 5
-5 23 -10 39 -9 170 8 292 0 304 -20 6 -9 9 -9 15 0 4 7 17 9 34 5 14 -4 37
-9 51 -11 13 -1 30 -10 36 -19 6 -9 16 -15 20 -14 30 5 53 -34 51 -86 -2 -26
-7 -31 -57 -47 -30 -10 -73 -17 -95 -16 -22 0 -47 -2 -55 -5 -19 -6 -135 -30
-135 -27 0 1 -23 -7 -51 -19 -29 -11 -53 -18 -56 -16 -2 2 -23 -7 -48 -21 -25
-13 -61 -32 -80 -41 -45 -23 -56 -37 -76 -97 -16 -46 -16 -51 1 -80 32 -56 59
-75 185 -129 73 -31 254 -43 323 -21 11 3 29 8 40 10 12 2 43 7 69 12 52 10
61 3 47 -35 -10 -28 -40 -63 -54 -63 -6 0 -31 -15 -55 -32 -25 -18 -46 -32
-48 -30 -1 2 -22 -5 -45 -16 -70 -33 -129 -52 -177 -57 -58 -5 -153 -31 -190
-50 -17 -9 -33 -16 -37 -18 -10 -2 -72 -96 -108 -159 -8 -15 -20 -73 -26 -130
-6 -59 -21 -133 -35 -173 -40 -111 -117 -277 -131 -282 -7 -3 -13 -10 -13 -17
0 -12 -19 -34 -122 -146 -38 -39 -68 -78 -68 -86 0 -38 -150 68 -186 131 -7
13 -23 20 -48 21 -31 2 -37 -2 -42 -22 -13 -52 40 -122 152 -199 36 -25 89
-47 166 -69 63 -18 133 -45 156 -60 23 -14 48 -26 56 -26 19 0 69 -22 77 -33
3 -5 8 -8 10 -6 9 5 49 -13 49 -22 0 -6 5 -7 11 -4 5 4 19 -1 30 -11 10 -9 19
-13 19 -9 0 4 9 -2 20 -15 11 -13 20 -33 20 -46 0 -30 -63 -82 -110 -90 -19
-4 -38 -12 -42 -17 -11 -18 -157 -16 -233 3 -94 24 -106 29 -195 68 -25 11
-65 26 -90 33 -25 6 -52 20 -62 30 -9 11 -23 19 -30 19 -8 0 -24 10 -35 23
-12 12 -33 33 -47 46 -14 13 -26 30 -26 38 0 23 -31 42 -68 43 -48 0 -72 -16
-72 -48 0 -33 7 -43 42 -61 16 -8 26 -16 24 -19 -3 -2 21 -29 53 -59 55 -52
58 -56 51 -91 -10 -54 -63 -148 -122 -215 -29 -32 -58 -67 -66 -78 -7 -10 -19
-19 -25 -19 -7 0 -18 -9 -25 -20 -7 -11 -16 -20 -22 -20 -5 0 -22 -12 -37 -26
-39 -37 -65 -53 -91 -57 -12 -2 -25 -6 -28 -10 -4 -4 -16 -7 -27 -7 -14 0 -17
4 -12 17 13 32 25 77 31 113 3 19 10 37 15 38 5 2 6 8 3 14 -8 12 -8 158 0
195 23 114 19 133 -30 133 -28 0 -36 -5 -46 -28 -11 -29 -24 -148 -38 -354 -1
-10 -5 -20 -11 -23 -5 -4 -9 -15 -9 -25 0 -43 -56 -146 -105 -193 -63 -61
-135 -97 -235 -118 -8 -2 -22 -6 -85 -24 -33 -10 -76 -19 -95 -22 -19 -2 -44
-8 -55 -13 -11 -5 -33 -11 -50 -15 -52 -11 -150 -65 -184 -100 -17 -19 -39
-51 -47 -72 -9 -21 -24 -56 -34 -78 -10 -22 -23 -57 -29 -77 -7 -21 -17 -40
-22 -43 -15 -10 -10 -49 11 -73 31 -37 89 -12 97 41 2 12 8 26 13 31 6 6 10
20 10 33 0 20 36 109 50 123 3 3 11 17 19 32 13 25 107 85 118 75 2 -3 24 1
49 9 24 7 44 11 44 9 0 -3 16 4 35 15 47 27 51 26 52 -13 1 -54 15 -127 24
-127 5 0 9 -7 9 -16 0 -24 49 -101 93 -146 20 -21 37 -43 37 -48 0 -5 14 -16
32 -24 28 -15 34 -15 55 -1 17 11 23 25 23 50 0 19 -4 35 -10 35 -5 0 -10 5
-10 11 0 6 -21 32 -46 58 -25 25 -52 58 -60 74 -8 15 -18 27 -23 27 -4 0 -8
13 -8 29 0 41 -23 91 -42 92 -10 0 -11 2 -3 6 6 2 12 11 12 19 0 9 4 13 8 10
5 -3 23 4 42 15 18 11 41 18 52 16 10 -3 21 -1 24 4 3 5 12 9 21 9 28 0 143
61 143 76 0 8 4 14 9 14 5 0 31 22 58 49 42 42 55 49 96 52 26 2 47 3 47 1 0
-2 -7 -16 -15 -32 -9 -17 -15 -32 -15 -35 -1 -3 -2 -10 -5 -17 -23 -68 -32
-219 -15 -262 5 -14 14 -65 21 -113 6 -48 18 -99 27 -113 10 -14 22 -38 28
-54 12 -35 61 -57 75 -35 5 8 9 10 9 5 0 -6 7 -1 15 10 17 22 20 74 5 74 -18
0 -37 54 -51 144 -5 33 -14 78 -20 100 -15 52 -14 175 0 189 6 6 11 19 11 29
0 9 11 43 25 74 14 31 25 66 25 77 0 22 43 67 66 67 7 0 14 5 14 10 0 6 5 10
11 10 13 0 139 124 139 137 0 4 16 26 35 48 19 22 35 45 35 52 0 6 4 13 8 15
7 3 62 112 62 124 0 3 8 14 18 24 16 17 23 19 50 9 18 -6 32 -14 32 -18 0 -4
7 -8 15 -8 23 0 95 -25 95 -33 0 -4 12 -10 28 -13 48 -11 147 -35 147 -37 0
-3 64 -9 130 -12 47 -2 75 4 130 26 152 62 164 71 189 130 24 58 17 200 -9
190 -7 -3 -19 3 -26 14 -8 11 -18 21 -24 22 -5 1 -20 7 -33 13 -38 17 -5 27
93 26 123 -1 232 26 265 65 7 9 17 16 22 16 35 0 122 180 98 204 -4 4 -6 14
-3 22 3 7 -1 29 -7 49 -14 43 -69 81 -126 89 -65 9 -323 9 -413 1 -50 -5 -82
-4 -80 1 3 5 13 27 23 49 21 46 23 49 65 165 38 107 54 181 49 228 -3 25 2 50
17 77 40 74 70 113 95 125 14 7 36 18 50 24 14 7 40 12 58 12 17 -1 32 2 32 6
0 4 15 6 33 5 17 -2 46 2 62 9 17 7 35 13 40 14 6 1 24 7 40 14 17 7 47 19 68
26 20 8 37 18 37 22 0 4 7 8 15 8 9 0 33 11 55 25 22 14 43 25 47 25 5 0 19
16 32 35 13 19 27 35 32 35 5 0 9 9 9 20 0 11 5 20 10 20 6 0 10 32 10 75 0
44 -4 75 -10 75 -17 0 -68 62 -95 114 -14 28 -25 44 -25 37 0 -7 -4 -10 -9 -6
-5 3 -35 -28 -66 -70 -31 -41 -60 -75 -64 -75 -14 0 -61 63 -61 81 0 15 6 17
35 12 43 -7 65 9 65 48 0 16 5 29 10 29 6 0 10 6 10 14 0 23 20 29 38 13 50
-42 85 -21 107 64 8 30 19 55 25 57 5 2 10 12 10 23 0 10 4 19 9 19 5 0 13 17
18 39 19 72 -33 174 -105 208 -20 9 -40 21 -43 25 -3 5 -37 11 -75 14 -38 3
-87 10 -109 16 -21 5 -95 9 -164 9 -144 -1 -183 7 -270 57 -35 20 -72 42 -83
49 -12 6 -23 15 -27 21 -11 17 -103 52 -138 52 -19 0 -42 4 -52 10 -10 5 -21
7 -24 4z m843 -611 c0 -5 -11 -25 -23 -46 -25 -42 -40 -37 -49 15 -4 24 -2 27
26 31 17 2 34 5 39 5 4 1 7 -1 7 -5z m-190 -42 c0 -3 -7 -14 -14 -23 -11 -15
-16 -16 -31 -4 -10 7 -15 18 -12 23 7 11 57 15 57 4z m-96 -81 c20 -22 36 -48
36 -57 0 -25 29 -53 48 -46 23 9 32 23 32 56 0 27 25 87 36 87 2 0 9 -12 15
-27 8 -21 7 -30 -4 -38 -8 -6 -27 -34 -42 -63 -27 -51 -29 -53 -63 -47 -19 3
-72 23 -118 45 -105 50 -111 78 -25 117 40 18 46 16 85 -27z m160 -1340 c38
-44 21 -115 -41 -170 -45 -39 -107 -61 -173 -60 -183 2 -265 -1 -275 -11 -3
-4 -22 -3 -42 2 -20 4 -44 4 -53 -1 -9 -5 -22 -5 -31 0 -7 5 -38 17 -66 26
-29 9 -53 20 -53 25 0 4 28 37 63 72 34 36 71 77 82 91 18 23 30 27 95 31 40
3 76 8 79 11 3 3 95 4 204 3 162 -3 200 -6 211 -19z"/>
<path d="M3052 3660 c-6 -11 -12 -26 -12 -34 0 -8 -21 -45 -46 -83 -25 -37
-62 -102 -81 -143 -20 -41 -41 -78 -47 -82 -6 -4 -7 -8 -2 -8 6 0 5 -5 -2 -12
-7 -7 -12 -22 -12 -34 0 -13 -4 -25 -9 -29 -12 -7 -66 -117 -63 -128 1 -4 -11
-31 -26 -61 -16 -29 -32 -64 -36 -77 -5 -13 -10 -28 -12 -34 -1 -5 -10 -39
-19 -74 -8 -35 -19 -69 -22 -75 -20 -31 -3 -86 26 -86 23 0 30 10 37 48 3 15
11 39 19 54 7 15 9 30 5 33 -5 3 -5 16 0 29 5 13 6 27 3 30 -3 3 -1 11 5 19 6
7 13 24 16 39 5 30 22 66 43 89 7 9 15 30 17 46 2 17 30 81 61 144 32 63 72
142 89 177 17 34 42 75 54 90 13 15 31 41 39 57 9 17 19 32 23 35 4 3 10 17
14 32 5 21 1 30 -16 42 -29 20 -31 20 -46 -4z"/>
<path d="M3443 3671 c-29 -8 -93 -66 -93 -84 0 -8 -7 -17 -15 -21 -26 -9 7
-96 36 -96 4 0 20 -5 36 -12 15 -6 33 -10 38 -9 6 2 26 4 45 6 76 7 95 18 98
59 4 44 -11 66 -38 59 -17 -5 -18 -2 -11 24 14 50 -38 91 -96 74z m52 -101
c19 -8 19 -8 -5 -17 -34 -14 -64 -5 -49 13 13 16 25 16 54 4z"/>
<path d="M1248 1207 c-7 -8 -29 -33 -48 -57 -19 -24 -59 -72 -87 -107 -46 -57
-61 -81 -87 -143 -31 -74 -115 -215 -128 -215 -8 0 -22 -6 -29 -12 -8 -6 -50
-21 -94 -33 -44 -12 -102 -28 -130 -36 -90 -26 -178 -37 -273 -36 -80 1 -96
-2 -112 -18 -25 -25 -25 -41 -1 -67 16 -16 33 -20 96 -22 42 -1 102 3 133 9
117 24 278 63 317 76 51 18 79 18 69 2 -5 -7 -9 -19 -10 -28 -1 -8 -5 -44 -9
-80 -3 -36 -9 -76 -11 -90 -13 -70 -23 -226 -17 -249 2 -10 20 -23 40 -30 32
-12 36 -11 51 11 9 12 17 26 18 31 1 4 2 8 3 10 7 8 10 54 5 67 -7 15 -6 139
1 190 2 14 8 60 14 103 6 46 21 98 35 125 14 26 30 65 37 87 7 22 23 57 36 79
14 21 34 59 44 84 11 26 24 49 28 52 4 3 20 27 35 54 16 27 57 77 92 111 62
61 76 91 56 121 -12 19 -59 25 -74 11z"/>
</g>
</svg>
