<?xml version="1.0" standalone="no"?>
<!DOCTYPE svg PUBLIC "-//W3C//DTD SVG 20010904//EN"
 "http://www.w3.org/TR/2001/REC-SVG-20010904/DTD/svg10.dtd">
<svg version="1.0" xmlns="http://www.w3.org/2000/svg"
 width="487.000000pt" height="407.000000pt" viewBox="0 0 487.000000 407.000000"
 preserveAspectRatio="xMidYMid meet">
<metadata>
Created by potrace 1.16, written by Peter Selinger 2001-2019
</metadata>
<g transform="translate(0.000000,407.000000) scale(0.100000,-0.100000)"
fill="#000000" stroke="none">
<path d="M3005 3844 c-38 -7 -88 -13 -110 -14 -22 0 -59 -7 -82 -15 -22 -8
-71 -14 -107 -14 -36 1 -70 -2 -76 -6 -10 -6 -92 -18 -315 -45 -44 -5 -154
-21 -245 -35 -91 -14 -228 -34 -305 -45 -77 -10 -164 -24 -194 -30 -29 -5 -89
-12 -134 -16 -44 -3 -84 -7 -87 -9 -7 -4 -117 -17 -170 -20 -19 -1 -45 -7 -57
-13 -12 -7 -44 -11 -70 -9 -26 2 -58 0 -71 -4 -31 -12 -66 -18 -142 -25 -70
-7 -105 -26 -115 -61 -3 -13 -10 -23 -16 -23 -16 0 -95 -83 -103 -108 -4 -12
-13 -28 -19 -34 -30 -32 -69 -146 -91 -267 -23 -123 -21 -148 13 -181 17 -15
41 -51 54 -81 34 -75 84 -184 112 -244 65 -138 105 -226 105 -231 0 -3 11 -29
23 -57 13 -29 30 -67 38 -84 8 -18 17 -33 21 -33 5 0 8 -7 8 -15 0 -8 4 -23 9
-33 20 -40 91 -192 116 -247 15 -33 54 -113 86 -177 33 -64 59 -122 59 -129 0
-14 24 -68 82 -182 21 -43 48 -102 59 -130 31 -81 83 -187 92 -187 4 0 7 -7 7
-15 0 -9 24 -66 54 -128 30 -62 63 -135 74 -162 11 -28 40 -88 64 -135 40 -77
50 -87 99 -114 41 -22 68 -29 109 -29 97 0 175 5 185 13 6 4 48 11 95 15 47 3
119 13 160 20 77 14 130 21 235 30 33 3 67 8 75 10 26 7 144 18 175 17 17 -1
66 5 110 13 84 15 302 44 535 71 25 3 56 7 70 10 14 3 86 11 160 19 74 8 146
17 160 20 40 8 192 18 236 17 35 -2 44 3 69 34 27 34 40 74 24 74 -10 0 1 187
15 242 15 61 75 163 105 180 30 16 66 95 51 113 -5 6 -7 15 -4 18 4 3 -5 9
-19 12 -17 5 -32 21 -46 51 -51 106 -62 133 -84 194 -26 69 -91 235 -112 285
-7 17 -16 41 -20 55 -9 28 -35 91 -70 165 -25 52 -85 207 -85 218 0 4 -11 31
-25 61 -14 30 -25 59 -25 64 0 5 -21 60 -46 123 -125 307 -194 486 -194 500 0
11 -13 42 -60 144 -39 85 -99 239 -122 315 -17 57 -31 93 -59 151 -4 9 -13 35
-19 58 -6 23 -19 45 -28 49 -9 3 -26 14 -36 24 -23 21 -78 22 -181 2z m135
-119 c0 -9 9 -33 20 -55 11 -22 22 -47 23 -57 2 -10 9 -31 16 -48 6 -16 16
-43 22 -60 6 -16 18 -44 25 -62 8 -17 14 -38 14 -46 0 -7 10 -34 23 -58 24
-47 49 -114 52 -139 4 -31 17 -70 41 -116 13 -26 24 -57 24 -70 0 -22 45 -150
59 -169 12 -15 64 -137 106 -245 67 -174 86 -219 138 -325 29 -61 75 -179 81
-210 1 -5 14 -34 29 -63 15 -29 47 -106 73 -170 25 -64 64 -162 86 -217 39
-96 78 -197 78 -202 0 -3 -108 -17 -210 -28 -25 -3 -70 -9 -100 -15 -30 -5
-91 -12 -135 -15 -44 -4 -96 -10 -115 -15 -31 -7 -98 -17 -180 -25 -53 -6
-208 -26 -275 -36 -38 -6 -83 -13 -100 -15 -16 -2 -43 -6 -60 -9 -16 -3 -70
-7 -120 -10 -49 -3 -115 -10 -145 -15 -30 -6 -80 -13 -110 -16 -80 -7 -301
-35 -387 -49 -29 -5 -43 -3 -43 4 0 7 -16 44 -35 84 -19 39 -35 77 -35 83 0 6
-8 22 -18 35 -10 13 -31 53 -46 89 -27 62 -107 232 -129 275 -6 11 -35 65 -64
120 -30 55 -60 118 -68 140 -16 48 -47 118 -56 125 -4 3 -9 15 -13 27 -4 13
-13 29 -19 35 -7 7 -23 40 -36 73 -13 33 -40 89 -60 125 -20 36 -43 81 -51
100 -7 19 -24 52 -37 72 -13 21 -23 44 -23 52 0 8 -5 18 -11 21 -6 4 -35 59
-65 123 -31 63 -66 131 -80 151 -13 19 -24 46 -24 58 0 12 -11 34 -24 50 -13
15 -27 39 -31 53 -4 14 -21 54 -38 90 -36 78 -67 149 -66 153 0 1 -2 9 -5 17
-50 142 -52 135 42 149 42 6 103 13 135 16 31 3 70 7 85 9 15 2 46 7 69 11 23
4 57 8 75 10 88 9 202 25 283 39 50 9 140 22 200 31 61 8 124 17 140 19 17 3
66 10 110 16 44 6 103 15 132 19 28 4 61 7 72 6 12 -1 21 2 21 7 0 4 8 7 18 5
9 -1 60 4 112 10 52 7 127 15 165 17 39 3 81 7 95 10 24 5 51 9 155 22 28 3
68 10 90 14 69 14 105 12 105 -5z m-2211 -352 c7 -21 21 -56 31 -78 51 -114
60 -137 55 -145 -4 -6 -3 -10 2 -10 4 0 14 -15 21 -32 14 -34 54 -119 92 -198
23 -47 32 -63 67 -119 12 -19 20 -38 17 -43 -3 -4 4 -20 15 -34 12 -15 21 -35
21 -45 0 -10 6 -22 13 -26 15 -10 26 -28 82 -137 25 -48 45 -94 45 -102 0 -8
3 -14 8 -14 4 0 18 -25 31 -55 14 -30 28 -55 32 -55 5 0 11 -16 15 -35 3 -20
11 -41 18 -48 18 -20 92 -169 107 -217 7 -25 30 -76 50 -115 91 -176 161 -316
194 -390 20 -44 40 -87 45 -95 16 -25 57 -113 65 -140 4 -14 13 -38 19 -55 30
-73 35 -95 20 -95 -14 0 -36 -16 -109 -82 -45 -41 -125 -168 -150 -238 -8 -24
-20 -49 -26 -57 -7 -7 -9 -27 -5 -48 11 -59 -11 -40 -49 43 -20 42 -50 106
-67 142 -16 36 -41 88 -55 117 -14 29 -24 53 -22 55 1 2 -9 21 -23 43 -28 45
-91 176 -103 215 -4 14 -11 30 -15 35 -4 6 -15 35 -25 65 -10 30 -21 57 -24
60 -3 3 -13 21 -23 40 -86 182 -111 237 -111 248 0 6 -3 12 -7 12 -4 0 -17 24
-30 53 -12 28 -51 111 -85 182 -85 178 -135 285 -135 289 0 4 -61 134 -141
303 -21 45 -39 85 -39 88 0 7 -76 167 -112 237 -10 21 -18 39 -18 40 1 2 -3
15 -9 31 -14 35 20 141 76 241 47 85 170 201 218 205 6 1 17 -16 24 -36z
m3074 -2104 c-7 -7 -22 -13 -35 -14 -13 -2 -41 -8 -63 -13 -53 -14 -106 -21
-190 -26 -39 -3 -91 -10 -117 -16 -27 -7 -60 -10 -75 -7 -15 3 -47 -1 -72 -9
-25 -7 -54 -11 -63 -8 -10 3 -55 -4 -100 -14 -46 -11 -103 -23 -128 -27 -25
-3 -74 -15 -110 -26 -36 -11 -81 -19 -100 -18 -19 2 -57 -5 -85 -14 -27 -9
-79 -18 -115 -20 -36 -3 -82 -12 -104 -21 -38 -16 -93 -21 -349 -31 -70 -3
-131 -6 -135 -7 -4 -1 -18 3 -32 9 -20 8 -9 12 70 21 52 7 121 13 153 14 31 2
57 6 57 9 0 4 10 7 23 7 19 0 71 6 237 26 19 3 35 5 35 6 0 1 20 3 45 5 68 4
138 15 208 32 34 8 69 12 77 9 8 -3 17 -1 20 5 4 5 9 7 13 5 4 -2 41 2 82 10
41 8 91 16 110 19 19 3 46 8 60 11 31 7 50 10 181 24 57 6 118 15 135 21 17 5
44 10 60 10 40 0 86 5 104 13 20 8 125 23 175 25 29 1 36 -2 28 -10z m-3 -97
c0 -4 -6 -16 -13 -26 -11 -15 -32 -20 -113 -24 -54 -2 -108 -9 -118 -14 -10
-6 -59 -12 -108 -14 -49 -2 -99 -9 -110 -15 -12 -7 -42 -13 -67 -15 -68 -5
-118 -13 -196 -29 -125 -25 -199 -36 -270 -40 -67 -3 -109 -8 -185 -21 -31 -5
-38 6 -7 12 7 2 37 9 67 17 30 8 78 17 105 21 50 6 90 13 90 16 0 2 13 4 115
21 41 6 84 17 95 22 19 10 116 23 245 32 30 3 71 7 90 11 19 4 60 8 90 10 63
5 161 20 204 32 42 12 86 14 86 4z m-149 -134 c0 -10 2 -10 6 0 2 6 14 12 26
12 21 0 21 0 -1 -16 -13 -9 -57 -20 -99 -25 -41 -6 -101 -18 -132 -29 -54 -18
-76 -22 -226 -35 -38 -4 -88 -13 -111 -20 -22 -7 -80 -16 -130 -19 -49 -4
-114 -9 -144 -12 -30 -2 -102 -7 -160 -9 -58 -3 -125 -7 -150 -10 -44 -5 -242
-23 -310 -29 -19 -2 -51 -6 -70 -9 -58 -10 -237 -16 -215 -7 11 5 39 9 63 9
24 1 53 7 65 13 21 12 131 23 332 32 50 2 104 7 120 11 35 7 168 22 315 35
183 17 264 29 314 44 27 9 73 16 102 16 29 0 75 7 101 16 27 9 77 16 117 15
39 0 94 6 121 13 64 18 65 18 66 4z m-1861 -78 c-10 -36 -42 -90 -52 -90 -4 0
-7 -3 -6 -7 3 -14 -14 -73 -21 -73 -8 0 -51 -81 -51 -96 0 -5 -9 -17 -20 -27
-11 -9 -20 -23 -20 -31 0 -7 -7 -19 -15 -26 -13 -11 -15 -8 -15 18 0 49 49
188 81 228 16 20 29 41 29 46 0 14 73 88 87 88 8 0 9 -9 3 -30z m750 10 c-33
-11 -89 -12 -73 -2 7 5 32 9 55 9 35 1 39 0 18 -7z m1210 -16 c0 -11 -5 -14
-16 -10 -9 3 -20 6 -25 6 -6 0 -7 5 -4 10 10 16 45 12 45 -6z m-1685 -24 c7
-11 2 -12 -75 -16 -30 -1 -68 -9 -85 -18 -34 -18 -55 -20 -55 -6 0 15 36 30
86 35 26 3 48 6 50 7 8 8 74 6 79 -2z m1185 -61 c-25 -4 -67 -14 -95 -22 -61
-17 -181 -32 -147 -17 12 5 39 10 59 12 20 1 60 10 87 20 28 9 71 17 96 16
l45 -1 -45 -8z m470 -8 c32 -3 -15 -21 -56 -21 -23 0 -54 -5 -71 -10 -16 -6
-56 -12 -89 -14 -32 -2 -138 -17 -234 -34 -315 -55 -500 -76 -459 -52 24 14
97 25 229 35 80 6 146 16 270 43 198 42 260 53 267 49 4 -2 17 -1 28 3 17 6
55 7 115 1z m-800 -41 c-36 -5 -81 -13 -100 -18 -19 -6 -62 -13 -95 -16 -33
-3 -89 -10 -125 -16 -36 -6 -78 -11 -95 -11 -32 0 -239 -18 -265 -23 -60 -11
-121 -17 -225 -20 -66 -2 -151 -7 -190 -10 -90 -8 -65 4 80 39 11 3 70 8 130
11 61 3 124 10 141 15 17 5 84 12 150 14 65 3 147 10 181 15 34 6 111 11 170
11 59 0 124 4 143 9 19 4 64 8 100 8 l65 -1 -65 -7z m-130 -99 c0 -5 -26 -13
-57 -16 -83 -10 -105 -13 -133 -19 -13 -3 -72 -8 -130 -11 -58 -4 -125 -10
-150 -15 -95 -18 -122 -21 -116 -12 3 5 23 13 43 17 21 5 45 10 53 12 8 2 51
5 95 7 44 3 118 10 165 16 47 5 110 13 140 16 30 4 57 8 59 10 9 8 31 4 31 -5z
m-655 -71 c30 -2 30 -2 5 -9 -14 -5 -54 -11 -90 -14 -36 -4 -96 -11 -135 -17
-95 -14 -221 -24 -215 -17 13 13 191 48 246 48 33 0 74 3 90 8 16 4 38 7 49 6
11 -2 34 -3 50 -5z"/>
</g>
</svg>
