<?xml version="1.0" standalone="no"?>
<!DOCTYPE svg PUBLIC "-//W3C//DTD SVG 20010904//EN"
 "http://www.w3.org/TR/2001/REC-SVG-20010904/DTD/svg10.dtd">
<svg version="1.0" xmlns="http://www.w3.org/2000/svg"
 width="551.000000pt" height="439.000000pt" viewBox="0 0 551.000000 439.000000"
 preserveAspectRatio="xMidYMid meet">
<metadata>
Created by potrace 1.16, written by Peter Selinger 2001-2019
</metadata>
<g transform="translate(0.000000,439.000000) scale(0.100000,-0.100000)"
fill="#000000" stroke="none">
<path d="M2675 4312 c-68 -8 -147 -42 -184 -79 -75 -76 -133 -170 -144 -233
-4 -19 -10 -53 -14 -75 -9 -48 -9 -123 -1 -186 7 -44 42 -144 58 -164 5 -6
-11 -24 -38 -45 -65 -49 -175 -161 -203 -207 -28 -46 -39 -54 -61 -47 -45 14
-170 20 -238 12 -124 -15 -239 -85 -255 -156 -3 -18 -11 -34 -16 -37 -5 -4 -9
-33 -9 -66 0 -48 7 -75 35 -135 20 -42 50 -89 68 -105 44 -41 133 -83 174 -82
52 2 199 53 242 85 27 20 41 16 41 -13 0 -10 5 -19 10 -19 6 0 16 -11 22 -25
6 -14 16 -25 21 -25 6 0 20 -9 31 -19 24 -22 101 -65 134 -76 50 -15 143 -78
138 -92 -4 -8 -6 -21 -6 -29 0 -10 -6 -13 -17 -10 -10 3 -36 8 -58 11 -22 3
-60 12 -85 20 -30 9 -94 12 -193 11 -82 0 -151 1 -153 4 -3 2 -22 5 -42 6 -20
1 -53 4 -72 7 -118 18 -174 19 -267 1 -92 -17 -97 -19 -147 -68 -59 -59 -79
-107 -80 -191 -1 -83 39 -162 112 -221 30 -24 63 -44 74 -44 10 0 28 -5 38
-10 39 -21 129 -31 300 -36 151 -4 242 -9 260 -14 3 -1 51 -1 108 -1 l104 1
-20 -27 c-11 -16 -36 -62 -57 -103 -21 -41 -41 -77 -45 -80 -7 -5 -43 -68 -91
-160 -18 -35 -30 -75 -75 -245 -13 -49 -28 -101 -34 -114 -6 -13 -18 -60 -26
-105 -9 -44 -18 -85 -22 -90 -3 -6 -5 -26 -5 -45 1 -20 2 -79 3 -131 1 -52 6
-113 10 -135 5 -22 11 -58 15 -80 9 -61 24 -113 36 -120 5 -4 29 -48 53 -99
33 -72 56 -105 96 -142 30 -27 64 -59 78 -72 27 -26 63 -43 106 -48 16 -2 34
-8 40 -13 15 -12 115 -20 118 -9 2 5 30 12 63 15 41 4 75 15 108 34 26 16 52
27 58 24 5 -4 9 1 9 9 0 9 5 16 12 16 14 0 97 90 98 106 0 6 7 17 15 24 8 7
15 18 15 25 0 7 10 36 23 65 l24 53 26 -71 c28 -77 99 -163 167 -205 19 -11
37 -23 40 -26 6 -7 30 -9 140 -11 123 -2 220 33 280 101 45 51 87 146 100 224
6 39 16 84 21 100 11 37 16 276 6 292 -4 6 -9 28 -12 49 -3 22 -8 50 -11 64
-10 41 -25 113 -29 140 -2 14 -9 41 -14 60 -6 19 -11 51 -11 70 0 19 -6 46
-13 60 -7 14 -14 39 -15 55 -3 36 -3 35 -31 160 -13 55 -32 119 -42 142 -10
24 -19 58 -19 76 0 18 -5 38 -11 44 -6 6 -13 26 -16 44 -2 19 -6 38 -6 43 -2
12 165 9 220 -4 42 -10 158 -20 263 -22 59 -2 120 9 120 21 0 4 17 15 38 24
41 18 102 70 102 86 0 6 7 11 15 11 8 0 15 7 15 15 0 9 7 29 15 45 22 42 19
137 -6 166 -6 8 -9 17 -6 20 10 10 -67 81 -113 104 -25 12 -49 29 -53 36 -4 8
-19 14 -32 14 -13 0 -26 4 -29 8 -5 9 -80 31 -172 52 -48 10 -97 9 -154 -5
-52 -13 -177 -12 -240 2 -59 14 -243 21 -280 12 -10 -3 -15 3 -15 16 0 11 20
34 50 57 41 31 57 54 95 131 40 85 47 94 66 86 67 -24 206 -37 267 -23 30 6
93 39 113 59 6 6 15 27 19 46 4 19 11 39 16 45 12 15 4 123 -10 137 -6 6 -11
18 -11 28 0 15 -32 50 -89 99 -33 27 -135 75 -153 72 -4 -1 -26 5 -49 14 -29
12 -57 15 -97 11 -56 -6 -57 -5 -82 29 -48 68 -103 129 -123 137 -11 4 -28 16
-37 27 -10 11 -27 20 -38 20 -11 0 -23 4 -26 8 -3 4 -30 21 -61 37 -42 21 -54
32 -50 44 59 144 85 355 55 447 -36 109 -46 128 -99 183 -59 61 -95 79 -181
87 -25 3 -52 6 -60 7 -8 1 -28 1 -45 -1z m145 -123 c0 -6 5 -7 11 -4 11 8 88
-69 106 -106 36 -75 45 -131 33 -215 -6 -46 -18 -103 -26 -126 -9 -24 -18 -58
-20 -77 -3 -19 -16 -44 -29 -57 -18 -17 -23 -30 -21 -56 6 -49 16 -68 37 -68
11 0 19 -7 19 -16 0 -12 3 -14 13 -6 19 16 73 1 148 -41 76 -43 124 -83 133
-114 4 -13 12 -23 17 -23 5 0 9 -11 9 -25 0 -14 4 -25 10 -25 5 0 23 -13 38
-30 16 -16 32 -27 35 -23 4 3 15 -1 25 -10 17 -15 19 -15 35 3 21 25 57 25
128 3 30 -10 59 -18 64 -18 15 -1 86 -49 118 -78 16 -15 27 -37 28 -54 1 -15
2 -35 3 -43 1 -8 -7 -32 -17 -53 -19 -39 -72 -73 -92 -58 -5 4 -30 9 -54 10
-24 1 -53 7 -63 12 -11 6 -27 8 -35 5 -9 -4 -25 0 -37 7 -68 45 -129 26 -140
-44 -4 -23 -10 -47 -14 -53 -4 -6 -7 -13 -7 -16 -1 -3 -11 -25 -24 -50 -26
-50 -32 -55 -109 -106 l-54 -36 7 -58 c11 -98 34 -146 77 -163 11 -4 21 0 26
9 7 12 33 16 124 18 63 2 137 -1 164 -6 91 -18 136 -20 147 -9 6 6 15 7 21 2
6 -4 49 -3 96 4 71 11 99 11 167 -1 72 -12 146 -40 178 -67 6 -4 33 -22 60
-40 42 -27 52 -39 61 -77 14 -58 3 -89 -48 -139 -37 -36 -58 -45 -138 -57 -53
-8 -212 -4 -231 7 -11 5 -25 8 -32 6 -7 -2 -20 0 -29 5 -15 7 -139 15 -269 17
-15 1 -32 7 -38 15 -12 15 -51 10 -51 -6 0 -5 -4 -7 -9 -4 -5 3 -12 -1 -15
-10 -13 -35 -2 -99 15 -88 5 3 9 -1 9 -10 0 -8 4 -16 9 -18 13 -5 61 -105 61
-127 0 -12 9 -49 19 -83 11 -35 29 -108 41 -163 12 -55 26 -113 31 -130 7 -25
29 -140 54 -285 3 -19 11 -53 16 -75 33 -130 40 -193 36 -304 -7 -158 -39
-295 -87 -361 -43 -61 -54 -70 -90 -76 -19 -4 -39 -10 -45 -14 -5 -4 -48 -6
-95 -5 -72 1 -91 5 -125 27 -66 42 -103 90 -138 178 -33 82 -40 120 -41 220
-1 58 -6 112 -11 121 -13 21 -85 33 -85 14 0 -7 -6 -15 -12 -17 -7 -3 -14 -20
-15 -39 -6 -89 -12 -147 -21 -184 -27 -108 -45 -163 -67 -200 -29 -50 -131
-145 -155 -145 -11 0 -21 -4 -24 -9 -3 -4 -39 -11 -79 -15 -87 -8 -168 7 -217
39 -46 30 -140 122 -140 137 0 6 -20 51 -45 100 -24 48 -42 88 -39 88 4 0 1 6
-5 13 -6 8 -9 16 -6 19 3 3 -1 47 -9 99 -20 125 -15 273 13 372 11 42 22 85
24 95 1 9 6 23 11 31 5 7 11 30 13 50 3 20 12 54 19 76 8 22 16 47 18 56 21
85 59 172 93 207 7 7 27 42 45 78 17 35 35 64 40 64 4 0 8 7 8 15 0 21 17 49
73 122 38 51 47 70 47 103 0 30 -4 40 -16 40 -8 0 -12 4 -9 10 3 5 -7 12 -22
16 -15 3 -34 7 -40 10 -17 5 -44 -6 -38 -16 6 -10 -127 -21 -195 -15 -30 3
-151 7 -268 9 -239 5 -316 20 -384 76 -83 68 -98 172 -35 239 65 68 149 85
327 65 69 -8 175 -17 235 -20 61 -3 115 -7 122 -9 6 -2 26 0 44 5 25 7 46 5
88 -10 46 -16 98 -26 154 -29 4 -1 7 -7 7 -15 0 -18 46 -24 82 -11 28 9 58 65
36 65 -10 0 -9 24 8 141 2 20 -4 31 -29 50 -18 13 -38 24 -46 26 -7 1 -18 6
-24 12 -6 6 -17 11 -25 11 -19 0 -172 76 -197 97 -12 10 -27 32 -34 50 -7 18
-19 38 -27 44 -8 6 -14 22 -14 34 0 32 -42 58 -75 45 -14 -5 -25 -14 -25 -20
0 -5 -4 -10 -10 -10 -5 0 -19 -9 -30 -20 -11 -11 -29 -20 -40 -20 -11 0 -20
-3 -20 -7 0 -22 -109 -48 -181 -44 -28 1 -109 73 -109 97 0 8 -4 14 -10 14 -5
0 -10 9 -10 19 0 11 -5 23 -11 26 -6 4 -8 27 -5 57 4 43 11 57 47 94 24 24 45
41 48 39 2 -3 14 1 26 9 21 14 180 14 280 0 22 -3 59 -6 82 -8 39 -3 41 -1 47
28 9 42 64 132 91 146 12 6 29 25 39 41 10 16 29 37 42 46 14 9 39 29 56 45
16 15 34 28 39 28 5 0 9 7 9 15 0 8 4 15 8 15 13 0 7 32 -13 70 -23 44 -55
173 -55 224 0 54 37 196 52 196 4 0 8 8 8 18 0 9 12 31 26 47 14 17 29 35 32
40 17 25 54 48 99 60 57 15 183 18 183 4z"/>
<path d="M2655 4103 c-38 -19 -84 -64 -85 -80 0 -7 -4 -13 -9 -13 -23 0 -55
-168 -40 -208 6 -15 11 -29 11 -32 1 -9 19 -55 34 -84 8 -16 14 -33 14 -37 0
-15 44 -60 71 -75 24 -12 29 -11 50 10 29 28 59 64 59 72 0 3 13 32 30 66 34
68 39 88 46 178 8 111 7 144 -5 148 -6 2 -11 9 -11 16 0 37 -116 64 -165 39z
m55 -64 c0 -5 10 -9 22 -7 36 5 58 -45 48 -112 -15 -104 -21 -125 -52 -188
-38 -78 -63 -95 -89 -61 -10 13 -19 29 -19 35 0 6 -7 25 -15 42 -36 70 -36
181 -1 218 6 6 20 24 31 39 25 35 75 58 75 34z"/>
<path d="M2451 3356 c-12 -7 -18 -15 -15 -19 4 -4 -6 -21 -23 -37 -34 -33 -37
-67 -11 -98 8 -9 23 -26 33 -38 14 -17 25 -20 59 -17 51 6 80 24 99 61 36 74
-71 186 -142 148z m72 -84 c21 -23 9 -41 -31 -47 -35 -4 -41 9 -22 46 13 24
32 24 53 1z"/>
<path d="M2913 3327 c-49 -12 -65 -40 -59 -100 4 -42 45 -102 76 -112 36 -12
86 22 108 74 23 53 23 61 -3 114 -21 41 -38 44 -122 24z m82 -77 c3 -5 0 -18
-7 -30 -16 -26 -78 -29 -78 -4 0 32 69 60 85 34z"/>
<path d="M2672 3120 c-7 -11 -12 -31 -12 -45 0 -17 -8 -29 -24 -36 -25 -12
-38 -41 -30 -64 9 -23 43 -24 70 -3 22 18 29 19 52 7 15 -7 34 -14 43 -15 9 0
21 -4 28 -8 6 -4 11 -1 11 8 0 8 4 16 9 18 5 2 7 15 4 29 -4 20 -14 28 -48 37
-30 8 -46 18 -50 33 -4 13 -15 30 -24 40 -16 17 -17 17 -29 -1z"/>
<path d="M3118 2943 c-9 -2 -20 -18 -23 -35 -11 -48 -75 -107 -135 -123 -3 -1
-12 -5 -20 -8 -83 -35 -190 -47 -190 -22 0 6 -4 5 -8 -1 -5 -9 -26 -7 -80 7
-102 26 -135 42 -217 107 -59 47 -89 46 -82 -2 4 -31 56 -90 99 -112 16 -8 28
-18 28 -23 0 -5 8 -11 18 -14 9 -3 36 -13 59 -21 116 -43 258 -52 347 -22 22
8 59 19 82 25 24 6 61 30 90 56 27 24 52 45 57 45 4 0 7 9 7 19 0 10 7 21 15
25 9 3 15 18 15 40 0 62 -11 73 -62 59z"/>
<path d="M2599 1639 c-20 -20 -21 -28 -14 -98 4 -42 7 -80 6 -86 0 -5 -3 -48
-5 -95 -3 -47 -2 -90 2 -95 4 -6 22 -22 41 -35 34 -23 37 -23 304 -24 171 -1
275 3 284 9 11 9 13 37 9 145 -3 74 -5 158 -5 186 -1 88 -28 106 -136 89 -27
-5 -121 -8 -207 -8 -121 0 -167 4 -198 17 -52 21 -56 20 -81 -5z m536 -139
c-3 -5 -1 -20 5 -34 5 -14 7 -55 3 -91 l-6 -65 -97 1 c-54 1 -102 -1 -108 -5
-5 -3 -63 -6 -127 -7 -88 0 -120 3 -126 13 -9 12 -1 197 8 208 4 4 56 7 276
14 82 2 152 7 155 11 8 8 24 -34 17 -45z"/>
</g>
</svg>
