<?xml version="1.0" standalone="no"?>
<!DOCTYPE svg PUBLIC "-//W3C//DTD SVG 20010904//EN"
 "http://www.w3.org/TR/2001/REC-SVG-20010904/DTD/svg10.dtd">
<svg version="1.0" xmlns="http://www.w3.org/2000/svg"
 width="509.000000pt" height="429.000000pt" viewBox="0 0 509.000000 429.000000"
 preserveAspectRatio="xMidYMid meet">
<metadata>
Created by potrace 1.16, written by Peter Selinger 2001-2019
</metadata>
<g transform="translate(0.000000,429.000000) scale(0.100000,-0.100000)"
fill="#000000" stroke="none">
<path d="M2220 4071 c-8 -6 -26 -11 -40 -11 -15 0 -31 -5 -38 -12 -7 -7 -12
-8 -12 -2 0 5 -3 5 -8 -1 -9 -13 -113 -65 -129 -65 -7 0 -13 -4 -13 -8 0 -5
-24 -26 -52 -47 -130 -94 -233 -286 -242 -449 -1 -29 -6 -57 -10 -64 -7 -12
-2 -329 9 -572 5 -103 9 -261 20 -805 2 -88 4 -293 4 -456 2 -279 3 -298 21
-314 23 -21 67 -13 90 15 13 17 35 20 218 26 l202 7 -6 -45 c-9 -68 13 -174
54 -258 20 -41 44 -84 52 -94 34 -43 104 -105 131 -116 16 -7 29 -16 29 -20 0
-4 19 -13 43 -20 23 -8 47 -17 52 -20 10 -7 137 -29 165 -29 8 0 33 -3 55 -7
89 -17 375 -5 416 16 8 5 35 9 60 9 24 1 91 3 149 5 108 4 194 -9 275 -42 100
-40 224 -144 252 -210 8 -19 22 -47 31 -61 22 -32 42 -90 42 -118 0 -13 3 -23
8 -23 4 0 8 -17 10 -37 2 -37 34 -83 57 -83 19 0 82 62 89 88 6 17 0 29 -23
53 -17 17 -31 41 -31 54 0 13 -4 26 -9 29 -5 3 -12 18 -16 33 -3 15 -10 30
-14 33 -4 3 -26 43 -49 90 -39 82 -53 99 -146 170 -111 86 -280 133 -476 132
-69 -1 -136 -3 -150 -6 -47 -11 -159 -25 -260 -33 -35 -3 -100 0 -145 6 -44 6
-102 13 -130 15 -27 2 -66 10 -85 18 -19 8 -40 13 -47 11 -6 -2 -14 1 -18 6
-3 6 -15 11 -26 11 -10 0 -19 4 -19 8 0 4 -15 16 -32 27 -18 10 -56 42 -83 70
-41 42 -54 65 -75 131 -26 83 -31 177 -11 197 8 8 82 12 244 13 158 1 232 5
235 13 2 6 12 11 22 11 13 0 19 10 24 42 6 42 1 272 -9 413 -2 39 -7 174 -10
300 -2 127 -8 271 -11 320 -4 50 -8 162 -10 250 -2 88 -3 167 -4 175 0 8 -1
60 -1 115 0 55 -2 177 -4 270 -2 100 1 185 7 207 8 26 8 41 1 50 -6 7 -16 52
-22 100 -12 89 -22 128 -48 187 -8 18 -16 39 -17 45 -1 6 -12 26 -24 44 -13
18 -21 32 -18 32 8 0 -22 37 -57 72 -32 31 -133 88 -157 88 -8 0 -24 6 -35 13
-25 16 -223 22 -245 8z m187 -116 c15 -3 60 -22 99 -41 58 -28 77 -44 106 -87
29 -43 59 -103 64 -127 0 -3 3 -12 7 -20 14 -37 34 -155 42 -250 5 -64 15
-385 20 -645 3 -179 10 -518 20 -1069 6 -259 5 -288 -9 -283 -9 4 -16 2 -16
-4 0 -6 -23 -10 -52 -9 -64 1 -435 -7 -680 -15 l-178 -5 0 22 c-5 230 -9 379
-14 448 -4 47 -9 175 -11 285 -3 110 -8 295 -11 410 -14 489 -18 868 -10 920
8 51 23 100 47 151 10 22 19 45 19 51 0 6 40 52 89 102 77 79 102 99 114 89 1
-2 13 6 25 18 12 12 42 27 65 34 23 7 51 16 62 21 36 15 148 18 202 4z"/>
</g>
</svg>
