<?xml version="1.0" standalone="no"?>
<!DOCTYPE svg PUBLIC "-//W3C//DTD SVG 20010904//EN"
 "http://www.w3.org/TR/2001/REC-SVG-20010904/DTD/svg10.dtd">
<svg version="1.0" xmlns="http://www.w3.org/2000/svg"
 width="507.000000pt" height="421.000000pt" viewBox="0 0 507.000000 421.000000"
 preserveAspectRatio="xMidYMid meet">
<metadata>
Created by potrace 1.16, written by Peter Selinger 2001-2019
</metadata>
<g transform="translate(0.000000,421.000000) scale(0.100000,-0.100000)"
fill="#000000" stroke="none">
<path d="M2660 4064 c-98 -36 -148 -63 -179 -96 -69 -75 -81 -89 -81 -94 0 -3
-9 -14 -19 -25 -10 -11 -45 -63 -77 -115 -32 -52 -62 -94 -66 -94 -5 0 -52 22
-106 49 -53 27 -105 51 -115 55 -22 7 -67 -20 -67 -41 0 -8 -13 -28 -30 -46
-16 -18 -30 -35 -30 -39 0 -11 -46 -58 -56 -58 -5 0 -25 11 -44 24 -44 30 -96
42 -115 26 -7 -6 -42 -12 -77 -14 -35 -1 -92 -11 -128 -22 -58 -17 -74 -28
-147 -101 -46 -46 -85 -94 -89 -108 -3 -14 -9 -25 -14 -25 -4 0 -17 -20 -30
-45 -13 -24 -31 -52 -41 -61 -11 -10 -19 -22 -19 -29 0 -6 -21 -40 -47 -75
-26 -36 -59 -90 -74 -120 -15 -30 -48 -84 -73 -119 -25 -36 -46 -69 -46 -73 0
-5 -54 -119 -120 -253 -66 -135 -120 -248 -119 -251 0 -4 -3 -10 -8 -13 -6 -3
-36 -60 -67 -126 -32 -66 -62 -127 -66 -135 -5 -8 -25 -46 -44 -85 -19 -38
-41 -81 -49 -95 -8 -14 -21 -41 -29 -60 -31 -72 -113 -235 -120 -238 -5 -2 -8
-12 -8 -23 0 -10 -9 -36 -20 -56 -11 -21 -20 -45 -20 -55 0 -9 -4 -19 -9 -22
-4 -3 -12 -34 -16 -68 -4 -35 -10 -72 -12 -83 -6 -30 -6 -186 0 -220 18 -101
63 -220 99 -259 10 -11 18 -25 18 -30 1 -6 18 -24 40 -41 21 -16 44 -40 51
-52 7 -13 20 -25 31 -29 10 -3 18 -11 18 -17 0 -7 19 -23 43 -36 23 -13 48
-32 55 -42 6 -10 25 -20 42 -24 16 -4 32 -11 36 -16 3 -5 21 -16 40 -24 33
-14 244 -151 254 -165 3 -4 12 -7 20 -7 8 0 38 -10 65 -22 35 -15 54 -30 64
-51 7 -17 17 -27 22 -24 6 3 15 1 22 -4 10 -8 117 -24 162 -25 36 0 150 15
171 23 14 6 29 8 34 5 5 -3 21 0 37 6 15 7 38 13 51 15 22 3 50 23 122 88 39
35 124 159 153 221 10 22 21 42 25 45 4 3 38 66 75 140 38 74 80 155 94 180
51 91 102 187 138 260 20 41 43 82 50 90 8 8 33 53 56 100 23 47 45 87 49 90
4 3 18 25 30 50 12 25 26 47 30 50 4 3 19 28 34 55 15 28 32 54 37 59 5 6 9
18 9 27 0 10 4 19 8 21 14 5 222 404 222 425 0 6 3 13 8 15 6 3 21 33 90 188
9 19 19 37 22 40 9 7 60 119 60 130 0 6 4 18 9 28 5 9 14 31 21 47 7 17 16 37
20 45 16 34 40 129 35 142 -3 8 -1 27 5 43 8 21 8 42 -1 79 -20 83 -82 154
-154 177 -22 8 -48 24 -58 36 -10 13 -24 23 -30 23 -7 0 -20 7 -30 14 -17 13
-16 18 22 81 23 37 41 71 41 76 0 5 5 9 10 9 7 0 10 19 9 44 -2 36 -7 47 -26
55 -13 6 -23 15 -23 21 0 6 -8 10 -17 8 -10 -1 -33 4 -51 11 -27 11 -33 19
-29 35 10 38 34 98 43 105 5 3 22 25 37 48 16 22 41 46 57 53 51 21 190 -13
233 -57 32 -34 64 -123 65 -181 0 -23 3 -50 6 -60 6 -19 56 -41 106 -47 16 -2
39 -9 50 -15 11 -6 20 -8 20 -4 0 4 8 0 18 -8 11 -10 49 -18 115 -22 94 -6 99
-5 104 14 3 11 9 20 13 20 24 0 36 144 22 248 -16 115 -91 214 -235 310 -117
79 -121 81 -145 92 -12 5 -41 18 -65 28 -71 32 -99 41 -167 56 -72 17 -217 29
-240 20z m213 -120 c21 -4 40 -11 43 -15 3 -5 14 -9 25 -9 10 0 27 -4 37 -9 9
-6 49 -24 87 -42 39 -18 72 -35 75 -39 4 -6 41 -22 47 -21 2 0 14 -11 27 -24
14 -14 32 -25 41 -25 8 0 15 -7 15 -15 0 -8 4 -15 9 -15 12 0 74 -59 98 -95
20 -28 46 -152 38 -178 -2 -7 -6 -25 -10 -41 -6 -28 -7 -28 -60 -21 -30 3 -82
14 -117 24 -63 18 -63 18 -66 57 -1 21 -7 50 -13 64 -33 77 -67 133 -93 153
-16 12 -34 27 -40 32 -24 21 -55 34 -97 40 -24 4 -52 11 -62 17 -32 17 -148
-8 -183 -40 -36 -31 -94 -117 -94 -137 0 -8 -5 -17 -10 -20 -6 -4 -18 -24 -27
-46 -16 -41 -41 -51 -62 -25 -7 8 -23 17 -36 20 -44 11 -112 60 -106 76 8 21
90 141 112 165 45 49 79 94 79 104 0 6 5 11 11 11 7 0 17 7 23 16 7 9 37 24
66 35 55 20 141 21 243 3z m-783 -359 c27 -14 56 -25 63 -25 8 0 20 -7 28 -16
7 -8 42 -29 78 -45 36 -16 75 -35 86 -42 11 -6 44 -24 74 -39 30 -16 59 -32
65 -37 6 -4 31 -16 56 -25 56 -22 90 -53 83 -75 -9 -30 -28 -66 -41 -80 -10
-10 -19 -11 -35 -3 -12 5 -37 16 -55 23 -19 6 -39 17 -45 23 -7 6 -36 22 -64
36 -29 14 -53 29 -53 33 0 5 -3 6 -7 4 -11 -7 -366 175 -370 189 -3 9 74 104
85 104 1 0 25 -11 52 -25z m-394 -106 c6 -5 18 -7 26 -4 13 5 664 -315 678
-333 3 -4 30 -18 60 -32 30 -14 70 -35 89 -47 19 -13 37 -23 41 -23 4 0 33
-11 64 -25 31 -14 59 -24 62 -24 4 0 10 -3 13 -8 3 -4 23 -19 44 -33 20 -14
40 -33 43 -43 3 -9 14 -22 25 -28 18 -9 19 -17 13 -92 -6 -82 -31 -159 -78
-252 -14 -27 -26 -55 -26 -61 0 -6 -9 -23 -21 -38 -11 -14 -18 -26 -15 -26 3
0 -10 -30 -28 -67 -19 -38 -39 -87 -46 -110 -7 -24 -17 -43 -22 -43 -4 0 -8
-6 -8 -12 0 -7 -10 -33 -23 -58 -79 -155 -112 -215 -119 -218 -4 -2 -8 -8 -8
-14 0 -6 -15 -36 -34 -67 -33 -55 -56 -96 -99 -176 -12 -22 -24 -42 -27 -45
-3 -3 -23 -41 -44 -85 -21 -44 -49 -94 -62 -112 -13 -17 -24 -36 -24 -41 0 -5
-16 -30 -35 -55 -19 -25 -35 -50 -35 -55 0 -13 -20 -51 -48 -90 -13 -17 -21
-32 -17 -32 3 0 1 -6 -5 -12 -6 -7 -28 -47 -49 -88 -21 -41 -51 -97 -66 -125
-16 -27 -51 -93 -78 -145 -27 -52 -53 -99 -57 -105 -5 -5 -31 -49 -59 -98
-103 -179 -168 -235 -291 -252 -30 -4 -64 -9 -75 -12 -96 -23 -215 -8 -215 27
0 23 -32 51 -61 53 -34 3 -130 51 -223 112 -45 28 -115 71 -156 93 -41 23 -91
50 -110 61 -19 10 -78 61 -130 113 -84 82 -99 103 -129 173 -41 97 -42 105
-43 230 -1 127 14 232 40 281 11 22 26 56 32 76 6 20 27 56 45 80 19 24 35 53
35 64 0 12 22 66 49 120 26 55 112 230 191 389 78 160 152 310 164 335 13 25
56 110 96 190 41 80 92 172 115 205 23 33 44 68 48 77 3 10 29 51 57 93 27 41
50 79 50 85 0 5 4 10 9 10 4 0 36 43 71 96 34 53 74 108 89 122 15 15 30 35
34 45 3 9 12 17 20 17 7 0 19 6 25 13 37 36 203 55 238 26z"/>
<path d="M1584 2919 c-124 -21 -264 -101 -341 -197 -21 -26 -53 -62 -70 -81
-18 -19 -33 -38 -33 -43 0 -5 -24 -46 -54 -92 -30 -46 -69 -112 -86 -147 -18
-35 -49 -89 -69 -119 -35 -52 -51 -88 -72 -157 -6 -18 -14 -33 -19 -33 -4 0
-11 -13 -15 -30 -3 -16 -15 -40 -25 -53 -11 -14 -33 -53 -50 -88 -17 -35 -36
-73 -43 -84 -52 -83 -86 -143 -92 -162 -3 -13 -10 -23 -15 -23 -5 0 -15 -19
-21 -42 -7 -24 -22 -77 -34 -118 -28 -91 -50 -260 -43 -324 6 -52 37 -102 104
-168 24 -23 47 -51 50 -60 3 -10 9 -17 13 -15 4 1 28 -18 53 -43 28 -29 79
-62 141 -93 53 -26 100 -48 104 -49 5 -1 31 -14 58 -29 51 -29 105 -55 140
-69 24 -10 128 -27 170 -28 55 -1 145 53 243 145 50 49 92 91 92 96 0 4 15 29
33 55 18 26 49 79 67 117 19 39 37 72 40 75 3 3 11 16 19 30 82 144 125 216
131 220 4 3 19 28 33 55 30 60 80 143 125 207 17 26 32 51 32 56 0 6 20 43 45
83 25 40 45 78 45 84 0 6 8 20 18 31 14 16 115 208 118 224 0 3 8 23 17 44 10
22 20 51 23 65 3 14 8 33 11 41 3 8 8 22 11 30 4 8 6 53 6 100 1 76 -2 90 -28
134 -39 66 -130 155 -188 185 -27 13 -48 28 -48 33 0 4 -6 8 -12 8 -7 0 -48
34 -90 74 -43 41 -78 72 -78 69 0 -2 -15 7 -32 20 -32 23 -62 38 -83 42 -24 3
-71 18 -80 26 -11 8 -29 7 -59 -6 -10 -4 -21 -4 -25 1 -7 10 -80 12 -137 3z
m121 -109 c17 0 35 -4 41 -9 5 -5 26 -14 48 -21 29 -9 40 -10 46 -1 5 9 13 9
33 0 15 -7 27 -16 27 -20 0 -4 8 -10 18 -14 9 -3 46 -33 82 -66 36 -33 77 -67
93 -77 15 -9 27 -22 27 -28 0 -7 6 -14 13 -17 9 -3 8 -11 -3 -33 -9 -16 -21
-29 -27 -29 -6 0 -22 -12 -35 -26 -14 -15 -45 -39 -69 -55 -47 -30 -97 -69
-140 -109 -63 -57 -135 -79 -174 -51 -11 7 -27 14 -35 15 -44 6 -136 8 -145 3
-5 -3 -25 -7 -44 -9 -35 -4 -120 -37 -131 -51 -3 -4 -36 -23 -75 -43 -61 -32
-72 -42 -88 -83 -34 -80 -7 -125 80 -133 97 -9 98 -17 13 -83 -25 -19 -71 -63
-104 -97 -32 -35 -63 -60 -69 -56 -6 4 -8 0 -4 -10 3 -9 -2 -26 -12 -39 -21
-28 -25 -77 -8 -99 35 -46 87 -41 167 17 26 19 51 34 54 34 4 0 32 20 63 45
31 25 58 43 61 41 7 -8 -27 -57 -70 -98 -21 -20 -38 -41 -38 -47 0 -6 -4 -11
-10 -11 -30 0 -54 -136 -27 -158 15 -12 52 -18 76 -11 21 6 141 111 141 123 0
3 16 21 35 40 19 20 35 33 35 31 0 -5 -43 -92 -84 -168 -27 -52 -27 -85 1
-139 11 -24 20 -28 56 -28 33 0 49 7 74 30 17 16 34 39 38 50 3 11 10 20 14
20 4 0 14 19 21 43 15 48 87 204 105 227 6 8 20 42 30 75 30 100 82 197 115
218 16 10 30 23 30 28 0 5 4 9 9 9 5 0 22 12 38 28 16 15 53 47 82 72 30 25
59 50 65 55 6 6 29 23 51 39 22 16 57 45 78 63 20 18 41 33 46 33 10 0 2 -48
-10 -56 -5 -3 -9 -12 -9 -21 0 -28 -81 -188 -142 -281 -10 -15 -21 -34 -24
-42 -26 -63 -44 -97 -99 -180 -34 -52 -70 -110 -80 -127 -11 -18 -22 -33 -25
-33 -3 0 -6 -9 -7 -20 -1 -11 -13 -34 -26 -52 -14 -18 -37 -55 -51 -83 -35
-66 -61 -112 -73 -127 -6 -7 -25 -42 -43 -76 -18 -35 -39 -66 -46 -69 -7 -2
-15 -16 -19 -31 -9 -35 -73 -141 -105 -173 -14 -14 -34 -36 -46 -50 -25 -29
-72 -69 -81 -69 -4 0 -17 -10 -30 -22 -20 -19 -34 -22 -97 -21 -68 2 -83 6
-197 61 -68 33 -140 65 -159 73 -73 27 -170 95 -170 118 0 6 -4 11 -10 11 -15
0 -118 106 -136 142 -19 37 -24 56 -24 108 -1 83 49 274 91 348 10 18 19 40
19 48 0 8 7 17 15 20 8 4 15 14 15 24 0 10 20 52 45 94 24 42 41 76 37 76 -4
0 -2 4 3 8 6 4 18 23 27 42 10 19 22 42 27 50 9 14 57 115 116 244 15 32 39
76 55 97 15 21 33 53 41 71 7 18 17 38 21 43 19 23 118 179 118 186 0 14 155
166 201 197 58 39 202 78 224 60 5 -4 23 -8 40 -8z m547 -322 c19 -18 46 -49
60 -68 28 -38 41 -86 21 -83 -6 1 -24 -12 -40 -30 -30 -33 -114 -105 -143
-122 -19 -11 -94 -73 -140 -116 -15 -14 -61 -52 -101 -83 -60 -48 -78 -69
-105 -124 -18 -37 -40 -92 -49 -122 -10 -30 -39 -100 -65 -155 -44 -93 -69
-156 -71 -180 0 -5 -8 -19 -18 -30 -10 -11 -22 -30 -26 -42 -4 -16 -14 -23
-31 -23 -13 0 -24 3 -25 8 0 4 -2 17 -5 30 -2 13 7 39 23 65 15 23 42 73 61
111 29 61 32 72 21 98 -13 32 -44 54 -54 38 -4 -6 -10 -8 -15 -5 -10 6 -110
-87 -110 -103 0 -7 -4 -12 -9 -12 -5 0 -13 -9 -16 -20 -3 -11 -13 -20 -21 -20
-8 0 -14 -6 -14 -14 0 -8 -9 -18 -20 -21 -11 -3 -20 -11 -20 -16 0 -5 -7 -9
-15 -9 -33 0 0 73 58 127 84 76 118 174 79 223 l-18 22 -37 -22 c-21 -12 -53
-37 -71 -55 -19 -18 -52 -41 -75 -51 -23 -10 -41 -21 -41 -26 0 -15 -79 -60
-95 -55 -12 5 -13 11 -3 34 20 47 158 193 182 193 8 0 26 15 40 33 14 17 31
39 39 48 45 52 18 94 -68 104 -33 4 -64 8 -70 9 -22 3 -33 17 -28 36 6 24 59
64 73 55 5 -3 10 -2 10 3 0 10 80 62 123 80 15 7 47 12 70 12 24 0 48 5 53 10
7 7 24 6 52 -4 23 -8 42 -13 42 -10 0 2 13 -2 30 -11 16 -8 40 -16 52 -17 21
-2 115 36 128 52 3 3 25 21 50 40 24 19 51 41 60 48 8 7 51 39 95 71 44 33 96
75 114 95 19 20 38 36 42 36 4 0 23 -15 41 -32z"/>
<path d="M3183 3275 c-15 -17 -15 -14 -15 -335 0 -140 -1 -277 -3 -305 -2 -27
-4 -84 -5 -125 0 -41 -6 -96 -12 -123 -13 -51 -4 -73 24 -62 19 8 30 42 34
113 2 35 -1 52 -9 52 -8 0 -8 3 -2 8 6 4 11 30 11 57 1 28 4 111 7 185 4 74 9
212 12 305 3 94 7 181 8 194 3 31 -32 56 -50 36z"/>
<path d="M3407 3188 c-17 -13 -15 -58 8 -198 2 -14 8 -79 13 -146 5 -67 12
-125 15 -131 3 -5 8 -33 12 -63 3 -30 8 -63 11 -74 4 -10 7 -38 9 -62 3 -50 2
-49 31 -58 32 -10 48 40 30 92 -8 21 -16 56 -19 77 -3 22 -12 72 -20 110 -8
39 -16 99 -16 135 0 36 -5 90 -11 119 -5 30 -10 84 -10 120 0 82 -16 106 -53
79z"/>
<path d="M3268 3013 c-7 -27 1 -664 9 -693 3 -14 5 -30 4 -36 -2 -16 26 -37
43 -31 19 7 26 53 11 75 -9 12 -14 87 -16 267 -1 138 -2 273 -1 300 3 106 -1
130 -24 133 -14 2 -23 -3 -26 -15z"/>
<path d="M3680 2710 c-8 -5 -25 -10 -38 -10 -38 0 -59 -19 -54 -51 2 -15 11
-30 19 -33 15 -6 93 15 93 24 0 16 78 8 108 -10 37 -23 38 -30 16 -135 -20
-95 -14 -129 30 -177 31 -34 37 -36 90 -35 61 1 73 -7 102 -73 22 -51 10 -138
-21 -150 -13 -5 -31 -6 -42 -4 -24 7 -73 -31 -73 -56 0 -10 -4 -22 -10 -25
-16 -10 -12 -103 6 -130 9 -14 19 -53 21 -88 7 -88 -6 -101 -100 -93 -48 4
-73 11 -81 22 -29 39 -114 -43 -135 -131 -7 -27 -20 -58 -28 -67 -17 -19 -83
-25 -83 -8 0 5 -6 7 -14 4 -8 -3 -23 -1 -33 4 -22 12 -143 -42 -143 -64 0 -8
-4 -14 -10 -14 -5 0 -10 -6 -10 -13 0 -38 -87 -174 -131 -205 -23 -16 -97 1
-106 23 -3 8 -8 13 -12 10 -4 -2 -15 9 -24 24 -15 26 -15 30 7 72 20 37 31 46
71 57 71 21 106 94 73 155 -18 32 -24 34 -72 30 -37 -4 -47 0 -72 26 -58 59
-66 70 -59 80 3 6 2 11 -3 11 -5 0 -4 26 1 61 7 40 7 63 0 70 -9 9 -44 17 -85
18 -15 1 -18 11 -18 58 0 71 34 134 82 153 18 7 47 18 64 26 16 7 41 10 55 7
13 -3 21 -3 17 2 -4 4 -3 18 3 32 7 20 4 28 -19 48 -15 13 -32 25 -39 25 -33
1 -45 103 -20 164 10 21 17 41 17 45 1 19 52 61 74 61 33 0 49 29 30 54 -10
15 -21 17 -51 13 -46 -7 -75 -42 -116 -135 -26 -58 -29 -73 -25 -145 4 -66 8
-83 25 -97 21 -16 21 -17 -15 -30 -49 -17 -89 -55 -118 -113 -22 -43 -38 -137
-23 -137 3 0 4 -11 2 -24 -6 -32 36 -76 72 -76 21 0 25 -4 24 -27 -4 -77 2
-102 35 -145 64 -80 72 -86 122 -93 27 -4 53 -10 57 -12 12 -7 -23 -43 -43
-43 -24 0 -80 -44 -96 -76 -22 -41 -34 -104 -24 -128 11 -30 75 -93 113 -110
38 -19 97 -27 97 -15 0 5 7 9 16 9 17 0 93 78 94 97 0 6 3 13 8 15 4 2 25 39
47 83 23 45 47 80 55 80 8 1 25 6 37 13 16 9 34 10 62 3 22 -5 62 -7 88 -4 56
5 70 21 95 107 20 67 44 100 67 90 18 -7 90 -16 137 -16 33 0 110 36 117 55
13 39 7 139 -14 198 -33 97 -24 139 32 139 78 0 115 61 107 178 -8 109 -49
177 -115 187 -21 3 -46 10 -55 15 -11 6 -18 5 -21 -3 -3 -8 -12 -4 -27 11 -20
21 -22 30 -16 80 10 81 11 86 17 97 11 19 3 93 -12 106 -60 58 -81 69 -132 69
-29 0 -59 -5 -67 -10z"/>
</g>
</svg>
