<?xml version="1.0" standalone="no"?>
<!DOCTYPE svg PUBLIC "-//W3C//DTD SVG 20010904//EN"
 "http://www.w3.org/TR/2001/REC-SVG-20010904/DTD/svg10.dtd">
<svg version="1.0" xmlns="http://www.w3.org/2000/svg"
 width="539.000000pt" height="481.000000pt" viewBox="0 0 539.000000 481.000000"
 preserveAspectRatio="xMidYMid meet">
<metadata>
Created by potrace 1.16, written by Peter Selinger 2001-2019
</metadata>
<g transform="translate(0.000000,481.000000) scale(0.100000,-0.100000)"
fill="#000000" stroke="none">
<path d="M3208 4665 c-3 -2 -32 -6 -172 -21 -22 -2 -42 -8 -45 -12 -3 -5 -21
-15 -38 -23 -18 -8 -33 -17 -33 -21 0 -5 -7 -8 -15 -8 -8 0 -15 -4 -15 -8 0
-5 -25 -35 -55 -67 -30 -33 -55 -63 -55 -67 0 -3 -6 -13 -14 -20 -22 -22 -44
-116 -52 -214 -6 -87 -5 -93 21 -141 27 -47 61 -73 96 -73 9 0 39 -20 65 -43
27 -24 78 -64 113 -88 35 -24 84 -59 110 -77 25 -18 55 -37 66 -42 50 -24 125
-80 180 -135 22 -21 63 -55 90 -74 46 -31 68 -52 62 -58 -4 -4 -138 -22 -197
-27 -73 -6 -161 -26 -176 -40 -6 -6 -22 -18 -35 -26 -13 -8 -60 -53 -104 -99
-74 -77 -171 -173 -384 -379 -47 -45 -93 -82 -104 -82 -21 0 -107 48 -107 60
0 4 -12 13 -27 18 -16 5 -45 26 -67 46 -21 20 -41 36 -43 36 -10 0 -143 93
-143 100 0 5 -25 22 -55 39 -30 17 -55 36 -55 42 0 5 -4 8 -9 5 -5 -3 -11 0
-14 8 -3 7 -26 22 -51 32 -25 11 -46 25 -46 32 0 7 -4 11 -9 8 -5 -3 -26 2
-47 11 -93 39 -248 13 -413 -70 -57 -29 -185 -136 -245 -206 -12 -14 -38 -43
-58 -65 -21 -22 -38 -44 -38 -48 0 -10 -3 -14 -65 -86 -25 -29 -45 -56 -45
-60 0 -5 -17 -26 -39 -48 -21 -23 -45 -52 -52 -66 -15 -28 -69 -95 -112 -140
-15 -16 -27 -31 -27 -35 0 -3 -18 -24 -40 -45 -22 -22 -40 -43 -40 -47 0 -4
-11 -21 -25 -37 -14 -16 -25 -33 -25 -39 0 -5 -6 -21 -13 -35 -27 -52 -39
-119 -35 -202 3 -68 9 -94 33 -142 17 -32 36 -61 43 -63 6 -3 12 -9 12 -14 0
-11 13 -27 87 -105 66 -68 131 -120 192 -150 26 -14 147 -128 243 -230 l28
-30 -32 -38 c-71 -83 -197 -196 -217 -196 -6 0 -17 -11 -23 -25 -6 -14 -16
-25 -23 -25 -6 0 -18 -11 -25 -25 -7 -14 -16 -25 -20 -25 -4 0 -17 -9 -30 -20
-13 -11 -29 -20 -37 -20 -7 0 -14 -4 -14 -10 -1 -5 -2 -14 -3 -19 0 -5 -4 -13
-8 -17 -17 -16 -7 -40 23 -58 47 -28 159 -115 209 -163 25 -23 68 -60 95 -80
28 -21 62 -51 77 -66 15 -15 31 -27 36 -27 12 0 52 46 104 120 45 64 270 290
289 290 6 0 16 14 23 31 8 18 16 27 20 21 4 -6 38 -28 76 -48 39 -20 70 -40
70 -45 0 -5 6 -9 13 -9 7 0 31 -18 52 -40 21 -22 45 -40 52 -40 6 0 16 -6 20
-13 4 -6 26 -25 48 -42 22 -16 46 -35 53 -42 8 -8 27 -20 42 -28 16 -8 35 -23
42 -33 7 -10 38 -36 68 -58 30 -21 59 -44 63 -51 4 -7 13 -13 20 -13 7 0 27
-14 46 -30 18 -17 37 -30 40 -30 4 0 16 -8 27 -17 11 -10 33 -25 49 -34 17 -9
57 -31 90 -49 33 -18 65 -36 70 -40 6 -5 53 -27 105 -50 79 -34 108 -42 169
-44 112 -4 259 41 319 97 15 13 42 32 60 41 17 9 32 20 32 24 0 4 20 30 44 57
25 27 43 51 41 53 -2 2 4 12 13 22 9 10 28 33 42 51 14 18 32 40 41 49 8 9 18
24 22 33 12 32 36 30 84 -7 25 -20 50 -36 54 -36 4 0 10 -8 13 -18 6 -17 120
-68 143 -64 7 2 19 -10 27 -25 49 -93 204 -168 343 -165 44 0 84 7 103 17 29
15 33 14 103 -19 95 -45 169 -59 262 -51 41 4 76 6 78 4 2 -2 24 13 50 34 42
34 87 49 87 28 0 -27 177 -49 238 -30 95 30 113 45 170 149 40 71 37 130 -7
130 -49 0 -73 -11 -68 -31 3 -11 2 -19 -3 -19 -4 0 -10 -14 -14 -31 -14 -73
-124 -123 -212 -99 -24 7 -47 17 -50 21 -3 5 6 24 20 41 23 31 41 91 39 131 0
9 -1 31 -2 48 -1 22 -12 42 -37 65 -31 29 -42 34 -86 34 -61 0 -118 -25 -118
-51 0 -11 -3 -19 -8 -19 -11 0 4 -192 18 -222 12 -25 11 -30 -11 -52 -20 -19
-39 -26 -96 -31 -48 -5 -73 -4 -77 4 -4 6 -18 11 -31 11 -13 0 -35 5 -49 11
l-25 12 31 38 c17 21 40 68 52 106 78 237 -135 316 -240 88 -25 -54 -29 -87
-18 -151 7 -47 6 -48 -76 -59 -52 -7 -143 14 -207 47 -43 23 -63 50 -44 56 6
2 44 28 84 57 58 42 76 62 85 92 20 61 22 114 7 143 -18 34 -84 62 -128 55
-35 -7 -122 -56 -123 -71 0 -5 -9 -27 -19 -49 -10 -22 -19 -42 -20 -45 -1 -3
-7 -24 -14 -47 l-12 -43 -37 15 c-20 9 -47 26 -59 38 -25 25 -41 37 -69 53
-35 20 -31 27 89 167 15 17 27 35 27 39 0 5 6 8 13 8 15 0 57 44 57 60 0 5 6
13 13 17 7 4 20 19 29 33 9 14 40 50 69 80 59 60 61 64 114 166 44 87 63 163
59 239 -5 85 -40 136 -164 239 -58 48 -123 103 -145 121 -22 19 -62 52 -88 74
-27 23 -52 41 -57 41 -4 0 -32 23 -62 51 -29 28 -69 63 -88 78 -19 14 -39 31
-45 37 -44 49 -284 244 -300 244 -3 0 -42 21 -86 46 -88 51 -87 49 -24 105 64
57 132 126 175 179 25 30 56 64 69 74 13 11 27 24 32 30 5 6 20 24 34 40 14
16 25 32 25 36 0 3 15 22 33 43 25 26 39 34 54 31 14 -4 21 -1 20 8 -1 7 0 14
3 15 3 1 19 7 35 13 35 14 65 19 162 30 40 5 77 11 83 15 6 4 28 7 48 7 20 0
47 6 59 14 42 26 142 17 181 -18 16 -14 51 -38 76 -52 26 -14 59 -37 74 -51
15 -14 30 -25 33 -25 11 0 78 -57 73 -62 -3 -3 6 -8 20 -12 15 -4 26 -14 28
-29 2 -15 11 -23 28 -25 13 -2 33 -10 44 -18 15 -10 23 -11 40 -1 12 7 26 12
31 13 37 3 103 33 137 63 38 35 92 117 124 194 9 20 20 37 25 37 5 0 9 11 9
24 0 13 8 39 17 58 9 18 20 40 24 50 4 9 13 54 19 101 11 77 10 88 -7 113 -20
32 -76 88 -110 111 -13 8 -23 22 -23 30 0 8 -5 11 -10 8 -6 -3 -15 6 -21 22
-8 22 -12 24 -19 13 -6 -10 -10 -11 -10 -3 0 15 -63 79 -140 143 -30 25 -62
53 -71 62 -10 9 -27 22 -39 28 -24 13 -62 43 -94 75 -33 33 -163 128 -232 170
-27 16 -113 83 -167 130 -7 6 -24 16 -38 24 -15 7 -51 33 -80 58 -30 24 -81
60 -114 81 -33 20 -69 45 -80 55 -17 17 -37 31 -113 82 -8 6 -29 22 -46 38
-17 15 -36 27 -42 27 -7 0 -14 7 -17 14 -6 14 -40 26 -124 46 -18 4 -33 7 -35
5z m-29 -164 c-7 -14 -18 -33 -25 -41 -6 -8 -17 -33 -24 -55 -7 -22 -21 -48
-31 -57 -10 -10 -38 -46 -63 -80 -66 -93 -175 -177 -204 -159 -21 13 -16 159
6 196 4 6 7 16 8 23 2 8 10 22 18 31 9 10 16 22 16 27 0 6 11 20 25 32 14 12
25 26 25 30 0 5 24 25 53 44 50 35 105 54 138 50 8 -2 26 1 40 6 30 12 37 -8
18 -47z m147 14 c12 -8 24 -12 26 -10 3 3 15 -8 28 -25 13 -16 28 -30 33 -30
6 0 19 -7 29 -17 10 -9 27 -21 37 -27 38 -23 176 -119 186 -130 6 -7 26 -23
45 -36 19 -13 39 -30 43 -37 4 -7 15 -13 23 -13 14 0 68 -39 130 -95 36 -32
76 -60 124 -86 24 -13 51 -31 60 -39 25 -25 159 -133 187 -152 14 -9 29 -20
32 -25 3 -4 31 -27 62 -51 31 -23 99 -84 152 -135 52 -50 120 -116 151 -144
46 -43 56 -58 56 -85 0 -38 -15 -100 -36 -145 -8 -17 -14 -37 -14 -44 0 -21
-33 -103 -47 -117 -7 -7 -13 -19 -13 -25 0 -7 -18 -33 -39 -58 -44 -51 -111
-80 -137 -59 -7 7 -20 10 -27 7 -8 -3 -27 6 -42 19 -15 13 -31 24 -34 24 -3 0
-22 14 -41 31 -19 16 -64 46 -100 66 -36 20 -81 51 -100 68 -20 17 -71 57
-115 90 -44 32 -84 62 -90 67 -5 5 -32 25 -60 46 -27 20 -57 45 -67 54 -9 10
-34 28 -55 42 -21 13 -56 41 -78 62 -71 67 -382 314 -395 314 -4 0 -42 24 -85
53 -42 28 -87 57 -98 64 -11 6 -24 19 -29 27 -5 9 -14 16 -20 16 -7 0 -22 10
-35 22 l-24 22 91 87 c49 48 90 90 90 93 0 4 11 19 25 34 14 15 34 45 44 67
10 22 36 76 57 120 21 44 37 86 35 93 -3 16 10 15 35 -3z m334 -1155 c21 -16
22 -21 10 -29 -8 -5 -20 -6 -28 -2 -14 8 -159 -10 -214 -27 -37 -12 -96 -23
-148 -28 -27 -2 -46 -15 -84 -56 -27 -29 -90 -96 -140 -148 -49 -52 -105 -117
-124 -145 -35 -50 -116 -134 -130 -136 -4 0 -26 -25 -50 -55 l-43 -54 -44 33
c-24 17 -44 34 -45 37 0 8 102 111 170 170 73 64 110 102 110 112 0 5 5 8 10
8 6 0 36 28 68 62 31 33 63 66 71 72 7 6 41 39 75 74 50 50 69 64 101 68 22 3
51 10 65 14 32 12 100 20 228 27 56 3 102 10 102 14 0 14 13 10 40 -11z m115
-132 c25 12 67 3 79 -16 6 -10 -41 -35 -53 -27 -5 2 -23 0 -42 -6 -19 -6 -77
-19 -129 -29 -52 -10 -112 -22 -133 -28 -20 -5 -58 -9 -82 -8 -37 1 -45 -2
-45 -16 0 -10 -4 -18 -8 -18 -5 0 -9 -7 -9 -15 0 -14 -23 -44 -143 -178 -36
-40 -72 -82 -81 -93 -26 -32 -215 -208 -236 -221 -17 -10 -27 -7 -65 21 l-46
32 31 34 c17 19 69 78 117 130 48 52 103 113 121 135 19 22 64 72 101 110 36
39 81 86 100 106 28 30 43 37 108 48 110 20 109 19 119 26 5 3 61 8 123 11 62
3 115 8 117 10 2 2 10 -1 18 -8 10 -8 20 -8 38 0z m-1929 -77 c69 -37 85 -49
100 -76 6 -11 33 -33 60 -48 27 -16 51 -33 52 -38 2 -5 8 -9 13 -9 5 0 29 -16
55 -35 25 -19 52 -35 60 -35 8 0 14 -7 14 -15 0 -8 4 -15 9 -15 18 0 110 -66
116 -83 4 -9 11 -15 16 -12 5 4 9 2 9 -2 0 -5 16 -15 35 -22 19 -7 47 -22 63
-35 15 -12 50 -35 77 -51 28 -16 64 -42 80 -59 17 -17 32 -31 35 -31 3 0 24
-13 47 -28 24 -15 47 -27 52 -27 6 0 14 -7 18 -15 7 -13 34 -32 122 -90 86
-57 116 -75 125 -75 5 0 24 -11 42 -25 18 -14 37 -25 43 -25 6 0 11 -4 11 -9
0 -5 9 -13 21 -16 20 -7 81 -58 141 -120 16 -16 40 -36 53 -45 12 -8 49 -39
81 -68 103 -93 115 -103 146 -122 34 -20 94 -69 146 -117 18 -18 37 -33 42
-33 4 0 36 -27 71 -60 35 -33 67 -60 71 -60 14 0 49 -34 84 -79 43 -55 45
-108 9 -188 -34 -74 -107 -185 -142 -214 -15 -13 -46 -46 -68 -74 -22 -27 -53
-64 -70 -81 l-31 -31 -22 24 c-13 15 -29 23 -37 19 -8 -3 -15 -2 -15 3 0 14
-94 -6 -150 -32 -131 -60 -224 -196 -221 -324 1 -59 27 -133 52 -149 5 -3 9
-10 9 -15 0 -18 -138 -147 -179 -169 -59 -30 -177 -52 -236 -45 -46 6 -189 69
-225 100 -8 7 -26 16 -40 20 -22 7 -54 24 -115 62 -11 7 -44 26 -72 43 -29 17
-55 36 -58 41 -4 5 -34 27 -68 49 -34 22 -79 56 -102 75 -22 19 -61 53 -86 75
-25 22 -50 40 -56 40 -5 0 -28 18 -51 40 -22 22 -45 40 -49 40 -4 1 -24 14
-43 30 -19 17 -38 30 -43 30 -13 0 -157 98 -192 130 -16 15 -55 44 -85 65 -30
20 -70 50 -87 66 -18 16 -36 29 -41 29 -4 0 -40 30 -78 68 -39 37 -91 85 -115
107 -24 22 -58 57 -75 76 -17 20 -55 54 -85 76 -30 22 -63 50 -73 62 -11 11
-25 21 -33 21 -7 0 -13 4 -13 8 0 5 -17 18 -37 30 -53 30 -193 170 -193 192 0
5 -6 13 -14 17 -54 32 -72 217 -28 303 44 88 46 89 91 39 22 -24 41 -49 41
-56 0 -10 45 -70 90 -119 11 -12 20 -25 20 -29 0 -4 10 -18 23 -30 12 -12 32
-40 45 -61 19 -31 100 -97 122 -99 6 -1 79 -24 100 -32 8 -3 20 -7 27 -9 15
-3 73 61 73 80 0 12 67 91 146 170 17 18 55 61 85 96 30 36 85 96 124 135 38
38 77 80 85 91 8 12 42 53 75 92 33 38 84 100 113 137 47 61 52 73 52 118 0
46 -3 52 -52 98 -29 27 -59 49 -66 49 -19 0 -262 246 -262 265 0 8 -4 15 -10
15 -5 0 -10 7 -10 15 0 9 14 16 38 20 20 4 44 7 52 9 43 7 93 -4 146 -33z
m-283 -107 c27 -32 27 -33 7 -39 -26 -8 -29 -5 -36 30 -3 16 -9 36 -14 46 -14
25 -11 38 3 15 7 -11 25 -34 40 -52z m-100 -2 c8 -23 12 -44 8 -46 -11 -6
-101 0 -108 8 -5 4 12 26 35 48 24 22 45 38 47 36 2 -1 10 -22 18 -46z m-123
-156 c5 -16 9 -30 8 -31 -2 -2 -22 -6 -45 -10 l-43 -7 0 44 c0 25 3 47 6 50
13 14 64 -18 74 -46z m329 35 l22 -19 -31 -6 c-16 -3 -43 -8 -59 -12 -23 -4
-29 -1 -34 17 -8 31 -3 35 41 37 26 1 47 -5 61 -17z m-163 -16 c4 -14 5 -27 3
-29 -2 -2 -27 -6 -55 -9 -50 -5 -52 -4 -57 21 -7 38 -2 42 53 42 45 0 50 -2
56 -25z m230 -123 c4 -26 10 -54 15 -64 11 -20 1 -24 -67 -27 -58 -3 -68 6
-82 64 -5 22 -11 46 -13 54 -3 11 9 15 49 17 30 1 56 5 59 8 14 14 33 -11 39
-52z m-201 5 c30 -94 28 -102 -31 -105 l-50 -3 -11 48 c-7 26 -14 55 -18 64
-5 14 2 17 48 18 48 0 56 -3 62 -22z m-156 -34 c18 -63 15 -73 -21 -73 -18 0
-42 -3 -54 -6 -13 -3 -21 -1 -21 8 0 7 -3 30 -7 51 -5 33 -3 39 17 47 12 5 34
9 49 9 23 1 29 -5 37 -36z m480 -1 c31 -23 32 -26 15 -32 -10 -4 -30 -4 -44 0
-19 5 -26 14 -28 39 -4 37 -2 36 57 -7z m-645 -4 c3 -13 6 -37 6 -54 0 -30 -2
-32 -43 -35 -24 -2 -44 0 -45 6 0 6 -3 25 -6 44 -7 43 7 61 49 61 25 0 34 -5
39 -22z m-149 -98 c-3 -5 -11 -10 -16 -10 -6 0 -7 5 -4 10 3 6 11 10 16 10 6
0 7 -4 4 -10z m805 -9 c0 -5 -7 -14 -15 -21 -12 -10 -15 -10 -15 2 0 8 3 18 7
21 9 10 23 9 23 -2z m-92 -48 c6 -26 8 -51 6 -55 -3 -4 -32 -8 -65 -8 -59 0
-60 1 -75 35 -24 59 -21 65 41 64 31 -1 59 1 62 5 14 14 22 4 31 -41z m-199
-15 c14 -62 7 -71 -50 -72 -45 -1 -46 0 -62 81 -6 31 -6 32 36 36 23 2 47 4
53 5 6 1 16 -21 23 -50z m-181 29 c10 -11 34 -99 29 -103 -1 -1 -30 -4 -64 -7
l-61 -5 -7 56 c-5 41 -3 57 7 63 20 13 84 11 96 -4z m-165 -73 l2 -58 -47 -4
-48 -4 0 51 c0 28 -1 54 -2 58 -4 10 75 32 85 23 4 -4 9 -33 10 -66z m-152 28
c1 -9 3 -34 5 -54 l3 -38 -49 0 -49 0 5 33 c8 49 12 72 13 73 1 0 17 1 36 2
26 1 35 -3 36 -16z m-151 -86 c0 -8 -7 -17 -16 -20 -25 -10 -30 2 -8 19 24 18
24 18 24 1z m780 -20 c0 -3 -4 -8 -10 -11 -5 -3 -10 -1 -10 4 0 6 5 11 10 11
6 0 10 -2 10 -4z m-87 -25 c-2 -10 2 -25 11 -33 25 -25 -1 -40 -37 -22 -16 9
-26 11 -23 5 6 -9 -22 -31 -41 -31 -9 0 -33 57 -33 78 0 10 29 16 102 20 21 2
25 -2 21 -17z m-176 -33 c7 -24 8 -46 4 -51 -4 -4 -36 -10 -72 -13 l-64 -6 -3
46 c-3 53 11 64 83 65 40 1 41 0 52 -41z m-195 9 c4 -7 8 -27 8 -45 l0 -33
-55 2 -55 2 0 38 c0 40 -3 38 75 46 11 1 23 -3 27 -10z m-339 -21 c9 0 18 -6
18 -13 4 -41 2 -48 -14 -51 -51 -10 -102 33 -76 64 7 9 19 12 33 7 12 -3 29
-7 39 -7z m185 -18 c-3 -30 -7 -34 -46 -42 -23 -5 -45 -7 -48 -4 -3 3 -8 22
-11 42 l-6 36 57 0 57 0 -3 -32z m457 -88 c-3 -5 -10 -10 -16 -10 -5 0 -9 5
-9 10 0 6 7 10 16 10 8 0 12 -4 9 -10z m-446 -62 c1 -15 -8 -18 -54 -18 -54 0
-55 1 -55 29 0 27 4 30 48 38 50 9 58 2 61 -49z m363 23 l3 -36 -68 -2 c-56
-1 -69 2 -77 17 -25 46 -13 54 87 56 l51 2 4 -37z m-225 17 c6 -7 13 -23 16
-35 5 -22 2 -23 -49 -23 l-54 0 0 35 c0 34 1 35 39 35 21 0 43 -6 48 -12z
m-307 -34 c0 -28 -15 -25 -23 6 -3 13 0 20 9 20 8 0 14 -10 14 -26z m180 -124
l0 -40 -42 6 c-47 7 -63 18 -73 52 -6 21 -4 22 54 22 l61 0 0 -40z m155 30
c-3 -4 -1 -10 4 -12 5 -1 11 -16 13 -33 3 -30 3 -30 -54 -33 -42 -2 -58 1 -59
10 -1 7 -3 27 -5 45 l-4 32 55 0 c31 0 53 -4 50 -9z m138 3 c-7 -2 -13 -10
-13 -17 0 -7 -8 -20 -18 -30 -18 -15 -19 -15 -30 9 -18 39 -16 42 31 43 23 0
36 -2 30 -5z m-283 -158 c0 -29 -7 -31 -32 -8 -25 22 -23 33 7 33 20 0 25 -5
25 -25z m140 0 c0 -8 -11 -26 -23 -41 -32 -37 -56 -27 -55 23 l0 38 39 -3 c24
-3 39 -9 39 -17z m38 -765 c18 -17 20 -25 12 -46 -6 -14 -83 -97 -171 -185
l-161 -159 -34 21 c-57 35 -68 22 190 231 57 47 104 99 117 131 14 32 19 33
47 7z m215 -167 c20 -18 42 -33 47 -33 6 0 10 -4 10 -10 0 -5 -7 -7 -15 -4 -9
4 -21 -4 -31 -23 -9 -16 -32 -40 -50 -53 -18 -14 -34 -29 -34 -34 0 -9 -36
-45 -68 -68 -10 -7 -46 -47 -80 -88 -89 -108 -84 -106 -129 -64 -21 19 -50 42
-65 51 -15 10 -29 22 -32 29 -5 13 55 84 144 169 122 118 173 165 177 165 11
0 31 29 25 36 -14 16 64 -41 101 -73z m2492 -292 c3 -5 1 -12 -5 -16 -5 -3
-10 -13 -10 -22 0 -16 -44 -63 -59 -63 -4 0 -17 -9 -30 -21 -29 -28 -37 -18
-17 22 9 18 16 36 16 41 0 5 14 22 30 38 30 30 63 39 75 21z m415 -123 c0 -54
-14 -98 -41 -129 -15 -18 -31 -30 -35 -26 -4 4 -9 28 -10 53 -2 40 2 50 33 85
40 45 53 49 53 17z m401 -8 c29 -16 26 -83 -5 -117 l-25 -26 -5 24 c-13 55
-10 129 5 129 6 0 19 -5 30 -10z"/>
<path d="M3350 4348 c-8 -13 -23 -39 -33 -58 -18 -33 -58 -93 -112 -168 -13
-18 -33 -40 -45 -50 -30 -24 -14 -62 42 -95 24 -14 60 -41 80 -61 20 -20 41
-36 45 -36 4 0 33 -23 63 -52 30 -28 73 -63 95 -77 54 -35 119 -84 123 -93 2
-5 8 -8 14 -8 12 0 83 -55 145 -114 24 -22 57 -46 74 -53 18 -7 44 -26 59 -41
15 -15 38 -34 52 -42 15 -8 59 -40 100 -70 40 -30 92 -68 114 -83 23 -15 59
-46 80 -67 22 -22 43 -40 49 -40 5 0 25 -15 45 -34 l35 -35 48 17 c63 22 116
66 133 111 22 53 35 83 50 113 8 14 14 43 14 63 0 42 -37 85 -126 145 -27 19
-51 36 -54 40 -3 3 -36 28 -75 55 -38 27 -91 71 -117 97 -26 26 -52 48 -57 48
-5 0 -18 10 -28 23 -10 13 -33 34 -52 47 -48 35 -68 50 -110 88 -20 18 -97 79
-171 134 -74 56 -146 112 -160 125 -14 13 -29 23 -33 23 -5 0 -39 26 -75 59
-37 32 -77 62 -89 65 -13 4 -23 11 -23 16 0 7 -60 30 -80 30 -3 0 -12 -10 -20
-22z m93 -74 c18 -9 51 -33 74 -53 85 -74 101 -86 127 -100 14 -8 26 -18 26
-23 0 -4 5 -8 10 -8 6 0 23 -11 38 -25 15 -14 50 -41 78 -60 28 -19 72 -54 99
-79 26 -26 50 -46 53 -46 2 0 23 -16 46 -35 22 -19 57 -48 76 -64 19 -16 74
-62 121 -103 87 -74 182 -147 264 -204 73 -50 85 -65 85 -99 0 -45 -21 -60
-57 -42 -15 8 -37 24 -47 36 -11 12 -25 21 -32 21 -7 0 -24 14 -37 30 -14 17
-32 30 -39 30 -7 0 -35 18 -62 40 -26 22 -54 40 -60 40 -7 0 -22 10 -33 23
-35 38 -79 73 -157 121 -41 26 -93 61 -114 79 -21 18 -51 41 -67 52 -16 11
-38 29 -50 40 -12 11 -41 33 -65 49 -47 31 -141 103 -178 136 -12 11 -27 20
-32 20 -4 0 -10 4 -12 8 -1 5 -32 28 -66 52 -73 49 -96 85 -69 105 9 7 17 20
17 29 0 9 5 16 10 16 6 0 10 7 10 15 0 19 4 19 43 -1z m-102 -168 c14 -13 44
-35 67 -50 24 -15 53 -35 65 -46 12 -10 33 -28 46 -39 13 -12 28 -21 32 -21 4
0 19 -10 32 -22 50 -46 76 -67 98 -79 13 -7 29 -17 35 -23 40 -39 83 -73 107
-85 15 -8 50 -34 78 -57 27 -24 75 -57 107 -74 31 -17 77 -50 102 -75 25 -24
50 -44 56 -45 6 0 17 -7 24 -15 7 -9 15 -13 18 -11 2 3 15 -8 29 -24 13 -16
34 -32 46 -36 12 -4 36 -18 54 -33 17 -14 53 -42 78 -61 59 -44 75 -59 75 -71
0 -15 -69 -86 -89 -92 -12 -3 -27 4 -40 19 -12 13 -26 24 -33 24 -6 0 -26 15
-43 33 -17 17 -41 39 -54 47 -28 18 -72 51 -92 67 -8 7 -48 37 -89 67 -41 30
-84 63 -95 73 -11 10 -43 32 -70 50 -28 18 -59 40 -70 50 -23 21 -209 163
-234 178 -69 44 -99 65 -116 85 -11 12 -47 43 -80 69 -33 25 -72 56 -86 69
-14 12 -34 28 -44 36 -17 12 -17 14 1 42 10 16 21 31 24 34 4 3 9 13 13 23 8
23 17 22 48 -7z"/>
</g>
</svg>
