<?xml version="1.0" standalone="no"?>
<!DOCTYPE svg PUBLIC "-//W3C//DTD SVG 20010904//EN"
 "http://www.w3.org/TR/2001/REC-SVG-20010904/DTD/svg10.dtd">
<svg version="1.0" xmlns="http://www.w3.org/2000/svg"
 width="521.000000pt" height="359.000000pt" viewBox="0 0 521.000000 359.000000"
 preserveAspectRatio="xMidYMid meet">
<metadata>
Created by potrace 1.16, written by Peter Selinger 2001-2019
</metadata>
<g transform="translate(0.000000,359.000000) scale(0.100000,-0.100000)"
fill="#000000" stroke="none">
<path d="M2259 3426 c-2 -2 -17 -6 -34 -9 -99 -16 -184 -60 -227 -118 -32 -42
-43 -115 -28 -178 9 -37 24 -60 66 -102 30 -29 54 -50 54 -45 0 5 7 3 16 -5
16 -13 149 -18 189 -7 32 9 95 41 95 48 0 4 16 7 35 8 20 1 43 5 52 10 11 7
24 0 50 -26 65 -65 87 -158 53 -222 -6 -12 -9 -24 -7 -27 3 -3 -1 -23 -9 -45
-20 -58 -17 -89 13 -135 27 -42 53 -57 143 -84 94 -29 214 -5 239 46 54 116
68 195 43 255 -8 19 -18 62 -22 95 -5 33 -11 68 -15 78 -9 22 13 22 91 2 53
-14 59 -13 105 6 63 27 104 87 114 165 7 59 -2 154 -14 154 -5 0 -21 12 -37
28 -26 24 -63 43 -118 59 -11 4 -27 14 -37 24 -17 17 -20 17 -68 -14 -27 -18
-51 -40 -54 -51 -4 -12 -10 -15 -19 -10 -18 12 -48 12 -48 1 0 -5 -14 -6 -32
-3 -44 9 -220 13 -233 5 -5 -4 -45 -9 -89 -12 -76 -5 -80 -7 -119 -47 -38 -38
-41 -45 -39 -90 2 -43 -2 -51 -28 -74 -31 -26 -87 -46 -127 -46 -36 0 -97 29
-116 55 -46 63 -18 164 46 165 9 0 17 4 17 9 0 5 12 14 28 19 15 5 34 13 44
17 12 5 18 -1 23 -23 10 -49 55 -76 97 -58 22 10 33 62 18 81 -7 8 -10 15 -7
15 3 0 -5 11 -19 25 -14 14 -28 25 -32 25 -4 0 -13 9 -20 20 -12 19 -24 25
-33 16z m870 -167 c50 -18 62 -55 40 -129 -7 -22 -21 -42 -33 -48 -27 -12
-104 -4 -128 12 -33 23 -78 89 -69 100 4 6 11 24 15 40 6 23 11 27 32 23 13
-2 27 0 30 4 7 13 75 11 113 -2z m-419 -39 c19 3 56 1 83 -4 40 -7 47 -12 47
-33 0 -20 -3 -22 -19 -14 -10 6 -43 8 -72 5 -30 -4 -61 -6 -69 -7 -21 -1 -40
-22 -42 -47 -3 -23 52 -74 58 -55 4 11 104 7 104 -5 0 -4 11 -19 24 -33 22
-24 38 -72 52 -152 8 -54 27 -115 35 -121 27 -16 -15 -164 -47 -164 -7 0 -14
-4 -16 -9 -5 -17 -144 10 -174 34 -25 20 -25 23 -14 60 19 63 24 249 8 285 -7
16 -17 30 -21 30 -5 0 -5 5 -2 10 3 6 1 10 -4 10 -6 0 -11 7 -11 15 0 8 -11
27 -24 42 -69 78 -71 79 -103 77 -30 -1 -33 1 -33 27 0 24 5 30 38 38 52 15
81 17 127 11 22 -3 56 -3 75 0z"/>
<path d="M3657 2913 c-8 -8 -27 -10 -144 -17 -48 -2 -95 -7 -103 -10 -8 -3
-78 -7 -155 -10 -151 -5 -170 -9 -185 -37 -23 -42 -4 -79 41 -79 39 -1 152 9
165 14 7 3 61 8 121 11 59 4 123 10 140 15 18 5 133 6 255 4 261 -5 226 -5
313 1 340 21 414 2 519 -130 31 -38 56 -76 56 -82 0 -7 4 -13 8 -13 4 0 13
-39 19 -87 11 -78 10 -94 -8 -160 -12 -46 -29 -84 -44 -99 -14 -14 -22 -31
-19 -39 4 -10 0 -15 -10 -15 -9 0 -19 -6 -22 -14 -3 -8 -24 -25 -47 -36 -23
-12 -55 -34 -72 -49 -25 -24 -46 -37 -75 -46 -3 -1 -23 -5 -45 -10 -22 -4 -44
-10 -50 -14 -5 -3 -23 -6 -40 -6 -16 -1 -55 -4 -85 -8 -30 -3 -107 -9 -170
-13 -63 -4 -137 -8 -165 -10 -83 -5 -188 -14 -215 -19 -45 -8 -181 -16 -338
-20 -84 -2 -219 -7 -300 -10 -81 -4 -226 -8 -322 -10 -212 -4 -376 -12 -490
-26 -47 -5 -96 -9 -110 -8 -14 1 -130 -1 -257 -5 -183 -5 -233 -3 -233 7 0 9
-2 9 -8 0 -6 -9 -47 -12 -142 -12 -74 0 -171 -3 -215 -7 -178 -15 -338 -9
-420 16 -33 10 -72 21 -86 24 -15 3 -40 18 -57 34 -16 15 -45 39 -63 54 -51
39 -89 76 -89 86 0 6 -7 12 -15 16 -8 3 -15 14 -15 24 0 11 -7 36 -15 55 -20
48 -21 164 -2 202 8 17 23 48 33 70 31 68 101 132 194 178 47 23 89 41 93 39
5 -1 32 5 60 13 29 9 67 18 86 21 18 2 43 10 54 16 13 7 97 12 217 14 107 2
278 6 380 9 102 3 226 5 275 5 271 -2 458 1 466 6 5 3 36 5 69 5 77 0 106 20
95 68 -8 36 -41 56 -64 38 -16 -14 -243 -22 -588 -22 -139 0 -253 -2 -253 -5
0 -3 -130 -6 -289 -8 -219 -2 -301 -6 -338 -17 -26 -8 -59 -15 -73 -15 -14 0
-38 -7 -54 -15 -17 -9 -50 -20 -75 -26 -25 -5 -64 -18 -86 -29 -22 -10 -56
-25 -76 -33 -78 -32 -172 -141 -215 -249 -14 -35 -29 -72 -34 -83 -13 -26 -30
-192 -23 -230 14 -87 46 -215 54 -215 5 0 9 -6 9 -14 0 -19 42 -96 52 -96 4 0
8 -7 8 -15 0 -8 7 -15 15 -15 8 0 17 -11 21 -25 5 -19 9 -23 19 -15 9 8 14 5
18 -10 3 -11 16 -24 29 -29 12 -5 34 -21 48 -35 13 -15 43 -35 65 -45 22 -10
57 -35 77 -57 50 -53 118 -145 118 -160 0 -6 7 -14 15 -18 8 -3 15 -12 15 -21
0 -8 4 -15 9 -15 5 0 12 -13 16 -29 3 -16 13 -35 21 -42 8 -6 14 -15 14 -20 0
-5 9 -28 19 -52 21 -45 31 -76 36 -110 2 -12 9 -40 15 -62 6 -22 16 -60 21
-85 5 -25 21 -93 35 -151 14 -58 24 -109 23 -115 -3 -10 11 -45 51 -126 37
-74 30 -102 -50 -186 -33 -34 -60 -67 -60 -73 0 -6 -7 -18 -16 -26 -29 -29 6
-123 46 -123 5 0 10 -4 10 -9 0 -5 16 -18 36 -30 37 -22 93 -27 123 -11 36 19
157 38 211 33 84 -8 103 -5 125 20 31 33 59 98 59 137 l1 35 190 1 c223 1 615
13 625 19 4 2 103 7 221 9 118 3 320 10 449 16 129 5 280 9 335 9 67 -1 117 4
150 15 46 15 51 15 60 0 6 -9 20 -29 33 -44 12 -15 22 -32 22 -36 0 -5 14 -25
30 -44 16 -19 30 -39 30 -44 0 -5 3 -6 7 -3 3 4 12 2 18 -3 24 -20 123 -47
139 -38 9 5 20 7 24 4 10 -6 150 -8 172 -3 64 17 91 42 109 104 21 77 -1 120
-103 198 -36 28 -65 55 -66 60 0 6 14 18 30 27 17 9 30 23 30 31 0 8 7 20 15
27 23 19 72 139 80 196 9 65 37 199 45 214 4 8 10 35 13 60 3 25 12 68 21 95
8 28 24 91 35 140 32 150 79 273 140 367 31 48 61 87 67 88 13 0 28 26 28 50
1 8 14 21 31 29 16 8 36 20 43 28 8 7 22 18 32 23 18 10 77 119 83 155 9 51
39 183 49 210 26 77 21 214 -11 298 -6 15 -8 27 -6 27 3 0 -7 22 -23 49 -45
79 -200 231 -235 231 -9 0 -18 4 -22 9 -5 10 -194 28 -230 23 -50 -7 -611 -7
-616 0 -3 5 -8 5 -12 1z m965 -893 c-41 -66 -226 -166 -318 -172 -16 -1 -33
-4 -39 -7 -5 -3 -23 -7 -40 -7 -16 -1 -57 -5 -90 -8 -69 -8 -134 -13 -260 -21
-49 -3 -139 -10 -200 -15 -136 -13 -275 -11 -275 4 0 6 -4 6 -8 -2 -6 -8 -55
-16 -143 -22 -74 -6 -141 -12 -149 -15 -8 -2 -40 -7 -70 -9 -30 -3 -66 -8 -80
-11 -14 -3 -52 -8 -85 -11 -33 -2 -73 -7 -90 -9 -32 -6 -302 -22 -470 -29 -55
-2 -120 -8 -145 -14 -114 -26 -397 -33 -730 -19 -203 9 -359 11 -365 5 -4 -4
-175 8 -249 17 -53 7 -105 30 -176 78 -57 39 -132 115 -125 126 3 5 -2 11 -10
15 -8 3 -15 11 -15 18 0 9 3 9 8 2 4 -6 32 -25 63 -42 31 -18 62 -39 69 -47 7
-8 28 -15 47 -15 19 0 36 -6 39 -13 3 -8 10 -14 17 -15 7 0 23 -3 37 -7 29 -7
218 -36 240 -36 27 -1 174 11 207 16 17 2 186 7 375 9 323 5 463 11 533 21 17
2 75 7 130 10 55 3 125 8 155 11 30 2 145 6 255 9 110 3 238 7 284 11 45 3
149 7 230 10 314 10 560 25 631 39 14 3 88 8 165 10 131 6 250 13 250 15 0 1
19 3 42 5 22 2 49 6 60 9 10 3 38 8 63 11 24 3 58 12 74 20 16 8 35 15 42 15
7 0 14 4 16 8 3 7 108 82 115 82 2 0 -5 -13 -15 -30z m-227 -277 c-10 -16 -24
-37 -32 -48 -7 -11 -13 -28 -13 -38 0 -10 -4 -16 -9 -13 -8 6 -63 -138 -83
-219 -5 -22 -13 -47 -17 -55 -4 -8 -14 -40 -21 -70 -7 -30 -16 -68 -21 -84 -5
-15 -7 -32 -4 -35 2 -4 -2 -29 -10 -54 -8 -26 -12 -47 -9 -47 3 0 -2 -10 -10
-22 -9 -12 -16 -35 -16 -50 0 -15 -4 -29 -10 -33 -5 -3 -7 -12 -3 -20 3 -8 2
-23 -2 -32 -4 -10 -8 -25 -9 -33 -4 -47 -20 -116 -28 -121 -5 -3 -10 -20 -11
-37 -1 -18 -8 -32 -14 -32 -7 0 -13 -7 -13 -15 0 -35 -49 -66 -240 -153 -35
-15 -230 -51 -283 -52 -15 0 -42 7 -59 16 -30 16 -33 15 -47 -3 -9 -10 -24
-22 -34 -26 -21 -8 -233 -15 -651 -23 -154 -3 -284 -8 -289 -11 -21 -13 -752
-20 -858 -8 -85 9 -197 33 -235 50 -50 23 -122 93 -129 125 -4 17 -10 30 -14
30 -10 0 -37 100 -55 200 -9 47 -25 119 -37 160 -11 41 -29 107 -39 145 -10
39 -24 84 -31 100 -13 31 -16 40 -18 53 0 5 -10 19 -21 32 -11 13 -20 28 -20
34 0 6 -14 29 -30 50 -17 22 -30 45 -30 52 0 6 -7 14 -15 18 -8 3 -15 14 -15
23 0 10 -7 28 -15 40 l-15 21 223 -4 c435 -7 668 -14 678 -19 5 -4 9 -3 9 2 0
4 26 8 58 9 113 2 288 16 318 25 43 13 81 16 284 24 96 3 195 8 220 12 51 7
99 11 185 18 33 2 71 7 85 11 47 13 55 14 125 19 39 3 84 7 100 10 28 6 36 6
68 4 6 0 50 2 97 6 47 3 141 7 210 9 69 2 148 7 175 10 28 3 91 7 140 10 50 3
122 8 160 12 39 3 88 7 110 8 22 1 45 4 50 7 6 3 35 6 65 8 43 1 121 16 169
30 2 1 -5 -11 -14 -26z m-415 -1288 c13 -14 29 -25 35 -25 7 0 20 -9 30 -20
10 -11 24 -20 31 -20 7 0 26 -14 44 -31 30 -31 34 -64 8 -80 -6 -4 -63 -5
-128 -4 -100 2 -122 6 -138 21 -20 19 -92 111 -92 117 0 2 26 12 58 22 31 9
71 23 87 31 40 17 38 17 65 -11z m-2645 -81 c22 -10 54 -19 70 -22 84 -11 100
-17 102 -42 1 -14 4 -37 6 -52 4 -24 1 -27 -32 -31 -20 -2 -45 -1 -57 4 -21 7
-83 -2 -172 -27 -41 -12 -60 -13 -87 -4 -35 12 -56 40 -29 40 8 0 13 4 9 10
-3 5 10 27 30 48 19 22 35 45 35 51 0 6 4 11 9 11 5 0 13 9 16 21 8 24 32 22
100 -7z"/>
</g>
</svg>
