<?xml version="1.0" standalone="no"?>
<!DOCTYPE svg PUBLIC "-//W3C//DTD SVG 20010904//EN"
 "http://www.w3.org/TR/2001/REC-SVG-20010904/DTD/svg10.dtd">
<svg version="1.0" xmlns="http://www.w3.org/2000/svg"
 width="529.000000pt" height="411.000000pt" viewBox="0 0 529.000000 411.000000"
 preserveAspectRatio="xMidYMid meet">
<metadata>
Created by potrace 1.16, written by Peter Selinger 2001-2019
</metadata>
<g transform="translate(0.000000,411.000000) scale(0.100000,-0.100000)"
fill="#000000" stroke="none">
<path d="M2675 4032 c-2 -3 -33 -7 -67 -9 -48 -4 -67 -10 -79 -25 -11 -14 -21
-18 -30 -13 -22 14 -79 6 -136 -20 -29 -14 -58 -25 -64 -25 -5 0 -15 -5 -22
-11 -7 -5 -50 -37 -97 -69 -47 -32 -93 -66 -102 -74 -10 -9 -22 -16 -26 -16
-5 0 -18 -8 -30 -17 -11 -10 -30 -25 -43 -33 -12 -8 -37 -27 -54 -42 -18 -16
-37 -28 -42 -28 -5 0 -39 -27 -76 -60 -38 -33 -71 -60 -75 -60 -4 0 -25 -17
-47 -38 -46 -43 -209 -162 -223 -162 -5 0 -17 -9 -27 -20 -10 -11 -23 -20 -29
-20 -6 0 -29 -21 -50 -45 -21 -25 -41 -44 -43 -42 -2 3 -27 -17 -56 -44 -29
-27 -58 -49 -65 -49 -7 0 -38 -24 -70 -53 -31 -29 -73 -63 -92 -77 -45 -32
-60 -46 -60 -59 0 -6 -4 -11 -8 -11 -25 0 -235 -238 -237 -269 -2 -20 -28 -81
-35 -81 -5 0 -12 -14 -15 -32 -4 -17 -19 -52 -33 -77 -14 -25 -25 -47 -24 -48
1 -2 1 -5 1 -8 -1 -3 -2 -8 -3 -12 -1 -5 -10 -25 -19 -47 -9 -21 -17 -47 -17
-58 0 -11 -5 -29 -12 -41 -14 -26 -15 -31 -23 -126 -3 -40 -8 -90 -11 -110
-10 -78 -4 -243 12 -326 2 -11 6 -33 9 -50 21 -127 29 -157 47 -169 17 -13 16
-15 -29 -36 -67 -32 -122 -50 -148 -50 -30 0 -50 -49 -31 -76 10 -13 21 -15
52 -10 46 9 306 136 386 190 34 22 101 59 153 83 22 10 67 33 100 50 33 18
147 76 253 129 106 53 199 106 207 117 14 20 14 20 24 -4 5 -14 28 -37 50 -52
36 -24 41 -32 39 -61 -3 -51 -5 -52 -143 -126 -83 -44 -86 -46 -200 -103 -60
-30 -153 -77 -205 -104 -187 -98 -172 -90 -323 -165 -239 -118 -262 -132 -265
-164 -2 -20 4 -36 18 -49 12 -11 20 -13 20 -6 0 7 4 10 9 6 6 -3 20 5 33 19
19 20 148 96 163 96 3 0 5 -11 5 -25 0 -18 30 -55 113 -138 115 -115 175 -162
234 -186 18 -7 38 -19 44 -27 6 -8 20 -14 31 -14 10 0 28 -9 40 -20 11 -10 34
-22 50 -26 17 -3 49 -14 72 -24 22 -10 79 -24 126 -30 46 -6 89 -14 95 -18 16
-10 34 -12 130 -11 50 0 99 0 110 0 11 0 42 6 70 14 27 8 61 16 75 17 14 2 30
6 35 10 6 3 27 6 48 6 21 0 43 4 50 9 6 5 39 20 72 33 33 13 77 34 97 48 22
14 48 23 65 21 24 -3 39 6 79 47 27 28 63 59 79 70 26 16 153 106 180 126 6 5
35 27 65 51 52 39 107 93 173 166 16 17 34 31 41 31 15 0 39 -101 30 -124 -3
-8 -1 -17 5 -21 6 -3 8 -17 5 -31 -3 -13 -1 -31 6 -39 6 -7 10 -24 9 -37 -2
-13 1 -30 6 -38 5 -8 10 -17 11 -20 0 -3 3 -12 6 -20 3 -8 16 -43 28 -78 12
-35 36 -91 54 -125 18 -34 36 -73 41 -85 4 -13 14 -32 23 -42 10 -9 31 -40 47
-69 17 -28 33 -51 38 -51 4 0 7 -6 7 -13 0 -6 26 -41 58 -76 31 -34 64 -75 72
-90 22 -37 54 -85 61 -91 3 -3 14 -21 25 -40 45 -81 88 -104 129 -70 8 6 19 9
25 5 11 -7 42 14 110 74 60 53 64 55 120 85 30 17 60 35 67 41 6 7 42 27 79
45 37 19 79 45 93 58 14 14 78 59 141 100 63 42 155 107 203 145 48 37 96 71
105 75 29 12 116 66 127 78 17 19 116 84 130 84 6 0 26 12 43 28 17 15 49 43
72 62 23 19 47 40 53 45 43 38 95 73 112 76 29 6 51 75 30 95 -8 9 -15 21 -15
28 0 7 -12 22 -27 32 -25 17 -82 72 -141 135 -12 13 -27 29 -32 34 -5 6 -39
39 -74 75 -79 80 -157 150 -168 150 -4 0 -8 5 -8 10 0 6 -7 10 -15 10 -8 0
-15 3 -15 8 0 4 -26 35 -58 68 -73 78 -121 138 -148 183 -11 20 -37 58 -57 84
-20 27 -37 55 -37 63 0 8 -11 27 -25 42 -14 15 -25 32 -25 39 0 7 -3 13 -7 13
-15 0 -83 172 -104 260 -4 19 -15 64 -24 100 -9 36 -22 94 -30 130 -7 36 -18
78 -24 94 -7 16 -9 31 -6 34 2 3 1 10 -3 16 -5 6 -24 58 -42 116 -32 101 -69
194 -92 235 -7 11 -18 32 -26 48 -7 15 -17 27 -20 27 -4 0 -16 20 -27 45 -11
25 -23 45 -27 45 -3 0 -10 10 -13 23 -4 12 -15 31 -25 42 -10 11 -31 45 -48
75 -16 30 -41 76 -56 103 -15 26 -24 52 -21 57 3 6 0 10 -9 10 -8 0 -16 4 -18
8 -1 4 -23 23 -47 42 -24 19 -54 44 -65 55 -92 86 -298 217 -373 238 -24 6
-43 14 -43 17 0 3 -17 7 -37 8 -21 2 -45 4 -53 6 -8 1 -31 6 -50 10 -40 8
-298 14 -305 8z m298 -126 c65 -6 148 -28 193 -51 16 -8 34 -15 39 -15 6 0 16
-9 23 -21 7 -12 16 -18 19 -15 4 3 15 -1 25 -11 10 -9 18 -13 18 -9 0 12 196
-144 266 -212 13 -13 24 -29 24 -36 0 -8 7 -16 15 -20 8 -3 15 -15 15 -26 0
-11 5 -20 10 -20 6 0 10 -7 10 -15 0 -8 4 -15 9 -15 5 0 12 -8 15 -17 12 -33
43 -83 48 -78 3 3 13 -14 23 -37 11 -24 38 -70 61 -103 42 -59 104 -182 104
-204 0 -7 6 -22 14 -34 15 -24 48 -139 49 -172 1 -11 5 -23 9 -26 5 -3 11 -23
14 -44 2 -21 11 -52 18 -69 22 -48 26 -86 9 -86 -16 0 -43 -24 -43 -37 1 -18
40 -53 59 -53 15 0 21 -7 23 -22 2 -36 3 -42 15 -63 5 -11 13 -33 17 -50 14
-63 61 -172 95 -225 20 -30 49 -80 65 -110 16 -30 34 -59 40 -65 6 -5 31 -40
54 -77 23 -37 56 -84 74 -105 53 -61 230 -233 268 -261 52 -38 200 -189 200
-204 0 -7 25 -36 57 -65 l56 -53 -27 -21 c-15 -11 -43 -37 -64 -56 -20 -20
-62 -52 -92 -71 -30 -19 -56 -39 -58 -44 -2 -4 -8 -8 -14 -8 -13 0 -110 -70
-121 -87 -4 -7 -12 -13 -17 -13 -13 0 -200 -124 -231 -152 -49 -46 -144 -108
-163 -108 -9 0 -23 -9 -33 -19 -22 -23 -163 -121 -175 -121 -5 0 -17 -8 -28
-17 -10 -10 -72 -49 -137 -88 -65 -38 -136 -86 -158 -106 -22 -20 -48 -38 -57
-42 -20 -7 -64 41 -133 143 -24 36 -60 82 -79 103 -20 21 -36 41 -36 44 0 3
-18 26 -39 52 -22 26 -70 107 -107 181 -71 138 -110 258 -120 365 -3 33 -12
83 -19 110 -8 28 -17 77 -21 110 -3 33 -15 91 -25 130 -10 38 -19 83 -19 100
0 16 -9 52 -19 80 -11 27 -26 75 -34 105 -40 144 -50 176 -57 185 -4 6 -17 39
-28 75 -27 86 -58 156 -71 164 -11 7 -51 92 -51 108 0 13 -75 161 -98 195 -11
16 -39 57 -62 93 -24 36 -47 67 -52 68 -4 2 -8 9 -8 17 0 7 -26 34 -57 61 -32
27 -94 84 -138 128 -79 78 -184 156 -212 156 -8 0 -34 11 -59 25 -25 14 -51
25 -58 25 -7 0 -42 13 -77 29 -56 25 -171 49 -206 43 -6 -2 -14 2 -18 8 -3 5
-25 10 -49 10 -24 0 -56 5 -72 10 -22 8 -52 7 -109 -3 -44 -8 -82 -13 -84 -11
-5 4 68 66 96 81 14 7 41 26 61 41 21 16 55 40 77 54 22 14 50 34 62 44 11 11
34 29 50 42 108 85 153 125 153 134 0 5 8 7 19 3 12 -3 21 0 25 10 3 8 10 15
16 15 15 0 40 25 40 39 0 6 7 11 15 11 8 0 23 9 32 20 10 11 23 20 30 20 7 0
13 5 13 10 0 6 6 10 13 10 7 0 28 16 47 35 19 19 38 35 42 35 5 0 18 8 29 19
20 18 118 71 132 71 4 0 20 6 35 13 15 8 49 19 76 26 27 7 58 19 70 27 26 18
56 20 38 2 -35 -35 15 -99 53 -68 17 14 21 60 5 60 -17 0 -11 18 8 23 19 5
257 0 345 -7z m-1338 -876 c144 -22 238 -45 243 -59 2 -6 12 -11 22 -11 34 0
250 -97 250 -112 0 -4 12 -14 28 -22 34 -19 112 -88 112 -101 0 -6 15 -21 33
-34 17 -13 45 -45 61 -70 30 -46 156 -294 156 -305 0 -3 15 -38 33 -78 19 -40
39 -91 45 -113 6 -22 18 -65 26 -95 31 -112 26 -290 -14 -460 -6 -25 -13 -56
-16 -69 -3 -13 -14 -49 -26 -80 -11 -31 -28 -83 -37 -116 -17 -57 -45 -119
-94 -210 -22 -40 -135 -165 -149 -165 -5 0 -17 -8 -27 -18 -54 -49 -69 -61
-106 -79 -43 -22 -99 -39 -243 -73 -163 -38 -427 -29 -520 19 -21 10 -51 21
-67 24 -31 5 -138 59 -166 83 -8 8 -20 14 -26 14 -6 0 -16 7 -23 15 -7 8 -16
13 -20 10 -9 -6 -240 213 -240 227 0 6 -7 16 -16 22 -13 10 15 27 159 99 96
48 179 87 185 87 6 0 12 3 14 8 3 7 90 52 101 52 3 0 22 11 42 24 20 14 57 33
83 42 26 10 49 21 52 25 3 3 40 23 82 43 43 19 87 45 98 56 11 11 20 17 20 13
0 -5 7 6 16 22 20 40 30 155 15 183 -30 56 -151 108 -151 64 0 -14 -3 -13 -18
5 -17 22 -18 23 -50 5 -18 -9 -117 -60 -220 -112 -103 -52 -191 -98 -197 -103
-5 -4 -95 -50 -198 -101 -117 -59 -190 -90 -193 -83 -2 7 -5 22 -7 34 -2 12
-6 26 -10 29 -4 4 -7 18 -7 30 0 13 -4 25 -8 28 -5 3 -10 18 -10 33 -1 15 -5
61 -10 102 -13 117 -2 362 18 400 5 9 12 34 16 56 4 22 8 42 8 45 6 31 66 178
101 250 52 105 72 138 103 171 17 18 32 38 32 43 0 9 88 96 96 96 2 0 39 34
81 76 80 78 97 87 236 125 47 13 191 27 222 21 11 -2 47 -7 80 -12z m1135
-992 c0 -11 16 -65 36 -121 19 -56 37 -109 39 -117 23 -106 40 -168 50 -194
14 -33 30 -148 26 -181 -1 -11 -17 -33 -35 -50 -17 -16 -47 -49 -65 -72 -18
-24 -37 -43 -41 -43 -5 0 -27 -17 -49 -37 -104 -99 -133 -124 -138 -119 -3 3
4 25 16 49 11 24 21 46 21 50 0 3 5 18 11 34 7 15 13 35 14 43 1 8 16 56 33
105 36 104 42 130 49 205 2 30 7 62 10 70 12 30 14 47 17 150 3 103 -4 211
-18 260 -7 24 -6 24 8 6 9 -11 16 -28 16 -38z"/>
<path d="M2402 3788 c-15 -15 -15 -30 0 -63 12 -27 45 -34 66 -13 18 18 15 36
-13 63 -27 28 -36 30 -53 13z"/>
<path d="M2273 3683 c-18 -7 -16 -58 2 -73 8 -6 23 -9 35 -5 27 9 28 60 1 75
-11 5 -21 10 -23 9 -2 0 -9 -3 -15 -6z"/>
<path d="M2120 3548 c0 -44 13 -62 39 -55 12 3 21 0 22 -6 0 -7 5 1 10 18 5
17 5 33 0 38 -5 5 -7 16 -4 23 4 10 -4 14 -31 14 -34 0 -36 -2 -36 -32z"/>
<path d="M1987 3473 c-4 -3 -7 -19 -7 -35 0 -21 6 -31 26 -38 14 -6 29 -10 34
-10 15 0 21 49 8 70 -12 19 -48 27 -61 13z"/>
<path d="M1846 3354 c-18 -47 9 -79 52 -63 24 9 30 47 10 67 -17 17 -55 15
-62 -4z"/>
<path d="M1700 3245 c-14 -17 -4 -55 19 -71 12 -10 19 -8 33 9 23 26 23 40 0
60 -23 21 -36 21 -52 2z"/>
<path d="M3866 2488 c-16 -9 -16 -43 -1 -68 10 -16 52 -12 59 6 16 43 -21 83
-58 62z"/>
<path d="M3714 2364 c-14 -54 39 -83 63 -34 14 28 5 43 -34 54 -18 6 -24 2
-29 -20z"/>
<path d="M3544 2245 c-4 -8 -3 -26 0 -40 5 -20 13 -25 36 -25 26 0 30 4 30 28
0 15 -5 33 -12 40 -17 17 -47 15 -54 -3z"/>
<path d="M3388 2137 c-36 -27 -24 -77 18 -77 24 0 30 7 36 44 4 26 -33 50 -54
33z"/>
<path d="M3211 2017 c-21 -21 -13 -57 15 -67 14 -6 29 -10 34 -10 13 0 22 51
10 65 -15 18 -46 25 -59 12z"/>
<path d="M3073 1912 c-42 -6 -37 -82 6 -82 18 0 61 39 61 56 0 13 -42 30 -67
26z"/>
<path d="M1462 2959 c-19 -7 -22 -14 -16 -31 8 -27 22 -38 39 -31 7 2 37 -2
66 -10 30 -7 65 -13 79 -12 14 1 50 -9 80 -23 30 -14 70 -27 89 -29 19 -2 43
-9 53 -14 11 -6 48 -20 81 -31 34 -11 71 -28 82 -37 11 -10 36 -24 55 -31 37
-14 46 -22 173 -145 44 -41 83 -75 89 -75 5 0 6 -4 3 -10 -3 -5 -2 -10 2 -10
12 0 89 -137 98 -172 4 -16 10 -28 14 -29 3 0 15 -2 26 -4 41 -8 49 8 29 61
-10 27 -20 51 -23 54 -9 8 -77 112 -90 137 -6 12 -27 30 -46 39 -19 9 -35 20
-35 25 0 23 -151 152 -215 183 -22 11 -55 31 -74 43 -18 12 -37 20 -42 17 -5
-3 -9 0 -9 6 0 6 -4 8 -10 5 -5 -3 -31 3 -56 15 -26 11 -66 23 -88 27 -23 3
-50 11 -61 17 -11 5 -22 11 -25 11 -3 1 -22 9 -44 18 -21 9 -58 17 -82 17 -23
0 -45 4 -48 9 -3 5 -15 7 -25 4 -10 -3 -22 0 -25 6 -8 13 -13 13 -44 0z"/>
<path d="M1649 2840 c-15 -4 -46 -7 -70 -5 -24 1 -52 -2 -61 -7 -11 -5 -25 -5
-36 1 -23 12 -37 3 -45 -31 -13 -51 42 -71 105 -37 12 7 40 12 60 10 20 -1 46
3 58 9 17 9 25 9 38 -3 17 -14 44 -25 120 -48 24 -7 46 -18 50 -26 10 -17 99
-73 117 -73 7 0 35 -18 60 -40 25 -22 52 -40 60 -40 7 0 29 -15 49 -32 20 -18
49 -44 66 -58 16 -14 30 -33 30 -42 0 -10 7 -18 15 -18 8 0 19 -17 26 -40 17
-55 42 -76 73 -62 22 10 23 13 12 46 -6 20 -14 36 -18 36 -5 0 -8 6 -8 13 0 7
-13 27 -30 45 -16 18 -30 36 -30 40 0 4 -12 16 -26 27 -14 11 -38 31 -52 45
-15 14 -44 35 -65 45 -21 11 -56 34 -76 52 -21 17 -51 35 -67 39 -16 3 -34 13
-40 20 -18 23 -126 84 -148 84 -12 0 -34 8 -51 18 -47 28 -88 40 -116 32z"/>
<path d="M1540 2682 c-24 -2 -50 -8 -57 -13 -6 -6 -33 -14 -60 -17 -39 -6 -49
-11 -51 -29 -3 -23 27 -47 50 -38 7 3 27 7 43 10 17 2 49 10 72 17 33 9 63 10
133 1 76 -10 103 -19 177 -59 116 -62 209 -124 259 -171 70 -67 115 -121 119
-144 6 -31 19 -41 46 -37 21 3 24 9 25 45 1 23 -2 41 -6 40 -4 -1 -34 26 -67
61 -32 34 -63 62 -69 62 -5 1 -20 15 -34 31 -58 71 -343 229 -415 229 -22 1
-58 4 -80 8 -22 4 -60 6 -85 4z"/>
<path d="M1505 2520 c-11 -4 -30 -10 -41 -14 -12 -4 -26 -18 -32 -32 -10 -20
-8 -25 8 -34 27 -14 47 -12 70 8 16 13 41 17 111 18 49 1 92 -2 95 -7 3 -5 20
-9 39 -9 21 0 51 -12 85 -35 29 -19 55 -35 59 -35 3 0 24 -16 45 -35 22 -19
42 -35 46 -35 10 0 105 -94 122 -121 9 -14 18 -34 20 -45 2 -10 9 -25 17 -33
17 -19 45 -3 49 28 5 29 -59 123 -107 158 -21 15 -42 36 -47 47 -5 12 -18 23
-29 25 -10 2 -40 20 -65 41 -55 47 -135 90 -165 90 -13 0 -39 7 -58 15 -38 16
-185 19 -222 5z"/>
<path d="M1546 2369 c-16 -5 -33 -6 -38 -3 -12 8 -58 -24 -58 -40 0 -29 25
-37 81 -24 30 6 59 10 64 9 40 -13 94 -22 138 -22 40 -1 60 -8 87 -29 19 -15
45 -31 58 -35 13 -3 27 -18 33 -31 5 -14 13 -23 18 -19 13 7 111 -93 111 -114
1 -20 34 -61 49 -61 24 0 28 43 8 78 -31 52 -156 171 -205 194 -23 11 -51 31
-61 44 -15 19 -29 24 -62 24 -24 0 -62 5 -84 11 -84 22 -111 25 -139 18z"/>
<path d="M1545 2260 c-16 -4 -49 -8 -73 -9 -29 -1 -48 -7 -59 -21 -10 -11 -23
-20 -31 -20 -9 0 -12 -10 -10 -27 4 -36 41 -43 71 -15 18 17 42 22 124 27 94
7 104 5 131 -14 17 -12 37 -21 46 -21 47 0 140 -79 173 -147 8 -18 19 -33 24
-33 4 0 11 -16 15 -35 8 -47 27 -61 60 -46 30 13 29 17 -22 108 -35 64 -162
202 -186 204 -34 2 -63 11 -78 24 -14 12 -40 18 -130 29 -14 2 -38 0 -55 -4z"/>
<path d="M1535 2142 c-11 -2 -24 -8 -30 -12 -5 -4 -26 -10 -46 -14 -39 -7 -85
-48 -74 -65 15 -25 41 -30 71 -15 91 48 167 52 229 10 17 -12 51 -32 76 -45
29 -16 53 -38 65 -60 10 -20 22 -38 26 -41 4 -3 9 -30 12 -60 6 -54 18 -72 46
-67 31 5 27 97 -6 137 -7 8 -19 31 -27 50 -22 51 -66 90 -148 132 -73 36 -155
57 -194 50z"/>
</g>
</svg>
