<?xml version="1.0" standalone="no"?>
<!DOCTYPE svg PUBLIC "-//W3C//DTD SVG 20010904//EN"
 "http://www.w3.org/TR/2001/REC-SVG-20010904/DTD/svg10.dtd">
<svg version="1.0" xmlns="http://www.w3.org/2000/svg"
 width="553.000000pt" height="453.000000pt" viewBox="0 0 553.000000 453.000000"
 preserveAspectRatio="xMidYMid meet">
<metadata>
Created by potrace 1.16, written by Peter Selinger 2001-2019
</metadata>
<g transform="translate(0.000000,453.000000) scale(0.100000,-0.100000)"
fill="#000000" stroke="none">
<path d="M3960 4522 c-30 -4 -50 -28 -50 -58 0 -25 -106 -115 -183 -154 -26
-14 -56 -32 -66 -41 -26 -25 -54 -38 -128 -60 -38 -12 -81 -27 -98 -34 -16 -8
-79 -29 -140 -48 -60 -20 -144 -47 -185 -61 -143 -49 -292 -91 -363 -101 -12
-2 -38 -8 -57 -15 -19 -6 -77 -18 -128 -26 -51 -8 -109 -21 -129 -29 -19 -8
-54 -15 -77 -15 -23 0 -106 -18 -186 -40 -80 -22 -152 -40 -160 -40 -18 0
-150 -40 -270 -82 -76 -27 -190 -61 -245 -73 -40 -9 -131 -38 -160 -50 -79
-34 -101 -41 -112 -38 -7 3 -13 1 -13 -4 0 -4 -12 -13 -27 -20 -100 -43 -130
-54 -161 -58 -37 -5 -72 -29 -72 -51 0 -7 -18 -45 -41 -85 -67 -117 -98 -193
-104 -249 -3 -28 -9 -59 -14 -68 -10 -20 -28 -105 -36 -177 -26 -216 -33 -263
-46 -287 -16 -31 34 -118 77 -133 16 -5 38 -18 48 -27 11 -10 39 -25 63 -34
24 -9 43 -21 43 -25 0 -5 5 -9 10 -9 16 0 34 -16 152 -134 59 -60 108 -114
108 -120 0 -6 23 -36 50 -66 28 -30 61 -79 75 -109 32 -69 80 -133 158 -212
34 -35 77 -89 94 -119 18 -30 53 -77 79 -105 25 -27 63 -70 83 -95 20 -25 44
-54 54 -65 11 -11 32 -39 48 -62 16 -23 36 -46 43 -50 8 -4 41 -33 73 -63 99
-94 121 -109 205 -134 44 -14 88 -32 97 -40 34 -31 111 -36 176 -11 22 8 54
16 72 18 17 2 38 9 46 15 8 7 17 9 20 5 4 -3 7 -1 7 5 0 7 11 12 25 12 14 0
33 4 43 9 9 6 69 35 132 65 102 49 131 64 190 98 8 4 26 14 40 20 14 7 63 37
109 68 46 30 100 64 120 75 20 11 55 33 78 48 24 15 46 27 50 27 9 0 121 56
137 69 6 4 52 22 101 39 50 16 114 40 143 51 29 11 56 20 60 19 14 -4 107 14
150 28 24 8 56 16 70 18 15 2 34 6 42 9 99 34 143 48 185 57 28 6 73 20 100
31 99 42 140 60 159 70 35 20 86 49 119 68 17 10 48 27 67 37 19 11 39 25 43
32 4 6 15 12 22 12 8 0 15 3 15 8 0 4 21 19 47 32 26 14 54 31 61 37 7 7 19
13 26 13 8 0 19 7 26 14 28 34 185 87 261 88 54 1 89 41 87 101 0 23 4 60 10
82 8 31 27 442 25 540 -1 66 -7 115 -14 115 -4 0 -6 14 -5 31 1 16 -1 32 -6
35 -4 3 -8 17 -8 32 0 15 -7 37 -15 49 -10 14 -13 36 -10 67 3 37 0 51 -15 66
-11 11 -20 23 -20 28 0 4 -15 36 -33 72 -19 36 -37 77 -41 93 -3 15 -11 27
-16 27 -5 0 -26 26 -47 58 -20 31 -45 63 -55 70 -10 7 -18 20 -18 28 0 8 -6
14 -14 14 -8 0 -34 16 -57 36 -24 20 -53 40 -64 45 -11 5 -32 17 -47 27 -14 9
-53 32 -85 51 -32 18 -60 37 -63 41 -3 4 -25 18 -50 31 -58 30 -169 102 -195
126 -11 10 -67 59 -125 107 -113 96 -150 132 -150 146 0 5 -6 13 -13 17 -7 4
-23 25 -36 45 -12 21 -28 41 -35 45 -7 5 -25 36 -41 71 -16 34 -33 62 -38 62
-5 0 -15 6 -21 13 -6 7 -22 11 -36 9z m130 -332 c14 -19 38 -46 54 -60 16 -14
50 -45 75 -70 85 -83 141 -129 209 -170 37 -22 90 -60 117 -84 28 -25 67 -53
87 -63 21 -10 38 -21 38 -25 0 -5 6 -8 14 -8 7 0 20 -7 27 -16 7 -9 40 -34 74
-55 33 -21 73 -49 90 -61 46 -35 205 -198 206 -211 2 -34 12 -67 33 -107 20
-39 35 -81 41 -115 7 -40 19 -76 27 -81 5 -3 0 -13 -11 -20 -24 -17 -128 -73
-139 -74 -4 -1 -29 -14 -57 -30 -96 -54 -202 -84 -550 -153 -38 -8 -128 -30
-200 -50 -71 -19 -148 -38 -170 -42 -22 -3 -83 -20 -135 -35 -52 -16 -147 -43
-210 -60 -63 -16 -128 -34 -145 -39 -16 -5 -64 -13 -105 -16 -49 -5 -116 -22
-196 -51 -67 -24 -131 -44 -142 -44 -12 0 -59 -20 -105 -44 -47 -24 -102 -49
-124 -56 -21 -7 -54 -21 -73 -32 -19 -11 -66 -33 -105 -48 -38 -15 -96 -42
-128 -60 -32 -17 -70 -34 -85 -36 -15 -3 -45 -9 -66 -14 -27 -6 -43 -5 -51 3
-22 21 -50 42 -60 47 -14 6 -55 40 -85 71 -14 14 -41 34 -60 45 -19 10 -55 38
-80 61 -25 23 -58 52 -75 64 -16 13 -34 30 -39 39 -11 16 -88 94 -176 177 -30
28 -82 78 -115 112 -32 34 -67 63 -77 67 -9 3 -20 14 -23 25 -4 10 -11 19 -16
19 -5 0 -9 6 -9 14 0 7 -7 20 -16 27 -9 8 -33 47 -52 87 -27 56 -56 94 -125
163 -87 87 -118 108 -250 163 -33 14 -44 36 -17 36 6 0 31 13 57 29 27 16 75
37 108 46 33 9 74 23 90 30 28 13 61 24 89 30 15 3 45 14 76 28 14 6 34 12 45
13 11 1 49 11 85 22 36 11 105 32 153 47 49 14 96 30 105 34 27 13 124 42 157
46 17 2 63 11 104 20 73 15 91 18 226 30 75 7 148 26 285 74 47 17 94 30 104
31 11 0 58 12 105 26 48 15 91 27 96 28 6 1 24 7 40 13 17 6 60 19 98 29 37
11 67 22 67 26 0 5 14 8 30 8 17 0 30 5 30 10 0 6 11 10 23 10 13 0 27 3 31 7
3 4 12 8 19 10 183 42 375 121 422 173 10 11 23 20 30 20 6 0 29 13 51 29 21
15 58 36 82 46 23 11 42 23 42 29 0 13 98 -88 130 -134z m-2935 -945 c82 -38
109 -58 175 -124 43 -43 90 -102 105 -130 14 -29 42 -74 61 -100 18 -27 34
-52 34 -57 0 -5 21 -27 47 -49 47 -41 275 -267 374 -371 57 -60 144 -132 189
-156 14 -7 47 -34 73 -61 27 -26 51 -47 54 -47 14 0 47 -57 50 -87 5 -45 20
-83 33 -83 6 0 8 -5 4 -11 -3 -6 -9 -50 -12 -98 -6 -106 -5 -613 1 -699 4 -58
3 -64 -19 -79 -49 -32 -182 20 -271 106 -77 76 -208 221 -253 281 -14 19 -32
41 -40 50 -8 9 -19 24 -25 32 -27 41 -104 138 -147 185 -42 45 -54 66 -45 76
1 1 -11 16 -26 32 -37 39 -110 145 -100 145 4 0 3 4 -3 8 -17 11 -104 120
-104 130 0 5 -15 23 -32 40 -18 17 -75 73 -126 126 -50 52 -106 100 -122 108
-17 7 -30 16 -30 20 0 4 -25 19 -56 33 -65 30 -110 71 -108 100 6 75 15 158
24 205 6 30 17 98 25 150 8 52 19 113 25 135 6 22 12 47 14 55 6 20 26 64 59
128 34 66 45 66 172 7z m4056 -297 c5 -185 -8 -566 -22 -643 l-10 -60 -47 -3
c-25 -2 -51 -7 -57 -11 -5 -5 -26 -12 -45 -16 -91 -18 -252 -80 -293 -113 -6
-5 -35 -22 -64 -37 -28 -14 -57 -33 -64 -41 -6 -8 -20 -14 -31 -14 -10 0 -21
-7 -24 -15 -4 -8 -12 -15 -20 -15 -8 0 -22 -8 -32 -17 -32 -31 -76 -63 -86
-63 -5 0 -17 -6 -25 -14 -25 -22 -112 -66 -132 -66 -10 0 -21 -5 -24 -11 -4
-6 -13 -8 -21 -5 -7 3 -16 1 -19 -4 -4 -6 -16 -10 -28 -10 -12 0 -54 -11 -92
-25 -39 -14 -81 -28 -95 -30 -14 -2 -43 -8 -65 -14 -22 -5 -53 -12 -70 -15
-152 -28 -225 -47 -260 -67 -5 -3 -43 -16 -82 -29 -40 -12 -73 -26 -73 -31 0
-5 -5 -9 -11 -9 -13 0 -82 -31 -89 -41 -3 -3 -51 -37 -107 -73 -57 -37 -105
-71 -108 -76 -3 -4 -39 -25 -80 -45 -41 -21 -75 -41 -75 -45 0 -11 -113 -65
-129 -62 -7 2 -10 -1 -6 -7 3 -6 -2 -11 -12 -11 -10 0 -29 -9 -43 -20 -14 -11
-28 -20 -33 -20 -4 0 -26 -9 -50 -19 -44 -21 -151 -60 -177 -65 -88 -18 -86
-19 -87 16 0 18 -4 128 -7 243 -10 284 -9 460 2 518 11 56 6 86 -19 108 -10 9
-16 19 -12 22 3 4 6 23 5 42 -1 37 20 57 40 37 11 -11 48 -5 48 8 0 5 17 14
38 21 20 6 60 25 89 40 28 16 78 38 110 50 32 12 78 34 103 47 75 43 95 52
106 52 12 0 120 55 139 70 9 7 69 22 100 25 6 0 30 10 55 22 50 24 135 49 194
58 21 3 41 7 45 9 3 2 29 7 56 10 28 3 91 17 140 32 138 39 157 45 195 50 19
4 55 14 80 24 25 10 70 24 100 30 30 7 87 21 125 31 166 44 357 89 390 91 19
1 35 5 35 9 0 3 23 9 50 13 147 19 351 91 520 181 56 30 60 30 61 3z"/>
<path d="M3610 3943 c-32 -13 -54 -53 -29 -53 6 0 9 -6 6 -14 -7 -17 14 -27
42 -19 33 8 27 -31 -8 -56 -34 -25 -66 -19 -51 8 17 34 -28 53 -70 31 -14 -8
-18 -18 -14 -47 6 -49 29 -70 82 -76 34 -4 51 1 90 25 65 41 74 55 67 103 -12
75 -9 72 -85 98 -8 3 -22 3 -30 0z"/>
<path d="M4145 3665 c-40 -24 -41 -25 -40 -82 0 -52 3 -59 30 -78 45 -30 144
-23 179 12 31 31 32 46 5 84 -25 36 -72 40 -89 9 -6 -11 -8 -25 -5 -30 3 -6 2
-10 -4 -10 -5 0 -16 -3 -25 -6 -27 -10 -19 36 10 67 29 30 27 59 -3 59 -10 -1
-36 -12 -58 -25z"/>
<path d="M2880 3570 c0 -5 -11 -12 -25 -16 -49 -12 -18 -74 37 -74 20 0 49
-42 38 -55 -18 -22 -67 -16 -85 11 -16 25 -39 31 -50 15 -10 -17 16 -99 34
-107 9 -4 39 -8 66 -8 45 -1 54 3 87 37 32 33 36 42 31 70 -3 18 -12 39 -19
48 -8 8 -14 20 -14 26 0 6 -22 23 -50 37 -27 14 -50 22 -50 16z"/>
<path d="M1886 3337 c-44 -42 -53 -61 -58 -122 -3 -35 34 -75 63 -68 14 4 17
15 16 58 -2 60 20 95 60 95 22 0 30 -20 24 -54 -5 -22 11 -56 30 -67 16 -8 25
-7 40 7 37 33 15 132 -39 174 -42 33 -84 26 -136 -23z"/>
<path d="M4808 3229 c-32 -18 -42 -48 -22 -70 16 -18 16 -19 -4 -19 -11 0 -24
-4 -27 -10 -11 -18 -31 -10 -49 21 -23 39 -59 37 -64 -3 -4 -33 32 -105 55
-112 28 -8 93 8 93 24 0 5 10 12 23 16 12 4 32 19 45 33 18 21 22 33 17 61 -4
19 -15 43 -25 53 -22 20 -20 19 -42 6z"/>
<path d="M3652 3113 c-26 -29 -28 -49 -7 -69 11 -11 19 -12 34 -4 30 16 41 12
41 -14 0 -22 -31 -56 -51 -56 -3 0 -19 20 -34 44 -32 51 -60 64 -76 35 -23
-44 30 -134 86 -145 82 -15 155 48 155 134 0 57 -7 65 -75 85 -50 15 -51 14
-73 -10z"/>
<path d="M2350 2733 c-24 -9 -49 -40 -41 -49 4 -5 13 -28 20 -51 15 -55 51
-83 99 -79 43 4 72 15 90 33 7 7 19 16 27 20 21 12 28 55 12 77 -19 26 -64 14
-77 -19 -10 -26 -55 -44 -71 -28 -5 5 -10 29 -12 53 -2 45 -14 56 -47 43z"/>
<path d="M1075 2926 c-35 -26 -27 -154 13 -188 14 -13 26 -13 74 -4 72 15 98
38 98 86 0 43 -14 60 -51 60 -30 0 -43 -21 -33 -53 5 -15 3 -19 -10 -14 -8 3
-18 1 -22 -5 -13 -21 -24 31 -13 59 22 57 -11 92 -56 59z"/>
<path d="M1377 2300 c-30 -24 -42 -63 -27 -90 14 -26 26 -25 56 5 31 31 42 31
49 2 8 -30 -9 -73 -35 -87 -23 -13 -28 -61 -6 -79 20 -17 93 33 106 73 20 62
12 146 -17 178 -23 25 -93 24 -126 -2z"/>
<path d="M2075 1954 c-11 -12 -13 -20 -6 -27 17 -17 13 -51 -7 -64 -28 -17
-46 0 -40 38 6 41 1 59 -17 59 -20 0 -45 -45 -51 -93 -6 -42 -5 -45 36 -77 47
-38 42 -39 128 25 34 26 41 36 44 73 3 39 0 45 -28 63 -38 23 -38 23 -59 3z"/>
<path d="M4495 2500 c-4 -6 -12 -10 -18 -9 -20 3 -77 -25 -77 -37 0 -7 -3 -14
-7 -16 -14 -6 -43 -69 -49 -108 -5 -32 -3 -40 14 -49 11 -6 25 -11 31 -11 14
0 39 52 34 68 -6 16 44 82 62 82 20 0 37 -34 24 -47 -14 -14 -2 -70 16 -76 21
-9 54 4 59 22 3 9 7 29 10 45 3 16 7 31 10 33 5 6 2 11 -50 71 -38 43 -48 49
-59 32z"/>
<path d="M3334 2433 c-19 -4 -21 -9 -17 -61 9 -110 75 -131 154 -50 22 21 40
43 40 48 1 6 2 23 3 38 1 28 0 28 -33 21 -19 -4 -38 -14 -42 -22 -5 -7 -17
-25 -29 -38 l-20 -24 6 39 c5 27 3 41 -7 47 -14 9 -19 9 -55 2z"/>
<path d="M3614 1974 c-17 -8 -46 -30 -64 -49 -26 -27 -33 -42 -33 -73 0 -49
20 -79 51 -77 30 2 44 23 31 46 -14 28 -11 59 9 66 9 4 20 11 24 17 11 16 31
-8 34 -40 4 -32 20 -45 53 -42 27 3 34 24 25 78 -4 29 -14 41 -50 63 -25 15
-46 27 -47 27 -1 0 -16 -7 -33 -16z"/>
<path d="M2870 1783 c-61 -24 -79 -94 -45 -175 17 -42 94 -58 131 -27 15 12
18 47 6 66 -12 19 -60 34 -66 20 -2 -7 -5 0 -5 16 -1 17 4 27 14 27 24 0 31
49 9 65 -21 16 -22 16 -44 8z"/>
<path d="M4616 1697 c-16 -12 -19 -27 -18 -93 1 -83 -14 -184 -27 -184 -14 0
-30 -73 -37 -160 -6 -83 -6 -86 21 -112 39 -39 89 -51 129 -31 37 19 43 26 58
78 17 60 18 65 6 94 -7 14 -13 40 -15 56 -1 17 -5 40 -8 52 -3 13 -5 25 -5 28
0 3 -7 22 -16 43 -8 20 -18 77 -21 125 -7 108 -25 135 -67 104z m44 -364 c0
-23 5 -45 10 -48 15 -9 12 -58 -5 -82 -13 -19 -19 -21 -39 -11 -21 9 -23 15
-19 47 3 20 5 51 4 69 -1 42 27 101 40 81 5 -8 9 -33 9 -56z"/>
<path d="M4067 1238 c-12 -9 -18 -34 -22 -88 -8 -95 -23 -166 -46 -210 -9 -19
-27 -67 -39 -106 l-22 -70 41 -42 c61 -61 85 -57 137 26 33 51 36 60 35 135 0
44 -6 85 -12 93 -10 13 -15 162 -5 171 7 7 -29 96 -40 100 -5 2 -17 -2 -27 -9z
m-3 -435 c-22 -42 -47 -45 -38 -5 4 15 16 49 28 76 l21 49 3 -44 c2 -28 -3
-56 -14 -76z"/>
<path d="M4501 658 c-16 -15 -21 -28 -18 -47 8 -41 -12 -119 -50 -196 -26 -52
-36 -83 -36 -121 0 -59 21 -156 33 -149 4 3 11 -2 14 -11 3 -8 22 -22 41 -30
30 -12 40 -12 68 0 28 11 35 21 44 62 13 58 10 192 -6 221 -5 11 -8 30 -6 42
2 11 0 21 -4 21 -5 0 -8 43 -6 95 2 77 -1 97 -14 108 -30 26 -38 26 -60 5z
m25 -292 c12 -41 18 -147 9 -176 -3 -11 -13 -20 -20 -20 -25 0 -45 54 -46 120
0 28 29 110 40 110 3 0 11 -15 17 -34z"/>
</g>
</svg>
