<?xml version="1.0" standalone="no"?>
<!DOCTYPE svg PUBLIC "-//W3C//DTD SVG 20010904//EN"
 "http://www.w3.org/TR/2001/REC-SVG-20010904/DTD/svg10.dtd">
<svg version="1.0" xmlns="http://www.w3.org/2000/svg"
 width="495.000000pt" height="407.000000pt" viewBox="0 0 495.000000 407.000000"
 preserveAspectRatio="xMidYMid meet">
<metadata>
Created by potrace 1.16, written by Peter Selinger 2001-2019
</metadata>
<g transform="translate(0.000000,407.000000) scale(0.100000,-0.100000)"
fill="#000000" stroke="none">
<path d="M3150 3783 c-29 -27 -58 -54 -64 -62 -6 -7 -31 -35 -56 -61 -25 -26
-54 -60 -65 -75 -11 -16 -42 -53 -70 -81 -79 -82 -115 -124 -107 -124 4 0 0
-6 -8 -13 -19 -15 -98 -130 -96 -139 0 -4 -15 -24 -34 -45 -35 -37 -100 -128
-100 -140 0 -3 -11 -16 -25 -29 -14 -13 -26 -27 -27 -31 0 -5 -10 -27 -21 -51
-15 -31 -33 -48 -64 -63 -24 -11 -43 -25 -43 -29 0 -5 -25 -25 -55 -46 -31
-20 -60 -44 -65 -53 -5 -10 -29 -30 -54 -46 -25 -16 -46 -33 -46 -38 0 -5 -16
-27 -35 -48 -19 -22 -35 -44 -35 -49 0 -6 -7 -10 -15 -10 -25 0 -118 -65 -168
-117 -16 -18 -33 -33 -37 -33 -12 0 -196 -125 -260 -177 -36 -29 -70 -53 -77
-53 -6 0 -18 -9 -26 -20 -7 -10 -38 -34 -68 -52 -76 -46 -148 -101 -149 -113
0 -9 -31 -32 -89 -64 -14 -8 -32 -21 -40 -28 -40 -40 -61 -46 -184 -48 -67 -2
-139 -7 -159 -13 -21 -5 -38 -7 -38 -3 0 3 -4 1 -8 -5 -7 -10 -47 -34 -150
-91 -52 -28 -115 -74 -121 -87 -2 -6 -22 -28 -43 -49 -47 -48 -68 -105 -70
-189 -4 -130 0 -154 31 -187 17 -18 33 -41 36 -52 4 -11 9 -18 12 -15 3 3 17
-4 31 -14 13 -11 30 -20 37 -20 7 0 26 -7 41 -15 62 -32 179 -11 231 41 8 8
21 14 29 14 8 0 37 22 64 50 27 27 53 50 58 50 4 0 16 15 27 33 10 17 38 50
62 72 24 22 43 47 43 56 0 8 5 20 12 27 7 7 8 12 3 12 -5 0 4 14 20 30 24 25
29 38 28 75 -1 44 0 46 70 103 80 65 190 142 203 142 5 0 23 14 39 31 17 17
62 52 100 77 39 26 74 52 78 59 4 7 13 13 20 13 7 0 28 15 47 34 20 18 45 36
56 40 11 3 30 15 41 25 11 10 62 44 114 74 52 31 100 61 107 67 37 33 145 100
160 100 9 0 32 9 51 21 18 11 35 18 38 15 2 -2 -9 -35 -26 -73 -16 -38 -32
-80 -35 -95 -2 -14 -9 -34 -14 -44 -12 -23 -24 -53 -28 -75 -2 -8 -10 -29 -19
-45 -8 -16 -15 -37 -15 -46 0 -10 -4 -18 -8 -18 -5 0 -9 -6 -9 -13 0 -16 -47
-138 -79 -202 -13 -28 -24 -55 -24 -61 0 -17 -59 -157 -69 -164 -5 -3 -20 -39
-34 -81 -14 -43 -30 -85 -36 -95 -5 -11 -12 -26 -14 -35 -3 -8 -27 -23 -54
-33 -63 -23 -92 -36 -128 -61 -35 -23 -165 -153 -165 -165 0 -5 -6 -15 -14
-22 -18 -19 -69 -119 -63 -125 3 -2 -4 -26 -14 -54 -26 -69 -26 -191 1 -246
21 -44 77 -106 98 -109 8 -2 21 -9 30 -17 35 -30 68 -39 157 -42 50 -2 96 -5
101 -7 22 -7 103 30 143 67 75 68 88 84 116 140 14 30 30 57 35 60 4 3 11 24
15 48 4 23 12 51 18 62 8 15 20 158 17 210 -3 68 -6 95 -12 101 -5 4 -8 15 -8
25 0 10 -7 22 -16 27 -14 8 -13 16 10 70 14 34 26 68 26 76 0 19 32 89 45 98
6 4 6 8 1 8 -4 0 -1 11 8 25 9 13 16 33 16 44 0 11 5 23 10 26 6 3 10 13 10
22 0 8 15 48 34 87 51 106 76 164 76 175 0 6 4 11 9 11 5 0 16 17 26 38 9 20
20 46 25 57 25 54 59 147 65 175 4 17 17 50 29 73 13 23 41 86 62 140 22 56
52 112 69 130 17 18 43 49 59 69 15 21 31 37 34 37 22 -3 32 3 32 20 0 19 47
70 129 141 22 19 64 56 92 83 29 26 57 47 63 47 16 0 43 34 38 48 -2 7 1 12 7
12 6 0 25 17 43 37 18 21 54 59 81 84 26 26 47 51 48 56 0 4 25 28 54 53 29
25 54 49 54 53 1 7 79 105 101 127 3 3 18 23 35 45 16 22 49 58 72 82 24 23
44 48 44 55 3 27 4 34 16 54 13 23 7 36 -23 52 -17 9 -26 5 -58 -29 -21 -21
-45 -39 -52 -39 -8 0 -14 -7 -14 -15 0 -8 -4 -15 -9 -15 -4 0 -20 -11 -35 -25
-15 -14 -42 -31 -59 -39 -18 -7 -53 -32 -79 -55 -25 -22 -51 -41 -58 -41 -10
0 -74 -46 -109 -78 -16 -15 -88 -62 -95 -62 -8 0 25 90 35 96 5 3 9 13 9 22 0
9 14 53 31 97 17 44 35 100 41 125 6 25 14 49 19 55 5 5 9 16 9 26 0 9 9 28
21 43 11 14 18 26 14 26 -3 0 4 14 16 32 26 36 34 82 16 96 -34 27 -54 23
-107 -25z m-40 -178 c0 -3 -7 -22 -15 -42 -8 -19 -15 -46 -15 -59 0 -12 -4
-26 -10 -29 -5 -3 -10 -17 -10 -30 0 -13 -4 -27 -10 -30 -5 -3 -10 -13 -10
-21 0 -18 -40 -120 -86 -222 -19 -41 -32 -78 -29 -83 6 -8 -18 -62 -38 -88 -6
-7 -13 -25 -15 -38 -2 -14 -14 -47 -28 -74 -13 -27 -24 -55 -24 -63 0 -8 -6
-21 -14 -29 -8 -7 -24 -37 -36 -65 -20 -46 -48 -71 -73 -64 -4 1 -10 -11 -13
-28 -4 -16 -12 -30 -19 -30 -7 0 -20 -17 -28 -37 -8 -21 -38 -61 -66 -89 -39
-40 -51 -59 -51 -83 0 -17 -4 -31 -10 -31 -5 0 -10 -8 -10 -19 0 -10 -7 -24
-15 -31 -9 -7 -15 -20 -14 -29 2 -17 -7 -47 -21 -71 -19 -31 -39 -76 -54 -120
-22 -68 -106 -262 -126 -290 -9 -14 -27 -53 -40 -87 -12 -35 -26 -63 -31 -63
-5 0 -9 -7 -9 -15 0 -8 -5 -23 -10 -33 -6 -9 -24 -55 -41 -102 -16 -47 -37
-95 -45 -107 -13 -20 -21 -49 -23 -79 -1 -6 -12 -24 -26 -40 -14 -16 -25 -38
-26 -49 0 -11 -2 -28 -4 -38 -2 -10 3 -30 11 -45 8 -15 14 -33 14 -40 0 -7 4
-11 9 -8 5 4 12 -6 15 -21 9 -45 1 -226 -11 -248 -6 -12 -13 -34 -15 -50 -5
-38 -45 -115 -60 -115 -6 0 -9 -3 -5 -6 9 -10 -64 -84 -110 -111 -41 -24 -45
-24 -143 -14 -79 7 -105 14 -118 29 -9 10 -21 17 -27 16 -14 -4 -38 16 -60 49
-27 41 -35 111 -20 176 7 31 16 72 19 92 4 20 18 49 31 63 14 15 25 32 25 39
0 7 11 21 25 31 14 10 25 24 25 31 0 15 59 75 74 75 6 0 17 9 24 20 7 11 19
20 27 20 8 0 15 5 15 11 0 6 19 10 48 8 33 -2 57 4 79 18 18 11 31 22 28 24
-7 7 22 110 34 122 6 6 11 20 11 31 0 18 56 151 96 228 8 14 14 31 14 36 0 6
13 39 29 74 16 35 36 87 45 117 8 29 26 76 40 105 30 64 76 187 76 204 0 11 9
34 50 127 5 11 12 31 15 45 8 30 48 124 77 184 5 10 12 44 15 75 4 41 21 88
64 177 32 66 59 126 59 132 0 6 14 26 31 44 17 18 37 46 46 62 8 16 37 58 64
93 27 35 46 63 42 63 -5 0 -1 6 8 13 8 7 24 28 35 47 10 19 27 42 37 51 9 9
17 19 17 23 0 8 36 51 81 98 20 21 34 39 32 41 -2 3 11 17 29 33 18 16 49 50
68 74 52 67 54 69 68 70 6 0 12 -2 12 -5z m330 -239 c0 -3 -4 -8 -10 -11 -5
-3 -10 -1 -10 4 0 6 5 11 10 11 6 0 10 -2 10 -4z m-30 -23 c0 -12 -53 -78
-119 -147 -36 -38 -74 -77 -83 -87 -10 -11 -18 -23 -18 -29 0 -5 -4 -10 -9
-10 -12 0 -68 -57 -111 -114 -19 -26 -61 -67 -92 -92 -32 -25 -58 -50 -58 -55
0 -5 -7 -9 -15 -9 -19 0 -19 17 0 36 8 8 19 34 25 57 20 77 69 167 90 167 11
0 20 7 20 15 0 8 4 15 9 15 5 0 25 15 44 33 60 54 77 67 87 67 6 0 10 7 10 15
0 8 5 15 11 15 6 0 23 9 38 19 15 11 40 23 57 27 31 8 54 26 54 43 0 5 10 17
22 25 24 17 38 20 38 9z m-1046 -628 c-4 -8 -10 -15 -14 -15 -9 0 -25 -70 -20
-85 14 -41 -17 -164 -43 -166 -45 -5 -55 -7 -72 -17 -11 -5 -31 -12 -45 -13
-14 -2 -27 -6 -30 -9 -7 -7 -39 -27 -81 -49 -20 -11 -39 -27 -43 -36 -3 -9
-22 -23 -41 -31 -19 -8 -35 -19 -35 -24 0 -6 -4 -10 -10 -10 -5 0 -34 -16 -64
-35 -30 -19 -58 -35 -62 -35 -3 0 -15 -11 -26 -25 -11 -14 -26 -25 -34 -25
-14 0 -43 -22 -103 -77 -19 -18 -38 -33 -42 -33 -4 0 -14 -6 -21 -12 -7 -7
-29 -22 -48 -32 -19 -11 -40 -25 -46 -30 -6 -6 -22 -18 -34 -26 -13 -8 -31
-22 -40 -31 -9 -9 -37 -27 -61 -40 -24 -13 -57 -36 -74 -51 -16 -16 -33 -28
-36 -28 -4 0 -22 -13 -40 -30 -19 -16 -45 -30 -59 -30 -19 0 -30 -10 -49 -44
-12 -25 -25 -62 -28 -83 -10 -78 -102 -222 -187 -292 -11 -9 -29 -25 -41 -36
-47 -44 -103 -75 -145 -81 -62 -8 -153 19 -180 54 -11 15 -25 33 -31 40 -13
16 -20 169 -9 191 5 9 11 28 15 44 3 15 12 27 20 27 8 0 15 5 15 10 0 6 7 10
16 10 8 0 13 4 10 9 -3 4 7 20 23 34 16 14 30 29 32 34 4 8 90 53 103 53 5 0
15 9 24 21 10 11 24 21 32 23 8 1 26 8 40 16 14 8 28 13 33 12 4 -1 25 2 47 7
22 5 40 6 40 2 0 -3 20 -5 45 -3 28 3 45 0 45 -7 0 -20 92 9 120 39 8 9 44 30
68 40 12 5 22 14 22 20 0 5 5 10 10 10 13 0 30 13 81 61 22 21 46 40 54 43 8
3 15 10 15 15 0 5 15 16 33 25 17 9 52 32 77 51 25 18 63 46 85 62 22 15 49
36 60 46 11 10 37 27 58 38 20 11 37 24 37 30 0 6 5 7 10 4 6 -3 10 -2 10 4 0
5 11 16 24 23 76 42 95 54 137 89 26 22 52 39 58 39 6 0 11 4 11 9 0 5 14 14
31 21 17 7 37 20 46 28 8 8 27 15 41 16 18 1 30 9 37 24 5 12 13 22 17 22 5 0
8 6 8 14 0 17 93 116 109 116 6 0 11 6 11 13 0 8 16 22 35 33 19 10 35 22 35
26 0 5 4 8 10 8 5 0 7 -7 4 -15z"/>
<path d="M2635 2862 c-11 -2 -28 -13 -38 -23 -10 -10 -22 -19 -27 -19 -14 0
-41 -63 -37 -87 4 -31 33 -70 56 -76 28 -7 94 28 113 60 18 31 23 77 13 110
-8 24 -48 42 -80 35z"/>
<path d="M1826 1112 c-4 -4 -11 -7 -14 -8 -19 -2 -59 -24 -71 -38 -7 -9 -18
-16 -23 -16 -9 0 -13 -3 -53 -38 -42 -36 -78 -144 -76 -232 1 -59 26 -103 73
-130 48 -27 83 -21 157 29 30 20 64 43 78 51 13 8 26 23 29 33 3 11 18 44 32
75 14 32 24 70 22 87 -2 17 -3 41 -4 55 -1 27 -33 70 -53 70 -6 0 -16 6 -20
13 -13 21 -70 57 -77 49z m14 -97 c0 -8 11 -25 25 -39 32 -32 35 -98 6 -123
-11 -9 -17 -21 -15 -28 3 -6 -13 -26 -35 -43 -75 -60 -130 -65 -149 -15 -13
37 -14 83 -2 83 6 0 10 9 10 20 0 30 31 87 54 99 11 6 36 23 55 36 39 29 51
31 51 10z"/>
<path d="M767 1652 c-38 -20 -73 -45 -78 -54 -6 -10 -16 -18 -24 -18 -7 0 -29
-24 -49 -54 -60 -91 -68 -126 -40 -195 19 -48 53 -65 104 -52 74 20 85 24 95
35 13 14 72 56 79 56 10 0 76 71 76 80 0 20 3 25 26 45 27 23 40 93 18 102 -8
3 -11 14 -8 32 8 37 -13 51 -78 57 -47 3 -61 -1 -121 -34z m151 -47 c2 -2 -1
-11 -6 -22 -5 -10 -18 -35 -28 -55 -38 -78 -124 -143 -212 -163 l-33 -7 3 42
c1 23 8 44 15 47 7 3 13 11 13 19 0 26 94 109 137 122 23 7 45 17 48 22 5 8
52 4 63 -5z"/>
</g>
</svg>
