<?xml version="1.0" standalone="no"?>
<!DOCTYPE svg PUBLIC "-//W3C//DTD SVG 20010904//EN"
 "http://www.w3.org/TR/2001/REC-SVG-20010904/DTD/svg10.dtd">
<svg version="1.0" xmlns="http://www.w3.org/2000/svg"
 width="533.000000pt" height="491.000000pt" viewBox="0 0 533.000000 491.000000"
 preserveAspectRatio="xMidYMid meet">
<metadata>
Created by potrace 1.16, written by Peter Selinger 2001-2019
</metadata>
<g transform="translate(0.000000,491.000000) scale(0.100000,-0.100000)"
fill="#000000" stroke="none">
<path d="M4155 4895 c-90 -24 -203 -68 -215 -85 -3 -3 -21 -15 -40 -26 -19
-10 -40 -24 -47 -31 -7 -6 -33 -19 -58 -28 -25 -10 -45 -21 -45 -25 0 -8 -14
-16 -130 -76 -30 -16 -57 -31 -60 -34 -9 -9 -95 -50 -105 -50 -5 0 -41 -16
-79 -35 -38 -19 -72 -32 -77 -30 -4 3 -9 2 -11 -2 -1 -5 -23 -18 -48 -30 -98
-50 -214 -114 -244 -136 -44 -32 -144 -91 -191 -113 -22 -9 -56 -30 -76 -46
-20 -15 -40 -28 -44 -28 -4 0 -27 -17 -50 -37 -22 -21 -66 -55 -96 -77 -53
-37 -96 -94 -105 -139 -22 -116 -27 -199 -11 -224 9 -14 -4 -28 -43 -48 -83
-42 -188 -119 -205 -151 -10 -19 -22 -34 -26 -34 -4 0 -8 -18 -7 -39 0 -22 -3
-44 -6 -50 -4 -6 -3 -11 1 -11 5 0 10 -15 11 -32 1 -18 10 -55 18 -82 17 -51
10 -68 -25 -59 -9 2 -38 -12 -63 -31 -26 -20 -56 -36 -67 -36 -11 0 -25 -9
-31 -21 -8 -13 -19 -19 -35 -17 -35 4 -75 -37 -69 -70 7 -38 16 -43 44 -27 14
8 32 18 40 22 8 4 25 17 38 30 13 13 31 23 42 23 10 0 23 8 29 18 10 18 61 25
61 7 0 -5 -14 -26 -31 -45 -47 -54 -59 -74 -63 -109 -2 -18 -15 -45 -30 -60
-25 -26 -28 -44 -17 -123 1 -5 8 -8 16 -8 18 0 19 -5 4 -29 -17 -27 -3 -71 22
-71 25 0 54 26 39 35 -7 4 -7 12 0 25 15 27 12 38 -10 45 -21 7 -21 8 -4 118
4 21 17 50 30 64 13 14 21 29 18 34 -3 5 -1 9 5 9 12 0 101 91 101 102 0 21
28 3 58 -37 45 -59 115 -98 185 -104 5 -1 5 -5 2 -11 -3 -5 -1 -10 4 -10 6 0
11 6 11 13 0 9 29 21 77 33 53 13 85 27 104 46 30 30 79 38 79 13 0 -8 10 -20
23 -26 12 -7 50 -34 84 -61 54 -42 72 -51 130 -60 79 -12 134 -7 188 17 71 31
139 62 188 84 26 11 52 21 58 21 5 0 19 9 31 19 11 11 62 41 112 66 50 25 107
56 126 67 19 12 57 30 84 40 27 10 63 29 80 42 30 22 56 35 66 32 3 0 19 8 35
20 17 11 53 31 80 45 28 13 52 26 55 30 3 3 64 34 135 69 72 35 143 73 160 84
16 12 52 33 80 47 27 14 66 34 85 44 19 10 43 22 52 27 67 32 138 72 138 78 0
5 11 10 24 14 34 8 132 88 159 128 27 42 54 97 60 123 12 58 -44 297 -96 406
-15 31 -27 59 -27 62 0 16 -85 183 -102 201 -11 12 -36 45 -55 75 -123 190
-336 286 -528 236z m192 -111 c76 -33 99 -49 158 -109 74 -76 112 -129 160
-226 20 -40 43 -86 51 -101 8 -14 14 -36 14 -47 0 -12 5 -21 10 -21 6 0 10 -7
10 -16 0 -16 29 -74 41 -84 4 -3 10 -25 14 -50 4 -25 9 -56 11 -70 3 -14 7
-58 9 -99 4 -68 2 -76 -23 -111 -19 -27 -49 -49 -97 -72 -38 -18 -101 -52
-141 -75 -39 -24 -76 -43 -83 -43 -6 0 -11 -4 -11 -8 0 -5 -17 -17 -37 -29
-99 -53 -138 -77 -141 -85 -2 -4 -10 -8 -18 -8 -8 0 -14 -4 -14 -9 0 -5 -10
-13 -22 -17 -13 -3 -30 -12 -38 -19 -8 -8 -17 -13 -20 -12 -9 2 -123 -54 -180
-88 -30 -19 -67 -36 -82 -40 -15 -4 -29 -13 -32 -21 -3 -8 -14 -14 -24 -14
-10 0 -23 -5 -30 -12 -7 -7 -12 -8 -12 -3 0 4 -9 0 -19 -9 -17 -15 -35 -22
-63 -25 -5 -1 -7 -6 -5 -12 1 -6 -14 -17 -33 -24 -19 -7 -60 -26 -90 -43 -30
-17 -118 -62 -194 -101 -77 -39 -143 -76 -146 -81 -4 -6 -21 -12 -38 -13 -18
-1 -32 -5 -32 -8 0 -14 -84 -38 -157 -45 -95 -8 -102 -4 -175 72 -44 46 -45
48 -33 78 16 37 20 108 11 156 -4 19 -9 44 -11 55 -2 11 -4 20 -5 20 -1 0 -3
12 -5 26 -2 14 -13 46 -25 72 -12 25 -22 52 -24 59 -2 15 -67 99 -104 134 -12
12 -43 27 -68 34 -54 16 -74 46 -69 110 7 93 14 114 58 155 51 49 109 95 145
115 14 8 34 22 44 30 34 30 295 171 379 204 23 9 57 29 77 45 21 16 64 39 97
51 33 12 67 28 75 35 8 7 83 48 165 90 83 42 157 83 165 89 26 21 410 207 435
211 6 1 21 7 35 13 37 16 94 14 137 -4z m-1723 -1247 c48 -32 124 -167 133
-238 l5 -36 -46 -1 c-54 -1 -70 -8 -62 -28 4 -9 -2 -14 -18 -14 -19 0 -30 16
-71 103 -27 58 -64 117 -84 138 l-36 36 49 31 c54 34 88 36 130 9z m-280 -123
c9 -3 16 -12 16 -20 0 -8 6 -14 14 -14 16 0 76 -71 76 -90 0 -10 -3 -10 -15 0
-8 7 -15 18 -15 25 0 6 -9 22 -19 34 -21 25 -55 22 -65 -4 -8 -22 5 -75 19
-75 14 0 34 -36 37 -67 2 -12 -1 -22 -6 -22 -14 1 -26 -23 -26 -53 0 -18 6
-29 21 -33 26 -9 89 3 89 16 0 6 5 7 10 4 6 -4 10 -3 9 2 -1 4 -1 17 0 28 2
31 19 5 27 -41 5 -35 2 -45 -19 -68 -14 -15 -40 -29 -59 -32 -35 -6 -47 3
-110 87 -15 20 -24 53 -16 62 2 1 -7 16 -19 33 -24 34 -41 142 -29 189 8 32
47 52 80 39z m131 -175 c10 -30 2 -32 -12 -3 -6 13 -7 24 -3 24 5 0 12 -9 15
-21z m25 -49 c0 -5 -2 -10 -4 -10 -3 0 -8 5 -11 10 -3 6 -1 10 4 10 6 0 11 -4
11 -10z"/>
<path d="M4210 4713 c-43 -16 -86 -38 -93 -49 -4 -7 -33 -30 -65 -52 -31 -21
-73 -54 -93 -73 -106 -99 -238 -215 -290 -254 -78 -59 -185 -149 -192 -161 -4
-8 -13 -14 -19 -14 -6 0 -21 -10 -33 -22 -45 -46 -121 -114 -158 -143 -22 -17
-55 -45 -75 -63 -21 -19 -60 -51 -89 -73 -121 -91 -165 -147 -170 -219 -4 -49
-1 -60 20 -86 28 -33 134 -71 164 -60 10 4 49 12 88 17 38 6 93 14 120 19 28
4 97 15 155 24 58 10 121 21 140 26 19 6 48 10 63 10 27 0 59 8 199 52 38 12
71 18 74 15 4 -4 12 -1 18 7 11 13 116 45 146 44 32 -1 130 24 206 53 43 17
100 36 125 44 96 26 187 90 232 162 26 41 42 113 26 113 -6 0 -8 4 -5 9 7 10
-9 64 -30 103 -8 14 -14 35 -14 45 0 11 -3 22 -6 26 -4 3 -17 36 -30 73 -13
38 -37 87 -54 110 -16 23 -30 46 -30 50 0 33 -168 234 -196 234 -6 0 -23 9
-37 20 -24 19 -65 25 -97 13z m61 -84 c52 -27 149 -122 149 -144 0 -8 5 -15
10 -15 6 0 10 -5 10 -11 0 -6 9 -22 20 -36 11 -14 17 -29 14 -34 -3 -5 -1 -9
4 -9 14 0 46 -58 70 -126 11 -32 31 -88 45 -124 13 -36 27 -84 30 -106 6 -37
3 -46 -23 -75 -16 -19 -30 -37 -30 -41 0 -4 -10 -10 -22 -14 -13 -4 -25 -10
-28 -13 -3 -4 -18 -15 -33 -24 -22 -15 -31 -16 -43 -6 -9 7 -14 8 -14 1 0 -13
-72 -46 -134 -63 -22 -6 -43 -15 -46 -20 -5 -7 -75 -22 -255 -54 -11 -2 -21
-4 -22 -4 -2 -1 -6 -1 -10 -2 -5 0 -15 -6 -23 -14 -8 -7 -31 -16 -50 -20 -19
-4 -69 -18 -110 -30 -41 -13 -109 -29 -150 -35 -41 -6 -122 -20 -180 -30 -58
-10 -127 -22 -155 -26 -27 -4 -57 -9 -65 -11 -8 -1 -49 -6 -91 -9 -97 -9 -119
2 -119 56 0 29 4 40 15 40 8 0 15 6 15 13 1 20 82 97 104 97 3 0 26 23 52 50
26 28 51 50 56 50 5 0 21 12 36 28 15 15 45 42 67 61 22 18 63 55 91 82 29 27
55 49 58 49 3 0 18 13 33 28 16 16 35 33 45 38 9 5 34 25 55 44 21 20 54 46
73 58 19 12 46 33 60 48 13 14 40 38 59 53 20 14 59 49 87 76 82 81 115 109
199 166 110 74 114 76 146 58z"/>
<path d="M1720 2946 c-31 -31 5 -65 62 -58 30 3 39 10 47 33 5 16 7 31 3 33
-14 8 -101 3 -112 -8z"/>
<path d="M1663 2877 c-16 -35 -10 -60 18 -74 20 -11 26 -10 36 4 8 10 9 21 4
27 -5 6 -11 22 -13 36 -4 33 -32 37 -45 7z"/>
<path d="M1440 2770 c-8 -5 -23 -7 -34 -4 -24 8 -94 -26 -102 -50 -10 -29 17
-49 50 -36 41 15 86 13 87 -5 1 -8 2 -20 3 -27 0 -7 13 -19 27 -27 46 -25 79
7 44 43 -9 9 -11 17 -5 21 12 7 13 45 2 45 -5 0 -15 11 -22 25 -14 27 -26 30
-50 15z"/>
<path d="M1675 2752 c-10 -10 -5 -44 9 -58 23 -23 43 -16 55 17 13 38 13 39 4
38 -5 -1 -10 0 -13 1 -13 5 -51 6 -55 2z"/>
<path d="M1208 2695 c-32 -28 -36 -50 -10 -64 26 -14 94 34 90 63 -4 31 -47
31 -80 1z"/>
<path d="M2147 2702 c-65 -29 -62 -79 4 -68 31 5 39 3 43 -12 4 -10 27 -34 51
-52 43 -33 46 -37 44 -80 -2 -25 -6 -47 -10 -50 -3 -3 -3 -16 2 -29 7 -19 14
-22 34 -17 21 5 27 2 35 -18 17 -46 62 -55 99 -22 14 12 27 16 43 11 30 -10
38 -23 38 -61 0 -20 6 -34 16 -38 12 -5 15 -14 11 -34 -7 -35 16 -70 36 -53
20 16 44 4 52 -26 7 -30 28 -53 47 -53 26 0 93 40 100 61 4 11 12 18 17 14 5
-3 18 8 27 25 18 29 34 39 34 21 0 -19 65 -71 88 -71 37 0 28 41 -23 95 -46
48 -46 48 -61 27 -11 -17 -21 -21 -40 -16 -20 5 -35 -2 -73 -34 l-47 -40 -28
35 c-21 25 -34 33 -48 29 -29 -7 -48 16 -49 61 -1 57 -12 87 -37 99 -12 6 -30
18 -40 27 -25 23 -37 21 -66 -10 -24 -25 -26 -26 -44 -10 -10 9 -28 17 -40 17
-28 0 -33 11 -22 51 15 52 -3 100 -50 134 -25 18 -43 41 -47 58 -5 25 -30 48
-50 46 -4 0 -25 -8 -46 -17z"/>
<path d="M1050 2679 c-24 -11 -47 -24 -50 -29 -3 -5 -22 -16 -43 -25 -20 -8
-37 -21 -37 -28 0 -10 -70 -67 -83 -67 -14 0 -98 -94 -103 -115 -16 -66 31
-75 61 -13 12 24 36 53 55 65 44 28 146 103 170 125 28 25 56 38 82 38 42 0
68 50 32 64 -23 9 -34 7 -84 -15z"/>
<path d="M1321 2609 c-28 -30 -29 -85 -1 -92 14 -4 25 4 40 30 37 63 7 111
-39 62z"/>
<path d="M1417 2574 c-15 -15 -6 -41 23 -62 36 -27 46 -27 60 -3 7 15 5 24 -8
40 -18 22 -63 37 -75 25z"/>
<path d="M1080 2457 c-27 -14 -32 -38 -16 -74 10 -25 36 -31 36 -9 0 21 46 28
91 15 43 -13 67 -3 56 25 -16 40 -121 68 -167 43z"/>
<path d="M2114 2434 c-7 -28 0 -38 31 -48 14 -4 24 1 33 15 20 31 6 59 -28 59
-23 0 -31 -5 -36 -26z"/>
<path d="M1990 2355 c-21 -25 -8 -50 28 -53 31 -3 32 -2 32 32 0 31 -3 36 -24
36 -13 0 -29 -7 -36 -15z"/>
<path d="M882 2268 c-15 -27 -18 -110 -7 -155 12 -52 -15 -41 -50 20 -35 60
-69 74 -77 33 -3 -15 0 -31 8 -37 14 -12 36 -69 26 -69 -3 0 -16 12 -28 27
-18 23 -24 25 -37 14 -9 -7 -15 -18 -14 -24 1 -6 -9 -13 -23 -15 -31 -5 -50
-31 -44 -58 4 -17 -1 -24 -24 -32 -16 -5 -31 -18 -34 -29 -7 -28 9 -66 26 -60
8 3 16 1 18 -5 8 -24 37 2 43 39 12 70 14 74 41 67 19 -5 31 1 59 30 33 35 34
36 45 16 6 -12 23 -25 38 -31 23 -9 30 -6 54 20 16 17 33 31 39 31 10 0 7 25
-12 88 -11 38 -10 43 8 59 11 10 23 28 27 40 5 17 1 24 -25 37 -41 21 -43 20
-57 -6z"/>
<path d="M1084 2276 c-6 -6 -15 -30 -21 -52 -9 -35 -8 -43 7 -52 9 -5 22 -7
28 -3 14 8 32 56 32 85 0 26 -29 40 -46 22z"/>
<path d="M2037 2273 c-8 -10 -17 -29 -19 -43 -5 -36 34 -40 50 -5 25 55 5 87
-31 48z"/>
<path d="M644 2244 c-16 -33 -16 -36 0 -52 21 -21 46 -8 59 32 21 62 -31 80
-59 20z"/>
<path d="M2321 2162 c-6 -11 -6 -23 -1 -28 4 -5 10 -20 12 -34 2 -17 10 -26
25 -28 29 -4 37 27 24 101 -2 15 -51 6 -60 -11z"/>
<path d="M3000 2033 c-23 -9 -29 -25 -17 -45 15 -23 36 -23 52 -1 9 12 10 23
4 35 -10 19 -15 20 -39 11z"/>
<path d="M2242 1975 c-17 -20 -32 -62 -25 -69 13 -13 53 -5 62 12 11 21 3 72
-13 72 -6 -1 -17 -7 -24 -15z"/>
<path d="M2128 1956 c-24 -18 -23 -41 3 -70 18 -20 25 -23 44 -14 25 11 24 34
-3 76 -16 25 -21 26 -44 8z"/>
<path d="M3092 1950 c-17 -28 -15 -50 6 -57 24 -9 32 -23 32 -56 0 -16 5 -37
10 -48 9 -15 15 -17 30 -9 22 12 27 62 11 118 -17 58 -67 87 -89 52z"/>
<path d="M2683 1927 c-34 -15 -28 -77 6 -77 37 0 53 41 29 72 -10 13 -18 14
-35 5z"/>
<path d="M2949 1909 c-11 -11 -23 -19 -28 -19 -11 0 -41 -62 -41 -84 0 -9 -7
-33 -15 -53 -13 -32 -14 -39 -1 -51 10 -10 19 -11 31 -5 9 6 16 12 15 14 -1 2
3 17 9 32 6 16 11 34 11 42 0 7 12 28 26 45 33 38 44 27 44 -43 0 -42 3 -49
27 -58 19 -7 35 -7 50 0 30 14 30 49 1 53 -17 2 -22 11 -25 41 -6 80 -63 127
-104 86z"/>
<path d="M408 1903 c-23 -28 -11 -50 39 -67 57 -19 50 -20 63 3 14 28 3 49
-31 56 -16 4 -31 11 -34 16 -9 14 -20 11 -37 -8z"/>
<path d="M2423 1875 c-14 -10 -20 -24 -19 -45 2 -34 3 -35 33 -44 18 -6 23 -3
27 16 10 44 10 63 3 76 -10 16 -18 15 -44 -3z"/>
<path d="M860 1862 c-8 -3 -21 -12 -28 -21 -10 -12 -15 -13 -18 -3 -14 32 -63
-6 -68 -54 -2 -15 4 -45 12 -66 17 -42 41 -49 79 -23 12 8 28 12 36 9 25 -9
60 51 53 90 -7 38 -44 76 -66 68z m-17 -85 c25 -9 16 -32 -13 -32 -15 0 -24 7
-26 19 -3 24 6 42 15 29 3 -5 14 -13 24 -16z"/>
<path d="M326 1811 c-28 -29 -29 -31 -16 -78 18 -68 28 -83 52 -83 34 0 88 39
88 63 0 12 3 38 6 59 7 41 -4 51 -66 63 -30 5 -39 2 -64 -24z m64 -76 c0 -8
-2 -15 -4 -15 -2 0 -6 7 -10 15 -3 8 -1 15 4 15 6 0 10 -7 10 -15z"/>
<path d="M2945 1712 c-11 -2 -23 -9 -27 -15 -9 -14 15 -70 41 -96 12 -12 21
-28 21 -36 0 -8 9 -43 19 -77 35 -114 52 -238 45 -329 -4 -46 -10 -92 -15
-101 -5 -9 -11 -33 -15 -53 -3 -20 -11 -56 -18 -78 -18 -62 -12 -101 23 -155
17 -27 31 -52 31 -56 0 -4 19 -27 41 -51 43 -45 89 -117 89 -140 0 -7 7 -18
15 -25 19 -16 38 -86 31 -115 -3 -12 -18 -27 -33 -34 -52 -24 -143 -86 -143
-98 0 -7 -4 -13 -8 -13 -10 0 -32 -68 -32 -99 0 -12 7 -24 15 -27 8 -4 12 -10
9 -15 -3 -5 1 -9 9 -9 7 0 24 26 37 58 27 68 49 90 115 120 28 12 57 26 65 31
20 10 49 102 40 121 -4 8 -11 34 -15 57 -3 23 -13 47 -21 54 -8 6 -28 39 -44
73 -16 33 -47 79 -69 102 -42 43 -103 152 -94 167 3 5 6 21 8 35 2 15 10 46
19 70 15 40 30 177 29 267 0 36 -9 88 -44 267 -7 32 -18 63 -25 69 -8 6 -14
18 -14 25 0 18 -38 90 -53 102 -7 4 -21 6 -32 4z"/>
<path d="M2827 1659 c-10 -11 -16 -23 -13 -27 3 -3 -4 -10 -17 -16 -30 -16
-34 -52 -7 -66 26 -14 50 -7 50 15 0 8 6 15 13 15 16 0 39 62 31 84 -9 22 -36
20 -57 -5z"/>
<path d="M1320 1653 c-19 -3 -39 -9 -44 -14 -6 -5 -16 -9 -23 -9 -23 0 -54
-36 -47 -53 3 -10 10 -17 15 -17 6 0 5 -8 -1 -19 -17 -33 -11 -51 23 -66 29
-14 36 -14 81 2 56 21 82 58 92 136 l7 47 -34 -2 c-19 0 -50 -3 -69 -5z m30
-82 c0 -25 -75 -47 -84 -25 -3 9 6 17 27 23 42 12 57 13 57 2z"/>
<path d="M2615 1591 c-12 -24 -13 -35 -3 -58 6 -15 12 -30 13 -33 0 -3 6 -15
13 -28 18 -31 -4 -38 -66 -19 -46 13 -51 13 -73 -4 -13 -10 -18 -19 -11 -19 6
0 12 -7 12 -15 0 -8 9 -19 20 -25 23 -12 163 -15 181 -4 7 4 10 26 6 60 -4 40
-2 54 9 58 20 8 17 32 -8 69 -13 18 -23 32 -23 33 0 1 -12 4 -27 8 -23 5 -30
2 -43 -23z"/>
<path d="M394 1577 c-59 -54 -18 -91 55 -49 39 22 50 51 25 69 -27 20 -41 16
-80 -20z"/>
<path d="M506 1558 c-9 -27 -2 -48 14 -48 9 0 23 -11 30 -25 17 -33 48 -42 69
-20 15 15 15 17 0 28 -9 7 -23 27 -33 45 -13 25 -23 32 -47 32 -16 0 -31 -6
-33 -12z"/>
<path d="M881 1386 c-31 -33 -24 -60 14 -63 51 -3 75 6 75 28 0 58 -49 78 -89
35z"/>
<path d="M2410 1382 c-24 -20 -40 -69 -30 -97 4 -12 0 -26 -11 -39 -17 -18
-19 -51 -5 -75 8 -12 86 -5 100 9 7 7 6 20 -3 43 -19 45 -25 107 -12 120 16
16 14 44 -4 50 -7 3 -23 -2 -35 -11z"/>
<path d="M593 1353 c-7 -2 -13 -12 -13 -21 0 -9 -16 -37 -35 -61 -28 -35 -33
-47 -24 -62 11 -22 30 -24 47 -7 9 9 16 8 29 -5 17 -17 18 -36 10 -135 -4 -42
10 -92 26 -92 4 0 7 -21 7 -47 0 -110 86 -161 186 -112 35 17 48 31 69 77 15
31 31 65 36 74 5 10 9 24 9 32 0 8 9 18 20 21 23 7 26 28 8 43 -11 8 -36 9
-70 3 -4 0 -10 -17 -14 -38 -4 -20 -13 -48 -20 -62 -8 -14 -14 -31 -14 -38 0
-6 -14 -23 -31 -37 -29 -25 -73 -34 -94 -18 -18 12 -31 56 -29 92 1 22 -4 42
-16 55 -32 35 -52 114 -42 168 5 26 7 47 3 47 -3 0 -12 9 -19 21 -11 17 -10
25 8 54 28 46 11 68 -37 48z"/>
<path d="M371 1314 c-33 -29 -39 -40 -31 -54 10 -19 42 -31 57 -21 12 9 33 59
33 81 0 33 -18 32 -59 -6z"/>
<path d="M977 1321 c-21 -36 -22 -70 -2 -77 22 -9 42 12 50 53 4 25 2 38 -7
44 -20 13 -22 12 -41 -20z"/>
<path d="M2265 1338 c-16 -6 -37 -17 -46 -24 -8 -8 -24 -14 -35 -14 -24 0 -56
-28 -80 -69 -13 -23 -21 -28 -30 -20 -16 13 -44 5 -73 -20 -28 -24 -27 -47 3
-67 14 -8 26 -25 28 -37 4 -32 44 -34 73 -5 13 14 30 47 37 74 15 59 57 121
69 102 6 -9 14 -9 36 2 15 8 30 17 33 20 3 3 19 10 35 15 20 7 30 17 30 30 0
24 -35 29 -80 13z"/>
<path d="M1300 1321 c0 -5 -11 -8 -24 -8 -36 0 -72 -33 -68 -62 4 -25 10 -25
95 -3 41 11 46 7 53 -37 3 -18 -1 -35 -11 -44 -19 -19 -19 -31 0 -47 23 -19
51 -3 68 41 14 34 14 47 3 90 -8 28 -17 54 -22 58 -13 12 -94 23 -94 12z"/>
<path d="M791 1261 c-25 -16 8 -101 39 -101 5 0 14 9 20 21 9 16 8 28 -5 55
-16 35 -29 41 -54 25z"/>
<path d="M936 1215 c-15 -8 -34 -15 -41 -15 -25 0 -35 -25 -20 -47 28 -40 105
0 105 54 0 27 -5 28 -44 8z"/>
<path d="M1182 1208 c-7 -7 -12 -24 -12 -39 0 -20 9 -32 36 -49 20 -11 43 -19
50 -16 7 3 16 1 20 -5 7 -11 33 18 34 38 0 6 -16 17 -36 23 -22 7 -39 21 -44
36 -10 26 -29 31 -48 12z"/>
<path d="M310 1155 c-10 -19 -11 -30 -2 -50 7 -14 12 -35 12 -46 0 -11 11 -31
24 -44 14 -13 27 -33 30 -43 4 -11 18 -24 33 -31 23 -11 29 -10 40 5 17 23 16
29 -1 44 -8 6 -13 17 -10 25 6 14 -12 29 -34 30 -19 0 -43 74 -36 108 5 23 3
27 -19 27 -15 0 -28 -9 -37 -25z"/>
<path d="M1610 1130 c0 -6 -4 -8 -10 -5 -12 7 -70 -72 -70 -95 0 -18 18 -30
53 -36 13 -3 17 3 17 30 0 20 8 40 19 50 11 10 17 25 14 37 -6 22 -23 36 -23
19z"/>
<path d="M1794 1104 c3 -8 1 -16 -3 -19 -15 -9 0 -44 21 -51 23 -7 35 3 38 31
5 44 0 51 -30 51 -21 0 -29 -4 -26 -12z"/>
<path d="M1158 1089 c-19 -21 -31 -98 -18 -118 12 -21 43 2 46 34 2 15 10 35
18 44 21 23 20 38 -3 51 -24 12 -22 13 -43 -11z"/>
<path d="M2795 1042 c-12 -9 -24 -25 -28 -35 -4 -11 -16 -21 -27 -24 -11 -3
-17 -9 -14 -14 3 -5 -3 -12 -13 -15 -10 -3 -45 -17 -78 -30 -42 -17 -83 -25
-135 -27 -80 -2 -99 -13 -100 -54 0 -16 8 -23 30 -28 16 -4 39 -4 50 0 11 4
20 2 20 -4 0 -6 -4 -11 -9 -11 -5 0 -8 -8 -6 -17 1 -10 -2 -26 -7 -37 -15 -28
5 -66 31 -59 11 3 23 12 27 21 13 32 21 92 13 92 -5 0 -9 5 -9 11 0 6 6 9 13
6 7 -3 24 1 38 9 33 18 41 17 30 -3 -5 -10 -15 -34 -21 -53 -9 -29 -8 -37 9
-54 20 -20 20 -20 40 2 14 17 18 34 15 63 -2 22 -6 44 -9 48 -6 11 25 37 53
44 20 5 22 1 22 -29 0 -30 3 -34 28 -34 41 0 57 31 37 74 -16 33 -15 35 8 60
37 40 58 88 45 103 -14 17 -29 16 -53 -5z"/>
<path d="M1728 985 c-28 -24 -35 -49 -20 -73 7 -9 20 -3 53 26 38 34 42 41 30
56 -18 22 -31 20 -63 -9z"/>
<path d="M1027 972 c-20 -13 -27 -24 -25 -42 4 -35 30 -36 68 -1 54 49 21 81
-43 43z"/>
<path d="M453 924 c-4 -12 2 -24 23 -40 25 -20 31 -22 48 -10 39 26 29 51 -26
61 -31 6 -39 4 -45 -11z"/>
<path d="M1141 926 c-20 -24 -7 -61 22 -64 23 -3 27 0 27 22 0 13 -7 32 -16
40 -19 19 -19 19 -33 2z"/>
<path d="M1530 854 c-6 -14 -10 -29 -10 -34 0 -5 -15 -10 -32 -12 -28 -2 -34
-8 -36 -30 -3 -27 10 -36 43 -28 6 1 17 3 24 4 8 2 17 8 19 15 2 7 15 17 29
22 20 7 24 15 20 34 -2 14 0 28 5 31 6 4 5 10 -3 15 -26 16 -49 9 -59 -17z"/>
<path d="M1270 825 c-7 -8 -12 -26 -12 -39 0 -22 -3 -24 -25 -15 -30 11 -73 2
-73 -16 0 -30 20 -65 37 -65 21 1 63 33 63 49 0 19 32 12 67 -15 48 -36 83
-27 83 21 0 28 -4 35 -19 35 -14 0 -21 8 -23 28 -3 24 -8 27 -44 30 -28 2 -45
-2 -54 -13z"/>
</g>
</svg>
