<?xml version="1.0" standalone="no"?>
<!DOCTYPE svg PUBLIC "-//W3C//DTD SVG 20010904//EN"
 "http://www.w3.org/TR/2001/REC-SVG-20010904/DTD/svg10.dtd">
<svg version="1.0" xmlns="http://www.w3.org/2000/svg"
 width="531.000000pt" height="389.000000pt" viewBox="0 0 531.000000 389.000000"
 preserveAspectRatio="xMidYMid meet">
<metadata>
Created by potrace 1.16, written by Peter Selinger 2001-2019
</metadata>
<g transform="translate(0.000000,389.000000) scale(0.100000,-0.100000)"
fill="#000000" stroke="none">
<path d="M3326 3622 c-3 -5 -19 -7 -36 -4 -16 2 -36 0 -43 -6 -23 -18 -82 -49
-119 -61 -21 -7 -38 -16 -38 -20 0 -3 -21 -13 -47 -20 -27 -8 -55 -20 -63 -27
-8 -7 -26 -17 -40 -23 -14 -6 -32 -15 -40 -20 -39 -24 -99 -49 -104 -44 -3 4
-6 1 -6 -5 0 -7 -9 -12 -20 -12 -11 0 -20 -4 -20 -10 0 -5 -9 -10 -21 -10 -12
0 -39 -14 -61 -32 -23 -18 -49 -33 -59 -33 -22 -2 -26 -5 -30 -25 -3 -19 18
-70 29 -70 9 0 36 -74 36 -100 0 -38 -18 -92 -40 -115 -13 -14 -24 -30 -24
-36 0 -5 -3 -9 -7 -9 -5 0 -25 -16 -46 -36 -42 -40 -184 -117 -199 -108 -5 3
-16 -2 -23 -12 -8 -11 -15 -14 -15 -8 0 14 -37 53 -75 80 -17 11 -65 33 -108
47 -84 29 -110 26 -122 -13 -9 -27 31 -62 64 -56 34 5 124 -27 165 -60 19 -15
44 -48 57 -73 12 -25 30 -58 41 -73 10 -14 18 -34 18 -43 0 -9 7 -23 15 -31 9
-10 15 -34 15 -64 0 -27 5 -52 11 -56 6 -3 8 -16 5 -28 -3 -12 -6 -67 -6 -121
-2 -139 -7 -160 -52 -208 -39 -42 -39 -42 -105 -39 -40 1 -70 7 -75 15 -4 6
-5 44 -1 82 4 39 7 85 7 103 1 17 3 32 6 32 8 0 -7 184 -21 250 -16 83 -46
141 -97 187 -44 40 -57 45 -122 47 -14 1 -30 4 -36 8 -17 11 -84 -6 -84 -22 0
-23 21 -60 34 -60 8 0 16 -5 18 -10 2 -7 14 -7 36 -1 18 6 32 6 32 1 0 -5 7
-7 15 -4 18 7 65 -3 65 -14 -1 -11 -112 -89 -140 -97 -14 -4 -34 -12 -45 -19
-26 -15 -97 -38 -110 -35 -10 2 -24 -2 -73 -22 -13 -5 -28 -7 -33 -4 -4 3 -31
-1 -59 -9 -66 -20 -184 -2 -236 36 -9 7 -8 20 1 52 15 49 6 109 -19 134 -13
13 -19 10 -53 -27 -37 -42 -143 -111 -193 -126 -14 -4 -37 -16 -52 -27 -16
-11 -28 -17 -28 -14 0 9 -272 -132 -290 -150 -15 -15 -17 -78 -23 -914 -1
-212 -6 -390 -10 -397 -8 -13 31 -60 45 -56 5 2 8 -5 8 -15 1 -26 34 -93 74
-148 79 -108 91 -123 104 -124 6 0 12 -5 12 -10 0 -6 17 -27 38 -48 20 -20 68
-73 107 -117 90 -103 212 -225 225 -225 5 0 10 -4 10 -9 0 -5 8 -12 19 -16 10
-3 32 -17 47 -31 45 -39 53 -45 58 -42 2 2 13 -6 25 -16 12 -11 21 -16 21 -13
0 4 20 -4 45 -17 51 -28 133 -56 173 -61 99 -12 121 -9 169 22 27 17 55 33 63
35 8 2 17 6 20 10 11 15 172 108 186 108 8 0 14 6 14 13 0 8 12 20 28 28 15 8
46 26 68 42 23 15 45 27 50 27 4 0 17 8 28 19 12 10 46 32 76 48 61 33 138 79
216 130 29 18 64 37 78 43 15 5 35 18 46 28 10 10 48 33 82 51 35 19 83 48
108 65 25 17 61 39 80 48 68 35 135 73 170 99 19 14 53 34 75 45 22 10 45 24
51 29 32 27 54 42 100 65 27 14 65 35 84 48 19 13 53 33 75 43 59 30 83 44
103 62 10 10 23 17 29 17 5 0 28 13 49 28 21 16 64 41 94 58 30 16 60 36 67
44 7 8 13 11 13 6 0 -5 10 0 23 11 12 12 36 30 54 40 40 24 91 87 100 122 3
14 16 38 30 52 16 17 26 43 29 74 3 26 9 57 13 69 10 25 5 151 -8 221 -12 61
-70 215 -81 215 -5 0 -11 8 -14 18 -4 10 -14 27 -24 38 -27 30 -113 161 -167
254 -27 46 -56 91 -63 100 -31 35 -91 123 -100 148 -6 15 -13 44 -17 65 -5 33
-9 37 -35 37 -19 0 -30 5 -30 14 0 8 -9 33 -19 57 -11 24 -17 47 -15 51 3 4 1
8 -5 8 -7 0 -9 63 -7 183 4 156 -2 253 -17 317 -17 76 -108 190 -152 190 -13
0 -26 -4 -29 -8z m32 -143 c2 -5 10 -9 18 -9 8 0 14 -6 15 -12 1 -21 7 -50 18
-94 6 -24 9 -121 7 -235 -3 -191 3 -245 34 -301 6 -10 10 -23 10 -30 0 -20 32
-48 57 -48 18 0 23 -5 23 -26 0 -14 9 -45 20 -70 12 -24 18 -49 14 -55 -3 -6
16 -33 44 -60 27 -27 57 -65 66 -84 9 -19 21 -37 26 -40 6 -3 19 -26 30 -50
11 -25 33 -59 49 -77 15 -18 36 -48 46 -65 11 -18 23 -33 27 -33 4 0 8 -5 8
-11 0 -6 12 -26 26 -45 36 -46 81 -135 94 -184 18 -69 12 -271 -8 -278 -7 -2
-12 -10 -12 -17 0 -8 -13 -43 -30 -78 -22 -49 -37 -67 -60 -77 -17 -7 -34 -18
-38 -24 -9 -15 -117 -86 -131 -86 -6 0 -11 -4 -11 -8 0 -5 -12 -14 -27 -21
-16 -7 -51 -28 -80 -47 -28 -19 -54 -34 -58 -34 -3 0 -25 -13 -48 -29 -24 -16
-60 -36 -82 -45 -22 -10 -49 -25 -60 -35 -26 -23 -192 -124 -300 -181 -27 -15
-67 -38 -87 -51 -166 -108 -467 -293 -668 -409 -14 -8 -27 -18 -30 -21 -3 -4
-14 -9 -25 -13 -11 -3 -43 -21 -71 -39 -28 -18 -58 -36 -67 -40 -9 -3 -17 -13
-17 -22 0 -8 -5 -15 -12 -15 -6 0 -49 -22 -95 -50 -46 -27 -90 -50 -98 -50 -8
0 -15 -4 -15 -8 0 -5 -16 -17 -35 -28 -19 -10 -35 -22 -35 -25 0 -18 -70 -38
-111 -33 -47 6 -146 37 -193 61 -40 20 -130 84 -134 95 -2 4 -7 6 -11 3 -14
-8 -311 294 -393 400 -13 16 -40 45 -60 63 -21 19 -38 39 -38 44 0 5 -13 26
-29 46 -45 57 -69 142 -70 247 0 50 -2 110 -5 135 -2 25 -5 74 -5 110 -1 65 7
840 8 872 1 18 67 58 96 58 8 0 15 5 15 10 0 6 6 10 13 10 6 0 46 16 87 36 41
20 84 40 95 44 52 20 103 45 129 63 28 20 29 20 42 1 46 -68 111 -96 217 -97
87 -1 183 13 230 32 16 6 43 11 62 11 19 0 37 5 40 10 3 6 15 10 25 10 11 0
36 10 57 21 21 12 56 32 78 45 22 12 55 30 73 38 17 8 32 21 32 28 1 7 8 -3
16 -22 17 -38 34 -207 27 -255 -3 -22 -17 -38 -51 -61 -72 -48 -538 -275 -729
-355 l-83 -34 2 -46 c0 -28 -5 -55 -14 -68 -13 -18 -14 -31 -7 -59 16 -61 53
-126 94 -167 70 -70 255 -341 255 -374 0 -6 3 -11 8 -11 11 0 55 -69 55 -86 0
-7 3 -14 7 -14 3 0 14 -14 23 -30 10 -16 15 -30 12 -30 -4 0 3 -12 14 -26 12
-15 21 -34 21 -44 0 -9 9 -27 20 -39 10 -13 24 -38 30 -57 14 -42 50 -54 91
-30 15 9 31 15 36 14 4 -2 33 13 63 32 30 19 69 42 85 50 121 63 168 88 225
121 36 20 112 61 170 91 58 30 135 71 172 92 37 21 72 35 77 32 5 -3 11 0 14
8 3 7 63 41 134 75 70 34 146 71 168 83 47 25 400 206 500 256 39 19 82 44 97
54 16 11 32 16 38 13 5 -3 10 -1 10 5 0 5 16 18 35 27 19 9 35 19 36 22 0 3 3
15 5 26 3 11 5 43 4 72 0 64 -23 116 -108 243 -34 52 -61 98 -60 102 2 4 -7
15 -19 23 -13 9 -23 23 -23 31 0 18 -34 86 -70 139 -50 75 -120 185 -120 189
0 10 -76 83 -104 102 -64 41 -203 61 -231 33 -5 -5 -17 -9 -26 -9 -10 0 -19
-3 -21 -7 -1 -5 -78 -46 -170 -91 -93 -46 -168 -88 -168 -93 0 -5 -7 -9 -14
-9 -8 0 -36 -11 -62 -25 -26 -14 -52 -25 -59 -25 -16 0 -35 44 -29 67 5 20
-60 173 -78 184 -6 4 1 9 15 13 29 7 165 82 185 102 7 8 18 14 24 14 15 0 86
78 114 126 34 57 44 166 20 212 -18 34 -14 52 9 52 8 0 37 14 65 31 28 17 54
29 57 25 3 -3 21 5 39 19 18 14 37 25 42 25 11 0 99 41 142 67 14 8 41 21 60
29 19 8 44 19 55 24 113 54 183 68 193 39z m-214 -864 c48 -19 112 -82 122
-119 3 -14 12 -26 20 -26 8 0 14 -7 14 -15 0 -8 6 -23 14 -32 54 -67 90 -121
107 -166 27 -67 71 -145 104 -179 14 -15 25 -33 25 -41 0 -7 11 -24 25 -37 14
-13 25 -28 25 -34 0 -5 9 -29 21 -52 12 -26 19 -57 17 -79 -3 -33 -9 -39 -63
-69 -33 -18 -76 -42 -95 -54 -19 -11 -87 -46 -150 -77 -63 -31 -122 -60 -130
-65 -12 -8 -219 -114 -311 -160 -25 -13 -50 -26 -134 -70 -38 -21 -108 -58
-155 -82 -47 -25 -168 -88 -270 -140 -102 -52 -212 -110 -245 -128 -33 -18
-62 -32 -65 -31 -12 2 -45 -13 -83 -39 -70 -46 -117 -65 -136 -53 -9 5 -38 51
-66 101 -75 137 -127 225 -142 244 -15 17 -45 66 -65 108 -7 14 -21 34 -30 44
-10 11 -18 26 -18 33 0 7 -4 13 -8 13 -4 0 -16 13 -25 30 -10 16 -23 35 -30
42 -74 78 -134 166 -129 191 1 4 -2 7 -8 7 -20 0 -10 41 12 49 14 5 26 22 33
47 6 21 17 38 23 36 7 -1 12 2 12 7 0 9 185 103 315 160 39 17 79 37 90 43 58
35 212 108 228 108 9 0 17 4 17 8 0 8 43 32 57 32 3 0 3 -26 -1 -58 -8 -70 1
-123 19 -115 8 2 18 -4 23 -14 10 -19 22 -21 137 -27 44 -2 53 2 89 33 41 37
86 120 86 158 0 12 4 24 9 27 5 3 8 46 7 96 -1 68 2 90 12 90 7 0 22 9 34 20
12 11 30 20 39 20 10 0 20 4 24 9 3 5 31 22 63 37 31 15 66 32 77 37 94 51
128 67 140 67 7 0 15 4 17 8 4 11 122 62 142 62 9 0 16 3 16 8 0 13 101 4 144
-13z"/>
<path d="M2460 2000 c-19 -36 31 -123 61 -104 19 11 10 82 -13 104 -27 25 -35
25 -48 0z"/>
<path d="M2366 1924 c-20 -19 -20 -18 0 -55 8 -17 13 -37 10 -44 -3 -8 3 -24
13 -36 l18 -23 12 22 c7 12 9 27 6 32 -3 6 -2 10 3 10 12 0 8 61 -6 88 -15 26
-34 28 -56 6z"/>
<path d="M2130 1895 c-7 -8 -10 -22 -6 -30 3 -9 1 -37 -4 -62 -14 -59 0 -81
35 -55 13 9 21 20 20 23 -2 3 3 29 11 57 14 46 14 54 0 67 -19 19 -40 19 -56
0z"/>
<path d="M2260 1900 c-22 -6 -25 -11 -23 -51 4 -63 11 -89 27 -89 14 0 39 50
39 76 0 8 4 14 9 14 14 0 9 26 -9 42 -12 9 -27 13 -43 8z"/>
<path d="M2519 1821 c-29 -29 -29 -30 -11 -60 17 -32 51 -49 71 -36 14 8 14
52 0 60 -6 4 -8 13 -5 21 7 17 -3 44 -16 44 -5 0 -23 -13 -39 -29z"/>
<path d="M2400 1695 c-8 -21 -8 -51 -1 -97 0 -4 11 -17 23 -28 19 -17 20 -23
9 -30 -12 -7 -12 -13 -1 -39 14 -36 30 -39 50 -12 7 11 17 18 22 15 4 -3 8 6
8 20 0 19 -7 27 -25 32 -27 7 -33 20 -12 27 9 3 9 7 -1 19 -7 9 -12 29 -10 44
2 28 -26 74 -44 74 -5 0 -13 -11 -18 -25z"/>
<path d="M2565 1704 c-22 -22 -16 -78 8 -82 16 -3 57 31 57 48 0 7 -38 50 -45
50 -2 0 -11 -7 -20 -16z"/>
<path d="M2250 1685 c-7 -8 -10 -27 -7 -42 3 -15 1 -35 -4 -44 -6 -12 -3 -24
11 -41 19 -24 19 -25 -4 -49 -21 -22 -22 -26 -9 -51 22 -45 55 -32 72 29 7 24
5 32 -10 41 -17 11 -17 14 -4 46 22 51 19 103 -4 116 -25 13 -26 13 -41 -5z"/>
<path d="M2083 1633 c-26 -9 -7 -136 23 -147 16 -6 34 27 32 61 0 10 2 30 6
44 7 23 4 28 -21 36 -15 6 -34 8 -40 6z"/>
<path d="M2067 1398 c-31 -36 -32 -47 -14 -72 11 -15 17 -17 35 -7 12 6 22 13
22 14 0 1 4 16 9 34 7 25 6 35 -8 47 -17 15 -20 14 -44 -16z"/>
<path d="M2275 3280 c-11 -5 -35 -9 -53 -9 -36 -1 -89 -41 -103 -79 -21 -54
-13 -121 22 -192 32 -66 36 -69 81 -80 118 -29 242 82 247 222 2 59 -7 87 -42
126 -17 18 -31 22 -76 21 -31 0 -65 -4 -76 -9z m-45 -152 c11 -18 20 -40 20
-49 0 -9 16 -28 37 -42 l36 -26 -29 -7 c-44 -12 -67 -7 -86 16 -37 46 -45 140
-12 140 8 0 23 -15 34 -32z"/>
<path d="M1474 2942 c-75 -55 -116 -181 -80 -250 9 -17 36 -45 62 -63 77 -56
151 -35 201 55 53 96 49 212 -9 261 -44 37 -121 35 -174 -3z m39 -102 c3 -11
2 -20 -2 -20 -10 0 -31 37 -24 44 9 9 20 -2 26 -24z m7 -121 c10 -9 24 -19 31
-22 23 -8 -17 -20 -45 -13 -35 9 -56 33 -56 66 l0 28 26 -21 c14 -12 34 -29
44 -38z"/>
</g>
</svg>
