<?xml version="1.0" standalone="no"?>
<!DOCTYPE svg PUBLIC "-//W3C//DTD SVG 20010904//EN"
 "http://www.w3.org/TR/2001/REC-SVG-20010904/DTD/svg10.dtd">
<svg version="1.0" xmlns="http://www.w3.org/2000/svg"
 width="499.000000pt" height="423.000000pt" viewBox="0 0 499.000000 423.000000"
 preserveAspectRatio="xMidYMid meet">
<metadata>
Created by potrace 1.16, written by Peter Selinger 2001-2019
</metadata>
<g transform="translate(0.000000,423.000000) scale(0.100000,-0.100000)"
fill="#000000" stroke="none">
<path d="M2419 4036 c-7 -14 -16 -26 -20 -26 -4 0 -10 -19 -14 -41 -6 -32 -20
-55 -64 -100 -31 -33 -61 -59 -66 -59 -6 0 -16 -9 -23 -20 -7 -11 -17 -20 -23
-20 -19 0 -137 -90 -192 -148 -60 -62 -121 -142 -138 -182 -6 -14 -16 -32 -23
-40 -17 -19 -67 -147 -65 -163 1 -6 -1 -23 -5 -37 -12 -43 11 -150 43 -201
l29 -47 -29 -36 c-17 -19 -47 -70 -69 -113 -24 -49 -61 -101 -97 -138 -32 -33
-103 -109 -157 -170 -55 -60 -102 -112 -105 -115 -24 -20 -113 -133 -133 -170
-14 -25 -37 -66 -52 -91 -14 -25 -31 -68 -36 -95 -6 -27 -13 -60 -16 -74 -10
-46 -4 -113 16 -180 7 -25 13 -50 12 -56 -1 -6 5 -17 13 -24 8 -7 15 -18 15
-24 0 -18 53 -138 76 -171 18 -27 78 -142 79 -155 1 -3 9 -21 19 -40 11 -19
41 -78 69 -130 28 -52 63 -117 79 -145 43 -77 107 -210 111 -231 2 -11 8 -28
15 -40 18 -34 71 -200 92 -289 20 -86 64 -195 79 -195 5 0 12 -11 15 -25 4
-14 11 -23 16 -20 6 3 10 1 10 -4 0 -31 157 -131 225 -144 11 -2 27 -7 35 -10
82 -32 185 -48 323 -52 65 -2 121 -6 124 -9 3 -3 12 1 20 9 8 8 29 15 46 15
65 1 184 10 252 20 70 10 103 14 225 26 36 4 77 13 92 20 15 8 34 14 42 14 29
0 146 110 167 158 7 17 17 32 21 32 5 0 8 8 8 18 0 11 7 33 15 50 9 17 18 39
20 49 10 54 28 113 34 113 3 0 7 33 8 73 1 63 19 162 52 292 5 22 19 83 31
135 12 52 31 127 43 165 12 39 22 72 23 75 5 20 53 126 143 312 28 59 51 113
51 120 0 8 7 23 15 35 8 12 17 32 19 45 3 12 5 23 6 23 1 0 3 8 5 17 2 9 8 32
13 50 6 18 10 40 10 48 1 8 5 31 9 50 14 59 8 162 -12 220 -18 50 -34 70 -145
188 -8 8 -15 18 -15 22 0 14 -91 110 -104 110 -7 0 -18 15 -26 33 -7 17 -23
38 -35 45 -12 7 -20 15 -17 18 2 2 -16 26 -41 52 -45 47 -118 151 -115 163 1
4 -7 15 -17 24 -11 10 -20 25 -20 34 0 26 -48 86 -90 111 -37 24 -59 60 -58
100 2 99 -40 266 -92 371 -45 89 -178 249 -207 249 -7 0 -13 4 -13 9 0 4 -24
34 -52 66 -64 69 -98 129 -98 172 0 25 -6 35 -32 47 -34 18 -34 17 -63 -35 -8
-15 -11 -30 -7 -35 3 -5 -2 -1 -13 9 -20 19 -20 19 3 34 16 11 22 25 22 50 l0
35 -67 -8 c-83 -10 -160 -9 -190 1 -18 6 -25 2 -34 -19z m145 -102 c9 -8 16
-22 16 -29 0 -8 9 -17 20 -20 11 -3 23 -18 26 -33 3 -15 9 -41 14 -58 12 -50
-23 -245 -48 -264 -4 -3 -24 -25 -44 -50 -20 -25 -80 -90 -133 -145 -52 -55
-98 -110 -101 -122 -3 -12 -12 -24 -19 -27 -12 -4 -43 -62 -60 -111 -24 -66
-21 -173 4 -198 6 -6 11 -19 11 -29 0 -9 8 -22 18 -27 15 -9 15 -10 -5 -11
-12 0 -25 5 -28 10 -4 6 -10 8 -15 5 -5 -3 -15 2 -24 10 -8 9 -19 16 -23 16
-4 1 -7 5 -6 10 2 5 -8 11 -21 15 -13 3 -26 15 -29 26 -4 16 -11 18 -29 13
-13 -4 -26 -12 -29 -17 -7 -12 -109 100 -139 154 -19 34 -24 60 -26 122 -1 74
11 136 28 136 4 0 5 6 2 13 -3 8 2 20 11 27 8 7 24 32 34 55 19 43 35 66 86
121 17 18 37 42 45 54 8 12 29 28 46 36 17 8 40 23 50 32 11 9 35 26 54 36 19
11 51 34 70 53 19 18 40 33 47 33 7 0 13 5 13 11 0 6 6 16 13 24 23 25 49 60
68 93 28 48 75 64 103 36z m280 -254 c34 -35 66 -65 71 -65 6 0 14 -10 20 -22
5 -13 15 -23 22 -23 10 0 50 -50 91 -115 23 -36 42 -84 42 -105 0 -11 5 -20
10 -20 6 0 10 -6 10 -12 0 -7 6 -25 14 -40 17 -32 37 -217 33 -307 -2 -67 -17
-93 -78 -133 -38 -24 -148 -57 -219 -65 -87 -10 -428 -10 -463 0 -26 7 -27 8
-13 36 9 16 13 31 10 34 -3 3 -8 25 -10 48 -7 53 -10 59 -35 59 -55 0 2 174
88 267 19 21 79 84 134 140 55 56 100 104 99 107 0 4 6 16 14 29 31 48 58 161
57 236 l-1 73 22 -28 c12 -16 49 -58 82 -94z m462 -859 c12 -57 -58 -164 -127
-198 -31 -14 -85 -37 -124 -51 -39 -14 -182 -42 -215 -42 -42 0 -74 -5 -87
-13 -7 -5 -16 -6 -20 -4 -17 11 -188 -33 -204 -52 -14 -18 -21 -18 -95 -6 -43
7 -86 13 -94 13 -67 4 -232 38 -262 53 -21 11 -43 19 -50 19 -12 0 -22 9 -85
70 -39 39 -84 110 -88 140 -4 33 18 81 46 99 19 11 24 10 42 -7 16 -17 18 -25
9 -49 -9 -26 -6 -34 32 -81 22 -28 46 -51 52 -51 5 -1 19 -9 30 -19 31 -30
132 -82 169 -87 11 -2 52 -9 90 -16 53 -9 105 -9 215 -1 80 6 152 11 160 11
40 -2 174 26 250 53 118 42 161 62 194 93 16 14 38 27 48 28 30 2 65 55 73
109 6 41 9 45 21 33 8 -8 17 -27 20 -44z m-1178 -71 c37 -21 147 -60 169 -60
13 0 23 -4 23 -9 0 -5 15 -10 33 -10 82 -2 183 -13 191 -22 6 -6 3 -9 -10 -10
-10 0 -53 -3 -96 -5 -48 -3 -78 -1 -83 5 -3 6 -24 11 -45 11 -21 0 -41 4 -44
9 -3 4 -21 11 -39 14 -31 5 -121 57 -101 57 5 1 -2 7 -16 15 -14 8 -19 14 -12
15 7 0 20 -4 30 -10z m1276 -74 c3 -13 33 -52 66 -87 33 -35 75 -81 93 -101
17 -21 47 -54 65 -73 17 -20 32 -38 32 -41 0 -2 15 -19 33 -38 91 -95 138
-151 143 -172 3 -13 10 -24 15 -24 5 0 6 -6 3 -13 -3 -8 0 -26 6 -41 7 -19 7
-47 1 -85 -5 -31 -12 -75 -15 -97 -3 -23 -12 -57 -20 -75 -8 -19 -21 -50 -28
-69 -7 -19 -39 -86 -70 -149 -32 -63 -58 -120 -58 -127 0 -7 -6 -19 -14 -26
-7 -8 -28 -48 -46 -89 -18 -41 -36 -78 -41 -84 -5 -5 -9 -20 -9 -33 0 -13 -6
-47 -14 -75 -12 -45 -20 -88 -42 -211 -3 -16 -9 -36 -13 -45 -16 -30 -51 -199
-54 -260 -2 -33 -6 -64 -10 -67 -3 -3 -3 -12 -1 -19 3 -7 -1 -26 -9 -42 -8
-15 -18 -46 -21 -67 -9 -58 -74 -173 -119 -211 -22 -19 -43 -32 -48 -30 -4 3
-13 -1 -21 -8 -14 -15 -184 -43 -318 -52 -47 -4 -98 -9 -115 -11 -40 -6 -214
-23 -300 -30 -65 -4 -185 12 -185 26 0 3 -12 5 -27 4 -16 -1 -33 3 -39 7 -6 5
-24 11 -40 13 -34 4 -168 74 -200 105 -12 11 -27 21 -33 21 -6 0 -11 11 -11
25 0 14 -6 25 -13 25 -15 0 -44 59 -53 111 -4 18 -11 40 -17 46 -5 7 -7 13 -4
13 3 0 1 15 -4 33 -6 17 -17 56 -25 86 -8 30 -21 68 -28 85 -8 17 -24 60 -35
96 -20 61 -52 137 -72 170 -5 8 -15 26 -21 40 -7 14 -20 37 -31 52 -10 16 -15
28 -10 28 4 0 1 6 -7 13 -17 14 -23 24 -80 133 -22 42 -40 83 -40 90 0 14 -19
54 -31 64 -3 3 -12 19 -21 35 -27 55 -53 100 -59 105 -3 3 -16 32 -29 65 -13
33 -28 65 -32 71 -14 20 -59 168 -62 207 -4 41 13 124 33 167 20 42 44 85 50
90 3 3 11 12 16 21 34 54 67 98 96 130 19 19 46 51 61 70 14 20 65 74 112 122
47 47 86 91 86 98 0 7 3 10 6 6 3 -3 17 6 30 20 l24 26 20 -24 c11 -13 32 -43
47 -66 16 -24 34 -43 41 -43 6 0 12 -4 12 -10 0 -5 7 -10 15 -10 8 0 19 -8 24
-19 9 -16 47 -34 61 -28 3 1 19 -8 35 -19 27 -19 70 -32 135 -40 14 -1 41 -5
60 -8 31 -5 75 -12 135 -21 11 -1 20 -3 20 -5 0 -1 23 -4 52 -7 44 -4 57 -1
85 20 32 24 65 30 229 43 49 3 70 7 136 22 23 5 44 7 47 5 3 -3 15 2 28 11 12
9 35 16 50 16 15 0 45 6 65 14 33 12 85 28 104 30 46 7 167 112 188 164 16 38
27 41 35 8z m-809 -26 c-3 -5 -13 -10 -21 -10 -8 0 -12 5 -9 10 3 6 13 10 21
10 8 0 12 -4 9 -10z"/>
<path d="M2699 2250 c-30 -8 -75 -30 -99 -47 -24 -18 -47 -33 -52 -33 -11 0
-86 -114 -94 -144 -8 -31 -6 -31 -74 -4 -74 29 -159 26 -207 -6 -18 -13 -46
-43 -61 -67 -27 -44 -69 -131 -65 -136 1 -1 -4 -17 -11 -35 -23 -60 -5 -198
39 -294 14 -30 25 -64 25 -75 0 -12 14 -38 30 -59 17 -21 30 -43 30 -48 0 -18
43 -86 66 -104 31 -25 104 -180 119 -250 15 -75 20 -187 7 -173 -6 6 -13 34
-16 63 -4 34 -14 61 -27 75 -12 12 -43 54 -70 94 -27 40 -60 83 -74 97 -34 34
-85 39 -125 12 -31 -21 -32 -21 -27 -96 3 -41 12 -88 21 -105 9 -16 16 -36 16
-43 0 -7 4 -11 9 -8 11 7 75 -55 115 -112 17 -23 33 -42 38 -42 4 0 8 -7 8
-15 0 -8 7 -36 16 -62 10 -29 16 -74 15 -113 -2 -73 13 -106 45 -96 17 5 81
128 88 167 2 15 68 151 76 159 3 3 14 18 23 33 10 16 61 80 114 143 106 128
168 177 303 245 23 11 39 29 46 49 6 18 18 37 27 42 10 5 17 16 17 24 0 8 11
19 24 25 16 8 39 41 67 98 23 47 46 88 50 91 4 3 10 26 13 53 4 26 11 59 17
74 17 46 19 231 3 303 -26 113 -63 178 -149 263 -24 23 -76 47 -104 47 -11 0
-21 5 -23 11 -5 16 -127 16 -189 -1z m196 -83 c11 -3 25 -6 32 -6 7 -1 35 -25
64 -53 85 -86 120 -191 114 -338 -4 -85 -18 -164 -35 -205 -49 -112 -110 -215
-128 -215 -4 0 -18 27 -31 61 -15 38 -31 64 -45 69 -13 5 -15 9 -6 10 16 1 68
65 92 115 9 17 18 62 22 101 6 58 3 78 -13 117 -12 28 -27 47 -36 47 -18 0
-108 -49 -113 -62 -2 -4 -8 -8 -13 -8 -5 0 -8 28 -7 63 1 61 -18 121 -46 139
-38 25 -82 -14 -150 -132 -47 -83 -68 -134 -58 -146 4 -4 0 -3 -8 1 -21 12
-74 49 -80 56 -3 3 -19 10 -35 16 -24 8 -41 6 -83 -9 -28 -11 -51 -22 -50 -26
1 -4 -3 -16 -9 -27 -18 -33 -25 -102 -12 -127 6 -13 25 -37 41 -55 l30 -31
-33 -42 c-38 -48 -42 -59 -42 -123 0 -71 13 -79 122 -81 100 -1 97 1 92 -72
-4 -47 61 -157 100 -169 18 -6 18 -7 -2 -28 -11 -12 -27 -34 -35 -49 -8 -15
-22 -33 -32 -40 -10 -7 -29 -31 -42 -52 l-24 -40 -16 85 c-9 46 -20 95 -25
109 -13 41 -77 175 -85 180 -5 3 -10 12 -12 20 -2 7 -15 24 -29 37 -15 12 -32
37 -40 55 -7 18 -25 51 -40 74 -15 22 -31 54 -34 70 -4 16 -15 47 -26 69 -25
54 -35 179 -19 245 26 110 89 184 159 188 40 3 121 -23 121 -39 0 -4 11 -20
25 -35 18 -20 30 -25 49 -20 18 4 23 11 19 26 -6 21 59 149 98 194 29 34 82
67 129 82 35 11 148 12 185 1z m-168 -300 c-6 -44 -35 -145 -47 -168 -8 -13
-21 -19 -46 -19 -32 0 -34 2 -28 28 12 57 26 89 66 155 34 56 43 66 51 52 5
-9 7 -31 4 -48z m182 -166 c-11 -75 -41 -121 -99 -151 -22 -11 -43 -20 -49
-20 -10 0 -21 82 -11 90 3 3 19 23 36 45 50 68 112 122 125 108 4 -5 3 -37 -2
-72z m-458 -22 c9 -10 19 -16 22 -12 8 7 37 -22 37 -38 0 -7 -5 -27 -11 -44
-11 -30 -14 -31 -48 -25 -53 11 -73 20 -103 48 -42 38 -35 83 17 110 22 12 55
-3 86 -39z m215 -96 c20 -23 23 -35 19 -68 -3 -21 -11 -45 -17 -52 -6 -7 -8
-13 -4 -13 3 0 -3 -9 -14 -20 -27 -27 -35 -25 -64 13 -49 64 -23 146 52 166 2
1 14 -11 28 -26z m-194 -117 c4 -6 8 -7 8 -1 0 5 5 4 11 -2 18 -18 1 -76 -29
-98 -30 -22 -114 -27 -132 -9 -17 17 10 74 49 107 25 21 39 25 59 20 15 -3 30
-11 34 -17z m336 -41 c23 -10 42 -24 42 -30 0 -7 7 -26 15 -41 22 -43 19 -57
-21 -92 -45 -40 -49 -35 -89 81 -26 76 -28 89 -15 97 8 5 17 8 20 7 3 -2 24
-12 48 -22z m-222 -86 c4 -7 21 -9 46 -5 l40 7 -5 -70 c-5 -71 -36 -155 -61
-164 -25 -10 -58 39 -63 90 -6 72 6 153 22 153 8 0 17 -5 21 -11z m161 -138
c12 -20 8 -31 -13 -31 -6 0 -11 11 -10 25 1 30 7 31 23 6z m-536 -270 c61 -84
67 -98 74 -157 7 -69 0 -100 -11 -45 -4 17 -14 37 -24 44 -9 7 -28 30 -42 52
-14 23 -46 59 -72 80 -36 32 -47 49 -52 80 -3 22 -8 43 -11 48 -2 4 -1 12 2
17 14 22 72 -28 136 -119z"/>
</g>
</svg>
