<?xml version="1.0" standalone="no"?>
<!DOCTYPE svg PUBLIC "-//W3C//DTD SVG 20010904//EN"
 "http://www.w3.org/TR/2001/REC-SVG-20010904/DTD/svg10.dtd">
<svg version="1.0" xmlns="http://www.w3.org/2000/svg"
 width="559.000000pt" height="479.000000pt" viewBox="0 0 559.000000 479.000000"
 preserveAspectRatio="xMidYMid meet">
<metadata>
Created by potrace 1.16, written by Peter Selinger 2001-2019
</metadata>
<g transform="translate(0.000000,479.000000) scale(0.100000,-0.100000)"
fill="#000000" stroke="none">
<path d="M4335 4760 c-9 -18 -15 -40 -12 -50 2 -10 1 -24 -3 -31 -5 -7 -4 -22
0 -35 11 -29 -3 -83 -42 -162 -32 -63 -55 -91 -80 -96 -7 -2 -20 -6 -28 -9
-92 -37 -136 -48 -218 -54 l-94 -6 3 24 c4 39 -9 65 -49 92 -46 31 -94 39
-152 26 -25 -6 -101 -12 -170 -14 -69 -1 -174 -6 -235 -10 -97 -7 -171 -9
-255 -6 -14 0 -95 0 -180 0 -85 -1 -207 -1 -270 -1 -129 0 -229 -4 -407 -14
-83 -4 -127 -3 -136 4 -7 6 -18 7 -26 3 -14 -9 -108 -6 -151 5 -40 10 -184 4
-269 -11 -66 -11 -92 -22 -165 -70 -84 -54 -90 -56 -162 -58 -40 -1 -74 -5
-74 -8 0 -8 -66 -6 -74 2 -3 3 -56 4 -118 2 -129 -4 -164 -16 -223 -78 -46
-49 -88 -61 -131 -39 -45 24 -83 74 -88 119 -11 92 -13 134 -5 146 4 7 1 25
-7 41 -18 34 -17 28 -5 60 10 26 8 28 -17 34 -15 3 -33 7 -39 9 -25 8 -37 -55
-20 -110 3 -11 8 -58 12 -105 7 -103 20 -155 48 -195 48 -66 80 -85 148 -85
37 0 51 -12 30 -25 -5 -3 -13 -36 -17 -73 -6 -58 -8 -64 -17 -44 -10 22 -15
23 -66 17 -72 -8 -189 -11 -193 -5 -24 36 -108 224 -113 250 -3 19 -7 110 -8
203 -3 182 -8 199 -51 179 l-24 -11 4 -178 c6 -208 15 -271 49 -333 14 -25 41
-77 60 -117 19 -39 40 -75 46 -78 15 -10 260 -9 283 0 15 7 17 5 12 -13 -9
-28 -9 -147 0 -252 9 -105 9 -109 -1 -250 -4 -63 -9 -167 -11 -230 -2 -63 -9
-137 -14 -165 -6 -27 -13 -95 -16 -150 -3 -55 -9 -113 -13 -130 -8 -32 -7
-380 1 -405 3 -8 8 -22 11 -30 3 -8 8 -62 12 -120 6 -106 15 -237 16 -255 1
-5 -4 -48 -10 -95 -13 -104 -24 -257 -24 -365 0 -80 21 -229 36 -252 11 -17
38 -110 35 -120 -4 -14 86 -192 94 -187 5 3 8 -1 8 -9 0 -14 35 -54 75 -86 27
-22 106 -42 163 -42 50 0 52 -1 52 -27 0 -24 13 -72 42 -154 9 -25 37 -56 116
-127 20 -18 54 -34 85 -41 29 -6 59 -14 67 -17 22 -9 21 -9 65 -18 22 -4 48
-12 58 -17 10 -5 34 -11 54 -14 19 -2 55 -13 79 -24 24 -10 44 -16 44 -13 0 3
6 0 13 -6 9 -7 24 -8 45 -2 17 5 32 7 35 5 2 -2 105 -6 228 -9 123 -4 274 -8
334 -11 154 -8 417 -9 495 -2 36 3 85 3 110 -1 46 -7 81 -3 180 19 77 16 96
18 257 24 78 3 167 13 199 21 32 8 71 15 86 15 16 0 31 7 34 15 4 8 10 15 15
15 6 0 15 5 22 10 48 40 92 70 103 70 8 0 14 5 14 10 0 12 56 70 68 70 4 1 19
18 34 40 24 35 27 50 34 167 8 148 8 132 0 203 -3 30 -8 91 -12 135 -8 114
-12 150 -23 240 -9 74 -23 264 -22 293 1 6 1 18 1 25 1 18 -8 159 -15 252 -7
87 -7 191 1 227 3 18 5 198 3 268 0 8 2 58 6 110 13 189 9 452 -14 830 -4 63
-6 142 -6 175 1 33 2 178 3 323 l2 262 102 1 c365 5 340 3 383 28 22 13 50 29
61 35 33 18 85 73 104 111 20 40 23 47 65 200 19 69 28 322 12 343 -5 6 -20
12 -34 12 -13 0 -26 -6 -28 -12 -2 -7 -6 -80 -9 -163 -4 -164 -19 -243 -61
-326 -31 -63 -52 -85 -115 -119 l-45 -24 -432 -4 c-267 -2 -433 0 -433 6 0 5
7 15 15 22 8 7 15 20 15 29 0 10 6 25 13 34 11 15 35 17 217 17 113 0 212 0
220 0 34 -2 101 10 136 25 20 8 51 15 68 15 17 0 42 9 56 20 14 11 30 20 37
20 22 0 129 148 138 191 4 19 10 39 14 44 4 6 7 54 7 109 -1 90 -3 100 -23
113 -20 14 -23 13 -38 -17z m-588 -428 c22 -17 21 -17 -45 -17 -66 0 -91 12
-55 26 32 13 77 9 100 -9z m-300 -16 c-87 -140 -120 -215 -143 -330 -2 -11 -7
-22 -12 -25 -4 -3 -9 -17 -9 -30 -1 -13 -11 -65 -22 -115 -11 -50 -22 -154
-26 -231 -13 -287 -16 -336 -29 -408 -7 -41 -12 -80 -11 -88 2 -8 5 -105 9
-217 6 -193 6 -203 -11 -194 -95 48 -233 88 -249 73 -3 -3 -38 -11 -77 -17
-40 -6 -101 -25 -137 -42 -36 -17 -90 -36 -120 -42 -52 -11 -58 -11 -120 18
-36 16 -85 37 -110 47 -25 10 -58 23 -75 30 -49 20 -216 27 -239 9 -11 -8 -26
-14 -34 -14 -18 0 -122 -51 -122 -60 0 -12 -83 -31 -115 -26 -16 3 -57 14 -90
26 -96 35 -231 37 -357 5 -155 -39 -146 -44 -142 78 5 121 20 306 28 327 3 8
8 33 11 55 15 133 25 215 41 330 9 72 18 155 19 185 2 51 9 122 21 230 2 25 6
72 8 105 4 80 36 165 86 231 45 60 69 76 120 79 19 2 46 7 60 13 26 10 154 8
250 -4 30 -4 71 -6 91 -5 21 1 40 -2 43 -7 3 -6 23 -6 48 -2 49 9 170 14 223
10 11 -1 54 2 95 6 41 4 136 7 210 6 422 -4 735 -1 790 7 25 3 59 6 77 6 28 0
30 -2 20 -19z m-2167 -134 c0 -4 -8 -19 -17 -32 -10 -14 -18 -43 -19 -65 -5
-97 -49 -572 -61 -650 -2 -16 -6 -41 -8 -55 -3 -14 -7 -51 -10 -82 -4 -32 -8
-68 -11 -80 -3 -13 -7 -54 -9 -91 -3 -37 -7 -72 -10 -77 -3 -5 -8 -53 -11
-107 -3 -54 -9 -134 -14 -178 -4 -44 -6 -168 -4 -275 1 -107 4 -240 4 -294 1
-55 6 -110 11 -123 5 -14 16 -56 24 -95 14 -70 48 -133 90 -171 66 -60 188
-81 325 -57 30 5 159 8 285 6 127 -1 266 1 310 6 136 15 394 9 509 -13 27 -5
66 -9 87 -9 21 0 64 -7 96 -16 32 -9 74 -17 94 -18 20 -2 41 -6 46 -9 16 -10
156 -36 182 -34 22 2 25 -2 26 -43 3 -62 15 -191 21 -212 4 -14 1 -16 -23 -8
-40 14 -168 59 -168 61 0 2 -65 10 -100 12 -36 1 -184 -10 -245 -18 -14 -2
-79 -18 -145 -35 -103 -28 -130 -31 -197 -26 -71 5 -88 11 -168 55 -64 36
-154 58 -226 55 -73 -2 -203 -30 -264 -56 -24 -11 -60 -21 -80 -24 -19 -3 -60
-8 -91 -12 -30 -4 -71 -4 -90 0 -18 4 -56 11 -84 14 -27 3 -64 12 -81 19 -47
19 -168 37 -209 31 -21 -4 -65 -16 -99 -27 -33 -12 -68 -22 -77 -23 -9 -1 -42
-20 -74 -42 -92 -63 -99 -66 -106 -46 -3 9 -5 32 -4 52 2 19 6 93 10 164 4 70
9 142 11 160 11 70 19 204 15 226 -1 3 -3 37 -6 75 -4 73 -7 98 -30 230 -7 44
-13 89 -14 100 -2 93 1 293 4 309 11 48 37 310 41 421 2 66 7 134 10 150 3 17
7 98 10 180 3 83 7 155 9 162 2 6 -1 13 -6 15 -10 3 -13 195 -5 268 6 59 21
148 26 153 1 1 4 15 6 31 8 47 32 84 74 115 38 27 41 28 147 24 59 -2 117 -4
128 -5 29 -1 95 8 100 14 8 8 65 7 65 0z m2495 -131 l25 -1 -1 -117 c0 -65 0
-149 0 -188 0 -38 0 -151 0 -250 -1 -99 3 -261 7 -360 11 -271 3 -776 -16
-1030 -2 -24 8 -331 14 -435 4 -63 9 -151 11 -195 1 -44 6 -107 9 -140 10 -92
18 -167 22 -195 2 -14 6 -52 9 -85 3 -33 9 -94 13 -135 9 -91 7 -254 -3 -278
-5 -9 -10 -26 -12 -37 -2 -11 -16 -29 -31 -40 -15 -11 -40 -33 -57 -49 -47
-47 -156 -112 -200 -121 -62 -12 -72 -13 -199 -20 -66 -3 -122 -8 -126 -10 -3
-2 -42 -9 -86 -14 -43 -6 -86 -12 -94 -14 -8 -2 -28 -6 -45 -10 -16 -3 -55 -3
-85 1 -30 4 -84 4 -120 0 -122 -15 -342 -16 -382 -2 -25 8 -98 13 -220 13
-397 1 -499 7 -579 35 -103 36 -97 35 -168 50 -35 8 -67 19 -70 23 -8 12 -89
37 -113 36 -11 -1 -17 1 -14 5 4 3 -2 11 -12 16 -10 6 -34 29 -53 50 -30 34
-34 46 -34 95 l0 56 295 2 c1032 5 1479 13 1570 26 55 9 104 11 116 6 27 -10
98 11 148 43 30 19 46 43 51 78 0 3 6 15 13 28 15 27 17 143 3 190 -6 19 -13
71 -17 115 -3 45 -9 86 -11 91 -3 4 -7 31 -10 60 -4 49 -35 271 -49 347 -5 29
-2 40 14 55 26 24 38 72 42 159 3 79 3 80 -4 155 -3 30 -5 63 -5 72 -1 9 -8
24 -17 32 -20 21 -22 55 -8 144 7 47 9 153 6 300 -9 390 -5 548 24 867 2 22 6
85 9 140 2 55 11 127 19 160 8 33 17 78 20 101 3 22 15 70 27 107 l22 66 126
3 c116 3 159 3 226 -1z m-1480 -1417 c11 -8 30 -14 43 -14 12 0 25 -6 28 -13
2 -7 13 -13 24 -14 11 -1 35 -13 53 -27 19 -14 44 -26 55 -26 12 0 22 -4 22
-8 0 -21 177 19 220 50 31 22 154 49 229 50 59 1 111 -14 111 -32 0 -5 7 -10
15 -10 8 0 24 -9 35 -20 24 -24 38 -25 62 -3 17 15 18 13 18 -69 0 -86 -4
-103 -23 -91 -6 4 -21 8 -34 9 -13 2 -30 10 -39 18 -8 9 -22 16 -30 16 -8 0
-31 11 -52 23 -25 16 -60 26 -107 31 -103 10 -106 10 -187 -32 -87 -46 -199
-84 -248 -85 -28 -1 -51 11 -112 56 -42 31 -81 57 -85 57 -5 0 -26 9 -48 20
-66 34 -190 11 -343 -62 -56 -27 -68 -30 -120 -23 -31 4 -61 10 -67 14 -14 11
-90 30 -150 38 -140 18 -212 3 -304 -63 -40 -28 -67 -28 -64 1 1 11 3 44 4 73
2 51 3 52 32 52 27 0 77 12 174 41 45 14 190 9 238 -7 22 -8 48 -14 58 -14 9
0 17 -4 17 -8 0 -5 17 -14 38 -20 44 -13 124 3 185 37 62 35 70 39 146 68 34
13 182 3 206 -13z m-115 -218 c0 -6 5 -5 11 1 8 8 17 8 32 -1 40 -21 127 -88
127 -97 0 -5 7 -9 15 -9 14 0 53 -18 65 -30 13 -13 83 -10 127 5 26 10 55 18
63 19 8 1 53 21 100 45 91 47 135 63 144 53 4 -3 25 -7 49 -8 42 -1 172 -55
191 -78 6 -7 32 -19 59 -26 l47 -13 -5 -81 c-3 -44 -8 -102 -11 -128 -5 -47 8
-124 28 -164 6 -12 7 -31 4 -42 -4 -11 -9 -31 -11 -43 -3 -12 -9 -27 -14 -32
-15 -15 -119 -21 -135 -8 -13 11 -41 17 -118 25 -20 2 -41 7 -47 10 -12 8
-154 36 -206 41 -22 2 -71 7 -110 11 -38 4 -98 7 -132 6 -35 0 -63 3 -63 7 0
10 -199 2 -230 -9 -26 -10 -139 -12 -410 -8 -85 1 -177 -2 -205 -6 -114 -17
-162 -17 -175 -1 -7 8 -20 15 -29 15 -30 0 -79 58 -94 113 -22 76 -34 150 -36
225 -2 67 -2 67 31 83 18 8 64 32 102 53 69 38 70 38 155 32 47 -4 93 -7 101
-7 8 0 31 -6 50 -13 108 -40 198 -52 222 -28 6 6 17 8 24 5 8 -3 14 0 14 6 0
6 6 11 14 11 7 0 19 7 26 15 7 8 28 17 49 21 20 4 41 10 47 15 27 22 134 34
134 15z m-57 -1057 c9 -6 17 -13 17 -17 0 -16 155 -67 172 -56 5 3 23 1 41 -5
31 -10 42 -9 145 19 20 6 46 13 57 15 11 3 41 10 67 16 26 6 69 12 95 14 27 2
77 9 113 15 66 11 182 1 222 -21 10 -5 25 -9 33 -9 8 0 15 -4 15 -10 0 -5 7
-10 15 -10 8 0 32 -9 52 -20 21 -11 45 -20 54 -20 12 0 18 -14 23 -56 4 -31 5
-58 3 -60 -3 -4 -59 22 -158 72 -25 13 -72 26 -105 29 -32 3 -67 8 -76 11 -27
8 -315 -68 -372 -98 -66 -36 -204 -25 -346 27 -25 9 -49 20 -55 25 -5 4 -50
18 -99 30 -77 19 -97 21 -145 11 -30 -6 -73 -20 -94 -31 -21 -11 -46 -22 -55
-24 -9 -1 -29 -8 -43 -14 -44 -18 -319 6 -319 28 0 4 -22 10 -49 14 -28 4 -67
14 -88 23 -26 11 -68 17 -133 17 l-96 1 -45 -37 c-103 -84 -230 -126 -243 -80
-17 67 -17 74 2 67 13 -3 30 3 48 17 16 13 43 33 60 45 34 23 156 67 217 78
38 6 128 -7 177 -26 91 -34 288 -48 379 -25 43 10 96 28 106 36 16 12 123 32
210 39 77 7 149 -5 198 -30z m-973 -189 c0 -5 12 -10 28 -10 15 0 40 -7 56
-15 16 -9 31 -13 34 -11 2 3 14 0 26 -6 11 -6 35 -13 51 -14 17 -2 62 -11 100
-20 39 -9 113 -16 165 -16 87 -1 101 2 165 32 62 30 80 34 160 34 50 1 99 -3
110 -8 11 -5 25 -10 30 -10 6 -1 27 -9 47 -18 74 -33 203 -64 283 -68 36 -2
145 19 170 32 17 9 47 19 68 23 20 4 37 11 37 16 0 16 76 30 190 36 110 5 117
4 164 -21 27 -14 57 -26 67 -26 11 0 19 -4 19 -8 0 -4 20 -16 44 -26 94 -39
133 -109 94 -168 -13 -20 -24 -25 -55 -24 -21 1 -45 -3 -53 -10 -40 -31 -384
-50 -780 -45 -36 1 -99 2 -140 2 -41 1 -185 -2 -320 -6 -135 -3 -263 -7 -285
-7 -84 -1 -415 13 -430 18 -8 4 -15 2 -15 -3 0 -7 -215 -10 -230 -2 -7 3 -23
6 -36 8 -16 2 -54 37 -54 50 0 6 -6 14 -14 17 -8 3 -22 21 -31 40 -9 19 -20
34 -25 34 -6 0 -10 8 -10 18 0 10 -5 23 -12 30 -9 9 -7 12 12 12 51 1 176 63
236 118 10 10 37 19 59 21 22 1 42 5 44 7 9 8 31 4 31 -6z"/>
</g>
</svg>
