<?xml version="1.0" standalone="no"?>
<!DOCTYPE svg PUBLIC "-//W3C//DTD SVG 20010904//EN"
 "http://www.w3.org/TR/2001/REC-SVG-20010904/DTD/svg10.dtd">
<svg version="1.0" xmlns="http://www.w3.org/2000/svg"
 width="537.000000pt" height="433.000000pt" viewBox="0 0 537.000000 433.000000"
 preserveAspectRatio="xMidYMid meet">
<metadata>
Created by potrace 1.16, written by Peter Selinger 2001-2019
</metadata>
<g transform="translate(0.000000,433.000000) scale(0.100000,-0.100000)"
fill="#000000" stroke="none">
<path d="M2800 4122 c0 -6 -17 -8 -38 -6 -21 2 -65 -4 -97 -12 -74 -19 -150
-32 -235 -39 -36 -4 -87 -11 -114 -16 -27 -5 -51 -7 -54 -4 -3 2 -17 -2 -31
-9 -14 -8 -55 -26 -91 -41 -36 -14 -78 -33 -95 -42 -16 -9 -39 -21 -50 -27
-11 -6 -22 -14 -25 -17 -5 -5 -51 -37 -119 -81 -14 -9 -33 -23 -41 -30 -16
-15 -31 -24 -89 -56 -23 -13 -55 -35 -71 -50 -16 -15 -54 -45 -84 -67 -55 -39
-74 -65 -61 -85 7 -11 -32 -49 -50 -50 -5 0 -18 -9 -30 -20 -46 -44 -65 -60
-73 -60 -29 0 -154 -180 -187 -270 -37 -99 -43 -118 -55 -150 -22 -63 -38
-213 -34 -323 4 -106 14 -144 63 -252 10 -22 24 -59 30 -82 6 -24 16 -62 23
-85 6 -24 12 -48 12 -53 2 -28 102 -208 127 -229 61 -51 79 -241 34 -364 -14
-38 -25 -78 -25 -89 0 -12 -7 -26 -15 -33 -8 -7 -15 -20 -15 -29 0 -9 -9 -33
-20 -54 -11 -20 -20 -46 -20 -57 0 -11 -4 -20 -9 -20 -5 0 -14 -12 -20 -27 -6
-16 -15 -35 -21 -43 -45 -68 -110 -193 -110 -211 0 -12 -9 -36 -20 -54 -15
-25 -20 -51 -21 -111 0 -87 1 -99 19 -131 7 -12 12 -29 12 -38 0 -8 7 -18 15
-21 8 -4 15 -15 15 -25 0 -10 6 -19 14 -19 8 0 16 -5 18 -11 3 -10 17 -17 128
-58 67 -25 72 -29 69 -70 -4 -42 8 -100 24 -120 6 -7 16 -22 22 -34 5 -11 17
-23 25 -27 35 -17 66 -29 85 -32 13 -2 21 -15 27 -40 9 -43 24 -60 92 -106
149 -101 263 -105 457 -16 57 26 106 50 109 53 3 3 21 17 40 30 56 39 179 186
196 234 4 9 9 17 13 17 4 0 33 39 64 87 31 49 78 106 103 128 26 22 67 59 90
81 58 56 161 105 238 113 33 4 66 10 72 14 6 3 22 -4 35 -17 42 -41 126 -156
114 -156 -8 0 66 -133 98 -175 17 -22 46 -53 66 -68 29 -23 42 -27 71 -22 79
13 142 39 168 68 15 16 35 38 45 48 9 11 17 22 17 25 0 3 14 35 30 70 17 34
37 82 46 105 18 52 78 162 97 177 8 7 32 18 54 26 37 13 41 13 56 -4 23 -27
37 -56 37 -77 0 -29 106 -236 132 -259 55 -47 107 -56 165 -30 43 21 133 107
133 128 0 4 4 8 9 8 6 0 8 -9 6 -19 -4 -24 22 -152 32 -160 5 -3 23 -23 41
-44 17 -21 32 -35 32 -31 0 3 7 1 15 -6 11 -9 43 -11 120 -7 58 4 110 9 115
12 6 3 42 8 81 10 105 6 105 6 113 76 6 52 10 60 24 53 9 -5 46 -8 82 -9 36 0
68 -4 72 -10 5 -6 8 -5 8 3 0 8 7 11 19 7 22 -7 59 22 62 50 2 11 -1 30 -5 42
-6 20 -13 22 -64 18 -139 -9 -168 -10 -170 -2 -1 4 -2 45 -2 91 l0 83 76 0
c72 -1 76 0 92 25 12 21 14 34 6 55 l-10 28 -91 -3 -91 -4 -7 31 c-4 17 -13
31 -21 31 -8 0 -14 6 -14 13 0 32 -33 45 -105 42 -76 -4 -264 -41 -279 -56 -6
-5 -20 -9 -33 -9 -13 0 -23 -4 -23 -10 0 -5 -6 -10 -13 -10 -18 0 -49 -35 -40
-44 4 -4 2 -10 -5 -15 -7 -4 -13 -26 -14 -50 -1 -33 -6 -45 -22 -53 -12 -5
-32 -25 -46 -43 -14 -19 -29 -35 -35 -35 -5 0 -17 -13 -26 -29 -22 -37 -74
-64 -100 -51 -10 6 -35 43 -55 83 -20 39 -39 77 -43 82 -5 6 -13 36 -19 68
-11 55 -16 66 -54 108 -10 10 -18 23 -18 28 0 38 -165 24 -210 -18 -10 -9 -31
-28 -48 -43 -27 -25 -111 -181 -119 -220 -5 -28 -46 -118 -54 -118 -4 0 -10
-11 -13 -25 -4 -14 -11 -25 -16 -25 -6 0 -10 -6 -10 -13 0 -17 -93 -59 -113
-51 -30 11 -61 59 -137 214 -21 42 -45 82 -54 89 -18 15 -51 71 -49 82 1 3 -9
11 -22 18 -14 6 -35 16 -48 21 -27 13 -49 14 -102 6 -22 -3 -67 -9 -99 -12
-32 -3 -65 -12 -73 -20 -8 -8 -19 -14 -24 -14 -13 0 -153 -91 -158 -102 -1 -5
-9 -14 -17 -21 -8 -7 -29 -26 -47 -43 -17 -17 -42 -36 -54 -43 -13 -6 -25 -22
-29 -36 -3 -13 -12 -26 -20 -29 -8 -3 -14 -10 -14 -16 0 -6 -11 -26 -25 -44
-14 -18 -25 -37 -25 -41 0 -5 -7 -15 -16 -24 -8 -9 -40 -52 -71 -96 -82 -117
-131 -159 -248 -216 -97 -47 -108 -50 -186 -51 -78 -2 -88 1 -149 34 -47 25
-71 45 -85 72 -18 33 -18 38 -5 49 33 25 60 84 60 130 0 53 -1 52 106 62 74 6
167 25 174 35 3 4 20 15 38 24 18 9 36 24 39 32 3 7 11 14 19 14 8 0 24 12 37
26 12 15 31 36 42 48 11 12 34 41 50 66 17 25 36 51 43 58 6 7 12 20 12 28 0
8 4 14 10 14 5 0 12 17 16 37 4 21 21 67 39 103 17 36 38 88 45 115 7 28 21
61 29 75 9 14 22 43 30 65 7 22 16 49 21 60 18 42 55 172 60 210 3 22 10 40
15 41 6 0 28 9 50 19 22 9 49 21 60 25 44 17 124 92 160 152 21 35 41 65 44
68 4 3 15 23 26 45 11 22 35 61 53 87 17 26 32 54 32 61 0 7 4 17 9 23 6 5 26
43 47 84 20 41 51 93 69 116 19 22 48 65 65 95 18 30 45 68 60 86 16 17 33 40
38 49 9 17 16 15 96 -19 46 -20 90 -37 95 -37 6 0 34 -11 62 -25 29 -13 55
-23 59 -20 3 2 20 -5 37 -15 29 -17 98 -37 115 -32 4 1 31 -8 60 -19 31 -12
83 -23 123 -25 39 -2 84 -4 100 -5 49 -3 95 10 130 36 17 14 37 25 43 25 7 0
12 5 12 12 0 6 3 9 6 6 6 -7 20 5 124 107 80 77 95 94 122 136 9 14 23 32 30
40 33 35 130 203 122 211 -2 3 2 20 10 39 7 19 14 56 15 82 1 27 5 56 10 66 5
9 12 47 15 85 7 70 -5 121 -41 189 -8 15 -12 31 -9 36 3 5 -1 29 -10 53 -15
47 -92 128 -119 128 -8 0 -15 6 -15 14 0 7 -8 16 -17 19 -10 4 -36 18 -58 32
-36 23 -79 44 -157 78 -16 7 -28 15 -28 19 0 5 -6 8 -13 8 -12 0 -120 51 -207
98 -89 49 -354 171 -377 175 -29 5 -127 39 -139 48 -6 5 -35 13 -65 19 -47 9
-114 35 -129 50 -3 3 -23 5 -45 6 -22 1 -56 4 -75 7 -71 12 -320 19 -320 9z
m238 -112 c1 -4 14 -5 28 -2 13 2 46 -2 72 -9 26 -7 50 -14 54 -14 3 0 9 -3
13 -7 4 -4 13 -4 21 -1 8 3 14 -1 14 -8 0 -7 3 -9 6 -6 4 4 24 -7 44 -23 21
-17 42 -30 47 -30 16 0 83 -51 78 -60 -3 -4 9 -13 27 -19 38 -13 75 -47 168
-154 36 -41 77 -82 93 -91 15 -10 40 -29 55 -42 15 -14 34 -32 43 -40 9 -8 21
-14 27 -14 7 0 12 -4 12 -8 0 -5 34 -22 75 -37 41 -16 75 -31 75 -33 0 -10
-66 -96 -92 -121 -16 -14 -28 -31 -28 -38 0 -6 -7 -16 -16 -21 -8 -4 -22 -27
-30 -50 -8 -24 -25 -61 -39 -83 -14 -22 -23 -44 -20 -48 2 -5 -2 -11 -10 -14
-21 -9 -60 -92 -78 -167 -9 -36 -25 -98 -36 -139 -11 -41 -18 -78 -15 -83 3
-4 2 -14 -3 -20 -4 -7 -9 -29 -9 -48 -4 -101 1 -93 -46 -85 -23 4 -48 14 -56
21 -7 8 -31 17 -53 20 -21 4 -39 10 -39 13 0 4 -8 7 -18 8 -19 2 -194 83 -202
94 -3 4 -25 18 -48 32 -24 13 -44 28 -45 33 0 5 -18 21 -39 37 -21 15 -38 34
-38 42 0 8 -4 15 -9 15 -5 0 -16 15 -25 33 -9 17 -20 39 -25 47 -4 8 -13 24
-18 36 -6 12 -9 68 -7 135 5 192 -38 296 -204 487 -107 124 -224 182 -338 168
-33 -4 -54 -2 -56 4 -5 17 -239 24 -316 10 -65 -12 -139 -31 -174 -45 -11 -4
-18 -3 -18 4 0 6 5 11 12 11 12 0 130 89 136 102 2 5 12 8 22 8 10 0 20 6 23
13 6 15 190 108 224 114 33 5 71 11 133 19 30 4 62 8 70 9 8 2 42 6 75 9 53 6
79 12 160 33 11 3 80 7 153 8 73 2 136 6 139 9 8 7 47 -3 51 -14z m587 -159
c21 -18 48 -31 105 -52 19 -7 42 -18 50 -24 20 -17 164 -85 179 -85 6 0 11 -4
11 -10 0 -5 7 -10 15 -10 8 0 15 -4 15 -9 0 -4 20 -16 45 -25 25 -10 45 -22
45 -27 0 -5 6 -9 13 -9 23 -1 113 -49 92 -50 -11 0 -29 -7 -39 -15 -11 -8 -28
-15 -38 -15 -10 0 -24 -11 -30 -25 -13 -30 -24 -32 -37 -7 -5 10 -38 28 -73
40 -65 23 -95 43 -155 100 -18 17 -36 32 -38 32 -6 0 -87 81 -156 157 -52 56
-54 74 -4 34z m-1818 -187 c-3 -3 -12 -4 -19 -1 -8 3 -5 6 6 6 11 1 17 -2 13
-5z m431 -32 c20 -2 21 -4 9 -16 -7 -8 -31 -24 -53 -35 -21 -12 -35 -21 -31
-21 4 0 -12 -19 -36 -42 -55 -54 -100 -114 -116 -155 -8 -18 -18 -33 -23 -33
-5 0 -8 -8 -7 -17 1 -10 -3 -31 -9 -46 -19 -46 -24 -86 -23 -212 1 -160 0
-155 35 -176 25 -15 27 -19 13 -25 -9 -3 -17 -17 -17 -30 0 -40 -30 -61 -93
-63 -59 -2 -61 0 -70 39 -9 35 28 77 72 84 30 4 50 19 51 37 0 3 -9 14 -19 23
-14 13 -33 17 -65 15 -40 -3 -50 1 -74 26 -40 42 -52 84 -59 211 -5 98 -3 117
16 170 24 64 68 144 79 144 4 0 28 19 54 43 25 23 52 44 60 46 7 1 32 9 56 16
23 7 42 9 42 5 0 -5 11 -3 24 3 20 11 105 15 184 9z m281 -55 c19 -1 36 -8 38
-14 3 -7 11 -13 20 -13 23 0 158 -144 165 -175 1 -5 5 -14 10 -20 60 -76 76
-105 58 -105 -6 0 -10 4 -10 10 0 5 -27 27 -59 49 -72 49 -156 69 -252 60 -96
-10 -300 -114 -388 -198 l-64 -62 7 63 c10 89 61 193 130 264 31 31 56 59 56
63 0 3 8 11 19 16 10 6 32 18 50 28 44 25 132 47 161 41 14 -3 40 -6 59 -7z
m-809 -66 c0 -5 -6 -22 -14 -38 -8 -15 -20 -41 -26 -58 -7 -16 -17 -39 -23
-50 -14 -25 -19 -167 -7 -220 4 -22 10 -58 13 -80 5 -44 64 -175 79 -175 5 0
7 -9 3 -20 -3 -10 -6 -42 -7 -70 0 -57 1 -56 -94 -39 -92 16 -143 44 -221 120
-30 29 -79 132 -93 195 -8 37 -8 63 -1 90 5 22 13 52 16 68 6 28 73 98 145
150 44 32 137 87 147 88 4 0 22 11 38 24 32 25 45 30 45 15z m2648 -59 c8 -6
-5 -17 -43 -36 -30 -16 -55 -32 -55 -37 0 -5 -6 -9 -12 -9 -7 0 -29 -19 -48
-42 -19 -22 -59 -66 -88 -96 -28 -31 -63 -72 -75 -92 -57 -87 -98 -161 -93
-169 3 -5 -1 -11 -9 -14 -16 -7 -53 -82 -62 -130 -3 -17 -9 -36 -13 -42 -11
-14 -38 -111 -44 -160 -3 -22 -7 -49 -10 -60 -2 -11 -7 -48 -11 -82 -4 -35 -8
-63 -9 -63 -2 0 -17 5 -33 11 -37 12 -43 34 -38 139 3 82 12 136 26 162 5 9 9
28 9 42 0 14 4 27 9 30 4 3 11 23 14 43 4 21 27 79 53 128 26 50 59 115 74
146 16 31 42 70 59 87 17 17 31 34 31 39 0 4 12 22 26 38 14 17 31 37 38 45
11 15 45 44 105 90 18 14 45 28 60 31 39 10 124 10 139 1z m72 -112 c0 -5 8
-10 19 -10 10 0 24 -7 31 -15 10 -12 6 -20 -19 -46 -17 -17 -31 -33 -31 -36 0
-9 -70 -103 -126 -170 -58 -68 -66 -66 -33 6 46 100 58 128 84 186 26 60 51
95 67 95 4 0 8 -4 8 -10z m-1731 -111 c26 -22 56 -54 66 -70 21 -30 69 -41 78
-16 2 6 5 -5 6 -25 1 -21 2 -44 2 -50 1 -30 -9 -106 -15 -117 -4 -6 -12 -41
-17 -77 -5 -36 -24 -102 -41 -146 l-32 -82 -17 55 c-9 30 -26 72 -37 94 -12
22 -22 43 -22 47 0 10 -72 88 -82 88 -5 0 -26 11 -48 25 -23 14 -54 28 -70 32
-17 3 -33 10 -36 14 -3 5 -9 7 -14 4 -5 -3 -19 -1 -31 6 -26 14 -116 19 -145
9 -11 -5 -45 -11 -75 -15 -34 -4 -62 -15 -76 -28 -27 -24 -31 -5 -5 21 10 10
28 34 40 53 32 53 109 116 182 151 36 17 67 35 68 40 2 4 10 8 17 8 7 0 26 7
41 16 23 12 48 14 122 9 92 -5 95 -6 141 -46z m1570 -5 c-11 -27 -27 -62 -34
-79 -7 -16 -21 -54 -31 -82 -20 -58 -26 -62 -46 -35 -7 11 -23 24 -36 31 -13
7 -22 17 -20 23 4 12 181 198 185 194 2 -2 -6 -25 -18 -52z m260 -31 c-1 -47
-26 -244 -28 -221 -3 41 -52 40 -109 -2 -28 -21 -89 -33 -97 -20 -3 5 1 15 9
23 8 8 13 17 10 20 -3 3 7 13 23 22 15 9 37 30 48 45 61 87 128 170 136 170 5
0 9 -17 8 -37z m-3279 -183 c0 -11 8 -39 17 -62 50 -126 154 -228 268 -263 75
-23 98 -27 160 -29 28 0 53 -5 57 -10 4 -6 13 -5 22 3 8 7 27 11 41 9 l26 -3
-31 -42 c-18 -24 -38 -43 -46 -43 -8 0 -14 -5 -14 -10 0 -18 -42 -56 -85 -77
-82 -42 -77 -40 -235 -59 -26 -3 -53 5 -105 32 -38 20 -80 42 -92 48 -38 19
-58 95 -57 221 1 132 6 173 33 250 12 33 21 61 21 63 0 2 5 0 10 -3 6 -3 10
-15 10 -25z m2878 -59 c24 -25 29 -37 20 -42 -15 -10 -148 -33 -153 -27 -5 4
25 64 52 106 16 26 22 24 81 -37z m-1693 -47 c22 -11 42 -22 43 -26 2 -5 10
-8 18 -8 8 0 14 -4 14 -10 0 -5 6 -10 13 -10 19 0 62 -44 77 -79 7 -17 16 -31
20 -31 18 0 29 -79 21 -146 -7 -55 -6 -71 5 -80 8 -6 14 -15 14 -19 0 -9 -78
-112 -117 -155 -13 -14 -23 -27 -23 -30 0 -8 -167 -152 -202 -175 -16 -9 -28
-13 -28 -8 0 12 18 69 30 98 10 22 19 105 23 200 3 62 -20 175 -34 175 -5 0
-9 5 -9 10 0 6 -4 16 -10 23 -5 7 -28 37 -50 67 -22 30 -51 68 -65 85 -14 16
-25 32 -25 36 0 3 -15 6 -32 7 -21 0 -39 9 -50 23 -21 25 -24 47 -5 30 8 -6
17 -7 21 -3 4 4 11 7 14 7 4 1 16 6 28 12 11 7 29 12 40 12 10 0 37 5 59 10
58 14 164 7 210 -15z m2052 9 c-3 -17 -55 -122 -75 -152 -14 -20 -48 2 -57 36
-3 16 -16 39 -28 51 l-22 24 31 -3 c21 -2 44 5 70 23 61 40 85 47 81 21z
m-190 -153 c8 -19 24 -45 35 -56 l19 -22 -36 -48 c-39 -53 -144 -154 -158
-154 -5 0 -31 -16 -58 -36 -27 -20 -49 -32 -49 -28 0 17 34 99 44 106 6 4 8 8
4 8 -10 0 10 64 41 133 16 34 32 80 36 102 3 22 16 50 28 63 l21 22 29 -27
c16 -16 36 -44 44 -63z m-227 18 c-16 -22 -30 -47 -30 -55 0 -7 -5 -13 -11
-13 -14 0 -64 -53 -97 -102 -13 -21 -26 -38 -27 -38 -5 0 26 169 36 192 11 26
40 41 99 51 61 10 62 10 30 -35z m-1102 -66 c18 -18 32 -37 32 -43 0 -6 4 -8
9 -4 6 3 13 -1 18 -8 4 -7 36 -36 70 -64 l62 -51 -48 -69 c-26 -37 -50 -75
-53 -83 -5 -13 -91 -135 -118 -167 -5 -7 -10 -16 -10 -21 0 -5 -20 -45 -44
-88 -71 -128 -81 -144 -88 -144 -5 0 -8 -8 -8 -17 0 -29 -122 -202 -152 -216
-16 -6 -28 -15 -28 -18 0 -8 -83 -48 -108 -52 -9 -1 -23 -6 -29 -10 -7 -5 -17
-6 -22 -2 -5 3 -12 1 -16 -5 -7 -11 -60 -12 -90 0 -11 4 -40 16 -65 28 -69 30
-254 83 -292 82 -5 0 -24 9 -44 20 -19 11 -39 18 -44 15 -4 -3 -10 -2 -12 2
-1 5 -30 26 -63 48 l-61 40 94 2 c51 1 110 7 130 12 20 6 53 13 72 16 37 6
149 47 240 88 53 24 178 110 230 159 14 13 41 44 60 70 19 26 39 48 43 48 11
0 37 26 37 37 0 4 14 24 31 43 16 19 42 58 56 85 14 28 32 57 40 67 8 9 15 23
17 31 1 8 9 25 17 38 8 13 21 44 29 69 7 25 18 50 22 57 5 6 11 24 14 39 8 42
15 48 28 22 7 -13 27 -39 44 -56z m-863 12 c14 -9 25 -21 25 -28 1 -6 14 -27
30 -46 17 -19 30 -40 30 -46 0 -7 6 -19 13 -26 7 -7 21 -31 31 -52 16 -34 18
-54 12 -142 -7 -112 -22 -170 -64 -254 -25 -49 -32 -55 -60 -55 -18 0 -32 -3
-32 -6 0 -13 -36 -46 -50 -46 -8 0 -37 -4 -65 -9 -61 -11 -253 -11 -279 -1
-18 7 -17 10 12 27 18 11 32 25 32 32 0 6 2 9 5 6 9 -9 102 88 131 137 16 28
34 59 41 70 7 11 20 36 30 55 10 19 21 37 24 40 11 11 27 66 28 97 0 18 3 38
8 45 4 7 8 18 10 23 1 6 6 24 11 40 5 17 8 52 6 79 -3 38 0 52 13 62 23 17 29
17 58 -2z m-169 -74 c9 0 12 -9 10 -27 -6 -42 -40 -167 -47 -173 -4 -3 -10
-16 -14 -30 -4 -14 -18 -41 -31 -61 -12 -20 -29 -52 -37 -70 -18 -42 -111
-141 -153 -162 -17 -9 -41 -13 -52 -10 -25 6 -72 -21 -72 -41 0 -12 -4 -12
-29 0 -30 15 -101 82 -101 96 0 4 -7 8 -16 8 -8 0 -13 4 -10 9 3 5 -3 19 -13
33 -10 13 -31 46 -46 73 -15 28 -34 56 -43 63 -23 18 -1 15 26 -4 47 -33 76
-34 242 -8 19 3 44 7 55 9 11 1 46 17 78 34 32 17 64 31 72 31 8 0 15 5 15 10
0 6 9 19 20 30 11 11 25 20 30 20 6 0 10 4 10 9 0 5 16 26 35 47 41 46 53 80
35 107 -10 17 -10 19 5 13 9 -3 23 -6 31 -6z m2118 -29 c-5 -3 -11 -15 -12
-26 -2 -11 -12 -39 -23 -62 -10 -23 -19 -48 -19 -55 0 -7 -9 -27 -19 -45 -19
-31 -69 -52 -90 -38 -16 9 18 74 64 125 23 25 54 65 70 90 17 27 30 39 33 31
2 -7 1 -16 -4 -20z m-2154 -241 c-6 -11 -13 -20 -16 -20 -2 0 0 9 6 20 6 11
13 20 16 20 2 0 0 -9 -6 -20z m-304 -543 c4 -4 18 -7 31 -7 13 0 23 -4 23 -10
0 -5 7 -10 16 -10 18 0 97 -41 102 -52 2 -5 10 -8 18 -8 8 0 14 -4 14 -9 0
-13 69 -43 86 -37 8 3 13 2 10 -2 -8 -13 80 -51 103 -45 30 8 26 -7 -14 -54
-36 -42 -139 -216 -151 -256 -3 -12 -21 -49 -39 -82 -51 -96 -110 -355 -101
-445 8 -80 16 -131 26 -167 9 -34 4 -38 -40 -35 -8 1 -65 4 -127 6 -133 6
-227 28 -287 67 -55 34 -71 58 -90 131 -13 51 -13 63 1 115 9 32 21 61 26 64
5 4 7 11 3 17 -3 6 -2 13 3 17 11 6 71 130 71 145 0 6 4 10 9 10 5 0 13 10 17
23 4 12 10 24 14 27 10 7 80 156 80 170 0 6 11 36 25 67 14 30 23 58 21 61 -3
3 -1 11 5 19 6 7 13 25 14 41 1 15 6 38 11 52 5 14 9 41 9 60 1 19 2 62 3 96
l2 61 49 -11 c27 -6 53 -14 57 -19z m524 -214 c0 -5 15 -8 33 -9 18 0 63 -15
100 -32 37 -18 72 -32 77 -32 6 0 10 -6 10 -12 0 -8 3 -9 8 -3 8 11 40 17 59
10 12 -4 -4 -86 -26 -130 -9 -17 -33 -97 -35 -115 -1 -3 -15 -37 -32 -75 -38
-84 -46 -105 -50 -128 -2 -10 -12 -30 -21 -44 -16 -24 -40 -81 -46 -108 -4
-18 -50 -89 -81 -126 -52 -60 -66 -79 -66 -87 0 -4 -31 -26 -68 -49 -66 -43
-105 -51 -159 -37 -24 7 -41 41 -45 94 -1 19 -8 46 -14 58 -8 16 -9 34 -4 53
5 17 7 36 4 44 -7 17 27 157 62 262 14 41 50 123 81 181 31 59 66 125 77 147
12 22 43 64 70 93 46 49 66 62 66 45z m2736 -650 c17 -62 21 -187 9 -293 -9
-79 -10 -80 -41 -80 -14 0 -33 -4 -43 -10 -10 -5 -62 -12 -115 -16 -106 -7
-126 1 -148 56 -23 56 -29 273 -9 293 28 28 177 63 322 76 10 0 20 -10 25 -26z
m-3260 -465 c7 -5 9 -21 5 -41 -5 -24 -16 -36 -44 -50 -35 -17 -39 -18 -62 -3
-20 13 -45 67 -45 98 0 10 133 6 146 -4z"/>
<path d="M2118 1453 c-33 -38 -124 -201 -151 -270 -16 -40 -32 -73 -36 -73 -4
0 -7 -19 -6 -41 0 -40 2 -43 40 -56 22 -8 64 -16 93 -18 64 -5 92 16 92 69 0
18 14 71 31 117 17 46 36 104 44 129 7 25 18 58 24 73 18 45 -19 88 -59 67
-13 -7 -19 -6 -24 5 -7 20 -29 19 -48 -2z"/>
</g>
</svg>
