<?xml version="1.0" standalone="no"?>
<!DOCTYPE svg PUBLIC "-//W3C//DTD SVG 20010904//EN"
 "http://www.w3.org/TR/2001/REC-SVG-20010904/DTD/svg10.dtd">
<svg version="1.0" xmlns="http://www.w3.org/2000/svg"
 width="507.000000pt" height="427.000000pt" viewBox="0 0 507.000000 427.000000"
 preserveAspectRatio="xMidYMid meet">
<metadata>
Created by potrace 1.16, written by Peter Selinger 2001-2019
</metadata>
<g transform="translate(0.000000,427.000000) scale(0.100000,-0.100000)"
fill="#000000" stroke="none">
<path d="M3385 3730 c-44 -4 -90 -12 -102 -18 -12 -7 -31 -12 -42 -12 -10 0
-21 -3 -23 -7 -3 -7 -33 -21 -146 -69 -18 -8 -39 -14 -47 -14 -8 0 -18 -6 -22
-13 -8 -14 -96 -58 -142 -72 -14 -4 -45 -19 -70 -33 -25 -13 -59 -32 -76 -40
-34 -18 -129 -87 -162 -117 -12 -11 -38 -29 -59 -40 -20 -11 -51 -33 -68 -49
-17 -16 -59 -51 -93 -79 -35 -27 -63 -53 -63 -58 0 -5 -6 -9 -13 -9 -7 0 -30
-22 -51 -50 -21 -27 -42 -47 -47 -44 -5 3 -9 -1 -9 -9 0 -8 -29 -40 -65 -72
-36 -31 -65 -63 -65 -70 0 -7 -3 -15 -7 -17 -12 -5 -106 -145 -120 -178 -3 -8
-19 -31 -33 -50 -15 -19 -35 -51 -44 -70 -8 -19 -34 -64 -57 -100 -48 -75
-108 -189 -128 -242 -8 -21 -18 -38 -23 -38 -4 0 -8 -6 -8 -14 0 -18 -64 -100
-117 -152 -24 -22 -43 -45 -43 -50 0 -5 -31 -29 -68 -54 -37 -25 -112 -81
-167 -125 -55 -44 -134 -106 -175 -137 -41 -31 -86 -67 -100 -80 -14 -13 -41
-35 -60 -49 -66 -51 -213 -203 -260 -270 -13 -19 -27 -36 -31 -39 -3 -3 -16
-23 -27 -44 -12 -22 -25 -42 -29 -45 -12 -9 -43 -71 -43 -86 0 -7 -3 -15 -8
-17 -18 -8 -66 -151 -65 -196 2 -152 4 -167 35 -230 17 -34 35 -62 39 -62 5 0
9 -6 9 -13 0 -8 11 -19 25 -25 14 -7 28 -19 31 -27 4 -8 11 -15 17 -15 6 0 18
-6 26 -13 25 -22 194 -61 246 -58 6 0 62 3 125 5 149 6 243 26 344 75 44 21
107 51 139 66 31 14 57 31 57 36 0 5 6 9 13 9 6 1 30 19 52 40 22 22 43 40 48
40 11 0 217 205 217 216 0 6 27 46 61 90 33 43 65 89 70 102 5 12 24 46 43 76
18 29 37 63 41 77 4 13 22 49 40 80 18 30 40 77 49 105 27 80 31 81 51 7 9
-37 19 -79 22 -93 8 -45 155 -107 188 -80 8 7 41 14 72 16 32 2 65 5 73 7 8 2
29 7 45 11 48 12 149 48 160 58 5 4 16 8 25 8 9 0 32 14 50 30 20 18 41 28 50
25 10 -3 28 5 44 20 15 14 29 25 32 25 7 0 34 27 34 34 0 9 49 54 54 49 2 -3
26 -5 52 -5 39 0 50 5 69 28 32 40 22 55 -34 52 -25 -2 -46 -1 -47 2 -3 19
-27 50 -39 50 -10 0 -14 12 -13 42 0 23 -5 44 -11 46 -6 2 -11 10 -11 19 0 8
-6 27 -13 41 -8 15 -24 57 -36 94 l-21 67 47 45 c28 26 50 40 52 33 2 -7 17
-31 32 -54 16 -23 29 -46 29 -52 0 -5 6 -14 13 -18 15 -9 57 -79 57 -94 0 -6
11 -34 24 -62 13 -29 24 -65 24 -80 0 -15 3 -31 6 -35 10 -9 39 11 52 37 7 13
25 31 42 41 35 22 51 58 31 71 -18 11 -26 11 -34 -1 -10 -17 -37 -11 -56 12
-11 11 -20 25 -20 30 -1 4 -2 12 -3 17 0 5 -4 13 -8 17 -5 4 -8 16 -8 26 0 10
-4 18 -8 18 -5 0 -26 29 -47 65 -21 36 -42 68 -46 71 -5 3 -13 13 -19 23 -8
16 -2 23 33 46 23 16 46 34 50 42 12 20 22 16 73 -32 25 -25 44 -45 41 -45 -3
0 8 -14 24 -31 16 -17 29 -38 29 -47 0 -8 16 -43 35 -78 24 -42 32 -65 24 -70
-20 -12 -38 -67 -28 -86 19 -36 78 21 84 82 0 8 5 27 9 43 5 16 4 32 -2 40
-18 23 -62 108 -62 120 0 14 -59 86 -109 133 l-33 32 28 24 c15 12 44 38 65
56 l37 32 6 -34 c8 -41 77 -132 112 -148 13 -6 24 -19 24 -28 0 -10 9 -29 21
-44 19 -24 19 -27 5 -42 -9 -8 -16 -31 -16 -50 0 -22 -6 -37 -15 -40 -8 -4
-15 -17 -15 -30 0 -19 5 -24 24 -24 30 0 39 13 38 51 0 18 5 30 17 34 29 9 84
95 61 95 -6 0 -10 7 -10 15 0 8 -9 23 -20 32 -11 10 -20 23 -20 30 0 7 -4 13
-10 13 -5 0 -10 6 -10 14 0 7 -14 24 -32 37 -44 34 -68 60 -68 76 0 8 -9 32
-20 55 -16 34 -17 42 -5 54 18 18 25 18 25 -2 0 -10 24 -40 53 -68 28 -28 63
-65 77 -82 14 -17 32 -33 41 -36 10 -4 18 -22 22 -47 3 -26 16 -52 33 -71 33
-34 52 -38 61 -12 4 9 10 19 14 22 4 3 11 18 14 33 7 24 4 28 -25 33 -28 6
-53 38 -48 62 3 14 -14 42 -26 42 -17 0 -66 53 -66 71 0 16 -11 29 -72 79
l-37 31 43 39 c24 22 46 40 49 40 2 0 8 -11 11 -24 3 -14 17 -28 33 -34 16 -5
41 -21 56 -36 15 -14 31 -26 36 -26 4 0 20 -13 35 -29 26 -27 27 -33 17 -62
-16 -47 -14 -77 7 -88 24 -13 42 4 42 36 0 16 9 27 28 35 34 16 62 46 62 69 0
13 7 17 27 16 23 -2 29 4 43 42 19 50 9 107 -19 116 -9 3 -40 27 -69 55 -29
27 -57 50 -62 50 -6 0 -28 17 -49 37 -44 41 -44 38 18 121 l24 33 11 -23 c6
-12 37 -35 68 -51 44 -21 65 -40 93 -83 20 -30 39 -53 43 -50 3 3 11 1 19 -5
7 -7 24 -13 37 -14 19 -2 27 4 37 27 11 26 10 32 -2 42 -9 6 -18 19 -22 30 -5
12 -14 17 -28 13 -15 -4 -23 1 -31 19 -6 13 -15 24 -20 24 -4 0 -8 7 -8 15 0
8 -3 14 -7 13 -12 -3 -57 23 -66 39 -5 7 -12 11 -16 8 -5 -2 -16 4 -26 15 -10
11 -27 20 -38 20 -19 0 -19 1 -4 18 10 10 17 23 17 29 0 15 36 44 44 36 4 -5
11 -8 14 -9 4 0 50 -21 103 -47 77 -37 99 -52 109 -77 7 -16 18 -30 25 -30 18
0 34 22 33 45 0 11 3 38 7 60 6 38 5 41 -17 41 -12 0 -26 -4 -29 -8 -5 -8
-127 50 -159 76 -8 6 -28 18 -43 26 -16 8 -24 16 -18 18 6 2 11 16 11 31 0 15
3 30 6 33 3 4 33 -3 67 -15 34 -11 68 -22 75 -23 7 -2 15 -12 19 -21 18 -49
65 -45 99 9 23 36 25 48 19 92 -9 69 -31 113 -66 128 -16 7 -29 16 -29 20 0 5
-3 7 -7 6 -8 -1 -23 5 -109 44 -46 21 -60 43 -95 157 -18 58 -29 76 -49 85
-24 11 -170 105 -180 117 -3 3 -21 14 -40 24 -40 21 -177 27 -315 15z m234
-120 c23 -6 51 -20 62 -31 10 -10 19 -16 19 -13 0 8 46 -22 82 -55 25 -22 61
-74 63 -91 0 -3 4 -11 8 -18 5 -7 2 -26 -7 -44 -9 -17 -16 -37 -16 -44 0 -7
-13 -28 -28 -46 -15 -18 -38 -57 -52 -85 -13 -29 -26 -53 -29 -53 -4 0 -15
-17 -26 -37 -11 -21 -25 -42 -32 -46 -7 -4 -13 -13 -13 -18 0 -6 -19 -42 -42
-81 -29 -49 -91 -120 -209 -239 -93 -93 -175 -169 -184 -169 -8 0 -15 -4 -15
-8 0 -4 -35 -30 -77 -57 -43 -28 -98 -68 -123 -89 -25 -22 -81 -56 -125 -77
-103 -50 -159 -81 -163 -91 -2 -4 -8 -8 -12 -8 -5 0 -44 -25 -87 -56 -43 -31
-85 -59 -93 -62 -8 -3 -35 -22 -60 -42 -25 -20 -60 -42 -79 -48 -40 -14 -151
-100 -151 -117 0 -4 -21 -30 -46 -58 -25 -28 -51 -65 -59 -84 -8 -18 -19 -33
-24 -33 -6 0 -11 -5 -11 -11 0 -6 -11 -24 -25 -41 -14 -16 -25 -35 -25 -41 0
-7 -10 -23 -22 -37 -13 -14 -25 -36 -27 -50 -1 -13 -13 -34 -26 -45 -13 -11
-27 -32 -30 -48 -4 -15 -11 -29 -15 -32 -5 -3 -21 -30 -36 -60 -14 -30 -30
-55 -35 -55 -5 0 -9 -5 -9 -11 0 -10 -52 -89 -75 -115 -5 -6 -21 -26 -35 -44
-14 -18 -33 -42 -44 -54 -10 -11 -29 -38 -42 -58 -40 -63 -227 -243 -243 -234
-4 3 -14 -5 -21 -18 -7 -13 -25 -26 -39 -29 -15 -3 -41 -18 -58 -34 -51 -47
-129 -79 -203 -84 -8 -1 -42 -8 -75 -15 -114 -27 -239 -33 -288 -13 -18 7 -52
28 -76 46 -24 18 -49 33 -56 33 -39 0 -54 70 -41 192 6 53 76 206 112 245 13
14 24 31 24 38 0 34 316 345 350 345 5 0 12 9 15 21 4 11 9 18 12 15 6 -6 124
81 136 101 4 7 20 19 35 27 15 8 38 25 53 37 27 26 111 88 175 132 22 15 76
66 120 114 74 81 113 143 183 293 28 60 70 133 84 145 7 6 13 16 15 23 1 7 12
30 25 50 12 20 29 49 36 64 19 36 148 206 188 246 18 18 33 37 33 43 0 17 268
291 350 358 24 20 52 44 62 54 10 9 21 17 26 17 4 0 21 14 39 30 18 17 36 30
40 30 5 0 14 9 21 20 11 19 205 118 314 161 28 11 63 28 77 38 14 10 37 22 51
26 14 4 53 20 88 37 34 16 86 33 115 39 161 29 217 30 296 9z m302 -346 c8
-22 3 -45 -25 -125 -48 -135 -96 -225 -153 -292 -18 -20 -33 -44 -33 -52 0 -8
-3 -15 -8 -15 -4 0 -16 -16 -26 -35 -11 -19 -23 -35 -28 -35 -4 0 -8 -7 -8
-15 0 -8 -3 -15 -7 -15 -5 0 -39 -30 -78 -66 -38 -36 -82 -72 -97 -80 -30 -15
-49 -32 -168 -144 -41 -38 -83 -72 -92 -76 -10 -3 -18 -9 -18 -14 0 -4 -21
-22 -47 -39 -47 -30 -92 -64 -124 -95 -8 -9 -43 -34 -77 -56 -34 -22 -62 -44
-62 -50 0 -5 -5 -10 -10 -10 -13 0 -63 -35 -105 -73 -16 -15 -38 -30 -49 -33
-10 -3 -34 -17 -53 -30 -20 -13 -44 -24 -53 -24 -10 0 -23 -7 -30 -15 -30 -36
-158 -88 -269 -111 l-35 -6 33 41 c18 23 42 48 54 56 12 8 18 15 13 15 -9 0
41 41 84 70 13 8 35 26 49 39 29 25 276 191 286 191 8 0 69 43 73 53 2 4 10 7
18 7 27 0 120 50 159 85 22 20 92 70 155 112 89 59 144 105 243 207 70 72 137
146 150 163 12 18 25 33 28 33 6 0 45 57 84 121 6 9 23 36 40 60 16 24 35 55
42 69 7 14 33 57 58 95 25 39 51 80 57 93 14 28 16 28 29 -4z m204 -56 c52
-27 85 -59 85 -82 0 -2 -17 1 -37 5 -21 5 -49 11 -63 14 -41 8 -74 39 -65 61
5 11 7 22 7 27 -3 12 5 9 73 -25z m-361 -618 c16 -17 33 -30 37 -30 5 0 22
-12 38 -27 17 -16 43 -39 60 -52 16 -13 30 -27 29 -30 -2 -20 3 -31 12 -26 13
8 13 -25 0 -45 -8 -12 -11 -13 -19 -1 -6 9 -11 10 -15 2 -12 -19 -34 -12 -69
22 -87 83 -130 117 -155 123 -15 3 -31 7 -36 8 -9 2 72 86 83 86 3 0 19 -14
35 -30z m-888 -727 c4 -16 27 -75 51 -131 24 -57 43 -119 43 -137 0 -19 4 -37
10 -40 6 -3 0 -16 -13 -30 -12 -13 -33 -35 -46 -50 -23 -25 -25 -25 -35 -8 -5
10 -11 28 -12 41 -2 12 -17 34 -34 48 -17 15 -28 29 -26 32 3 3 1 11 -6 19 -6
7 -8 16 -5 19 3 3 -1 21 -9 39 -8 19 -14 45 -14 57 0 13 -9 34 -20 48 -11 14
-20 30 -20 37 0 10 105 82 122 83 4 0 11 -12 14 -27z m-191 -120 c13 -16 31
-46 41 -68 9 -22 20 -49 25 -60 4 -11 13 -37 18 -59 6 -21 17 -46 25 -55 18
-20 28 -71 17 -89 -4 -7 -21 -15 -37 -18 -16 -3 -31 -9 -34 -13 -3 -4 -22 -17
-43 -29 l-37 -21 6 39 c5 30 2 45 -15 68 -24 35 -51 141 -48 195 1 20 0 37 -3
37 -3 0 -14 14 -23 30 -18 29 -18 30 0 36 10 3 32 12 48 20 17 7 31 14 33 14
2 0 14 -12 27 -27z m-174 -83 c12 -10 24 -42 33 -90 8 -41 23 -95 34 -120 10
-25 17 -51 15 -58 -3 -7 2 -23 11 -37 15 -23 15 -24 -17 -34 -17 -6 -51 -12
-75 -13 -42 -3 -44 -2 -58 37 -18 48 -54 244 -54 290 0 30 4 35 43 48 29 10
43 11 46 3 2 -6 12 -18 22 -26z m-167 -107 c16 -86 45 -218 52 -238 7 -19 -13
-40 -28 -28 -7 6 -29 15 -48 22 -27 8 -39 20 -54 53 -10 24 -20 59 -23 78 -2
19 -9 51 -15 72 -19 65 16 128 71 128 28 0 29 -2 45 -87z m-277 -35 c-3 -8 -6
-5 -6 6 -1 11 2 17 5 13 3 -3 4 -12 1 -19z m-7 -38 c0 -5 -4 -10 -9 -10 -5 0
-12 -16 -15 -35 -7 -34 -105 -234 -130 -265 -7 -8 -25 -39 -40 -69 -16 -30
-34 -60 -41 -67 -7 -7 -38 -51 -70 -98 -31 -47 -78 -102 -103 -123 -26 -21
-70 -60 -99 -87 -73 -68 -105 -90 -187 -130 -128 -62 -190 -87 -241 -97 -69
-14 -305 -23 -305 -12 0 6 6 10 13 11 36 3 117 15 157 23 25 5 77 14 115 20
84 13 145 40 202 91 24 21 48 38 54 38 6 0 38 18 71 40 33 22 57 40 53 40 -4
0 4 9 18 20 14 11 28 20 32 20 13 0 106 105 137 155 17 27 41 59 52 70 21 19
35 37 113 138 18 23 49 71 70 106 21 35 43 71 48 80 6 9 27 46 48 84 34 61 57
83 57 57z m-1439 -929 c13 -10 38 -25 54 -34 17 -9 25 -16 18 -17 -15 0 -80
36 -100 56 -21 20 0 17 28 -5z m156 -57 c-3 -3 -12 -4 -19 -1 -8 3 -5 6 6 6
11 1 17 -2 13 -5z"/>
<path d="M4156 2752 c-7 -12 -1 -45 10 -49 6 -2 18 3 29 11 16 12 17 16 6 30
-14 17 -37 21 -45 8z"/>
</g>
</svg>
