<?xml version="1.0" standalone="no"?>
<!DOCTYPE svg PUBLIC "-//W3C//DTD SVG 20010904//EN"
 "http://www.w3.org/TR/2001/REC-SVG-20010904/DTD/svg10.dtd">
<svg version="1.0" xmlns="http://www.w3.org/2000/svg"
 width="567.000000pt" height="491.000000pt" viewBox="0 0 567.000000 491.000000"
 preserveAspectRatio="xMidYMid meet">
<metadata>
Created by potrace 1.16, written by Peter Selinger 2001-2019
</metadata>
<g transform="translate(0.000000,491.000000) scale(0.100000,-0.100000)"
fill="#000000" stroke="none">
<path d="M4467 4623 c-1 0 -267 -4 -592 -7 -324 -4 -720 -9 -880 -12 -159 -2
-789 -6 -1398 -9 -989 -3 -1111 -5 -1126 -19 -10 -9 -25 -16 -33 -16 -22 0
-35 -19 -42 -60 -3 -19 -8 -478 -11 -1020 -6 -1013 -12 -1758 -21 -2615 -3
-269 -5 -523 -5 -564 1 -84 18 -121 55 -121 19 0 24 -5 24 -26 0 -33 14 -47
49 -45 15 0 647 1 1403 2 1337 1 1961 -3 2650 -17 564 -11 653 -11 658 4 2 7
15 23 29 36 28 26 43 79 33 116 -12 45 -15 855 -6 1615 8 680 15 1300 21 1745
2 217 7 445 11 507 l7 111 -24 5 c-19 3 -20 5 -4 6 19 1 20 7 16 91 -3 89 10
150 31 150 6 0 8 9 5 20 -3 11 -1 23 5 26 5 3 -4 15 -21 25 -17 10 -32 23 -32
29 -1 5 -2 14 -3 19 0 5 -5 13 -9 18 -7 6 -783 13 -790 6z m624 -190 c8 -23 2
-1764 -14 -3948 -1 -172 -4 -201 -17 -202 -26 -2 -54 -3 -75 -2 -11 1 -135 1
-275 0 -563 -3 -3756 10 -3770 15 -8 3 -89 5 -180 5 l-165 -1 -2 58 c-1 31 -2
390 -3 797 0 407 -1 859 -1 1005 -1 146 0 270 0 275 1 6 4 332 6 725 4 637 13
1251 19 1257 1 1 501 4 1112 7 610 3 1231 7 1379 10 149 3 587 7 975 8 388 1
721 5 740 9 19 4 86 6 149 5 106 -2 115 -4 122 -23z m-4574 -1245 c-3 -8 -6
-5 -6 6 -1 11 2 17 5 13 3 -3 4 -12 1 -19z m0 -40 c-3 -8 -6 -5 -6 6 -1 11 2
17 5 13 3 -3 4 -12 1 -19z m0 -50 c-3 -7 -5 -2 -5 12 0 14 2 19 5 13 2 -7 2
-19 0 -25z m0 -100 c-3 -8 -6 -5 -6 6 -1 11 2 17 5 13 3 -3 4 -12 1 -19z"/>
<path d="M2286 3888 c-37 -73 -72 -137 -77 -143 -5 -5 -9 -15 -9 -21 0 -43
-165 -234 -230 -267 -53 -27 -104 -76 -140 -134 -17 -29 -35 -53 -39 -53 -15
0 -33 -70 -22 -84 6 -7 13 -29 15 -48 11 -84 51 -138 120 -161 57 -20 89 -21
117 -6 11 5 38 11 59 12 22 1 40 4 40 7 0 3 14 7 30 8 88 7 205 84 194 127 -4
16 1 27 17 39 27 18 31 63 9 87 -8 9 -24 28 -35 43 -28 36 -114 101 -169 126
-49 24 -59 47 -30 71 13 11 83 106 126 173 4 6 29 58 55 114 l47 104 19 -41
c10 -22 41 -60 69 -83 27 -24 60 -54 71 -67 12 -14 30 -33 40 -43 9 -10 17
-22 17 -26 0 -4 12 -15 28 -24 15 -10 46 -35 70 -58 24 -22 44 -40 46 -40 4 0
83 -68 130 -112 21 -21 42 -38 46 -38 3 0 15 -9 27 -19 11 -10 34 -26 51 -35
57 -30 45 -34 -87 -34 -70 0 -137 -4 -147 -10 -41 -22 -54 -47 -53 -103 0 -52
-1 -88 -5 -194 -1 -27 1 -62 5 -77 4 -15 4 -30 -1 -33 -4 -3 -7 -13 -5 -23 14
-69 16 -72 53 -88 40 -17 101 -15 250 7 45 6 84 10 86 8 2 -2 6 -29 7 -59 5
-77 18 -87 109 -84 89 2 101 13 121 104 l13 61 61 -7 c33 -3 85 -9 115 -13 61
-8 104 4 131 36 31 35 56 392 29 401 -6 2 -10 9 -10 16 0 12 -51 41 -115 68
-27 11 -57 11 -212 3 -113 -6 -133 -5 -133 7 0 15 -40 38 -66 38 -21 0 -159
84 -212 129 -43 37 -59 51 -254 233 -63 58 -129 118 -147 133 -35 30 -53 60
-77 132 -20 60 -31 73 -58 73 -19 0 -34 -23 -90 -132z m-220 -512 c3 -8 28
-22 56 -32 28 -9 59 -27 71 -40 11 -13 26 -24 33 -24 18 0 57 -57 44 -65 -19
-12 -205 -27 -260 -21 -62 7 -133 29 -137 43 -2 6 3 16 12 23 8 7 15 19 15 27
0 19 40 63 58 63 6 0 12 4 12 8 0 26 87 41 96 18z m1470 -192 c54 -35 55 -39
50 -174 -2 -69 -9 -138 -15 -154 l-11 -28 -78 6 c-42 4 -89 12 -104 17 -23 10
-25 14 -16 34 l10 22 50 -19 c75 -28 103 -19 135 47 18 36 23 59 18 71 -5 11
-7 23 -6 28 8 36 -68 93 -131 98 -51 3 -108 -59 -110 -120 -1 -25 -4 -28 -24
-24 -13 2 -24 8 -24 13 0 5 -13 15 -29 23 -21 11 -31 12 -40 3 -6 -6 -11 -8
-11 -4 0 3 -11 2 -24 -3 -16 -6 -26 -5 -28 1 -2 6 -15 -1 -30 -15 -22 -22 -26
-37 -30 -96 -2 -38 -6 -71 -9 -74 -3 -3 -33 -7 -67 -10 -34 -3 -67 -8 -74 -12
-14 -9 -124 -15 -142 -8 -17 7 -32 199 -17 217 10 13 9 55 -4 120 -5 28 -4 37
6 37 8 0 73 2 144 5 72 3 213 7 314 10 102 3 187 7 189 10 10 10 81 -4 108
-21z m-1586 -76 c20 -6 81 -8 140 -5 73 4 99 2 86 -5 -30 -17 -136 -39 -194
-40 -46 -1 -57 2 -78 25 -28 31 -32 52 -6 42 9 -4 33 -12 52 -17z m1521 -67
c12 -2 28 -51 22 -67 -4 -11 -13 -14 -31 -9 -24 6 -53 34 -48 45 2 3 6 13 9
22 3 9 14 15 24 13 10 -2 21 -4 24 -4z"/>
<path d="M2894 3130 c-50 -32 -85 -93 -86 -151 -1 -38 3 -53 18 -64 34 -25 97
-42 136 -35 40 7 88 46 88 71 0 9 7 30 15 45 8 16 15 36 15 44 0 27 -106 104
-150 109 -3 0 -19 -8 -36 -19z m84 -92 c31 -31 -7 -78 -56 -70 -34 5 -41 26
-22 63 12 22 59 26 78 7z"/>
<path d="M2249 2902 c-38 -8 -27 -57 19 -81 12 -7 20 -16 17 -21 -3 -5 -1 -11
4 -15 6 -3 8 -12 5 -19 -7 -18 23 -47 41 -40 10 4 15 21 15 53 0 57 -19 97
-44 93 -10 -2 -16 1 -13 5 8 12 -24 30 -44 25z"/>
<path d="M1840 2847 c-10 -8 -16 -31 -16 -67 -1 -30 -6 -76 -12 -102 -6 -27
-9 -55 -6 -63 7 -18 33 -20 38 -2 25 91 47 199 44 218 -3 27 -26 35 -48 16z"/>
<path d="M1974 2853 c-5 -5 -9 -30 -8 -58 1 -27 3 -60 3 -72 1 -16 7 -23 21
-23 11 0 21 3 21 8 6 28 11 73 12 107 2 33 -1 40 -18 43 -11 1 -25 -1 -31 -5z"/>
<path d="M2104 2846 c-25 -27 0 -117 37 -136 38 -21 46 15 20 93 -14 42 -40
61 -57 43z"/>
<path d="M2335 2624 c-28 -29 -36 -53 -25 -74 12 -22 18 -21 -125 -26 -38 -1
-90 -4 -115 -6 l-45 -3 -1 45 c-1 65 -2 70 -17 70 -29 0 -50 -38 -44 -80 l5
-40 -56 0 c-32 0 -67 -3 -80 -6 -19 -5 -22 -3 -20 17 2 18 -3 25 -18 27 -16 2
-24 -4 -32 -27 -10 -28 -15 -31 -55 -31 -24 0 -68 -4 -98 -10 -30 -5 -74 -12
-99 -15 -112 -13 -171 -33 -236 -80 -23 -16 -53 -38 -67 -48 -14 -10 -31 -32
-37 -48 -7 -16 -16 -29 -21 -29 -5 0 -9 -6 -9 -14 0 -8 -3 -16 -8 -18 -13 -6
-50 -131 -62 -209 -17 -118 11 -269 69 -364 62 -104 84 -132 126 -160 30 -20
45 -37 45 -52 0 -13 8 -24 21 -28 26 -9 80 -65 73 -76 -3 -5 0 -9 5 -9 6 0 11
-6 11 -12 0 -7 12 -35 25 -63 14 -27 25 -56 25 -63 0 -8 9 -25 20 -39 11 -14
25 -43 30 -64 28 -105 160 -269 216 -269 11 0 23 -3 27 -6 9 -10 -21 -84 -48
-116 -14 -16 -25 -36 -25 -44 0 -8 -4 -14 -10 -14 -5 0 -10 -7 -10 -15 0 -8
-4 -15 -10 -15 -5 0 -10 -15 -10 -33 0 -25 8 -40 34 -63 43 -37 93 -42 188
-15 40 11 82 22 93 24 11 2 28 7 38 12 18 7 57 85 57 113 0 9 10 47 22 85 l21
68 121 -2 c67 0 137 2 156 5 19 3 73 8 119 11 46 3 93 7 105 10 11 2 39 6 61
9 22 3 80 12 129 21 91 15 259 28 396 29 72 1 75 0 72 -21 -2 -13 1 -23 6 -23
10 0 35 -78 31 -95 -2 -11 14 -57 34 -95 13 -26 53 -50 87 -53 11 -1 20 -5 20
-10 0 -5 7 -4 14 3 8 6 30 10 48 9 18 -1 66 3 107 10 127 22 142 63 58 163
-97 115 -113 148 -72 148 7 0 24 14 37 31 13 17 40 50 61 73 20 24 37 51 37
60 0 10 11 32 25 50 13 18 41 68 61 112 20 43 47 94 61 112 13 17 21 32 18 32
-9 0 25 62 52 94 15 18 21 35 18 47 -4 11 -2 19 5 19 21 0 142 52 160 69 9 9
42 35 74 59 31 24 56 50 56 59 0 9 9 31 21 49 13 21 23 58 26 97 2 34 6 63 8
65 6 6 -23 98 -51 157 -29 63 -125 167 -180 195 -34 17 -82 49 -102 68 -7 6
-19 12 -25 12 -7 0 -25 14 -41 30 -16 17 -35 30 -42 30 -7 0 -14 5 -16 11 -4
11 -72 39 -96 39 -8 0 -25 9 -39 19 -26 21 -133 47 -223 55 -30 3 -93 8 -140
12 -47 5 -89 7 -95 5 -5 -2 -53 -5 -105 -7 -52 -2 -111 -6 -130 -9 -134 -22
-624 -32 -647 -13 -9 7 -11 22 -7 43 7 38 -16 54 -41 29z m1185 -128 c72 -9
172 -45 188 -68 7 -10 17 -16 22 -13 5 3 11 1 15 -5 3 -5 15 -10 26 -10 10 0
19 -4 19 -10 0 -5 5 -10 12 -10 6 0 34 -17 62 -39 29 -21 70 -48 91 -59 64
-34 126 -78 118 -85 -3 -4 0 -7 8 -7 23 0 75 -55 97 -104 34 -71 54 -163 42
-186 -6 -12 -10 -28 -8 -38 1 -9 0 -21 -3 -27 -4 -5 -12 -26 -18 -45 -18 -54
-146 -143 -236 -163 -5 -2 -14 -5 -20 -8 -5 -3 -32 -11 -60 -18 -27 -7 -68
-17 -90 -23 -66 -17 -76 -18 -455 -23 -403 -6 -394 -6 -569 -30 -67 -9 -135
-15 -150 -14 -14 2 -31 1 -36 -3 -6 -3 -30 -6 -55 -6 -25 0 -83 -5 -130 -11
-47 -6 -130 -13 -185 -16 -55 -3 -138 -10 -185 -16 -82 -11 -312 -7 -410 6
-60 8 -129 26 -160 42 -14 7 -29 13 -35 13 -5 0 -32 12 -60 26 -120 62 -215
272 -202 447 5 65 32 174 47 187 3 3 14 22 25 44 23 46 79 95 118 103 15 3 27
9 27 12 0 22 339 95 357 77 3 -3 5 -26 5 -50 -1 -35 3 -48 18 -56 17 -9 21 -5
34 41 9 28 13 55 11 60 -10 15 18 22 92 25 67 2 74 1 68 -14 -15 -35 -17 -62
-6 -62 26 0 50 21 56 50 6 28 9 30 55 30 37 0 48 -3 44 -13 -6 -16 32 -107 44
-107 16 0 32 26 27 46 -19 90 -22 81 28 86 25 3 69 5 99 4 l53 -1 1 -36 c2
-80 24 -110 54 -75 8 10 9 33 5 70 l-7 56 108 1 c60 0 125 2 144 4 19 2 109 6
200 10 91 3 190 9 220 13 65 9 361 7 440 -2z m340 -991 c0 -4 -34 -70 -95
-185 -8 -14 -15 -31 -17 -39 -4 -17 -101 -188 -123 -216 -8 -10 -15 -22 -15
-26 0 -4 -24 -19 -54 -34 -50 -25 -62 -26 -182 -24 -240 3 -458 -12 -644 -46
-146 -27 -243 -36 -413 -41 -95 -2 -217 -6 -272 -9 -89 -4 -185 4 -267 21 -35
7 -91 58 -119 109 -46 84 -70 136 -72 155 -1 11 -4 20 -8 20 -4 0 -15 21 -25
48 -10 26 -31 71 -47 100 -16 30 -27 56 -24 58 3 3 32 0 64 -6 133 -24 328
-32 428 -19 33 5 110 11 170 14 61 3 149 13 197 21 79 13 178 20 203 13 6 -1
26 0 45 4 184 32 289 39 700 41 334 3 450 11 512 35 25 11 58 14 58 6z m-376
-649 c20 -19 36 -39 36 -45 0 -6 5 -11 10 -11 6 0 16 -11 22 -25 6 -14 17 -25
25 -25 20 0 34 -43 18 -55 -19 -16 -168 -13 -188 3 -8 7 -19 32 -22 55 -4 23
-12 53 -18 67 -16 39 -14 54 8 62 45 14 72 8 109 -26z m-1480 -66 c3 -3 0 -26
-6 -50 -5 -25 -11 -54 -13 -65 -1 -11 -4 -21 -5 -22 -1 -2 -3 -8 -4 -14 -1
-12 -12 -19 -56 -37 -14 -5 -38 -15 -53 -21 -49 -19 -117 -12 -117 13 0 7 14
30 30 53 17 22 37 60 45 84 23 64 28 67 105 65 37 0 71 -3 74 -6z"/>
<path d="M3501 2391 c-24 -43 -18 -49 84 -81 22 -7 54 -23 72 -36 17 -13 35
-24 38 -24 9 0 145 -112 173 -141 55 -60 72 -86 82 -130 16 -65 0 -94 -72
-137 -102 -61 -426 -126 -722 -146 -76 -5 -133 -13 -241 -32 -97 -17 -174 -25
-220 -22 -30 2 -55 1 -55 -2 0 -10 -390 -10 -690 0 -303 11 -394 22 -458 56
-15 8 -32 14 -38 14 -20 0 -51 35 -78 88 -57 114 -34 282 50 365 21 20 45 37
55 37 9 0 28 10 43 21 26 20 26 22 10 40 -48 53 -173 -23 -224 -137 -62 -138
-63 -250 -4 -371 l39 -78 82 -41 c127 -63 159 -68 493 -80 483 -16 810 -7
1042 30 104 17 263 35 293 34 35 -2 302 41 330 53 11 4 40 11 65 14 25 4 69
13 97 22 29 8 57 12 62 9 5 -4 11 -3 13 1 1 5 30 22 62 38 33 17 82 51 109 77
l50 47 -7 73 c-4 40 -11 77 -16 82 -6 6 -10 17 -10 26 0 18 -29 56 -92 118
-60 59 -75 72 -85 72 -4 0 -28 18 -52 39 -54 47 -170 106 -228 116 -35 5 -43
4 -52 -14z"/>
<path d="M2692 2302 c-30 -27 -41 -64 -31 -101 8 -29 91 -63 151 -63 84 0 153
55 129 101 -17 31 -42 34 -70 7 -31 -29 -44 -32 -93 -23 -39 8 -49 23 -23 33
20 8 29 42 15 59 -19 22 -43 18 -78 -13z"/>
<path d="M1942 2229 c-13 -20 -16 -80 -6 -117 5 -16 13 -22 28 -20 19 3 21 10
24 74 2 63 1 72 -16 76 -12 3 -23 -2 -30 -13z"/>
<path d="M2402 2193 c-22 -41 0 -116 43 -145 35 -25 56 19 29 60 -10 15 -20
43 -24 62 -6 39 -33 52 -48 23z"/>
<path d="M2152 2180 c-6 -10 -7 -22 -1 -31 5 -8 9 -26 9 -41 0 -16 5 -28 11
-28 5 0 8 -4 4 -9 -6 -11 33 -26 43 -16 10 9 3 107 -8 120 -18 21 -46 24 -58
5z"/>
<path d="M1664 2129 c-4 -6 -8 -23 -9 -38 -6 -52 -16 -94 -30 -122 -20 -37
-19 -46 6 -54 21 -7 52 20 45 40 -2 6 1 21 6 35 12 31 38 127 38 140 0 14 -47
12 -56 -1z"/>
<path d="M1970 1968 c-11 -18 -20 -41 -20 -52 0 -23 38 -58 59 -54 19 4 27 46
12 61 -6 6 -5 17 5 33 14 21 14 23 -5 33 -28 15 -29 15 -51 -21z"/>
<path d="M2228 1983 c-5 -26 -6 -71 -2 -90 5 -27 21 -29 50 -8 19 13 20 19 11
60 -9 38 -14 45 -34 45 -13 0 -24 -3 -25 -7z"/>
</g>
</svg>
