<?xml version="1.0" standalone="no"?>
<!DOCTYPE svg PUBLIC "-//W3C//DTD SVG 20010904//EN"
 "http://www.w3.org/TR/2001/REC-SVG-20010904/DTD/svg10.dtd">
<svg version="1.0" xmlns="http://www.w3.org/2000/svg"
 width="511.000000pt" height="411.000000pt" viewBox="0 0 511.000000 411.000000"
 preserveAspectRatio="xMidYMid meet">
<metadata>
Created by potrace 1.16, written by Peter Selinger 2001-2019
</metadata>
<g transform="translate(0.000000,411.000000) scale(0.100000,-0.100000)"
fill="#000000" stroke="none">
<path d="M3726 3935 c-9 -19 -24 -52 -33 -72 -9 -21 -26 -48 -37 -60 -32 -34
-55 -120 -43 -160 9 -29 7 -36 -13 -58 -13 -14 -34 -25 -47 -25 -13 0 -26 -7
-29 -15 -8 -20 -26 -19 -56 5 -17 13 -28 16 -35 9 -7 -7 -17 -3 -30 14 -25 33
-90 67 -127 67 -42 0 -108 -22 -134 -44 -31 -27 -75 -104 -69 -121 3 -7 -9
-27 -28 -44 -38 -34 -45 -31 -64 39 -21 75 -42 113 -85 153 -37 34 -84 65
-103 69 -26 5 -43 11 -43 17 0 10 -47 15 -128 14 -51 -1 -86 -7 -117 -22 -25
-12 -52 -21 -60 -21 -8 0 -14 -3 -13 -7 5 -14 -60 -72 -87 -79 -20 -5 -30 -2
-41 14 -8 11 -30 26 -49 32 -36 12 -132 15 -162 6 -10 -3 -34 -8 -53 -11 -55
-8 -113 -21 -140 -33 -32 -13 -128 -82 -115 -82 7 0 7 -3 0 -8 -5 -4 -19 -24
-30 -44 -11 -20 -35 -63 -54 -94 -18 -32 -34 -63 -35 -68 -4 -21 -38 -85 -52
-97 -8 -6 -14 -16 -14 -22 0 -6 -6 -18 -14 -26 -14 -15 -77 -134 -182 -341
-26 -52 -51 -97 -54 -100 -3 -3 -14 -32 -25 -65 -11 -33 -36 -91 -56 -130 -69
-131 -139 -273 -139 -280 0 -5 -15 -26 -33 -49 -18 -23 -44 -63 -56 -91 -12
-27 -26 -57 -30 -65 -4 -8 -25 -47 -45 -87 -21 -40 -35 -77 -31 -83 3 -5 -1
-13 -9 -16 -9 -3 -16 -13 -16 -21 0 -16 -93 -209 -131 -272 -11 -19 -36 -75
-55 -125 -20 -50 -44 -114 -55 -141 -10 -28 -19 -54 -19 -59 0 -4 -13 -37 -30
-73 -16 -35 -30 -73 -30 -83 0 -10 -4 -21 -9 -24 -13 -8 -19 -228 -9 -291 5
-27 46 -125 69 -165 5 -8 12 -22 16 -30 4 -8 12 -20 17 -27 6 -6 25 -28 41
-48 17 -20 41 -46 54 -58 13 -12 35 -34 49 -50 14 -15 31 -27 38 -27 7 0 21
-8 31 -18 43 -44 104 -81 183 -112 47 -19 87 -37 88 -42 2 -4 8 -5 13 -2 6 3
18 -1 27 -9 31 -28 188 -67 286 -71 72 -3 111 2 186 21 52 13 108 25 123 28
15 2 49 22 76 44 54 45 201 231 201 254 0 8 7 20 15 27 8 7 13 16 10 20 -3 5
-2 10 3 12 13 5 71 98 108 173 19 38 47 90 62 115 15 25 36 65 46 90 10 25 22
52 27 60 18 30 83 169 94 200 1 3 9 22 18 42 10 21 17 42 17 47 0 5 4 11 10
13 5 2 11 13 13 26 2 13 8 27 14 30 6 4 15 20 18 35 4 15 11 27 15 27 5 0 17
24 28 53 11 28 27 66 36 82 9 17 16 35 16 42 0 6 6 18 13 25 16 17 47 85 47
103 0 16 46 114 115 245 25 46 45 89 45 95 0 13 53 120 70 140 7 8 9 15 5 15
-5 0 -2 8 6 18 17 20 36 60 80 162 17 41 37 82 44 90 8 8 17 27 20 43 l7 27
41 -41 c39 -38 45 -41 85 -36 26 3 54 14 70 29 15 13 41 31 59 41 31 17 32 17
39 -5 4 -13 8 -34 9 -48 3 -55 25 -95 56 -107 16 -6 38 -10 49 -8 10 2 39 7
64 10 26 4 50 13 54 21 6 10 15 7 38 -16 40 -37 104 -71 124 -66 8 3 31 7 52
10 59 9 89 27 95 58 3 15 8 28 10 28 18 0 64 -46 73 -75 6 -19 20 -37 31 -40
35 -11 187 6 229 26 21 10 47 20 57 22 10 1 24 6 31 10 6 5 12 5 12 1 0 -4 9
1 21 12 27 24 79 132 72 150 -7 18 6 18 51 -1 20 -9 41 -13 46 -10 6 3 18 8
28 10 45 8 182 130 182 162 0 4 12 30 26 57 22 41 26 63 27 135 1 47 -2 97 -6
111 -3 14 -10 38 -13 55 -9 41 -42 89 -76 108 -16 9 -30 15 -32 14 -3 -1 -15
8 -28 20 -22 21 -23 28 -17 90 5 61 3 75 -22 131 -32 71 -35 74 -99 120 -54
38 -167 65 -238 57 -42 -5 -50 -3 -82 25 -41 38 -95 62 -130 59 -66 -6 -111
29 -110 85 2 58 -4 77 -28 96 -12 10 -19 20 -15 23 6 6 -32 72 -57 98 -22 24
-55 39 -83 39 -18 0 -29 -9 -41 -35z m94 -78 c26 -32 58 -109 58 -137 0 -27
11 -90 17 -101 18 -28 86 -57 148 -64 60 -7 69 -11 101 -46 20 -21 36 -43 36
-48 0 -18 36 -21 86 -6 84 26 137 15 213 -42 68 -51 102 -152 71 -213 -5 -11
-14 -29 -20 -40 -8 -15 -5 -24 12 -40 12 -11 28 -20 35 -20 7 0 31 -11 53 -25
22 -14 44 -25 48 -25 14 0 42 -71 46 -118 2 -23 6 -45 9 -48 8 -9 -4 -107 -14
-118 -5 -6 -9 -17 -9 -26 0 -24 -80 -140 -96 -140 -7 0 -21 -8 -31 -18 -22
-23 -42 -22 -116 2 -55 19 -58 19 -70 1 -8 -10 -14 -34 -15 -53 -1 -20 -13
-60 -28 -89 -20 -41 -31 -53 -49 -53 -12 0 -28 -7 -35 -15 -7 -9 -19 -14 -25
-11 -7 2 -23 -3 -35 -11 -14 -10 -52 -18 -95 -21 -69 -4 -72 -3 -79 19 -7 29
-45 73 -70 82 -13 5 -17 14 -13 29 7 24 -8 48 -29 48 -23 0 -62 -51 -68 -90
-5 -33 -18 -47 -46 -55 -3 0 -18 -4 -33 -8 -24 -7 -36 -2 -73 29 -25 20 -43
38 -40 41 2 3 -3 13 -12 24 -20 23 -55 25 -73 2 -25 -29 -69 -50 -95 -45 -27
5 -33 14 -38 53 -1 13 -8 43 -16 67 -11 36 -19 44 -51 54 -32 9 -42 8 -64 -6
-14 -9 -25 -13 -25 -10 0 4 -8 -3 -19 -14 -10 -12 -24 -22 -30 -22 -6 0 -14
-7 -17 -15 -10 -24 -40 -17 -69 16 -23 28 -26 39 -24 103 3 86 -20 143 -63
160 -15 6 -31 18 -34 28 -3 10 -11 24 -19 31 -11 11 -10 26 3 88 13 65 13 80
2 106 -8 18 -18 29 -22 27 -4 -3 -8 -1 -8 4 0 6 -9 8 -20 5 -13 -4 -20 0 -20
9 0 20 -32 48 -66 57 -41 11 -50 32 -35 80 6 23 18 41 26 41 7 0 15 5 17 12 3
9 15 7 42 -6 43 -20 34 -26 142 80 49 47 69 61 93 61 17 0 31 -4 31 -9 0 -12
44 -10 58 4 7 7 12 20 12 29 0 22 -63 59 -89 52 -12 -3 -21 -2 -21 2 0 17 61
65 82 66 13 0 30 2 40 4 9 2 34 -15 57 -36 22 -21 46 -39 53 -39 7 0 23 -8 36
-18 22 -17 22 -19 8 -47 -9 -17 -16 -25 -16 -20 -1 17 -30 -28 -30 -46 0 -21
50 -40 72 -28 8 5 21 23 29 41 32 81 139 170 161 136 11 -18 10 -28 -2 -28 -5
0 -10 -5 -10 -12 0 -6 -9 -22 -21 -34 -16 -17 -19 -26 -10 -42 6 -11 7 -22 4
-26 -3 -3 7 -6 23 -6 23 0 34 8 49 33 11 17 20 35 20 39 0 4 6 13 13 20 18 18
15 55 -13 133 -30 84 -31 109 -6 155 11 19 27 50 36 69 9 19 23 40 31 48 8 8
14 19 14 24 0 17 15 9 40 -24z m-1130 -252 c0 4 6 2 13 -4 8 -6 16 -9 19 -6 3
3 11 -1 18 -10 7 -8 18 -15 26 -15 29 0 92 -75 108 -127 11 -39 12 -53 3 -53
-27 0 -98 -46 -103 -67 -4 -13 -11 -23 -17 -23 -6 0 -8 -3 -5 -6 3 -3 0 -30
-7 -61 -15 -65 -12 -98 14 -133 26 -36 90 -70 132 -70 47 0 63 -19 55 -67 -3
-21 -9 -57 -12 -81 -5 -32 -14 -48 -33 -60 -14 -9 -28 -20 -31 -24 -9 -12 -80
-23 -140 -22 -227 3 -393 48 -467 126 -16 16 -38 39 -50 50 -12 11 -29 37 -38
57 -22 50 -41 83 -53 90 -20 12 -63 135 -71 199 -14 114 -10 134 24 144 17 5
39 14 50 19 11 5 42 11 69 14 26 2 57 7 67 10 25 8 24 -9 -2 -34 -17 -16 -20
-27 -15 -54 13 -72 50 -69 102 9 15 21 43 57 64 80 20 22 41 47 46 55 14 25
101 71 121 65 10 -3 34 -2 53 3 20 4 40 4 48 -2 6 -5 12 -6 12 -2z m-761 -179
c1 -36 6 -80 12 -98 5 -18 9 -49 9 -69 0 -48 28 -134 59 -184 14 -22 40 -67
57 -100 57 -110 142 -190 250 -238 34 -15 69 -27 78 -27 9 0 24 -4 34 -9 30
-17 149 -41 198 -41 56 0 55 -7 -1 -13 -53 -6 -325 48 -325 64 0 5 -11 9 -25
9 -90 0 -321 143 -359 224 -8 18 -22 39 -31 46 -8 7 -15 19 -15 26 0 8 -4 22
-9 32 -15 27 -30 101 -37 187 -7 91 6 157 39 193 11 12 17 22 12 22 -4 0 0 9
10 20 32 35 42 25 44 -44z m-201 -283 c5 -89 24 -141 89 -248 7 -11 15 -26 19
-33 8 -16 73 -79 109 -107 15 -11 33 -26 41 -33 8 -7 14 -10 14 -6 0 3 7 0 16
-7 40 -33 200 -109 244 -116 19 -3 41 -10 47 -15 7 -6 28 -10 48 -10 19 0 37
-4 40 -9 3 -4 12 -6 20 -2 9 3 21 0 28 -6 33 -26 280 -31 421 -7 49 8 93 13
97 10 9 -5 -18 -92 -36 -114 -6 -8 -17 -34 -25 -57 -7 -24 -16 -43 -20 -43 -4
0 -13 -21 -19 -46 -7 -26 -23 -63 -36 -83 -14 -19 -25 -40 -25 -44 0 -5 -8
-21 -19 -35 -10 -15 -22 -38 -25 -52 -4 -14 -31 -74 -61 -135 -66 -139 -94
-202 -100 -232 -5 -20 -24 -49 -25 -35 0 7 -4 10 -10 7 -5 -3 -10 2 -11 12 0
14 -3 12 -12 -7 -6 -14 -12 -26 -13 -28 -1 -1 -25 -11 -54 -22 -44 -16 -73
-19 -179 -15 -69 2 -164 11 -211 20 -47 9 -98 18 -115 21 -16 3 -41 13 -55 22
-14 9 -36 18 -49 20 -30 4 -90 34 -116 59 -11 10 -36 25 -55 33 -19 8 -53 33
-76 55 -65 64 -125 115 -135 115 -5 0 -9 4 -9 9 0 4 -17 30 -38 57 -82 105
-93 137 -96 279 0 39 -4 75 -9 82 -7 11 27 91 44 103 4 3 11 19 15 35 4 17 10
35 14 40 5 6 14 30 21 55 7 25 15 47 19 50 7 7 120 237 120 246 0 4 11 21 23
38 21 27 92 148 122 206 13 26 20 18 23 -27z m1319 -417 c4 -3 -8 -6 -25 -6
-18 0 -32 -4 -32 -8 0 -10 -72 -48 -105 -56 -43 -10 -205 -17 -205 -8 0 5 25
10 55 10 30 0 60 4 67 8 7 5 28 10 47 11 19 1 37 6 40 11 21 30 138 58 158 38z
m-1787 -492 c0 -14 -4 -23 -9 -20 -12 8 -22 -35 -11 -48 5 -7 0 -27 -11 -50
-10 -22 -19 -46 -19 -53 0 -7 -4 -13 -9 -13 -5 0 -13 -15 -16 -32 -4 -18 -16
-49 -25 -68 -38 -73 -70 -149 -70 -164 0 -9 -4 -16 -8 -16 -4 0 -8 -9 -9 -20
-1 -11 -9 -30 -18 -42 -17 -23 -17 -22 -13 16 4 31 1 40 -17 48 -21 9 -21 10
-4 59 9 28 21 55 28 62 6 6 11 18 11 28 0 9 10 31 23 50 12 19 31 54 42 79 11
25 31 63 46 85 14 22 38 59 53 83 14 23 28 42 31 42 3 0 5 -12 5 -26z m49
-154 c4 -3 17 -20 30 -38 l23 -32 -21 -43 c-12 -24 -21 -49 -21 -55 0 -11 -67
-184 -96 -249 -8 -17 -14 -36 -14 -42 0 -20 -54 -111 -63 -108 -5 1 -23 21
-39 44 l-30 41 30 68 c16 38 33 80 37 94 4 14 12 31 18 38 5 7 20 41 32 75 12
35 38 97 58 139 20 42 37 82 38 90 0 9 2 9 6 -2 3 -8 9 -17 12 -20z m131 -177
c47 -33 48 -35 20 -65 -15 -15 -32 -47 -39 -70 -12 -41 -129 -339 -136 -346
-7 -7 -65 29 -65 41 0 17 30 101 39 107 3 3 20 46 35 95 16 50 38 104 48 120
10 17 18 38 18 48 0 9 5 17 10 17 6 0 10 7 10 16 0 19 18 54 28 54 4 0 19 -8
32 -17z m142 -125 l35 -31 -18 -36 c-10 -20 -30 -70 -44 -111 -15 -41 -38 -98
-51 -127 -13 -28 -24 -59 -24 -67 0 -9 -9 -21 -20 -28 -11 -7 -20 -23 -20 -35
0 -27 2 -27 -43 -8 -44 18 -53 31 -36 51 7 9 14 33 15 53 1 21 13 62 27 92 56
124 65 146 72 176 3 18 17 43 31 55 13 13 24 29 24 36 0 20 16 14 52 -20z
m178 -138 c-4 -8 -22 -60 -40 -115 -18 -55 -37 -106 -43 -112 -5 -7 -6 -13 -3
-13 4 0 -2 -13 -14 -30 -12 -16 -18 -30 -13 -30 4 0 1 -5 -8 -10 -10 -6 -15
-23 -15 -50 1 -23 -3 -39 -9 -36 -84 34 -95 40 -95 56 0 17 31 116 49 155 5
11 26 63 46 115 21 52 44 103 53 113 8 9 12 17 8 17 -4 0 -4 4 -1 10 3 6 25
-4 49 -23 32 -23 42 -36 36 -47z m-768 -50 c37 -75 172 -220 204 -220 7 0 27
-14 45 -31 18 -17 43 -35 54 -40 11 -6 43 -23 70 -38 28 -16 58 -30 68 -30 9
-1 25 -5 35 -10 42 -22 112 -51 172 -71 36 -13 76 -27 90 -33 31 -13 29 -12
65 -21 17 -4 39 -11 50 -16 62 -25 108 -40 128 -40 12 0 40 -7 62 -15 53 -19
124 -19 171 1 22 9 41 20 44 24 7 10 50 32 50 25 0 -3 -4 -13 -9 -23 -37 -73
-53 -104 -79 -152 -56 -102 -93 -165 -132 -225 -22 -33 -44 -70 -49 -82 -5
-11 -15 -24 -21 -28 -5 -3 -8 -10 -5 -15 3 -5 1 -11 -5 -15 -6 -3 -19 -23 -29
-43 -27 -52 -122 -168 -161 -197 -82 -61 -305 -86 -455 -51 -73 17 -132 39
-147 54 -7 7 -19 12 -27 12 -23 0 -180 77 -215 106 -17 13 -46 37 -65 52 -71
57 -137 128 -159 172 -38 73 -72 164 -78 206 -8 60 27 243 54 277 5 7 24 57
42 112 30 95 41 122 77 205 28 67 68 142 91 173 12 17 22 38 22 47 0 35 15 30
22 -7 5 -21 14 -49 20 -63z m916 9 c23 -9 31 -18 26 -29 -3 -8 -8 -31 -10 -50
-2 -19 -7 -44 -12 -55 -6 -11 -17 -40 -27 -65 -10 -25 -21 -54 -26 -65 -5 -11
-18 -46 -29 -77 -21 -57 -46 -78 -72 -61 -7 4 -15 8 -18 9 -39 12 -50 19 -50
30 0 8 4 14 9 14 4 0 11 18 14 40 3 21 14 52 26 69 12 16 21 36 21 45 0 13 26
92 49 151 5 11 13 32 19 47 9 22 15 26 29 19 10 -4 33 -14 51 -22z m177 -39
c30 0 49 -16 39 -31 -5 -8 -9 -16 -10 -19 0 -3 -6 -18 -12 -33 -7 -16 -12 -33
-12 -38 0 -5 -7 -20 -15 -32 -8 -13 -17 -34 -19 -47 -2 -14 -5 -26 -7 -27 -1
-2 -2 -6 -3 -10 -1 -5 -11 -28 -22 -53 -12 -25 -29 -66 -38 -92 -19 -53 -29
-56 -79 -31 l-33 18 17 55 c16 49 32 89 74 185 7 17 18 50 25 74 22 83 28 94
53 87 12 -3 31 -6 42 -6z m416 -45 c-11 -20 -21 -44 -21 -55 0 -10 -7 -20 -15
-24 -8 -3 -13 -11 -10 -18 2 -7 -14 -44 -35 -83 -22 -38 -52 -96 -66 -128 -24
-52 -28 -55 -40 -40 -9 12 -13 14 -14 5 0 -7 -5 -10 -10 -7 -6 4 -22 -1 -35
-9 -32 -21 -31 -16 3 47 15 29 36 75 46 102 10 28 26 64 36 81 9 17 23 47 29
67 7 20 17 37 22 37 6 0 7 5 4 10 -11 17 18 35 70 46 28 5 52 9 54 7 2 -1 -6
-18 -18 -38z m-213 14 c28 1 31 -1 24 -16 -5 -10 -18 -43 -27 -73 -24 -75
-104 -240 -116 -240 -6 0 -7 -4 -4 -10 3 -5 1 -10 -4 -10 -6 0 -11 -5 -11 -10
0 -6 -6 -26 -14 -44 -14 -34 -15 -34 -55 -24 -41 10 -50 21 -30 33 15 10 32
56 30 86 0 15 6 32 14 39 8 7 15 19 15 26 0 7 11 37 23 66 13 29 30 69 37 88
8 19 18 38 23 41 5 4 10 18 10 33 2 24 5 26 27 20 14 -4 40 -6 58 -5z"/>
</g>
</svg>
