<?xml version="1.0" standalone="no"?>
<!DOCTYPE svg PUBLIC "-//W3C//DTD SVG 20010904//EN"
 "http://www.w3.org/TR/2001/REC-SVG-20010904/DTD/svg10.dtd">
<svg version="1.0" xmlns="http://www.w3.org/2000/svg"
 width="527.000000pt" height="469.000000pt" viewBox="0 0 527.000000 469.000000"
 preserveAspectRatio="xMidYMid meet">
<metadata>
Created by potrace 1.16, written by Peter Selinger 2001-2019
</metadata>
<g transform="translate(0.000000,469.000000) scale(0.100000,-0.100000)"
fill="#000000" stroke="none">
<path d="M4166 4539 c2 -4 -2 -9 -8 -11 -10 -4 -14 -53 -15 -199 -1 -107 -4
-212 -7 -234 -2 -22 -5 -56 -5 -75 -1 -19 -5 -30 -9 -25 -16 24 -48 13 -67
-22 -11 -19 -30 -43 -43 -54 -21 -16 -25 -28 -26 -79 0 -41 -4 -60 -13 -60
-27 0 -36 -40 -24 -114 14 -93 22 -345 27 -801 2 -203 4 -437 5 -520 l1 -150
32 -48 c27 -42 45 -55 131 -98 55 -28 104 -55 110 -60 5 -5 21 -9 37 -9 15 0
31 -6 35 -12 4 -7 19 -14 33 -16 42 -4 143 -1 153 5 4 3 23 7 40 9 60 9 159
58 179 90 4 6 20 17 35 23 19 8 36 28 51 62 21 45 44 147 37 159 -10 16 -17
359 -20 855 -2 537 -5 625 -26 625 -5 0 -9 7 -9 15 0 9 -9 33 -19 54 -31 59
-89 89 -119 59 -6 -6 -13 -10 -16 -7 -2 2 -6 74 -9 159 -5 134 -10 163 -31
214 -26 63 -39 75 -89 82 -100 12 -182 53 -251 124 -27 28 -55 50 -62 50 -8 0
-14 4 -14 8 0 5 -7 9 -15 9 -8 0 -12 -4 -9 -8z m378 -625 c3 -8 2 -12 -4 -9
-6 3 -10 10 -10 16 0 14 7 11 14 -7z m-405 -117 c1 -84 0 -87 -18 -75 -11 7
-24 22 -30 35 -14 30 -5 110 16 142 15 24 17 24 24 6 4 -11 8 -59 8 -108z
m545 -4 c6 -14 -21 -70 -29 -61 -6 6 -14 72 -9 79 7 12 32 0 38 -18z m41 -213
c0 -46 -4 -70 -11 -70 -7 0 -19 -11 -27 -24 -23 -35 -77 -64 -159 -87 -123
-34 -257 -20 -337 35 -20 14 -41 26 -47 26 -5 0 -18 14 -27 30 -10 17 -27 30
-38 30 -15 0 -19 8 -21 33 0 17 -2 44 -3 58 l-2 26 41 -22 c50 -28 175 -51
287 -54 46 -1 87 -5 91 -7 10 -6 140 25 153 37 5 5 18 9 28 9 11 0 30 11 43
25 13 14 24 25 26 25 2 0 3 -31 3 -70z m-621 -225 c8 -8 18 -15 21 -15 4 0 19
-9 34 -19 15 -11 45 -23 66 -26 22 -4 45 -10 50 -14 28 -16 174 -18 233 -2 23
7 46 9 51 6 5 -3 11 0 13 5 2 6 21 13 43 17 22 3 42 9 45 13 12 15 70 51 72
43 1 -4 2 -165 3 -358 1 -192 5 -447 8 -566 6 -212 6 -218 -15 -244 -32 -41
-133 -102 -181 -110 -23 -4 -51 -9 -62 -12 -11 -3 -30 -7 -43 -10 -33 -8 -107
14 -187 54 -38 20 -83 42 -100 50 -48 24 -65 55 -70 130 -9 113 -12 1073 -4
1073 4 0 14 -7 23 -15z"/>
<path d="M1400 4512 c-8 -3 -33 -17 -55 -32 -22 -15 -44 -29 -50 -31 -34 -10
-87 -121 -88 -184 -1 -101 39 -259 73 -285 3 -3 14 -27 24 -54 10 -27 27 -57
37 -67 10 -10 24 -31 33 -46 8 -15 26 -39 40 -52 14 -14 26 -33 26 -43 0 -10
4 -18 9 -18 5 0 22 -26 38 -57 15 -32 30 -60 33 -63 29 -29 86 -110 116 -166
21 -38 55 -91 76 -118 21 -27 38 -52 38 -57 0 -12 59 -97 92 -134 16 -16 28
-33 28 -37 0 -4 21 -33 48 -65 26 -32 56 -74 66 -93 18 -34 102 -154 149 -214
12 -16 24 -34 26 -40 2 -6 7 -13 10 -16 4 -3 25 -34 48 -70 24 -36 53 -76 65
-90 37 -41 98 -135 98 -151 0 -9 11 -26 25 -39 13 -12 30 -39 36 -59 11 -33
52 -81 70 -81 6 0 24 -40 21 -47 -1 -2 5 -17 12 -34 12 -29 31 -44 86 -70 36
-16 134 -13 163 5 22 15 25 14 53 -17 46 -48 94 -113 94 -126 0 -6 4 -11 8
-11 4 0 15 -12 24 -27 9 -16 25 -38 35 -49 43 -51 78 -100 100 -144 4 -8 21
-29 38 -46 17 -17 39 -46 48 -65 9 -20 29 -48 44 -65 15 -16 36 -43 47 -59 10
-17 29 -41 41 -55 23 -25 50 -66 83 -130 25 -48 104 -183 114 -195 33 -39 56
-79 52 -90 -4 -8 -19 -12 -42 -9 -20 1 -42 -2 -49 -8 -21 -17 -15 -61 12 -98
14 -19 25 -30 25 -25 0 4 8 1 18 -7 9 -9 27 -19 40 -23 19 -5 21 -9 11 -21 -9
-11 -9 -24 1 -59 10 -36 19 -48 52 -64 43 -21 61 -19 94 11 l22 19 -15 -45
c-9 -25 -19 -46 -24 -46 -15 0 -10 -19 15 -59 19 -29 34 -41 67 -49 24 -6 48
-8 53 -4 6 4 18 7 26 8 8 1 22 2 31 3 9 0 26 20 37 44 31 66 85 106 149 111
21 1 43 11 52 22 9 11 25 18 38 16 39 -6 63 15 63 54 0 28 -6 38 -30 52 -17 9
-33 25 -36 36 -5 15 -13 17 -43 13 -27 -3 -44 1 -62 14 -23 18 -23 19 -3 19
33 0 67 32 67 63 0 26 -31 73 -41 62 -3 -2 -14 2 -26 10 -43 31 -86 13 -86
-37 0 -15 -4 -28 -10 -28 -5 0 -10 7 -10 15 0 18 -41 29 -76 21 -22 -6 -25 -4
-20 9 3 9 6 23 6 32 0 11 11 14 48 13 69 -4 72 -2 72 26 0 14 5 34 10 45 7 13
7 19 0 19 -5 0 -10 11 -10 24 0 29 -7 35 -51 40 -26 3 -43 -4 -77 -30 -54 -41
-68 -42 -76 -9 -7 26 -11 31 -71 98 -19 20 -35 41 -35 45 0 5 -15 26 -33 48
-18 21 -45 57 -60 79 -15 22 -35 51 -46 65 -10 14 -45 65 -78 113 -99 149
-141 210 -150 216 -4 3 -17 22 -28 41 -10 19 -34 55 -52 79 -19 24 -40 56 -48
72 -8 15 -21 32 -29 36 -7 4 -34 40 -60 78 -26 39 -60 88 -76 109 -33 43 -32
63 1 25 20 -24 21 -24 34 -4 8 11 19 26 26 33 6 7 13 41 16 75 4 57 2 65 -24
102 -16 22 -32 55 -36 72 -5 28 -27 60 -73 107 -6 7 -18 24 -26 39 -8 16 -33
49 -56 75 -24 26 -76 98 -117 160 -41 63 -99 145 -128 182 -113 149 -146 197
-155 221 -12 30 -151 241 -166 251 -6 4 -8 8 -4 8 7 0 -133 218 -272 426 -8
12 -62 84 -118 159 -117 154 -203 249 -263 291 -22 15 -60 45 -82 66 -31 28
-52 38 -77 39 -19 1 -48 3 -65 4 -16 1 -37 0 -45 -3z m138 -130 c87 -55 184
-145 249 -230 10 -13 32 -41 48 -62 30 -40 88 -117 148 -200 18 -25 50 -74 72
-110 21 -36 56 -92 77 -126 21 -33 38 -64 38 -68 0 -5 18 -30 40 -56 22 -26
40 -52 40 -56 0 -5 12 -22 26 -39 14 -16 35 -50 47 -75 12 -25 43 -75 69 -113
26 -37 48 -71 48 -75 0 -5 12 -22 26 -38 23 -26 113 -152 139 -193 6 -9 13
-18 16 -21 12 -9 79 -119 89 -144 8 -22 6 -25 -26 -30 -19 -4 -34 -10 -34 -14
0 -5 -16 -14 -36 -21 -34 -12 -204 -173 -204 -192 0 -36 -106 81 -156 171 -10
19 -42 64 -69 100 -28 36 -59 79 -70 95 -10 17 -36 48 -57 70 -21 22 -38 47
-38 55 0 13 -80 134 -99 150 -15 13 -60 79 -79 116 -12 23 -29 50 -39 60 -17
17 -57 78 -139 212 -22 35 -57 91 -80 125 -23 34 -48 76 -57 92 -9 17 -29 44
-45 62 -15 17 -44 62 -62 100 -19 37 -38 70 -42 74 -13 9 -46 120 -56 189 -10
61 -9 68 17 120 45 90 126 120 199 72z m1275 -1747 c-1 -5 -21 -15 -45 -21
-61 -15 -134 -51 -150 -71 -7 -10 -26 -25 -41 -33 -29 -15 -79 -71 -90 -102
-4 -10 -11 -18 -17 -18 -16 0 -26 33 -12 38 17 5 81 74 87 93 3 9 15 21 28 28
12 6 40 24 62 40 22 16 43 27 47 25 5 -3 8 -1 8 4 0 14 49 21 57 9 3 -5 10 -2
15 7 10 18 54 19 51 1z m50 -142 c-16 -8 -39 -25 -53 -37 -14 -13 -47 -38 -75
-57 -50 -33 -69 -49 -146 -121 l-40 -37 -9 25 c-13 34 -13 41 5 48 8 3 15 10
15 16 0 6 6 18 13 25 29 33 37 45 37 55 0 5 6 10 13 10 6 0 28 14 47 30 19 16
41 31 48 31 6 1 18 2 25 3 6 1 18 9 25 19 7 9 17 15 20 13 4 -2 23 -1 42 3 48
11 70 -7 33 -26z m128 -73 c-2 -8 -3 -43 -3 -77 1 -35 -1 -63 -5 -63 -4 0 -15
8 -25 17 -24 21 -72 7 -76 -23 -4 -25 153 -256 219 -324 8 -8 25 -33 38 -55
13 -22 38 -55 55 -72 16 -18 26 -33 20 -33 -5 0 -4 -4 2 -8 6 -4 41 -52 79
-107 37 -55 80 -116 95 -135 15 -19 30 -42 33 -50 10 -21 27 -48 68 -105 20
-28 44 -66 54 -85 10 -19 28 -43 41 -53 13 -10 24 -24 24 -31 0 -7 18 -29 40
-49 22 -19 40 -42 40 -50 0 -8 7 -20 15 -27 8 -7 15 -16 15 -20 0 -10 -70 -52
-80 -48 -14 5 -79 96 -111 155 -47 85 -152 242 -195 291 -41 46 -108 137 -181
247 -25 39 -63 91 -85 116 -21 26 -38 50 -38 54 0 3 -7 13 -15 21 -28 29 -125
182 -125 198 0 9 -13 25 -29 34 -17 9 -32 25 -35 34 -7 28 -51 23 -64 -7 -7
-14 -12 -31 -12 -38 0 -25 -39 -39 -75 -27 -41 13 -48 31 -35 80 8 29 20 44
53 63 23 14 51 34 62 44 11 10 38 30 60 45 22 16 55 41 74 58 18 16 40 30 47
30 8 0 14 5 14 11 0 6 10 9 23 7 13 -2 21 -9 18 -18z m790 -1473 c13 -13 31
-27 39 -30 10 -3 7 -6 -8 -6 -12 -1 -31 -6 -42 -13 -15 -10 -23 -9 -39 6 -26
23 -27 42 -3 55 23 14 24 14 53 -12z m215 -83 c-4 -10 4 -19 27 -29 l32 -14
-40 1 c-68 1 -122 -21 -172 -73 -26 -27 -53 -59 -60 -71 -11 -21 -12 -21 -13
-4 0 11 -7 27 -15 36 -14 16 -14 21 7 52 23 35 49 46 154 64 16 2 38 16 48 29
22 28 41 33 32 9z m-333 -29 c13 -13 13 -19 -1 -50 -9 -19 -23 -35 -30 -35
-12 0 -12 3 -2 15 7 8 10 31 8 50 -4 38 2 43 25 20z m387 -125 c0 -5 -8 -10
-17 -10 -10 -1 -36 -14 -58 -30 -22 -17 -48 -33 -57 -36 -10 -4 -18 -13 -18
-20 0 -8 -4 -14 -8 -14 -5 0 -14 -12 -21 -27 -9 -19 -15 -23 -23 -15 -16 16
67 141 102 155 25 10 100 8 100 -3z"/>
<path d="M920 2717 c-3 -3 -30 -7 -60 -10 -65 -5 -125 -33 -139 -65 -13 -27
-15 -99 -3 -106 15 -9 13 -181 -4 -286 -9 -58 -17 -117 -16 -131 1 -21 -5 -28
-23 -31 -13 -3 -29 0 -34 5 -8 8 -11 7 -11 -1 0 -7 -15 -12 -40 -12 -21 0 -52
-5 -67 -11 -15 -6 -39 -16 -53 -22 -48 -19 -65 -25 -107 -36 -25 -7 -52 -24
-69 -44 -49 -58 -55 -86 -55 -261 0 -169 3 -205 26 -297 14 -53 46 -308 50
-399 1 -25 5 -72 8 -105 4 -33 9 -89 13 -124 12 -126 78 -220 197 -281 89 -46
176 -60 332 -54 72 2 200 6 285 9 85 3 163 8 172 11 9 3 35 0 58 -7 37 -11 42
-10 64 10 22 21 23 25 11 64 -9 30 -18 43 -34 45 -11 2 -21 11 -21 20 0 13 -4
11 -21 -6 -17 -19 -30 -22 -82 -21 -34 0 -136 -3 -227 -7 -91 -5 -219 -8 -285
-8 -108 1 -126 4 -180 28 -98 45 -105 49 -99 57 2 4 0 11 -6 14 -25 15 -67
131 -69 189 -1 33 -4 62 -6 66 -2 3 -7 44 -10 90 -14 175 -34 348 -51 430 -11
56 -17 142 -18 255 -1 212 1 217 127 258 105 33 122 36 286 43 75 3 174 9 221
14 47 4 94 8 105 8 47 1 225 12 280 19 33 4 128 7 210 8 138 0 154 -2 202 -24
90 -42 148 -146 158 -283 4 -46 8 -96 10 -113 2 -16 7 -123 9 -237 5 -174 4
-208 -8 -208 -8 0 -35 -21 -60 -46 -31 -32 -47 -42 -50 -33 -15 53 -32 230
-41 434 -6 147 -19 232 -40 255 -30 33 -236 70 -329 59 -28 -3 -69 -1 -92 4
-33 8 -54 6 -95 -7 -64 -21 -159 -33 -159 -19 0 16 -73 13 -145 -6 -51 -14
-78 -16 -103 -9 -22 6 -57 6 -103 -2 -48 -8 -78 -9 -98 -2 -21 8 -34 7 -44 -1
-25 -20 -29 -52 -10 -69 16 -14 31 -14 123 -3 66 7 114 8 130 3 14 -5 26 -8
27 -7 2 1 22 6 45 10 24 4 61 12 83 18 29 8 55 7 91 -1 43 -9 64 -8 125 8 117
29 380 20 464 -16 67 -29 63 -15 80 -260 4 -52 8 -135 10 -185 2 -49 4 -90 5
-90 1 0 3 -28 4 -63 3 -55 1 -62 -13 -56 -32 14 -96 3 -136 -24 -22 -14 -43
-25 -47 -24 -4 1 -26 -5 -49 -13 -24 -9 -49 -13 -57 -10 -7 3 -47 -2 -88 -10
-56 -12 -79 -13 -95 -5 -11 7 -27 9 -35 6 -8 -3 -14 -2 -14 2 0 4 -28 6 -62 4
-35 -2 -130 -6 -211 -8 -107 -4 -164 -11 -202 -24 -30 -10 -62 -16 -73 -13
-10 2 -35 -2 -55 -10 -46 -20 -47 -16 -47 117 1 106 -5 260 -15 361 -3 33 -7
110 -9 170 -4 98 -18 165 -35 165 -25 -1 -33 -21 -27 -66 3 -27 9 -94 12 -149
3 -55 7 -131 10 -170 2 -38 6 -153 9 -255 3 -102 9 -198 13 -215 8 -28 12 -30
48 -27 21 1 70 5 108 7 38 3 80 12 93 20 13 9 23 13 23 9 0 -4 6 -2 13 3 7 6
52 7 110 4 59 -4 110 -2 129 5 38 12 146 9 203 -6 31 -9 50 -8 80 2 22 8 62
13 89 11 27 -2 55 2 63 8 14 13 18 -2 4 -17 -5 -5 -11 -28 -14 -52 -3 -29 -14
-53 -32 -72 -31 -32 -48 -97 -39 -145 7 -37 44 -75 73 -75 25 0 37 -18 22 -33
-14 -14 -14 -85 0 -125 9 -26 20 -34 75 -52 36 -12 76 -20 89 -18 22 5 23 3
18 -47 -5 -49 -4 -54 27 -83 26 -26 38 -30 64 -25 17 3 39 10 49 15 9 5 17 6
17 4 0 -3 10 -2 23 3 12 4 34 11 48 14 25 6 26 5 27 -44 1 -61 10 -73 68 -95
69 -26 163 -15 220 26 35 24 44 28 44 15 0 -14 37 -56 75 -84 12 -9 87 4 118
20 37 20 97 70 97 82 0 6 9 20 19 31 11 12 26 43 33 71 8 32 24 59 43 76 33
30 81 117 89 164 3 17 8 73 11 126 l5 96 -36 36 c-19 20 -46 40 -59 43 -18 4
-25 13 -26 33 -4 86 -8 94 -77 159 -59 56 -71 63 -99 59 -27 -5 -33 -2 -44 25
-18 43 -120 108 -169 108 -39 0 -90 -21 -110 -45 -10 -12 -16 -11 -38 10 -15
14 -32 25 -39 25 -16 0 -25 67 -18 136 8 71 8 46 -4 242 -6 89 -13 167 -16
171 -3 5 -8 40 -11 78 -5 53 -14 83 -44 138 -42 75 -82 125 -117 143 -50 27
-181 61 -225 59 -44 -2 -49 0 -58 27 -5 16 -10 44 -10 61 0 18 -7 66 -14 106
-8 41 -17 110 -20 154 -9 137 -27 179 -86 210 -24 13 -147 14 -167 2 -11 -7
-249 -1 -313 8 -25 3 -48 4 -50 2z m120 -113 c113 -11 231 -11 264 0 21 6 31
6 34 -2 2 -7 12 -8 33 0 25 9 32 7 44 -8 8 -11 14 -32 14 -49 -1 -16 2 -41 5
-53 3 -13 8 -65 11 -114 3 -50 8 -94 10 -98 3 -4 7 -35 10 -69 7 -70 10 -67
-105 -76 -36 -3 -85 -7 -110 -9 -25 -3 -92 -7 -150 -10 -58 -4 -117 -9 -132
-11 -14 -3 -57 -7 -94 -9 l-67 -4 8 81 c4 45 9 157 9 249 1 183 0 182 66 191
26 3 31 3 150 -9z m1250 -1489 c7 -8 17 -15 22 -15 5 0 25 -12 44 -26 27 -21
34 -34 34 -59 0 -66 28 -86 65 -45 19 21 45 27 45 11 0 -5 23 -26 50 -46 l51
-37 -2 -77 c-2 -42 1 -82 5 -89 10 -16 36 -15 37 1 0 9 2 9 5 0 3 -7 12 -9 20
-6 8 3 24 -3 35 -13 18 -16 20 -26 13 -74 -4 -30 -6 -69 -5 -87 2 -32 -25 -99
-55 -138 -15 -20 -16 -20 -38 8 -27 34 -44 34 -56 1 -15 -37 -12 -80 5 -94 21
-18 19 -45 -9 -88 -36 -57 -57 -77 -103 -101 -50 -25 -71 -26 -101 -5 -22 15
-23 21 -17 88 5 57 4 75 -8 84 -12 10 -18 10 -31 -3 -9 -9 -16 -24 -16 -33 0
-22 -57 -92 -75 -92 -7 0 -15 -6 -17 -12 -6 -18 -162 -18 -179 -1 -18 17 -12
94 10 143 38 86 7 118 -46 46 -32 -44 -82 -67 -179 -82 -36 -5 -43 -3 -48 14
-8 24 11 106 32 143 29 51 -19 85 -51 36 -27 -41 -64 -50 -122 -29 -43 16 -50
22 -50 46 -1 38 22 81 51 97 18 9 24 20 22 38 -3 24 -6 26 -47 23 -25 -2 -58
4 -78 13 -27 13 -33 21 -33 49 0 26 9 41 40 69 41 37 47 55 30 87 -8 14 -5 28
11 57 28 51 112 131 135 128 24 -2 132 -53 139 -66 13 -21 37 -6 54 34 22 49
43 71 94 92 60 25 91 20 123 -20 30 -38 51 -44 61 -17 19 49 106 80 133 47z
m-450 -55 c0 -5 -5 -10 -11 -10 -5 0 -7 5 -4 10 3 6 8 10 11 10 2 0 4 -4 4
-10z"/>
<path d="M2597 644 c-13 -13 -7 -62 8 -68 26 -10 41 3 40 37 0 24 -5 33 -20
35 -12 2 -24 0 -28 -4z"/>
<path d="M2409 609 c-17 -9 -15 -59 3 -59 5 0 6 -4 3 -10 -3 -5 2 -10 12 -10
23 0 47 55 29 68 -23 18 -32 20 -47 11z"/>
<path d="M2230 591 c-13 -25 -13 -27 5 -44 20 -21 55 -10 55 17 0 43 -41 61
-60 27z"/>
<path d="M2524 512 c-7 -4 -14 -18 -15 -32 -3 -21 1 -26 24 -28 32 -4 44 16
27 47 -11 22 -18 25 -36 13z"/>
<path d="M2182 474 c-22 -23 -20 -79 3 -88 31 -12 47 5 40 42 -8 45 -26 64
-43 46z"/>
<path d="M2422 431 c-14 -8 -11 -51 2 -51 6 0 5 -5 -2 -12 -19 -19 -14 -46 9
-59 27 -14 50 4 31 23 -16 16 -15 38 1 38 21 0 9 57 -13 63 -10 2 -23 2 -28
-2z"/>
<path d="M2270 383 c-27 -10 -40 -34 -29 -54 14 -26 34 -24 58 7 35 44 22 65
-29 47z"/>
<path d="M4280 603 c-14 -3 -28 -9 -31 -15 -3 -5 -34 -11 -68 -13 -54 -3 -67
-8 -108 -41 -25 -21 -64 -57 -85 -80 -32 -35 -45 -42 -78 -42 -52 -1 -60 -7
-60 -46 0 -85 125 -106 177 -30 10 15 44 53 75 85 52 53 60 57 91 52 24 -3 38
0 51 12 12 13 27 16 53 12 30 -5 40 -2 60 19 31 34 29 60 -7 79 -16 8 -33 14
-37 14 -4 -1 -19 -4 -33 -6z"/>
<path d="M4234 455 c-24 -12 -164 -155 -164 -167 0 -4 -10 -14 -22 -22 -37
-24 -62 -79 -51 -113 8 -24 16 -29 58 -34 39 -4 52 -2 67 13 23 23 41 67 34
85 -7 16 88 114 133 136 29 15 36 15 54 2 31 -22 65 -18 92 9 30 30 24 60 -18
81 -46 23 -92 20 -105 -7 -7 -16 -11 -18 -11 -7 -1 23 -41 38 -67 24z"/>
<path d="M4240 301 c-5 -11 -10 -28 -10 -38 0 -11 -5 -24 -12 -31 -21 -21 6
-59 48 -66 42 -8 50 -3 74 51 21 47 12 79 -25 93 -40 15 -63 12 -75 -9z"/>
</g>
</svg>
