<?xml version="1.0" standalone="no"?>
<!DOCTYPE svg PUBLIC "-//W3C//DTD SVG 20010904//EN"
 "http://www.w3.org/TR/2001/REC-SVG-20010904/DTD/svg10.dtd">
<svg version="1.0" xmlns="http://www.w3.org/2000/svg"
 width="533.000000pt" height="523.000000pt" viewBox="0 0 533.000000 523.000000"
 preserveAspectRatio="xMidYMid meet">
<metadata>
Created by potrace 1.16, written by Peter Selinger 2001-2019
</metadata>
<g transform="translate(0.000000,523.000000) scale(0.100000,-0.100000)"
fill="#000000" stroke="none">
<path d="M4246 5085 c-16 -5 -42 -22 -59 -37 -16 -16 -33 -28 -37 -28 -4 0
-31 -21 -60 -47 -28 -27 -55 -48 -58 -48 -4 -1 -23 -11 -42 -23 -19 -13 -47
-25 -62 -29 -16 -3 -28 -9 -28 -13 0 -4 -64 -40 -142 -79 -164 -82 -181 -92
-206 -114 -10 -10 -26 -17 -36 -17 -9 0 -19 -7 -22 -15 -4 -8 -10 -15 -15 -15
-17 0 -159 -151 -181 -194 -13 -22 -25 -43 -29 -46 -3 -3 -16 -23 -28 -45 -41
-70 -105 -170 -113 -175 -10 -8 -58 -80 -58 -88 0 -4 -16 -24 -35 -45 -19 -21
-35 -41 -35 -45 -1 -4 -23 -36 -51 -72 -28 -36 -96 -126 -152 -200 -55 -74
-108 -143 -116 -152 -25 -26 -34 -39 -71 -93 -18 -27 -47 -67 -64 -87 -54 -63
-111 -140 -108 -144 1 -2 -6 -13 -15 -23 -59 -64 -63 -70 -59 -94 2 -14 10
-35 16 -47 7 -12 9 -31 6 -43 -3 -12 0 -27 6 -34 6 -7 15 -32 20 -56 20 -86
20 -117 4 -151 -9 -19 -16 -38 -16 -43 0 -4 -9 -14 -19 -20 -17 -11 -21 -10
-26 6 -4 12 -18 20 -40 23 -30 3 -38 0 -56 -27 -18 -26 -100 -90 -134 -104 -5
-2 -18 -13 -30 -23 -11 -11 -36 -28 -55 -38 -19 -10 -64 -41 -100 -69 -85 -67
-81 -64 -111 -97 -14 -16 -55 -54 -90 -84 -112 -95 -362 -340 -409 -400 -14
-17 -32 -39 -41 -48 -81 -86 -252 -280 -284 -322 -22 -29 -44 -57 -50 -64 -48
-56 -134 -193 -149 -240 -9 -27 -25 -61 -35 -75 -16 -23 -66 -126 -105 -216
-7 -16 -18 -41 -24 -55 -7 -14 -30 -81 -53 -150 -38 -114 -42 -134 -43 -230
-1 -134 9 -177 48 -217 86 -89 104 -106 141 -130 22 -15 46 -34 52 -42 9 -10
13 -11 13 -2 0 13 40 6 50 -10 3 -4 19 -9 35 -11 17 -2 32 -6 35 -10 8 -10 98
-21 167 -20 92 2 168 36 296 135 27 20 55 37 63 37 8 0 14 4 14 9 0 5 8 12 18
15 10 4 27 14 38 24 11 9 40 32 64 51 84 64 125 103 175 166 22 28 48 56 57
63 10 7 47 55 83 106 35 51 72 99 80 106 9 8 25 30 36 49 10 20 39 63 64 96
24 33 52 77 61 98 9 20 20 37 25 37 5 0 9 9 9 19 0 11 3 21 8 23 9 4 86 117
94 140 4 9 29 52 55 95 27 43 73 128 102 188 30 61 57 112 61 115 4 3 20 32
35 65 16 33 32 62 37 63 4 2 8 8 8 13 0 5 11 27 25 49 14 22 25 44 25 50 0 5
20 52 45 103 25 52 45 99 45 105 0 5 11 30 25 53 14 24 25 50 25 57 0 11 33
65 50 82 5 5 9 19 17 60 2 14 8 29 14 34 14 15 11 52 -6 66 -21 18 -19 36 7
54 12 9 18 16 13 16 -5 0 4 14 20 30 16 17 35 28 41 26 7 -3 15 2 18 10 3 8
16 14 29 14 13 0 28 5 35 12 7 7 39 13 71 13 33 0 66 7 75 14 9 7 26 11 38 8
31 -8 49 8 86 73 17 31 41 65 52 77 11 12 20 26 20 32 0 5 4 11 8 13 6 2 44
49 114 143 4 6 46 69 94 140 47 72 89 132 93 135 11 9 51 69 51 77 0 5 8 16
18 24 26 24 45 49 76 104 16 28 40 61 53 75 42 44 83 102 102 145 10 22 29 53
43 68 14 15 32 40 39 55 31 60 91 162 100 167 4 3 13 23 19 45 6 21 17 46 26
54 8 9 13 20 10 24 -3 5 4 23 15 41 34 56 49 116 54 213 6 139 19 189 80 323
13 28 31 77 40 110 9 33 23 74 31 92 8 17 17 64 20 105 6 63 4 77 -11 92 -10
9 -23 15 -31 12 -7 -3 -14 0 -17 7 -5 15 -82 16 -121 2z m69 -147 c-6 -24 -14
-50 -18 -58 -5 -12 -28 -91 -32 -110 0 -3 -6 -14 -12 -25 -6 -11 -26 -63 -43
-115 -18 -52 -39 -105 -47 -116 -9 -14 -15 -64 -19 -140 -2 -66 -7 -135 -10
-154 -9 -57 -96 -239 -144 -300 -15 -19 -35 -51 -45 -70 -10 -19 -33 -55 -52
-79 -18 -24 -33 -50 -33 -57 0 -8 -7 -14 -15 -14 -8 0 -15 -8 -15 -18 0 -10
-20 -40 -45 -66 -25 -27 -45 -53 -45 -58 0 -5 -9 -19 -21 -31 -11 -12 -28 -35
-36 -52 -9 -16 -42 -64 -73 -105 -31 -41 -73 -100 -92 -130 -20 -30 -44 -64
-55 -75 -10 -11 -25 -35 -32 -53 -8 -18 -26 -46 -42 -63 -15 -16 -31 -39 -34
-50 -4 -10 -15 -24 -26 -29 -10 -6 -28 -27 -38 -48 -11 -20 -34 -53 -51 -72
-17 -19 -48 -54 -68 -78 -19 -23 -38 -38 -41 -33 -8 12 -200 -32 -210 -48 -5
-7 -12 -13 -17 -13 -34 -2 -219 -169 -205 -184 8 -9 -36 5 -88 27 -24 10 -50
19 -57 19 -8 0 -14 4 -14 9 0 5 -16 15 -35 21 -19 6 -35 16 -35 21 0 5 -7 9
-15 9 -8 0 -15 5 -15 10 0 6 5 10 10 10 6 0 21 21 33 48 12 26 29 57 38 70 13
18 16 43 14 113 -1 51 -7 95 -13 101 -7 7 -12 21 -12 33 0 20 -20 81 -32 101
-4 6 7 33 25 59 18 27 39 59 47 71 28 42 85 116 143 184 31 38 57 72 57 75 0
4 7 13 15 22 9 8 34 41 55 72 22 31 61 85 86 121 25 36 67 90 93 120 26 30 54
66 61 79 10 20 85 123 155 216 8 10 15 23 15 28 0 5 15 27 34 50 18 23 35 47
37 52 21 55 112 184 167 237 74 71 156 131 166 121 3 -4 6 -1 6 6 0 6 39 31
88 55 195 95 319 161 348 183 17 12 35 23 41 23 5 0 29 18 53 40 24 22 49 40
56 40 7 0 15 9 19 19 7 23 55 42 71 30 8 -7 8 -21 -1 -51z m-2015 -2336 c0
-19 116 -122 149 -133 20 -6 63 -23 96 -38 33 -15 77 -35 98 -44 21 -9 47 -17
57 -17 11 0 20 -6 20 -14 0 -23 -57 -157 -71 -166 -5 -3 -10 -15 -12 -25 -10
-50 -105 -254 -196 -420 -21 -38 -62 -116 -92 -172 -30 -57 -59 -111 -64 -120
-6 -10 -37 -65 -69 -123 -33 -58 -78 -130 -102 -160 -23 -30 -52 -75 -64 -100
-12 -25 -47 -79 -78 -120 -30 -41 -75 -102 -99 -135 -24 -33 -60 -84 -81 -112
-86 -118 -233 -252 -402 -368 -47 -32 -86 -62 -88 -67 -9 -20 -150 -80 -197
-83 -45 -3 -158 16 -263 45 -52 13 -172 128 -172 163 0 7 -5 18 -11 24 -20 20
-14 207 9 249 5 11 20 55 32 99 12 44 26 85 30 90 4 6 11 21 15 34 4 13 17 40
28 59 12 20 22 42 23 50 2 8 25 61 53 117 28 57 51 109 51 114 0 6 4 11 8 11
5 0 14 12 21 28 12 26 65 100 121 168 14 17 34 44 45 59 11 16 25 33 30 39 24
25 124 137 170 191 83 98 184 207 244 264 31 29 97 92 146 140 88 84 220 201
304 271 24 19 52 43 62 53 10 9 23 17 27 17 4 0 36 20 70 45 34 25 64 45 66
45 3 0 17 11 32 25 26 24 54 33 54 17z"/>
<path d="M3768 4549 c-27 -27 -48 -52 -48 -55 0 -3 -13 -19 -30 -34 -26 -24
-30 -26 -30 -9 0 10 -11 26 -24 34 -29 19 -63 8 -89 -28 -10 -14 -37 -45 -60
-69 -63 -66 -82 -90 -142 -186 -31 -48 -87 -130 -125 -182 -38 -52 -79 -111
-90 -130 -45 -76 -89 -143 -109 -166 -11 -13 -21 -29 -21 -36 0 -6 -7 -18 -15
-27 -37 -38 -68 -79 -86 -114 -11 -21 -26 -40 -34 -44 -8 -3 -15 -10 -15 -15
0 -6 -12 -23 -27 -38 -16 -15 -41 -51 -57 -81 -16 -30 -37 -63 -46 -74 -10
-11 -29 -40 -44 -65 -14 -25 -40 -64 -57 -87 -26 -35 -30 -47 -25 -76 6 -30
11 -36 41 -41 22 -5 35 -13 35 -23 0 -9 6 -13 15 -9 17 6 21 -19 5 -29 -19
-12 -10 -48 18 -74 28 -27 108 -70 130 -71 6 0 12 -4 12 -10 0 -21 26 -9 42
20 17 30 18 30 47 15 17 -8 37 -15 46 -15 8 0 24 -6 36 -12 17 -11 22 -10 33
4 7 10 15 16 17 13 3 -2 17 -6 33 -9 39 -7 79 18 106 66 25 44 104 143 161
201 21 21 44 51 51 68 7 16 16 29 20 29 6 0 40 49 92 134 44 71 91 141 97 146
3 3 18 28 34 55 16 28 38 61 50 75 13 14 29 37 36 51 40 77 63 114 78 130 10
11 28 40 40 66 12 27 29 59 37 73 9 14 21 37 27 53 6 15 15 27 19 27 4 0 8 4
8 10 0 5 15 31 34 57 18 27 37 62 41 78 22 93 17 121 -24 130 -20 4 -31 14
-35 31 -7 27 1 72 17 92 5 6 6 12 3 12 -4 0 -1 10 6 23 20 36 17 57 -9 63 -12
4 -23 10 -23 14 0 8 -59 34 -71 32 -4 -1 -18 9 -32 22 -40 38 -49 36 -99 -15z
m162 -118 c0 -12 -20 -36 -20 -24 0 6 -3 19 -6 27 -5 12 -2 15 10 10 9 -3 16
-9 16 -13z m-110 -56 c0 -14 -9 -33 -20 -42 -11 -10 -20 -22 -20 -28 0 -6 -7
-20 -15 -30 -8 -11 -28 -37 -45 -58 -16 -21 -32 -47 -35 -58 -4 -10 -11 -19
-16 -19 -5 0 -9 -6 -9 -14 0 -8 -3 -16 -7 -18 -16 -7 -121 -155 -147 -208 -15
-30 -31 -57 -35 -60 -17 -11 -114 -155 -136 -203 -14 -29 -45 -75 -70 -102
-25 -28 -45 -54 -45 -59 0 -13 -63 -106 -72 -106 -4 0 -8 -5 -8 -10 0 -12 -61
-93 -230 -310 -11 -14 -20 -28 -20 -31 0 -9 -50 2 -50 11 0 3 15 27 33 51 67
89 92 124 91 129 0 3 20 34 46 70 25 36 64 95 86 131 39 65 63 98 117 163 15
19 27 38 27 44 0 6 17 29 38 51 55 60 57 62 96 134 19 37 53 84 74 106 21 21
51 63 66 93 24 44 69 109 115 164 4 5 14 21 21 34 7 13 21 33 31 44 11 11 19
25 19 30 0 12 104 126 114 126 3 0 6 -11 6 -25z m-120 -4 c0 -4 -10 -21 -22
-37 -26 -32 -58 -66 -58 -60 0 8 39 92 46 99 10 10 34 9 34 -2z m194 -66 c4
-12 -39 -90 -64 -115 -3 -3 -24 -30 -47 -61 -23 -31 -47 -62 -55 -70 -18 -20
-31 -42 -75 -129 -21 -41 -54 -92 -74 -113 -20 -21 -42 -50 -50 -65 -7 -15
-29 -46 -49 -68 -19 -23 -84 -117 -143 -210 -205 -319 -247 -381 -289 -424
-19 -20 -43 -48 -52 -62 -16 -25 -20 -26 -33 -12 -14 13 -12 19 14 52 16 20
35 47 41 59 7 12 29 42 50 67 65 78 81 99 134 184 29 46 73 111 98 144 25 33
63 93 85 132 22 40 48 86 57 103 10 17 21 33 26 35 11 4 92 135 92 148 0 5 5
10 10 10 6 0 10 4 10 10 0 10 107 161 135 191 8 9 15 19 15 23 0 11 82 124
115 159 29 31 40 34 49 12z m-308 -108 c-31 -51 -86 -115 -86 -101 0 6 18 35
41 65 22 30 45 65 51 79 6 15 12 20 15 12 3 -7 -7 -31 -21 -55z m322 -25 c-15
-15 -43 -56 -63 -92 -21 -36 -47 -75 -58 -87 -11 -13 -17 -23 -13 -23 4 0 -3
-15 -15 -32 -39 -56 -102 -128 -107 -123 -3 2 1 11 8 20 13 16 48 77 76 132 9
18 27 44 40 58 13 14 24 28 24 31 0 8 83 118 104 137 30 27 33 10 4 -21z
m-443 -139 c-15 -27 -48 -68 -73 -93 -41 -41 -43 -42 -26 -13 10 18 29 45 42
60 13 16 36 43 49 61 36 46 39 40 8 -15z m-124 -165 c-21 -53 -45 -91 -89
-141 -26 -28 -53 -63 -61 -77 -26 -47 -76 -109 -89 -110 -6 0 -11 -3 -10 -7 1
-5 -5 -19 -14 -33 -59 -93 -138 -223 -138 -229 0 -3 -16 -24 -35 -46 -19 -22
-35 -44 -35 -48 0 -5 -6 -14 -12 -21 -15 -15 -70 -82 -79 -98 -5 -7 -16 -4
-33 9 l-26 21 34 6 c27 5 39 15 55 46 11 22 48 81 81 132 83 128 81 125 115
172 29 39 57 79 80 114 24 37 158 203 193 239 12 13 22 26 22 29 0 8 40 64 45
64 3 0 1 -10 -4 -22z m309 -74 c0 -3 -11 -20 -25 -38 -14 -18 -25 -37 -25 -43
0 -5 -10 -18 -21 -29 -12 -10 -30 -38 -41 -61 -10 -24 -23 -43 -28 -43 -6 0
-10 -6 -10 -14 0 -7 -7 -19 -15 -26 -8 -6 -14 -15 -12 -18 3 -14 -110 -183
-193 -288 -36 -45 -73 -94 -84 -108 -30 -41 -48 -62 -40 -46 13 25 157 249
176 275 26 33 78 116 78 123 0 5 18 34 40 65 22 30 40 58 40 61 0 3 12 18 26
33 14 15 46 58 71 96 40 58 63 81 63 61z m-794 -864 c18 0 18 -19 0 -26 -26
-10 -104 45 -92 65 4 6 20 1 43 -14 20 -14 42 -25 49 -25z"/>
<path d="M885 609 c-21 -21 -42 -36 -47 -33 -4 3 -8 -1 -8 -9 0 -8 -7 -18 -16
-21 -8 -3 -12 -11 -9 -17 4 -5 1 -23 -5 -39 -31 -74 38 -172 124 -178 22 -2
42 -5 46 -7 8 -5 83 20 111 37 35 22 58 82 55 145 -3 53 -6 59 -47 94 -24 21
-60 41 -79 45 -19 4 -39 9 -45 12 -23 14 -44 6 -80 -29z m99 -94 c3 -8 12 -15
20 -15 23 0 40 -38 26 -55 -19 -22 -46 -27 -90 -15 -46 12 -50 28 -19 71 22
31 53 38 63 14z"/>
</g>
</svg>
