<?xml version="1.0" standalone="no"?>
<!DOCTYPE svg PUBLIC "-//W3C//DTD SVG 20010904//EN"
 "http://www.w3.org/TR/2001/REC-SVG-20010904/DTD/svg10.dtd">
<svg version="1.0" xmlns="http://www.w3.org/2000/svg"
 width="501.000000pt" height="453.000000pt" viewBox="0 0 501.000000 453.000000"
 preserveAspectRatio="xMidYMid meet">
<metadata>
Created by potrace 1.16, written by Peter Selinger 2001-2019
</metadata>
<g transform="translate(0.000000,453.000000) scale(0.100000,-0.100000)"
fill="#000000" stroke="none">
<path d="M3392 4392 c-8 -5 -13 -12 -13 -16 3 -19 0 -26 -11 -27 -7 0 -35 -27
-63 -60 -27 -33 -67 -74 -87 -91 -21 -16 -38 -35 -38 -41 0 -6 -24 -34 -53
-62 -29 -27 -76 -79 -105 -115 -69 -85 -59 -74 -148 -161 -44 -42 -106 -109
-139 -148 -33 -39 -65 -71 -72 -71 -7 0 -13 -6 -13 -14 0 -7 -10 -26 -22 -42
-12 -15 -23 -33 -24 -38 -1 -6 -16 -40 -32 -76 -17 -36 -36 -96 -42 -133 -11
-59 -10 -70 5 -93 14 -21 15 -31 5 -54 -14 -35 2 -66 39 -75 20 -5 22 -8 10
-16 -7 -5 -10 -9 -6 -9 9 0 5 -5 -74 -95 -34 -38 -66 -80 -72 -92 -6 -13 -14
-23 -19 -23 -4 0 -8 -4 -8 -10 0 -5 -37 -55 -82 -111 -46 -55 -87 -108 -93
-116 -5 -8 -28 -34 -50 -57 -22 -23 -51 -55 -63 -72 -27 -34 -217 -236 -381
-405 -62 -64 -117 -122 -121 -128 -4 -7 -42 -49 -86 -94 -43 -46 -102 -107
-131 -137 -67 -72 -239 -231 -268 -249 -12 -8 -30 -26 -38 -40 -21 -34 -115
-131 -127 -131 -6 0 -10 -5 -10 -10 0 -13 -50 -70 -62 -70 -11 0 -48 -38 -48
-48 0 -5 -30 -41 -68 -80 -84 -89 -193 -234 -217 -289 -11 -24 -22 -43 -25
-43 -4 0 -13 -19 -20 -42 -8 -24 -18 -48 -22 -55 -12 -15 -13 -107 -3 -153 8
-39 31 -88 49 -105 14 -13 107 -75 115 -76 3 0 15 -2 26 -5 115 -22 176 -12
298 47 79 38 237 191 271 263 9 20 25 40 36 46 10 6 32 33 47 60 15 28 31 50
36 50 4 0 7 5 7 11 0 6 10 24 23 39 57 72 68 88 89 130 13 24 40 60 61 79 21
19 44 46 52 60 7 14 27 42 44 61 17 19 31 38 31 42 0 4 12 20 26 35 14 15 51
65 81 111 30 45 58 82 62 82 3 0 24 23 46 51 22 29 67 86 100 128 33 42 65 84
70 93 28 47 90 132 121 166 18 20 34 41 34 45 0 4 30 45 66 89 36 45 73 96 81
112 15 28 60 94 73 106 3 3 28 34 55 70 26 36 61 79 76 95 24 25 133 157 157
190 17 23 88 111 99 123 7 7 16 24 19 36 7 29 47 48 80 40 13 -3 30 -2 37 3 6
6 39 11 72 12 67 3 93 6 115 14 8 3 36 11 63 17 26 7 47 17 47 21 0 5 5 9 11
9 15 0 92 54 129 91 17 17 50 59 72 93 23 33 64 89 90 122 26 34 48 66 48 71
0 4 15 26 33 48 17 21 52 67 77 101 25 34 86 114 135 179 50 64 109 147 132
183 23 37 46 72 51 77 14 18 42 95 42 118 0 26 -49 60 -73 51 -8 -3 -23 -21
-33 -40 -10 -19 -26 -37 -35 -39 -10 -3 -24 -17 -33 -30 -9 -14 -36 -37 -59
-51 -23 -15 -60 -45 -83 -68 -43 -43 -141 -131 -186 -165 -43 -34 -43 -24 -2
22 22 23 50 60 64 82 13 22 36 53 51 69 15 17 39 53 53 81 13 28 58 87 100
130 42 45 75 89 75 100 0 11 -11 34 -24 50 l-25 30 -144 -145 c-79 -80 -174
-172 -212 -205 -37 -33 -79 -71 -93 -85 -30 -29 -104 -80 -109 -76 -8 8 48 90
98 144 30 32 61 70 69 84 7 14 27 41 44 60 36 38 127 185 127 204 0 7 4 14 8
16 14 6 52 75 52 95 0 10 -6 27 -13 37 -18 25 -53 14 -106 -34 -25 -22 -48
-40 -53 -40 -4 0 -8 -7 -8 -15 0 -8 -18 -27 -40 -41 -22 -15 -40 -30 -40 -34
0 -7 -100 -110 -107 -110 -2 0 17 27 44 61 26 34 52 69 58 78 5 9 24 40 43 69
37 59 47 117 26 147 -8 10 -14 15 -14 9 0 -5 -6 -2 -13 6 -14 17 -75 25 -95
12z m-53 -236 c-7 -14 -15 -26 -19 -26 -4 0 -36 -42 -73 -92 -36 -51 -77 -104
-91 -117 -14 -14 -26 -29 -26 -35 0 -6 -10 -20 -23 -31 -12 -11 -42 -47 -67
-80 -24 -33 -52 -68 -62 -78 -10 -10 -24 -30 -32 -45 -8 -15 -31 -43 -51 -62
-20 -19 -42 -49 -50 -66 -15 -36 -9 -80 12 -88 15 -6 69 18 75 33 10 29 218
257 260 286 8 6 34 22 57 38 22 15 41 34 41 42 0 8 12 23 28 32 15 10 34 25
42 33 8 9 30 29 49 45 31 27 33 28 15 5 -24 -32 -32 -42 -91 -111 -26 -31 -57
-71 -68 -90 -11 -18 -28 -47 -38 -64 -10 -16 -33 -44 -50 -60 -18 -17 -41 -43
-52 -59 -11 -15 -30 -40 -42 -54 -13 -15 -23 -30 -23 -34 0 -4 -16 -24 -35
-45 -19 -21 -33 -42 -32 -48 2 -5 -2 -14 -9 -20 -11 -8 -11 -15 -1 -35 18 -36
53 -37 91 -3 17 16 47 41 66 55 19 14 60 51 91 82 31 31 60 56 64 56 4 0 21
11 39 25 17 14 36 29 41 33 6 4 36 28 67 55 31 26 59 47 62 47 15 0 1 -21 -64
-90 -39 -41 -79 -91 -89 -110 -11 -19 -31 -45 -45 -57 -14 -13 -26 -28 -26
-35 0 -7 -9 -21 -20 -33 -81 -82 -117 -158 -90 -190 19 -23 46 -18 93 15 48
35 237 219 237 232 0 4 6 8 13 8 6 0 37 23 67 50 30 28 74 64 97 80 23 16 43
34 45 39 5 15 108 92 108 81 0 -6 -7 -13 -15 -16 -8 -4 -15 -12 -15 -20 0 -8
-5 -14 -10 -14 -6 0 -14 -9 -18 -19 -7 -20 -49 -73 -109 -140 -18 -20 -33 -42
-33 -48 0 -7 -4 -13 -8 -13 -5 0 -23 -21 -40 -47 -17 -27 -43 -61 -57 -77 -14
-16 -25 -33 -25 -38 0 -4 -14 -23 -31 -40 -17 -18 -47 -59 -66 -90 -20 -32
-40 -58 -44 -58 -5 0 -9 -7 -9 -15 0 -8 -10 -20 -22 -26 -13 -7 -27 -18 -31
-25 -4 -8 -15 -14 -22 -14 -8 0 -15 -4 -15 -10 0 -5 -12 -13 -27 -16 -15 -4
-42 -16 -60 -27 -36 -21 -111 -25 -156 -8 -18 7 -36 7 -54 0 -21 -8 -28 -7
-36 6 -6 12 -16 15 -34 10 -38 -9 -93 -49 -88 -62 2 -7 -5 -17 -15 -23 -11 -6
-20 -15 -20 -21 0 -11 -68 -103 -137 -185 -24 -28 -43 -56 -43 -61 0 -5 -9
-18 -20 -28 -11 -10 -20 -22 -20 -27 0 -4 -8 -16 -17 -26 -44 -46 -90 -100
-112 -132 -14 -19 -37 -53 -52 -75 -15 -22 -46 -60 -69 -85 -23 -25 -51 -63
-62 -85 -11 -22 -35 -56 -52 -77 -17 -20 -47 -57 -66 -83 -19 -25 -48 -63 -63
-83 -15 -20 -52 -73 -82 -117 -30 -44 -67 -94 -82 -111 -35 -39 -68 -80 -113
-140 -19 -25 -50 -64 -67 -86 -18 -22 -33 -44 -33 -50 0 -5 -12 -23 -27 -40
-16 -17 -35 -38 -43 -47 -25 -28 -110 -139 -110 -144 0 -2 -22 -28 -50 -57
-27 -29 -50 -61 -50 -70 0 -9 -17 -35 -37 -56 -21 -22 -47 -59 -58 -82 -11
-23 -26 -42 -32 -42 -7 0 -13 -7 -13 -15 0 -8 -4 -15 -10 -15 -5 0 -10 -9 -10
-20 0 -11 -7 -23 -15 -26 -8 -4 -15 -12 -15 -20 0 -7 -6 -17 -13 -21 -7 -4
-20 -19 -29 -33 -8 -14 -48 -60 -88 -103 -98 -104 -190 -152 -294 -152 -63 0
-76 4 -116 31 -25 17 -44 36 -43 42 2 7 -2 12 -8 12 -5 0 -8 4 -4 9 3 5 1 12
-5 16 -14 9 -12 56 5 104 8 23 14 45 15 49 0 4 6 14 14 23 8 9 17 27 21 39 20
63 171 247 358 435 55 55 111 114 124 132 14 18 139 147 278 287 139 140 254
259 256 265 4 12 183 201 364 384 55 56 131 139 170 185 38 46 74 87 80 90 5
4 41 49 79 100 39 50 73 92 77 92 4 0 22 23 40 50 18 28 36 50 41 50 4 0 8 7
8 16 0 8 6 21 13 29 7 7 25 26 38 43 14 16 35 35 47 41 25 13 40 74 23 95 -9
10 -8 16 4 26 20 17 19 65 -2 86 -15 14 -18 35 -17 111 0 58 5 98 12 105 7 7
12 21 12 31 0 28 35 81 117 177 40 46 73 88 73 92 0 4 5 8 11 8 10 0 177 170
192 196 4 8 34 42 66 76 32 35 69 75 82 90 81 92 133 147 136 144 2 -2 -2 -15
-8 -30z m-9 -171 c-7 -8 -17 -15 -22 -15 -6 0 -5 7 2 15 7 8 17 15 22 15 6 0
5 -7 -2 -15z"/>
</g>
</svg>
