<?xml version="1.0" standalone="no"?>
<!DOCTYPE svg PUBLIC "-//W3C//DTD SVG 20010904//EN"
 "http://www.w3.org/TR/2001/REC-SVG-20010904/DTD/svg10.dtd">
<svg version="1.0" xmlns="http://www.w3.org/2000/svg"
 width="457.000000pt" height="447.000000pt" viewBox="0 0 457.000000 447.000000"
 preserveAspectRatio="xMidYMid meet">
<metadata>
Created by potrace 1.16, written by Peter Selinger 2001-2019
</metadata>
<g transform="translate(0.000000,447.000000) scale(0.100000,-0.100000)"
fill="#000000" stroke="none">
<path d="M2300 4379 c-25 -4 -72 -10 -105 -13 -97 -11 -313 -40 -375 -52 -14
-2 -56 -9 -95 -16 -38 -6 -74 -14 -80 -18 -14 -11 -135 -57 -167 -64 -15 -3
-29 -15 -33 -26 -6 -19 -32 -34 -100 -59 -16 -6 -43 -16 -60 -22 -16 -7 -32
-13 -35 -13 -11 -2 -98 -29 -140 -44 -48 -17 -133 -65 -164 -94 -11 -10 -27
-20 -35 -23 -35 -12 -67 -124 -41 -140 6 -4 8 -10 5 -15 -3 -4 2 -25 11 -46 9
-20 22 -71 29 -113 14 -80 79 -332 95 -366 5 -11 21 -58 36 -105 15 -47 30
-89 34 -95 3 -5 13 -30 20 -55 8 -25 26 -72 42 -104 15 -33 28 -66 28 -73 0
-7 11 -31 24 -52 14 -21 43 -78 65 -126 23 -48 54 -106 69 -129 16 -23 35 -56
43 -74 7 -18 17 -32 21 -32 3 0 11 -26 17 -57 23 -120 35 -169 53 -211 10 -24
18 -51 18 -60 0 -8 13 -43 29 -76 58 -122 64 -138 55 -144 -5 -4 -30 -32 -55
-62 -49 -59 -79 -109 -79 -135 0 -8 -3 -15 -8 -15 -9 0 -40 -71 -46 -107 -3
-15 -8 -53 -11 -83 -8 -71 -74 -365 -92 -410 -6 -15 -7 -20 -18 -79 -4 -18
-11 -45 -17 -60 -6 -14 -12 -33 -13 -41 -9 -71 -20 -126 -37 -190 -11 -41 -23
-92 -25 -112 -3 -21 -8 -38 -12 -38 -9 0 -6 -81 4 -105 11 -24 137 -150 150
-150 17 -1 129 -62 151 -83 18 -17 121 -59 169 -68 62 -11 115 -27 115 -33 0
-4 21 -8 47 -10 25 -1 53 -6 62 -10 9 -5 45 -11 81 -15 36 -3 79 -8 95 -10 45
-6 473 -8 482 -3 4 3 71 8 148 12 77 3 149 8 160 10 11 3 31 7 45 9 14 2 59
11 100 20 41 8 91 17 110 19 78 11 126 20 135 27 6 4 24 11 40 15 17 5 32 9
35 10 3 1 21 4 40 9 74 15 177 52 221 77 25 15 55 30 67 33 11 4 26 13 32 21
7 8 21 15 31 15 11 0 19 4 19 8 0 4 15 16 33 26 17 11 49 34 70 53 20 18 42
33 48 33 9 0 10 18 4 63 -4 34 -9 80 -10 102 -2 40 -42 238 -75 370 -9 39 -45
149 -79 245 -87 244 -104 310 -103 404 1 59 -4 89 -18 116 -19 37 -116 140
-132 140 -5 0 -16 7 -24 15 -13 13 -9 18 41 41 30 15 58 30 61 35 3 5 14 9 25
9 10 0 19 4 19 8 0 8 69 42 86 42 5 0 18 11 28 25 10 14 23 25 27 25 8 0 95
64 151 112 15 13 43 34 63 48 52 37 105 111 170 240 73 144 69 133 105 265 35
124 46 221 49 411 2 144 -9 209 -46 262 -13 19 -23 38 -23 43 0 18 -118 71
-180 79 -36 5 -83 13 -105 17 -22 4 -82 7 -134 7 l-94 -1 5 94 c3 51 1 93 -3
93 -5 0 -9 29 -9 64 0 42 -5 67 -14 75 -8 7 -17 24 -21 39 -3 14 -15 45 -26
69 -10 23 -19 47 -19 52 0 6 -4 11 -9 11 -5 0 -12 8 -15 18 -3 9 -23 28 -43
42 -20 14 -41 30 -47 35 -6 6 -40 28 -76 51 -91 56 -388 156 -433 145 -5 -1
-26 3 -49 9 -69 19 -493 32 -588 19z m455 -74 c178 -16 317 -52 440 -111 181
-88 237 -136 292 -252 33 -69 37 -85 37 -157 0 -117 -25 -156 -151 -237 -108
-70 -231 -126 -339 -155 -95 -26 -109 -27 -324 -26 -234 1 -351 12 -474 44
-22 6 -49 12 -60 14 -12 1 -28 5 -36 7 -60 21 -190 61 -262 82 -98 29 -198 73
-198 89 0 6 -3 7 -6 4 -7 -7 -72 25 -112 55 l-23 17 29 15 c17 9 43 31 59 49
34 41 137 117 157 117 9 0 20 9 26 19 12 23 14 62 3 59 -5 -1 -37 12 -73 30
-43 21 -91 57 -143 108 l-78 77 48 22 c56 26 192 65 243 70 31 3 85 11 215 30
22 4 56 10 75 15 19 5 58 9 85 10 28 0 77 4 110 8 76 9 354 7 460 -3z m-1205
-312 c30 -28 76 -62 101 -75 l46 -25 -41 -26 c-23 -14 -59 -46 -80 -71 -21
-25 -44 -46 -51 -46 -7 0 -32 -17 -56 -39 -41 -36 -43 -40 -31 -65 9 -20 9
-32 -1 -53 -6 -16 -15 -30 -19 -33 -4 -3 -15 -26 -26 -51 -21 -48 -21 -35 -8
-692 3 -144 1 -235 -4 -232 -11 6 -209 406 -215 433 -3 9 -31 97 -65 196 -33
98 -60 187 -60 198 0 10 -7 33 -16 51 -10 17 -25 79 -35 137 -22 128 -23 135
-6 123 16 -13 136 -38 227 -48 66 -7 103 -16 117 -27 13 -11 73 25 73 43 0 30
-37 43 -155 55 -27 2 -68 9 -90 14 -22 5 -53 12 -70 15 -37 7 -93 34 -118 57
-17 15 -18 20 -6 47 8 17 18 31 24 31 6 0 33 15 60 33 29 19 111 53 195 81 80
26 156 53 169 60 27 15 29 13 141 -91z m20 -438 c22 -4 50 -18 50 -26 0 -5 6
-9 13 -9 7 0 37 -13 67 -28 30 -16 102 -41 160 -56 58 -14 107 -31 108 -36 2
-6 14 -10 27 -10 14 0 45 -7 71 -16 25 -9 55 -17 66 -19 11 -2 28 -7 38 -10
10 -3 34 -8 52 -10 18 -3 55 -9 82 -15 60 -12 150 -22 194 -21 21 1 35 -4 39
-15 5 -14 7 -14 14 -1 9 15 13 15 191 2 133 -10 446 58 533 116 22 14 50 29
63 33 12 4 65 36 117 71 52 35 95 61 95 58 0 -30 -156 -183 -210 -205 -25 -11
-54 -23 -65 -28 -48 -22 -143 -50 -218 -66 -45 -9 -86 -19 -92 -22 -5 -4 -12
-7 -15 -7 -3 0 -23 -5 -45 -12 -145 -43 -202 -47 -410 -28 -27 2 -82 6 -122 8
-39 3 -75 7 -80 10 -5 3 -35 8 -67 12 -33 3 -66 10 -75 14 -9 5 -34 12 -56 15
-51 9 -180 54 -223 78 -19 10 -56 23 -83 29 -27 6 -55 16 -62 23 -6 6 -32 20
-57 31 -25 11 -60 30 -79 42 -19 13 -41 23 -50 23 -10 0 -26 6 -36 14 -19 14
-19 14 0 49 17 32 21 34 39 24 12 -6 23 -12 26 -12z m2311 -85 c19 -6 49 -10
67 -10 38 0 102 -30 132 -62 33 -35 51 -113 51 -215 -1 -153 -12 -357 -20
-368 -4 -5 -13 -36 -20 -67 -7 -32 -17 -60 -22 -63 -5 -4 -9 -16 -9 -29 0 -12
-4 -26 -8 -31 -5 -6 -15 -29 -22 -52 -7 -24 -17 -43 -21 -43 -4 0 -15 -21 -25
-47 -29 -76 -114 -177 -196 -230 -21 -14 -38 -30 -38 -35 0 -4 -12 -14 -27
-21 -16 -6 -30 -14 -33 -17 -3 -3 -34 -26 -70 -51 -36 -24 -67 -47 -70 -51 -3
-4 -28 -16 -55 -28 -28 -11 -66 -29 -86 -40 l-36 -20 10 45 c6 25 16 45 23 45
22 0 182 99 222 138 7 6 17 12 21 12 5 0 20 17 34 38 14 20 39 52 55 69 17 18
34 43 38 55 4 13 17 37 29 53 24 31 85 209 85 248 1 18 37 175 56 242 10 36
19 168 16 247 -3 73 -5 79 -36 110 -51 51 -59 55 -122 68 -60 13 -111 14 -154
5 -31 -6 -36 3 -32 63 4 46 6 51 30 56 39 6 193 -3 233 -14z m-335 -72 c-3
-18 -8 -62 -10 -98 -10 -143 -19 -226 -27 -247 -4 -11 -6 -35 -4 -52 3 -20 0
-31 -8 -31 -7 0 -13 -17 -13 -43 -2 -39 -10 -122 -13 -122 -1 0 -4 -27 -6 -61
-2 -33 -9 -72 -14 -88 -6 -15 -11 -40 -11 -57 0 -16 -4 -48 -10 -71 -37 -164
-51 -226 -56 -245 -2 -12 -9 -35 -15 -50 -17 -42 -52 -167 -65 -227 -12 -59
-93 -269 -106 -274 -4 -2 -8 -9 -8 -16 0 -13 -99 -116 -111 -116 -5 0 -11 0
-14 0 -2 0 -16 -12 -30 -26 -31 -31 -135 -81 -195 -93 -25 -5 -56 -12 -70 -15
-14 -3 -43 -7 -65 -7 -22 -1 -45 -5 -50 -10 -12 -9 -333 -5 -385 6 -19 3 -53
12 -75 20 -22 7 -64 16 -94 20 -66 9 -128 35 -206 89 -84 57 -102 66 -125 66
-22 0 -26 10 -10 26 11 11 -22 91 -45 109 -18 14 -112 218 -158 340 -36 99
-40 108 -44 125 -4 18 -20 119 -27 175 -7 57 -28 551 -25 605 2 40 2 48 -6
193 -3 75 -4 150 0 166 5 24 10 27 33 23 15 -3 33 -11 40 -18 7 -8 32 -19 55
-26 23 -6 44 -14 47 -18 19 -20 75 -51 107 -58 43 -10 175 -62 183 -71 3 -4
14 -8 25 -8 11 -1 34 -7 50 -14 17 -7 41 -14 55 -16 14 -2 48 -10 75 -18 64
-18 275 -46 385 -51 47 -2 108 -6 135 -7 77 -6 161 7 276 42 35 11 123 34 194
52 72 18 132 36 133 41 2 4 12 8 22 8 30 0 150 58 187 90 18 17 38 30 43 30 5
0 17 14 27 30 23 39 35 38 29 -2z m209 -112 c22 8 89 -41 97 -71 7 -26 14
-211 8 -225 -1 -3 -3 -16 -5 -30 -5 -48 -64 -340 -70 -350 -3 -5 -8 -19 -10
-29 -15 -79 -158 -285 -229 -330 -17 -11 -40 -26 -51 -33 -11 -7 -31 -21 -44
-30 -32 -24 -44 -22 -29 5 6 12 13 29 14 37 1 8 10 40 19 70 9 30 17 64 19 75
7 46 18 85 24 85 4 0 7 15 6 32 0 18 5 57 13 86 8 30 12 56 9 59 -2 3 2 24 10
46 16 45 19 63 29 197 4 46 9 88 12 92 2 5 7 38 9 73 3 36 9 86 13 113 4 26 7
66 6 89 l-1 42 50 3 c28 2 60 0 71 -3 11 -3 25 -5 30 -3z m-305 -1561 c44 -64
35 -102 -39 -175 -63 -61 -189 -140 -266 -165 -27 -10 -59 -22 -69 -27 -26
-14 -201 -58 -248 -63 -21 -2 -55 -8 -75 -14 -21 -5 -66 -9 -100 -9 -34 0 -67
-3 -73 -7 -14 -9 -203 -8 -268 0 -208 28 -447 93 -554 151 -15 8 -51 27 -80
42 -29 15 -76 51 -105 80 -58 58 -66 89 -39 153 13 31 76 102 76 86 0 -4 0 -9
0 -12 -1 -3 8 -17 20 -32 11 -14 20 -31 20 -37 0 -22 52 -68 71 -63 11 3 19 1
19 -4 0 -5 -4 -9 -10 -9 -5 0 -10 -8 -10 -18 0 -20 42 -62 63 -62 6 0 26 -13
42 -28 46 -43 136 -81 240 -102 33 -7 74 -16 90 -21 17 -4 52 -11 80 -14 27
-3 53 -12 57 -18 4 -7 8 -7 8 -2 0 6 47 9 127 7 71 -2 166 1 213 8 47 6 100
13 118 15 19 2 48 9 65 14 18 6 63 21 101 33 81 26 213 106 276 169 49 48 71
87 90 162 7 26 20 51 28 56 23 13 94 -38 132 -94z m-1775 -373 c89 -46 215
-98 258 -106 12 -2 62 -14 110 -25 48 -12 97 -21 107 -21 11 0 20 -3 20 -7 0
-5 10 -8 23 -9 12 0 49 -4 82 -8 81 -10 290 -8 400 4 50 6 111 12 136 15 25 3
89 16 142 30 54 14 106 25 116 25 10 0 24 7 31 15 7 9 32 20 57 26 24 6 46 15
49 20 3 5 11 9 18 9 16 0 131 74 206 132 30 24 57 43 59 43 5 0 10 -23 18 -75
3 -19 11 -44 18 -55 7 -11 16 -36 20 -55 4 -19 11 -41 16 -50 7 -13 24 -65 87
-255 11 -33 25 -82 30 -110 6 -27 18 -81 26 -120 22 -98 37 -238 26 -249 -6
-6 -5 -15 2 -23 16 -19 -35 -70 -109 -108 -32 -16 -80 -44 -108 -62 -27 -18
-56 -33 -63 -33 -8 0 -26 -6 -40 -14 -22 -12 -85 -29 -257 -71 -5 -1 -17 -5
-25 -8 -8 -3 -28 -8 -45 -10 -60 -10 -211 -36 -245 -42 -19 -4 -73 -9 -120
-11 -47 -2 -114 -8 -150 -13 -75 -10 -513 -7 -610 4 -36 4 -72 11 -80 15 -8 5
-33 11 -54 14 -22 4 -59 13 -83 21 -24 8 -53 15 -64 15 -39 0 -141 41 -197 79
-31 22 -73 46 -93 54 -39 16 -89 62 -127 115 -27 37 -25 59 10 192 11 41 22
91 24 110 8 61 12 83 29 145 9 33 22 89 30 125 7 36 18 78 24 94 6 15 18 65
26 110 7 44 23 126 34 181 12 55 21 102 21 103 0 2 28 -22 63 -53 35 -32 101
-77 152 -103z"/>
<path d="M2725 4140 c-16 -4 -40 -12 -52 -18 -12 -7 -29 -9 -37 -6 -9 3 -16 1
-16 -5 0 -6 -6 -11 -14 -11 -8 0 -22 -10 -30 -21 -8 -12 -25 -27 -38 -33 -12
-6 -28 -22 -34 -36 -7 -14 -18 -38 -25 -53 -27 -59 -7 -183 39 -238 38 -46 84
-89 93 -89 6 0 25 -11 43 -25 94 -71 329 -103 429 -58 26 12 47 20 47 17 0 -9
52 31 93 70 20 21 37 45 37 55 0 10 6 24 14 30 21 17 36 100 27 141 -9 39 -34
91 -54 112 -7 7 -23 28 -36 47 -26 36 -141 98 -196 104 -16 3 -41 7 -55 11
-37 9 -200 13 -235 6z m208 -76 c96 -7 111 -16 141 -78 8 -17 29 -44 46 -59
33 -31 37 -48 17 -69 -8 -7 -12 -18 -11 -23 5 -14 -89 -76 -128 -84 -58 -13
-167 1 -241 31 -33 13 -134 128 -143 163 -7 30 2 59 16 50 13 -8 40 19 40 39
0 9 8 16 19 16 11 0 23 4 26 10 3 5 21 9 40 8 19 -1 38 2 42 6 4 4 17 5 28 2
11 -3 60 -8 108 -12z m-290 -305 c16 -16 33 -29 39 -29 7 0 19 -6 27 -14 17
-14 154 -47 206 -49 91 -3 217 49 261 107 10 14 24 26 31 26 21 0 15 -29 -12
-64 -14 -18 -25 -38 -25 -44 0 -7 -4 -12 -10 -12 -5 0 -19 -10 -30 -22 -12
-13 -24 -23 -28 -24 -4 0 -20 -6 -37 -13 -16 -7 -66 -13 -111 -13 -115 -1
-222 40 -311 119 -18 15 -33 32 -33 36 0 5 -7 15 -15 23 -8 9 -15 23 -15 32 0
12 4 11 18 -7 9 -12 30 -36 45 -52z"/>
<path d="M1877 3033 c-16 -19 -28 -106 -33 -243 -1 -47 -5 -152 -9 -235 -7
-177 -7 -254 1 -267 4 -5 8 -63 9 -129 2 -65 7 -124 11 -130 3 -6 10 -54 14
-105 4 -52 12 -100 17 -105 16 -16 48 -2 61 27 14 29 16 74 4 74 -4 0 -9 19
-10 43 -1 23 -5 56 -9 72 -4 17 -7 39 -7 50 -1 11 -4 25 -7 30 -3 6 -7 50 -8
99 -1 49 -4 93 -7 98 -10 16 -11 268 -1 268 5 0 4 7 -3 15 -6 8 -9 18 -6 23 6
10 16 133 21 257 2 44 7 97 10 119 6 28 4 41 -6 47 -20 12 -24 11 -42 -8z"/>
<path d="M3120 938 c-25 -11 -54 -23 -64 -25 -10 -2 -38 -12 -62 -23 -54 -23
-55 -33 -13 -150 17 -47 32 -94 34 -105 2 -11 7 -33 10 -50 3 -16 8 -39 10
-50 11 -65 37 -81 97 -61 24 8 68 19 98 26 76 17 100 27 100 44 0 7 -13 42
-30 77 -16 35 -31 75 -33 89 -2 14 -7 34 -11 45 -20 52 -26 72 -29 90 -3 19
-19 60 -36 94 -11 22 -22 22 -71 -1z"/>
<path d="M2785 859 c-34 -8 -128 -20 -160 -20 -5 -1 -25 1 -42 4 -24 3 -33 0
-33 -9 0 -8 -5 -14 -10 -14 -11 0 -11 -88 0 -95 3 -2 6 -34 8 -72 1 -37 10
-117 19 -176 15 -96 20 -110 42 -121 19 -11 31 -11 60 -1 86 30 179 53 214 53
21 0 44 5 51 11 17 14 27 59 14 63 -12 4 -58 134 -50 142 3 3 0 6 -6 6 -7 0
-12 11 -12 24 0 14 -4 27 -9 30 -4 3 -14 26 -21 50 -11 39 -10 47 4 61 9 9 16
22 16 29 0 12 -32 47 -41 45 -2 -1 -22 -5 -44 -10z"/>
</g>
</svg>
