<?xml version="1.0" standalone="no"?>
<!DOCTYPE svg PUBLIC "-//W3C//DTD SVG 20010904//EN"
 "http://www.w3.org/TR/2001/REC-SVG-20010904/DTD/svg10.dtd">
<svg version="1.0" xmlns="http://www.w3.org/2000/svg"
 width="497.000000pt" height="447.000000pt" viewBox="0 0 497.000000 447.000000"
 preserveAspectRatio="xMidYMid meet">
<metadata>
Created by potrace 1.16, written by Peter Selinger 2001-2019
</metadata>
<g transform="translate(0.000000,447.000000) scale(0.100000,-0.100000)"
fill="#000000" stroke="none">
<path d="M3875 4351 c-33 -5 -85 -15 -115 -24 -30 -9 -93 -25 -140 -37 -47
-12 -104 -35 -128 -51 -24 -16 -47 -29 -52 -29 -21 0 -210 -173 -210 -193 0
-4 -9 -18 -21 -30 -35 -38 -139 -217 -139 -240 0 -12 -16 -48 -35 -80 -19 -32
-51 -89 -71 -127 -20 -39 -40 -70 -45 -70 -5 0 -9 -6 -9 -14 0 -7 -8 -24 -19
-37 -10 -13 -18 -27 -17 -30 2 -8 -64 -97 -101 -137 -18 -18 -33 -37 -33 -41
0 -8 -57 -59 -80 -71 -10 -5 -27 -27 -38 -48 -11 -22 -31 -50 -44 -64 -13 -13
-48 -59 -78 -102 -60 -85 -111 -144 -265 -301 -55 -56 -116 -120 -137 -141
-20 -22 -67 -64 -104 -94 -72 -59 -87 -73 -120 -111 -20 -23 -136 -128 -176
-159 -11 -8 -39 -33 -62 -55 -23 -22 -96 -85 -161 -140 -65 -55 -147 -129
-182 -165 -340 -347 -377 -386 -412 -440 -9 -13 -32 -41 -52 -61 -19 -20 -44
-50 -55 -67 -16 -25 -74 -104 -139 -187 -26 -35 -77 -119 -79 -132 -1 -7 -5
-16 -9 -19 -4 -4 -7 -15 -7 -24 0 -9 -6 -30 -14 -46 -21 -43 -31 -126 -29
-237 2 -104 15 -145 59 -192 13 -15 22 -30 20 -34 -3 -4 9 -16 27 -26 18 -10
36 -25 40 -32 5 -7 12 -11 18 -8 5 4 16 -1 25 -9 14 -15 36 -21 58 -17 4 1 14
-3 22 -10 7 -6 18 -8 23 -5 5 4 14 -1 19 -11 20 -34 265 15 326 66 9 8 16 10
16 6 0 -5 8 -1 18 7 9 8 44 30 77 48 183 102 287 201 440 420 124 177 132 189
145 218 11 25 96 150 116 169 7 7 18 29 25 50 6 20 16 42 21 47 15 19 57 86
78 124 35 64 145 235 248 385 34 51 69 106 78 122 8 17 27 49 42 72 15 24 55
87 90 142 34 54 80 125 102 158 72 103 110 163 110 172 0 4 8 17 18 29 35 42
142 199 142 209 0 3 11 21 25 39 14 18 25 37 25 43 0 6 6 11 14 11 8 0 18 9
21 20 3 11 11 20 16 20 6 0 8 4 5 8 -6 10 25 43 78 86 20 16 72 64 116 106 90
87 158 119 228 105 20 -5 49 -7 63 -6 25 2 158 -45 211 -74 56 -32 98 -16 98
37 0 24 -51 120 -86 161 -62 74 -68 162 -13 219 16 17 29 34 29 37 0 11 54 29
107 35 42 5 62 2 100 -15 82 -36 121 -98 143 -221 11 -59 10 -87 -6 -168 -2
-8 -8 -40 -13 -70 -6 -30 -18 -73 -27 -95 -9 -22 -22 -53 -29 -70 -7 -16 -18
-46 -24 -65 -11 -36 -32 -60 -108 -126 -24 -20 -43 -45 -43 -56 0 -23 46 -82
54 -69 6 9 81 25 107 22 18 -2 150 62 171 82 7 7 29 24 49 38 37 24 146 117
182 154 35 35 137 176 137 189 0 6 13 43 29 81 30 72 33 80 57 200 7 39 17 86
22 105 4 19 7 89 6 155 -1 121 -22 233 -61 323 -40 93 -36 87 -106 166 -15 17
-46 59 -70 93 -23 34 -46 63 -50 63 -5 0 -23 10 -40 22 -17 13 -36 23 -42 23
-15 0 -93 43 -100 55 -3 5 -16 10 -28 10 -12 0 -40 7 -62 14 -54 19 -138 26
-210 17z m193 -127 c13 -2 55 -23 94 -44 38 -22 73 -40 77 -40 3 0 14 -8 23
-17 10 -10 33 -34 53 -53 19 -19 35 -38 35 -42 0 -4 22 -31 49 -60 35 -37 59
-76 80 -130 56 -142 63 -187 56 -332 -4 -72 -9 -134 -11 -138 -3 -4 -7 -26
-10 -50 -8 -61 -27 -124 -60 -193 -15 -33 -30 -67 -33 -76 -7 -19 -123 -168
-132 -169 -3 0 -27 -20 -53 -45 -27 -25 -52 -42 -57 -39 -5 3 -9 -2 -9 -11 0
-8 -8 -19 -17 -22 -10 -4 -20 -9 -23 -12 -3 -3 -20 -14 -37 -24 -38 -21 -46
-5 -15 29 9 10 19 30 20 44 2 13 12 45 22 70 17 44 46 160 57 230 4 19 6 73 5
119 -1 134 -31 210 -120 304 -46 50 -194 92 -282 80 -19 -3 -52 -18 -72 -34
-20 -16 -40 -29 -45 -29 -13 0 -57 -61 -81 -110 -33 -69 -29 -194 7 -249 15
-24 15 -24 -9 -11 -53 29 -213 30 -290 2 -80 -28 -112 -53 -254 -197 -71 -72
-132 -129 -137 -127 -5 1 -9 -5 -9 -13 0 -8 -4 -15 -10 -15 -5 0 -10 -9 -10
-19 0 -22 -31 -81 -42 -81 -5 0 -8 -5 -8 -10 0 -6 -10 -25 -22 -43 -13 -18
-23 -33 -24 -35 -4 -10 -152 84 -185 117 -22 23 -44 39 -50 36 -5 -4 -9 -1 -9
4 0 6 5 11 10 11 6 0 10 6 10 14 0 7 14 27 30 44 17 18 30 36 30 40 0 5 14 21
30 35 17 15 30 34 30 42 0 8 5 15 10 15 6 0 14 8 17 18 8 19 22 35 127 147 42
43 76 84 76 90 0 7 9 20 19 29 11 10 48 66 82 124 35 59 69 113 75 119 7 7 15
25 19 40 3 16 30 75 60 133 30 58 64 124 76 148 12 23 30 47 40 53 11 5 19 15
19 22 0 12 58 81 125 151 31 32 37 36 123 81 68 36 281 91 362 94 35 1 66 4
68 5 2 2 20 0 40 -5 20 -6 48 -12 60 -15z m-1571 -1544 c4 0 28 -18 53 -40 25
-22 68 -52 95 -66 68 -35 70 -39 46 -63 -11 -11 -28 -37 -36 -58 -9 -21 -26
-48 -37 -60 -12 -13 -17 -23 -12 -23 5 0 4 -4 -1 -8 -23 -16 -134 -173 -146
-207 -7 -19 -17 -35 -21 -35 -4 0 -8 -6 -8 -14 0 -8 -16 -31 -35 -52 -19 -22
-35 -45 -35 -52 0 -7 -6 -15 -14 -18 -8 -3 -20 -20 -26 -37 -13 -37 -82 -147
-125 -199 -17 -20 -41 -58 -54 -85 -13 -26 -41 -71 -62 -100 -21 -28 -55 -80
-74 -115 -20 -35 -54 -90 -76 -123 -21 -33 -42 -67 -45 -75 -15 -38 -51 -99
-83 -142 -79 -103 -91 -122 -91 -135 0 -7 -4 -13 -10 -13 -5 0 -10 -4 -10 -9
0 -5 -30 -54 -67 -109 -183 -270 -306 -370 -646 -527 -57 -27 -147 -15 -236
30 -39 19 -71 39 -71 43 0 4 -11 19 -24 33 -35 38 -48 88 -41 166 3 37 6 82 8
98 4 44 11 67 57 165 28 61 41 82 86 135 14 17 46 59 71 95 26 36 58 79 72 96
14 18 42 51 61 74 68 84 106 126 212 235 59 60 117 121 128 135 51 60 123 130
176 171 32 24 81 67 109 94 29 28 83 76 121 107 38 32 92 79 120 105 28 26 95
89 149 138 54 50 108 100 119 113 11 12 23 22 27 22 7 0 62 54 264 259 28 27
59 60 70 71 l19 21 8 -21 c4 -11 11 -20 15 -20z"/>
<path d="M957 942 c-9 -2 -38 -26 -65 -54 -26 -29 -61 -65 -78 -82 -45 -44
-98 -161 -98 -213 1 -35 7 -48 38 -77 20 -20 44 -36 54 -37 9 0 34 -2 54 -5
20 -2 39 0 43 6 3 5 17 10 30 10 37 0 124 57 183 119 47 51 92 119 92 140 0 4
-16 28 -35 52 -19 24 -35 48 -35 52 0 4 -4 13 -10 20 -62 77 -56 73 -91 60
-26 -10 -36 -10 -48 0 -9 8 -24 12 -34 9z m89 -154 c50 -57 51 -52 -13 -116
-32 -32 -71 -64 -88 -70 -82 -29 -115 -22 -115 24 0 32 37 86 113 169 l62 67
10 -26 c6 -14 20 -35 31 -48z"/>
</g>
</svg>
