<?xml version="1.0" standalone="no"?>
<!DOCTYPE svg PUBLIC "-//W3C//DTD SVG 20010904//EN"
 "http://www.w3.org/TR/2001/REC-SVG-20010904/DTD/svg10.dtd">
<svg version="1.0" xmlns="http://www.w3.org/2000/svg"
 width="383.000000pt" height="231.000000pt" viewBox="0 0 383.000000 231.000000"
 preserveAspectRatio="xMidYMid meet">
<metadata>
Created by potrace 1.16, written by Peter Selinger 2001-2019
</metadata>
<g transform="translate(0.000000,231.000000) scale(0.100000,-0.100000)"
fill="#000000" stroke="none">
<path d="M2045 1920 c-38 -4 -162 -10 -275 -14 -113 -3 -232 -10 -265 -15 -33
-5 -100 -12 -148 -15 -49 -3 -93 -8 -98 -12 -5 -3 -16 -1 -24 6 -7 6 -16 7
-19 2 -3 -5 -33 -10 -68 -11 -35 -1 -110 -9 -168 -18 -58 -8 -114 -17 -125
-18 -11 -1 -27 -5 -35 -8 -102 -36 -239 -80 -256 -81 -20 -3 -86 -44 -92 -58
-2 -5 -8 -8 -14 -8 -22 0 -97 -71 -124 -117 -15 -27 -30 -50 -34 -53 -3 -3
-14 -32 -22 -65 -15 -55 -15 -107 -1 -145 3 -8 8 -24 10 -34 2 -11 10 -27 18
-36 8 -9 15 -20 15 -24 0 -4 6 -13 12 -20 7 -7 32 -33 55 -58 23 -25 58 -59
79 -74 21 -16 51 -42 68 -57 17 -16 38 -35 46 -42 9 -8 41 -27 72 -44 56 -29
72 -40 106 -72 9 -9 35 -28 57 -42 22 -14 56 -40 76 -59 20 -18 47 -39 61 -47
14 -7 35 -30 47 -52 12 -21 30 -44 40 -51 9 -7 20 -21 24 -30 7 -19 92 -61
110 -55 7 2 21 0 32 -6 41 -21 1091 -16 1225 6 44 7 140 39 140 47 0 4 15 15
33 23 33 16 214 148 255 186 12 11 26 21 31 21 4 0 16 10 27 21 10 12 35 32
54 44 19 13 47 35 62 49 15 14 30 26 33 26 3 0 32 27 63 61 35 38 78 71 112
87 55 27 150 106 150 126 0 6 8 16 19 23 17 11 63 96 90 168 17 47 19 127 4
165 -31 76 -45 100 -64 111 -11 6 -28 18 -38 27 -37 35 -58 48 -111 71 -30 13
-74 32 -97 42 -23 11 -49 19 -57 19 -8 0 -27 5 -43 11 -15 6 -30 11 -33 11 -3
1 -21 5 -40 10 -19 5 -46 11 -60 13 -318 62 -312 62 -630 68 -118 3 -246 1
-285 -3z m400 -94 c124 -5 280 -21 340 -35 22 -5 67 -15 100 -21 156 -30 367
-103 409 -141 11 -11 26 -19 33 -19 16 0 84 -70 78 -80 -2 -4 -5 -28 -6 -56
-5 -99 -49 -192 -129 -270 -33 -32 -66 -61 -73 -63 -7 -2 -75 -34 -152 -72
-77 -37 -152 -71 -167 -74 -14 -4 -35 -15 -46 -25 -11 -10 -35 -21 -53 -25
-59 -11 -64 -12 -79 -18 -44 -17 -119 -35 -150 -36 -19 -1 -84 -10 -145 -20
-60 -10 -144 -19 -185 -20 -41 0 -154 -3 -250 -6 -214 -7 -339 -7 -349 -1 -4
3 -41 7 -82 11 -41 3 -103 10 -139 15 -36 5 -86 11 -113 14 -26 3 -51 7 -55
10 -4 2 -28 7 -52 10 -25 3 -83 15 -130 27 -47 11 -93 22 -102 24 -51 11 -147
40 -172 52 -16 8 -50 21 -77 29 -26 8 -51 19 -54 24 -3 5 -25 18 -48 28 -79
36 -194 165 -213 238 -9 38 -8 53 13 111 28 80 69 126 163 182 80 48 290 113
405 127 33 4 71 8 85 10 37 4 167 16 230 20 69 4 151 11 210 18 115 12 265 21
578 31 57 2 105 5 107 7 4 3 110 1 270 -6z m424 -954 c-24 -16 -84 -61 -134
-100 -49 -40 -96 -72 -102 -72 -7 0 -13 -4 -13 -8 0 -14 -158 -91 -198 -97
-110 -16 -205 -23 -367 -25 -99 -1 -196 -3 -215 -3 -19 0 -107 2 -195 6 -88 4
-196 8 -240 8 -44 1 -84 4 -89 7 -5 3 -34 6 -65 7 -74 2 -109 22 -169 97 -76
94 -106 127 -118 127 -6 1 -19 11 -30 22 -19 22 -19 22 5 9 13 -6 42 -14 65
-16 22 -3 48 -7 56 -10 17 -6 153 -30 215 -38 22 -3 69 -10 105 -16 36 -5 88
-13 115 -17 57 -8 390 -10 600 -3 159 5 223 12 375 40 30 6 80 12 111 15 32 3
73 12 93 20 20 8 59 20 88 26 29 6 70 20 92 30 60 26 66 23 15 -9z"/>
<path d="M1765 1714 c-5 -2 -107 -8 -225 -13 -118 -6 -267 -18 -330 -26 -63
-9 -135 -18 -160 -20 -118 -11 -168 -24 -225 -55 -92 -52 -175 -127 -175 -159
0 -10 -3 -21 -6 -24 -29 -28 9 -149 65 -210 25 -27 147 -95 201 -112 13 -4 30
-14 38 -21 18 -18 56 -18 72 1 7 8 21 15 31 15 19 0 35 33 24 50 -9 15 -109
60 -133 60 -12 0 -22 5 -22 10 0 6 -6 10 -14 10 -7 0 -19 7 -26 15 -7 8 -16
13 -20 10 -5 -3 -15 0 -22 7 -8 7 -23 18 -33 24 -36 20 -65 115 -43 141 6 7 7
13 3 13 -5 0 0 9 10 20 10 11 22 20 27 20 5 0 18 8 28 18 29 26 182 70 275 78
17 1 71 7 120 13 85 10 152 16 290 26 88 7 428 18 515 18 135 0 585 -14 600
-18 8 -2 56 -7 107 -10 51 -3 102 -9 115 -14 73 -28 139 -64 171 -94 34 -31
37 -37 37 -91 0 -31 -6 -71 -14 -89 -13 -31 -22 -37 -128 -88 -32 -16 -150
-31 -191 -26 -58 8 -114 -10 -119 -38 -3 -12 1 -30 8 -39 11 -15 27 -17 138
-12 69 3 134 9 143 14 10 5 34 12 53 16 53 10 136 65 169 112 60 82 51 237
-18 305 -43 42 -156 106 -203 114 -18 3 -41 8 -50 11 -22 7 -94 12 -383 30
-105 7 -683 13 -700 8z"/>
</g>
</svg>
