<?xml version="1.0" standalone="no"?>
<!DOCTYPE svg PUBLIC "-//W3C//DTD SVG 20010904//EN"
 "http://www.w3.org/TR/2001/REC-SVG-20010904/DTD/svg10.dtd">
<svg version="1.0" xmlns="http://www.w3.org/2000/svg"
 width="519.000000pt" height="393.000000pt" viewBox="0 0 519.000000 393.000000"
 preserveAspectRatio="xMidYMid meet">
<metadata>
Created by potrace 1.16, written by Peter Selinger 2001-2019
</metadata>
<g transform="translate(0.000000,393.000000) scale(0.100000,-0.100000)"
fill="#000000" stroke="none">
<path d="M2245 3634 c-38 -6 -101 -17 -140 -24 -70 -12 -91 -15 -155 -24 -70
-8 -116 -19 -141 -32 -15 -7 -41 -16 -58 -19 -17 -3 -66 -17 -108 -30 -41 -14
-80 -25 -86 -25 -30 0 -217 -103 -255 -142 -43 -42 -92 -131 -97 -175 -1 -13
-8 -29 -14 -37 -9 -11 -9 -33 -1 -93 21 -155 32 -279 31 -358 -1 -44 3 -102 8
-130 6 -27 12 -90 16 -140 11 -171 17 -240 25 -275 5 -19 11 -71 15 -115 3
-44 8 -91 10 -105 3 -14 7 -97 10 -185 4 -149 12 -293 21 -375 2 -19 6 -98 9
-175 6 -133 21 -215 62 -355 21 -71 45 -113 115 -199 32 -38 58 -75 58 -80 0
-6 7 -11 15 -11 9 0 18 -7 21 -15 4 -8 10 -13 14 -10 4 3 19 -5 34 -16 14 -11
26 -17 26 -12 0 4 4 3 8 -4 4 -6 32 -20 62 -31 30 -11 91 -36 135 -55 44 -20
94 -38 110 -40 31 -5 149 -35 175 -45 8 -3 26 -7 39 -8 13 -2 61 -10 105 -18
45 -8 119 -20 166 -27 47 -6 103 -13 125 -16 67 -9 352 -8 485 1 69 5 154 10
190 11 128 3 234 17 245 31 5 8 26 16 45 19 19 2 40 11 46 20 6 8 15 15 20 15
5 0 43 32 84 70 41 38 78 70 82 70 12 0 40 63 54 123 13 54 13 135 0 217 -17
113 -18 108 22 120 53 16 109 38 172 69 30 14 57 26 60 26 11 1 148 86 168
105 12 11 25 20 30 20 9 0 119 107 167 161 71 80 119 149 145 205 17 35 44 93
60 129 17 35 38 93 47 127 27 103 16 284 -24 398 -15 43 -70 131 -85 138 -5 2
-8 9 -8 15 -1 25 -208 224 -268 257 -15 8 -29 17 -32 20 -7 7 -133 52 -145 52
-88 -3 -224 -14 -257 -21 -23 -6 -44 -8 -46 -6 -3 2 1 37 8 77 7 40 12 98 11
128 -1 30 -3 127 -5 215 -5 199 -3 185 -20 185 -9 0 -16 20 -20 62 -8 71 -23
102 -63 139 -76 69 -151 95 -308 103 -60 4 -132 13 -159 21 -27 8 -68 15 -90
15 -23 1 -77 8 -121 16 -44 9 -147 18 -230 19 -82 2 -163 9 -180 15 -16 6
-102 14 -190 16 -88 2 -164 6 -170 7 -5 2 -41 -2 -80 -9z m230 -98 c11 -1 26
-5 32 -9 7 -4 29 -4 49 2 25 7 44 6 62 -1 16 -7 98 -12 192 -13 119 -2 181 -7
221 -19 31 -9 92 -18 135 -21 44 -2 97 -11 119 -19 22 -8 54 -15 72 -16 17 0
35 -5 38 -10 4 -6 31 -9 63 -6 64 4 171 -20 179 -41 3 -7 20 -20 38 -29 68
-32 69 -145 3 -271 -31 -59 -72 -103 -143 -151 -22 -15 -42 -29 -45 -32 -3 -3
-18 -12 -35 -20 -16 -8 -37 -19 -45 -25 -19 -14 -116 -55 -142 -60 -11 -3 -25
-8 -32 -13 -44 -33 -256 -72 -371 -67 -139 6 -336 17 -375 21 -40 5 -170 12
-317 18 -56 2 -107 7 -113 11 -6 4 -59 7 -117 7 -71 0 -143 8 -217 23 -238 50
-294 71 -354 137 -49 53 -52 59 -62 124 -8 48 -6 64 16 122 14 37 34 77 44 90
20 24 184 112 210 112 8 0 30 9 47 20 18 11 39 17 47 14 8 -3 17 -1 20 5 4 5
32 15 64 21 31 6 75 17 97 25 22 7 92 21 155 30 63 9 135 21 160 25 111 22
159 27 220 22 36 -3 74 -6 85 -6z m1301 -561 c-3 -36 -2 -75 2 -86 5 -11 2
-62 -4 -112 -7 -51 -12 -113 -10 -139 2 -33 -1 -48 -10 -48 -6 0 -47 -17 -90
-38 -44 -21 -97 -44 -119 -51 -54 -18 -85 -38 -85 -56 0 -8 -4 -15 -9 -15 -19
0 -28 -87 -16 -151 6 -30 32 -73 67 -110 26 -28 40 -35 63 -33 59 6 130 28
146 46 21 23 39 23 40 1 1 -22 0 -82 -6 -433 -7 -362 -7 -380 -1 -417 5 -31 3
-33 -37 -43 -23 -6 -49 -13 -57 -16 -8 -3 -16 -5 -18 -5 -1 1 -18 -5 -37 -13
-19 -8 -35 -13 -35 -11 0 6 -86 -42 -122 -67 -16 -11 -28 -17 -28 -14 0 4 -17
-5 -39 -18 -21 -14 -56 -32 -77 -41 -21 -9 -52 -29 -67 -45 -16 -17 -32 -30
-36 -30 -10 0 -33 -60 -33 -86 0 -21 13 -53 45 -109 11 -18 43 -51 99 -100 10
-8 40 -22 68 -31 l51 -17 27 33 c18 22 70 54 157 96 l130 63 7 -26 c4 -14 10
-59 13 -100 3 -40 6 -77 7 -81 4 -16 -14 -82 -22 -82 -6 0 -10 -6 -10 -14 0
-8 -12 -24 -26 -37 -14 -13 -45 -43 -68 -65 -85 -83 -155 -102 -421 -119 -49
-3 -133 -10 -185 -15 -112 -10 -367 -5 -460 10 -36 5 -119 17 -185 26 -165 22
-366 71 -440 107 -22 11 -41 19 -43 18 -1 -1 -15 5 -30 13 -15 8 -53 21 -84
30 -30 9 -69 28 -84 42 -16 14 -40 32 -54 40 -30 19 -116 129 -147 187 -21 41
-58 198 -67 287 -3 25 -7 97 -11 160 -11 212 -17 295 -23 305 -4 6 -7 73 -8
150 -1 77 -9 205 -18 285 -26 242 -34 331 -40 425 -4 50 -9 119 -12 155 -3 36
-6 104 -7 152 -2 78 0 85 15 77 9 -5 23 -15 30 -23 18 -17 104 -47 238 -81
115 -30 122 -31 260 -40 52 -3 113 -8 135 -11 22 -3 78 -7 125 -8 47 -2 132
-6 190 -10 58 -3 145 -8 194 -11 49 -3 92 -8 95 -12 10 -13 309 -15 400 -3
116 16 128 18 154 25 38 12 200 77 238 96 20 10 39 15 43 12 3 -4 6 -1 6 5 0
7 6 12 13 12 19 0 197 131 251 186 12 11 32 37 46 57 14 20 26 37 28 37 1 0 0
-29 -2 -65z m443 -471 c85 -46 95 -52 108 -69 6 -9 26 -28 45 -41 36 -26 178
-183 178 -197 0 -4 11 -20 25 -35 14 -15 25 -35 25 -44 0 -24 0 -26 17 -80 14
-50 19 -157 8 -198 -3 -14 -8 -38 -10 -55 -7 -49 -90 -241 -129 -298 -20 -28
-61 -79 -91 -112 -30 -33 -55 -63 -55 -67 0 -5 -4 -8 -10 -8 -5 0 -27 -18 -50
-40 -22 -21 -61 -51 -87 -67 -27 -15 -49 -31 -51 -35 -4 -9 -146 -78 -162 -78
-6 0 -21 -6 -33 -14 -12 -7 -47 -21 -77 -31 -30 -10 -70 -24 -88 -31 -18 -8
-38 -14 -44 -14 -6 0 -37 -13 -70 -30 -32 -16 -65 -30 -73 -30 -8 0 -15 -4
-15 -10 0 -5 -9 -10 -19 -10 -11 0 -22 -4 -25 -9 -3 -5 -18 -12 -33 -16 -16
-3 -35 -12 -43 -19 -8 -8 -26 -16 -40 -18 -14 -3 -32 -9 -41 -12 -10 -4 -23
-1 -32 8 -9 9 -20 16 -26 16 -12 0 -61 62 -61 78 0 7 9 12 19 12 11 0 28 10
38 23 10 12 26 27 35 32 8 6 42 28 74 49 89 59 178 103 259 126 40 12 126 50
135 60 3 4 23 11 46 18 22 6 68 30 102 52 34 22 62 36 62 32 0 -4 5 1 11 11 6
9 14 15 20 12 5 -4 9 -2 9 4 0 9 55 41 71 41 4 0 20 12 36 27 16 16 44 42 63
59 49 44 92 94 114 134 10 19 24 40 30 45 13 11 56 99 56 114 0 5 4 11 9 13 5
2 12 36 15 77 4 41 8 77 9 80 0 3 -2 32 -6 65 -10 81 -55 142 -167 229 -52 41
-79 55 -160 88 -66 26 -345 12 -384 -20 -18 -15 -150 -81 -162 -81 -17 0 -52
55 -58 93 -8 50 1 67 36 67 16 0 57 16 90 35 33 20 70 37 82 38 11 1 24 6 27
10 7 10 107 37 174 47 28 4 88 6 135 5 73 -2 94 -7 139 -31z m-128 -261 c16
-3 29 -9 29 -14 0 -5 7 -6 15 -3 8 4 15 1 15 -5 0 -6 9 -11 20 -11 11 0 20 -4
20 -8 0 -5 18 -19 41 -31 22 -13 45 -34 51 -47 6 -13 16 -24 23 -24 20 0 54
-57 60 -100 3 -23 7 -45 9 -49 2 -3 -2 -35 -9 -71 -13 -69 -31 -106 -89 -187
-20 -28 -36 -53 -36 -56 0 -5 -32 -38 -105 -108 -12 -10 -28 -19 -38 -19 -9 0
-17 -4 -17 -9 0 -5 -32 -28 -71 -52 -40 -24 -88 -54 -108 -66 -20 -12 -41 -22
-48 -23 -9 0 -11 77 -8 333 2 182 4 353 4 379 0 26 5 65 11 88 8 28 8 46 0 60
-12 22 -16 21 88 25 29 2 56 6 60 9 3 4 17 4 30 1 14 -3 37 -9 53 -12z"/>
</g>
</svg>
