<?xml version="1.0" standalone="no"?>
<!DOCTYPE svg PUBLIC "-//W3C//DTD SVG 20010904//EN"
 "http://www.w3.org/TR/2001/REC-SVG-20010904/DTD/svg10.dtd">
<svg version="1.0" xmlns="http://www.w3.org/2000/svg"
 width="513.000000pt" height="411.000000pt" viewBox="0 0 513.000000 411.000000"
 preserveAspectRatio="xMidYMid meet">
<metadata>
Created by potrace 1.16, written by Peter Selinger 2001-2019
</metadata>
<g transform="translate(0.000000,411.000000) scale(0.100000,-0.100000)"
fill="#000000" stroke="none">
<path d="M2190 3699 c-19 -6 -43 -19 -52 -30 -14 -17 -21 -18 -39 -9 -28 15
-102 4 -122 -18 -23 -27 -47 -79 -51 -112 -4 -37 0 -33 -59 -48 -63 -16 -61
-16 -97 17 -18 16 -41 27 -53 26 -12 -1 -29 -3 -38 -4 -20 -1 -82 -58 -99 -89
-9 -18 -17 -22 -33 -17 -86 27 -144 -17 -198 -150 -17 -43 -24 -79 -24 -126 0
-77 15 -101 73 -120 33 -11 37 -10 59 16 27 31 20 49 -24 60 -25 6 -26 7 -20
74 3 42 14 83 27 107 34 62 40 65 84 53 63 -18 98 -5 118 41 9 22 27 45 41 51
21 9 28 7 55 -20 34 -34 49 -37 104 -17 64 23 77 17 131 -58 l49 -69 -16 -34
c-22 -47 -20 -72 7 -83 23 -9 21 -10 -42 -14 -24 -2 -40 -11 -54 -30 l-20 -28
-13 23 c-7 13 -13 31 -14 40 0 17 -63 79 -79 79 -13 0 -47 -43 -60 -75 -17
-42 -50 -85 -51 -64 0 19 -31 49 -50 49 -22 0 -79 -49 -108 -93 -52 -81 -72
-131 -78 -203 -6 -68 -6 -71 20 -87 41 -28 82 2 66 48 -9 25 -5 53 22 137 25
82 43 102 57 64 26 -67 108 -33 162 68 l16 30 8 -25 c4 -13 7 -26 5 -27 -6 -9
56 -62 72 -62 24 0 78 28 78 40 0 9 20 17 59 25 13 2 31 -9 56 -36 32 -36 35
-45 34 -93 -2 -48 -4 -53 -33 -66 -29 -12 -67 -48 -128 -120 -30 -35 -35 -71
-18 -129 5 -19 8 -36 6 -39 -2 -2 -30 3 -63 12 -61 16 -109 27 -132 32 -8 1
-42 15 -75 29 -34 15 -72 31 -86 37 -65 28 -161 86 -215 130 -5 4 -27 21 -48
38 -21 16 -52 46 -68 67 -17 21 -34 40 -38 43 -5 3 -14 28 -21 56 -13 50 -12
52 18 97 34 49 38 67 22 98 -12 22 -55 26 -67 6 -4 -7 -20 -20 -36 -30 -15
-10 -27 -24 -27 -32 0 -8 -6 -15 -13 -15 -19 0 -20 -171 -1 -235 13 -44 38
-189 47 -270 7 -55 39 -190 50 -203 5 -7 11 -33 14 -58 2 -25 13 -80 24 -122
12 -42 26 -100 30 -129 5 -29 14 -64 19 -78 5 -14 9 -29 9 -33 -1 -4 0 -9 1
-12 2 -6 2 -4 35 -164 14 -71 31 -140 36 -155 10 -25 26 -96 35 -156 7 -43 34
-182 46 -235 5 -25 12 -54 14 -65 3 -11 9 -40 15 -65 6 -25 15 -70 20 -100 29
-174 44 -248 74 -375 14 -60 30 -137 35 -169 10 -63 17 -76 46 -80 14 -3 18
-11 17 -30 -1 -17 3 -26 13 -26 8 0 14 -7 14 -15 0 -8 4 -15 8 -15 5 0 46 -23
91 -50 45 -28 89 -50 97 -50 8 0 17 -7 21 -16 3 -8 12 -13 19 -10 12 4 48 -8
96 -35 10 -5 33 -9 51 -9 18 0 39 -6 45 -12 14 -14 358 -21 377 -8 6 3 19 6
30 5 11 0 30 3 42 7 13 4 42 10 65 13 57 8 70 11 89 19 10 4 23 6 30 5 8 -2
41 4 74 11 33 8 62 14 65 15 3 0 31 13 62 28 31 15 60 27 63 27 6 0 116 71
137 90 7 5 34 29 60 53 l48 42 10 95 c6 52 12 118 14 145 4 48 37 254 55 345
18 88 34 180 51 295 15 104 38 239 44 255 3 8 7 33 10 55 11 92 19 133 36 195
10 36 22 103 25 150 4 46 16 125 27 175 11 49 23 131 28 182 8 82 16 138 35
238 3 17 8 68 11 115 8 140 11 164 24 196 12 28 11 32 -14 57 -14 14 -29 40
-32 56 -4 16 -22 44 -42 62 -37 34 -105 64 -110 48 -7 -18 -22 -8 -22 14 0 13
-4 27 -9 33 -5 5 -14 26 -21 48 -13 40 -72 106 -95 106 -8 0 -20 6 -27 13 -23
21 -90 48 -181 72 -106 27 -121 23 -191 -57 -65 -75 -73 -92 -52 -123 22 -33
47 -29 66 12 8 17 27 39 42 48 15 8 33 22 41 29 18 18 85 1 188 -47 94 -44
111 -60 132 -128 27 -88 23 -140 -13 -178 -43 -44 -53 -75 -32 -94 30 -26 60
-27 84 -2 29 29 68 101 68 125 0 26 36 14 60 -21 19 -25 19 -31 6 -69 -26 -76
-56 -109 -147 -161 -15 -9 -39 -23 -53 -32 -14 -10 -32 -17 -41 -17 -8 0 -15
-3 -15 -7 0 -18 -144 -90 -170 -85 -3 0 -13 -7 -22 -15 -10 -9 -18 -13 -18 -8
0 4 -6 3 -12 -2 -28 -22 -251 -55 -363 -53 -22 0 -59 -6 -82 -14 -49 -17 -219
-20 -278 -4 -22 6 -74 14 -115 19 -114 12 -142 19 -131 33 6 7 6 29 -1 59 -9
46 -9 48 29 97 41 54 56 62 117 64 40 2 101 40 91 56 -11 18 75 62 103 53 6
-3 12 -14 12 -24 0 -39 46 -99 76 -99 7 0 12 -11 12 -27 -2 -78 31 -127 89
-135 29 -4 33 -1 39 24 4 20 1 35 -10 47 -21 23 -30 62 -29 124 2 93 42 136
118 124 25 -4 41 0 59 14 39 30 58 14 60 -50 2 -61 24 -87 66 -76 14 4 43 9
65 10 51 5 65 8 93 24 13 6 41 13 63 14 49 3 57 -8 55 -78 -2 -80 32 -115 77
-80 17 12 18 25 15 105 -4 81 -8 94 -30 117 -34 34 -125 43 -183 18 -22 -9
-61 -18 -87 -20 l-48 -2 0 32 c0 32 -34 73 -87 104 -12 7 -14 13 -7 18 40 29
11 113 -65 191 -28 28 -51 49 -51 46 0 -4 -7 0 -16 7 -9 7 -32 19 -50 25 -31
10 -38 9 -69 -12 l-35 -23 -43 18 -44 19 7 48 c7 57 34 107 65 124 19 10 28 9
50 -6 31 -20 45 -24 93 -25 27 -1 45 -12 90 -57 60 -61 98 -75 119 -46 23 32
15 59 -31 102 -25 23 -47 42 -50 42 -3 0 -17 11 -32 25 -20 19 -38 25 -71 25
-24 0 -61 9 -83 20 -22 11 -45 20 -53 20 -24 0 -74 -29 -105 -61 l-29 -30 -15
23 c-8 13 -27 51 -43 85 -15 35 -31 60 -35 58 -4 -3 -10 2 -14 10 -6 17 -16
17 -66 4z m30 -113 c0 -7 6 -26 14 -42 8 -16 19 -41 25 -56 7 -20 18 -28 34
-28 33 0 35 -4 27 -56 -6 -39 -4 -47 14 -59 l20 -15 -22 0 c-42 0 -148 -135
-166 -212 -7 -32 8 -78 26 -78 16 1 68 68 68 87 0 24 31 76 58 97 31 25 74 22
114 -7 l28 -21 46 22 c28 14 54 20 67 16 29 -9 117 -100 117 -121 0 -10 6 -30
14 -45 13 -24 12 -28 -4 -43 -12 -10 -38 -18 -67 -19 -70 -3 -140 -40 -158
-83 -8 -20 -15 -44 -15 -54 0 -33 -17 -21 -24 17 -10 49 -38 74 -85 74 -42 0
-101 -17 -101 -30 0 -4 -8 -10 -17 -14 -10 -3 -24 -9 -30 -12 -10 -4 -13 8
-13 44 0 41 -6 57 -35 95 -19 25 -51 55 -70 67 -32 20 -34 24 -22 39 39 43 54
142 26 174 -5 7 -26 39 -46 71 -31 49 -36 67 -34 105 1 25 10 54 18 64 18 19
48 23 58 7 11 -18 50 -11 85 15 33 24 50 25 50 1z m-974 -853 c34 -30 35 -31
115 -84 80 -53 243 -134 286 -142 10 -2 25 -7 33 -10 44 -17 217 -55 290 -63
77 -9 169 -24 237 -38 70 -15 287 -16 323 -2 21 8 96 16 310 30 36 2 95 16
132 29 36 14 69 23 72 20 3 -3 17 4 31 16 15 11 43 23 62 27 19 4 37 13 40 20
3 8 13 14 23 14 10 0 20 4 22 8 2 5 44 33 93 63 50 29 109 71 133 93 l42 39 0
-70 c0 -38 -9 -111 -20 -162 -11 -51 -22 -134 -25 -184 -6 -97 -18 -165 -40
-233 -8 -22 -15 -79 -16 -125 -1 -46 -6 -90 -11 -96 -6 -7 -11 -27 -13 -45 -1
-18 -7 -45 -13 -59 -5 -14 -15 -66 -21 -116 -11 -86 -22 -156 -36 -213 -6 -23
-16 -75 -45 -230 -6 -36 -18 -105 -26 -155 -8 -49 -21 -121 -29 -160 -8 -38
-16 -90 -19 -115 -10 -90 -26 -162 -37 -176 -7 -9 -9 -31 -6 -55 5 -35 2 -45
-18 -63 -99 -91 -127 -114 -171 -135 -80 -38 -87 -41 -139 -51 -27 -5 -61 -12
-75 -15 -13 -2 -42 -7 -65 -11 -22 -3 -51 -8 -65 -10 -14 -3 -41 -7 -60 -9
-19 -3 -62 -10 -94 -15 -48 -7 -167 -13 -231 -11 -14 0 -163 37 -200 49 -46
15 -129 52 -135 61 -3 4 -21 14 -41 24 -19 9 -53 30 -74 47 -21 17 -44 29 -51
26 -8 -3 -16 21 -24 72 -7 42 -16 84 -20 92 -4 8 -10 29 -13 45 -3 17 -10 42
-15 56 -11 27 -29 114 -38 184 -3 22 -10 58 -16 80 -6 22 -12 54 -15 70 -2 17
-11 59 -19 95 -13 62 -61 294 -84 410 -7 30 -16 71 -21 90 -10 41 -36 154 -51
225 -5 28 -19 86 -30 130 -11 44 -25 114 -30 155 -5 41 -13 77 -18 80 -4 3
-11 21 -14 40 -12 59 -36 163 -47 204 -6 22 -12 51 -14 65 -2 14 -9 49 -15 76
-18 78 -28 145 -21 145 4 0 20 -12 37 -27z"/>
<path d="M4540 1409 c-33 -12 -50 -25 -62 -50 -19 -38 -23 -111 -8 -139 9 -16
5 -26 -19 -51 -17 -17 -37 -53 -46 -80 -16 -46 -16 -51 2 -86 10 -21 36 -50
58 -65 39 -27 52 -29 113 -15 13 4 22 1 22 -5 0 -6 3 -8 6 -5 4 3 16 0 28 -8
11 -8 28 -15 38 -15 10 0 18 -6 18 -14 0 -20 78 -49 115 -42 30 6 87 62 91 91
5 32 27 91 38 100 30 25 65 102 66 145 1 81 0 89 -11 95 -6 4 -14 18 -19 31
-16 40 -82 74 -145 74 -30 0 -55 4 -55 8 0 5 -18 18 -40 31 -47 26 -119 26
-190 0z m153 -76 c4 -3 2 -11 -3 -18 -7 -8 -3 -19 11 -33 23 -26 31 -27 67 -8
30 15 53 15 98 -3 23 -9 34 -22 43 -51 16 -54 -1 -120 -30 -120 -11 0 -21 -6
-23 -12 -22 -82 -28 -107 -33 -128 -11 -47 -54 -54 -85 -15 -11 14 -28 25 -38
25 -10 0 -34 9 -52 19 -29 17 -39 18 -82 9 -46 -10 -51 -9 -68 12 -33 41 -19
77 45 114 24 15 61 26 87 27 25 1 55 7 67 12 18 8 20 13 11 33 -8 17 -22 25
-53 29 -23 4 -50 5 -61 4 -30 -5 -44 9 -44 47 0 30 5 37 33 49 33 15 99 20
110 8z"/>
<path d="M4033 1011 c-29 -10 -71 -30 -94 -46 -23 -15 -58 -29 -79 -31 -49 -4
-118 -35 -153 -68 -15 -14 -31 -26 -35 -26 -4 -1 -27 -21 -52 -45 -25 -25 -48
-45 -52 -45 -5 0 -8 -9 -8 -19 0 -11 -4 -22 -10 -26 -9 -6 -1 -37 21 -81 12
-24 71 -48 115 -46 29 1 33 -2 38 -32 11 -59 73 -116 126 -116 11 0 33 -13 48
-30 27 -29 27 -29 67 -14 22 8 57 17 77 18 20 2 51 15 69 29 l33 26 34 -21
c28 -17 37 -18 61 -8 67 27 98 90 100 203 2 64 -2 85 -19 113 -12 19 -25 34
-29 34 -4 0 -24 15 -44 34 l-37 34 25 23 c13 13 25 30 25 38 0 8 -21 38 -46
67 -42 50 -49 54 -87 53 -23 0 -66 -8 -94 -18z m111 -86 c18 -14 18 -15 -8
-45 -33 -40 -33 -73 0 -95 18 -12 24 -23 21 -37 -3 -11 -1 -31 5 -44 14 -30
68 -47 83 -27 17 22 11 -108 -6 -140 l-15 -29 -25 26 c-32 34 -64 33 -95 -3
-21 -25 -84 -59 -84 -45 0 3 -9 0 -19 -6 -17 -8 -20 -6 -26 20 -9 40 -28 38
-62 -6 -26 -35 -28 -35 -37 -15 -5 11 -16 21 -24 21 -12 0 -11 5 6 20 26 25
28 57 5 89 -16 23 -15 25 8 43 46 35 50 40 47 56 -6 27 -109 18 -155 -14 -20
-13 -41 -24 -47 -25 -6 0 -25 -2 -43 -4 -23 -4 -33 0 -38 13 -7 19 69 96 144
144 45 28 98 37 117 18 7 -7 21 -2 45 15 32 23 115 67 149 78 24 9 34 7 54 -8z"/>
</g>
</svg>
