<?xml version="1.0" standalone="no"?>
<!DOCTYPE svg PUBLIC "-//W3C//DTD SVG 20010904//EN"
 "http://www.w3.org/TR/2001/REC-SVG-20010904/DTD/svg10.dtd">
<svg version="1.0" xmlns="http://www.w3.org/2000/svg"
 width="187.000000pt" height="164.000000pt" viewBox="0 0 187.000000 164.000000"
 preserveAspectRatio="xMidYMid meet">
<metadata>
Created by potrace 1.16, written by Peter Selinger 2001-2019
</metadata>
<g transform="translate(0.000000,164.000000) scale(0.100000,-0.100000)"
fill="#000000" stroke="none">
<path d="M1721 1583 c-23 -5 -179 -102 -210 -131 -8 -7 -55 -41 -105 -74 -98
-66 -280 -195 -336 -238 -25 -20 -41 -25 -55 -20 -130 47 -379 -11 -557 -131
-83 -56 -204 -180 -248 -254 -34 -58 -35 -62 -35 -165 l0 -105 45 -77 c49 -84
140 -188 165 -188 9 0 34 -9 56 -21 90 -45 205 -21 420 86 183 92 360 247 399
350 22 59 22 61 6 145 -13 63 -26 98 -53 138 -58 85 -89 61 -35 -27 16 -25 37
-75 47 -109 34 -116 0 -185 -160 -318 -149 -126 -398 -244 -511 -244 -64 0
-176 46 -220 89 -37 37 -109 149 -102 157 3 2 25 -3 49 -11 24 -9 76 -17 114
-17 160 -3 406 123 580 296 105 104 155 186 155 254 0 20 3 23 12 14 19 -19
27 -14 36 21 7 29 22 39 162 114 85 45 187 102 225 127 141 92 255 215 255
276 0 44 -46 72 -99 63z m49 -48 c23 -27 1 -68 -78 -145 -78 -75 -196 -154
-307 -206 -116 -53 -217 -117 -236 -147 l-18 -31 -10 26 c-5 13 -17 32 -26 42
-14 13 -15 19 -4 32 18 22 138 107 509 363 79 54 120 76 151 80 4 1 12 -6 19
-14z m-784 -450 c88 -36 104 -54 104 -122 0 -56 -38 -119 -125 -208 -101 -103
-238 -196 -365 -248 -19 -8 -48 -20 -65 -27 -57 -23 -128 -29 -191 -15 -122
26 -134 39 -134 138 0 58 4 70 40 125 82 128 183 214 342 294 142 71 307 97
394 63z"/>
</g>
</svg>
