<?xml version="1.0" standalone="no"?>
<!DOCTYPE svg PUBLIC "-//W3C//DTD SVG 20010904//EN"
 "http://www.w3.org/TR/2001/REC-SVG-20010904/DTD/svg10.dtd">
<svg version="1.0" xmlns="http://www.w3.org/2000/svg"
 width="501.000000pt" height="345.000000pt" viewBox="0 0 501.000000 345.000000"
 preserveAspectRatio="xMidYMid meet">
<metadata>
Created by potrace 1.16, written by Peter Selinger 2001-2019
</metadata>
<g transform="translate(0.000000,345.000000) scale(0.100000,-0.100000)"
fill="#000000" stroke="none">
<path d="M4609 3146 c-2 -2 -33 -7 -68 -10 -35 -4 -72 -11 -83 -17 -11 -6 -27
-7 -36 -3 -9 4 -19 7 -22 6 -3 0 -37 -3 -75 -7 -108 -9 -126 -14 -187 -56 -32
-22 -64 -39 -72 -39 -8 0 -16 -5 -18 -10 -3 -10 -67 10 -135 42 -24 12 -93 2
-93 -12 0 -6 -9 -1 -20 10 -22 22 -87 22 -100 0 -5 -7 -17 -14 -28 -15 -11 -1
-26 -6 -34 -12 -7 -5 -42 -25 -78 -42 -36 -18 -91 -46 -122 -62 -31 -16 -61
-29 -67 -29 -6 0 -20 -9 -31 -20 -11 -11 -32 -23 -47 -26 -32 -8 -102 -37
-153 -65 -19 -10 -55 -29 -80 -41 -25 -13 -46 -26 -48 -30 -2 -5 -10 -8 -18
-8 -8 0 -14 -4 -14 -10 0 -5 -4 -10 -9 -10 -5 0 -26 -8 -47 -17 -22 -9 -42
-17 -46 -17 -4 -1 -13 -7 -20 -13 -6 -7 -17 -13 -24 -13 -7 0 -14 -4 -16 -8
-4 -11 -113 -62 -132 -62 -8 0 -18 -5 -21 -11 -6 -9 -147 -79 -160 -79 -4 0
-19 -8 -33 -19 -15 -10 -63 -32 -107 -50 -43 -17 -86 -37 -95 -44 -8 -7 -35
-22 -60 -32 -25 -11 -63 -30 -85 -44 -22 -13 -62 -35 -90 -47 -27 -13 -95 -49
-150 -79 -55 -30 -116 -62 -135 -71 -18 -9 -52 -30 -75 -48 -36 -28 -58 -41
-130 -80 -11 -6 -29 -19 -40 -28 -25 -21 -134 -81 -197 -109 -27 -12 -48 -25
-48 -30 0 -5 -9 -9 -19 -9 -11 0 -21 -4 -23 -8 -1 -5 -24 -23 -50 -40 -26 -18
-52 -41 -57 -50 -5 -10 -21 -24 -35 -32 -14 -7 -26 -19 -26 -27 0 -7 -4 -13
-9 -13 -14 0 -56 -81 -71 -136 -14 -55 -22 -267 -10 -298 6 -16 -1 -26 -31
-48 -21 -15 -51 -30 -66 -34 -32 -8 -125 -65 -166 -103 -15 -13 -27 -21 -27
-17 0 4 -14 -6 -31 -23 -17 -17 -35 -29 -40 -25 -5 3 -9 1 -9 -5 0 -5 -10 -20
-22 -34 -22 -24 -63 -128 -98 -246 -12 -38 -32 -77 -49 -95 -59 -63 -85 -145
-69 -220 8 -38 14 -45 57 -64 52 -24 105 -28 164 -11 21 5 57 12 80 15 49 5
81 10 85 14 2 3 7 4 47 14 82 20 112 34 158 77 28 26 58 61 66 78 25 48 104
161 113 161 4 0 8 7 8 16 0 16 46 109 65 130 5 6 16 21 24 32 14 20 16 20 45
5 32 -17 87 -53 96 -64 11 -14 119 -46 165 -50 110 -8 180 -4 217 14 20 9 63
18 95 20 47 2 68 9 108 37 28 18 52 36 55 40 3 3 21 14 40 23 19 10 46 26 60
36 97 72 350 226 350 214 0 -4 4 -3 8 2 11 15 70 55 82 55 5 0 10 5 10 10 0 6
6 10 14 10 15 0 159 95 236 155 25 19 52 38 60 42 8 4 21 13 29 20 22 22 129
93 140 93 5 0 14 6 18 13 8 13 63 42 74 39 4 -1 17 10 29 23 13 14 29 25 35
25 7 0 33 16 59 35 25 20 46 33 46 29 0 -4 8 0 18 8 9 9 33 25 53 36 71 39 84
47 89 52 3 3 21 13 40 24 73 39 126 70 165 95 22 15 52 33 67 40 15 8 36 22
45 31 10 9 37 27 60 40 60 36 187 124 191 133 2 4 10 7 18 7 8 0 14 3 14 8 0
4 26 27 57 52 102 81 170 158 189 214 17 53 20 76 23 184 1 55 4 64 24 71 12
5 31 20 43 33 12 14 30 31 41 39 21 15 64 70 85 109 36 65 82 130 92 130 6 0
24 19 39 42 34 52 32 122 -3 150 -13 10 -20 24 -16 33 5 14 -5 21 -15 11z
m-45 -121 c5 -14 -27 -54 -56 -71 -8 -5 -27 -31 -42 -59 -49 -93 -63 -114
-102 -154 -46 -46 -72 -54 -88 -26 -6 11 -14 22 -17 25 -4 3 -16 23 -28 45
-11 23 -41 62 -66 87 -25 26 -45 52 -45 58 0 6 12 16 28 22 15 7 42 23 60 37
31 23 43 25 151 26 64 1 125 6 135 12 26 14 64 13 70 -2z m-742 -56 c2 -6 27
-17 56 -24 54 -14 62 -19 116 -72 18 -18 38 -33 44 -33 6 0 17 -10 23 -22 7
-13 18 -29 26 -36 7 -7 13 -20 13 -27 0 -7 10 -22 23 -32 26 -22 62 -91 77
-153 13 -48 8 -149 -8 -191 -6 -15 -9 -29 -6 -31 2 -3 -22 -28 -53 -57 -32
-28 -72 -65 -90 -81 -17 -17 -36 -30 -42 -30 -6 0 -11 -3 -11 -7 0 -5 -17 -19
-38 -33 -20 -14 -47 -34 -59 -45 -13 -11 -40 -29 -60 -40 -21 -11 -40 -23 -43
-26 -3 -4 -52 -37 -110 -75 -58 -37 -107 -70 -110 -73 -3 -4 -18 -13 -35 -21
-16 -8 -32 -17 -35 -20 -5 -5 -54 -31 -125 -68 -16 -8 -32 -19 -35 -22 -3 -4
-16 -11 -30 -15 -14 -4 -27 -11 -30 -15 -3 -4 -34 -26 -70 -48 -172 -108 -236
-148 -250 -153 -13 -6 -91 -61 -165 -117 -5 -4 -28 -19 -50 -32 -22 -13 -44
-28 -50 -32 -5 -4 -23 -18 -40 -31 -31 -24 -227 -143 -300 -183 -55 -29 -93
-53 -156 -96 -30 -20 -72 -45 -94 -55 -22 -10 -48 -26 -58 -37 -28 -27 -37 -4
-21 52 16 53 18 132 4 199 -6 26 -12 62 -14 78 -2 17 -8 41 -14 55 -6 14 -19
51 -27 83 -9 31 -21 57 -26 57 -5 0 -9 7 -9 15 0 8 -11 25 -24 36 -13 12 -27
32 -30 45 -4 13 -11 24 -16 24 -5 0 -22 14 -37 31 -16 17 -45 41 -67 53 -80
44 -88 48 -100 50 -6 1 -20 7 -31 13 -20 11 -129 44 -152 45 -7 1 -13 4 -13 7
1 7 79 57 106 68 18 7 28 14 57 39 7 6 44 28 82 49 39 22 71 43 73 47 2 4 8 8
14 8 5 0 24 10 41 22 18 13 34 23 37 24 3 0 49 21 102 47 54 26 99 47 101 47
3 0 34 20 70 44 36 24 92 54 124 66 32 12 72 30 89 41 17 10 39 19 48 19 9 0
16 5 16 10 0 6 11 10 25 10 14 0 25 4 25 9 0 5 13 12 30 16 16 4 32 11 36 16
3 5 22 17 42 27 20 10 46 23 57 29 35 20 114 53 126 53 6 0 23 8 37 18 15 11
81 45 147 78 66 32 122 61 125 64 11 11 51 30 64 30 7 0 25 9 39 20 14 11 31
20 38 20 22 0 311 139 317 153 2 4 9 7 15 7 7 0 54 20 105 45 51 25 100 45
108 45 8 0 17 7 20 15 7 17 31 20 36 4z m-2489 -1285 c3 -3 29 -7 57 -9 28 -1
56 -7 63 -14 6 -6 20 -11 30 -11 35 0 157 -42 193 -66 19 -13 38 -24 42 -24
11 0 106 -92 134 -130 28 -39 76 -173 83 -235 18 -146 -5 -249 -72 -320 -23
-25 -45 -45 -50 -45 -5 0 -16 -9 -26 -20 -9 -11 -25 -20 -35 -20 -10 0 -23 -5
-29 -11 -19 -19 -203 -13 -255 8 -24 9 -47 20 -53 25 -33 25 -85 74 -85 80 0
16 97 55 139 57 47 1 70 12 113 56 51 50 51 160 0 266 -41 88 -78 118 -159
132 -79 14 -114 0 -120 -48 -2 -16 -10 -35 -18 -41 -8 -6 -15 -27 -15 -46 0
-40 -16 -51 -100 -66 -98 -17 -108 -16 -116 21 -20 83 -9 187 26 257 24 47
124 145 150 146 19 1 29 9 73 51 14 14 21 16 30 7z m119 -410 c17 -6 38 -48
44 -87 2 -12 8 -41 13 -65 6 -29 5 -45 -3 -50 -18 -11 -56 -31 -57 -29 0 1 -2
22 -5 47 -3 25 -13 52 -23 60 -35 31 -50 62 -41 85 5 13 6 25 3 29 -3 3 -3 12
0 20 5 12 11 13 29 6 13 -6 31 -13 40 -16z m-142 -169 c6 -8 16 -30 20 -50 7
-33 6 -36 -29 -57 -44 -27 -135 -123 -176 -186 -16 -25 -38 -57 -47 -71 -10
-14 -22 -37 -28 -51 -5 -14 -14 -32 -20 -40 -5 -8 -25 -43 -45 -78 -37 -64
-101 -136 -145 -164 -14 -9 -44 -19 -68 -22 -24 -3 -48 -9 -54 -12 -6 -4 -21
-8 -32 -10 -12 -2 -57 -8 -101 -15 -87 -13 -129 -8 -139 16 -9 25 17 77 68
134 25 28 47 61 47 71 2 30 2 30 34 125 26 79 37 97 88 148 32 32 68 63 80 68
12 6 38 20 58 32 112 67 148 87 159 87 7 0 41 14 77 31 38 18 95 35 136 41 40
5 74 12 76 14 9 9 29 3 41 -11z"/>
</g>
</svg>
