<?xml version="1.0" standalone="no"?>
<!DOCTYPE svg PUBLIC "-//W3C//DTD SVG 20010904//EN"
 "http://www.w3.org/TR/2001/REC-SVG-20010904/DTD/svg10.dtd">
<svg version="1.0" xmlns="http://www.w3.org/2000/svg"
 width="557.000000pt" height="503.000000pt" viewBox="0 0 557.000000 503.000000"
 preserveAspectRatio="xMidYMid meet">
<metadata>
Created by potrace 1.16, written by Peter Selinger 2001-2019
</metadata>
<g transform="translate(0.000000,503.000000) scale(0.100000,-0.100000)"
fill="#000000" stroke="none">
<path d="M663 4848 c67 -101 138 -209 156 -240 18 -32 36 -58 39 -58 4 0 12
-9 17 -19 6 -11 37 -59 70 -106 95 -137 114 -169 108 -178 -3 -4 -4 -122 -2
-260 4 -380 -1 -1353 -11 -1911 -1 -32 -7 -77 -15 -100 -18 -52 -26 -308 -31
-991 -5 -623 -6 -596 7 -611 6 -7 23 -17 38 -22 25 -9 30 -7 46 20 12 21 17
50 16 96 0 37 0 249 1 472 1 223 1 443 0 489 l-2 85 42 -40 c22 -21 57 -57 77
-78 20 -22 89 -94 154 -160 64 -67 120 -129 123 -138 3 -10 9 -18 14 -18 16 0
472 -470 500 -516 8 -13 20 -24 26 -24 6 0 38 -30 70 -66 32 -36 103 -110 157
-164 53 -54 97 -103 97 -108 0 -19 55 -18 75 1 19 18 42 19 620 13 330 -4 827
-9 1105 -11 433 -3 817 -11 847 -16 4 -1 13 -1 18 0 37 7 281 -2 291 -10 12
-10 42 -2 61 16 7 8 10 45 7 116 -5 123 -11 166 -25 171 -5 2 -11 10 -13 18
-8 41 -19 70 -27 70 -7 0 -89 116 -114 162 -5 10 -13 18 -17 18 -4 0 -20 24
-34 53 -32 64 -111 181 -175 262 -114 142 -136 170 -167 214 -19 25 -46 60
-62 76 -15 17 -44 54 -64 83 -20 28 -46 64 -59 78 -12 14 -32 44 -44 67 -13
23 -23 38 -23 32 0 -5 -9 1 -20 13 -11 12 -20 25 -20 31 0 5 -7 11 -15 15 -8
3 -15 10 -15 15 0 5 -16 27 -35 48 -19 21 -35 44 -35 51 0 6 -4 12 -8 12 -5 0
-17 17 -28 38 -10 20 -22 40 -27 43 -8 6 -20 735 -21 1214 0 412 11 1037 20
1060 4 11 14 28 22 37 8 10 17 38 19 62 4 39 2 46 -24 64 -17 12 -45 49 -63
84 -18 35 -44 77 -57 94 -13 17 -23 34 -23 39 0 4 -15 31 -34 59 -41 63 -133
219 -154 263 -18 36 -63 53 -87 33 -36 -30 -19 -73 136 -333 16 -27 29 -50 29
-53 0 -2 19 -34 43 -71 24 -38 49 -78 56 -91 l12 -23 -83 0 c-46 0 -90 0 -98
0 -34 -2 -1313 12 -1515 17 -121 3 -485 7 -810 10 l-589 5 -53 77 c-29 42 -60
86 -68 97 -36 45 -295 423 -295 430 0 3 -10 21 -22 40 -23 34 -24 35 -91 35
l-67 0 123 -182z m1542 -612 c116 -4 381 -8 590 -11 209 -3 567 -8 795 -12
228 -4 472 -7 542 -7 l127 0 -5 -426 c-8 -656 -9 -891 -6 -945 1 -27 0 -230
-3 -450 -4 -220 -6 -410 -6 -422 1 -17 -7 -24 -27 -29 -15 -4 -31 -10 -37 -14
-5 -4 -23 -6 -40 -4 -16 1 -54 3 -83 3 -49 1 -52 2 -47 24 9 35 8 75 -11 537
-10 224 -13 1111 -4 1165 9 62 6 71 -33 85 -38 14 -152 17 -987 24 -769 6
-1226 14 -1335 23 -121 9 -136 8 -186 -16 l-45 -21 0 -373 c1 -204 -1 -597 -3
-872 -3 -275 -3 -507 0 -515 2 -8 10 -20 18 -26 10 -8 -27 -10 -133 -10 l-146
1 0 70 c-3 351 0 1871 3 2015 2 102 7 193 11 203 8 16 35 17 425 13 229 -3
511 -7 626 -10z m275 -581 c118 -2 478 -7 799 -10 320 -3 588 -7 595 -8 12 -2
24 -216 18 -314 l-4 -53 -55 0 -56 0 6 38 c3 20 8 46 11 58 12 56 10 105 -7
124 -9 11 -17 24 -17 28 0 18 -26 61 -43 72 -19 12 -110 15 -157 5 -14 -2 -50
-10 -80 -16 -30 -6 -73 -15 -95 -22 -47 -13 -52 -14 -62 -16 -5 0 -23 -23 -41
-49 -28 -41 -33 -57 -33 -108 0 -32 -2 -71 -5 -86 -5 -26 -9 -28 -59 -28 -62
0 -62 0 -64 145 -2 100 -16 135 -53 132 -20 -1 -60 -27 -42 -27 3 0 1 -6 -5
-14 -10 -12 -8 -19 10 -37 17 -17 23 -36 25 -73 2 -28 5 -68 9 -88 l5 -38
-176 0 -177 0 7 53 c17 134 17 137 48 158 35 25 96 41 104 27 3 -5 12 -1 19 9
13 17 15 17 43 1 17 -10 37 -18 46 -18 20 0 34 26 28 56 -9 51 -129 56 -238
11 -52 -21 -62 -30 -83 -73 -16 -33 -27 -77 -32 -134 -4 -47 -8 -86 -8 -87 -1
-2 -37 -3 -80 -3 -67 0 -80 3 -84 18 -7 25 -25 111 -32 156 -4 21 -14 51 -22
65 -23 37 -73 81 -92 81 -20 0 -60 -26 -82 -55 -9 -11 -26 -31 -38 -44 -12
-13 -21 -31 -21 -39 0 -9 -12 -53 -26 -99 l-26 -83 -48 0 c-56 0 -53 -6 -71
138 l-12 94 -53 35 c-53 35 -54 36 -101 23 -70 -20 -99 -52 -118 -129 -22 -90
-36 -134 -46 -147 -5 -6 -35 -9 -71 -7 -35 1 -80 3 -101 4 l-38 2 1 180 c1 99
4 187 7 195 6 15 56 15 973 -3z m1220 -154 c0 -10 9 -27 20 -39 22 -23 27 -90
10 -122 -6 -10 -11 -30 -12 -44 l-2 -25 -198 1 c-211 0 -217 2 -199 51 5 12 7
40 6 62 -3 43 8 65 41 83 33 17 163 44 190 39 13 -2 24 -1 24 4 0 9 74 16 103
10 9 -2 17 -11 17 -20z m-1327 -19 c9 -9 21 -40 27 -67 7 -28 16 -66 21 -86
15 -60 17 -59 -96 -59 -58 0 -105 2 -105 5 0 2 13 41 29 85 45 124 86 164 124
122z m-411 -22 c10 -12 18 -30 19 -39 1 -47 7 -99 14 -123 7 -26 5 -28 -23
-28 -26 0 -29 3 -24 25 4 22 1 25 -22 25 -21 0 -26 -5 -26 -24 0 -22 -3 -23
-60 -22 -56 1 -60 3 -55 21 3 11 8 36 11 55 10 69 14 78 45 108 25 25 38 30
67 27 23 -2 43 -12 54 -25z m-293 -260 c33 0 33 0 26 -37 -4 -21 -13 -45 -20
-53 -8 -9 -11 -30 -9 -52 l4 -38 -70 0 c-66 0 -70 -1 -76 -26 -4 -14 -2 -30 4
-36 6 -6 132 -10 341 -10 309 -1 333 -2 356 -20 22 -17 27 -17 68 -3 33 11 91
15 212 16 91 1 169 -2 172 -5 3 -3 10 -3 14 0 17 10 1183 3 1194 -7 9 -10 13
-114 6 -165 -4 -28 -4 -61 0 -72 4 -11 10 -110 13 -221 l5 -201 -34 0 c-18 0
-41 -3 -51 -7 -14 -5 -16 -2 -10 28 21 109 32 254 23 290 -3 14 -9 58 -13 99
-7 84 -52 180 -84 180 -18 0 -42 -23 -46 -44 -2 -6 -14 -47 -29 -91 -14 -44
-28 -96 -31 -115 -3 -19 -9 -44 -14 -55 -4 -11 -17 -40 -28 -65 -11 -25 -30
-67 -41 -95 -12 -27 -26 -52 -30 -55 -5 -3 -15 -20 -23 -39 -14 -34 -14 -34
-78 -35 l-65 -1 3 206 c3 145 0 219 -9 250 -7 24 -14 58 -15 75 -2 43 -20 73
-48 80 -55 14 -81 -13 -91 -94 -3 -23 -16 -72 -30 -110 -14 -38 -25 -77 -25
-86 0 -9 -4 -16 -10 -16 -5 0 -13 -12 -16 -27 -4 -16 -10 -30 -14 -33 -3 -3
-19 -36 -35 -75 -27 -66 -54 -105 -72 -105 -5 0 -10 -12 -11 -26 -1 -14 -4
-29 -6 -33 -3 -4 -44 -8 -93 -9 -48 -1 -110 -5 -137 -8 -39 -5 -47 -4 -40 7 5
8 10 19 11 24 1 6 7 28 13 50 26 94 31 136 30 245 -1 179 -13 270 -36 270 -7
0 -17 6 -21 13 -4 8 -20 22 -35 31 -45 29 -61 9 -93 -120 -15 -63 -32 -114
-36 -114 -5 0 -9 -6 -9 -13 0 -8 -9 -24 -20 -36 -10 -13 -27 -44 -37 -70 -9
-25 -20 -48 -23 -51 -3 -3 -33 -45 -65 -93 -109 -160 -80 -142 -226 -143
l-128 -1 15 36 c9 20 17 41 18 46 2 6 6 22 10 37 10 35 15 74 22 181 4 48 11
87 16 87 5 0 5 7 0 18 -4 9 -9 46 -10 82 -3 75 -11 124 -20 116 -3 -3 -12 0
-21 7 -9 8 -23 17 -32 20 -23 8 -78 -28 -90 -60 -6 -15 -15 -34 -22 -41 -6 -8
-12 -23 -14 -34 -4 -25 -35 -78 -45 -78 -4 0 -7 -3 -6 -7 4 -12 -33 -103 -61
-153 -14 -25 -39 -71 -56 -103 -16 -32 -38 -67 -47 -77 -10 -11 -18 -26 -18
-33 0 -26 -25 -36 -84 -34 -37 2 -64 -2 -71 -10 -10 -10 -14 -7 -19 13 -7 25
-5 721 2 860 l4 72 40 0 c22 1 43 4 46 7 4 3 16 4 27 1 11 -3 35 -6 54 -6z
m334 -69 c-2 -35 -5 -67 -9 -72 -6 -11 -249 -8 -260 4 -16 16 36 51 93 63 48
9 62 9 80 -2 12 -8 28 -14 36 -14 42 0 41 66 -1 77 -24 6 -24 7 -7 13 11 4 31
4 45 0 24 -6 25 -10 23 -69z m154 25 c-3 -22 -9 -57 -12 -77 -5 -27 -3 -40 10
-53 17 -16 15 -17 -36 -14 l-54 3 -2 85 c-2 47 -1 90 1 95 2 6 24 9 51 7 l47
-4 -5 -42z m-327 40 c0 -2 -18 -6 -40 -8 -22 -2 -40 0 -40 4 0 5 18 8 40 8 22
0 40 -2 40 -4z m607 -9 c0 -9 -19 -12 -66 -11 -60 1 -90 -3 -131 -20 -11 -5
-16 0 -18 19 l-2 25 108 0 c82 0 109 -3 109 -13z m236 -52 c4 -43 14 -76 27
-95 l20 -29 -132 0 c-103 0 -128 3 -110 11 24 12 28 33 23 126 l-3 52 85 0 84
0 6 -65z m202 58 c-11 -3 -25 -10 -32 -15 -7 -5 -16 -7 -22 -4 -5 3 -19 -2
-31 -12 -18 -14 -21 -23 -14 -43 4 -13 7 -27 6 -30 0 -3 12 -6 28 -5 17 1 30
4 30 7 0 12 111 29 128 20 17 -9 24 -11 43 -11 5 0 8 -4 5 -9 -11 -17 -173
-43 -213 -34 -37 8 -72 82 -64 136 1 4 36 6 79 6 42 -1 68 -4 57 -6z m161 -5
c6 -10 -23 -9 -56 2 -21 7 -20 8 13 7 21 -1 41 -5 43 -9z m53 -36 c1 -10 -3
-10 -18 0 -21 13 -23 28 -6 40 10 7 23 -14 24 -40z m166 26 c3 -13 7 -34 9
-48 3 -27 12 -54 27 -82 5 -10 9 -22 9 -27 0 -5 -54 -10 -126 -10 l-125 -1 28
26 c23 21 29 23 31 10 4 -17 27 -22 36 -8 3 5 6 40 7 78 1 38 7 72 13 76 6 4
28 8 48 8 31 0 39 -4 43 -22z m133 6 c-21 -9 -38 -24 -42 -37 -3 -12 -7 -19
-10 -16 -6 6 -15 56 -11 61 2 1 25 4 52 5 l48 3 -37 -16z m488 1 c7 -2 12 -37
13 -89 2 -95 8 -88 -74 -88 -109 0 -140 3 -120 12 22 9 56 46 59 64 1 6 5 16
8 21 4 6 3 17 -3 25 -5 8 -9 27 -9 41 0 26 1 27 58 22 31 -2 62 -5 68 -8z
m-275 -56 c11 -6 33 -11 50 -11 16 -1 29 -5 29 -10 0 -5 -4 -7 -9 -4 -5 4 -11
1 -13 -5 -8 -23 -212 -48 -258 -31 -23 8 -23 9 9 31 17 13 37 21 44 18 7 -3
24 1 38 9 29 16 83 18 110 3z m-1205 -36 c7 -10 14 -24 14 -31 0 -17 -64 -43
-121 -49 -42 -4 -47 -2 -52 19 -8 31 20 59 70 68 61 12 75 11 89 -7z m286
-331 c15 -39 20 -237 7 -302 -5 -30 -12 -66 -15 -80 -5 -30 -45 -112 -58 -122
-6 -4 -63 -6 -127 -5 l-117 1 51 76 c29 41 54 77 57 80 3 3 11 17 19 33 8 15
18 27 23 27 4 0 8 9 8 20 0 18 25 70 71 145 10 17 20 42 22 55 10 52 32 108
40 103 4 -3 13 -17 19 -31z m-649 7 c3 -12 5 -83 3 -158 -2 -122 -9 -166 -37
-236 -4 -11 -10 -36 -13 -56 -10 -58 -28 -67 -126 -63 -47 2 -96 3 -109 4 -20
0 -22 2 -10 16 7 9 15 25 16 37 2 12 10 28 18 37 8 8 39 69 70 135 30 66 66
141 80 167 14 27 25 52 25 58 0 21 45 80 61 80 9 0 19 -10 22 -21z m1262 -304
c-2 -99 -5 -185 -6 -192 -2 -8 -40 -11 -126 -11 -120 0 -124 0 -108 18 23 26
121 229 139 288 8 27 21 63 30 80 8 16 18 45 22 63 3 19 7 41 9 49 2 8 4 20 5
25 1 6 10 -24 20 -65 15 -62 18 -106 15 -255z m462 204 c1 -24 6 -66 11 -93 6
-27 8 -63 6 -80 -2 -17 -6 -56 -8 -86 -12 -130 -18 -140 -80 -140 -30 0 -68
-3 -85 -6 -26 -5 -31 -3 -31 13 0 10 6 27 13 38 7 11 22 43 32 70 10 28 26 62
37 77 10 15 27 59 37 97 9 39 20 74 24 78 4 3 7 16 7 29 0 66 34 69 37 3z
m-2160 -482 c40 2 64 0 68 -8 5 -7 10 -8 14 -1 4 6 77 12 184 14 l178 4 -1
-35 c-1 -20 8 -72 19 -116 33 -129 52 -118 -179 -110 -161 6 -200 5 -200 -6 0
-9 -4 -8 -12 3 -11 13 -29 14 -106 9 -93 -6 -113 1 -73 26 18 11 19 22 15 123
-4 104 -3 110 13 101 10 -5 46 -7 80 -4z m983 4 l76 -1 2 -126 c1 -69 4 -129
6 -133 2 -3 -93 -5 -212 -3 -120 1 -243 2 -274 2 l-58 0 0 42 c0 24 -3 82 -6
130 l-7 87 69 3 c64 3 217 2 404 -1z m737 -19 c0 -15 6 -76 13 -135 6 -60 10
-110 8 -112 -2 -3 -40 -4 -84 -5 -518 -1 -532 0 -537 14 -3 8 -4 61 -1 118 3
57 5 111 5 120 0 23 6 23 320 26 l276 2 0 -28z m579 15 c3 -3 7 -56 8 -119 2
-62 6 -121 11 -130 7 -17 -3 -18 -116 -19 -68 -1 -128 0 -134 1 -5 1 -70 1
-142 1 l-133 -2 -1 68 c-1 37 -2 101 -4 141 l-2 72 254 -3 c139 -2 256 -6 259
-10z m-1746 -351 c135 -3 508 -8 830 -11 322 -3 722 -8 890 -11 168 -4 314 -6
325 -6 11 1 23 -4 27 -11 4 -6 22 -10 42 -9 26 2 36 -2 40 -15 3 -10 18 -32
33 -48 42 -45 103 -123 103 -130 0 -3 13 -20 30 -38 16 -18 30 -35 30 -38 0
-3 15 -21 33 -40 17 -20 39 -46 47 -59 8 -13 34 -44 58 -68 23 -24 42 -49 42
-56 0 -6 18 -29 40 -51 21 -22 39 -44 40 -49 0 -5 33 -50 73 -100 40 -50 88
-113 107 -141 19 -27 40 -55 45 -61 6 -7 19 -22 30 -35 11 -13 29 -40 40 -61
41 -76 79 -133 97 -146 10 -7 16 -18 13 -23 -4 -5 -2 -9 3 -9 5 0 17 -15 26
-34 19 -39 20 -50 6 -41 -14 8 -962 7 -984 -1 -9 -3 -22 -2 -29 3 -16 13 -207
17 -207 5 0 -5 -7 -9 -15 -9 -8 0 -15 3 -15 6 0 3 -64 7 -143 8 -642 9 -1104
15 -1222 17 -142 3 -185 12 -185 42 0 13 -9 25 -61 82 -8 9 -44 42 -80 72 -60
52 -499 496 -555 562 -6 7 -31 32 -55 55 -24 23 -64 63 -88 90 -24 26 -111
118 -194 203 l-151 155 54 5 c64 6 528 4 880 -4z m-798 -285 c78 -84 203 -215
278 -290 74 -76 166 -170 203 -209 38 -40 73 -72 78 -72 5 0 9 -4 9 -9 0 -5
63 -73 140 -151 77 -78 140 -148 140 -156 0 -8 4 -14 8 -14 5 0 42 -32 82 -71
l74 -70 2 -69 2 -68 -104 104 c-57 57 -108 104 -114 104 -5 0 -10 4 -10 9 0 5
-44 53 -98 108 -53 54 -140 144 -193 201 -53 56 -101 102 -108 102 -6 0 -11 4
-11 8 0 16 -70 91 -401 427 -38 39 -69 74 -69 78 0 4 -19 26 -41 47 -39 37
-41 42 -36 82 6 46 1 61 -23 70 -9 3 -16 19 -18 34 l-2 29 35 -35 c19 -19 99
-104 177 -189z m1153 -1081 c4 -6 11 -7 17 -4 12 8 223 7 818 -1 223 -3 581
-7 795 -10 468 -6 896 -15 985 -20 36 -2 86 -5 112 -6 l46 -2 -1 -61 -2 -61
-650 1 c-774 1 -1674 11 -1946 20 l-197 7 -6 36 c-19 118 -19 111 3 111 11 0
23 -5 26 -10z"/>
<path d="M1582 4154 c-9 -7 -25 -14 -35 -14 -32 0 -76 -33 -87 -64 -7 -17 -15
-38 -19 -46 -9 -17 11 -127 29 -159 25 -47 150 -65 243 -36 61 20 112 71 120
121 8 47 -30 120 -88 169 -40 34 -53 40 -96 41 -27 1 -57 -5 -67 -12z m117
-133 c24 -22 31 -35 27 -49 -9 -28 -66 -48 -121 -44 -38 3 -48 8 -56 29 -16
44 -11 63 16 63 14 0 28 7 31 15 10 26 67 18 103 -14z"/>
<path d="M3801 4129 c-14 -5 -37 -7 -52 -4 -19 4 -41 -1 -70 -17 -67 -36 -78
-54 -79 -126 0 -55 3 -66 25 -86 14 -13 25 -30 25 -39 0 -11 9 -15 28 -15 15
1 37 -4 49 -11 12 -6 50 -11 85 -11 58 1 66 3 101 36 61 57 79 101 68 167 -2
16 -100 107 -115 107 -8 0 -20 2 -28 4 -7 3 -24 0 -37 -5z m10 -109 c32 0 41
-4 51 -25 10 -22 8 -28 -12 -45 -18 -16 -31 -19 -59 -14 -45 8 -91 31 -91 46
0 17 42 49 58 43 7 -3 31 -5 53 -5z"/>
</g>
</svg>
