<?xml version="1.0" standalone="no"?>
<!DOCTYPE svg PUBLIC "-//W3C//DTD SVG 20010904//EN"
 "http://www.w3.org/TR/2001/REC-SVG-20010904/DTD/svg10.dtd">
<svg version="1.0" xmlns="http://www.w3.org/2000/svg"
 width="511.000000pt" height="383.000000pt" viewBox="0 0 511.000000 383.000000"
 preserveAspectRatio="xMidYMid meet">
<metadata>
Created by potrace 1.16, written by Peter Selinger 2001-2019
</metadata>
<g transform="translate(0.000000,383.000000) scale(0.100000,-0.100000)"
fill="#000000" stroke="none">
<path d="M2540 3750 c-14 -3 -50 -20 -81 -37 -49 -29 -61 -42 -93 -106 -35
-68 -38 -81 -43 -183 -4 -96 -7 -111 -26 -126 -12 -9 -24 -16 -27 -15 -3 1
-14 -4 -25 -10 -26 -14 -71 -18 -115 -9 -23 5 -50 2 -78 -8 -23 -8 -49 -13
-57 -10 -8 4 -15 2 -15 -3 0 -13 -9 -14 -140 -18 -63 -2 -126 -6 -140 -9 -95
-19 -144 -27 -163 -25 -12 1 -40 -2 -62 -8 -22 -6 -57 -11 -78 -12 -22 -1 -50
-9 -63 -18 -13 -8 -24 -13 -24 -9 0 3 -33 -10 -74 -28 -41 -19 -77 -32 -80
-28 -3 3 -6 0 -6 -5 0 -6 -24 -28 -52 -49 -29 -21 -56 -42 -59 -47 -3 -5 -13
-9 -22 -11 -9 -1 -27 -16 -39 -33 -13 -17 -38 -51 -55 -75 -18 -23 -36 -48
-40 -53 -8 -11 -13 -24 -21 -65 -3 -14 -12 -36 -22 -50 -11 -17 -17 -51 -19
-110 -2 -47 -8 -91 -13 -98 -8 -9 -6 -18 7 -31 22 -26 32 -141 26 -326 -1 -40
-2 -40 -63 -65 -35 -13 -65 -24 -68 -23 -3 1 -34 -13 -70 -31 -50 -25 -79 -49
-127 -107 -35 -41 -63 -79 -63 -85 0 -5 -10 -21 -22 -34 -12 -13 -24 -29 -25
-34 -1 -6 -11 -42 -22 -81 -27 -95 -21 -211 14 -296 38 -88 44 -97 105 -134
30 -18 66 -45 79 -59 35 -37 219 -128 263 -130 36 -1 38 -3 40 -36 4 -79 6
-97 18 -140 6 -25 18 -81 26 -124 18 -96 86 -242 144 -306 22 -25 40 -48 40
-52 0 -17 67 -25 176 -21 267 12 2143 20 2277 10 26 -2 49 -1 52 1 11 11 143
8 189 -3 27 -7 54 -11 60 -10 6 2 43 6 83 9 76 6 79 7 166 86 51 47 98 125
104 174 2 16 10 54 18 85 8 31 14 70 14 86 0 17 1 93 3 170 l3 140 30 0 c17 0
32 3 35 7 3 4 19 9 35 12 17 2 31 5 33 6 1 2 5 3 10 4 4 1 23 12 42 24 19 12
41 22 48 22 6 0 12 4 12 10 0 5 18 21 39 35 58 36 121 101 121 125 0 11 4 20
8 20 9 0 40 66 57 124 16 53 13 218 -5 276 -18 56 -86 124 -167 165 -32 16
-60 30 -63 30 -3 0 -11 4 -17 8 -7 4 -41 6 -75 3 -35 -3 -78 -3 -96 1 -33 5
-33 6 -31 57 2 87 -17 352 -28 369 -4 6 0 8 9 5 27 -11 40 57 22 122 -8 30
-17 69 -19 85 -3 32 -39 138 -55 167 -6 10 -10 24 -10 31 0 12 -9 26 -50 74
-5 7 -10 16 -10 22 0 5 -23 29 -52 53 -29 23 -60 51 -70 61 -10 9 -22 17 -27
17 -5 0 -16 6 -23 13 -7 7 -31 21 -53 30 -22 10 -47 22 -55 27 -38 24 -107 53
-130 56 -14 1 -60 5 -102 8 -43 3 -95 10 -115 15 -82 21 -112 25 -219 27 -90
2 -117 6 -143 22 -18 11 -42 17 -53 14 -14 -3 -26 1 -34 13 -8 11 -14 16 -14
12 0 -4 -9 1 -20 11 -16 15 -21 34 -24 103 -3 66 -9 95 -30 136 -15 29 -35 58
-46 66 -10 7 -24 24 -30 37 -14 31 -81 80 -109 80 -12 0 -21 4 -21 9 0 6 -8
10 -17 10 -10 0 -54 2 -98 3 -44 2 -91 1 -105 -2z m187 -109 c31 -9 53 -25 86
-64 61 -71 75 -104 75 -167 0 -30 1 -59 2 -65 1 -5 3 -14 4 -20 6 -41 32 -84
67 -110 22 -16 42 -29 45 -28 2 1 21 -4 41 -11 21 -7 50 -12 65 -10 19 2 32
-4 42 -17 12 -18 24 -20 92 -18 81 2 151 -7 170 -22 10 -8 52 -14 179 -24 67
-5 139 -21 160 -35 6 -4 22 -10 36 -13 14 -4 43 -20 64 -37 21 -16 42 -30 47
-30 5 0 16 -6 23 -12 8 -7 30 -26 51 -43 56 -45 84 -76 78 -86 -3 -5 0 -9 6
-9 11 0 45 -69 37 -76 -5 -6 -49 -6 -1002 -5 -801 1 -1866 -7 -1873 -14 -2 -2
-17 1 -33 7 -16 6 -40 8 -52 4 -18 -4 -145 11 -155 19 -11 9 64 107 91 118 9
3 17 11 17 17 0 5 6 10 13 10 6 0 30 16 51 35 51 44 122 81 216 112 72 24 100
29 200 38 25 2 56 6 70 10 14 3 52 8 85 10 57 4 155 12 237 20 21 2 48 10 60
17 14 7 63 13 126 14 63 0 107 5 114 12 7 7 21 12 32 12 19 0 97 47 104 63 2
4 10 14 18 22 10 10 16 48 19 134 5 145 21 186 91 229 38 24 55 28 102 26 31
-1 76 -7 99 -13z m1058 -982 c123 -1 215 -6 223 -11 8 -7 12 -7 12 1 0 15 94
8 115 -9 21 -18 20 -77 -2 -84 -10 -3 -139 -3 -288 -1 -462 7 -563 7 -574 0
-6 -3 -11 -2 -11 3 0 5 -12 8 -27 6 -40 -5 -613 -12 -1503 -20 -644 -5 -778
-4 -786 8 -6 7 -9 32 -6 55 4 41 4 41 50 47 26 3 85 5 131 5 46 0 85 2 87 3 2
3 2201 1 2579 -3z m291 -241 c66 0 74 -2 74 -19 0 -10 -6 -19 -12 -19 -9 0
-10 -3 -2 -8 13 -8 12 0 21 -157 9 -155 9 -246 0 -550 -6 -198 -8 -599 -4
-720 1 -35 -13 -174 -20 -191 -3 -9 -7 -26 -8 -38 -5 -57 -53 -142 -103 -186
-43 -36 -51 -39 -92 -35 -72 7 -402 7 -860 0 -234 -3 -755 -8 -1159 -9 -706
-3 -734 -3 -752 15 -11 11 -19 21 -19 24 0 6 -62 101 -79 121 -6 7 -8 14 -6
16 2 2 -3 24 -12 48 -21 60 -41 158 -48 232 -3 34 -7 64 -10 68 -5 8 -14 262
-20 552 -2 119 -7 238 -10 265 -3 26 -7 160 -9 297 -4 201 -2 252 9 263 10 10
45 13 137 12 68 0 223 2 344 6 180 5 659 8 1159 7 620 -1 1375 5 1381 10 4 4
11 5 16 2 5 -3 43 -6 84 -6z m-3224 -485 c6 -65 0 -83 -26 -83 -12 0 -31 -7
-42 -15 -10 -8 -26 -15 -34 -15 -24 -1 -115 -90 -145 -142 -15 -27 -24 -48
-22 -48 3 0 0 -11 -7 -25 -10 -20 -11 -37 -1 -87 7 -35 17 -72 21 -84 13 -32
71 -94 88 -94 8 0 18 -4 21 -10 3 -5 14 -10 23 -10 10 0 38 -11 64 -25 26 -14
54 -25 63 -25 11 0 15 -12 15 -49 l0 -50 -37 6 c-21 3 -55 16 -75 29 -21 13
-42 24 -46 24 -5 0 -25 13 -43 30 -19 16 -42 32 -52 36 -27 9 -82 67 -113 120
-21 36 -27 61 -30 117 -4 111 28 203 98 286 21 24 38 47 38 51 0 13 196 106
231 109 4 1 9 -20 11 -46z m3676 -91 c82 -49 100 -78 107 -172 5 -65 -19 -178
-47 -229 -27 -47 -107 -123 -164 -155 -37 -21 -129 -46 -166 -46 -12 0 -10 88
2 111 6 10 19 19 30 19 20 0 84 27 108 45 24 18 114 105 108 105 -3 0 4 21 16
48 44 100 12 202 -76 242 -25 11 -52 20 -60 20 -8 0 -17 4 -21 9 -3 6 -13 9
-23 9 -32 -3 -72 12 -72 27 0 17 50 22 131 15 41 -4 73 -16 127 -48z m-3663
-277 l2 -165 -36 6 c-92 17 -140 60 -147 133 -5 45 19 121 37 121 5 0 19 12
32 26 22 23 97 57 106 48 2 -2 5 -78 6 -169z m3508 156 c16 -6 34 -11 42 -11
7 0 18 -13 23 -29 11 -31 6 -71 -9 -71 -5 0 -9 -6 -9 -13 0 -25 -88 -98 -125
-104 -34 -5 -41 2 -37 39 1 3 2 52 3 108 l1 101 42 -4 c22 -2 54 -9 69 -16z"/>
</g>
</svg>
