<?xml version="1.0" standalone="no"?>
<!DOCTYPE svg PUBLIC "-//W3C//DTD SVG 20010904//EN"
 "http://www.w3.org/TR/2001/REC-SVG-20010904/DTD/svg10.dtd">
<svg version="1.0" xmlns="http://www.w3.org/2000/svg"
 width="557.000000pt" height="461.000000pt" viewBox="0 0 557.000000 461.000000"
 preserveAspectRatio="xMidYMid meet">
<metadata>
Created by potrace 1.16, written by Peter Selinger 2001-2019
</metadata>
<g transform="translate(0.000000,461.000000) scale(0.100000,-0.100000)"
fill="#000000" stroke="none">
<path d="M4478 4255 c-9 -9 -3925 -23 -4051 -15 -114 8 -142 0 -152 -43 -12
-53 -7 -4004 5 -4027 6 -11 20 -20 31 -20 11 0 18 -4 15 -9 -11 -16 24 -21
152 -19 70 0 341 0 602 -1 261 -1 1049 -3 1750 -6 1103 -3 1759 -9 2145 -19
55 -1 108 -6 118 -10 11 -5 17 -4 17 4 0 8 9 10 26 6 20 -5 30 -1 52 26 15 17
40 44 55 60 20 20 27 35 25 55 -2 17 -8 27 -17 25 -11 -2 -12 21 -7 135 3 76
8 478 12 893 11 1516 22 2457 31 2640 12 264 5 317 -42 320 -36 3 -765 7 -767
5z m-2968 -116 c63 -1 239 -1 390 0 792 2 1294 2 2535 0 182 0 420 0 530 0
109 0 201 -2 203 -4 9 -9 -1 -1653 -13 -2185 -3 -129 -7 -435 -10 -680 -8
-643 -16 -1044 -20 -1049 -10 -9 -3271 -2 -4660 11 -33 0 -65 3 -72 5 -15 6
-13 -180 -17 1983 -1 954 0 1775 3 1824 l6 88 429 4 c236 2 431 6 434 9 3 3
38 3 76 0 39 -3 123 -5 186 -6z"/>
<path d="M4567 3834 c-5 -5 -68 -8 -497 -19 -254 -7 -381 -8 -398 -3 -14 4
-47 -19 -109 -77 -30 -27 -84 -78 -121 -112 -37 -35 -71 -67 -77 -73 -104
-108 -228 -230 -234 -230 -4 0 -16 -19 -26 -42 -9 -24 -21 -51 -26 -60 -6 -11
-1 -25 14 -44 21 -28 22 -36 23 -294 1 -146 5 -391 10 -545 9 -276 10 -381 6
-685 -1 -85 0 -186 2 -225 5 -67 6 -504 3 -690 -1 -49 -6 -93 -11 -96 -5 -4
-5 -13 0 -20 4 -7 9 -29 11 -49 2 -19 8 -36 13 -38 6 -2 10 -10 10 -18 0 -8 6
-14 13 -15 31 -3 183 3 189 7 5 3 8 0 8 -7 0 -8 4 -8 13 -1 6 5 37 10 67 9 47
0 233 13 430 30 139 12 482 15 493 4 14 -14 54 -14 62 -1 3 5 13 10 21 10 19
0 92 67 99 91 3 10 14 20 23 23 10 3 25 21 35 38 22 40 83 108 98 108 5 0 8 4
4 9 -3 5 5 18 17 28 13 10 42 43 64 73 23 30 61 75 85 100 53 54 69 91 64 145
-2 22 -6 148 -9 280 -4 132 -9 278 -11 325 -3 47 -7 150 -10 230 -3 80 -10
204 -16 275 -9 124 -13 215 -26 750 -6 227 -7 454 -2 650 1 73 -2 108 -13 129
l-15 28 -135 4 c-75 2 -138 1 -141 -2z m188 -85 c3 -4 -27 -42 -68 -85 -42
-44 -89 -97 -106 -119 -55 -70 -175 -195 -188 -195 -7 0 -13 -4 -13 -9 0 -22
-29 -36 -71 -35 -170 7 -571 -4 -752 -21 -107 -10 -337 -17 -337 -10 0 18 372
390 427 427 35 24 50 26 183 33 80 4 264 9 410 11 146 2 284 7 308 12 47 8
196 1 207 -9z m44 -356 c0 -159 2 -297 5 -308 2 -11 7 -134 10 -273 4 -138 9
-296 11 -349 13 -271 16 -328 21 -453 13 -303 14 -865 2 -895 -15 -38 -72
-114 -150 -197 -15 -15 -36 -41 -48 -56 -12 -15 -36 -43 -53 -62 -18 -19 -43
-48 -56 -65 -12 -16 -25 -29 -27 -28 -2 2 -17 -11 -34 -29 -17 -17 -34 -28
-38 -24 -4 4 -8 157 -9 339 -1 183 -5 383 -8 444 -3 77 -2 113 6 113 5 0 7 5
3 12 -10 16 -13 118 -18 613 -2 220 -7 481 -12 580 -8 170 -8 219 -6 375 1 36
0 72 -3 80 -5 16 12 37 130 162 65 69 130 148 158 191 10 15 23 27 30 28 6 0
28 20 47 44 19 24 36 44 37 44 1 1 2 -128 2 -286z m-492 -171 c14 -9 31 -79
26 -107 -5 -28 -3 -162 5 -347 l7 -158 -40 -4 c-75 -10 -170 -16 -315 -21
-338 -11 -578 -17 -620 -15 -25 1 -73 3 -108 5 -34 1 -65 5 -68 7 -9 9 -14
118 -13 273 1 83 1 192 1 243 l-1 92 77 1 c42 1 102 3 132 5 113 7 247 16 315
23 105 10 588 13 602 3z m0 -706 l43 -8 0 -316 c1 -282 3 -487 13 -1058 l3
-162 -83 -7 c-45 -4 -86 -4 -91 -1 -17 10 -514 2 -653 -12 -156 -15 -315 -2
-322 26 -3 9 -5 98 -6 196 -1 99 -4 183 -7 188 -3 5 -5 77 -4 161 4 326 2 757
-5 854 -8 121 -16 115 150 118 309 6 765 22 770 27 6 6 151 1 192 -6z m-162
-1617 c39 -6 86 -12 105 -13 19 -1 52 -8 73 -15 l38 -13 -5 -110 c-2 -60 -6
-111 -8 -113 -2 -2 -89 -6 -193 -9 -105 -3 -182 -3 -172 0 16 5 18 17 16 94
-1 84 -3 90 -30 116 -28 27 -29 27 -44 8 -8 -10 -12 -28 -10 -39 2 -11 9 -45
16 -75 6 -30 12 -65 11 -77 0 -13 4 -23 9 -23 5 0 9 -4 9 -8 0 -6 -262 -26
-410 -32 -254 -9 -321 -8 -329 8 -10 21 -13 139 -5 213 5 55 6 56 37 56 55 1
261 13 292 18 17 3 135 7 264 9 128 3 236 8 239 11 7 7 16 6 97 -6z"/>
<path d="M4165 3059 c-8 -12 -8 -48 -1 -149 10 -125 11 -130 46 -130 23 0 30
5 34 28 4 15 4 38 1 52 -3 14 -6 62 -7 107 -1 64 -5 84 -17 89 -24 10 -51 12
-56 3z"/>
<path d="M4223 2124 c-32 -16 -42 -37 -24 -48 5 -4 10 -58 10 -120 1 -63 4
-121 7 -129 8 -23 53 -28 64 -7 12 23 9 303 -5 312 -14 10 -15 10 -52 -8z"/>
<path d="M3785 856 c-18 -13 -18 -20 -7 -111 12 -105 26 -134 55 -113 13 10
17 33 18 114 1 55 -1 106 -5 112 -10 16 -38 15 -61 -2z"/>
<path d="M4099 860 c-11 -7 -14 -33 -14 -105 0 -102 6 -115 51 -115 23 0 40
25 24 35 -6 4 -7 35 -4 75 4 38 4 79 1 92 -7 25 -33 33 -58 18z"/>
<path d="M3449 831 c-32 -33 -40 -87 -14 -97 8 -4 15 -17 15 -29 0 -42 48 -72
67 -42 11 17 3 169 -9 185 -15 18 -27 15 -59 -17z"/>
<path d="M3633 854 c-7 -3 -13 -12 -13 -20 0 -8 -6 -14 -12 -14 -9 0 -9 -3 -3
-8 6 -4 11 -33 11 -64 1 -67 16 -93 45 -77 14 7 19 21 19 55 0 25 5 54 11 65
7 13 7 24 1 32 -6 7 -10 17 -9 22 2 11 -31 17 -50 9z"/>
<path d="M4237 839 c-15 -9 -16 -19 -11 -62 8 -64 17 -83 44 -90 26 -7 30 1
35 72 6 79 -19 108 -68 80z"/>
<path d="M3312 828 c-6 -7 -10 -53 -9 -102 2 -74 5 -91 20 -100 26 -16 47 16
47 73 0 26 4 60 9 78 7 25 6 35 -8 47 -21 19 -45 21 -59 4z"/>
<path d="M1385 2906 c-35 -24 -188 -49 -430 -72 -38 -3 -73 -8 -77 -10 -4 -3
-73 -7 -153 -9 -116 -3 -147 -1 -151 9 -3 8 -14 12 -25 9 -10 -3 -19 0 -19 6
0 6 -4 11 -10 11 -5 0 -7 -7 -4 -15 4 -8 2 -15 -3 -15 -12 0 -45 -58 -39 -69
23 -37 34 -359 22 -676 -25 -691 -29 -1039 -11 -1082 8 -19 13 -39 10 -43 -7
-12 5 -40 17 -40 10 0 101 -70 123 -95 6 -6 33 -27 60 -47 28 -20 67 -55 89
-77 21 -23 45 -41 52 -41 8 0 14 -4 14 -10 0 -5 15 -16 33 -23 18 -8 50 -30
71 -50 21 -20 47 -39 57 -42 10 -4 19 -13 19 -21 0 -7 17 -25 38 -39 20 -14
46 -31 57 -39 11 -8 45 -18 75 -21 114 -12 736 -4 790 10 25 7 52 9 220 19 47
3 120 10 163 16 53 8 82 8 91 1 18 -15 56 8 79 47 16 27 19 51 18 143 -1 62
-3 114 -5 118 -5 9 -16 254 -21 501 -3 118 -7 256 -10 305 -6 147 -16 488 -19
657 l-2 156 -32 33 c-18 18 -32 28 -32 21 0 -13 -46 6 -240 101 -80 39 -146
70 -147 69 -2 -1 -37 14 -79 33 -42 19 -83 35 -90 35 -8 0 -14 5 -14 10 0 6
-5 10 -11 10 -6 0 -17 7 -25 15 -9 8 -26 15 -40 15 -13 0 -24 4 -24 8 0 5 -18
14 -40 21 -22 6 -40 16 -40 21 0 6 -4 10 -10 10 -21 0 -201 92 -206 105 -4 8
-10 12 -15 9 -5 -3 -9 0 -9 6 0 7 -6 10 -14 7 -7 -3 -18 -1 -23 4 -5 5 -17 3
-28 -5z m93 -113 c17 -10 32 -22 32 -26 0 -5 -6 -4 -14 2 -23 19 -88 19 -141
-1 -27 -10 -51 -18 -52 -18 -2 0 -3 -15 -3 -34 0 -41 9 -49 94 -81 l68 -25 33
33 c39 39 53 82 36 109 -15 24 -7 23 37 -7 20 -14 42 -25 49 -25 7 0 27 -8 45
-18 18 -10 58 -28 89 -40 30 -11 71 -30 90 -41 47 -28 90 -48 119 -57 34 -9
107 -41 150 -66 19 -10 60 -31 90 -45 30 -15 57 -29 60 -33 3 -3 21 -13 40
-20 l35 -15 -40 -7 c-73 -12 -833 -17 -919 -5 -55 7 -73 17 -32 17 33 0 64 16
88 44 21 26 22 30 3 70 -13 27 -23 34 -66 43 -65 13 -138 0 -161 -28 -22 -26
-22 -39 -4 -84 10 -24 22 -34 40 -37 15 -2 27 -7 27 -13 0 -14 -50 -19 -75 -6
-12 5 -43 19 -69 31 -26 11 -45 25 -42 29 2 5 -14 13 -38 19 -40 10 -148 82
-155 102 -2 6 -8 10 -13 10 -12 0 -208 159 -197 160 2 0 30 3 63 6 69 5 108
10 150 18 17 3 59 8 95 11 68 6 185 20 285 34 33 5 63 7 68 4 4 -2 7 1 7 7 0
16 88 4 128 -17z m-867 -119 c19 -10 81 -60 115 -90 12 -12 44 -37 71 -55 26
-19 55 -42 64 -51 9 -10 21 -18 28 -18 6 0 21 -9 33 -19 13 -11 34 -28 47 -39
24 -19 25 -22 28 -203 1 -101 7 -205 11 -231 19 -99 23 -484 7 -678 -9 -121
-9 -144 0 -280 3 -47 8 -139 10 -205 3 -66 7 -132 10 -146 4 -16 0 -30 -8 -38
-12 -9 -23 -5 -56 23 -23 19 -51 38 -64 42 -12 4 -24 9 -27 13 -14 17 -151
141 -194 176 -27 22 -59 51 -70 64 -12 13 -31 33 -42 43 -21 19 -22 23 -19
406 2 213 7 522 11 687 4 165 6 377 5 470 -1 140 0 167 11 154 7 -9 20 -20 29
-25z m491 -339 c10 -4 12 -41 10 -178 -4 -203 -4 -252 -2 -292 1 -16 1 -50 0
-75 -2 -79 -17 -21 -23 86 -2 56 -8 107 -12 114 -8 13 -9 289 -1 297 3 4 3 17
0 29 -6 24 2 29 28 19z m483 -38 c77 0 178 1 225 2 130 2 178 2 407 4 183 2
213 0 215 -13 1 -8 2 -44 3 -80 1 -36 5 -104 9 -151 l8 -86 -43 0 c-24 0 -73
-6 -109 -12 -63 -10 -158 -16 -480 -26 -85 -3 -173 -7 -195 -10 -22 -2 -83 -7
-135 -10 -52 -3 -123 -8 -157 -11 -49 -4 -63 -3 -63 8 0 10 -2 10 -9 -1 -8
-12 -12 -12 -25 -2 -8 7 -19 10 -25 7 -5 -3 -16 -3 -25 0 -14 5 -15 23 -9 132
3 70 7 138 8 152 1 14 3 40 3 58 1 17 5 31 10 30 4 0 14 2 22 5 25 10 81 13
155 9 39 -3 133 -5 210 -5z m860 -409 c13 -13 29 -864 16 -872 -5 -3 -118 -9
-250 -12 -133 -3 -249 -7 -259 -9 -10 -1 -103 -8 -207 -15 -105 -6 -233 -15
-285 -19 -109 -10 -275 -9 -285 1 -4 4 -6 51 -5 105 1 54 2 249 2 434 l-1 335
85 -2 c76 -2 140 1 379 20 33 3 143 8 245 11 102 3 196 7 210 10 14 2 86 7
160 10 74 4 137 8 139 11 4 4 51 -3 56 -8z m-1338 -290 c-2 -13 -4 -5 -4 17
-1 22 1 32 4 23 2 -10 2 -28 0 -40z m3 -178 c0 -27 -3 -50 -7 -50 -5 0 -6 22
-5 50 5 65 12 65 12 0z m-5 -203 c1 -73 -2 -150 -5 -172 -6 -38 -6 -37 -13 25
-4 36 -5 97 -3 135 2 39 4 90 5 114 0 24 4 41 8 37 4 -3 7 -66 8 -139z m-3
-260 c1 -20 -1 -39 -5 -43 -4 -4 -7 14 -7 41 0 56 8 57 12 2z m1331 -31 c16
-1 33 -10 39 -20 10 -18 17 -286 8 -337 -4 -24 -10 -28 -55 -35 -27 -4 -64 -8
-82 -10 -17 -1 -36 -5 -41 -8 -6 -3 -73 -9 -149 -12 -76 -2 -159 -10 -186 -15
-48 -11 -625 -17 -682 -7 -16 3 -36 6 -44 6 -9 1 -11 10 -7 26 4 18 1 26 -12
30 -15 5 -18 15 -17 51 1 25 -1 45 -4 45 -4 0 -7 24 -8 53 -1 28 -4 63 -6 77
-3 14 -8 42 -12 62 -6 32 -4 37 11 37 37 1 190 11 249 16 33 2 101 7 150 10
184 10 271 16 300 21 17 3 95 7 175 10 80 3 147 8 150 11 3 3 48 2 100 -2 52
-4 108 -8 123 -9z m-1313 -240 c-7 -7 -10 4 -9 30 1 39 1 39 10 9 5 -18 5 -33
-1 -39z m25 -146 c3 -5 -1 -10 -9 -10 -9 0 -16 5 -16 10 0 6 4 10 9 10 6 0 13
-4 16 -10z"/>
<path d="M965 2701 c-36 -15 -57 -47 -50 -73 18 -56 70 -80 150 -68 57 9 75
28 75 81 0 32 -4 38 -31 48 -45 16 -121 22 -144 12z"/>
<path d="M1700 2592 c-32 -5 -50 -20 -62 -51 -14 -37 -2 -67 32 -81 16 -7 30
-15 30 -19 0 -4 19 -7 43 -7 23 0 58 -3 78 -8 31 -7 39 -4 67 22 34 32 45 82
17 82 -8 0 -30 16 -49 36 -35 36 -55 40 -156 26z"/>
<path d="M1332 2195 c-12 -15 -23 -33 -23 -39 -1 -6 -3 -22 -5 -36 -5 -39 3
-62 34 -97 18 -20 36 -30 48 -28 10 2 27 4 36 4 19 1 27 21 32 77 2 21 9 40
15 42 6 2 11 14 11 26 0 27 -70 71 -100 63 -11 -3 -21 0 -23 6 -1 5 -13 -2
-25 -18z"/>
<path d="M2145 2192 c-5 -4 -18 -22 -28 -40 -22 -39 -17 -84 14 -122 46 -55
141 -17 159 64 7 30 4 38 -19 58 -44 40 -101 58 -126 40z"/>
<path d="M1582 2174 c-16 -17 -25 -60 -18 -86 8 -34 68 -71 100 -62 55 13 67
97 20 138 -31 27 -81 32 -102 10z"/>
<path d="M1868 2163 c-19 -5 -26 -19 -33 -76 -8 -60 17 -82 91 -81 29 0 56 3
60 7 4 4 10 27 14 51 6 40 4 48 -21 76 -27 29 -61 37 -111 23z"/>
<path d="M1909 1739 c-85 -9 -199 -19 -254 -23 -55 -3 -121 -8 -146 -12 -27
-4 -62 -1 -82 5 -26 9 -42 9 -56 1 -19 -10 -20 -18 -17 -138 9 -312 12 -372
22 -382 6 -6 48 -13 95 -16 100 -7 90 -7 256 5 126 9 426 6 443 -4 10 -6 62
15 72 30 4 5 5 18 2 27 -3 10 -5 57 -4 105 2 133 1 153 -12 220 -8 47 -9 65 0
76 9 10 9 16 0 25 -9 9 -9 15 -1 23 16 16 -3 66 -27 74 -25 8 -107 3 -291 -16z"/>
</g>
</svg>
