<?xml version="1.0" standalone="no"?>
<!DOCTYPE svg PUBLIC "-//W3C//DTD SVG 20010904//EN"
 "http://www.w3.org/TR/2001/REC-SVG-20010904/DTD/svg10.dtd">
<svg version="1.0" xmlns="http://www.w3.org/2000/svg"
 width="523.000000pt" height="447.000000pt" viewBox="0 0 523.000000 447.000000"
 preserveAspectRatio="xMidYMid meet">
<metadata>
Created by potrace 1.16, written by Peter Selinger 2001-2019
</metadata>
<g transform="translate(0.000000,447.000000) scale(0.100000,-0.100000)"
fill="#000000" stroke="none">
<path d="M3965 4392 c-11 -2 -26 -9 -32 -14 -28 -23 -12 -46 71 -102 46 -31
90 -67 98 -79 20 -30 23 -127 5 -168 -8 -19 -34 -53 -58 -77 -43 -43 -43 -43
-55 -20 -7 13 -9 25 -4 28 4 3 22 31 39 62 l32 57 -16 54 c-17 58 -75 129
-150 183 -22 16 -49 37 -59 47 -11 9 -27 17 -36 17 -9 0 -26 -8 -37 -17 -16
-15 -18 -22 -9 -38 18 -31 29 -40 66 -54 37 -15 114 -82 132 -115 18 -32 20
-80 5 -100 -10 -14 -28 -20 -63 -22 -27 -1 -76 -12 -109 -23 -33 -12 -68 -21
-80 -21 -30 -1 -258 -71 -320 -99 -43 -19 -106 -41 -120 -41 -8 0 -43 -13 -77
-28 -35 -16 -88 -37 -118 -47 -30 -10 -71 -28 -90 -40 -19 -12 -62 -27 -95
-34 -33 -7 -92 -29 -132 -47 -79 -38 -207 -86 -293 -112 -30 -8 -71 -25 -90
-37 -19 -12 -52 -28 -72 -36 -21 -7 -38 -16 -38 -20 0 -4 -12 -10 -27 -14 -15
-3 -58 -22 -96 -41 -37 -18 -78 -36 -91 -38 -14 -2 -35 -10 -48 -17 -12 -7
-51 -23 -84 -35 -34 -12 -72 -29 -85 -38 -13 -9 -29 -16 -36 -16 -7 0 -36 -11
-65 -24 -29 -13 -79 -32 -111 -41 -81 -23 -137 -49 -172 -80 -17 -14 -33 -25
-37 -25 -5 0 -8 -9 -8 -19 0 -20 -32 -37 -50 -26 -5 3 -32 8 -58 9 -44 3 -104
32 -148 71 -7 5 -33 28 -59 50 -54 45 -68 59 -127 132 -68 82 -88 110 -88 121
0 16 -39 21 -54 7 -15 -15 -10 -64 8 -80 6 -5 23 -29 39 -53 15 -23 31 -42 36
-42 6 0 12 -8 15 -17 3 -10 18 -31 32 -48 14 -16 31 -37 38 -45 6 -8 40 -37
76 -65 36 -27 70 -54 76 -60 13 -13 74 -38 130 -55 42 -13 169 -10 209 5 11 4
4 -4 -15 -17 -29 -19 -47 -23 -110 -22 -72 0 -126 18 -200 64 -8 5 -41 21 -72
36 -32 15 -58 31 -58 36 0 4 -7 8 -15 8 -20 0 -60 41 -132 136 -92 121 -128
156 -155 152 -33 -4 -37 -55 -6 -90 25 -28 55 -65 119 -148 66 -84 98 -113
174 -155 39 -21 73 -43 76 -48 4 -5 11 -7 17 -3 5 3 15 0 21 -8 15 -17 103
-52 155 -61 l38 -6 -20 -22 c-34 -37 -88 -149 -104 -217 -34 -135 -48 -317
-34 -410 2 -14 5 -88 7 -165 2 -77 8 -143 13 -146 5 -4 10 -104 12 -222 3
-196 -8 -355 -31 -487 -11 -56 -65 -210 -95 -270 -38 -75 -65 -152 -84 -235
-16 -71 -36 -182 -36 -197 0 -4 20 -8 45 -8 25 0 45 5 45 10 0 6 7 10 15 10 8
0 15 4 15 8 0 14 80 35 145 38 33 2 117 5 187 8 l128 5 -5 -132 c-5 -129 10
-242 35 -272 8 -9 79 -18 145 -18 72 1 305 72 305 94 0 16 61 47 104 54 23 4
55 15 71 25 17 10 55 26 85 35 30 9 69 22 85 28 17 7 33 12 37 12 3 0 10 3 14
7 4 5 17 8 30 8 19 0 112 43 328 150 32 17 62 27 67 24 5 -3 9 -1 9 4 0 13
182 100 257 123 52 16 121 52 213 109 29 18 124 60 136 60 7 0 19 6 26 12 34
32 136 81 149 72 5 -3 9 -1 9 5 0 5 12 16 28 24 68 36 209 121 227 137 11 10
46 34 77 54 32 20 73 52 93 71 19 19 39 35 45 35 5 0 10 5 10 11 0 7 7 17 15
23 47 34 63 364 31 626 -3 19 -7 112 -11 205 -3 94 -7 199 -10 235 -3 36 -7
121 -10 190 -2 69 -7 190 -10 270 -3 80 -8 170 -12 200 -3 30 -7 69 -9 85 -1
17 -5 68 -9 115 -6 82 -29 219 -42 250 -12 30 -14 47 -18 184 -3 76 -7 142
-10 146 -3 4 12 20 32 36 33 25 70 63 130 132 12 14 24 41 28 60 10 55 3 163
-13 196 -14 28 -56 76 -67 76 -7 0 -108 72 -120 86 -5 6 -19 9 -30 6z m-412
-583 c4 -24 9 -70 11 -101 l3 -56 -76 -28 c-42 -15 -98 -37 -126 -49 -58 -26
-135 -48 -142 -42 -2 3 -6 24 -8 48 -5 63 -16 143 -22 152 -5 9 78 46 132 57
22 5 76 22 120 39 44 16 85 29 90 27 6 -1 13 -23 18 -47z m365 -146 c6 -6 12
-22 12 -34 0 -12 7 -58 16 -102 18 -87 14 -97 -34 -97 -13 0 -21 -4 -17 -9 3
-6 -14 -19 -37 -30 -24 -12 -57 -30 -73 -41 -17 -11 -46 -21 -65 -22 -47 -4
-57 21 -65 152 -4 58 -9 108 -11 112 -2 3 20 14 48 23 29 10 58 21 64 26 38
30 139 44 162 22z m-988 -33 c0 -5 -4 -10 -10 -10 -5 0 -10 5 -10 10 0 6 5 10
10 10 6 0 10 -4 10 -10z m-179 -97 c6 -16 13 -50 14 -78 2 -27 6 -71 9 -97 l5
-46 -47 -20 c-26 -11 -71 -27 -99 -35 -29 -9 -72 -29 -95 -44 -39 -26 -92 -53
-103 -53 -3 0 -5 12 -5 28 0 38 -29 193 -41 214 -5 10 -9 20 -9 22 0 8 59 32
135 57 39 12 99 35 135 50 81 35 88 35 101 2z m433 -314 c26 -155 40 -136
-143 -199 -88 -30 -162 -52 -165 -49 -5 4 -17 168 -20 258 -1 32 2 35 36 43
20 4 72 26 115 49 43 23 94 47 113 54 l35 12 7 -36 c4 -20 14 -79 22 -132z
m-1318 -54 c10 -15 15 -38 12 -60 -2 -19 -1 -35 2 -35 9 0 28 -98 21 -108 -15
-20 -291 -143 -320 -141 -11 0 -12 2 -3 6 6 2 9 10 5 16 -4 6 -8 45 -10 86 -3
58 -8 80 -23 96 -38 41 -42 38 225 140 76 29 72 29 91 0z m1765 -27 c2 -84 7
-124 18 -167 18 -64 25 -179 12 -195 -6 -7 -37 -21 -68 -31 -32 -11 -70 -27
-85 -37 -14 -10 -31 -18 -37 -18 -6 0 -11 -4 -11 -9 0 -7 -105 -51 -122 -51
-3 0 -8 21 -11 48 -4 26 -9 58 -13 72 -3 14 -8 39 -10 55 -2 17 -7 53 -12 82
-5 28 -8 73 -8 99 l1 47 91 41 c51 23 107 47 125 54 19 7 52 22 74 32 22 10
43 19 48 19 4 1 7 -18 8 -41z m-1270 -95 c0 -5 3 -21 5 -38 2 -16 7 -73 10
-126 l6 -96 -33 -19 c-52 -30 -109 -51 -171 -62 -31 -6 -82 -23 -112 -38 -31
-15 -58 -25 -60 -23 -2 2 -6 37 -8 76 -2 40 -7 76 -11 79 -4 4 -7 29 -7 55 0
41 3 49 23 55 12 4 50 20 85 35 34 16 65 29 68 29 3 0 26 10 52 22 57 26 134
57 145 58 4 0 7 -3 8 -7z m1669 -48 c0 -8 -2 -15 -4 -15 -2 0 -12 -3 -21 -6
-15 -6 -15 -4 -4 15 16 25 29 27 29 6z m6 -283 c-1 -56 1 -102 4 -102 3 0 7
-38 8 -84 l3 -85 -48 -24 c-105 -52 -169 -87 -181 -97 -14 -12 -15 -11 -32 65
-12 54 -27 174 -37 293 -5 58 -3 72 9 72 18 0 133 59 189 97 66 45 73 45 80 4
3 -20 5 -82 5 -139z m-1213 133 c4 -8 9 -48 13 -90 4 -42 10 -78 14 -80 4 -3
2 -22 -5 -42 -7 -21 -9 -43 -5 -48 5 -6 10 -43 13 -83 l4 -74 -41 -18 c-55
-25 -239 -81 -286 -87 l-37 -5 -7 65 c-7 76 -12 112 -26 220 -17 131 -17 131
38 149 26 9 70 22 97 29 28 7 75 23 105 37 49 22 94 39 111 41 4 1 9 -6 12
-14z m-1337 -181 c22 -6 24 -12 26 -63 0 -31 0 -63 0 -71 -3 -24 -1 -212 2
-240 6 -48 10 -46 -156 -84 -37 -9 -83 -16 -103 -16 -34 0 -35 1 -36 38 -3 64
-3 62 16 235 7 68 9 79 24 133 10 37 15 43 54 53 23 6 58 13 77 17 19 3 37 7
39 10 3 2 11 2 19 -1 8 -3 25 -8 38 -11z m1864 -134 c0 -11 -4 -20 -9 -20 -7
0 -8 17 -2 38 4 10 11 -2 11 -18z m-1408 -90 c4 -52 9 -126 12 -165 2 -38 7
-88 11 -110 l7 -40 -124 -40 c-67 -21 -127 -42 -133 -46 -5 -4 -12 -7 -15 -8
-9 0 -44 -12 -77 -26 l-32 -14 -1 92 c0 51 -2 143 -4 205 l-3 112 96 47 c103
50 216 92 241 90 12 -2 17 -24 22 -97z m1347 -60 c10 -45 34 -258 33 -295 -1
-11 -6 -21 -12 -23 -6 -2 -32 -19 -58 -38 -50 -36 -224 -124 -246 -124 -8 0
-16 38 -25 123 -7 67 -17 138 -22 157 -5 19 -12 72 -15 116 -8 93 -6 96 74
109 24 4 63 18 88 32 25 14 71 33 102 42 l57 17 7 -35 c4 -20 11 -56 17 -81z
m450 -97 c1 -13 -2 -23 -6 -23 -5 0 -9 19 -10 43 -2 31 0 37 7 22 5 -11 9 -30
9 -42z m-1314 38 c3 -5 1 -12 -5 -16 -5 -3 -10 1 -10 9 0 18 6 21 15 7z m1423
-81 c-13 -21 -28 -27 -28 -10 0 5 8 14 18 19 23 14 24 14 10 -9z m-1328 -4 c0
-3 -4 -8 -10 -11 -5 -3 -10 -1 -10 4 0 6 5 11 10 11 6 0 10 -2 10 -4z m-81
-93 c11 -77 18 -136 26 -238 3 -38 7 -98 11 -132 l5 -62 -63 -30 c-35 -16 -97
-39 -138 -50 -41 -11 -102 -29 -134 -41 -33 -11 -61 -18 -64 -15 -3 2 -7 42
-9 87 -2 46 -5 106 -8 133 -2 28 -7 99 -11 158 -7 106 -7 108 17 125 31 22
205 88 275 104 30 7 54 16 54 20 0 5 6 8 14 8 10 0 17 -21 25 -67z m1311 15
c1 -60 12 -183 16 -190 3 -5 10 -66 14 -136 8 -112 7 -127 -8 -139 -9 -7 -22
-13 -28 -13 -7 0 -42 -18 -78 -40 -36 -22 -70 -40 -75 -40 -5 0 -11 -3 -13 -7
-4 -10 -104 -63 -117 -63 -9 0 -15 46 -26 202 -3 42 -12 123 -20 180 -18 126
-18 118 -1 118 12 0 146 70 200 105 12 7 38 17 59 20 20 4 40 11 43 16 11 18
34 9 34 -13z m-730 -352 c0 -3 -4 -8 -10 -11 -5 -3 -10 -1 -10 4 0 6 5 11 10
11 6 0 10 -2 10 -4z m1068 -42 c2 -16 3 -91 3 -166 0 -170 -16 -240 -63 -281
-18 -15 -48 -41 -67 -57 -19 -17 -38 -30 -42 -30 -11 0 -18 45 -18 122 0 38
-5 76 -10 86 -5 10 -11 69 -13 131 l-3 112 60 35 c33 18 68 37 78 40 9 4 17
10 17 15 0 5 7 9 15 9 8 0 15 5 15 11 0 24 24 1 28 -27z m-1133 -46 c10 -35
19 -109 21 -168 2 -58 8 -132 13 -165 5 -33 6 -63 2 -67 -3 -4 -66 -29 -140
-57 -131 -49 -236 -79 -246 -69 -3 2 -7 48 -10 100 -2 53 -9 117 -15 143 -6
26 -13 79 -16 118 -3 40 -7 77 -9 84 -6 18 13 29 105 58 47 15 121 40 165 55
113 39 110 40 130 -32z m-1205 -28 c0 -5 -5 -10 -11 -10 -5 0 -7 5 -4 10 3 6
8 10 11 10 2 0 4 -4 4 -10z m-263 -96 c30 -6 30 -7 26 -62 -3 -31 -8 -61 -13
-67 -4 -5 -4 -32 0 -58 4 -27 8 -111 9 -188 l2 -138 -48 -23 c-40 -19 -65 -23
-153 -23 -99 0 -105 1 -102 20 1 11 3 28 4 38 1 9 6 17 11 17 5 0 7 6 4 13 -3
8 -1 36 5 63 5 27 11 78 13 114 2 36 7 97 11 135 4 39 6 82 5 97 -3 33 3 37
75 44 32 3 65 9 73 14 19 11 38 12 78 4z m1743 -49 c0 -8 -4 -15 -10 -15 -5 0
-7 7 -4 15 4 8 8 15 10 15 2 0 4 -7 4 -15z m-1340 -45 c-8 -5 -22 -10 -30 -10
-13 0 -13 1 0 10 8 5 22 10 30 10 13 0 13 -1 0 -10z m1490 -15 c-7 -8 -20 -15
-29 -15 -13 1 -13 3 3 15 26 19 42 19 26 0z m-1364 -87 c-1 -67 6 -151 19
-217 3 -14 8 -51 10 -81 3 -30 8 -69 10 -87 5 -29 2 -34 -37 -56 -61 -35 -92
-40 -135 -22 -44 19 -60 14 -73 -20 -8 -22 -20 -28 -46 -24 -4 0 -10 -3 -13
-8 -5 -7 -100 -45 -151 -60 -13 -3 -15 28 -14 243 l1 247 36 22 c21 12 52 22
70 23 18 1 58 13 90 26 31 14 67 28 79 30 68 15 98 25 119 40 13 9 26 16 30
16 4 0 6 -33 5 -72z m1474 48 c0 -3 -4 -8 -10 -11 -5 -3 -10 -1 -10 4 0 6 5
11 10 11 6 0 10 -2 10 -4z m-79 -48 c1 -4 18 -224 24 -315 2 -40 5 -76 6 -80
5 -31 -3 -73 -14 -73 -14 0 -179 -78 -187 -88 -5 -8 -107 -62 -115 -62 -2 0
-2 7 1 15 4 8 1 15 -4 15 -9 0 -15 83 -13 165 0 11 -3 43 -9 70 -14 78 -23
146 -24 193 -1 49 -15 40 154 102 41 15 91 34 110 43 31 14 69 21 71 15z m416
-230 c-3 -7 -5 -2 -5 12 0 14 2 19 5 13 2 -7 2 -19 0 -25z m-1697 -58 c0 -5
-5 -10 -11 -10 -5 0 -7 5 -4 10 3 6 8 10 11 10 2 0 4 -4 4 -10z m640 -35 c-7
-9 -15 -13 -17 -11 -7 7 7 26 19 26 6 0 6 -6 -2 -15z m-215 -47 c7 -63 11
-429 5 -476 -6 -45 -34 -61 -210 -118 -80 -26 -150 -49 -156 -51 -20 -8 -31
49 -32 172 -1 66 -5 134 -10 150 -5 17 -9 75 -10 131 l-1 100 43 12 c24 6 51
18 59 26 8 8 17 12 20 9 7 -6 56 10 98 33 15 7 52 20 83 28 30 8 64 19 73 25
29 17 31 14 38 -41z m-600 -758 c-3 -5 -12 -10 -18 -10 -7 0 -6 4 3 10 19 12
23 12 15 0z m-35 -15 c0 -2 -10 -9 -22 -15 -22 -11 -22 -10 -4 4 21 17 26 19
26 11z"/>
</g>
</svg>
