<?xml version="1.0" standalone="no"?>
<!DOCTYPE svg PUBLIC "-//W3C//DTD SVG 20010904//EN"
 "http://www.w3.org/TR/2001/REC-SVG-20010904/DTD/svg10.dtd">
<svg version="1.0" xmlns="http://www.w3.org/2000/svg"
 width="533.000000pt" height="437.000000pt" viewBox="0 0 533.000000 437.000000"
 preserveAspectRatio="xMidYMid meet">
<metadata>
Created by potrace 1.16, written by Peter Selinger 2001-2019
</metadata>
<g transform="translate(0.000000,437.000000) scale(0.100000,-0.100000)"
fill="#000000" stroke="none">
<path d="M3060 4245 c-27 -7 -59 -8 -80 -3 -33 7 -246 2 -260 -7 -3 -2 -53 -7
-110 -10 -58 -4 -118 -9 -135 -11 -45 -7 -176 -15 -300 -18 -61 -1 -115 -5
-121 -9 -6 -3 -17 -40 -24 -82 -7 -42 -17 -78 -21 -81 -5 -3 -9 -18 -9 -33 0
-15 -3 -31 -7 -34 -3 -4 -8 -22 -10 -39 -7 -64 -25 -153 -37 -183 -7 -17 -16
-52 -20 -77 -4 -26 -12 -50 -17 -54 -6 -3 -42 -5 -82 -4 -40 1 -76 1 -82 1 -5
-1 -46 -3 -89 -5 -90 -4 -100 -11 -109 -79 -3 -24 -20 -72 -37 -108 -16 -35
-33 -80 -36 -99 -4 -19 -10 -39 -13 -45 -4 -5 -8 -28 -10 -50 -1 -22 -9 -61
-17 -87 -36 -120 -43 -147 -54 -213 -7 -38 -23 -108 -37 -155 -14 -47 -32
-112 -40 -145 -21 -85 -43 -166 -55 -197 -6 -15 -23 -74 -38 -130 -15 -57 -39
-134 -54 -173 -14 -38 -26 -75 -26 -82 0 -6 -5 -24 -12 -40 -6 -15 -11 -31
-10 -34 2 -10 -66 -277 -73 -289 -6 -10 -75 -253 -95 -335 -6 -22 -17 -56 -24
-75 -8 -19 -22 -62 -31 -95 -10 -33 -25 -87 -35 -120 -10 -33 -21 -73 -24 -90
-2 -16 -5 -30 -6 -30 -1 0 -3 -7 -5 -15 -3 -18 -41 -156 -62 -225 -8 -27 -19
-59 -25 -70 -6 -11 -12 -34 -14 -51 -2 -35 12 -47 77 -64 95 -24 179 -53 179
-61 0 -5 3 -8 8 -7 4 1 23 -2 42 -5 19 -4 57 -9 85 -12 27 -3 74 -12 105 -19
30 -8 81 -17 113 -20 67 -7 108 -16 122 -26 22 -18 236 -64 342 -75 61 -6 179
-26 298 -50 158 -32 641 -92 652 -81 3 3 18 -1 34 -10 32 -16 79 -10 79 11 0
8 21 15 56 20 31 4 74 13 96 21 22 8 44 12 48 9 4 -3 27 2 51 10 24 8 78 21
119 29 154 31 253 55 289 69 34 14 76 24 126 30 11 1 26 8 33 15 7 6 20 12 28
12 8 0 22 4 32 9 9 5 35 14 57 21 22 7 74 27 115 45 120 52 409 147 439 143
27 -2 101 27 101 40 0 4 10 12 23 17 20 9 22 16 20 87 -1 52 -9 99 -26 150
-24 67 -40 130 -38 143 1 3 -5 18 -14 35 -8 16 -15 39 -15 51 0 12 -16 75 -35
140 -19 65 -35 126 -35 134 0 9 -11 41 -25 72 -26 56 -95 308 -95 345 0 11 -6
34 -14 51 -17 38 -58 167 -80 257 -9 36 -23 85 -31 110 -28 90 -76 267 -97
350 -11 47 -23 92 -26 100 -3 8 -7 24 -9 35 -19 109 -66 303 -95 390 -11 33
-21 67 -23 75 -2 8 -10 35 -19 60 -8 25 -18 70 -22 100 -4 30 -17 87 -29 125
-12 39 -25 81 -29 95 -14 54 -75 102 -114 90 -15 -5 -64 -11 -110 -14 -65 -5
-82 -4 -80 6 2 12 -4 47 -18 108 -23 98 -51 262 -49 286 1 16 6 50 10 76 6 37
3 51 -11 72 -11 14 -26 26 -35 26 -9 0 -19 3 -23 7 -3 4 -39 7 -79 8 -76 1
-97 7 -97 30 0 21 -11 23 -60 10z m-65 -126 c10 -10 11 -10 -32 -14 -18 -1
-33 2 -33 7 0 5 -5 6 -11 3 -14 -9 -59 3 -59 16 0 14 120 3 135 -12z m80 -5
c22 -3 63 -8 90 -11 28 -3 55 -9 62 -15 7 -5 17 -7 23 -3 12 8 13 0 15 -95 1
-41 5 -95 8 -120 4 -25 12 -80 18 -123 6 -44 15 -90 20 -104 5 -14 7 -28 5
-31 -3 -2 -39 -7 -81 -9 -74 -5 -75 -5 -73 19 1 25 -19 89 -57 178 -12 30 -33
80 -44 110 -12 30 -27 65 -33 77 -6 12 -8 40 -4 66 4 28 3 48 -4 52 -14 9 -13
25 3 19 7 -2 31 -7 52 -10z m-771 -40 c11 -8 29 -14 40 -14 19 0 19 -3 1 -125
-1 -11 -11 -47 -20 -80 -33 -115 -56 -230 -50 -254 l6 -24 -113 7 c-62 4 -123
7 -135 7 -17 -1 -21 4 -17 22 2 12 8 46 14 76 5 30 14 59 19 65 5 6 14 45 20
86 7 41 16 89 21 105 5 17 16 55 25 86 l16 56 76 1 c51 0 83 -4 97 -14z m258
-18 c90 -7 123 -12 136 -19 4 -3 25 -8 47 -11 33 -5 108 -21 150 -31 6 -2 19
-20 29 -41 11 -22 27 -55 38 -75 10 -20 18 -42 18 -49 0 -7 6 -26 14 -43 28
-67 58 -168 51 -175 -3 -4 -57 -8 -118 -10 -118 -3 -380 -11 -483 -15 l-60 -2
-2 32 c-2 17 2 53 9 80 11 47 14 63 22 113 3 14 9 43 15 65 6 22 16 75 23 117
6 43 14 76 18 74 3 -2 45 -7 93 -10z m-652 -562 c63 -3 118 -8 121 -10 18 -11
367 -3 554 12 62 5 230 7 323 5 l34 -1 -5 -162 c-4 -163 -13 -340 -21 -432 -3
-26 -7 -99 -11 -161 -3 -63 -8 -123 -10 -134 -7 -36 -14 -142 -25 -351 -6
-113 -14 -212 -16 -220 -3 -8 -8 -107 -10 -220 -2 -113 -6 -272 -9 -355 -2
-82 -7 -231 -10 -330 -10 -304 -18 -423 -36 -520 -13 -71 -23 -186 -27 -298
l-2 -58 -82 6 c-46 3 -101 8 -123 11 -22 3 -47 5 -55 6 -8 0 -32 4 -53 10 -21
5 -55 11 -75 12 -126 11 -258 29 -267 36 -6 5 -42 11 -80 14 -39 3 -86 10
-105 15 -19 6 -75 14 -125 19 -49 6 -103 15 -120 22 -16 7 -48 14 -70 16 -50
3 -112 19 -128 32 -16 13 -82 26 -132 24 -22 0 -67 8 -100 18 -33 10 -85 21
-115 25 -51 6 -235 57 -271 76 -15 8 -14 19 13 116 16 59 42 162 58 228 34
140 72 276 129 465 53 176 93 318 146 515 23 88 52 187 63 220 12 33 34 110
51 170 16 61 43 151 59 200 16 50 38 126 47 170 10 44 26 109 36 145 11 36 28
110 38 165 11 56 24 113 30 127 5 14 17 60 26 102 8 42 32 119 52 171 41 106
51 114 138 109 28 -2 102 -6 165 -10z m1305 7 c72 0 192 2 267 4 139 3 155 -1
155 -35 0 -8 12 -49 26 -90 14 -41 30 -109 37 -150 15 -96 35 -169 70 -250 16
-36 31 -81 34 -100 9 -53 16 -88 31 -160 8 -36 24 -105 35 -155 11 -49 28
-115 39 -145 11 -30 27 -84 36 -120 9 -36 20 -76 25 -90 20 -58 49 -157 53
-185 6 -40 29 -117 38 -130 18 -26 68 -213 85 -325 6 -41 29 -112 44 -137 19
-33 81 -238 100 -330 11 -51 26 -109 35 -129 8 -20 15 -47 15 -60 0 -20 26
-127 41 -169 2 -5 0 -11 -5 -12 -5 -1 -12 -6 -16 -13 -4 -6 -51 -24 -106 -39
-105 -31 -279 -92 -404 -143 -41 -17 -97 -37 -125 -45 -27 -8 -54 -18 -60 -22
-5 -4 -37 -16 -70 -25 -33 -10 -78 -24 -100 -32 -22 -7 -54 -16 -70 -19 -29
-4 -69 -13 -150 -34 -22 -5 -42 -10 -45 -11 -3 0 -21 -5 -40 -10 -59 -15 -173
-40 -205 -45 -16 -2 -51 -7 -76 -11 l-45 -6 8 73 c4 41 8 99 9 129 0 30 5 87
11 125 12 90 17 171 23 375 2 91 7 214 11 274 3 59 7 252 9 427 2 176 6 332 9
347 7 34 13 116 21 302 3 80 11 186 16 235 6 50 12 120 14 156 2 36 8 113 14
170 6 57 13 158 15 224 3 66 8 134 12 150 3 17 6 78 7 136 2 101 3 107 22 103
11 -2 79 -4 150 -3z"/>
<path d="M1803 3163 c-16 -6 -17 -40 -2 -82 8 -23 8 -43 0 -74 -15 -59 -20
-118 -11 -143 12 -31 54 -36 89 -10 16 12 38 27 48 34 14 10 18 22 15 46 -2
18 3 55 10 82 19 65 7 132 -25 138 -43 9 -112 14 -124 9z"/>
<path d="M2173 3121 c-33 -27 -52 -101 -58 -228 -2 -43 1 -57 21 -78 13 -14
32 -25 43 -25 22 0 61 48 54 67 -3 7 4 28 15 45 22 37 35 81 34 116 -1 60 -3
72 -17 86 -9 8 -22 13 -30 10 -8 -4 -15 -2 -15 4 0 18 -26 20 -47 3z"/>
<path d="M2560 3083 c-16 -2 -33 -17 -46 -41 -21 -35 -48 -140 -46 -172 1 -8
2 -34 2 -57 1 -46 18 -63 63 -63 22 0 28 9 50 73 36 100 38 108 38 170 1 47
-16 100 -31 96 -3 -1 -16 -4 -30 -6z"/>
<path d="M1611 2662 c-27 -21 -67 -157 -70 -234 -1 -50 1 -57 25 -73 33 -21
66 -13 89 21 19 30 46 170 43 224 -4 71 -43 99 -87 62z"/>
<path d="M1910 2637 c0 -6 -13 -18 -29 -25 -28 -12 -29 -15 -29 -80 0 -37 -4
-89 -10 -117 -12 -60 -4 -72 54 -79 l40 -5 23 76 c27 88 46 206 37 228 -7 19
-86 21 -86 2z"/>
<path d="M2203 2603 c-42 -8 -48 -28 -45 -157 2 -66 6 -124 10 -127 4 -4 21
-9 37 -12 45 -8 75 21 82 80 2 26 12 63 20 81 20 43 8 82 -30 100 -16 8 -31
20 -34 28 -3 8 -8 13 -12 13 -3 -1 -16 -4 -28 -6z"/>
<path d="M2558 2518 c-24 -8 -33 -24 -29 -50 0 -4 -6 -26 -14 -49 -21 -59 -19
-115 5 -139 26 -26 54 -25 78 1 25 26 30 55 29 148 -2 62 -5 76 -22 86 -14 9
-28 10 -47 3z"/>
<path d="M1526 2105 c-9 -7 -16 -17 -16 -24 0 -6 -4 -11 -9 -11 -17 0 -24 -27
-47 -182 -4 -30 -3 -48 3 -48 6 0 9 -12 7 -28 -4 -33 4 -47 31 -55 37 -11 53
14 65 104 6 46 18 112 26 147 8 35 12 72 9 82 -7 22 -47 31 -69 15z"/>
<path d="M1756 2051 c-3 -4 -7 -23 -10 -42 -2 -19 -10 -74 -17 -122 -15 -98
-9 -120 34 -125 20 -3 31 5 51 35 14 21 26 47 26 58 0 11 7 51 15 90 12 61 12
72 -1 92 -11 18 -24 23 -54 23 -21 0 -41 -4 -44 -9z"/>
<path d="M2078 2038 c-22 -8 -28 -16 -29 -41 -1 -18 -1 -36 0 -40 1 -5 -5 -50
-14 -101 -9 -51 -15 -108 -14 -127 2 -29 7 -34 28 -36 30 -2 71 32 71 59 0 10
8 31 18 46 14 21 17 46 15 125 -2 124 -12 139 -75 115z"/>
<path d="M2390 1956 c-5 -5 -10 -7 -10 -2 0 4 -13 -1 -30 -11 -31 -18 -37 -28
-21 -37 5 -4 5 -23 0 -47 -6 -23 -10 -66 -11 -97 -1 -43 2 -58 17 -68 51 -37
90 -2 98 86 5 68 12 103 22 120 3 5 -1 22 -9 38 -15 29 -37 37 -56 18z"/>
<path d="M2648 1941 c-19 -15 -25 -30 -26 -63 -2 -58 -12 -132 -21 -165 -9
-33 2 -71 27 -89 43 -33 76 0 87 87 5 35 9 66 10 69 14 50 14 92 0 126 -24 58
-39 64 -77 35z"/>
<path d="M1275 1557 c-8 -17 -15 -38 -15 -47 0 -10 -11 -62 -25 -116 -29 -108
-29 -151 -2 -168 24 -15 72 12 73 42 1 12 9 31 18 41 9 10 16 35 16 57 0 21 7
66 15 99 21 88 20 114 -7 119 -42 9 -58 3 -73 -27z"/>
<path d="M1603 1504 c-13 -14 -23 -35 -23 -47 0 -12 -7 -44 -15 -71 -15 -50
-19 -124 -9 -162 9 -33 48 -47 73 -26 20 16 29 57 46 191 3 23 8 47 11 52 12
20 -8 66 -32 78 -31 14 -25 15 -51 -15z"/>
<path d="M1910 1467 c-14 -6 -28 -16 -32 -21 -9 -13 -19 -109 -22 -220 -2 -78
0 -92 18 -111 16 -17 26 -20 42 -14 26 9 34 21 39 57 2 15 8 50 14 77 5 28 9
57 8 65 -1 8 2 38 7 66 6 40 4 59 -8 83 -18 33 -27 36 -66 18z"/>
<path d="M2202 1423 c-15 -28 -15 -312 -1 -329 19 -23 68 -18 78 9 23 62 32
102 38 177 5 71 4 84 -10 92 -10 5 -17 17 -17 26 0 10 -5 23 -12 30 -18 18
-66 15 -76 -5z"/>
<path d="M2540 1323 c-39 -15 -49 -34 -44 -86 3 -29 1 -79 -4 -113 -9 -63 1
-104 24 -104 7 0 19 -3 27 -6 20 -7 45 31 52 81 3 22 11 65 17 95 10 48 12
119 4 127 -7 7 -63 12 -76 6z"/>
<path d="M1170 993 c-8 -4 -21 -13 -29 -20 -39 -40 -50 -246 -14 -267 27 -16
50 -17 60 -3 10 13 55 220 55 250 -1 38 -32 55 -72 40z"/>
<path d="M1539 925 c-13 -8 -34 -20 -46 -26 -32 -17 -36 -38 -36 -176 0 -131
7 -153 49 -153 33 0 51 34 58 109 7 66 15 86 49 133 20 26 20 29 3 66 -23 51
-46 65 -77 47z"/>
<path d="M1877 839 c-9 -6 -17 -7 -17 -4 0 4 -14 -5 -32 -20 -32 -27 -32 -28
-34 -124 -2 -103 10 -141 46 -141 29 0 67 58 69 107 0 22 5 53 11 68 5 14 10
44 10 65 0 44 -23 65 -53 49z"/>
<path d="M2594 819 c-30 -15 -50 -98 -60 -255 -4 -69 -3 -71 22 -83 36 -16 74
8 74 48 0 15 9 70 20 122 27 130 26 157 -6 169 -14 6 -26 10 -27 9 -1 0 -11
-5 -23 -10z"/>
<path d="M2194 778 c-20 -16 -29 -32 -30 -53 0 -16 -4 -52 -8 -80 -16 -99 -2
-144 45 -145 40 0 52 25 70 146 10 65 18 127 18 137 1 26 -58 22 -95 -5z"/>
<path d="M3625 2752 c-18 -4 -83 -48 -96 -65 -3 -4 -46 -33 -97 -65 -50 -32
-113 -78 -139 -102 -64 -60 -121 -103 -160 -124 -25 -12 -33 -23 -33 -44 0
-35 9 -48 40 -60 22 -9 33 -4 85 39 98 80 164 129 173 129 5 0 17 9 28 21 25
28 160 121 207 143 45 21 62 52 53 100 -7 35 -12 38 -61 28z"/>
<path d="M3645 2334 c-16 -14 -44 -38 -60 -52 -17 -15 -49 -40 -73 -56 -23
-16 -54 -40 -69 -54 -15 -14 -57 -48 -93 -76 -36 -28 -79 -64 -96 -81 -17 -16
-47 -44 -67 -61 -20 -17 -43 -46 -51 -65 -13 -31 -13 -36 6 -56 30 -32 61 -17
156 76 45 44 89 81 97 81 8 0 15 6 16 13 0 6 34 37 75 67 42 30 88 67 102 82
15 15 32 28 37 28 6 0 26 13 45 30 19 16 40 29 46 30 7 0 19 16 28 35 16 32
16 36 0 60 -21 33 -60 33 -99 -1z"/>
<path d="M3726 1843 c-10 -3 -29 -16 -41 -29 -12 -13 -29 -24 -38 -24 -8 0
-17 -7 -21 -15 -3 -8 -11 -15 -18 -15 -8 0 -29 -14 -48 -32 -57 -51 -153 -124
-188 -142 -18 -9 -50 -35 -71 -57 -21 -21 -43 -39 -49 -39 -5 0 -13 -7 -16
-16 -3 -8 -10 -13 -15 -10 -8 5 -17 -13 -26 -53 -4 -16 38 -61 57 -61 8 0 43
28 78 61 36 34 90 78 120 99 30 21 65 47 77 59 12 12 27 21 33 21 5 0 10 5 10
11 0 5 4 8 8 5 5 -3 29 13 53 34 24 22 54 43 67 46 12 3 22 10 22 15 0 5 6 9
14 9 7 0 19 7 26 15 7 8 21 15 33 15 17 0 19 5 14 45 -2 26 -7 48 -10 51 -7 8
-50 12 -71 7z"/>
<path d="M3875 1469 c-4 -6 -13 -8 -21 -5 -8 3 -14 -1 -14 -8 0 -7 -20 -31
-45 -52 -25 -22 -76 -67 -114 -101 -37 -35 -71 -63 -76 -63 -4 0 -24 -17 -43
-37 -19 -21 -37 -37 -39 -35 -2 1 -18 -9 -37 -23 -18 -14 -36 -25 -41 -25 -10
0 -100 -77 -192 -164 -63 -59 -73 -73 -73 -103 0 -27 5 -35 26 -43 14 -6 28
-10 32 -10 4 0 39 30 78 68 108 103 166 152 181 152 7 0 13 4 13 8 0 5 19 19
41 32 23 12 50 31 60 41 10 10 40 33 67 52 27 18 69 52 93 76 47 45 159 131
172 131 9 0 9 52 1 75 -9 22 -61 48 -69 34z"/>
<path d="M3853 994 c-26 -24 -52 -43 -56 -44 -15 0 -180 -113 -232 -157 -27
-24 -73 -58 -102 -76 -108 -67 -190 -126 -237 -169 l-50 -46 18 -26 c9 -15 24
-30 32 -33 19 -7 71 15 78 33 3 8 12 14 20 14 8 0 16 4 18 9 4 12 44 41 171
126 54 36 104 70 110 76 34 29 190 139 198 139 5 0 11 0 14 0 3 0 14 9 25 20
11 11 42 30 69 42 55 24 63 39 47 88 -9 27 -18 36 -43 41 -28 6 -38 1 -80 -37z"/>
</g>
</svg>
