<?xml version="1.0" standalone="no"?>
<!DOCTYPE svg PUBLIC "-//W3C//DTD SVG 20010904//EN"
 "http://www.w3.org/TR/2001/REC-SVG-20010904/DTD/svg10.dtd">
<svg version="1.0" xmlns="http://www.w3.org/2000/svg"
 width="563.000000pt" height="435.000000pt" viewBox="0 0 563.000000 435.000000"
 preserveAspectRatio="xMidYMid meet">
<metadata>
Created by potrace 1.16, written by Peter Selinger 2001-2019
</metadata>
<g transform="translate(0.000000,435.000000) scale(0.100000,-0.100000)"
fill="#000000" stroke="none">
<path d="M3528 4066 c-20 -6 -40 -14 -44 -18 -4 -5 -17 -8 -30 -8 -12 0 -24
-3 -26 -7 -4 -11 -83 -48 -153 -71 -150 -50 -555 -195 -620 -222 -16 -6 -57
-22 -90 -35 -33 -12 -159 -62 -280 -110 -121 -48 -258 -100 -305 -115 -90 -30
-263 -93 -495 -180 -77 -28 -153 -55 -170 -59 -29 -8 -237 -87 -302 -116 -23
-10 -33 -22 -34 -37 -1 -46 -26 -125 -69 -223 -5 -11 -21 -60 -35 -110 -14
-49 -30 -98 -36 -108 -5 -10 -16 -50 -24 -90 -7 -40 -18 -90 -24 -112 -5 -22
-17 -71 -25 -110 -8 -38 -24 -106 -36 -150 -12 -44 -23 -89 -25 -100 -7 -40
-21 -89 -35 -120 -13 -31 -50 -134 -50 -143 0 -4 -8 -31 -17 -59 -16 -50 -16
-53 3 -74 11 -13 17 -32 16 -50 -3 -26 28 -74 95 -147 7 -7 13 -17 13 -20 0
-4 8 -12 19 -17 10 -6 42 -23 71 -38 28 -16 58 -26 65 -23 7 2 35 -2 62 -10
47 -15 156 -21 200 -11 51 12 149 74 217 137 114 104 127 126 108 178 -6 15
-13 59 -16 97 -10 114 -18 157 -38 205 -11 25 -24 68 -28 95 -4 28 -20 104
-34 170 -15 66 -32 145 -38 175 -7 30 -15 57 -18 60 -5 4 -25 64 -36 109 -10
43 -24 90 -39 131 -9 24 -20 63 -25 85 -5 22 -18 76 -30 120 -41 148 -45 135
57 172 48 18 124 45 168 61 44 16 139 50 210 76 72 26 163 61 204 77 40 16 79
29 86 29 8 0 15 3 17 8 2 4 55 24 118 46 63 21 129 45 145 52 17 7 67 27 111
43 l82 30 8 -47 c12 -75 12 -2774 0 -2795 -6 -9 -18 -17 -28 -17 -9 0 -36 -10
-60 -23 -103 -56 -167 -93 -230 -134 -37 -23 -72 -43 -77 -43 -5 0 -11 -4 -13
-8 -6 -17 -87 -83 -105 -87 -10 -2 -31 -10 -48 -19 -16 -9 -39 -16 -50 -16
-51 -1 -65 -11 -65 -49 0 -64 5 -66 151 -67 101 -1 133 -4 140 -15 7 -11 9
-11 9 3 0 16 18 17 238 13 788 -13 885 -12 904 7 15 15 17 27 12 56 -3 20 -11
42 -18 48 -15 16 -166 96 -166 89 0 -4 -19 8 -43 25 -24 17 -59 39 -78 49 -82
45 -199 100 -254 122 -33 13 -61 27 -63 32 -2 4 -15 7 -28 7 -16 0 -23 4 -18
11 6 10 6 116 -1 254 -2 54 -5 2519 -3 2607 1 36 3 37 62 58 34 11 75 27 91
35 17 8 80 31 140 51 61 20 119 41 130 47 34 18 375 138 490 172 33 10 80 26
105 36 32 12 47 14 52 6 4 -6 5 -14 2 -18 -2 -4 -9 -42 -14 -85 -6 -44 -15
-92 -20 -109 -9 -29 -15 -65 -26 -165 -2 -25 -9 -67 -14 -95 -5 -27 -10 -68
-11 -90 -1 -22 -6 -58 -11 -79 -5 -22 -13 -60 -18 -85 -4 -26 -24 -122 -43
-216 -62 -298 -68 -329 -73 -365 -7 -46 -13 -64 -20 -57 -9 9 -29 -14 -36 -41
-4 -13 -3 -35 2 -50 5 -15 11 -40 14 -57 9 -62 40 -136 60 -147 12 -6 26 -17
31 -24 6 -7 34 -24 63 -39 28 -15 52 -31 52 -36 0 -5 8 -9 18 -9 10 0 22 -3
26 -7 3 -4 23 -13 44 -20 69 -25 168 -5 276 54 47 26 124 106 132 138 3 17 14
38 23 49 35 40 48 198 19 234 -7 7 -22 12 -35 9 -37 -7 -50 23 -84 188 -12 55
-27 116 -34 135 -14 37 -71 261 -100 390 -14 64 -37 193 -60 340 -6 37 -17 90
-37 166 -6 25 -12 76 -13 112 -3 84 -1 78 -25 102 -22 22 -56 24 -112 6z m122
-549 c6 -55 15 -108 19 -117 8 -15 18 -58 27 -115 3 -16 10 -45 15 -62 6 -18
8 -37 4 -43 -3 -5 -1 -18 4 -28 6 -11 12 -30 15 -43 14 -64 46 -185 60 -227 9
-26 22 -82 30 -124 8 -43 20 -87 26 -99 18 -33 -2 -44 -83 -45 -40 -1 -129 -3
-199 -5 -75 -2 -131 1 -137 6 -9 9 6 134 24 205 3 14 10 53 15 87 4 34 10 65
13 70 9 14 75 394 82 468 4 39 10 86 15 105 5 19 14 62 21 95 l12 60 13 -43
c7 -24 18 -89 24 -145z m-2585 -584 c3 -21 12 -49 19 -63 8 -14 16 -43 20 -65
4 -22 18 -74 31 -115 13 -41 31 -104 41 -140 10 -36 23 -74 30 -85 10 -17 43
-162 59 -265 4 -19 12 -55 20 -80 21 -70 57 -230 64 -287 7 -45 5 -54 -10 -58
-9 -3 -86 -5 -170 -5 -85 0 -223 -3 -308 -6 -149 -7 -154 -6 -147 12 4 10 12
43 17 72 6 29 19 74 30 99 19 46 29 88 75 312 14 69 29 132 35 142 5 10 16 53
25 96 8 43 28 117 45 164 16 48 30 95 32 105 2 11 7 26 10 34 4 8 14 38 22 65
23 69 39 105 47 105 4 0 10 -17 13 -37z m2400 -603 c3 -5 2 -10 -4 -10 -5 0
-13 5 -16 10 -3 6 -2 10 4 10 5 0 13 -4 16 -10z m170 -80 c3 -5 -1 -10 -9 -10
-9 0 -16 5 -16 10 0 6 4 10 9 10 6 0 13 -4 16 -10z m-2775 -720 c0 -5 -4 -10
-10 -10 -5 0 -10 5 -10 10 0 6 5 10 10 10 6 0 10 -4 10 -10z"/>
<path d="M1987 41 c-4 -17 -3 -21 5 -13 5 5 8 16 6 23 -3 8 -7 3 -11 -10z"/>
</g>
</svg>
