<?xml version="1.0" standalone="no"?>
<!DOCTYPE svg PUBLIC "-//W3C//DTD SVG 20010904//EN"
 "http://www.w3.org/TR/2001/REC-SVG-20010904/DTD/svg10.dtd">
<svg version="1.0" xmlns="http://www.w3.org/2000/svg"
 width="144.000000pt" height="160.000000pt" viewBox="0 0 144.000000 160.000000"
 preserveAspectRatio="xMidYMid meet">
<metadata>
Created by potrace 1.16, written by Peter Selinger 2001-2019
</metadata>
<g transform="translate(0.000000,160.000000) scale(0.100000,-0.100000)"
fill="#000000" stroke="none">
<path d="M585 1399 c-115 -12 -216 -37 -282 -69 -84 -42 -90 -60 -67 -217 14
-93 16 -166 13 -343 -8 -420 -6 -448 24 -505 15 -27 32 -57 39 -65 56 -67 321
-150 481 -150 119 0 280 78 322 155 15 29 17 48 12 114 l-6 79 47 40 c35 29
53 55 69 99 13 32 23 66 23 76 0 9 21 56 46 104 62 118 61 188 -4 256 -37 40
-83 57 -157 58 l-63 2 -6 111 c-11 177 -19 189 -141 219 -140 34 -257 46 -350
36z m197 -40 c172 -35 204 -44 225 -65 29 -29 25 -80 -8 -106 -83 -65 -207
-106 -354 -114 -235 -15 -384 52 -373 166 2 28 10 39 43 57 101 57 336 89 467
62z m260 -282 c5 -58 5 -58 -29 -72 -18 -8 -33 -21 -33 -29 0 -20 9 -20 71 0
59 19 149 15 196 -10 40 -20 77 -95 70 -140 -3 -17 -21 -59 -41 -91 -20 -33
-48 -98 -62 -145 -39 -127 -103 -174 -210 -154 -27 5 -34 3 -34 -9 0 -22 16
-29 68 -32 l45 -1 4 -83 4 -83 -44 -42 c-69 -67 -147 -91 -282 -90 -98 1 -123
6 -225 39 -150 48 -198 79 -233 148 l-27 54 2 334 c2 184 -1 360 -5 393 l-9
58 34 -25 c19 -15 61 -33 93 -42 68 -19 254 -26 330 -13 83 15 202 58 253 92
54 37 57 35 64 -57z"/>
<path d="M1085 895 c-16 -8 -47 -14 -67 -15 -31 0 -38 -4 -38 -20 0 -16 7 -20
35 -20 l35 0 1 -72 c0 -40 3 -103 5 -141 5 -59 3 -68 -13 -73 -55 -17 -57 -40
-4 -37 68 5 98 44 127 168 8 33 26 77 39 97 27 40 33 96 13 116 -16 16 -95 14
-133 -3z m110 -26 c4 -5 -9 -42 -28 -82 -19 -40 -40 -99 -47 -132 l-13 -60 -8
35 c-7 30 -14 180 -10 217 2 22 95 42 106 22z"/>
</g>
</svg>
