<?xml version="1.0" standalone="no"?>
<!DOCTYPE svg PUBLIC "-//W3C//DTD SVG 20010904//EN"
 "http://www.w3.org/TR/2001/REC-SVG-20010904/DTD/svg10.dtd">
<svg version="1.0" xmlns="http://www.w3.org/2000/svg"
 width="475.000000pt" height="423.000000pt" viewBox="0 0 475.000000 423.000000"
 preserveAspectRatio="xMidYMid meet">
<metadata>
Created by potrace 1.16, written by Peter Selinger 2001-2019
</metadata>
<g transform="translate(0.000000,423.000000) scale(0.100000,-0.100000)"
fill="#000000" stroke="none">
<path d="M2307 3904 c-1 -1 -26 -5 -56 -8 -68 -7 -122 -16 -141 -23 -17 -6
-25 -8 -90 -17 -49 -7 -236 -49 -260 -58 -8 -4 -31 -9 -50 -12 -19 -3 -98 -17
-175 -31 -77 -14 -165 -28 -195 -31 -30 -3 -93 -14 -140 -24 -47 -11 -112 -24
-145 -30 -33 -6 -85 -17 -115 -26 -30 -9 -107 -27 -170 -40 -63 -14 -122 -27
-130 -30 -8 -2 -62 -14 -120 -25 -58 -11 -115 -22 -128 -25 -12 -2 -30 -13
-40 -24 -9 -11 -22 -20 -28 -20 -12 0 -24 -31 -24 -65 0 -22 105 -142 204
-235 102 -95 198 -200 213 -233 6 -12 22 -47 36 -77 14 -30 31 -80 37 -110 16
-71 56 -225 71 -270 4 -14 10 -57 13 -96 3 -39 10 -82 15 -97 6 -14 12 -67 15
-116 3 -50 7 -95 10 -100 7 -11 19 -274 21 -471 4 -250 6 -305 15 -371 16
-109 34 -359 31 -413 -1 -16 -7 -36 -13 -43 -18 -22 -3 -139 22 -165 11 -12
20 -26 20 -32 0 -17 53 -116 62 -116 4 0 8 -6 8 -13 0 -8 11 -19 25 -25 14 -6
25 -15 25 -20 0 -14 171 -94 228 -106 17 -4 32 -11 32 -15 0 -5 33 -11 73 -15
113 -11 157 -16 222 -26 33 -6 69 -10 80 -10 11 1 65 1 120 1 55 0 129 4 165
9 184 24 441 61 490 71 325 64 462 102 540 150 8 5 23 12 33 15 9 4 17 10 17
15 0 5 7 9 15 9 8 0 15 5 15 11 0 7 10 21 23 33 13 12 32 36 42 54 11 18 23
32 27 32 4 0 8 6 8 14 0 8 7 17 16 20 14 5 15 22 11 121 -3 65 -1 112 4 109 5
-3 9 1 9 8 0 8 15 22 33 33 17 10 49 35 71 54 177 163 231 217 259 257 15 23
36 50 47 62 11 12 20 26 20 32 0 6 9 28 20 49 10 21 21 49 24 62 3 13 10 49
16 79 6 30 11 73 11 95 0 22 2 78 4 125 7 147 17 556 18 770 1 172 -1 216 -17
271 -19 70 -52 119 -80 119 -9 0 -31 8 -49 17 -26 13 -54 16 -152 13 -151 -5
-244 -4 -251 3 -3 3 -7 59 -10 124 -4 121 -5 133 -24 263 -6 41 -14 104 -17
140 -3 36 -11 72 -19 81 -8 8 -14 18 -14 22 0 20 -64 102 -106 134 -70 55
-145 103 -161 103 -7 0 -13 4 -13 9 0 5 -12 11 -27 14 -16 3 -84 17 -153 32
-99 21 -156 27 -273 29 -81 1 -149 1 -150 0z m303 -110 c19 -3 62 -11 95 -19
33 -8 75 -17 94 -21 49 -9 181 -80 181 -96 0 -5 15 -23 34 -41 42 -40 66 -90
67 -142 2 -43 -27 -155 -40 -155 -4 0 -14 -12 -22 -27 -48 -91 -140 -132 -334
-149 -38 -3 -73 -8 -78 -11 -15 -9 -180 -5 -230 7 -26 5 -85 13 -130 16 -76 4
-130 11 -167 21 -15 4 -30 6 -130 18 -83 9 -182 25 -192 31 -4 3 -18 7 -30 9
-13 3 -24 9 -26 15 -2 6 -7 8 -12 5 -4 -2 -50 6 -101 20 -52 13 -116 27 -144
30 -27 4 -58 9 -67 11 -10 3 -41 7 -70 9 -83 7 -151 15 -178 21 -14 3 -63 10
-110 15 -47 6 -92 13 -100 15 -8 3 -44 8 -80 10 -90 6 -115 10 -128 17 -5 4
-31 9 -56 12 -25 3 -67 7 -93 10 -26 3 -50 8 -55 13 -7 7 62 26 167 47 108 21
280 59 320 70 28 8 70 17 95 20 24 4 47 8 51 11 3 2 35 6 70 9 35 4 87 13 114
20 51 14 115 25 164 29 14 1 60 10 101 19 334 74 502 107 539 107 16 0 42 5
57 10 15 6 75 13 133 16 58 3 108 8 111 11 5 5 115 -2 180 -13z m-2052 -476
c7 -7 12 -8 12 -4 0 5 7 3 15 -4 11 -9 15 -9 15 -1 0 7 10 9 28 6 15 -3 36 -7
47 -9 11 -2 31 -6 45 -10 14 -3 48 -8 75 -11 28 -2 61 -6 75 -9 43 -7 93 -15
140 -21 76 -9 114 -17 127 -27 6 -5 13 -5 16 -1 11 17 352 -30 412 -57 11 -5
43 -14 70 -20 28 -6 61 -13 74 -16 14 -3 29 -8 35 -12 6 -4 20 -7 31 -8 44 -2
151 -17 160 -22 5 -3 21 -7 35 -8 26 -3 123 -15 150 -19 8 -2 40 -5 70 -8 122
-12 181 -20 184 -26 6 -9 310 -2 381 8 33 5 76 13 95 18 19 6 37 10 40 11 3 0
18 5 33 11 16 6 35 11 43 11 8 0 14 5 14 10 0 6 5 10 10 10 18 0 113 88 136
126 13 23 37 9 29 -17 -4 -11 -2 -25 4 -32 5 -7 10 -53 10 -102 3 -254 2 -443
-3 -555 -2 -69 -4 -161 -4 -205 0 -65 -1 -403 -2 -440 0 -5 1 -107 2 -225 0
-118 0 -267 -1 -330 -1 -63 3 -168 10 -233 9 -84 9 -124 1 -140 -19 -40 -21
-67 -5 -83 11 -10 13 -25 9 -52 -4 -20 -9 -56 -12 -79 -4 -24 -10 -43 -14 -43
-5 0 -12 -10 -16 -22 -13 -43 -138 -141 -190 -150 -10 -2 -21 -5 -24 -8 -7 -9
-110 -40 -129 -40 -9 0 -41 -6 -71 -14 -30 -8 -81 -17 -113 -20 -31 -4 -74
-13 -95 -21 -20 -8 -55 -17 -77 -19 -22 -3 -40 -5 -40 -7 0 -1 -11 -2 -25 -4
-92 -7 -231 -25 -241 -30 -29 -18 -352 -25 -459 -10 -36 4 -76 8 -90 7 -32 -1
-180 35 -228 56 -20 9 -40 15 -44 14 -17 -4 -125 70 -151 103 -26 32 -34 52
-54 120 -3 11 -9 103 -14 205 -4 102 -10 198 -13 214 -2 16 -7 59 -10 95 -4
36 -9 82 -11 101 -12 78 -21 278 -17 370 2 30 1 109 -3 175 -5 119 -8 160 -20
259 -3 28 -8 76 -10 106 -7 83 -43 326 -56 373 -6 23 -13 51 -15 62 -2 11 -8
31 -13 45 -6 14 -12 41 -15 60 -7 51 -12 72 -30 113 -8 21 -15 38 -14 40 3 10
-37 127 -43 127 -5 0 -9 6 -9 13 -1 6 -30 44 -65 82 -36 39 -65 73 -65 78 0 4
-5 7 -10 7 -12 0 -120 111 -120 122 0 5 -7 8 -15 8 -8 0 -15 5 -15 10 0 14 23
13 38 -2z m3103 -492 c22 -9 42 -48 43 -85 1 -17 3 -31 6 -31 4 0 6 -14 11
-77 1 -28 -9 -405 -15 -543 -4 -69 -6 -153 -6 -187 1 -114 1 -137 -5 -238 -6
-124 -13 -165 -27 -165 -5 0 -8 -6 -5 -14 5 -12 -22 -74 -64 -146 -17 -30
-108 -122 -168 -170 -24 -19 -54 -45 -67 -57 -13 -13 -27 -23 -32 -23 -5 0
-15 -11 -22 -25 -14 -27 -29 -33 -31 -12 0 6 -3 39 -5 72 -5 63 9 102 52 153
40 45 49 58 69 98 11 21 36 64 56 94 54 80 70 170 74 405 1 105 6 296 10 425
7 251 1 307 -38 364 -27 38 -79 58 -157 60 l-65 1 0 57 0 56 185 -3 c102 -1
192 -6 201 -9z m-294 -229 l51 -10 15 -58 c8 -33 12 -59 8 -59 -3 0 -7 -69 -8
-153 -3 -252 -5 -291 -14 -309 -5 -9 -5 -19 -1 -22 9 -5 7 -189 -3 -271 -3
-27 -6 -60 -6 -72 1 -35 -28 -105 -58 -143 -15 -19 -38 -54 -51 -77 -13 -24
-26 -43 -29 -43 -5 0 -8 1169 -3 1212 2 19 23 21 99 5z"/>
</g>
</svg>
