<?xml version="1.0" standalone="no"?>
<!DOCTYPE svg PUBLIC "-//W3C//DTD SVG 20010904//EN"
 "http://www.w3.org/TR/2001/REC-SVG-20010904/DTD/svg10.dtd">
<svg version="1.0" xmlns="http://www.w3.org/2000/svg"
 width="507.000000pt" height="471.000000pt" viewBox="0 0 507.000000 471.000000"
 preserveAspectRatio="xMidYMid meet">
<metadata>
Created by potrace 1.16, written by Peter Selinger 2001-2019
</metadata>
<g transform="translate(0.000000,471.000000) scale(0.100000,-0.100000)"
fill="#000000" stroke="none">
<path d="M2420 4510 c-14 -11 -30 -20 -36 -20 -7 0 -30 -21 -53 -47 -41 -47
-42 -49 -40 -118 2 -63 -1 -75 -29 -123 -18 -29 -32 -57 -32 -62 0 -6 -4 -10
-9 -10 -15 0 -30 -60 -34 -140 -4 -84 -20 -118 -57 -127 -72 -18 -180 -88
-180 -117 0 -5 -6 -17 -14 -25 -8 -9 -17 -27 -20 -41 -3 -14 -12 -50 -21 -80
-9 -30 -16 -73 -15 -94 1 -22 -4 -42 -9 -45 -14 -9 -41 -116 -41 -161 0 -19
-10 -55 -23 -80 -13 -25 -32 -76 -42 -115 -10 -38 -22 -75 -27 -82 -20 -25 -9
-149 14 -164 6 -4 14 -59 19 -124 5 -65 11 -125 14 -134 2 -9 7 -76 10 -150 3
-73 7 -136 9 -140 2 -3 7 -33 10 -66 4 -33 9 -80 12 -105 3 -25 7 -146 8 -270
1 -124 6 -331 10 -460 5 -129 9 -325 10 -435 0 -110 4 -202 8 -205 4 -3 10
-44 14 -90 4 -47 10 -90 15 -95 4 -6 15 -33 24 -60 10 -27 27 -65 40 -85 36
-57 143 -159 189 -179 129 -58 384 -111 478 -99 35 4 86 10 113 13 75 8 165
25 184 35 9 4 55 26 102 49 55 26 90 50 99 66 7 14 17 25 22 25 12 0 10 38 -3
62 -8 14 -8 27 -1 42 17 33 23 108 23 271 0 154 -9 292 -20 310 -3 6 -6 28 -7
50 -1 22 -5 74 -9 115 -9 89 -12 162 -19 495 -5 267 -14 518 -21 575 -10 85
-17 247 -19 391 -1 122 -4 160 -16 174 -8 10 -13 29 -12 42 2 13 -1 29 -6 36
-5 7 -13 28 -17 47 -4 19 -18 64 -32 99 -13 35 -26 82 -28 105 -5 55 -42 220
-59 261 -8 18 -24 38 -35 45 -16 8 -21 20 -21 49 0 82 -52 200 -102 233 -30
20 -47 75 -53 168 -9 136 -28 185 -92 246 -31 29 -33 36 -33 95 0 94 -18 187
-39 208 -10 10 -23 25 -27 34 -15 25 -47 28 -74 7z m25 -137 c5 -14 12 -118
15 -229 0 -5 21 -26 46 -45 58 -43 63 -52 70 -136 8 -96 11 -121 22 -178 5
-27 9 -61 8 -75 -2 -15 7 -34 23 -50 30 -28 30 -50 0 -71 -12 -7 -30 -22 -42
-32 -11 -10 -32 -20 -46 -23 -14 -3 -37 -10 -51 -15 -43 -16 -112 -24 -200
-23 -101 1 -164 24 -216 81 -34 37 -45 85 -24 98 6 3 10 15 10 27 0 15 4 18
18 13 47 -20 58 -16 110 35 55 54 95 122 85 146 -3 8 -1 14 5 14 6 0 8 27 6
70 -4 58 -1 73 14 88 10 10 17 23 15 28 -2 5 8 21 21 36 14 14 22 29 19 32 -4
3 0 14 8 23 24 30 41 91 34 129 -4 28 -1 42 12 55 23 23 29 23 38 2z m291
-847 c7 -19 -33 -96 -51 -96 -7 0 -17 -9 -20 -21 -4 -11 -19 -25 -33 -32 -15
-6 -29 -14 -32 -18 -9 -11 -102 -39 -111 -33 -5 3 -9 2 -9 -3 0 -11 -83 -18
-205 -18 -88 0 -107 4 -155 27 -75 37 -117 74 -131 115 -13 40 -6 52 18 31 39
-33 141 -82 193 -92 37 -8 79 -8 130 -2 41 5 90 9 108 10 17 1 32 4 32 7 0 3
6 6 13 7 38 3 107 26 146 49 47 28 87 64 84 76 -5 13 18 7 23 -7z m83 -231 c6
-27 23 -97 37 -155 14 -58 30 -125 36 -150 5 -25 14 -49 18 -55 23 -32 19 -45
-22 -65 -23 -11 -47 -20 -52 -20 -6 0 -23 -11 -38 -25 -15 -14 -34 -25 -43
-25 -9 0 -26 -7 -39 -15 -40 -26 -202 -69 -219 -58 -5 3 -55 7 -111 8 -131 3
-206 17 -286 50 -36 15 -74 28 -85 30 -11 1 -31 5 -45 10 -30 9 -130 86 -131
100 -6 86 -1 117 31 190 10 22 27 75 39 119 11 43 23 81 26 84 2 3 13 -3 22
-14 23 -25 133 -77 205 -98 70 -20 302 -13 358 12 19 8 44 17 55 19 10 2 22 7
25 11 10 13 50 32 69 32 10 0 34 13 52 30 19 16 37 30 41 30 4 0 10 9 13 21 7
20 7 20 20 2 6 -10 17 -40 24 -68z m155 -540 c4 -20 6 -74 5 -120 -2 -77 -5
-85 -22 -85 -11 0 -42 -14 -68 -31 -28 -17 -53 -27 -60 -23 -7 4 -21 -3 -33
-19 -17 -21 -33 -27 -86 -32 -79 -8 -76 -8 -123 -2 -80 12 -111 -73 -32 -87
33 -6 153 19 193 40 31 16 62 18 62 4 0 -14 28 -1 100 47 l65 43 8 -60 c5 -34
7 -67 4 -74 -6 -14 -82 -44 -131 -52 -52 -7 -75 -45 -52 -83 13 -20 70 -7 127
30 27 17 52 29 56 26 3 -4 7 -26 8 -49 l3 -44 -69 -37 c-38 -21 -73 -36 -79
-32 -11 7 -30 -26 -30 -53 0 -11 7 -25 15 -32 12 -10 27 -5 79 24 36 20 68 41
72 47 12 20 24 -13 24 -66 l0 -51 -76 -39 c-88 -46 -98 -56 -90 -90 9 -36 43
-32 106 11 31 21 56 32 61 27 5 -5 6 -57 3 -116 -6 -93 -9 -107 -25 -107 -9 0
-19 -4 -21 -10 -1 -5 -19 -11 -38 -12 -19 -2 -41 -9 -48 -16 -7 -6 -26 -12
-42 -12 -16 0 -31 -4 -35 -9 -3 -5 -60 -8 -128 -7 -134 3 -157 -4 -157 -45 0
-28 15 -46 40 -47 8 0 24 -1 35 -2 35 -2 244 22 310 36 22 4 43 8 47 9 3 0 10
3 14 8 4 4 16 7 26 7 15 0 18 -9 20 -47 4 -114 2 -128 -12 -125 -59 14 -113
14 -121 1 -13 -21 -11 -56 5 -72 15 -14 72 -15 112 -2 20 6 22 3 25 -43 6 -74
4 -77 -61 -91 -71 -16 -84 -29 -75 -72 7 -29 10 -31 40 -26 19 3 48 16 64 28
17 12 34 20 37 16 4 -4 8 -26 11 -50 3 -37 0 -45 -19 -55 -13 -6 -45 -24 -73
-40 -45 -26 -50 -32 -50 -63 0 -48 30 -50 96 -4 28 19 54 33 57 30 3 -3 7 -35
9 -71 l4 -67 -44 5 c-53 6 -77 -5 -77 -36 0 -34 25 -50 76 -47 40 2 44 0 44
-21 0 -53 -11 -68 -46 -68 -22 0 -49 -11 -75 -29 -56 -41 -206 -59 -259 -31
-64 34 -91 -47 -28 -84 51 -31 254 -7 306 36 7 6 31 13 53 15 38 4 40 3 34
-19 -23 -88 -53 -163 -70 -180 -25 -24 -115 -57 -171 -62 -22 -2 -59 -9 -81
-15 -49 -13 -267 -8 -285 7 -7 5 -42 13 -78 16 -93 10 -260 96 -260 135 0 6
-5 11 -10 11 -27 0 -100 100 -100 136 0 13 -4 24 -9 24 -12 0 -20 95 -27 315
-3 94 -7 195 -9 225 -7 108 -15 400 -20 708 -2 172 -6 316 -9 320 -9 15 -27
170 -32 277 -2 61 -9 134 -14 164 -6 30 -10 74 -10 98 l0 44 38 -20 c20 -10
64 -27 97 -37 33 -10 66 -24 72 -31 7 -6 39 -14 70 -18 32 -4 77 -13 101 -20
89 -29 423 -12 466 24 6 5 14 10 18 11 22 4 107 46 134 66 17 13 43 24 58 24
15 0 29 7 32 15 10 25 21 17 28 -20z"/>
</g>
</svg>
