<?xml version="1.0" standalone="no"?>
<!DOCTYPE svg PUBLIC "-//W3C//DTD SVG 20010904//EN"
 "http://www.w3.org/TR/2001/REC-SVG-20010904/DTD/svg10.dtd">
<svg version="1.0" xmlns="http://www.w3.org/2000/svg"
 width="471.000000pt" height="363.000000pt" viewBox="0 0 471.000000 363.000000"
 preserveAspectRatio="xMidYMid meet">
<metadata>
Created by potrace 1.16, written by Peter Selinger 2001-2019
</metadata>
<g transform="translate(0.000000,363.000000) scale(0.100000,-0.100000)"
fill="#000000" stroke="none">
<path d="M3345 3430 c-3 -5 -29 -11 -58 -15 -28 -4 -68 -14 -86 -21 -19 -8
-78 -26 -130 -40 -163 -43 -194 -52 -251 -69 -30 -9 -102 -22 -160 -30 -58 -7
-121 -18 -140 -23 -19 -6 -69 -13 -110 -17 -41 -3 -113 -15 -160 -27 -47 -11
-119 -26 -160 -33 -41 -7 -109 -22 -150 -33 -41 -11 -106 -25 -145 -31 -38 -6
-92 -18 -120 -27 -27 -8 -58 -17 -69 -19 -10 -3 -42 -11 -71 -20 -29 -8 -79
-19 -112 -24 -32 -5 -101 -19 -153 -30 -52 -12 -107 -24 -122 -26 -14 -2 -61
-10 -105 -18 -43 -8 -109 -20 -148 -27 -38 -7 -81 -17 -95 -22 -14 -5 -25 -9
-25 -9 0 0 -34 -7 -75 -15 -41 -8 -91 -17 -110 -20 -19 -3 -53 -10 -75 -16
-22 -6 -52 -12 -66 -14 -15 -2 -44 -8 -65 -13 -22 -6 -84 -21 -139 -35 -115
-28 -152 -41 -168 -59 -13 -13 -19 -79 -8 -87 7 -5 37 -80 71 -177 10 -29 25
-67 33 -85 8 -18 23 -58 32 -88 9 -30 23 -68 30 -85 7 -16 30 -75 51 -130 21
-55 52 -129 70 -165 17 -36 37 -83 44 -105 7 -22 25 -67 40 -100 15 -33 28
-64 30 -70 5 -19 18 -52 49 -119 17 -38 31 -73 31 -79 0 -5 15 -42 34 -81 40
-84 66 -144 91 -206 10 -25 26 -63 36 -85 10 -22 32 -78 50 -125 55 -150 60
-163 80 -206 10 -24 19 -46 19 -50 0 -4 20 -47 45 -95 25 -48 45 -94 45 -101
0 -7 13 -40 29 -72 25 -50 28 -67 24 -113 -5 -47 -4 -53 13 -54 10 -1 44 -2
76 -4 31 -2 62 -7 70 -11 7 -5 18 -9 23 -11 17 -3 140 -50 161 -61 10 -5 42
-19 69 -31 28 -12 57 -26 65 -30 10 -6 33 0 64 16 27 14 58 26 69 29 28 5 88
24 112 34 11 5 45 14 75 20 56 11 83 17 88 20 1 2 5 3 10 4 10 2 177 54 232
72 25 8 63 20 85 25 22 6 66 19 99 29 32 11 62 17 67 14 5 -2 22 2 38 11 17 8
40 15 53 15 20 0 84 19 133 41 51 22 420 137 480 149 22 5 90 22 150 38 143
38 187 49 260 63 104 21 279 66 317 83 21 9 46 16 56 16 10 0 33 7 51 16 18 9
50 18 72 21 21 3 39 9 39 13 0 4 21 13 48 19 26 7 55 17 64 22 10 5 23 9 29 9
7 0 27 11 45 25 18 14 35 25 38 25 3 0 28 14 55 30 27 17 53 30 58 28 18 -5
83 27 83 42 0 8 7 34 15 57 8 23 17 56 20 74 3 17 12 41 20 53 8 11 15 37 15
57 0 48 -29 75 -87 78 -7 1 -19 16 -27 33 -7 18 -35 78 -61 133 -84 180 -93
200 -100 228 -4 15 -11 30 -16 33 -5 3 -9 14 -9 24 0 10 -4 20 -8 22 -7 3 -65
115 -67 128 -1 10 -61 140 -117 252 -32 64 -58 120 -58 125 0 4 -16 40 -36 78
-20 39 -47 97 -59 130 -23 61 -75 162 -126 246 -15 26 -34 67 -43 92 -8 25
-25 63 -36 84 -11 21 -20 42 -20 47 0 5 -6 17 -13 25 -7 9 -22 36 -32 61 -11
25 -22 47 -25 50 -4 3 -12 21 -20 40 -7 19 -25 55 -40 80 -16 25 -38 74 -51
110 -12 36 -27 70 -33 77 -13 14 -84 24 -91 13z m-69 -137 c0 -10 -4 -20 -7
-23 -3 -3 -9 -20 -15 -38 -8 -29 -17 -36 -61 -52 -28 -10 -54 -16 -56 -13 -3
2 -13 0 -24 -6 -27 -16 -140 -51 -163 -51 -11 0 -20 -4 -20 -8 0 -8 -71 -23
-188 -42 -29 -5 -58 -13 -65 -18 -7 -5 -41 -12 -77 -16 -100 -11 -103 -12
-232 -52 -43 -13 -121 -31 -175 -40 -54 -9 -105 -20 -114 -25 -14 -7 -192 -40
-226 -42 -7 0 -13 -4 -13 -9 0 -4 -12 -8 -26 -8 -14 0 -88 -16 -165 -35 -78
-19 -145 -33 -150 -29 -5 3 -9 0 -9 -7 0 -7 -3 -10 -6 -7 -3 3 -30 -3 -59 -13
-30 -10 -63 -19 -74 -19 -11 0 -23 -4 -26 -10 -3 -5 -23 -10 -43 -10 -21 0
-69 -9 -107 -19 -39 -11 -101 -24 -140 -31 -38 -6 -79 -12 -90 -14 -11 -2 -48
-9 -83 -15 -34 -7 -90 -14 -125 -16 -55 -3 -121 -12 -227 -30 -19 -3 -48 -8
-65 -10 -16 -1 -70 -17 -120 -34 -49 -17 -93 -31 -97 -31 -7 0 -58 92 -58 104
0 6 106 37 140 42 14 2 50 10 80 19 30 9 93 22 140 30 47 8 121 23 165 34 191
45 250 58 475 103 85 16 175 34 200 39 25 5 61 12 80 15 33 5 98 22 253 66 60
17 132 32 204 43 12 2 35 6 52 10 17 3 33 6 36 6 3 -1 18 5 34 13 16 9 71 20
122 27 52 6 109 18 128 25 34 14 196 37 228 33 10 -2 45 5 78 15 33 10 76 20
95 22 19 2 55 5 80 8 50 4 233 51 265 66 11 6 34 12 50 14 17 1 60 12 95 24
36 11 74 23 85 25 11 3 21 5 21 6 1 0 1 -7 0 -16z m153 -98 c18 -25 29 -45 24
-45 -4 0 -3 -4 2 -8 11 -8 16 -18 110 -217 36 -77 70 -148 75 -157 6 -10 10
-22 10 -27 0 -6 13 -29 28 -53 38 -57 150 -287 193 -398 8 -19 40 -87 72 -150
31 -63 66 -137 76 -166 11 -28 41 -96 66 -150 26 -54 51 -108 55 -119 5 -11
25 -54 44 -96 20 -41 36 -78 36 -82 0 -6 48 -115 81 -180 10 -22 19 -44 19
-51 0 -14 -62 -46 -90 -46 -10 0 -20 -6 -23 -12 -6 -16 -47 24 -47 45 0 8 -7
20 -15 27 -8 6 -17 22 -21 33 -3 12 -23 59 -45 104 -21 45 -39 85 -39 89 0 5
-15 40 -34 79 -59 120 -131 278 -150 325 -10 25 -22 53 -27 62 -5 10 -9 23 -9
28 0 11 -42 108 -61 140 -19 34 -105 220 -113 247 -4 11 -13 27 -21 33 -8 7
-15 19 -15 27 0 19 -14 51 -105 238 -40 83 -80 168 -90 190 -9 22 -26 56 -37
75 -10 19 -25 49 -33 66 -8 17 -21 36 -30 44 -13 11 -14 14 0 24 14 10 56 107
58 133 1 18 17 3 56 -52z m-196 -124 c-3 -12 17 -56 51 -116 30 -53 61 -113
68 -133 7 -21 34 -80 60 -133 27 -54 48 -102 48 -108 0 -6 5 -11 10 -11 6 0
10 -4 10 -9 0 -10 32 -81 109 -246 26 -55 54 -116 61 -135 7 -19 17 -40 22
-46 20 -27 67 -134 73 -168 4 -20 11 -39 16 -42 5 -3 9 -13 9 -22 0 -14 33
-84 77 -167 19 -35 69 -147 102 -230 18 -44 49 -111 68 -148 19 -38 33 -71 30
-74 -3 -2 0 -21 7 -41 7 -21 11 -44 9 -52 -4 -18 -167 -75 -184 -65 -5 4 -15
2 -22 -3 -10 -8 -43 -15 -122 -27 -11 -1 -27 -5 -35 -8 -8 -4 -46 -16 -85 -27
-38 -12 -88 -28 -110 -36 -61 -21 -232 -64 -255 -64 -11 0 -20 -4 -20 -10 0
-5 -9 -10 -19 -10 -11 0 -23 -5 -26 -11 -4 -5 -12 -8 -18 -6 -7 2 -27 -2 -44
-10 -18 -7 -33 -10 -33 -7 0 4 -6 2 -12 -3 -16 -12 -68 -27 -85 -24 -7 1 -13
-2 -13 -6 0 -5 -8 -9 -17 -10 -18 -1 -57 -10 -253 -60 -52 -13 -103 -25 -113
-28 -9 -2 -21 -6 -26 -10 -5 -3 -56 -16 -113 -29 -57 -13 -148 -40 -203 -59
-98 -35 -304 -93 -357 -102 -14 -2 -35 -8 -45 -14 -10 -6 -50 -17 -89 -25 -40
-9 -94 -25 -120 -37 -27 -11 -58 -22 -69 -24 -11 -2 -78 -19 -150 -39 -71 -19
-166 -45 -210 -57 -44 -12 -85 -24 -92 -26 -6 -3 -18 10 -26 29 -8 18 -27 59
-41 90 -14 31 -26 61 -26 66 0 5 -7 22 -14 38 -38 75 -112 252 -156 371 -27
73 -60 157 -74 185 -13 29 -39 89 -56 133 -18 44 -40 91 -50 105 -9 14 -32 63
-50 110 -49 130 -99 252 -139 340 -8 19 -16 37 -16 40 -3 8 -16 43 -30 75 -12
28 -102 244 -120 290 -4 11 -9 25 -11 30 -2 6 -14 43 -29 84 -20 58 -23 76
-13 83 25 16 164 56 195 56 17 0 40 5 51 11 10 5 68 15 128 21 60 6 132 15
159 20 28 5 68 12 90 16 179 25 286 48 450 96 55 16 132 33 170 39 39 5 95 18
125 28 30 11 73 22 95 25 22 4 74 15 115 26 41 11 86 22 100 25 14 3 48 10 75
16 28 5 68 13 90 16 22 3 42 9 43 14 2 5 7 7 12 4 10 -6 181 30 250 54 30 11
87 24 125 30 39 5 81 13 95 16 24 7 61 15 225 50 44 9 85 20 90 25 6 4 21 10
35 13 56 11 223 57 228 62 12 11 20 4 15 -14z m1147 -1912 c0 -48 -27 -96 -63
-110 -18 -7 -54 -27 -82 -44 -27 -17 -65 -37 -82 -44 -18 -8 -33 -17 -33 -22
0 -5 -11 -9 -24 -9 -13 0 -48 -11 -78 -24 -31 -14 -73 -28 -94 -31 -22 -4 -57
-15 -79 -25 -35 -16 -122 -40 -165 -45 -8 -1 -22 -5 -30 -9 -28 -11 -173 -46
-195 -46 -12 0 -25 -3 -29 -7 -4 -4 -37 -15 -74 -25 -37 -9 -94 -24 -127 -33
-33 -8 -105 -27 -160 -41 -55 -14 -143 -39 -195 -55 -165 -52 -213 -67 -275
-84 -33 -9 -69 -21 -80 -25 -51 -21 -196 -62 -270 -76 -16 -3 -38 -10 -47 -15
-9 -5 -28 -9 -42 -9 -14 0 -26 -5 -26 -11 0 -6 -7 -8 -16 -5 -9 4 -22 3 -28
-2 -6 -5 -56 -21 -111 -36 -55 -15 -110 -32 -122 -37 -12 -4 -51 -15 -85 -24
-35 -9 -72 -20 -83 -25 -11 -4 -60 -18 -108 -30 -74 -19 -93 -20 -115 -10 -15
6 -27 11 -27 9 0 -2 -13 4 -30 14 -16 9 -52 26 -80 38 -47 21 -48 23 -25 30
14 4 77 21 140 39 63 18 183 54 265 81 83 26 188 58 235 70 47 11 126 34 175
50 160 50 359 108 410 118 80 16 138 31 160 41 11 5 70 21 130 35 218 52 240
58 251 66 13 11 233 76 334 99 41 9 95 24 120 33 25 8 63 18 85 22 22 4 49 12
60 18 23 12 123 36 180 44 22 3 42 9 45 13 3 4 28 10 55 13 28 3 64 13 80 21
17 9 38 16 47 16 9 0 19 4 23 9 3 5 20 13 38 17 17 3 48 13 67 21 19 9 49 21
65 28 17 7 46 19 65 28 48 22 50 21 50 -14z"/>
</g>
</svg>
