<?xml version="1.0" standalone="no"?>
<!DOCTYPE svg PUBLIC "-//W3C//DTD SVG 20010904//EN"
 "http://www.w3.org/TR/2001/REC-SVG-20010904/DTD/svg10.dtd">
<svg version="1.0" xmlns="http://www.w3.org/2000/svg"
 width="547.000000pt" height="407.000000pt" viewBox="0 0 547.000000 407.000000"
 preserveAspectRatio="xMidYMid meet">
<metadata>
Created by potrace 1.16, written by Peter Selinger 2001-2019
</metadata>
<g transform="translate(0.000000,407.000000) scale(0.100000,-0.100000)"
fill="#000000" stroke="none">
<path d="M2545 3855 c-22 -8 -51 -14 -63 -14 -13 -1 -40 -8 -60 -17 -107 -47
-152 -64 -152 -57 0 3 -6 1 -13 -5 -7 -6 -46 -19 -88 -30 -70 -19 -178 -57
-239 -85 -14 -6 -29 -11 -35 -12 -5 0 -41 -17 -79 -37 -38 -21 -75 -38 -82
-38 -7 0 -15 -4 -19 -9 -3 -6 -27 -20 -53 -33 -26 -13 -49 -25 -52 -28 -14
-15 -83 -50 -90 -45 -5 3 -10 1 -12 -4 -4 -11 -167 -111 -181 -111 -6 0 -26
-12 -46 -27 -70 -55 -97 -72 -135 -94 -40 -22 -107 -80 -185 -162 -25 -27 -89
-92 -141 -145 -52 -53 -108 -115 -124 -137 -16 -22 -45 -58 -63 -80 -56 -66
-120 -150 -133 -176 -7 -13 -19 -30 -27 -37 -7 -7 -13 -20 -13 -28 0 -8 -12
-33 -26 -56 -115 -182 -169 -440 -139 -671 9 -75 27 -119 61 -157 20 -22 33
-43 30 -48 -3 -5 5 -20 17 -33 13 -13 27 -32 30 -42 4 -9 15 -20 24 -24 19 -7
36 -20 56 -40 7 -7 44 -39 82 -70 39 -32 72 -61 73 -65 2 -5 9 -8 15 -8 7 0
38 -18 71 -40 32 -22 64 -40 72 -40 7 0 14 -3 16 -7 5 -13 100 -52 148 -62 49
-10 142 -20 205 -22 38 -1 131 3 340 17 86 5 187 25 230 44 11 4 63 18 115 30
52 12 122 34 155 50 86 41 142 65 205 86 30 10 63 24 72 32 15 12 19 12 33 -1
8 -9 15 -20 15 -26 0 -5 9 -13 20 -16 11 -3 20 -13 20 -21 0 -8 5 -14 11 -14
6 0 34 -23 62 -50 28 -28 54 -50 59 -50 4 0 8 -5 8 -11 0 -10 24 -39 33 -39 3
0 47 -40 98 -90 52 -49 98 -90 102 -90 11 0 73 -63 112 -114 46 -60 343 -351
430 -421 17 -13 39 -33 50 -43 49 -46 150 -115 202 -139 72 -33 148 -34 220
-3 61 26 88 55 109 117 19 55 22 169 6 200 -7 12 -12 30 -12 41 0 10 -11 40
-25 66 -13 25 -25 47 -25 49 -6 30 -14 47 -21 47 -5 0 -9 5 -9 10 0 12 -62
103 -95 140 -12 14 -31 40 -41 58 -10 17 -22 32 -26 32 -4 0 -26 26 -49 57
-24 31 -52 68 -63 81 -35 41 -357 361 -465 462 -56 52 -103 102 -106 110 -3 9
-23 35 -44 59 -37 41 -44 71 -17 71 6 0 20 14 29 30 10 17 24 30 32 30 8 0 21
12 31 27 9 16 38 46 65 68 26 22 48 44 48 48 1 8 94 131 124 162 45 47 207
303 207 326 0 4 11 28 24 51 13 24 35 84 50 133 15 50 33 110 41 135 19 62 28
175 16 213 -5 18 -15 64 -22 102 -16 93 -33 132 -77 178 -20 20 -32 37 -27 37
5 0 -3 12 -17 28 -22 24 -116 147 -158 208 -8 12 -36 51 -62 86 -25 35 -48 70
-50 78 -2 8 -14 20 -28 27 -14 7 -32 17 -40 22 -31 19 -96 44 -124 48 -16 1
-34 7 -41 13 -6 5 -14 8 -17 5 -2 -3 -27 2 -54 10 -61 18 -252 18 -309 0z
m287 -114 c25 -6 58 -16 74 -22 16 -7 34 -13 39 -14 36 -7 54 -20 59 -41 4
-13 13 -24 21 -24 15 0 102 -129 97 -144 -1 -4 4 -19 13 -32 25 -38 18 -45
-22 -23 -21 12 -40 25 -43 29 -3 4 -41 15 -85 24 -44 10 -97 22 -117 27 -20 5
-54 7 -75 4 -21 -3 -85 -7 -143 -9 -58 -3 -114 -7 -125 -9 -76 -19 -186 -50
-215 -62 -19 -7 -47 -16 -61 -19 -14 -3 -41 -16 -60 -29 -19 -12 -55 -31 -81
-40 -26 -10 -62 -28 -80 -41 -18 -12 -53 -30 -77 -40 -24 -9 -75 -37 -113 -62
-38 -24 -70 -44 -73 -44 -10 0 -133 -77 -175 -109 -217 -168 -481 -405 -531
-476 -13 -20 -95 -88 -155 -130 -88 -61 -248 -268 -305 -395 -60 -134 -75
-210 -54 -277 6 -17 15 -23 38 -23 l30 0 -7 48 c-7 49 11 152 26 152 4 0 8 7
8 15 0 34 76 166 142 246 21 26 38 51 38 56 0 13 86 93 99 93 6 0 11 4 11 9 0
5 19 21 42 35 45 26 118 90 118 102 0 12 201 204 264 254 32 24 71 59 87 77
15 18 32 33 36 33 5 0 23 13 40 29 18 16 47 39 65 51 18 13 38 28 43 35 11 13
143 95 154 95 4 0 49 27 101 60 52 33 100 60 105 60 10 0 19 4 118 58 31 18
63 32 69 32 6 0 19 7 28 15 40 36 325 114 344 95 6 -6 14 -4 20 5 8 10 42 16
124 19 62 3 116 8 121 10 11 7 183 -33 199 -47 8 -6 24 -12 35 -14 12 -2 27
-9 32 -16 6 -7 25 -22 43 -32 26 -16 32 -26 32 -53 0 -44 -26 -145 -51 -196
-10 -22 -19 -48 -19 -58 0 -10 -4 -18 -10 -18 -5 0 -10 -8 -10 -18 0 -18 -15
-51 -58 -125 -26 -45 -28 -48 -86 -112 -25 -27 -46 -53 -46 -58 0 -13 -186
-207 -199 -207 -4 0 -37 -29 -73 -65 -37 -36 -69 -65 -71 -65 -2 0 -34 -28
-69 -62 -91 -87 -138 -128 -148 -128 -5 0 -12 -9 -15 -20 -3 -11 -10 -20 -14
-20 -4 0 -39 -27 -79 -60 -39 -33 -76 -60 -81 -60 -6 0 -11 -5 -11 -10 0 -15
-136 -102 -220 -142 -25 -11 -47 -24 -50 -28 -3 -4 -16 -11 -30 -15 -24 -8
-59 -23 -205 -90 -38 -18 -81 -35 -95 -39 -23 -7 -49 -17 -110 -46 -14 -6 -32
-12 -40 -14 -8 -1 -25 -7 -36 -14 -12 -6 -24 -8 -28 -5 -3 3 -21 -1 -38 -10
-52 -25 -174 -58 -248 -68 -95 -12 -248 -9 -297 6 -23 7 -44 10 -47 7 -3 -2
-11 0 -18 5 -7 6 -34 14 -60 17 -26 4 -54 14 -62 22 -8 8 -21 14 -30 14 -8 0
-19 6 -23 13 -4 8 -15 16 -24 19 -33 12 -50 199 -31 328 5 30 19 89 31 130 30
97 30 99 30 105 0 3 9 22 20 43 10 20 33 66 50 102 17 36 49 87 71 114 22 26
40 52 40 58 0 5 11 24 25 42 14 18 25 38 25 44 0 7 4 12 8 12 4 0 21 21 37 48
17 26 57 76 90 111 67 73 316 321 321 321 7 0 140 89 160 106 11 11 40 30 65
43 24 14 64 37 89 52 25 15 101 56 170 90 69 34 127 65 130 68 9 11 202 71
211 65 5 -3 9 0 9 6 0 7 6 10 12 8 7 -3 19 2 27 9 7 8 20 12 27 9 7 -3 16 -1
19 4 6 10 23 18 125 60 30 12 67 29 83 37 15 8 27 11 27 7 0 -3 11 1 25 10 14
9 25 14 25 10 0 -4 6 -1 13 5 22 18 167 62 232 70 71 9 153 6 217 -8z m458
-482 c0 -9 7 -19 36 -52 77 -87 133 -217 128 -297 -4 -67 -88 -319 -138 -415
-9 -16 -16 -34 -16 -38 0 -15 -119 -192 -162 -240 -24 -27 -48 -54 -53 -60 -6
-7 -19 -25 -29 -42 -11 -16 -25 -34 -33 -38 -7 -4 -13 -14 -13 -22 0 -7 -12
-23 -27 -35 -16 -12 -53 -45 -83 -73 -83 -79 -90 -81 -116 -43 -12 18 -25 46
-27 62 -15 83 -19 92 -45 99 -16 4 -38 0 -59 -12 -33 -17 -33 -19 -28 -72 3
-30 12 -62 20 -71 8 -9 15 -22 15 -28 0 -7 4 -12 8 -12 5 0 16 -15 25 -32 24
-46 40 -70 58 -88 42 -42 119 -143 114 -151 -4 -5 1 -9 9 -9 9 0 16 -4 16 -8
0 -11 36 -54 74 -90 16 -15 61 -57 99 -94 39 -38 74 -68 78 -68 8 0 51 -42 83
-81 11 -13 67 -76 125 -140 104 -113 120 -132 217 -254 27 -33 56 -69 66 -79
32 -35 21 -49 -12 -16 -11 11 -28 20 -38 20 -10 0 -23 5 -28 10 -15 15 -74 1
-74 -17 0 -10 -6 -13 -15 -9 -30 11 -88 -62 -101 -129 -2 -11 -9 -30 -15 -42
-10 -18 -6 -32 25 -90 45 -82 62 -96 -222 189 -270 271 -245 246 -368 363
-180 171 -272 264 -266 270 3 3 0 5 -7 5 -19 0 -82 63 -100 100 -9 19 -21 35
-26 35 -22 0 -81 46 -99 77 -11 18 -27 39 -35 46 -43 35 -62 44 -74 35 -6 -5
-34 -8 -62 -7 -60 3 -85 -15 -85 -59 0 -34 35 -78 55 -71 13 6 105 -34 105
-45 0 -15 -129 -76 -250 -119 -25 -8 -47 -19 -50 -22 -3 -4 -23 -13 -45 -21
-22 -7 -45 -17 -52 -22 -7 -5 -17 -6 -22 -3 -5 4 -12 2 -16 -4 -4 -6 -10 -8
-15 -5 -5 3 -11 1 -14 -4 -14 -22 -653 -53 -679 -33 -7 5 -23 12 -37 15 -48
10 -135 47 -146 62 -6 8 -14 15 -18 15 -4 0 -19 11 -34 25 -15 14 -32 25 -38
25 -6 0 -17 6 -23 14 -10 12 1 13 74 9 81 -5 146 6 220 37 11 5 47 12 80 16
33 4 71 8 85 10 50 6 212 55 258 78 162 81 193 96 202 96 5 0 48 18 97 41 110
51 119 55 168 71 22 7 80 39 129 70 49 32 94 58 101 58 6 0 29 16 51 35 21 19
42 35 45 35 4 0 21 14 39 30 18 17 38 30 46 30 8 0 14 6 14 13 0 7 43 56 96
108 133 130 142 138 204 209 67 76 88 98 126 130 32 28 140 148 230 255 32 39
63 73 69 77 5 4 7 8 2 8 -9 0 35 84 84 160 9 14 19 41 23 60 3 19 13 49 22 65
20 38 45 135 38 146 -3 5 0 9 5 9 6 0 11 14 11 31 0 17 4 28 10 24 6 -3 10
-11 10 -16z m250 -2593 c0 -2 -12 -12 -27 -21 l-28 -18 19 21 c17 20 36 29 36
18z m110 -114 c44 -79 -1 -128 -75 -82 -19 12 -35 18 -35 13 0 -4 -5 -1 -10 8
-12 20 9 79 27 79 7 0 13 4 13 8 0 12 43 31 51 23 3 -3 17 -25 29 -49z m-170
44 c0 -3 -4 -8 -10 -11 -5 -3 -10 -1 -10 4 0 6 5 11 10 11 6 0 10 -2 10 -4z
m265 -239 c-30 -52 -42 -64 -70 -67 -31 -4 -83 11 -96 26 -9 12 -3 14 35 15
43 1 55 3 74 9 4 1 10 2 14 1 4 0 20 15 35 34 37 46 41 37 8 -18z"/>
</g>
</svg>
