<?xml version="1.0" standalone="no"?>
<!DOCTYPE svg PUBLIC "-//W3C//DTD SVG 20010904//EN"
 "http://www.w3.org/TR/2001/REC-SVG-20010904/DTD/svg10.dtd">
<svg version="1.0" xmlns="http://www.w3.org/2000/svg"
 width="423.000000pt" height="423.000000pt" viewBox="0 0 423.000000 423.000000"
 preserveAspectRatio="xMidYMid meet">
<metadata>
Created by potrace 1.16, written by Peter Selinger 2001-2019
</metadata>
<g transform="translate(0.000000,423.000000) scale(0.100000,-0.100000)"
fill="#000000" stroke="none">
<path d="M3776 4113 c-33 -7 -65 -18 -73 -24 -7 -6 -13 -8 -13 -4 0 3 -12 -3
-26 -14 -15 -12 -34 -21 -44 -21 -10 0 -29 -9 -43 -20 -14 -11 -30 -20 -36
-20 -12 0 -53 -21 -61 -31 -9 -12 -89 -49 -105 -49 -8 0 -15 -3 -15 -8 0 -4
-15 -13 -32 -21 -72 -30 -204 -96 -213 -106 -5 -7 -55 -34 -110 -61 -54 -27
-108 -57 -119 -66 -27 -25 -60 -22 -91 6 -14 13 -46 29 -70 35 -41 10 -48 9
-84 -13 -26 -16 -41 -35 -45 -54 -7 -28 -8 -28 -69 -27 -69 2 -75 -2 -96 -68
-10 -30 -22 -42 -59 -60 -34 -16 -48 -29 -50 -46 -2 -13 -11 -32 -21 -42 -21
-23 -61 -134 -61 -169 0 -15 -4 -30 -9 -35 -5 -6 -18 -40 -31 -77 -12 -37 -26
-70 -31 -73 -5 -4 -9 -15 -9 -26 0 -10 -9 -41 -21 -67 -12 -26 -25 -56 -30
-67 -5 -11 -18 -47 -30 -80 -12 -33 -25 -64 -30 -70 -5 -5 -9 -16 -9 -25 0 -8
-7 -28 -15 -44 -8 -15 -15 -33 -15 -40 0 -6 -16 -42 -35 -80 -19 -39 -35 -76
-35 -83 0 -7 -4 -13 -10 -13 -5 0 -10 -9 -10 -20 0 -11 -8 -39 -19 -62 -40
-90 -49 -114 -55 -148 -4 -19 -14 -48 -21 -65 -51 -114 -65 -149 -65 -162 0
-9 -10 -33 -22 -55 l-22 -39 -71 2 c-203 4 -315 -1 -315 -13 0 -10 -2 -10 -9
1 -7 10 -24 12 -79 6 -108 -11 -124 -13 -169 -24 -80 -20 -123 -28 -123 -23 0
2 -6 0 -12 -5 -7 -6 -35 -15 -61 -22 -27 -6 -65 -20 -85 -31 -20 -11 -42 -20
-47 -20 -6 0 -20 -8 -31 -18 -10 -9 -30 -23 -44 -29 -47 -24 -150 -112 -150
-129 0 -3 -9 -18 -19 -33 -28 -39 -42 -140 -28 -201 3 -14 8 -54 11 -90 3 -36
7 -72 9 -80 2 -8 9 -42 16 -75 7 -33 21 -98 31 -145 10 -47 23 -112 29 -145 6
-33 22 -112 37 -175 27 -119 28 -130 39 -219 3 -30 12 -66 19 -80 7 -14 14
-51 15 -81 3 -79 6 -87 42 -85 17 1 34 7 38 13 4 6 3 47 -2 89 -4 43 -8 85 -9
93 0 8 -4 20 -9 25 -4 6 -10 33 -14 60 -3 28 -12 77 -20 110 -8 33 -19 85 -24
115 -5 30 -16 75 -25 100 -9 25 -16 64 -16 86 0 23 -7 61 -16 85 -9 24 -20 69
-24 99 -5 30 -13 75 -18 100 -12 52 -6 64 15 33 9 -13 22 -23 29 -23 8 0 14
-4 14 -9 0 -10 106 -71 123 -71 5 0 50 -16 100 -36 49 -20 115 -39 146 -41 31
-3 61 -10 67 -15 7 -5 28 -10 48 -12 20 -2 39 -6 43 -10 3 -3 19 -6 34 -6 15
0 30 -4 34 -10 3 -5 11 -7 19 -4 7 3 25 0 41 -6 25 -10 124 -22 295 -36 141
-12 405 -8 425 6 6 4 45 10 87 14 43 4 93 13 112 21 20 8 54 15 76 15 23 0 60
9 82 20 23 11 57 20 75 20 18 0 33 5 33 10 0 6 6 10 14 10 7 0 27 7 42 15 16
8 37 15 47 15 9 0 17 4 17 8 0 5 18 14 39 21 21 6 42 18 45 26 3 8 12 15 21
15 8 0 15 3 15 8 0 4 10 13 21 20 21 14 22 13 16 -40 -3 -29 -8 -64 -11 -78
-35 -167 -65 -340 -71 -411 -4 -42 -11 -94 -16 -115 -6 -21 -13 -61 -15 -89
-6 -60 -44 -195 -56 -195 -4 0 -8 -15 -8 -33 0 -43 31 -77 62 -70 31 8 38 21
38 70 0 23 7 62 15 86 13 40 30 141 56 352 6 44 14 89 19 100 5 11 11 45 14
77 3 31 17 113 31 182 14 69 25 144 25 166 0 22 4 48 9 58 14 27 31 87 31 108
0 10 7 28 15 38 21 27 21 149 0 166 -8 7 -15 20 -15 29 0 34 -108 131 -146
131 -8 0 -32 9 -54 20 -22 11 -44 20 -49 20 -5 0 -22 5 -38 12 -35 14 -47 17
-103 24 -25 3 -79 14 -120 25 -100 25 -253 30 -275 8 -12 -12 -14 -21 -6 -42
10 -25 14 -27 78 -28 38 0 77 -2 88 -3 83 -11 292 -53 307 -62 4 -3 18 -7 30
-9 13 -3 32 -9 43 -14 11 -5 34 -14 50 -20 68 -26 124 -97 127 -161 2 -47 -18
-139 -35 -165 -23 -33 -64 -75 -74 -75 -3 0 -21 -11 -39 -25 -18 -14 -36 -25
-40 -25 -4 0 -16 -8 -26 -17 -10 -9 -29 -18 -41 -20 -12 -2 -47 -12 -77 -22
-87 -30 -157 -51 -174 -51 -8 0 -37 -7 -63 -16 -26 -9 -70 -18 -98 -20 -27 -2
-81 -9 -120 -15 -90 -14 -252 -21 -259 -11 -2 4 4 31 14 60 10 29 24 77 31
108 7 30 16 57 21 60 4 3 8 15 8 28 0 13 7 38 16 56 9 18 20 46 24 64 7 28 41
127 57 166 3 8 7 20 9 25 4 18 63 189 94 275 17 47 35 99 39 115 4 17 24 72
44 122 21 51 37 100 37 109 0 9 9 35 19 58 11 23 29 68 42 101 12 33 31 72 41
87 10 14 18 31 18 38 0 6 18 49 40 96 22 47 40 89 40 93 0 5 18 46 41 92 22
46 50 104 61 129 11 25 27 58 35 75 18 37 58 157 69 210 9 39 10 40 57 46 27
3 52 11 57 19 5 8 21 15 37 17 15 2 33 10 38 18 6 7 29 17 50 21 22 4 53 15
70 26 16 10 46 18 65 18 36 0 160 59 203 95 12 11 47 32 77 48 30 16 57 33 60
37 5 6 59 33 130 65 19 8 54 26 77 39 23 13 68 32 100 42 32 10 60 20 63 23 3
3 17 12 33 20 15 8 27 18 27 23 0 4 11 8 25 8 14 0 28 7 31 15 4 8 12 15 19
15 6 0 24 11 39 25 15 14 33 25 41 25 7 0 17 9 20 20 3 11 11 20 17 20 6 0 8
3 5 7 -4 3 6 17 20 31 24 22 28 35 31 94 3 39 0 68 -5 68 -6 0 -15 11 -21 25
-7 14 -20 25 -31 25 -11 0 -22 4 -25 9 -10 16 -41 18 -100 4z m104 -139 c0
-28 -4 -35 -25 -40 -34 -8 -55 11 -55 51 0 38 13 46 53 32 22 -7 27 -15 27
-43z m-170 14 c0 -26 21 -88 35 -101 25 -25 21 -47 -10 -65 -16 -9 -32 -21
-33 -25 -4 -8 -129 -67 -143 -67 -17 0 -116 -50 -129 -65 -7 -8 -25 -15 -41
-15 -16 0 -29 -4 -29 -10 0 -5 -9 -10 -20 -10 -11 0 -20 -4 -20 -10 0 -5 -7
-10 -15 -10 -14 0 -53 -18 -65 -30 -3 -3 -29 -18 -59 -33 -29 -16 -58 -33 -65
-38 -38 -31 -89 -57 -122 -62 -67 -10 -96 -15 -100 -20 -3 -3 -19 8 -37 24
-36 34 -44 35 -69 12 -23 -21 -23 -45 2 -68 11 -10 18 -21 15 -25 -8 -12 -67
-9 -95 5 -15 8 -37 11 -49 8 -19 -5 -22 -12 -19 -42 3 -34 1 -36 -30 -39 -22
-2 -34 2 -38 12 -4 11 -11 13 -31 5 -42 -16 -55 -36 -52 -82 5 -71 -21 -187
-42 -187 -5 0 -9 -7 -9 -16 0 -8 -10 -36 -21 -62 -51 -113 -73 -157 -80 -162
-4 -3 -11 -19 -15 -35 -4 -17 -16 -43 -26 -60 -10 -16 -18 -37 -18 -45 0 -8
-9 -32 -20 -53 -11 -20 -20 -44 -20 -52 0 -8 -4 -15 -9 -15 -5 0 -14 -15 -21
-32 -7 -18 -30 -70 -51 -116 -22 -45 -39 -86 -39 -91 0 -5 -7 -22 -15 -37 -8
-16 -18 -46 -21 -66 -4 -21 -10 -38 -14 -38 -4 0 -15 -30 -25 -67 -10 -38 -25
-74 -32 -81 -7 -7 -13 -22 -13 -33 0 -10 -4 -19 -8 -19 -5 0 -9 -6 -9 -13 0
-7 -14 -60 -32 -117 -32 -102 -38 -118 -58 -170 -6 -14 -16 -43 -22 -65 -22
-73 -53 -145 -62 -145 -5 0 -9 -14 -9 -30 0 -17 -8 -47 -19 -68 -10 -20 -21
-55 -24 -77 -6 -40 -21 -92 -58 -193 -10 -30 -19 -62 -19 -73 0 -17 -7 -18
-82 -14 -90 5 -109 14 -90 45 6 11 12 30 12 42 0 13 7 32 15 42 8 10 12 23 9
27 -3 5 0 9 5 9 6 0 11 8 11 18 0 10 9 35 20 57 11 21 22 48 24 59 8 40 18 66
27 66 5 0 9 8 9 18 0 9 7 30 15 46 8 16 14 34 13 40 -3 14 9 51 33 103 10 23
22 60 25 83 4 23 12 47 18 53 6 7 12 26 14 42 2 17 10 39 17 51 7 11 20 49 30
85 9 35 21 72 26 81 5 10 9 25 9 35 0 9 8 35 19 57 10 23 24 56 31 74 7 17 16
32 21 32 5 0 9 15 9 33 0 18 9 50 20 72 11 22 20 43 20 48 0 10 37 97 50 117
6 8 15 26 21 40 6 14 20 42 30 63 11 22 19 44 19 50 0 7 7 25 15 40 8 15 17
43 21 62 3 19 12 39 20 46 8 6 19 30 25 53 11 44 29 88 60 149 10 22 19 44 19
51 0 6 9 28 20 49 11 20 20 48 20 61 0 14 4 28 10 31 9 6 28 65 36 115 3 14
12 43 20 65 9 22 20 50 25 62 4 12 19 29 32 37 19 13 28 14 50 3 14 -6 29 -22
32 -34 3 -13 12 -23 20 -23 8 0 15 -4 15 -10 0 -18 29 -10 40 11 17 30 3 75
-35 110 -36 34 -36 59 -1 59 20 0 76 -49 76 -67 0 -14 47 -36 63 -30 21 8 27
54 14 114 -8 37 -8 56 0 64 15 15 63 0 63 -20 0 -9 9 -27 19 -40 18 -23 21
-24 60 -13 22 7 60 27 83 45 54 40 121 77 141 77 8 0 20 7 27 15 7 8 19 15 28
15 8 0 23 7 33 16 36 32 198 114 226 114 13 0 23 5 23 10 0 6 12 16 28 22 15
7 34 17 42 23 8 6 40 21 70 32 30 11 80 37 110 57 57 38 80 44 80 24z m-2052
-2173 c25 -6 29 -36 11 -82 -6 -15 -15 -37 -19 -48 -4 -11 -17 -45 -28 -75
-11 -30 -25 -71 -31 -90 -17 -59 -41 -124 -55 -150 -8 -14 -17 -42 -21 -62 -4
-21 -13 -42 -21 -49 -8 -6 -14 -19 -14 -29 0 -10 -6 -23 -14 -29 -8 -6 -17
-32 -21 -56 -3 -25 -13 -57 -21 -73 -7 -15 -14 -32 -14 -38 0 -14 -79 -9 -130
8 -19 6 -44 12 -55 13 -33 3 -99 17 -110 24 -5 3 -21 7 -35 8 -41 5 -110 25
-116 34 -3 5 -22 9 -42 9 -21 0 -48 9 -62 20 -14 11 -33 20 -42 20 -21 0 -68
21 -68 30 0 3 -16 12 -35 19 -19 7 -35 16 -35 21 0 5 -9 12 -20 15 -11 3 -20
13 -20 21 0 8 -6 14 -14 14 -7 0 -26 18 -41 40 -37 54 -39 152 -4 202 13 18
27 35 31 36 4 2 8 9 8 16 0 6 14 20 30 29 17 10 30 22 30 28 0 5 9 9 19 9 10
0 21 7 24 14 7 18 98 61 147 71 19 4 53 12 75 20 22 7 63 18 90 24 28 6 61 14
75 17 14 4 72 10 130 15 58 5 114 10 125 11 34 5 269 -1 293 -7z"/>
</g>
</svg>
