<?xml version="1.0" standalone="no"?>
<!DOCTYPE svg PUBLIC "-//W3C//DTD SVG 20010904//EN"
 "http://www.w3.org/TR/2001/REC-SVG-20010904/DTD/svg10.dtd">
<svg version="1.0" xmlns="http://www.w3.org/2000/svg"
 width="555.000000pt" height="457.000000pt" viewBox="0 0 555.000000 457.000000"
 preserveAspectRatio="xMidYMid meet">
<metadata>
Created by potrace 1.16, written by Peter Selinger 2001-2019
</metadata>
<g transform="translate(0.000000,457.000000) scale(0.100000,-0.100000)"
fill="#000000" stroke="none">
<path d="M2577 4304 c-2 -2 -886 -15 -925 -15 -277 6 -714 6 -724 0 -16 -10
-16 -61 -5 -554 8 -323 15 -1017 23 -2250 2 -269 3 -493 4 -497 0 -5 9 -8 20
-8 10 0 23 -6 27 -14 7 -13 23 -27 142 -125 24 -20 94 -80 156 -134 62 -53
177 -148 256 -211 79 -63 164 -132 189 -155 25 -22 56 -49 70 -60 14 -11 21
-21 15 -21 -5 0 1 -6 15 -13 14 -7 26 -21 28 -31 2 -11 13 -28 23 -39 10 -12
19 -24 19 -28 0 -5 25 -6 55 -4 35 2 65 -1 82 -10 21 -11 30 -12 42 -2 15 12
282 16 1389 19 412 2 485 0 493 -13 6 -9 9 -10 9 -1 0 6 9 12 20 12 41 0 47
50 36 340 -12 323 -17 661 -22 1385 -10 1485 -10 1471 4 1487 17 21 -1 63 -40
97 -15 13 -28 29 -28 35 0 6 -19 24 -43 41 -23 16 -82 66 -132 110 -49 44 -95
84 -101 90 -7 5 -29 24 -50 40 -67 53 -169 138 -184 155 -8 8 -40 35 -70 60
-53 43 -78 65 -146 127 -17 15 -74 64 -126 107 l-95 80 -212 0 c-117 1 -213 0
-214 0z m-917 -93 c460 6 1262 -1 1298 -11 37 -10 68 -33 330 -248 42 -35 100
-85 127 -111 28 -26 77 -68 110 -95 33 -26 96 -81 140 -120 44 -40 101 -91
128 -114 l47 -41 -357 0 c-197 0 -407 0 -468 -1 -146 -1 -894 10 -970 15 -45
2 -64 -1 -77 -12 -15 -13 -18 -14 -19 -2 -2 19 -1 22 5 39 5 12 -2 15 -36 13
-41 -1 -69 15 -143 82 -12 11 -44 38 -70 60 -27 22 -56 47 -64 56 -26 25 -108
89 -114 89 -4 0 -22 15 -40 33 -19 17 -71 64 -117 102 -45 39 -98 84 -116 100
-19 17 -48 41 -64 55 -47 38 -120 108 -120 115 0 3 96 3 213 0 116 -3 286 -5
377 -4z m-633 -84 c4 -7 35 -34 68 -59 33 -25 69 -54 80 -65 11 -10 45 -38 75
-61 30 -24 75 -62 100 -85 25 -23 72 -64 105 -92 61 -50 71 -59 180 -156 33
-29 70 -62 82 -72 20 -18 20 -22 7 -42 -8 -12 -12 -23 -10 -26 7 -7 16 -313
21 -749 3 -234 7 -501 10 -595 6 -217 16 -889 20 -1338 2 -318 1 -346 -14
-334 -79 65 -90 74 -191 152 -36 27 -67 52 -70 55 -3 3 -32 27 -65 55 -33 27
-71 59 -85 72 -14 12 -59 49 -100 83 -72 60 -93 78 -158 138 -16 15 -33 27
-38 27 -5 0 -10 64 -11 145 -1 80 -4 280 -8 445 -24 1169 -36 2212 -28 2408 5
101 12 124 30 94z m819 -713 c15 -22 17 -68 20 -382 1 -196 5 -564 9 -817 3
-253 8 -777 11 -1164 2 -387 7 -709 11 -715 3 -6 -2 -4 -11 5 -23 22 -24 37
-31 469 -3 206 -7 440 -10 520 -6 201 -14 621 -20 1095 -3 220 -7 538 -10 708
-2 184 0 307 5 307 5 0 17 -11 26 -26z m1114 -28 c272 -3 597 -5 722 -6 171
-1 229 -4 237 -14 7 -8 10 -70 9 -167 -1 -85 -1 -251 1 -369 1 -118 2 -233 2
-255 l-1 -40 -22 33 c-13 17 -28 30 -35 27 -37 -13 -83 -16 -83 -6 0 7 -5 9
-12 4 -7 -4 -83 -9 -168 -11 -131 -2 -1202 -4 -1555 -2 l-110 0 1 383 c0 210
1 393 2 407 l2 26 258 -3 c141 -1 480 -4 752 -7z m979 -1195 c0 -146 2 -548 4
-892 l2 -627 -40 0 c-22 0 -112 -3 -200 -6 -88 -3 -510 -7 -938 -8 -671 -2
-780 0 -787 12 -5 8 -9 38 -9 65 1 28 -1 194 -5 370 -10 543 -19 1216 -19
1294 1 47 6 76 14 81 6 5 109 9 228 9 119 1 432 2 696 4 264 1 599 0 745 -3
146 -2 271 -1 278 3 6 5 13 16 13 25 1 9 5 0 9 -22 4 -21 8 -158 9 -305z
m-1299 -1620 c63 0 309 0 545 -1 237 -1 505 -2 597 -3 l166 0 2 -159 c1 -178
11 -158 -80 -163 -99 -4 -1169 -18 -1455 -18 -330 0 -424 3 -423 13 1 3 -2 34
-5 70 -4 36 -9 106 -10 156 l-4 92 41 4 c23 2 122 6 221 7 99 1 181 4 182 5 1
1 26 1 55 -1 29 -2 105 -3 168 -2z"/>
<path d="M3720 3182 c-14 -2 -32 -6 -40 -9 -8 -3 -23 -7 -33 -8 -10 -1 -23 -7
-30 -14 -15 -15 -25 -210 -14 -271 5 -25 9 -57 9 -72 -1 -38 27 -57 89 -64 75
-8 103 5 132 64 21 43 23 55 16 102 -5 30 -6 70 -3 89 12 83 14 125 9 142 -11
35 -63 51 -135 41z m57 -210 c-2 -133 -11 -156 -56 -145 -14 3 -29 10 -32 16
-4 5 -10 54 -14 109 -6 95 -6 100 16 119 12 10 37 19 55 19 l33 0 -2 -118z"/>
<path d="M3621 2256 c-29 -30 -33 -41 -33 -88 -1 -29 -3 -57 -6 -62 -3 -5 -5
-37 -4 -70 0 -34 1 -83 1 -109 1 -29 5 -46 11 -42 6 3 10 -3 10 -14 0 -27 47
-70 85 -76 17 -3 54 2 85 12 51 17 55 21 72 68 14 38 17 64 12 105 -3 30 -8
93 -9 140 -4 122 -9 135 -59 154 -23 9 -62 16 -87 16 -38 0 -50 -5 -78 -34z
m136 -69 c11 -17 12 -31 18 -145 2 -57 0 -113 -5 -126 -9 -25 -53 -38 -86 -25
-11 4 -15 8 -10 8 5 1 4 7 -2 14 -11 14 -16 168 -7 231 7 46 9 47 67 53 10 1
21 -4 25 -10z"/>
<path d="M2105 503 c-13 -12 -15 -25 -10 -52 4 -20 7 -62 8 -94 2 -56 13 -76
44 -77 32 0 53 49 34 79 -5 7 -5 27 -1 42 5 16 5 31 1 34 -5 2 -6 16 -3 30 9
48 -39 73 -73 38z"/>
<path d="M2306 499 c-14 -16 -18 -37 -17 -84 1 -91 13 -117 52 -113 l31 3 1
88 c0 69 -3 93 -16 108 -21 24 -28 24 -51 -2z"/>
<path d="M3086 498 c-18 -25 -21 -64 -7 -73 5 -3 9 -30 8 -61 -1 -48 2 -58 23
-74 24 -18 24 -18 37 8 21 40 15 180 -8 203 -25 25 -34 24 -53 -3z"/>
<path d="M3487 496 c-29 -29 -33 -49 -17 -91 6 -15 11 -44 12 -65 1 -30 6 -40
22 -44 28 -7 38 5 47 61 13 82 11 110 -14 139 l-23 27 -27 -27z"/>
<path d="M2497 498 c-13 -10 -17 -35 -19 -114 -3 -93 -1 -103 19 -125 21 -21
24 -22 39 -8 12 12 17 43 20 124 4 95 3 109 -13 121 -22 17 -25 17 -46 2z"/>
<path d="M3735 490 c-14 -15 -19 -41 -22 -98 -3 -66 -1 -81 16 -102 18 -22 22
-23 35 -10 15 15 22 40 32 115 9 59 6 85 -10 101 -19 19 -30 18 -51 -6z"/>
<path d="M3281 484 c-19 -14 -22 -22 -16 -48 4 -17 9 -58 12 -91 5 -64 20 -89
45 -80 16 7 28 71 28 159 0 35 -5 53 -17 62 -23 17 -24 17 -52 -2z"/>
<path d="M2864 463 c-19 -29 -20 -59 -1 -82 6 -7 12 -18 13 -25 4 -22 23 -64
32 -70 33 -20 70 32 50 69 -5 9 -11 31 -13 48 -2 18 -4 35 -4 38 -2 12 -39 49
-49 49 -5 0 -18 -12 -28 -27z"/>
<path d="M2673 458 c-16 -19 -20 -34 -17 -81 4 -89 10 -107 39 -107 27 0 33
14 38 87 2 23 6 45 9 49 9 9 -2 36 -23 57 -23 21 -21 22 -46 -5z"/>
</g>
</svg>
