<?xml version="1.0" standalone="no"?>
<!DOCTYPE svg PUBLIC "-//W3C//DTD SVG 20010904//EN"
 "http://www.w3.org/TR/2001/REC-SVG-20010904/DTD/svg10.dtd">
<svg version="1.0" xmlns="http://www.w3.org/2000/svg"
 width="501.000000pt" height="423.000000pt" viewBox="0 0 501.000000 423.000000"
 preserveAspectRatio="xMidYMid meet">
<metadata>
Created by potrace 1.16, written by Peter Selinger 2001-2019
</metadata>
<g transform="translate(0.000000,423.000000) scale(0.100000,-0.100000)"
fill="#000000" stroke="none">
<path d="M2500 3947 c-3 -2 -34 -7 -70 -10 -180 -16 -357 -49 -473 -88 -32
-11 -70 -21 -85 -23 -15 -1 -44 -10 -66 -19 -21 -10 -44 -17 -50 -17 -6 0 -47
-18 -90 -40 -44 -21 -83 -37 -87 -35 -4 3 -12 -2 -19 -10 -7 -8 -17 -15 -22
-15 -5 0 -21 -9 -35 -20 -14 -11 -34 -20 -44 -20 -11 0 -19 -4 -19 -8 0 -5
-23 -19 -51 -31 -28 -13 -70 -38 -93 -56 -24 -18 -53 -36 -65 -40 -12 -3 -38
-22 -59 -41 -20 -19 -51 -44 -69 -57 -18 -12 -36 -29 -40 -39 -7 -14 -47 -61
-141 -164 -48 -54 -50 -72 -46 -370 4 -229 8 -293 24 -354 10 -41 21 -97 25
-125 3 -27 12 -86 20 -130 7 -44 17 -123 20 -175 4 -52 9 -108 11 -125 2 -16
6 -70 9 -120 3 -49 9 -135 15 -190 6 -55 11 -156 11 -225 0 -69 2 -152 3 -185
4 -79 6 -198 4 -260 0 -27 1 -99 2 -160 2 -60 0 -120 -4 -131 -13 -42 25 -221
44 -209 4 3 16 -7 26 -20 10 -14 26 -25 36 -25 9 0 25 -10 35 -22 19 -23 44
-42 73 -55 8 -4 20 -13 25 -20 6 -8 17 -15 25 -17 25 -5 94 -37 122 -57 14
-11 33 -19 42 -19 8 0 19 -7 23 -15 5 -8 29 -19 53 -23 25 -5 61 -16 80 -25
41 -19 152 -47 184 -47 13 0 26 -3 29 -7 4 -3 22 -8 39 -10 18 -2 40 -6 48 -9
8 -3 35 -8 60 -10 25 -2 61 -6 80 -9 62 -8 92 -8 270 -1 96 5 180 12 185 16 6
4 35 10 65 14 30 3 66 8 80 11 14 3 49 9 78 12 29 3 55 10 58 14 3 5 15 9 27
9 12 0 34 6 49 14 15 8 40 17 57 21 17 4 33 11 36 16 4 5 15 9 26 9 11 0 37 9
57 19 69 36 90 43 101 37 6 -4 11 -1 11 6 0 7 13 19 28 26 16 6 37 20 48 31
15 13 32 17 65 15 184 -14 167 -16 233 29 125 84 226 189 226 234 -1 46 -53
143 -77 143 -6 0 -29 14 -51 30 -23 17 -42 27 -42 24 0 -4 -6 -2 -12 3 -7 6
-26 13 -42 17 -25 6 -27 10 -22 39 4 24 18 314 18 372 0 36 -13 290 -17 338
-3 31 0 92 6 135 6 42 11 109 11 147 -2 185 -14 385 -27 436 -8 30 -14 91 -13
135 2 80 -10 283 -17 295 -3 3 -7 26 -10 50 -3 24 -10 59 -16 78 -7 20 -8 51
-4 80 23 132 3 222 -63 285 -35 33 -124 91 -165 107 l-28 11 31 23 c30 22 80
88 80 105 0 6 5 10 10 10 18 0 60 107 66 167 5 53 2 63 -30 118 -20 33 -36 56
-36 51 0 -5 -6 -4 -12 2 -29 23 -139 81 -184 96 -46 14 -149 34 -219 41 -67 7
-370 17 -375 12z m275 -111 c77 -4 151 -9 165 -12 40 -9 55 -12 55 -14 0 -3
50 -10 72 -10 11 0 23 -7 27 -15 3 -8 22 -23 43 -35 97 -52 103 -61 101 -130
-1 -45 -9 -66 -38 -112 -41 -62 -51 -74 -94 -103 -60 -41 -74 -51 -120 -78
-25 -16 -46 -33 -46 -39 0 -5 -4 -6 -10 -3 -5 3 -10 2 -10 -3 0 -9 -102 -63
-126 -66 -6 -1 -19 -8 -28 -15 -8 -7 -20 -10 -26 -6 -5 3 -10 2 -10 -2 0 -8
-73 -46 -90 -48 -3 0 -12 -5 -20 -10 -29 -19 -332 -100 -410 -110 -81 -10
-112 -15 -121 -21 -4 -2 -41 -6 -81 -9 -40 -3 -91 -7 -113 -10 -22 -3 -67 -7
-99 -10 -32 -3 -62 -7 -65 -9 -3 -2 -76 -7 -161 -11 -85 -4 -159 -10 -163 -12
-16 -10 -245 -4 -285 7 -50 13 -122 59 -122 77 0 7 -6 22 -12 33 -10 16 -9 25
7 52 26 45 82 118 114 148 14 14 36 39 49 55 31 39 190 155 213 155 10 0 22 6
26 13 11 18 100 60 112 53 5 -3 11 3 14 14 3 13 17 22 36 26 17 4 36 13 42 20
6 8 19 14 28 14 9 0 21 4 26 9 15 14 84 51 96 51 6 0 17 7 25 15 13 13 34 18
60 14 4 0 10 4 13 9 3 5 24 12 46 15 22 3 57 13 77 21 20 9 51 18 70 21 18 2
51 9 73 15 79 20 302 52 400 57 55 3 102 7 104 9 2 2 7 2 10 0 4 -3 69 -7 146
-10z m315 -626 c3 -1 16 -1 30 -1 14 1 52 -14 84 -33 32 -19 61 -36 65 -38 14
-6 58 -74 64 -97 7 -28 -8 -72 -31 -89 -9 -7 -43 -36 -76 -65 -40 -35 -92 -66
-165 -99 -58 -26 -112 -48 -119 -48 -7 0 -27 -7 -44 -16 -25 -13 -32 -14 -39
-2 -7 10 -9 9 -9 -4 0 -10 -6 -18 -12 -19 -45 -1 -109 -12 -148 -25 -25 -7
-74 -14 -110 -13 -36 0 -112 -6 -170 -15 -58 -8 -118 -14 -135 -11 -16 2 -70
4 -120 5 -49 1 -124 8 -165 15 -66 13 -220 35 -275 41 -11 1 -40 4 -65 8 -25
3 -73 8 -108 11 -34 3 -79 12 -99 20 -19 8 -46 15 -60 15 -24 0 -123 38 -133
50 -3 4 -18 12 -35 17 -25 9 -17 11 53 12 46 0 87 3 91 5 5 3 22 1 39 -4 18
-4 34 -5 37 -1 2 5 60 11 127 15 68 3 159 11 203 16 168 20 262 31 315 35 81
8 179 26 225 41 22 8 56 15 75 17 97 10 445 138 458 169 2 4 10 8 18 8 8 0 14
5 14 10 0 6 6 10 13 10 6 0 37 12 67 27 72 36 109 44 140 33z m-2035 -419 c67
-66 140 -101 334 -163 18 -5 63 -14 100 -19 141 -18 308 -39 346 -43 22 -2 72
-10 110 -17 98 -17 122 -19 285 -22 110 -3 161 0 210 13 38 9 98 16 145 15 44
-1 91 2 105 7 14 5 52 14 84 19 90 15 246 71 426 152 14 7 39 24 55 40 60 57
61 56 80 -46 9 -50 19 -123 22 -162 5 -78 5 -82 4 -180 -1 -38 3 -85 8 -104 6
-18 10 -36 9 -40 0 -3 1 -8 2 -11 1 -3 4 -54 6 -115 2 -60 6 -129 9 -153 3
-24 1 -86 -5 -138 -11 -104 -14 -327 -5 -444 8 -94 7 -444 -1 -488 -5 -26 -11
-32 -31 -32 -26 0 -64 17 -75 33 -9 15 -124 22 -132 8 -4 -6 -16 -11 -27 -11
-64 0 -204 -114 -233 -190 -18 -46 -15 -123 5 -136 6 -3 14 -17 19 -30 6 -13
18 -24 28 -24 10 0 43 -17 73 -38 30 -21 66 -44 81 -51 34 -17 43 -40 20 -47
-18 -6 -30 -11 -104 -43 -26 -12 -50 -21 -53 -21 -3 0 -31 -11 -60 -25 -59
-27 -194 -64 -259 -71 -23 -2 -88 -11 -146 -20 -108 -15 -404 -22 -475 -11
-47 8 -80 15 -80 17 0 1 -20 3 -45 6 -25 2 -72 11 -105 20 -33 9 -67 17 -75
18 -34 4 -138 40 -181 62 -26 13 -53 24 -60 24 -7 0 -39 18 -70 40 -31 22 -59
37 -61 34 -3 -2 -11 2 -18 11 -7 8 -18 15 -24 15 -7 0 -27 13 -46 30 -19 16
-41 29 -47 30 -7 0 -13 7 -13 15 0 8 -7 15 -15 15 -8 0 -15 8 -15 18 0 10 -5
23 -11 29 -8 8 -12 138 -14 415 -4 412 -8 577 -19 683 -3 33 -8 95 -10 137 -3
42 -8 99 -11 125 -4 26 -8 75 -10 108 -5 94 -25 257 -35 290 -5 17 -14 66 -19
110 -6 44 -13 91 -15 105 -14 74 -17 102 -23 177 -6 79 -1 113 14 113 4 0 25
-18 48 -39z"/>
</g>
</svg>
