<?xml version="1.0" standalone="no"?>
<!DOCTYPE svg PUBLIC "-//W3C//DTD SVG 20010904//EN"
 "http://www.w3.org/TR/2001/REC-SVG-20010904/DTD/svg10.dtd">
<svg version="1.0" xmlns="http://www.w3.org/2000/svg"
 width="433.000000pt" height="403.000000pt" viewBox="0 0 433.000000 403.000000"
 preserveAspectRatio="xMidYMid meet">
<metadata>
Created by potrace 1.16, written by Peter Selinger 2001-2019
</metadata>
<g transform="translate(0.000000,403.000000) scale(0.100000,-0.100000)"
fill="#000000" stroke="none">
<path d="M1060 3955 c-36 -17 -102 -79 -113 -108 -3 -9 -13 -17 -21 -17 -9 0
-13 -6 -10 -14 3 -7 -1 -20 -8 -27 -93 -96 -85 -299 17 -428 11 -13 48 -54 82
-89 l63 -64 -19 -26 c-11 -15 -28 -36 -38 -47 -64 -69 -76 -109 -76 -245 1
-59 6 -83 22 -112 12 -20 24 -48 27 -62 9 -49 76 -165 120 -208 25 -24 61 -66
80 -95 19 -29 39 -55 45 -58 5 -4 -11 -20 -38 -37 -53 -34 -143 -125 -143
-145 0 -7 -3 -13 -8 -13 -12 0 -32 -55 -36 -101 -7 -86 -18 -137 -39 -172 -23
-37 -87 -87 -112 -87 -31 0 -202 -64 -232 -86 -17 -13 -35 -24 -39 -24 -34 0
-302 -229 -411 -350 -12 -14 -34 -36 -48 -50 -14 -13 -25 -30 -25 -37 0 -7 0
-16 -1 -20 0 -5 9 -14 19 -21 18 -12 24 -9 55 25 66 72 97 108 97 116 0 4 7 7
15 7 8 0 15 5 15 11 0 7 13 24 28 38 115 106 144 131 153 126 5 -4 9 0 9 8 0
18 130 106 183 124 9 3 17 9 17 13 0 4 37 18 83 30 99 27 155 48 178 69 29 25
63 59 75 73 16 19 41 104 49 161 15 111 30 141 107 212 86 78 94 79 159 8 97
-105 203 -204 247 -230 23 -14 42 -30 42 -37 0 -7 11 -19 25 -26 13 -7 33 -24
42 -38 42 -58 68 -84 136 -135 95 -72 184 -166 242 -257 46 -70 48 -76 46
-138 -2 -68 -18 -112 -49 -134 -11 -7 -24 -24 -31 -36 -7 -13 -15 -21 -18 -18
-3 2 -15 -4 -27 -16 -29 -28 -112 -66 -172 -78 -27 -6 -141 -15 -254 -20 -155
-7 -223 -15 -280 -31 -41 -11 -91 -22 -111 -24 -20 -1 -45 -6 -56 -9 -12 -4
-38 -9 -59 -11 -37 -5 -201 -75 -234 -100 -16 -13 -127 -65 -137 -65 -7 0
-173 -110 -191 -127 -7 -7 -17 -13 -21 -13 -5 0 -19 -20 -31 -44 -21 -38 -22
-45 -9 -58 18 -19 59 -6 59 18 0 18 50 65 90 86 14 7 33 20 42 28 23 19 166
98 293 161 80 39 114 50 170 55 39 4 80 10 92 15 57 21 221 42 348 44 171 3
315 21 375 48 102 46 179 110 249 207 29 40 31 49 31 124 0 75 -3 85 -36 140
-60 101 -205 265 -256 292 -27 14 -160 142 -212 205 -16 19 -39 41 -53 50 -27
18 -179 165 -236 230 l-39 43 69 23 c37 13 77 28 88 33 33 15 56 19 151 30 50
5 104 12 120 16 28 5 40 -5 179 -148 219 -224 540 -544 698 -695 75 -73 137
-135 137 -137 0 -3 10 -16 23 -29 12 -13 35 -39 52 -57 16 -18 57 -56 90 -83
63 -52 170 -159 395 -397 74 -78 143 -150 154 -159 58 -50 136 -130 136 -140
0 -6 3 -11 8 -11 10 0 59 -48 117 -116 28 -32 65 -73 83 -92 17 -19 39 -48 47
-66 9 -17 33 -44 55 -60 42 -31 90 -95 90 -120 0 -14 59 -66 75 -66 14 0 55
51 55 68 0 9 -24 49 -53 87 -29 39 -69 95 -90 126 -20 30 -55 72 -77 92 -23
20 -39 41 -36 46 4 5 -5 18 -19 29 -14 11 -25 24 -25 29 0 6 -10 18 -21 29
-12 10 -32 35 -45 55 -12 20 -33 48 -46 63 -13 14 -35 41 -50 59 -14 17 -59
70 -98 117 -40 47 -77 95 -83 108 -5 12 -14 22 -19 22 -4 0 -8 6 -8 13 0 8
-19 32 -42 53 -67 63 -102 106 -123 151 -11 23 -26 43 -32 43 -7 0 -13 7 -13
15 0 8 -20 34 -45 58 -25 24 -45 49 -45 55 0 5 -7 12 -15 16 -8 3 -15 11 -15
17 0 7 -16 31 -35 55 -19 23 -35 45 -35 48 0 12 -61 90 -125 160 -36 39 -72
78 -80 87 -8 9 -15 20 -15 26 0 5 -9 21 -21 34 -12 13 -36 47 -54 74 -18 28
-46 64 -61 81 -47 50 -89 106 -120 159 -16 28 -47 73 -69 100 -22 28 -49 64
-59 80 -11 17 -25 34 -33 38 -7 4 -13 13 -13 19 0 5 -13 27 -29 47 -15 20 -45
67 -66 106 -20 38 -46 76 -57 84 -20 13 -20 14 -2 24 10 6 32 12 49 14 87 10
76 7 170 48 22 10 45 18 50 19 19 2 95 50 95 60 0 5 8 19 18 30 38 43 56 148
36 211 -20 64 -40 98 -90 149 -48 48 -125 106 -141 106 -5 0 -20 10 -33 22
-32 30 -88 68 -100 68 -6 0 -34 11 -63 25 -81 39 -248 77 -352 78 -112 2 -197
-4 -211 -15 -6 -4 -25 -7 -42 -5 -33 2 -67 42 -128 149 -18 32 -37 63 -43 70
-6 7 -35 45 -63 83 -61 82 -158 179 -202 202 -44 23 -152 27 -196 8z m140 -98
c48 -16 111 -69 151 -125 18 -26 44 -58 56 -72 13 -14 23 -28 23 -31 0 -3 14
-22 30 -40 17 -19 33 -44 36 -56 3 -12 11 -24 17 -26 7 -3 23 -26 37 -52 14
-26 41 -64 60 -85 19 -20 44 -47 55 -61 66 -81 95 -120 95 -129 0 -5 4 -10 9
-10 5 0 18 -15 29 -34 11 -18 36 -51 56 -72 20 -22 57 -66 82 -99 24 -33 62
-80 84 -105 21 -25 51 -63 65 -85 15 -22 31 -41 36 -43 5 -2 9 -7 9 -12 0 -4
42 -64 93 -133 96 -131 157 -223 157 -238 0 -5 4 -9 9 -9 5 0 13 -10 17 -22 7
-24 9 -27 59 -83 19 -22 35 -46 35 -52 0 -7 4 -13 8 -13 4 0 31 -35 59 -77 28
-43 61 -89 72 -103 11 -14 25 -30 29 -36 5 -5 26 -32 46 -58 20 -27 63 -81 96
-121 33 -41 60 -77 60 -80 0 -10 62 -88 77 -98 7 -4 33 -33 58 -65 25 -31 57
-70 71 -87 13 -16 42 -57 64 -90 22 -33 62 -85 88 -115 27 -30 57 -70 66 -88
9 -17 21 -32 25 -32 5 0 19 -16 32 -36 21 -35 47 -66 88 -109 31 -33 122 -157
118 -161 -5 -5 -245 238 -323 327 -31 36 -163 158 -219 204 -26 22 -60 53 -74
68 -68 75 -85 95 -114 131 -18 21 -45 51 -62 65 -16 14 -48 45 -72 68 -24 24
-45 43 -47 43 -2 0 -54 48 -114 108 -61 59 -116 112 -124 118 -7 6 -67 68
-133 138 -66 69 -205 213 -310 319 -104 106 -230 238 -280 293 -49 54 -99 108
-110 119 -12 11 -46 49 -75 85 -29 36 -112 122 -184 193 -72 70 -125 128 -118
129 6 0 18 1 25 2 6 1 15 6 19 11 4 6 30 -14 62 -47 29 -32 57 -58 61 -58 4 0
58 -52 119 -115 95 -98 118 -115 149 -119 20 -3 37 -1 37 4 0 6 5 10 10 10 6
0 20 10 31 21 16 16 22 33 21 68 -2 81 -6 96 -45 141 -21 25 -47 61 -57 80
-10 19 -27 44 -38 56 -11 11 -34 47 -52 80 -18 32 -47 82 -65 109 -17 28 -44
70 -60 95 -105 168 -173 209 -235 141 -92 -102 -108 -122 -113 -149 -8 -39 7
-135 22 -140 6 -2 11 -12 11 -23 0 -10 6 -19 13 -19 15 0 82 -79 73 -87 -3 -3
-17 -5 -32 -5 -45 0 -165 137 -198 225 -34 90 -15 225 33 242 9 4 30 25 46 48
29 41 84 77 115 77 8 0 31 -6 50 -13z m72 -252 c7 -9 19 -22 26 -30 6 -7 12
-17 12 -22 0 -4 11 -20 25 -35 14 -15 25 -32 25 -39 0 -6 10 -24 21 -41 l22
-30 -24 -22 c-13 -11 -36 -27 -51 -33 -25 -11 -33 -9 -73 18 -53 36 -95 87
-95 116 0 30 21 84 30 78 5 -3 19 8 32 24 27 35 33 36 50 16z m748 -230 c25
-3 56 -10 70 -15 24 -8 68 -20 99 -26 7 -1 35 -12 62 -23 26 -12 54 -21 61
-21 7 0 38 -18 68 -40 30 -22 78 -55 106 -74 80 -53 118 -97 142 -164 24 -64
24 -131 0 -175 -10 -20 -39 -44 -45 -39 -2 1 -12 -7 -23 -18 -11 -11 -28 -20
-38 -20 -10 0 -28 -7 -40 -16 -12 -8 -22 -13 -22 -10 0 2 -15 0 -32 -5 -18 -5
-62 -12 -97 -15 -36 -3 -68 -7 -73 -10 -10 -7 -39 24 -86 92 -22 33 -54 74
-71 93 -17 18 -31 39 -31 47 0 8 -4 14 -9 14 -5 0 -39 40 -74 89 -36 50 -77
97 -91 107 -14 9 -26 21 -26 26 0 6 -8 18 -18 27 -11 9 -25 27 -32 41 -15 29
-70 102 -85 112 -17 12 3 20 67 25 35 3 65 7 68 10 5 4 50 1 150 -12z m-525
-108 c21 -34 56 -82 76 -107 20 -25 42 -56 49 -70 15 -27 23 -80 13 -80 -17 0
-71 52 -77 75 -4 14 -10 23 -15 21 -5 -3 -26 13 -48 37 -22 23 -63 62 -92 86
-28 25 -51 50 -51 56 0 9 62 36 100 43 3 1 23 -27 45 -61z m-333 -144 c19 -21
74 -74 121 -118 48 -44 87 -83 87 -87 0 -4 10 -18 23 -30 12 -13 42 -48 67
-78 25 -29 61 -68 79 -84 19 -17 51 -49 70 -71 20 -21 59 -64 88 -94 28 -30
50 -58 48 -61 -3 -4 -40 -10 -83 -13 -44 -3 -110 -17 -148 -31 -126 -45 -169
-61 -183 -70 -16 -10 -56 30 -82 82 -7 15 -39 52 -71 83 -35 34 -66 76 -78
105 -11 27 -27 63 -35 79 -42 91 -54 128 -60 182 -7 60 7 133 25 133 5 0 12
10 15 23 7 22 63 87 75 87 4 0 23 -17 42 -37z"/>
</g>
</svg>
