<?xml version="1.0" standalone="no"?>
<!DOCTYPE svg PUBLIC "-//W3C//DTD SVG 20010904//EN"
 "http://www.w3.org/TR/2001/REC-SVG-20010904/DTD/svg10.dtd">
<svg version="1.0" xmlns="http://www.w3.org/2000/svg"
 width="491.000000pt" height="429.000000pt" viewBox="0 0 491.000000 429.000000"
 preserveAspectRatio="xMidYMid meet">
<metadata>
Created by potrace 1.16, written by Peter Selinger 2001-2019
</metadata>
<g transform="translate(0.000000,429.000000) scale(0.100000,-0.100000)"
fill="#000000" stroke="none">
<path d="M3054 4018 c-3 -4 -13 -8 -22 -8 -9 0 -28 -7 -42 -15 -56 -32 -270
-135 -282 -135 -7 0 -24 -9 -38 -20 -14 -11 -28 -20 -33 -20 -4 0 -24 -11 -45
-24 -20 -14 -73 -39 -117 -57 -44 -19 -109 -50 -145 -70 -36 -20 -87 -47 -115
-59 -62 -28 -134 -63 -160 -77 -35 -20 -209 -106 -245 -122 -31 -14 -206 -102
-270 -137 -56 -30 -320 -154 -329 -154 -22 0 -110 -67 -114 -87 -2 -12 0 -24
5 -25 4 -2 -1 -20 -12 -41 -14 -27 -18 -43 -11 -55 19 -36 111 -322 111 -347
0 -14 4 -25 9 -25 5 0 11 -8 14 -17 3 -10 18 -49 33 -88 14 -38 32 -91 39
-116 12 -46 12 -47 -16 -68 -38 -28 -48 -67 -23 -86 27 -20 39 -18 54 10 7 13
17 22 21 19 5 -3 20 -40 33 -82 14 -42 57 -169 96 -282 40 -113 78 -230 85
-260 8 -30 44 -143 80 -250 37 -107 68 -199 69 -205 2 -5 6 -17 9 -25 3 -8 20
-62 37 -120 18 -58 37 -114 42 -125 10 -23 31 -96 57 -203 10 -41 24 -79 30
-85 6 -6 11 -19 11 -28 0 -9 9 -38 21 -63 11 -26 18 -54 15 -63 -4 -8 3 -30
15 -49 16 -26 28 -34 49 -34 19 0 31 -6 35 -19 4 -12 19 -21 45 -25 49 -8 352
-105 364 -117 6 -5 19 -9 30 -9 12 0 35 -7 51 -16 17 -9 40 -16 53 -16 12 1
22 -2 22 -7 0 -5 14 -12 30 -16 17 -4 30 -11 30 -16 0 -5 9 -9 19 -9 11 0 22
-4 25 -9 8 -12 57 -1 88 20 14 11 31 19 37 19 6 0 11 5 11 11 0 6 6 9 14 6 8
-3 16 -2 18 2 10 24 213 141 245 141 7 0 13 3 13 8 0 4 21 18 48 32 26 13 49
27 52 30 3 3 30 16 60 30 30 14 57 27 60 31 6 7 158 91 183 101 10 4 32 18 50
32 31 23 155 88 227 120 19 8 64 32 100 52 65 37 148 82 185 101 21 11 24 12
183 101 167 92 225 122 240 122 14 0 78 45 100 70 24 28 34 63 20 71 -10 7
-10 11 0 21 14 14 16 60 3 74 -8 8 -95 273 -106 321 -2 10 -25 79 -50 152 -25
74 -45 142 -45 151 0 9 -4 20 -9 26 -4 5 -25 63 -45 129 -20 66 -46 143 -57
170 -11 28 -30 82 -42 120 -11 39 -23 72 -26 75 -4 3 -7 14 -9 25 -3 19 -15
58 -32 100 -10 26 -59 175 -65 197 -6 26 -75 230 -85 253 -22 48 -180 551
-201 639 -5 21 -14 47 -19 56 -6 12 -6 29 1 49 19 54 -34 100 -121 106 -14 1
-32 5 -40 8 -8 4 -78 29 -155 56 -77 27 -192 68 -255 91 -111 41 -186 55 -196
38z m184 -153 c90 -30 178 -61 195 -69 36 -16 117 -43 162 -55 l30 -8 -28 -12
c-16 -6 -33 -11 -39 -11 -6 0 -25 -10 -42 -23 -17 -12 -69 -40 -115 -62 -192
-91 -487 -238 -511 -255 -14 -9 -36 -21 -50 -25 -30 -9 -339 -157 -428 -204
-58 -31 -191 -91 -202 -91 -7 0 -10 -3 -7 -7 8 -8 -65 -53 -75 -47 -5 3 -8 0
-8 -5 0 -6 -5 -11 -11 -11 -7 0 -49 -18 -95 -40 -46 -22 -86 -40 -89 -40 -4 0
-23 -15 -43 -34 -20 -19 -41 -32 -47 -28 -5 3 -22 5 -37 3 -15 -1 -42 4 -60
12 -56 24 -318 112 -420 141 -32 9 -58 20 -58 25 0 8 218 121 235 121 6 1 28
9 50 20 22 11 43 19 47 20 4 0 37 18 73 40 36 22 68 40 70 40 3 0 23 11 45 25
22 14 40 23 40 20 0 -3 39 14 88 39 48 24 155 76 237 115 83 40 170 83 195 97
88 48 352 174 365 174 8 0 17 5 20 11 4 6 13 8 20 5 7 -2 15 1 18 7 5 13 131
78 177 92 14 4 32 13 40 20 8 7 32 16 53 20 21 4 37 13 37 21 0 8 1 14 3 14 1
0 75 -25 165 -55z m515 -327 c21 -57 43 -112 48 -123 5 -11 25 -72 44 -135 19
-63 66 -212 105 -330 38 -118 76 -240 86 -270 9 -30 22 -68 29 -85 7 -16 25
-70 40 -120 15 -49 35 -113 45 -140 10 -28 20 -61 21 -75 2 -14 7 -27 10 -30
3 -3 38 -106 78 -230 105 -322 201 -612 210 -635 13 -32 31 -113 31 -138 -1
-12 -6 -32 -13 -45 -14 -24 -112 -88 -216 -141 -35 -17 -70 -38 -78 -46 -8 -8
-18 -15 -23 -15 -5 0 -73 -37 -152 -81 -79 -45 -174 -99 -213 -119 -38 -20
-104 -56 -145 -80 -110 -63 -223 -124 -325 -176 -49 -26 -92 -50 -95 -54 -3
-5 -76 -44 -163 -89 -87 -44 -169 -89 -184 -101 -14 -11 -29 -20 -33 -20 -4 0
-34 -16 -65 -35 -69 -41 -77 -38 -100 43 -9 32 -29 86 -45 122 -16 36 -34 85
-40 110 -6 25 -15 54 -20 65 -4 11 -16 45 -26 75 -9 30 -27 82 -40 115 -12 33
-26 74 -30 90 -4 17 -13 39 -20 50 -8 11 -14 27 -14 37 0 9 -5 29 -12 45 -6
15 -12 30 -13 33 0 3 -6 14 -12 25 -5 11 -13 38 -17 60 -8 46 -54 185 -67 201
-5 6 -6 14 -2 17 3 4 2 7 -4 7 -5 0 -16 26 -23 58 -21 97 -133 426 -142 417
-3 -3 -8 13 -12 36 -4 23 -16 72 -27 108 -51 162 -150 468 -159 486 -9 19 -23
67 -70 235 -16 59 -17 67 -2 83 8 9 22 17 31 17 9 0 32 15 53 34 20 18 62 44
94 57 31 13 93 43 138 66 45 23 97 50 116 59 81 38 487 237 510 250 14 8 59
30 100 50 41 19 82 39 90 44 8 6 71 37 140 71 69 33 136 66 150 73 14 7 52 27
85 43 33 17 92 45 130 63 39 17 79 37 90 43 16 8 52 19 85 26 3 1 22 -45 43
-101z m-2380 -677 c15 -6 38 -13 52 -15 25 -5 174 -57 233 -82 18 -8 39 -14
47 -14 7 0 25 -4 38 -9 23 -9 24 -12 13 -43 -14 -39 -35 -78 -50 -94 -30 -29
-99 -48 -80 -21 10 14 10 35 0 58 -19 43 -85 -15 -73 -63 4 -14 -1 -16 -32
-13 -43 6 -151 46 -151 57 0 5 -6 8 -14 8 -8 0 -28 19 -45 42 -29 39 -30 43
-13 49 30 11 37 68 12 94 -17 16 -22 17 -29 6 -12 -18 -40 -7 -40 16 0 10 -3
30 -6 45 l-7 27 58 -19 c33 -10 71 -23 87 -29z m451 -323 c8 -18 25 -67 37
-108 12 -41 25 -79 29 -85 4 -5 10 -21 13 -35 3 -14 35 -113 72 -220 37 -107
68 -202 70 -210 2 -8 17 -54 34 -102 17 -49 31 -93 31 -99 0 -6 6 -25 14 -42
22 -49 160 -467 192 -582 2 -5 24 -71 49 -145 25 -74 51 -155 56 -180 6 -24
16 -58 23 -75 8 -16 19 -48 24 -70 6 -22 20 -67 32 -100 37 -106 42 -120 45
-141 2 -12 7 -30 13 -40 12 -25 23 -84 15 -84 -17 0 -260 78 -343 110 -30 12
-73 26 -95 31 -22 6 -44 14 -49 19 -5 5 -14 6 -21 4 -7 -3 -22 12 -35 32 -20
35 -74 180 -85 229 -3 11 -9 29 -15 40 -11 24 -36 92 -55 155 -15 49 -44 136
-52 160 -4 8 -8 24 -10 34 -2 11 -7 24 -12 30 -8 10 -19 43 -50 161 -5 17 -16
44 -25 60 -9 17 -16 40 -16 52 0 12 -5 35 -11 50 -45 110 -54 134 -70 198 -6
28 -15 55 -19 60 -4 6 -21 57 -39 115 -18 58 -39 125 -47 150 -9 25 -30 95
-49 155 -18 61 -44 142 -58 180 -14 39 -33 95 -42 126 l-17 56 27 27 c26 26
59 33 83 17 10 -6 4 -10 -21 -15 -57 -11 -71 -86 -17 -86 25 0 73 55 66 77 -5
16 0 18 48 15 81 -5 175 22 209 60 15 17 27 35 27 39 0 22 31 6 44 -23z m-479
-18 c3 -5 2 -10 -4 -10 -5 0 -13 5 -16 10 -3 6 -2 10 4 10 5 0 13 -4 16 -10z"/>
<path d="M3480 3500 c0 -5 -6 -10 -14 -10 -16 0 -28 -60 -15 -76 5 -6 14 -35
20 -65 6 -30 18 -66 26 -82 15 -30 30 -102 38 -184 8 -92 33 -131 78 -124 4 1
18 3 30 5 12 1 22 8 22 14 0 6 3 13 6 17 4 3 -2 30 -13 58 -11 29 -24 75 -28
102 -12 73 -31 145 -41 151 -5 3 -9 14 -9 25 0 36 -42 144 -64 161 -24 20 -36
23 -36 8z"/>
<path d="M3328 3252 c-28 -13 -38 -24 -43 -49 -5 -27 -1 -37 20 -57 21 -20 23
-26 12 -33 -20 -12 -29 -81 -12 -90 18 -11 45 -119 45 -181 0 -75 43 -105 97
-67 20 14 21 21 16 88 -3 39 -9 77 -13 82 -5 6 -17 46 -29 90 -11 44 -28 85
-37 92 -15 11 -15 13 1 29 11 11 14 24 10 38 -4 12 -9 33 -12 49 -6 31 -5 31
-55 9z"/>
<path d="M3140 3078 c0 -4 -4 -8 -10 -8 -26 0 -90 -96 -90 -134 0 -46 23 -74
74 -90 26 -9 59 -16 72 -16 52 0 33 -42 -21 -46 -50 -4 -99 -34 -103 -63 -5
-29 44 -75 67 -65 9 4 41 15 71 26 55 18 119 76 121 108 0 8 3 26 5 40 6 34
-13 77 -39 85 -12 3 -42 9 -66 11 -24 3 -51 9 -59 13 -16 9 -15 10 50 64 32
27 47 67 24 67 -9 0 -16 5 -16 10 0 6 -17 10 -40 8 -22 -1 -40 -6 -40 -10z"/>
<path d="M2906 2909 c-27 -7 -86 -59 -78 -67 2 -1 2 -7 0 -13 -2 -6 -14 -4
-33 5 -29 15 -31 15 -52 -11 -24 -28 -24 -40 4 -101 9 -17 17 -44 18 -60 2
-25 18 -71 32 -96 4 -6 -3 -3 -15 7 -16 15 -30 18 -66 13 l-46 -7 0 57 c0 58
-30 121 -51 108 -6 -3 -29 -8 -51 -10 -53 -5 -115 -55 -149 -122 -22 -43 -25
-58 -19 -93 5 -24 16 -49 27 -56 10 -7 23 -16 29 -21 22 -20 91 -23 145 -8
152 42 181 55 194 85 8 18 16 21 39 18 19 -3 35 2 47 14 17 17 18 24 8 62 -16
59 9 149 49 174 57 35 69 81 30 114 -23 21 -21 21 -62 8z m-334 -323 c-4 -43
-6 -46 -34 -46 -26 0 -29 3 -22 23 8 25 46 76 54 72 3 -2 4 -24 2 -49z"/>
<path d="M2205 2771 c-16 -4 -39 -13 -51 -19 -35 -19 -94 -91 -94 -115 0 -12
14 -60 31 -107 63 -175 89 -254 89 -271 0 -30 22 -68 42 -75 33 -10 67 4 74
32 7 26 -22 140 -38 150 -4 3 -8 15 -8 27 0 12 -7 35 -16 52 -14 27 -14 30 3
43 10 7 28 22 41 32 12 11 25 20 28 20 20 0 62 71 70 117 7 46 -20 88 -72 109
-36 15 -53 16 -99 5z m65 -112 c0 -13 -22 -32 -63 -55 -25 -13 -28 -13 -33 1
-9 24 34 65 68 65 15 0 28 -5 28 -11z"/>
<path d="M3239 2480 c-8 -4 -32 -11 -54 -14 -43 -8 -168 -67 -200 -96 -11 -10
-31 -21 -45 -25 -14 -4 -43 -20 -64 -34 -22 -14 -50 -33 -62 -41 -13 -8 -38
-33 -56 -55 -18 -21 -40 -46 -48 -55 -8 -9 -24 -32 -34 -51 -11 -19 -22 -36
-26 -39 -3 -3 -23 -33 -43 -66 -41 -68 -48 -125 -21 -155 22 -25 76 -1 66 29
-7 22 27 93 83 171 56 79 118 151 129 151 4 0 16 9 27 19 12 11 51 34 87 52
37 18 69 35 72 39 14 19 160 81 198 84 53 4 161 -7 219 -23 78 -21 154 -114
194 -236 15 -44 16 -245 3 -267 -5 -7 -10 -24 -11 -38 -3 -29 -19 -87 -40
-147 -17 -46 -129 -163 -157 -163 -9 0 -16 -4 -16 -9 0 -14 -30 -22 -94 -26
-46 -3 -67 0 -100 18 l-41 21 65 11 c129 20 194 76 263 226 52 112 60 181 39
334 -7 58 -40 116 -99 178 -22 22 -71 47 -94 47 -10 0 -21 5 -25 11 -4 8 -36
9 -103 4 -82 -6 -110 -13 -192 -49 -106 -47 -174 -100 -259 -203 -17 -20 -44
-80 -39 -85 2 -2 -7 -18 -19 -36 -15 -21 -25 -53 -29 -90 -3 -31 -9 -62 -14
-68 -5 -5 -10 -27 -13 -47 -2 -20 -7 -41 -11 -47 -12 -19 -16 -233 -4 -267 11
-34 40 -45 55 -21 4 7 8 64 8 128 1 77 6 131 17 165 9 28 22 81 29 118 7 38
20 85 30 105 9 20 19 42 21 49 7 22 92 118 139 156 68 57 186 104 278 112 66
5 84 3 127 -16 53 -23 64 -32 108 -90 24 -32 27 -45 29 -125 1 -88 -20 -195
-42 -209 -6 -3 -10 -15 -10 -26 0 -10 -4 -19 -8 -19 -4 0 -16 -14 -25 -30 -60
-101 -166 -147 -259 -111 -44 17 -45 32 0 25 79 -13 188 71 216 166 32 108 -4
265 -72 309 -41 27 -124 42 -166 30 -33 -10 -149 -78 -154 -91 -2 -5 -9 -14
-15 -21 -23 -25 -57 -76 -57 -87 0 -5 -3 -10 -8 -10 -11 0 -49 -118 -61 -192
-11 -67 -16 -285 -7 -323 29 -121 81 -239 113 -256 33 -18 53 3 53 56 0 34 -4
44 -20 48 -11 3 -23 13 -26 24 -3 10 -10 26 -16 37 -27 50 -38 118 -39 233 0
68 4 137 10 155 5 18 12 49 14 69 7 58 56 139 125 206 52 51 70 63 107 69 56
8 88 0 117 -29 29 -28 32 -43 33 -140 0 -85 2 -81 -87 -150 -24 -19 -66 -16
-80 6 -18 27 15 84 55 100 26 10 24 84 -3 92 -19 6 -72 -16 -96 -39 -24 -25
-47 -82 -45 -113 1 -18 -3 -33 -8 -33 -13 0 -3 -286 11 -330 3 -8 16 -50 29
-94 27 -88 73 -150 140 -188 21 -12 39 -26 39 -30 0 -5 4 -6 10 -3 5 3 31 -3
56 -14 89 -40 237 -21 355 43 35 19 79 43 97 52 38 19 115 93 134 129 7 13 30
49 52 80 32 48 37 62 33 92 -8 44 -10 47 -40 39 -17 -4 -30 -19 -42 -48 -16
-41 -51 -91 -110 -156 -31 -35 -181 -130 -215 -137 -11 -2 -24 -7 -30 -10 -5
-3 -42 -8 -82 -10 -110 -8 -188 19 -271 92 -49 43 -47 49 6 20 89 -52 202 -58
318 -18 30 10 60 16 67 14 6 -3 12 0 12 5 0 5 18 17 41 26 41 16 113 87 170
166 44 61 72 152 74 245 2 99 -5 127 -35 142 -22 11 -25 9 -37 -17 -9 -22 -9
-38 -2 -60 22 -62 0 -156 -56 -240 -38 -57 -142 -163 -154 -156 -5 3 -11 -1
-15 -9 -3 -8 -14 -15 -25 -15 -11 0 -42 -7 -68 -16 -71 -24 -188 -22 -239 4
-40 20 -75 52 -57 52 5 0 18 -7 29 -15 12 -9 43 -14 89 -14 99 0 157 27 254
120 76 73 78 75 100 159 12 47 29 109 37 138 19 65 21 266 5 336 -15 64 -82
191 -124 236 -41 44 -131 76 -247 90 -47 6 -90 12 -96 14 -5 2 -17 0 -25 -4z"/>
<path d="M1391 2791 c-35 -9 -45 -31 -36 -77 4 -21 10 -33 12 -26 3 6 13 12
23 12 23 0 40 28 40 64 0 30 -7 35 -39 27z"/>
<path d="M1476 2686 c-8 -41 2 -69 21 -62 8 3 20 6 27 6 6 0 19 12 28 28 22
37 8 62 -36 62 -30 0 -34 -3 -40 -34z"/>
<path d="M1084 2677 c-10 -6 -22 -15 -26 -21 -11 -16 -9 -64 3 -71 14 -9 75
21 83 41 16 41 -22 72 -60 51z"/>
<path d="M943 2627 c-26 -11 -46 -68 -37 -104 4 -13 2 -23 -3 -23 -13 0 -14
-42 -2 -56 8 -10 23 -4 65 24 59 40 64 51 34 70 -12 7 -20 24 -21 40 -1 47
-11 61 -36 49z"/>
<path d="M782 2470 c-14 -24 -16 -76 -2 -85 6 -3 10 -11 10 -16 0 -6 -4 -7
-10 -4 -21 13 -9 -23 15 -45 21 -19 30 -22 43 -14 9 6 17 20 18 31 1 11 4 26
9 32 4 7 -1 18 -11 26 -12 8 -18 25 -17 49 1 20 -3 36 -7 36 -5 0 -14 2 -22 5
-7 3 -19 -4 -26 -15z"/>
<path d="M1080 2440 c0 -4 -9 -10 -20 -13 -11 -3 -21 -14 -21 -26 -1 -12 -2
-27 -3 -33 -3 -16 13 -38 26 -38 13 0 88 77 88 90 0 6 -1 10 -3 10 -1 0 -17 4
-35 9 -17 5 -32 6 -32 1z"/>
<path d="M1201 2324 c-45 -27 -54 -57 -22 -74 11 -5 24 -10 29 -10 11 0 62 71
62 87 0 22 -28 21 -69 -3z"/>
<path d="M680 2329 c0 -5 -4 -7 -10 -4 -5 3 -12 -6 -16 -21 -6 -21 -2 -31 16
-46 33 -27 47 -22 55 19 5 29 3 40 -11 50 -22 16 -34 17 -34 2z"/>
<path d="M943 2239 c-28 -18 -33 -27 -33 -61 0 -50 21 -75 44 -52 9 8 16 25
16 36 0 12 6 29 14 37 7 9 17 26 20 39 9 29 -17 30 -61 1z"/>
<path d="M746 2216 c-20 -25 -17 -55 7 -70 24 -16 51 4 55 40 2 22 -3 31 -21
40 -20 9 -27 7 -41 -10z"/>
<path d="M531 2167 c-16 -45 -14 -61 14 -87 14 -13 26 -22 27 -19 19 31 24 49
21 74 -5 45 -9 52 -32 58 -15 4 -22 -2 -30 -26z"/>
<path d="M1130 2184 c-24 -7 -38 -37 -33 -67 7 -35 18 -34 55 3 42 43 30 78
-22 64z"/>
<path d="M643 2079 c-11 -11 -5 -59 8 -59 17 0 9 -15 -13 -25 -32 -14 -45 -58
-28 -89 12 -24 14 -24 42 -10 17 9 27 18 24 21 -3 4 1 17 10 31 9 13 14 33 11
43 -3 10 -1 19 4 19 7 0 7 24 0 73 -2 11 -45 9 -58 -4z"/>
<path d="M1190 2059 c-31 -17 -36 -26 -57 -106 -13 -48 -28 -92 -33 -97 -14
-14 -12 -50 2 -64 29 -29 58 -8 63 48 3 45 30 125 47 144 22 25 48 78 42 88
-7 12 -24 8 -64 -13z"/>
<path d="M462 2027 c-54 -67 -54 -147 0 -147 14 0 18 8 18 39 0 22 4 42 9 45
5 3 11 17 13 31 6 30 -23 53 -40 32z"/>
<path d="M862 2024 c-7 -8 -12 -29 -10 -47 4 -47 36 -48 66 -2 26 41 27 51 6
59 -25 10 -48 6 -62 -10z"/>
<path d="M1062 1990 c-12 -12 -22 -32 -22 -45 0 -13 -4 -27 -10 -30 -17 -10
-12 -82 6 -89 22 -8 24 -8 24 8 0 8 6 21 14 28 17 18 41 111 33 132 -8 21 -19
20 -45 -4z"/>
<path d="M592 1767 c-19 -9 -23 -17 -20 -51 3 -36 6 -41 27 -41 19 0 26 8 36
43 11 37 11 43 -4 51 -9 5 -25 4 -39 -2z"/>
<path d="M802 1772 c-22 -15 -26 -76 -7 -96 17 -17 19 -16 41 8 13 14 25 40
26 58 3 29 0 33 -22 36 -14 1 -31 -2 -38 -6z"/>
<path d="M991 1754 c-26 -33 -26 -33 2 -66 l23 -26 17 21 c9 12 17 28 17 37 0
8 3 25 6 38 5 19 2 22 -19 22 -16 0 -34 -10 -46 -26z"/>
<path d="M1087 1703 c-12 -27 -25 -51 -30 -54 -12 -9 -4 -59 13 -74 17 -16 63
-9 57 8 -2 6 2 35 9 65 13 55 5 102 -16 102 -6 0 -20 -21 -33 -47z"/>
<path d="M362 1707 c-11 -12 -23 -38 -27 -57 -6 -32 -3 -37 20 -50 24 -13 28
-13 40 3 17 23 18 102 1 116 -9 8 -18 5 -34 -12z"/>
<path d="M964 1563 c-17 -12 -24 -55 -12 -70 26 -32 85 10 76 54 -3 19 -45 29
-64 16z"/>
<path d="M792 1518 c-7 -7 -12 -9 -12 -4 0 4 -7 0 -15 -8 -12 -11 -14 -25 -9
-51 5 -31 9 -34 32 -30 14 2 29 10 34 17 20 32 -7 99 -30 76z"/>
</g>
</svg>
