<?xml version="1.0" standalone="no"?>
<!DOCTYPE svg PUBLIC "-//W3C//DTD SVG 20010904//EN"
 "http://www.w3.org/TR/2001/REC-SVG-20010904/DTD/svg10.dtd">
<svg version="1.0" xmlns="http://www.w3.org/2000/svg"
 width="523.000000pt" height="385.000000pt" viewBox="0 0 523.000000 385.000000"
 preserveAspectRatio="xMidYMid meet">
<metadata>
Created by potrace 1.16, written by Peter Selinger 2001-2019
</metadata>
<g transform="translate(0.000000,385.000000) scale(0.100000,-0.100000)"
fill="#000000" stroke="none">
<path d="M2039 3156 c-11 -11 -179 -17 -486 -16 -186 0 -349 0 -363 0 -23 0
-69 -4 -310 -30 -114 -12 -174 -31 -229 -71 -23 -16 -41 -27 -41 -25 0 3 -12
-8 -28 -22 -15 -15 -42 -38 -61 -52 -18 -14 -36 -27 -40 -30 -4 -3 -18 -27
-31 -55 -14 -27 -28 -51 -32 -53 -5 -2 -8 -12 -8 -22 0 -10 -5 -22 -10 -25 -6
-4 -10 -14 -9 -23 1 -10 -1 -29 -6 -45 -8 -31 11 -154 29 -177 23 -30 36 -60
36 -80 0 -22 -31 -71 -67 -107 -13 -12 -23 -27 -23 -33 0 -6 -7 -13 -15 -16
-10 -4 -12 -10 -6 -18 4 -6 12 -22 16 -35 4 -13 18 -34 31 -46 15 -14 26 -37
29 -61 2 -22 11 -64 20 -94 13 -47 25 -96 60 -255 7 -34 23 -149 23 -165 -2
-37 14 -178 22 -205 5 -16 12 -86 15 -155 5 -129 10 -177 20 -220 3 -14 8 -47
11 -75 3 -27 7 -59 8 -70 7 -52 21 -97 57 -173 22 -46 39 -86 39 -89 0 -7 75
-104 99 -128 32 -32 72 -59 131 -91 30 -16 59 -35 63 -41 4 -7 17 -13 27 -13
10 0 24 -8 29 -17 6 -10 11 -14 11 -9 0 5 8 2 18 -6 9 -9 37 -18 62 -21 25 -3
56 -8 70 -12 43 -11 153 -26 214 -30 32 -3 73 -9 90 -14 17 -6 76 -13 131 -16
55 -3 123 -8 151 -11 66 -7 230 -7 269 -1 17 3 66 9 110 12 44 4 83 9 86 11
13 8 296 7 309 -1 8 -5 11 -4 7 2 -7 10 32 23 83 27 14 2 59 6 100 10 41 3
120 9 175 11 55 3 107 7 115 10 65 18 584 28 670 12 91 -17 321 -8 490 19 92
15 150 35 177 62 7 7 21 14 31 15 10 0 29 16 43 35 13 19 39 50 57 69 17 19
32 39 32 44 0 8 24 67 41 101 5 10 9 25 9 33 0 8 4 15 8 15 5 0 9 6 9 13 1 21
40 150 59 192 9 22 18 54 20 70 4 50 16 89 30 106 8 9 11 18 8 22 -4 3 -3 14
2 24 4 10 9 34 10 53 1 19 15 91 32 160 16 69 35 150 41 180 27 129 31 141 65
176 19 20 38 53 45 77 13 55 13 243 0 327 -6 36 -12 80 -14 98 -5 54 -74 173
-157 274 -10 12 -18 27 -18 34 0 7 -7 20 -17 29 -9 9 -28 34 -42 55 -14 21
-44 53 -66 71 -62 53 -175 168 -175 178 0 5 -6 16 -13 23 -7 7 -34 41 -61 76
-27 35 -54 66 -60 68 -7 3 -19 20 -26 38 -10 27 -25 39 -74 61 -59 27 -77 31
-181 41 -27 2 -70 6 -95 9 -25 2 -223 4 -440 3 -742 -3 -1005 -2 -1221 5 -118
4 -217 6 -220 3z m472 -112 c13 -8 542 -7 579 1 19 4 46 7 60 7 14 -1 138 -1
275 -1 138 0 259 1 270 1 11 0 65 -3 120 -6 245 -13 335 -28 335 -56 0 -6 6
-10 13 -10 18 -1 83 -64 114 -113 62 -96 113 -157 213 -257 58 -58 112 -117
119 -132 7 -14 27 -41 44 -60 17 -18 30 -35 28 -38 -1 -3 21 -40 50 -82 41
-62 52 -87 56 -131 4 -46 1 -60 -20 -93 -38 -59 -131 -132 -197 -152 -105 -33
-143 -42 -222 -52 -65 -8 -505 -20 -763 -21 -37 0 -418 12 -495 15 -52 3 -176
8 -275 11 -99 3 -193 9 -209 12 -16 3 -131 7 -255 9 -387 6 -631 13 -639 18
-5 3 -47 8 -93 11 -46 3 -97 7 -114 10 -37 7 -96 14 -155 21 -95 10 -163 43
-266 131 -12 10 -43 52 -70 93 -27 41 -56 81 -66 88 -10 7 -18 17 -18 22 0 11
-62 104 -72 108 -5 2 -8 10 -8 18 0 8 -4 14 -9 14 -5 0 -13 9 -16 20 -4 11
-20 35 -36 53 -16 17 -49 64 -72 102 -23 39 -45 72 -49 73 -5 2 -8 7 -8 12 0
4 -8 25 -17 46 -10 24 -16 58 -14 89 2 46 7 54 54 98 59 54 108 74 205 83 37
3 94 10 127 16 33 5 220 11 415 13 352 3 631 12 640 21 5 6 431 -5 441 -12z
m-1969 -368 c10 -27 34 -67 52 -90 19 -22 69 -96 113 -163 44 -66 88 -129 98
-139 10 -10 24 -33 32 -51 7 -18 17 -33 21 -33 4 0 18 -18 32 -40 14 -22 28
-40 32 -40 5 0 8 -7 8 -15 0 -8 3 -15 8 -15 4 0 18 -18 32 -40 13 -22 28 -40
33 -40 12 0 57 -48 57 -60 0 -16 121 -68 175 -76 6 0 17 -3 25 -6 68 -23 84
-27 89 -24 3 3 56 -3 116 -11 61 -9 137 -17 170 -19 53 -2 160 -12 160 -14 0
0 126 -3 280 -6 154 -3 285 -5 290 -6 6 0 48 1 95 2 47 0 95 -1 107 -4 12 -2
116 -7 230 -10 114 -3 262 -9 328 -13 66 -3 350 -6 630 -6 529 1 643 8 799 49
34 9 66 17 71 18 6 1 28 11 48 24 21 12 39 22 42 22 3 0 14 8 24 18 11 9 26
22 33 27 7 6 21 16 31 24 16 12 17 8 16 -55 -1 -77 -11 -104 -38 -104 -12 0
-21 -10 -26 -27 -10 -43 -58 -72 -130 -79 -22 -2 -60 -8 -85 -13 -43 -10 -141
-20 -242 -26 -25 -2 -50 -5 -55 -8 -17 -10 -123 -12 -273 -4 -140 7 -263 1
-350 -18 -14 -3 -68 -7 -120 -10 -52 -3 -122 -8 -155 -11 -33 -3 -67 -6 -75
-6 -19 -2 -168 11 -197 16 -12 3 -62 6 -109 7 -48 1 -106 7 -128 14 -43 12
-429 16 -441 3 -12 -12 -280 2 -335 18 -14 4 -83 6 -155 5 -71 -1 -134 -2
-140 -2 -158 6 -232 12 -285 26 -36 9 -81 18 -100 21 -100 12 -156 31 -262 90
-41 22 -110 95 -140 147 -30 51 -82 77 -104 51 -6 -8 -17 -14 -23 -14 -7 0
-10 -4 -7 -8 3 -5 -6 -21 -20 -35 -22 -24 -27 -25 -39 -13 -8 8 -29 23 -47 34
-18 12 -42 37 -52 56 -11 20 -23 36 -27 36 -4 0 -10 8 -13 18 -3 9 -35 49 -72
87 -111 118 -111 119 -43 206 37 45 40 54 34 90 -4 21 -15 56 -25 77 -10 21
-22 52 -26 68 -4 16 -10 34 -13 39 -3 6 -6 17 -5 25 1 8 2 32 3 53 1 51 19 44
43 -17z m117 -826 c4 0 19 -10 32 -21 13 -12 33 -27 44 -35 11 -7 36 -43 55
-79 19 -36 37 -65 41 -65 3 0 42 -34 85 -75 43 -41 81 -75 85 -75 3 0 19 -11
35 -25 24 -21 37 -25 73 -22 37 3 48 9 68 37 26 39 28 64 8 100 -22 38 -19 40
36 20 47 -17 132 -38 183 -45 187 -25 312 -34 426 -31 74 2 140 5 145 6 16 5
125 -12 125 -19 0 -3 35 -5 78 -4 43 0 94 -2 113 -6 19 -4 54 -3 79 1 78 14
395 13 435 -2 14 -5 92 -12 173 -15 81 -3 175 -10 209 -16 45 -8 86 -8 145 0
46 6 135 13 198 17 63 3 118 8 121 10 26 16 445 28 455 13 2 -4 23 -5 46 -3
68 4 160 14 193 19 17 2 66 7 110 10 69 4 115 12 242 42 18 4 22 1 20 -16 -1
-21 -36 -38 -64 -33 -7 2 -13 -3 -13 -10 0 -13 -49 -39 -81 -43 -90 -12 -152
-52 -151 -99 0 -60 109 -156 183 -160 l44 -3 -3 -39 c-1 -21 -4 -44 -6 -50 -2
-6 -38 -21 -80 -33 -42 -12 -78 -27 -81 -32 -4 -5 -19 -9 -35 -9 -34 0 -46
-18 -56 -78 -9 -55 -1 -81 37 -120 27 -27 38 -32 79 -32 l48 0 -11 -37 c-15
-54 -23 -61 -75 -68 -129 -15 -187 -49 -185 -109 1 -35 26 -89 36 -79 4 3 7 1
7 -6 0 -7 3 -10 8 -7 4 2 16 -2 26 -10 15 -10 16 -16 7 -27 -16 -21 -117 -50
-173 -51 -26 -1 -48 -4 -48 -8 0 -3 -21 -6 -47 -6 -27 1 -66 -4 -88 -10 -47
-13 -100 -14 -455 -7 -146 3 -299 6 -340 7 -41 1 -104 -4 -140 -10 -36 -7
-110 -12 -165 -13 -55 -1 -109 -5 -120 -9 -11 -4 -30 -4 -42 1 -13 5 -25 4
-28 -2 -4 -5 -10 -7 -15 -4 -4 2 -21 1 -36 -5 -49 -16 -94 -21 -229 -25 -71
-3 -157 -8 -190 -11 -273 -26 -530 -24 -680 6 -87 18 -178 29 -230 30 -78 0
-175 28 -260 73 -11 6 -31 17 -45 24 -123 63 -203 143 -256 253 -48 99 -59
123 -60 134 0 6 -4 26 -8 43 -4 18 -9 54 -10 80 -2 27 -6 57 -10 69 -8 25 -16
96 -21 189 -8 125 -15 209 -21 238 -8 38 -11 62 -24 187 -15 147 -31 235 -57
307 -3 10 17 -12 46 -49 28 -38 55 -68 60 -68z m401 -190 c23 -25 48 -58 57
-74 14 -27 14 -31 -3 -43 -23 -17 -29 -16 -62 5 -60 38 -176 148 -185 175 -4
10 -2 25 3 35 6 9 14 30 20 45 l10 28 59 -63 c32 -35 78 -83 101 -108z m3625
-262 c-4 -24 -8 -49 -9 -56 -4 -22 -21 -32 -68 -38 -44 -6 -48 -4 -87 33 -38
36 -40 41 -25 54 9 8 51 21 93 30 111 24 105 25 96 -23z m-89 -374 c-4 -9 -11
-36 -17 -59 -11 -42 -26 -56 -76 -70 -30 -8 -67 29 -59 58 3 12 6 28 6 35 0 7
13 12 30 12 17 0 33 7 39 18 6 9 11 14 11 10 0 -3 12 -3 28 2 40 12 45 12 38
-6z m-138 -404 c-12 -21 -35 -42 -51 -48 -26 -10 -32 -8 -53 15 -20 22 -22 29
-12 39 15 14 66 29 108 30 l29 2 -21 -38z"/>
<path d="M900 2893 c-8 -3 -36 -26 -61 -50 -34 -33 -46 -52 -44 -69 3 -30 3
-30 41 -37 29 -5 32 -4 32 19 0 14 8 34 18 44 17 17 27 18 99 9 91 -11 193
-10 279 2 44 6 66 4 86 -6 33 -17 40 -33 45 -102 l4 -52 -67 -6 c-37 -3 -93
-13 -124 -22 -52 -14 -58 -19 -58 -42 0 -15 9 -34 20 -44 16 -13 20 -14 20 -3
0 18 19 24 99 32 77 7 138 29 146 54 3 9 14 25 24 34 24 22 18 91 -12 159 -17
38 -31 52 -62 66 -37 16 -49 17 -140 5 -87 -12 -205 -10 -227 3 -13 7 -103 12
-118 6z"/>
<path d="M2210 2890 c-25 -4 -94 -8 -153 -9 -60 0 -113 -4 -119 -7 -6 -4 -30
-8 -53 -10 -60 -4 -110 -39 -126 -89 -29 -96 -8 -181 39 -156 19 10 21 19 19
77 -2 60 0 68 21 82 29 19 44 21 207 25 72 2 163 10 203 17 103 19 109 11 115
-162 3 -80 4 -80 -118 -83 -44 -1 -91 -5 -105 -9 -14 -4 -45 -3 -70 2 -25 4
-63 5 -85 1 -22 -4 -50 -3 -61 2 -41 15 -75 -50 -36 -69 20 -10 428 -9 438 1
4 4 24 7 44 7 32 0 39 5 57 39 19 36 20 47 12 113 -5 40 -12 98 -15 128 -7 64
-15 76 -62 96 -37 15 -80 16 -152 4z"/>
<path d="M3979 2875 c-14 -8 -48 -16 -76 -18 -27 -2 -55 -7 -61 -11 -7 -4 -12
-3 -12 3 0 21 -148 -1 -201 -31 -64 -36 -74 -76 -43 -173 9 -27 18 -56 20 -62
2 -7 12 -13 23 -13 14 0 19 -5 15 -15 -4 -9 3 -16 20 -21 23 -6 50 -3 171 13
17 3 39 6 50 7 11 1 37 8 58 15 28 9 50 10 86 2 43 -9 56 -8 94 9 24 11 50 27
57 35 14 17 9 123 -6 133 -6 4 -21 25 -34 47 -26 44 -44 61 -75 74 -44 18 -61
19 -86 6z m40 -76 c17 -6 31 -15 31 -20 0 -5 6 -9 13 -9 18 0 63 -108 50 -121
-5 -5 -25 -9 -44 -9 -92 3 -117 1 -149 -12 -8 -4 -58 -9 -110 -13 -52 -3 -99
-10 -104 -15 -16 -16 -39 -12 -32 6 3 8 -3 41 -14 72 -11 31 -18 64 -15 73 8
23 53 30 184 28 87 -1 115 2 133 14 13 9 23 16 24 16 1 1 15 -4 33 -10z"/>
<path d="M3110 2869 c-22 -9 -145 -13 -220 -7 -69 5 -106 -3 -135 -29 -16 -16
-34 -26 -40 -25 -5 2 -7 0 -3 -4 4 -4 -1 -23 -11 -43 -24 -44 -41 -116 -41
-169 0 -48 31 -83 58 -65 14 8 23 6 40 -7 17 -15 29 -17 53 -10 17 5 53 10 80
11 28 2 52 6 54 10 3 3 67 6 144 6 116 0 144 3 163 17 13 9 38 26 57 38 32 20
33 23 27 69 -7 54 -17 74 -71 153 -30 43 -44 56 -64 56 -14 0 -35 2 -46 5 -11
2 -31 0 -45 -6z m-236 -77 c6 -9 123 -7 229 4 l68 7 30 -34 c42 -49 58 -81 55
-113 -5 -41 -19 -49 -93 -52 -326 -13 -372 -17 -405 -35 -13 -7 -18 -3 -23 21
-7 34 2 105 18 134 16 31 50 64 72 69 33 8 44 7 49 -1z"/>
<path d="M4275 2431 c-21 -4 -31 -13 -33 -28 -4 -29 30 -48 59 -32 24 12 69
-2 69 -22 0 -12 32 -57 72 -99 14 -15 33 -41 41 -57 9 -16 32 -38 51 -48 22
-12 34 -25 31 -33 -3 -8 -8 -24 -11 -37 -6 -25 -83 -63 -103 -51 -5 4 -15 -3
-21 -14 -15 -28 0 -46 48 -59 31 -9 40 -7 76 17 56 38 85 98 77 160 -2 14 -33
46 -68 71 -18 12 -33 29 -33 36 0 8 -8 20 -18 27 -22 16 -82 93 -82 105 0 8
-9 17 -52 51 -21 17 -63 22 -103 13z"/>
<path d="M3820 2388 c-30 -3 -56 -12 -58 -18 -3 -7 -13 -20 -24 -29 -45 -36
-45 -38 -36 -88 5 -26 9 -54 10 -61 1 -8 12 -12 27 -10 23 3 26 8 29 48 3 38
9 49 39 73 35 26 50 29 148 30 11 0 39 -3 62 -6 83 -12 91 -17 97 -53 9 -47
55 -65 77 -31 13 20 30 -5 24 -35 -11 -46 18 -102 70 -136 6 -4 15 -16 21 -27
6 -10 25 -25 43 -32 30 -13 32 -12 42 14 8 23 7 30 -8 41 -10 7 -17 18 -15 23
1 5 -6 9 -15 9 -29 0 -60 59 -59 110 1 36 -3 49 -21 63 -17 14 -21 25 -17 46
10 50 -61 84 -72 33 -9 -43 -12 -49 -13 -26 -1 27 -24 46 -59 50 -15 2 -52 6
-82 9 -88 10 -151 11 -210 3z"/>
<path d="M1102 2374 c-25 -17 -28 -37 -9 -52 6 -5 86 -12 177 -15 91 -3 179
-8 195 -11 17 -4 42 -9 57 -12 18 -4 33 -18 48 -45 11 -23 20 -46 19 -52 -1
-7 1 -24 5 -38 6 -20 14 -26 32 -26 43 0 52 61 17 112 -7 11 -13 30 -13 42 0
13 -6 23 -14 23 -8 0 -21 6 -28 13 -29 29 -160 52 -351 61 -54 3 -101 7 -106
10 -4 3 -17 -2 -29 -10z"/>
<path d="M1910 2326 c-48 -13 -49 -16 -35 -83 7 -32 53 -42 72 -17 7 10 11 24
9 31 -4 10 24 13 127 14 73 1 143 0 157 -1 14 -1 41 -3 60 -4 19 -1 44 -6 55
-11 11 -4 35 -14 53 -21 25 -10 32 -19 32 -41 0 -32 7 -44 34 -59 15 -8 24 -7
37 4 14 12 15 21 6 56 -5 22 -19 51 -30 63 -19 21 -105 55 -172 67 -65 13
-360 14 -405 2z"/>
<path d="M2912 2310 c-62 -4 -77 -9 -93 -29 -13 -16 -17 -31 -12 -45 3 -12 6
-32 5 -45 -2 -29 14 -51 39 -51 25 0 39 31 33 72 -6 31 -3 36 17 39 34 6 400
3 424 -3 14 -3 22 -16 26 -42 8 -50 20 -60 52 -45 22 10 25 16 21 43 -11 59
-26 86 -53 92 -14 3 -33 9 -41 12 -18 8 -315 9 -418 2z"/>
<path d="M724 1572 c-32 -68 -13 -181 38 -216 17 -12 20 -18 10 -28 -24 -24
-10 -49 80 -139 72 -72 107 -98 165 -125 83 -39 118 -37 140 7 23 45 9 168
-21 186 -7 5 -19 19 -26 33 -11 21 -136 154 -240 257 -30 29 -68 50 -103 57
-21 4 -28 -1 -43 -32z m197 -172 c60 -60 109 -112 109 -115 0 -3 10 -16 21
-28 57 -59 75 -189 21 -145 -26 20 -62 39 -83 43 -22 4 -55 36 -112 108 -27
33 -37 53 -32 67 8 26 -3 60 -19 60 -23 0 -48 38 -52 79 -6 70 25 55 147 -69z"/>
<path d="M1322 1454 c-39 -35 -44 -44 -47 -89 -2 -36 2 -57 16 -76 10 -15 19
-31 19 -36 1 -24 89 -61 146 -61 17 -1 57 -7 90 -15 32 -9 85 -18 117 -21 32
-3 63 -8 67 -11 5 -3 39 -3 75 1 59 6 69 10 91 40 47 61 33 173 -29 226 -61
52 -53 50 -177 49 -52 0 -99 4 -105 9 -5 4 -57 11 -115 15 l-105 7 -43 -38z
m396 -62 c51 1 121 -31 123 -55 0 -7 2 -31 5 -54 5 -39 3 -43 -27 -59 -23 -12
-45 -14 -78 -10 -25 4 -75 9 -111 12 -36 4 -69 10 -75 14 -5 4 -30 11 -55 15
-25 3 -58 9 -75 11 -37 6 -55 21 -55 45 0 11 -5 19 -11 19 -15 0 -2 50 18 73
12 13 28 16 60 14 23 -2 48 0 53 3 6 4 49 -1 95 -11 46 -10 106 -17 133 -17z"/>
<path d="M2127 1452 c-9 -2 -17 -7 -17 -12 0 -5 -16 -16 -35 -25 -44 -22 -50
-42 -29 -105 16 -49 74 -120 97 -120 5 0 15 -7 22 -16 10 -15 92 -25 185 -24
8 0 73 0 144 0 83 0 133 4 142 11 29 24 47 78 42 129 -3 28 -1 50 3 50 5 0 9
9 9 20 0 27 -58 84 -90 89 -44 6 -254 7 -290 1 -19 -3 -64 -4 -100 -1 -36 4
-74 5 -83 3z m451 -64 c21 -27 32 -91 21 -130 -10 -39 -17 -42 -79 -40 -55 2
-166 3 -180 1 -8 -1 -41 1 -73 5 -73 8 -126 42 -142 90 -21 59 0 66 227 72
106 3 195 7 197 10 8 7 18 4 29 -8z"/>
<path d="M4168 1449 c-17 -10 -109 -18 -273 -24 -219 -9 -264 -15 -284 -41
-11 -13 -22 -24 -26 -24 -14 0 -34 -35 -35 -61 0 -15 12 -36 30 -54 16 -16 28
-31 25 -33 -10 -10 47 -51 78 -57 17 -3 116 -7 218 -9 103 -3 198 -8 212 -11
14 -4 43 -1 64 6 21 7 48 13 61 15 13 1 29 8 37 14 21 17 36 81 27 110 -33
103 -100 188 -134 169z m26 -88 c16 -13 40 -107 31 -121 -3 -5 -26 -16 -51
-26 -39 -15 -47 -15 -55 -3 -7 11 -9 11 -9 1 0 -10 -11 -12 -42 -8 -24 3 -81
5 -128 5 -137 1 -143 1 -198 6 -43 5 -58 12 -82 38 -16 18 -30 36 -30 40 0 4
12 19 27 33 23 21 35 25 70 21 23 -2 46 0 51 5 5 5 76 11 157 14 82 3 151 6
152 8 8 8 95 -3 107 -13z"/>
<path d="M2967 1408 c-7 -4 -28 -8 -48 -8 -54 0 -96 -49 -105 -122 -11 -97 17
-119 171 -134 39 -4 115 -8 170 -9 58 0 117 -7 140 -16 61 -22 141 -17 149 9
3 9 18 25 33 34 16 10 24 18 18 18 -5 0 -9 21 -9 47 2 57 -22 113 -53 124 -19
7 -24 4 -29 -17 -3 -13 -1 -37 5 -52 14 -35 10 -65 -13 -91 -18 -20 -44 -21
-117 -3 -19 5 -75 10 -123 11 -48 1 -106 5 -129 8 -23 3 -51 6 -62 8 -11 1
-32 3 -46 4 -24 1 -26 4 -24 47 3 53 12 65 51 69 16 1 59 6 96 10 58 7 69 5
74 -8 5 -14 8 -14 19 -3 16 15 145 12 176 -5 25 -13 56 -3 70 23 19 35 -14 54
-91 52 -36 -1 -120 1 -188 4 -68 4 -129 4 -135 0z"/>
<path d="M2152 1061 c-29 -10 -55 -20 -57 -23 -2 -2 -10 -28 -18 -57 -12 -47
-11 -58 4 -104 10 -29 30 -62 46 -75 15 -13 39 -33 52 -45 21 -17 40 -20 141
-22 65 -1 122 -5 129 -9 6 -4 11 -2 11 3 0 6 15 11 34 11 19 0 37 4 41 9 3 5
39 8 80 7 94 -4 103 5 106 95 2 53 -2 74 -19 102 -12 19 -22 41 -22 50 0 16
-22 21 -147 32 -47 4 -63 2 -63 -7 0 -8 -3 -9 -8 -3 -16 22 -50 31 -111 28
-39 -1 -77 3 -98 12 -42 18 -35 18 -101 -4z m100 -60 c2 -4 44 -11 93 -15 96
-6 140 -11 219 -23 41 -7 53 -13 67 -38 10 -19 15 -43 12 -65 -4 -34 -7 -36
-37 -32 -18 2 -50 -1 -72 -8 -21 -6 -97 -13 -169 -16 l-130 -5 -42 36 c-53 47
-63 87 -34 136 12 19 21 31 21 27 0 -4 10 -3 23 2 29 11 45 12 49 1z"/>
<path d="M1440 1060 c-46 -11 -90 -63 -90 -108 0 -47 35 -92 115 -148 63 -44
75 -49 125 -48 30 0 66 3 80 7 46 13 114 20 185 19 39 -1 76 2 83 7 18 11 16
130 -3 174 -4 10 -3 17 5 17 6 0 10 11 8 28 -3 26 -5 27 -63 27 -33 0 -65 -3
-70 -7 -9 -5 -155 11 -240 26 -58 11 -104 13 -135 6z m165 -76 c64 -12 75 -13
168 -20 84 -7 88 -8 93 -33 3 -14 7 -32 10 -39 7 -25 -8 -44 -31 -38 -13 3
-47 1 -76 -4 -30 -6 -75 -11 -102 -12 -26 0 -50 -5 -53 -9 -12 -19 -50 -7
-103 33 -64 48 -80 66 -81 90 0 20 12 28 54 39 31 7 48 6 121 -7z"/>
<path d="M882 1021 c-40 -26 -54 -59 -42 -102 6 -20 6 -37 0 -44 -5 -6 -2 -27
11 -54 10 -24 19 -49 19 -57 0 -8 9 -14 20 -14 10 0 23 -6 27 -14 12 -21 76
-88 109 -113 16 -12 55 -43 86 -68 51 -40 63 -45 110 -46 88 -2 118 28 120
121 1 94 -22 136 -94 178 -55 31 -198 161 -198 179 0 18 -48 43 -92 49 -33 4
-51 0 -76 -15z m128 -81 c8 -12 31 -38 51 -60 20 -21 34 -42 31 -45 -3 -3 2
-5 11 -5 9 0 29 -14 44 -31 16 -17 39 -37 53 -44 56 -29 73 -53 72 -97 -3 -70
-6 -73 -62 -70 -35 3 -50 8 -50 18 0 8 -6 14 -14 14 -8 0 -21 9 -29 20 -8 11
-16 17 -20 14 -3 -3 -45 33 -94 81 -48 48 -76 81 -62 72 26 -16 27 -16 25 15
-1 17 -12 41 -27 57 -40 40 -43 50 -23 72 23 25 72 19 94 -11z"/>
<path d="M3168 1025 c-2 -2 -66 -5 -143 -8 -87 -2 -150 -9 -165 -17 -39 -20
-60 -47 -60 -77 1 -37 75 -115 141 -149 46 -23 63 -25 222 -29 95 -3 181 -5
191 -5 70 -2 119 74 111 174 -2 31 -10 63 -17 71 -34 40 -42 46 -57 40 -32
-13 -147 -17 -183 -7 -20 5 -38 9 -40 7z m140 -76 l82 -2 0 -31 c0 -17 -5 -48
-10 -68 l-11 -37 -175 4 c-194 5 -233 15 -288 74 -60 63 -6 71 402 60z"/>
<path d="M3836 1023 c-3 -3 -48 -7 -100 -8 -131 -4 -155 -10 -161 -43 -3 -15
-9 -44 -14 -64 -6 -29 -4 -44 9 -65 41 -67 71 -74 320 -78 91 -2 170 -5 177
-7 23 -6 103 55 103 80 0 12 4 22 8 22 5 0 9 17 10 39 2 42 -31 97 -50 85 -6
-4 -8 -2 -4 4 11 19 -11 23 -142 28 -70 3 -132 6 -139 9 -6 2 -14 1 -17 -2z
m194 -76 c50 -9 80 -19 80 -27 0 -26 -25 -69 -46 -79 -24 -10 -283 -16 -349
-7 -16 2 -35 4 -42 5 -21 2 -44 33 -38 50 4 9 8 22 9 30 6 32 33 37 198 35 90
-1 174 -4 188 -7z"/>
<path d="M3616 675 c-47 -17 -54 -23 -65 -61 -11 -39 6 -82 48 -116 17 -15 31
-31 31 -36 0 -18 51 -32 93 -26 23 3 74 17 112 31 59 21 81 24 145 19 42 -3
81 -2 88 3 6 4 14 30 18 59 4 42 2 53 -10 58 -9 3 -16 14 -16 23 -1 41 -13 44
-172 47 -84 2 -171 5 -193 8 -23 3 -57 -1 -79 -9z m239 -61 c55 -4 112 -6 127
-5 30 1 41 -10 32 -33 -5 -12 -20 -16 -63 -16 -31 0 -74 -5 -96 -10 -77 -20
-120 -34 -132 -43 -14 -10 -19 -8 -67 35 -20 17 -36 39 -36 49 0 22 43 37 95
33 22 -1 85 -6 140 -10z"/>
<path d="M1645 673 c-111 -18 -141 -28 -167 -56 -16 -17 -28 -35 -29 -41 -5
-48 -4 -78 3 -82 5 -3 6 -10 3 -15 -4 -5 -1 -9 4 -9 6 0 11 -6 11 -14 0 -8 12
-23 28 -34 23 -16 42 -18 132 -15 58 1 166 4 241 5 118 3 140 6 158 22 25 23
28 77 6 120 -8 15 -15 32 -15 37 0 5 -19 26 -41 47 l-42 37 -136 0 c-75 1
-145 -1 -156 -2z m166 -64 c46 1 71 -2 80 -12 8 -7 19 -12 24 -10 16 5 35 -12
40 -35 2 -11 9 -30 15 -41 6 -12 7 -22 3 -22 -4 -1 -19 -3 -33 -5 -14 -3 -109
-7 -212 -10 l-187 -5 -12 40 c-17 57 8 81 104 97 39 6 81 9 92 6 11 -3 50 -4
86 -3z"/>
<path d="M2201 633 c-29 -12 -71 -57 -71 -75 0 -10 11 -41 25 -68 22 -43 31
-51 67 -60 24 -6 65 -18 92 -26 33 -9 61 -11 90 -5 37 8 132 6 226 -3 44 -4
78 13 108 53 37 51 21 141 -32 176 -22 15 -35 15 -118 5 -84 -11 -240 -9 -338
5 -19 2 -41 2 -49 -2z m312 -74 c132 2 157 0 157 -13 0 -8 6 -16 12 -18 9 -3
8 -11 -4 -30 -16 -25 -19 -25 -140 -26 -68 -1 -142 -4 -165 -7 -23 -3 -44 -1
-47 4 -3 5 -28 12 -55 16 -42 6 -50 10 -56 33 -10 40 17 55 85 46 30 -4 126
-6 213 -5z"/>
<path d="M3184 628 c-16 -4 -53 -6 -83 -4 -55 4 -165 -17 -187 -35 -7 -6 -10
-17 -7 -25 3 -8 -2 -21 -12 -28 -26 -19 -12 -62 25 -81 24 -12 77 -17 250 -20
121 -2 224 -6 229 -9 5 -3 14 1 21 9 7 8 18 15 25 15 31 0 35 105 6 139 -11
13 -22 28 -24 34 -4 14 -196 18 -243 5z m204 -90 c6 -17 10 -34 7 -36 -2 -3
-69 -3 -147 -2 -149 3 -206 3 -248 -2 -21 -3 -26 2 -28 25 -3 24 0 27 27 27
16 0 32 4 35 8 3 5 81 10 173 10 l169 2 12 -32z"/>
</g>
</svg>
