<?xml version="1.0" standalone="no"?>
<!DOCTYPE svg PUBLIC "-//W3C//DTD SVG 20010904//EN"
 "http://www.w3.org/TR/2001/REC-SVG-20010904/DTD/svg10.dtd">
<svg version="1.0" xmlns="http://www.w3.org/2000/svg"
 width="539.000000pt" height="409.000000pt" viewBox="0 0 539.000000 409.000000"
 preserveAspectRatio="xMidYMid meet">
<metadata>
Created by potrace 1.16, written by Peter Selinger 2001-2019
</metadata>
<g transform="translate(0.000000,409.000000) scale(0.100000,-0.100000)"
fill="#000000" stroke="none">
<path d="M3830 3785 c-41 -8 -86 -17 -100 -19 -14 -3 -81 -19 -148 -36 -107
-28 -154 -47 -222 -90 -22 -14 -147 -70 -156 -70 -19 0 -95 -44 -126 -73 -19
-18 -57 -43 -84 -56 -42 -21 -138 -84 -154 -101 -3 -3 -34 -19 -70 -36 -36
-18 -116 -57 -179 -88 -62 -31 -118 -56 -123 -56 -6 0 -51 -20 -101 -44 -51
-24 -108 -47 -127 -51 -19 -4 -46 -12 -60 -18 -14 -6 -32 -12 -40 -13 -8 -1
-44 -7 -80 -14 -36 -6 -150 -16 -255 -21 -236 -12 -244 -13 -330 -28 -99 -18
-278 -62 -290 -71 -26 -21 -356 -180 -373 -180 -18 0 -90 -47 -138 -89 -22
-20 -49 -44 -60 -53 -10 -9 -31 -32 -46 -50 -15 -18 -41 -49 -58 -68 -16 -19
-30 -38 -30 -42 0 -4 -6 -13 -14 -21 -21 -21 -56 -89 -56 -109 0 -10 -4 -18
-8 -18 -7 0 -14 -42 -14 -80 0 -8 -4 -51 -10 -95 -5 -43 -11 -149 -13 -234 -2
-100 -7 -156 -15 -161 -17 -11 -15 -39 8 -112 20 -63 30 -126 37 -221 6 -88
19 -143 46 -188 14 -25 30 -57 34 -70 4 -13 12 -29 17 -36 5 -7 8 -31 7 -55
-1 -24 3 -54 10 -67 14 -25 10 -76 -15 -169 -19 -77 -37 -122 -47 -122 -4 0
-5 -5 -2 -10 4 -6 2 -17 -4 -24 -6 -7 -8 -27 -5 -43 4 -23 14 -33 42 -43 19
-7 45 -21 56 -32 12 -11 39 -27 62 -37 23 -10 54 -35 69 -55 35 -46 74 -48
175 -6 40 17 81 30 90 30 10 0 40 -18 68 -40 27 -22 54 -40 60 -40 5 0 15 -6
21 -14 16 -19 61 -25 216 -32 72 -3 131 -10 133 -14 2 -5 10 -6 19 -3 8 3 18
2 22 -4 3 -5 26 -17 50 -27 25 -10 57 -26 71 -36 14 -10 49 -23 77 -28 l52 -9
50 44 c28 24 72 60 98 79 27 19 58 41 70 50 20 15 29 14 100 -1 43 -9 94 -21
114 -26 59 -15 85 -11 102 14 8 13 46 44 84 70 38 25 78 55 89 65 42 40 63 45
120 32 28 -7 63 -10 75 -6 23 6 89 98 137 191 24 47 64 87 83 84 8 -1 21 0 29
4 8 3 38 7 67 10 73 6 98 38 145 186 12 41 30 78 38 82 45 24 93 39 160 49 41
6 75 12 76 13 9 10 63 142 69 165 8 38 40 52 133 59 40 3 75 9 77 13 3 4 26 4
52 -1 53 -10 62 -5 91 51 27 54 62 67 182 70 172 4 198 7 215 24 9 9 21 16 26
16 5 0 9 8 9 18 1 19 33 62 47 62 5 0 16 11 23 25 8 16 25 26 44 30 39 6 99
14 151 21 39 5 102 55 91 73 -3 4 7 32 22 62 20 39 37 59 62 71 46 21 124 45
176 53 46 7 64 30 63 80 -1 17 6 44 15 60 9 17 16 37 16 45 0 10 20 21 58 32
132 38 147 43 153 52 4 5 12 6 18 2 22 -14 23 40 1 82 -12 23 -21 51 -19 64 2
22 -3 41 -22 83 -5 11 -20 49 -33 85 -14 36 -34 84 -45 107 -12 23 -21 46 -20
50 4 25 -3 43 -16 43 -8 0 -15 3 -16 8 0 4 -2 48 -4 97 -2 50 -9 113 -15 140
-6 28 -12 64 -14 80 -1 17 -13 50 -26 75 -81 156 -99 196 -105 236 -8 56 -82
182 -141 240 -87 87 -270 172 -384 179 -203 13 -392 12 -460 0z m330 -89 c116
-7 211 -21 239 -36 9 -5 39 -19 67 -33 99 -46 175 -117 146 -136 -5 -3 -12
-16 -16 -29 -6 -19 -3 -23 21 -28 33 -7 50 -28 58 -76 4 -18 14 -41 23 -51 16
-18 18 -32 25 -167 2 -52 -16 -137 -38 -180 -13 -25 -30 -56 -37 -70 -6 -14
-25 -41 -40 -61 -15 -20 -28 -42 -28 -48 0 -6 -4 -11 -10 -11 -5 0 -10 -7 -10
-15 0 -9 -33 -51 -73 -93 -41 -42 -95 -101 -122 -129 -26 -29 -53 -53 -61 -53
-7 0 -14 -4 -16 -8 -5 -14 -150 -107 -188 -122 -19 -7 -60 -23 -90 -36 -153
-63 -210 -84 -227 -84 -10 0 -52 -13 -93 -29 -41 -16 -102 -36 -135 -45 -33
-9 -80 -24 -105 -33 -25 -8 -65 -21 -90 -28 -25 -7 -70 -20 -100 -29 -74 -21
-209 -65 -240 -79 -14 -6 -27 -11 -30 -12 -38 -11 -207 -114 -254 -155 -15
-14 -54 -49 -85 -78 -31 -30 -74 -70 -96 -91 -54 -50 -155 -166 -192 -221 -40
-58 -75 -90 -203 -187 -103 -77 -203 -133 -241 -133 -10 0 -20 -4 -23 -9 -8
-12 -145 -60 -225 -78 -72 -16 -225 -31 -281 -27 -97 8 -213 29 -285 52 -44
14 -82 28 -85 31 -3 3 -31 20 -63 36 -32 17 -66 37 -75 45 -9 9 -38 30 -63 47
-25 18 -61 47 -80 65 -19 18 -52 46 -72 61 -54 40 -131 174 -169 292 -19 58
-22 92 -22 195 0 115 8 241 19 315 3 17 8 50 11 75 4 25 10 56 15 69 20 51 88
140 170 221 81 81 127 112 229 153 86 35 180 81 180 87 0 4 8 10 18 13 9 3 55
22 102 42 84 36 123 46 230 64 142 24 226 32 365 36 199 6 332 29 498 85 100
35 599 279 632 310 23 21 182 121 235 148 19 9 37 21 39 25 1 5 33 21 70 38
36 16 96 45 133 64 78 42 164 73 233 85 28 5 61 12 75 15 65 17 230 40 270 39
25 -1 97 -5 160 -8z m686 -731 c7 -52 14 -119 16 -145 3 -53 -41 -140 -130
-260 -56 -75 -154 -180 -167 -180 -4 0 -17 -10 -29 -22 -12 -13 -35 -33 -52
-45 -16 -13 -47 -38 -68 -57 -20 -19 -50 -41 -66 -48 -16 -7 -31 -19 -33 -28
-2 -8 -49 -37 -103 -64 -54 -27 -105 -55 -111 -62 -7 -7 -45 -24 -85 -39 -40
-16 -79 -32 -85 -38 -14 -10 -142 -51 -238 -74 -33 -9 -73 -22 -90 -29 -48
-22 -146 -51 -200 -58 -27 -4 -63 -14 -80 -21 -16 -7 -66 -26 -110 -41 -44
-16 -89 -36 -99 -46 -11 -10 -26 -18 -33 -18 -8 0 -16 -7 -19 -15 -4 -8 -11
-15 -17 -15 -12 0 -121 -71 -125 -82 -2 -4 -20 -17 -40 -30 -34 -21 -77 -56
-124 -100 -10 -10 -20 -18 -23 -18 -2 0 -20 -16 -39 -35 -20 -19 -39 -35 -44
-35 -4 0 -14 -16 -20 -34 -7 -19 -21 -38 -32 -41 -10 -3 -41 -31 -69 -61 -27
-29 -54 -54 -60 -54 -6 0 -11 -4 -11 -10 0 -5 -19 -27 -41 -47 -23 -21 -52
-47 -64 -59 -32 -29 -116 -84 -130 -84 -7 0 -20 -9 -30 -20 -10 -11 -36 -28
-59 -39 -22 -10 -90 -42 -151 -71 -60 -28 -130 -56 -155 -60 -25 -5 -67 -14
-95 -20 -27 -6 -79 -8 -115 -5 -36 3 -96 8 -135 10 -136 8 -280 25 -320 37
-22 6 -44 11 -49 9 -9 -2 -94 28 -111 39 -5 4 -37 15 -70 25 -152 45 -310 148
-319 208 -1 6 -6 19 -11 27 -41 63 -84 155 -94 200 -9 44 -9 44 7 20 49 -76
322 -300 365 -300 8 0 25 -9 38 -19 55 -43 196 -88 324 -103 183 -21 276 -21
370 1 47 12 98 21 111 21 14 0 44 9 66 20 23 11 48 20 55 20 7 0 23 5 36 12
44 23 57 28 67 28 6 0 29 9 53 19 23 11 52 22 64 26 32 9 222 141 253 176 3 3
15 12 26 20 22 14 104 113 104 125 0 22 260 285 365 369 72 57 169 112 246
140 112 40 394 130 484 155 55 15 145 44 200 64 167 61 187 68 192 62 3 -2 19
4 37 13 33 19 208 91 220 91 4 0 12 5 19 10 7 6 29 23 49 38 109 81 154 119
192 159 22 25 63 68 90 97 65 68 114 129 172 218 27 40 54 79 60 85 7 7 18 30
24 50 17 55 32 94 36 91 1 -2 6 -26 10 -53z m44 -491 c17 -36 30 -71 30 -76 0
-12 47 -58 59 -58 7 0 -4 131 -14 159 -5 11 -3 12 10 1 8 -7 15 -22 15 -34 0
-12 5 -27 11 -33 14 -14 50 -156 41 -165 -4 -3 -36 -12 -72 -18 -36 -7 -73
-16 -82 -21 -10 -5 -24 -9 -32 -9 -22 0 -109 165 -101 190 9 28 23 25 32 -7 3
-16 15 -47 25 -71 11 -23 17 -46 14 -51 -3 -5 8 -14 25 -21 26 -11 32 -11 40
1 9 14 7 41 -4 69 -28 72 -48 210 -31 210 3 0 18 -30 34 -66z m-170 -216 c25
-39 55 -84 67 -99 21 -24 22 -30 11 -82 -11 -51 -14 -56 -47 -66 -20 -5 -62
-13 -93 -17 -32 -4 -55 -11 -52 -16 4 -5 -6 -8 -21 -6 -21 2 -30 12 -42 43
-64 179 -62 170 -38 170 15 0 31 -22 65 -90 24 -49 45 -92 47 -94 1 -2 10 2
19 10 19 15 14 80 -12 151 -38 104 -39 128 -3 56 12 -24 32 -58 46 -75 13 -18
20 -33 16 -33 -4 0 -1 -5 8 -10 22 -13 56 -1 55 19 -1 10 -9 33 -18 52 -32 66
-67 159 -60 159 4 0 28 -32 52 -72z m-275 -214 c17 -37 40 -87 51 -111 l22
-44 -25 -45 c-14 -25 -35 -51 -47 -58 -28 -18 -114 -28 -165 -20 -38 6 -42 9
-61 63 -11 31 -29 74 -40 96 -18 37 -18 41 -3 52 15 11 20 7 38 -31 35 -73 87
-135 113 -136 33 0 37 23 10 67 -28 46 -43 77 -57 121 -8 26 -7 32 5 32 15 0
66 -98 80 -154 7 -30 40 -57 59 -49 20 7 27 34 13 51 -7 8 -12 17 -11 18 1 2
1 9 -1 16 -3 7 -12 38 -22 68 -9 30 -23 67 -30 81 -10 20 -10 29 -1 38 24 24
42 10 72 -55z m-356 -141 c9 -10 30 -45 45 -78 15 -33 39 -69 54 -81 24 -20
25 -23 13 -53 -8 -17 -17 -31 -21 -31 -5 0 -26 -17 -47 -38 l-38 -38 -110 3
c-122 3 -140 7 -132 27 3 8 3 16 -1 18 -19 8 -85 172 -74 183 20 20 78 -46 88
-100 7 -39 33 -75 55 -75 25 0 25 39 -1 122 -25 79 -25 94 -1 101 19 5 41 -26
41 -59 0 -8 6 -17 14 -20 8 -3 18 -20 22 -37 7 -36 31 -67 50 -67 32 0 24 82
-17 163 -11 21 -17 42 -13 48 5 8 35 25 52 28 2 1 11 -7 21 -16z m-364 -203
c19 -46 32 -86 30 -88 -2 -2 1 -17 5 -33 8 -26 5 -31 -31 -56 -21 -16 -41 -36
-45 -45 -4 -13 -17 -18 -42 -19 -47 -2 -88 -5 -155 -13 l-53 -7 -38 122 c-36
116 -37 123 -20 136 27 20 42 16 48 -14 2 -16 8 -46 12 -68 4 -22 8 -42 9 -45
0 -3 6 -15 13 -27 8 -14 9 -24 2 -28 -13 -8 13 -35 34 -35 22 0 30 44 17 93
-11 42 -15 91 -12 136 l1 25 29 -28 c17 -16 36 -51 46 -84 9 -31 19 -63 21
-70 2 -8 12 -12 21 -10 26 5 28 79 5 153 l-18 60 36 17 c19 9 39 15 43 15 4
-1 23 -40 42 -87z m-436 -82 c37 -80 63 -172 57 -203 -18 -104 -27 -139 -41
-155 -8 -9 -15 -21 -15 -27 0 -15 -19 -22 -127 -48 l-91 -22 -25 66 c-31 81
-37 103 -42 144 -3 18 -7 54 -11 81 -4 36 -3 51 7 57 27 17 26 18 49 -89 5
-23 21 -81 36 -127 21 -69 30 -85 46 -85 23 0 24 -14 -16 215 -16 94 -20 144
-14 152 18 22 30 5 78 -112 5 -11 18 -42 29 -69 12 -27 21 -55 21 -62 0 -16 9
-17 28 -5 18 11 1 125 -33 224 -14 39 -25 72 -25 74 0 3 58 31 67 33 2 0 12
-19 22 -42z m-364 -270 c10 -46 31 -121 46 -168 31 -92 35 -130 18 -162 -6
-11 -13 -35 -16 -52 -9 -60 -15 -64 -108 -71 -42 -3 -53 -1 -63 16 -7 11 -10
24 -6 30 3 6 -1 16 -10 22 -13 11 -52 124 -77 230 -9 37 1 77 20 77 5 0 14
-21 21 -47 31 -116 67 -208 83 -211 19 -4 44 47 29 57 -5 3 -12 33 -15 66 -4
33 -14 87 -23 120 -9 33 -17 67 -18 75 -2 26 17 26 25 0 4 -14 12 -38 19 -55
7 -16 13 -39 15 -50 6 -67 19 -106 37 -116 39 -21 43 1 25 132 -9 67 -24 133
-32 146 -15 22 -13 43 4 43 5 0 16 -37 26 -82z m-270 -275 c15 -49 36 -113 46
-144 11 -31 19 -66 19 -79 0 -24 -45 -109 -64 -122 -6 -4 -7 -8 -3 -8 12 0
-33 -62 -58 -80 -25 -18 -79 -17 -108 3 -25 16 -58 106 -56 153 l1 29 8 -33
c18 -76 41 -122 62 -122 19 0 20 4 13 43 -4 23 -9 78 -11 122 -1 44 -5 106 -8
137 -3 31 -1 60 4 63 8 5 29 -55 75 -217 14 -51 38 -78 54 -62 11 11 1 130
-20 219 -34 151 -34 143 -8 165 13 10 25 19 25 20 1 0 14 -39 29 -87z m-226
-173 c0 -23 -1 -23 -9 -5 -5 11 -9 31 -9 45 0 23 1 23 9 5 5 -11 9 -31 9 -45z
m-1777 -15 c20 -14 42 -25 47 -25 12 0 14 -13 4 -24 -4 -3 -8 -17 -10 -29 -2
-12 -7 -45 -13 -73 -10 -58 -4 -94 15 -94 8 0 17 9 20 20 3 11 10 20 14 20 5
0 9 10 9 23 0 12 9 43 20 69 l21 47 30 -15 c21 -10 31 -23 31 -37 -1 -23 -23
-121 -35 -148 -7 -19 7 -32 27 -24 14 6 29 34 59 113 15 38 26 52 40 52 15 0
18 -5 14 -22 -2 -13 -7 -45 -10 -73 -3 -27 -9 -70 -14 -95 -5 -25 -9 -47 -8
-50 2 -6 -111 -38 -140 -39 -12 -1 -30 7 -40 17 -10 10 -43 31 -73 47 -30 16
-61 35 -68 42 -7 7 -22 19 -33 27 -19 13 -19 15 -4 52 9 21 18 54 21 74 15
108 27 170 33 170 3 0 23 -11 43 -25z m1696 -71 c21 -133 43 -224 54 -224 6 0
-2 -10 -18 -22 -16 -13 -32 -23 -37 -23 -4 0 -11 -5 -15 -11 -4 -6 -38 -31
-77 -54 l-70 -43 -62 12 c-78 14 -149 44 -161 68 -19 34 -32 164 -19 178 32
31 42 23 64 -54 13 -42 23 -83 23 -91 0 -25 29 -60 45 -54 8 4 13 10 10 14 -3
5 -1 11 3 14 9 5 -10 147 -27 204 -7 23 -6 32 2 32 28 0 92 -152 96 -227 1 -7
8 -13 16 -13 42 0 47 114 10 205 -30 73 -31 81 -5 88 11 3 20 1 20 -5 0 -14
29 -76 58 -122 l24 -39 12 24 c8 16 10 34 4 54 -17 60 -18 129 -2 153 24 37
38 21 52 -64z m79 34 c-3 -8 -6 -5 -6 6 -1 11 2 17 5 13 3 -3 4 -12 1 -19z
m-1326 -167 c-13 -24 -1 -173 14 -190 25 -26 42 -5 48 60 4 34 7 77 7 94 0 39
27 56 47 29 11 -15 19 -108 14 -151 -1 -7 3 -22 9 -33 10 -18 11 -19 30 -3 12
11 20 30 20 50 0 17 5 55 11 83 10 46 13 51 33 46 11 -3 38 -6 58 -6 l37 0 -1
-136 -1 -136 -51 6 c-102 14 -131 17 -159 17 -45 0 -135 45 -183 92 -38 38
-43 48 -36 68 5 13 12 47 16 74 12 87 11 85 56 68 31 -13 37 -19 31 -32z m760
-48 c0 -15 3 -37 5 -48 2 -11 7 -36 9 -55 9 -60 10 -65 19 -78 8 -13 -7 -30
-49 -54 -11 -6 -51 -31 -88 -55 l-69 -45 -58 29 c-33 15 -64 38 -71 50 -6 12
-22 24 -34 27 -22 6 -23 11 -24 110 -2 111 7 136 50 136 15 0 19 -7 19 -38 0
-43 27 -132 41 -132 15 0 28 35 30 81 1 24 3 52 6 62 5 18 6 18 24 1 10 -9 19
-23 19 -30 0 -7 5 -36 11 -64 11 -50 26 -62 47 -37 13 16 21 105 12 137 -7 25
-6 25 46 28 53 3 54 3 55 -25z"/>
</g>
</svg>
