<?xml version="1.0" standalone="no"?>
<!DOCTYPE svg PUBLIC "-//W3C//DTD SVG 20010904//EN"
 "http://www.w3.org/TR/2001/REC-SVG-20010904/DTD/svg10.dtd">
<svg version="1.0" xmlns="http://www.w3.org/2000/svg"
 width="523.000000pt" height="455.000000pt" viewBox="0 0 523.000000 455.000000"
 preserveAspectRatio="xMidYMid meet">
<metadata>
Created by potrace 1.16, written by Peter Selinger 2001-2019
</metadata>
<g transform="translate(0.000000,455.000000) scale(0.100000,-0.100000)"
fill="#000000" stroke="none">
<path d="M1290 4441 c-79 -19 -190 -113 -226 -191 -25 -53 -47 -238 -39 -320
5 -52 51 -203 68 -225 4 -5 20 -30 36 -55 78 -125 93 -148 121 -180 17 -19 44
-55 60 -80 16 -25 41 -58 56 -73 14 -15 50 -60 79 -100 28 -40 75 -97 104
-127 29 -30 69 -75 89 -100 20 -25 50 -58 67 -75 17 -16 40 -46 51 -65 10 -19
25 -43 32 -52 9 -10 14 -44 15 -86 1 -65 -2 -73 -48 -156 -28 -48 -63 -102
-80 -121 -16 -18 -41 -46 -55 -62 -14 -15 -50 -55 -80 -89 -30 -34 -64 -74
-75 -90 -11 -16 -33 -43 -50 -61 -16 -18 -35 -39 -40 -46 -16 -19 -75 -113
-75 -119 0 -3 -8 -23 -17 -44 -9 -22 -17 -55 -19 -74 -1 -19 -5 -62 -9 -95
-10 -80 9 -149 79 -297 31 -64 56 -124 56 -132 0 -9 6 -16 13 -16 6 -1 30 -29
51 -63 95 -150 136 -219 136 -228 0 -5 5 -9 10 -9 6 0 10 -6 10 -12 0 -7 19
-38 42 -68 23 -30 55 -77 71 -105 16 -27 40 -63 54 -80 28 -35 118 -168 141
-209 10 -16 33 -48 53 -70 19 -23 46 -59 59 -81 13 -22 30 -46 37 -53 7 -7 21
-33 33 -58 11 -25 33 -63 50 -84 16 -21 30 -43 30 -49 0 -6 9 -11 19 -11 11 0
22 -4 25 -9 10 -16 91 -49 137 -56 32 -5 57 -2 83 9 21 9 49 16 61 16 12 0 28
7 36 16 7 8 31 25 53 36 23 11 43 23 46 27 7 9 40 28 75 45 17 8 42 26 57 40
15 15 53 42 85 60 32 19 72 46 88 60 81 68 131 106 141 106 6 0 38 21 71 47
33 27 86 66 118 88 31 22 79 57 106 78 27 20 51 37 54 37 7 0 63 39 83 58 7 6
17 12 21 12 4 0 17 8 29 17 44 37 84 67 111 82 15 9 63 39 105 66 42 28 106
68 142 90 37 22 72 45 78 50 7 6 19 15 28 20 9 6 52 36 96 68 44 31 83 57 87
57 6 0 85 59 95 71 3 3 24 17 46 30 94 54 261 209 249 230 -3 4 -1 9 4 11 6 1
12 32 15 68 2 36 7 73 11 82 4 11 -1 28 -14 44 -12 15 -21 32 -21 38 0 6 -9
17 -20 24 -12 7 -18 17 -15 22 3 6 2 10 -4 10 -5 0 -31 30 -57 68 -26 37 -63
82 -82 101 -19 19 -40 49 -48 67 -7 18 -25 41 -38 52 -14 10 -28 31 -31 45 -4
14 -21 43 -39 64 -18 21 -36 48 -40 61 -4 12 -11 22 -14 22 -4 0 -16 17 -27
38 -10 20 -28 47 -39 60 -11 12 -15 22 -10 22 5 0 4 4 -1 8 -18 12 -75 89 -75
101 0 5 -13 32 -30 58 -16 26 -30 52 -30 59 0 7 -4 14 -8 16 -4 2 -21 25 -37
53 -16 27 -36 58 -45 68 -9 9 -23 30 -31 45 -22 44 -140 214 -179 257 -64 72
-174 177 -212 201 -32 20 -135 43 -161 36 -4 -1 -40 -5 -80 -8 -46 -4 -89 -15
-119 -30 -26 -13 -54 -24 -62 -24 -22 0 -178 -71 -202 -92 -11 -10 -25 -18
-31 -18 -6 0 -21 -9 -34 -19 -25 -19 -47 -26 -174 -57 -132 -31 -183 -24 -236
34 -40 43 -84 103 -84 115 0 4 -5 11 -11 15 -6 4 -15 18 -19 32 -4 13 -14 31
-22 39 -8 7 -12 22 -10 32 3 10 2 19 -2 21 -4 2 -25 35 -46 73 -22 39 -45 79
-52 90 -12 21 -41 71 -81 144 -12 22 -28 41 -34 41 -6 0 -8 3 -5 6 4 4 -2 19
-12 33 -10 14 -36 58 -56 96 -21 39 -46 81 -56 94 -11 13 -19 28 -19 34 0 5
-12 24 -27 43 -16 18 -53 67 -83 109 -89 125 -150 182 -237 223 -65 30 -90 37
-148 38 -38 0 -81 -2 -95 -5z m210 -138 c62 -29 140 -89 140 -109 0 -5 8 -14
18 -21 10 -6 38 -42 61 -79 23 -38 56 -87 72 -109 30 -41 44 -65 87 -149 24
-46 81 -137 101 -162 5 -7 26 -45 47 -85 20 -41 40 -76 44 -79 11 -7 40 -80
40 -100 0 -10 4 -20 8 -22 12 -5 81 -124 88 -153 3 -14 10 -25 15 -25 5 0 9
-6 9 -13 0 -7 20 -34 45 -61 25 -27 45 -53 45 -58 0 -4 7 -8 15 -8 8 0 15 -6
15 -12 0 -14 57 -43 101 -53 36 -9 129 -11 129 -4 0 4 17 9 39 13 21 3 51 13
67 21 16 8 38 15 49 15 31 0 124 38 160 65 17 14 38 25 44 25 7 0 25 9 40 19
14 10 64 32 111 49 47 16 99 34 115 40 17 6 58 15 92 19 100 14 136 -3 251
-116 120 -119 151 -159 231 -294 13 -20 30 -43 39 -50 9 -6 26 -28 37 -47 49
-88 63 -112 113 -191 29 -46 59 -93 65 -104 7 -11 24 -39 40 -62 15 -23 27
-46 27 -52 0 -6 4 -11 9 -11 5 0 13 -10 17 -22 4 -13 23 -45 44 -73 20 -27 52
-77 70 -109 37 -68 43 -76 87 -121 17 -18 44 -53 60 -77 15 -23 42 -61 60 -84
18 -23 33 -46 33 -52 0 -6 8 -26 19 -44 20 -36 26 -95 11 -132 -5 -14 -42 -58
-82 -98 -68 -69 -113 -101 -181 -130 -15 -7 -30 -20 -33 -30 -3 -10 -10 -18
-15 -18 -6 0 -44 -25 -84 -55 -41 -30 -78 -55 -82 -55 -5 -1 -24 -14 -43 -30
-19 -17 -37 -30 -41 -30 -8 0 -155 -96 -230 -150 -32 -22 -60 -40 -63 -40 -3
0 -28 -16 -55 -35 -26 -19 -53 -35 -60 -35 -6 0 -11 -4 -11 -8 0 -5 -27 -26
-60 -47 -33 -21 -60 -42 -60 -47 0 -4 -7 -8 -15 -8 -8 0 -15 -4 -15 -9 0 -5
-9 -13 -20 -16 -11 -3 -26 -12 -33 -18 -7 -7 -20 -16 -29 -22 -9 -5 -67 -48
-129 -95 -63 -47 -130 -94 -149 -104 -19 -10 -39 -24 -45 -30 -5 -7 -26 -23
-45 -36 -19 -13 -44 -32 -54 -42 -11 -10 -26 -18 -33 -18 -8 0 -16 -7 -19 -15
-3 -8 -14 -17 -24 -20 -21 -7 -242 -152 -250 -164 -3 -5 -20 -12 -37 -16 -18
-3 -33 -10 -33 -14 0 -4 -22 -12 -48 -17 -53 -11 -101 -3 -117 20 -6 7 -27 23
-48 34 -42 22 -62 45 -102 117 -32 58 -123 192 -146 216 -8 8 -30 42 -49 75
-18 32 -38 64 -45 69 -16 14 -97 135 -90 135 3 0 -4 10 -15 22 -12 13 -30 39
-40 59 -10 19 -25 41 -32 47 -8 6 -25 34 -38 62 -13 27 -27 50 -32 50 -4 0 -8
4 -8 9 0 12 -87 141 -109 161 -23 22 -61 77 -61 89 0 6 -13 33 -30 59 -16 27
-30 52 -30 56 0 4 -14 36 -30 72 -95 202 -53 381 140 595 14 15 39 44 55 65
17 20 44 51 60 69 17 17 44 49 60 69 17 21 39 48 50 60 11 12 46 63 78 114 52
82 59 99 64 158 6 79 -12 175 -40 207 -10 12 -29 38 -42 57 -12 19 -44 58 -71
85 -111 114 -212 230 -258 298 -26 40 -56 79 -66 89 -9 9 -28 34 -41 55 -12
21 -34 49 -47 63 -14 14 -36 43 -50 65 -13 22 -32 49 -42 60 -30 34 -102 183
-117 240 -14 56 -5 244 14 284 10 20 18 38 18 41 2 19 53 80 68 80 9 0 17 4
17 9 0 5 15 18 33 28 48 29 126 23 207 -14z"/>
<path d="M1326 4231 c-39 -14 -57 -28 -83 -65 -20 -30 -34 -62 -35 -85 -1 -20
-3 -52 -4 -71 -3 -59 46 -128 105 -148 29 -10 37 -10 53 4 10 10 18 30 18 45
0 22 -8 31 -37 46 -32 15 -38 23 -41 55 -4 48 19 91 63 118 l35 22 43 -21 c96
-46 114 -99 52 -147 -27 -21 -35 -33 -35 -59 0 -18 7 -38 15 -45 21 -18 82 -4
96 22 6 11 24 34 40 49 24 24 29 36 29 79 0 27 -4 50 -10 50 -5 0 -10 9 -10
20 0 25 -39 80 -57 80 -7 0 -13 4 -13 8 0 4 -13 16 -30 25 -16 10 -30 16 -30
13 0 -3 -19 1 -41 9 -51 18 -61 18 -123 -4z"/>
<path d="M3095 2966 c-55 -12 -120 -31 -145 -42 -25 -11 -63 -27 -85 -34 -22
-7 -51 -17 -65 -23 -14 -6 -29 -11 -35 -12 -18 -4 -159 -66 -185 -81 -14 -8
-41 -23 -60 -32 -19 -9 -36 -20 -38 -24 -2 -3 -29 -26 -60 -50 -81 -61 -92
-71 -111 -90 -9 -9 -45 -37 -81 -64 -36 -26 -74 -55 -85 -66 -75 -70 -92 -86
-106 -104 -9 -10 -31 -33 -50 -50 -49 -45 -79 -80 -79 -93 0 -6 -3 -11 -7 -11
-14 0 -68 -55 -82 -82 -8 -16 -19 -28 -25 -28 -12 0 -18 -10 -54 -82 -12 -26
-33 -60 -46 -75 -13 -16 -26 -43 -29 -59 -3 -17 -11 -42 -18 -55 -9 -17 -12
-65 -11 -158 1 -148 6 -179 33 -231 11 -19 19 -40 19 -47 0 -7 4 -13 9 -13 5
0 12 -16 16 -36 10 -55 73 -194 92 -201 6 -2 14 -19 17 -37 8 -41 58 -146 97
-202 16 -24 29 -45 29 -49 0 -15 63 -135 70 -135 5 0 12 -9 15 -20 3 -11 12
-26 18 -33 7 -7 25 -38 42 -70 16 -31 33 -57 37 -57 4 0 8 -10 8 -21 0 -12 9
-43 21 -68 12 -25 28 -62 37 -81 32 -71 71 -90 105 -52 19 20 23 52 7 52 -5 0
-10 8 -10 18 0 9 -9 28 -20 42 -11 14 -20 32 -20 40 0 9 -22 51 -50 95 -27 44
-50 83 -50 88 0 6 -20 40 -44 76 -23 36 -47 77 -51 91 -4 14 -19 42 -31 62
-13 21 -24 40 -24 43 0 3 -18 43 -40 87 -22 45 -40 90 -40 99 0 10 -6 24 -13
31 -13 13 -67 123 -67 135 0 4 -15 41 -34 83 -64 142 -79 210 -72 329 3 58 13
125 21 149 15 42 83 154 98 160 4 2 7 8 7 14 0 17 128 164 160 184 8 5 35 33
59 62 23 28 46 52 51 52 4 0 37 28 73 63 37 34 101 89 142 122 42 33 91 73
108 88 18 15 50 41 73 57 53 37 253 132 264 125 5 -3 11 -1 14 4 3 5 22 12 43
16 20 4 53 15 73 25 38 20 136 54 186 66 53 12 134 16 134 6 0 -5 14 -12 32
-16 59 -12 149 -76 243 -174 171 -179 212 -220 231 -233 11 -8 43 -43 71 -79
28 -36 71 -84 94 -106 52 -49 89 -92 89 -104 0 -5 9 -12 20 -15 11 -4 29 -24
40 -45 11 -21 30 -46 42 -57 13 -10 30 -31 38 -48 8 -16 23 -36 33 -43 9 -7
17 -17 17 -22 0 -5 14 -24 30 -42 17 -18 30 -38 30 -45 0 -6 6 -16 13 -20 8
-4 24 -29 37 -55 26 -54 64 -70 107 -47 22 12 24 18 20 54 -3 22 -10 41 -16
43 -5 2 -43 47 -82 100 -40 53 -85 110 -101 126 -15 15 -28 32 -28 36 0 12
-115 141 -232 261 -31 32 -69 75 -84 96 -16 21 -50 61 -76 88 -264 280 -316
333 -347 351 -17 10 -31 22 -31 26 0 4 -6 8 -12 8 -7 0 -24 9 -38 20 -14 11
-31 20 -38 20 -8 0 -26 8 -40 19 -15 10 -44 19 -65 19 -21 1 -41 3 -45 5 -4 2
-52 -5 -107 -17z"/>
</g>
</svg>
