<?xml version="1.0" standalone="no"?>
<!DOCTYPE svg PUBLIC "-//W3C//DTD SVG 20010904//EN"
 "http://www.w3.org/TR/2001/REC-SVG-20010904/DTD/svg10.dtd">
<svg version="1.0" xmlns="http://www.w3.org/2000/svg"
 width="517.000000pt" height="373.000000pt" viewBox="0 0 517.000000 373.000000"
 preserveAspectRatio="xMidYMid meet">
<metadata>
Created by potrace 1.16, written by Peter Selinger 2001-2019
</metadata>
<g transform="translate(0.000000,373.000000) scale(0.100000,-0.100000)"
fill="#000000" stroke="none">
<path d="M2148 3441 c-7 -2 -19 -9 -27 -15 -7 -6 -26 -9 -42 -8 -23 3 -31 -3
-45 -29 -9 -18 -33 -58 -54 -89 -21 -30 -50 -77 -65 -105 -15 -27 -45 -72 -66
-99 -22 -27 -39 -56 -39 -64 0 -9 -26 -54 -58 -101 -31 -47 -75 -120 -96 -161
-22 -41 -55 -102 -73 -135 -18 -33 -74 -143 -124 -245 -149 -303 -174 -352
-216 -427 -23 -39 -44 -82 -48 -95 -11 -34 -67 -142 -79 -150 -5 -3 -11 -15
-13 -26 -1 -11 -16 -46 -33 -78 -16 -32 -30 -61 -30 -65 0 -4 -25 -49 -55
-100 -30 -52 -55 -100 -55 -107 0 -7 -20 -41 -44 -75 -24 -34 -49 -79 -55
-100 -7 -20 -28 -60 -48 -88 -19 -28 -40 -65 -45 -83 -6 -17 -19 -41 -29 -54
-10 -13 -20 -36 -24 -51 -3 -16 -16 -39 -27 -51 -14 -15 -22 -36 -22 -59 0
-20 -3 -38 -7 -41 -5 -3 -10 -21 -11 -40 -3 -30 0 -35 20 -38 16 -2 22 -10 22
-27 0 -19 10 -29 43 -44 23 -10 53 -22 67 -26 14 -4 30 -11 36 -16 18 -15 46
1 41 23 -5 17 0 18 56 13 34 -4 94 -8 132 -10 105 -5 171 -13 218 -26 23 -6
69 -13 101 -15 33 -2 63 -9 67 -15 5 -8 8 -8 11 1 3 10 17 9 63 -1 33 -8 71
-13 85 -12 76 6 161 7 295 4 83 -2 170 0 195 3 32 5 63 1 108 -12 34 -11 62
-17 62 -13 0 3 26 5 57 5 72 -2 136 -3 188 -2 22 0 94 -3 160 -6 66 -4 128 -6
138 -6 74 6 503 -7 538 -15 20 -5 27 -2 37 20 17 37 15 44 -13 57 -24 11 -25
11 -5 25 11 8 20 21 20 29 0 8 4 22 9 32 16 33 88 246 117 347 17 60 41 116
53 125 13 10 42 80 49 122 9 46 19 70 89 218 25 52 46 99 47 105 2 5 10 28 20
50 10 22 24 58 32 79 8 22 42 85 75 140 107 176 114 190 143 260 15 38 38 90
52 115 13 25 24 49 24 53 0 4 15 31 33 60 50 79 112 205 136 275 11 34 46 107
76 161 30 54 55 103 55 109 0 6 7 17 16 24 15 12 16 11 10 -9 -3 -12 -9 -32
-12 -44 -6 -21 -34 -88 -55 -129 -9 -19 -24 -90 -21 -101 1 -5 -2 -8 -8 -8 -5
0 -10 -9 -10 -19 0 -16 -54 -134 -103 -226 -30 -56 -87 -180 -87 -189 0 -4 -6
-14 -12 -21 -30 -33 -42 -53 -99 -164 -22 -41 -39 -81 -39 -89 0 -23 -42 -134
-61 -162 -9 -14 -32 -68 -50 -120 -18 -52 -39 -105 -46 -117 -18 -28 -63 -110
-105 -193 -18 -36 -36 -67 -39 -70 -3 -3 -12 -23 -20 -45 -8 -22 -17 -42 -20
-45 -3 -3 -9 -21 -13 -41 -11 -61 -85 -237 -112 -266 -7 -7 -22 -34 -34 -60
-13 -26 -29 -55 -37 -64 -18 -22 1 -70 25 -62 10 4 8 -3 -8 -25 -13 -17 -29
-33 -37 -36 -17 -7 -17 -50 1 -65 11 -9 19 -9 35 1 12 7 21 18 21 24 0 6 12
27 28 47 39 51 64 95 84 151 10 27 24 56 32 65 12 14 94 162 120 218 6 13 14
23 19 23 4 0 7 6 7 14 0 8 7 22 16 30 8 9 13 16 9 16 -3 0 2 14 11 32 9 17 36
86 59 152 51 144 153 371 178 399 15 16 93 174 112 227 8 22 30 67 50 101 19
33 35 65 36 72 0 7 15 41 34 77 82 157 105 206 105 222 0 9 4 19 9 22 5 3 12
18 15 32 4 15 27 69 51 120 25 51 48 106 51 121 4 16 18 53 32 83 14 30 26 62
28 70 2 8 7 23 13 35 5 11 24 61 41 110 48 138 60 163 102 203 37 36 49 74 27
87 -21 14 -55 -7 -83 -51 -15 -25 -30 -43 -32 -41 -2 2 7 29 21 61 14 31 25
63 25 71 0 20 -34 37 -47 24 -7 -7 -10 -2 -10 15 0 38 -20 56 -53 49 -16 -3
-44 0 -62 6 -30 11 -219 29 -373 35 -33 2 -85 8 -115 14 -83 15 -290 15 -336
-2 -46 -16 -262 -31 -389 -28 -140 5 -259 4 -389 -1 -68 -3 -130 -1 -145 5
-14 5 -64 9 -110 9 -46 -1 -113 4 -150 10 -63 11 -297 18 -323 10z m-21 -66
c13 -13 36 -15 142 -10 69 3 149 1 177 -4 28 -5 100 -11 160 -12 60 -1 119 -5
131 -10 36 -13 161 -13 256 1 70 11 102 11 150 2 75 -15 97 -15 212 -8 50 4
129 8 177 10 49 3 99 11 115 20 20 10 50 13 94 11 35 -2 101 -4 145 -4 54 0
86 -5 95 -13 10 -9 47 -14 114 -15 113 -2 244 -10 301 -19 22 -3 56 -7 77 -9
22 -2 41 -6 44 -9 3 -2 -20 -51 -50 -108 -30 -57 -64 -130 -76 -164 -19 -51
-71 -156 -179 -359 -11 -22 -33 -76 -48 -120 -14 -44 -50 -121 -80 -171 -72
-122 -154 -285 -154 -306 0 -9 -4 -19 -8 -22 -5 -3 -26 -40 -47 -83 -21 -43
-46 -89 -55 -103 -10 -14 -29 -45 -44 -70 -14 -25 -31 -52 -36 -60 -15 -24
-50 -101 -74 -165 -13 -33 -37 -89 -53 -125 -50 -109 -80 -184 -88 -220 -4
-19 -22 -64 -40 -100 -18 -36 -45 -105 -60 -155 -26 -89 -55 -172 -81 -230 -8
-16 -20 -47 -28 -67 -14 -35 -17 -37 -58 -37 -67 1 -200 -9 -228 -17 -37 -10
-312 -7 -342 5 -14 5 -65 10 -114 10 -171 0 -380 13 -434 25 -54 13 -99 13
-210 3 -30 -3 -77 -1 -105 5 -27 5 -106 10 -175 10 -69 0 -119 2 -112 5 6 2
12 9 12 15 0 6 19 29 43 53 23 23 69 72 102 108 33 37 64 67 68 67 11 0 117
112 117 123 0 5 5 5 10 2 6 -3 10 0 10 8 0 7 9 23 19 34 26 27 36 86 22 121
-15 35 -65 65 -106 64 -23 -1 -42 8 -68 32 -20 18 -44 33 -54 33 -70 -1 -90 5
-123 36 -28 25 -45 33 -83 35 -34 2 -84 20 -163 58 -63 30 -118 54 -124 54 -5
0 -10 4 -10 8 0 5 -22 15 -50 22 -28 7 -50 16 -50 19 0 3 16 33 35 66 30 51
86 163 128 255 6 14 16 32 23 40 21 27 164 302 164 315 0 12 152 315 169 337
10 13 40 68 68 123 56 113 71 140 95 169 9 12 31 48 49 81 17 33 42 74 55 91
13 17 24 36 24 42 0 7 4 12 9 12 5 0 12 8 15 18 11 29 156 261 164 262 2 0 10
-7 19 -15z m2414 -188 c-11 -18 -21 -43 -23 -57 -5 -31 -108 -240 -119 -240
-4 0 -2 12 6 28 20 38 49 106 77 177 12 33 25 62 28 65 3 3 13 17 23 33 10 15
20 27 23 27 3 0 -3 -15 -15 -33z m59 -47 c0 -5 -4 -10 -10 -10 -5 0 -10 5 -10
10 0 6 5 10 10 10 6 0 10 -4 10 -10z m-35 -82 c-6 -31 -19 -69 -50 -143 -7
-16 -21 -56 -31 -87 -10 -32 -21 -58 -24 -58 -4 0 -7 -6 -7 -13 0 -19 -54
-158 -72 -186 -8 -13 -17 -32 -18 -43 -2 -10 -9 -29 -17 -41 -8 -12 -29 -60
-46 -107 -18 -47 -39 -92 -46 -101 -8 -8 -14 -20 -14 -25 0 -6 -13 -31 -29
-55 -16 -25 -35 -63 -42 -85 -7 -21 -21 -50 -30 -64 -9 -14 -20 -35 -23 -47
-4 -13 -11 -23 -16 -23 -4 0 -11 -16 -15 -36 -6 -33 -63 -151 -88 -183 -14
-17 -33 -50 -46 -78 -6 -13 -13 -23 -15 -23 -7 0 15 61 30 85 7 11 19 43 27
70 15 51 74 186 86 195 3 3 14 21 25 40 10 19 27 50 38 69 29 51 62 117 98
196 18 39 35 72 39 75 12 10 54 116 82 210 16 52 36 104 43 115 8 12 23 50 34
86 18 58 122 289 130 289 2 0 1 -15 -3 -32z m-635 -1418 c0 -5 -5 -10 -11 -10
-5 0 -7 5 -4 10 3 6 8 10 11 10 2 0 4 -4 4 -10z m-17 -35 c-3 -9 -8 -14 -10
-11 -3 3 -2 9 2 15 9 16 15 13 8 -4z m-2703 -150 c47 -17 132 -57 140 -65 3
-3 12 -7 20 -9 130 -35 167 -47 178 -58 25 -24 51 -33 109 -39 45 -5 65 -13
88 -35 20 -19 45 -30 75 -34 61 -7 67 -16 44 -67 -21 -47 -119 -152 -153 -163
-11 -3 -21 -13 -21 -22 0 -14 -27 -45 -153 -174 -21 -22 -41 -39 -45 -39 -14
0 -46 66 -53 107 -4 24 -17 55 -28 69 -12 15 -21 33 -21 41 0 22 -42 73 -72
89 -25 13 -28 20 -28 63 0 41 -6 57 -36 96 -40 53 -54 85 -54 122 0 14 -7 37
-15 51 -38 70 -47 95 -34 90 8 -3 34 -13 59 -23z m-114 -45 c3 -8 11 -27 18
-42 6 -16 15 -28 20 -28 4 0 6 -6 3 -14 -3 -8 -3 -17 1 -20 3 -4 7 -16 9 -28
2 -12 21 -50 43 -84 27 -43 40 -75 40 -98 0 -48 15 -77 53 -102 18 -11 38 -34
46 -50 7 -16 21 -45 31 -64 10 -19 20 -57 24 -84 3 -27 12 -54 20 -60 7 -6 16
-19 19 -28 6 -16 -2 -18 -66 -20 -117 -3 -150 -2 -197 5 -39 6 -93 11 -325 31
-27 3 -66 5 -85 6 -56 1 -63 10 -43 56 9 21 17 41 18 44 5 20 38 87 50 100 7
8 17 27 20 43 4 15 24 54 45 85 20 32 42 74 49 93 6 19 27 56 46 83 19 27 42
69 52 95 9 25 30 68 46 94 29 48 30 48 43 25 7 -13 16 -30 20 -38z m2685 -128
c-6 -15 -12 -36 -14 -47 -1 -12 -13 -39 -26 -60 -13 -22 -24 -45 -25 -52 -1
-7 -5 -16 -9 -19 -4 -4 -7 -14 -7 -21 0 -8 -9 -24 -21 -36 -11 -12 -27 -37
-35 -56 -8 -19 -17 -32 -20 -29 -3 4 -1 14 5 25 5 10 19 50 31 88 21 70 56
145 100 219 25 42 39 33 21 -12z m-270 -559 c-8 -15 -10 -15 -11 -2 0 17 10
32 18 25 2 -3 -1 -13 -7 -23z m-2558 -80 c-7 -2 -19 -2 -25 0 -7 3 -2 5 12 5
14 0 19 -2 13 -5z m77 -3 c0 -5 -13 -10 -30 -10 -16 0 -30 4 -30 8 0 4 14 9
30 10 17 1 30 -2 30 -8z m69 -6 c2 -2 -10 -4 -27 -4 -18 0 -32 5 -32 10 0 9
47 4 59 -6z m541 -20 c63 -2 189 -5 280 -8 91 -2 176 -7 189 -10 13 -3 64 -8
115 -11 193 -11 256 -17 256 -24 0 -5 -62 -7 -137 -6 -76 2 -138 4 -138 4 0 1
-20 5 -45 8 -49 5 -87 5 -198 -1 -39 -2 -75 0 -78 5 -3 5 -10 7 -15 3 -6 -3
-42 -5 -82 -5 -189 4 -315 10 -342 16 -16 4 -55 8 -85 10 -30 1 -80 6 -110 11
l-55 9 45 5 c25 4 99 4 165 2 66 -3 172 -6 235 -8z m865 -54 c3 -5 1 -10 -4
-10 -6 0 -11 5 -11 10 0 6 2 10 4 10 3 0 8 -4 11 -10z m152 -4 c4 -3 -27 -6
-68 -6 -45 0 -69 4 -60 9 14 9 119 7 128 -3z m536 3 c31 12 80 8 85 -6 2 -8
-5 -13 -17 -13 -11 0 -23 -5 -26 -10 -4 -6 -11 -8 -16 -5 -5 4 -56 8 -114 9
-58 2 -108 6 -112 10 -3 3 2 6 13 7 34 1 109 10 112 14 2 2 15 0 28 -5 13 -5
34 -6 47 -1z m-460 -16 c-7 -2 -19 -2 -25 0 -7 3 -2 5 12 5 14 0 19 -2 13 -5z
m64 1 c-3 -3 -12 -4 -19 -1 -8 3 -5 6 6 6 11 1 17 -2 13 -5z"/>
</g>
</svg>
