<?xml version="1.0" standalone="no"?>
<!DOCTYPE svg PUBLIC "-//W3C//DTD SVG 20010904//EN"
 "http://www.w3.org/TR/2001/REC-SVG-20010904/DTD/svg10.dtd">
<svg version="1.0" xmlns="http://www.w3.org/2000/svg"
 width="415.000000pt" height="399.000000pt" viewBox="0 0 415.000000 399.000000"
 preserveAspectRatio="xMidYMid meet">
<metadata>
Created by potrace 1.16, written by Peter Selinger 2001-2019
</metadata>
<g transform="translate(0.000000,399.000000) scale(0.100000,-0.100000)"
fill="#000000" stroke="none">
<path d="M2235 3708 c-22 -4 -110 -10 -195 -13 -85 -3 -171 -10 -191 -15 -19
-6 -94 -14 -165 -19 -71 -5 -141 -14 -155 -19 -14 -6 -39 -13 -55 -16 -55 -10
-117 -27 -133 -36 -10 -5 -36 -11 -60 -14 -23 -2 -49 -10 -57 -16 -7 -7 -14
-9 -14 -5 0 3 -16 -3 -35 -15 -19 -12 -35 -19 -35 -15 0 3 -12 0 -27 -9 -16
-8 -57 -24 -93 -37 -36 -12 -84 -36 -107 -52 -24 -17 -46 -28 -49 -24 -3 3
-17 -5 -31 -19 -13 -13 -29 -24 -36 -24 -13 -1 -67 -45 -67 -56 0 -4 -15 -39
-34 -78 -55 -117 -69 -170 -68 -270 0 -80 22 -233 39 -276 7 -15 9 -24 16 -70
5 -31 36 -108 55 -138 14 -22 13 -25 -24 -63 -21 -22 -63 -56 -92 -75 -69 -46
-212 -186 -212 -207 0 -10 -4 -17 -9 -17 -24 0 -72 -142 -73 -215 0 -11 -5
-35 -10 -52 -10 -34 2 -91 26 -121 33 -42 170 -172 182 -172 5 0 27 -16 49
-35 21 -19 68 -46 103 -60 68 -27 79 -27 197 0 33 8 78 17 100 20 22 2 54 7
70 11 30 6 30 6 8 -10 -12 -9 -20 -22 -18 -29 2 -6 6 -28 9 -47 13 -83 23
-128 40 -180 40 -124 49 -154 53 -174 19 -114 48 -240 64 -280 10 -27 19 -57
19 -67 0 -11 4 -19 9 -19 5 0 12 -14 16 -30 4 -17 11 -30 17 -30 6 0 8 -7 4
-15 -3 -8 0 -15 7 -15 12 0 28 -21 52 -67 23 -44 100 -125 138 -146 103 -57
163 -86 180 -86 9 -1 17 -5 17 -11 0 -5 11 -12 25 -16 14 -3 25 -10 25 -15 0
-5 3 -8 8 -7 4 2 36 -9 72 -23 88 -36 156 -56 210 -64 25 -4 59 -9 75 -12 64
-11 82 -13 140 -13 33 -1 85 4 115 10 30 6 77 13 105 16 27 2 72 11 101 20 28
8 60 16 71 19 33 6 105 32 138 49 17 9 38 16 47 16 9 0 18 3 20 8 4 10 101 58
110 55 4 -2 8 1 8 6 0 5 8 12 19 16 10 3 31 17 47 30 15 13 30 23 31 21 4 -4
93 83 93 91 0 3 11 21 25 39 14 18 25 39 25 46 0 8 4 18 9 24 12 12 51 148 58
199 3 22 9 45 13 50 4 6 11 37 15 70 3 33 13 87 20 119 8 33 12 63 9 67 -3 5
6 59 20 121 14 62 27 131 30 153 3 22 8 51 12 65 3 14 9 62 14 107 4 45 10 86
13 90 3 4 8 44 12 88 4 44 11 97 16 117 5 20 9 40 8 45 -1 4 -1 10 1 13 1 5 2
10 20 155 7 50 14 97 17 105 4 8 8 38 10 65 2 28 10 82 18 120 13 69 24 145
30 221 6 75 25 230 40 334 37 256 38 265 11 338 -32 90 -85 179 -133 223 -21
19 -68 50 -105 68 -37 18 -70 37 -74 42 -3 5 -10 6 -16 3 -6 -4 -13 -2 -17 3
-3 6 -36 25 -72 42 -48 23 -74 30 -93 25 -16 -4 -26 -2 -26 5 0 6 -13 11 -29
11 -16 0 -80 9 -143 20 -85 14 -165 19 -309 20 -107 0 -212 4 -234 8 -22 4
-58 4 -80 0z m587 -118 c42 -6 80 -19 103 -34 28 -20 41 -23 65 -16 20 6 34 4
47 -6 10 -7 24 -14 31 -14 7 0 39 -12 70 -26 31 -14 77 -34 102 -45 25 -11 52
-24 60 -30 8 -5 24 -14 35 -20 11 -5 45 -47 75 -92 l55 -82 -1 -75 c-1 -48 -8
-89 -20 -115 -10 -22 -17 -44 -15 -49 1 -5 -4 -16 -12 -25 -7 -9 -25 -37 -40
-62 -42 -73 -100 -117 -253 -191 -79 -37 -148 -68 -155 -68 -7 0 -55 -14 -108
-31 -257 -82 -473 -98 -1187 -87 -114 2 -186 7 -195 14 -8 6 -30 14 -49 18
-19 3 -76 20 -125 36 -50 17 -101 33 -115 36 -14 3 -49 16 -79 30 -29 13 -60
24 -68 24 -23 0 -143 58 -143 70 0 5 -6 10 -12 10 -19 0 -104 83 -122 118 -17
32 -17 38 -16 136 0 47 7 81 20 105 10 20 24 51 32 69 7 17 16 32 20 32 5 0 8
9 8 20 0 24 54 60 185 124 55 27 108 53 117 57 10 5 26 9 37 9 11 0 32 6 48
14 93 47 316 106 448 120 28 3 77 8 110 11 33 4 89 10 125 14 36 5 105 9 155
10 49 1 92 5 95 8 8 8 598 -7 672 -17z m613 -841 c-3 -3 -7 -33 -10 -65 -8
-79 -12 -110 -19 -164 -3 -25 -8 -70 -10 -100 -3 -30 -11 -93 -20 -140 -8 -47
-20 -128 -26 -180 -6 -52 -15 -111 -20 -130 -5 -19 -10 -53 -11 -75 -1 -22 -6
-44 -9 -50 -4 -5 -7 -17 -7 -25 0 -8 -3 -40 -7 -70 -3 -30 -10 -95 -15 -145
-5 -49 -17 -117 -26 -150 -9 -33 -20 -87 -25 -120 -30 -221 -49 -325 -61 -340
-4 -6 -7 -24 -7 -41 1 -16 -4 -45 -10 -64 -6 -19 -13 -53 -17 -75 -10 -67 -37
-148 -73 -224 -18 -36 -108 -121 -129 -121 -7 0 -13 -5 -13 -10 0 -6 -26 -22
-57 -37 -93 -42 -137 -65 -155 -80 -9 -8 -25 -13 -35 -11 -10 3 -30 -1 -44 -8
-15 -7 -37 -15 -50 -18 -13 -3 -49 -11 -79 -19 -30 -8 -62 -15 -70 -15 -8 0
-51 -7 -95 -14 -90 -16 -170 -15 -265 0 -61 10 -75 13 -143 28 -15 3 -42 13
-60 22 -17 9 -41 18 -52 19 -10 2 -51 19 -90 37 -38 19 -81 39 -95 45 -25 11
-61 32 -70 41 -3 3 -22 14 -43 25 -22 10 -47 28 -58 40 -44 47 -69 81 -69 93
0 6 -4 12 -9 12 -5 0 -16 17 -25 38 -10 20 -23 49 -31 63 -8 14 -12 29 -8 33
3 3 2 6 -4 6 -5 0 -16 26 -22 58 -7 31 -17 71 -23 87 -5 17 -12 50 -14 75 -3
25 -16 72 -28 105 -33 85 -62 197 -77 290 -7 44 -19 88 -27 97 -15 18 -7 42
12 35 6 -3 20 1 31 9 10 8 28 14 40 14 12 0 25 4 31 8 5 5 38 17 74 26 36 10
84 26 108 37 23 10 45 19 50 20 4 1 18 10 31 20 13 11 30 19 38 19 18 0 385
188 398 205 6 6 16 10 23 8 6 -3 12 0 12 6 0 6 5 11 11 11 19 0 114 49 143 75
29 25 39 29 64 26 8 -1 19 3 27 9 7 6 28 10 46 9 37 -3 79 15 80 34 4 65 3 97
-4 122 -14 48 -29 75 -44 75 -7 0 -13 4 -13 9 0 17 -99 42 -137 35 -38 -7
-116 -77 -128 -114 -4 -11 -11 -20 -16 -20 -6 0 -21 -13 -35 -30 -14 -16 -37
-35 -52 -43 -15 -7 -80 -44 -144 -81 -65 -37 -122 -65 -128 -61 -5 3 -10 3
-10 -2 0 -4 -28 -21 -63 -37 -111 -51 -219 -106 -249 -127 -16 -12 -35 -18
-43 -15 -9 3 -15 0 -15 -8 0 -9 -16 -17 -42 -21 -24 -4 -50 -11 -58 -15 -8 -4
-32 -11 -54 -14 -21 -4 -41 -8 -45 -10 -23 -14 -182 -21 -256 -12 -99 13 -184
63 -191 112 -13 79 -14 107 -4 143 6 23 15 41 19 41 5 0 11 10 15 23 3 12 21
40 41 61 19 21 35 40 35 42 0 8 41 44 50 44 5 0 14 9 20 20 17 31 37 24 51
-17 6 -21 15 -42 19 -48 11 -15 37 -112 45 -168 5 -29 14 -51 24 -57 12 -6 18
-24 20 -56 1 -26 7 -57 13 -68 14 -28 48 -60 48 -46 0 6 3 9 8 6 4 -2 16 2 27
10 10 8 15 14 11 14 -5 0 -3 6 3 14 9 11 7 23 -9 53 -11 22 -22 63 -24 91 -2
27 -7 55 -11 62 -4 6 -8 21 -10 33 -7 47 -36 140 -50 160 -8 12 -15 30 -15 40
0 10 -14 47 -30 82 -17 35 -30 68 -30 72 0 16 -79 253 -94 282 -16 29 -22 71
-11 71 3 0 14 -8 25 -17 40 -38 200 -110 310 -140 30 -8 60 -19 66 -24 6 -5
21 -11 35 -13 13 -3 26 -6 29 -7 3 -1 10 -3 15 -4 62 -10 132 -31 141 -41 6
-7 24 -16 40 -19 16 -3 43 -9 59 -12 28 -6 102 -7 150 -3 11 1 115 -1 230 -5
116 -5 226 -7 245 -6 106 4 376 21 415 26 36 4 109 19 225 47 47 11 100 23
118 25 17 3 32 9 32 13 0 4 15 10 34 13 18 3 55 15 82 27 26 12 66 29 88 36
22 8 56 24 74 34 18 11 42 20 53 20 10 0 19 5 19 10 0 6 6 10 13 10 13 0 97
64 131 100 14 15 22 17 27 8 4 -7 6 -15 4 -19z m-2655 -441 c0 -7 -30 -43 -68
-79 -120 -119 -197 -209 -177 -209 3 0 1 -9 -5 -20 -19 -36 -36 -153 -28 -190
5 -19 10 -42 11 -50 6 -41 58 -107 105 -133 27 -15 52 -24 55 -20 4 3 13 1 21
-6 7 -6 31 -14 51 -16 20 -3 42 -8 47 -11 5 -3 42 -6 81 -6 70 0 71 -1 24 -8
-27 -5 -61 -13 -77 -19 -61 -21 -126 -1 -200 64 -20 16 -51 41 -70 55 -71 53
-88 71 -114 125 -24 52 -25 64 -6 110 5 11 11 36 13 55 14 97 104 209 251 310
36 25 65 48 66 53 0 12 20 8 20 -5z m1435 -153 c34 -33 32 -46 -6 -38 -24 4
-36 0 -57 -20 -15 -13 -36 -28 -47 -31 -11 -3 -35 -20 -54 -36 -18 -17 -40
-30 -47 -30 -13 0 -71 -30 -109 -56 -11 -8 -23 -14 -28 -14 -16 0 6 22 37 36
17 8 49 27 72 42 22 15 62 41 88 57 38 24 46 35 43 52 -7 36 18 57 71 62 7 0
24 -10 37 -24z m-595 -355 c-24 -15 -36 -11 -14 4 10 8 21 12 24 10 2 -3 -2
-9 -10 -14z"/>
</g>
</svg>
