<?xml version="1.0" standalone="no"?>
<!DOCTYPE svg PUBLIC "-//W3C//DTD SVG 20010904//EN"
 "http://www.w3.org/TR/2001/REC-SVG-20010904/DTD/svg10.dtd">
<svg version="1.0" xmlns="http://www.w3.org/2000/svg"
 width="475.000000pt" height="449.000000pt" viewBox="0 0 475.000000 449.000000"
 preserveAspectRatio="xMidYMid meet">
<metadata>
Created by potrace 1.16, written by Peter Selinger 2001-2019
</metadata>
<g transform="translate(0.000000,449.000000) scale(0.100000,-0.100000)"
fill="#000000" stroke="none">
<path d="M1088 4341 c-28 -16 -47 -80 -26 -92 11 -7 29 -164 23 -214 -12 -115
-29 -219 -44 -270 -24 -79 -60 -207 -66 -240 -7 -29 -70 -166 -84 -182 -9 -10
-26 -33 -36 -51 -11 -17 -27 -35 -37 -38 -9 -3 -27 -23 -39 -44 -13 -22 -31
-42 -42 -46 -10 -3 -16 -8 -13 -11 3 -4 1 -12 -5 -19 -11 -14 -10 -15 58 -164
19 -41 55 -136 79 -210 25 -74 60 -171 78 -215 46 -112 61 -164 81 -285 10
-58 26 -142 36 -187 10 -45 23 -137 29 -205 5 -68 14 -139 20 -158 6 -19 13
-100 16 -180 3 -80 10 -179 15 -220 36 -278 40 -752 10 -970 -25 -171 -25
-164 -3 -183 25 -23 46 -24 557 -31 209 -3 421 -8 470 -11 50 -4 315 -9 590
-12 551 -5 523 -5 686 -1 80 2 120 -1 130 -9 19 -16 55 -6 84 23 13 13 35 26
49 30 15 3 26 13 26 23 3 103 1 216 -3 256 -19 177 -27 377 -32 775 -5 384 6
634 35 785 11 57 20 117 25 160 2 17 13 73 24 125 12 52 35 165 51 250 17 85
35 164 39 175 16 37 31 80 40 120 28 116 87 317 106 360 25 56 45 143 45 194
0 50 -1 51 -29 51 -16 0 -34 7 -41 15 -7 8 -19 15 -26 15 -17 0 -124 103 -124
119 0 7 -13 31 -29 54 -36 54 -74 129 -95 189 -14 42 -31 168 -28 208 6 88 8
246 3 276 -6 36 -9 39 -36 37 -17 -1 -57 -9 -90 -17 -109 -28 -234 -15 -247
25 -6 17 -58 -18 -59 -40 -1 -9 -2 -20 -4 -26 -1 -5 -3 -34 -3 -62 -2 -48 -6
-57 -45 -95 -42 -42 -105 -97 -157 -138 -14 -11 -29 -23 -35 -28 -28 -22 -85
-53 -85 -45 0 4 -4 4 -8 -2 -4 -5 -16 -15 -27 -21 -123 -67 -148 -77 -225 -90
-82 -14 -317 -21 -365 -11 -11 3 -40 8 -65 11 -96 14 -272 61 -289 77 -10 9
-28 20 -40 24 -13 4 -69 54 -126 112 -105 105 -140 158 -164 250 -11 39 -29
55 -66 57 -5 1 -20 7 -33 14 -12 7 -28 12 -35 11 -6 -1 -19 1 -27 4 -8 3 -90
8 -181 9 -130 2 -171 0 -191 -11z m348 -105 c9 -10 11 -22 5 -44 -5 -17 -7
-33 -5 -35 6 -6 12 -124 19 -348 3 -97 10 -208 15 -245 6 -38 14 -85 17 -104
15 -97 56 -196 112 -268 31 -41 66 -88 77 -105 30 -43 130 -147 143 -147 5 0
14 -6 18 -14 4 -8 43 -42 87 -75 85 -66 236 -144 313 -162 27 -6 55 -13 63
-16 34 -13 90 -18 175 -17 94 2 79 -2 366 102 70 26 238 190 285 278 20 37 46
82 58 98 23 31 50 111 81 236 9 36 23 92 31 124 17 68 30 176 44 356 15 187
15 201 6 250 -10 61 8 96 49 93 17 -1 65 3 109 9 64 9 80 8 87 -3 5 -8 6 -54
3 -104 -8 -105 -8 -89 1 -190 3 -44 11 -89 15 -100 5 -11 19 -45 31 -75 11
-30 26 -62 33 -70 7 -8 21 -33 32 -55 36 -74 103 -170 136 -197 33 -26 71 -58
96 -79 7 -6 10 -19 7 -29 -3 -10 -8 -27 -10 -37 -7 -29 -22 -83 -40 -148 -9
-33 -26 -91 -37 -130 -10 -38 -23 -83 -28 -100 -5 -16 -16 -59 -25 -95 -8 -36
-22 -83 -29 -105 -8 -22 -21 -76 -30 -120 -9 -44 -23 -111 -32 -150 -8 -38
-19 -98 -24 -132 -5 -34 -16 -88 -24 -120 -8 -32 -17 -87 -21 -123 -3 -36 -12
-90 -20 -120 -7 -30 -13 -76 -13 -102 0 -26 -3 -51 -6 -56 -7 -12 -8 -867 -1
-1032 3 -69 9 -165 15 -215 19 -177 20 -233 4 -239 -9 -4 -14 -16 -12 -33 l3
-28 -70 -2 c-38 -1 -122 -4 -185 -8 -173 -10 -1022 -7 -1297 5 -134 5 -303 10
-375 9 -114 -1 -437 17 -445 25 -1 1 1 60 6 132 8 118 7 475 -2 584 -2 25 -9
110 -15 190 -7 80 -16 183 -22 230 -5 47 -10 115 -10 151 0 37 -5 91 -10 120
-6 30 -13 77 -15 104 -19 193 -28 265 -37 300 -6 22 -11 49 -13 60 -12 108
-50 291 -71 355 -16 46 -59 159 -75 195 -5 11 -15 45 -23 75 -9 30 -36 117
-61 193 -25 77 -45 151 -45 166 0 16 12 40 30 59 17 18 30 36 30 39 0 3 11 20
24 38 27 35 90 156 101 195 4 14 14 34 21 45 8 11 14 29 14 41 0 12 7 35 15
50 8 16 15 38 15 49 0 11 11 61 24 110 30 108 59 309 56 385 -6 149 -9 134 30
141 59 9 211 -1 226 -15z m263 -291 c40 -38 87 -84 104 -100 55 -53 165 -107
244 -121 15 -3 37 -8 48 -11 11 -4 25 -8 30 -9 6 -1 37 -9 70 -17 97 -25 294
-31 404 -12 110 19 214 45 221 54 8 12 102 61 162 86 32 13 77 42 101 64 24
23 64 55 89 71 25 17 49 37 52 45 3 8 11 15 17 15 27 0 -8 -449 -44 -560 -7
-25 -20 -69 -27 -99 -37 -158 -188 -379 -311 -457 -43 -27 -152 -74 -229 -100
-84 -28 -266 -26 -350 4 -8 3 -24 7 -34 9 -30 5 -217 100 -250 126 -103 80
-194 165 -229 212 -22 30 -44 55 -49 55 -4 0 -8 5 -8 11 0 6 -12 25 -26 42
-41 48 -83 141 -99 218 -19 90 -41 298 -44 414 -1 49 -7 95 -13 102 -9 11 -2
59 18 132 3 8 21 -12 43 -45 21 -33 70 -90 110 -129z"/>
</g>
</svg>
