<?xml version="1.0" standalone="no"?>
<!DOCTYPE svg PUBLIC "-//W3C//DTD SVG 20010904//EN"
 "http://www.w3.org/TR/2001/REC-SVG-20010904/DTD/svg10.dtd">
<svg version="1.0" xmlns="http://www.w3.org/2000/svg"
 width="487.000000pt" height="449.000000pt" viewBox="0 0 487.000000 449.000000"
 preserveAspectRatio="xMidYMid meet">
<metadata>
Created by potrace 1.16, written by Peter Selinger 2001-2019
</metadata>
<g transform="translate(0.000000,449.000000) scale(0.100000,-0.100000)"
fill="#000000" stroke="none">
<path d="M979 4333 c-1 -10 -1 -21 0 -25 0 -5 -3 -8 -8 -8 -4 0 -6 -19 -3 -42
12 -112 11 -187 -4 -248 -9 -35 -18 -80 -20 -98 -3 -19 -11 -47 -19 -63 -9
-16 -14 -29 -11 -29 22 0 -80 -237 -152 -354 -57 -92 -226 -249 -246 -229 -3
4 -6 -5 -6 -20 0 -14 -15 -72 -33 -129 -44 -138 -105 -405 -124 -543 -3 -22
-9 -48 -14 -57 -14 -27 -39 -177 -39 -239 0 -30 -7 -79 -16 -109 -20 -67 -24
-135 -24 -385 1 -218 2 -249 20 -405 7 -58 13 -116 15 -130 1 -14 6 -32 9 -41
4 -9 9 -33 11 -55 5 -55 36 -164 46 -164 5 0 9 -6 9 -14 0 -16 42 -26 62 -15
8 5 59 -8 123 -30 61 -21 137 -46 170 -55 33 -10 74 -27 92 -37 51 -32 147
-79 160 -79 6 0 13 -4 15 -8 2 -5 29 -25 60 -45 48 -31 62 -35 83 -27 14 5 31
22 37 37 7 16 26 51 43 78 16 28 37 62 45 77 8 15 27 42 42 60 58 70 88 111
88 120 0 5 5 6 10 3 6 -3 10 1 10 9 0 9 3 16 8 16 4 0 30 20 58 45 28 24 54
41 58 38 3 -3 6 -1 6 5 0 7 5 12 12 12 6 0 19 6 27 14 26 23 92 47 90 33 -4
-31 2 -58 11 -52 6 3 13 -1 16 -9 3 -9 12 -16 19 -16 7 0 28 -18 48 -40 19
-22 39 -40 45 -40 6 0 12 -3 14 -8 2 -4 33 -30 69 -59 36 -29 80 -70 98 -92
18 -22 43 -52 56 -67 13 -15 29 -39 37 -53 7 -14 16 -28 19 -31 13 -10 63 -95
61 -102 -1 -5 2 -8 7 -8 5 0 11 -10 15 -22 3 -13 16 -35 28 -50 13 -14 32 -39
43 -54 36 -49 46 -56 79 -50 17 3 56 8 86 11 61 7 181 32 220 46 14 5 39 11
55 14 56 9 75 14 85 20 6 4 20 8 33 10 12 2 47 9 77 14 30 5 107 23 170 39 63
16 135 33 160 37 49 7 240 47 335 70 33 7 101 15 150 16 50 1 97 7 105 13 19
14 19 63 1 96 -8 14 -29 40 -47 60 -57 59 -68 132 -68 425 0 138 3 288 7 335
4 47 9 115 12 152 3 37 12 109 20 160 8 51 17 111 20 133 4 22 10 58 16 80 5
22 13 83 19 135 15 145 47 345 58 366 11 20 32 149 37 224 1 25 14 72 28 105
59 142 73 468 27 630 -11 38 -20 81 -20 95 0 27 -45 152 -68 188 -8 12 -10 22
-6 22 5 0 4 4 -2 8 -6 4 -19 23 -29 42 -40 80 -92 144 -148 181 -32 22 -64 39
-71 39 -7 0 -25 9 -40 21 -23 18 -31 19 -60 9 -30 -10 -37 -9 -55 9 -18 18
-30 19 -121 15 -56 -2 -122 -9 -147 -14 -24 -6 -49 -7 -55 -4 -15 10 -168 12
-174 3 -2 -4 -19 -3 -37 2 -17 5 -57 11 -87 14 -30 3 -56 9 -58 14 -8 25 -92
-27 -92 -58 -1 -9 -14 -32 -30 -51 -17 -19 -30 -38 -30 -43 0 -13 -53 -55 -85
-67 -16 -7 -38 -16 -48 -21 -10 -6 -58 -10 -105 -11 -130 -1 -197 30 -362 166
-50 41 -84 87 -69 92 2 1 -4 10 -13 21 -15 16 -36 19 -185 22 -172 3 -258 7
-258 10 0 1 -114 4 -252 7 -238 4 -253 4 -254 -13z m471 -107 c69 -4 163 -8
209 -9 46 -1 86 -6 87 -12 2 -5 -10 -26 -27 -45 -36 -41 -54 -74 -79 -144 -10
-28 -30 -85 -45 -126 -35 -95 -38 -115 -39 -225 -1 -177 8 -225 77 -405 13
-36 27 -74 31 -85 32 -88 78 -166 134 -224 34 -36 62 -69 62 -73 0 -5 4 -8 9
-8 6 0 24 -13 42 -29 l32 -30 -12 -73 c-6 -40 -16 -111 -22 -158 -5 -47 -14
-98 -19 -115 -13 -42 -49 -230 -55 -286 -3 -26 -8 -58 -11 -70 -9 -44 -31
-180 -39 -249 -3 -25 -11 -63 -17 -85 -6 -22 -11 -43 -10 -47 1 -4 -10 -54
-25 -110 -15 -59 -28 -141 -30 -190 l-4 -87 -56 -21 c-31 -12 -69 -30 -84 -40
-15 -11 -34 -20 -42 -20 -8 0 -42 -24 -75 -54 -34 -30 -67 -58 -75 -63 -7 -4
-37 -38 -67 -76 -29 -37 -57 -67 -62 -67 -5 0 -13 -12 -19 -27 -8 -21 -95
-158 -116 -183 -2 -2 -32 10 -66 28 -104 53 -241 116 -257 119 -8 1 -23 6 -35
11 -11 5 -51 19 -90 31 -119 39 -215 84 -215 101 0 9 -4 20 -9 26 -10 11 -26
75 -52 209 -14 69 -21 161 -25 300 -3 110 -7 216 -9 235 -3 34 16 223 35 345
5 33 12 85 14 115 5 64 96 469 140 625 1 6 8 30 15 55 7 25 19 59 27 77 8 17
14 38 14 47 0 8 16 30 36 48 78 72 156 154 181 193 14 22 38 58 53 80 57 83
119 226 140 323 13 53 28 108 34 122 7 14 11 33 9 43 -3 9 1 17 7 17 7 0 10 6
7 14 -3 7 -1 33 4 57 10 41 17 119 18 195 l1 31 123 -3 c67 -1 178 -5 247 -8z
m486 -106 c33 -33 62 -60 67 -60 4 0 39 -24 78 -54 101 -77 216 -106 347 -88
34 5 62 7 62 5 0 -7 -22 -48 -29 -53 -6 -5 -11 -14 -53 -89 -11 -20 -25 -42
-30 -48 -6 -7 -7 -13 -4 -13 6 0 -50 -88 -63 -100 -14 -12 -61 -87 -61 -97 0
-6 -4 -13 -8 -15 -4 -1 -20 -23 -35 -48 -39 -63 -90 -135 -121 -173 -71 -86
-116 -196 -116 -287 0 -28 -4 -40 -14 -40 -20 0 -109 87 -135 130 -38 66 -91
174 -91 187 0 7 -14 47 -31 90 -17 42 -33 102 -36 132 -3 31 -9 65 -13 76 -13
36 11 197 42 285 16 47 34 100 39 119 21 67 113 201 140 201 4 0 33 -27 65
-60z m1037 27 c87 -1 108 -9 62 -27 -50 -19 -132 -118 -172 -208 -11 -23 -21
-40 -24 -38 -2 3 -6 -21 -7 -52 -2 -31 -7 -73 -12 -93 -6 -20 -10 -94 -10
-165 -1 -103 4 -144 21 -204 12 -41 30 -111 40 -155 27 -112 25 -107 50 -166
13 -30 33 -68 46 -85 13 -17 23 -36 23 -42 0 -7 4 -12 9 -12 5 0 55 -44 111
-99 133 -129 203 -165 330 -170 91 -3 141 14 248 83 l73 47 -4 -28 c-3 -15
-12 -57 -20 -93 -8 -36 -18 -96 -21 -135 -11 -116 -52 -370 -77 -480 -32 -144
-56 -748 -36 -950 7 -73 30 -173 47 -205 13 -23 13 -33 1 -25 -5 3 -12 1 -15
-4 -6 -9 -57 -22 -142 -37 -16 -3 -45 -9 -64 -14 -19 -5 -91 -20 -160 -34 -69
-14 -159 -35 -200 -46 -70 -19 -153 -38 -275 -60 -27 -6 -75 -17 -105 -26
-104 -30 -215 -53 -287 -60 l-71 -7 -26 42 c-14 22 -26 45 -26 51 0 5 -3 10
-8 10 -4 0 -19 21 -32 48 -14 26 -35 60 -48 75 -12 16 -22 33 -22 38 0 5 -7
17 -15 26 -8 10 -39 48 -69 84 -61 75 -103 119 -114 119 -4 0 -28 19 -54 43
-25 23 -67 59 -92 80 -26 22 -43 43 -39 50 3 6 10 67 14 136 4 69 12 146 18
171 5 25 15 74 21 110 6 36 13 76 16 90 17 75 24 116 29 158 3 26 10 67 15 92
21 108 40 219 46 270 3 30 16 105 29 165 13 61 29 153 35 205 7 52 14 104 17
115 2 11 8 49 13 85 33 222 37 241 73 320 11 25 28 54 38 65 31 33 97 127 116
165 10 19 21 37 26 38 4 2 7 8 7 14 0 6 15 31 34 57 70 97 106 151 106 160 0
6 8 15 18 20 9 6 14 11 10 11 -4 0 1 15 12 33 11 17 20 40 20 50 0 9 5 17 10
17 6 0 10 7 10 15 0 8 3 15 8 15 4 0 13 13 20 29 7 16 23 40 35 54 37 43 86
112 115 163 69 121 59 113 127 107 33 -3 99 -6 148 -6z m411 -2 c23 -17 56
-20 56 -5 0 18 37 10 76 -16 21 -15 55 -31 74 -36 36 -10 110 -73 110 -94 0
-6 7 -17 16 -25 36 -30 98 -175 124 -289 10 -47 23 -100 29 -119 18 -57 12
-286 -10 -373 -10 -42 -19 -87 -19 -100 0 -59 -133 -258 -173 -258 -5 0 -25
-13 -43 -30 -70 -61 -215 -76 -307 -30 -27 14 -94 70 -156 130 -109 107 -159
182 -181 271 -5 19 -13 50 -19 69 l-11 35 41 -45 c22 -25 47 -44 55 -42 8 2
14 -1 14 -7 0 -11 80 -63 152 -99 29 -14 56 -30 60 -36 4 -6 8 -8 8 -4 0 4 15
1 33 -7 18 -8 42 -12 53 -10 10 2 25 4 32 4 16 1 130 113 155 151 9 14 19 49
23 78 3 28 11 52 16 52 6 0 9 26 7 58 -1 31 1 65 6 75 13 30 -5 221 -26 281
-10 31 -19 63 -19 72 0 43 -35 127 -57 137 -13 6 -26 22 -30 36 -3 14 -10 32
-15 38 -11 13 -116 73 -129 73 -14 0 -80 42 -75 48 5 4 92 30 106 31 3 0 14
-6 24 -14z m-182 -93 c15 -1 68 -23 118 -49 67 -35 90 -52 90 -67 0 -23 37
-66 57 -66 7 0 13 -3 14 -7 2 -22 9 -54 24 -108 9 -33 21 -78 27 -100 14 -55
2 -283 -18 -330 -8 -20 -16 -52 -18 -71 -2 -33 -9 -42 -88 -125 -15 -16 -37
-29 -48 -29 -26 0 -62 18 -73 36 -4 8 -19 14 -32 14 -14 0 -25 5 -25 10 0 6
-9 10 -19 10 -11 0 -42 18 -70 40 -28 22 -54 40 -59 40 -5 0 -22 19 -38 43
-39 57 -72 86 -94 80 -15 -4 -20 5 -30 49 -18 81 -23 226 -9 298 6 36 27 105
47 153 34 88 50 108 142 186 34 29 36 29 55 12 11 -9 32 -18 47 -19z"/>
<path d="M480 1644 c-36 -25 -37 -29 -23 -104 7 -36 13 -46 31 -48 15 -2 25 4
34 22 13 29 26 33 34 11 4 -8 10 -13 14 -10 4 3 13 -2 20 -10 7 -8 19 -15 27
-15 8 0 29 -6 46 -14 18 -8 72 -24 121 -36 49 -12 97 -25 107 -30 9 -5 36 -12
60 -15 23 -3 44 -7 46 -8 3 -4 -16 -64 -28 -89 -4 -9 -11 -40 -15 -68 -7 -50
-6 -52 17 -48 16 2 25 11 27 26 2 12 7 22 11 22 4 0 16 19 27 43 10 23 22 44
25 47 8 6 49 106 49 120 0 12 -56 41 -64 33 -3 -3 -26 2 -50 11 -24 9 -57 19
-73 22 -204 35 -322 85 -346 147 -9 25 -55 21 -97 -9z"/>
<path d="M2269 2703 c0 -10 -2 -28 -5 -41 -4 -24 26 -62 51 -62 19 0 19 -13 0
-49 -21 -41 -92 -56 -122 -26 -13 13 -13 23 -3 64 15 62 2 91 -39 91 -43 0
-49 -12 -67 -146 -5 -36 -2 -45 28 -76 45 -48 69 -58 132 -60 42 -1 60 3 82
21 47 37 84 87 98 135 12 41 12 47 -6 78 -38 62 -70 87 -110 88 -29 0 -38 -4
-39 -17z"/>
<path d="M2164 2177 c-6 -7 -11 -27 -11 -44 0 -28 5 -34 49 -52 26 -11 48 -26
48 -34 0 -17 -31 -46 -56 -52 -11 -2 -29 -7 -41 -11 -30 -8 -47 33 -34 80 21
78 -56 117 -91 46 -10 -19 -18 -53 -18 -76 0 -46 17 -104 31 -104 5 0 9 -6 9
-13 0 -13 55 -38 99 -44 12 -2 34 3 47 12 14 9 30 15 37 13 20 -4 64 31 89 70
31 51 38 80 27 109 -12 33 -55 84 -63 76 -3 -4 -6 -2 -6 4 0 27 -95 43 -116
20z"/>
<path d="M1945 1607 c-25 -41 -45 -111 -45 -160 0 -40 20 -68 70 -99 30 -18
136 -23 177 -8 44 16 102 88 119 148 16 53 15 54 -8 79 -12 14 -38 32 -55 39
-30 13 -35 12 -56 -6 -33 -29 -32 -84 1 -88 22 -3 22 -4 5 -33 -10 -16 -20
-29 -23 -30 -3 0 -14 -2 -25 -4 -69 -13 -92 -8 -102 22 -7 19 -5 36 5 56 17
35 28 107 16 108 -5 0 -20 2 -34 4 -20 2 -30 -4 -45 -28z"/>
<path d="M3090 1550 c0 -13 -14 -26 -47 -40 -27 -12 -55 -23 -63 -25 -8 -2
-16 -4 -17 -5 -2 -2 -7 -3 -12 -4 -5 0 -13 -4 -17 -8 -4 -5 -17 -8 -30 -8 -12
0 -24 -5 -26 -11 -2 -5 -20 -11 -41 -12 -20 -1 -37 -5 -37 -9 0 -3 -35 -10
-77 -14 -43 -4 -87 -8 -98 -9 -11 -1 -28 2 -37 7 -22 11 -78 -16 -78 -37 0 -8
-9 -19 -21 -25 -16 -9 -19 -18 -16 -46 3 -19 10 -41 16 -48 7 -8 13 -22 15
-32 7 -35 24 -70 39 -82 25 -21 38 10 38 91 l0 74 87 7 c128 9 168 15 199 31
16 8 37 15 49 15 20 0 87 25 187 69 27 11 50 21 52 21 1 0 6 -20 9 -45 9 -57
37 -95 59 -77 20 17 30 96 22 165 l-7 54 -46 10 c-76 17 -102 16 -102 -7z"/>
</g>
</svg>
