<?xml version="1.0" standalone="no"?>
<!DOCTYPE svg PUBLIC "-//W3C//DTD SVG 20010904//EN"
 "http://www.w3.org/TR/2001/REC-SVG-20010904/DTD/svg10.dtd">
<svg version="1.0" xmlns="http://www.w3.org/2000/svg"
 width="505.000000pt" height="411.000000pt" viewBox="0 0 505.000000 411.000000"
 preserveAspectRatio="xMidYMid meet">
<metadata>
Created by potrace 1.16, written by Peter Selinger 2001-2019
</metadata>
<g transform="translate(0.000000,411.000000) scale(0.100000,-0.100000)"
fill="#000000" stroke="none">
<path d="M2268 3900 c-76 -19 -168 -56 -168 -69 0 -3 -20 -19 -44 -35 -30 -20
-60 -57 -97 -115 -29 -47 -58 -89 -64 -93 -5 -4 -7 -8 -3 -8 3 0 0 -23 -7 -52
-10 -35 -13 -94 -11 -190 2 -76 1 -138 -3 -138 -4 0 -18 -10 -31 -22 -14 -13
-28 -22 -33 -20 -4 1 -10 -4 -13 -12 -3 -8 -30 -26 -59 -41 -30 -14 -69 -41
-88 -60 -19 -19 -39 -35 -44 -35 -4 0 -55 -46 -113 -102 -104 -102 -192 -205
-242 -283 -14 -22 -34 -49 -45 -60 -19 -20 -83 -144 -83 -161 0 -12 -58 -124
-74 -144 -7 -8 -27 -60 -45 -115 -18 -55 -37 -109 -42 -120 -35 -80 -110 -333
-139 -470 -39 -180 -51 -248 -55 -300 -2 -33 -8 -98 -13 -145 -12 -104 -7
-364 8 -420 8 -32 18 -44 39 -51 28 -10 32 -16 66 -92 13 -29 36 -50 103 -93
47 -31 93 -59 102 -62 8 -3 22 -11 30 -17 14 -12 211 -79 261 -89 61 -13 76
-16 99 -25 47 -18 328 -74 430 -86 30 -4 69 -11 87 -16 43 -14 488 -25 543
-15 14 3 54 8 90 11 36 3 94 10 130 15 36 5 107 12 159 15 52 3 99 10 105 15
13 10 142 47 194 56 19 3 62 16 98 30 35 13 64 22 64 19 0 -2 11 0 26 5 14 6
39 12 56 15 17 3 40 12 52 20 11 8 28 15 36 15 9 0 36 13 61 28 24 16 47 29
52 30 8 2 62 30 92 49 11 7 29 17 40 22 11 5 40 24 65 40 25 17 48 31 52 31 5
0 29 16 55 34 80 58 135 141 123 186 -4 14 -3 30 2 36 4 6 11 49 13 95 3 46 8
107 11 134 3 28 7 167 9 310 4 268 -6 372 -39 440 -13 25 -43 120 -76 240 -5
17 -20 62 -35 100 -43 115 -62 167 -84 223 -11 29 -40 88 -65 131 -25 43 -46
80 -46 83 0 6 -69 123 -133 225 -65 102 -145 180 -269 263 -66 43 -135 84
-154 90 -19 6 -34 16 -34 21 0 5 -6 9 -14 9 -7 0 -19 6 -25 14 -7 8 -26 18
-43 21 -17 4 -53 20 -81 37 -27 16 -56 27 -64 23 -11 -4 -13 -1 -8 12 56 146
14 385 -85 483 -41 42 -104 82 -113 73 -4 -3 -13 0 -22 7 -9 7 -18 10 -21 7
-3 -3 -21 3 -40 14 -22 12 -54 19 -87 19 -29 0 -57 4 -63 10 -19 19 -155 19
-236 0z m147 -80 c3 -5 18 -10 31 -10 35 0 26 -25 -9 -25 -26 -1 -67 -30 -67
-48 0 -6 -6 -18 -14 -26 -24 -28 -103 -193 -124 -261 -45 -147 -52 -178 -58
-246 -3 -39 -1 -87 4 -107 8 -30 8 -37 -4 -37 -8 0 -14 4 -14 8 0 5 -21 19
-47 31 -90 42 -130 93 -141 181 -11 77 -6 214 7 218 6 2 8 8 5 14 -6 10 -3 19
30 88 32 66 65 115 73 107 2 -3 17 8 34 24 16 15 48 36 70 45 21 10 39 22 39
28 0 5 3 7 6 4 3 -3 -10 -27 -30 -52 -19 -25 -37 -55 -41 -66 -3 -11 -10 -20
-15 -20 -4 0 -11 -12 -15 -27 -3 -15 -15 -46 -26 -70 -26 -57 -49 -146 -56
-218 -3 -33 -9 -64 -14 -69 -14 -15 -11 -102 4 -114 24 -20 43 10 56 93 7 44
19 98 27 120 7 22 14 46 14 54 0 38 119 270 145 283 11 6 25 17 30 25 6 7 24
17 40 21 23 6 31 15 33 35 3 27 16 35 27 17z m155 -34 c0 -8 -4 -18 -10 -21
-5 -3 -10 3 -10 14 0 12 5 21 10 21 6 0 10 -6 10 -14z m100 -30 c0 -2 -7 -9
-15 -16 -13 -11 -14 -10 -9 4 5 14 24 23 24 12z m-130 -41 c-6 -15 -19 -93
-30 -174 -10 -80 -22 -159 -26 -176 -4 -16 -7 -80 -7 -141 -1 -89 3 -117 16
-137 14 -21 21 -25 40 -18 22 8 26 41 8 66 -7 10 -6 38 3 150 2 28 16 109 31
180 15 72 32 153 37 180 5 28 14 57 20 65 7 11 8 8 3 -10 -21 -90 -31 -489
-13 -541 13 -38 39 -45 60 -19 19 24 24 66 9 72 -11 3 -18 149 -8 164 3 5 8
48 12 94 3 47 12 123 19 170 14 85 14 85 16 30 1 -30 1 -122 0 -203 -2 -186
20 -299 54 -280 13 7 -47 -50 -96 -91 -19 -16 -37 -28 -40 -25 -3 2 -14 -6
-24 -19 -16 -19 -34 -25 -114 -34 -121 -14 -195 -13 -242 3 -37 12 -37 12 -40
73 -3 59 11 152 30 205 6 14 16 49 23 76 7 28 33 91 59 142 26 51 46 94 43 96
-2 3 4 7 13 11 12 5 15 2 9 -11 -53 -138 -83 -285 -87 -420 -3 -94 10 -121 55
-109 29 7 41 40 21 57 -16 13 -20 114 -4 124 6 3 10 20 10 37 0 36 29 148 41
163 5 5 9 16 9 25 0 18 92 262 97 257 2 -3 -1 -17 -7 -32z m294 -117 c-3 -4
-1 -8 4 -8 20 0 33 -133 20 -195 -5 -22 -9 -47 -9 -55 -1 -30 -21 -80 -29 -75
-10 6 -12 233 -3 314 3 33 9 48 14 40 4 -7 5 -17 3 -21z m90 -423 c15 -14 36
-25 46 -25 10 0 21 -4 24 -9 3 -5 18 -12 33 -16 16 -3 45 -17 66 -31 31 -20
36 -28 27 -39 -6 -8 -18 -37 -25 -66 -13 -49 -13 -53 11 -91 24 -38 28 -40 64
-35 21 3 48 13 58 23 20 19 38 68 34 92 -2 6 2 12 7 12 15 0 142 -91 148 -106
3 -7 13 -16 24 -19 10 -4 19 -11 19 -18 0 -6 12 -23 26 -38 30 -31 30 -31 -38
-82 -45 -33 -52 -63 -12 -53 17 5 23 3 19 -4 -12 -19 5 -85 26 -98 28 -18 77
10 95 55 14 33 16 34 28 17 8 -11 30 -54 50 -97 l37 -77 -24 -33 c-34 -45 -38
-62 -19 -80 10 -8 28 -27 41 -42 14 -14 30 -24 38 -20 55 21 57 19 81 -51 12
-38 20 -69 19 -70 -2 -2 -21 5 -42 16 -180 85 -259 120 -269 120 -7 0 -16 4
-22 9 -31 29 -363 128 -454 136 -117 10 -172 15 -210 21 -77 13 -586 -5 -720
-25 -36 -5 -92 -12 -125 -15 -140 -15 -162 -19 -210 -36 -27 -10 -63 -21 -80
-23 -16 -3 -66 -17 -109 -31 -44 -15 -85 -25 -90 -23 -6 2 -35 -9 -64 -25 -29
-15 -58 -28 -65 -28 -6 0 -23 -10 -37 -21 -34 -28 -98 -70 -140 -92 -19 -10
-52 -32 -72 -48 -20 -16 -39 -25 -43 -20 -3 5 -1 12 4 15 5 3 12 22 16 42 6
32 9 36 32 31 21 -4 37 5 81 47 62 58 74 83 73 146 0 33 -6 49 -21 60 -21 16
-21 17 -3 48 17 30 43 43 43 22 0 -20 66 -10 103 15 49 34 91 115 82 161 -3
18 -12 37 -20 41 -12 7 -9 15 12 41 l25 33 22 -20 c28 -25 43 -28 88 -12 40
13 82 60 111 125 18 38 14 55 -17 77 -5 4 1 12 13 18 18 10 22 9 30 -12 20
-52 65 -42 130 28 37 41 42 51 37 79 -4 18 -4 35 0 38 3 4 26 -14 51 -38 26
-24 65 -53 87 -65 23 -12 61 -32 86 -46 25 -14 65 -32 90 -40 51 -18 240 -27
240 -12 0 5 19 7 43 5 23 -2 60 2 82 11 22 8 50 17 63 20 12 3 22 9 22 13 0 5
8 11 18 14 35 11 169 150 183 189 7 20 14 37 15 37 0 0 13 -11 28 -25z m-1064
-129 c0 -8 -11 -21 -25 -30 -23 -15 -25 -15 -25 0 0 21 30 55 41 48 5 -3 9
-11 9 -18z m1350 -70 c0 -42 -4 -55 -17 -60 -11 -5 -22 -1 -30 10 -21 29 -16
60 12 72 14 6 25 16 25 22 0 5 2 10 5 10 3 0 5 -24 5 -54z m-1530 -82 c0 -20
-37 -62 -63 -72 -36 -14 -41 -11 -33 21 7 30 96 77 96 51z m1863 -229 c-3 -13
-11 -30 -19 -36 -11 -9 -14 -7 -14 10 0 21 18 50 31 51 3 0 4 -11 2 -25z
m-2103 -25 c0 -10 -16 -35 -35 -54 -56 -57 -84 -25 -36 41 14 19 26 25 64 32
4 0 7 -8 7 -19z m-206 -285 c6 -31 3 -39 -28 -70 -39 -38 -45 -42 -42 -22 3
23 50 127 57 127 4 0 10 -16 13 -35z m2513 8 c-3 -3 -11 -2 -17 2 -9 6 -9 10
1 16 14 8 27 -7 16 -18z m-1794 -30 c-7 -2 -19 -2 -25 0 -7 3 -2 5 12 5 14 0
19 -2 13 -5z m742 -158 c143 -7 211 -12 232 -19 10 -3 38 -7 63 -10 124 -15
369 -79 467 -122 17 -8 42 -14 56 -14 14 0 29 -4 32 -10 3 -5 15 -10 26 -10
10 0 19 -4 19 -9 0 -5 8 -11 18 -14 110 -35 190 -72 241 -111 33 -25 70 -46
83 -46 l23 0 -25 -20 c-14 -11 -30 -20 -36 -20 -30 0 -56 -56 -57 -122 -1 -68
81 -92 134 -39 28 28 29 28 30 8 0 -12 2 -31 4 -41 2 -10 5 -42 6 -70 2 -45 0
-51 -17 -48 -21 3 -75 2 -114 -1 -14 -1 -38 -14 -55 -29 -26 -24 -30 -34 -29
-75 1 -27 3 -59 5 -73 3 -20 -1 -25 -26 -30 -16 -4 -39 -2 -50 4 -22 11 -27
13 -50 15 -9 0 -15 7 -14 14 2 19 -12 57 -22 57 -23 0 -4 21 37 42 55 27 68
54 60 123 -8 67 -36 94 -105 102 -51 5 -53 5 -91 -37 -44 -47 -62 -97 -53
-141 5 -28 4 -29 -30 -29 -20 0 -42 -6 -50 -14 -12 -13 -22 -12 -77 5 -34 10
-70 19 -81 19 -22 0 -23 4 -9 30 8 15 5 23 -17 40 l-26 21 30 32 c59 63 49
114 -32 158 -61 34 -135 27 -135 -12 0 -5 -6 -9 -14 -9 -13 0 -22 -21 -32 -78
-3 -12 2 -35 10 -51 19 -36 6 -51 -43 -51 -51 0 -81 -10 -81 -27 0 -12 -18
-14 -97 -11 -92 3 -98 4 -98 24 0 11 -6 28 -12 36 -11 12 -6 22 27 56 31 31
40 48 40 74 0 82 -99 136 -168 90 -15 -10 -36 -23 -47 -28 -27 -15 -42 -86
-27 -127 6 -16 10 -33 7 -36 -2 -4 -25 -17 -52 -30 -26 -13 -58 -33 -71 -45
-20 -18 -37 -21 -113 -22 -86 -2 -89 -1 -89 21 0 12 -6 28 -14 34 -12 10 -10
19 12 58 35 63 38 108 8 140 -35 37 -86 45 -135 20 -23 -11 -43 -29 -47 -39
-3 -10 -8 -18 -12 -18 -7 0 -8 -76 -2 -92 1 -5 3 -11 4 -15 1 -5 5 -14 10 -21
9 -15 -10 -33 -66 -59 -20 -10 -39 -25 -41 -34 -4 -14 -54 -27 -177 -42 -14
-2 -42 -9 -63 -16 -21 -7 -40 -11 -43 -9 -2 3 21 30 51 60 68 68 74 107 24
157 -33 34 -66 39 -132 20 -35 -9 -49 -20 -85 -64 -15 -17 -14 -103 1 -122 16
-21 -3 -50 -48 -74 -32 -17 -45 -30 -45 -45 0 -17 -9 -24 -46 -33 -26 -7 -65
-21 -86 -32 -22 -11 -42 -19 -44 -16 -2 2 2 21 9 43 8 21 13 51 12 65 -2 30
-38 85 -57 86 -7 1 -32 4 -55 8 -40 7 -44 5 -82 -33 -25 -25 -45 -58 -55 -90
-16 -55 -13 -83 15 -122 17 -25 16 -26 -10 -55 -15 -17 -45 -42 -67 -58 -22
-15 -50 -36 -62 -47 -12 -11 -24 -20 -27 -20 -3 0 -3 24 0 53 3 28 10 106 15
173 15 169 19 180 59 176 17 -2 39 2 48 10 15 12 66 87 68 98 0 3 6 15 13 27
6 12 9 30 5 40 -13 34 -35 44 -88 38 l-50 -6 24 25 c14 14 29 26 35 26 6 0 23
15 37 33 14 18 53 52 85 77 32 24 70 54 84 66 14 13 63 42 110 65 47 23 92 48
100 55 8 7 20 13 25 13 6 1 39 16 74 33 35 18 71 33 80 35 32 5 126 30 141 36
8 4 29 9 45 12 17 2 62 11 100 20 39 8 94 17 124 20 30 3 74 10 99 16 24 5 74
12 111 15 36 3 80 8 96 13 17 4 61 9 100 10 38 1 71 4 72 5 3 3 32 2 238 -9z
m1268 -492 c-16 -45 -56 -59 -66 -24 -6 25 11 41 45 41 22 0 26 -4 21 -17z
m-1285 -39 c-2 -9 -16 -26 -31 -38 -23 -17 -29 -18 -37 -7 -13 22 18 61 47 61
17 0 24 -5 21 -16z m-538 -13 c-12 -24 -27 -34 -34 -23 -8 14 10 32 42 41 1 1
-2 -8 -8 -18z m1030 -24 c0 -19 -36 -50 -49 -43 -16 10 9 56 31 56 10 0 18 -6
18 -13z m-2170 -58 c0 -7 -9 -27 -21 -45 -21 -35 -49 -46 -49 -20 0 8 -3 21
-6 29 -3 8 2 22 11 31 19 18 65 22 65 5z m650 -31 c0 -26 -27 -58 -50 -58 -28
0 -20 52 10 67 34 17 40 16 40 -9z m1993 -4 c22 -8 10 -38 -23 -57 -35 -21
-41 -21 -34 1 18 56 29 67 57 56z m-1056 -60 c-3 -3 -12 -4 -19 -1 -8 3 -5 6
6 6 11 1 17 -2 13 -5z m1377 -93 c6 -10 -22 -71 -32 -71 -28 1 -52 57 -31 71
18 11 56 11 63 0z m-984 -16 c63 -4 149 -14 190 -22 41 -8 93 -18 115 -22 90
-17 307 -94 440 -156 28 -13 73 -34 100 -46 52 -23 63 -31 105 -72 45 -45 52
-58 46 -82 l-6 -25 -33 19 c-65 37 -133 79 -178 109 -26 18 -52 32 -58 32 -7
0 -26 8 -44 17 -18 9 -52 18 -77 20 -63 5 -96 10 -165 27 -127 30 -254 54
-343 64 -52 6 -99 16 -106 21 -7 6 -15 8 -18 6 -3 -3 -36 1 -74 9 -38 8 -94
18 -124 21 -30 4 -75 10 -100 13 -25 3 -126 6 -225 6 -186 1 -205 -1 -445 -57
-52 -12 -99 -22 -105 -23 -83 -8 -211 -37 -325 -73 -52 -16 -135 -42 -185 -56
-49 -15 -99 -31 -110 -36 -85 -34 -118 -51 -165 -83 -29 -20 -56 -36 -62 -36
-5 0 -19 -10 -32 -22 -13 -13 -38 -37 -57 -54 -19 -16 -42 -41 -51 -55 -17
-24 -18 -24 -33 -5 -8 11 -15 26 -15 34 0 8 42 56 94 106 74 72 106 96 155
115 33 13 61 27 61 30 0 14 170 80 189 73 8 -2 11 0 8 5 -6 10 190 98 238 106
35 6 96 27 110 38 16 12 124 29 187 29 32 0 58 4 58 8 0 11 10 12 298 16 145
2 266 6 268 9 7 6 320 1 474 -8z m-1815 -15 c8 -12 -19 -74 -43 -100 -16 -17
-21 -18 -31 -7 -12 15 -5 77 9 77 4 0 10 9 13 20 5 21 41 28 52 10z m1385
-141 c45 0 273 -31 325 -45 33 -8 80 -17 105 -20 25 -2 61 -7 80 -10 19 -3 64
-8 100 -11 36 -3 86 -13 111 -23 25 -10 67 -21 95 -25 27 -4 56 -9 64 -12 8
-3 29 -7 45 -8 102 -7 177 -34 297 -110 49 -31 59 -45 32 -45 -8 0 -13 -4 -9
-9 6 -11 -44 -51 -100 -78 -22 -11 -72 -36 -111 -56 -39 -20 -76 -37 -81 -37
-5 0 -51 -18 -103 -40 -51 -22 -100 -41 -109 -42 -9 -2 -18 -6 -21 -9 -10 -13
-97 -47 -150 -59 -30 -7 -80 -21 -111 -31 -30 -11 -64 -19 -75 -19 -12 0 -24
-3 -28 -7 -4 -4 -19 -8 -34 -8 -15 -1 -36 -4 -47 -8 -11 -3 -56 -9 -100 -11
-44 -3 -114 -10 -155 -15 -97 -13 -337 -18 -420 -9 -36 5 -98 10 -139 14 -41
3 -79 8 -84 11 -5 3 -37 8 -71 10 -33 2 -72 6 -86 9 -14 2 -47 7 -75 10 -27 3
-75 14 -105 24 -30 10 -109 35 -175 55 -66 21 -124 42 -130 46 -5 5 -14 9 -21
9 -7 0 -39 15 -73 34 -33 19 -76 40 -95 47 -20 7 -36 16 -36 19 0 4 -11 12
-24 18 -17 7 -23 17 -19 30 4 18 114 97 157 115 11 4 26 13 34 19 8 7 23 13
35 15 11 2 25 7 31 12 6 5 45 18 86 30 140 40 155 45 166 53 7 5 20 11 30 13
11 2 64 15 119 30 55 14 132 30 172 35 39 5 100 19 135 31 35 11 90 23 123 26
33 3 73 10 90 17 16 7 82 13 145 15 63 2 116 4 117 5 2 1 20 1 40 -2 21 -2 45
-3 53 -3z m1394 -376 c2 -10 3 -29 2 -43 -2 -14 -4 -31 -5 -38 0 -7 -9 -16
-18 -19 -9 -4 -24 -14 -34 -22 -41 -37 -102 -78 -174 -116 -22 -12 -71 -39
-110 -61 -38 -22 -101 -52 -140 -68 -38 -16 -74 -33 -80 -38 -5 -4 -19 -8 -31
-8 -12 0 -55 -11 -95 -24 -41 -14 -108 -31 -149 -40 -41 -8 -105 -23 -141 -34
-37 -11 -104 -23 -150 -27 -139 -11 -171 -14 -234 -24 -53 -8 -124 -7 -470 4
-49 1 -99 5 -110 7 -11 3 -60 11 -110 18 -49 6 -103 15 -120 20 -16 5 -47 11
-67 14 -46 7 -266 61 -328 80 -25 8 -65 20 -89 26 -47 12 -152 58 -161 69 -3
4 -21 13 -40 21 -41 16 -110 61 -130 85 -17 21 -24 61 -11 69 4 3 53 -17 107
-44 55 -28 104 -50 111 -50 6 0 19 -7 27 -16 9 -9 22 -17 29 -18 6 -2 19 -6
27 -9 25 -12 161 -57 243 -82 42 -13 82 -27 88 -31 7 -4 39 -10 73 -14 33 -5
72 -10 86 -13 27 -6 106 -17 155 -23 17 -1 80 -9 140 -16 176 -21 451 -16 657
12 189 25 334 52 373 70 18 7 48 14 120 27 17 3 61 23 218 99 16 8 35 14 43
14 21 0 146 52 173 72 13 10 30 18 38 18 8 0 27 8 41 19 15 10 38 22 51 26 14
4 42 20 64 36 22 16 45 29 52 29 13 0 37 40 34 56 -4 20 2 24 20 14 11 -5 22
-18 25 -27z"/>
</g>
</svg>
