<?xml version="1.0" standalone="no"?>
<!DOCTYPE svg PUBLIC "-//W3C//DTD SVG 20010904//EN"
 "http://www.w3.org/TR/2001/REC-SVG-20010904/DTD/svg10.dtd">
<svg version="1.0" xmlns="http://www.w3.org/2000/svg"
 width="471.000000pt" height="377.000000pt" viewBox="0 0 471.000000 377.000000"
 preserveAspectRatio="xMidYMid meet">
<metadata>
Created by potrace 1.16, written by Peter Selinger 2001-2019
</metadata>
<g transform="translate(0.000000,377.000000) scale(0.100000,-0.100000)"
fill="#000000" stroke="none">
<path d="M1770 3433 c-30 -8 -65 -25 -78 -39 -14 -13 -28 -24 -32 -24 -4 0
-38 -30 -76 -67 -67 -65 -117 -139 -143 -213 -7 -19 -29 -78 -48 -130 -43
-119 -61 -185 -67 -247 -3 -26 -12 -74 -20 -105 -18 -65 -25 -132 -31 -273 -3
-84 -9 -112 -35 -175 -18 -41 -38 -90 -44 -108 -7 -18 -18 -38 -24 -44 -7 -7
-12 -16 -12 -21 0 -9 -57 -95 -77 -115 -7 -8 -27 -34 -45 -59 -17 -25 -38 -54
-47 -63 -9 -10 -36 -45 -60 -79 -24 -34 -52 -66 -62 -71 -10 -6 -26 -24 -36
-40 -9 -17 -23 -30 -29 -30 -20 0 -54 -54 -44 -70 9 -14 6 -221 -4 -285 -3
-22 -8 -60 -10 -83 -3 -24 -12 -52 -21 -63 -10 -10 -17 -29 -17 -41 0 -28 21
-83 28 -75 3 3 14 -2 23 -11 10 -10 33 -28 51 -42 18 -14 40 -33 49 -42 8 -10
21 -18 28 -18 7 0 13 -4 13 -10 0 -5 4 -10 10 -10 5 0 40 -20 77 -43 38 -24
106 -56 153 -72 47 -15 90 -31 95 -36 6 -4 54 -17 107 -27 53 -11 101 -22 105
-25 18 -11 170 -19 343 -18 176 0 255 10 325 40 11 4 54 19 95 32 41 13 79 27
85 31 5 4 19 8 32 8 16 0 23 6 23 20 0 11 5 20 10 20 6 0 10 16 10 35 0 28 -5
37 -24 45 -27 10 -66 6 -75 -8 -7 -9 -109 -51 -197 -80 -69 -23 -187 -34 -334
-32 -189 2 -302 13 -325 30 -5 4 -28 11 -49 15 -102 18 -334 107 -351 135 -3
5 -21 17 -39 25 -19 9 -46 29 -61 45 -14 16 -38 41 -52 56 l-26 28 12 95 c6
53 12 159 12 237 l1 141 35 12 c19 7 32 15 29 18 -3 3 8 16 24 30 16 13 39 41
51 61 13 20 40 58 61 83 21 26 38 51 38 55 0 5 10 20 23 34 76 84 151 213 201
345 29 75 47 180 46 254 -1 31 3 81 10 111 6 30 13 66 15 80 3 14 11 54 20 90
30 128 36 155 38 175 2 11 8 31 14 45 28 63 73 193 73 211 0 10 5 19 10 19 6
0 10 6 10 13 0 15 146 167 161 167 5 0 25 11 42 24 28 21 68 30 117 27 9 -1 1
-12 -20 -32 -167 -148 -179 -162 -225 -257 -25 -51 -45 -98 -45 -103 0 -5 -4
-9 -8 -9 -4 0 -16 -37 -25 -82 -10 -46 -24 -101 -32 -123 -8 -22 -19 -59 -25
-82 -6 -24 -15 -43 -20 -43 -37 0 -44 -60 -19 -154 6 -22 12 -45 13 -51 7 -44
167 -319 207 -355 100 -92 180 -160 254 -218 6 -4 26 -16 45 -25 19 -10 51
-27 70 -39 19 -11 41 -21 48 -22 8 -2 17 -7 20 -12 10 -13 71 -44 88 -44 8 0
14 -7 14 -15 0 -8 7 -15 15 -15 8 0 32 -9 52 -20 21 -11 44 -20 52 -20 7 0 28
-9 46 -20 31 -19 32 -22 43 -127 6 -60 9 -124 7 -143 -4 -39 -12 -160 -21
-295 -3 -49 -9 -94 -15 -99 -5 -6 -9 -26 -9 -46 0 -39 25 -72 58 -75 9 -1 36
-7 59 -14 25 -7 63 -9 92 -5 40 5 51 3 62 -12 8 -11 21 -23 30 -29 9 -5 34
-22 55 -36 42 -27 73 -40 147 -60 26 -7 47 -16 47 -20 0 -6 61 -15 161 -24 19
-1 69 -6 110 -10 41 -4 103 -8 139 -8 72 1 275 28 312 42 54 20 150 44 164 41
4 -1 10 3 13 8 3 6 26 21 52 34 47 26 126 78 169 113 78 63 158 163 192 237
41 91 49 350 14 463 -8 28 -16 53 -16 57 0 5 -8 23 -18 40 -10 18 -34 62 -53
98 -18 36 -39 71 -46 78 -7 7 -13 18 -13 24 0 5 -13 27 -30 48 -16 21 -30 41
-30 45 0 3 -6 12 -12 20 -7 7 -24 28 -38 46 -14 18 -44 55 -67 83 -24 27 -43
54 -43 59 0 11 -24 66 -55 128 -38 74 -69 250 -60 339 4 41 7 85 6 98 0 12 5
22 12 22 8 0 7 4 -3 10 -12 7 -15 35 -17 127 -1 65 -6 145 -10 178 -4 33 -8
65 -8 70 0 6 -3 15 -7 20 -3 6 -9 27 -13 47 -4 21 -13 42 -21 49 -8 6 -14 19
-14 29 0 10 -7 23 -15 30 -8 7 -15 19 -15 26 0 8 -6 14 -14 14 -8 0 -27 10
-43 23 -15 13 -47 29 -70 35 -43 13 -163 13 -163 1 0 -4 -13 -12 -30 -19 -28
-12 -60 -43 -122 -121 -33 -41 -89 -153 -118 -234 -82 -228 -93 -267 -125
-440 -3 -16 -10 -50 -15 -75 -18 -97 -30 -169 -28 -177 1 -4 -1 -28 -5 -53
-16 -114 -28 -221 -32 -290 -2 -41 -7 -128 -11 -192 l-7 -118 -36 -10 c-42
-11 -79 -18 -134 -24 -20 -2 -43 -8 -50 -14 -7 -6 -27 -12 -46 -14 -30 -3 -35
-7 -38 -33 -6 -40 -15 -48 -45 -36 -18 7 -27 20 -32 45 -4 20 -11 36 -16 36
-5 0 -10 16 -12 36 -4 42 -20 53 -158 105 -19 7 -44 21 -54 31 -11 10 -35 23
-55 29 -20 6 -55 23 -78 36 -34 20 -41 28 -34 41 5 10 9 53 9 97 0 44 6 118
12 165 7 47 12 96 12 110 -1 14 3 50 8 80 9 54 16 148 26 345 3 55 5 109 6
120 2 32 -12 151 -23 187 -5 18 -9 51 -9 73 -1 45 -24 150 -38 168 -4 7 -16
32 -26 57 -9 25 -36 65 -59 91 -33 36 -55 49 -103 62 -71 20 -81 20 -154 0z
m248 -268 c31 -85 42 -150 58 -335 8 -92 8 -113 -1 -220 -12 -166 -14 -186
-26 -275 -6 -49 -11 -101 -10 -115 1 -13 -4 -49 -10 -80 -11 -57 -21 -152 -22
-205 0 -16 -2 -24 -4 -17 -3 6 -10 12 -18 12 -31 0 -37 29 -36 180 0 83 3 156
7 161 4 6 8 55 10 108 2 53 6 107 9 121 10 44 2 474 -10 540 -12 70 -41 149
-60 162 -6 4 4 13 23 20 17 7 32 19 32 26 0 37 28 -4 58 -83z m1586 42 c34
-45 47 -80 64 -172 19 -107 22 -161 20 -350 0 -88 -1 -188 0 -223 2 -58 32
-170 66 -247 8 -16 24 -55 37 -85 24 -58 85 -151 154 -235 22 -27 47 -62 54
-77 8 -16 18 -28 23 -28 4 0 8 -7 8 -15 0 -9 10 -32 23 -53 39 -63 87 -160 87
-177 0 -9 6 -26 14 -38 16 -25 27 -93 28 -182 2 -166 -38 -275 -122 -333 -22
-15 -39 -32 -40 -38 -1 -30 -167 -141 -265 -177 -38 -14 -110 -33 -160 -42
-49 -8 -112 -20 -140 -25 -72 -14 -330 -1 -420 21 -140 35 -258 81 -279 110
-6 8 -19 18 -28 22 -14 5 -17 20 -17 89 0 181 -9 546 -14 554 -3 5 29 9 71 10
43 0 95 7 117 14 22 8 43 14 47 15 4 0 35 18 70 41 35 22 77 46 94 53 17 7 46
26 65 44 19 18 44 37 55 42 26 12 94 71 94 82 0 4 18 19 40 33 22 13 40 27 40
31 0 4 25 34 55 66 30 32 55 64 55 71 0 7 9 22 20 34 11 12 20 31 20 43 0 11
5 26 12 33 13 13 14 17 28 117 5 39 12 86 15 104 4 21 0 41 -9 56 -18 27 -12
155 19 420 20 170 15 302 -15 351 -11 17 -20 39 -20 48 0 9 -7 19 -15 22 -8 4
-15 10 -15 15 0 16 38 -10 64 -44z m-240 -44 c-13 -25 -24 -52 -24 -60 0 -7
-4 -13 -10 -13 -5 0 -10 -6 -10 -14 0 -8 -16 -44 -35 -81 -20 -36 -33 -70 -30
-75 3 -5 1 -11 -4 -14 -8 -5 -17 -37 -27 -91 -2 -11 -11 -51 -19 -90 -8 -38
-17 -90 -19 -115 -3 -25 -13 -72 -22 -105 -9 -33 -20 -91 -24 -130 -22 -189
-41 -336 -51 -395 -6 -36 -12 -81 -14 -100 -2 -19 -6 -57 -9 -83 -2 -27 -6
-50 -8 -51 -1 -1 -16 -10 -32 -20 l-28 -18 7 174 c3 95 10 207 15 248 5 41 12
104 15 140 5 59 19 137 45 260 5 25 12 63 15 85 8 53 51 195 80 270 13 33 26
67 27 75 2 8 9 21 16 28 6 7 12 19 12 27 0 48 106 195 141 195 14 0 13 -6 -7
-47z m116 -8 c0 -8 5 -15 11 -15 6 0 9 -7 5 -15 -3 -8 -2 -15 3 -15 9 0 10 -3
16 -99 3 -41 1 -115 -5 -165 -6 -50 -14 -116 -16 -146 -3 -30 -9 -90 -14 -134
-5 -43 -7 -82 -5 -86 3 -5 1 -11 -5 -15 -12 -8 -10 -55 4 -74 11 -15 14 -171
3 -210 -12 -46 -50 -113 -95 -169 -60 -75 -124 -142 -136 -142 -5 0 -22 -12
-37 -26 -46 -44 -54 -20 -34 104 2 19 7 37 9 40 2 4 7 59 11 122 4 63 11 117
15 120 4 3 10 45 14 94 3 50 18 136 31 193 14 56 25 113 25 125 0 30 48 245
60 267 29 55 70 152 70 165 0 9 4 16 8 16 5 0 17 18 27 40 18 40 35 52 35 25z
m-1617 -71 c14 -37 20 -85 23 -194 6 -214 6 -277 -1 -360 -3 -41 -7 -106 -10
-145 -2 -38 -7 -81 -10 -95 -10 -42 -23 -178 -20 -204 4 -31 -14 -45 -27 -22
-5 9 -18 16 -28 16 -11 0 -20 5 -20 11 0 6 -16 27 -35 47 -19 20 -35 41 -35
45 0 4 -26 52 -58 105 -75 125 -84 159 -72 248 12 81 14 94 23 114 22 53 47
128 47 143 0 26 29 117 46 147 8 14 24 43 34 65 27 55 42 77 63 93 10 8 23 20
30 27 19 22 30 12 50 -41z m725 -1679 c14 0 22 -6 22 -17 0 -12 -8 -18 -22
-18 -13 0 -32 -3 -44 -6 -18 -5 -21 -1 -22 26 -1 28 2 30 21 23 12 -4 32 -7
45 -8z m22 -161 c0 -30 -15 -37 -55 -26 -22 6 -31 15 -33 33 -3 23 -1 24 43
21 40 -4 45 -7 45 -28z m-36 -124 c31 0 33 -2 29 -27 -8 -50 -12 -58 -25 -45
-7 7 -25 12 -40 12 -25 0 -28 3 -28 36 0 29 3 35 16 30 9 -3 30 -6 48 -6z m19
-195 c18 -33 -47 -49 -77 -19 -16 15 -21 45 -11 56 10 10 77 -19 88 -37z"/>
</g>
</svg>
