<?xml version="1.0" standalone="no"?>
<!DOCTYPE svg PUBLIC "-//W3C//DTD SVG 20010904//EN"
 "http://www.w3.org/TR/2001/REC-SVG-20010904/DTD/svg10.dtd">
<svg version="1.0" xmlns="http://www.w3.org/2000/svg"
 width="509.000000pt" height="425.000000pt" viewBox="0 0 509.000000 425.000000"
 preserveAspectRatio="xMidYMid meet">
<metadata>
Created by potrace 1.16, written by Peter Selinger 2001-2019
</metadata>
<g transform="translate(0.000000,425.000000) scale(0.100000,-0.100000)"
fill="#000000" stroke="none">
<path d="M988 3779 c-7 -3 -44 -10 -83 -13 -38 -4 -88 -12 -110 -18 -22 -6
-46 -11 -54 -12 -18 -3 -41 -35 -41 -58 0 -10 -4 -18 -10 -18 -5 0 -7 -15 -4
-32 3 -18 7 -58 10 -88 2 -30 8 -80 13 -110 5 -30 10 -79 10 -107 1 -29 5 -53
9 -53 9 0 31 -77 36 -125 2 -28 -11 -73 -24 -85 -4 -3 -12 -32 -20 -65 -7 -33
-16 -64 -19 -70 -3 -5 -6 -15 -7 -20 -1 -6 -11 -44 -22 -85 -11 -41 -23 -93
-26 -115 -4 -22 -11 -56 -16 -75 -14 -55 -21 -92 -26 -134 -2 -21 -11 -52 -18
-70 -8 -17 -17 -49 -20 -71 -9 -62 -15 -89 -30 -132 -8 -22 -17 -71 -21 -109
-4 -38 -9 -78 -12 -89 -2 -11 -8 -47 -13 -80 -4 -33 -13 -87 -19 -120 -13 -75
-18 -206 -8 -222 4 -6 3 -14 -2 -18 -6 -3 -8 -11 -6 -18 2 -7 6 -37 10 -67 29
-279 48 -389 88 -510 14 -41 29 -93 33 -115 14 -80 56 -155 148 -260 14 -16
26 -33 26 -37 0 -5 7 -8 15 -8 7 0 18 -6 22 -13 13 -20 104 -83 148 -102 86
-36 137 -44 271 -40 91 2 153 10 205 24 41 11 93 25 117 31 23 6 42 15 42 20
0 5 10 12 23 16 57 18 233 230 295 354 20 41 72 203 67 208 -3 3 1 15 9 26 7
12 17 36 21 55 4 18 15 52 25 75 19 41 23 57 40 164 5 29 11 56 14 61 3 4 8
28 11 51 3 24 8 46 10 49 3 2 18 -8 33 -22 16 -15 39 -27 53 -26 13 0 41 -4
62 -9 38 -10 75 -5 115 17 31 17 78 89 95 147 8 28 20 60 25 70 19 35 35 138
33 214 -2 110 -20 267 -36 314 -8 23 -16 52 -19 66 -2 14 -15 50 -29 80 -32
73 -40 94 -41 102 -1 3 -4 10 -9 14 -4 4 -7 14 -7 21 0 8 -18 51 -40 95 -22
45 -40 86 -40 92 0 13 -88 165 -107 184 -26 27 -71 98 -83 134 -13 37 -9 74
20 183 9 32 25 155 22 167 -1 4 -5 42 -8 85 -16 195 -13 183 -47 204 -31 19
-42 19 -117 4 -52 -9 -241 -11 -247 -2 -3 4 -30 8 -61 7 -82 -1 -88 0 -165 16
-39 8 -72 13 -74 10 -2 -2 -41 8 -86 21 -45 14 -107 29 -137 35 -71 12 -195
16 -212 7z m-32 -176 c4 -32 13 -72 20 -90 8 -18 14 -52 14 -75 0 -24 5 -59
10 -78 6 -19 13 -62 15 -95 4 -60 4 -61 -27 -73 -35 -13 -48 -9 -48 17 0 10
-7 32 -15 48 -11 23 -17 79 -20 217 l-6 186 25 0 c22 0 25 -5 32 -57z m155 45
c1 -7 1 -17 0 -22 -1 -5 1 -16 4 -25 4 -9 8 -98 10 -198 l4 -183 -25 0 c-16 0
-24 6 -25 18 0 9 -2 37 -3 62 -1 25 -5 56 -9 70 -3 14 -9 51 -12 84 -3 32 -9
66 -14 75 -5 9 -11 42 -14 74 l-6 57 45 0 c28 0 44 -5 45 -12z m-280 -20 c1
-7 2 -63 4 -124 1 -61 5 -116 9 -122 4 -7 3 -12 -3 -12 -17 0 -39 150 -33 228
3 38 20 60 23 30z m403 -31 c3 -18 5 -69 5 -114 0 -46 5 -100 10 -120 6 -21
10 -57 9 -79 -2 -36 -5 -41 -25 -41 -23 0 -25 5 -38 92 -4 32 -9 271 -6 297 1
3 10 4 20 1 12 -3 21 -17 25 -36z m163 -1 c3 -3 1 -29 -4 -57 -6 -29 -9 -84
-6 -123 11 -179 11 -181 -17 -178 -14 2 -27 5 -29 7 -1 2 -10 37 -19 77 -16
70 -22 201 -14 262 4 27 7 28 44 23 22 -3 42 -8 45 -11z m123 -21 c8 -9 13
-69 15 -180 l3 -165 -26 6 c-37 9 -39 12 -46 64 -3 25 -8 63 -12 84 -4 22 -1
77 6 123 10 68 15 83 30 83 10 0 23 -7 30 -15z m170 -19 c0 -6 4 -4 10 4 5 8
12 11 16 8 8 -9 7 -220 -2 -305 l-6 -62 -32 5 c-17 3 -36 7 -43 9 -19 6 -42
132 -35 194 3 31 6 80 7 108 l0 53 43 -2 c23 -1 42 -6 42 -12z m195 -134 c-5
-140 -12 -229 -20 -242 -2 -4 -21 -7 -42 -6 l-38 1 2 160 c2 88 5 174 8 191 5
30 8 32 50 32 l45 1 -5 -137z m126 121 c25 -145 2 -325 -50 -387 -14 -16 -36
-12 -25 5 6 10 13 110 18 254 5 141 3 135 31 135 14 0 26 -3 26 -7z m-479
-428 c54 -7 101 -16 107 -19 5 -3 26 -8 47 -11 22 -3 45 -8 53 -11 8 -2 30 -7
50 -10 152 -23 222 -76 301 -231 19 -37 44 -78 56 -92 18 -23 61 -107 96 -191
6 -14 14 -32 18 -40 4 -9 11 -31 15 -50 4 -19 16 -53 27 -75 47 -98 81 -228
88 -345 4 -63 6 -135 4 -159 -3 -52 -53 -221 -66 -221 -4 0 -8 -4 -8 -10 0 -5
-9 -19 -21 -31 -18 -18 -25 -19 -47 -10 -25 11 -109 113 -123 150 -4 9 -3 56
1 105 10 99 4 116 -43 134 -55 21 -88 -15 -86 -95 1 -26 1 -79 0 -118 0 -38 0
-77 0 -85 0 -8 -2 -22 -4 -30 -2 -8 -7 -37 -11 -65 -24 -160 -109 -482 -157
-590 -4 -11 -18 -45 -30 -75 -11 -30 -26 -62 -34 -70 -7 -8 -16 -26 -20 -39
-9 -30 -163 -184 -206 -207 -18 -9 -39 -23 -47 -30 -12 -13 -27 -18 -35 -11
-2 1 -10 -3 -18 -10 -26 -22 -102 -34 -232 -38 -107 -4 -135 -2 -177 14 -27
10 -56 25 -63 32 -8 8 -27 23 -43 34 -15 11 -63 55 -105 99 -78 80 -117 150
-149 266 -7 25 -16 55 -20 66 -22 56 -49 199 -70 374 -9 74 -7 339 3 425 15
126 20 154 30 185 6 19 11 53 12 75 1 41 33 181 65 290 10 33 23 89 29 125 7
36 13 72 15 80 1 8 6 38 11 65 4 28 11 58 16 67 5 9 11 34 14 55 7 42 42 169
54 193 5 8 28 22 52 31 114 42 209 70 218 64 6 -3 11 -1 11 4 0 6 3 10 8 10 4
-1 9 0 12 1 6 3 259 37 285 38 11 1 64 -5 117 -13z"/>
<path d="M3805 3665 c-27 -8 -70 -16 -95 -19 -25 -2 -74 -9 -110 -15 -83 -13
-176 -22 -268 -25 -39 -2 -75 -5 -78 -9 -3 -3 -17 -2 -29 3 -13 5 -55 7 -94 5
-39 -2 -73 0 -76 4 -3 5 -24 12 -47 16 -23 4 -50 12 -60 18 -13 9 -21 8 -30
-1 -6 -6 -20 -12 -30 -12 -10 0 -18 -1 -19 -2 0 -2 -3 -51 -6 -111 -4 -93 -2
-114 15 -160 12 -28 30 -84 42 -124 11 -40 25 -75 30 -78 6 -3 10 -17 10 -30
0 -13 4 -26 9 -30 14 -8 4 -61 -22 -118 -14 -29 -28 -68 -32 -87 -4 -19 -10
-39 -13 -45 -6 -10 -10 -22 -16 -60 -7 -42 -18 -81 -31 -115 -16 -39 -93 -400
-107 -500 -5 -36 -13 -79 -19 -96 -13 -44 -22 -136 -21 -231 0 -46 -3 -85 -8
-88 -4 -2 2 -33 14 -67 28 -79 85 -142 141 -157 49 -13 189 -14 213 -2 9 5 34
17 55 27 21 11 45 30 52 44 12 22 14 22 13 5 0 -11 3 -47 7 -80 3 -33 7 -76 7
-95 0 -19 4 -55 9 -80 6 -25 12 -67 15 -95 3 -27 9 -63 14 -80 4 -16 11 -48
15 -70 4 -22 12 -47 20 -55 7 -8 15 -28 19 -45 8 -32 55 -137 66 -145 4 -3 11
-12 16 -21 25 -46 152 -183 210 -227 52 -39 128 -88 164 -105 169 -79 394
-120 520 -93 48 10 133 46 170 71 67 47 250 239 250 263 0 5 7 15 15 22 8 7
15 21 15 31 0 11 5 19 10 19 6 0 10 5 10 10 0 6 9 30 20 52 11 23 20 49 20 58
0 9 4 20 9 26 6 5 22 54 36 109 20 73 27 124 26 190 0 150 -12 297 -28 355
-25 89 -53 221 -58 275 -9 91 -26 169 -44 210 -10 22 -35 90 -56 150 -21 61
-48 133 -61 162 -13 28 -24 55 -24 58 0 8 -22 61 -55 130 -12 28 -39 86 -59
130 -20 44 -41 87 -47 95 -5 8 -30 56 -55 105 -25 50 -52 101 -60 115 -12 20
-14 43 -8 110 8 94 9 162 4 261 -1 36 1 75 4 87 5 14 1 27 -13 41 -12 12 -21
26 -21 32 0 5 -4 8 -8 5 -5 -3 -18 3 -28 12 -20 18 -73 41 -119 52 -5 1 -19 7
-29 12 -31 17 -224 19 -281 3z m238 -134 c4 -1 16 -1 26 -1 17 0 19 -7 15 -67
-1 -38 -6 -88 -9 -113 -4 -25 -7 -96 -8 -159 l-2 -115 -27 -7 c-20 -5 -25 -4
-22 6 3 7 1 16 -5 20 -6 3 -11 27 -11 53 0 26 -5 65 -10 87 -16 72 -16 266 1
298 7 13 14 15 27 8 9 -5 20 -9 25 -10z m-128 -148 c3 -87 7 -193 8 -235 1
-43 5 -78 9 -78 5 0 8 -7 8 -15 0 -8 -9 -15 -19 -15 -11 0 -26 -3 -35 -6 -12
-5 -16 0 -16 19 0 13 -6 30 -14 36 -8 7 -18 31 -22 54 -4 23 -8 44 -9 47 -3
11 -19 247 -19 285 -1 39 0 40 44 52 25 6 48 12 52 12 3 1 9 -70 13 -156z
m-189 105 c4 -13 9 -39 10 -58 3 -47 13 -172 19 -245 6 -62 22 -119 40 -145 8
-13 7 -13 -6 -3 -9 7 -18 11 -20 9 -2 -2 -21 -6 -43 -9 l-38 -6 4 39 c2 22 1
40 -3 40 -3 0 -9 21 -13 46 -3 25 -12 75 -20 112 -26 117 -39 210 -33 226 5
11 19 16 51 16 37 0 46 -4 52 -22z m-712 6 c9 -3 16 -14 16 -24 0 -11 4 -21 9
-24 11 -7 33 -162 27 -191 -2 -11 6 -37 17 -58 14 -25 18 -40 11 -47 -7 -7
-22 20 -46 87 -20 54 -39 111 -43 127 -3 16 -14 46 -23 65 -27 57 -14 83 32
65z m527 -1 c5 -59 12 -104 20 -128 6 -16 13 -43 15 -60 3 -16 14 -77 24 -135
11 -58 22 -116 24 -130 4 -25 4 -25 -55 -22 -50 3 -59 7 -59 22 0 10 -4 22
-10 25 -5 3 -10 14 -10 23 0 9 -6 29 -14 44 -20 37 -26 85 -31 226 -3 119 -3
124 18 132 27 11 77 13 78 3z m-171 -47 c1 -101 15 -223 35 -308 l22 -98 -41
0 -41 0 -23 118 c-23 118 -36 241 -33 299 1 16 8 23 29 25 42 5 52 -1 52 -36z
m809 -3 c7 -18 9 -72 6 -153 -3 -69 -6 -133 -6 -142 0 -19 -26 -44 -35 -35 -6
6 -5 188 1 242 2 17 4 49 4 73 1 48 13 54 30 15z m-961 -25 c3 -55 19 -186 27
-218 13 -46 17 -120 7 -120 -36 0 -72 15 -72 29 0 9 -11 47 -25 84 -13 37 -24
80 -23 95 0 15 -2 57 -5 94 -7 73 -6 74 59 77 29 1 31 -1 32 -41z m-83 -434
c111 -33 202 -56 245 -60 25 -2 61 -6 80 -9 75 -11 258 -16 318 -7 43 6 62 5
62 -2 0 -7 3 -7 8 1 4 6 27 13 52 16 25 3 82 14 127 26 45 12 94 22 110 23 15
1 31 7 35 13 5 6 8 4 8 -6 0 -8 8 -24 18 -35 15 -16 34 -45 110 -169 7 -11 18
-31 24 -45 7 -14 20 -37 31 -52 10 -16 16 -28 12 -28 -3 0 12 -35 33 -77 22
-43 45 -98 53 -123 7 -25 21 -61 31 -80 10 -19 18 -42 18 -52 0 -9 4 -19 9
-22 4 -3 25 -54 45 -113 21 -59 41 -117 46 -128 11 -26 20 -56 25 -91 2 -16 9
-47 14 -69 6 -22 13 -67 16 -100 4 -33 10 -64 14 -70 5 -5 11 -30 14 -55 3
-25 13 -88 21 -140 24 -148 12 -373 -26 -500 -16 -52 -61 -164 -69 -170 -3 -3
-9 -15 -13 -27 -4 -12 -20 -36 -37 -54 -16 -17 -29 -33 -29 -35 0 -4 -118
-123 -146 -147 -12 -10 -32 -20 -44 -22 -13 -3 -26 -8 -29 -13 -18 -27 -320
-18 -337 9 -3 5 -14 9 -25 9 -10 0 -19 5 -19 10 0 6 -3 9 -7 8 -13 -3 -84 23
-132 49 -24 12 -52 23 -61 23 -23 0 -90 50 -148 109 -92 94 -132 139 -132 149
0 5 -9 19 -20 32 -11 13 -20 30 -20 40 0 9 -4 20 -9 26 -20 22 -72 203 -78
273 -3 42 -9 81 -13 86 -13 17 -18 295 -9 507 4 100 -6 117 -72 118 -34 0 -37
-2 -45 -37 -4 -21 -8 -45 -8 -53 -1 -8 -14 -53 -30 -100 -25 -71 -38 -92 -77
-128 -41 -37 -54 -44 -99 -47 -77 -5 -136 26 -156 81 -21 60 -5 263 36 444 5
25 17 79 24 120 8 41 19 97 25 125 5 27 7 53 5 57 -2 3 0 9 6 13 5 3 10 16 10
28 0 12 7 35 15 51 9 16 13 31 11 34 -3 2 1 19 8 37 8 18 17 52 21 76 4 24 10
48 13 54 3 5 7 16 8 25 3 30 26 106 45 147 10 24 19 47 19 53 0 13 6 13 65 -6z"/>
</g>
</svg>
