<?xml version="1.0" standalone="no"?>
<!DOCTYPE svg PUBLIC "-//W3C//DTD SVG 20010904//EN"
 "http://www.w3.org/TR/2001/REC-SVG-20010904/DTD/svg10.dtd">
<svg version="1.0" xmlns="http://www.w3.org/2000/svg"
 width="523.000000pt" height="425.000000pt" viewBox="0 0 523.000000 425.000000"
 preserveAspectRatio="xMidYMid meet">
<metadata>
Created by potrace 1.16, written by Peter Selinger 2001-2019
</metadata>
<g transform="translate(0.000000,425.000000) scale(0.100000,-0.100000)"
fill="#000000" stroke="none">
<path d="M3565 4090 c-45 -9 -128 -52 -163 -84 -41 -37 -117 -158 -144 -231
-51 -135 -60 -184 -59 -304 2 -156 13 -199 85 -328 l24 -42 -21 -28 c-34 -48
-98 -91 -237 -158 -75 -37 -237 -77 -365 -90 -33 -4 -69 -9 -80 -12 -33 -10
-333 -4 -383 8 -26 6 -65 13 -87 16 -57 8 -232 95 -287 144 -43 37 -46 43 -41
77 3 20 10 41 14 47 12 12 11 119 0 203 -6 37 -12 105 -15 152 -3 47 -8 101
-12 120 -9 49 -85 208 -118 247 -33 39 -123 100 -162 108 -16 4 -48 13 -72 21
-99 32 -311 -3 -414 -70 -71 -46 -178 -153 -178 -177 0 -5 -10 -19 -22 -33
-13 -13 -32 -41 -43 -63 -11 -21 -32 -57 -46 -80 -24 -39 -27 -54 -33 -190 -6
-126 -3 -179 19 -358 14 -115 28 -232 31 -259 3 -27 10 -60 15 -73 4 -12 7
-76 5 -140 -2 -100 -7 -131 -33 -204 -31 -90 -99 -192 -189 -284 -24 -25 -44
-49 -44 -52 0 -3 -17 -29 -38 -57 -47 -64 -112 -171 -112 -184 0 -6 -5 -23
-11 -39 -23 -56 -11 -93 30 -93 27 0 39 19 55 87 17 73 90 190 179 282 66 71
167 215 167 241 0 9 5 21 11 27 16 16 51 150 58 228 7 71 0 180 -18 290 -42
248 -64 498 -56 617 6 85 33 173 64 210 6 7 35 47 64 88 29 41 78 95 109 120
116 94 309 129 458 85 56 -16 74 -28 130 -84 56 -57 70 -78 98 -153 27 -72 33
-104 37 -190 2 -57 8 -127 14 -155 14 -69 7 -164 -13 -195 -9 -14 -14 -33 -10
-42 3 -9 2 -16 -4 -16 -6 0 -16 -16 -22 -35 -8 -25 -32 -52 -75 -86 -34 -28
-68 -62 -74 -76 -6 -14 -33 -51 -60 -82 -42 -49 -121 -193 -121 -219 0 -5 -7
-23 -15 -38 -8 -16 -15 -42 -15 -59 0 -16 -5 -46 -10 -67 -32 -114 -10 -307
66 -563 12 -44 28 -118 34 -165 6 -46 15 -89 18 -95 4 -5 7 -158 8 -340 l0
-330 27 -74 c57 -158 139 -242 382 -393 23 -14 85 -43 136 -63 52 -20 103 -40
114 -46 101 -47 328 -103 460 -114 33 -3 85 -7 115 -10 116 -11 495 -5 565 9
117 23 330 110 417 170 32 22 163 141 216 196 64 66 187 259 226 353 47 113
92 277 102 367 4 41 8 145 8 230 1 127 -2 160 -16 185 -9 17 -31 59 -48 95
-17 36 -44 90 -61 120 -113 200 -143 287 -155 443 -9 121 -40 275 -70 344 -8
17 -14 36 -14 42 0 6 -4 11 -10 11 -5 0 -10 5 -10 11 0 23 -179 229 -199 229
-3 0 -15 14 -26 31 -14 21 -51 45 -125 81 -58 28 -108 57 -113 64 -4 7 -13 19
-20 26 -62 68 -77 115 -84 271 -4 96 -2 116 22 195 38 126 64 179 116 242 64
77 122 105 219 104 87 0 99 -3 160 -31 56 -27 77 -46 118 -106 38 -55 55 -114
72 -247 30 -244 62 -331 156 -425 26 -26 61 -42 159 -74 136 -44 193 -77 249
-142 61 -71 72 -115 58 -228 -24 -192 -8 -321 40 -321 36 0 51 26 43 73 -10
57 -11 183 -2 294 8 87 7 94 -21 155 -55 121 -152 193 -362 264 -154 53 -216
148 -240 369 -8 71 -16 125 -35 219 -6 29 -32 86 -44 96 -3 3 -15 21 -25 40
-61 111 -243 181 -391 150z m-112 -1067 c15 -7 27 -18 27 -24 0 -16 -179 -187
-240 -228 -77 -53 -264 -142 -330 -157 -30 -7 -93 -22 -140 -34 -103 -25 -317
-35 -410 -20 -36 6 -95 15 -131 20 -37 5 -75 13 -85 18 -11 6 -50 22 -89 38
-38 15 -74 31 -80 35 -5 4 -26 16 -45 27 -114 64 -250 161 -250 177 0 14 52
65 66 65 6 0 28 -13 50 -29 68 -49 237 -130 319 -153 71 -19 106 -22 315 -22
129 -1 251 2 270 6 19 3 67 11 105 17 191 29 356 102 488 216 94 80 96 81 160
48z m182 -135 c190 -206 199 -226 235 -533 21 -173 72 -330 145 -440 41 -63
102 -194 122 -260 25 -86 16 -376 -16 -495 -66 -250 -166 -421 -349 -599 -107
-104 -162 -142 -276 -195 -182 -84 -223 -96 -364 -103 -412 -20 -660 11 -965
118 -202 72 -262 98 -302 131 -16 13 -58 42 -93 63 -34 21 -93 70 -130 109
-54 57 -71 83 -85 131 -25 82 -37 191 -35 309 6 349 1 442 -33 606 -27 128
-23 112 -58 244 -53 204 -58 262 -32 400 24 129 56 219 96 272 14 18 25 36 25
39 0 17 77 115 90 115 16 0 89 -50 130 -88 14 -12 35 -25 47 -28 13 -4 23 -10
23 -15 0 -5 5 -9 11 -9 6 0 31 -14 55 -31 82 -56 253 -126 329 -134 22 -2 64
-9 94 -15 29 -5 73 -10 97 -10 23 0 53 -4 66 -8 26 -10 287 18 358 38 137 37
195 58 285 102 112 54 164 82 182 97 6 6 38 32 70 57 65 52 163 151 163 165 0
5 7 9 15 9 8 0 15 7 15 15 0 24 28 5 85 -57z"/>
</g>
</svg>
