<?xml version="1.0" standalone="no"?>
<!DOCTYPE svg PUBLIC "-//W3C//DTD SVG 20010904//EN"
 "http://www.w3.org/TR/2001/REC-SVG-20010904/DTD/svg10.dtd">
<svg version="1.0" xmlns="http://www.w3.org/2000/svg"
 width="539.000000pt" height="427.000000pt" viewBox="0 0 539.000000 427.000000"
 preserveAspectRatio="xMidYMid meet">
<metadata>
Created by potrace 1.16, written by Peter Selinger 2001-2019
</metadata>
<g transform="translate(0.000000,427.000000) scale(0.100000,-0.100000)"
fill="#000000" stroke="none">
<path d="M1102 4093 c-44 -15 -72 -46 -72 -79 0 -28 17 -30 75 -9 51 18 111
18 205 0 107 -20 113 -22 146 -62 42 -52 96 -103 109 -103 6 0 32 -14 58 -31
38 -25 61 -32 134 -39 48 -5 104 -14 123 -19 44 -14 115 -14 160 -1 95 28 242
0 335 -66 33 -23 77 -57 98 -77 34 -31 38 -39 32 -65 -5 -23 -1 -36 14 -51 41
-41 70 -207 51 -295 -16 -80 -52 -129 -110 -149 -62 -22 -74 -21 -143 7 -56
23 -97 51 -97 68 0 4 -8 16 -17 26 -10 10 -25 29 -33 41 -26 40 -58 82 -74
100 -9 9 -27 28 -41 43 -14 15 -25 31 -25 36 0 5 -11 15 -25 22 -14 8 -36 28
-50 45 -25 34 -94 71 -240 130 -65 26 -234 18 -293 -15 -9 -5 -61 -23 -114
-41 -97 -31 -99 -31 -199 -20 -89 10 -105 14 -126 37 -43 46 -123 66 -248 62
-98 -3 -116 -6 -167 -32 -32 -16 -58 -35 -58 -43 0 -7 -3 -13 -7 -13 -5 0 -16
-11 -26 -25 -14 -20 -15 -28 -5 -49 6 -14 15 -26 19 -26 10 0 39 29 39 40 0
10 51 35 95 46 17 4 73 8 126 8 76 0 105 -3 137 -19 23 -11 42 -25 42 -30 0
-12 46 -30 105 -40 22 -4 54 -9 70 -12 76 -13 128 -9 190 17 11 5 75 25 143
45 99 30 131 36 165 30 23 -4 53 -8 67 -9 26 -3 68 -19 110 -42 14 -8 42 -22
63 -32 20 -9 37 -20 37 -24 0 -5 9 -17 21 -29 11 -11 19 -21 17 -22 -1 -1 -17
-12 -35 -24 -50 -36 -102 -63 -119 -63 -8 0 -31 -12 -51 -27 -20 -15 -41 -28
-47 -29 -6 0 -19 -2 -29 -2 -11 -1 -17 -9 -16 -19 3 -22 -63 -93 -111 -119
-19 -10 -46 -31 -60 -45 -14 -14 -43 -39 -65 -55 -22 -15 -56 -44 -75 -64 -39
-39 -124 -100 -140 -100 -5 0 -10 -4 -10 -10 0 -5 -6 -10 -14 -10 -8 0 -16 -3
-18 -7 -4 -9 -78 -66 -78 -60 0 2 -20 -14 -44 -37 -56 -52 -74 -66 -82 -66 -4
0 -17 -10 -28 -22 -25 -25 -100 -91 -103 -90 -2 1 -53 -52 -173 -176 -44 -46
-46 -58 -29 -167 10 -55 19 -127 22 -160 6 -75 33 -205 55 -259 43 -110 129
-236 161 -236 5 0 26 -14 47 -31 22 -17 59 -41 84 -54 25 -12 60 -30 77 -39
24 -13 48 -16 87 -13 l55 5 191 190 c104 105 190 195 190 199 0 5 8 16 18 24
9 9 35 37 57 63 l39 48 18 -72 c20 -83 102 -261 169 -370 25 -41 52 -93 59
-115 7 -22 15 -44 19 -50 3 -5 6 -12 7 -15 0 -3 17 -40 37 -83 20 -42 37 -83
37 -90 0 -7 11 -28 24 -47 21 -32 76 -177 76 -202 0 -6 13 -36 28 -67 16 -31
34 -73 41 -93 7 -21 32 -63 57 -94 24 -32 44 -61 44 -64 0 -4 10 -19 23 -33
34 -39 56 -68 85 -115 56 -91 126 -148 205 -167 15 -4 27 -11 27 -17 0 -5 5
-6 10 -3 6 4 35 -1 65 -9 107 -32 287 -36 420 -12 44 9 136 25 205 36 69 12
143 30 165 41 22 11 76 26 120 34 123 23 135 26 205 45 36 10 81 21 101 24 20
4 69 22 108 41 39 19 76 35 81 35 19 0 110 48 149 79 21 17 43 31 49 31 12 0
142 130 142 142 0 4 7 8 15 8 8 0 14 3 12 8 -1 4 12 30 30 57 55 86 67 161 68
405 0 122 -5 254 -13 305 -23 162 -35 229 -54 305 -20 76 -23 85 -76 200 -16
36 -32 77 -36 92 -3 16 -27 61 -51 102 -25 41 -60 107 -77 147 -47 107 -144
294 -184 353 -19 28 -34 54 -34 59 0 5 -11 23 -24 40 -13 18 -30 49 -37 70 -8
22 -28 56 -46 77 -18 21 -33 41 -33 43 0 6 65 17 118 22 15 1 34 4 42 8 8 3
33 8 55 12 22 4 46 11 52 17 7 6 20 8 28 4 8 -3 15 -1 15 4 0 6 11 10 25 10
30 0 38 6 113 83 62 63 88 104 117 182 10 28 31 77 46 110 22 47 32 91 44 194
14 122 14 167 -1 242 -2 14 -26 46 -52 70 -37 36 -59 48 -102 57 -54 12 -120
7 -120 -8 0 -4 -6 -10 -13 -13 -9 -3 -13 3 -13 16 2 37 -47 53 -119 37 -33 -7
-118 -14 -190 -16 -215 -6 -389 -26 -505 -59 -14 -4 -47 -11 -74 -16 -43 -7
-228 -64 -249 -76 -5 -3 -27 -6 -50 -8 -27 -2 -78 -22 -142 -55 -55 -28 -100
-51 -100 -50 0 1 -13 -3 -28 -9 -16 -6 -35 -11 -42 -11 -8 0 -20 -8 -27 -17
-7 -10 -22 -18 -34 -19 -12 -1 -35 -11 -51 -24 -26 -18 -34 -20 -53 -10 -12 6
-20 14 -17 16 7 7 -84 94 -128 122 -22 14 -42 28 -45 31 -8 10 -81 39 -143 56
-57 15 -168 20 -237 9 -50 -8 -161 -4 -180 6 -9 5 -45 10 -81 11 -54 3 -73 9
-123 41 -33 21 -64 38 -71 38 -6 0 -21 18 -34 40 -12 22 -26 40 -32 40 -5 0
-18 9 -29 20 -47 47 -295 82 -378 53z m3098 -237 c0 -8 -4 -17 -9 -20 -8 -5
-21 -53 -27 -96 -1 -8 -10 -51 -19 -95 -20 -89 -20 -88 -11 -200 12 -154 18
-200 25 -210 4 -5 14 -30 21 -55 7 -25 18 -50 22 -57 9 -12 -9 -30 -19 -19 -3
3 -11 2 -17 -3 -20 -16 -120 -39 -220 -52 l-100 -12 -28 32 c-15 17 -31 31
-34 31 -4 0 -22 11 -40 25 -18 14 -35 25 -37 25 -2 0 -16 -10 -31 -23 -29 -26
-31 -55 -3 -88 9 -10 17 -25 17 -33 0 -8 12 -17 28 -21 29 -7 62 -32 62 -47 0
-9 77 -118 90 -128 4 -3 21 -34 38 -70 35 -70 49 -95 101 -180 19 -30 61 -107
93 -170 33 -63 63 -119 69 -125 5 -5 9 -15 9 -22 0 -19 49 -118 69 -140 10
-10 30 -50 46 -88 15 -39 33 -81 41 -95 32 -61 64 -139 74 -185 7 -27 20 -84
31 -125 10 -41 22 -97 25 -125 10 -95 13 -492 3 -536 -25 -115 -32 -135 -67
-185 -20 -30 -45 -56 -54 -60 -10 -3 -18 -9 -18 -14 0 -15 -70 -78 -119 -107
-25 -15 -52 -33 -59 -40 -7 -7 -17 -13 -22 -13 -5 0 -33 -11 -62 -24 -97 -44
-162 -66 -233 -79 -39 -8 -79 -18 -90 -24 -11 -6 -58 -16 -105 -23 -47 -7
-102 -21 -122 -31 -21 -11 -45 -19 -56 -19 -10 0 -22 -4 -28 -9 -5 -5 -31 -12
-59 -15 -64 -8 -90 -13 -130 -26 -64 -21 -83 -23 -262 -26 -136 -2 -191 0
-220 11 -21 7 -70 23 -110 34 -82 24 -116 52 -183 152 -24 35 -54 75 -66 89
-31 35 -106 149 -125 190 -9 19 -28 58 -42 86 -14 28 -33 80 -42 115 -17 66
-90 243 -110 269 -7 8 -26 52 -44 97 -32 86 -53 127 -101 203 -70 112 -160
311 -160 357 0 12 -12 35 -26 52 l-25 31 27 37 c15 21 37 48 48 60 58 62 63
81 33 116 -21 25 -26 26 -55 16 -18 -6 -32 -15 -32 -19 0 -8 -51 -88 -72 -115
-5 -5 -29 -37 -54 -70 -25 -33 -58 -71 -74 -85 -15 -14 -45 -48 -66 -75 -20
-27 -80 -92 -132 -145 l-95 -95 6 58 c4 43 1 70 -13 105 -10 26 -26 68 -35 94
-10 26 -26 56 -36 67 -10 11 -19 23 -19 26 0 7 -3 10 -70 89 -27 33 -50 62
-50 65 0 3 -32 33 -71 66 -39 33 -83 70 -96 83 -14 13 -31 21 -39 18 -8 -3
-14 -1 -14 3 0 9 -59 35 -72 32 -21 -3 -3 21 37 55 25 20 45 41 45 48 1 9 136
121 156 129 4 1 24 19 45 40 22 20 44 37 50 37 6 0 28 17 48 38 34 34 133 102
149 102 4 0 19 12 33 28 14 15 45 43 69 62 24 19 91 75 147 123 85 72 108 87
126 81 33 -10 124 -63 137 -79 7 -8 18 -15 25 -15 6 0 19 -8 29 -19 32 -35
109 -65 236 -92 30 -6 66 -15 80 -20 36 -12 144 -33 154 -30 4 1 13 -2 20 -8
11 -8 140 -7 181 3 11 2 34 11 50 20 17 9 37 16 45 16 8 0 29 9 45 20 17 11
39 20 51 20 11 0 29 9 39 20 10 11 24 20 31 20 7 0 23 17 35 38 13 20 29 42
35 47 17 14 104 183 104 201 0 9 6 30 14 47 72 166 79 201 67 342 -10 108 -9
121 6 133 9 6 24 12 32 12 9 0 29 7 45 15 16 9 31 13 34 10 3 -3 11 0 18 5 6
6 22 13 35 15 21 4 106 30 139 42 8 3 33 8 55 10 22 2 44 8 50 12 15 11 124
35 131 29 3 -3 33 1 67 9 39 9 131 16 251 18 103 2 191 6 194 9 3 3 29 6 59 6
39 0 53 -4 53 -14z m234 -26 c18 0 40 -40 49 -87 4 -18 2 -80 -3 -138 -8 -93
-15 -119 -56 -213 -47 -107 -107 -212 -122 -212 -4 0 -14 21 -21 48 -8 26 -20
66 -27 88 -8 23 -17 88 -20 145 -3 57 -7 106 -9 109 -2 4 5 44 16 91 11 46 21
93 24 104 5 23 63 89 85 97 8 3 27 -3 42 -13 14 -11 33 -19 42 -19z m-1506
-270 c14 -91 7 -175 -19 -235 -7 -16 -13 -34 -14 -40 0 -5 -12 -35 -27 -65
-14 -30 -29 -70 -33 -87 -3 -18 -11 -35 -16 -38 -4 -3 -16 -21 -25 -40 -27
-57 -89 -119 -140 -142 -153 -67 -238 -78 -377 -47 -67 15 -209 47 -267 61
-31 7 -180 102 -180 114 0 5 -7 9 -15 9 -9 0 -27 11 -41 25 -14 14 -33 25 -42
26 -12 0 -10 4 8 12 14 6 27 14 30 17 3 3 39 23 80 44 41 22 80 45 85 51 6 6
18 17 28 24 18 15 29 5 85 -77 12 -18 36 -48 53 -65 16 -18 37 -44 46 -58 16
-27 92 -81 131 -93 12 -4 22 -12 22 -17 0 -6 3 -8 8 -6 4 3 25 2 47 -2 49 -9
162 22 187 50 9 10 22 19 30 19 37 1 93 139 99 245 2 22 -11 152 -17 175 -19
76 -18 77 28 103 88 52 223 115 230 109 3 -4 11 -36 16 -72z m-2115 -1434 c40
-25 89 -62 108 -84 19 -21 39 -41 45 -43 15 -6 94 -104 94 -117 0 -7 3 -12 8
-12 17 0 54 -73 77 -152 24 -81 24 -88 10 -143 -13 -48 -25 -73 -61 -123 -4
-6 -106 49 -157 86 -80 57 -131 117 -155 182 -31 85 -41 117 -46 143 -2 15 -7
35 -10 45 -2 9 -7 46 -11 82 -3 36 -9 81 -14 100 -9 42 2 80 23 80 9 0 48 -20
89 -44z"/>
</g>
</svg>
