<?xml version="1.0" standalone="no"?>
<!DOCTYPE svg PUBLIC "-//W3C//DTD SVG 20010904//EN"
 "http://www.w3.org/TR/2001/REC-SVG-20010904/DTD/svg10.dtd">
<svg version="1.0" xmlns="http://www.w3.org/2000/svg"
 width="529.000000pt" height="451.000000pt" viewBox="0 0 529.000000 451.000000"
 preserveAspectRatio="xMidYMid meet">
<metadata>
Created by potrace 1.16, written by Peter Selinger 2001-2019
</metadata>
<g transform="translate(0.000000,451.000000) scale(0.100000,-0.100000)"
fill="#000000" stroke="none">
<path d="M2520 4398 c-63 -3 -146 -11 -185 -17 -38 -6 -88 -13 -110 -16 -106
-12 -235 -38 -283 -56 -13 -5 -31 -9 -40 -9 -18 0 -45 -47 -36 -61 3 -5 -7
-11 -21 -15 -28 -7 -62 -59 -45 -69 16 -10 12 -45 -9 -89 -71 -150 -122 -384
-115 -526 6 -105 15 -187 24 -210 5 -14 14 -70 20 -125 21 -191 28 -240 42
-305 26 -118 9 -423 -29 -530 -3 -8 -7 -24 -9 -35 -1 -11 -12 -64 -24 -118
-25 -114 -22 -160 21 -312 15 -55 25 -103 23 -107 -3 -5 -1 -8 4 -8 12 0 30
-120 27 -175 -2 -22 -10 -80 -19 -130 -25 -133 -26 -182 -5 -229 10 -24 15
-52 12 -68 -3 -15 -2 -35 2 -45 5 -10 9 -24 11 -32 1 -8 8 -17 14 -21 15 -9 9
-88 -9 -124 -19 -40 -22 -124 -6 -186 21 -78 1 -121 -87 -192 -21 -16 -47 -30
-58 -31 -11 -1 -20 -6 -20 -12 0 -13 -128 -98 -154 -102 -10 -2 -24 -10 -30
-17 -12 -16 -103 -86 -111 -86 -8 0 -39 -34 -53 -59 -8 -13 -12 -47 -11 -82 2
-53 6 -63 31 -85 16 -13 42 -27 56 -30 15 -3 32 -7 38 -9 16 -5 96 16 114 29
30 22 60 36 77 36 10 0 32 7 48 16 66 35 206 79 311 99 10 2 20 4 22 5 4 4 15
6 67 14 120 18 180 39 235 79 61 45 100 83 100 98 0 5 4 9 8 9 10 0 36 70 29
77 -3 3 -2 16 3 28 15 39 12 164 -5 211 -2 6 1 29 6 50 6 22 11 46 12 54 2 8
11 32 20 54 9 21 17 42 17 46 0 5 6 21 14 37 44 85 54 127 49 208 -3 44 -9 88
-14 97 -5 9 -12 45 -15 80 -4 35 -20 117 -37 183 -42 167 -38 233 20 327 13
21 23 42 23 48 0 5 4 10 9 10 4 0 23 32 41 71 30 66 32 77 27 143 -3 39 -14
98 -24 131 -18 62 -24 147 -15 223 4 37 14 54 68 110 l64 67 2 -35 c4 -84 16
-139 42 -202 27 -63 58 -118 68 -118 4 0 14 -13 22 -28 18 -35 10 -79 -34
-187 -9 -20 -17 -66 -26 -142 -8 -62 19 -151 71 -235 25 -41 48 -85 51 -98 10
-46 3 -175 -13 -235 -11 -44 -14 -84 -9 -150 6 -99 17 -136 61 -210 l30 -50 1
-230 c1 -126 5 -239 10 -250 37 -81 138 -185 182 -189 9 0 19 -3 22 -6 13 -14
144 -52 196 -57 32 -3 64 -9 69 -13 6 -4 33 -13 60 -20 28 -7 66 -21 85 -30
84 -41 99 -47 166 -57 42 -7 107 13 142 42 29 24 68 101 76 147 4 26 -8 59
-37 101 -10 15 -20 35 -21 44 -1 8 -12 21 -23 27 -12 6 -31 23 -43 38 -17 22
-77 60 -100 64 -3 0 -22 8 -44 17 -21 9 -41 17 -43 17 -3 0 -17 9 -33 20 l-28
20 4 166 c3 130 1 173 -11 198 -7 17 -15 49 -16 71 -2 22 -6 48 -11 57 -15 31
-10 189 7 248 9 30 17 62 19 71 1 8 10 32 20 52 24 51 30 154 16 267 -6 52
-12 101 -12 108 -1 6 -5 12 -9 12 -7 0 -30 94 -46 185 -13 69 -7 227 10 320
19 102 22 194 7 257 -35 155 -62 306 -63 363 -1 46 8 107 15 111 5 3 6 9 3 14
-3 5 0 21 7 37 6 15 11 31 10 35 -1 4 3 20 10 35 13 32 32 107 54 213 8 41 22
102 31 135 28 111 36 203 23 269 -7 34 -13 80 -14 103 0 23 -3 43 -6 45 -24
18 -69 44 -85 48 -11 3 -22 15 -23 25 -5 28 -32 55 -53 55 -10 0 -20 4 -23 9
-3 4 -18 11 -34 14 -15 3 -57 19 -92 35 -125 57 -262 91 -470 116 -14 2 -32 6
-40 9 -25 10 -139 13 -260 5z m185 -99 c0 -3 36 -8 105 -14 36 -4 76 -11 90
-16 14 -5 39 -11 57 -14 18 -3 45 -10 60 -17 15 -6 38 -13 51 -14 44 -5 132
-35 178 -59 26 -14 53 -25 61 -25 7 0 16 -7 19 -15 3 -8 27 -24 52 -36 92 -44
119 -79 142 -181 11 -50 10 -69 -10 -170 -12 -62 -25 -120 -28 -128 -3 -8 -4
-19 -3 -24 1 -5 -5 -30 -13 -55 -8 -25 -24 -82 -35 -127 -11 -44 -28 -98 -37
-120 -16 -35 -25 -96 -26 -164 0 -45 24 -212 48 -338 27 -140 30 -221 10 -307
-35 -152 -24 -340 31 -510 48 -149 46 -283 -7 -409 -52 -120 -53 -306 -3 -484
11 -41 13 -85 9 -194 -4 -77 -9 -151 -12 -163 -3 -13 0 -34 6 -47 13 -23 59
-67 72 -68 4 0 44 -17 90 -39 46 -21 91 -41 101 -44 9 -4 17 -11 17 -16 0 -6
-7 -8 -15 -4 -21 7 -44 -24 -45 -59 0 -18 5 -28 15 -28 8 0 15 -5 15 -10 0 -7
6 -7 20 0 15 8 20 21 20 52 0 35 2 39 15 28 8 -7 15 -17 15 -22 0 -8 8 -20 38
-53 18 -20 15 -49 -10 -89 -27 -41 -56 -46 -137 -19 -49 16 -52 18 -46 45 13
56 -43 72 -60 18 -7 -21 -35 -28 -35 -8 0 6 -3 9 -6 5 -3 -3 -27 1 -52 9 -26
8 -58 17 -72 19 -14 3 -34 7 -45 9 -11 3 -22 5 -24 5 -2 1 1 7 6 14 5 6 9 26
9 42 -1 26 -5 30 -33 33 -32 3 -33 2 -33 -32 0 -19 6 -36 13 -39 6 -2 9 -8 4
-12 -4 -5 -13 -3 -19 3 -7 7 -20 12 -30 12 -10 0 -18 4 -18 8 0 5 -19 14 -42
21 -58 18 -105 58 -131 111 -23 50 -24 57 -27 280 -2 148 -17 235 -47 283 -4
6 -8 14 -8 17 -1 3 -10 21 -20 40 -23 41 -31 202 -14 265 29 104 11 289 -35
350 -80 106 -91 194 -44 342 38 119 42 200 13 261 -11 23 -23 42 -26 42 -13 0
-66 115 -77 165 -14 65 -34 350 -33 475 0 38 -16 67 -39 70 -63 9 -73 -18 -74
-188 l-1 -133 -70 -67 c-39 -37 -80 -84 -92 -104 -45 -76 -53 -215 -20 -335 8
-28 12 -54 9 -57 -3 -3 0 -6 6 -6 22 0 15 -127 -10 -176 -12 -24 -25 -44 -30
-44 -4 0 -8 -6 -8 -13 0 -8 -13 -32 -28 -53 -45 -63 -62 -117 -63 -202 0 -86
0 -85 34 -198 14 -45 28 -112 32 -150 3 -38 12 -96 19 -129 18 -86 11 -152
-26 -232 -17 -37 -32 -73 -33 -79 -2 -6 -10 -27 -18 -45 -22 -48 -38 -137 -32
-181 3 -20 1 -40 -5 -43 -15 -9 -12 -42 5 -59 12 -12 14 -27 9 -66 -4 -27 -11
-50 -16 -50 -5 0 -14 -12 -19 -27 -14 -39 -84 -86 -118 -80 -17 4 -34 -2 -53
-18 -19 -16 -46 -26 -85 -30 -32 -3 -79 -12 -104 -20 -25 -8 -65 -17 -90 -21
-24 -4 -48 -10 -54 -14 -5 -5 -29 -14 -52 -20 -33 -10 -45 -10 -57 -1 -21 18
-58 -4 -54 -31 3 -18 -5 -23 -54 -34 -32 -8 -76 -25 -98 -39 -59 -37 -101 -32
-92 11 4 24 13 33 104 99 l46 34 7 -27 c11 -46 49 -51 65 -8 6 15 2 27 -12 42
-19 22 -19 22 15 43 19 11 38 21 42 21 4 0 15 8 24 19 9 10 31 26 49 35 17 9
32 21 32 26 0 5 8 11 18 14 29 10 117 99 131 134 12 28 12 52 2 146 -14 117
-15 105 29 248 5 14 5 43 0 63 -5 21 -6 44 -3 51 3 8 1 20 -5 27 -6 6 -22 43
-37 80 -30 74 -30 81 1 247 9 52 17 102 17 110 0 48 -15 164 -23 178 -16 28
-60 186 -60 214 0 15 -4 38 -10 53 -12 32 18 206 65 369 24 83 29 339 10 460
-8 50 -24 150 -35 221 -52 323 -62 434 -47 545 22 158 68 318 117 404 12 22
24 64 27 93 3 29 10 50 15 47 5 -3 14 -1 21 4 7 6 35 13 62 17 28 4 58 11 67
16 9 5 47 14 85 19 146 23 197 29 323 36 58 3 106 7 107 8 2 2 108 -2 108 -5z"/>
<path d="M2510 4191 c0 -6 -7 -11 -15 -11 -9 0 -15 -9 -15 -24 0 -37 2 -37
115 -36 65 1 85 7 85 29 0 31 -25 43 -87 40 -32 -2 -64 0 -70 4 -8 5 -13 4
-13 -2z"/>
<path d="M2256 4170 c-86 -19 -113 -39 -94 -70 11 -16 14 -16 71 1 33 10 72
15 88 12 37 -7 62 12 53 41 -6 20 -23 37 -34 35 -3 -1 -41 -9 -84 -19z"/>
<path d="M2810 4159 c-8 -4 -23 -10 -32 -13 -21 -6 -25 -62 -6 -68 7 -3 30 -1
51 2 21 4 57 5 81 3 39 -5 45 -3 51 17 11 35 -28 61 -79 54 -21 -3 -42 -1 -45
4 -3 5 -13 6 -21 1z"/>
<path d="M1990 4114 c-57 -15 -80 -34 -76 -62 4 -25 51 -27 98 -3 22 11 46 17
53 15 20 -8 27 12 14 40 -14 30 -15 30 -89 10z"/>
<path d="M3076 4061 c-24 -26 -8 -53 33 -57 18 -2 39 -11 47 -19 22 -22 46
-18 68 11 23 32 13 44 -58 68 -63 20 -69 20 -90 -3z"/>
<path d="M2657 4022 c-28 -32 -21 -82 13 -82 26 0 42 24 34 54 -9 38 -28 49
-47 28z"/>
<path d="M3333 3964 c-31 -14 -3 -73 31 -65 4 1 24 -7 43 -19 43 -25 64 -25
86 0 28 33 8 66 -45 74 -24 3 -56 8 -73 11 -16 2 -36 2 -42 -1z"/>
<path d="M2652 3865 c-17 -37 -15 -51 12 -68 17 -12 26 -13 35 -4 15 15 13 58
-3 80 -18 24 -31 21 -44 -8z"/>
<path d="M2648 3743 c-24 -6 -30 -31 -13 -63 17 -34 46 -34 61 -1 8 17 8 30 0
47 -11 24 -16 26 -48 17z"/>
<path d="M2647 3569 c-33 -19 -15 -79 24 -79 31 0 40 63 11 79 -11 6 -24 6
-35 0z"/>
<path d="M2651 3404 c-14 -32 -7 -60 18 -67 25 -6 37 3 45 35 5 21 1 30 -16
42 -30 21 -33 20 -47 -10z"/>
<path d="M2673 3283 c-23 -15 -28 -37 -17 -67 9 -23 64 -21 66 2 1 19 1 53 -1
63 -2 15 -27 16 -48 2z"/>
<path d="M3052 728 c-23 -23 -13 -52 22 -69 31 -14 34 -14 45 3 16 25 14 42
-7 61 -22 20 -43 22 -60 5z"/>
<path d="M2173 663 c-16 -6 -17 -55 -1 -71 7 -7 22 -12 34 -12 17 0 23 8 29
36 8 47 -17 66 -62 47z"/>
<path d="M3241 646 c-19 -23 -10 -71 14 -71 27 0 51 50 35 71 -16 18 -34 18
-49 0z"/>
<path d="M2114 546 c-22 -24 -25 -53 -9 -70 40 -40 78 -1 55 55 -13 31 -28 36
-46 15z"/>
</g>
</svg>
