<?xml version="1.0" standalone="no"?>
<!DOCTYPE svg PUBLIC "-//W3C//DTD SVG 20010904//EN"
 "http://www.w3.org/TR/2001/REC-SVG-20010904/DTD/svg10.dtd">
<svg version="1.0" xmlns="http://www.w3.org/2000/svg"
 width="501.000000pt" height="473.000000pt" viewBox="0 0 501.000000 473.000000"
 preserveAspectRatio="xMidYMid meet">
<metadata>
Created by potrace 1.16, written by Peter Selinger 2001-2019
</metadata>
<g transform="translate(0.000000,473.000000) scale(0.100000,-0.100000)"
fill="#000000" stroke="none">
<path d="M2907 4533 c-1 -1 -34 -4 -72 -7 -81 -7 -195 -59 -249 -113 -18 -18
-49 -46 -70 -62 -21 -17 -60 -50 -86 -73 -27 -24 -61 -51 -75 -62 -25 -17 -26
-22 -20 -69 4 -28 6 -72 5 -97 -3 -71 -3 -73 3 -120 10 -78 31 -126 82 -191
38 -50 49 -72 50 -101 0 -32 -3 -37 -18 -32 -14 4 -17 0 -16 -23 1 -28 -6 -55
-74 -270 -20 -62 -39 -129 -43 -149 -4 -24 -13 -38 -25 -41 -11 -3 -19 -14
-19 -24 0 -31 -44 -110 -89 -159 -22 -25 -41 -48 -41 -52 0 -5 -5 -8 -11 -8
-18 0 -196 -185 -302 -315 -112 -137 -296 -340 -483 -531 -50 -52 -108 -119
-130 -151 -46 -67 -87 -115 -168 -198 -33 -33 -86 -91 -119 -130 -32 -38 -80
-93 -105 -120 -26 -28 -69 -79 -97 -115 -27 -36 -74 -92 -105 -125 -104 -114
-140 -160 -140 -177 0 -9 -5 -28 -12 -42 -12 -28 4 -310 23 -396 6 -25 13
-115 16 -200 3 -85 6 -166 8 -180 1 -14 3 -38 4 -55 3 -58 50 -83 116 -62 17
5 40 9 52 8 12 0 25 4 28 9 4 6 10 8 15 5 5 -3 69 15 143 40 86 28 159 46 203
49 38 3 107 8 154 12 47 3 130 7 185 8 59 1 110 7 123 15 13 7 37 13 53 13 25
1 35 10 62 57 37 63 91 174 131 271 15 36 46 106 68 155 22 50 52 117 67 150
14 33 34 69 44 80 11 12 17 29 14 44 -3 16 13 63 47 135 29 61 66 143 81 181
16 39 35 79 42 90 7 11 13 28 13 38 0 10 10 32 21 49 25 35 79 163 99 233 8
28 41 97 73 155 33 58 80 148 105 200 25 52 68 131 96 175 28 44 57 89 63 100
19 29 133 263 133 271 0 3 16 28 35 54 19 26 35 53 35 59 0 6 8 12 18 13 90 7
172 48 255 127 27 25 56 50 65 55 9 5 22 14 27 20 6 6 31 30 56 54 l45 42 35
-17 c52 -27 338 -26 427 2 34 11 62 23 62 27 0 4 4 8 9 8 5 0 40 14 78 31 116
54 193 150 228 286 8 31 19 59 23 62 21 15 41 300 23 326 -4 6 -8 23 -9 39 -2
29 -11 51 -72 181 -16 33 -34 74 -40 90 -6 17 -34 64 -62 105 -59 89 -165 171
-308 240 -25 12 -54 23 -65 25 -29 4 -116 25 -145 35 -38 13 -93 20 -215 26
-60 2 -112 8 -115 12 -4 6 -237 11 -243 5z m163 -119 c30 -3 111 -7 180 -8 69
-1 134 -7 145 -13 11 -6 44 -13 74 -17 30 -4 59 -10 65 -13 6 -4 24 -8 40 -10
16 -2 40 -10 53 -18 12 -8 27 -15 34 -15 33 0 130 -61 192 -122 16 -16 32 -28
37 -28 4 0 10 -8 14 -17 3 -10 15 -31 25 -48 29 -44 74 -139 72 -149 -1 -5 2
-12 6 -15 5 -3 24 -42 43 -86 34 -77 35 -84 34 -200 -1 -106 -3 -124 -23 -157
-13 -21 -27 -38 -31 -38 -4 0 -13 -13 -19 -30 -5 -16 -17 -30 -25 -30 -9 0
-19 -1 -23 -2 -4 -2 -6 16 -5 40 7 88 -50 250 -122 345 -51 67 -133 163 -165
191 -13 11 -33 30 -45 41 -31 30 -154 125 -162 125 -4 0 -15 6 -23 14 -35 30
-140 76 -216 95 -101 25 -159 31 -318 35 -70 1 -132 7 -138 13 -7 7 -2 28 17
67 24 52 29 56 53 52 14 -4 31 -3 38 2 12 8 108 6 193 -4z m-400 -64 c0 -5 -6
-27 -14 -47 -8 -21 -17 -54 -20 -73 -3 -19 -8 -46 -11 -60 -14 -59 -14 -224 0
-257 8 -18 11 -33 7 -33 -3 0 -1 -5 6 -12 7 -7 12 -20 12 -29 0 -10 6 -24 13
-31 6 -7 13 -20 13 -28 1 -8 5 -22 8 -31 6 -12 0 -18 -25 -23 -56 -11 -82 -8
-75 9 4 11 -3 19 -22 26 -40 15 -90 68 -98 103 -3 17 -11 34 -17 38 -7 4 -12
56 -13 131 l-3 125 52 50 c82 80 166 152 177 152 6 0 10 -4 10 -10z m503 -194
c38 -9 76 -21 85 -26 9 -5 40 -19 67 -32 28 -13 56 -29 63 -35 7 -7 18 -13 23
-13 16 0 149 -108 204 -165 104 -108 194 -215 179 -215 -3 0 -2 -6 3 -12 26
-33 64 -203 52 -234 -4 -10 -5 -30 -2 -44 4 -23 0 -26 -44 -36 -107 -26 -423
33 -423 79 0 10 -15 29 -65 81 -70 71 -325 184 -478 212 -34 6 -38 9 -33 30 4
16 -1 30 -18 46 -55 52 -95 269 -62 333 9 17 16 35 16 42 0 17 35 19 210 12
90 -4 184 -13 223 -23z m-437 -537 c50 3 52 2 62 -28 6 -17 26 -47 45 -66 63
-65 118 -278 123 -473 1 -67 7 -119 14 -127 9 -11 3 -18 -31 -34 -60 -29 -80
-27 -108 14 -18 26 -22 44 -18 68 5 30 -1 98 -18 221 -16 111 -72 314 -105
377 -7 13 -19 28 -26 32 -8 4 -14 13 -14 18 0 6 6 7 13 2 6 -4 35 -6 63 -4z
m-151 -79 c20 -11 85 -110 71 -110 -2 0 4 -24 15 -52 10 -29 19 -62 19 -74 0
-12 6 -37 14 -55 14 -33 35 -197 28 -217 -1 -5 -27 2 -57 17 -57 27 -62 37
-55 118 2 35 -26 117 -69 196 l-39 75 11 73 c11 75 29 109 35 65 2 -13 14 -29
27 -36z m406 24 c54 -18 56 -20 62 -77 3 -23 15 -48 31 -64 23 -23 31 -42 27
-65 0 -5 4 -8 11 -8 6 0 9 -3 5 -6 -3 -3 1 -26 8 -50 7 -25 13 -82 13 -127 0
-45 3 -90 7 -99 4 -11 -1 -20 -17 -28 -13 -7 -31 -22 -40 -34 -9 -11 -19 -19
-21 -16 -3 3 -8 43 -12 90 -3 47 -17 130 -30 185 -13 55 -31 131 -40 169 -15
66 -40 123 -60 138 -16 12 3 9 56 -8z m253 -130 c48 -46 68 -104 60 -175 -5
-41 -14 -70 -29 -87 l-22 -25 -12 94 c-7 52 -16 103 -21 114 -5 11 -13 36 -18
55 -6 19 -13 43 -17 54 -7 16 -5 17 11 8 10 -6 32 -23 48 -38z m-750 -155 c11
-19 21 -59 24 -100 5 -78 2 -81 -63 -53 -31 13 -36 18 -30 37 4 12 12 50 18
85 6 34 15 62 21 62 7 0 20 -14 30 -31z m926 2 c0 -4 11 -6 25 -3 14 2 32 -1
40 -8 7 -6 72 -17 143 -23 103 -10 140 -10 183 1 30 7 68 15 84 18 17 2 43 6
59 9 29 5 29 5 11 -15 -21 -23 -151 -91 -226 -119 -67 -24 -272 -35 -335 -19
-39 11 -41 13 -29 32 7 12 16 47 20 79 3 31 11 57 16 57 5 0 9 -4 9 -9z
m-1006 -256 c15 -8 34 -15 41 -15 18 0 161 -48 193 -64 15 -8 35 -23 44 -33
17 -18 16 -20 -35 -36 -28 -9 -79 -21 -112 -27 -155 -24 -298 -60 -379 -95
-21 -9 -40 -15 -42 -13 -1 2 22 28 52 58 55 56 152 177 173 218 14 26 26 27
65 7z m310 -247 c-22 -70 -57 -130 -82 -139 -23 -9 -281 -91 -592 -187 -46
-14 -91 -26 -100 -27 -8 -1 -32 -10 -52 -19 -77 -33 -111 -46 -114 -43 -1 1
18 25 44 54 26 28 74 84 107 124 33 40 75 88 93 107 32 33 33 34 39 13 9 -36
47 -37 114 -1 63 33 179 66 341 96 51 9 116 23 143 30 67 17 67 17 59 -8z
m-130 -280 c-16 -55 -106 -203 -116 -192 -7 7 -97 -16 -123 -31 -11 -7 -45
-19 -75 -28 -30 -9 -116 -35 -190 -58 -74 -23 -144 -43 -155 -45 -11 -2 -51
-15 -90 -29 -38 -15 -93 -35 -122 -45 -29 -10 -67 -25 -85 -33 -18 -8 -67 -27
-108 -42 -41 -14 -85 -31 -98 -36 -13 -5 -25 -9 -27 -9 -6 0 65 77 189 206 85
88 101 100 113 88 17 -17 33 -18 33 -3 0 6 6 9 14 6 7 -3 29 5 47 17 19 13 45
26 59 30 14 4 34 11 45 16 35 15 187 67 265 90 41 13 122 38 180 58 120 39
195 59 228 61 20 1 22 -2 16 -21z m-215 -395 c-53 -108 -63 -116 -160 -133
-30 -5 -119 -30 -199 -55 -80 -26 -157 -49 -172 -52 -16 -3 -28 -9 -28 -13 0
-4 -24 -13 -52 -20 -29 -7 -66 -18 -83 -25 -16 -7 -52 -21 -80 -31 -27 -9 -54
-21 -60 -24 -5 -4 -35 -15 -65 -24 -30 -10 -71 -26 -91 -37 -20 -10 -43 -19
-52 -19 -19 0 -106 -34 -182 -71 -33 -16 -64 -29 -68 -29 -4 0 29 42 75 93 67
74 121 139 155 186 1 2 9 -2 18 -9 9 -8 24 -10 42 -4 16 4 32 6 36 5 4 -1 22
9 40 22 18 13 51 30 75 37 23 7 47 19 53 27 6 7 22 13 35 13 12 0 65 18 116
39 51 22 167 63 258 91 91 29 170 56 175 60 6 4 17 7 25 8 32 1 118 22 165 40
28 11 55 20 61 21 6 1 -10 -43 -37 -96z m-119 -233 c0 -6 -8 -27 -19 -48 -10
-20 -28 -68 -41 -105 -13 -39 -29 -71 -39 -74 -9 -3 -34 -14 -56 -23 -22 -10
-67 -23 -100 -29 -110 -21 -447 -123 -620 -187 -50 -19 -94 -34 -99 -34 -4 0
-44 -18 -89 -39 -45 -22 -100 -45 -122 -52 -100 -30 -295 -112 -337 -140 -42
-30 -43 -22 -2 26 71 82 101 120 127 160 44 70 97 113 138 113 22 0 50 10 73
26 22 14 44 26 50 26 6 0 25 7 41 16 17 9 53 25 80 35 28 11 59 23 70 28 11 5
58 25 105 45 47 20 90 36 97 36 6 0 54 17 105 39 116 48 281 103 418 141 58
16 116 33 130 39 33 13 90 14 90 1z m-140 -343 c0 -2 -15 -35 -34 -73 -18 -38
-39 -86 -47 -106 -13 -39 -27 -46 -46 -27 -8 8 -22 5 -51 -10 -35 -18 -262
-81 -342 -95 -14 -2 -47 -13 -75 -24 -27 -11 -52 -20 -55 -20 -6 -1 -44 -15
-134 -51 -39 -16 -98 -39 -131 -51 -78 -28 -102 -39 -345 -158 -113 -55 -216
-102 -230 -104 -14 -2 -24 -9 -23 -16 2 -6 -3 -12 -11 -12 -11 0 -15 18 -18
68 -5 95 -1 110 28 110 14 0 34 8 44 17 24 22 48 36 118 71 28 14 52 29 52 33
0 5 30 21 68 36 37 15 86 36 109 47 23 10 45 18 49 18 11 0 184 69 249 99 81
38 179 74 305 110 58 17 119 36 135 42 49 18 205 59 244 64 20 2 56 11 81 19
49 15 60 18 60 13z m-156 -339 c-3 -13 -14 -39 -24 -58 -9 -19 -20 -48 -24
-63 -8 -35 -23 -42 -276 -128 -85 -28 -186 -68 -225 -87 -38 -19 -99 -45 -135
-57 -139 -48 -166 -59 -203 -86 -21 -15 -55 -33 -75 -39 -58 -18 -102 -40
-177 -88 -38 -25 -76 -45 -82 -45 -7 0 -13 -3 -13 -7 0 -8 -82 -50 -97 -50
-10 0 -20 37 -29 107 -3 25 2 38 26 61 17 17 30 37 30 44 0 16 50 48 74 48 9
0 16 4 16 8 0 5 30 23 68 41 37 18 74 37 82 42 8 5 31 16 50 25 64 29 175 86
200 104 14 9 54 27 90 39 36 12 74 28 85 35 11 7 34 16 50 19 17 3 98 28 180
56 153 50 337 98 388 100 25 1 28 -2 21 -21z m-106 -275 c-38 -86 -116 -232
-123 -232 -6 -1 -47 -18 -90 -40 -44 -21 -93 -41 -110 -45 -16 -4 -52 -18 -80
-31 -27 -13 -84 -38 -125 -56 -41 -17 -98 -45 -128 -60 -29 -16 -58 -29 -66
-29 -7 0 -21 -9 -31 -20 -10 -11 -27 -23 -39 -26 -11 -4 -50 -27 -86 -50 -36
-24 -70 -44 -76 -44 -6 0 -19 -9 -29 -20 -10 -11 -26 -20 -35 -20 -9 0 -20 -4
-25 -9 -6 -6 -39 -15 -75 -21 -113 -18 -104 -21 -111 35 -9 78 -5 117 11 126
8 4 27 14 41 21 41 20 173 100 185 113 11 10 30 21 164 85 36 17 85 44 110 60
25 15 86 42 137 59 51 17 124 46 163 66 38 19 70 32 70 28 0 -5 4 -3 8 2 4 6
45 23 92 38 254 83 254 83 248 70z m-191 -410 c-73 -145 -87 -162 -137 -168
-88 -11 -140 -15 -227 -19 -56 -3 -121 -8 -145 -10 -24 -3 -34 -3 -23 0 11 4
22 9 25 13 8 12 159 90 255 133 90 41 267 106 273 102 2 -1 -7 -24 -21 -51z"/>
</g>
</svg>
