<?xml version="1.0" standalone="no"?>
<!DOCTYPE svg PUBLIC "-//W3C//DTD SVG 20010904//EN"
 "http://www.w3.org/TR/2001/REC-SVG-20010904/DTD/svg10.dtd">
<svg version="1.0" xmlns="http://www.w3.org/2000/svg"
 width="507.000000pt" height="451.000000pt" viewBox="0 0 507.000000 451.000000"
 preserveAspectRatio="xMidYMid meet">
<metadata>
Created by potrace 1.16, written by Peter Selinger 2001-2019
</metadata>
<g transform="translate(0.000000,451.000000) scale(0.100000,-0.100000)"
fill="#000000" stroke="none">
<path d="M2410 4421 c-8 -5 -60 -12 -115 -16 -140 -9 -333 -73 -387 -127 -11
-11 -22 -17 -25 -15 -8 9 -62 -51 -69 -77 -3 -14 -10 -26 -15 -26 -5 0 -9 -5
-9 -10 0 -6 -8 -23 -17 -37 -10 -15 -18 -31 -19 -37 0 -6 -2 -18 -2 -26 -1
-10 -26 -22 -74 -34 -71 -18 -183 -54 -299 -95 -109 -39 -288 -151 -355 -223
-22 -24 -57 -56 -77 -72 -21 -17 -52 -53 -70 -80 -17 -28 -35 -52 -39 -54 -5
-2 -8 -9 -8 -17 0 -7 -29 -56 -65 -110 -36 -53 -65 -98 -65 -100 0 -2 -13 -26
-28 -52 -15 -26 -34 -68 -41 -93 -7 -25 -21 -63 -32 -86 -10 -23 -28 -90 -39
-150 -12 -60 -26 -129 -32 -154 -6 -25 -12 -74 -14 -110 -2 -36 -6 -75 -9 -88
-3 -13 -8 -78 -11 -145 -4 -67 -9 -131 -13 -142 -7 -23 -5 -448 3 -600 12
-222 16 -265 25 -304 5 -22 7 -42 4 -44 -2 -3 0 -22 6 -43 11 -43 22 -106 25
-144 2 -14 10 -41 19 -60 8 -19 19 -50 22 -68 4 -18 13 -36 21 -39 8 -3 14
-11 14 -19 0 -8 5 -14 10 -14 6 0 10 -7 10 -15 0 -14 13 -20 34 -16 5 1 12 -3
16 -9 4 -6 22 -19 41 -28 19 -9 33 -24 32 -32 -1 -8 12 -44 30 -80 52 -105
105 -126 222 -84 22 7 42 13 45 12 3 -1 15 6 27 17 24 20 108 55 134 55 9 0
28 -24 44 -57 23 -46 29 -70 28 -118 -1 -33 -6 -73 -13 -90 -21 -55 -23 -111
-5 -139 10 -14 13 -26 9 -26 -5 -1 7 -9 26 -18 19 -10 56 -31 81 -48 26 -16
66 -36 90 -43 24 -7 67 -22 94 -32 28 -10 64 -20 80 -22 17 -3 68 -13 115 -23
66 -14 132 -18 300 -18 210 -1 217 0 299 27 63 21 96 27 131 23 128 -14 329
-17 390 -6 36 6 80 12 98 13 17 1 32 5 32 10 0 4 10 7 23 7 13 0 27 3 31 7 4
4 19 9 34 10 29 4 190 61 207 74 6 4 27 10 47 14 38 7 101 53 119 88 6 10 13
31 16 45 2 15 11 61 19 102 8 41 14 86 14 100 0 24 3 25 43 22 23 -3 48 -9 55
-15 18 -14 126 -17 168 -4 25 7 38 22 58 61 14 28 28 67 30 86 3 19 7 42 9 50
3 8 8 29 11 45 11 44 24 58 91 94 33 18 66 38 73 44 21 17 61 102 66 139 3 18
8 42 11 53 20 73 44 215 49 300 4 55 13 147 21 205 8 58 16 125 19 150 6 52
22 153 30 190 12 57 16 78 21 135 3 33 10 83 15 110 15 78 24 263 24 455 0
179 -2 190 -51 310 -3 8 -7 20 -8 25 -2 6 -25 57 -52 115 -28 58 -56 123 -63
145 -8 22 -22 48 -32 57 -10 9 -29 41 -42 71 -14 29 -43 71 -66 93 -23 21 -56
62 -75 90 -51 76 -120 138 -189 169 -33 15 -68 31 -76 36 -164 90 -299 130
-359 107 -13 -5 -27 -5 -30 -1 -3 4 -17 8 -31 8 -19 0 -27 7 -35 35 -18 55
-44 110 -72 149 -28 38 -143 151 -155 151 -3 0 -13 6 -20 13 -14 13 -69 35
-107 43 -13 3 -38 11 -55 18 -17 7 -65 16 -106 20 -41 4 -81 12 -87 18 -7 5
-43 11 -80 13 -38 1 -77 5 -88 9 -11 3 -27 2 -35 -3z m-85 -121 c-3 -5 -16
-10 -28 -9 -20 1 -20 2 3 9 14 4 26 8 28 9 2 1 0 -3 -3 -9z m-55 -10 c0 -5 -6
-10 -13 -10 -7 0 -41 -18 -75 -40 -62 -41 -115 -106 -128 -160 -4 -14 -11 -30
-16 -37 -20 -25 -19 -118 2 -208 26 -116 23 -108 41 -136 9 -13 32 -58 51 -99
35 -73 60 -110 106 -157 12 -13 22 -27 22 -30 0 -7 61 -63 69 -63 3 0 21 -22
40 -49 29 -44 34 -59 37 -127 2 -42 7 -80 10 -85 3 -5 -14 -10 -38 -10 -75 -2
-99 -7 -152 -33 -41 -20 -166 -66 -178 -66 -2 0 -3 21 -4 48 -1 94 -23 228
-48 295 -14 37 -26 78 -26 90 0 13 -4 27 -9 32 -7 8 -31 71 -36 95 -1 3 -9 21
-17 40 -21 46 -30 70 -33 95 -2 11 -13 45 -24 75 -49 129 -3 330 96 420 58 52
161 95 298 124 11 2 21 4 23 5 1 0 2 -3 2 -9z m540 -45 c14 -8 19 -14 10 -14
-8 0 -26 6 -40 14 -14 8 -19 14 -10 14 8 0 26 -6 40 -14z m-165 -24 c77 -18
170 -63 204 -99 39 -41 67 -102 76 -164 7 -46 -26 -165 -62 -226 -10 -17 -32
-54 -49 -84 -18 -29 -42 -63 -53 -75 -12 -13 -19 -23 -15 -23 4 0 -10 -16 -30
-35 -21 -19 -42 -35 -47 -35 -5 0 -9 -5 -9 -11 0 -6 -28 -40 -62 -76 -35 -35
-66 -70 -71 -78 -9 -17 -27 -20 -27 -4 0 6 -6 16 -12 24 -7 7 -29 32 -48 55
-19 23 -41 48 -47 55 -7 8 -13 16 -13 20 0 3 -33 44 -72 90 -69 79 -82 100
-129 200 -36 80 -61 226 -40 239 6 4 11 14 11 22 0 16 58 78 80 86 9 3 13 20
13 52 -1 42 2 48 26 58 60 25 282 30 376 9z m251 -16 c10 -8 25 -15 31 -15 16
0 100 -83 132 -128 67 -96 113 -270 91 -340 -5 -15 -11 -55 -14 -89 -3 -34
-12 -79 -21 -100 -9 -21 -16 -40 -17 -43 0 -3 -4 -15 -9 -28 -5 -13 -12 -35
-15 -50 -3 -15 -13 -42 -21 -61 -29 -65 -73 -229 -74 -274 0 -15 -8 -17 -67
-12 -37 3 -87 8 -112 12 -25 3 -63 7 -85 9 -22 2 -49 6 -60 8 -11 3 -23 5 -27
5 -14 2 -9 46 11 104 11 30 17 57 15 60 -2 2 5 12 16 22 11 10 20 24 20 32 0
8 20 33 45 55 25 23 45 44 45 49 0 4 24 33 54 63 30 31 63 76 75 99 11 23 27
53 35 67 33 59 76 174 76 205 0 13 -5 25 -11 27 -7 2 -12 35 -14 78 -3 80 -6
102 -16 110 -4 3 -18 28 -32 57 -15 28 -35 54 -46 58 -21 6 -49 35 -34 35 5 0
18 -7 29 -15z m-1177 -342 c1 -21 3 -65 4 -98 4 -80 38 -197 81 -282 30 -59
66 -137 70 -153 1 -3 12 -32 25 -65 15 -40 24 -88 27 -143 2 -46 6 -87 8 -90
2 -4 0 -27 -6 -52 -5 -25 -11 -58 -12 -75 -2 -16 -6 -37 -9 -45 -9 -22 25 -58
59 -62 22 -2 38 6 69 35 43 40 91 67 122 67 10 0 61 13 113 29 91 27 127 30
114 9 -4 -6 0 -14 7 -19 11 -7 11 -15 0 -51 -14 -45 -15 -62 -9 -143 2 -34 -3
-62 -16 -89 -15 -32 -16 -42 -6 -62 22 -40 15 -121 -13 -152 -25 -27 -22 -60
6 -64 20 -3 22 -8 19 -48 -2 -25 -7 -49 -11 -55 -13 -16 -20 -54 -11 -57 8 -3
12 -88 11 -200 -1 -27 -7 -53 -16 -62 -17 -17 -20 -63 -4 -68 5 -2 12 -26 16
-55 4 -45 3 -52 -15 -57 -39 -13 -34 -66 7 -69 21 -1 21 -5 16 -62 -10 -94 -9
-160 4 -182 7 -14 8 -37 3 -65 -11 -58 -7 -102 13 -144 11 -23 16 -55 14 -95
-1 -33 2 -64 8 -67 17 -11 22 -62 7 -62 -19 0 -18 -48 1 -67 10 -10 15 -33 15
-67 -1 -28 0 -93 2 -144 2 -52 1 -96 -2 -99 -3 -2 -5 -25 -5 -51 l0 -46 -45
-12 c-87 -24 -176 -37 -275 -40 -97 -3 -205 11 -205 27 0 5 -7 6 -14 3 -8 -3
-39 1 -68 9 -29 9 -89 18 -133 22 -78 6 -195 34 -245 58 -14 8 -26 23 -28 37
-2 14 -8 30 -13 37 -6 6 -20 44 -33 85 -13 40 -39 107 -59 148 -42 89 -78 190
-72 200 3 4 16 11 30 14 14 4 35 16 46 27 11 11 24 17 29 14 4 -3 10 -2 12 2
5 13 76 63 89 63 18 0 248 240 270 282 10 20 23 39 28 43 6 3 8 13 5 23 -3 9
11 -1 30 -22 20 -22 36 -45 36 -52 0 -22 28 -23 54 -3 29 23 25 41 -19 89 -28
30 -74 140 -82 195 -4 31 -12 45 -32 56 -39 23 -82 0 -112 -59 -26 -52 -189
-226 -234 -249 -16 -9 -34 -21 -41 -27 -35 -34 -92 -73 -128 -88 -46 -19 -95
-23 -97 -8 -3 19 -4 25 -15 55 -25 69 -44 132 -49 165 -20 151 -37 301 -43
385 -11 161 -8 444 5 520 7 39 19 111 27 160 8 50 19 110 25 135 5 25 11 52
13 60 2 8 5 17 8 20 3 3 13 30 23 61 20 66 22 124 4 159 -26 50 -90 11 -93
-56 -1 -17 -13 -67 -28 -110 -22 -69 -44 -168 -59 -269 -5 -28 -9 -55 -22
-130 -25 -140 -27 -315 -6 -600 10 -137 17 -190 27 -207 3 -5 8 -48 10 -95 3
-48 10 -96 15 -106 6 -10 11 -31 11 -48 1 -16 4 -29 7 -29 4 0 13 -21 20 -47
7 -27 19 -61 26 -78 30 -72 47 -126 42 -132 -4 -3 -3 -11 2 -17 12 -16 23
-129 12 -122 -5 3 -12 -1 -15 -10 -4 -10 -12 -14 -22 -10 -9 3 -28 -2 -42 -13
-15 -10 -60 -34 -101 -54 -59 -28 -79 -33 -94 -25 -10 5 -30 7 -43 4 -32 -9
-52 12 -59 61 -11 75 -29 139 -58 208 -31 73 -33 84 -55 435 -9 141 -8 494 1
585 3 33 9 103 12 155 8 135 29 277 65 450 14 63 79 263 89 270 4 3 22 32 40
65 30 53 115 182 130 195 3 3 23 29 43 59 53 77 167 200 202 218 16 9 38 25
48 37 9 11 17 18 18 14 0 -4 31 11 70 33 38 21 72 39 75 39 3 0 25 9 49 20 24
10 57 22 74 25 17 3 43 10 58 15 15 6 29 9 31 6 2 -2 21 5 41 15 60 30 78 26
81 -18z m1673 -57 c114 -30 251 -76 259 -88 3 -5 10 -8 15 -7 29 5 51 -8 114
-71 38 -38 70 -74 70 -78 0 -5 17 -33 38 -63 22 -30 58 -88 82 -129 24 -41 55
-88 68 -104 22 -28 75 -134 102 -206 7 -19 17 -39 22 -44 4 -6 8 -20 8 -32 0
-13 4 -25 9 -29 40 -24 56 -408 21 -501 -5 -12 -7 -24 -4 -27 2 -2 -2 -33 -10
-68 -8 -35 -17 -85 -20 -111 -2 -26 -7 -51 -9 -55 -5 -8 -11 -77 -23 -253 -3
-47 -7 -98 -10 -115 -10 -74 -24 -207 -29 -285 -7 -99 -11 -123 -34 -210 -10
-36 -26 -99 -36 -140 -19 -79 -43 -136 -52 -126 -4 3 -13 0 -22 -8 -18 -15
-61 -28 -59 -17 3 25 -6 31 -49 32 -32 0 -62 9 -88 24 -22 14 -53 31 -70 39
-78 40 -81 49 -56 171 5 28 13 84 16 124 3 41 8 77 10 80 7 12 22 390 29 691
0 40 -13 383 -20 485 -6 106 -39 331 -53 368 -19 50 -92 53 -107 4 -6 -18 3
-195 11 -207 3 -5 8 -39 21 -130 16 -128 26 -266 31 -430 2 -107 5 -204 5
-215 3 -59 -6 -249 -13 -305 -4 -36 -11 -126 -13 -200 -6 -147 -14 -242 -22
-249 -14 -14 -182 114 -259 197 -27 30 -65 70 -82 89 -18 18 -33 37 -33 42 0
5 -7 11 -15 15 -8 3 -15 11 -15 17 0 22 -35 88 -50 94 -8 3 -40 -4 -71 -15
-46 -17 -60 -28 -71 -53 -7 -18 -12 -37 -10 -43 1 -6 -14 -35 -33 -64 -19 -29
-35 -54 -35 -56 0 -3 -12 -22 -26 -44 -33 -49 -28 -96 9 -84 24 8 46 32 47 52
0 17 30 15 30 -2 0 -8 7 -16 15 -20 8 -3 15 -12 15 -21 0 -8 4 -15 10 -15 5 0
28 -24 50 -52 61 -79 63 -81 99 -108 35 -26 42 -33 86 -87 15 -18 33 -33 40
-33 8 0 26 -16 41 -36 26 -34 127 -94 158 -94 15 0 34 -27 31 -45 -1 -5 -5
-23 -9 -40 -4 -16 -16 -64 -26 -105 -10 -41 -29 -108 -42 -149 -24 -73 -25
-74 -68 -87 -25 -8 -61 -14 -81 -14 -19 0 -39 -4 -45 -10 -10 -10 -200 -33
-212 -26 -4 2 -59 7 -122 11 -184 11 -203 12 -235 19 -38 9 -54 24 -37 35 10
6 11 43 6 162 -4 85 -6 175 -6 202 1 27 -4 47 -10 47 -6 0 -8 10 -5 22 4 12 2
27 -3 33 -6 7 -5 23 3 44 8 22 8 34 1 39 -6 4 -11 16 -11 27 0 11 -4 46 -7 77
-4 31 -3 59 2 62 10 6 3 66 -7 66 -4 0 -8 21 -10 47 -1 25 -7 55 -12 65 -8 14
-6 26 6 44 13 20 13 28 4 46 -9 17 -17 163 -9 163 1 0 3 32 4 70 1 39 6 80 10
93 4 13 3 28 -2 35 -11 14 -15 41 -13 109 1 41 5 49 30 64 32 19 40 68 9 58
-9 -2 -20 0 -23 7 -6 8 -10 7 -16 -2 -6 -9 -9 5 -9 38 0 42 4 54 20 63 25 13
26 33 3 56 -20 19 -26 73 -12 91 7 7 6 14 -1 18 -17 10 0 134 26 190 17 35 20
53 12 62 -7 9 -7 22 1 44 6 18 11 42 11 55 0 12 4 24 9 26 5 2 12 34 15 72 3
38 8 71 11 74 6 6 71 7 223 2 88 -3 116 -8 130 -21 31 -28 57 -31 85 -9 14 11
26 28 26 38 1 62 52 264 73 286 4 6 8 19 8 29 0 11 13 58 29 106 46 138 59
190 76 301 23 146 24 152 35 145 5 -3 51 -16 102 -29z m-872 -717 c0 -11 -4
-17 -10 -14 -5 3 -10 13 -10 21 0 8 5 14 10 14 6 0 10 -9 10 -21z m-2 -199
c-3 -20 -52 -60 -61 -50 -12 13 7 69 26 78 27 12 40 2 35 -28z m-45 -167 c-18
-72 -33 -90 -33 -41 0 20 5 40 10 43 6 4 8 10 5 15 -4 7 20 40 30 40 2 0 -4
-26 -12 -57z m-42 -546 c-8 -8 -11 -5 -11 9 0 27 14 41 18 19 2 -9 -1 -22 -7
-28z m14 -172 c-3 -50 -5 -55 -15 -55 -6 0 -8 18 -6 43 3 23 5 49 6 57 1 13 2
13 9 0 5 -8 8 -28 6 -45z m13 -179 c3 -35 -8 -55 -29 -56 -4 0 -7 23 -8 51 0
43 2 50 17 47 12 -2 18 -15 20 -42z m-9 -186 c-1 -43 -4 -60 -14 -60 -7 0 -12
8 -10 18 2 9 4 36 4 60 1 23 5 42 10 42 6 0 10 -27 10 -60z m-734 41 c3 -6 -3
-25 -13 -43 -10 -18 -22 -45 -26 -60 -3 -16 -11 -28 -16 -28 -6 0 -10 -5 -10
-12 0 -13 -74 -104 -105 -129 -39 -32 -92 -87 -98 -102 -3 -8 -18 -18 -33 -21
-16 -4 -34 -15 -41 -25 -7 -10 -27 -24 -45 -31 -18 -8 -52 -26 -75 -42 -23
-15 -44 -28 -46 -28 -11 0 -40 111 -31 119 5 4 34 18 65 30 31 12 66 31 77 42
12 10 24 19 28 19 32 0 278 215 326 286 24 35 33 40 43 25z m1265 -60 c0 -5
52 -61 115 -125 63 -64 115 -120 115 -126 0 -5 5 -10 11 -10 6 0 25 -11 43
-25 18 -14 36 -25 40 -25 8 0 153 -98 174 -117 8 -8 12 -30 10 -60 -3 -48 -3
-48 -36 -45 -44 3 -100 33 -136 71 -17 17 -35 31 -40 31 -6 0 -31 21 -56 48
-25 26 -68 67 -95 92 -54 49 -80 80 -125 151 -16 25 -41 51 -54 59 l-25 13 22
38 c21 37 37 50 37 30z m-529 -133 c0 -7 2 -33 4 -58 2 -25 4 -49 5 -55 5 -22
-1 -35 -14 -35 -11 0 -14 18 -12 80 0 44 4 80 9 80 4 0 7 -6 8 -12z m16 -240
c-3 -8 -6 -5 -6 6 -1 11 2 17 5 13 3 -3 4 -12 1 -19z m13 -79 c0 -16 -4 -28
-9 -25 -5 3 -8 17 -8 31 0 14 3 25 8 25 5 0 9 -14 9 -31z m1135 -118 c-4 -9
-11 -43 -16 -76 -13 -82 -31 -155 -40 -155 -3 0 -4 -11 -1 -25 3 -20 0 -25
-16 -25 -18 0 -19 2 -7 38 7 20 15 55 18 77 3 22 10 64 17 93 13 57 18 82 19
94 1 4 8 5 17 1 9 -3 13 -12 9 -22z m68 -46 c-3 -9 -8 -14 -10 -11 -3 3 -2 9
2 15 9 16 15 13 8 -4z m102 -17 c-2 -7 -9 -60 -15 -118 -6 -57 -15 -109 -20
-114 -6 -6 -10 -18 -10 -28 0 -10 -7 -18 -15 -18 -21 0 -19 57 4 150 11 41 17
78 15 82 -2 4 0 9 6 13 5 3 10 15 10 26 0 10 7 19 15 19 8 0 12 -6 10 -12z
m-2641 -50 c43 -96 42 -106 -11 -122 -29 -9 -45 21 -49 91 -6 99 23 113 60 31z
m2531 0 c-9 -58 -37 -170 -41 -165 -10 9 31 207 42 207 3 0 3 -19 -1 -42z
m-2665 -17 c0 -27 7 -65 15 -84 17 -42 19 -67 5 -67 -11 0 -41 54 -45 84 -2
12 -7 38 -11 60 -5 28 -3 40 7 47 25 16 29 10 29 -40z m1500 -53 c0 -21 -4
-38 -10 -38 -5 0 -10 24 -10 53 0 37 3 48 10 37 5 -8 10 -32 10 -52z m-1602
-3 c13 -34 17 -51 28 -110 l5 -30 -26 27 c-14 16 -27 41 -28 58 -1 16 -5 30
-9 30 -10 0 -20 38 -13 50 12 20 31 9 43 -25z m1604 -160 c6 -29 -7 -34 -15
-6 -4 17 0 31 9 31 1 0 4 -11 6 -25z m-1076 -207 c-11 -37 -14 -52 -15 -69 -1
-8 -8 -24 -17 -35 -14 -18 -15 -16 -9 21 9 59 25 105 37 105 6 0 8 -9 4 -22z
m1960 -14 c-6 -29 -36 -74 -50 -74 -2 0 0 19 4 43 5 23 8 44 8 47 0 3 28 17
41 19 2 1 0 -15 -3 -35z m-1838 0 c23 -7 32 -44 10 -44 -6 0 -9 -3 -5 -6 3 -4
0 -19 -9 -35 -8 -16 -12 -29 -10 -29 3 0 0 -13 -5 -30 -11 -29 -12 -29 -39
-15 l-29 15 27 75 c15 41 29 75 32 75 3 0 15 -3 28 -6z m1699 -57 c-5 -45 -24
-77 -46 -77 -12 0 -2 123 10 131 28 17 41 -2 36 -54z m-1543 -10 c-3 -29 -12
-64 -20 -79 -8 -15 -14 -39 -14 -54 0 -21 -3 -25 -17 -19 -10 4 -28 10 -40 12
-24 6 -29 22 -14 51 5 9 19 44 32 77 25 66 32 75 60 68 16 -5 18 -12 13 -56z
m796 48 c0 -9 -6 -15 -12 -14 -39 5 -55 -3 -67 -33 -27 -63 -32 -83 -32 -120
1 -42 -11 -52 -73 -63 l-38 -8 7 44 c8 52 32 146 39 158 6 8 64 25 79 22 4 -1
18 5 30 14 28 20 67 20 67 0z m126 -87 c-1 -51 -5 -99 -9 -105 -5 -7 -19 -13
-33 -13 -21 0 -24 5 -24 34 0 18 7 53 15 76 8 23 15 55 15 71 0 22 5 29 19 29
16 0 18 -9 17 -92z m137 80 c12 -7 24 -14 26 -15 4 -2 -27 -126 -40 -160 -6
-16 -16 -23 -35 -23 -23 0 -25 3 -20 23 4 12 11 59 18 105 6 45 15 82 19 82 5
0 19 -6 32 -12z m171 -90 c-3 -51 -7 -94 -8 -95 -1 -1 -25 -5 -53 -9 l-52 -6
24 73 c13 41 26 86 30 102 4 22 11 27 36 27 l31 0 -8 -92z m177 72 c1 -8 3
-38 5 -67 l3 -51 -46 -16 c-25 -9 -49 -13 -54 -10 -5 3 -6 28 -3 57 3 29 7 61
7 72 3 27 12 33 53 31 22 -1 34 -6 35 -16z m-1261 -15 c8 -10 9 -23 2 -47 -5
-18 -15 -59 -22 -90 -12 -60 -15 -63 -68 -52 -29 6 -30 7 -19 38 5 17 16 40
23 51 7 11 16 41 19 68 6 40 11 47 30 47 12 0 28 -7 35 -15z m375 -37 c-3 -18
-10 -54 -16 -81 -6 -26 -8 -59 -5 -72 6 -22 3 -25 -19 -25 -29 0 -30 6 -15 95
5 33 14 61 20 63 6 2 7 8 4 13 -6 11 13 39 27 39 5 0 7 -15 4 -32z m-252 -55
c-2 -40 -7 -83 -12 -97 -9 -21 -14 -23 -38 -17 -31 9 -33 24 -8 96 7 22 16 53
20 68 4 20 11 27 23 25 14 -3 17 -14 15 -75z m137 74 c0 -2 -7 -26 -14 -53 -8
-27 -14 -56 -14 -64 5 -66 -11 -99 -40 -81 -8 5 -6 29 8 86 10 43 17 82 14 87
-8 13 6 28 27 28 10 0 19 -1 19 -3z"/>
</g>
</svg>
