<?xml version="1.0" standalone="no"?>
<!DOCTYPE svg PUBLIC "-//W3C//DTD SVG 20010904//EN"
 "http://www.w3.org/TR/2001/REC-SVG-20010904/DTD/svg10.dtd">
<svg version="1.0" xmlns="http://www.w3.org/2000/svg"
 width="551.000000pt" height="421.000000pt" viewBox="0 0 551.000000 421.000000"
 preserveAspectRatio="xMidYMid meet">
<metadata>
Created by potrace 1.16, written by Peter Selinger 2001-2019
</metadata>
<g transform="translate(0.000000,421.000000) scale(0.100000,-0.100000)"
fill="#000000" stroke="none">
<path d="M2899 4145 c-3 -2 -40 -4 -84 -5 -163 -3 -378 -33 -525 -72 -111 -30
-110 -30 -110 -39 0 -5 -9 -9 -21 -9 -22 0 -201 -91 -231 -118 -10 -8 -18 -12
-18 -8 0 13 -98 -62 -137 -105 -51 -57 -143 -198 -143 -220 0 -10 -4 -20 -9
-23 -19 -12 -32 -132 -32 -297 0 -196 12 -353 45 -566 1 -7 5 -16 9 -19 4 -4
7 -16 7 -27 0 -22 68 -313 80 -342 5 -11 12 -36 15 -55 4 -19 14 -55 22 -80
27 -82 72 -345 72 -425 0 -36 -7 -48 -72 -117 -82 -87 -113 -103 -217 -112
-68 -5 -260 -18 -302 -20 -10 0 -18 -3 -18 -7 0 -3 -19 -9 -42 -13 -24 -4 -81
-19 -128 -33 -47 -14 -121 -36 -165 -50 -99 -30 -196 -77 -236 -114 -17 -16
-36 -29 -43 -29 -6 -1 -31 -30 -56 -65 -25 -35 -48 -64 -52 -65 -16 0 -62
-107 -64 -145 -2 -41 37 -156 63 -186 7 -8 13 -19 13 -23 0 -7 102 -109 140
-140 12 -10 39 -25 59 -34 42 -19 36 -16 86 -27 22 -4 45 -10 50 -14 11 -6 13
-7 320 -15 282 -8 331 -9 353 -2 16 5 22 -2 36 -46 9 -28 32 -71 52 -94 37
-46 155 -130 189 -136 11 -2 22 -5 25 -8 11 -13 132 -61 153 -62 12 0 47 -9
77 -19 30 -10 88 -21 129 -24 41 -3 79 -9 84 -12 5 -3 48 -7 95 -8 48 -2 150
-8 227 -15 201 -17 460 -15 595 5 19 3 51 7 70 10 57 8 120 22 198 44 41 12
86 23 100 25 72 10 112 19 112 26 0 4 21 13 48 19 26 7 70 19 97 26 28 8 65
17 82 20 18 4 31 11 30 17 -1 6 9 12 23 14 14 3 52 11 85 20 33 8 73 17 89 19
16 3 32 8 35 13 6 8 144 44 178 46 11 0 27 9 37 18 10 10 28 21 42 24 13 3 24
10 24 16 0 5 4 7 8 4 5 -3 15 6 22 19 7 14 19 25 27 25 7 0 13 9 13 20 0 10 4
29 9 42 34 86 40 294 15 455 -3 18 -4 34 -3 35 1 2 -3 14 -10 26 -12 22 -33
344 -31 462 0 25 2 155 4 290 2 135 6 270 10 300 4 30 9 100 11 155 5 102 10
166 19 220 3 17 6 70 8 118 1 49 5 90 9 93 8 4 11 80 10 234 0 47 -1 96 -1
110 0 14 3 96 6 182 5 146 4 158 -14 176 -11 11 -28 44 -37 73 -23 68 -69 147
-105 179 -16 14 -50 32 -77 42 -50 17 -39 17 -612 8 -74 -1 -158 -5 -188 -9
-30 -4 -56 -4 -58 0 -3 4 6 29 19 56 37 73 41 98 21 141 -38 79 -74 118 -138
147 -70 31 -82 34 -157 41 -30 3 -68 7 -85 10 -16 2 -61 7 -100 10 -79 5 -111
10 -123 18 -5 3 -11 4 -13 1z m196 -116 c122 -13 226 -35 251 -54 10 -8 29
-23 42 -32 26 -21 37 -96 18 -130 -28 -52 -120 -104 -235 -133 -40 -10 -83
-27 -95 -38 -11 -10 -48 -34 -81 -52 -88 -49 -141 -88 -206 -151 -62 -61 -69
-64 -239 -93 -92 -16 -384 -14 -495 3 -154 23 -285 134 -285 240 0 29 44 104
86 148 24 25 44 42 44 38 0 -4 21 9 48 28 46 33 253 137 273 137 5 0 24 7 42
16 17 9 43 18 57 19 14 1 32 5 40 8 37 13 189 40 292 51 121 14 280 12 443 -5z
m1059 -388 c4 -5 25 -8 48 -6 70 7 143 -35 174 -100 8 -16 21 -42 29 -56 16
-28 22 -112 11 -144 -31 -85 -100 -162 -181 -199 -31 -14 -68 -34 -83 -44 -15
-11 -54 -27 -87 -36 -33 -9 -69 -21 -80 -26 -47 -21 -119 -40 -154 -40 -21 0
-60 -4 -87 -9 -62 -12 -305 -17 -364 -8 -111 18 -204 38 -228 51 -15 7 -54 26
-87 41 -100 46 -119 57 -151 90 -62 62 -79 116 -54 171 10 21 16 42 14 46 -7
12 49 65 94 88 23 12 44 26 47 30 8 13 109 59 155 71 71 17 237 48 325 59 160
21 650 37 659 21z m-2359 -312 c22 -14 51 -33 65 -41 29 -17 118 -46 140 -46
8 0 38 -3 65 -6 94 -13 199 -22 225 -20 14 1 66 3 115 4 50 1 97 6 107 11 9 5
51 13 95 18 43 6 89 13 102 17 24 7 24 7 17 -50 -3 -32 -13 -74 -22 -94 -8
-20 -17 -68 -20 -107 -2 -38 -6 -97 -9 -130 -7 -72 -7 -206 -1 -237 3 -13 8
-45 11 -73 4 -27 12 -70 20 -95 7 -25 20 -83 29 -130 20 -101 37 -181 66 -310
26 -116 57 -282 70 -370 5 -36 12 -78 16 -95 3 -16 7 -69 7 -117 2 -82 0 -88
-26 -112 -16 -14 -33 -26 -40 -27 -7 0 -25 -2 -42 -4 -32 -5 -110 -13 -190
-20 -27 -3 -61 -7 -75 -10 -58 -12 -76 -15 -132 -20 -143 -13 -287 -62 -415
-141 -58 -35 -109 -64 -113 -64 -4 0 -18 -11 -31 -25 -13 -13 -30 -25 -36 -25
-7 0 -13 -7 -13 -15 0 -8 -6 -15 -13 -15 -8 0 -36 -25 -62 -55 -27 -30 -57
-55 -66 -55 -10 0 -19 -4 -21 -10 -3 -9 -93 -26 -192 -36 -27 -3 -52 -6 -55
-6 -28 -6 -280 40 -296 53 -5 5 -17 9 -27 9 -11 0 -38 9 -60 20 -23 11 -47 20
-53 20 -7 0 -22 9 -35 20 -13 11 -26 20 -30 20 -4 0 -30 21 -57 48 -42 40 -73
90 -79 127 -1 6 -5 22 -9 36 -6 23 -1 28 65 62 40 20 78 37 85 37 7 0 32 9 56
19 24 11 72 24 106 31 34 6 75 17 90 25 15 8 40 15 55 15 15 0 38 4 52 9 31
13 107 22 221 27 141 6 229 20 261 40 27 17 108 96 181 177 30 33 33 43 35
109 2 40 -1 93 -6 118 -4 25 -12 70 -17 100 -10 70 -29 150 -64 270 -15 52
-33 122 -40 155 -7 33 -27 119 -44 190 -50 205 -59 254 -66 345 -10 149 -17
453 -10 489 l7 35 31 -35 c18 -19 50 -46 72 -60z m2670 -388 c-2 -142 -6 -269
-9 -282 -3 -13 -8 -64 -11 -114 -3 -49 -7 -101 -10 -115 -3 -14 -7 -91 -10
-172 -2 -81 -7 -153 -11 -159 -6 -11 -9 -114 -16 -664 -1 -139 7 -288 17 -305
2 -3 6 -47 9 -99 4 -51 11 -101 16 -111 5 -10 8 -25 5 -33 -3 -7 -1 -26 4 -40
9 -24 6 -31 -40 -77 -27 -27 -62 -53 -77 -57 -28 -7 -106 -47 -132 -68 -23
-18 -167 -75 -189 -75 -11 0 -23 -5 -26 -10 -4 -6 -10 -8 -15 -5 -5 3 -11 1
-14 -4 -6 -9 -157 -46 -226 -56 -19 -2 -53 -11 -75 -18 -40 -15 -83 -20 -270
-37 -55 -5 -107 -11 -115 -14 -14 -5 -51 -9 -175 -21 -27 -3 -90 -10 -140 -17
-135 -19 -579 -13 -606 8 -8 6 -36 14 -63 18 -27 3 -81 20 -120 37 -115 51
-201 92 -206 100 -3 5 -15 12 -26 16 -21 8 -77 50 -121 91 -13 12 -27 22 -30
22 -3 0 -23 18 -44 39 -36 39 -36 40 -18 57 10 9 19 21 19 27 0 15 162 167
178 167 8 0 120 75 144 97 9 8 21 13 25 10 5 -3 31 6 58 19 44 22 66 28 135
38 8 2 40 8 70 14 87 18 256 42 370 52 174 15 180 17 255 104 22 26 31 60 27
106 -1 8 -4 51 -7 95 -4 44 -8 87 -10 95 -3 8 -7 33 -10 55 -4 22 -8 47 -10
55 -2 8 -7 40 -10 70 -6 54 -22 132 -50 240 -14 53 -59 268 -75 360 -4 25 -21
97 -36 160 -25 101 -28 134 -28 271 1 141 17 279 33 279 3 0 17 -12 30 -26 30
-31 267 -146 336 -164 28 -6 59 -14 70 -17 11 -3 63 -7 115 -8 52 -2 113 -7
135 -12 22 -5 63 -5 90 -1 28 4 88 10 135 13 135 9 246 34 359 80 161 66 289
138 344 195 27 28 50 50 52 50 3 0 3 -116 0 -259z m-3760 -1942 c102 -110 239
-185 395 -214 160 -31 345 -45 371 -29 4 2 33 7 63 10 51 5 55 4 49 -13 -3
-10 -11 -24 -17 -32 -6 -8 -10 -17 -9 -20 1 -3 0 -16 -3 -27 -7 -26 4 -25
-284 -25 -196 0 -269 3 -400 17 -49 5 -160 55 -199 88 -32 29 -84 113 -100
163 -12 37 -12 48 3 88 10 25 21 45 25 45 4 0 15 17 25 37 l18 38 22 -52 c12
-29 31 -62 41 -74z m3729 -341 c-3 -18 -8 -40 -12 -48 -3 -8 -6 -18 -6 -22 -2
-17 -72 -58 -98 -58 -15 0 -28 -4 -28 -10 0 -5 -8 -10 -18 -10 -9 0 -72 -18
-138 -39 -67 -22 -142 -42 -168 -46 -25 -4 -46 -11 -46 -15 0 -4 -28 -13 -62
-20 -35 -7 -68 -17 -73 -21 -6 -4 -33 -9 -60 -10 -47 -1 -124 -29 -152 -56 -7
-6 -36 -14 -65 -18 -29 -4 -78 -15 -108 -25 -30 -9 -80 -21 -110 -25 -30 -4
-64 -9 -75 -11 -11 -2 -62 -6 -113 -9 -51 -2 -97 -7 -101 -9 -18 -11 -300 -5
-396 9 -16 2 -79 7 -140 10 -60 3 -150 11 -199 17 -49 5 -99 11 -110 13 -38 4
-91 17 -101 25 -5 4 -35 13 -65 20 -50 11 -79 22 -150 53 -14 6 -41 24 -61 39
-20 15 -41 28 -45 28 -14 1 -64 72 -64 91 0 10 -5 21 -11 25 -12 7 -8 108 4
121 4 3 20 -6 35 -20 16 -15 33 -27 40 -27 7 0 12 -4 12 -10 0 -5 7 -10 15
-10 8 0 15 -4 15 -9 0 -5 17 -19 38 -32 20 -12 42 -27 47 -33 13 -14 182 -96
198 -96 7 0 18 -5 24 -11 14 -14 164 -65 218 -75 49 -9 57 -9 230 -18 77 -5
142 -9 145 -11 5 -3 140 7 285 21 28 2 75 6 105 9 30 3 111 13 180 24 69 10
141 19 160 19 19 0 53 3 75 6 22 4 74 11 115 17 41 6 96 18 122 26 26 8 60 16
75 17 16 2 35 6 43 9 8 3 29 8 45 11 17 3 59 14 93 25 35 12 70 21 78 21 12 0
64 22 176 75 18 8 69 35 113 59 44 24 83 44 87 45 4 0 5 -14 2 -31z"/>
</g>
</svg>
