<?xml version="1.0" standalone="no"?>
<!DOCTYPE svg PUBLIC "-//W3C//DTD SVG 20010904//EN"
 "http://www.w3.org/TR/2001/REC-SVG-20010904/DTD/svg10.dtd">
<svg version="1.0" xmlns="http://www.w3.org/2000/svg"
 width="471.000000pt" height="399.000000pt" viewBox="0 0 471.000000 399.000000"
 preserveAspectRatio="xMidYMid meet">
<metadata>
Created by potrace 1.16, written by Peter Selinger 2001-2019
</metadata>
<g transform="translate(0.000000,399.000000) scale(0.100000,-0.100000)"
fill="#000000" stroke="none">
<path d="M2080 3774 c-36 -6 -83 -12 -105 -13 -22 -1 -62 -8 -89 -16 -27 -8
-51 -13 -53 -11 -3 2 -16 -2 -30 -9 -15 -8 -31 -11 -36 -8 -5 3 -12 1 -16 -4
-12 -18 -79 -53 -102 -53 -13 0 -35 -9 -49 -20 -14 -11 -30 -20 -36 -20 -6 0
-31 -20 -56 -44 -42 -41 -46 -49 -58 -125 -13 -75 -16 -82 -39 -87 -14 -3 -57
-15 -94 -26 -37 -10 -77 -16 -89 -13 -35 12 -197 -36 -267 -77 -34 -21 -69
-38 -76 -38 -14 0 -57 -40 -94 -90 -14 -19 -32 -39 -38 -43 -36 -23 -213 -444
-213 -506 0 -9 -7 -41 -15 -71 -40 -139 -86 -331 -95 -395 -5 -38 -17 -97 -26
-130 -8 -33 -22 -91 -30 -130 -8 -38 -21 -88 -30 -110 -9 -22 -18 -53 -19 -70
-3 -38 -33 -209 -45 -255 -5 -19 -11 -53 -14 -75 -3 -22 -9 -65 -15 -95 -5
-30 -8 -74 -8 -98 1 -23 -1 -42 -5 -42 -5 0 -8 -5 -8 -11 0 -5 4 -8 9 -4 5 3
9 -8 9 -24 -1 -17 3 -36 9 -43 5 -7 15 -38 23 -68 7 -30 20 -65 28 -77 12 -19
12 -35 2 -107 -12 -81 -12 -85 9 -120 19 -30 42 -43 64 -35 1 0 20 -6 42 -14
22 -8 65 -22 95 -32 30 -10 60 -21 65 -26 6 -4 37 -10 70 -14 33 -4 103 -18
155 -31 94 -23 95 -23 114 -4 22 22 56 121 56 165 0 20 12 43 36 70 20 22 48
55 64 73 l27 33 17 -53 c10 -29 29 -72 42 -96 14 -23 27 -59 30 -79 6 -46 31
-67 127 -107 41 -17 80 -36 88 -42 8 -6 26 -14 42 -18 19 -4 27 -13 29 -29 2
-35 3 -41 10 -52 3 -6 9 -30 13 -55 8 -53 12 -60 31 -60 8 0 14 -4 14 -8 0
-17 80 -52 128 -57 27 -3 87 -12 133 -22 57 -11 149 -17 289 -19 208 -3 357
-9 465 -20 33 -4 65 -6 70 -6 298 13 387 21 445 38 9 2 51 9 95 15 44 6 89 12
100 14 35 5 110 27 120 34 6 5 59 27 118 51 88 35 111 49 119 69 15 41 -4 205
-28 232 -19 22 -18 26 16 62 19 20 33 28 38 22 14 -21 98 -82 134 -99 44 -20
46 -22 53 -72 4 -22 9 -48 12 -59 4 -11 8 -26 9 -33 1 -8 11 -20 21 -28 65
-52 133 -59 230 -23 32 11 71 25 86 29 16 5 35 14 43 20 7 7 18 9 24 5 5 -3
10 -2 10 4 0 5 13 12 29 16 16 3 38 17 51 30 12 13 36 29 53 36 18 7 38 19 44
25 7 7 40 29 73 49 57 35 60 38 60 76 0 65 -36 125 -129 216 l-53 52 5 132 c3
73 1 139 -3 148 -5 9 -13 41 -19 72 -14 83 -86 223 -152 301 -19 21 -60 67
-91 100 -32 34 -58 67 -58 74 0 7 -6 17 -13 21 -16 9 -62 104 -73 148 -4 17
-19 48 -33 70 -14 22 -25 43 -26 47 0 4 -6 15 -12 25 -38 54 -63 95 -63 99 0
3 -7 22 -16 42 -44 100 -62 160 -70 227 -3 33 -11 66 -16 72 -6 7 -12 34 -14
60 -12 136 -82 347 -133 401 -12 12 -18 22 -14 22 4 0 3 4 -4 8 -6 4 -13 13
-15 20 -2 8 -15 27 -30 43 -14 16 -40 54 -57 84 -17 30 -43 61 -58 69 -16 8
-49 33 -76 56 -26 23 -71 51 -100 62 -153 58 -214 79 -234 80 -20 2 -23 8 -23
44 0 27 -11 63 -30 101 -30 57 -99 143 -115 143 -5 0 -20 11 -34 24 -15 13
-55 34 -91 46 -36 12 -73 26 -83 31 -39 21 -484 31 -577 13z m25 -114 c-3 -6
1 -13 10 -16 9 -4 21 -17 26 -30 11 -29 28 -27 51 6 12 17 14 28 6 37 -8 10
-4 13 21 13 27 0 33 -6 48 -40 10 -22 24 -42 32 -45 20 -8 42 26 36 58 -4 24
-2 27 23 27 22 0 30 -7 44 -38 18 -43 62 -72 80 -54 7 7 8 22 1 49 -9 36 -8
38 14 39 16 1 23 -4 23 -16 0 -11 4 -21 9 -24 5 -3 7 -15 4 -26 -6 -23 22 -60
44 -60 7 0 16 14 20 30 3 17 10 33 14 36 5 3 6 17 3 31 -6 24 -6 25 17 12 13
-7 29 -12 36 -11 14 3 28 -42 18 -58 -11 -18 5 -70 23 -70 22 0 52 30 52 52 0
23 9 23 26 1 18 -24 17 -33 -1 -33 -13 0 -14 -3 -3 -16 39 -48 62 -68 66 -56
9 28 38 9 33 -22 -1 -4 3 -13 8 -20 5 -6 7 -23 4 -37 -4 -20 -10 -25 -26 -22
-35 6 -51 -12 -49 -51 2 -30 -1 -36 -16 -36 -11 0 -25 -7 -32 -15 -12 -14 -15
-14 -31 1 -28 26 -62 14 -75 -26 -6 -19 -17 -36 -24 -38 -10 -4 -90 69 -90 82
0 5 40 17 74 23 16 2 50 14 76 25 40 18 46 24 48 53 5 63 -56 83 -121 40 -17
-10 -50 -18 -85 -20 -31 -1 -77 -8 -102 -14 -72 -21 -318 -32 -390 -19 -19 4
-57 10 -83 13 -57 8 -143 50 -164 81 -17 27 -53 37 -86 25 -59 -23 -4 -140 82
-177 27 -11 32 -17 23 -26 -7 -7 -12 -27 -12 -45 l0 -32 -43 16 c-41 15 -44
19 -43 52 1 29 -4 38 -27 49 -29 14 -46 6 -60 -28 -3 -9 -6 -4 -6 12 -1 16
-15 44 -34 65 -22 26 -34 50 -36 74 -2 32 3 40 36 66 21 17 66 42 99 55 l62
25 16 -38 c19 -43 51 -56 78 -32 16 15 17 18 3 33 -8 9 -15 26 -15 38 0 14 -7
22 -17 23 -10 1 -2 5 17 9 48 12 69 -8 53 -50 -13 -35 0 -50 37 -40 37 9 58
52 43 90 -11 28 -10 30 13 30 19 0 29 -8 39 -34 29 -69 71 -53 65 27 -1 15 4
27 10 27 6 0 8 -5 5 -10z m429 -389 c3 -5 0 -11 -8 -14 -20 -8 -25 -43 -11
-71 13 -25 12 -26 -27 -36 -49 -14 -68 -8 -68 21 0 32 -28 49 -57 36 -24 -11
-40 -48 -28 -66 10 -18 -62 -13 -79 5 -9 8 -19 27 -23 42 -7 32 -20 42 -50 42
-16 0 -25 -8 -30 -27 -4 -16 -6 -34 -4 -42 2 -11 -5 -12 -30 -7 -39 8 -36 4
-42 42 l-5 31 57 8 c31 3 92 8 136 10 69 4 121 11 210 29 36 7 54 6 59 -3z
m-976 -96 c60 -61 87 -80 155 -109 45 -19 116 -42 157 -51 41 -10 98 -23 126
-29 49 -12 234 -13 329 -2 129 14 346 54 395 73 8 3 24 8 34 10 11 2 55 26 97
53 43 28 82 50 86 50 5 0 24 16 43 35 20 20 44 35 57 35 35 0 143 -32 143 -42
0 -5 4 -7 9 -3 5 3 34 -18 63 -46 29 -28 64 -58 78 -67 14 -9 34 -28 45 -42
11 -13 31 -34 44 -45 13 -11 32 -40 43 -65 11 -25 29 -55 40 -67 12 -13 18
-26 15 -29 -4 -4 -1 -12 7 -18 26 -20 108 -190 103 -213 -2 -12 -1 -24 4 -25
4 -2 10 -23 13 -48 3 -25 10 -60 15 -78 5 -18 10 -36 10 -40 1 -4 4 -15 7 -26
4 -10 0 -22 -7 -27 -8 -5 -9 -9 -3 -9 6 0 19 -30 29 -67 10 -38 22 -76 27 -86
5 -10 11 -36 13 -57 2 -21 11 -54 20 -72 32 -69 96 -183 114 -202 23 -25 51
-73 85 -143 28 -59 70 -119 102 -145 11 -9 33 -36 50 -60 16 -23 46 -65 66
-93 21 -27 38 -55 38 -61 0 -6 9 -19 20 -29 47 -43 81 -172 76 -295 -3 -84
-16 -130 -38 -130 -7 0 -8 -14 -4 -40 5 -35 2 -46 -21 -78 -37 -49 -61 -69
-103 -88 -19 -8 -37 -19 -41 -25 -3 -6 -37 -12 -75 -13 -38 -2 -77 -6 -86 -10
-21 -10 -96 -2 -129 14 -48 22 -85 92 -93 172 -2 18 -12 52 -23 73 -11 22 -24
51 -28 65 -6 22 -39 94 -99 220 -36 75 -80 135 -166 222 -109 111 -164 190
-185 264 -10 34 -10 35 -18 54 -17 42 -39 118 -43 149 -2 20 -9 59 -14 86 -6
28 -14 75 -19 105 -8 48 -16 88 -25 125 -2 6 -6 17 -9 25 -3 8 -8 29 -11 45
-10 72 -45 113 -84 101 -34 -11 -42 -60 -25 -149 8 -45 22 -99 31 -120 8 -20
13 -40 10 -43 -3 -3 1 -33 9 -67 8 -34 17 -78 20 -97 2 -19 11 -60 18 -90 8
-30 16 -67 19 -81 2 -14 14 -45 25 -67 12 -23 21 -49 21 -58 0 -19 51 -104 90
-148 14 -16 67 -72 117 -125 51 -53 93 -100 93 -105 0 -5 12 -25 26 -43 14
-19 27 -45 28 -59 0 -13 4 -24 7 -24 9 0 44 -85 59 -145 7 -27 17 -56 23 -62
5 -7 10 -29 11 -49 2 -20 8 -39 15 -43 7 -5 15 -26 18 -47 4 -36 1 -43 -42
-87 -26 -26 -51 -47 -57 -47 -5 0 -24 -11 -41 -24 -73 -56 -272 -126 -407
-145 -41 -5 -117 -12 -168 -15 -51 -3 -97 -8 -102 -11 -29 -18 -563 -38 -630
-24 -25 5 -88 14 -140 20 -52 5 -106 15 -120 21 -14 6 -48 12 -77 13 -70 4
-151 32 -158 55 -8 24 -57 44 -87 34 -28 -10 -44 -9 -83 1 -32 8 -87 34 -95
44 -3 3 -22 14 -42 23 -33 15 -44 31 -96 140 -33 68 -63 144 -66 171 -4 26
-11 47 -15 47 -5 0 -11 10 -14 22 -28 132 -38 201 -52 373 -9 110 -20 225 -24
255 -4 30 -3 73 1 95 4 22 7 74 7 115 1 41 6 91 12 110 14 47 18 67 24 119 3
24 7 46 9 50 2 3 7 42 11 85 4 44 11 89 15 102 5 12 12 56 15 96 4 40 13 97
20 127 8 30 12 58 9 62 -2 4 0 10 6 14 17 11 11 39 -15 64 -70 65 -125 -46
-139 -282 -3 -49 -8 -92 -10 -95 -2 -4 -7 -29 -10 -55 -3 -26 -8 -57 -10 -69
-3 -13 -7 -41 -10 -63 -3 -22 -10 -53 -16 -69 -11 -30 -33 -314 -30 -406 2
-92 8 -168 13 -177 6 -10 15 -95 22 -200 6 -90 23 -209 35 -238 24 -57 15 -95
-22 -95 -12 0 -19 -3 -15 -6 3 -3 -5 -18 -19 -32 -13 -15 -24 -31 -24 -37 0
-11 -52 -45 -80 -54 -29 -9 -116 -2 -170 13 -30 9 -100 26 -155 37 -74 16
-106 27 -122 45 -13 13 -23 27 -23 33 0 5 -3 11 -8 13 -19 8 -55 171 -53 240
1 39 3 74 5 77 2 3 7 29 10 56 7 51 10 70 27 160 5 28 15 88 23 135 8 47 19
99 24 115 29 91 71 272 77 328 2 26 9 56 15 67 6 10 13 45 16 76 5 60 30 157
59 234 9 25 21 68 25 95 11 66 115 372 133 394 8 9 18 26 22 39 10 33 80 106
123 128 20 10 43 27 50 37 7 9 17 17 22 17 9 0 36 19 65 48 8 6 20 12 27 12 8
0 40 7 73 15 32 9 86 18 119 21 34 2 86 13 116 24 30 10 64 17 75 14 11 -3 53
-39 93 -79z m434 66 c6 -6 11 -36 9 -58 -1 -9 -14 -7 -48 4 -51 17 -63 27 -63
55 0 15 7 17 48 12 26 -4 50 -9 54 -13z m-1498 -2493 c-11 -38 -24 -49 -44
-38 -12 6 -16 17 -13 35 4 20 11 25 35 25 26 0 29 -3 22 -22z m115 -14 c2 -2
-3 -12 -12 -22 -10 -10 -17 -24 -17 -30 0 -6 -7 -9 -15 -6 -11 5 -13 13 -9 28
4 11 7 27 7 34 0 11 32 8 46 -4z m3799 -29 c30 -33 44 -85 23 -85 -15 0 -61
64 -61 84 0 9 -4 14 -10 11 -5 -3 -10 1 -10 9 0 26 25 18 58 -19z m-3684 -11
c15 -40 7 -52 -34 -51 -44 2 -47 7 -24 42 18 28 49 33 58 9z m136 -39 c0 -30
-3 -34 -22 -32 -15 1 -25 11 -29 27 -7 33 -3 40 27 40 21 0 24 -5 24 -35z
m3435 -5 c-3 -5 1 -10 9 -10 9 0 16 -6 16 -14 0 -7 7 -19 15 -26 20 -16 19
-29 -2 -37 -10 -4 -24 -15 -31 -25 -23 -32 -35 -19 -49 57 -5 25 16 65 34 65
8 0 11 -4 8 -10z m-109 -115 c20 -38 14 -53 -24 -57 -19 -2 -26 4 -37 35 -11
33 -11 38 4 47 27 16 37 11 57 -25z m-147 -35 c30 -41 24 -64 -15 -68 -29 -3
-32 0 -38 33 -4 20 -10 43 -13 51 -11 29 42 15 66 -16z m-542 -2 c-2 -7 4 -24
14 -37 24 -30 24 -48 0 -61 -23 -12 -54 -13 -47 -2 2 4 -4 27 -14 50 l-19 43
22 9 c32 13 49 12 44 -2z m-119 -75 c23 -63 23 -64 -11 -78 -44 -18 -71 -22
-72 -10 0 6 -3 15 -6 20 -4 6 -9 22 -13 36 -5 24 -2 29 32 42 51 22 58 21 70
-10z m-1600 -40 c6 -6 12 -33 12 -58 l0 -47 -42 7 c-24 4 -44 8 -44 9 -1 0 -4
25 -6 54 l-5 53 36 -3 c20 -2 42 -8 49 -15z m1418 -7 c3 -8 6 -20 8 -28 1 -7
5 -19 10 -26 12 -20 -6 -33 -55 -37 -42 -4 -45 -3 -67 32 -13 20 -21 42 -18
49 3 7 24 15 48 17 24 2 49 4 56 5 7 1 15 -4 18 -12z m-1268 -22 c23 -5 28
-10 25 -25 -3 -10 -2 -27 2 -36 9 -26 5 -28 -48 -28 -35 0 -46 3 -42 13 3 8 5
29 5 48 0 36 5 39 58 28z m1062 -10 c0 -8 11 -30 25 -48 l25 -33 -67 -6 c-73
-7 -83 -2 -83 45 0 15 -5 30 -11 34 -18 11 4 19 60 21 41 2 51 0 51 -13z
m-188 -17 c-1 -8 2 -18 8 -22 5 -3 10 -17 10 -30 0 -26 -22 -42 -55 -41 -17 1
-20 9 -21 53 -2 46 0 52 19 56 32 6 42 2 39 -16z m-708 7 c9 -3 16 -17 16 -29
0 -13 5 -27 10 -30 18 -11 11 -22 -12 -19 -13 1 -30 3 -39 3 -9 1 -20 12 -23
25 -3 13 -9 31 -12 40 -5 12 0 16 19 16 14 0 32 -3 41 -6z m576 -30 c6 -14 10
-36 10 -50 0 -24 -2 -25 -57 -22 -58 3 -58 3 -63 38 -4 20 -10 41 -14 48 -5 9
8 12 54 12 56 0 61 -2 70 -26z m-370 3 c0 -6 3 -21 6 -32 5 -19 1 -21 -50 -21
-32 0 -56 5 -56 11 0 5 -3 20 -6 31 -5 20 -2 21 50 23 39 1 56 -3 56 -12z
m160 -6 c0 -9 5 -22 12 -29 16 -16 10 -19 -42 -23 l-45 -4 -3 37 -3 37 40 -1
c32 0 41 -4 41 -17z"/>
</g>
</svg>
