<?xml version="1.0" standalone="no"?>
<!DOCTYPE svg PUBLIC "-//W3C//DTD SVG 20010904//EN"
 "http://www.w3.org/TR/2001/REC-SVG-20010904/DTD/svg10.dtd">
<svg version="1.0" xmlns="http://www.w3.org/2000/svg"
 width="453.000000pt" height="325.000000pt" viewBox="0 0 453.000000 325.000000"
 preserveAspectRatio="xMidYMid meet">
<metadata>
Created by potrace 1.16, written by Peter Selinger 2001-2019
</metadata>
<g transform="translate(0.000000,325.000000) scale(0.100000,-0.100000)"
fill="#000000" stroke="none">
<path d="M2480 2933 c-8 -1 -114 -4 -235 -7 -121 -2 -233 -7 -250 -9 -16 -3
-57 -8 -90 -12 -33 -3 -71 -7 -85 -9 -14 -2 -54 -7 -90 -11 -36 -3 -112 -17
-170 -30 -58 -13 -132 -29 -165 -36 -33 -7 -71 -18 -85 -25 -14 -7 -41 -18
-60 -25 -63 -23 -133 -81 -146 -121 -3 -10 -10 -18 -15 -18 -5 0 -9 -7 -9 -15
0 -8 -3 -15 -8 -15 -13 0 -32 -54 -31 -90 0 -19 -3 -46 -7 -60 -10 -36 -21
-270 -17 -370 5 -115 41 -352 64 -421 10 -31 20 -71 22 -90 4 -32 25 -79 144
-329 61 -128 93 -207 93 -231 0 -10 6 -22 13 -26 15 -9 36 -45 62 -110 15 -37
115 -158 115 -140 0 4 26 -19 58 -51 58 -57 190 -152 212 -152 7 0 24 -6 38
-14 45 -24 145 -55 192 -60 25 -3 79 -10 120 -17 119 -18 328 -13 443 11 55
12 107 25 116 30 9 4 61 20 116 35 151 40 230 82 312 166 108 111 154 167 183
223 17 34 44 81 60 106 92 143 160 296 220 500 17 58 40 134 50 170 11 36 29
103 41 150 11 47 25 101 30 120 5 19 12 44 14 55 3 11 9 31 14 45 5 14 17 59
26 100 10 41 24 98 31 125 17 66 10 286 -12 332 -39 85 -49 103 -61 103 -6 0
-20 11 -31 24 -10 14 -41 31 -68 40 -92 28 -159 45 -224 56 -95 17 -96 18
-179 39 -100 26 -297 52 -375 51 -33 -1 -98 3 -144 10 -71 9 -175 11 -232 3z
m383 -108 c147 -11 263 -26 312 -39 28 -8 73 -17 100 -22 28 -4 55 -8 60 -10
6 -1 28 -5 50 -9 22 -3 56 -11 75 -17 19 -6 42 -12 50 -13 37 -5 110 -30 110
-38 0 -4 5 -5 10 -2 6 3 10 -5 10 -19 0 -14 5 -28 10 -31 6 -3 10 -16 10 -28
0 -13 8 -29 18 -38 15 -13 18 -31 17 -115 0 -73 -4 -104 -15 -118 -42 -50 -89
-97 -120 -120 -56 -41 -210 -116 -252 -122 -21 -4 -38 -11 -38 -17 0 -6 -3 -8
-6 -4 -3 3 -31 -3 -62 -14 -54 -19 -221 -52 -238 -48 -5 1 -29 0 -54 -4 -48
-7 -141 -14 -285 -23 -49 -3 -106 -9 -125 -13 -43 -10 -225 -4 -300 9 -30 5
-91 12 -135 15 -44 4 -98 12 -120 18 -22 6 -51 12 -65 13 -21 3 -56 9 -105 19
-138 30 -245 69 -389 142 -83 42 -176 117 -176 142 0 6 -4 11 -8 11 -5 0 -17
18 -27 41 -35 77 -20 179 37 250 38 47 209 119 283 119 19 0 54 6 77 14 45 15
82 22 158 31 25 3 74 10 110 15 100 16 287 30 480 36 96 3 176 6 177 7 2 3
281 -11 366 -18z m-1674 -680 c-8 -11 -15 -59 -24 -180 -7 -91 -14 -147 -19
-152 -4 -4 -26 137 -32 207 -2 25 -6 70 -9 100 -3 30 -3 69 1 87 l6 31 43 -41
c24 -24 39 -46 34 -52z m2476 -7 c-3 -13 -16 -54 -29 -93 -14 -38 -28 -87 -32
-107 -7 -42 -19 -50 -22 -15 -1 12 -8 54 -16 94 l-13 72 51 34 c62 42 66 43
61 15z m-2304 -130 c-6 -112 -9 -148 -15 -218 -4 -41 -12 -94 -18 -118 -11
-42 -12 -43 -49 -40 -36 2 -39 4 -40 32 -1 17 -3 42 -4 56 -4 32 30 339 40
362 7 16 10 16 48 -7 39 -23 41 -26 38 -67z m2117 -35 c7 -38 12 -113 12 -168
-1 -55 -1 -113 -1 -130 0 -17 9 -37 19 -45 15 -12 17 -20 9 -38 -10 -23 -27
-30 -27 -12 0 6 -16 8 -42 4 -25 -4 -39 -3 -35 2 6 11 -18 352 -29 395 -5 23
-1 28 33 41 21 9 40 16 43 17 3 1 11 -29 18 -66z m-1961 21 c49 -14 54 -18 48
-37 -3 -12 -10 -64 -15 -115 -5 -51 -11 -96 -14 -101 -3 -4 -8 -43 -11 -87 -3
-43 -8 -80 -10 -82 -7 -7 -48 6 -70 22 -18 13 -20 24 -18 100 2 48 7 114 13
149 5 34 10 86 11 115 1 28 4 52 7 52 2 0 29 -7 59 -16z m1782 -76 c18 -66 26
-163 23 -265 l-3 -92 -31 -10 c-45 -16 -48 -14 -48 22 0 18 -4 37 -9 42 -5 6
-15 64 -21 130 -6 66 -13 136 -16 156 -6 36 -5 37 37 51 24 9 47 14 50 12 3
-2 12 -23 18 -46z m-1424 -12 c61 -15 416 -56 500 -58 19 -1 200 12 240 17 57
7 146 14 250 21 50 3 115 12 146 20 31 7 61 14 67 14 9 0 19 -33 41 -135 5
-27 11 -106 13 -174 l3 -124 -25 -7 c-43 -12 -116 -64 -158 -112 -55 -64 -164
-231 -196 -300 -14 -32 -37 -82 -50 -110 -26 -58 -42 -111 -51 -173 -4 -22
-11 -58 -17 -80 -6 -22 -11 -59 -11 -82 0 -42 -1 -43 -49 -59 -42 -14 -124
-20 -298 -25 -19 0 -61 3 -92 7 l-58 7 -1 36 c-1 81 -7 129 -22 194 -10 38
-17 81 -17 96 0 29 -23 114 -43 161 -6 14 -12 34 -14 45 -5 25 -53 121 -84
167 -24 36 -126 148 -134 148 -2 0 -33 20 -69 46 -36 25 -69 45 -73 46 -4 0
-19 8 -32 16 -24 16 -24 17 -18 157 7 164 12 205 31 250 l14 33 74 -14 c40 -7
100 -20 133 -28z m-420 -435 c49 -18 95 -37 102 -42 7 -6 17 -8 23 -4 5 3 10
-1 10 -9 0 -9 6 -16 14 -16 14 0 108 -61 138 -89 9 -9 31 -30 50 -47 36 -32
88 -98 88 -110 0 -4 13 -28 29 -53 17 -25 34 -64 40 -86 5 -22 18 -74 29 -115
34 -131 51 -223 52 -282 l0 -57 -84 29 c-77 26 -122 46 -136 60 -3 3 -17 11
-31 19 -15 7 -64 49 -110 92 -46 43 -87 78 -90 79 -4 0 -19 19 -35 43 -16 23
-35 48 -41 55 -7 7 -13 21 -13 30 0 10 -7 28 -16 40 -8 12 -12 22 -9 22 3 0
-5 21 -18 48 -14 26 -39 76 -57 112 -17 36 -40 79 -50 95 -30 47 -67 130 -75
164 -4 17 -11 31 -17 31 -5 0 -8 8 -6 18 4 22 74 33 103 17 11 -7 60 -26 110
-44z m2015 -11 c0 -5 -9 -33 -21 -62 -11 -29 -27 -71 -34 -93 -14 -41 -98
-194 -112 -204 -4 -3 -19 -28 -33 -56 -23 -47 -65 -114 -100 -160 -32 -42
-148 -153 -154 -148 -3 4 -6 1 -6 -5 0 -25 -200 -112 -258 -112 -17 0 -10 123
8 145 6 8 9 19 5 25 -8 13 54 177 96 251 43 78 106 178 118 189 4 3 19 23 36
45 41 57 40 56 140 104 144 69 315 114 315 81z"/>
</g>
</svg>
