<?xml version="1.0" standalone="no"?>
<!DOCTYPE svg PUBLIC "-//W3C//DTD SVG 20010904//EN"
 "http://www.w3.org/TR/2001/REC-SVG-20010904/DTD/svg10.dtd">
<svg version="1.0" xmlns="http://www.w3.org/2000/svg"
 width="501.000000pt" height="403.000000pt" viewBox="0 0 501.000000 403.000000"
 preserveAspectRatio="xMidYMid meet">
<metadata>
Created by potrace 1.16, written by Peter Selinger 2001-2019
</metadata>
<g transform="translate(0.000000,403.000000) scale(0.100000,-0.100000)"
fill="#000000" stroke="none">
<path d="M1960 3649 c-60 -19 -83 -26 -180 -60 -19 -6 -43 -16 -52 -20 -27
-14 -48 -11 -48 6 0 9 -7 18 -15 21 -8 4 -15 12 -15 20 0 28 -82 47 -106 25
-5 -5 -31 -14 -59 -19 -77 -16 -168 -45 -190 -61 -31 -23 -293 -101 -340 -101
-14 0 -39 -7 -56 -15 -16 -9 -48 -18 -72 -21 -46 -6 -292 -68 -344 -87 -18 -6
-33 -15 -33 -19 0 -4 -5 -8 -12 -8 -11 0 -81 -43 -104 -65 -6 -5 -24 -21 -40
-34 -29 -23 -30 -24 -19 -75 15 -67 22 -82 62 -139 18 -26 33 -50 33 -53 0 -3
10 -20 22 -37 12 -17 23 -38 24 -46 1 -9 17 -54 36 -101 20 -47 41 -104 48
-127 7 -23 17 -40 21 -37 5 3 11 -8 15 -23 3 -15 20 -66 36 -113 28 -78 42
-114 70 -180 20 -47 27 -65 52 -138 14 -40 28 -84 30 -97 3 -14 12 -40 21 -58
29 -58 105 -356 105 -413 0 -22 5 -45 11 -51 6 -6 12 -35 14 -64 2 -30 8 -67
14 -82 6 -16 9 -32 6 -37 -3 -5 -1 -10 5 -12 6 -2 12 -26 14 -53 2 -28 11 -72
19 -100 19 -58 30 -109 25 -111 -2 -1 4 -10 13 -20 9 -11 22 -37 29 -59 7 -22
19 -44 26 -48 8 -4 14 -14 14 -22 0 -7 3 -15 8 -17 8 -3 52 -64 52 -72 0 -14
60 -65 90 -76 19 -7 49 -19 65 -26 78 -34 144 -57 190 -65 133 -24 188 -31
280 -34 55 -1 129 -6 165 -9 36 -4 160 -9 275 -11 116 -2 221 -6 235 -8 75
-12 110 -17 155 -22 28 -3 82 -12 120 -20 39 -8 86 -17 105 -20 19 -3 55 -11
80 -16 25 -6 70 -15 100 -19 30 -5 66 -11 80 -13 14 -3 61 -10 105 -17 79 -12
199 -45 285 -80 41 -17 115 -34 260 -59 57 -10 311 -7 345 4 86 28 165 92 210
169 29 49 45 59 78 47 28 -10 75 -8 107 6 57 25 116 53 130 63 8 6 32 17 52
25 21 8 44 25 51 38 7 12 30 49 49 82 41 68 63 142 84 285 5 35 -12 132 -38
214 -21 68 -67 155 -108 206 -11 14 -20 30 -20 35 0 9 -28 37 -136 136 -21 20
-50 40 -64 44 -14 4 -27 11 -30 15 -6 8 -66 44 -165 96 -75 40 -220 85 -323
100 -32 4 -68 11 -172 30 -14 2 -36 9 -50 14 -47 18 -215 58 -274 65 -33 4
-70 11 -82 15 -13 5 -59 11 -104 14 -44 3 -85 8 -90 11 -6 3 -10 2 -10 -3 0
-11 -72 -5 -110 8 -14 4 -32 9 -40 9 -62 4 -129 24 -140 42 -4 5 -28 11 -56
13 -59 5 -81 13 -88 32 -3 8 -13 14 -23 14 -20 1 -53 23 -53 36 0 5 -14 22
-30 38 -16 15 -36 44 -46 65 -9 20 -27 58 -40 84 -13 27 -24 56 -24 65 0 9 -7
31 -16 47 -9 17 -22 50 -30 75 -7 25 -33 103 -58 174 -25 72 -46 138 -46 148
0 10 -5 26 -10 36 -16 27 -77 223 -85 272 -4 24 -11 51 -16 60 -5 8 -20 44
-34 80 -14 36 -35 81 -45 101 -11 20 -26 62 -34 95 -20 83 -32 111 -55 123
-24 13 -12 14 -91 -10z m-411 -165 c3 -15 1 -16 -11 -6 -8 6 -18 9 -21 5 -4
-3 -7 -2 -7 4 0 29 33 27 39 -3z m425 20 c9 -3 16 -13 16 -21 0 -8 8 -27 19
-41 22 -32 54 -101 71 -157 7 -22 17 -46 23 -52 5 -7 6 -13 3 -13 -4 0 -2 -9
4 -19 5 -11 12 -35 14 -55 3 -19 11 -48 19 -63 8 -15 22 -59 32 -98 9 -38 24
-85 32 -104 18 -41 34 -89 38 -118 2 -12 7 -28 11 -35 5 -7 9 -17 11 -23 7
-31 76 -225 91 -255 9 -19 17 -39 18 -45 2 -29 17 -75 24 -75 4 0 11 -15 14
-34 4 -19 10 -36 14 -38 10 -5 52 -66 52 -77 0 -5 7 -11 15 -15 8 -3 15 -13
15 -21 0 -26 93 -103 135 -111 22 -4 142 -47 166 -60 15 -7 29 -11 31 -8 3 2
18 0 34 -6 35 -14 152 -28 289 -36 54 -3 131 -12 170 -20 38 -9 79 -17 90 -18
11 -2 36 -6 55 -10 19 -3 48 -8 63 -10 15 -3 67 -16 115 -30 48 -13 125 -32
170 -40 46 -9 88 -18 93 -22 5 -3 21 -8 36 -10 14 -3 38 -11 53 -19 15 -8 30
-12 33 -9 3 3 22 -4 43 -15 21 -12 45 -21 53 -21 8 0 29 -11 46 -24 18 -14 44
-28 59 -32 14 -3 29 -10 32 -15 3 -5 12 -9 20 -9 22 0 142 -81 191 -129 52
-51 117 -146 133 -197 7 -21 21 -47 32 -58 10 -11 19 -34 19 -51 4 -92 -3
-250 -10 -259 -5 -6 -15 -31 -22 -56 -7 -25 -18 -52 -24 -60 -7 -8 -15 -23
-18 -32 -4 -10 -13 -18 -21 -18 -8 0 -16 -5 -18 -11 -2 -5 -10 -11 -18 -12 -8
-2 -26 -10 -40 -20 -31 -20 -91 -42 -144 -51 l-39 -7 8 43 c18 101 21 141 19
266 -1 75 -6 138 -12 145 -6 7 -14 28 -17 47 -3 19 -24 71 -47 115 -43 85
-129 180 -203 225 -22 13 -42 26 -45 30 -3 3 -25 19 -50 35 -25 16 -48 34 -52
40 -4 5 -8 7 -8 3 0 -4 -16 1 -35 12 -20 11 -42 20 -50 20 -7 0 -44 14 -81 31
-42 19 -86 32 -118 34 -58 3 -207 24 -219 32 -4 3 -58 7 -120 9 -117 4 -134 6
-259 30 -42 8 -105 17 -140 20 -65 4 -74 6 -168 24 -30 5 -70 12 -89 15 -19 3
-38 8 -42 11 -5 2 -45 9 -89 14 -44 5 -95 16 -113 24 -17 8 -46 17 -63 21 -18
3 -40 15 -49 25 -9 10 -31 22 -47 25 -18 4 -32 15 -35 26 -3 10 -9 16 -14 13
-15 -9 -51 33 -48 58 3 27 -5 70 -30 153 -10 33 -19 69 -19 80 0 11 -12 55
-27 98 -14 43 -23 82 -20 87 3 5 1 17 -4 27 -11 19 -94 268 -107 318 -4 17 -8
35 -10 40 -2 6 -6 20 -10 33 -4 13 -2 22 4 22 6 0 15 -15 21 -34 5 -19 15 -41
22 -49 22 -23 49 21 46 72 -1 22 -5 41 -8 41 -10 0 -19 27 -39 120 -15 74 -89
255 -117 292 -6 7 -17 35 -26 63 -17 54 -11 68 28 63 15 -2 19 -9 17 -28 -2
-17 7 -35 28 -57 35 -36 99 -168 107 -222 3 -20 9 -41 14 -46 12 -16 40 -135
42 -182 2 -38 4 -41 27 -38 14 2 31 4 38 4 6 1 12 7 12 15 0 8 5 16 11 18 9 3
9 9 1 23 -6 11 -17 35 -24 53 -7 17 -16 32 -19 32 -4 0 -9 17 -12 38 -7 49
-47 184 -58 197 -5 5 -9 16 -9 24 0 19 -48 120 -71 150 -33 42 -16 64 35 45z
m-524 -42 c0 -13 2 -13 15 4 16 21 17 18 20 -39 1 -21 7 -48 12 -60 6 -12 20
-43 31 -69 12 -26 33 -91 47 -145 15 -54 33 -120 41 -148 8 -27 18 -60 21 -72
3 -13 9 -23 13 -23 4 0 10 -13 13 -29 7 -35 29 -44 63 -29 22 10 25 17 20 42
-4 16 -13 37 -21 46 -8 9 -12 20 -8 24 4 4 3 10 -3 14 -20 14 -49 89 -58 155
-3 20 -10 45 -15 55 -5 9 -24 64 -41 122 -18 58 -35 112 -37 120 -3 8 4 0 16
-18 12 -18 21 -42 21 -53 0 -11 7 -22 15 -25 8 -4 13 -9 11 -13 -3 -3 7 -29
20 -56 13 -28 27 -63 30 -80 3 -16 9 -34 14 -40 5 -7 11 -21 13 -32 2 -12 8
-27 13 -35 6 -7 16 -33 24 -58 7 -25 17 -49 22 -54 4 -6 8 -19 8 -29 0 -17 25
-103 75 -252 24 -74 38 -128 37 -147 0 -10 3 -18 7 -18 5 0 11 -10 14 -22 3
-13 26 -104 52 -203 25 -99 50 -213 55 -254 8 -65 13 -77 41 -102 18 -16 36
-29 40 -29 4 0 10 -9 14 -19 3 -11 32 -30 70 -47 36 -15 65 -31 65 -36 0 -5 4
-7 9 -4 4 3 27 -3 49 -14 23 -11 52 -20 66 -20 14 0 27 -4 30 -8 3 -5 19 -8
36 -7 17 1 33 -2 36 -7 3 -4 18 -8 33 -8 15 0 70 -9 122 -20 84 -17 181 -31
319 -45 25 -3 68 -10 95 -15 56 -11 110 -16 240 -25 50 -3 101 -8 115 -10 14
-2 77 -11 140 -20 113 -17 300 -76 300 -96 0 -5 7 -9 16 -9 17 0 118 -63 129
-80 3 -6 14 -10 23 -10 9 0 26 -14 37 -30 11 -16 23 -30 28 -30 4 0 7 -7 7
-15 0 -8 5 -15 10 -15 6 0 14 -8 17 -17 4 -10 16 -27 28 -38 24 -23 85 -172
85 -209 0 -14 3 -27 8 -30 8 -5 6 -177 -3 -269 -9 -90 -33 -147 -83 -199 -81
-84 -176 -120 -313 -119 -59 0 -235 31 -319 56 -25 7 -66 16 -92 20 -26 3 -54
13 -62 21 -8 8 -25 14 -38 14 -13 0 -33 6 -44 14 -11 8 -45 19 -75 25 -65 14
-65 14 -110 33 -33 15 -166 46 -236 56 -18 2 -33 8 -33 14 0 5 -4 7 -9 4 -4
-3 -23 0 -42 6 -21 7 -140 12 -309 13 -151 1 -358 8 -460 15 -102 6 -241 13
-310 15 -69 2 -136 6 -150 9 -59 14 -96 20 -107 18 -7 -2 -13 2 -13 8 0 5 -6
10 -14 10 -31 0 -151 72 -194 117 -52 55 -116 158 -107 173 3 6 1 10 -5 10
-15 0 -32 46 -36 100 -2 25 -8 56 -13 70 -12 31 -31 102 -30 114 0 5 -5 12
-11 16 -6 4 -12 29 -12 56 0 27 -4 63 -9 79 -5 17 -11 50 -14 74 -3 23 -7 47
-10 52 -3 4 -15 48 -26 96 -11 48 -21 95 -24 103 -28 102 -39 143 -51 185 -9
28 -28 100 -44 160 -44 169 -98 321 -161 451 -21 45 -39 88 -39 97 0 9 -4 19
-10 22 -5 3 -10 16 -10 29 0 12 -5 27 -10 32 -6 6 -12 24 -14 40 -2 16 -9 40
-14 54 -5 14 -10 27 -10 30 0 3 -5 18 -11 33 -6 16 -11 32 -11 36 0 5 -6 14
-14 20 -7 6 -16 25 -20 41 -3 18 -12 30 -21 30 -20 0 -19 19 0 27 9 3 22 -3
31 -13 33 -42 84 -124 84 -136 0 -7 21 -49 46 -92 41 -70 46 -84 47 -144 1
-56 5 -73 28 -105 15 -21 33 -64 40 -95 13 -67 23 -82 55 -82 27 0 44 41 26
63 -6 6 -10 17 -10 22 -1 31 -14 95 -21 95 -4 0 -15 16 -24 35 -9 19 -21 35
-26 35 -5 0 -8 23 -6 51 3 54 -19 135 -45 166 -8 10 -20 29 -26 43 -55 118
-80 163 -101 180 -26 20 -29 18 42 36 51 12 55 13 56 1 2 -30 11 -62 23 -86
28 -50 44 -87 74 -161 42 -102 56 -130 65 -130 4 0 7 -6 7 -14 0 -8 5 -16 11
-18 6 -2 14 -37 19 -77 4 -40 13 -78 19 -84 6 -6 11 -18 11 -27 0 -8 5 -32 11
-52 8 -30 15 -38 32 -38 13 0 28 5 34 11 12 12 1 79 -22 136 -9 21 -18 54 -20
75 -5 45 -31 108 -44 108 -6 0 -11 8 -11 18 0 9 -7 25 -14 35 -8 10 -27 57
-42 105 -15 48 -36 98 -46 111 -9 12 -20 39 -24 60 -4 20 -8 44 -10 53 -2 13
6 19 32 24 45 8 64 0 64 -29 0 -13 3 -27 7 -31 4 -3 8 -13 10 -21 10 -50 36
-125 42 -125 3 0 11 -12 18 -27 34 -81 45 -110 49 -133 3 -13 13 -40 24 -60
27 -53 47 -119 55 -179 9 -77 19 -93 58 -88 28 3 32 7 32 33 0 16 -5 40 -11
54 -6 14 -10 34 -8 44 1 11 -5 33 -13 50 -9 17 -18 38 -19 46 -4 24 -28 84
-45 110 -8 14 -21 45 -29 70 -7 25 -22 62 -33 84 -10 21 -20 46 -23 55 -25
105 -43 147 -65 158 -22 12 -22 13 -4 14 11 0 27 2 35 5 65 17 69 17 63 -5 -3
-13 1 -29 12 -40 9 -11 18 -32 20 -47 1 -16 8 -30 14 -32 6 -2 11 -10 11 -18
0 -8 11 -37 25 -66 14 -28 25 -58 25 -65 0 -7 11 -37 24 -68 14 -30 23 -55 21
-55 -4 0 16 -52 41 -106 8 -17 14 -35 12 -40 -6 -19 40 -64 66 -64 24 0 26 2
21 41 -3 22 -17 63 -30 89 -14 27 -25 56 -25 63 0 8 -7 20 -15 27 -8 7 -22 38
-31 69 -9 31 -20 60 -25 65 -5 6 -9 21 -9 35 0 15 -12 46 -25 70 -14 24 -24
46 -21 48 2 2 -4 27 -14 55 -15 44 -16 54 -4 65 8 8 14 18 14 22 0 5 17 13 39
18 l39 10 4 -46 c3 -26 25 -88 50 -141 47 -98 98 -239 98 -269 0 -10 8 -35 19
-57 10 -21 25 -72 32 -111 12 -66 16 -73 37 -73 49 0 62 41 34 110 -5 14 -16
45 -23 70 -7 25 -21 61 -31 80 -10 19 -18 43 -18 52 0 10 -4 26 -9 36 -6 9
-13 31 -17 47 -11 45 -21 70 -64 161 -32 66 -46 130 -37 167 5 19 69 67 90 67
7 0 -6 -45 -23 -81 -10 -23 -8 -29 18 -57 16 -17 33 -44 37 -59 5 -24 31 -83
91 -207 8 -16 14 -36 14 -44 0 -19 23 -85 32 -92 12 -10 48 -115 48 -143 0
-33 17 -42 54 -27 27 10 28 13 22 54 -4 24 -24 77 -46 118 -21 41 -42 92 -46
114 -4 21 -16 57 -27 79 -40 79 -46 92 -67 151 -12 32 -28 73 -36 91 -8 17
-14 35 -13 40 4 22 -3 35 -23 43 -20 9 -20 10 -3 8 27 -3 45 9 45 32 0 10 8
20 18 23 23 5 32 -1 32 -21z m419 -344 c16 -35 28 -70 28 -78 0 -8 3 -40 6
-70 7 -60 0 -45 -27 60 -7 30 -20 76 -29 103 -8 26 -13 47 -10 47 2 0 17 -28
32 -62z"/>
<path d="M1159 1572 c-32 -27 -19 -56 22 -50 20 3 33 0 36 -9 3 -7 10 -13 15
-13 6 0 32 -16 58 -35 26 -19 53 -35 60 -35 15 0 68 -36 97 -67 22 -23 48 -30
57 -15 3 5 -6 20 -20 35 -13 14 -24 30 -24 35 0 11 -46 51 -73 62 -29 13 -52
28 -110 73 -54 41 -84 46 -118 19z"/>
<path d="M1576 1284 c-14 -36 -5 -67 29 -101 26 -26 35 -44 35 -67 0 -22 8
-39 26 -55 17 -15 24 -29 21 -42 -3 -12 0 -19 9 -19 7 0 19 -10 25 -22 7 -13
15 -25 19 -28 3 -3 15 -39 26 -80 20 -73 21 -75 52 -75 19 -1 32 5 33 12 4 39
1 52 -19 90 -12 23 -22 48 -22 56 0 8 -11 26 -25 41 -14 15 -25 33 -25 40 0 7
-3 16 -7 20 -5 4 -8 11 -8 14 -2 18 -17 52 -24 52 -4 0 -13 17 -19 38 -10 34
-20 49 -62 99 -5 7 -10 19 -10 28 0 20 -46 20 -54 -1z"/>
</g>
</svg>
