<?xml version="1.0" standalone="no"?>
<!DOCTYPE svg PUBLIC "-//W3C//DTD SVG 20010904//EN"
 "http://www.w3.org/TR/2001/REC-SVG-20010904/DTD/svg10.dtd">
<svg version="1.0" xmlns="http://www.w3.org/2000/svg"
 width="473.000000pt" height="477.000000pt" viewBox="0 0 473.000000 477.000000"
 preserveAspectRatio="xMidYMid meet">
<metadata>
Created by potrace 1.16, written by Peter Selinger 2001-2019
</metadata>
<g transform="translate(0.000000,477.000000) scale(0.100000,-0.100000)"
fill="#000000" stroke="none">
<path d="M1805 4648 c-49 -10 -95 -24 -102 -31 -7 -7 -14 -59 -18 -137 -3 -69
-11 -148 -17 -176 -6 -28 -8 -69 -6 -90 3 -21 -1 -79 -9 -128 -7 -48 -13 -102
-13 -120 3 -150 -11 -363 -31 -464 -35 -186 -76 -297 -144 -387 -56 -74 -124
-135 -150 -135 -7 0 -19 -7 -26 -16 -13 -16 -147 -84 -165 -84 -5 0 -16 -13
-25 -28 -15 -27 -18 -148 -4 -192 4 -14 2 -20 -8 -20 -29 0 -40 -30 -42 -113
-2 -82 -3 -91 -25 -163 -6 -22 -14 -77 -16 -124 -3 -47 -7 -101 -9 -120 -3
-19 -7 -69 -10 -110 -10 -140 -25 -244 -35 -254 -5 -5 -10 -28 -10 -49 0 -21
-6 -53 -14 -70 -29 -68 -37 -94 -36 -128 3 -65 -10 -242 -19 -253 -12 -16 -29
-91 -36 -161 -3 -33 -13 -85 -21 -116 -8 -31 -14 -72 -14 -90 0 -19 -7 -56
-16 -84 -8 -27 -24 -93 -34 -145 -11 -52 -26 -126 -35 -165 -8 -38 -15 -89
-15 -111 0 -94 39 -218 65 -208 7 3 19 -2 28 -10 8 -8 18 -12 22 -8 6 6 118
14 165 12 8 0 140 -2 292 -3 263 -3 278 -4 295 -23 23 -25 59 -28 95 -6 25 15
28 21 28 72 0 31 9 105 20 166 12 60 23 121 25 136 2 15 6 32 10 38 7 11 8 21
20 105 4 27 15 72 25 100 19 53 41 135 60 225 7 30 23 75 35 100 13 25 31 72
40 105 22 73 86 238 125 320 16 33 40 85 53 115 23 52 112 170 129 170 4 0 12
-19 19 -42 6 -24 14 -47 19 -53 4 -5 15 -44 25 -85 10 -41 24 -87 31 -102 8
-15 21 -58 30 -95 8 -37 19 -72 24 -78 11 -14 40 -118 40 -144 0 -12 4 -21 8
-21 5 0 10 -12 10 -28 3 -43 7 -61 20 -74 7 -7 12 -42 12 -85 0 -43 6 -85 14
-101 7 -15 17 -58 20 -97 8 -81 12 -112 20 -152 3 -15 8 -55 12 -88 3 -33 8
-64 11 -68 7 -12 22 -122 29 -210 8 -108 15 -129 53 -151 26 -15 37 -16 54 -8
24 12 77 18 232 27 135 8 149 8 230 2 277 -24 320 -25 333 -9 16 21 15 78 -3
138 -16 54 -41 188 -51 274 -3 30 -8 58 -10 62 -3 4 -7 22 -9 40 -2 18 -9 73
-15 122 -6 49 -13 92 -15 96 -2 3 -8 44 -15 90 -6 47 -16 101 -22 120 -6 19
-12 44 -13 55 -5 45 -28 186 -45 275 -11 52 -22 129 -25 170 -4 41 -13 107
-21 145 -15 69 -18 94 -28 190 -3 28 -10 93 -16 145 -24 212 -28 359 -16 623
5 116 4 144 -10 173 -9 18 -20 32 -24 29 -9 -6 -102 53 -113 71 -4 8 -16 14
-25 14 -37 0 -130 88 -181 172 -28 45 -51 89 -51 98 0 9 -5 21 -10 26 -12 12
-40 181 -46 272 -2 35 -6 72 -9 82 -4 12 2 27 15 40 17 17 20 32 19 93 -1 63
13 214 27 287 2 14 7 48 9 75 9 91 25 189 39 240 8 28 20 85 26 129 15 100 8
110 -81 107 -34 -1 -67 -4 -72 -8 -5 -3 -41 -7 -78 -9 -82 -3 -91 -8 -83 -40
5 -19 -2 -34 -35 -69 -22 -24 -41 -49 -41 -54 0 -14 -119 -135 -174 -175 -45
-34 -49 -35 -62 -19 -7 10 -13 25 -13 33 0 19 -49 176 -65 210 -23 47 -41 75
-53 83 -7 4 -13 16 -13 25 0 10 -5 23 -12 30 -7 7 -9 12 -5 12 12 0 -23 60
-36 62 -53 7 -136 1 -212 -14z m140 -142 c4 -35 4 -87 0 -117 -5 -30 -9 -148
-10 -264 -1 -201 -6 -257 -26 -335 -8 -33 -11 -35 -56 -39 -93 -7 -98 -7 -116
16 -15 19 -17 37 -12 150 3 70 10 155 17 188 6 33 12 92 13 130 6 198 23 323
42 312 5 -2 31 3 58 12 74 25 82 20 90 -53z m809 -43 c-2 -10 -13 -58 -25
-107 -11 -49 -27 -151 -34 -225 -8 -75 -21 -167 -29 -206 -9 -38 -16 -96 -16
-127 0 -69 -17 -92 -57 -77 -15 5 -39 7 -55 4 l-28 -7 5 74 c3 40 12 102 20
138 31 134 42 198 50 295 2 17 9 79 16 138 12 95 16 108 31 104 10 -3 20 -2
22 2 3 4 27 8 55 10 43 2 49 0 45 -16z m-689 -60 c8 -20 14 -41 13 -47 -3 -13
41 -135 77 -211 13 -27 26 -63 30 -80 6 -26 70 -142 86 -155 10 -8 31 -51 27
-55 -2 -2 -24 15 -48 38 -25 23 -58 50 -73 60 -15 9 -27 26 -27 37 0 10 -8 21
-18 24 -10 4 -42 31 -71 61 l-53 55 6 107 c12 217 20 241 51 166z m435 -123
c-5 -25 -9 -69 -10 -97 0 -29 -5 -53 -10 -53 -6 0 -26 -16 -44 -35 -19 -19
-38 -35 -43 -35 -4 0 -21 -15 -37 -34 -32 -39 -37 -37 -72 24 l-20 35 120 120
c67 66 122 120 123 120 1 0 -3 -20 -7 -45z m-30 -285 c0 -8 -4 -15 -8 -15 -4
0 -9 -12 -10 -27 -1 -16 -7 -49 -14 -75 l-12 -47 -23 34 c-13 19 -23 38 -23
43 0 14 70 102 80 102 6 0 10 -7 10 -15z m-430 -26 c13 -24 7 -49 -12 -49 -8
0 -13 14 -14 35 -2 39 10 45 26 14z m109 -109 c34 -29 34 -30 16 -49 -9 -11
-26 -23 -36 -26 -17 -6 -36 -41 -31 -59 2 -5 -16 -6 -40 -2 -45 7 -61 16 -40
23 6 3 12 11 12 19 0 8 4 14 9 14 5 0 16 19 26 43 17 44 33 67 44 67 3 -1 21
-14 40 -30z m119 -117 c2 -9 -7 -13 -28 -13 -28 0 -31 2 -20 15 15 18 41 16
48 -2z m-288 -123 c25 -6 77 -10 115 -8 132 5 368 -2 408 -13 45 -12 39 -27
-14 -35 -19 -3 -52 -18 -74 -34 -35 -25 -40 -33 -37 -62 2 -18 11 -41 19 -50
14 -16 12 -16 -31 -12 -30 4 -46 1 -46 -6 0 -7 -35 -10 -104 -9 -58 0 -109 -2
-114 -5 -5 -3 -22 -2 -38 3 -29 8 -83 -5 -96 -24 -4 -5 -8 -21 -8 -35 0 -34
32 -53 73 -44 18 4 110 7 205 8 159 1 175 3 188 20 7 11 12 31 9 44 -3 18 -1
22 6 15 14 -14 17 -58 25 -294 l6 -197 -59 -8 c-32 -4 -87 -9 -123 -11 -79 -3
-292 -13 -339 -16 l-35 -2 2 155 c2 85 3 200 4 255 1 55 -2 123 -6 152 -6 42
-4 53 9 61 9 5 16 11 15 13 -1 2 3 22 9 44 6 22 11 45 11 51 0 22 -27 45 -59
50 -42 7 -87 -12 -123 -51 -32 -35 -29 -56 12 -100 16 -16 34 -50 40 -75 12
-46 17 -211 7 -227 -5 -8 -8 -92 -6 -228 0 -22 -3 -66 -7 -98 -5 -41 -3 -65 7
-84 13 -24 16 -25 69 -18 30 4 64 8 75 9 47 6 465 27 530 26 22 0 45 3 51 7
18 13 23 64 8 98 -9 23 -14 93 -15 241 -3 235 6 353 27 361 21 8 18 70 -3 82
-24 13 -14 21 13 11 19 -7 23 -20 29 -92 19 -212 30 -267 71 -344 53 -100 104
-184 112 -184 4 0 23 -15 43 -33 19 -17 48 -39 65 -47 16 -8 57 -34 90 -57 79
-55 79 -57 79 -373 l0 -245 -39 3 c-22 2 -49 9 -60 15 -12 6 -23 11 -26 12 -3
0 -39 25 -81 55 -90 65 -186 183 -181 223 3 22 -1 25 -38 29 -23 2 -49 -1 -57
-7 -18 -13 -29 -85 -13 -85 5 0 10 -5 10 -11 0 -31 165 -213 217 -240 15 -8
55 -30 88 -50 51 -30 84 -43 150 -55 6 -1 20 -2 32 -3 17 -1 23 -9 28 -43 4
-24 8 -55 11 -69 2 -14 6 -73 9 -131 3 -58 11 -137 19 -174 8 -38 17 -100 20
-139 3 -38 13 -106 21 -150 8 -44 24 -138 35 -210 24 -144 44 -257 66 -355 7
-36 21 -114 29 -175 8 -60 19 -139 24 -175 6 -36 12 -83 15 -105 3 -22 11 -62
18 -88 13 -54 3 -71 -37 -62 -67 15 -230 29 -325 29 -72 -1 -281 -12 -299 -16
-14 -3 -21 18 -34 117 -13 87 -19 122 -32 175 -8 30 -16 82 -18 115 -3 33 -10
80 -16 105 -14 61 -39 212 -47 280 -8 71 -25 141 -64 265 -27 88 -36 116 -55
185 -2 8 -8 30 -14 48 -5 17 -8 32 -5 32 2 0 -2 10 -10 23 -8 12 -22 51 -31
87 -9 36 -21 73 -26 82 -5 10 -9 27 -9 37 0 11 -4 22 -9 25 -4 3 -14 26 -21
51 -10 34 -22 53 -49 71 -41 28 -51 30 -51 9 0 -8 -6 -15 -12 -15 -19 0 -76
-56 -94 -93 -9 -18 -39 -62 -65 -99 -27 -37 -49 -74 -49 -82 0 -7 -6 -19 -14
-25 -8 -6 -16 -22 -19 -34 -3 -12 -24 -67 -47 -122 -23 -55 -57 -146 -76 -201
-32 -98 -55 -157 -77 -199 -12 -23 -25 -74 -33 -124 -7 -48 -18 -93 -48 -191
-15 -47 -27 -108 -29 -136 -1 -29 -5 -50 -8 -48 -5 3 -16 -39 -34 -131 -3 -16
-7 -37 -9 -45 -2 -8 -6 -41 -11 -73 l-8 -59 -36 8 c-20 4 -193 8 -385 9 l-349
1 -12 39 c-11 40 -6 104 15 195 9 41 16 76 34 177 3 18 11 45 17 60 13 33 47
226 59 336 5 43 18 104 28 135 13 37 20 85 21 137 0 44 7 109 15 145 16 75 43
187 58 245 5 22 12 64 14 94 2 30 9 60 14 66 7 9 7 21 0 41 -6 15 -8 34 -5 42
9 24 17 82 20 142 5 122 8 127 59 110 61 -20 135 -14 236 20 52 17 106 38 120
48 14 9 33 21 42 27 79 47 110 75 133 116 13 26 31 52 39 58 20 17 30 85 16
110 -6 12 -19 21 -29 21 -21 0 -71 -40 -71 -58 0 -21 -49 -88 -88 -119 -37
-30 -117 -73 -135 -73 -5 0 -23 -6 -40 -14 -63 -28 -109 -38 -179 -37 -39 0
-72 2 -74 4 -2 2 1 19 6 38 5 19 14 86 20 149 15 171 27 237 48 258 9 9 42 25
71 35 30 9 81 37 115 61 65 47 146 127 146 145 0 6 4 11 8 11 12 0 87 146 110
215 12 33 26 87 32 120 13 64 20 101 41 203 l13 64 100 -5 c56 -3 121 -10 146
-17z"/>
</g>
</svg>
