<?xml version="1.0" standalone="no"?>
<!DOCTYPE svg PUBLIC "-//W3C//DTD SVG 20010904//EN"
 "http://www.w3.org/TR/2001/REC-SVG-20010904/DTD/svg10.dtd">
<svg version="1.0" xmlns="http://www.w3.org/2000/svg"
 width="547.000000pt" height="411.000000pt" viewBox="0 0 547.000000 411.000000"
 preserveAspectRatio="xMidYMid meet">
<metadata>
Created by potrace 1.16, written by Peter Selinger 2001-2019
</metadata>
<g transform="translate(0.000000,411.000000) scale(0.100000,-0.100000)"
fill="#000000" stroke="none">
<path d="M2647 3824 c-1 -1 -56 -5 -122 -8 -156 -9 -197 -13 -215 -19 -8 -3
-60 -19 -115 -36 -165 -50 -169 -52 -186 -84 -8 -17 -24 -32 -34 -33 -11 -2
-33 -6 -50 -8 -104 -14 -131 -21 -141 -34 -6 -8 -24 -15 -41 -16 -16 -1 -37
-6 -44 -13 -12 -10 -132 -59 -164 -66 -5 -2 -19 -8 -30 -14 -11 -6 -56 -25
-100 -43 -146 -58 -160 -65 -187 -92 -14 -15 -29 -37 -33 -50 -4 -13 -29 -69
-56 -124 -27 -56 -49 -109 -49 -118 0 -9 -4 -24 -9 -34 -5 -9 -16 -33 -23 -52
-12 -31 -67 -144 -95 -195 -7 -11 -20 -40 -31 -65 -46 -106 -113 -239 -122
-245 -6 -3 -10 -13 -10 -21 0 -9 -11 -30 -23 -47 -13 -18 -30 -48 -38 -67 -12
-31 -66 -127 -79 -140 -3 -3 -15 -25 -27 -50 -88 -183 -113 -233 -123 -240 -4
-3 -10 -17 -13 -31 -4 -14 -16 -36 -27 -49 -11 -13 -20 -28 -20 -33 0 -6 -6
-18 -13 -26 -22 -27 -48 -115 -82 -276 -12 -57 -6 -249 9 -273 3 -6 7 -29 8
-52 2 -47 -1 -45 133 -95 39 -15 97 -39 130 -54 33 -16 73 -31 88 -35 31 -7
144 -81 167 -109 8 -10 29 -19 45 -21 41 -4 72 27 252 262 10 12 24 29 31 37
7 7 21 33 31 57 10 24 26 49 34 57 9 7 19 28 23 47 3 19 9 34 13 34 6 0 22 32
41 85 6 17 19 48 30 70 63 134 85 189 153 390 11 33 28 71 37 85 9 14 20 37
24 52 3 15 12 33 19 40 7 7 14 29 15 48 2 19 6 38 11 43 4 4 9 -79 9 -185 1
-223 3 -240 26 -368 9 -52 19 -106 22 -120 2 -14 7 -43 10 -65 6 -46 17 -77
52 -155 13 -30 26 -68 28 -83 2 -16 8 -43 13 -60 15 -44 44 -168 46 -192 1
-11 9 -37 19 -58 9 -21 14 -42 12 -46 -9 -14 105 -264 128 -282 12 -10 39 -23
61 -30 22 -6 70 -22 107 -35 38 -13 113 -27 175 -33 59 -6 140 -15 178 -20 39
-5 207 -12 374 -16 318 -6 388 -1 526 37 39 11 100 27 136 36 77 20 99 35 92
62 -4 15 0 20 14 20 38 0 53 32 79 170 2 8 5 36 8 61 4 41 24 120 56 224 5 17
14 71 20 120 6 50 15 104 20 120 5 17 12 59 15 95 3 36 10 90 15 120 5 30 12
84 15 120 4 36 9 79 11 95 2 17 5 118 6 225 1 107 4 186 6 176 2 -11 10 -26
18 -34 8 -7 14 -20 14 -28 0 -8 6 -25 14 -37 8 -12 17 -38 21 -57 4 -19 20
-53 35 -75 15 -22 31 -51 35 -65 4 -14 21 -52 37 -85 17 -33 32 -71 35 -85 2
-14 9 -29 16 -35 18 -15 49 -65 120 -195 16 -30 34 -61 40 -67 5 -7 7 -13 4
-13 -3 0 5 -12 18 -26 13 -14 30 -39 37 -55 7 -16 16 -29 19 -29 3 0 28 -28
54 -63 27 -34 66 -78 87 -98 21 -20 38 -39 38 -43 0 -4 13 -18 28 -31 15 -13
34 -34 41 -48 7 -14 21 -28 30 -31 9 -3 29 -14 46 -24 28 -18 30 -18 68 1 21
10 41 16 43 14 3 -2 17 7 33 22 15 14 41 33 57 40 16 8 43 24 59 36 17 11 42
26 56 34 15 7 33 24 40 37 7 13 18 24 24 24 23 0 125 105 135 138 5 18 7 99 4
180 -7 203 -9 225 -18 240 -4 7 -10 37 -12 68 -2 30 -15 83 -28 117 -12 34
-34 96 -47 137 -13 41 -35 93 -50 115 -41 62 -65 106 -79 150 -21 63 -84 191
-129 260 -15 22 -35 60 -46 85 -11 25 -39 79 -63 120 -25 41 -56 95 -70 120
-14 25 -35 59 -47 75 -20 26 -36 60 -79 155 -6 14 -14 27 -17 30 -14 12 -82
117 -93 145 -7 17 -32 52 -55 78 -22 27 -41 52 -41 56 0 16 -49 64 -67 66 -29
3 -77 17 -88 25 -12 9 -116 39 -162 47 -18 3 -33 9 -33 13 0 7 -19 15 -55 25
-6 1 -32 12 -57 24 -26 11 -49 21 -51 21 -3 0 -21 7 -41 15 -20 8 -37 15 -38
14 -2 0 -16 5 -33 12 -16 6 -42 11 -56 10 -18 -1 -34 9 -55 35 -34 43 -40 48
-91 93 -21 19 -45 35 -53 36 -8 2 -42 8 -75 15 -33 7 -96 12 -141 11 -44 -1
-92 3 -107 8 -16 6 -52 7 -92 2 -36 -4 -67 -5 -70 -3 -4 4 -333 9 -338 6z
m668 -122 c22 -7 58 -16 81 -22 84 -21 163 -132 104 -147 -11 -3 -20 -8 -20
-12 0 -23 -169 -87 -250 -96 -30 -3 -68 -7 -85 -9 -16 -2 -38 -7 -48 -11 -10
-4 -64 -4 -120 -1 -56 4 -131 7 -167 7 -45 0 -91 9 -150 29 -47 15 -131 38
-187 49 -56 12 -114 26 -130 33 -15 6 -31 11 -35 10 -11 -2 -151 49 -165 61
-7 5 -13 17 -13 26 0 22 67 43 226 73 114 22 144 23 520 22 264 -1 413 -5 439
-12z m-1273 -172 c47 -44 227 -117 303 -124 28 -3 75 -12 105 -20 30 -9 66
-16 80 -16 14 0 52 -12 85 -26 47 -20 84 -26 175 -31 298 -17 445 -6 580 42
98 35 161 69 208 115 39 37 47 40 85 36 39 -3 95 -23 107 -36 3 -3 25 -12 50
-20 25 -7 50 -17 55 -21 6 -3 66 -26 135 -49 69 -23 135 -48 147 -56 12 -8 32
-14 44 -14 12 0 23 -8 26 -20 3 -11 12 -20 19 -20 18 0 94 -69 94 -85 0 -7 3
-15 8 -17 4 -1 27 -36 51 -77 25 -40 51 -79 58 -87 7 -7 34 -57 59 -111 25
-54 49 -100 53 -103 12 -10 121 -184 121 -195 0 -7 41 -90 85 -170 21 -38 47
-88 59 -110 12 -22 28 -56 36 -75 24 -65 42 -105 51 -120 5 -8 15 -26 21 -40
7 -14 24 -43 38 -65 15 -22 27 -51 28 -64 0 -13 6 -28 13 -32 7 -4 9 -14 6
-22 -3 -8 -1 -19 5 -25 23 -23 62 -161 73 -257 1 -11 3 -20 5 -20 1 0 3 -68 5
-150 1 -83 5 -160 9 -172 6 -17 -4 -29 -51 -67 -32 -26 -69 -56 -83 -68 -14
-12 -29 -21 -33 -20 -5 1 -17 -8 -27 -21 -10 -12 -44 -36 -77 -51 -32 -16 -60
-32 -63 -35 -3 -3 -20 -11 -38 -18 -31 -11 -35 -10 -60 19 -15 18 -35 40 -44
50 -10 10 -18 22 -18 27 0 5 -10 15 -23 24 -12 8 -43 41 -67 73 -25 32 -60 74
-78 95 -36 40 -55 71 -102 163 -16 33 -37 68 -47 78 -16 18 -25 32 -61 98 -36
67 -60 115 -82 165 -12 28 -25 57 -30 65 -32 55 -61 112 -63 127 -1 10 -5 23
-8 28 -3 6 -12 30 -19 55 -8 25 -31 75 -52 112 -21 37 -48 94 -59 125 -12 32
-25 63 -29 68 -4 6 -11 25 -15 43 -7 35 -46 69 -65 57 -7 -4 -19 -20 -29 -36
-14 -23 -16 -40 -10 -91 5 -48 21 -412 20 -473 -1 -99 -12 -309 -17 -316 -3
-5 -7 -30 -10 -56 -3 -27 -9 -66 -14 -88 -11 -44 -30 -184 -35 -255 -2 -25
-16 -90 -31 -145 -14 -55 -31 -122 -36 -150 -6 -27 -16 -68 -24 -90 -8 -23
-14 -51 -14 -63 0 -12 -4 -22 -10 -22 -5 0 -10 -8 -10 -17 0 -38 -227 -116
-375 -130 -90 -8 -219 -10 -285 -5 -19 2 -115 3 -214 3 -98 -1 -182 2 -187 5
-12 7 -59 14 -174 24 -117 10 -285 64 -285 92 0 5 -12 22 -27 37 -17 17 -36
54 -46 92 -11 35 -26 82 -34 104 -17 45 -15 40 -44 160 -25 105 -59 217 -89
295 -27 69 -34 98 -72 295 -33 174 -39 316 -22 570 11 164 8 276 -8 287 -24
15 -68 9 -74 -9 -8 -28 -92 -205 -126 -267 -10 -17 -23 -49 -29 -71 -7 -22
-14 -42 -15 -45 -1 -3 -5 -15 -9 -28 -4 -13 -23 -55 -41 -93 -19 -39 -36 -80
-38 -92 -2 -12 -18 -60 -36 -107 -17 -47 -36 -100 -42 -117 -6 -18 -15 -33
-20 -33 -4 0 -8 -7 -8 -15 0 -8 -22 -61 -49 -118 -26 -56 -52 -113 -56 -127
-4 -14 -32 -61 -61 -105 -78 -117 -87 -129 -101 -138 -7 -4 -13 -12 -13 -17 0
-9 -19 -35 -67 -88 -13 -14 -23 -29 -23 -34 0 -5 -15 2 -32 15 -18 13 -53 35
-78 48 -25 13 -47 27 -50 30 -3 3 -21 9 -40 13 -19 3 -50 17 -70 30 -19 14
-64 32 -98 42 -35 9 -66 23 -69 31 -3 7 -11 13 -18 13 -14 0 -25 21 -32 65 -3
17 -9 37 -13 45 -20 38 8 270 32 270 5 0 7 4 4 8 -8 13 15 83 38 117 27 39
138 244 143 265 15 56 145 307 185 358 6 6 8 12 5 12 -5 0 56 122 126 255 23
43 47 97 47 105 0 5 20 43 44 86 24 44 47 90 51 104 4 14 18 54 32 90 23 61
34 85 93 213 27 58 66 107 86 107 8 0 14 5 14 10 0 6 9 10 20 10 12 0 31 6 43
14 12 8 45 22 72 31 28 9 77 30 110 45 76 36 171 71 210 77 17 3 35 10 42 15
7 5 29 12 50 14 31 3 119 19 131 23 2 1 12 -8 24 -19z"/>
</g>
</svg>
