<?xml version="1.0" standalone="no"?>
<!DOCTYPE svg PUBLIC "-//W3C//DTD SVG 20010904//EN"
 "http://www.w3.org/TR/2001/REC-SVG-20010904/DTD/svg10.dtd">
<svg version="1.0" xmlns="http://www.w3.org/2000/svg"
 width="505.000000pt" height="399.000000pt" viewBox="0 0 505.000000 399.000000"
 preserveAspectRatio="xMidYMid meet">
<metadata>
Created by potrace 1.16, written by Peter Selinger 2001-2019
</metadata>
<g transform="translate(0.000000,399.000000) scale(0.100000,-0.100000)"
fill="#000000" stroke="none">
<path d="M2790 2954 c-56 -26 -170 -128 -170 -152 0 -7 -7 -15 -15 -18 -8 -4
-15 -11 -15 -16 0 -6 -23 -39 -52 -74 l-52 -64 -18 27 c-10 16 -18 38 -18 50
0 13 -10 27 -22 34 -13 7 -34 25 -47 40 -13 16 -27 26 -31 24 -4 -3 -10 2 -14
10 -3 8 -12 15 -19 15 -8 0 -20 6 -26 14 -6 7 -28 16 -49 19 -20 3 -68 11
-107 17 -145 22 -569 26 -691 6 -115 -19 -287 -71 -336 -102 -20 -13 -40 -24
-43 -24 -13 0 -85 -70 -85 -83 0 -5 -10 -17 -21 -26 l-22 -17 22 -145 c35
-238 25 -337 -49 -494 -41 -87 -66 -146 -75 -175 -4 -14 -13 -38 -20 -55 -42
-95 -90 -395 -99 -615 -6 -141 -18 -613 -17 -717 0 -29 -5 -53 -10 -53 -17 0
-9 -21 16 -44 19 -18 24 -32 24 -67 -1 -44 14 -83 41 -110 11 -11 40 -15 100
-15 47 -1 155 -2 240 -3 85 -1 281 1 435 5 412 8 427 8 466 1 27 -6 42 -3 58
10 20 17 22 28 25 148 2 79 9 152 19 185 8 30 20 82 26 114 6 33 15 64 20 69
5 5 31 -13 62 -44 30 -28 82 -74 117 -101 89 -71 142 -136 133 -162 -4 -12 -6
-43 -4 -71 6 -107 15 -119 84 -114 88 6 381 4 420 -3 28 -5 39 -3 52 13 10 10
17 25 17 32 0 19 33 35 84 42 39 4 46 2 46 -12 1 -26 20 -47 57 -62 31 -13
127 -11 298 5 69 7 64 5 70 33 6 35 11 37 71 40 32 1 60 2 63 3 32 3 61 -4 61
-16 0 -16 58 -68 69 -62 4 3 34 6 67 7 32 1 69 6 80 10 33 12 105 22 149 20
33 -1 44 4 60 26 10 15 18 37 17 50 -1 17 5 24 26 29 100 23 156 49 204 93 63
58 148 164 148 184 0 9 6 20 13 24 20 13 77 154 77 191 0 9 12 40 26 67 14 28
28 66 31 85 3 19 9 42 14 51 5 9 9 78 10 152 1 113 -1 139 -15 152 -9 9 -16
27 -16 39 0 13 -7 29 -15 36 -8 7 -15 18 -15 24 0 13 -68 106 -108 149 -37 39
-87 69 -131 78 -20 4 -68 16 -108 28 -58 17 -97 20 -200 19 -311 -4 -437 1
-462 16 -3 2 -44 0 -91 -4 -47 -5 -146 -12 -220 -15 -74 -4 -157 -8 -185 -9
-27 -2 -64 3 -82 10 -17 7 -34 10 -36 7 -12 -11 -167 51 -167 67 0 6 -5 10
-10 10 -12 0 -94 52 -98 63 -2 4 -9 7 -15 7 -6 0 -33 23 -59 51 -42 45 -48 56
-43 83 7 41 -7 65 -29 47 -13 -11 -16 -11 -16 2 0 8 -7 20 -15 27 -9 7 -14 19
-11 26 3 7 1 16 -3 18 -5 3 -16 47 -26 98 -10 51 -24 103 -31 115 -25 40 -19
44 59 36 94 -10 288 -9 352 1 61 10 175 85 198 130 35 70 27 130 -21 162 -29
20 -122 37 -189 36 l-42 -1 34 54 c28 44 35 64 35 106 0 120 -83 161 -210 103z
m118 -62 c7 -5 15 -24 18 -44 7 -39 -9 -77 -52 -122 -31 -33 -141 -106 -160
-106 -9 0 -96 -34 -171 -67 -9 -3 -10 3 -3 26 9 32 10 34 63 96 19 22 51 66
71 98 21 32 53 67 74 80 21 12 47 27 57 34 23 14 84 16 103 5z m-893 -88 c87
-5 184 -20 219 -33 12 -5 28 -25 36 -45 7 -20 17 -36 22 -36 4 0 8 -6 8 -14 0
-8 4 -16 8 -18 17 -6 -1 -77 -27 -106 -66 -73 -292 -142 -519 -157 -17 -1 -56
2 -85 8 -28 5 -65 9 -82 8 -16 0 -56 4 -87 10 -32 5 -70 12 -85 15 -16 2 -56
9 -90 15 -96 17 -218 99 -242 162 -16 43 -11 49 78 99 20 11 47 24 61 28 164
51 217 63 310 70 103 7 318 5 475 -6z m1058 -208 c34 -3 66 -26 67 -49 0 -13
-42 -52 -80 -75 -19 -11 -64 -26 -100 -33 -72 -14 -290 -13 -305 2 -5 5 -26 9
-48 9 -52 0 -40 15 42 51 36 17 89 41 116 54 28 13 77 29 109 34 33 6 62 14
65 17 3 3 26 3 51 0 25 -3 62 -8 83 -10z m-653 -111 c0 -17 -5 -36 -12 -43 -9
-9 -9 -12 2 -12 7 0 -12 -24 -44 -54 -56 -54 -56 -54 -129 -58 -71 -3 -72 -3
-75 22 -3 23 5 29 75 62 59 27 90 49 123 88 46 54 60 53 60 -5z m-1307 -45 c3
0 29 -14 58 -30 57 -34 192 -68 391 -98 162 -25 304 -20 466 14 22 4 32 3 32
-5 0 -7 11 -29 25 -49 14 -20 25 -46 25 -57 0 -11 9 -44 19 -73 11 -28 17 -52
14 -52 -4 0 1 -8 11 -19 9 -10 19 -41 23 -70 5 -48 46 -123 60 -111 3 3 11
-10 18 -29 6 -19 18 -37 26 -40 8 -2 26 -17 41 -33 14 -15 36 -28 47 -28 14 0
26 -10 34 -27 15 -35 24 -42 48 -36 13 4 19 0 19 -11 0 -10 15 -23 34 -31 19
-8 37 -23 41 -34 3 -10 14 -21 25 -24 28 -7 35 -35 18 -71 -54 -113 -73 -146
-94 -170 -14 -14 -22 -26 -19 -26 3 0 -5 -15 -18 -32 -14 -18 -34 -51 -45 -73
-11 -22 -32 -52 -46 -67 -14 -15 -26 -31 -26 -37 0 -5 -20 -30 -44 -55 -24
-25 -47 -53 -50 -63 -3 -10 -20 -29 -37 -43 -16 -14 -49 -42 -72 -62 -23 -21
-50 -38 -59 -38 -23 0 -37 -29 -31 -61 l5 -25 -229 -2 -228 -2 0 62 c-1 162
-19 305 -52 413 -36 116 -189 392 -218 394 -6 1 -31 23 -57 50 -26 27 -62 61
-80 74 -45 34 -183 107 -202 107 -22 0 -20 8 13 73 25 49 41 97 67 202 6 26 5
180 -2 270 l-6 70 24 -22 c13 -13 27 -23 31 -23z m1347 -83 c0 -12 9 -40 20
-62 32 -64 29 -70 -29 -59 -24 5 -31 12 -31 30 0 13 -9 29 -20 36 -19 12 -18
14 13 45 38 39 47 41 47 10z m-209 -128 c8 -15 18 -20 36 -16 22 4 24 2 19
-19 -3 -12 -2 -25 4 -29 15 -10 0 -33 -37 -56 -31 -20 -36 -20 -50 -6 -21 21
-36 116 -21 134 16 19 36 16 49 -8z m89 11 c0 -5 -5 -10 -11 -10 -5 0 -7 5 -4
10 3 6 8 10 11 10 2 0 4 -4 4 -10z m175 -82 c4 -3 -3 -9 -14 -13 -18 -5 -30
-26 -35 -59 -5 -32 -30 -73 -54 -88 -15 -9 -46 -28 -69 -42 l-42 -26 -25 23
c-28 26 -36 77 -13 77 25 0 96 59 118 98 22 37 24 38 75 38 29 -1 55 -4 59 -8z
m28 -105 c3 -16 8 -35 12 -45 8 -21 -33 -37 -46 -17 -8 13 -3 73 8 92 8 13 20
-2 26 -30z m67 -133 c7 -16 27 -45 46 -64 44 -45 43 -59 -2 -40 -36 15 -94 11
-94 -7 0 -5 -6 -9 -13 -9 -7 0 -18 -10 -25 -21 -10 -15 -17 -18 -24 -11 -8 8
-6 23 6 52 9 22 16 51 16 64 0 16 11 31 33 44 42 27 43 27 57 -8z m-200 -31
c7 -11 17 -18 25 -16 10 4 10 0 2 -24 -13 -33 -35 -32 -74 3 l-22 21 22 18
c28 24 34 23 47 -2z m-1440 -99 c11 -5 29 -14 40 -20 11 -5 26 -10 33 -10 8 0
22 -9 32 -20 10 -11 27 -20 37 -20 10 0 21 -7 24 -15 4 -8 12 -15 19 -15 19 0
177 -159 195 -195 8 -16 22 -39 31 -50 9 -11 25 -41 35 -67 10 -27 22 -48 27
-48 4 0 7 -6 7 -13 0 -7 9 -31 21 -52 25 -49 38 -110 49 -235 5 -52 11 -120
15 -150 l6 -55 -20 23 c-11 12 -21 26 -23 31 -2 5 -13 11 -25 15 -19 6 -23 2
-28 -26 -8 -41 -4 -60 14 -74 10 -8 -43 -11 -202 -10 -174 1 -217 4 -217 14 0
8 9 16 20 19 11 3 20 8 20 12 0 3 3 17 7 30 4 17 3 22 -6 17 -6 -4 -18 -3 -26
4 -15 12 -42 3 -63 -23 -9 -11 -7 -18 8 -35 11 -12 20 -25 20 -29 0 -4 -44 -8
-98 -8 -53 0 -100 -4 -104 -10 -11 -15 -17 -2 -18 40 -3 92 11 426 21 495 5
41 12 91 15 110 2 19 9 59 15 87 6 29 8 57 5 62 -9 14 75 231 89 231 3 0 14
-4 25 -10z m1805 -119 c-8 -39 -21 -84 -29 -99 -8 -15 -19 -47 -26 -72 -25
-95 -112 -256 -265 -492 -52 -81 -101 -141 -137 -169 -24 -19 -48 -40 -54 -48
-7 -9 -20 -12 -38 -7 -24 6 -25 9 -15 29 7 12 38 51 69 87 58 66 75 89 178
238 85 125 105 157 169 272 64 115 93 175 93 191 0 6 12 44 26 85 33 93 50 84
29 -15z m-149 54 c3 -14 3 -33 -1 -42 -7 -16 -8 -16 -12 -2 -2 10 -13 19 -23
22 -13 3 -17 11 -13 26 8 30 41 27 49 -4z m380 -105 c15 0 25 -38 13 -46 -5
-3 -9 -12 -9 -21 0 -8 -7 -29 -14 -46 -8 -18 -24 -57 -34 -87 -22 -63 -124
-279 -132 -280 -3 0 -11 14 -17 30 -6 17 -18 30 -27 30 -13 0 -46 -36 -46 -51
0 -14 40 -50 49 -44 18 10 13 -5 -21 -63 -31 -55 -32 -56 -41 -29 -5 15 -14
27 -21 27 -17 0 -42 -21 -49 -41 -6 -20 20 -62 34 -54 18 11 9 -15 -11 -32
-11 -10 -20 -21 -20 -26 0 -5 -7 -15 -15 -23 -13 -14 -18 -12 -40 12 -27 29
-27 29 -44 -3 -14 -27 -14 -66 0 -80 7 -7 -2 -23 -31 -54 -23 -24 -50 -55 -61
-68 -11 -13 -22 -22 -25 -19 -3 3 1 12 8 20 21 22 19 37 -6 53 -20 14 -28 14
-45 3 -34 -21 -25 -72 13 -79 17 -4 17 -6 4 -16 -12 -10 -22 -6 -56 25 -38 35
-40 38 -23 52 10 8 26 29 37 45 10 17 33 44 51 60 18 17 33 34 33 38 0 8 169
270 190 295 6 6 23 38 38 70 15 31 37 73 49 92 12 19 35 78 53 130 17 52 40
114 51 137 10 24 19 48 19 54 0 5 4 19 10 29 9 17 13 16 67 -11 32 -15 63 -29
69 -29z m148 -82 c-1 -25 -9 -61 -17 -79 -9 -19 -21 -53 -27 -77 -6 -24 -20
-60 -32 -80 -11 -20 -28 -53 -38 -72 -52 -105 -65 -130 -95 -185 -63 -117 -78
-140 -106 -169 -16 -17 -29 -35 -29 -41 0 -13 -22 -43 -67 -90 -17 -18 -35
-39 -40 -47 -12 -19 -100 -88 -112 -88 -6 0 -11 -6 -11 -13 0 -14 -56 -67 -71
-67 -5 0 -9 5 -9 11 0 13 60 90 100 129 14 14 46 52 70 85 37 49 91 118 150
192 6 7 10 17 10 22 0 6 6 14 13 18 6 4 19 22 27 38 8 17 28 50 45 75 17 25
39 65 49 90 11 25 34 77 53 117 18 39 33 76 33 83 0 6 9 27 19 48 10 20 18 39
17 42 -3 13 50 110 59 107 5 -2 9 -24 9 -49z m1015 -15 c-7 -10 -31 -40 -54
-67 -43 -53 -109 -229 -127 -336 -32 -201 -31 -188 -25 -272 5 -77 19 -103 48
-87 10 5 20 6 20 2 1 -4 4 6 8 22 4 17 1 53 -6 80 -7 28 -11 70 -8 95 13 106
27 196 35 215 5 11 16 43 25 70 27 79 30 87 55 139 13 26 30 50 37 53 7 3 13
9 13 14 0 12 32 49 43 49 5 0 19 8 32 18 15 12 34 17 58 14 34 -4 35 -5 30
-37 -4 -27 -1 -35 16 -44 14 -8 21 -8 21 -1 0 5 7 10 15 10 17 0 34 30 27 49
-5 14 38 10 90 -11 25 -9 68 -79 68 -111 0 -7 4 -17 10 -23 26 -26 28 -161 4
-266 -15 -65 -21 -75 -73 -124 -31 -29 -62 -53 -68 -54 -7 0 -13 -4 -13 -9 0
-5 -9 -13 -21 -16 -11 -4 -40 -19 -62 -35 -23 -15 -53 -31 -67 -35 -14 -4 -34
-14 -45 -21 -11 -8 -33 -14 -51 -14 -17 0 -34 -3 -38 -7 -3 -4 -12 -8 -19 -9
-7 -2 -57 -14 -112 -29 -55 -14 -134 -27 -176 -30 -42 -2 -89 -9 -104 -15 -16
-6 -51 -10 -79 -10 -48 1 -76 -2 -136 -16 -14 -3 -38 -8 -54 -10 -15 -2 -36
-6 -46 -9 -51 -16 -614 -23 -643 -8 -8 5 30 61 80 117 38 44 55 70 136 219 24
43 51 87 60 98 9 10 17 22 17 25 0 3 18 42 39 87 22 45 52 116 66 157 53 148
62 170 67 165 3 -3 43 -12 89 -19 65 -10 99 -11 149 -3 65 11 175 14 328 8 57
-2 87 1 98 10 10 8 53 14 117 16 55 2 103 6 106 8 2 3 11 5 19 5 12 0 12 -3 1
-17z m376 -640 c-8 -16 -22 -45 -31 -65 -18 -43 -129 -160 -187 -198 -21 -14
-57 -39 -81 -57 -85 -63 -304 -108 -516 -105 -184 2 -360 8 -360 12 0 3 18 14
40 24 46 22 50 39 17 61 -53 34 -112 -12 -80 -62 l15 -23 -72 0 -72 0 6 36 c5
22 3 41 -5 50 -15 19 -55 18 -63 -2 -13 -35 -6 -54 27 -68 36 -16 22 -21 -17
-7 -17 7 -26 7 -28 -1 -3 -8 -49 -13 -139 -14 -74 -2 -154 -8 -178 -14 -32 -8
-65 -8 -122 1 -44 6 -79 14 -79 17 0 14 53 72 66 72 7 0 14 7 14 15 0 8 8 18
18 23 9 5 159 8 332 7 173 -1 319 1 324 3 6 3 35 7 65 8 57 3 72 6 126 22 17
5 61 10 100 11 38 1 72 4 75 6 4 2 67 11 141 20 73 9 152 23 174 30 22 7 56
16 75 20 44 8 162 45 175 55 6 4 27 13 49 20 21 7 46 20 55 29 9 9 34 25 55
36 22 11 50 30 64 43 32 28 34 28 17 -5z m-3015 -93 c0 -13 -5 -18 -15 -14
-11 5 -12 9 -2 20 16 18 17 17 17 -6z m-155 -66 c66 -4 164 -7 218 -8 74 -1
100 -5 107 -16 7 -10 10 -11 10 -2 0 9 30 11 133 7 192 -7 207 -8 207 -17 0
-20 -100 -42 -116 -26 -4 4 -15 3 -26 -3 -11 -6 -26 -8 -33 -5 -7 2 -16 2 -19
-1 -7 -7 -103 -7 -201 2 -44 4 -87 7 -95 6 -85 -3 -668 5 -680 10 -3 1 -8 1
-12 0 -5 0 -8 5 -8 13 0 13 -4 13 -27 0 -26 -13 -28 -13 -31 7 -2 11 -2 22 0
24 2 1 39 5 83 9 135 10 230 18 232 20 2 2 33 -1 70 -6 38 -4 122 -11 188 -14z
m180 -127 c267 -1 485 -3 485 -4 0 -10 -31 -116 -36 -124 -5 -8 -49 -9 -148
-4 -207 10 -604 8 -656 -4 -25 -5 -123 -12 -217 -14 -171 -5 -173 -5 -174 17
0 11 -2 46 -5 77 l-6 55 123 2 c67 1 124 4 127 6 3 3 9 3 13 0 5 -3 227 -6
494 -7z m1419 -262 c-4 -8 -7 -15 -9 -15 -2 0 -5 7 -9 15 -3 9 0 15 9 15 9 0
12 -6 9 -15z m526 -35 c0 -5 -10 -10 -22 -10 -19 0 -20 2 -8 10 19 13 30 13
30 0z m-560 -10 c0 -5 -6 -10 -14 -10 -8 0 -18 5 -21 10 -3 6 3 10 14 10 12 0
21 -4 21 -10z"/>
<path d="M1674 866 c-19 -20 -23 -55 -7 -68 12 -9 21 -9 46 1 18 7 38 13 45
14 6 0 12 11 12 24 0 13 -6 26 -12 28 -29 11 -74 11 -84 1z"/>
<path d="M1910 860 c-17 -33 -3 -60 30 -60 33 0 55 29 45 60 -9 28 -60 27 -75
0z"/>
<path d="M951 1684 c-9 -20 -8 -28 3 -40 8 -8 19 -14 24 -14 6 0 12 -5 14 -10
2 -6 12 -4 25 5 18 13 20 20 13 44 -4 16 -7 31 -5 33 2 2 -11 4 -29 5 -27 2
-35 -2 -45 -23z"/>
<path d="M1109 1604 c-11 -32 -4 -60 18 -68 31 -12 57 31 42 72 -12 31 -47 29
-60 -4z"/>
<path d="M1256 1481 c-21 -24 -23 -52 -3 -65 25 -16 51 4 55 41 2 23 -2 32
-17 36 -11 3 -26 -2 -35 -12z"/>
<path d="M1324 1349 c-21 -23 -20 -25 3 -51 21 -23 40 -23 53 1 15 29 12 58
-6 65 -24 9 -29 8 -50 -15z"/>
<path d="M1404 1212 c-21 -13 -32 -47 -23 -69 5 -13 11 -23 15 -23 17 0 51 38
48 54 -4 25 -26 47 -40 38z"/>
<path d="M1430 1001 c-17 -33 14 -76 48 -64 18 7 15 70 -4 77 -25 10 -33 7
-44 -13z"/>
<path d="M832 868 c-29 -15 -27 -57 5 -69 40 -15 80 40 51 69 -14 14 -25 14
-56 0z"/>
<path d="M1230 854 c-13 -34 4 -56 39 -52 20 2 27 9 29 32 6 49 -51 66 -68 20z"/>
<path d="M2933 1592 c-6 -4 -15 -20 -18 -35 -6 -22 -3 -33 13 -47 21 -19 21
-19 40 5 25 32 24 79 -3 83 -11 1 -25 -1 -32 -6z"/>
<path d="M2845 1382 c-16 -11 -35 -60 -29 -76 5 -12 33 -25 55 -26 10 0 32 87
24 99 -7 13 -35 14 -50 3z"/>
<path d="M4250 1412 c0 -7 -7 -20 -15 -28 -22 -23 -18 -43 10 -50 31 -8 53 0
62 22 8 20 -9 49 -28 49 -8 0 -17 5 -21 10 -5 6 -8 5 -8 -3z"/>
<path d="M4181 1216 c-10 -17 -10 -29 -2 -44 9 -18 15 -19 44 -10 30 9 32 13
29 44 -4 29 -8 34 -31 34 -19 0 -32 -8 -40 -24z"/>
<path d="M4154 1052 c-29 -23 -35 -47 -19 -69 13 -17 15 -17 42 -1 30 18 37
53 16 76 -14 15 -14 15 -39 -6z"/>
<path d="M4148 893 c-18 -4 -35 -63 -24 -82 5 -8 54 -6 64 3 1 2 4 17 7 35 4
33 -15 51 -47 44z"/>
<path d="M4293 718 c-15 -24 -14 -56 3 -62 41 -16 99 35 71 63 -15 15 -64 14
-74 -1z"/>
<path d="M4135 636 c-8 -6 -16 -25 -18 -41 -2 -27 1 -30 23 -27 32 3 63 34 55
54 -8 21 -40 29 -60 14z"/>
<path d="M3932 608 c-16 -16 -15 -45 0 -55 17 -10 49 -10 71 0 16 7 16 10 2
37 -16 32 -51 40 -73 18z"/>
<path d="M3761 579 c-26 -29 -27 -60 -1 -77 12 -7 20 -8 20 -2 0 5 6 10 13 10
7 0 18 10 26 21 11 19 10 24 -12 46 l-24 25 -22 -23z"/>
<path d="M3556 575 c-10 -26 -7 -39 11 -62 14 -17 21 -19 40 -10 20 9 23 17
21 46 -3 32 -6 36 -34 39 -22 2 -33 -2 -38 -13z"/>
<path d="M2712 553 c-13 -24 3 -63 26 -63 30 0 54 24 50 51 -2 19 -10 25 -35
27 -23 2 -34 -2 -41 -15z"/>
<path d="M2926 531 c-21 -39 -3 -54 52 -45 34 5 39 9 34 28 -13 50 -64 60 -86
17z"/>
</g>
</svg>
