<?xml version="1.0" standalone="no"?>
<!DOCTYPE svg PUBLIC "-//W3C//DTD SVG 20010904//EN"
 "http://www.w3.org/TR/2001/REC-SVG-20010904/DTD/svg10.dtd">
<svg version="1.0" xmlns="http://www.w3.org/2000/svg"
 width="537.000000pt" height="349.000000pt" viewBox="0 0 537.000000 349.000000"
 preserveAspectRatio="xMidYMid meet">
<metadata>
Created by potrace 1.16, written by Peter Selinger 2001-2019
</metadata>
<g transform="translate(0.000000,349.000000) scale(0.100000,-0.100000)"
fill="#000000" stroke="none">
<path d="M2504 3181 c-5 -4 -43 -16 -84 -26 -41 -9 -81 -22 -87 -27 -7 -6 -13
-7 -13 -3 0 4 -6 3 -12 -2 -7 -6 -38 -20 -68 -31 -133 -49 -298 -144 -385
-221 -17 -14 -50 -39 -75 -56 -24 -16 -52 -37 -61 -45 -9 -8 -32 -26 -50 -40
-19 -14 -59 -48 -89 -77 -30 -28 -72 -66 -93 -85 -20 -18 -82 -76 -136 -128
-54 -52 -120 -116 -147 -141 -27 -26 -54 -53 -60 -60 -7 -8 -41 -40 -77 -73
-36 -32 -80 -79 -98 -105 -18 -25 -57 -76 -86 -114 -57 -71 -123 -184 -123
-210 0 -8 -9 -17 -20 -20 -21 -5 -41 -44 -33 -65 3 -7 17 -15 32 -18 103 -22
242 -59 271 -72 19 -8 65 -30 103 -48 37 -18 89 -40 115 -48 26 -9 64 -27 84
-41 20 -14 42 -25 47 -25 6 0 11 -4 11 -10 0 -5 8 -10 18 -10 11 0 27 -9 37
-20 10 -11 23 -20 29 -20 13 0 120 -71 156 -104 14 -12 49 -37 78 -55 28 -18
52 -37 52 -42 0 -5 15 -16 33 -24 86 -40 126 -68 206 -145 47 -45 136 -116
160 -130 14 -7 30 -17 35 -21 6 -5 41 -32 78 -60 37 -28 66 -54 64 -58 -3 -4
4 -13 16 -20 16 -10 19 -10 12 1 -6 9 -2 9 12 -2 16 -12 108 -86 137 -110 4
-4 -4 -12 -17 -18 -19 -9 -28 -8 -38 1 -7 7 -33 28 -58 48 -25 21 -72 64 -106
97 -33 33 -76 68 -95 77 -19 10 -44 28 -56 41 -12 13 -26 24 -30 24 -4 0 -35
25 -68 55 -76 70 -71 65 -141 111 -32 21 -61 42 -64 45 -3 3 -19 13 -35 22
-17 8 -39 25 -49 36 -11 12 -39 30 -63 41 -23 10 -66 34 -95 54 -29 19 -98 56
-153 82 -55 26 -102 50 -105 53 -3 3 -31 19 -62 35 -32 15 -69 38 -83 50 -15
13 -57 36 -95 52 -57 24 -71 34 -76 57 -6 27 -23 33 -78 28 -11 -1 -27 5 -36
14 -23 20 -135 28 -150 10 -18 -21 14 -64 48 -64 15 0 36 -2 47 -5 11 -2 25
-5 30 -5 10 -1 -55 -61 -66 -61 -10 0 -39 -65 -39 -87 0 -14 30 -34 123 -81
67 -33 136 -74 152 -89 30 -29 77 -55 284 -158 63 -31 120 -63 128 -71 8 -8
19 -14 24 -14 6 0 49 -26 97 -58 48 -31 104 -66 125 -77 21 -11 56 -35 77 -53
21 -17 43 -32 49 -32 6 0 11 -4 11 -9 0 -8 122 -91 135 -91 2 0 13 -6 22 -14
10 -8 54 -42 97 -77 43 -34 97 -78 120 -99 23 -21 66 -60 96 -88 30 -27 71
-64 90 -82 19 -18 40 -46 45 -62 8 -23 21 -34 55 -45 43 -15 45 -14 63 8 14
17 18 34 14 60 -4 30 -1 38 13 42 13 3 16 0 13 -14 -8 -31 5 -65 30 -76 28
-13 84 7 94 32 3 10 13 15 24 12 12 -3 19 0 19 9 0 9 12 14 35 14 23 0 38 6
42 16 3 8 12 13 19 10 7 -3 16 -1 18 3 3 5 37 27 75 50 55 32 176 123 201 151
3 3 30 23 60 45 75 54 67 48 145 112 39 32 72 61 73 65 2 5 8 8 13 8 6 0 24
14 42 30 18 17 49 45 70 63 64 54 130 119 172 172 22 28 43 52 47 53 5 2 8 8
8 12 0 5 23 30 50 56 28 26 67 71 88 99 20 29 64 87 97 128 33 41 69 88 80
103 11 15 28 36 38 46 9 10 14 18 11 18 -3 0 3 12 13 27 79 116 129 280 111
368 -12 54 -62 105 -103 105 -33 0 -70 32 -96 81 -23 43 -174 212 -212 236 -6
4 -34 35 -61 68 -26 33 -62 71 -79 85 -62 50 -157 154 -157 173 0 4 -4 6 -8 3
-5 -3 -18 2 -28 12 -10 9 -32 25 -47 35 -16 10 -39 28 -52 39 -13 11 -27 21
-31 22 -5 0 -26 18 -48 39 -22 20 -60 49 -85 64 -25 14 -65 45 -87 68 -43 43
-140 107 -184 120 -14 4 -42 18 -62 31 -47 30 -105 52 -188 70 -36 8 -81 20
-100 28 -19 7 -53 12 -74 9 -22 -2 -42 1 -46 6 -3 6 -10 7 -16 2z m101 -133
c22 -6 47 -12 55 -14 8 -2 45 -10 82 -19 56 -12 153 -53 228 -96 8 -4 35 -19
59 -31 24 -13 56 -36 70 -51 14 -15 51 -44 81 -65 30 -20 64 -45 75 -55 11
-10 48 -39 83 -64 34 -25 62 -53 63 -62 0 -9 3 -11 5 -4 6 14 29 -2 88 -65 41
-44 93 -93 170 -163 39 -36 40 -37 23 -62 -9 -14 -56 -49 -104 -78 -48 -29
-123 -78 -166 -108 -44 -31 -86 -60 -95 -66 -8 -5 -29 -23 -46 -39 -17 -15
-56 -45 -87 -66 -30 -21 -70 -55 -89 -76 -18 -21 -50 -53 -72 -71 -21 -17 -71
-69 -109 -115 -39 -46 -79 -90 -88 -98 -10 -8 -33 -40 -53 -70 -46 -70 -89
-131 -106 -149 -13 -14 -27 -4 -102 69 -8 8 -33 28 -55 45 -22 16 -42 31 -45
35 -3 3 -30 25 -60 50 -30 25 -56 48 -58 53 -2 4 -10 7 -18 7 -8 0 -14 4 -14
9 0 11 -102 79 -172 114 -32 16 -58 33 -58 39 0 5 -5 6 -10 3 -6 -3 -13 1 -16
9 -3 9 -12 16 -18 16 -7 0 -21 8 -32 18 -10 10 -55 36 -99 58 -44 23 -103 55
-131 72 -28 16 -62 33 -75 37 -35 11 -167 74 -209 99 -19 12 -60 32 -90 45
-30 14 -79 35 -109 49 l-54 24 83 77 c46 42 109 101 140 132 88 88 212 199
221 199 5 0 17 7 26 15 10 8 47 37 83 65 36 28 72 56 80 63 9 7 42 32 75 56
33 24 65 49 70 56 15 18 141 84 168 87 14 2 32 9 40 16 14 12 56 28 101 37 11
3 23 9 26 15 4 6 11 10 16 9 5 -1 11 0 14 1 3 1 32 8 65 15 60 12 77 11 150
-7z m1170 -818 c9 -10 15 -26 12 -34 -3 -8 -44 -35 -90 -60 -47 -26 -100 -59
-120 -74 -51 -40 -74 -55 -83 -55 -5 -1 -13 -5 -19 -9 -5 -5 -39 -30 -75 -56
-36 -26 -81 -63 -100 -82 -20 -19 -58 -56 -85 -81 -28 -26 -83 -81 -124 -123
-40 -42 -77 -76 -82 -76 -5 0 -9 -4 -9 -10 0 -8 -114 -150 -175 -217 -11 -12
-29 -34 -40 -48 -26 -32 -65 -34 -65 -2 1 43 248 367 281 367 5 0 8 4 5 9 -5
7 160 168 216 211 11 8 48 38 83 65 34 28 73 57 85 65 12 8 48 33 79 55 73 51
92 63 116 74 11 5 36 20 55 33 20 13 50 31 68 39 17 7 32 17 32 21 0 14 17 8
35 -12z m-2555 -88 c8 -2 29 -10 45 -19 17 -8 40 -17 53 -19 12 -2 71 -29 132
-59 60 -30 113 -55 117 -55 4 -1 26 -9 48 -20 22 -11 46 -19 53 -20 7 0 10 -4
7 -10 -4 -6 1 -7 10 -3 10 3 20 2 24 -4 3 -5 29 -21 57 -35 113 -59 171 -91
201 -114 17 -13 36 -24 41 -24 6 0 12 -3 14 -8 2 -4 32 -22 68 -41 36 -19 72
-39 80 -46 8 -7 23 -15 33 -18 9 -4 17 -11 17 -17 0 -5 6 -10 13 -10 8 0 22
-9 32 -20 10 -11 23 -20 29 -20 6 0 44 -31 83 -68 40 -37 87 -78 104 -92 56
-44 134 -113 137 -122 2 -4 -2 -14 -10 -23 -26 -29 -34 -40 -41 -59 -7 -16
-14 -12 -65 34 -31 29 -66 62 -77 74 -11 11 -37 32 -58 46 -20 14 -37 28 -37
33 0 4 -5 7 -12 7 -6 0 -26 11 -44 25 -18 14 -35 25 -38 25 -3 0 -18 12 -34
28 -43 40 -81 72 -88 72 -8 0 -174 99 -194 115 -8 7 -55 34 -105 60 -49 26
-123 68 -164 92 -66 40 -195 107 -321 167 -180 85 -198 100 -160 141 13 14 26
22 29 18 3 -5 13 -9 21 -11z m2652 -6 c7 -7 24 -28 38 -45 14 -18 32 -40 40
-50 9 -9 26 -33 39 -54 l23 -37 -29 -10 c-73 -28 -160 -77 -212 -120 -31 -25
-63 -51 -72 -56 -15 -8 -72 -60 -224 -205 -105 -100 -182 -186 -252 -280 -22
-30 -71 -83 -108 -119 -38 -36 -78 -75 -90 -87 -12 -13 -27 -23 -32 -23 -5 0
-28 19 -51 43 -22 23 -63 62 -90 87 l-50 44 27 35 c14 19 39 49 54 65 16 17
65 76 110 131 44 55 92 109 105 119 14 11 39 36 56 55 70 79 146 151 161 151
8 0 15 6 15 13 0 7 8 19 18 27 89 75 124 101 170 125 29 16 63 39 75 51 12 11
41 31 65 43 24 12 69 38 100 58 31 20 62 36 69 36 7 0 13 4 13 9 0 12 17 10
32 -6z m-2733 -136 c15 0 31 -4 37 -8 5 -5 32 -18 59 -30 72 -30 331 -157 387
-189 26 -16 60 -40 76 -55 17 -14 32 -24 35 -22 7 7 91 -32 106 -50 7 -9 18
-16 24 -16 5 0 24 -11 41 -23 17 -13 60 -38 96 -55 36 -17 77 -43 92 -57 15
-14 31 -25 36 -25 5 0 17 -10 28 -21 10 -12 49 -41 85 -65 37 -24 73 -49 81
-56 7 -7 54 -49 103 -92 93 -82 103 -94 89 -105 -17 -12 -81 -97 -98 -129 -10
-19 -24 -32 -35 -32 -12 0 -20 -9 -24 -27 -3 -16 -11 -45 -19 -65 l-14 -37
-34 22 c-19 12 -37 24 -40 27 -11 12 -77 58 -105 73 -16 9 -70 55 -120 102
-49 47 -95 85 -102 85 -7 0 -13 5 -13 10 0 6 -9 10 -20 10 -11 0 -20 4 -20 9
0 5 -13 14 -30 21 -16 7 -30 17 -30 23 0 6 -3 7 -6 4 -4 -4 -21 5 -38 18 -17
14 -35 29 -41 33 -112 84 -139 102 -151 102 -8 0 -14 4 -14 9 0 12 -162 114
-215 136 -22 9 -69 27 -105 39 -82 29 -161 64 -180 81 -15 13 -119 43 -174 50
-15 2 -30 6 -33 8 -7 7 53 121 71 136 9 8 16 19 16 26 0 8 3 15 8 17 4 2 20
21 37 43 16 22 45 57 64 78 33 37 34 37 48 17 8 -12 25 -20 42 -20z m2891
-171 c0 -24 -90 -164 -146 -227 -51 -57 -54 -61 -54 -68 0 -4 -18 -28 -41 -53
-22 -25 -45 -53 -51 -61 -7 -8 -37 -42 -67 -76 -31 -34 -94 -103 -141 -155
-200 -222 -414 -434 -515 -511 -16 -13 -41 -35 -54 -50 -29 -32 -43 -35 -61
-13 -10 12 -8 18 11 34 30 24 267 258 336 333 29 30 54 53 57 50 4 -3 6 0 6 6
0 15 65 86 203 223 59 59 107 111 107 116 0 5 8 15 18 24 9 8 31 32 47 52 17
21 37 46 45 56 8 10 27 34 42 52 14 19 38 48 52 64 42 49 116 162 116 178 0 9
12 20 28 25 37 14 62 14 62 1z m113 -13 c19 -19 14 -83 -10 -131 -45 -90 -89
-163 -127 -212 -23 -29 -75 -96 -116 -149 -41 -54 -100 -125 -130 -159 -30
-34 -86 -97 -125 -140 -38 -43 -83 -90 -99 -104 -15 -14 -35 -33 -45 -41 -15
-14 -86 -71 -134 -110 -11 -8 -29 -24 -41 -36 -11 -12 -61 -51 -111 -88 -49
-37 -97 -73 -105 -79 -8 -7 -32 -26 -54 -42 l-38 -29 -20 23 c-10 13 -17 27
-16 31 2 4 32 32 68 61 36 30 99 86 139 124 71 67 108 104 244 242 34 35 65
63 70 63 4 0 7 6 7 13 0 7 12 24 28 37 15 14 49 52 77 85 27 33 66 76 85 96
75 77 120 128 120 137 0 5 7 16 17 23 9 8 34 37 55 64 22 28 58 72 81 99 42
49 132 186 143 219 8 21 18 22 37 3z m-335 -113 c-14 -16 -32 -37 -41 -48 -9
-11 -44 -56 -78 -100 -34 -44 -70 -88 -80 -97 -10 -10 -32 -38 -49 -63 -17
-25 -34 -45 -38 -45 -4 0 -21 -14 -39 -30 -18 -17 -37 -30 -42 -30 -6 0 -11
-4 -11 -10 0 -5 -7 -18 -15 -27 -55 -66 -387 -406 -509 -521 l-38 -37 18 35
c10 19 33 53 50 75 17 22 33 48 37 58 4 9 23 27 42 38 23 14 35 28 32 38 -2
10 31 50 87 106 50 50 104 108 120 130 16 22 37 47 45 56 19 20 37 42 76 94
36 47 213 225 224 225 14 0 91 74 91 87 0 6 8 14 18 17 10 4 36 22 58 41 48
43 80 48 42 8z m-2755 -283 c39 -17 74 -35 77 -40 3 -5 42 -30 85 -54 44 -25
85 -49 90 -54 6 -4 12 -9 15 -9 30 -8 60 -25 60 -34 0 -7 3 -10 6 -7 7 8 106
-36 142 -62 15 -11 61 -39 103 -62 98 -55 241 -152 285 -193 19 -18 34 -30 34
-28 0 2 7 -2 15 -10 8 -8 62 -52 121 -98 59 -46 131 -106 161 -134 29 -27 72
-68 97 -90 l44 -39 -30 -19 c-29 -17 -31 -17 -51 0 -11 10 -29 25 -39 33 -10
8 -30 28 -45 43 -15 16 -78 65 -140 109 -62 45 -113 85 -113 90 0 4 -7 8 -15
8 -8 0 -15 3 -15 8 0 4 -16 16 -36 27 -19 10 -48 29 -62 42 -15 13 -39 29 -54
36 -16 6 -28 15 -28 19 0 5 -5 8 -11 8 -6 0 -25 10 -42 23 -18 13 -49 32 -69
42 -21 11 -38 23 -38 27 0 5 -6 8 -14 8 -8 0 -16 3 -18 8 -6 14 -63 48 -133
80 -38 18 -83 40 -100 49 -16 9 -73 38 -125 66 -52 27 -113 66 -137 86 -23 21
-59 43 -80 50 -22 7 -50 21 -63 31 -20 15 -22 20 -9 32 13 13 49 37 57 38 2 0
35 -14 75 -30z m1657 -200 c-1 -3 -18 -24 -39 -47 -37 -41 -39 -42 -55 -24
-15 16 -15 19 -1 31 8 7 15 17 15 23 0 5 9 18 21 28 17 15 24 16 40 6 10 -6
19 -14 19 -17z m113 -107 c31 -32 68 -70 82 -84 29 -31 32 -58 7 -89 -25 -31
-53 -17 -146 71 -70 66 -92 99 -66 99 6 0 10 5 10 11 0 11 39 48 51 49 4 0 32
-26 62 -57z m-240 -27 c3 -8 -10 -32 -29 -54 -20 -21 -45 -57 -57 -79 -12 -22
-37 -68 -54 -101 -38 -72 -42 -75 -68 -56 -19 14 -19 15 3 20 12 4 22 14 22
23 0 9 18 43 40 76 22 33 40 65 40 70 0 6 13 25 30 43 16 18 35 42 40 53 13
22 26 25 33 5z m112 -104 c28 -26 61 -61 75 -78 14 -16 36 -37 49 -46 l23 -16
-25 -34 c-13 -18 -32 -49 -42 -68 -10 -19 -38 -66 -62 -103 -34 -51 -48 -65
-58 -57 -7 5 -10 22 -7 36 4 24 3 25 -31 19 -28 -6 -39 -3 -56 14 -12 12 -23
21 -25 21 -3 0 -18 12 -35 28 -22 20 -28 31 -21 42 5 8 10 24 10 35 0 11 6 31
14 45 7 14 27 51 43 82 28 53 81 126 93 127 3 1 28 -21 55 -47z m155 -417 c10
-12 10 -19 2 -27 -9 -9 -15 -7 -26 7 -23 32 0 49 24 20z m-272 -57 c9 -9 7
-14 -5 -24 -25 -17 -45 -7 -32 17 11 22 20 24 37 7z m202 -18 c0 -4 -11 -12
-24 -18 -24 -11 -24 -10 -14 19 8 24 13 27 24 18 8 -6 14 -15 14 -19z m158
-12 c16 -16 15 -25 -4 -32 -9 -3 -25 0 -36 8 -19 14 -19 14 -1 25 23 13 27 13
41 -1z m-462 -40 c5 -7 2 -9 -8 -5 -9 3 -24 -3 -34 -14 -9 -10 -22 -19 -27
-19 -6 0 0 11 13 25 25 27 45 32 56 13z m182 -21 c4 -21 -14 -22 -34 -3 -11
11 -11 16 -1 19 19 8 32 2 35 -16z m167 -28 c-22 -10 -46 -19 -52 -19 -7 0
-13 -4 -13 -8 0 -5 -6 -9 -14 -9 -24 0 -6 25 29 41 19 9 37 21 40 26 4 6 14 6
28 -2 21 -11 21 -12 -18 -29z m-270 -31 c-8 -5 -12 -21 -10 -43 4 -41 -9 -44
-41 -10 -28 31 -22 52 20 69 32 13 59 -1 31 -16z"/>
</g>
</svg>
