<?xml version="1.0" standalone="no"?>
<!DOCTYPE svg PUBLIC "-//W3C//DTD SVG 20010904//EN"
 "http://www.w3.org/TR/2001/REC-SVG-20010904/DTD/svg10.dtd">
<svg version="1.0" xmlns="http://www.w3.org/2000/svg"
 width="509.000000pt" height="441.000000pt" viewBox="0 0 509.000000 441.000000"
 preserveAspectRatio="xMidYMid meet">
<metadata>
Created by potrace 1.16, written by Peter Selinger 2001-2019
</metadata>
<g transform="translate(0.000000,441.000000) scale(0.100000,-0.100000)"
fill="#000000" stroke="none">
<path d="M2606 4379 c-13 -4 -52 -10 -87 -13 -35 -4 -84 -12 -109 -18 -83 -19
-277 -86 -328 -113 -34 -17 -58 -24 -72 -20 -36 11 -90 -56 -90 -111 0 -17
-10 -29 -38 -43 -20 -10 -66 -44 -102 -75 -36 -30 -72 -62 -82 -70 -9 -8 -26
-17 -38 -21 -12 -4 -31 -16 -41 -26 -11 -11 -33 -19 -52 -19 -18 0 -38 -5 -44
-11 -16 -16 -132 -40 -213 -44 -36 -2 -67 -4 -70 -5 -3 -1 -9 -1 -15 0 -16 4
-141 -1 -172 -6 -71 -13 -129 -80 -167 -194 -16 -47 -32 -89 -36 -95 -4 -5
-11 -26 -15 -45 -10 -53 -44 -158 -71 -221 -13 -31 -24 -65 -24 -76 0 -10 -4
-23 -8 -28 -5 -6 -15 -30 -23 -55 -7 -25 -30 -78 -51 -118 -20 -41 -42 -90
-49 -110 -6 -21 -15 -41 -19 -47 -4 -5 -10 -23 -14 -40 -4 -16 -11 -32 -16
-35 -4 -3 -22 -32 -39 -65 -67 -128 -99 -179 -125 -200 -20 -16 -26 -29 -26
-61 0 -34 7 -47 48 -89 46 -48 165 -135 184 -135 5 0 32 -15 61 -33 29 -18 99
-57 157 -86 58 -30 110 -57 115 -61 6 -4 39 -17 75 -29 36 -12 74 -26 85 -31
11 -5 43 -12 72 -15 29 -4 69 -15 90 -26 20 -10 45 -17 54 -14 42 14 44 -4 44
-489 0 -254 -3 -477 -7 -496 -4 -19 -10 -87 -13 -150 -4 -63 -10 -119 -14
-125 -14 -17 -8 -148 7 -153 6 -2 12 -14 12 -27 0 -13 6 -30 13 -37 7 -7 16
-21 20 -32 6 -15 13 -17 40 -11 40 9 41 9 107 1 30 -3 81 -6 113 -7 31 -1 57
-6 57 -10 0 -4 8 -8 18 -8 9 0 48 -4 86 -10 38 -6 84 -9 103 -5 18 3 61 1 96
-4 52 -9 155 -20 257 -26 14 -1 47 7 74 17 26 10 64 18 85 19 20 0 60 12 90
26 48 22 81 33 147 47 20 5 74 -33 74 -52 0 -5 21 -15 48 -22 26 -7 59 -17 73
-23 14 -5 50 -11 80 -13 30 -2 88 -7 129 -10 215 -17 377 -8 481 28 41 14 225
32 292 28 15 -1 38 4 50 11 12 7 29 13 37 14 30 6 64 74 42 88 -4 2 -5 69 -3
148 5 203 5 276 -2 418 -6 133 -9 350 -8 673 l1 198 52 25 c73 34 123 66 156
97 16 15 31 27 35 27 4 0 36 20 71 44 35 24 68 45 72 47 5 3 27 15 49 29 21
13 45 25 51 26 16 3 63 37 64 47 0 4 5 7 11 7 6 0 16 6 23 12 7 7 27 24 45 38
205 157 315 276 313 338 -1 30 -38 102 -53 102 -5 0 -9 8 -9 17 0 9 -3 13 -7
10 -9 -10 -121 218 -129 263 -3 19 -17 56 -31 81 -13 25 -26 54 -28 65 -2 10
-4 19 -5 19 -2 0 -7 25 -19 98 -10 60 -17 83 -47 162 -4 11 -6 23 -6 28 1 4
-2 7 -6 7 -5 0 -15 23 -22 50 -7 28 -17 50 -21 50 -5 0 -6 7 -3 15 4 8 2 15
-4 15 -6 0 -16 17 -22 38 -7 20 -16 41 -21 47 -5 5 -9 17 -9 27 0 10 -3 17 -7
17 -20 -3 -29 3 -41 31 -8 17 -18 30 -22 30 -5 0 -26 11 -46 25 -21 14 -45 23
-58 20 -40 -8 -121 -18 -146 -17 -14 0 -30 -4 -35 -8 -15 -13 -96 -14 -125 -2
-14 5 -45 8 -70 7 -25 -2 -50 1 -57 7 -6 5 -38 12 -70 14 -32 3 -71 11 -88 19
-16 7 -46 20 -67 29 -20 9 -42 16 -50 16 -7 0 -31 11 -52 25 -39 24 -66 68
-66 110 0 12 -9 30 -20 40 -11 10 -20 15 -20 10 0 -4 -7 -2 -15 5 -8 7 -31 14
-52 17 -71 10 -225 104 -274 169 -13 18 -27 30 -31 28 -4 -2 -9 0 -13 6 -4 6
-11 8 -16 5 -5 -3 -19 3 -31 14 -12 12 -31 21 -43 21 -11 0 -30 7 -42 15 -22
15 -232 26 -277 14z m211 -117 c10 -5 35 -17 56 -26 21 -9 41 -26 47 -40 11
-30 22 -37 60 -38 18 -1 30 -6 30 -14 0 -7 9 -21 19 -31 34 -32 53 -135 49
-268 -3 -107 -6 -126 -30 -176 -16 -31 -28 -64 -28 -73 0 -16 -13 -48 -57
-146 -9 -19 -20 -42 -24 -50 -74 -131 -99 -168 -144 -217 -30 -32 -62 -73 -72
-90 -10 -18 -23 -33 -30 -33 -7 0 -13 -4 -13 -10 0 -19 -39 -10 -84 21 -26 17
-46 37 -46 45 0 8 -3 14 -8 14 -8 0 -37 26 -198 177 -65 62 -110 113 -127 146
-15 29 -41 70 -57 92 -16 22 -31 51 -33 65 -2 14 -9 39 -16 55 -7 17 -15 46
-18 65 -3 19 -10 40 -14 46 -5 6 -6 14 -3 17 4 4 -2 19 -12 34 -26 40 -30 200
-6 251 25 53 51 75 102 87 3 1 21 9 40 18 69 32 232 77 283 78 29 1 66 5 82 9
40 10 228 4 252 -8z m428 -240 c28 -12 58 -26 68 -30 21 -9 59 -105 50 -128
-3 -8 -7 -45 -8 -82 -1 -37 -3 -88 -3 -114 -1 -26 -8 -53 -16 -60 -10 -10 -11
-20 -3 -42 10 -28 -3 -126 -23 -181 -5 -11 -14 -39 -21 -62 -7 -24 -15 -43
-19 -43 -4 0 -13 -12 -21 -27 -7 -16 -21 -39 -30 -53 -63 -98 -75 -115 -81
-118 -5 -2 -8 -8 -8 -13 0 -5 -7 -17 -15 -26 -36 -41 -114 -141 -144 -186 -29
-42 -34 -46 -47 -32 -9 8 -25 20 -36 26 -32 17 -128 104 -128 115 0 10 54 79
101 130 26 28 56 69 68 92 12 23 25 42 29 42 12 0 85 131 102 185 7 22 19 49
26 60 13 19 63 158 85 235 6 19 11 74 12 122 1 49 5 88 9 88 4 0 6 6 3 13 -9
29 -15 119 -8 115 4 -2 31 -14 58 -26z m-1311 -137 c3 -35 13 -77 20 -92 28
-56 37 -79 35 -89 -1 -5 3 -22 10 -39 23 -55 41 -110 41 -126 0 -8 20 -38 44
-67 24 -28 47 -66 51 -83 5 -20 34 -58 86 -109 43 -43 79 -82 79 -88 0 -5 20
-19 45 -31 25 -12 45 -25 45 -30 0 -8 22 -30 115 -116 49 -45 50 -46 30 -63
-11 -9 -37 -42 -58 -73 -20 -31 -48 -66 -62 -79 l-25 -24 -33 31 c-69 66 -90
83 -118 95 -16 7 -29 16 -29 20 0 5 -6 8 -12 8 -24 0 -157 152 -183 207 -14
31 -25 61 -25 68 0 7 -7 15 -14 18 -8 3 -18 22 -22 41 -3 20 -10 33 -15 30 -5
-3 -9 -1 -9 5 0 5 -6 16 -12 23 -12 12 -37 68 -42 94 -1 7 -7 18 -13 25 -6 8
-20 41 -32 74 -13 33 -27 65 -32 71 -5 6 -6 13 -3 17 3 3 -6 39 -20 80 -14 42
-26 83 -26 92 0 36 128 175 161 175 13 0 18 -14 23 -65z m1653 -121 c17 -9 36
-13 41 -10 5 3 24 -1 41 -10 18 -9 41 -14 52 -11 10 3 19 2 19 -3 0 -7 33 -16
95 -24 82 -10 130 -18 136 -22 4 -2 10 0 14 6 3 5 16 8 28 5 12 -3 67 1 122 9
104 16 150 13 141 -9 -2 -7 4 -15 14 -18 10 -3 28 -22 39 -43 12 -22 25 -46
30 -54 17 -27 83 -170 85 -183 1 -6 7 -21 14 -33 6 -11 13 -32 16 -45 5 -26
30 -129 47 -194 6 -22 21 -62 34 -90 13 -27 30 -68 37 -90 17 -54 135 -287
152 -300 28 -22 8 -65 -73 -154 -17 -19 -41 -41 -54 -50 -14 -9 -49 -32 -78
-52 -30 -20 -60 -43 -68 -53 -20 -24 -212 -146 -231 -146 -4 0 -41 -25 -81
-55 -40 -30 -78 -55 -85 -55 -7 0 -14 -5 -16 -11 -2 -6 -21 -14 -43 -19 -22
-4 -47 -11 -56 -14 -14 -6 -16 17 -14 231 1 131 3 240 5 243 1 3 1 16 1 30 -3
38 66 192 110 249 23 29 24 59 1 88 -30 38 -54 33 -77 -14 -25 -53 -40 -56
-21 -5 20 53 29 151 15 168 -17 21 -43 17 -67 -9 -21 -22 -25 -35 -37 -122
-11 -76 -23 -569 -24 -969 0 -220 -3 -412 -6 -426 -3 -14 -5 -47 -5 -75 0 -54
10 -531 11 -580 1 -16 -2 -107 -6 -202 l-8 -172 -26 -10 c-14 -6 -35 -10 -46
-10 -11 1 -42 -2 -70 -6 -27 -4 -64 -7 -82 -6 -18 1 -52 -8 -77 -19 -47 -22
-81 -29 -181 -35 -124 -8 -173 -7 -265 0 -52 5 -117 7 -144 6 -30 -1 -57 4
-73 14 -13 9 -38 17 -54 17 -16 1 -32 4 -34 8 -3 4 -6 50 -9 101 -2 52 -7 101
-10 109 -9 26 -18 93 -19 150 -1 30 -6 58 -11 62 -6 4 -11 156 -12 378 -2 205
-6 386 -10 404 -9 38 -14 107 -14 163 1 24 -3 69 -9 100 -5 32 -12 114 -16
183 -3 69 -11 150 -18 180 -8 31 -14 82 -16 114 -1 32 -11 81 -23 110 -30 73
-36 274 -9 308 35 45 43 68 30 84 -7 9 -8 14 -1 14 6 0 14 -5 17 -10 4 -6 11
-8 16 -5 5 4 9 1 9 -4 0 -6 6 -11 13 -11 12 0 53 -30 105 -77 13 -12 33 -25
43 -28 11 -4 19 -12 19 -18 1 -19 45 -64 70 -72 25 -8 70 11 70 30 0 11 20 50
63 120 7 11 33 45 58 75 68 82 137 178 145 202 5 18 27 50 101 153 8 10 11 20
18 55 2 8 12 36 24 62 11 26 23 64 27 85 3 21 12 57 20 81 8 24 12 48 9 53 -4
5 -2 9 3 9 9 0 8 43 -3 116 -3 23 -3 53 0 67 6 23 9 24 48 15 23 -5 56 -16 74
-24z m-1938 -44 c5 -16 7 -30 4 -30 -3 0 -1 -6 4 -12 6 -7 16 -37 23 -65 6
-29 21 -64 32 -78 11 -14 17 -25 14 -25 -4 0 5 -22 19 -50 14 -27 25 -58 25
-70 0 -11 5 -20 10 -20 6 0 10 -10 10 -22 0 -13 9 -34 20 -48 11 -14 20 -31
20 -37 0 -7 4 -13 8 -13 9 0 82 -142 82 -159 0 -14 70 -113 100 -141 14 -14
33 -35 42 -47 15 -24 82 -73 98 -73 6 0 10 -4 10 -10 0 -5 6 -10 13 -10 6 0
24 -10 38 -23 15 -12 44 -35 65 -52 22 -16 52 -42 67 -57 16 -16 35 -28 43
-28 8 0 17 -7 20 -15 4 -8 16 -15 28 -15 24 0 46 34 46 71 0 11 5 17 10 14 6
-4 8 -11 4 -16 -14 -23 -4 -156 16 -214 11 -33 23 -80 26 -105 3 -25 13 -79
21 -120 10 -46 17 -128 18 -215 1 -78 4 -146 8 -152 4 -6 10 -73 12 -150 3
-76 8 -154 11 -173 3 -19 4 -82 4 -140 -2 -281 -1 -498 4 -525 16 -90 17 -116
6 -149 -6 -19 -8 -41 -3 -48 4 -7 8 -17 8 -23 1 -5 7 -30 15 -55 21 -71 20
-87 -9 -101 -14 -7 -28 -13 -31 -14 -3 0 -34 -15 -70 -32 -81 -38 -166 -66
-179 -59 -5 4 -21 2 -36 -4 -61 -23 -166 -27 -259 -9 -27 5 -98 9 -156 8 -74
0 -117 4 -142 14 -20 8 -71 18 -114 22 -44 3 -99 13 -124 20 -25 8 -58 16 -75
18 -29 4 -29 4 -29 73 0 38 4 107 9 154 9 92 11 167 18 625 4 315 -2 439 -33
670 -5 39 -11 97 -14 130 -3 33 -9 76 -15 95 -9 33 -15 81 -27 211 -3 32 -9
81 -13 109 -5 29 -8 102 -7 162 1 102 0 110 -21 123 -16 11 -29 12 -47 5 -46
-17 -54 -60 -30 -164 7 -29 7 -29 -28 10 -20 21 -37 48 -39 59 -5 21 -15 23
-66 12 -27 -5 -33 -12 -39 -43 -6 -33 -3 -40 29 -70 20 -19 38 -34 42 -34 7 0
60 -60 96 -110 24 -32 30 -53 34 -117 4 -43 12 -109 20 -148 7 -38 16 -104 20
-147 l7 -76 -59 3 c-32 2 -75 11 -96 20 -21 9 -43 15 -50 14 -7 -1 -25 1 -42
6 -37 10 -393 191 -415 210 -9 8 -20 15 -23 15 -8 0 -102 61 -136 88 l-24 20
41 61 c23 33 42 64 42 67 0 4 17 32 38 63 20 31 46 81 56 111 11 30 25 64 33
75 7 11 13 26 13 33 0 14 9 37 61 150 16 35 29 65 29 67 0 2 5 16 12 32 6 15
12 30 13 33 6 22 18 58 25 75 40 92 78 203 85 245 4 27 44 144 68 200 31 71
67 83 252 81 50 -1 113 3 140 9 28 6 57 11 65 11 8 1 29 7 45 14 17 7 50 16
74 19 24 3 46 8 49 11 11 11 21 4 31 -25z"/>
<path d="M3643 2790 c-36 -21 -72 -32 -118 -34 -16 -1 -36 -5 -43 -10 -17 -10
-102 2 -138 20 -35 18 -79 10 -99 -19 -25 -35 -19 -61 20 -81 29 -16 58 -19
173 -20 97 -1 143 3 154 11 8 7 17 10 21 7 9 -9 77 -10 77 -2 0 5 6 8 13 8 21
0 47 34 47 61 0 24 -46 79 -66 79 -5 0 -24 -9 -41 -20z"/>
<path d="M2781 2500 c-13 -11 -20 -20 -15 -20 4 0 -2 -10 -13 -22 -11 -13 -23
-34 -26 -48 -3 -14 -12 -51 -21 -84 l-16 -58 27 -26 c57 -52 116 -58 205 -19
45 19 60 112 33 204 -17 58 -42 79 -106 87 -35 5 -49 2 -68 -14z m75 -176 c-5
-17 -13 -24 -31 -24 -28 0 -34 27 -13 48 10 10 10 15 -2 22 -15 9 -14 10 30
23 17 4 25 -31 16 -69z"/>
<path d="M2920 1568 c0 -4 -6 -8 -14 -8 -8 0 -26 -15 -41 -32 -14 -18 -34 -42
-43 -53 -11 -13 -17 -38 -17 -67 0 -39 5 -52 27 -73 33 -31 69 -45 111 -45 58
0 76 11 98 56 11 24 25 44 30 44 4 0 6 7 3 15 -4 8 -1 15 4 15 7 0 5 11 -4 28
-7 15 -14 38 -14 52 -1 28 -21 60 -39 60 -6 0 -11 5 -11 10 0 7 -19 10 -45 9
-25 -2 -45 -6 -45 -11z m42 -110 c2 -6 2 -24 0 -40 -4 -23 -9 -28 -26 -26 -24
3 -34 41 -16 64 15 17 37 18 42 2z"/>
<path d="M2903 834 c-83 -50 -94 -152 -23 -218 72 -66 168 -49 216 39 6 11 20
24 32 30 25 11 24 33 -3 97 -22 52 -33 58 -117 58 -31 0 -58 4 -60 9 -1 5 -22
-2 -45 -15z m127 -103 c0 -21 -23 -45 -33 -34 -4 3 -7 1 -7 -5 0 -17 -35 -15
-50 3 -10 12 -10 15 4 15 9 0 24 9 33 20 22 26 53 26 53 1z"/>
</g>
</svg>
