<?xml version="1.0" standalone="no"?>
<!DOCTYPE svg PUBLIC "-//W3C//DTD SVG 20010904//EN"
 "http://www.w3.org/TR/2001/REC-SVG-20010904/DTD/svg10.dtd">
<svg version="1.0" xmlns="http://www.w3.org/2000/svg"
 width="489.000000pt" height="337.000000pt" viewBox="0 0 489.000000 337.000000"
 preserveAspectRatio="xMidYMid meet">
<metadata>
Created by potrace 1.16, written by Peter Selinger 2001-2019
</metadata>
<g transform="translate(0.000000,337.000000) scale(0.100000,-0.100000)"
fill="#000000" stroke="none">
<path d="M3245 2515 c-49 -7 -106 -17 -125 -23 -45 -13 -129 -33 -155 -37 -25
-3 -184 -45 -210 -55 -38 -14 -132 -40 -147 -40 -9 0 -21 -6 -27 -14 -7 -8
-27 -18 -44 -21 -32 -6 -74 -19 -112 -35 -40 -17 -142 -48 -215 -66 -41 -10
-77 -21 -80 -25 -3 -3 -34 -13 -70 -23 -85 -23 -151 -48 -225 -84 -33 -17 -78
-35 -100 -42 -35 -11 -111 -45 -155 -69 -8 -5 -53 -23 -100 -41 -47 -18 -116
-47 -155 -65 -38 -17 -86 -38 -105 -45 -19 -7 -42 -19 -50 -26 -8 -7 -27 -15
-42 -19 -15 -4 -32 -13 -39 -21 -6 -8 -17 -14 -23 -14 -11 0 -144 -65 -216
-106 -19 -10 -55 -34 -79 -51 -24 -18 -49 -33 -55 -33 -6 0 -27 -14 -46 -30
-19 -16 -38 -30 -41 -30 -6 0 -23 -14 -91 -76 -14 -13 -31 -24 -37 -24 -6 0
-11 -4 -11 -9 0 -5 -11 -13 -24 -18 -23 -7 -72 -45 -135 -103 -27 -24 -71
-104 -71 -128 0 -7 -4 -12 -9 -12 -9 0 -22 -58 -26 -114 -1 -19 12 -49 43 -95
56 -83 84 -109 166 -151 36 -18 66 -39 66 -47 0 -8 5 -11 11 -7 6 3 25 -4 42
-16 16 -13 42 -23 57 -24 14 -1 38 -9 53 -19 14 -9 41 -19 59 -21 28 -3 34 -9
42 -37 6 -19 16 -40 23 -47 7 -7 13 -17 13 -21 0 -32 159 -125 230 -135 19 -3
57 -10 85 -16 27 -6 51 -6 53 -2 3 9 53 3 152 -18 25 -5 77 -12 115 -16 39 -3
79 -8 90 -11 26 -5 159 -4 255 3 41 4 212 7 380 8 168 2 316 6 330 10 14 3 79
9 145 11 66 2 149 10 185 16 55 10 144 19 200 20 8 0 47 5 85 11 39 6 121 10
183 10 61 0 114 4 117 8 4 7 171 25 195 22 3 0 10 3 15 8 6 4 35 11 65 15 30
4 83 13 118 21 35 8 67 12 73 8 5 -3 15 -1 22 4 7 5 30 15 52 22 39 11 90 32
131 51 66 33 142 132 150 197 2 13 7 29 13 35 12 15 5 209 -12 312 -3 17 -8
66 -12 110 -4 44 -9 89 -11 100 -2 11 -6 56 -9 100 -5 83 -12 190 -21 308 -3
44 -13 83 -28 112 -23 43 -92 115 -110 115 -5 0 -18 7 -28 16 -14 13 -21 14
-32 5 -8 -7 -49 -16 -90 -20 l-75 -7 -18 41 c-14 31 -18 68 -18 170 -1 72 -4
141 -9 155 -15 47 -31 80 -39 80 -5 0 -14 6 -21 13 -70 67 -122 87 -243 92
-52 2 -102 6 -111 8 -10 3 -57 -1 -107 -8z m362 -180 c53 -58 60 -88 22 -100
-10 -4 -26 -16 -36 -29 -10 -12 -21 -22 -24 -22 -3 1 -12 -4 -20 -11 -8 -7
-39 -16 -69 -22 -72 -12 -112 -21 -120 -26 -3 -2 -40 -7 -81 -10 -41 -4 -87
-13 -104 -20 -16 -8 -70 -18 -120 -24 -96 -10 -123 -16 -227 -54 -37 -14 -69
-23 -72 -20 -2 3 -15 -2 -28 -11 -12 -8 -63 -24 -113 -34 -135 -30 -197 -47
-231 -65 -18 -9 -51 -19 -75 -23 -24 -4 -48 -10 -54 -14 -5 -4 -37 -14 -70
-24 -33 -9 -68 -21 -77 -27 -10 -5 -26 -9 -36 -9 -9 0 -28 -7 -40 -16 -12 -8
-22 -12 -22 -8 0 3 -6 2 -12 -4 -7 -6 -31 -13 -53 -17 -22 -4 -44 -11 -50 -15
-12 -9 -86 -35 -100 -35 -6 0 -35 -12 -65 -26 -30 -14 -75 -34 -100 -43 -25
-10 -60 -24 -78 -32 -18 -8 -42 -14 -54 -14 -24 0 -143 -55 -173 -80 -11 -10
-40 -28 -63 -41 l-44 -24 -30 35 c-62 73 -98 195 -58 195 8 0 22 5 30 10 25
16 112 45 121 40 4 -3 9 -1 11 4 2 6 92 51 101 50 1 -1 25 8 52 19 47 19 116
51 385 179 140 67 190 87 268 107 33 9 72 23 88 31 16 8 35 15 43 15 8 0 28 4
45 9 17 6 72 22 121 37 50 14 99 30 110 35 64 27 103 38 148 42 9 1 17 4 17 8
0 4 12 9 28 12 15 3 70 17 122 31 52 15 109 28 125 31 46 6 124 23 190 40 33
9 100 18 150 20 49 3 92 5 95 6 3 0 23 0 45 0 22 -1 46 3 54 8 26 17 75 -8
128 -64z m-32 -296 c-10 -16 14 -46 40 -51 19 -4 25 -1 25 13 0 19 46 56 56
46 7 -7 24 -80 20 -85 -5 -4 -64 -11 -114 -13 -24 -1 -45 -6 -48 -11 -10 -16
-54 -9 -54 10 -1 24 -22 50 -37 45 -14 -5 -17 6 -5 22 18 25 132 49 117 24z
m-166 -72 c-58 -49 -67 -54 -104 -61 -33 -7 -37 -5 -27 7 7 7 31 22 54 33 24
10 45 21 48 25 3 3 12 9 20 12 31 11 34 6 9 -16z m-205 -11 c-10 -8 -22 -12
-26 -10 -9 6 -53 -36 -60 -57 -4 -10 -31 -22 -70 -32 -74 -18 -189 -47 -203
-51 -10 -3 -25 -9 -85 -33 -19 -8 -51 -16 -70 -19 -35 -4 -69 -15 -127 -40
-17 -8 -36 -14 -41 -14 -6 0 -59 -16 -118 -35 -59 -19 -116 -37 -128 -39 -54
-12 -179 -49 -256 -77 -47 -17 -97 -34 -112 -36 -18 -3 -28 -12 -28 -23 0 -15
-10 -17 -74 -17 -62 0 -79 -4 -107 -24 -39 -28 -66 -45 -94 -57 -17 -8 -147
-119 -165 -141 -3 -4 -25 -15 -50 -26 -25 -10 -55 -29 -68 -41 -12 -12 -42
-27 -66 -33 -23 -6 -53 -19 -67 -29 -13 -11 -40 -23 -59 -26 -59 -12 -70 -17
-70 -29 0 -7 -15 -21 -34 -31 -19 -10 -59 -40 -88 -67 -29 -27 -60 -51 -68
-54 -8 -3 -23 -18 -32 -35 -16 -28 -19 -29 -70 -24 -29 3 -70 10 -91 15 -37
10 -37 10 -20 34 22 29 70 58 83 50 6 -3 10 3 10 14 0 19 86 91 109 91 6 0 11
6 11 14 0 8 9 17 19 21 11 3 36 19 56 35 21 17 43 30 49 30 6 0 28 11 48 25
20 14 42 25 47 25 6 0 31 15 56 34 24 19 58 37 74 41 16 3 40 16 53 29 13 12
48 37 78 56 30 19 57 37 60 40 8 8 82 45 91 45 4 0 11 3 15 8 4 4 13 7 19 7 7
0 30 8 51 17 22 9 41 17 44 18 3 0 21 6 40 14 19 7 51 19 70 26 55 20 163 65
181 75 20 11 90 25 107 22 6 -2 12 3 12 9 0 7 3 9 7 6 3 -4 13 -1 22 7 15 13
65 32 107 41 10 2 46 13 79 24 33 11 70 21 82 21 11 0 43 11 70 25 48 24 226
71 293 77 19 2 41 9 48 15 7 7 25 15 40 18 40 9 91 22 149 40 29 8 65 17 80
20 16 2 66 10 113 18 47 7 87 12 89 10 3 -2 -4 -10 -15 -17z m516 -116 c8 -5
19 -5 25 -1 27 22 209 -17 238 -50 21 -26 23 -87 2 -95 -8 -3 -35 -37 -60 -76
-33 -49 -57 -74 -81 -84 -19 -8 -34 -18 -34 -23 0 -9 -35 -21 -75 -26 -11 -2
-47 -8 -80 -13 -33 -6 -113 -11 -177 -11 -132 1 -254 -7 -343 -22 -105 -17
-220 -42 -230 -50 -6 -4 -44 -15 -85 -25 -41 -9 -102 -23 -135 -31 -33 -8 -69
-16 -80 -18 -63 -14 -104 -25 -140 -39 -22 -8 -49 -15 -60 -16 -11 0 -30 -7
-42 -15 -12 -9 -26 -15 -30 -14 -13 3 -45 -13 -102 -53 -43 -30 -57 -35 -72
-27 -11 5 -19 14 -19 19 0 6 -7 10 -15 10 -8 0 -15 3 -15 8 0 4 -22 30 -48 57
-29 31 -51 65 -58 91 l-10 41 50 18 c28 10 74 28 102 41 29 12 68 26 88 29 20
4 36 11 36 15 0 7 34 19 57 21 5 0 15 6 23 13 16 14 221 94 255 100 11 1 27 6
35 9 70 29 331 105 380 111 14 2 32 6 40 8 48 17 102 29 150 33 30 3 75 9 100
15 25 6 92 17 150 25 58 8 125 18 150 24 61 12 92 13 110 1z m350 -290 c0 -36
-4 -50 -14 -50 -8 0 -36 -20 -62 -44 -26 -25 -59 -48 -73 -51 -39 -9 -81 -29
-81 -37 0 -5 -6 -8 -13 -8 -24 0 -44 -33 -38 -60 8 -29 41 -38 62 -18 18 18
87 58 99 58 6 0 31 16 56 36 55 41 62 37 77 -38 24 -122 0 -405 -39 -466 -53
-83 -137 -142 -209 -148 -22 -2 -71 -11 -110 -20 -45 -11 -122 -18 -214 -20
-79 -2 -150 -5 -157 -8 -36 -14 -22 104 16 139 25 22 25 37 2 58 -18 16 -62
13 -62 -4 0 -5 -5 -9 -10 -9 -12 0 35 90 55 105 7 6 26 31 42 57 16 25 47 67
69 94 58 70 196 204 211 204 7 0 13 5 13 10 0 6 10 10 23 10 44 0 182 79 248
142 10 9 29 24 44 34 14 9 32 32 40 50 8 19 16 34 19 34 4 0 6 -22 6 -50z
m-3120 -5 c-7 -8 -19 -15 -26 -15 -8 0 -14 -3 -14 -7 0 -5 -17 -19 -38 -32
-20 -14 -48 -35 -62 -48 -44 -40 -90 -75 -90 -68 0 4 -9 -4 -21 -19 -11 -14
-24 -26 -29 -26 -5 0 -26 -16 -47 -35 -21 -19 -44 -35 -50 -35 -7 0 -13 -5
-13 -10 0 -6 -11 -15 -25 -22 -13 -6 -22 -15 -19 -20 3 -4 -4 -20 -15 -34 -12
-15 -21 -35 -21 -45 0 -19 36 -45 58 -41 7 2 11 -1 10 -5 -8 -26 46 -108 64
-97 4 2 9 0 13 -6 3 -5 0 -10 -7 -10 -7 0 -24 -13 -38 -30 -14 -16 -30 -30
-37 -30 -7 0 -26 14 -43 30 -17 17 -35 30 -40 30 -11 0 -60 103 -60 126 0 8
-5 25 -11 36 -10 18 -4 27 47 75 32 30 82 71 112 90 29 20 71 53 93 74 23 22
47 39 54 39 7 0 16 7 19 16 4 9 9 14 13 11 3 -4 17 3 31 13 13 11 30 20 36 20
6 0 21 11 34 24 39 42 154 90 122 51z m112 -114 c70 -90 73 -98 46 -121 -13
-11 -28 -19 -35 -20 -6 0 -13 -3 -15 -7 -1 -5 -18 -16 -36 -26 -33 -17 -34
-17 -39 3 -3 11 -10 20 -15 20 -5 0 -6 4 -3 10 3 5 -3 19 -14 31 -12 13 -18
30 -15 46 9 49 7 66 -6 58 -5 -3 -10 -2 -10 2 0 5 21 21 48 35 26 15 47 27 48
27 0 1 21 -25 46 -58z m2502 -89 c15 -2 16 -5 6 -17 -7 -8 -19 -15 -26 -15 -8
0 -20 -11 -26 -25 -6 -14 -17 -25 -25 -25 -7 0 -13 -4 -13 -10 0 -5 -8 -18
-17 -28 -10 -9 -34 -38 -53 -62 -19 -25 -45 -56 -58 -70 -13 -14 -28 -37 -34
-52 -5 -16 -16 -28 -24 -28 -8 0 -18 -8 -21 -17 -4 -10 -15 -27 -25 -37 -10
-11 -18 -22 -19 -25 -4 -28 -20 -70 -38 -101 -23 -39 -60 -121 -66 -149 l-7
-31 -91 0 c-51 -1 -101 -1 -112 -1 -11 0 -51 -5 -90 -10 -38 -5 -113 -11 -165
-14 -52 -3 -126 -11 -165 -18 -48 -9 -152 -12 -335 -11 -401 3 -436 4 -424 12
6 4 15 14 20 24 13 24 230 245 298 303 32 28 68 54 80 59 54 22 74 33 121 66
55 39 151 88 187 96 13 2 33 6 45 8 12 3 30 9 41 15 11 6 21 8 24 6 3 -3 30 4
62 15 31 10 76 22 99 25 61 9 70 11 89 19 9 4 43 14 75 21 32 7 87 21 123 30
85 21 155 35 210 41 24 3 45 6 47 7 2 3 276 2 307 -1z m-1683 -9 c0 -5 2 -16
4 -26 2 -10 -4 -21 -13 -24 -9 -4 -35 -21 -58 -40 -23 -18 -46 -33 -53 -33 -6
0 -11 -4 -11 -10 0 -5 -18 -14 -39 -20 -22 -6 -55 -26 -74 -45 -19 -19 -40
-35 -47 -35 -12 0 -145 -137 -172 -179 -32 -48 -2 -139 66 -201 22 -19 45 -40
51 -47 18 -17 78 -40 97 -37 21 3 29 -7 19 -24 -4 -7 -66 -14 -181 -18 -335
-14 -382 -9 -480 52 -44 28 -56 41 -66 75 -7 23 -10 49 -7 58 8 21 98 111 112
111 7 0 14 6 17 14 3 8 35 26 72 41 36 14 85 37 109 50 24 14 43 22 43 19 0
-5 30 11 120 65 19 11 45 25 57 30 12 6 27 19 33 31 6 11 19 20 30 20 10 0 20
3 22 8 7 17 161 103 208 117 72 21 98 31 110 42 16 14 30 17 31 6z m-1032 -98
c8 -22 19 -41 23 -43 16 -7 7 -20 -22 -32 -17 -7 -34 -19 -39 -27 -6 -12 -12
-13 -29 -4 -40 21 -44 44 -15 100 32 65 59 67 82 6z m1133 -77 c37 -36 68 -75
72 -92 6 -26 2 -34 -30 -63 l-38 -33 -15 27 c-8 16 -16 30 -16 33 -2 12 -59
90 -66 90 -5 0 -12 15 -17 32 -7 27 -5 36 12 50 12 10 24 17 27 18 3 0 35 -28
71 -62z m-161 -165 c14 -27 15 -39 7 -53 -9 -14 -8 -24 6 -44 9 -15 21 -24 26
-21 15 9 11 -7 -5 -29 -8 -11 -17 -17 -21 -14 -3 4 -24 0 -45 -7 -43 -15 -77
-8 -107 21 -36 37 -18 142 37 205 l34 41 25 -32 c14 -18 33 -48 43 -67z m2256
-241 c-10 -10 -17 -24 -17 -31 0 -7 -16 -19 -35 -26 -19 -8 -42 -24 -53 -35
-12 -13 -40 -23 -83 -29 -35 -5 -84 -17 -109 -26 -28 -10 -88 -17 -160 -20
-63 -2 -122 -6 -130 -9 -24 -8 -106 -16 -225 -21 -114 -5 -173 -12 -190 -23
-5 -3 -16 -7 -25 -7 -31 -3 -146 -18 -175 -23 -16 -2 -56 -6 -87 -7 -31 -2
-62 -6 -67 -10 -6 -3 -61 -9 -123 -12 -62 -3 -129 -7 -148 -9 -36 -4 -220 -7
-465 -7 -77 0 -201 -1 -275 -1 -157 -1 -324 9 -395 23 -27 5 -79 10 -114 10
-111 1 -267 59 -301 112 -14 23 -14 23 5 9 11 -8 29 -22 41 -32 26 -23 119
-58 154 -58 14 0 32 -4 40 -9 8 -6 19 -7 24 -3 6 3 53 7 106 8 310 7 436 7
448 1 6 -5 12 -4 12 2 0 7 34 9 103 5 56 -3 171 -6 255 -5 91 0 152 -4 152
-10 0 -5 9 -4 20 3 15 10 27 10 50 1 16 -6 30 -7 30 -2 0 5 24 9 54 9 29 0 76
4 103 9 27 6 103 13 169 16 65 4 133 8 149 11 17 2 77 6 135 9 128 5 283 16
291 20 15 10 148 19 254 17 75 -1 139 4 170 13 46 12 220 46 255 50 26 2 74
32 119 75 42 40 71 49 38 12z m-840 -54 c-3 -8 -6 -5 -6 6 -1 11 2 17 5 13 3
-3 4 -12 1 -19z"/>
<path d="M3658 1242 c-16 -9 -28 -20 -28 -24 0 -5 -7 -8 -14 -8 -8 0 -27 -11
-41 -24 -22 -21 -25 -28 -15 -45 6 -12 16 -21 23 -22 79 -5 78 -5 72 18 -4 17
1 26 24 37 15 8 31 13 34 9 4 -3 11 6 17 21 8 21 7 31 -4 42 -19 18 -35 17
-68 -4z"/>
<path d="M3505 1093 c-11 -3 -41 -30 -68 -59 -42 -49 -46 -57 -36 -77 20 -37
40 -46 58 -28 9 9 22 29 28 44 7 15 19 27 27 27 22 0 40 54 26 79 -6 12 -12
20 -13 20 -1 -1 -11 -4 -22 -6z"/>
</g>
</svg>
