<?xml version="1.0" standalone="no"?>
<!DOCTYPE svg PUBLIC "-//W3C//DTD SVG 20010904//EN"
 "http://www.w3.org/TR/2001/REC-SVG-20010904/DTD/svg10.dtd">
<svg version="1.0" xmlns="http://www.w3.org/2000/svg"
 width="479.000000pt" height="459.000000pt" viewBox="0 0 479.000000 459.000000"
 preserveAspectRatio="xMidYMid meet">
<metadata>
Created by potrace 1.16, written by Peter Selinger 2001-2019
</metadata>
<g transform="translate(0.000000,459.000000) scale(0.100000,-0.100000)"
fill="#000000" stroke="none">
<path d="M1375 4421 c-50 -20 -105 -53 -105 -63 0 -4 -5 -8 -10 -8 -16 0 -76
-62 -84 -87 -4 -11 -13 -23 -20 -26 -8 -3 -20 -29 -27 -57 -12 -46 -20 -56
-84 -104 -38 -30 -83 -61 -100 -69 -16 -9 -50 -37 -75 -62 -25 -25 -60 -60
-77 -77 -18 -17 -33 -37 -33 -45 0 -7 -4 -13 -9 -13 -9 0 -100 -171 -107 -201
-2 -11 -6 -27 -8 -37 -2 -9 -9 -35 -15 -57 -8 -33 -17 -117 -23 -215 0 -8 0
-58 1 -110 3 -104 0 -124 -23 -169 -9 -16 -16 -35 -16 -40 0 -14 -42 -102 -84
-176 -19 -33 -44 -80 -57 -105 -12 -25 -39 -68 -60 -96 -21 -27 -40 -59 -42
-70 -2 -10 -8 -29 -15 -41 -17 -31 -15 -118 3 -137 8 -8 15 -18 15 -21 0 -12
44 -44 95 -70 28 -14 66 -40 85 -57 19 -18 37 -33 40 -34 3 0 19 -6 35 -13 18
-8 46 -10 70 -6 22 3 59 9 83 12 40 5 45 9 78 70 20 35 41 79 47 98 6 19 14
35 19 35 5 0 8 8 7 18 -7 52 66 220 108 248 15 9 36 26 47 36 11 10 28 20 38
24 10 3 18 9 18 13 0 4 16 13 35 20 19 7 35 17 35 22 0 6 4 8 9 5 4 -3 19 6
31 19 13 14 28 25 34 25 20 0 158 155 198 222 22 38 42 67 45 65 2 -3 6 -14 8
-26 6 -32 15 -63 25 -86 4 -11 17 -51 29 -88 12 -37 26 -73 31 -80 21 -25 80
-119 80 -127 0 -5 5 -10 10 -12 30 -10 46 -193 25 -278 -16 -66 -27 -119 -35
-165 -12 -71 -30 -134 -51 -180 -10 -22 -34 -82 -53 -132 -19 -51 -51 -125
-69 -165 -19 -40 -42 -92 -52 -115 -10 -24 -21 -43 -25 -43 -4 0 -13 -15 -20
-32 -14 -37 -59 -109 -75 -120 -5 -4 -7 -8 -3 -8 6 0 -5 -27 -77 -186 -13 -29
-38 -90 -55 -135 -18 -46 -37 -93 -43 -104 -70 -132 -80 -161 -84 -254 -4 -99
8 -133 54 -158 18 -10 36 -26 39 -35 3 -10 11 -18 18 -18 7 0 22 -9 34 -20 12
-11 26 -20 31 -20 6 0 37 -20 68 -44 32 -24 94 -60 138 -81 44 -20 87 -43 95
-49 8 -7 42 -22 75 -35 33 -12 84 -34 114 -48 57 -27 77 -32 149 -37 26 -2 67
-9 92 -14 25 -6 99 -13 164 -17 66 -3 123 -8 126 -10 4 -3 71 -7 150 -10 79
-3 146 -6 149 -6 3 -1 9 -1 13 0 4 0 38 3 75 7 37 3 97 10 133 16 36 5 106 11
155 14 123 6 167 10 185 17 24 9 71 19 115 24 46 5 145 32 160 43 6 4 24 10
40 14 27 7 58 24 135 76 14 10 43 26 65 38 22 11 52 31 67 43 37 34 89 76 117
96 39 29 116 106 143 143 37 50 42 88 19 130 -11 19 -25 46 -33 60 -7 14 -15
27 -19 30 -3 3 -24 39 -46 80 -64 121 -122 218 -157 264 -17 23 -38 57 -45 74
-7 18 -17 32 -22 32 -5 0 -9 6 -9 13 0 7 -9 18 -20 25 -11 7 -20 19 -20 26 0
8 -16 35 -35 60 -19 26 -43 61 -53 79 -10 17 -32 54 -50 81 -17 27 -35 59 -38
70 -4 12 -15 33 -25 47 -10 14 -16 28 -14 31 3 2 -6 33 -18 69 -13 35 -29 91
-37 124 -33 154 -65 245 -170 490 -5 11 -25 54 -44 96 -37 77 -43 99 -27 99 5
0 14 12 20 28 6 15 15 34 20 42 44 68 111 194 111 208 0 9 6 29 14 44 21 40
35 89 38 128 1 19 7 44 15 54 12 19 13 19 19 1 26 -66 139 -215 164 -215 5 0
10 -4 10 -9 0 -5 25 -22 55 -37 30 -16 55 -32 55 -36 0 -4 20 -13 45 -19 56
-14 142 -95 180 -169 10 -19 24 -39 31 -43 8 -4 14 -12 14 -17 0 -10 21 -38
53 -72 10 -11 19 -28 20 -39 1 -10 4 -19 8 -19 4 0 27 -31 51 -70 36 -59 49
-71 81 -80 50 -14 87 -6 123 29 16 15 37 30 46 34 9 3 34 28 55 56 21 27 44
50 51 50 6 1 12 5 12 10 0 5 21 19 46 31 25 13 50 33 56 46 6 13 15 24 20 24
5 0 7 4 3 10 -3 5 3 18 15 30 11 11 20 27 20 35 0 23 -34 81 -69 117 -17 17
-34 41 -37 52 -4 11 -16 28 -28 38 -11 9 -17 17 -13 18 4 0 -8 15 -28 32 -19
18 -35 38 -35 45 0 6 -9 15 -20 18 -26 8 -41 37 -34 66 7 32 7 39 0 74 -3 17
-9 59 -12 95 -3 36 -15 89 -25 118 -10 29 -19 60 -19 69 0 9 -8 35 -18 57 -18
40 -41 102 -46 121 -5 24 -77 156 -107 199 -47 65 -227 247 -269 271 -78 46
-116 64 -132 64 -10 1 -18 5 -18 10 0 5 -24 14 -52 21 -73 15 -144 51 -157 78
-6 12 -14 22 -19 22 -5 0 -22 11 -38 25 -16 14 -32 25 -37 25 -4 0 -26 9 -50
19 -23 11 -61 22 -84 26 -24 4 -43 10 -43 14 0 8 -172 7 -205 -1 -11 -3 -33
-8 -50 -12 -16 -4 -37 -10 -45 -13 -8 -3 -21 -7 -28 -9 -29 -6 -122 -48 -122
-56 0 -4 -7 -8 -15 -8 -8 0 -15 -4 -15 -10 0 -5 -6 -10 -14 -10 -7 0 -26 -7
-42 -14 -15 -8 -31 -13 -36 -10 -4 3 -8 1 -8 -5 0 -5 -15 -13 -32 -17 -18 -4
-37 -9 -43 -10 -138 -34 -296 -44 -351 -24 -14 6 -37 10 -51 10 -14 0 -51 15
-82 33 -31 18 -85 48 -121 67 -36 18 -72 39 -81 46 -8 8 -21 14 -28 14 -19 0
-111 41 -111 50 0 24 -230 33 -285 11z m283 -146 c15 -9 34 -19 42 -24 8 -5
37 -20 64 -32 40 -18 80 -52 141 -118 6 -6 37 -37 70 -69 71 -70 121 -130 155
-187 14 -23 41 -61 60 -84 38 -45 182 -302 200 -357 9 -28 17 -34 39 -34 31 0
94 50 90 71 -5 23 35 180 51 204 4 6 13 32 20 58 7 27 21 65 32 85 10 20 18
44 18 54 0 43 136 322 180 366 17 19 48 41 68 49 33 14 59 18 157 24 99 6 219
-58 264 -142 10 -19 25 -34 32 -34 8 -1 23 -6 34 -12 11 -6 37 -13 58 -17 20
-4 37 -11 37 -16 0 -4 23 -14 50 -21 28 -7 50 -16 50 -21 0 -4 5 -8 11 -8 6 0
31 -13 56 -30 24 -16 48 -30 52 -30 5 0 15 -7 22 -17 8 -9 32 -24 55 -34 22
-10 53 -33 67 -51 15 -17 27 -28 27 -24 0 5 18 -10 40 -32 22 -22 40 -44 40
-50 0 -6 4 -12 8 -14 24 -10 95 -142 97 -180 0 -3 4 -10 8 -15 11 -10 37 -71
43 -98 2 -11 6 -32 9 -48 3 -15 13 -49 21 -75 11 -31 17 -89 19 -172 2 -133
12 -170 50 -190 30 -16 113 -110 164 -186 l40 -59 -43 -40 c-23 -22 -51 -47
-62 -56 -10 -9 -39 -39 -63 -67 -25 -28 -55 -55 -68 -61 -21 -10 -25 -8 -36
17 -6 15 -26 50 -44 79 -18 29 -33 56 -33 60 0 4 -14 28 -30 53 -16 25 -30 51
-30 58 0 14 0 14 -63 83 -48 53 -126 104 -177 114 -42 9 -164 68 -186 90 -9 8
-19 15 -23 15 -11 0 -83 106 -105 153 -9 21 -24 60 -32 87 -8 27 -18 51 -23
54 -5 3 -21 30 -35 61 -15 30 -33 55 -40 55 -15 0 -76 -44 -93 -67 -7 -9 -13
-41 -13 -71 0 -89 -58 -299 -115 -418 -25 -53 -154 -201 -196 -227 -29 -18
-61 -25 -199 -39 -102 -11 -450 -17 -455 -7 -2 3 -38 6 -80 7 -42 2 -88 8
-103 13 -15 6 -59 12 -99 14 -134 8 -192 54 -267 211 -13 29 -27 67 -31 85 -4
19 -11 39 -17 46 -5 6 -13 33 -17 60 -5 26 -18 95 -30 153 -12 57 -20 113 -17
123 2 11 0 30 -7 44 -9 21 -16 24 -41 19 -17 -4 -34 -13 -39 -21 -4 -8 -14
-15 -22 -15 -13 0 -16 -11 -30 -95 -6 -38 -32 -104 -45 -115 -3 -3 -29 -42
-58 -86 -28 -45 -68 -98 -89 -118 -62 -60 -151 -126 -168 -126 -9 0 -28 -11
-43 -25 -15 -14 -50 -37 -79 -51 -51 -25 -138 -106 -126 -118 4 -3 2 -16 -4
-29 -6 -12 -16 -42 -22 -67 -14 -55 -15 -59 -28 -90 -13 -32 -51 -117 -66
-147 -12 -26 -45 -30 -85 -10 -55 28 -158 75 -175 81 -34 11 -31 37 15 125 25
47 51 103 58 124 7 22 27 66 46 99 19 33 34 64 34 69 0 5 4 9 8 9 10 0 52 99
52 121 0 9 6 22 14 28 7 6 17 26 21 44 4 17 9 41 12 52 2 11 5 94 7 185 2 172
11 223 54 305 12 22 26 52 33 68 6 15 15 27 21 27 5 0 7 4 4 9 -3 5 16 42 43
82 66 102 200 237 267 272 16 8 41 27 55 41 14 14 42 33 63 41 28 12 36 21 36
41 0 19 4 25 15 20 9 -3 15 0 15 9 0 39 112 128 183 146 43 10 122 2 155 -16z
m982 -139 c0 -3 -13 -31 -29 -63 -44 -88 -65 -138 -107 -258 -67 -194 -73
-211 -74 -187 0 12 -4 22 -9 22 -5 0 -11 8 -15 18 -3 9 -19 40 -35 67 -17 28
-45 76 -62 108 -18 32 -49 77 -70 100 -63 69 -112 117 -121 117 -4 0 -8 4 -8
10 0 5 15 8 33 5 48 -7 266 -6 312 1 22 4 47 7 55 8 21 3 89 37 96 47 5 9 34
13 34 5z m-712 -1552 c29 -2 61 -5 70 -8 32 -10 207 -29 302 -32 52 -2 111 -5
130 -6 32 -2 151 6 275 18 74 7 94 10 165 24 46 8 65 9 68 1 2 -6 9 -11 16
-11 15 0 79 -117 71 -130 -3 -5 1 -12 8 -17 8 -4 24 -35 36 -68 13 -33 27 -68
32 -77 5 -10 9 -27 9 -38 0 -11 6 -31 14 -43 8 -12 21 -53 30 -92 9 -38 21
-79 25 -90 11 -24 22 -58 47 -140 10 -33 22 -64 26 -69 4 -6 8 -19 8 -29 0
-28 135 -297 165 -330 14 -15 32 -45 40 -68 8 -22 23 -52 33 -67 10 -15 29
-47 41 -72 13 -25 36 -60 52 -78 16 -18 29 -39 29 -46 0 -8 20 -41 45 -74 25
-33 45 -62 45 -66 0 -3 15 -29 33 -58 40 -66 85 -177 80 -198 -3 -8 -25 -31
-49 -50 -46 -36 -72 -56 -111 -91 -62 -53 -265 -179 -288 -179 -7 0 -16 -4
-19 -9 -18 -28 -311 -89 -441 -90 -44 -1 -116 -7 -160 -14 -84 -13 -360 -15
-391 -3 -10 4 -79 9 -154 11 -124 4 -168 10 -345 45 -52 11 -191 65 -205 80
-3 3 -24 12 -47 19 -24 8 -50 23 -60 33 -9 10 -32 26 -51 35 -18 9 -46 28 -61
42 -37 34 -82 65 -100 68 -8 1 -17 5 -20 10 -10 14 -59 43 -78 46 -10 1 -29
10 -43 20 -36 25 -34 101 6 190 17 38 35 68 39 67 5 -1 16 17 25 39 8 22 21
46 28 53 6 6 12 16 12 21 0 6 26 46 58 91 32 44 76 114 97 154 22 39 43 72 48
72 4 0 5 5 2 10 -4 6 -2 17 4 24 12 14 52 111 112 266 23 58 44 110 49 115 4
6 13 30 20 55 6 25 19 61 27 80 28 64 31 75 37 105 4 17 8 40 11 53 21 100 43
313 44 426 l1 88 28 -7 c15 -4 51 -9 80 -11z"/>
</g>
</svg>
