<?xml version="1.0" standalone="no"?>
<!DOCTYPE svg PUBLIC "-//W3C//DTD SVG 20010904//EN"
 "http://www.w3.org/TR/2001/REC-SVG-20010904/DTD/svg10.dtd">
<svg version="1.0" xmlns="http://www.w3.org/2000/svg"
 width="453.000000pt" height="397.000000pt" viewBox="0 0 453.000000 397.000000"
 preserveAspectRatio="xMidYMid meet">
<metadata>
Created by potrace 1.16, written by Peter Selinger 2001-2019
</metadata>
<g transform="translate(0.000000,397.000000) scale(0.100000,-0.100000)"
fill="#000000" stroke="none">
<path d="M1461 3743 c-12 -8 -21 -25 -21 -38 0 -13 -6 -28 -13 -32 -7 -4 -20
-24 -29 -43 -9 -19 -33 -70 -52 -113 -38 -80 -92 -244 -127 -382 -12 -44 -32
-118 -47 -165 -14 -47 -27 -89 -28 -95 -1 -5 -9 -30 -17 -55 -8 -25 -20 -72
-27 -105 -13 -68 -56 -220 -70 -250 -12 -27 -68 -236 -68 -255 -1 -19 -36
-156 -51 -193 -6 -15 -13 -54 -16 -87 -2 -32 -14 -85 -25 -117 -11 -32 -33
-112 -49 -178 -17 -66 -43 -161 -60 -211 -32 -99 -51 -165 -57 -204 -3 -14 -9
-38 -14 -55 -5 -16 -11 -46 -13 -65 -3 -19 -13 -64 -23 -100 -22 -75 -24 -237
-5 -285 7 -16 12 -31 12 -33 -1 -1 12 -27 29 -58 29 -56 29 -57 11 -83 -10
-14 -26 -51 -35 -81 -9 -30 -26 -67 -37 -82 -19 -27 -25 -72 -13 -102 3 -9 10
-14 14 -11 4 2 15 -4 25 -15 10 -11 25 -20 33 -20 7 0 28 -6 45 -14 39 -17
129 -39 177 -42 19 -1 35 -3 35 -4 0 -1 56 -3 125 -4 69 -2 146 -8 172 -15 26
-6 53 -8 61 -5 8 3 25 42 37 87 34 126 43 147 58 147 26 0 102 43 107 61 4 10
19 29 34 42 16 13 52 68 81 121 29 54 63 109 76 123 13 14 26 35 30 47 11 36
66 150 85 178 11 14 19 33 19 42 0 9 4 16 8 16 5 0 17 28 27 63 10 34 24 70
31 81 7 10 10 24 7 32 -3 7 2 21 11 30 9 8 21 36 27 60 6 24 15 47 20 50 5 3
9 16 9 29 0 13 4 26 9 29 4 3 14 27 21 53 7 27 18 62 25 78 6 17 18 46 25 65
7 19 24 59 37 88 12 29 23 59 23 67 0 8 10 38 23 67 13 29 29 73 36 98 7 25
19 59 26 75 8 17 20 45 28 64 l15 34 7 -44 c4 -24 10 -48 13 -54 4 -5 8 -14 9
-20 1 -5 7 -28 12 -50 5 -22 15 -74 20 -115 6 -41 15 -97 21 -125 6 -27 15
-85 20 -128 5 -43 13 -83 17 -90 4 -7 8 -21 9 -32 3 -30 20 -94 43 -157 12
-32 21 -66 21 -77 0 -11 5 -23 11 -26 5 -4 8 -12 6 -18 -2 -7 0 -25 5 -42 5
-16 12 -46 14 -65 12 -87 16 -105 31 -145 6 -16 16 -50 24 -75 13 -48 17 -58
70 -165 19 -38 33 -74 31 -78 -1 -5 1 -6 6 -3 5 3 23 -10 40 -29 16 -19 37
-35 46 -35 9 0 26 -6 39 -13 12 -6 23 -12 25 -13 10 -4 47 -169 57 -259 5 -38
13 -57 36 -78 30 -28 49 -35 49 -17 0 6 8 10 18 10 23 0 145 42 153 53 3 5 8
8 10 7 2 -1 18 4 34 10 17 7 46 14 65 17 19 3 54 11 77 19 24 7 57 16 75 19
17 3 35 8 40 11 4 3 29 7 54 10 81 7 93 51 45 161 -16 38 -36 90 -44 117 l-15
50 34 40 c19 22 34 45 34 51 0 7 8 27 17 46 11 21 18 57 18 94 0 64 -14 195
-21 207 -3 5 -7 43 -9 85 -2 43 -6 94 -9 113 -2 19 -10 85 -16 145 -7 61 -16
123 -19 139 -4 16 -3 63 1 105 5 42 6 101 3 131 -5 54 -7 87 -20 320 -3 63 -9
124 -12 135 -4 11 -8 79 -9 150 -11 709 -27 1011 -60 1154 -9 35 -13 74 -10
87 4 13 3 24 -2 24 -4 0 -16 13 -25 30 -10 17 -23 27 -31 24 -9 -4 -16 5 -21
24 -9 45 -51 59 -112 39 -51 -16 -155 -31 -318 -46 -110 -10 -775 -8 -895 3
-41 4 -127 11 -190 16 -128 11 -187 18 -242 30 -27 5 -43 4 -57 -7z m78 -136
c-4 -23 -13 -55 -20 -72 -17 -42 -16 -70 4 -89 16 -16 17 -16 17 2 0 11 7 23
16 26 8 3 13 9 11 13 -5 8 10 42 49 114 16 28 22 33 32 23 8 -9 9 -21 1 -43
-15 -44 -5 -81 21 -74 11 3 20 10 20 15 0 6 10 32 22 59 18 37 27 47 43 45 18
-3 20 -11 21 -72 2 -94 2 -94 19 -94 19 0 33 27 41 81 4 24 11 52 16 61 11 23
34 13 34 -15 -1 -12 7 -41 17 -65 15 -38 19 -41 37 -32 16 9 20 21 20 65 0 40
4 55 14 55 13 0 19 -20 32 -100 10 -62 14 -68 34 -63 19 5 26 30 32 123 3 33
5 35 33 32 17 -2 31 -5 32 -5 1 -1 3 -41 5 -89 1 -49 6 -88 11 -88 4 0 7 -7 7
-16 0 -9 5 -14 12 -12 16 6 38 91 38 151 0 39 3 47 19 47 20 0 31 -26 31 -78
0 -21 6 -35 16 -39 24 -9 44 23 44 69 0 48 12 53 135 57 104 3 108 -1 120 -91
6 -49 28 -79 45 -62 6 6 11 42 13 81 l2 71 43 4 c42 3 42 3 43 -32 1 -58 8
-83 31 -107 19 -21 22 -21 33 -6 9 11 11 37 7 76 -5 63 2 77 45 77 17 0 24 -7
29 -27 7 -36 32 -104 44 -123 7 -12 13 -13 27 -4 19 12 19 15 8 101 -6 45 -5
52 11 55 20 4 49 -36 38 -53 -3 -5 0 -9 5 -9 6 0 11 -5 11 -11 0 -24 42 -69
64 -69 27 0 53 25 36 35 -16 10 -52 96 -46 111 3 8 13 14 23 14 14 0 22 -13
31 -47 6 -27 14 -55 16 -64 7 -28 30 -59 43 -59 30 0 33 54 8 153 -5 17 -3 27
4 27 6 0 14 0 19 0 4 0 8 -8 9 -17 1 -10 11 -45 22 -78 28 -84 48 -165 50
-200 1 -16 4 -50 7 -75 4 -42 8 -150 18 -470 4 -128 13 -337 16 -370 0 -8 1
-62 0 -118 0 -57 3 -109 6 -114 4 -6 6 -31 5 -57 0 -25 4 -68 9 -96 5 -27 11
-169 14 -315 2 -146 6 -272 9 -280 3 -8 8 -46 12 -85 4 -38 8 -83 10 -100 1
-16 6 -76 9 -133 4 -56 11 -114 16 -128 15 -40 17 -211 3 -225 -7 -7 -13 -20
-13 -29 0 -24 -48 -66 -100 -88 -25 -11 -66 -29 -92 -41 -26 -11 -51 -21 -57
-21 -6 0 -30 -6 -53 -14 -24 -8 -67 -17 -97 -20 -29 -4 -58 -9 -63 -12 -35
-22 -166 19 -208 64 -29 31 -107 187 -129 257 -13 39 -27 78 -32 87 -5 10 -9
31 -9 48 0 36 -20 116 -66 265 -33 109 -65 240 -79 323 -4 23 -8 52 -11 65 -2
12 -15 94 -29 182 -14 88 -30 169 -34 180 -19 41 -53 216 -52 261 1 21 -34 44
-64 44 -31 0 -52 -36 -58 -101 -6 -56 -38 -163 -66 -216 -22 -43 -52 -123 -72
-188 -11 -38 -34 -104 -50 -145 -28 -69 -85 -224 -143 -391 -13 -36 -28 -74
-34 -85 -6 -10 -28 -62 -48 -114 -20 -52 -44 -106 -54 -120 -9 -14 -35 -62
-58 -107 -23 -45 -57 -108 -75 -140 -17 -32 -38 -69 -45 -83 -7 -14 -37 -51
-66 -82 -68 -72 -127 -92 -261 -90 -112 3 -128 5 -188 22 -62 19 -200 127
-230 182 -65 119 -71 144 -55 218 5 19 17 76 29 125 11 50 22 99 25 110 2 11
9 38 14 60 16 68 66 256 87 330 12 39 28 104 38 145 9 41 20 80 24 85 4 6 8
19 9 30 0 11 8 52 17 90 9 39 17 77 19 85 1 8 5 22 8 30 3 8 29 114 57 234 28
121 58 233 66 249 8 16 27 80 41 141 27 115 52 207 84 311 20 65 79 270 115
400 21 78 80 215 113 265 9 14 17 27 18 30 14 43 17 47 33 43 15 -4 17 -11 10
-46z m1749 -3126 c12 -21 20 -46 16 -54 -3 -8 -1 -18 5 -22 6 -3 11 -17 11
-31 0 -17 -6 -24 -19 -24 -16 0 -22 13 -35 69 -25 111 -18 133 22 62z m-92
-66 c21 -84 21 -85 2 -91 -30 -9 -42 10 -54 87 -9 60 -8 71 5 79 9 5 18 10 21
10 3 0 15 -38 26 -85z m-2380 60 c4 -8 -1 -37 -10 -64 -9 -28 -16 -61 -16 -74
0 -24 -2 -25 -34 -15 l-34 11 15 36 c54 126 65 142 79 106z m2265 -80 c10 -33
23 -67 28 -76 7 -12 3 -20 -19 -32 -52 -31 -55 -26 -55 78 0 114 17 125 46 30z
m-123 20 c8 -36 19 -160 15 -167 -2 -5 -10 -8 -17 -8 -11 0 -27 61 -42 158 -6
41 -5 43 17 40 12 -2 24 -12 27 -23z m-2042 -10 c3 -8 -1 -24 -10 -37 -9 -12
-16 -37 -16 -54 0 -28 -3 -31 -25 -26 -21 4 -24 8 -19 31 18 77 56 124 70 86z
m134 -85 l0 -51 -46 2 c-30 2 -48 8 -52 18 -3 8 0 17 6 19 7 2 10 8 7 12 -10
16 29 50 57 50 27 0 28 -2 28 -50z m103 -13 c-5 -33 -9 -37 -34 -37 -27 0 -28
1 -17 33 12 35 38 61 50 49 4 -4 5 -24 1 -45z m99 13 c-6 -11 -12 -27 -12 -35
0 -8 -7 -15 -15 -15 -19 0 -19 1 1 50 12 30 20 38 28 30 7 -7 7 -16 -2 -30z"/>
<path d="M2343 3503 c4 -3 -1 -12 -11 -19 -14 -10 -19 -28 -21 -75 -3 -94 -36
-241 -63 -285 -13 -22 -30 -51 -37 -67 -8 -15 -53 -67 -100 -115 -185 -190
-224 -266 -165 -326 25 -24 34 -27 69 -22 22 4 45 13 51 21 6 8 15 15 20 15 5
1 20 10 33 20 20 17 23 27 18 66 -2 24 -12 53 -21 63 -15 16 -14 19 11 43 148
138 226 268 253 419 6 35 14 71 17 79 9 21 11 38 13 79 4 71 1 79 -32 95 -33
17 -46 20 -35 9z"/>
<path d="M2493 3498 c-16 -8 -23 -21 -24 -42 -3 -64 2 -152 10 -182 8 -30 -2
-129 -18 -169 -5 -11 -34 -76 -64 -145 -92 -205 -99 -262 -41 -316 46 -44 89
-48 127 -13 17 15 22 35 25 87 4 65 3 69 -27 98 l-30 30 22 56 c13 31 28 63
34 70 13 15 53 140 58 181 8 52 8 132 2 227 -4 52 -7 103 -7 113 0 20 -32 22
-67 5z"/>
</g>
</svg>
