<?xml version="1.0" standalone="no"?>
<!DOCTYPE svg PUBLIC "-//W3C//DTD SVG 20010904//EN"
 "http://www.w3.org/TR/2001/REC-SVG-20010904/DTD/svg10.dtd">
<svg version="1.0" xmlns="http://www.w3.org/2000/svg"
 width="521.000000pt" height="433.000000pt" viewBox="0 0 521.000000 433.000000"
 preserveAspectRatio="xMidYMid meet">
<metadata>
Created by potrace 1.16, written by Peter Selinger 2001-2019
</metadata>
<g transform="translate(0.000000,433.000000) scale(0.100000,-0.100000)"
fill="#000000" stroke="none">
<path d="M1868 3952 c-25 -2 -38 -8 -38 -18 0 -8 -5 -14 -11 -14 -9 0 -10 -24
-5 -87 4 -49 8 -92 8 -98 1 -18 -13 -249 -17 -295 -3 -25 -7 -130 -10 -235 -2
-104 -7 -203 -9 -220 -8 -49 -15 -116 -21 -190 -4 -38 -10 -88 -15 -110 -15
-69 -40 -251 -45 -328 -2 -41 -9 -87 -15 -103 -6 -16 -11 -30 -10 -32 4 -6
-14 -165 -25 -222 -8 -36 -25 -121 -39 -190 -13 -69 -25 -145 -25 -170 0 -25
-7 -76 -16 -115 -8 -38 -26 -119 -39 -180 -38 -173 -46 -208 -56 -240 -5 -16
-21 -66 -34 -110 -14 -44 -28 -111 -31 -148 -3 -37 -10 -78 -15 -91 -5 -13 -6
-26 -4 -29 3 -3 -2 -29 -11 -59 -9 -29 -19 -64 -21 -78 -3 -14 -11 -32 -18
-40 -21 -24 -27 -55 -17 -83 7 -19 18 -26 46 -29 20 -2 38 -1 41 4 3 4 46 8
97 8 51 0 103 1 117 2 37 3 169 -12 212 -23 20 -5 50 -20 65 -33 27 -22 113
-66 130 -66 5 0 32 -15 60 -34 52 -34 156 -80 223 -98 19 -6 43 -17 52 -26 10
-8 18 -12 18 -8 0 4 10 1 23 -5 12 -7 38 -16 57 -20 19 -4 46 -10 60 -14 176
-47 330 -54 440 -19 90 29 284 115 300 133 5 6 7 7 115 66 39 21 81 46 95 55
14 9 50 29 82 43 31 15 87 50 125 78 37 27 80 55 96 62 15 6 27 15 27 19 0 5
6 8 14 8 7 0 19 7 26 15 7 9 33 25 56 35 24 11 45 24 49 30 3 5 25 15 48 21
23 7 62 18 86 26 24 7 46 12 48 9 3 -3 14 4 26 14 17 16 19 27 14 72 -3 29 -9
64 -12 78 -2 14 -8 41 -11 60 -4 19 -10 40 -14 45 -10 14 -80 231 -144 445
-14 47 -28 110 -31 140 -3 30 -10 84 -16 120 -7 52 -16 177 -20 300 -1 8 -5
44 -10 80 -5 36 -11 92 -13 125 -8 130 -40 310 -92 520 -8 33 -28 123 -44 200
-16 77 -34 155 -39 173 -5 18 -10 35 -10 37 1 3 -3 36 -7 73 -4 37 -7 71 -5
76 1 5 3 39 3 75 1 56 5 68 26 88 14 13 21 23 17 23 -4 0 -3 6 3 13 7 8 8 26
3 47 -4 19 -6 46 -5 60 2 14 6 71 10 127 6 91 5 106 -15 147 -11 25 -28 46
-36 46 -8 0 -15 7 -15 15 0 8 -3 14 -7 13 -5 0 -16 2 -26 7 -10 4 -41 4 -70 0
-29 -5 -113 -9 -187 -11 -74 -1 -228 -4 -343 -7 -149 -3 -229 0 -285 10 -42 7
-129 16 -192 18 -456 18 -655 23 -722 17z m632 -116 c85 -3 180 -10 210 -15
71 -12 234 -15 609 -14 268 1 305 -1 323 -16 16 -14 19 -28 17 -111 -1 -52 -4
-110 -7 -128 -4 -30 -7 -32 -31 -27 -14 3 -78 7 -141 10 -63 2 -131 7 -150 10
-19 2 -89 7 -155 10 -66 3 -145 10 -175 15 -30 4 -111 9 -180 9 -69 1 -168 3
-220 6 -55 2 -127 -2 -171 -10 -52 -9 -146 -13 -290 -12 l-214 2 0 140 -1 140
211 -2 c115 -1 280 -4 365 -7z m443 -365 c26 -5 87 -9 135 -10 48 -1 103 -4
122 -7 19 -3 103 -9 185 -14 83 -6 166 -14 185 -20 35 -9 35 -9 32 -62 -3 -63
-3 -56 6 -143 5 -38 27 -151 49 -250 23 -99 49 -216 57 -260 9 -44 25 -120 37
-170 34 -153 50 -267 65 -490 3 -44 9 -102 15 -128 5 -26 9 -78 9 -115 1 -37
5 -87 10 -112 6 -25 13 -81 16 -125 4 -44 10 -84 13 -90 4 -5 12 -28 19 -50 6
-22 23 -83 37 -135 15 -52 28 -102 29 -110 1 -8 5 -22 9 -30 3 -8 13 -42 22
-75 9 -33 23 -76 32 -95 9 -19 22 -63 28 -98 11 -57 10 -64 -6 -72 -26 -14
-24 -16 -49 53 -24 64 -25 67 -36 127 -3 19 -17 63 -31 98 -13 35 -33 107 -44
160 -19 89 -43 160 -59 172 -13 10 -59 135 -65 177 -7 47 -29 116 -69 209 -14
34 -35 108 -47 165 -12 57 -29 145 -40 194 -10 50 -21 128 -25 175 -3 47 -12
120 -20 163 -9 42 -16 92 -16 110 0 17 -7 40 -15 49 -32 36 -56 -5 -67 -112
-3 -30 -10 -73 -15 -94 -6 -22 -8 -43 -6 -46 3 -4 7 -58 10 -121 5 -114 15
-183 35 -249 6 -19 15 -84 20 -145 5 -60 16 -150 24 -200 8 -49 21 -133 30
-185 8 -52 20 -149 26 -215 6 -66 18 -147 26 -179 9 -33 18 -80 20 -105 3 -25
14 -104 24 -176 18 -120 23 -175 18 -216 -2 -22 -167 -131 -292 -194 -56 -28
-115 -60 -131 -71 -32 -22 -139 -78 -166 -87 -14 -5 -18 6 -22 61 -4 37 -4 83
-2 102 3 19 5 116 6 215 1 120 5 182 13 187 8 5 7 8 -2 8 -10 0 -11 28 -6 133
3 72 8 200 11 282 2 83 6 209 8 280 3 72 4 150 4 175 -2 87 0 166 7 230 4 36
8 92 9 125 3 116 18 280 26 295 6 11 9 7 10 -15 0 -16 2 -39 3 -50 2 -11 6
-58 11 -105 4 -47 9 -98 10 -115 2 -16 6 -82 10 -145 4 -63 15 -158 26 -210
11 -52 22 -135 25 -185 3 -49 9 -106 14 -125 9 -37 20 -129 25 -209 2 -28 7
-55 11 -62 4 -7 11 -60 15 -118 18 -233 27 -308 37 -328 6 -11 12 -40 12 -64
1 -102 12 -144 41 -160 15 -7 24 -7 35 2 15 12 20 80 7 93 -9 8 -27 115 -43
246 -5 47 -12 92 -15 99 -3 8 -8 44 -11 80 -9 132 -14 183 -18 190 -5 7 -9 36
-21 141 -3 30 -10 75 -15 100 -10 52 -17 102 -25 180 -5 50 -17 129 -31 197
-3 16 -11 116 -19 223 -17 234 -23 314 -32 400 -3 36 -6 82 -7 104 -2 62 -47
77 -61 20 -3 -10 -11 -47 -19 -80 -7 -34 -19 -77 -25 -95 -6 -19 -13 -63 -16
-99 -3 -36 -8 -90 -12 -120 -8 -63 -10 -103 -17 -475 -3 -148 -9 -319 -13
-380 -4 -60 -6 -128 -3 -150 3 -22 1 -74 -3 -115 -4 -41 -9 -185 -12 -320 -2
-135 -8 -287 -12 -338 -7 -81 -6 -96 9 -112 16 -17 14 -18 -30 -30 -26 -7 -51
-16 -57 -19 -29 -16 -225 -15 -290 3 l-50 13 2 48 c2 26 7 53 12 59 6 7 12 23
15 36 12 65 48 237 53 255 2 11 6 36 9 55 2 19 7 46 10 60 3 14 8 45 11 70 7
72 22 190 32 260 5 36 12 101 16 145 4 44 8 94 11 112 5 43 18 824 16 988 -2
162 -5 175 -37 175 -24 0 -29 -9 -37 -60 -1 -8 2 -29 6 -46 4 -21 0 -57 -13
-107 -13 -51 -18 -93 -14 -129 3 -38 -2 -80 -21 -152 -15 -56 -26 -125 -26
-162 0 -38 -8 -89 -20 -124 -11 -33 -24 -98 -29 -143 -4 -46 -13 -92 -19 -102
-24 -46 -52 -152 -52 -198 0 -32 -14 -92 -39 -166 -22 -64 -45 -143 -51 -176
-12 -63 -30 -111 -86 -232 -18 -40 -36 -85 -40 -100 -4 -15 -10 -32 -14 -38
-4 -5 -20 -43 -35 -82 -16 -40 -32 -73 -36 -73 -4 0 -10 -9 -14 -19 -5 -18
-10 -17 -68 16 -34 19 -77 41 -94 48 -18 8 -33 16 -33 19 0 3 11 38 24 78 13
41 31 103 41 138 25 96 45 168 66 235 11 33 22 76 24 96 3 20 14 65 24 100 11
35 25 98 31 139 7 41 16 82 21 91 13 26 19 68 34 234 3 33 10 76 15 95 5 19
11 60 15 90 3 30 7 66 10 80 2 14 6 67 9 118 3 52 8 97 11 101 2 5 7 38 10 74
3 37 14 91 24 119 16 42 20 80 20 179 0 114 -2 127 -18 132 -29 7 -46 -15 -48
-63 -7 -170 -13 -242 -27 -293 -9 -32 -16 -83 -16 -113 0 -30 -4 -62 -9 -72
-28 -56 -48 -118 -56 -182 -5 -42 -15 -76 -35 -125 -25 -59 -60 -184 -60 -212
0 -17 -4 -34 -9 -38 -5 -3 -13 -20 -17 -38 -3 -17 -17 -54 -29 -82 -41 -90
-95 -223 -95 -233 0 -10 -37 -95 -101 -230 -21 -45 -39 -85 -39 -89 0 -3 -6
-14 -14 -22 -7 -9 -26 -41 -41 -71 -16 -30 -49 -75 -74 -99 -38 -37 -54 -45
-93 -49 -26 -2 -55 -1 -65 3 -10 5 -28 7 -40 6 -27 -3 -27 -1 -7 97 9 42 18
86 20 97 2 11 9 60 14 109 6 49 13 93 16 98 5 8 24 72 63 220 12 43 21 91 21
106 0 16 4 42 9 58 22 70 50 216 56 289 7 87 51 319 67 349 5 10 8 27 5 37 -3
10 -2 19 2 19 4 0 7 8 8 18 0 9 3 40 7 67 3 28 8 66 10 85 2 19 8 60 14 90 9
45 23 169 37 330 1 14 5 43 9 65 10 62 15 104 21 180 3 39 9 86 12 105 8 44
10 82 17 245 4 72 8 141 10 155 2 14 5 37 5 52 1 26 2 26 69 26 37 0 77 3 90
6 12 2 22 2 22 -2 0 -10 199 -3 310 12 102 13 460 11 543 -3z m578 -1053 c1
-18 3 -52 3 -75 1 -24 -1 -43 -5 -43 -4 0 -9 34 -11 75 -2 41 0 75 5 75 4 0 8
-15 8 -32z m12 -158 c3 -14 15 -83 27 -155 12 -71 26 -139 30 -150 5 -11 13
-43 19 -71 5 -28 26 -89 45 -136 19 -47 40 -112 46 -143 16 -78 45 -159 79
-225 30 -58 39 -86 47 -153 6 -49 41 -171 60 -208 7 -14 15 -50 19 -79 3 -29
8 -58 12 -63 3 -5 11 -31 18 -57 12 -46 12 -50 -9 -63 -11 -8 -32 -18 -45 -22
-14 -4 -29 -11 -35 -16 -30 -25 -89 -59 -94 -55 -2 3 -5 22 -6 43 0 21 -4 40
-8 43 -4 3 -9 28 -13 55 -3 28 -7 57 -9 65 -10 48 -16 91 -20 135 -3 28 -16
104 -30 170 -14 66 -27 165 -30 220 -5 95 -16 184 -35 285 -26 135 -38 221
-36 275 0 34 -7 86 -18 120 -24 78 -27 91 -32 149 -5 65 8 92 18 36z m-827
-642 c-4 -183 -9 -349 -11 -368 -2 -19 -6 -62 -10 -95 -6 -61 -12 -100 -20
-145 -3 -14 -7 -52 -10 -85 -11 -111 -44 -289 -79 -420 -19 -72 -40 -150 -47
-175 -6 -25 -16 -55 -22 -67 l-10 -22 -56 21 c-31 11 -60 24 -66 28 -5 4 -32
13 -60 20 -61 16 -59 14 -46 37 6 10 22 53 36 97 36 109 79 224 103 277 30 66
58 153 82 256 12 51 33 120 47 155 15 38 26 87 28 123 3 71 11 104 38 165 11
24 24 74 29 110 5 36 20 111 33 167 14 55 25 125 25 155 0 54 8 98 18 98 2 0
2 -150 -2 -332z m-477 64 c-5 -24 -12 -66 -14 -95 -9 -94 -22 -171 -38 -237
-9 -36 -28 -117 -42 -180 -49 -214 -62 -265 -89 -344 -14 -43 -26 -87 -26 -97
0 -10 -4 -28 -9 -41 -80 -201 -81 -203 -96 -177 -12 18 -58 31 -112 33 -51 1
-64 8 -42 21 5 4 23 32 39 63 15 32 45 91 67 133 41 83 67 141 103 234 13 33
33 80 43 105 11 25 20 47 20 50 -1 3 7 21 17 40 9 19 23 53 30 75 7 22 23 63
35 90 44 94 55 127 55 159 0 38 57 222 66 214 1 -2 -1 -23 -7 -46z"/>
</g>
</svg>
