<?xml version="1.0" standalone="no"?>
<!DOCTYPE svg PUBLIC "-//W3C//DTD SVG 20010904//EN"
 "http://www.w3.org/TR/2001/REC-SVG-20010904/DTD/svg10.dtd">
<svg version="1.0" xmlns="http://www.w3.org/2000/svg"
 width="487.000000pt" height="427.000000pt" viewBox="0 0 487.000000 427.000000"
 preserveAspectRatio="xMidYMid meet">
<metadata>
Created by potrace 1.16, written by Peter Selinger 2001-2019
</metadata>
<g transform="translate(0.000000,427.000000) scale(0.100000,-0.100000)"
fill="#000000" stroke="none">
<path d="M1716 4173 c-7 -7 -17 -9 -72 -16 -17 -2 -35 -6 -40 -9 -5 -3 -23 -9
-41 -12 -30 -7 -83 -40 -135 -85 -13 -11 -34 -29 -47 -40 -13 -12 -28 -21 -33
-21 -4 0 -8 -5 -8 -11 0 -14 -34 -59 -93 -122 -26 -29 -67 -83 -91 -122 -45
-75 -116 -233 -116 -259 0 -9 -4 -16 -10 -16 -5 0 -10 -6 -10 -14 0 -8 -4 -25
-9 -38 -5 -13 -8 -25 -8 -28 0 -3 -12 -24 -26 -47 -15 -24 -26 -43 -23 -43 2
0 -1 -19 -6 -42 -39 -188 -43 -294 -13 -453 9 -54 79 -246 112 -309 53 -104
63 -125 63 -139 0 -7 4 -17 8 -23 5 -5 24 -45 43 -89 18 -44 53 -116 78 -160
44 -80 161 -321 161 -332 0 -7 72 -127 81 -133 3 -3 10 -16 14 -30 4 -14 11
-27 15 -30 4 -3 20 -27 35 -55 26 -46 123 -193 135 -205 10 -10 90 -176 104
-215 7 -22 30 -83 50 -135 20 -52 38 -104 41 -115 3 -11 16 -60 30 -110 14
-49 26 -103 26 -120 1 -43 19 -85 36 -85 12 0 14 -7 9 -31 -3 -17 -1 -40 5
-52 15 -27 46 -153 61 -250 9 -57 18 -81 31 -88 19 -11 57 -3 57 11 0 5 7 15
15 24 19 19 7 126 -18 151 -9 9 -17 24 -18 33 0 9 -3 26 -5 37 -14 58 -15 87
-3 101 10 13 8 19 -14 40 -15 14 -27 28 -27 32 0 10 93 72 107 72 7 0 22 -33
33 -72 19 -65 41 -136 57 -178 3 -8 7 -19 8 -25 29 -123 61 -152 109 -100 21
23 22 28 12 79 -6 30 -19 63 -29 73 -9 11 -17 27 -17 35 0 9 -7 35 -16 59 -27
74 -54 183 -46 190 4 4 19 9 33 13 25 5 29 0 82 -107 33 -68 60 -138 68 -179
9 -51 18 -69 35 -79 28 -14 54 -6 61 21 3 11 9 20 15 20 13 0 4 46 -14 67 -8
10 -25 50 -37 90 -11 39 -35 101 -51 138 -17 37 -30 71 -30 76 0 9 89 64 94
58 1 -2 14 -35 28 -74 14 -38 49 -123 79 -187 48 -104 57 -118 83 -124 22 -5
33 -2 43 12 21 29 16 47 -42 169 -30 62 -57 122 -58 132 -2 10 -7 27 -11 38
-5 11 -13 33 -18 48 -6 15 -9 29 -7 30 56 31 72 38 79 31 13 -14 80 -150 80
-163 0 -6 5 -11 10 -11 6 0 10 -8 10 -19 0 -27 43 -138 62 -161 9 -10 25 -17
35 -15 10 2 21 4 24 4 10 2 29 51 29 75 0 13 -7 29 -15 36 -17 14 -45 74 -82
173 -13 37 -34 84 -45 103 -11 19 -18 37 -16 39 11 11 68 17 68 7 0 -6 6 -17
13 -24 60 -64 151 -204 159 -245 5 -32 71 -36 94 -6 22 30 16 50 -31 108 -25
31 -52 69 -61 86 -9 17 -31 53 -50 79 -32 45 -45 78 -25 65 5 -3 13 -1 16 5 4
6 26 20 51 31 39 19 44 25 44 54 0 29 -8 39 -52 72 -92 67 -152 148 -259 350
-24 44 -73 125 -109 180 -36 54 -75 121 -87 150 -12 28 -35 71 -53 95 -57 78
-130 201 -171 288 -22 47 -52 108 -66 135 -15 28 -29 57 -33 65 -4 8 -26 52
-49 98 -23 45 -40 82 -36 82 10 0 -32 73 -65 115 -18 22 -45 67 -60 100 -15
33 -39 86 -54 117 -14 31 -26 65 -26 74 0 10 -7 25 -15 34 -9 10 -20 41 -25
71 -5 30 -14 69 -19 87 -5 18 -6 32 -1 30 5 -2 50 -41 101 -88 50 -47 103 -94
117 -105 54 -42 160 -159 244 -270 29 -39 67 -86 84 -105 56 -61 84 -95 84
-102 0 -20 311 -331 376 -377 21 -14 48 -36 61 -47 13 -12 42 -34 65 -50 24
-16 45 -32 48 -35 6 -7 142 -88 180 -107 14 -6 32 -16 40 -21 8 -5 43 -22 78
-37 34 -16 62 -31 62 -35 0 -9 50 -30 59 -24 5 2 42 -7 82 -20 41 -13 85 -25
99 -25 14 -1 41 -10 60 -20 19 -10 46 -25 60 -32 47 -24 125 -72 131 -81 4 -5
16 0 28 12 25 25 28 77 6 105 -20 26 -19 39 3 32 23 -7 39 4 51 37 21 55 -7
74 -194 131 -171 52 -199 69 -177 104 6 9 28 2 88 -29 43 -23 105 -50 136 -60
64 -20 96 -36 116 -56 33 -33 72 -4 72 55 0 42 -4 45 -147 81 -17 5 -57 24
-88 42 -31 19 -67 40 -80 46 -32 18 -45 37 -36 52 7 10 17 8 47 -11 22 -14 77
-37 124 -52 108 -34 186 -71 199 -93 8 -14 13 -15 35 -5 22 10 26 18 26 51 0
45 -15 58 -100 87 -30 11 -57 22 -60 25 -3 3 -21 11 -40 19 -106 40 -170 78
-170 98 0 19 23 26 34 11 6 -8 29 -23 51 -33 22 -10 58 -27 81 -37 22 -10 47
-19 56 -19 21 0 122 -53 150 -79 24 -23 67 -28 69 -8 9 81 9 79 -60 121 -31
19 -99 51 -151 71 -98 39 -165 79 -155 96 4 5 16 3 28 -5 27 -18 72 -30 220
-60 37 -7 69 -21 86 -37 38 -35 55 -40 80 -23 36 26 28 67 -21 104 -24 17 -54
33 -68 36 -59 12 -224 56 -245 66 -20 9 -22 14 -13 39 14 40 20 42 72 19 26
-11 47 -19 49 -18 6 3 123 -35 133 -43 7 -6 22 -12 35 -14 12 -3 25 -8 28 -12
3 -5 21 -16 39 -27 33 -18 34 -18 58 5 13 12 24 32 24 44 0 32 -74 79 -138 88
-13 2 -27 8 -30 13 -4 5 -27 16 -52 23 -65 19 -151 61 -146 70 3 4 29 0 58
-10 59 -19 89 -25 195 -38 49 -6 78 -15 93 -29 12 -11 36 -26 53 -33 28 -12
31 -11 53 16 23 29 22 58 -2 48 -8 -3 -17 3 -21 13 -13 36 -77 89 -108 91
-147 7 -272 41 -261 70 3 8 6 17 6 20 0 3 11 -2 24 -11 14 -8 76 -22 138 -31
139 -18 166 -23 188 -35 10 -5 20 -6 24 -3 3 3 6 1 6 -4 0 -18 49 -7 65 13 16
21 11 71 -10 92 -7 8 -39 15 -71 17 -33 3 -108 14 -168 27 l-109 23 -3 38 c-4
46 -64 106 -64 65 0 -9 -4 -8 -10 2 -5 8 -10 12 -10 8 0 -3 -24 3 -52 14 -29
11 -69 23 -88 28 -76 16 -267 84 -284 101 -6 5 -18 9 -28 9 -10 0 -18 4 -18 8
0 5 -19 15 -42 22 -24 7 -47 17 -52 22 -6 4 -17 8 -25 8 -8 0 -62 23 -120 51
-58 28 -144 70 -191 92 -77 37 -102 53 -166 105 -11 9 -34 27 -50 39 -16 12
-49 36 -74 55 -25 19 -67 49 -95 68 -27 18 -52 36 -55 40 -3 3 -18 14 -35 24
-36 24 -52 36 -73 59 -9 9 -21 17 -27 17 -7 0 -22 12 -36 26 -13 14 -38 32
-55 40 -17 8 -40 23 -50 32 -20 18 -75 46 -86 44 -3 -1 -12 5 -18 13 -7 8 -18
15 -24 15 -6 0 -19 8 -28 18 -26 27 -46 42 -58 42 -6 0 -21 9 -33 20 -12 12
-33 23 -47 26 -14 3 -34 9 -45 14 -11 5 -36 12 -55 15 -19 4 -44 13 -55 19
-50 31 -250 67 -269 49z m144 -125 c25 -8 56 -20 70 -28 14 -8 34 -15 45 -16
62 -6 190 -61 263 -114 23 -16 44 -30 46 -30 2 0 33 -18 67 -40 35 -22 71 -43
79 -47 13 -6 42 -26 170 -123 71 -54 180 -130 186 -130 6 0 44 -31 104 -84 24
-21 144 -102 176 -118 16 -8 38 -19 49 -25 11 -6 52 -26 90 -44 39 -18 72 -35
75 -39 3 -3 59 -28 125 -55 66 -26 145 -60 175 -75 30 -15 89 -37 130 -49 41
-13 82 -26 90 -29 8 -3 17 -6 20 -7 12 -3 86 -27 100 -32 20 -8 20 -8 53 -17
15 -5 27 -10 27 -12 0 -7 -72 -137 -83 -152 -6 -8 -12 -23 -14 -33 -3 -23 -93
-193 -104 -197 -7 -3 -40 -67 -73 -142 -8 -19 -30 -60 -47 -90 -18 -30 -53
-95 -79 -145 -47 -91 -120 -227 -126 -234 -2 -2 -26 11 -54 28 -28 17 -53 31
-56 31 -4 0 -23 10 -43 22 -20 13 -38 23 -41 24 -3 0 -22 8 -42 17 -21 10 -42
17 -48 17 -5 0 -10 5 -10 10 0 6 -5 10 -10 10 -6 0 -21 9 -33 21 -12 11 -47
37 -77 56 -30 20 -59 43 -63 50 -4 7 -12 13 -17 13 -24 0 -301 276 -377 375
-25 33 -61 76 -79 95 -19 19 -65 74 -102 121 -38 48 -81 102 -98 119 -16 18
-47 53 -69 78 -22 24 -52 52 -68 61 -15 10 -77 65 -137 122 -60 57 -122 115
-138 129 -16 14 -31 30 -33 37 -2 6 -17 13 -34 16 -16 3 -52 15 -80 28 -27 13
-60 24 -72 26 -12 2 -39 9 -60 17 -41 13 -182 14 -204 0 -7 -4 -24 -9 -38 -10
-14 -2 -36 -12 -50 -22 -14 -10 -41 -27 -59 -36 -19 -10 -31 -20 -28 -23 3 -4
1 -12 -6 -20 -8 -11 -6 -18 10 -33 21 -20 62 -28 62 -12 0 4 20 18 44 32 65
35 178 33 308 -5 54 -15 103 -34 109 -41 6 -7 12 -34 14 -61 5 -60 15 -104 27
-120 6 -7 8 -19 5 -28 -13 -33 137 -376 190 -433 24 -26 57 -79 58 -94 0 -3 3
-10 8 -14 4 -4 7 -16 7 -26 0 -10 4 -26 9 -36 6 -9 21 -43 35 -75 14 -32 39
-75 54 -95 16 -21 41 -64 56 -97 41 -90 97 -198 111 -215 7 -8 27 -40 45 -70
17 -30 44 -73 60 -95 16 -22 39 -65 50 -97 12 -31 30 -65 39 -75 10 -11 31
-41 46 -69 15 -27 37 -60 50 -74 13 -14 38 -56 55 -95 50 -109 55 -120 61
-125 4 -3 21 -31 39 -62 17 -32 53 -79 79 -105 l47 -47 -46 -32 c-25 -17 -57
-35 -70 -39 -14 -4 -71 -31 -128 -61 -57 -30 -109 -54 -117 -54 -7 0 -15 -3
-17 -8 -7 -16 -302 -152 -330 -152 -5 0 -14 -4 -21 -10 -7 -5 -47 -27 -90 -49
l-77 -39 -6 26 c-28 127 -130 411 -202 562 -27 58 -119 212 -131 220 -4 3 -10
12 -14 20 -4 8 -13 24 -19 34 -39 59 -78 126 -78 131 0 4 -11 21 -25 39 -14
18 -25 40 -25 49 0 9 -5 19 -10 22 -13 8 -110 201 -110 218 0 18 -79 169 -101
193 -10 11 -19 25 -19 31 0 6 -14 41 -30 79 -17 38 -35 78 -40 89 -5 11 -16
38 -25 60 -9 22 -27 61 -40 87 -31 59 -88 206 -109 278 -15 53 -23 107 -30
215 -7 95 47 302 119 460 13 28 29 68 36 90 7 22 19 47 25 55 7 8 13 20 14 25
0 6 11 26 23 45 12 19 24 40 27 47 3 6 32 42 66 80 34 37 74 84 90 103 70 84
186 154 242 145 9 -1 24 3 34 9 21 15 109 11 168 -6z m1840 -2163 c47 -13 100
-28 118 -34 17 -5 32 -7 32 -5 0 3 18 -5 40 -17 46 -26 47 -30 20 -47 -17 -10
-33 -6 -113 33 -52 25 -102 45 -112 45 -16 0 -101 27 -114 36 -10 8 14 24 28
19 9 -4 54 -17 101 -30z"/>
</g>
</svg>
