<?xml version="1.0" standalone="no"?>
<!DOCTYPE svg PUBLIC "-//W3C//DTD SVG 20010904//EN"
 "http://www.w3.org/TR/2001/REC-SVG-20010904/DTD/svg10.dtd">
<svg version="1.0" xmlns="http://www.w3.org/2000/svg"
 width="415.000000pt" height="297.000000pt" viewBox="0 0 415.000000 297.000000"
 preserveAspectRatio="xMidYMid meet">
<metadata>
Created by potrace 1.16, written by Peter Selinger 2001-2019
</metadata>
<g transform="translate(0.000000,297.000000) scale(0.100000,-0.100000)"
fill="#000000" stroke="none">
<path d="M2240 2910 c-8 -5 -25 -10 -37 -10 -13 0 -23 -4 -23 -8 0 -5 -18 -14
-41 -21 -38 -12 -80 -43 -78 -58 1 -9 -3 -11 -106 -58 -44 -20 -88 -41 -99
-47 -27 -14 -84 -47 -136 -77 -25 -15 -60 -35 -79 -46 -44 -26 -180 -127 -233
-173 -104 -92 -184 -166 -196 -183 -7 -10 -26 -33 -43 -51 -50 -53 -64 -71
-83 -101 -9 -15 -39 -53 -67 -83 -27 -30 -49 -58 -49 -62 0 -4 -16 -25 -35
-47 -19 -22 -35 -47 -35 -56 0 -9 -7 -22 -15 -29 -8 -7 -15 -18 -15 -24 -1
-23 -97 -211 -109 -214 -14 -3 -91 -62 -121 -92 -9 -8 -34 -40 -57 -70 -22
-30 -74 -97 -116 -149 -73 -92 -115 -171 -169 -321 -29 -80 -29 -191 0 -252
12 -26 26 -50 32 -53 5 -3 10 -14 10 -23 0 -20 88 -115 109 -119 8 -1 17 -5
20 -10 9 -13 60 -34 121 -50 73 -19 459 -29 555 -14 39 5 102 13 140 16 39 4
99 15 135 25 88 25 149 40 185 45 17 2 66 13 110 24 44 12 92 21 107 21 15 0
50 9 77 20 28 11 61 22 73 24 50 10 270 87 343 120 28 13 68 29 90 36 22 7 52
21 67 31 16 12 43 19 72 19 30 0 46 4 46 13 0 9 34 13 133 14 72 2 156 7 185
13 29 5 56 9 60 8 4 -1 25 2 47 6 87 14 143 29 203 53 35 13 66 22 69 19 3 -3
22 5 42 18 43 26 127 66 140 66 5 0 16 6 23 13 7 6 31 21 53 32 63 31 109 67
209 162 51 49 103 108 115 132 56 108 56 343 1 476 -13 30 -59 135 -81 181
-10 22 -19 45 -19 51 0 5 -13 21 -28 34 -27 22 -98 108 -132 157 -8 12 -17 22
-21 22 -3 0 -51 45 -106 99 -91 89 -202 181 -218 181 -4 0 -33 16 -66 35 -32
19 -59 31 -59 27 0 -4 -6 0 -13 8 -24 30 -73 57 -147 80 -41 13 -79 27 -85 31
-5 4 -30 10 -55 14 -25 4 -79 16 -120 27 -41 11 -85 22 -97 25 -13 3 -21 9
-18 13 3 4 -7 8 -21 8 -16 0 -38 13 -62 38 -20 22 -50 45 -67 52 -37 17 -195
26 -215 12z m135 -108 c11 -3 28 -6 38 -7 31 -3 48 -28 41 -63 -5 -27 -13 -33
-55 -47 -36 -12 -66 -15 -107 -10 -57 6 -152 43 -152 58 0 24 24 47 57 53 21
4 44 13 51 21 14 13 73 11 127 -5z m290 -147 c11 -3 47 -10 80 -15 33 -5 71
-11 85 -14 14 -3 39 -9 55 -12 17 -3 41 -12 55 -19 14 -8 46 -22 72 -32 27
-10 48 -21 48 -25 0 -5 5 -8 10 -8 6 0 23 -8 38 -18 15 -10 61 -41 102 -68
114 -75 363 -317 435 -424 17 -24 38 -52 48 -62 9 -10 17 -22 17 -27 0 -5 14
-39 30 -75 40 -86 70 -205 71 -281 1 -73 -10 -150 -25 -180 -11 -21 -101 -115
-111 -115 -2 0 -6 17 -10 38 -7 42 -24 96 -41 127 -6 11 -17 38 -24 60 -7 22
-24 60 -38 85 -43 78 -79 154 -85 180 -3 14 -16 36 -28 49 -13 13 -45 61 -73
106 -110 177 -178 259 -278 339 -46 37 -105 87 -133 111 -27 24 -68 56 -90 70
-22 15 -49 35 -60 44 -11 9 -37 25 -58 36 -21 10 -63 40 -93 67 -30 26 -64 52
-74 58 -33 18 -22 28 18 19 20 -5 46 -12 57 -14z m-596 -3 c9 -11 26 -24 39
-31 27 -14 27 -19 2 -51 -48 -59 -110 -151 -110 -162 0 -7 -12 -26 -25 -43
-48 -58 -112 -161 -140 -225 -16 -36 -36 -76 -45 -90 -19 -29 -53 -102 -125
-265 -7 -16 -21 -59 -31 -95 -9 -36 -26 -85 -36 -110 -11 -25 -24 -54 -28 -65
-9 -22 -17 -60 -25 -115 -8 -57 -38 -141 -50 -136 -5 3 -46 19 -90 37 -44 17
-101 42 -126 55 -26 13 -56 24 -68 24 -59 0 -344 188 -315 208 5 4 16 23 24
42 13 35 22 57 58 140 10 25 48 81 83 124 35 44 89 112 119 150 30 39 64 81
75 92 12 12 31 33 42 47 10 14 35 36 54 49 19 13 48 37 65 53 57 55 145 129
192 160 169 113 228 146 247 139 9 -4 15 0 15 10 0 9 7 16 15 16 13 0 74 27
115 50 25 14 52 11 69 -8z m426 -82 c10 -20 23 -30 39 -30 12 0 31 -9 41 -20
22 -24 137 -100 152 -100 7 0 18 -6 25 -13 7 -7 43 -34 81 -60 37 -27 75 -56
85 -66 9 -10 61 -54 114 -100 53 -45 107 -98 119 -119 13 -20 26 -39 30 -42 9
-7 79 -108 79 -115 0 -3 24 -40 54 -83 52 -76 106 -177 106 -200 0 -6 3 -12 8
-14 10 -4 67 -125 83 -178 7 -25 17 -48 23 -52 5 -3 17 -46 26 -95 l18 -88
-27 -23 c-33 -28 -246 -133 -326 -160 -95 -32 -166 -50 -225 -57 -30 -4 -64
-9 -75 -11 -11 -2 -59 -6 -108 -7 l-87 -3 1 35 c2 65 -12 335 -21 401 -5 36
-12 115 -15 175 -4 61 -11 124 -16 140 -5 17 -10 80 -12 140 -3 72 -12 134
-25 180 -11 39 -25 96 -31 128 -6 32 -27 107 -47 165 -44 131 -46 137 -43 137
2 0 -4 14 -13 30 -8 17 -21 44 -28 60 -7 17 -16 38 -21 47 -7 15 -4 19 18 27
1 1 9 -12 18 -29z m-147 -12 c18 2 22 -3 22 -27 0 -17 11 -56 25 -88 43 -103
94 -247 104 -298 12 -55 21 -90 46 -176 9 -31 18 -108 20 -173 2 -64 6 -120 9
-124 2 -4 7 -47 10 -97 11 -147 17 -209 21 -225 9 -28 19 -342 14 -393 -3 -26
-6 -28 -34 -22 -16 3 -76 10 -132 15 -56 5 -110 13 -120 19 -10 5 -70 21 -133
36 -63 15 -119 30 -125 35 -19 15 -193 80 -213 80 -12 0 -24 5 -27 10 -3 6
-13 10 -22 10 -8 0 -29 6 -46 14 -18 7 -52 19 -77 26 -60 16 -71 26 -60 55 5
13 6 25 3 28 -4 5 9 109 22 165 3 12 7 30 9 40 2 9 22 72 45 139 23 67 41 127
41 133 0 7 29 73 65 147 36 74 65 137 65 141 0 3 6 13 13 21 7 9 22 36 32 61
11 25 27 56 36 70 9 14 42 64 74 112 34 53 62 85 69 81 6 -3 8 -3 4 2 -10 10
4 35 69 122 l54 73 47 -6 c26 -4 57 -6 70 -6z m-1452 -1138 c7 0 14 -3 16 -8
6 -14 143 -91 213 -120 39 -16 79 -34 90 -40 29 -17 146 -62 160 -62 7 0 24
-9 39 -21 14 -11 26 -18 26 -14 0 3 13 -1 30 -10 16 -8 32 -15 35 -15 3 0 18
-6 33 -13 15 -8 52 -22 82 -32 30 -10 64 -23 75 -28 11 -6 22 -12 25 -13 3 0
12 -3 20 -7 8 -3 31 -10 50 -16 54 -15 293 -100 311 -110 15 -9 165 -48 208
-54 28 -4 40 -25 19 -31 -7 -2 -22 -7 -33 -11 -11 -4 -76 -28 -145 -52 -69
-25 -143 -51 -165 -57 -22 -7 -51 -17 -65 -23 -14 -6 -88 -25 -165 -42 -77
-17 -193 -45 -259 -62 -65 -16 -120 -28 -123 -26 -2 3 -25 -2 -51 -10 -50 -16
-152 -22 -431 -27 -298 -4 -375 23 -479 173 -34 50 -37 59 -37 125 0 44 7 84
17 106 8 19 31 73 49 120 18 47 47 101 64 121 66 78 75 90 75 98 0 5 4 11 8
13 5 2 27 28 50 58 40 54 75 86 144 134 l33 23 34 -34 c19 -18 40 -33 47 -33z"/>
</g>
</svg>
