<?xml version="1.0" standalone="no"?>
<!DOCTYPE svg PUBLIC "-//W3C//DTD SVG 20010904//EN"
 "http://www.w3.org/TR/2001/REC-SVG-20010904/DTD/svg10.dtd">
<svg version="1.0" xmlns="http://www.w3.org/2000/svg"
 width="509.000000pt" height="391.000000pt" viewBox="0 0 509.000000 391.000000"
 preserveAspectRatio="xMidYMid meet">
<metadata>
Created by potrace 1.16, written by Peter Selinger 2001-2019
</metadata>
<g transform="translate(0.000000,391.000000) scale(0.100000,-0.100000)"
fill="#000000" stroke="none">
<path d="M3015 2894 c-25 -13 -62 -42 -82 -63 l-35 -40 -33 34 c-44 43 -122
69 -181 60 -47 -7 -110 -52 -123 -89 -8 -20 3 -93 18 -131 5 -11 14 -33 20
-50 13 -32 57 -100 80 -124 11 -13 10 -16 -6 -22 -17 -6 -167 -34 -248 -46
-54 -8 -375 -2 -375 7 0 3 -8 6 -17 7 -22 2 -101 10 -163 18 -39 5 -133 20
-179 29 -8 1 -16 7 -18 12 -2 5 -22 9 -45 8 -24 -1 -54 4 -68 9 -14 6 -38 11
-55 13 -31 2 -129 24 -200 44 -22 6 -92 22 -155 36 -63 13 -123 27 -132 29
-120 32 -245 34 -314 5 -25 -11 -52 -20 -60 -20 -8 0 -14 -4 -14 -9 0 -5 -8
-11 -18 -13 -9 -3 -26 -23 -37 -44 -11 -22 -23 -41 -26 -44 -3 -3 -16 -23 -28
-45 -12 -22 -25 -47 -30 -55 -32 -55 -69 -193 -64 -245 6 -84 5 -125 -4 -137
-5 -7 -16 -34 -23 -60 -7 -27 -17 -48 -21 -48 -5 0 -9 -9 -9 -19 0 -11 -5 -23
-10 -26 -6 -4 -10 -12 -9 -18 1 -7 -1 -25 -5 -42 -4 -16 -16 -64 -26 -105 -10
-41 -23 -104 -29 -140 -6 -36 -13 -76 -16 -90 -7 -30 -8 -168 -1 -178 2 -4 7
-45 10 -90 4 -46 9 -98 11 -115 18 -165 18 -165 -9 -194 -14 -15 -26 -34 -26
-41 0 -8 -10 -27 -21 -44 -21 -28 -29 -63 -32 -133 -1 -16 -10 -41 -19 -55
-10 -13 -18 -32 -18 -42 0 -9 -3 -19 -8 -21 -8 -6 -8 -100 2 -170 3 -26 18
-67 33 -90 15 -23 26 -45 25 -49 -1 -5 1 -8 6 -8 4 0 25 -16 47 -35 22 -19 49
-38 60 -43 58 -27 81 -35 92 -33 7 1 13 -5 13 -12 0 -22 46 -26 104 -10 28 8
61 15 73 17 12 2 33 11 47 20 14 9 36 16 50 16 14 0 28 5 31 10 3 6 16 10 28
10 12 0 40 7 62 14 50 18 67 4 66 -56 0 -10 4 -18 10 -18 5 0 9 -8 9 -19 0
-29 35 -31 90 -5 27 13 55 24 61 24 7 0 42 14 78 31 69 33 151 69 156 69 1 0
6 -19 9 -42 4 -24 10 -49 15 -56 11 -19 78 -23 109 -6 15 8 43 16 62 20 19 3
44 9 55 14 50 22 218 81 221 78 2 -2 0 -17 -5 -34 -9 -32 8 -78 32 -87 8 -3
32 1 53 8 22 8 48 14 59 15 11 0 30 7 43 15 12 9 27 15 34 14 7 -2 41 12 76
29 34 18 82 35 107 38 39 6 43 5 40 -12 -3 -11 3 -35 13 -54 18 -36 47 -49 80
-34 9 4 22 8 28 9 33 7 61 19 74 30 8 7 34 18 58 25 23 6 86 29 139 50 54 22
99 40 101 40 2 0 0 -19 -3 -42 -4 -30 -2 -49 8 -62 14 -19 67 -31 67 -15 0 6
5 7 10 4 6 -3 10 -2 10 3 0 9 66 38 106 47 43 9 88 25 108 38 11 8 33 17 49
21 26 6 27 5 27 -34 0 -25 5 -40 13 -41 6 0 21 -2 32 -4 33 -6 225 48 358 100
13 5 17 2 17 -12 0 -36 58 -70 74 -44 5 7 38 15 116 27 8 1 44 14 80 27 36 14
92 36 126 48 l61 23 27 -21 c27 -21 28 -21 59 -4 18 9 59 25 92 35 33 10 94
32 135 48 84 35 119 49 170 69 19 7 61 30 92 51 31 21 59 38 61 38 11 0 206
202 258 267 9 11 27 44 41 73 21 44 25 64 21 114 -6 98 -18 192 -26 216 -42
125 -87 209 -128 238 -11 7 -19 19 -19 25 0 14 -85 55 -150 73 -25 7 -63 20
-85 30 -22 9 -67 23 -100 31 -33 7 -67 15 -75 18 -8 2 -38 10 -65 18 -28 8
-61 19 -72 26 -12 6 -30 11 -40 11 -10 0 -38 10 -63 22 -47 22 -53 25 -71 27
-5 0 -8 5 -4 10 8 14 -51 40 -75 34 -11 -3 -20 -9 -20 -14 0 -10 -63 11 -71
24 -4 5 -17 14 -30 21 -21 10 -24 18 -21 63 3 59 -13 72 -60 49 -27 -14 -31
-13 -61 12 -18 15 -48 40 -69 55 -33 25 -36 30 -31 66 5 36 3 42 -21 52 -20 9
-32 9 -52 1 -33 -16 -52 -5 -84 47 -14 23 -30 39 -36 37 -12 -4 -22 12 -44 72
-7 18 -15 30 -18 27 -3 -2 -11 0 -19 6 -9 9 -17 8 -27 0 -11 -9 -23 -8 -52 5
-133 57 -160 69 -168 76 -6 5 7 33 32 69 23 33 42 64 42 69 0 5 14 33 31 62
42 71 51 133 28 193 -22 59 -46 82 -97 94 -33 7 -48 4 -87 -15z m92 -108 c16
-46 1 -124 -27 -141 -5 -3 -10 -12 -10 -20 0 -23 -94 -154 -104 -144 -3 3 -6
52 -7 110 -1 74 3 114 14 139 34 78 115 112 134 56z m-354 2 c12 -6 28 -14 35
-17 24 -11 44 -82 49 -172 4 -75 3 -87 -12 -93 -21 -8 -97 70 -121 124 -48
106 -49 154 -2 163 13 2 24 5 26 6 1 0 12 -4 25 -11z m-1838 -238 c0 -2 26 -8
65 -14 94 -16 238 -50 400 -93 30 -8 68 -15 83 -17 16 -1 32 -6 35 -12 8 -11
23 -14 68 -16 19 -1 37 -5 40 -10 3 -4 9 -6 14 -3 5 3 18 2 27 -3 21 -11 63
-17 348 -46 123 -13 267 -26 320 -28 33 -1 134 14 178 27 28 8 69 15 91 15 23
0 48 6 57 13 9 7 43 12 75 12 45 0 59 -4 62 -16 7 -36 -167 -83 -363 -98 -82
-6 -157 -10 -165 -9 -14 2 -137 -7 -240 -18 -41 -4 -277 9 -405 22 -27 3 -72
7 -100 9 -27 3 -77 9 -110 14 -33 6 -88 13 -123 16 -34 3 -113 17 -175 30
-207 43 -303 82 -374 151 -39 37 -41 49 -10 59 12 5 31 11 42 15 17 6 160 6
160 0z m-229 -191 c19 -11 34 -25 34 -30 0 -5 8 -9 18 -9 10 0 22 -4 28 -9 27
-27 160 -68 333 -103 l65 -13 -33 -37 c-18 -21 -44 -44 -59 -51 -15 -8 -53
-29 -85 -47 -31 -17 -75 -33 -98 -35 -22 -1 -42 -4 -44 -7 -8 -8 -147 1 -182
13 -60 19 -114 42 -109 46 3 3 -2 23 -10 45 -8 22 -14 59 -14 82 0 46 26 134
46 153 7 7 15 27 19 43 l7 31 25 -26 c14 -14 41 -34 59 -46z m2349 -49 c6 -4
25 -11 43 -15 18 -4 36 -14 39 -22 4 -10 8 -11 13 -4 4 8 13 5 25 -9 17 -19
17 -20 -16 -34 -19 -8 -37 -12 -41 -10 -4 3 -10 -11 -14 -31 -14 -77 47 -91
139 -33 52 33 48 34 108 -22 9 -8 26 -21 37 -29 l21 -15 -25 -23 c-29 -26 -26
-56 8 -85 22 -20 57 -18 102 3 23 11 30 11 34 1 2 -6 9 -12 15 -12 7 0 28 -15
49 -33 l36 -32 -20 -27 c-24 -34 -17 -63 21 -76 19 -7 34 -6 50 3 21 10 30 8
75 -19 93 -57 93 -57 88 -81 -5 -29 30 -67 55 -58 10 3 25 11 33 18 24 19 60
25 89 13 14 -6 31 -12 36 -13 28 -5 75 -28 68 -35 -4 -3 -28 -13 -53 -20 -25
-8 -50 -17 -55 -21 -25 -18 -75 -18 -131 1 -32 11 -60 24 -64 28 -9 12 -286
156 -302 157 -4 0 -13 6 -19 13 -7 6 -18 12 -25 12 -7 0 -14 3 -16 8 -1 4 -37
24 -78 46 -41 21 -86 47 -99 57 -13 11 -28 19 -32 19 -17 0 -135 60 -155 78
-11 10 -31 22 -45 25 -13 3 -34 15 -46 27 -12 11 -27 20 -32 20 -10 0 -165 79
-209 107 l-23 14 37 20 c21 10 44 19 51 19 7 0 13 5 13 12 0 6 7 4 18 -5 28
-25 59 -21 79 10 37 58 53 70 81 65 15 -2 32 -8 37 -12z m-1655 -140 c19 -6
66 -13 103 -15 38 -3 119 -10 180 -16 123 -12 379 -15 527 -5 186 12 232 16
239 20 9 6 93 -14 105 -25 5 -5 15 -4 21 1 18 15 45 1 45 -21 0 -10 -4 -19
-10 -19 -5 0 -10 -9 -10 -19 0 -11 -5 -23 -11 -26 -6 -4 -8 -13 -5 -21 3 -8 1
-14 -4 -14 -6 0 -10 -4 -10 -10 0 -5 -16 -32 -35 -59 -19 -26 -35 -51 -35 -55
0 -4 -17 -25 -37 -48 -87 -95 -167 -167 -235 -211 -16 -10 -28 -24 -28 -32 0
-17 -32 -20 -59 -5 -16 8 -139 27 -231 35 -66 6 -315 6 -340 0 -14 -3 -43 -8
-65 -11 -21 -3 -42 -7 -46 -10 -10 -6 -39 6 -39 17 0 12 -62 103 -76 112 -7 4
-27 22 -46 40 -41 39 -138 111 -138 102 0 -4 -13 5 -30 18 -16 14 -39 28 -49
32 -40 12 -32 34 25 66 30 17 89 67 132 110 82 83 95 88 162 69z m1450 -158
c0 -15 -29 -74 -40 -82 -9 -6 -43 -61 -62 -100 -7 -14 -19 -29 -28 -34 -19
-12 -90 -83 -90 -91 0 -8 -92 -99 -153 -152 l-48 -41 -51 17 c-29 10 -54 23
-56 31 -3 7 0 10 7 6 6 -4 11 -1 11 8 0 9 3 16 8 16 12 1 176 162 218 215 66
83 143 217 149 260 1 6 3 13 3 17 3 13 131 -56 132 -70z m-2219 -85 c34 -9 83
-16 144 -23 28 -3 55 -6 60 -6 6 -1 22 2 37 5 22 6 27 3 30 -15 2 -18 10 -24
40 -26 20 -2 42 -10 48 -18 7 -8 20 -14 30 -14 9 0 29 -9 43 -20 14 -11 28
-20 31 -20 8 0 85 -59 151 -117 96 -82 217 -305 245 -453 14 -70 40 -258 40
-289 l0 -24 -142 8 c-145 8 -265 10 -438 7 -52 -1 -113 3 -135 8 -65 17 -111
20 -180 11 -49 -6 -70 -4 -85 6 -10 7 -21 9 -24 5 -3 -5 -23 -9 -44 -10 l-39
-2 -6 58 c-4 31 -14 100 -23 152 -26 146 -26 280 1 445 2 17 25 108 41 170 3
11 6 27 7 35 1 8 5 17 9 20 4 3 9 15 11 25 13 61 21 86 28 91 5 3 9 14 9 24 0
19 2 18 43 -4 23 -13 54 -26 68 -29z m2370 11 c30 -14 49 -29 49 -39 0 -19
-60 -123 -90 -154 -11 -12 -20 -26 -20 -32 0 -5 -11 -15 -25 -21 -14 -6 -25
-18 -25 -27 0 -18 -152 -174 -171 -176 -8 -1 -18 -1 -23 0 -5 1 -17 -6 -27
-15 -16 -14 -24 -15 -69 -3 l-51 13 33 25 c38 30 120 111 140 139 7 11 33 42
58 69 25 27 53 60 63 74 39 54 97 149 97 159 0 14 6 13 61 -12z m191 -99 c2
-5 10 -11 18 -12 8 -2 28 -11 43 -21 24 -17 26 -21 14 -35 -8 -9 -17 -25 -21
-36 -3 -11 -20 -35 -36 -54 -17 -18 -30 -37 -30 -42 0 -4 -31 -40 -70 -79 -38
-39 -70 -75 -70 -79 0 -11 -100 -84 -106 -78 -3 3 -19 -8 -36 -24 l-31 -29
-29 25 c-16 14 -36 25 -44 25 -8 0 -14 5 -14 10 0 6 5 10 10 10 13 0 155 142
192 192 15 20 35 44 44 53 19 19 94 132 94 142 0 28 64 57 72 32z m278 -151
l74 -41 -31 -26 c-41 -34 -153 -181 -153 -201 0 -8 -7 -28 -16 -45 -20 -37
-21 -138 -2 -204 25 -86 172 -203 287 -228 36 -7 74 -18 83 -23 10 -6 31 -10
46 -10 16 0 32 -3 35 -7 16 -15 267 -19 294 -5 10 5 45 15 78 22 57 12 96 23
140 40 11 4 38 13 60 20 22 6 54 19 71 28 18 10 49 26 70 37 22 10 48 27 58
37 11 10 23 18 27 18 14 0 143 141 155 169 23 54 41 49 49 -11 8 -54 10 -62
19 -76 13 -22 -14 -107 -47 -147 -65 -78 -163 -167 -212 -192 -27 -14 -62 -34
-76 -44 -15 -10 -35 -20 -45 -22 -11 -1 -23 -5 -29 -8 -16 -10 -143 -51 -168
-54 -12 -2 -35 -8 -52 -13 -34 -12 -144 -33 -190 -38 -109 -9 -164 -16 -195
-24 -111 -29 -202 -39 -325 -35 -240 7 -488 35 -501 56 -3 5 -13 9 -22 9 -9 0
-29 6 -44 14 -30 16 -162 52 -245 68 -29 6 -53 14 -53 20 0 5 -5 6 -10 3 -6
-4 -27 -1 -48 6 -20 7 -46 14 -57 15 -11 2 -54 12 -95 23 -41 11 -109 22 -150
26 -41 3 -93 8 -115 10 -22 3 -65 7 -95 10 -30 2 -68 7 -85 10 -16 4 -84 8
-150 10 -66 2 -128 4 -137 4 -13 1 -18 9 -18 29 0 15 -9 64 -20 110 -11 46
-20 107 -20 137 0 30 -5 57 -10 60 -6 4 -8 10 -6 14 13 21 -54 200 -92 244
-20 22 -16 25 42 32 27 3 53 8 58 11 12 8 286 7 345 -1 99 -13 220 -38 278
-57 33 -11 67 -21 75 -23 58 -12 124 -32 177 -52 34 -12 67 -23 75 -23 46 0
278 -110 278 -132 0 -5 12 -13 26 -18 23 -9 32 -6 73 27 25 21 57 48 70 61 13
13 42 37 63 52 22 16 61 57 88 92 27 35 67 81 90 103 23 22 48 51 55 65 7 14
27 36 44 49 17 13 31 32 31 42 0 27 16 24 100 -23z m842 -107 c210 -64 244
-74 253 -81 6 -4 28 -13 50 -20 55 -18 94 -50 94 -79 1 -32 -94 -147 -165
-201 -87 -66 -196 -119 -305 -151 -56 -16 -105 -26 -110 -23 -6 3 -17 0 -26
-7 -25 -22 -283 -19 -353 4 -30 9 -57 18 -60 18 -37 1 -96 26 -124 52 -11 9
-26 17 -33 17 -7 0 -13 4 -13 9 0 5 -9 13 -21 16 -11 4 -27 22 -35 41 -8 19
-19 34 -25 34 -6 0 -8 29 -5 81 5 68 10 89 37 132 42 68 74 102 132 138 41 25
51 28 64 17 9 -7 21 -13 27 -13 19 -1 66 -28 66 -37 0 -5 4 -7 9 -3 5 3 12 1
16 -5 12 -19 98 -50 140 -50 97 0 211 37 264 86 14 13 31 24 38 24 7 0 13 5
13 10 0 13 -1 13 72 -9z m333 -829 c-132 -129 -200 -168 -385 -223 -19 -6 -48
-19 -65 -29 -56 -33 -69 -33 -82 0 -9 24 -17 30 -41 30 -16 0 -39 -9 -52 -20
-13 -11 -27 -20 -33 -20 -16 0 -81 -33 -92 -47 -12 -15 -127 -63 -151 -63 -18
0 -37 17 -47 44 -14 35 -124 13 -292 -59 -16 -7 -60 -19 -96 -28 l-66 -14 5
25 c3 16 -1 28 -12 34 -9 5 -16 16 -16 23 0 8 -7 16 -15 16 -8 1 -21 2 -27 3
-7 1 -18 -6 -25 -15 -10 -14 -45 -25 -108 -34 -5 -1 -23 -8 -40 -15 -70 -30
-92 -38 -124 -45 -31 -7 -33 -5 -26 11 4 11 8 26 9 34 1 17 -73 57 -83 44 -3
-5 -13 -10 -21 -11 -37 -4 -120 -28 -120 -35 0 -5 -7 -8 -15 -8 -9 0 -30 -8
-48 -17 -18 -9 -34 -17 -37 -18 -3 0 -24 -7 -45 -16 -76 -31 -150 -59 -158
-59 -11 0 -8 45 3 56 7 7 2 19 -15 38 -22 24 -31 27 -73 24 -26 -2 -56 -9 -67
-15 -11 -5 -33 -13 -50 -17 -16 -4 -48 -15 -70 -25 -149 -68 -148 -68 -155
-14 -4 24 -9 46 -13 50 -19 18 -101 10 -180 -19 -45 -16 -89 -31 -97 -32 -16
-3 -43 -13 -75 -26 -11 -5 -31 -12 -45 -15 -14 -4 -33 -9 -42 -11 -13 -4 -18
4 -24 33 -15 85 -72 96 -199 37 -42 -19 -84 -37 -94 -39 -9 -2 -34 -13 -56
-24 -59 -31 -71 -28 -79 20 -9 58 -25 77 -61 73 -42 -4 -148 -29 -171 -41 -24
-13 -125 -38 -140 -35 -6 1 -17 -4 -23 -12 -7 -8 -19 -12 -27 -9 -8 3 -21 0
-28 -6 -9 -8 -15 -8 -18 -2 -1 6 -23 13 -48 16 -25 3 -54 12 -65 20 -42 30
-55 43 -55 54 0 6 -4 11 -10 11 -5 0 -10 7 -10 15 0 8 -4 15 -10 15 -14 0 -30
35 -34 73 -2 18 -7 40 -11 50 -4 9 -4 29 1 45 4 15 8 30 9 35 2 4 3 16 4 27 1
19 1 19 34 0 30 -17 89 -34 162 -46 17 -3 75 -7 130 -9 55 -3 111 -8 125 -11
14 -4 79 -8 145 -10 66 -1 127 -5 136 -9 9 -3 33 -2 55 3 21 4 55 5 74 1 38
-8 415 -3 429 5 17 11 111 18 311 22 113 2 214 4 225 5 11 0 61 0 110 0 50 -1
122 2 160 5 119 10 376 10 459 0 61 -8 81 -7 84 2 2 7 8 10 13 7 5 -3 32 -8
61 -11 29 -2 67 -6 83 -8 91 -13 131 -17 240 -21 177 -8 264 -9 320 -2 71 9
163 25 209 36 22 5 43 8 48 5 4 -3 16 -1 25 4 10 6 52 12 93 15 72 5 158 21
190 34 8 3 26 8 40 10 14 2 29 8 34 14 6 5 19 9 31 9 12 0 25 4 31 8 5 5 29
14 54 22 72 21 209 92 250 130 38 35 70 59 80 59 3 0 -44 -48 -105 -107z
m-4206 84 c10 -12 33 -13 119 -8 137 7 216 5 256 -7 43 -14 99 -15 181 -6 72
9 112 9 250 0 44 -2 121 -6 170 -9 50 -2 135 -10 190 -16 55 -6 154 -13 220
-15 66 -2 136 -7 155 -10 19 -3 64 -8 100 -10 36 -3 81 -7 100 -10 19 -2 69
-7 110 -9 73 -5 293 -55 308 -71 4 -4 -14 -5 -40 -3 -26 3 -46 2 -43 -1 2 -4
-22 -8 -53 -10 -211 -8 -316 -12 -543 -16 -140 -3 -277 -9 -305 -14 -58 -10
-38 -9 -239 -10 -188 -1 -404 6 -565 19 -63 5 -167 12 -230 16 -63 3 -119 10
-125 14 -5 4 -31 13 -57 20 -40 12 -47 18 -51 44 -6 41 20 105 47 116 29 12
32 12 45 -4z"/>
</g>
</svg>
