<?xml version="1.0" standalone="no"?>
<!DOCTYPE svg PUBLIC "-//W3C//DTD SVG 20010904//EN"
 "http://www.w3.org/TR/2001/REC-SVG-20010904/DTD/svg10.dtd">
<svg version="1.0" xmlns="http://www.w3.org/2000/svg"
 width="567.000000pt" height="489.000000pt" viewBox="0 0 567.000000 489.000000"
 preserveAspectRatio="xMidYMid meet">
<metadata>
Created by potrace 1.16, written by Peter Selinger 2001-2019
</metadata>
<g transform="translate(0.000000,489.000000) scale(0.100000,-0.100000)"
fill="#000000" stroke="none">
<path d="M1930 4789 c-41 -4 -90 -10 -107 -14 -19 -4 -33 -4 -33 2 0 12 -60 9
-85 -4 -11 -6 -31 -23 -44 -37 -14 -14 -32 -26 -41 -26 -10 0 -42 -11 -71 -24
-51 -22 -55 -22 -72 -6 -18 17 -67 23 -67 8 0 -5 -8 -8 -17 -9 -10 0 -29 -14
-42 -31 -23 -29 -24 -31 -9 -77 l15 -47 -35 17 c-24 13 -50 17 -84 14 -67 -5
-98 -27 -98 -68 0 -17 -4 -27 -8 -22 -4 6 -23 18 -44 27 -73 34 -127 -14 -127
-112 0 -93 48 -176 126 -217 29 -16 53 -31 53 -35 0 -4 7 -5 15 -2 11 5 15 -1
16 -22 0 -16 2 -38 4 -48 2 -11 -3 -31 -10 -45 l-14 -26 -1 30 c0 41 -34 93
-68 106 -30 12 -202 14 -260 3 -52 -9 -109 -40 -128 -69 -14 -22 -14 -26 3
-48 26 -35 66 -48 168 -54 69 -4 100 -11 133 -29 23 -13 49 -24 58 -24 23 0
46 -71 29 -89 -2 -2 -18 7 -35 19 -27 19 -38 21 -78 15 -26 -5 -86 -7 -135 -6
-100 2 -137 -12 -167 -62 -27 -44 -25 -52 15 -77 48 -30 231 -42 286 -20 21 9
33 8 57 -4 16 -8 32 -12 36 -9 3 4 6 1 6 -5 0 -5 3 -18 6 -26 5 -14 2 -15 -22
-5 -63 24 -110 26 -175 9 -68 -19 -149 -73 -149 -100 0 -5 -3 -10 -7 -10 -14
0 -53 -65 -53 -87 0 -24 39 -53 73 -53 32 0 87 20 87 31 0 5 9 9 20 9 11 0 20
4 20 9 0 5 10 11 23 15 12 3 32 14 45 26 12 11 23 20 24 19 2 -1 27 6 56 15
63 21 74 15 91 -47 7 -23 15 -48 17 -54 4 -9 -3 -13 -20 -13 -38 0 -167 -29
-201 -45 -99 -47 -195 -206 -151 -248 14 -12 7 -56 -12 -80 -5 -7 -19 -37 -30
-67 -11 -30 -34 -82 -51 -114 -17 -33 -31 -71 -31 -85 0 -14 -9 -62 -20 -106
-22 -87 -48 -248 -55 -335 -15 -196 -17 -217 -35 -345 -5 -38 -12 -110 -16
-160 -3 -49 -9 -94 -12 -99 -2 -5 -8 -47 -13 -95 -4 -47 -10 -99 -13 -116 -3
-16 -8 -68 -11 -115 -2 -47 -8 -112 -12 -145 -4 -33 -8 -107 -9 -165 -1 -58
-6 -132 -13 -165 -25 -129 -42 -284 -43 -375 -1 -84 3 -102 28 -157 37 -78 64
-96 122 -80 33 9 68 8 164 -5 68 -10 146 -18 173 -18 28 -1 68 -3 90 -4 43 -3
118 19 148 44 29 23 55 82 62 136 14 122 69 391 85 424 8 14 17 77 25 158 2
21 11 56 20 78 9 21 19 55 22 74 3 19 11 46 18 60 12 23 23 66 56 215 7 28 17
60 23 73 12 23 13 23 57 -34 56 -73 127 -187 179 -289 23 -44 52 -94 66 -112
13 -17 24 -36 24 -41 0 -4 16 -27 35 -49 19 -23 35 -45 35 -51 0 -5 9 -17 20
-27 11 -10 20 -26 20 -37 0 -10 6 -18 13 -18 6 0 32 -23 57 -51 25 -28 83 -90
130 -138 47 -48 108 -114 135 -146 28 -32 70 -79 95 -105 25 -26 64 -68 88
-92 23 -25 42 -50 42 -57 0 -6 4 -11 9 -11 5 0 14 -13 21 -29 6 -16 30 -45 52
-63 22 -18 61 -54 86 -79 26 -25 59 -54 74 -63 31 -20 101 -23 198 -8 36 5 71
7 78 5 6 -3 12 0 12 6 0 6 3 10 8 9 8 -3 72 25 112 47 14 8 33 15 43 15 9 0
17 4 17 9 0 5 10 13 22 17 12 4 52 26 88 49 159 102 180 115 191 115 6 0 20
10 31 23 13 15 21 18 24 10 3 -7 12 -13 20 -13 8 0 14 -4 14 -8 0 -12 50 -35
78 -37 12 0 22 3 22 7 0 4 10 8 21 8 24 0 94 36 121 62 10 10 21 18 26 18 4 0
26 17 49 38 23 20 55 47 71 59 16 13 49 42 73 65 25 24 65 60 89 82 51 43 240
227 255 248 37 50 73 84 86 80 8 -3 11 -1 7 3 -8 8 21 65 33 65 19 0 104 151
113 204 4 21 13 52 21 70 23 54 38 143 32 188 -9 57 -11 70 -37 163 -12 44
-30 111 -41 148 -22 83 -56 152 -115 233 -24 35 -44 67 -44 72 0 6 -4 12 -8
14 -4 2 -29 32 -54 68 -54 75 -123 148 -193 205 -28 22 -60 50 -73 62 -13 13
-27 23 -32 23 -6 0 -10 6 -10 13 0 7 -23 34 -51 60 -41 38 -50 52 -45 70 10
43 -13 240 -39 322 -25 80 -81 182 -110 198 -9 4 -13 12 -10 18 4 5 -1 9 -9 9
-9 0 -24 12 -33 28 -10 15 -27 35 -38 44 -61 54 -83 69 -112 80 -18 7 -33 16
-33 20 0 4 -5 8 -11 8 -6 0 -42 20 -80 45 -38 25 -74 45 -79 45 -5 0 -13 6
-17 13 -4 8 -34 32 -65 56 -32 23 -58 45 -58 49 0 4 -17 18 -38 32 -20 14 -39
28 -42 31 -3 4 -32 18 -65 31 -67 28 -65 21 -46 141 6 38 16 78 22 89 14 26
17 50 24 168 4 83 1 107 -23 190 -15 52 -37 111 -50 131 -12 20 -22 42 -22 48
0 6 -11 16 -24 22 -13 6 -30 22 -37 35 -7 13 -15 24 -19 24 -3 0 -15 8 -26 18
-10 10 -34 27 -51 37 -18 11 -33 26 -33 34 0 8 -3 12 -6 8 -6 -6 -136 81 -142
95 -2 4 -8 6 -12 3 -5 -3 -25 6 -45 19 -20 14 -62 30 -93 36 -31 7 -61 16 -67
20 -5 4 -17 8 -25 9 -8 1 -40 4 -70 7 -30 4 -58 11 -62 18 -6 8 -8 8 -8 -1 0
-11 -23 -11 -200 0 -25 2 -79 0 -120 -4z m338 -124 c94 -5 171 -24 197 -47 5
-4 18 -8 30 -8 25 0 80 -33 119 -71 17 -16 35 -29 41 -29 16 0 137 -77 152
-97 7 -8 25 -30 41 -47 42 -46 79 -115 88 -161 3 -22 11 -48 15 -57 5 -9 10
-27 10 -40 3 -51 -23 -213 -40 -257 -10 -25 -29 -73 -42 -106 -12 -33 -35 -82
-51 -108 -15 -26 -28 -52 -28 -58 0 -9 -9 -30 -55 -134 -7 -16 -19 -49 -26
-73 -10 -33 -16 -41 -28 -36 -34 15 -131 -4 -131 -26 0 -7 -12 -12 -75 -35
-51 -19 -74 -14 -156 30 -21 12 -25 20 -21 45 2 17 10 30 18 30 8 0 14 -4 14
-8 0 -4 8 -8 18 -9 9 0 35 -3 56 -7 132 -20 209 0 276 69 35 37 33 50 -15 95
-24 23 -34 25 -108 23 -83 -2 -174 -19 -214 -41 -27 -15 -33 -15 -33 -1 0 20
29 39 58 39 17 0 59 13 94 28 34 16 76 32 93 36 88 22 145 66 145 113 0 61
-39 89 -120 84 -29 -2 -142 -52 -240 -106 -23 -13 -25 -13 -31 8 -8 32 1 49
23 44 53 -14 196 48 269 117 47 44 99 107 99 120 0 25 -33 56 -69 66 -84 22
-162 -11 -281 -119 -46 -43 -56 -48 -64 -34 -6 11 -4 19 9 26 9 5 25 17 35 27
10 10 22 19 28 21 6 2 46 36 88 74 182 165 204 194 190 251 -6 24 -10 26 -54
20 -68 -8 -71 -9 -69 -15 4 -12 -38 -47 -108 -91 -38 -25 -71 -48 -73 -52 -2
-5 -9 -8 -15 -8 -7 -1 -27 -33 -46 -72 l-34 -71 -18 34 c-16 32 -16 35 3 61
10 15 27 32 36 38 9 5 14 10 10 10 -7 0 76 113 111 152 12 12 31 40 42 62 12
23 28 52 35 65 12 23 10 26 -18 48 -45 33 -66 29 -129 -22 -26 -21 -58 -88
-66 -140 -3 -16 -10 -37 -17 -45 -6 -8 -22 -37 -35 -65 -13 -27 -26 -52 -28
-54 -4 -6 -73 61 -73 71 0 4 28 40 63 79 79 92 106 129 145 208 38 75 39 84
12 111 -46 46 -181 -22 -232 -117 -15 -26 -37 -88 -49 -138 -13 -49 -23 -91
-24 -92 -1 -1 -18 3 -38 9 -46 14 -47 31 -6 118 52 108 64 144 75 222 6 45 7
47 43 50 20 2 45 3 56 2 11 -1 67 -5 123 -9z m-297 -86 c-10 -35 -26 -82 -36
-104 -17 -39 -18 -39 -25 -15 -17 59 11 179 48 199 28 16 33 -11 13 -80z
m-133 9 c-9 -62 -6 -161 8 -225 4 -21 3 -33 -4 -33 -6 0 -9 7 -6 14 3 8 -9 42
-26 75 -31 58 -32 61 -20 118 13 61 35 113 49 113 4 0 4 -28 -1 -62z m-390 10
c-1 -13 3 -39 7 -58 10 -46 -5 -31 -26 25 -12 31 -13 45 -5 49 21 8 24 6 24
-16z m292 7 c0 -8 -2 -15 -4 -15 -2 0 -6 7 -10 15 -3 8 -1 15 4 15 6 0 10 -7
10 -15z m-75 -75 c10 -34 22 -63 26 -66 11 -7 -22 -44 -40 -44 -8 0 -23 -8
-33 -17 -18 -16 -20 -15 -49 13 -24 24 -31 42 -36 87 l-6 57 31 -6 c24 -5 32
-2 41 15 22 40 46 26 66 -39z m580 -2 c-4 -13 -13 -28 -21 -34 -8 -6 -14 -16
-14 -21 0 -6 -20 -32 -45 -59 -43 -47 -45 -48 -45 -22 0 15 6 33 14 40 7 8 17
25 21 38 8 29 61 80 82 80 10 0 12 -7 8 -22z m-951 -44 c11 -10 16 -34 16 -72
l0 -56 -31 30 c-26 24 -59 79 -59 98 0 5 26 13 47 15 6 0 19 -6 27 -15z m166
-97 c0 -20 -23 -87 -30 -87 -4 0 -17 8 -28 18 -17 13 -22 33 -27 93 l-6 77 46
-45 c25 -25 45 -50 45 -56z m-387 42 c48 -25 66 -51 72 -103 11 -98 12 -116 7
-116 -17 0 -75 46 -87 70 -20 39 -37 119 -30 141 7 22 9 23 38 8z m685 -72
l22 -23 -33 1 c-50 3 -51 4 -32 25 10 11 19 20 20 20 1 0 11 -10 23 -23z
m-463 -92 c-3 -11 -8 -35 -12 -53 -5 -26 -10 -32 -26 -30 -22 3 -30 27 -40
119 l-4 47 44 -31 c34 -25 43 -36 38 -52z m249 66 c3 -5 -1 -11 -9 -15 -9 -3
-15 0 -15 9 0 16 16 20 24 6z m420 -172 c6 -5 10 -23 10 -41 1 -26 6 -33 26
-38 14 -4 31 -2 38 3 7 5 14 8 15 6 2 -2 20 -25 40 -50 20 -25 37 -51 37 -58
0 -6 4 -11 8 -11 11 0 51 -99 52 -125 0 -11 6 -58 14 -105 8 -47 12 -88 11
-91 -2 -3 -7 -38 -10 -79 -8 -105 -39 -251 -75 -355 -17 -49 -36 -105 -42
-122 -6 -18 -15 -33 -20 -33 -4 0 -8 -7 -8 -15 0 -12 -57 -140 -76 -173 -6 -9
-44 11 -44 23 0 14 -29 26 -77 31 -44 4 -302 154 -301 174 2 31 -34 55 -61 40
-18 -10 -72 27 -133 90 -25 26 -53 52 -60 56 -25 15 -86 159 -102 239 -29 145
-19 259 29 351 8 16 15 33 15 38 0 15 82 139 104 158 12 9 37 25 56 35 19 10
43 26 54 35 10 9 33 20 50 24 17 3 36 10 42 15 6 5 64 11 129 14 65 3 120 7
122 9 6 6 146 -34 157 -45z m532 6 c-21 -19 -42 -35 -45 -35 -4 0 -27 -18 -51
-40 -24 -22 -46 -38 -48 -36 -8 9 29 53 56 67 15 8 34 21 42 29 14 14 70 49
79 50 3 0 -12 -16 -33 -35z m-1438 -108 c6 -6 13 -29 17 -49 6 -34 5 -36 -14
-31 -12 3 -24 9 -27 14 -3 5 -16 9 -29 9 -13 0 -26 4 -29 8 -3 5 -36 10 -73
11 -102 3 -136 10 -122 27 6 8 14 12 18 10 4 -3 12 -2 18 2 22 13 230 12 241
-1z m1551 -94 c-35 -45 -68 -73 -114 -96 -100 -49 -120 -56 -124 -46 -4 14 20
59 31 59 5 0 30 18 56 39 54 46 84 59 131 60 30 1 32 -1 20 -16z m-1630 -201
c-12 -8 -40 -15 -63 -15 -107 0 -166 5 -166 13 0 5 40 9 90 8 50 0 93 1 95 4
3 2 18 5 35 5 29 0 29 -1 9 -15z m1657 -43 c7 -13 -65 -42 -88 -36 -10 3 -18
2 -18 -3 0 -4 -15 -13 -32 -20 -18 -8 -40 -20 -50 -27 -9 -8 -31 -13 -50 -11
-32 3 -31 4 42 43 128 68 178 82 196 54z m-1676 -146 c0 -5 -19 -17 -43 -28
-23 -10 -53 -28 -67 -38 -31 -24 -91 -49 -99 -42 -10 11 69 79 111 96 45 18
98 24 98 12z m2048 -35 c55 -26 86 -46 163 -108 78 -63 146 -111 193 -138 23
-12 47 -30 54 -39 6 -9 12 -13 12 -9 0 4 12 -1 28 -11 15 -10 40 -25 56 -33
29 -15 48 -32 141 -133 87 -94 100 -120 130 -251 7 -31 8 -222 1 -234 -3 -6
-8 -34 -11 -64 -2 -29 -6 -78 -9 -108 -3 -30 -8 -131 -11 -225 -5 -189 -10
-240 -29 -335 -8 -36 -21 -99 -30 -140 -8 -41 -20 -106 -25 -145 -6 -38 -13
-81 -16 -95 -3 -14 -8 -45 -11 -70 -6 -48 -32 -129 -46 -144 -4 -6 -8 -18 -8
-28 0 -10 -4 -26 -9 -36 -6 -9 -17 -42 -27 -72 -16 -55 -61 -145 -89 -177 -8
-10 -21 -26 -28 -37 -23 -31 -111 -23 -222 22 -22 9 -43 21 -47 26 -4 6 -10 8
-13 4 -8 -8 -67 8 -122 33 -23 10 -48 16 -56 13 -7 -2 -20 2 -27 11 -7 8 -21
15 -31 15 -10 0 -20 4 -24 9 -5 9 -59 40 -167 98 -16 8 -28 19 -28 24 0 5 -7
9 -15 9 -12 0 -13 5 -4 27 6 15 14 30 18 33 5 3 18 24 30 47 11 23 32 54 45
68 14 15 30 42 36 61 6 19 15 34 20 34 5 0 14 17 21 37 6 21 25 55 40 77 16
21 29 44 29 49 0 6 9 29 19 51 34 74 49 110 59 151 6 22 20 72 31 110 39 131
43 160 42 265 -1 104 -15 205 -32 226 -5 6 -7 13 -4 15 2 3 -20 54 -50 114
-30 59 -55 119 -55 131 0 20 -12 36 -30 40 -3 0 -13 4 -23 8 -25 11 -60 0 -75
-24 -13 -21 -12 -25 47 -135 11 -21 21 -45 21 -52 0 -7 5 -13 10 -13 6 0 10
-8 10 -19 0 -10 7 -24 15 -31 8 -7 15 -24 15 -39 0 -14 9 -44 18 -66 22 -49
28 -174 12 -265 -14 -77 -38 -177 -49 -205 -5 -11 -18 -47 -31 -80 -12 -33
-26 -69 -30 -80 -5 -11 -19 -43 -31 -72 -27 -66 -47 -85 -63 -59 -6 10 -21 29
-32 41 -48 49 -47 58 9 95 38 26 53 44 60 70 5 19 12 40 17 45 24 30 -17 111
-67 131 -19 9 -59 17 -88 19 -47 4 -56 1 -80 -23 -15 -15 -31 -35 -34 -46 -6
-15 -17 -6 -64 57 -31 42 -57 78 -57 81 0 3 -18 24 -40 47 -22 23 -40 46 -40
50 0 5 13 15 29 23 45 24 79 71 87 121 3 25 12 49 19 53 10 5 7 16 -14 47 -33
49 -120 87 -152 67 -10 -7 -30 -12 -44 -12 -14 0 -25 -4 -25 -10 0 -5 -10 -21
-22 -35 l-21 -25 -25 58 c-13 31 -33 89 -44 127 -11 39 -26 84 -34 102 -8 17
-14 51 -14 76 0 27 -5 47 -12 50 -7 2 2 7 20 11 17 4 32 12 32 16 0 5 7 7 15
4 8 -4 15 -12 15 -20 0 -8 7 -14 15 -14 8 0 15 -4 15 -8 0 -5 12 -15 28 -22
15 -8 34 -20 42 -26 56 -46 227 -73 266 -43 38 30 100 98 114 125 8 16 17 31
20 34 8 8 31 60 45 105 7 22 28 74 46 115 17 41 42 100 55 130 13 30 35 70 49
87 14 18 25 35 25 38 0 3 6 18 14 34 9 16 12 31 9 35 -4 3 -1 6 5 6 7 0 12 10
12 23 0 12 6 31 13 42 7 11 19 39 27 63 7 23 15 42 17 42 2 0 25 -10 51 -22z
m-384 -77 c13 -20 -40 -35 -127 -34 -110 1 -136 15 -51 29 21 3 40 7 41 8 8 7
132 5 137 -3z m-1613 -174 c-11 -12 -39 -43 -62 -69 -23 -27 -50 -48 -60 -48
-10 0 -20 -4 -23 -9 -8 -13 -46 -1 -46 14 0 8 7 20 15 29 8 8 15 19 15 25 0 6
4 11 9 11 5 0 23 13 40 30 29 26 105 53 124 43 4 -3 -1 -14 -12 -26z m173 -16
l25 -50 -77 -37 c-138 -67 -223 -145 -247 -226 -15 -50 -14 -52 7 -72 18 -17
35 -21 79 -20 64 1 119 32 199 112 24 25 62 56 84 71 21 14 45 30 51 35 9 6
22 4 40 -8 l27 -18 -28 -19 c-16 -10 -37 -19 -47 -19 -17 0 -98 -74 -130 -120
-65 -94 -98 -162 -86 -182 26 -47 129 -47 189 1 58 45 62 45 31 -5 -39 -60
-64 -135 -56 -167 9 -33 46 -49 82 -36 37 12 182 164 243 254 8 12 22 29 30
37 8 8 26 28 39 45 18 22 30 28 47 25 13 -2 24 -7 24 -9 0 -3 -22 -31 -49 -62
-26 -31 -58 -74 -70 -96 -12 -22 -37 -67 -56 -100 -79 -136 -91 -184 -52 -202
37 -16 80 3 148 66 35 33 66 58 70 55 4 -2 1 -26 -6 -53 -11 -44 -11 -52 6
-80 29 -47 69 -43 126 14 25 24 48 45 52 47 7 4 31 44 68 115 15 29 30 50 33
45 4 -4 12 -31 20 -61 7 -30 26 -80 41 -112 16 -32 29 -67 29 -78 0 -20 19
-72 31 -81 9 -8 89 -169 89 -180 0 -14 41 -72 63 -88 9 -7 17 -18 17 -23 0
-11 49 -79 65 -91 7 -5 7 -8 0 -8 -5 0 -3 -6 5 -13 8 -7 27 -28 41 -47 15 -19
41 -50 58 -69 17 -19 33 -43 37 -53 3 -10 9 -18 13 -18 4 0 25 -24 46 -52 22
-29 42 -55 45 -58 13 -12 60 -79 60 -85 0 -3 12 -21 26 -40 22 -29 24 -36 12
-54 -7 -12 -16 -21 -20 -21 -5 0 -8 -3 -8 -8 0 -4 -25 -54 -55 -112 -61 -117
-62 -136 -9 -172 19 -13 34 -26 34 -30 0 -5 6 -8 13 -8 14 0 68 -35 157 -102
35 -26 67 -45 72 -42 5 3 16 0 24 -7 8 -6 31 -13 52 -16 20 -2 46 -8 57 -13
11 -5 35 -13 54 -18 19 -4 39 -17 45 -27 6 -11 14 -22 17 -25 14 -13 67 -97
73 -117 4 -13 12 -23 17 -23 5 0 9 -6 9 -12 0 -7 36 -51 80 -97 104 -110 102
-127 -30 -203 -30 -17 -57 -35 -60 -39 -3 -5 -35 -23 -70 -42 -36 -18 -74 -38
-85 -44 -69 -36 -85 -42 -120 -46 -22 -3 -62 -10 -89 -16 -31 -8 -52 -8 -60
-2 -6 5 -17 6 -24 2 -37 -23 -115 28 -147 96 -9 18 -22 33 -30 33 -8 0 -15 5
-15 11 0 6 -6 16 -12 24 -24 24 -52 59 -76 95 -13 19 -25 33 -27 30 -2 -5 -59
67 -95 121 -8 12 -22 30 -30 38 -8 9 -28 36 -45 60 -16 24 -34 45 -41 48 -19
7 -279 265 -310 308 -16 22 -36 47 -45 55 -14 14 -78 108 -105 155 -20 37 -77
140 -96 175 -32 59 -65 112 -75 119 -5 3 -24 26 -43 51 -19 25 -48 57 -64 73
-26 25 -28 32 -22 70 17 102 17 125 7 165 -14 52 -36 55 -76 11 -22 -25 -29
-44 -32 -93 -3 -34 -9 -68 -13 -76 -4 -8 -11 -35 -14 -60 -4 -25 -13 -61 -21
-80 -24 -63 -45 -139 -51 -187 -4 -27 -13 -58 -20 -70 -8 -12 -14 -31 -14 -42
0 -11 -5 -23 -10 -26 -6 -4 -10 -12 -9 -18 1 -7 -1 -19 -4 -27 -24 -62 -100
-401 -111 -496 -2 -17 -6 -35 -9 -40 -3 -5 -8 -34 -11 -64 -10 -86 -13 -103
-20 -140 -15 -73 -12 -70 -79 -65 -34 2 -75 6 -92 9 -16 2 -57 7 -89 11 -32 3
-62 7 -65 7 -3 1 -46 -2 -96 -7 -153 -15 -140 -21 -139 60 2 79 7 126 18 143
4 7 3 12 -1 12 -10 0 -9 39 3 109 4 25 6 54 5 64 -2 15 3 68 24 242 3 22 7 76
10 120 8 160 25 377 29 384 2 4 7 42 11 86 4 44 8 82 10 85 1 3 6 43 9 90 11
138 35 389 41 413 4 21 13 107 19 192 2 22 11 74 19 115 9 41 18 95 21 120 4
46 15 81 26 90 4 3 14 30 24 60 10 30 28 78 41 105 12 28 25 60 29 71 4 12 15
29 26 39 11 10 20 26 20 36 0 10 10 23 23 30 12 6 67 58 122 115 55 57 106
104 112 104 7 0 23 -22 37 -49z m1486 -46 c0 -3 -7 -21 -15 -41 -8 -19 -13
-35 -12 -37 1 -1 -9 -30 -22 -63 l-25 -61 -23 27 c-13 15 -23 31 -23 34 0 12
-66 66 -88 72 -33 9 -21 27 19 29 34 1 159 31 168 40 6 7 21 6 21 0z m-1451
-124 c-29 -25 -66 -58 -81 -73 -15 -16 -31 -28 -35 -28 -4 0 -28 -14 -53 -30
-47 -31 -100 -40 -100 -16 0 32 151 156 191 156 9 0 19 4 21 8 4 11 90 40 102
34 4 -3 -16 -25 -45 -51z m1211 -6 c18 -6 85 -90 97 -122 5 -12 -1 -13 -33 -7
-22 4 -42 11 -45 16 -3 5 -10 9 -15 9 -5 -1 -23 4 -39 9 -30 10 -54 40 -74 92
l-9 25 49 -8 c28 -4 58 -11 69 -14z m-170 -57 c0 -5 -11 -8 -25 -8 -14 0 -25
5 -25 10 0 6 5 10 10 10 6 0 10 8 10 17 0 15 2 14 15 -3 8 -10 15 -22 15 -26z
m-848 -75 c-16 -21 -42 -49 -56 -62 -14 -14 -26 -28 -26 -32 0 -4 -22 -30 -50
-57 -46 -46 -98 -69 -122 -55 -15 8 125 193 146 193 4 0 28 10 54 22 26 12 53
21 60 20 6 -2 12 3 12 9 0 7 3 10 6 6 4 -3 -7 -23 -24 -44z m116 -19 c-20 -18
-109 -72 -98 -59 8 11 22 28 30 38 34 44 41 48 56 36 8 -7 13 -13 12 -15z
m779 -3 c20 -10 51 -56 54 -78 1 -5 3 -12 4 -18 11 -36 12 -55 4 -55 -5 0 -9
5 -9 10 0 6 -3 9 -7 8 -18 -3 -83 33 -93 52 -6 11 -7 20 -3 20 4 0 2 5 -5 12
-7 7 -12 24 -12 39 0 22 4 27 23 25 12 -2 32 -8 44 -15z m211 -63 c8 -2 1 -17
-22 -43 -19 -21 -37 -37 -39 -35 -5 5 -37 97 -37 105 0 2 19 -2 43 -10 23 -7
48 -15 55 -17z m-984 -50 c-55 -77 -91 -121 -161 -196 -47 -50 -63 -62 -63
-47 0 78 171 273 258 294 2 1 -13 -23 -34 -51z m273 -14 c10 -28 -33 -121 -77
-164 -3 -3 -23 -25 -45 -50 -22 -25 -40 -43 -40 -40 0 4 -28 -18 -71 -57 -14
-13 -27 -23 -29 -23 -8 0 8 34 32 70 13 19 23 40 23 47 0 7 5 13 10 13 6 0 10
5 10 11 0 27 150 209 172 209 5 0 11 -7 15 -16z m132 -102 c0 -9 -13 -42 -29
-72 -16 -30 -33 -64 -39 -76 -5 -11 -25 -38 -45 -59 -20 -21 -36 -41 -36 -45
0 -4 -7 -10 -15 -14 -17 -6 -20 15 -6 42 5 9 19 37 31 62 12 25 35 64 51 88
16 24 29 45 29 47 0 2 10 15 23 28 24 25 37 25 36 -1z m1981 -301 c0 -12 89
-97 135 -128 22 -15 54 -43 72 -62 17 -20 45 -52 62 -71 17 -19 41 -55 54 -80
12 -25 32 -56 45 -70 13 -14 35 -46 49 -72 14 -27 29 -48 33 -48 14 0 66 -162
76 -236 3 -21 7 -52 10 -69 16 -93 1 -212 -33 -263 -8 -13 -23 -49 -34 -79
-10 -31 -23 -61 -27 -67 -5 -6 -15 -31 -22 -55 -10 -30 -35 -66 -80 -113 -37
-37 -70 -68 -74 -68 -8 0 -26 -16 -121 -102 -29 -27 -55 -48 -59 -48 -10 0
-207 -200 -231 -234 -28 -40 -63 -72 -115 -106 -57 -36 -91 -31 -125 18 l-24
35 20 28 c11 16 25 42 30 59 12 33 4 100 -12 100 -5 0 -23 10 -39 22 -31 22
-74 28 -126 17 -24 -5 -34 -2 -42 12 -7 10 -12 21 -12 23 0 7 54 19 73 17 28
-4 123 46 151 80 14 17 26 41 26 53 0 13 9 31 20 41 11 10 20 28 20 39 0 12
10 41 21 66 11 25 29 72 40 105 11 33 24 69 29 80 14 30 43 137 45 160 1 11 6
38 12 60 10 39 35 152 68 301 8 40 15 89 15 110 0 22 5 57 10 79 21 86 25 137
25 312 0 169 1 180 18 172 9 -5 17 -13 17 -18z m-1551 -55 c17 -20 -6 -93 -32
-107 -43 -24 -107 30 -77 66 7 8 16 12 21 9 5 -3 12 3 16 13 13 34 51 44 72
19z m347 -493 c12 -19 13 -28 6 -31 -7 -2 -12 -11 -12 -20 0 -24 -30 -52 -57
-52 -27 0 -43 31 -43 84 0 41 0 41 48 43 34 2 43 -2 58 -24z m762 -1236 c6 -5
12 -18 12 -29 0 -30 -61 -21 -77 11 -6 14 -10 28 -8 32 6 8 56 -1 73 -14z"/>
</g>
</svg>
