<?xml version="1.0" standalone="no"?>
<!DOCTYPE svg PUBLIC "-//W3C//DTD SVG 20010904//EN"
 "http://www.w3.org/TR/2001/REC-SVG-20010904/DTD/svg10.dtd">
<svg version="1.0" xmlns="http://www.w3.org/2000/svg"
 width="481.000000pt" height="461.000000pt" viewBox="0 0 481.000000 461.000000"
 preserveAspectRatio="xMidYMid meet">
<metadata>
Created by potrace 1.16, written by Peter Selinger 2001-2019
</metadata>
<g transform="translate(0.000000,461.000000) scale(0.100000,-0.100000)"
fill="#000000" stroke="none">
<path d="M3539 4546 c-3 -4 -39 -8 -80 -10 -41 -2 -81 -6 -89 -9 -34 -12 -78
-18 -120 -16 -60 3 -146 1 -195 -4 -58 -6 -155 -37 -155 -49 0 -6 -6 -19 -14
-27 -12 -14 -25 -65 -42 -156 -3 -16 -9 -43 -14 -60 -4 -16 -12 -48 -16 -70
-4 -22 -9 -44 -11 -50 -6 -18 -23 -108 -33 -175 -5 -36 -16 -83 -24 -105 -24
-63 -20 -102 10 -121 23 -16 24 -18 8 -27 -10 -6 -33 -10 -52 -9 -38 2 -133
-45 -181 -88 -16 -15 -36 -30 -45 -33 -9 -4 -24 -21 -34 -38 -9 -17 -29 -47
-44 -66 -16 -20 -28 -45 -28 -57 0 -12 -9 -39 -20 -61 -11 -22 -20 -49 -20
-61 0 -12 -7 -38 -15 -58 -9 -20 -22 -64 -30 -99 -23 -103 -42 -170 -58 -212
-8 -22 -15 -47 -15 -55 0 -8 -12 -42 -26 -75 -14 -33 -26 -68 -26 -77 0 -9
-13 -70 -29 -135 -16 -65 -37 -158 -46 -208 -9 -49 -24 -117 -34 -150 -10 -33
-26 -94 -36 -135 -9 -41 -21 -83 -26 -92 -5 -10 -9 -25 -9 -33 0 -8 -4 -23 -9
-33 -5 -9 -19 -55 -30 -102 -12 -47 -24 -94 -27 -105 -3 -11 -10 -40 -15 -65
-8 -41 -13 -58 -35 -115 -4 -11 -8 -24 -9 -30 -1 -5 -9 -27 -18 -47 -9 -21
-17 -44 -17 -52 0 -8 -5 -18 -10 -21 -6 -3 -10 -15 -10 -25 0 -10 -7 -25 -15
-33 -8 -8 -11 -17 -8 -20 3 -4 2 -14 -2 -24 -5 -10 -9 -20 -10 -23 -8 -31 -18
-50 -26 -50 -5 0 -9 -4 -9 -10 0 -28 -134 -200 -156 -200 -5 0 -16 -9 -24 -20
-8 -11 -20 -20 -27 -20 -6 0 -16 -6 -20 -12 -9 -15 -40 -36 -65 -44 -9 -3 -19
-12 -22 -20 -3 -8 -10 -14 -17 -14 -6 0 -28 -13 -48 -28 -20 -15 -53 -37 -74
-47 -21 -11 -51 -31 -67 -45 -16 -14 -46 -34 -67 -45 -21 -11 -45 -27 -53 -35
-26 -27 -153 -116 -220 -154 -114 -66 -142 -84 -149 -94 -4 -6 -15 -15 -26
-19 -52 -22 -86 -52 -108 -96 -24 -46 -25 -49 -9 -90 36 -94 87 -142 174 -164
95 -24 253 -4 390 49 29 11 82 30 118 43 71 24 152 63 215 103 40 26 70 41
159 81 46 21 192 56 246 59 31 2 80 -17 80 -30 0 -6 7 -7 16 -4 9 3 21 3 27
-1 54 -33 223 -24 322 17 22 10 59 39 83 66 57 65 62 71 62 84 0 5 4 10 8 10
5 0 15 19 22 43 7 23 16 49 18 57 8 25 10 283 2 305 -20 54 -30 93 -31 120 -2
39 16 142 32 180 15 37 13 31 29 88 7 26 16 47 21 47 5 0 9 7 9 17 0 26 30
123 56 179 13 28 35 91 49 140 24 85 56 175 77 220 5 11 8 24 6 30 -1 5 6 31
16 58 19 49 19 49 37 28 9 -12 20 -44 24 -72 4 -27 11 -50 16 -50 5 0 9 -8 9
-17 0 -40 41 -99 95 -136 53 -37 74 -44 135 -51 14 -1 36 -7 50 -13 17 -7 79
-8 205 -1 214 11 225 12 339 32 49 9 101 16 117 16 20 0 34 8 46 28 10 15 35
44 55 64 21 20 38 41 38 46 0 5 9 17 20 27 11 10 20 24 20 32 0 7 5 13 10 13
6 0 10 6 10 13 0 7 9 29 20 50 11 20 20 44 20 52 0 8 10 36 21 60 12 25 19 48
16 52 -3 3 0 22 8 42 7 20 19 72 25 115 7 44 16 87 20 95 8 16 30 132 31 163
0 10 4 20 9 23 5 3 12 27 15 53 3 26 12 76 20 112 8 36 22 101 31 145 8 44 22
109 29 145 8 36 17 93 20 127 4 33 13 87 21 120 9 32 16 66 17 76 1 9 4 17 8
17 3 0 9 22 13 50 4 27 10 51 14 54 4 2 9 19 10 36 1 18 9 45 18 61 8 16 14
49 12 72 -2 45 9 105 23 122 4 6 3 21 -4 35 -13 25 -73 64 -87 55 -5 -3 -20
-1 -35 5 -21 8 -24 13 -16 29 6 10 12 43 15 72 19 248 30 323 49 347 6 7 12
27 14 43 3 27 -1 32 -45 50 -26 11 -70 31 -99 45 -28 13 -67 24 -85 24 -18 0
-49 5 -68 11 -46 15 -136 28 -235 35 -178 12 -300 16 -306 10z m266 -101 c44
-4 98 -7 120 -8 22 -1 46 -6 52 -10 13 -8 35 -13 133 -27 30 -4 72 -16 92 -26
38 -18 38 -18 32 -68 -3 -28 -7 -85 -7 -126 -2 -68 -4 -75 -22 -76 -11 0 -24
3 -30 6 -45 31 -378 45 -610 26 -60 -5 -150 -10 -200 -11 -137 -2 -298 -15
-320 -25 -49 -21 -150 -58 -153 -55 -9 8 35 211 49 231 5 6 10 24 12 40 4 37
19 64 38 68 8 2 22 6 32 11 9 4 31 5 47 3 16 -3 31 0 33 6 3 7 9 7 20 -2 28
-23 98 -16 227 23 25 8 80 16 124 19 43 2 79 6 81 8 5 4 156 0 250 -7z m145
-400 c49 -4 120 -17 168 -32 l84 -26 -7 -36 c-4 -20 -8 -52 -10 -71 -5 -51
-25 -162 -32 -173 -3 -6 -8 -31 -10 -56 -2 -25 -14 -81 -27 -126 -30 -99 -58
-203 -61 -232 -2 -12 -6 -36 -10 -54 -7 -31 -10 -55 -19 -134 -6 -48 -26 -122
-63 -230 -19 -55 -39 -117 -44 -139 -11 -42 -51 -130 -74 -160 -13 -17 -47
-17 -44 1 1 4 -6 26 -16 48 -21 47 -24 82 -29 370 -2 121 -6 243 -9 270 -3 28
-9 77 -12 110 -3 33 -13 88 -21 122 -34 143 -67 182 -176 206 -162 36 -357 42
-471 16 -43 -11 -116 -22 -161 -25 l-84 -7 5 27 c3 14 8 26 12 26 4 0 7 17 7
38 0 20 4 55 8 77 5 22 9 52 10 67 3 34 0 33 66 53 98 30 124 35 205 40 44 3
87 8 95 12 25 10 43 13 75 12 61 -2 162 -3 220 -2 33 1 74 2 90 2 17 0 68 4
115 9 47 5 96 8 110 6 14 -2 63 -7 110 -9z m365 -277 c32 -14 35 -62 5 -78
-13 -7 -20 -21 -20 -39 0 -25 -8 -59 -27 -111 -3 -8 -7 -24 -8 -35 -3 -21 -6
-36 -24 -102 -11 -40 -31 -68 -31 -43 0 7 -7 9 -16 6 -11 -4 -14 -1 -10 12 3
9 8 31 12 47 4 17 11 36 17 43 5 7 7 15 5 18 -3 3 1 26 9 52 15 50 17 59 28
137 6 42 25 105 32 105 1 0 14 -5 28 -12z m-1498 -94 c-3 -3 -12 -4 -19 -1 -8
3 -5 6 6 6 11 1 17 -2 13 -5z m556 -60 c12 -4 42 -8 67 -9 99 -4 102 -9 30
-43 -27 -13 -71 -45 -98 -70 -27 -26 -70 -67 -96 -91 -51 -48 -91 -103 -120
-166 -11 -22 -38 -69 -61 -105 -39 -61 -117 -212 -121 -235 -1 -5 -8 -23 -15
-40 -7 -16 -12 -33 -11 -37 1 -5 -2 -8 -8 -8 -5 0 -10 -6 -10 -12 0 -7 -7 -26
-16 -43 -16 -31 -20 -44 -30 -105 -3 -19 -10 -43 -16 -53 -5 -10 -12 -31 -14
-45 -3 -15 -8 -38 -13 -52 -20 -60 -30 -98 -37 -135 -4 -22 -14 -56 -22 -75
-13 -32 -20 -56 -53 -185 -6 -21 -13 -44 -17 -50 -4 -5 -16 -37 -26 -70 -10
-33 -24 -74 -31 -91 -8 -18 -17 -49 -20 -70 -4 -22 -10 -48 -15 -59 -9 -21
-70 -192 -74 -210 -2 -5 -8 -23 -14 -38 -7 -16 -12 -31 -12 -34 0 -3 -6 -19
-14 -36 -15 -35 -41 -110 -59 -172 -7 -22 -15 -44 -18 -50 -6 -10 -24 -102
-33 -175 -3 -18 4 -70 14 -115 45 -192 34 -325 -31 -400 -17 -19 -28 -35 -24
-35 13 0 -21 -26 -60 -46 -83 -43 -188 -47 -290 -10 -81 30 -170 34 -254 11
-30 -8 -58 -12 -63 -9 -4 3 -8 1 -8 -5 0 -5 -17 -15 -37 -21 -41 -13 -185 -80
-193 -90 -3 -4 -12 -9 -20 -13 -17 -8 -53 -30 -60 -37 -9 -9 -120 -60 -131
-60 -6 0 -25 -6 -42 -14 -65 -28 -154 -54 -207 -60 -9 -1 -22 -6 -29 -11 -21
-13 -130 -18 -144 -7 -6 5 -26 13 -42 16 -35 8 -85 56 -85 81 0 22 39 59 88
84 20 11 47 28 58 40 12 11 24 17 27 14 3 -3 12 0 19 6 7 6 56 38 108 72 150
97 170 111 170 119 0 4 21 19 48 34 26 15 68 42 95 61 26 20 47 33 47 30 0 -3
20 11 45 30 25 19 61 42 79 50 19 9 42 25 52 36 9 10 22 19 28 19 6 0 23 11
38 25 15 14 34 25 43 25 8 0 15 5 15 10 0 6 28 38 63 73 70 70 117 129 117
149 0 7 7 22 15 32 8 10 26 55 41 100 15 45 31 90 37 101 6 11 12 25 13 30 1
6 18 58 38 117 20 59 36 117 36 128 0 12 4 29 9 38 9 18 51 161 75 262 43 175
68 267 76 282 6 10 10 28 10 41 0 13 6 43 14 68 8 24 17 70 21 101 4 32 11 60
16 64 5 3 7 10 3 15 -3 5 2 31 10 57 9 26 18 63 20 82 3 19 18 73 35 119 16
46 35 109 42 140 7 31 18 68 26 83 7 15 13 30 12 33 -3 15 14 86 22 91 5 3 9
17 9 32 0 15 12 61 26 102 14 41 28 86 31 100 19 80 108 183 206 239 47 26 61
31 72 21 9 -7 28 -10 47 -6 54 10 100 16 158 21 30 3 79 9 110 15 30 5 66 11
80 13 42 5 210 -2 233 -9z m244 -141 c-1 -10 5 -58 12 -106 7 -48 11 -90 8
-93 -2 -3 -1 -20 3 -39 5 -23 4 -40 -5 -52 -10 -13 -10 -23 -2 -38 6 -11 12
-78 14 -150 9 -342 11 -360 36 -432 14 -42 14 -43 -7 -44 -47 -1 -113 -8 -141
-14 -94 -19 -94 -19 -101 9 -3 14 -4 38 -2 51 3 14 1 25 -3 25 -5 0 -9 6 -9
14 0 7 -9 33 -19 57 -11 24 -22 55 -25 69 -5 28 -25 87 -36 110 -4 9 -11 30
-14 47 -4 17 -14 37 -22 44 -8 6 -14 18 -14 26 0 7 -7 16 -15 19 -8 4 -15 11
-15 16 0 12 -51 54 -62 51 -21 -7 -16 40 9 83 16 27 35 61 42 77 8 15 18 27
23 27 4 0 8 6 8 14 0 20 129 149 182 182 41 26 121 61 144 63 6 1 11 -7 11
-16z m576 -283 c-4 -85 -12 -157 -21 -180 -5 -14 -13 -54 -17 -90 -4 -36 -15
-92 -25 -125 -10 -33 -21 -86 -24 -118 -3 -31 -13 -76 -21 -100 -8 -23 -15
-56 -15 -73 0 -17 -3 -34 -7 -38 -4 -3 -8 -13 -9 -20 -1 -8 -10 -47 -19 -87
-20 -87 -20 -91 -30 -149 -15 -95 -56 -194 -106 -257 -50 -62 -73 -78 -100
-69 -8 3 -25 8 -39 10 -80 16 -130 33 -130 46 0 4 -9 10 -20 13 -11 3 -20 12
-20 21 0 9 -4 16 -9 16 -4 0 -14 21 -22 48 -7 26 -20 65 -29 87 -33 77 -34 79
-43 125 -3 14 -11 41 -16 60 -16 51 -14 76 7 77 35 2 78 9 88 16 9 5 109 7
238 4 29 -1 42 4 50 18 6 11 23 31 37 45 41 40 105 166 132 261 14 47 29 94
35 105 13 26 29 81 38 129 4 22 10 47 14 55 4 8 11 42 14 75 14 132 15 136 44
133 24 -3 27 -7 25 -38z m-1038 -244 c31 -16 64 -69 85 -136 7 -25 18 -51 23
-58 6 -7 7 -15 3 -19 -3 -3 0 -13 8 -22 7 -9 16 -39 19 -68 3 -28 17 -90 32
-136 14 -47 26 -102 26 -123 1 -22 5 -57 11 -78 5 -22 11 -49 12 -61 1 -11 5
-25 8 -30 11 -19 57 -140 61 -160 13 -70 20 -95 27 -95 4 0 13 -18 20 -40 7
-22 19 -40 27 -40 7 0 16 -7 19 -15 4 -8 12 -15 18 -15 23 0 52 -28 41 -39 -9
-9 -162 -32 -205 -31 -8 0 -67 2 -130 3 -134 4 -151 7 -206 35 -52 26 -64 46
-99 154 -29 93 -60 138 -95 138 -19 0 -21 4 -15 33 3 17 10 41 15 52 9 22 37
117 45 150 32 144 76 278 96 290 5 4 7 14 4 24 -3 9 6 39 20 67 14 27 25 57
25 66 0 10 7 34 16 55 57 131 47 120 89 99z"/>
<path d="M2005 3329 c-145 -46 -131 -39 -216 -122 -56 -57 -109 -135 -109
-163 0 -8 -13 -40 -29 -71 -16 -32 -36 -80 -45 -108 -24 -78 -76 -286 -82
-330 -3 -22 -13 -65 -21 -95 -9 -30 -18 -68 -19 -85 -2 -16 -12 -66 -23 -110
-10 -44 -27 -136 -36 -203 -9 -68 -27 -160 -40 -205 -12 -45 -26 -97 -30 -114
-4 -18 -10 -33 -14 -33 -4 0 -8 -12 -9 -28 -4 -55 -20 -103 -66 -202 -33 -73
-127 -233 -138 -238 -5 -2 -8 -8 -8 -13 0 -10 -19 -34 -77 -98 -24 -25 -43
-52 -43 -59 0 -7 -8 -16 -17 -19 -10 -4 -22 -12 -28 -18 -5 -6 -41 -38 -80
-71 -38 -32 -81 -69 -95 -82 -14 -12 -28 -22 -31 -22 -4 0 -21 -13 -38 -29
-18 -17 -65 -47 -105 -68 -40 -21 -95 -53 -122 -72 -78 -54 -194 -214 -194
-267 0 -8 -4 -14 -8 -14 -17 0 5 -96 31 -136 19 -30 43 -51 88 -73 73 -36 83
-37 109 -11 40 40 12 104 -49 113 -88 14 -94 104 -15 202 52 66 112 125 136
135 13 6 35 18 50 28 43 28 120 72 127 72 3 0 22 14 41 30 19 17 53 45 74 63
22 17 57 49 79 70 22 20 42 37 46 37 8 0 110 112 150 165 50 65 160 232 174
265 4 8 18 33 32 55 14 22 27 45 30 50 11 25 36 102 41 125 16 77 27 121 45
175 20 62 21 66 39 179 6 38 13 73 16 78 7 11 16 86 15 121 -1 15 3 35 8 45 5
10 12 44 15 77 6 60 11 83 40 205 9 36 23 97 31 135 37 168 79 296 132 404 52
107 110 172 188 211 89 44 236 27 298 -35 19 -19 40 -11 57 20 14 27 6 75 -13
75 -7 0 -28 11 -47 23 -55 37 -183 56 -245 36z"/>
</g>
</svg>
