<?xml version="1.0" standalone="no"?>
<!DOCTYPE svg PUBLIC "-//W3C//DTD SVG 20010904//EN"
 "http://www.w3.org/TR/2001/REC-SVG-20010904/DTD/svg10.dtd">
<svg version="1.0" xmlns="http://www.w3.org/2000/svg"
 width="543.000000pt" height="399.000000pt" viewBox="0 0 543.000000 399.000000"
 preserveAspectRatio="xMidYMid meet">
<metadata>
Created by potrace 1.16, written by Peter Selinger 2001-2019
</metadata>
<g transform="translate(0.000000,399.000000) scale(0.100000,-0.100000)"
fill="#000000" stroke="none">
<path d="M3462 3814 c-7 -8 -26 -14 -42 -14 -38 0 -75 -40 -96 -105 -9 -27
-22 -57 -29 -65 -13 -17 -40 -112 -49 -179 -4 -24 -15 -65 -26 -90 -10 -25
-21 -63 -25 -83 -3 -21 -11 -38 -16 -38 -6 0 -8 9 -4 19 12 40 13 83 3 193
-20 220 -89 338 -209 353 -17 2 -44 7 -60 10 -27 6 -37 0 -108 -72 -62 -63
-78 -85 -79 -110 0 -17 -10 -51 -22 -75 -12 -23 -23 -52 -25 -63 -2 -11 -11
-67 -20 -125 -31 -201 -76 -430 -85 -430 -4 0 -7 36 -7 80 0 77 -10 225 -19
305 -9 72 -24 113 -69 181 -33 51 -54 72 -86 87 -51 23 -114 24 -138 3 -10 -9
-23 -16 -30 -16 -32 0 -134 -143 -145 -204 -3 -14 -8 -36 -11 -47 -4 -12 -9
-33 -10 -48 -5 -41 -15 -138 -25 -241 -11 -109 -17 -155 -26 -225 -4 -27 -8
-178 -10 -335 -2 -297 -11 -598 -18 -609 -2 -3 -7 -38 -11 -76 -4 -39 -9 -74
-12 -78 -3 -5 -6 -18 -8 -30 -15 -111 -38 -240 -50 -282 -8 -27 -16 -63 -19
-80 -3 -16 -10 -55 -16 -85 -5 -30 -14 -66 -19 -80 -5 -14 -12 -42 -15 -63 -6
-43 -42 -167 -61 -212 -8 -16 -17 -43 -21 -60 -4 -16 -15 -41 -24 -55 -9 -14
-22 -43 -27 -65 -6 -22 -22 -71 -35 -110 -14 -38 -40 -117 -58 -175 -18 -58
-37 -109 -41 -115 -15 -16 -10 -47 12 -66 12 -10 29 -33 38 -51 20 -41 46 -45
105 -18 37 16 59 19 109 15 34 -2 99 -7 144 -10 45 -3 92 -9 105 -14 13 -5 25
-8 28 -8 15 1 117 -27 127 -35 7 -5 26 -7 44 -3 23 5 34 16 46 43 46 117 70
167 91 189 12 13 22 26 22 29 0 15 34 36 65 40 30 4 37 1 45 -20 5 -13 15 -26
22 -28 9 -3 13 -29 14 -89 1 -125 2 -133 24 -147 13 -8 77 -15 178 -18 268 -9
370 -16 387 -26 6 -3 37 -5 70 -4 56 1 60 3 64 26 1 14 8 28 14 32 5 3 12 35
14 70 3 34 10 69 16 77 6 7 13 25 14 40 2 14 6 33 10 41 3 8 7 26 8 40 2 14
11 43 20 65 10 22 17 44 16 48 -1 4 5 15 14 23 8 9 15 22 15 30 0 8 5 14 10
14 6 0 10 7 10 15 0 8 5 15 10 15 6 0 10 9 10 20 0 11 7 23 15 26 8 4 15 10
15 16 0 5 11 24 24 41 13 18 32 48 42 67 21 39 61 98 81 118 7 7 13 17 13 22
0 4 18 26 40 49 22 22 40 44 40 49 0 13 81 92 154 150 39 31 75 63 79 69 4 7
12 13 18 13 11 0 104 67 146 106 55 50 60 54 69 54 5 0 21 11 35 24 14 13 41
32 60 41 19 10 38 24 42 31 4 8 12 14 17 14 10 0 64 37 155 105 33 25 68 48
78 51 9 4 17 12 17 19 0 8 10 22 23 32 12 10 32 32 45 48 24 32 82 149 82 165
0 6 4 18 9 28 21 41 31 93 31 160 0 74 0 74 -74 212 -17 31 -86 54 -168 56
-65 1 -85 -2 -125 -23 -27 -14 -57 -34 -69 -44 -11 -11 -28 -19 -37 -19 -9 0
-19 -5 -22 -10 -4 -6 -11 -8 -16 -5 -5 4 -9 2 -9 -3 0 -5 -14 -15 -30 -22 -17
-7 -51 -32 -76 -56 -25 -24 -49 -44 -53 -44 -9 0 6 70 24 115 7 17 16 46 20
65 4 19 11 41 15 50 4 8 13 34 19 58 24 93 36 127 46 134 5 4 6 10 3 14 -4 3
-1 23 8 42 8 20 21 73 29 119 8 46 22 112 31 146 11 41 18 113 20 210 3 131 1
153 -17 200 -12 28 -26 67 -31 85 -11 41 -53 82 -132 130 -55 33 -69 37 -140
40 l-79 2 -48 -45 c-26 -25 -53 -45 -58 -45 -5 0 -8 -9 -6 -20 2 -11 0 -20 -6
-20 -5 0 -9 -7 -9 -16 0 -14 -24 -67 -51 -114 -5 -8 -14 -26 -20 -40 -5 -14
-19 -43 -30 -66 -10 -22 -19 -50 -19 -62 0 -11 -5 -24 -12 -28 -8 -5 -9 17 -4
87 8 109 13 154 21 189 19 84 -3 265 -37 308 -6 6 -7 12 -4 12 16 0 -34 40
-85 68 -37 20 -60 28 -69 22 -8 -5 -19 -5 -25 0 -6 4 -15 2 -23 -6z m83 -130
c23 -9 47 -71 49 -131 1 -29 5 -55 8 -58 3 -3 2 -24 -3 -46 -5 -22 -11 -54
-13 -72 -3 -18 -5 -32 -6 -32 -1 0 -3 -38 -5 -85 -7 -182 -16 -297 -25 -345
-5 -27 -11 -70 -14 -95 -4 -25 -12 -67 -20 -95 -7 -27 -12 -58 -10 -67 1 -10
-1 -18 -7 -18 -5 0 -7 -11 -5 -25 17 -92 64 -105 134 -37 30 29 92 182 92 225
0 10 6 39 14 65 16 53 39 143 56 217 7 28 19 66 28 85 9 19 17 43 19 53 2 10
10 26 19 34 8 9 23 28 32 42 25 39 33 48 84 103 45 48 50 50 73 40 14 -7 40
-12 58 -12 29 0 35 -5 64 -62 19 -38 32 -77 32 -98 -1 -20 7 -54 17 -75 9 -22
16 -44 15 -50 -1 -5 -4 -55 -7 -111 -2 -55 -10 -116 -18 -135 -12 -30 -21 -70
-31 -142 -3 -19 -41 -165 -91 -347 -9 -30 -17 -62 -18 -70 -2 -8 -10 -31 -19
-50 -8 -19 -18 -52 -22 -72 -4 -21 -10 -38 -14 -38 -4 0 -8 -15 -9 -32 -2 -18
-13 -56 -26 -85 -14 -28 -22 -54 -19 -57 3 -2 -6 -20 -19 -38 -14 -18 -23 -41
-21 -50 3 -10 0 -18 -6 -18 -7 0 -9 -12 -6 -32 7 -40 5 -38 55 -49 50 -11 65
1 105 85 27 58 61 97 190 216 59 55 149 107 202 116 15 3 33 10 40 16 7 6 13
7 13 3 0 -4 6 -3 13 3 27 22 78 25 113 6 65 -35 79 -108 44 -229 -12 -39 -22
-77 -23 -85 -2 -16 -16 -34 -64 -85 -18 -19 -33 -38 -33 -43 0 -15 -91 -102
-106 -102 -8 0 -14 -4 -14 -9 0 -4 -20 -21 -45 -37 -25 -15 -45 -32 -45 -36 0
-4 -9 -8 -20 -8 -11 0 -20 -5 -20 -10 0 -6 -12 -16 -27 -22 -16 -7 -41 -23
-56 -35 -16 -13 -33 -21 -38 -17 -5 3 -9 0 -9 -5 0 -6 -4 -11 -9 -11 -5 0 -36
-25 -67 -55 -32 -30 -61 -55 -66 -55 -13 0 -140 -92 -145 -106 -3 -8 -11 -14
-19 -14 -21 0 -203 -185 -270 -274 -73 -97 -142 -198 -143 -209 -1 -9 -38 -62
-63 -90 -9 -11 -22 -32 -28 -48 -7 -16 -16 -29 -20 -29 -19 0 -105 -222 -120
-312 -5 -26 -13 -55 -18 -65 -10 -19 -12 -25 -12 -46 0 -13 -38 -14 -119 -2
-25 4 -120 8 -211 10 l-165 2 5 34 c14 107 -1 158 -67 232 l-55 62 -71 -3
c-117 -5 -162 -43 -237 -200 l-50 -103 -48 6 c-85 12 -101 15 -124 24 -22 8
-146 14 -285 14 -35 0 -63 3 -63 7 0 7 34 89 65 155 8 17 16 46 18 65 4 32 19
87 54 198 7 23 13 51 13 62 0 10 4 21 9 24 5 4 12 25 16 49 7 47 31 138 47
177 6 14 12 36 14 50 4 23 17 100 28 160 2 14 14 70 25 125 12 55 24 114 27
130 2 17 9 50 14 75 5 25 12 70 16 100 3 30 12 78 18 105 7 28 14 95 15 150 1
55 4 116 7 135 3 19 7 112 9 205 2 94 7 208 11 255 3 46 7 157 9 245 1 88 5
167 9 175 3 8 11 69 16 135 15 179 18 206 31 251 20 74 106 152 153 138 28 -8
67 -45 60 -56 -3 -4 1 -11 9 -14 7 -2 14 -10 15 -17 1 -7 6 -39 11 -72 6 -33
10 -96 10 -140 0 -44 0 -102 1 -130 0 -27 2 -140 4 -250 3 -197 11 -260 37
-287 14 -15 59 -12 59 4 0 5 10 8 23 6 38 -5 55 20 84 127 5 17 8 49 8 72 0
24 3 43 6 43 6 0 17 52 26 119 2 19 17 74 34 122 17 49 27 94 24 99 -3 6 -2
25 4 43 5 17 15 64 21 102 14 92 50 237 62 252 5 6 11 24 14 39 7 38 55 124
77 138 23 15 91 -23 95 -53 2 -12 7 -21 12 -21 26 0 43 -223 22 -290 -9 -30
-25 -164 -24 -210 0 -8 -4 -31 -9 -51 -12 -48 -39 -229 -45 -302 -2 -31 -9
-68 -13 -80 -7 -17 -4 -30 10 -48 10 -13 19 -33 19 -44 0 -30 49 -46 84 -28
14 7 26 18 26 24 0 6 14 31 30 56 17 24 30 52 30 63 0 10 5 31 10 46 6 15 20
63 31 108 11 45 26 104 34 131 12 43 22 90 38 190 2 12 11 41 19 65 14 40 40
126 43 140 0 3 3 10 6 15 4 6 9 23 13 40 14 56 91 200 126 232 36 35 39 36 65
27z"/>
<path d="M2048 700 c-2 -5 -12 -11 -23 -13 -11 -1 -39 -16 -62 -32 -48 -34
-65 -76 -61 -152 2 -42 6 -49 45 -76 47 -33 61 -38 112 -38 43 1 64 7 128 39
56 28 93 79 93 128 0 36 -60 105 -111 128 -42 20 -116 29 -121 16z m92 -130
c0 -14 -51 -50 -71 -50 -44 0 -31 57 15 62 36 4 56 -1 56 -12z"/>
</g>
</svg>
