<?xml version="1.0" standalone="no"?>
<!DOCTYPE svg PUBLIC "-//W3C//DTD SVG 20010904//EN"
 "http://www.w3.org/TR/2001/REC-SVG-20010904/DTD/svg10.dtd">
<svg version="1.0" xmlns="http://www.w3.org/2000/svg"
 width="493.000000pt" height="485.000000pt" viewBox="0 0 493.000000 485.000000"
 preserveAspectRatio="xMidYMid meet">
<metadata>
Created by potrace 1.16, written by Peter Selinger 2001-2019
</metadata>
<g transform="translate(0.000000,485.000000) scale(0.100000,-0.100000)"
fill="#000000" stroke="none">
<path d="M3256 4802 c-3 -3 -29 -13 -57 -23 -58 -21 -85 -42 -95 -73 -4 -11
-15 -33 -25 -48 -11 -14 -19 -33 -19 -42 0 -9 -4 -16 -10 -16 -17 0 -99 -180
-100 -219 0 -7 -10 -30 -22 -50 -19 -30 -55 -119 -73 -181 -2 -8 -16 -46 -30
-85 -14 -38 -43 -127 -63 -197 l-36 -128 -33 0 c-43 0 -72 -12 -113 -49 -41
-36 -51 -38 -75 -11 -10 11 -24 20 -31 20 -7 0 -20 7 -28 16 -19 18 -60 12
-119 -18 -42 -21 -137 -110 -137 -127 0 -30 -21 -6 -67 77 -23 43 -102 109
-144 121 -66 20 -117 6 -167 -45 -33 -34 -44 -41 -48 -29 -4 8 -2 28 4 43 17
47 13 142 -9 236 -12 50 -26 97 -32 104 -5 6 -7 12 -4 12 7 0 -27 128 -47 180
-8 19 -14 38 -14 43 -1 27 -17 76 -37 111 -85 153 -104 197 -94 222 13 36 -17
87 -46 77 -11 -3 -48 -9 -82 -12 -65 -7 -105 -31 -101 -60 2 -11 -7 -17 -32
-21 -29 -4 -35 -10 -41 -37 -6 -29 -1 -38 45 -85 28 -29 61 -67 74 -83 30 -38
95 -165 85 -165 -5 0 -3 -4 3 -8 37 -25 133 -265 140 -351 2 -25 8 -70 12 -99
l9 -53 -37 -19 c-20 -10 -53 -35 -73 -55 l-36 -36 -35 31 c-19 18 -40 29 -45
26 -5 -3 -11 -2 -13 4 -4 11 -85 17 -114 7 -23 -8 -64 -100 -64 -144 0 -23 -2
-24 -45 -18 -24 4 -66 2 -92 -4 -26 -6 -64 -12 -83 -13 -37 -3 -59 -22 -60
-50 0 -10 -4 -18 -9 -18 -9 0 -19 -36 -28 -106 -4 -36 -1 -44 29 -75 30 -31
108 -148 108 -163 0 -3 21 -49 46 -102 60 -126 108 -275 120 -369 2 -16 6 -40
9 -52 21 -87 24 -186 12 -383 -7 -116 -12 -170 -23 -260 -2 -19 -6 -53 -8 -75
-2 -22 -9 -69 -15 -105 -6 -36 -13 -83 -16 -105 -11 -80 -31 -168 -86 -390
-11 -44 -22 -88 -24 -99 -3 -10 -11 -37 -19 -60 -8 -22 -24 -75 -35 -116 -41
-147 -133 -378 -161 -402 -24 -20 -27 -89 -6 -108 10 -8 12 -19 7 -33 -15 -43
10 -85 89 -148 25 -20 67 -46 95 -58 27 -12 57 -28 65 -36 9 -8 30 -17 46 -19
45 -7 67 -13 108 -30 20 -8 73 -20 117 -26 44 -5 84 -12 90 -15 5 -4 30 -8 56
-10 27 -2 93 -9 148 -14 92 -10 482 -7 547 4 16 3 38 7 50 9 13 2 46 7 75 10
29 4 89 14 135 22 46 8 119 22 163 29 74 14 139 31 270 72 28 8 66 18 85 20
19 3 67 20 107 39 40 19 77 34 83 34 5 0 10 5 10 10 0 6 6 10 13 10 17 0 152
92 193 131 17 16 33 26 37 23 4 -4 7 -2 7 4 0 7 14 12 30 12 20 0 30 5 30 15
0 8 5 15 10 15 6 0 10 13 10 28 0 30 -20 82 -32 82 -5 0 -8 6 -8 13 0 7 -8 22
-19 33 -10 11 -28 46 -40 78 -23 63 -50 118 -60 126 -4 3 -18 41 -31 85 -12
44 -41 116 -63 160 -27 53 -52 127 -74 220 -19 77 -38 156 -43 175 -49 183
-68 706 -29 782 5 9 8 21 7 25 -2 7 2 47 19 213 3 30 14 74 24 97 10 23 19 47
19 52 0 19 83 185 115 231 18 25 47 67 66 95 19 27 51 68 72 90 35 37 38 43
32 85 -4 33 -1 52 11 69 20 28 24 143 6 149 -7 2 -12 13 -12 25 0 28 -56 75
-98 83 -18 4 -59 1 -89 -5 -74 -15 -70 -16 -77 22 -12 60 -105 137 -166 137
-12 0 -19 4 -16 9 3 5 8 26 11 47 4 22 9 48 12 59 3 11 12 47 18 80 7 33 18
74 23 90 6 17 23 66 38 110 45 136 57 170 63 175 3 3 7 12 9 20 9 38 154 310
182 340 32 34 44 57 56 105 5 19 0 26 -23 38 -30 16 -108 28 -117 19z m-25
-138 c-11 -15 -21 -31 -21 -37 0 -6 -8 -20 -19 -31 -10 -12 -24 -43 -30 -70
-7 -27 -27 -81 -45 -120 -18 -39 -37 -86 -40 -103 -4 -18 -12 -35 -17 -38 -5
-4 -9 -16 -9 -28 0 -12 -12 -42 -25 -66 -27 -46 -62 -145 -71 -196 -2 -16 -9
-41 -14 -55 -17 -48 -40 -138 -40 -159 0 -12 -9 -30 -19 -40 -11 -11 -21 -30
-23 -42 -3 -23 -3 -23 -21 4 -15 24 -16 30 -3 69 8 23 13 45 11 48 -9 14 118
407 175 545 75 181 141 305 162 305 5 0 6 5 3 10 -3 6 3 10 13 10 11 0 25 7
32 15 22 27 23 7 1 -21z m-1786 -119 c43 -55 103 -174 120 -238 7 -28 17 -61
20 -72 10 -30 -56 74 -77 122 -20 46 -89 152 -127 195 -13 14 -23 30 -23 35 1
13 46 21 51 9 2 -6 18 -29 36 -51z m524 -885 c24 0 111 -119 111 -152 0 -10
-7 -30 -16 -44 -14 -21 -22 -24 -48 -18 -17 4 -44 6 -60 5 -16 -1 -36 5 -45
13 -9 8 -28 19 -42 25 -34 13 -39 35 -20 95 12 38 24 53 51 68 19 10 41 16 48
13 8 -3 17 -5 21 -5z m-276 -42 c8 -13 20 -48 27 -78 7 -30 16 -63 21 -72 6
-12 -2 -25 -32 -53 -39 -35 -44 -36 -93 -31 -28 3 -59 6 -68 6 -22 2 -27 29
-11 60 8 14 13 49 11 78 -1 44 2 56 25 80 37 38 99 43 120 10z m1057 -8 c10
-14 20 -48 23 -77 5 -42 2 -56 -14 -77 -25 -31 -52 -33 -70 -5 -15 22 -67 33
-86 17 -19 -16 -16 -51 7 -76 24 -25 19 -23 84 -28 53 -3 106 19 106 43 0 20
10 16 32 -12 11 -14 25 -25 31 -25 7 0 23 -16 37 -35 18 -25 33 -35 53 -35 40
0 106 37 125 70 23 40 146 78 229 71 19 -2 45 -60 39 -85 -3 -11 -22 -38 -41
-60 -33 -34 -40 -38 -72 -33 -45 8 -53 19 -53 78 0 38 -4 48 -20 52 -32 8 -67
-35 -37 -46 9 -4 9 -7 0 -14 -12 -9 -12 -57 0 -70 4 -3 7 -14 7 -23 0 -20 80
-60 121 -60 l30 0 -22 -31 c-12 -17 -24 -26 -28 -21 -3 5 -26 13 -51 17 -25 4
-52 13 -60 20 -8 7 -31 16 -50 20 -39 7 -255 76 -337 107 -29 11 -61 17 -72
13 -11 -3 -29 -1 -40 5 -11 5 -47 12 -81 14 -33 2 -63 6 -67 9 -3 4 10 13 30
22 57 23 101 95 65 107 -7 3 -8 9 -3 18 5 8 10 28 12 44 4 38 66 103 102 109
42 7 53 3 71 -23z m-332 -1 c32 -11 39 -23 45 -74 5 -42 24 -75 50 -84 19 -7
15 -11 -34 -35 -67 -31 -69 -31 -113 -5 -25 15 -36 28 -36 45 0 24 -11 29 -52
25 -23 -3 -23 2 3 42 16 23 93 95 105 97 1 0 15 -5 32 -11z m-987 -109 c49
-74 54 -93 38 -135 -23 -57 -49 -85 -72 -80 -12 3 -35 7 -52 8 -16 2 -39 8
-50 15 -16 9 -18 14 -9 29 8 12 10 60 6 140 -4 113 -3 121 14 125 31 7 80 -33
125 -102z m1629 50 c18 -33 -4 -123 -36 -151 -35 -30 -53 -30 -84 -1 -55 52
-75 67 -88 64 -20 -5 1 28 37 58 17 14 41 34 54 46 13 12 29 23 37 26 19 6 68
-19 80 -42z m-1911 -119 c10 -6 26 -30 36 -55 16 -38 25 -47 50 -52 28 -5 32
-10 32 -37 1 -43 -29 -73 -91 -93 -28 -9 -58 -23 -67 -31 -15 -12 -17 -11 -23
12 -4 14 -11 25 -17 25 -5 0 -21 25 -35 55 -14 30 -31 55 -38 55 -8 0 -12 18
-13 51 0 48 1 52 31 65 36 15 110 18 135 5z m705 -23 c4 3 11 0 15 -7 5 -7 40
-17 77 -22 97 -13 105 -12 127 10 20 19 20 19 41 -11 14 -21 31 -32 51 -34 31
-3 65 19 65 43 0 7 5 13 10 13 6 0 10 -5 10 -11 0 -5 5 -7 10 -4 6 3 10 2 10
-3 0 -5 16 -17 36 -27 20 -9 33 -19 31 -22 -3 -3 -27 -7 -53 -9 -26 -3 -50 -6
-54 -9 -3 -2 -23 0 -43 5 -20 4 -37 5 -37 1 0 -9 3 -8 -105 -15 -44 -3 -107
-8 -140 -11 -33 -3 -87 -8 -120 -10 -61 -4 -77 -7 -130 -30 -16 -7 -44 -16
-62 -20 -17 -3 -48 -15 -69 -26 -21 -10 -49 -19 -61 -19 -13 0 -31 -4 -41 -9
-54 -28 -111 -51 -123 -51 -8 0 -30 -13 -49 -30 -19 -16 -45 -29 -57 -30 -12
0 -25 -4 -28 -10 -10 -16 -21 -12 -33 14 -9 21 -8 25 11 30 32 8 137 66 137
76 0 8 59 24 75 20 52 -14 106 19 142 88 25 49 32 56 40 43 14 -22 113 -27
151 -7 15 8 50 37 77 64 48 49 51 50 66 32 9 -11 20 -16 23 -12z m768 -156 c8
-6 26 -11 39 -10 24 1 127 -27 224 -62 28 -10 64 -21 80 -25 17 -4 45 -13 63
-21 72 -32 99 -42 135 -54 35 -11 47 -24 30 -32 -21 -9 -100 -156 -128 -238
-2 -7 -16 -42 -23 -60 -3 -8 -13 -40 -22 -70 -10 -35 -21 -54 -29 -52 -7 1
-25 -5 -40 -15 -33 -21 -172 -29 -357 -18 -77 4 -103 12 -201 56 -23 10 -47
19 -52 19 -27 0 -122 51 -154 84 -46 45 -69 46 -96 2 -23 -36 -107 -116 -122
-116 -6 0 -19 -8 -30 -19 -11 -10 -50 -31 -87 -46 -37 -15 -80 -34 -97 -42
-16 -8 -37 -16 -45 -18 -8 -1 -46 -12 -85 -24 -91 -28 -241 -36 -249 -14 -5
12 -15 14 -46 9 -38 -6 -40 -5 -41 21 -1 42 -8 94 -19 133 -5 19 -10 49 -10
65 0 17 -18 84 -40 149 -22 66 -38 121 -36 124 3 2 28 19 58 37 29 19 58 39
65 45 7 5 19 10 27 10 8 0 16 4 18 8 4 10 106 52 126 52 9 0 35 9 58 20 23 12
51 22 61 24 38 8 108 28 124 36 16 8 163 23 344 36 44 3 104 7 133 9 30 2 55
5 58 7 2 3 82 4 178 4 122 -1 177 -5 188 -14z m-517 -645 c7 -37 -10 -117 -25
-117 -5 0 -25 16 -44 35 -20 19 -43 35 -53 35 -12 0 -5 8 19 25 20 14 40 25
43 25 4 0 13 7 21 15 23 23 32 18 39 -18z m198 9 c23 -18 22 -22 -15 -70 -17
-22 -33 -43 -35 -45 -8 -11 -53 45 -47 59 3 8 7 21 8 29 2 7 16 19 32 26 37
17 36 17 57 1z m110 -48 c12 -7 31 -13 41 -15 11 -2 22 -6 25 -9 10 -10 -53
-104 -71 -104 -4 0 -8 23 -8 52 0 34 -6 58 -17 70 -19 21 -3 24 30 6z m-460
-75 c10 -89 -29 -110 -70 -38 -26 47 -28 55 -9 55 7 0 19 7 26 15 26 31 47 18
53 -32z m1038 33 c-6 -7 -9 -20 -6 -28 7 -17 -49 -73 -64 -64 -5 4 -23 26 -40
51 l-30 44 52 4 c29 2 63 4 76 5 19 2 21 -1 12 -12z m-341 -20 c0 -44 -12 -66
-34 -66 -22 0 -38 21 -51 67 -6 21 -3 22 39 21 40 0 46 -3 46 -22z m130 -10
c0 -36 -14 -49 -32 -29 -25 29 -29 51 -10 56 27 6 42 -4 42 -27z m-417 -113
c15 -15 77 -27 77 -15 0 5 11 14 24 21 13 7 29 25 36 40 9 18 14 22 17 11 19
-63 58 -91 119 -86 28 3 40 9 46 25 7 21 8 21 35 4 16 -10 30 -20 33 -23 15
-15 41 -7 63 20 l25 30 13 -29 c7 -16 27 -36 44 -44 27 -13 33 -13 54 2 l24
16 -7 -35 c-23 -109 -27 -243 -11 -410 4 -41 7 -88 6 -104 -1 -17 3 -53 8 -80
5 -28 14 -85 21 -126 6 -41 18 -93 25 -115 8 -22 30 -107 50 -190 24 -98 48
-171 70 -210 18 -33 44 -97 58 -142 14 -45 44 -119 66 -164 23 -45 41 -88 41
-96 0 -7 4 -13 9 -13 20 0 17 -36 -5 -60 -13 -14 -38 -41 -56 -60 -57 -62
-227 -155 -338 -186 -92 -25 -164 -44 -190 -49 -14 -3 -36 -10 -50 -15 -14 -4
-43 -12 -65 -16 -22 -4 -44 -9 -50 -11 -10 -3 -127 -22 -270 -43 -195 -29
-318 -37 -494 -34 -101 2 -187 7 -192 10 -5 3 -22 7 -37 9 -33 5 -152 22 -207
30 -22 4 -65 13 -95 21 -30 9 -71 19 -90 24 -31 8 -70 26 -147 68 -33 18 -103
92 -114 120 -5 13 -7 35 -5 48 4 21 45 131 77 209 12 29 36 97 70 200 44 136
50 153 54 172 3 10 16 63 30 118 14 55 27 113 30 129 3 16 8 33 10 36 3 4 7
25 10 46 3 22 8 46 11 54 8 21 34 166 40 215 2 22 13 101 24 175 11 74 20 176
20 225 0 128 8 167 31 160 21 -7 66 -8 89 -2 56 15 68 21 82 45 l16 27 7 -25
c7 -27 36 -53 73 -64 19 -6 30 0 62 33 l38 40 41 -22 40 -22 28 21 c25 18 45
47 56 79 2 5 18 -4 35 -21 23 -23 37 -30 56 -27 24 5 66 49 79 85 5 14 10 15
44 3 46 -16 69 -6 87 37 l13 30 29 -31 c38 -40 70 -40 114 2 l35 32 8 -45 c4
-25 13 -50 20 -57z m-559 81 c4 -9 0 -27 -9 -40 -8 -13 -15 -30 -15 -38 0 -43
-64 -13 -75 35 -6 24 -3 28 37 42 57 19 55 19 62 1z m-171 -66 c-9 -48 -63
-103 -63 -64 0 7 -9 25 -20 39 -26 33 -25 37 8 37 15 0 34 5 42 10 29 19 40
12 33 -22z m-211 2 c41 0 34 -27 -15 -53 -42 -22 -59 -15 -62 25 -2 26 13 40
33 33 8 -3 27 -5 44 -5z"/>
</g>
</svg>
