<?xml version="1.0" standalone="no"?>
<!DOCTYPE svg PUBLIC "-//W3C//DTD SVG 20010904//EN"
 "http://www.w3.org/TR/2001/REC-SVG-20010904/DTD/svg10.dtd">
<svg version="1.0" xmlns="http://www.w3.org/2000/svg"
 width="533.000000pt" height="425.000000pt" viewBox="0 0 533.000000 425.000000"
 preserveAspectRatio="xMidYMid meet">
<metadata>
Created by potrace 1.16, written by Peter Selinger 2001-2019
</metadata>
<g transform="translate(0.000000,425.000000) scale(0.100000,-0.100000)"
fill="#000000" stroke="none">
<path d="M3035 4002 c-2 -3 -188 -6 -412 -7 -435 -3 -523 -11 -713 -64 -41
-12 -90 -22 -107 -24 -18 -1 -33 -5 -33 -9 0 -5 -5 -8 -12 -8 -19 0 -195 -84
-259 -123 -75 -46 -142 -120 -154 -170 -4 -14 -17 -37 -29 -49 -16 -16 -23
-36 -24 -68 -1 -25 -6 -97 -11 -160 -5 -63 -9 -128 -9 -145 0 -36 -19 -123
-32 -147 -6 -10 -10 -24 -10 -31 0 -8 -11 -30 -24 -49 -13 -19 -33 -66 -45
-104 -13 -38 -25 -76 -28 -84 -4 -8 -7 -17 -8 -20 -1 -3 -6 -16 -12 -30 -6
-14 -13 -42 -17 -64 -4 -21 -19 -64 -32 -95 -14 -31 -25 -57 -25 -58 1 -4 -4
-17 -29 -83 -11 -30 -20 -65 -20 -76 0 -12 -7 -27 -15 -34 -8 -7 -15 -17 -15
-22 0 -5 -9 -28 -20 -51 -11 -23 -23 -55 -26 -72 -7 -42 -24 -95 -40 -128 -8
-16 -14 -35 -14 -43 0 -7 -8 -28 -18 -46 -10 -18 -33 -76 -52 -128 -18 -52
-39 -104 -46 -115 -8 -13 -12 -55 -11 -125 2 -96 4 -108 28 -140 15 -19 24
-41 22 -47 -7 -20 15 -80 65 -178 42 -83 70 -124 129 -192 13 -14 23 -32 23
-39 0 -7 39 -53 88 -101 48 -48 105 -116 127 -150 22 -34 44 -62 49 -63 10 0
71 -65 105 -113 17 -22 53 -47 110 -75 109 -53 121 -56 211 -54 41 1 89 -3
107 -9 29 -9 35 -8 61 19 16 16 39 33 51 37 11 3 21 12 22 18 0 7 21 30 45 51
40 35 46 37 62 24 9 -8 26 -18 37 -21 11 -3 52 -16 90 -30 172 -62 390 -111
550 -123 114 -9 138 -9 205 0 56 7 247 62 265 77 6 4 23 6 38 5 15 -2 27 0 27
4 0 4 18 13 40 20 38 12 42 12 68 -11 15 -13 30 -28 34 -34 5 -7 14 -6 28 3
11 6 29 12 39 12 11 0 22 4 25 9 3 5 15 7 26 4 13 -4 29 2 43 15 22 19 110 62
129 62 11 0 118 63 164 97 17 13 35 23 41 23 5 0 30 21 55 48 24 26 69 70 99
99 48 46 80 78 109 108 65 69 138 171 180 250 9 17 36 62 61 100 25 39 58 102
73 140 16 39 33 81 39 95 6 14 12 30 13 35 2 6 15 44 29 85 23 66 26 88 23
188 -1 62 -6 116 -10 118 -4 3 -8 29 -8 59 0 30 -4 64 -9 77 -5 13 -12 63 -15
111 -4 49 -17 119 -30 160 -13 39 -27 90 -31 112 -3 22 -8 52 -10 66 -2 14 -9
39 -15 55 -7 16 -16 63 -20 104 -15 126 -37 253 -54 303 -8 27 -15 52 -15 55
1 4 0 9 -1 12 -1 3 -7 32 -14 65 -10 52 -9 66 7 110 18 50 23 123 11 180 -3
17 -7 40 -9 53 -1 13 -7 28 -13 34 -6 6 -8 25 -5 43 9 57 -32 194 -74 246 -40
50 -119 119 -163 143 -43 23 -56 25 -156 24 -60 -1 -147 4 -194 11 -47 6 -116
17 -155 22 -38 6 -133 13 -210 15 -77 3 -184 6 -238 8 -53 1 -99 1 -102 -2z
m-345 -101 c425 2 771 -3 825 -11 73 -11 196 -23 375 -36 95 -6 187 -38 204
-69 6 -10 21 -28 34 -38 13 -11 28 -29 33 -41 5 -11 19 -34 31 -49 19 -24 23
-40 22 -105 0 -123 -50 -196 -177 -256 -95 -46 -150 -70 -162 -71 -5 0 -15 -4
-21 -7 -12 -8 -66 -22 -159 -43 -126 -28 -163 -34 -245 -40 -47 -4 -92 -11
-100 -15 -25 -12 -331 -12 -346 1 -11 9 -18 8 -29 -1 -25 -21 -730 5 -820 31
-22 6 -49 12 -60 13 -11 2 -29 6 -40 9 -11 3 -36 9 -55 12 -126 22 -221 50
-280 83 -36 20 -77 42 -91 47 -36 14 -115 76 -128 100 -6 11 -20 31 -31 45
-42 54 -29 127 32 181 35 31 161 109 175 109 5 0 27 9 49 19 21 11 42 17 46
14 5 -2 8 -1 8 4 0 10 71 33 99 33 11 0 30 4 43 9 36 15 197 50 258 57 132 15
239 21 295 18 33 -2 130 -4 215 -3z m-1192 -641 c35 -23 71 -44 80 -47 9 -3
46 -23 82 -44 59 -35 158 -66 235 -74 32 -4 66 -11 185 -43 103 -27 107 -27
480 -38 107 -4 200 -10 206 -15 6 -5 26 -4 45 1 20 6 62 7 95 4 113 -10 370
-5 469 9 55 8 109 14 120 14 74 1 310 59 400 98 17 7 41 16 55 20 85 24 237
113 267 155 8 11 18 20 22 20 16 0 8 -49 -10 -66 -11 -9 -19 -23 -19 -30 0
-13 -17 -38 -52 -76 -10 -10 -18 -22 -18 -26 0 -4 -27 -27 -60 -50 -33 -24
-60 -47 -60 -52 0 -6 -6 -10 -13 -10 -7 0 -30 -12 -52 -27 -37 -25 -64 -33
-280 -78 -66 -13 -118 -20 -225 -29 -25 -3 -83 -9 -130 -15 -179 -24 -292 -31
-480 -30 -265 1 -365 5 -430 17 -30 6 -89 15 -130 21 -41 5 -86 12 -100 15
-14 2 -52 7 -85 11 -32 4 -86 15 -120 25 -33 10 -80 21 -104 25 -53 9 -159 44
-220 74 -25 11 -51 21 -58 21 -7 0 -13 5 -13 12 0 6 -3 8 -6 5 -4 -4 -24 7
-44 23 -21 17 -41 30 -44 30 -3 0 -16 9 -28 20 -13 10 -32 26 -43 34 -16 11
-21 30 -25 89 -7 104 -3 117 23 79 12 -17 50 -49 85 -72z m-68 -251 c11 -12
118 -68 160 -84 115 -43 217 -75 237 -75 12 0 27 -8 32 -17 6 -10 11 -12 11
-6 0 9 7 10 27 2 15 -5 73 -16 129 -24 56 -8 112 -19 125 -24 13 -5 52 -12 87
-16 35 -4 62 -10 60 -14 -23 -49 -105 -203 -120 -223 -10 -15 -27 -51 -37 -80
-22 -62 -64 -144 -90 -173 -10 -11 -28 -40 -40 -65 -12 -25 -27 -54 -34 -64
-7 -11 -28 -45 -47 -75 -38 -61 -56 -94 -113 -200 -20 -39 -42 -71 -47 -71 -6
0 -10 -6 -10 -14 0 -7 -16 -34 -35 -59 -19 -25 -35 -52 -35 -59 0 -7 -11 -30
-25 -50 -14 -20 -25 -41 -25 -46 0 -5 -11 -19 -24 -31 l-24 -23 -46 45 c-30
29 -102 74 -204 127 -86 46 -170 91 -187 100 -33 18 -141 55 -192 65 -31 6
-42 23 -26 39 4 3 8 12 9 19 3 24 84 260 93 271 10 13 53 143 55 165 1 9 7 26
14 39 8 13 15 31 17 41 2 10 12 38 23 62 27 58 92 253 92 273 0 8 17 53 38 98
21 46 47 111 58 144 l18 62 36 -27 c19 -14 37 -28 40 -32z m2811 39 c2 -24 4
-33 21 -88 9 -30 24 -95 33 -145 9 -49 22 -124 30 -165 8 -41 16 -84 18 -95 1
-11 5 -25 9 -30 3 -6 12 -39 18 -75 7 -36 23 -105 36 -155 13 -49 25 -126 28
-170 2 -44 7 -87 10 -96 10 -24 -11 -70 -28 -63 -20 8 -161 -24 -211 -46 -22
-11 -52 -22 -67 -25 -15 -4 -29 -13 -32 -21 -3 -8 -12 -14 -20 -14 -19 0 -86
-38 -118 -65 -13 -12 -46 -36 -73 -54 -28 -19 -60 -43 -72 -54 -12 -10 -26
-16 -31 -13 -6 3 -24 41 -42 84 -17 42 -40 95 -49 117 -10 22 -22 51 -26 65
-4 14 -13 32 -19 40 -7 8 -32 56 -55 105 -93 195 -176 354 -247 475 -28 47
-55 99 -61 115 -6 17 -14 37 -17 46 -9 21 47 36 179 49 55 5 114 11 130 14 17
3 68 12 115 20 209 37 314 83 439 189 18 15 44 32 57 37 13 5 24 14 24 20 0
15 20 12 21 -2z m-1759 -314 c32 -6 36 -9 28 -28 -11 -29 -57 -129 -123 -266
-30 -63 -62 -131 -71 -150 -9 -19 -34 -69 -56 -110 -21 -41 -46 -93 -56 -115
-26 -65 -265 -537 -275 -545 -3 -3 -14 -23 -25 -45 -10 -22 -37 -58 -59 -80
-23 -22 -46 -48 -52 -59 -9 -16 -16 -10 -61 47 -50 62 -62 87 -43 87 5 0 11
10 15 23 3 13 17 36 31 51 14 15 25 32 26 39 0 7 9 26 20 42 10 17 28 48 40
70 11 22 29 56 41 75 11 19 36 64 56 100 19 36 53 94 74 129 21 34 38 65 38
67 0 2 18 33 40 69 22 36 40 69 40 74 0 4 16 29 35 54 19 25 35 48 35 51 0 9
90 191 109 221 11 17 34 57 51 90 67 129 58 122 142 109z m487 -12 c9 -1 10
-6 4 -14 -12 -16 -11 -37 2 -46 6 -4 39 -65 74 -137 90 -183 95 -196 146 -330
52 -135 84 -207 98 -216 5 -3 8 -10 8 -15 -3 -16 31 -109 44 -124 14 -16 42
-86 99 -251 18 -52 38 -105 45 -117 22 -41 101 -20 101 26 0 9 -7 30 -15 46
-8 15 -15 34 -15 41 0 7 -7 18 -15 25 -8 7 -15 21 -15 31 0 11 -4 27 -9 37
-20 37 -50 111 -57 138 -6 26 -44 109 -71 159 -7 11 -21 41 -32 68 -12 26 -30
66 -40 90 -30 66 -60 137 -61 142 -1 14 -42 115 -60 150 -11 21 -20 45 -20 52
0 7 -4 13 -10 13 -5 0 -10 9 -10 19 0 11 -4 22 -8 25 -5 3 -21 38 -37 78 -16
40 -33 79 -39 86 -13 18 9 32 50 32 29 0 34 -6 89 -112 32 -62 82 -150 111
-196 30 -45 54 -86 54 -91 0 -8 25 -65 40 -91 18 -31 70 -139 70 -146 0 -4 29
-66 64 -138 35 -72 66 -142 70 -156 4 -14 15 -45 26 -70 19 -46 32 -79 35 -92
2 -5 4 -11 5 -15 1 -5 2 -11 1 -15 0 -5 4 -8 11 -8 11 0 -3 -17 -49 -62 -13
-12 -23 -27 -23 -34 0 -7 -4 -14 -9 -16 -16 -5 -161 -189 -161 -203 0 -8 -8
-22 -18 -32 -22 -22 -80 -112 -110 -173 -13 -25 -36 -65 -51 -90 -76 -124
-104 -194 -128 -320 -2 -13 -9 -30 -15 -37 -7 -9 -7 -17 2 -28 21 -25 4 -43
-47 -51 -26 -4 -59 -15 -73 -25 -28 -21 -133 -39 -232 -39 -82 0 -468 66 -500
86 -12 8 11 34 28 34 8 0 19 11 24 25 5 14 17 28 25 31 8 4 15 12 15 20 0 8 4
14 9 14 9 0 30 33 86 135 16 28 36 61 47 74 10 13 18 30 18 37 0 8 4 14 9 14
5 0 11 10 14 22 3 13 14 48 26 78 38 104 83 295 87 375 3 44 6 104 8 133 1 29
0 54 -2 57 -3 2 -6 21 -8 42 -12 167 -16 208 -23 227 -5 11 -10 26 -11 31 -1
6 -6 20 -11 33 -5 13 -12 35 -15 50 -8 30 -66 143 -86 167 -7 9 -36 39 -63 68
l-51 52 15 40 c8 22 20 43 27 48 7 4 15 20 19 36 3 16 13 35 21 42 8 6 14 18
14 25 0 15 65 143 81 159 5 5 9 15 9 21 0 7 4 23 9 36 9 23 10 23 177 22 93
-1 175 -2 183 -2z m-580 -558 c29 -14 81 -77 81 -97 0 -5 14 -29 31 -54 18
-25 34 -60 36 -77 2 -17 10 -49 18 -71 8 -22 17 -87 20 -145 4 -58 8 -132 10
-165 2 -33 0 -80 -5 -105 -4 -25 -11 -65 -14 -90 -6 -56 -12 -81 -30 -139 -8
-25 -18 -62 -21 -81 -4 -19 -11 -39 -14 -45 -4 -5 -15 -31 -25 -57 -10 -27
-22 -48 -27 -48 -5 0 -9 -6 -9 -14 0 -7 -16 -33 -35 -58 -19 -25 -31 -48 -28
-52 4 -3 1 -6 -5 -6 -6 0 -21 -20 -33 -45 -12 -25 -25 -45 -29 -45 -3 0 -13
-13 -23 -29 -10 -17 -32 -34 -52 -41 -25 -8 -37 -20 -47 -46 -14 -39 -16 -39
-63 -20 -40 17 -42 24 -15 59 11 14 20 28 20 31 0 4 9 17 20 29 11 12 35 46
52 77 17 30 55 90 84 133 30 43 54 85 54 93 0 8 7 31 15 52 9 20 25 80 37 132
11 52 24 102 28 110 19 35 22 266 5 385 -9 63 -13 120 -10 125 3 6 2 10 -3 10
-5 0 -9 6 -9 13 -1 46 -50 160 -78 180 -14 11 -13 16 5 49 11 21 20 45 20 53
0 19 0 19 39 -1z m-79 -297 c12 -37 19 -71 17 -75 -3 -4 1 -43 8 -87 16 -100
13 -198 -11 -330 -8 -44 -27 -121 -34 -140 -5 -11 -14 -42 -20 -70 -6 -27 -15
-54 -20 -60 -4 -5 -20 -32 -35 -60 -15 -27 -36 -59 -46 -71 -11 -11 -19 -25
-19 -30 0 -5 -22 -41 -50 -79 -48 -66 -50 -68 -50 -38 0 17 -7 36 -15 43 -8 7
-15 20 -15 29 -1 9 -9 30 -18 48 -28 52 -59 115 -78 158 -9 22 -34 61 -55 86
l-38 46 23 11 c40 18 180 260 314 542 47 100 75 155 85 168 14 18 33 -11 57
-91z m2145 -27 c-2 -4 -30 -13 -62 -20 -32 -7 -69 -19 -83 -25 -14 -7 -38 -18
-55 -25 -60 -25 -130 -63 -140 -75 -6 -7 -20 -15 -33 -19 -13 -4 -57 -41 -99
-82 -42 -41 -78 -74 -82 -74 -3 0 -26 -27 -49 -60 -24 -33 -48 -60 -53 -60 -5
0 -9 -7 -9 -15 0 -9 -7 -18 -15 -21 -8 -4 -15 -11 -15 -16 0 -6 -11 -19 -25
-30 -14 -11 -25 -24 -25 -30 0 -5 -16 -31 -36 -56 -19 -26 -60 -85 -90 -132
-30 -47 -60 -92 -67 -101 -49 -64 -128 -239 -145 -323 -7 -36 -11 -40 -52 -51
-25 -7 -53 -15 -62 -20 -10 -4 -18 -5 -18 -2 0 37 35 188 49 211 11 17 34 60
52 96 18 36 43 79 56 96 13 17 37 59 54 93 17 33 34 61 39 61 5 0 11 9 15 19
3 11 19 34 35 53 16 18 39 52 52 76 31 62 223 250 322 316 45 31 93 67 106 81
13 13 27 22 31 19 5 -3 9 0 9 5 0 6 6 11 14 11 7 0 34 11 60 25 26 14 76 35
109 46 34 12 69 25 77 30 17 10 142 10 135 -1z m-3495 -97 c25 -3 50 -9 55
-13 6 -4 28 -13 50 -20 22 -7 60 -24 85 -37 25 -14 88 -47 139 -74 52 -27 106
-60 120 -72 15 -13 40 -29 57 -36 39 -15 214 -182 214 -203 0 -9 7 -18 15 -21
8 -4 24 -25 36 -49 12 -23 39 -63 59 -88 21 -25 59 -85 85 -135 26 -49 51 -95
56 -100 15 -20 31 -179 20 -205 -40 -91 -105 -158 -93 -95 6 34 -65 236 -90
253 -10 8 -30 38 -43 68 -13 30 -29 54 -34 54 -6 0 -11 6 -11 13 0 26 -52 121
-88 161 -104 114 -204 202 -250 219 -19 6 -37 18 -39 24 -3 7 -10 13 -17 13
-6 0 -23 11 -39 24 -15 13 -41 29 -57 36 -17 7 -30 16 -30 21 0 4 -15 15 -34
24 -19 9 -42 25 -52 36 -9 10 -23 19 -29 19 -7 0 -28 14 -46 30 -19 17 -56 45
-84 62 -27 17 -52 33 -53 34 -2 1 2 19 9 39 10 26 17 34 29 29 8 -3 35 -9 60
-11z m3469 -125 c0 -21 -3 -38 -9 -38 -5 0 -12 -17 -16 -37 -4 -21 -9 -42 -13
-48 -3 -5 -6 -16 -7 -23 -2 -8 -10 -22 -20 -33 -9 -10 -14 -19 -11 -19 6 0
-32 -76 -61 -122 -16 -25 -85 -139 -108 -180 -39 -67 -263 -295 -390 -396 -16
-13 -63 -39 -104 -59 -41 -19 -100 -47 -130 -61 -30 -14 -67 -27 -83 -29 -25
-3 -27 -1 -22 25 14 64 30 119 42 142 7 14 13 30 13 35 0 15 32 76 60 115 14
18 32 46 40 61 8 14 23 41 33 58 10 17 47 69 82 116 36 47 65 89 65 94 0 5 10
18 23 28 12 10 36 39 52 65 17 26 36 47 43 48 6 0 12 6 12 14 0 16 172 182
226 216 35 23 72 41 169 86 17 7 46 17 65 22 32 8 35 7 41 -17 4 -14 7 -43 8
-63z m-3536 -81 c28 -29 61 -51 215 -144 21 -12 44 -27 52 -33 58 -40 141 -90
150 -90 5 0 10 -4 10 -10 0 -5 7 -10 16 -10 9 0 33 -17 53 -39 20 -21 65 -69
102 -107 36 -38 76 -92 89 -119 13 -28 29 -54 35 -60 7 -5 18 -26 25 -45 8
-19 24 -48 36 -65 54 -73 94 -203 80 -259 -8 -32 -55 -50 -111 -43 -45 7 -165
63 -165 79 0 4 -6 8 -14 8 -7 0 -26 17 -41 38 -16 20 -49 57 -75 82 -25 25
-69 74 -97 110 -28 36 -72 83 -98 105 -25 22 -55 56 -67 75 -12 19 -31 46 -44
60 -47 52 -156 262 -168 326 -2 11 -12 42 -23 69 -18 51 -20 105 -2 105 6 0
25 -15 42 -33z"/>
</g>
</svg>
