<?xml version="1.0" standalone="no"?>
<!DOCTYPE svg PUBLIC "-//W3C//DTD SVG 20010904//EN"
 "http://www.w3.org/TR/2001/REC-SVG-20010904/DTD/svg10.dtd">
<svg version="1.0" xmlns="http://www.w3.org/2000/svg"
 width="515.000000pt" height="483.000000pt" viewBox="0 0 515.000000 483.000000"
 preserveAspectRatio="xMidYMid meet">
<metadata>
Created by potrace 1.16, written by Peter Selinger 2001-2019
</metadata>
<g transform="translate(0.000000,483.000000) scale(0.100000,-0.100000)"
fill="#000000" stroke="none">
<path d="M2368 4764 c-2 -1 -48 -5 -103 -8 -198 -13 -221 -16 -305 -42 -84
-26 -211 -60 -260 -69 -96 -18 -152 -35 -210 -65 -22 -11 -45 -20 -52 -20 -8
0 -20 -9 -28 -20 -8 -11 -20 -20 -27 -20 -7 0 -13 -5 -13 -10 0 -6 -15 -25
-34 -43 -22 -20 -37 -46 -41 -70 -4 -21 -14 -44 -21 -52 -8 -7 -14 -17 -14
-20 0 -4 -9 -20 -21 -36 -36 -51 -61 -164 -57 -254 4 -76 14 -106 48 -148 11
-15 12 -22 2 -38 -7 -10 -8 -19 -3 -19 4 0 12 -19 15 -42 7 -39 19 -384 17
-468 -5 -216 -10 -311 -19 -400 -6 -58 -14 -150 -17 -205 -4 -55 -10 -116 -15
-135 -5 -19 -14 -82 -20 -140 -6 -58 -20 -136 -30 -175 -16 -63 -30 -134 -61
-320 -6 -33 -18 -96 -28 -140 -32 -140 -57 -295 -66 -410 -17 -222 -34 -357
-46 -371 -4 -5 -10 -26 -13 -45 -4 -34 -12 -70 -38 -161 -12 -44 -20 -92 -39
-238 -6 -47 -15 -93 -20 -103 -17 -32 11 -83 60 -111 84 -48 164 -86 181 -86
11 0 23 -7 26 -15 4 -8 15 -15 25 -15 10 0 19 -4 19 -10 0 -5 4 -10 10 -10 5
0 18 -6 27 -14 90 -74 115 -87 166 -88 29 -2 63 1 77 5 72 19 185 61 188 68 2
5 9 9 16 9 7 0 44 16 84 35 58 29 93 38 184 49 69 9 117 11 124 5 7 -6 17 -2
29 11 10 11 26 20 36 20 10 0 21 5 24 11 9 14 37 154 41 209 2 25 9 70 15 100
11 58 17 103 25 210 11 141 26 230 62 360 28 103 32 126 33 195 0 33 6 92 14
130 7 39 16 98 19 133 3 35 8 67 11 72 6 10 34 304 41 440 3 52 9 111 14 130
6 19 10 55 10 80 0 41 1 43 14 25 21 -31 54 -181 60 -275 4 -47 10 -114 16
-150 5 -36 10 -101 10 -145 0 -84 22 -229 45 -305 8 -25 16 -70 19 -100 2 -30
7 -65 10 -78 19 -70 36 -161 42 -222 2 -25 7 -67 10 -95 2 -27 4 -52 4 -55 -1
-3 4 -18 10 -35 13 -32 39 -188 46 -270 2 -27 9 -81 15 -120 7 -38 13 -84 14
-101 5 -54 20 -68 103 -97 44 -16 86 -30 93 -31 56 -10 87 -21 104 -35 18 -16
127 -71 240 -122 22 -9 71 -20 108 -24 37 -3 81 -8 97 -12 23 -4 31 -1 37 13
4 11 16 29 28 41 67 72 130 133 172 169 26 23 59 52 73 64 28 24 116 91 232
178 72 53 77 60 78 93 0 20 -6 52 -14 71 -8 19 -22 65 -30 104 -9 38 -20 80
-25 94 -5 14 -12 66 -14 117 -3 50 -15 122 -26 160 -61 201 -98 364 -86 382 3
5 -2 40 -11 78 -8 37 -17 86 -19 108 -13 132 -16 162 -35 275 -5 30 -9 80 -10
110 0 30 -2 66 -4 80 -2 14 -7 52 -10 85 -4 33 -14 83 -21 110 -21 77 -26 140
-31 405 -2 135 -8 263 -14 285 -23 90 -37 266 -27 352 3 34 1 44 -13 48 -21 7
-44 86 -34 117 5 17 -21 102 -47 150 -5 10 -9 29 -9 42 0 14 -4 28 -10 31 -5
3 -10 14 -10 23 0 9 -13 49 -29 87 -16 40 -29 91 -29 117 -1 25 -8 63 -16 84
-8 22 -17 53 -19 69 -4 34 -19 76 -42 118 -8 16 -15 39 -15 51 0 13 -5 37 -11
55 -9 26 -18 32 -50 37 -26 4 -39 12 -39 22 0 8 -3 12 -6 9 -4 -3 -24 8 -44
26 -62 53 -240 102 -403 111 -49 3 -94 9 -100 14 -7 5 -46 9 -87 10 -41 0
-106 6 -144 12 -59 9 -180 12 -188 4z m287 -104 c198 -14 300 -31 300 -50 0
-20 33 -28 72 -18 27 7 41 4 77 -16 24 -13 46 -23 49 -20 8 8 80 -28 98 -49
10 -12 25 -37 34 -54 9 -18 20 -33 24 -33 5 0 11 -9 14 -20 3 -11 2 -20 -2
-20 -4 0 -7 -10 -7 -22 1 -22 -11 -32 -128 -105 -39 -24 -258 -97 -296 -99
-14 0 -27 -2 -30 -4 -30 -15 -180 -26 -323 -23 -95 2 -237 5 -317 7 -170 3
-253 12 -295 31 -16 7 -43 16 -60 19 -16 3 -50 10 -75 16 -25 6 -61 13 -80 16
-19 3 -55 14 -80 25 -25 12 -74 25 -110 30 -35 5 -75 16 -87 24 -26 17 -29 51
-8 79 8 11 12 29 9 41 -7 26 14 45 86 79 69 32 153 55 208 59 23 1 42 5 42 9
0 3 19 9 43 13 23 4 47 11 53 16 6 5 20 10 32 12 12 2 25 6 28 10 4 4 17 7 29
7 13 0 39 7 58 15 20 8 82 18 138 21 57 4 126 10 153 14 54 9 122 7 351 -10z
m759 -400 c2 -19 9 -46 14 -60 15 -40 7 -88 -19 -110 -13 -10 -20 -19 -16 -20
22 -1 -62 -79 -92 -86 -14 -3 -33 -8 -41 -11 -8 -4 -18 -5 -22 -5 -5 1 -8 -3
-8 -10 0 -6 -3 -9 -6 -5 -3 3 -30 -3 -60 -14 -51 -19 -79 -26 -134 -34 -14 -2
-25 -4 -25 -5 0 -1 -16 -4 -35 -7 -19 -2 -42 -9 -51 -13 -24 -14 -31 -78 -13
-130 8 -24 22 -67 29 -95 8 -27 23 -75 34 -105 11 -30 20 -69 21 -86 0 -17 7
-49 16 -70 9 -22 18 -48 20 -59 11 -84 34 -225 38 -236 3 -8 7 -37 10 -65 3
-28 8 -57 10 -65 8 -23 16 -87 26 -208 5 -64 14 -140 20 -170 5 -30 12 -79 15
-110 8 -80 16 -135 21 -142 2 -4 13 -72 24 -151 10 -78 21 -152 23 -163 3 -11
8 -49 12 -85 4 -36 11 -83 15 -105 5 -22 12 -96 15 -164 3 -69 8 -128 10 -131
2 -4 7 -36 10 -71 4 -35 9 -77 11 -94 15 -104 25 -331 26 -595 1 -168 5 -316
10 -329 9 -26 21 -171 13 -171 -2 0 -47 20 -99 45 -53 25 -99 45 -104 45 -4 0
-25 14 -46 30 -22 17 -48 30 -58 30 -10 0 -35 7 -56 17 -20 9 -39 17 -42 18
-3 0 -14 4 -25 7 -11 3 -31 9 -45 12 -23 5 -27 13 -39 78 -8 40 -16 89 -18
108 -2 19 -5 49 -7 65 -2 17 -6 37 -9 45 -5 15 -21 107 -32 184 -3 21 -7 41
-10 45 -7 12 -14 61 -25 171 -6 58 -15 121 -19 140 -5 19 -14 69 -20 110 -7
41 -24 122 -38 180 -18 75 -27 152 -33 267 -5 90 -11 167 -14 172 -3 5 -8 57
-12 117 -3 60 -9 120 -14 134 -8 26 -29 104 -34 130 -2 8 -6 22 -9 30 -3 8
-12 38 -21 65 -28 95 -70 185 -88 191 -29 9 -78 -32 -77 -64 1 -39 -19 -160
-31 -181 -5 -10 -7 -21 -4 -23 3 -3 0 -34 -7 -69 -6 -35 -13 -111 -14 -169 -2
-58 -6 -125 -9 -150 -3 -25 -8 -88 -10 -140 -3 -52 -7 -102 -9 -110 -8 -31
-17 -87 -21 -135 -3 -27 -10 -90 -15 -140 -6 -49 -11 -108 -12 -130 -1 -22
-14 -85 -30 -140 -15 -55 -30 -113 -34 -130 -13 -75 -26 -165 -30 -225 -2 -36
-9 -101 -14 -145 -6 -44 -13 -102 -16 -130 -10 -83 -13 -98 -37 -176 -9 -33
-15 -37 -64 -48 -30 -7 -73 -14 -96 -15 -53 -4 -128 -24 -147 -39 -7 -6 -19
-12 -26 -13 -7 -1 -46 -18 -87 -37 -40 -20 -92 -41 -116 -47 -24 -6 -50 -14
-58 -17 -11 -4 -14 0 -10 18 3 13 11 47 17 74 6 28 17 73 25 100 8 28 16 64
18 80 8 60 17 110 23 125 8 23 22 144 29 250 3 52 14 127 24 165 11 39 24 121
31 184 6 63 15 125 20 138 5 13 7 23 4 23 -2 0 3 23 11 51 9 28 17 81 19 118
1 36 12 102 23 146 11 44 22 121 25 170 6 85 32 259 42 275 3 5 14 79 25 166
12 88 25 177 30 199 5 22 11 56 14 75 2 19 7 49 10 65 3 17 7 59 10 95 3 36
12 103 21 150 19 104 32 211 39 310 3 41 10 90 15 107 8 29 8 57 -3 193 -1 19
4 54 12 78 8 24 12 61 9 82 -4 36 -3 38 23 42 15 2 72 3 126 2 55 -2 115 -3
135 -4 l36 0 7 -82 c4 -46 9 -150 12 -233 2 -82 5 -159 6 -170 1 -19 -6 -127
-18 -285 -8 -101 -1 -108 99 -116 60 -4 87 -2 120 11 27 11 71 17 125 17 75 1
85 3 98 23 18 28 8 82 -19 96 -11 6 -33 8 -51 4 -17 -4 -54 -9 -83 -11 -29 -1
-61 -8 -71 -13 -11 -6 -22 -7 -26 -3 -4 3 -11 0 -15 -7 -6 -10 -19 -12 -44 -7
-35 7 -36 8 -30 44 7 47 5 395 -3 527 -7 126 -8 195 -1 201 3 3 63 10 133 15
71 5 133 14 138 19 6 6 20 10 32 10 13 0 25 4 29 9 3 5 19 13 37 16 35 8 98
66 98 90 0 10 5 13 12 9 8 -5 9 -2 5 9 -3 9 -2 19 2 21 9 6 3 55 -9 71 -5 6
-10 21 -12 35 -2 21 1 25 27 28 29 3 103 22 255 65 54 16 102 40 170 86 52 35
102 72 110 82 18 22 18 21 24 -21z m-2043 -40 c15 -12 61 -28 101 -36 40 -8
89 -21 108 -29 19 -8 78 -24 130 -35 52 -12 118 -29 145 -38 28 -8 50 -14 50
-13 0 1 13 -2 28 -8 30 -12 129 -18 381 -26 87 -2 161 -7 164 -10 3 -3 -2 -13
-11 -22 -37 -42 -33 -109 10 -149 l26 -24 -49 -2 c-27 -1 -86 -2 -131 -2 -45
-1 -84 -4 -87 -7 -4 -3 -34 -4 -69 -2 -76 5 -65 5 -162 3 -44 -1 -100 -6 -125
-10 -32 -6 -69 -3 -130 10 -100 23 -213 53 -255 70 -16 6 -38 13 -48 15 -32 7
-61 17 -104 36 -36 16 -42 24 -48 60 -9 54 -8 115 2 131 4 7 8 23 9 36 1 22
23 72 32 72 2 0 17 -9 33 -20z m1294 -230 c3 -6 16 -10 29 -10 46 0 61 -40 22
-58 -13 -6 -27 -20 -31 -31 -3 -12 -14 -21 -23 -21 -12 0 -13 3 -4 12 7 7 12
22 12 35 0 26 -20 73 -31 73 -4 0 -9 7 -13 15 -4 13 -2 13 14 5 10 -5 22 -15
25 -20z m795 -32 c0 -7 9 -31 19 -53 37 -74 61 -135 61 -149 0 -8 4 -17 9 -20
9 -6 16 -36 26 -118 l7 -47 -56 4 c-105 7 -241 40 -266 65 -8 8 -34 24 -57 35
-23 11 -46 30 -52 42 -18 40 -91 15 -91 -31 0 -30 46 -81 100 -111 71 -40 149
-75 166 -75 8 0 27 -6 42 -14 15 -7 73 -17 130 -21 95 -7 102 -9 103 -29 2
-28 5 -50 8 -56 6 -12 18 -87 26 -155 4 -27 9 -63 12 -80 4 -16 7 -111 8 -210
2 -225 11 -337 35 -445 21 -93 26 -133 40 -320 5 -69 13 -145 18 -170 6 -25
12 -76 15 -115 7 -88 17 -156 27 -175 4 -8 11 -60 15 -115 4 -61 16 -128 31
-173 13 -41 24 -82 24 -92 0 -10 7 -37 16 -61 9 -24 17 -48 18 -54 2 -5 6 -17
9 -25 3 -8 5 -22 6 -30 1 -60 14 -175 26 -225 8 -33 21 -91 30 -130 l17 -69
-29 -26 c-16 -14 -53 -46 -83 -72 -30 -27 -59 -48 -66 -48 -6 0 -26 -16 -45
-35 -19 -19 -39 -35 -44 -35 -6 0 -24 -16 -40 -36 -33 -39 -40 -46 -71 -72
-72 -58 -109 -90 -130 -109 -13 -13 -30 -23 -38 -23 -17 0 -35 51 -42 125 -3
28 -10 65 -16 83 -5 18 -9 56 -8 85 0 29 1 57 0 62 0 6 -2 120 -4 255 -4 242
-11 384 -21 400 -3 4 -8 52 -11 107 -3 54 -8 104 -10 112 -3 8 -7 44 -10 80
-5 57 -34 331 -49 456 -3 22 -9 60 -14 85 -6 25 -13 81 -17 125 -3 44 -9 84
-12 90 -3 5 -7 16 -8 25 -15 139 -27 226 -31 233 -7 11 -22 129 -28 222 -3 39
-10 93 -15 120 -5 28 -12 66 -15 85 -3 19 -12 78 -21 130 -9 52 -19 122 -24
155 -4 33 -15 80 -23 105 -9 25 -19 70 -22 100 -4 30 -15 80 -26 110 -11 30
-22 78 -25 106 -7 54 -1 62 51 69 37 5 160 37 170 45 6 4 29 10 52 14 36 5
107 37 123 56 3 3 17 11 33 17 15 7 27 17 27 23 0 5 5 10 10 10 6 0 10 -6 10
-12z m-888 -15 c10 -9 18 -22 18 -30 0 -18 -30 -16 -51 3 -14 13 -15 19 -6 30
15 17 17 17 39 -3z m-1174 -133 c2 -5 9 -7 16 -4 7 3 26 0 42 -7 16 -6 43 -13
61 -15 17 -1 52 -12 77 -23 25 -12 52 -21 61 -21 9 0 24 -4 34 -10 18 -9 118
-23 156 -21 13 0 21 -6 22 -17 1 -9 4 -91 7 -182 5 -153 0 -231 -24 -385 -6
-33 -12 -89 -16 -125 -3 -36 -14 -100 -25 -144 -10 -43 -19 -102 -19 -131 0
-29 -11 -111 -24 -181 -14 -71 -27 -154 -30 -184 -5 -54 -25 -179 -45 -290
-23 -125 -28 -157 -36 -269 -3 -40 -14 -105 -25 -145 -11 -39 -21 -100 -23
-136 -2 -36 -11 -92 -20 -125 -10 -33 -24 -116 -33 -184 -8 -69 -17 -128 -19
-131 -6 -10 -24 -129 -31 -202 -3 -35 -7 -76 -9 -93 -7 -73 -18 -134 -36 -187
-10 -32 -19 -69 -19 -82 0 -27 -65 -274 -74 -283 -9 -9 -75 29 -102 60 -13 15
-30 27 -38 27 -7 0 -25 9 -39 20 -14 11 -39 23 -56 26 -16 4 -32 13 -35 21 -3
8 -10 11 -16 8 -12 -7 -75 28 -104 58 -15 15 -17 29 -13 75 13 141 19 166 63
306 9 27 17 64 19 84 2 19 8 38 15 42 7 4 13 46 15 106 6 129 13 213 21 244 4
14 6 30 5 37 -3 19 50 417 62 463 2 8 7 22 10 30 6 15 22 94 32 160 3 19 23
123 45 230 38 192 46 240 54 332 2 26 7 59 10 75 3 15 8 71 11 123 7 117 16
247 19 280 2 14 4 69 4 123 2 95 2 97 26 97 31 0 93 26 120 51 11 11 38 30 59
42 20 11 37 24 37 28 0 4 34 42 75 84 41 42 84 94 95 116 18 38 18 43 3 66
-14 20 -22 24 -47 19 -16 -4 -30 -7 -31 -9 -20 -41 -84 -125 -141 -182 -69
-70 -181 -136 -185 -109 -3 13 -5 73 -13 279 l-8 188 29 -7 c15 -4 29 -11 31
-16z"/>
</g>
</svg>
