<?xml version="1.0" standalone="no"?>
<!DOCTYPE svg PUBLIC "-//W3C//DTD SVG 20010904//EN"
 "http://www.w3.org/TR/2001/REC-SVG-20010904/DTD/svg10.dtd">
<svg version="1.0" xmlns="http://www.w3.org/2000/svg"
 width="491.000000pt" height="483.000000pt" viewBox="0 0 491.000000 483.000000"
 preserveAspectRatio="xMidYMid meet">
<metadata>
Created by potrace 1.16, written by Peter Selinger 2001-2019
</metadata>
<g transform="translate(0.000000,483.000000) scale(0.100000,-0.100000)"
fill="#000000" stroke="none">
<path d="M2370 4710 c-25 -5 -85 -15 -135 -23 -140 -24 -185 -35 -250 -64 -33
-14 -62 -29 -65 -32 -3 -3 -18 -13 -33 -20 -15 -8 -46 -31 -67 -51 -22 -20
-40 -35 -40 -32 0 3 -12 -9 -27 -26 -21 -23 -38 -31 -68 -34 -22 -2 -44 -8
-50 -14 -5 -6 -37 -18 -70 -28 -33 -10 -64 -22 -70 -26 -5 -4 -22 -10 -37 -14
-16 -3 -28 -11 -28 -16 0 -6 -7 -10 -15 -10 -9 0 -41 -16 -71 -35 -30 -19 -59
-35 -64 -35 -6 0 -10 -4 -10 -10 0 -5 -6 -10 -13 -10 -7 0 -22 -8 -33 -18 -22
-20 -111 -90 -143 -112 -11 -8 -21 -18 -21 -23 0 -4 -11 -19 -24 -33 -13 -14
-45 -67 -71 -117 -26 -51 -53 -99 -60 -107 -20 -25 -37 -88 -51 -195 -3 -22
-12 -62 -20 -89 -8 -27 -14 -67 -14 -87 0 -21 -5 -41 -11 -45 -8 -4 -9 -25 -5
-58 3 -29 1 -137 -5 -242 -6 -104 -11 -215 -10 -247 0 -32 -8 -144 -20 -250
-12 -106 -25 -239 -30 -297 -11 -137 -25 -231 -56 -365 -14 -60 -27 -121 -30
-135 -2 -14 -7 -32 -10 -40 -4 -8 -5 -20 -4 -26 1 -7 -5 -40 -13 -74 -13 -54
-13 -72 -1 -136 18 -94 54 -164 102 -201 61 -47 135 -90 178 -103 22 -7 43
-17 46 -22 6 -10 2 -188 -5 -233 -3 -16 -8 -47 -12 -68 -3 -22 -12 -56 -19
-78 -8 -21 -12 -39 -8 -39 3 0 1 -6 -5 -13 -5 -6 -12 -25 -15 -42 -3 -16 -19
-72 -36 -124 -19 -59 -28 -98 -22 -104 5 -5 7 -15 4 -22 -2 -7 2 -27 11 -43 8
-16 13 -31 11 -34 -11 -11 139 -147 205 -187 87 -51 216 -88 340 -96 127 -8
211 -15 245 -19 114 -15 494 -25 545 -14 19 4 78 16 130 28 52 11 109 23 125
26 17 3 49 14 73 24 52 23 62 20 93 -29 22 -36 29 -40 94 -52 39 -7 86 -14
105 -15 50 -4 301 17 362 30 12 3 57 8 98 11 41 3 86 8 100 11 14 2 51 9 84
14 32 6 93 24 135 39 73 28 139 50 164 55 7 2 19 5 27 8 47 17 93 25 110 21
13 -4 26 1 34 12 7 10 18 15 24 11 17 -10 27 41 13 70 -6 13 -16 65 -22 115
-6 49 -21 121 -34 158 -24 68 -30 92 -41 166 -3 22 -16 76 -29 120 -12 44 -28
112 -35 150 -7 39 -18 81 -25 95 -16 33 -39 130 -32 136 3 3 27 7 52 10 28 2
67 15 94 31 25 16 53 31 61 36 86 43 260 193 260 224 0 7 4 13 9 13 13 0 35
176 33 270 -1 62 -9 103 -26 152 -13 36 -22 69 -18 72 3 3 1 6 -4 6 -5 0 -16
21 -23 48 -8 26 -32 91 -53 145 -21 53 -40 105 -42 115 -1 9 -8 29 -14 43 -6
15 -14 44 -18 65 -3 22 -10 44 -13 49 -4 6 -8 24 -9 40 -2 28 -21 136 -42 230
-8 37 -13 83 -26 240 -2 33 -6 143 -9 245 -2 102 -6 194 -8 205 -3 11 -8 49
-11 85 -7 67 -9 79 -45 213 -20 78 -31 104 -80 207 -24 52 -115 160 -133 160
-5 0 -18 9 -30 20 -23 21 -199 116 -210 112 -3 -1 -11 5 -17 12 -8 10 -21 12
-46 6 -32 -7 -36 -5 -54 24 -28 44 -174 186 -193 186 -4 0 -13 7 -21 15 -15
14 -149 85 -162 85 -3 0 -22 7 -43 16 -22 9 -79 17 -140 19 -56 3 -119 9 -140
14 -46 11 -191 12 -252 1z m280 -120 c36 -5 79 -12 95 -14 17 -2 44 -7 60 -11
17 -3 52 -8 79 -11 27 -2 56 -10 66 -19 9 -8 24 -15 33 -15 9 0 21 -8 26 -17
6 -10 11 -14 11 -10 0 8 59 -24 90 -50 8 -7 33 -26 55 -43 69 -54 92 -98 100
-194 7 -93 -1 -187 -20 -226 -7 -14 -11 -30 -8 -36 3 -9 -14 -54 -36 -94 -4
-8 -18 -35 -30 -60 -11 -25 -32 -58 -46 -74 -14 -16 -25 -33 -25 -39 0 -11
-91 -97 -103 -97 -5 0 -6 -4 -3 -8 3 -5 -12 -22 -32 -39 -75 -63 -192 -153
-192 -147 0 3 -12 -4 -26 -15 -15 -12 -30 -21 -35 -21 -4 0 -20 -11 -35 -25
-15 -14 -31 -25 -36 -25 -10 0 -84 -46 -165 -102 -24 -16 -43 -27 -43 -24 0
20 106 154 185 235 52 53 105 109 117 125 13 16 32 38 43 50 52 54 138 203
150 261 29 141 29 306 -1 390 -23 65 -78 153 -118 188 -31 27 -114 71 -171 89
-51 17 -200 21 -242 8 -150 -49 -314 -160 -364 -246 -15 -27 -35 -61 -43 -75
-49 -84 -83 -320 -58 -399 6 -19 18 -66 27 -105 13 -54 30 -90 76 -158 33 -49
58 -91 55 -95 -3 -3 0 -12 8 -21 8 -9 29 -45 47 -81 18 -36 41 -71 51 -78 10
-7 28 -34 39 -60 12 -26 27 -50 35 -55 10 -6 2 -23 -31 -71 -25 -35 -45 -67
-45 -70 0 -4 -15 -39 -33 -79 -51 -110 -110 -245 -109 -251 0 -3 -8 -38 -19
-77 -11 -39 -22 -90 -25 -114 -6 -52 -12 -87 -17 -91 -7 -7 -94 -17 -142 -17
-27 1 -70 5 -95 11 -25 6 -83 18 -130 27 -121 24 -128 28 -136 72 -4 21 -13
52 -20 70 -20 46 -64 300 -75 433 -13 141 -15 331 -5 385 9 45 -10 78 -51 90
-17 5 -25 0 -37 -24 -13 -24 -15 -61 -12 -208 3 -98 7 -189 10 -203 3 -14 8
-52 11 -85 6 -62 27 -209 44 -305 5 -30 20 -98 34 -150 34 -130 40 -176 38
-315 -3 -138 -5 -168 -20 -250 -6 -33 -18 -107 -26 -165 -28 -189 -45 -251
-102 -367 -25 -51 -56 -99 -69 -108 -23 -15 -97 -16 -111 -1 -3 3 -15 6 -25 6
-10 0 -35 7 -56 16 -20 9 -49 17 -63 19 -14 1 -62 25 -106 54 -67 43 -83 58
-101 98 -33 77 -35 131 -6 277 14 72 34 165 44 206 19 74 27 138 50 375 6 66
17 181 25 255 8 74 16 176 19 225 3 50 8 133 12 185 3 52 7 163 9 245 3 146 6
182 25 255 7 26 47 200 55 240 10 50 120 220 193 300 26 28 69 65 97 82 27 18
62 42 78 54 15 13 57 38 95 56 37 18 69 35 72 39 7 8 100 39 118 39 15 0 15
-2 -8 -115 -11 -55 -14 -243 -4 -290 3 -16 7 -36 7 -42 0 -7 4 -13 9 -13 4 0
8 -11 8 -25 0 -14 7 -42 15 -61 8 -20 12 -40 9 -46 -3 -5 -1 -14 4 -21 6 -7
16 -35 23 -62 16 -68 27 -87 142 -260 123 -186 181 -266 230 -318 20 -21 37
-43 37 -47 0 -12 33 -18 55 -10 11 4 22 18 26 31 5 23 -18 61 -78 129 -29 32
-116 156 -123 176 -4 11 -19 33 -32 50 -68 81 -151 227 -163 284 -10 47 -43
147 -63 190 -14 28 -17 65 -17 185 1 195 18 242 126 354 79 82 209 147 333
168 326 54 283 52 486 23z m-69 -169 c37 -15 63 -24 76 -27 24 -5 101 -64 119
-91 96 -143 89 -422 -13 -559 -13 -17 -23 -36 -23 -42 0 -7 -4 -12 -10 -12 -5
0 -15 -11 -22 -24 -11 -22 -56 -72 -255 -284 -24 -25 -45 -54 -49 -64 -3 -10
-10 -18 -15 -18 -5 0 -9 -7 -9 -15 0 -8 -4 -15 -8 -15 -5 0 -14 -12 -21 -27
l-12 -26 -17 24 c-9 13 -15 26 -13 28 1 2 -1 7 -6 10 -16 11 -83 119 -83 133
0 8 -9 24 -20 36 -11 12 -20 26 -20 33 0 17 -31 68 -63 101 -15 17 -30 42 -33
57 -4 14 -11 31 -15 37 -5 6 -15 29 -23 51 -37 104 -40 257 -7 355 46 137 120
219 266 294 92 47 106 51 176 53 42 1 87 -2 100 -8z m838 -182 c17 -6 31 -15
31 -21 0 -5 5 -6 10 -3 6 3 10 1 10 -4 0 -6 6 -11 13 -11 7 0 23 -9 35 -20 12
-11 26 -20 32 -20 6 0 13 -7 17 -15 3 -9 20 -23 37 -31 17 -9 48 -35 69 -57
40 -45 116 -191 122 -235 2 -15 10 -47 18 -72 9 -25 18 -79 21 -120 4 -41 8
-102 11 -135 2 -33 7 -132 11 -220 3 -88 7 -178 9 -200 2 -22 6 -83 9 -136 3
-53 11 -109 17 -125 6 -16 17 -69 25 -118 9 -49 20 -99 26 -110 6 -12 10 -22
9 -24 -1 -1 3 -28 10 -60 8 -31 14 -61 14 -67 1 -5 6 -19 12 -30 6 -11 18 -51
28 -90 9 -38 26 -88 36 -109 10 -22 19 -48 19 -57 0 -10 4 -19 8 -21 10 -4 69
-146 70 -168 1 -8 4 -53 7 -99 8 -117 -14 -213 -58 -252 -117 -105 -224 -170
-334 -202 -61 -17 -55 -25 -78 98 -8 44 -19 100 -25 125 -6 25 -13 59 -15 75
-9 50 -35 178 -46 220 -5 22 -18 85 -28 140 -34 178 -48 228 -71 245 -11 9
-27 27 -33 40 -17 34 -65 51 -78 27 -6 -9 -18 -17 -28 -17 -10 0 -35 -7 -54
-15 -20 -8 -71 -17 -114 -19 -70 -5 -143 -22 -176 -43 -6 -4 -27 -6 -45 -4
-34 3 -100 -7 -236 -35 -101 -21 -120 -19 -149 16 -14 17 -30 30 -36 30 -5 0
-12 9 -16 19 -3 10 -17 22 -32 25 -36 10 -27 14 47 21 36 3 74 8 84 12 11 3
33 7 50 8 17 1 44 8 60 14 16 7 50 14 75 17 25 3 89 18 143 34 53 17 102 30
110 30 7 0 40 11 73 24 33 13 89 33 125 44 l65 21 18 -40 c32 -71 100 -68 91
4 -15 120 -16 127 -16 372 0 110 -1 229 -3 265 -2 36 -4 73 -4 83 -1 24 -44
39 -77 27 l-26 -10 8 -243 c8 -300 8 -276 6 -315 -1 -21 -8 -35 -19 -39 -10
-3 -36 -14 -58 -24 -23 -10 -54 -21 -70 -25 -17 -4 -47 -15 -67 -25 -21 -11
-49 -19 -64 -19 -14 0 -38 -6 -52 -14 -47 -24 -114 -44 -194 -57 -43 -6 -78
-15 -78 -18 0 -4 -8 -7 -17 -8 -10 -1 -38 -6 -63 -11 -25 -6 -83 -11 -129 -11
-47 -1 -90 -6 -97 -12 -15 -12 -44 -1 -44 17 0 28 -50 48 -120 48 -57 0 -74
-4 -109 -27 -36 -24 -41 -25 -41 -10 0 28 39 185 49 197 5 6 12 27 16 46 15
70 86 183 169 268 65 67 135 121 231 178 301 181 387 243 518 379 125 129 224
301 253 438 8 38 15 115 16 173 1 112 1 112 57 93z m-1125 -1835 c26 -10 18
-31 -13 -37 -45 -9 -171 -151 -171 -193 0 -7 -7 -14 -15 -14 -8 0 -15 5 -15
12 0 6 -7 3 -15 -8 -14 -18 -14 -18 -14 6 0 14 6 34 14 44 8 11 15 28 15 38 0
29 28 79 68 121 32 32 42 37 83 37 26 0 54 -3 63 -6z m-682 -85 c9 -5 30 -9
46 -9 16 0 32 -3 36 -7 3 -4 12 -8 19 -10 7 -1 32 -7 57 -13 40 -10 85 -9 193
5 33 4 35 -11 12 -89 l-15 -52 -75 -3 c-75 -2 -230 27 -283 55 -17 8 -32 10
-49 3 -13 -5 -26 -9 -28 -9 -2 0 -3 21 -2 48 1 26 -2 60 -6 75 l-8 29 43 -7
c24 -4 51 -11 60 -16z m811 -66 c11 -13 29 -23 39 -23 10 0 18 -4 18 -9 0 -5
8 -12 18 -15 9 -3 33 -30 52 -58 19 -29 45 -66 58 -82 22 -27 46 -75 42 -85
-1 -2 2 -7 7 -10 5 -3 50 -89 100 -191 61 -124 94 -202 98 -235 4 -27 11 -66
15 -85 9 -35 23 -218 21 -275 -2 -57 -13 -105 -24 -106 -7 -1 -40 -3 -75 -4
-61 -3 -63 -3 -56 18 14 44 7 293 -11 374 -21 94 -53 199 -71 233 -7 14 -25
57 -39 95 -14 39 -30 77 -36 85 -5 8 -14 26 -20 40 -31 74 -87 181 -116 222
-18 26 -33 52 -33 57 0 10 -30 25 -44 22 -5 -1 -13 4 -17 11 -15 23 -65 -12
-61 -43 2 -13 8 -28 12 -33 5 -5 0 -26 -11 -47 -10 -21 -19 -45 -19 -52 0 -8
-10 -36 -22 -63 -12 -27 -25 -65 -29 -84 -4 -19 -28 -93 -53 -165 -70 -201
-89 -286 -102 -465 -10 -143 -18 -190 -33 -194 -48 -14 -86 -17 -120 -11 l-39
6 0 52 c0 29 5 79 13 112 7 33 16 86 20 118 3 33 10 70 16 84 5 13 9 36 9 49
0 14 16 73 35 131 19 58 35 111 35 118 0 7 8 23 19 36 10 13 23 40 30 60 6 20
32 59 56 88 25 29 45 57 45 62 0 9 4 14 84 97 47 49 49 53 36 77 -14 27 -39
32 -58 13 -9 -9 -12 -9 -12 0 0 21 90 102 113 103 43 1 67 6 74 13 4 4 9 1 12
-6 2 -7 13 -23 24 -35z m1005 -5 c1 -15 6 -37 26 -115 19 -74 64 -282 99 -458
8 -38 26 -126 41 -195 14 -69 26 -144 26 -167 0 -26 4 -42 11 -40 13 3 52
-120 83 -263 13 -58 30 -130 39 -160 9 -30 18 -75 22 -100 3 -25 11 -63 17
-85 14 -49 13 -47 21 -65 10 -25 27 -144 27 -187 l0 -41 -69 -21 c-38 -12 -72
-21 -76 -21 -4 0 -53 -18 -109 -39 -95 -37 -253 -72 -386 -86 -30 -3 -84 -10
-120 -15 -87 -12 -257 -15 -299 -6 -58 14 -161 98 -161 133 0 7 -4 13 -10 13
-5 0 -12 12 -16 28 -3 15 -14 46 -25 69 -10 24 -19 49 -19 58 0 8 -6 29 -14
47 -8 18 -21 49 -29 68 -8 19 -21 55 -27 80 -7 25 -15 50 -19 55 -4 6 -18 39
-30 75 -12 36 -26 74 -31 85 -5 11 -19 52 -30 90 -12 39 -27 82 -32 97 -6 15
-9 28 -7 30 1 2 -3 13 -10 25 -6 13 -14 42 -17 65 -4 24 -12 54 -19 68 -24 47
-45 152 -45 223 0 40 -7 96 -14 125 -13 47 -12 57 4 103 11 28 23 56 28 62 6
7 15 32 22 57 6 25 18 59 25 75 40 91 55 129 55 143 0 12 4 12 21 -4 19 -17
139 -251 139 -272 0 -5 13 -36 30 -68 16 -33 31 -69 33 -79 2 -11 9 -33 16
-50 26 -67 31 -83 44 -143 10 -44 14 -120 13 -253 l-2 -189 24 -16 c20 -13 43
-15 127 -10 61 4 115 13 134 22 30 15 31 18 32 82 4 186 -5 340 -24 422 -42
178 -76 272 -136 370 -5 8 -36 70 -70 137 l-60 123 37 10 c41 10 169 31 220
35 48 4 101 15 147 30 22 8 81 16 130 18 50 2 108 12 130 20 49 20 81 21 83 5z
m-1823 -153 c11 -7 41 -16 65 -19 25 -4 59 -12 75 -17 17 -5 76 -10 131 -12
99 -3 103 -4 133 -34 17 -17 31 -35 31 -39 0 -4 -11 -22 -25 -40 -14 -19 -26
-36 -25 -39 0 -3 -8 -20 -18 -37 -11 -18 -22 -45 -25 -60 -4 -14 -16 -47 -27
-72 -11 -26 -19 -48 -20 -51 0 -3 -7 -21 -15 -41 -31 -74 -84 -300 -85 -360 0
-17 -3 -34 -7 -38 -4 -3 -8 -23 -10 -44 -1 -20 -5 -59 -7 -87 -8 -77 -2 -88
58 -107 68 -23 159 -24 219 -4 26 9 53 16 60 15 38 -5 44 1 41 39 -1 20 -7 60
-13 88 -11 55 -5 202 10 248 5 16 9 45 9 64 0 43 6 39 14 -8 3 -19 11 -64 17
-100 6 -36 16 -74 23 -85 7 -11 16 -43 20 -70 3 -28 23 -104 45 -170 21 -66
41 -135 44 -153 4 -19 13 -48 21 -65 8 -18 27 -72 42 -122 14 -49 33 -109 40
-133 8 -23 14 -49 14 -56 0 -7 7 -27 16 -44 8 -18 17 -42 18 -54 3 -23 9 -42
26 -85 15 -36 -16 -49 -219 -88 -116 -23 -152 -26 -260 -22 -271 10 -392 17
-399 21 -4 2 -47 7 -97 10 -226 16 -256 19 -261 27 -3 5 -14 9 -25 9 -45 0
-147 64 -240 150 -49 46 -73 136 -47 183 5 11 14 43 18 71 5 28 14 74 20 101
43 183 50 218 50 258 0 24 3 72 6 106 5 47 10 59 19 51 7 -6 42 -13 79 -17 58
-5 69 -3 100 18 19 13 45 42 57 64 12 22 32 54 44 70 22 29 59 120 74 180 4
17 13 39 18 50 11 21 43 203 47 265 1 19 5 41 9 47 4 7 10 29 12 50 3 21 7 47
9 58 3 11 5 50 5 87 l1 68 33 -6 c17 -4 41 -12 52 -19z"/>
</g>
</svg>
