<?xml version="1.0" standalone="no"?>
<!DOCTYPE svg PUBLIC "-//W3C//DTD SVG 20010904//EN"
 "http://www.w3.org/TR/2001/REC-SVG-20010904/DTD/svg10.dtd">
<svg version="1.0" xmlns="http://www.w3.org/2000/svg"
 width="325.000000pt" height="341.000000pt" viewBox="0 0 325.000000 341.000000"
 preserveAspectRatio="xMidYMid meet">
<metadata>
Created by potrace 1.16, written by Peter Selinger 2001-2019
</metadata>
<g transform="translate(0.000000,341.000000) scale(0.100000,-0.100000)"
fill="#000000" stroke="none">
<path d="M1335 3150 c-154 -22 -158 -23 -244 -70 -45 -24 -78 -52 -108 -91
-35 -45 -48 -55 -67 -52 -24 5 -24 5 -133 -99 -67 -64 -110 -150 -153 -308 -7
-25 -16 -54 -20 -65 -10 -27 -24 -81 -51 -200 -12 -55 -28 -118 -34 -140 -17
-54 -68 -275 -96 -420 -6 -33 -23 -98 -36 -145 -14 -47 -28 -99 -32 -115 -4
-17 -15 -46 -23 -65 -9 -19 -23 -55 -33 -80 -9 -25 -23 -61 -32 -80 -17 -40
-22 -51 -55 -135 -20 -52 -23 -78 -23 -190 -1 -113 -4 -137 -24 -182 -22 -50
-22 -52 -5 -82 12 -21 34 -36 73 -50 68 -25 231 -58 332 -66 72 -7 75 -6 100
22 15 15 37 60 49 98 12 39 33 93 46 120 27 58 127 315 153 395 60 183 73 234
91 360 15 102 23 127 27 80 1 -19 7 -69 12 -110 6 -41 13 -151 16 -245 3 -93
8 -186 11 -205 3 -19 1 -118 -5 -220 -8 -152 -7 -187 4 -199 7 -8 21 -11 30
-7 16 6 17 35 11 394 -3 213 -10 419 -16 457 -5 39 -12 104 -16 145 -3 41 -10
83 -15 92 -5 9 -9 37 -9 63 0 49 -21 70 -44 44 -13 -14 -36 -147 -36 -206 0
-18 -4 -52 -10 -75 -5 -24 -14 -70 -21 -103 -18 -93 -74 -275 -100 -327 -5
-10 -9 -23 -9 -28 0 -6 -9 -30 -20 -52 -11 -23 -20 -46 -20 -50 0 -5 -9 -28
-20 -50 -11 -23 -20 -50 -20 -60 0 -10 -3 -18 -7 -18 -9 0 -33 -48 -33 -65 0
-29 -41 -55 -86 -55 -45 0 -246 40 -296 59 -63 24 -98 79 -92 147 6 78 16 148
24 163 5 9 14 30 20 46 6 17 32 80 56 140 25 61 52 137 60 170 9 33 18 67 20
75 3 8 5 15 4 15 -1 0 4 14 10 30 16 42 41 158 56 263 4 23 11 45 15 48 5 3 9
17 9 31 0 26 9 64 37 163 9 30 24 89 34 130 56 231 124 458 142 477 4 3 7 17
7 30 0 13 5 23 10 23 6 0 10 7 10 16 0 27 124 134 155 134 6 0 11 -10 12 -22
4 -49 15 -91 33 -122 40 -72 46 -81 70 -102 14 -12 36 -32 50 -44 14 -12 44
-33 67 -47 23 -13 45 -32 48 -42 3 -9 20 -21 38 -26 18 -6 36 -20 42 -33 6
-13 21 -26 35 -29 14 -4 33 -17 44 -30 39 -51 106 -153 106 -163 0 -5 4 -10 9
-10 12 0 48 -79 62 -137 6 -26 20 -56 31 -65 17 -15 18 -23 10 -50 -6 -18 -13
-71 -16 -118 -3 -47 -11 -128 -16 -180 -27 -258 -29 -781 -4 -1017 7 -59 7
-59 -97 -70 -139 -14 -308 -1 -373 28 -36 17 -60 -7 -75 -75 -23 -105 25 -198
124 -235 63 -24 279 -39 290 -21 3 5 14 10 23 10 9 0 48 15 85 34 54 26 71 31
81 21 54 -55 160 -72 356 -59 47 3 112 6 145 7 73 3 87 11 111 62 10 22 21 42
26 45 4 3 9 28 10 55 3 42 9 56 39 85 19 19 40 46 47 60 7 14 22 40 33 57 28
44 69 158 76 213 3 25 6 96 6 157 0 62 3 113 6 113 3 0 12 -15 19 -32 8 -18
18 -44 24 -58 25 -60 48 -132 48 -152 0 -8 9 -23 20 -33 11 -10 20 -23 20 -29
0 -5 12 -28 27 -49 15 -22 34 -60 43 -85 9 -25 27 -54 41 -64 23 -17 32 -18
95 -8 38 7 78 16 89 20 11 5 34 11 50 14 80 16 194 74 215 110 14 23 13 29
-13 78 -17 33 -27 69 -27 94 0 22 -4 44 -8 50 -4 5 -19 54 -31 109 -13 55 -27
109 -32 120 -4 11 -10 31 -12 45 -3 14 -15 61 -27 105 -12 44 -25 96 -30 115
-23 93 -61 220 -90 295 -28 75 -62 183 -82 260 -6 22 -14 49 -18 60 -12 32
-40 123 -61 205 -11 41 -31 100 -44 130 -13 30 -29 70 -37 88 -7 17 -16 32
-20 32 -5 0 -8 7 -8 15 0 8 -4 15 -10 15 -5 0 -10 4 -10 10 0 21 -75 113 -166
205 -32 32 -153 88 -234 110 -38 9 -48 17 -65 53 -26 55 -58 81 -158 130 -78
39 -103 44 -242 57 -22 2 -64 7 -94 10 -84 10 -230 12 -286 5z m65 -53 c0 -8
7 -28 16 -46 18 -36 18 -36 -13 -45 -16 -5 -26 0 -42 23 -12 16 -21 34 -21 40
0 6 -2 11 -4 11 -2 0 -11 3 -20 6 -21 8 -21 -14 0 -55 9 -18 12 -36 8 -40 -14
-12 -89 -31 -123 -31 -46 0 -38 -20 26 -65 66 -47 177 -154 219 -210 65 -87
154 -260 154 -300 0 -13 5 -27 10 -30 13 -8 13 -50 0 -112 -5 -26 -13 -75 -16
-108 l-6 -60 -16 35 c-8 19 -24 55 -36 80 -11 24 -20 47 -20 50 14 57 14 80 0
80 -8 0 -21 -7 -30 -15 -13 -14 -16 -13 -26 5 -12 23 -4 80 11 80 5 0 9 9 9
20 0 11 -6 20 -14 20 -16 0 -46 -26 -46 -41 0 -5 -4 -9 -10 -9 -5 0 -10 5 -10
10 0 6 -15 23 -32 39 -27 24 -31 32 -20 42 11 12 18 69 8 69 -18 0 -36 -15
-36 -29 0 -29 -11 -32 -41 -10 -35 25 -36 30 -3 68 21 25 24 34 14 46 -16 19
-36 9 -59 -31 -19 -31 -22 -33 -45 -23 -14 7 -27 18 -30 26 -7 16 17 68 46 99
17 19 17 22 3 34 -19 16 -37 3 -60 -46 -20 -43 -40 -52 -65 -29 -29 27 -25 46
25 104 38 44 43 56 33 68 -10 13 -18 9 -50 -27 -21 -23 -42 -49 -47 -58 -13
-23 -41 2 -41 38 0 26 31 77 57 93 18 11 16 37 -2 37 -9 0 -27 -12 -42 -26
-33 -34 -39 -25 -18 30 34 89 130 158 264 191 76 18 141 19 141 2z m147 -37
l4 -45 -36 -3 c-31 -2 -37 2 -45 25 -6 16 -15 36 -20 45 -16 28 -13 29 42 26
l51 -3 4 -45z m109 37 c2 -1 0 -21 -3 -45 -5 -35 -9 -42 -28 -42 -18 0 -25 8
-34 44 -6 25 -11 48 -11 51 0 6 70 -2 76 -8z m104 -19 c0 -21 -34 -88 -44 -88
-28 1 -38 18 -31 51 4 19 9 37 12 42 7 12 63 8 63 -5z m159 -33 c39 -19 75
-35 79 -35 12 0 62 -47 62 -58 0 -6 -22 -8 -60 -5 -35 3 -60 2 -60 -4 0 -22
28 -33 82 -33 l58 0 0 -40 c0 -41 0 -41 -32 -35 -62 11 -98 12 -103 5 -8 -13
23 -32 74 -44 l49 -11 -16 -38 c-12 -26 -21 -36 -32 -31 -44 16 -131 36 -136
31 -13 -12 6 -37 27 -37 19 0 85 -18 98 -27 8 -5 -32 -83 -43 -83 -6 1 -36 7
-67 14 -36 9 -62 10 -72 4 -29 -15 -19 -25 31 -32 68 -10 82 -16 82 -33 0 -12
-26 -69 -47 -102 -1 -2 -9 2 -18 9 -15 12 -119 9 -133 -5 -13 -13 21 -28 75
-32 32 -3 59 -6 61 -8 2 -1 -11 -24 -27 -51 -17 -26 -31 -42 -31 -34 0 7 -3
10 -6 7 -4 -3 -15 -2 -25 4 -13 6 -28 5 -50 -4 -31 -12 -31 -13 -14 -31 11
-11 27 -16 42 -13 31 6 36 -4 17 -41 -14 -28 -17 -30 -45 -20 -16 5 -41 7 -56
4 -25 -7 -26 -7 -19 36 3 24 10 66 16 93 5 28 14 75 19 105 28 157 97 353 156
444 9 13 13 31 9 40 -6 17 -39 22 -48 7 -6 -9 -56 -2 -56 8 0 14 43 96 54 103
18 12 30 10 105 -27z m-275 -87 c61 -10 136 -45 136 -63 0 -6 -4 -15 -9 -20
-13 -14 -86 -238 -101 -310 -7 -33 -18 -78 -25 -100 l-12 -40 -28 63 c-16 34
-32 62 -37 62 -4 0 -8 7 -8 15 0 22 -109 182 -157 230 -22 22 -59 55 -81 74
-23 18 -42 40 -42 47 0 14 40 28 120 44 60 11 171 11 244 -2z m607 -134 c8 -8
26 -14 38 -14 28 0 76 -33 116 -79 17 -19 44 -49 61 -65 38 -38 102 -134 133
-201 13 -27 27 -57 31 -65 4 -8 13 -40 20 -70 8 -30 17 -59 22 -64 4 -6 8 -20
8 -33 0 -13 4 -31 9 -41 15 -26 90 -260 117 -361 8 -30 18 -60 23 -65 4 -6 13
-29 19 -51 6 -22 20 -69 31 -105 18 -58 90 -337 104 -400 3 -14 10 -41 15 -60
56 -198 64 -280 27 -280 -8 0 -49 -18 -92 -40 -43 -22 -88 -40 -100 -40 -13 0
-23 -4 -23 -9 0 -9 -49 -24 -85 -25 -33 -2 -62 15 -76 43 -7 14 -21 38 -31 53
-10 14 -18 31 -18 37 0 11 -31 86 -51 123 -5 10 -9 25 -9 33 0 8 -4 23 -9 33
-28 55 -53 118 -81 202 -17 52 -35 104 -40 115 -4 11 -11 29 -13 40 -10 37
-58 169 -65 179 -5 6 -14 31 -22 56 -7 25 -17 49 -22 55 -4 5 -8 17 -8 26 0 9
-7 19 -15 22 -8 4 -24 24 -35 47 -22 43 -45 59 -61 43 -11 -11 21 -94 68 -172
18 -30 33 -60 33 -65 0 -6 7 -24 15 -40 21 -41 66 -171 77 -226 25 -123 39
-392 25 -490 -13 -92 -66 -223 -108 -268 -10 -12 -19 -25 -19 -29 0 -5 -18
-20 -40 -35 -40 -25 -43 -26 -208 -23 -122 1 -182 7 -222 19 -30 9 -73 21 -95
27 -88 25 -93 28 -104 77 -6 26 -15 76 -21 112 -15 100 -12 581 6 765 8 88 19
207 24 265 5 58 13 137 19 175 6 39 11 73 11 77 0 3 12 2 28 -4 27 -10 27 -12
24 -79 -4 -63 -3 -69 15 -69 17 0 21 9 26 53 11 101 80 277 150 384 15 23 27
46 27 52 0 6 3 11 8 11 4 0 13 15 20 33 26 61 77 162 105 204 15 23 27 48 27
56 0 9 3 17 8 19 11 5 52 87 52 105 0 38 18 51 67 46 26 -3 55 -12 64 -19z
m-508 -656 c-3 -13 -9 -27 -13 -33 -4 -5 -10 -22 -14 -37 -5 -23 -12 -28 -36
-28 -49 0 -49 -1 -34 88 5 31 6 32 54 32 45 0 48 -1 43 -22z m1342 -1365 c17
-25 17 -27 -1 -40 -10 -7 -21 -13 -25 -13 -6 0 -39 56 -39 66 0 2 23 10 41 13
4 0 15 -11 24 -26z m-84 -44 c9 -17 8 -25 -5 -37 -19 -19 -30 -10 -40 31 -5
22 -3 27 13 27 11 0 25 -10 32 -21z m-87 -15 c8 -22 8 -54 -1 -54 -27 1 -47
42 -30 59 15 15 24 14 31 -5z m-2654 -4 c0 -10 -30 -91 -37 -100 -2 -2 -8 1
-12 8 -5 8 1 32 12 58 19 41 37 57 37 34z m2585 -47 c5 -20 3 -23 -19 -23 -21
0 -26 5 -26 24 0 24 19 40 31 27 4 -3 10 -16 14 -28z m-2505 22 c0 -3 -4 -13
-9 -23 -5 -9 -14 -29 -20 -44 -6 -16 -17 -28 -26 -28 -18 0 -18 -3 1 53 11 34
21 47 35 47 10 0 19 -2 19 -5z m85 -47 c-9 -40 -23 -78 -29 -78 -2 0 -11 3
-20 6 -35 14 -7 104 32 104 21 0 23 -3 17 -32z m2332 12 c-2 -27 -29 -35 -44
-14 -20 27 -16 34 16 34 23 0 29 -4 28 -20z m-2240 -32 c-10 -65 -14 -73 -35
-76 -17 -3 -22 2 -22 19 0 42 23 89 43 89 16 0 18 -5 14 -32z m143 -8 c0 -46
-40 -89 -76 -82 -20 4 -24 10 -24 41 0 47 14 61 62 61 31 0 38 -3 38 -20z
m436 -142 c-4 -24 -9 -61 -12 -83 -3 -22 -7 -41 -9 -43 -12 -12 -36 77 -30
112 7 50 12 56 37 56 19 0 20 -4 14 -42z m470 27 c-3 -8 -8 -38 -12 -67 -6
-52 -26 -88 -48 -88 -7 0 -11 27 -11 75 0 75 0 76 30 84 43 13 48 13 41 -4z
m87 -60 c-1 -39 -2 -83 -3 -99 l-1 -28 -24 28 c-28 33 -29 40 -14 118 9 43 16
56 28 54 13 -3 16 -16 14 -73z m-471 -5 c-5 -119 -11 -140 -38 -140 -29 0 -30
10 -12 123 11 69 15 77 33 75 18 -3 20 -9 17 -58z m95 -34 c-3 -45 -8 -89 -12
-98 -8 -20 -44 -24 -46 -5 -7 59 15 177 34 189 23 14 29 -7 24 -86z m173 11
c0 -77 -9 -107 -32 -107 -7 0 -1 150 8 178 2 6 8 12 14 12 6 0 10 -33 10 -83z
m-71 34 c-1 -14 -6 -55 -13 -91 -9 -56 -14 -65 -33 -68 -13 -2 -23 0 -23 5 1
51 22 178 31 184 21 12 39 -2 38 -30z m358 -53 c-6 -91 -15 -112 -44 -101 -10
4 -11 9 -4 16 6 6 11 41 11 78 0 78 6 99 28 99 13 0 14 -13 9 -92z m89 -1 c-3
-33 -6 -71 -6 -83 0 -21 -5 -24 -32 -23 -18 0 -27 3 -20 6 7 3 12 25 12 58 0
85 8 114 32 107 19 -5 20 -10 14 -65z m108 36 c-1 -7 -2 -42 -2 -78 l-2 -65
-36 0 -36 0 7 73 c4 39 9 76 12 80 8 13 58 3 57 -10z m184 -15 c-1 -18 -4 -37
-7 -43 -3 -5 -6 -17 -6 -25 -4 -45 -6 -50 -25 -50 -17 0 -20 7 -20 48 0 79 8
94 53 101 4 0 6 -14 5 -31z m48 -59 l-15 -34 6 50 c6 66 16 89 21 49 1 -17 -4
-47 -12 -65z m-148 9 c-2 -60 -6 -73 -20 -76 -16 -3 -18 6 -18 72 0 70 2 76
20 76 19 0 21 -5 18 -72z"/>
<path d="M1687 1783 c-21 -5 -47 -53 -47 -86 0 -13 12 -37 27 -52 22 -21 34
-26 60 -22 44 7 73 37 80 81 10 64 -42 99 -120 79z m57 -58 c14 -14 14 -18 -2
-35 -9 -11 -22 -20 -29 -20 -16 0 -17 42 -1 58 15 15 14 15 32 -3z"/>
<path d="M1661 1411 c-27 -18 -40 -63 -25 -92 16 -33 56 -59 89 -59 61 0 100
94 55 135 -22 20 -98 31 -119 16z m63 -47 c23 -9 21 -54 -3 -54 -24 0 -45 25
-37 45 6 16 16 18 40 9z"/>
<path d="M1670 1000 c-34 -34 -35 -66 -6 -105 24 -31 32 -35 71 -35 33 0 50 6
65 22 35 37 21 118 -20 118 -11 0 -20 5 -20 10 0 18 -69 11 -90 -10z m81 -40
c9 0 13 -43 4 -52 -3 -3 -17 -3 -30 0 -18 3 -25 11 -25 26 0 28 10 38 28 31 7
-3 18 -5 23 -5z"/>
</g>
</svg>
