<?xml version="1.0" standalone="no"?>
<!DOCTYPE svg PUBLIC "-//W3C//DTD SVG 20010904//EN"
 "http://www.w3.org/TR/2001/REC-SVG-20010904/DTD/svg10.dtd">
<svg version="1.0" xmlns="http://www.w3.org/2000/svg"
 width="521.000000pt" height="381.000000pt" viewBox="0 0 521.000000 381.000000"
 preserveAspectRatio="xMidYMid meet">
<metadata>
Created by potrace 1.16, written by Peter Selinger 2001-2019
</metadata>
<g transform="translate(0.000000,381.000000) scale(0.100000,-0.100000)"
fill="#000000" stroke="none">
<path d="M2240 3194 c-58 -7 -177 -13 -265 -14 -336 -3 -465 -13 -465 -35 0
-7 -5 -15 -11 -17 -13 -4 -15 -159 -4 -298 13 -156 8 -189 -48 -370 -6 -19
-10 -38 -9 -42 1 -4 -11 -51 -27 -105 -16 -54 -32 -118 -36 -143 -3 -25 -18
-85 -32 -135 -13 -49 -27 -112 -29 -140 -8 -89 -43 -318 -59 -383 -8 -35 -13
-67 -10 -72 3 -5 1 -11 -5 -15 -6 -4 -8 -11 -4 -16 3 -5 -3 -53 -14 -107 -11
-53 -26 -126 -33 -162 -7 -36 -18 -79 -25 -95 -7 -17 -15 -59 -19 -93 -3 -34
-10 -76 -16 -94 -5 -18 -9 -44 -9 -58 0 -14 -7 -37 -14 -52 -8 -15 -15 -40
-15 -55 0 -16 -2 -40 -4 -55 -3 -18 2 -33 14 -44 17 -15 30 -16 132 -5 142 14
206 13 282 -3 33 -7 82 -11 110 -9 27 2 88 -1 135 -7 47 -7 117 -13 155 -15
66 -4 107 -9 250 -35 33 -6 80 -13 105 -15 82 -8 125 -17 157 -32 21 -9 45
-13 65 -9 28 5 37 14 60 63 14 32 29 74 33 93 6 31 12 49 45 125 5 11 14 58
20 105 6 47 20 119 30 160 10 41 26 104 34 139 23 96 30 96 52 -1 50 -215 67
-300 71 -358 3 -36 16 -98 29 -139 13 -40 24 -86 24 -101 0 -51 34 -54 250
-25 58 8 143 17 190 20 47 3 119 8 160 10 78 6 219 19 380 35 52 6 102 9 110
8 12 -2 123 7 215 17 11 1 59 6 107 10 51 5 93 13 99 21 14 17 19 63 9 89 -4
11 -11 43 -14 70 -4 28 -9 58 -12 67 -3 9 -7 25 -9 35 -2 10 -9 32 -14 48 -6
17 -23 73 -37 125 -14 52 -30 99 -35 105 -5 5 -9 15 -9 22 0 7 -11 36 -24 65
-13 29 -32 82 -41 118 -9 36 -25 83 -35 105 -10 22 -26 69 -35 105 -9 36 -21
70 -26 76 -5 6 -7 13 -4 16 3 2 -4 31 -15 64 -11 32 -20 66 -20 75 0 8 -11 37
-24 65 -12 27 -33 83 -45 124 -13 41 -36 100 -51 130 -16 30 -36 78 -44 105
-8 28 -29 86 -46 130 -48 124 -71 189 -72 205 -1 8 -9 27 -19 41 -10 14 -16
35 -13 46 3 12 1 45 -5 75 -6 29 -13 94 -16 143 -3 50 -8 99 -10 110 -2 11 -4
39 -4 61 -1 46 4 42 -106 65 -77 16 -116 21 -160 20 -22 0 -78 4 -125 10 -47
6 -116 12 -155 14 -38 1 -99 5 -135 9 -36 3 -193 8 -350 11 -157 3 -301 7
-320 9 -19 2 -82 -3 -140 -10z m520 -109 c267 -7 412 -14 535 -25 55 -6 134
-13 175 -16 100 -7 146 -18 142 -33 -1 -7 2 -18 7 -25 5 -6 14 -49 21 -96 6
-47 15 -101 20 -119 5 -19 8 -36 6 -38 -8 -9 -247 -5 -258 4 -8 7 -45 8 -103
3 -49 -4 -102 -6 -116 -4 -42 5 -126 5 -239 0 -64 -3 -138 1 -191 9 -80 14
-253 23 -549 30 -312 8 -396 6 -455 -8 -33 -7 -77 -12 -97 -9 -48 5 -56 30
-62 184 l-5 116 42 5 c49 7 238 12 352 9 44 -1 123 4 175 11 93 13 173 13 600
2z m-553 -422 c8 -20 -23 -128 -54 -188 -36 -70 -116 -175 -214 -279 -95 -101
-161 -153 -246 -193 -32 -15 -59 -31 -61 -35 -2 -5 -10 -8 -18 -8 -8 0 -14 -4
-14 -10 0 -5 -7 -10 -15 -10 -9 0 -27 -7 -41 -16 -14 -10 -49 -18 -80 -19
l-54 -2 6 36 c4 20 16 63 26 96 11 33 21 74 24 90 8 64 27 144 54 230 16 50
31 106 35 125 25 122 56 164 130 175 28 3 70 10 95 14 25 4 130 8 233 8 155 0
190 -3 194 -14z m508 -23 c17 -6 75 -12 133 -11 75 0 102 -4 102 -13 0 -17
124 -211 171 -268 21 -26 39 -49 39 -53 0 -8 57 -71 105 -117 22 -21 58 -56
80 -78 22 -21 62 -49 90 -60 27 -12 52 -24 55 -28 8 -11 63 -36 83 -38 9 -1
25 -8 35 -16 9 -9 42 -19 72 -22 30 -4 59 -11 65 -15 11 -9 59 -23 91 -27 54
-6 103 -26 116 -47 15 -22 78 -212 78 -234 0 -16 107 -341 125 -378 12 -26 37
-102 107 -325 6 -19 12 -44 13 -55 2 -11 8 -39 15 -63 7 -23 11 -44 8 -47 -10
-10 -116 -26 -203 -31 -88 -5 -150 -11 -150 -14 0 -3 -91 -9 -215 -14 -185 -7
-394 -24 -492 -41 -48 -9 -122 -17 -166 -19 l-80 -4 -17 44 c-9 24 -23 87 -31
140 -8 53 -17 100 -19 104 -3 5 -12 48 -20 97 -9 48 -30 140 -47 203 -16 63
-35 133 -41 155 -6 22 -19 55 -30 73 -18 30 -23 33 -60 30 -47 -3 -52 -14 -61
-121 -2 -34 -14 -87 -26 -117 -12 -30 -23 -71 -26 -90 -3 -19 -11 -57 -19 -85
-8 -27 -17 -63 -19 -80 -2 -16 -6 -41 -10 -55 -3 -14 -8 -43 -10 -65 -4 -35
-43 -158 -78 -249 l-11 -28 -81 7 c-45 3 -110 13 -146 20 -142 31 -240 45
-337 49 -57 3 -107 7 -112 10 -5 3 -65 8 -134 11 -68 3 -142 11 -163 19 -38
13 -97 14 -232 2 l-63 -5 7 52 c4 28 13 81 21 117 8 36 18 93 22 127 5 34 11
65 14 70 11 17 57 254 62 320 3 37 8 76 11 85 3 9 7 26 9 38 2 12 7 29 9 38 3
9 12 61 21 116 8 54 16 101 19 103 2 2 30 11 63 20 32 8 65 20 73 26 27 21 59
37 75 37 8 0 15 5 15 10 0 6 6 10 13 10 7 0 56 26 110 58 96 57 245 182 302
254 17 20 49 58 72 84 63 70 128 172 148 234 10 30 23 71 30 90 7 19 14 40 15
45 8 32 13 33 193 30 113 -2 193 -7 212 -15z m850 -24 c150 -4 142 -3 128 -17
-7 -7 -8 -19 -3 -33 5 -11 16 -48 26 -81 9 -33 21 -65 25 -70 8 -11 26 -59 69
-187 27 -80 45 -122 85 -200 12 -24 12 -28 0 -28 -8 0 -15 5 -15 11 0 5 -5 7
-10 4 -21 -13 -217 47 -326 100 -95 46 -121 65 -187 132 -42 43 -99 110 -128
148 -28 39 -56 72 -60 73 -5 2 -9 10 -9 18 0 8 -3 14 -8 14 -4 0 -16 16 -26
35 -11 19 -22 35 -26 35 -6 0 -30 44 -30 55 0 8 187 10 275 2 50 -4 149 -9
220 -11z"/>
</g>
</svg>
