<?xml version="1.0" standalone="no"?>
<!DOCTYPE svg PUBLIC "-//W3C//DTD SVG 20010904//EN"
 "http://www.w3.org/TR/2001/REC-SVG-20010904/DTD/svg10.dtd">
<svg version="1.0" xmlns="http://www.w3.org/2000/svg"
 width="507.000000pt" height="253.000000pt" viewBox="0 0 507.000000 253.000000"
 preserveAspectRatio="xMidYMid meet">
<metadata>
Created by potrace 1.16, written by Peter Selinger 2001-2019
</metadata>
<g transform="translate(0.000000,253.000000) scale(0.100000,-0.100000)"
fill="#000000" stroke="none">
<path d="M2619 1911 c-8 -5 -67 -15 -130 -21 -63 -6 -130 -15 -149 -20 -19 -5
-74 -18 -122 -30 -94 -22 -178 -54 -178 -68 0 -5 -37 -22 -82 -37 -46 -15 -88
-32 -94 -37 -20 -15 -136 -58 -144 -53 -5 3 -10 1 -12 -3 -5 -13 -209 -112
-230 -112 -10 0 -18 -3 -18 -8 0 -9 -39 -26 -100 -45 -25 -8 -75 -28 -112 -46
-36 -17 -75 -31 -85 -31 -10 0 -47 -10 -83 -21 -36 -12 -78 -21 -94 -21 -17 1
-49 -8 -72 -19 -68 -30 -88 -26 -104 21 -11 34 -17 40 -42 40 -23 0 -28 -4
-28 -25 0 -14 6 -40 14 -59 13 -32 12 -46 -11 -171 -6 -32 -6 -85 0 -91 2 -2
18 3 36 12 31 16 33 19 27 56 -4 26 -3 37 4 33 16 -10 37 -12 170 -20 69 -4
127 -10 130 -14 6 -8 26 -11 120 -18 63 -4 81 -10 113 -35 21 -16 59 -37 85
-45 26 -9 49 -19 52 -22 17 -20 102 -60 153 -72 64 -16 224 -90 255 -119 23
-22 76 -50 94 -50 29 0 87 -21 108 -40 13 -11 30 -20 40 -20 9 0 21 -5 26 -10
6 -6 21 -12 35 -15 23 -4 74 -16 149 -35 64 -16 264 -59 325 -69 115 -20 221
-25 456 -24 212 1 248 4 365 28 71 14 161 38 199 52 39 14 92 27 119 30 34 4
50 10 53 22 2 9 13 21 23 26 10 6 54 30 97 53 43 24 103 54 134 67 56 22 80
38 128 85 15 14 53 45 86 70 33 24 66 50 72 56 7 7 26 15 43 19 16 4 32 11 35
16 12 18 22 9 45 -38 12 -27 25 -54 29 -61 3 -8 9 -13 14 -13 4 1 15 1 25 1
27 0 47 47 30 69 -32 39 -47 81 -46 123 0 25 -2 51 -6 56 -3 6 -2 13 3 17 6 3
4 22 -5 48 -9 23 -16 65 -17 92 -2 44 -5 50 -26 53 -33 5 -44 -11 -44 -63 l1
-46 -42 5 c-45 5 -82 19 -136 52 -19 11 -52 26 -72 33 -21 7 -38 18 -38 25 0
19 -35 56 -54 56 -9 0 -25 -9 -36 -20 -21 -21 -21 -21 -48 -1 -15 10 -49 22
-75 26 -31 5 -51 14 -58 26 -5 11 -18 19 -28 19 -11 0 -49 9 -85 20 -52 16
-66 25 -66 40 0 19 -13 24 -50 22 -18 -1 -80 27 -98 45 -7 7 -19 13 -26 13 -7
0 -21 8 -30 19 -9 10 -31 22 -49 25 -18 3 -57 18 -87 32 -30 15 -64 30 -75 34
-11 5 -55 24 -97 44 -75 34 -94 41 -148 50 -14 3 -47 9 -75 15 -88 19 -108 21
-240 27 -79 3 -136 1 -146 -5z m78 -79 c1 -40 13 -154 20 -182 3 -14 8 -53 10
-87 l5 -62 -49 -22 c-48 -23 -60 -24 -223 -19 -25 1 -58 1 -75 0 -39 -2 -66
14 -89 53 -21 37 -25 57 -29 184 l-4 92 28 11 c15 7 33 9 38 5 6 -3 11 -2 11
2 0 9 176 33 240 33 19 0 41 4 48 9 7 4 26 8 41 9 24 0 28 -3 28 -26z m236 6
c51 -14 59 -15 122 -24 27 -3 68 -15 92 -26 39 -18 41 -21 31 -44 -8 -18 -8
-34 2 -63 21 -65 -8 -189 -45 -192 -22 -2 -26 -3 -69 -22 -21 -9 -50 -17 -65
-17 -14 0 -46 0 -71 0 -36 -1 -50 4 -65 22 -32 37 -45 66 -45 98 0 17 -7 75
-16 129 -22 131 -18 145 42 149 25 1 65 -3 87 -10z m-762 -159 c1 -43 2 -82 4
-86 6 -24 18 -90 20 -107 1 -25 -14 -48 -26 -40 -5 3 -9 1 -9 -4 0 -9 -24 -20
-55 -26 -5 -1 -17 -5 -25 -8 -197 -76 -270 -53 -255 81 3 31 7 75 8 98 2 39 5
44 42 61 64 31 97 43 102 38 3 -2 21 5 41 17 73 42 126 65 139 60 9 -4 13 -29
14 -84z m1179 18 c19 -9 79 -36 133 -61 54 -25 101 -46 104 -46 2 0 11 -6 18
-14 11 -11 11 -18 -1 -41 -8 -15 -14 -41 -14 -59 0 -17 -6 -39 -14 -48 -15
-20 -86 -37 -139 -33 -58 4 -126 58 -132 105 0 3 -5 12 -10 20 -6 8 -10 58
-10 111 0 82 2 95 15 89 8 -4 31 -14 50 -23z m-1624 -214 c-1 -57 4 -106 10
-117 11 -18 5 -22 -73 -48 -46 -15 -88 -26 -92 -24 -4 3 -23 1 -43 -3 -30 -7
-41 -5 -57 11 -12 10 -21 26 -22 36 0 9 -2 39 -3 65 l-2 48 111 54 c62 30 122
56 133 58 12 2 25 6 28 10 4 4 8 7 9 7 1 0 2 -44 1 -97z m2115 3 c14 -3 31
-17 39 -30 7 -14 16 -24 19 -23 24 6 111 -18 133 -36 l28 -23 -34 -50 c-40
-59 -52 -65 -122 -67 -59 -1 -124 31 -124 61 0 10 -4 22 -8 28 -12 13 -35 141
-28 152 4 6 19 7 39 1 17 -4 44 -10 58 -13z m-601 -94 c0 -20 40 -59 78 -79
23 -12 132 -28 170 -25 6 1 24 2 39 3 33 2 105 33 96 42 -3 4 4 7 16 7 16 0
21 -5 18 -14 -3 -8 1 -22 8 -33 8 -10 15 -26 15 -35 0 -10 5 -18 10 -18 6 0
10 -6 10 -12 0 -16 60 -58 82 -58 9 0 19 -7 22 -16 5 -13 18 -15 84 -9 88 9
156 38 195 84 l26 31 33 -42 c46 -59 58 -70 101 -96 49 -28 74 -28 142 3 30
14 69 28 87 31 l33 6 -24 -20 c-13 -10 -44 -26 -70 -36 -25 -9 -60 -29 -77
-44 -17 -15 -44 -36 -59 -47 -15 -11 -36 -28 -47 -38 -12 -11 -18 -13 -18 -5
0 31 -22 85 -46 112 -24 28 -90 52 -96 35 -2 -4 -21 -10 -43 -13 -22 -3 -55
-10 -73 -15 -19 -6 -56 -11 -84 -12 -39 -2 -53 -8 -69 -27 -10 -13 -16 -29
-12 -36 12 -18 14 -94 4 -101 -6 -3 -8 -11 -5 -18 3 -8 1 -24 -5 -38 -8 -23
-9 -22 -16 16 -9 49 -46 126 -74 154 -12 12 -21 26 -21 31 0 6 -7 10 -15 10
-7 0 -18 7 -23 16 -5 9 -12 16 -15 15 -4 0 -14 2 -22 5 -8 4 -28 3 -43 0 -15
-4 -49 -8 -77 -10 -27 -1 -68 -9 -90 -16 -22 -8 -44 -14 -50 -15 -5 0 -8 -9
-7 -20 8 -45 -8 -220 -25 -278 -6 -21 -16 -15 -19 11 -1 9 -7 35 -13 57 -6 22
-11 61 -11 87 0 61 -18 143 -41 193 l-19 41 -93 3 c-103 3 -106 3 -198 -5 -66
-6 -66 -6 -77 -42 -18 -66 -30 -176 -25 -229 4 -36 2 -53 -6 -53 -6 0 -11 4
-11 9 0 32 -35 210 -49 249 -14 40 -21 47 -51 53 -19 4 -36 12 -38 18 -2 6 -7
9 -12 6 -4 -2 -41 -7 -81 -10 -147 -10 -187 -17 -193 -31 -8 -22 -23 -17 -30
10 -8 31 -33 37 -180 39 -64 0 -116 5 -116 9 0 11 -51 -21 -67 -42 -7 -8 -15
-28 -19 -45 -6 -27 -8 -28 -14 -10 -5 11 -6 29 -4 40 2 11 -3 29 -11 40 -16
21 -31 22 -223 27 -45 0 -81 2 -80 3 2 1 44 18 94 38 81 32 95 35 134 26 43
-10 126 -3 145 11 6 4 30 13 55 20 56 15 168 60 194 76 20 14 72 9 94 -9 7 -5
33 -7 62 -3 32 4 58 2 73 -5 12 -7 52 -12 88 -12 53 1 81 8 141 36 l75 35 30
-24 c31 -24 50 -30 123 -39 54 -6 256 37 278 59 18 18 32 12 32 -12z m-1890
-24 c0 -24 3 -52 5 -63 4 -16 -4 -25 -37 -44 -42 -24 -50 -26 -120 -37 -54 -9
-93 21 -93 71 0 30 4 37 25 41 59 13 127 38 149 55 13 11 34 19 47 19 21 0 24
-5 24 -42z m2872 -38 c7 0 30 -12 51 -26 21 -14 47 -27 59 -29 12 -3 26 -9 32
-15 5 -5 18 -10 29 -10 29 0 11 -17 -36 -33 -61 -20 -95 -6 -126 56 -8 15 -18
27 -23 27 -4 0 -8 6 -8 14 0 8 -11 17 -25 20 -14 4 -25 11 -25 16 0 6 13 4 30
-5 16 -8 35 -15 42 -15z m-3215 -42 c4 -7 8 -17 9 -23 2 -5 6 -25 10 -44 6
-30 5 -33 -12 -28 -10 4 -58 9 -106 12 -64 4 -88 2 -88 -7 0 -6 -3 -9 -6 -5
-3 3 -3 19 1 36 6 26 11 31 36 31 17 0 39 9 51 20 25 23 92 28 105 8z m476
-105 c20 -4 27 -11 27 -29 0 -13 -4 -24 -10 -24 -5 0 -13 -12 -16 -26 -6 -22
-11 -25 -32 -19 -14 3 -41 20 -59 36 -19 16 -41 29 -50 29 -21 0 -9 13 32 35
17 9 40 13 55 10 14 -4 37 -9 53 -12z m293 -89 l81 -6 2 -79 c2 -95 -4 -100
-80 -66 -30 14 -72 30 -94 36 -22 7 -57 19 -77 28 -34 14 -36 17 -25 42 6 14
14 31 18 36 10 13 75 17 175 9z m486 -38 c6 -11 12 -72 14 -136 3 -121 6 -145
17 -156 4 -4 7 -15 7 -25 0 -16 -4 -17 -26 -9 -15 6 -47 15 -72 21 -24 5 -55
18 -68 28 -13 10 -51 24 -84 31 -34 7 -64 19 -67 26 -3 7 4 26 15 41 11 15 23
48 27 73 3 25 11 62 16 82 9 37 10 37 67 40 134 7 142 6 154 -16z m402 -48 c4
-24 10 -68 13 -98 2 -30 9 -62 14 -72 5 -9 9 -46 9 -83 0 -40 6 -78 16 -96
l15 -30 -58 6 c-32 4 -83 14 -113 22 -53 14 -128 32 -141 33 -8 0 -5 77 6 185
4 39 8 93 8 120 l2 50 99 2 c54 1 101 5 104 7 10 11 20 -5 26 -46z m465 38 c7
-5 12 -20 26 -91 3 -12 16 -118 21 -165 2 -19 7 -48 11 -65 5 -16 8 -50 8 -75
l0 -45 -85 -1 c-114 -1 -172 6 -167 20 19 49 18 57 -1 63 -32 8 -39 42 -42
203 -2 147 -2 148 55 155 21 3 40 7 42 9 6 6 121 -2 132 -8z m974 -86 c5 -19
14 -41 19 -48 6 -7 9 -14 7 -15 -6 -4 -114 -55 -141 -67 -23 -10 -40 -20 -90
-52 -35 -24 -38 -23 -28 15 5 17 11 61 15 97 6 68 20 90 59 90 12 0 28 5 36
10 8 6 37 9 64 8 48 -3 50 -5 59 -38z m-512 19 c26 -14 89 -152 95 -208 2 -24
9 -50 15 -57 8 -9 4 -16 -13 -25 -13 -7 -27 -14 -33 -16 -159 -39 -272 -62
-279 -56 -2 2 5 44 15 94 11 50 21 117 25 148 3 31 10 70 15 88 9 29 14 32 57
36 26 2 55 4 65 5 10 1 27 -3 38 -9z m-781 -196 c0 -24 -3 -33 -9 -25 -7 12
-4 62 5 62 2 0 4 -17 4 -37z m20 -123 c6 -34 5 -40 -8 -38 -9 2 -15 6 -14 11
1 4 2 24 2 44 0 45 10 37 20 -17z"/>
</g>
</svg>
