<?xml version="1.0" standalone="no"?>
<!DOCTYPE svg PUBLIC "-//W3C//DTD SVG 20010904//EN"
 "http://www.w3.org/TR/2001/REC-SVG-20010904/DTD/svg10.dtd">
<svg version="1.0" xmlns="http://www.w3.org/2000/svg"
 width="449.000000pt" height="391.000000pt" viewBox="0 0 449.000000 391.000000"
 preserveAspectRatio="xMidYMid meet">
<metadata>
Created by potrace 1.16, written by Peter Selinger 2001-2019
</metadata>
<g transform="translate(0.000000,391.000000) scale(0.100000,-0.100000)"
fill="#000000" stroke="none">
<path d="M3610 3745 c-14 -8 -22 -14 -18 -15 4 0 4 -10 -1 -23 -7 -18 -5 -26
7 -34 10 -5 26 -34 36 -64 11 -30 23 -56 27 -59 4 -3 14 -30 21 -60 10 -40 21
-58 38 -67 14 -7 25 -11 27 -10 7 7 11 82 5 87 -4 3 -15 30 -26 60 -10 30 -22
57 -27 61 -5 3 -13 27 -18 53 -5 27 -17 57 -27 67 -17 16 -22 16 -44 4z"/>
<path d="M671 3461 c-17 -21 -31 -46 -31 -54 0 -8 -11 -35 -25 -58 -29 -52
-31 -77 -8 -94 26 -20 41 -8 69 56 15 32 30 59 34 59 4 0 11 8 14 18 3 9 12
27 20 40 7 12 11 34 8 47 -7 39 -44 33 -81 -14z"/>
<path d="M3778 3243 c-1 -19 0 -27 8 -78 2 -16 6 -51 8 -76 2 -26 6 -50 8 -55
3 -5 9 -23 12 -41 9 -39 29 -57 56 -48 24 8 25 28 4 86 -9 24 -17 80 -19 123
-2 63 -7 83 -21 93 -25 18 -54 16 -56 -4z"/>
<path d="M3108 3164 c-3 -3 -35 -9 -70 -14 -88 -13 -171 -58 -240 -133 -32
-34 -57 -67 -58 -74 0 -6 -4 -13 -9 -15 -6 -1 -7 -22 -4 -45 9 -66 65 -73 92
-11 21 47 94 116 149 140 64 29 218 30 262 3 8 -5 20 -10 27 -11 32 -5 90 -28
108 -44 25 -21 60 -23 76 -4 9 11 9 17 -1 29 -7 8 -8 15 -3 15 5 0 15 11 21
24 13 28 0 46 -34 46 -12 0 -35 6 -51 14 -68 34 -165 66 -211 69 -18 1 -32 5
-32 10 0 8 -14 9 -22 1z"/>
<path d="M1403 3059 c-126 -46 -217 -91 -265 -128 -51 -41 -56 -48 -51 -76 8
-44 29 -58 63 -40 15 8 30 21 33 29 7 19 140 82 192 91 22 4 54 10 70 14 69
14 168 5 220 -21 114 -56 155 -82 160 -98 14 -46 100 33 107 97 3 26 0 28 -32
28 -21 1 -74 20 -130 47 -52 25 -111 51 -130 57 -36 11 -206 11 -237 0z"/>
<path d="M463 2892 c-7 -4 -16 -60 -22 -137 -9 -117 -9 -131 6 -142 9 -7 23
-13 30 -13 19 0 21 11 26 124 3 59 10 102 17 106 6 4 10 20 8 36 -2 22 -9 30
-28 32 -14 1 -30 -1 -37 -6z"/>
<path d="M1476 2798 c-10 -6 -36 -28 -57 -49 -22 -22 -45 -39 -52 -39 -7 0
-18 -13 -24 -30 -19 -51 3 -110 53 -140 62 -39 98 -22 177 82 23 30 27 45 27
101 0 61 -2 67 -22 71 -63 13 -85 14 -102 4z"/>
<path d="M3078 2747 c-27 -10 -28 -14 -28 -80 0 -62 3 -71 29 -98 16 -16 37
-29 46 -29 22 0 66 24 87 46 19 23 35 80 30 112 -8 49 -97 76 -164 49z"/>
<path d="M3900 2612 c-26 -9 -31 -25 -24 -82 3 -30 6 -57 7 -60 0 -3 -5 -39
-11 -80 -7 -41 -14 -86 -16 -99 -3 -16 5 -33 21 -49 30 -30 39 -21 42 48 1 27
4 59 7 72 3 13 8 70 11 128 6 110 -2 134 -37 122z"/>
<path d="M482 2294 c-10 -11 -11 -18 -2 -29 6 -7 10 -19 9 -27 -4 -22 12 -117
31 -185 10 -34 17 -63 14 -63 -2 0 3 -11 12 -25 10 -16 26 -25 41 -25 22 0 24
3 19 23 -4 12 -9 31 -11 42 -2 11 -13 56 -24 100 -11 44 -20 101 -21 127 0 66
-36 99 -68 62z"/>
<path d="M3839 1989 c-6 -13 -14 -41 -15 -63 -2 -22 -11 -62 -20 -89 -21 -63
-42 -166 -36 -172 3 -3 16 -5 28 -5 26 0 59 51 50 76 -3 8 -2 24 3 37 44 111
52 194 22 221 -19 17 -20 17 -32 -5z"/>
<path d="M2489 1911 c-30 -23 -84 -51 -112 -58 -45 -10 -124 -9 -175 4 -29 7
-60 13 -68 13 -44 0 -53 -71 -13 -101 23 -17 71 -29 122 -29 15 0 27 -4 27 -8
0 -10 87 -7 115 3 11 4 40 16 64 26 24 11 49 19 55 19 6 0 24 11 39 25 39 37
38 89 -2 109 -26 14 -31 14 -52 -3z"/>
<path d="M693 1633 c-15 -5 -18 -64 -5 -78 5 -6 16 -28 24 -50 9 -22 33 -75
53 -117 35 -73 39 -77 67 -73 17 2 32 6 35 9 3 2 -13 40 -35 83 -66 127 -89
176 -96 206 -6 26 -17 31 -43 20z"/>
<path d="M3672 1467 c-6 -7 -14 -28 -17 -47 -15 -92 -15 -93 -58 -178 -15 -28
-27 -66 -27 -82 0 -28 2 -30 27 -25 16 2 29 9 31 15 2 6 9 16 15 23 7 6 23 41
36 77 20 55 28 84 41 155 2 6 2 25 1 43 -1 24 -6 32 -20 32 -10 0 -23 -6 -29
-13z"/>
<path d="M2840 1278 c-38 -42 -125 -92 -147 -84 -7 3 -13 1 -13 -4 0 -6 -6
-10 -12 -10 -7 -1 -31 -9 -53 -20 -22 -11 -48 -19 -58 -20 -11 0 -42 -7 -70
-14 -85 -24 -337 -44 -337 -28 0 6 -17 12 -37 14 -52 7 -218 68 -274 101 -57
34 -101 43 -116 25 -21 -26 -23 -65 -5 -80 24 -22 108 -67 166 -89 27 -11 70
-29 95 -40 25 -11 55 -24 66 -29 26 -11 127 -24 185 -23 93 1 175 7 185 14 6
4 30 10 55 14 48 7 212 49 270 69 19 6 74 35 122 65 69 42 86 57 79 69 -5 9
-4 28 1 45 12 33 -1 51 -42 59 -20 4 -33 -3 -60 -34z"/>
<path d="M995 1100 c-18 -20 -18 -22 -1 -58 35 -73 176 -270 176 -246 0 5 5 2
10 -6 6 -10 10 -11 10 -2 0 6 7 12 15 12 26 0 16 29 -32 94 -76 101 -80 108
-111 166 -16 29 -33 55 -39 57 -5 2 -18 -6 -28 -17z"/>
<path d="M3423 853 c-20 -59 -35 -86 -77 -141 -26 -34 -60 -75 -77 -91 -30
-30 -38 -68 -18 -88 28 -28 77 22 180 184 40 63 45 77 40 110 -7 42 -36 58
-48 26z"/>
<path d="M1420 609 c-15 -27 8 -62 58 -88 20 -11 68 -47 105 -80 37 -34 71
-61 75 -61 4 0 17 8 30 18 29 23 23 73 -8 65 -13 -3 -40 15 -88 59 -67 61
-134 108 -152 108 -5 0 -14 -9 -20 -21z"/>
<path d="M3011 356 c-14 -15 -47 -30 -91 -40 -37 -9 -87 -26 -109 -37 -23 -11
-45 -17 -50 -15 -13 8 -54 -41 -48 -58 3 -8 21 -19 39 -24 27 -7 39 -4 68 14
20 13 50 26 68 30 18 4 35 11 38 15 3 5 17 9 32 9 70 0 110 42 97 101 -8 35
-15 36 -44 5z"/>
<path d="M2096 321 c-9 -10 -16 -25 -16 -34 0 -18 48 -47 76 -47 10 0 36 -9
59 -20 22 -11 65 -24 95 -30 29 -6 63 -16 74 -23 12 -8 32 -11 46 -7 20 5 25
12 23 36 -3 34 -26 54 -63 54 -32 0 -130 28 -147 42 -6 5 -39 18 -72 28 -57
17 -61 17 -75 1z"/>
</g>
</svg>
