<?xml version="1.0" standalone="no"?>
<!DOCTYPE svg PUBLIC "-//W3C//DTD SVG 20010904//EN"
 "http://www.w3.org/TR/2001/REC-SVG-20010904/DTD/svg10.dtd">
<svg version="1.0" xmlns="http://www.w3.org/2000/svg"
 width="513.000000pt" height="479.000000pt" viewBox="0 0 513.000000 479.000000"
 preserveAspectRatio="xMidYMid meet">
<metadata>
Created by potrace 1.16, written by Peter Selinger 2001-2019
</metadata>
<g transform="translate(0.000000,479.000000) scale(0.100000,-0.100000)"
fill="#000000" stroke="none">
<path d="M540 4625 c-7 -13 -10 -27 -7 -32 3 -5 9 -32 13 -59 3 -27 10 -56 14
-65 5 -8 8 -30 8 -48 -1 -38 17 -54 44 -38 22 14 22 14 -2 115 -11 46 -20 93
-20 105 0 12 -8 27 -19 34 -15 10 -20 8 -31 -12z"/>
<path d="M4475 4260 c-10 -11 -24 -20 -30 -20 -14 0 -138 -81 -171 -111 -11
-10 -24 -19 -29 -19 -12 0 -139 -86 -155 -105 -7 -8 -17 -15 -22 -15 -5 0 -62
-37 -126 -83 -64 -46 -133 -94 -152 -107 l-35 -23 31 34 c36 39 59 77 59 99 1
8 6 14 13 12 23 -4 13 47 -13 64 -26 17 -45 12 -45 -12 0 -8 -4 -14 -10 -14
-5 0 -10 -5 -10 -11 0 -5 -14 -24 -31 -42 -16 -18 -37 -44 -45 -59 -8 -16 -18
-28 -22 -28 -4 0 -16 -14 -26 -31 -10 -17 -49 -61 -86 -97 -61 -60 -68 -70
-63 -97 9 -49 19 -56 58 -39 19 8 45 14 58 14 13 0 59 9 103 20 43 12 89 18
102 15 13 -3 22 -1 22 6 0 7 3 10 6 6 4 -3 13 0 20 8 8 8 21 12 29 9 8 -3 36
1 63 10 27 9 55 14 63 11 10 -4 18 5 24 27 6 18 16 32 23 30 14 -2 16 13 2 37
-8 15 -16 17 -47 11 -36 -8 -82 -22 -128 -41 -40 -16 -140 -49 -149 -49 -6 0
1 8 14 17 14 9 27 20 30 23 13 15 244 179 415 295 105 70 197 134 206 141 8 8
30 17 47 20 28 6 67 34 46 34 -4 0 1 6 11 14 21 15 15 40 -13 55 -15 8 -23 6
-37 -9z"/>
<path d="M650 4251 c-5 -11 -10 -27 -10 -36 0 -20 39 -98 86 -170 19 -30 31
-55 27 -55 -4 0 5 -11 21 -25 35 -30 53 -32 61 -5 7 23 -2 60 -15 60 -22 0
-105 151 -116 210 -8 41 -37 52 -54 21z"/>
<path d="M998 3829 c-11 -6 -18 -22 -18 -38 0 -31 17 -49 74 -79 21 -11 50
-31 65 -44 14 -13 42 -30 61 -39 19 -9 60 -35 90 -58 52 -39 92 -52 104 -32 9
13 -11 61 -25 61 -9 0 -84 46 -203 126 -16 10 -37 24 -48 30 -26 15 -61 47
-73 67 -8 12 -14 14 -27 6z"/>
<path d="M2397 3674 c-2 -2 -41 -6 -88 -9 -46 -3 -95 -8 -109 -12 -14 -3 -41
-5 -60 -4 -19 1 -63 -7 -96 -18 -49 -14 -92 -18 -202 -18 -137 0 -142 0 -182
-27 -39 -25 -41 -30 -38 -69 3 -35 8 -44 33 -56 29 -14 113 -24 205 -25 86 -1
225 8 235 15 19 13 381 41 475 36 122 -6 272 -26 284 -38 6 -5 23 -9 38 -9 15
0 45 -9 65 -20 21 -11 44 -20 52 -20 29 0 147 -65 176 -97 17 -18 36 -33 42
-33 12 0 63 -46 63 -57 0 -3 11 -14 24 -24 35 -28 73 -119 92 -223 3 -16 10
-41 16 -55 6 -14 12 -42 14 -61 1 -19 5 -60 9 -90 3 -30 8 -73 10 -95 8 -80
18 -125 26 -125 5 0 19 -10 30 -21 21 -21 23 -21 54 -4 63 33 77 109 42 225
-7 25 -15 72 -16 106 -3 71 -4 80 -19 116 -6 15 -9 34 -6 42 3 8 0 25 -7 38
-7 13 -12 27 -11 32 2 4 -2 14 -7 20 -6 7 -12 21 -14 32 -12 61 -76 182 -109
205 -15 11 -28 27 -28 35 0 8 -7 14 -15 14 -8 0 -15 6 -15 13 0 23 -80 97
-105 97 -9 0 -33 11 -55 25 -22 14 -43 25 -47 25 -5 0 -21 7 -38 16 -16 9 -61
25 -100 36 -38 11 -77 26 -86 34 -8 8 -38 16 -65 19 -27 3 -87 11 -134 17 -81
10 -326 19 -333 12z"/>
<path d="M3600 2310 c-8 -5 -10 -10 -5 -10 6 0 3 -4 -5 -10 -12 -8 -12 -11 2
-27 17 -20 88 -194 88 -217 0 -8 5 -18 10 -21 6 -3 10 -14 10 -24 0 -9 6 -26
14 -37 15 -19 15 -19 30 1 21 27 20 48 -4 90 -11 20 -20 42 -20 50 0 9 -4 23
-9 33 -16 28 -45 126 -43 140 4 15 -22 42 -40 42 -7 0 -20 -5 -28 -10z"/>
<path d="M2380 1952 c-14 -2 -29 -8 -34 -13 -6 -5 -11 -55 -12 -111 -3 -132
-8 -167 -28 -206 -13 -24 -14 -37 -6 -52 26 -48 54 -10 74 97 9 48 16 100 16
116 0 15 3 27 8 27 9 0 54 -89 77 -152 19 -52 43 -68 62 -42 17 23 16 35 -1
60 -46 66 -112 216 -102 233 11 17 -28 48 -54 43z"/>
<path d="M3836 1804 c-11 -29 -6 -47 28 -98 43 -66 96 -165 96 -181 0 -7 6
-18 14 -24 11 -9 18 -8 30 4 9 9 16 21 16 26 0 13 -20 52 -30 59 -4 3 -24 39
-45 80 -21 41 -46 92 -57 113 -19 39 -42 48 -52 21z"/>
<path d="M2635 1410 c-16 -26 -7 -71 21 -104 16 -20 49 -63 74 -96 25 -34 52
-70 61 -82 11 -15 21 -19 37 -14 12 4 22 13 22 20 0 25 -33 80 -66 108 -18 16
-50 59 -70 96 -44 79 -64 97 -79 72z"/>
<path d="M4084 1385 c-7 -18 14 -75 27 -75 5 0 9 -5 9 -11 0 -12 31 -81 39
-89 4 -3 15 -23 26 -44 13 -26 30 -42 47 -47 23 -6 27 -3 31 20 4 16 0 30 -9
37 -8 6 -14 14 -14 17 0 3 -16 29 -35 58 -19 30 -35 59 -35 66 0 7 -10 29 -22
48 -24 36 -54 46 -64 20z"/>
<path d="M2281 1346 c-7 -8 -17 -61 -23 -118 -5 -57 -16 -118 -24 -137 -18
-44 -18 -58 4 -70 26 -14 52 11 57 55 3 22 8 59 11 84 3 25 6 52 6 60 -1 8 4
36 10 63 8 36 7 51 -2 62 -16 19 -24 19 -39 1z"/>
<path d="M2942 1048 c-17 -17 -16 -88 1 -88 8 0 40 -30 73 -67 107 -120 113
-126 129 -119 19 7 21 77 3 73 -7 -1 -12 4 -10 11 1 6 -5 12 -13 12 -17 0
-124 127 -126 149 -1 9 -1 20 0 25 1 5 -5 4 -13 -4 -13 -10 -16 -10 -16 4 0
19 -11 21 -28 4z"/>
<path d="M4296 1045 c-3 -8 -1 -17 4 -20 5 -3 20 -28 32 -55 13 -28 28 -50 34
-50 6 0 39 -31 75 -70 35 -38 67 -70 71 -70 16 0 46 34 41 46 -5 13 -90 104
-97 104 -11 0 -66 63 -72 83 -3 12 -10 27 -15 33 -13 16 -66 15 -73 -1z"/>
<path d="M2222 813 c-1 -10 -5 -63 -7 -118 -7 -126 -12 -160 -29 -174 -7 -6
-11 -23 -8 -41 4 -25 9 -30 31 -30 26 0 28 4 39 63 7 34 13 89 13 122 1 33 9
86 17 118 14 51 14 60 1 68 -24 15 -55 10 -57 -8z"/>
<path d="M4636 703 c-9 -10 -7 -68 3 -78 5 -6 11 -19 13 -30 1 -11 8 -23 13
-27 6 -4 11 -12 11 -18 1 -5 2 -11 4 -12 10 -14 14 -94 6 -149 -7 -42 -5 -46
18 -57 23 -10 27 -9 39 16 26 52 6 181 -43 285 -28 61 -50 84 -64 70z"/>
<path d="M3291 671 c-11 -11 -18 -27 -17 -35 2 -16 47 -60 94 -93 14 -10 36
-28 48 -39 13 -12 25 -19 28 -16 3 3 6 0 6 -6 0 -7 5 -12 10 -12 6 0 10 6 10
14 0 7 7 19 15 26 22 19 18 39 -10 50 -14 5 -25 14 -25 20 0 5 -9 10 -19 10
-21 0 -101 71 -101 89 0 17 -18 13 -39 -8z"/>
<path d="M3578 436 c-29 -22 -21 -48 30 -98 45 -43 50 -52 60 -116 7 -39 9
-78 6 -86 -3 -9 -3 -28 0 -42 6 -21 11 -25 39 -22 31 3 32 4 31 49 0 55 -20
149 -42 202 -12 29 -94 128 -105 127 -1 0 -10 -7 -19 -14z"/>
<path d="M4725 236 c-4 -11 -7 -26 -6 -33 1 -6 -3 -14 -9 -18 -22 -14 -9 -95
16 -95 21 0 55 42 49 61 -3 9 -1 29 5 44 12 31 2 50 -29 58 -13 3 -21 -2 -26
-17z"/>
</g>
</svg>
