<?xml version="1.0" standalone="no"?>
<!DOCTYPE svg PUBLIC "-//W3C//DTD SVG 20010904//EN"
 "http://www.w3.org/TR/2001/REC-SVG-20010904/DTD/svg10.dtd">
<svg version="1.0" xmlns="http://www.w3.org/2000/svg"
 width="485.000000pt" height="441.000000pt" viewBox="0 0 485.000000 441.000000"
 preserveAspectRatio="xMidYMid meet">
<metadata>
Created by potrace 1.16, written by Peter Selinger 2001-2019
</metadata>
<g transform="translate(0.000000,441.000000) scale(0.100000,-0.100000)"
fill="#000000" stroke="none">
<path d="M2447 4209 c-23 -32 -10 -54 44 -73 27 -10 49 -22 49 -28 0 -5 5 -6
11 -2 6 3 14 1 18 -5 17 -26 57 13 45 44 -7 16 -68 55 -88 55 -8 0 -19 7 -26
15 -17 21 -36 19 -53 -6z"/>
<path d="M2179 4212 c-39 -18 -70 -52 -67 -74 3 -26 25 -31 49 -11 9 8 27 16
40 18 12 3 30 12 38 20 30 30 -17 66 -60 47z"/>
<path d="M1980 4059 c-14 -5 -38 -30 -53 -56 -24 -38 -27 -51 -18 -70 15 -33
35 -29 54 12 9 19 21 35 26 35 14 0 51 41 51 57 0 19 -32 31 -60 22z"/>
<path d="M2775 4011 c-13 -22 8 -124 32 -150 22 -25 24 -25 37 -7 11 13 12 25
5 43 -5 13 -9 39 -9 58 0 18 -3 40 -6 49 -7 17 -49 22 -59 7z"/>
<path d="M1898 3793 c-22 -5 -24 -60 -6 -131 14 -56 28 -73 50 -61 12 7 15 23
11 81 -7 120 -8 123 -55 111z"/>
<path d="M2808 3611 c-9 -11 -22 -30 -29 -43 -7 -13 -19 -28 -27 -34 -10 -7
-13 -19 -8 -38 6 -23 11 -27 38 -24 28 3 33 9 55 67 18 49 21 66 12 77 -15 18
-21 18 -41 -5z"/>
<path d="M2046 3459 c-18 -21 -17 -22 8 -46 14 -13 26 -27 26 -32 0 -7 49 -25
95 -34 11 -2 27 3 34 11 20 21 2 45 -44 56 -25 6 -43 18 -54 37 -19 34 -40 37
-65 8z"/>
<path d="M2560 3389 c-8 -4 -41 -13 -72 -20 -35 -7 -58 -17 -58 -25 0 -8 -6
-11 -15 -8 -8 4 -22 1 -30 -6 -10 -8 -15 -9 -15 -2 0 6 -7 9 -15 6 -8 -4 -15
-15 -15 -25 0 -12 -7 -19 -21 -19 -14 0 -25 -11 -36 -37 -8 -21 -33 -58 -55
-83 -21 -25 -49 -56 -61 -70 -12 -14 -35 -43 -51 -65 -16 -22 -49 -59 -72 -83
-24 -24 -43 -46 -43 -50 -1 -10 -72 -103 -103 -134 -15 -15 -36 -40 -45 -56
-10 -16 -37 -51 -60 -78 -23 -27 -67 -78 -98 -114 -30 -36 -55 -69 -55 -74 0
-5 -36 -48 -81 -95 -104 -111 -121 -129 -140 -160 -9 -14 -37 -47 -63 -73 -58
-59 -63 -90 -21 -133 14 -13 25 -29 25 -34 0 -6 9 -15 20 -21 23 -12 43 5 140
125 36 44 67 82 70 85 3 3 18 23 34 45 16 22 35 47 43 55 7 8 27 31 44 50 17
19 46 59 66 88 19 28 39 52 44 52 5 0 9 6 9 14 0 8 24 38 53 68 63 65 102 112
169 201 28 37 57 67 65 67 8 0 12 4 9 8 -3 5 18 33 47 63 83 87 137 150 137
161 0 5 5 8 11 6 11 -4 16 -167 20 -593 2 -240 -8 -972 -14 -982 -2 -4 -7 -25
-11 -45 -4 -21 -11 -38 -16 -38 -6 0 -10 -4 -10 -10 0 -8 -53 -104 -156 -285
-10 -16 -43 -83 -74 -147 -31 -65 -63 -126 -72 -135 -16 -19 -58 -107 -58
-122 0 -5 -17 -35 -38 -67 -49 -76 -96 -154 -139 -229 -19 -33 -56 -92 -83
-132 -48 -71 -57 -113 -24 -113 8 0 14 -6 14 -14 0 -20 54 -30 82 -15 34 18
42 28 122 151 125 191 146 224 146 232 0 5 15 29 34 55 18 25 41 60 49 78 9
17 22 37 30 45 7 7 26 40 42 73 17 33 33 62 38 63 4 2 7 10 7 18 0 20 39 112
61 144 9 14 17 27 16 30 -1 17 31 95 64 153 22 38 39 72 39 77 0 4 7 20 15 36
l14 29 13 -35 c13 -39 66 -142 76 -150 4 -3 12 -12 17 -21 6 -10 25 -38 43
-63 17 -26 32 -49 32 -52 0 -2 14 -23 31 -47 17 -23 44 -70 59 -105 16 -34 41
-75 56 -90 14 -15 36 -49 49 -77 29 -60 62 -117 95 -166 80 -116 123 -184 123
-196 0 -7 4 -13 8 -13 4 0 15 -18 25 -40 10 -22 21 -40 26 -40 4 0 8 -6 8 -12
1 -7 9 -23 20 -36 18 -22 24 -23 71 -15 67 11 76 31 42 99 -13 27 -30 54 -37
59 -6 6 -18 26 -26 45 -7 19 -18 42 -24 50 -6 8 -17 26 -25 40 -8 14 -30 49
-48 79 -18 30 -33 61 -33 68 0 7 -4 13 -10 13 -5 0 -10 5 -10 11 0 10 -47 76
-77 107 -7 7 -16 24 -19 38 -3 13 -10 24 -15 24 -5 0 -9 6 -9 14 0 7 -12 31
-26 52 -15 21 -38 59 -52 84 -13 25 -37 61 -52 80 -15 19 -40 61 -55 93 -16
31 -32 57 -36 57 -5 0 -17 19 -28 43 -11 23 -27 53 -35 67 -15 25 -50 101 -51
110 -1 3 -9 20 -19 38 -11 21 -19 62 -21 110 -2 42 -6 93 -9 112 -8 49 -8 56
-2 340 5 267 6 523 0 675 -3 113 -3 109 -1 297 l2 157 28 -32 c16 -18 57 -66
92 -107 35 -41 114 -122 176 -180 171 -160 279 -273 279 -289 0 -6 5 -11 11
-11 13 0 108 -81 158 -134 20 -21 49 -51 65 -65 16 -14 50 -47 77 -73 27 -27
55 -48 63 -48 14 0 116 94 116 107 0 4 -75 82 -167 173 -93 91 -188 188 -213
215 -25 28 -74 77 -109 110 -35 33 -84 87 -109 120 -50 65 -117 135 -129 135
-4 1 -28 21 -53 45 -25 25 -47 45 -50 45 -12 0 -219 203 -215 210 2 4 18 10
34 13 34 7 61 32 61 57 0 20 -28 31 -50 19z m-143 -491 c-3 -8 -6 -5 -6 6 -1
11 2 17 5 13 3 -3 4 -12 1 -19z"/>
</g>
</svg>
