<?xml version="1.0" standalone="no"?>
<!DOCTYPE svg PUBLIC "-//W3C//DTD SVG 20010904//EN"
 "http://www.w3.org/TR/2001/REC-SVG-20010904/DTD/svg10.dtd">
<svg version="1.0" xmlns="http://www.w3.org/2000/svg"
 width="499.000000pt" height="471.000000pt" viewBox="0 0 499.000000 471.000000"
 preserveAspectRatio="xMidYMid meet">
<metadata>
Created by potrace 1.16, written by Peter Selinger 2001-2019
</metadata>
<g transform="translate(0.000000,471.000000) scale(0.100000,-0.100000)"
fill="#000000" stroke="none">
<path d="M1272 4630 c-19 -20 -42 -83 -48 -127 -1 -13 -11 -35 -21 -50 -11
-16 -32 -55 -47 -88 -16 -33 -41 -76 -56 -95 -34 -43 -120 -106 -120 -88 0 7
14 51 30 98 55 153 59 260 11 260 -33 0 -44 -26 -38 -89 6 -50 3 -69 -19 -118
-35 -83 -39 -92 -58 -152 -10 -30 -30 -74 -46 -99 l-27 -44 -1 118 c0 143 -22
217 -65 222 -37 5 -40 -21 -17 -113 14 -55 19 -97 15 -139 -7 -81 -16 -139
-24 -151 -3 -5 -6 -22 -7 -36 0 -14 -10 -40 -23 -58 -19 -26 -21 -36 -13 -60
6 -16 8 -32 5 -35 -4 -3 -1 -6 5 -6 7 0 12 -6 12 -13 0 -23 171 -157 199 -157
4 0 16 -8 27 -17 47 -41 125 -74 247 -104 133 -32 149 -35 313 -43 106 -6 114
-5 180 23 90 37 153 83 233 170 44 48 75 72 95 76 53 11 111 47 136 84 26 40
32 123 12 174 -10 24 -17 27 -58 27 -43 0 -114 24 -114 39 0 3 27 38 61 76 74
86 112 139 132 188 9 20 23 40 32 43 19 8 20 67 0 84 -22 19 -53 3 -61 -32 -9
-42 -36 -90 -93 -162 -88 -114 -136 -146 -168 -113 -13 13 -9 22 40 87 30 39
72 102 93 138 22 36 50 79 63 94 17 21 20 32 12 42 -6 7 -8 16 -4 19 3 4 -7 7
-24 7 -26 0 -31 -5 -42 -39 -15 -52 -114 -185 -176 -238 l-48 -41 -42 21 -42
22 31 30 c18 17 58 75 90 130 32 55 67 112 77 127 23 33 25 74 4 82 -18 7 -55
-27 -55 -50 0 -19 -64 -116 -122 -186 -27 -33 -47 -48 -64 -48 -13 0 -28 -9
-34 -20 -11 -20 -63 -29 -74 -12 -2 4 17 30 42 57 26 28 67 84 92 125 25 41
52 82 62 90 28 25 7 60 -37 60 -31 0 -35 -3 -35 -25 0 -32 -78 -152 -130 -199
-22 -20 -56 -44 -75 -53 -19 -9 -35 -20 -35 -25 0 -4 -22 -8 -50 -8 -27 0 -50
3 -50 8 0 4 19 29 42 55 74 86 166 227 161 248 -7 26 -73 28 -73 2 -1 -39 -63
-125 -157 -221 -29 -29 -57 -50 -63 -47 -6 4 -16 -6 -22 -23 -10 -24 -43 -52
-62 -52 -2 0 5 17 14 38 10 20 26 55 35 77 9 22 26 56 36 76 10 20 19 44 19
53 0 9 5 16 10 16 6 0 10 7 10 15 0 8 4 15 9 15 16 0 18 34 3 58 -18 27 -26
28 -50 2z m203 -485 c33 -1 74 -8 90 -14 17 -7 31 -12 33 -12 1 1 16 1 33 1
28 0 31 -3 27 -25 -3 -14 -1 -25 3 -25 5 0 9 -5 9 -11 0 -7 7 -17 16 -23 25
-19 30 -127 9 -206 -30 -115 -69 -164 -164 -208 -82 -38 -217 -42 -280 -9 -53
27 -78 70 -92 157 -15 94 -4 154 47 265 31 67 54 91 95 100 19 4 41 11 49 16
8 5 26 6 40 3 14 -4 52 -7 85 -9z m-352 -112 c-50 -129 -55 -242 -18 -385 5
-19 3 -28 -5 -28 -15 0 -70 32 -70 41 0 4 -11 10 -25 13 -29 7 -140 84 -173
119 -30 32 -24 51 31 112 23 25 47 51 53 58 34 38 119 97 141 97 10 1 34 9 53
20 19 11 36 19 37 20 1 0 -10 -30 -24 -67z m804 -63 c33 -32 72 -50 109 -50
16 0 24 -6 24 -18 0 -10 5 -23 11 -29 15 -15 -32 -50 -81 -58 -39 -7 -82 -42
-159 -130 -38 -44 -184 -135 -215 -135 -21 1 -21 1 -1 11 48 26 103 102 136
187 31 80 34 95 33 197 l0 111 57 -29 c31 -16 70 -41 86 -57z"/>
<path d="M1383 4061 c-21 -13 -40 -28 -41 -33 -2 -4 -9 -14 -15 -21 -46 -51
-73 -141 -63 -210 9 -59 57 -91 141 -93 70 -3 118 18 155 68 81 108 84 241 6
281 -76 38 -130 41 -183 8z m97 -68 c0 -10 -45 -69 -65 -85 -45 -39 -55 -53
-55 -82 0 -23 -3 -27 -12 -18 -14 14 -13 85 2 90 5 2 10 10 10 17 0 8 14 30
30 49 23 26 39 34 60 34 17 -1 30 -3 30 -5z"/>
<path d="M3780 4119 c-57 -11 -167 -57 -199 -84 -95 -80 -144 -143 -213 -276
-28 -54 -51 -193 -45 -269 3 -36 20 -107 37 -158 17 -51 32 -101 33 -112 1
-11 5 -20 9 -20 4 0 8 -6 8 -14 0 -11 32 -59 72 -106 7 -8 29 -39 50 -70 20
-30 58 -78 85 -106 26 -28 58 -71 71 -95 37 -71 61 -112 69 -118 10 -8 53 -93
53 -106 0 -5 6 -21 13 -35 7 -14 19 -52 26 -85 27 -122 37 -139 116 -201 46
-36 103 -54 178 -57 45 -1 61 4 121 41 37 23 71 42 75 42 6 0 61 85 98 153 15
27 19 45 13 51 -6 6 -10 18 -10 29 0 10 -7 25 -15 33 -13 13 -18 13 -45 -1
-18 -9 -32 -26 -36 -43 -16 -72 -90 -172 -127 -172 -8 0 -20 -7 -27 -15 -14
-17 -54 -16 -120 5 -70 23 -101 63 -115 147 -5 34 -26 97 -38 111 -5 6 -6 12
-2 12 4 0 3 6 -3 13 -6 6 -38 66 -72 132 -69 133 -89 163 -140 216 -41 43
-113 142 -161 219 -18 30 -35 57 -38 60 -9 8 -62 160 -72 205 -14 66 -10 190
7 242 34 102 182 285 242 299 15 4 37 13 50 20 30 20 162 35 201 24 37 -10 90
-49 157 -115 153 -151 222 -215 232 -215 44 0 73 87 32 97 -11 3 -20 9 -20 14
0 8 -121 131 -223 226 -81 75 -200 105 -327 82z"/>
<path d="M3785 3899 c-11 -7 -22 -15 -25 -19 -3 -3 -27 -22 -53 -42 -26 -20
-48 -39 -47 -42 0 -4 -7 -18 -16 -32 -43 -64 -61 -291 -32 -384 31 -98 42
-127 53 -140 7 -8 35 -58 62 -110 28 -52 62 -112 76 -134 43 -62 78 -143 89
-207 8 -49 14 -60 34 -65 35 -9 42 1 39 55 -3 48 -47 180 -70 211 -16 21 -65
107 -65 115 0 12 72 36 91 30 10 -4 34 -7 51 -7 18 0 41 -5 50 -9 19 -10 43
-55 53 -98 5 -25 64 -93 120 -139 19 -16 45 -12 55 8 24 50 27 77 9 98 -9 12
-21 22 -26 22 -13 0 -49 40 -67 74 -13 25 -13 32 2 62 8 19 24 36 34 40 10 3
18 10 18 15 0 5 11 9 24 9 25 0 76 41 76 62 -3 90 -78 190 -129 173 -22 -7
-33 -49 -18 -64 8 -8 8 -11 1 -11 -6 0 -21 11 -34 25 -13 14 -29 25 -36 25 -7
0 -26 17 -41 38 -15 20 -32 39 -36 41 -44 19 -87 118 -91 204 -1 48 -25 69
-51 47 -14 -11 -16 -26 -12 -75 8 -96 41 -168 107 -233 96 -95 164 -157 180
-163 11 -4 6 -10 -17 -22 -17 -9 -40 -28 -52 -43 -17 -22 -25 -25 -53 -18 -66
15 -181 9 -212 -11 -28 -19 -28 -19 -47 6 -10 13 -22 33 -25 44 -4 11 -12 27
-20 35 -7 8 -25 56 -39 105 -27 91 -29 144 -9 290 6 49 46 109 98 146 33 24
45 28 90 24 67 -5 152 -36 182 -66 12 -13 30 -30 39 -37 8 -7 15 -26 15 -41 0
-29 15 -41 51 -41 28 0 36 46 13 84 -23 40 -144 150 -144 131 0 -3 -19 4 -41
16 -50 25 -174 36 -204 18z"/>
<path d="M2248 2736 c-9 -7 -22 -30 -27 -52 -5 -21 -28 -91 -50 -154 -23 -63
-41 -123 -41 -132 0 -10 -18 -71 -41 -135 -62 -180 -99 -325 -91 -356 1 -5 -2
-25 -8 -46 -18 -68 -14 -162 9 -216 12 -28 26 -57 31 -65 6 -8 13 -22 16 -30
25 -67 34 -77 100 -112 38 -19 80 -39 94 -43 59 -17 154 -62 195 -91 17 -12
50 -32 75 -45 25 -13 47 -26 50 -30 3 -3 34 -25 70 -50 36 -24 67 -47 70 -50
3 -3 27 -15 53 -28 27 -12 59 -32 71 -44 12 -12 37 -33 54 -47 18 -14 32 -30
32 -35 0 -12 36 -45 49 -45 5 0 15 -7 22 -16 16 -19 97 -56 108 -50 10 6 193
-32 200 -42 4 -4 24 -8 45 -9 22 -2 50 -10 62 -18 13 -8 33 -15 46 -15 12 0
32 -10 44 -21 32 -30 101 -41 148 -25 21 7 41 17 45 22 12 17 83 45 101 39 10
-3 24 -26 32 -52 13 -40 13 -51 -1 -98 -9 -30 -19 -51 -23 -49 -5 3 -8 -6 -8
-20 0 -14 -4 -26 -9 -26 -5 0 -12 -11 -15 -24 -5 -22 -62 -86 -77 -86 -4 0
-21 -13 -39 -30 -18 -16 -41 -30 -51 -30 -10 0 -19 -4 -19 -9 0 -5 -19 -14
-42 -19 -24 -6 -68 -18 -98 -27 -99 -29 -163 -37 -255 -30 -49 3 -126 8 -170
11 -44 2 -100 9 -125 14 -25 5 -58 11 -75 14 -123 16 -196 30 -235 44 -27 9
-89 17 -157 19 -62 2 -124 8 -139 13 -14 6 -31 7 -36 3 -6 -3 -81 -8 -167 -10
-160 -3 -318 -26 -436 -62 -57 -18 -99 -28 -148 -37 -12 -2 -42 -8 -67 -14
-25 -6 -65 -13 -90 -15 -25 -3 -90 -10 -145 -16 -165 -18 -292 -15 -350 9 -22
9 -42 19 -45 22 -3 3 -27 14 -54 24 -104 40 -165 138 -169 274 -1 47 12 134
23 147 4 6 10 23 14 39 4 17 27 72 52 124 24 52 44 96 44 98 0 2 11 27 24 56
31 71 69 174 102 278 15 47 30 90 34 95 4 6 11 35 15 65 4 30 13 82 20 115 7
33 16 96 20 140 4 44 11 103 16 130 9 46 5 280 -7 435 -14 169 -68 334 -112
337 -12 1 -30 -9 -41 -23 -17 -22 -18 -27 -4 -65 8 -23 19 -51 24 -62 6 -10
15 -51 19 -91 5 -39 11 -89 14 -111 13 -106 13 -393 1 -491 -8 -58 -16 -108
-19 -112 -4 -7 -29 -145 -41 -222 -1 -8 -9 -32 -18 -54 -10 -21 -17 -44 -17
-50 0 -18 -40 -128 -54 -151 -7 -11 -16 -33 -20 -49 -4 -15 -15 -47 -25 -70
-10 -22 -36 -79 -56 -126 -21 -47 -46 -103 -57 -126 -10 -22 -18 -48 -18 -57
0 -9 -4 -19 -10 -22 -5 -3 -10 -16 -10 -29 0 -12 -3 -26 -7 -29 -19 -19 -22
-202 -4 -220 6 -6 11 -22 11 -36 0 -56 22 -103 70 -151 28 -28 52 -50 56 -50
3 0 20 -11 38 -25 18 -14 38 -25 44 -25 6 0 26 -6 44 -14 37 -16 63 -26 93
-35 65 -19 522 3 610 29 17 5 46 12 65 15 39 5 106 22 220 55 118 34 152 38
360 41 305 4 373 0 474 -26 50 -13 197 -37 326 -54 283 -36 401 -36 526 3 43
13 90 24 104 24 23 0 130 45 174 74 43 28 51 35 102 86 59 59 119 171 133 249
11 57 -1 145 -25 181 -23 35 -86 92 -102 92 -7 0 -15 6 -17 13 -7 17 -235 23
-265 7 -29 -16 -127 -23 -135 -9 -5 7 -11 6 -21 -2 -11 -9 -17 -9 -28 0 -14
12 -78 26 -166 37 -64 8 -119 36 -171 86 -25 23 -62 57 -84 73 -21 17 -43 35
-49 40 -6 6 -22 16 -36 23 -47 23 -95 54 -98 63 -2 5 -8 9 -14 9 -5 0 -30 15
-56 33 -52 35 -79 52 -102 63 -8 4 -28 17 -45 29 -42 30 -123 70 -223 111
-102 41 -116 53 -149 119 -13 28 -31 61 -39 75 -15 25 -15 70 1 200 11 86 45
227 66 276 12 27 24 60 26 73 2 13 11 42 20 65 8 23 17 57 20 76 2 19 8 44 13
55 5 11 20 52 33 90 32 90 48 125 59 125 13 0 10 54 -4 72 -18 22 -60 29 -80
14z m1426 -1895 c6 -9 -63 -41 -88 -41 -20 0 -27 38 -8 42 39 7 92 7 96 -1z"/>
<path d="M1581 1592 c-30 -45 -38 -127 -22 -210 6 -31 13 -85 15 -119 5 -56 3
-64 -22 -92 -45 -52 -77 -63 -155 -56 -44 5 -70 12 -74 21 -3 8 -12 14 -19 14
-8 0 -17 6 -20 14 -8 21 -32 28 -55 15 -51 -27 15 -110 107 -137 65 -19 148
-15 191 9 55 30 101 77 114 116 12 38 5 159 -16 260 -9 44 -9 77 -3 117 16 91
-1 110 -41 48z"/>
</g>
</svg>
