<?xml version="1.0" standalone="no"?>
<!DOCTYPE svg PUBLIC "-//W3C//DTD SVG 20010904//EN"
 "http://www.w3.org/TR/2001/REC-SVG-20010904/DTD/svg10.dtd">
<svg version="1.0" xmlns="http://www.w3.org/2000/svg"
 width="463.000000pt" height="389.000000pt" viewBox="0 0 463.000000 389.000000"
 preserveAspectRatio="xMidYMid meet">
<metadata>
Created by potrace 1.16, written by Peter Selinger 2001-2019
</metadata>
<g transform="translate(0.000000,389.000000) scale(0.100000,-0.100000)"
fill="#000000" stroke="none">
<path d="M2068 3758 c-9 -27 8 -261 21 -286 5 -10 13 -43 17 -73 4 -30 7 -58
8 -64 1 -5 16 -35 33 -65 17 -30 35 -68 39 -85 3 -16 16 -41 28 -55 29 -33 58
-80 50 -80 -4 0 6 -11 22 -25 16 -14 29 -28 30 -32 0 -5 8 -25 17 -45 10 -21
17 -44 17 -52 0 -7 7 -16 15 -20 8 -3 21 -18 27 -33 7 -15 23 -43 36 -60 14
-18 21 -33 18 -33 -4 0 4 -15 17 -32 35 -48 50 -117 45 -199 -5 -63 -9 -73
-37 -98 -18 -16 -47 -32 -64 -36 -44 -11 -161 -8 -165 3 -4 12 -114 6 -158 -8
-31 -10 -36 -9 -57 14 -28 31 -62 34 -76 7 -14 -26 8 -71 35 -71 11 0 24 -4
30 -10 13 -13 77 -20 84 -10 3 5 22 11 42 15 l38 7 -16 -31 c-9 -18 -13 -39
-10 -47 3 -8 -1 -25 -9 -38 -11 -17 -12 -30 -5 -56 6 -19 10 -45 10 -57 0 -28
32 -103 43 -103 4 0 6 -4 3 -9 -3 -5 0 -11 8 -14 33 -13 23 -107 -11 -107 -7
0 -16 -7 -21 -16 -10 -19 -90 -41 -186 -51 -27 -3 -56 -11 -63 -18 -19 -20
-16 -55 5 -56 9 -1 24 -2 32 -3 8 -1 38 4 65 11 28 7 67 14 88 15 20 1 37 5
37 8 0 16 43 18 75 4 45 -18 53 -50 31 -120 -9 -30 -20 -54 -24 -54 -4 0 -8
-19 -10 -42 -1 -23 -8 -46 -14 -49 -9 -6 -9 -11 1 -22 6 -9 8 -18 3 -21 -4 -2
-5 -42 0 -87 4 -45 5 -85 2 -90 -3 -5 -1 -9 4 -9 6 0 13 -11 16 -25 4 -14 11
-25 16 -25 6 0 10 -13 10 -28 0 -15 4 -32 8 -38 14 -16 31 -78 40 -143 11 -77
-1 -130 -55 -251 -25 -55 -109 -160 -129 -160 -7 0 -14 -4 -14 -9 0 -5 -17
-20 -37 -32 -21 -13 -43 -28 -49 -34 -6 -5 -35 -21 -65 -34 -30 -13 -65 -29
-79 -36 -39 -20 -98 -37 -143 -42 -98 -10 -250 -18 -259 -12 -6 4 -25 2 -44
-4 -25 -8 -41 -7 -61 3 -16 7 -50 14 -77 16 -27 3 -54 8 -60 13 -6 5 -31 12
-56 16 -25 4 -49 11 -55 15 -5 4 -38 13 -73 20 -34 7 -62 17 -62 22 0 6 -6 8
-14 5 -7 -3 -24 5 -37 17 -33 30 -57 39 -106 40 -23 1 -45 5 -49 9 -4 4 -18
-8 -31 -25 -29 -40 -31 -93 -3 -110 11 -7 20 -17 20 -21 0 -13 62 -62 79 -63
41 -4 79 -13 106 -28 16 -8 50 -18 75 -22 25 -4 51 -11 58 -17 8 -6 32 -12 54
-13 38 -2 76 -13 125 -37 13 -6 26 -8 29 -4 4 3 13 0 20 -8 11 -11 54 -13 217
-10 111 2 209 6 217 9 8 3 28 8 44 10 48 8 176 48 176 55 0 4 10 7 22 8 11 1
24 7 27 12 4 6 31 21 61 35 30 13 84 47 120 76 90 72 102 83 125 115 11 16 26
34 33 41 19 19 68 124 75 159 3 17 16 53 28 80 17 39 22 66 20 120 -3 87 -24
182 -51 229 -11 20 -20 43 -20 51 0 8 -5 15 -10 15 -6 0 -20 11 -32 25 -15 17
-28 23 -43 19 -19 -5 -23 0 -33 38 -16 64 -24 176 -13 196 5 9 11 31 14 48 3
17 11 44 20 60 26 51 30 109 11 149 -9 20 -25 42 -36 48 -19 13 -24 42 -8 52
12 7 14 125 2 125 -5 0 -17 18 -28 40 -10 22 -24 40 -30 40 -7 0 -12 10 -12
23 0 12 -4 41 -7 65 -5 27 -2 57 8 85 10 29 11 49 5 60 -8 15 -3 16 39 11 26
-4 59 -7 73 -8 14 0 28 -5 32 -11 5 -6 8 -6 8 1 0 6 6 11 13 11 25 0 113 47
140 75 15 15 27 37 27 48 0 12 7 31 15 43 25 39 -2 222 -41 267 -7 9 -23 37
-34 63 -12 26 -25 47 -30 47 -6 0 -10 8 -10 18 0 10 -11 29 -25 42 -14 13 -32
46 -40 72 -8 27 -28 65 -45 86 -16 20 -30 42 -30 49 0 7 -4 13 -9 13 -15 0
-71 92 -71 116 0 13 -5 26 -10 29 -14 9 -50 90 -50 114 0 11 -4 31 -9 44 -11
29 -21 117 -26 234 -2 46 -6 87 -10 93 -9 14 -52 12 -57 -2z"/>
<path d="M4303 1403 c-13 -8 -55 -24 -95 -34 -40 -10 -82 -23 -93 -28 -16 -7
-93 -31 -115 -36 -3 0 -27 -8 -55 -18 -27 -9 -65 -19 -84 -22 -18 -3 -57 -14
-85 -24 -28 -10 -57 -16 -63 -14 -7 3 -13 0 -13 -6 0 -6 -9 -11 -21 -11 -11 0
-48 -11 -82 -24 -34 -14 -89 -30 -122 -36 -33 -6 -73 -15 -90 -20 -27 -8 -45
-12 -120 -26 -11 -2 -51 -10 -89 -19 -38 -8 -70 -14 -72 -12 -2 2 10 17 25 35
28 30 34 53 18 69 -17 16 -59 13 -87 -7 -17 -12 -30 -19 -30 -16 0 4 -18 -5
-41 -20 -23 -14 -62 -37 -87 -51 -26 -15 -63 -35 -82 -47 -19 -11 -70 -37
-112 -58 -76 -36 -78 -39 -78 -73 0 -25 5 -37 18 -41 9 -3 24 -9 33 -14 9 -4
22 -4 30 1 19 13 375 -1 412 -16 24 -10 83 20 90 47 6 23 -19 62 -34 53 -4 -3
-10 -1 -13 3 -3 5 -21 9 -40 10 -18 1 -38 2 -42 3 -5 1 -21 -1 -35 -5 -15 -4
-40 -6 -55 -4 -23 3 -15 7 36 19 36 9 128 32 205 52 77 20 208 52 290 73 83
20 184 46 225 59 41 12 100 28 130 35 30 7 60 15 65 19 6 3 15 6 20 7 6 1 44
12 85 24 41 12 126 31 188 41 63 11 120 26 128 33 22 23 17 75 -8 97 -27 22
-27 22 -55 2z"/>
</g>
</svg>
