<?xml version="1.0" standalone="no"?>
<!DOCTYPE svg PUBLIC "-//W3C//DTD SVG 20010904//EN"
 "http://www.w3.org/TR/2001/REC-SVG-20010904/DTD/svg10.dtd">
<svg version="1.0" xmlns="http://www.w3.org/2000/svg"
 width="535.000000pt" height="467.000000pt" viewBox="0 0 535.000000 467.000000"
 preserveAspectRatio="xMidYMid meet">
<metadata>
Created by potrace 1.16, written by Peter Selinger 2001-2019
</metadata>
<g transform="translate(0.000000,467.000000) scale(0.100000,-0.100000)"
fill="#000000" stroke="none">
<path d="M2375 4443 c-60 -19 -132 -43 -159 -54 -27 -10 -58 -19 -68 -19 -18
0 -68 -18 -110 -41 -10 -5 -25 -9 -34 -9 -20 0 -83 -36 -210 -120 -90 -60
-172 -134 -229 -208 -11 -14 -28 -32 -37 -41 -10 -8 -18 -20 -18 -26 0 -5 -21
-41 -45 -79 -25 -38 -45 -80 -45 -92 0 -13 -5 -26 -10 -29 -6 -4 -7 -11 -4
-17 4 -6 2 -13 -4 -17 -8 -5 -7 -25 2 -71 8 -36 17 -104 20 -152 4 -47 9 -97
13 -110 9 -37 4 -189 -13 -378 -21 -234 -19 -435 6 -650 6 -47 9 -139 8 -205
-6 -283 -9 -262 44 -341 58 -86 90 -104 213 -119 11 -1 45 -7 75 -13 30 -6
107 -13 170 -16 63 -2 135 -9 160 -16 25 -6 119 -13 210 -14 119 -1 197 -8
280 -23 95 -18 158 -22 365 -24 141 -1 276 3 310 9 33 6 119 18 190 27 138 18
224 37 265 61 14 7 46 24 72 36 84 40 98 93 123 453 4 55 8 111 10 125 10 73
30 517 30 675 0 86 -14 292 -30 460 -3 28 -7 97 -10 154 -2 57 -9 118 -14 135
-18 59 -32 111 -34 126 -2 13 -48 81 -67 100 -3 3 -24 31 -48 62 -24 31 -53
63 -65 72 -12 8 -54 45 -94 83 -93 89 -148 134 -181 149 -93 42 -153 63 -192
68 -25 3 -72 17 -105 31 -148 66 -204 77 -416 80 -108 1 -200 4 -205 7 -5 3
-58 -10 -119 -29z m395 -84 c81 -1 135 -12 275 -58 50 -16 110 -31 135 -34 68
-8 217 -89 291 -158 35 -33 55 -56 44 -51 -72 33 -139 52 -225 63 -84 11 -178
25 -210 33 -51 12 -282 25 -511 28 -134 2 -160 0 -182 -15 -15 -10 -27 -21
-27 -25 0 -4 84 -8 188 -9 211 -1 362 -10 408 -24 16 -5 55 -12 85 -15 90 -9
112 -12 149 -23 19 -6 54 -11 78 -11 23 0 50 -4 60 -9 9 -5 43 -17 75 -27 32
-9 62 -25 67 -33 5 -9 10 -12 10 -8 0 4 25 -6 56 -22 30 -17 64 -31 75 -31 11
0 28 -7 37 -15 61 -55 92 -93 92 -111 0 -12 8 -32 18 -45 46 -63 62 -129 67
-286 3 -76 9 -172 15 -213 27 -203 35 -345 24 -450 -6 -58 -12 -163 -13 -235
-1 -71 -6 -168 -11 -215 -6 -47 -12 -116 -14 -155 -4 -70 -23 -274 -32 -330
-6 -39 -34 -72 -78 -90 -20 -9 -36 -19 -36 -24 0 -7 -61 -29 -102 -37 -5 -1
-9 -2 -10 -3 -2 -2 -14 -4 -28 -6 -14 -2 -45 -8 -70 -14 -25 -6 -71 -11 -102
-11 -31 0 -87 -7 -125 -16 -53 -13 -117 -16 -288 -16 -187 1 -242 5 -370 26
-112 19 -186 26 -292 26 -78 0 -154 5 -170 11 -15 6 -84 13 -153 15 -200 8
-348 38 -381 77 -58 68 -58 69 -63 298 -2 118 -6 228 -9 244 -8 42 -19 229
-18 295 2 128 12 321 20 405 10 102 6 443 -7 585 -10 103 1 150 36 150 10 0
54 27 97 60 43 33 83 60 87 60 5 0 32 16 62 36 29 19 65 36 79 38 14 1 37 10
51 19 14 9 31 17 39 17 7 0 18 5 23 10 12 12 150 50 201 55 28 4 119 39 133
52 8 8 -24 22 -35 15 -12 -8 -25 -10 -80 -17 -101 -12 -241 -48 -255 -66 -3
-4 -24 -12 -48 -18 -23 -7 -65 -25 -93 -41 -27 -17 -55 -30 -61 -30 -6 0 -19
-7 -28 -15 -9 -8 -37 -26 -63 -40 -67 -35 -51 -10 60 92 104 98 104 98 213
153 145 73 235 109 357 140 45 11 94 25 107 30 14 5 56 12 93 16 37 3 70 8 73
11 3 3 34 2 70 -1 36 -3 99 -6 140 -7z"/>
<path d="M4023 3731 c-6 -3 -13 -16 -17 -27 -5 -17 3 -31 35 -63 29 -28 52
-65 75 -123 22 -56 38 -83 49 -82 8 1 21 2 29 3 24 2 25 38 1 73 -12 18 -30
56 -40 83 -10 28 -29 61 -42 74 -13 13 -23 29 -23 36 0 15 -53 36 -67 26z"/>
<path d="M1220 3713 c-8 -3 -34 -22 -56 -42 -23 -20 -54 -44 -68 -54 -21 -15
-26 -25 -24 -50 4 -42 31 -46 67 -10 51 50 85 74 96 69 7 -2 17 11 24 30 10
29 10 37 -3 49 -8 8 -16 15 -18 14 -2 0 -10 -3 -18 -6z"/>
<path d="M1003 3363 c-17 -21 -36 -56 -44 -78 -8 -22 -19 -44 -26 -50 -25 -21
-19 -92 8 -100 25 -8 85 43 70 58 -7 7 -6 18 1 31 7 12 13 26 14 33 1 7 16 33
34 59 36 54 36 78 -1 82 -21 2 -33 -6 -56 -35z"/>
<path d="M4298 3239 c-23 -13 -23 -40 1 -81 24 -40 50 -135 57 -203 9 -95 15
-115 35 -126 16 -8 25 -7 38 5 25 23 12 99 -65 376 -11 39 -33 49 -66 29z"/>
<path d="M866 2905 c-10 -7 -16 -17 -13 -22 3 -5 -1 -42 -9 -83 -8 -41 -14
-101 -14 -132 0 -52 2 -58 21 -58 37 0 51 26 56 106 2 41 8 86 13 100 13 32
13 94 1 94 -5 0 -15 2 -23 5 -7 2 -21 -2 -32 -10z"/>
<path d="M4460 2635 c-11 -13 -10 -33 3 -108 10 -51 17 -125 17 -164 0 -72 9
-91 42 -90 35 1 42 49 24 165 -9 59 -16 122 -16 140 0 63 -39 94 -70 57z"/>
<path d="M822 2388 c-7 -7 -12 -43 -12 -90 0 -43 -5 -109 -12 -148 -11 -63
-10 -72 5 -87 16 -16 19 -16 42 7 21 22 25 36 30 133 4 60 11 122 15 138 5 17
6 37 3 45 -6 17 -54 19 -71 2z"/>
<path d="M4527 2060 c-11 -16 -13 -30 -5 -63 5 -23 11 -84 12 -134 4 -99 15
-126 50 -121 18 3 21 10 21 58 -1 52 -15 264 -18 266 -1 1 -12 5 -24 8 -15 5
-25 1 -36 -14z"/>
<path d="M777 1888 c-3 -13 -4 -34 -2 -48 2 -14 4 -82 4 -152 l1 -128 27 -6
c44 -11 51 10 45 145 -3 75 0 132 7 152 14 41 1 59 -44 59 -26 0 -34 -5 -38
-22z"/>
<path d="M4574 1573 c-19 -4 -21 -11 -23 -105 -1 -55 -3 -104 -6 -107 -11 -19
-13 -66 -3 -85 20 -38 41 -47 56 -24 16 23 21 61 22 169 0 42 5 90 10 108 7
24 6 31 -6 31 -8 0 -14 5 -14 10 0 6 -3 9 -7 9 -5 -1 -17 -4 -29 -6z"/>
<path d="M801 1347 c-6 -8 -9 -16 -6 -18 2 -3 7 -83 11 -179 7 -200 16 -226
60 -187 25 21 25 24 19 127 -4 58 -8 138 -9 178 -1 52 -6 76 -16 82 -21 14
-46 12 -59 -3z"/>
<path d="M4557 1003 c-2 -59 -6 -117 -7 -128 -6 -43 1 -64 21 -70 33 -11 53
16 51 70 -1 25 3 55 8 65 6 11 7 20 2 20 -5 0 -5 30 0 67 4 37 7 68 5 69 -1 1
-19 5 -39 9 l-37 7 -4 -109z"/>
<path d="M865 741 c-23 -14 -29 -24 -26 -42 3 -20 7 -145 10 -296 1 -26 5 -33
21 -33 11 0 28 7 38 16 17 14 18 28 14 142 -2 70 1 146 6 169 14 63 -6 77 -63
44z"/>
<path d="M4562 604 c-16 -11 -20 -19 -13 -28 5 -6 9 -27 9 -46 -2 -157 3 -219
18 -234 18 -18 24 -19 42 -7 15 9 15 24 11 204 -3 121 -4 127 -24 127 -11 0
-31 -7 -43 -16z"/>
</g>
</svg>
