<?xml version="1.0" standalone="no"?>
<!DOCTYPE svg PUBLIC "-//W3C//DTD SVG 20010904//EN"
 "http://www.w3.org/TR/2001/REC-SVG-20010904/DTD/svg10.dtd">
<svg version="1.0" xmlns="http://www.w3.org/2000/svg"
 width="527.000000pt" height="473.000000pt" viewBox="0 0 527.000000 473.000000"
 preserveAspectRatio="xMidYMid meet">
<metadata>
Created by potrace 1.16, written by Peter Selinger 2001-2019
</metadata>
<g transform="translate(0.000000,473.000000) scale(0.100000,-0.100000)"
fill="#000000" stroke="none">
<path d="M2603 4712 c-22 -16 -24 -34 -9 -73 4 -9 -2 -23 -14 -34 -11 -10 -20
-26 -20 -35 0 -27 27 -31 42 -8 13 20 16 16 36 -58 12 -43 23 -86 24 -95 3
-17 -75 -89 -96 -89 -7 0 -18 -11 -24 -25 -10 -21 -9 -28 7 -44 13 -13 23 -16
35 -9 20 12 36 2 36 -22 0 -24 40 -131 57 -151 7 -8 13 -22 13 -30 0 -9 9 -33
19 -55 11 -22 23 -54 27 -70 4 -16 13 -36 21 -45 8 -9 22 -32 31 -50 32 -61
47 -84 60 -92 6 -4 12 -12 12 -16 0 -8 63 -117 99 -171 9 -13 41 -70 71 -125
63 -116 86 -155 117 -199 12 -17 43 -71 67 -121 65 -129 115 -216 142 -248 13
-16 24 -37 24 -47 0 -11 9 -36 19 -57 14 -26 20 -62 22 -113 3 -102 -11 -329
-21 -360 -5 -14 -14 -50 -21 -80 -6 -30 -16 -63 -21 -73 -10 -19 -40 -124 -65
-227 -8 -36 -20 -68 -25 -71 -5 -3 -11 -30 -14 -60 -7 -76 -21 -123 -60 -205
-19 -39 -34 -76 -34 -83 0 -17 -51 -174 -61 -186 -4 -6 -9 -22 -12 -35 -5 -34
-27 -109 -42 -145 -7 -16 -18 -57 -25 -90 -6 -33 -16 -78 -21 -100 -5 -22 -11
-65 -15 -95 -3 -30 -9 -62 -14 -70 -4 -8 -13 -45 -20 -83 -7 -37 -15 -67 -19
-67 -11 0 -10 -74 1 -87 5 -7 8 -19 5 -28 -8 -18 21 -88 32 -80 5 3 11 0 13
-7 6 -18 58 17 58 40 1 9 1 60 2 112 0 52 7 129 15 170 8 41 14 84 14 95 0 19
20 89 38 130 5 11 17 52 27 90 9 39 23 84 29 100 15 36 35 97 40 123 1 10 10
35 19 55 8 20 13 37 11 37 -3 0 7 30 21 67 14 38 39 115 55 173 17 58 34 119
39 135 27 91 44 160 59 245 10 52 21 104 24 115 3 11 8 31 11 45 6 32 29 94
38 100 14 11 34 160 33 245 -5 265 -6 274 -41 346 -19 38 -34 72 -34 77 0 5
-32 62 -71 128 -39 65 -84 147 -99 182 -16 34 -43 83 -60 108 -17 25 -40 64
-53 86 -33 61 -39 71 -73 113 -17 22 -38 54 -46 70 -44 84 -84 170 -123 260
-24 55 -64 147 -89 205 -25 58 -49 121 -52 140 -4 19 -11 40 -16 47 -15 19
-19 103 -5 108 22 9 12 68 -20 125 -28 50 -62 154 -68 205 -3 30 -16 55 -29
55 -6 0 -21 -8 -33 -18z"/>
<path d="M1138 4279 c-23 -13 -23 -54 1 -87 10 -15 21 -49 25 -76 8 -62 21
-78 60 -74 42 4 46 41 11 115 -15 31 -33 73 -40 92 -13 38 -29 47 -57 30z"/>
<path d="M2414 4207 c-32 -34 -142 -97 -170 -97 -20 0 -44 -30 -44 -55 0 -41
29 -46 85 -14 28 16 78 43 112 59 78 37 94 62 62 96 -25 27 -29 28 -45 11z"/>
<path d="M2010 3973 c-8 -3 -28 -11 -45 -19 -16 -7 -50 -19 -75 -26 -60 -17
-80 -36 -73 -71 6 -29 41 -56 52 -40 10 15 73 41 116 48 22 4 46 8 53 9 17 3
61 56 62 74 0 22 -56 37 -90 25z"/>
<path d="M1259 3953 c-18 -21 -12 -51 16 -85 13 -15 29 -43 35 -63 18 -56 68
-73 88 -31 12 26 6 65 -12 81 -18 16 -62 78 -69 98 -8 22 -40 22 -58 0z"/>
<path d="M1619 3779 c-13 -10 -28 -19 -34 -19 -5 0 -40 -15 -77 -32 -62 -30
-68 -36 -68 -64 0 -43 29 -50 71 -18 39 29 49 30 49 6 0 -10 14 -31 31 -48 17
-16 48 -63 68 -104 34 -71 68 -129 81 -140 25 -21 158 -206 180 -250 16 -31
35 -62 44 -69 9 -8 16 -19 16 -27 0 -7 9 -18 20 -24 11 -6 20 -17 20 -25 0 -8
3 -15 8 -15 4 0 18 -16 31 -35 25 -37 43 -59 96 -117 19 -20 55 -62 80 -93 26
-31 54 -64 63 -74 9 -10 31 -35 47 -56 17 -21 36 -44 43 -51 7 -8 11 -14 7
-14 -4 0 1 -7 10 -16 11 -11 13 -20 5 -28 -7 -9 -2 -17 18 -27 47 -25 55 -37
49 -81 -3 -22 -10 -44 -15 -47 -5 -3 -12 -17 -15 -31 -3 -14 -13 -50 -22 -80
-9 -30 -18 -62 -20 -70 -2 -8 -4 -17 -5 -20 -1 -3 -3 -9 -4 -15 -1 -5 -7 -22
-14 -37 -20 -47 -34 -82 -37 -98 -2 -8 -10 -33 -18 -55 -18 -47 -41 -129 -55
-200 -40 -188 -29 -550 23 -755 43 -174 67 -355 61 -466 -5 -85 -7 -94 -25
-138 -7 -17 -8 -33 -2 -40 11 -14 6 -49 -8 -54 -6 -2 -11 -14 -11 -26 0 -12
-4 -26 -9 -31 -13 -14 -16 -46 -7 -72 5 -17 15 -23 37 -23 16 0 29 5 29 10 0
6 10 15 23 20 17 7 18 9 5 9 -23 1 -22 5 3 71 11 30 22 65 24 77 2 12 6 27 10
34 4 6 8 53 9 103 1 51 5 97 9 103 4 7 3 14 -2 17 -9 6 -18 65 -27 191 -3 44
-17 134 -30 200 -61 293 -64 321 -51 560 12 223 47 373 127 551 12 27 30 74
40 104 35 101 50 142 70 181 11 21 20 55 20 76 0 32 -5 41 -30 55 -16 9 -32
29 -36 43 -4 15 -21 43 -39 62 -18 20 -43 53 -56 75 -13 21 -36 55 -51 75 -16
20 -28 39 -28 43 0 4 -8 16 -17 28 -10 11 -23 28 -30 39 -63 95 -90 129 -131
170 -64 65 -132 148 -132 162 0 6 -6 14 -14 17 -7 3 -26 28 -42 57 -15 28 -54
89 -86 135 -72 103 -87 125 -124 182 -16 25 -34 50 -41 55 -6 6 -23 31 -37 57
-23 42 -24 49 -12 73 8 15 12 33 10 40 -9 21 -50 23 -75 4z"/>
<path d="M3055 287 c-11 -13 -14 -67 -4 -67 12 0 69 -64 69 -77 0 -7 11 -18
25 -23 66 -25 76 36 16 94 -22 21 -42 49 -45 62 -7 26 -43 33 -61 11z"/>
<path d="M3345 93 c-4 -13 -11 -23 -15 -23 -12 0 -6 -33 10 -52 12 -15 30 -18
94 -18 78 0 79 0 62 19 -10 11 -32 21 -50 23 -21 2 -34 10 -41 26 -5 12 -17
22 -27 22 -9 0 -19 6 -21 13 -4 7 -8 3 -12 -10z"/>
</g>
</svg>
