<?xml version="1.0" standalone="no"?>
<!DOCTYPE svg PUBLIC "-//W3C//DTD SVG 20010904//EN"
 "http://www.w3.org/TR/2001/REC-SVG-20010904/DTD/svg10.dtd">
<svg version="1.0" xmlns="http://www.w3.org/2000/svg"
 width="431.000000pt" height="433.000000pt" viewBox="0 0 431.000000 433.000000"
 preserveAspectRatio="xMidYMid meet">
<metadata>
Created by potrace 1.16, written by Peter Selinger 2001-2019
</metadata>
<g transform="translate(0.000000,433.000000) scale(0.100000,-0.100000)"
fill="#000000" stroke="none">
<path d="M1868 4209 c-18 -4 -78 -14 -133 -23 -55 -9 -122 -23 -150 -31 -27
-8 -82 -22 -122 -31 -43 -9 -93 -29 -124 -50 -29 -19 -60 -34 -68 -34 -8 0
-24 -8 -35 -19 -12 -10 -33 -22 -48 -27 -37 -12 -154 -128 -163 -161 -3 -14
-21 -45 -39 -69 -29 -37 -35 -41 -42 -27 -4 10 -7 21 -6 25 1 3 -5 11 -12 18
-12 9 -13 2 -9 -44 7 -76 -15 -245 -43 -336 -13 -41 -24 -82 -24 -91 0 -9 -12
-52 -26 -95 -14 -44 -27 -88 -28 -100 -2 -11 -6 -27 -11 -34 -4 -7 -9 -29 -10
-49 -1 -20 -8 -54 -15 -76 -6 -22 -18 -76 -25 -120 -8 -44 -17 -98 -21 -120
-8 -46 -9 -316 -1 -357 3 -15 1 -30 -4 -33 -5 -4 -5 -13 1 -24 5 -10 11 -45
14 -77 2 -33 8 -72 14 -89 6 -16 16 -48 22 -70 7 -22 21 -60 32 -85 11 -24 23
-61 26 -82 2 -21 9 -38 13 -38 5 0 9 -5 9 -11 0 -6 11 -25 24 -42 29 -39 69
-117 60 -117 -4 0 0 -8 8 -17 9 -10 22 -35 29 -57 8 -21 20 -41 26 -43 7 -3
13 -11 13 -18 0 -7 16 -36 35 -65 19 -29 35 -56 35 -61 0 -5 4 -9 9 -9 5 0 13
-10 16 -22 4 -13 15 -32 25 -43 10 -11 23 -32 29 -47 6 -16 18 -28 27 -28 8 0
14 -5 12 -11 -2 -7 11 -26 29 -44 18 -18 33 -36 33 -41 0 -5 22 -33 49 -61 46
-50 70 -100 57 -122 -4 -5 -2 -12 3 -15 14 -9 -3 -309 -18 -331 -4 -5 -9 -28
-10 -49 -3 -46 -5 -53 -27 -126 -33 -111 -28 -209 12 -202 10 2 22 8 25 14 14
23 88 387 94 463 2 28 8 95 13 150 10 101 7 161 -10 171 -9 6 41 47 79 63 12
6 25 17 30 25 4 8 42 51 83 96 70 77 169 221 170 247 0 6 8 19 18 29 9 10 16
20 16 23 -2 7 3 21 31 96 13 33 33 95 46 138 13 42 28 77 34 77 7 0 26 -5 43
-11 39 -13 72 2 72 34 0 17 -12 28 -50 45 -27 13 -50 30 -50 37 0 8 -6 15 -12
15 -24 1 -48 27 -52 56 -2 16 -6 36 -9 44 -3 8 -8 35 -11 59 -3 24 -10 49 -15
55 -5 6 -12 27 -16 46 -4 19 -11 40 -15 45 -20 28 -33 124 -19 142 9 9 8 13 0
13 -34 0 34 229 75 253 8 4 14 14 14 21 0 20 64 76 88 76 12 0 22 5 22 11 0 6
9 9 19 6 11 -3 28 1 38 8 22 15 66 11 115 -11 45 -20 81 -87 76 -141 -2 -25 3
-39 16 -48 44 -32 67 14 50 98 -14 65 -38 106 -71 121 -23 11 -53 59 -53 86 0
23 -21 31 -37 14 -7 -6 -47 -19 -90 -28 -43 -9 -87 -22 -98 -28 -11 -7 -31
-17 -45 -25 -14 -7 -43 -33 -65 -59 -22 -25 -44 -51 -50 -58 -5 -6 -11 -19
-13 -30 -2 -10 -14 -35 -27 -55 -57 -88 -66 -293 -18 -400 8 -18 16 -39 17
-46 1 -6 9 -24 18 -38 10 -14 19 -41 21 -61 2 -20 7 -39 10 -43 4 -3 7 -19 7
-33 0 -15 9 -49 21 -75 16 -36 19 -53 11 -73 -6 -15 -13 -36 -18 -47 -4 -11
-8 -24 -8 -30 -3 -23 -37 -124 -51 -151 -8 -16 -15 -35 -15 -42 0 -6 -9 -29
-20 -49 -11 -21 -20 -43 -20 -49 0 -18 -41 -65 -51 -59 -5 4 -9 -3 -9 -14 0
-12 -9 -30 -20 -41 -11 -11 -20 -23 -20 -26 0 -4 -12 -18 -27 -32 -16 -13 -38
-33 -49 -44 -12 -11 -30 -21 -40 -23 -11 -2 -20 -4 -21 -5 -2 -2 -6 -3 -10 -5
-25 -7 -42 -18 -38 -25 3 -5 -5 -19 -18 -32 -13 -13 -26 -30 -29 -38 -3 -9
-12 -11 -32 -6 -16 4 -26 10 -23 13 3 3 -7 16 -24 30 -16 14 -29 29 -29 33 0
5 -12 21 -27 37 -16 16 -37 42 -48 58 -11 16 -30 41 -42 55 -12 15 -25 39 -29
54 -3 15 -19 36 -34 48 -15 11 -31 33 -34 49 -3 16 -17 41 -31 55 -14 14 -25
29 -25 35 0 5 -4 17 -9 27 -45 89 -58 113 -87 152 -18 25 -35 63 -39 85 -4 22
-13 49 -20 60 -16 27 -55 141 -55 163 0 10 -3 22 -6 25 -4 4 -8 21 -10 39 -27
269 -23 530 12 653 29 105 96 383 100 415 5 43 22 100 32 113 5 7 15 50 21 96
6 46 16 90 22 97 5 7 9 30 7 51 -3 32 2 43 31 70 18 17 31 36 27 41 -3 5 1 15
9 22 8 7 15 19 15 27 0 19 52 93 66 93 6 0 16 10 23 23 7 13 28 32 47 42 20
10 48 29 62 42 15 13 39 23 55 23 15 0 27 3 27 8 0 15 68 52 96 52 17 0 34 3
38 7 10 10 140 42 196 49 25 3 52 7 60 10 32 12 123 17 295 17 219 0 358 -9
405 -27 19 -7 63 -14 97 -15 34 -1 94 -13 135 -27 81 -27 97 -32 148 -44 53
-12 102 -31 131 -51 14 -10 37 -19 51 -21 13 -2 37 -11 51 -21 14 -9 31 -17
37 -17 5 0 10 -4 10 -9 0 -5 8 -12 18 -15 22 -8 120 -100 154 -146 15 -19 40
-51 57 -70 17 -19 31 -40 31 -46 0 -7 7 -14 14 -17 8 -3 23 -21 32 -39 9 -18
20 -35 23 -38 17 -12 41 -56 41 -73 0 -16 -5 -18 -37 -13 -21 4 -51 3 -68 -2
-53 -15 -206 20 -227 52 -5 7 -15 6 -32 -3 -13 -8 -32 -11 -40 -8 -20 8 -30
-42 -23 -111 3 -33 0 -60 -9 -77 -8 -15 -14 -34 -14 -41 0 -8 -4 -14 -10 -14
-5 0 -10 -10 -10 -21 0 -22 -39 -99 -50 -99 -3 0 -12 -16 -20 -35 -8 -19 -17
-35 -21 -35 -5 0 -25 -18 -45 -40 -50 -54 -136 -110 -169 -110 -14 0 -43 -9
-63 -19 -21 -11 -59 -22 -84 -26 -26 -4 -53 -14 -60 -22 -7 -9 -13 -48 -14
-92 -3 -88 -27 -218 -49 -261 -16 -32 -11 -86 10 -94 7 -2 22 -2 33 1 19 5 28
25 38 88 10 63 17 92 27 110 6 11 11 52 12 92 1 62 4 75 24 92 12 11 29 17 36
15 8 -3 26 4 42 15 16 12 42 24 58 27 17 3 44 12 60 21 17 9 46 24 65 34 45
24 142 122 171 174 28 50 59 114 69 140 32 84 39 109 42 154 2 28 6 51 11 51
4 0 7 -4 7 -8 0 -14 192 -44 242 -39 49 6 58 -3 58 -61 0 -12 7 -25 15 -28 22
-9 45 -63 47 -109 2 -56 -10 -145 -20 -159 -5 -6 -15 -29 -22 -51 -7 -22 -21
-60 -32 -83 -11 -24 -19 -60 -19 -80 0 -41 24 -138 46 -186 7 -17 21 -57 29
-88 9 -31 21 -60 26 -63 6 -3 10 -17 10 -31 0 -13 4 -32 9 -42 22 -43 44 -99
47 -122 3 -14 10 -47 16 -73 14 -54 1 -90 -37 -111 -11 -6 -23 -15 -26 -20 -4
-5 -25 -10 -46 -11 -22 -1 -45 -5 -52 -9 -6 -4 -11 -2 -11 5 0 6 -8 9 -18 7
-10 -3 -23 1 -30 9 -18 18 -59 16 -66 -3 -9 -23 24 -76 59 -94 69 -36 66 -30
47 -83 -19 -52 -28 -58 -42 -24 -5 12 -9 18 -10 12 0 -5 -4 -4 -9 4 -8 12 -13
12 -35 -3 -29 -18 -31 -24 -13 -47 19 -24 47 -31 63 -14 20 20 33 19 33 -2 -1
-30 14 -98 21 -103 4 -3 11 -24 15 -47 6 -37 4 -42 -16 -48 -12 -4 -37 -22
-56 -41 -27 -28 -32 -39 -27 -61 9 -36 6 -34 60 -44 53 -10 76 -33 68 -68 -6
-29 -54 -89 -70 -90 -7 -1 -11 -15 -9 -33 2 -18 -4 -48 -11 -67 -8 -19 -12
-43 -8 -54 10 -32 3 -261 -8 -273 -5 -4 -8 -19 -8 -33 0 -26 -46 -101 -62
-101 -6 0 -28 -15 -51 -32 -35 -28 -49 -33 -102 -34 -152 -4 -335 62 -442 159
-19 17 -49 38 -67 47 -18 8 -45 27 -60 42 -15 16 -33 28 -40 28 -7 0 -25 13
-42 29 -16 15 -38 31 -50 35 -11 3 -29 14 -40 24 -10 9 -42 28 -71 41 -29 13
-61 35 -72 47 -12 13 -28 24 -36 24 -18 0 -66 48 -85 87 -8 15 -21 32 -27 36
-7 4 -13 18 -13 30 0 38 -20 95 -35 101 -17 6 -75 -12 -75 -24 0 -5 7 -13 15
-17 12 -7 13 -18 6 -56 -7 -37 -6 -47 5 -47 18 0 54 -31 54 -47 0 -7 5 -13 11
-13 5 0 7 -4 4 -10 -3 -5 1 -10 10 -10 8 0 18 -7 21 -15 9 -22 60 -75 73 -75
6 0 25 -14 43 -30 17 -17 37 -30 45 -30 8 0 33 -13 56 -28 23 -15 59 -36 80
-47 20 -11 37 -22 37 -26 0 -6 103 -69 173 -104 21 -11 49 -34 62 -51 13 -17
39 -37 57 -44 18 -8 45 -22 60 -32 25 -17 25 -20 13 -46 -9 -16 -15 -72 -18
-143 -2 -63 -6 -120 -9 -125 -7 -12 -2 -124 7 -151 8 -24 39 -31 51 -12 3 6 8
61 10 123 2 61 4 118 4 126 0 8 6 54 12 103 10 84 20 101 44 77 24 -24 137
-42 239 -37 114 6 140 15 149 51 3 14 16 28 29 32 27 8 63 46 73 76 3 13 15
36 26 51 17 24 21 49 24 165 2 75 5 161 5 190 2 46 6 56 28 70 14 9 31 21 36
27 19 19 38 70 36 95 -3 39 -53 129 -76 137 -18 6 -18 7 8 15 16 6 27 17 27
28 0 10 5 22 10 25 19 11 10 43 -43 154 -29 59 -3 176 41 187 23 6 29 19 12
29 -5 3 -10 11 -10 16 0 6 4 8 9 4 34 -20 150 77 152 127 1 47 -9 98 -22 114
-7 9 -15 27 -17 41 -1 13 -12 47 -22 74 -11 27 -20 57 -20 66 0 9 -10 36 -21
60 -23 48 -40 104 -42 143 -1 14 -6 28 -10 31 -4 3 -10 19 -13 35 -3 16 -12
39 -20 51 -15 24 -19 83 -5 83 8 0 12 16 24 85 2 11 10 31 17 45 8 14 15 31
16 39 2 8 7 17 11 20 5 3 10 53 10 110 2 105 -11 164 -44 203 -8 9 -13 29 -11
45 2 23 8 28 31 28 15 1 36 10 48 21 l20 20 -21 24 c-11 13 -20 35 -20 50 0
18 -14 43 -42 73 -24 25 -52 63 -63 83 -11 21 -37 56 -57 79 -21 22 -44 54
-52 70 -19 39 -129 151 -157 160 -28 9 -143 76 -147 86 -2 4 -9 6 -16 3 -7 -3
-44 9 -82 27 -67 31 -99 40 -194 59 -25 5 -58 15 -75 24 -16 8 -50 16 -75 16
-41 2 -94 9 -175 25 -109 22 -483 38 -557 24z m-916 -551 c-9 -9 -12 -7 -12
12 0 19 3 21 12 12 9 -9 9 -15 0 -24z"/>
<path d="M2963 2843 c-24 -2 -43 -9 -43 -15 0 -5 -6 -8 -14 -5 -22 9 -35 -14
-31 -57 4 -36 35 -88 35 -58 0 7 4 11 9 7 6 -3 15 4 21 15 6 11 17 20 25 20 8
0 15 4 15 10 0 13 66 24 82 13 7 -4 36 -9 63 -10 28 -1 71 -4 96 -8 53 -8 66
3 48 37 -14 26 -35 41 -64 44 -45 6 -203 10 -242 7z m-23 -32 c0 -5 -7 -12
-16 -15 -14 -5 -15 -4 -4 9 14 17 20 19 20 6z"/>
<path d="M2986 2685 c-14 -38 39 -70 139 -81 l55 -7 0 31 c0 38 -23 62 -54 56
-14 -2 -37 1 -52 6 -21 8 -29 8 -35 -2 -7 -10 -12 -10 -28 -1 -16 10 -20 9
-25 -2z"/>
<path d="M2268 2522 c-39 -38 -29 -65 28 -80 25 -7 50 -10 55 -7 12 8 12 45 0
45 -5 0 -16 16 -25 35 -9 19 -20 35 -24 34 -4 0 -19 -12 -34 -27z"/>
<path d="M2241 2387 c-13 -13 -14 -47 -2 -66 12 -18 97 -8 123 16 33 30 20 38
-88 57 -12 2 -27 -1 -33 -7z"/>
<path d="M2192 2248 c-19 -19 -15 -102 7 -122 14 -13 20 -14 28 -4 13 16 24
103 16 123 -6 18 -35 19 -51 3z"/>
<path d="M2338 2202 c-13 -2 -18 -13 -18 -38 0 -19 5 -34 10 -34 6 0 10 -9 10
-21 0 -17 14 -54 25 -67 2 -2 12 1 23 7 22 12 24 53 4 102 -6 15 -8 30 -5 33
4 3 -1 6 -9 6 -9 0 -18 4 -20 8 -1 4 -11 6 -20 4z"/>
<path d="M2286 2004 c-20 -19 -20 -29 -1 -58 9 -13 17 -37 18 -55 1 -17 5 -31
10 -31 4 0 7 -7 7 -15 0 -8 4 -15 9 -15 16 0 40 30 36 43 -2 7 -6 35 -9 62 -2
28 -7 58 -11 68 -9 21 -38 22 -59 1z"/>
<path d="M2194 1881 c3 -4 -3 -16 -14 -26 -21 -19 -18 -32 17 -84 12 -18 20
-37 18 -41 -3 -5 4 -12 16 -15 32 -10 56 43 28 61 -6 3 -9 24 -7 45 2 22 0 39
-5 39 -5 0 -15 7 -23 15 -16 16 -39 21 -30 6z"/>
<path d="M3240 1866 c0 -2 7 -6 15 -10 8 -3 15 -1 15 4 0 6 -7 10 -15 10 -8 0
-15 -2 -15 -4z"/>
<path d="M2480 1814 c-9 -3 -21 -14 -28 -25 -11 -17 -10 -25 9 -55 11 -19 18
-42 15 -50 -4 -12 -2 -15 9 -10 8 3 15 1 15 -5 0 -17 37 9 43 31 3 11 1 20 -3
20 -5 0 -16 23 -25 50 -9 28 -17 49 -18 49 -1 -1 -9 -3 -17 -5z"/>
<path d="M2610 1744 c0 -5 13 -31 28 -59 20 -37 39 -56 74 -75 26 -13 50 -21
54 -18 12 12 -5 52 -36 86 -24 27 -36 33 -55 28 -18 -5 -29 0 -44 20 -12 15
-21 23 -21 18z"/>
<path d="M3180 1726 c0 -9 5 -16 10 -16 6 0 10 4 10 9 0 6 -4 13 -10 16 -5 3
-10 -1 -10 -9z"/>
<path d="M3228 1719 c-49 -28 24 -95 78 -71 33 16 30 41 -6 55 -16 6 -30 15
-30 19 0 11 -21 9 -42 -3z"/>
<path d="M2381 1657 c-3 -32 68 -139 95 -143 28 -4 34 21 14 59 -11 20 -20 46
-20 57 0 24 -43 38 -64 21 -11 -9 -15 -9 -19 1 -3 7 -6 9 -6 5z"/>
<path d="M2161 1631 c-8 -14 -5 -29 9 -59 11 -23 20 -45 20 -50 0 -5 7 -23 16
-41 13 -26 21 -32 43 -29 21 2 25 7 22 28 -1 14 -6 27 -10 30 -10 6 -25 61
-22 78 4 22 -28 62 -49 62 -11 0 -24 -8 -29 -19z"/>
<path d="M2047 1633 c-23 -23 6 -145 46 -195 33 -41 54 -7 31 48 -9 21 -17 60
-19 88 -2 28 -4 54 -4 59 -1 9 -45 9 -54 0z"/>
<path d="M2965 1630 c-4 -6 -16 -8 -28 -5 -15 4 -18 3 -9 -3 8 -5 12 -17 10
-28 -5 -28 38 -46 99 -40 61 5 93 -1 93 -19 0 -7 11 -20 25 -29 20 -13 29 -14
50 -4 23 10 26 16 21 42 -4 16 -7 31 -9 32 -1 2 -20 -1 -42 -6 -45 -10 -90 -3
-106 16 -6 8 -17 14 -24 14 -6 0 -22 9 -35 20 -26 23 -36 25 -45 10z"/>
<path d="M2600 1535 c26 -52 83 -107 102 -100 28 11 29 35 3 69 -14 18 -25 38
-25 44 0 13 -26 22 -66 20 l-30 -1 16 -32z"/>
<path d="M2885 1518 c25 -15 54 -49 55 -65 0 -15 36 -27 52 -16 7 4 21 6 31 5
26 -5 31 24 9 46 -35 35 -61 45 -78 31 -9 -8 -18 -9 -22 -3 -4 5 -20 10 -37
12 -27 2 -28 1 -10 -10z"/>
<path d="M2471 1406 c-17 -32 -6 -66 22 -66 12 0 28 -4 36 -9 18 -11 51 -2 51
15 0 17 -66 84 -84 84 -7 0 -18 -11 -25 -24z"/>
<path d="M2948 1389 c-2 -6 -16 -11 -32 -12 -37 -3 -45 -24 -13 -36 13 -5 27
-16 30 -23 2 -8 22 -15 43 -16 20 -2 41 -5 45 -8 10 -6 32 34 24 45 -10 17
-94 59 -97 50z"/>
<path d="M2296 1377 c3 -10 9 -15 12 -12 3 3 0 11 -7 18 -10 9 -11 8 -5 -6z"/>
<path d="M2323 1364 c-14 -22 -14 -26 -1 -42 9 -9 21 -33 28 -53 18 -50 36
-73 55 -66 20 8 20 61 -1 92 -9 14 -14 34 -11 45 5 20 -14 43 -39 46 -8 1 -22
-9 -31 -22z"/>
<path d="M3105 1370 c-2 -3 3 -11 11 -18 8 -7 14 -10 14 -6 0 3 7 1 15 -6 8
-7 13 -16 10 -20 -8 -14 34 -22 71 -15 27 5 34 11 34 30 0 16 -7 26 -22 31
-26 8 -128 11 -133 4z"/>
<path d="M2173 1322 c10 -10 17 -22 17 -26 0 -5 11 -21 25 -38 14 -16 25 -36
25 -44 0 -8 10 -14 24 -14 34 0 38 31 14 91 -22 51 -39 60 -79 39 -13 -7 -19
-7 -19 0 0 5 -5 10 -12 10 -6 0 -4 -7 5 -18z"/>
<path d="M2686 1325 c9 -6 17 -23 17 -38 0 -21 5 -27 31 -33 17 -3 39 -13 49
-22 16 -14 19 -14 34 0 14 15 14 19 -6 47 -28 39 -55 53 -103 56 -32 2 -35 0
-22 -10z"/>
<path d="M2510 1283 c0 -6 8 -17 18 -24 16 -13 16 -13 2 6 -8 11 -16 22 -17
24 -2 2 -3 0 -3 -6z"/>
<path d="M2550 1243 c0 -45 77 -135 108 -127 28 8 24 34 -16 94 -28 41 -44 56
-64 58 -25 3 -28 0 -28 -25z"/>
<path d="M2826 1206 c3 -8 15 -16 27 -18 13 -2 23 -13 27 -28 3 -14 12 -25 20
-25 8 0 18 -4 21 -9 10 -13 89 4 89 20 0 7 -13 20 -30 29 -16 9 -30 19 -30 24
0 15 -50 19 -64 6 -10 -10 -16 -10 -31 1 -24 18 -36 18 -29 0z"/>
<path d="M2441 1169 c-2 -12 32 -71 53 -93 34 -36 63 -48 86 -36 26 14 25 26
-4 45 -13 9 -29 29 -36 45 -14 33 -31 38 -53 15 -13 -13 -17 -12 -30 8 -9 12
-16 19 -16 16z"/>
<path d="M3070 1133 c0 -8 5 -11 10 -8 6 3 18 -7 28 -24 13 -24 24 -31 47 -31
17 0 35 4 41 8 15 10 37 53 30 59 -3 3 -39 7 -81 8 -60 2 -75 0 -75 -12z"/>
<path d="M2731 1076 c7 -14 16 -26 20 -26 4 0 9 -10 13 -23 5 -20 10 -23 38
-19 33 5 78 29 78 41 0 10 -61 35 -90 36 -14 1 -35 5 -48 9 -21 7 -21 6 -11
-18z"/>
<path d="M3003 1023 c-26 -10 -13 -43 26 -67 40 -25 81 -26 81 -1 0 11 -84 78
-93 74 -1 0 -8 -3 -14 -6z"/>
<path d="M2945 1010 c3 -5 13 -10 21 -10 8 0 12 5 9 10 -3 6 -13 10 -21 10 -8
0 -12 -4 -9 -10z"/>
<path d="M3246 982 c-3 -6 -24 -9 -46 -7 -44 4 -54 -11 -14 -21 14 -4 30 -17
34 -30 12 -32 74 -34 90 -4 9 16 6 22 -17 37 -16 10 -31 21 -34 26 -4 5 -9 4
-13 -1z"/>
<path d="M2690 960 c0 -5 -7 -7 -16 -3 -35 13 -8 -30 34 -53 47 -27 63 -29 79
-13 8 8 2 20 -21 43 -29 30 -76 46 -76 26z"/>
<path d="M2881 894 c6 -8 18 -14 26 -14 20 0 8 16 -17 23 -17 4 -19 3 -9 -9z"/>
<path d="M2942 885 c-10 -21 -8 -28 11 -46 32 -30 49 -37 76 -30 23 6 22 7
-21 54 -25 26 -47 47 -50 47 -3 0 -10 -11 -16 -25z"/>
<path d="M3150 820 c-25 -4 -49 -5 -55 -2 -5 3 -4 -2 3 -10 8 -9 19 -15 27
-12 8 3 19 -6 27 -23 15 -31 35 -32 75 -6 27 18 30 38 6 47 -10 3 -22 8 -28
10 -5 2 -30 0 -55 -4z"/>
<path d="M2750 680 c0 -5 5 -10 10 -10 6 0 10 -8 11 -17 0 -15 2 -15 8 2 5 11
7 23 4 28 -6 11 -33 9 -33 -3z"/>
</g>
</svg>
