<?xml version="1.0" standalone="no"?>
<!DOCTYPE svg PUBLIC "-//W3C//DTD SVG 20010904//EN"
 "http://www.w3.org/TR/2001/REC-SVG-20010904/DTD/svg10.dtd">
<svg version="1.0" xmlns="http://www.w3.org/2000/svg"
 width="499.000000pt" height="381.000000pt" viewBox="0 0 499.000000 381.000000"
 preserveAspectRatio="xMidYMid meet">
<metadata>
Created by potrace 1.16, written by Peter Selinger 2001-2019
</metadata>
<g transform="translate(0.000000,381.000000) scale(0.100000,-0.100000)"
fill="#000000" stroke="none">
<path d="M2395 3549 c-38 -4 -116 -19 -172 -33 -56 -14 -113 -26 -126 -26 -12
0 -27 -4 -33 -10 -5 -5 -22 -11 -37 -12 -15 -1 -27 -5 -27 -8 0 -3 -8 -6 -17
-7 -50 -4 -78 -15 -124 -47 -27 -20 -53 -36 -58 -36 -5 0 -12 -11 -15 -25 -5
-21 -11 -24 -34 -19 -24 5 -33 -1 -67 -46 -22 -28 -55 -69 -72 -91 -18 -23
-33 -45 -33 -50 0 -5 -7 -9 -15 -9 -8 0 -15 -6 -15 -13 0 -15 -26 -51 -58 -81
-13 -11 -35 -40 -49 -63 -14 -24 -29 -43 -34 -43 -5 0 -9 -10 -9 -23 0 -12 -6
-31 -14 -42 -17 -26 -72 -188 -82 -240 -3 -22 -8 -48 -10 -58 -1 -9 -6 -22 -9
-27 -4 -6 -8 -36 -11 -68 -2 -31 -7 -77 -12 -102 -8 -49 1 -168 17 -240 6 -25
13 -63 16 -85 8 -51 29 -101 107 -250 15 -27 35 -69 44 -93 10 -24 27 -51 39
-60 30 -24 99 -121 115 -159 7 -18 16 -33 21 -33 5 0 9 -5 9 -11 0 -31 104
-160 225 -280 74 -74 155 -158 178 -188 23 -30 54 -67 69 -82 15 -15 34 -42
43 -61 24 -52 64 -120 83 -143 10 -11 26 -38 35 -59 18 -39 84 -128 101 -135
11 -5 35 -30 71 -75 95 -121 194 -196 290 -220 90 -23 122 -29 163 -30 17 -1
32 -5 32 -10 0 -4 12 -5 28 -1 32 8 43 10 99 20 24 4 45 11 49 16 3 5 16 9 28
9 38 0 138 59 189 112 26 27 47 51 47 54 0 2 10 21 23 42 22 34 38 85 52 157
3 17 7 41 10 54 2 13 14 43 25 67 19 39 20 47 8 81 -15 44 -24 53 -57 53 -18
0 -22 4 -18 19 7 27 -32 43 -64 27 -19 -9 -24 -20 -25 -51 -2 -45 -4 -55 -33
-145 -50 -150 -170 -302 -268 -337 -21 -7 -59 -14 -84 -14 -56 -1 -159 19
-159 31 0 5 -13 11 -30 15 -30 7 -91 38 -171 90 -62 40 -135 137 -203 272 -32
61 -64 117 -72 124 -8 6 -14 15 -14 20 0 10 -67 124 -83 141 -7 7 -22 26 -34
41 -31 40 -118 139 -188 215 -57 60 -225 279 -225 291 0 4 -10 18 -23 31 -13
14 -24 32 -24 40 0 8 -13 35 -30 60 -16 25 -42 77 -57 115 -15 39 -39 87 -52
108 -14 22 -27 47 -29 57 -2 10 -8 27 -13 37 -5 10 -13 38 -17 63 -4 25 -14
72 -22 105 -12 43 -16 98 -14 195 3 194 25 296 98 447 19 40 33 74 31 75 -2 2
7 14 20 28 12 13 22 32 22 41 0 10 3 19 8 21 4 2 23 23 42 48 43 57 177 185
210 202 14 7 43 25 65 39 22 14 58 33 80 42 22 8 67 28 100 43 75 34 77 35
150 40 33 3 75 9 94 14 19 5 41 5 50 1 9 -5 36 -11 61 -15 47 -7 154 -40 205
-63 90 -42 177 -117 363 -317 9 -10 40 -38 68 -62 45 -38 55 -43 75 -35 31 13
98 70 82 71 -9 0 -10 7 -3 25 9 23 4 31 -43 79 -28 30 -74 80 -102 112 -73 84
-187 193 -210 200 -11 4 -22 9 -25 13 -5 6 -56 31 -140 69 -58 27 -144 51
-200 57 -25 3 -58 6 -75 8 -16 2 -61 0 -100 -4z"/>
<path d="M2464 3126 c-28 -11 -45 -12 -89 -5 -11 1 -42 -1 -70 -6 -27 -4 -54
-9 -60 -10 -90 -13 -119 -20 -130 -31 -7 -8 -20 -14 -28 -14 -8 0 -21 -8 -29
-17 -19 -23 -68 -113 -68 -125 0 -5 -9 -21 -20 -35 -11 -14 -20 -32 -20 -40 0
-8 -6 -29 -14 -46 -22 -51 -50 -241 -38 -263 5 -10 10 -50 10 -89 1 -119 23
-194 69 -243 7 -7 15 -29 18 -50 12 -74 27 -110 54 -123 14 -8 30 -20 34 -26
4 -7 13 -13 20 -13 11 0 57 -93 57 -115 0 -34 59 -116 122 -170 42 -36 77 -74
85 -95 8 -19 25 -59 39 -88 13 -29 24 -56 24 -61 0 -4 9 -16 20 -26 12 -11 28
-34 36 -52 9 -17 26 -42 38 -55 12 -13 39 -49 60 -80 21 -32 41 -58 45 -58 4
0 7 -8 8 -17 1 -10 8 -36 16 -58 12 -31 21 -41 41 -43 44 -6 44 42 0 98 -7 8
-17 34 -23 58 -7 23 -16 42 -21 42 -6 0 -10 5 -10 10 0 13 -37 50 -43 44 -3
-3 -7 7 -11 21 -4 14 -10 25 -15 25 -5 0 -20 17 -32 38 -13 20 -31 46 -41 56
-10 11 -18 26 -18 33 0 7 -5 13 -11 13 -5 0 -8 4 -5 8 6 10 -77 176 -96 195
-7 7 -30 25 -51 40 -42 32 -96 111 -97 142 0 11 -6 32 -14 46 -7 14 -16 37
-19 51 -6 22 -66 72 -106 89 -8 3 -15 16 -17 30 -10 101 -17 122 -66 214 -18
32 -22 57 -23 129 0 57 -4 91 -11 93 -8 3 -8 21 1 66 7 34 15 84 19 110 3 26
11 60 19 75 8 15 31 59 51 99 36 70 77 109 124 118 9 2 17 4 17 5 0 1 24 4 54
6 30 3 63 10 72 15 23 12 66 12 74 -1 9 -15 48 -12 72 5 20 14 26 14 65 -1 24
-9 57 -16 75 -15 22 1 43 -9 73 -34 23 -19 52 -35 64 -35 20 0 56 -31 56 -49
0 -12 39 -45 58 -47 16 -3 41 -27 72 -73 8 -11 22 -24 32 -27 11 -3 18 -15 18
-31 0 -14 9 -41 21 -59 15 -24 19 -42 14 -63 -6 -29 -28 -46 -46 -35 -5 3 -9
1 -9 -4 0 -5 -6 -9 -12 -9 -33 -2 -125 -12 -143 -16 -29 -7 -95 -47 -95 -58 0
-6 -9 -20 -21 -32 -12 -12 -28 -32 -36 -44 -21 -32 -18 -120 6 -170 12 -23 21
-46 21 -51 0 -5 8 -20 18 -33 10 -13 22 -32 25 -43 6 -15 4 -17 -10 -11 -10 4
-46 14 -81 21 -50 11 -67 11 -82 2 -64 -40 -13 -91 105 -104 47 -6 125 -39
125 -54 0 -13 49 -30 56 -19 11 18 74 -91 74 -127 0 -12 -4 -12 -20 -2 -11 7
-20 17 -20 23 0 14 -80 65 -101 65 -10 0 -21 5 -24 10 -3 6 -15 10 -25 10 -10
0 -23 7 -28 16 -11 19 -106 31 -117 15 -15 -25 5 -66 38 -78 121 -42 162 -67
219 -133 23 -27 33 -31 59 -28 30 5 31 4 25 -25 -3 -16 -6 -37 -6 -47 0 -9
-14 -37 -31 -63 -35 -53 -32 -82 9 -90 41 -8 67 15 95 85 22 54 25 76 23 153
-3 99 -20 175 -48 217 -10 14 -18 30 -18 35 0 4 -16 22 -35 38 -19 17 -35 35
-35 42 0 6 -11 25 -25 41 -14 17 -25 33 -25 37 0 5 -11 23 -25 41 -14 18 -25
38 -25 44 0 7 -9 25 -21 41 -11 16 -18 29 -15 29 3 0 1 11 -4 24 -7 20 -2 31
39 76 l47 53 79 7 c112 9 148 27 175 87 25 53 28 127 7 152 -8 9 -19 34 -25
56 -7 26 -22 47 -42 60 -16 11 -30 25 -30 31 0 16 -75 83 -105 94 -14 5 -27
20 -30 33 -5 19 -74 72 -87 67 -11 -5 -58 22 -58 33 0 9 -18 19 -42 25 -24 5
-71 16 -104 25 -48 11 -68 12 -90 3z"/>
</g>
</svg>
