<?xml version="1.0" standalone="no"?>
<!DOCTYPE svg PUBLIC "-//W3C//DTD SVG 20010904//EN"
 "http://www.w3.org/TR/2001/REC-SVG-20010904/DTD/svg10.dtd">
<svg version="1.0" xmlns="http://www.w3.org/2000/svg"
 width="457.000000pt" height="375.000000pt" viewBox="0 0 457.000000 375.000000"
 preserveAspectRatio="xMidYMid meet">
<metadata>
Created by potrace 1.16, written by Peter Selinger 2001-2019
</metadata>
<g transform="translate(0.000000,375.000000) scale(0.100000,-0.100000)"
fill="#000000" stroke="none">
<path d="M2648 2365 c-3 -4 -42 -9 -87 -11 -44 -2 -92 -9 -106 -14 -15 -6 -30
-8 -35 -5 -5 3 -11 1 -15 -5 -3 -5 -13 -10 -22 -10 -18 0 -89 -49 -134 -92
-15 -16 -34 -28 -42 -28 -7 0 -27 12 -45 28 -63 56 -73 62 -95 62 -12 0 -34 6
-49 14 -14 8 -44 17 -65 20 -56 9 -243 10 -283 2 -44 -10 -110 -38 -110 -47 0
-4 -18 -16 -39 -27 -44 -23 -134 -90 -139 -103 -2 -5 -9 -9 -16 -9 -6 0 -18
-9 -26 -21 -8 -11 -40 -32 -70 -47 -30 -14 -65 -36 -78 -48 -12 -12 -35 -25
-50 -28 -15 -4 -54 -20 -87 -35 -63 -30 -193 -66 -203 -57 -3 4 -13 -1 -22 -9
-9 -8 -40 -17 -70 -21 -30 -3 -58 -8 -62 -11 -4 -2 -44 -10 -88 -18 -78 -14
-115 -12 -105 6 3 4 6 29 7 55 1 54 -17 74 -57 67 -34 -7 -46 -25 -50 -73 -2
-22 -16 -62 -31 -88 -72 -122 -80 -166 -40 -207 22 -22 27 -23 53 -10 34 16
81 21 108 10 11 -5 38 -22 60 -40 22 -17 65 -43 95 -57 57 -27 154 -111 186
-163 20 -32 31 -45 97 -116 23 -25 51 -58 62 -73 11 -15 28 -37 38 -49 11 -12
25 -34 33 -49 8 -15 22 -33 33 -40 10 -7 28 -32 39 -55 12 -23 28 -46 35 -50
14 -9 114 -159 140 -210 9 -17 28 -40 42 -51 14 -11 25 -24 25 -30 0 -5 10
-13 22 -16 13 -3 36 -24 51 -46 26 -37 127 -128 193 -174 30 -21 158 -86 169
-86 4 0 30 -16 57 -35 82 -60 143 -77 323 -91 102 -8 168 -6 235 8 30 6 69 12
85 13 73 5 177 41 243 84 28 18 52 38 52 42 0 5 6 9 13 9 6 0 23 9 37 20 14
11 33 20 42 20 9 0 18 3 20 8 2 4 25 25 52 46 60 49 225 213 219 219 -2 3 22
32 54 65 65 68 145 160 153 176 12 26 95 136 102 136 4 0 8 5 8 11 0 6 10 25
23 42 12 17 27 39 32 48 19 31 106 161 115 173 60 75 141 190 155 219 16 34
40 59 126 130 40 32 46 33 54 7 7 -23 55 -70 70 -70 21 1 55 39 55 63 0 13
-11 50 -25 82 -14 31 -28 78 -31 104 -11 111 -26 141 -66 141 -38 0 -59 -34
-52 -81 5 -31 3 -37 -10 -35 -8 1 -18 5 -22 9 -4 3 -14 3 -23 -2 -9 -5 -68 -7
-131 -6 -93 2 -123 6 -155 23 -22 11 -58 23 -80 27 -44 7 -321 140 -333 159
-4 7 -22 18 -40 25 -18 8 -48 29 -66 47 -19 19 -42 34 -52 34 -15 0 -204 90
-274 129 -20 12 -73 34 -85 36 -5 1 -15 3 -22 3 -6 1 -13 9 -15 18 -2 9 -6 13
-10 9z m-5 -135 c27 -7 51 -19 54 -27 3 -7 12 -13 20 -13 20 0 149 -65 158
-81 4 -5 17 -9 30 -9 13 0 31 -7 39 -16 9 -8 16 -13 16 -10 0 3 25 -10 55 -29
30 -19 59 -35 65 -35 6 0 13 -7 16 -15 4 -8 12 -15 19 -15 7 0 15 -4 17 -9 2
-4 44 -27 93 -51 50 -24 106 -53 125 -65 19 -12 37 -22 40 -22 3 -1 25 -7 50
-14 25 -7 47 -13 50 -14 3 -1 22 -9 43 -18 22 -9 56 -22 78 -28 22 -7 37 -14
35 -17 -3 -2 -38 -12 -79 -21 -59 -14 -119 -17 -308 -16 -241 1 -272 5 -384
55 -11 5 -58 21 -105 35 -47 15 -98 32 -115 39 -20 9 -67 12 -145 9 -140 -4
-140 -4 -140 -14 0 -4 -20 -11 -45 -15 -25 -3 -45 -10 -45 -16 0 -5 -17 -16
-37 -25 -21 -8 -45 -22 -55 -30 -19 -17 -101 -9 -122 13 -8 7 -25 15 -39 18
-13 2 -38 11 -53 19 -16 8 -40 14 -54 12 -14 -1 -61 -6 -105 -9 -132 -12 -187
-20 -203 -29 -4 -3 -68 -21 -142 -40 -116 -31 -151 -36 -249 -36 -63 -1 -131
3 -150 9 -20 5 -74 11 -121 15 -153 10 -195 15 -227 24 -18 5 -33 7 -33 5 0
-3 -6 -2 -12 2 -7 5 15 13 52 20 36 7 101 21 145 32 44 11 83 18 87 16 3 -2
10 1 13 7 4 5 13 8 21 5 7 -3 26 1 41 9 15 8 35 15 43 16 8 0 33 11 55 24 22
14 56 31 75 40 19 9 49 23 66 30 17 8 37 21 44 30 7 8 16 12 21 9 5 -3 9 0 9
5 0 6 7 11 15 11 7 0 18 6 22 13 10 16 141 120 173 137 14 8 31 13 39 11 7 -1
10 2 7 7 -3 6 14 20 38 32 38 18 62 21 158 21 114 -1 208 -21 208 -46 0 -11
11 -17 93 -55 26 -12 47 -26 47 -30 0 -3 16 -11 35 -17 20 -6 35 -7 35 -2 0 5
3 8 8 6 4 -1 34 24 67 55 33 32 66 58 73 58 6 0 12 4 12 8 0 12 68 34 130 42
61 8 64 8 133 -10z m-55 -517 c4 -6 30 -13 57 -16 28 -4 66 -11 85 -16 19 -5
46 -13 60 -16 14 -4 34 -11 45 -15 123 -54 161 -60 406 -66 181 -4 217 -3 304
15 54 12 108 21 119 20 19 0 18 -2 -8 -22 -55 -42 -181 -149 -221 -188 -22
-22 -63 -56 -91 -77 -29 -20 -78 -60 -110 -88 -106 -93 -168 -142 -175 -138
-3 2 -14 -5 -24 -16 -10 -11 -24 -20 -30 -20 -7 0 -18 -7 -25 -15 -7 -8 -19
-15 -26 -15 -8 0 -32 -11 -54 -25 -38 -24 -164 -72 -205 -78 -11 -1 -25 -6
-32 -10 -17 -11 -237 -9 -304 2 -65 11 -135 28 -164 40 -11 5 -51 21 -90 37
-38 15 -96 43 -128 61 -33 18 -63 33 -67 33 -5 0 -31 19 -59 43 -27 23 -80 58
-118 77 -37 19 -74 40 -81 47 -8 7 -39 25 -70 40 -31 14 -59 29 -62 32 -11 14
-87 61 -120 74 -19 9 -61 27 -93 41 -32 14 -64 26 -72 26 -17 0 -135 49 -155
65 -8 6 -31 18 -50 25 -19 7 -39 18 -45 23 -7 7 -3 7 10 3 11 -5 94 -10 185
-13 138 -4 172 -3 210 11 25 9 56 18 70 20 14 2 59 11 100 20 41 10 85 19 97
21 12 2 26 6 32 9 5 4 54 9 108 12 84 5 107 2 158 -16 33 -12 71 -24 85 -27
14 -3 27 -9 30 -14 7 -10 77 -15 86 -6 4 4 15 7 25 7 10 0 35 10 56 22 58 33
115 61 148 73 38 14 194 12 203 -2z m-1707 -193 c130 -72 293 -145 364 -163 6
-2 20 -8 32 -15 12 -7 29 -12 37 -12 9 0 16 -4 16 -9 0 -5 8 -11 18 -15 9 -3
40 -19 67 -36 28 -16 57 -33 65 -37 8 -4 21 -13 28 -20 7 -7 22 -13 32 -13 10
0 20 -3 22 -7 5 -14 72 -58 113 -78 22 -10 60 -32 84 -49 70 -50 93 -64 141
-88 25 -13 47 -25 50 -28 12 -12 159 -79 205 -93 52 -16 168 -41 245 -53 25
-4 90 -7 145 -7 85 1 120 6 229 38 71 21 137 45 147 54 10 9 51 34 91 55 40
21 84 47 97 57 13 11 28 19 32 19 5 0 44 35 86 77 43 42 109 96 146 121 38 24
97 73 131 108 35 35 65 64 69 64 6 0 29 20 99 87 21 20 38 30 38 24 0 -7 -16
-27 -36 -44 -20 -18 -40 -41 -45 -52 -13 -30 -31 -56 -61 -93 -16 -18 -28 -37
-28 -43 0 -5 -4 -15 -10 -22 -32 -40 -81 -110 -96 -138 -9 -18 -23 -39 -30
-47 -8 -7 -27 -30 -42 -50 -15 -21 -35 -46 -45 -56 -9 -11 -17 -23 -17 -28 0
-4 -26 -34 -57 -67 -73 -76 -132 -143 -179 -203 -20 -27 -43 -48 -50 -48 -8 0
-14 -5 -14 -11 0 -15 -43 -54 -105 -95 -27 -19 -59 -40 -70 -47 -73 -49 -111
-71 -117 -69 -5 1 -8 -3 -8 -8 0 -6 -12 -15 -27 -21 -15 -6 -41 -16 -58 -24
-61 -28 -236 -54 -335 -50 -190 9 -241 19 -336 72 -23 12 -66 32 -95 44 -30
11 -75 36 -101 55 -27 19 -52 34 -56 34 -14 0 -242 224 -242 238 0 6 -4 12
-10 12 -5 0 -21 20 -35 44 -14 24 -32 50 -40 56 -8 7 -15 21 -15 31 0 11 -4
19 -10 19 -5 0 -16 12 -24 28 -8 15 -25 38 -38 53 -23 26 -35 42 -66 92 -9 16
-24 37 -33 47 -8 10 -24 31 -35 45 -42 58 -94 123 -136 167 -23 26 -59 68 -78
94 -33 44 -96 108 -136 140 -18 14 -18 14 0 7 11 -4 50 -23 87 -43z"/>
</g>
</svg>
