<?xml version="1.0" standalone="no"?>
<!DOCTYPE svg PUBLIC "-//W3C//DTD SVG 20010904//EN"
 "http://www.w3.org/TR/2001/REC-SVG-20010904/DTD/svg10.dtd">
<svg version="1.0" xmlns="http://www.w3.org/2000/svg"
 width="533.000000pt" height="485.000000pt" viewBox="0 0 533.000000 485.000000"
 preserveAspectRatio="xMidYMid meet">
<metadata>
Created by potrace 1.16, written by Peter Selinger 2001-2019
</metadata>
<g transform="translate(0.000000,485.000000) scale(0.100000,-0.100000)"
fill="#000000" stroke="none">
<path d="M4580 4570 c0 -5 -53 -63 -117 -129 -65 -65 -154 -158 -198 -206 -44
-48 -105 -114 -136 -146 -31 -32 -54 -60 -52 -63 3 -2 -8 -12 -22 -22 -27 -18
-28 -18 -101 21 -41 22 -74 42 -74 45 0 3 -8 6 -17 7 -10 1 -67 16 -128 33
-163 46 -176 49 -225 55 -25 4 -54 8 -65 10 -143 29 -264 36 -508 30 -141 -3
-263 -8 -270 -10 -6 -2 -47 -6 -89 -10 -80 -6 -149 -17 -207 -34 -19 -6 -37
-8 -42 -6 -4 3 -38 -6 -76 -19 -37 -13 -96 -31 -131 -40 -34 -9 -73 -23 -87
-32 -14 -9 -32 -14 -40 -10 -8 3 -15 0 -15 -7 0 -15 -51 -47 -73 -47 -9 0 -22
-6 -29 -14 -8 -7 -41 -28 -74 -45 -32 -18 -66 -36 -74 -41 -8 -4 -53 -27 -100
-50 -84 -42 -217 -138 -296 -215 -77 -74 -113 -105 -124 -105 -5 0 -10 -6 -10
-14 0 -8 -11 -23 -25 -34 -14 -11 -25 -24 -25 -28 0 -5 -11 -20 -25 -34 -95
-96 -177 -224 -246 -385 -33 -76 -98 -272 -106 -320 -2 -11 -7 -31 -13 -45 -5
-14 -11 -41 -14 -61 -3 -20 -10 -49 -16 -64 -6 -16 -9 -34 -6 -41 3 -8 1 -16
-5 -19 -5 -4 -7 -11 -3 -16 3 -6 8 -142 10 -302 4 -342 17 -553 38 -621 9 -26
19 -69 22 -95 3 -25 8 -49 11 -53 2 -5 6 -16 8 -26 3 -16 -5 -18 -81 -16 -73
1 -91 -2 -141 -26 -32 -16 -72 -41 -90 -57 -18 -15 -47 -41 -67 -56 -31 -26
-84 -123 -90 -165 -2 -9 -7 -17 -12 -19 -6 -2 -6 -29 -2 -66 14 -120 25 -172
46 -220 12 -27 20 -53 16 -58 -3 -5 -1 -9 4 -9 5 0 17 -21 27 -47 21 -60 74
-165 89 -178 6 -6 20 -28 31 -49 22 -42 84 -73 104 -53 8 8 11 7 11 -3 0 -10
3 -11 10 -4 18 18 14 78 -9 121 -12 24 -19 43 -17 43 3 0 -6 11 -19 25 -14 13
-25 31 -25 40 0 8 -4 15 -9 15 -5 0 -13 10 -16 23 -4 12 -16 31 -26 43 -10 11
-30 53 -44 94 -23 68 -25 83 -20 204 5 121 7 133 32 171 38 55 70 85 94 85 10
0 19 5 19 11 0 6 7 9 15 5 8 -3 15 -1 15 3 0 14 70 22 110 13 26 -6 39 -16 52
-42 9 -19 21 -40 27 -46 20 -24 52 -152 57 -228 3 -44 7 -83 10 -88 3 -4 18
-8 33 -8 21 0 36 10 56 36 25 32 27 41 21 87 -9 70 -11 80 -18 92 -3 6 -9 38
-13 72 -3 34 -16 86 -27 115 -19 50 -36 136 -42 218 -2 19 -5 42 -9 50 -3 8
-8 35 -11 60 -3 25 -8 56 -10 70 -23 122 -50 568 -47 770 2 105 24 246 42 264
5 6 9 19 9 31 0 12 14 59 30 105 17 47 38 107 46 134 15 47 69 155 104 206 9
14 27 45 39 69 42 83 171 231 267 306 21 17 57 47 80 68 23 20 46 37 51 37 5
0 23 13 39 30 16 16 34 30 41 30 6 0 13 4 15 9 3 10 60 46 101 63 15 7 27 16
27 20 0 4 4 8 9 8 5 0 45 20 90 45 45 25 86 43 91 40 4 -3 10 2 14 10 3 8 10
15 16 15 6 0 28 11 50 25 22 14 44 25 50 25 6 0 26 10 43 23 18 13 57 29 87
37 30 7 91 23 135 35 91 27 124 33 215 40 36 3 94 10 130 15 75 10 90 10 300
13 170 2 339 -7 434 -23 33 -6 86 -13 116 -16 30 -3 80 -14 110 -24 30 -10 74
-21 98 -25 35 -6 222 -91 241 -111 3 -2 -32 -40 -77 -83 -45 -43 -82 -82 -82
-85 0 -4 -19 -26 -42 -50 -24 -23 -59 -60 -78 -82 -19 -21 -60 -61 -90 -89
-30 -27 -64 -63 -75 -80 -10 -16 -29 -39 -40 -50 -56 -52 -84 -73 -89 -68 -3
4 -6 2 -6 -4 0 -13 -89 -124 -162 -201 l-59 -63 -24 30 c-14 16 -25 35 -25 43
0 18 -29 58 -30 40 0 -7 -4 -10 -10 -7 -5 3 -26 3 -45 -1 -25 -4 -35 -11 -31
-20 3 -8 1 -14 -4 -14 -6 0 -10 -11 -10 -24 0 -14 -4 -27 -9 -30 -5 -3 -12
-18 -16 -33 -3 -16 -16 -38 -27 -50 -12 -13 -19 -23 -16 -23 7 0 -107 -257
-121 -274 -20 -25 -22 -72 -4 -93 18 -21 103 -39 103 -22 0 5 6 9 13 9 7 0 31
13 53 28 21 15 64 39 94 52 30 14 61 31 69 38 12 11 66 37 66 32 0 -1 20 10
45 24 25 14 68 37 95 50 28 14 46 25 41 25 -5 1 -3 7 3 15 23 28 -4 86 -40 86
-11 0 -19 5 -19 10 0 6 -11 10 -25 10 -14 0 -25 6 -25 13 0 15 65 87 79 87 6
0 11 4 11 10 0 19 516 550 556 573 8 4 14 15 14 22 0 8 6 15 13 16 6 0 38 32
70 70 39 46 65 69 79 69 23 0 98 -47 98 -61 0 -4 8 -10 18 -13 9 -3 35 -24 57
-46 22 -21 45 -39 50 -40 6 0 22 -12 35 -27 14 -16 43 -41 65 -57 22 -17 46
-37 52 -45 7 -9 32 -40 55 -70 57 -70 96 -132 97 -151 1 -8 9 -20 19 -26 17
-12 34 -42 71 -126 12 -26 25 -49 30 -52 5 -4 19 -39 31 -79 12 -39 33 -99 46
-132 27 -66 65 -195 58 -195 -2 0 2 -12 10 -27 13 -27 36 -122 41 -173 1 -14
7 -53 14 -86 6 -34 11 -75 11 -90 -1 -16 -1 -76 -1 -134 0 -140 -6 -277 -13
-288 -2 -4 -8 -53 -11 -107 -7 -96 -36 -292 -54 -365 -5 -19 -13 -60 -16 -90
-4 -30 -12 -66 -18 -80 -5 -14 -12 -34 -14 -45 -2 -11 -6 -27 -10 -35 -3 -8
-7 -17 -7 -20 -1 -6 -22 -79 -37 -126 -5 -17 -9 -41 -9 -53 0 -12 -11 -41 -24
-64 -17 -32 -22 -52 -19 -84 5 -44 35 -86 56 -78 25 10 104 167 106 210 1 39
4 51 23 105 9 25 21 63 27 85 11 41 52 75 91 75 21 0 58 -42 66 -77 4 -12 10
-23 14 -23 21 0 30 -165 12 -211 -6 -13 -16 -58 -23 -99 -10 -61 -22 -89 -61
-150 -67 -105 -71 -110 -84 -110 -6 0 -16 -11 -22 -25 -6 -14 -16 -25 -22 -25
-5 0 -9 -4 -7 -8 2 -8 -78 -140 -92 -152 -3 -3 -11 -14 -18 -25 -6 -11 -16
-19 -22 -18 -6 2 -11 -4 -11 -12 0 -8 -4 -15 -10 -15 -18 0 -11 -59 8 -69 22
-11 52 3 52 26 0 13 3 13 15 3 20 -17 65 -4 85 23 17 24 51 85 75 133 9 18 28
46 43 63 29 33 47 58 116 162 79 118 125 290 122 454 -2 97 -3 102 -39 160
-21 33 -50 70 -66 83 -36 27 -115 44 -149 31 -14 -5 -27 -7 -30 -5 -3 3 3 37
12 76 10 39 20 90 22 113 3 23 6 49 8 57 12 63 16 96 20 170 3 47 9 99 14 115
8 28 10 72 16 328 3 159 -39 447 -83 560 -6 15 -8 27 -5 27 4 0 -1 11 -10 25
-9 14 -14 25 -12 25 6 0 -6 37 -39 125 -15 39 -35 98 -46 131 -10 34 -27 72
-38 85 -10 13 -35 58 -56 99 -21 41 -52 95 -69 120 -98 141 -250 320 -272 320
-7 0 -14 7 -18 15 -3 8 -11 15 -19 15 -7 0 -24 11 -37 25 -17 18 -133 110
-179 142 -4 3 10 20 120 138 46 50 105 113 130 140 25 28 67 69 93 93 41 38
49 42 63 30 15 -12 15 -11 2 9 -12 21 -11 25 13 50 l27 27 22 -25 21 -24 -7
38 c-6 30 -4 41 11 55 53 48 57 58 39 91 -9 18 -23 31 -34 31 -10 0 -24 7 -31
15 -14 17 -60 21 -60 5z"/>
<path d="M2417 1338 c-9 -5 -17 -13 -17 -18 0 -13 -71 -85 -97 -99 -22 -11
-129 -37 -193 -47 -19 -2 -46 -7 -59 -9 -13 -2 -29 -1 -35 2 -6 4 -29 8 -51
10 -62 4 -147 12 -175 16 -23 4 -105 45 -187 93 -27 16 -34 17 -56 5 -14 -7
-27 -21 -29 -30 -7 -25 11 -83 23 -75 6 4 14 2 18 -3 9 -15 103 -67 125 -70
11 -2 25 -8 31 -13 6 -5 30 -12 53 -16 23 -4 42 -9 42 -13 0 -7 14 -8 165 -11
66 -2 140 0 165 4 25 4 59 9 75 11 105 15 164 43 222 104 29 31 56 67 60 80
12 48 -41 101 -80 79z"/>
<path d="M4323 1310 c-13 -5 -23 -14 -23 -20 0 -5 -11 -10 -25 -10 -14 0 -25
-4 -25 -8 0 -17 -87 -45 -231 -77 -59 -13 -197 -14 -264 -1 -39 8 -92 27 -127
46 -10 6 -24 10 -33 10 -8 0 -31 9 -51 21 -44 24 -77 19 -100 -17 -16 -24 -16
-27 5 -54 11 -16 21 -34 21 -40 0 -5 5 -10 11 -10 6 0 45 -17 87 -37 42 -21
79 -38 82 -39 3 0 12 -3 20 -7 66 -25 303 -33 374 -13 28 8 60 15 71 14 39 -1
203 64 236 94 18 17 46 35 61 40 49 17 45 98 -4 85 -11 -3 -18 0 -18 9 0 8 -4
14 -9 14 -5 0 -15 2 -23 4 -7 3 -23 1 -35 -4z"/>
<path d="M3054 340 c-24 -24 -182 -90 -215 -90 -13 0 -39 0 -57 0 -18 0 -53 9
-78 21 -66 29 -80 30 -109 7 -19 -15 -24 -25 -19 -42 10 -30 54 -72 85 -79 14
-4 36 -16 49 -27 13 -11 32 -21 44 -21 148 -8 273 24 340 86 26 23 46 47 46
52 0 6 7 16 15 23 21 17 19 35 -9 64 -28 31 -64 33 -92 6z"/>
</g>
</svg>
