<?xml version="1.0" standalone="no"?>
<!DOCTYPE svg PUBLIC "-//W3C//DTD SVG 20010904//EN"
 "http://www.w3.org/TR/2001/REC-SVG-20010904/DTD/svg10.dtd">
<svg version="1.0" xmlns="http://www.w3.org/2000/svg"
 width="541.000000pt" height="481.000000pt" viewBox="0 0 541.000000 481.000000"
 preserveAspectRatio="xMidYMid meet">
<metadata>
Created by potrace 1.16, written by Peter Selinger 2001-2019
</metadata>
<g transform="translate(0.000000,481.000000) scale(0.100000,-0.100000)"
fill="#000000" stroke="none">
<path d="M4055 4769 c-12 -23 -13 -34 -5 -44 13 -15 12 -235 -1 -292 -10 -46
7 -87 38 -91 29 -4 32 8 39 183 9 223 8 245 -13 261 -28 21 -41 17 -58 -17z"/>
<path d="M1384 4726 c-17 -13 -19 -28 -19 -155 0 -147 1 -151 46 -151 27 0 37
32 28 93 -4 29 -8 84 -9 122 -1 83 -16 112 -46 91z"/>
<path d="M2533 4429 c-17 -18 -18 -25 -10 -59 14 -51 38 -62 134 -63 91 -1
134 14 158 56 19 32 15 51 -13 66 -16 9 -27 5 -56 -18 -32 -25 -44 -29 -94
-28 -49 2 -57 5 -60 22 -2 12 -11 26 -21 32 -15 9 -22 8 -38 -8z"/>
<path d="M1427 4242 c-15 -16 -15 -25 -1 -107 37 -215 34 -206 78 -210 24 -3
26 0 26 37 0 21 -5 48 -10 58 -6 10 -15 54 -20 97 -18 137 -20 143 -39 143
-10 0 -25 -8 -34 -18z"/>
<path d="M4068 4192 c-15 -17 -24 -32 -21 -35 9 -10 -48 -202 -64 -214 -10 -8
-12 -13 -4 -13 6 0 11 -6 9 -12 -8 -44 58 -80 69 -38 3 11 9 20 14 20 5 0 6 6
4 13 -6 15 7 80 34 172 20 66 20 132 1 120 -5 -3 -10 0 -12 6 -2 6 -15 -3 -30
-19z"/>
<path d="M3060 3900 c0 -6 -6 -18 -12 -27 -60 -75 -157 -127 -258 -138 -36 -4
-81 -10 -100 -13 -70 -11 -116 -5 -197 28 -46 18 -83 36 -83 41 0 5 -7 9 -15
9 -8 0 -15 4 -15 9 0 5 -9 12 -19 16 -11 3 -35 17 -54 30 -28 18 -39 21 -50
12 -27 -21 -30 -55 -7 -74 11 -10 24 -18 28 -19 13 -1 47 -17 52 -24 10 -14
90 -60 103 -60 7 0 37 -12 66 -26 50 -25 57 -26 164 -20 173 9 218 16 273 42
28 13 54 24 58 24 3 0 29 24 57 54 28 30 56 53 63 50 6 -2 16 9 23 25 15 40
-6 71 -48 71 -16 0 -29 -5 -29 -10z"/>
<path d="M1540 3715 c-11 -21 -11 -30 6 -67 10 -24 33 -61 49 -83 17 -22 41
-56 53 -76 23 -39 47 -45 75 -21 21 19 22 37 2 60 -78 90 -103 124 -119 165
-20 53 -45 62 -66 22z"/>
<path d="M3953 3678 c-11 -13 -29 -39 -41 -58 -12 -19 -50 -64 -87 -98 -36
-35 -65 -67 -65 -70 0 -14 16 -30 36 -36 17 -5 35 7 90 62 147 147 160 166
125 201 -26 26 -33 26 -58 -1z"/>
<path d="M1856 3292 c-14 -27 -14 -31 3 -46 10 -9 21 -16 26 -16 4 0 23 -11
41 -25 18 -14 40 -25 48 -25 11 0 16 -10 16 -32 0 -18 8 -53 16 -78 13 -34 16
-81 16 -198 -1 -162 -11 -255 -41 -387 -11 -44 -22 -102 -25 -130 -8 -62 -73
-203 -98 -211 -10 -3 -25 -18 -33 -34 -14 -26 -13 -29 8 -42 13 -9 32 -12 47
-8 14 4 36 4 50 0 14 -4 79 1 145 11 66 10 139 18 163 18 56 1 87 29 70 65 -8
20 -15 23 -28 16 -10 -5 -20 -7 -23 -3 -4 3 -41 1 -84 -5 -43 -6 -102 -14
-130 -17 l-53 -6 21 48 c39 91 48 124 65 253 2 19 14 84 25 144 22 116 28 361
11 479 -5 31 -7 59 -5 61 5 5 79 -17 88 -26 4 -4 18 -2 31 4 18 8 24 19 24 43
0 43 -28 67 -67 59 -36 -7 -169 37 -230 77 -65 43 -80 45 -97 11z"/>
<path d="M3510 3280 c0 -11 -93 -40 -130 -40 -15 0 -30 -3 -33 -6 -7 -7 -49
-13 -135 -18 -54 -3 -72 -15 -72 -47 0 -26 22 -39 67 -39 l43 0 -6 -32 c-4
-18 -13 -62 -21 -98 -8 -36 -17 -141 -20 -235 -7 -213 -9 -186 16 -280 27
-102 25 -94 44 -139 9 -21 17 -41 17 -45 0 -4 16 -31 36 -61 30 -44 37 -63 35
-98 -2 -51 12 -59 107 -60 35 0 69 -5 76 -11 11 -10 37 -15 131 -25 22 -3 48
-8 58 -11 22 -9 70 3 62 15 -3 5 0 12 6 15 7 5 3 15 -10 29 -18 19 -33 23 -90
23 -52 1 -80 7 -119 27 -28 14 -57 26 -65 26 -7 0 -21 15 -30 33 -9 17 -35 60
-57 95 -22 35 -56 113 -76 173 -34 103 -36 117 -34 222 5 220 19 357 41 398 5
11 7 28 4 39 -5 15 1 21 32 29 21 6 47 11 59 11 26 0 112 29 119 41 3 4 7 24
9 44 2 34 1 35 -31 35 -18 0 -33 -4 -33 -10z"/>
<path d="M4935 3220 c-11 -5 -33 -14 -50 -21 -16 -7 -32 -13 -35 -13 -3 -1
-26 -15 -51 -33 -25 -17 -70 -39 -100 -48 -112 -33 -177 -59 -314 -124 -60
-29 -119 -56 -130 -61 -11 -4 -31 -12 -45 -18 -80 -33 -175 -61 -300 -87 -8
-2 -28 -9 -45 -15 -43 -17 -135 -39 -135 -31 0 3 23 20 51 36 46 27 79 67 79
94 0 6 -14 18 -31 27 -30 15 -32 15 -58 -10 -15 -14 -31 -26 -35 -26 -5 0 -25
-15 -45 -32 -129 -113 -185 -158 -199 -158 -17 0 -51 -40 -52 -60 0 -9 6 -24
14 -35 13 -19 25 -20 247 -18 129 1 241 2 249 2 11 1 16 15 18 50 3 43 0 51
-20 62 -21 11 -20 13 32 30 30 10 89 27 130 38 86 22 100 27 195 71 39 18 90
41 115 52 25 11 56 26 70 34 30 18 73 37 120 54 19 7 85 30 145 52 61 22 120
42 133 45 12 3 25 9 28 14 3 5 13 9 22 9 20 0 42 43 42 81 0 33 -19 49 -45 39z"/>
<path d="M2845 3188 c-11 -6 -23 -15 -26 -20 -3 -5 -34 -13 -70 -19 -79 -14
-74 -14 -130 -5 -47 7 -70 -5 -75 -40 -4 -26 44 -53 89 -50 100 8 178 19 183
27 3 5 14 9 25 9 10 0 19 5 19 10 0 6 7 10 15 10 8 0 15 3 16 8 0 4 2 15 4 24
2 10 -4 27 -13 38 -14 16 -21 17 -37 8z"/>
<path d="M2854 2198 c-3 -4 -8 -6 -12 -4 -4 2 -45 -2 -90 -9 -46 -8 -90 -11
-97 -9 -18 7 -71 -21 -79 -41 -8 -22 7 -48 30 -51 11 -2 48 4 84 12 36 9 95
16 132 17 37 1 72 7 77 12 9 10 15 38 12 61 -1 14 -49 25 -57 12z"/>
<path d="M4112 2054 c-12 -8 -22 -22 -22 -30 0 -19 67 -84 86 -84 8 0 14 -4
14 -8 0 -5 24 -19 53 -32 57 -26 117 -67 117 -81 0 -5 8 -17 18 -27 26 -26 72
-8 72 29 0 15 -3 35 -6 44 -8 19 -87 75 -107 75 -9 0 -17 3 -19 8 -1 4 -28 20
-58 36 -30 16 -70 42 -88 58 -39 33 -32 32 -60 12z"/>
<path d="M1440 2024 c-41 -20 -87 -45 -103 -56 -15 -11 -43 -24 -62 -29 -54
-15 -61 -70 -12 -88 16 -6 28 -2 47 16 14 13 40 29 58 35 17 7 32 15 32 19 0
8 86 50 97 47 5 -1 27 4 51 11 33 9 42 16 42 34 0 57 -46 60 -150 11z"/>
<path d="M933 1768 c-40 -20 -89 -68 -110 -106 -7 -12 -19 -32 -25 -44 -7 -13
-21 -32 -30 -43 -10 -12 -21 -35 -24 -53 -6 -30 -5 -32 23 -32 35 0 45 11 102
107 45 78 68 97 116 98 28 0 30 2 28 35 -1 19 -2 38 -2 41 -2 17 -44 15 -78
-3z"/>
<path d="M4607 1562 c-23 -26 -22 -33 18 -79 19 -22 59 -90 90 -152 58 -116
75 -130 107 -93 22 24 17 52 -15 86 -15 16 -27 33 -27 37 0 18 -61 140 -79
158 -10 10 -22 28 -26 40 -8 26 -46 28 -68 3z"/>
<path d="M624 1332 c-6 -4 -14 -20 -17 -37 -4 -16 -15 -70 -26 -120 -23 -102
-20 -145 11 -145 32 0 57 39 58 90 0 25 7 70 16 100 9 30 16 66 16 79 0 33
-31 51 -58 33z"/>
<path d="M4883 948 c-6 -13 -7 -36 -2 -53 10 -39 18 -87 26 -155 7 -64 17 -80
50 -80 18 0 28 9 38 32 7 18 10 35 6 38 -7 5 -29 113 -39 193 -2 20 -9 37 -16
37 -6 0 -20 3 -32 6 -15 4 -23 -1 -31 -18z"/>
<path d="M525 800 c-13 -14 -17 -36 -16 -80 0 -34 3 -65 6 -70 3 -4 7 -32 10
-62 11 -110 13 -116 40 -110 47 8 52 41 28 177 -2 17 -5 56 -6 89 -2 50 -5 60
-24 67 -15 5 -26 2 -38 -11z"/>
<path d="M4926 387 c-17 -12 -17 -16 1 -92 10 -44 18 -93 17 -110 0 -16 4 -33
10 -37 13 -9 59 1 68 15 9 14 2 107 -11 140 -6 16 -11 35 -11 43 0 46 -38 67
-74 41z"/>
<path d="M590 347 c-24 -12 -25 -16 -21 -92 1 -44 5 -83 8 -87 7 -12 48 -9 61
4 7 7 12 43 12 90 0 64 -3 79 -18 87 -12 7 -26 6 -42 -2z"/>
</g>
</svg>
