<?xml version="1.0" standalone="no"?>
<!DOCTYPE svg PUBLIC "-//W3C//DTD SVG 20010904//EN"
 "http://www.w3.org/TR/2001/REC-SVG-20010904/DTD/svg10.dtd">
<svg version="1.0" xmlns="http://www.w3.org/2000/svg"
 width="531.000000pt" height="459.000000pt" viewBox="0 0 531.000000 459.000000"
 preserveAspectRatio="xMidYMid meet">
<metadata>
Created by potrace 1.16, written by Peter Selinger 2001-2019
</metadata>
<g transform="translate(0.000000,459.000000) scale(0.100000,-0.100000)"
fill="#000000" stroke="none">
<path d="M4158 4570 c-10 -10 -13 -22 -9 -24 5 -3 12 -20 16 -38 4 -18 10 -40
12 -48 3 -8 10 -52 16 -98 10 -80 11 -83 35 -80 39 5 48 29 33 87 -7 27 -14
67 -16 88 -1 21 -8 59 -15 86 -10 38 -17 47 -34 47 -12 0 -29 -9 -38 -20z"/>
<path d="M1550 4412 c-30 -35 -37 -46 -114 -187 -33 -60 -70 -128 -82 -150
-60 -106 -126 -256 -141 -325 -3 -14 -9 -29 -13 -35 -6 -9 -10 -21 -21 -70 -2
-5 -8 -32 -15 -60 -28 -111 -33 -133 -44 -205 -6 -41 -16 -93 -21 -115 -24
-88 -10 -453 21 -560 9 -32 22 -92 21 -100 0 -2 7 -24 16 -47 8 -24 28 -92 44
-153 16 -60 34 -127 39 -147 5 -20 12 -58 16 -85 3 -26 13 -63 23 -83 18 -34
36 -74 79 -170 11 -25 43 -83 71 -129 28 -46 53 -93 57 -105 11 -33 153 -226
203 -276 86 -85 93 -94 82 -123 -8 -19 -5 -34 10 -64 11 -21 22 -56 26 -78 3
-22 11 -47 18 -55 7 -8 18 -35 25 -59 6 -24 18 -50 25 -57 13 -14 13 -32 0
-132 -8 -56 0 -80 27 -78 29 1 36 19 43 109 5 62 11 79 26 87 14 8 19 7 19 -2
0 -9 3 -10 8 -2 7 12 162 36 244 38 25 0 49 4 53 8 14 14 -1 377 -16 393 -9 9
-82 14 -94 7 -9 -6 -35 -8 -167 -15 l-56 -3 -11 38 c-7 22 -25 47 -42 60 -27
20 -159 180 -159 193 0 7 -50 79 -59 85 -5 3 -18 25 -31 50 -12 25 -28 52 -36
60 -28 33 -127 248 -160 347 -8 27 -19 57 -23 68 -8 21 -23 62 -46 130 -8 22
-19 60 -25 85 -7 25 -18 61 -25 80 -13 33 -35 119 -51 200 -4 19 -8 54 -9 76
-1 23 -5 46 -8 51 -10 16 1 355 13 408 6 28 11 59 11 70 0 11 4 35 10 52 6 18
12 47 14 65 7 51 17 92 25 103 4 6 13 33 19 62 6 28 20 68 31 88 11 19 20 45
20 56 0 11 11 42 25 69 14 27 25 55 25 62 0 7 14 31 30 52 17 22 30 45 30 52
0 6 7 17 15 24 8 7 15 19 15 27 0 20 46 120 59 128 6 3 11 15 11 27 0 11 9 31
20 45 25 32 25 54 2 79 -10 10 -19 22 -19 27 -3 20 -10 26 -33 31 -19 5 -31 0
-50 -22z m671 -3110 c5 -14 8 -72 7 -130 l-3 -105 -47 -12 c-26 -6 -49 -10
-51 -9 -2 2 -32 -1 -68 -7 -71 -11 -153 -4 -143 13 4 6 1 14 -5 18 -14 8 -63
189 -55 202 3 4 -1 8 -8 9 -7 0 2 7 21 15 18 8 69 17 113 19 44 2 82 6 85 9 3
2 36 4 75 4 65 -1 70 -2 79 -26z"/>
<path d="M4225 4128 c-23 -13 -35 -29 -30 -38 9 -14 6 -77 -5 -119 -9 -36 -8
-48 5 -67 10 -16 21 -21 33 -17 25 9 28 18 31 72 1 27 6 72 10 101 6 40 5 55
-6 66 -17 16 -13 16 -38 2z"/>
<path d="M4185 3760 c-24 -13 -30 -24 -30 -51 -1 -58 -17 -163 -26 -175 -7 -8
-2 -14 15 -18 13 -3 32 -9 43 -13 10 -3 15 -3 11 2 -4 4 -4 13 1 19 10 11 17
54 26 144 3 29 6 56 7 60 1 4 -3 16 -8 28 -9 20 -10 20 -39 4z"/>
<path d="M4113 3348 c-6 -7 -13 -35 -16 -63 -8 -60 -11 -79 -28 -134 -11 -36
-10 -44 4 -58 19 -19 44 -11 56 19 20 49 41 128 41 152 0 13 5 26 10 28 7 2 6
15 -2 36 -13 34 -46 44 -65 20z"/>
<path d="M4048 2906 c-12 -9 -22 -39 -30 -92 -6 -43 -17 -82 -22 -86 -7 -5 -6
-8 3 -8 10 0 11 -3 2 -14 -12 -15 -2 -27 32 -39 28 -10 44 13 50 73 8 78 13
105 21 118 11 18 -4 58 -22 59 -9 1 -25 -4 -34 -11z"/>
<path d="M4037 2552 c-14 -15 -14 -25 -1 -97 7 -44 14 -102 15 -128 1 -39 6
-50 22 -56 52 -19 66 14 43 104 -7 28 -14 77 -15 110 -1 42 -7 64 -18 73 -22
16 -27 15 -46 -6z"/>
<path d="M1532 2390 c-24 -15 -31 -26 -30 -45 4 -39 23 -51 60 -37 34 12 48 9
48 -13 0 -7 4 -15 9 -17 17 -6 21 -84 5 -106 -10 -15 -12 -27 -4 -47 9 -22 13
-24 31 -15 49 27 57 44 55 119 -2 51 -7 75 -19 84 -8 6 -25 28 -36 47 -12 19
-21 32 -21 28 0 -4 -15 -1 -33 7 -30 12 -37 12 -65 -5z"/>
<path d="M4092 2134 c-5 -9 -3 -48 5 -92 8 -42 15 -94 16 -114 1 -32 5 -38 30
-44 16 -3 31 -3 34 0 9 8 6 72 -6 131 -5 28 -10 68 -10 90 -1 37 -3 40 -31 42
-18 1 -33 -4 -38 -13z"/>
<path d="M4178 1793 c-22 -5 -23 -30 -4 -80 8 -21 17 -50 20 -65 6 -27 5 -28
-39 -28 -39 0 -47 -4 -57 -25 -16 -36 4 -56 51 -49 57 9 71 8 71 -6 0 -15 38
-50 54 -50 8 0 17 13 21 30 7 31 -10 100 -25 100 -5 0 -14 26 -20 58 -7 31
-13 62 -15 67 -1 6 -3 14 -3 18 -1 8 -29 38 -34 36 -2 -1 -11 -3 -20 -6z"/>
<path d="M935 1634 c-16 -18 -36 -34 -43 -34 -8 0 -26 -6 -40 -14 -39 -20 -68
-31 -149 -55 -64 -19 -72 -25 -78 -51 -6 -25 7 -70 20 -70 3 0 23 7 44 16 50
20 73 15 45 -10 -10 -10 -71 -68 -134 -129 -167 -162 -281 -268 -416 -388 -16
-14 -50 -38 -76 -53 -53 -31 -57 -45 -28 -93 24 -40 42 -41 78 -8 15 14 31 25
35 25 5 0 29 20 55 44 26 24 61 55 77 68 17 12 32 26 33 30 2 5 8 8 13 8 6 0
36 25 67 56 31 31 73 68 92 83 42 31 168 155 232 228 l46 53 -9 -41 c-7 -29
-6 -45 2 -55 14 -17 59 -14 59 3 0 7 5 13 10 13 6 0 10 9 10 20 0 11 6 23 13
26 8 3 12 16 10 32 -4 25 4 44 73 171 11 19 27 42 37 53 31 33 17 88 -24 88
-10 0 -19 4 -21 9 -1 5 -16 -7 -33 -25z"/>
<path d="M3945 1604 c-6 -2 -50 -7 -100 -12 l-89 -7 -7 -33 -7 -32 119 4 c121
4 149 13 149 50 0 23 -39 41 -65 30z"/>
<path d="M3538 1540 c-2 -5 -30 -11 -63 -14 -33 -4 -80 -9 -105 -13 -25 -4
-49 -6 -54 -5 -10 3 0 -59 12 -69 4 -4 27 -3 52 3 25 5 82 12 128 15 45 3 82
8 83 12 6 47 4 52 -22 65 -15 8 -29 10 -31 6z"/>
<path d="M2664 1455 c-7 -18 -57 -34 -110 -34 -126 0 -191 -22 -168 -59 12
-18 32 -19 124 -8 92 12 134 13 146 5 13 -11 54 17 54 37 0 8 -9 22 -19 31
-11 9 -17 22 -14 29 3 8 2 14 -1 14 -4 0 -9 -7 -12 -15z"/>
<path d="M3087 1453 c-2 -2 -57 -5 -122 -6 -97 -3 -119 -6 -126 -20 -6 -11 -6
-24 0 -36 9 -17 19 -18 93 -14 46 2 111 4 144 4 67 -1 76 6 67 51 -4 19 -11
26 -29 26 -13 0 -25 -2 -27 -5z"/>
<path d="M4292 1328 c-16 -16 -15 -38 3 -82 18 -42 11 -88 -14 -85 -58 5 -89
-2 -94 -22 -10 -36 1 -46 51 -46 84 -1 91 -7 83 -70 -1 -7 7 -17 18 -22 15 -9
23 -7 36 6 13 13 15 28 10 77 -11 102 -27 190 -37 203 -5 6 -8 20 -6 30 4 22
-31 30 -50 11z"/>
<path d="M3860 1159 c0 -5 -7 -9 -15 -9 -8 0 -15 -4 -15 -10 0 -5 4 -10 9 -10
5 0 11 -8 13 -18 4 -16 20 -20 89 -26 147 -14 142 -14 153 17 14 37 0 47 -70
53 -33 2 -83 6 -111 9 -29 2 -53 0 -53 -6z"/>
<path d="M3625 1129 c-16 -3 -69 -7 -116 -8 -88 -1 -120 -13 -125 -45 -1 -9 2
-14 7 -10 5 3 9 1 9 -4 0 -16 52 -35 60 -22 4 7 50 15 107 18 70 5 104 12 115
23 27 27 -11 59 -57 48z"/>
<path d="M2669 1096 c-2 -2 -22 -6 -44 -9 -22 -3 -83 -10 -135 -17 -95 -12
-120 -21 -120 -45 0 -21 35 -45 57 -39 19 5 23 0 33 -38 12 -47 35 -98 63
-140 10 -16 15 -28 10 -28 -4 0 -1 -5 7 -10 18 -11 60 -13 61 -2 0 4 2 15 4
25 2 9 0 17 -4 17 -19 0 -92 182 -79 195 12 12 110 18 117 7 5 -8 14 -7 31 2
19 9 24 19 23 41 -2 27 -15 50 -24 41z"/>
<path d="M2909 1084 c-9 -11 -10 -23 -3 -42 9 -26 10 -26 97 -24 48 0 92 4 97
7 5 3 7 -4 5 -17 -3 -12 1 -25 8 -30 7 -4 12 -36 12 -90 0 -90 6 -108 35 -108
26 0 30 21 33 174 3 154 7 147 -88 135 -49 -6 -119 -4 -161 6 -13 3 -27 -2
-35 -11z"/>
<path d="M4357 881 c-22 -24 -18 -292 5 -314 28 -28 49 19 49 111 2 194 0 209
-20 215 -11 3 -26 -2 -34 -12z"/>
<path d="M2666 654 c-22 -21 -20 -47 3 -61 11 -7 32 -34 47 -60 14 -27 44 -61
66 -77 38 -27 40 -27 53 -10 23 30 18 43 -35 96 -27 28 -50 56 -50 63 0 18
-39 65 -55 65 -7 0 -21 -7 -29 -16z"/>
<path d="M1893 649 c-24 -9 -28 -18 -44 -109 -6 -36 -13 -78 -16 -94 -4 -22 0
-33 18 -47 31 -23 49 -9 49 40 0 20 7 61 15 91 16 60 19 116 8 123 -5 3 -18 1
-30 -4z"/>
<path d="M3148 638 c-20 -16 -33 -58 -18 -58 8 0 10 -31 7 -102 -3 -57 -3
-115 0 -130 7 -34 38 -43 57 -16 21 30 11 276 -13 301 -14 14 -20 15 -33 5z"/>
<path d="M4384 476 c-3 -8 -2 -57 3 -108 4 -53 4 -120 -1 -156 -10 -67 -5 -79
32 -87 26 -5 35 8 38 55 1 19 3 35 4 35 2 0 2 87 -1 178 -2 73 -4 79 -26 88
-33 12 -43 11 -49 -5z"/>
<path d="M2903 418 c-33 -16 -28 -44 13 -83 41 -39 159 -99 180 -91 16 6 19
52 4 61 -5 3 -7 11 -4 19 3 9 -5 13 -28 13 -17 0 -34 5 -36 11 -2 7 -11 12
-20 12 -10 0 -32 16 -49 35 -18 19 -34 35 -35 34 -2 0 -13 -5 -25 -11z"/>
<path d="M1848 238 c-22 -8 -28 -16 -29 -41 -1 -18 -4 -43 -8 -57 -10 -35 -2
-69 19 -80 29 -16 50 -1 50 34 0 18 5 37 12 44 9 9 9 12 0 12 -9 0 -10 5 -2
19 25 49 3 85 -42 69z"/>
<path d="M3154 226 c-3 -13 -4 -57 -2 -97 3 -66 5 -75 28 -86 41 -20 49 -3 43
100 -3 51 -11 95 -17 99 -22 15 -46 8 -52 -16z"/>
</g>
</svg>
