<?xml version="1.0" standalone="no"?>
<!DOCTYPE svg PUBLIC "-//W3C//DTD SVG 20010904//EN"
 "http://www.w3.org/TR/2001/REC-SVG-20010904/DTD/svg10.dtd">
<svg version="1.0" xmlns="http://www.w3.org/2000/svg"
 width="507.000000pt" height="467.000000pt" viewBox="0 0 507.000000 467.000000"
 preserveAspectRatio="xMidYMid meet">
<metadata>
Created by potrace 1.16, written by Peter Selinger 2001-2019
</metadata>
<g transform="translate(0.000000,467.000000) scale(0.100000,-0.100000)"
fill="#000000" stroke="none">
<path d="M3611 4555 c-30 -8 -64 -18 -75 -24 -12 -5 -32 -12 -46 -15 -59 -12
-117 -33 -150 -54 -19 -12 -52 -30 -72 -40 -21 -9 -38 -23 -38 -29 0 -7 -4
-13 -8 -13 -7 0 -39 -24 -93 -71 -23 -20 -69 -86 -69 -99 0 -5 -8 -14 -19 -19
-10 -6 -23 -27 -29 -48 -6 -21 -18 -65 -27 -98 -19 -69 -14 -217 10 -285 7
-21 16 -51 19 -67 19 -94 35 -165 49 -213 22 -76 49 -306 42 -355 -4 -22 -19
-58 -33 -80 -14 -22 -28 -49 -29 -59 -9 -53 -36 -52 -93 4 -17 17 -40 30 -50
30 -11 0 -50 15 -87 34 -59 29 -127 50 -207 61 -12 2 -46 11 -76 21 -66 21
-74 23 -122 31 -21 3 -38 9 -38 12 0 7 -134 6 -165 -2 -11 -3 -54 -8 -95 -12
-107 -9 -112 -10 -250 -49 -216 -59 -307 -97 -412 -169 -21 -13 -58 -33 -83
-43 -25 -11 -45 -22 -45 -26 0 -5 -8 -8 -18 -8 -10 0 -22 -4 -27 -9 -6 -5 -49
-30 -97 -55 -106 -55 -131 -69 -138 -77 -3 -3 -39 -22 -80 -43 -41 -21 -77
-41 -80 -44 -7 -9 -118 -62 -130 -62 -5 0 -26 -11 -46 -25 -25 -17 -50 -25
-80 -25 -41 0 -93 14 -104 28 -3 4 -12 12 -21 17 -9 6 -33 23 -52 38 -45 36
-160 65 -182 47 -8 -7 -15 -22 -15 -34 0 -27 41 -116 64 -139 21 -21 126 -187
126 -199 0 -4 -12 -6 -27 -2 -38 8 -213 93 -213 103 0 13 -66 11 -83 -2 -9 -7
-17 -19 -18 -27 -3 -21 22 -70 36 -70 6 0 27 -19 45 -43 19 -23 41 -46 49 -51
8 -5 26 -20 39 -33 12 -13 28 -23 33 -23 6 0 9 -6 7 -12 -8 -23 -122 -22 -174
2 -26 11 -54 20 -64 20 -21 0 -70 -37 -70 -54 0 -6 24 -43 52 -81 84 -112 136
-150 222 -160 31 -4 58 -11 61 -15 2 -4 -7 -23 -20 -41 -82 -111 -118 -178
-150 -282 -15 -47 -16 -62 -6 -80 12 -22 17 -23 83 -18 9 0 19 10 23 21 11 34
149 158 177 160 4 0 -6 -37 -23 -82 -38 -104 -39 -152 -5 -222 23 -47 32 -56
61 -62 36 -6 67 14 79 54 9 27 125 149 159 167 25 13 28 12 49 -14 26 -32 88
-75 73 -52 -6 11 -4 13 9 8 10 -4 24 -7 32 -7 8 0 37 -20 63 -45 26 -25 54
-45 62 -46 8 0 28 -9 44 -20 43 -27 73 -39 98 -39 36 0 85 -36 106 -78 13 -26
35 -47 63 -62 47 -24 88 -59 88 -76 0 -17 29 -38 100 -74 36 -18 81 -41 101
-51 20 -10 45 -20 55 -22 38 -7 79 -20 89 -27 6 -4 21 -10 35 -14 168 -47 265
-69 313 -73 31 -3 57 -9 57 -14 0 -5 3 -8 8 -7 15 4 129 -14 142 -22 20 -13 7
-125 -24 -193 -26 -57 -26 -59 -10 -113 17 -59 65 -117 105 -127 13 -3 49 -14
79 -25 30 -11 99 -23 152 -27 53 -3 114 -11 135 -16 50 -12 278 -32 376 -33
68 -1 80 2 90 19 24 41 26 78 6 117 -11 21 -16 38 -12 39 5 0 31 2 58 3 67 4
95 15 95 36 0 10 2 25 5 32 3 8 -4 23 -15 35 -26 29 -25 33 9 33 32 0 46 13
56 51 5 21 0 30 -29 52 -19 15 -39 27 -45 27 -5 0 -34 13 -63 29 -33 18 -84
33 -135 42 -46 7 -83 15 -83 18 0 4 34 16 76 27 73 21 77 21 94 4 28 -28 101
-67 140 -75 19 -4 42 -11 52 -16 10 -5 26 -13 36 -17 9 -5 40 -14 68 -21 28
-7 67 -18 88 -25 51 -18 81 -10 110 28 19 26 24 42 21 79 -1 25 0 46 4 45 3
-1 25 2 49 6 52 10 76 40 70 91 -4 31 -1 35 20 35 36 0 59 16 71 52 10 28 8
36 -16 71 -15 22 -36 45 -45 51 -18 11 -25 27 -10 24 12 -2 46 15 66 34 11 10
38 27 60 38 23 11 59 41 81 67 22 26 54 61 71 77 27 28 51 60 143 201 15 22
42 83 60 135 18 52 35 102 38 110 18 50 21 216 5 247 -10 19 -31 118 -37 173
-1 14 -5 32 -8 40 -4 8 -16 40 -27 70 -11 30 -31 74 -43 97 -27 52 -102 203
-129 261 -11 23 -24 42 -29 42 -5 0 -9 7 -9 15 0 14 -31 78 -59 125 -5 8 -19
47 -30 85 -39 128 -29 276 26 390 22 44 4 87 -34 82 -22 -3 -33 -15 -54 -55
-22 -44 -52 -154 -62 -227 -2 -18 -10 -20 -78 -21 -41 0 -81 -4 -87 -8 -7 -4
-18 -4 -24 0 -7 5 -53 7 -103 7 -52 -1 -110 4 -138 12 -26 8 -49 14 -52 14
-37 3 -116 38 -164 74 -13 9 -32 15 -42 12 -13 -5 -17 -1 -15 12 2 10 -3 59
-10 108 -8 50 -16 106 -19 125 -5 42 -23 126 -44 215 -5 22 -15 67 -21 100 -7
33 -17 66 -24 74 -6 8 -10 17 -10 20 1 3 -2 15 -6 26 -8 24 -5 149 5 197 20
88 76 168 186 264 50 44 205 113 255 114 11 0 25 5 31 11 6 6 26 12 44 14 19
1 59 7 89 13 30 5 58 8 61 6 3 -2 21 -6 40 -9 19 -3 57 -16 84 -29 28 -13 61
-27 75 -31 14 -4 35 -17 48 -28 12 -11 22 -17 22 -14 0 4 14 -5 30 -20 17 -14
30 -32 30 -40 0 -7 4 -13 9 -13 17 0 68 -104 81 -165 7 -33 15 -64 18 -69 3
-6 7 -19 8 -30 9 -82 39 -165 65 -181 5 -3 13 -23 19 -45 8 -31 16 -40 40 -45
36 -8 41 -29 5 -23 -19 4 -25 1 -25 -13 0 -10 -4 -20 -9 -23 -11 -7 -2 -48 12
-58 12 -7 59 0 68 10 16 18 18 61 3 76 -19 19 -20 19 41 0 46 -15 97 -24 135
-25 28 -1 154 -30 165 -38 9 -8 133 -34 165 -35 16 -1 40 -41 40 -68 0 -21
-88 -65 -150 -76 -48 -8 -251 25 -410 68 -125 33 -141 34 -165 8 -21 -23 -23
-72 -3 -84 10 -6 118 -25 158 -27 14 -1 27 -5 30 -8 3 -4 21 -9 40 -12 19 -3
64 -11 100 -17 36 -6 76 -13 90 -14 44 -5 33 -23 -12 -20 -24 2 -88 6 -143 10
-55 3 -103 11 -106 16 -4 7 -8 6 -10 -1 -4 -12 -107 7 -167 31 -43 17 -66 2
-70 -45 -3 -35 -3 -35 60 -55 108 -36 141 -42 259 -48 62 -3 130 -9 149 -13
19 -4 83 -6 143 -5 107 2 182 18 172 35 -4 5 -1 9 6 9 7 0 9 9 5 28 -4 15 -7
33 -8 40 -1 12 -12 16 -33 13 -5 -1 -1 6 9 14 11 8 26 15 34 15 8 0 25 9 39
20 14 11 31 20 38 20 6 0 18 11 25 25 7 14 17 25 22 25 5 0 8 20 7 45 -2 25
-6 45 -10 45 -4 0 -13 15 -19 34 -16 50 -65 83 -146 97 -37 6 -84 19 -104 27
-33 14 -48 18 -110 25 -14 2 -32 6 -40 9 -15 7 -108 19 -147 20 -17 0 -24 8
-29 33 -5 29 -10 33 -34 33 -31 -1 -60 21 -60 46 0 8 -9 32 -20 53 -11 21 -27
76 -36 123 -35 182 -46 208 -114 279 -33 33 -64 61 -69 61 -5 0 -11 9 -14 19
-3 13 -17 22 -43 27 -22 3 -48 12 -59 17 -104 57 -250 78 -354 52z m1089
-1175 c11 -7 7 -10 -17 -10 -17 0 -35 5 -38 10 -8 13 35 13 55 0z m95 0 c-3
-5 -16 -10 -28 -9 -20 1 -20 2 3 9 14 4 26 8 28 9 2 1 0 -3 -3 -9z m-2443
-291 c40 -6 89 -17 108 -24 33 -12 176 -54 203 -59 45 -9 107 -31 134 -47 17
-11 42 -22 54 -24 27 -5 71 -44 63 -56 -3 -5 -14 -9 -25 -9 -10 0 -19 -4 -19
-10 0 -5 -7 -10 -15 -10 -8 0 -22 -11 -30 -24 -19 -28 -5 -75 22 -78 31 -2 57
2 63 11 3 5 34 25 68 46 69 40 169 132 164 152 -1 6 2 14 8 18 5 3 10 14 10
24 0 10 7 24 15 31 8 7 13 15 11 19 -3 4 -1 13 3 20 6 9 20 5 57 -16 64 -38
194 -83 254 -89 14 -2 113 -4 221 -5 132 -2 196 -6 197 -13 4 -42 35 -132 64
-191 72 -143 196 -382 231 -445 23 -42 40 -90 47 -135 7 -38 22 -108 35 -155
27 -101 27 -172 -3 -285 -28 -111 -55 -168 -136 -287 -40 -59 -192 -206 -236
-227 -63 -32 -93 -50 -99 -58 -10 -13 -122 -65 -147 -68 -13 -1 -52 -21 -87
-44 -35 -22 -70 -41 -78 -41 -8 0 -19 -4 -24 -8 -6 -5 -36 -17 -67 -26 -31
-10 -62 -24 -68 -31 -6 -8 -25 -17 -41 -20 -16 -4 -29 -10 -29 -15 0 -4 -15
-10 -32 -14 -29 -6 -135 -53 -148 -66 -3 -3 -22 -6 -44 -8 -21 -1 -43 -5 -50
-9 -6 -4 -22 -9 -36 -10 -28 -2 -73 -9 -80 -13 -3 -1 -16 -3 -30 -5 -14 -1
-27 -3 -30 -4 -3 -1 -30 -3 -60 -5 -30 -1 -79 -8 -109 -14 -29 -7 -57 -9 -63
-6 -5 3 -32 6 -60 6 -30 -1 -85 11 -138 29 -48 16 -96 29 -107 29 -10 0 -43 6
-73 14 -30 8 -77 17 -105 20 -45 5 -147 29 -233 55 -18 5 -36 10 -40 10 -24
-1 -134 39 -223 80 -37 17 -72 31 -78 31 -6 0 -31 21 -54 46 -23 26 -68 66
-101 90 -32 24 -71 61 -86 82 -31 43 -65 68 -106 78 -41 9 -124 46 -124 55 0
4 -13 10 -29 14 -16 3 -45 21 -66 39 -20 19 -55 39 -76 46 -22 7 -39 17 -39
22 0 4 -5 8 -10 8 -6 0 -23 14 -39 32 -27 31 -29 31 -72 19 -24 -7 -50 -13
-58 -13 -15 -1 -156 -138 -184 -178 -17 -25 -17 -25 -13 30 2 30 6 66 9 80 7
40 38 110 48 110 5 0 9 7 9 15 0 8 3 15 8 15 4 0 12 12 19 26 25 54 -30 81
-94 46 -12 -7 -30 -12 -40 -12 -29 -1 -95 -35 -130 -68 -18 -17 -33 -28 -33
-24 0 9 40 76 50 82 4 3 14 19 23 35 9 17 27 43 41 59 14 16 26 33 26 38 0 5
11 13 24 19 45 21 40 101 -6 97 -13 -1 -45 3 -73 10 -27 6 -67 14 -88 17 -33
5 -107 56 -107 74 0 3 21 7 48 7 26 1 88 5 139 9 92 8 92 8 99 37 5 25 0 36
-27 66 -19 20 -41 42 -49 49 -13 11 -7 12 35 8 165 -15 182 -15 194 -1 22 26
7 55 -65 129 -40 40 -83 96 -98 124 -14 29 -30 54 -36 58 -5 3 -10 11 -10 17
0 7 12 0 28 -13 60 -56 134 -82 220 -80 46 1 128 37 175 77 16 13 33 24 39 24
16 0 209 99 245 127 18 13 99 58 180 100 82 42 164 87 183 99 19 13 40 24 46
24 6 0 18 8 25 17 20 24 152 83 234 104 39 10 95 25 125 34 30 9 82 20 115 25
33 6 74 13 90 15 17 3 59 10 95 14 36 5 68 9 72 10 4 0 40 -4 80 -10z m1452
-2108 c16 -7 27 -13 25 -14 -2 -2 -38 0 -79 3 l-75 6 34 16 c21 9 41 13 50 8
9 -4 29 -13 45 -19z m-177 -110 c13 -6 40 -11 59 -11 24 0 33 -4 28 -11 -5 -8
-37 -10 -106 -6 -105 5 -119 1 -133 -44 -5 -14 0 -26 14 -38 23 -20 29 -37 9
-24 -7 4 -17 8 -23 10 -125 28 -165 43 -165 62 0 20 120 78 180 86 14 2 41 11
60 19 34 14 35 14 44 -9 5 -13 20 -28 33 -34z m-3 -137 c9 -3 16 -15 16 -25 0
-22 1 -22 -36 -10 -16 5 -42 12 -59 16 -27 7 -28 8 -10 15 24 10 68 12 89 4z
m-693 -87 c24 -23 45 -37 54 -33 8 3 37 -2 65 -10 28 -8 56 -14 63 -13 23 3
60 -1 56 -6 -3 -2 -30 -7 -60 -10 -102 -11 -117 -15 -133 -40 -12 -19 -14 -30
-6 -44 5 -11 10 -22 10 -24 0 -4 -66 -17 -102 -20 -9 -1 -15 -4 -13 -8 3 -3
-2 -14 -9 -25 -10 -13 -11 -24 -3 -41 11 -25 10 -25 82 -28 75 -4 168 -23 177
-37 13 -22 9 -26 -24 -22 -133 14 -176 17 -198 15 -14 -1 -57 3 -95 10 -94 15
-108 17 -195 24 -41 4 -83 11 -93 17 -10 5 -41 16 -69 24 -42 13 -52 21 -65
51 -16 39 -11 93 11 128 12 18 24 57 32 103 1 8 4 15 6 17 4 4 201 -15 206
-20 2 -2 24 3 50 10 25 8 48 12 52 10 3 -2 11 -1 17 3 6 4 41 7 78 8 66 1 68
0 106 -39z"/>
<path d="M2142 2420 c-11 -11 -25 -20 -29 -20 -5 0 -26 -16 -48 -35 -22 -19
-44 -35 -49 -35 -5 0 -18 -7 -28 -17 -10 -9 -27 -21 -37 -27 -152 -87 -205
-109 -286 -120 -27 -4 -102 -20 -165 -35 -63 -16 -124 -28 -135 -28 -37 0
-237 -64 -297 -96 -91 -47 -100 -80 -51 -179 36 -74 85 -129 135 -152 84 -37
132 -56 144 -56 8 0 22 -8 32 -17 10 -10 25 -20 33 -22 8 -2 64 -17 124 -33
61 -16 151 -47 200 -67 88 -38 122 -49 178 -58 15 -2 51 -15 81 -28 29 -13 82
-29 117 -35 35 -7 87 -21 114 -33 42 -17 72 -21 190 -21 173 -1 257 14 400 70
33 13 65 24 72 24 6 0 53 31 104 70 51 38 96 71 99 72 3 2 30 41 61 88 57 87
88 158 94 220 22 220 15 247 -97 360 -59 60 -89 82 -120 91 -37 9 -44 9 -55
-7 -30 -41 -9 -87 59 -131 28 -18 54 -33 57 -33 4 0 21 -26 37 -57 25 -51 28
-67 26 -133 -4 -96 -9 -125 -32 -176 -26 -60 -97 -161 -120 -174 -12 -6 -17
-16 -14 -22 4 -7 3 -8 -4 -4 -6 3 -40 -13 -76 -37 -37 -25 -93 -52 -128 -61
-35 -9 -72 -21 -83 -26 -34 -14 -198 -44 -240 -43 -59 0 -129 12 -174 28 -21
7 -41 12 -44 9 -2 -2 -19 2 -38 10 -19 8 -37 14 -42 14 -18 1 -73 15 -82 22
-5 4 -26 10 -45 13 -89 15 -173 39 -250 75 -47 21 -116 45 -155 52 -74 14
-101 24 -202 71 -33 16 -76 32 -95 36 -55 11 -137 81 -175 150 -11 19 -10 25
9 43 13 11 34 23 48 26 14 3 50 15 80 26 30 11 93 28 140 38 47 10 112 26 145
35 33 9 76 18 95 20 112 13 277 78 335 131 12 11 43 28 69 38 26 10 67 33 90
51 24 18 53 38 66 45 59 31 75 65 44 91 -26 21 -58 21 -82 -1z"/>
<path d="M3773 4009 c-17 -5 -56 -34 -87 -65 -48 -49 -56 -62 -56 -94 0 -44
20 -96 49 -127 28 -30 101 -61 153 -65 38 -4 45 -1 61 24 21 35 22 57 1 65
-13 5 -12 9 10 27 43 36 39 86 -11 122 -28 19 -32 25 -16 21 27 -6 70 12 78
32 7 19 -28 54 -57 57 -13 1 -39 4 -58 7 -19 2 -49 0 -67 -4z m77 -98 c0 -5
-10 -11 -22 -13 -11 -2 -22 -10 -24 -18 -1 -8 -3 -19 -5 -25 -6 -23 29 -75 50
-75 6 0 11 -4 11 -9 0 -19 -21 -22 -45 -7 -13 9 -33 16 -43 16 -11 0 -25 13
-35 34 l-16 35 37 35 c34 34 92 51 92 27z"/>
</g>
</svg>
