<?xml version="1.0" standalone="no"?>
<!DOCTYPE svg PUBLIC "-//W3C//DTD SVG 20010904//EN"
 "http://www.w3.org/TR/2001/REC-SVG-20010904/DTD/svg10.dtd">
<svg version="1.0" xmlns="http://www.w3.org/2000/svg"
 width="549.000000pt" height="485.000000pt" viewBox="0 0 549.000000 485.000000"
 preserveAspectRatio="xMidYMid meet">
<metadata>
Created by potrace 1.16, written by Peter Selinger 2001-2019
</metadata>
<g transform="translate(0.000000,485.000000) scale(0.100000,-0.100000)"
fill="#000000" stroke="none">
<path d="M1796 4778 c-9 -12 -16 -31 -16 -41 0 -10 -4 -26 -10 -36 -5 -10 -14
-48 -20 -84 -15 -97 -43 -150 -52 -97 -4 27 -126 164 -159 179 -37 17 -83 -1
-74 -29 4 -11 2 -20 -4 -20 -7 0 -7 -9 0 -27 19 -49 16 -161 -6 -302 -2 -12
-12 -35 -22 -50 -21 -31 -63 -113 -63 -124 0 -15 -54 -127 -61 -127 -4 0 -10
-19 -14 -42 -9 -52 -30 -78 -62 -78 -13 0 -48 -11 -76 -24 -66 -31 -182 -76
-196 -76 -6 0 -11 -4 -11 -8 0 -5 -27 -17 -60 -28 -33 -10 -60 -23 -60 -27 0
-5 -4 -6 -9 -3 -31 19 -45 -83 -15 -113 21 -22 98 -40 199 -47 50 -3 119 -14
154 -25 35 -10 71 -19 80 -19 9 0 25 -7 35 -15 18 -13 18 -16 4 -32 -24 -27
-77 -135 -93 -191 -18 -59 -21 -125 -11 -210 10 -80 30 -105 84 -106 34 0 42
-4 46 -22 10 -39 134 -124 181 -124 25 0 25 0 -15 -65 -22 -36 -40 -68 -40
-72 0 -3 -8 -13 -18 -22 -10 -9 -31 -34 -47 -56 -17 -22 -32 -42 -36 -45 -13
-12 -169 -252 -169 -260 0 -6 -3 -10 -8 -10 -4 0 -16 -17 -27 -37 -11 -21 -30
-54 -42 -73 -13 -19 -23 -45 -23 -57 0 -12 -5 -25 -10 -28 -5 -3 -10 -14 -10
-23 0 -9 -6 -29 -14 -44 -13 -24 -23 -106 -31 -253 -3 -57 20 -242 33 -257 5
-7 22 -42 37 -78 49 -120 58 -135 125 -202 66 -66 147 -119 205 -132 33 -8 65
-33 65 -50 1 -17 44 -101 68 -133 34 -43 72 -103 72 -112 0 -4 11 -17 25 -29
14 -12 25 -26 25 -32 0 -5 6 -10 14 -10 8 0 16 -6 19 -14 3 -8 22 -20 41 -27
41 -15 44 -23 48 -164 l3 -100 -60 -2 c-33 -1 -109 -9 -170 -18 -60 -8 -128
-17 -150 -20 -84 -11 -127 -40 -117 -79 13 -54 42 -58 150 -21 79 27 96 30 88
16 -3 -4 -20 -11 -37 -15 -17 -3 -44 -15 -60 -27 -16 -11 -29 -18 -29 -15 0 3
-11 -4 -25 -16 -31 -27 -32 -61 -1 -81 28 -19 59 -13 104 20 17 13 32 21 32
18 0 -4 7 0 15 9 31 31 205 78 205 56 0 -13 -117 -104 -141 -110 -12 -3 -23
-14 -25 -25 -2 -10 -5 -28 -8 -40 -4 -16 2 -25 23 -38 33 -19 42 -15 131 67
145 133 152 136 301 142 69 2 128 9 135 15 8 6 14 29 14 50 0 43 -19 60 -60
53 -80 -14 -139 -19 -164 -14 -27 5 -31 10 -42 65 -7 33 -13 95 -13 138 -1 75
0 79 32 111 87 90 128 140 133 164 11 53 38 127 51 142 11 12 17 13 34 1 12
-7 44 -15 72 -17 28 -3 54 -7 59 -10 8 -5 69 -130 68 -139 0 -3 9 -15 20 -27
11 -12 20 -28 20 -36 0 -19 79 -92 112 -104 27 -10 38 -30 44 -78 1 -14 5 -36
8 -50 4 -14 11 -52 16 -85 5 -33 11 -70 14 -83 3 -13 0 -23 -7 -24 -7 0 -23
-2 -37 -3 -45 -4 -124 -23 -162 -39 -21 -9 -48 -16 -60 -16 -33 0 -119 -44
-147 -74 -13 -15 -34 -29 -47 -32 -13 -3 -24 -14 -25 -23 0 -9 -3 -28 -5 -44
-4 -22 0 -29 21 -37 37 -14 34 -15 96 43 31 30 66 56 78 60 24 6 29 -8 6 -17
-20 -7 -20 -62 1 -70 33 -13 70 -4 108 24 49 37 60 38 53 4 -3 -20 2 -33 19
-49 21 -20 28 -21 57 -11 18 6 50 30 72 54 21 24 61 55 88 69 27 13 51 33 54
43 4 16 16 19 106 19 56 1 131 5 167 10 36 5 77 7 92 5 32 -3 48 18 44 57 -8
54 -12 57 -89 52 -39 -2 -76 -7 -81 -12 -13 -9 -171 -6 -237 4 -44 7 -47 9
-64 57 -9 27 -19 68 -21 91 -2 23 -10 67 -18 97 -14 53 -14 56 7 73 12 9 37
25 55 34 19 9 37 23 40 32 3 9 10 21 14 26 37 46 55 76 68 114 16 47 9 44 127
53 22 2 36 10 44 26 7 12 22 22 34 22 36 0 256 88 303 120 23 17 45 30 49 30
30 0 293 223 293 248 0 5 9 20 19 34 11 13 23 37 26 51 4 15 11 27 15 27 8 0
15 17 40 110 7 25 18 61 26 80 23 61 35 113 44 190 12 111 31 210 39 210 10 0
32 -71 25 -82 -3 -4 0 -8 6 -8 6 0 9 -4 5 -10 -3 -5 1 -25 10 -45 8 -21 14
-58 13 -83 0 -26 3 -92 7 -147 9 -123 9 -500 0 -515 -4 -6 -7 -46 -6 -88 0
-42 -6 -107 -13 -144 -14 -74 -12 -82 22 -93 42 -12 77 47 130 220 40 130 42
144 47 267 2 56 7 135 11 173 3 39 8 120 11 180 2 61 8 149 12 198 4 48 4 93
0 99 -4 7 -3 20 2 29 5 10 7 47 5 84 -2 42 0 62 6 53 32 -48 76 -149 105 -243
30 -99 44 -150 82 -320 7 -27 14 -59 17 -70 13 -56 25 -149 29 -230 6 -114 21
-196 39 -213 8 -8 23 -11 40 -6 30 7 54 53 62 119 3 22 10 56 15 75 17 65 4
280 -21 335 -7 17 -21 122 -22 165 0 23 -29 194 -34 202 -9 13 -42 152 -49
202 -4 27 -28 89 -56 144 -28 53 -45 98 -40 100 15 5 30 -12 88 -98 101 -149
154 -237 157 -262 1 -3 4 -10 9 -14 4 -4 7 -17 7 -28 0 -12 6 -30 13 -41 7
-11 26 -60 41 -110 15 -49 34 -103 41 -120 14 -31 31 -123 26 -139 -1 -6 5
-28 13 -50 8 -23 14 -67 13 -99 -1 -42 2 -60 13 -67 23 -15 70 -12 86 5 9 8
13 15 9 15 -3 0 -1 9 5 20 12 22 13 72 6 265 -7 188 -15 334 -22 380 -4 22 -3
37 0 34 12 -12 46 -148 55 -226 6 -43 12 -85 14 -93 20 -81 30 -101 65 -128
35 -27 38 -28 54 -11 40 42 51 82 52 184 1 156 -13 384 -28 450 -8 33 -19 86
-26 118 -10 51 -91 258 -120 309 -6 10 -10 20 -10 23 0 12 98 -73 126 -108 16
-21 34 -43 40 -50 5 -6 22 -37 37 -67 15 -30 36 -70 47 -89 21 -37 42 -87 46
-111 11 -65 35 -178 41 -190 3 -8 8 -28 10 -45 6 -42 31 -146 36 -151 2 -3 18
-8 34 -13 28 -8 31 -6 48 31 19 45 26 244 12 353 -4 33 -9 107 -11 165 -3 58
-12 138 -21 179 -19 81 -62 210 -75 226 -19 23 -70 135 -70 154 0 11 -25 57
-55 102 -30 45 -55 86 -55 91 0 4 -4 8 -9 8 -5 0 -40 32 -78 72 -204 214 -221
227 -353 267 -41 13 -142 45 -225 72 -82 26 -177 53 -210 59 -33 6 -78 15 -99
20 -50 10 -304 4 -320 -9 -6 -5 -47 -28 -92 -51 -70 -36 -133 -81 -169 -120
-53 -58 -179 -180 -186 -180 -5 0 -9 -5 -9 -11 0 -6 -9 -23 -20 -39 -11 -15
-21 -36 -23 -46 -2 -11 -8 -28 -14 -39 -6 -11 -16 -38 -23 -60 -7 -22 -21 -58
-30 -80 -31 -70 -67 -188 -85 -275 -9 -47 -25 -100 -36 -118 -10 -18 -21 -52
-24 -75 -6 -48 -21 -97 -41 -135 -8 -15 -14 -32 -14 -39 0 -18 -100 -133 -116
-133 -8 0 -18 -8 -21 -17 -8 -22 -54 -62 -70 -63 -7 0 -13 -5 -13 -11 0 -6 -7
-9 -15 -5 -8 3 -15 1 -15 -5 0 -15 -80 -5 -139 16 -55 20 -90 46 -91 67 0 9
-6 18 -12 20 -17 6 -17 94 1 233 20 162 17 435 -6 550 -4 17 -5 46 -4 66 3 53
-46 184 -96 256 -38 56 -47 93 -23 93 8 0 100 137 100 149 0 4 8 14 18 23 57
54 95 150 108 273 4 39 9 79 11 90 6 36 15 169 14 216 -1 43 29 142 65 211 19
37 21 107 3 119 -19 12 -79 11 -79 -1 0 -5 -9 -10 -20 -10 -11 0 -25 -9 -32
-20 -7 -11 -18 -20 -23 -20 -6 0 -29 -18 -50 -41 -22 -22 -49 -45 -59 -51 -18
-10 -18 -7 -11 53 12 109 15 162 8 156 -3 -4 -12 -2 -19 4 -8 6 -25 8 -39 5
-26 -7 -105 -78 -105 -96 0 -5 -6 -10 -14 -10 -8 0 -17 -11 -20 -25 -8 -31
-24 -32 -30 -2 -39 189 -62 226 -116 192 -16 -11 -70 -86 -70 -98 0 -4 -13
-30 -29 -58 l-28 -50 -17 56 c-10 30 -21 55 -24 55 -4 0 -8 12 -9 27 0 15 -6
29 -12 31 -6 2 -11 13 -11 24 0 11 -7 35 -16 54 -13 27 -22 34 -45 34 -17 0
-34 -8 -43 -22z m73 -278 c13 -35 25 -87 28 -114 9 -75 53 -102 91 -57 14 17
33 58 36 79 1 7 7 17 13 23 6 6 9 18 6 25 -3 8 -1 14 4 14 5 0 17 20 28 45 11
25 23 45 28 45 4 0 7 -2 7 -4 0 -23 23 -163 28 -171 6 -9 8 -23 11 -83 1 -27
39 -47 74 -38 19 4 27 15 33 43 4 21 8 40 9 43 1 3 7 23 13 46 7 22 21 49 32
59 19 18 20 17 21 -6 1 -30 -3 -175 -5 -209 -3 -42 12 -60 47 -60 42 0 57 15
57 57 0 41 19 83 47 106 13 10 23 25 23 33 0 8 7 14 15 14 8 0 23 9 32 20 21
25 38 26 28 3 -4 -10 -8 -22 -9 -28 -2 -5 -5 -17 -9 -25 -21 -58 -28 -116 -23
-188 3 -44 1 -104 -4 -134 -6 -29 -13 -69 -16 -88 -3 -19 -10 -43 -15 -52 -5
-9 -9 -28 -9 -43 0 -14 -6 -28 -14 -31 -8 -3 -18 -19 -21 -34 -4 -16 -20 -47
-36 -69 -16 -23 -29 -46 -29 -52 0 -20 -119 -129 -140 -129 -11 0 -21 -6 -21
-12 -6 -52 -3 -71 13 -88 11 -11 23 -20 27 -20 5 0 19 -16 32 -35 13 -19 29
-35 35 -35 7 0 14 -8 18 -17 3 -10 9 -25 14 -33 21 -34 44 -119 47 -172 2 -31
8 -73 14 -95 11 -42 10 -403 -1 -403 -9 0 -18 74 -16 130 2 41 -6 107 -14 115
-2 2 -12 5 -23 7 -14 2 -25 -8 -41 -38 -12 -23 -25 -52 -29 -65 -4 -13 -16
-42 -25 -64 -10 -22 -22 -53 -26 -70 -4 -16 -8 -32 -9 -35 -1 -3 -5 -26 -9
-52 -5 -27 -12 -48 -17 -48 -7 0 -13 74 -11 130 1 22 14 105 18 111 2 4 6 41
8 83 4 79 -5 101 -40 94 -17 -3 -50 -52 -79 -114 -8 -17 -20 -36 -28 -42 -7
-7 -19 -31 -26 -54 -8 -24 -17 -52 -21 -63 -4 -11 -15 -42 -23 -70 l-16 -50 6
55 c3 30 12 72 19 94 17 46 9 136 -11 136 -8 0 -15 5 -17 11 -4 13 -17 2 -58
-51 -14 -17 -35 -44 -47 -58 -13 -15 -23 -31 -23 -36 0 -5 -6 -17 -14 -25 -7
-9 -28 -43 -45 -75 l-31 -59 0 42 c0 22 3 41 8 41 15 0 44 105 42 155 -1 52
-56 63 -86 18 -10 -16 -22 -33 -28 -40 -6 -6 -49 -56 -96 -112 -47 -55 -88
-100 -92 -100 -7 -1 18 77 43 134 7 17 25 42 41 57 30 29 29 53 -3 61 -18 5
-18 6 4 54 19 42 22 68 25 211 2 95 -1 174 -6 190 -6 15 -22 58 -37 97 -30 82
-69 128 -99 119 -12 -4 -24 -11 -27 -16 -3 -5 -14 -2 -23 7 -14 15 -21 15 -46
5 -17 -7 -30 -19 -30 -26 0 -8 -4 -22 -9 -32 -18 -32 -71 -247 -71 -284 0 -44
-16 -51 -24 -10 -22 112 -15 155 41 244 13 21 23 43 23 49 0 20 51 80 61 73 6
-3 22 4 35 17 19 18 24 32 22 59 -4 42 -12 50 -56 50 -18 0 -43 5 -55 12 -25
13 -23 13 -94 30 -28 7 -54 16 -57 19 -4 3 35 9 86 12 51 2 100 8 110 12 22 9
31 49 16 80 -11 25 -14 26 -57 18 -26 -4 -79 -7 -120 -5 -41 1 -79 -2 -85 -6
-15 -12 -61 -23 -50 -13 23 21 183 66 221 62 11 -1 24 3 28 9 3 5 11 7 17 4 7
-5 9 2 4 19 -3 15 -1 31 7 39 11 12 26 51 43 118 7 29 93 206 128 265 13 22
22 48 21 57 -2 10 0 20 6 23 13 9 11 53 -2 57 -13 4 -3 118 10 118 10 0 50
-58 93 -135 19 -33 41 -61 50 -63 23 -4 68 37 68 62 0 30 54 196 61 188 4 -4
16 -36 28 -72z m2181 -889 c77 -9 273 -54 300 -70 9 -5 54 -18 100 -30 47 -12
108 -33 137 -47 28 -13 58 -24 65 -24 8 0 24 -9 36 -20 12 -11 28 -20 37 -20
8 0 46 -32 83 -72 37 -40 97 -102 134 -138 75 -73 135 -166 169 -261 12 -35
25 -66 29 -69 40 -35 110 -259 124 -398 6 -56 -8 -51 -46 18 -16 30 -45 83
-65 118 -34 63 -94 129 -187 207 -26 22 -52 46 -59 53 -73 79 -221 216 -270
250 -99 68 -159 107 -209 136 l-47 28 -26 -26 c-28 -28 -34 -76 -10 -76 8 0
15 -5 15 -10 0 -6 12 -16 28 -22 15 -7 44 -24 66 -37 44 -29 256 -237 256
-251 0 -6 7 -10 15 -10 8 0 15 -7 15 -16 0 -8 19 -43 43 -77 44 -64 123 -258
158 -392 7 -27 13 -53 11 -57 -1 -4 3 -19 8 -32 5 -14 12 -87 16 -163 3 -76 7
-150 9 -165 3 -33 -13 -38 -19 -5 -3 12 -13 60 -22 107 -9 47 -29 114 -44 150
-34 81 -43 104 -44 110 -4 17 -32 77 -43 90 -35 40 -64 81 -108 155 -80 132
-133 204 -184 248 -7 7 -37 37 -67 67 -29 30 -58 60 -64 65 -6 6 -34 31 -61
57 -30 29 -55 45 -64 42 -8 -4 -15 -10 -15 -15 0 -5 -7 -9 -15 -9 -18 0 -35
-38 -27 -60 9 -26 43 -58 68 -64 13 -4 24 -11 24 -16 0 -14 47 -66 151 -170
49 -47 101 -110 119 -142 17 -32 36 -58 41 -58 5 0 9 -8 9 -17 0 -9 8 -26 18
-37 16 -18 34 -67 47 -125 2 -9 13 -58 24 -109 11 -51 23 -97 26 -101 2 -5 7
-36 10 -70 3 -34 7 -89 10 -123 3 -38 2 -59 -4 -53 -5 6 -27 60 -49 120 -47
130 -83 206 -120 257 -15 20 -42 58 -61 85 -19 26 -38 50 -43 51 -4 2 -8 11
-8 21 0 33 -287 333 -328 343 -27 8 -53 -16 -57 -53 -4 -28 2 -39 48 -84 56
-55 74 -87 102 -180 22 -71 53 -144 71 -165 7 -8 26 -72 43 -142 17 -70 36
-139 41 -153 11 -30 18 -73 25 -165 3 -36 8 -75 11 -87 2 -13 0 -23 -4 -23 -5
0 -14 24 -20 53 -23 104 -52 202 -77 251 -14 27 -25 60 -25 73 0 12 -14 49
-32 80 -17 32 -38 70 -45 85 -8 15 -18 30 -24 33 -5 4 -9 15 -9 27 0 11 -7 32
-15 46 -8 15 -25 52 -39 82 -46 103 -146 184 -162 133 -3 -10 -9 -25 -14 -34
-9 -17 11 -56 36 -71 6 -4 14 -39 18 -77 9 -94 15 -120 31 -156 21 -45 34
-112 29 -153 -3 -21 -7 -53 -9 -72 -2 -19 -7 -80 -10 -135 -3 -55 -8 -129 -10
-165 -2 -36 -4 -91 -5 -122 0 -32 -4 -58 -8 -58 -5 0 -8 44 -8 98 1 153 -11
299 -34 397 -32 134 -39 170 -34 174 2 2 0 9 -6 15 -11 15 -60 165 -60 188 0
21 -47 67 -78 74 -31 9 -68 -18 -67 -48 1 -13 11 -45 24 -70 16 -33 20 -56 16
-80 -7 -39 -9 -50 -25 -188 -6 -57 -13 -107 -15 -110 -2 -3 -6 -30 -10 -60 -9
-76 -18 -108 -63 -236 -47 -131 -65 -167 -104 -214 -68 -80 -106 -120 -115
-120 -5 0 -20 -11 -33 -25 -13 -14 -29 -25 -36 -25 -6 0 -17 -7 -24 -15 -7 -8
-21 -15 -31 -15 -11 0 -19 -6 -19 -12 0 -18 -76 -64 -135 -81 -27 -8 -68 -24
-89 -37 -24 -13 -57 -22 -83 -22 -23 0 -45 -4 -49 -9 -3 -5 -16 -9 -30 -9 -15
0 -24 -6 -24 -15 0 -14 -10 -18 -27 -12 -5 1 -7 5 -6 8 1 4 -14 24 -34 45 -33
35 -36 37 -49 20 -7 -10 -22 -49 -34 -88 -45 -148 -88 -214 -173 -267 l-37
-23 -35 31 c-20 17 -39 31 -44 31 -4 0 -16 19 -27 43 -10 23 -21 44 -25 47
-15 12 -40 72 -38 93 5 52 -1 76 -21 82 -18 6 -20 15 -20 101 0 86 2 95 18 90
9 -3 40 -7 67 -11 197 -22 341 -22 420 0 33 9 71 19 85 22 14 3 30 10 37 15 6
5 35 10 62 11 28 1 51 5 51 8 0 3 12 11 27 18 15 7 44 26 65 42 21 17 38 27
38 23 0 -11 89 79 95 96 3 9 19 24 35 34 31 18 130 115 130 128 0 4 6 13 13
20 10 11 31 64 43 113 1 6 9 33 18 60 9 28 16 65 16 83 0 37 -25 82 -47 82 -8
0 -12 4 -9 9 3 5 -1 12 -10 15 -32 12 -80 5 -124 -18 -38 -20 -86 -37 -112
-40 -3 -1 -10 -4 -14 -8 -14 -15 -180 -9 -218 7 -51 21 -103 17 -112 -10 -12
-36 -13 -69 -3 -81 5 -7 31 -17 57 -23 59 -13 262 -22 262 -11 0 5 21 13 48
19 63 13 142 49 149 67 7 20 33 -1 29 -24 -10 -56 -22 -110 -26 -114 -1 -2 -3
-11 -5 -20 -5 -28 -65 -108 -80 -108 -8 0 -15 -3 -15 -7 -1 -28 -219 -223
-248 -223 -7 0 -12 -4 -12 -10 0 -5 -6 -10 -14 -10 -12 0 -151 -42 -186 -56
-8 -3 -46 -8 -85 -11 -38 -2 -81 -5 -95 -6 -64 -5 -259 15 -323 33 -73 20
-139 49 -145 63 -2 4 -8 7 -14 7 -15 0 -78 68 -88 95 -5 12 -11 52 -14 88 -8
90 18 162 77 210 49 39 86 61 94 53 3 -3 20 6 38 20 26 20 31 29 27 52 -9 47
-43 54 -109 24 -89 -40 -203 -154 -203 -203 0 -8 -5 -20 -11 -26 -34 -34 -22
-241 18 -302 20 -31 131 -141 142 -141 4 0 21 -7 37 -15 l29 -14 -1 -95 c0
-53 -3 -98 -6 -102 -9 -8 -95 25 -109 42 -16 20 -46 17 -66 -5 -15 -18 -19
-18 -43 -6 -29 15 -91 25 -185 30 -33 1 -71 5 -85 9 -14 3 -40 9 -57 12 -18 3
-33 11 -33 16 0 5 -3 7 -7 5 -5 -3 -30 -1 -56 3 -37 5 -50 4 -54 -6 -7 -18
-37 -18 -52 0 -7 8 -28 17 -48 21 -78 14 -253 170 -267 235 -3 17 -20 58 -37
93 -30 60 -31 68 -36 223 -4 108 -2 167 5 180 10 16 11 11 12 -27 0 -25 7 -69
15 -97 13 -42 20 -52 38 -52 12 0 27 4 34 8 10 6 44 73 48 92 0 3 8 16 17 30
9 14 28 60 43 103 20 61 73 164 102 197 15 17 22 -45 18 -166 -3 -105 0 -153
11 -189 16 -54 26 -65 66 -65 39 0 63 41 83 140 40 202 47 230 56 230 5 0 9
-12 10 -27 1 -32 4 -54 13 -98 14 -70 19 -91 24 -100 4 -5 8 -21 10 -35 5 -47
58 -74 93 -47 28 21 38 52 49 148 11 97 28 169 40 169 3 0 7 -21 9 -47 1 -26
4 -49 5 -52 2 -3 7 -33 11 -66 7 -66 33 -105 70 -105 46 0 71 63 90 223 3 26
12 65 21 85 l17 37 12 -60 c18 -87 30 -112 66 -131 29 -15 35 -15 65 0 27 12
36 25 49 68 16 52 19 68 29 157 3 24 12 51 21 61 8 9 15 20 15 25 0 11 31 45
40 45 4 0 10 -27 14 -60 6 -49 14 -69 52 -120 29 -38 56 -62 72 -67 15 -3 47
-15 72 -25 58 -25 135 -29 180 -9 43 19 157 104 187 140 25 29 23 27 73 91 19
25 42 51 52 58 17 13 68 155 74 207 1 17 14 66 28 110 14 44 26 89 26 99 0 25
50 189 59 196 4 3 22 48 41 100 43 122 77 179 159 263 88 90 233 197 266 197
8 0 15 4 15 8 0 5 15 16 33 25 36 18 126 20 247 8z m-2548 -299 c17 -45 39
-134 44 -182 2 -25 6 -58 9 -74 3 -16 0 -46 -7 -67 -15 -52 -58 -62 -112 -27
-46 30 -60 72 -52 155 6 53 47 209 63 236 8 13 44 -14 55 -41z m648 -614 c-10
-61 2 -215 18 -243 4 -5 8 -21 10 -35 5 -34 20 -50 48 -50 29 0 41 22 49 91 4
30 15 79 25 109 10 30 21 74 25 98 9 53 25 55 26 2 1 -22 3 -44 4 -50 1 -5 3
-17 4 -25 0 -8 15 -30 31 -48 34 -39 38 -65 13 -73 -61 -20 -84 -49 -97 -126
-6 -34 -19 -86 -37 -148 -6 -19 -13 -47 -16 -62 -3 -19 -12 -28 -24 -28 -25 0
-26 4 -45 116 -9 55 -19 106 -22 114 -3 8 -6 20 -6 25 -1 15 -51 18 -63 3 -16
-18 -62 -178 -80 -273 -17 -91 -33 -131 -44 -114 -4 7 -10 76 -14 155 -6 119
-10 146 -25 159 -15 13 -23 14 -39 5 -12 -6 -21 -15 -21 -21 0 -6 -8 -23 -19
-37 -15 -22 -48 -133 -57 -192 -10 -63 -29 -140 -35 -140 -15 0 -41 105 -45
183 -4 85 -14 168 -21 180 -24 40 -106 -64 -132 -169 -18 -70 -21 -82 -32
-149 -17 -108 -20 -118 -32 -106 -7 7 -9 54 -7 133 9 313 6 333 -42 311 -76
-35 -175 -166 -191 -253 -4 -19 -25 -64 -47 -100 l-40 -65 5 85 c3 47 7 103
10 125 4 39 41 142 57 159 4 6 8 20 8 32 0 12 7 27 15 34 8 7 15 18 15 25 0 6
14 31 30 53 17 23 30 46 30 51 0 5 7 15 16 22 14 11 33 37 106 143 17 25 16
-5 -2 -63 -26 -81 -27 -156 -2 -166 41 -19 77 0 86 46 6 30 44 86 114 167 20
24 43 54 50 68 14 26 38 34 28 8 -11 -28 -25 -146 -30 -256 -5 -100 -4 -108
15 -118 48 -26 83 15 92 110 3 36 13 83 22 105 24 58 106 195 117 195 5 0 6
-6 2 -12 -5 -7 -11 -92 -14 -190 l-5 -177 25 -11 c46 -21 65 22 104 237 1 7 5
16 9 19 4 4 7 16 7 27 0 27 61 158 70 152 4 -3 4 -24 0 -47z m-1043 -730 c-3
-7 -5 -2 -5 12 0 14 2 19 5 13 2 -7 2 -19 0 -25z m3330 -343 c6 -25 7 -45 3
-45 -4 0 -11 12 -14 28 -4 15 -9 35 -12 45 -3 9 -1 17 4 17 5 0 13 -20 19 -45z
m27 -107 c7 -29 8 -63 0 -55 -3 3 -9 22 -14 41 -9 39 4 51 14 14z m-2809 -454
c22 -8 48 -17 58 -19 10 -2 26 -6 35 -9 16 -4 155 -18 210 -20 22 -1 32 -29
14 -40 -5 -3 -10 -26 -10 -51 -2 -40 -9 -54 -50 -101 -31 -36 -55 -54 -70 -54
-25 0 -104 41 -130 66 -21 21 -72 97 -72 108 0 4 -13 25 -29 45 -16 21 -33 49
-36 64 -6 24 -4 27 16 27 13 -1 42 -8 64 -16z m840 -889 c-16 -14 -37 -25 -45
-25 -8 0 1 11 20 25 45 31 64 32 25 0z"/>
<path d="M1640 3921 c-7 -23 -10 -54 -6 -74 6 -32 11 -36 47 -42 57 -10 83 14
74 70 -3 22 -13 43 -20 48 -8 4 -15 15 -15 22 0 10 -11 15 -33 15 -30 0 -35
-4 -47 -39z"/>
</g>
</svg>
