<?xml version="1.0" standalone="no"?>
<!DOCTYPE svg PUBLIC "-//W3C//DTD SVG 20010904//EN"
 "http://www.w3.org/TR/2001/REC-SVG-20010904/DTD/svg10.dtd">
<svg version="1.0" xmlns="http://www.w3.org/2000/svg"
 width="563.000000pt" height="509.000000pt" viewBox="0 0 563.000000 509.000000"
 preserveAspectRatio="xMidYMid meet">
<metadata>
Created by potrace 1.16, written by Peter Selinger 2001-2019
</metadata>
<g transform="translate(0.000000,509.000000) scale(0.100000,-0.100000)"
fill="#000000" stroke="none">
<path d="M1799 5078 c-1 -4 -1 -15 -1 -23 0 -8 0 -23 1 -33 0 -10 34 -51 74
-92 41 -41 91 -100 111 -130 21 -30 44 -59 50 -65 12 -10 130 -197 181 -287 6
-10 35 -55 66 -100 62 -90 129 -213 129 -235 0 -7 4 -13 8 -13 13 0 43 -69 58
-130 7 -30 19 -77 27 -105 l14 -50 -34 -9 c-39 -10 -48 -2 -87 79 -13 28 -35
62 -49 77 -13 14 -35 41 -48 60 -41 59 -81 102 -136 145 -29 22 -70 63 -92 90
-21 26 -47 54 -57 61 -11 7 -34 22 -53 35 -19 12 -46 30 -60 39 -14 10 -37 23
-51 30 -14 7 -72 44 -130 83 -58 38 -128 81 -157 95 -29 14 -52 30 -53 35 0 6
-25 16 -57 24 -31 7 -63 17 -72 22 -68 38 -245 83 -411 105 -19 2 -43 7 -52
10 -23 7 -58 -30 -58 -60 0 -22 40 -66 60 -66 15 0 158 -100 181 -127 14 -15
45 -46 69 -67 78 -70 230 -263 230 -294 0 -4 16 -32 36 -62 20 -30 48 -80 63
-110 15 -30 33 -64 39 -75 60 -103 169 -417 192 -555 9 -50 6 -57 -12 -43 -17
13 -228 84 -253 85 -5 0 -21 5 -35 10 -25 10 -167 37 -224 43 -16 2 -77 -8
-135 -21 -58 -14 -128 -27 -156 -29 -27 -2 -77 -9 -110 -15 -33 -6 -69 -12
-80 -14 -12 -1 -32 -10 -45 -19 -14 -8 -43 -20 -65 -26 -64 -18 -80 -49 -77
-151 3 -108 47 -279 81 -313 6 -6 11 -16 11 -22 0 -33 172 -173 250 -205 19
-7 49 -25 67 -38 18 -13 38 -25 45 -26 24 -4 118 -48 118 -55 0 -29 -36 -133
-64 -184 -73 -135 -89 -163 -107 -183 -11 -11 -19 -26 -19 -32 0 -7 -3 -12 -7
-12 -5 0 -24 -25 -43 -56 -19 -30 -54 -80 -77 -110 -24 -29 -43 -56 -43 -60 0
-3 -21 -27 -46 -53 -25 -25 -60 -63 -77 -85 -18 -21 -41 -48 -52 -60 -11 -12
-32 -37 -46 -56 -33 -43 -147 -160 -157 -160 -4 0 -38 -29 -77 -65 -38 -36
-81 -70 -95 -76 -29 -13 -32 -49 -9 -87 27 -43 30 -41 214 138 124 120 189
190 285 305 41 50 88 105 105 122 46 50 100 125 147 204 15 25 74 105 108 147
6 6 9 12 6 12 -2 0 11 26 30 57 19 31 34 62 34 68 0 6 16 29 36 50 19 22 37
51 39 66 4 32 26 69 41 69 6 0 31 -7 55 -16 24 -8 76 -19 114 -24 39 -6 88
-13 110 -18 22 -4 67 -4 100 1 51 7 114 14 137 16 3 1 29 19 57 41 28 22 57
40 66 40 8 0 15 5 15 10 0 6 13 10 28 10 44 0 121 30 137 53 23 32 19 84 -6
97 -11 7 -23 9 -26 6 -4 -3 -12 -1 -20 5 -9 9 -13 8 -13 0 0 -6 -6 -11 -14
-11 -7 0 -19 -7 -26 -15 -12 -15 -55 -15 -78 -1 -9 6 -27 -10 -91 -78 -38 -40
-73 -52 -176 -60 -159 -12 -395 53 -638 177 -122 62 -246 163 -267 219 -6 18
-23 60 -37 92 -32 74 -35 175 -6 205 22 23 126 57 217 71 38 6 72 13 76 15 3
2 24 6 46 9 21 2 70 12 109 21 95 22 275 8 320 -24 10 -7 40 -17 149 -46 33
-9 83 -32 113 -51 29 -19 58 -34 64 -34 6 0 42 -32 80 -71 67 -69 70 -71 108
-64 26 4 53 20 81 46 28 26 50 39 69 39 16 0 43 3 60 6 29 6 31 4 37 -24 4
-17 15 -39 25 -48 16 -14 23 -15 49 -4 29 12 31 16 27 54 -3 23 -11 55 -18 73
-18 44 -72 58 -186 49 -70 -5 -89 -10 -104 -28 -11 -11 -19 -25 -19 -30 0 -21
-48 -5 -82 28 -33 30 -36 37 -26 54 10 16 9 25 -5 49 -9 16 -24 60 -33 97 -14
64 -27 107 -59 209 -19 57 -81 207 -122 293 -33 69 -34 75 -19 98 35 52 197
171 288 211 24 11 30 8 69 -29 l43 -41 -40 -21 c-22 -11 -69 -41 -104 -65 -56
-38 -82 -61 -155 -141 -19 -22 -39 -69 -32 -76 8 -9 37 15 37 30 0 19 119 119
189 158 36 20 85 42 107 48 42 12 43 12 102 -36 34 -27 61 -52 61 -55 1 -3
-23 -16 -51 -28 -108 -46 -194 -92 -228 -122 -19 -17 -39 -34 -45 -37 -16 -10
-88 -102 -84 -106 2 -3 27 17 56 44 106 99 193 142 341 170 61 11 64 9 122
-82 34 -55 33 -56 -57 -78 -29 -6 -53 -16 -53 -21 0 -5 -6 -9 -13 -9 -27 0
-217 -160 -217 -182 0 -11 27 -10 32 0 7 18 141 114 195 139 43 21 73 28 117
28 l59 0 24 -44 c12 -24 23 -50 23 -56 0 -7 -20 -20 -44 -29 -59 -22 -175 -98
-176 -113 0 -19 6 -17 105 31 93 46 133 55 173 42 37 -12 80 11 88 47 5 26 2
34 -22 54 -15 12 -26 24 -24 26 14 10 63 27 79 27 28 0 127 -35 158 -56 15
-10 34 -17 41 -16 6 2 12 -2 12 -8 0 -7 12 -4 30 7 22 12 30 25 30 45 0 28
-38 78 -60 78 -14 0 -83 31 -90 40 -3 4 -12 9 -20 12 -22 7 56 44 174 83 169
54 192 59 225 46 25 -11 31 -10 53 11 28 25 26 43 -4 59 -15 8 -32 6 -71 -10
-29 -11 -86 -30 -127 -42 -84 -24 -211 -78 -222 -94 -4 -5 -8 -6 -8 -1 0 5 -7
3 -15 -4 -23 -19 -61 -3 -86 36 l-22 36 27 24 c29 28 122 74 148 74 9 0 19 4
22 9 3 5 16 11 28 14 13 3 61 15 108 27 47 12 111 22 143 22 50 0 61 -3 75
-23 9 -13 17 -28 18 -34 1 -5 9 -28 19 -50 9 -22 19 -49 21 -60 2 -11 8 -42
14 -70 12 -60 8 -75 -22 -76 -27 0 -144 -47 -179 -70 -38 -26 -17 -31 43 -10
31 10 82 21 114 23 53 3 59 1 62 -17 2 -12 20 -43 40 -70 30 -39 46 -52 77
-59 62 -13 308 -97 323 -108 7 -6 33 -21 57 -33 71 -36 177 -130 240 -211 32
-42 127 -173 139 -192 6 -10 28 -67 73 -187 30 -82 55 -297 40 -353 -3 -12 -2
-22 3 -22 5 0 11 -13 15 -30 5 -23 12 -30 30 -30 12 0 39 -7 60 -16 21 -8 47
-17 59 -18 36 -4 91 -33 144 -75 28 -23 55 -41 59 -41 15 0 183 -127 176 -133
-3 -4 1 -7 9 -7 16 0 84 -60 109 -97 9 -12 34 -44 57 -70 77 -90 152 -224 152
-274 0 -8 4 -19 9 -24 5 -6 16 -55 25 -110 10 -55 23 -118 31 -140 38 -113 34
-303 -9 -398 -8 -18 -18 -43 -21 -57 -4 -14 -14 -32 -22 -42 -13 -15 -17 -15
-46 0 -18 8 -40 19 -49 23 -84 40 -158 82 -158 90 0 5 -5 9 -11 9 -6 0 -25 11
-43 25 -17 14 -35 29 -41 33 -5 5 -31 19 -56 31 -26 13 -58 33 -71 45 -13 11
-38 29 -56 39 -18 10 -56 40 -84 65 -28 26 -55 46 -60 44 -5 -1 -7 2 -4 7 4 5
-2 14 -11 20 -10 6 -14 11 -10 11 4 0 -1 10 -12 22 -11 11 -18 25 -15 30 3 4
1 8 -4 8 -5 0 -15 21 -22 48 -21 72 -63 97 -106 61 -20 -16 -18 -32 11 -95 14
-30 25 -57 25 -61 0 -9 100 -141 110 -145 5 -2 28 -20 52 -40 81 -70 143 -115
223 -163 44 -27 82 -51 85 -55 3 -3 40 -28 83 -54 42 -26 77 -51 77 -55 0 -3
20 -14 45 -24 73 -31 56 -55 -35 -51 -25 1 -76 3 -113 5 -54 1 -70 6 -78 20
-13 25 -23 24 -97 -8 -39 -17 -64 -35 -68 -48 -4 -11 -17 -42 -29 -70 -53
-115 -64 -143 -70 -181 -4 -21 -13 -48 -20 -59 -7 -11 -16 -40 -20 -63 -4 -24
-9 -42 -10 -40 -2 2 -11 37 -19 77 -23 111 -3 330 36 384 39 55 -9 113 -71 87
-17 -7 -31 -17 -31 -22 0 -10 -51 -81 -61 -86 -4 -2 -33 -54 -64 -117 -31 -63
-58 -115 -60 -115 -3 0 0 63 10 221 6 104 6 107 -19 134 l-25 27 -28 -20 c-52
-37 -98 -104 -114 -166 -4 -17 -17 -65 -29 -106 -11 -41 -23 -93 -27 -115 -11
-75 -22 -84 -24 -20 -1 33 0 65 1 70 2 11 11 160 12 208 2 66 -56 104 -107 71
-69 -45 -304 -45 -430 1 -38 14 -78 25 -87 25 -15 0 -172 75 -308 147 -25 13
-70 36 -100 51 -30 15 -57 30 -60 33 -3 4 -49 28 -102 53 -68 33 -104 57 -120
79 -28 40 -37 47 -66 47 -28 0 -98 64 -182 165 -49 60 -57 76 -53 100 7 32
-16 56 -46 48 -10 -3 -22 0 -25 6 -4 5 -12 8 -19 6 -7 -2 -24 -6 -39 -9 -17
-4 -29 -16 -36 -35 -10 -28 -7 -33 31 -71 84 -81 117 -115 117 -122 0 -4 19
-24 42 -45 66 -60 108 -106 108 -118 0 -7 -12 -23 -27 -37 -16 -14 -38 -38
-51 -54 -12 -16 -31 -40 -42 -54 -167 -208 -232 -300 -235 -331 0 -3 -10 -28
-22 -55 -12 -27 -38 -87 -58 -133 -20 -47 -44 -96 -55 -111 -19 -27 -21 -83
-4 -100 6 -6 27 -13 47 -17 34 -5 37 -4 52 33 18 40 33 86 40 116 24 106 127
319 182 375 25 26 73 90 73 99 0 3 19 26 43 49 23 24 55 59 71 78 17 20 35 33
43 30 8 -3 23 3 34 13 20 18 21 18 62 -3 23 -12 60 -29 82 -38 22 -9 49 -24
60 -34 11 -10 43 -26 71 -35 28 -9 59 -25 70 -34 10 -10 53 -34 94 -53 41 -20
95 -45 120 -57 25 -12 61 -30 80 -40 53 -29 81 -40 123 -47 21 -3 52 -15 70
-25 46 -27 245 -47 324 -32 62 13 113 8 125 -11 6 -9 14 -301 11 -402 0 -11 5
-53 12 -94 7 -40 10 -81 8 -91 -3 -10 4 -24 16 -32 12 -8 18 -18 14 -21 -13
-14 43 -7 64 8 21 15 37 72 21 77 -18 6 49 342 100 505 15 50 37 65 28 20 -3
-12 -8 -58 -11 -102 -3 -44 -10 -106 -16 -137 -7 -32 -9 -87 -5 -125 16 -170
18 -173 77 -173 30 0 39 4 39 17 0 9 7 24 15 33 11 12 12 24 6 48 -10 33 -1
107 21 182 15 48 89 200 98 200 3 0 6 -48 7 -107 1 -60 7 -128 13 -153 6 -25
12 -58 15 -75 2 -16 10 -68 17 -114 10 -69 15 -85 34 -93 16 -7 30 -6 50 3 31
15 39 38 53 164 5 39 16 90 25 114 9 24 16 51 17 60 0 9 23 63 52 121 43 87
57 106 82 115 17 5 32 13 35 16 3 4 78 7 166 7 91 0 170 5 180 10 11 6 33 16
50 23 45 18 90 92 148 239 43 111 49 135 52 215 3 80 -26 300 -42 327 -7 11
-13 45 -19 99 -2 26 -9 57 -14 70 -5 13 -9 27 -10 31 -1 5 -10 24 -21 43 -11
20 -20 41 -20 48 0 14 -42 120 -51 127 -3 3 -12 17 -20 32 -8 15 -40 55 -71
90 -31 35 -75 86 -99 113 -23 28 -67 68 -98 90 -48 33 -135 99 -178 135 -7 6
-25 16 -40 22 -15 7 -36 23 -46 35 -10 13 -24 23 -32 23 -7 0 -18 7 -25 15 -7
8 -28 17 -49 21 -20 4 -53 13 -73 21 -33 13 -38 20 -47 66 -6 29 -10 66 -9 82
1 36 -27 164 -49 220 -9 22 -23 60 -32 85 -9 25 -19 50 -22 55 -4 6 -12 27
-18 48 -7 20 -16 37 -21 37 -5 0 -12 9 -15 21 -4 11 -19 35 -34 52 -16 18 -48
61 -72 97 -46 68 -140 170 -157 170 -5 0 -15 7 -22 15 -7 8 -20 15 -29 15 -9
0 -21 10 -26 22 -12 28 -219 134 -278 143 -23 3 -60 14 -82 24 -22 11 -55 26
-74 34 -37 16 -61 65 -61 124 0 17 -5 35 -10 38 -6 4 -10 12 -8 18 5 30 -32
153 -75 247 -11 24 -64 99 -78 110 -6 5 -89 140 -89 145 0 2 -53 57 -117 123
-120 122 -233 222 -253 222 -6 0 -13 7 -16 15 -4 8 -11 15 -16 15 -6 0 -36 15
-67 33 -31 19 -87 47 -126 62 -38 16 -75 32 -80 36 -10 7 -118 49 -290 112
-38 14 -96 33 -127 42 -31 8 -64 22 -72 31 -16 15 -95 17 -97 2z m282 -176
l35 -18 -23 -24 c-12 -13 -24 -22 -26 -19 -16 20 -47 68 -47 73 0 11 26 6 61
-12z m196 -113 c-103 -89 -107 -90 -147 -37 -21 29 -22 34 -9 57 24 42 71 52
135 28 l54 -20 -33 -28z m183 -40 l70 -32 -47 -23 c-27 -13 -51 -24 -55 -24
-4 0 -37 -20 -72 -44 -94 -64 -96 -65 -135 -4 l-34 52 43 35 c42 36 109 68
142 70 10 1 49 -13 88 -30z m-1240 -111 c32 -9 54 -17 117 -44 21 -9 20 -10
-16 -52 -26 -30 -42 -41 -54 -36 -9 3 -17 11 -17 18 0 6 -13 20 -28 30 -16 10
-39 35 -53 55 -13 20 -28 40 -34 44 -11 8 28 2 85 -15z m1410 6 c17 -3 30 -10
30 -15 0 -5 6 -9 14 -9 8 0 16 -5 18 -12 3 -8 -18 -19 -51 -31 -31 -10 -65
-22 -76 -26 -37 -17 -60 -24 -67 -23 -5 1 -8 -2 -8 -8 0 -5 -5 -10 -11 -10
-19 0 -131 -82 -126 -91 3 -7 -20 23 -53 68 -18 23 -29 47 -26 52 8 13 139 79
191 96 75 25 81 25 165 9z m-1135 -115 c41 -19 59 -39 36 -39 -5 0 -37 -27
-72 -59 l-63 -59 -37 41 c-21 23 -38 46 -39 51 0 5 18 26 39 48 46 44 71 47
136 17z m1306 -18 c31 -30 32 -51 1 -51 -9 0 -29 -6 -43 -14 -14 -7 -43 -16
-65 -20 -52 -10 -223 -110 -210 -123 3 -3 -5 -14 -17 -24 -18 -15 -19 -18 -6
-19 9 0 22 7 29 16 18 21 141 92 189 109 22 7 79 16 128 19 87 6 88 5 121 -24
36 -34 41 -50 13 -50 -47 0 -240 -90 -321 -149 -19 -14 -37 -26 -39 -27 -1 -2
0 -8 4 -14 4 -7 17 -1 37 15 67 56 226 109 312 103 21 -1 42 4 53 15 18 15 20
14 46 -29 15 -25 27 -49 27 -54 0 -8 -63 -31 -197 -70 -86 -25 -206 -79 -252
-114 -19 -14 -38 -26 -42 -26 -3 0 -9 19 -13 41 -4 23 -27 83 -53 133 -25 50
-53 105 -61 121 -8 17 -22 39 -32 50 -9 11 -21 31 -27 45 -9 22 -7 30 18 58
16 18 29 30 29 27 0 -3 30 11 68 31 50 26 85 37 137 42 138 14 132 15 166 -17z
m-1160 -68 c16 -10 29 -20 29 -23 0 -3 -15 -15 -33 -27 -33 -23 -128 -115
-150 -146 -11 -16 -15 -13 -43 36 l-32 55 51 38 c49 38 124 83 140 84 5 0 22
-8 38 -17z m156 -109 l57 -37 -31 -26 c-17 -14 -64 -53 -105 -86 -41 -33 -87
-76 -104 -97 l-29 -36 -17 21 c-10 12 -18 27 -18 33 0 6 -9 23 -20 37 -33 42
-26 74 28 124 39 37 147 101 174 103 4 0 33 -16 65 -36z"/>
<path d="M1045 3309 c-27 -4 -69 -12 -93 -18 -23 -7 -47 -9 -52 -6 -5 3 -11 1
-14 -4 -3 -5 -32 -12 -63 -16 -90 -10 -100 -15 -114 -47 -11 -27 -9 -36 14
-81 14 -29 31 -72 37 -96 21 -83 88 -186 127 -196 17 -4 29 -2 31 4 2 6 10 11
17 11 8 0 17 15 21 36 6 31 3 39 -22 62 -35 32 -80 121 -89 175 -6 37 -6 37
28 37 18 0 37 4 43 8 24 23 150 35 309 31 56 -1 266 -58 352 -95 17 -8 35 -14
41 -14 5 0 29 -15 53 -33 69 -53 83 -58 118 -46 28 10 31 15 31 54 0 38 -2 43
-20 40 -11 -2 -32 6 -47 18 -35 28 -125 71 -180 88 -24 7 -43 15 -43 19 0 7
-13 11 -92 26 -18 4 -38 10 -43 15 -15 11 -200 37 -255 36 -25 -1 -67 -5 -95
-8z"/>
<path d="M2835 2848 c-27 -11 -71 -28 -97 -37 -60 -21 -73 -41 -53 -81 19 -36
57 -40 119 -11 87 39 104 43 188 38 98 -6 188 -25 188 -39 0 -5 6 -8 13 -5 34
12 199 -99 229 -155 13 -22 29 -52 37 -67 35 -64 84 -241 66 -241 -8 0 -34 63
-29 71 3 5 2 9 -3 9 -4 0 -19 24 -33 53 -33 69 -165 199 -234 231 -92 43 -165
59 -263 57 -51 0 -94 3 -97 8 -3 4 -17 6 -31 3 -25 -4 -53 -44 -49 -69 1 -7 2
-19 3 -26 1 -17 11 -18 145 -17 85 1 107 -2 104 -12 -3 -7 -17 -19 -31 -26
-45 -22 -76 -111 -78 -219 -1 -40 -3 -73 -5 -73 -13 0 -74 72 -68 81 3 6 -3
13 -15 16 -12 3 -21 8 -21 12 0 10 -54 5 -77 -8 -13 -7 -19 -19 -18 -34 4 -31
23 -67 35 -67 5 0 26 -16 47 -36 63 -62 163 -129 196 -132 4 -1 22 -12 38 -26
17 -15 39 -26 49 -26 10 0 21 -4 24 -8 7 -12 92 -14 113 -3 10 5 38 15 63 21
25 7 54 16 65 20 11 5 49 18 85 30 75 25 99 34 159 64 l43 21 -6 70 c-10 109
-15 131 -51 223 -41 106 -120 240 -149 253 -11 5 -50 27 -85 49 -34 22 -67 40
-72 40 -5 0 -9 4 -9 8 0 10 -118 43 -170 48 -153 15 -216 13 -265 -8z m382
-389 c7 -6 16 -8 21 -5 22 14 63 -76 52 -114 -7 -23 -8 -21 -15 17 -9 53 -28
69 -87 75 -35 4 -55 1 -77 -13 -30 -18 -30 -18 -22 4 4 12 18 27 30 33 28 14
82 16 98 3z m-153 -146 c-2 -69 10 -129 30 -148 23 -22 75 -37 107 -30 22 5
29 4 25 -4 -12 -19 -100 -13 -126 9 -13 11 -27 20 -32 20 -16 0 -45 85 -43
130 3 84 4 90 23 90 16 0 18 -9 16 -67z m223 -25 c-3 -8 -6 -5 -6 6 -1 11 2
17 5 13 3 -3 4 -12 1 -19z m130 -60 c13 -49 10 -58 -19 -58 -14 0 -18 5 -14
16 3 9 6 31 6 50 0 47 14 43 27 -8z m-130 0 c-3 -8 -6 -5 -6 6 -1 11 2 17 5
13 3 -3 4 -12 1 -19z"/>
<path d="M4926 1396 c-61 -57 -80 -131 -55 -221 13 -47 60 -95 93 -95 35 0 74
36 86 78 13 49 13 205 -1 236 -11 23 -35 36 -71 36 -9 0 -33 -15 -52 -34z"/>
</g>
</svg>
