<?xml version="1.0" standalone="no"?>
<!DOCTYPE svg PUBLIC "-//W3C//DTD SVG 20010904//EN"
 "http://www.w3.org/TR/2001/REC-SVG-20010904/DTD/svg10.dtd">
<svg version="1.0" xmlns="http://www.w3.org/2000/svg"
 width="523.000000pt" height="441.000000pt" viewBox="0 0 523.000000 441.000000"
 preserveAspectRatio="xMidYMid meet">
<metadata>
Created by potrace 1.16, written by Peter Selinger 2001-2019
</metadata>
<g transform="translate(0.000000,441.000000) scale(0.100000,-0.100000)"
fill="#000000" stroke="none">
<path d="M3265 4273 c-49 -4 -150 -30 -188 -50 -47 -24 -130 -118 -143 -163
-18 -64 -23 -68 -92 -72 -84 -5 -260 -61 -324 -103 -63 -42 -74 -57 -146 -211
-68 -143 -88 -233 -79 -350 7 -102 70 -253 132 -318 36 -39 150 -116 171 -116
5 -1 27 -9 49 -20 22 -11 45 -19 51 -20 17 0 6 -204 -12 -254 -16 -41 -29 -60
-97 -139 -31 -37 -63 -59 -135 -93 -52 -24 -111 -49 -131 -54 -30 -8 -229 -62
-311 -86 -14 -4 -29 -10 -35 -14 -5 -4 -39 -17 -74 -29 -35 -12 -69 -28 -77
-36 -8 -7 -40 -28 -71 -46 -59 -34 -195 -140 -268 -209 -98 -93 -204 -233
-245 -325 -42 -95 -48 -110 -68 -170 -29 -88 -31 -101 -38 -242 -3 -70 -7
-133 -9 -139 -8 -27 -70 -44 -184 -50 -113 -7 -118 -6 -169 20 -96 49 -155
119 -186 223 -19 62 4 270 34 308 5 6 14 33 21 60 6 28 20 68 30 90 71 159 89
220 105 355 15 120 17 184 9 260 -6 60 -46 265 -53 270 -4 3 -15 22 -25 44
-15 33 -126 184 -164 224 -7 7 -13 17 -13 21 0 31 -133 131 -175 131 -21 0
-25 -5 -25 -29 0 -24 9 -35 47 -59 58 -36 78 -56 146 -146 135 -179 161 -231
172 -344 3 -26 10 -71 16 -101 22 -106 -6 -352 -51 -448 -11 -24 -20 -47 -20
-52 0 -5 -11 -22 -24 -38 -13 -15 -36 -59 -50 -98 -15 -38 -31 -79 -35 -90
-32 -84 -40 -129 -41 -240 -1 -78 4 -138 13 -172 11 -38 12 -53 3 -57 -6 -2
-4 -5 5 -5 10 -1 19 -13 22 -31 14 -66 106 -155 172 -165 11 -1 60 -12 110
-25 129 -31 188 -34 265 -12 36 11 73 23 82 27 11 4 18 3 18 -4 0 -7 9 -33 21
-58 30 -65 29 -104 -4 -145 -115 -141 -147 -207 -147 -299 0 -43 4 -52 43 -92
33 -33 57 -47 103 -59 100 -27 149 -31 455 -33 163 -1 300 -4 305 -7 9 -6 28
-8 238 -28 61 -6 144 -18 185 -26 166 -32 312 -45 358 -30 14 4 20 17 21 44 2
20 7 52 13 70 11 34 4 122 -10 122 -4 0 -17 17 -28 38 -50 87 -165 172 -268
196 -27 7 -22 10 58 36 l88 28 88 -18 c48 -10 96 -23 107 -28 10 -6 39 -20 64
-30 53 -23 68 -35 163 -125 113 -106 210 -140 256 -90 12 12 26 25 33 30 25
15 58 91 58 129 -1 53 -30 113 -73 149 -70 59 -149 114 -187 131 -8 3 -44 19
-79 35 -44 20 -79 29 -115 29 -29 0 -55 3 -59 6 -3 3 7 34 23 68 51 109 72
160 97 231 13 39 31 84 39 102 7 17 14 37 14 43 0 7 9 28 21 46 11 19 18 38
14 44 -3 5 -2 10 4 10 5 0 12 14 16 30 4 17 11 30 16 30 5 0 14 11 21 24 11
26 27 31 143 41 33 3 76 9 95 13 120 27 368 -81 444 -192 13 -18 17 -19 53 -7
34 11 44 22 65 65 22 48 23 57 13 104 -7 29 -10 52 -7 52 2 0 -1 7 -8 15 -7 8
-10 15 -6 15 13 0 -27 63 -67 107 -23 25 -67 61 -97 81 -47 30 -70 37 -154 48
-55 7 -104 10 -110 6 -31 -19 -258 4 -293 30 -9 7 -8 72 1 84 1 1 30 -5 66
-12 96 -21 281 -25 363 -8 87 18 149 18 211 -1 65 -20 112 -57 119 -94 8 -40
44 -114 67 -138 11 -13 44 -25 85 -33 l67 -13 31 32 c32 31 32 32 32 134 0 92
-3 108 -28 157 -62 123 -167 194 -337 229 -153 31 -236 43 -323 47 -105 4
-157 13 -157 26 0 21 76 155 111 195 45 52 149 134 160 127 5 -3 15 -2 22 3 6
4 17 8 22 9 41 6 132 28 144 34 9 4 59 28 111 53 73 35 110 60 156 106 34 34
67 74 75 89 8 15 20 33 27 40 7 8 10 18 6 23 -8 14 6 49 19 49 7 0 20 9 30 20
9 11 14 20 11 20 -3 0 3 12 13 28 11 15 36 70 56 123 26 65 50 109 78 140 22
24 47 57 56 73 20 38 20 129 0 160 -19 29 -75 45 -88 25 -12 -21 -56 -149 -64
-189 -10 -52 -30 -77 -71 -90 -79 -26 -172 9 -265 101 -109 107 -226 209 -241
209 -5 0 -8 46 -8 103 0 72 -6 127 -20 181 -19 72 -53 154 -69 166 -4 3 -29
32 -55 65 -84 104 -196 148 -351 138z m189 -116 c61 -28 138 -103 168 -165 10
-19 21 -39 26 -46 22 -26 40 -121 39 -201 -1 -47 -4 -85 -7 -85 -4 0 -31 7
-60 16 -61 18 -110 14 -207 -15 l-61 -19 -21 24 c-12 13 -21 27 -21 30 0 15
-75 119 -106 147 -41 36 -111 77 -178 102 -53 20 -58 40 -25 95 25 42 69 90
83 90 5 0 17 7 26 15 24 22 144 44 221 41 45 -2 83 -11 123 -29z m-508 -251
c78 -27 178 -82 214 -116 38 -36 130 -182 130 -206 0 -20 51 -43 83 -37 15 3
27 9 27 14 0 5 25 16 56 25 86 25 187 3 299 -65 44 -27 76 -54 177 -152 87
-84 129 -114 199 -137 55 -20 153 -20 165 -1 3 5 9 9 13 9 9 0 -10 -64 -22
-76 -4 -4 -7 -14 -7 -21 0 -17 -43 -76 -85 -118 -41 -40 -151 -93 -217 -105
-83 -15 -188 -20 -214 -10 -47 18 -82 -18 -61 -61 12 -24 15 -24 122 -21 98 2
176 14 255 37 43 13 -51 -69 -104 -91 -25 -10 -46 -22 -46 -26 0 -5 -8 -8 -18
-8 -10 0 -22 -4 -27 -8 -19 -16 -91 -35 -140 -38 -27 -1 -55 -3 -62 -3 -16 -1
-161 -121 -210 -173 -23 -25 -54 -65 -69 -89 -15 -24 -30 -46 -34 -49 -3 -3
-13 -21 -22 -40 -10 -19 -32 -51 -51 -70 -18 -19 -56 -80 -82 -135 -27 -55
-53 -103 -59 -107 -6 -4 -7 -8 -3 -8 4 0 2 -10 -4 -22 -7 -13 -13 -36 -15 -51
-3 -40 -8 -42 -43 -16 -42 31 -195 89 -264 100 -33 5 -63 12 -68 15 -5 3 -18
2 -29 -1 -15 -5 -20 -15 -20 -40 0 -32 1 -33 53 -40 75 -10 74 -10 163 -45 45
-17 113 -52 150 -78 124 -85 162 -94 387 -93 164 0 169 0 230 -28 69 -32 157
-110 157 -140 0 -10 -6 -24 -14 -30 -12 -10 -15 -8 -18 11 -2 16 -10 24 -28
26 -34 3 -52 -10 -53 -41 l-2 -25 -47 24 c-56 29 -201 64 -262 64 -23 0 -87
-6 -142 -14 -142 -21 -307 -26 -368 -12 -94 23 -202 89 -208 128 -6 43 -68 30
-68 -14 0 -33 49 -86 116 -123 83 -47 151 -66 230 -67 42 0 64 -4 64 -12 0
-21 -58 -150 -69 -154 -6 -2 -11 -12 -11 -21 0 -10 -13 -51 -30 -91 -16 -40
-30 -79 -30 -86 0 -8 -14 -42 -31 -76 -17 -35 -37 -83 -46 -107 -8 -24 -21
-51 -29 -58 -8 -8 -14 -20 -14 -28 0 -18 -111 -114 -169 -146 -26 -15 -62 -30
-80 -34 -17 -4 -44 -13 -59 -21 -15 -7 -55 -16 -87 -19 -79 -7 -93 -12 -100
-35 -6 -18 -14 -19 -113 -14 -59 3 -113 7 -120 10 -8 2 -24 1 -38 -2 -30 -8
-32 -36 -4 -64 18 -18 33 -20 133 -20 252 0 398 -41 479 -135 24 -28 22 -33
-14 -37 -29 -3 -33 -7 -36 -33 -2 -21 6 -39 25 -60 16 -17 37 -41 47 -53 l19
-22 -35 0 c-30 0 -37 5 -48 31 -17 40 -86 109 -109 109 -53 0 -50 -66 5 -100
19 -12 34 -24 32 -25 -2 -2 -48 3 -103 11 -169 24 -358 47 -401 49 -23 1 -46
5 -50 8 -10 5 -115 8 -466 11 -162 1 -231 5 -240 14 -7 7 -22 12 -35 12 -35 0
-68 19 -86 50 -35 58 -16 125 60 209 32 36 57 68 56 73 -2 4 1 8 6 8 5 0 16
21 25 48 17 50 10 97 -26 182 -8 19 -15 50 -16 69 0 19 -7 38 -16 43 -30 17
-38 188 -12 293 17 70 21 82 72 210 60 148 177 299 314 406 41 33 84 67 95 77
89 79 258 163 400 198 33 9 83 21 112 29 28 7 56 16 61 19 6 3 33 11 61 16 77
14 237 104 295 164 46 49 119 147 127 173 2 8 23 -5 51 -32 27 -25 51 -45 56
-45 4 0 16 13 25 30 l18 30 -34 32 c-51 50 -84 100 -97 148 -11 42 -10 45 12
63 12 11 22 26 20 33 -2 8 2 14 8 14 6 0 10 10 8 22 -3 23 -21 35 -98 63 -73
27 -182 86 -228 123 -126 103 -173 368 -94 528 11 22 37 74 58 117 44 88 87
126 188 167 121 49 230 62 302 36z m584 -1736 c177 -14 378 -48 435 -74 114
-53 121 -58 156 -109 20 -28 43 -70 52 -93 l15 -40 -29 4 c-17 3 -29 0 -29 -7
0 -8 -5 -8 -19 0 -37 24 -73 -13 -53 -54 17 -37 22 -58 12 -52 -6 3 -10 13
-10 21 0 8 -4 14 -9 14 -5 0 -11 12 -14 28 -21 102 -26 109 -114 158 -74 42
-156 52 -267 35 -122 -18 -183 -21 -263 -11 -111 14 -133 20 -133 35 0 7 -4
15 -10 17 -5 2 7 36 28 76 l37 74 50 -7 c28 -4 102 -10 165 -15z m622 -422 c7
-14 5 -18 -10 -18 -13 0 -18 6 -16 23 4 39 5 42 11 27 3 -8 10 -23 15 -32z
m-276 -284 c10 -15 10 -22 -1 -38 -19 -25 -35 -12 -35 30 0 39 14 42 36 8z
m-826 -727 c41 -20 109 -64 150 -97 41 -33 78 -60 82 -60 8 0 28 -58 28 -84 0
-18 -4 -16 -21 12 -22 34 -51 41 -75 18 -21 -22 -17 -46 14 -73 23 -20 25 -25
12 -33 -24 -15 -60 -12 -60 5 0 9 -9 34 -20 56 -12 22 -18 44 -14 50 9 15 -34
48 -56 42 -22 -6 -36 -45 -24 -64 6 -10 -33 20 -134 102 -14 12 -83 40 -164
68 -44 15 -66 41 -35 41 7 0 25 12 40 28 25 26 31 27 114 27 81 0 94 -3 163
-38z m-361 -422 c11 -19 18 -35 14 -35 -8 0 -53 53 -53 63 0 18 20 4 39 -28z"/>
<path d="M3552 3414 c-12 -8 -26 -13 -31 -10 -15 10 -71 -119 -71 -163 0 -53
35 -94 94 -111 37 -10 50 -10 75 1 17 8 31 16 31 20 0 3 9 15 20 26 43 47 44
137 1 206 -31 50 -75 62 -119 31z m62 -70 c9 -8 16 -23 16 -31 0 -9 -3 -13 -6
-10 -14 14 -44 -15 -55 -53 -14 -45 -23 -50 -40 -19 -15 28 -4 76 23 105 27
28 41 30 62 8z"/>
</g>
</svg>
