<?xml version="1.0" standalone="no"?>
<!DOCTYPE svg PUBLIC "-//W3C//DTD SVG 20010904//EN"
 "http://www.w3.org/TR/2001/REC-SVG-20010904/DTD/svg10.dtd">
<svg version="1.0" xmlns="http://www.w3.org/2000/svg"
 width="437.000000pt" height="409.000000pt" viewBox="0 0 437.000000 409.000000"
 preserveAspectRatio="xMidYMid meet">
<metadata>
Created by potrace 1.16, written by Peter Selinger 2001-2019
</metadata>
<g transform="translate(0.000000,409.000000) scale(0.100000,-0.100000)"
fill="#000000" stroke="none">
<path d="M3214 3918 c-47 -38 -59 -52 -74 -93 -9 -21 -20 -40 -25 -41 -6 -2
-25 17 -43 41 -46 63 -76 81 -106 65 -34 -18 -77 -60 -71 -70 3 -4 -5 -29 -16
-55 -37 -83 -32 -351 7 -381 12 -10 2 -22 -53 -70 -141 -123 -203 -197 -236
-281 -26 -67 -57 -161 -57 -175 -1 -35 -16 -40 -56 -17 -135 77 -217 100 -355
99 -114 -1 -173 -5 -187 -14 -6 -3 -45 -9 -89 -12 -43 -3 -85 -8 -93 -11 -17
-7 -15 -6 -95 -23 -33 -7 -97 -25 -142 -41 -45 -16 -88 -29 -96 -29 -21 0
-112 -46 -127 -65 -7 -8 -17 -15 -22 -15 -11 0 -14 -3 -128 -104 -52 -47 -98
-86 -102 -86 -4 0 -7 26 -7 58 2 90 -24 167 -71 215 -22 23 -40 45 -40 49 0 7
-33 24 -105 53 -37 15 -69 20 -164 29 -71 7 -121 -27 -121 -83 0 -16 -9 -18
-97 -13 -93 4 -101 3 -152 -24 -30 -16 -64 -41 -75 -57 -20 -27 -19 -53 5
-136 7 -23 39 -52 70 -63 l29 -10 -43 -45 c-23 -25 -52 -49 -64 -54 -15 -6
-23 -17 -23 -33 0 -14 -4 -27 -9 -31 -28 -16 66 -145 106 -145 17 0 16 -2 -3
-18 -60 -51 -124 -177 -131 -262 -6 -58 -4 -61 35 -114 37 -49 47 -56 95 -66
66 -13 94 -9 154 24 25 14 47 26 50 26 2 0 -3 -13 -11 -28 -39 -76 -53 -129
-46 -178 9 -64 16 -79 44 -93 57 -31 155 -15 220 34 18 14 36 25 40 25 9 0 72
47 98 72 19 19 37 24 39 11 0 -5 2 -15 5 -23 2 -8 13 -64 25 -125 12 -60 24
-117 28 -125 27 -56 62 -108 96 -145 43 -45 46 -49 91 -111 27 -38 90 -97 125
-119 9 -5 35 -25 59 -42 53 -40 201 -87 327 -104 89 -12 93 -14 107 -44 22
-46 37 -121 41 -203 2 -40 6 -81 10 -90 3 -11 -4 -29 -17 -44 -19 -21 -38 -28
-108 -38 -47 -6 -118 -21 -159 -33 -78 -23 -99 -45 -86 -94 9 -38 52 -48 98
-24 22 12 69 28 105 36 124 29 172 29 172 -1 0 -8 4 -14 9 -14 8 0 25 -39 63
-142 5 -15 18 -34 28 -43 17 -15 21 -15 49 0 26 13 31 21 31 54 0 20 -11 58
-23 84 -13 25 -18 43 -12 39 12 -7 98 -108 125 -148 14 -19 18 -20 48 -7 26
10 32 19 32 42 0 24 4 28 24 28 58 0 78 70 33 115 -16 15 -30 28 -32 28 -1 0
-22 18 -45 40 -48 45 -95 71 -115 64 -7 -3 -16 -1 -20 5 -3 6 -26 11 -49 11
l-43 0 -7 78 c-4 42 -8 95 -10 117 -2 22 -11 67 -19 100 -18 65 -14 73 33 76
32 3 64 6 120 13 48 5 229 41 261 51 13 5 19 2 19 -10 0 -9 9 -34 20 -56 10
-23 22 -62 26 -87 4 -26 13 -61 20 -78 13 -31 13 -31 -24 -42 -56 -17 -120
-33 -129 -31 -4 1 -10 1 -13 -1 -3 -1 -16 -4 -30 -6 -43 -8 -53 -52 -21 -92
21 -25 55 -24 133 4 48 17 61 18 53 4 -3 -5 1 -10 9 -10 8 0 19 -6 23 -13 4
-7 25 -21 47 -31 48 -23 99 -74 123 -125 20 -43 59 -60 93 -39 24 15 43 55 30
63 -15 9 -12 35 3 35 7 0 20 -12 29 -28 30 -50 54 -65 92 -58 48 9 54 52 15
106 -15 21 -32 41 -38 45 -6 3 -11 10 -11 15 0 10 53 -17 100 -50 55 -38 81
-34 100 14 13 34 -6 86 -30 86 -9 0 -20 4 -26 9 -43 44 -258 115 -369 123
l-39 3 -18 65 c-10 36 -25 90 -34 120 -25 82 -24 122 4 136 13 6 31 20 41 30
9 11 38 35 63 54 25 19 56 51 69 70 13 19 26 37 30 40 3 3 19 29 35 57 16 29
33 53 37 53 4 0 22 -7 39 -16 47 -24 87 -11 147 47 37 36 60 70 79 117 35 87
39 92 63 87 25 -5 32 0 119 86 57 57 69 75 84 128 15 52 22 63 49 75 35 14 97
78 97 100 0 7 9 34 20 60 12 25 23 67 25 94 2 26 4 51 4 55 1 5 9 6 20 2 32
-10 69 12 86 51 12 29 18 35 27 26 19 -19 87 -14 118 8 15 11 32 32 37 47 30
83 35 113 34 179 l-2 73 78 -3 c88 -3 215 -30 247 -51 11 -8 28 -15 38 -15 10
0 18 -4 18 -10 0 -15 49 -12 66 4 8 8 14 22 14 30 0 22 -33 96 -43 96 -4 0 -6
4 -3 8 11 18 -117 200 -141 201 -6 1 -18 7 -25 14 -39 35 -170 107 -197 107
-26 0 -47 53 -57 145 -7 61 -23 102 -60 151 -38 49 -40 54 -21 54 17 0 52 62
66 116 6 23 22 58 36 77 35 53 52 145 37 203 -19 71 -40 93 -85 92 -21 -1 -49
-10 -62 -20 -30 -24 -35 -23 -35 6 0 14 -7 31 -15 40 -8 8 -15 19 -15 24 0 14
-45 52 -63 52 -27 0 -70 -22 -104 -53 -35 -33 -53 -30 -45 8 9 47 -30 103 -68
97 -3 0 -9 6 -13 14 -12 21 -50 17 -83 -8z m60 -110 c9 -21 11 -40 5 -55 -5
-14 -5 -23 1 -23 5 0 7 -21 4 -47 -10 -91 -8 -115 11 -129 10 -8 27 -14 37
-14 18 0 68 68 68 93 0 8 9 26 20 40 11 14 20 29 21 34 0 4 14 19 31 32 39 31
51 16 42 -54 -3 -27 -6 -57 -6 -65 0 -8 -5 -25 -11 -38 -7 -15 -8 -32 -1 -50
8 -22 16 -28 47 -30 35 -3 39 -1 52 33 16 36 93 120 103 110 3 -3 4 -26 4 -51
-2 -50 -50 -152 -90 -191 -12 -12 -22 -26 -21 -30 1 -4 -2 -18 -6 -30 -7 -22
-8 -22 -64 16 -69 47 -121 72 -152 73 -13 1 -28 5 -34 9 -12 8 -276 7 -290 -2
-5 -3 -23 -9 -39 -13 -49 -12 -64 16 -66 120 -3 145 -1 167 20 202 18 29 22
31 35 18 8 -8 17 -32 20 -53 3 -21 9 -45 12 -53 3 -8 7 -28 8 -43 5 -52 31
-68 98 -58 4 0 7 11 7 24 0 12 9 41 20 62 11 22 23 57 27 78 3 20 10 40 14 43
5 3 9 13 9 23 0 15 32 48 48 50 2 1 9 -13 16 -31z m54 -477 c32 -5 69 -20 95
-38 23 -17 44 -31 47 -31 6 1 61 -45 105 -87 63 -59 73 -90 79 -245 4 -89 35
-133 75 -108 16 9 31 6 83 -16 34 -16 72 -36 83 -45 11 -10 37 -28 57 -42 40
-25 62 -57 30 -41 -95 46 -118 58 -122 63 -3 3 -27 9 -53 13 -27 4 -66 14 -88
21 -37 13 -41 13 -59 -5 -46 -46 -18 -74 110 -111 19 -6 42 -18 50 -26 13 -14
12 -15 -10 -9 -78 20 -181 12 -165 -14 3 -4 0 -10 -6 -12 -7 -2 -7 -11 1 -30
9 -19 9 -31 1 -47 -7 -12 -9 -26 -5 -32 19 -31 4 -159 -18 -159 -12 0 -25 38
-32 100 -12 95 -24 120 -55 120 -39 0 -62 -21 -61 -55 3 -116 1 -165 -8 -181
-13 -23 -15 -18 -31 86 -15 98 -32 124 -74 114 -18 -3 -34 -8 -36 -10 -2 -2
-7 -36 -10 -75 -5 -51 -3 -81 8 -107 23 -60 18 -188 -13 -294 -10 -32 -22 -61
-29 -65 -6 -3 -30 -6 -52 -4 -53 2 -67 -14 -62 -70 8 -77 -60 -193 -127 -219
-19 -7 -27 -3 -47 21 -23 28 -59 40 -59 19 0 -5 -7 -10 -15 -10 -18 0 -20 -33
-4 -63 17 -31 -25 -147 -74 -203 -43 -49 -57 -49 -57 -1 0 45 -10 55 -53 53
-31 -1 -39 -6 -51 -31 -8 -16 -33 -54 -55 -84 -22 -30 -43 -63 -47 -73 -12
-39 -195 -207 -226 -208 -10 0 -18 -4 -18 -8 0 -8 -124 -43 -170 -48 -14 -2
-43 -8 -65 -13 -102 -27 -224 -40 -329 -36 -112 5 -249 26 -301 45 -56 20
-137 64 -148 80 -7 9 -30 29 -52 45 -44 33 -75 64 -75 76 0 4 -6 14 -13 21 -7
7 -43 51 -79 96 -61 76 -69 91 -83 160 -9 43 -21 95 -26 117 -12 46 -13 54
-24 113 -8 47 -47 84 -81 77 -10 -2 -24 -4 -31 -4 -6 -1 -38 -24 -70 -52 -82
-72 -157 -120 -205 -130 -47 -11 -47 -11 -54 26 -6 34 7 67 60 160 85 145 85
145 65 189 -14 29 -56 40 -85 21 -11 -7 -34 -27 -50 -45 -37 -39 -102 -84
-146 -100 -29 -11 -40 -10 -71 5 -46 21 -78 70 -67 99 15 38 23 61 26 74 6 30
89 113 132 132 49 22 80 20 139 -7 44 -20 66 -14 77 24 20 72 -67 128 -199
128 -126 0 -158 38 -85 102 59 51 88 61 160 57 76 -5 117 -19 125 -43 3 -9 23
-36 44 -60 44 -48 77 -53 97 -12 11 21 8 30 -19 75 -17 28 -37 57 -44 64 -7 7
-17 20 -22 30 -5 9 -20 17 -33 17 -13 1 -28 4 -34 7 -5 3 -35 9 -66 12 -34 5
-71 17 -92 31 -20 13 -51 27 -70 30 -45 9 -70 37 -62 68 7 30 23 37 107 44 62
5 71 3 129 -28 35 -19 76 -45 91 -59 73 -64 89 -73 115 -61 35 16 45 50 26 84
-9 15 -19 27 -23 27 -14 0 -119 104 -119 118 0 12 12 14 68 9 89 -8 138 -29
193 -87 42 -43 48 -54 55 -111 9 -74 9 -83 -1 -164 -6 -52 -4 -64 13 -84 19
-24 20 -24 55 -8 19 9 39 17 45 17 9 0 53 40 83 76 16 20 86 83 159 144 48 40
102 70 112 63 5 -2 8 0 8 5 0 8 103 43 249 86 29 9 70 16 91 16 20 0 62 5 91
11 79 17 103 19 225 25 92 5 120 2 170 -14 32 -11 85 -28 117 -37 33 -10 61
-24 64 -32 3 -7 9 -10 15 -7 5 3 20 -6 33 -20 23 -25 24 -31 22 -164 -1 -75
-6 -144 -10 -153 -6 -12 0 -23 23 -39 34 -25 73 -21 84 7 4 9 7 98 7 197 0 99
3 185 7 191 12 17 30 76 41 136 15 85 84 198 165 269 16 14 38 35 49 48 11 12
25 22 31 22 6 0 25 16 41 35 17 19 35 35 40 35 6 0 23 7 39 15 24 13 31 13 38
3 6 -10 8 -10 8 1 0 8 3 12 6 9 3 -3 17 -2 32 2 30 10 146 5 230 -9z m-692
-2865 c10 -8 16 -18 11 -22 -4 -4 -7 -2 -7 4 0 7 -6 12 -14 12 -8 0 -18 5 -21
10 -9 15 8 12 31 -4z"/>
<path d="M3214 3020 c-5 -4 -37 -23 -72 -41 -69 -37 -90 -55 -95 -85 -1 -10
-6 -24 -9 -29 -8 -13 27 -95 41 -95 5 0 12 -8 15 -17 7 -22 81 -62 125 -69 32
-5 92 22 119 54 22 29 14 66 -26 110 -31 34 -42 40 -62 35 -36 -8 -70 -42 -63
-62 5 -13 3 -13 -15 3 -42 37 -30 60 51 91 39 15 74 29 76 31 2 2 -3 17 -10
33 -14 31 -59 56 -75 41z"/>
<path d="M1758 2565 c-58 -19 -140 -76 -134 -91 3 -9 -2 -14 -12 -14 -10 0
-29 -14 -41 -31 -20 -27 -23 -40 -19 -98 3 -36 7 -73 9 -81 2 -8 -9 -21 -27
-30 -45 -23 -59 -39 -94 -109 -37 -71 -37 -114 -3 -152 l23 -26 -21 -19 c-47
-42 -83 -157 -60 -193 6 -8 0 -28 -15 -55 -13 -22 -24 -54 -24 -71 0 -35 34
-115 50 -115 5 0 10 -6 10 -13 0 -7 12 -20 28 -29 15 -10 39 -28 54 -41 17
-15 47 -27 74 -31 48 -6 160 -42 181 -58 6 -5 42 -10 80 -12 52 -2 86 3 143
22 41 13 77 29 78 33 2 5 12 9 22 9 36 0 198 159 225 222 10 23 26 54 36 68
14 22 44 107 84 240 31 103 34 372 5 519 -16 82 -42 151 -57 151 -7 0 -13 4
-13 9 0 17 -59 -19 -65 -39 -4 -11 -2 -35 4 -52 6 -18 13 -46 17 -63 4 -16 8
-32 9 -35 22 -85 18 -457 -6 -487 -6 -6 -19 -42 -29 -80 -11 -37 -27 -86 -37
-108 -21 -49 -101 -165 -114 -165 -5 0 -9 -6 -9 -12 0 -11 -61 -58 -75 -58 -3
0 -14 -9 -25 -20 -11 -11 -27 -20 -35 -20 -9 0 -33 -9 -54 -20 -34 -17 -46
-18 -102 -9 -35 6 -66 13 -69 17 -3 4 -9 7 -15 7 -37 1 -115 17 -115 24 0 10
-38 24 -57 22 -18 -2 -70 38 -100 78 -26 33 -26 34 -9 66 17 31 20 32 100 38
134 11 288 66 302 109 16 51 -48 92 -107 69 -15 -5 -52 -10 -83 -11 -85 -2
-96 -4 -96 -13 0 -4 -4 -5 -10 -2 -5 3 -23 -1 -40 -10 -42 -22 -52 -16 -34 20
23 48 91 90 147 91 26 1 48 2 50 4 7 6 69 14 112 15 33 0 57 6 71 18 19 16 20
23 12 57 -8 30 -16 39 -37 43 -38 8 -135 -1 -206 -18 -58 -14 -111 -12 -128 5
-9 8 17 56 43 78 49 42 123 83 140 77 12 -4 20 -2 20 4 0 6 7 11 16 11 8 0 37
7 63 15 31 11 55 13 71 7 38 -14 80 12 80 49 0 38 -23 62 -60 61 -15 0 -70 -8
-121 -18 -52 -9 -96 -17 -99 -17 -3 0 -8 17 -11 37 -5 33 -2 40 37 76 24 22
50 40 58 40 8 0 16 4 18 10 5 14 55 14 121 0 58 -13 59 -13 83 13 29 31 30 47
6 77 -15 19 -29 23 -97 25 -47 2 -95 -2 -117 -10z"/>
</g>
</svg>
