<?xml version="1.0" standalone="no"?>
<!DOCTYPE svg PUBLIC "-//W3C//DTD SVG 20010904//EN"
 "http://www.w3.org/TR/2001/REC-SVG-20010904/DTD/svg10.dtd">
<svg version="1.0" xmlns="http://www.w3.org/2000/svg"
 width="461.000000pt" height="469.000000pt" viewBox="0 0 461.000000 469.000000"
 preserveAspectRatio="xMidYMid meet">
<metadata>
Created by potrace 1.16, written by Peter Selinger 2001-2019
</metadata>
<g transform="translate(0.000000,469.000000) scale(0.100000,-0.100000)"
fill="#000000" stroke="none">
<path d="M1243 4390 c-39 -10 -86 -25 -104 -34 -18 -9 -36 -16 -41 -16 -5 0
-46 -36 -90 -79 -71 -71 -79 -83 -74 -108 5 -24 1 -32 -31 -53 -20 -14 -51
-40 -69 -57 -28 -28 -47 -37 -85 -42 -3 -1 -23 -17 -45 -37 -21 -19 -64 -47
-94 -62 -30 -14 -72 -41 -93 -59 -20 -18 -42 -33 -47 -33 -19 0 -109 -65 -118
-86 -12 -25 -1 -47 44 -86 19 -17 32 -34 29 -38 -7 -12 21 -20 70 -20 24 0 72
-7 107 -16 35 -9 115 -18 178 -19 125 -4 135 -5 225 -30 104 -29 146 -35 165
-25 30 16 46 12 79 -19 19 -18 31 -39 31 -55 0 -14 4 -47 9 -73 6 -26 12 -75
16 -108 3 -33 8 -76 11 -95 9 -58 11 -449 3 -535 -7 -80 -22 -433 -20 -490 0
-16 2 -120 4 -230 2 -111 7 -206 11 -213 4 -7 5 -15 3 -19 -6 -10 12 -124 21
-138 4 -5 9 -23 11 -40 3 -36 43 -161 66 -204 8 -17 12 -31 9 -31 -4 0 2 -8
13 -17 10 -10 36 -47 56 -83 20 -36 56 -87 81 -115 25 -27 46 -55 46 -60 0 -6
19 -26 41 -45 23 -19 61 -52 86 -72 24 -21 51 -38 59 -38 8 0 32 -11 54 -25
22 -14 45 -25 51 -25 6 0 26 -8 43 -19 17 -10 55 -26 84 -36 29 -9 61 -25 70
-35 9 -9 29 -20 45 -24 21 -5 27 -12 27 -34 0 -15 7 -38 16 -50 33 -48 36
-107 4 -87 -5 3 -47 8 -92 10 -46 3 -117 8 -158 11 -224 18 -282 20 -312 13
-14 -4 -29 -4 -33 -1 -10 10 -55 9 -49 0 3 -4 -2 -8 -10 -8 -8 0 -18 -9 -21
-20 -8 -25 3 -80 16 -80 6 0 29 -9 52 -19 23 -11 60 -22 82 -26 83 -13 87 -15
73 -28 -28 -27 -120 -77 -142 -77 -13 0 -37 -5 -54 -11 -47 -16 -55 -80 -11
-94 10 -4 19 -11 19 -17 0 -8 27 -9 88 -3 106 9 137 13 137 15 0 2 9 4 20 5
11 1 31 5 45 9 l25 7 -24 -19 c-29 -23 -34 -79 -11 -107 13 -16 53 -17 120 -3
27 6 110 47 143 70 44 31 258 138 278 138 19 0 69 44 69 60 0 6 14 24 30 40
27 26 30 35 24 65 -6 32 -4 35 17 35 38 0 97 -19 115 -37 9 -9 30 -17 48 -17
26 -1 34 4 49 37 14 29 15 42 7 52 -6 7 -10 39 -8 72 3 54 5 58 28 58 14 0 28
4 31 8 3 5 21 10 40 12 19 2 60 13 91 24 32 12 65 21 74 21 21 0 263 126 334
175 47 32 130 108 130 120 0 7 95 141 118 165 31 34 93 120 87 120 -8 0 47 94
57 98 4 2 8 10 8 18 0 8 5 14 10 14 6 0 10 7 10 15 0 8 5 15 11 15 6 0 9 9 6
20 -3 11 -1 22 4 25 5 3 13 23 18 43 6 20 20 44 32 52 24 17 118 89 136 105 6
5 37 28 69 50 62 43 64 44 167 153 38 40 73 72 78 72 25 0 -4 76 -33 86 -10 3
-32 -2 -50 -10 -37 -19 -59 -21 -38 -3 8 7 36 41 62 77 26 36 52 70 58 77 5 7
10 15 10 18 0 4 13 25 28 48 33 49 37 82 14 106 -36 37 -61 22 -118 -73 -30
-49 -54 -91 -54 -93 0 -2 -14 -25 -31 -50 -46 -67 -179 -198 -215 -212 -65
-26 -37 -116 32 -103 25 5 164 129 164 148 0 5 9 15 20 22 28 17 25 2 -9 -44
-53 -71 -85 -102 -180 -173 -104 -77 -156 -106 -209 -117 -26 -5 -39 -24 -34
-50 2 -14 -1 -44 -9 -67 -16 -51 -67 -149 -83 -159 -6 -4 -11 -11 -11 -15 0
-10 -46 -85 -60 -98 -6 -5 -24 -29 -39 -53 -16 -23 -39 -53 -52 -67 -13 -14
-27 -31 -31 -39 -39 -65 -127 -151 -197 -191 -29 -16 -76 -43 -104 -59 -28
-16 -53 -28 -56 -27 -4 1 -20 -6 -37 -15 -30 -15 -121 -42 -164 -48 -11 -2
-27 -6 -35 -8 -8 -3 -58 -14 -110 -24 -100 -19 -356 -25 -369 -8 -3 5 -22 10
-41 12 -19 1 -37 8 -41 14 -4 6 -12 7 -18 4 -6 -4 -11 -2 -11 4 0 7 -6 10 -14
7 -8 -3 -16 -3 -18 1 -4 9 -113 62 -127 62 -19 0 -146 74 -174 102 -15 15 -33
25 -40 22 -7 -2 -22 4 -32 14 -11 10 -28 21 -37 25 -10 3 -18 11 -18 16 0 5
-9 12 -19 16 -10 3 -24 19 -31 35 -7 17 -18 30 -24 30 -7 0 -23 18 -36 41 -14
22 -37 53 -51 69 -14 16 -32 43 -39 60 -7 16 -16 30 -20 30 -4 0 -11 12 -15
28 -3 15 -13 34 -21 43 -13 15 -57 129 -49 129 2 0 -5 25 -15 56 -24 70 -31
163 -32 464 -2 334 1 431 12 470 5 19 6 36 1 39 -4 4 -6 15 -4 26 5 23 13 296
13 427 -1 119 -9 233 -20 285 -6 23 -9 46 -8 50 1 8 -10 125 -18 173 -6 43
-43 108 -64 115 -11 3 -20 10 -20 15 0 5 -8 9 -17 9 -10 0 -32 3 -50 7 -32 6
-32 7 -27 51 5 41 -12 103 -28 103 -7 0 -5 17 6 40 3 9 -8 54 -25 100 -17 47
-35 97 -41 113 -5 15 -14 27 -20 27 -5 0 -23 13 -41 30 -18 16 -35 30 -39 30
-18 0 -5 27 23 50 17 14 42 37 56 53 15 15 31 27 38 27 6 0 16 5 23 12 17 17
156 59 160 48 2 -6 9 -7 15 -3 16 9 137 10 137 0 0 -5 9 -5 20 -2 12 4 20 2
20 -5 0 -7 6 -10 14 -7 7 3 35 -10 61 -29 27 -19 45 -34 41 -34 -3 0 7 -13 24
-30 16 -16 30 -32 30 -36 0 -3 11 -28 24 -55 14 -27 28 -67 31 -90 4 -23 10
-49 15 -58 19 -37 50 -128 54 -161 3 -19 5 -35 6 -35 1 0 3 -9 5 -20 1 -11 14
-77 29 -146 14 -70 26 -143 26 -162 0 -20 4 -38 9 -41 11 -7 19 -50 26 -131 3
-33 7 -73 10 -90 35 -206 50 -301 60 -385 3 -19 7 -45 9 -57 2 -11 8 -43 12
-69 4 -26 33 -103 65 -170 55 -119 59 -123 96 -133 25 -7 44 -20 53 -36 7 -14
17 -25 22 -25 4 0 8 -5 8 -11 0 -6 6 -16 13 -24 18 -18 127 -87 127 -81 0 3
33 -12 73 -33 107 -57 202 -83 305 -83 48 -1 106 -6 130 -13 24 -8 42 -9 42
-4 0 6 8 6 19 0 10 -6 20 -8 23 -6 3 3 29 7 59 10 69 6 245 58 326 96 34 16
65 29 70 29 25 0 239 120 289 162 32 28 71 55 85 60 14 5 32 20 39 33 7 13 31
37 54 53 43 31 141 126 186 181 35 42 43 38 24 -11 -29 -79 -87 -188 -100
-188 -15 0 -37 -36 -40 -65 -4 -44 67 -75 96 -42 32 35 120 205 120 231 0 8 5
18 10 21 12 7 14 -37 2 -50 -5 -6 -17 -37 -28 -70 -10 -33 -22 -62 -25 -65 -4
-3 -10 -16 -14 -30 -17 -55 -87 -166 -119 -190 -38 -28 -76 -86 -76 -118 0
-12 9 -30 21 -41 20 -18 22 -18 52 -3 18 10 33 20 35 24 2 4 21 29 43 56 21
28 39 54 39 58 0 5 23 47 50 93 28 46 50 86 50 89 0 3 15 41 34 86 55 132 52
120 41 172 -6 26 -55 37 -74 17 -16 -17 -37 -18 -23 0 18 23 42 125 44 192 3
60 1 69 -21 86 -23 19 -24 19 -58 -1 -19 -11 -41 -20 -49 -20 -8 0 -14 -6 -14
-13 0 -8 -9 -22 -20 -32 -11 -10 -20 -26 -20 -37 0 -10 -5 -18 -11 -18 -6 0
-8 -7 -5 -17 4 -10 4 -14 0 -11 -3 4 -24 -14 -46 -40 -23 -25 -56 -58 -74 -73
-19 -15 -60 -52 -91 -83 -32 -31 -64 -56 -70 -56 -7 0 -13 -4 -13 -8 0 -10
-123 -111 -160 -132 -86 -47 -243 -121 -290 -136 -30 -9 -73 -25 -95 -34 -47
-20 -91 -31 -134 -32 -17 -1 -31 -4 -31 -8 0 -3 -66 -5 -147 -4 -123 1 -198 9
-268 28 -53 15 -65 19 -65 27 0 5 -6 9 -13 9 -6 0 -59 24 -115 52 -102 52
-110 59 -142 128 -4 8 -21 18 -38 22 -20 6 -37 19 -47 38 -9 17 -19 30 -24 30
-5 0 -11 13 -14 29 -3 16 -13 36 -22 44 -8 9 -15 22 -15 29 0 7 -7 23 -15 34
-8 12 -12 24 -9 27 3 3 1 22 -5 43 -9 36 -12 62 -27 204 -3 25 -9 56 -14 70
-11 30 -27 114 -36 190 -4 30 -8 64 -10 75 -2 11 -6 40 -9 65 -3 25 -9 65 -15
90 -5 25 -19 99 -31 165 -12 66 -30 155 -40 199 -11 43 -19 88 -19 99 0 11
-11 44 -25 74 -14 29 -34 86 -44 126 -25 99 -76 192 -137 252 -51 50 -65 59
-139 91 -57 25 -218 27 -312 4z m-242 -413 c27 -22 59 -99 59 -141 0 -48 -61
-66 -205 -61 -72 3 -129 0 -165 -9 -30 -8 -75 -17 -99 -20 -40 -6 -43 -5 -30
10 7 9 36 27 64 40 67 33 91 47 122 74 14 12 41 27 62 34 20 8 52 28 71 46 58
54 83 60 121 27z m99 -301 c13 -17 -3 -66 -22 -66 -7 0 -45 9 -83 20 -65 19
-138 28 -244 29 -24 1 -41 4 -38 8 4 4 75 6 157 5 82 -1 152 2 154 7 8 13 64
11 76 -3z m1248 -3092 c18 -5 22 -13 22 -50 0 -24 -4 -44 -8 -44 -16 0 -40 35
-47 68 -7 33 -4 36 33 26z m262 -3 c0 -3 3 -17 6 -31 6 -21 4 -23 -7 -12 -7 6
-23 12 -34 12 -12 0 -25 3 -29 7 -11 12 -40 12 -53 1 -10 -8 -13 -6 -13 5 0
11 11 17 38 19 71 6 92 6 92 -1z m-240 -163 c0 -31 -3 -39 -11 -31 -7 7 -8 24
-4 42 9 43 15 39 15 -11z m-250 -43 c8 -2 17 -4 20 -5 3 -1 22 -1 43 0 31 1
39 -2 44 -18 2 -11 14 -24 26 -29 19 -9 11 -15 -68 -56 -50 -26 -96 -47 -103
-47 -7 0 -17 11 -23 24 -15 32 -39 37 -127 25 -41 -6 -76 -8 -79 -6 -4 5 111
27 139 27 18 0 26 24 23 69 l-3 33 47 -7 c25 -4 53 -9 61 -10z"/>
<path d="M1232 4187 c-12 -13 -22 -28 -22 -34 0 -6 -5 -13 -11 -15 -19 -6 -23
-85 -6 -111 18 -27 88 -67 117 -67 11 0 35 14 53 31 28 27 32 37 32 83 0 29
-7 65 -15 80 -29 56 -110 74 -148 33z"/>
<path d="M1609 2078 c-16 -42 -22 -292 -9 -338 6 -19 13 -48 15 -65 19 -114
37 -163 80 -228 19 -28 35 -57 35 -64 0 -7 5 -13 10 -13 6 0 10 -4 10 -9 0
-11 58 -71 69 -71 3 0 20 -13 37 -28 17 -15 53 -42 80 -60 27 -17 56 -38 64
-45 8 -8 27 -17 43 -21 15 -3 27 -11 27 -16 0 -6 11 -10 25 -10 14 0 25 -3 25
-8 0 -12 97 -53 153 -63 72 -14 156 -28 195 -33 74 -10 120 -19 172 -33 30 -9
71 -17 90 -19 19 -1 56 -5 81 -9 45 -7 46 -7 63 30 20 41 19 41 120 5 62 -22
118 -21 133 3 12 20 4 71 -14 85 -9 6 -28 12 -41 12 -13 0 -41 12 -63 27 -40
29 -52 50 -21 38 78 -30 211 -40 234 -17 15 15 16 82 0 82 -7 0 -15 7 -18 15
-4 8 -17 15 -30 15 -13 0 -24 4 -24 10 0 6 31 9 78 8 64 -2 85 2 122 21 25 13
48 28 52 35 16 23 8 65 -16 83 l-23 19 46 19 c43 18 70 41 132 114 37 43 42
58 44 124 0 32 5 61 11 65 14 10 103 132 118 162 37 72 23 149 -26 145 -31 -3
-81 -16 -93 -25 -5 -5 -30 -13 -55 -20 -25 -6 -60 -18 -77 -26 -66 -30 -189
-56 -273 -57 -80 -1 -173 15 -195 34 -17 16 -65 9 -85 -11 -24 -24 -26 -53 -5
-74 8 -8 15 -20 15 -26 0 -7 7 -10 15 -7 8 4 17 2 20 -3 3 -5 16 -10 28 -9 12
0 38 -2 57 -4 152 -20 270 -6 450 55 47 15 89 28 93 28 9 0 9 -27 0 -32 -5 -1
-21 -23 -38 -47 -16 -24 -48 -55 -70 -69 -22 -14 -42 -28 -45 -33 -3 -4 -17
-10 -32 -14 -37 -10 -71 -49 -64 -73 8 -24 54 -56 78 -55 28 3 10 -22 -30 -40
-78 -33 -117 -38 -181 -19 -36 10 -50 10 -73 0 -44 -20 -37 -54 19 -105 26
-24 51 -43 55 -43 4 0 8 -5 8 -11 0 -5 -5 -7 -11 -4 -6 4 -40 9 -76 11 -37 2
-75 6 -85 10 -10 3 -27 2 -39 -1 -18 -6 -20 -13 -16 -52 3 -33 11 -51 28 -64
27 -20 21 -36 -8 -20 -10 5 -47 22 -83 37 -36 15 -72 33 -80 40 -25 20 -65 27
-77 12 -16 -19 -27 -98 -14 -98 6 0 32 -21 57 -47 58 -60 42 -66 -54 -18 -39
19 -76 35 -82 35 -5 0 -10 7 -10 15 0 27 -93 9 -104 -20 -7 -20 12 -72 30 -79
8 -3 14 -10 14 -15 0 -6 -18 -5 -44 3 -25 8 -47 12 -50 9 -2 -3 -10 -1 -17 3
-7 4 -27 9 -44 11 -16 2 -41 8 -55 13 -14 6 -43 12 -65 14 -22 2 -60 12 -85
21 -25 9 -55 19 -67 22 -13 3 -23 9 -23 14 0 5 -6 9 -14 9 -7 0 -30 11 -50 25
-20 14 -42 25 -49 25 -7 1 -28 14 -47 30 -19 17 -39 30 -45 30 -18 0 -113 93
-150 148 -42 62 -49 79 -81 197 -21 80 -23 108 -21 248 2 134 0 160 -14 172
-27 26 -56 18 -70 -17z"/>
</g>
</svg>
