<?xml version="1.0" standalone="no"?>
<!DOCTYPE svg PUBLIC "-//W3C//DTD SVG 20010904//EN"
 "http://www.w3.org/TR/2001/REC-SVG-20010904/DTD/svg10.dtd">
<svg version="1.0" xmlns="http://www.w3.org/2000/svg"
 width="263.000000pt" height="188.000000pt" viewBox="0 0 263.000000 188.000000"
 preserveAspectRatio="xMidYMid meet">
<metadata>
Created by potrace 1.16, written by Peter Selinger 2001-2019
</metadata>
<g transform="translate(0.000000,188.000000) scale(0.100000,-0.100000)"
fill="#000000" stroke="none">
<path d="M240 1745 c-19 -23 -6 -164 20 -215 12 -23 20 -43 18 -45 -4 -3 -180
20 -227 31 l-34 7 6 -71 c14 -165 121 -262 266 -237 25 4 41 13 43 23 3 12 9
7 23 -18 25 -48 23 -130 -5 -205 -37 -99 -43 -129 -36 -167 9 -48 43 -97 84
-121 42 -25 155 -34 205 -18 59 20 113 65 120 101 4 19 21 44 44 63 105 89
181 194 167 231 -7 19 -34 21 -34 3 0 -40 -67 -129 -135 -179 -23 -16 -52 -52
-70 -85 -39 -74 -75 -93 -173 -93 -90 0 -143 28 -162 85 -15 45 -10 79 25 175
36 98 33 192 -8 258 -30 47 -57 56 -57 18 0 -20 -6 -25 -39 -31 -107 -18 -197
55 -215 174 -6 37 -4 43 10 37 8 -3 28 -6 43 -6 25 0 28 -3 23 -25 -4 -21 1
-27 29 -39 41 -17 197 -28 205 -14 3 5 17 13 30 18 13 5 24 17 24 26 0 18 55
86 63 78 3 -3 22 6 42 21 44 30 63 31 81 8 12 -17 14 -17 36 5 29 26 55 28 80
5 19 -17 20 -16 37 5 19 25 50 21 52 -7 1 -9 2 -27 2 -41 2 -18 9 -26 25 -28
32 -5 28 -55 -5 -60 -13 -2 -23 -9 -23 -16 0 -14 -41 -36 -67 -36 -9 0 -21 7
-28 16 -10 15 -14 13 -34 -15 -20 -27 -25 -30 -44 -19 -12 6 -25 16 -29 22 -5
7 -16 5 -37 -7 -39 -23 -84 -22 -106 3 -10 11 -24 20 -32 20 -23 0 -11 -41 19
-63 25 -18 31 -19 86 -7 50 10 63 10 88 -3 27 -14 32 -14 54 3 13 10 28 16 32
13 17 -10 69 9 118 43 45 31 99 47 85 25 -10 -17 16 -23 33 -8 20 17 106 47
135 47 32 0 157 -53 157 -66 0 -22 -91 -93 -127 -100 -19 -4 -62 -4 -94 -1
-63 6 -85 -6 -54 -30 22 -15 105 -17 153 -4 31 9 33 8 46 -24 17 -40 68 -60
124 -50 59 10 167 79 185 117 29 61 48 115 45 126 -2 5 13 21 32 34 27 18 36
31 38 59 l3 35 107 13 c59 6 119 14 135 17 27 6 27 5 26 -38 -1 -24 3 -52 9
-63 42 -78 196 -134 277 -101 19 8 37 14 38 13 1 -1 20 17 42 41 21 24 55 52
75 62 l37 19 25 -27 c41 -45 78 -98 72 -105 -3 -3 4 -52 15 -109 19 -95 30
-252 19 -263 -3 -3 -15 29 -27 71 -21 74 -61 131 -82 118 -5 -3 -7 -55 -4
-116 9 -157 -10 -324 -46 -418 -35 -92 -36 -112 -4 -197 31 -82 33 -117 12
-211 -9 -40 -17 -84 -17 -96 0 -34 -23 -49 -60 -41 -27 6 -31 11 -26 28 4 12
9 37 13 54 5 28 3 33 -15 33 -16 0 -23 -11 -33 -50 -9 -37 -17 -50 -28 -47
-22 4 -16 55 15 134 29 71 28 106 0 205 -9 32 -20 78 -25 104 -8 43 -7 48 27
92 19 25 46 70 59 99 24 52 24 55 10 118 -8 36 -13 74 -10 85 3 11 2 40 -1 65
-6 35 -15 51 -41 71 l-35 26 -76 -41 c-41 -23 -82 -41 -90 -41 -25 0 -114 -64
-114 -82 0 -9 4 -18 9 -20 15 -5 63 -110 54 -118 -4 -4 -39 -24 -78 -45 -54
-29 -85 -39 -135 -42 l-65 -5 -1 71 c-1 84 -17 112 -83 149 -40 22 -47 23 -94
12 -53 -13 -117 -45 -117 -60 0 -4 -18 -25 -39 -47 -39 -38 -40 -41 -51 -144
-6 -57 -20 -144 -32 -194 -36 -159 -42 -264 -22 -386 5 -35 4 -37 -31 -49 -49
-16 -58 -5 -61 75 -1 37 -4 69 -7 72 -3 2 -18 -1 -34 -9 -26 -12 -28 -18 -31
-81 -3 -66 -3 -67 -31 -67 -26 0 -29 4 -34 45 -8 58 36 237 89 358 38 88 38
89 25 145 -7 31 -16 89 -18 127 -5 69 -25 111 -45 99 -12 -8 -2 -128 19 -211
14 -62 14 -63 -12 -120 -35 -74 -105 -308 -105 -350 0 -18 5 -55 11 -83 l11
-50 56 -2 c97 -3 145 2 196 20 l48 17 -8 50 c-14 85 -10 264 9 340 9 39 23
105 31 148 22 126 41 134 217 97 52 -11 108 -20 126 -20 l32 0 -6 -57 c-4 -46
-12 -65 -34 -88 -34 -36 -36 -54 -11 -86 20 -24 59 -29 124 -15 l36 8 -1 -37
c-1 -27 5 -41 21 -53 18 -14 21 -22 13 -47 -10 -35 -78 -176 -92 -189 -15 -16
-10 -54 9 -60 30 -10 155 -25 163 -20 12 7 85 117 107 160 30 59 57 195 40
205 -16 10 -12 13 35 32 23 10 37 23 38 34 1 25 38 -86 39 -115 0 -12 -12 -51
-26 -85 -18 -42 -27 -81 -28 -122 l-1 -60 85 -13 c47 -7 99 -11 115 -7 30 5
31 7 49 108 30 163 30 183 2 271 -27 81 -33 135 -17 151 5 6 18 35 28 65 21
58 33 172 35 330 l0 95 24 -75 c46 -144 50 -259 14 -380 -22 -74 -6 -133 52
-197 25 -26 106 -43 118 -23 10 17 -3 68 -45 180 l-37 95 -8 250 c-6 154 -15
279 -24 324 -11 51 -12 77 -5 81 35 22 -68 167 -163 229 -44 29 -77 42 -116
47 -79 10 -348 -2 -477 -21 -597 -87 -655 -94 -655 -76 0 4 12 21 26 37 15 15
28 35 29 44 1 8 7 29 14 45 16 37 26 105 16 105 -4 0 -29 -21 -54 -47 -38 -39
-63 -54 -139 -82 -82 -30 -97 -33 -125 -23 -37 13 -175 8 -189 -6 -6 -6 -25
-8 -43 -5 -21 3 -45 -2 -73 -16 -32 -16 -43 -18 -49 -8 -4 7 -39 28 -76 47
-76 39 -125 86 -134 131 -6 32 -24 37 -43 14z m70 -136 c0 -7 -31 -22 -35 -17
-1 2 -5 21 -9 43 l-7 40 25 -30 c14 -16 25 -33 26 -36z m757 -6 c-4 -3 -2 -12
4 -19 11 -14 4 -34 -11 -34 -13 0 -32 39 -25 50 3 6 13 10 22 10 9 0 13 -3 10
-7z m-702 -53 c-9 -10 -20 -31 -24 -46 l-7 -29 -18 27 c-15 22 -15 30 -4 50
18 32 29 38 51 27 17 -10 18 -12 2 -29z m643 -6 c19 -29 21 -38 10 -45 -23
-15 -34 -10 -52 28 -14 29 -15 38 -4 44 19 13 21 12 46 -27z m962 21 c0 -3
-13 -24 -30 -47 -16 -22 -30 -45 -30 -50 0 -19 17 -4 54 47 36 51 56 67 56 46
0 -4 -16 -29 -36 -55 -20 -26 -33 -50 -30 -53 9 -9 74 68 82 95 3 12 10 22 15
22 16 0 9 -16 -36 -80 -24 -36 -42 -66 -39 -69 6 -7 59 56 90 107 24 39 54 56
54 31 0 -15 -53 -89 -84 -118 -14 -14 -26 -31 -26 -39 0 -7 34 26 76 75 41 48
82 88 90 87 60 -3 60 -4 40 -19 -10 -8 -25 -26 -33 -42 -27 -52 -95 -133 -112
-133 -43 0 -112 34 -147 72 -30 34 -35 45 -30 71 8 40 23 57 52 57 13 0 24 -2
24 -5z m-1545 -77 c-19 -21 -35 -44 -35 -51 0 -7 -4 -6 -10 4 -11 19 4 89 21
100 7 4 23 2 35 -3 l24 -11 -35 -39z m509 16 c16 -39 17 -47 5 -55 -23 -14
-35 -10 -36 14 -1 12 -12 30 -25 40 -22 18 -22 19 -3 33 30 22 39 17 59 -32z
m1325 39 c-1 -15 -114 -167 -126 -171 -26 -8 20 64 83 132 5 6 13 19 17 29 6
16 28 25 26 10z m18 -45 c-23 -33 -100 -116 -91 -98 10 20 53 80 78 107 24 29
34 21 13 -9z m-702 12 c9 -15 -4 -47 -22 -54 -12 -5 -14 -1 -10 14 3 13 0 20
-9 20 -8 0 -14 -5 -14 -12 0 -7 -26 -54 -57 -106 -32 -52 -68 -110 -80 -129
-22 -37 -50 -59 -60 -49 -7 7 28 62 113 177 35 48 64 91 64 98 0 21 -19 11
-34 -17 -14 -28 -157 -245 -177 -270 -20 -24 -99 15 -99 48 0 18 60 84 68 75
2 -1 -7 -19 -19 -39 -12 -20 -19 -39 -16 -42 2 -3 17 16 31 41 15 25 46 69 69
98 54 66 77 103 77 120 0 22 163 47 175 27z m-216 -65 c-13 -25 -29 -51 -36
-57 -22 -18 -16 30 9 65 44 63 60 58 27 -8z m-95 10 c-19 -30 -29 -31 -80 -8
l-39 17 35 7 c19 3 50 7 68 8 32 1 32 1 16 -24z m-204 5 c0 -5 -6 -10 -14 -10
-8 0 -23 -3 -33 -6 -16 -5 -16 -4 1 10 22 18 46 21 46 6z m-778 -26 c15 -8 28
-16 28 -18 0 -2 -21 -1 -47 2 -44 4 -103 26 -103 37 0 9 95 -7 122 -21z m1012
1 c-4 -8 -13 -15 -21 -15 -13 0 -13 3 -3 15 7 8 16 15 21 15 5 0 6 -7 3 -15z
m170 -132 c-16 -25 -40 -53 -53 -62 -19 -12 -14 0 25 58 51 78 76 81 28 4z
m706 -238 c0 -14 -55 -89 -105 -145 -30 -35 -55 -69 -55 -76 0 -8 -4 -14 -10
-14 -33 0 15 83 105 184 45 50 65 66 65 51z m-127 -103 c-38 -50 -70 -87 -71
-81 -2 5 14 31 35 57 21 26 51 64 67 85 15 21 30 36 32 34 3 -2 -26 -45 -63
-95z m157 81 c-2 -33 -165 -237 -181 -227 -14 8 8 41 81 120 38 40 71 83 75
94 6 19 25 29 25 13z m-190 -77 c-32 -47 -48 -62 -57 -52 -12 11 58 96 79 96
5 0 -5 -20 -22 -44z m178 -18 c-41 -58 -120 -148 -130 -148 -19 0 2 31 75 114
71 80 101 99 55 34z m-230 22 c-7 -11 -19 -20 -27 -20 -11 0 -10 5 4 20 10 11
22 20 27 20 4 0 3 -9 -4 -20z m223 -98 c-38 -60 -77 -97 -85 -83 -4 6 19 42
51 80 64 77 82 78 34 3z m-652 36 c-6 -13 -18 -31 -27 -41 -22 -25 -6 -34 20
-11 12 10 3 -3 -20 -30 -57 -66 -43 -74 19 -9 48 51 63 81 34 69 -12 -4 -13
-2 -3 13 9 15 15 17 29 8 16 -10 15 -14 -14 -54 -54 -74 -62 -86 -51 -82 6 2
32 28 57 56 60 68 69 54 11 -16 -24 -29 -44 -55 -44 -57 0 -10 14 -1 57 39
l46 42 -5 -53 c-3 -29 -7 -55 -10 -58 -7 -6 -186 31 -195 40 -4 4 7 18 25 32
18 14 32 31 32 37 0 6 -19 -7 -42 -30 -24 -22 -55 -43 -70 -47 -14 -3 -33 -9
-42 -12 -23 -9 -20 13 4 33 11 10 20 25 20 34 0 17 62 79 99 99 31 16 26 2
-20 -52 -62 -74 -40 -68 27 6 60 67 84 84 63 44z m651 -97 c-44 -66 -60 -81
-60 -56 0 17 79 115 93 115 4 0 -10 -27 -33 -59z m50 6 c0 -15 -76 -120 -90
-125 -22 -8 -7 27 35 81 47 59 55 66 55 44z m-180 -65 c35 -17 35 -18 47 -111
6 -51 14 -108 17 -125 6 -31 5 -32 -41 -45 -27 -7 -56 -15 -65 -18 -14 -4 -18
1 -18 20 0 41 -18 41 -39 -1 -11 -22 -34 -51 -51 -66 -37 -30 -80 -35 -80 -8
0 32 47 118 79 144 35 30 39 43 15 52 -18 7 -76 -51 -96 -96 -16 -35 -28 -35
-67 -2 -24 20 -30 31 -25 49 3 12 1 26 -5 29 -14 9 -14 51 -1 76 5 10 24 22
42 26 18 3 69 23 113 44 123 58 122 58 175 32z m125 -62 c-16 -16 -31 -27 -34
-24 -5 4 48 53 58 54 3 0 -8 -13 -24 -30z m364 -143 c36 -103 38 -119 14 -110
-28 10 -60 42 -74 75 -9 23 -9 40 1 84 7 30 17 51 21 47 4 -4 21 -48 38 -96z
m-843 -54 c19 -26 17 -33 -10 -33 -30 0 -42 16 -26 35 16 19 20 19 36 -2z
m315 -88 c21 13 -1 -124 -28 -180 -35 -71 -98 -155 -115 -155 -22 0 -22 -2 2
55 11 26 18 51 14 56 -13 22 -34 5 -58 -46 -15 -32 -31 -55 -40 -55 -22 0 -21
6 23 95 22 44 45 98 50 120 7 28 20 46 41 58 17 10 40 31 52 47 18 25 23 27
35 14 8 -8 19 -12 24 -9z"/>
<path d="M2112 1481 c-61 -78 -72 -101 -52 -101 6 0 10 6 10 14 0 8 13 27 28
44 61 65 92 103 92 112 0 23 -21 5 -78 -69z"/>
<path d="M1426 1461 c-10 -18 -51 -78 -92 -134 -71 -96 -86 -127 -64 -127 6 0
10 7 10 16 0 9 39 67 86 129 53 71 84 120 82 132 -3 14 -8 11 -22 -16z"/>
<path d="M1065 1366 c-41 -12 -58 -44 -20 -37 11 2 45 5 75 8 55 5 84 18 75
33 -7 12 -84 9 -130 -4z"/>
<path d="M801 1259 c-71 -29 -125 -102 -119 -162 3 -29 6 -32 42 -35 62 -5
144 59 106 83 -6 4 -18 1 -27 -7 -15 -12 -16 -10 -9 16 5 21 3 31 -11 41 -17
12 -16 14 12 20 42 9 60 20 60 36 0 17 -23 21 -54 8z m-49 -141 c7 -14 4 -18
-12 -18 -14 0 -20 7 -20 23 0 27 13 44 19 25 2 -7 8 -21 13 -30z"/>
<path d="M432 880 c-13 -22 -16 -60 -4 -60 4 0 20 11 37 24 25 20 28 26 16 40
-18 21 -34 20 -49 -4z"/>
<path d="M594 865 c-11 -28 -12 -41 -4 -49 14 -14 51 31 47 58 -4 34 -27 29
-43 -9z"/>
<path d="M780 872 c0 -29 -44 -206 -71 -282 -28 -81 -30 -99 -24 -158 11 -111
9 -133 -19 -231 -32 -116 -34 -166 -7 -181 22 -11 162 -12 201 -1 25 7 25 7
26 136 2 118 5 138 33 215 36 101 51 185 44 261 -3 40 2 74 17 119 14 43 18
66 11 73 -31 31 -61 -59 -61 -187 0 -100 -11 -160 -51 -274 -25 -73 -29 -98
-29 -193 l0 -109 -26 0 c-26 0 -26 1 -21 58 3 31 7 66 9 77 2 11 -3 21 -13 23
-19 4 -39 -56 -39 -117 0 -40 -1 -41 -34 -41 -19 0 -38 5 -41 10 -3 6 8 67 26
136 27 109 30 131 20 164 -18 61 -13 102 28 227 21 65 41 141 46 168 4 28 11
58 17 68 6 13 6 23 -3 33 -12 15 -39 19 -39 6z"/>
</g>
</svg>
