<?xml version="1.0" standalone="no"?>
<!DOCTYPE svg PUBLIC "-//W3C//DTD SVG 20010904//EN"
 "http://www.w3.org/TR/2001/REC-SVG-20010904/DTD/svg10.dtd">
<svg version="1.0" xmlns="http://www.w3.org/2000/svg"
 width="561.000000pt" height="477.000000pt" viewBox="0 0 561.000000 477.000000"
 preserveAspectRatio="xMidYMid meet">
<metadata>
Created by potrace 1.16, written by Peter Selinger 2001-2019
</metadata>
<g transform="translate(0.000000,477.000000) scale(0.100000,-0.100000)"
fill="#000000" stroke="none">
<path d="M4665 4656 c-16 -6 -39 -22 -50 -36 -11 -14 -31 -37 -45 -51 -35 -36
-60 -75 -60 -94 0 -8 -4 -15 -10 -15 -12 0 -100 -87 -100 -99 0 -17 -69 -78
-80 -71 -12 8 -79 -11 -146 -41 -23 -11 -47 -19 -54 -19 -29 0 -133 -67 -197
-126 -37 -35 -78 -67 -90 -70 -13 -3 -23 -12 -23 -19 0 -7 -37 -51 -82 -99
-113 -117 -180 -192 -191 -213 -5 -10 -19 -27 -31 -39 -11 -12 -48 -51 -81
-88 -32 -36 -63 -66 -67 -66 -4 0 -27 -19 -51 -42 -24 -24 -66 -63 -93 -88
-27 -25 -60 -67 -74 -93 -16 -30 -30 -45 -38 -42 -19 7 -82 -24 -82 -41 0 -8
-8 -18 -17 -22 -10 -4 -38 -19 -63 -34 -41 -24 -150 -51 -175 -42 -25 8 -96
10 -101 3 -3 -5 -15 -9 -27 -9 -12 0 -94 0 -182 0 -179 -1 -256 5 -363 26 -40
8 -97 17 -127 19 -29 3 -72 11 -96 18 -29 8 -119 12 -269 11 -215 0 -229 -1
-310 -27 -47 -14 -111 -33 -143 -42 -32 -9 -95 -35 -141 -59 -83 -44 -208
-124 -214 -138 -2 -5 -9 -8 -15 -8 -7 0 -23 -13 -37 -30 -14 -16 -28 -30 -31
-30 -14 0 -141 -125 -155 -152 -8 -15 -24 -38 -37 -52 -13 -14 -32 -37 -43
-52 -10 -14 -24 -31 -29 -38 -6 -6 -19 -31 -30 -56 -10 -25 -24 -52 -30 -60
-23 -30 -65 -109 -65 -122 0 -7 -6 -25 -14 -39 -26 -50 -61 -177 -90 -324 -3
-11 -13 -58 -24 -105 -11 -47 -23 -139 -26 -205 -11 -190 -14 -226 -21 -292
-3 -35 -1 -107 4 -160 6 -54 12 -116 13 -138 1 -22 5 -47 9 -56 5 -9 10 -58
12 -108 3 -80 7 -93 27 -111 13 -11 28 -20 34 -20 31 1 62 47 61 93 -1 18 3
26 11 23 7 -3 18 2 25 11 14 16 16 22 25 71 5 26 11 32 33 32 47 0 55 13 54
84 -1 36 1 66 3 66 3 0 18 -9 33 -21 18 -13 36 -19 48 -15 20 6 49 52 44 70
-1 5 7 28 17 50 35 74 62 213 61 321 0 55 4 132 10 170 6 39 11 97 11 129 0
59 34 176 51 176 5 0 10 -21 10 -47 1 -27 2 -59 4 -73 1 -14 6 -65 9 -115 4
-49 10 -107 15 -127 5 -21 7 -38 4 -38 -3 0 0 -7 7 -15 7 -8 9 -15 5 -15 -4 0
-3 -6 3 -13 6 -7 13 -41 16 -76 3 -34 9 -68 14 -74 16 -21 20 -67 9 -104 -6
-20 -35 -61 -64 -92 -29 -30 -53 -59 -53 -64 0 -4 -13 -10 -30 -13 -16 -4 -30
-13 -30 -20 0 -8 -5 -14 -11 -14 -14 0 -6 -89 9 -99 8 -6 15 -24 42 -114 5
-17 12 -54 16 -82 3 -27 9 -54 12 -60 3 -5 7 -28 8 -50 1 -22 6 -74 11 -115
19 -148 -4 -419 -35 -413 -7 2 -12 -4 -12 -13 0 -8 -4 -13 -10 -9 -5 3 -15 -7
-23 -21 -13 -25 -12 -31 12 -70 20 -32 35 -45 64 -52 24 -7 37 -6 37 0 0 6 7
8 15 4 8 -3 15 -2 15 3 0 7 46 13 123 15 20 1 37 4 37 9 0 4 17 7 38 7 21 0
41 3 45 6 3 4 40 8 82 9 42 2 82 9 90 15 50 41 6 197 -85 307 -23 28 -28 58
-13 86 7 15 11 32 8 37 -3 5 0 12 6 15 5 4 8 13 5 21 -3 7 1 35 9 61 12 43 19
100 30 228 1 22 -2 68 -7 102 -8 52 -7 66 5 78 9 8 17 18 19 23 2 7 44 37 205
147 11 7 18 5 27 -9 6 -10 23 -33 38 -50 16 -17 28 -35 28 -41 0 -5 6 -22 14
-36 7 -14 16 -38 20 -53 4 -15 11 -24 16 -21 6 3 10 1 10 -5 0 -7 10 -26 22
-43 31 -43 34 -117 6 -147 -16 -17 -22 -37 -23 -79 -1 -31 -6 -65 -12 -76 -6
-11 -8 -26 -6 -33 3 -7 0 -19 -7 -27 -6 -8 -8 -20 -4 -26 4 -7 -1 -18 -11 -25
-24 -18 -44 -77 -34 -97 6 -9 3 -26 -6 -43 -19 -37 -19 -50 1 -58 8 -3 12 -10
9 -16 -3 -5 -3 -10 2 -11 4 0 22 -2 38 -4 17 -2 45 -8 64 -14 19 -6 37 -9 39
-6 3 3 10 1 16 -3 6 -5 38 -17 71 -28 33 -10 69 -27 79 -37 11 -9 25 -18 30
-18 79 -10 93 1 100 81 3 29 13 64 22 77 19 30 34 167 23 203 -10 30 -7 53 8
71 6 8 14 34 18 58 3 23 11 54 16 68 5 14 7 28 4 32 -2 5 2 16 9 27 8 10 12
24 9 30 -2 7 1 23 8 36 7 13 14 39 16 58 2 19 9 40 15 47 6 8 12 26 14 41 1
15 3 29 4 32 10 24 -52 227 -74 242 -7 5 -6 8 3 8 10 0 12 11 8 43 -2 23 -8
50 -12 60 -7 17 -4 18 31 13 74 -11 109 -15 184 -21 41 -4 86 -8 100 -11 131
-20 252 -33 335 -35 118 -2 290 7 305 16 7 4 24 8 38 10 29 3 87 22 112 36 51
30 55 26 56 -59 0 -37 6 -77 12 -89 15 -26 68 -68 100 -78 16 -5 22 -14 23
-38 1 -44 5 -76 17 -117 14 -57 -10 -181 -57 -282 -11 -26 -21 -52 -21 -59 0
-7 -8 -22 -19 -33 -25 -29 -12 -81 24 -90 31 -8 26 -18 -19 -40 -25 -12 -35
-24 -40 -48 -5 -28 -2 -37 23 -60 17 -16 39 -28 49 -28 22 0 37 -26 21 -35 -5
-4 -20 -27 -33 -53 -13 -26 -34 -58 -47 -71 -24 -25 -34 -67 -21 -88 10 -15
77 -44 85 -36 5 5 117 6 262 2 39 -1 71 4 90 15 17 9 34 16 38 16 5 0 23 11
41 25 18 14 40 25 48 25 9 0 23 18 32 41 12 29 20 39 27 32 12 -12 69 5 69 20
0 4 4 6 9 2 14 -8 128 74 120 87 -5 7 13 48 21 48 10 0 1 75 -13 110 -6 14
-12 35 -13 47 -2 12 -7 30 -13 41 -16 30 -13 149 6 222 3 14 5 35 4 48 -1 13
3 22 11 22 10 0 10 2 -1 9 -9 6 -15 28 -16 58 0 26 -5 60 -9 76 -11 37 -1 70
33 108 16 17 34 50 41 73 11 42 9 165 -5 197 -3 10 -1 37 6 60 14 52 17 69 18
129 3 103 1 132 -9 216 -10 83 -9 94 15 184 14 52 35 113 46 136 10 23 19 46
19 53 0 6 5 11 10 11 6 0 10 10 10 23 1 22 29 112 42 133 11 17 38 98 38 114
0 8 15 46 34 85 67 141 76 162 79 194 2 17 9 37 15 43 7 7 12 24 12 38 0 15 9
35 20 45 14 13 18 27 16 56 -4 37 -3 38 17 27 26 -14 37 -17 102 -24 61 -6
125 -24 125 -36 0 -4 5 -8 11 -8 6 0 26 -12 45 -26 19 -15 34 -23 34 -19 0 3
7 -1 16 -9 8 -9 19 -14 23 -12 4 3 33 -19 64 -48 32 -29 75 -59 97 -66 22 -7
40 -17 40 -22 0 -4 7 -8 15 -8 9 0 29 -7 45 -15 16 -8 46 -18 67 -21 21 -3 41
-8 46 -11 13 -8 167 -12 167 -4 0 4 19 13 43 20 43 13 107 65 107 87 0 7 5 14
10 16 6 2 13 14 16 28 7 32 7 207 0 219 -3 5 -10 39 -15 76 -6 37 -16 74 -24
84 -8 9 -21 35 -28 59 -7 23 -16 42 -21 42 -4 0 -8 7 -8 15 0 8 -5 15 -10 15
-6 0 -15 11 -20 25 -5 14 -13 25 -18 25 -4 0 -18 13 -30 30 -17 22 -24 48 -26
97 -3 38 -9 81 -15 96 -6 16 -11 34 -11 41 0 8 -7 19 -15 26 -8 7 -15 20 -15
29 0 9 -20 38 -45 66 -25 27 -45 55 -45 63 0 7 -3 11 -8 8 -4 -2 -32 20 -62
50 -30 31 -67 63 -82 72 -27 16 -38 42 -18 42 6 0 10 7 10 15 0 8 4 15 8 15 4
0 8 8 9 18 2 27 32 110 67 187 18 39 40 99 50 135 10 36 24 85 31 110 27 89
28 109 8 132 -20 26 -64 32 -76 12 -4 -7 -20 -15 -36 -19 -19 -4 -33 -16 -41
-34 -6 -16 -27 -46 -46 -67 -60 -67 -155 -164 -160 -164 -3 0 -20 -15 -37 -33
-18 -19 -51 -46 -74 -61 -38 -23 -43 -24 -43 -9 1 18 23 141 33 178 3 11 11
43 18 70 6 28 16 58 21 68 5 10 12 37 14 60 3 23 7 44 10 46 2 2 -3 13 -13 23
-18 20 -43 21 -88 4z m-126 -323 c-6 -21 -22 -51 -34 -68 -12 -16 -30 -52 -40
-78 -10 -27 -27 -60 -38 -73 -10 -14 -21 -42 -24 -63 -5 -36 -3 -41 23 -53 32
-16 64 -13 64 5 0 7 9 23 20 37 11 14 20 33 20 43 0 9 3 17 8 17 4 0 7 -21 7
-46 0 -62 24 -81 73 -57 20 9 32 23 32 35 0 19 1 19 32 1 18 -10 54 -33 80
-50 26 -18 51 -33 55 -33 5 0 33 -23 63 -51 30 -28 77 -69 105 -91 65 -52 145
-127 145 -136 0 -4 14 -22 30 -40 19 -22 31 -49 35 -78 17 -143 17 -142 30
-194 2 -8 4 -19 4 -23 1 -4 16 -23 34 -41 19 -19 37 -41 40 -50 4 -9 10 -16
15 -16 5 0 15 -15 23 -32 7 -18 16 -35 19 -38 8 -7 35 -68 50 -112 25 -81 13
-228 -22 -265 -26 -28 -43 -29 -103 -3 -42 18 -105 59 -97 63 4 2 -7 36 -17
57 -5 8 -16 14 -25 14 -9 -1 -25 -2 -36 -3 -35 -2 -43 -36 -21 -86 11 -25 16
-45 11 -45 -11 0 -63 22 -70 30 -3 3 -18 12 -35 19 -16 8 -55 33 -85 56 -30
22 -66 46 -80 53 -44 22 -73 40 -79 49 -18 25 -70 46 -127 50 -36 3 -91 15
-122 27 -57 23 -73 33 -156 108 -75 67 -89 78 -100 79 -22 3 -39 -3 -52 -16
-16 -16 -19 -75 -4 -75 6 0 15 -10 21 -23 6 -13 25 -31 42 -41 18 -9 51 -34
74 -54 41 -36 41 -38 21 -47 -15 -7 -26 -26 -35 -60 -8 -27 -16 -57 -18 -65
-9 -34 -24 -77 -35 -105 -7 -16 -15 -39 -17 -50 -2 -10 -7 -22 -11 -25 -4 -3
-9 -14 -10 -25 -2 -11 -10 -27 -17 -35 -7 -8 -16 -32 -20 -53 -4 -20 -11 -40
-16 -43 -5 -3 -9 -15 -9 -27 0 -12 -12 -49 -26 -82 -14 -33 -39 -96 -55 -140
-40 -107 -59 -145 -76 -145 -7 0 -13 -4 -13 -9 0 -38 -34 -189 -45 -201 -8 -9
-15 -21 -15 -26 0 -5 -21 -22 -45 -39 -25 -16 -45 -33 -45 -37 0 -5 -4 -8 -8
-8 -5 0 -12 48 -16 107 -9 131 -8 118 -5 175 4 75 -39 110 -81 68 -19 -19 -20
-29 -14 -212 3 -106 7 -222 9 -258 3 -70 -29 -221 -60 -282 -21 -40 -30 -98
-15 -98 5 0 10 -7 10 -15 0 -8 6 -15 14 -15 20 0 46 -39 46 -67 0 -12 -10 -31
-22 -43 -12 -11 -19 -20 -15 -20 4 0 -1 -9 -10 -19 -56 -62 -64 -81 -57 -143
3 -29 7 -56 9 -59 13 -20 -3 -453 -16 -458 -6 -2 -20 -12 -31 -23 -17 -17 -31
-20 -88 -16 -58 3 -71 7 -88 28 -20 24 -20 26 -3 45 32 36 33 56 6 81 -14 13
-30 24 -36 24 -15 0 -10 45 10 102 11 29 23 69 27 88 10 45 11 48 14 58 2 4 4
12 5 17 1 6 5 22 9 37 5 16 0 74 -13 145 -11 65 -22 132 -25 148 -10 59 -19
75 -44 82 -14 3 -33 1 -43 -5 -25 -16 -28 -7 -30 79 -1 63 -1 108 2 223 0 41
-68 180 -103 206 -14 11 -41 97 -43 135 -1 22 -5 58 -9 80 -17 89 -34 103 -82
62 -26 -23 -26 -23 -16 -102 13 -108 20 -134 42 -170 49 -81 100 -189 100
-213 -1 -47 -25 -65 -135 -101 -104 -35 -238 -53 -343 -46 -52 3 -99 8 -105
12 -6 3 -29 5 -51 4 -23 -1 -72 3 -111 8 -38 6 -101 13 -140 16 -38 3 -88 10
-109 15 -22 5 -52 6 -66 3 -15 -2 -44 0 -66 7 -21 6 -63 18 -93 26 -30 8 -71
24 -90 36 -91 54 -141 90 -141 102 0 8 -9 16 -21 19 -18 5 -20 10 -14 39 4 18
10 37 13 42 3 5 7 32 9 60 2 28 9 69 15 91 12 41 12 271 0 290 -4 6 -6 38 -7
72 0 50 -4 65 -19 76 -25 18 -75 4 -77 -21 -1 -10 -3 -30 -4 -47 -1 -16 2 -52
6 -80 16 -97 17 -200 3 -285 -8 -47 -19 -112 -24 -145 -11 -67 -11 -67 -40
-180 -44 -167 -104 -252 -251 -358 -48 -34 -160 -107 -165 -107 -2 0 -17 -13
-32 -29 -70 -73 -79 -98 -54 -145 21 -42 20 -218 -2 -269 -9 -20 -17 -60 -17
-87 -1 -27 -8 -61 -15 -76 -8 -14 -14 -32 -14 -39 0 -8 -7 -21 -16 -30 -9 -8
-13 -22 -10 -30 6 -17 -41 -45 -76 -45 -59 0 -65 7 -66 77 -1 38 -6 69 -13 73
-7 5 -7 10 -1 13 5 4 8 23 6 44 -2 21 -5 75 -9 121 -3 45 -9 90 -15 100 -5 9
-14 40 -20 67 -6 28 -15 66 -20 85 -23 87 -23 82 25 130 25 25 56 55 68 68 63
63 99 194 70 253 -7 15 -10 36 -8 48 2 11 0 23 -6 26 -5 4 -9 17 -9 31 0 14
-7 35 -14 47 -8 12 -22 51 -30 87 -8 36 -19 83 -25 105 -12 47 -15 196 -8 372
l5 122 41 65 c43 68 49 94 29 114 -9 9 -4 21 20 54 18 24 45 68 61 99 16 30
36 61 45 68 12 10 13 18 4 36 -6 13 -17 26 -24 29 -25 9 -72 -15 -83 -42 -17
-43 -65 -128 -97 -169 -31 -40 -74 -121 -74 -139 0 -7 -19 -58 -41 -115 -23
-57 -49 -126 -59 -154 -10 -27 -30 -83 -44 -122 -16 -46 -27 -104 -31 -155 -2
-46 -7 -96 -9 -113 -3 -16 -8 -70 -11 -120 -12 -188 -43 -327 -88 -400 l-19
-30 8 50 c4 28 8 133 9 235 2 102 8 219 14 260 6 41 12 94 13 118 1 24 5 45
10 48 4 3 8 17 8 30 0 29 41 154 76 232 13 29 24 57 24 63 0 16 113 230 135
258 11 13 32 35 48 49 34 32 34 50 1 62 -36 14 -36 14 -86 -24 -46 -35 -96
-123 -149 -261 -31 -83 -57 -119 -74 -105 -27 22 -58 7 -82 -40 -20 -39 -57
-157 -68 -215 -2 -11 -11 -56 -19 -100 -8 -44 -17 -127 -20 -185 -2 -58 -11
-179 -20 -270 -12 -124 -13 -185 -6 -250 5 -47 10 -88 10 -92 0 -13 -27 -9
-27 5 -11 161 -17 215 -24 228 -4 9 -6 19 -2 22 3 4 10 75 14 159 14 253 29
388 49 463 5 17 14 55 20 85 15 72 38 145 60 195 41 91 50 114 50 127 0 8 13
32 29 54 15 21 34 56 40 77 7 20 17 37 22 37 5 0 9 7 9 15 0 8 4 15 8 15 4 0
15 12 24 28 27 42 195 222 209 222 4 0 14 6 21 13 52 50 190 144 240 164 21 8
38 19 38 23 0 9 31 21 115 45 33 10 65 21 70 25 10 8 77 21 130 26 17 1 51 7
76 12 98 19 500 -12 619 -48 19 -6 96 -13 170 -16 74 -3 158 -9 185 -12 28 -4
82 -4 120 0 39 3 113 7 165 8 67 1 121 9 185 27 104 29 102 28 150 71 l36 34
-2 -59 c-1 -32 -1 -85 -1 -118 0 -33 1 -69 0 -80 0 -29 8 -66 21 -98 6 -16 11
-38 11 -50 0 -12 6 -39 14 -62 8 -22 20 -60 27 -85 7 -25 20 -52 28 -60 13
-13 58 -84 87 -135 6 -10 22 -28 36 -38 26 -19 26 -19 47 0 11 11 21 34 22 54
2 29 -3 42 -29 67 -18 17 -32 37 -32 45 0 7 -11 19 -24 26 -21 12 -56 90 -71
161 -2 8 -8 35 -14 60 -6 25 -11 60 -11 78 0 17 -4 32 -8 32 -5 0 -8 69 -7
153 1 195 -1 191 161 331 43 38 99 90 123 115 90 95 131 142 131 150 0 4 9 16
20 26 11 10 20 22 20 27 0 5 14 21 30 35 17 13 30 28 30 32 0 4 33 41 73 82
39 41 85 91 101 112 16 20 34 37 39 37 6 0 17 7 26 15 75 71 105 94 157 120
32 17 62 34 65 39 13 18 27 -4 20 -32 -4 -15 -4 -37 2 -49 18 -41 81 -38 92 4
3 14 32 51 63 82 32 31 75 79 97 107 52 66 108 125 113 119 2 -2 -2 -21 -9
-42z m523 35 c-7 -7 -12 -19 -12 -27 0 -9 -7 -29 -15 -45 -8 -15 -15 -34 -15
-40 0 -7 -17 -48 -39 -92 -21 -45 -42 -95 -46 -112 -7 -34 -31 -42 -53 -20
-15 15 -16 60 -1 75 6 6 16 20 23 31 6 10 26 41 43 68 18 27 38 66 45 87 6 21
25 49 41 63 29 25 51 34 29 12z m-244 -197 c-7 -12 -16 -21 -20 -21 -5 0 -8
-6 -8 -14 0 -8 -7 -17 -16 -20 -21 -8 -15 5 21 48 31 38 45 42 23 7z m-266
-53 c-7 -7 -12 -8 -12 -2 0 6 3 14 7 17 3 4 9 5 12 2 2 -3 -1 -11 -7 -17z
m-568 -2375 c8 -85 2 -195 -13 -221 -7 -13 -21 -32 -32 -43 -30 -30 -23 -70
24 -125 32 -37 14 -104 -43 -167 -50 -55 -66 -89 -53 -109 4 -7 9 -24 11 -38
2 -13 7 -29 12 -35 13 -16 5 -227 -9 -254 -7 -11 -18 -21 -26 -21 -8 0 -22 -9
-32 -19 -10 -10 -35 -28 -55 -40 -35 -19 -38 -19 -39 -3 -1 27 -1 123 0 177 1
28 -1 76 -4 109 -3 32 -2 63 2 70 4 6 8 17 9 24 2 7 13 23 26 35 24 22 60 103
62 141 3 29 -14 76 -37 107 -14 19 -17 33 -11 50 10 30 13 44 20 94 3 22 12
63 20 92 8 28 14 67 14 86 0 31 8 41 68 90 37 31 70 56 74 56 3 1 9 -25 12
-56z m-2314 -182 c0 -5 50 -33 110 -62 98 -48 110 -57 107 -77 -2 -12 -1 -25
4 -28 7 -4 31 -72 35 -99 0 -5 4 -21 7 -35 4 -14 9 -37 11 -52 6 -35 27 -99
38 -114 8 -12 -21 -166 -43 -229 -6 -16 -21 -69 -34 -116 -24 -94 -61 -153
-100 -163 -14 -3 -49 -3 -79 0 -54 6 -55 7 -61 44 -6 35 10 124 25 145 12 16
20 165 8 165 -5 0 -7 9 -3 19 3 11 1 22 -5 26 -5 3 -10 15 -10 26 0 10 -4 19
-10 19 -5 0 -10 5 -10 12 0 6 -19 30 -42 51 -24 22 -43 43 -43 46 -1 14 -36
71 -44 71 -5 0 -14 13 -21 30 -10 25 -10 32 4 46 9 9 24 30 32 47 9 18 32 57
50 87 18 30 35 64 37 75 8 45 20 75 28 75 5 0 9 -4 9 -9z m-1276 -191 c-5 -66
-25 -180 -31 -180 -7 0 6 205 14 240 6 22 7 23 13 5 4 -11 6 -40 4 -65z m3496
-770 c0 -11 -1 -22 -2 -23 -2 -2 3 -11 11 -20 10 -13 11 -20 2 -31 -9 -10 -9
-15 -1 -18 6 -2 14 -22 17 -45 7 -55 -21 -88 -77 -88 -21 -1 -45 -7 -54 -14
-13 -11 -16 -11 -20 0 -5 19 -37 130 -42 150 -5 19 4 27 66 60 25 13 51 30 58
37 20 18 42 14 42 -8z m-2155 -121 c44 1 93 -3 109 -9 24 -9 27 -14 21 -38 -4
-15 -7 -34 -7 -42 0 -8 -6 -30 -14 -48 -16 -35 -28 -35 -99 -7 -16 7 -54 18
-82 25 -47 10 -52 15 -48 33 3 12 7 38 9 57 3 19 5 36 5 38 1 2 7 0 13 -4 7
-5 49 -7 93 -5z m1927 -141 c6 -80 4 -85 -31 -109 -31 -22 -44 -24 -128 -21
-51 1 -112 -2 -135 -7 -23 -6 -44 -8 -47 -6 -2 3 7 19 21 37 13 18 30 49 38
68 18 46 23 48 76 40 26 -4 72 -2 107 5 91 18 97 18 99 -7z m-2598 -34 c9 -3
16 -12 16 -19 0 -7 9 -23 19 -37 11 -13 23 -37 27 -53 6 -26 5 -28 -20 -21
-14 3 -26 3 -26 -2 0 -4 -8 -8 -17 -9 -46 -3 -197 -24 -204 -29 -4 -2 -19 -2
-33 2 -21 5 -23 9 -16 27 5 12 11 43 15 68 l6 45 92 13 c87 12 120 17 124 20
1 0 8 -2 17 -5z"/>
<path d="M4196 3968 c-16 -15 -27 -37 -30 -63 -9 -67 -18 -105 -25 -105 -4 0
-14 9 -24 20 -17 21 -43 25 -64 12 -7 -5 -15 -30 -19 -58 -10 -89 -12 -93 -40
-91 -28 2 -40 -13 -99 -124 -32 -61 -35 -82 -35 -219 0 -123 2 -145 13 -156 4
-4 7 -20 7 -36 0 -87 73 -120 109 -50 21 41 18 94 -4 86 -17 -7 -23 4 -31 57
-16 104 5 260 42 313 13 19 14 17 15 -24 4 -180 20 -232 72 -238 53 -6 87 64
46 97 -35 28 -36 137 -3 360 9 66 12 41 10 -100 -1 -106 2 -143 12 -147 6 -2
12 -12 12 -23 0 -10 5 -19 10 -19 6 0 10 -6 10 -14 0 -22 28 -39 54 -32 15 4
28 17 35 36 12 37 4 90 -15 90 -7 0 -15 9 -19 19 -8 25 2 258 11 273 4 6 9 25
11 42 2 17 8 33 13 34 13 5 13 38 0 63 -14 25 -43 24 -74 -3z"/>
<path d="M4620 3819 c-13 -5 -33 -8 -45 -7 -12 2 -29 -7 -42 -21 -18 -20 -20
-28 -10 -45 6 -12 10 -27 9 -33 -4 -17 40 -17 98 0 51 15 120 2 128 -24 3 -8
1 -11 -3 -7 -12 11 -65 -31 -87 -69 -18 -29 -22 -31 -39 -20 -10 8 -31 12 -47
9 -25 -3 -28 -8 -31 -45 -1 -23 -4 -43 -7 -46 -7 -7 38 -51 52 -51 7 0 14 -5
16 -11 2 -5 30 -13 63 -16 33 -3 71 -6 85 -8 14 -1 31 -3 38 -3 7 -1 26 -16
43 -33 25 -25 35 -29 60 -24 17 4 33 14 35 23 3 10 9 24 14 33 5 10 4 21 -2
27 -8 8 -7 19 1 40 16 38 22 120 10 127 -5 4 -9 15 -9 26 0 26 -135 158 -169
165 -14 2 -42 9 -62 14 -44 12 -66 12 -99 -1z m248 -253 c4 -46 -4 -56 -40
-49 -32 6 -35 15 -13 37 8 8 15 24 15 36 0 15 5 20 18 18 12 -2 18 -15 20 -42z"/>
<path d="M3765 3430 c-16 -11 -25 -20 -18 -20 8 0 6 -10 -5 -32 -9 -18 -18
-42 -19 -53 -2 -11 -5 -31 -9 -45 -5 -24 -6 -24 -21 8 -9 18 -23 32 -33 32
-25 0 -60 -42 -60 -73 0 -14 -7 -52 -15 -84 -17 -65 -19 -149 -5 -243 9 -66
42 -154 60 -165 6 -4 8 -11 5 -16 -7 -10 53 -49 76 -49 21 0 50 22 52 40 2 8
6 21 10 27 13 20 -11 51 -40 55 -23 2 -33 14 -55 58 -26 51 -27 62 -23 155 2
55 6 109 9 120 2 11 7 39 11 63 9 58 23 53 16 -5 -11 -86 1 -207 20 -219 5 -3
9 -21 9 -40 0 -19 3 -34 8 -34 4 0 15 -14 24 -30 9 -17 24 -30 33 -30 8 0 15
-4 15 -10 0 -29 47 6 55 42 5 20 2 31 -14 45 -44 37 -75 200 -56 291 7 35 33
128 43 153 7 18 7 33 -2 50 -15 31 -34 34 -71 9z"/>
<path d="M3467 3143 c-41 -84 -48 -264 -13 -358 5 -11 15 -38 23 -60 8 -22 20
-47 27 -55 7 -8 19 -30 27 -47 8 -18 20 -33 26 -33 7 0 13 -6 13 -14 0 -16 44
-29 70 -21 17 5 30 32 30 63 0 8 -18 31 -40 53 -22 22 -40 42 -40 45 0 3 -7
12 -15 20 -13 13 -27 53 -43 124 -12 53 -6 148 12 209 l20 64 -23 18 c-33 27
-58 24 -74 -8z"/>
<path d="M5296 3041 c-26 -10 -45 -77 -34 -118 5 -18 12 -33 16 -34 4 0 16 -2
27 -4 11 -2 34 7 52 21 31 23 32 27 27 72 -9 64 -36 84 -88 63z"/>
<path d="M3276 3014 c-4 -9 -9 -49 -12 -89 -5 -61 -2 -78 16 -113 12 -23 26
-57 30 -75 32 -131 71 -237 89 -237 4 0 23 -23 42 -50 39 -58 60 -68 94 -46
33 21 33 66 2 100 -13 14 -26 23 -29 21 -5 -6 -47 40 -65 73 -7 12 -20 56 -28
99 -9 43 -18 85 -21 93 -3 8 -6 17 -6 20 -1 3 -7 19 -15 37 -15 38 -17 83 -3
83 6 0 6 9 -1 26 -5 15 -7 29 -4 32 3 3 -2 14 -12 24 -20 23 -69 24 -77 2z"/>
</g>
</svg>
