<?xml version="1.0" standalone="no"?>
<!DOCTYPE svg PUBLIC "-//W3C//DTD SVG 20010904//EN"
 "http://www.w3.org/TR/2001/REC-SVG-20010904/DTD/svg10.dtd">
<svg version="1.0" xmlns="http://www.w3.org/2000/svg"
 width="537.000000pt" height="421.000000pt" viewBox="0 0 537.000000 421.000000"
 preserveAspectRatio="xMidYMid meet">
<metadata>
Created by potrace 1.16, written by Peter Selinger 2001-2019
</metadata>
<g transform="translate(0.000000,421.000000) scale(0.100000,-0.100000)"
fill="#000000" stroke="none">
<path d="M3183 3602 c-57 -3 -118 -37 -190 -106 -21 -20 -44 -36 -52 -36 -7 0
-29 -9 -48 -21 -44 -28 -150 -36 -352 -30 -86 3 -190 5 -231 4 -171 -5 -485
-1 -885 10 -49 1 -115 -2 -146 -6 l-57 -8 -53 47 c-84 75 -125 87 -296 86 -44
0 -83 -16 -83 -33 0 -6 -15 -25 -33 -43 -32 -32 -88 -94 -137 -152 -14 -16
-30 -41 -37 -56 -7 -17 -34 -37 -74 -58 -84 -42 -199 -118 -199 -131 0 -6 -24
-36 -54 -67 -39 -41 -69 -88 -108 -168 -79 -166 -87 -185 -98 -240 -5 -27 -13
-62 -18 -79 -4 -16 -9 -88 -10 -160 -1 -71 -5 -151 -8 -177 -7 -53 17 -160 72
-320 19 -57 46 -141 60 -188 23 -76 75 -179 108 -213 6 -6 30 -37 53 -68 74
-100 244 -238 386 -313 88 -46 171 -98 220 -139 23 -19 76 -57 118 -85 42 -28
79 -59 83 -68 3 -9 13 -14 20 -11 8 3 25 -3 38 -15 13 -11 41 -29 63 -40 95
-49 243 -172 304 -253 56 -76 83 -135 87 -190 2 -27 4 -50 4 -50 1 0 4 -20 6
-45 6 -53 42 -90 83 -85 14 1 35 3 46 4 11 1 45 25 75 54 50 47 66 73 121 192
15 32 13 145 -4 206 -35 130 -106 228 -203 285 -83 48 -125 77 -205 142 -16
13 -50 35 -76 48 -26 14 -64 38 -83 53 -34 27 -181 101 -230 116 -14 4 -41 20
-60 35 -19 15 -60 43 -90 62 -57 37 -150 129 -150 149 0 7 -19 33 -42 60 -145
162 -216 291 -240 438 -13 80 -9 187 9 231 3 8 8 24 10 34 5 25 42 86 53 86 5
0 15 6 22 13 14 13 55 37 62 37 5 0 1 -41 -15 -170 -13 -112 -5 -166 43 -264
34 -68 64 -106 86 -106 8 0 26 -6 40 -14 15 -7 52 -21 82 -30 114 -32 305
-141 338 -192 26 -39 63 -45 85 -14 13 19 14 19 32 -3 10 -12 26 -42 36 -67
19 -51 56 -68 66 -31 3 11 9 18 14 15 5 -3 9 6 9 21 0 23 2 24 20 15 11 -6 20
-7 20 -2 0 6 9 12 20 15 12 3 20 14 20 26 0 32 -91 149 -115 150 -26 1 -45
-17 -45 -41 0 -12 -8 -18 -24 -18 -18 0 -27 -8 -34 -27 l-9 -28 -15 35 c-9 20
-33 48 -59 65 -24 17 -49 35 -55 40 -28 26 -207 104 -286 124 -38 10 -73 24
-78 30 -4 7 -11 12 -16 12 -24 -2 -42 14 -73 67 -31 52 -34 64 -33 137 0 44 3
96 7 115 35 177 42 286 22 331 -79 175 -86 186 -116 179 -13 -3 -25 -14 -27
-24 -3 -18 28 -88 52 -116 7 -8 17 -40 22 -70 12 -64 8 -69 -93 -121 -36 -18
-70 -45 -84 -64 -43 -64 -85 -247 -76 -335 8 -75 46 -232 60 -250 7 -8 22 -37
35 -63 12 -26 43 -74 68 -105 59 -72 53 -65 113 -142 70 -90 115 -135 182
-182 31 -23 57 -45 57 -49 0 -5 5 -9 11 -9 6 0 25 -11 42 -23 18 -13 59 -35
92 -48 33 -13 74 -32 90 -42 17 -10 62 -37 100 -59 39 -23 111 -71 160 -108
50 -36 106 -76 126 -88 20 -12 54 -38 75 -58 22 -20 51 -42 65 -49 14 -8 37
-31 51 -52 50 -73 89 -274 57 -294 -6 -3 -10 -9 -10 -13 3 -23 -2 -38 -30 -79
-28 -43 -82 -87 -107 -87 -5 0 -13 37 -17 82 -5 62 -14 99 -37 145 -17 35 -34
63 -39 63 -5 0 -9 6 -9 14 0 23 -196 209 -257 243 -31 17 -75 48 -99 67 -24
20 -47 36 -53 36 -5 0 -12 8 -15 18 -6 16 -26 31 -101 72 -81 44 -112 65 -149
96 -22 19 -45 34 -52 34 -7 0 -14 3 -16 8 -5 12 -100 72 -115 72 -13 0 -93 46
-103 60 -3 4 -30 22 -60 42 -30 19 -68 46 -84 59 -84 71 -106 92 -106 103 0 6
-8 16 -18 22 -9 6 -31 31 -47 55 -16 24 -37 51 -45 59 -16 16 -52 76 -75 125
-7 17 -29 82 -48 145 -20 63 -45 142 -57 175 -11 33 -25 73 -30 89 -5 16 -8
123 -5 238 3 177 7 217 25 270 11 35 25 79 31 98 20 63 102 224 129 255 99
111 128 137 181 169 33 20 63 36 66 36 4 0 14 6 22 13 9 7 54 30 101 51 47 21
92 41 100 46 9 4 36 11 60 15 25 4 64 13 87 21 23 7 103 22 178 33 74 11 139
22 143 25 34 21 281 27 305 8 9 -8 21 -11 27 -7 7 4 132 6 278 5 147 -2 292
-1 322 0 115 6 241 4 425 -3 163 -8 200 -6 260 8 39 9 84 19 100 22 37 6 65
21 65 33 0 13 68 82 101 104 28 18 142 32 181 23 27 -7 100 -77 133 -127 27
-41 67 -84 112 -122 28 -22 38 -25 65 -18 18 5 59 11 91 15 48 5 57 4 57 -9 0
-9 5 -16 11 -16 5 0 8 -4 4 -9 -3 -5 3 -16 12 -23 10 -7 23 -22 29 -33 10 -17
23 -20 100 -22 49 -1 162 -9 252 -19 90 -9 166 -14 168 -11 6 6 124 -21 138
-32 6 -4 52 -20 101 -35 163 -50 179 -56 235 -84 50 -25 57 -32 74 -81 14 -43
16 -59 7 -73 -6 -10 -9 -32 -6 -48 4 -23 2 -30 -10 -30 -9 0 -13 -4 -10 -10 3
-5 0 -10 -8 -10 -8 0 -17 -6 -20 -14 -3 -7 -45 -26 -94 -41 -75 -24 -105 -28
-198 -28 -70 0 -137 7 -185 18 -125 30 -282 76 -304 90 -35 22 -203 55 -280
55 -41 0 -113 7 -162 15 -49 9 -97 15 -109 14 -11 -1 -22 0 -25 1 -32 11 -62
5 -90 -19 -43 -36 -36 -68 18 -76 20 -3 43 -9 51 -13 14 -8 34 -55 45 -104 11
-47 50 -34 95 30 12 17 25 32 29 32 4 0 20 -28 36 -61 16 -34 36 -63 43 -66
21 -8 57 15 77 48 25 43 42 37 50 -19 5 -38 12 -52 31 -62 34 -18 61 -2 99 57
l29 45 29 -54 c16 -29 39 -64 52 -77 l24 -23 53 41 c43 32 56 38 64 27 6 -8
24 -34 42 -60 49 -69 100 -72 169 -7 17 16 44 36 62 45 30 15 31 15 38 -7 24
-81 62 -135 86 -123 51 26 99 73 126 121 10 18 12 18 18 -13 4 -18 19 -46 35
-63 24 -26 26 -31 11 -36 -9 -3 -30 -11 -47 -18 -40 -16 -108 -20 -295 -18
-165 3 -289 9 -330 18 -14 3 -65 9 -115 14 -49 6 -144 21 -210 34 -66 14 -154
28 -195 31 -41 3 -113 10 -160 15 -47 5 -100 7 -117 5 -18 -2 -35 1 -38 6 -4
6 -11 8 -16 4 -5 -3 -30 4 -55 16 -43 21 -46 21 -58 5 -8 -12 -19 -16 -30 -12
-10 4 -24 1 -32 -8 -32 -31 -85 -14 -146 48 -49 49 -71 60 -87 44 -13 -13 -14
-66 -2 -86 6 -9 -1 -28 -24 -60 -36 -52 -48 -106 -47 -219 0 -61 4 -76 21 -91
12 -10 21 -23 21 -30 0 -6 4 -11 9 -11 5 0 16 -6 23 -13 7 -7 44 -28 81 -45
38 -18 86 -44 108 -57 21 -14 44 -25 50 -25 17 0 150 -92 157 -108 3 -8 15
-24 28 -37 13 -13 26 -35 30 -49 3 -14 10 -26 14 -26 12 0 20 -42 11 -58 -9
-16 8 -82 21 -82 4 0 17 9 27 19 11 11 22 17 25 13 3 -3 6 19 5 49 0 60 -21
119 -59 170 -31 43 -126 139 -137 139 -8 0 -74 33 -222 110 -124 65 -154 117
-127 219 8 30 12 60 10 66 -3 6 7 23 21 37 25 25 27 25 56 11 22 -11 45 -13
80 -9 37 5 51 3 55 -7 6 -16 75 -16 96 0 7 5 24 7 38 3 14 -3 41 -3 59 1 19 4
37 6 40 4 4 -1 80 -8 171 -14 91 -7 189 -17 218 -22 29 -6 66 -12 82 -14 16
-2 38 -8 47 -14 10 -5 54 -12 98 -16 44 -3 100 -10 125 -15 51 -10 226 -22
380 -25 58 -2 110 -4 115 -5 6 -1 12 -2 15 0 10 3 46 8 115 14 135 13 248 87
282 185 19 53 16 67 -16 100 -18 18 -26 33 -19 37 5 4 7 20 4 37 -5 23 -1 36
16 54 26 28 29 41 29 112 0 39 -8 70 -28 110 -32 63 -82 120 -101 114 -7 -3
-61 13 -120 35 -143 53 -168 61 -232 78 -30 8 -72 21 -93 30 -22 8 -69 16
-105 19 -37 2 -76 6 -88 9 -11 2 -67 7 -125 11 -178 11 -203 17 -196 46 3 11
1 19 -5 19 -5 0 -17 7 -25 16 -12 12 -18 13 -24 3 -5 -9 -15 -4 -33 18 l-25
30 -86 -15 c-81 -15 -88 -14 -118 3 -35 19 -77 62 -77 78 0 20 -87 112 -137
144 -40 25 -62 33 -90 31 -21 -2 -62 -4 -90 -6z m-2133 -172 c57 -29 56 -37
-2 -48 -193 -37 -275 -56 -328 -79 l-35 -15 35 37 c19 20 51 54 71 74 19 21
43 42 53 48 29 16 162 5 206 -17z m2525 -669 c6 -1 -1 -10 -15 -21 -18 -13
-27 -15 -32 -7 -19 30 -8 36 47 28z m227 -24 c5 -1 -14 -18 -41 -39 l-50 -36
-15 39 c-9 22 -16 41 -16 43 0 2 106 -3 122 -7z m150 -26 c8 -1 -53 -71 -62
-71 -4 0 -6 10 -4 23 1 12 3 30 3 40 1 14 7 17 29 13 15 -2 30 -5 34 -5z m138
-51 c10 -5 32 -11 49 -12 17 -1 31 -5 31 -8 0 -7 -71 -63 -74 -58 -9 9 -36 68
-36 78 0 13 6 13 30 0z m750 -54 c0 -38 -12 -86 -21 -86 -10 0 -12 93 -2 103
13 14 23 6 23 -17z m-492 -10 c85 -11 88 -14 45 -52 -50 -44 -76 -43 -108 3
-30 45 -34 78 -7 65 9 -5 41 -12 70 -16z m325 -45 c-17 -27 -53 -60 -65 -61
-7 0 -30 71 -25 76 8 8 75 20 89 16 16 -4 16 -6 1 -31z m-3129 -1017 c3 -8 2
-12 -4 -9 -6 3 -10 10 -10 16 0 14 7 11 14 -7z"/>
<path d="M3508 3216 c-20 -7 -55 -13 -78 -12 -37 1 -42 -2 -52 -31 -8 -21 -19
-33 -30 -33 -24 0 -51 -44 -43 -70 9 -27 60 -28 75 0 13 25 30 26 37 1 8 -33
47 -46 92 -31 22 7 46 10 53 7 8 -2 22 1 32 9 17 12 21 10 36 -19 20 -37 50
-46 74 -22 21 22 20 60 -3 82 -10 10 -26 35 -36 56 -12 25 -31 45 -56 57 -44
23 -52 24 -101 6z m23 -92 c-19 -8 -37 -12 -40 -9 -9 10 22 25 49 24 23 0 22
-1 -9 -15z"/>
<path d="M1263 2941 c-23 -22 -23 -44 2 -91 26 -49 30 -150 11 -240 -9 -41
-23 -109 -32 -150 -16 -73 -46 -140 -65 -140 -5 0 -24 -17 -43 -37 -27 -29
-32 -42 -26 -59 6 -14 4 -26 -4 -35 -20 -21 -36 -77 -36 -126 0 -44 2 -48 70
-108 8 -7 35 -18 60 -25 92 -25 256 -82 280 -98 14 -9 42 -25 64 -36 32 -16
36 -21 24 -30 -40 -29 -30 -55 73 -190 l22 -28 13 23 c7 13 13 20 14 14 0 -5
11 2 24 18 13 15 28 27 34 27 21 0 23 34 2 62 -11 15 -20 32 -20 38 0 27 -128
137 -200 172 -85 41 -158 68 -182 68 -10 0 -32 6 -50 14 -18 8 -45 17 -61 21
-15 3 -36 14 -47 25 -11 11 -24 20 -29 20 -15 0 -21 29 -12 53 5 12 20 33 35
46 14 13 23 27 21 31 -3 5 2 11 11 14 8 3 12 10 9 16 -8 13 72 47 155 66 36 8
90 25 120 36 49 20 78 22 280 24 124 2 281 6 350 9 69 3 148 2 176 -1 l51 -6
6 -58 c8 -68 45 -176 78 -225 17 -24 54 -50 123 -87 108 -57 216 -126 216
-138 0 -5 16 -17 35 -29 19 -11 35 -24 35 -29 0 -5 16 -27 35 -48 32 -34 39
-53 48 -123 7 -47 62 -67 85 -30 12 19 12 38 -4 121 -1 9 -13 31 -26 49 -79
108 -213 212 -380 295 -81 41 -128 81 -128 110 0 7 -4 14 -10 16 -5 2 -15 41
-23 88 -11 72 -11 93 0 139 8 29 21 63 29 76 9 15 11 24 4 27 -6 2 -2 18 10
41 12 21 22 55 23 75 2 35 0 37 -31 40 -46 5 -66 -18 -58 -69 5 -30 3 -41 -8
-45 -8 -3 -13 -13 -11 -22 5 -28 -13 -62 -37 -71 -45 -17 -158 -23 -453 -26
-165 -2 -307 -5 -315 -8 -76 -23 -184 -51 -225 -59 -27 -5 -58 -14 -67 -19
-22 -12 -22 -7 1 72 28 95 55 255 56 324 0 73 -32 189 -61 216 -20 19 -21 19
-41 0z"/>
<path d="M4632 2918 c-12 -13 -31 -32 -42 -42 -37 -36 -5 -113 50 -123 77 -14
130 6 144 55 8 28 6 36 -13 55 l-21 22 -30 -32 c-29 -30 -52 -38 -58 -18 -2 6
10 14 27 19 27 8 31 14 31 43 0 20 -4 32 -10 28 -5 -3 -10 -1 -10 4 0 20 -46
11 -68 -11z"/>
<path d="M3223 1718 c-18 -23 -21 -54 -8 -78 10 -19 10 -30 -2 -58 -10 -25
-11 -38 -4 -45 6 -6 11 -19 11 -29 0 -19 23 -15 51 9 26 22 26 162 1 191 -22
25 -35 28 -49 10z"/>
<path d="M3085 1690 c-12 -13 -15 -26 -9 -42 4 -13 8 -52 8 -88 1 -58 3 -65
22 -68 34 -5 52 27 54 93 2 89 2 89 -29 108 -27 16 -29 16 -46 -3z"/>
</g>
</svg>
