<?xml version="1.0" standalone="no"?>
<!DOCTYPE svg PUBLIC "-//W3C//DTD SVG 20010904//EN"
 "http://www.w3.org/TR/2001/REC-SVG-20010904/DTD/svg10.dtd">
<svg version="1.0" xmlns="http://www.w3.org/2000/svg"
 width="475.000000pt" height="475.000000pt" viewBox="0 0 475.000000 475.000000"
 preserveAspectRatio="xMidYMid meet">
<metadata>
Created by potrace 1.16, written by Peter Selinger 2001-2019
</metadata>
<g transform="translate(0.000000,475.000000) scale(0.100000,-0.100000)"
fill="#000000" stroke="none">
<path d="M1320 4699 c-43 -11 -326 -57 -360 -59 -46 -3 -49 -3 -47 -13 1 -6
-14 -14 -33 -19 -19 -4 -42 -10 -50 -12 -42 -11 -220 -98 -220 -108 0 -5 -5
-8 -10 -8 -17 0 -121 -110 -171 -180 -26 -36 -54 -88 -64 -115 -9 -28 -22 -57
-28 -65 -27 -34 -39 -65 -44 -116 -5 -45 -2 -59 21 -98 28 -48 40 -53 138 -62
159 -14 168 -16 168 -30 0 -9 4 -13 9 -9 5 3 20 1 33 -4 54 -22 65 -25 103
-28 22 -1 68 -3 102 -3 l63 -1 -6 -37 c-9 -70 -16 -97 -28 -111 -7 -9 -11 -66
-11 -160 l0 -145 -33 -2 c-117 -6 -189 -107 -142 -199 11 -21 20 -46 20 -55 0
-17 -51 -40 -88 -40 -12 0 -22 -5 -22 -12 0 -6 -7 -19 -16 -29 -33 -37 -45
-159 -20 -208 31 -61 30 -69 -12 -80 -69 -19 -122 -85 -122 -153 0 -18 12 -67
27 -110 l28 -77 -31 -33 c-50 -54 -89 -111 -102 -148 -10 -32 -12 -52 -11
-118 0 -35 25 -85 52 -109 16 -13 24 -28 21 -40 -3 -10 -45 -58 -95 -108 -94
-95 -107 -119 -96 -193 10 -70 11 -74 66 -125 72 -67 84 -77 100 -78 9 0 30
-3 46 -6 31 -5 174 14 212 28 20 7 24 4 32 -29 5 -20 13 -54 17 -76 10 -58 49
-119 88 -140 20 -10 33 -23 30 -27 -3 -5 2 -6 10 -3 9 3 16 1 16 -5 0 -6 3
-10 8 -10 25 4 31 -3 26 -29 -3 -16 -1 -53 5 -83 8 -46 18 -64 58 -106 26 -27
70 -60 96 -73 67 -33 78 -58 103 -230 6 -43 6 -31 -1 -175 -3 -70 -1 -143 6
-175 6 -30 12 -64 14 -75 7 -36 68 -59 168 -62 51 -2 99 -3 107 -3 51 2 115
-2 124 -8 12 -7 10 -7 81 -16 60 -8 75 -11 99 -21 11 -5 21 -3 26 4 5 8 19 10
44 6 20 -4 36 -3 36 1 0 5 16 25 35 45 19 20 31 39 28 43 -4 3 -1 6 6 6 9 0
11 7 7 23 -4 12 -8 29 -9 37 -1 8 -7 22 -12 31 -14 22 -96 75 -130 83 -16 4
-40 16 -53 27 -14 10 -33 19 -43 19 -11 0 -18 3 -18 8 2 9 3 2 -25 87 -17 50
-21 72 -13 77 10 6 65 16 182 33 22 3 92 8 155 10 113 4 280 34 306 56 7 6 18
9 26 8 7 -1 33 3 57 10 23 7 49 10 56 7 7 -2 23 1 36 8 27 13 105 33 164 41
23 3 52 7 65 10 13 2 30 -1 37 -7 17 -14 43 -74 43 -99 0 -20 15 -52 38 -81 8
-9 11 -22 7 -27 -3 -6 -1 -11 5 -11 7 0 10 -6 7 -14 -3 -8 -3 -16 1 -18 10 -5
51 -99 55 -128 2 -14 9 -38 15 -53 7 -15 14 -38 18 -51 11 -46 49 -76 110 -87
33 -6 67 -16 78 -21 13 -7 21 -6 26 2 6 10 31 10 106 3 55 -5 112 -6 128 -1
17 4 32 4 36 -1 7 -13 73 12 98 37 28 28 28 74 0 114 -49 66 -85 102 -144 139
-59 38 -83 69 -91 118 -2 14 -13 37 -24 52 -10 15 -19 33 -19 41 0 7 -9 24
-20 38 -34 44 -27 60 28 61 59 1 88 5 184 29 128 32 224 83 297 161 l36 38 74
-3 c41 -3 77 -9 80 -14 3 -5 31 -10 61 -10 70 -1 273 24 297 37 10 5 52 25 94
45 83 40 108 60 135 106 10 16 23 30 29 30 8 0 48 72 50 90 2 13 40 107 52
126 23 36 22 84 -2 110 -12 13 -27 24 -34 24 -15 0 -49 20 -73 42 -10 10 -27
18 -38 18 -11 0 -20 3 -20 8 0 4 -17 18 -37 32 -53 36 -189 178 -210 219 -17
33 -114 141 -127 141 -3 0 -45 29 -94 65 -96 70 -182 115 -222 115 -14 0 -43
5 -65 11 -22 6 -51 12 -64 14 -32 3 -98 -27 -140 -64 -21 -19 -45 -31 -63 -31
-17 0 -28 -5 -28 -14 0 -17 -26 -29 -60 -28 -100 3 -188 34 -290 102 -30 20
-73 43 -95 50 -22 7 -62 23 -90 35 -135 61 -196 74 -372 81 -423 17 -411 17
-471 -2 -31 -9 -61 -21 -67 -25 -5 -3 -30 -10 -55 -13 -43 -7 -151 -53 -158
-68 -2 -5 -11 -8 -21 -8 -9 0 -22 -5 -29 -12 -37 -37 19 57 67 111 12 13 21
29 21 35 0 6 12 21 27 33 14 13 23 23 19 23 -4 0 1 12 12 28 23 32 105 200
108 222 2 8 12 42 24 75 43 121 49 345 12 443 -20 51 -50 92 -68 92 -6 0 -10
10 -10 21 1 12 -5 23 -12 25 -7 1 -8 0 -2 -3 5 -2 10 -9 10 -14 0 -20 -18 -7
-54 41 -33 43 -120 109 -151 114 -39 6 -33 21 41 94 42 43 90 96 107 120 17
23 34 42 38 42 10 0 102 191 130 270 19 53 23 84 22 166 -2 153 -36 230 -153
341 -19 18 -40 33 -46 33 -6 0 -38 21 -71 48 -130 103 -325 167 -433 141z
m160 -131 c71 -22 162 -62 173 -77 7 -9 28 -27 48 -41 32 -21 36 -27 28 -48
-5 -13 -7 -28 -4 -33 20 -32 -5 -226 -42 -319 -8 -19 -8 -21 -26 -105 -8 -38
-28 -99 -45 -135 -16 -36 -37 -87 -47 -113 -10 -27 -31 -62 -46 -78 -16 -17
-45 -53 -64 -80 -20 -27 -41 -49 -45 -49 -5 0 -12 -9 -15 -20 -4 -11 -15 -20
-26 -20 -11 0 -18 -4 -14 -9 3 -5 -8 -18 -25 -27 -16 -10 -30 -22 -30 -26 0
-4 -11 -8 -25 -8 -14 0 -25 -5 -25 -11 0 -5 -4 -7 -10 -4 -5 3 -10 2 -10 -4 0
-6 -11 -13 -25 -17 -14 -3 -25 -10 -25 -14 0 -10 -158 -90 -177 -90 -11 0 -13
8 -8 33 4 17 7 34 8 37 0 3 -3 30 -6 60 -14 110 -15 135 -3 149 8 11 8 13 -1
8 -14 -9 -7 54 11 93 6 14 13 43 15 65 1 22 7 45 11 50 13 16 2 104 -17 130
-21 27 -63 42 -73 25 -11 -18 -166 -4 -230 21 -62 23 -131 40 -142 33 -7 -5
-20 -2 -125 26 -41 10 -42 12 -37 43 3 18 15 44 25 59 10 15 19 34 19 42 0 16
40 92 74 141 61 86 180 174 271 201 33 9 74 22 90 29 33 14 61 23 97 31 321
75 394 83 498 52z m-556 -1370 c-3 -4 -12 -8 -20 -8 -8 0 -29 -7 -45 -16 -17
-8 -38 -13 -47 -9 -25 9 1 28 50 35 59 8 68 8 62 -2z m76 -93 c-7 -9 -15 -13
-19 -10 -3 3 1 10 9 15 21 14 24 12 10 -5z m2730 -1051 c42 -7 116 -44 181
-90 27 -19 53 -34 58 -34 9 0 66 -62 91 -99 8 -13 25 -37 38 -54 12 -17 19
-34 14 -39 -4 -4 -54 -10 -112 -13 -58 -3 -139 -15 -180 -26 -70 -19 -99 -35
-242 -136 -26 -18 -52 -33 -58 -33 -5 0 -10 -4 -10 -10 0 -5 -7 -10 -15 -10
-8 0 -15 -4 -15 -8 0 -5 -6 -9 -13 -9 -7 0 -38 -11 -68 -25 -29 -14 -72 -31
-94 -38 -22 -7 -44 -16 -50 -20 -35 -27 -540 -53 -940 -49 -437 5 -499 4 -615
-17 -19 -4 -39 -10 -45 -14 -5 -4 -34 -13 -63 -19 -60 -13 -119 -43 -196 -101
-29 -22 -58 -40 -63 -40 -6 0 -13 -7 -17 -15 -3 -8 -12 -15 -21 -15 -8 0 -15
-4 -15 -9 0 -5 -12 -14 -28 -19 -29 -11 -78 -55 -127 -115 -34 -41 -50 -45
-83 -17 -31 26 -47 73 -32 99 6 12 8 21 4 21 -3 0 -1 6 5 14 18 22 22 58 10
89 -9 22 -18 27 -45 27 -19 0 -42 4 -52 9 -9 5 -31 15 -48 21 -46 17 -61 52
-71 165 -3 33 -11 67 -19 75 -11 13 -10 18 6 28 11 7 36 15 57 18 20 3 47 10
60 15 14 5 33 9 44 9 11 0 40 9 63 20 24 11 66 25 92 31 27 6 76 20 109 31 33
11 75 23 93 25 17 3 32 9 32 14 0 5 18 9 41 9 38 0 181 42 204 60 13 10 155
53 160 49 2 -2 -5 -22 -16 -44 -25 -50 -18 -92 17 -101 17 -4 49 6 106 34 80
39 158 66 158 55 0 -3 6 0 13 6 8 6 47 12 88 13 96 2 539 -11 548 -16 10 -6
276 20 290 29 7 3 26 8 44 10 41 5 227 69 235 81 22 32 122 40 122 10 0 -8 3
-7 8 1 4 7 25 13 47 14 22 1 46 7 53 12 8 6 12 6 12 -2 0 -6 5 -11 11 -11 5 0
7 5 4 10 -3 6 1 10 10 10 25 0 99 76 91 95 -3 9 -10 14 -15 10 -6 -3 -8 -12
-4 -20 3 -8 0 -15 -7 -15 -13 0 -11 48 4 69 10 13 66 12 156 -5z m142 -605 c2
-7 12 -7 30 0 33 13 65 4 71 -19 7 -25 0 -30 -43 -30 -23 0 -43 7 -52 18 -23
26 -30 42 -19 42 5 0 11 -5 13 -11z m-1545 -625 c-3 -3 -12 -4 -19 -1 -8 3 -5
6 6 6 11 1 17 -2 13 -5z"/>
<path d="M3658 1979 c-34 -18 -98 -99 -98 -125 0 -7 -10 -23 -22 -36 -13 -13
-22 -30 -22 -38 1 -8 2 -22 3 -31 1 -22 54 -43 86 -35 16 4 27 15 31 34 12 53
39 112 52 112 7 0 10 5 7 10 -3 6 -1 10 5 10 19 0 50 -20 50 -33 0 -7 12 -23
25 -36 14 -13 25 -31 25 -41 0 -11 4 -22 10 -25 5 -3 7 0 5 8 -3 7 7 23 24 37
38 28 50 80 27 114 -27 42 -68 81 -81 78 -7 -1 -31 1 -52 6 -31 7 -47 5 -75
-9z"/>
<path d="M1947 131 c-4 -17 -3 -21 5 -13 5 5 8 16 6 23 -3 8 -7 3 -11 -10z"/>
</g>
</svg>
