<?xml version="1.0" standalone="no"?>
<!DOCTYPE svg PUBLIC "-//W3C//DTD SVG 20010904//EN"
 "http://www.w3.org/TR/2001/REC-SVG-20010904/DTD/svg10.dtd">
<svg version="1.0" xmlns="http://www.w3.org/2000/svg"
 width="545.000000pt" height="363.000000pt" viewBox="0 0 545.000000 363.000000"
 preserveAspectRatio="xMidYMid meet">
<metadata>
Created by potrace 1.16, written by Peter Selinger 2001-2019
</metadata>
<g transform="translate(0.000000,363.000000) scale(0.100000,-0.100000)"
fill="#000000" stroke="none">
<path d="M4001 3222 c-8 -6 -11 -17 -8 -25 4 -11 -7 -16 -55 -21 -44 -5 -67
-14 -84 -31 -13 -13 -48 -31 -79 -40 -31 -8 -65 -25 -76 -36 -17 -17 -73 -33
-154 -44 -31 -4 -58 -17 -77 -36 -11 -11 -40 -20 -75 -24 -32 -3 -65 -10 -73
-16 -42 -26 -67 -31 -134 -22 -47 7 -72 6 -80 -1 -14 -14 -195 -11 -239 3 -19
7 -44 14 -57 16 -12 2 -25 7 -28 10 -3 2 -11 0 -18 -6 -9 -7 -37 -7 -94 1 -73
10 -84 9 -101 -6 -10 -9 -19 -13 -19 -8 0 5 -8 10 -17 10 -10 1 -34 4 -53 8
-19 4 -60 11 -90 16 -68 11 -94 16 -136 30 -18 6 -57 12 -86 12 -29 0 -98 11
-153 24 -81 19 -120 23 -210 20 -138 -4 -275 -17 -275 -25 0 -4 -20 -13 -45
-20 -25 -7 -50 -22 -56 -33 -10 -19 -11 -19 -24 -2 -11 16 -17 16 -39 6 -15
-7 -37 -12 -50 -12 -60 0 -242 -77 -294 -123 -12 -11 -22 -28 -22 -37 0 -10
-26 -44 -58 -77 -32 -34 -72 -89 -92 -129 -19 -38 -49 -87 -66 -109 -40 -50
-65 -100 -71 -139 -6 -38 -20 -66 -33 -66 -6 0 -10 -5 -10 -10 0 -6 -12 -28
-26 -50 -20 -29 -25 -48 -21 -72 3 -24 -1 -41 -18 -63 -32 -44 -55 -91 -55
-115 0 -26 -57 -136 -108 -207 -13 -18 -21 -37 -18 -42 8 -13 -68 -115 -129
-173 -16 -16 -34 -33 -40 -39 -67 -72 -107 -108 -123 -113 -11 -4 -27 -18 -36
-31 -15 -23 -15 -26 6 -45 24 -22 32 -24 56 -11 9 4 33 11 54 14 30 4 37 2 41
-14 9 -33 54 -23 124 27 48 34 67 43 73 34 13 -21 52 -4 103 45 26 26 47 51
47 56 0 5 7 9 16 9 31 0 115 74 139 121 20 38 31 48 57 53 32 6 51 27 87 99 8
15 18 27 23 27 4 0 8 7 8 15 0 8 3 14 8 14 33 -6 63 25 97 100 14 30 28 51 31
48 11 -11 5 -81 -15 -155 -16 -62 -17 -77 -6 -98 9 -19 10 -35 4 -57 -5 -18
-12 -54 -14 -82 -2 -27 -7 -59 -9 -70 -10 -38 -47 -150 -68 -205 -12 -30 -22
-82 -23 -115 -1 -33 -8 -77 -16 -98 -15 -43 -5 -70 29 -75 27 -4 30 -23 17
-102 -11 -67 -5 -118 16 -131 9 -5 9 -23 -1 -75 -6 -38 -12 -91 -13 -119 -1
-27 -6 -57 -12 -65 -17 -27 -17 -63 2 -102 10 -21 24 -38 31 -38 6 0 12 -5 12
-11 0 -14 66 -40 84 -33 9 4 16 1 16 -6 0 -8 8 -10 23 -6 12 4 29 8 37 10 8 2
27 7 42 11 16 4 28 3 28 -2 0 -6 11 -15 25 -21 21 -10 32 -9 56 4 17 8 49 16
72 16 50 2 77 21 77 57 0 14 4 33 10 41 5 9 5 19 -2 27 -6 8 -8 16 -5 20 4 3
3 11 -2 17 -4 6 -11 39 -14 73 -6 57 -11 67 -52 108 -31 32 -49 61 -59 98 -18
61 -30 214 -17 219 4 2 15 23 23 48 12 36 19 44 39 44 20 0 27 9 41 54 9 30
22 86 28 124 11 63 14 68 29 55 23 -21 37 -12 61 41 46 100 53 109 71 105 11
-3 26 6 41 23 91 110 118 125 118 66 -1 -27 -32 -127 -44 -139 -3 -3 -6 -19
-6 -34 0 -17 -9 -35 -25 -47 -13 -11 -30 -31 -36 -46 -7 -14 -17 -26 -22 -26
-5 0 -7 -16 -4 -38 4 -23 1 -47 -7 -63 -9 -17 -10 -33 -4 -49 5 -13 8 -33 7
-45 -4 -58 1 -73 34 -88 17 -9 30 -19 28 -22 -4 -9 60 -95 71 -95 4 0 8 -7 8
-16 0 -14 13 -32 87 -121 12 -14 26 -46 32 -70 7 -24 18 -46 26 -50 12 -4 14
-14 9 -38 -3 -18 -3 -42 1 -54 9 -30 66 -61 112 -61 23 0 57 -7 76 -15 31 -13
45 -13 100 -1 36 7 78 23 95 35 17 11 34 21 39 21 5 0 20 11 33 25 20 21 23
35 23 97 0 81 -8 118 -26 118 -19 0 -147 94 -200 147 -55 54 -127 147 -127
163 0 5 -4 10 -10 10 -5 0 -10 7 -10 15 0 9 -9 34 -20 55 -11 22 -16 40 -10
40 5 0 22 18 36 40 15 22 33 40 40 40 8 0 14 5 14 10 0 6 6 10 13 10 20 0 84
108 78 134 -4 17 11 45 22 41 7 -3 23 6 37 18 30 28 90 113 90 129 0 6 3 8 6
5 4 -4 19 0 33 7 28 15 120 46 135 46 4 0 6 -10 3 -22 -3 -12 -2 -29 3 -39 9
-16 14 -16 72 -3 34 8 67 19 74 25 10 8 15 4 20 -15 9 -36 69 -55 114 -36 27
11 33 11 41 -1 5 -8 7 -19 5 -25 -5 -13 41 -25 70 -19 10 2 37 6 59 9 22 2 55
7 73 11 22 5 32 4 32 -4 0 -9 13 -10 46 -5 39 5 48 3 66 -15 11 -12 26 -20 34
-17 9 4 14 -2 15 -17 2 -70 28 -161 48 -163 6 -1 17 -2 25 -3 8 0 16 -18 19
-43 6 -45 31 -72 59 -65 11 3 16 -1 16 -12 0 -9 4 -36 10 -60 6 -25 9 -48 7
-51 -2 -4 9 -14 25 -23 18 -11 31 -14 35 -7 12 19 25 -1 25 -36 0 -34 15 -55
74 -102 9 -7 16 -24 16 -37 0 -24 31 -65 49 -65 4 0 6 -17 4 -38 -2 -22 2 -52
8 -68 21 -50 26 -176 9 -231 -7 -23 -10 -53 -7 -65 6 -24 65 -62 95 -61 9 0
22 -3 27 -7 12 -9 117 -24 160 -24 84 2 125 16 171 60 25 25 49 42 55 39 5 -4
9 -2 9 2 0 5 6 17 13 26 10 14 18 15 44 8 24 -7 33 -6 37 5 3 8 19 14 39 14
18 0 42 7 53 15 10 8 29 15 42 15 12 0 22 5 22 11 0 6 11 24 25 41 32 38 32
50 -6 90 -37 40 -75 104 -84 140 -4 16 -16 30 -28 33 -22 6 -59 21 -86 34 -8
4 -16 18 -18 32 -3 13 -6 31 -8 39 -2 8 -4 24 -4 36 -1 13 -13 25 -33 35 -30
13 -33 19 -36 61 -2 36 -8 48 -22 53 -18 6 -19 13 -15 76 4 55 2 71 -9 75 -25
10 -26 32 -5 100 23 76 20 101 -11 84 -15 -8 -20 -8 -20 2 0 18 43 122 53 126
11 6 8 80 -4 84 -6 2 2 16 17 31 24 25 29 26 44 12 24 -22 31 -20 77 26 39 37
44 40 58 25 9 -9 26 -16 38 -16 38 0 67 -12 67 -27 0 -11 4 -11 22 -2 27 15
112 6 158 -17 33 -16 65 -43 167 -141 24 -24 48 -43 53 -43 6 0 10 -4 10 -8 0
-10 82 -52 102 -52 8 0 20 -6 26 -12 7 -7 47 -15 90 -19 66 -5 80 -4 101 12
13 11 32 19 42 19 10 0 20 4 24 10 3 5 11 7 18 4 7 -2 24 4 37 16 13 11 29 20
37 20 8 0 29 11 47 25 29 22 41 46 50 100 1 6 6 31 10 56 9 52 -1 82 -39 114
-13 11 -25 32 -27 46 -2 15 -8 33 -14 40 -19 24 -84 164 -84 180 0 8 -5 20
-10 25 -15 15 -24 102 -12 117 5 6 19 43 31 80 20 67 20 107 -1 134 -5 7 -7
17 -3 22 3 6 -2 22 -11 36 -9 14 -14 32 -10 40 3 8 2 15 -2 15 -4 0 -8 15 -8
33 -2 49 -17 93 -39 119 -22 26 -45 84 -45 115 0 11 13 38 29 61 30 41 81 172
81 209 0 25 29 85 47 96 7 4 13 19 13 32 0 19 -5 25 -23 25 -13 0 -28 5 -34
11 -9 9 -23 6 -57 -10 -25 -11 -50 -21 -55 -21 -5 0 -51 -23 -103 -51 -51 -27
-101 -53 -110 -56 -10 -3 -18 -9 -18 -14 0 -5 -9 -9 -20 -9 -29 0 -38 -46 -13
-71 19 -20 20 -20 44 3 14 13 47 34 74 48 28 14 52 28 53 33 2 4 9 7 15 7 7 0
23 9 37 20 48 37 45 14 -5 -48 -56 -70 -68 -82 -79 -82 -6 0 -19 -15 -29 -33
-34 -63 11 -93 54 -36 13 17 38 47 54 65 17 19 40 47 53 64 13 16 28 30 33 30
11 0 2 -43 -17 -79 -8 -14 -14 -33 -14 -41 0 -8 -22 -48 -49 -88 -53 -79 -54
-89 -17 -160 9 -17 16 -36 16 -42 0 -5 14 -29 30 -52 22 -30 30 -52 29 -82 0
-23 4 -56 9 -73 10 -32 10 -33 -17 -33 -22 0 -32 -8 -49 -41 -28 -53 -28 -74
4 -106 18 -18 29 -22 36 -15 17 17 37 82 31 98 -6 17 13 19 23 2 13 -20 5 -76
-16 -114 -26 -45 -28 -168 -4 -195 9 -10 17 -31 18 -46 1 -15 14 -47 29 -71
16 -24 43 -77 62 -118 19 -41 38 -74 43 -74 15 0 29 -44 22 -70 l-7 -25 -4 24
c-5 33 -52 46 -85 24 -19 -12 -27 -13 -38 -3 -11 8 -20 9 -35 0 -26 -13 -26
-26 -1 -92 11 -29 20 -56 20 -59 0 -3 -18 -6 -40 -6 -22 0 -40 3 -40 8 0 5 -4
8 -9 7 -16 -5 -116 73 -134 103 -9 16 -23 29 -31 29 -9 0 -22 14 -31 30 -9 17
-20 30 -25 30 -6 0 -10 7 -10 16 0 17 -23 44 -39 44 -5 0 -18 13 -27 29 -9 16
-23 27 -30 24 -6 -2 -20 4 -30 15 -25 25 -96 70 -120 74 -19 3 -46 -36 -38
-57 3 -7 25 -21 50 -31 24 -10 44 -21 44 -25 0 -4 17 -18 37 -31 42 -25 130
-114 138 -138 3 -8 21 -25 40 -38 19 -12 35 -27 35 -33 0 -13 46 -59 59 -59 5
0 14 -7 21 -15 16 -20 6 -19 -33 2 -18 9 -38 18 -46 19 -44 8 -63 18 -103 56
-164 156 -173 163 -238 186 -36 12 -76 22 -90 22 -14 0 -33 0 -42 0 -42 1 -58
5 -58 16 0 12 -50 24 -100 25 -14 1 -34 -10 -47 -25 -26 -31 -33 -32 -33 -7 0
26 -31 36 -44 14 -5 -9 -23 -30 -40 -45 l-30 -28 -13 24 c-19 36 -40 39 -51 8
-6 -15 -26 -44 -46 -65 -30 -31 -36 -34 -36 -17 0 11 -9 25 -20 32 -11 7 -20
18 -20 25 0 19 -4 17 -64 -23 -35 -23 -53 -41 -49 -50 7 -19 -20 -28 -62 -20
-33 6 -35 9 -35 45 0 46 17 63 90 88 33 12 56 26 58 36 5 25 -26 22 -81 -8
-42 -22 -67 -20 -52 4 11 18 -37 24 -54 7 -13 -14 -15 -34 -12 -119 5 -110 5
-150 0 -268 -3 -44 0 -82 7 -90 5 -8 9 -30 8 -49 -1 -19 3 -41 8 -47 6 -7 8
-20 4 -28 -3 -8 -2 -15 2 -15 4 0 24 -16 44 -35 20 -19 41 -35 47 -35 6 0 11
-7 11 -16 0 -29 72 -178 107 -220 18 -23 33 -44 33 -48 0 -4 7 -14 15 -22 8
-9 15 -25 15 -36 0 -22 39 -98 51 -98 4 0 7 -6 6 -13 -1 -40 6 -60 33 -86 21
-19 33 -44 39 -76 9 -45 7 -50 -19 -77 -37 -36 -50 -35 -52 5 -4 74 -13 97
-39 97 -29 0 -38 -37 -22 -89 14 -49 10 -59 -27 -62 -52 -4 -62 -1 -50 20 24
46 5 141 -29 141 -26 0 -29 -13 -23 -87 5 -70 6 -69 -62 -51 l-44 12 6 45 c3
25 5 53 4 61 -1 8 -3 55 -4 103 -3 60 -8 91 -17 96 -9 6 -14 33 -16 77 -2 38
-3 73 -4 78 -1 4 -12 6 -26 4 -19 -4 -25 -1 -25 12 0 28 -29 90 -43 91 -6 1
-17 1 -24 0 -7 -1 -17 18 -23 41 -26 107 -31 118 -49 118 -11 0 -21 -9 -24
-22 -10 -36 -18 -15 -26 72 -5 45 -13 85 -17 90 -13 13 -29 16 -31 7 -3 -10
-33 -40 -36 -36 -1 2 -1 46 1 97 2 62 7 92 15 92 21 0 137 129 137 152 0 20
-26 2 -85 -58 -48 -50 -69 -65 -84 -61 -25 6 -36 -7 -46 -53 -8 -34 -8 -34
-15 -9 -4 14 -4 48 0 75 9 52 3 103 -11 106 -5 0 -15 1 -21 2 -24 2 -40 35
-33 69 13 66 38 133 58 154 16 19 18 25 7 38 -17 20 -43 19 -64 -3 -19 -22
-41 -102 -51 -187 -3 -32 -9 -63 -12 -68 -3 -5 -23 -7 -44 -4 -22 3 -69 -3
-110 -14 -102 -27 -118 -25 -125 10 -7 35 -34 45 -72 25 -29 -15 -72 -19 -72
-6 0 4 4 13 9 21 11 17 4 38 -14 45 -7 2 -36 -4 -64 -15 -54 -20 -86 -25 -77
-11 9 14 -22 49 -47 54 -13 3 -35 0 -48 -5 -13 -6 -29 -11 -35 -12 -6 -2 -22
-6 -35 -10 -20 -6 -22 -5 -11 6 16 17 15 41 -1 63 -13 18 -16 18 -59 -8 -55
-32 -58 -32 -58 -2 0 33 -21 47 -62 41 -33 -5 -35 -4 -31 17 6 38 -10 51 -63
50 -27 0 -57 -3 -66 -7 -15 -6 -18 -2 -18 23 0 47 8 60 35 54 18 -3 31 3 45
19 10 13 19 28 20 32 0 5 11 33 25 64 30 64 24 106 -15 111 -29 5 -36 -8 -39
-65 -2 -62 -17 -81 -43 -53 -22 23 -44 26 -51 7 -3 -8 -8 -40 -12 -73 -9 -72
-12 -78 -31 -59 -19 19 -28 19 -43 1 -10 -11 -7 -25 10 -65 12 -28 27 -51 34
-51 6 0 19 -8 28 -18 16 -17 15 -19 -18 -32 -19 -8 -35 -18 -35 -24 0 -5 -12
-23 -27 -38 -24 -26 -26 -30 -11 -44 13 -13 17 -13 29 -2 38 36 82 68 94 68 8
0 17 -9 20 -20 5 -15 -4 -30 -35 -59 -36 -33 -40 -42 -29 -54 15 -16 49 -11
49 8 0 18 69 77 81 70 5 -4 9 9 9 28 0 27 5 36 23 41 35 9 37 8 48 -24 9 -25
16 -30 44 -30 39 0 51 -12 30 -30 -8 -7 -15 -17 -15 -22 0 -6 -10 -24 -22 -40
-20 -29 -22 -30 -35 -12 -14 18 -16 17 -43 -15 -26 -30 -47 -97 -41 -128 1 -7
-6 -27 -15 -44 l-16 -32 -17 22 c-16 21 -19 22 -34 6 -9 -9 -17 -26 -17 -37 0
-27 -36 -84 -58 -93 -9 -3 -18 -5 -19 -3 -1 2 -9 -6 -17 -17 -21 -29 -12 -84
24 -144 16 -29 30 -56 30 -61 0 -5 6 -15 14 -22 7 -8 23 -32 34 -54 11 -22 31
-45 44 -52 13 -7 32 -26 43 -43 11 -16 59 -59 107 -95 48 -35 90 -69 93 -74 7
-12 11 -98 5 -102 -3 -2 -24 -13 -47 -25 l-43 -21 0 25 c0 31 -20 103 -33 121
-12 15 -17 15 -41 -3 -16 -12 -18 -19 -8 -37 6 -13 18 -43 26 -68 14 -43 13
-45 -5 -54 -12 -6 -30 -6 -46 0 -22 7 -28 18 -38 67 -6 31 -10 59 -8 61 2 2
-4 9 -12 16 -13 11 -20 9 -40 -10 -30 -28 -31 -35 -5 -67 27 -34 25 -43 -8
-43 -35 0 -52 16 -52 51 0 16 -11 49 -25 75 -14 26 -25 55 -25 65 0 9 -20 36
-45 60 -24 23 -50 59 -56 78 -7 20 -15 38 -18 41 -15 12 -91 113 -91 121 0 5
-7 9 -15 9 -14 0 -18 35 -15 140 0 20 40 93 61 110 3 3 9 20 12 38 4 18 14 40
23 49 10 10 14 26 11 43 -6 25 33 151 54 176 5 6 7 18 4 26 -7 17 68 119 96
132 11 5 18 15 14 24 -3 7 -5 20 -5 28 0 47 -92 -1 -103 -53 -3 -15 -15 -38
-26 -50 -12 -12 -21 -27 -21 -32 0 -6 -12 -8 -29 -5 -34 7 -106 -36 -135 -81
-17 -25 -18 -26 -31 -8 -18 24 -46 8 -59 -33 -5 -16 -16 -47 -25 -68 -14 -37
-16 -38 -21 -15 -4 14 -14 25 -27 27 -18 3 -24 -7 -42 -65 -12 -37 -26 -82
-31 -99 -6 -17 -10 -40 -10 -52 0 -13 -6 -22 -15 -22 -8 0 -15 7 -15 15 0 13
-4 14 -20 5 -12 -7 -20 -21 -20 -38 -1 -15 -6 -51 -13 -81 -11 -46 -15 -51
-26 -37 -19 23 -38 20 -47 -6 -9 -27 -5 -89 6 -103 4 -5 8 -43 8 -84 1 -130
24 -216 71 -261 31 -30 47 -62 57 -115 4 -22 9 -47 11 -55 11 -54 8 -64 -22
-73 -16 -5 -43 -12 -58 -17 -34 -10 -36 -7 -40 80 -4 75 -22 96 -56 66 -22
-20 -28 -60 -11 -71 20 -12 11 -52 -16 -64 -14 -6 -29 -9 -34 -6 -10 6 -1 97
11 109 13 15 11 28 -10 55 l-18 23 -25 -23 c-23 -21 -25 -31 -24 -92 1 -58 -1
-67 -17 -67 -21 0 -67 46 -67 66 0 8 9 30 19 50 12 23 17 45 13 62 -7 34 -7
73 2 136 9 55 3 88 -19 110 -13 12 -13 23 -5 63 6 26 12 74 13 107 1 50 -2 61
-20 73 l-22 15 23 37 c22 35 23 39 9 71 -16 41 -11 71 23 122 16 26 24 52 24
83 0 25 8 60 17 78 11 22 18 63 20 127 4 115 5 120 13 120 3 0 12 28 19 61 13
56 12 62 -3 71 -14 8 -15 19 -10 66 3 31 12 76 21 100 20 59 11 96 -22 89 -29
-5 -28 1 9 115 23 70 20 88 -16 88 -10 0 -21 -7 -24 -15 -4 -8 -11 -15 -16
-15 -15 0 -1 45 43 137 40 82 48 118 28 125 -13 4 16 60 53 102 16 17 28 35
28 39 0 19 -22 47 -38 48 -9 0 1 7 23 15 22 8 51 26 65 39 14 14 31 25 38 25
7 0 12 6 12 14 0 22 27 44 65 55 19 5 54 23 78 40 24 18 61 34 83 38 21 3 44
10 50 15 15 11 284 20 284 9 0 -5 24 -11 53 -14 49 -5 62 -8 120 -23 12 -4 56
-8 97 -9 49 -2 100 -11 146 -28 44 -15 76 -21 81 -16 6 6 25 4 50 -5 50 -17
173 -27 173 -13 0 6 23 7 63 2 34 -4 89 -9 122 -11 33 -3 87 -12 120 -20 37
-10 78 -14 110 -10 27 3 76 2 108 -2 47 -7 62 -6 74 6 8 8 40 17 75 19 67 5
108 17 108 32 0 5 26 12 58 16 65 7 122 23 121 33 -4 22 4 32 24 32 44 0 152
16 165 23 6 5 12 15 12 23 0 19 42 35 103 39 70 6 87 13 87 38 0 21 5 23 58
23 120 1 141 4 159 22 17 17 24 18 98 5 96 -16 94 -15 224 -48 58 -14 109 -29
114 -32 4 -3 -1 -12 -13 -20 -18 -13 -26 -13 -46 -3 -13 8 -24 17 -24 22 0 14
-50 9 -56 -7 -4 -8 -11 -12 -17 -8 -21 13 -92 21 -109 12 -21 -11 -23 -38 -5
-62 13 -18 51 -26 153 -31 33 -2 70 -7 82 -10 12 -4 27 -4 33 0 11 6 159 14
170 8 12 -7 -4 -61 -21 -72 -15 -9 -28 -8 -65 8 -25 11 -45 24 -45 30 0 18
-44 7 -48 -12 -6 -30 30 -66 73 -74 22 -3 48 -10 57 -15 10 -6 19 -5 23 1 4 6
23 7 46 4 35 -6 39 -4 39 14 0 12 5 33 12 48 11 23 10 28 -11 45 -13 11 -18
19 -12 19 17 0 13 29 -10 69 -21 37 -46 52 -117 66 -18 4 -45 13 -60 20 -15 8
-49 20 -77 26 -27 7 -57 19 -66 26 -8 7 -29 13 -45 13 -16 0 -45 4 -64 9 -75
20 -368 37 -389 23z m-2711 -328 c0 -8 -43 -45 -70 -60 -45 -24 -50 -32 -50
-74 0 -20 -6 -44 -14 -55 -7 -11 -14 -22 -14 -25 -1 -3 -16 -39 -34 -80 -19
-41 -39 -93 -45 -115 -26 -95 -53 -222 -53 -250 0 -33 26 -79 40 -70 10 6 3
-31 -12 -62 -6 -12 -15 -20 -21 -16 -6 4 -6 -1 0 -12 7 -11 7 -32 1 -58 -9
-41 -37 -101 -38 -81 0 25 -28 22 -41 -4 -7 -15 -28 -53 -47 -85 -26 -45 -37
-55 -47 -47 -16 13 -53 -33 -139 -172 -13 -22 -24 -28 -50 -28 -26 0 -38 -7
-52 -27 -9 -15 -25 -36 -34 -46 -15 -16 -18 -16 -23 -3 -10 26 -33 18 -81 -29
-45 -43 -64 -57 -51 -35 3 5 1 19 -5 30 -10 19 -11 19 -30 2 -10 -9 -43 -30
-72 -46 l-53 -28 29 31 c17 17 26 31 21 31 -5 0 7 15 26 33 20 17 51 52 69 77
19 25 50 61 69 81 24 24 37 47 40 70 1 19 15 54 29 79 26 46 91 141 103 150
20 16 29 51 18 71 -9 17 -7 25 8 42 11 12 31 41 45 63 24 37 25 44 13 67 -12
23 -11 29 12 54 13 15 38 47 54 70 25 36 28 46 19 64 -13 24 3 48 90 138 43
45 51 58 42 72 -19 30 26 84 120 144 40 25 45 32 37 52 -5 15 -4 25 4 30 36
24 187 70 187 57z m800 -1129 c-12 -13 -27 -22 -33 -18 -6 4 -1 14 12 25 34
26 48 22 21 -7z m1968 -108 c9 -10 4 -40 -18 -116 -27 -94 -29 -113 -27 -234
2 -88 8 -140 17 -157 8 -14 15 -32 16 -40 10 -58 16 -80 24 -80 4 0 16 -20 26
-45 12 -31 24 -47 40 -51 27 -7 38 -34 43 -101 2 -26 52 -72 83 -75 23 -2 36
-11 50 -35 9 -18 14 -33 10 -33 -4 0 1 -5 11 -11 9 -5 17 -15 17 -21 0 -7 9
-21 20 -33 12 -13 18 -29 14 -38 -7 -21 -34 -10 -34 13 0 11 -4 22 -10 25 -5
3 -10 14 -10 23 -1 29 -35 61 -59 55 -29 -7 -27 -32 9 -96 31 -56 28 -67 -15
-67 -11 0 -31 44 -27 62 5 21 -20 58 -38 58 -29 0 -33 -20 -17 -84 13 -50 9
-74 -8 -46 -4 6 -10 8 -14 5 -5 -2 -16 15 -25 39 -9 24 -25 51 -35 60 -10 10
-17 25 -14 35 2 10 -2 25 -10 32 -23 24 -49 80 -51 112 -2 18 -12 38 -28 51
-29 24 -61 80 -51 90 4 4 -10 20 -30 37 -35 29 -56 76 -62 139 -1 14 -3 30 -3
37 -1 6 -19 19 -41 29 -21 9 -45 29 -54 44 -14 24 -14 28 -1 42 19 19 5 62
-26 78 -18 9 -21 19 -18 58 3 40 6 47 26 50 18 3 22 8 16 25 -3 12 -12 32 -20
44 -20 31 -19 33 26 33 32 0 49 8 82 37 24 20 37 31 31 23 -7 -8 -13 -33 -13
-56 0 -28 -5 -44 -15 -48 -22 -8 -19 -46 4 -46 10 0 21 7 25 15 3 8 26 25 51
37 35 17 45 27 43 43 -1 12 9 34 25 50 15 17 27 33 27 37 0 13 27 9 38 -5z
m1263 -70 c-16 -16 -20 -5 -8 23 9 22 11 23 14 6 3 -10 0 -23 -6 -29z"/>
<path d="M3881 1420 c-45 -43 -53 -70 -21 -70 11 0 20 7 20 15 0 8 4 15 10 15
13 0 60 52 60 67 0 24 -28 13 -69 -27z"/>
<path d="M3911 1360 c-46 -34 -59 -56 -43 -72 8 -8 25 2 61 37 45 43 55 65 32
65 -4 0 -27 -14 -50 -30z"/>
<path d="M3930 1278 c0 -7 -12 -25 -27 -40 -38 -39 -40 -66 -6 -79 35 -13 44
-28 30 -50 -9 -15 -8 -21 8 -33 33 -24 52 -5 51 51 -1 45 -3 48 -30 51 -16 2
-32 -2 -37 -10 -7 -10 -9 -9 -9 5 0 9 4 17 8 17 15 0 45 67 39 84 -7 19 -27
22 -27 4z"/>
<path d="M4103 3028 c-12 -20 -10 -51 4 -73 14 -21 17 -137 5 -215 -5 -33 -3
-50 8 -62 38 -45 58 -3 58 120 0 52 3 97 7 100 4 4 15 -4 24 -18 33 -50 184
-190 205 -190 19 0 36 22 36 45 0 22 -38 65 -57 65 -9 0 -123 104 -123 113 0
8 77 -7 90 -17 8 -7 35 -18 59 -25 24 -7 51 -19 58 -27 21 -21 42 -17 55 11 8
19 8 28 -2 40 -17 21 -88 55 -114 55 -10 0 -27 7 -37 16 -10 9 -33 17 -51 19
-67 7 -114 18 -152 36 -46 22 -62 24 -73 7z"/>
<path d="M3843 2908 c-26 -7 -33 -14 -33 -34 0 -14 3 -24 8 -22 4 2 24 10 45
18 20 8 37 17 37 21 0 17 -27 25 -57 17z"/>
<path d="M2263 2839 c3 -10 0 -20 -6 -20 -12 -2 -153 -8 -194 -9 -16 0 -23 -6
-23 -19 0 -24 18 -31 50 -19 13 5 40 8 60 7 88 -5 131 1 137 19 8 22 23 32 49
32 12 0 24 6 27 14 4 10 -7 13 -50 14 -49 0 -54 -2 -50 -19z"/>
<path d="M3893 2825 c-17 -7 -34 -11 -37 -8 -3 4 -6 1 -6 -6 0 -7 -4 -10 -8
-7 -4 2 -13 -4 -20 -14 -9 -15 -8 -22 4 -34 12 -13 19 -13 34 -3 11 6 20 15
20 19 0 5 7 8 15 8 19 0 66 41 59 52 -7 11 -24 10 -61 -7z"/>
<path d="M3512 2778 c-38 -22 -56 -28 -64 -20 -7 7 -27 3 -67 -15 -31 -14 -75
-32 -98 -40 -41 -14 -59 -35 -47 -54 3 -6 10 -6 17 -1 7 5 43 20 80 33 53 19
69 21 76 11 10 -16 52 -2 101 36 19 15 49 34 65 42 17 8 30 20 30 25 0 21 -42
13 -93 -17z"/>
<path d="M4742 2794 c-21 -14 -29 -43 -16 -56 3 -3 19 -1 35 5 23 9 29 17 27
36 -4 31 -17 35 -46 15z"/>
<path d="M1500 2792 c-8 -2 -34 -14 -58 -25 -46 -22 -66 -62 -41 -78 21 -13
44 -6 44 14 0 19 46 47 76 47 12 0 19 7 19 19 0 21 -17 31 -40 23z"/>
<path d="M4889 2759 c-9 -17 -8 -25 5 -37 22 -22 41 -2 32 32 -8 32 -21 33
-37 5z"/>
<path d="M3961 2756 c-48 -17 -74 -52 -58 -76 11 -19 12 -19 37 3 14 13 37 31
53 40 27 18 37 48 15 46 -7 0 -28 -6 -47 -13z"/>
<path d="M4574 2756 c-21 -16 -15 -50 10 -54 20 -4 46 21 46 44 0 17 -36 24
-56 10z"/>
<path d="M4818 2753 c-19 -5 -23 -29 -10 -51 13 -19 42 -3 42 23 0 27 -7 33
-32 28z"/>
<path d="M2598 2739 c-16 -4 -28 -5 -28 -2 0 4 -9 -2 -21 -13 -19 -17 -19 -19
-3 -31 13 -9 21 -10 30 -2 15 13 109 17 139 6 11 -3 27 -2 34 3 12 7 11 12
-10 29 -25 21 -87 26 -141 10z"/>
<path d="M2215 2727 c-53 -17 -58 -42 -9 -45 20 -2 41 2 48 7 7 6 45 11 84 13
58 2 72 6 70 18 -4 20 -136 24 -193 7z"/>
<path d="M3598 2713 c-47 -21 -58 -30 -58 -49 0 -31 10 -30 62 5 24 16 56 33
71 36 33 9 36 35 5 35 -13 0 -49 -12 -80 -27z"/>
<path d="M1475 2679 c-21 -10 -64 -44 -93 -73 -46 -46 -53 -59 -48 -80 4 -17
11 -23 21 -20 8 4 15 12 15 19 0 17 85 92 132 116 25 13 38 26 36 36 -4 24
-18 24 -63 2z"/>
<path d="M3381 2660 c-14 -8 -8 -40 7 -40 5 0 15 6 21 14 15 17 -8 39 -28 26z"/>
<path d="M3730 2661 c-8 -5 -31 -11 -50 -15 -36 -6 -100 -55 -100 -76 0 -18
32 -24 44 -8 6 8 42 29 79 48 37 18 66 38 64 43 -5 15 -19 18 -37 8z"/>
<path d="M2606 2635 c-71 -15 -104 -34 -92 -54 5 -7 15 -6 31 5 14 9 57 18
104 21 78 6 112 15 99 28 -13 14 -75 13 -142 0z"/>
<path d="M2267 2629 c-9 -5 -23 -7 -30 -3 -6 4 -9 3 -4 -1 4 -5 0 -16 -8 -25
-14 -15 -14 -19 -1 -29 12 -10 23 -7 55 13 22 14 47 26 56 26 8 0 15 7 15 15
0 18 -55 20 -83 4z"/>
<path d="M4865 2627 c-15 -12 -13 -16 26 -43 29 -20 44 -25 46 -16 6 17 34 15
62 -4 19 -14 25 -14 32 -3 15 23 10 34 -22 53 -38 23 -120 30 -144 13z"/>
<path d="M4637 2609 c3 -10 8 -19 12 -19 16 0 51 -42 45 -53 -5 -9 -4 -9 6 0
7 6 19 9 26 6 24 -9 16 32 -11 57 -14 13 -38 25 -54 26 -24 1 -28 -1 -24 -17z"/>
<path d="M4000 2585 c-7 -8 -19 -15 -26 -15 -8 0 -14 -4 -14 -9 0 -5 -10 -12
-22 -16 -41 -11 -68 -28 -68 -42 0 -19 27 -16 95 11 33 13 68 27 78 30 21 7
22 42 1 50 -23 9 -30 8 -44 -9z"/>
<path d="M1620 2583 c-8 -4 -36 -21 -62 -40 -26 -18 -52 -33 -58 -33 -5 0 -10
-7 -10 -15 0 -8 9 -15 20 -15 11 0 20 4 20 9 0 5 14 12 30 16 17 4 30 10 30
15 0 4 20 13 44 19 37 9 43 14 39 31 -5 20 -24 24 -53 13z"/>
<path d="M4813 2574 c-4 -11 -1 -20 6 -22 8 -3 22 -13 32 -23 22 -22 59 -25
59 -6 0 18 -39 53 -68 62 -16 5 -24 2 -29 -11z"/>
<path d="M4295 2553 c-26 -26 -16 -33 45 -33 45 0 62 4 67 15 8 22 1 26 -51
30 -31 2 -52 -2 -61 -12z"/>
<path d="M2040 2521 c-33 -11 -56 -25 -58 -35 -2 -9 3 -16 12 -16 9 0 16 -5
16 -11 0 -5 -4 -8 -8 -5 -13 8 -88 -30 -95 -48 -8 -19 1 -46 15 -46 12 0 52
21 58 31 3 4 23 14 45 21 45 15 53 39 15 48 l-25 6 25 9 c34 12 52 16 70 16
34 1 41 8 30 29 -13 24 -28 24 -100 1z"/>
<path d="M1775 2521 c-3 -5 -19 -12 -35 -16 -26 -6 -60 -37 -60 -56 0 -16 40
-15 55 1 9 10 36 23 61 29 40 10 43 13 34 31 -11 21 -44 27 -55 11z"/>
<path d="M2565 2509 c-88 -25 -107 -39 -103 -74 l3 -26 23 21 c13 12 56 34 96
48 68 25 94 45 64 49 -7 1 -44 -7 -83 -18z"/>
<path d="M3120 2461 c-47 -34 -56 -37 -65 -24 -10 13 -18 14 -46 5 -19 -7 -51
-14 -72 -16 -51 -6 -70 -22 -56 -47 7 -15 14 -17 28 -10 9 5 46 16 80 24 53
12 63 13 68 1 8 -22 26 -17 89 27 32 23 61 41 64 40 3 0 5 7 5 17 0 30 -38 23
-95 -17z"/>
<path d="M4646 2468 c-9 -12 -16 -25 -16 -29 0 -15 63 -70 78 -67 9 1 28 -5
42 -15 24 -16 24 -17 3 -17 -12 0 -23 -6 -25 -12 -3 -9 -12 -8 -31 5 -25 16
-27 16 -37 -2 -20 -38 -11 -68 34 -116 31 -34 52 -49 72 -50 16 -1 47 -5 70
-9 38 -7 42 -6 47 15 10 36 8 74 -4 86 -6 6 -13 25 -16 44 -2 18 -13 44 -24
57 -10 14 -19 30 -19 36 0 18 -61 73 -93 85 -43 16 -64 13 -81 -11z m159 -218
c4 -6 -6 -10 -22 -9 -25 0 -26 1 -8 9 11 5 21 9 22 9 1 1 5 -3 8 -9z"/>
<path d="M3285 2436 c-44 -22 -86 -49 -93 -58 -7 -10 -19 -18 -26 -18 -19 0
-27 -48 -9 -54 8 -3 28 8 46 25 18 16 61 45 96 62 67 33 93 59 76 75 -6 6 -41
-7 -90 -32z"/>
<path d="M3958 2438 c-65 -39 -78 -58 -39 -58 22 0 148 58 157 71 4 7 -41 33
-49 28 -1 -1 -32 -19 -69 -41z"/>
<path d="M4283 2465 c-29 -20 -29 -42 -2 -50 15 -5 25 -2 31 9 6 10 22 16 43
16 32 0 54 14 41 27 -14 15 -92 13 -113 -2z"/>
<path d="M4987 2454 c-38 -20 -35 -50 7 -71 47 -22 63 -14 58 31 -5 45 -28 59
-65 40z"/>
<path d="M2630 2439 c-25 -4 -81 -21 -125 -36 -64 -23 -81 -34 -83 -51 -4 -28
14 -28 65 -2 66 34 174 80 189 80 8 0 14 5 14 10 0 6 -3 9 -7 9 -5 -1 -28 -5
-53 -10z"/>
<path d="M3548 2417 c-41 -20 -45 -24 -37 -45 9 -24 18 -23 51 5 9 8 33 15 53
16 30 1 35 4 33 21 -4 29 -43 30 -100 3z"/>
<path d="M4281 2385 c-23 -11 -31 -20 -27 -31 3 -9 6 -18 6 -20 0 -2 13 -4 30
-4 25 0 29 -4 27 -22 -1 -16 5 -23 31 -30 18 -5 32 -14 31 -21 -3 -27 2 -35
30 -45 33 -12 45 -5 48 24 2 16 -5 24 -23 28 -23 6 -26 11 -20 36 5 25 2 30
-14 30 -16 0 -18 4 -11 23 4 12 6 28 4 35 -6 16 -70 15 -112 -3z"/>
<path d="M4030 2377 c-46 -17 -46 -17 -73 -17 -31 0 -50 -32 -33 -55 10 -15
14 -15 27 -3 8 7 40 25 73 38 32 14 58 29 58 35 -1 15 -14 15 -52 2z"/>
<path d="M4894 2378 c-9 -14 43 -58 69 -58 28 0 32 28 6 50 -27 22 -64 26 -75
8z"/>
<path d="M1428 2337 c-79 -44 -119 -80 -107 -98 7 -11 12 -12 26 -1 10 7 55
31 101 53 63 30 83 44 80 57 -5 27 -38 23 -100 -11z"/>
<path d="M1639 2351 c-20 -10 -43 -23 -50 -30 -8 -6 -38 -29 -66 -51 -62 -47
-71 -74 -20 -59 17 5 34 14 35 19 2 6 8 10 14 10 5 0 24 11 41 24 18 13 49 30
70 37 38 13 48 37 25 57 -9 7 -24 5 -49 -7z"/>
<path d="M1972 2345 c-37 -16 -84 -63 -79 -79 7 -21 37 -17 64 8 15 14 43 29
61 32 38 7 48 20 32 39 -15 18 -35 18 -78 0z"/>
<path d="M3553 2322 c-47 -24 -65 -47 -48 -64 8 -7 148 66 153 80 6 20 -50 12
-105 -16z"/>
<path d="M2276 2323 c-27 -7 -54 -17 -60 -23 -5 -5 -18 -10 -28 -10 -10 0 -18
-4 -18 -10 0 -5 -6 -10 -14 -10 -21 0 -30 -19 -16 -35 11 -13 16 -12 44 3 17
9 34 22 38 27 4 6 8 7 8 4 0 -3 33 1 73 10 59 14 72 20 72 36 0 24 -28 27 -99
8z"/>
<path d="M3350 2322 c0 -14 -57 -42 -111 -53 -62 -13 -79 -24 -79 -50 0 -24
18 -33 36 -19 8 7 34 16 59 21 44 8 67 22 111 69 29 30 30 40 4 40 -11 0 -20
-4 -20 -8z"/>
<path d="M4110 2305 c-25 -13 -54 -24 -66 -25 -29 0 -56 -31 -44 -50 8 -13 13
-13 42 1 18 9 55 27 83 40 27 13 51 32 53 42 5 23 -14 21 -68 -8z"/>
<path d="M2475 2277 c-36 -10 -69 -36 -59 -46 9 -10 154 34 154 46 0 15 -38
15 -95 0z"/>
<path d="M4200 2253 c-75 -39 -95 -57 -86 -72 8 -12 36 -15 36 -3 0 9 64 40
104 50 19 5 30 16 32 29 6 34 -17 33 -86 -4z"/>
<path d="M1687 2255 c-15 -8 -34 -21 -42 -29 -8 -8 -30 -24 -50 -36 -32 -20
-49 -60 -25 -60 10 0 77 42 100 63 8 8 27 22 43 32 28 18 37 45 15 45 -7 0
-25 -7 -41 -15z"/>
<path d="M2644 2221 c-22 -10 -59 -22 -81 -26 -46 -7 -62 -30 -38 -54 12 -12
17 -12 27 -3 7 7 20 12 30 12 9 0 41 11 70 25 29 13 64 26 78 28 14 2 25 10
25 18 0 21 -63 21 -111 0z"/>
<path d="M3546 2213 c-51 -21 -78 -47 -63 -62 5 -5 11 -21 13 -33 1 -13 3 -26
3 -29 1 -4 9 -6 19 -5 9 0 16 -5 14 -12 -4 -21 25 -25 52 -7 23 15 26 15 26 2
0 -33 52 -34 84 -1 22 21 3 62 -20 43 -11 -9 -14 -8 -14 4 0 27 -18 29 -66 7
-26 -11 -49 -18 -52 -15 -3 2 4 8 14 12 10 4 24 11 29 15 6 5 19 15 30 23 34
23 8 29 -42 9 -26 -10 -52 -21 -58 -23 -5 -2 9 11 33 29 23 17 42 38 42 46 0
8 -1 14 -2 13 -2 0 -21 -7 -42 -16z"/>
<path d="M2815 2181 c-121 -46 -158 -70 -148 -98 6 -15 33 -18 33 -3 0 15 67
46 140 64 68 18 97 36 86 55 -10 16 -31 12 -111 -18z"/>
<path d="M1882 2146 c-21 -20 -49 -39 -62 -44 -20 -8 -21 -10 -6 -24 22 -23
35 -18 85 30 24 23 50 42 58 42 22 0 9 25 -15 28 -13 2 -35 -10 -60 -32z"/>
<path d="M4437 2173 c-4 -3 -7 -15 -7 -25 0 -16 6 -19 42 -16 51 4 60 22 17
37 -37 13 -43 13 -52 4z"/>
<path d="M5012 2168 c-7 -7 -12 -18 -12 -25 0 -7 -5 -21 -11 -31 -14 -23 11
-67 43 -75 16 -5 19 -2 15 16 -2 12 -8 30 -12 41 -8 19 0 18 53 -2 10 -3 13 4
10 29 -2 29 -7 34 -30 37 -16 2 -28 8 -28 13 0 13 -14 11 -28 -3z"/>
<path d="M1736 2162 c-3 -5 -23 -14 -45 -22 -22 -7 -68 -39 -103 -71 -35 -32
-66 -58 -70 -59 -11 0 -10 -38 0 -44 5 -3 31 17 58 44 27 26 55 50 63 52 7 2
25 14 40 28 15 14 42 33 60 42 18 10 29 22 26 28 -7 12 -22 13 -29 2z"/>
<path d="M4179 2136 c-13 -13 -45 -33 -71 -45 -34 -15 -48 -27 -48 -41 0 -25
-3 -25 56 2 27 12 52 21 57 20 4 -1 7 3 7 8 0 6 7 10 15 10 8 0 15 4 15 10 0
5 14 16 30 25 40 20 38 35 -4 35 -22 0 -42 -8 -57 -24z"/>
<path d="M2930 2112 c0 -6 -22 -16 -49 -23 -49 -12 -67 -33 -51 -59 5 -9 16
-8 43 3 19 9 38 13 41 10 8 -8 46 27 46 42 0 7 -7 18 -15 25 -9 7 -15 8 -15 2z"/>
<path d="M2335 2046 c-79 -35 -107 -57 -94 -77 6 -11 16 -9 51 8 58 28 116 46
127 39 15 -9 32 20 24 40 -11 26 -28 25 -108 -10z"/>
<path d="M1851 2030 c-36 -35 -39 -50 -11 -50 19 0 79 55 80 73 0 18 -40 4
-69 -23z"/>
<path d="M4135 2002 c-88 -49 -99 -56 -132 -84 -27 -22 -30 -29 -19 -43 11
-16 15 -15 44 11 17 16 57 42 89 58 73 37 93 54 86 72 -7 19 -10 18 -68 -14z"/>
<path d="M4257 1993 c-9 -10 -42 -31 -74 -48 -73 -38 -81 -45 -75 -67 4 -18
32 -26 32 -9 0 5 28 22 63 39 70 35 121 77 112 92 -10 16 -40 12 -58 -7z"/>
<path d="M5023 1983 c-7 -2 -13 -15 -13 -28 0 -12 -7 -25 -15 -29 -8 -3 -15
-16 -15 -29 0 -19 7 -26 31 -31 17 -3 35 -3 40 0 16 9 10 42 -8 48 -10 3 -1 3
20 0 34 -4 37 -3 37 18 0 16 -10 30 -29 41 -16 9 -31 17 -33 16 -1 0 -9 -3
-15 -6z"/>
<path d="M2315 1948 c-74 -29 -94 -41 -95 -60 0 -17 35 -6 125 38 52 25 95 48
95 50 0 11 -53 -1 -125 -28z"/>
<path d="M2588 1969 c-2 -3 -48 -26 -103 -49 -114 -48 -125 -55 -125 -81 0
-28 17 -24 113 26 48 25 87 43 87 40 0 -8 58 23 64 34 9 14 -3 38 -19 38 -8 0
-16 -4 -17 -8z"/>
<path d="M4352 1955 c-17 -14 -35 -25 -41 -25 -6 0 -11 -5 -11 -11 0 -5 -4 -8
-8 -5 -10 6 -52 -30 -52 -43 0 -5 6 -14 14 -20 11 -9 25 -4 67 23 68 44 89 65
89 88 0 25 -23 23 -58 -7z"/>
<path d="M1492 1923 c-7 -3 -44 -43 -83 -90 -74 -90 -85 -125 -41 -131 19 -3
22 1 22 27 0 18 10 41 25 57 14 15 25 33 25 41 0 7 7 16 14 19 8 3 26 21 41
39 24 33 23 47 -3 38z"/>
<path d="M1666 1916 c3 -8 12 -12 20 -9 21 8 17 23 -6 23 -13 0 -18 -5 -14
-14z"/>
<path d="M2785 1917 c-11 -7 -46 -21 -78 -31 -68 -20 -127 -53 -127 -69 1 -33
17 -37 45 -13 26 22 83 42 93 32 2 -3 -3 -15 -12 -28 -17 -24 -21 -48 -8 -48
5 0 24 14 42 30 18 17 49 35 67 42 18 7 33 15 33 19 0 4 11 10 24 13 23 6 45
41 33 52 -3 3 -21 1 -41 -4 -29 -8 -36 -8 -36 4 0 17 -10 18 -35 1z"/>
<path d="M2960 1894 c-69 -38 -130 -89 -130 -111 0 -20 22 -16 51 10 34 30 58
45 102 64 20 9 37 20 37 25 0 4 7 8 15 8 8 0 15 9 15 20 0 27 -14 25 -90 -16z"/>
<path d="M3762 1919 c-13 -5 -38 -11 -54 -14 -35 -7 -68 -22 -68 -33 0 -4 4
-13 9 -20 7 -11 16 -10 47 7 21 12 46 21 54 21 20 1 50 24 50 39 0 13 -7 13
-38 0z"/>
<path d="M1580 1851 c-19 -17 -39 -30 -45 -31 -5 0 -31 -20 -56 -44 -25 -24
-54 -48 -63 -53 -12 -7 -17 -19 -14 -38 l3 -29 52 50 c29 27 74 60 100 74 27
14 57 33 67 42 11 10 26 18 34 18 7 0 12 8 10 18 -5 29 -49 26 -88 -7z"/>
<path d="M3420 1808 c-31 -11 -97 -74 -116 -109 -12 -25 -12 -27 6 -32 14 -4
26 4 41 24 11 16 25 29 30 29 22 0 98 61 93 74 -8 20 -25 25 -54 14z"/>
<path d="M3414 1667 c-11 -12 -40 -39 -62 -60 -23 -21 -42 -42 -42 -47 0 -20
19 -18 41 3 13 13 42 34 64 47 50 30 73 52 67 68 -6 19 -45 13 -68 -11z"/>
<path d="M1419 1577 c-51 -31 -122 -104 -114 -117 12 -19 33 -10 38 18 4 19
17 32 46 46 62 29 101 55 101 66 0 17 -33 11 -71 -13z"/>
<path d="M1228 1564 c-7 -8 -20 -23 -29 -33 -15 -17 -10 -61 8 -61 29 1 78 81
60 99 -15 15 -24 14 -39 -5z"/>
<path d="M2088 1559 c-10 -10 -18 -22 -18 -26 0 -5 -16 -19 -35 -33 -19 -14
-42 -36 -51 -48 -14 -21 -14 -25 0 -41 14 -15 13 -17 -5 -18 -23 -2 -49 -20
-49 -35 0 -5 -13 -21 -30 -35 -33 -27 -40 -63 -14 -63 24 0 124 108 124 133 0
11 26 48 60 83 34 35 60 71 60 83 0 26 -19 26 -42 0z"/>
<path d="M1936 1522 c-52 -42 -66 -76 -43 -99 13 -14 16 -13 21 4 3 10 26 36
51 56 25 21 45 44 45 51 0 29 -31 24 -74 -12z"/>
<path d="M3470 1488 c-57 -65 -63 -75 -53 -93 7 -12 13 -11 33 9 14 13 32 34
40 46 8 13 23 32 33 42 17 18 17 49 0 48 -4 -1 -28 -24 -53 -52z"/>
<path d="M3491 1390 c-34 -32 -51 -56 -47 -65 6 -15 36 -21 36 -7 0 4 18 27
40 51 37 40 51 71 32 71 -5 0 -32 -23 -61 -50z"/>
<path d="M1236 1344 c-9 -24 -7 -54 4 -54 6 0 10 5 10 10 0 6 7 10 15 10 9 0
15 9 15 25 0 29 -34 36 -44 9z"/>
<path d="M3507 1312 c-32 -19 -46 -58 -27 -75 10 -9 14 -9 17 1 3 8 18 29 34
47 39 44 28 57 -24 27z"/>
<path d="M3564 1268 c-35 -49 -48 -108 -25 -108 10 0 48 29 38 30 -5 0 1 15
12 34 12 18 21 38 21 45 0 15 -35 14 -46 -1z"/>
<path d="M1884 1229 c-40 -20 -54 -170 -14 -161 7 1 17 -2 24 -7 8 -7 12 -4
13 11 1 12 7 24 13 28 18 11 0 41 -21 35 -25 -8 -24 3 6 48 34 49 25 68 -21
46z"/>
<path d="M1194 1197 c-23 -12 -68 -83 -59 -96 7 -13 43 -2 49 16 3 8 11 11 16
8 15 -9 50 36 47 60 -2 23 -23 27 -53 12z"/>
<path d="M3601 1191 c-21 -13 -6 -81 18 -81 26 0 31 20 15 58 -15 36 -14 35
-33 23z"/>
<path d="M3648 1093 c-31 -16 -33 -21 -16 -58 13 -30 41 -30 46 0 2 11 10 25
18 31 16 13 9 45 -10 43 -6 -1 -23 -8 -38 -16z"/>
</g>
</svg>
