<?xml version="1.0" standalone="no"?>
<!DOCTYPE svg PUBLIC "-//W3C//DTD SVG 20010904//EN"
 "http://www.w3.org/TR/2001/REC-SVG-20010904/DTD/svg10.dtd">
<svg version="1.0" xmlns="http://www.w3.org/2000/svg"
 width="463.000000pt" height="455.000000pt" viewBox="0 0 463.000000 455.000000"
 preserveAspectRatio="xMidYMid meet">
<metadata>
Created by potrace 1.16, written by Peter Selinger 2001-2019
</metadata>
<g transform="translate(0.000000,455.000000) scale(0.100000,-0.100000)"
fill="#000000" stroke="none">
<path d="M1958 4185 c-3 -4 -50 -8 -104 -10 -131 -5 -191 -13 -239 -32 -22 -9
-71 -18 -110 -20 -42 -2 -85 -12 -107 -23 -20 -10 -39 -16 -42 -13 -3 4 -6 2
-6 -4 0 -6 -13 -16 -29 -23 -16 -6 -32 -18 -35 -26 -3 -8 -15 -14 -26 -14 -11
0 -20 -4 -20 -9 0 -4 -10 -19 -23 -32 -66 -69 -153 -198 -217 -325 -14 -27
-28 -50 -32 -52 -5 -2 -8 -9 -8 -16 0 -7 -12 -35 -26 -62 -37 -70 -55 -122
-59 -177 -5 -60 -13 -71 -88 -108 -78 -38 -109 -63 -231 -186 -116 -119 -126
-129 -126 -141 0 -4 -16 -25 -35 -46 -19 -21 -35 -41 -35 -44 0 -4 -10 -16
-23 -27 -23 -21 -33 -40 -62 -115 -9 -25 -23 -57 -30 -72 -16 -32 -9 -68 13
-68 17 0 41 28 42 49 0 23 76 175 96 193 18 16 19 15 20 -40 0 -31 2 -70 3
-87 4 -34 -16 -117 -29 -125 -5 -3 -11 -20 -15 -38 -5 -32 -3 -34 40 -34 29 0
33 2 40 35 4 17 7 35 7 39 -1 3 7 32 17 63 15 45 17 64 9 87 -17 49 -5 148 25
206 15 28 27 58 27 67 0 20 157 175 203 200 20 11 37 23 37 27 0 5 6 8 13 8 6
1 34 11 62 24 l50 23 18 -20 c22 -26 90 -57 114 -51 10 2 36 6 58 8 22 2 69
14 105 25 36 12 71 21 78 21 7 0 20 7 28 15 10 10 26 13 50 9 19 -3 34 -1 34
4 0 14 37 21 49 9 7 -7 14 -7 23 0 8 7 36 8 78 2 75 -9 212 -12 252 -5 16 2
30 0 33 -5 4 -5 15 0 26 10 17 15 55 29 84 31 3 0 14 9 26 21 11 11 36 27 55
35 19 8 37 21 41 29 3 8 10 15 15 15 6 0 18 8 27 18 50 54 139 60 189 12 16
-15 38 -33 48 -38 19 -10 51 -98 40 -109 -3 -3 -2 -11 3 -17 6 -6 7 -30 4 -53
l-5 -41 -97 1 c-53 0 -111 -3 -129 -7 -19 -5 -43 -9 -55 -11 -146 -18 -161
-21 -252 -60 -16 -7 -68 -25 -115 -40 -47 -16 -92 -32 -100 -37 -8 -4 -22 -11
-30 -14 -8 -3 -24 -9 -35 -14 -26 -11 -48 -17 -59 -18 -5 0 -12 -4 -15 -9 -3
-4 -42 -33 -86 -63 -44 -29 -84 -59 -90 -66 -5 -6 -26 -23 -46 -37 -19 -15
-53 -44 -76 -65 -22 -21 -55 -46 -74 -54 -34 -17 -119 -86 -148 -122 -9 -11
-38 -43 -66 -71 -27 -28 -66 -71 -85 -95 -19 -25 -43 -53 -53 -63 -10 -10 -15
-22 -12 -26 6 -11 -25 -85 -58 -137 -13 -22 -27 -55 -31 -75 -3 -21 -14 -52
-23 -70 -9 -18 -17 -46 -19 -62 -1 -16 -7 -33 -13 -36 -29 -18 -30 -217 -2
-316 38 -138 120 -335 139 -335 4 0 22 -23 41 -50 28 -41 99 -106 186 -172 6
-4 28 -24 50 -43 46 -41 130 -101 193 -135 23 -13 42 -27 42 -32 0 -4 15 -8
33 -8 18 0 41 -6 52 -14 11 -7 31 -16 45 -19 158 -35 221 -48 254 -52 48 -6
59 -13 52 -32 -3 -8 -2 -11 4 -8 5 3 28 -15 50 -39 23 -25 50 -48 61 -51 10
-4 19 -13 19 -21 0 -8 3 -13 8 -12 4 2 30 -8 57 -21 28 -12 67 -30 87 -39 21
-10 38 -20 38 -23 0 -4 17 -10 37 -14 21 -4 65 -19 98 -35 63 -30 156 -58 215
-65 107 -14 129 -17 170 -29 30 -9 53 -10 70 -4 14 5 61 6 110 2 119 -10 218
-6 270 12 8 3 37 8 65 11 75 8 186 74 263 155 68 72 92 101 92 109 0 5 11 11
24 15 26 6 135 -40 191 -81 17 -12 50 -30 75 -39 25 -10 62 -28 82 -42 21 -13
41 -24 45 -24 5 0 17 -14 28 -30 11 -16 24 -30 29 -30 15 0 66 -52 66 -67 0
-8 4 -12 9 -9 5 3 11 0 14 -8 3 -8 14 -12 24 -10 18 5 71 -29 123 -80 30 -29
57 -23 84 18 36 55 -10 292 -72 372 -23 29 -152 225 -152 230 0 8 -153 157
-203 197 -37 29 -52 47 -41 47 9 0 15 3 12 6 -13 13 15 74 53 115 23 24 50 62
60 84 10 22 32 60 49 85 16 25 30 57 30 71 0 30 29 119 39 119 4 0 7 8 8 18 0
9 6 70 12 135 12 118 10 196 -8 279 -5 24 -12 69 -16 102 -3 32 -15 75 -26 95
-10 19 -19 40 -19 45 0 19 -55 133 -85 176 -17 25 -43 65 -57 90 -15 25 -36
55 -47 67 -12 12 -21 26 -21 30 0 5 -12 22 -27 39 -16 17 -50 59 -78 93 -68
85 -69 86 -139 133 -33 23 -63 44 -66 47 -3 3 -12 7 -20 9 -22 5 -41 23 -50
48 -7 17 -15 20 -34 17 -21 -4 -25 -2 -20 10 6 18 -30 40 -84 52 -24 5 -31 11
-28 23 3 10 8 37 10 62 3 25 9 64 14 87 5 23 7 44 4 47 -2 3 1 25 8 49 18 66
14 154 -10 232 -12 39 -23 82 -25 96 -2 15 -12 36 -24 48 -12 12 -21 29 -21
39 0 9 -9 28 -20 42 -11 14 -20 30 -20 35 0 18 -104 111 -145 130 -22 10 -52
27 -67 37 -14 10 -34 18 -45 18 -10 0 -32 8 -49 19 -32 19 -143 37 -284 46
-197 11 -221 16 -288 59 -23 14 -50 26 -61 26 -11 0 -21 5 -23 11 -2 5 -28 11
-58 13 -30 2 -66 6 -80 10 -14 4 -28 4 -32 1z m177 -107 c28 -11 52 -24 55
-28 12 -19 92 -42 175 -51 82 -9 254 -21 297 -20 10 0 20 -5 23 -10 4 -5 11
-7 16 -4 15 10 165 -53 197 -82 7 -7 19 -13 26 -13 7 0 24 -9 37 -21 13 -11
34 -29 47 -40 12 -10 22 -27 22 -37 0 -10 9 -28 20 -40 11 -12 20 -27 20 -35
0 -7 4 -17 9 -23 5 -5 26 -58 46 -118 36 -107 39 -144 20 -216 -4 -14 -8 -45
-9 -70 -4 -55 -23 -150 -35 -169 -8 -12 -14 -12 -39 -2 -17 7 -69 13 -116 14
-61 2 -86 6 -86 15 0 6 4 12 8 12 5 0 34 25 65 56 70 70 73 92 16 117 -23 10
-51 17 -63 16 -27 -3 -96 11 -96 20 0 3 -31 5 -70 3 -47 -3 -70 0 -70 8 0 16
31 74 44 82 6 4 8 10 4 13 -3 4 7 38 23 77 16 39 38 102 50 140 19 66 20 71 3
89 -23 26 -84 25 -137 -2 -25 -13 -75 -25 -122 -30 -44 -4 -91 -10 -105 -13
-14 -2 -33 -5 -43 -5 -22 -1 -42 -48 -27 -66 18 -22 69 -24 95 -4 14 12 45 20
81 23 33 2 81 13 107 25 27 12 57 21 67 21 16 0 17 -4 8 -37 -5 -21 -14 -56
-19 -78 -6 -21 -30 -80 -53 -130 -24 -49 -47 -107 -50 -127 -10 -54 15 -67
125 -66 52 0 95 -4 110 -12 13 -8 25 -13 27 -12 1 1 13 2 26 2 l25 0 -32 -34
c-18 -18 -55 -46 -84 -61 -52 -28 -80 -30 -183 -12 -14 2 -50 8 -80 12 l-55 7
-2 74 c-2 47 -10 90 -22 117 -10 23 -22 52 -26 65 -3 12 -20 29 -36 37 -16 9
-29 19 -29 23 0 15 -67 51 -105 56 -22 4 -50 8 -63 10 -23 3 -48 -13 -120 -81
-19 -18 -39 -33 -45 -33 -5 0 -15 -6 -21 -14 -15 -19 -147 -87 -157 -81 -4 3
-11 1 -14 -5 -8 -12 -125 -10 -125 3 0 4 -7 4 -15 0 -8 -5 -52 -5 -97 0 -131
13 -178 15 -178 6 0 -5 -3 -8 -7 -7 -9 2 -75 -18 -108 -32 -55 -24 -133 -34
-98 -12 6 4 13 21 16 38 4 26 1 32 -24 41 -21 8 -29 8 -29 0 0 -5 -3 -7 -7 -4
-3 4 -12 -1 -19 -10 -10 -14 -9 -23 2 -45 8 -16 20 -28 26 -28 8 0 6 -6 -4
-16 -21 -21 -127 -29 -149 -12 -9 7 -26 30 -37 51 -25 47 -21 93 11 145 13 20
34 64 47 97 47 116 103 211 221 370 31 42 136 110 173 112 17 1 33 2 36 3 3 1
13 2 23 1 9 -1 17 2 17 6 0 5 15 10 33 11 58 4 112 14 125 24 6 6 12 7 12 4 0
-4 5 -4 12 0 15 10 31 12 153 20 55 3 102 8 104 10 12 11 162 -10 206 -28z
m202 -986 c19 5 42 7 51 3 10 -4 57 -8 107 -10 49 -3 102 -10 117 -16 15 -6
45 -9 65 -7 21 3 51 1 66 -3 15 -4 83 -11 150 -14 167 -9 345 -64 367 -115 6
-14 29 -33 53 -44 23 -10 54 -30 70 -44 15 -14 27 -23 27 -19 0 14 82 -45 113
-80 18 -20 48 -59 67 -87 19 -28 53 -74 75 -103 52 -68 140 -196 140 -205 0
-4 6 -13 13 -20 6 -6 12 -18 12 -25 0 -7 4 -21 10 -31 26 -46 60 -145 65 -188
10 -93 15 -129 24 -180 5 -28 8 -66 6 -85 -2 -19 -6 -69 -10 -112 -3 -43 -16
-111 -30 -152 -13 -40 -26 -87 -28 -104 -5 -28 -18 -52 -37 -71 -3 -3 -17 -27
-30 -53 -14 -27 -40 -65 -58 -85 -27 -30 -55 -68 -88 -120 -4 -6 -77 21 -94
34 -8 6 -23 14 -32 17 -27 9 -22 30 5 25 13 -2 29 2 36 9 7 8 19 12 27 9 9 -4
18 4 25 21 9 25 5 31 -54 88 -56 54 -107 125 -89 125 7 0 49 37 187 168 82 77
115 101 115 82 0 -7 6 -6 14 3 43 42 -43 137 -142 158 -47 9 -104 31 -120 44
-6 5 52 105 60 105 4 0 8 4 8 9 0 16 72 131 81 131 14 0 11 56 -3 68 -11 8
-148 23 -230 24 -27 1 -27 2 -14 33 8 17 22 70 31 116 10 46 23 93 28 104 23
44 25 81 6 106 -12 16 -19 19 -19 10 0 -11 -3 -12 -11 -4 -7 7 -18 8 -28 3 -9
-4 -38 -16 -66 -25 -49 -16 -59 -20 -120 -45 -16 -6 -48 -14 -71 -17 l-42 -5
3 106 c2 58 6 110 9 115 4 5 2 11 -4 13 -16 5 -16 78 0 88 32 20 -52 75 -97
64 -34 -8 -109 -50 -143 -79 -14 -12 -42 -32 -62 -44 l-38 -23 -10 27 c-5 14
-10 31 -10 37 0 26 -100 136 -119 130 -6 -2 -11 2 -11 9 0 15 -47 59 -64 59
-8 0 -23 -8 -34 -17 -19 -16 -20 -22 -10 -65 10 -43 9 -51 -16 -103 -32 -65
-50 -68 -81 -16 -38 64 -77 97 -125 106 -25 4 -47 9 -50 10 -29 11 -47 21 -57
34 -7 9 -13 12 -13 6 0 -5 -4 -4 -9 4 -7 11 -14 10 -39 -7 -27 -20 -48 -67
-33 -77 4 -2 7 -25 6 -52 0 -37 -4 -48 -15 -46 -18 2 -83 26 -90 33 -3 3 -13
6 -23 8 -11 2 -36 12 -57 23 -21 11 -55 23 -76 26 -22 3 -48 12 -59 19 -39 28
-66 14 -79 -38 -5 -21 -3 -28 9 -28 8 0 15 -9 15 -20 0 -11 4 -20 8 -20 12 0
32 -47 32 -76 0 -23 -1 -24 -22 -10 -36 22 -174 55 -273 65 -112 10 -129 1
-120 -67 7 -56 33 -132 51 -153 13 -14 9 -18 -28 -34 -74 -30 -89 -35 -104
-35 -8 0 -65 -24 -127 -54 -62 -29 -123 -57 -135 -61 -13 -4 -33 -16 -44 -27
-29 -29 -14 -67 29 -82 34 -11 56 -28 85 -64 17 -21 15 -24 -87 -127 -58 -58
-105 -109 -105 -115 0 -5 -13 -16 -30 -25 -16 -9 -30 -22 -30 -30 0 -8 -4 -15
-8 -15 -9 0 -32 -44 -32 -60 0 -5 18 -15 40 -21 22 -7 40 -16 40 -21 0 -4 8
-8 17 -8 26 0 86 -23 103 -40 18 -18 19 -52 3 -90 -11 -27 -44 -125 -61 -180
-6 -19 -14 -75 -18 -124 -5 -70 -4 -90 7 -97 26 -16 57 -9 126 30 76 43 116
57 184 65 31 4 50 2 56 -6 14 -18 61 -156 65 -193 2 -16 13 -41 24 -54 12 -12
27 -40 34 -62 7 -21 19 -40 27 -43 8 -4 11 -11 7 -18 -4 -7 -4 -10 1 -6 4 4
16 3 27 -3 31 -17 78 6 145 71 34 32 86 71 114 86 l52 26 19 -23 c10 -13 32
-51 48 -84 32 -63 89 -135 109 -135 6 0 11 -4 11 -10 0 -5 13 -10 30 -10 20 0
33 7 41 23 18 33 98 110 149 143 81 52 190 83 190 54 0 -26 66 -145 97 -176
67 -68 95 -63 179 33 37 42 72 69 125 96 41 20 79 37 85 37 6 0 25 -19 42 -43
57 -80 170 -185 209 -196 26 -7 36 1 121 86 52 51 97 93 101 93 4 0 8 -17 9
-37 4 -58 52 -172 81 -193 35 -24 105 -27 170 -7 71 22 70 23 67 -17 -2 -19 4
-49 12 -67 17 -34 93 -89 124 -89 10 0 21 -7 24 -15 4 -8 11 -15 18 -15 6 0
22 -21 35 -47 14 -27 34 -61 44 -76 25 -36 17 -44 -15 -15 -66 60 -91 77 -183
121 -33 16 -70 39 -83 51 -13 11 -29 21 -35 21 -7 1 -30 10 -52 20 -22 10 -48
20 -58 22 -10 2 -40 11 -65 22 -26 10 -96 28 -157 40 -60 12 -119 24 -130 27
-11 3 -60 9 -109 14 -49 6 -94 15 -101 20 -7 5 -14 8 -16 6 -2 -2 -44 0 -94 5
-49 5 -126 12 -170 16 -109 9 -448 10 -510 1 -27 -4 -81 -12 -120 -18 -38 -6
-135 -13 -215 -15 -166 -4 -357 19 -433 54 -25 12 -53 21 -62 21 -8 0 -18 7
-21 15 -4 8 -17 15 -30 15 -33 0 -79 28 -136 82 -10 10 -21 18 -24 18 -7 0
-68 48 -159 124 -149 125 -221 219 -246 321 -6 28 -20 66 -29 85 -49 98 -51
301 -4 391 8 17 13 33 11 36 -8 7 29 110 69 193 21 41 42 86 48 100 13 30 76
115 76 103 1 -4 6 2 13 13 22 40 148 172 190 201 23 15 46 34 50 40 4 7 15 13
22 13 8 0 15 5 15 10 0 6 4 10 10 10 11 0 45 26 69 53 9 10 37 32 64 49 26 16
47 34 47 38 0 5 9 11 19 15 11 3 33 18 49 33 17 16 49 37 73 47 24 11 46 22
49 26 3 4 46 21 95 37 50 17 135 47 190 67 119 43 195 62 289 69 38 3 71 7 73
9 2 3 22 1 44 -3 23 -4 57 -3 76 2z m345 -234 c42 -39 57 -79 52 -137 -4 -36
-1 -44 16 -48 11 -3 17 -10 13 -16 -13 -21 52 5 70 28 10 13 38 35 62 50 25
14 45 30 45 35 0 6 4 10 10 10 5 0 26 11 46 25 54 37 74 34 74 -13 0 -20 4
-51 8 -67 5 -17 4 -85 -1 -153 -7 -94 -6 -126 4 -138 12 -15 49 -16 60 -1 3 4
23 8 44 9 22 1 48 9 58 18 9 9 37 23 60 30 23 6 47 16 54 22 7 5 16 7 22 4 5
-3 21 -2 36 4 24 9 26 8 20 -7 -4 -10 -8 -22 -9 -28 -1 -5 -4 -14 -7 -20 -4
-5 -10 -27 -13 -49 -4 -21 -11 -46 -15 -55 -29 -58 -56 -164 -48 -185 7 -18
60 -22 99 -7 13 4 51 6 86 3 47 -3 62 -8 62 -20 0 -22 -55 -116 -112 -191 -27
-36 -46 -71 -43 -79 3 -7 5 -17 5 -22 0 -9 31 -20 79 -26 19 -3 43 -10 55 -16
23 -13 33 -16 75 -24 16 -4 39 -15 52 -27 l22 -20 -34 -30 c-19 -16 -61 -55
-94 -87 -33 -32 -87 -75 -120 -95 -120 -76 -127 -88 -74 -136 16 -14 29 -29
29 -32 0 -4 21 -27 47 -51 l47 -45 -30 -7 c-16 -4 -33 -10 -39 -14 -16 -12
-107 -4 -146 13 -19 9 -48 14 -65 12 -16 -2 -51 3 -79 10 -93 25 -156 35 -230
35 -41 0 -86 5 -102 11 -15 6 -66 10 -113 10 -47 0 -113 7 -148 16 -59 15 -64
19 -81 57 -10 23 -21 64 -24 91 -3 28 -11 67 -17 88 -17 57 -6 266 19 357 27
101 59 172 139 304 69 116 128 186 156 186 9 0 16 5 16 10 0 6 20 0 44 -14 24
-13 47 -22 50 -19 9 9 53 -24 110 -83 30 -30 57 -54 61 -54 24 0 158 -177 154
-203 -3 -16 10 -45 35 -82 24 -34 22 -26 31 -127 4 -52 2 -84 -6 -99 -6 -13
-16 -52 -20 -88 -15 -111 -21 -135 -44 -166 -12 -16 -28 -48 -35 -70 -7 -22
-19 -45 -26 -53 -7 -7 -13 -28 -12 -47 1 -39 17 -44 62 -24 25 12 46 55 48
101 1 13 12 37 25 55 12 17 25 49 28 70 4 21 11 53 16 70 6 18 7 42 4 54 -7
21 11 79 25 79 7 0 5 90 -4 185 -2 22 -17 65 -34 95 -16 30 -33 66 -37 78 -4
13 -20 43 -36 67 -16 24 -29 47 -29 52 0 6 -46 54 -102 108 -90 86 -118 107
-218 157 -63 32 -126 58 -141 58 -14 0 -47 11 -73 25 -25 14 -57 27 -69 29
-12 2 -51 11 -87 19 -112 26 -412 11 -542 -28 -27 -8 -48 -11 -48 -8 0 3 -6 1
-13 -5 -7 -6 -30 -12 -52 -14 -22 -2 -45 -6 -50 -9 -6 -3 -30 -11 -55 -18 -46
-13 -91 -32 -100 -41 -18 -18 -162 -90 -170 -85 -4 3 -13 -9 -20 -26 -7 -16
-25 -36 -39 -44 -14 -7 -61 -48 -104 -91 -71 -70 -81 -85 -103 -151 -13 -41
-26 -105 -28 -144 -2 -38 -6 -72 -9 -76 -4 -3 -2 -13 2 -22 5 -9 9 -27 9 -41
2 -38 7 -57 21 -74 7 -8 10 -19 7 -24 -3 -5 6 -18 19 -28 14 -10 25 -23 25
-27 0 -5 7 -15 15 -23 8 -8 18 -20 22 -27 17 -27 116 -100 188 -138 22 -12 42
-24 45 -28 10 -12 97 -51 129 -57 17 -4 34 -11 37 -15 3 -5 17 -9 32 -9 15 0
56 -9 90 -20 35 -11 85 -20 111 -20 26 0 51 -3 54 -7 8 -8 83 -13 287 -19 224
-6 311 -11 345 -18 17 -3 70 -8 119 -10 56 -2 91 -8 96 -16 5 -9 9 -9 14 -1 4
6 12 8 18 5 5 -4 64 -10 129 -15 75 -6 138 -16 172 -29 28 -11 73 -20 99 -20
26 0 50 -5 53 -10 3 -6 15 -10 26 -10 11 0 19 -7 19 -16 0 -12 6 -15 21 -11
26 7 109 -24 152 -57 18 -13 47 -26 65 -30 19 -3 54 -19 78 -36 25 -16 50 -30
55 -30 20 0 239 -230 239 -251 0 -6 11 -22 25 -37 27 -29 81 -117 87 -142 2
-8 12 -22 23 -32 11 -9 16 -17 11 -18 -4 0 -1 -11 8 -25 9 -14 18 -37 20 -52
2 -16 7 -52 11 -80 4 -29 4 -53 0 -53 -5 0 -22 11 -39 24 -17 13 -46 27 -64
30 -19 5 -32 14 -32 23 0 9 -8 22 -17 29 -16 12 -15 14 16 25 30 11 33 14 28
45 -3 18 -17 45 -31 60 -13 15 -29 46 -35 69 -6 22 -19 51 -30 64 -17 19 -26
22 -60 16 -34 -6 -43 -3 -72 23 -25 22 -32 36 -31 62 0 18 6 36 12 40 8 5 6
17 -6 43 -20 41 -24 41 -140 8 -38 -11 -83 -18 -100 -16 -16 2 -32 4 -36 4
-17 2 -47 92 -52 154 -6 81 -21 107 -59 107 -28 0 -63 -25 -162 -115 -68 -62
-73 -65 -92 -58 -35 13 -128 120 -158 181 -28 58 -32 61 -63 60 -18 -1 -36 -7
-40 -13 -9 -13 -31 -27 -107 -66 -81 -42 -121 -73 -156 -122 -16 -22 -29 -35
-29 -28 0 7 -4 10 -9 6 -25 -15 -103 144 -97 197 2 19 -4 27 -26 37 -20 9 -32
10 -41 2 -7 -6 -30 -12 -50 -15 -48 -6 -211 -94 -263 -143 -88 -82 -78 -77
-113 -48 -18 15 -36 44 -43 68 -6 23 -22 56 -35 73 -13 17 -23 39 -23 48 0 10
-6 24 -14 31 -18 18 -66 30 -66 17 0 -6 -26 -25 -57 -43 -59 -33 -125 -82
-177 -131 -36 -34 -40 -34 -63 -5 -30 39 -88 189 -97 254 -1 7 -5 16 -9 19 -4
4 -7 20 -7 34 0 15 -3 41 -6 57 -5 24 -10 29 -32 27 -15 -1 -40 -7 -55 -13
-16 -6 -59 -17 -97 -25 -37 -8 -98 -31 -134 -51 -65 -35 -66 -36 -65 -13 1 71
53 268 70 268 5 0 9 9 9 20 0 11 4 20 8 20 5 0 9 6 9 13 0 6 3 29 7 50 5 34 3
41 -33 76 -24 23 -56 43 -86 51 -26 7 -49 19 -52 26 -6 17 59 99 127 162 93
84 130 123 130 139 0 22 -57 109 -86 132 l-24 19 27 7 c15 3 40 17 56 31 16
13 33 22 38 18 5 -3 9 -1 9 3 0 11 65 35 109 40 19 2 42 8 51 13 10 5 20 6 24
3 3 -3 6 -1 6 5 0 7 9 12 19 12 11 0 23 5 26 10 4 6 14 10 23 9 41 -4 52 1 52
25 0 32 -20 87 -41 109 -17 19 -34 91 -24 108 10 15 53 11 156 -15 106 -26
169 -52 169 -70 0 -18 59 -37 81 -26 20 11 34 45 24 60 -4 6 -1 17 5 25 10 12
9 15 -4 15 -12 0 -16 9 -16 34 0 19 -4 38 -10 41 -5 3 -10 17 -10 30 0 18 4
22 20 18 11 -3 20 -9 20 -12 0 -4 33 -18 73 -31 39 -14 75 -28 78 -33 3 -5 9
-7 12 -5 10 5 47 -31 47 -46 0 -25 81 -38 96 -15 8 14 7 176 -1 189 -9 14 99
4 132 -12 15 -7 41 -36 58 -64 62 -104 69 -112 91 -110 46 5 90 58 125 151 11
30 24 55 28 55 4 0 23 -15 43 -32z m-479 -307 c18 5 61 9 97 9 l65 -1 -40 -35
c-22 -20 -73 -51 -112 -70 -64 -29 -72 -36 -69 -56 3 -13 5 -26 5 -30 1 -12
55 -58 67 -58 19 0 92 -58 99 -79 4 -15 -4 -30 -35 -60 -45 -44 -230 -171
-249 -171 -6 0 -11 -4 -11 -10 0 -5 -6 -10 -13 -10 -22 0 -56 -35 -53 -53 3
-24 46 -52 74 -48 38 5 126 -21 140 -41 7 -10 20 -18 28 -18 8 0 14 -2 14 -4
0 -4 -102 -107 -122 -122 -7 -6 -27 -19 -43 -29 -17 -10 -34 -24 -40 -30 -5
-6 -31 -26 -58 -44 -26 -18 -55 -43 -64 -57 -15 -23 -15 -26 5 -44 12 -11 23
-20 26 -20 3 0 16 -10 29 -22 14 -13 44 -33 68 -45 49 -26 41 -28 -46 -12 -33
6 -75 13 -92 15 -18 2 -52 9 -75 15 -52 15 -56 16 -66 18 -17 2 -28 109 -19
183 4 40 10 87 11 103 4 34 21 119 37 179 9 35 29 91 64 181 4 11 10 29 12 40
2 10 10 29 18 42 8 12 15 29 15 37 0 8 3 16 8 18 4 2 27 44 51 93 25 50 58
106 73 125 38 46 42 53 46 70 2 8 8 20 14 27 11 13 88 22 102 11 4 -3 22 -2
39 3z m377 -22 c25 -10 57 -23 71 -30 l26 -13 -72 -106 c-39 -58 -82 -127 -95
-155 -13 -27 -29 -57 -36 -65 -6 -8 -19 -37 -29 -65 -9 -27 -20 -57 -23 -65
-3 -8 -6 -20 -8 -27 -1 -6 -7 -27 -12 -45 -31 -98 -39 -323 -16 -414 8 -33 16
-75 18 -94 2 -19 6 -48 11 -64 l8 -29 -39 8 c-21 4 -70 9 -109 10 -40 2 -71 7
-73 14 -2 6 -10 11 -18 11 -7 0 -30 10 -51 22 -21 12 -54 29 -73 39 -19 10
-48 29 -64 43 -34 30 -30 37 47 90 29 20 63 44 77 55 14 12 29 21 33 21 5 0
26 18 47 40 21 22 42 40 47 40 5 0 19 14 32 30 21 29 21 32 5 65 -10 22 -23
35 -36 35 -10 0 -28 8 -39 18 -11 11 -39 25 -62 32 -76 23 -74 21 -51 30 12 5
25 13 28 19 4 6 24 18 44 28 20 9 41 23 45 30 4 7 12 13 17 13 11 0 39 22 84
66 18 17 46 37 64 45 23 10 32 20 32 38 0 25 -38 91 -52 91 -5 0 -8 6 -8 13 0
8 -11 19 -24 25 -14 6 -38 23 -54 38 l-29 28 80 48 c45 27 84 52 87 57 3 5 15
11 28 15 12 4 22 15 22 26 0 16 5 18 38 13 20 -3 57 -14 82 -24z m-645 -63
c-19 -23 -46 -69 -61 -101 -14 -33 -33 -71 -43 -85 -36 -54 -123 -299 -151
-426 -11 -53 -23 -100 -25 -104 -5 -8 -13 -132 -15 -205 -1 -66 -10 -71 -69
-36 -28 17 -54 31 -57 31 -2 0 -33 18 -68 40 -69 44 -166 140 -166 164 0 9 -5
16 -11 16 -5 0 -7 5 -4 10 4 6 1 18 -7 27 -9 12 -12 46 -11 124 2 95 5 115 30
168 15 33 31 60 35 61 4 0 40 33 81 73 41 39 89 86 108 102 38 34 115 75 142
75 9 0 17 5 17 10 0 18 122 68 195 80 39 7 77 16 85 20 31 17 29 -3 -5 -44z
m785 -1696 c41 -5 107 -9 145 -9 39 0 81 -4 95 -10 14 -5 19 -10 12 -10 -6 -1
-11 -4 -10 -8 7 -25 -132 -173 -162 -173 -19 1 -48 22 -52 40 -2 7 -11 22 -22
34 -10 11 -31 42 -47 69 -22 36 -34 47 -54 47 -14 0 -25 -4 -25 -8 0 -5 -30
-24 -67 -41 -38 -18 -78 -42 -91 -54 -47 -44 -83 -25 -107 56 -20 67 -19 75 8
80 35 6 294 -3 377 -13z m-493 -8 c7 -4 14 -17 16 -28 1 -12 10 -32 18 -45 8
-13 21 -43 28 -67 8 -29 22 -49 42 -61 49 -30 123 -14 147 31 8 14 38 35 71
49 47 21 59 23 69 12 7 -7 10 -13 8 -13 -3 0 5 -12 19 -27 13 -16 38 -45 56
-66 17 -20 42 -40 55 -43 13 -3 24 -10 24 -14 0 -4 18 -10 40 -12 23 -2 40 1
40 7 0 19 137 175 147 168 17 -14 44 37 32 60 -7 12 -1 15 32 15 40 1 255 -41
265 -51 10 -10 -25 -62 -73 -107 -72 -69 -173 -130 -221 -135 -23 -2 -46 -6
-50 -9 -11 -7 -159 -21 -192 -18 -14 1 -79 4 -145 6 -144 5 -303 28 -388 57
-98 32 -170 62 -189 78 -10 8 -18 11 -18 7 0 -4 -24 6 -54 23 -29 17 -59 31
-66 31 -12 0 -53 31 -117 88 -21 18 -33 49 -15 38 10 -6 322 20 330 28 8 9 75
7 89 -2z"/>
<path d="M1402 3973 c-14 -3 -37 -25 -58 -58 -34 -51 -35 -55 -23 -89 7 -20
19 -36 26 -36 7 0 13 -5 13 -11 0 -5 4 -8 8 -5 5 3 15 -6 22 -19 11 -21 19
-24 49 -20 55 7 97 32 122 73 36 57 32 99 -11 122 -15 8 -24 5 -44 -13 -14
-13 -22 -28 -18 -32 4 -4 0 -6 -8 -3 -8 2 -21 25 -29 51 -8 26 -17 46 -20 46
-3 -1 -16 -4 -29 -6z"/>
<path d="M1572 3662 c-41 -26 -57 -54 -54 -95 2 -32 26 -77 44 -83 10 -3 18
-8 18 -12 0 -4 34 -8 75 -10 49 -2 75 0 75 7 0 6 5 11 11 11 29 0 46 47 40
111 -1 18 -51 45 -51 28 0 -6 -4 -7 -10 -4 -5 3 -10 3 -10 -2 0 -4 -4 -15 -10
-23 -7 -12 -12 -12 -29 4 l-20 18 20 17 20 16 -21 23 c-26 28 -45 27 -98 -6z"/>
<path d="M1090 3492 c-43 -15 -39 -72 5 -86 16 -4 25 1 37 22 9 15 14 32 10
37 -14 20 -38 32 -52 27z"/>
</g>
</svg>
