<?xml version="1.0" standalone="no"?>
<!DOCTYPE svg PUBLIC "-//W3C//DTD SVG 20010904//EN"
 "http://www.w3.org/TR/2001/REC-SVG-20010904/DTD/svg10.dtd">
<svg version="1.0" xmlns="http://www.w3.org/2000/svg"
 width="369.000000pt" height="419.000000pt" viewBox="0 0 369.000000 419.000000"
 preserveAspectRatio="xMidYMid meet">
<metadata>
Created by potrace 1.16, written by Peter Selinger 2001-2019
</metadata>
<g transform="translate(0.000000,419.000000) scale(0.100000,-0.100000)"
fill="#000000" stroke="none">
<path d="M1195 4000 c-16 -3 -43 -16 -58 -30 -16 -14 -31 -23 -34 -21 -11 7
-102 -102 -113 -135 -6 -18 -14 -33 -18 -33 -22 3 -27 -5 -26 -38 1 -21 2 -42
4 -48 5 -19 0 -30 -31 -65 -16 -19 -37 -47 -47 -62 -9 -16 -20 -28 -24 -28 -4
0 -8 -6 -8 -12 -1 -7 -32 -47 -70 -88 -39 -41 -70 -78 -70 -83 0 -9 -128 -162
-180 -216 -20 -20 -50 -57 -68 -83 -18 -26 -40 -49 -50 -53 -9 -3 -33 -27 -52
-53 -19 -25 -47 -58 -61 -73 -15 -14 -32 -37 -39 -49 -16 -29 -140 -193 -152
-201 -18 -12 -4 -54 19 -57 21 -3 31 4 84 64 15 16 63 64 108 107 44 43 81 82
81 87 0 6 6 10 13 10 16 0 86 51 87 63 0 20 94 96 132 109 23 7 46 21 52 32
19 33 106 116 122 116 16 0 96 65 178 143 26 26 52 47 56 47 5 0 17 13 26 29
22 37 54 48 61 21 3 -11 14 -22 24 -25 10 -4 19 -10 19 -15 0 -9 77 -126 98
-149 7 -7 20 -31 29 -52 8 -22 19 -39 23 -39 4 0 10 -15 13 -32 10 -58 37
-179 41 -187 10 -15 18 -68 21 -127 1 -34 5 -65 8 -70 8 -13 25 -153 31 -251
3 -46 10 -92 16 -103 6 -12 17 -51 25 -88 23 -116 85 -310 130 -405 37 -79 56
-106 141 -193 121 -123 174 -162 282 -206 28 -11 33 -17 30 -43 -1 -17 1 -36
6 -43 9 -15 13 -31 37 -162 11 -58 26 -114 33 -125 17 -28 43 -101 56 -158 9
-43 8 -53 -15 -101 -14 -29 -25 -56 -25 -60 0 -5 -8 -20 -19 -34 -10 -15 -22
-37 -25 -50 -4 -12 -22 -45 -40 -73 -19 -27 -53 -88 -76 -134 -24 -47 -48 -85
-55 -85 -7 0 -25 -6 -41 -14 -16 -8 -60 -22 -99 -32 -89 -21 -219 -79 -223
-99 -5 -24 19 -47 45 -42 19 3 22 1 17 -18 -9 -36 17 -48 64 -30 22 9 43 23
46 31 8 21 21 17 34 -11 14 -31 52 -33 72 -4 8 12 37 39 64 60 26 22 59 56 73
77 14 20 27 38 28 40 7 8 74 -28 83 -43 8 -16 14 -16 48 -5 46 16 64 32 64 59
0 22 -25 33 -83 36 -38 2 -66 25 -67 55 0 13 15 43 67 135 7 11 23 45 37 75
14 30 35 69 45 85 11 17 20 38 20 48 1 9 5 17 10 17 12 0 36 61 33 85 -2 11
-7 31 -11 45 -5 14 -17 52 -26 85 -10 33 -26 76 -36 95 -22 41 -48 203 -39
240 4 14 2 31 -3 38 -7 8 -4 12 8 12 24 0 85 -47 85 -66 0 -8 7 -17 15 -20 8
-4 15 -14 15 -23 0 -12 2 -13 9 -3 7 11 9 11 14 -2 4 -9 14 -16 24 -16 14 0
15 -2 5 -9 -11 -7 -11 -19 2 -72 9 -35 18 -94 21 -130 3 -36 10 -90 16 -120 5
-30 9 -80 9 -112 -1 -31 3 -57 8 -57 18 0 21 -71 5 -106 -9 -19 -20 -34 -25
-34 -4 0 -8 -10 -8 -22 0 -13 -7 -32 -15 -42 -8 -11 -15 -27 -15 -35 0 -9 -13
-42 -29 -73 -16 -32 -32 -72 -36 -90 -14 -63 -33 -88 -67 -88 -17 0 -36 -6
-42 -14 -15 -18 -175 -79 -195 -73 -29 7 -56 -42 -31 -58 18 -11 -1 -32 -40
-45 -43 -14 -59 -42 -40 -65 16 -20 32 -19 72 4 44 25 83 37 74 22 -11 -18 3
-48 24 -54 12 -3 35 6 59 23 21 16 42 26 45 23 3 -4 6 0 6 8 1 20 69 69 97 69
12 0 23 5 23 11 0 14 105 2 139 -16 39 -20 81 -1 81 36 0 24 -5 30 -37 38 -21
6 -46 11 -56 11 -32 0 -87 29 -87 45 0 10 6 29 14 43 8 15 25 59 37 97 22 70
73 184 128 283 30 55 30 58 0 138 -4 13 -3 26 4 33 7 7 7 11 1 11 -22 0 -43
127 -58 355 -3 39 -5 71 -5 71 -1 1 -13 5 -27 8 -21 6 -23 10 -14 21 9 11 7
18 -9 34 -12 12 -18 21 -13 22 4 0 -4 5 -18 11 -32 13 -23 15 73 21 l78 4 -30
-28 c-17 -15 -31 -32 -32 -36 0 -4 -2 -16 -4 -27 -6 -30 5 -46 32 -46 37 0 63
18 63 43 0 35 106 154 183 207 20 14 37 28 37 31 0 16 65 72 108 92 37 18 63
23 117 22 68 -2 69 -2 107 -46 21 -24 47 -62 59 -84 53 -105 65 -114 117 -84
18 10 39 19 45 19 7 0 30 12 50 26 28 18 46 24 64 19 19 -4 31 0 48 20 13 14
33 25 44 25 38 0 51 11 51 44 0 18 -5 37 -12 44 -7 7 -9 12 -5 12 11 0 -20 87
-42 118 -11 17 -21 37 -21 46 0 9 -3 16 -8 16 -4 0 -22 24 -39 53 -31 51 -124
147 -143 147 -19 0 -10 16 20 33 16 10 46 38 66 62 20 25 40 42 45 40 16 -11
50 39 47 70 -3 28 -5 30 -48 30 -25 0 -49 3 -55 6 -5 4 -29 10 -52 14 -24 4
-45 11 -48 15 -3 5 -12 7 -20 3 -8 -3 -15 0 -15 7 0 9 -4 10 -13 2 -8 -7 -47
-9 -107 -6 -134 7 -268 13 -316 13 -40 0 -284 68 -294 81 -3 4 -36 24 -75 44
-87 45 -156 89 -226 142 -30 23 -78 54 -108 70 -48 25 -141 116 -141 137 0 4
-22 54 -49 110 -97 203 -104 222 -121 342 -15 100 -52 212 -126 370 -12 28
-33 73 -45 100 -36 83 -109 174 -170 210 -9 6 -28 18 -42 29 -41 28 -121 46
-172 36z m123 -102 c69 -35 97 -58 148 -123 52 -66 95 -174 87 -217 -3 -17 2
-32 15 -44 22 -21 73 -118 90 -174 6 -19 16 -66 22 -105 12 -76 30 -136 60
-202 11 -24 20 -47 20 -53 0 -6 4 -18 9 -28 18 -34 61 -133 61 -140 0 -11 61
-102 89 -134 13 -15 56 -47 95 -70 39 -23 80 -50 90 -60 11 -10 24 -18 29 -18
5 0 27 -15 50 -32 45 -36 88 -64 158 -102 35 -19 48 -32 52 -56 4 -16 10 -30
14 -29 21 3 43 -2 55 -14 7 -7 32 -18 55 -25 54 -16 69 -36 22 -30 -53 8 -172
43 -209 62 -49 24 -100 3 -80 -33 9 -17 51 -40 110 -61 43 -16 120 -62 120
-73 0 -14 -54 5 -162 57 -117 56 -153 59 -153 16 0 -21 16 -32 105 -78 117
-60 154 -86 164 -119 7 -21 4 -23 -24 -23 -63 0 -207 85 -222 131 -2 7 -11 10
-20 6 -12 -4 -15 -15 -11 -44 3 -21 10 -41 15 -44 6 -4 7 -13 3 -20 -5 -8 -5
-11 0 -7 4 4 20 -1 35 -12 16 -11 34 -20 42 -20 8 0 18 -4 23 -9 13 -11 102
-42 142 -48 19 -3 41 2 56 11 19 13 30 14 55 5 18 -6 32 -14 32 -19 0 -9 -76
-15 -195 -14 -82 1 -96 4 -160 36 -119 60 -215 174 -243 288 -10 41 -39 51
-65 22 -16 -18 -16 -22 5 -73 63 -155 192 -281 334 -326 30 -9 54 -19 54 -22
0 -12 218 0 290 16 41 9 84 17 95 19 11 1 46 10 77 18 31 9 85 20 120 26 126
20 152 28 222 62 36 19 64 27 75 22 9 -4 23 -8 32 -9 53 -6 207 -205 225 -291
1 -6 5 -25 8 -41 6 -27 4 -31 -21 -36 -29 -5 -52 14 -53 45 0 9 -4 20 -10 23
-5 3 -10 14 -10 23 0 25 -46 107 -59 106 -6 -1 -20 -2 -30 -2 -10 -1 -22 -9
-25 -18 -6 -15 9 -53 24 -64 21 -15 88 -136 80 -144 -5 -5 -11 -8 -13 -5 -19
25 -71 118 -96 172 -26 54 -36 67 -55 67 -13 0 -29 -6 -35 -14 -19 -23 -2 -86
33 -121 17 -17 45 -54 63 -83 30 -49 31 -52 13 -62 -31 -17 -45 -12 -64 23
-39 72 -46 84 -85 121 -37 36 -45 39 -125 49 -124 16 -173 -2 -268 -94 -39
-38 -75 -69 -80 -69 -4 0 -8 -4 -8 -9 0 -13 -69 -43 -81 -35 -6 4 -15 1 -20
-7 -12 -20 -147 -26 -154 -6 -5 12 -11 12 -31 3 -13 -6 -27 -19 -30 -29 -4
-13 -11 -16 -22 -12 -10 4 -39 9 -67 11 -27 2 -61 6 -75 10 -52 12 -197 88
-245 127 -66 55 -197 196 -211 227 -6 14 -25 56 -44 93 -61 126 -135 418 -144
572 -3 44 -12 126 -20 182 -9 57 -15 106 -14 110 3 13 -13 106 -23 138 -6 17
-12 47 -15 68 -8 64 -59 182 -129 298 -47 78 -64 116 -60 130 7 21 -22 52 -38
42 -4 -2 -5 7 -1 21 5 21 -2 33 -45 76 -49 49 -73 60 -86 40 -4 -6 -9 -8 -13
-6 -4 2 -18 -13 -31 -34 -13 -21 -34 -44 -47 -51 -13 -7 -26 -20 -29 -30 -3
-9 -19 -23 -36 -29 -17 -7 -41 -29 -54 -49 -26 -41 -63 -77 -71 -69 -3 3 6 18
20 33 15 16 26 31 26 35 0 3 19 26 43 51 23 25 60 68 81 96 22 29 43 50 48 47
4 -3 8 -1 8 5 0 6 9 18 19 28 10 10 22 36 25 58 10 71 12 75 37 114 23 37 101
93 144 104 11 2 22 5 23 6 2 0 33 -14 70 -31z m-198 -349 c0 -6 -33 -44 -74
-85 -40 -41 -78 -85 -85 -97 -6 -12 -27 -33 -46 -45 -19 -13 -41 -34 -49 -46
-8 -13 -39 -35 -70 -50 -38 -19 -53 -31 -49 -41 3 -9 -1 -15 -8 -15 -8 0 -39
-23 -69 -52 -30 -28 -66 -58 -79 -67 -23 -15 -24 -15 -12 7 6 12 15 22 19 22
4 0 24 21 45 48 20 26 53 63 74 83 21 20 79 76 129 125 171 167 226 212 272
223 1 1 2 -4 2 -10z m-702 -641 c-2 -6 -11 -15 -19 -18 -8 -4 -25 -13 -38 -20
l-24 -12 24 30 c23 30 65 44 57 20z m2244 -637 c54 -22 66 -24 121 -22 31 1
57 -2 57 -7 0 -11 -85 -48 -144 -63 -41 -10 -46 -14 -46 -40 0 -26 4 -29 33
-31 17 -1 41 -3 52 -4 11 -1 26 -2 33 -3 6 -1 12 -6 12 -12 0 -20 -126 -4
-176 22 -47 26 -58 53 -24 64 29 9 53 50 48 80 -6 27 -1 30 34 16z m308 -41
c0 -11 5 -22 11 -25 7 -5 3 -14 -10 -26 -12 -11 -21 -31 -21 -45 0 -14 -4 -22
-10 -19 -6 3 -7 -1 -4 -10 4 -10 -3 -29 -15 -46 -13 -17 -20 -37 -17 -47 5
-15 -4 -20 -54 -30 -33 -7 -65 -10 -70 -7 -19 12 -10 31 23 49 17 9 45 24 60
32 57 31 62 94 8 94 -23 0 -29 4 -25 15 4 8 12 15 20 15 8 0 14 4 14 9 0 4 13
22 30 39 31 33 60 34 60 2z m-295 -222 c19 -2 31 -9 33 -20 4 -23 -35 -24
-104 -3 -27 8 -59 15 -71 15 -14 0 -24 9 -31 28 -16 46 4 50 77 15 36 -18 79
-33 96 -35z"/>
<path d="M1207 3808 c-3 -10 -15 -18 -25 -18 -48 0 -55 -70 -11 -103 26 -19
28 -19 58 -1 31 18 37 40 22 77 -4 10 -11 18 -16 17 -6 -1 -12 9 -15 22 -5 20
-7 21 -13 6z"/>
</g>
</svg>
