<?xml version="1.0" standalone="no"?>
<!DOCTYPE svg PUBLIC "-//W3C//DTD SVG 20010904//EN"
 "http://www.w3.org/TR/2001/REC-SVG-20010904/DTD/svg10.dtd">
<svg version="1.0" xmlns="http://www.w3.org/2000/svg"
 width="519.000000pt" height="451.000000pt" viewBox="0 0 519.000000 451.000000"
 preserveAspectRatio="xMidYMid meet">
<metadata>
Created by potrace 1.16, written by Peter Selinger 2001-2019
</metadata>
<g transform="translate(0.000000,451.000000) scale(0.100000,-0.100000)"
fill="#000000" stroke="none">
<path d="M3950 4153 c0 -5 -19 -17 -42 -27 -45 -20 -70 -39 -134 -101 -83 -81
-100 -93 -139 -98 -140 -20 -154 -25 -253 -97 -90 -66 -179 -145 -332 -296
-25 -24 -50 -44 -56 -44 -6 0 -17 -11 -24 -25 -7 -14 -20 -25 -27 -25 -8 0
-20 -15 -28 -32 -12 -29 -47 -68 -60 -68 -7 0 -79 -75 -130 -135 -53 -63 -88
-140 -75 -165 9 -16 1 -18 -83 -25 -51 -3 -121 -12 -157 -20 -36 -7 -72 -13
-80 -13 -8 -1 -49 -4 -90 -7 -41 -4 -124 -8 -185 -10 -60 -2 -125 -6 -145 -9
-19 -3 -109 -8 -200 -11 -91 -4 -181 -10 -200 -15 -39 -9 -243 -23 -306 -21
-62 3 -191 -27 -261 -59 -86 -39 -223 -167 -260 -241 -12 -24 -31 -54 -42 -66
-12 -12 -21 -27 -21 -33 0 -5 -5 -10 -12 -10 -6 0 -9 -3 -5 -6 3 -3 -7 -27
-21 -52 -15 -26 -34 -59 -41 -74 -8 -16 -18 -28 -23 -28 -5 0 -6 -4 -3 -10 3
-5 2 -10 -4 -10 -6 0 -15 -18 -21 -40 -6 -21 -15 -42 -20 -45 -6 -3 -10 -13
-10 -21 0 -9 -16 -39 -35 -68 -19 -29 -46 -77 -59 -107 -14 -30 -43 -87 -66
-128 -22 -40 -40 -82 -40 -92 0 -10 -4 -19 -10 -19 -5 0 -10 -6 -10 -14 0 -8
-9 -17 -19 -21 -13 -4 -18 -12 -14 -22 4 -10 -1 -21 -13 -30 -10 -8 -19 -17
-19 -21 0 -4 -14 -27 -30 -52 -42 -64 -62 -107 -74 -165 -11 -55 -26 -224 -21
-240 13 -44 13 -173 -1 -206 -9 -23 -8 -32 8 -53 10 -14 28 -29 40 -32 28 -8
122 43 133 71 4 11 27 43 51 70 24 28 50 61 58 75 8 13 24 42 36 65 51 92 85
150 85 145 0 -3 -6 -27 -13 -55 -24 -89 -14 -132 65 -293 40 -81 73 -149 73
-152 1 -3 6 -16 12 -30 11 -25 25 -60 28 -70 0 -3 9 -20 18 -37 10 -18 15 -33
13 -33 -3 0 -1 -12 6 -27 16 -41 22 -120 23 -293 0 -92 -5 -167 -11 -185 -36
-95 -39 -115 -17 -136 l20 -20 29 24 c20 17 31 36 32 59 6 80 7 81 107 82 33
1 66 5 73 10 22 13 22 3 5 -58 -16 -56 -16 -58 5 -79 l22 -21 25 24 c16 15 25
34 25 54 0 16 4 43 9 60 19 64 34 164 36 251 3 74 14 246 18 265 0 3 -5 50
-11 105 -7 55 -14 120 -17 143 l-4 44 54 -59 c30 -32 54 -64 55 -70 0 -7 7
-13 15 -13 9 0 20 -10 25 -22 11 -24 32 -60 40 -68 13 -12 69 -138 75 -170 4
-19 13 -55 21 -79 8 -23 17 -66 20 -95 3 -28 12 -76 19 -106 8 -30 17 -78 21
-106 9 -72 15 -80 52 -65 28 12 31 17 34 68 2 34 -2 62 -9 72 -19 24 -17 27
40 54 89 44 82 52 86 -90 1 -55 21 -75 61 -61 34 11 33 4 16 128 -8 52 -10
101 -6 109 4 8 1 30 -7 48 -8 20 -13 60 -11 96 2 82 -11 272 -23 322 -5 22
-11 47 -13 56 -2 8 -11 40 -20 69 -9 30 -16 66 -16 81 0 31 19 79 31 79 4 0
10 11 13 25 4 14 11 25 16 25 6 0 10 4 10 8 0 5 22 46 50 91 27 46 49 86 48
90 -1 3 4 20 11 36 7 17 17 40 22 53 8 21 14 22 131 23 300 1 350 7 522 60 35
11 47 4 41 -24 -2 -12 -7 -69 -10 -127 -15 -286 -20 -328 -51 -407 -13 -34
-24 -70 -24 -80 0 -18 66 -153 80 -163 4 -3 19 -25 33 -50 35 -61 46 -144 46
-367 0 -100 2 -187 5 -192 3 -5 2 -20 -3 -33 -11 -30 6 -68 31 -68 10 0 21 7
24 15 4 8 10 13 14 10 4 -3 11 6 14 19 5 20 17 25 86 40 44 10 80 22 80 27 0
5 3 9 8 9 4 0 5 -22 4 -49 -2 -27 1 -58 7 -70 12 -21 51 -30 51 -11 0 6 7 10
16 10 11 0 15 6 11 20 -3 11 -2 22 2 25 9 5 8 35 0 50 -3 6 -5 24 -3 40 3 24
3 302 0 466 0 24 7 43 23 60 28 30 48 72 69 149 14 50 7 86 -28 152 -7 12 0
34 22 77 18 33 36 57 40 55 13 -8 9 -116 -6 -158 -16 -46 -6 -107 26 -150 12
-16 22 -40 24 -52 1 -13 11 -52 22 -86 12 -35 23 -90 25 -123 2 -33 8 -69 14
-80 5 -11 10 -47 11 -80 2 -80 11 -203 18 -241 3 -18 1 -42 -6 -54 -21 -38
-22 -68 -3 -79 10 -5 20 -10 23 -12 3 -1 14 3 26 9 28 15 45 77 35 129 -5 24
-4 40 1 37 8 -5 84 18 120 37 10 5 31 9 48 9 l30 0 0 -77 c1 -97 14 -122 57
-101 26 13 28 17 29 78 0 80 -9 133 -40 230 -22 68 -39 179 -52 334 -2 32 -7
62 -9 67 -3 4 -1 10 4 14 6 3 6 17 -1 35 -8 23 -7 36 4 53 45 70 68 252 39
305 -25 46 -28 76 -16 172 4 36 9 94 10 130 2 36 6 75 9 88 3 13 1 34 -4 47
-8 20 -4 28 26 54 36 30 117 151 129 193 4 13 13 37 20 53 8 17 33 86 56 155
23 69 49 139 57 155 9 17 17 32 17 35 10 39 17 67 21 78 2 7 4 14 4 17 0 3 9
21 21 41 11 20 18 39 15 41 -3 3 1 18 10 34 8 16 12 29 10 29 -3 0 2 17 11 38
8 20 19 47 24 59 l8 22 43 -25 c69 -40 83 -49 88 -55 3 -4 16 -9 30 -11 14 -2
24 -9 22 -16 -2 -9 4 -11 17 -7 23 7 109 -17 164 -46 21 -11 73 -48 115 -83
46 -36 105 -73 142 -88 60 -24 74 -25 179 -21 62 3 128 11 145 18 29 12 126
105 126 120 0 4 6 21 14 38 24 55 46 129 46 158 0 16 -9 44 -20 64 -11 20 -20
40 -20 45 0 11 -64 75 -111 112 -16 12 -40 31 -52 42 -12 10 -53 41 -90 69
-79 58 -147 152 -147 205 0 8 -22 48 -50 89 -27 40 -50 76 -50 78 0 7 -28 41
-77 93 -24 25 -43 51 -43 57 0 6 -12 18 -27 25 -50 25 -51 28 -41 68 5 20 10
43 10 50 1 6 5 12 10 12 4 0 8 6 8 13 0 7 29 57 65 112 72 110 80 141 39 151
-24 6 -128 -20 -194 -49 -14 -6 -30 -11 -35 -12 -12 0 -112 -72 -117 -83 -4
-9 -59 -47 -79 -54 -28 -11 -25 127 6 245 26 102 32 166 15 168 -20 3 -25 4
-37 12 -7 5 -13 4 -13 0z m-25 -120 c-9 -54 -28 -123 -35 -123 -4 0 -7 -37 -7
-83 -1 -74 -4 -88 -32 -136 -18 -29 -30 -55 -27 -58 2 -3 -2 -19 -9 -38 -8
-18 -12 -35 -9 -37 6 -7 -14 -55 -39 -90 -10 -16 -15 -28 -11 -28 3 0 1 -6 -5
-14 -19 -23 -4 -83 22 -90 44 -12 55 -7 62 27 11 51 54 117 111 175 59 57 73
61 112 33 15 -10 50 -30 78 -44 37 -19 55 -35 62 -56 6 -16 20 -32 32 -36 19
-6 22 -12 17 -46 -4 -31 0 -43 20 -65 38 -41 64 -211 50 -324 -13 -96 -20
-131 -31 -138 -17 -11 -66 -109 -66 -132 0 -21 33 -40 68 -40 24 0 131 108
138 139 4 14 14 37 23 51 32 49 47 105 44 160 l-3 55 25 -44 c14 -23 25 -49
25 -56 0 -7 9 -15 20 -18 16 -4 19 -11 15 -34 -2 -15 -7 -57 -9 -92 -3 -35
-11 -71 -19 -80 -8 -9 -22 -31 -32 -50 -17 -33 -16 -34 7 -57 35 -36 78 -41
108 -12 33 31 105 119 106 130 1 4 2 17 3 28 1 20 3 19 37 -7 40 -31 144 -159
144 -177 0 -6 -14 -46 -31 -88 -21 -52 -43 -88 -65 -108 -40 -35 -50 -37 -59
-11 -8 27 -51 32 -71 10 -10 -11 -21 -19 -26 -19 -12 0 -81 78 -96 110 -8 16
-27 34 -43 40 -26 11 -31 10 -49 -11 -25 -31 -25 -31 5 -59 14 -13 32 -36 39
-52 l14 -28 -41 25 c-23 13 -55 31 -72 38 -16 8 -41 27 -55 42 -38 42 -87 69
-175 97 -141 46 -136 43 -120 74 15 29 11 144 -5 154 -4 3 -10 12 -12 20 -2 7
-15 26 -30 42 -16 15 -28 32 -28 37 0 5 -23 31 -51 58 -28 26 -57 63 -65 81
-17 37 -56 57 -83 42 -22 -11 -34 -60 -19 -77 6 -7 7 -13 2 -13 -5 0 0 -7 10
-15 11 -8 16 -15 12 -15 -4 0 1 -12 12 -27 24 -34 88 -169 95 -200 6 -28 -4
-29 -28 -3 -10 11 -24 20 -32 20 -7 0 -16 7 -19 15 -4 8 -12 15 -20 15 -7 0
-26 17 -41 38 -15 20 -34 43 -40 50 -7 7 -13 20 -13 27 0 8 -11 35 -25 60 -37
71 -53 257 -28 344 61 221 62 230 38 255 -12 12 -27 14 -63 9 -49 -6 -82 -32
-82 -63 0 -9 -7 -36 -15 -61 -8 -24 -16 -55 -18 -69 -1 -14 -8 -35 -15 -47 -7
-12 -13 -49 -14 -82 -1 -34 -5 -61 -8 -61 -3 0 -3 -24 2 -52 23 -159 32 -204
44 -211 7 -4 16 -23 20 -42 3 -19 10 -35 15 -35 5 0 9 -6 9 -13 0 -15 87 -132
124 -166 14 -14 26 -30 26 -37 0 -7 12 -22 26 -33 15 -12 22 -21 15 -21 -6 0
-11 -7 -11 -15 0 -8 -4 -15 -10 -15 -5 0 -10 -10 -10 -22 0 -30 -15 -12 -30
37 -14 44 -92 176 -115 195 -8 7 -15 16 -15 21 0 11 -73 133 -82 137 -5 2 -8
10 -8 17 0 8 -6 18 -12 22 -16 10 -48 69 -48 88 0 7 -6 25 -14 40 -16 31 -13
102 10 253 8 49 -13 82 -53 82 -31 0 -29 10 10 42 28 24 50 41 131 103 10 8
32 17 47 20 24 6 29 12 35 53 5 41 40 111 77 159 26 34 174 180 207 205 44 34
50 34 45 1z m-392 -210 c15 -53 15 -72 3 -108 -14 -40 -36 -59 -36 -31 0 9 -4
16 -10 16 -5 0 -9 3 -8 8 4 13 -32 72 -44 72 -19 0 32 49 56 53 11 2 24 5 28
6 4 0 9 -7 11 -16z m771 -15 c-10 -17 -57 -82 -64 -88 -11 -9 -40 -78 -40 -92
0 -8 -2 -17 -6 -20 -6 -7 -80 28 -89 42 -3 5 -15 10 -25 10 -26 0 -34 16 -15
32 9 7 28 25 42 40 46 49 221 116 197 76z m-977 -100 c-3 -8 -6 -5 -6 6 -1 11
2 17 5 13 3 -3 4 -12 1 -19z m-57 -104 c0 -8 4 -14 9 -14 6 0 22 -12 38 -26
l27 -25 -33 -30 c-39 -34 -51 -36 -51 -10 0 12 -15 26 -45 40 -25 12 -45 24
-45 28 0 4 17 22 37 39 38 33 63 32 63 -2z m55 -184 c-10 -11 -22 -17 -28 -13
-6 4 -1 14 13 25 29 23 39 15 15 -12z m-276 -26 c18 -9 35 -22 38 -30 3 -8 11
-14 18 -14 27 0 21 -28 -14 -69 -33 -38 -39 -41 -50 -27 -8 9 -18 16 -23 16
-6 0 -26 16 -45 35 -38 38 -36 58 9 89 28 20 28 20 67 0z m216 -33 c3 -5 -2
-17 -11 -25 -13 -14 -13 -17 -1 -22 14 -5 27 -83 32 -201 2 -28 5 -56 9 -61 3
-5 7 -34 8 -63 2 -61 15 -86 73 -144 43 -42 97 -105 137 -156 12 -17 35 -45
51 -62 15 -17 27 -37 27 -44 0 -7 9 -27 20 -45 11 -18 20 -45 20 -60 0 -15 5
-30 10 -33 6 -3 10 -17 10 -31 0 -13 8 -29 19 -35 19 -13 20 -11 -17 -118
l-15 -44 -18 39 c-10 22 -18 44 -19 50 0 5 -8 19 -18 30 -10 10 -24 39 -32 63
-8 24 -20 45 -27 48 -7 3 -10 9 -7 14 5 8 -29 63 -52 84 -7 5 -17 27 -24 48
-6 20 -15 37 -18 37 -4 0 -20 23 -37 51 -16 27 -45 72 -62 100 -18 28 -33 56
-33 62 0 7 -9 23 -20 37 -11 14 -20 32 -20 41 0 8 -4 19 -9 25 -16 17 -43 115
-38 140 2 13 0 27 -6 31 -20 12 -76 20 -79 11 -3 -9 -26 -15 -57 -17 -7 -1
-11 -7 -8 -14 3 -7 -3 -19 -14 -25 -10 -7 -19 -22 -18 -35 0 -12 -3 -43 -7
-69 -6 -46 -5 -49 32 -91 6 -7 18 -26 27 -42 8 -17 26 -42 38 -56 13 -14 32
-40 42 -57 9 -17 37 -50 60 -74 24 -24 54 -59 67 -78 13 -19 27 -37 30 -40 4
-3 15 -20 26 -39 10 -18 34 -49 52 -69 17 -20 32 -40 32 -44 0 -8 9 -21 38
-53 6 -7 12 -19 12 -25 0 -6 10 -26 23 -45 15 -22 22 -46 21 -67 -1 -18 2 -38
8 -45 5 -7 12 -57 13 -111 l4 -99 -37 -55 c-58 -86 -71 -102 -78 -96 -3 4 -1
22 5 40 10 32 24 112 23 133 0 16 -49 234 -70 315 -20 79 -37 119 -74 185 -24
42 -29 47 -103 129 -25 27 -45 56 -45 63 0 7 -4 13 -10 13 -5 0 -10 11 -10 24
0 31 -18 44 -55 40 -40 -4 -51 -23 -58 -98 -5 -57 -26 -134 -74 -276 -8 -25
-23 -74 -33 -110 -20 -71 -54 -148 -85 -194 -27 -41 -130 -146 -143 -146 -6 0
-16 -16 -22 -35 -6 -19 -15 -35 -20 -35 -5 0 -11 -14 -15 -30 -6 -26 0 -39 36
-87 24 -30 49 -57 56 -60 35 -14 5 -46 -119 -130 -86 -58 -90 -56 -77 37 4 24
5 79 2 121 -3 48 0 79 6 84 22 13 12 54 -18 71 l-30 17 47 50 c26 28 55 58 65
69 9 10 17 20 17 23 0 3 19 25 43 48 24 23 49 54 57 70 7 15 17 27 22 27 4 0
8 7 8 16 0 8 14 57 32 107 30 88 37 120 57 252 5 33 15 76 23 95 8 19 14 46
13 60 -2 14 3 39 10 56 30 72 -25 183 -87 176 -16 -2 -28 -4 -29 -5 0 -1 -2
-36 -4 -77 -5 -81 -12 -154 -21 -210 -8 -52 -56 -190 -66 -190 -4 0 -8 -11 -8
-25 0 -29 -36 -124 -56 -146 -8 -8 -14 -24 -14 -35 0 -10 -16 -39 -35 -63 -19
-24 -35 -48 -35 -52 0 -5 -7 -9 -15 -9 -8 0 -15 -4 -15 -9 0 -9 -74 -61 -88
-61 -5 0 -31 -21 -59 -47 -28 -27 -79 -75 -115 -108 -35 -34 -72 -78 -81 -98
-10 -20 -22 -37 -27 -37 -6 0 -10 -10 -10 -22 0 -13 0 -30 -1 -38 -1 -8 0 -22
2 -30 3 -11 -9 -15 -58 -18 l-63 -3 0 35 c0 53 19 129 38 151 9 11 42 34 73
50 82 43 169 105 169 119 0 7 30 47 68 89 95 106 127 155 175 267 16 37 55
169 62 207 2 12 8 37 14 55 6 18 12 54 15 80 2 25 7 52 11 58 4 6 7 45 6 85
-1 41 3 76 8 79 5 3 7 14 4 25 -4 17 2 18 67 17 41 0 74 4 78 10 4 6 28 17 54
24 25 8 64 30 85 49 22 20 54 48 73 62 19 15 55 52 80 84 25 32 66 81 91 109
25 28 52 61 58 74 12 23 26 28 36 13z m-409 -216 c24 -25 44 -49 44 -54 0 -12
-102 -61 -127 -61 -30 0 -55 48 -41 75 25 48 54 85 66 85 8 0 34 -20 58 -45z
m-387 -243 c-9 -28 -8 -97 3 -107 19 -20 -29 -269 -56 -287 -6 -4 -8 -10 -4
-13 7 -7 -57 -175 -95 -248 -31 -59 -119 -157 -142 -157 -9 0 -19 -9 -22 -21
-6 -23 -99 -73 -157 -83 -43 -8 -84 -31 -104 -58 -7 -9 -19 -23 -27 -31 -8 -8
-11 -17 -8 -21 4 -3 -6 -31 -22 -61 -24 -49 -27 -61 -20 -112 4 -31 9 -62 12
-70 3 -8 0 -11 -8 -8 -8 3 -41 7 -74 9 -71 5 -115 12 -123 20 -3 3 1 6 9 6 33
1 52 29 56 82 2 28 7 55 12 58 7 4 17 44 27 105 1 11 12 45 24 75 45 115 50
149 25 174 -12 12 -22 13 -41 6 -29 -11 -104 -88 -104 -106 0 -6 -6 -17 -14
-23 -8 -6 -19 -33 -25 -59 -6 -26 -18 -63 -26 -82 -7 -19 -21 -62 -30 -95 -10
-33 -20 -70 -24 -82 l-6 -23 -37 23 -38 22 50 103 c54 113 80 180 86 229 2 17
8 42 13 55 10 26 -2 58 -22 58 -7 0 -21 11 -31 25 -20 26 -60 33 -72 13 -4 -7
-9 -26 -11 -43 -4 -42 -23 -112 -45 -163 -22 -54 -57 -92 -124 -137 -56 -37
-120 -109 -179 -200 -22 -33 -44 -65 -50 -71 -5 -6 -19 -23 -30 -38 -11 -16
-26 -34 -33 -41 -6 -8 -12 -19 -12 -25 0 -6 -35 -27 -77 -48 -43 -20 -79 -40
-81 -44 -2 -4 -10 -8 -18 -8 -21 0 -176 -160 -170 -176 3 -8 0 -14 -7 -14 -7
0 -13 -8 -14 -17 -1 -10 -6 -36 -12 -58 -9 -34 -8 -44 7 -64 33 -45 51 -49 75
-20 37 45 72 91 75 100 2 5 8 9 13 9 5 0 23 16 40 35 17 19 36 35 41 35 6 0
24 11 40 25 16 14 34 22 39 19 6 -3 23 9 38 27 18 21 31 28 35 20 4 -6 1 -14
-7 -17 -9 -3 -21 -18 -27 -34 -7 -16 -21 -32 -31 -35 -10 -4 -19 -15 -19 -25
0 -10 -4 -22 -10 -25 -5 -3 -10 -14 -10 -23 0 -9 -26 -42 -58 -74 -32 -31 -63
-68 -70 -82 -6 -14 -16 -26 -22 -26 -16 0 -70 -62 -63 -73 3 -5 0 -8 -7 -5 -8
2 -17 11 -20 19 -4 8 -27 55 -50 104 -24 50 -44 92 -45 95 0 3 -4 11 -8 17 -4
7 -15 35 -23 63 -16 55 -12 108 10 143 8 12 22 49 31 82 9 33 23 83 31 110 18
62 20 247 3 307 -17 63 -4 233 22 276 10 18 19 39 19 47 0 17 -37 38 -54 32
-14 -6 -66 -92 -66 -111 0 -13 -70 -128 -83 -137 -5 -4 -6 -12 -3 -18 4 -6 3
-11 -1 -11 -5 0 -17 -21 -26 -47 -16 -46 -19 -62 -33 -144 -4 -22 1 -64 11
-103 29 -120 26 -207 -10 -263 -23 -35 -32 -18 -34 68 -2 68 -15 116 -36 131
-17 13 -75 9 -77 -4 -1 -7 -2 -49 -3 -93 -2 -78 -16 -196 -24 -207 -2 -2 -5
-14 -7 -28 -5 -27 -44 -113 -49 -108 -13 13 -20 216 -10 288 8 58 28 130 37
130 4 0 8 5 8 11 0 6 20 40 45 75 25 34 45 67 45 72 0 5 8 20 19 33 10 13 24
42 31 63 7 22 25 60 39 85 15 26 41 76 58 113 18 37 47 88 65 115 19 26 44 73
57 103 32 76 81 163 97 173 8 4 14 16 14 26 0 10 8 29 19 42 10 13 30 47 45
74 43 80 49 87 101 140 84 85 184 145 241 145 12 0 45 5 73 12 37 8 55 8 62 1
8 -8 19 -7 37 3 19 10 58 14 124 13 53 -1 100 1 106 5 5 3 66 8 135 12 l126 6
6 -25 c5 -18 15 -27 39 -31 36 -7 51 -22 80 -79 16 -32 67 -84 163 -170 25
-22 77 -29 96 -14 23 18 29 63 12 77 -9 7 -23 29 -32 49 -61 135 -77 163 -96
171 -12 5 -18 9 -14 9 4 1 3 9 -2 19 -9 17 -3 18 95 20 l104 1 1 -27 c0 -15 2
-38 4 -52 11 -68 9 -218 -2 -232 -7 -8 -15 -37 -18 -64 -8 -65 -12 -78 -47
-154 -17 -36 -30 -66 -29 -68 4 -6 -35 -68 -50 -79 -19 -15 -32 -57 -25 -81 3
-10 19 -23 36 -30 31 -14 75 -8 64 9 -3 6 12 30 34 53 68 74 153 215 174 288
11 38 25 80 33 94 7 15 11 32 9 38 -3 7 3 29 11 50 9 21 14 41 11 43 -3 3 0
15 6 27 6 11 13 32 14 46 2 14 6 46 10 71 4 35 2 50 -11 62 -19 19 -14 22 49
37 17 5 32 8 33 9 1 1 -3 -12 -8 -27z m747 -689 c3 -16 10 -44 14 -63 5 -19
12 -66 16 -105 3 -38 12 -84 19 -101 11 -26 11 -43 -2 -100 -15 -69 -20 -105
-22 -155 -1 -24 -6 -27 -53 -33 -29 -3 -62 -9 -74 -12 -19 -5 -21 -2 -17 42 3
26 11 53 18 61 9 9 11 21 6 35 -7 20 -22 24 -70 19 -12 -1 -21 -27 -27 -80 -2
-26 -10 -71 -16 -101 -6 -30 -10 -68 -9 -85 1 -16 -6 -66 -15 -111 -17 -77
-19 -80 -43 -76 -15 2 -46 -4 -71 -13 -25 -9 -54 -19 -65 -22 -11 -4 -22 -9
-25 -13 -3 -4 -39 -24 -80 -43 -41 -20 -100 -52 -130 -72 -60 -39 -75 -43 -66
-19 3 9 6 20 6 25 0 5 3 8 8 7 21 -6 50 16 56 40 6 28 82 113 144 160 44 33
72 59 73 70 0 4 20 23 43 42 49 40 68 67 90 129 14 42 14 44 -11 67 -13 12
-30 21 -37 18 -7 -3 -27 9 -44 27 -26 27 -29 34 -19 50 7 11 15 19 19 19 5 0
8 5 8 11 0 17 57 69 75 69 8 0 15 4 15 10 0 5 18 23 40 39 21 15 37 31 34 33
-2 3 9 18 25 34 54 53 130 155 141 190 14 41 37 45 46 7z m-2700 -308 c-3 -9
2 -46 10 -83 20 -81 13 -262 -10 -308 -9 -16 -18 -45 -21 -65 -3 -19 -12 -44
-21 -55 -14 -18 -14 -17 -7 16 11 48 8 152 -6 230 -15 81 -7 152 24 215 13 27
21 53 19 57 -3 5 0 8 6 8 7 0 10 -7 6 -15z m864 -111 c0 -5 -59 -93 -70 -104
-3 -3 -9 -12 -15 -21 -19 -31 -95 -128 -105 -134 -17 -11 2 27 37 73 18 24 33
50 33 58 0 8 22 38 50 67 27 29 50 55 50 60 0 4 5 7 10 7 6 0 10 -3 10 -6z
m1068 -43 c-1 -20 -10 -36 -28 -50 -35 -25 -80 -38 -80 -22 0 17 91 112 101
106 4 -3 7 -18 7 -34z m-1002 -132 c101 -45 106 -47 144 -56 33 -7 41 -8 83
-12 13 -1 17 -6 12 -20 -3 -11 -8 -29 -10 -42 -6 -30 -14 -36 -25 -19 -6 10
-33 16 -87 18 -116 5 -126 5 -158 -12 -17 -9 -40 -16 -52 -16 -12 0 -49 -16
-82 -36 -47 -28 -61 -42 -61 -60 0 -17 -10 -28 -37 -40 -21 -10 -39 -18 -41
-20 -2 -1 -5 -16 -7 -33 -3 -26 0 -33 19 -41 27 -10 60 -4 96 19 13 9 31 16
40 17 8 0 34 6 57 12 44 13 70 11 145 -12 26 -7 49 -11 52 -8 4 3 6 -1 6 -9 0
-8 -17 -36 -37 -64 -23 -30 -36 -59 -34 -72 3 -26 -12 -29 -56 -12 -30 11
-171 19 -215 11 -28 -4 -68 -36 -68 -53 0 -5 11 -21 24 -34 20 -20 30 -23 67
-18 65 9 118 5 171 -13 26 -8 61 -16 78 -16 33 -1 39 -6 45 -39 3 -12 9 -36
14 -53 26 -87 22 -108 -17 -87 -25 13 -77 22 -162 26 -67 4 -76 7 -85 27 -5
13 -13 28 -17 33 -7 10 -154 179 -190 219 -21 23 -21 24 -23 91 -1 48 1 52 52
102 29 29 53 57 53 62 0 5 9 13 20 16 11 3 20 11 20 16 0 6 19 34 43 64 23 29
49 62 57 73 25 35 95 122 96 122 1 0 33 -14 70 -31z m1920 -6 c-3 -10 -6 -34
-8 -54 -2 -34 -4 -36 -36 -37 -20 -1 -55 -15 -82 -32 -26 -17 -57 -33 -69 -35
-32 -6 -41 -14 -41 -39 0 -31 28 -86 44 -86 27 0 82 23 96 41 8 10 29 21 47
25 30 6 31 5 27 -22 -2 -16 -4 -53 -5 -82 0 -40 -5 -55 -17 -59 -9 -4 -29 -15
-44 -25 -14 -10 -31 -18 -37 -18 -6 0 -38 -18 -72 -40 -34 -22 -67 -40 -73
-40 -6 0 -12 18 -13 40 -2 22 -10 51 -18 64 -16 24 -18 78 -3 108 5 10 4 19
-2 23 -11 7 -8 45 11 140 14 71 11 65 39 70 83 16 202 49 217 61 26 19 45 18
39 -3z m-2204 -125 c-7 -7 -12 -8 -12 -2 0 14 12 26 19 19 2 -3 -1 -11 -7 -17z
m1694 -384 c-18 -47 -17 -65 4 -101 13 -21 26 -50 30 -64 8 -26 -3 -59 -20
-59 -5 0 -21 -5 -37 -12 -15 -6 -30 -12 -33 -12 -17 -3 -159 -72 -179 -88 -38
-29 -54 -22 -83 40 -15 31 -28 62 -30 67 -1 6 -8 17 -15 25 -7 8 -12 18 -11
21 2 4 -5 15 -14 26 -12 13 -14 23 -7 33 8 13 10 13 18 1 12 -18 64 -8 90 18
34 34 143 92 200 106 78 19 94 19 87 -1z m514 -65 c0 -5 -13 -39 -30 -76 -16
-36 -30 -73 -30 -82 0 -12 -19 -22 -62 -34 -98 -28 -128 -32 -128 -14 0 8 -12
41 -27 73 -30 64 -33 80 -21 106 7 14 13 16 35 7 18 -7 35 -7 53 1 15 6 31 10
36 9 5 -1 20 2 34 8 42 17 49 18 95 15 25 -2 45 -8 45 -13z m-2414 -93 c3 -45
1 -56 -11 -56 -10 0 -15 -10 -15 -27 0 -16 -7 -37 -15 -47 -8 -11 -15 -26 -15
-33 0 -17 -73 -123 -85 -123 -5 0 -21 -9 -35 -20 -25 -20 -45 -26 -36 -12 2 4
0 29 -6 55 l-10 48 44 43 c78 79 95 106 89 148 0 3 11 17 25 30 14 13 33 31
42 40 9 10 18 16 19 14 2 -2 6 -29 9 -60z m23 -315 c2 -87 1 -89 -20 -84 -14
4 -20 2 -16 -4 4 -6 0 -16 -8 -23 -8 -7 -13 -16 -10 -20 2 -4 -7 -18 -20 -30
-14 -13 -25 -31 -25 -40 0 -18 -38 -57 -83 -85 l-28 -18 0 44 c0 24 -2 67 -5
95 -6 50 -5 52 27 68 17 9 37 16 43 16 16 0 136 140 136 159 0 6 2 11 4 11 2
0 4 -40 5 -89z m2351 67 c1 -7 9 -58 18 -114 10 -55 16 -106 14 -112 -2 -7
-16 -12 -30 -12 -15 0 -49 -12 -76 -26 -35 -19 -51 -23 -56 -14 -4 7 -13 55
-20 108 -20 158 -22 146 35 153 28 4 61 12 75 17 34 14 40 14 40 0z m-1823
-50 c15 -6 33 -10 40 -9 14 2 19 -43 15 -116 -3 -42 -8 -53 -21 -53 -9 0 -33
-9 -54 -20 -59 -32 -71 -28 -84 33 -6 28 -20 80 -31 115 l-20 62 63 0 c35 0
76 -5 92 -12z m1293 -72 c0 -12 1 -56 1 -98 0 -60 -3 -78 -14 -78 -8 0 -23 -8
-34 -17 -24 -21 -130 -59 -139 -50 -3 3 -8 53 -11 111 -4 90 -2 106 10 106 9
0 29 11 45 25 16 13 51 33 78 43 48 18 49 18 57 -2 4 -10 7 -28 7 -40z"/>
<path d="M3978 3385 l-63 -10 0 -35 0 -35 68 -3 c37 -2 67 -7 67 -13 0 -6 -4
-8 -9 -5 -4 3 -19 -14 -32 -39 l-24 -44 -34 30 c-19 16 -39 29 -46 29 -16 0
-45 -33 -45 -53 0 -21 46 -74 70 -82 11 -4 20 -13 20 -21 0 -8 7 -14 15 -14 9
0 34 -9 56 -21 38 -19 46 -19 116 -8 41 7 84 20 96 29 21 18 32 76 18 95 -5 5
-11 27 -15 47 -5 26 -23 53 -62 92 -30 31 -61 56 -69 56 -8 0 -15 3 -15 8 0
10 -37 9 -112 -3z m187 -202 c6 -29 4 -33 -20 -39 -14 -3 -28 -5 -30 -2 -2 2
4 25 13 51 17 48 25 46 37 -10z"/>
<path d="M4763 2648 c-20 -9 -59 -97 -66 -147 -2 -17 46 -46 51 -31 2 6 9 10
16 10 23 0 47 36 44 68 -1 16 4 37 11 46 18 21 6 66 -17 65 -9 0 -27 -5 -39
-11z"/>
<path d="M1600 2831 c-22 -6 -25 -13 -28 -62 -3 -54 -1 -57 33 -83 45 -35 85
-78 85 -92 0 -6 11 -22 24 -35 13 -13 27 -38 30 -56 4 -17 14 -37 22 -44 8 -6
14 -24 14 -40 0 -16 4 -29 9 -29 5 0 15 -27 22 -61 15 -68 44 -100 88 -97 14
1 36 -2 48 -6 33 -11 63 24 63 73 0 61 -118 282 -167 314 -7 4 -13 14 -13 22
0 7 -6 20 -14 27 -7 8 -16 23 -20 33 -6 19 -76 77 -86 73 -3 -1 -22 14 -42 35
-21 20 -39 37 -40 36 -2 -1 -14 -4 -28 -8z"/>
<path d="M1417 2781 c-34 -19 -82 -59 -146 -123 -27 -27 -52 -48 -57 -48 -15
-1 -137 -159 -140 -183 -11 -69 -21 -86 -84 -138 -65 -53 -257 -244 -317 -316
-33 -39 -35 -59 -9 -107 18 -33 60 -27 95 14 17 19 30 39 31 44 0 7 54 61 92
92 22 18 166 84 182 84 21 0 66 42 71 65 2 11 4 20 5 20 1 0 3 9 5 20 16 89
74 221 101 232 8 3 14 11 14 18 0 15 178 200 199 206 18 6 24 85 7 102 -7 7
-15 17 -17 23 -3 6 -14 5 -32 -5z"/>
<path d="M1025 2717 c-11 -7 -22 -14 -25 -17 -10 -10 -65 -41 -82 -47 -10 -3
-18 -9 -18 -14 0 -5 -13 -15 -29 -23 -24 -13 -64 -65 -153 -205 -9 -14 -21
-31 -27 -38 -24 -27 -8 -138 23 -158 19 -13 27 -12 66 7 42 21 89 63 90 81 0
5 7 15 15 23 20 21 145 200 145 209 0 4 20 26 45 49 25 24 45 48 45 55 0 6 -9
28 -20 48 -11 21 -20 33 -20 28 0 -5 -5 -4 -12 3 -14 14 -17 14 -43 -1z"/>
<path d="M1493 2595 c-7 -7 -15 -25 -18 -38 -4 -14 -22 -49 -41 -78 -19 -29
-34 -58 -34 -65 0 -6 -15 -24 -32 -41 -18 -17 -40 -39 -48 -49 -50 -62 -101
-136 -125 -184 -16 -30 -32 -62 -37 -70 -4 -8 -14 -26 -20 -40 -7 -14 -15 -27
-19 -30 -3 -3 -8 -11 -10 -18 -4 -12 -91 -54 -144 -69 -20 -7 -134 -98 -148
-120 -4 -7 -13 -18 -20 -25 -26 -27 -83 -115 -109 -168 -56 -115 -58 -121 -43
-151 34 -65 66 -48 220 122 54 60 100 97 122 101 10 2 27 12 39 23 11 11 40
29 65 40 24 11 49 24 54 30 19 19 75 99 75 107 0 9 37 48 46 48 12 0 33 35 34
55 0 11 14 36 30 55 17 19 30 45 30 57 0 13 4 23 9 23 5 0 12 13 16 29 3 16
12 34 19 40 7 6 19 30 27 53 12 39 42 94 68 125 6 6 13 23 17 38 4 15 13 29
20 32 8 3 14 15 14 28 0 12 9 30 20 40 22 20 26 65 10 96 -13 23 -68 26 -87 4z"/>
</g>
</svg>
