<?xml version="1.0" standalone="no"?>
<!DOCTYPE svg PUBLIC "-//W3C//DTD SVG 20010904//EN"
 "http://www.w3.org/TR/2001/REC-SVG-20010904/DTD/svg10.dtd">
<svg version="1.0" xmlns="http://www.w3.org/2000/svg"
 width="549.000000pt" height="457.000000pt" viewBox="0 0 549.000000 457.000000"
 preserveAspectRatio="xMidYMid meet">
<metadata>
Created by potrace 1.16, written by Peter Selinger 2001-2019
</metadata>
<g transform="translate(0.000000,457.000000) scale(0.100000,-0.100000)"
fill="#000000" stroke="none">
<path d="M520 4272 c-53 -10 -137 -59 -157 -90 -9 -15 -24 -36 -34 -47 -18
-22 -33 -122 -20 -139 4 -6 13 -38 21 -71 16 -79 68 -181 117 -230 51 -53 84
-99 113 -158 14 -27 34 -58 45 -70 50 -53 70 -169 64 -372 -8 -277 -1 -449 22
-540 10 -41 26 -111 35 -153 3 -13 25 -67 49 -120 25 -52 43 -98 40 -100 -3
-3 -13 -7 -23 -8 -64 -6 -130 -15 -147 -20 -37 -9 -140 -59 -148 -71 -4 -7
-13 -18 -20 -25 -35 -35 -46 -117 -23 -172 28 -66 165 -174 241 -190 11 -3 49
-12 84 -21 74 -20 222 -14 268 10 15 8 40 15 55 15 27 0 88 29 88 43 0 26 77
-19 135 -79 11 -11 62 -50 113 -86 83 -59 91 -68 77 -81 -19 -19 -118 -57
-148 -57 -13 0 -27 -4 -32 -9 -6 -5 -47 -21 -93 -36 -105 -34 -142 -71 -142
-142 0 -68 57 -119 167 -147 66 -17 217 -3 284 25 46 20 132 76 149 98 3 3 28
24 55 46 28 21 53 43 56 48 4 5 38 -9 75 -31 38 -22 105 -58 149 -79 44 -22
94 -47 110 -56 71 -36 184 -87 195 -87 7 0 24 -8 38 -19 42 -29 191 -97 262
-119 36 -11 117 -36 180 -55 63 -20 178 -52 255 -73 77 -20 145 -39 150 -43 6
-3 28 -10 50 -16 22 -5 40 -15 40 -21 0 -6 -20 -28 -45 -48 -25 -20 -54 -45
-65 -54 -11 -10 -36 -24 -55 -32 -82 -32 -175 -107 -178 -144 -1 -9 -3 -22 -4
-30 -1 -8 6 -35 16 -60 13 -33 29 -53 63 -75 177 -118 378 -59 521 153 18 27
36 61 39 77 3 16 12 34 19 40 8 6 14 18 14 26 0 7 9 32 20 53 19 38 23 40 68
41 26 1 70 3 97 4 43 3 607 17 675 17 46 1 226 27 253 37 24 9 167 37 242 47
17 2 55 11 85 19 30 8 84 22 120 31 36 9 74 20 85 24 11 5 30 12 43 15 12 4
22 11 22 16 0 6 14 15 31 21 19 7 28 15 25 24 -3 8 -2 14 2 14 4 0 8 9 9 20 1
11 -2 20 -8 20 -5 0 -9 9 -9 20 0 17 -35 47 -52 42 -14 -4 -33 33 -38 77 -4
39 -9 48 -37 61 -29 14 -83 67 -83 81 0 12 -165 137 -221 168 -19 11 -42 27
-50 37 -8 9 -64 50 -125 90 -61 40 -117 80 -124 89 -7 8 -16 15 -20 15 -4 0
-35 18 -68 40 -33 22 -64 40 -70 40 -5 0 -12 6 -15 13 -2 7 -49 32 -103 57
-55 24 -114 55 -133 67 -19 13 -37 23 -42 23 -4 0 -20 5 -36 11 -162 66 -272
99 -403 119 -80 12 -125 23 -261 64 -47 14 -94 26 -105 26 -10 0 -38 7 -62 15
-24 9 -112 20 -195 25 -84 6 -163 12 -177 15 -14 3 -41 7 -60 10 -19 3 -66 12
-105 20 -137 27 -222 39 -325 42 -110 5 -125 10 -133 46 -4 19 -64 188 -111
315 -43 116 -83 171 -160 219 -28 18 -57 37 -63 43 -7 6 -26 13 -43 17 -17 3
-33 9 -35 13 -6 10 -124 -17 -142 -32 -7 -6 -28 -18 -45 -28 -18 -9 -40 -28
-50 -41 -24 -33 -37 -127 -32 -236 l5 -93 -62 33 c-34 17 -71 43 -83 55 -11
13 -51 55 -88 92 -38 38 -68 75 -68 83 0 8 -7 20 -16 28 -23 19 -70 117 -82
174 -11 47 -19 124 -27 257 -4 69 6 90 100 194 88 99 117 128 184 183 29 25
59 50 65 56 6 6 29 24 51 40 118 87 202 221 212 337 8 81 -14 174 -47 208 -50
52 -85 63 -172 57 -114 -8 -159 -35 -298 -177 -90 -93 -125 -122 -162 -135
-51 -19 -139 -16 -146 4 -2 6 -9 11 -16 11 -18 0 -39 21 -139 136 -48 55 -105
110 -127 123 -22 12 -40 20 -40 17 0 -4 -16 0 -36 9 -43 18 -117 25 -164 17z
m190 -114 c60 -29 102 -65 140 -118 13 -19 50 -63 83 -96 99 -104 179 -118
308 -53 50 25 85 54 158 134 100 110 143 138 232 156 67 13 122 -3 153 -44 25
-33 28 -133 6 -187 -15 -39 -69 -123 -82 -128 -4 -2 -8 -10 -8 -18 0 -7 -24
-31 -52 -52 -127 -94 -409 -362 -441 -418 -7 -12 -57 -21 -57 -10 0 14 97 173
112 184 10 7 18 17 18 22 0 5 10 20 23 33 90 96 103 122 73 146 -16 13 -56 -1
-56 -20 0 -13 -47 -83 -102 -153 -26 -32 -62 -91 -80 -132 -23 -52 -37 -72
-48 -69 -27 8 -94 8 -139 0 l-45 -7 18 26 c24 37 31 111 16 180 -12 60 -44
141 -59 150 -5 3 -17 35 -26 71 -15 55 -21 65 -40 65 -37 0 -35 -22 11 -114
24 -48 50 -107 59 -132 16 -48 22 -170 10 -216 -13 -52 -82 -28 -91 32 -4 20
-42 141 -67 210 -26 72 -90 189 -121 223 -13 14 -27 35 -31 46 -7 24 -42 34
-49 14 -10 -25 -6 -37 22 -69 46 -54 66 -80 81 -105 37 -62 59 -108 75 -159
31 -98 59 -164 83 -197 l24 -31 -28 -5 c-60 -12 -62 -10 -77 69 -7 34 -36 97
-55 119 -10 11 -30 43 -46 70 -25 46 -102 152 -132 183 -51 53 -96 159 -107
256 -7 59 35 121 109 162 11 6 54 11 95 10 58 -1 87 -8 130 -28z m434 -918
c20 -7 26 -16 26 -40 0 -41 0 -42 16 -65 8 -11 14 -40 14 -65 1 -193 70 -329
260 -517 90 -89 103 -98 245 -167 139 -69 223 -100 335 -124 25 -6 81 -19 125
-30 168 -42 223 -51 330 -56 130 -5 257 -21 339 -42 83 -22 257 -44 346 -44
95 0 301 -46 475 -105 22 -8 58 -16 80 -19 113 -13 202 -35 340 -81 95 -32
341 -152 434 -212 137 -88 258 -170 286 -194 16 -14 87 -66 156 -117 69 -50
139 -108 155 -129 15 -21 34 -43 42 -49 12 -8 10 -13 -12 -27 -14 -9 -39 -17
-56 -17 -16 0 -30 -4 -30 -9 0 -25 -208 -43 -315 -27 -16 2 -57 7 -90 10 -113
12 -140 16 -230 35 -49 11 -130 22 -179 26 -49 3 -92 8 -96 10 -16 10 -142 25
-153 18 -7 -4 -16 -8 -22 -8 -18 0 -35 -71 -24 -107 12 -42 15 -47 64 -85 48
-37 90 -55 170 -72 33 -7 110 -29 170 -48 106 -34 118 -35 318 -43 114 -4 210
-10 214 -13 3 -3 -12 -8 -33 -12 -22 -3 -66 -12 -99 -20 -104 -24 -195 -36
-269 -35 -39 1 -118 -2 -176 -6 -58 -5 -175 -7 -260 -5 -90 1 -166 -2 -182 -8
-19 -7 -29 -7 -34 0 -4 7 -32 8 -78 4 -45 -4 -100 -1 -151 9 -192 35 -305 59
-376 82 -42 13 -96 26 -120 30 -24 4 -66 15 -92 25 -26 11 -56 19 -67 19 -18
0 -134 35 -290 87 -41 13 -129 51 -195 83 -66 32 -160 77 -210 100 -178 82
-255 123 -414 220 -58 36 -122 73 -141 82 -19 9 -63 40 -98 67 -34 28 -65 51
-69 51 -17 0 -198 145 -265 213 -26 26 -52 47 -58 47 -13 0 -230 211 -230 223
0 5 -11 22 -25 39 -14 16 -25 35 -25 43 0 7 -6 15 -13 18 -13 5 -38 51 -86
159 -12 26 -21 51 -21 56 0 5 -6 22 -14 38 -17 35 -22 58 -46 237 -10 76 -17
171 -15 210 3 40 7 123 10 186 3 62 10 121 15 131 6 10 26 24 47 31 82 27 286
32 347 9z m876 -462 c83 -43 132 -104 172 -214 20 -54 39 -114 43 -132 4 -18
18 -60 31 -94 14 -33 23 -62 21 -64 -5 -6 -134 23 -204 45 -34 11 -78 23 -98
27 -31 6 -35 9 -35 38 0 18 -3 36 -7 40 -4 3 -8 12 -10 19 -1 7 -7 30 -13 52
-6 22 -10 73 -10 113 0 64 -2 72 -19 72 -10 0 -23 -6 -29 -13 -16 -19 -4 -111
28 -210 l28 -88 -28 6 c-16 4 -52 17 -79 31 -36 17 -49 28 -45 39 4 8 1 22 -6
30 -7 8 -9 15 -4 15 4 0 3 5 -4 12 -16 16 -16 148 0 202 28 96 157 132 268 74z
m-1147 -694 c-3 -7 -21 -16 -41 -19 -63 -10 -126 -26 -157 -40 -16 -7 -38 -15
-47 -19 -10 -3 -18 -10 -18 -16 0 -14 42 -12 92 5 59 19 220 37 232 25 17 -17
-14 -39 -72 -50 -80 -16 -182 -50 -182 -61 0 -12 -1 -12 110 10 201 40 196 40
225 16 14 -12 25 -32 25 -44 0 -30 -40 -45 -189 -72 -66 -13 -121 -25 -121
-29 0 -9 188 9 264 26 121 27 120 27 139 7 16 -19 15 -20 -39 -43 -68 -28 -86
-31 -187 -37 -185 -11 -387 110 -387 232 0 18 8 38 18 47 31 27 106 57 157 63
27 4 51 8 52 9 2 2 32 3 67 3 50 0 63 -3 59 -13z m719 -647 c-11 -13 -36 -25
-177 -87 -33 -14 -76 -34 -95 -43 l-35 -18 60 6 c35 3 85 18 122 35 35 17 68
30 73 30 6 0 37 13 68 29 41 21 63 27 73 20 17 -11 3 -21 -86 -59 -33 -15 -78
-38 -100 -51 -22 -14 -57 -33 -77 -42 -20 -10 -40 -22 -43 -27 -8 -13 42 -7
75 8 14 6 72 31 130 55 168 71 178 71 109 7 -62 -58 -172 -110 -255 -121 -74
-9 -184 -2 -184 12 0 5 -5 9 -10 9 -6 0 -23 11 -37 24 -39 36 -26 70 34 91 27
10 57 21 68 26 19 8 91 27 127 34 10 2 46 19 80 39 67 37 99 46 80 23z m2531
-326 c4 -4 -11 -16 -33 -26 -37 -17 -42 -17 -57 -2 -9 9 -13 23 -9 32 5 14 14
15 49 10 23 -4 46 -10 50 -14z m1129 -33 c-7 -7 -20 -7 -39 -1 l-28 10 30 14
c26 13 31 13 39 1 5 -8 4 -18 -2 -24z m-902 12 l35 1 -48 -48 -48 -48 -34 37
c-19 21 -35 45 -35 54 0 14 7 16 48 10 26 -4 63 -7 82 -6z m-156 -56 l38 -45
-38 7 c-85 15 -112 47 -61 72 12 6 22 11 22 11 1 1 18 -20 39 -45z m319 -88
l31 -39 -60 7 c-71 9 -144 34 -144 51 0 6 17 31 37 54 l36 43 34 -38 c19 -22
48 -57 66 -78z m63 103 c33 -9 44 -16 40 -26 -3 -8 -6 -21 -6 -28 0 -7 -8 -23
-18 -36 l-19 -22 -41 56 c-23 31 -42 59 -42 62 0 8 38 6 86 -6z m614 -15 l25
-13 -27 -2 c-16 -1 -36 -3 -45 -3 -10 -1 -21 -5 -25 -11 -4 -5 -8 5 -8 23 0
30 2 32 28 26 15 -4 38 -13 52 -20z m-361 -10 c21 -4 22 -9 16 -42 -11 -60
-21 -61 -75 -7 -27 28 -49 52 -50 55 0 6 71 2 109 -6z m221 3 c0 -8 -3 -17 -6
-20 -10 -9 -46 12 -39 24 9 14 45 11 45 -4z m-80 -44 c27 -16 50 -30 50 -33 0
-8 -95 -40 -119 -40 -20 0 -21 4 -15 38 6 33 20 62 30 62 2 0 26 -12 54 -27z
m-249 -28 l48 -45 -69 0 c-39 0 -70 3 -70 8 0 24 23 82 32 82 6 0 33 -20 59
-45z m589 -5 c0 -15 -96 -56 -160 -69 -30 -6 -85 -19 -122 -30 -38 -10 -68
-15 -68 -10 0 5 12 12 27 15 15 4 38 13 52 20 14 8 32 14 40 14 8 0 29 11 47
25 47 36 184 62 184 35z m-1729 -260 c25 0 -4 -101 -55 -190 -14 -25 -51 -70
-83 -101 -66 -64 -152 -101 -218 -95 -77 6 -185 73 -185 115 0 25 55 71 84 71
35 0 86 20 143 57 29 18 56 33 61 33 4 0 28 14 53 31 30 22 16 4 -49 -60 -52
-50 -105 -94 -118 -97 -37 -9 -29 -27 9 -19 58 13 101 42 187 129 46 46 88 82
92 80 15 -9 -21 -62 -72 -105 -100 -86 -124 -109 -118 -115 3 -3 23 5 45 19
21 13 59 36 85 51 54 30 115 97 127 141 7 25 5 33 -13 49 -18 16 -18 18 -3 13
10 -4 23 -7 28 -7z"/>
<path d="M1283 3781 c-149 -155 -141 -145 -206 -247 -58 -92 -75 -154 -42
-154 8 0 15 8 15 19 0 21 11 43 54 111 33 52 39 59 103 125 26 28 60 64 74 81
14 17 35 37 47 43 12 6 22 18 22 26 0 8 6 15 13 15 7 0 28 14 46 30 32 30 33
32 16 50 -10 11 -21 19 -24 18 -3 0 -56 -53 -118 -117z"/>
<path d="M3676 1776 c-8 -17 -24 -41 -35 -53 -12 -12 -21 -25 -21 -28 0 -7
-70 -109 -79 -115 -17 -11 -82 -163 -96 -223 -29 -124 -22 -382 12 -419 23
-25 52 -23 63 6 6 18 3 40 -11 82 -53 151 -3 400 109 539 4 6 22 31 40 58 18
26 37 47 42 47 6 0 9 3 8 8 -2 4 9 23 24 42 19 24 25 43 21 58 -3 12 -8 23
-12 23 -40 8 -51 4 -65 -25z"/>
<path d="M3479 1728 c-22 -24 -39 -49 -39 -55 0 -7 -4 -13 -9 -13 -5 0 -14
-14 -21 -31 -7 -17 -24 -46 -36 -65 -60 -89 -103 -371 -75 -499 6 -27 13 -72
16 -100 9 -74 14 -84 41 -91 18 -5 29 -1 39 12 20 26 19 40 -7 93 -31 64 -38
264 -13 372 9 41 18 81 20 90 5 24 83 168 113 208 14 18 33 36 43 38 20 6 30
44 17 67 -15 28 -49 18 -89 -26z"/>
<path d="M3923 1661 c-58 -27 -103 -90 -100 -142 2 -22 -1 -43 -5 -45 -3 -2 3
-15 15 -28 12 -13 31 -34 43 -47 64 -74 103 -91 217 -97 l98 -4 39 41 c35 37
40 48 40 89 0 99 -25 140 -118 194 -109 64 -155 72 -229 39z m205 -100 c60
-40 72 -59 72 -118 0 -92 -175 -100 -255 -11 -20 21 -33 43 -30 48 3 5 1 11
-5 15 -18 11 -11 51 13 72 33 32 88 51 119 42 14 -4 53 -25 86 -48z"/>
<path d="M3996 1534 c-19 -18 -19 -24 -5 -61 25 -66 79 -91 127 -57 15 10 22
25 22 49 0 28 -6 39 -37 60 -43 29 -84 32 -107 9z"/>
<path d="M4935 1280 c-3 -5 -17 -10 -30 -10 -42 0 -57 -60 -19 -74 28 -11 104
6 114 25 8 14 4 24 -17 44 -30 27 -39 30 -48 15z"/>
<path d="M1783 2695 c-5 -16 0 -75 11 -125 3 -14 9 -41 12 -60 23 -137 59
-128 42 10 -3 30 -7 81 -7 112 -1 46 -5 59 -20 68 -26 13 -31 13 -38 -5z"/>
<path d="M2023 2668 c-6 -7 -8 -22 -6 -33 3 -11 11 -58 18 -105 10 -69 32
-165 40 -178 1 -1 9 0 18 4 10 3 14 14 11 27 -15 76 -24 155 -25 212 -1 52 -5
67 -19 75 -24 13 -26 13 -37 -2z"/>
<path d="M2108 2563 c-20 -5 -23 -24 -9 -51 5 -9 19 -43 32 -75 16 -44 19 -61
10 -70 -6 -6 -11 -17 -11 -24 0 -10 5 -10 24 2 34 23 37 37 20 96 -9 29 -13
60 -11 70 5 18 -18 60 -31 58 -4 -1 -15 -3 -24 -6z"/>
</g>
</svg>
