<?xml version="1.0" standalone="no"?>
<!DOCTYPE svg PUBLIC "-//W3C//DTD SVG 20010904//EN"
 "http://www.w3.org/TR/2001/REC-SVG-20010904/DTD/svg10.dtd">
<svg version="1.0" xmlns="http://www.w3.org/2000/svg"
 width="492.000000pt" height="476.000000pt" viewBox="0 0 492.000000 476.000000"
 preserveAspectRatio="xMidYMid meet">
<metadata>
Created by potrace 1.16, written by Peter Selinger 2001-2019
</metadata>
<g transform="translate(0.000000,476.000000) scale(0.100000,-0.100000)"
fill="#000000" stroke="none">
<path d="M3585 4607 c-80 -24 -147 -82 -138 -118 7 -26 48 -64 70 -64 24 0 28
-27 11 -83 -13 -44 -35 -72 -114 -140 -37 -32 -40 -33 -129 -32 -135 1 -181
-8 -200 -37 -20 -30 -9 -46 52 -75 24 -11 43 -26 43 -34 0 -7 9 -29 19 -47
l19 -34 -24 -31 c-14 -17 -31 -46 -40 -64 -8 -18 -33 -67 -54 -108 -22 -41
-39 -83 -40 -93 0 -10 -9 -27 -19 -38 -11 -12 -22 -37 -26 -57 -3 -21 -13 -47
-21 -59 -14 -22 -36 -89 -69 -208 -9 -33 -32 -92 -50 -131 -19 -39 -44 -98
-56 -130 -12 -32 -31 -74 -41 -92 -10 -18 -18 -41 -18 -51 0 -10 -7 -24 -15
-31 -8 -7 -15 -21 -15 -31 0 -10 -4 -21 -10 -24 -5 -3 -28 -45 -51 -93 -22
-48 -44 -93 -47 -100 -4 -8 -29 -23 -57 -35 -27 -11 -53 -25 -56 -30 -4 -5
-29 -9 -57 -9 -27 0 -55 -4 -63 -8 -7 -5 -24 -3 -40 5 -23 13 -45 12 -165 -6
-77 -11 -143 -24 -149 -30 -5 -5 -32 -9 -60 -9 -27 0 -73 -9 -102 -20 -37 -14
-87 -21 -179 -25 -70 -3 -148 -10 -173 -16 -25 -6 -57 -12 -71 -14 -14 -1 -41
-10 -60 -19 -19 -8 -53 -20 -75 -26 -22 -5 -51 -19 -65 -30 -14 -11 -40 -30
-59 -43 -19 -12 -39 -31 -45 -42 -6 -10 -21 -28 -34 -38 -12 -10 -29 -25 -36
-33 -8 -8 -19 -14 -25 -14 -6 0 -10 -15 -9 -33 1 -18 -4 -42 -10 -54 -7 -12
-12 -61 -12 -110 0 -48 -6 -110 -14 -138 -7 -27 -11 -62 -9 -77 2 -16 0 -28
-5 -28 -12 0 -36 159 -56 363 -4 44 -4 43 -37 52 -17 4 -32 0 -47 -12 -21 -17
-22 -21 -11 -93 25 -168 35 -297 25 -307 -3 -4 -78 -8 -166 -10 l-160 -5 0 94
c0 150 -17 258 -44 285 -44 44 -102 8 -85 -51 5 -17 12 -80 15 -141 3 -60 7
-116 9 -123 3 -7 0 -23 -4 -36 -8 -19 -19 -24 -63 -29 -29 -4 -62 -9 -73 -12
-20 -6 -21 -2 -23 137 -1 79 -5 171 -8 205 -6 57 -9 64 -36 77 -53 27 -71 4
-63 -78 3 -27 7 -470 10 -984 3 -751 7 -937 17 -943 28 -18 77 -10 94 16 16
24 16 115 0 190 -4 17 -9 230 -11 475 -3 245 -6 481 -6 525 -1 44 -1 105 0
136 1 65 4 67 113 75 l57 5 3 -63 c2 -35 1 -103 -2 -153 -7 -126 -4 -933 4
-1030 4 -44 9 -108 10 -143 5 -74 17 -92 62 -92 49 0 55 19 41 136 -8 67 -12
299 -12 722 0 530 2 624 14 632 8 4 85 9 171 9 l156 0 3 -51 c1 -28 2 -54 3
-57 2 -24 -6 -41 -34 -73 -18 -19 -51 -55 -73 -79 -22 -24 -39 -47 -37 -51 1
-5 -2 -8 -7 -8 -9 0 -45 -53 -67 -100 -22 -46 -33 -89 -28 -115 2 -14 0 -25
-5 -25 -14 0 -21 -40 -10 -67 13 -35 34 -53 61 -53 31 0 120 61 149 102 24 34
38 48 52 48 5 0 5 -64 1 -142 -9 -174 -11 -225 -18 -443 -3 -93 -6 -195 -7
-226 -3 -67 26 -132 59 -137 12 -2 22 2 22 8 0 7 7 10 14 7 9 -4 17 2 21 14 8
23 21 25 29 4 3 -8 1 -15 -5 -15 -6 0 -7 -5 -4 -10 8 -13 25 -3 25 14 0 7 -8
23 -19 35 -12 13 -21 45 -25 84 -10 90 -8 382 2 451 5 33 6 75 1 95 -4 19 -6
38 -4 41 2 3 5 36 6 73 2 70 21 90 27 28 2 -18 10 -35 17 -38 8 -3 29 -28 46
-56 17 -27 37 -57 45 -64 8 -8 14 -29 14 -46 0 -18 9 -47 20 -65 11 -18 19
-36 16 -40 -2 -4 2 -47 8 -96 12 -87 12 -104 -2 -231 -4 -33 -6 -72 -4 -86 4
-33 45 -58 70 -42 15 9 17 36 16 263 -1 235 -3 255 -20 269 -11 9 -21 29 -22
45 -2 16 -14 45 -26 65 -12 20 -26 43 -29 51 -4 8 -15 27 -25 41 -9 15 -28 45
-41 68 -14 22 -28 41 -33 41 -17 0 -7 42 16 67 14 14 32 47 41 72 27 73 46
113 66 134 9 10 23 32 29 48 7 16 16 29 21 29 5 0 9 6 9 13 1 6 7 26 14 42 12
28 13 23 15 -65 1 -52 4 -160 6 -239 4 -114 2 -148 -9 -160 -13 -16 -15 -42
-3 -71 6 -15 14 -193 22 -525 4 -137 7 -163 23 -185 11 -14 28 -25 38 -25 11
-1 18 -7 16 -15 -2 -10 0 -11 10 -3 7 6 17 13 23 15 5 1 8 11 7 21 -2 9 3 17
10 17 8 0 9 3 3 8 -13 9 -15 27 -20 152 -2 58 -6 134 -10 170 -7 82 -12 230
-7 230 17 0 49 -56 57 -101 3 -18 13 -41 22 -51 12 -14 15 -42 15 -135 0 -65
-5 -137 -11 -161 -10 -35 -9 -46 6 -69 22 -36 36 -45 44 -31 4 6 15 9 25 6 18
-5 19 4 16 174 -1 120 -7 190 -16 216 -12 33 -29 81 -59 164 -5 15 -24 36 -42
47 -41 24 -67 71 -61 109 2 15 5 30 5 35 1 4 6 7 12 7 5 0 27 11 47 25 42 29
52 31 52 11 0 -19 39 -86 50 -86 4 0 29 -34 56 -76 l47 -77 4 -286 c4 -256 6
-289 22 -311 24 -32 42 -35 70 -11 23 20 23 22 18 193 -5 164 -4 171 11 138 8
-19 14 -43 13 -52 -2 -16 9 -45 41 -113 5 -12 10 -27 12 -35 2 -8 6 -33 10
-55 14 -71 16 -75 44 -75 35 0 49 10 61 42 8 20 7 29 -5 38 -7 7 -14 18 -14
26 0 7 -5 25 -12 41 -6 15 -13 36 -15 46 -1 10 -10 31 -18 47 -8 16 -15 38
-15 49 0 11 -4 30 -9 43 -6 13 -24 68 -40 123 -17 55 -42 117 -56 137 l-25 38
-3 267 -2 268 91 0 91 0 -9 -30 c-15 -45 -37 -93 -46 -97 -4 -2 -20 -28 -36
-59 l-30 -56 26 -44 c14 -24 29 -69 33 -99 9 -79 24 -120 55 -153 14 -15 44
-62 65 -103 21 -41 42 -74 47 -74 4 0 7 -42 7 -92 0 -51 4 -114 9 -141 5 -26
6 -49 3 -52 -4 -2 -6 -29 -5 -60 3 -80 44 -121 91 -92 6 4 18 5 25 2 8 -3 25
2 36 12 21 17 22 21 11 103 -6 47 -17 108 -25 135 -41 151 -57 263 -59 435 -1
74 -5 189 -9 255 -5 66 -9 144 -11 173 l-2 53 38 -6 c22 -4 54 -1 75 5 20 7
55 12 77 12 22 -1 53 6 68 14 19 9 30 10 34 4 4 -6 9 -70 11 -141 2 -72 6
-135 9 -139 3 -5 1 -11 -5 -15 -6 -4 -8 -10 -6 -14 6 -9 15 -246 21 -579 5
-225 8 -267 23 -290 22 -35 48 -39 79 -11 21 21 23 29 18 79 -8 74 -16 214
-19 330 -1 52 -5 133 -9 180 -13 164 -18 620 -6 620 47 0 66 -52 73 -195 2
-55 7 -111 10 -125 7 -28 16 -111 20 -185 2 -27 9 -69 16 -92 10 -33 10 -55 1
-99 -13 -66 -15 -166 -3 -179 10 -12 3 -147 -7 -141 -4 3 -7 -16 -7 -40 -1
-50 17 -68 63 -62 34 4 44 38 37 122 -3 34 -7 153 -10 266 -5 311 -38 641 -73
728 -12 30 -20 69 -19 88 4 57 -35 66 -91 22 -13 -10 -25 -17 -27 -16 -1 2 -4
27 -7 56 -3 34 -1 52 7 53 23 3 241 -3 244 -6 16 -15 25 -114 28 -305 9 -491
12 -597 18 -635 3 -22 7 -130 8 -240 2 -202 5 -221 43 -261 13 -14 56 -8 67 9
6 9 8 9 8 0 0 -7 7 -10 15 -7 21 8 19 24 -2 25 -12 0 -13 2 -5 6 8 3 10 9 3
16 -5 7 -12 48 -16 92 -3 44 -8 100 -10 125 -3 39 -10 176 -19 407 -2 34 0 60
4 58 7 -4 21 -68 25 -110 1 -11 12 -58 24 -105 13 -47 24 -92 25 -100 0 -8 6
-19 12 -25 7 -5 14 -36 16 -68 3 -33 9 -62 14 -65 11 -8 11 -158 1 -168 -13
-13 25 -36 60 -36 45 0 55 16 46 72 -4 25 -7 68 -8 95 0 28 -7 61 -14 73 -7
13 -15 49 -18 80 -3 32 -14 75 -24 98 -10 22 -19 46 -19 52 0 7 -4 12 -9 12
-10 0 -16 22 -26 93 -6 39 -5 46 7 42 9 -4 21 -18 29 -33 28 -56 63 -108 108
-162 17 -19 34 -53 40 -75 14 -59 28 -235 21 -275 -14 -77 20 -120 92 -120 41
0 66 29 63 77 -1 21 2 46 7 56 5 10 5 17 -1 17 -5 0 -10 8 -10 18 0 9 -2 41
-4 70 -3 28 -2 52 2 52 10 0 31 -55 31 -81 -1 -29 10 -143 14 -146 9 -9 68 -8
73 1 12 18 5 96 -16 176 -10 41 -24 109 -32 150 -9 57 -20 83 -41 109 -16 18
-27 39 -24 47 3 8 2 14 -3 14 -5 0 -11 19 -15 42 -4 22 -10 46 -13 51 -4 6 -8
128 -9 271 -2 144 -6 304 -10 356 -12 184 -13 169 15 168 15 0 74 2 133 6 62
4 109 3 112 -3 3 -5 8 -26 11 -47 3 -22 7 -55 10 -74 2 -19 7 -51 10 -70 3
-19 7 -113 10 -208 2 -95 6 -176 9 -181 5 -8 12 -101 21 -291 3 -63 8 -158 11
-210 3 -52 8 -138 11 -190 6 -113 17 -142 57 -147 58 -8 90 63 57 125 -6 11
-13 68 -16 128 -9 154 -11 169 -17 179 -3 6 -6 50 -6 100 -1 83 -8 193 -17
275 -2 19 -7 96 -10 170 -7 150 -10 202 -21 338 l-7 92 29 1 c16 0 95 2 177 5
l147 5 1 -48 c0 -26 2 -65 4 -86 2 -21 7 -106 10 -190 11 -259 14 -297 20
-307 3 -5 6 -54 5 -107 0 -54 2 -161 6 -238 3 -77 8 -190 10 -251 2 -61 8
-122 13 -136 5 -14 7 -29 4 -32 -4 -3 15 -6 41 -6 53 0 65 15 59 79 -2 20 -6
56 -8 81 -3 25 -7 88 -9 140 -3 52 -8 136 -12 185 -4 50 -8 122 -9 160 -1 39
-5 144 -9 235 -4 91 -9 245 -11 343 l-4 177 67 1 c37 1 78 3 92 4 14 1 43 4
65 5 22 2 46 1 52 -3 6 -4 14 -3 17 1 9 14 55 2 50 -13 -3 -7 1 -37 10 -66 8
-32 17 -126 21 -229 3 -96 8 -191 10 -210 4 -37 12 -159 20 -295 7 -128 7
-434 -1 -507 -7 -74 4 -112 42 -141 23 -17 25 -17 49 0 l25 18 -6 170 c-3 94
-7 251 -9 350 -3 162 -21 526 -31 615 -2 19 -6 73 -8 120 -3 47 -10 109 -16
139 -5 30 -9 98 -9 151 1 54 -2 103 -6 109 -4 7 -8 44 -10 84 -2 40 -6 79 -9
87 -5 14 -14 160 -16 237 0 42 -39 88 -67 79 -24 -8 -45 -49 -39 -79 3 -12 7
-52 10 -89 4 -36 8 -72 10 -80 3 -7 8 -56 12 -108 3 -52 8 -107 9 -123 2 -15
-2 -28 -8 -29 -7 0 -25 -2 -42 -3 -16 -2 -64 -6 -105 -10 -41 -4 -104 -8 -140
-9 l-65 -1 -8 90 c-5 50 -22 148 -37 219 -35 154 -50 172 -104 121 -19 -17
-26 -31 -21 -43 7 -20 45 -195 50 -232 17 -138 17 -147 -10 -154 -27 -7 -303
-11 -309 -5 -5 6 -20 260 -21 349 -1 97 -11 115 -60 107 -21 -3 -39 -8 -42
-10 -5 -6 -4 -242 2 -282 2 -16 7 -60 11 -97 l7 -68 -34 0 c-19 -1 -56 -3 -84
-5 -167 -15 -163 -15 -170 14 -4 19 3 46 23 87 16 32 37 77 47 99 9 22 23 52
30 66 15 27 39 149 36 184 0 11 0 34 0 50 1 17 0 37 -1 45 -1 8 -3 42 -6 75
-4 75 -26 175 -36 175 -19 0 -29 53 -17 89 10 33 57 157 79 206 4 11 21 54 35
95 15 41 33 80 41 86 7 6 18 33 25 60 7 27 18 58 26 69 7 11 13 29 13 41 0 12
9 43 20 69 11 26 20 57 20 70 0 20 16 64 39 105 4 8 14 29 22 45 16 33 4 31
154 25 28 -1 95 1 149 4 l100 7 33 -36 c18 -20 33 -39 33 -43 0 -4 17 -20 37
-37 47 -38 117 -57 152 -43 73 30 91 40 91 52 0 7 11 18 25 24 23 10 72 93 69
117 -3 32 -17 85 -23 85 -4 0 -14 13 -24 29 -9 16 -33 39 -52 51 -19 12 -35
28 -35 36 0 8 -6 14 -13 14 -7 0 -26 16 -42 35 -17 19 -37 35 -45 35 -19 1
-59 63 -67 104 -8 41 -26 75 -55 106 -23 25 -126 79 -183 97 -26 8 -30 13 -27
38 4 36 17 51 97 112 62 47 95 93 95 133 0 10 5 22 10 25 26 16 -5 115 -37
115 -4 0 -21 7 -37 15 -32 17 -97 25 -137 18 -19 -4 -33 -20 -58 -69 -18 -36
-30 -72 -27 -81 6 -16 -44 -73 -64 -73 -5 0 -10 -12 -10 -27 0 -16 -10 -39
-21 -53 l-20 -25 6 35 c3 19 11 56 17 82 9 37 9 50 -2 63 -11 13 -10 18 4 33
9 10 16 26 16 36 0 9 6 27 14 39 18 27 11 69 -14 85 -37 23 -121 22 -195 -1z
m125 -73 c0 -8 -4 -14 -8 -14 -29 0 -55 -114 -33 -148 9 -15 -6 -112 -20 -126
-25 -26 5 -86 43 -86 10 0 21 -7 24 -15 12 -31 41 -14 84 53 24 37 63 86 87
110 24 24 43 47 43 52 0 6 5 10 11 10 6 0 10 16 9 38 -2 20 1 48 5 61 7 21 12
23 54 17 63 -9 78 -25 60 -68 -29 -71 -53 -98 -97 -110 -37 -11 -47 -19 -63
-55 -10 -23 -19 -47 -19 -52 0 -6 -12 -18 -26 -28 -33 -21 -49 -60 -31 -76 22
-20 49 -36 107 -63 77 -36 91 -42 120 -50 14 -3 37 -21 52 -38 21 -24 27 -42
28 -79 0 -50 15 -91 29 -83 4 3 17 -5 29 -18 11 -13 26 -28 34 -32 7 -5 21
-21 31 -36 10 -16 22 -28 28 -28 18 0 98 -92 92 -106 -3 -8 -8 -12 -12 -9 -4
2 -15 -11 -24 -30 -15 -32 -15 -35 4 -58 24 -32 24 -32 -10 -46 -35 -15 -101
-5 -101 15 0 8 -4 14 -9 14 -9 0 -27 18 -103 101 -16 17 -88 25 -88 9 0 -3
-21 -6 -47 -5 -27 0 -70 -2 -98 -6 -27 -3 -52 -2 -53 2 -2 5 -8 7 -12 4 -28
-18 -200 53 -226 92 -16 25 -59 31 -67 11 -12 -34 2 -81 36 -116 32 -34 34
-39 21 -56 -7 -11 -16 -34 -20 -52 -3 -18 -12 -35 -19 -37 -7 -3 -15 -29 -19
-58 -6 -47 -28 -116 -79 -252 -7 -21 -19 -43 -25 -49 -7 -7 -12 -18 -12 -25 0
-8 -9 -31 -20 -53 -11 -22 -20 -48 -20 -59 0 -11 -15 -49 -34 -85 -43 -82 -73
-174 -81 -252 -6 -53 -5 -65 14 -90 47 -65 47 -421 -1 -507 -7 -12 -13 -28
-14 -35 -6 -33 -13 -19 -23 45 -6 37 -12 83 -14 102 -1 25 -11 40 -36 60 -19
14 -32 21 -28 14 5 -7 -1 -18 -13 -25 -25 -16 -27 -88 -6 -164 8 -27 17 -81
20 -119 l7 -71 -40 -32 c-30 -24 -50 -32 -80 -32 -34 0 -39 3 -35 18 8 22 24
63 35 84 10 20 12 118 3 142 -4 11 -19 16 -46 16 -23 0 -37 -4 -33 -10 3 -5 1
-18 -4 -28 -6 -11 -7 -31 -2 -48 7 -27 5 -39 -20 -99 -4 -11 -11 -35 -14 -52
-6 -31 -9 -33 -48 -33 l-42 0 -2 87 c-6 318 -8 343 -23 349 -33 15 -50 13 -71
-9 -19 -20 -20 -30 -15 -132 3 -60 8 -149 12 -197 l7 -87 -141 2 -141 2 -6 35
c-3 19 -6 96 -6 170 -1 74 -5 150 -11 168 -8 28 -14 32 -42 32 -58 0 -67 -21
-61 -146 3 -60 5 -109 6 -109 0 0 3 -34 5 -76 l6 -77 -131 2 c-124 1 -131 2
-132 21 0 11 -1 99 -1 196 0 140 -3 181 -14 198 -19 27 -55 27 -79 1 -16 -18
-18 -40 -17 -219 1 -199 1 -200 -19 -180 -18 18 -22 18 -49 4 -18 -9 -56 -15
-98 -15 l-69 0 -3 93 c-2 50 -3 148 -2 217 1 154 -8 190 -48 190 -53 0 -61
-26 -55 -190 7 -212 8 -310 4 -315 -2 -2 -64 -6 -136 -10 l-133 -7 -1 34 c0
18 -2 44 -3 58 -2 14 -6 88 -10 165 -8 147 -14 170 -45 180 -34 10 -61 -15
-63 -60 -2 -54 -2 -40 6 -218 l7 -158 -86 2 c-110 2 -115 6 -103 95 5 38 13
73 18 79 4 5 7 35 6 65 -1 30 6 84 15 120 16 58 25 71 85 128 84 79 103 92
132 92 13 0 43 9 66 20 77 34 240 61 356 58 36 -1 75 4 87 10 12 7 36 12 53
12 18 0 60 7 94 16 88 23 183 40 199 36 4 -1 33 5 63 14 42 12 58 13 69 4 7
-6 37 -11 67 -10 29 0 60 0 68 -1 18 -2 101 20 115 31 6 4 27 10 48 14 20 4
37 11 37 15 0 5 8 11 19 14 12 3 20 17 25 46 3 22 10 41 15 41 5 0 13 15 17
33 3 17 15 43 25 56 11 13 19 28 19 33 0 6 8 22 19 36 10 15 26 52 35 82 23
74 23 74 24 84 0 5 4 12 9 15 12 9 60 109 78 166 42 127 58 171 66 190 11 26
39 105 46 130 3 11 14 39 24 62 10 24 19 47 19 53 0 5 18 45 39 87 22 43 56
113 77 156 21 42 43 77 50 77 7 0 16 9 19 21 6 19 8 19 24 5 10 -9 31 -16 47
-16 17 0 35 -5 41 -11 6 -6 47 -13 92 -16 86 -6 111 5 111 46 0 35 -26 51 -75
44 -43 -5 -175 22 -175 37 0 4 -16 15 -36 26 -29 16 -74 68 -74 86 0 7 145 0
180 -7 62 -14 110 -38 110 -56 0 -19 21 -27 62 -21 48 7 62 102 15 102 -5 0
-25 11 -43 25 -18 14 -37 25 -43 25 -27 0 12 49 42 54 34 5 45 26 45 87 0 33
5 66 12 74 7 9 9 27 4 52 -5 21 -9 40 -9 43 -5 25 -19 50 -28 51 -7 0 5 8 26
17 48 21 97 24 97 6z m-2223 -2974 c26 0 71 1 98 1 28 0 56 0 62 0 10 -1 12
-34 10 -134 -2 -112 -5 -136 -19 -151 -10 -10 -18 -21 -18 -26 0 -4 -26 -34
-57 -66 -32 -32 -63 -67 -68 -78 -6 -11 -30 -36 -55 -54 l-45 -35 -6 59 c-4
33 -7 154 -8 271 l-1 212 23 3 c12 2 25 3 29 1 4 -2 28 -3 55 -3z m329 -38
c-13 -27 -32 -54 -40 -61 -14 -12 -16 -7 -16 48 l0 61 40 0 40 0 -24 -48z
m461 26 c8 -6 31 -8 58 -4 l45 7 2 -33 c1 -18 2 -50 4 -70 1 -26 -3 -38 -15
-43 -9 -3 -18 -6 -20 -5 -2 1 -7 -4 -12 -12 -6 -9 -41 -14 -124 -16 l-115 -4
0 96 0 95 33 3 c51 5 131 -3 144 -14z m-1035 3 c9 -1 3 -18 -33 -99 -16 -35
-29 -68 -29 -73 0 -5 -4 -9 -9 -9 -5 0 -15 -15 -21 -34 -6 -19 -24 -51 -40
-71 -16 -20 -38 -60 -49 -88 -27 -72 -51 -117 -62 -117 -15 0 -11 142 5 172 8
15 31 41 50 59 20 17 36 36 36 43 1 6 14 27 30 46 17 19 30 42 30 52 0 10 9
32 20 50 11 19 17 41 14 55 -6 22 0 23 58 14z m753 0 c3 -5 1 -12 -4 -15 -5
-4 -5 -21 0 -43 13 -57 11 -110 -4 -116 -30 -11 -123 -17 -136 -8 -12 8 -11
15 4 48 10 21 24 43 30 48 7 6 16 27 19 47 6 32 11 37 39 41 18 2 35 5 39 5 4
1 9 -2 13 -7z m-905 -13 c-1 -41 -62 -162 -87 -172 -15 -6 -18 50 -4 59 5 3
17 29 27 58 9 28 19 55 21 60 7 12 43 8 43 -5z m2009 5 c23 -6 23 -7 18 -107
-5 -71 -14 -123 -32 -176 -23 -64 -26 -87 -22 -157 4 -78 36 -173 57 -173 5 0
11 -13 15 -30 4 -16 12 -33 20 -37 31 -18 53 -78 55 -148 3 -106 3 -110 -15
-95 -8 7 -15 17 -15 22 0 5 -11 19 -25 32 -14 13 -25 28 -25 34 0 6 -3 12 -7
14 -14 6 -63 84 -63 100 0 9 -6 29 -14 45 -8 15 -22 47 -32 71 -9 23 -21 42
-25 42 -14 0 -49 91 -49 129 0 20 -9 68 -20 106 -11 39 -20 86 -20 106 0 20
-7 53 -15 73 -8 20 -12 36 -8 36 4 0 2 5 -5 12 -17 17 -15 38 3 38 15 0 22 5
58 35 30 26 118 41 166 28z m99 -404 c1 -100 5 -186 8 -193 4 -6 0 -4 -9 4
-21 21 -47 118 -47 178 0 27 7 69 15 92 8 23 15 55 15 71 0 16 4 29 8 29 5 0
10 -81 10 -181z m-2363 10 c-1 -50 -5 -64 -23 -78 -12 -9 -30 -32 -40 -51 -25
-50 -42 -50 -42 -1 0 23 3 41 8 41 4 0 16 21 26 48 15 34 61 102 72 102 0 0 0
-27 -1 -61z m1176 39 c3 -38 8 -141 13 -286 l6 -163 -24 18 c-18 13 -25 28
-26 51 0 18 -6 43 -14 55 -8 12 -18 45 -21 72 -4 28 -14 65 -23 84 -12 26 -13
36 -4 39 7 2 12 10 12 18 0 8 4 14 9 14 5 0 19 25 32 55 22 52 38 70 40 43z
m-362 -168 c1 -123 -9 -163 -24 -102 -3 15 -14 35 -22 44 -9 10 -17 28 -17 40
-1 13 -5 29 -10 37 -5 7 -5 16 0 20 5 3 22 25 37 49 15 23 29 42 31 42 3 0 5
-58 5 -130z m1678 -562 c-3 -8 -6 -5 -6 6 -1 11 2 17 5 13 3 -3 4 -12 1 -19z"/>
<path d="M3823 3970 c-41 -16 -38 -61 7 -111 35 -39 92 -47 112 -15 15 22 8
53 -15 65 -12 7 -28 24 -35 39 -12 29 -33 35 -69 22z"/>
<path d="M1580 160 c0 -5 5 -10 11 -10 5 0 7 5 4 10 -3 6 -8 10 -11 10 -2 0
-4 -4 -4 -10z"/>
</g>
</svg>
