<?xml version="1.0" standalone="no"?>
<!DOCTYPE svg PUBLIC "-//W3C//DTD SVG 20010904//EN"
 "http://www.w3.org/TR/2001/REC-SVG-20010904/DTD/svg10.dtd">
<svg version="1.0" xmlns="http://www.w3.org/2000/svg"
 width="465.000000pt" height="425.000000pt" viewBox="0 0 465.000000 425.000000"
 preserveAspectRatio="xMidYMid meet">
<metadata>
Created by potrace 1.16, written by Peter Selinger 2001-2019
</metadata>
<g transform="translate(0.000000,425.000000) scale(0.100000,-0.100000)"
fill="#000000" stroke="none">
<path d="M2537 4014 c-2 -2 -36 -4 -75 -5 -40 -1 -72 -5 -72 -10 0 -5 -11 -9
-25 -9 -24 0 -86 -30 -116 -56 -8 -8 -21 -14 -27 -14 -7 0 -11 -4 -9 -8 1 -4
-15 -25 -35 -46 -21 -22 -38 -45 -38 -53 0 -7 -4 -13 -10 -13 -5 0 -10 -6 -10
-14 0 -8 -6 -21 -13 -28 -7 -7 -26 -44 -42 -83 -16 -38 -32 -75 -37 -81 -4 -5
-10 -30 -13 -53 -3 -24 -7 -47 -10 -52 -16 -25 -11 -160 10 -283 27 -156 29
-150 -57 -265 -28 -36 -60 -79 -71 -96 -30 -40 -136 -166 -156 -185 -9 -8 -34
-38 -56 -65 -22 -28 -44 -55 -50 -61 -60 -65 -153 -172 -166 -191 -9 -14 -42
-51 -73 -83 -31 -33 -56 -68 -56 -79 0 -14 -12 -26 -37 -36 -21 -9 -40 -19
-43 -23 -5 -7 -90 -50 -175 -88 -22 -10 -42 -21 -45 -25 -11 -15 -139 -61
-205 -74 -38 -7 -94 -20 -122 -28 -29 -8 -53 -11 -53 -6 0 17 -56 -9 -69 -33
-13 -23 -13 -28 5 -49 11 -13 26 -25 34 -27 8 -1 24 -7 35 -12 11 -4 40 -11
65 -14 56 -6 72 -10 85 -18 6 -4 37 -5 68 -4 32 2 78 -2 103 -9 l46 -12 -31
-13 c-18 -7 -36 -21 -41 -30 -5 -9 -23 -23 -39 -30 -82 -33 -30 -105 71 -100
64 4 72 2 58 -15 -7 -8 -10 -26 -8 -40 8 -37 -45 -208 -72 -235 -8 -8 -28 -53
-35 -77 -3 -13 -12 -29 -18 -35 -7 -7 -30 -51 -52 -97 -22 -46 -47 -88 -56
-95 -8 -6 -26 -31 -38 -56 -42 -83 -85 -150 -130 -200 -76 -85 -104 -119 -151
-180 -28 -36 -56 -72 -63 -80 -7 -8 -19 -35 -27 -59 -13 -41 -13 -46 10 -88
13 -25 34 -52 46 -60 26 -17 129 -33 141 -22 24 21 49 18 68 -11 23 -34 62
-55 79 -41 6 5 23 9 39 9 15 0 45 11 67 26 59 39 90 49 106 35 25 -21 120 -2
186 36 32 19 65 35 71 35 7 0 18 14 24 30 6 17 18 30 27 30 9 0 16 5 16 11 0
6 6 16 12 23 7 7 24 28 38 46 14 18 31 39 37 46 7 7 13 17 13 23 0 5 6 14 13
18 17 10 146 223 151 249 2 10 15 44 28 74 40 88 66 160 87 240 11 41 32 107
46 146 l27 71 71 -5 c144 -9 319 -3 364 13 6 2 14 1 17 -3 7 -6 -60 -42 -80
-42 -6 0 -17 -7 -24 -15 -7 -8 -16 -12 -21 -9 -12 7 -39 -21 -39 -41 0 -27 20
-55 38 -55 10 0 34 11 53 26 79 58 198 93 245 72 13 -6 24 -15 24 -20 0 -5 4
-7 10 -3 13 8 78 -35 113 -74 15 -17 32 -31 38 -31 5 0 8 -4 5 -9 -8 -12 13
-19 41 -13 49 9 34 91 -22 112 -33 12 -45 34 -14 25 52 -15 108 -47 114 -65 6
-18 33 -30 73 -30 12 0 22 3 23 8 0 4 3 18 5 31 2 14 2 22 -1 19 -3 -3 -20 8
-38 25 -40 38 -102 77 -121 77 -33 0 -23 17 11 18 45 2 123 -40 179 -96 47
-47 53 -49 84 -24 22 18 22 19 5 51 -9 18 -25 35 -35 38 -9 3 -23 15 -30 29
-8 14 -32 31 -59 40 -25 10 -55 26 -67 36 -18 16 -27 17 -74 8 -104 -20 -107
-8 -10 38 39 19 72 38 75 43 4 5 16 -3 29 -17 19 -23 26 -25 43 -16 38 21 128
-18 182 -77 49 -53 67 -55 91 -11 8 16 2 29 -35 75 -25 30 -42 55 -39 55 7 0
25 -19 99 -103 29 -33 36 -36 59 -27 21 8 26 16 26 43 0 35 -24 77 -44 77 -7
0 -22 10 -34 23 -11 12 -28 28 -36 35 -17 13 -21 32 -8 32 4 0 29 -18 56 -40
51 -43 79 -49 106 -25 29 26 13 62 -39 92 -25 14 -57 33 -71 42 -19 12 -46 15
-115 12 l-90 -3 19 21 c10 11 27 23 37 26 10 3 21 15 24 26 4 10 12 19 19 19
7 0 18 11 24 25 6 14 15 25 20 25 4 0 16 17 27 37 11 21 34 57 53 80 77 97
182 346 182 434 0 26 5 60 10 75 20 51 14 273 -8 309 -4 6 -7 19 -8 31 0 12
-4 30 -9 40 -4 10 -9 28 -10 39 -2 11 -11 47 -20 80 -8 33 -17 67 -20 76 -2 9
-8 33 -13 52 -6 20 -7 38 -4 41 3 3 0 6 -6 6 -7 0 -12 9 -12 19 0 11 -5 23
-10 26 -6 4 -8 11 -5 16 4 5 1 9 -4 9 -6 0 -11 7 -11 15 0 8 -5 15 -10 15 -7
0 -7 6 -1 18 10 19 22 64 23 91 1 8 10 16 20 19 10 2 18 9 18 15 0 6 3 7 7 4
3 -4 25 4 48 18 23 13 45 21 49 18 3 -3 6 -1 6 5 0 7 6 12 13 12 6 0 35 12 62
25 28 14 59 25 71 25 11 0 24 3 28 7 8 8 28 13 80 20 52 7 81 34 72 67 -3 14
-13 26 -21 26 -8 0 -20 9 -27 19 -9 15 -17 17 -35 10 -36 -14 -161 -13 -178 1
-8 6 -46 16 -84 21 -39 4 -86 15 -106 23 -19 8 -38 15 -40 15 -11 1 -62 68
-74 98 -7 17 -25 42 -39 55 -15 14 -41 40 -59 59 -18 19 -38 39 -45 44 -16 13
-149 65 -165 65 -6 0 -24 5 -40 11 -15 7 -40 13 -55 15 -15 2 -45 8 -67 13
-22 5 -42 7 -44 5z m81 -89 c54 -8 234 -72 243 -87 5 -7 9 -8 9 -3 1 13 120
-117 120 -131 0 -6 14 -36 31 -67 21 -39 37 -57 50 -57 11 0 19 -7 19 -16 0
-8 5 -12 10 -9 6 3 10 3 10 -2 0 -4 33 -7 72 -6 79 2 170 -15 147 -27 -8 -4
-54 -11 -103 -14 -49 -4 -93 -9 -98 -12 -13 -9 -9 -44 8 -61 13 -13 22 -14 53
-4 57 17 61 13 11 -10 -25 -11 -58 -21 -75 -21 -40 -1 -65 -24 -65 -62 0 -17
-9 -55 -20 -84 -27 -70 -26 -81 12 -133 33 -45 108 -282 108 -340 0 -15 4 -30
9 -33 25 -16 36 -298 16 -396 -20 -100 -65 -230 -86 -251 -10 -10 -19 -21 -18
-24 5 -27 -118 -221 -180 -283 -20 -20 -54 -54 -76 -74 -22 -20 -51 -51 -65
-67 -14 -17 -31 -31 -37 -31 -7 0 -13 -4 -13 -10 0 -14 -121 -100 -141 -100
-10 0 -19 -5 -21 -11 -4 -12 -133 -58 -166 -59 -13 0 -31 -4 -40 -9 -9 -5 -44
-12 -77 -16 -32 -3 -62 -8 -65 -10 -3 -1 -33 -6 -68 -9 -34 -4 -72 -10 -85
-14 -26 -9 -88 -8 -207 1 -72 7 -89 11 -111 33 -35 33 -64 25 -81 -22 -6 -18
-15 -34 -19 -34 -3 0 -6 -19 -6 -42 0 -38 -46 -228 -75 -313 -24 -69 -101
-251 -113 -265 -7 -8 -29 -46 -49 -84 -21 -38 -42 -74 -49 -81 -7 -6 -23 -27
-37 -46 -34 -47 -167 -179 -180 -179 -5 0 -20 -10 -31 -21 -17 -17 -23 -19
-30 -8 -7 11 -9 11 -9 -2 0 -15 -27 -29 -57 -29 -17 0 -16 25 1 42 7 8 16 23
20 35 4 12 13 26 21 33 8 6 11 18 8 26 -3 8 0 14 6 14 6 0 11 6 11 14 0 8 3
16 8 18 7 3 18 21 90 158 24 47 49 87 53 88 5 2 9 12 9 22 0 10 4 21 9 24 24
15 113 229 125 301 2 17 14 53 25 82 20 50 20 52 3 74 -16 18 -22 20 -40 10
-12 -6 -24 -24 -28 -39 -3 -15 -8 -34 -12 -42 -3 -8 -7 -22 -8 -30 -13 -94
-69 -243 -98 -262 -6 -4 -7 -8 -3 -8 8 0 -30 -74 -76 -147 -15 -24 -27 -45
-27 -49 0 -11 -133 -239 -167 -285 -18 -26 -33 -52 -33 -60 0 -7 -3 -9 -7 -6
-3 4 -20 -4 -37 -17 -38 -28 -101 -50 -123 -42 -12 5 -14 16 -10 46 5 38 40
119 56 130 4 3 27 37 50 75 60 101 65 109 73 115 4 3 14 22 22 42 8 19 31 56
51 82 34 45 123 210 157 291 9 22 19 61 22 87 6 41 4 48 -16 62 -21 15 -24 15
-41 -3 -10 -10 -20 -31 -22 -47 -7 -65 -29 -124 -82 -224 -51 -97 -147 -247
-166 -261 -5 -3 -7 -9 -5 -12 1 -3 -22 -42 -52 -87 -72 -106 -120 -189 -120
-205 0 -8 -5 -17 -11 -20 -20 -13 -103 -16 -129 -5 -36 15 -38 60 -5 96 14 15
25 33 25 40 0 8 5 14 10 14 6 0 10 6 10 13 0 6 33 52 73 100 118 145 188 244
201 283 3 10 16 30 28 44 13 14 30 38 38 55 8 16 21 37 29 46 16 20 161 339
161 356 0 6 5 24 12 40 6 15 11 31 10 36 -1 4 2 7 6 7 4 0 8 9 9 21 3 40 30
48 133 42 75 -4 115 -1 190 15 154 34 221 53 277 78 28 13 54 24 58 24 8 0 -6
-52 -23 -81 -19 -34 -9 -75 20 -82 33 -9 101 9 158 43 28 16 54 30 58 30 4 0
37 17 73 39 37 21 78 41 92 45 14 3 28 14 31 24 3 9 15 23 26 30 19 11 20 10
20 -24 0 -25 7 -43 21 -55 18 -16 25 -16 62 -5 23 7 65 29 93 49 28 20 56 37
62 37 6 0 12 3 14 8 4 10 55 45 96 66 18 9 41 25 51 34 25 24 123 113 152 138
37 32 141 162 182 226 20 31 39 74 43 95 3 21 12 47 19 59 8 11 14 47 16 80 1
32 6 67 11 76 4 9 4 19 -1 22 -4 3 -11 24 -15 47 -4 23 -14 55 -23 73 -10 17
-16 36 -15 42 1 6 -9 17 -23 24 -14 7 -25 19 -25 25 0 7 -7 18 -15 25 -8 7
-15 20 -15 29 0 11 -14 21 -40 28 -37 9 -42 8 -52 -11 -7 -11 -12 -33 -13 -47
-1 -21 6 -29 30 -38 18 -6 38 -22 45 -36 7 -14 17 -25 22 -25 4 0 8 -7 8 -15
0 -8 4 -15 9 -15 8 0 16 -18 28 -65 3 -11 4 -51 4 -90 -3 -117 -47 -245 -108
-312 -39 -44 -104 -119 -112 -130 -3 -5 -33 -30 -66 -57 -33 -26 -78 -63 -100
-81 -52 -43 -113 -85 -125 -85 -6 0 -10 -4 -10 -8 0 -9 -44 -33 -67 -38 -7 -1
-20 -10 -29 -19 -24 -24 -28 -11 -10 35 9 22 13 40 11 40 -3 0 -1 9 4 19 7 13
7 29 0 50 -9 25 -17 31 -40 31 -24 0 -30 -5 -38 -37 -8 -27 -22 -45 -48 -63
-21 -13 -56 -42 -78 -65 -25 -25 -82 -61 -155 -96 -142 -70 -150 -73 -150 -53
0 16 21 47 78 113 35 42 41 71 17 91 -21 17 -57 6 -96 -31 -19 -17 -56 -38
-84 -46 -53 -15 -82 -26 -129 -49 -41 -21 -245 -64 -318 -68 -75 -4 -144 9
-206 36 -26 12 -60 20 -76 19 -18 -2 -26 1 -22 8 4 6 13 11 20 11 7 0 26 12
41 26 28 26 77 48 92 43 12 -4 20 51 13 86 -6 29 -8 30 -50 27 -208 -13 -280
-10 -359 14 -21 7 28 31 77 38 75 10 197 51 261 87 9 5 57 28 106 52 105 51
218 112 260 141 17 12 37 26 46 31 9 6 29 19 45 29 16 11 54 35 84 55 30 20
68 49 85 65 16 15 44 35 60 43 17 9 52 37 78 64 26 26 70 63 98 80 27 18 49
36 49 41 0 4 5 8 11 8 17 0 216 203 223 228 4 12 2 30 -4 42 -8 16 -17 19 -38
14 -37 -9 -42 -13 -42 -30 0 -8 -4 -14 -9 -14 -5 0 -12 -9 -16 -20 -3 -11 -19
-32 -35 -47 -86 -84 -129 -122 -165 -149 -49 -36 -100 -80 -133 -116 -13 -15
-56 -48 -96 -74 -39 -26 -95 -65 -124 -87 -30 -21 -57 -36 -60 -32 -4 4 2 14
13 23 11 10 36 37 55 62 40 52 186 220 260 300 28 30 77 89 107 130 31 41 61
80 68 85 6 6 28 39 50 74 34 58 39 72 40 135 1 39 -2 87 -7 106 -27 110 -27
237 1 347 11 43 72 165 96 193 7 8 16 25 19 37 10 32 104 107 161 128 85 30
143 35 243 20z m-212 -2582 c-3 -3 -13 -2 -23 2 -17 7 -17 8 2 15 19 7 34 -5
21 -17z"/>
<path d="M2668 3741 c-8 -3 -29 -18 -46 -33 -27 -23 -32 -35 -38 -93 -7 -70 1
-98 40 -142 11 -13 15 -23 10 -23 -18 -1 61 -33 101 -40 94 -19 180 69 173
176 -2 24 -6 44 -10 44 -5 0 -8 7 -8 15 0 20 -50 64 -72 65 -9 0 -20 5 -23 10
-3 6 -19 10 -34 10 -15 0 -31 3 -35 7 -9 9 -39 11 -58 4z m132 -120 c24 -23
28 -34 23 -62 -6 -42 -29 -69 -57 -68 -18 0 -16 2 7 11 16 6 30 20 33 35 7 28
-13 73 -30 68 -6 -2 -22 -6 -36 -9 -32 -7 -37 -45 -12 -83 l17 -27 -31 18
c-62 37 -69 118 -10 135 51 15 66 12 96 -18z"/>
</g>
</svg>
