<?xml version="1.0" standalone="no"?>
<!DOCTYPE svg PUBLIC "-//W3C//DTD SVG 20010904//EN"
 "http://www.w3.org/TR/2001/REC-SVG-20010904/DTD/svg10.dtd">
<svg version="1.0" xmlns="http://www.w3.org/2000/svg"
 width="509.000000pt" height="463.000000pt" viewBox="0 0 509.000000 463.000000"
 preserveAspectRatio="xMidYMid meet">
<metadata>
Created by potrace 1.16, written by Peter Selinger 2001-2019
</metadata>
<g transform="translate(0.000000,463.000000) scale(0.100000,-0.100000)"
fill="#000000" stroke="none">
<path d="M2702 4458 c-6 -6 -12 -16 -12 -20 0 -12 -25 -40 -165 -182 -72 -73
-138 -135 -148 -139 -21 -8 -22 -46 -1 -95 36 -83 74 -214 74 -252 0 -22 14
-79 31 -128 17 -48 38 -107 46 -132 15 -47 32 -89 78 -200 33 -79 41 -99 101
-265 26 -71 60 -158 75 -192 15 -34 35 -90 44 -125 29 -110 85 -390 85 -422 0
-17 9 -46 21 -65 27 -44 17 -54 -81 -80 -89 -23 -188 -31 -262 -20 -29 4 -82
10 -118 13 -107 9 -253 70 -347 145 -98 78 -228 217 -249 266 -7 17 -25 48
-41 70 -16 22 -39 59 -50 82 -12 23 -26 50 -32 60 -20 36 -79 199 -86 238 -3
21 -12 51 -19 65 -7 14 -21 61 -30 105 -10 44 -31 123 -47 175 -16 52 -29 104
-29 115 0 11 -7 30 -15 41 -8 12 -12 24 -8 27 3 4 1 12 -5 19 -5 7 -22 42 -37
78 -15 36 -38 79 -51 97 -25 32 -31 53 -16 53 5 0 17 48 26 107 17 101 53 259
77 331 26 78 -18 112 -64 49 -28 -38 -85 -80 -98 -72 -3 3 -10 31 -13 62 -12
100 -15 109 -40 111 -19 1 -28 -7 -45 -43 -12 -25 -21 -49 -21 -55 0 -5 -4
-10 -9 -10 -5 0 -11 -9 -14 -20 -11 -42 -37 -10 -52 65 -21 98 -52 110 -93 35
-47 -87 -85 -141 -96 -137 -6 2 -24 30 -41 63 -30 60 -54 76 -80 54 -10 -8
-11 -18 -5 -34 15 -39 22 -127 22 -286 1 -155 1 -155 -29 -214 -17 -32 -43
-64 -56 -71 -31 -16 -90 -36 -98 -32 -3 1 -13 -6 -23 -15 -14 -15 -66 -25 -99
-19 -5 1 -7 -17 -5 -40 3 -42 3 -42 91 -88 48 -25 87 -49 87 -53 0 -12 -29
-37 -113 -98 -42 -30 -79 -63 -83 -74 -11 -33 24 -54 101 -59 39 -3 104 -11
146 -18 l77 -12 6 -66 c4 -36 10 -91 14 -121 12 -93 8 -267 -9 -360 -5 -30
-14 -86 -19 -125 -13 -100 -19 -142 -31 -210 -31 -175 -20 -337 33 -504 34
-108 60 -162 131 -276 91 -146 109 -169 221 -279 102 -101 221 -189 343 -256
21 -11 54 -30 73 -41 19 -12 78 -43 131 -70 l96 -48 -9 -62 c-4 -34 -13 -68
-19 -76 -6 -7 -9 -13 -6 -13 3 0 0 -21 -8 -47 -7 -27 -16 -69 -20 -95 -3 -26
-15 -58 -26 -72 -26 -33 -108 -56 -206 -56 -82 -1 -113 -13 -113 -45 0 -10 8
-27 17 -37 17 -19 16 -20 -7 -39 -14 -10 -31 -19 -37 -19 -7 0 -13 -11 -13
-24 0 -52 19 -67 58 -47 9 5 25 12 35 15 9 3 21 16 26 29 5 13 31 34 63 50 80
40 93 35 41 -18 -24 -25 -48 -45 -53 -45 -6 0 -10 -7 -10 -15 0 -8 -7 -15 -15
-15 -11 0 -14 -7 -11 -25 6 -33 12 -42 35 -48 19 -5 61 24 61 42 0 28 133 131
169 131 11 0 26 7 34 14 13 13 22 12 73 -5 156 -52 244 -73 257 -60 8 8 7 15
-1 23 -14 14 -16 42 -2 33 6 -3 10 0 10 8 0 17 -21 27 -59 27 -59 0 -267 72
-257 89 4 5 1 13 -5 16 -15 10 -4 82 33 230 17 66 32 122 33 123 2 2 45 -10
97 -27 51 -17 143 -37 203 -46 169 -24 162 -21 169 -63 3 -20 9 -88 13 -151
l6 -114 -94 -91 c-52 -50 -105 -105 -119 -121 -14 -17 -41 -42 -59 -56 -29
-21 -33 -29 -28 -51 5 -17 15 -28 30 -30 17 -2 42 18 111 94 48 53 94 99 102
102 9 3 3 -23 -17 -82 -17 -48 -35 -91 -39 -97 -13 -16 8 -55 29 -55 22 0 61
67 61 104 0 13 12 48 26 78 l26 53 -5 -105 c-5 -132 1 -164 31 -168 16 -2 22
2 22 15 0 15 2 16 11 3 7 -11 8 7 4 64 -9 108 -8 168 5 215 13 49 26 53 197
55 107 2 125 5 137 21 18 25 3 71 -26 78 -11 3 -45 2 -76 -3 -32 -5 -91 -12
-133 -15 -64 -6 -77 -4 -82 9 -4 9 -16 16 -27 16 -17 0 -20 7 -22 45 -2 67 -4
94 -13 163 -4 34 -5 62 -3 62 222 8 268 13 341 37 42 15 77 30 77 35 0 4 11 8
25 8 14 0 25 4 25 9 0 5 26 26 58 47 100 66 141 116 232 289 23 44 48 87 56
96 8 8 14 23 14 33 0 9 9 27 20 39 35 37 76 141 86 220 2 15 6 32 9 38 4 5 11
34 16 62 4 29 12 72 17 97 21 100 35 187 37 220 3 55 28 103 90 165 31 32 80
87 110 124 29 36 109 116 176 176 129 115 203 188 329 321 41 44 91 93 110
111 43 38 184 189 207 222 9 13 48 57 87 97 120 122 205 224 231 275 14 26 39
58 55 71 33 24 37 49 16 89 -34 65 -50 137 -61 273 -3 33 -9 64 -14 69 -5 5
-7 16 -4 23 9 23 -110 11 -201 -20 -44 -15 -89 -25 -101 -22 -15 4 -32 25 -50
61 -16 30 -31 55 -35 55 -3 0 -12 17 -20 38 -12 32 -15 53 -19 110 -1 7 -5 11
-10 8 -4 -3 -14 7 -21 22 -7 16 -15 22 -17 15 -3 -7 -13 -13 -24 -13 -10 0
-19 -5 -19 -10 0 -19 -44 -57 -100 -87 -30 -16 -81 -46 -112 -66 -31 -21 -62
-37 -67 -37 -9 0 -61 100 -61 117 0 3 -14 33 -31 67 -37 74 -71 106 -102 98
-32 -8 -96 -50 -142 -94 -22 -20 -65 -53 -97 -71 l-56 -34 -25 28 c-13 16 -39
57 -57 91 -18 35 -40 72 -50 83 -10 11 -25 35 -34 53 -9 17 -24 32 -32 32 -16
0 -63 -30 -98 -62 -11 -10 -25 -18 -32 -18 -6 0 -46 -34 -87 -76 -70 -71 -77
-76 -107 -69 -36 8 -53 23 -90 78 -14 20 -28 37 -32 37 -5 0 -8 6 -8 13 0 20
-111 162 -129 165 -9 1 -22 -3 -29 -10z m70 -140 c19 -24 47 -63 63 -88 16
-25 41 -61 56 -80 14 -19 27 -48 27 -64 1 -16 6 -34 11 -40 18 -24 32 -85 41
-176 16 -170 30 -314 35 -350 2 -19 6 -60 10 -90 3 -30 10 -82 15 -115 5 -33
12 -98 15 -145 3 -47 9 -110 14 -140 5 -30 7 -102 4 -160 -2 -58 -5 -219 -7
-359 -2 -235 -1 -255 17 -277 22 -28 34 -30 58 -8 14 13 17 26 12 66 -6 50 -6
50 17 38 20 -11 25 -10 37 6 7 10 13 29 13 43 0 14 10 69 21 121 11 52 27 127
36 165 8 39 17 81 20 95 3 14 6 41 7 60 1 19 4 37 7 40 4 3 14 61 22 130 9 69
27 179 41 245 13 66 27 141 31 168 4 26 11 50 15 52 5 3 11 31 15 63 15 139
68 357 101 420 19 35 34 72 34 81 0 18 52 71 69 71 6 0 14 6 18 13 18 28 105
89 135 93 45 8 76 -28 117 -131 17 -44 39 -92 47 -107 14 -25 14 -28 0 -28 -9
0 -16 -6 -16 -14 0 -12 -8 -33 -50 -131 -4 -11 -13 -42 -20 -69 -6 -28 -20
-69 -31 -92 -10 -24 -19 -47 -19 -51 -1 -4 -9 -26 -20 -48 -11 -22 -19 -44
-20 -48 0 -7 -75 -164 -162 -342 -16 -33 -36 -82 -45 -110 -8 -27 -25 -72 -38
-100 -24 -51 -57 -127 -90 -203 -10 -23 -24 -47 -31 -53 -8 -6 -12 -15 -9 -19
8 -13 -111 -267 -156 -335 -15 -21 -24 -46 -21 -55 8 -22 28 -40 44 -40 7 0
21 -9 31 -20 27 -32 51 -24 86 29 17 27 50 70 74 96 23 26 58 71 78 99 20 29
61 86 91 127 31 41 66 94 78 118 12 25 37 68 55 95 34 53 133 223 155 265 7
14 20 33 29 42 9 10 29 42 44 73 16 31 34 59 40 63 21 13 81 95 98 134 9 20
40 62 68 93 28 31 62 74 76 96 14 22 29 40 34 40 5 0 35 39 67 87 102 153 145
187 301 233 55 17 71 9 78 -37 3 -21 14 -81 25 -133 26 -125 25 -146 -10 -215
-28 -55 -79 -120 -87 -111 -2 2 13 39 33 82 45 98 49 166 12 219 -25 38 -56
56 -108 62 -19 2 -42 10 -50 18 -40 36 -146 -42 -191 -140 -38 -83 -38 -103
-2 -175 50 -100 69 -120 128 -126 37 -4 64 -1 102 14 l51 19 -36 -51 c-20 -28
-43 -56 -52 -63 -39 -29 -90 -82 -116 -118 -48 -67 -487 -515 -588 -600 -33
-28 -69 -59 -80 -70 -12 -11 -34 -30 -51 -42 -16 -12 -66 -64 -110 -115 -43
-51 -104 -114 -135 -139 -70 -58 -87 -93 -93 -194 -3 -44 -12 -118 -22 -165
-9 -47 -18 -94 -20 -105 -27 -155 -60 -259 -110 -345 -8 -14 -47 -83 -87 -154
-46 -81 -94 -151 -128 -187 -58 -60 -142 -115 -160 -104 -5 3 -10 2 -10 -4 0
-6 -30 -24 -67 -42 -59 -27 -85 -33 -201 -42 -95 -8 -139 -8 -151 0 -11 7 -23
7 -34 2 -9 -5 -31 -6 -49 -3 -18 4 -44 8 -58 9 -127 8 -239 35 -345 81 -22 10
-42 18 -45 19 -31 7 -243 114 -337 171 -17 10 -53 32 -80 48 -26 16 -66 43
-88 60 -22 18 -51 39 -65 48 -47 30 -176 163 -221 227 -140 200 -208 354 -233
524 -14 100 -9 190 19 357 9 52 17 102 17 110 1 8 7 51 15 95 36 200 41 319
23 465 -22 172 -23 187 -12 194 14 9 3 68 -15 81 -17 13 -32 135 -21 166 6 15
5 32 -3 46 -7 13 -10 26 -6 29 3 4 0 21 -7 39 -22 51 -3 185 25 185 5 0 9 5 9
11 0 20 52 57 96 68 88 22 158 10 225 -41 61 -46 121 -114 143 -163 63 -137
88 -210 116 -330 7 -27 15 -57 18 -65 7 -20 7 -17 21 -85 14 -62 34 -133 57
-198 8 -20 14 -44 14 -53 0 -8 15 -47 33 -87 19 -40 40 -88 47 -107 12 -30 39
-77 80 -140 5 -8 28 -44 52 -80 23 -36 58 -83 77 -106 20 -22 48 -53 62 -70
144 -163 339 -259 564 -278 22 -2 70 -7 107 -11 69 -8 222 9 245 27 6 5 26 10
45 12 18 2 40 5 48 9 8 3 29 10 45 15 37 11 43 37 16 65 -14 15 -20 38 -22 72
-1 28 -8 64 -15 80 -6 17 -15 44 -18 60 -7 38 -20 97 -45 205 -24 103 -94 313
-146 435 -7 17 -23 59 -35 95 -13 36 -36 93 -51 126 -16 34 -29 66 -29 71 0
15 -90 227 -101 237 -5 6 -9 21 -9 34 0 14 -9 50 -19 81 -17 52 -35 121 -46
181 -2 14 -14 66 -26 117 l-22 91 34 42 c77 95 124 146 156 169 18 14 43 40
54 58 11 18 27 33 34 33 8 0 29 -19 47 -42z m-1636 -135 c25 -53 39 -73 53
-73 24 0 33 12 61 83 12 32 24 56 26 54 2 -2 6 -30 9 -62 8 -89 30 -105 89
-60 42 32 49 31 43 -2 -7 -43 -64 -251 -72 -263 -4 -7 -17 -2 -36 14 -57 48
-192 93 -247 83 -35 -7 -92 -23 -114 -32 -13 -5 -17 3 -22 52 -14 155 -15 150
27 134 33 -13 46 -1 92 84 21 39 40 74 43 80 3 5 8 2 10 -5 3 -8 20 -48 38
-87z m2194 67 c12 -13 36 -56 55 -95 18 -38 42 -78 54 -89 26 -24 37 -77 21
-107 -12 -22 -34 -103 -45 -171 -3 -18 -15 -68 -25 -112 -11 -43 -20 -98 -20
-121 0 -23 -7 -64 -15 -91 -8 -27 -21 -92 -30 -144 -9 -52 -26 -131 -37 -175
-11 -44 -22 -93 -24 -110 -20 -155 -41 -269 -66 -370 -17 -66 -36 -145 -43
-175 -6 -31 -17 -65 -24 -75 -10 -16 -11 21 -6 185 9 281 4 431 -19 547 -3 11
-7 68 -11 125 -3 56 -10 121 -15 143 -5 22 -12 90 -15 150 -4 61 -10 128 -15
150 -5 22 -11 69 -14 105 -5 63 -5 64 7 25 28 -93 101 -145 187 -131 62 10 91
30 144 98 22 30 28 50 32 109 8 114 -13 145 -116 169 -30 7 -61 17 -67 22 -15
12 -90 -22 -120 -55 -30 -32 -51 -79 -60 -128 l-7 -44 -12 75 c-6 41 -9 81 -6
89 9 25 179 186 218 207 49 26 67 25 94 -6z m1000 -205 c12 -30 21 -57 20 -61
-1 -4 2 -10 7 -13 14 -10 53 -97 53 -119 0 -11 -15 -44 -34 -72 l-34 -52 4 43
c3 24 7 59 9 77 6 53 -38 132 -74 132 -9 1 -34 9 -55 19 -29 14 -46 17 -64 10
-42 -16 -48 -9 -12 13 47 30 132 75 146 77 7 0 22 -24 34 -54z m-1032 -34 l42
-12 0 -52 c0 -85 -43 -137 -123 -151 -83 -15 -133 57 -107 154 10 38 45 74 62
64 4 -3 8 -1 8 4 0 12 62 8 118 -7z m733 -98 c-8 -15 -10 -15 -11 -2 0 17 10
32 18 25 2 -3 -1 -13 -7 -23z m216 -12 l42 -19 -6 -59 c-7 -66 -24 -98 -64
-119 -45 -23 -77 -18 -114 19 -48 48 -54 93 -20 143 40 59 86 69 162 35z
m-253 -63 c-11 -34 -8 -51 22 -114 39 -82 76 -114 134 -114 25 0 60 4 78 9 28
9 31 8 23 -7 -6 -9 -20 -28 -33 -42 -43 -46 -125 -155 -141 -187 -9 -17 -22
-37 -30 -45 -51 -52 -163 -222 -298 -451 -118 -199 -134 -224 -189 -303 -30
-42 -71 -94 -90 -115 -19 -21 -60 -69 -90 -108 -30 -38 -58 -70 -62 -70 -3 -1
4 20 16 47 13 26 31 65 40 87 19 44 35 80 62 140 9 22 36 85 59 140 66 156
106 247 126 288 10 22 19 43 19 48 0 9 112 262 153 344 44 89 127 307 127 333
0 6 12 36 28 64 38 73 61 101 46 56z m550 -145 c4 -4 19 -9 34 -10 49 -6 80
-24 92 -53 15 -35 7 -70 -28 -134 -24 -42 -35 -52 -77 -66 -64 -22 -91 -10
-127 57 -30 55 -30 72 0 130 31 59 84 98 106 76z m-3741 -72 c5 -24 0 -71 -8
-71 -7 0 -92 40 -98 46 -7 7 69 53 89 54 6 0 14 -13 17 -29z m32 -225 c4 -18
5 -44 3 -57 -3 -26 -16 -28 -126 -14 l-53 7 41 29 c22 16 40 33 40 38 0 8 51
28 77 30 7 1 15 -14 18 -33z"/>
<path d="M2658 4143 c-59 -29 -68 -40 -99 -128 -35 -98 -20 -174 47 -229 44
-36 70 -44 124 -35 70 11 125 54 144 111 20 58 20 105 1 138 -8 14 -14 34 -15
45 0 30 -56 93 -97 110 -45 19 -38 20 -105 -12z m110 -81 c28 -22 62 -129 51
-160 -5 -12 -22 -36 -39 -52 -32 -32 -68 -38 -114 -20 -32 12 -73 89 -61 116
5 11 9 22 9 25 1 3 10 24 21 47 28 59 88 79 133 44z"/>
<path d="M3686 4084 c-55 -20 -68 -34 -110 -118 -41 -82 -41 -88 19 -176 42
-62 47 -67 84 -75 57 -12 112 3 159 43 40 34 44 43 59 119 16 81 16 82 -8 130
-18 36 -32 50 -54 56 -16 5 -43 15 -58 23 -34 17 -41 17 -91 -2z m136 -101
c20 -18 23 -51 8 -105 -14 -50 -52 -78 -105 -78 -35 0 -46 5 -69 32 -15 18
-29 43 -32 54 -7 25 28 98 53 113 25 15 123 4 145 -16z"/>
<path d="M1028 3743 c-6 -7 -16 -13 -23 -13 -18 0 -28 -51 -20 -98 11 -68 96
-101 139 -53 23 26 26 100 5 143 -16 32 -23 36 -54 35 -20 -1 -41 -7 -47 -14z
m42 -93 c0 -5 -5 -10 -11 -10 -5 0 -7 5 -4 10 3 6 8 10 11 10 2 0 4 -4 4 -10z"/>
<path d="M1436 2164 c-9 -23 -7 -62 3 -69 5 -3 21 -41 36 -84 14 -44 39 -97
54 -118 15 -21 40 -60 56 -87 31 -53 131 -159 211 -224 106 -86 266 -162 389
-185 57 -10 93 -10 199 0 109 11 145 20 235 55 98 38 111 47 176 113 114 117
131 144 105 160 -6 4 -8 10 -5 15 3 5 0 12 -7 16 -13 8 -25 10 -88 17 -19 2
-48 11 -65 19 -16 9 -42 16 -57 16 -25 0 -28 -4 -28 -32 0 -45 9 -52 75 -65
95 -19 94 -17 39 -72 -81 -83 -204 -132 -402 -160 -109 -15 -248 8 -337 55
-125 68 -162 91 -215 135 -68 56 -170 164 -170 180 0 5 -16 30 -36 56 -21 26
-48 80 -61 119 -13 39 -27 78 -30 86 -3 8 -7 21 -9 28 -6 33 -15 42 -38 42
-13 0 -27 -7 -30 -16z"/>
</g>
</svg>
