<?xml version="1.0" standalone="no"?>
<!DOCTYPE svg PUBLIC "-//W3C//DTD SVG 20010904//EN"
 "http://www.w3.org/TR/2001/REC-SVG-20010904/DTD/svg10.dtd">
<svg version="1.0" xmlns="http://www.w3.org/2000/svg"
 width="487.000000pt" height="461.000000pt" viewBox="0 0 487.000000 461.000000"
 preserveAspectRatio="xMidYMid meet">
<metadata>
Created by potrace 1.16, written by Peter Selinger 2001-2019
</metadata>
<g transform="translate(0.000000,461.000000) scale(0.100000,-0.100000)"
fill="#000000" stroke="none">
<path d="M1511 4479 c-20 -8 -22 -14 -17 -44 6 -30 5 -34 -11 -28 -10 3 -22 9
-28 13 -5 4 -26 11 -45 15 -19 4 -39 11 -45 15 -38 28 -95 7 -95 -35 0 -13 -5
-27 -10 -30 -7 -4 -8 -11 -2 -18 18 -23 46 -162 47 -236 l1 -74 34 -13 c30
-10 32 -13 15 -19 -95 -33 -249 -156 -281 -224 -9 -20 -20 -38 -23 -41 -4 -3
-16 -22 -27 -44 -10 -21 -26 -52 -35 -70 -10 -17 -15 -35 -12 -39 3 -5 -1 -25
-10 -45 -8 -21 -20 -55 -26 -77 -7 -22 -19 -53 -26 -70 -7 -16 -23 -51 -34
-77 -12 -27 -26 -48 -31 -48 -6 0 -10 -7 -10 -15 0 -8 -4 -15 -10 -15 -5 0
-17 -16 -26 -35 -9 -19 -20 -35 -25 -35 -5 0 -9 -7 -9 -15 0 -9 -7 -18 -15
-21 -11 -5 -15 -21 -15 -60 0 -53 1 -54 51 -91 43 -30 69 -65 73 -95 1 -3 14
-17 30 -29 23 -18 42 -23 83 -23 30 0 57 4 61 9 4 6 27 20 52 33 25 13 61 32
80 42 114 61 205 89 305 92 22 0 60 9 84 20 24 10 45 17 47 15 2 -2 6 -21 10
-43 3 -21 14 -56 24 -77 19 -38 35 -97 28 -97 -9 0 -206 -70 -243 -87 -22 -9
-48 -18 -57 -19 -22 -2 -69 -19 -180 -68 -18 -8 -43 -17 -55 -21 -13 -3 -42
-24 -65 -45 -24 -22 -50 -42 -59 -45 -8 -3 -26 -23 -40 -45 -13 -23 -34 -53
-47 -68 -12 -15 -25 -37 -28 -50 -7 -25 22 -112 37 -112 5 0 9 -6 9 -14 0 -17
13 -22 75 -31 45 -7 47 -9 43 -37 -3 -16 -1 -31 4 -34 4 -3 8 -16 8 -29 0 -41
87 -78 129 -56 11 6 36 12 55 13 20 2 38 9 41 16 3 7 9 11 14 7 5 -3 12 -1 16
5 3 5 13 10 22 10 8 0 28 9 44 21 16 11 46 23 66 26 21 3 63 17 93 31 62 28
66 30 169 66 40 15 75 25 77 24 1 -2 6 -51 10 -108 3 -58 8 -115 9 -128 3 -25
-25 -136 -41 -165 -9 -16 -12 -17 -23 -3 -8 9 -22 16 -32 16 -10 0 -21 5 -24
10 -3 5 -16 10 -29 10 -12 0 -26 4 -32 10 -5 5 -27 12 -49 16 -61 10 -317 12
-343 3 -27 -10 -51 -57 -35 -67 6 -4 14 -28 18 -54 7 -46 6 -47 -31 -71 -111
-71 -161 -157 -139 -235 7 -24 26 -54 41 -67 37 -32 103 -27 187 13 64 30 117
47 117 37 0 -4 -5 -15 -10 -26 -6 -10 -13 -38 -16 -61 -3 -24 -8 -50 -10 -58
-3 -8 -8 -55 -11 -104 -6 -97 9 -184 38 -227 10 -14 16 -28 14 -31 -3 -3 4
-13 15 -23 11 -10 20 -23 20 -29 0 -7 23 -36 51 -65 28 -30 45 -52 36 -48 -8
3 -19 1 -25 -5 -6 -6 -55 -12 -109 -13 -54 -2 -132 -6 -173 -9 -41 -4 -101 -8
-132 -10 -31 -3 -61 -7 -66 -10 -5 -3 -24 -8 -43 -10 -88 -13 -288 -87 -325
-120 -21 -18 -37 -30 -74 -56 -48 -34 -71 -65 -92 -124 -32 -94 -16 -170 34
-159 59 12 68 24 68 79 0 61 8 87 23 77 6 -4 8 0 4 10 -4 11 -1 17 8 17 8 0
22 11 31 25 9 14 22 25 28 25 7 0 21 8 32 18 27 24 86 53 115 56 13 2 40 10
59 19 41 18 149 41 157 33 4 -3 12 -1 19 5 11 9 152 21 231 19 18 0 72 5 120
11 49 6 124 13 168 14 l80 4 125 -62 c69 -34 131 -67 138 -74 7 -7 24 -13 37
-13 24 0 55 -23 55 -41 0 -6 -23 -8 -57 -4 -62 6 -321 15 -466 16 -58 0 -94
-4 -104 -12 -8 -7 -21 -14 -28 -15 -14 -2 -119 -42 -195 -74 -25 -10 -67 -27
-93 -36 -27 -10 -51 -23 -54 -30 -2 -7 -11 -10 -19 -7 -8 3 -14 1 -14 -5 0 -5
-12 -23 -28 -40 -30 -32 -35 -84 -12 -128 11 -19 16 -21 39 -13 14 6 29 15 32
21 4 6 9 3 13 -8 4 -11 18 -27 32 -37 36 -26 73 -16 81 23 3 19 17 37 34 47
15 9 30 27 33 39 7 25 -2 54 -15 54 -5 0 -9 5 -9 10 0 6 7 10 16 10 9 0 28 6
42 14 31 15 53 25 136 59 65 27 54 26 431 12 99 -4 182 -10 185 -13 3 -4 16
-8 30 -8 14 -1 35 -4 48 -7 16 -4 30 1 44 15 22 22 33 68 17 68 -6 0 -8 4 -5
9 4 5 1 22 -5 38 -6 15 -12 42 -15 58 -2 17 -6 41 -9 55 -3 14 -8 66 -11 115
-3 50 -7 96 -9 102 -3 7 1 13 7 13 7 0 6 5 -2 15 -9 11 -10 22 -2 42 12 33 12
63 0 63 -14 0 -9 50 6 56 8 3 11 15 8 30 -2 13 0 24 6 24 6 0 9 9 7 20 -2 11
0 22 6 25 5 4 9 15 9 25 0 10 7 26 16 34 8 9 13 16 9 16 -3 0 6 21 21 48 49
89 201 206 267 205 18 0 38 4 45 10 6 5 12 6 12 1 0 -5 5 -2 10 6 13 20 13 70
0 70 -5 0 -7 7 -4 15 5 12 -3 15 -32 16 -75 3 -98 1 -108 -13 -6 -7 -36 -30
-66 -50 -118 -80 -176 -131 -207 -184 -18 -30 -33 -60 -33 -67 0 -7 -6 -23
-13 -37 -16 -30 -44 -113 -64 -190 -13 -52 -18 -188 -9 -240 3 -14 8 -44 11
-67 5 -38 4 -42 -12 -36 -10 3 -22 9 -28 13 -5 4 -22 10 -37 14 -16 3 -49 20
-75 36 -26 17 -52 30 -58 30 -7 0 -19 8 -28 18 -9 9 -33 26 -54 37 -58 31
-154 135 -193 210 -32 63 -35 74 -34 154 0 47 3 95 7 106 3 11 6 30 6 43 1 33
14 26 35 -20 11 -23 27 -51 35 -61 52 -65 86 -98 107 -103 13 -3 24 -11 24
-17 0 -6 3 -8 6 -4 3 3 27 -7 52 -22 54 -33 103 -37 126 -13 17 20 17 90 -1
109 -6 7 -14 39 -18 70 -3 32 -13 79 -21 105 -20 67 -17 133 10 213 14 41 23
85 21 107 -3 23 1 41 10 48 8 7 15 21 15 32 0 11 12 63 26 116 21 77 25 105
18 151 -11 79 -12 192 -3 217 6 17 14 21 38 18 35 -4 86 38 77 63 -3 8 -6 18
-6 23 0 4 -15 15 -34 24 -39 18 -74 11 -231 -45 -49 -18 -99 -32 -110 -31 -11
1 -61 -19 -111 -43 -50 -25 -97 -45 -103 -45 -6 0 -38 -13 -70 -30 -32 -16
-62 -26 -65 -22 -4 3 -10 2 -14 -3 -9 -13 -72 -35 -100 -35 -28 0 -28 10 -1
41 12 13 31 35 43 49 40 47 272 210 298 210 7 0 22 6 33 14 11 7 34 17 52 20
18 4 50 16 72 27 59 28 161 50 182 38 29 -15 67 -11 79 10 35 67 11 101 -71
101 l-58 0 -6 38 c-14 81 -18 99 -35 142 -58 145 -65 169 -65 221 -1 51 1 57
32 80 18 13 36 33 39 44 4 11 13 24 20 30 7 5 16 22 19 37 5 21 1 33 -18 52
-35 35 -62 24 -108 -44 -46 -66 -107 -128 -133 -136 -12 -4 -24 -11 -27 -16
-3 -5 -28 -11 -55 -13 -27 -2 -60 -6 -74 -9 -14 -3 -36 -8 -50 -10 -41 -6
-114 -27 -125 -36 -5 -4 -21 -10 -35 -13 -14 -4 -53 -24 -86 -46 -34 -22 -75
-43 -90 -47 -16 -4 -34 -11 -40 -16 -19 -14 -39 19 -27 45 5 12 8 28 7 35 -1
6 -2 19 -3 27 0 8 -13 18 -28 22 -39 10 -46 10 -65 1 -10 -5 -18 -5 -18 0 0 9
43 70 75 105 8 10 22 32 29 50 8 18 21 48 29 67 21 48 54 142 79 220 25 81 57
150 69 150 5 0 9 5 9 11 0 22 123 169 142 169 4 0 19 11 33 24 15 14 39 28 54
31 16 3 38 15 49 25 12 11 24 20 26 20 8 0 94 67 141 108 l40 36 0 112 -1 111
52 -37 c54 -38 107 -79 150 -117 14 -13 30 -23 36 -23 5 0 7 -7 4 -16 -3 -8
-2 -12 4 -9 9 6 79 -62 80 -78 0 -4 9 -26 19 -50 11 -23 29 -76 41 -117 13
-41 28 -93 35 -115 12 -36 17 -57 29 -121 2 -11 14 -36 25 -55 12 -19 21 -42
21 -51 0 -10 9 -33 20 -53 11 -20 20 -44 20 -55 0 -10 5 -22 10 -25 6 -3 10
-13 10 -21 0 -28 142 -204 164 -204 8 0 49 -41 124 -125 17 -19 32 -42 32 -50
0 -8 4 -15 8 -15 5 0 24 -34 42 -75 18 -42 39 -80 47 -86 7 -6 13 -18 13 -26
0 -7 5 -19 10 -26 6 -7 29 -37 52 -67 24 -30 54 -65 67 -77 14 -12 39 -45 56
-72 16 -27 51 -84 78 -126 26 -41 47 -82 47 -90 0 -8 4 -15 8 -15 8 0 20 -38
63 -210 11 -47 25 -101 30 -120 5 -19 10 -53 13 -75 6 -55 21 -137 40 -216 8
-37 13 -79 10 -93 -14 -77 -4 -205 21 -281 7 -22 19 -68 26 -102 8 -46 17 -64
30 -68 11 -4 19 -11 19 -17 0 -10 31 -52 69 -94 11 -12 17 -25 14 -28 -4 -3 1
-6 10 -6 8 0 17 -5 19 -11 4 -13 36 -17 183 -20 120 -2 120 -2 195 34 66 33
79 44 113 96 21 33 44 76 52 95 17 41 52 167 60 216 3 19 10 58 15 85 5 28 11
64 14 80 3 17 9 46 15 65 20 65 43 293 37 360 -5 44 0 113 14 210 29 207 66
329 131 441 15 25 30 57 34 70 12 39 132 186 183 224 26 19 53 40 61 46 8 7
53 12 113 13 89 1 101 -1 114 -19 30 -40 29 -67 -1 -91 -16 -13 -33 -20 -38
-17 -5 3 -15 -4 -23 -15 -7 -11 -37 -35 -65 -53 -57 -36 -99 -74 -99 -89 0 -6
-4 -10 -9 -10 -5 0 -12 -10 -16 -22 -4 -13 -8 -25 -9 -28 -2 -3 -6 -18 -11
-35 -4 -16 -11 -34 -15 -40 -5 -5 -12 -32 -16 -60 -8 -52 -10 -60 -14 -72 -1
-5 -2 -12 -1 -16 1 -4 -4 -38 -10 -75 -6 -37 -12 -114 -15 -172 -2 -58 -7
-116 -10 -130 -4 -14 -8 -34 -10 -45 -1 -11 -8 -40 -14 -65 -6 -25 -13 -83
-14 -130 -5 -124 -30 -297 -65 -445 -32 -138 -73 -281 -89 -312 -6 -10 -18
-48 -27 -83 -9 -36 -32 -91 -51 -123 -19 -32 -34 -63 -34 -68 0 -17 -75 -89
-93 -89 -8 0 -17 -3 -19 -7 -4 -10 -107 -87 -135 -102 -13 -6 -23 -8 -23 -4 0
4 -4 2 -8 -5 -5 -7 -26 -14 -48 -16 -38 -3 -49 -7 -150 -47 -28 -11 -76 -22
-107 -23 -30 -2 -60 -7 -66 -10 -9 -6 -42 -7 -116 -5 -11 0 -27 3 -35 6 -8 4
-26 7 -40 8 -14 1 -64 5 -111 9 -82 7 -88 7 -108 -15 -18 -19 -20 -31 -15 -78
3 -31 9 -60 14 -66 4 -5 10 -24 13 -41 7 -37 -17 -78 -40 -70 -8 3 -24 1 -35
-5 -12 -6 -75 -13 -141 -15 -66 -3 -127 -8 -136 -13 -31 -17 -342 -18 -386 -1
-14 5 -25 6 -25 2 0 -12 -172 -12 -194 0 -19 11 -244 13 -341 3 -22 -2 -89 -6
-150 -9 -60 -4 -118 -9 -127 -12 -23 -7 -24 19 -2 36 8 8 20 22 25 32 15 27
-13 67 -43 64 -42 -5 -68 -17 -68 -32 0 -9 -6 -22 -13 -29 -34 -38 -40 -50
-48 -83 -14 -61 39 -98 86 -60 25 20 26 20 40 2 8 -11 15 -22 15 -25 0 -17 41
-17 163 -2 142 17 415 21 426 6 3 -5 62 -10 131 -10 69 0 196 -2 282 -2 87 -1
163 1 169 4 6 4 70 9 142 11 73 2 156 8 186 14 29 5 57 8 61 5 13 -8 91 38
102 60 6 11 15 23 21 26 16 11 21 106 7 139 -7 17 -9 34 -6 38 12 11 100 5
104 -7 2 -6 8 -8 14 -5 6 4 47 8 92 9 130 4 235 19 276 41 28 14 93 36 160 54
96 25 116 34 160 69 25 20 73 56 106 80 61 42 111 101 140 163 8 18 26 52 40
76 14 24 39 89 55 145 17 56 39 128 50 160 41 116 84 318 95 432 3 38 8 73 10
76 2 4 9 63 14 131 11 127 13 142 23 168 3 8 8 42 12 75 4 33 8 71 10 85 2 14
6 75 9 135 8 145 16 213 29 244 5 14 11 31 11 36 5 35 33 99 50 115 46 42 108
90 117 90 5 0 22 12 38 28 15 15 41 34 57 43 36 19 65 75 66 128 0 47 -27 107
-58 127 -62 41 -213 56 -289 29 -22 -8 -48 -15 -57 -15 -10 0 -18 -4 -18 -8 0
-5 -17 -18 -37 -30 -41 -23 -103 -78 -103 -91 0 -5 -14 -24 -31 -42 -54 -61
-73 -91 -176 -290 -24 -45 -43 -95 -43 -111 0 -16 -4 -37 -10 -47 -11 -21 -15
-42 -35 -176 -9 -55 -20 -116 -25 -135 -5 -20 -9 -103 -9 -185 0 -83 -4 -172
-11 -200 -6 -27 -20 -95 -31 -150 -10 -55 -22 -111 -24 -125 -3 -14 -9 -52
-14 -85 -26 -166 -105 -304 -187 -324 -66 -17 -206 -16 -240 2 -51 26 -99 88
-118 152 -29 98 -55 189 -54 195 0 3 0 10 -1 15 -1 6 -2 59 -2 120 0 79 -6
130 -20 185 -12 41 -22 98 -24 125 -3 53 -48 274 -63 316 -5 13 -12 44 -16 69
-7 48 -42 115 -153 293 -18 29 -36 57 -41 63 -5 6 -12 20 -16 31 -4 11 -34 49
-68 84 -56 59 -118 156 -118 187 0 6 -4 12 -10 12 -5 0 -10 8 -10 18 0 10 -3
22 -7 26 -4 3 -8 14 -9 22 -1 9 -12 23 -23 31 -12 8 -28 28 -37 44 -9 19 -21
29 -29 25 -9 -3 -12 0 -9 8 6 16 -45 76 -65 76 -8 0 -12 2 -9 5 2 3 -21 31
-51 63 -95 100 -121 131 -121 146 0 7 -7 27 -15 42 -8 16 -15 39 -15 52 0 12
-4 22 -10 22 -5 0 -14 17 -20 39 -5 21 -17 44 -25 51 -8 7 -13 16 -10 20 3 4
-2 13 -10 20 -8 7 -15 22 -15 33 0 47 -103 367 -137 424 -14 24 -39 53 -56 65
-18 13 -40 31 -49 40 -10 10 -36 29 -58 43 -40 25 -74 52 -114 90 -12 11 -40
33 -64 49 -23 16 -42 32 -42 35 0 10 -63 31 -91 30 -13 0 -35 -5 -48 -10z
m-78 -168 c25 -11 48 -24 51 -30 4 -6 16 -11 28 -11 17 0 18 -2 8 -15 -8 -9
-8 -15 -2 -15 6 0 10 -18 10 -40 0 -35 -6 -45 -53 -85 -29 -25 -55 -45 -57
-45 -1 0 -4 26 -5 58 -2 78 -9 131 -21 170 -6 17 -9 32 -7 32 2 0 23 -9 48
-19z m259 -1604 c10 -20 -2 -36 -29 -37 -6 0 -24 -7 -40 -15 -15 -8 -46 -22
-68 -31 -86 -34 -122 -53 -165 -85 -25 -19 -62 -43 -83 -54 -21 -11 -53 -33
-71 -50 -107 -98 -105 -97 -144 -89 -20 4 -46 8 -57 8 -48 2 -11 88 62 143 21
15 41 31 44 36 6 8 202 91 264 112 75 24 190 67 205 75 27 15 70 8 82 -13z
m-179 -853 c73 -2 96 -6 142 -29 30 -14 55 -33 55 -41 0 -8 4 -14 9 -14 16 0
22 -36 11 -64 -31 -83 -42 -242 -19 -272 5 -6 10 -33 11 -60 2 -27 8 -52 13
-56 6 -5 3 -8 -6 -8 -9 0 -36 22 -60 49 -64 72 -69 78 -69 98 0 10 -9 29 -20
43 -11 14 -20 30 -20 37 0 19 -69 117 -88 125 -23 9 -77 10 -86 1 -4 -5 -11
-9 -14 -9 -26 -6 -52 -18 -52 -25 0 -9 -45 -32 -108 -53 -36 -12 -44 -12 -49
-1 -7 21 25 68 65 95 21 14 45 32 55 41 9 9 29 22 44 30 24 13 27 12 41 -9 14
-22 46 -29 69 -14 17 11 23 74 9 97 -13 23 -52 30 -72 14 -17 -14 -35 -3 -27
17 3 8 13 12 22 10 9 -3 23 -1 31 4 8 5 17 6 20 2 3 -4 44 -8 93 -8z m-418
-1544 c-3 -5 -11 -10 -16 -10 -6 0 -7 5 -4 10 3 6 11 10 16 10 6 0 7 -4 4 -10z"/>
<path d="M1345 3789 c-118 -87 -163 -215 -97 -276 30 -28 32 -28 77 -3 20 11
46 20 59 20 31 0 57 40 52 80 -2 17 -5 32 -7 33 -2 1 -14 8 -27 15 -13 7 -27
10 -32 7 -6 -4 -10 -3 -10 2 0 4 18 18 40 31 30 17 41 30 46 58 7 39 1 49 -36
57 -18 4 -36 -2 -65 -24z"/>
<path d="M2091 1044 c0 -11 3 -14 6 -6 3 7 2 16 -1 19 -3 4 -6 -2 -5 -13z"/>
<path d="M718 528 c-13 -18 -36 -58 -50 -88 -33 -67 -29 -104 13 -126 28 -14
31 -13 55 13 13 14 22 33 20 40 -3 7 -1 13 4 13 6 0 10 8 10 18 0 10 11 33 24
51 20 27 23 38 15 64 -16 56 -55 63 -91 15z"/>
<path d="M898 523 c-10 -2 -18 -8 -18 -13 0 -5 -9 -11 -19 -15 -44 -14 -68
-128 -33 -157 19 -16 64 -16 70 1 2 6 9 11 17 11 7 0 13 12 13 27 0 14 6 31
13 37 8 6 20 24 27 40 12 26 11 31 -9 52 -22 24 -29 26 -61 17z"/>
</g>
</svg>
