<?xml version="1.0" standalone="no"?>
<!DOCTYPE svg PUBLIC "-//W3C//DTD SVG 20010904//EN"
 "http://www.w3.org/TR/2001/REC-SVG-20010904/DTD/svg10.dtd">
<svg version="1.0" xmlns="http://www.w3.org/2000/svg"
 width="533.000000pt" height="417.000000pt" viewBox="0 0 533.000000 417.000000"
 preserveAspectRatio="xMidYMid meet">
<metadata>
Created by potrace 1.16, written by Peter Selinger 2001-2019
</metadata>
<g transform="translate(0.000000,417.000000) scale(0.100000,-0.100000)"
fill="#000000" stroke="none">
<path d="M4504 4122 c-31 -47 -68 -106 -134 -212 -19 -30 -38 -56 -42 -58 -5
-2 -8 -11 -8 -20 0 -9 -9 -28 -20 -42 -11 -14 -20 -31 -20 -38 0 -11 -19 -13
-90 -8 -49 2 -95 8 -102 12 -6 4 -23 8 -37 10 -117 10 -163 18 -207 35 -94 37
-231 28 -339 -20 -22 -10 -52 -21 -66 -24 -15 -4 -37 -18 -50 -32 -13 -13 -33
-25 -44 -25 -11 0 -30 -15 -43 -33 -12 -19 -35 -40 -50 -48 -15 -7 -43 -27
-62 -44 -20 -16 -57 -48 -84 -70 -55 -45 -119 -111 -166 -170 -17 -22 -35 -42
-39 -45 -5 -3 -23 -32 -42 -65 -18 -33 -49 -79 -69 -102 -20 -23 -49 -72 -65
-110 -16 -37 -41 -88 -56 -114 -14 -25 -45 -87 -69 -139 -23 -52 -48 -103 -56
-114 -8 -11 -14 -26 -14 -32 0 -11 -27 -61 -73 -134 -12 -19 -33 -52 -46 -72
-12 -21 -26 -38 -30 -38 -3 0 -12 -15 -20 -32 -13 -31 -79 -106 -145 -166 -16
-15 -48 -44 -70 -64 -22 -20 -51 -40 -65 -43 -14 -4 -34 -16 -46 -29 -11 -12
-40 -30 -65 -40 -25 -10 -50 -22 -56 -27 -21 -17 -146 -59 -252 -85 -59 -15
-111 -30 -117 -34 -5 -4 -44 -11 -85 -15 -41 -4 -88 -10 -105 -12 -16 -2 -55
-5 -85 -7 -30 -1 -66 -6 -80 -9 -36 -9 -88 -18 -137 -24 -24 -3 -43 -9 -43
-13 0 -4 -17 -11 -37 -15 -21 -4 -43 -11 -48 -15 -6 -5 -22 -11 -35 -14 -41
-7 -146 -50 -190 -77 -8 -5 -26 -14 -39 -19 -13 -6 -39 -24 -58 -40 -19 -17
-37 -30 -42 -30 -5 0 -26 -19 -47 -41 -22 -23 -49 -53 -61 -66 -13 -13 -23
-26 -23 -29 0 -2 -11 -21 -24 -42 -13 -21 -27 -57 -31 -81 -4 -24 -14 -60 -22
-80 -13 -29 -14 -59 -9 -151 8 -128 9 -187 2 -305 -3 -64 -10 -92 -35 -139
-16 -33 -28 -63 -26 -67 3 -3 -6 -17 -19 -30 -31 -32 -34 -47 -20 -88 9 -28
19 -37 44 -42 34 -7 91 5 124 26 12 8 41 22 66 31 42 17 70 36 70 48 0 3 16
22 35 43 19 21 35 33 35 26 0 -13 -37 -114 -63 -174 -15 -34 -15 -36 7 -62 28
-32 31 -33 81 -7 92 46 168 113 222 196 12 19 13 19 24 0 28 -46 127 -134 164
-146 22 -7 49 -19 60 -26 28 -20 51 -17 75 8 24 26 26 60 5 92 -23 34 -30 116
-15 162 17 50 51 104 68 104 6 0 12 4 12 9 0 5 17 17 38 27 70 34 365 26 465
-12 20 -8 56 -14 80 -14 23 0 58 -5 77 -11 29 -9 118 -14 380 -21 107 -4 238
22 327 64 24 10 47 16 53 13 5 -3 10 -1 10 4 0 22 22 10 60 -30 69 -74 98
-253 54 -328 -17 -29 -17 -32 -1 -66 25 -52 58 -48 115 12 25 27 55 64 67 83
12 19 32 44 45 55 l22 20 -3 -50 c-1 -28 -9 -58 -17 -67 -10 -12 -12 -28 -7
-56 6 -35 10 -41 36 -44 16 -3 37 0 47 6 64 39 82 52 82 59 0 4 11 20 25 34
13 15 30 40 36 56 18 42 26 17 23 -70 -3 -87 4 -103 50 -103 26 0 38 8 69 50
21 28 42 61 47 74 19 51 30 38 30 -37 0 -58 4 -77 18 -90 29 -26 67 -16 93 23
13 19 43 60 66 91 24 30 43 60 43 66 0 6 6 16 13 22 8 6 19 36 26 66 11 50 10
85 -5 165 -4 25 -4 25 58 24 35 -1 68 -3 73 -4 6 -1 20 -2 33 -1 19 1 22 6 22
46 0 33 -5 50 -21 63 -22 18 -60 88 -52 95 2 3 15 -5 27 -17 32 -29 119 -47
181 -36 28 4 53 6 58 3 4 -2 7 21 7 53 0 42 -5 62 -20 78 -54 59 -100 123
-100 139 0 11 -4 15 -11 11 -7 -4 -39 22 -80 66 -38 40 -69 70 -69 65 0 -14
-120 118 -156 172 -32 48 -70 143 -57 143 3 0 0 6 -6 14 -13 16 -9 93 7 123 6
11 14 42 18 69 3 27 10 59 15 72 16 41 41 175 41 214 -1 20 6 42 14 49 8 6 14
20 14 30 0 10 5 21 10 24 6 3 10 13 10 22 0 9 14 45 30 80 17 34 30 67 30 71
0 5 18 34 40 66 22 31 40 59 40 62 0 3 25 44 55 90 30 47 55 89 55 95 0 5 46
55 102 111 88 89 102 99 109 82 7 -18 29 -92 64 -216 10 -37 21 -58 30 -58 23
0 23 43 1 70 -15 17 -76 202 -76 229 0 19 49 71 68 71 6 0 14 -12 18 -27 21
-91 49 -153 69 -153 33 0 31 49 -5 90 -31 36 -54 140 -31 140 5 0 23 13 39 30
l30 29 39 -52 c22 -28 45 -64 51 -79 12 -29 39 -37 59 -17 14 14 -2 50 -41 91
-14 15 -26 30 -26 33 0 4 -9 18 -20 32 -26 34 -25 42 10 83 17 19 45 64 63
100 30 62 32 71 32 176 0 108 -1 111 -30 147 -16 19 -38 38 -47 42 -29 10 -9
35 171 218 204 208 194 197 186 197 -15 0 -244 -198 -343 -297 -41 -40 -78
-73 -83 -73 -12 0 -12 37 1 45 6 4 8 10 5 15 -6 9 85 149 110 170 8 7 15 17
15 22 0 5 9 21 20 35 11 15 18 28 16 30 -7 7 -106 -89 -106 -103 0 -8 -4 -14
-9 -14 -10 0 -91 -114 -91 -128 0 -5 -9 -17 -20 -27 -20 -18 -20 -17 -20 13 0
20 26 81 66 159 87 168 97 186 109 198 6 5 19 20 29 33 19 22 19 22 0 22 -12
0 -31 -18 -50 -48z m-756 -406 c11 -6 75 -20 147 -30 55 -9 71 -12 140 -29 33
-9 94 -18 135 -21 142 -11 172 -16 211 -36 21 -11 39 -22 39 -24 0 -18 -17
-39 -39 -51 -25 -12 -28 -12 -40 8 -13 20 -14 20 -27 2 -8 -10 -14 -35 -14
-56 0 -20 -7 -42 -15 -49 -13 -11 -13 -16 2 -41 10 -16 22 -29 28 -29 16 0 56
-140 45 -159 -13 -25 -69 -75 -76 -68 -3 3 -12 35 -20 71 -13 61 -12 162 2
227 3 17 -1 32 -12 43 -24 25 -39 14 -36 -25 1 -19 4 -76 7 -126 3 -51 12
-120 19 -153 l14 -61 -36 -36 -36 -36 -12 64 c-13 70 -10 322 4 379 4 19 6 43
4 53 -4 19 -42 24 -43 5 -4 -102 5 -389 16 -443 l13 -70 -69 -67 c-38 -38 -73
-68 -78 -68 -5 0 -20 -17 -32 -37 -13 -21 -26 -40 -29 -43 -19 -15 -90 -113
-96 -133 -7 -23 -54 -90 -66 -95 -5 -2 -8 -10 -8 -17 0 -8 -6 -18 -14 -22 -12
-7 -133 -244 -142 -278 -2 -5 -10 -35 -19 -65 -8 -30 -18 -66 -20 -80 -20
-105 -59 -276 -75 -335 -5 -16 -12 -48 -15 -70 -3 -22 -14 -60 -24 -85 -10
-25 -24 -62 -31 -84 -7 -21 -19 -46 -29 -56 -9 -10 -22 -26 -30 -35 -18 -22
-24 -11 -39 70 -10 54 -12 83 -11 177 0 55 -61 89 -92 51 -25 -29 -14 -209 21
-343 6 -25 15 -68 20 -96 14 -87 61 -163 170 -273 27 -27 64 -76 82 -108 17
-32 36 -61 40 -64 7 -5 18 -49 46 -179 10 -52 2 -111 -23 -165 -15 -30 -30
-55 -35 -55 -5 0 -12 21 -15 48 -4 26 -10 56 -15 67 -5 11 -14 38 -19 60 -14
53 -43 72 -78 50 -13 -9 -22 -19 -20 -22 3 -3 2 -16 -3 -29 -5 -13 -10 -39
-12 -59 -1 -19 -6 -35 -10 -35 -4 0 -8 -6 -8 -14 0 -7 -6 -28 -13 -45 -13 -32
-13 -32 -15 25 -2 71 -21 170 -39 207 -11 22 -19 27 -35 21 -11 -3 -27 -7 -35
-8 -24 -4 -35 -33 -36 -95 -2 -46 -8 -65 -31 -95 -36 -48 -48 -37 -47 45 1 95
-7 125 -36 138 -19 9 -27 8 -39 -4 -9 -8 -19 -15 -24 -15 -4 0 -13 -20 -19
-45 -8 -31 -26 -61 -59 -95 l-47 -49 -2 61 c-2 90 -46 197 -108 263 -112 118
-132 142 -155 180 -13 22 -36 56 -51 75 -14 19 -30 51 -35 70 -10 45 -9 40
-23 75 -7 17 -15 44 -18 60 -8 48 -21 65 -52 65 -54 0 -71 -45 -40 -105 15
-28 53 -131 54 -147 0 -4 6 -13 12 -20 7 -6 13 -22 13 -33 0 -24 74 -145 96
-158 11 -6 10 -11 -4 -27 -9 -11 -23 -20 -31 -20 -8 0 -22 -6 -30 -14 -36 -31
-89 -39 -287 -43 -191 -5 -209 -4 -385 27 -101 17 -195 33 -209 36 -127 20
-331 24 -345 7 -5 -7 -28 -15 -49 -19 -22 -3 -49 -12 -61 -20 -12 -8 -24 -11
-28 -8 -3 3 -18 -14 -34 -38 -15 -23 -33 -47 -39 -53 -17 -16 -47 -160 -41
-194 4 -17 3 -31 -1 -31 -12 1 -42 27 -42 36 0 5 -9 15 -20 21 -10 7 -24 32
-30 55 -24 90 -33 118 -38 113 -3 -3 -15 4 -27 15 -18 17 -25 18 -47 8 -26
-13 -54 -73 -38 -83 4 -3 0 -23 -11 -45 -10 -21 -19 -46 -19 -54 0 -8 -19 -34
-42 -58 -33 -34 -42 -39 -45 -26 -3 9 1 26 7 38 6 11 10 60 9 111 -2 98 -8
108 -71 123 -31 7 -46 -12 -50 -60 -3 -37 -119 -158 -172 -179 l-38 -16 7 28
c4 15 8 34 8 41 0 6 3 12 7 12 4 0 15 35 24 78 13 60 16 123 14 293 -2 215 -2
217 28 309 26 83 35 98 89 154 71 72 111 106 118 99 3 -3 16 4 28 16 27 25
217 101 252 101 14 0 27 5 29 11 2 6 24 15 48 20 79 15 90 18 102 25 6 4 36 8
67 10 31 1 74 7 96 13 22 5 85 15 140 20 142 16 162 19 240 47 39 13 97 31
130 39 33 9 73 21 90 28 52 21 180 89 190 100 6 7 21 18 35 25 33 17 77 55
178 155 127 126 139 140 156 174 9 18 49 83 89 145 40 62 84 140 97 173 42
110 191 399 258 500 36 55 77 118 91 140 25 40 227 245 242 245 4 0 27 16 51
36 101 85 244 161 328 174 57 8 111 7 128 -4z m717 -288 c-3 -18 -7 -44 -9
-58 -6 -36 -17 -60 -27 -60 -5 0 -9 -6 -9 -14 0 -19 -26 -40 -35 -27 -3 6 -9
33 -12 60 -5 44 -3 52 21 76 14 14 26 30 26 35 0 7 17 15 43 19 4 0 5 -14 2
-31z m-879 -1993 c15 -30 30 -55 35 -55 5 0 17 -16 26 -35 9 -19 23 -35 30
-35 7 0 13 -4 13 -8 0 -5 11 -15 25 -22 14 -7 25 -17 25 -21 0 -7 72 -81 100
-103 8 -6 28 -29 45 -51 16 -22 42 -51 57 -63 33 -28 36 -52 8 -52 -23 0 -122
96 -145 139 -8 17 -22 31 -29 31 -8 0 -21 3 -29 6 -10 3 -20 -3 -27 -17 -13
-24 -21 -98 -11 -114 6 -11 7 -13 16 -70 4 -22 13 -55 21 -74 8 -18 14 -35 14
-38 0 -2 -20 10 -45 27 -25 17 -45 35 -45 40 0 5 -13 29 -30 53 -16 25 -30 50
-30 56 0 6 -31 43 -70 83 -38 40 -70 76 -70 80 0 4 -6 11 -13 15 -16 10 -57
76 -57 92 0 7 18 30 39 53 22 22 55 63 73 89 18 27 36 49 41 49 4 0 19 -25 33
-55z"/>
<path d="M3570 3662 c0 -6 -7 -9 -16 -5 -8 3 -28 -4 -44 -16 -16 -11 -34 -21
-40 -21 -5 0 -10 -4 -10 -10 0 -5 -8 -10 -18 -10 -24 0 -164 -141 -173 -173
-4 -13 -1 -31 7 -42 18 -25 90 -56 133 -57 20 0 41 -5 48 -10 7 -5 14 -5 17 1
4 6 34 18 67 27 33 9 62 21 65 25 3 5 12 9 19 9 17 0 84 70 85 88 0 6 5 12 11
12 18 0 4 105 -18 134 -22 30 -66 51 -89 42 -9 -4 -23 -1 -30 5 -10 8 -14 8
-14 1z m40 -132 c0 -11 -7 -20 -15 -20 -8 0 -15 2 -15 4 0 2 -3 11 -6 20 -4
12 0 16 15 16 14 0 21 -6 21 -20z m-132 -68 c3 -19 -1 -22 -27 -22 -35 0 -38
6 -14 32 20 23 37 19 41 -10z"/>
</g>
</svg>
