<?xml version="1.0" standalone="no"?>
<!DOCTYPE svg PUBLIC "-//W3C//DTD SVG 20010904//EN"
 "http://www.w3.org/TR/2001/REC-SVG-20010904/DTD/svg10.dtd">
<svg version="1.0" xmlns="http://www.w3.org/2000/svg"
 width="471.000000pt" height="413.000000pt" viewBox="0 0 471.000000 413.000000"
 preserveAspectRatio="xMidYMid meet">
<metadata>
Created by potrace 1.16, written by Peter Selinger 2001-2019
</metadata>
<g transform="translate(0.000000,413.000000) scale(0.100000,-0.100000)"
fill="#000000" stroke="none">
<path d="M3290 3739 c-41 -4 -115 -8 -165 -9 -53 -2 -127 -12 -180 -26 -49
-12 -106 -23 -125 -23 -34 -1 -155 -26 -195 -41 -33 -13 -96 -30 -170 -46 -38
-8 -89 -24 -113 -35 -23 -10 -77 -24 -120 -30 -71 -9 -103 -17 -157 -39 -23
-10 -55 -17 -111 -26 -21 -3 -69 -19 -106 -35 -37 -16 -80 -32 -96 -35 -31 -6
-63 -45 -43 -52 6 -2 11 -8 11 -13 0 -6 22 -43 50 -84 73 -108 92 -162 96
-275 2 -52 7 -105 10 -117 4 -13 2 -23 -4 -23 -6 0 -17 -6 -24 -12 -7 -7 -36
-24 -63 -37 -28 -14 -62 -33 -77 -44 -16 -10 -28 -16 -28 -13 0 3 -21 -4 -46
-15 -65 -27 -214 -51 -289 -46 -87 5 -105 26 -177 197 -17 41 -51 105 -58 110
-4 3 -20 25 -35 50 -16 24 -34 51 -42 58 -7 8 -26 30 -41 50 -15 21 -34 44
-44 52 -37 34 -81 65 -108 77 -8 4 -17 9 -20 12 -11 13 -88 58 -125 73 -66 27
-193 48 -232 38 -5 -1 -26 -1 -48 -1 -52 2 -109 -32 -102 -59 3 -11 1 -20 -4
-20 -6 0 -5 -8 1 -19 8 -16 6 -22 -7 -30 -15 -9 -16 -12 -4 -20 11 -7 13 -23
8 -70 -4 -36 -3 -63 3 -66 6 -4 8 -10 6 -14 -5 -7 13 -114 33 -206 5 -22 12
-56 16 -75 4 -19 12 -40 17 -46 5 -7 11 -22 13 -34 4 -23 47 -121 70 -160 8
-14 24 -44 35 -67 26 -52 89 -134 152 -195 l48 -47 -28 -29 c-42 -45 -73 -84
-101 -127 -14 -22 -29 -42 -34 -43 -40 -18 -208 -343 -259 -502 -16 -52 -37
-110 -45 -129 -9 -19 -22 -62 -30 -95 -16 -67 -42 -272 -37 -296 1 -8 3 -22 3
-30 1 -18 45 -40 78 -40 42 0 84 30 167 118 143 150 151 158 180 177 34 22 70
51 100 81 11 11 40 31 63 44 24 13 43 27 43 32 0 4 7 8 15 8 17 0 139 91 167
125 10 11 17 25 18 31 0 6 7 17 15 24 8 7 15 19 15 27 0 7 7 29 15 49 8 19 13
36 12 39 -1 2 7 11 17 18 17 12 26 12 55 2 20 -7 36 -19 35 -27 -1 -8 8 -15
19 -15 10 -1 27 -9 36 -17 33 -30 120 -84 164 -102 25 -10 50 -28 56 -40 5
-12 36 -42 68 -67 32 -26 77 -68 100 -95 l42 -49 -31 -59 c-17 -33 -40 -68
-52 -79 -42 -41 -85 -103 -114 -163 -38 -82 -33 -131 24 -192 46 -50 59 -56
144 -65 35 -4 73 -10 85 -15 11 -4 43 -8 71 -9 29 0 64 -5 78 -11 51 -19 165
-5 211 27 11 7 27 13 37 13 19 0 68 42 68 59 0 17 18 13 58 -14 20 -14 40 -25
45 -25 4 0 36 -18 70 -39 34 -21 77 -42 94 -46 18 -3 35 -11 38 -16 4 -5 14
-9 24 -9 10 0 32 -7 47 -15 16 -8 37 -15 46 -15 9 0 54 -9 99 -20 45 -10 86
-17 90 -14 4 2 28 -3 53 -11 26 -9 64 -14 88 -11 24 2 75 7 113 11 39 3 87 13
108 21 20 7 40 14 45 14 24 2 124 36 164 56 26 13 49 24 51 24 6 0 18 -54 23
-100 3 -28 18 -48 76 -103 39 -37 80 -67 89 -67 10 0 20 -4 23 -8 3 -5 30 -10
61 -11 54 -2 57 0 117 51 75 64 97 88 98 107 0 8 4 28 10 45 38 123 43 148 42
221 0 95 -7 136 -24 146 -10 6 -7 13 10 26 39 30 236 228 252 253 8 13 23 32
33 42 9 10 17 20 17 23 0 8 116 244 137 280 37 60 72 84 98 65 28 -20 76 -29
105 -19 17 6 30 14 30 19 0 4 11 18 24 31 31 31 45 85 34 128 -5 18 -7 36 -4
39 3 3 -1 10 -9 16 -9 6 -18 24 -21 40 -3 16 -11 38 -19 50 -20 28 -19 32 13
45 15 7 42 31 60 53 31 39 32 43 32 134 l0 93 -31 16 c-21 11 -43 14 -68 10
-27 -4 -41 -2 -49 8 -11 12 -22 13 -73 2 l-60 -13 -30 41 c-16 22 -29 45 -29
51 0 14 -33 81 -50 101 -6 7 -36 62 -66 122 -31 59 -63 122 -72 140 -9 18 -21
33 -27 33 -5 0 -19 13 -30 30 -11 16 -30 34 -42 41 -13 7 -25 20 -28 29 -3 9
-18 23 -33 31 -42 22 -82 62 -73 74 5 5 14 28 21 50 7 22 16 44 21 50 5 5 9
15 9 22 0 8 18 60 39 116 45 116 56 154 53 182 -2 11 -3 26 -4 33 -1 6 -7 12
-15 12 -7 0 -16 6 -19 14 -3 7 -26 24 -52 36 -26 12 -63 31 -82 40 -19 10 -76
32 -127 49 -50 17 -107 39 -127 51 -20 11 -60 22 -89 25 -126 12 -144 15 -177
22 -19 5 -69 5 -110 2z m199 -113 c82 -11 133 -23 150 -35 14 -10 60 -28 101
-41 85 -25 200 -76 200 -89 0 -4 11 -13 24 -20 21 -12 22 -17 15 -54 -12 -57
-30 -105 -56 -148 -13 -20 -23 -45 -23 -56 0 -30 -48 -82 -71 -76 -10 3 -19 9
-19 14 0 5 -7 9 -15 9 -9 0 -28 13 -44 29 -15 16 -43 32 -62 36 -18 4 -40 11
-49 16 -8 4 -57 22 -108 39 -82 27 -98 29 -131 19 -23 -7 -75 -9 -137 -5 -54
3 -110 6 -124 7 -14 0 -43 -2 -65 -5 -22 -2 -71 -8 -110 -11 -75 -6 -308 -74
-364 -107 -19 -10 -66 -30 -105 -43 -39 -13 -105 -38 -146 -55 -41 -17 -104
-40 -140 -52 -36 -11 -67 -24 -70 -28 -3 -4 -34 -20 -70 -35 -36 -15 -71 -32
-78 -38 -19 -16 -32 8 -32 63 -1 58 -23 157 -44 195 -9 17 -16 40 -16 51 0 12
-7 27 -15 34 -9 7 -13 15 -10 18 3 3 -2 16 -11 29 -21 33 -6 49 65 69 31 8
101 29 156 46 55 16 120 32 145 34 25 2 101 22 170 43 201 64 292 89 340 95
49 6 115 17 231 40 41 8 84 15 95 14 32 -1 229 14 233 17 4 5 26 2 190 -19z
m-2743 -420 c27 -14 63 -40 81 -57 20 -18 38 -27 45 -23 7 4 10 4 6 -1 -4 -4
-2 -13 5 -20 26 -27 57 -65 52 -65 -3 0 10 -15 28 -34 17 -19 39 -42 48 -53
20 -25 59 -106 59 -124 0 -8 8 -26 17 -39 10 -14 17 -27 15 -30 -5 -11 12 -47
38 -80 15 -19 30 -45 34 -57 10 -31 55 -57 94 -54 17 1 32 -1 32 -6 0 -8 64
-5 205 11 61 6 207 55 255 84 19 12 67 39 106 59 39 21 97 54 129 73 53 31
172 79 203 82 6 1 12 5 12 9 0 4 12 10 28 14 15 3 43 13 62 22 19 8 60 25 90
38 30 13 99 40 153 60 54 19 117 45 139 56 22 11 50 22 61 25 11 2 23 7 26 12
3 4 42 19 86 32 61 18 102 24 170 23 50 -1 144 -1 210 -1 170 0 165 1 223 -6
29 -3 65 -12 80 -20 15 -7 42 -17 60 -21 17 -3 32 -11 32 -17 0 -6 3 -9 6 -5
4 3 26 -7 50 -23 23 -17 47 -30 53 -30 6 0 39 -24 73 -53 35 -29 93 -76 129
-105 37 -28 74 -63 83 -77 9 -14 21 -23 26 -20 6 4 10 0 10 -7 0 -7 9 -24 21
-38 37 -46 89 -132 95 -157 4 -14 30 -66 58 -117 28 -50 60 -109 71 -131 11
-22 26 -46 33 -53 6 -7 12 -18 12 -23 0 -6 5 -7 10 -4 5 3 10 2 10 -4 0 -5 7
-16 15 -25 14 -13 20 -13 56 0 56 19 188 19 195 0 7 -19 -54 -96 -75 -96 -30
0 -58 -29 -71 -74 -11 -41 -10 -48 14 -96 14 -28 26 -58 26 -65 0 -7 6 -25 14
-39 7 -14 11 -38 8 -52 -5 -27 -29 -43 -41 -28 -3 5 -23 17 -43 28 -42 21
-108 16 -108 -9 0 -8 -4 -15 -10 -15 -5 0 -10 -5 -10 -11 0 -6 -10 -25 -22
-42 -13 -18 -55 -95 -94 -172 -97 -193 -105 -206 -171 -274 -32 -32 -67 -70
-79 -83 -12 -12 -43 -41 -69 -63 -26 -22 -73 -65 -104 -96 -66 -67 -185 -131
-341 -185 -30 -10 -57 -21 -60 -24 -3 -3 -27 -15 -55 -26 -27 -12 -63 -28 -80
-35 -16 -7 -33 -13 -37 -15 -5 -1 -11 -3 -15 -4 -5 -1 -12 -3 -18 -4 -5 -1
-27 -10 -47 -19 -21 -9 -50 -17 -65 -17 -15 0 -65 -6 -110 -14 -46 -7 -87 -9
-96 -4 -8 4 -50 13 -94 19 -43 6 -105 19 -138 30 -33 11 -76 22 -95 25 -38 6
-207 87 -261 125 -29 21 -52 38 -116 89 -7 6 -16 10 -21 10 -5 0 -79 69 -164
153 -85 83 -188 181 -228 217 -40 36 -80 74 -89 85 -18 23 -90 93 -153 149
-24 21 -64 50 -90 65 -26 14 -55 33 -65 41 -10 8 -32 24 -48 34 -17 11 -34 25
-38 33 -4 7 -14 13 -22 13 -7 0 -15 3 -17 8 -12 27 -161 97 -181 85 -7 -4 -16
-8 -22 -8 -5 0 -10 -7 -10 -16 0 -9 -17 -45 -37 -80 -21 -35 -37 -68 -37 -73
0 -5 -3 -12 -8 -15 -5 -3 -19 -27 -32 -52 -14 -30 -37 -57 -64 -75 -23 -16
-48 -35 -56 -43 -8 -7 -27 -18 -43 -23 -15 -6 -28 -14 -28 -19 0 -5 -6 -9 -13
-9 -7 0 -22 -8 -33 -18 -10 -10 -50 -42 -88 -71 -69 -52 -228 -209 -285 -280
-16 -20 -31 -34 -34 -31 -7 7 11 188 23 225 43 148 84 275 95 300 47 108 95
204 104 209 6 4 11 18 11 32 0 13 5 24 10 24 6 0 10 5 10 11 0 15 57 99 110
159 16 19 30 40 30 47 0 7 4 13 9 13 5 0 24 20 42 45 19 24 40 45 47 45 6 0
12 4 12 9 0 5 9 11 19 14 23 6 26 55 6 93 -13 26 -104 114 -117 114 -4 0 -8 5
-8 11 0 6 -17 31 -38 57 -91 114 -188 353 -208 509 -3 32 -9 67 -11 78 -9 37
-10 100 -4 150 5 42 10 51 29 53 12 2 22 8 22 14 0 6 17 9 40 6 22 -2 40 0 40
3 0 10 149 -45 206 -75z m1052 -2010 c24 -23 48 -42 53 -44 5 -2 9 -10 9 -17
0 -7 16 -27 35 -44 19 -17 35 -35 35 -41 0 -5 4 -10 9 -10 4 0 32 -23 62 -51
30 -28 64 -58 77 -66 l22 -15 -23 -22 c-57 -53 -142 -72 -231 -52 -37 9 -83
16 -102 16 -20 0 -43 4 -52 9 -10 5 -39 12 -65 14 -27 3 -59 13 -73 22 -45 29
-41 54 26 154 34 51 69 95 76 98 8 3 14 12 14 19 0 8 7 17 15 20 8 4 15 12 15
19 0 20 30 46 43 38 7 -4 31 -25 55 -47z m2052 -336 c11 -64 10 -76 -8 -123
-11 -29 -23 -64 -26 -78 -9 -43 -88 -119 -129 -126 -63 -10 -162 78 -172 154
-3 21 -8 47 -10 59 -4 16 4 24 38 39 164 71 256 116 269 133 19 23 26 12 38
-58z"/>
<path d="M3705 2857 c-16 -12 -34 -26 -40 -32 -22 -23 -105 -134 -105 -141 0
-4 -16 -31 -35 -60 -19 -29 -35 -60 -35 -69 0 -9 -10 -35 -22 -58 -11 -23 -25
-58 -30 -77 -24 -92 -29 -113 -34 -148 -3 -20 -9 -50 -14 -67 -7 -26 -28 -202
-35 -304 -2 -20 -4 -38 -5 -41 -9 -24 3 -373 14 -428 8 -37 20 -101 27 -142
15 -98 30 -122 72 -118 27 3 33 8 40 40 7 29 5 41 -7 53 -15 15 -20 37 -31
125 -3 25 -12 70 -20 100 -12 43 -14 100 -10 265 2 116 8 233 14 260 5 28 9
57 8 65 -2 21 13 107 29 165 41 151 56 201 65 209 5 6 9 17 9 25 0 50 123 239
186 286 30 21 44 40 49 64 11 54 -35 69 -90 28z"/>
<path d="M2420 2848 c-43 -30 -73 -85 -64 -118 4 -14 8 -33 8 -42 1 -10 16
-35 33 -56 l31 -39 -26 -29 -27 -29 -3 28 c-6 54 -88 54 -179 0 -63 -37 -88
-94 -73 -171 5 -31 19 -65 30 -77 11 -12 20 -27 20 -33 0 -7 5 -12 10 -12 22
0 8 -36 -23 -61 -37 -30 -54 -74 -63 -166 -5 -48 -3 -67 11 -90 17 -30 17 -30
-15 -74 -31 -43 -32 -46 -26 -118 3 -40 11 -81 18 -89 68 -85 166 -116 187
-59 12 33 3 47 -33 48 -86 2 -141 97 -101 176 19 38 36 45 75 32 23 -8 34 -8
45 1 27 22 16 46 -37 80 -29 19 -57 39 -61 44 -16 22 3 117 31 157 28 39 66
64 83 53 15 -9 49 6 49 22 0 8 -4 14 -9 14 -4 0 -6 12 -3 27 4 21 2 25 -10 20
-19 -7 -83 45 -103 83 -37 72 4 160 74 160 17 0 31 -4 31 -8 0 -12 43 -12 57
0 17 14 16 -2 -2 -26 -17 -23 -19 -75 -5 -127 18 -66 123 -146 156 -118 9 7
14 25 12 43 -3 26 -9 33 -48 46 -39 14 -47 21 -59 58 -7 23 -11 53 -7 65 8 33
44 67 77 74 17 3 37 16 46 29 20 31 10 74 -17 74 -52 0 -105 93 -81 139 13 23
68 38 84 22 18 -18 67 -14 68 7 1 9 2 24 3 32 2 23 -14 30 -75 30 -42 0 -64
-6 -89 -22z"/>
<path d="M3107 2855 c-47 -16 -107 -61 -107 -81 0 -8 -8 -30 -19 -49 -22 -41
-15 -101 16 -143 l20 -27 -26 -21 c-15 -12 -33 -35 -41 -50 -8 -16 -25 -45
-37 -65 -35 -54 -40 -115 -13 -164 l22 -40 -42 -74 c-23 -41 -44 -86 -46 -101
-11 -69 48 -200 90 -200 9 0 16 -4 16 -10 0 -16 47 -12 64 6 26 25 17 74 -13
74 -53 0 -92 47 -93 112 -1 44 14 77 51 112 27 26 42 32 89 35 6 1 12 14 12
31 0 32 -34 72 -55 64 -7 -3 -23 9 -35 26 -22 32 -23 33 -7 84 21 66 76 123
125 132 69 11 73 14 68 42 -2 15 -5 30 -5 33 -1 3 -19 13 -41 23 -23 10 -48
29 -57 43 -14 21 -15 30 -4 61 8 21 22 47 33 59 25 27 74 39 93 23 8 -6 24 -9
36 -5 17 6 20 12 15 38 -3 17 -7 31 -9 32 -13 11 -70 11 -100 0z"/>
<path d="M3814 2645 c-18 -7 -35 -18 -38 -24 -4 -6 -15 -11 -24 -11 -27 -1
-88 -65 -106 -112 -9 -23 -23 -76 -30 -116 -13 -66 -12 -75 5 -108 26 -53 63
-90 183 -189 46 -38 117 -46 180 -20 20 8 36 13 36 11 0 -2 15 10 34 28 46 45
110 180 122 259 9 60 -12 102 -89 181 -77 79 -93 89 -147 100 -70 14 -96 15
-126 1z m133 -107 c6 -1 38 -29 72 -62 70 -71 78 -103 42 -176 -44 -91 -74
-124 -120 -134 -36 -8 -48 -6 -84 14 -37 21 -94 73 -134 124 -18 21 -16 68 3
127 11 32 20 47 26 41 16 -16 48 -1 54 27 10 40 32 53 84 46 25 -3 50 -6 57
-7z"/>
<path d="M3896 2411 c-31 -21 -75 -88 -82 -126 -6 -33 35 -75 72 -75 37 0 81
51 100 116 18 62 13 89 -19 98 -33 9 -39 8 -71 -13z"/>
<path d="M1890 2588 c-14 -6 -40 -18 -59 -26 -97 -44 -122 -124 -71 -230 22
-46 25 -62 10 -62 -5 0 -12 -11 -16 -25 -3 -14 -10 -25 -15 -25 -19 0 22 -128
55 -173 12 -16 37 -32 61 -39 22 -6 45 -15 51 -20 19 -14 46 26 38 56 -6 24
-19 31 -53 26 -41 -5 -91 62 -91 124 0 28 35 46 89 46 21 0 43 6 49 13 15 18
4 57 -17 58 -40 4 -47 6 -72 16 -28 12 -59 67 -59 103 0 50 45 82 118 84 30 1
38 5 40 23 3 23 -14 63 -26 62 -4 0 -18 -5 -32 -11z"/>
<path d="M3312 2588 c-6 -7 -18 -33 -27 -58 -10 -25 -24 -60 -31 -77 -26 -57
-45 -117 -49 -148 -2 -16 -13 -72 -24 -124 -13 -59 -20 -133 -21 -200 -1 -189
-1 -201 -6 -237 -2 -20 1 -74 7 -122 23 -185 37 -278 46 -312 14 -51 74 -168
88 -174 14 -5 58 40 63 64 2 8 -12 48 -32 89 -33 73 -41 98 -53 186 -3 22 -11
76 -18 120 -8 50 -12 135 -9 227 2 89 -1 150 -6 153 -7 4 -7 13 0 24 5 10 7
20 5 23 -3 3 -1 28 5 56 5 28 12 73 16 99 3 26 14 73 24 103 9 31 21 71 25 90
4 19 10 37 14 40 26 21 57 135 46 169 -7 24 -46 29 -63 9z"/>
<path d="M2683 2316 c-78 -49 -122 -92 -143 -139 -40 -93 -30 -187 25 -234 21
-19 23 -24 11 -29 -9 -3 -36 -36 -60 -73 -40 -60 -43 -71 -40 -119 2 -31 14
-74 29 -103 l25 -50 -25 -33 c-24 -32 -25 -35 -17 -137 9 -105 25 -155 63
-191 10 -10 25 -18 33 -18 8 0 18 -4 21 -10 8 -13 51 -13 76 0 12 7 19 21 19
39 0 27 -3 30 -49 36 -73 10 -91 34 -103 140 l-10 86 27 25 c18 16 35 24 48
20 26 -7 67 21 67 47 0 27 -28 57 -46 50 -47 -18 -104 54 -98 123 3 35 51 120
62 110 2 -3 16 3 29 14 20 15 29 17 55 8 24 -8 32 -8 39 3 23 36 -5 89 -46 89
-45 0 -105 63 -105 110 0 63 88 170 140 170 12 0 35 9 51 21 28 20 28 21 14
50 -19 36 -27 35 -92 -5z"/>
<path d="M1815 1848 c-62 -37 -74 -87 -45 -191 21 -75 21 -80 4 -98 -13 -14
-17 -35 -16 -86 1 -59 4 -69 29 -92 15 -14 36 -38 46 -53 12 -20 26 -28 47
-28 16 0 31 4 34 9 10 16 -6 73 -23 78 -51 18 -86 110 -55 144 9 10 25 19 35
19 32 0 49 12 49 36 0 25 -9 36 -55 63 -38 22 -59 81 -43 116 14 32 31 37 71
20 26 -11 37 -11 45 -3 14 14 16 54 4 62 -21 12 -108 16 -127 4z"/>
<path d="M2965 1639 c-85 -19 -110 -43 -182 -175 l-22 -41 21 -59 c11 -32 32
-69 46 -82 l24 -23 -20 -20 c-32 -29 -49 -152 -26 -190 7 -13 17 -33 23 -44
16 -34 85 -93 111 -95 47 -4 57 0 68 25 16 35 18 33 -33 46 -67 17 -115 76
-115 140 0 59 28 93 79 96 54 3 63 10 59 45 -3 27 -8 33 -38 40 -109 26 -148
84 -110 163 32 65 66 98 95 91 34 -9 75 13 75 38 -1 36 -21 53 -55 45z"/>
<path d="M211 1434 c0 -11 3 -14 6 -6 3 7 2 16 -1 19 -3 4 -6 -2 -5 -13z"/>
</g>
</svg>
