<?xml version="1.0" standalone="no"?>
<!DOCTYPE svg PUBLIC "-//W3C//DTD SVG 20010904//EN"
 "http://www.w3.org/TR/2001/REC-SVG-20010904/DTD/svg10.dtd">
<svg version="1.0" xmlns="http://www.w3.org/2000/svg"
 width="505.000000pt" height="377.000000pt" viewBox="0 0 505.000000 377.000000"
 preserveAspectRatio="xMidYMid meet">
<metadata>
Created by potrace 1.16, written by Peter Selinger 2001-2019
</metadata>
<g transform="translate(0.000000,377.000000) scale(0.100000,-0.100000)"
fill="#000000" stroke="none">
<path d="M3625 3669 c-33 -11 -80 -36 -105 -53 -25 -18 -53 -36 -62 -39 -10
-4 -18 -11 -18 -17 0 -6 -18 1 -39 16 -29 19 -61 28 -118 35 -43 5 -83 11 -90
14 -6 2 -46 -5 -88 -16 -42 -10 -81 -17 -85 -14 -5 3 -10 2 -12 -2 -1 -5 -29
-27 -60 -50 l-57 -43 -6 31 c-9 41 -40 58 -105 57 -30 0 -71 4 -90 9 -37 10
-211 8 -270 -3 -52 -10 -51 -10 -110 -27 -108 -31 -260 -63 -262 -56 -2 4 -22
-1 -44 -12 -62 -28 -134 -34 -191 -15 -26 8 -59 17 -73 20 -14 2 -52 12 -86
20 -102 27 -493 23 -549 -6 -16 -8 -61 -25 -98 -37 -37 -12 -91 -37 -118 -57
-28 -19 -55 -34 -61 -32 -16 6 -74 -47 -239 -217 -49 -51 -83 -125 -99 -215
-4 -25 -13 -72 -19 -105 -6 -33 -14 -78 -17 -100 -3 -22 -8 -47 -10 -55 -3 -8
-8 -28 -10 -45 -2 -16 -15 -59 -28 -95 -14 -36 -34 -92 -46 -125 -48 -134 -94
-247 -120 -296 -43 -80 -90 -178 -90 -186 0 -6 -7 -16 -15 -23 -8 -7 -15 -21
-15 -31 0 -11 -4 -19 -8 -19 -5 0 -9 -13 -10 -29 0 -17 -5 -38 -11 -49 -14
-26 -3 -59 39 -120 44 -65 77 -71 103 -17 9 18 28 42 42 51 14 9 25 23 25 30
0 8 3 14 8 14 13 0 62 87 62 112 0 41 -22 61 -63 56 -36 -4 -36 -4 -32 30 2
18 17 55 33 80 16 26 43 83 61 127 18 44 36 89 41 100 5 11 16 45 25 75 19 60
81 225 94 250 5 9 12 36 16 60 4 25 11 50 15 55 5 6 10 39 11 74 4 97 59 301
81 301 4 0 8 6 8 13 0 7 12 24 28 38 15 14 38 40 52 58 14 18 39 39 55 48 17
8 41 26 55 38 41 37 190 112 258 129 187 47 531 49 563 2 4 -5 16 -6 28 -3 12
3 21 1 21 -4 0 -5 10 -9 23 -9 13 0 29 -6 35 -12 24 -24 163 -11 332 32 117
30 207 52 225 55 11 2 56 10 100 19 101 19 332 9 361 -15 8 -6 23 -9 34 -6 20
5 28 -7 11 -17 -16 -11 -77 -110 -95 -156 -10 -25 -41 -81 -70 -125 -85 -128
-109 -187 -111 -264 -3 -125 25 -234 73 -287 62 -68 82 -109 107 -223 14 -64
31 -136 38 -161 6 -25 12 -47 12 -50 1 -13 58 -126 69 -140 18 -19 56 -88 56
-99 0 -12 63 -116 82 -134 9 -9 18 -14 21 -11 3 3 19 -2 36 -10 44 -23 102
-23 131 0 22 18 40 36 165 170 28 30 64 72 80 95 35 48 163 179 175 179 4 0
13 13 19 28 17 41 1 78 -38 84 -32 5 -57 -13 -95 -66 -10 -14 -25 -26 -32 -26
-8 0 -14 -5 -14 -12 0 -6 -25 -36 -55 -65 -30 -30 -55 -59 -55 -65 0 -6 -29
-40 -65 -75 -36 -35 -65 -70 -65 -77 0 -15 -65 -76 -80 -76 -6 0 -10 5 -10 11
0 6 -9 9 -20 6 -22 -6 -39 14 -86 103 -16 30 -32 57 -35 60 -18 15 -59 93 -69
131 -7 24 -16 49 -21 55 -5 6 -6 13 -3 17 3 3 1 14 -5 25 -9 18 -27 99 -35
163 -7 53 -31 106 -84 183 -77 113 -82 128 -84 236 -2 84 24 161 68 199 13 11
24 26 24 32 0 6 11 25 25 43 14 18 25 39 25 46 0 7 6 21 14 29 7 9 21 38 31
64 10 27 24 51 32 54 7 3 13 9 13 15 0 8 66 76 104 106 31 24 130 49 191 47
68 -3 135 -14 135 -24 0 -3 19 -17 41 -31 45 -28 113 -115 105 -135 -2 -7 2
-16 10 -19 8 -3 14 -12 14 -21 0 -20 18 -19 58 5 32 20 36 28 32 65 -2 23 -57
127 -73 136 -12 9 0 29 18 29 7 0 26 10 42 23 59 49 110 54 223 24 30 -8 69
-21 85 -28 17 -6 41 -14 54 -16 44 -7 151 -65 190 -102 50 -48 72 -109 76
-204 3 -80 21 -132 56 -171 11 -11 19 -26 19 -33 0 -7 5 -13 10 -13 6 0 10 -5
10 -12 0 -6 11 -25 23 -42 26 -34 85 -152 90 -182 2 -11 10 -32 17 -49 7 -16
16 -46 20 -65 29 -132 30 -142 15 -262 -3 -24 -7 -87 -9 -142 -2 -54 -9 -103
-14 -108 -7 -7 -29 -6 -69 1 -32 7 -80 16 -108 20 -41 7 -146 40 -215 68 -8 3
-21 7 -28 9 -19 4 -66 35 -75 51 -12 20 -65 16 -77 -6 -5 -11 -18 -22 -28 -25
-22 -7 -40 -36 -47 -77 -8 -44 47 -171 84 -196 14 -10 64 -33 111 -51 81 -32
92 -34 245 -38 88 -2 176 -8 195 -12 l34 -8 -4 -89 c-6 -149 -2 -340 9 -381 6
-22 13 -68 16 -104 2 -36 10 -90 17 -120 6 -30 11 -59 10 -63 -4 -15 26 -161
44 -212 27 -82 18 -196 -21 -269 -13 -22 -29 -67 -36 -99 -11 -49 -18 -62 -53
-88 -36 -26 -42 -28 -52 -14 -14 19 -27 96 -20 116 12 34 -59 79 -85 55 -16
-15 -80 -38 -86 -32 -3 2 4 12 15 22 11 11 34 51 52 89 56 123 53 239 -15 449
-42 131 -53 160 -82 222 -12 28 -23 56 -23 62 0 12 -31 83 -40 92 -3 3 -16 27
-30 53 -13 27 -36 59 -51 72 -16 12 -26 25 -23 28 6 6 -15 49 -28 58 -9 6 -12
19 -24 96 -13 92 -34 123 -83 123 -23 0 -31 -5 -31 -18 0 -10 -5 -23 -12 -30
-9 -9 -8 -18 2 -39 16 -33 19 -58 10 -73 -11 -19 -70 57 -69 88 2 45 -13 185
-22 209 -7 18 -16 23 -44 23 -25 0 -37 -5 -41 -17 -3 -10 -9 -25 -13 -33 -4
-8 -4 -31 0 -50 4 -19 9 -68 11 -110 l3 -75 -45 -13 c-25 -8 -54 -17 -65 -22
-59 -25 -205 -31 -231 -9 -12 10 -18 11 -21 3 -2 -7 -12 -10 -21 -7 -10 2 -26
-5 -36 -15 -15 -18 -16 -27 -7 -79 21 -114 14 -247 -15 -305 -8 -15 -14 -38
-14 -53 0 -14 -4 -25 -10 -25 -5 0 -14 -18 -20 -40 -6 -22 -14 -40 -18 -40 -5
0 -14 -16 -21 -35 -7 -19 -16 -35 -21 -35 -12 0 -60 -81 -65 -111 -3 -13 4
-61 15 -107 11 -46 23 -113 26 -149 4 -36 13 -78 20 -92 20 -37 18 -46 -13
-62 -16 -8 -30 -17 -33 -20 -3 -4 -25 -9 -50 -12 -25 -4 -62 -11 -83 -17 -21
-6 -50 -9 -65 -6 -21 5 -308 8 -435 5 -34 0 -54 47 -49 111 1 8 4 48 7 87 2
40 8 81 13 90 35 72 51 113 57 143 4 19 18 64 32 99 41 105 53 210 49 430 -3
164 -7 207 -24 260 -12 36 -19 68 -16 73 3 5 -1 19 -10 32 -11 18 -23 23 -46
21 -17 -1 -36 -7 -43 -14 -13 -13 -10 -86 5 -115 12 -23 16 -44 22 -124 l3
-53 -23 16 c-29 19 -90 20 -101 1 -10 -18 -98 -57 -138 -62 -16 -2 -113 -4
-215 -4 -188 -1 -295 9 -384 35 -27 8 -67 15 -87 15 -39 0 -109 27 -109 42 0
4 -7 8 -16 8 -21 0 -14 37 27 143 16 43 29 83 27 90 -1 7 4 23 12 37 11 19 14
63 13 179 -1 138 -3 155 -20 173 -43 42 -103 20 -103 -38 0 -18 4 -35 10 -39
6 -3 6 -15 0 -29 -5 -13 -6 -27 -2 -31 11 -11 12 -134 1 -141 -5 -3 -7 -9 -4
-13 9 -15 -47 -186 -82 -251 -19 -36 -48 -89 -64 -118 -15 -30 -32 -59 -37
-65 -6 -7 -22 -34 -37 -62 -16 -27 -31 -52 -35 -55 -3 -3 -17 -32 -29 -65 -13
-33 -27 -68 -32 -77 -12 -24 -11 -75 1 -83 6 -3 10 -15 10 -27 0 -20 25 -72
47 -95 6 -7 19 -36 29 -65 9 -29 26 -68 36 -87 11 -19 21 -44 22 -55 1 -12 7
-32 13 -46 36 -85 55 -162 45 -184 -14 -31 -78 -46 -192 -48 -14 0 -70 5 -125
12 -55 7 -129 14 -165 16 -36 2 -65 4 -65 4 0 1 -13 3 -30 5 -84 10 -110 16
-123 28 -22 23 -30 171 -27 547 3 370 5 396 50 494 52 116 53 118 46 441 -1
72 0 144 2 160 4 35 27 105 40 122 4 6 10 23 13 38 3 15 15 42 28 59 13 17 26
39 29 49 11 29 -10 57 -41 57 -22 0 -36 -11 -67 -52 -34 -46 -89 -177 -98
-235 -1 -10 -6 -24 -11 -31 -4 -7 -4 -88 0 -180 4 -92 7 -185 7 -207 -1 -52
-23 -135 -56 -205 -37 -80 -47 -170 -46 -421 0 -123 0 -297 0 -386 0 -89 4
-174 8 -190 4 -15 4 -41 0 -57 -8 -30 15 -106 33 -106 5 0 16 -6 23 -14 13
-12 74 -18 332 -31 35 -2 67 -6 72 -9 20 -13 220 -16 291 -5 113 18 180 58
180 108 0 33 10 46 35 45 11 0 47 6 80 14 33 8 72 15 86 16 14 2 47 13 71 25
38 18 47 28 56 61 8 31 7 42 -4 51 -8 6 -14 24 -14 40 0 16 -9 46 -20 66 -11
21 -20 46 -20 55 0 10 -11 61 -25 114 -30 115 -31 147 -6 182 10 15 36 62 56
105 33 69 40 78 59 72 34 -11 474 -16 514 -6 20 5 80 24 132 43 92 32 95 34
98 66 2 17 7 32 13 32 8 0 14 -58 12 -125 0 -16 -2 -68 -4 -115 -1 -49 -12
-120 -26 -170 -12 -47 -28 -104 -34 -128 -6 -23 -15 -42 -20 -42 -5 0 -9 -7
-9 -16 0 -9 -9 -31 -19 -48 -20 -31 -24 -44 -38 -121 -10 -49 -9 -192 1 -262
7 -47 36 -100 48 -88 3 3 22 -2 42 -10 30 -13 50 -14 99 -7 34 5 73 8 87 6 14
-2 79 -6 145 -9 66 -4 127 -7 135 -7 36 -2 160 14 215 28 104 27 161 67 171
121 5 27 11 33 33 34 14 0 40 2 56 4 17 2 50 6 75 8 104 10 223 55 228 86 2
12 8 21 13 21 6 0 6 7 0 19 -6 10 -8 20 -6 23 7 7 -12 62 -43 128 -14 30 -26
57 -27 60 0 3 -7 16 -15 30 -38 65 -37 64 -18 92 11 16 21 40 24 55 2 16 7 39
11 53 4 14 8 84 8 155 1 134 3 152 35 241 10 29 15 55 12 59 -3 3 4 8 16 12
12 3 22 9 22 13 0 5 14 12 32 15 25 6 35 3 48 -11 8 -11 37 -36 63 -58 40 -32
54 -37 80 -33 30 5 34 1 62 -45 17 -27 35 -55 42 -63 19 -20 53 -84 53 -100 0
-13 23 -70 71 -171 10 -22 19 -47 19 -56 0 -8 6 -28 14 -44 8 -16 17 -42 20
-59 3 -16 13 -59 23 -95 28 -99 22 -183 -18 -260 -18 -34 -43 -73 -56 -86 -12
-13 -23 -32 -23 -43 0 -11 -4 -23 -10 -26 -19 -12 -10 -37 24 -71 29 -29 41
-34 79 -34 25 0 49 5 52 10 14 22 35 10 35 -20 0 -16 4 -30 9 -30 5 0 11 -10
15 -23 8 -32 50 -80 73 -82 10 -1 25 -5 34 -9 23 -10 35 -5 76 29 58 47 103
98 103 114 0 17 16 68 41 133 52 131 62 244 32 361 -8 34 -17 70 -18 82 -2 11
-8 34 -13 50 -9 25 -28 157 -47 322 -3 23 -9 53 -15 67 -12 32 -12 182 0 221
5 17 11 66 14 110 3 44 5 81 6 82 0 1 15 2 33 1 88 -3 213 116 199 189 -1 6 2
14 8 18 18 11 11 22 -26 40 -38 18 -36 32 7 40 13 3 25 9 27 15 2 6 9 16 15
23 7 6 27 29 45 50 17 21 32 35 32 31 0 -3 6 -1 14 5 12 10 12 18 2 49 -11 32
-17 37 -47 39 -19 1 -39 -3 -46 -9 -16 -13 -160 -22 -216 -14 l-42 6 -2 98
c-1 90 -11 143 -56 313 -8 31 -20 65 -25 75 -6 11 -23 46 -38 79 -33 71 -84
155 -94 155 -4 0 -13 13 -20 29 -6 16 -18 32 -25 35 -9 3 -13 28 -13 84 0 43
-3 90 -7 103 -13 44 -58 134 -77 153 -10 11 -18 23 -18 27 0 4 -16 14 -36 24
-19 9 -38 23 -41 31 -3 8 -11 14 -19 14 -8 0 -42 13 -76 29 -35 16 -81 32
-103 36 -22 3 -64 15 -94 26 -83 31 -155 33 -226 8z m1029 -1425 c42 -6 64
-20 34 -21 -7 -1 -34 -4 -60 -8 -44 -7 -47 -6 -45 14 1 23 4 24 71 15z m-692
-100 c17 -9 51 -22 77 -29 25 -7 78 -22 117 -33 39 -12 86 -23 105 -25 19 -2
48 -10 64 -17 30 -12 66 -14 235 -11 47 1 99 -2 117 -5 28 -5 30 -8 18 -20
-23 -23 -89 -48 -93 -35 -2 7 -13 6 -33 -4 -26 -14 -36 -14 -106 4 -60 15
-108 19 -208 18 -128 -1 -131 -1 -194 30 -35 18 -68 30 -72 27 -4 -2 -18 16
-30 41 -12 25 -26 45 -31 45 -4 0 -8 7 -8 15 0 19 4 19 42 -1z m-3705 -264
c-1 -11 -5 -20 -9 -20 -4 0 -8 -6 -8 -12 0 -7 -13 -24 -27 -38 l-28 -25 19 28
c9 16 15 31 12 35 -5 4 32 52 40 52 2 0 2 -9 1 -20z m3257 -252 c-3 -13 -11
-28 -16 -35 -18 -22 -38 -169 -28 -203 5 -18 7 -48 4 -68 -5 -34 -11 -104 -13
-143 -1 -8 -10 -25 -20 -36 -31 -33 -29 -98 3 -163 15 -30 41 -81 57 -113 16
-32 29 -64 29 -72 0 -25 -80 -47 -170 -45 -151 2 -150 2 -151 30 -3 67 -5 86
-12 97 -4 6 -10 37 -13 68 -6 54 11 114 36 130 17 10 66 119 89 195 12 41 29
89 38 107 10 20 16 66 18 130 3 125 8 137 51 129 18 -4 35 -2 39 4 3 5 20 10
36 10 27 0 30 -3 23 -22z m-2194 -76 c0 -13 113 -51 173 -58 32 -4 60 -10 62
-14 2 -4 -16 -36 -41 -71 -85 -120 -91 -150 -57 -294 13 -55 28 -118 33 -140
5 -22 16 -61 25 -85 30 -79 30 -98 4 -104 -38 -9 -185 -22 -198 -18 -6 2 -18
29 -27 60 -9 31 -20 62 -24 67 -4 6 -13 28 -20 50 -14 45 -31 85 -86 200 -21
44 -38 82 -37 85 1 3 3 19 6 35 5 31 47 118 60 123 4 2 7 10 7 18 0 8 11 27
24 41 13 14 32 45 42 69 12 29 24 44 36 44 10 0 18 -3 18 -8z"/>
<path d="M3799 2788 c-8 -8 -22 -17 -31 -21 -10 -3 -18 -14 -19 -24 0 -10 -2
-27 -5 -38 -5 -27 16 -115 28 -115 5 0 7 -3 5 -7 -4 -9 39 -53 46 -47 2 2 19
-2 38 -10 39 -16 67 -8 118 36 28 24 31 32 25 63 -5 29 -12 36 -42 45 -31 8
-39 7 -59 -12 -25 -23 -36 -19 -48 19 -5 17 -3 22 7 18 18 -7 58 31 58 54 0
26 -23 42 -68 48 -26 3 -43 0 -53 -9z"/>
</g>
</svg>
