<?xml version="1.0" standalone="no"?>
<!DOCTYPE svg PUBLIC "-//W3C//DTD SVG 20010904//EN"
 "http://www.w3.org/TR/2001/REC-SVG-20010904/DTD/svg10.dtd">
<svg version="1.0" xmlns="http://www.w3.org/2000/svg"
 width="487.000000pt" height="409.000000pt" viewBox="0 0 487.000000 409.000000"
 preserveAspectRatio="xMidYMid meet">
<metadata>
Created by potrace 1.16, written by Peter Selinger 2001-2019
</metadata>
<g transform="translate(0.000000,409.000000) scale(0.100000,-0.100000)"
fill="#000000" stroke="none">
<path d="M903 3912 c-16 -11 -53 -155 -68 -272 -37 -281 -40 -315 -30 -346 4
-12 1 -27 -7 -35 -39 -42 -76 -99 -90 -139 -48 -136 -50 -151 -44 -270 11
-184 44 -276 130 -359 103 -101 171 -163 189 -173 31 -16 111 -38 142 -38 28
0 115 -28 125 -40 3 -3 51 -6 107 -6 66 1 99 -2 94 -9 -5 -5 -11 -23 -15 -40
-4 -16 -19 -55 -33 -85 -24 -51 -25 -60 -19 -165 10 -157 53 -289 119 -361 26
-29 69 -66 95 -83 26 -17 74 -60 106 -96 59 -67 61 -74 36 -130 -48 -108 -129
-317 -134 -345 -4 -19 -29 -81 -56 -137 -28 -56 -50 -107 -50 -113 0 -6 -4
-18 -9 -28 -47 -91 -71 -145 -71 -160 0 -9 -12 -37 -25 -62 -82 -148 -99 -206
-70 -230 23 -19 59 20 80 83 8 29 20 61 25 72 5 11 19 43 30 70 12 28 32 73
45 100 13 28 33 78 44 113 12 35 25 71 30 80 5 9 18 35 29 57 11 22 39 96 62
165 23 69 56 154 74 190 18 36 43 91 56 124 l23 58 41 -7 c23 -4 52 -9 66 -10
14 -2 50 -12 80 -22 l55 -20 2 -74 c2 -73 -12 -357 -23 -473 -8 -88 -8 -548 0
-573 4 -14 15 -23 27 -23 25 0 53 62 43 93 -4 12 -9 31 -10 42 -10 90 -5 431
7 515 6 36 12 129 14 207 2 78 6 146 9 151 3 6 7 29 8 52 1 22 5 43 10 46 5 3
27 -2 51 -10 23 -9 56 -18 72 -21 17 -2 55 -9 85 -15 30 -6 109 -15 175 -20
226 -18 350 -30 420 -41 86 -14 296 2 395 30 36 11 83 22 105 26 36 6 156 38
192 52 13 5 14 -17 8 -163 -3 -93 -8 -185 -10 -204 -15 -139 -70 -612 -81
-698 -7 -49 7 -73 37 -65 16 4 19 11 15 29 -3 12 -1 24 5 26 14 5 49 95 49
125 0 12 -5 23 -12 25 -9 3 -7 51 11 204 35 300 48 435 55 587 8 149 12 164
52 177 18 6 66 33 106 59 40 26 78 50 83 53 6 4 11 -26 13 -80 4 -99 22 -215
51 -317 11 -38 29 -117 41 -175 12 -58 32 -134 44 -170 13 -36 29 -92 36 -125
7 -33 23 -91 36 -130 13 -38 29 -95 35 -125 15 -71 55 -150 76 -150 8 0 22 8
29 18 16 20 19 82 4 82 -5 0 -10 6 -10 14 0 8 -4 16 -9 18 -13 4 -88 249 -102
332 -6 38 -20 83 -29 100 -10 17 -35 110 -55 206 -20 96 -39 179 -42 183 -11
17 -33 186 -33 250 0 38 -4 76 -10 86 -7 15 1 29 47 77 136 145 161 175 195
240 51 96 55 143 25 289 -20 98 -35 141 -81 232 -31 62 -67 123 -81 137 -14
14 -25 29 -25 33 0 5 32 29 72 53 102 64 162 122 209 201 22 37 51 78 64 91
12 13 37 52 54 87 38 75 148 401 163 481 5 30 12 66 15 80 3 17 -3 33 -17 48
-31 33 -50 14 -50 -52 0 -28 -7 -71 -15 -96 -8 -25 -35 -108 -60 -185 -25 -77
-59 -168 -75 -202 -17 -35 -30 -65 -30 -68 0 -3 -21 -31 -46 -62 -25 -31 -51
-68 -57 -82 -20 -43 -98 -115 -185 -170 -45 -28 -82 -48 -82 -44 0 4 -5 2 -12
-5 -19 -19 -33 -15 -104 34 -97 66 -129 83 -203 106 -37 11 -82 27 -101 35
-19 8 -45 19 -57 24 -13 5 -33 13 -45 19 -13 5 -43 11 -68 14 -25 3 -70 13
-100 21 -58 16 -131 30 -215 41 -27 3 -58 8 -68 10 -49 9 -300 1 -392 -12 -16
-3 -79 -7 -140 -10 -60 -2 -141 -9 -180 -14 -38 -6 -101 -12 -140 -15 -38 -2
-95 -11 -125 -19 -60 -15 -180 -31 -180 -23 0 2 7 24 16 48 28 81 36 191 19
264 -8 37 -15 69 -15 71 0 3 13 3 29 -1 28 -6 31 -3 50 37 10 24 33 81 49 128
17 47 50 141 74 210 41 117 43 127 28 143 -19 19 -42 22 -69 8 -9 -5 -37 -12
-62 -15 -24 -2 -44 -5 -44 -6 0 -1 -13 -4 -30 -6 -16 -3 -59 -14 -95 -25 -59
-18 -80 -23 -147 -34 -30 -4 -43 -14 -43 -31 0 -17 -2 -17 -49 -5 -20 5 -68
15 -108 21 -61 10 -75 9 -95 -4 -29 -19 -38 -13 -38 25 l0 28 -132 -2 -131 -2
-48 90 c-27 50 -56 110 -66 135 -39 103 -108 182 -140 162z m68 -142 c34 -65
109 -231 114 -253 4 -19 -4 -26 -54 -51 -32 -16 -78 -46 -101 -67 -24 -22 -48
-39 -53 -39 -5 0 -6 21 -3 48 3 26 8 83 11 127 8 110 26 224 36 231 5 3 9 14
9 25 0 29 20 19 41 -21z m1149 -289 c0 -26 -66 -215 -101 -287 -32 -68 -59
-99 -59 -69 0 43 -121 226 -180 272 -13 10 -11 13 13 22 16 6 35 11 43 11 9 0
24 5 35 11 23 12 145 41 171 40 10 0 20 3 22 7 2 4 16 8 30 10 19 1 26 -3 26
-17z m-705 -41 c9 8 14 5 18 -11 3 -11 10 -18 15 -15 9 6 198 -26 237 -40 35
-12 159 -148 191 -209 69 -131 64 -430 -8 -511 -10 -11 -18 -29 -18 -40 0 -11
-8 -29 -17 -40 -10 -11 -27 -37 -38 -59 -33 -64 -116 -128 -225 -175 -47 -20
-70 -23 -155 -21 -54 1 -115 6 -135 11 -19 5 -71 18 -115 29 -166 41 -169 43
-292 161 -72 70 -99 110 -122 181 -18 57 -33 150 -31 202 1 55 39 182 70 234
41 70 171 213 193 213 5 0 20 11 33 25 13 14 31 25 41 25 10 0 29 9 42 19 14
10 31 17 39 14 7 -3 23 -1 35 6 32 16 156 18 196 3 23 -8 38 -9 46 -2z m1785
-755 c60 -6 85 -12 107 -23 18 -9 73 -20 143 -28 19 -3 58 -13 85 -24 28 -11
93 -33 145 -49 108 -34 132 -45 250 -123 126 -82 185 -146 236 -253 53 -109
94 -259 94 -340 0 -55 -4 -68 -50 -142 -49 -79 -217 -253 -245 -253 -6 0 -20
-9 -30 -20 -10 -11 -22 -20 -28 -20 -5 0 -23 -10 -40 -22 -53 -38 -87 -54
-197 -90 -99 -34 -163 -52 -220 -63 -81 -16 -122 -25 -130 -30 -39 -24 -329
-41 -390 -23 -28 9 -85 17 -150 23 -36 3 -85 8 -110 10 -25 3 -85 7 -133 10
-49 3 -92 7 -95 9 -4 2 -34 7 -67 10 -33 3 -82 13 -110 20 -58 17 -237 80
-251 89 -6 3 -28 8 -49 11 -112 15 -118 18 -238 124 -156 137 -197 178 -221
221 -31 59 -56 179 -56 274 0 63 4 82 32 133 17 32 38 63 45 67 7 4 13 21 13
36 0 26 6 30 74 55 110 40 193 114 243 216 23 47 70 99 88 98 11 0 47 4 80 10
63 12 71 13 150 32 28 7 78 13 112 14 34 1 67 7 75 13 7 5 59 9 118 8 58 -1
142 5 187 12 46 7 95 10 110 7 16 -3 53 -1 83 5 50 9 230 7 340 -4z"/>
</g>
</svg>
