<?xml version="1.0" standalone="no"?>
<!DOCTYPE svg PUBLIC "-//W3C//DTD SVG 20010904//EN"
 "http://www.w3.org/TR/2001/REC-SVG-20010904/DTD/svg10.dtd">
<svg version="1.0" xmlns="http://www.w3.org/2000/svg"
 width="452.000000pt" height="502.000000pt" viewBox="0 0 452.000000 502.000000"
 preserveAspectRatio="xMidYMid meet">
<metadata>
Created by potrace 1.16, written by Peter Selinger 2001-2019
</metadata>
<g transform="translate(0.000000,502.000000) scale(0.100000,-0.100000)"
fill="#000000" stroke="none">
<path d="M226 4983 c-48 -12 -55 -67 -17 -141 12 -24 25 -66 28 -94 5 -38 11
-52 25 -56 10 -2 18 -8 18 -12 0 -4 16 -31 35 -60 19 -29 38 -63 41 -76 3 -13
10 -24 14 -24 7 0 28 -40 84 -162 27 -59 48 -122 52 -154 1 -11 7 -29 13 -40
26 -46 42 -102 51 -183 12 -93 14 -108 22 -131 7 -20 29 -109 34 -140 8 -42
16 -64 29 -80 7 -8 21 -41 31 -72 10 -32 20 -58 24 -58 3 0 7 -14 8 -32 3 -33
49 -138 61 -138 4 0 8 -11 9 -25 1 -14 12 -40 24 -59 81 -120 105 -153 128
-171 13 -11 43 -39 66 -62 23 -23 61 -53 83 -68 23 -14 45 -33 48 -41 3 -8 11
-13 19 -10 7 3 18 -1 24 -9 6 -7 33 -21 61 -31 27 -10 51 -26 55 -36 3 -10 11
-18 18 -18 19 0 81 -71 97 -110 21 -53 20 -59 -12 -88 -47 -44 -53 -49 -75
-74 -12 -13 -25 -34 -29 -48 -12 -38 -47 -80 -67 -80 -10 0 -18 4 -18 10 0 10
-31 20 -77 25 -15 1 -61 8 -101 14 -40 6 -90 9 -110 5 -20 -3 -53 -7 -72 -9
-65 -6 -145 -23 -182 -39 -21 -9 -44 -16 -53 -16 -9 0 -31 -7 -51 -15 -19 -8
-35 -14 -37 -14 -1 0 -26 -9 -55 -20 -29 -12 -60 -21 -70 -21 -9 0 -30 -7 -47
-16 -16 -9 -43 -18 -59 -20 -16 -2 -35 -9 -42 -15 -15 -12 -19 -55 -7 -61 27
-12 64 -84 79 -154 8 -43 22 -90 29 -104 48 -92 216 -222 273 -212 6 2 12 -1
12 -6 0 -5 14 -12 31 -16 24 -4 29 -9 21 -18 -5 -7 -22 -35 -37 -62 -15 -28
-50 -80 -76 -118 -27 -37 -49 -74 -50 -81 0 -6 -12 -35 -27 -64 -15 -28 -51
-98 -80 -156 -28 -58 -59 -110 -67 -117 -8 -7 -15 -19 -15 -26 0 -8 -20 -36
-45 -62 -64 -67 -135 -154 -147 -178 -10 -22 -102 -74 -130 -74 -15 0 -18 -9
-18 -55 l0 -55 35 14 c19 8 35 13 35 10 0 -7 46 24 113 74 31 24 57 49 57 56
0 7 17 33 38 57 20 24 51 62 67 84 16 22 36 45 44 51 14 11 38 54 95 171 14
28 30 54 35 58 6 3 11 13 11 22 0 8 14 35 30 60 17 24 30 48 30 53 0 12 40 82
54 95 17 16 53 69 83 122 28 51 46 73 60 73 5 0 14 13 20 29 10 29 14 30 69
30 42 0 82 8 142 31 45 18 82 35 82 40 0 12 100 60 124 60 12 -1 32 -7 46 -15
26 -15 118 -19 180 -9 45 7 63 40 47 84 -14 38 -20 40 -89 27 -49 -9 -66 -7
-123 11 -36 12 -71 22 -78 22 -20 0 -81 -34 -110 -61 -15 -13 -56 -39 -92 -58
l-66 -33 -142 4 c-117 2 -147 6 -169 21 -15 10 -33 15 -39 11 -7 -4 -9 -3 -6
3 4 5 -5 16 -20 24 -58 31 -124 115 -138 174 -6 29 -6 29 9 10 8 -11 16 -25
16 -32 0 -6 16 -28 34 -48 28 -29 40 -35 58 -30 57 18 77 67 34 86 -28 13 -49
54 -41 79 3 11 20 22 38 25 18 4 38 12 44 17 7 6 13 8 13 4 0 -3 22 3 50 13
28 11 50 16 50 13 0 -4 5 1 11 10 5 10 18 18 27 18 10 0 26 6 37 13 31 21 175
40 206 28 15 -5 30 -7 35 -3 4 4 4 1 0 -5 -4 -7 -3 -13 3 -13 5 0 29 -19 52
-41 92 -88 218 -116 293 -65 47 31 56 32 56 6 0 -30 34 -60 60 -53 24 6 48 53
45 87 -1 11 -3 27 -4 33 -2 19 -63 47 -97 44 -44 -3 -55 -6 -98 -25 -27 -12
-53 -16 -84 -12 -50 6 -72 20 -72 47 0 13 -12 21 -40 29 -21 6 -42 15 -46 21
-3 6 -17 14 -31 20 -38 14 -18 29 25 18 43 -12 102 -40 102 -50 0 -4 14 -10
30 -14 17 -4 30 -10 30 -15 0 -13 98 -10 112 3 37 35 71 39 162 18 79 -19 85
-25 75 -68 -7 -33 -6 -41 12 -55 27 -23 42 -23 63 1 24 26 23 101 -1 142 -12
21 -39 41 -80 61 -52 24 -75 29 -145 30 -46 1 -91 -2 -100 -6 -16 -7 -17 -5
-5 21 20 47 60 101 79 107 10 2 24 -4 31 -14 6 -9 35 -29 64 -44 45 -24 61
-27 137 -25 47 1 86 5 86 9 0 3 22 17 49 29 61 29 74 64 70 199 l-3 96 29 12
c19 7 73 11 145 10 102 -2 125 -6 205 -35 50 -18 95 -40 101 -47 6 -8 15 -14
20 -14 5 0 26 -16 47 -35 21 -19 42 -35 47 -35 13 0 100 -86 100 -99 0 -5 13
-12 29 -16 23 -5 33 -15 41 -41 6 -19 15 -34 19 -34 12 0 81 -64 81 -75 0 -6
22 -35 50 -65 27 -30 49 -60 50 -66 0 -12 55 -64 68 -64 5 0 37 -26 72 -57 34
-31 74 -63 89 -71 14 -7 35 -22 46 -32 18 -16 79 -37 98 -32 4 1 7 -2 7 -7 0
-4 21 -14 48 -21 26 -7 51 -17 57 -21 5 -5 16 -9 25 -9 8 0 26 -6 40 -13 14
-7 51 -23 83 -36 31 -13 57 -27 57 -30 0 -4 6 -8 13 -9 37 -2 170 -43 220 -66
l58 -28 -2 -44 c-2 -24 -6 -44 -11 -44 -4 0 -8 -15 -8 -34 0 -19 -11 -49 -25
-70 -14 -20 -25 -43 -25 -51 0 -8 -6 -18 -13 -22 -7 -4 -30 -33 -50 -64 -32
-49 -43 -57 -76 -63 -27 -4 -42 -12 -46 -25 -12 -39 -132 -65 -213 -46 -18 4
-25 -1 -38 -29 -16 -33 -16 -35 5 -57 16 -17 31 -22 56 -21 58 4 43 -41 -23
-68 -12 -5 -27 -21 -33 -34 -7 -14 -19 -28 -28 -32 -35 -14 -80 -21 -88 -13
-4 4 -25 9 -46 11 -20 1 -37 5 -37 9 0 4 -20 10 -45 13 -25 4 -45 11 -45 15 0
4 -45 29 -100 55 -55 26 -100 52 -100 57 0 5 -6 9 -13 9 -6 0 -32 11 -57 24
-27 14 -72 27 -110 30 -76 8 -88 10 -117 20 -12 4 -39 2 -60 -3 -21 -6 -90
-13 -153 -17 -63 -4 -122 -9 -130 -13 -19 -8 -120 -6 -225 4 -80 8 -165 36
-165 54 0 6 -17 15 -38 20 -20 6 -59 24 -85 41 -26 16 -52 30 -57 30 -6 0 -10
4 -10 8 0 5 -12 15 -27 23 -16 8 -49 29 -75 47 -40 28 -52 32 -82 26 -31 -5
-36 -10 -36 -35 0 -16 9 -38 20 -49 11 -11 20 -18 20 -15 0 5 158 -90 179
-109 21 -18 76 -45 98 -49 10 -1 29 -10 42 -19 22 -15 23 -19 11 -47 -7 -17
-19 -36 -26 -42 -18 -15 -37 -57 -64 -139 -12 -36 -29 -76 -39 -90 -10 -14
-21 -37 -25 -52 -3 -16 -10 -28 -15 -28 -5 0 -7 -8 -4 -19 3 -10 -8 -45 -24
-77 -33 -65 -68 -176 -78 -240 -3 -23 -14 -59 -24 -80 -11 -22 -17 -42 -15
-45 2 -4 -10 -46 -26 -95 -17 -48 -30 -107 -30 -131 0 -24 -7 -59 -14 -78
l-15 -35 58 0 c59 0 59 0 64 33 3 17 6 58 6 91 1 32 8 71 16 87 8 15 15 38 15
51 0 13 7 46 16 73 8 28 18 61 20 74 3 13 9 32 15 42 5 10 16 53 25 96 9 43
22 85 30 93 22 25 54 103 54 133 0 15 7 30 15 33 8 4 12 11 9 16 -4 6 -3 13 2
17 5 3 14 20 21 36 48 123 79 187 106 218 l32 36 85 -10 c95 -11 269 -6 344
11 27 6 51 9 53 6 3 -2 23 2 45 10 47 16 200 10 263 -11 77 -26 125 -47 125
-57 0 -5 4 -7 9 -4 4 3 23 -6 42 -20 53 -39 184 -99 250 -113 26 -6 59 -15 75
-21 50 -19 132 -16 157 6 12 10 33 27 47 36 31 22 94 75 129 109 14 14 40 33
56 42 31 16 46 33 68 76 7 14 28 33 47 44 19 10 39 26 44 35 5 9 25 34 45 56
41 47 61 79 61 100 0 8 6 16 13 19 21 8 64 107 81 187 19 87 14 145 -16 177
-23 24 -121 64 -206 83 -29 7 -58 18 -65 25 -7 6 -34 15 -60 19 -26 4 -47 11
-47 17 0 5 -3 8 -7 7 -5 -1 -30 8 -57 20 -27 12 -52 22 -57 22 -5 0 -9 4 -9 9
0 10 -48 27 -97 34 -17 3 -37 8 -43 12 -5 3 -23 9 -38 11 -15 3 -40 18 -57 33
-16 15 -59 50 -95 77 -61 46 -99 82 -162 157 -31 35 -127 154 -143 175 -18 24
-50 56 -104 102 -29 25 -66 60 -83 78 -17 17 -36 32 -42 32 -6 0 -19 7 -29 14
-17 13 -17 17 -2 70 9 31 22 59 28 63 7 4 55 9 107 10 188 4 284 17 317 43 13
10 39 21 58 24 19 4 35 11 35 16 0 5 13 16 28 24 34 18 142 127 161 163 7 15
22 36 32 47 11 11 24 38 30 61 6 22 15 49 19 60 5 11 11 38 13 60 5 48 -23 80
-60 70 -26 -6 -114 -64 -126 -82 -8 -13 -129 -95 -187 -126 -48 -26 -147 -46
-256 -53 -104 -7 -112 -2 -93 54 7 20 14 42 15 47 26 97 40 135 53 135 31 0
138 45 166 70 38 34 98 70 117 70 12 0 41 27 157 145 81 83 138 163 140 200 1
3 8 22 16 42 17 41 22 93 11 112 -15 24 -54 31 -90 16 -19 -8 -36 -18 -38 -23
-1 -4 -23 -19 -47 -33 -26 -14 -52 -39 -63 -59 -11 -19 -35 -51 -53 -70 -19
-19 -41 -42 -50 -52 -19 -21 -195 -37 -195 -18 0 11 32 43 73 73 20 15 37 34
37 42 0 7 36 51 80 97 44 45 90 103 102 128 12 25 41 71 65 104 24 32 43 67
43 77 0 10 5 39 12 63 9 35 9 53 -2 85 -17 52 -43 61 -133 46 -37 -6 -69 -9
-71 -7 -7 6 -56 -41 -56 -53 0 -6 -8 -20 -19 -31 -10 -11 -22 -30 -25 -42 -4
-12 -11 -22 -16 -22 -5 0 -17 -16 -26 -36 -9 -20 -25 -41 -36 -47 -10 -7 -18
-17 -18 -24 0 -7 -4 -13 -10 -13 -5 0 -25 -13 -43 -30 -19 -16 -38 -30 -42
-30 -8 0 -1 112 11 175 7 44 6 73 -6 96 -14 24 -35 24 -60 -1 -16 -16 -20 -33
-20 -88 1 -37 -2 -115 -6 -173 -6 -104 -6 -107 17 -123 28 -19 53 -21 71 -3 7
7 52 45 101 85 48 40 87 78 87 84 0 6 25 46 56 89 54 75 81 95 141 105 27 5
30 -27 6 -73 -13 -26 -23 -51 -23 -57 0 -6 -12 -24 -28 -41 -15 -16 -36 -47
-47 -68 -11 -21 -41 -61 -67 -89 -27 -27 -48 -53 -48 -57 0 -8 -122 -134 -153
-158 -9 -7 -21 -13 -27 -13 -5 0 -10 -7 -10 -15 0 -8 -16 -27 -35 -42 -24 -19
-35 -36 -35 -54 0 -54 40 -64 225 -54 l135 7 37 34 c20 19 40 34 43 34 4 0 24
26 46 57 45 66 81 103 101 103 24 0 -42 -111 -104 -175 -63 -63 -148 -137
-167 -144 -6 -2 -13 -7 -16 -11 -7 -10 -75 -52 -143 -88 -45 -24 -69 -30 -105
-29 -55 3 -71 -11 -72 -61 0 -18 -6 -47 -13 -65 -8 -18 -17 -48 -21 -68 -8
-45 -35 -101 -53 -112 -7 -4 -13 -23 -13 -41 0 -29 5 -35 45 -55 42 -21 55
-22 188 -18 164 5 208 14 262 50 22 15 47 27 57 27 9 0 21 6 25 14 4 8 24 20
43 28 19 9 56 31 82 51 47 36 47 36 37 9 -6 -15 -21 -41 -35 -59 -13 -17 -24
-34 -24 -37 0 -10 -77 -86 -88 -86 -6 0 -17 -8 -24 -18 -27 -37 -85 -69 -143
-81 -33 -6 -147 -13 -253 -14 -211 -2 -212 -2 -212 -63 0 -34 -26 -104 -38
-104 -4 1 -18 7 -32 15 -14 8 -35 14 -48 15 -12 0 -30 4 -40 10 -9 5 -29 14
-44 20 -16 5 -28 16 -28 24 0 8 18 49 40 91 22 42 40 83 40 91 0 16 26 106 40
139 8 18 23 70 37 130 2 11 9 54 15 95 6 41 19 100 29 130 38 115 57 249 57
405 0 83 6 201 12 264 13 126 6 157 -37 167 -51 13 -53 -1 -59 -321 -5 -299
-11 -364 -39 -431 -8 -20 -13 -39 -11 -42 3 -2 -1 -17 -10 -33 -8 -16 -13 -29
-10 -29 2 0 0 -17 -5 -37 -5 -21 -14 -67 -20 -103 -5 -36 -16 -83 -23 -105 -8
-22 -33 -100 -57 -173 -23 -73 -47 -139 -53 -145 -26 -29 -56 -77 -56 -92 0
-11 -10 -15 -42 -14 -56 1 -161 -16 -198 -31 -21 -8 -34 -9 -43 -2 -6 5 -27
13 -44 17 -50 10 -49 23 1 46 25 11 48 24 51 29 3 5 23 17 43 27 46 21 154
129 171 172 8 17 17 31 22 31 5 0 9 9 9 19 0 11 4 22 9 26 6 3 13 27 16 53 4
26 16 67 27 92 12 25 22 56 23 70 1 14 5 32 9 42 4 9 5 29 3 45 -5 28 -37 96
-37 78 0 -5 -5 -4 -12 3 -21 21 -62 14 -89 -15 -13 -16 -44 -45 -67 -65 -24
-21 -42 -45 -42 -57 0 -12 -4 -21 -9 -21 -5 0 -11 -8 -15 -17 -3 -10 -21 -38
-40 -63 -19 -25 -35 -50 -35 -56 -1 -15 -56 -74 -69 -74 -7 0 -12 -4 -12 -9 0
-5 -10 -11 -22 -14 -13 -3 -50 -15 -83 -27 -80 -29 -129 -34 -145 -15 -7 8
-16 12 -21 9 -5 -3 -9 0 -9 5 0 6 -6 11 -13 11 -46 0 -168 94 -216 165 -54 80
-54 80 -29 126 39 71 43 77 78 106 18 15 43 37 54 49 12 11 33 29 48 38 14 9
34 34 43 54 10 20 26 46 36 57 27 30 55 103 63 164 4 30 11 62 16 71 4 8 11
50 15 91 5 58 3 85 -9 114 -9 20 -16 46 -16 56 0 24 -55 59 -81 52 -29 -8 -99
-82 -105 -112 -12 -63 -26 -101 -34 -101 -6 0 -10 -8 -10 -19 0 -10 -11 -35
-25 -55 -14 -21 -32 -52 -39 -69 -14 -31 -26 -47 -91 -124 -30 -36 -88 -68
-104 -58 -5 2 -12 26 -15 52 -6 40 -23 100 -54 183 -9 27 -11 34 -21 75 -5 22
-16 59 -24 82 -16 43 -13 77 8 103 7 8 15 27 19 42 3 14 17 39 29 55 13 15 38
68 56 118 18 49 36 94 41 100 11 13 14 89 6 134 -12 62 -55 121 -103 142 -25
10 -52 19 -61 19 -22 -1 -47 -21 -49 -40 -1 -8 -4 -26 -7 -40 -3 -14 -9 -38
-12 -55 -3 -16 -11 -36 -17 -43 -6 -7 -27 -52 -48 -100 -20 -48 -41 -87 -47
-87 -14 0 -103 124 -142 199 -23 45 -48 77 -75 96 -22 16 -57 44 -77 62 -66
59 -75 66 -107 73 -17 3 -33 11 -36 16 -6 9 -9 10 -39 2z m117 -152 c16 -10
46 -37 67 -60 21 -22 44 -41 50 -41 6 0 29 -37 51 -82 21 -46 60 -108 84 -138
25 -30 50 -61 56 -67 13 -17 60 -28 68 -16 3 6 16 13 29 17 29 9 72 73 72 106
0 15 11 41 25 60 14 19 25 44 25 56 0 12 6 27 14 33 8 7 18 27 22 44 11 52 16
52 40 6 29 -55 31 -108 4 -139 -11 -13 -25 -42 -31 -64 -17 -69 -20 -76 -29
-76 -4 0 -10 -10 -14 -23 -3 -13 -16 -35 -28 -49 -13 -13 -32 -41 -42 -61 -11
-21 -23 -37 -28 -37 -4 0 -8 -9 -8 -20 0 -11 -5 -20 -11 -20 -5 0 -1 -17 10
-37 32 -61 65 -150 76 -208 2 -5 10 -32 20 -60 23 -69 26 -80 39 -166 6 -42
17 -84 25 -93 16 -19 59 -21 98 -4 43 19 173 119 173 133 0 7 7 18 15 25 9 7
13 15 11 18 -3 2 13 25 34 50 22 25 40 50 40 56 0 6 14 38 30 69 17 32 30 65
30 73 0 8 7 17 15 20 8 4 13 9 11 13 -2 3 1 18 7 33 16 37 40 22 39 -24 -2
-69 -8 -114 -19 -133 -6 -11 -18 -57 -28 -101 -13 -61 -25 -91 -49 -118 -17
-20 -42 -50 -55 -67 -22 -28 -104 -88 -108 -78 -2 6 -52 -62 -59 -81 -3 -8
-20 -26 -39 -40 -42 -32 -53 -83 -28 -135 9 -19 20 -35 24 -35 4 0 18 -20 30
-45 12 -25 26 -45 31 -45 4 0 8 -7 8 -15 0 -9 7 -18 15 -21 8 -4 15 -11 15
-18 0 -13 41 -52 53 -48 4 1 7 -2 7 -6 0 -4 16 -14 35 -21 19 -7 35 -16 35
-21 0 -4 16 -17 35 -29 20 -12 35 -28 35 -39 0 -10 11 -29 24 -41 l25 -23 46
31 c46 31 89 47 113 43 6 -2 12 2 12 8 0 5 15 10 34 10 18 0 44 8 57 18 13 10
38 24 56 31 18 7 39 23 47 36 9 13 23 26 33 29 18 6 63 80 63 103 0 7 6 16 14
20 7 4 23 27 35 51 21 41 84 112 100 112 17 0 -40 -206 -76 -275 -9 -16 -22
-42 -30 -57 -16 -30 -68 -78 -86 -78 -7 0 -30 -16 -51 -35 -21 -19 -42 -32
-46 -30 -4 3 -13 -2 -20 -9 -6 -8 -26 -18 -43 -22 -18 -3 -48 -14 -67 -24 -19
-9 -40 -15 -46 -13 -14 5 -35 -52 -28 -72 3 -8 14 -17 25 -20 10 -4 19 -11 19
-16 0 -5 6 -9 14 -9 8 0 22 -7 31 -16 9 -9 19 -14 22 -10 3 3 18 -3 33 -14 16
-11 35 -20 43 -20 8 0 26 -17 41 -38 27 -39 33 -85 20 -150 -7 -34 -29 -45
-117 -57 -42 -6 -54 -3 -88 19 -34 23 -39 31 -39 66 0 22 -11 59 -25 86 -14
26 -25 53 -25 60 0 18 -119 134 -137 134 -9 0 -28 13 -43 29 -15 15 -39 31
-52 34 -38 10 -132 70 -171 108 -18 19 -52 50 -75 69 -23 19 -42 40 -42 46 0
6 -11 20 -24 31 -13 12 -32 38 -42 59 -10 21 -26 46 -36 56 -10 10 -19 25 -19
33 -1 8 -2 18 -3 23 -3 14 -60 147 -68 158 -5 6 -15 36 -24 65 -8 30 -19 63
-24 74 -8 18 -32 92 -35 105 -1 3 -4 19 -8 35 -10 45 -17 83 -28 155 -15 95
-31 174 -40 185 -3 6 -17 44 -29 85 -12 41 -30 93 -40 115 -10 22 -25 60 -34
84 -10 24 -30 62 -45 85 -15 22 -38 62 -51 89 -13 26 -27 47 -31 47 -4 0 -13
16 -20 35 -7 19 -16 35 -20 35 -3 0 -12 21 -19 48 -7 26 -17 53 -23 60 -14 18
4 15 36 -7z m527 -2492 c-46 -10 -103 -27 -125 -38 -22 -10 -58 -24 -80 -31
-22 -7 -47 -19 -56 -27 -9 -7 -33 -17 -53 -20 -20 -3 -36 -8 -36 -12 0 -3 -19
-7 -42 -7 -31 -1 -46 -8 -59 -25 -19 -25 -35 -20 -41 15 -4 23 32 44 92 53 14
2 41 10 60 17 55 22 137 46 157 46 11 0 25 6 31 13 15 14 125 34 192 35 39 0
33 -2 -40 -19z m180 11 c0 -11 -21 -11 -65 0 -27 7 -25 8 18 9 26 0 47 -3 47
-9z"/>
<path d="M2205 2302 c-1 -2 -30 -7 -63 -12 -68 -9 -149 -56 -175 -100 -15 -25
-15 -27 4 -40 10 -8 19 -20 19 -27 0 -14 16 -18 22 -5 9 21 105 72 147 77 25
3 54 8 63 9 10 2 22 -2 28 -9 9 -10 4 -15 -20 -20 -17 -4 -29 -9 -26 -13 3 -3
2 -10 -3 -16 -6 -7 -12 -23 -15 -38 -2 -14 -10 -37 -17 -50 -7 -12 -12 -24
-11 -25 1 -2 2 -10 2 -18 0 -13 -4 -14 -22 -4 -37 20 -63 19 -77 -3 -20 -32 3
-75 54 -99 24 -11 45 -28 47 -37 6 -23 82 -59 143 -68 112 -16 157 -3 191 56
10 16 22 30 27 30 4 0 5 5 2 10 -3 6 1 13 9 16 9 3 13 11 10 18 -3 6 1 3 9 -6
21 -26 63 -23 83 7 17 27 12 58 -16 90 -9 11 -31 46 -49 78 -18 32 -39 57 -48
57 -9 0 -14 3 -11 6 9 8 -90 105 -105 102 -18 -3 -147 23 -147 31 0 6 -49 9
-55 3z m98 -234 c-4 -7 -8 -15 -8 -18 -1 -3 -5 -16 -9 -29 -6 -16 -11 -20 -18
-13 -14 14 9 72 29 72 9 0 11 -5 6 -12z m147 -99 c0 -6 -4 -7 -10 -4 -5 3 -10
11 -10 16 0 6 5 7 10 4 6 -3 10 -11 10 -16z m-160 -51 c0 -4 -6 -5 -14 -2 -8
3 -12 12 -9 21 5 12 7 12 14 1 5 -7 9 -16 9 -20z"/>
<path d="M3442 1728 c-7 -7 -12 -21 -12 -33 0 -24 44 -75 65 -75 8 0 15 -4 15
-10 0 -17 70 -40 119 -40 52 0 71 13 71 46 0 13 5 26 10 29 6 3 10 17 10 30 0
32 -30 40 -123 30 -40 -4 -69 -3 -65 1 11 11 -24 33 -52 34 -15 0 -31 -5 -38
-12z"/>
</g>
</svg>
