<?xml version="1.0" standalone="no"?>
<!DOCTYPE svg PUBLIC "-//W3C//DTD SVG 20010904//EN"
 "http://www.w3.org/TR/2001/REC-SVG-20010904/DTD/svg10.dtd">
<svg version="1.0" xmlns="http://www.w3.org/2000/svg"
 width="466.000000pt" height="524.000000pt" viewBox="0 0 466.000000 524.000000"
 preserveAspectRatio="xMidYMid meet">
<metadata>
Created by potrace 1.16, written by Peter Selinger 2001-2019
</metadata>
<g transform="translate(0.000000,524.000000) scale(0.100000,-0.100000)"
fill="#000000" stroke="none">
<path d="M3933 5025 c-17 -6 -40 -18 -51 -28 -10 -9 -23 -17 -29 -17 -5 0 -15
-11 -21 -25 -14 -29 -32 -33 -32 -6 0 30 -39 71 -68 71 -26 0 -93 -20 -102
-31 -3 -3 -20 -14 -37 -23 -36 -18 -65 -56 -70 -90 -10 -76 -3 -150 16 -176
l20 -27 -41 -39 -41 -39 -89 3 c-49 2 -94 -1 -101 -6 -13 -11 -97 -37 -109
-34 -5 1 -8 -3 -8 -9 0 -6 -16 -10 -37 -9 -85 4 -83 5 -83 -52 0 -65 36 -148
88 -200 20 -21 30 -38 23 -38 -16 0 -95 -81 -136 -140 -52 -75 -84 -125 -91
-140 -22 -55 -86 -179 -103 -196 -10 -12 -29 -41 -41 -65 -13 -24 -33 -57 -46
-72 -13 -15 -36 -55 -51 -87 -15 -33 -31 -60 -35 -60 -4 0 -8 -6 -8 -14 0 -16
-28 -77 -75 -161 -18 -33 -50 -93 -69 -134 -48 -99 -134 -224 -171 -250 -38
-26 -107 -36 -255 -35 -113 0 -297 11 -309 18 -3 2 -49 -4 -101 -14 -61 -12
-99 -15 -107 -9 -7 7 -12 6 -15 -2 -3 -8 -34 -13 -89 -15 -78 -3 -109 -9 -196
-35 -18 -6 -37 -8 -42 -4 -5 3 -12 1 -16 -5 -4 -6 -10 -8 -15 -5 -5 3 -20 -1
-32 -9 -13 -7 -34 -17 -47 -21 -14 -4 -29 -11 -35 -16 -45 -37 -89 -68 -128
-87 -33 -18 -49 -34 -63 -65 -10 -23 -31 -69 -47 -103 -23 -50 -29 -79 -34
-165 -7 -109 -10 -154 -13 -154 -1 0 -4 -30 -7 -66 -2 -37 -11 -91 -20 -120
-8 -30 -15 -63 -15 -74 1 -53 -62 -235 -80 -235 -5 0 -9 -8 -9 -19 0 -10 -9
-30 -20 -44 -11 -14 -20 -29 -20 -34 0 -5 -18 -25 -40 -44 -22 -19 -40 -38
-40 -43 0 -5 -12 -20 -28 -34 -33 -31 -92 -121 -92 -141 0 -8 -5 -29 -11 -46
-10 -26 -9 -40 5 -77 28 -73 94 -94 144 -48 11 11 22 17 25 14 2 -3 19 14 36
38 21 29 31 53 31 78 0 52 19 149 34 174 7 12 21 50 31 86 14 54 26 74 69 116
28 28 62 65 75 83 13 17 27 28 32 25 5 -3 9 5 9 18 1 13 15 39 32 58 28 32 30
33 24 10 -46 -178 -56 -224 -62 -275 -4 -34 -19 -85 -35 -117 -16 -32 -29 -63
-29 -69 0 -6 -6 -25 -14 -42 -51 -116 -52 -180 -1 -292 15 -33 31 -76 36 -95
5 -19 12 -44 15 -55 3 -11 8 -40 9 -65 2 -25 8 -56 13 -70 5 -14 10 -95 11
-181 2 -134 -1 -167 -20 -230 -42 -145 -52 -277 -22 -306 40 -41 121 -51 176
-21 11 5 68 11 127 12 106 1 107 1 119 28 9 20 9 42 1 86 -6 33 -11 77 -11 99
-1 39 -17 101 -31 118 -4 5 -8 19 -8 32 0 13 -6 23 -14 23 -23 0 -23 16 -3
134 11 61 19 140 19 176 0 67 -24 228 -42 290 -15 53 -12 95 10 120 11 13 20
20 20 17 0 -4 28 11 62 33 34 22 63 39 64 37 2 -1 21 -38 43 -82 27 -54 54
-92 84 -118 l45 -38 7 -107 c3 -59 8 -120 10 -137 13 -93 15 -114 19 -152 2
-23 11 -52 20 -65 22 -31 20 -81 -5 -131 -20 -42 -35 -97 -45 -172 -5 -36 -2
-45 25 -74 l31 -33 52 12 c71 17 190 23 198 10 10 -16 52 -13 105 8 28 11 62
24 78 31 17 7 27 18 27 31 0 44 -33 162 -49 178 -10 9 -21 29 -24 43 -4 14
-22 43 -42 63 -21 23 -35 48 -36 64 -1 54 -8 108 -19 152 -6 25 -15 64 -19 87
-4 24 -15 51 -23 60 -26 30 -36 106 -38 279 0 12 -9 39 -19 60 -15 29 -16 43
-8 61 5 13 14 23 19 23 4 0 8 6 8 13 0 7 13 28 28 47 16 19 32 47 36 62 3 15
15 32 26 38 11 6 20 17 20 25 0 8 5 15 10 15 6 0 9 12 8 26 -3 31 0 32 137 38
108 5 130 9 220 46 11 5 32 11 47 14 25 6 27 3 38 -47 7 -28 23 -79 36 -113
28 -73 31 -116 10 -172 -24 -64 -23 -117 2 -152 12 -16 22 -32 22 -36 0 -4 8
-12 17 -19 14 -10 17 -33 18 -131 1 -66 7 -145 13 -177 12 -62 8 -177 -7 -186
-5 -4 -12 -23 -16 -44 -4 -20 -11 -40 -16 -43 -5 -3 -9 -16 -9 -30 0 -13 -4
-32 -10 -42 -17 -30 -61 -185 -66 -231 -3 -38 -1 -47 23 -67 29 -24 77 -32 88
-14 7 12 145 2 159 -11 16 -14 150 -10 187 5 19 8 44 25 55 38 12 12 33 32 46
43 26 21 47 93 31 104 -5 3 -15 22 -23 41 -7 19 -19 42 -27 51 -7 8 -13 20
-13 25 0 6 -16 27 -35 48 -20 22 -38 49 -41 62 -4 13 -11 24 -16 24 -7 0 -8
28 -4 78 12 152 9 224 -13 298 -26 84 -24 114 11 151 14 16 28 35 32 43 4 8
15 31 25 50 14 25 16 41 10 59 -5 13 -7 26 -5 29 3 2 -2 18 -10 34 -8 16 -12
33 -9 38 3 6 1 10 -4 10 -6 0 -11 10 -11 21 0 12 -7 27 -16 34 -15 10 -14 15
6 54 l21 43 23 -43 c20 -36 22 -53 18 -111 -4 -61 -2 -72 22 -108 14 -22 26
-44 26 -50 0 -12 25 -40 35 -40 12 0 35 -28 35 -42 0 -8 9 -39 19 -69 35 -99
40 -164 16 -231 -8 -24 -15 -60 -15 -80 0 -20 -4 -39 -9 -42 -13 -9 -7 -119 7
-124 16 -5 15 -31 -3 -66 -9 -16 -18 -57 -21 -92 -6 -69 -1 -76 56 -81 19 -2
62 -6 95 -9 42 -4 79 -1 120 11 33 9 68 17 78 18 9 1 17 5 17 9 0 4 8 8 18 9
21 0 61 49 77 95 13 38 0 104 -21 104 -14 0 -26 27 -59 130 -15 47 -33 94 -40
105 -13 22 -38 182 -40 260 0 28 -8 64 -18 82 -24 45 -21 76 9 104 24 23 25
27 20 114 -6 114 -6 115 -27 115 -10 0 -21 5 -24 10 -4 6 -10 8 -14 5 -17 -10
-44 35 -41 67 1 18 1 74 0 123 -4 151 -2 178 15 205 5 8 10 20 11 25 2 9 12
58 17 80 2 6 6 15 10 22 17 27 25 189 18 365 -2 48 -6 86 -10 84 -4 -3 -13 39
-20 92 -7 53 -17 102 -21 107 -11 14 -5 146 9 217 7 30 20 64 31 75 10 12 22
37 25 57 4 20 11 39 16 42 5 3 9 12 9 20 0 8 11 37 25 66 14 28 25 57 25 65 0
20 33 87 52 104 10 9 18 28 18 41 0 14 7 31 15 38 9 7 13 15 11 18 -3 3 17 47
44 99 28 53 50 103 50 112 0 9 16 48 35 85 19 38 35 76 35 85 0 9 7 27 16 39
13 20 19 42 23 92 1 12 17 15 84 14 98 -1 154 -11 161 -30 3 -8 12 -14 19 -14
8 0 20 -7 27 -15 7 -8 18 -15 26 -15 7 0 29 -10 47 -23 19 -13 61 -32 93 -42
49 -15 68 -16 127 -7 38 6 76 17 86 26 10 9 20 14 23 11 2 -3 13 12 23 32 10
21 22 46 26 55 5 10 9 25 9 33 0 9 9 25 20 37 11 12 20 29 21 37 1 9 2 28 3
43 3 33 -22 88 -40 88 -7 0 -19 6 -26 13 -20 17 -50 37 -70 43 -10 4 -19 22
-23 47 -12 70 -63 169 -113 218 -26 25 -66 66 -89 90 -23 24 -51 51 -63 59
-19 14 -20 19 -10 70 7 37 18 62 34 75 35 30 54 65 61 117 6 39 3 51 -16 78
-13 17 -44 41 -69 54 -38 18 -50 20 -77 11z m-217 -83 c6 -4 16 -17 23 -29 17
-32 0 -59 -46 -73 -52 -17 -57 -23 -54 -75 1 -25 -3 -45 -8 -45 -16 0 -39 41
-42 75 -4 37 10 105 21 105 5 0 15 6 22 13 12 11 56 35 68 36 3 0 10 -3 16 -7z
m277 -6 c9 -7 17 -18 17 -25 0 -6 4 -11 10 -11 18 0 -22 -84 -52 -108 -22 -19
-28 -32 -28 -63 0 -21 -4 -39 -10 -39 -5 0 -10 -9 -10 -19 0 -11 -4 -23 -10
-26 -16 -10 -12 72 4 104 17 31 13 56 -17 120 l-20 44 24 18 c28 22 67 24 92
5z m-147 -128 c13 -25 13 -32 -1 -64 -8 -20 -15 -45 -15 -55 0 -16 -8 -19 -44
-19 -48 0 -60 10 -70 57 -5 23 -3 35 9 45 9 7 33 30 53 50 38 39 39 39 68 -14z
m-171 -187 c5 -16 18 -20 98 -23 79 -4 95 -2 113 14 21 19 21 19 27 -9 4 -18
18 -35 39 -47 18 -11 47 -36 65 -55 40 -45 42 -47 76 -72 16 -12 27 -30 27
-45 0 -13 4 -24 9 -24 11 0 40 -44 44 -67 4 -22 22 -64 50 -120 14 -29 31 -46
52 -53 27 -10 29 -12 13 -24 -18 -13 -23 -50 -12 -80 8 -22 60 -21 73 2 6 9
11 14 11 10 0 -11 -41 -88 -49 -89 -58 -12 -135 9 -181 48 -34 28 -64 27 -68
-3 -4 -29 56 -93 93 -100 48 -8 54 -24 10 -24 -22 0 -55 9 -73 20 -18 11 -38
20 -46 20 -7 0 -21 9 -31 20 -10 11 -23 20 -29 20 -6 0 -27 11 -46 24 -42 28
-78 35 -194 37 l-88 2 -52 48 c-28 27 -54 49 -58 49 -5 0 -8 5 -8 11 0 6 -7
17 -15 26 -14 13 -18 13 -40 -1 -19 -13 -23 -23 -21 -53 1 -21 -1 -45 -5 -53
-40 -86 -49 -111 -49 -133 0 -14 -5 -29 -11 -33 -6 -3 -9 -25 -6 -50 3 -33 12
-50 37 -74 17 -16 38 -30 44 -30 23 0 24 -11 5 -50 -11 -21 -19 -45 -19 -52 0
-7 -7 -22 -16 -33 -12 -16 -18 -18 -34 -7 -11 6 -29 12 -41 12 -11 0 -28 4
-38 10 -24 12 -90 -6 -117 -34 -12 -11 -29 -42 -37 -67 -24 -69 -60 -149 -68
-149 -15 0 -19 -52 -5 -78 22 -42 100 -122 119 -122 23 0 22 -6 -18 -87 -19
-39 -35 -80 -35 -91 0 -11 -6 -35 -14 -53 -7 -19 -17 -56 -20 -82 -7 -48 -8
-48 -44 -46 -20 1 -46 -2 -57 -6 -11 -4 -32 -11 -47 -17 -46 -17 -183 -157
-213 -217 -23 -46 -26 -64 -23 -114 3 -41 10 -64 21 -72 9 -7 17 -17 17 -22 0
-15 42 -50 70 -58 14 -4 48 -18 76 -31 28 -14 58 -22 65 -19 8 3 43 -4 78 -15
46 -14 69 -16 83 -9 17 9 18 6 12 -58 -10 -104 -10 -107 -17 -123 -34 -75 -40
-130 -39 -334 1 -193 2 -210 20 -231 11 -13 34 -26 51 -30 28 -6 31 -10 32
-48 1 -23 2 -49 3 -57 2 -22 -26 -70 -42 -70 -21 0 -10 -107 38 -365 6 -33 24
-91 39 -130 16 -38 32 -96 36 -128 3 -31 10 -57 13 -57 4 0 13 -15 21 -32 7
-18 20 -38 29 -45 20 -16 4 -31 -72 -67 -65 -31 -146 -40 -201 -23 -32 9 -35
14 -35 48 0 21 4 40 9 43 15 10 25 106 12 119 -16 16 -13 79 9 197 21 108 19
171 -5 220 -7 14 -16 54 -20 90 -8 71 -19 100 -38 100 -7 0 -27 13 -44 29 -38
35 -48 78 -39 168 6 59 4 70 -17 102 -42 63 -48 94 -31 153 9 29 19 76 23 103
4 28 12 59 18 71 14 24 101 104 114 104 5 0 9 9 9 20 0 11 3 20 8 20 4 0 14
12 22 28 36 64 -11 105 -55 48 -14 -18 -25 -39 -25 -47 0 -8 -16 -29 -35 -48
l-35 -33 -1 59 c-1 32 0 71 1 87 2 31 -13 46 -47 46 -34 0 -44 -30 -37 -113
l7 -75 -39 -6 c-22 -4 -55 -6 -75 -5 -76 6 -120 -35 -155 -142 -9 -30 -19 -58
-21 -64 -4 -12 -22 -41 -45 -74 -22 -29 -23 -58 -4 -102 15 -35 51 -79 65 -79
4 0 16 -8 27 -17 31 -28 64 -44 74 -38 6 4 10 0 10 -7 0 -7 14 -26 31 -43 76
-71 77 -158 3 -218 -34 -26 -47 -78 -39 -155 4 -37 13 -82 21 -101 8 -19 12
-42 9 -52 -3 -9 -1 -20 4 -23 10 -7 8 -42 -15 -194 -6 -39 21 -117 50 -149 33
-34 42 -47 62 -89 10 -21 21 -41 24 -44 3 -3 11 -18 18 -34 12 -28 11 -31 -22
-65 -34 -34 -40 -36 -96 -34 -33 1 -77 7 -98 13 -48 13 -148 13 -173 0 -15 -9
-21 -7 -26 6 -15 39 57 304 94 346 8 9 16 39 18 67 2 27 5 54 8 58 3 5 0 54
-7 109 -7 54 -12 150 -10 212 2 106 1 115 -19 133 -60 54 -67 65 -67 97 0 19
9 47 21 63 16 23 19 40 16 82 -2 28 -9 63 -15 77 -27 65 -54 177 -62 257 -13
116 -12 250 0 273 6 12 6 28 -1 49 -9 25 -8 36 4 55 9 13 19 41 23 62 4 21 15
51 25 66 11 14 19 30 19 36 0 5 7 15 15 22 8 7 26 36 40 65 26 57 24 87 -9
114 -9 7 -16 19 -16 25 0 17 -75 93 -107 109 -34 17 -116 14 -122 -5 -2 -7
-22 -31 -43 -52 -21 -22 -38 -43 -38 -48 0 -5 -18 -27 -40 -49 -22 -22 -40
-44 -40 -49 0 -6 -9 -10 -20 -10 -16 0 -20 -7 -20 -30 0 -16 -4 -30 -9 -30 -5
0 -16 -18 -25 -40 -9 -22 -20 -40 -26 -40 -5 0 -10 -9 -10 -20 0 -12 -6 -31
-14 -43 -8 -12 -17 -41 -21 -64 -6 -38 -4 -45 21 -68 15 -14 39 -25 54 -25 15
0 44 -11 64 -25 20 -14 43 -25 51 -25 8 0 15 -4 15 -10 0 -14 87 -71 102 -65
32 12 42 -12 43 -96 l0 -81 -100 -34 c-79 -27 -110 -33 -145 -29 -63 8 -91 7
-122 -6 -18 -7 -45 -8 -75 -3 -27 4 -73 8 -103 9 -94 1 -162 24 -133 44 17 11
73 185 74 231 1 25 8 55 15 67 8 12 16 39 18 60 3 21 14 64 25 95 12 32 21 68
21 81 0 31 -33 97 -62 123 -23 21 -108 47 -157 47 -80 0 -100 -4 -105 -20 -3
-10 -37 -51 -76 -91 -38 -40 -77 -87 -86 -105 -9 -18 -24 -42 -34 -54 -15 -19
-15 -30 -4 -107 7 -48 16 -95 19 -106 9 -29 63 -79 103 -96 20 -8 39 -19 43
-25 3 -5 26 -11 50 -12 42 -3 109 -26 109 -37 0 -4 -12 -26 -28 -51 -15 -24
-38 -65 -51 -91 -13 -27 -25 -48 -26 -48 -2 0 -28 24 -59 54 -52 49 -61 54
-118 60 l-61 7 -36 -38 c-20 -21 -46 -53 -56 -71 -11 -17 -23 -32 -27 -32 -4
0 -8 -8 -8 -18 0 -10 -3 -22 -7 -26 -5 -4 -9 -62 -10 -129 -1 -67 -3 -162 -5
-212 -2 -82 4 -128 32 -253 13 -54 13 -230 1 -268 -5 -16 -12 -62 -15 -102 -3
-41 -8 -78 -11 -83 -8 -11 23 -78 48 -106 11 -13 21 -35 22 -50 2 -16 6 -55
10 -88 l7 -60 -63 -1 c-35 -1 -77 -4 -94 -7 -88 -17 -106 -19 -131 -13 -26 7
-26 8 -19 69 3 34 15 87 24 117 37 115 41 157 31 340 -13 234 -24 298 -76 455
-12 39 -26 85 -29 102 -6 30 8 93 27 118 4 6 11 38 17 70 5 33 20 80 32 105
12 24 26 78 31 119 5 41 13 81 17 90 9 16 29 96 50 196 6 28 9 66 7 85 -2 19
1 75 6 124 9 96 3 116 -29 95 -36 -22 -45 -49 -44 -134 1 -77 -1 -83 -18 -78
-22 6 -51 -30 -51 -63 0 -24 -59 -94 -79 -94 -7 0 -10 -4 -7 -9 3 -5 -3 -20
-14 -32 l-19 -24 -1 23 c0 12 6 38 14 57 8 19 17 57 21 86 4 28 15 84 25 123
10 39 22 116 26 171 4 55 8 105 9 110 0 6 9 9 20 8 11 -1 52 -5 90 -7 39 -3
92 -8 119 -11 60 -7 100 7 140 49 16 17 50 54 76 81 26 28 50 60 54 72 4 12
17 34 29 49 26 33 27 39 33 134 3 41 6 76 7 77 1 0 29 4 62 8 33 4 75 8 93 10
32 4 46 -15 22 -30 -5 -3 -10 -16 -10 -27 0 -12 -12 -36 -26 -55 -48 -63 -35
-153 22 -153 13 0 27 -7 30 -15 4 -8 14 -15 23 -15 9 -1 34 -9 56 -20 22 -11
54 -20 70 -20 17 0 44 -7 60 -16 17 -8 47 -16 69 -17 37 -2 40 1 77 58 22 33
42 67 46 75 3 8 13 19 20 23 8 5 26 33 40 63 14 30 45 75 69 100 24 25 44 49
44 54 0 5 20 8 45 6 31 -3 59 3 85 15 21 11 44 19 49 19 11 0 71 83 71 98 0 5
17 33 38 63 41 60 64 104 82 164 7 21 19 45 26 52 22 23 84 130 84 147 0 20
16 21 27 2 18 -31 210 -46 278 -22 45 16 44 15 81 115 32 87 44 138 35 146 -3
4 -6 12 -7 18 0 7 -2 20 -2 30 -1 9 -9 17 -17 17 -8 0 -23 9 -33 21 -14 14
-33 20 -61 21 -23 0 -44 4 -47 9 -3 5 -14 9 -24 9 -22 0 -26 -12 51 140 23 47
51 91 61 98 10 7 18 22 18 32 0 10 6 25 13 32 6 7 32 36 57 63 24 28 54 55 65
60 11 6 24 20 30 32 6 15 17 21 40 20 59 -1 109 12 185 50 75 39 77 39 106 22
16 -10 43 -18 59 -18 25 -1 33 4 42 30 15 39 11 46 -30 54 -17 4 -36 11 -42
15 -5 5 -27 10 -49 11 -30 3 -42 -1 -56 -19 -10 -12 -23 -22 -29 -22 -6 0 -19
-4 -29 -9 -52 -27 -72 -33 -86 -28 -8 3 -18 2 -21 -3 -8 -13 -72 -4 -100 14
-22 15 -75 108 -75 133 0 5 33 18 73 27 39 10 77 22 83 27 9 8 130 6 212 -4
18 -2 45 -14 60 -25 15 -12 39 -29 54 -37 26 -14 27 -14 33 15 8 35 -5 61 -40
84 -25 17 -26 19 -10 36 9 10 28 21 41 24 14 4 22 11 19 16 -3 6 -2 10 4 10 5
0 12 -9 16 -19z m-2320 -1985 c-9 -21 -18 -36 -21 -33 -3 2 3 23 13 46 10 23
19 38 21 33 1 -5 -5 -25 -13 -46z m15 -528 c0 -16 -3 -19 -11 -11 -6 6 -8 16
-5 22 11 17 16 13 16 -11z m1472 -283 c-2 -14 -8 -25 -13 -25 -12 0 -11 7 1
31 14 26 18 24 12 -6z m-1152 -236 c19 -5 62 -9 96 -9 65 0 69 -5 48 -55 -9
-23 -90 -132 -105 -140 -5 -4 -7 -11 -3 -16 3 -5 -6 -23 -20 -40 -31 -37 -32
-50 -5 -106 17 -36 21 -65 23 -181 3 -132 4 -139 34 -192 39 -71 60 -146 66
-241 4 -80 14 -107 51 -149 27 -31 66 -98 71 -123 2 -10 6 -27 9 -37 8 -24
-85 -56 -116 -40 -12 7 -63 10 -130 8 l-110 -3 6 45 c7 58 25 121 40 140 14
19 20 97 8 113 -26 35 -44 156 -58 377 -6 104 -15 131 -60 174 -41 41 -54 61
-94 149 -13 26 -29 47 -37 47 -8 0 -14 5 -14 11 0 11 68 79 80 79 4 0 12 10
17 23 6 13 37 60 69 105 49 68 62 81 79 75 11 -3 36 -10 55 -14z m-1065 -95
c-22 -34 -43 -108 -49 -169 -5 -71 -53 -105 -99 -71 -17 13 -17 16 7 67 41 86
63 122 103 161 45 43 62 48 38 12z m832 0 c-3 -3 -12 -4 -19 -1 -8 3 -5 6 6 6
11 1 17 -2 13 -5z"/>
<path d="M3840 4431 c-18 -5 -26 -15 -28 -34 -3 -23 2 -30 30 -41 18 -8 36
-12 40 -10 5 3 8 -4 8 -15 0 -11 -4 -23 -10 -26 -5 -3 -10 0 -10 8 0 22 -41
29 -67 11 -65 -42 30 -120 171 -138 32 -4 43 -1 66 23 25 25 28 32 20 65 -18
83 -75 138 -153 150 -9 1 -20 5 -23 9 -8 8 -9 8 -44 -2z m140 -156 c0 -9 -9
-15 -21 -15 -18 0 -19 2 -9 15 7 8 16 15 21 15 5 0 9 -7 9 -15z"/>
<path d="M3305 4211 c-28 -8 -85 -53 -85 -66 0 -7 -9 -20 -20 -30 -12 -11 -28
-34 -36 -51 -9 -18 -27 -45 -40 -59 -42 -46 -56 -82 -48 -131 5 -35 11 -45 30
-50 13 -3 24 -10 24 -15 0 -12 68 -9 93 3 31 16 67 84 67 128 0 45 3 49 73
122 49 52 59 87 35 121 -16 21 -66 36 -93 28z"/>
<path d="M2685 3240 c-28 -18 -115 -183 -115 -218 0 -10 -12 -41 -26 -68 -42
-81 -45 -97 -21 -146 37 -75 50 -87 105 -99 29 -6 52 -14 52 -19 0 -9 38 0 85
21 17 8 55 41 85 74 30 33 83 88 117 121 47 46 63 69 63 89 0 32 -29 85 -47
85 -7 0 -13 5 -13 12 0 13 -119 128 -133 128 -5 0 -20 9 -33 19 -30 24 -83 24
-119 1z"/>
</g>
</svg>
