<?xml version="1.0" standalone="no"?>
<!DOCTYPE svg PUBLIC "-//W3C//DTD SVG 20010904//EN"
 "http://www.w3.org/TR/2001/REC-SVG-20010904/DTD/svg10.dtd">
<svg version="1.0" xmlns="http://www.w3.org/2000/svg"
 width="543.000000pt" height="389.000000pt" viewBox="0 0 543.000000 389.000000"
 preserveAspectRatio="xMidYMid meet">
<metadata>
Created by potrace 1.16, written by Peter Selinger 2001-2019
</metadata>
<g transform="translate(0.000000,389.000000) scale(0.100000,-0.100000)"
fill="#000000" stroke="none">
<path d="M1615 3582 c-2 -2 -18 -6 -37 -8 -18 -3 -51 -11 -73 -19 -22 -7 -62
-16 -87 -18 -26 -3 -52 -8 -58 -12 -5 -3 -18 -8 -27 -10 -10 -2 -43 -13 -73
-25 -30 -12 -64 -24 -75 -27 -11 -3 -34 -16 -51 -29 -17 -13 -43 -25 -58 -28
-29 -5 -139 -65 -144 -78 -2 -4 -9 -8 -15 -8 -15 0 -177 -137 -177 -150 0 -6
-7 -10 -15 -10 -8 0 -15 -5 -15 -11 0 -7 -15 -26 -33 -43 -18 -17 -46 -55 -63
-83 -16 -29 -32 -53 -36 -53 -5 0 -8 -6 -8 -13 0 -18 -29 -77 -47 -99 -8 -9
-12 -22 -8 -27 3 -6 2 -11 -3 -11 -40 0 -68 -380 -49 -680 13 -199 24 -271 92
-600 8 -36 21 -85 29 -109 9 -24 16 -55 16 -70 0 -14 19 -78 41 -141 22 -63
45 -131 51 -150 11 -37 32 -89 53 -130 7 -14 18 -43 25 -65 7 -22 27 -69 45
-105 18 -36 41 -83 50 -105 30 -71 70 -150 78 -153 4 -2 7 -10 7 -18 0 -8 4
-13 10 -12 5 2 20 -10 34 -27 21 -26 26 -28 48 -18 13 6 76 11 139 12 62 1
137 4 164 7 28 3 70 7 95 9 66 6 183 21 224 30 29 6 127 13 281 21 118 6 131
8 150 29 11 12 29 25 40 28 45 13 157 22 182 15 4 -1 18 1 30 6 18 6 22 14 19
39 -2 29 -29 84 -55 114 -6 7 -11 19 -11 28 0 8 -4 15 -10 15 -5 0 -10 10 -10
22 0 19 -99 126 -156 168 -33 24 -84 50 -99 50 -12 0 -35 96 -35 148 0 11 -4
24 -10 27 -5 3 -10 12 -10 20 0 11 14 14 54 14 30 -1 60 2 66 6 10 6 74 18
165 31 23 3 53 0 70 -7 17 -7 35 -13 41 -14 10 0 116 -105 107 -105 -2 0 12
-14 31 -31 20 -17 52 -54 73 -82 20 -29 40 -54 43 -57 3 -3 14 -22 23 -42 10
-20 28 -45 40 -55 28 -22 67 -85 67 -107 0 -9 5 -16 10 -16 6 0 9 -3 8 -7 -5
-18 15 -86 34 -118 13 -23 19 -46 16 -66 -3 -21 0 -33 12 -39 17 -9 184 -7
345 5 119 9 135 13 136 38 2 41 -3 62 -22 95 -10 18 -19 42 -19 52 0 10 -4 21
-9 25 -12 7 -21 68 -25 175 -4 92 16 178 38 162 6 -5 23 -12 38 -16 41 -9 140
-113 159 -166 49 -134 88 -268 83 -287 -4 -15 3 -30 23 -50 l28 -29 223 1
c123 0 226 -3 229 -8 7 -11 47 32 50 54 2 10 -2 21 -7 24 -6 3 -10 18 -10 33
0 15 -6 36 -14 47 -7 11 -14 23 -15 28 -2 17 -35 128 -62 211 -17 48 -28 90
-26 93 3 2 49 -9 103 -26 100 -30 372 -86 474 -96 122 -13 219 -13 280 0 120
24 283 96 310 135 8 12 21 28 28 36 6 7 12 15 12 19 0 3 10 27 22 53 30 66 35
277 9 361 -10 31 -24 81 -31 111 -12 51 -76 194 -100 223 -6 6 -26 33 -46 59
-19 27 -48 55 -64 63 -17 9 -30 19 -30 23 0 4 -19 27 -41 51 l-42 43 17 34 c9
19 16 46 16 59 0 14 4 25 8 25 10 0 -4 143 -19 188 -38 115 -94 162 -204 169
-66 4 -72 2 -102 -24 -17 -15 -48 -41 -67 -56 -20 -15 -36 -34 -36 -42 0 -8
-4 -15 -9 -15 -5 0 -11 -9 -14 -20 -5 -18 -10 -17 -69 22 -34 24 -88 67 -118
97 -50 49 -114 101 -125 101 -3 0 -13 6 -22 14 -47 38 -156 117 -176 127 -12
7 -24 15 -27 18 -3 3 -21 18 -40 32 -19 15 -46 37 -60 49 -14 12 -38 29 -55
37 -16 9 -67 40 -112 69 -45 30 -87 54 -92 54 -6 0 -11 5 -11 10 0 6 -5 10
-11 10 -6 0 -43 19 -82 42 -40 23 -106 59 -147 80 -41 21 -93 50 -115 63 -22
14 -56 32 -75 41 -19 9 -72 33 -116 55 -45 21 -87 39 -94 39 -6 0 -25 9 -41
20 -29 22 -104 47 -199 70 -30 7 -59 15 -65 19 -10 5 -115 36 -235 67 -111 29
-197 46 -260 51 -68 7 -479 10 -485 5z m485 -86 c30 -2 73 -8 95 -14 22 -6 51
-13 65 -15 51 -9 227 -57 303 -81 43 -14 82 -26 87 -26 5 0 21 -5 37 -12 15
-6 33 -12 38 -13 28 -6 105 -36 140 -54 21 -12 44 -21 51 -21 6 0 27 -11 46
-23 19 -13 57 -32 84 -42 27 -10 72 -33 99 -50 28 -18 69 -40 90 -50 52 -25
219 -116 225 -124 3 -3 30 -18 60 -33 53 -25 83 -45 119 -78 9 -9 35 -25 57
-37 38 -19 182 -120 194 -134 3 -3 20 -14 38 -23 17 -9 32 -21 32 -26 0 -6 5
-10 11 -10 14 0 155 -104 189 -140 23 -24 125 -103 180 -140 13 -8 28 -21 34
-28 6 -7 17 -19 24 -27 6 -7 12 -19 12 -25 0 -7 7 -9 16 -6 9 3 23 6 32 6 30
1 53 27 56 65 4 42 32 76 93 112 50 29 87 25 134 -14 66 -56 100 -200 63 -269
-10 -19 -21 -34 -25 -34 -8 0 -29 -47 -29 -66 0 -13 79 -105 119 -138 43 -35
131 -131 131 -141 0 -8 4 -15 8 -17 16 -6 72 -127 78 -170 4 -23 10 -47 14
-53 3 -5 12 -29 19 -52 l12 -43 -77 -75 c-71 -71 -76 -78 -70 -108 4 -18 10
-62 13 -98 l5 -66 -32 -6 c-17 -4 -41 -2 -52 4 -20 11 -20 12 -3 22 15 8 16
12 4 21 -8 6 -14 22 -14 36 0 24 -3 25 -55 25 l-55 0 1 -43 c1 -34 7 -49 32
-73 18 -17 32 -35 32 -39 0 -10 48 -28 85 -33 l30 -3 -30 -8 c-16 -4 -46 -15
-65 -24 -65 -30 -278 -21 -460 20 -25 5 -60 9 -79 9 -18 -1 -39 4 -46 9 -7 6
-35 13 -62 16 -59 7 -195 45 -294 83 -41 16 -157 56 -259 90 -160 54 -193 62
-250 60 -66 -2 -116 -14 -137 -33 -6 -6 -28 -22 -47 -36 -24 -17 -42 -43 -57
-80 -12 -30 -26 -59 -30 -65 -7 -10 -4 -237 5 -285 11 -66 16 -83 24 -93 5 -7
12 -22 15 -34 4 -20 0 -23 -41 -29 -26 -3 -96 -6 -155 -7 l-109 -2 -13 35
c-53 144 -93 228 -122 261 -18 20 -44 58 -58 83 -30 57 -85 127 -183 235 -58
63 -91 89 -132 108 -81 35 -121 38 -245 13 -128 -26 -321 -30 -370 -9 -16 7
-34 13 -40 14 -32 4 -57 20 -71 47 -46 90 -67 205 -40 227 38 31 5 71 -59 71
-37 0 -48 -32 -40 -114 8 -83 32 -163 80 -261 28 -58 67 -170 66 -190 0 -2 5
-19 10 -37 6 -18 12 -77 14 -132 3 -82 7 -101 23 -116 11 -11 22 -16 26 -13 7
7 52 14 92 14 16 0 60 -14 97 -32 50 -23 68 -37 72 -55 3 -13 7 -35 10 -48 3
-14 0 -28 -5 -31 -6 -4 -8 -11 -4 -16 3 -5 10 -7 15 -4 5 4 9 -8 9 -24 l0 -31
-72 -2 c-114 -3 -243 -14 -344 -29 -33 -5 -85 -12 -115 -15 -30 -3 -57 -8 -61
-10 -4 -2 -9 0 -13 6 -4 6 -12 7 -18 3 -20 -13 -37 -14 -209 -17 -166 -4 -168
-3 -180 19 -46 83 -178 354 -181 370 -1 11 -19 55 -40 98 -20 43 -37 84 -37
93 0 8 -6 25 -14 37 -8 12 -17 38 -21 57 -3 19 -17 71 -30 115 -12 44 -25 91
-28 105 -3 14 -12 50 -20 80 -8 30 -18 75 -21 100 -4 24 -11 49 -16 55 -4 5
-14 48 -20 93 -6 46 -15 95 -20 108 -6 14 -9 28 -8 32 1 4 -2 52 -7 107 -5 55
-8 118 -8 140 0 22 -3 45 -7 50 -9 12 -6 311 4 345 4 14 8 45 10 70 5 68 18
130 27 130 4 0 7 13 7 29 -1 15 2 33 6 40 4 6 9 21 11 33 3 12 9 24 14 28 6 3
18 23 27 45 18 44 126 185 176 230 57 52 135 115 143 115 4 0 19 8 33 18 15
10 61 33 102 51 41 18 77 36 80 40 8 11 160 68 215 80 28 6 88 20 135 30 47
11 118 20 159 20 41 0 76 3 79 5 4 5 178 0 332 -8z m2974 -2221 c-4 -8 -8 -15
-10 -15 -2 0 -4 7 -4 15 0 8 4 15 10 15 5 0 7 -7 4 -15z m-3242 -37 c35 1 39
-1 57 -44 11 -24 21 -65 22 -90 2 -25 6 -47 10 -50 4 -2 5 -13 2 -24 -9 -36
22 -67 89 -88 67 -20 171 -99 183 -137 10 -33 28 -68 48 -94 11 -15 14 -28 8
-34 -11 -11 -111 -16 -111 -5 0 4 -6 8 -14 8 -13 0 -26 41 -26 83 0 25 -46 87
-65 87 -8 0 -18 6 -22 14 -9 16 -105 46 -178 55 l-50 6 -3 65 c-3 57 -24 161
-48 239 -7 23 -6 24 27 16 19 -5 51 -8 71 -7z m3293 -65 c-9 -37 -18 -20 -9
19 4 18 9 27 11 20 3 -7 2 -24 -2 -39z m-1595 3 c14 -3 73 -21 132 -41 59 -19
115 -35 123 -35 8 0 15 -4 15 -10 0 -5 12 -10 26 -10 14 0 22 -4 19 -10 -3 -5
5 -25 19 -43 14 -19 31 -49 37 -68 14 -45 22 -65 48 -120 11 -25 21 -58 21
-71 0 -14 7 -42 15 -61 8 -20 15 -47 15 -61 0 -22 -4 -24 -47 -23 -27 0 -52
-1 -58 -3 -5 -1 -63 -2 -127 -1 -98 1 -118 4 -118 16 0 8 -5 15 -12 15 -6 0
-9 2 -6 6 3 3 -5 35 -19 72 -13 37 -35 99 -47 139 -13 39 -34 89 -46 110 -29
48 -155 173 -175 173 -27 0 -16 17 18 28 30 10 111 9 167 -2z"/>
<path d="M4025 2161 c-46 -15 -86 -49 -107 -88 -13 -24 -26 -43 -30 -43 -11 0
-29 -65 -34 -123 -4 -50 -2 -55 21 -65 14 -7 30 -12 35 -12 14 0 24 42 21 87
-2 29 3 51 16 70 11 16 22 36 26 45 9 27 71 51 109 43 87 -19 115 -58 128
-178 8 -72 21 -97 51 -97 43 0 50 61 20 184 -18 73 -27 94 -54 117 -17 16 -39
29 -47 29 -8 0 -33 9 -55 20 -41 20 -66 23 -100 11z"/>
<path d="M4500 1782 c-8 -3 -25 -16 -37 -28 -18 -19 -20 -29 -13 -54 13 -44
33 -60 79 -60 44 0 56 18 52 74 -3 54 -37 82 -81 68z"/>
</g>
</svg>
