<?xml version="1.0" standalone="no"?>
<!DOCTYPE svg PUBLIC "-//W3C//DTD SVG 20010904//EN"
 "http://www.w3.org/TR/2001/REC-SVG-20010904/DTD/svg10.dtd">
<svg version="1.0" xmlns="http://www.w3.org/2000/svg"
 width="529.000000pt" height="381.000000pt" viewBox="0 0 529.000000 381.000000"
 preserveAspectRatio="xMidYMid meet">
<metadata>
Created by potrace 1.16, written by Peter Selinger 2001-2019
</metadata>
<g transform="translate(0.000000,381.000000) scale(0.100000,-0.100000)"
fill="#000000" stroke="none">
<path d="M798 2219 c-10 -5 -18 -16 -18 -23 0 -15 -74 -86 -89 -86 -6 0 -31
25 -57 55 -26 30 -55 55 -64 55 -16 0 -50 -29 -50 -43 0 -3 -13 -19 -30 -35
-16 -17 -30 -27 -30 -24 0 4 -9 -11 -20 -33 -11 -22 -31 -52 -45 -67 -14 -15
-25 -31 -25 -36 0 -5 -9 -17 -20 -27 -11 -10 -37 -43 -57 -74 -20 -31 -43 -62
-50 -69 -27 -27 -11 -72 25 -72 26 0 94 62 91 84 -3 23 2 32 31 66 44 51 50
58 50 66 0 6 25 38 92 115 l36 43 40 -41 c31 -32 39 -46 35 -67 -3 -14 -9 -26
-14 -26 -5 0 -9 -6 -9 -14 0 -8 -15 -31 -34 -50 -18 -20 -31 -36 -29 -36 3 0
-11 -15 -30 -34 -44 -42 -53 -70 -34 -99 16 -24 57 -31 57 -10 0 7 5 13 10 13
6 0 10 6 10 13 0 6 21 35 45 62 25 28 48 58 51 68 3 9 10 17 15 17 5 0 9 6 9
13 0 6 4 18 9 26 7 11 20 2 60 -40 28 -30 51 -58 51 -63 0 -6 -8 -19 -19 -30
-27 -31 -77 -133 -97 -201 -10 -33 -20 -62 -23 -65 -3 -3 -6 -9 -6 -15 -4 -71
-24 -276 -29 -284 -2 -3 -7 -37 -10 -76 -3 -38 -11 -85 -17 -104 -15 -44 -7
-112 16 -139 10 -11 22 -19 26 -16 4 2 40 6 81 8 65 4 86 11 198 67 210 104
300 162 398 256 22 22 27 15 29 -41 1 -32 10 -70 23 -93 11 -21 20 -40 20 -44
0 -3 -13 -20 -29 -38 l-29 -32 -64 34 c-52 28 -69 33 -98 26 -18 -4 -40 -16
-47 -26 -18 -25 -37 -45 -59 -64 -10 -9 -46 -51 -79 -93 -51 -66 -151 -175
-307 -338 -21 -21 -38 -44 -38 -49 0 -6 -9 -22 -20 -37 l-20 -25 21 -23 21
-23 49 31 c27 16 61 48 76 70 16 23 55 69 88 103 58 60 87 92 163 184 21 24
62 71 93 104 53 56 59 59 91 53 19 -3 45 -16 58 -28 14 -13 38 -23 61 -24 20
-1 41 -4 47 -8 12 -7 42 3 42 15 0 7 25 33 70 73 25 21 48 26 80 14 19 -6 29
-16 26 -23 -2 -8 2 -16 10 -19 19 -7 18 -27 -3 -76 -17 -39 -19 -41 -58 -37
-58 7 -188 27 -205 33 -8 3 -15 5 -15 4 0 -1 -13 4 -29 10 -16 6 -53 13 -82
16 -66 6 -86 -12 -91 -82 -4 -71 -61 -237 -94 -272 -10 -12 -19 -28 -19 -37 0
-8 -4 -15 -10 -15 -5 0 -10 -8 -10 -17 0 -24 -74 -177 -105 -218 -14 -17 -25
-42 -25 -54 0 -26 25 -38 45 -21 12 10 15 10 16 -1 0 -8 5 -4 11 9 7 13 20 22
33 22 39 0 63 32 94 128 17 51 31 98 31 103 0 6 18 48 40 94 21 47 53 117 70
157 44 105 41 103 81 85 19 -8 88 -22 153 -31 65 -9 124 -20 130 -25 20 -15
66 -22 86 -11 10 5 22 20 25 32 3 13 18 53 33 90 l27 67 50 -6 c27 -3 59 -11
70 -16 11 -6 47 -15 80 -19 75 -10 73 -10 113 -2 31 6 39 -1 32 -31 -1 -5 -4
-41 -7 -78 -7 -89 6 -106 86 -107 31 0 63 -1 73 -1 9 0 57 7 108 15 50 9 101
14 113 11 12 -3 67 -7 122 -9 96 -3 143 -16 205 -56 16 -11 60 -32 125 -60 22
-10 94 -44 160 -75 66 -32 143 -67 170 -77 128 -49 275 -101 320 -114 60 -17
169 -70 208 -101 l28 -23 35 26 c27 21 34 33 34 60 0 32 -3 35 -92 77 -51 24
-115 50 -143 56 -27 7 -64 21 -81 32 -17 10 -42 19 -55 19 -13 1 -58 14 -99
30 -41 17 -78 30 -82 30 -3 0 -28 10 -55 22 -26 11 -54 22 -61 24 -7 1 -34 16
-61 33 -26 17 -53 31 -59 31 -11 0 -72 27 -117 53 -11 6 -58 30 -103 54 -93
49 -162 91 -162 98 0 3 9 1 20 -5 34 -18 223 -26 400 -16 47 2 141 7 210 10
207 10 289 16 425 32 153 17 152 17 234 39 35 9 69 14 76 11 7 -2 17 0 22 5
15 15 291 17 319 2 14 -6 22 -8 19 -3 -3 5 9 8 27 8 72 -1 84 9 94 79 6 49 5
53 -17 62 -13 5 -37 21 -54 35 -16 15 -56 46 -87 69 -32 23 -63 52 -70 65 -6
13 -37 44 -67 69 -71 59 -80 69 -138 140 -26 32 -60 71 -75 86 -32 33 -28 40
36 70 l39 18 66 -70 c36 -38 84 -78 107 -89 23 -12 67 -45 99 -75 31 -30 67
-60 80 -67 32 -17 113 -88 155 -135 19 -21 51 -53 70 -70 19 -16 61 -55 95
-86 33 -31 78 -69 101 -85 64 -46 104 -82 104 -93 0 -6 17 -20 38 -31 59 -33
116 -68 127 -78 6 -5 23 -17 39 -27 26 -17 29 -17 40 -3 8 11 21 14 39 11 l28
-6 -3 63 -3 62 -74 39 c-41 22 -88 51 -106 65 -17 13 -41 24 -51 24 -27 0 -94
47 -94 66 0 8 -4 12 -10 9 -5 -3 -10 -1 -10 4 0 6 -6 11 -13 11 -8 0 -39 21
-69 48 -31 26 -70 58 -87 71 -17 13 -31 28 -31 35 0 14 -67 77 -147 140 -35
27 -63 52 -63 56 0 4 -10 11 -22 17 -22 10 -107 122 -158 207 l-24 39 70 -48
c38 -26 89 -66 114 -89 25 -23 70 -61 100 -86 97 -81 194 -166 252 -221 67
-64 125 -112 141 -118 7 -2 29 -15 50 -28 l37 -23 31 31 c18 18 28 37 25 46
-3 8 -6 21 -6 29 0 8 -6 14 -12 14 -7 0 -29 15 -48 33 -19 19 -46 40 -60 47
-26 14 -79 58 -210 175 -43 39 -101 86 -129 105 -28 19 -79 61 -113 93 -62 60
-128 107 -149 107 -6 0 -24 11 -41 25 -16 14 -36 25 -43 25 -7 0 -15 3 -17 8
-6 13 -122 108 -178 145 -75 50 -80 55 -80 78 0 22 -44 72 -55 61 -4 -4 -10
-7 -13 -7 -9 -1 -129 -82 -204 -138 -31 -23 -78 -57 -104 -76 l-47 -34 -44 22
c-24 11 -51 21 -61 21 -10 0 -26 6 -37 14 -18 12 -56 18 -189 32 -22 2 -41 6
-43 8 -4 3 -57 -9 -180 -42 -62 -17 -146 -59 -186 -93 -7 -5 -32 -23 -57 -39
-25 -16 -67 -49 -93 -75 -55 -53 -65 -51 -98 21 -30 62 -121 149 -198 186 -36
18 -68 36 -71 39 -3 3 -39 11 -80 19 -167 29 -395 11 -515 -41 -75 -33 -188
-98 -193 -111 -8 -19 -20 -5 -31 35 -6 23 -27 59 -46 80 -40 42 -130 108 -144
105 -5 -2 -22 9 -39 24 -49 43 -148 54 -269 29 -40 -8 -47 -6 -45 10 1 4 -10
17 -23 29 -14 13 -25 29 -25 37 0 7 -4 13 -8 13 -4 0 -15 13 -24 28 -18 30
-106 122 -117 122 -3 0 -14 -5 -23 -11z m42 -122 c20 -15 100 -130 100 -143 0
-11 -48 -49 -63 -49 -5 0 -15 8 -21 18 -6 10 -30 38 -53 61 -24 24 -43 50 -43
57 0 15 46 69 58 69 4 0 14 -6 22 -13z m438 -240 c10 -10 26 -17 35 -17 9 0
17 -7 17 -15 0 -9 18 -24 40 -34 101 -45 138 -165 71 -225 -11 -11 -21 -25
-21 -33 0 -34 -95 -143 -190 -219 -51 -41 -207 -124 -232 -124 -6 0 -32 -13
-57 -29 -25 -17 -69 -40 -96 -52 -28 -12 -57 -27 -65 -34 -8 -8 -27 -17 -42
-20 -32 -8 -33 -5 -18 77 6 31 19 118 29 194 11 77 24 159 31 184 15 60 87
202 119 237 40 43 124 98 181 119 50 18 175 12 198 -9z m2824 -134 c17 -18 35
-33 39 -33 5 0 9 -5 9 -10 0 -7 -13 -8 -33 -5 -22 4 -48 1 -73 -10 -21 -9 -72
-27 -111 -40 l-73 -23 -47 35 c-27 19 -59 39 -73 44 l-25 10 25 19 c14 11 29
20 33 20 5 0 41 21 80 46 40 26 86 53 102 60 29 12 31 11 73 -34 24 -26 58
-62 74 -79z m-1752 15 c102 -49 173 -120 225 -223 28 -56 32 -60 61 -57 21 2
33 -2 37 -13 13 -33 100 -6 102 33 2 28 21 53 51 67 20 9 43 24 53 34 9 9 78
47 152 84 146 73 210 90 286 76 25 -5 49 -6 54 -3 11 7 79 -17 79 -28 0 -4 6
-8 14 -8 8 0 21 -6 28 -13 7 -7 40 -30 73 -51 33 -22 77 -53 98 -69 l39 -30
-44 -27 c-24 -15 -70 -37 -103 -49 -33 -12 -73 -29 -90 -36 -16 -7 -57 -21
-90 -30 -33 -10 -97 -35 -142 -56 -45 -21 -120 -57 -168 -79 -47 -22 -90 -40
-95 -40 -10 0 -91 -43 -198 -107 -41 -24 -77 -43 -81 -43 -12 0 -41 -40 -41
-56 0 -28 20 -54 43 -54 20 0 46 14 82 42 27 22 85 57 85 51 0 -3 9 2 19 11
11 10 39 23 63 31 23 7 75 26 113 40 137 53 200 74 223 75 13 0 62 16 110 35
96 39 99 41 192 84 36 16 102 45 147 65 l83 35 62 -77 c60 -73 109 -124 244
-253 88 -84 90 -87 57 -94 -16 -4 -48 -11 -73 -16 -25 -6 -65 -12 -90 -15 -50
-4 -193 -27 -315 -49 -44 -9 -141 -22 -215 -30 -74 -8 -178 -21 -230 -30 -108
-17 -357 -24 -380 -10 -8 5 -19 10 -25 10 -90 7 -217 61 -275 116 -58 55 -62
79 -22 117 67 63 62 135 -7 126 -37 -5 -71 -29 -71 -50 0 -17 -126 -144 -143
-144 -7 0 -17 -3 -21 -7 -4 -5 -11 -8 -14 -9 -4 0 -24 -8 -44 -17 -63 -29 -72
-24 -64 31 14 91 15 107 9 130 -3 12 -13 22 -22 22 -28 0 -93 -26 -102 -41 -5
-8 -6 -51 -2 -96 l6 -83 -81 0 c-89 0 -223 28 -280 58 -98 52 -122 66 -148 88
-15 13 -33 24 -41 24 -7 0 -13 7 -13 15 0 8 -9 15 -20 15 -22 0 -24 9 -22 93
1 26 8 58 17 70 8 12 15 31 15 42 0 29 52 108 105 160 25 24 45 48 45 55 0 27
116 102 235 150 87 35 170 49 285 46 98 -2 110 -5 180 -38z m120 -815 c38 -36
132 -103 146 -103 6 0 22 -9 35 -21 13 -11 18 -18 11 -14 -7 4 -19 2 -26 -4
-15 -13 -76 -20 -206 -22 -52 -1 -102 -5 -110 -9 -8 -4 -34 -10 -56 -13 l-42
-5 -5 42 c-3 22 -9 50 -12 62 -5 17 0 24 25 34 18 7 38 13 46 13 8 0 14 4 14
7 0 4 14 10 31 14 17 3 44 17 60 31 33 27 51 25 89 -12z m1955 27 c3 -5 1 -10
-4 -10 -6 0 -11 5 -11 10 0 6 2 10 4 10 3 0 8 -4 11 -10z"/>
</g>
</svg>
