<?xml version="1.0" standalone="no"?>
<!DOCTYPE svg PUBLIC "-//W3C//DTD SVG 20010904//EN"
 "http://www.w3.org/TR/2001/REC-SVG-20010904/DTD/svg10.dtd">
<svg version="1.0" xmlns="http://www.w3.org/2000/svg"
 width="529.000000pt" height="469.000000pt" viewBox="0 0 529.000000 469.000000"
 preserveAspectRatio="xMidYMid meet">
<metadata>
Created by potrace 1.16, written by Peter Selinger 2001-2019
</metadata>
<g transform="translate(0.000000,469.000000) scale(0.100000,-0.100000)"
fill="#000000" stroke="none">
<path d="M3640 4450 c0 -3 -11 -17 -24 -31 -13 -14 -26 -42 -29 -63 -3 -20
-22 -71 -43 -113 -22 -43 -39 -80 -38 -83 1 -3 -8 -21 -20 -40 -12 -19 -28
-47 -35 -62 -8 -15 -23 -30 -34 -34 -20 -6 -57 -35 -93 -71 -12 -13 -24 -23
-28 -23 -3 0 -32 -20 -63 -44 -57 -43 -144 -95 -193 -117 -14 -6 -48 -26 -77
-45 -28 -19 -56 -34 -62 -34 -6 0 -11 -4 -11 -8 0 -4 -14 -16 -30 -26 -30 -17
-114 -119 -115 -140 -1 -6 -7 -24 -13 -40 -9 -21 -17 -26 -30 -21 -38 15 -163
21 -197 9 -39 -13 -45 -10 -45 22 0 12 -6 34 -14 48 -19 38 -86 109 -118 125
-15 8 -36 22 -45 31 -10 9 -40 22 -68 30 -44 12 -112 50 -89 50 5 0 -14 15
-41 33 -33 21 -57 46 -70 73 -11 23 -28 51 -37 61 -10 11 -18 25 -18 31 0 6
-11 23 -24 39 -13 15 -31 44 -41 63 -10 19 -31 47 -47 61 -26 22 -28 27 -14
38 20 17 20 60 1 97 -8 16 -15 46 -15 66 0 51 -13 81 -44 102 -30 19 -36 17
-96 -38 -38 -34 -43 -44 -42 -77 2 -40 23 -88 54 -124 10 -11 36 -41 58 -66
22 -25 40 -51 40 -57 0 -6 9 -14 20 -17 11 -3 20 -11 20 -16 0 -5 10 -20 21
-32 12 -12 28 -38 36 -57 8 -19 26 -50 40 -68 14 -18 26 -39 27 -45 7 -30 20
-46 52 -63 19 -10 34 -22 34 -26 0 -5 5 -8 11 -8 7 0 21 -10 33 -23 26 -28 65
-50 129 -73 26 -9 47 -21 47 -25 0 -5 7 -9 15 -9 8 0 36 -20 61 -44 48 -47 75
-109 55 -129 -6 -6 -11 -18 -11 -28 0 -9 -22 -37 -49 -62 -32 -30 -60 -70 -81
-115 -27 -59 -31 -78 -28 -129 3 -32 7 -63 10 -69 3 -5 8 -21 12 -36 3 -14 24
-45 46 -67 23 -23 36 -41 30 -41 -5 0 -10 -8 -10 -17 0 -13 -3 -14 -8 -6 -4 7
-18 11 -29 8 -12 -2 -33 5 -47 16 -13 10 -29 19 -34 19 -6 0 -14 9 -17 20 -3
11 -10 20 -14 20 -4 0 -23 29 -40 64 -18 35 -46 78 -62 96 -16 17 -38 49 -49
70 -11 22 -41 55 -67 75 -26 20 -58 55 -72 78 -13 23 -29 45 -35 49 -6 4 -7 8
-2 8 11 0 -31 31 -68 50 -16 8 -36 26 -45 40 -9 14 -24 34 -33 44 -10 11 -18
23 -18 28 0 4 -9 8 -20 8 -12 0 -25 10 -31 23 -6 13 -36 37 -67 53 -52 27
-156 85 -273 155 -26 15 -70 32 -99 38 -29 6 -64 19 -79 30 -14 10 -48 24 -76
31 -27 7 -57 19 -66 27 -9 8 -26 15 -38 16 -11 1 -21 5 -21 9 0 4 -6 8 -13 8
-7 0 -51 15 -97 34 -139 56 -321 64 -423 19 -91 -40 -102 -48 -147 -119 -40
-60 -42 -69 -43 -138 0 -78 13 -118 55 -168 29 -33 150 -124 177 -133 12 -3
21 -11 21 -17 0 -22 -52 -79 -90 -98 -40 -20 -42 -25 -65 -122 -4 -15 -2 -43
5 -62 10 -31 22 -41 84 -71 40 -19 78 -35 84 -35 6 0 20 -12 31 -26 26 -33 20
-67 -19 -109 -16 -16 -41 -56 -56 -88 -24 -52 -26 -66 -21 -136 3 -43 10 -88
16 -100 12 -22 55 -44 112 -56 52 -12 87 -42 81 -71 -2 -13 -7 -24 -11 -24 -3
0 -5 -20 -3 -46 3 -31 -1 -50 -12 -63 -19 -21 -45 -142 -51 -234 -4 -66 -1
-81 34 -157 8 -19 15 -39 16 -43 0 -5 15 -24 33 -42 35 -34 77 -47 131 -40
l30 4 -26 -47 c-14 -25 -36 -64 -49 -87 -42 -73 -88 -174 -84 -184 1 -2 -3 -7
-8 -10 -13 -8 -53 -99 -87 -196 -15 -44 -31 -84 -35 -90 -8 -10 -39 -114 -44
-150 -2 -11 -5 -20 -6 -20 -7 0 -10 -61 -10 -185 0 -150 7 -174 81 -273 39
-52 126 -147 135 -147 3 0 15 -9 27 -21 43 -41 103 -77 172 -103 39 -15 79
-31 90 -36 43 -18 160 -29 205 -19 25 5 61 12 80 15 19 4 62 21 95 40 33 19
84 46 113 60 29 15 80 53 115 85 34 32 85 70 113 84 43 22 214 181 214 200 0
3 13 20 30 38 70 76 182 232 227 318 27 52 69 128 93 169 23 41 47 89 52 107
5 18 13 33 17 33 5 0 12 20 15 45 4 25 13 51 20 58 8 7 17 28 21 46 5 25 10
30 16 20 5 -8 9 -26 9 -40 0 -15 12 -78 26 -140 14 -63 30 -139 34 -169 5 -30
15 -82 24 -115 8 -33 33 -132 54 -221 22 -88 50 -182 62 -210 13 -27 31 -67
41 -89 33 -74 85 -116 171 -139 29 -8 69 -20 88 -25 104 -32 175 1 237 111
104 181 157 476 151 836 -2 106 -2 192 -1 192 0 0 15 -35 33 -77 47 -116 81
-176 148 -253 7 -8 26 -33 43 -55 17 -22 45 -57 62 -78 17 -21 67 -91 110
-155 101 -149 269 -313 345 -336 12 -4 22 -12 22 -17 0 -5 5 -9 11 -9 6 0 39
-25 72 -55 80 -71 161 -104 289 -118 75 -8 107 -7 135 2 21 7 40 11 43 10 3
-2 14 4 25 13 11 10 45 38 77 63 48 39 58 54 68 95 6 27 18 54 26 61 8 6 14
17 14 23 0 6 18 29 39 51 30 32 40 52 45 91 4 27 9 63 12 79 5 34 12 121 18
213 2 35 -1 82 -6 105 -15 64 -17 79 -23 124 -3 23 -9 52 -14 66 -5 13 -13 58
-17 98 -3 41 -19 113 -34 160 -15 48 -31 102 -35 120 -7 31 -21 65 -46 109 -9
15 -25 52 -34 78 -2 6 -14 12 -25 12 -11 0 -20 5 -20 10 0 6 4 10 9 10 16 0
99 80 143 139 24 31 45 58 48 61 6 5 48 93 73 150 8 19 18 59 22 88 6 47 5 55
-16 72 -12 11 -26 20 -30 20 -20 0 -29 40 -18 82 6 24 12 51 13 61 1 10 18 37
37 60 20 23 44 56 54 72 10 17 27 39 37 51 12 13 19 39 21 70 2 46 -1 54 -46
106 -34 40 -45 61 -41 74 9 25 97 145 125 169 57 52 80 195 39 248 -11 14 -20
28 -20 31 0 3 -20 25 -45 49 -57 57 -58 94 -4 148 10 10 19 24 19 30 0 6 20
31 45 56 25 24 45 48 45 53 0 5 14 30 32 56 28 43 32 57 35 128 1 49 -4 106
-13 143 -9 34 -13 67 -10 72 10 15 -4 39 -26 44 -11 3 -17 10 -13 16 3 7 -3
11 -17 12 -13 0 -32 2 -43 4 -92 13 -143 15 -188 6 -29 -6 -69 -12 -89 -14
-21 -3 -44 -9 -51 -15 -7 -6 -38 -18 -68 -26 -56 -14 -67 -19 -234 -97 -55
-25 -130 -59 -167 -74 -38 -15 -68 -31 -68 -36 0 -5 -5 -9 -10 -9 -10 0 -185
-109 -328 -202 -31 -21 -68 -43 -80 -48 -39 -17 -163 -100 -223 -149 -31 -25
-94 -75 -140 -111 -88 -68 -108 -90 -213 -235 -36 -49 -70 -95 -75 -101 -5 -6
-12 -20 -15 -32 -4 -12 -12 -22 -17 -22 -5 0 -9 -5 -9 -11 0 -10 -75 -125 -95
-146 -7 -6 -18 -25 -25 -43 -12 -28 -16 -30 -48 -25 -44 7 -75 33 -66 54 42
98 61 229 39 271 -17 33 -90 100 -110 100 -10 0 -15 9 -15 27 0 43 85 183 112
183 4 0 17 8 28 18 11 9 24 17 28 16 4 0 15 10 25 23 10 13 22 21 27 18 5 -3
12 0 15 6 4 6 28 19 53 30 24 11 63 32 86 47 124 84 194 134 218 155 14 12 54
43 87 67 44 32 61 51 61 67 0 13 5 23 10 23 6 0 10 6 10 14 0 13 64 99 113
151 10 11 26 37 34 58 8 20 18 37 22 37 22 0 39 82 22 108 -8 13 -91 24 -91
12z m-1890 -165 c0 -39 0 -39 -16 -17 -11 15 -13 32 -9 54 9 41 25 18 25 -37z
m3220 2 c0 -5 6 -5 13 1 27 23 127 -13 110 -40 -2 -5 1 -15 7 -23 10 -12 19
-81 23 -177 1 -39 -33 -100 -118 -208 -41 -52 -82 -110 -90 -127 -24 -50 -6
-99 65 -177 56 -62 60 -70 60 -114 0 -52 -16 -83 -75 -147 -39 -42 -93 -122
-112 -166 -13 -30 0 -64 42 -113 23 -27 27 -34 24 -52 0 -4 5 -10 11 -14 9 -5
7 -16 -5 -41 -10 -19 -21 -36 -24 -39 -3 -3 -14 -20 -24 -38 -10 -18 -33 -47
-51 -65 -22 -22 -36 -49 -44 -87 -7 -30 -15 -65 -19 -78 -6 -27 10 -65 46
-105 31 -34 31 -78 2 -132 -12 -22 -21 -43 -21 -48 0 -4 -20 -39 -44 -76 -50
-75 -125 -158 -170 -186 -43 -26 -144 -22 -241 10 -43 14 -83 25 -90 25 -7 0
-30 8 -51 17 -22 9 -41 17 -44 18 -3 1 -25 7 -50 15 -46 13 -53 14 -150 24
-30 3 -91 15 -135 26 -97 25 -106 27 -173 40 -28 5 -62 15 -75 21 -12 7 -24
11 -27 10 -8 -3 -94 21 -105 30 -6 4 -33 13 -60 19 -75 16 -158 42 -178 56
-10 6 -27 9 -38 7 -16 -5 -19 -2 -15 18 6 32 27 91 36 104 8 10 4 171 -4 212
-7 31 -37 87 -52 96 -8 4 -14 14 -14 21 0 8 -18 32 -40 54 -43 42 -51 79 -25
106 8 8 15 19 15 24 0 5 26 47 58 93 32 46 69 104 83 129 13 25 26 47 29 50 3
3 17 23 31 45 57 88 151 183 301 303 144 116 149 120 223 157 33 17 81 45 107
63 26 18 53 32 61 32 9 0 17 4 19 9 4 11 202 141 215 141 6 0 13 6 16 13 3 7
36 26 73 42 38 15 106 45 151 67 45 21 85 38 88 38 3 0 25 8 48 18 96 42 237
90 292 99 17 3 32 7 34 9 9 8 81 0 81 -9z m-4404 -328 c71 -1 154 -20 201 -45
25 -13 50 -24 56 -24 5 0 31 -11 58 -25 27 -13 65 -27 84 -31 19 -3 60 -21 91
-40 31 -19 69 -34 84 -34 33 0 174 -68 253 -121 31 -22 57 -37 57 -34 0 20 91
-49 176 -133 55 -55 114 -107 130 -115 16 -8 36 -28 44 -44 26 -50 61 -92 96
-114 19 -11 43 -37 53 -58 11 -20 30 -48 44 -61 14 -14 37 -51 52 -83 15 -31
31 -57 36 -57 5 0 15 -13 23 -28 18 -35 75 -92 93 -92 7 0 13 -9 13 -20 0 -14
7 -20 24 -20 l23 0 -19 -77 c-28 -111 -34 -236 -14 -303 22 -75 21 -104 -4
-97 -10 3 -24 -1 -31 -9 -6 -7 -21 -12 -33 -10 -11 2 -28 -2 -36 -9 -17 -14
-176 -70 -230 -80 -19 -4 -76 -25 -126 -46 -50 -22 -115 -44 -145 -49 -29 -6
-60 -17 -68 -24 -22 -20 -111 -57 -121 -51 -5 3 -10 1 -12 -4 -3 -9 -168 -91
-184 -91 -5 0 -31 -12 -58 -26 -50 -27 -204 -74 -242 -74 -12 0 -27 7 -35 16
-7 8 -21 13 -31 10 -12 -2 -22 2 -25 11 -5 12 -17 14 -62 9 -43 -5 -61 -3 -78
9 -13 9 -23 13 -23 9 0 -4 -11 6 -25 22 -14 16 -25 34 -25 41 0 6 -4 13 -10
15 -10 3 -16 33 -27 124 -4 38 1 72 17 125 13 41 26 79 30 84 10 14 21 79 26
149 3 52 1 61 -24 85 -15 15 -49 36 -77 45 -27 10 -62 23 -77 28 -27 10 -34
28 -29 68 1 8 2 32 2 53 0 27 12 55 46 105 87 129 90 145 38 208 -32 38 -140
104 -173 104 -21 0 -30 32 -20 69 11 40 42 70 73 71 15 0 30 18 55 68 18 37
35 73 36 80 3 19 -37 62 -63 67 -32 5 -44 13 -111 72 -33 29 -67 68 -76 87
-30 64 -17 157 32 212 34 39 175 97 213 88 9 -3 34 -5 55 -5z m2092 -585 c13
-13 31 -24 42 -24 10 0 22 -4 25 -10 3 -5 14 -10 24 -10 9 0 32 -15 50 -34 42
-43 51 -108 26 -176 -9 -25 -21 -62 -27 -82 -6 -22 -17 -38 -25 -38 -8 0 -11
-5 -8 -10 7 -12 -19 -58 -44 -78 -42 -33 -101 -51 -157 -47 -70 4 -108 20
-129 52 -9 13 -22 22 -29 20 -23 -9 -87 67 -98 115 -14 67 -10 130 10 150 7 7
12 17 12 24 0 6 25 38 56 70 43 44 58 54 65 43 7 -12 9 -12 9 1 1 63 147 89
198 34z m252 -482 c14 -8 29 -21 33 -29 4 -7 15 -13 22 -13 8 0 15 -3 15 -7 0
-5 13 -16 28 -27 16 -10 34 -33 42 -50 7 -17 23 -44 36 -61 33 -45 34 -183 2
-284 -20 -65 -30 -80 -85 -131 -81 -76 -147 -109 -237 -118 -110 -10 -200 -6
-256 12 -51 17 -61 23 -101 59 -10 9 -24 17 -30 17 -20 0 -58 49 -68 88 -21
80 -25 110 -25 197 0 109 29 205 75 253 17 18 35 32 39 32 5 0 30 -10 57 -21
33 -15 70 -22 118 -22 87 -1 149 25 208 88 36 38 46 43 72 38 16 -3 41 -12 55
-21z m245 -627 c44 -5 75 -11 120 -24 22 -6 54 -11 70 -11 17 0 39 -7 49 -15
11 -8 30 -15 43 -15 13 0 37 -7 52 -15 16 -8 31 -12 34 -9 3 3 13 1 24 -5 30
-16 56 -23 93 -25 19 -2 60 -10 90 -19 30 -9 70 -19 89 -22 19 -3 38 -8 43
-11 5 -3 50 -12 101 -19 96 -15 112 -18 137 -28 39 -15 112 -37 125 -37 8 0
15 -4 15 -9 0 -5 15 -13 33 -16 17 -4 37 -11 42 -15 12 -9 104 -21 168 -22 27
0 47 -5 47 -11 0 -6 6 -2 14 9 8 10 18 16 22 12 4 -4 13 -3 20 3 10 8 11 5 1
-20 -10 -27 -8 -34 19 -68 46 -57 120 -268 129 -363 4 -51 8 -70 37 -225 27
-137 29 -285 6 -427 -9 -57 -18 -76 -59 -126 -26 -33 -51 -72 -55 -86 -3 -14
-10 -29 -15 -32 -5 -3 -9 -13 -9 -22 0 -24 -55 -70 -119 -100 -49 -23 -61 -24
-140 -18 -52 4 -100 14 -121 25 -19 10 -48 21 -64 25 -15 4 -51 28 -80 54 -28
27 -88 70 -133 97 -46 27 -83 52 -83 57 0 10 -49 58 -59 58 -15 0 -105 106
-178 211 -40 57 -83 116 -95 131 -66 77 -94 113 -105 134 -7 12 -26 37 -43 55
-28 31 -80 128 -80 149 0 6 -20 52 -44 104 -25 52 -48 111 -52 131 -3 19 -10
38 -15 41 -23 14 -51 127 -74 304 -9 70 -45 181 -64 196 -18 14 -4 37 18 29 9
-4 30 -8 46 -10z m-820 -163 c0 -57 -3 -106 -7 -109 -5 -2 -8 -17 -8 -33 0
-16 -4 -40 -9 -54 -6 -13 -12 -43 -15 -65 -2 -22 -7 -45 -11 -51 -4 -6 -1 -17
5 -25 7 -8 10 -29 7 -47 -5 -35 -46 -150 -56 -158 -3 -3 -7 -9 -8 -15 -8 -36
-51 -147 -61 -157 -7 -7 -12 -20 -12 -30 0 -10 -9 -32 -20 -50 -11 -18 -20
-39 -20 -46 0 -8 -21 -46 -47 -85 -26 -40 -48 -79 -49 -87 -1 -17 -23 -61 -33
-70 -3 -3 -19 -23 -35 -45 -16 -22 -46 -58 -65 -81 -20 -22 -58 -70 -86 -107
-27 -36 -56 -66 -62 -66 -7 -1 -13 -6 -13 -11 0 -22 -67 -82 -139 -125 -42
-24 -99 -66 -127 -92 -58 -55 -233 -147 -308 -163 -71 -16 -141 -10 -226 17
-100 33 -151 56 -174 82 -11 12 -25 21 -31 21 -16 0 -177 163 -187 189 -4 12
-12 21 -17 21 -10 0 -32 53 -37 90 -4 42 -6 184 -1 200 2 8 7 23 12 33 4 10 5
20 2 23 -3 3 -2 18 3 32 5 15 18 61 30 102 12 41 30 94 41 117 10 24 19 47 19
53 0 6 4 18 9 28 6 9 31 64 57 122 26 58 55 114 64 125 17 20 27 42 28 59 0 5
4 12 9 15 13 10 73 101 73 111 0 14 14 12 28 -2 17 -17 99 -19 146 -3 23 8 58
17 78 20 21 4 57 19 81 35 24 15 74 39 113 54 38 15 96 40 129 55 111 54 170
78 225 95 30 10 64 21 75 26 34 16 237 80 270 86 6 1 12 3 15 4 3 1 12 3 20 5
8 2 44 15 79 29 35 14 68 23 72 20 5 -3 9 -1 9 5 0 12 60 18 120 11 l45 -5 0
-103z m689 85 c24 -23 44 -72 55 -130 6 -32 10 -61 9 -65 -1 -4 4 -19 10 -34
6 -15 14 -58 18 -95 4 -38 14 -81 22 -98 20 -38 19 -28 28 -345 6 -224 4 -284
-11 -390 -9 -69 -19 -141 -21 -160 -3 -19 -9 -48 -14 -65 -5 -16 -21 -67 -34
-111 -27 -91 -39 -115 -78 -159 -16 -16 -28 -33 -28 -37 0 -16 -106 -19 -141
-4 -20 8 -52 18 -70 21 -41 7 -108 73 -127 125 -49 129 -64 173 -83 240 -11
41 -23 83 -25 93 -2 9 -7 27 -10 40 -3 12 -9 40 -14 63 -5 22 -13 51 -19 65
-9 21 -51 217 -65 304 -3 17 -8 48 -11 70 -18 109 -22 153 -19 190 2 22 6 125
8 229 2 103 9 193 14 198 6 6 16 6 28 0 37 -19 147 -42 204 -42 140 0 317 49
343 95 10 18 15 19 31 2z"/>
</g>
</svg>
