<?xml version="1.0" standalone="no"?>
<!DOCTYPE svg PUBLIC "-//W3C//DTD SVG 20010904//EN"
 "http://www.w3.org/TR/2001/REC-SVG-20010904/DTD/svg10.dtd">
<svg version="1.0" xmlns="http://www.w3.org/2000/svg"
 width="538.000000pt" height="337.000000pt" viewBox="0 0 538.000000 337.000000"
 preserveAspectRatio="xMidYMid meet">
<metadata>
Created by potrace 1.16, written by Peter Selinger 2001-2019
</metadata>
<g transform="translate(0.000000,337.000000) scale(0.100000,-0.100000)"
fill="#000000" stroke="none">
<path d="M1950 3129 c-69 -3 -155 -13 -191 -22 -37 -9 -79 -18 -94 -21 -34 -6
-179 -79 -225 -114 -34 -25 -92 -82 -229 -225 -35 -37 -68 -67 -72 -67 -5 0
-9 -5 -9 -12 0 -7 -18 -38 -40 -69 -22 -32 -40 -61 -40 -66 0 -10 -53 -118
-67 -135 -6 -7 -18 -38 -28 -68 -10 -30 -25 -73 -34 -95 -13 -31 -16 -72 -14
-190 1 -139 3 -158 32 -250 18 -55 39 -125 48 -155 10 -30 23 -64 30 -75 6
-11 28 -60 48 -110 20 -49 47 -101 59 -115 13 -14 35 -46 50 -73 15 -26 44
-64 64 -85 69 -72 132 -147 132 -157 0 -17 -152 -168 -185 -185 -17 -8 -37
-22 -45 -31 -20 -20 -125 -82 -170 -99 -38 -15 -113 -61 -118 -72 -2 -4 -19
-12 -39 -19 -37 -12 -82 -54 -83 -76 0 -7 -4 -13 -8 -13 -5 0 -9 -6 -10 -12
-14 -92 -14 -93 14 -128 15 -19 53 -48 85 -64 57 -29 57 -29 234 -28 97 1 193
6 213 11 21 6 59 7 87 3 33 -5 67 -4 100 5 28 7 64 13 80 13 17 0 53 6 80 14
28 8 82 23 121 34 39 11 98 34 130 50 67 34 138 56 227 73 67 11 181 44 209
60 10 5 26 9 36 9 21 0 123 37 131 47 6 8 39 28 81 49 30 15 94 33 135 38 17
3 64 10 105 16 131 20 220 22 295 6 39 -8 108 -22 155 -32 47 -9 90 -20 95
-23 33 -24 112 -33 275 -33 194 0 284 12 345 46 36 20 55 26 133 42 13 3 40
16 60 29 20 13 53 29 72 36 19 6 58 21 85 34 110 51 143 65 220 94 44 16 96
32 115 35 24 4 40 15 51 35 9 15 29 34 45 41 30 13 65 74 80 135 4 16 12 34
18 40 19 18 92 47 112 44 10 -1 26 0 34 4 8 3 37 8 64 11 27 3 55 11 62 17 7
6 17 8 23 5 5 -3 22 4 38 17 15 12 45 30 65 39 52 24 72 58 65 111 -6 47 -41
82 -87 89 -28 4 -34 1 -90 -53 -45 -44 -71 -59 -104 -59 -14 0 -27 -4 -30 -9
-3 -5 -26 -12 -51 -15 -24 -4 -47 -11 -50 -17 -8 -13 -45 -11 -45 2 0 12 47
62 221 239 74 74 132 124 159 136 50 22 67 51 75 130 5 55 4 61 -23 94 l-29
34 -44 -14 c-24 -7 -51 -20 -60 -27 -8 -7 -20 -13 -25 -13 -6 0 -18 -16 -28
-36 -17 -38 -102 -141 -146 -180 -14 -12 -36 -32 -49 -43 -14 -12 -53 -47 -88
-78 -34 -31 -81 -67 -104 -81 -44 -26 -44 -29 -6 46 9 19 17 40 17 47 0 7 16
32 35 55 19 23 35 46 35 51 0 11 42 72 53 77 4 2 7 9 7 17 0 7 7 18 15 25 9 7
13 15 11 18 -3 2 8 15 24 29 40 33 57 91 41 142 -6 21 -18 42 -27 45 -30 12
-82 -6 -122 -40 -43 -36 -54 -59 -70 -146 -14 -76 -63 -173 -139 -281 -18 -25
-33 -50 -33 -55 0 -5 -6 -15 -14 -21 -12 -10 -17 -8 -27 11 -7 13 -12 29 -10
37 9 46 92 194 135 244 9 9 16 19 16 22 0 3 36 68 80 146 44 77 80 142 80 145
0 2 18 27 40 55 26 33 40 62 41 82 4 119 -9 140 -96 157 -37 8 -42 6 -72 -28
-28 -31 -38 -51 -74 -137 -4 -11 -10 -44 -13 -74 -3 -30 -10 -59 -15 -64 -6
-6 -11 -18 -11 -27 0 -9 -9 -25 -20 -35 -11 -10 -26 -37 -32 -59 -7 -22 -30
-58 -51 -79 -22 -22 -50 -62 -63 -91 -13 -28 -48 -75 -79 -105 -30 -29 -55
-58 -55 -63 0 -5 -9 -6 -20 -3 -11 3 -34 7 -50 7 -17 1 -33 4 -35 8 -3 4 -42
1 -87 -7 -92 -15 -92 -15 -132 -32 -15 -6 -36 -10 -45 -9 -9 2 -15 -2 -14 -8
6 -32 -147 -56 -277 -43 -37 3 -86 27 -132 63 -74 57 -87 66 -96 66 -5 0 -19
18 -29 39 -19 38 -19 44 -5 129 13 73 14 113 6 214 -10 117 -13 127 -56 213
-130 256 -175 325 -267 406 -25 22 -53 47 -62 55 -9 7 -19 14 -23 14 -4 0 -19
11 -34 25 -15 14 -43 32 -62 42 -19 9 -54 31 -77 48 -40 31 -111 68 -215 114
-27 12 -81 26 -120 31 -40 5 -111 19 -158 31 -136 34 -169 37 -350 28z m305
-81 c56 -19 137 -35 205 -42 25 -2 70 -16 100 -30 30 -14 60 -26 67 -26 6 0
13 -3 15 -7 2 -5 15 -15 30 -23 72 -40 201 -124 236 -153 21 -18 51 -41 66
-52 16 -11 45 -38 65 -59 20 -22 43 -47 52 -56 9 -10 25 -31 35 -49 10 -17 21
-31 25 -31 4 0 10 -15 14 -32 4 -18 19 -51 33 -73 15 -22 44 -76 65 -120 34
-69 40 -94 48 -185 13 -140 1 -230 -35 -266 -8 -8 -30 -14 -50 -14 -19 0 -45
-4 -58 -9 -13 -5 -63 -22 -113 -37 -124 -39 -211 -97 -343 -227 l-64 -62 7 50
c4 28 11 58 17 68 5 10 12 50 15 90 3 40 11 77 18 82 6 6 15 24 19 40 13 56
78 140 212 273 73 72 136 132 141 132 4 0 14 9 20 20 25 39 -8 31 -65 -17 -31
-27 -74 -61 -94 -76 -54 -39 -227 -217 -244 -250 -18 -34 -20 -33 -27 14 -2
19 -9 44 -15 55 -6 12 -7 26 -2 34 5 8 7 24 4 35 -8 31 70 176 154 286 65 86
83 119 67 119 -3 0 -37 -30 -74 -67 -68 -68 -161 -195 -192 -263 -15 -31 -17
-33 -24 -15 -5 11 -26 42 -47 69 -50 64 -53 80 -27 146 11 30 30 80 42 110 11
30 42 92 69 137 53 90 54 93 35 93 -23 0 -111 -130 -162 -240 -27 -58 -52
-108 -55 -113 -4 -4 -20 0 -38 8 -28 15 -31 20 -32 68 -2 103 0 183 6 210 3
16 7 38 9 50 2 12 10 55 19 95 19 88 19 82 2 82 -37 0 -96 -242 -96 -395 0
-55 0 -55 -27 -50 -30 5 -78 37 -78 51 -1 5 -6 18 -11 29 -6 11 -15 34 -19 50
-10 37 -10 36 -20 59 -4 10 -20 55 -35 99 -32 98 -56 116 -45 36 4 -30 11 -72
17 -94 6 -22 11 -44 13 -50 1 -5 3 -12 4 -15 0 -3 9 -35 20 -72 l18 -68 -54 1
c-46 1 -57 6 -78 31 -43 50 -199 290 -219 336 -20 44 -53 61 -40 20 23 -73 96
-218 164 -327 46 -72 45 -71 25 -71 -9 0 -35 -10 -57 -21 l-42 -21 -26 28
c-14 16 -37 35 -50 42 -14 7 -70 56 -125 107 -195 185 -145 84 70 -138 61 -63
76 -87 57 -87 -5 0 -27 -16 -49 -34 l-40 -35 -47 14 c-63 19 -105 52 -213 164
-95 99 -126 114 -77 38 81 -125 171 -220 246 -258 32 -17 36 -22 27 -37 -6
-10 -24 -25 -39 -34 -25 -14 -34 -14 -134 11 -58 15 -112 24 -118 20 -7 -5
-10 -10 -8 -12 7 -6 106 -52 168 -78 51 -22 52 -23 47 -58 -13 -79 -14 -80
-53 -87 -34 -7 -208 8 -274 22 -24 5 -28 3 -28 -15 0 -15 6 -21 24 -21 13 0
43 -7 67 -15 24 -9 77 -18 119 -21 117 -8 120 -9 120 -48 0 -19 9 -45 21 -61
l22 -27 -29 -29 c-31 -30 -101 -49 -186 -49 -33 0 -57 -14 -45 -26 2 -2 28 -7
58 -10 30 -3 60 -7 67 -9 25 -9 117 16 140 38 l24 22 29 -33 c17 -18 46 -40
65 -48 18 -8 34 -21 34 -28 0 -12 -90 -96 -102 -96 -13 0 -183 -109 -192 -123
-20 -32 3 -27 92 16 139 69 224 122 255 160 25 30 31 33 65 28 71 -12 56 -68
-44 -171 -41 -42 -74 -82 -74 -88 0 -7 -4 -12 -10 -12 -5 0 -10 -8 -10 -18 0
-19 30 -27 30 -8 1 6 24 29 52 51 28 22 77 66 108 97 55 54 58 60 57 103 -2
41 0 46 23 51 14 3 37 10 52 14 26 8 28 6 39 -30 13 -44 6 -69 -44 -154 -29
-51 -46 -106 -31 -105 29 1 144 193 144 240 0 30 -18 80 -34 90 -5 4 0 10 11
13 11 4 25 18 31 31 11 25 13 25 36 9 14 -8 29 -13 35 -10 13 8 239 -169 249
-196 7 -16 32 -8 32 11 0 23 -117 140 -210 212 -62 47 -66 53 -62 85 3 28 8
34 22 29 11 -3 20 0 24 10 4 11 14 14 36 10 36 -6 107 -33 136 -52 20 -13 54
-9 54 6 -2 29 -176 121 -230 121 -27 0 -30 3 -30 30 0 17 -4 30 -10 30 -5 0
-10 7 -10 15 0 8 5 15 10 15 6 0 10 9 10 19 0 19 62 81 80 81 6 0 10 7 10 15
0 8 5 15 12 15 8 0 6 7 -5 17 -17 17 -20 16 -72 -10 -30 -16 -64 -44 -77 -63
-17 -26 -28 -33 -43 -29 -11 2 -28 5 -38 5 -10 0 -16 4 -13 9 3 5 -4 47 -15
95 -17 66 -25 86 -39 86 -16 0 -19 -7 -21 -52 -1 -20 8 -99 14 -131 1 -5 -11
-14 -28 -20 -16 -6 -35 -15 -42 -21 -48 -42 -47 -42 -90 -21 -16 8 -57 19 -90
23 -53 7 -62 6 -72 -10 -15 -24 -14 -34 4 -51 11 -12 23 -13 48 -6 25 7 49 5
93 -9 l58 -18 -3 -49 c-1 -28 -6 -54 -11 -58 -13 -14 0 -44 26 -56 29 -13 29
-13 43 80 11 76 29 104 85 129 32 15 43 16 68 6 43 -19 55 -50 48 -127 -5 -61
-9 -71 -45 -109 -22 -22 -60 -53 -85 -68 -40 -24 -55 -27 -136 -27 -50 0 -102
5 -115 11 -13 7 -42 19 -64 28 -32 13 -51 32 -84 84 -40 62 -42 70 -36 117 3
28 7 69 10 92 4 45 32 109 68 158 45 59 157 165 176 165 4 0 35 14 67 30 66
34 129 41 249 27 77 -10 137 -28 206 -63 51 -25 59 -38 52 -76 -5 -25 18 -45
36 -33 12 7 44 -33 90 -114 76 -134 98 -308 55 -444 -9 -29 -21 -68 -26 -87
-16 -53 -98 -189 -139 -232 -20 -21 -49 -54 -63 -73 -15 -19 -31 -35 -37 -35
-5 0 -29 -14 -52 -30 -239 -173 -405 -200 -687 -113 -101 31 -204 86 -228 120
-9 14 -36 46 -59 72 -60 67 -148 203 -173 269 -12 31 -35 83 -51 114 -16 32
-32 77 -35 100 -4 24 -17 67 -30 96 -26 57 -33 99 -41 239 -7 130 25 237 124
413 10 19 25 51 33 70 17 43 115 172 140 184 10 5 24 21 30 37 7 16 33 46 58
66 25 21 61 55 80 75 63 68 244 145 400 171 110 18 355 15 417 -5z m2553 -686
c5 -33 -15 -86 -50 -129 -16 -21 -41 -60 -54 -88 -13 -27 -37 -72 -54 -100
-17 -27 -37 -65 -46 -84 -8 -19 -33 -58 -55 -87 -22 -30 -38 -54 -35 -54 3 0
-11 -23 -30 -51 -19 -28 -34 -55 -34 -61 0 -5 -16 -30 -35 -55 -40 -52 -41
-56 -20 -77 8 -8 15 -24 15 -35 0 -12 3 -20 8 -19 17 3 42 -15 42 -32 0 -28
25 -43 49 -31 20 11 51 5 51 -10 0 -7 16 -4 99 23 44 14 107 55 151 98 20 19
69 64 110 100 100 88 145 131 145 139 0 3 17 24 38 46 20 22 39 47 42 55 5 17
60 42 69 32 3 -3 6 -25 6 -48 0 -42 -2 -45 -57 -80 -32 -20 -129 -109 -215
-197 -117 -120 -164 -162 -185 -164 -35 -5 -53 -28 -53 -67 0 -39 7 -49 47
-70 31 -16 36 -15 115 10 113 35 137 42 181 50 28 5 53 21 88 56 41 41 52 48
64 38 17 -14 21 -65 5 -55 -5 3 -10 2 -10 -4 0 -14 -74 -56 -130 -74 -25 -8
-70 -17 -100 -20 -121 -11 -224 -61 -227 -112 0 -15 -6 -31 -12 -34 -6 -4 -9
-17 -6 -29 5 -31 -76 -99 -129 -108 -22 -3 -47 -14 -55 -24 -9 -10 -61 -35
-116 -56 -55 -20 -111 -45 -125 -54 -33 -22 -150 -71 -150 -63 0 3 -8 -1 -17
-9 -22 -18 -107 -53 -153 -63 -19 -4 -56 -18 -81 -32 -48 -25 -96 -31 -264
-33 -146 -2 -232 6 -260 24 -15 10 -43 20 -63 22 -21 2 -58 11 -83 20 -25 8
-53 12 -61 9 -8 -3 -28 -1 -44 6 -16 6 -50 13 -77 16 -26 2 -57 7 -69 12 -12
4 -39 4 -59 0 -21 -5 -69 -11 -108 -13 -39 -3 -75 -7 -80 -11 -9 -5 -76 -19
-177 -39 -6 -1 -23 -9 -37 -19 -15 -9 -29 -17 -32 -17 -3 0 -23 -11 -44 -24
-21 -13 -58 -30 -82 -36 -24 -7 -53 -16 -64 -21 -56 -25 -178 -60 -240 -69
-71 -10 -146 -34 -206 -68 -66 -36 -217 -80 -355 -102 -64 -11 -353 -25 -504
-25 -77 0 -104 4 -141 22 -56 26 -72 45 -72 85 0 35 37 71 66 62 10 -3 17 0
17 9 0 14 44 57 59 57 4 0 20 11 34 24 21 19 58 37 89 40 3 1 17 10 30 21 13
11 41 31 63 44 70 43 203 162 268 240 l28 33 72 -22 c40 -12 89 -29 111 -36
80 -30 272 -40 366 -19 41 9 82 18 90 19 27 5 74 30 121 63 26 18 54 33 63 33
9 0 16 4 16 8 0 5 28 27 63 50 34 23 73 56 87 74 38 50 71 78 91 78 10 0 21
10 24 21 12 37 73 109 180 213 129 126 163 156 175 156 6 0 10 3 10 8 0 13
112 68 165 82 28 7 55 16 60 20 15 11 65 22 108 24 28 2 37 -2 37 -14 0 -18
34 -50 54 -50 8 0 21 -6 28 -12 22 -21 71 -54 91 -61 9 -3 17 -14 17 -22 0 -9
4 -14 9 -11 5 3 19 -2 32 -12 52 -38 75 -44 163 -47 101 -4 203 12 256 40 19
10 49 19 65 20 17 1 44 9 60 17 42 20 176 16 211 -7 14 -9 39 -18 55 -20 30
-4 33 1 31 52 -1 14 17 41 45 69 25 26 61 76 79 111 29 55 45 76 99 137 6 6
19 29 30 51 11 22 30 56 43 76 12 20 25 47 27 60 14 74 50 197 64 217 22 30
75 27 79 -6z m50 -349 c-1 -16 -16 -44 -32 -63 -17 -19 -39 -46 -49 -60 -14
-19 -17 -20 -11 -5 3 11 11 40 16 65 9 42 46 90 68 90 6 0 9 -12 8 -27z"/>
</g>
</svg>
