<?xml version="1.0" standalone="no"?>
<!DOCTYPE svg PUBLIC "-//W3C//DTD SVG 20010904//EN"
 "http://www.w3.org/TR/2001/REC-SVG-20010904/DTD/svg10.dtd">
<svg version="1.0" xmlns="http://www.w3.org/2000/svg"
 width="481.000000pt" height="459.000000pt" viewBox="0 0 481.000000 459.000000"
 preserveAspectRatio="xMidYMid meet">
<metadata>
Created by potrace 1.16, written by Peter Selinger 2001-2019
</metadata>
<g transform="translate(0.000000,459.000000) scale(0.100000,-0.100000)"
fill="#000000" stroke="none">
<path d="M3156 4174 c-3 -8 -13 -14 -22 -14 -13 0 -15 -6 -9 -27 9 -38 26 -53
63 -58 18 -2 47 -16 65 -31 32 -25 33 -29 25 -68 -4 -22 -12 -65 -18 -95 -5
-29 -16 -63 -23 -75 -8 -11 -19 -37 -26 -58 -13 -40 -3 -36 -161 -53 -56 -6
-88 -21 -176 -85 -89 -65 -142 -141 -143 -208 -2 -46 -40 -69 -130 -77 -100
-9 -177 -25 -251 -54 -30 -11 -60 -21 -66 -21 -12 0 -41 114 -48 185 -2 22 -7
48 -11 58 -10 25 -47 38 -82 28 -15 -4 -41 -4 -58 -1 -16 4 -38 3 -47 -2 -9
-4 -81 -11 -160 -13 -157 -6 -176 -13 -164 -60 8 -31 32 -42 56 -27 23 14 80
21 246 27 l141 6 8 -38 c4 -21 11 -60 17 -88 5 -27 10 -62 11 -77 1 -16 6 -28
12 -28 17 0 -8 -18 -65 -46 -30 -15 -57 -30 -60 -33 -8 -10 -109 -81 -115 -81
-3 0 -18 -11 -33 -25 -15 -14 -31 -25 -36 -25 -5 0 -16 -8 -25 -18 -9 -9 -34
-31 -56 -47 -22 -16 -60 -49 -85 -72 -25 -24 -50 -43 -55 -43 -6 0 -18 -12
-27 -27 -9 -16 -44 -57 -78 -93 -34 -36 -68 -78 -76 -95 -7 -16 -27 -50 -44
-75 -22 -33 -30 -40 -30 -25 -1 18 -30 69 -30 51 0 -9 -31 12 -75 53 -19 17
-38 31 -42 31 -14 1 -53 38 -53 51 0 7 -3 10 -6 6 -7 -7 -54 42 -54 57 0 6
-11 11 -25 11 -18 0 -50 -23 -108 -77 -45 -43 -85 -78 -88 -78 -11 0 -45 -34
-51 -51 -9 -23 17 -56 41 -54 10 1 34 21 53 45 67 87 148 131 178 95 7 -8 9
-15 4 -15 -13 0 30 -29 43 -30 17 0 46 -23 111 -87 29 -29 60 -53 67 -53 10 0
2 -22 -25 -72 -54 -101 -114 -225 -145 -303 -16 -39 -53 -185 -59 -235 -13
-94 -19 -119 -35 -125 -30 -13 -81 -23 -81 -16 0 10 -154 13 -181 3 -14 -6
-61 -12 -105 -13 -92 -4 -91 -3 -180 -116 -36 -45 -81 -95 -100 -110 -30 -25
-33 -31 -26 -58 12 -42 51 -46 74 -8 9 15 25 38 35 50 10 11 38 46 63 76 56
68 100 97 145 97 20 0 65 7 100 16 56 14 69 14 114 1 35 -10 63 -12 93 -6 24
4 48 8 53 9 7 0 10 -85 10 -241 0 -132 3 -243 8 -246 4 -2 7 -35 7 -72 0 -52
5 -74 18 -91 l18 -23 90 34 c49 18 96 39 105 46 20 16 29 17 29 1 0 -7 27 -33
60 -56 33 -24 60 -48 60 -53 0 -5 6 -9 14 -9 8 0 16 -4 18 -8 7 -17 119 -93
128 -87 6 3 10 -3 10 -13 0 -14 5 -19 18 -16 33 8 43 -9 33 -60 -9 -48 -5 -76
15 -110 10 -17 13 -17 45 -3 19 9 54 21 79 28 25 7 52 19 62 26 9 8 22 16 30
17 32 6 109 30 178 56 111 41 120 44 120 27 0 -8 23 -56 50 -107 55 -100 55
-93 2 -150 -13 -14 -31 -42 -41 -62 -20 -39 -69 -101 -138 -175 -23 -24 -45
-53 -48 -63 -9 -28 11 -61 33 -53 19 7 72 60 66 66 -2 2 8 17 23 33 16 16 41
47 58 69 16 22 35 46 42 53 7 7 20 28 29 47 9 19 24 37 35 40 10 4 18 11 16
17 -1 6 9 17 21 24 33 16 50 34 33 34 -7 0 -9 5 -5 11 7 11 -24 89 -36 89 -12
0 -63 120 -55 129 3 2 -5 12 -16 22 -20 18 -20 18 23 39 49 23 51 24 173 104
49 33 131 93 180 135 91 77 314 299 315 314 0 5 15 23 33 41 l32 34 80 -20
c44 -11 82 -22 85 -25 3 -2 6 -48 6 -101 1 -53 5 -146 8 -207 3 -60 6 -120 6
-131 0 -22 29 -37 48 -25 24 15 33 63 22 123 -13 71 -17 264 -6 334 9 60 -5
77 -64 81 -21 1 -50 8 -66 14 -16 7 -38 14 -48 16 -11 2 -22 6 -25 8 -2 3 14
43 37 89 23 46 42 87 42 90 0 3 19 38 43 78 23 40 50 94 60 119 10 25 27 56
38 68 11 12 34 64 50 116 16 52 33 95 37 96 4 1 21 2 37 4 17 1 57 8 89 14 77
14 149 14 199 -1 31 -9 43 -20 54 -47 8 -20 27 -63 43 -96 31 -68 37 -86 45
-133 3 -18 14 -41 24 -51 17 -17 19 -17 43 0 l25 19 -17 53 c-10 29 -33 86
-53 128 -19 41 -42 102 -52 136 -14 50 -21 61 -39 61 -11 0 -68 0 -127 2 -58
1 -132 -2 -166 -5 -41 -5 -63 -4 -67 4 -4 6 -12 9 -17 5 -7 -4 -8 10 -4 38 13
86 12 248 -2 274 -20 39 -32 92 -38 167 -3 38 -6 72 -7 75 -1 4 2 15 7 25 5
11 2 24 -9 36 -14 16 -24 53 -10 38 13 -13 132 102 167 163 14 25 29 65 32 90
4 25 11 55 17 66 10 21 7 70 -7 125 -6 22 -2 28 42 49 26 14 59 32 73 42 31
21 179 72 187 64 3 -3 11 1 17 10 6 8 29 21 51 28 l39 14 12 -37 c6 -20 17
-58 24 -84 18 -67 80 -108 80 -52 0 14 5 25 12 25 6 0 4 7 -5 18 -10 10 -14
22 -10 25 3 4 2 7 -4 7 -9 0 -32 81 -38 138 -1 13 -8 28 -14 32 -12 7 -102 -9
-111 -20 -5 -5 -37 -19 -130 -57 -19 -8 -43 -18 -52 -23 -10 -6 -23 -10 -30
-10 -15 0 -115 -50 -149 -74 -32 -22 -51 -20 -77 7 -58 60 -135 116 -172 123
-17 4 -34 13 -37 20 -2 7 -18 16 -34 19 -16 4 -31 10 -33 14 -3 4 11 45 29 92
19 46 35 97 35 112 0 15 6 30 13 32 29 12 12 165 -18 165 -7 0 -26 11 -42 24
-15 12 -49 35 -75 49 -38 21 -47 23 -52 11z m-12 -581 c-8 -25 -16 -68 -19
-94 -4 -44 -3 -47 21 -53 35 -9 54 9 52 47 -1 18 1 50 6 72 6 33 10 37 19 25
8 -10 31 -15 73 -15 52 -1 67 -5 100 -30 44 -34 84 -74 84 -86 0 -4 -15 -13
-34 -20 -18 -7 -41 -24 -50 -40 -20 -34 -20 -40 -1 -33 8 4 15 2 15 -4 0 -18
40 -21 53 -4 15 21 52 42 72 42 27 0 38 -49 25 -115 -20 -103 -41 -151 -72
-169 -15 -10 -28 -23 -28 -29 0 -14 -35 -47 -50 -47 -6 0 -10 -3 -10 -8 0 -4
-21 -17 -47 -29 -72 -34 -168 -33 -258 1 -38 15 -83 33 -100 39 -16 6 -34 15
-40 19 -150 116 -198 262 -132 398 17 35 41 64 65 80 20 14 39 28 42 31 22 27
95 58 141 62 30 2 61 4 71 5 15 2 15 -2 2 -45z m-406 -350 c6 -15 12 -31 12
-36 0 -5 9 -22 21 -39 12 -16 19 -32 16 -34 -8 -8 81 -97 127 -128 21 -14 32
-26 23 -26 -10 0 -21 -17 -30 -47 -45 -141 -94 -259 -121 -286 -9 -8 -27 -41
-42 -73 -14 -33 -37 -82 -50 -111 -13 -28 -24 -57 -24 -64 0 -7 -17 -35 -38
-63 -21 -28 -45 -66 -53 -83 -7 -18 -17 -33 -21 -33 -5 0 -8 -6 -8 -12 0 -7
-19 -33 -41 -58 -22 -25 -52 -65 -67 -90 -14 -25 -32 -49 -39 -53 -7 -4 -13
-13 -13 -20 0 -7 -32 -46 -70 -89 -39 -42 -70 -81 -70 -86 0 -5 -45 -49 -99
-98 -55 -49 -100 -92 -100 -97 -1 -10 -75 -76 -130 -115 -58 -41 -111 -82
-131 -103 -9 -8 -45 -33 -81 -54 -35 -21 -84 -53 -109 -70 -25 -18 -72 -47
-105 -65 -33 -18 -78 -43 -101 -56 -36 -21 -146 -64 -164 -64 -4 0 -8 15 -9
33 -10 162 -12 235 -13 382 -1 208 7 324 33 435 18 79 72 223 91 245 4 5 8 16
8 25 0 8 18 43 39 76 21 34 42 72 46 85 9 28 133 221 167 260 13 15 42 47 65
72 23 25 39 47 36 51 -4 3 -1 6 6 6 6 0 34 21 61 48 64 62 127 114 159 131 35
19 89 59 125 93 17 16 35 28 42 28 7 0 14 4 16 8 11 27 286 151 373 168 41 8
81 14 129 19 28 3 52 8 55 10 2 3 18 5 35 5 24 0 34 -6 44 -27z m317 -302 c20
-16 118 -33 198 -35 l82 -1 17 -35 c10 -19 18 -57 18 -85 0 -28 11 -90 24
-139 21 -74 24 -104 20 -188 -2 -55 -6 -104 -9 -109 -4 -5 -8 -32 -11 -61 -3
-29 -9 -57 -14 -63 -4 -5 -16 -39 -25 -75 -9 -36 -25 -74 -35 -85 -23 -26 -60
-95 -60 -114 0 -7 -13 -35 -28 -60 -16 -25 -60 -111 -100 -191 -47 -96 -86
-161 -116 -194 -26 -27 -46 -53 -46 -58 0 -13 -222 -233 -285 -283 -27 -22
-51 -43 -53 -47 -2 -5 -10 -8 -17 -8 -8 0 -18 -6 -22 -13 -20 -32 -312 -207
-346 -207 -6 0 -24 -7 -39 -14 -35 -19 -265 -96 -284 -96 -8 0 -14 -5 -14 -11
0 -5 -4 -8 -9 -4 -5 3 -12 1 -15 -3 -3 -5 -19 -9 -36 -10 -34 -1 -35 -16 7
158 14 58 31 119 38 135 37 85 69 168 91 234 13 41 29 80 35 88 6 7 9 13 5 13
-3 0 4 18 15 40 12 22 24 40 28 40 4 0 15 23 25 50 10 28 22 50 27 50 5 0 9 9
9 20 0 11 7 23 15 26 8 4 15 11 15 18 0 13 127 136 141 136 5 0 8 4 6 8 -2 9
63 94 125 164 18 20 42 54 53 75 26 49 26 49 80 108 26 28 55 69 66 91 10 23
38 68 62 101 24 32 52 86 62 118 10 33 22 62 25 65 12 8 40 68 40 83 0 8 9 22
19 31 10 9 33 47 50 84 18 37 36 75 42 84 5 10 9 27 9 38 0 21 15 52 40 83 8
10 13 31 12 47 -2 28 -1 29 25 19 15 -5 32 -14 38 -18z m-1364 -1691 c-13 -11
-28 -20 -35 -20 -6 0 0 9 14 20 33 26 52 25 21 0z m103 -325 c-4 -8 -10 -15
-15 -15 -4 0 -6 7 -3 15 4 8 10 15 15 15 4 0 6 -7 3 -15z"/>
</g>
</svg>
