<?xml version="1.0" standalone="no"?>
<!DOCTYPE svg PUBLIC "-//W3C//DTD SVG 20010904//EN"
 "http://www.w3.org/TR/2001/REC-SVG-20010904/DTD/svg10.dtd">
<svg version="1.0" xmlns="http://www.w3.org/2000/svg"
 width="513.000000pt" height="331.000000pt" viewBox="0 0 513.000000 331.000000"
 preserveAspectRatio="xMidYMid meet">
<metadata>
Created by potrace 1.16, written by Peter Selinger 2001-2019
</metadata>
<g transform="translate(0.000000,331.000000) scale(0.100000,-0.100000)"
fill="#000000" stroke="none">
<path d="M3440 3030 c-11 -6 -16 -27 -18 -72 -3 -97 -10 -118 -37 -118 -23 0
-24 3 -25 63 0 92 -1 95 -26 100 -30 5 -37 -12 -38 -103 -1 -68 -3 -75 -21
-75 -18 0 -20 8 -23 70 -3 70 -13 95 -39 95 -39 0 -44 -27 -27 -146 5 -39 3
-43 -29 -63 -19 -11 -43 -21 -54 -21 -11 0 -32 -13 -48 -30 -16 -16 -34 -30
-41 -30 -7 0 -15 -6 -18 -12 -5 -10 -7 -10 -12 0 -8 18 -109 63 -155 69 -22 3
-42 9 -44 14 -5 7 -30 6 -106 -6 l-25 -4 0 104 c1 94 -1 107 -20 126 -16 15
-28 19 -44 14 -20 -6 -21 -12 -16 -44 16 -85 23 -157 16 -175 -7 -19 -11 -7
-25 64 -2 8 -12 38 -22 65 -20 53 -46 66 -66 33 -9 -13 -6 -30 11 -70 12 -29
25 -74 28 -99 5 -39 4 -47 -12 -53 -11 -3 -24 -9 -31 -12 -8 -4 -14 14 -19 55
-5 49 -11 63 -31 77 -24 15 -27 15 -45 -3 -21 -21 -19 -28 32 -134 l18 -37
-42 -30 c-22 -17 -56 -43 -74 -58 -31 -26 -36 -27 -65 -14 -34 14 -109 19
-117 9 -3 -4 -21 -9 -40 -10 l-35 -4 -10 85 c-10 83 -27 130 -45 130 -17 0
-41 -32 -36 -49 10 -34 26 -136 26 -167 0 -27 -13 -44 -34 -44 -2 0 -16 38
-32 85 -30 88 -50 109 -80 84 -16 -13 -13 -29 22 -105 34 -72 40 -110 19 -117
-18 -8 -44 41 -66 125 -14 51 -32 66 -56 46 -28 -23 -7 -102 53 -193 10 -15
12 -25 5 -30 -6 -3 -11 -14 -11 -23 0 -9 -6 -28 -13 -42 -7 -14 -21 -55 -31
-93 -10 -37 -22 -70 -27 -73 -5 -3 -9 -14 -9 -24 0 -16 -4 -17 -37 -8 -26 7
-54 7 -92 -1 -64 -13 -74 -13 -68 -3 10 14 -42 145 -66 170 -22 21 -28 23 -41
12 -21 -16 -20 -34 1 -67 19 -29 53 -119 53 -141 0 -8 -10 -22 -22 -32 l-23
-18 -25 61 c-40 98 -58 127 -81 127 -40 0 -37 -21 27 -154 25 -53 31 -91 14
-101 -5 -3 -10 1 -10 10 0 9 -9 29 -20 43 -12 15 -29 38 -39 51 -15 20 -20 22
-39 12 -26 -14 -28 -33 -6 -52 24 -20 64 -105 64 -136 0 -16 -4 -44 -10 -62
-5 -19 -10 -51 -11 -70 -3 -69 -6 -74 -53 -66 -22 4 -61 6 -86 5 -48 -3 -88
-3 -107 -1 -10 1 -36 58 -39 86 0 6 -6 23 -12 38 -7 16 -12 35 -12 43 0 20
-27 29 -45 14 -22 -18 -18 -58 9 -113 32 -63 41 -104 23 -104 -8 0 -26 37 -46
93 -33 92 -46 109 -77 97 -20 -7 -16 -25 31 -135 37 -86 37 -86 19 -112 -25
-34 -30 -33 -44 12 -23 69 -49 102 -81 102 -22 0 -29 -5 -29 -19 0 -11 4 -22
9 -25 13 -9 82 -150 83 -172 1 -11 -4 -41 -11 -69 -6 -27 -10 -66 -9 -85 3
-32 1 -35 -32 -40 -19 -4 -63 -21 -98 -38 l-63 -31 -10 27 c-6 15 -12 32 -13
37 -16 62 -46 115 -65 115 -22 0 -47 -25 -32 -34 16 -10 72 -168 66 -186 -3
-10 -14 -20 -25 -23 -16 -4 -22 2 -30 31 -5 21 -10 42 -10 49 0 16 -30 81 -53
115 -18 27 -18 27 -38 9 -20 -18 -20 -21 -4 -58 9 -21 20 -45 24 -53 4 -8 16
-42 26 -75 10 -33 23 -64 29 -70 8 -7 5 -17 -11 -34 l-23 -24 -20 47 c-11 26
-20 53 -20 60 0 7 -5 17 -11 23 -6 6 -17 22 -23 35 -6 12 -18 23 -26 23 -30 0
-21 -47 27 -138 46 -86 48 -94 38 -132 -5 -22 -14 -47 -19 -55 -6 -8 -11 -74
-13 -147 l-3 -132 36 -68 c43 -82 110 -153 183 -195 50 -29 63 -31 159 -34 72
-2 115 1 137 11 19 7 35 11 38 9 5 -6 84 31 133 62 51 31 113 111 125 160 8
29 15 41 20 33 6 -10 14 -8 36 7 34 23 99 60 133 77 14 6 27 14 30 18 3 3 20
14 38 23 18 9 36 25 39 34 3 9 11 24 18 32 15 20 42 95 49 142 l7 37 113 -1
c93 0 121 3 160 20 25 12 46 25 46 31 0 5 8 12 19 16 24 7 98 80 106 104 11
35 17 66 18 94 1 32 1 32 42 7 48 -30 135 -37 192 -15 133 49 153 65 196 153
14 29 28 48 32 42 14 -23 82 -48 128 -48 26 1 50 5 53 10 3 4 22 8 42 8 24 0
52 11 80 30 43 29 107 101 110 123 9 64 16 87 23 87 5 0 12 -7 15 -15 4 -8 15
-15 25 -15 10 0 19 -4 19 -8 0 -8 12 -15 103 -57 125 -59 303 -25 408 79 l40
38 18 -23 c42 -53 59 -66 129 -98 122 -55 227 -74 312 -56 94 19 132 29 136
37 8 13 34 9 34 -5 0 -7 13 -18 30 -24 43 -16 54 3 55 95 0 94 16 104 73 45
46 -49 63 -55 89 -34 27 21 35 58 17 75 -18 19 -18 30 2 47 21 17 80 144 96
206 7 26 17 51 23 55 6 5 5 8 -3 8 -9 0 -11 7 -6 23 27 80 -21 364 -66 392 -6
4 -8 10 -5 15 7 12 -122 142 -172 173 -52 33 -53 35 -44 77 7 36 -5 118 -20
134 -5 6 -18 5 -32 -3 -21 -11 -23 -18 -19 -72 2 -32 2 -59 0 -59 -3 0 -19 5
-37 11 -31 11 -32 12 -26 63 3 28 8 63 11 77 5 28 -19 63 -40 56 -21 -7 -36
-52 -36 -114 0 -61 -1 -63 -26 -63 -26 0 -26 1 -21 59 5 48 3 62 -12 75 -15
13 -20 14 -35 3 -14 -10 -19 -28 -20 -78 l-1 -64 -45 -6 c-25 -3 -63 -13 -85
-21 l-40 -14 -62 48 c-35 26 -69 48 -78 48 -8 0 -15 6 -15 14 0 9 -7 12 -20 9
-11 -3 -26 -1 -33 5 -7 6 -31 12 -53 13 l-41 3 8 40 c12 61 11 120 -3 134 -14
14 -18 14 -38 2z m149 -318 c39 -22 91 -67 91 -80 0 -3 -17 -22 -38 -41 -21
-20 -49 -56 -63 -81 -13 -25 -26 -47 -29 -50 -3 -3 -6 -9 -7 -15 -1 -5 -11
-32 -22 -60 -32 -80 -34 -88 -32 -133 2 -24 -2 -48 -7 -55 -32 -39 -45 -171
-25 -257 10 -43 10 -66 1 -110 -12 -52 -43 -98 -63 -92 -5 2 -14 -3 -20 -10
-22 -28 -71 -47 -117 -44 -52 4 -178 43 -178 56 0 5 -10 12 -21 15 -32 10 -98
58 -99 71 0 15 -31 50 -50 56 -20 7 -50 -9 -50 -27 0 -8 -5 -15 -11 -15 -6 0
-9 -9 -6 -20 3 -11 1 -20 -4 -20 -5 0 -9 -12 -9 -27 0 -48 -36 -147 -62 -176
-27 -29 -39 -33 -125 -43 -36 -5 -56 -3 -68 7 -33 27 -57 54 -79 89 -16 26
-30 36 -52 38 -44 4 -65 -31 -60 -99 2 -29 -1 -66 -7 -83 -13 -38 -75 -96
-102 -96 -12 0 -26 -5 -32 -11 -18 -18 -83 -22 -102 -6 -9 8 -37 24 -62 36
-25 11 -61 39 -79 62 -40 47 -72 49 -103 7 l-20 -27 28 -52 c46 -88 35 -144
-42 -217 -66 -62 -74 -65 -177 -58 -96 5 -121 13 -161 53 -13 12 -40 25 -61
29 -32 6 -40 3 -56 -16 -22 -27 -15 -67 17 -95 44 -40 50 -98 16 -167 -19 -41
-71 -102 -71 -84 0 4 -12 -4 -27 -18 -14 -14 -45 -28 -67 -32 -22 -3 -52 -16
-67 -27 -15 -11 -35 -17 -43 -14 -9 4 -28 2 -42 -3 -23 -9 -25 -14 -19 -50 10
-60 -40 -150 -90 -159 -5 -1 -29 -13 -52 -26 -23 -14 -56 -27 -75 -30 -70 -11
-164 -12 -188 -1 -53 22 -112 69 -150 119 -49 66 -62 142 -43 257 24 144 25
147 106 245 32 39 116 97 128 89 5 -3 9 0 9 5 0 12 42 14 75 5 11 -3 38 -30
59 -60 40 -55 53 -62 87 -44 24 14 24 47 -1 85 -11 17 -20 40 -20 52 0 12 -5
25 -10 28 -17 11 -12 170 7 217 32 80 61 104 136 114 70 9 106 8 159 -7 31 -8
38 -15 43 -43 11 -53 41 -96 69 -96 14 0 28 6 33 13 4 6 8 77 9 157 2 220 11
246 107 338 53 50 169 76 197 45 4 -4 11 -51 14 -103 4 -52 8 -106 9 -119 5
-33 40 -45 78 -26 29 16 35 26 22 39 -14 13 -15 177 -1 194 7 8 13 38 14 66 0
31 15 93 37 156 46 132 85 172 207 209 50 16 140 20 140 7 0 -6 -5 -57 -12
-113 -16 -142 7 -213 68 -213 35 0 52 40 35 85 -13 37 -12 123 1 131 5 3 6 9
3 14 -7 12 32 111 53 135 10 11 25 25 34 30 54 34 133 91 136 97 2 4 19 10 38
14 19 3 34 9 34 13 0 4 6 8 13 9 6 0 42 3 80 7 37 3 67 2 67 -3 0 -5 6 -9 13
-9 37 -2 72 -15 93 -34 22 -21 22 -23 7 -53 -9 -17 -19 -33 -23 -36 -5 -3 -20
-27 -34 -54 -22 -42 -25 -57 -20 -109 3 -34 8 -65 10 -69 17 -26 80 19 87 62
6 40 40 116 57 130 3 3 17 21 30 40 29 42 62 73 110 102 19 12 37 25 40 30 3
4 22 14 42 22 20 9 39 20 43 26 3 5 21 10 38 11 18 0 57 6 87 12 94 20 189 15
239 -11z m486 -72 c17 -5 42 -11 56 -14 18 -4 29 -14 33 -32 6 -22 11 -25 31
-20 32 8 78 -22 125 -81 19 -24 43 -51 52 -61 10 -10 19 -30 20 -45 1 -15 6
-27 10 -27 4 0 8 -9 8 -19 0 -11 4 -22 9 -25 7 -5 37 -124 34 -136 -1 -3 -4
-36 -8 -75 -4 -38 -11 -77 -16 -86 -4 -9 -6 -19 -3 -22 3 -3 -6 -23 -20 -45
-14 -22 -23 -42 -20 -45 7 -7 -21 -60 -40 -76 -13 -11 -20 -11 -41 3 -14 9
-42 18 -62 19 -30 2 -39 -3 -54 -28 -10 -16 -21 -37 -25 -45 -35 -90 -32 -86
-100 -100 -35 -8 -64 -16 -64 -19 0 -3 -32 -7 -70 -8 -39 -1 -70 2 -70 6 0 5
-11 6 -24 4 -15 -3 -40 5 -67 23 -24 15 -52 28 -61 29 -26 2 -95 81 -109 124
-6 20 -16 41 -21 48 -11 14 -28 168 -22 203 3 14 9 63 15 110 11 92 22 119 85
220 81 128 161 199 249 221 39 10 132 9 170 -1z"/>
<path d="M3857 2372 c-9 -4 -27 -23 -38 -41 -18 -30 -19 -39 -9 -82 13 -52 27
-69 80 -92 40 -17 69 -17 123 2 44 15 57 36 59 94 1 64 -9 85 -43 92 -37 8
-58 -14 -59 -61 0 -28 -2 -30 -30 -26 -34 5 -34 4 -20 52 17 61 -6 84 -63 62z"/>
</g>
</svg>
