<?xml version="1.0" standalone="no"?>
<!DOCTYPE svg PUBLIC "-//W3C//DTD SVG 20010904//EN"
 "http://www.w3.org/TR/2001/REC-SVG-20010904/DTD/svg10.dtd">
<svg version="1.0" xmlns="http://www.w3.org/2000/svg"
 width="477.000000pt" height="445.000000pt" viewBox="0 0 477.000000 445.000000"
 preserveAspectRatio="xMidYMid meet">
<metadata>
Created by potrace 1.16, written by Peter Selinger 2001-2019
</metadata>
<g transform="translate(0.000000,445.000000) scale(0.100000,-0.100000)"
fill="#000000" stroke="none">
<path d="M3099 4413 c-19 -21 -77 -76 -128 -123 -161 -145 -323 -315 -406
-425 -21 -27 -42 -51 -47 -53 -4 -2 -8 -8 -8 -13 0 -4 -18 -28 -39 -51 -47
-51 -85 -100 -145 -188 -61 -90 -186 -288 -186 -294 0 -12 -63 -142 -75 -156
-30 -34 -117 -213 -160 -330 -26 -69 -56 -150 -67 -180 -12 -30 -25 -73 -30
-95 -4 -22 -10 -46 -11 -53 -5 -19 -20 -30 -47 -35 -77 -15 -150 -46 -209 -91
-19 -14 -39 -26 -43 -26 -5 0 -25 -16 -46 -35 -114 -106 -122 -111 -208 -113
-43 -1 -90 -4 -104 -7 -14 -2 -47 -7 -75 -10 -153 -18 -335 -183 -335 -303 0
-79 28 -143 88 -199 30 -29 68 -58 82 -65 25 -11 27 -16 23 -57 -2 -25 -11
-62 -18 -81 -13 -31 -36 -147 -49 -240 -3 -19 -10 -57 -15 -85 -11 -51 -61
-303 -67 -340 -2 -11 -11 -65 -20 -120 -9 -55 -20 -105 -25 -111 -11 -13 0
-74 13 -74 20 0 57 48 51 68 -3 11 0 36 6 54 6 18 13 71 16 118 4 47 10 101
16 120 5 19 9 54 9 76 0 23 9 69 20 104 11 34 17 66 14 72 -3 5 -1 14 4 21 9
10 46 152 67 257 4 19 11 40 15 45 4 6 10 26 14 47 4 20 13 39 22 42 8 3 14
14 12 23 -3 16 6 18 70 19 67 1 141 9 185 20 9 2 23 5 30 7 68 17 124 45 157
78 21 22 41 39 44 39 4 0 18 -8 30 -17 l24 -18 -28 -40 c-15 -22 -40 -65 -57
-95 -17 -31 -50 -85 -75 -120 -25 -36 -48 -75 -52 -87 -12 -36 -57 -113 -67
-113 -5 0 -9 -7 -9 -15 0 -8 -4 -15 -10 -15 -5 0 -10 -6 -10 -14 0 -8 -6 -16
-14 -19 -7 -3 -23 -26 -36 -51 -26 -55 -22 -116 16 -210 13 -33 26 -89 29
-125 3 -36 10 -93 16 -126 20 -118 31 -201 33 -258 1 -59 12 -77 48 -77 31 0
34 56 9 170 -6 25 -15 77 -21 115 -5 39 -13 86 -16 105 -3 19 -9 67 -14 105
-5 39 -15 88 -24 111 -8 23 -18 63 -21 91 -6 43 -4 53 17 79 30 35 97 137 118
179 8 17 28 50 44 75 17 25 46 77 66 115 54 106 87 153 118 169 25 13 36 12
97 -4 75 -20 95 -37 96 -84 1 -50 9 -89 25 -120 8 -16 14 -41 14 -55 0 -14 7
-39 15 -55 9 -16 15 -37 14 -45 -1 -9 4 -29 10 -46 7 -16 14 -71 16 -122 2
-50 5 -95 7 -100 6 -12 -7 -70 -30 -133 -3 -8 -7 -26 -9 -40 -2 -13 -14 -52
-25 -85 -21 -62 -29 -91 -52 -185 -22 -89 -49 -175 -57 -180 -31 -22 -28 -101
4 -113 16 -6 61 26 51 35 -3 3 2 23 12 44 9 22 16 50 15 63 0 13 3 29 8 35 5
6 20 56 34 111 37 141 44 168 78 280 17 55 35 116 41 136 8 27 7 50 -1 86 -7
27 -14 79 -16 116 -2 37 -6 71 -10 77 -12 20 -33 114 -28 127 3 7 1 13 -5 13
-5 0 -12 19 -16 42 -4 23 -11 45 -16 48 -5 3 -10 29 -12 59 l-3 53 75 4 c41 2
92 6 113 10 26 4 37 2 37 -7 0 -7 10 -26 23 -43 27 -36 84 -178 89 -221 1 -16
8 -41 15 -54 7 -14 9 -29 6 -34 -3 -5 0 -13 7 -17 8 -5 9 -13 2 -26 -6 -11
-21 -64 -33 -119 -12 -55 -24 -104 -25 -110 -9 -34 -46 -217 -50 -250 -3 -21
-7 -42 -10 -46 -2 -4 -6 -24 -10 -45 -3 -22 -12 -59 -20 -83 -8 -24 -12 -46
-9 -49 2 -3 -1 -12 -7 -20 -28 -33 -7 -92 33 -89 26 2 40 27 45 81 4 40 12 83
34 181 6 28 13 70 16 95 3 25 23 122 45 215 72 308 69 281 46 339 -10 28 -25
71 -32 96 -7 25 -20 59 -29 75 -9 17 -16 33 -16 37 0 4 -11 32 -25 62 -27 60
-30 76 -14 76 21 0 105 43 130 66 14 14 32 22 41 19 14 -5 58 -97 58 -121 0
-6 9 -19 20 -29 10 -9 27 -40 36 -67 10 -31 33 -67 59 -94 24 -24 47 -54 51
-66 8 -26 55 -101 67 -106 4 -2 7 -10 7 -17 0 -7 5 -15 11 -17 18 -6 27 -118
23 -293 -3 -93 -6 -281 -7 -418 l-3 -248 31 -8 c43 -12 52 0 48 66 -2 32 -2
186 -1 343 4 495 3 520 -16 578 -11 32 -31 65 -51 83 -18 16 -45 53 -60 82
-16 29 -41 63 -56 76 -16 13 -38 49 -49 80 -12 31 -30 65 -39 76 -10 11 -26
43 -35 71 -9 28 -28 61 -41 74 l-24 23 21 31 c12 17 32 40 44 51 12 11 23 25
25 32 6 19 105 -69 242 -215 31 -34 57 -63 57 -65 0 -2 15 -20 34 -40 19 -20
55 -69 82 -109 63 -96 122 -166 173 -203 22 -16 41 -36 41 -42 0 -7 7 -13 15
-13 8 0 40 -14 71 -31 96 -52 152 -68 224 -64 36 1 78 8 93 14 16 6 32 11 37
11 18 0 144 120 155 147 31 74 26 147 -17 243 -36 80 -53 115 -59 120 -3 3
-23 34 -44 70 -54 88 -151 191 -320 336 -44 37 -82 71 -85 74 -3 3 -17 11 -32
17 -15 7 -45 28 -66 48 -22 19 -43 35 -47 35 -4 0 -35 17 -69 38 -59 36 -83
48 -136 69 -25 10 -151 18 -242 15 -53 -2 -69 11 -36 29 13 7 66 44 118 83 52
39 137 98 188 131 51 33 136 89 190 124 53 35 129 79 167 98 39 19 78 38 87
43 9 5 48 26 87 45 60 31 146 83 186 113 25 18 94 52 107 52 8 0 43 18 77 40
33 22 79 49 100 59 21 11 55 36 75 56 20 19 42 35 49 35 22 0 38 40 38 93 0
173 10 419 19 460 23 112 6 241 -37 272 -16 12 -48 9 -68 -5 -5 -4 -23 -10
-40 -14 -16 -3 -66 -19 -110 -35 -70 -26 -139 -49 -184 -62 -7 -2 -50 -23 -94
-46 -44 -24 -85 -39 -91 -35 -6 4 -20 7 -31 7 -18 0 -20 6 -17 63 2 36 -1 69
-7 76 -6 7 -13 41 -16 75 -2 33 -12 75 -20 91 -8 16 -15 31 -14 32 1 2 -1 21
-5 43 -14 77 -40 140 -70 173 -41 44 -73 42 -117 -5z m90 -85 c7 -24 17 -51
22 -60 5 -10 9 -28 9 -41 0 -12 9 -47 19 -78 11 -30 21 -80 23 -112 1 -31 6
-57 10 -57 12 0 9 -35 -6 -71 -15 -35 -4 -79 19 -79 7 0 15 -9 18 -19 3 -13
-3 -23 -22 -32 -14 -8 -28 -16 -31 -20 -3 -3 -23 -16 -45 -29 -22 -13 -80 -65
-130 -115 -182 -184 -292 -301 -296 -313 -2 -7 -51 -60 -109 -120 -58 -59
-128 -134 -155 -166 -28 -33 -59 -69 -70 -80 -11 -12 -34 -39 -50 -61 -40 -54
-46 -60 -157 -194 -155 -184 -152 -181 -186 -181 -17 0 -33 -4 -36 -9 -3 -4
-29 -11 -58 -14 -29 -3 -62 -9 -72 -13 -18 -7 -19 -4 -12 47 4 30 18 75 32
102 13 26 22 47 19 47 -3 0 2 14 11 31 8 17 17 40 20 52 7 41 36 118 61 165
42 79 86 157 93 162 10 8 36 59 68 130 16 36 51 99 78 139 60 88 67 100 124
193 25 40 72 102 106 138 34 36 79 90 100 121 60 88 359 409 380 409 6 0 37
27 67 61 56 60 112 107 133 108 6 1 16 -18 23 -41z m761 -358 c24 -13 24 -58
3 -194 -8 -54 -12 -117 -10 -140 3 -23 2 -88 -4 -146 -5 -58 -10 -123 -12
-145 -6 -63 -6 -67 -16 -60 -5 3 -12 -4 -16 -15 -3 -11 -13 -20 -21 -20 -8 0
-14 -7 -14 -15 0 -8 -5 -15 -10 -15 -6 0 -21 -9 -33 -21 -12 -11 -71 -45 -132
-75 -117 -59 -195 -103 -260 -148 -22 -16 -112 -64 -200 -107 -88 -44 -187
-100 -220 -125 -33 -24 -88 -58 -121 -74 -34 -17 -77 -44 -95 -60 -19 -16 -45
-35 -59 -42 -14 -7 -27 -16 -30 -19 -3 -3 -26 -20 -53 -38 -26 -18 -57 -42
-70 -54 -27 -27 -181 -125 -257 -162 -30 -15 -59 -34 -65 -41 -12 -15 -105
-67 -105 -59 0 3 -11 -5 -24 -19 -19 -18 -23 -30 -18 -47 9 -30 58 -39 66 -12
6 17 47 47 89 65 16 7 83 54 97 68 8 8 80 40 90 40 6 0 10 -5 10 -11 0 -7 7
-17 15 -23 42 -31 18 -226 -37 -306 -18 -25 -42 -55 -55 -67 -13 -13 -21 -23
-17 -23 4 0 0 -8 -8 -17 -9 -10 -17 -25 -20 -33 -5 -16 -18 4 -57 86 -23 49
-37 56 -68 36 -31 -20 -29 -56 5 -89 16 -16 37 -43 47 -60 19 -32 19 -33 0
-59 -11 -14 -38 -33 -60 -41 -22 -8 -60 -23 -85 -33 -61 -25 -179 -39 -257
-30 -27 4 -35 11 -48 42 -8 21 -15 51 -15 66 0 16 -6 37 -14 47 -12 17 -18 18
-40 7 -30 -13 -33 -36 -11 -97 8 -22 15 -41 15 -42 0 -10 -50 0 -66 12 -10 8
-27 15 -36 15 -10 0 -18 4 -18 10 0 5 -7 7 -14 4 -8 -3 -25 4 -37 15 -13 12
-29 21 -37 21 -8 0 -11 7 -8 18 18 66 23 158 11 207 -12 44 -76 121 -109 131
-16 5 -34 17 -40 27 -9 15 -6 22 14 38 14 10 32 25 40 33 8 7 57 44 109 80 68
48 114 72 165 87 39 12 103 32 141 45 39 14 88 26 111 28 22 2 47 7 54 11 7 4
-2 -14 -20 -41 -19 -27 -37 -50 -42 -52 -4 -2 -8 -9 -8 -15 0 -6 -8 -19 -17
-29 -23 -25 -6 -55 28 -49 27 4 67 45 75 79 4 12 10 22 15 22 5 0 9 9 9 19 0
10 12 32 28 48 15 17 36 47 47 67 11 20 29 46 40 59 11 12 52 60 90 107 39 47
85 101 103 122 19 20 44 51 57 68 13 18 52 62 87 98 35 36 68 75 74 85 11 20
144 162 320 343 50 51 99 106 109 120 18 28 98 105 151 146 16 13 38 31 49 41
11 10 53 35 93 54 39 20 72 39 72 43 0 4 24 19 53 35 28 15 59 33 67 40 8 7
47 23 85 35 39 12 90 31 115 42 25 11 83 31 130 43 47 13 86 24 88 24 2 1 12
-4 22 -9z m-1320 -1731 c0 -5 5 -7 11 -3 36 22 195 -9 263 -51 128 -79 233
-153 304 -213 85 -72 272 -262 272 -277 0 -3 11 -18 25 -33 14 -15 25 -31 25
-35 0 -5 8 -21 19 -35 25 -37 72 -178 76 -231 6 -64 -28 -115 -105 -163 -50
-30 -163 -43 -196 -21 -11 7 -24 10 -27 6 -4 -3 -7 -2 -7 3 0 5 -10 11 -22 11
-27 2 -119 47 -169 83 -64 46 -94 75 -113 113 -11 20 -22 37 -26 37 -4 0 -13
13 -20 29 -6 16 -24 40 -38 54 -15 14 -45 48 -67 77 -37 47 -123 143 -221 245
-22 22 -57 55 -79 73 -36 29 -38 33 -22 43 9 5 15 15 11 20 -3 5 -1 15 4 22 5
7 14 41 20 76 6 35 16 69 22 76 5 7 7 26 4 44 -4 19 -2 37 6 46 14 17 50 20
50 4z m-1319 -191 c15 -15 36 -28 48 -28 49 0 110 -45 111 -82 0 -10 4 -18 8
-18 8 0 7 -91 -2 -140 -2 -14 -5 -28 -5 -32 -2 -18 -52 -59 -111 -92 -67 -36
-173 -61 -255 -58 -80 2 -145 14 -159 28 -8 8 -18 14 -21 14 -4 0 -25 14 -47
32 -57 45 -85 116 -79 198 1 8 19 35 41 59 22 25 40 48 40 52 0 3 8 9 18 13 9
3 41 19 70 35 51 29 73 35 187 47 27 3 51 7 54 10 12 12 79 -12 102 -38z"/>
</g>
</svg>
