<?xml version="1.0" standalone="no"?>
<!DOCTYPE svg PUBLIC "-//W3C//DTD SVG 20010904//EN"
 "http://www.w3.org/TR/2001/REC-SVG-20010904/DTD/svg10.dtd">
<svg version="1.0" xmlns="http://www.w3.org/2000/svg"
 width="158.000000pt" height="176.000000pt" viewBox="0 0 158.000000 176.000000"
 preserveAspectRatio="xMidYMid meet">
<metadata>
Created by potrace 1.16, written by Peter Selinger 2001-2019
</metadata>
<g transform="translate(0.000000,176.000000) scale(0.100000,-0.100000)"
fill="#000000" stroke="none">
<path d="M453 1493 c-31 -6 -63 -50 -63 -85 0 -16 -13 -67 -30 -114 -16 -46
-28 -84 -27 -85 1 0 10 -2 20 -4 10 -2 24 -11 31 -20 11 -16 15 -14 35 16 13
19 20 25 16 14 -4 -11 -10 -29 -13 -40 -2 -11 -10 -26 -16 -34 -8 -11 -8 -13
2 -7 7 4 12 2 12 -8 0 -8 -5 -16 -11 -18 -17 -6 6 -53 63 -123 54 -68 61 -75
52 -50 -10 25 9 16 46 -20 33 -34 33 -48 0 -22 -42 32 37 -36 119 -102 50 -41
94 -84 97 -95 3 -12 19 -28 35 -35 17 -7 35 -24 41 -37 6 -13 18 -24 26 -24 8
0 43 -14 77 -30 55 -26 85 -54 226 -205 90 -96 165 -175 167 -175 2 0 -18 24
-45 54 -94 105 -179 201 -193 221 -53 69 104 -87 230 -230 29 -33 62 -69 73
-80 30 -30 -26 38 -131 159 -51 58 -90 106 -87 106 3 0 20 -8 38 -17 18 -9 35
-16 40 -15 4 1 7 -2 7 -6 0 -5 11 -14 25 -20 22 -10 25 -9 25 8 0 11 -4 20
-10 20 -5 0 -10 6 -10 13 0 8 -10 22 -22 33 l-23 19 19 -25 c11 -14 3 -9 -16
10 -84 81 -100 93 -107 81 -5 -8 -15 -3 -31 14 -23 24 -47 35 -35 15 3 -5 4
-10 2 -10 -2 0 -17 19 -32 43 l-28 42 35 -30 c89 -75 113 -82 59 -18 -120 142
-203 252 -207 273 -5 27 -14 45 -58 116 -24 40 -27 50 -17 73 10 23 10 24 -3
8 -16 -21 -19 -18 -71 78 -21 39 -55 90 -75 115 -22 26 -44 69 -54 102 -30
106 -115 168 -203 151z m67 -41 c3 -2 -9 -1 -25 2 -17 3 -24 3 -16 0 11 -5 11
-8 0 -16 -11 -7 -9 -9 6 -5 11 2 26 -2 33 -10 7 -7 9 -13 5 -14 -4 0 -18 -2
-30 -3 -27 -3 -82 37 -64 48 7 4 10 2 9 -5 -2 -6 4 -14 12 -17 8 -2 12 -1 7 3
-4 5 0 17 9 27 14 14 20 16 33 6 9 -7 18 -14 21 -16z m-76 -71 c3 -5 -3 -11
-15 -14 -16 -4 -18 -3 -8 9 13 16 16 17 23 5z m118 -95 c11 -16 -1 -26 -31
-26 -19 0 -30 6 -33 18 -4 14 1 18 26 18 17 0 34 -5 38 -10z m-72 -18 c0 -11
-22 -10 -40 2 -11 8 -9 9 13 8 15 -1 27 -6 27 -10z m-52 -213 c-3 -3 -9 2 -12
12 -6 14 -5 15 5 6 7 -7 10 -15 7 -18z m38 -1 c-3 -8 -1 -25 5 -36 6 -11 9
-22 6 -24 -7 -7 -36 59 -31 68 9 15 26 8 20 -8z m194 -81 c0 -2 -18 10 -40 27
-22 17 -40 34 -40 37 0 2 18 -10 40 -27 22 -17 40 -34 40 -37z m68 31 c5 3 7
-5 4 -20 -2 -14 -10 -23 -16 -21 -6 3 -10 9 -9 15 2 6 -9 20 -22 30 -35 28
-31 37 4 11 16 -12 33 -19 39 -15z m72 -60 c0 -8 -4 -14 -10 -14 -5 0 -9 3 -9
8 3 20 -2 32 -13 26 -7 -4 -8 -3 -4 5 10 15 36 -4 36 -25z m31 -46 c11 -21 11
-22 -4 -9 -10 7 -17 17 -17 22 0 15 9 10 21 -13z m-81 -52 c0 6 -5 15 -12 22
-7 7 -10 12 -7 12 3 0 19 -15 37 -33 32 -33 32 -33 8 -32 -13 0 -27 3 -31 7
-4 4 -13 4 -20 2 -7 -3 -16 0 -21 7 -5 9 -2 10 11 5 17 -6 18 -5 3 11 -30 36
-30 47 0 19 18 -17 32 -25 32 -20z m45 28 c8 -9 22 -29 30 -45 9 -16 21 -29
27 -29 6 0 8 -3 5 -7 -7 -6 -55 39 -86 80 -17 22 2 23 24 1z m63 -29 c-3 -3
-9 2 -12 12 -6 14 -5 15 5 6 7 -7 10 -15 7 -18z m-108 -71 c0 -8 -19 -13 -24
-6 -3 5 1 9 9 9 8 0 15 -2 15 -3z m243 -113 c23 -24 37 -41 30 -37 -9 5 -10
-3 -6 -29 8 -47 -4 -45 -17 3 -5 22 -24 59 -42 83 -28 39 -32 41 -39 24 -7
-18 -8 -17 -8 5 -1 14 -8 37 -17 50 -9 14 0 7 20 -15 20 -22 56 -60 79 -84z
m-150 89 c-3 -12 -8 -19 -11 -16 -5 6 5 36 12 36 2 0 2 -9 -1 -20z m34 -32
c-3 -8 -6 -5 -6 6 -1 11 2 17 5 13 3 -3 4 -12 1 -19z m57 -87 c-2 -3 -12 3
-22 13 -16 17 -16 18 5 5 12 -7 20 -15 17 -18z m185 -131 c11 -24 11 -24 -3
-6 -9 11 -16 24 -16 30 0 12 5 7 19 -24z m66 -29 c12 -23 12 -31 2 -37 -6 -4
-9 -4 -5 1 4 4 1 20 -8 36 -8 16 -12 29 -10 29 3 0 12 -13 21 -29z m56 -24
c10 -18 6 -17 -20 7 -36 34 -39 41 -11 26 11 -6 25 -20 31 -33z"/>
<path d="M765 830 c3 -5 8 -10 11 -10 2 0 4 5 4 10 0 6 -5 10 -11 10 -5 0 -7
-4 -4 -10z"/>
<path d="M930 1172 c0 -6 -12 -25 -26 -42 -15 -17 -24 -33 -22 -36 3 -2 18 14
33 36 15 22 25 43 21 47 -3 3 -6 1 -6 -5z"/>
<path d="M569 694 c-10 -13 -10 -17 0 -23 10 -6 9 -10 -3 -14 -9 -4 -16 -14
-16 -24 1 -17 1 -17 11 0 14 23 32 22 24 -2 -3 -11 -1 -22 5 -26 5 -3 10 -1
10 6 0 7 8 21 17 31 16 18 15 20 -9 43 -23 21 -28 22 -39 9z"/>
<path d="M810 635 c13 -14 28 -25 33 -25 6 0 0 11 -13 25 -13 14 -28 25 -33
25 -6 0 0 -11 13 -25z"/>
<path d="M526 533 c-6 -14 -5 -15 5 -6 7 7 10 15 7 18 -3 3 -9 -2 -12 -12z"/>
<path d="M1360 177 c0 -2 15 -16 33 -33 l32 -29 -29 33 c-28 30 -36 37 -36 29z"/>
</g>
</svg>
