<?xml version="1.0" standalone="no"?>
<!DOCTYPE svg PUBLIC "-//W3C//DTD SVG 20010904//EN"
 "http://www.w3.org/TR/2001/REC-SVG-20010904/DTD/svg10.dtd">
<svg version="1.0" xmlns="http://www.w3.org/2000/svg"
 width="541.000000pt" height="453.000000pt" viewBox="0 0 541.000000 453.000000"
 preserveAspectRatio="xMidYMid meet">
<metadata>
Created by potrace 1.16, written by Peter Selinger 2001-2019
</metadata>
<g transform="translate(0.000000,453.000000) scale(0.100000,-0.100000)"
fill="#000000" stroke="none">
<path d="M4422 4423 c-28 -3 -47 -11 -55 -24 -6 -10 -16 -19 -21 -19 -6 0 -35
-17 -66 -39 -67 -47 -131 -85 -185 -110 -52 -24 -145 -118 -175 -176 -13 -25
-28 -44 -34 -42 -6 3 -19 0 -29 -5 -24 -12 -56 -12 -142 1 -86 14 -76 13 -160
6 -82 -8 -104 -20 -194 -106 -36 -35 -80 -74 -96 -87 -17 -12 -29 -25 -27 -27
2 -3 1 -19 -3 -35 -5 -23 0 -40 24 -75 17 -25 31 -48 31 -51 0 -6 81 -78 94
-83 6 -2 24 -13 40 -24 16 -12 59 -35 95 -52 76 -37 172 -105 164 -117 -2 -5
-23 -21 -46 -35 -23 -14 -58 -41 -77 -59 -19 -18 -46 -39 -60 -46 -14 -7 -31
-21 -38 -30 -7 -10 -19 -18 -26 -18 -7 0 -27 -12 -44 -27 -17 -16 -54 -44 -82
-63 -27 -19 -65 -48 -83 -63 -17 -16 -50 -40 -72 -54 -206 -132 -261 -168
-265 -173 -25 -27 -119 -95 -180 -130 -41 -24 -127 -78 -190 -120 -63 -42
-155 -96 -205 -121 -49 -24 -91 -47 -93 -51 -2 -5 -9 -8 -15 -8 -5 0 -40 -22
-76 -48 -86 -63 -220 -129 -230 -114 -4 6 -29 14 -56 17 -27 4 -81 18 -119 32
-114 41 -297 104 -346 119 -25 7 -76 24 -114 38 -38 14 -73 23 -77 20 -4 -2
-10 0 -14 6 -3 5 -15 10 -25 10 -30 0 -110 30 -153 57 -22 14 -83 36 -136 49
-53 14 -132 35 -176 49 -102 31 -209 39 -273 20 -54 -16 -200 -111 -264 -171
-55 -52 -128 -157 -128 -184 0 -34 30 -82 78 -125 25 -22 57 -53 71 -68 22
-24 86 -77 160 -132 7 -5 30 -26 50 -46 20 -20 56 -48 81 -64 24 -15 51 -34
58 -41 7 -8 19 -17 26 -21 6 -5 25 -26 41 -47 16 -21 43 -45 60 -53 32 -14 67
-35 75 -44 3 -3 34 -23 70 -44 36 -21 79 -49 97 -62 29 -22 32 -23 41 -7 5 9
15 15 22 12 8 -2 4 -14 -15 -36 -14 -17 -31 -49 -37 -69 -5 -21 -18 -47 -28
-58 -9 -11 -27 -54 -38 -95 -26 -92 -46 -157 -73 -235 -12 -33 -24 -85 -26
-115 -3 -30 -9 -59 -13 -65 -9 -12 -19 -90 -24 -190 -5 -89 23 -203 71 -299
20 -39 37 -76 37 -82 1 -5 20 -31 42 -57 55 -63 190 -131 243 -123 20 3 77 8
126 11 50 4 116 14 148 22 32 8 61 12 64 9 3 -2 26 9 53 25 26 16 58 29 72 29
13 0 45 13 70 29 60 38 178 101 190 101 5 0 30 15 56 32 62 43 98 62 147 78
22 7 44 16 49 21 6 5 20 9 32 9 12 0 24 3 26 8 7 15 97 82 112 82 8 0 17 4 20
9 3 4 18 11 33 14 16 3 51 26 78 51 28 25 56 46 63 46 8 0 39 19 70 43 32 24
62 46 68 50 6 3 42 0 80 -9 85 -19 165 -35 364 -74 85 -17 166 -33 180 -36 14
-2 32 -5 40 -5 8 0 38 -7 65 -15 55 -15 212 -54 235 -58 8 -1 29 -8 45 -15 17
-7 50 -17 75 -23 25 -6 104 -31 176 -55 73 -23 154 -46 180 -49 27 -4 56 -12
64 -18 24 -18 60 -32 130 -50 36 -10 83 -26 105 -36 40 -19 63 -25 142 -37
129 -18 358 113 580 335 46 45 87 82 92 82 13 0 41 64 41 95 0 14 -12 46 -26
71 -20 33 -32 44 -51 44 -30 0 -172 47 -193 64 -8 6 -28 18 -45 26 -27 13 -93
52 -150 87 -44 27 -113 57 -160 69 -70 17 -112 33 -170 62 -75 37 -205 92
-205 86 0 -3 -17 4 -37 15 -75 40 -185 80 -236 87 -15 2 -38 9 -50 16 -12 7
-35 17 -52 24 -16 6 -81 32 -143 58 -62 25 -120 46 -130 46 -16 1 -16 1 1 14
9 7 17 16 17 20 0 17 120 146 350 377 135 135 281 285 325 334 44 49 106 113
137 144 31 31 77 82 101 114 40 51 85 104 171 197 73 81 87 212 44 436 -17 91
-15 93 94 92 176 0 207 5 270 46 32 20 81 64 109 99 29 34 57 67 64 72 39 35
88 110 92 145 14 100 -32 166 -127 184 -19 3 -46 9 -60 11 -14 3 -52 10 -85
16 -32 6 -64 14 -70 18 -10 9 -128 33 -156 33 -9 0 -16 5 -17 11 -12 85 -22
149 -26 156 -3 4 -8 22 -11 40 -25 143 -76 261 -112 261 -5 0 -15 6 -21 12 -7
7 -34 18 -60 24 -26 6 -54 13 -62 16 -8 2 -34 3 -58 1z m72 -124 c-8 -9 -30
-20 -49 -23 -18 -4 -39 -13 -46 -22 -7 -8 -18 -13 -26 -10 -7 3 -13 1 -13 -4
0 -6 -9 -10 -19 -10 -11 0 -26 -8 -33 -18 -7 -10 -30 -28 -50 -41 -21 -12 -41
-28 -45 -34 -5 -7 -25 -24 -45 -40 -20 -15 -40 -37 -44 -49 -3 -12 -14 -30
-24 -40 -21 -23 -51 -126 -56 -198 -2 -30 -6 -82 -8 -115 -7 -88 -46 -264 -65
-289 -4 -6 -9 -28 -10 -50 -1 -21 -8 -45 -16 -53 -8 -8 -15 -18 -15 -23 0 -19
-81 -127 -120 -160 -23 -19 -47 -39 -54 -45 -7 -5 -20 -15 -31 -21 -27 -15
-38 -64 -20 -84 28 -31 52 -20 132 59 125 125 185 214 209 311 8 30 23 84 34
120 23 79 39 178 45 285 5 103 13 139 41 200 27 59 37 72 87 109 21 16 35 31
32 34 -10 10 174 112 202 112 18 0 76 30 84 43 19 28 52 -30 64 -113 1 -8 10
-46 19 -83 9 -38 16 -82 16 -98 0 -28 -2 -30 -32 -27 -26 2 -34 -2 -49 -28
-17 -31 -17 -33 7 -68 24 -35 56 -47 69 -25 11 16 199 8 255 -12 27 -9 51 -15
53 -12 3 2 29 -2 58 -11 30 -8 71 -17 91 -21 21 -3 44 -13 53 -21 21 -22 19
-77 -5 -107 -11 -14 -20 -27 -20 -30 0 -3 -12 -19 -27 -35 -16 -16 -56 -59
-90 -96 -35 -37 -73 -69 -85 -70 -13 -2 -31 -7 -41 -11 -9 -4 -26 -5 -38 -2
-11 3 -33 2 -49 -3 -16 -4 -45 -5 -65 0 -20 4 -48 5 -63 1 -15 -4 -47 -4 -71
1 -24 4 -94 13 -155 18 -137 13 -174 24 -187 57 -12 32 -12 73 1 73 6 0 10 8
10 18 0 9 11 31 25 47 104 126 121 143 161 155 50 14 70 47 52 84 -11 25 -38
43 -38 26 0 -4 -13 -11 -30 -15 -16 -4 -30 -11 -30 -16 0 -5 -5 -9 -11 -9 -16
0 -142 -131 -180 -186 -43 -63 -61 -111 -65 -176 -4 -52 -2 -58 23 -76 44 -31
100 -51 161 -57 31 -3 75 -9 97 -12 22 -3 48 -6 57 -7 9 0 15 -3 13 -6 -2 -4
3 -19 11 -35 8 -16 16 -36 18 -44 2 -9 8 -29 15 -45 12 -31 26 -145 24 -206
-2 -94 -15 -127 -77 -195 -25 -27 -46 -54 -46 -60 0 -5 -29 -41 -65 -80 -35
-38 -65 -74 -65 -78 0 -5 -39 -47 -87 -96 -49 -48 -140 -142 -203 -210 -120
-128 -211 -218 -320 -317 -73 -66 -105 -99 -136 -134 -12 -14 -53 -54 -92 -90
-48 -44 -72 -72 -72 -87 0 -16 -6 -23 -19 -23 -11 0 -21 4 -23 8 -9 24 -173
58 -203 43 -5 -3 -12 -6 -15 -7 -39 -7 -166 -74 -197 -102 -17 -16 -47 -40
-65 -52 -71 -49 -198 -201 -198 -237 0 -8 -8 -23 -18 -33 -10 -11 -28 -46 -41
-77 -12 -32 -27 -67 -34 -78 -6 -11 -32 -64 -59 -117 -27 -54 -52 -98 -57 -98
-5 0 -24 -13 -42 -30 -19 -16 -37 -30 -41 -30 -4 0 -16 -6 -25 -14 -10 -8 -38
-31 -63 -50 -25 -19 -52 -41 -60 -48 -9 -7 -40 -24 -70 -38 -30 -14 -69 -35
-87 -47 -18 -12 -121 -68 -230 -124 -317 -164 -345 -179 -357 -187 -6 -5 -36
-14 -66 -21 -30 -8 -68 -20 -83 -28 -16 -8 -59 -16 -95 -19 -37 -2 -89 -7
-117 -10 -77 -8 -100 -6 -152 19 -41 19 -143 112 -143 130 0 4 -14 29 -30 56
-37 60 -51 118 -57 244 -5 94 3 120 25 81 5 -8 26 -17 48 -19 21 -2 53 -10 69
-19 17 -9 38 -16 48 -16 10 0 27 -5 38 -10 31 -17 160 -17 284 1 171 24 215
33 215 41 0 5 4 7 8 4 17 -10 89 34 134 82 50 53 112 144 128 188 6 15 11 70
12 123 0 53 4 121 9 151 9 54 8 55 -29 93 -45 47 -63 57 -110 63 -20 3 -40 8
-45 13 -4 4 -29 3 -55 -4 -28 -6 -112 -10 -207 -8 -238 4 -247 6 -249 57 -1
13 -10 34 -20 45 -17 19 -16 21 63 98 44 43 99 94 122 113 23 19 49 42 58 51
18 16 90 54 231 124 135 66 164 82 275 150 61 37 148 87 195 112 102 53 115
61 160 93 40 29 65 44 100 62 14 6 39 21 55 32 17 12 31 20 33 18 4 -4 142 68
142 76 0 4 21 18 48 32 26 13 70 40 97 59 82 56 97 67 160 106 49 31 139 98
200 147 6 5 37 26 70 48 85 56 101 67 184 129 136 103 186 139 301 218 14 9
38 28 53 40 33 26 47 29 47 9 0 -14 -87 -103 -117 -120 -45 -24 -56 -71 -23
-101 17 -15 23 -16 50 -5 17 7 41 28 54 46 12 18 34 43 49 54 28 22 87 104 87
122 0 6 11 31 24 57 22 41 36 100 36 156 0 31 28 142 56 222 13 39 31 106 39
150 20 102 69 222 110 264 41 43 108 91 171 125 27 14 51 29 54 33 3 3 23 15
45 26 22 11 43 24 47 29 12 17 59 31 104 32 41 1 43 0 28 -17z m-728 -383 c81
-5 97 -13 88 -44 -4 -15 -8 -38 -10 -52 -6 -47 -15 -82 -40 -153 -22 -64 -32
-96 -49 -174 -6 -25 -33 -31 -53 -11 -7 7 -12 9 -12 5 0 -4 -17 4 -37 18 -21
14 -42 25 -46 25 -5 0 -31 16 -57 35 -26 19 -52 35 -58 35 -6 0 -23 11 -39 24
-15 13 -32 25 -38 27 -18 7 -75 76 -75 92 0 22 133 155 172 172 32 13 52 14
254 1z m-3161 -1386 c3 -5 2 -10 -3 -10 -5 0 -32 -18 -60 -40 -41 -33 -52 -48
-57 -80 -6 -37 -3 -44 35 -90 40 -48 95 -87 114 -82 5 2 15 -6 23 -18 8 -11
21 -20 30 -20 9 0 26 -8 37 -19 12 -10 41 -25 66 -34 158 -56 196 -70 205 -77
6 -4 53 -25 105 -45 52 -20 102 -43 110 -50 8 -7 27 -17 43 -20 15 -4 27 -10
27 -14 0 -4 18 -15 40 -25 22 -10 38 -21 35 -26 -8 -13 -102 -69 -108 -64 -2
3 -19 -9 -37 -26 -18 -16 -34 -30 -35 -30 -5 0 -114 -111 -147 -149 -22 -26
-32 -30 -52 -25 -15 3 -28 10 -31 14 -3 5 -44 28 -93 51 -104 51 -184 104
-232 152 -31 31 -94 81 -160 127 -41 29 -94 73 -165 139 -11 10 -47 40 -80 66
-96 76 -115 112 -80 153 9 9 35 39 58 65 52 60 121 112 207 154 54 27 77 33
132 33 37 0 70 -4 73 -10z m282 -70 c18 0 124 -50 134 -63 3 -4 55 -19 115
-32 60 -14 132 -34 159 -44 28 -11 89 -32 137 -46 144 -43 372 -141 363 -155
-3 -5 -42 -28 -85 -50 -44 -22 -99 -52 -122 -67 -89 -58 -132 -62 -177 -19
-16 15 -53 31 -96 42 -38 9 -77 20 -85 25 -20 10 -115 53 -164 73 -21 9 -49
16 -62 16 -13 0 -24 4 -24 9 0 5 -14 13 -31 16 -18 4 -53 18 -80 31 -26 14
-68 28 -94 33 -26 5 -58 20 -73 33 -15 14 -49 40 -77 58 -27 18 -52 34 -53 36
-12 9 13 44 38 54 16 6 36 20 46 31 9 10 25 19 35 19 11 0 21 10 25 24 l6 23
74 -23 c41 -13 82 -24 91 -24z m2421 -929 c29 -6 63 -17 75 -25 12 -8 27 -15
32 -16 10 -1 25 -4 80 -15 l25 -5 -21 -29 c-23 -31 -59 -52 -99 -58 -42 -6
-114 -47 -125 -71 -5 -12 -16 -22 -23 -22 -10 0 -12 -6 -7 -17 4 -10 8 -24 9
-31 5 -29 83 -60 191 -77 11 -2 20 -4 20 -5 0 -1 8 -3 17 -5 10 -2 68 -19 130
-39 188 -61 230 -73 313 -96 44 -12 87 -24 95 -27 8 -4 17 -7 20 -7 3 -1 14
-7 25 -12 11 -6 67 -26 125 -43 58 -18 113 -37 122 -42 71 -37 257 -99 298
-99 29 0 39 5 53 30 22 36 98 99 127 105 25 5 156 -54 143 -64 -4 -4 -26 -13
-49 -19 -63 -18 -119 -61 -191 -148 -63 -77 -218 -249 -257 -286 -26 -24 -50
-26 -91 -9 -38 17 -184 61 -200 61 -9 0 -36 9 -61 20 -24 11 -59 23 -77 27
-17 3 -36 9 -42 13 -15 11 -167 58 -242 76 -38 8 -113 29 -168 45 -97 30 -117
35 -215 58 -42 10 -110 21 -155 24 -11 1 -25 5 -31 9 -6 4 -47 14 -90 22 -165
30 -321 64 -386 83 l-47 13 15 28 c21 39 74 161 74 170 0 12 81 178 114 235
17 28 66 78 116 117 24 19 52 42 62 50 46 41 83 62 113 66 11 1 43 11 70 21
28 11 52 16 55 12 3 -3 29 -12 58 -18z m-2275 -150 c27 -40 33 -42 142 -58 45
-6 101 -6 193 1 18 2 49 0 70 -4 20 -3 59 -2 85 2 63 9 145 -6 174 -34 21 -20
22 -27 18 -117 -8 -143 -13 -169 -42 -220 -85 -146 -162 -194 -330 -205 -40
-3 -77 -7 -82 -10 -12 -8 -179 -9 -211 -2 -42 9 -144 49 -165 64 -18 12 -9 13
70 7 164 -11 359 -12 410 -2 28 5 57 10 65 12 66 10 99 19 120 33 36 22 100
94 100 112 0 9 5 21 10 26 11 11 16 31 24 94 2 20 8 48 11 62 4 15 3 33 -1 40
-5 7 -9 20 -11 28 -5 35 -27 59 -62 66 -20 4 -43 9 -51 11 -49 14 -75 13 -142
-6 -41 -11 -83 -20 -94 -20 -16 0 -46 -5 -64 -11 -35 -13 -169 26 -233 68 -66
42 -69 47 -55 76 6 14 14 26 18 26 4 0 19 -17 33 -39z m2667 20 c19 -4 51 -14
70 -23 74 -32 148 -58 235 -83 49 -15 97 -32 105 -40 8 -7 39 -23 69 -35 30
-12 78 -32 105 -45 108 -50 143 -64 201 -80 52 -15 164 -66 203 -93 16 -11
-79 -109 -113 -118 -13 -3 -56 6 -96 21 -41 15 -94 32 -119 40 -43 12 -204 67
-390 132 -116 41 -189 63 -210 63 -10 0 -31 6 -47 14 -72 36 -193 79 -275 97
-81 19 -75 49 8 49 19 0 34 5 34 10 0 6 8 10 18 11 34 1 117 55 120 78 3 18 8
22 25 16 12 -4 38 -10 57 -14z m-2710 -160 c30 -16 70 -32 88 -36 18 -3 46
-13 62 -22 40 -20 188 -18 271 3 87 22 109 24 146 13 40 -13 47 -33 38 -112
-11 -98 -43 -159 -93 -178 -52 -20 -166 -31 -296 -30 -77 1 -142 3 -145 5 -3
2 -35 7 -71 11 -36 3 -80 11 -98 16 -18 6 -40 8 -48 5 -9 -3 -19 -4 -24 -1 -8
5 13 82 43 160 8 22 25 75 38 118 12 42 25 77 28 77 3 0 31 -13 61 -29z m4073
-447 c11 -11 -14 -47 -62 -89 -24 -22 -54 -51 -65 -64 -12 -13 -57 -51 -101
-84 -44 -33 -84 -67 -88 -74 -4 -7 -16 -13 -26 -13 -10 0 -37 -14 -60 -30 -36
-27 -115 -55 -101 -36 3 3 22 25 43 49 74 82 177 212 177 224 0 6 26 26 58 44
31 18 60 37 63 42 16 24 144 48 162 31z"/>
<path d="M4145 3039 c-54 -11 -70 -20 -89 -48 -11 -15 -32 -36 -47 -47 -15
-10 -27 -21 -26 -25 1 -4 -12 -22 -28 -40 -50 -55 -76 -123 -79 -203 -4 -97 7
-128 56 -170 35 -30 49 -36 87 -36 67 0 123 23 169 70 23 22 45 40 51 40 5 0
12 12 15 26 4 14 15 34 24 45 26 28 65 148 63 194 -4 86 -49 169 -101 187 -42
15 -55 16 -95 7z m62 -105 c51 -14 60 -122 17 -204 -78 -148 -204 -208 -250
-118 -31 61 -9 143 67 245 53 72 102 94 166 77z"/>
<path d="M3570 2623 c-91 -29 -188 -126 -249 -248 -43 -86 -44 -89 -38 -162 4
-58 10 -80 26 -95 12 -10 21 -22 21 -27 0 -25 49 -60 96 -69 60 -10 66 -10
124 16 42 19 120 105 120 132 0 5 9 15 20 22 11 7 20 18 20 25 0 7 13 41 30
76 39 84 44 183 10 250 -23 45 -32 51 -109 76 -36 12 -47 12 -71 4z m111 -125
c27 -34 17 -127 -22 -191 -16 -27 -29 -55 -29 -62 0 -17 -76 -98 -107 -114
-27 -14 -78 -14 -104 -1 -27 15 -51 66 -51 114 -1 42 45 150 77 182 8 9 15 20
15 26 0 6 11 8 24 6 17 -3 35 5 62 29 48 41 105 46 135 11z"/>
<path d="M2976 2213 c-4 -5 -12 -9 -17 -9 -5 -1 -10 -2 -11 -4 -2 -1 -10 -3
-19 -5 -15 -3 -54 -27 -119 -72 -58 -41 -88 -85 -119 -173 -30 -87 -31 -95
-25 -198 3 -59 10 -109 13 -112 9 -6 25 -43 23 -52 -1 -5 5 -8 13 -8 8 0 15
-5 15 -11 0 -5 4 -8 9 -4 5 3 12 1 16 -5 3 -5 27 -10 53 -10 34 0 60 8 99 32
29 18 53 36 53 40 0 4 5 8 10 8 15 0 105 96 105 111 0 4 4 11 8 16 17 16 40
79 59 163 36 154 24 212 -55 265 -49 33 -94 44 -111 28z m53 -103 c4 0 18 -9
31 -20 37 -32 25 -113 -38 -255 -40 -92 -141 -175 -211 -175 -22 0 -28 7 -40
43 -30 93 -23 174 24 267 24 46 75 103 75 82 0 -16 25 -15 42 1 45 42 83 67
95 63 8 -4 18 -6 22 -6z"/>
<path d="M2236 1726 c-15 -9 -40 -16 -55 -16 -51 0 -158 -121 -217 -246 -56
-118 -71 -251 -35 -309 29 -47 70 -84 106 -94 38 -10 123 2 167 23 17 9 38 16
45 16 21 0 143 130 143 152 0 10 15 46 34 81 73 138 64 288 -21 369 -37 35
-123 47 -167 24z m110 -107 c26 -22 48 -123 34 -159 -1 -3 -3 -10 -4 -16 -3
-30 -63 -154 -73 -154 -7 0 -13 -8 -13 -18 0 -20 -35 -62 -51 -62 -6 0 -24 -9
-40 -21 -22 -15 -46 -21 -86 -22 -51 0 -59 3 -85 32 -32 36 -36 84 -14 161 22
78 81 184 127 227 50 46 166 64 205 32z"/>
</g>
</svg>
