<?xml version="1.0" standalone="no"?>
<!DOCTYPE svg PUBLIC "-//W3C//DTD SVG 20010904//EN"
 "http://www.w3.org/TR/2001/REC-SVG-20010904/DTD/svg10.dtd">
<svg version="1.0" xmlns="http://www.w3.org/2000/svg"
 width="553.000000pt" height="337.000000pt" viewBox="0 0 553.000000 337.000000"
 preserveAspectRatio="xMidYMid meet">
<metadata>
Created by potrace 1.16, written by Peter Selinger 2001-2019
</metadata>
<g transform="translate(0.000000,337.000000) scale(0.100000,-0.100000)"
fill="#000000" stroke="none">
<path d="M3272 3168 c-19 -19 -15 -109 7 -148 13 -25 25 -35 42 -35 20 0 24 4
22 30 -3 37 -4 90 -2 101 1 5 1 21 0 37 -1 23 -5 27 -29 27 -15 0 -33 -5 -40
-12z"/>
<path d="M3541 3102 c-5 -9 -12 -34 -16 -55 -4 -20 -11 -40 -16 -43 -16 -9
-10 -43 9 -53 25 -13 36 -4 61 53 13 27 31 50 42 53 23 6 23 8 4 36 -19 29
-70 35 -84 9z"/>
<path d="M2981 3013 c-14 -30 -2 -50 32 -55 12 -2 27 -14 33 -27 14 -27 32
-41 56 -41 24 0 26 29 6 72 -18 38 -39 54 -88 68 -24 7 -29 4 -39 -17z"/>
<path d="M3786 2973 c-50 -54 -62 -79 -46 -98 12 -14 15 -14 36 0 13 9 24 13
24 11 0 -3 21 17 46 44 39 42 45 52 34 65 -21 26 -56 17 -94 -22z"/>
<path d="M2833 2810 c-26 -10 -29 -28 -10 -53 8 -12 41 -22 102 -32 50 -8 93
-15 96 -15 4 0 9 11 11 25 5 23 -10 36 -47 41 -5 0 -19 5 -30 9 -11 4 -35 14
-54 21 -38 16 -38 16 -68 4z"/>
<path d="M3892 2740 c-29 -22 -57 -40 -62 -40 -5 0 -8 -10 -6 -22 3 -13 5 -26
5 -30 1 -12 36 -9 48 3 6 6 35 23 65 38 42 21 54 32 56 54 2 19 -1 27 -12 27
-8 0 -20 2 -28 5 -7 3 -37 -13 -66 -35z"/>
<path d="M3370 2738 c-11 -12 -20 -28 -20 -35 0 -7 -4 -13 -9 -13 -5 0 -17
-26 -26 -57 -9 -32 -29 -85 -45 -118 -15 -33 -30 -72 -34 -87 l-6 -28 -93 0
c-198 -1 -401 0 -612 5 -121 3 -509 7 -862 9 -353 2 -647 7 -652 11 -6 3 -27
-2 -46 -11 -20 -9 -46 -17 -58 -18 -21 -1 -32 -9 -109 -83 -56 -54 -138 -156
-138 -172 0 -6 -4 -11 -9 -11 -6 0 -20 -27 -32 -60 -12 -33 -26 -63 -30 -66
-5 -3 -9 -16 -9 -29 0 -13 -4 -26 -8 -29 -5 -3 -16 -33 -26 -68 -10 -35 -22
-70 -26 -80 -12 -21 -37 -165 -45 -253 -4 -38 -8 -146 -10 -240 -1 -93 -5
-182 -8 -197 -11 -56 -49 -157 -63 -168 -8 -7 -14 -17 -14 -23 0 -6 -6 -18
-13 -26 -33 -38 -56 -126 -55 -209 0 -46 -3 -86 -6 -89 -10 -10 -7 -25 4 -18
6 4 10 -7 10 -25 0 -40 22 -82 52 -98 13 -8 43 -11 71 -8 51 5 260 8 483 7
l131 -1 19 -42 c39 -86 156 -178 246 -193 69 -12 175 -7 208 10 17 9 30 12 30
8 0 -5 4 -3 8 2 4 6 33 28 66 49 32 22 63 50 69 63 5 13 13 23 17 23 3 0 13
16 20 36 l14 35 521 -5 c286 -3 757 -6 1047 -7 l526 -2 18 -41 c37 -82 105
-147 202 -192 76 -36 79 -36 167 -30 117 8 115 8 115 16 0 3 16 13 35 20 48
19 140 120 158 173 l14 42 194 -2 c323 -4 423 -4 436 -4 6 1 15 10 18 21 13
41 56 80 87 80 21 0 31 6 35 20 3 11 9 20 13 20 13 0 19 86 9 126 -11 39 -53
94 -73 94 -35 1 -41 19 -42 132 -1 100 -5 123 -33 201 -30 85 -48 112 -121
187 -54 56 -187 110 -310 125 -128 17 -313 97 -332 145 -6 14 -16 37 -24 52
-8 14 -14 35 -14 46 0 12 -5 24 -11 27 -6 4 -8 13 -5 20 2 7 1 16 -4 21 -4 5
-15 44 -24 87 -9 44 -23 94 -32 112 -8 18 -17 39 -18 47 -1 7 -10 30 -19 52
-9 21 -17 40 -17 43 0 2 -16 29 -35 59 -19 30 -35 59 -35 64 0 10 -20 37 -52
71 -9 10 -22 27 -28 39 -6 11 -15 18 -20 15 -5 -3 -12 0 -16 6 -9 16 -85 49
-112 49 -13 0 -36 10 -52 21 -25 19 -41 22 -124 21 -52 -1 -99 -3 -103 -4 -13
-5 -16 6 -9 29 5 15 -4 41 -31 89 -21 38 -47 89 -58 115 -34 78 -54 98 -105
104 -25 3 -57 8 -72 10 -19 3 -34 -2 -48 -17z m-930 -444 c129 -4 258 -6 285
-6 28 0 106 0 175 0 69 0 313 0 543 1 354 0 419 -2 424 -15 3 -7 8 -12 12 -9
4 2 24 -1 44 -7 33 -10 36 -13 23 -27 -13 -14 -12 -22 6 -61 15 -34 20 -66 21
-126 0 -45 -3 -86 -7 -92 -3 -6 -1 -14 5 -17 6 -4 8 -22 4 -45 -4 -24 -2 -47
6 -62 16 -29 20 -59 20 -128 0 -46 5 -63 35 -108 19 -29 43 -56 52 -59 9 -3
27 -17 40 -31 12 -14 22 -21 22 -16 0 5 4 4 8 -2 17 -25 100 -45 159 -39 53 6
60 4 85 -19 15 -14 31 -26 35 -26 4 0 19 -9 33 -20 14 -11 35 -20 48 -20 12 0
22 -4 22 -9 0 -5 15 -13 33 -16 17 -4 38 -12 44 -17 7 -6 20 -7 29 -4 9 3 33
2 53 -3 20 -5 66 -12 102 -16 52 -5 72 -12 100 -36 19 -16 44 -29 57 -29 33 0
92 -70 119 -141 17 -45 23 -87 27 -177 2 -64 9 -130 16 -147 10 -28 70 -96 70
-81 0 4 10 -3 23 -15 15 -15 18 -23 9 -26 -6 -3 -10 -9 -7 -13 3 -5 -10 -16
-30 -26 -19 -9 -45 -28 -58 -43 -26 -31 -8 -30 -312 -31 l-239 -1 -3 33 c-10
98 -62 192 -135 246 -77 56 -123 72 -208 75 -203 7 -330 -79 -380 -258 -12
-44 -27 -83 -34 -87 -6 -4 -47 -5 -91 -1 -82 6 -140 6 -449 4 -98 -1 -181 1
-184 4 -8 8 -18 356 -27 935 -3 173 -8 358 -11 410 -3 52 -7 146 -7 209 -2
114 -2 114 -27 116 -38 3 -50 -5 -50 -31 0 -19 -5 -23 -21 -21 -11 2 -24 8
-27 14 -5 7 -83 12 -222 13 -389 4 -524 7 -635 13 -109 7 -688 19 -795 17 -56
-1 -180 -37 -180 -52 0 -4 -6 -8 -14 -8 -8 0 -39 -22 -69 -50 -30 -27 -59 -50
-64 -50 -19 0 -93 -94 -103 -131 -6 -20 -15 -39 -20 -41 -23 -7 -42 -360 -22
-380 8 -8 105 -12 289 -13 232 -2 529 -9 803 -20 30 -1 226 -5 435 -8 327 -6
436 -10 588 -22 15 -1 38 -3 51 -4 22 -1 23 -5 24 -78 1 -43 4 -132 6 -198 10
-257 15 -581 10 -605 -5 -25 -5 -25 -112 -23 -59 1 -177 5 -262 8 -85 3 -306
7 -490 9 -184 2 -341 4 -347 5 -8 0 -13 15 -13 32 0 29 -6 46 -52 146 -25 54
-95 118 -166 151 -43 19 -76 26 -139 29 -115 4 -199 -26 -276 -99 -50 -49 -76
-95 -103 -185 l-18 -61 -299 0 -299 -1 4 102 c5 106 20 149 83 247 5 8 11 24
12 35 2 11 13 45 24 75 26 68 28 78 34 165 5 76 5 143 2 245 -2 74 9 186 24
245 6 22 12 49 13 61 1 11 12 45 23 75 11 30 37 99 57 154 20 55 43 103 51
108 8 4 15 13 15 19 0 15 65 94 115 141 27 25 50 37 70 37 16 1 43 6 58 13 30
13 953 13 1427 1z m1670 -180 c16 -20 53 -94 54 -107 1 -4 6 -11 12 -15 18
-12 51 -110 84 -252 17 -74 37 -151 45 -171 13 -34 12 -37 -4 -42 -10 -2 -26
2 -36 9 -10 8 -26 14 -34 14 -23 0 -108 62 -120 88 -6 12 -15 22 -21 22 -6 0
-10 15 -10 33 1 73 -7 135 -21 154 -11 16 -13 38 -9 88 3 37 3 68 -1 70 -5 4
-5 27 2 139 l2 39 21 -25 c12 -14 28 -34 36 -44z m-2287 6 c3 -3 7 -39 10 -81
l5 -77 -41 -7 c-23 -4 -48 -9 -54 -11 -7 -1 -15 1 -18 6 -2 4 -15 5 -29 3 -13
-3 -27 0 -30 6 -11 18 -33 13 -61 -14 -22 -23 -25 -35 -27 -98 -3 -143 7 -156
110 -155 55 0 153 -9 159 -15 0 -1 4 -26 8 -56 l7 -54 -234 7 c-128 4 -280 9
-338 12 -58 2 -173 5 -257 7 -84 2 -155 5 -158 8 -18 18 2 225 26 267 11 18
19 42 19 52 0 11 12 27 28 37 15 10 29 20 32 24 3 3 15 9 27 13 13 4 22 12 20
18 -4 19 91 80 130 83 20 2 43 11 52 20 14 13 53 15 313 13 163 -2 299 -5 301
-8z m1000 -27 c53 -3 87 -10 87 -17 2 -125 13 -281 20 -301 13 -35 15 -167 2
-191 -5 -11 -7 -25 -5 -32 4 -11 -6 -12 -43 -8 -27 3 -191 6 -365 7 l-316 2
-1 34 c-1 19 -4 38 -7 43 -4 6 -8 19 -10 30 -4 19 1 20 103 20 167 0 206 30
193 149 -4 49 -11 67 -26 75 -10 6 -25 17 -33 24 -7 7 -18 9 -24 6 -6 -4 -14
0 -19 7 -6 10 -9 10 -9 2 0 -10 -25 -13 -94 -12 l-94 1 3 46 c1 26 3 67 4 91
l1 44 273 -7 c149 -3 311 -9 360 -13z m-423 -243 c0 -13 -11 -13 -30 0 -12 8
-11 10 8 10 12 0 22 -4 22 -10z m-904 -1549 c-9 -13 -100 -22 -148 -14 -38 7
-33 9 52 14 52 3 96 6 98 7 2 1 1 -2 -2 -7z m2679 -59 c-3 -3 -11 0 -18 7 -9
10 -8 11 6 5 10 -3 15 -9 12 -12z"/>
<path d="M3248 2159 c-15 -6 -36 -25 -48 -43 -18 -31 -20 -45 -15 -157 3 -68
7 -155 10 -194 3 -38 8 -119 10 -179 3 -59 8 -112 11 -117 7 -12 75 -11 93 0
8 5 23 6 34 2 11 -4 37 -3 59 3 28 8 44 7 58 -2 11 -7 37 -10 64 -6 26 3 47 0
51 -6 3 -6 11 -7 17 -4 10 6 35 11 108 20 66 8 75 10 86 16 5 4 36 5 67 3 63
-3 69 1 80 62 4 21 2 33 -7 36 -7 3 -25 44 -40 90 -25 78 -27 97 -25 220 2 93
-1 140 -9 150 -6 7 -9 16 -7 19 12 12 13 51 2 63 -22 22 -550 43 -599 24z
m472 -97 l55 -7 3 -165 c2 -132 7 -177 22 -223 28 -81 27 -85 -27 -92 -27 -3
-69 -11 -94 -16 -26 -6 -98 -7 -170 -4 -68 4 -144 8 -168 8 -50 2 -48 -2 -56
117 -2 41 -7 109 -10 150 -13 159 -11 239 5 243 22 6 376 -3 440 -11z"/>
<path d="M3305 1318 c-32 -25 -38 -56 -13 -69 11 -6 49 -11 85 -11 74 0 85 8
80 62 l-3 35 -63 1 c-46 0 -69 -5 -86 -18z"/>
<path d="M2790 2650 c-32 -8 -36 -30 -10 -63 21 -26 48 -39 34 -16 -8 13 69 3
99 -13 26 -14 47 -3 47 26 0 19 -9 27 -42 41 -60 25 -99 32 -128 25z"/>
</g>
</svg>
