<?xml version="1.0" standalone="no"?>
<!DOCTYPE svg PUBLIC "-//W3C//DTD SVG 20010904//EN"
 "http://www.w3.org/TR/2001/REC-SVG-20010904/DTD/svg10.dtd">
<svg version="1.0" xmlns="http://www.w3.org/2000/svg"
 width="561.000000pt" height="455.000000pt" viewBox="0 0 561.000000 455.000000"
 preserveAspectRatio="xMidYMid meet">
<metadata>
Created by potrace 1.16, written by Peter Selinger 2001-2019
</metadata>
<g transform="translate(0.000000,455.000000) scale(0.100000,-0.100000)"
fill="#000000" stroke="none">
<path d="M625 4274 c-49 -12 -114 -50 -119 -69 -21 -77 4 -203 50 -251 34 -36
116 -94 134 -94 6 0 10 -4 10 -8 0 -4 20 -16 45 -26 25 -11 45 -23 45 -28 0
-4 5 -8 12 -8 6 0 30 -9 52 -19 23 -10 59 -26 81 -36 22 -9 58 -24 80 -35 22
-10 60 -26 85 -35 46 -17 162 -84 168 -97 2 -4 9 -5 16 -2 11 4 118 -47 251
-119 17 -9 35 -17 41 -17 5 0 19 -8 30 -18 10 -10 35 -25 54 -33 19 -8 66 -32
103 -54 65 -38 67 -40 40 -46 -15 -3 -37 -10 -48 -16 -40 -22 -93 -43 -109
-43 -8 0 -50 -14 -93 -31 -43 -17 -91 -35 -108 -40 -35 -9 -274 -102 -324
-125 -19 -9 -46 -18 -60 -19 -32 -3 -48 -9 -131 -47 -70 -33 -200 -79 -200
-73 0 3 -17 -5 -37 -16 -20 -11 -68 -33 -107 -49 -40 -15 -114 -48 -166 -73
-52 -25 -102 -47 -110 -49 -8 -2 -17 -5 -20 -8 -3 -3 -22 -14 -42 -24 -21 -10
-40 -26 -43 -35 -3 -9 -24 -40 -48 -69 -36 -43 -44 -61 -45 -97 -3 -59 12 -94
56 -132 44 -40 92 -43 192 -15 36 11 70 17 76 15 6 -2 19 6 29 17 10 11 23 20
28 20 13 0 180 71 187 80 7 9 125 60 139 60 6 0 11 3 11 8 0 11 78 48 128 62
24 6 51 19 61 29 10 10 33 26 52 36 36 19 38 20 114 61 28 15 61 35 74 45 13
11 28 19 33 19 5 0 33 18 63 40 30 22 57 40 61 40 4 0 14 8 23 18 20 24 181
121 241 147 25 10 52 24 60 31 37 30 111 56 137 49 16 -4 48 -9 73 -12 25 -3
48 -8 52 -12 5 -4 10 -52 13 -106 5 -108 13 -189 22 -219 3 -13 1 -16 -7 -11
-7 4 -15 3 -19 -2 -6 -9 -86 -49 -148 -75 -18 -7 -33 -15 -33 -18 0 -3 -21
-17 -47 -30 -27 -14 -53 -32 -60 -41 -7 -9 -34 -27 -60 -39 -55 -25 -138 -78
-170 -109 -12 -12 -25 -21 -28 -21 -3 0 -13 -8 -23 -17 -44 -43 -95 -83 -103
-83 -5 0 -9 -6 -9 -14 0 -7 -17 -26 -37 -42 -44 -32 -73 -60 -73 -70 0 -6 -47
-62 -112 -131 -16 -18 -33 -33 -38 -33 -4 0 -10 -10 -14 -23 -3 -13 -16 -29
-30 -36 -13 -8 -45 -38 -71 -67 -25 -30 -53 -54 -61 -54 -8 0 -14 -4 -14 -9 0
-15 -80 -93 -140 -137 -48 -36 -59 -50 -84 -115 -26 -67 -28 -81 -22 -154 3
-44 10 -95 16 -113 12 -44 68 -116 100 -130 83 -36 112 -46 171 -58 36 -7 83
-20 105 -30 21 -9 48 -18 59 -19 24 -2 94 -14 117 -21 11 -3 18 -21 23 -53 5
-40 16 -58 58 -105 29 -31 58 -56 64 -56 7 0 16 -6 20 -14 4 -7 35 -28 68 -47
54 -30 68 -34 135 -33 61 0 84 5 125 27 28 15 55 27 60 27 12 0 57 33 99 73
18 18 34 26 45 21 35 -14 238 -6 386 16 105 15 229 38 265 48 19 6 55 13 80
15 45 5 45 5 118 -72 40 -42 98 -102 130 -134 47 -49 53 -60 40 -68 -27 -15
-88 -108 -88 -134 0 -16 15 -39 43 -66 44 -42 51 -43 129 -24 l28 7 -6 -60
c-8 -74 7 -113 70 -174 102 -101 270 -109 371 -20 67 60 95 120 97 205 1 89
-17 123 -116 211 -61 55 -80 89 -36 66 31 -17 70 4 70 38 0 30 -47 82 -73 82
-7 0 -17 4 -23 9 -18 16 -101 31 -150 26 -48 -5 -50 -4 -84 41 -19 25 -42 53
-51 62 -9 9 -20 27 -23 39 -4 12 -16 25 -27 28 -10 4 -19 12 -19 19 0 12 27
23 115 47 17 5 52 15 79 23 27 9 52 13 57 10 5 -3 9 -1 9 4 0 5 39 24 88 43
48 18 89 36 92 39 3 3 32 19 65 35 55 27 216 143 275 197 14 13 41 35 60 48
19 14 46 37 59 53 13 15 26 26 29 23 2 -3 16 4 30 14 13 11 29 20 34 20 6 0
27 14 48 30 21 17 43 30 48 30 6 0 17 6 24 13 21 20 89 43 183 62 34 7 71 11
164 20 35 3 67 7 70 10 4 2 56 5 116 7 l109 3 7 -26 c3 -15 14 -35 24 -45 9
-11 35 -47 57 -81 22 -35 45 -63 49 -63 5 0 9 -6 9 -13 0 -7 19 -31 42 -53 24
-22 80 -80 126 -130 70 -77 91 -93 140 -111 61 -22 105 -16 128 16 7 9 26 31
43 49 30 31 31 33 16 62 -8 16 -15 36 -15 45 0 8 -4 23 -10 33 -19 34 -85 228
-86 252 -1 25 -5 38 -32 100 -23 54 -22 57 11 83 21 16 36 39 44 68 14 53 27
121 25 131 -1 5 5 54 12 111 8 56 18 129 21 162 3 33 20 152 37 265 36 244 38
371 8 430 -11 22 -20 45 -20 52 0 17 -59 70 -70 63 -5 -3 -11 -1 -15 5 -12 19
-175 1 -175 -20 0 -5 -9 -11 -20 -15 -42 -13 -135 -135 -193 -251 -13 -27 -43
-83 -66 -125 -22 -42 -41 -83 -41 -91 0 -8 -21 -57 -47 -109 -26 -52 -59 -121
-73 -155 -14 -34 -38 -77 -53 -96 -25 -31 -35 -36 -70 -36 -52 1 -172 -10
-252 -22 -56 -8 -247 8 -272 23 -5 3 -28 8 -52 12 -25 4 -63 14 -85 24 -67 29
-108 43 -156 52 -25 4 -61 13 -80 19 -19 6 -91 27 -160 46 -69 19 -143 43
-165 53 -22 11 -60 22 -85 25 -25 4 -54 13 -65 20 -11 7 -38 19 -60 26 -22 7
-44 16 -49 21 -6 5 -17 9 -25 9 -9 0 -28 6 -43 14 -14 8 -63 22 -107 31 -45
10 -81 21 -81 25 0 4 -17 10 -37 13 -21 3 -47 8 -58 10 -87 20 -165 40 -190
48 -16 6 -43 12 -59 14 -15 2 -36 7 -46 10 -10 3 -27 8 -37 10 -10 2 -38 8
-63 13 -25 6 -66 8 -91 7 l-46 -4 -11 94 c-15 117 -15 215 -1 235 8 12 12 12
16 2 6 -15 66 -46 107 -56 16 -4 45 -18 65 -32 19 -13 39 -24 43 -24 4 0 49
-19 100 -43 51 -24 109 -50 128 -57 19 -8 78 -36 130 -62 52 -26 98 -48 101
-48 6 0 110 -59 159 -90 8 -6 42 -24 75 -41 33 -17 67 -37 75 -44 8 -7 26 -15
40 -18 14 -4 48 -21 75 -39 28 -17 53 -31 57 -30 4 1 26 -7 50 -17 48 -21 171
-22 191 -2 6 6 18 11 27 11 36 0 66 160 39 213 -16 32 -91 100 -130 119 -72
34 -175 77 -199 84 -49 12 -212 75 -273 105 -34 17 -87 35 -117 40 -30 6 -77
23 -105 37 -27 14 -52 27 -55 27 -3 1 -18 5 -35 9 -16 4 -55 18 -85 31 -30 13
-71 26 -90 30 -19 4 -41 12 -48 18 -8 6 -35 14 -60 18 -52 8 -137 38 -110 39
9 0 54 11 100 25 193 59 245 73 288 79 25 4 59 11 75 16 153 46 203 62 220 70
35 17 257 91 335 111 41 11 93 31 115 43 22 13 71 36 109 51 76 30 103 43 124
63 7 6 20 12 28 12 17 0 110 94 130 132 21 40 29 130 14 159 -18 34 -52 63
-91 79 -46 19 -48 19 -128 9 -53 -6 -95 -21 -173 -60 -57 -28 -104 -50 -105
-48 -1 2 -12 -4 -23 -13 -11 -10 -26 -18 -34 -18 -7 0 -19 -7 -26 -15 -7 -8
-19 -15 -26 -15 -12 0 -104 -42 -339 -155 -38 -18 -81 -37 -95 -40 -14 -4 -43
-17 -65 -30 -22 -13 -62 -30 -90 -38 -27 -8 -75 -28 -105 -45 -31 -17 -82 -41
-115 -53 -33 -12 -66 -28 -74 -36 -7 -8 -52 -34 -100 -59 -125 -66 -165 -88
-171 -96 -11 -13 -98 5 -121 26 -33 30 -80 67 -113 91 -16 11 -47 35 -70 54
-22 19 -77 61 -121 94 -44 34 -83 66 -87 73 -5 7 -32 28 -60 48 -29 20 -75 52
-103 71 -113 81 -193 134 -240 159 -27 15 -70 42 -95 61 -25 19 -48 34 -52 34
-4 1 -30 15 -57 31 -62 39 -159 79 -231 96 -66 15 -167 25 -195 18z m155 -90
c25 -4 61 -15 80 -26 19 -10 40 -18 46 -18 12 0 108 -47 149 -73 97 -60 136
-84 173 -104 24 -13 64 -39 89 -58 25 -19 52 -35 59 -35 8 0 14 -5 14 -10 0
-6 25 -26 55 -45 30 -20 94 -67 141 -105 48 -38 98 -77 111 -87 14 -10 39 -31
56 -46 18 -15 51 -41 74 -58 24 -16 43 -34 43 -39 0 -6 6 -10 13 -10 7 0 32
-17 56 -38 l44 -38 -37 -22 c-45 -27 -70 -28 -104 -3 -15 10 -67 40 -117 66
-49 26 -97 54 -106 61 -8 8 -22 14 -31 14 -8 0 -31 11 -51 24 -19 13 -44 27
-56 31 -12 3 -21 11 -21 16 0 5 -5 9 -12 9 -10 0 -48 16 -158 69 -25 12 -56
28 -70 36 -39 22 -112 53 -142 60 -16 4 -28 11 -28 15 0 4 -16 11 -35 14 -19
4 -35 11 -35 15 0 5 -12 12 -27 16 -36 9 -150 63 -157 74 -4 5 -20 12 -37 16
-16 4 -35 15 -42 26 -6 10 -17 19 -24 19 -7 0 -23 9 -35 20 -13 10 -31 25 -42
33 -15 11 -18 28 -20 93 -1 75 0 79 22 82 12 2 22 7 22 12 0 10 63 7 140 -6z
m3033 -149 c37 -24 46 -50 32 -91 -12 -35 -66 -104 -82 -104 -6 0 -20 -9 -33
-20 -13 -11 -29 -20 -37 -20 -7 0 -13 -4 -13 -9 0 -5 -24 -17 -52 -27 -29 -9
-82 -31 -118 -49 -36 -18 -99 -41 -140 -50 -41 -10 -91 -26 -110 -36 -53 -27
-375 -132 -445 -145 -66 -12 -156 -34 -194 -48 -24 -9 -53 -16 -65 -16 -11 0
-41 -10 -66 -21 -25 -11 -61 -22 -80 -24 -19 -2 -36 -5 -37 -6 -2 -1 -6 -2
-10 -3 -5 -1 -22 -7 -40 -14 -24 -11 -36 -11 -53 -2 -21 11 -21 12 12 37 18
13 42 29 53 34 11 5 47 25 80 44 33 19 85 47 115 60 30 14 90 43 133 65 43 22
84 40 92 40 8 0 35 11 60 24 25 14 72 34 103 46 67 24 98 38 132 61 14 8 46
22 72 29 26 7 53 19 59 26 12 15 174 94 191 94 6 0 42 18 80 40 39 22 72 40
74 40 3 0 33 13 67 29 82 38 84 38 142 37 30 -1 61 -9 78 -21z m-1458 -827
c21 -12 111 -35 123 -31 12 4 59 -13 104 -37 10 -6 27 -10 38 -10 12 0 40 -9
63 -20 23 -11 54 -23 68 -25 15 -3 55 -18 90 -35 35 -16 87 -34 115 -39 28 -6
82 -26 122 -45 39 -20 119 -52 179 -72 59 -20 110 -40 111 -45 2 -5 8 -7 12
-4 11 7 166 -68 200 -96 21 -18 25 -31 27 -79 2 -81 -12 -98 -79 -95 -51 3
-153 40 -188 69 -8 7 -35 21 -60 32 -46 19 -213 110 -285 155 -22 14 -60 33
-85 43 -48 19 -53 22 -133 65 -29 15 -69 33 -89 40 -20 7 -64 25 -98 42 -33
16 -65 29 -70 29 -6 0 -10 5 -10 10 0 5 -3 9 -7 8 -5 -1 -53 20 -108 48 -55
27 -101 49 -102 50 -2 0 3 12 9 25 11 24 31 30 53 17z m-575 -37 c0 -10 -86
-60 -140 -81 -19 -8 -37 -17 -40 -20 -3 -3 -45 -30 -95 -60 -49 -29 -110 -70
-135 -90 -25 -20 -56 -42 -70 -49 -43 -21 -70 -38 -93 -58 -28 -26 -85 -59
-117 -68 -14 -5 -43 -19 -65 -34 -61 -39 -96 -57 -140 -71 -22 -7 -49 -19 -61
-27 -11 -7 -24 -10 -27 -6 -4 3 -7 1 -7 -5 0 -6 -17 -19 -37 -28 -21 -9 -84
-38 -139 -65 -56 -27 -106 -49 -111 -49 -6 0 -25 -7 -43 -16 -18 -9 -49 -21
-69 -26 -20 -5 -49 -13 -66 -17 -59 -15 -124 23 -125 74 0 21 27 62 68 101 29
28 270 146 347 169 33 10 62 22 65 26 7 9 87 45 135 59 37 11 128 50 165 69 9
5 31 12 50 16 19 4 40 10 45 13 6 4 20 8 33 10 12 1 51 16 86 32 35 17 69 30
75 30 6 0 19 4 29 10 27 15 197 79 296 111 50 16 109 35 131 43 51 17 55 18
55 7z m3515 -131 c10 -11 24 -20 32 -20 16 0 14 12 20 -95 2 -51 0 -110 -6
-135 -14 -56 -20 -91 -26 -158 -3 -30 -7 -57 -10 -61 -2 -5 -7 -39 -10 -77 -3
-38 -8 -76 -10 -84 -2 -8 -7 -46 -10 -85 -4 -38 -10 -86 -15 -105 -5 -19 -11
-74 -15 -121 -4 -47 -11 -92 -16 -100 -7 -12 -9 -12 -10 1 -1 19 -7 58 -14 88
-4 15 -15 25 -37 29 -17 3 -33 14 -35 24 -3 9 -16 20 -29 23 -31 8 -67 -11
-60 -31 3 -8 6 -23 6 -34 0 -13 7 -19 21 -19 14 0 19 -5 16 -15 -4 -8 -2 -17
4 -20 5 -4 7 -10 5 -14 -7 -11 11 -80 30 -113 8 -15 17 -44 18 -63 2 -19 9
-42 16 -50 7 -8 9 -15 4 -15 -4 0 -3 -5 4 -12 7 -7 12 -24 12 -39 0 -15 4 -29
10 -31 5 -1 12 -16 14 -33 3 -16 14 -59 25 -93 12 -35 21 -72 21 -81 0 -10 11
-40 26 -66 14 -26 23 -54 20 -61 -9 -23 -45 -15 -63 14 -10 15 -30 39 -45 54
-16 14 -28 31 -28 37 0 6 -4 11 -9 11 -11 0 -125 113 -166 165 -16 21 -36 53
-44 72 -7 18 -17 33 -21 33 -4 0 -11 11 -14 24 -3 14 -25 53 -48 88 -23 35
-43 70 -45 78 -8 54 -59 81 -100 54 -19 -12 -22 -21 -19 -55 3 -31 1 -39 -9
-35 -8 3 -15 0 -17 -6 -2 -6 -18 -11 -36 -12 -18 0 -32 -4 -32 -7 0 -3 -7 -6
-15 -6 -8 0 -15 5 -15 10 0 5 -5 5 -13 -1 -19 -16 -66 -25 -121 -23 -26 1 -53
-3 -60 -8 -7 -6 -32 -13 -57 -16 -59 -7 -187 -43 -224 -62 -16 -9 -43 -23 -60
-31 -16 -9 -32 -18 -35 -21 -10 -12 -120 -81 -129 -81 -5 0 -27 -17 -48 -38
-42 -41 -187 -161 -214 -177 -57 -34 -155 -85 -161 -85 -4 0 -8 -4 -8 -10 0
-5 -9 -10 -21 -10 -20 0 -59 -17 -69 -29 -12 -16 -80 -49 -140 -69 -153 -50
-189 -59 -214 -55 -15 3 -26 1 -26 -5 0 -18 -43 -9 -66 13 -24 22 -154 193
-154 201 0 13 -72 90 -97 103 -24 12 -52 5 -70 -18 -21 -26 -15 -40 40 -104
29 -34 79 -98 112 -142 32 -44 76 -98 97 -120 21 -22 48 -54 60 -71 35 -48
130 -159 139 -162 5 -2 9 -8 9 -14 0 -5 9 -21 20 -35 25 -32 25 -40 0 -53 -17
-9 -25 -6 -46 15 -14 14 -22 30 -19 35 3 6 1 10 -6 10 -17 0 -98 76 -134 125
-16 23 -46 57 -67 76 -20 19 -45 52 -57 74 -11 22 -36 51 -55 65 -19 14 -42
38 -51 53 -15 25 -50 65 -142 163 -17 19 -38 34 -46 34 -24 0 -77 -52 -77 -75
0 -31 49 -100 134 -190 l76 -80 -27 -12 c-16 -6 -53 -15 -83 -18 -30 -4 -86
-14 -124 -21 -75 -16 -193 -29 -241 -28 -34 1 -150 12 -150 14 0 2 -45 8 -85
11 -19 1 -39 5 -45 8 -5 3 -28 7 -50 9 -22 2 -67 10 -100 18 -33 8 -73 17 -88
19 -16 3 -48 11 -70 19 -23 8 -82 22 -132 31 -49 10 -112 24 -140 33 -27 8
-86 23 -130 33 -127 29 -219 55 -245 70 -14 7 -28 13 -31 14 -3 0 -18 11 -32
25 -44 42 -45 91 -5 203 6 15 26 44 44 64 19 20 34 41 34 45 0 4 5 8 11 8 7 0
22 11 35 25 13 14 28 25 34 25 5 0 10 6 10 14 0 8 8 17 18 20 9 4 36 25 60 47
l43 42 90 -47 c50 -26 116 -56 147 -68 31 -11 68 -25 82 -31 14 -5 39 -10 55
-11 17 -1 55 -5 85 -9 30 -5 71 -9 90 -11 19 -2 58 -6 85 -10 32 -5 78 -2 125
7 81 16 190 54 190 66 0 4 20 29 45 56 25 28 45 53 45 57 0 3 12 21 26 38 15
18 45 85 70 157 39 116 42 132 37 202 -7 115 -25 139 -108 147 -22 3 -65 7
-95 11 -30 4 -59 8 -65 8 -30 4 -153 47 -170 59 -11 9 -28 16 -37 16 -27 0
-22 15 15 45 62 51 142 96 212 117 39 11 75 24 80 29 14 11 174 40 226 40 51
1 193 -24 259 -46 36 -12 135 -38 230 -60 8 -2 30 -8 48 -14 18 -5 35 -10 37
-10 21 1 65 -14 65 -22 0 -6 4 -8 9 -4 6 3 53 -15 105 -40 52 -24 161 -65 243
-89 203 -60 324 -97 348 -106 41 -17 169 -52 206 -56 21 -3 57 -11 79 -19 23
-8 44 -14 48 -13 4 1 32 -4 62 -10 90 -20 119 -23 250 -27 69 -2 139 -6 155
-9 17 -2 38 -1 49 3 10 4 41 4 68 1 32 -4 58 -2 74 6 14 8 28 13 32 13 30 -5
44 14 107 139 39 75 73 139 78 140 4 2 7 10 7 18 0 7 18 52 40 99 22 47 40 89
40 94 0 5 3 11 8 13 4 2 19 29 34 60 32 67 193 284 220 296 3 2 16 12 29 23
28 24 32 24 54 -1z m-3560 -699 c75 -35 85 -39 152 -61 34 -11 76 -20 93 -20
16 0 30 -3 30 -7 0 -5 22 -6 49 -5 32 3 62 -2 86 -14 l37 -17 -5 -64 c-2 -35
-10 -70 -17 -78 -7 -8 -14 -27 -15 -42 -4 -38 -33 -110 -68 -169 -30 -50 -104
-124 -127 -126 -14 -2 -31 -9 -38 -15 -7 -7 -26 -13 -40 -13 -15 0 -42 -4 -61
-10 -21 -6 -51 -6 -80 0 -25 5 -71 11 -101 14 -124 12 -198 26 -260 50 -96 36
-142 58 -173 83 -27 21 -28 22 -10 44 10 12 78 81 152 153 74 72 172 168 218
214 45 45 87 82 92 82 5 0 12 7 15 16 3 9 9 14 14 12 4 -2 30 -14 57 -27z
m-300 -1347 c42 -16 79 -26 159 -44 28 -5 53 -15 56 -20 4 -6 13 -8 21 -5 8 3
28 1 44 -3 29 -9 30 -9 6 -16 -12 -5 -39 -19 -58 -32 -44 -30 -101 -31 -161
-4 -41 19 -152 114 -152 131 0 14 40 10 85 -7z m1825 -298 c0 -3 -4 -8 -10
-11 -5 -3 -10 -1 -10 4 0 6 5 11 10 11 6 0 10 -2 10 -4z m-40 -26 c-8 -6 -22
-10 -30 -9 -9 0 -5 6 10 14 27 14 44 10 20 -5z m-66 -37 c-37 -34 -59 -45 -26
-14 18 17 35 31 39 31 4 0 -2 -8 -13 -17z m234 -111 c2 -7 10 -12 17 -12 8 0
17 -9 20 -20 3 -11 11 -20 16 -20 17 0 10 -79 -9 -98 -10 -10 -21 -26 -25 -34
-9 -25 -66 -48 -119 -48 -54 0 -121 29 -138 59 -31 59 11 175 67 184 53 9 166
2 171 -11z"/>
<path d="M2665 2381 c-11 -5 -38 -9 -60 -9 -22 -1 -49 -3 -60 -6 -11 -2 -39
-9 -62 -14 -24 -5 -43 -8 -43 -6 0 3 -18 -5 -40 -16 -31 -16 -41 -28 -49 -58
-17 -70 -23 -135 -26 -326 -4 -225 2 -251 59 -262 20 -3 43 -4 51 0 9 3 44 9
78 12 34 3 74 12 89 20 15 8 40 16 55 18 29 4 43 8 108 36 22 10 50 21 61 24
20 6 54 72 54 104 0 7 4 12 8 12 10 0 -1 97 -16 155 -6 22 -14 54 -18 70 -9
36 -8 33 -22 68 -7 16 -12 33 -12 39 0 7 -10 33 -22 60 -17 37 -31 53 -63 68
-46 22 -43 22 -70 11z m48 -111 c9 -11 13 -20 9 -20 -4 0 -1 -4 6 -8 16 -11
72 -200 78 -267 7 -73 -9 -96 -86 -122 -36 -12 -73 -21 -82 -19 -9 2 -19 -2
-21 -8 -5 -13 -115 -38 -176 -40 -30 -1 -35 3 -42 29 -5 16 -6 59 -4 95 3 36
7 106 9 155 7 142 14 172 45 184 14 6 44 13 66 16 22 3 63 10 90 14 79 13 89
12 108 -9z"/>
<path d="M4970 2142 c-35 -12 -41 -29 -26 -67 18 -43 52 -48 66 -9 18 47 -4
88 -40 76z"/>
<path d="M4820 2069 c-12 -22 -4 -79 11 -79 6 0 7 -6 3 -12 -11 -18 26 11 47
36 13 15 14 26 8 46 -12 33 -54 39 -69 9z"/>
<path d="M3238 481 c-8 -17 -13 -44 -10 -59 3 -23 9 -28 35 -30 49 -2 71 20
64 64 -7 44 -6 42 -44 50 -26 5 -31 2 -45 -25z"/>
</g>
</svg>
