<?xml version="1.0" standalone="no"?>
<!DOCTYPE svg PUBLIC "-//W3C//DTD SVG 20010904//EN"
 "http://www.w3.org/TR/2001/REC-SVG-20010904/DTD/svg10.dtd">
<svg version="1.0" xmlns="http://www.w3.org/2000/svg"
 width="489.000000pt" height="377.000000pt" viewBox="0 0 489.000000 377.000000"
 preserveAspectRatio="xMidYMid meet">
<metadata>
Created by potrace 1.16, written by Peter Selinger 2001-2019
</metadata>
<g transform="translate(0.000000,377.000000) scale(0.100000,-0.100000)"
fill="#000000" stroke="none">
<path d="M3020 3241 c0 -6 -12 -11 -28 -11 -26 0 -101 -42 -103 -58 -10 -65
-8 -73 29 -111 31 -33 49 -41 112 -55 87 -20 366 -24 383 -7 17 17 25 13 32
-18 8 -36 -24 -92 -62 -111 -16 -8 -39 -22 -53 -31 -14 -9 -67 -22 -120 -29
-52 -7 -128 -18 -169 -25 -41 -7 -88 -9 -107 -5 -18 4 -36 5 -39 2 -3 -3 -15
-6 -28 -7 -28 -2 -158 -14 -217 -20 -25 -3 -70 -7 -100 -10 -30 -3 -77 -10
-105 -15 -67 -12 -366 -30 -554 -33 -101 -2 -104 -1 -130 25 -15 15 -35 51
-45 80 -11 29 -23 58 -28 65 -7 8 1 14 29 19 21 4 43 10 48 14 14 11 158 32
203 29 46 -2 69 7 77 31 3 11 15 22 26 25 31 10 50 46 41 80 -8 27 -43 55
-112 87 -15 7 -99 13 -215 15 -104 1 -255 7 -335 13 -98 7 -156 7 -180 0 -19
-5 -46 -10 -59 -10 -37 0 -89 -40 -112 -87 -16 -33 -20 -63 -21 -145 -1 -116
8 -143 71 -211 51 -55 76 -65 152 -63 83 3 176 45 241 109 47 47 78 54 78 18
0 -9 18 -51 39 -93 35 -69 37 -79 24 -97 -7 -11 -13 -26 -12 -33 3 -29 -2 -47
-24 -80 -13 -19 -32 -57 -43 -84 -10 -27 -38 -87 -63 -134 -24 -47 -55 -105
-68 -130 -12 -25 -23 -50 -23 -57 0 -6 -11 -38 -24 -70 -13 -32 -36 -88 -51
-125 -15 -38 -29 -68 -30 -68 -2 0 -39 7 -82 15 -116 23 -316 21 -390 -4 -101
-34 -183 -71 -236 -106 -129 -86 -219 -151 -225 -161 -11 -19 -75 -97 -98
-119 -28 -28 -78 -139 -97 -216 -14 -58 -34 -237 -35 -314 0 -16 9 -59 19 -95
10 -36 20 -74 22 -85 1 -11 5 -24 9 -30 3 -5 23 -41 43 -80 21 -38 60 -93 88
-121 27 -29 55 -61 61 -72 14 -24 73 -92 81 -92 3 0 18 -11 33 -25 15 -14 31
-25 35 -25 5 0 15 -6 23 -14 8 -8 40 -24 71 -36 32 -11 67 -25 78 -30 11 -5
52 -12 90 -15 39 -3 95 -9 127 -13 149 -22 503 23 538 67 3 4 31 24 62 44 37
24 81 68 123 122 36 46 69 85 73 87 11 5 112 147 118 166 3 9 16 40 29 67 13
28 33 73 44 100 18 46 22 50 53 50 33 0 33 0 39 -57 7 -63 45 -123 103 -165
40 -29 128 -70 176 -83 l37 -10 2 -75 c1 -49 -2 -75 -9 -75 -6 0 -10 -8 -9
-17 4 -49 1 -53 -48 -53 -69 0 -91 -9 -101 -39 -11 -33 3 -67 32 -76 29 -10
43 -7 99 16 32 13 53 17 64 11 9 -5 31 -6 52 -1 20 5 55 6 77 3 51 -7 84 16
84 58 0 31 -12 36 -95 40 l-49 3 -1 103 c0 58 4 107 10 112 6 4 27 14 49 21
43 16 110 85 133 139 9 19 19 43 24 52 12 24 11 110 -1 143 -8 20 -7 27 5 31
21 9 18 44 -5 64 -20 18 -20 18 3 24 14 3 27 18 35 38 6 18 23 47 37 63 38 47
38 46 84 119 24 38 44 74 45 80 1 6 9 22 19 36 9 13 17 30 17 36 0 6 17 44 38
85 21 41 44 90 52 109 7 19 46 81 87 137 40 56 73 104 73 107 0 3 16 29 36 56
l36 51 14 -26 c7 -13 16 -46 20 -72 3 -27 10 -52 13 -58 4 -5 13 -35 20 -65 8
-30 17 -59 21 -65 4 -5 10 -20 13 -33 5 -23 -8 -41 -64 -86 -95 -76 -177 -160
-198 -203 -14 -26 -32 -57 -41 -68 -14 -18 -38 -71 -80 -183 -17 -44 -16 -98
5 -212 9 -52 19 -113 21 -134 5 -56 11 -70 62 -171 38 -76 83 -146 120 -190
47 -54 155 -142 216 -175 139 -74 394 -98 596 -56 95 20 229 82 275 127 17 16
34 29 38 29 7 0 49 35 83 68 8 8 12 18 9 23 -4 5 1 6 9 3 10 -4 18 1 23 12 4
11 21 39 39 64 29 41 51 96 96 245 23 73 28 109 29 220 1 96 -20 223 -43 251
-5 7 -8 16 -6 20 4 15 -23 87 -43 116 -11 14 -19 33 -19 42 0 9 -4 16 -9 16
-5 0 -11 10 -15 23 -7 30 -91 114 -121 121 -22 6 -213 92 -259 117 -10 6 -59
24 -110 41 -86 29 -97 30 -201 24 -152 -9 -194 -15 -229 -34 -47 -25 -100 -42
-107 -34 -3 4 -13 36 -23 72 -9 36 -24 85 -32 110 -27 78 -54 183 -54 207 0
13 -4 31 -9 41 -10 17 -41 139 -46 177 -2 11 -12 56 -23 100 -35 132 -54 227
-57 283 l-4 52 65 1 c35 1 67 2 72 3 4 1 26 6 49 10 49 9 103 49 140 103 14
21 30 41 34 44 19 11 26 65 17 119 -5 30 -9 75 -8 100 0 25 -7 61 -16 81 -13
30 -25 39 -70 55 -51 17 -58 17 -131 2 -49 -10 -85 -13 -100 -7 -12 4 -55 9
-95 11 -40 1 -79 6 -85 11 -9 6 -13 5 -13 -2z m391 -91 c5 0 9 -11 9 -24 0
-41 -70 -57 -221 -53 -133 5 -202 21 -207 50 -4 18 6 20 103 20 88 -1 140 -6
153 -16 6 -5 12 -7 12 -4 0 3 13 2 30 -3 24 -7 32 -5 42 9 15 21 38 31 56 25
8 -2 18 -4 23 -4z m-1891 -55 c80 -4 199 -8 265 -11 166 -6 183 -8 201 -26 26
-26 7 -38 -60 -38 -34 0 -85 -6 -112 -14 -27 -8 -69 -17 -94 -20 -48 -7 -140
-40 -178 -64 -13 -8 -29 -27 -37 -43 -8 -15 -24 -30 -35 -34 -11 -4 -18 -10
-15 -15 6 -10 -42 -50 -61 -50 -8 0 -14 -4 -14 -9 0 -15 -75 -23 -117 -12 -77
21 -123 107 -103 195 5 25 9 49 8 53 -4 17 13 49 34 63 22 14 143 39 163 34 6
-1 75 -5 155 -9z m1560 -487 c13 -46 29 -108 36 -138 7 -30 20 -84 28 -120 9
-36 26 -102 37 -148 19 -74 20 -85 6 -100 -8 -9 -18 -32 -22 -49 -3 -18 -11
-36 -17 -39 -5 -3 -29 -36 -53 -73 -24 -36 -71 -104 -104 -151 -33 -47 -60
-93 -60 -102 -1 -10 -5 -18 -9 -18 -8 0 -33 -50 -53 -110 -7 -19 -23 -49 -36
-66 -12 -17 -23 -37 -23 -43 0 -16 -52 -115 -62 -119 -5 -2 -8 -9 -8 -16 0 -8
-10 -24 -23 -37 -12 -13 -31 -37 -41 -52 -25 -40 -56 -75 -82 -92 -21 -13 -25
-13 -51 9 -16 14 -44 28 -63 33 l-35 9 -3 125 c-2 96 0 126 11 134 14 10 17
16 17 36 0 8 5 7 16 -2 13 -10 17 -10 25 2 30 44 30 49 9 79 -22 31 -32 33
-105 12 -16 -5 -69 -7 -116 -5 -107 5 -139 -6 -139 -46 0 -43 22 -57 69 -42
21 6 60 11 86 11 l48 0 -8 -37 c-4 -21 -8 -73 -10 -115 -2 -43 -6 -81 -8 -85
-2 -5 -3 -16 -2 -25 2 -11 -3 -19 -13 -19 -103 -8 -98 -9 -117 29 -10 21 -18
43 -16 49 1 7 -7 23 -19 35 -11 12 -25 38 -30 58 -6 19 -23 62 -40 94 -16 32
-30 66 -30 76 0 9 -11 39 -24 66 -23 47 -64 196 -81 289 -4 22 -22 85 -42 140
-72 207 -114 377 -117 473 -3 71 -3 72 23 73 14 0 40 2 56 4 74 9 255 27 300
30 60 5 180 15 215 20 14 1 68 6 120 10 52 3 101 8 109 11 7 2 52 7 100 10 47
4 87 7 88 8 2 2 56 3 122 5 l119 2 22 -83z m-1354 -235 c3 -21 15 -66 26 -101
18 -55 26 -90 30 -129 1 -7 5 -13 10 -13 5 0 7 -4 4 -9 -3 -4 3 -26 14 -48 10
-22 21 -53 24 -69 3 -16 10 -40 16 -54 12 -31 42 -169 42 -192 -1 -10 3 -18 8
-18 5 0 8 -8 8 -17 -1 -18 57 -197 70 -217 4 -6 7 -13 7 -16 0 -8 34 -87 62
-147 13 -28 26 -58 27 -67 1 -9 8 -22 14 -28 7 -7 12 -22 12 -34 0 -12 8 -36
17 -53 17 -29 17 -31 -4 -53 -25 -28 -53 -81 -53 -102 0 -19 -14 -28 -34 -20
-13 5 -15 15 -10 53 4 30 0 70 -9 107 -29 112 -40 172 -34 188 4 9 1 16 -6 16
-7 0 -17 8 -22 18 -45 82 -63 94 -106 72 -25 -14 -24 -40 5 -92 33 -59 74
-235 72 -305 l-1 -58 -70 -3 c-39 -1 -79 -3 -90 -4 -49 -2 -218 16 -345 37
-29 5 -94 13 -122 14 -5 1 -8 11 -8 24 0 22 -30 78 -56 104 -18 19 -10 72 28
178 16 44 40 118 54 165 14 46 30 90 35 96 5 7 18 36 27 65 17 51 19 54 50 52
30 -1 123 -34 201 -72 18 -9 43 -28 54 -43 11 -16 27 -28 34 -28 7 0 13 -4 13
-10 0 -5 12 -23 28 -39 15 -16 35 -39 44 -52 17 -22 19 -22 53 -6 23 11 35 24
35 37 0 26 -137 157 -198 190 -26 14 -49 28 -52 31 -8 9 -174 69 -192 69 -13
0 -12 8 7 48 13 26 30 65 38 87 35 94 70 181 78 195 4 8 20 40 34 70 65 136
110 220 117 220 4 0 10 -17 14 -37z m-468 -619 c25 -3 42 -10 42 -18 0 -16
-57 -176 -105 -296 -19 -47 -37 -96 -40 -110 -11 -46 -33 -64 -78 -67 -23 -1
-51 -4 -62 -7 -11 -2 -28 -5 -38 -5 -10 -1 -42 -23 -70 -50 -51 -48 -82 -112
-80 -166 2 -98 -2 -90 106 -191 26 -24 88 -33 146 -21 39 7 60 20 104 63 63
61 60 61 203 39 153 -24 265 -36 314 -35 25 1 71 1 103 1 68 -1 70 -7 31 -90
-59 -130 -73 -154 -116 -202 -10 -10 -18 -22 -18 -25 0 -3 -6 -11 -12 -18 -7
-7 -33 -37 -58 -66 -25 -29 -53 -61 -62 -69 -9 -9 -18 -23 -20 -31 -2 -8 -37
-30 -78 -48 -199 -90 -576 -91 -777 -2 -60 27 -149 94 -171 129 -9 15 -44 58
-77 94 -56 64 -140 211 -129 229 3 4 0 8 -6 8 -7 0 -10 6 -8 12 3 7 -1 31 -7
53 -20 69 4 336 35 395 10 19 30 60 43 90 29 65 144 186 226 238 31 19 66 43
77 54 12 11 50 33 85 50 57 27 84 37 194 68 29 9 217 5 303 -6z m2686 -124
c38 -12 86 -31 105 -41 20 -10 42 -19 49 -19 7 0 18 -5 25 -11 7 -5 27 -19 45
-29 17 -11 31 -25 30 -32 -2 -7 14 -17 35 -22 20 -5 37 -13 37 -18 0 -4 7 -8
15 -8 8 0 15 -4 15 -9 0 -5 16 -28 35 -51 36 -43 54 -76 78 -145 8 -22 26 -71
40 -108 23 -61 25 -80 23 -185 -3 -134 -37 -285 -81 -364 -15 -27 -24 -48 -20
-48 9 0 -108 -114 -158 -155 -48 -38 -155 -94 -184 -94 -12 -1 -24 -5 -27 -10
-3 -4 -31 -11 -63 -15 -32 -4 -71 -9 -88 -11 -43 -6 -204 -6 -245 1 -91 14
-165 42 -226 88 -23 17 -52 38 -64 46 -12 8 -47 44 -77 80 -79 94 -83 99 -83
110 0 5 -11 29 -24 52 -27 49 -51 129 -61 203 -4 28 -13 75 -22 105 -11 37
-14 76 -10 126 5 62 12 83 51 151 25 44 46 83 46 86 0 9 29 45 102 124 23 25
46 43 55 43 4 0 21 14 37 31 36 36 45 29 71 -56 19 -63 101 -228 116 -233 5
-2 9 -8 9 -14 0 -9 40 -68 70 -100 8 -9 29 -35 45 -57 31 -40 88 -67 119 -55
36 14 15 104 -24 104 -6 0 -28 11 -48 25 -20 14 -33 25 -29 25 4 0 0 8 -9 18
-63 70 -153 215 -172 277 -6 22 -18 61 -26 87 l-15 48 42 21 c83 41 232 69
337 63 30 -2 86 -13 124 -24z m-1453 -552 c33 -16 57 -33 54 -38 -3 -4 2 -11
10 -14 13 -4 14 -10 5 -26 -8 -15 -7 -32 2 -63 7 -23 12 -47 13 -54 0 -6 3
-14 6 -18 12 -11 -12 -89 -37 -122 -30 -40 -50 -51 -109 -62 l-46 -9 6 37 c3
20 7 47 10 61 4 19 -1 32 -20 48 -49 42 -76 21 -73 -56 1 -30 -3 -57 -10 -64
-8 -8 -12 -9 -12 -1 0 6 -14 14 -30 18 -54 12 -137 139 -115 175 3 5 16 8 28
5 12 -3 31 -6 42 -8 11 -1 25 -6 32 -10 18 -12 77 2 91 21 22 29 25 62 8 81
-9 10 -16 23 -16 29 0 7 -4 12 -10 12 -5 0 -10 6 -10 14 0 7 -9 25 -20 38 -10
14 -16 28 -13 32 4 4 41 6 82 5 59 -2 85 -8 132 -31z m-1331 2 c21 -21 17 -50
-7 -50 -10 0 -14 -9 -11 -29 2 -21 -5 -38 -21 -55 -14 -14 -28 -26 -32 -26 -8
0 19 110 31 125 4 6 6 20 4 33 -5 27 10 28 36 2z m1040 -91 c0 -5 -7 -9 -15
-9 -8 0 -15 7 -15 15 0 9 6 12 15 9 8 -4 15 -10 15 -15z"/>
</g>
</svg>
