<?xml version="1.0" standalone="no"?>
<!DOCTYPE svg PUBLIC "-//W3C//DTD SVG 20010904//EN"
 "http://www.w3.org/TR/2001/REC-SVG-20010904/DTD/svg10.dtd">
<svg version="1.0" xmlns="http://www.w3.org/2000/svg"
 width="531.000000pt" height="359.000000pt" viewBox="0 0 531.000000 359.000000"
 preserveAspectRatio="xMidYMid meet">
<metadata>
Created by potrace 1.16, written by Peter Selinger 2001-2019
</metadata>
<g transform="translate(0.000000,359.000000) scale(0.100000,-0.100000)"
fill="#000000" stroke="none">
<path d="M3478 3252 c-9 -2 -20 -13 -24 -25 -8 -25 22 -50 62 -52 20 0 24 4
24 26 0 30 -34 58 -62 51z"/>
<path d="M3305 3206 c-35 -28 -26 -56 19 -56 38 0 51 9 58 36 4 16 -1 23 -22
31 -23 9 -32 7 -55 -11z"/>
<path d="M3726 3215 c-56 -24 -38 -81 22 -69 40 8 56 27 48 59 -7 28 -25 31
-70 10z"/>
<path d="M3132 3188 c-26 -26 1 -68 44 -68 21 0 24 5 24 34 0 26 -5 35 -22 40
-31 8 -32 8 -46 -6z"/>
<path d="M4010 3180 c-8 -15 -5 -24 17 -45 31 -28 38 -30 50 -12 15 23 8 52
-16 65 -31 16 -39 15 -51 -8z"/>
<path d="M4249 3132 c-29 -38 -25 -62 12 -62 16 0 28 -4 25 -9 -3 -5 3 -11 13
-14 23 -6 38 25 33 69 -3 27 -8 33 -33 36 -23 4 -35 -1 -50 -20z"/>
<path d="M2991 3109 c-38 -15 -49 -28 -44 -49 8 -30 31 -31 64 -2 21 19 28 32
24 45 -8 19 -10 20 -44 6z"/>
<path d="M3231 3096 c-8 -9 -8 -22 0 -44 19 -54 60 -49 61 7 1 45 -36 68 -61
37z"/>
<path d="M3752 3073 c-28 -35 -28 -51 1 -62 31 -12 57 13 57 56 0 42 -27 45
-58 6z"/>
<path d="M4478 3055 c-15 -13 -32 -25 -40 -27 -20 -7 16 -56 44 -60 30 -4 56
32 50 71 -5 39 -22 44 -54 16z"/>
<path d="M3497 3052 c-21 -23 -22 -56 -1 -76 31 -31 80 -9 58 26 -5 7 -7 25
-5 40 2 22 -2 28 -17 28 -10 0 -26 -8 -35 -18z"/>
<path d="M3987 3049 c-21 -29 -22 -69 -3 -69 8 0 16 -10 18 -22 5 -33 25 -33
42 1 21 39 20 40 -13 80 l-28 34 -16 -24z"/>
<path d="M2841 3011 c-8 -5 -12 -19 -9 -34 3 -14 1 -31 -3 -38 -19 -32 23 -59
65 -43 21 8 20 20 -4 44 -11 11 -15 20 -10 20 6 0 10 14 10 30 0 31 -19 40
-49 21z"/>
<path d="M3670 2984 c0 -40 100 -85 113 -51 8 21 -51 71 -85 73 -23 2 -28 -2
-28 -22z"/>
<path d="M4227 2999 c-24 -14 -23 -66 1 -64 27 2 42 14 42 34 0 27 -21 42 -43
30z"/>
<path d="M3153 2970 c-24 -10 -29 -35 -14 -59 8 -12 14 -13 35 -3 26 12 31 27
20 56 -7 18 -10 18 -41 6z"/>
<path d="M2659 2933 c-11 -20 -10 -25 7 -38 25 -19 28 -19 49 5 22 24 14 46
-18 52 -19 4 -28 -1 -38 -19z"/>
<path d="M4393 2940 c-27 -11 -29 -23 -7 -45 12 -11 25 -14 43 -10 85 21 104
59 31 62 -25 1 -55 -2 -67 -7z"/>
<path d="M4642 2938 c-18 -18 -15 -28 14 -55 28 -26 42 -26 58 -1 7 12 5 23
-7 42 -19 28 -45 34 -65 14z"/>
<path d="M3311 2888 c-15 -23 -6 -55 18 -68 26 -13 56 20 47 53 -8 32 -49 41
-65 15z"/>
<path d="M4079 2908 c-1 -2 -3 -12 -4 -23 -1 -11 -6 -36 -10 -56 -7 -39 7 -61
27 -41 12 12 25 80 20 105 -3 14 -28 25 -33 15z"/>
<path d="M2958 2876 c-20 -15 -24 -41 -8 -51 16 -10 40 15 40 41 0 27 -7 29
-32 10z"/>
<path d="M4209 2870 c-22 -13 -53 -96 -43 -118 4 -9 8 -19 9 -22 14 -39 17
-41 36 -19 14 16 16 25 8 35 -7 9 -8 23 -1 46 24 79 22 95 -9 78z"/>
<path d="M4300 2851 c0 -35 15 -46 59 -46 40 0 66 29 41 45 -8 5 -22 7 -30 5
-8 -3 -27 2 -42 10 -27 13 -28 13 -28 -14z"/>
<path d="M3212 2844 c-24 -17 -30 -52 -9 -60 7 -2 31 1 53 8 30 11 38 18 36
33 -7 37 -43 45 -80 19z"/>
<path d="M3521 2842 c-6 -12 -5 -23 4 -35 11 -16 16 -16 34 -5 23 14 34 35 25
49 -9 16 -53 10 -63 -9z"/>
<path d="M4771 2831 c-13 -24 -10 -53 8 -75 11 -13 9 -16 -13 -22 -17 -4 -26
-13 -26 -25 0 -42 63 -31 94 16 21 32 0 119 -31 123 -14 2 -26 -4 -32 -17z"/>
<path d="M2559 2818 c-10 -18 -8 -24 12 -39 29 -23 43 -20 47 10 7 46 -38 68
-59 29z"/>
<path d="M4553 2825 c-35 -15 -44 -44 -20 -63 15 -13 82 1 93 19 3 6 -4 22
-17 34 -22 22 -26 23 -56 10z"/>
<path d="M2886 2791 c-26 -23 -51 -41 -57 -41 -15 0 -10 -46 6 -60 8 -7 15 -8
15 -3 0 5 11 16 25 23 32 17 81 98 67 112 -6 6 -26 -5 -56 -31z"/>
<path d="M3829 2814 c-17 -21 -6 -59 17 -62 23 -3 74 39 74 61 0 16 -78 17
-91 1z"/>
<path d="M2736 2787 c-22 -16 -18 -50 6 -55 23 -5 62 33 55 52 -8 19 -37 21
-61 3z"/>
<path d="M3669 2782 c-22 -15 -25 -60 -5 -68 26 -10 116 46 116 71 0 16 -87
14 -111 -3z"/>
<path d="M4370 2748 c-33 -36 -24 -98 14 -98 32 0 46 19 46 60 0 34 -14 60
-32 60 -4 0 -16 -10 -28 -22z"/>
<path d="M3314 2729 c-10 -17 -14 -72 -5 -87 5 -9 15 -17 22 -18 8 -2 29 -7
47 -13 30 -9 34 -8 44 14 13 30 -6 55 -43 55 -6 0 -7 5 -2 13 20 31 13 45 -22
45 -19 0 -38 -4 -41 -9z"/>
<path d="M4046 2724 c-12 -32 -6 -52 19 -58 17 -4 31 -1 41 9 17 16 11 35 -12
35 -8 0 -14 4 -14 9 0 16 -28 20 -34 5z"/>
<path d="M2430 2682 c-26 -21 -21 -39 13 -51 15 -6 25 -3 34 8 17 22 16 48 -3
55 -21 8 -19 9 -44 -12z"/>
<path d="M3860 2646 c-11 -25 -20 -49 -20 -55 0 -14 29 -41 45 -41 18 0 45 28
45 46 0 8 -7 14 -15 14 -12 0 -14 8 -9 40 9 57 -19 54 -46 -4z"/>
<path d="M2735 2672 c-47 -10 -58 -40 -24 -71 31 -29 73 -15 77 26 3 35 -18
53 -53 45z"/>
<path d="M3173 2673 c-28 -5 -47 -29 -39 -48 10 -27 35 -29 56 -5 19 22 28 61
13 59 -5 -1 -18 -4 -30 -6z"/>
<path d="M4625 2663 c-20 -20 -19 -29 7 -47 l22 -16 -21 -22 c-30 -34 -35 -66
-12 -78 20 -11 33 3 60 64 12 24 11 30 -4 41 -15 11 -15 14 -3 24 8 7 13 18
10 26 -8 20 -43 25 -59 8z"/>
<path d="M788 2659 c-2 -5 -11 -11 -21 -13 -22 -3 -79 -54 -95 -86 -7 -14 -24
-43 -37 -65 -53 -82 -66 -123 -71 -213 -2 -48 -6 -98 -9 -112 -2 -14 -9 -68
-15 -120 -7 -52 -15 -102 -18 -110 -3 -8 -6 -19 -7 -25 -1 -5 -5 -32 -9 -60
-4 -27 -9 -72 -11 -99 -4 -52 -45 -146 -76 -175 -11 -10 -39 -28 -63 -41 -47
-24 -123 -98 -149 -146 -51 -93 -76 -231 -74 -410 l2 -151 -30 -14 c-16 -7
-33 -13 -36 -12 -16 5 -18 -53 -4 -109 10 -37 16 -102 16 -163 0 -100 1 -103
26 -116 19 -10 57 -13 142 -10 64 1 142 4 174 5 31 0 57 4 57 9 0 4 6 7 13 7
8 0 19 24 27 64 10 51 16 62 26 52 13 -13 105 -14 162 -2 31 7 32 7 33 -26 4
-138 27 -232 69 -283 50 -59 108 -113 138 -129 18 -9 32 -20 32 -25 0 -5 19
-16 42 -26 24 -9 46 -21 49 -26 6 -10 48 -12 263 -9 127 2 143 4 188 28 27 14
60 38 73 54 13 15 29 28 35 28 6 0 8 5 5 10 -3 6 3 23 15 39 31 44 63 183 64
281 1 74 -8 131 -41 270 -3 14 -2 22 2 17 12 -10 32 -72 40 -119 4 -21 11 -40
16 -44 5 -3 7 -9 4 -14 -6 -10 43 -27 75 -25 38 2 70 15 70 27 0 6 7 19 16 29
15 16 15 35 4 191 -14 210 -18 260 -20 273 -6 29 1 32 58 23 80 -13 121 -11
147 6 21 14 22 21 19 118 -1 57 -5 130 -8 163 -12 144 -16 182 -21 215 -3 19
-7 76 -10 125 -2 50 -9 113 -14 141 -5 28 -11 79 -12 115 -3 85 -13 94 -103
93 -91 -2 -126 -17 -121 -53 2 -14 4 -26 5 -26 1 0 3 -34 5 -75 2 -41 6 -93 9
-115 15 -101 23 -234 16 -270 l-8 -40 -2 55 c-1 30 -3 69 -5 85 -2 17 -7 57
-10 90 -7 82 -15 141 -26 200 -5 28 -11 64 -13 80 -2 17 -9 66 -16 110 -24
165 -26 195 -19 206 4 7 3 24 -3 38 -5 14 -12 55 -15 91 -3 36 -9 73 -15 83
-6 12 -6 23 1 31 14 17 -8 76 -29 77 -8 0 -31 3 -50 5 -19 3 -109 5 -200 5
-91 0 -199 0 -240 0 -41 1 -82 0 -90 -1 -63 -7 -232 -3 -238 5 -4 6 -17 10
-29 9 -13 -1 -23 3 -23 7 0 13 -28 11 -32 -2z m119 -124 c13 -9 29 -13 36 -8
6 4 36 8 67 9 30 1 85 6 121 11 36 5 76 6 90 2 13 -3 30 -1 37 4 8 6 12 6 12
-2 0 -7 5 -9 10 -6 18 11 294 15 326 5 35 -12 50 -48 58 -140 3 -31 7 -62 10
-70 3 -8 8 -58 11 -110 9 -139 14 -182 24 -210 5 -14 13 -54 16 -90 4 -36 9
-74 10 -85 1 -11 6 -62 9 -113 4 -51 9 -101 11 -112 5 -26 14 -128 20 -228 2
-46 7 -86 9 -90 2 -4 7 -60 10 -125 5 -95 4 -117 -7 -117 -22 0 -51 127 -62
270 -2 41 -7 105 -10 143 -2 37 -14 138 -26 225 -11 86 -22 184 -24 217 -12
178 -17 225 -26 274 -6 29 -12 109 -14 177 -2 69 -6 128 -9 133 -6 10 -51 20
-121 28 -27 3 -54 9 -59 14 -14 13 -33 11 -69 -5 -18 -8 -45 -17 -62 -20 -16
-3 -57 -10 -90 -16 -33 -6 -65 -17 -71 -25 -6 -8 -16 -15 -23 -15 -6 0 -16
-10 -21 -22 -10 -24 -30 -193 -35 -289 -1 -30 -7 -64 -13 -75 -6 -11 -11 -38
-12 -60 0 -21 -2 -82 -4 -134 -9 -212 -4 -535 9 -636 6 -48 8 -52 38 -58 51
-11 81 -13 92 -7 6 3 17 6 25 7 8 0 31 4 50 8 26 5 48 2 80 -11 64 -26 154
-80 176 -105 l19 -21 -26 16 c-33 22 -147 59 -159 52 -4 -3 -10 -1 -12 5 -4
12 -140 17 -178 7 -14 -3 -41 -10 -60 -15 -19 -5 -51 -16 -70 -25 -19 -9 -46
-18 -59 -20 -14 -2 -27 -9 -29 -15 -2 -7 -11 -12 -20 -12 -19 -1 -72 -44 -72
-58 0 -5 -9 -12 -20 -15 -11 -3 -23 -13 -27 -24 -3 -10 -18 -36 -33 -58 -25
-36 -50 -97 -56 -135 -2 -8 -6 -35 -10 -60 -10 -60 -23 -71 -83 -69 -28 1 -57
-3 -65 -10 -12 -10 -16 -6 -25 22 -7 19 -13 48 -14 65 -1 18 -5 32 -9 32 -4 0
-10 9 -13 20 -3 11 -13 20 -21 20 -8 0 -14 4 -14 10 0 5 -18 13 -41 16 -22 4
-46 13 -54 20 -17 18 -85 29 -85 15 0 -6 -9 -11 -20 -11 -13 0 -22 10 -28 33
-11 37 0 56 22 38 10 -8 28 -10 53 -6 21 4 45 8 53 10 37 5 87 40 115 78 23
32 30 54 33 103 4 55 0 69 -28 122 -50 94 -81 116 -162 115 -25 -1 -38 4 -38
12 0 13 98 122 112 124 29 6 77 34 100 58 38 39 86 162 92 231 2 31 9 86 15
122 6 36 16 103 22 150 6 47 13 96 15 110 3 14 7 54 9 90 8 109 17 148 44 198
11 21 27 52 37 70 10 17 23 32 30 32 6 0 14 9 17 20 4 17 12 19 63 15 32 -3
68 -12 81 -20z m603 -91 c8 -1 21 -3 28 -3 8 -1 12 -10 11 -23 -2 -13 0 -28 3
-33 4 -6 9 -44 13 -85 3 -41 9 -91 14 -110 9 -36 20 -156 27 -293 2 -42 8 -94
14 -115 5 -21 9 -56 9 -78 -1 -21 3 -70 9 -109 6 -38 14 -119 18 -180 9 -164
11 -176 20 -225 4 -25 7 -49 6 -53 -2 -5 2 -24 7 -44 8 -29 8 -34 -5 -29 -9 3
-19 6 -23 6 -4 0 -23 14 -41 30 -18 17 -38 30 -44 30 -6 0 -22 12 -35 25 -13
14 -29 25 -36 25 -7 0 -19 7 -26 16 -12 15 -82 50 -161 82 -26 11 -114 9 -169
-3 -30 -7 -34 -1 -44 75 -10 69 -13 572 -4 600 4 14 10 48 14 75 27 236 42
342 51 356 3 5 13 9 23 9 10 0 24 7 31 15 7 8 23 15 36 15 12 0 26 5 30 11 3
6 17 8 29 5 13 -3 27 -1 30 4 4 6 10 8 14 6 4 -3 13 0 21 5 13 8 72 5 130 -7z
m454 -491 c7 -36 37 -340 41 -420 2 -35 6 -67 9 -72 3 -4 8 -72 11 -149 l6
-142 -43 3 -43 2 0 105 c0 58 -7 138 -14 178 -9 45 -11 76 -5 82 6 6 5 50 -3
117 -7 60 -15 146 -18 193 -3 47 -7 95 -10 108 -5 19 -2 22 29 22 30 0 35 -4
40 -27z m-93 -570 c0 -10 3 -30 5 -45 3 -16 0 -28 -5 -28 -5 0 -11 20 -13 45
-2 25 0 45 4 45 5 0 8 -8 9 -17z m9 -93 c0 -5 -4 -10 -10 -10 -5 0 -10 5 -10
10 0 6 5 10 10 10 6 0 10 -4 10 -10z m-1584 -91 c-4 -23 -13 -54 -22 -70 -8
-16 -15 -54 -16 -84 -1 -47 -4 -54 -21 -51 -30 4 -34 21 -24 102 10 93 22 125
40 118 8 -3 20 2 27 11 20 24 23 18 16 -26z m113 -42 c12 -24 21 -51 21 -61 0
-24 -60 -113 -60 -89 0 4 -5 1 -10 -7 -9 -13 -11 -13 -20 0 -5 8 -10 24 -10
35 0 27 43 165 51 165 4 0 17 -19 28 -43z m910 -119 c116 -31 147 -45 195 -90
30 -28 45 -47 36 -48 -9 0 -30 13 -48 29 -17 16 -42 32 -54 36 -13 4 -41 15
-63 25 -22 10 -71 25 -108 34 -60 13 -75 13 -123 0 -69 -18 -92 -18 -76 -2 23
23 175 33 241 16z m271 -10 c40 -38 68 -47 141 -49 38 -1 73 -7 76 -12 4 -6 8
-50 9 -97 2 -47 6 -106 9 -132 7 -62 -2 -98 -26 -98 -10 0 -19 3 -20 8 0 4 -2
16 -4 27 -3 11 -6 39 -7 62 -2 24 -6 43 -10 43 -3 0 -9 13 -13 28 -4 18 -30
51 -70 86 -35 32 -69 71 -75 87 -7 16 -18 29 -24 29 -6 0 -17 9 -24 20 -18 29
7 27 38 -2z m-530 -27 c0 -5 -15 -15 -32 -22 -18 -7 -41 -24 -52 -37 -12 -15
-26 -22 -37 -19 -12 3 -20 -2 -24 -14 -4 -10 -10 -19 -15 -19 -16 0 -70 -55
-70 -71 0 -9 -9 -24 -21 -34 -20 -19 -20 -19 -10 5 30 77 43 99 61 105 11 3
28 17 39 31 10 13 26 24 35 24 9 0 19 7 22 15 4 8 12 15 19 15 7 0 26 7 41 15
33 17 44 19 44 6z m254 -72 c17 -7 32 -14 34 -15 2 -1 -4 -14 -13 -28 -20 -31
-13 -59 20 -74 21 -10 25 -9 25 3 0 8 3 15 8 15 12 0 11 54 -1 70 -9 11 -7 11
8 -1 11 -9 30 -20 43 -23 32 -10 45 -39 27 -62 -19 -26 -19 -70 1 -78 29 -11
43 -6 61 24 l17 30 34 -37 33 -38 -23 -15 c-13 -8 -34 -26 -47 -39 l-25 -24
23 -18 c28 -23 45 -24 65 -3 9 8 16 14 17 12 18 -77 17 -92 -6 -96 -28 -6 -45
-21 -45 -42 0 -22 30 -48 52 -45 11 2 16 -4 16 -18 -2 -34 -17 -47 -47 -41
-38 8 -56 -15 -40 -50 7 -14 20 -28 30 -31 26 -8 31 -33 14 -66 -18 -34 -26
-36 -50 -9 -21 23 -48 26 -64 7 -8 -10 -6 -23 9 -52 20 -39 18 -60 -5 -51 -7
2 -16 -1 -18 -8 -3 -8 -19 -15 -36 -18 -29 -4 -30 -3 -36 44 -8 58 -39 89 -61
60 -16 -20 -18 -68 -4 -77 6 -3 10 -12 10 -18 0 -8 -21 -13 -60 -13 l-59 -2 1
43 c3 67 -36 99 -62 51 -10 -19 -10 -32 -1 -57 6 -17 11 -34 11 -35 0 -2 -13
-4 -29 -4 -30 0 -107 36 -135 62 -8 7 -29 24 -48 38 -84 63 -114 103 -126 165
-18 92 -21 203 -7 267 14 72 30 92 44 56 18 -46 111 -63 111 -19 0 18 -32 51
-69 71 -26 13 -26 28 -1 59 l20 24 42 -28 c45 -30 79 -35 103 -15 17 14 20 40
5 40 -6 0 -9 6 -8 12 2 7 -7 14 -19 16 -35 5 -27 18 9 16 18 -1 37 -10 44 -19
18 -24 70 -17 67 10 -3 32 -9 54 -16 62 -4 4 2 12 14 19 26 14 99 10 143 -7z
m-979 -204 c44 -9 84 -20 89 -25 12 -12 16 -30 23 -102 7 -76 1 -91 -32 -78
-14 6 -24 6 -21 2 3 -5 -38 -14 -92 -21 -66 -9 -97 -10 -100 -3 -2 6 -9 9 -17
6 -10 -4 -15 7 -19 38 -3 24 -8 59 -11 78 -3 19 -7 51 -8 70 -1 33 1 35 33 41
57 10 71 10 155 -6z"/>
<path d="M818 2492 c9 -7 8 -13 -7 -26 -11 -10 -17 -24 -14 -32 3 -8 0 -14 -6
-14 -6 0 -11 -11 -11 -25 0 -14 -4 -33 -9 -43 -15 -29 -35 -76 -37 -87 -1 -5
-3 -12 -4 -15 -1 -3 -3 -26 -5 -53 -2 -26 -7 -53 -11 -59 -10 -15 -14 -45 -17
-134 -2 -39 -7 -75 -10 -81 -13 -20 -15 -73 -3 -73 6 0 5 -4 -3 -9 -10 -6 -14
-43 -16 -146 l-2 -138 32 -28 c27 -24 39 -28 71 -24 79 9 125 18 130 26 3 5
14 9 24 9 25 0 37 43 44 165 3 55 8 111 11 125 3 14 7 52 10 85 3 33 10 83 16
110 5 28 11 120 12 205 l2 156 -33 42 c-19 23 -45 45 -58 48 -13 3 -24 10 -24
15 0 5 -10 4 -21 -3 -17 -10 -23 -10 -26 0 -3 6 -14 12 -26 12 -15 0 -18 -3
-9 -8z m121 -135 c9 -27 7 -184 -3 -214 -4 -14 -3 -23 2 -23 6 0 5 -22 -3 -57
-7 -32 -16 -87 -19 -123 -3 -36 -10 -96 -16 -135 -5 -38 -9 -96 -10 -127 0
-55 -1 -58 -27 -64 -16 -3 -39 -10 -53 -15 -33 -12 -68 -8 -74 8 -3 7 0 13 6
13 7 0 7 4 0 13 -10 12 -8 153 4 252 10 84 12 100 14 100 1 0 2 27 2 60 1 33
5 63 10 66 5 3 11 34 15 69 3 38 15 81 28 105 13 22 26 54 29 72 11 50 77 50
95 0z"/>
<path d="M1297 2370 c-12 -10 -24 -18 -27 -18 -19 -2 -39 -16 -44 -29 -4 -9
-11 -61 -17 -117 -5 -56 -12 -112 -15 -126 -3 -14 -7 -63 -9 -110 -2 -47 -7
-149 -10 -227 -7 -151 2 -208 33 -217 49 -13 105 -17 134 -7 32 10 117 19 225
24 47 2 53 4 53 24 0 12 -5 34 -11 50 -13 33 -21 116 -33 328 -4 61 -9 151
-12 200 -3 50 -9 106 -14 125 -5 19 -12 47 -15 62 -7 38 -33 48 -131 52 -69 3
-89 0 -107 -14z m186 -87 c17 -59 19 -92 31 -353 4 -69 9 -164 12 -212 7 -94
7 -93 -43 -91 -7 1 -13 -3 -13 -8 0 -5 -26 -8 -57 -7 -32 1 -68 -4 -80 -10
-23 -13 -62 -16 -85 -7 -8 3 -13 21 -12 48 1 23 3 101 4 172 3 118 11 222 25
315 2 19 6 51 8 70 2 19 7 49 11 65 l7 30 93 3 c84 3 95 2 99 -15z"/>
<path d="M1450 1444 c-17 -44 -12 -63 18 -70 15 -3 39 -10 54 -16 43 -16 78
-3 78 30 0 40 -9 48 -72 66 -71 20 -67 21 -78 -10z"/>
<path d="M1220 697 c0 -5 -4 -5 -10 -2 -5 3 -10 -1 -10 -9 0 -9 -4 -16 -9 -16
-5 0 -22 -20 -38 -45 -15 -25 -31 -45 -34 -45 -3 0 -6 -21 -8 -47 -1 -26 -4
-50 -7 -54 -2 -4 0 -10 6 -14 5 -3 10 -13 10 -22 0 -8 18 -33 41 -55 40 -39
41 -39 97 -32 31 4 66 10 78 14 30 12 82 66 105 111 17 35 18 44 8 82 -7 23
-13 46 -13 50 -1 5 -8 14 -16 20 -8 7 -21 24 -29 39 -9 18 -25 30 -45 33 -41
8 -126 2 -126 -8z m130 -94 c41 -35 37 -72 -11 -121 -34 -35 -47 -42 -79 -42
-30 0 -43 6 -59 26 -12 15 -21 34 -21 43 0 22 23 71 33 71 4 0 7 6 7 13 0 14
52 34 85 33 11 -1 31 -11 45 -23z"/>
<path d="M1283 593 c-17 -11 -23 -25 -23 -50 0 -33 1 -34 38 -31 33 3 37 6 40
34 2 19 -3 36 -15 46 -16 14 -20 14 -40 1z"/>
<path d="M847 572 c-30 -33 -22 -60 22 -73 86 -26 111 42 28 79 -35 15 -31 15
-50 -6z"/>
<path d="M941 420 c-42 -23 -81 -60 -81 -76 0 -7 9 -18 21 -24 16 -9 29 -7 63
8 51 25 64 38 68 77 4 37 -20 42 -71 15z"/>
<path d="M1033 287 c-4 -8 -17 -16 -28 -18 -11 -3 -25 -15 -32 -29 -10 -20 -9
-27 5 -40 24 -23 68 -13 98 23 32 38 29 71 -8 75 -15 2 -30 -3 -35 -11z"/>
<path d="M2563 2658 c-21 -28 -23 -37 -7 -52 24 -25 51 -20 59 11 5 20 2 31
-11 40 -22 16 -29 16 -41 1z"/>
<path d="M4913 2658 c-6 -7 -13 -26 -15 -43 -3 -16 -7 -36 -9 -43 -7 -23 26
-38 58 -26 29 10 31 22 20 94 -4 28 -37 39 -54 18z"/>
<path d="M2987 2631 c-39 -20 -54 -25 -50 -14 15 39 -57 32 -88 -9 -15 -19
-15 -24 -3 -36 12 -12 20 -12 46 -1 26 11 32 10 40 -4 12 -22 36 -22 60 0 17
15 19 15 32 -2 11 -16 17 -17 29 -7 26 22 30 60 9 82 -19 21 -19 20 -75 -9z"/>
<path d="M3694 2624 c-7 -29 19 -64 47 -64 74 0 60 63 -19 82 -17 5 -23 1 -28
-18z"/>
<path d="M4455 2626 c-12 -17 -13 -23 -2 -40 20 -30 44 -28 57 4 7 16 10 34 8
41 -7 20 -48 17 -63 -5z"/>
<path d="M3500 2622 c0 -5 -16 -15 -36 -22 -41 -16 -59 -41 -42 -58 18 -18 50
-14 81 12 23 18 27 28 22 49 -7 25 -25 38 -25 19z"/>
<path d="M4236 2594 c-23 -22 -20 -39 11 -53 21 -10 28 -9 35 1 22 33 28 49
23 58 -10 15 -52 12 -69 -6z"/>
<path d="M4750 2576 c0 -7 -7 -19 -15 -26 -16 -13 -16 -28 0 -46 9 -11 31 -1
74 33 6 4 -41 53 -51 53 -4 0 -8 -6 -8 -14z"/>
<path d="M2287 2546 c-18 -19 -13 -48 13 -63 22 -14 48 9 52 48 2 19 -2 25
-23 27 -15 2 -33 -4 -42 -12z"/>
<path d="M4109 2544 c-13 -16 4 -44 27 -44 11 0 34 29 34 43 0 12 -51 13 -61
1z"/>
<path d="M2127 2452 c-54 -5 -66 -34 -43 -107 12 -40 16 -75 12 -132 -3 -43
-1 -96 4 -118 9 -42 23 -184 21 -223 0 -13 3 -31 8 -41 6 -10 12 -35 15 -57 2
-21 7 -50 10 -64 3 -14 8 -68 10 -120 2 -52 10 -109 16 -127 8 -23 9 -46 2
-77 -5 -24 -8 -73 -6 -108 2 -34 4 -84 4 -109 0 -27 6 -52 14 -58 9 -8 241
-12 797 -13 431 -1 810 -4 842 -6 l57 -4 -67 -70 c-38 -39 -85 -87 -107 -107
-68 -64 -81 -112 -34 -130 19 -7 38 8 148 119 69 69 133 131 143 136 10 6 19
20 20 32 1 21 6 22 81 22 44 0 77 -2 75 -4 -2 -2 -25 -14 -50 -28 -25 -13 -59
-39 -76 -58 -30 -35 -103 -154 -103 -169 0 -4 -7 -22 -15 -38 -19 -37 -27
-213 -14 -296 13 -83 55 -164 121 -232 32 -32 58 -63 58 -67 0 -4 6 -8 14 -8
7 0 24 -9 38 -19 13 -11 50 -28 80 -38 31 -11 63 -24 70 -30 7 -5 56 -11 108
-12 104 -2 140 8 218 60 24 16 46 29 50 29 4 0 29 21 55 47 56 55 112 146 119
194 3 19 11 69 18 112 18 109 -2 205 -75 362 -26 55 -120 151 -175 178 l-35
17 105 -1 c58 0 99 -3 92 -6 -10 -4 -10 -8 -1 -19 6 -8 15 -12 19 -9 4 2 29
-23 56 -58 27 -34 57 -70 67 -80 9 -9 38 -49 62 -87 39 -60 49 -70 74 -70 49
0 56 52 13 108 -31 41 -32 42 -112 137 -33 39 -60 73 -60 77 0 7 193 4 206 -4
5 -3 26 -5 47 -4 20 0 39 -3 42 -9 3 -6 7 -5 11 3 3 6 12 12 20 12 20 0 27 39
20 112 -18 203 -19 268 -1 288 13 14 14 23 5 39 -6 12 -14 21 -18 21 -20 0
-30 62 -31 192 -1 78 -4 145 -7 150 -16 26 -24 116 -29 325 -5 240 3 231 -178
231 -290 1 -484 1 -522 -1 -22 -2 -52 0 -67 4 -16 4 -28 5 -28 1 0 -4 -28 -6
-62 -5 -35 2 -472 5 -973 8 -500 3 -962 7 -1025 8 -63 1 -132 1 -153 -1z
m1275 -95 c6 -9 8 -8 8 1 0 11 122 12 683 7 375 -3 723 -7 772 -10 50 -2 113
-5 141 -6 l51 -2 2 -97 c1 -54 3 -107 6 -118 4 -22 7 -107 6 -164 l-1 -36
-349 5 c-247 3 -351 1 -356 -6 -3 -6 -11 -8 -17 -5 -16 10 -282 14 -1163 18
-689 4 -981 9 -991 19 -2 1 -6 34 -9 72 -4 38 -9 74 -13 80 -10 15 -9 239 2
250 13 15 1219 7 1228 -8z m188 -491 c437 -2 919 -8 1070 -11 151 -4 310 -8
352 -9 43 0 78 -3 79 -6 0 -3 2 -67 4 -143 l2 -138 -436 5 c-240 3 -454 5
-476 3 -63 -3 -1783 -1 -1855 3 -36 2 -70 5 -76 7 -7 2 -15 41 -19 86 -6 71
-15 132 -27 187 -5 22 43 25 327 23 143 -1 618 -4 1055 -7z m580 -386 c8 0
170 0 360 0 190 0 390 -3 445 -6 55 -3 110 -6 122 -6 26 0 29 -16 37 -190 6
-102 5 -108 -14 -108 -10 0 -22 5 -25 10 -4 6 -10 8 -15 5 -14 -8 -2808 -11
-2817 -2 -7 7 -7 103 -1 266 l2 44 945 -7 c521 -3 953 -6 961 -6z m255 -455
c11 -1 24 -3 29 -4 4 0 6 -16 3 -33 -5 -35 7 -78 25 -89 22 -14 48 15 48 53 0
20 5 40 10 43 6 3 10 -4 10 -17 0 -17 3 -19 9 -9 8 13 25 6 80 -35 2 -2 -11
-21 -28 -43 -31 -39 -35 -55 -16 -77 17 -20 63 3 67 34 4 38 22 37 44 -3 13
-24 16 -39 9 -49 -39 -53 -45 -65 -39 -81 6 -14 15 -16 45 -12 37 5 39 4 39
-23 0 -41 -10 -60 -30 -60 -33 0 -50 -12 -50 -35 0 -25 21 -47 42 -44 39 5 43
-17 16 -91 l-9 -25 -34 40 c-28 34 -36 38 -52 29 -10 -6 -17 -20 -17 -30 2
-46 5 -54 19 -54 7 0 18 -6 22 -14 4 -8 17 -16 28 -18 18 -3 16 -7 -16 -38
-53 -50 -73 -66 -79 -60 -3 3 -4 9 -2 13 2 8 -31 60 -53 83 -13 14 -50 1 -58
-19 -5 -15 19 -55 56 -92 17 -17 17 -18 -2 -31 -24 -17 -63 -32 -100 -39 -26
-4 -27 -3 -23 25 7 51 -6 96 -33 110 -36 19 -61 -5 -50 -47 5 -15 8 -39 9 -53
1 -14 8 -28 16 -33 9 -4 3 -5 -15 -3 -50 7 -116 26 -144 41 l-26 14 26 1 c32
0 76 69 57 88 -15 15 -58 15 -58 0 0 -6 -3 -9 -6 -5 -10 10 -36 -22 -38 -47
-1 -30 -17 -23 -72 31 l-38 37 31 8 c18 5 39 18 48 30 33 47 7 96 -37 69 -10
-6 -22 -9 -27 -7 -4 3 -19 -6 -31 -19 l-24 -25 -13 32 c-8 18 -17 55 -19 81
l-6 49 21 -21 c17 -17 25 -18 53 -11 18 6 41 19 51 31 17 21 17 23 0 41 -23
25 -90 17 -115 -13 -18 -21 -18 -20 -18 22 0 24 5 51 10 59 5 8 10 11 10 7 0
-5 6 -5 12 -1 7 5 27 7 45 5 29 -2 33 0 33 22 0 21 -22 45 -78 82 -1 1 0 10 4
19 5 13 14 15 38 11 81 -16 96 0 50 54 l-27 33 35 35 c30 29 39 33 54 24 11
-6 15 -11 10 -11 -4 0 14 -22 41 -48 62 -61 95 -64 101 -10 2 22 -3 41 -12 51
-8 8 -13 17 -11 19 3 3 -5 4 -16 4 -12 -1 -26 7 -32 16 -17 26 4 42 46 34 31
-6 34 -9 32 -42 -1 -37 18 -62 54 -69 16 -3 21 1 22 18 2 46 -3 82 -14 96 -10
11 -8 13 13 6 14 -4 34 -9 45 -10z"/>
<path d="M4365 779 c-100 -22 -145 -78 -145 -182 0 -30 8 -46 40 -81 66 -72
137 -77 209 -17 49 41 50 45 50 145 0 102 -61 156 -154 135z m80 -153 c-6 -43
-37 -75 -72 -76 -28 0 -73 38 -73 61 0 27 22 69 35 69 17 0 25 -11 18 -23 -15
-25 -10 -53 13 -70 24 -18 25 -18 44 5 21 25 23 77 3 85 -7 3 -13 9 -13 15 0
5 11 1 25 -9 22 -16 25 -23 20 -57z"/>
<path d="M3104 1031 c-2 -2 -248 -5 -546 -5 l-543 -1 -36 -60 c-20 -33 -35
-63 -32 -67 2 -4 -2 -18 -8 -30 -24 -44 -4 -173 34 -220 21 -26 27 -28 112
-29 50 -1 95 0 100 0 6 1 91 1 190 0 428 -5 890 1 893 11 3 7 8 7 15 2 7 -5
24 -11 39 -14 26 -5 31 1 43 52 2 8 11 40 19 70 19 66 10 230 -13 230 -4 0
-12 10 -18 23 -7 15 -20 23 -42 25 -17 1 -31 -2 -31 -8 0 -15 -21 -12 -41 6
-17 15 -123 27 -135 15z m173 -88 c3 -21 12 -45 22 -53 9 -8 16 -26 15 -40 0
-14 -1 -45 -3 -70 -1 -26 -9 -55 -20 -70 -19 -23 -20 -24 -39 -7 -10 9 -21 14
-25 11 -9 -9 -514 -17 -994 -15 l-203 1 -15 36 c-19 46 -19 79 1 137 27 80 22
79 372 71 169 -4 312 -6 317 -6 14 1 312 3 363 2 23 0 42 -5 42 -11 0 -5 -10
-9 -22 -7 -15 2 -27 -5 -37 -24 -14 -24 -14 -28 2 -46 12 -13 15 -28 11 -48
-7 -37 13 -58 49 -48 21 5 27 13 29 42 2 19 9 37 16 40 7 2 12 0 10 -5 -4 -14
34 -85 49 -90 8 -3 22 1 30 10 29 28 -3 115 -44 121 -10 2 -17 6 -15 9 1 4 2
19 2 33 0 23 3 25 25 20 22 -6 27 -2 37 24 13 37 18 33 25 -17z"/>
<path d="M2237 891 c-21 -36 -21 -41 -2 -41 10 0 15 -10 15 -28 0 -34 16 -52
47 -52 22 0 23 3 18 35 -3 19 -7 51 -10 70 -3 19 -10 35 -15 35 -4 0 -14 2
-22 5 -8 3 -21 -7 -31 -24z"/>
<path d="M2525 912 c-26 -19 -36 -41 -27 -59 6 -10 15 -31 21 -46 8 -21 17
-28 34 -25 19 3 22 10 25 52 2 35 -2 53 -14 67 -19 21 -24 22 -39 11z"/>
<path d="M2372 902 c-16 -11 -12 -73 5 -79 7 -3 13 -11 13 -19 0 -8 5 -14 11
-14 5 0 7 -5 3 -11 -4 -8 0 -8 15 0 22 12 24 19 21 66 -4 57 -31 80 -68 57z"/>
<path d="M2897 903 c-11 -10 -8 -51 3 -58 6 -3 10 -14 10 -23 0 -26 13 -40 42
-46 18 -3 28 1 32 11 10 24 7 58 -6 71 -7 7 -8 12 -4 12 5 0 -3 9 -17 20 -26
20 -48 25 -60 13z"/>
<path d="M2646 885 c-3 -9 -3 -36 1 -61 4 -34 11 -48 27 -53 37 -14 60 34 42
89 -14 40 -58 56 -70 25z"/>
<path d="M2108 868 c-9 -24 4 -97 19 -109 11 -10 17 -9 30 4 16 16 22 84 9
105 -10 16 -53 15 -58 0z"/>
<path d="M2766 864 c-12 -31 -5 -52 27 -88 29 -31 36 -34 51 -23 36 27 -6 127
-53 127 -10 0 -22 -7 -25 -16z"/>
</g>
</svg>
