<?xml version="1.0" standalone="no"?>
<!DOCTYPE svg PUBLIC "-//W3C//DTD SVG 20010904//EN"
 "http://www.w3.org/TR/2001/REC-SVG-20010904/DTD/svg10.dtd">
<svg version="1.0" xmlns="http://www.w3.org/2000/svg"
 width="459.000000pt" height="385.000000pt" viewBox="0 0 459.000000 385.000000"
 preserveAspectRatio="xMidYMid meet">
<metadata>
Created by potrace 1.16, written by Peter Selinger 2001-2019
</metadata>
<g transform="translate(0.000000,385.000000) scale(0.100000,-0.100000)"
fill="#000000" stroke="none">
<path d="M2567 3495 c-15 -8 -31 -15 -35 -16 -46 -11 -132 -90 -132 -121 0
-10 -4 -18 -9 -18 -10 0 -13 -10 -47 -140 -46 -174 -68 -289 -80 -411 -3 -37
-8 -82 -9 -100 -2 -19 -8 -61 -14 -94 -23 -140 -42 -854 -28 -1050 23 -308 26
-329 55 -438 11 -40 23 -90 27 -113 4 -25 19 -55 40 -80 19 -21 35 -44 35 -49
0 -11 36 -45 47 -45 3 0 14 -7 23 -15 43 -39 180 -3 254 67 11 10 22 18 26 18
8 0 74 135 95 195 9 28 23 79 30 115 8 36 21 85 29 109 9 24 16 52 16 62 0 9
7 24 15 33 8 8 15 18 15 22 0 4 17 34 38 68 22 34 44 78 51 99 7 20 16 37 21
37 5 0 18 26 30 57 12 32 25 62 30 68 4 5 11 27 15 48 4 20 11 40 16 43 5 3 9
16 9 29 0 13 4 26 9 29 5 4 12 25 16 49 4 23 8 53 11 67 9 54 21 85 33 85 19
0 80 -47 86 -67 3 -9 11 -15 18 -13 7 3 17 1 23 -3 15 -11 55 -78 49 -84 -3
-3 1 -11 10 -18 8 -7 15 -28 15 -46 0 -18 7 -52 16 -74 9 -22 14 -51 12 -65
-3 -14 -1 -25 4 -25 10 0 5 -80 -13 -230 -15 -128 -19 -152 -30 -188 -13 -39
-17 -276 -6 -345 9 -59 21 -84 58 -119 64 -60 127 -40 186 58 32 54 36 68 43
164 3 58 3 112 -1 120 -4 9 -11 45 -14 80 -4 36 -13 86 -20 112 -7 25 -11 48
-9 51 11 10 5 92 -8 112 -3 6 -5 32 -3 59 2 27 0 57 -6 67 -8 16 -36 112 -44
149 -6 33 -18 60 -26 60 -5 0 -9 7 -9 15 0 8 -4 15 -8 15 -4 0 -16 20 -26 44
-10 24 -30 57 -45 73 -46 52 -71 83 -71 88 0 5 -60 70 -117 128 -21 20 -48 40
-61 43 -16 5 -22 13 -21 28 2 23 -7 69 -21 101 -5 11 -14 47 -20 80 -6 33 -20
85 -32 115 -11 30 -29 80 -41 110 -11 30 -26 69 -33 85 -7 17 -22 52 -33 78
-15 35 -23 81 -27 160 -4 62 -13 137 -20 167 -14 56 -53 161 -63 170 -3 3 -12
16 -19 30 -32 61 -68 87 -140 104 -87 20 -129 20 -165 1z m113 -116 c35 -7 56
-18 68 -36 9 -14 25 -32 35 -41 9 -9 17 -24 17 -33 0 -8 3 -19 7 -22 11 -11
41 -105 36 -111 -3 -3 0 -19 5 -36 10 -27 9 -32 -11 -41 -162 -74 -252 -212
-256 -393 0 -38 -5 -74 -10 -80 -21 -28 -31 -155 -37 -456 -3 -179 -7 -326 -8
-327 -3 -3 3 -46 23 -168 5 -33 16 -77 25 -97 9 -21 16 -45 16 -55 1 -10 9
-36 20 -58 11 -22 19 -45 20 -52 0 -18 57 -73 75 -73 9 0 26 5 37 11 19 10 20
9 13 -7 -4 -11 -20 -59 -35 -109 -14 -49 -34 -104 -43 -122 -9 -18 -17 -38
-17 -46 0 -7 -14 -32 -31 -55 -21 -29 -38 -42 -55 -42 -13 0 -32 -5 -42 -11
-22 -14 -80 12 -89 39 -3 9 -14 37 -25 61 -21 46 -26 65 -35 116 -3 17 -10 35
-15 42 -5 7 -7 16 -5 21 3 4 2 40 -3 80 -5 39 -12 140 -15 224 -3 84 -8 207
-11 273 -12 269 -5 758 11 785 1 3 6 44 9 91 8 93 10 111 26 214 6 39 14 88
17 110 3 22 9 45 13 50 4 6 11 33 15 60 4 28 11 58 16 67 5 9 12 34 15 55 8
49 89 170 117 176 40 8 55 7 107 -4z m145 -499 c12 -14 30 -45 40 -70 11 -25
29 -58 41 -75 24 -35 56 -103 74 -160 7 -22 16 -47 20 -55 4 -8 22 -62 40
-120 27 -90 32 -119 31 -199 -1 -52 -4 -97 -6 -102 -3 -4 -7 -26 -9 -50 -3
-23 -8 -45 -13 -48 -5 -3 -10 -26 -12 -50 -1 -24 -11 -61 -21 -82 -11 -21 -20
-46 -20 -55 0 -9 -19 -53 -42 -98 -23 -44 -48 -93 -55 -108 -8 -16 -23 -28
-34 -28 -12 0 -21 -9 -25 -27 -7 -29 -76 -105 -105 -115 -9 -3 -22 -2 -29 2
-15 10 -62 159 -53 172 2 5 0 14 -5 21 -16 20 -25 68 -29 142 -12 280 0 675
24 765 8 30 16 87 19 125 7 97 29 165 64 203 17 18 30 36 30 39 0 3 8 12 18
19 14 10 18 10 26 -4 5 -9 19 -28 31 -42z m710 -1302 c-1 -18 2 -40 6 -50 5
-9 11 -54 13 -101 2 -47 7 -90 10 -96 12 -18 29 -191 27 -276 0 -60 -6 -90
-22 -121 -27 -53 -60 -70 -84 -44 -9 10 -14 23 -11 29 3 5 0 11 -6 13 -15 5
-18 320 -4 353 10 24 12 30 20 115 14 135 28 245 34 255 8 14 20 -39 17 -77z"/>
<path d="M1394 3477 c-38 -18 -55 -34 -69 -63 -10 -21 -26 -47 -36 -58 -11
-11 -19 -24 -19 -28 0 -5 -13 -36 -29 -71 -16 -34 -36 -80 -44 -101 -11 -31
-25 -45 -65 -67 -59 -31 -120 -76 -143 -104 -9 -11 -29 -33 -43 -48 -21 -22
-67 -104 -71 -127 0 -3 -19 -43 -42 -90 -23 -47 -46 -105 -52 -130 -7 -25 -16
-54 -21 -65 -26 -58 -42 -104 -46 -140 -3 -22 -10 -58 -15 -80 -5 -22 -9 -54
-9 -72 0 -17 -20 -69 -45 -117 -25 -48 -45 -93 -45 -101 0 -8 -11 -40 -25 -72
-14 -32 -30 -73 -34 -93 -5 -19 -16 -62 -25 -95 -15 -53 -26 -124 -42 -260 -2
-21 -6 -46 -9 -55 -2 -8 -7 -55 -10 -105 -4 -49 -10 -116 -14 -147 -12 -94 9
-350 33 -397 18 -33 54 -51 105 -51 44 0 62 16 87 80 14 35 18 73 18 185 0
163 -8 316 -16 330 -3 6 -6 73 -7 150 -2 77 -3 176 -4 220 -1 44 5 107 12 140
13 55 15 58 22 32 4 -15 10 -42 13 -60 10 -57 34 -133 56 -177 12 -23 19 -48
16 -56 -3 -8 -2 -14 3 -14 5 0 14 -19 20 -42 23 -83 73 -154 145 -209 37 -28
77 -66 88 -85 11 -19 23 -34 27 -34 4 0 15 -41 25 -92 11 -51 23 -97 27 -102
5 -6 20 -25 34 -42 14 -18 25 -34 25 -37 0 -15 49 -55 75 -61 17 -4 37 -14 46
-22 10 -9 39 -15 72 -16 48 -1 62 3 105 33 72 49 133 150 158 259 8 36 18 72
21 80 3 8 7 17 8 20 0 3 7 30 14 60 8 30 17 60 21 65 4 6 11 37 15 70 3 32 10
66 15 75 10 20 28 195 35 350 3 69 7 157 10 195 3 39 7 108 9 155 3 47 8 132
12 190 8 105 8 148 0 355 -4 105 -10 163 -21 212 -3 12 -7 41 -10 65 -13 104
-28 182 -44 236 -5 17 -8 32 -6 32 2 0 -5 22 -15 49 -22 61 -78 131 -105 131
-11 0 -30 7 -42 15 -39 27 -93 28 -149 2z m179 -160 c9 -17 19 -44 21 -59 3
-15 7 -32 11 -38 12 -20 56 -295 61 -385 2 -38 7 -104 11 -145 10 -99 9 -200
-6 -397 -7 -89 -14 -213 -16 -275 -5 -168 -23 -405 -34 -468 -24 -126 -32
-158 -52 -225 -22 -74 -59 -167 -71 -175 -3 -3 -10 -18 -13 -33 -4 -15 -10
-27 -14 -27 -4 0 -15 -16 -24 -35 -9 -20 -24 -38 -32 -41 -8 -4 -15 -12 -15
-19 0 -16 -22 -25 -62 -25 -65 0 -123 103 -148 260 -6 41 -16 89 -20 105 -13
43 -28 131 -35 195 -3 30 -8 73 -12 95 -5 39 -5 345 1 510 5 114 17 236 26
261 5 12 7 34 5 50 -1 15 3 53 10 83 18 81 47 231 52 269 2 18 12 55 23 82 11
28 17 50 15 50 -3 0 4 18 15 40 11 21 27 61 35 87 9 26 21 58 27 70 6 12 8 29
5 37 -3 8 -1 18 4 22 6 4 19 23 28 43 19 44 65 101 80 101 6 0 11 4 11 9 0 9
64 19 85 13 6 -1 18 -17 28 -35z m-464 -449 c-4 -24 -10 -54 -14 -68 -4 -14
-8 -38 -9 -55 -2 -16 -6 -43 -10 -60 -23 -106 -46 -257 -41 -266 3 -4 1 -27
-4 -51 -31 -137 -34 -724 -6 -910 9 -56 1 -60 -41 -20 -44 41 -69 82 -84 137
-7 28 -19 61 -25 75 -36 72 -84 280 -84 365 -1 153 30 390 59 450 5 11 28 67
50 124 49 124 77 181 90 181 8 0 36 35 93 115 26 37 35 31 26 -17z m-524
-1339 c4 -85 11 -212 16 -284 11 -137 12 -358 3 -388 -3 -9 -13 -21 -23 -27
-28 -14 -49 9 -56 60 -21 175 -14 353 26 644 10 77 19 144 19 150 0 5 2 7 5 4
3 -2 7 -74 10 -159z"/>
<path d="M1387 3043 c-26 -39 -38 -68 -77 -203 -12 -41 -26 -86 -31 -100 -9
-26 -13 -49 -24 -135 -4 -27 -11 -66 -15 -85 -20 -85 -35 -336 -43 -760 -3
-169 20 -375 48 -430 7 -14 31 -42 53 -62 43 -39 57 -41 111 -14 16 9 38 16
47 16 26 0 64 39 57 59 -18 50 -79 67 -127 36 -23 -15 -24 -15 -45 39 -27 66
-32 118 -32 356 0 351 15 696 32 740 5 14 13 61 18 105 9 73 39 183 62 227 5
10 9 26 9 36 0 11 5 32 10 48 9 27 14 29 45 26 31 -4 35 -1 40 24 4 16 8 35
11 42 5 16 -6 42 -18 42 -5 0 -16 7 -24 15 -9 8 -30 15 -48 15 -27 0 -38 -7
-59 -37z"/>
</g>
</svg>
