<?xml version="1.0" standalone="no"?>
<!DOCTYPE svg PUBLIC "-//W3C//DTD SVG 20010904//EN"
 "http://www.w3.org/TR/2001/REC-SVG-20010904/DTD/svg10.dtd">
<svg version="1.0" xmlns="http://www.w3.org/2000/svg"
 width="435.000000pt" height="385.000000pt" viewBox="0 0 435.000000 385.000000"
 preserveAspectRatio="xMidYMid meet">
<metadata>
Created by potrace 1.16, written by Peter Selinger 2001-2019
</metadata>
<g transform="translate(0.000000,385.000000) scale(0.100000,-0.100000)"
fill="#000000" stroke="none">
<path d="M1748 3692 c-1 -5 -29 -23 -61 -41 -61 -35 -97 -74 -122 -134 -18
-44 -45 -77 -61 -77 -18 0 -22 -45 -7 -81 22 -52 41 -68 92 -74 69 -10 111
-25 111 -41 0 -8 8 -14 17 -14 18 0 163 -144 163 -162 0 -5 9 -17 21 -27 21
-17 21 -17 -22 -35 -24 -10 -55 -24 -69 -31 -14 -7 -37 -15 -52 -19 -16 -3
-28 -11 -28 -18 0 -6 -10 -25 -23 -42 -23 -32 -51 -86 -61 -120 -5 -13 -10
-15 -19 -8 -12 11 -230 7 -248 -4 -12 -7 -190 -27 -251 -28 -27 -1 -48 -3 -48
-6 0 -3 -15 -5 -32 -6 -103 -2 -258 -18 -302 -31 -28 -8 -76 -19 -106 -24 -30
-6 -57 -14 -60 -18 -3 -4 -30 -19 -60 -33 -62 -28 -139 -102 -157 -151 -6 -17
-12 -57 -12 -88 -1 -31 -4 -59 -8 -63 -4 -4 -8 -26 -9 -49 -1 -23 -7 -43 -14
-45 -21 -7 -32 -53 -17 -71 8 -9 17 -27 20 -41 3 -14 12 -43 20 -65 14 -37 19
-100 21 -272 0 -35 5 -63 9 -63 5 0 6 -38 2 -85 -4 -47 -3 -91 2 -98 10 -15 9
-400 -2 -475 -9 -65 4 -118 51 -205 18 -33 121 -111 208 -158 46 -24 72 -32
104 -30 38 2 43 -1 39 -16 -2 -10 5 -33 15 -50 11 -18 18 -43 17 -55 -2 -13 0
-28 3 -33 4 -6 9 -29 11 -51 5 -39 25 -84 38 -84 3 0 16 -9 29 -20 13 -11 31
-20 41 -20 10 0 21 -4 24 -10 3 -5 14 -10 23 -10 21 -1 62 -34 62 -51 0 -7 3
-10 6 -6 3 3 18 1 32 -4 14 -5 38 -11 54 -13 16 -2 40 -13 52 -26 18 -16 32
-20 55 -17 17 3 31 2 31 -3 0 -17 78 -21 136 -6 60 15 163 31 264 41 76 7 122
16 143 27 20 10 76 20 122 22 17 1 32 4 35 8 3 3 32 8 65 10 75 6 211 36 247
54 14 8 33 14 42 14 8 0 19 7 24 15 4 9 18 17 30 18 12 1 25 9 28 19 3 10 12
18 20 18 7 0 24 8 35 17 94 76 116 105 110 146 -2 18 42 41 63 34 6 -3 22 2
36 9 14 8 38 18 54 24 27 10 28 12 21 56 -3 25 -12 63 -20 84 -15 42 -15 196
0 220 12 19 9 443 -3 467 -7 15 -9 204 -2 223 1 3 1 30 0 61 -1 51 1 58 30 83
38 31 50 33 57 6 3 -11 8 -20 12 -20 8 0 30 -58 37 -98 3 -15 9 -44 15 -64 8
-32 11 -97 9 -233 0 -22 -5 -86 -10 -142 -5 -57 -8 -108 -5 -115 5 -15 11 -60
20 -138 7 -64 49 -163 85 -202 43 -47 118 -68 235 -65 56 1 109 7 116 13 8 6
33 16 57 24 23 7 42 16 42 20 0 4 17 16 37 25 34 16 201 125 229 150 45 39
154 146 154 151 0 4 23 29 50 57 28 28 50 54 50 59 0 4 9 8 20 8 25 0 114 86
125 120 4 14 22 46 40 72 28 40 33 58 39 130 6 76 4 90 -23 167 -34 95 -56
123 -126 158 -27 14 -52 29 -55 33 -11 15 -121 62 -154 65 -20 2 -39 6 -44 9
-5 3 -44 8 -88 11 -45 4 -97 15 -122 26 -23 10 -50 20 -60 22 -9 2 -37 12 -62
23 -25 11 -67 29 -95 39 -27 10 -60 27 -73 36 -13 10 -40 23 -60 30 -20 6 -41
17 -47 23 -5 7 -25 18 -42 25 -18 7 -33 17 -33 21 0 5 -16 14 -36 20 -39 13
-97 63 -108 94 -4 12 -13 17 -25 13 -16 -4 -22 4 -36 45 -44 134 -128 280
-223 383 -10 11 -24 32 -32 48 -7 15 -18 27 -23 27 -6 0 -28 18 -51 40 -89 87
-139 131 -182 161 -24 16 -44 33 -44 38 0 4 -32 39 -72 77 -178 173 -242 242
-269 297 -11 21 -29 42 -39 44 -15 4 -19 14 -18 39 1 19 -2 37 -6 41 -24 25
-159 45 -168 25z m90 -94 c18 -18 14 -30 -7 -23 -14 4 -25 -1 -36 -19 -9 -14
-26 -26 -38 -28 -26 -4 -65 -59 -80 -115 -10 -39 -14 -43 -43 -43 -63 0 -65 6
-28 72 19 33 34 63 34 66 0 11 44 52 56 52 7 0 14 4 16 9 2 5 10 11 18 13 8 2
21 9 28 16 17 15 64 16 80 0z m87 -118 c4 -12 26 -40 49 -63 23 -23 58 -62 77
-87 18 -25 38 -47 44 -49 5 -2 60 -53 122 -115 62 -61 131 -127 154 -146 78
-65 150 -144 165 -178 7 -18 17 -31 22 -28 10 6 92 -79 92 -95 0 -5 13 -22 29
-37 26 -25 87 -120 85 -132 -2 -9 9 -35 21 -50 30 -37 73 -302 47 -286 -5 3
-7 -5 -5 -19 7 -32 -22 -116 -64 -188 -54 -91 -218 -247 -244 -231 -6 3 -15 1
-19 -5 -7 -13 -164 -14 -187 -2 -2 0 -4 0 -5 -1 -2 -1 -14 5 -28 12 -14 8 -27
15 -30 15 -66 12 -75 17 -149 82 -20 18 -42 33 -48 33 -28 0 -149 139 -213
245 -29 47 -56 85 -60 85 -11 0 -79 120 -86 149 -14 69 -13 184 2 243 9 34 17
72 19 83 1 12 18 50 37 85 34 62 67 90 113 98 11 2 22 8 23 13 2 5 10 9 17 9
7 0 26 7 41 15 16 8 36 15 45 15 20 0 59 36 59 55 0 19 -57 83 -81 90 -10 4
-19 12 -19 19 0 13 -163 179 -183 185 -22 8 -36 35 -30 61 9 39 34 90 45 90 5
0 22 9 37 19 15 11 40 21 56 24 17 2 33 5 37 6 4 0 10 -8 13 -19z m-285 -779
c0 -5 -7 -16 -15 -24 -8 -8 -14 -28 -14 -43 0 -16 0 -72 -1 -125 0 -98 27
-221 55 -244 6 -5 37 -46 68 -91 55 -79 56 -81 34 -91 -12 -5 -62 -10 -112
-12 -49 -1 -129 -6 -178 -11 -48 -5 -97 -7 -110 -4 -29 5 -225 22 -257 21
-107 -3 -288 35 -414 85 -147 59 -250 140 -261 205 -12 75 36 141 140 194 104
54 226 78 470 94 44 3 94 8 111 10 18 3 60 8 95 11 35 3 80 8 99 11 19 2 86 6
149 8 62 2 116 7 119 10 9 8 22 6 22 -4z m1330 -428 c8 -4 17 -9 20 -12 3 -3
25 -16 50 -29 114 -57 196 -104 206 -117 6 -8 15 -15 20 -15 5 0 36 -11 69
-24 33 -14 87 -34 120 -47 33 -12 69 -25 80 -30 20 -8 35 -11 165 -30 41 -6
82 -13 90 -16 8 -3 26 -7 39 -9 13 -2 27 -7 30 -12 3 -5 13 -12 21 -15 9 -3 4
-6 -12 -6 -16 -1 -28 -5 -28 -10 0 -9 -170 -71 -204 -74 -10 -1 -32 -14 -48
-29 -17 -16 -37 -28 -45 -28 -11 0 -108 -59 -204 -124 -93 -63 -267 -219 -318
-286 -19 -25 -40 -49 -46 -55 -6 -5 -17 -19 -23 -30 -10 -16 -11 -3 -6 65 14
192 3 361 -26 435 -5 11 -14 43 -21 70 -14 57 -48 125 -62 125 -6 0 -3 8 6 18
31 34 67 162 70 244 2 75 2 77 22 62 11 -8 27 -17 35 -21z m-2533 -48 c9 -26
84 -71 199 -120 60 -26 118 -49 129 -51 93 -20 298 -44 375 -44 52 0 113 -5
135 -10 53 -12 145 -14 225 -5 36 4 81 6 100 5 76 -4 96 -3 123 3 15 4 36 3
47 -3 16 -8 24 -7 36 5 8 8 18 15 22 15 4 0 27 -24 52 -52 25 -29 63 -70 85
-92 22 -21 33 -36 25 -34 -8 3 -22 0 -30 -7 -28 -22 -134 -38 -284 -41 -81 -1
-159 2 -173 7 -14 5 -29 6 -35 3 -19 -12 -187 -5 -278 11 -30 5 -197 25 -292
34 -53 5 -123 17 -155 27 -75 21 -203 81 -203 94 0 5 -3 9 -7 8 -12 -3 -56 23
-70 41 -17 22 -43 113 -42 142 1 13 -2 36 -6 52 -8 29 11 40 22 12z m57 -322
c27 -18 59 -36 72 -39 28 -7 30 -23 9 -63 -15 -30 -34 -104 -40 -156 -2 -16
-11 -52 -19 -79 -8 -27 -13 -53 -10 -57 12 -19 -34 -209 -51 -209 -4 0 -5 1
-5 157 0 56 -4 104 -8 107 -5 3 -7 44 -4 91 2 47 1 93 -3 102 -11 32 -13 193
-1 186 6 -4 33 -22 60 -40z m3425 -85 c45 -27 90 -73 102 -106 5 -14 7 -59 4
-101 -9 -111 -60 -197 -231 -387 -60 -66 -254 -229 -274 -229 -3 0 -19 -10
-36 -22 -33 -24 -84 -47 -96 -45 -5 1 -8 -2 -8 -7 0 -11 -78 -41 -110 -42 -14
-1 -62 -2 -107 -2 -100 0 -133 20 -170 100 -26 57 -27 127 -1 168 3 6 11 29
18 53 10 38 91 161 113 170 4 2 25 21 48 43 22 21 45 39 50 39 5 0 9 7 9 15 0
8 3 15 8 15 7 0 149 103 182 132 27 23 99 68 110 68 6 0 21 9 32 20 12 11 39
25 60 31 21 5 38 15 38 20 0 6 7 9 15 6 8 -4 17 -2 20 3 3 4 36 18 73 31 37
12 76 28 87 35 25 18 21 18 64 -8z m-3184 -8 c21 -8 85 -17 232 -33 23 -3 45
-17 26 -17 -6 0 -19 -16 -29 -36 -11 -20 -27 -50 -36 -68 -9 -17 -17 -39 -18
-49 0 -10 -10 -37 -22 -60 -27 -54 -56 -164 -64 -247 -7 -72 -32 -178 -45
-186 -10 -6 -17 22 -22 91 -3 28 -9 68 -15 90 -6 22 -13 81 -16 130 -3 50 -13
128 -21 175 -9 47 -19 115 -22 153 -6 73 -2 78 52 57z m1378 -47 c23 -15 50
-28 60 -29 9 -1 23 -2 31 -3 8 0 21 -7 28 -14 13 -13 36 -21 100 -34 26 -5 27
-8 23 -53 -2 -26 -10 -71 -19 -101 -15 -56 -31 -157 -27 -173 1 -5 -1 -22 -4
-37 l-7 -29 -25 48 c-14 26 -28 49 -32 52 -14 11 -161 299 -161 317 0 3 -13
19 -30 34 -26 26 -27 29 -10 29 11 0 20 5 20 10 0 15 6 13 53 -17z m-948 -9
c28 -3 73 -9 100 -13 28 -4 71 -7 97 -6 27 0 48 -3 48 -7 0 -5 -4 -8 -9 -8 -5
0 -14 -13 -20 -30 -5 -16 -8 -30 -6 -30 3 0 -8 -21 -23 -47 -45 -79 -123 -291
-140 -383 -6 -30 -15 -68 -22 -85 l-11 -29 -25 69 c-27 76 -52 204 -50 247 1
15 -1 29 -5 30 -4 2 -11 30 -14 63 -4 33 -9 63 -11 66 -2 4 -8 39 -14 80 -6
40 -16 79 -22 87 -11 12 -6 14 32 8 25 -3 68 -9 95 -12z m810 -3 c5 -9 -36
-126 -56 -161 -27 -46 -59 -111 -59 -119 0 -5 -5 -22 -12 -38 -6 -15 -12 -35
-14 -43 -8 -45 -29 -102 -57 -158 l-31 -62 -22 60 c-12 33 -26 66 -31 72 -22
29 -129 319 -150 406 -6 24 -2 25 67 23 154 -5 229 0 305 17 55 13 53 13 60 3z
m659 -36 c12 -12 15 -40 15 -128 0 -62 4 -126 10 -144 5 -17 7 -34 3 -37 -6
-6 -4 -80 3 -133 2 -18 1 -33 -3 -33 -12 1 -42 27 -42 37 0 6 -7 16 -15 23 -8
7 -15 20 -15 29 -1 9 -9 34 -20 56 -11 22 -19 46 -20 54 0 8 -11 33 -25 56
-13 24 -27 62 -31 86 -4 24 -13 57 -21 73 -14 28 -14 29 6 23 12 -3 23 -2 26
3 2 4 25 13 50 20 25 7 45 17 45 21 0 14 17 11 34 -6z m-2014 -22 c0 -16 9
-64 19 -108 10 -44 21 -126 25 -182 3 -56 13 -128 21 -160 8 -31 15 -80 15
-107 0 -27 5 -64 12 -83 16 -43 2 -55 -26 -20 -12 15 -27 27 -34 27 -7 0 -12
5 -12 10 0 6 -4 10 -8 10 -4 0 -37 27 -72 59 l-64 59 28 89 c30 96 32 107 40
203 7 72 8 81 30 160 8 30 12 58 10 62 -3 5 0 8 5 8 6 0 11 -12 11 -27z m877
-85 c12 -24 37 -94 57 -155 19 -62 48 -136 62 -165 41 -80 64 -156 64 -209 0
-27 5 -49 12 -51 22 -8 -98 -37 -197 -49 -55 -6 -131 -15 -170 -19 -112 -14
-118 -14 -110 13 4 12 8 36 9 52 1 17 9 47 19 69 9 21 17 45 17 52 0 34 54
234 76 282 13 29 24 56 24 60 0 26 49 113 73 127 15 9 27 20 27 26 0 22 18 6
37 -33z m-467 -168 c7 -36 14 -92 17 -125 7 -95 8 -100 13 -105 13 -13 30 -52
30 -70 0 -26 29 -100 48 -122 8 -10 11 -18 7 -18 -4 0 0 -10 11 -21 19 -22 19
-22 -3 -10 -19 10 -30 7 -71 -19 -26 -16 -54 -41 -62 -55 -12 -22 -15 -23 -30
-10 -9 8 -34 17 -55 21 -22 3 -52 12 -67 20 -15 8 -34 14 -43 14 -11 0 -15 11
-15 45 0 25 4 45 8 45 4 0 8 8 9 18 1 9 8 37 16 62 24 69 37 136 37 185 0 61
34 183 73 265 l32 67 17 -61 c9 -33 22 -90 28 -126z m1011 167 c9 -12 19 -33
24 -47 13 -45 59 -140 67 -140 4 0 8 -4 8 -10 0 -5 20 -42 45 -82 24 -40 46
-85 49 -100 2 -14 9 -35 15 -46 8 -15 7 -23 -3 -31 -8 -7 -18 -11 -22 -9 -5 1
-31 -5 -59 -14 -27 -9 -77 -20 -110 -24 -33 -4 -62 -8 -65 -9 -3 0 -30 -5 -60
-9 -30 -4 -62 -10 -70 -12 -8 -2 -23 -5 -32 -7 -10 -2 -21 -6 -24 -10 -4 -4
-13 -7 -21 -7 -9 0 -5 17 15 58 15 31 30 59 35 60 4 2 4 8 1 13 -3 6 -1 15 4
22 12 16 30 67 53 157 23 90 46 145 75 185 13 17 27 42 33 58 13 33 21 33 42
4z m384 -58 c3 -18 15 -56 28 -83 25 -53 60 -143 73 -186 3 -14 23 -45 44 -70
20 -25 40 -58 44 -75 4 -16 16 -35 27 -43 31 -21 22 -32 -25 -30 -25 1 -43 5
-40 9 9 15 -15 56 -35 62 -12 3 -21 2 -21 -2 0 -3 -9 -12 -19 -18 -16 -10 -33
-8 -88 9 -88 27 -93 31 -83 71 10 42 21 67 29 67 3 0 6 10 7 23 2 88 15 177
40 286 6 30 14 22 19 -20z m-1877 -511 c20 -18 51 -49 70 -68 19 -19 53 -43
76 -53 22 -10 43 -21 46 -25 6 -9 140 -62 156 -62 5 0 15 -5 21 -11 9 -9 3
-23 -24 -55 -19 -24 -39 -44 -44 -44 -4 0 -18 10 -30 23 -15 15 -23 18 -26 10
-8 -23 -69 -14 -134 19 -35 18 -66 35 -69 38 -3 3 -23 17 -46 33 -40 27 -84
93 -84 126 0 10 -3 21 -7 25 -9 9 -15 47 -9 63 10 25 67 15 104 -19z m1894
-14 c14 -8 34 -14 43 -14 12 0 16 -6 12 -20 -3 -11 -1 -20 4 -20 5 0 9 -26 10
-57 0 -32 4 -81 8 -110 4 -29 3 -59 -1 -68 -6 -10 -5 -15 4 -15 10 0 10 -2 -1
-9 -9 -6 -19 -5 -26 2 -137 130 -146 140 -133 148 7 5 9 9 5 9 -5 0 -2 7 6 15
13 13 12 23 -8 89 -13 41 -21 77 -18 80 6 6 60 -11 95 -30z m-377 -20 c-29
-45 -65 -117 -65 -130 0 -8 -4 -14 -10 -14 -13 0 -14 -2 21 71 17 35 35 74 40
87 5 13 14 20 20 17 7 -5 5 -15 -6 -31z m127 24 c4 -11 -28 -84 -42 -98 -13
-13 -30 -51 -30 -67 0 -27 -12 -39 -42 -47 -23 -5 -28 -3 -28 11 1 28 96 183
112 183 6 0 8 7 4 15 -3 9 0 15 8 15 8 0 16 -6 18 -12z m-317 -36 c-5 -4 -11
-16 -13 -27 -7 -47 -85 -193 -113 -210 -26 -17 -19 10 17 61 62 89 72 107 73
137 1 23 -3 27 -26 28 -25 0 -26 1 -8 9 25 11 84 13 70 2z m410 -24 c5 -18 9
-52 10 -76 1 -47 -7 -52 -77 -55 -28 -2 -32 1 -30 18 2 11 8 22 13 23 5 2 9
10 9 17 0 7 11 27 25 43 14 17 25 37 25 46 0 28 17 17 25 -16z m-339 -21 c-14
-42 -33 -65 -21 -27 14 47 26 73 30 69 2 -3 -2 -21 -9 -42z m670 9 c5 -84 18
-157 35 -195 11 -24 18 -45 16 -47 -2 -3 -18 -6 -35 -8 l-30 -4 -1 66 c-1 37
-4 99 -7 138 -4 55 -3 71 8 71 7 0 14 -10 14 -21z m-856 -22 c-5 -20 -17 -46
-27 -57 -29 -34 -57 -79 -76 -119 -16 -33 -22 -38 -52 -38 -39 0 -41 2 -22 22
56 58 120 153 122 180 1 20 9 35 21 39 37 15 42 11 34 -27z m-120 -14 c0 -5
-4 -10 -10 -10 -5 0 -9 -4 -7 -8 1 -5 -18 -35 -41 -67 -24 -32 -51 -73 -60
-92 -9 -18 -19 -33 -23 -33 -4 0 -14 -3 -23 -6 -11 -4 -16 -1 -16 10 0 9 5 16
10 16 6 0 10 5 10 10 0 6 17 34 39 63 21 29 42 62 46 74 3 13 13 30 21 38 17
17 54 20 54 5z m-140 -17 c-1 -9 -21 -47 -73 -137 -32 -54 -43 -66 -64 -66
l-26 0 21 18 c21 19 82 136 82 159 0 13 28 32 48 33 6 0 12 -3 12 -7z m-135
-35 c-13 -43 -38 -90 -50 -95 -9 -3 -10 -15 -4 -41 4 -20 7 -37 6 -38 -1 -1
-25 -5 -53 -8 -43 -4 -51 -2 -51 12 0 9 3 19 6 22 4 3 24 29 45 58 21 28 41
52 44 52 4 0 15 14 24 30 20 36 43 41 33 8z m548 0 c-6 -7 -14 -32 -18 -55 -6
-37 -10 -43 -31 -43 -13 0 -24 2 -24 5 0 12 72 116 77 111 3 -3 1 -11 -4 -18z
m-653 5 c-1 -14 -58 -78 -64 -72 -4 3 -3 20 0 37 6 29 11 32 57 41 4 0 7 -2 7
-6z m-146 -75 c3 -29 6 -72 6 -94 0 -24 6 -47 14 -54 18 -14 13 -30 -37 -103
-36 -53 -41 -57 -56 -42 -17 14 -38 99 -48 191 -4 37 -1 44 49 97 29 31 56 57
59 57 3 0 9 -24 13 -52z m878 28 c4 -18 0 -26 -14 -29 -20 -6 -21 -3 -12 31 8
29 20 28 26 -2z m335 -76 c2 0 28 -25 58 -54 l55 -55 -42 -80 c-22 -45 -45
-81 -49 -81 -5 0 -9 -6 -9 -13 0 -8 -18 -21 -39 -29 l-39 -16 9 32 c5 17 9 48
9 68 0 38 0 39 50 42 18 1 35 48 26 71 -5 13 -15 16 -46 13 -42 -4 -50 6 -50
64 0 15 -5 30 -11 34 -21 12 12 22 45 13 17 -5 32 -9 33 -9z m-135 -12 c-6 -6
-33 -20 -58 -29 -46 -18 -47 -18 -64 4 -15 18 -21 20 -43 10 -23 -11 -24 -16
-22 -67 1 -31 7 -62 14 -70 14 -16 -4 -23 -59 -22 l-35 1 -3 60 c-2 33 -8 63
-15 67 -8 5 -7 8 3 11 8 2 33 10 55 18 22 7 75 14 119 16 43 1 81 5 84 8 3 3
12 5 21 5 12 0 12 -3 3 -12z m-351 -61 c-6 -8 -8 -17 -5 -20 8 -8 12 -127 5
-128 -23 -4 -73 -4 -79 1 -11 7 -33 79 -35 115 -2 25 2 30 28 36 17 4 45 7 64
8 27 1 31 -2 22 -12z m-911 -133 c5 -34 12 -68 16 -77 4 -11 0 -19 -11 -23
-22 -9 -33 4 -39 46 -9 63 -19 105 -32 132 -13 25 -12 27 14 36 31 10 33 4 52
-114z m728 49 c6 -32 14 -68 18 -80 6 -22 3 -23 -43 -23 l-49 0 -15 48 c-12
40 -18 47 -41 50 -22 3 -30 -2 -40 -23 -9 -19 -9 -28 0 -37 7 -7 12 -20 12
-30 0 -15 -9 -18 -53 -18 l-53 0 4 39 c2 23 -2 53 -11 69 l-14 29 71 8 c110
12 190 22 197 23 3 1 11 -24 17 -55z m542 27 c0 -5 -4 -10 -9 -10 -5 0 -18 -3
-28 -6 -16 -5 -16 -4 1 10 23 18 36 20 36 6z m-850 -10 c0 -5 -7 -10 -15 -10
-8 0 -15 -9 -15 -20 0 -11 -7 -20 -15 -20 -8 0 -15 5 -15 10 0 6 -13 4 -31 -5
-38 -20 -51 -53 -33 -79 11 -17 11 -22 0 -35 -12 -14 -12 -19 -1 -35 11 -15
22 -17 50 -13 32 5 35 3 40 -21 10 -45 29 -76 64 -99 38 -26 39 -25 -52 -27
-21 -1 -41 -6 -45 -13 -5 -8 -12 -2 -20 16 -7 16 -25 34 -40 41 -15 6 -48 37
-74 67 l-46 56 26 41 c15 23 29 43 32 46 4 3 16 21 28 41 21 34 87 69 108 57
5 -3 18 -2 29 3 11 4 21 8 23 8 1 1 2 -3 2 -9z m860 -108 c0 -26 7 -45 20 -57
11 -10 20 -21 20 -25 0 -10 -123 -38 -194 -45 -33 -3 -72 -8 -89 -10 -22 -4
-28 -2 -24 8 3 7 1 33 -3 58 -5 24 -7 46 -5 48 2 1 21 5 42 8 21 3 44 10 51
15 10 9 11 0 6 -44 l-6 -55 27 1 c23 1 31 8 41 36 7 19 13 45 13 56 1 22 25
39 41 29 5 -3 11 -1 15 5 3 5 15 10 26 10 15 0 19 -7 19 -38z m-890 -12 c0 -5
-5 -10 -11 -10 -5 0 -7 5 -4 10 3 6 8 10 11 10 2 0 4 -4 4 -10z m370 -100 c0
-41 10 -60 30 -60 12 0 21 10 25 30 6 25 9 28 25 20 30 -16 52 -12 81 16 l26
25 7 -25 c4 -16 11 -23 20 -20 8 3 17 1 20 -4 3 -5 -16 -15 -42 -22 -26 -7
-51 -17 -56 -21 -6 -5 -24 -9 -40 -9 -17 0 -47 -4 -66 -9 -19 -5 -59 -11 -87
-14 l-53 -4 0 63 c0 61 1 63 28 66 15 2 39 1 55 -1 22 -3 27 -8 27 -31z m-169
-89 c2 -8 -7 -17 -23 -22 -23 -6 -28 -4 -28 11 0 9 -10 25 -22 33 -24 17 -25
16 25 21 6 0 17 19 22 41 l10 40 6 -55 c4 -30 8 -61 10 -69z m-124 77 c-3 -7
-5 -2 -5 12 0 14 2 19 5 13 2 -7 2 -19 0 -25z"/>
<path d="M2057 2919 c-10 -6 -21 -8 -24 -6 -8 8 -104 -47 -139 -79 -40 -38
-72 -110 -75 -171 -1 -26 -5 -52 -9 -58 -18 -27 2 -118 39 -186 5 -8 24 -51
42 -95 29 -71 62 -124 111 -178 10 -11 18 -33 18 -48 0 -24 5 -30 30 -35 17
-3 41 -18 54 -34 28 -33 134 -109 152 -109 6 0 15 -7 18 -16 5 -13 15 -15 44
-10 20 3 57 8 82 12 25 3 50 7 55 9 6 1 14 3 19 3 5 0 12 4 15 9 3 5 24 23 45
40 39 32 61 74 76 148 4 22 12 54 18 70 19 61 -10 193 -57 260 -20 28 -38 52
-41 55 -7 5 -70 99 -70 103 0 2 -27 32 -60 67 -33 35 -62 72 -65 81 -3 9 -21
24 -40 34 -19 9 -35 22 -35 28 0 15 -74 78 -109 93 -46 19 -76 23 -94 13z m83
-98 c14 -7 38 -31 53 -53 l28 -40 -73 7 c-40 4 -89 8 -108 10 -48 2 -82 15
-77 28 7 21 52 47 97 56 50 10 46 10 80 -8z m-75 -148 c134 -6 165 -10 191
-27 14 -10 39 -19 54 -20 16 -1 41 -16 59 -33 34 -34 40 -53 16 -53 -20 0 -19
-39 2 -62 24 -26 18 -168 -7 -168 -6 0 -10 -8 -10 -17 0 -17 -52 -66 -65 -63
-4 1 -19 -9 -33 -22 -37 -33 -113 -68 -149 -68 -23 0 -37 9 -57 34 -14 19 -26
37 -26 40 0 3 -16 28 -36 56 -19 27 -33 54 -30 59 3 5 0 11 -7 14 -7 3 -19 25
-26 48 -7 24 -22 59 -34 78 -23 39 -32 145 -15 193 11 30 46 40 88 24 14 -5
52 -11 85 -13z m463 -301 c22 -46 42 -137 25 -117 -18 22 -32 12 -48 -33 -9
-26 -21 -54 -26 -62 -5 -8 -17 -32 -27 -52 -10 -20 -41 -57 -69 -82 -49 -44
-51 -45 -89 -34 -36 10 -83 36 -111 64 -18 17 -16 24 6 24 10 0 29 8 42 18 13
10 58 36 99 57 65 33 80 45 107 92 18 29 38 80 45 113 6 33 14 60 18 60 3 -1
15 -22 28 -48z"/>
<path d="M3853 1664 c-9 -15 -12 -31 -7 -41 13 -31 11 -36 -33 -122 -48 -92
-91 -158 -137 -211 -17 -20 -46 -54 -64 -77 -18 -23 -46 -46 -62 -52 -16 -5
-39 -21 -51 -35 -13 -14 -29 -26 -36 -26 -7 0 -13 -4 -13 -10 0 -5 -6 -10 -13
-10 -7 0 -47 -20 -90 -44 -69 -39 -83 -44 -132 -42 -30 2 -55 -1 -55 -6 0 -4
-7 -8 -15 -8 -10 0 -15 -10 -15 -30 0 -24 6 -33 28 -41 52 -20 190 22 249 77
14 13 29 22 33 21 15 -4 219 138 234 164 9 14 35 48 58 75 24 27 50 60 57 74
8 14 39 64 67 112 63 104 79 151 70 210 -6 37 -10 43 -32 44 -16 1 -30 -6 -41
-22z"/>
<path d="M3733 1665 c-7 -8 -13 -18 -13 -22 1 -8 -89 -188 -103 -207 -29 -41
-101 -112 -130 -130 -19 -11 -59 -38 -90 -58 -31 -21 -64 -38 -73 -38 -10 0
-14 -3 -11 -6 4 -4 -5 -20 -18 -36 -29 -34 -31 -50 -10 -68 19 -16 43 -7 86
32 19 18 53 46 75 62 21 17 41 33 44 37 3 3 19 13 36 22 28 14 95 82 152 153
13 16 34 53 47 82 14 29 33 65 44 81 27 38 36 78 21 96 -16 19 -41 19 -57 0z"/>
<path d="M3510 1469 c-24 -21 -47 -36 -50 -34 -4 2 -12 -11 -17 -30 -18 -57
17 -73 71 -31 82 63 98 97 58 123 -14 8 -26 3 -62 -28z"/>
</g>
</svg>
