<?xml version="1.0" standalone="no"?>
<!DOCTYPE svg PUBLIC "-//W3C//DTD SVG 20010904//EN"
 "http://www.w3.org/TR/2001/REC-SVG-20010904/DTD/svg10.dtd">
<svg version="1.0" xmlns="http://www.w3.org/2000/svg"
 width="549.000000pt" height="419.000000pt" viewBox="0 0 549.000000 419.000000"
 preserveAspectRatio="xMidYMid meet">
<metadata>
Created by potrace 1.16, written by Peter Selinger 2001-2019
</metadata>
<g transform="translate(0.000000,419.000000) scale(0.100000,-0.100000)"
fill="#000000" stroke="none">
<path d="M2650 4065 c-18 -19 -23 -35 -22 -63 2 -20 4 -92 6 -160 2 -67 6
-125 10 -129 10 -10 7 -103 -5 -124 -5 -11 -14 -17 -20 -14 -5 4 -9 3 -9 -2 0
-4 -13 -14 -29 -21 -31 -14 -91 -67 -91 -80 0 -5 -16 -27 -35 -49 -19 -23 -35
-45 -35 -51 0 -5 -18 -37 -40 -71 -22 -34 -40 -68 -40 -76 0 -7 -3 -15 -7 -17
-9 -4 -31 -40 -70 -118 -15 -30 -32 -58 -37 -61 -5 -4 -6 -11 -2 -17 3 -6 0
-14 -7 -19 -7 -4 -26 -39 -41 -78 -15 -38 -38 -87 -52 -107 -13 -21 -24 -44
-24 -52 0 -8 -4 -17 -9 -21 -5 -3 -12 -18 -16 -34 -3 -16 -12 -32 -20 -35 -7
-2 -43 17 -80 45 -36 27 -69 49 -72 49 -4 0 -27 17 -52 38 -25 21 -57 43 -71
50 -35 18 -57 31 -131 80 -74 48 -124 55 -153 23 -10 -11 -15 -24 -12 -29 3
-5 -3 -21 -14 -35 -11 -14 -20 -34 -20 -44 0 -19 10 -25 175 -118 28 -15 59
-36 71 -46 11 -11 27 -19 36 -19 9 0 21 -7 28 -15 7 -8 19 -15 27 -15 7 0 26
-11 40 -25 15 -13 53 -37 85 -52 40 -19 58 -33 58 -46 0 -20 -42 -111 -64
-137 -18 -23 -33 -59 -51 -125 -10 -33 -20 -62 -25 -65 -10 -7 -70 -123 -70
-136 0 -6 -7 -17 -15 -24 -8 -7 -15 -21 -15 -30 0 -10 -3 -20 -7 -22 -11 -4
-43 -67 -43 -84 0 -8 -5 -14 -11 -14 -5 0 -7 -5 -4 -10 4 -6 0 -21 -8 -33 -15
-24 -41 -93 -43 -117 -1 -8 -15 -44 -31 -80 -17 -36 -43 -99 -58 -140 -15 -41
-37 -100 -49 -130 -11 -30 -21 -57 -21 -60 0 -8 -35 -83 -46 -100 -5 -8 -14
-26 -21 -40 -41 -90 -48 -108 -48 -126 0 -11 -4 -24 -8 -30 -7 -7 -16 -31 -37
-104 -1 -3 -7 -18 -13 -33 -7 -16 -12 -42 -12 -58 0 -16 -4 -29 -8 -29 -4 0
-8 -10 -9 -22 0 -13 -9 -61 -20 -108 -23 -103 -15 -202 22 -286 13 -30 25 -58
25 -62 2 -11 52 -74 77 -98 13 -12 23 -26 23 -32 0 -6 16 -23 35 -38 32 -24
44 -26 132 -28 54 -1 118 2 143 7 25 4 68 10 95 13 28 2 68 9 90 14 22 5 76
16 121 25 44 8 95 22 112 30 17 9 59 21 94 27 35 6 75 17 90 24 15 8 40 15 56
17 15 2 32 6 37 9 6 3 41 11 79 18 38 7 81 19 95 26 14 8 31 14 38 14 6 0 18
6 25 13 21 19 86 47 113 47 13 0 27 5 30 11 4 6 12 8 19 6 7 -3 23 4 37 14 13
10 29 19 34 19 6 0 28 9 49 21 21 11 41 18 44 15 3 -3 11 -1 19 6 7 6 16 8 19
5 3 -3 14 3 23 12 10 10 51 28 92 41 41 12 80 27 87 33 7 6 23 12 35 13 35 4
67 19 141 68 16 11 37 21 45 22 40 5 260 88 338 128 160 80 197 101 210 116 7
8 13 12 13 8 0 -7 87 36 136 68 12 9 29 12 36 8 7 -4 10 -4 6 0 -3 4 9 28 28
53 38 50 42 70 17 89 -25 19 -73 18 -73 -1 0 -8 -5 -15 -12 -15 -6 0 -8 -3 -5
-6 9 -9 -12 -46 -22 -39 -5 2 -14 -2 -21 -10 -7 -8 -16 -12 -21 -9 -5 3 -9 1
-9 -4 0 -6 -21 -20 -47 -32 -27 -12 -50 -25 -53 -29 -8 -11 -119 -76 -195
-114 -62 -31 -210 -86 -242 -91 -7 -1 -16 -5 -19 -9 -4 -4 -15 -7 -23 -7 -14
0 -39 -12 -146 -67 -11 -6 -31 -15 -45 -21 -14 -5 -47 -20 -75 -32 -27 -13
-77 -31 -110 -42 -33 -11 -64 -23 -70 -28 -5 -4 -26 -11 -45 -15 -19 -4 -42
-12 -50 -19 -31 -23 -77 -45 -84 -39 -3 3 -6 1 -6 -5 0 -10 -97 -44 -127 -45
-7 0 -13 -4 -13 -7 0 -4 -28 -18 -62 -30 -35 -13 -67 -26 -73 -30 -5 -4 -60
-19 -120 -33 -61 -14 -132 -35 -158 -46 -26 -11 -65 -22 -88 -25 -23 -3 -71
-16 -108 -30 -36 -13 -100 -29 -141 -36 -41 -7 -97 -16 -125 -21 -92 -15 -250
-28 -300 -25 -43 3 -52 8 -64 32 -8 16 -21 34 -28 39 -8 6 -19 20 -26 32 -7
12 -26 47 -44 78 -17 31 -36 76 -41 101 -15 68 -4 210 18 239 4 6 11 38 15 73
4 34 11 64 16 67 8 5 45 121 54 167 3 11 8 25 13 32 4 6 18 38 31 71 13 33 30
67 37 76 8 8 14 23 14 32 0 9 5 17 10 17 6 0 9 3 8 8 -1 4 4 20 10 35 7 16 12
34 12 42 0 8 5 17 10 20 6 4 8 10 5 15 -3 5 -1 11 5 15 5 3 10 15 10 26 0 11
10 39 21 62 12 23 21 43 21 44 -1 2 10 27 23 57 14 31 27 67 31 81 3 14 10 28
15 31 5 3 9 15 9 27 0 25 30 107 39 107 3 0 7 10 8 23 1 22 14 57 32 87 5 8
14 27 21 42 7 15 21 36 31 47 10 10 16 21 13 24 -4 4 45 104 65 132 4 6 16 39
26 75 18 62 79 181 97 188 4 2 5 8 2 14 -4 6 -1 13 5 17 6 4 13 21 15 38 1 17
21 58 42 92 56 89 104 185 148 294 9 21 20 36 26 32 5 -3 8 0 5 7 -3 7 6 35
20 62 14 27 25 53 25 58 0 5 17 35 38 66 21 31 51 87 67 125 15 37 31 67 34
67 3 0 12 12 19 28 7 15 35 52 62 82 28 30 50 58 50 63 0 4 9 7 20 7 11 0 20
5 20 11 0 5 4 8 9 4 5 -3 12 -1 16 4 3 6 28 9 56 7 44 -2 56 -8 95 -45 24 -23
44 -49 44 -57 0 -8 4 -12 10 -9 16 10 59 -27 82 -72 12 -24 25 -43 30 -43 4 0
8 -6 8 -13 0 -7 16 -31 36 -53 19 -21 47 -59 61 -84 15 -25 36 -56 49 -70 12
-14 32 -45 44 -70 38 -81 54 -107 113 -183 31 -42 57 -79 57 -82 0 -3 11 -17
25 -31 14 -14 25 -31 25 -39 0 -8 4 -15 9 -15 5 0 13 -9 16 -20 4 -11 16 -31
29 -43 21 -21 96 -167 96 -186 0 -6 6 -14 13 -18 14 -9 77 -105 77 -118 0 -4
8 -15 18 -24 9 -9 35 -51 57 -94 22 -43 53 -92 68 -110 16 -18 38 -52 50 -77
11 -25 30 -58 42 -75 12 -16 27 -46 35 -65 7 -19 19 -42 27 -50 37 -42 63 -79
63 -89 0 -6 5 -11 10 -11 6 0 22 -22 38 -50 29 -53 51 -62 87 -37 26 19 14 56
-38 117 -102 120 -132 159 -132 172 -1 22 -24 68 -34 68 -5 0 -21 29 -36 65
-15 35 -35 67 -44 70 -9 3 -29 30 -45 61 -15 32 -47 88 -72 125 -24 37 -44 72
-44 76 0 4 -18 31 -40 58 -22 28 -40 53 -40 58 0 16 -71 152 -85 162 -7 6 -29
38 -48 70 -19 33 -45 71 -57 85 -12 14 -40 51 -61 82 -21 31 -44 60 -49 63 -6
4 -29 44 -51 89 -22 45 -57 104 -79 130 -22 27 -40 51 -40 55 0 4 -16 25 -36
46 -20 22 -50 67 -67 100 -35 69 -74 125 -87 125 -5 0 -28 18 -52 40 -24 22
-49 40 -55 40 -7 0 -13 5 -13 10 0 11 -68 55 -84 55 -10 0 -13 44 -17 305 -2
199 -9 218 -59 165z m-693 -1441 c-3 -3 -12 -4 -19 -1 -8 3 -5 6 6 6 11 1 17
-2 13 -5z"/>
<path d="M2717 3374 c-3 -3 -19 -6 -36 -6 -17 -1 -31 -4 -31 -7 0 -4 -20 -28
-45 -54 -25 -25 -45 -49 -45 -52 1 -32 -5 -45 -36 -79 -19 -21 -33 -45 -30
-52 6 -15 -13 -64 -24 -64 -4 0 -10 -19 -14 -41 -4 -23 -15 -60 -25 -83 -10
-22 -22 -55 -26 -73 -3 -18 -16 -51 -28 -75 -11 -24 -21 -45 -22 -48 -1 -13
-29 -77 -40 -90 -6 -8 -17 -33 -24 -55 -7 -22 -26 -60 -41 -85 -16 -25 -36
-65 -46 -90 -9 -25 -20 -49 -24 -55 -25 -33 -100 -187 -100 -204 0 -11 -7 -24
-16 -29 -9 -5 -16 -13 -16 -18 1 -5 -8 -29 -19 -54 -11 -25 -27 -67 -36 -95
-8 -27 -29 -79 -45 -115 -17 -36 -39 -85 -50 -110 -11 -25 -27 -58 -34 -73 -8
-16 -14 -39 -14 -53 0 -27 -19 -81 -61 -171 -16 -34 -29 -71 -29 -82 0 -11 -4
-22 -9 -26 -5 -3 -19 -34 -31 -69 -12 -36 -28 -70 -36 -76 -8 -7 -14 -19 -14
-27 0 -7 -9 -26 -20 -41 -11 -15 -23 -41 -26 -57 -3 -17 -16 -54 -30 -84 -13
-29 -24 -58 -24 -65 0 -6 -6 -23 -14 -37 -7 -14 -16 -42 -20 -62 -4 -19 -11
-37 -16 -39 -5 -2 -15 -30 -21 -63 -6 -33 -15 -62 -19 -65 -4 -3 -11 -39 -15
-80 -6 -72 -5 -79 26 -140 18 -36 38 -71 45 -77 7 -7 14 -18 16 -24 5 -14 88
-30 88 -16 0 5 10 7 22 4 12 -4 27 -2 32 2 19 16 102 40 207 60 57 12 169 42
249 67 137 44 165 54 243 88 17 8 43 18 57 21 14 4 49 18 78 31 29 13 59 24
67 24 9 0 23 5 33 10 29 18 215 91 257 102 46 13 255 97 270 110 5 4 20 8 33
8 13 0 47 11 75 25 28 14 56 24 62 21 7 -2 25 4 41 13 30 18 83 31 143 35 19
2 37 8 39 14 2 7 9 12 17 12 7 0 18 7 25 15 7 8 16 12 21 9 5 -3 9 -1 9 3 0 5
17 15 38 22 34 12 110 57 122 73 3 3 32 15 65 26 60 20 163 95 164 119 1 14
-38 53 -52 53 -5 0 -25 -18 -46 -40 -27 -29 -55 -46 -102 -62 -35 -11 -80 -33
-99 -47 -19 -15 -57 -38 -85 -51 -27 -13 -57 -27 -65 -31 -8 -5 -27 -16 -42
-24 -15 -8 -58 -22 -95 -29 -37 -8 -69 -19 -71 -25 -2 -6 -12 -11 -23 -11 -18
0 -81 -21 -124 -42 -12 -5 -27 -10 -35 -12 -32 -5 -68 -19 -130 -49 -36 -17
-69 -32 -75 -34 -79 -21 -122 -36 -168 -57 -30 -15 -86 -37 -124 -51 -117 -41
-142 -51 -149 -58 -4 -4 -16 -7 -27 -7 -10 0 -48 -14 -84 -30 -35 -17 -68 -30
-73 -30 -5 0 -24 -6 -42 -14 -18 -8 -49 -21 -70 -30 -20 -9 -43 -16 -51 -16
-8 0 -43 -9 -78 -21 -35 -11 -75 -23 -88 -25 -14 -3 -28 -7 -32 -10 -4 -2 -44
-11 -89 -18 -72 -13 -85 -13 -105 0 -20 13 -24 12 -45 -11 -13 -13 -42 -32
-66 -41 -41 -15 -45 -15 -69 0 -14 9 -30 29 -35 44 -6 15 -15 35 -20 44 -6 10
-10 26 -10 35 1 32 59 256 69 266 6 6 11 21 11 33 0 12 14 53 32 91 17 37 32
71 32 75 1 3 4 10 9 14 4 4 7 17 7 28 1 12 9 39 20 61 11 22 19 44 20 48 0 5
10 23 23 40 13 18 29 52 36 77 7 25 16 47 20 50 4 3 15 25 23 50 9 25 30 81
47 125 17 44 38 108 48 143 10 34 21 62 24 62 4 0 10 13 14 30 4 16 11 30 16
30 5 0 9 9 9 20 0 11 11 41 25 68 24 45 45 95 50 117 12 51 27 94 33 97 5 2
21 35 36 73 29 71 51 118 87 188 17 32 22 36 39 27 10 -5 22 -14 25 -20 3 -5
12 -7 19 -4 7 3 19 -2 26 -10 7 -9 16 -13 22 -10 5 3 25 -7 46 -22 20 -16 41
-29 47 -29 21 -1 61 -19 119 -54 34 -20 86 -49 118 -64 31 -15 59 -34 62 -42
3 -8 13 -15 23 -15 10 0 27 -7 37 -15 11 -8 27 -15 37 -15 9 0 38 -17 65 -39
27 -21 72 -50 99 -65 28 -15 70 -40 95 -56 48 -32 81 -48 91 -46 4 0 15 -6 25
-15 11 -9 57 -36 104 -59 47 -24 108 -57 136 -75 28 -18 60 -36 71 -39 12 -4
27 -13 33 -21 7 -8 22 -15 34 -15 19 0 55 -18 132 -67 10 -7 33 -20 49 -29 17
-9 45 -30 63 -45 18 -16 37 -29 42 -29 18 0 160 -70 178 -88 22 -22 92 -66 92
-58 0 4 14 0 30 -9 17 -9 30 -19 30 -24 0 -5 24 -21 53 -36 28 -15 54 -30 57
-34 7 -8 107 -70 155 -95 72 -38 105 -61 105 -73 0 -6 8 -10 18 -9 9 2 20 -1
24 -7 10 -15 59 100 51 120 -8 21 -43 60 -43 48 0 -4 -9 0 -20 10 -11 10 -20
14 -20 10 0 -4 -13 6 -29 22 -16 17 -48 41 -72 54 -24 13 -48 30 -52 37 -4 6
-15 12 -22 12 -8 0 -15 4 -15 9 0 5 -20 17 -45 27 -25 9 -56 27 -68 40 -12 13
-48 31 -79 40 -32 10 -58 21 -58 26 0 6 -55 41 -70 43 -12 2 -56 29 -74 47
-12 11 -41 31 -66 44 -52 28 -73 41 -115 70 -16 11 -45 26 -62 33 -18 8 -33
18 -33 23 0 5 -4 7 -8 4 -5 -3 -32 10 -61 29 -29 19 -62 37 -75 39 -21 4 -96
42 -106 55 -3 3 -31 18 -62 33 -32 15 -58 32 -58 38 0 5 -7 10 -17 10 -9 0
-36 11 -60 25 -23 14 -43 23 -43 20 0 -3 -10 3 -22 15 -12 11 -27 20 -33 20
-14 0 -151 66 -184 89 -14 10 -38 21 -53 25 -14 3 -39 17 -55 30 -15 13 -54
35 -85 50 -32 15 -58 34 -58 42 0 8 -3 13 -7 12 -14 -4 -107 44 -154 78 -26
19 -49 34 -52 34 -4 0 -58 32 -146 87 -18 12 -39 19 -46 17 -7 -3 -16 0 -20 6
-9 14 22 105 51 147 12 18 26 48 29 66 4 18 14 44 21 59 8 15 14 30 14 33 0 3
6 18 15 35 8 16 15 38 15 50 0 11 4 28 10 38 12 21 33 74 34 87 1 14 35 94 52
125 7 14 25 48 39 75 42 87 66 104 97 73 10 -10 22 -17 26 -14 5 3 17 -12 27
-32 11 -20 34 -51 51 -68 18 -17 47 -60 64 -95 18 -35 37 -66 41 -67 5 -2 16
-20 24 -39 8 -19 28 -51 43 -71 16 -21 35 -54 43 -74 7 -21 26 -52 41 -69 16
-17 36 -45 45 -62 26 -51 129 -200 152 -221 11 -11 38 -49 58 -85 34 -61 74
-113 116 -150 9 -8 17 -19 17 -23 0 -8 17 -30 68 -88 17 -21 32 -42 32 -48 0
-6 12 -25 28 -43 15 -18 50 -74 77 -123 46 -83 53 -91 83 -94 36 -4 53 19 34
47 -6 9 -26 44 -44 79 -18 34 -36 62 -40 62 -5 0 -8 5 -8 11 0 5 -16 31 -35
56 -19 25 -35 52 -35 60 0 7 -19 33 -42 58 -96 100 -147 163 -179 223 -18 34
-50 81 -71 105 -22 23 -53 65 -71 92 -17 28 -35 53 -40 56 -5 3 -8 8 -7 10 4
8 -36 74 -60 99 -14 15 -36 51 -50 81 -14 30 -42 78 -62 108 -21 30 -38 60
-38 66 0 6 -11 22 -25 35 -14 13 -25 32 -25 42 0 10 -4 18 -10 18 -5 0 -10 6
-10 14 0 7 -17 31 -38 52 -47 47 -60 70 -68 121 -3 21 -8 42 -11 46 -9 16 -87
40 -96 31z"/>
<path d="M3495 2883 c0 -16 20 -63 45 -106 25 -43 51 -91 59 -105 8 -15 45
-66 82 -114 38 -49 69 -92 69 -97 0 -11 28 -41 38 -41 4 0 13 4 20 9 14 9 -6
45 -121 222 -30 46 -65 109 -78 139 -41 96 -58 120 -88 120 -23 0 -27 -4 -26
-27z"/>
<path d="M3921 2827 c-19 -19 -12 -43 20 -78 17 -18 37 -46 46 -63 29 -57 53
-61 53 -8 -1 84 -82 186 -119 149z"/>
<path d="M3737 2793 c-14 -13 -6 -49 16 -70 12 -11 38 -52 57 -89 41 -79 50
-91 76 -96 33 -5 27 41 -16 126 -22 43 -51 91 -64 107 -23 27 -54 37 -69 22z"/>
<path d="M1376 1691 c-4 -5 -16 -40 -27 -77 -12 -37 -31 -90 -44 -118 -12 -28
-33 -80 -45 -116 -13 -36 -31 -81 -41 -101 -10 -20 -15 -39 -12 -43 3 -3 1
-11 -5 -18 -9 -12 -35 -92 -47 -144 -2 -11 -9 -35 -14 -54 -15 -47 -14 -83 1
-78 13 5 42 70 97 218 18 47 41 103 51 125 54 118 109 245 121 280 7 22 19 47
26 55 12 16 12 31 -2 63 -7 18 -50 24 -59 8z"/>
<path d="M1150 1555 c-7 -16 -14 -34 -15 -40 -1 -5 -7 -23 -14 -40 -27 -66
-50 -215 -33 -215 15 1 42 28 42 43 0 22 52 152 83 208 21 37 23 47 12 62 -20
27 -60 18 -75 -18z"/>
<path d="M972 1528 c-38 -49 -56 -140 -29 -151 7 -2 23 4 36 14 13 11 20 19
15 19 -4 0 -3 5 4 12 7 7 12 20 12 29 0 10 9 24 20 32 29 20 16 57 -20 57 -15
0 -32 -6 -38 -12z"/>
</g>
</svg>
