<?xml version="1.0" standalone="no"?>
<!DOCTYPE svg PUBLIC "-//W3C//DTD SVG 20010904//EN"
 "http://www.w3.org/TR/2001/REC-SVG-20010904/DTD/svg10.dtd">
<svg version="1.0" xmlns="http://www.w3.org/2000/svg"
 width="503.000000pt" height="367.000000pt" viewBox="0 0 503.000000 367.000000"
 preserveAspectRatio="xMidYMid meet">
<metadata>
Created by potrace 1.16, written by Peter Selinger 2001-2019
</metadata>
<g transform="translate(0.000000,367.000000) scale(0.100000,-0.100000)"
fill="#000000" stroke="none">
<path d="M3981 3249 c-12 -16 -27 -29 -34 -29 -7 0 -41 -16 -77 -35 -36 -19
-74 -39 -86 -44 -11 -5 -55 -30 -98 -55 -43 -25 -81 -46 -86 -46 -5 0 -15 -6
-22 -13 -17 -17 -67 -47 -158 -94 -102 -53 -119 -64 -161 -95 -20 -16 -42 -28
-48 -28 -11 0 -60 -28 -71 -40 -3 -3 -25 -14 -49 -25 -24 -11 -55 -28 -70 -40
-27 -21 -130 -85 -138 -85 -2 0 -9 -5 -16 -10 -7 -6 -43 -29 -80 -51 -71 -42
-81 -43 -144 -17 -15 6 -30 12 -33 13 -3 0 -26 11 -52 22 -26 12 -76 29 -110
38 -35 9 -67 20 -72 25 -6 6 -20 10 -32 10 -12 0 -35 7 -50 15 -16 8 -37 15
-46 15 -10 0 -18 4 -18 9 0 4 -15 11 -32 14 -18 3 -51 13 -73 23 -22 10 -47
19 -56 20 -9 0 -36 10 -60 21 -37 17 -106 40 -144 49 -5 1 -46 18 -90 37 -44
19 -109 43 -145 52 -36 9 -69 20 -75 25 -5 4 -35 16 -65 28 -30 11 -99 41
-152 66 -54 25 -100 46 -103 46 -4 0 -32 12 -63 26 -75 35 -249 104 -261 104
-5 0 -22 11 -38 24 -16 13 -48 29 -71 35 -43 12 -112 6 -112 -10 0 -5 -6 -9
-13 -9 -22 0 -45 -32 -58 -80 -10 -38 -9 -51 4 -82 9 -21 27 -43 41 -50 15 -6
26 -15 26 -20 0 -4 6 -8 14 -8 7 0 19 -6 25 -14 7 -8 29 -17 50 -21 21 -3 48
-15 59 -26 12 -10 35 -19 52 -19 22 0 30 -5 30 -17 0 -13 3 -14 11 -6 8 8 19
8 38 1 14 -6 37 -15 51 -20 14 -6 33 -14 42 -19 10 -5 28 -9 40 -9 12 0 49
-11 83 -25 34 -13 78 -25 98 -27 20 -1 37 -6 37 -11 0 -4 4 -6 10 -2 5 3 17 2
27 -3 10 -5 32 -16 48 -24 17 -9 57 -21 90 -28 33 -7 65 -16 70 -20 6 -4 35
-15 65 -25 30 -9 69 -23 85 -30 17 -7 46 -16 65 -20 19 -4 40 -11 45 -15 11
-8 60 -23 85 -25 8 -1 51 -15 95 -30 44 -15 98 -32 120 -37 63 -15 127 -28
160 -34 17 -3 59 -16 95 -29 36 -13 87 -29 113 -36 53 -13 54 -21 5 -24 -53
-4 -149 -26 -192 -43 -113 -44 -121 -149 -18 -228 38 -29 53 -34 89 -32 25 1
46 5 49 10 3 4 15 8 28 8 26 0 96 61 96 84 0 16 67 86 82 86 4 0 10 0 13 0 3
-1 13 6 21 15 9 8 22 15 30 15 8 0 14 5 14 11 0 17 76 2 108 -21 15 -11 36
-21 47 -23 37 -7 85 -29 85 -38 0 -5 3 -8 8 -8 19 3 42 -2 40 -8 -6 -18 55
-83 76 -81 11 0 45 -2 73 -6 41 -5 59 -3 80 11 54 33 88 69 88 88 -2 39 -18
84 -36 102 -50 49 -61 53 -107 34 -34 -14 -58 -8 -101 23 -7 6 -26 9 -40 8
-15 -2 -49 7 -76 19 l-50 21 37 13 c20 8 46 23 57 34 12 12 32 21 46 21 14 0
25 4 25 9 0 5 19 18 43 30 23 11 60 32 82 46 22 13 54 31 70 39 17 8 48 25 70
37 43 23 70 37 149 78 28 15 71 41 95 59 24 17 52 32 63 32 10 0 35 11 56 24
21 13 69 40 108 60 38 20 76 40 84 44 32 18 126 62 132 62 13 0 118 115 119
129 0 9 2 26 5 38 2 13 -3 23 -12 27 -8 3 -13 10 -9 16 6 10 -14 16 -81 23
-37 4 -44 1 -63 -24z m-3231 -80 c0 -5 4 -7 10 -4 5 3 29 -1 52 -9 100 -36
118 -43 124 -49 4 -4 14 -7 21 -7 8 0 40 -12 71 -26 31 -15 95 -42 142 -61 84
-34 117 -53 91 -53 -6 0 -44 14 -84 31 -40 17 -80 32 -89 34 -10 2 -47 18 -82
35 -74 35 -146 51 -170 38 -9 -5 -16 -21 -16 -35 0 -19 -4 -24 -16 -19 -9 3
-19 6 -23 6 -5 0 -22 14 -40 30 -23 23 -31 39 -31 65 0 28 4 35 20 35 11 0 20
-5 20 -11z m3160 -57 c0 -8 -57 -32 -76 -32 -10 0 57 39 69 39 4 1 7 -3 7 -7z
m-114 -57 c-11 -8 -25 -15 -30 -15 -6 1 0 7 14 15 32 19 40 18 16 0z m-2881
-45 c3 -5 -1 -10 -9 -10 -8 0 -18 5 -21 10 -3 6 1 10 9 10 8 0 18 -4 21 -10z
m102 -36 c-3 -3 -12 -4 -19 -1 -8 3 -5 6 6 6 11 1 17 -2 13 -5z m316 -34 c5
-4 -3 -5 -17 -3 -15 3 -29 10 -32 15 -7 11 36 1 49 -12z m772 -322 c7 -6 -3
-7 -30 -3 -22 4 -44 12 -50 17 -7 7 3 8 30 3 22 -3 45 -11 50 -17z m964 -1
c-5 -3 -139 -70 -151 -75 -4 -2 -8 1 -8 7 0 6 4 11 9 11 5 0 38 18 72 39 38
23 68 35 73 30 5 -5 8 -10 5 -12z m-922 -13 c-3 -3 -12 -4 -19 -1 -8 3 -5 6 6
6 11 1 17 -2 13 -5z m313 -80 c0 -2 -9 -4 -21 -4 -11 0 -18 4 -14 10 5 8 35 3
35 -6z m435 6 c-3 -5 -11 -10 -16 -10 -6 0 -7 5 -4 10 3 6 11 10 16 10 6 0 7
-4 4 -10z m-395 -16 c0 -2 -7 -4 -15 -4 -8 0 -15 4 -15 10 0 5 7 7 15 4 8 -4
15 -8 15 -10z m360 2 c0 -2 -7 -7 -16 -10 -8 -3 -12 -2 -9 4 6 10 25 14 25 6z
m-210 -130 c0 -3 -4 -8 -10 -11 -5 -3 -10 -1 -10 4 0 6 5 11 10 11 6 0 10 -2
10 -4z m270 -26 c13 -9 13 -10 0 -10 -8 0 -22 5 -30 10 -13 9 -13 10 0 10 8 0
22 -5 30 -10z m-335 -10 c-3 -5 -12 -10 -18 -10 -7 0 -6 4 3 10 19 12 23 12
15 0z m426 -16 c50 -15 86 -34 63 -34 -12 0 -115 37 -122 45 -8 8 0 6 59 -11z
m-491 -20 c0 -9 -9 -27 -20 -41 -11 -14 -20 -33 -20 -41 0 -12 -3 -13 -12 -4
-8 8 -8 15 3 28 12 14 10 19 -9 34 -29 24 -28 28 11 33 17 2 35 5 40 5 4 1 7
-5 7 -14z"/>
<path d="M2700 2807 c-36 -4 -103 -9 -150 -11 -47 -3 -88 -5 -93 -5 -13 -2
-27 -52 -21 -77 7 -29 53 -56 74 -44 25 14 197 31 343 34 147 3 150 4 163 54
13 46 -14 57 -139 57 -62 0 -141 -4 -177 -8z"/>
<path d="M3442 2689 c-12 -5 -23 -14 -23 -21 -1 -7 -3 -23 -4 -36 -2 -22 38
-62 51 -49 3 2 26 -3 52 -13 105 -39 208 -83 217 -91 5 -5 19 -9 32 -9 13 0
23 -4 23 -10 0 -5 6 -10 13 -10 8 0 32 -17 55 -38 23 -21 53 -44 67 -52 25
-14 26 -17 20 -75 -4 -33 -13 -73 -21 -89 -8 -16 -14 -37 -14 -47 0 -33 -32
-103 -59 -129 -14 -14 -37 -40 -51 -59 -26 -35 -75 -65 -90 -56 -6 3 -10 2
-10 -4 0 -10 -66 -28 -84 -23 -4 2 -13 -1 -20 -6 -12 -11 -47 -19 -120 -28
-27 -3 -68 -13 -90 -21 -23 -8 -97 -19 -166 -24 -69 -5 -138 -12 -155 -14
-123 -22 -453 -22 -655 0 -141 15 -189 20 -330 30 -47 4 -101 11 -120 15 -19
5 -62 12 -95 15 -33 4 -64 9 -69 12 -5 4 -19 7 -30 9 -12 2 -41 8 -66 15 -25
6 -54 13 -65 14 -40 6 -185 85 -220 120 -42 40 -73 103 -74 148 -1 26 3 47 9
47 5 0 10 12 10 26 0 19 18 44 66 90 36 35 69 62 74 59 4 -2 15 4 25 15 10 11
26 20 37 20 10 0 18 3 18 8 0 11 57 38 122 58 32 10 71 30 87 44 l29 27 -21
19 c-27 23 -77 46 -77 35 0 -5 -18 -11 -40 -15 -81 -13 -237 -79 -306 -129
-42 -31 -84 -74 -84 -86 0 -5 -6 -16 -13 -23 -8 -7 -28 -38 -44 -68 -30 -54
-31 -57 -27 -170 2 -63 6 -128 8 -145 3 -16 8 -92 10 -169 3 -76 8 -146 10
-155 5 -16 16 -178 22 -311 2 -41 6 -223 9 -403 5 -323 10 -367 39 -367 8 0
19 -13 26 -30 7 -16 18 -30 25 -30 6 0 18 -11 25 -25 7 -14 17 -25 21 -25 4 0
20 -11 35 -25 15 -14 30 -25 33 -25 3 0 20 -12 36 -26 42 -36 135 -78 230
-104 44 -11 114 -30 155 -42 41 -11 93 -22 115 -24 22 -3 63 -11 90 -19 28 -8
86 -16 130 -20 190 -14 222 -17 251 -26 28 -9 376 -12 484 -5 103 7 190 19
265 38 44 11 91 22 105 23 65 8 197 39 217 51 12 8 32 14 43 14 12 0 33 6 48
13 15 8 54 20 87 27 33 8 76 23 95 35 19 11 48 27 65 35 16 8 40 27 53 43 13
15 28 25 33 21 5 -3 9 -1 9 5 0 5 12 23 26 38 14 15 40 47 57 70 17 24 34 43
38 43 4 0 7 10 6 23 0 12 6 63 12 112 7 50 12 124 11 165 -3 131 -3 188 2 196
3 5 4 47 2 94 -3 76 -5 241 -4 280 0 8 -1 24 -3 35 -9 47 -18 202 -22 363 -2
95 -7 189 -11 208 -3 19 -3 58 0 88 6 47 10 53 27 49 24 -7 24 2 -1 27 -15 15
-20 33 -20 71 0 93 -57 186 -107 173 -11 -3 -29 4 -46 20 -15 14 -27 23 -27
21 0 -2 -58 23 -129 56 -72 32 -136 59 -144 59 -7 0 -17 3 -21 8 -4 4 -11 7
-14 7 -24 2 -89 18 -97 24 -18 14 -50 18 -73 10z m554 -830 l4 -121 -32 4
c-24 4 -38 -2 -64 -26 -19 -17 -37 -31 -42 -32 -10 -1 -40 -13 -88 -35 -22
-11 -44 -19 -48 -19 -4 0 -20 -9 -34 -19 -15 -10 -56 -26 -92 -34 -63 -16 -86
-20 -200 -37 -30 -4 -107 -18 -170 -29 -155 -28 -206 -35 -265 -35 -530 5
-794 13 -840 28 -57 18 -151 34 -245 42 -36 3 -74 9 -85 14 -11 4 -56 14 -100
20 -96 15 -110 17 -138 26 -44 13 -104 43 -117 59 -7 8 -18 15 -24 15 -6 0
-23 17 -37 38 -24 33 -26 45 -24 107 2 39 3 73 4 77 1 4 21 -6 45 -22 24 -17
46 -30 50 -30 3 0 38 -16 79 -35 41 -19 79 -35 85 -35 6 0 23 -5 39 -11 15 -7
35 -13 43 -15 8 -1 30 -6 49 -9 19 -4 46 -11 60 -17 131 -50 768 -94 1076 -74
178 12 242 18 270 25 17 4 59 7 95 6 36 -1 70 2 75 5 12 8 63 20 120 27 22 3
72 14 110 25 39 11 93 23 120 27 28 4 67 17 86 29 20 12 43 22 52 22 14 0 53
36 132 124 22 25 41 43 43 41 3 -2 6 -59 8 -126z m9 -244 c8 -73 8 -60 2 -229
-3 -76 -8 -140 -10 -142 -3 -3 -8 29 -12 70 -4 42 -11 78 -16 82 -5 3 -9 18
-9 35 0 16 -4 29 -9 29 -5 0 -14 35 -20 78 l-12 77 38 32 c21 17 38 31 39 30
1 -1 5 -29 9 -62z m-2552 -54 c62 -28 135 -49 193 -55 28 -4 76 -13 108 -21
31 -8 58 -15 60 -15 5 0 -29 -118 -68 -232 -20 -59 -36 -112 -36 -119 0 -6 -6
-25 -14 -42 -14 -32 -87 -214 -100 -252 -7 -17 -10 -14 -22 20 -8 22 -16 50
-18 62 -3 13 -7 27 -10 32 -4 5 -10 29 -15 53 -5 24 -18 90 -29 148 -12 58
-27 137 -35 175 -8 39 -28 114 -44 168 -17 53 -26 97 -22 97 5 0 28 -9 52 -19z
m2371 -18 c-6 -70 -26 -198 -34 -218 -13 -32 -30 -124 -30 -158 0 -18 -7 -52
-16 -77 -22 -63 -24 -72 -34 -197 -5 -61 -13 -121 -19 -132 -6 -11 -11 -29
-11 -40 0 -36 -17 -23 -44 34 -14 30 -30 55 -35 55 -5 0 -12 19 -16 42 -4 24
-25 69 -47 100 -60 90 -104 180 -111 230 -4 26 -15 63 -26 85 -11 21 -23 67
-26 103 -4 36 -11 71 -17 78 -8 9 -3 12 23 12 82 0 262 42 344 80 47 22 87 38
96 39 4 1 5 -16 3 -36z m-1763 -109 c99 -22 140 -26 306 -27 185 -1 191 -2
191 -22 -1 -30 -46 -162 -68 -198 -11 -18 -20 -40 -20 -49 0 -9 -18 -51 -40
-93 -22 -42 -40 -81 -40 -88 0 -7 -18 -46 -40 -87 -53 -99 -94 -186 -109 -233
-12 -35 -31 -51 -31 -25 0 6 -9 30 -19 52 -45 93 -69 155 -63 160 3 3 0 6 -6
6 -11 0 -46 100 -77 221 -9 35 -23 73 -30 85 -12 18 -33 81 -41 124 -2 8 -12
49 -23 90 -23 82 -26 110 -12 110 4 0 60 -12 122 -26z m1213 -16 c-4 -13 -16
-43 -27 -68 -11 -25 -22 -55 -24 -68 -2 -13 -15 -49 -29 -80 -34 -75 -63 -159
-58 -165 4 -4 0 -17 -31 -92 -7 -16 -23 -86 -34 -155 -26 -149 -48 -233 -61
-225 -8 5 -30 69 -29 85 0 3 -11 31 -25 63 -15 32 -26 63 -26 71 0 23 -41 140
-77 216 -19 41 -44 98 -54 127 -11 28 -28 62 -38 75 -23 30 -37 68 -54 146
l-14 63 131 -7 c161 -7 154 -8 306 15 164 25 153 25 144 -1z m634 -60 c6 -29
10 -60 10 -68 -1 -26 10 -109 16 -119 3 -4 8 -44 11 -87 4 -44 8 -95 11 -114
13 -101 14 -140 4 -140 -5 0 -10 -7 -10 -15 0 -8 -9 -24 -19 -34 -11 -11 -17
-22 -14 -24 3 -3 -13 -15 -35 -26 -23 -11 -43 -25 -46 -30 -5 -8 -81 -51 -90
-51 -2 0 5 39 15 88 11 48 19 110 20 137 2 59 28 206 39 220 4 6 11 37 15 70
4 33 11 74 16 90 5 17 11 44 13 60 8 62 18 105 25 100 4 -2 13 -28 19 -57z
m-2494 -158 c29 -163 39 -206 80 -335 24 -74 32 -155 16 -155 -14 0 -98 87
-113 117 -12 22 -17 61 -17 139 -1 60 -2 175 -4 257 -1 81 1 144 4 140 4 -5
19 -78 34 -163z m471 119 c4 -12 8 -27 10 -33 1 -6 4 -18 7 -26 3 -8 25 -76
48 -150 23 -74 48 -153 55 -175 8 -22 19 -60 25 -85 7 -25 15 -47 19 -50 13
-8 62 -120 64 -143 1 -12 7 -28 14 -35 7 -7 13 -21 13 -31 0 -9 5 -22 10 -27
6 -6 14 -25 19 -42 l10 -32 -42 0 c-23 0 -80 10 -127 21 -47 11 -109 25 -138
30 -30 5 -71 18 -93 29 -21 11 -45 20 -54 20 -8 0 -15 5 -15 10 0 6 -10 10
-22 10 -13 0 -33 8 -46 18 l-22 17 18 55 c18 53 104 283 121 325 4 11 25 72
46 135 21 63 43 130 49 148 13 37 22 41 31 11z m774 -81 c1 -9 19 -48 41 -86
23 -39 43 -80 45 -92 2 -12 8 -27 13 -34 10 -12 26 -67 24 -78 -1 -5 2 -8 6
-8 16 0 75 -156 66 -172 -3 -4 0 -8 5 -8 6 0 11 -13 11 -30 0 -17 7 -33 18
-39 9 -6 13 -11 9 -11 -4 0 -3 -9 3 -20 6 -11 13 -39 16 -62 4 -24 13 -52 20
-63 8 -11 14 -26 14 -34 0 -7 8 -20 18 -28 16 -14 16 -14 0 -9 -11 3 -18 0
-18 -8 0 -9 -18 -15 -52 -19 -71 -7 -398 -1 -473 8 -33 4 -69 9 -80 10 -11 1
-31 3 -44 4 -22 1 -23 4 -16 44 8 47 10 56 18 77 3 8 8 28 12 45 3 16 19 48
35 71 15 23 31 53 35 66 4 12 17 37 29 53 12 17 32 64 46 105 13 41 29 80 35
87 5 7 16 19 23 27 6 8 12 26 12 38 0 13 11 39 23 58 13 19 26 51 30 70 3 19
16 58 28 85 l23 50 12 -40 c7 -22 13 -47 13 -57z m661 8 c0 -8 7 -19 15 -26 7
-6 17 -33 22 -58 4 -26 8 -49 8 -52 11 -43 18 -60 25 -60 4 0 15 -19 26 -42
10 -24 35 -68 56 -99 21 -31 45 -78 53 -104 7 -26 22 -57 32 -69 11 -11 30
-46 44 -76 13 -30 28 -57 32 -58 12 -6 -65 -42 -88 -42 -12 0 -25 -4 -31 -10
-10 -10 -77 -25 -179 -40 -33 -5 -96 -16 -140 -25 -121 -22 -126 -22 -114 18
15 47 37 151 43 197 2 8 5 22 8 30 4 8 9 36 13 62 3 26 19 84 35 130 16 46 30
91 30 100 0 9 15 52 34 95 18 43 39 95 46 116 11 34 30 43 30 13z m680 -555
c0 -6 -4 -13 -10 -16 -5 -3 -10 -14 -10 -23 0 -9 -22 -40 -50 -67 -27 -28 -50
-54 -50 -60 0 -5 -15 -20 -33 -31 -29 -20 -45 -28 -124 -68 -16 -7 -46 -16
-69 -19 -22 -4 -75 -18 -117 -32 -41 -13 -86 -27 -99 -30 -85 -19 -135 -26
-155 -22 -13 2 -23 1 -23 -2 0 -8 -171 -31 -265 -36 -136 -8 -221 -15 -232
-20 -7 -2 -13 0 -13 6 0 5 -11 2 -25 -7 -16 -10 -25 -12 -25 -5 0 8 -5 9 -19
2 -10 -6 -20 -8 -23 -6 -2 2 -58 7 -123 10 -185 9 -207 11 -216 26 -5 9 -9 10
-9 2 0 -10 -23 -9 -60 4 -8 3 -24 7 -35 8 -69 8 -125 20 -174 37 -31 11 -65
19 -76 19 -10 0 -24 4 -30 8 -5 5 -30 11 -55 15 -73 11 -210 57 -203 69 3 5 2
7 -4 4 -19 -12 -85 17 -114 50 -16 19 -29 30 -29 26 0 -4 -4 -3 -8 2 -4 6 -23
19 -42 29 -43 24 -80 65 -73 81 7 19 37 7 81 -31 22 -19 43 -34 47 -34 4 0 28
-11 54 -24 26 -12 65 -29 86 -36 22 -7 47 -18 55 -25 14 -12 32 -17 100 -30
14 -3 36 -9 50 -14 14 -6 45 -12 70 -15 25 -3 78 -12 118 -20 41 -8 77 -15 80
-14 4 1 32 -3 62 -10 58 -12 212 -28 345 -37 99 -7 83 -7 190 -1 157 9 249 18
272 27 11 4 52 11 90 14 37 4 71 9 75 11 8 5 146 31 208 39 66 8 191 44 232
66 10 5 24 9 32 9 29 0 124 41 147 63 13 13 42 31 64 41 22 10 45 23 50 30 29
33 85 57 85 37z"/>
</g>
</svg>
