<?xml version="1.0" standalone="no"?>
<!DOCTYPE svg PUBLIC "-//W3C//DTD SVG 20010904//EN"
 "http://www.w3.org/TR/2001/REC-SVG-20010904/DTD/svg10.dtd">
<svg version="1.0" xmlns="http://www.w3.org/2000/svg"
 width="557.000000pt" height="401.000000pt" viewBox="0 0 557.000000 401.000000"
 preserveAspectRatio="xMidYMid meet">
<metadata>
Created by potrace 1.16, written by Peter Selinger 2001-2019
</metadata>
<g transform="translate(0.000000,401.000000) scale(0.100000,-0.100000)"
fill="#000000" stroke="none">
<path d="M4211 3734 c-19 -18 -51 -39 -70 -45 -59 -19 -195 -88 -208 -105 -14
-19 -181 -104 -204 -104 -9 0 -24 -9 -34 -20 -10 -11 -26 -20 -36 -20 -10 0
-21 -5 -24 -10 -4 -6 -10 -8 -15 -5 -5 3 -11 1 -14 -4 -7 -10 -124 -71 -137
-71 -5 0 -17 -7 -27 -16 -10 -8 -45 -27 -78 -41 -32 -14 -68 -30 -79 -36 -11
-6 -72 -37 -135 -70 -63 -32 -122 -65 -131 -73 -9 -8 -47 -26 -84 -39 -37 -14
-93 -42 -124 -62 -31 -21 -90 -50 -131 -64 -41 -15 -97 -39 -125 -54 -27 -14
-77 -35 -109 -46 -32 -11 -73 -30 -90 -43 -36 -26 -51 -33 -171 -80 -49 -20
-112 -51 -140 -70 -52 -34 -197 -98 -225 -99 -8 0 -19 -6 -25 -13 -14 -19
-152 -101 -264 -158 -52 -27 -102 -52 -110 -56 -9 -5 -59 -30 -111 -55 -52
-26 -101 -51 -108 -57 -6 -6 -12 -7 -12 -3 0 5 -8 1 -17 -7 -29 -26 -121 -68
-147 -68 -13 0 -26 -3 -28 -7 -4 -9 -86 -51 -108 -55 -8 -2 -17 -6 -20 -9 -7
-9 -92 -46 -123 -54 -15 -4 -27 -11 -27 -15 0 -5 -10 -11 -22 -15 -23 -6 -80
-30 -200 -83 -36 -17 -69 -28 -71 -25 -11 10 -17 -36 -8 -60 15 -38 28 -41 62
-13 17 14 34 26 37 27 27 3 50 11 95 32 90 43 193 87 203 87 6 0 33 11 61 25
l51 26 32 -31 c17 -16 35 -30 41 -30 5 0 25 -16 43 -35 19 -19 39 -35 44 -35
6 0 14 -9 17 -20 3 -11 13 -20 21 -20 8 0 25 -10 37 -22 13 -13 48 -43 78 -67
50 -41 98 -89 200 -199 22 -23 46 -42 54 -42 8 0 15 -4 15 -9 0 -5 13 -4 30 2
16 6 30 15 30 19 0 21 30 1 108 -74 146 -141 192 -189 192 -199 0 -6 13 -15
29 -20 16 -6 40 -27 54 -48 31 -46 125 -139 149 -147 27 -8 22 -17 -20 -36
-20 -10 -50 -27 -67 -37 -16 -11 -60 -36 -97 -56 -79 -44 -102 -66 -94 -93 11
-33 45 -34 92 -1 23 16 47 29 53 29 6 0 11 4 11 9 0 5 17 16 38 25 20 9 55 30
77 46 56 41 69 39 61 -7 -31 -183 -31 -183 -56 -197 -14 -8 -61 -33 -105 -56
-44 -24 -109 -60 -143 -82 -35 -21 -83 -46 -107 -57 -65 -29 -163 -98 -170
-121 -10 -32 12 -61 45 -58 17 1 30 6 30 10 0 20 105 98 132 98 9 0 38 16 66
35 28 19 95 57 148 85 54 28 103 55 109 59 5 5 22 11 36 14 15 4 48 21 76 39
27 18 58 38 68 45 37 23 170 88 179 88 5 0 25 15 44 33 20 17 41 32 47 32 5 0
26 8 45 18 197 104 239 127 262 143 14 11 32 19 40 19 7 0 29 14 48 30 19 16
40 30 46 30 11 0 145 78 154 90 6 7 69 46 122 75 20 11 55 36 77 57 22 20 62
44 88 53 27 10 80 33 120 51 39 19 77 34 84 34 7 0 38 17 69 38 30 22 89 54
130 73 41 18 86 44 99 56 14 12 39 28 55 35 17 7 38 19 48 27 9 7 51 33 95 56
43 23 96 51 118 63 22 12 45 22 52 22 6 0 18 8 25 18 7 9 19 18 25 19 20 4
147 65 163 78 8 7 56 34 105 60 159 85 179 96 214 123 41 33 65 47 160 98 40
21 97 60 125 86 28 27 55 48 60 48 5 0 17 7 27 16 9 8 23 16 31 18 8 1 31 12
51 24 21 12 42 22 46 22 4 0 33 15 64 34 31 19 72 40 92 46 19 6 35 16 35 22
0 6 7 16 16 22 12 9 13 17 5 39 -13 34 -41 35 -84 4 -18 -13 -66 -41 -107 -62
-41 -21 -86 -46 -100 -55 -34 -23 -109 -60 -120 -60 -5 0 -9 42 -8 98 l2 97
105 53 c58 29 113 52 122 52 28 0 62 46 55 74 -8 33 -29 33 -97 2 -29 -14 -56
-23 -61 -20 -4 3 -8 1 -8 -4 0 -5 -36 -28 -80 -51 l-81 -42 -47 48 c-63 64
-94 87 -175 130 -37 19 -84 51 -105 70 -20 19 -57 51 -81 71 -93 79 -88 72
-66 78 11 3 29 17 39 31 20 26 20 27 -4 42 -13 9 -29 22 -34 29 -27 34 -126
114 -169 137 -20 11 -37 25 -37 31 0 6 -12 17 -27 24 -16 8 -57 44 -93 80 -36
36 -84 77 -108 90 -44 25 -50 42 -16 49 10 1 33 14 50 27 17 13 34 20 38 17 3
-4 6 -2 6 4 0 6 12 15 28 21 36 12 60 55 42 77 -23 27 -81 17 -119 -21z m-101
-154 c0 -5 -5 -10 -11 -10 -5 0 -7 5 -4 10 3 6 8 10 11 10 2 0 4 -4 4 -10z
m-126 -109 c17 -11 55 -46 86 -78 31 -32 79 -76 106 -98 75 -61 171 -164 184
-196 7 -16 16 -29 21 -29 5 0 9 -9 9 -19 0 -13 7 -19 23 -19 12 0 41 -5 63
-10 27 -6 48 -5 59 1 14 7 22 5 34 -10 24 -30 181 -165 212 -183 15 -8 49 -27
76 -42 49 -27 143 -110 143 -126 0 -10 -39 -46 -60 -56 -8 -3 -28 -15 -45 -26
-16 -11 -47 -28 -68 -39 -34 -18 -38 -18 -36 -3 4 48 -1 71 -16 66 -17 -7 -49
18 -197 150 -10 9 -22 16 -26 16 -5 0 -17 8 -28 18 -10 9 -54 47 -96 84 l-78
67 21 20 21 19 -30 16 c-16 8 -61 46 -100 83 -173 168 -210 202 -262 240 -59
43 -144 122 -139 127 13 12 76 46 84 46 6 0 23 -9 39 -19z m-311 -145 c12 -13
59 -48 104 -79 45 -31 107 -82 136 -114 30 -32 72 -76 93 -99 22 -22 74 -65
117 -94 42 -30 77 -56 77 -59 0 -3 14 -6 30 -6 17 0 30 3 30 8 0 16 27 5 60
-24 19 -17 76 -65 125 -106 50 -42 94 -82 98 -89 4 -8 13 -14 20 -14 12 0 27
-13 112 -96 32 -32 56 -48 70 -46 22 3 -50 -42 -85 -53 -11 -3 -20 -10 -20
-15 0 -5 -33 -25 -72 -44 -69 -32 -73 -33 -82 -15 -5 10 -13 19 -17 19 -10 0
-28 14 -112 88 -33 28 -63 52 -67 52 -5 0 -22 14 -38 30 -17 17 -35 30 -41 30
-6 0 -11 5 -11 10 0 6 -6 10 -12 10 -7 0 -49 34 -93 74 -69 64 -78 76 -66 89
15 19 7 53 -17 62 -9 3 -17 5 -17 3 -1 -5 -90 66 -93 75 -2 4 -18 15 -35 23
-30 16 -115 92 -185 167 -19 20 -40 37 -45 37 -12 0 -77 68 -77 80 0 5 -13 13
-30 19 -37 12 -38 24 -2 40 15 7 47 23 72 36 25 13 46 24 48 24 2 1 13 -10 25
-23z m-368 -193 c75 -50 185 -134 185 -142 0 -4 11 -14 25 -21 13 -7 34 -28
47 -45 12 -18 44 -48 71 -66 28 -19 73 -56 101 -82 28 -26 61 -50 74 -53 12
-4 22 -10 22 -16 0 -10 76 -6 87 5 15 16 41 4 79 -35 22 -24 75 -70 119 -103
101 -75 89 -66 163 -126 34 -28 62 -56 62 -63 0 -7 11 -18 24 -24 14 -6 29
-20 35 -31 10 -17 2 -23 -74 -61 -47 -23 -87 -46 -90 -50 -2 -4 -15 -5 -29 -3
-13 3 -27 0 -30 -6 -11 -17 -26 -13 -26 8 0 10 -12 27 -26 37 -30 21 -106 85
-144 120 -14 12 -56 51 -94 86 -37 35 -88 84 -113 110 -25 26 -64 59 -87 75
-22 15 -64 48 -91 73 -54 48 -154 135 -195 169 -14 11 -30 25 -36 29 -5 5 -32
26 -60 47 -27 20 -57 45 -66 54 -9 9 -33 32 -53 51 l-35 34 52 27 c29 15 55
28 58 28 3 1 23 -11 45 -26z m-175 -119 c25 -25 72 -67 105 -92 73 -56 148
-120 222 -189 31 -29 59 -53 63 -53 3 0 19 -14 36 -31 16 -17 43 -38 59 -46
17 -9 77 -62 135 -118 102 -99 167 -160 260 -244 25 -22 57 -45 73 -52 35 -15
34 -34 -3 -49 -16 -7 -30 -16 -30 -21 0 -5 -7 -9 -14 -9 -8 0 -48 -17 -89 -39
l-75 -38 -24 27 c-13 15 -34 30 -45 34 -12 4 -34 21 -50 39 -15 18 -44 43 -63
56 -19 14 -42 32 -51 40 -9 9 -34 29 -55 46 -21 16 -74 65 -118 108 -73 73
-77 79 -62 96 27 30 18 47 -38 76 -30 15 -78 50 -107 76 -29 27 -56 49 -61 49
-4 0 -31 22 -60 50 -29 27 -56 50 -60 50 -5 0 -8 7 -8 15 0 8 -6 15 -14 15 -8
0 -36 21 -63 48 -26 26 -67 56 -91 66 -23 10 -42 23 -42 27 0 14 42 37 102 58
30 10 68 26 84 35 16 8 31 15 34 16 3 0 26 -21 50 -46z m-417 -198 c15 -2 42
-15 60 -27 45 -32 167 -160 167 -176 0 -7 6 -13 14 -13 8 0 52 -37 98 -82 45
-45 97 -90 113 -100 32 -19 100 -24 124 -9 20 13 66 -12 88 -46 10 -15 36 -43
57 -63 22 -19 50 -44 62 -55 22 -20 54 -46 129 -104 22 -17 61 -51 86 -74 26
-23 54 -48 63 -55 9 -7 16 -16 16 -20 0 -8 -106 -77 -135 -88 -11 -4 -36 -18
-57 -32 -35 -23 -37 -23 -62 -7 -14 10 -26 21 -26 25 0 4 -18 19 -41 34 -22
15 -54 40 -70 55 -16 16 -50 46 -76 67 -25 22 -56 48 -69 59 -12 11 -31 26
-42 34 -11 8 -49 41 -84 75 -48 46 -62 65 -54 73 33 36 35 40 20 62 -8 11 -20
21 -25 21 -6 0 -34 19 -62 43 -66 54 -69 57 -90 89 -9 16 -32 34 -50 42 -17 7
-46 26 -64 42 -17 16 -46 40 -63 53 -18 13 -37 35 -43 48 -6 13 -18 22 -26 21
-9 -2 -30 7 -48 20 -17 12 -36 22 -42 22 -7 0 -14 6 -17 14 -3 8 -15 16 -26
19 -23 6 -15 27 10 27 9 0 35 12 57 25 39 24 40 24 60 5 11 -10 32 -21 48 -24z
m-385 -143 c7 -7 19 -13 26 -13 13 0 72 -55 144 -133 23 -26 58 -57 77 -70 20
-13 54 -42 78 -64 23 -22 56 -48 72 -58 30 -19 89 -65 134 -105 26 -24 75 -30
93 -12 24 24 42 15 127 -67 25 -24 82 -74 126 -110 44 -36 87 -73 95 -82 8 -9
52 -46 98 -83 45 -37 80 -71 77 -76 -3 -4 -28 -20 -57 -35 -29 -15 -77 -45
-107 -66 -30 -22 -62 -39 -72 -39 -9 0 -19 -5 -21 -12 -3 -7 -21 6 -42 30 -21
23 -42 42 -46 42 -5 0 -53 44 -107 97 -54 53 -119 111 -144 127 -71 48 -144
115 -359 328 -109 108 -224 213 -254 232 -31 20 -56 40 -56 45 0 5 -20 18 -44
30 -25 11 -47 25 -50 30 -5 7 54 35 149 71 27 10 47 7 63 -7z m2728 -200 c-3
-64 -7 -117 -9 -118 -1 -2 -33 -19 -72 -40 -38 -21 -85 -47 -104 -58 -31 -19
-34 -19 -28 -3 4 10 7 59 7 110 l0 92 34 20 c103 59 166 99 166 106 0 4 3 8 6
8 4 0 4 -53 0 -117z m-2919 27 c5 0 24 -13 43 -30 18 -16 42 -33 53 -36 11 -3
46 -32 77 -63 32 -31 81 -76 108 -101 28 -25 51 -50 51 -57 1 -6 10 -14 20
-18 11 -3 26 -17 35 -30 21 -32 152 -165 162 -165 15 0 165 -131 348 -304 l98
-93 -33 -18 c-78 -41 -109 -55 -117 -55 -6 0 -12 -7 -16 -15 -3 -8 -12 -15
-20 -15 -8 0 -19 -6 -23 -13 -4 -7 -20 -18 -34 -24 -24 -10 -30 -9 -52 15 -13
15 -39 40 -56 55 -17 16 -31 33 -31 38 0 5 -6 9 -14 9 -16 0 -64 41 -215 187
-99 94 -147 139 -186 171 -14 12 -14 15 0 35 21 29 19 34 -14 51 -16 9 -31 27
-35 40 -8 33 -51 73 -86 80 -15 3 -48 22 -73 43 -25 21 -71 56 -101 78 -31 22
-56 45 -56 51 0 11 -54 54 -68 54 -5 0 -21 16 -37 35 -15 20 -33 34 -40 31 -6
-2 -17 -1 -24 4 -16 9 28 37 119 75 105 44 110 45 161 13 25 -15 51 -28 56
-28z m2640 -150 c1 -30 -2 -66 -8 -80 -5 -14 -11 -40 -13 -59 -3 -38 -39 -66
-123 -98 -10 -3 -24 -5 -32 -4 -7 1 -10 -2 -7 -8 7 -10 -32 -37 -40 -28 -3 3
-9 41 -13 85 -10 102 1 144 43 161 17 7 38 16 46 22 138 85 144 86 147 9z
m-3066 -88 c24 -25 68 -61 97 -79 30 -19 62 -42 72 -51 10 -10 33 -31 51 -48
19 -17 54 -54 79 -84 25 -29 52 -60 60 -68 8 -8 22 -29 30 -46 13 -26 21 -31
50 -31 47 -1 77 13 85 39 5 17 8 18 13 6 4 -8 13 -16 21 -18 23 -5 111 -81
216 -186 55 -56 127 -123 159 -151 91 -77 121 -107 119 -116 -2 -5 5 -9 15 -9
11 0 4 -8 -18 -21 -19 -12 -37 -21 -39 -20 -2 2 -7 -2 -10 -8 -4 -6 -41 -28
-82 -50 -42 -21 -85 -45 -98 -52 -20 -13 -24 -11 -52 21 -40 47 -39 46 -79 86
-73 74 -101 101 -165 159 -36 33 -96 88 -133 122 -37 34 -78 72 -91 84 -22 20
-23 23 -8 34 9 7 17 15 17 19 0 3 -20 26 -45 49 -25 24 -45 42 -45 41 0 -2
-20 18 -45 43 -34 34 -43 48 -33 54 10 7 9 9 -4 9 -20 0 -40 14 -120 89 -48
45 -56 56 -46 69 11 13 10 14 -9 8 -16 -5 -30 1 -56 24 -19 16 -41 30 -49 30
-20 0 -38 20 -38 42 0 10 -9 22 -20 26 -15 6 -5 15 58 49 l77 41 11 -30 c5
-17 30 -51 55 -76z m1160 72 l24 -27 -27 18 c-16 9 -28 21 -28 26 0 14 5 11
31 -17z m1580 -114 c4 -3 10 -38 14 -78 7 -81 -6 -128 -40 -138 -11 -4 -40
-21 -65 -38 -25 -17 -61 -39 -80 -48 -19 -9 -44 -21 -56 -27 -21 -10 -21 -9
-17 97 l4 107 37 33 c20 18 63 49 97 68 33 19 67 38 75 43 9 5 17 4 19 -3 2
-6 7 -13 12 -16z m-3156 -52 c14 -6 35 -26 46 -45 11 -18 46 -53 77 -77 32
-24 80 -69 107 -100 28 -30 85 -82 129 -113 43 -32 94 -71 112 -86 30 -25 40
-28 93 -25 60 3 61 2 107 -42 157 -151 300 -282 319 -292 7 -4 44 -48 83 -96
l70 -89 -57 -26 c-31 -14 -65 -34 -76 -44 -29 -26 -133 -103 -140 -103 -3 0
-5 9 -5 20 0 11 -12 30 -27 43 -53 44 -137 135 -145 158 -3 9 -22 24 -42 33
-20 9 -36 20 -36 25 0 7 -27 34 -182 182 -43 41 -78 78 -78 83 0 5 11 19 24
31 18 16 22 29 18 53 -2 19 -10 31 -17 30 -7 -2 -28 13 -46 32 -19 20 -51 49
-72 65 -22 16 -49 44 -62 63 -13 19 -34 40 -47 46 -13 7 -22 20 -22 29 1 9 -2
14 -7 11 -5 -3 -12 2 -15 10 -3 9 -10 13 -15 11 -4 -3 -31 16 -58 42 -27 26
-73 67 -101 91 l-51 42 35 15 c19 8 37 19 41 25 8 13 9 13 40 -2z m174 -37
c10 -6 10 -10 1 -16 -7 -4 -19 0 -28 9 -14 13 -14 16 -2 16 8 0 21 -4 29 -9z
m-339 -47 c0 -8 -4 -12 -10 -9 -5 3 -10 10 -10 16 0 5 5 9 10 9 6 0 10 -7 10
-16z m3005 -94 c-4 -79 -17 -141 -32 -156 -8 -8 -29 -22 -46 -31 -18 -9 -58
-33 -89 -54 -31 -22 -59 -39 -62 -39 -2 0 -5 44 -5 99 -1 138 9 159 101 207
127 65 137 63 133 -26z m-3076 29 c20 -7 31 -18 31 -31 0 -19 -1 -19 -30 2
-27 20 -46 40 -37 40 2 0 18 -5 36 -11z m2766 -224 c-2 -68 -6 -128 -9 -134
-4 -5 -19 -12 -35 -16 -16 -3 -37 -15 -47 -26 -9 -10 -21 -19 -26 -19 -5 0
-21 -9 -36 -20 -15 -11 -43 -26 -63 -34 -35 -15 -37 -14 -42 4 -3 11 -1 18 3
15 11 -7 18 165 7 188 -5 12 -3 17 8 17 8 0 15 3 15 8 0 10 81 59 111 67 14 3
43 22 64 41 21 19 42 34 46 34 4 0 6 -56 4 -125z m-320 -167 c-4 -55 -8 -107
-9 -115 -2 -14 -71 -54 -116 -68 -14 -4 -51 -27 -82 -51 -31 -24 -59 -44 -63
-44 -9 0 -3 93 8 111 7 11 6 31 -1 60 -13 49 -8 56 66 95 21 10 71 40 112 66
41 26 79 48 84 48 4 0 5 -46 1 -102z m-340 -176 c-3 -26 -9 -63 -12 -82 -3
-19 -7 -46 -7 -59 -1 -13 -8 -26 -16 -29 -8 -2 -24 -13 -35 -22 -30 -27 -186
-113 -192 -106 -6 5 -5 28 2 136 8 111 4 105 154 186 109 58 118 56 106 -24z
m-329 -144 c-8 -67 -17 -161 -19 -188 -2 -19 -16 -33 -64 -62 -85 -50 -203
-108 -219 -108 -11 0 -14 23 -14 106 0 101 1 108 25 130 27 25 96 63 163 91
23 9 42 21 42 27 0 5 3 6 6 3 4 -4 20 5 36 18 41 35 49 31 44 -17z m-391 -354
l-6 -71 -120 -61 c-118 -60 -119 -60 -114 -34 30 146 30 142 21 169 -5 16 -1
26 19 40 14 10 49 36 78 57 28 22 67 48 87 57 l35 17 3 -51 c2 -29 1 -84 -3
-123z"/>
</g>
</svg>
