<?xml version="1.0" standalone="no"?>
<!DOCTYPE svg PUBLIC "-//W3C//DTD SVG 20010904//EN"
 "http://www.w3.org/TR/2001/REC-SVG-20010904/DTD/svg10.dtd">
<svg version="1.0" xmlns="http://www.w3.org/2000/svg"
 width="502.000000pt" height="480.000000pt" viewBox="0 0 502.000000 480.000000"
 preserveAspectRatio="xMidYMid meet">
<metadata>
Created by potrace 1.16, written by Peter Selinger 2001-2019
</metadata>
<g transform="translate(0.000000,480.000000) scale(0.100000,-0.100000)"
fill="#000000" stroke="none">
<path d="M4428 4744 c-25 -12 -49 -32 -52 -42 -6 -17 -12 -19 -43 -12 -29 7
-42 5 -64 -11 -15 -11 -31 -19 -36 -18 -4 1 -21 -3 -36 -9 -16 -7 -31 -12 -35
-12 -4 0 -16 -15 -26 -34 -20 -38 -62 -64 -161 -99 -38 -14 -105 -41 -148 -61
-43 -20 -84 -36 -92 -36 -8 0 -30 -14 -49 -30 -18 -17 -51 -37 -71 -46 -43
-18 -96 -53 -108 -71 -4 -7 -17 -13 -27 -13 -11 0 -42 -13 -70 -30 -28 -16
-53 -30 -56 -30 -12 0 -101 -66 -132 -97 -18 -18 -37 -33 -42 -33 -12 0 -180
-167 -180 -179 0 -5 -13 -25 -30 -43 -17 -18 -30 -38 -30 -44 0 -7 -4 -14 -9
-16 -16 -6 -63 -91 -78 -142 -16 -55 -17 -145 -2 -161 5 -5 9 -15 9 -23 0 -8
8 -21 18 -28 16 -13 16 -15 0 -28 -10 -7 -18 -16 -18 -20 0 -4 -24 -30 -54
-59 -34 -33 -70 -82 -96 -132 -23 -44 -52 -91 -65 -105 -15 -16 -26 -42 -29
-69 -2 -24 -10 -47 -17 -52 -10 -6 -10 -11 0 -23 11 -13 8 -21 -14 -51 -15
-19 -31 -35 -36 -35 -5 0 -23 -22 -39 -49 -17 -27 -43 -54 -58 -61 -15 -6 -44
-34 -65 -61 -21 -28 -46 -53 -55 -56 -21 -8 -37 -28 -58 -70 -9 -18 -24 -35
-33 -38 -20 -6 -81 -58 -81 -69 0 -9 -81 -86 -90 -86 -4 0 -12 -12 -19 -27 -7
-15 -37 -50 -67 -76 -30 -27 -54 -53 -54 -58 0 -11 -34 -52 -82 -98 -21 -20
-38 -40 -38 -45 0 -17 -72 -106 -85 -106 -8 0 -19 -9 -25 -19 -5 -11 -33 -42
-60 -68 -28 -27 -59 -64 -69 -83 -10 -19 -31 -42 -47 -50 -17 -10 -42 -42 -64
-83 l-35 -66 20 -20 c14 -15 35 -21 70 -23 27 -1 61 -7 75 -15 14 -7 35 -13
46 -13 12 0 27 -7 34 -15 7 -8 16 -15 21 -15 11 0 97 -65 125 -94 12 -12 25
-34 30 -50 6 -18 26 -37 57 -53 l47 -26 35 19 c19 10 38 27 41 37 8 24 63 87
76 87 6 0 37 26 69 58 32 31 72 71 89 87 17 17 37 37 45 45 8 8 44 42 80 75
36 33 112 106 169 161 57 56 121 114 143 128 22 15 46 38 54 52 7 15 33 39 56
56 24 16 43 33 43 38 0 12 65 80 77 80 11 0 32 26 63 78 11 17 26 32 34 32 8
0 35 25 61 55 26 30 54 57 63 60 10 3 29 23 43 43 21 31 32 38 60 39 19 1 48
8 64 17 17 9 33 16 38 16 4 0 17 9 30 21 12 11 33 30 47 43 14 12 53 40 87 62
35 21 66 47 69 57 3 10 19 23 35 29 16 6 43 29 59 53 17 24 43 53 59 64 16 12
41 41 55 65 14 24 37 51 51 60 14 9 25 21 25 26 0 6 9 19 20 30 11 11 20 27
20 35 0 8 13 33 29 55 15 21 34 54 41 72 8 18 22 44 32 57 10 13 18 31 18 40
0 9 9 27 20 41 11 14 20 30 20 37 0 7 16 39 35 72 19 32 35 68 35 78 0 10 14
45 30 78 17 33 30 63 30 68 0 5 13 28 28 51 16 23 32 54 36 69 3 14 21 41 39
59 34 34 97 130 97 148 0 6 3 10 8 10 4 0 18 20 32 45 13 24 30 47 37 49 7 3
13 12 13 21 0 16 26 63 44 80 6 6 22 30 35 54 21 39 22 45 7 53 -17 10 -23 48
-6 48 21 0 46 130 30 160 -6 11 -7 20 -3 20 23 0 52 132 33 150 -3 3 -13 16
-21 30 -14 22 -51 38 -124 55 -5 2 -31 -8 -57 -21z m100 -93 c39 -34 25 -41
-34 -16 -20 8 -33 19 -29 25 10 15 38 11 63 -9z m-180 -67 c20 -8 39 -15 42
-15 15 2 49 -14 77 -35 27 -21 31 -30 30 -64 l-2 -40 -38 45 c-21 25 -46 45
-55 45 -9 1 -34 7 -54 14 -21 8 -38 10 -38 4 0 -5 -8 -4 -19 2 -15 7 -23 6
-35 -5 -8 -8 -22 -15 -31 -15 -16 0 -33 -12 -64 -44 -10 -10 -25 -25 -32 -33
-26 -27 -101 -83 -110 -83 -11 0 -31 -16 -57 -42 -9 -10 -35 -20 -59 -24 -24
-3 -43 -10 -43 -15 0 -5 -6 -9 -14 -9 -8 0 -16 -3 -18 -7 -4 -11 -96 -73 -107
-73 -5 0 -15 -7 -22 -16 -7 -9 -40 -29 -73 -45 -33 -16 -64 -36 -69 -44 -4 -8
-15 -15 -23 -15 -20 0 -94 -38 -94 -49 0 -5 -17 -17 -37 -26 -61 -28 -90 -53
-123 -101 -30 -45 -30 -46 -29 -172 1 -88 -2 -127 -10 -130 -7 -2 -9 -16 -5
-37 4 -24 2 -34 -10 -38 -9 -4 -16 -13 -16 -22 0 -8 -5 -15 -11 -15 -6 0 -18
-9 -27 -20 -18 -20 -106 -41 -144 -32 -28 5 -86 81 -91 119 -2 15 2 39 10 53
7 14 13 31 13 38 0 6 4 12 8 12 4 0 9 14 10 30 2 29 19 55 69 107 13 13 23 26
23 28 0 14 80 105 109 126 19 13 55 44 80 70 25 25 69 58 96 72 28 15 63 38
79 52 16 13 53 34 82 45 52 19 137 71 170 104 8 9 21 16 29 16 17 0 75 33 75
43 0 4 5 7 11 7 6 0 39 13 73 29 33 17 77 32 96 35 63 8 217 99 240 142 10 17
50 36 93 43 4 0 24 -6 45 -15z m2 -161 c16 -9 33 -27 39 -40 6 -13 23 -29 38
-36 30 -13 62 -45 63 -63 0 -6 -11 -24 -25 -40 -14 -16 -25 -35 -25 -41 0 -7
-4 -13 -8 -13 -10 0 -52 -73 -52 -91 0 -11 -82 -125 -101 -139 -3 -3 -13 -18
-22 -35 -8 -16 -27 -43 -41 -58 -14 -15 -29 -39 -32 -52 -3 -14 -9 -25 -13
-25 -4 0 -13 -17 -20 -37 -12 -35 -40 -98 -60 -133 -5 -8 -17 -34 -27 -57 -9
-24 -21 -43 -26 -43 -4 0 -8 -11 -8 -24 0 -14 -4 -28 -10 -31 -5 -3 -10 -16
-10 -28 0 -12 -10 -33 -23 -47 -13 -14 -29 -41 -35 -59 -7 -19 -18 -42 -25
-50 -8 -9 -19 -35 -27 -58 -7 -24 -17 -43 -21 -43 -4 0 -11 -10 -15 -22 -11
-35 -48 -88 -61 -88 -7 0 -13 -7 -13 -15 0 -9 -25 -40 -55 -70 -30 -31 -55
-59 -55 -62 0 -7 -122 -127 -174 -170 -14 -13 -32 -23 -40 -23 -7 0 -21 -9
-31 -20 -19 -20 -19 -20 -32 11 -7 17 -13 40 -13 50 0 41 -113 189 -144 189
-12 0 -33 11 -46 25 -13 14 -27 25 -31 25 -5 0 -27 13 -51 28 -35 23 -116 55
-138 54 -3 0 -13 4 -23 10 -22 11 -45 17 -144 33 -40 7 -41 14 -7 50 14 15 36
45 50 66 13 22 31 39 39 39 9 0 18 6 21 14 3 7 17 14 31 14 14 0 28 3 32 8 3
5 40 9 82 10 57 1 88 7 123 23 25 13 46 27 46 32 0 5 9 9 20 9 32 0 71 73 82
154 5 39 10 78 9 86 -2 82 -1 181 1 191 3 16 57 69 70 69 4 0 22 14 40 30 17
17 39 30 50 30 16 0 94 44 108 61 3 3 30 20 61 36 59 32 110 64 119 73 11 11
48 32 100 56 85 38 100 47 124 69 24 22 58 40 92 50 12 3 32 21 45 39 13 19
42 43 66 55 24 11 43 25 43 31 0 16 59 12 90 -7z m-1452 -1397 c61 -13 142
-46 142 -58 0 -4 6 -8 14 -8 21 0 96 -45 144 -85 46 -40 100 -113 105 -142 1
-10 6 -23 10 -30 10 -16 -2 -96 -16 -105 -6 -4 -15 -1 -20 7 -4 8 -17 15 -27
15 -15 0 -20 7 -20 28 0 26 -47 112 -89 160 -31 35 -222 138 -272 147 -18 3
-38 10 -44 15 -5 4 -30 4 -55 0 -63 -13 -61 -13 -58 18 5 43 41 60 108 50 30
-4 65 -10 78 -12z m27 -191 c11 -5 55 -31 97 -59 57 -37 79 -58 83 -78 4 -15
11 -30 16 -33 5 -4 9 -15 9 -25 0 -10 11 -27 25 -38 14 -11 25 -23 25 -26 0
-4 -24 -31 -52 -60 -29 -29 -67 -69 -83 -87 -17 -19 -39 -41 -50 -51 -11 -9
-42 -39 -69 -67 -27 -28 -52 -51 -57 -51 -5 0 -9 -6 -9 -12 -1 -15 -45 -68
-56 -68 -4 0 -49 -42 -98 -93 -50 -52 -115 -113 -143 -136 -29 -24 -53 -49
-53 -56 0 -6 -12 -21 -27 -31 -15 -10 -57 -46 -94 -79 -36 -33 -77 -69 -90
-81 -13 -11 -31 -29 -40 -40 -9 -10 -34 -35 -57 -54 -23 -19 -42 -41 -42 -48
0 -7 -4 -11 -8 -8 -5 3 -16 -6 -26 -20 -11 -13 -24 -24 -31 -24 -7 0 -34 -25
-60 -55 -25 -30 -53 -55 -61 -55 -8 0 -14 -5 -14 -11 0 -7 -27 18 -61 55 -33
36 -66 66 -73 66 -7 0 -24 10 -38 23 -31 29 -117 70 -182 88 -28 7 -45 14 -38
17 7 2 12 11 12 20 0 8 30 47 66 86 134 143 198 213 270 301 27 33 65 77 84
98 19 22 44 51 55 65 11 15 40 48 65 73 25 25 57 59 72 75 15 16 61 63 103
104 42 41 83 87 92 101 9 15 34 38 55 50 50 31 54 35 107 108 24 33 52 63 62
66 10 3 21 15 24 26 4 10 10 19 15 19 5 0 21 5 37 12 15 6 34 10 41 9 6 -1 12
3 12 8 0 22 105 9 185 -24z"/>
<path d="M1394 1525 c-4 -8 -12 -15 -19 -15 -7 0 -18 -6 -24 -14 -6 -8 -32
-17 -57 -21 -47 -7 -148 -47 -168 -68 -7 -7 -20 -24 -30 -39 -10 -15 -22 -25
-27 -22 -5 3 -9 1 -9 -4 0 -5 -10 -22 -22 -38 -24 -30 -48 -87 -48 -116 0 -10
-4 -18 -9 -18 -5 0 -18 -26 -29 -57 -23 -67 -80 -209 -95 -238 -5 -11 -13 -27
-17 -35 -4 -8 -21 -44 -39 -80 -17 -36 -34 -81 -37 -100 -4 -19 -20 -54 -36
-77 -15 -23 -28 -45 -28 -50 1 -17 -66 -138 -82 -151 -10 -7 -21 -31 -24 -53
-4 -23 -12 -43 -19 -45 -15 -6 -18 -83 -4 -100 6 -7 24 -16 40 -19 17 -4 29
-13 29 -22 0 -9 6 -13 15 -10 8 4 17 2 20 -3 11 -19 77 20 142 82 35 35 83 73
106 85 22 13 48 34 56 48 9 14 19 25 23 25 8 0 34 21 83 66 12 11 28 31 34 42
7 12 18 22 26 22 15 0 55 30 83 62 9 9 19 15 24 12 4 -3 8 2 8 10 0 9 11 18
25 22 13 3 27 14 30 23 7 23 62 54 86 48 10 -3 19 -1 19 5 0 5 4 7 9 3 5 -3
12 -1 16 5 3 5 17 10 30 10 55 0 175 86 175 126 0 8 6 14 14 14 8 0 19 13 24
29 6 16 24 41 40 56 17 15 33 39 37 53 8 32 56 135 67 142 4 3 9 22 11 43 2
21 9 43 15 49 18 18 15 45 -7 67 -10 10 -27 37 -37 59 -11 26 -29 47 -48 57
-40 20 -70 38 -76 47 -3 3 -32 20 -65 37 -46 24 -72 31 -116 31 -38 0 -61 5
-69 15 -7 8 -19 15 -27 15 -7 0 -16 -7 -19 -15z m138 -113 c7 -7 19 -12 28
-12 23 -1 92 -35 117 -59 12 -11 26 -21 31 -21 10 0 36 -35 59 -77 6 -13 8
-23 3 -23 -4 0 -11 -19 -15 -42 -4 -23 -11 -49 -15 -58 -32 -61 -50 -103 -50
-116 0 -9 -25 -41 -55 -73 -30 -32 -55 -65 -55 -74 0 -10 -5 -17 -12 -17 -6 0
-19 -7 -29 -16 -14 -13 -89 -39 -139 -48 -51 -10 -120 -44 -144 -72 -34 -42
-51 -58 -77 -74 -13 -8 -50 -41 -82 -72 -32 -32 -62 -58 -66 -58 -5 0 -28 -20
-52 -43 -24 -24 -68 -60 -97 -80 -29 -20 -62 -47 -72 -59 -25 -30 -25 -17 0
30 31 58 44 76 58 85 6 4 12 16 12 26 0 10 7 25 17 32 24 21 92 115 103 145 6
14 25 45 44 67 19 23 44 62 57 86 14 27 34 48 53 56 48 21 135 113 155 164 17
44 17 48 1 86 -9 22 -24 46 -33 53 -19 16 -85 23 -93 10 -3 -5 -17 -13 -30
-19 -28 -10 -56 -66 -55 -113 0 -59 -23 -148 -46 -173 -13 -13 -23 -26 -23
-29 0 -3 -7 -12 -15 -21 -9 -8 -19 -28 -22 -44 -3 -16 -9 -29 -14 -29 -4 0
-24 -27 -45 -60 -20 -33 -41 -60 -45 -60 -5 0 -9 -5 -9 -11 0 -7 -12 -24 -27
-38 -35 -33 -57 -66 -106 -161 -21 -41 -43 -79 -49 -85 -14 -14 15 53 40 95
12 19 22 45 22 58 0 12 7 25 15 28 8 4 12 10 9 15 -3 5 0 9 7 9 7 0 10 3 7 6
-4 3 9 33 27 67 18 34 36 78 40 97 4 19 13 46 20 60 70 138 104 211 110 240 4
19 18 56 31 82 13 26 24 55 24 64 0 9 9 27 20 41 11 14 20 32 20 39 0 8 5 14
10 14 6 0 10 11 10 24 0 15 7 27 18 30 11 4 24 16 31 29 6 12 27 32 46 44 37
25 187 65 209 57 8 -3 16 -1 20 4 7 13 84 8 98 -6z m-302 -376 c0 -12 -11 -33
-26 -47 l-25 -23 2 42 c4 59 49 85 49 28z"/>
</g>
</svg>
