<?xml version="1.0" standalone="no"?>
<!DOCTYPE svg PUBLIC "-//W3C//DTD SVG 20010904//EN"
 "http://www.w3.org/TR/2001/REC-SVG-20010904/DTD/svg10.dtd">
<svg version="1.0" xmlns="http://www.w3.org/2000/svg"
 width="543.000000pt" height="421.000000pt" viewBox="0 0 543.000000 421.000000"
 preserveAspectRatio="xMidYMid meet">
<metadata>
Created by potrace 1.16, written by Peter Selinger 2001-2019
</metadata>
<g transform="translate(0.000000,421.000000) scale(0.100000,-0.100000)"
fill="#000000" stroke="none">
<path d="M2238 4126 c-7 -11 -13 -23 -14 -26 -7 -31 -36 -90 -62 -130 -13 -19
-35 -57 -48 -85 -14 -27 -29 -57 -34 -65 -5 -8 -45 -78 -90 -155 -45 -77 -87
-143 -93 -147 -7 -4 -9 -8 -5 -8 4 0 -2 -17 -14 -37 -12 -21 -38 -67 -58 -103
-20 -36 -55 -95 -78 -133 -23 -37 -42 -70 -42 -73 0 -4 -18 -33 -40 -65 -22
-32 -40 -63 -40 -68 0 -5 -7 -14 -16 -21 -8 -8 -22 -27 -30 -44 -19 -41 -67
-126 -115 -203 -22 -34 -39 -65 -39 -68 0 -4 -13 -26 -30 -50 -16 -24 -30 -46
-30 -50 0 -3 -11 -21 -24 -38 -25 -33 -116 -185 -116 -193 0 -5 -210 -335
-237 -374 -22 -30 -77 -120 -111 -180 -14 -25 -42 -72 -63 -105 -21 -33 -59
-94 -85 -135 -26 -41 -57 -88 -70 -103 -13 -16 -24 -34 -24 -42 0 -12 -46
-100 -63 -120 -4 -5 -30 -46 -56 -90 -26 -44 -75 -124 -109 -177 -34 -53 -62
-106 -62 -117 0 -24 -29 -61 -47 -61 -7 0 -13 -9 -13 -19 0 -11 -6 -26 -12
-33 -42 -45 -51 -65 -68 -153 -24 -115 -25 -212 -5 -278 8 -27 14 -52 14 -55
-3 -21 6 -36 61 -94 33 -34 62 -71 65 -80 7 -21 65 -34 91 -21 11 6 260 8 609
6 325 -2 606 -3 625 -3 74 2 285 3 530 2 140 0 264 -1 275 0 11 0 340 -3 730
-6 695 -6 847 -10 863 -20 11 -6 105 40 119 60 7 9 10 21 7 26 -3 5 1 27 9 51
16 45 44 136 77 257 12 41 25 84 30 95 6 11 11 29 13 40 7 39 28 110 44 144 8
18 16 40 17 47 1 7 5 17 9 20 4 4 7 18 7 32 0 13 6 38 14 55 17 40 63 178 122
372 25 83 51 166 59 185 12 32 48 147 106 340 13 41 24 83 26 94 2 10 14 46
27 80 25 65 45 129 72 236 9 36 28 88 40 117 13 28 24 57 24 63 0 6 20 73 44
148 24 75 47 151 52 167 8 33 8 33 16 55 16 41 39 115 68 210 17 58 42 136 56
173 28 79 30 105 9 113 -8 4 -15 11 -15 18 0 6 -14 20 -30 31 -30 20 -39 35
-19 35 5 0 7 5 3 11 -10 16 26 87 47 92 11 3 19 14 19 25 0 11 6 23 13 26 10
5 10 7 0 12 -7 3 -13 14 -13 24 0 20 -19 30 -55 30 -13 0 -26 4 -29 9 -3 4
-29 12 -58 16 -112 15 -224 35 -283 49 -36 8 -428 87 -525 106 -52 10 -113 22
-135 28 -22 6 -76 18 -120 27 -44 8 -91 18 -105 21 -14 3 -36 7 -50 10 -14 3
-32 7 -40 9 -8 2 -28 7 -45 9 -16 3 -50 10 -75 15 -246 51 -405 81 -427 81
-15 0 -40 4 -57 9 -42 13 -249 51 -275 51 -11 0 -21 5 -21 10 0 6 -10 8 -24 4
-13 -3 -27 -1 -30 5 -4 6 -22 11 -40 11 -18 0 -54 6 -79 14 -26 8 -47 13 -47
11 0 -1 -57 12 -127 30 -80 20 -134 30 -144 25 -8 -5 -32 -5 -52 0 -33 7 -39
5 -49 -14z m108 -85 c-3 -5 27 -14 67 -20 39 -6 117 -20 172 -31 55 -11 125
-24 155 -30 30 -5 89 -16 130 -25 118 -26 445 -93 560 -116 195 -38 445 -89
515 -105 97 -21 142 -31 200 -44 28 -6 88 -19 135 -29 84 -19 156 -34 175 -36
6 -1 21 -5 35 -8 14 -3 77 -16 140 -27 63 -11 133 -25 155 -30 22 -5 73 -17
113 -26 80 -19 86 -29 58 -96 -7 -18 -39 -112 -71 -208 -32 -96 -61 -179 -65
-185 -4 -5 -23 -57 -43 -115 -19 -58 -61 -177 -92 -265 -31 -88 -68 -194 -81
-235 -14 -41 -34 -95 -46 -120 -11 -25 -35 -88 -53 -140 -43 -127 -123 -350
-134 -375 -5 -11 -22 -51 -36 -90 -15 -38 -33 -83 -41 -100 -7 -16 -22 -57
-33 -90 -55 -168 -124 -350 -158 -414 -13 -24 -23 -52 -23 -63 0 -23 -75 -246
-103 -308 -12 -25 -21 -47 -22 -50 -11 -50 -21 -80 -36 -107 -11 -19 -19 -43
-19 -53 0 -16 -5 -19 -22 -16 -13 3 -63 10 -113 16 -49 6 -117 15 -150 20 -80
12 -164 22 -345 40 -152 16 -192 21 -220 25 -14 2 -83 11 -155 20 -71 9 -136
18 -143 20 -7 2 -47 7 -90 10 -42 4 -83 9 -91 11 -8 3 -40 7 -70 10 -31 3
-101 12 -156 21 -120 17 -133 19 -264 32 -56 6 -106 13 -111 16 -11 7 -263 35
-268 30 -3 -2 -13 0 -22 5 -17 9 -52 14 -285 40 -49 6 -133 18 -185 26 -52 9
-106 18 -120 19 -74 7 -237 28 -325 40 -55 8 -118 17 -140 20 -52 7 -91 13
-137 20 l-37 6 32 47 c17 26 37 53 43 60 7 6 16 22 20 34 3 12 24 50 45 85 22
35 39 67 39 72 0 8 78 122 90 131 10 7 99 166 110 196 5 13 37 65 70 115 33
49 60 94 60 99 0 6 3 10 8 10 4 0 13 15 21 32 8 18 17 35 20 38 12 10 47 66
75 119 16 29 48 81 70 115 23 33 45 68 49 76 4 8 25 42 46 75 59 89 178 297
186 323 3 12 11 22 16 22 5 0 9 9 9 20 0 11 4 20 9 20 5 0 23 21 40 48 17 26
36 53 43 61 6 8 19 28 28 45 9 17 23 42 31 56 66 105 179 301 179 308 0 5 7
15 16 22 8 8 21 28 29 47 8 18 25 44 39 58 15 14 26 34 26 45 0 10 11 31 24
47 13 15 29 45 35 66 7 20 16 37 20 37 4 0 16 19 27 41 10 23 34 65 54 93 19
28 42 65 50 81 8 17 17 32 20 35 10 10 31 46 49 85 10 22 35 64 55 94 20 29
36 59 36 66 0 6 11 23 24 37 12 14 26 33 29 42 4 9 11 16 17 16 6 0 9 -4 6 -9z
m2678 -813 c-9 -41 -26 -103 -35 -123 -8 -18 -84 -273 -96 -320 -3 -11 -11
-33 -18 -50 -7 -16 -23 -64 -36 -105 -12 -41 -35 -112 -51 -158 -15 -46 -28
-92 -28 -103 0 -11 -4 -27 -10 -37 -12 -23 -56 -158 -65 -202 -4 -19 -16 -53
-26 -76 -10 -22 -28 -76 -40 -120 -12 -43 -25 -92 -30 -109 -5 -16 -17 -59
-27 -95 -10 -36 -23 -76 -29 -90 -6 -14 -14 -40 -18 -59 -4 -18 -18 -58 -31
-87 -13 -30 -24 -61 -24 -70 0 -8 -16 -61 -36 -117 -19 -56 -37 -109 -39 -117
-2 -8 -10 -31 -18 -50 -8 -19 -17 -48 -20 -65 -6 -34 -61 -204 -82 -250 -7
-16 -16 -49 -19 -72 -3 -23 -10 -50 -15 -60 -9 -17 -45 -113 -46 -123 -1 -9
-26 -84 -35 -105 -16 -38 -22 -60 -27 -95 -3 -19 -13 -53 -23 -75 -10 -22 -21
-47 -23 -56 -3 -9 -18 -18 -34 -21 -15 -3 -275 -3 -578 -2 -438 3 -846 4
-1110 3 -44 0 -849 11 -1120 16 -159 2 -407 5 -550 5 -248 1 -261 2 -291 22
-41 28 -88 101 -104 160 -36 138 53 398 137 398 28 0 28 -6 5 -45 -29 -47 -46
-161 -37 -241 5 -38 7 -75 6 -82 -1 -6 10 -23 24 -36 14 -13 25 -28 25 -33 0
-5 16 -14 35 -20 22 -7 35 -7 35 -1 0 5 4 7 9 4 5 -3 14 1 21 8 6 8 25 18 41
21 16 4 29 10 29 13 0 4 21 30 47 57 25 28 53 62 62 76 20 32 68 89 75 89 3 0
5 -44 5 -98 -1 -113 0 -121 26 -147 19 -19 33 -20 235 -18 729 7 2298 1 2425
-10 28 -2 100 -6 160 -7 61 -2 115 -7 120 -11 8 -5 39 -6 77 0 4 1 17 15 29
32 18 26 20 35 11 50 -16 24 -7 24 25 -1 25 -19 26 -19 51 -1 15 11 26 29 27
47 1 16 19 74 39 129 21 55 39 110 42 122 6 30 65 185 75 199 5 6 27 64 50
130 74 215 86 248 109 304 12 30 40 105 62 165 49 134 71 192 86 225 6 14 25
63 42 110 17 47 35 94 40 105 5 11 25 74 46 140 20 66 49 147 64 180 15 33 35
87 45 120 10 33 24 74 31 90 22 53 43 109 50 135 3 14 19 53 35 88 16 35 29
69 29 76 0 6 9 30 20 51 12 22 27 69 35 105 21 94 42 151 81 222 7 14 14 37
14 50 0 27 7 38 26 38 7 0 10 -9 8 -22z m-4448 -2475 c0 -75 7 -133 17 -133 4
0 7 -11 7 -25 0 -14 8 -29 21 -36 20 -10 19 -12 -23 -54 -23 -24 -53 -45 -65
-47 -23 -3 -67 38 -57 53 3 5 0 9 -7 9 -8 0 -10 20 -6 73 8 96 18 147 28 147
5 0 9 7 9 15 0 9 11 21 25 27 14 6 25 15 25 20 0 4 6 8 13 8 9 0 13 -17 13
-57z m243 21 c2 -2 -14 -23 -35 -48 -21 -24 -54 -63 -73 -86 l-34 -43 -18 44
c-18 44 -23 97 -13 134 5 19 9 20 87 11 45 -5 84 -11 86 -12z m331 -44 c150
-21 270 -37 345 -45 28 -3 61 -8 75 -11 14 -2 93 -13 175 -24 83 -11 196 -26
252 -35 56 -8 126 -17 155 -20 29 -2 96 -11 148 -19 52 -8 98 -12 103 -9 4 2
13 1 20 -4 14 -9 11 -8 107 -17 41 -4 147 -18 235 -31 88 -13 203 -29 255 -35
52 -6 111 -12 130 -15 19 -2 66 -7 103 -11 37 -4 70 -10 72 -15 3 -4 -477 -6
-1067 -3 -590 2 -1138 4 -1218 4 l-145 0 -12 28 c-14 31 -11 137 6 202 6 25
13 55 16 68 6 26 -2 26 245 -8z m2260 -300 c0 -5 -2 -10 -4 -10 -3 0 -8 5 -11
10 -3 6 -1 10 4 10 6 0 11 -4 11 -10z"/>
</g>
</svg>
