<?xml version="1.0" standalone="no"?>
<!DOCTYPE svg PUBLIC "-//W3C//DTD SVG 20010904//EN"
 "http://www.w3.org/TR/2001/REC-SVG-20010904/DTD/svg10.dtd">
<svg version="1.0" xmlns="http://www.w3.org/2000/svg"
 width="477.000000pt" height="475.000000pt" viewBox="0 0 477.000000 475.000000"
 preserveAspectRatio="xMidYMid meet">
<metadata>
Created by potrace 1.16, written by Peter Selinger 2001-2019
</metadata>
<g transform="translate(0.000000,475.000000) scale(0.100000,-0.100000)"
fill="#000000" stroke="none">
<path d="M3885 4479 c-16 -16 -37 -29 -45 -29 -16 0 -71 -39 -56 -40 15 0 -36
-50 -51 -50 -7 0 -13 -7 -13 -15 0 -8 -34 -49 -76 -92 -41 -43 -89 -98 -106
-123 -17 -25 -47 -61 -67 -80 -20 -19 -67 -71 -106 -115 -38 -44 -79 -89 -90
-101 -11 -12 -76 -81 -145 -155 -69 -73 -166 -176 -216 -228 -50 -53 -129
-136 -176 -186 -47 -49 -101 -108 -119 -130 -19 -22 -87 -94 -152 -160 -66
-66 -134 -138 -153 -161 -19 -22 -60 -67 -92 -100 -31 -32 -77 -84 -102 -114
-25 -30 -88 -99 -140 -154 -52 -54 -142 -149 -200 -210 -58 -60 -141 -146
-185 -191 -44 -44 -179 -183 -300 -308 -320 -332 -325 -337 -335 -337 -6 0
-10 -5 -10 -10 0 -6 -25 -36 -55 -66 -30 -31 -55 -60 -55 -65 0 -5 -7 -9 -15
-9 -9 0 -18 -8 -21 -17 -3 -10 -14 -38 -24 -63 -10 -25 -35 -85 -54 -135 -20
-49 -41 -97 -46 -105 -13 -20 -33 -70 -30 -78 0 -1 -6 -15 -15 -32 -8 -16 -17
-37 -18 -47 -6 -29 -19 -57 -35 -75 -8 -10 -12 -18 -9 -18 16 0 -90 -251 -146
-345 -13 -23 -28 -52 -32 -65 -4 -14 -15 -34 -25 -45 -31 -35 -33 -69 -5 -93
29 -25 43 -21 89 22 67 62 163 128 266 179 128 65 141 72 207 120 29 20 65 43
80 49 15 7 56 31 89 55 34 24 67 43 73 43 6 0 11 4 11 8 0 9 54 37 57 30 0 -1
11 9 23 25 12 15 26 27 31 27 9 0 63 45 100 84 10 10 42 27 71 37 29 10 50 18
45 19 -12 0 24 52 70 98 24 24 43 47 43 51 0 3 8 14 18 23 9 8 53 55 97 104
44 48 112 119 150 158 39 39 95 100 125 135 30 35 81 92 113 126 32 34 66 73
75 85 9 12 49 55 87 95 39 40 93 98 120 130 28 31 62 69 76 84 35 36 162 190
185 226 10 15 29 39 43 54 30 31 59 63 198 223 57 64 113 125 125 135 13 10
39 38 57 63 19 25 64 77 100 115 228 244 295 317 314 342 12 15 25 29 28 31 4
2 43 44 87 95 65 76 207 229 239 259 4 4 24 22 43 40 20 18 51 53 70 77 95
120 280 311 301 311 7 0 10 3 7 6 -4 3 2 14 13 25 10 10 19 28 19 38 0 11 5
23 10 26 6 4 8 21 5 39 -6 30 20 129 46 178 16 30 5 45 -126 182 -60 62 -77
74 -110 79 -22 2 -60 11 -85 19 -25 8 -54 15 -65 16 -11 0 -31 3 -45 5 -18 3
-34 -4 -55 -24z m197 -101 l53 -11 -33 -8 c-19 -4 -46 -3 -60 1 -15 5 -22 9
-17 9 6 1 3 6 -5 11 -20 13 -3 13 62 -2z m182 -160 c-3 -4 -14 -8 -26 -8 -15
0 -19 5 -15 20 3 11 -1 27 -9 34 -8 8 -14 21 -14 28 0 7 16 -5 35 -26 19 -22
32 -43 29 -48z m-624 -179 c0 -5 3 -8 8 -7 4 0 36 -3 72 -7 36 -5 68 -8 73 -7
21 6 0 -27 -65 -101 -64 -73 -92 -104 -163 -181 -11 -11 -35 -41 -52 -65 -28
-38 -123 -142 -293 -320 -25 -26 -74 -80 -110 -120 -36 -41 -70 -79 -75 -85
-6 -6 -39 -46 -74 -88 -34 -42 -66 -78 -70 -80 -4 -2 -38 -39 -76 -83 -71 -83
-112 -127 -276 -299 -53 -56 -129 -139 -170 -186 -41 -47 -76 -87 -79 -90 -3
-3 -30 -34 -60 -70 -30 -35 -100 -112 -156 -170 -56 -58 -130 -136 -165 -175
-35 -38 -75 -81 -89 -95 -14 -14 -58 -63 -99 -109 -41 -47 -92 -103 -115 -126
-23 -23 -75 -80 -116 -126 -102 -113 -313 -329 -322 -329 -4 0 -11 18 -14 41
-4 22 -13 46 -21 52 -7 7 -19 17 -26 22 -25 21 -63 43 -82 46 -16 3 -13 10 20
44 21 22 65 69 97 105 117 128 225 243 343 364 66 68 167 173 225 235 58 61
143 151 190 199 47 49 96 102 109 118 24 29 125 137 245 264 34 36 74 81 89
100 16 19 76 85 135 145 59 61 141 148 183 195 42 47 130 140 195 206 66 67
156 162 200 210 45 49 94 102 108 117 14 15 26 32 26 38 0 5 3 9 8 9 23 0 355
329 394 391 20 32 48 42 48 18z m271 -121 c33 -45 33 -56 15 -220 -2 -15 -19
-45 -38 -65 -19 -21 -72 -78 -118 -128 -46 -49 -93 -99 -104 -111 -12 -12 -46
-49 -76 -83 -30 -35 -68 -76 -83 -93 -15 -17 -51 -58 -80 -91 -29 -33 -79 -88
-112 -123 -33 -35 -85 -93 -115 -130 -30 -36 -75 -87 -100 -112 -25 -26 -62
-67 -83 -92 -22 -25 -80 -88 -129 -140 -223 -234 -227 -239 -343 -395 -37 -49
-80 -103 -96 -120 -74 -76 -182 -191 -274 -291 -55 -60 -143 -154 -196 -209
-53 -55 -123 -129 -156 -165 -81 -88 -174 -189 -198 -215 -11 -12 -39 -41 -61
-66 -23 -24 -57 -59 -77 -78 l-36 -34 -31 33 c-16 17 -30 35 -30 39 -1 9 -49
43 -68 46 -9 2 -34 4 -54 4 l-37 1 32 33 c97 101 168 179 217 236 65 76 66 78
150 167 36 38 78 85 94 104 16 19 63 71 105 115 42 45 89 96 105 115 16 19 72
82 125 139 116 126 108 117 150 166 18 22 81 90 140 150 58 61 120 128 136
150 17 21 41 51 55 65 14 14 48 52 75 85 27 33 79 92 115 130 36 39 81 91 99
118 19 26 38 47 42 47 10 0 67 57 134 135 28 32 66 75 85 95 19 21 53 59 75
85 41 50 130 148 200 220 178 187 234 246 257 277 41 54 234 248 247 248 6 0
25 -19 42 -42z m-2870 -2747 c20 -16 24 -28 24 -78 0 -32 -3 -70 -7 -84 -3
-14 -3 -31 1 -38 11 -18 60 -20 91 -5 15 8 54 17 87 20 61 7 62 6 99 -39 41
-49 39 -56 -22 -118 -33 -32 -64 -59 -71 -59 -6 0 -13 -4 -15 -8 -4 -12 -125
-92 -137 -92 -6 0 -11 -4 -11 -9 0 -5 -30 -27 -67 -49 -38 -21 -111 -66 -163
-99 -52 -33 -103 -63 -113 -66 -15 -6 -16 -4 -7 13 6 11 16 20 23 20 7 1 5 6
-5 14 -10 7 -25 31 -34 52 -9 21 -26 50 -39 64 l-23 25 48 122 c27 66 73 174
104 238 31 65 56 123 56 129 0 13 36 47 60 58 31 14 98 8 121 -11z m-331 -737
c0 -4 -57 -34 -65 -34 -3 0 2 11 10 24 11 16 22 22 35 19 11 -3 20 -7 20 -9z"/>
</g>
</svg>
