<?xml version="1.0" standalone="no"?>
<!DOCTYPE svg PUBLIC "-//W3C//DTD SVG 20010904//EN"
 "http://www.w3.org/TR/2001/REC-SVG-20010904/DTD/svg10.dtd">
<svg version="1.0" xmlns="http://www.w3.org/2000/svg"
 width="537.000000pt" height="439.000000pt" viewBox="0 0 537.000000 439.000000"
 preserveAspectRatio="xMidYMid meet">
<metadata>
Created by potrace 1.16, written by Peter Selinger 2001-2019
</metadata>
<g transform="translate(0.000000,439.000000) scale(0.100000,-0.100000)"
fill="#000000" stroke="none">
<path d="M3250 4381 c-8 -5 -141 -12 -295 -15 -154 -3 -302 -8 -330 -10 -27
-3 -95 -7 -150 -10 -55 -2 -113 -9 -129 -16 -19 -7 -59 -8 -110 -5 -57 5 -98
2 -136 -8 -54 -14 -90 -15 -510 -20 -102 -1 -191 -6 -199 -11 -8 -5 -69 -10
-137 -12 -124 -2 -229 -18 -239 -35 -4 -5 -15 -9 -25 -9 -20 0 -63 -37 -78
-68 -5 -9 -8 -33 -6 -52 2 -19 4 -54 4 -77 0 -23 5 -45 10 -48 6 -4 10 -14 10
-23 0 -24 74 -175 94 -191 9 -7 16 -18 16 -23 0 -6 13 -29 28 -52 15 -22 31
-48 35 -56 4 -8 36 -69 71 -135 35 -66 84 -159 108 -206 25 -47 59 -107 76
-133 18 -26 32 -49 32 -52 0 -3 11 -20 25 -38 14 -18 25 -38 25 -44 0 -7 4
-12 9 -12 5 0 13 -9 16 -21 4 -12 16 -30 26 -40 10 -10 19 -26 19 -34 0 -8 6
-15 13 -15 6 0 20 -16 29 -34 16 -33 16 -34 -12 -67 -16 -19 -29 -38 -30 -42
0 -10 -58 -96 -77 -115 -7 -7 -13 -17 -13 -21 0 -4 -8 -16 -17 -27 -10 -11
-36 -46 -58 -79 -22 -33 -42 -62 -45 -65 -4 -3 -32 -45 -64 -95 -32 -49 -67
-102 -77 -117 -10 -15 -19 -31 -19 -36 0 -5 -20 -31 -45 -56 -25 -26 -45 -52
-45 -57 0 -6 -15 -29 -33 -53 -18 -24 -48 -73 -66 -109 -19 -37 -38 -67 -42
-67 -5 0 -9 -5 -9 -11 0 -10 -17 -34 -62 -88 -24 -29 -58 -107 -64 -148 -3
-24 -11 -46 -16 -49 -5 -4 -5 -10 1 -18 5 -6 13 -43 16 -81 12 -124 22 -153
70 -201 25 -24 51 -44 58 -44 6 0 26 -7 42 -16 46 -25 158 -61 173 -57 6 3 12
0 12 -5 0 -6 9 -8 20 -5 11 3 28 2 37 -2 20 -8 105 -12 358 -19 94 -3 215 -8
270 -13 130 -9 450 -10 590 -1 61 4 155 10 210 13 55 3 127 8 160 10 33 3 110
7 170 10 61 2 128 7 150 9 22 3 76 8 120 11 44 4 100 10 124 15 24 4 61 5 84
2 28 -3 43 -1 51 9 7 10 32 14 76 14 88 1 152 7 171 16 29 15 79 20 79 8 0 -6
7 -4 15 4 8 9 34 18 57 22 62 9 186 74 229 119 21 21 42 35 48 32 6 -4 11 -1
11 7 0 7 13 26 30 42 16 15 27 31 25 35 -3 4 5 16 16 26 11 10 27 32 35 49 15
33 36 67 45 75 3 3 13 19 22 35 8 17 27 44 41 60 14 17 33 53 42 80 10 28 27
73 39 100 13 28 40 91 61 140 20 50 40 97 45 105 31 64 79 178 79 188 0 7 7
27 16 43 23 45 25 59 29 234 3 88 6 171 8 185 7 46 -41 185 -117 338 -25 51
-46 95 -46 98 0 2 -15 37 -34 77 -19 40 -50 110 -70 156 -20 46 -43 93 -51
105 -8 11 -15 26 -15 34 0 7 -9 22 -20 34 -11 12 -20 30 -20 39 0 9 -16 41
-35 71 -20 29 -38 64 -42 78 -3 14 -11 32 -18 40 -6 8 -26 44 -43 80 -18 36
-52 89 -77 117 -25 28 -45 56 -45 61 0 16 -103 104 -140 119 -19 8 -59 26 -88
39 -28 14 -78 29 -110 34 -31 4 -70 14 -87 20 -16 7 -70 14 -120 15 -87 2
-204 12 -235 20 -8 2 -22 0 -30 -4z m450 -168 c63 -7 56 -6 95 -22 66 -27 119
-57 129 -73 6 -10 16 -18 22 -18 7 0 15 -11 18 -25 4 -14 15 -34 24 -43 17
-17 86 -127 138 -217 12 -22 38 -67 57 -100 20 -33 44 -76 53 -95 109 -220
154 -320 154 -338 0 -12 4 -22 10 -22 9 0 50 -80 50 -98 0 -5 12 -31 26 -58
14 -27 26 -50 25 -52 -1 -1 6 -19 14 -39 9 -21 17 -44 19 -53 3 -16 23 -68 32
-82 3 -5 -12 -9 -33 -8 -21 0 -85 -2 -143 -5 -58 -4 -145 -6 -195 -5 -49 1
-218 2 -375 1 -581 -1 -784 0 -792 5 -4 3 -104 4 -221 3 -269 -2 -392 -3 -492
-1 -44 1 -197 1 -339 -1 l-260 -2 -28 30 c-15 17 -28 33 -28 37 0 3 -16 23
-35 43 -20 20 -52 69 -72 108 -20 40 -56 110 -79 157 -23 47 -54 98 -68 114
-14 16 -26 35 -26 43 0 7 -4 13 -9 13 -9 0 -61 95 -61 112 0 11 -77 125 -100
148 -26 26 -51 70 -45 80 3 6 2 10 -4 10 -6 0 -19 17 -29 38 -10 21 -35 65
-55 98 -32 51 -37 69 -39 124 -3 117 0 119 176 126 60 3 116 9 125 13 42 22
215 32 496 30 318 -2 920 8 1010 17 33 4 163 8 289 10 126 2 231 6 234 9 6 6
256 -3 332 -12z m-455 -1417 c110 -3 216 -8 235 -10 19 -2 44 1 54 6 11 6 69
10 130 8 61 -1 290 -2 508 -3 219 -1 398 -4 398 -6 0 -3 -7 -12 -16 -22 -14
-16 -21 -36 -23 -66 -1 -7 -9 -13 -20 -13 -22 0 -36 -15 -46 -50 -4 -14 -25
-52 -47 -84 -23 -33 -45 -76 -50 -95 -6 -19 -28 -66 -49 -104 -21 -38 -39 -72
-39 -76 0 -3 -9 -23 -20 -44 -21 -40 -57 -130 -92 -232 -11 -33 -23 -64 -28
-70 -4 -5 -13 -28 -20 -50 -7 -22 -26 -59 -41 -82 -16 -23 -30 -50 -32 -61 -3
-18 -56 -72 -70 -72 -3 0 -21 -13 -39 -30 -18 -16 -40 -30 -50 -30 -10 0 -18
-4 -18 -8 0 -17 -198 -63 -221 -52 -8 5 -21 5 -28 1 -7 -5 -53 -9 -101 -9 -48
0 -97 -5 -109 -12 -23 -12 -54 -17 -146 -26 -33 -3 -82 -9 -109 -15 -27 -5
-83 -7 -125 -4 -128 10 -274 12 -311 4 -19 -4 -75 -11 -124 -14 -49 -3 -93 -8
-96 -10 -10 -6 -235 -25 -390 -33 -171 -9 -417 -9 -426 1 -16 16 13 22 119 24
62 1 166 5 232 9 66 4 143 7 170 8 28 1 56 6 63 10 7 4 50 10 95 12 45 2 109
6 142 9 33 2 99 8 147 11 64 5 91 4 103 -6 10 -8 15 -9 15 -1 0 6 3 10 8 10 4
-1 9 0 12 1 22 9 295 33 415 36 61 2 126 6 145 8 31 4 110 6 244 6 46 0 60 10
52 37 -12 39 -55 46 -204 32 -75 -7 -191 -13 -257 -14 -66 -1 -132 -6 -147
-13 -15 -6 -43 -8 -62 -5 -20 3 -78 1 -128 -6 -80 -9 -240 -18 -488 -27 -36
-1 -105 -7 -155 -13 -115 -14 -235 -22 -408 -25 -76 -2 -140 -5 -142 -8 -2 -2
-30 -1 -62 2 -32 4 -85 5 -118 3 -33 -2 -81 1 -107 5 -30 6 -48 6 -48 0 0 -5
-5 -6 -10 -3 -20 12 -59 -22 -56 -50 4 -34 -26 -41 -87 -20 -30 10 -53 13 -63
7 -22 -13 -59 -4 -85 21 -13 12 -29 22 -37 23 -8 2 -30 19 -48 40 -43 46 -46
93 -9 130 14 14 25 27 25 30 0 2 16 27 35 54 19 27 35 52 35 56 0 3 11 20 24
37 13 18 27 43 31 57 4 14 20 41 34 60 15 19 33 47 41 63 7 15 33 50 57 79 24
28 54 69 66 91 36 66 80 130 160 234 15 20 27 40 27 45 0 5 13 23 30 41 16 18
30 38 30 45 0 6 4 12 8 12 5 0 24 24 42 53 19 28 47 68 63 87 57 66 63 67 351
69 142 0 260 2 262 3 4 5 797 0 999 -6z m1324 -241 c-2 -39 -8 -61 -23 -77
-11 -12 -21 -31 -22 -43 -3 -37 -17 -85 -25 -91 -5 -3 -9 -14 -9 -25 0 -11 -9
-39 -20 -61 -11 -23 -20 -50 -20 -60 0 -10 -11 -35 -23 -56 -21 -32 -56 -108
-89 -192 -16 -41 -42 -95 -49 -100 -3 -3 -23 -34 -44 -70 -22 -36 -44 -70 -50
-77 -22 -26 -33 -40 -61 -79 -42 -58 -146 -164 -160 -164 -7 0 -25 -10 -41
-22 -42 -34 -73 -49 -83 -43 -6 4 -10 2 -10 -2 0 -12 -109 -52 -150 -55 -19
-2 -38 -7 -41 -11 -5 -7 -200 -30 -244 -28 -5 0 -19 0 -30 1 -51 2 -276 -27
-309 -40 -16 -6 -75 -12 -130 -14 -56 -2 -135 -7 -176 -10 -41 -3 -127 -8
-190 -11 -63 -3 -144 -7 -180 -10 -130 -9 -510 -3 -585 9 -22 3 -114 8 -205
11 -414 14 -431 15 -457 37 -8 6 -16 8 -19 5 -6 -5 -99 25 -111 36 -3 4 -12 7
-20 7 -7 0 -22 9 -33 20 -11 11 -27 20 -35 20 -8 0 -19 16 -24 38 -13 43 -14
93 -3 75 4 -6 19 -17 32 -22 29 -13 59 -31 78 -48 7 -7 19 -13 25 -13 41 -1
240 -12 282 -16 28 -2 93 -6 145 -9 52 -3 138 -7 190 -11 215 -14 354 -13 408
3 32 9 88 14 145 13 85 -2 151 4 407 31 100 11 490 13 521 4 10 -4 27 -1 38 4
10 6 50 12 87 15 72 4 112 11 154 27 14 5 91 11 170 13 80 1 154 7 165 11 11
5 37 9 57 10 21 0 38 3 38 6 0 4 15 12 33 20 90 36 232 152 244 199 3 14 16
39 29 56 13 18 31 51 40 75 17 48 26 69 43 112 6 15 11 36 11 45 1 9 9 35 20
57 11 22 19 43 20 47 0 4 14 36 30 70 17 34 30 65 30 70 0 5 12 27 27 51 15
23 28 44 29 47 1 8 15 40 35 87 11 23 19 45 19 48 0 3 19 32 42 63 68 91 80
94 77 17z m-3083 -1107 c4 -5 -7 -8 -24 -8 -17 0 -33 4 -36 8 -6 10 50 10 60
0z m127 3 c26 0 47 -5 47 -11 0 -10 -140 -3 -152 8 -4 4 7 6 25 6 18 -1 53 -2
80 -3z"/>
<path d="M3810 2460 c0 -5 -22 -16 -49 -25 -99 -32 -125 -75 -92 -148 11 -23
21 -40 23 -37 2 2 25 -10 51 -29 46 -32 50 -32 115 -25 37 4 72 7 77 6 6 -1
34 13 64 31 67 40 87 83 68 149 -12 41 -14 42 -81 59 -80 20 -176 30 -176 19z
m7 -96 c-3 -3 -12 -4 -19 -1 -8 3 -5 6 6 6 11 1 17 -2 13 -5z"/>
<path d="M1800 2449 c-19 -6 -59 -15 -89 -20 -30 -5 -65 -18 -79 -29 -13 -11
-27 -18 -31 -16 -13 8 -52 -62 -53 -94 -1 -24 7 -38 33 -61 19 -16 41 -29 50
-29 9 0 33 -7 52 -15 21 -8 67 -15 105 -15 122 0 252 72 252 139 0 33 -36 101
-64 122 -27 21 -130 31 -176 18z"/>
<path d="M3171 2419 c-13 -5 -33 -7 -43 -3 -30 9 -138 -27 -155 -53 -8 -12
-15 -42 -16 -66 -2 -44 19 -101 34 -91 4 2 10 0 14 -6 3 -5 14 -10 23 -10 9
-1 34 -9 55 -19 35 -16 46 -17 110 -5 79 13 152 39 179 62 20 17 33 71 24 100
-8 25 -34 54 -68 76 -31 20 -122 29 -157 15z m-118 -119 c-8 -31 -23 -34 -23
-6 0 16 6 26 14 26 9 0 12 -7 9 -20z"/>
<path d="M2476 2399 c-22 -10 -45 -19 -51 -19 -24 0 -55 -46 -55 -82 0 -40 28
-98 48 -98 6 0 12 -4 12 -9 0 -12 21 -18 85 -27 69 -9 72 -9 147 14 64 20 127
65 140 103 7 19 -20 65 -48 79 -12 7 -27 22 -34 34 -10 21 -19 22 -108 23 -77
1 -105 -3 -136 -18z m-6 -109 c0 -13 -5 -18 -14 -14 -8 3 -12 12 -9 20 8 21
23 17 23 -6z"/>
<path d="M3456 1941 c-3 -5 -27 -14 -52 -20 -59 -15 -83 -43 -84 -98 0 -37 6
-49 40 -83 23 -23 46 -40 53 -38 7 1 39 -2 72 -7 33 -5 65 -7 70 -5 6 2 30 4
55 6 25 1 46 3 48 4 1 2 6 3 11 4 5 0 32 23 60 49 41 39 51 55 51 81 0 69 -82
121 -146 93 -15 -6 -29 -5 -45 4 -28 15 -126 23 -133 10z m239 -91 c3 -5 1
-18 -4 -27 -6 -10 -11 -16 -11 -13 -8 38 -8 50 -1 50 6 0 13 -4 16 -10z"/>
<path d="M2684 1908 c-122 -13 -177 -41 -186 -94 -4 -28 19 -69 48 -85 13 -7
24 -16 24 -20 0 -23 147 -45 196 -29 18 6 57 13 86 15 69 4 105 14 112 30 2 7
20 18 39 24 28 10 36 18 39 43 5 33 -27 93 -60 113 -20 11 -208 13 -298 3z
m-58 -113 c-1 -29 -4 -30 -30 -10 -21 16 -14 35 14 35 13 0 17 -7 16 -25z"/>
<path d="M1300 1884 c-21 -6 -44 -16 -51 -23 -8 -6 -25 -20 -38 -31 -45 -37
-26 -160 26 -160 7 0 13 -4 13 -10 0 -5 7 -10 15 -10 8 0 15 -5 15 -11 0 -13
132 -6 217 10 111 22 152 54 160 124 5 38 2 46 -21 65 -46 36 -148 63 -227 60
-39 -2 -88 -8 -109 -14z m178 -78 c10 -11 -83 -6 -98 5 -11 7 -1 9 39 5 29 -2
56 -7 59 -10z m32 -6 c0 -5 -2 -10 -4 -10 -3 0 -8 5 -11 10 -3 6 -1 10 4 10 6
0 11 -4 11 -10z"/>
<path d="M1915 1869 c-78 -27 -91 -41 -99 -109 -4 -33 31 -73 74 -85 32 -10
51 -25 44 -36 -3 -5 0 -9 5 -9 6 0 11 4 11 8 0 4 17 6 37 4 49 -6 163 15 208
38 49 25 64 47 65 93 0 42 -34 86 -70 88 -29 2 -33 3 -49 13 -30 19 -163 16
-226 -5z m-5 -99 c0 -5 -2 -10 -4 -10 -3 0 -8 5 -11 10 -3 6 -1 10 4 10 6 0
11 -4 11 -10z"/>
<path d="M4600 951 c0 -10 -97 -49 -185 -76 -33 -10 -73 -24 -90 -31 -131 -53
-194 -74 -207 -69 -9 4 -27 1 -40 -6 -13 -7 -27 -13 -33 -14 -26 -2 -81 -18
-93 -28 -10 -8 -16 -7 -23 4 -5 8 -9 9 -9 4 0 -6 -8 -11 -17 -12 -53 -4 -159
-20 -183 -28 -31 -10 -63 -15 -120 -20 -30 -3 -77 -12 -105 -19 -47 -13 -103
-18 -202 -19 -24 0 -43 -3 -43 -7 0 -4 -6 -8 -12 -9 -25 -4 -224 -21 -298 -25
-41 -2 -76 -5 -77 -7 -2 -1 -6 -2 -10 -3 -5 -1 -17 -7 -28 -13 -11 -6 -42 -14
-70 -17 -27 -4 -86 -15 -130 -25 -67 -16 -118 -25 -235 -45 -8 -2 -36 -6 -63
-11 -26 -4 -50 -11 -53 -16 -3 -5 -14 -9 -24 -9 -10 0 -29 -4 -42 -9 -13 -5
-26 -10 -30 -11 -34 -11 -218 -47 -222 -42 -3 2 -11 0 -18 -6 -7 -5 -33 -11
-58 -13 -25 -1 -53 -6 -62 -11 -16 -8 -79 -17 -159 -22 -20 -2 -41 -6 -46 -9
-6 -4 -32 -9 -59 -12 -27 -3 -60 -8 -74 -10 -14 -3 -54 -7 -89 -10 -35 -3 -69
-8 -74 -12 -5 -3 -35 -9 -66 -12 -45 -5 -58 -10 -67 -29 -6 -13 -16 -28 -21
-33 -11 -11 5 -99 17 -99 4 0 20 -11 36 -25 16 -14 43 -26 59 -27 17 0 53 -2
82 -3 29 -2 59 -5 67 -8 8 -3 16 -1 18 4 2 6 37 12 78 15 41 2 82 7 90 9 14 4
270 42 335 50 16 2 57 8 91 14 34 6 83 13 109 16 27 3 55 7 64 9 15 5 98 16
146 20 11 1 26 5 32 9 7 4 27 10 45 13 18 3 43 7 55 9 11 1 31 6 44 10 13 4
48 11 79 15 30 5 65 10 78 14 13 3 53 8 90 11 59 6 97 10 252 30 42 6 119 17
140 21 8 2 35 6 60 9 25 4 56 9 70 11 14 2 56 6 94 9 38 3 73 8 77 11 5 2 52
9 106 14 54 5 109 12 123 15 49 10 235 44 270 48 19 3 35 6 35 7 0 4 46 11
110 17 69 6 194 7 518 2 179 -3 186 -1 187 46 0 15 -10 25 -35 34 -36 13 -47
31 -20 31 24 0 65 46 65 73 0 27 -28 57 -54 57 -16 0 -16 2 -2 22 31 44 14 70
-50 77 -6 1 -9 12 -6 26 3 20 -1 27 -24 36 -16 6 -49 8 -74 6 l-45 -6 35 16
c19 8 43 22 52 30 25 23 7 52 -32 51 -16 -1 -30 -4 -30 -7z m-120 -169 c0 -4
-25 -13 -56 -21 -31 -7 -64 -15 -73 -18 -9 -4 -13 -2 -8 3 5 5 34 17 65 26 68
20 72 20 72 10z m-150 -41 c0 -9 -89 -35 -97 -28 -4 5 40 23 72 30 11 3 21 5
23 6 1 0 2 -3 2 -8z m215 -66 c-27 -13 -66 -26 -85 -28 -19 -3 -79 -12 -134
-21 -54 -9 -100 -15 -103 -12 -5 5 55 19 60 14 2 -2 10 2 18 9 19 15 95 33
224 53 74 11 75 10 20 -15z m-479 -71 c18 -15 7 -44 -16 -44 -10 0 -45 -6 -77
-14 -32 -8 -83 -17 -114 -20 -30 -3 -67 -10 -82 -15 -25 -10 -28 -8 -42 25 -8
20 -15 38 -15 39 0 5 65 17 115 21 28 2 86 12 130 22 55 13 81 15 84 8 2 -6
10 -16 17 -22z m637 29 c-7 -2 -19 -2 -25 0 -7 3 -2 5 12 5 14 0 19 -2 13 -5z
m-50 -10 c-7 -2 -21 -2 -30 0 -10 3 -4 5 12 5 17 0 24 -2 18 -5z m-1053 -103
c7 -17 11 -33 8 -35 -3 -3 -32 -7 -64 -10 -32 -3 -72 -7 -89 -10 -16 -3 -64
-8 -105 -11 -68 -5 -105 -11 -180 -28 -21 -5 -112 -16 -340 -42 -25 -2 -52 -5
-60 -5 -8 0 -46 -5 -85 -11 -166 -24 -204 -29 -265 -34 -36 -3 -101 -13 -145
-21 -44 -8 -107 -19 -140 -24 -33 -5 -73 -14 -90 -19 -37 -11 -182 -37 -250
-44 l-50 -5 37 14 c20 7 94 23 164 35 141 23 272 53 300 68 11 5 71 20 134 32
63 12 147 28 185 36 39 8 99 19 135 24 36 5 90 16 120 25 70 20 159 32 335 45
165 12 200 17 223 28 9 5 39 10 67 11 27 1 51 3 52 5 1 1 22 3 46 5 41 2 45
-1 57 -29z m-1877 -297 c-7 -2 -19 -2 -25 0 -7 3 -2 5 12 5 14 0 19 -2 13 -5z
m-86 -18 c-21 -8 -57 -17 -80 -19 -23 -3 -80 -10 -127 -15 -97 -12 -126 -14
-118 -5 7 6 298 51 338 52 20 0 17 -2 -13 -13z"/>
</g>
</svg>
