<?xml version="1.0" standalone="no"?>
<!DOCTYPE svg PUBLIC "-//W3C//DTD SVG 20010904//EN"
 "http://www.w3.org/TR/2001/REC-SVG-20010904/DTD/svg10.dtd">
<svg version="1.0" xmlns="http://www.w3.org/2000/svg"
 width="523.000000pt" height="429.000000pt" viewBox="0 0 523.000000 429.000000"
 preserveAspectRatio="xMidYMid meet">
<metadata>
Created by potrace 1.16, written by Peter Selinger 2001-2019
</metadata>
<g transform="translate(0.000000,429.000000) scale(0.100000,-0.100000)"
fill="#000000" stroke="none">
<path d="M3188 4135 c-8 -8 -109 -33 -157 -39 -44 -5 -101 -46 -101 -73 0 -7
-3 -13 -7 -13 -5 0 -24 -30 -43 -68 -19 -37 -37 -69 -40 -72 -7 -7 -22 -32
-64 -107 -20 -34 -56 -88 -81 -120 -60 -77 -60 -76 -129 -193 -24 -41 -49 -81
-55 -87 -6 -7 -16 -24 -21 -38 -5 -14 -27 -49 -48 -78 -22 -28 -46 -65 -56
-82 -9 -16 -22 -39 -29 -50 -92 -146 -117 -187 -117 -195 0 -5 -6 -15 -13 -22
-16 -17 -44 -59 -105 -159 -18 -30 -38 -63 -45 -74 -71 -115 -265 -403 -279
-413 -10 -7 -18 -19 -18 -26 0 -7 -23 -45 -50 -85 -28 -40 -50 -76 -50 -79 0
-4 -11 -19 -25 -34 -14 -15 -29 -36 -33 -45 -4 -10 -32 -56 -63 -103 -30 -47
-71 -114 -90 -150 -18 -36 -36 -67 -39 -70 -12 -11 -100 -141 -100 -149 0 -8
-24 -39 -53 -71 -8 -8 -23 -35 -34 -60 -11 -25 -38 -63 -61 -84 -40 -38 -99
-136 -82 -136 10 0 3 -34 -16 -77 -8 -17 -14 -37 -14 -45 0 -8 -3 -17 -6 -21
-13 -13 -87 -232 -100 -297 -3 -13 -9 -29 -13 -35 -15 -20 -50 -121 -67 -195
-9 -41 -20 -77 -23 -80 -7 -6 -51 -126 -59 -160 -2 -14 -13 -36 -22 -50 -10
-14 -19 -41 -22 -62 -3 -31 0 -39 22 -51 36 -22 56 -16 95 24 49 50 67 65 94
79 26 13 39 23 71 51 32 30 146 114 195 144 197 123 234 148 360 245 54 41
109 84 124 94 14 11 41 33 59 48 19 16 45 28 60 28 22 0 39 13 78 61 27 34 66
81 87 106 20 24 37 49 37 54 0 5 5 15 10 22 6 7 24 28 40 47 16 19 30 38 30
42 0 4 6 13 13 20 7 7 24 29 37 48 13 19 33 44 43 55 20 21 59 76 91 129 10
17 21 33 25 36 11 9 51 69 51 77 0 5 13 24 30 43 16 19 29 39 30 43 0 4 18 35
40 68 22 33 40 64 40 68 0 4 13 25 30 47 16 21 30 45 30 52 0 6 4 12 9 12 5 0
15 16 21 35 6 19 15 35 19 35 4 0 15 15 24 33 10 17 28 50 42 72 14 22 35 58
46 79 11 21 29 48 40 59 10 11 22 30 25 40 4 11 10 25 15 31 38 47 57 77 74
111 11 22 45 78 76 125 124 187 234 367 266 435 10 22 25 45 33 52 8 7 12 13
7 13 -4 0 15 29 43 65 27 35 50 66 50 69 0 3 154 265 180 306 5 8 19 33 31 54
12 22 45 62 74 90 61 60 72 89 45 124 -11 13 -17 28 -14 33 2 5 -2 22 -11 39
-9 17 -13 35 -10 40 3 6 1 10 -4 10 -6 0 -11 7 -11 15 0 8 -4 15 -9 15 -8 0
-23 61 -26 108 -1 30 -38 59 -90 72 -22 6 -53 17 -70 25 -16 7 -48 21 -70 30
-22 9 -56 24 -75 32 -19 9 -51 24 -70 32 -19 9 -38 19 -41 24 -3 4 -8 5 -11 2z
m-48 -123 c0 -6 -57 -87 -93 -132 -7 -8 -23 -32 -36 -53 -12 -21 -28 -43 -34
-50 -7 -6 -18 -24 -26 -39 -8 -15 -21 -36 -30 -46 -9 -10 -20 -25 -26 -34 -5
-8 -22 -33 -36 -54 -60 -91 -107 -171 -114 -194 -4 -14 -13 -28 -19 -32 -6 -4
-11 -11 -11 -15 -1 -17 -46 -93 -55 -93 -6 0 -10 -4 -10 -9 0 -4 -34 -59 -76
-122 -42 -63 -85 -130 -95 -149 -11 -19 -31 -53 -44 -75 -13 -22 -27 -47 -31
-55 -4 -8 -15 -24 -24 -35 -22 -26 -60 -93 -60 -106 0 -5 -17 -33 -39 -62 -21
-29 -54 -82 -74 -119 -37 -72 -75 -129 -92 -140 -5 -4 -10 -11 -10 -15 0 -15
-65 -123 -74 -123 -5 0 -11 -8 -15 -17 -3 -10 -11 -27 -18 -38 -7 -11 -29 -44
-49 -75 -20 -30 -49 -79 -65 -109 -40 -74 -46 -83 -71 -110 -11 -12 -32 -44
-45 -69 -12 -26 -28 -51 -34 -57 -12 -11 -74 -103 -74 -110 0 -4 -51 -83 -87
-135 -10 -14 -21 -26 -25 -28 -5 -2 -8 -9 -8 -16 0 -7 -24 -41 -53 -77 -91
-111 -192 -269 -189 -295 3 -20 -1 -24 -23 -24 -19 0 -26 5 -24 18 2 9 -1 31
-5 49 -6 28 -2 39 31 85 32 43 160 241 216 333 7 11 15 22 18 25 6 5 47 78 83
145 11 22 23 42 26 45 15 15 50 71 50 80 0 5 5 10 10 10 6 0 10 4 10 9 0 5 24
44 53 86 28 43 71 108 93 147 23 38 51 80 63 94 11 13 21 26 21 28 0 2 29 46
63 97 108 159 123 183 143 219 10 19 23 39 27 45 4 5 23 35 42 65 19 30 47 73
62 95 31 44 93 145 93 151 0 6 73 118 81 124 6 5 112 176 133 215 6 11 21 34
34 52 12 17 22 33 22 36 0 9 75 133 98 162 13 17 43 57 68 90 24 33 48 65 54
72 5 7 10 15 10 20 0 4 11 23 23 42 38 58 61 96 62 101 2 10 38 75 45 80 4 3
14 18 22 34 10 19 30 34 64 46 55 21 74 24 74 12z m155 -43 c28 -11 84 -37
125 -58 57 -29 74 -43 72 -57 -9 -62 -13 -79 -33 -114 -13 -22 -26 -40 -31
-40 -4 0 -8 -8 -8 -17 0 -10 -14 -38 -30 -62 -16 -24 -27 -48 -23 -54 3 -5 1
-7 -5 -4 -5 4 -24 -14 -41 -40 -17 -27 -41 -61 -53 -76 -13 -16 -33 -46 -45
-68 -12 -22 -39 -63 -60 -92 -21 -29 -44 -65 -51 -81 -7 -17 -26 -48 -43 -70
-16 -23 -52 -79 -80 -126 -27 -47 -53 -92 -59 -100 -5 -8 -43 -72 -85 -142
-42 -70 -81 -130 -85 -133 -5 -3 -18 -25 -29 -48 -23 -48 -35 -67 -72 -117
-14 -19 -45 -69 -69 -110 -23 -41 -50 -84 -60 -95 -10 -11 -36 -53 -60 -94
-23 -40 -51 -82 -62 -93 -34 -34 -102 -139 -133 -203 -15 -33 -46 -83 -67
-112 -21 -29 -38 -54 -38 -57 0 -3 -16 -30 -35 -60 -19 -30 -35 -60 -35 -66 0
-5 -4 -10 -10 -10 -5 0 -10 -11 -10 -25 0 -14 -3 -25 -7 -25 -9 0 -37 -45 -68
-110 -13 -25 -37 -63 -54 -84 -17 -22 -41 -55 -53 -75 -12 -20 -37 -51 -55
-69 -18 -18 -33 -37 -33 -41 0 -20 -84 -112 -123 -135 -110 -66 -201 -97 -239
-81 -43 17 -98 77 -98 107 0 15 4 29 9 33 5 3 7 22 5 42 -4 28 3 53 26 100 17
35 35 63 41 63 5 0 8 3 7 8 -3 9 52 96 63 100 5 2 9 8 9 14 0 6 7 16 15 22 9
6 17 21 18 33 0 12 5 19 9 17 4 -3 26 23 48 58 22 35 47 72 55 83 8 10 15 24
15 31 0 7 7 14 15 17 8 4 21 22 29 41 15 35 23 48 59 87 10 11 29 44 43 74 14
30 41 70 60 90 29 31 82 121 80 135 -1 8 57 84 72 93 7 5 9 13 6 19 -4 6 -2
13 3 17 5 3 23 29 39 56 15 28 36 59 46 69 10 11 18 28 18 37 0 10 6 22 13 26
20 14 75 77 79 91 2 8 15 37 30 65 15 29 35 69 44 90 9 20 19 37 23 37 5 0 13
10 20 23 6 12 19 34 29 48 31 48 122 200 122 205 0 3 11 20 24 37 13 18 35 51
48 73 13 23 49 80 81 127 31 47 57 89 57 93 0 4 11 22 25 40 14 18 25 39 25
47 0 9 3 17 8 19 13 5 58 81 86 143 15 34 40 73 56 89 16 15 55 66 87 114 32
48 64 94 72 102 7 8 27 36 44 63 16 26 32 46 35 43 3 -3 -1 -14 -9 -24 -8 -10
3 0 23 23 21 22 38 44 38 48 0 10 25 3 95 -24z m251 -234 c-3 -8 -2 -15 3 -15
10 0 37 -61 33 -73 -1 -4 -3 -15 -5 -25 -4 -28 -17 -42 -37 -42 -22 0 -30 -10
-36 -46 -6 -33 -57 -135 -95 -191 -16 -23 -29 -43 -29 -46 0 -4 -82 -141 -122
-202 -14 -22 -39 -57 -55 -77 -17 -21 -36 -52 -44 -70 -7 -18 -16 -35 -19 -38
-3 -3 -17 -27 -29 -55 -13 -27 -26 -52 -30 -55 -6 -4 -57 -87 -71 -115 -6 -12
-20 -33 -115 -180 -164 -250 -190 -292 -213 -335 -14 -24 -31 -50 -39 -58 -7
-8 -20 -28 -27 -46 -7 -17 -19 -38 -27 -47 -8 -8 -32 -49 -54 -92 -22 -42 -44
-77 -48 -77 -4 0 -13 -13 -18 -30 -6 -16 -15 -30 -20 -30 -5 0 -9 -6 -9 -12 0
-7 -11 -26 -25 -42 -14 -16 -25 -33 -25 -37 0 -12 -110 -181 -132 -202 -10
-10 -18 -22 -18 -27 0 -4 -16 -29 -35 -54 -19 -25 -33 -46 -30 -46 3 0 -3 -8
-13 -18 -28 -30 -76 -93 -86 -113 -5 -11 -12 -19 -16 -19 -4 0 -20 -19 -35
-43 -15 -23 -34 -49 -42 -57 -30 -33 -63 -75 -63 -82 0 -18 -68 -82 -109 -103
l-47 -23 -22 23 c-21 22 -22 26 -8 52 8 15 26 39 40 52 14 14 26 30 26 38 0 7
5 13 10 13 6 0 24 21 40 48 47 74 54 84 73 104 9 10 14 18 10 18 -5 0 3 9 16
19 13 10 25 27 26 37 1 20 32 72 52 89 14 11 104 185 97 185 -3 0 1 6 8 14 23
24 43 52 45 64 2 6 14 22 28 36 14 14 25 34 25 44 0 11 7 22 15 26 8 3 21 18
27 33 12 26 51 91 105 174 13 20 23 40 21 45 -2 5 13 26 34 46 35 36 50 59 79
123 8 17 16 32 19 35 4 3 21 26 40 53 18 26 37 47 42 47 4 0 8 7 8 15 0 19 32
85 41 85 5 0 27 32 50 72 23 39 59 94 81 122 21 28 41 62 45 75 6 23 59 110
74 121 9 7 98 155 106 177 3 10 17 31 30 46 13 16 23 35 23 43 0 8 4 14 9 14
12 0 61 84 61 104 0 9 4 16 8 16 5 0 19 18 31 40 12 23 38 57 57 78 19 20 37
52 40 70 4 18 14 38 23 45 26 20 121 150 121 167 0 5 6 15 13 22 7 7 19 22 26
33 11 19 12 18 6 -5 -4 -16 7 -5 27 28 18 28 39 52 46 52 9 0 12 -6 8 -15z
m-56 -19 c0 -3 -4 -8 -10 -11 -5 -3 -10 -1 -10 4 0 6 5 11 10 11 6 0 10 -2 10
-4z m-2250 -2651 c7 -8 23 -15 35 -15 23 0 35 -17 35 -51 0 -10 21 -39 48 -64
l47 -46 76 4 c60 4 84 10 118 31 65 41 68 41 63 2 -4 -33 -3 -34 40 -41 37 -7
41 -9 24 -19 -10 -6 -36 -27 -56 -46 -20 -19 -64 -54 -96 -78 -32 -23 -77 -58
-99 -78 -22 -19 -58 -45 -80 -56 -22 -11 -51 -29 -64 -39 -25 -20 -46 -25 -36
-9 7 12 -13 48 -45 76 -39 35 -155 89 -171 79 -12 -8 -12 -5 6 57 24 88 53
176 70 208 8 16 16 32 16 35 0 2 5 18 10 35 12 33 38 40 59 15z m-107 -481
c33 -22 42 -34 38 -56 0 -5 3 -8 8 -8 13 0 20 -35 9 -54 -5 -9 -18 -16 -29
-16 -11 0 -22 -7 -25 -15 -4 -8 -11 -15 -16 -15 -15 0 -134 -86 -163 -118 -13
-14 -27 -24 -29 -21 -3 3 10 47 29 98 19 52 35 101 35 110 0 8 7 36 16 61 9
25 18 51 20 57 5 18 61 6 107 -23z"/>
</g>
</svg>
