<?xml version="1.0" standalone="no"?>
<!DOCTYPE svg PUBLIC "-//W3C//DTD SVG 20010904//EN"
 "http://www.w3.org/TR/2001/REC-SVG-20010904/DTD/svg10.dtd">
<svg version="1.0" xmlns="http://www.w3.org/2000/svg"
 width="553.000000pt" height="489.000000pt" viewBox="0 0 553.000000 489.000000"
 preserveAspectRatio="xMidYMid meet">
<metadata>
Created by potrace 1.16, written by Peter Selinger 2001-2019
</metadata>
<g transform="translate(0.000000,489.000000) scale(0.100000,-0.100000)"
fill="#000000" stroke="none">
<path d="M815 4830 c-22 -11 -45 -20 -52 -20 -13 0 -39 -18 -78 -55 -12 -11
-38 -29 -59 -40 -60 -31 -170 -144 -201 -205 -15 -30 -31 -57 -35 -60 -12 -8
-100 -156 -100 -168 0 -6 13 -27 30 -45 16 -19 30 -40 30 -46 0 -6 6 -11 14
-11 8 0 53 -38 101 -85 47 -47 90 -85 95 -85 5 0 12 -12 15 -27 3 -16 13 -53
21 -83 8 -30 17 -64 18 -75 5 -29 110 -235 146 -286 17 -24 38 -55 47 -69 42
-62 155 -193 194 -225 24 -20 53 -46 64 -58 82 -92 410 -372 600 -513 91 -67
86 -64 232 -140 59 -31 113 -62 120 -69 7 -8 23 -17 36 -21 12 -3 51 -28 87
-54 36 -26 72 -51 81 -56 9 -5 44 -33 77 -62 33 -29 80 -67 104 -84 24 -18 50
-41 59 -52 9 -12 37 -42 63 -68 25 -26 46 -51 46 -55 0 -5 21 -30 45 -58 74
-82 80 -88 122 -140 22 -27 68 -91 102 -142 33 -50 65 -94 71 -98 11 -7 80
-109 80 -118 0 -6 36 -57 78 -112 4 -5 28 -43 52 -83 25 -40 50 -70 57 -68 6
3 13 -4 15 -16 3 -20 3 -20 31 2 l27 21 0 -29 c0 -35 30 -65 62 -60 18 2 26
13 36 48 30 106 65 216 72 225 8 11 53 90 84 150 23 43 149 172 215 220 23 17
47 35 54 40 6 6 23 16 37 23 14 6 32 16 40 21 8 5 34 14 58 20 38 11 42 15 42
44 0 41 -4 47 -65 92 -27 21 -51 42 -53 47 -2 4 -8 8 -14 8 -6 0 -26 11 -44
25 -18 14 -35 25 -39 25 -10 0 -128 77 -175 114 -83 67 -185 150 -196 161 -6
5 -43 35 -82 65 -39 30 -77 66 -84 80 -7 14 -48 60 -90 102 -43 43 -78 80 -78
83 0 3 -18 28 -40 56 -22 28 -40 55 -40 60 0 5 -27 50 -60 100 -33 50 -60 93
-60 96 0 3 -22 36 -50 73 -27 37 -50 71 -50 75 0 12 -61 106 -85 133 -12 12
-33 46 -49 75 -15 29 -51 86 -81 127 -30 41 -67 100 -83 130 -17 30 -48 80
-70 110 -23 30 -58 78 -79 107 -21 29 -42 52 -48 53 -5 0 -21 16 -34 35 -13
19 -43 53 -67 75 -24 22 -44 45 -44 50 0 6 -4 10 -8 10 -5 0 -44 33 -88 74
-44 41 -105 92 -135 112 -29 20 -70 52 -90 70 -20 17 -47 35 -59 39 -25 8
-142 74 -150 85 -3 4 -30 20 -60 36 -30 16 -58 34 -62 39 -4 6 -8 7 -8 2 0 -9
-51 16 -72 35 -18 17 -43 32 -98 60 -25 13 -47 25 -50 28 -3 3 -26 16 -53 29
-26 13 -64 45 -85 70 -74 91 -86 99 -156 100 -44 0 -74 -5 -101 -19z m90 -110
c-3 -5 -15 -10 -26 -10 -10 0 -19 5 -19 10 0 6 12 10 26 10 14 0 23 -4 19 -10z
m65 -12 c0 -6 -6 -5 -15 2 -8 7 -15 14 -15 16 0 2 7 1 15 -2 8 -4 15 -11 15
-16z m180 -149 c0 -5 9 -9 20 -9 24 0 58 -20 114 -67 21 -18 42 -30 46 -28 4
3 15 -4 25 -15 10 -11 23 -20 28 -20 5 0 45 -17 88 -37 78 -38 101 -60 54 -51
-14 3 -33 -1 -42 -8 -10 -7 -29 -14 -43 -14 -14 0 -31 -9 -38 -21 -7 -12 -16
-19 -18 -16 -3 2 -17 -7 -33 -22 -15 -14 -51 -46 -81 -71 -80 -67 -124 -112
-145 -148 -11 -17 -23 -32 -27 -32 -4 0 -8 -4 -8 -10 0 -5 -18 -35 -40 -66
-22 -32 -40 -61 -40 -66 0 -6 -15 -40 -34 -77 -33 -67 -63 -168 -68 -229 -1
-19 -6 -35 -9 -38 -13 -8 -93 119 -141 221 -57 123 -87 211 -86 252 1 18 -7
43 -16 57 -15 24 -15 29 -1 56 24 47 425 460 446 460 5 0 9 4 9 9 0 5 9 7 20
4 11 -3 20 -9 20 -14z m-310 -103 c0 -3 -4 -8 -10 -11 -5 -3 -10 -1 -10 4 0 6
5 11 10 11 6 0 10 -2 10 -4z m-410 -175 c0 -11 -4 -9 -14 4 -8 11 -12 24 -9
28 7 11 23 -12 23 -32z m1124 -213 c-4 -6 -13 0 -20 13 -20 36 -16 47 6 20 11
-12 17 -28 14 -33z m405 -17 c9 -16 8 -18 -9 -14 -11 3 -20 12 -20 19 0 20 18
17 29 -5z m181 -185 c25 -28 57 -64 72 -79 16 -16 28 -32 28 -36 0 -4 9 -16
20 -26 11 -10 20 -22 20 -27 0 -5 15 -28 34 -51 35 -44 136 -202 136 -213 0
-4 15 -25 34 -48 18 -23 36 -51 40 -64 4 -13 30 -52 56 -87 27 -36 76 -111
110 -169 33 -57 67 -110 75 -116 8 -7 15 -17 15 -22 0 -5 21 -39 46 -74 25
-36 48 -74 52 -84 10 -25 94 -129 203 -249 27 -29 62 -71 77 -92 15 -21 41
-45 57 -54 17 -8 41 -27 55 -41 14 -15 37 -35 52 -44 44 -27 109 -90 103 -100
-3 -6 0 -7 8 -5 7 3 22 -3 32 -15 10 -11 24 -20 31 -20 7 0 18 -9 24 -20 6
-11 23 -26 38 -34 15 -8 42 -28 60 -45 18 -17 38 -31 44 -31 5 0 30 -13 55
-30 24 -16 48 -30 52 -30 5 0 14 -7 21 -15 10 -13 9 -15 -9 -15 -13 0 -29 -6
-36 -12 -29 -27 -89 -73 -94 -73 -3 0 -25 -18 -47 -40 -23 -22 -62 -59 -87
-83 -26 -23 -59 -63 -74 -88 -59 -96 -71 -119 -67 -125 2 -4 -5 -14 -16 -24
-11 -10 -27 -41 -35 -68 -8 -28 -24 -65 -35 -84 -11 -19 -23 -52 -26 -73 l-6
-39 -18 32 c-28 53 -88 148 -106 168 -9 10 -13 22 -10 28 3 5 2 20 -3 33 -5
13 -12 53 -16 88 -3 36 -13 81 -22 100 -9 19 -20 51 -24 70 -6 30 -68 217 -86
260 -3 8 -5 18 -5 23 1 4 -2 7 -7 7 -5 0 -11 10 -14 23 -13 51 -48 142 -62
157 -8 9 -15 21 -15 26 0 23 -103 192 -155 257 -8 9 -15 22 -15 27 0 6 -4 10
-10 10 -5 0 -10 6 -10 14 0 20 -72 110 -145 181 -117 114 -207 183 -294 224
-31 14 -63 31 -71 36 -8 5 -21 10 -28 11 -8 2 -21 9 -30 17 -24 21 -96 44
-165 52 -127 16 -367 5 -367 -17 0 -6 -11 -8 -25 -6 -14 3 -25 2 -25 -2 0 -4
-20 -11 -45 -14 -25 -4 -51 -13 -58 -20 -11 -11 -17 -10 -37 6 -58 47 -124
111 -107 105 24 -9 47 2 47 23 0 11 5 22 10 25 8 5 8 11 0 19 -12 15 -14 50
-5 91 21 99 58 211 86 262 17 32 37 67 43 78 27 49 55 84 114 144 34 36 62 68
62 72 0 5 17 16 38 25 20 10 44 23 53 31 9 7 36 15 60 18 24 3 69 7 99 11 30
3 56 7 58 8 1 2 35 1 75 -2 l72 -4 45 -52z m-833 -48 c-3 -8 -6 -5 -6 6 -1 11
2 17 5 13 3 -3 4 -12 1 -19z m-298 -430 l33 -53 -37 35 c-45 43 -61 70 -42 70
8 0 29 -24 46 -52z m226 -196 c9 -35 0 -38 -34 -11 -38 30 -38 34 -2 35 24 1
31 -4 36 -24z m882 -287 c195 -95 203 -99 219 -122 8 -13 19 -23 24 -23 17 0
115 -91 158 -148 13 -17 36 -44 51 -61 70 -79 241 -352 241 -386 0 -7 18 -49
40 -93 22 -44 40 -84 40 -90 0 -6 9 -32 21 -59 11 -26 27 -72 35 -100 54 -201
53 -192 15 -161 -16 13 -28 25 -28 28 1 15 -17 40 -30 40 -8 0 -11 5 -7 12 4
6 1 16 -7 22 -8 6 -27 30 -42 54 -32 49 -56 78 -109 135 -21 22 -38 43 -38 47
0 4 -19 27 -42 52 -24 25 -70 75 -103 112 -33 37 -80 81 -105 98 -25 17 -58
44 -75 60 -63 60 -110 98 -122 98 -7 0 -13 5 -13 10 0 6 -7 10 -15 10 -8 0
-15 3 -15 8 0 4 -25 23 -55 41 -30 19 -55 39 -55 43 0 4 -7 8 -15 8 -9 0 -53
22 -98 49 -45 28 -91 53 -102 57 -18 6 -122 71 -135 84 -3 3 -25 18 -50 34
-25 16 -60 45 -77 63 -18 19 -33 32 -33 28 0 -3 -21 11 -46 31 l-46 38 44 13
c23 7 68 16 98 19 30 3 56 7 58 9 2 2 70 2 152 1 l149 -3 118 -58z"/>
<path d="M3940 1843 c-19 -8 -44 -33 -33 -33 4 -1 -7 -7 -24 -15 -18 -8 -43
-23 -55 -34 -12 -12 -25 -21 -29 -21 -7 0 -159 -149 -159 -156 0 -5 -67 -90
-133 -168 -76 -91 -133 -307 -93 -352 58 -66 77 -84 86 -79 5 3 23 -1 39 -10
43 -22 49 -19 69 23 9 20 19 39 22 42 3 3 6 23 7 45 1 22 6 49 12 60 5 11 19
41 31 68 24 51 102 137 126 137 8 0 14 5 14 10 0 12 65 72 124 115 23 16 43
33 44 37 2 5 12 8 22 8 20 0 52 -40 88 -110 19 -38 21 -48 11 -67 -7 -13 -17
-23 -22 -23 -6 0 -25 -16 -44 -35 -19 -19 -36 -35 -38 -35 -2 0 -23 -21 -47
-47 -24 -25 -58 -61 -75 -79 -18 -18 -33 -35 -33 -39 0 -3 -9 -19 -21 -34 -20
-27 -24 -28 -84 -23 -63 5 -64 4 -71 -22 -11 -45 9 -73 57 -81 27 -5 50 -16
62 -31 10 -13 29 -24 41 -24 14 0 56 -31 116 -87 154 -145 255 -246 253 -255
-2 -4 2 -8 7 -8 11 0 64 -44 89 -74 9 -10 27 -28 41 -40 13 -12 44 -40 69 -63
25 -24 51 -43 58 -43 8 0 16 -7 19 -15 4 -8 12 -15 20 -15 8 0 14 -4 14 -9 0
-6 -158 -9 -382 -9 -211 0 -567 -3 -793 -7 -481 -8 -401 -7 -845 -7 -1145 2
-2050 -4 -2061 -15 -5 -5 -9 -28 -7 -49 2 -30 8 -40 23 -42 11 -2 28 -11 38
-20 14 -12 37 -15 110 -13 169 5 3732 16 4107 12 120 -1 130 0 130 12 0 5 9
22 20 38 16 21 20 39 16 69 -4 40 -66 182 -90 205 -6 7 -29 39 -51 73 -22 34
-66 98 -97 143 -32 45 -58 88 -58 96 0 7 -5 13 -12 13 -6 0 -8 3 -5 7 4 3 3
11 -2 17 -9 10 -46 79 -110 200 -48 90 -54 101 -63 107 -4 3 -23 41 -42 85
-106 249 -106 247 -130 238 -6 -2 -23 22 -38 54 -15 33 -38 76 -52 97 -14 21
-26 45 -26 54 0 9 -11 38 -25 66 -13 27 -34 71 -45 98 -12 26 -28 47 -36 47
-8 0 -14 5 -14 10 0 11 -16 12 -40 3z m24 -179 c6 -22 -1 -33 -41 -70 -26 -24
-50 -44 -55 -44 -4 0 -13 -9 -20 -20 -7 -11 -17 -20 -23 -20 -6 0 -19 -11 -29
-25 -10 -14 -23 -25 -28 -25 -12 0 -142 -129 -151 -150 -4 -8 -16 -28 -27 -45
-23 -35 -23 -34 -44 -108 -18 -61 -39 -72 -44 -23 -6 51 67 203 127 263 22 23
41 47 41 53 0 10 78 90 89 90 3 0 19 18 34 40 16 22 34 40 42 40 7 0 15 3 17
8 7 17 71 62 88 62 11 0 20 -10 24 -26z m195 -497 c12 -24 33 -56 47 -70 13
-14 24 -31 24 -37 0 -5 4 -10 8 -10 10 0 92 -123 92 -138 0 -7 4 -12 9 -12 5
0 19 -15 30 -32 11 -18 31 -44 43 -58 13 -14 39 -52 57 -85 19 -33 45 -75 58
-92 13 -18 24 -35 24 -38 0 -2 11 -17 24 -31 14 -15 25 -32 25 -37 0 -6 6 -18
14 -26 8 -9 26 -39 41 -68 14 -28 33 -57 41 -64 19 -15 18 -30 -1 -23 -8 4
-15 11 -15 18 0 6 -19 23 -43 39 -84 54 -98 72 -91 116 5 34 3 41 -16 51 -18
9 -24 9 -30 0 -12 -20 -29 -2 -28 29 1 40 -9 51 -40 45 -20 -4 -34 1 -54 19
-23 21 -26 30 -21 65 5 37 3 41 -18 44 -13 2 -36 1 -52 -3 -21 -6 -29 -3 -37
12 -7 13 -7 19 0 19 5 0 10 6 10 14 0 8 8 24 19 37 15 18 16 28 8 46 -17 38
-77 27 -94 -18 -14 -36 -27 -37 -58 -3 -23 25 -24 27 -7 50 9 13 25 26 34 29
22 8 34 52 21 74 -6 9 -22 17 -37 19 -21 3 -35 -5 -59 -32 -25 -28 -35 -34
-47 -26 -12 8 -12 12 -2 18 7 5 15 25 19 45 5 33 3 38 -23 47 l-28 11 59 54
c32 30 61 53 65 50 3 -2 16 -24 29 -48z"/>
</g>
</svg>
