<?xml version="1.0" standalone="no"?>
<!DOCTYPE svg PUBLIC "-//W3C//DTD SVG 20010904//EN"
 "http://www.w3.org/TR/2001/REC-SVG-20010904/DTD/svg10.dtd">
<svg version="1.0" xmlns="http://www.w3.org/2000/svg"
 width="447.000000pt" height="473.000000pt" viewBox="0 0 447.000000 473.000000"
 preserveAspectRatio="xMidYMid meet">
<metadata>
Created by potrace 1.16, written by Peter Selinger 2001-2019
</metadata>
<g transform="translate(0.000000,473.000000) scale(0.100000,-0.100000)"
fill="#000000" stroke="none">
<path d="M3980 4551 c0 -10 -8 -29 -19 -42 -10 -13 -21 -34 -25 -46 -4 -13
-12 -23 -17 -23 -5 0 -9 -7 -9 -15 0 -8 -4 -15 -10 -15 -5 0 -17 -17 -27 -37
-20 -44 -151 -178 -182 -188 -12 -3 -21 -10 -21 -15 0 -4 -21 -21 -47 -36 -27
-15 -67 -43 -91 -62 -23 -19 -57 -43 -75 -53 -82 -48 -143 -76 -154 -72 -7 3
-13 0 -13 -6 0 -6 -5 -11 -10 -11 -6 0 -23 -8 -38 -19 -15 -10 -65 -42 -112
-72 -125 -80 -236 -204 -272 -307 -15 -44 -19 -48 -60 -55 -23 -5 -48 -13 -55
-19 -22 -17 -53 -127 -43 -152 8 -21 -7 -38 -144 -170 -84 -81 -166 -157 -182
-169 -16 -12 -58 -53 -94 -92 -71 -78 -111 -104 -150 -98 -14 2 -49 -3 -77
-12 -62 -20 -99 -59 -108 -113 -4 -20 -11 -50 -18 -67 -12 -34 -67 -96 -79
-89 -4 3 -8 -2 -8 -10 0 -19 -16 -40 -94 -123 -32 -34 -67 -65 -76 -68 -10 -3
-20 -14 -23 -24 -4 -18 -153 -151 -169 -151 -4 0 -8 -6 -8 -12 0 -16 -223
-248 -239 -248 -6 0 -10 -3 -9 -7 5 -17 -54 -100 -185 -258 -18 -22 -44 -56
-57 -75 -13 -19 -41 -54 -62 -77 -21 -24 -38 -48 -38 -55 0 -7 -18 -33 -40
-58 -55 -61 -60 -68 -60 -76 0 -4 -16 -31 -35 -60 -19 -29 -35 -57 -35 -62 0
-5 -9 -17 -20 -27 -11 -10 -20 -24 -20 -32 0 -7 -7 -16 -15 -19 -8 -4 -15 -15
-15 -25 0 -10 -4 -19 -9 -19 -5 0 -12 -11 -15 -25 -3 -13 -17 -41 -31 -61 -23
-34 -30 -59 -26 -91 1 -7 -2 -13 -7 -13 -4 0 -16 -19 -26 -42 -24 -55 -83
-179 -96 -198 -5 -8 -25 -51 -45 -94 -22 -50 -49 -92 -72 -112 -34 -30 -36
-35 -25 -58 13 -28 3 -67 -24 -98 -17 -18 -24 -48 -15 -63 6 -11 12 -32 13
-53 1 -7 16 -29 33 -49 30 -34 35 -37 88 -36 31 0 63 5 69 11 7 5 33 16 58 23
51 15 123 60 160 100 14 15 40 34 58 44 18 9 65 47 105 85 39 39 79 72 88 75
9 3 22 17 29 30 7 14 16 25 20 25 3 0 15 8 26 18 10 10 34 24 52 31 17 7 32
17 32 21 0 14 83 101 110 115 16 8 65 51 110 95 46 47 85 78 92 74 6 -4 8 -3
4 4 -8 13 130 161 163 173 14 6 21 15 18 23 -4 9 26 49 71 98 42 47 97 111
121 144 44 57 58 75 101 122 11 12 20 24 20 27 0 3 16 19 35 36 19 17 35 35
35 40 0 15 130 209 141 209 5 0 9 6 9 13 0 7 13 31 30 53 16 21 30 44 30 50 0
6 18 34 40 62 22 27 40 54 40 59 0 5 16 28 35 50 19 23 35 48 35 57 0 8 7 19
16 24 9 5 15 12 15 15 -4 31 3 51 30 81 17 20 28 40 24 45 -3 6 13 20 37 31
57 27 70 38 95 82 15 26 20 47 17 70 -6 36 -9 32 337 370 58 57 124 128 146
158 66 90 109 130 141 130 44 0 92 51 92 99 0 21 83 110 138 148 19 13 65 39
104 58 39 19 85 45 102 59 112 90 161 131 164 138 2 4 8 8 14 8 11 0 33 21 39
37 2 6 22 31 45 55 22 24 47 55 54 68 7 14 26 41 41 60 33 42 66 105 73 140 3
14 11 43 17 65 18 60 21 221 8 327 -7 51 -13 135 -14 187 -1 72 -5 96 -16 101
-7 4 -24 12 -36 19 -20 10 -23 9 -23 -8z m9 -575 c-9 -8 -10 -5 -5 14 3 14 7
36 8 50 1 14 3 8 5 -14 3 -22 -1 -43 -8 -50z m-229 44 c-12 -16 -23 -30 -25
-30 -9 0 10 36 24 47 24 19 24 16 1 -17z m95 -22 c-16 -57 -42 -96 -104 -158
-46 -46 -72 -82 -86 -118 -11 -29 -22 -52 -25 -52 -3 0 -10 -12 -17 -27 -7
-16 -22 -50 -34 -78 -13 -32 -21 -68 -20 -101 1 -51 1 -51 -43 -75 -25 -13
-48 -20 -52 -17 -4 4 5 32 20 63 14 30 38 83 52 118 14 34 36 76 48 92 13 17
38 59 56 95 19 36 62 100 97 143 34 43 71 92 80 108 20 34 37 38 28 7z m-286
-100 c-13 -18 -33 -46 -46 -61 -12 -15 -32 -49 -43 -74 -11 -26 -31 -61 -44
-78 -23 -30 -96 -166 -96 -179 0 -3 -11 -29 -25 -58 -14 -28 -25 -56 -25 -61
0 -9 -13 -41 -39 -97 l-11 -25 4 25 c4 27 38 122 46 130 3 3 6 16 8 30 3 25
118 271 132 280 11 8 80 112 80 121 0 8 70 78 78 79 2 0 -7 -15 -19 -32z m407
-7 c-3 -4 -10 -21 -16 -36 -6 -15 -13 -26 -15 -23 -8 8 16 68 27 68 5 0 7 -4
4 -9z m-680 -74 c-14 -18 -37 -42 -53 -53 -28 -21 -116 -183 -129 -239 -1 -5
-14 -40 -28 -77 -14 -38 -29 -93 -32 -123 -4 -30 -11 -52 -16 -49 -5 3 -8 13
-6 22 1 10 0 22 -4 27 -3 6 -3 53 1 105 8 94 12 106 75 226 9 17 27 43 41 58
14 15 25 30 25 34 1 11 126 100 143 101 4 1 -3 -14 -17 -32z m570 -22 c-4 -25
-11 -45 -15 -45 -5 0 -16 -20 -25 -44 -9 -25 -24 -50 -32 -56 -7 -7 -14 -21
-14 -31 0 -18 -77 -100 -112 -120 -14 -7 -18 -6 -18 6 0 17 40 117 50 125 3 3
16 28 29 55 21 45 129 170 139 160 3 -2 1 -25 -2 -50z m-466 15 c0 -5 -5 -10
-11 -10 -5 0 -7 5 -4 10 3 6 8 10 11 10 2 0 4 -4 4 -10z m184 -34 c-9 -15 -19
-25 -21 -22 -3 2 3 16 13 30 9 15 19 25 21 22 3 -2 -3 -16 -13 -30z m-212 1
c-11 -13 -108 -205 -135 -267 -28 -64 -59 -155 -69 -202 -9 -40 -13 -45 -24
-33 -8 7 -14 26 -14 40 0 65 122 360 160 388 9 7 29 29 44 50 16 20 33 37 38
37 7 0 7 -5 0 -13z m180 -59 c-7 -7 -12 -8 -12 -2 0 6 3 14 7 17 3 4 9 5 12 2
2 -3 -1 -11 -7 -17z m-47 -81 c-19 -35 -35 -69 -35 -75 0 -9 -54 -133 -81
-184 -5 -10 -9 -29 -9 -43 0 -14 -2 -25 -4 -25 -2 0 -11 -3 -20 -6 -21 -8 -15
17 23 99 17 36 31 69 31 71 0 15 45 106 52 106 4 0 8 5 8 12 0 11 59 108 66
108 2 0 -12 -28 -31 -63z m-545 -108 c-6 -18 -10 -64 -10 -101 0 -39 -4 -68
-10 -68 -5 0 -10 6 -10 14 0 8 -7 21 -15 30 -13 13 -13 16 0 30 8 8 15 26 15
41 0 28 27 101 35 93 3 -2 0 -20 -5 -39z m-115 -169 c11 -18 35 -47 53 -64 82
-75 160 -155 156 -159 -3 -2 23 -10 56 -18 98 -21 108 -39 26 -45 -36 -3 -48
1 -69 24 -14 15 -32 32 -39 37 -16 12 -62 49 -113 90 -20 17 -60 51 -88 78
-47 44 -49 49 -38 73 14 32 30 27 56 -16z m13 -190 c42 -33 103 -83 134 -111
l58 -51 -20 -28 c-11 -15 -33 -42 -50 -60 -16 -18 -30 -36 -30 -40 0 -8 -70
-78 -359 -364 -72 -71 -131 -132 -131 -136 0 -4 -11 -12 -25 -18 -24 -11 -36
-10 -80 8 -11 4 -39 13 -62 20 -24 7 -43 17 -43 22 0 4 -6 8 -12 8 -7 0 -36
22 -64 49 -69 65 -76 102 -34 165 17 25 34 46 38 46 4 0 24 16 44 35 20 19 41
35 47 35 6 0 11 4 11 9 0 11 67 81 77 81 5 0 17 14 28 30 11 16 23 30 27 30 4
0 18 10 31 23 13 12 61 56 106 97 46 41 115 105 154 143 39 37 73 67 74 67 2
0 38 -27 81 -60z m300 48 c-3 -7 -13 -15 -24 -17 -16 -3 -17 -1 -5 13 16 19
34 21 29 4z m-1094 -549 c-15 -16 -19 -38 -20 -105 -1 -46 2 -84 7 -84 5 0 9
-6 9 -13 0 -8 11 -19 24 -25 13 -6 27 -20 31 -31 3 -12 10 -21 14 -21 14 0 51
-37 44 -44 -3 -3 3 -6 15 -6 12 0 22 -3 22 -8 0 -12 120 -51 185 -59 32 -5 36
-7 20 -14 -55 -21 -168 2 -182 38 -3 7 -13 13 -22 13 -10 0 -54 32 -98 71 -68
59 -84 79 -98 122 -17 51 -14 109 7 135 6 6 7 12 3 12 -4 0 -2 7 5 15 7 8 16
12 21 9 5 -3 9 0 9 5 0 6 5 11 12 11 6 0 3 -9 -8 -21z m-185 -310 c-20 -12
-22 -4 -7 20 11 18 14 19 16 5 2 -9 -2 -20 -9 -25z m171 -58 c0 -6 -4 -13 -10
-16 -5 -3 -7 -18 -4 -34 5 -24 2 -29 -20 -33 -33 -7 -36 -3 -36 43 0 31 3 36
19 32 10 -3 22 0 25 6 9 13 26 14 26 2z m-152 -63 c-2 -35 -7 -44 -25 -46 -30
-4 -44 53 -16 73 33 26 44 18 41 -27z m-136 -10 c0 -13 2 -30 2 -38 2 -19 -13
-30 -41 -30 -28 0 -31 31 -5 65 22 31 42 32 44 3z m537 -73 c-1 -6 -7 -21 -13
-34 l-11 -24 -6 24 c-13 47 -11 59 12 51 11 -5 20 -12 18 -17z m-125 -82 c-31
-22 -37 -15 -30 33 9 67 18 74 34 24 14 -40 13 -44 -4 -57z m-112 3 c-3 -38
-8 -45 -29 -51 -14 -3 -28 -4 -30 -1 -3 3 -6 29 -7 58 -1 51 0 53 29 58 36 7
41 -3 37 -64z m-148 -26 c1 -49 -2 -56 -26 -69 -15 -9 -30 -13 -33 -10 -10 10
-15 72 -9 107 6 30 9 33 36 30 30 -3 31 -5 32 -58z m-147 -42 c2 -38 0 -69 -4
-69 -4 -1 -18 -3 -30 -4 -12 -1 -28 -5 -37 -8 -18 -7 -19 0 -10 92 l7 62 35
-3 36 -3 3 -67z m-199 40 c9 -9 12 -9 12 0 0 7 7 12 15 12 13 0 15 -12 11 -71
-2 -39 -6 -72 -8 -73 -1 -2 -22 -6 -45 -10 -47 -7 -54 4 -32 45 15 29 19 58 8
64 -5 4 -5 14 1 26 12 22 21 24 38 7z m632 -78 c13 -8 12 -12 -5 -27 -11 -10
-16 -14 -12 -9 4 5 0 18 -10 28 -13 14 -13 18 -2 18 8 0 21 -5 29 -10z m-120
-59 c0 -34 -4 -42 -30 -55 -16 -8 -30 -14 -31 -13 0 1 -3 23 -6 49 -4 43 -3
47 19 51 47 9 48 8 48 -32z m-653 -3 c-2 -12 -13 -25 -25 -29 -27 -10 -27 -5
-4 26 21 30 33 32 29 3z m508 -60 c0 -54 -3 -62 -20 -64 -11 -2 -29 -4 -40 -6
-17 -3 -20 3 -23 42 -3 52 6 69 38 75 12 2 25 7 28 10 14 13 18 0 17 -57z
m-160 -43 l0 -55 -35 -6 c-19 -3 -42 -7 -52 -8 -14 -3 -16 5 -14 53 2 53 4 56
32 62 68 15 69 14 69 -46z m-180 -35 c0 -64 1 -64 -60 -72 -21 -3 -31 25 -34
89 -1 33 8 38 69 42 24 1 25 -1 25 -59z m-167 -45 c-3 -44 -6 -49 -32 -56 -37
-10 -39 -8 -38 33 0 80 0 79 27 72 17 -4 25 -2 25 7 0 9 3 10 11 2 5 -5 9 -32
7 -58z m-148 -14 c0 -66 -1 -69 -26 -74 -33 -6 -64 2 -64 17 0 6 10 22 23 36
13 14 32 40 42 58 11 17 21 32 22 32 2 0 3 -31 3 -69z m800 52 c0 -5 -5 -15
-10 -23 -9 -13 -11 -13 -20 0 -8 13 -1 21 28 29 1 1 2 -2 2 -6z m-113 -59 c6
-17 -29 -60 -58 -67 -10 -3 -19 -4 -19 -3 0 0 -4 16 -9 33 -9 31 -8 33 22 42
47 13 57 13 64 -5z m-163 -76 c5 -24 3 -28 -14 -28 -11 0 -38 -7 -60 -16 -23
-9 -43 -14 -45 -12 -3 3 -7 23 -9 45 l-4 41 57 9 c60 9 64 7 75 -39z m-206
-41 c1 -42 1 -43 -43 -58 -24 -9 -47 -14 -50 -11 -10 10 -5 81 7 88 9 6 48 17
78 23 3 1 6 -18 8 -42z m-168 -46 c0 -51 -3 -54 -64 -67 -17 -4 -18 0 -12 48
8 56 17 68 54 68 20 0 22 -5 22 -49z m-152 -33 c-3 -49 -5 -53 -33 -59 -16 -4
-39 -10 -50 -14 -19 -6 -20 -2 -17 37 6 86 8 88 58 88 l45 0 -3 -52z m656 37
c-4 -8 -10 -15 -15 -15 -5 0 -9 7 -9 15 0 8 7 15 15 15 9 0 12 -6 9 -15z
m-837 -22 c-11 -20 -12 -34 -5 -55 7 -20 7 -33 -2 -43 -15 -18 -37 -20 -37 -2
0 6 -3 22 -7 34 -5 16 1 30 25 57 37 43 45 45 26 9z m739 -49 c13 -52 5 -63
-42 -58 -20 2 -37 -2 -44 -11 -28 -33 -60 0 -60 60 0 21 8 27 63 43 34 10 64
17 67 15 2 -2 9 -24 16 -49z m-224 -59 c1 -25 2 -53 2 -62 1 -12 -12 -22 -38
-31 -21 -7 -41 -11 -43 -8 -2 2 -6 27 -8 55 -2 28 -6 55 -10 60 -3 6 9 15 27
20 63 18 68 15 70 -34z m-172 -47 c-1 -24 0 -52 2 -62 2 -15 -7 -23 -35 -34
-20 -8 -40 -12 -43 -9 -4 3 -8 33 -11 66 l-5 60 33 10 c57 16 60 15 59 -31z
m-165 -60 c0 -55 -3 -72 -15 -74 -8 -1 -35 -6 -59 -10 l-43 -7 5 64 c3 35 6
67 6 72 1 4 13 7 29 8 15 0 36 4 47 9 11 5 22 9 25 9 3 1 5 -31 5 -71z m-182
-41 c-3 -34 -6 -63 -6 -63 -1 -1 -17 -5 -34 -9 -33 -7 -33 -6 -33 33 0 69 10
101 34 104 39 7 43 0 39 -65z m-139 -24 c1 -61 0 -63 -28 -69 -37 -8 -47 9
-39 61 6 45 29 77 51 73 11 -2 15 -19 16 -65z m713 -13 c13 0 13 -3 3 -15 -15
-18 -40 -20 -40 -2 0 8 -14 11 -40 11 -52 -2 -61 13 -13 21 21 4 43 8 48 9 6
2 14 -3 18 -10 4 -8 15 -14 24 -14z m-197 -53 c0 -35 -10 -44 -72 -67 -25 -8
-28 -7 -29 13 -1 12 -2 29 -3 37 0 9 16 21 44 32 61 22 60 23 60 -15z m-196
-23 c10 -4 16 -18 16 -38 0 -34 -11 -43 -72 -65 -25 -9 -27 -8 -33 22 -4 18
-9 39 -11 48 -3 12 6 19 38 26 24 6 44 11 45 12 1 0 8 -2 17 -5z m316 -28 c0
-3 -4 -8 -10 -11 -5 -3 -10 -1 -10 4 0 6 5 11 10 11 6 0 10 -2 10 -4z m-490
-20 c0 -7 3 -27 6 -45 7 -32 4 -34 -63 -55 -22 -7 -23 -5 -23 47 0 58 3 61 51
65 19 2 29 -2 29 -12z m-145 -53 c-9 -61 -10 -63 -46 -63 -28 0 -29 2 -29 43
0 50 13 67 53 67 29 0 29 0 22 -47z m-153 18 c4 -1 6 -25 5 -53 -2 -52 -3 -53
-34 -56 -29 -3 -33 0 -33 20 0 48 20 96 38 93 9 -2 20 -4 24 -4z m675 -39
c-17 -2 -42 -14 -55 -28 -26 -26 -42 -24 -42 5 0 23 98 54 116 37 9 -8 4 -12
-19 -14z m-181 -47 c14 -36 -5 -62 -51 -74 -53 -13 -65 -9 -65 24 0 27 26 45
64 45 14 0 26 5 26 10 0 16 20 12 26 -5z m-189 -65 c-3 -10 0 -21 7 -23 17 -7
-41 -27 -75 -27 -26 0 -30 3 -27 23 2 15 14 26 38 34 51 17 63 16 57 -7z
m-165 -34 c-3 -28 -10 -37 -35 -45 -16 -6 -32 -11 -33 -11 -2 0 -4 18 -4 39 0
42 -2 40 65 50 7 0 9 -13 7 -33z m-142 -30 c0 -36 -12 -46 -57 -46 -22 0 -24
4 -21 33 3 32 19 44 61 46 13 1 17 -7 17 -33z m-146 -20 c-3 -14 -11 -29 -17
-33 -7 -4 -8 0 -4 11 4 10 7 29 7 44 0 18 3 23 11 15 5 -5 7 -22 3 -37z m678
2 c-26 -24 -51 -49 -55 -55 -4 -7 -19 -13 -33 -13 -14 0 -23 4 -20 9 3 5 -1
11 -9 15 -27 10 -4 34 38 40 24 4 56 15 72 26 52 33 56 21 7 -22z m-207 -78
c-4 -12 -2 -20 5 -20 20 0 1 -18 -46 -44 l-45 -25 -9 25 c-14 35 -12 81 2 90
7 4 28 11 48 14 39 7 55 -8 45 -40z m-177 -52 c-2 -39 -7 -54 -19 -56 -12 -2
-19 9 -28 42 -16 63 -15 66 20 66 l30 0 -3 -52z m-130 -1 c23 -76 24 -74 -25
-82 -25 -4 -52 -9 -59 -12 -11 -4 -14 8 -14 55 0 55 2 61 23 64 63 9 65 8 75
-25z m-174 -109 c-3 -5 -11 -8 -18 -8 -10 0 -11 11 -5 48 4 26 9 54 10 62 1 8
5 -10 9 -40 5 -30 6 -58 4 -62z m-97 10 c-3 -8 -6 -5 -6 6 -1 11 2 17 5 13 3
-3 4 -12 1 -19z m515 -18 c-22 -20 -22 -20 -22 -1 0 11 8 21 18 23 26 6 28 0
4 -22z m-111 -20 c4 -33 3 -44 -7 -47 -6 -2 -10 10 -10 27 0 27 14 44 17 20z
m-99 -58 c1 -20 5 -29 12 -25 8 4 8 3 0 -6 -6 -7 -31 -13 -55 -14 -24 -1 -47
-6 -50 -10 -4 -5 -9 6 -13 25 -8 43 -8 53 2 54 4 0 14 3 22 7 25 10 64 13 73
6 5 -3 9 -20 9 -37z m-183 -39 c13 -45 6 -53 -48 -63 -45 -8 -46 -7 -35 63 6
34 9 37 40 37 30 0 34 -4 43 -37z m-144 -5 c-3 -18 -7 -41 -9 -51 -2 -17 -22
-36 -38 -37 -3 0 -4 8 -1 18 2 10 -2 24 -10 31 -12 9 -13 17 -3 36 10 21 20
27 59 34 4 0 5 -14 2 -31z m295 -88 c0 -5 -5 -10 -11 -10 -5 0 -7 5 -4 10 3 6
8 10 11 10 2 0 4 -4 4 -10z m-98 -50 c26 -24 18 -35 -26 -32 -19 1 -54 -4 -78
-13 -54 -19 -68 -19 -68 0 0 34 40 52 138 63 7 1 22 -7 34 -18z m-226 -36 c-3
-9 -6 -21 -6 -29 0 -7 -9 -15 -20 -18 -17 -4 -20 0 -20 23 0 27 10 38 39 39 8
1 11 -5 7 -15z m-119 -56 c-3 -8 -6 -5 -6 6 -1 11 2 17 5 13 3 -3 4 -12 1 -19z
m126 -80 c21 -11 21 -11 2 -19 -33 -13 -65 -10 -65 5 0 13 13 23 33 25 5 1 18
-4 30 -11z m-127 -55 c-7 -7 -36 16 -36 27 0 5 8 10 18 12 16 3 31 -27 18 -39z"/>
</g>
</svg>
