<?xml version="1.0" standalone="no"?>
<!DOCTYPE svg PUBLIC "-//W3C//DTD SVG 20010904//EN"
 "http://www.w3.org/TR/2001/REC-SVG-20010904/DTD/svg10.dtd">
<svg version="1.0" xmlns="http://www.w3.org/2000/svg"
 width="547.000000pt" height="453.000000pt" viewBox="0 0 547.000000 453.000000"
 preserveAspectRatio="xMidYMid meet">
<metadata>
Created by potrace 1.16, written by Peter Selinger 2001-2019
</metadata>
<g transform="translate(0.000000,453.000000) scale(0.100000,-0.100000)"
fill="#000000" stroke="none">
<path d="M5253 4271 c-17 -21 13 -19 -468 -27 -82 -2 -490 -5 -905 -8 -415 -3
-987 -8 -1270 -10 -283 -3 -918 -8 -1410 -12 -497 -4 -903 -10 -912 -15 -10
-5 -40 -14 -68 -19 -86 -16 -83 -4 -76 -303 3 -144 8 -424 11 -622 3 -198 8
-430 10 -515 3 -85 7 -252 10 -370 3 -118 7 -280 10 -360 11 -396 18 -1221 11
-1345 -4 -75 11 -132 44 -168 l26 -28 205 1 c112 1 375 4 584 6 423 4 2511 8
3385 6 691 -2 910 3 938 22 12 7 13 63 8 310 -4 165 -8 319 -10 341 -14 140
-26 1008 -15 1048 5 16 3 40 -2 55 -13 32 -13 209 -2 339 6 68 5 96 -4 109 -9
12 -12 98 -12 323 -1 168 -3 369 -6 446 -2 77 -5 247 -5 379 -1 213 1 241 17
258 16 18 16 21 1 51 -9 18 -17 49 -17 70 0 21 -3 42 -6 47 -10 17 -54 11 -72
-9z m-1212 -191 c266 -1 618 2 782 5 l297 7 2 -33 c2 -45 3 -70 16 -364 6
-137 11 -369 11 -515 1 -146 3 -375 6 -510 6 -279 15 -738 20 -1040 1 -113 6
-293 9 -400 10 -351 10 -604 0 -607 -5 -2 -9 12 -9 29 0 31 -2 33 -35 32 -45
-2 -740 -13 -925 -14 -188 -2 -597 -2 -770 0 -77 1 -152 -3 -167 -9 -14 -5
-29 -7 -32 -3 -6 6 -159 6 -1231 -3 -652 -4 -1183 -5 -1270 -1 -33 2 -123 4
-201 4 l-141 2 -2 113 c-2 61 -5 180 -6 262 -2 83 -6 220 -9 305 -6 194 -17
718 -21 995 -2 116 -6 374 -10 575 -4 201 -8 539 -9 752 l-1 388 175 1 c244 2
764 8 1085 14 149 2 643 7 1100 10 456 4 832 8 834 10 2 3 7 2 11 0 4 -3 225
-5 491 -5z m-3194 -3516 c-3 -3 -12 -4 -19 -1 -8 3 -5 6 6 6 11 1 17 -2 13 -5z"/>
<path d="M3925 3381 c-11 -5 -23 -7 -27 -4 -14 8 -183 -20 -204 -34 -23 -15
-37 -66 -21 -82 11 -11 15 -320 5 -421 -5 -43 -4 -81 1 -89 10 -15 50 -17 127
-5 23 3 44 2 47 -3 3 -5 2 -27 -3 -49 -11 -43 -30 -192 -35 -267 -4 -50 -20
-81 -37 -71 -5 3 -16 0 -24 -7 -16 -13 -60 -15 -559 -25 -379 -7 -387 -8 -379
-66 2 -18 8 -34 14 -36 12 -4 14 -102 1 -102 -5 0 -11 -12 -14 -27 -4 -20 0
-34 16 -48 17 -17 31 -20 91 -17 l71 4 -2 -99 c-2 -130 -11 -345 -17 -408 -2
-27 -7 -99 -10 -160 -3 -60 -8 -139 -11 -174 -7 -74 3 -91 51 -91 23 0 34 5
38 18 9 34 17 140 21 312 5 179 9 261 22 385 4 39 7 104 8 145 l0 75 85 2
c199 6 586 9 602 5 14 -3 17 -17 16 -86 -1 -97 6 -175 27 -282 9 -43 18 -110
21 -149 3 -38 9 -83 14 -100 5 -16 9 -66 9 -110 -1 -44 1 -87 4 -95 3 -8 8
-32 11 -54 8 -58 56 -85 90 -50 18 17 20 59 6 119 -5 22 -11 74 -14 115 -2 41
-9 107 -15 145 -5 39 -13 94 -16 124 -3 29 -8 58 -11 63 -24 38 -32 307 -12
378 14 47 14 50 3 170 -4 41 -7 86 -7 100 0 41 12 183 17 210 14 68 33 279 36
390 5 225 7 254 18 305 15 73 13 121 -5 139 -17 18 -20 18 -49 7z m-38 -138
c-4 -21 -9 -116 -13 -210 -7 -166 -8 -173 -28 -174 -12 -1 -33 -3 -48 -4 -23
-3 -26 -1 -21 23 3 15 7 108 8 207 4 198 0 189 72 193 l36 3 -6 -38z m-76
-1026 c0 -7 3 -24 5 -39 3 -16 0 -28 -6 -28 -5 0 -10 4 -10 9 0 5 -17 7 -37 5
-91 -10 -288 -16 -543 -17 l-275 -2 -3 31 c-3 26 1 32 20 36 13 3 198 6 412 7
214 0 391 2 392 4 9 9 44 4 45 -6z"/>
<path d="M2187 3084 c-9 -7 -511 -18 -727 -15 -63 1 -203 1 -310 0 -107 -1
-225 0 -262 1 -69 3 -112 -13 -117 -42 -6 -30 -10 -368 -6 -381 5 -10 23 -13
79 -9 l72 4 0 -254 c0 -139 3 -341 8 -448 11 -307 15 -730 5 -730 -5 0 -7 -21
-5 -46 4 -44 20 -69 38 -58 4 3 8 1 8 -5 0 -6 11 -4 26 4 24 12 30 11 65 -11
46 -28 49 -29 49 -8 0 13 3 14 13 5 10 -8 17 -7 26 2 8 8 70 12 216 14 155 1
208 5 217 15 8 8 14 46 15 93 2 44 8 103 13 130 14 66 31 196 35 265 6 132 48
448 71 543 8 31 17 76 20 100 7 56 11 73 28 137 8 30 17 69 19 85 6 40 26 114
37 134 5 9 11 24 14 34 3 9 15 17 27 17 12 0 42 11 66 25 23 14 43 24 43 21 0
-2 14 9 30 24 17 16 45 32 63 36 32 7 76 31 88 47 4 5 16 6 28 2 13 -4 21 -2
21 5 0 7 7 10 14 7 9 -4 17 1 20 11 7 21 98 69 147 77 27 5 38 13 46 36 16 43
-3 111 -36 125 -13 6 -198 13 -204 8z m61 -112 c13 -5 -15 -22 -104 -65 -28
-14 -55 -30 -58 -36 -4 -6 -17 -11 -28 -11 -22 0 -79 -32 -112 -62 -22 -20
-69 -37 -106 -38 -14 0 -72 -2 -130 -5 -182 -7 -839 -9 -846 -2 -9 9 -10 195
0 204 11 12 835 15 868 4 14 -5 29 -7 32 -4 3 4 60 7 127 9 67 2 123 5 126 7
5 6 215 5 231 -1z m-522 -337 c-16 -41 -38 -146 -42 -195 -3 -30 -9 -68 -13
-85 -5 -16 -14 -64 -21 -105 -6 -41 -18 -93 -25 -115 -13 -37 -34 -179 -40
-265 -17 -244 -25 -317 -50 -470 -8 -47 -18 -107 -21 -135 -3 -27 -8 -53 -11
-57 -2 -5 -77 -6 -166 -3 -240 7 -240 7 -270 6 -16 -1 -26 -5 -22 -10 3 -5 1
-12 -5 -16 -6 -4 -10 9 -11 32 0 21 -2 148 -4 283 -1 135 -6 324 -11 420 -4
96 -7 252 -6 345 0 94 1 218 1 276 l1 107 361 1 c324 1 361 0 355 -14z"/>
</g>
</svg>
