<?xml version="1.0" standalone="no"?>
<!DOCTYPE svg PUBLIC "-//W3C//DTD SVG 20010904//EN"
 "http://www.w3.org/TR/2001/REC-SVG-20010904/DTD/svg10.dtd">
<svg version="1.0" xmlns="http://www.w3.org/2000/svg"
 width="497.000000pt" height="401.000000pt" viewBox="0 0 497.000000 401.000000"
 preserveAspectRatio="xMidYMid meet">
<metadata>
Created by potrace 1.16, written by Peter Selinger 2001-2019
</metadata>
<g transform="translate(0.000000,401.000000) scale(0.100000,-0.100000)"
fill="#000000" stroke="none">
<path d="M3505 3970 c-3 -5 -72 -8 -153 -8 -81 1 -235 -2 -342 -6 -107 -3
-267 -8 -355 -11 -438 -13 -584 -19 -750 -29 -219 -14 -331 -17 -604 -18 -236
0 -292 -3 -302 -14 -6 -8 -22 -14 -35 -14 -28 0 -52 -23 -60 -58 -7 -33 -46
-196 -74 -312 -11 -47 -31 -125 -45 -175 -13 -49 -38 -146 -55 -215 -45 -184
-80 -323 -85 -342 -3 -10 -7 -26 -9 -35 -6 -23 -79 -304 -122 -463 -18 -69
-42 -159 -53 -200 -65 -245 -91 -355 -105 -435 -9 -49 -22 -110 -30 -135 -9
-25 -27 -94 -41 -155 -14 -60 -34 -144 -45 -185 -11 -41 -22 -86 -25 -100 -2
-14 -13 -51 -23 -83 -11 -31 -17 -68 -15 -81 7 -33 76 -63 85 -36 3 10 272 19
282 9 3 -3 -1 -27 -9 -55 -8 -27 -24 -89 -35 -137 l-22 -89 23 -16 c24 -17 68
-21 231 -22 l88 -1 0 -27 c0 -15 -5 -45 -11 -67 -17 -64 -34 -178 -31 -201 4
-30 37 -41 112 -38 36 2 135 6 220 9 85 3 220 8 300 10 80 3 404 7 720 7 316
1 631 6 700 10 69 5 202 11 295 14 94 3 184 8 202 11 18 3 45 1 60 -4 37 -12
73 -5 73 13 0 12 7 14 28 10 25 -6 28 -3 45 47 9 30 17 75 17 101 0 26 4 55 9
64 5 10 17 62 26 117 9 55 23 123 30 150 14 52 64 313 71 375 3 19 9 51 14 70
9 33 65 317 73 370 2 14 6 32 9 40 6 17 45 208 52 255 2 17 11 59 19 95 8 36
15 72 15 80 1 8 10 53 22 100 24 101 40 179 74 355 14 72 28 141 31 155 3 14
8 36 11 50 51 255 58 285 74 299 30 26 33 55 9 85 -19 24 -27 27 -53 21 -17
-4 -88 -8 -157 -9 -91 -1 -131 -5 -143 -15 -25 -21 -31 -6 -18 47 6 26 19 81
28 122 9 41 26 107 37 145 30 105 28 134 -8 156 -25 15 -46 16 -132 12 -75 -4
-103 -3 -103 6 0 15 56 230 70 265 16 43 13 93 -7 102 -10 4 -21 7 -24 6 -4
-1 -21 3 -38 8 -17 5 -33 5 -36 0z m-11 -148 c-3 -15 -10 -45 -16 -66 -5 -22
-13 -60 -18 -85 -7 -43 -39 -174 -75 -316 -8 -33 -17 -69 -20 -80 -3 -11 -14
-54 -25 -95 -11 -41 -21 -86 -23 -100 -3 -14 -12 -46 -20 -72 -9 -26 -26 -92
-37 -147 -11 -55 -25 -113 -31 -128 -6 -15 -16 -57 -23 -93 -8 -36 -30 -130
-50 -210 -21 -80 -50 -201 -67 -270 -16 -69 -36 -154 -45 -190 -9 -36 -18 -74
-20 -85 -2 -11 -11 -45 -19 -75 -58 -208 -83 -305 -110 -419 -9 -41 -26 -104
-37 -140 -10 -36 -26 -91 -35 -121 -9 -30 -22 -71 -29 -90 l-14 -35 -218 -1
c-223 -1 -849 -11 -1282 -20 -313 -6 -972 -5 -979 2 -3 3 3 37 14 77 10 40 19
81 21 92 1 11 3 20 4 20 1 0 3 9 4 20 3 18 25 112 72 305 23 94 33 138 44 198
9 51 23 101 41 150 5 13 9 31 9 41 0 15 29 126 115 446 32 119 64 242 69 265
3 14 10 43 15 65 6 22 15 60 20 85 6 25 20 77 31 115 12 39 33 120 46 180 14
61 29 119 33 130 5 11 19 65 31 120 12 55 29 123 37 150 8 28 26 93 39 145 25
97 53 179 63 192 11 13 66 17 351 22 157 4 384 9 505 13 121 4 366 8 545 9
179 1 393 6 475 11 83 4 255 9 383 10 l232 2 -6 -27z m121 -354 c83 -4 81 4
46 -158 -13 -58 -24 -118 -25 -135 -2 -16 -6 -39 -9 -50 -3 -11 -9 -33 -12
-50 -18 -94 -26 -128 -45 -210 -25 -103 -39 -169 -45 -205 -7 -50 -85 -421
-134 -635 -27 -121 -54 -250 -61 -285 -15 -89 -48 -244 -65 -305 -14 -51 -23
-91 -76 -350 -17 -82 -37 -165 -44 -185 -7 -19 -16 -55 -20 -80 -10 -75 -26
-119 -44 -118 -9 0 -86 -2 -171 -5 -85 -4 -405 -9 -710 -12 -305 -3 -566 -8
-580 -10 -24 -5 -778 -18 -934 -16 -43 0 -81 3 -84 6 -8 8 17 101 42 159 l21
48 235 4 c129 2 604 6 1055 8 451 3 822 6 825 7 3 1 9 1 15 -1 86 -17 111 -6
117 50 2 22 0 40 -4 40 -12 0 -19 38 -10 57 5 10 14 27 19 39 10 18 36 130 33
136 -1 2 3 16 9 31 12 32 52 200 55 233 1 11 5 24 8 30 3 5 9 29 13 54 4 25
11 52 15 60 5 9 15 47 24 85 8 39 26 115 40 170 14 55 30 123 36 150 6 28 18
75 25 105 56 219 74 303 70 310 -3 5 -1 10 4 12 5 1 17 41 26 88 9 47 27 129
41 183 14 53 27 110 29 125 6 40 25 114 35 137 5 11 25 83 44 160 20 77 44
172 55 210 10 39 22 87 26 108 6 36 8 38 23 23 11 -10 42 -16 87 -18z m104
-450 c8 -9 45 -12 127 -10 136 3 135 4 110 -101 -9 -40 -18 -81 -21 -92 -2
-11 -9 -42 -15 -70 -7 -27 -16 -72 -20 -100 -10 -62 -65 -319 -79 -371 -11
-41 -47 -232 -56 -299 -3 -22 -9 -47 -12 -55 -3 -8 -9 -33 -13 -55 -4 -22 -28
-143 -54 -269 -25 -126 -49 -243 -51 -260 -3 -17 -9 -40 -12 -51 -3 -11 -7
-30 -9 -42 -5 -47 -65 -329 -95 -448 -11 -44 -32 -138 -45 -210 -33 -165 -51
-220 -69 -205 -9 7 -15 7 -19 1 -4 -5 -60 -10 -129 -11 -67 -1 -138 -3 -157
-5 -66 -7 -615 -18 -950 -20 -184 -1 -427 -5 -540 -9 -393 -14 -720 -14 -720
-1 0 20 30 178 37 195 3 8 5 19 4 23 -1 5 40 8 91 7 51 0 134 -1 183 -2 50 0
149 -1 220 -2 72 0 150 3 175 7 25 4 208 9 406 11 199 2 366 6 372 10 6 3 13
3 16 -2 5 -8 81 -8 211 2 111 8 458 11 470 4 13 -7 47 -4 63 6 7 4 12 2 12 -6
0 -15 50 40 51 56 2 49 11 99 20 123 7 15 13 42 15 58 2 17 22 118 44 225 23
107 48 224 55 260 6 36 26 133 44 215 17 83 36 173 41 200 6 28 15 66 19 85 5
19 19 89 31 155 12 66 26 136 30 155 17 68 33 155 35 185 2 17 10 57 20 90 20
70 32 124 41 180 3 22 10 56 15 75 5 19 16 67 24 105 7 39 18 88 23 110 6 22
12 56 15 75 7 51 18 90 26 90 4 0 13 -6 20 -12z"/>
<path d="M3057 3723 c-1 0 -87 -4 -192 -8 -104 -3 -208 -8 -231 -10 -22 -3
-108 -7 -190 -10 -82 -2 -165 -7 -184 -10 -19 -2 -143 -7 -275 -10 -645 -14
-740 -17 -746 -23 -9 -11 -40 -144 -35 -149 2 -3 -2 -22 -9 -43 -7 -21 -12
-40 -9 -43 2 -2 -3 -23 -11 -47 -8 -24 -18 -66 -21 -94 -4 -28 -12 -62 -18
-76 -7 -14 -12 -32 -11 -40 1 -8 3 -23 3 -33 2 -16 10 -17 80 -13 42 3 212 8
377 11 165 3 365 7 445 10 221 8 527 15 814 20 142 2 263 8 268 13 5 5 21 60
37 123 37 143 78 266 102 301 23 32 24 44 3 52 -14 5 -14 7 0 22 22 22 20 41
-6 50 -19 6 -186 13 -191 7z m133 -82 c0 -5 -9 -30 -19 -55 -11 -25 -23 -62
-27 -83 -4 -21 -10 -42 -14 -48 -4 -5 -11 -26 -15 -45 -3 -19 -14 -57 -23 -85
-9 -27 -15 -58 -13 -67 3 -22 38 -19 -478 -32 -151 -4 -311 -9 -355 -11 -109
-5 -451 -14 -779 -20 -180 -4 -266 -2 -262 5 3 6 10 40 15 78 4 37 13 83 19
102 9 32 18 67 42 162 11 44 43 58 129 57 30 0 147 2 260 6 113 4 257 8 320
10 167 4 859 26 900 28 107 7 300 5 300 -2z"/>
<path d="M2435 2989 c-33 -4 -121 -7 -195 -7 -341 -1 -806 -15 -817 -24 -15
-12 -16 -33 -3 -57 8 -16 16 -17 57 -11 26 5 172 11 323 15 382 8 1064 19
1127 17 46 -2 55 1 69 23 9 14 13 32 10 41 -5 13 -36 15 -258 12 -139 -2 -280
-6 -313 -9z"/>
<path d="M1169 2927 c-9 -7 -14 -17 -12 -23 2 -7 -11 -22 -29 -35 -18 -12 -40
-30 -49 -38 -8 -9 -29 -27 -45 -41 -37 -31 -47 -56 -34 -81 16 -29 35 -23 79
23 39 42 61 48 43 11 -30 -58 -55 -160 -47 -190 4 -16 13 -23 30 -23 29 0 46
27 51 84 2 22 19 95 39 160 22 70 34 129 31 143 -7 25 -31 30 -57 10z"/>
<path d="M2889 2846 c-5 -5 -1244 -27 -1447 -26 -18 0 -32 -41 -21 -62 8 -16
24 -17 147 -12 75 2 337 7 581 10 244 2 447 7 452 9 4 3 10 1 14 -5 4 -6 12
-7 18 -3 7 4 70 8 141 8 l129 0 8 30 c6 20 4 34 -4 43 -7 7 -15 11 -18 8z"/>
<path d="M2617 2663 c-4 -3 -819 -14 -967 -13 -211 2 -242 1 -257 -12 -7 -6
-13 -7 -14 -2 0 5 -5 -4 -10 -21 -5 -19 -5 -31 2 -36 6 -4 93 -5 193 -4 366 6
567 7 571 3 3 -2 31 -1 64 3 99 11 573 9 588 -3 9 -7 13 -7 13 1 0 8 8 10 19
6 14 -4 25 2 40 23 20 28 20 30 3 45 -15 13 -39 16 -131 14 -62 -1 -113 -3
-114 -4z"/>
<path d="M2673 2480 c-2 -3 -35 -6 -71 -8 -50 -2 -1503 -13 -1593 -12 -21 0
-30 -44 -15 -65 10 -13 29 -15 121 -11 61 3 326 5 590 5 264 0 485 0 490 0 16
2 336 9 497 12 134 2 148 4 153 20 8 24 -3 59 -18 60 -87 3 -150 3 -154 -1z"/>
<path d="M922 2228 c-12 -16 -34 -92 -38 -135 -2 -30 0 -33 26 -33 24 0 31 6
41 35 14 39 29 46 29 15 0 -31 -24 -70 -67 -112 -85 -82 -111 -129 -91 -170 7
-14 23 -16 124 -12 124 5 147 14 136 56 -5 21 -36 41 -47 30 -6 -7 -125 -10
-125 -4 0 4 51 51 65 60 16 11 66 116 67 143 4 62 -2 80 -32 97 -16 9 -30 23
-30 30 0 6 -11 12 -24 12 -13 0 -28 -6 -34 -12z"/>
<path d="M2798 2225 c-2 -2 -349 -7 -771 -9 -792 -6 -814 -7 -799 -45 12 -32
35 -41 92 -35 57 6 1414 9 1483 4 21 -2 42 1 48 7 13 13 21 61 12 66 -15 8
-60 17 -65 12z"/>
<path d="M1237 2052 c-14 -17 4 -68 23 -64 7 2 220 5 473 7 473 4 476 4 477
42 0 6 -6 15 -12 20 -7 4 -224 8 -481 8 -374 0 -471 -3 -480 -13z"/>
<path d="M2376 1922 c-8 -8 -874 -15 -956 -8 -43 4 -69 -16 -63 -48 l5 -23
526 0 c290 1 567 0 615 -2 93 -2 117 6 117 40 0 30 -36 41 -142 42 -55 1 -101
1 -102 -1z"/>
<path d="M709 1776 c-5 -6 -9 -21 -9 -34 0 -17 9 -27 36 -38 24 -10 39 -12 43
-5 8 12 972 21 1461 12 14 0 79 0 145 0 66 0 129 0 140 0 114 -2 141 1 130 19
-3 5 -1 11 5 15 7 4 7 13 -1 26 -10 20 -16 20 -327 14 -349 -8 -605 -8 -1210
-3 -246 2 -407 -1 -413 -6z"/>
<path d="M1806 1623 c-1 -1 -129 -3 -285 -4 -232 -2 -285 -5 -297 -17 -25 -24
4 -57 52 -59 22 -1 44 -2 49 -3 6 -1 15 -1 20 0 6 2 170 4 365 6 195 2 365 6
378 9 17 4 22 12 22 35 0 17 -6 31 -12 32 -17 2 -289 4 -292 1z"/>
<path d="M783 1593 c-16 -16 -37 -53 -47 -82 -15 -48 -16 -56 -2 -69 22 -22
42 -9 65 42 16 38 25 46 46 46 20 0 25 -4 21 -17 -3 -10 -8 -30 -12 -45 -3
-16 -9 -28 -13 -28 -4 0 -15 -13 -24 -30 -14 -22 -15 -34 -8 -49 16 -29 33
-31 59 -7 l24 21 -13 -30 c-20 -49 -44 -64 -91 -59 -23 3 -44 5 -47 6 -46 4
-64 -13 -54 -51 7 -26 34 -35 101 -33 40 1 61 8 86 27 59 45 90 140 63 194 -9
19 -13 46 -10 74 8 68 -12 93 -91 113 -18 4 -31 -2 -53 -23z"/>
<path d="M1366 1462 c-2 -1 -29 -3 -62 -3 -66 -2 -94 -15 -94 -43 0 -34 25
-41 118 -35 48 3 241 5 429 3 l342 -3 7 35 c3 19 4 37 2 40 -5 5 -737 11 -742
6z"/>
<path d="M1740 1349 c-25 -4 -159 -7 -299 -7 -241 0 -255 -1 -274 -20 -32 -33
-6 -62 47 -53 4 1 14 -3 21 -9 7 -6 16 -7 19 -2 7 13 312 17 1036 14 206 -1
378 2 383 7 5 5 7 21 5 37 l-3 29 -435 0 c-239 0 -439 3 -445 6 -5 3 -30 2
-55 -2z"/>
<path d="M2366 1213 c-1 -1 -127 -4 -281 -7 -154 -3 -415 -8 -580 -11 -165 -3
-459 -7 -653 -9 -222 -2 -357 -7 -364 -14 -5 -5 -7 -23 -4 -39 6 -27 8 -28 64
-26 438 12 820 17 1917 27 83 0 156 5 163 9 6 5 12 16 12 25 -1 39 -13 43
-144 45 -70 1 -129 1 -130 0z"/>
</g>
</svg>
