<?xml version="1.0" standalone="no"?>
<!DOCTYPE svg PUBLIC "-//W3C//DTD SVG 20010904//EN"
 "http://www.w3.org/TR/2001/REC-SVG-20010904/DTD/svg10.dtd">
<svg version="1.0" xmlns="http://www.w3.org/2000/svg"
 width="473.000000pt" height="443.000000pt" viewBox="0 0 473.000000 443.000000"
 preserveAspectRatio="xMidYMid meet">
<metadata>
Created by potrace 1.16, written by Peter Selinger 2001-2019
</metadata>
<g transform="translate(0.000000,443.000000) scale(0.100000,-0.100000)"
fill="#000000" stroke="none">
<path d="M3515 4111 c-85 -14 -200 -82 -283 -170 -63 -66 -149 -159 -212 -231
-30 -34 -73 -73 -95 -87 -22 -15 -45 -32 -52 -39 -33 -33 -84 -55 -125 -54
-24 1 -77 -2 -118 -6 -41 -3 -125 -8 -186 -9 -71 -3 -125 -9 -149 -19 -28 -12
-50 -14 -98 -7 -34 5 -73 7 -87 5 -14 -2 -39 -6 -55 -9 -17 -3 -102 -7 -190
-10 -87 -3 -175 -10 -195 -15 -19 -5 -44 -9 -55 -9 -11 0 -87 -6 -170 -12 -82
-7 -319 -13 -525 -13 l-375 -1 -1 -195 c0 -107 4 -217 9 -245 5 -27 11 -203
13 -390 5 -371 6 -391 21 -450 6 -22 14 -150 17 -285 3 -135 10 -263 15 -285
6 -22 12 -103 14 -180 3 -77 10 -165 16 -195 6 -30 11 -122 10 -205 -1 -82 4
-181 10 -220 15 -95 39 -277 40 -295 2 -155 11 -265 24 -275 14 -10 133 -11
177 -1 52 12 201 25 360 31 187 6 321 15 330 20 3 2 62 5 130 6 69 1 137 5
151 10 15 4 69 10 120 14 52 4 97 9 101 11 3 2 73 9 155 15 81 5 162 12 178
15 17 2 107 9 200 14 111 6 186 15 215 25 38 14 69 16 189 10 79 -4 150 -9
157 -12 7 -2 29 3 48 12 29 14 60 16 168 14 132 -3 354 7 369 17 11 7 378 8
385 1 4 -3 14 1 23 10 13 13 15 35 14 117 -6 220 -5 383 1 661 4 160 9 385 11
500 2 116 7 221 10 235 4 14 8 115 10 225 2 110 6 229 10 265 4 36 6 70 6 75
1 24 -2 436 -3 605 -1 102 -1 212 -2 245 0 33 3 74 7 90 10 43 -22 79 -66 75
-53 -4 -79 -3 -147 4 -92 9 -140 17 -140 23 0 2 12 21 27 40 50 66 73 189 46
243 -8 17 -19 30 -24 30 -5 0 -9 6 -9 13 0 11 -23 27 -60 42 -16 6 -40 50 -40
72 0 30 -105 122 -149 130 -50 9 -133 10 -176 4z m140 -122 c39 -14 83 -45 74
-53 -2 -2 -17 -6 -34 -9 -54 -9 -143 -43 -210 -79 -22 -12 -50 -27 -62 -32
-13 -6 -23 -14 -23 -18 0 -5 -7 -8 -15 -8 -8 0 -15 -4 -15 -8 0 -5 -13 -15
-30 -23 -16 -8 -81 -58 -144 -112 -63 -54 -118 -98 -121 -97 -4 1 -12 -5 -18
-12 -7 -8 -46 -40 -88 -72 -42 -31 -111 -90 -154 -131 -42 -40 -86 -76 -97
-78 -25 -7 -84 44 -76 64 3 8 59 43 124 78 158 83 174 92 204 119 14 12 32 24
40 27 8 3 49 42 90 87 150 165 304 318 320 318 9 0 22 6 28 13 16 15 119 45
147 42 11 -1 38 -8 60 -16z m175 -223 c6 -19 8 -52 4 -77 -7 -46 -49 -139 -62
-139 -5 0 -19 -19 -32 -42 -13 -24 -35 -54 -49 -69 -31 -30 -61 -67 -61 -75 0
-3 -19 -22 -42 -42 -23 -20 -107 -101 -187 -180 -80 -78 -150 -146 -154 -150
-4 -4 -31 -32 -58 -62 -28 -30 -85 -91 -127 -136 l-76 -81 -16 31 c-30 59
-171 140 -329 187 -24 7 -39 15 -32 17 6 2 11 8 11 13 0 11 8 22 66 84 29 31
50 45 67 45 24 0 50 27 53 55 2 26 24 63 46 77 13 8 46 37 74 64 62 61 188
164 200 164 5 0 24 14 43 30 18 17 37 30 41 30 4 0 20 12 36 27 36 33 223 157
286 189 56 28 124 54 156 59 13 2 26 6 30 9 3 3 27 6 53 6 45 0 48 -2 59 -34z
m-1240 -335 c-44 -28 -62 -70 -64 -146 -1 -37 4 -44 51 -84 29 -24 53 -46 53
-50 0 -4 -9 -13 -20 -21 -11 -8 -20 -20 -20 -27 0 -7 -6 -13 -13 -13 -7 0 -26
-18 -43 -41 -16 -23 -37 -50 -46 -60 -10 -10 -18 -22 -18 -26 0 -4 -10 -17
-22 -30 -17 -18 -21 -35 -21 -73 1 -28 -3 -50 -8 -50 -6 0 -7 -4 -4 -10 3 -5
1 -10 -5 -10 -11 0 -164 -152 -205 -203 -11 -14 -38 -45 -60 -69 -23 -23 -56
-63 -75 -87 -19 -25 -53 -63 -75 -86 -22 -23 -49 -54 -60 -69 -11 -15 -36 -46
-56 -69 -20 -23 -56 -69 -80 -102 -42 -58 -104 -128 -179 -205 -19 -19 -48
-51 -63 -70 -16 -19 -54 -62 -86 -95 -88 -93 -160 -204 -167 -260 -6 -50 -16
-70 -54 -112 -40 -42 -89 -109 -135 -183 -16 -26 -43 -67 -60 -91 -64 -95 -65
-98 -33 -132 l27 -31 87 45 c47 24 102 61 122 81 21 21 42 38 48 38 9 0 41 22
99 68 6 4 26 15 45 24 19 9 46 27 60 40 13 13 27 23 30 23 34 3 88 20 113 35
18 11 39 23 47 27 8 4 27 19 42 35 15 15 31 28 35 28 5 0 31 20 58 45 28 25
53 45 58 45 6 0 80 68 202 185 50 48 93 85 100 85 7 0 34 28 145 150 47 51 91
99 98 106 6 7 12 15 12 19 0 3 50 56 110 116 61 60 121 127 134 148 22 34 40
56 112 132 13 14 24 31 24 36 0 16 32 38 75 52 49 15 105 42 122 57 7 7 15 23
19 37 3 15 67 88 142 165 76 76 160 163 189 193 28 30 91 92 139 139 49 47
105 105 127 130 21 25 53 63 72 85 86 100 115 137 115 145 0 5 12 10 28 10 39
2 173 -1 197 -5 11 -1 43 -3 70 -4 l50 -1 1 -63 c0 -34 5 -90 11 -125 10 -62
8 -432 -3 -717 -3 -77 -10 -261 -16 -410 -5 -148 -11 -353 -13 -455 -1 -102
-6 -243 -11 -315 -8 -126 -9 -212 -6 -325 1 -30 0 -68 -3 -85 -3 -16 -5 -52
-4 -80 0 -27 1 -59 1 -70 -1 -113 -1 -194 1 -215 0 -14 0 -41 -1 -61 l-2 -36
-145 -1 c-79 -1 -211 -7 -292 -13 -82 -7 -220 -13 -308 -14 -158 -2 -188 -5
-201 -18 -4 -3 -77 -4 -164 0 -129 5 -165 3 -206 -10 -48 -16 -100 -22 -299
-32 -55 -3 -124 -10 -154 -15 -30 -6 -84 -10 -121 -10 -36 0 -101 -4 -145 -10
-44 -5 -109 -12 -145 -15 -36 -4 -68 -9 -72 -11 -4 -3 -71 -7 -150 -9 -79 -2
-163 -7 -188 -9 -25 -3 -97 -8 -160 -11 -252 -12 -308 -15 -380 -22 -86 -8
-121 -8 -170 -1 -30 4 -35 9 -37 34 -2 16 -7 58 -13 94 -6 36 -12 101 -15 145
-2 44 -13 138 -24 208 -16 95 -21 168 -20 280 1 104 -3 171 -13 212 -8 33 -16
116 -17 185 -1 69 -9 190 -18 270 -8 80 -15 199 -14 264 0 66 -4 149 -10 185
-15 98 -18 162 -21 441 -1 140 -7 309 -14 374 -6 66 -10 131 -8 145 2 14 4 70
4 123 1 56 6 100 12 104 10 7 193 12 473 15 83 1 186 7 230 14 44 6 104 10
133 8 29 -2 101 4 160 13 59 9 154 18 212 20 58 1 145 8 193 14 79 9 142 8
203 -5 11 -3 36 1 55 7 30 10 191 23 307 25 l42 0 -40 -26z m40 -576 c123 -40
143 -48 184 -80 24 -18 53 -36 65 -40 14 -4 24 -18 28 -36 3 -16 10 -32 14
-35 14 -8 11 -31 -7 -48 -23 -23 -31 -20 -49 18 -9 18 -24 42 -33 53 -9 10
-24 32 -32 48 -9 18 -35 40 -65 55 -28 14 -52 28 -55 31 -3 3 -33 14 -67 25
-35 10 -63 23 -63 28 0 4 6 6 13 3 6 -2 37 -12 67 -22z m3 -98 c12 -7 38 -19
57 -26 25 -8 42 -24 62 -59 16 -26 33 -55 40 -64 10 -15 8 -22 -16 -47 -16
-17 -33 -28 -38 -25 -4 3 -8 -5 -8 -18 0 -13 -9 -31 -20 -41 -11 -9 -20 -24
-20 -33 0 -9 -11 -25 -24 -35 -14 -11 -35 -36 -47 -57 -22 -38 -121 -137 -313
-317 -59 -55 -210 -201 -334 -325 -285 -282 -366 -348 -422 -342 -33 4 -100
33 -100 44 0 4 -7 8 -15 8 -15 0 -15 2 -1 72 7 32 41 84 82 127 16 16 54 58
84 92 30 34 66 75 80 90 23 25 78 88 130 149 12 14 37 42 56 62 19 20 34 40
34 43 0 6 59 79 110 136 14 15 36 42 50 60 14 17 39 46 55 63 17 18 45 52 64
76 77 100 305 330 327 330 8 0 14 10 14 23 0 13 3 27 6 30 11 10 83 0 107 -16z
m-1245 -1443 c31 -21 28 -32 -14 -40 -44 -8 -59 5 -38 34 18 26 23 27 52 6z
m-104 -103 c3 -5 -5 -16 -19 -25 -34 -22 -38 -20 -19 9 17 26 29 31 38 16z"/>
</g>
</svg>
