<?xml version="1.0" standalone="no"?>
<!DOCTYPE svg PUBLIC "-//W3C//DTD SVG 20010904//EN"
 "http://www.w3.org/TR/2001/REC-SVG-20010904/DTD/svg10.dtd">
<svg version="1.0" xmlns="http://www.w3.org/2000/svg"
 width="549.000000pt" height="487.000000pt" viewBox="0 0 549.000000 487.000000"
 preserveAspectRatio="xMidYMid meet">
<metadata>
Created by potrace 1.16, written by Peter Selinger 2001-2019
</metadata>
<g transform="translate(0.000000,487.000000) scale(0.100000,-0.100000)"
fill="#000000" stroke="none">
<path d="M4195 4792 c-11 -1 -30 -5 -43 -8 -27 -6 -104 -73 -97 -85 3 -4 -3
-14 -15 -21 -11 -7 -20 -21 -20 -30 0 -10 -8 -26 -18 -36 -19 -19 -25 -60 -25
-156 1 -104 13 -159 46 -210 43 -67 125 -151 165 -167 27 -12 32 -19 32 -46 0
-31 -2 -33 -37 -34 -21 0 -47 -2 -58 -3 -11 -2 -58 -6 -105 -10 -47 -4 -93 -9
-103 -12 -28 -9 -66 -51 -55 -62 6 -6 6 -17 -1 -31 -14 -26 -59 -71 -71 -71
-5 0 -12 -9 -15 -20 -3 -11 -10 -20 -15 -20 -5 0 -11 -9 -15 -19 -3 -11 -26
-31 -51 -46 -39 -23 -43 -29 -38 -53 4 -15 13 -34 20 -43 8 -8 16 -29 20 -46
l6 -30 -121 -6 c-133 -6 -163 -17 -183 -65 -13 -32 -18 -488 -6 -618 4 -47 9
-113 12 -147 19 -266 17 -255 45 -263 71 -20 85 2 72 112 -18 142 -19 154 -26
256 -9 138 -11 514 -2 568 l7 45 129 3 129 3 16 -32 c9 -18 16 -38 16 -44 0
-7 6 -18 14 -24 7 -6 16 -29 20 -50 3 -21 15 -59 27 -85 17 -40 24 -47 42 -42
12 3 25 6 28 6 4 0 10 11 13 25 7 26 -18 95 -34 95 -4 0 -10 15 -13 33 -3 18
-12 50 -21 70 -8 21 -14 40 -13 43 3 7 828 6 835 -1 5 -5 -17 -74 -49 -152
-12 -29 -11 -35 3 -49 30 -30 64 -2 73 61 1 6 5 17 8 25 3 8 12 38 20 65 l14
50 48 3 c32 2 51 -1 56 -10 7 -10 9 -10 9 2 1 13 2 13 10 0 5 -9 11 -65 14
-125 4 -61 9 -159 13 -220 4 -60 8 -166 8 -235 1 -69 5 -187 10 -262 l8 -138
29 -14 c28 -14 50 -13 74 5 7 6 8 28 3 66 -4 32 -10 100 -13 151 -3 51 -8 97
-11 103 -4 5 -6 71 -5 147 1 75 1 142 1 147 1 6 -2 26 -4 45 -13 88 -18 308
-7 315 7 4 4 16 -10 35 -11 15 -20 40 -20 54 0 35 -36 48 -107 42 -46 -4 -53
-3 -53 12 0 26 65 180 90 214 34 46 22 66 -87 137 -54 36 -108 74 -120 84 -20
18 -40 20 -180 22 -226 4 -210 2 -215 29 -4 21 1 27 41 44 50 21 144 99 136
112 -3 5 3 17 13 27 43 43 89 314 56 327 -6 2 -16 25 -23 50 -6 25 -15 46 -19
46 -4 0 -16 14 -26 31 -20 33 -74 89 -87 89 -4 0 -15 7 -24 17 -16 16 -125 32
-170 25z m73 -81 c28 -11 52 -16 52 -13 0 4 11 -6 25 -21 14 -15 29 -27 34
-27 4 0 14 -12 22 -27 8 -16 20 -32 26 -36 7 -4 13 -13 13 -20 0 -7 7 -25 16
-42 29 -52 24 -156 -12 -245 -23 -56 -48 -85 -100 -116 -50 -29 -79 -30 -124
-3 -43 26 -126 114 -146 154 -18 38 -32 148 -26 210 5 70 75 171 133 194 32
13 28 13 87 -8z m67 -792 c50 -1 99 1 111 4 28 7 116 -10 125 -25 4 -6 5 -18
2 -26 -3 -7 -7 -69 -8 -135 -3 -117 -11 -206 -19 -215 -5 -4 -277 -1 -482 6
l-51 2 -1 40 c-1 22 -6 59 -11 82 -5 24 -12 87 -16 140 -9 115 -13 111 120
123 44 4 82 9 85 11 2 3 16 2 30 -1 14 -2 66 -5 115 -6z m381 -64 c27 -19 55
-35 61 -35 7 0 13 -4 13 -9 0 -5 9 -13 20 -16 11 -3 20 -13 20 -20 0 -8 -21
-67 -48 -132 l-47 -118 -35 1 c-79 3 -75 0 -74 51 1 27 3 93 4 148 2 121 8
165 24 165 7 0 35 -16 62 -35z m-803 -58 c2 -7 5 -42 5 -77 1 -36 5 -92 10
-125 5 -33 8 -63 6 -67 -3 -4 -35 -7 -73 -6 l-69 0 -11 42 c-7 22 -17 51 -23
63 -10 20 -6 28 28 66 21 24 53 60 69 80 31 38 49 46 58 24z"/>
<path d="M967 4766 c-14 -11 -16 -21 -9 -52 4 -22 7 -48 6 -60 0 -11 -4 -127
-8 -257 -7 -205 -6 -239 7 -252 9 -8 22 -15 31 -15 8 0 20 -8 25 -17 6 -10 11
-15 11 -10 0 9 42 -16 97 -60 23 -18 46 -33 51 -33 5 0 19 -9 32 -20 13 -11
29 -20 36 -20 7 0 14 -19 18 -47 9 -74 11 -334 2 -369 -9 -40 -14 -41 -254
-34 -272 7 -272 7 -279 -166 -3 -71 -5 -133 -5 -139 0 -5 3 -57 6 -115 4 -58
9 -134 11 -170 2 -36 7 -81 10 -100 6 -41 9 -177 5 -274 -2 -65 -1 -71 24 -93
33 -28 66 -19 79 23 12 41 0 358 -18 509 -11 84 -15 390 -5 405 8 13 84 15
580 15 502 0 569 -2 565 -15 -2 -8 -11 -44 -20 -80 -8 -36 -22 -83 -30 -105
-16 -46 -18 -74 -6 -93 7 -12 13 -11 38 1 23 12 29 23 31 54 2 21 8 56 14 78
5 22 12 47 13 55 2 8 4 16 5 18 2 1 3 5 4 10 1 4 6 21 10 39 4 18 15 34 24 37
24 7 191 0 199 -8 4 -4 8 -111 10 -239 1 -128 5 -263 8 -302 2 -38 7 -140 9
-225 3 -85 8 -163 11 -172 4 -9 20 -20 37 -23 49 -11 61 10 60 102 -1 43 -4
92 -7 108 -2 17 -7 210 -10 430 -3 220 -10 404 -14 408 -20 20 -119 36 -198
32 l-84 -5 5 33 c2 17 8 55 12 82 3 28 10 55 14 60 11 15 22 73 23 128 l2 47
-107 43 c-59 24 -125 56 -147 72 -45 31 -123 50 -149 36 -10 -5 -52 -12 -94
-16 -72 -7 -78 -6 -80 11 -6 73 -6 73 23 79 16 4 29 10 29 13 0 4 20 20 45 37
24 16 46 36 49 45 3 8 12 33 21 55 27 66 31 192 9 272 -10 37 -22 73 -26 78
-5 6 -18 23 -29 38 -31 41 -62 50 -174 48 -108 -2 -128 -9 -177 -64 -68 -78
-93 -248 -49 -335 11 -22 17 -42 14 -46 -4 -3 -2 -6 4 -6 5 0 14 -10 20 -22
15 -33 80 -108 87 -101 3 4 6 1 6 -5 0 -6 15 -14 34 -17 29 -6 35 -12 39 -38
2 -18 3 -34 2 -35 -2 -2 -43 -3 -90 -3 -71 1 -90 4 -103 19 -10 10 -37 27 -62
37 -25 10 -54 28 -65 39 -11 12 -37 30 -58 39 -21 10 -54 34 -74 53 l-35 34 7
138 c4 75 8 198 9 272 1 128 0 135 -19 137 -11 2 -28 -3 -38 -11z m465 -165
c5 -15 30 -15 76 -1 33 10 50 11 80 2 41 -13 83 -59 84 -95 1 -12 5 -27 10
-33 11 -16 14 -166 3 -184 -5 -8 -10 -19 -10 -25 -1 -39 -106 -105 -167 -105
-31 0 -45 7 -78 41 -48 50 -86 130 -95 202 -6 44 -3 64 16 108 29 69 71 116
81 90z m118 -671 c8 -1 68 1 133 5 95 6 117 5 118 -6 11 -231 14 -323 8 -376
l-3 -32 -236 2 -235 2 -1 60 c-1 33 -5 119 -8 192 -5 104 -3 135 8 145 10 10
39 13 107 12 52 -1 101 -3 109 -4z m375 -60 c22 -11 46 -20 55 -20 21 0 70
-23 70 -32 0 -5 7 -8 16 -8 13 0 15 -7 9 -42 -4 -24 -12 -49 -17 -55 -6 -7
-11 -27 -13 -45 -2 -18 -6 -59 -10 -90 l-8 -58 -48 0 c-71 0 -100 14 -98 47 1
16 -2 73 -6 128 -11 147 -12 169 -7 183 6 16 11 15 57 -8z"/>
<path d="M4289 2295 c-3 -2 -20 -5 -38 -7 -18 -1 -37 -8 -43 -15 -6 -7 -16
-13 -22 -13 -6 0 -21 -15 -33 -33 -13 -18 -31 -42 -41 -53 -20 -21 -30 -42
-44 -94 -24 -87 -25 -112 -12 -157 8 -26 14 -59 14 -75 0 -18 5 -28 15 -28 8
0 15 -3 15 -8 0 -14 80 -92 95 -92 8 0 15 -4 15 -10 0 -5 8 -10 18 -10 40 0
55 -24 55 -90 1 -73 18 -65 -156 -74 -119 -6 -157 -16 -157 -40 0 -7 -17 -22
-39 -34 -21 -12 -63 -42 -93 -67 -30 -25 -60 -45 -67 -45 -18 0 -51 -38 -51
-60 0 -11 4 -28 9 -38 10 -18 50 -105 63 -134 6 -15 -7 -17 -158 -16 -141 1
-167 -1 -181 -15 -20 -20 -25 -57 -10 -75 7 -9 12 -92 14 -220 2 -214 7 -305
17 -321 3 -5 9 -60 12 -122 4 -63 8 -121 10 -129 1 -8 3 -31 3 -51 1 -30 6
-39 29 -48 29 -12 73 -12 66 0 -2 4 0 10 5 14 6 3 8 31 6 63 -3 31 -7 91 -10
132 -5 72 -15 174 -35 345 -10 79 -7 193 5 278 l7 44 121 -2 c67 -1 129 -3
138 -3 16 -2 59 -86 59 -116 0 -8 4 -16 9 -18 5 -2 20 -34 34 -73 27 -76 46
-97 71 -76 23 19 20 36 -24 136 -22 50 -40 90 -40 90 -2 0 -11 43 -11 49 1 10
725 18 768 9 28 -6 22 -25 -55 -177 -33 -65 -58 -125 -55 -132 5 -13 8 -15 35
-18 7 0 35 44 62 99 27 55 54 106 60 114 5 7 11 19 12 26 1 8 7 30 14 49 9 28
17 36 35 36 27 0 45 -26 44 -62 -5 -100 23 -453 48 -598 8 -52 15 -113 14
-134 -1 -54 27 -81 75 -72 28 6 34 11 35 34 2 35 4 20 -21 165 -12 71 -23 157
-26 190 -2 34 -7 89 -10 122 -4 33 -8 125 -10 205 -3 172 -8 200 -34 223 -11
9 -20 24 -20 32 0 9 -9 15 -25 15 -34 0 -32 20 10 105 19 39 35 79 35 90 0 23
-13 46 -26 47 -10 1 -57 29 -64 40 -3 3 -45 28 -94 53 -87 46 -142 60 -272 70
-83 6 -104 14 -104 43 0 15 -3 51 -6 80 -7 51 -6 52 19 52 25 0 89 28 95 43 2
4 10 7 17 7 14 0 72 74 98 125 18 36 23 123 12 212 -7 56 -13 68 -56 116 -59
66 -137 107 -201 107 -24 0 -47 -2 -49 -5z m123 -103 c37 -15 87 -61 106 -97
10 -20 15 -57 15 -113 0 -77 -2 -85 -30 -120 -64 -79 -165 -105 -262 -66 -87
34 -145 150 -123 245 19 82 91 169 128 155 8 -3 14 -1 14 4 0 20 96 15 152 -8z
m-22 -754 c63 -11 137 -21 164 -24 55 -5 65 -14 61 -53 -2 -14 -7 -76 -10
-138 l-8 -112 -51 -6 c-28 -3 -76 -5 -106 -4 -30 1 -100 1 -155 0 -55 -1 -130
-2 -167 -2 l-66 1 -11 68 c-6 37 -9 85 -7 107 2 22 4 67 5 100 1 59 2 61 34
71 50 17 191 13 317 -8z m-412 -188 c-2 -137 -3 -150 -20 -151 -76 -5 -74 -6
-101 46 -36 73 -57 122 -57 133 0 21 139 118 172 121 4 1 7 -66 6 -149z m808
75 c9 -8 25 -20 36 -26 25 -13 21 -41 -19 -127 -22 -48 -32 -60 -45 -56 -10 3
-18 1 -18 -4 0 -5 -18 -8 -39 -8 l-39 1 3 65 c2 36 6 97 10 137 l7 71 45 -19
c24 -10 51 -26 59 -34z"/>
<path d="M1675 2259 c-27 -10 -58 -19 -67 -19 -10 0 -18 -4 -18 -10 0 -5 -6
-10 -14 -10 -19 0 -63 -54 -86 -104 -50 -114 -57 -170 -35 -267 9 -41 18 -83
20 -94 7 -35 58 -94 88 -100 32 -8 34 -24 7 -84 -11 -24 -20 -49 -20 -56 0
-14 -88 -26 -96 -13 -3 5 -19 8 -35 8 -17 0 -40 5 -51 11 -18 10 -24 8 -40
-12 -42 -55 -101 -107 -140 -125 -24 -10 -45 -21 -48 -25 -3 -3 -23 -12 -45
-20 -22 -7 -47 -19 -56 -26 -8 -7 -20 -13 -26 -13 -12 0 -23 -23 -23 -49 0 -9
13 -27 28 -38 27 -20 60 -98 47 -111 -3 -3 -78 -7 -167 -7 l-160 -1 -25 -28
c-13 -16 -22 -34 -20 -40 8 -21 27 -150 43 -296 19 -171 21 -194 29 -240 3
-19 7 -88 10 -153 3 -65 7 -122 9 -126 3 -4 1 -23 -3 -42 -10 -46 -6 -56 35
-69 30 -10 38 -9 55 6 18 16 20 26 14 84 -4 36 -8 99 -10 140 -3 41 -7 113
-11 160 -4 47 -8 108 -10 135 -6 95 -15 170 -24 205 -5 19 -11 64 -13 100 l-4
65 141 -2 c77 -1 144 -2 148 -3 4 0 19 -39 34 -87 15 -49 30 -91 33 -95 3 -4
21 0 39 7 40 17 41 34 3 117 l-28 64 96 -2 c53 -2 164 -3 246 -3 83 -1 213 -1
290 -2 77 -1 148 -1 157 -1 10 1 20 -3 23 -9 10 -16 -17 -129 -34 -142 -20
-14 -22 -57 -4 -75 18 -19 49 -6 61 26 10 25 52 185 52 197 0 3 41 5 90 5 65
0 90 -4 91 -12 1 -7 2 -25 2 -41 1 -15 5 -27 10 -27 4 0 5 -4 2 -10 -3 -5 -2
-18 3 -27 5 -10 12 -67 16 -128 3 -60 8 -123 11 -140 8 -61 19 -150 20 -165 0
-8 5 -49 9 -90 5 -41 8 -104 8 -140 -2 -84 3 -95 39 -110 27 -11 31 -10 50 11
19 22 21 32 15 109 -4 47 -9 99 -11 115 -7 49 -25 234 -30 310 -3 39 -11 129
-19 200 -8 72 -15 143 -14 159 0 16 -7 35 -16 41 -9 7 -16 19 -16 28 0 22 -33
30 -130 31 -54 1 -84 5 -83 12 1 5 11 46 23 90 27 98 30 134 10 144 -28 15
-75 33 -90 36 -8 2 -26 17 -40 34 -14 16 -31 30 -37 30 -7 0 -13 7 -13 15 0 8
-6 15 -14 15 -8 0 -16 6 -19 14 -7 17 -87 30 -101 16 -5 -5 -54 -10 -109 -10
l-100 0 7 38 c9 60 33 98 69 112 17 6 55 20 82 31 28 10 56 19 63 19 6 0 12 5
12 10 0 6 7 10 16 10 22 0 93 81 121 136 11 24 19 44 17 44 -2 0 1 12 7 28 23
60 26 100 10 158 -6 23 -18 47 -26 54 -8 7 -15 17 -15 23 0 5 -9 17 -19 26
-104 87 -196 109 -296 70z m150 -79 c29 -11 88 -51 94 -63 1 -4 11 -16 21 -25
52 -49 26 -182 -50 -260 -29 -30 -61 -52 -81 -57 -44 -10 -39 -8 -76 -28 -85
-45 -191 0 -195 83 -1 14 -5 30 -10 36 -12 16 -13 124 -1 166 20 70 37 98 59
98 12 0 27 7 34 15 7 9 32 25 54 35 42 20 98 20 151 0z m41 -806 c-3 -36 -8
-69 -10 -72 -2 -4 -11 -50 -20 -102 -9 -52 -21 -97 -26 -100 -8 -5 -378 -5
-476 -1 -31 1 -26 46 31 261 l17 65 141 -2 c78 -2 147 -3 152 -3 29 -1 147 9
150 12 2 2 14 4 25 5 20 2 21 -1 16 -63z m104 -14 c11 -11 20 -24 20 -30 0 -5
9 -10 19 -10 11 0 22 -6 25 -12 5 -10 7 -10 12 0 5 10 9 10 20 1 8 -6 11 -15
8 -20 -3 -5 0 -9 5 -9 13 0 14 -24 2 -64 -5 -17 -15 -50 -22 -73 -13 -47 -11
-46 -116 -47 l-43 -1 4 100 c2 55 6 110 9 123 18 70 24 75 57 42z m-680 -30
c-5 -17 -9 -33 -9 -35 0 -3 -9 -35 -21 -71 -11 -36 -17 -70 -14 -75 3 -6 0
-16 -6 -24 -7 -8 -9 -16 -4 -16 5 -1 -4 -4 -21 -8 -44 -10 -75 -2 -75 20 0 10
-4 20 -9 23 -4 3 -11 22 -14 43 -3 21 -8 46 -12 56 -6 13 1 21 31 33 22 9 47
23 56 31 22 20 80 52 95 52 8 1 9 -8 3 -29z"/>
</g>
</svg>
