<?xml version="1.0" standalone="no"?>
<!DOCTYPE svg PUBLIC "-//W3C//DTD SVG 20010904//EN"
 "http://www.w3.org/TR/2001/REC-SVG-20010904/DTD/svg10.dtd">
<svg version="1.0" xmlns="http://www.w3.org/2000/svg"
 width="417.000000pt" height="381.000000pt" viewBox="0 0 417.000000 381.000000"
 preserveAspectRatio="xMidYMid meet">
<metadata>
Created by potrace 1.16, written by Peter Selinger 2001-2019
</metadata>
<g transform="translate(0.000000,381.000000) scale(0.100000,-0.100000)"
fill="#000000" stroke="none">
<path d="M1352 3614 c-26 -10 -30 -20 -45 -90 -9 -44 -19 -108 -23 -144 -3
-36 -15 -94 -26 -130 -11 -36 -22 -83 -24 -105 -2 -22 -8 -51 -13 -65 -5 -14
-15 -54 -22 -90 -6 -36 -22 -90 -35 -121 -13 -31 -31 -89 -40 -129 -9 -39 -36
-120 -61 -178 -45 -108 -96 -252 -108 -307 -8 -40 -21 -70 -83 -198 -28 -59
-52 -114 -52 -121 0 -17 -74 -168 -91 -186 -8 -8 -27 -40 -43 -70 -16 -30 -34
-58 -40 -62 -6 -4 -7 -8 -3 -8 12 0 -7 -32 -108 -185 -93 -140 -111 -162 -221
-265 -32 -30 -59 -57 -59 -60 -1 -3 -5 -15 -9 -28 -5 -14 -3 -28 4 -37 15 -18
50 -20 50 -4 0 7 7 8 18 4 9 -4 116 -9 237 -11 121 -2 265 -9 320 -15 55 -6
128 -11 162 -11 55 0 61 -2 65 -22 2 -11 3 -95 1 -185 -4 -174 -2 -181 44
-181 31 0 35 21 34 212 l0 170 127 -7 c70 -3 154 -10 187 -15 33 -5 105 -9
160 -10 103 0 113 -1 355 -45 80 -14 188 -31 240 -36 183 -18 194 -20 208 -40
28 -40 64 -16 135 91 42 63 66 96 119 161 20 26 49 72 62 104 14 31 39 77 56
101 16 25 30 49 30 55 0 5 5 9 10 9 6 0 10 6 10 13 0 14 36 89 69 143 10 17
40 70 65 118 26 48 51 95 56 104 8 16 49 121 120 312 15 41 38 118 50 170 13
52 25 102 28 110 3 8 7 29 9 45 2 17 8 41 13 55 6 14 14 57 20 95 5 39 17 95
25 125 8 30 15 74 15 96 0 53 29 184 41 184 5 0 6 -17 3 -37 -8 -48 -13 -203
-18 -573 -3 -276 -10 -395 -25 -404 -4 -3 -3 -37 0 -78 4 -40 4 -122 2 -183
-13 -274 -18 -568 -15 -937 1 -158 -2 -187 -14 -192 -25 -9 -653 2 -719 13
-33 6 -87 13 -120 16 -33 4 -89 11 -125 17 -36 5 -112 12 -170 14 -58 2 -159
11 -225 19 -66 8 -169 17 -230 19 -185 9 -269 15 -320 26 -28 6 -75 14 -105
17 -30 3 -60 9 -66 14 -16 13 -54 -19 -54 -45 0 -36 19 -46 93 -46 37 0 77 -5
87 -10 10 -6 58 -12 107 -15 48 -3 113 -9 143 -13 30 -5 96 -8 145 -6 80 2
173 -7 215 -22 8 -3 69 -7 135 -8 66 -1 152 -7 190 -14 68 -10 227 -29 445
-52 85 -9 324 -10 607 -1 21 1 53 47 53 78 0 14 51 39 144 70 l59 19 -2 74
c-2 65 -1 72 13 61 13 -11 25 -8 71 13 31 14 62 23 70 19 9 -3 22 0 29 6 18
15 11 191 -10 269 -10 34 -13 73 -9 110 3 31 6 62 5 67 0 6 -2 87 -4 180 -3
161 -13 316 -37 575 -16 177 -17 182 -23 225 -10 70 -26 209 -36 313 -5 55
-16 133 -25 174 -9 40 -18 91 -21 113 -3 22 -9 57 -15 77 -5 20 -10 57 -11 82
-1 25 -5 46 -9 46 -3 0 -6 8 -6 18 3 51 -32 202 -58 253 -12 23 -14 34 -6 37
6 2 11 16 11 32 0 30 -28 49 -51 34 -7 -4 -10 1 -7 12 8 43 -63 65 -86 26 -6
-11 -10 -11 -16 -2 -4 7 -39 13 -91 15 -46 1 -111 9 -144 18 -33 9 -91 19
-130 22 -38 4 -98 13 -133 21 -36 8 -117 14 -188 14 -97 0 -133 4 -162 17 -30
15 -69 18 -217 19 -249 1 -514 15 -575 29 -14 3 -74 10 -135 16 -60 6 -136 14
-167 18 -39 5 -67 3 -86 -5z m243 -86 c22 0 67 -7 100 -14 33 -8 110 -14 172
-14 61 0 147 -5 190 -11 92 -13 138 -14 253 -5 66 6 98 3 140 -9 31 -9 120
-20 205 -25 149 -8 345 -35 480 -65 39 -8 104 -18 145 -21 99 -7 100 -7 100
-51 0 -51 -32 -237 -68 -398 -17 -71 -33 -161 -37 -198 -4 -37 -11 -82 -17
-100 -5 -18 -11 -50 -13 -71 -2 -22 -7 -46 -10 -54 -3 -9 -8 -31 -11 -51 -10
-60 -64 -283 -81 -331 -8 -25 -26 -67 -38 -95 -13 -27 -37 -90 -55 -140 -18
-49 -39 -100 -46 -112 -8 -13 -12 -23 -9 -23 4 0 -2 -12 -13 -27 -18 -26 -38
-62 -144 -261 -22 -41 -56 -102 -76 -135 -21 -34 -43 -74 -49 -89 -19 -43
-184 -268 -207 -282 -16 -10 -38 -11 -91 -5 -38 5 -108 12 -155 15 -47 3 -110
10 -140 16 -30 6 -75 14 -100 18 -25 4 -83 15 -130 24 -47 9 -141 19 -210 22
-69 3 -152 9 -185 14 -33 4 -101 8 -152 9 -50 1 -102 4 -115 6 -12 2 -126 8
-253 15 -126 6 -259 13 -295 16 -36 2 -117 4 -182 4 -68 -1 -119 3 -122 9 -7
10 4 22 60 72 16 14 39 39 51 55 34 45 189 278 191 287 5 19 68 136 92 172 15
22 40 64 55 93 15 29 31 55 36 58 5 3 9 16 9 30 0 13 4 32 9 42 61 111 118
246 147 346 40 139 46 157 86 246 52 116 74 176 84 235 4 22 17 67 30 100 13
33 33 103 44 155 12 52 30 131 42 175 11 44 26 118 34 165 7 47 17 98 21 115
8 36 9 44 11 69 2 17 9 18 90 12 48 -4 105 -7 127 -8z m1805 -142 c0 -3 -4 -8
-10 -11 -5 -3 -10 -1 -10 4 0 6 5 11 10 11 6 0 10 -2 10 -4z m107 -303 c-3
-10 -5 -4 -5 12 0 17 2 24 5 18 2 -7 2 -21 0 -30z m18 -60 c3 -21 10 -63 16
-93 6 -30 14 -82 19 -115 4 -33 13 -72 19 -87 6 -15 8 -35 5 -43 -4 -8 -1 -22
6 -30 7 -8 9 -15 6 -15 -4 0 -2 -8 3 -18 5 -9 12 -71 16 -136 3 -66 8 -123 10
-126 2 -4 7 -42 10 -85 3 -43 8 -82 10 -85 2 -4 7 -29 10 -56 3 -27 8 -71 12
-99 3 -27 7 -88 9 -135 4 -142 13 -280 20 -305 3 -13 7 -137 8 -277 2 -139 8
-290 15 -336 7 -46 9 -92 6 -101 -7 -23 -46 -43 -80 -43 -18 0 -29 -8 -35 -22
-8 -19 -9 -18 -10 9 -1 17 -3 38 -5 48 -9 45 -16 157 -15 207 3 70 3 61 -4
350 -3 135 -8 373 -11 530 -9 465 -33 898 -55 980 -13 45 -13 120 0 120 5 0
12 -17 15 -37z m-50 -543 c3 -63 8 -248 11 -410 2 -162 7 -333 9 -380 2 -47 7
-130 10 -184 3 -65 1 -104 -6 -113 -6 -7 -8 -13 -3 -13 5 0 9 -89 10 -198 1
-108 4 -224 8 -257 4 -33 10 -103 13 -156 l5 -95 -41 -16 c-75 -30 -81 -23
-83 111 -1 64 -1 127 -1 141 1 14 1 68 1 120 0 111 0 120 7 345 3 94 6 258 8
365 4 183 8 237 25 318 4 18 5 75 2 125 -5 83 -5 358 0 447 l2 35 9 -35 c5
-19 11 -87 14 -150z"/>
</g>
</svg>
