<?xml version="1.0" standalone="no"?>
<!DOCTYPE svg PUBLIC "-//W3C//DTD SVG 20010904//EN"
 "http://www.w3.org/TR/2001/REC-SVG-20010904/DTD/svg10.dtd">
<svg version="1.0" xmlns="http://www.w3.org/2000/svg"
 width="501.000000pt" height="315.000000pt" viewBox="0 0 501.000000 315.000000"
 preserveAspectRatio="xMidYMid meet">
<metadata>
Created by potrace 1.16, written by Peter Selinger 2001-2019
</metadata>
<g transform="translate(0.000000,315.000000) scale(0.100000,-0.100000)"
fill="#000000" stroke="none">
<path d="M4340 3013 c-8 -3 -23 -15 -32 -27 -9 -12 -39 -50 -68 -86 -28 -36
-83 -99 -123 -141 -40 -42 -87 -96 -106 -120 -18 -24 -68 -81 -110 -125 -42
-45 -90 -99 -106 -120 -27 -37 -46 -58 -145 -164 -23 -25 -48 -59 -56 -76 -15
-35 -53 -82 -139 -170 -33 -33 -82 -91 -110 -128 -27 -37 -94 -113 -147 -169
-54 -56 -98 -105 -98 -109 0 -5 -4 -8 -9 -8 -5 0 0 24 11 53 18 45 26 102 16
112 -2 2 -15 6 -30 10 -34 9 -68 -23 -68 -64 0 -36 -48 -158 -75 -191 -7 -8
-18 -31 -24 -51 -7 -20 -21 -45 -31 -54 -11 -10 -20 -22 -20 -27 0 -5 -11 -26
-25 -48 -31 -49 -32 -91 -4 -108 24 -15 54 -8 84 22 12 11 32 28 45 36 12 8
28 21 36 28 7 6 17 12 23 12 6 0 11 5 11 10 0 6 6 10 13 10 7 0 25 12 40 26
16 14 35 27 42 28 8 1 28 14 45 29 16 15 32 27 34 27 3 0 26 14 51 31 71 48
81 97 25 126 -19 10 -26 8 -47 -13 -13 -13 -52 -42 -86 -65 l-62 -41 37 36
c20 19 40 41 45 49 4 8 42 52 83 98 41 45 93 103 115 128 22 25 56 62 75 82
19 20 62 69 94 110 69 86 91 109 106 109 5 0 10 6 10 13 0 7 24 38 53 69 96
105 162 180 187 216 14 19 34 45 45 57 22 23 173 187 230 250 19 22 49 58 65
81 15 22 46 56 67 75 61 54 93 98 93 128 0 42 -22 58 -60 44z"/>
<path d="M946 1282 c-9 -10 -16 -23 -16 -28 0 -5 -15 -25 -33 -44 -18 -19 -57
-66 -86 -105 -30 -38 -58 -71 -63 -73 -4 -2 -8 -8 -8 -14 0 -10 -46 -75 -65
-93 -20 -19 -56 -75 -48 -75 4 0 0 -5 -9 -11 -16 -9 -148 -218 -148 -235 0 -5
-9 -20 -19 -33 l-19 -25 -32 35 c-66 71 -130 154 -130 170 0 5 -4 8 -9 5 -5
-3 -11 1 -15 9 -7 20 -50 1 -71 -32 -9 -12 -24 -23 -34 -23 -12 0 -20 -9 -24
-28 -5 -24 3 -38 58 -96 66 -70 189 -247 207 -297 26 -76 141 -36 193 68 11
21 25 45 32 54 7 8 30 51 52 95 22 43 48 88 58 99 16 17 87 130 130 207 6 11
15 23 20 27 4 3 20 22 34 41 15 19 41 51 58 70 18 19 38 47 46 61 8 15 27 40
42 57 68 71 87 102 89 137 0 19 -3 35 -7 35 -4 0 -16 13 -25 30 -15 24 -22 28
-43 23 -32 -8 -40 -8 -72 0 -19 5 -31 1 -43 -11z"/>
<path d="M3923 1290 c-13 -5 -23 -14 -23 -20 0 -6 -10 -8 -24 -4 -19 4 -31 -3
-66 -44 -23 -28 -42 -54 -42 -59 1 -4 -7 -17 -17 -28 -25 -28 -108 -165 -161
-266 -25 -47 -66 -116 -91 -155 -26 -38 -59 -93 -74 -123 l-27 -54 -18 28
c-11 16 -17 32 -14 37 3 4 -2 8 -10 8 -9 0 -16 6 -16 13 0 6 -9 23 -20 37 -11
14 -20 32 -20 41 0 32 -24 49 -77 53 -28 2 -56 7 -63 11 -21 13 -50 -26 -50
-67 0 -21 4 -38 10 -38 5 0 13 -12 16 -27 4 -16 10 -30 13 -33 4 -3 26 -39 50
-80 25 -41 57 -96 72 -122 16 -26 31 -58 34 -71 9 -36 51 -54 119 -51 58 2 81
15 71 41 -2 7 11 38 30 69 19 32 35 62 35 66 0 5 8 17 18 28 10 11 26 43 37
72 10 29 29 68 42 87 13 18 23 38 23 43 0 5 15 32 33 61 18 29 43 78 56 110
13 31 28 60 33 63 5 3 13 16 19 27 11 27 23 45 77 124 23 34 42 66 42 72 0 5
14 23 30 39 37 37 42 95 11 112 -23 12 -28 12 -58 0z"/>
<path d="M4780 1253 c-43 -4 -80 -25 -80 -45 0 -5 -11 -24 -25 -42 -14 -18
-25 -38 -25 -44 0 -6 -8 -16 -17 -21 -10 -5 -29 -31 -43 -58 -14 -26 -28 -50
-31 -53 -3 -3 -17 -24 -30 -47 -83 -143 -99 -172 -99 -178 0 -3 -4 -11 -10
-18 -42 -52 -60 -76 -60 -80 0 -3 -19 -33 -41 -67 l-41 -62 -28 50 c-15 28
-34 58 -41 65 -8 8 -21 25 -29 37 -64 99 -103 104 -144 19 -23 -49 -24 -53 -8
-98 8 -25 23 -59 32 -76 9 -16 20 -42 23 -57 7 -28 76 -137 110 -176 17 -18
31 -22 76 -21 79 0 123 18 132 52 4 15 25 53 47 86 22 32 62 98 88 147 26 49
62 112 79 139 18 28 45 79 61 115 16 36 37 73 46 82 10 10 18 23 18 28 0 6 15
34 33 63 18 29 39 67 46 85 7 17 17 32 22 32 5 0 9 6 9 14 0 7 7 20 16 27 9 7
20 24 25 37 13 33 -13 73 -44 70 -12 -1 -42 -3 -67 -5z"/>
<path d="M1940 1221 c-18 -40 -91 -139 -137 -188 -24 -25 -43 -50 -44 -57 0
-6 -9 -24 -20 -41 -10 -16 -22 -37 -26 -45 -3 -8 -16 -28 -27 -45 -28 -40 -43
-65 -56 -95 -19 -44 -95 -195 -100 -200 -3 -3 -14 -27 -25 -54 -11 -26 -24
-48 -29 -48 -6 0 -18 15 -27 33 -41 79 -89 185 -89 197 0 7 -11 17 -25 24 -34
16 -85 -6 -85 -37 0 -17 -7 -24 -28 -28 -25 -5 -28 -11 -30 -46 -2 -21 2 -42
7 -45 6 -4 25 -37 43 -74 17 -37 40 -78 50 -91 10 -13 18 -34 18 -46 0 -12 11
-34 25 -49 20 -22 31 -26 54 -21 16 3 32 2 35 -3 3 -5 34 -8 68 -6 55 2 65 6
85 31 13 15 23 33 23 39 0 6 19 37 42 70 23 32 61 97 85 144 25 47 48 87 52
90 4 3 25 41 46 85 21 44 41 82 44 85 10 8 41 62 60 106 11 23 26 44 34 47 8
3 18 18 22 34 3 15 30 55 60 88 41 45 55 68 55 91 0 36 -16 54 -46 54 -13 0
-25 4 -28 9 -3 5 -21 11 -40 13 -29 3 -36 0 -46 -21z m-190 -475 c0 -2 -8 -10
-17 -17 -16 -13 -17 -12 -4 4 13 16 21 21 21 13z"/>
<path d="M2681 890 c-36 -21 -68 -37 -73 -34 -4 3 -8 -1 -8 -9 0 -21 -63 -87
-84 -87 -9 0 -19 7 -22 15 -4 8 -12 15 -19 15 -7 0 -22 15 -32 33 -26 43 -68
65 -93 49 -11 -7 -26 -12 -33 -12 -20 0 -53 -32 -59 -57 -5 -17 4 -32 33 -62
21 -21 39 -43 39 -49 0 -5 6 -12 14 -15 8 -3 22 -17 31 -31 16 -25 16 -27 -22
-72 -34 -42 -70 -80 -140 -147 -32 -31 -41 -84 -17 -102 11 -8 29 -13 41 -10
15 4 23 -1 28 -15 14 -43 90 -38 117 7 9 15 39 53 67 83 28 30 51 59 51 64 0
5 18 -15 40 -44 22 -30 44 -56 49 -59 4 -4 11 -16 15 -28 4 -12 20 -32 36 -43
24 -17 34 -19 50 -10 11 6 20 16 20 22 0 7 9 2 20 -10 25 -27 32 -27 58 -4 34
29 26 111 -12 125 -9 4 -16 11 -16 16 0 6 -16 35 -35 65 -19 30 -35 59 -35 65
0 5 -15 21 -32 36 l-33 26 30 25 c17 13 35 28 40 33 6 4 27 26 48 47 62 64 87
84 102 84 8 0 15 9 15 19 0 11 2 26 5 34 4 9 -13 24 -53 45 -33 18 -61 32 -63
32 -2 -1 -33 -18 -68 -40z"/>
</g>
</svg>
