<?xml version="1.0" standalone="no"?>
<!DOCTYPE svg PUBLIC "-//W3C//DTD SVG 20010904//EN"
 "http://www.w3.org/TR/2001/REC-SVG-20010904/DTD/svg10.dtd">
<svg version="1.0" xmlns="http://www.w3.org/2000/svg"
 width="547.000000pt" height="343.000000pt" viewBox="0 0 547.000000 343.000000"
 preserveAspectRatio="xMidYMid meet">
<metadata>
Created by potrace 1.16, written by Peter Selinger 2001-2019
</metadata>
<g transform="translate(0.000000,343.000000) scale(0.100000,-0.100000)"
fill="#000000" stroke="none">
<path d="M655 2933 c-22 -8 -60 -18 -84 -24 -24 -5 -58 -21 -74 -35 -37 -31
-99 -130 -117 -186 -21 -67 -40 -271 -27 -285 4 -3 7 -17 7 -29 0 -59 73 -244
96 -244 6 0 14 -9 17 -19 5 -22 103 -91 129 -91 23 0 24 -4 32 -87 l7 -73 -78
4 c-43 2 -85 7 -94 10 -20 9 -89 -31 -89 -50 0 -8 -9 -14 -19 -14 -24 0 -43
-49 -29 -74 5 -9 11 -36 14 -59 2 -23 8 -76 14 -117 6 -41 11 -156 11 -255 1
-99 7 -241 14 -315 12 -138 14 -190 5 -190 -4 0 -6 -175 -1 -206 2 -19 38 -25
176 -29 171 -5 164 -5 171 -16 4 -6 10 -6 19 1 7 6 29 11 49 12 20 1 36 4 36
7 0 3 10 6 23 7 61 1 208 15 224 21 10 4 21 11 25 16 5 9 12 207 10 302 -3
130 -13 364 -17 381 -2 11 -7 52 -11 90 l-7 69 28 -25 c16 -14 37 -33 47 -42
10 -10 21 -18 26 -18 4 0 21 -14 39 -30 18 -17 37 -30 42 -30 6 0 16 -8 22
-18 8 -13 20 -17 45 -14 19 2 34 8 34 13 0 5 16 15 35 23 19 8 35 19 35 23 0
4 17 19 38 33 20 13 47 34 60 46 13 12 49 39 80 60 31 21 68 45 82 54 14 9 40
23 58 31 22 10 32 21 32 36 0 12 4 24 9 28 10 6 166 7 221 1 19 -2 73 -9 120
-16 47 -7 99 -12 115 -13 17 0 35 -3 40 -7 17 -11 76 -11 132 1 64 13 72 8
104 -59 13 -26 31 -53 41 -60 10 -7 18 -18 18 -24 0 -7 18 -29 40 -49 22 -21
40 -42 40 -47 0 -5 13 -35 29 -67 17 -33 28 -62 25 -66 -2 -4 2 -9 8 -11 10
-4 13 -38 12 -134 -2 -150 -4 -179 -13 -168 -3 5 -28 27 -55 48 -26 22 -59 50
-72 63 -13 12 -28 23 -34 23 -5 0 -10 7 -10 16 0 8 -4 13 -9 10 -5 -3 -21 9
-37 27 -24 30 -32 33 -68 30 -23 -3 -45 -11 -49 -19 -4 -8 -12 -14 -18 -14 -5
0 -28 -12 -50 -26 -23 -14 -50 -24 -60 -21 -11 3 -19 0 -19 -6 0 -7 -31 -26
-68 -43 -160 -75 -222 -108 -302 -164 -47 -33 -88 -60 -91 -60 -6 0 -92 71
-157 130 -40 36 -44 38 -69 25 -52 -27 -57 -66 -13 -113 17 -18 30 -39 30 -45
0 -9 3 -9 8 1 11 16 121 -68 140 -109 21 -41 60 -39 111 6 21 19 43 35 49 35
6 0 12 3 14 8 6 14 135 105 195 138 12 7 35 15 52 19 16 3 35 12 41 20 6 8 25
17 41 20 16 4 29 10 29 15 0 4 12 11 28 15 15 3 50 17 79 31 55 25 83 30 83
14 0 -5 15 -16 33 -24 18 -7 45 -24 60 -37 15 -13 37 -32 50 -41 60 -46 87
-71 83 -75 -3 -3 8 -16 24 -30 31 -26 32 -39 14 -136 -8 -43 10 -89 32 -80 8
3 14 1 14 -4 0 -13 467 -8 509 6 27 8 292 9 396 0 19 -1 170 12 184 17 7 2 19
0 26 -6 15 -12 65 6 66 24 0 6 3 20 5 31 3 11 5 63 5 115 0 63 3 85 8 65 29
-115 190 -239 330 -254 87 -9 281 -2 281 10 0 3 19 14 43 25 23 10 44 21 47
24 3 3 25 18 50 34 66 42 108 90 146 167 44 89 51 160 21 232 -12 28 -25 54
-29 55 -4 2 -8 10 -8 17 0 17 -37 58 -68 74 -23 12 -41 18 -92 27 -41 8 -182
5 -230 -5 -163 -34 -279 -65 -302 -82 -15 -10 -31 -19 -35 -19 -10 0 -80 -65
-113 -106 -25 -30 -59 -50 -61 -36 0 4 -3 18 -6 32 -7 31 -9 164 -4 249 4 76
-8 91 -67 83 -20 -3 -57 -5 -82 -4 -150 1 -201 2 -255 0 -33 -1 -139 -1 -235
0 -222 2 -318 -3 -360 -21 -8 -4 -36 -11 -61 -15 l-46 -9 -34 68 c-19 38 -37
69 -41 69 -5 0 -8 9 -8 20 0 11 -4 19 -9 18 -11 -4 -81 99 -81 117 0 8 -13 29
-30 47 -16 18 -30 39 -30 48 0 8 -14 25 -31 36 l-30 21 -72 -19 c-81 -22 -147
-20 -327 11 -92 16 -194 24 -307 24 -26 0 -34 5 -42 29 -6 15 -17 31 -25 34
-8 3 -23 26 -32 50 -9 24 -20 44 -24 44 -4 0 -13 19 -20 41 -8 23 -16 36 -18
30 -3 -9 -10 -8 -26 2 -17 11 -26 12 -37 3 -45 -32 -52 -105 -14 -130 36 -23
31 -41 -17 -66 -23 -12 -55 -34 -71 -50 -15 -15 -52 -39 -81 -54 -47 -24 -56
-26 -82 -14 -16 7 -31 15 -34 18 -10 10 -72 40 -83 40 -7 0 -39 14 -72 30 -33
16 -66 30 -72 30 -7 0 -13 9 -13 20 0 25 17 21 -160 34 -113 9 -136 13 -137
29 0 7 -6 32 -13 57 -6 25 -14 54 -16 65 -5 18 2 23 48 34 108 28 159 85 221
246 14 37 29 208 29 332 1 64 -21 183 -33 183 -5 0 -9 6 -9 13 -1 12 -65 87
-75 87 -3 0 -22 7 -43 17 -20 9 -39 17 -42 17 -3 1 -14 7 -25 13 -34 18 -107
21 -150 6z m168 -131 c33 -15 51 -32 72 -68 24 -43 28 -62 30 -144 4 -131 -23
-318 -51 -350 -7 -8 -13 -17 -13 -20 0 -55 -87 -104 -168 -94 -63 7 -88 19
-127 58 -68 67 -108 188 -107 321 1 99 6 128 34 185 31 65 79 106 157 134 29
10 129 -3 173 -22z m-120 -1058 c9 -3 17 -13 17 -23 0 -12 10 -21 28 -24 15
-4 43 -21 63 -39 46 -41 137 -108 148 -108 12 0 21 -38 21 -91 0 -26 6 -84 14
-130 9 -49 15 -149 15 -239 0 -85 2 -166 6 -180 9 -34 9 -35 1 -115 -9 -79
-20 -99 -52 -91 -12 3 -63 -3 -114 -14 -74 -16 -114 -18 -202 -14 -60 3 -117
7 -126 9 -10 2 -20 4 -23 4 -3 1 -3 25 1 54 8 60 5 167 -9 276 -5 42 -9 92 -8
111 1 112 -7 407 -13 448 -5 26 -10 74 -11 107 l-4 60 69 2 c37 1 70 4 73 7 5
5 77 -2 106 -10z m240 -34 c4 -16 2 -18 -11 -10 -45 25 -48 30 -21 30 18 0 28
-6 32 -20z m732 -28 c1 -12 -9 -30 -22 -42 -13 -11 -23 -24 -23 -29 0 -5 -16
-16 -35 -25 -20 -10 -49 -29 -65 -44 -39 -37 -47 -42 -110 -82 -30 -19 -56
-38 -58 -42 -7 -15 -38 -8 -77 19 -63 42 -202 162 -209 179 -15 39 -8 44 42
27 26 -9 63 -26 82 -38 19 -12 50 -27 68 -34 18 -8 39 -22 46 -32 18 -26 66
-19 113 17 21 15 40 31 43 35 3 4 28 19 55 34 28 16 53 32 56 37 8 13 73 47
83 44 5 -1 10 -12 11 -24z m2035 -466 c19 -2 50 -10 68 -17 31 -13 32 -15 31
-74 -1 -33 2 -71 6 -85 4 -14 9 -100 12 -191 3 -129 1 -168 -9 -171 -27 -10
-163 -5 -170 6 -4 6 -8 7 -8 1 0 -6 -65 -11 -170 -13 -93 -2 -184 -5 -202 -9
-48 -8 -438 -9 -438 -1 0 4 13 14 29 22 33 18 38 28 37 76 -1 28 -5 36 -24 38
l-22 3 4 187 4 187 33 10 c19 6 39 13 45 17 6 4 55 10 109 13 54 3 99 6 101 7
4 5 527 -1 564 -6z m923 -99 c15 -6 27 -15 27 -19 0 -3 11 -5 25 -4 16 2 32
-6 49 -24 13 -16 22 -31 19 -34 -3 -3 0 -12 7 -21 7 -9 10 -18 7 -22 -4 -3 -3
-11 2 -17 21 -27 18 -59 -10 -116 -36 -75 -73 -110 -169 -158 -72 -36 -79 -37
-180 -37 -122 0 -205 25 -256 76 -16 17 -38 40 -50 52 -12 12 -24 40 -28 61
-14 72 61 173 142 191 17 3 32 10 32 15 0 5 26 14 58 21 31 7 65 16 74 21 9 4
43 11 75 14 32 4 59 8 61 9 9 8 91 2 115 -8z"/>
<path d="M4888 535 c-2 -2 -213 -6 -468 -9 -465 -6 -751 -11 -1165 -21 -121
-2 -393 -7 -605 -10 -212 -4 -428 -8 -480 -10 -52 -2 -457 -6 -900 -10 -443
-3 -821 -8 -841 -11 -20 -2 -47 -1 -60 4 -19 8 -26 5 -36 -16 -22 -41 -16 -71
15 -83 18 -7 153 -9 422 -5 487 8 1061 16 1445 21 160 2 418 7 575 10 241 5
920 11 1750 15 107 0 233 -2 280 -6 119 -8 129 -8 146 7 11 9 14 24 11 48 -5
40 -16 70 -26 72 -27 5 -60 7 -63 4z"/>
</g>
</svg>
