<?xml version="1.0" standalone="no"?>
<!DOCTYPE svg PUBLIC "-//W3C//DTD SVG 20010904//EN"
 "http://www.w3.org/TR/2001/REC-SVG-20010904/DTD/svg10.dtd">
<svg version="1.0" xmlns="http://www.w3.org/2000/svg"
 width="269.000000pt" height="285.000000pt" viewBox="0 0 269.000000 285.000000"
 preserveAspectRatio="xMidYMid meet">
<metadata>
Created by potrace 1.16, written by Peter Selinger 2001-2019
</metadata>
<g transform="translate(0.000000,285.000000) scale(0.100000,-0.100000)"
fill="#000000" stroke="none">
<path d="M840 2520 c-8 -5 -24 -10 -35 -10 -38 -1 -127 -72 -156 -125 -25 -45
-28 -60 -28 -152 -1 -58 3 -104 9 -108 6 -3 10 -13 10 -21 0 -23 68 -86 117
-109 44 -20 60 -42 45 -57 -5 -5 -38 -11 -75 -15 -84 -7 -84 -8 -92 -223 -4
-91 -9 -168 -11 -171 -1 -3 -4 -132 -5 -287 -3 -278 -2 -282 19 -300 12 -11
22 -24 22 -31 0 -6 5 -11 10 -11 6 0 47 -37 92 -82 l81 -81 -7 -161 c-4 -89
-11 -208 -15 -266 -8 -121 -3 -131 63 -129 64 2 91 12 94 37 4 23 -10 28 -72
23 l-28 -3 6 79 c4 43 11 119 15 168 12 138 6 299 -12 325 -8 12 -45 53 -82
91 -37 38 -66 71 -64 74 3 2 48 6 102 8 l97 5 42 -33 c49 -38 90 -82 118 -128
18 -29 20 -50 19 -197 0 -91 -4 -201 -8 -245 -9 -101 2 -185 26 -203 38 -27
163 -8 163 26 0 13 -48 32 -65 26 -8 -4 -27 1 -41 11 l-26 17 7 121 c9 168 12
353 7 409 -3 36 -12 56 -35 82 -18 19 -41 45 -51 58 -10 13 -26 31 -34 41 -14
16 -14 19 1 30 13 10 17 43 22 177 4 91 10 168 14 173 4 4 21 -13 39 -38 31
-44 57 -56 78 -35 11 11 69 43 162 91 l63 31 35 -18 c27 -15 33 -23 28 -39 -4
-11 -11 -21 -15 -23 -14 -6 -11 -16 12 -41 19 -20 20 -28 11 -56 -8 -28 -7
-37 10 -54 10 -12 25 -21 32 -21 22 0 24 -20 13 -119 -7 -63 -7 -98 -1 -109 8
-11 5 -30 -8 -64 -23 -61 -24 -275 -3 -453 15 -129 12 -140 -33 -130 -23 6
-52 -9 -52 -26 0 -23 35 -39 84 -39 71 0 92 16 78 61 -23 76 -31 163 -32 353
l-1 198 26 34 c25 33 28 34 100 34 69 0 75 -2 93 -27 36 -52 51 -167 56 -412
4 -203 1 -197 116 -231 85 -25 90 -25 90 4 0 33 -14 41 -86 53 -19 3 -36 14
-42 26 -6 12 -14 94 -17 182 -3 88 -9 221 -14 295 -6 103 -5 142 5 165 11 28
22 112 23 187 1 20 7 28 29 33 47 11 66 31 64 70 -3 44 -4 82 -2 120 1 17 1
43 0 59 -2 15 2 31 8 35 16 10 25 58 13 65 -19 12 -12 30 32 76 81 85 89 103
99 213 7 87 6 103 -8 119 -10 10 -24 18 -32 18 -14 0 -13 56 3 160 5 29 1 38
-19 52 -40 29 -51 15 -66 -82 -13 -93 -20 -102 -59 -81 -25 14 -44 -3 -46 -41
-3 -51 -45 -220 -62 -248 -8 -14 -17 -32 -20 -42 -3 -12 -20 -17 -56 -20 -29
-3 -60 -8 -69 -12 -13 -6 -18 -4 -18 6 0 8 18 23 40 33 22 10 40 21 40 25 0 5
11 18 25 31 59 55 87 170 63 263 -27 105 -154 189 -227 151 -16 -8 -45 -34
-63 -57 -84 -105 -72 -301 23 -389 45 -42 51 -69 16 -69 -28 0 -61 60 -97 178
-13 40 -27 75 -31 78 -5 3 -9 18 -9 33 0 20 -11 37 -37 60 -20 17 -39 31 -43
31 -6 0 -38 126 -42 170 -2 19 -10 26 -29 28 -35 4 -42 -23 -23 -94 20 -77 18
-111 -6 -126 -16 -10 -20 -24 -20 -65 0 -55 15 -135 33 -168 7 -13 6 -20 -2
-23 -6 -2 -18 -10 -26 -18 -8 -8 -36 -22 -64 -31 -45 -14 -51 -14 -65 0 -9 9
-16 18 -16 22 0 3 -12 18 -26 33 -14 15 -42 55 -62 89 -31 54 -41 64 -72 69
-76 13 -155 42 -158 58 -2 11 4 16 18 16 54 0 160 77 160 116 0 8 4 14 9 14 5
0 11 8 14 18 4 9 13 35 21 57 18 45 21 121 6 130 -5 3 -10 17 -10 30 0 13 -5
36 -12 50 -17 37 -97 124 -130 141 -31 16 -76 18 -98 4z m61 -70 c27 -8 49
-25 79 -65 40 -51 41 -57 42 -127 2 -178 -103 -270 -237 -207 -54 26 -78 57
-95 125 -27 107 22 221 113 263 51 23 53 24 98 11z m833 -401 c48 -22 84 -142
71 -234 -5 -29 -18 -57 -39 -81 -32 -36 -32 -37 -62 -21 -54 28 -68 61 -68
162 -1 56 4 103 13 125 26 63 38 70 85 49z m-272 -127 c8 -9 21 -37 28 -62 7
-25 17 -49 22 -54 4 -6 8 -17 8 -27 0 -30 61 -164 85 -186 26 -25 92 -38 111
-22 17 14 48 20 137 26 l77 6 24 81 c12 44 32 117 43 161 16 69 22 80 39 77
10 -2 21 -8 24 -12 3 -5 22 -11 43 -15 l37 -7 0 -69 c0 -37 -5 -81 -12 -96
-20 -46 -60 -103 -72 -103 -6 0 -26 -24 -45 -52 -28 -43 -32 -55 -22 -71 10
-15 9 -23 -3 -42 -18 -28 -21 -61 -5 -70 11 -8 3 -59 -14 -86 -8 -13 -6 -21 6
-34 43 -42 3 -57 -147 -55 -66 2 -151 3 -188 4 -72 1 -73 1 -59 39 8 20 6 30
-9 47 -13 15 -17 31 -13 53 4 27 0 36 -26 55 l-32 23 22 31 c25 34 19 55 -19
73 -12 5 -31 30 -43 55 -11 25 -25 53 -30 62 -5 10 -9 29 -9 43 0 14 -4 25 -9
25 -5 0 -12 15 -15 33 -15 75 -25 153 -20 168 6 22 67 23 86 1z m-523 -85 l75
-12 12 -47 c12 -47 20 -258 9 -258 -11 0 -59 47 -85 85 -16 22 -41 54 -55 70
-15 17 -39 46 -54 65 -14 19 -28 37 -32 40 -11 10 -39 55 -39 62 0 11 83 9
169 -5z m-193 -49 c17 -18 47 -54 68 -80 20 -26 43 -53 49 -60 7 -7 27 -33 44
-58 17 -25 50 -65 73 -90 l42 -45 -1 -100 c-1 -55 -4 -113 -6 -130 -2 -16 -7
-59 -10 -95 -3 -35 -8 -67 -11 -69 -3 -3 -26 -6 -52 -7 -26 -2 -91 -6 -144
-10 l-97 -7 -12 29 c-8 21 -10 115 -5 329 6 303 13 425 25 425 4 0 21 -15 37
-32z m385 -100 c11 -13 26 -38 34 -55 17 -40 34 -41 101 -9 27 13 63 26 79 30
29 6 31 4 64 -69 20 -44 41 -77 52 -80 27 -9 6 -45 -25 -45 -13 0 -29 -7 -36
-15 -17 -21 -116 -80 -167 -100 -38 -15 -44 -15 -58 -2 -8 9 -15 19 -15 24 0
4 -8 13 -18 20 -38 23 -48 70 -44 201 2 67 6 122 9 122 3 0 13 -10 24 -22z
m689 -532 l55 -1 -2 -55 c-2 -30 -5 -74 -8 -96 l-6 -41 -52 -7 c-72 -8 -139
-7 -155 2 -9 6 -13 37 -14 96 -1 91 7 111 43 102 9 -2 23 0 30 5 8 5 23 6 34
2 11 -4 45 -7 75 -7z"/>
</g>
</svg>
