<?xml version="1.0" standalone="no"?>
<!DOCTYPE svg PUBLIC "-//W3C//DTD SVG 20010904//EN"
 "http://www.w3.org/TR/2001/REC-SVG-20010904/DTD/svg10.dtd">
<svg version="1.0" xmlns="http://www.w3.org/2000/svg"
 width="547.000000pt" height="409.000000pt" viewBox="0 0 547.000000 409.000000"
 preserveAspectRatio="xMidYMid meet">
<metadata>
Created by potrace 1.16, written by Peter Selinger 2001-2019
</metadata>
<g transform="translate(0.000000,409.000000) scale(0.100000,-0.100000)"
fill="#000000" stroke="none">
<path d="M2039 3535 c-50 -15 -111 -60 -139 -102 -14 -21 -31 -44 -39 -52 -54
-57 -72 -209 -37 -311 24 -70 55 -111 125 -164 51 -39 61 -42 118 -43 35 -1
65 3 69 8 3 5 10 7 15 4 5 -4 9 -2 9 3 0 5 14 15 30 22 17 7 30 17 30 22 0 5
22 41 50 81 l49 73 2 126 c3 160 -15 230 -78 294 -39 40 -45 42 -106 46 -36 1
-80 -2 -98 -7z m101 -107 c32 2 41 -5 62 -48 27 -58 28 -66 18 -176 -9 -97
-12 -110 -43 -152 -56 -78 -124 -96 -174 -45 -13 12 -28 23 -33 23 -6 0 -10 5
-10 10 0 6 -10 24 -22 40 -17 24 -22 46 -24 107 -2 70 1 84 28 135 28 52 39
64 61 66 4 1 22 13 39 27 22 18 36 24 52 19 11 -4 32 -7 46 -6z"/>
<path d="M3624 3527 c-27 -11 -67 -22 -89 -27 -48 -10 -91 -55 -130 -137 -30
-63 -59 -202 -50 -241 3 -15 7 -36 9 -47 15 -75 95 -169 159 -186 77 -21 139
-14 198 22 64 39 76 50 89 81 6 13 24 44 40 70 26 42 29 57 30 130 3 189 0
229 -20 253 -8 9 -19 27 -25 38 -6 12 -26 32 -45 44 -40 28 -92 28 -166 0z
m131 -111 c4 -11 9 -28 11 -36 3 -8 6 -65 8 -127 3 -123 -2 -138 -72 -218 -32
-36 -37 -38 -92 -37 -68 0 -97 17 -131 76 -18 32 -21 48 -16 95 12 115 26 153
64 178 15 10 35 24 43 32 25 24 106 57 143 58 28 1 37 -4 42 -21z"/>
<path d="M3445 2842 c-11 -2 -22 -7 -25 -11 -11 -14 -98 -81 -105 -81 -10 0
-82 -47 -103 -67 -6 -6 -20 -14 -30 -17 -25 -8 -53 -58 -42 -76 5 -8 6 -18 4
-22 -3 -5 2 -11 10 -14 9 -3 16 -11 16 -18 0 -6 11 -23 25 -38 14 -15 25 -32
25 -38 0 -5 4 -10 9 -10 5 0 22 -21 37 -47 15 -27 37 -58 48 -69 12 -12 39
-42 60 -68 31 -36 46 -46 70 -46 67 0 64 100 -5 146 -16 10 -29 25 -29 32 0 6
-4 12 -9 12 -9 0 -60 64 -109 138 l-24 35 29 28 c15 15 55 42 88 59 l60 30 8
-37 c4 -21 9 -51 11 -68 3 -16 11 -59 19 -95 8 -36 15 -72 15 -80 0 -21 11
-109 18 -145 4 -16 14 -43 22 -58 14 -23 21 -27 44 -21 23 5 28 2 28 -15 0
-11 4 -22 9 -25 8 -5 15 -32 27 -106 1 -8 7 -43 13 -77 6 -34 13 -98 16 -143
4 -92 23 -121 71 -112 47 9 56 37 38 130 -24 126 -18 136 36 67 25 -31 57 -70
72 -86 15 -17 30 -39 33 -50 4 -10 11 -19 16 -19 5 0 9 -8 9 -19 0 -17 15 -27
72 -44 43 -14 67 58 35 106 -9 15 -17 33 -17 42 0 8 -7 15 -15 15 -7 0 -18 6
-22 14 -7 11 -80 94 -170 192 -12 13 -50 60 -83 104 -47 62 -66 80 -86 80
l-24 0 20 40 c33 64 61 141 67 183 3 22 11 55 19 73 8 18 14 56 14 84 0 27 4
50 8 50 18 0 91 -60 108 -89 10 -16 21 -28 26 -25 4 3 8 0 8 -5 0 -6 -5 -11
-10 -11 -6 0 -9 -3 -8 -7 3 -7 -33 -90 -67 -156 -8 -16 -15 -37 -15 -47 0 -11
-6 -23 -13 -27 -15 -9 -47 -74 -47 -95 1 -18 21 -42 46 -56 18 -9 24 -8 40 11
23 26 60 101 103 207 16 41 44 100 61 132 30 56 30 57 14 97 -9 23 -22 40 -30
39 -7 -2 -28 13 -46 32 -18 20 -53 51 -78 69 -25 19 -56 46 -70 61 -14 15 -37
31 -52 34 -37 8 -46 -11 -73 -163 -12 -70 -26 -137 -29 -151 -4 -14 -10 -42
-13 -63 -6 -43 -23 -60 -23 -25 0 13 -13 90 -30 171 -16 81 -30 157 -30 168 0
23 -22 49 -42 49 -8 0 -18 4 -23 8 -6 5 -19 7 -30 4z"/>
<path d="M1850 2830 c-19 -5 -42 -18 -51 -29 -10 -12 -20 -21 -24 -21 -3 0
-12 -6 -20 -12 -22 -21 -67 -56 -127 -99 -60 -42 -71 -67 -48 -107 5 -9 15
-28 20 -42 20 -47 81 -136 128 -187 12 -13 22 -28 22 -32 0 -18 56 -69 82 -75
21 -5 30 -1 42 16 24 34 19 64 -17 105 -19 21 -47 58 -64 83 -17 25 -42 56
-57 69 -23 21 -54 87 -44 95 1 2 30 21 63 42 33 20 65 45 72 53 11 14 13 14
13 1 3 -40 70 -325 95 -405 7 -22 16 -61 19 -87 7 -45 8 -47 47 -53 48 -8 73
9 89 64 6 20 20 52 30 71 21 40 37 97 45 155 2 22 7 58 10 80 4 22 8 51 9 65
4 32 27 113 36 123 8 10 158 -16 189 -32 12 -7 20 -18 18 -24 -3 -7 -21 -55
-42 -107 -20 -52 -49 -120 -63 -150 -14 -30 -25 -58 -24 -62 1 -4 -12 -19 -28
-35 -30 -28 -35 -48 -24 -90 6 -22 47 -42 75 -36 16 4 51 75 114 233 21 52 41
97 44 100 8 7 62 159 68 192 8 44 -26 65 -142 89 -33 7 -64 16 -69 21 -6 4
-22 8 -36 8 -15 0 -30 3 -33 7 -4 3 -23 8 -43 10 -20 2 -39 4 -43 5 -41 5 -54
-13 -64 -88 -3 -22 -15 -75 -26 -117 -12 -42 -21 -95 -21 -118 0 -47 -30 -169
-42 -169 -4 0 -7 3 -6 8 1 4 -10 45 -24 92 -14 47 -31 119 -38 160 -27 178
-33 206 -48 223 -8 9 -18 17 -21 16 -3 -1 -22 -5 -41 -9z"/>
<path d="M3856 2504 c-5 -14 -4 -15 9 -4 17 14 19 20 6 20 -5 0 -12 -7 -15
-16z"/>
<path d="M4743 2476 c-17 -6 -35 -14 -39 -18 -4 -5 -16 -8 -26 -8 -26 0 -54
-31 -69 -76 -6 -22 -19 -54 -27 -73 -19 -45 -21 -128 -4 -225 15 -90 31 -126
66 -154 14 -11 22 -22 19 -26 -3 -3 3 -6 15 -6 12 0 22 -4 22 -9 0 -6 19 -11
43 -13 l42 -3 1 -45 c0 -25 3 -63 7 -85 4 -22 9 -73 13 -112 l5 -73 -43 -1
c-49 -1 -113 -7 -143 -13 -11 -3 -30 -5 -42 -5 -26 -1 -63 -37 -63 -62 0 -10
11 -35 25 -55 14 -20 25 -32 25 -27 0 6 17 14 38 18 20 4 42 10 47 15 18 14
165 18 165 4 0 -7 -21 -15 -50 -19 -27 -4 -50 -11 -50 -16 0 -5 -6 -9 -13 -9
-6 0 -33 -11 -59 -25 -27 -14 -50 -25 -54 -24 -18 4 -61 -44 -72 -81 -20 -67
-42 -197 -49 -290 -3 -47 -7 -87 -9 -89 -2 -2 -14 0 -26 6 -14 6 -39 6 -68 1
-25 -5 -58 -9 -75 -9 -32 -1 -75 -17 -87 -34 -4 -5 -8 -24 -8 -40 0 -25 6 -33
33 -44 36 -15 65 -14 85 2 15 12 129 14 188 3 38 -8 44 -6 58 16 11 17 16 44
15 79 -4 94 13 262 29 304 24 62 51 95 83 102 16 3 32 10 35 14 3 5 16 9 29 9
14 0 40 9 59 20 19 10 44 17 54 15 26 -5 58 19 78 56 14 29 14 32 -5 48 -27
24 -13 42 46 57 66 18 76 17 68 -3 -3 -10 -8 -39 -10 -65 -2 -38 -20 -83 -62
-157 -1 -2 -60 -3 -129 -2 -159 2 -162 0 -162 -115 -1 -43 -3 -90 -6 -103 -3
-14 -8 -45 -11 -70 -3 -25 -11 -83 -19 -127 -16 -91 -16 -100 4 -132 17 -25
26 -27 63 -9 23 10 27 18 27 57 0 25 5 61 10 80 6 19 15 71 20 115 5 44 12 98
16 120 4 22 7 46 7 53 0 10 31 17 58 14 4 -1 36 -2 72 -3 36 -1 69 -5 74 -8 8
-6 47 -62 49 -71 0 -3 6 -16 11 -30 35 -81 73 -176 73 -184 0 -4 14 -26 31
-47 25 -32 34 -37 45 -28 8 6 14 8 14 5 0 -4 9 -2 20 4 13 7 20 21 20 39 0 42
-31 131 -46 131 -7 0 -20 24 -30 53 -23 72 -70 172 -90 191 -12 13 -13 20 -4
31 6 8 17 38 25 67 7 29 18 67 23 83 10 30 41 153 68 270 8 33 16 69 19 80 5
17 26 129 42 217 3 15 3 38 -1 50 -6 27 -46 49 -63 35 -42 -35 -51 -47 -46
-66 3 -11 -2 -48 -10 -83 -8 -35 -20 -90 -27 -123 -18 -90 -27 -110 -45 -95
-8 7 -15 17 -15 22 0 31 -132 178 -160 178 -23 0 -33 58 -15 80 29 35 59 109
63 160 9 89 6 189 -6 213 -6 12 -18 44 -28 70 -25 71 -61 107 -109 111 -22 2
-54 -2 -72 -8z m57 -110 c0 -8 6 -16 13 -19 44 -17 63 -223 26 -297 -36 -74
-69 -83 -122 -37 -21 18 -28 34 -33 87 -16 146 -9 192 35 243 30 34 81 49 81
23z m174 -714 c42 -64 43 -69 14 -71 -13 -1 -34 -2 -48 -4 -23 -2 -25 1 -27
48 -1 28 -4 62 -7 77 -5 25 -4 27 13 16 11 -6 35 -36 55 -66z"/>
<path d="M3473 2194 c-25 -13 -66 -77 -68 -106 0 -4 -8 -17 -18 -28 -22 -26
-38 -65 -43 -105 -4 -28 -15 -60 -35 -95 -26 -46 -59 -121 -59 -132 0 -8 -6
-20 -12 -26 -34 -34 5 -85 62 -80 31 3 36 7 48 43 7 22 21 58 31 80 17 36 32
72 36 85 1 3 7 25 14 50 7 24 24 67 38 94 21 42 27 47 35 32 15 -28 25 -256
12 -278 -10 -16 17 -77 37 -83 35 -12 66 2 72 32 11 55 -14 384 -34 456 -7 26
-15 37 -29 37 -11 0 -20 3 -20 8 0 4 -8 12 -18 19 -15 9 -26 8 -49 -3z"/>
<path d="M2105 2178 c-7 -27 -3 -51 14 -92 6 -16 10 -43 8 -60 -3 -28 6 -77
32 -166 13 -47 20 -104 21 -167 0 -39 5 -58 20 -73 26 -26 58 -25 81 2 22 25
22 26 4 103 -8 33 -15 78 -15 99 0 22 -9 73 -21 114 -11 40 -19 76 -16 78 2 2
17 -15 32 -38 15 -24 49 -68 74 -98 25 -30 55 -71 65 -90 10 -19 26 -43 35
-53 9 -10 27 -42 41 -70 31 -64 71 -88 101 -61 36 32 23 96 -31 157 -23 26
-61 87 -92 145 -6 12 -28 40 -48 62 -20 21 -47 63 -61 92 -13 29 -31 58 -39
65 -19 15 -55 16 -81 3 -16 -9 -21 -7 -28 13 -22 57 -85 79 -96 35z"/>
<path d="M1838 2133 c-8 -10 -25 -45 -38 -78 -13 -33 -28 -73 -35 -90 -7 -16
-18 -46 -25 -65 -7 -19 -26 -63 -42 -97 -15 -34 -28 -65 -28 -69 0 -8 -29 -73
-58 -130 -18 -37 -12 -57 22 -79 42 -28 78 -9 93 49 6 26 17 53 22 60 6 7 24
51 40 97 16 46 41 116 56 154 14 39 28 77 30 85 4 19 38 93 46 100 3 3 6 19 6
37 0 23 -6 33 -21 37 -35 10 -52 7 -68 -11z"/>
<path d="M1978 2118 c-27 -9 -28 -12 -29 -91 -2 -107 0 -122 16 -182 8 -27 16
-86 19 -131 6 -86 20 -139 35 -129 5 3 12 1 16 -4 6 -11 34 -3 50 13 19 20 11
133 -18 274 -8 34 -13 100 -13 145 2 101 -16 125 -76 105z"/>
<path d="M605 1941 c-3 -6 -13 -11 -22 -11 -24 0 -103 -69 -103 -89 0 -9 -14
-44 -32 -77 -31 -57 -32 -63 -33 -184 0 -115 2 -130 27 -182 l26 -57 -25 -48
c-31 -57 -64 -106 -69 -100 -2 2 -6 26 -8 53 -2 27 -7 87 -11 134 -3 47 -7
138 -8 202 -1 64 -5 119 -8 123 -9 8 -67 10 -75 2 -16 -16 -22 -95 -18 -235 2
-86 7 -168 10 -182 2 -14 7 -104 10 -200 10 -372 10 -373 28 -385 9 -7 16 -17
16 -24 0 -6 7 -11 16 -11 15 0 16 -11 10 -93 -11 -152 -16 -207 -32 -325 -8
-62 -13 -120 -10 -130 3 -9 19 -25 36 -34 29 -16 31 -16 55 5 22 20 25 32 30
127 3 58 8 123 10 145 4 37 17 223 18 253 0 17 118 7 158 -13 14 -8 29 -12 32
-8 3 3 21 0 39 -7 18 -6 56 -14 83 -17 28 -3 52 -7 53 -8 2 -2 5 -18 7 -37 2
-18 13 -64 25 -103 11 -38 25 -105 30 -147 13 -107 32 -140 79 -132 48 9 56
26 42 91 -7 32 -14 69 -16 83 -12 84 -18 117 -25 130 -4 8 -11 29 -14 45 -9
48 -23 107 -36 148 -9 31 -16 37 -38 38 -45 0 -116 11 -132 19 -8 4 -39 11
-67 15 -29 4 -53 12 -53 17 0 7 19 9 53 5 28 -3 77 -2 107 2 38 6 69 4 100 -5
25 -8 54 -14 66 -14 23 0 39 -28 50 -87 4 -21 10 -45 15 -54 5 -9 13 -41 18
-70 5 -30 15 -76 20 -102 12 -54 19 -101 26 -165 3 -24 13 -53 22 -65 16 -20
26 -22 93 -19 47 2 83 -2 98 -10 21 -11 26 -10 37 5 7 9 17 17 23 17 20 0 33
37 23 63 -13 33 -15 34 -101 41 -41 3 -77 9 -81 14 -5 4 -11 23 -14 42 -24
136 -58 286 -79 350 -14 41 -26 82 -26 91 0 34 -45 61 -111 64 -35 2 -65 9
-67 14 -2 6 -48 8 -121 4 -118 -5 -118 -5 -124 18 -12 43 -8 66 11 66 9 0 22
-4 29 -9 7 -5 17 -7 22 -4 5 4 36 -3 68 -14 31 -11 71 -20 88 -20 18 0 35 -3
39 -7 3 -4 14 -8 24 -9 9 -1 31 -4 49 -8 46 -9 79 7 86 41 7 35 -16 73 -44 73
-11 0 -35 6 -54 14 -19 8 -37 11 -40 7 -6 -10 -93 5 -109 18 -7 6 -34 13 -61
16 -28 3 -65 11 -84 17 l-33 10 4 89 c3 67 8 93 22 108 11 12 16 29 13 41 -3
11 0 20 5 20 6 0 40 28 77 62 82 77 110 140 113 257 2 115 -19 195 -63 242
-20 22 -44 39 -53 39 -9 0 -16 4 -16 8 0 5 -6 9 -12 10 -7 0 -34 4 -60 7 -28
4 -49 2 -53 -4z m93 -112 c23 -8 35 -21 46 -52 18 -48 27 -155 15 -163 -5 -3
-9 -20 -9 -38 0 -18 -8 -41 -18 -52 -9 -10 -25 -31 -35 -46 -9 -15 -36 -37
-58 -49 -84 -42 -121 7 -121 159 0 88 45 215 87 244 15 11 57 10 93 -3z m-173
-630 c-4 -6 -7 -38 -6 -71 0 -50 -2 -59 -15 -54 -9 3 -24 6 -35 6 -21 0 -38
28 -23 39 5 3 22 25 38 49 16 23 33 42 38 42 5 0 6 -5 3 -11z m-64 -231 l58
-12 5 -45 c3 -25 4 -57 2 -70 -1 -14 1 -42 4 -63 7 -36 6 -38 -14 -32 -11 4
-22 10 -24 15 -2 4 -17 6 -33 2 -17 -3 -29 -1 -29 5 0 5 -11 13 -24 16 -23 6
-24 10 -25 101 -2 106 -7 101 80 83z"/>
</g>
</svg>
