<?xml version="1.0" standalone="no"?>
<!DOCTYPE svg PUBLIC "-//W3C//DTD SVG 20010904//EN"
 "http://www.w3.org/TR/2001/REC-SVG-20010904/DTD/svg10.dtd">
<svg version="1.0" xmlns="http://www.w3.org/2000/svg"
 width="549.000000pt" height="449.000000pt" viewBox="0 0 549.000000 449.000000"
 preserveAspectRatio="xMidYMid meet">
<metadata>
Created by potrace 1.16, written by Peter Selinger 2001-2019
</metadata>
<g transform="translate(0.000000,449.000000) scale(0.100000,-0.100000)"
fill="#000000" stroke="none">
<path d="M1797 3394 c-2 -2 -326 -5 -720 -7 -539 -2 -720 -6 -729 -15 -7 -7
-28 -12 -48 -12 -26 0 -42 -7 -61 -27 -14 -16 -34 -34 -45 -41 -19 -13 -20
-23 -17 -180 4 -302 12 -1189 14 -1590 1 -216 5 -411 9 -433 4 -21 5 -39 1
-39 -6 0 -6 -285 1 -495 3 -72 2 -175 -1 -230 -7 -103 0 -131 39 -162 18 -15
86 -17 95 -4 3 6 237 8 598 5 765 -5 3218 -15 3765 -15 438 0 441 0 466 40 10
17 12 514 2 981 -8 426 -17 1331 -16 1742 l0 318 -29 64 c-23 50 -35 67 -56
72 -14 3 -29 4 -32 0 -4 -3 -15 2 -26 11 -18 17 -71 18 -851 16 -1356 -4
-2278 -4 -2318 0 -21 2 -39 2 -41 1z m-193 -164 l211 -1 0 -52 c0 -29 4 -164
8 -302 11 -309 14 -427 22 -820 3 -170 8 -410 10 -533 4 -149 2 -221 -5 -217
-5 3 -10 1 -10 -6 0 -8 -4 -8 -15 1 -8 7 -15 8 -15 3 0 -9 -191 -8 -325 2
-131 9 -288 19 -320 19 l-30 0 -1 175 c-1 97 -6 387 -10 646 -8 473 -9 825 -3
989 l4 88 114 4 c63 3 117 7 120 9 3 3 11 3 19 0 8 -3 109 -5 226 -5z m3354 3
c-14 -3 -16 -14 -13 -61 2 -31 7 -230 10 -442 3 -212 7 -449 9 -527 l3 -142
-26 -5 c-38 -8 -1056 -5 -1123 3 -32 4 -61 11 -65 15 -8 8 -12 159 -18 756 -2
195 -1 365 2 377 4 18 13 23 51 25 74 5 1189 6 1170 1z m-3906 -58 c2 -27 5
-156 6 -285 2 -129 5 -291 8 -359 4 -106 2 -126 -12 -142 -9 -10 -20 -16 -25
-14 -4 3 -172 6 -373 6 l-366 1 -1 152 c-3 246 -3 403 0 546 l2 135 332 3
c183 2 333 4 334 5 1 1 22 2 46 2 l45 0 4 -50z m1663 45 c8 -13 14 -196 20
-670 l7 -445 -249 -2 c-180 -1 -250 2 -255 10 -6 9 -8 8 -8 -1 0 -10 -10 -12
-38 -7 -21 3 -97 7 -170 7 l-133 1 1 101 c1 120 -10 436 -15 454 -3 6 -1 12 3
12 4 0 6 114 4 254 -2 165 0 261 7 274 10 19 23 20 416 20 223 0 407 -3 410
-8z m959 -52 c3 -35 8 -259 11 -498 3 -239 8 -576 11 -747 5 -298 5 -313 -13
-314 -60 -2 -307 1 -310 4 -2 2 13 25 32 50 20 26 31 47 25 47 -5 0 -10 12
-10 26 0 23 -3 26 -26 21 -25 -4 -25 -4 -6 17 48 53 112 196 112 249 0 15 7
44 15 64 8 19 15 44 15 54 0 11 4 19 9 19 5 0 24 26 41 57 60 106 51 228 -14
203 -22 -8 -25 -6 -30 26 -4 19 -4 39 -1 44 3 6 0 10 -8 10 -8 0 -18 7 -21 16
-5 14 -9 13 -24 -7 -29 -39 -51 -99 -67 -188 -8 -47 -22 -92 -29 -100 -14 -16
-57 -90 -93 -161 -10 -19 -21 -37 -26 -38 -4 -2 -5 -8 -2 -13 3 -5 2 -17 -3
-26 -6 -10 -13 -40 -16 -67 -4 -27 -12 -59 -19 -70 -6 -12 -10 -25 -9 -30 2
-5 -1 -12 -5 -15 -22 -16 -73 -102 -73 -123 0 -12 -3 -33 -6 -46 -6 -21 -10
-22 -73 -18 -36 3 -105 5 -154 6 -85 0 -88 1 -97 26 -8 21 -17 372 -10 397 6
20 5 33 -2 43 -10 14 -16 1115 -6 1130 5 7 141 11 441 13 l435 2 6 -63z
m-2632 -861 l27 -3 6 -240 c5 -264 14 -837 20 -1420 l4 -380 -386 3 c-287 2
-388 5 -394 14 -4 7 -7 150 -7 318 0 168 -2 443 -6 611 -3 168 -8 481 -11 697
l-6 392 33 9 c30 9 654 8 720 -1z m2486 -47 c-12 -24 -24 -38 -26 -32 -2 7
-10 12 -18 12 -8 0 -14 9 -14 19 0 13 5 18 18 14 10 -2 26 5 36 16 27 30 28
21 4 -29z m-62 -115 c3 -8 0 -31 -7 -52 -7 -21 -13 -48 -15 -60 -4 -38 -16
-88 -23 -93 -3 -3 -17 -25 -30 -50 -33 -61 -80 -103 -98 -88 -8 7 -11 19 -7
32 4 12 8 28 9 36 0 9 4 20 7 25 3 6 9 28 13 50 9 50 73 175 94 183 9 3 20 11
24 19 11 17 26 17 33 -2z m-1126 -110 c168 -3 321 -6 340 -5 19 0 41 -4 48 -9
16 -10 18 -67 28 -916 8 -636 7 -744 -7 -761 -5 -7 -5 -24 2 -44 15 -43 8 -46
-93 -43 -46 1 -226 3 -400 3 l-317 1 3 29 c2 16 1 32 -3 36 -3 3 -7 47 -8 97
-1 51 -4 182 -8 292 -3 110 -7 283 -10 385 -9 445 -16 673 -20 786 -3 66 -3
127 0 136 4 10 21 15 52 17 26 1 48 3 50 5 2 2 12 2 21 0 9 -2 154 -6 322 -9z
m2150 -59 c250 -3 460 -6 467 -7 7 -1 11 -25 11 -63 -1 -34 3 -324 7 -646 7
-510 9 -822 6 -952 l-1 -37 -212 -1 c-117 0 -389 -3 -605 -5 l-392 -4 9 23 c5
13 6 27 2 30 -3 4 -7 80 -8 169 -2 89 -5 230 -8 312 -3 83 -8 383 -12 667 l-6
517 33 3 c19 2 84 2 144 1 61 -2 315 -5 565 -7z m-1127 -256 c-7 -25 -19 -34
-28 -20 -7 11 11 40 25 40 5 0 6 -9 3 -20z m-119 -9 c-10 -10 -21 -16 -24 -14
-3 3 4 11 14 19 28 20 33 17 10 -5z m11 -91 c3 -5 -3 -10 -15 -10 -12 0 -18 5
-15 10 3 6 10 10 15 10 5 0 12 -4 15 -10z m130 -84 c149 -3 281 -9 293 -13
l22 -9 5 -354 c6 -492 7 -831 1 -837 -2 -2 0 -17 4 -33 l8 -29 -281 -1 c-155
-1 -291 -2 -302 -3 -11 0 -84 0 -162 1 l-141 2 2 32 c1 18 5 38 9 45 4 6 2 13
-3 15 -12 4 -16 78 -26 508 -5 231 -7 488 -4 672 0 8 158 14 250 11 30 -1 177
-5 325 -7z m-1765 -301 c147 -9 226 -17 233 -24 14 -14 26 -919 13 -940 -7
-11 -69 -12 -346 -8 -186 3 -343 8 -348 11 -6 4 -10 14 -10 24 1 9 -2 87 -6
172 -14 315 -16 753 -4 768 10 12 45 13 213 7 110 -4 225 -8 255 -10z"/>
<path d="M1471 3049 c-18 -11 -39 -18 -46 -15 -19 7 -81 -62 -105 -116 -11
-25 -25 -48 -30 -50 -5 -2 -11 -29 -14 -61 -4 -53 -3 -59 18 -69 19 -8 33 -5
72 16 27 14 52 26 56 26 13 0 174 98 187 114 19 23 2 116 -24 130 -11 6 -22
14 -25 17 -5 6 -46 29 -52 29 -2 0 -18 -9 -37 -21z m61 -71 c33 -33 31 -50
-10 -78 -45 -29 -153 -82 -159 -77 -2 3 0 23 5 45 11 46 49 100 72 102 8 0 26
7 40 15 31 18 26 19 52 -7z"/>
<path d="M1554 2630 c-26 -10 -96 -92 -102 -117 -15 -69 -14 -80 13 -102 33
-25 57 -26 115 -6 23 8 54 15 69 15 69 1 107 65 70 120 -9 14 -19 35 -23 47
-4 12 -23 28 -47 37 -44 18 -64 19 -95 6z m68 -69 c6 -1 38 -58 38 -68 0 -2
-16 -2 -35 0 -19 3 -35 1 -35 -3 0 -11 -60 -31 -71 -24 -11 7 -6 44 8 52 5 4
15 17 22 29 10 20 22 23 73 14z"/>
<path d="M1397 2296 c-47 -23 -89 -61 -95 -86 -2 -8 -11 -25 -21 -39 -36 -52
-33 -109 8 -130 15 -9 33 -4 91 26 54 28 76 34 88 27 27 -16 51 -5 68 32 14
30 15 40 3 80 -8 26 -20 49 -26 51 -7 3 -13 15 -13 28 0 15 -8 25 -22 29 -29
7 -25 8 -81 -18z m53 -61 c0 -9 6 -18 13 -21 7 -2 13 -13 14 -24 1 -14 -6 -21
-25 -25 -15 -3 -48 -17 -74 -30 -26 -13 -49 -21 -52 -17 -7 12 36 93 53 100 9
3 22 12 29 19 18 18 42 16 42 -2z"/>
<path d="M1529 2023 c-29 -33 -78 -122 -86 -154 -8 -28 -5 -37 21 -66 33 -36
55 -38 114 -7 15 8 32 14 37 14 28 0 91 42 96 65 11 38 -57 153 -90 155 -3 1
-22 3 -41 6 -27 4 -40 0 -51 -13z m80 -70 c10 -10 21 -28 25 -39 6 -20 0 -24
-54 -42 -59 -20 -68 -19 -64 6 1 6 2 18 3 26 2 21 41 66 57 66 8 0 23 -8 33
-17z"/>
<path d="M1363 1749 c-36 -11 -80 -58 -89 -97 -4 -15 -10 -31 -14 -37 -5 -5
-11 -27 -15 -47 -4 -21 -10 -38 -14 -38 -3 0 -6 -15 -7 -34 0 -27 5 -37 25
-47 36 -17 107 -22 141 -11 24 9 29 7 39 -14 6 -13 19 -24 30 -24 15 0 21 9
25 38 13 91 18 176 11 227 -5 47 -11 57 -39 75 -36 22 -45 23 -93 9z m65 -76
c12 -12 17 -33 16 -75 -1 -59 -9 -77 -35 -82 -8 -1 -24 -6 -37 -10 -13 -4 -35
-5 -49 -1 -22 5 -24 10 -20 38 14 75 20 97 28 97 5 0 9 5 9 11 0 16 31 38 53
39 10 0 26 -8 35 -17z"/>
<path d="M4624 3177 c-17 -7 -38 -19 -46 -27 -8 -8 -29 -27 -47 -43 -17 -15
-31 -37 -31 -50 0 -12 -23 -58 -50 -102 -28 -44 -50 -87 -50 -97 0 -9 -4 -20
-10 -23 -5 -3 -10 -17 -10 -30 0 -13 -4 -27 -10 -30 -5 -3 -10 -15 -10 -26 0
-11 -7 -22 -15 -25 -25 -10 8 -61 45 -69 16 -4 30 -11 30 -16 0 -5 18 -9 39
-9 22 0 43 -4 46 -10 8 -14 35 -13 68 3 27 12 36 27 16 27 -15 0 -4 30 51 145
26 55 53 117 60 138 6 20 16 37 21 37 5 0 9 5 9 12 0 6 7 19 16 29 18 20 21
86 5 102 -6 6 -11 19 -11 28 0 44 -52 60 -116 36z m61 -90 c9 -28 7 -57 -7
-84 -11 -23 -43 -25 -110 -8 l-28 7 18 30 c44 76 111 104 127 55z m-82 -172
c30 -8 33 -14 14 -38 -11 -17 -15 -17 -47 -2 -56 26 -64 31 -68 43 -4 12 49
11 101 -3z m-81 -92 c45 -8 50 -24 25 -74 -25 -50 -49 -59 -97 -34 -30 16 -31
17 -16 40 9 13 16 38 16 56 0 28 2 31 23 24 12 -4 34 -9 49 -12z"/>
<path d="M4045 3103 c-39 -8 -84 -34 -89 -51 -3 -9 -10 -64 -16 -122 -5 -58
-17 -134 -26 -170 -20 -83 -28 -209 -14 -244 8 -23 14 -27 38 -22 15 3 54 7
87 8 92 2 101 11 102 105 1 43 8 98 17 123 9 25 16 57 16 73 0 15 4 27 8 27
10 0 12 14 17 147 4 103 3 112 -14 118 -25 8 -102 13 -126 8z m81 -150 c-1
-43 -4 -79 -8 -80 -18 -6 -94 -2 -106 5 -17 11 -5 118 15 138 8 8 33 14 57 14
l43 0 -1 -77z m-96 -163 c-19 -12 -50 -13 -50 -1 0 9 50 20 60 13 2 -2 -2 -7
-10 -12z m47 -92 c-3 -24 -10 -56 -16 -71 -6 -16 -9 -33 -5 -38 3 -5 2 -9 -3
-10 -4 0 -27 -3 -49 -5 l-41 -4 -7 50 c-7 55 5 90 32 91 29 1 49 6 69 18 10 6
19 11 21 11 2 0 1 -19 -1 -42z"/>
<path d="M4670 2649 c-8 -23 -20 -43 -27 -46 -7 -3 -10 -9 -7 -14 3 -5 -2 -9
-11 -9 -9 0 -14 -4 -10 -9 5 -10 -24 -79 -92 -217 -74 -151 -53 -203 89 -217
15 -1 30 -6 34 -10 23 -23 74 17 74 58 0 8 5 15 11 15 5 0 7 5 4 10 -4 6 3 30
15 53 13 23 29 65 37 92 7 28 18 59 22 70 42 98 50 130 45 166 -8 46 -35 73
-89 88 -69 19 -80 15 -95 -30z m112 -61 c5 -15 0 -97 -7 -116 -6 -17 -75 60
-75 85 0 10 5 24 12 31 16 16 65 15 70 0z m-71 -156 c29 -15 34 -22 28 -38 -4
-10 -12 -31 -18 -46 l-10 -28 -25 25 c-14 14 -29 25 -33 25 -15 0 -34 41 -28
61 8 24 40 25 86 1z m-93 -121 c12 -11 22 -23 22 -29 0 -5 11 -8 25 -7 24 3
24 3 9 -33 -8 -20 -16 -37 -17 -39 -2 -1 -25 3 -53 10 -47 11 -49 14 -52 49
-3 36 12 67 33 67 6 0 20 -8 33 -18z"/>
<path d="M4243 2559 c-13 -5 -23 -17 -23 -28 0 -11 -4 -22 -9 -25 -5 -4 -12
-25 -16 -48 -8 -46 -17 -65 -55 -118 -14 -19 -34 -52 -45 -72 -11 -21 -22 -38
-25 -38 -4 0 -5 -38 -1 -71 0 -5 17 -17 36 -25 20 -8 38 -21 42 -29 3 -8 16
-15 29 -15 14 0 27 -7 30 -15 4 -11 13 -13 28 -9 27 9 36 22 36 56 0 15 5 30
10 33 6 3 10 18 10 32 0 15 16 43 40 70 22 25 40 52 40 60 0 14 17 48 38 74
18 23 19 89 1 100 -8 5 -34 16 -59 26 -25 9 -48 22 -52 27 -4 6 -8 7 -8 2 0
-6 -6 -3 -12 6 -10 12 -19 14 -35 7z m107 -132 c0 -13 -6 -31 -12 -40 -11 -14
-19 -15 -55 -6 -24 7 -43 16 -43 22 0 23 32 44 70 45 36 2 40 -1 40 -21z m-57
-124 c-7 -2 -21 -2 -30 0 -10 3 -4 5 12 5 17 0 24 -2 18 -5z m-71 -104 c-4
-44 -8 -46 -35 -20 -15 13 -30 19 -40 15 -21 -8 -22 9 -1 41 14 22 17 23 47
10 28 -12 32 -18 29 -46z"/>
<path d="M459 3101 c-12 -16 -20 -31 -18 -33 2 -2 -4 -16 -13 -30 -15 -23 -16
-32 -5 -65 30 -92 155 -51 183 61 7 30 -15 86 -32 79 -7 -2 -15 0 -19 6 -3 6
-22 11 -40 11 -26 0 -39 -7 -56 -29z m81 -59 c0 -5 -11 -19 -25 -32 -21 -20
-25 -21 -31 -7 -3 9 0 23 8 31 14 16 48 22 48 8z"/>
<path d="M797 3104 c-2 -3 -18 -6 -36 -9 -17 -2 -38 -11 -47 -20 -20 -20 -25
-106 -6 -113 7 -2 10 -8 6 -13 -3 -5 -1 -9 4 -9 5 0 19 -9 32 -20 45 -39 97
-20 132 47 30 58 25 90 -17 113 -40 22 -62 30 -68 24z m33 -93 c0 -16 -27 -31
-44 -25 -28 11 -19 34 14 34 17 0 30 -4 30 -9z"/>
<path d="M789 2792 c-9 -9 -20 -37 -25 -62 -16 -91 3 -141 61 -166 19 -7 36
-18 40 -24 9 -14 47 -12 67 4 36 27 62 149 40 184 -7 10 -53 19 -117 22 -6 0
-16 14 -22 30 -13 34 -21 36 -44 12z m123 -152 c-5 -35 -7 -35 -44 -12 l-33
21 25 10 c39 15 56 9 52 -19z"/>
<path d="M502 2715 c-40 -19 -56 -33 -68 -60 -8 -19 -18 -35 -23 -35 -19 0
-18 -30 2 -71 18 -36 29 -46 60 -53 59 -15 123 16 153 74 34 66 39 106 14 113
-11 3 -23 13 -27 24 -15 40 -39 42 -111 8z m65 -67 c17 -29 12 -48 -17 -63
-36 -19 -54 -19 -69 -1 -15 18 -4 44 28 61 33 18 48 18 58 3z"/>
<path d="M2158 3114 c-45 -14 -49 -18 -59 -60 -7 -25 -18 -48 -25 -51 -8 -3
-14 -11 -14 -19 0 -8 -4 -14 -8 -14 -10 0 -10 -4 -16 -71 -7 -85 45 -156 124
-166 115 -16 230 80 230 192 0 69 -59 155 -127 185 -53 23 -44 23 -105 4z
m104 -96 c17 -11 39 -40 49 -64 19 -42 19 -43 0 -75 -44 -72 -138 -93 -186
-42 -26 29 -35 95 -15 108 6 3 10 15 10 25 0 10 9 26 21 34 12 8 18 19 14 25
-12 21 75 12 107 -11z"/>
<path d="M2177 2965 c-20 -14 -22 -50 -5 -69 18 -19 58 8 58 40 0 30 -29 47
-53 29z"/>
<path d="M2382 2634 c-45 -23 -89 -90 -98 -149 l-7 -49 -33 67 c-31 60 -37 67
-76 78 -24 6 -51 15 -60 20 -12 6 -18 5 -18 -1 0 -6 -12 -16 -27 -23 -48 -21
-92 -84 -93 -132 0 -16 -7 -52 -15 -78 -17 -58 -9 -81 48 -134 30 -28 43 -33
84 -33 35 0 58 7 84 25 20 13 39 21 43 18 3 -4 6 1 6 10 0 9 5 17 11 17 15 0
39 64 39 107 l1 38 15 -28 c8 -15 12 -32 9 -37 -3 -5 -1 -11 5 -15 5 -3 10
-16 10 -27 0 -22 54 -78 76 -78 6 0 17 -6 23 -14 23 -27 126 11 200 74 13 11
21 23 18 27 -4 3 -3 11 2 17 20 26 30 103 21 161 -19 131 -31 142 -159 151
-59 4 -83 1 -109 -12z m52 -73 c17 -7 26 -7 28 1 3 7 22 8 56 3 49 -7 52 -8
59 -43 13 -68 6 -131 -19 -168 -13 -18 -29 -34 -36 -34 -7 0 -15 -7 -18 -15
-12 -29 -83 -17 -133 21 -2 2 -10 36 -16 76 -14 79 -8 107 27 146 25 26 20 24
52 13z m-281 -60 c25 -10 67 -83 51 -88 -5 -2 -8 -22 -6 -46 4 -41 2 -43 -37
-60 -23 -10 -41 -23 -41 -28 0 -16 -55 -10 -70 9 -42 51 -42 48 -24 91 9 23
14 51 11 62 -4 14 2 29 18 45 25 25 58 30 98 15z"/>
<path d="M2438 2489 c-23 -13 -23 -25 1 -50 33 -35 80 -4 66 42 -7 21 -39 25
-67 8z"/>
<path d="M2114 2419 c-34 -12 -38 -39 -10 -68 25 -25 26 -25 41 -6 28 38 7 89
-31 74z"/>
<path d="M3389 3140 c-25 -14 -55 -160 -38 -177 7 -7 2 -36 -16 -89 -29 -85
-35 -116 -38 -181 0 -24 -4 -43 -7 -43 -3 0 -12 -24 -20 -52 -7 -29 -16 -55
-20 -58 -5 -3 -19 -38 -33 -79 -20 -60 -23 -80 -14 -107 9 -30 13 -33 36 -27
14 3 33 15 41 26 14 17 19 18 37 6 19 -11 25 -8 67 34 45 44 46 48 47 104 0
32 -1 67 -1 78 -2 31 21 115 31 115 5 0 9 6 9 14 0 8 4 16 10 18 5 2 12 23 15
47 3 24 10 52 16 63 6 11 8 31 5 44 -4 16 2 36 18 62 15 25 25 57 27 92 4 47
1 55 -16 60 -11 3 -22 14 -23 25 -6 30 -10 31 -42 13 -27 -15 -28 -15 -33 3
-5 20 -32 24 -58 9z m84 -116 c11 -11 -3 -24 -18 -18 -8 4 -12 10 -9 15 6 11
18 12 27 3z m-35 -133 c1 -16 -2 -32 -7 -36 -6 -3 -8 -12 -5 -20 4 -8 10 -12
15 -9 10 6 4 -13 -24 -78 -14 -34 -26 -48 -40 -48 -16 0 -18 5 -13 33 4 17 7
44 8 60 0 15 5 27 11 27 6 0 8 3 4 6 -11 11 26 92 43 94 3 0 7 -13 8 -29z
m-72 -340 c1 -76 -6 -86 -52 -75 -13 3 -24 8 -24 10 0 1 11 23 23 47 13 24 26
54 30 66 11 42 22 19 23 -48z"/>
<path d="M2970 2678 c-11 -17 -15 -57 -17 -143 -2 -151 -12 -249 -28 -300 -19
-57 -25 -92 -29 -160 -2 -32 -9 -61 -14 -63 -7 -2 -8 -9 -2 -20 17 -32 31
-114 22 -125 -15 -19 -40 -143 -35 -171 3 -15 15 -32 26 -38 17 -9 24 -7 40
13 15 19 20 20 28 8 5 -7 9 -17 9 -20 0 -17 42 -15 64 2 13 10 28 19 34 19 5
0 17 9 27 20 22 25 15 80 -14 109 -13 13 -21 34 -21 56 0 19 -5 35 -11 35 -8
0 -8 4 -1 13 13 15 62 199 62 231 0 13 3 25 6 29 4 3 6 37 6 74 0 81 11 140
38 199 11 23 20 57 20 74 0 17 5 40 11 51 8 16 7 25 -6 39 -9 10 -17 31 -18
46 -3 32 -28 44 -52 24 -7 -6 -23 -32 -36 -58 l-23 -47 -8 50 c-5 27 -14 55
-20 62 -16 20 -42 15 -58 -9z m138 -165 c-3 -26 -6 -28 -47 -28 -26 0 -46 5
-49 13 -2 8 7 12 27 12 17 0 36 7 43 15 20 22 30 18 26 -12z m-44 -228 c-3
-66 -15 -153 -25 -194 -10 -41 -19 -84 -19 -97 0 -25 -24 -54 -45 -54 -8 0
-12 6 -9 14 3 8 1 17 -5 21 -14 8 -14 95 -1 95 6 0 8 13 5 30 -5 28 6 93 25
150 5 14 11 46 15 73 4 28 10 45 16 41 6 -3 10 0 8 7 -3 27 1 35 22 35 20 0
20 -4 13 -121z m-72 -459 c2 -19 0 -32 -4 -30 -5 3 -11 -2 -14 -10 -7 -18 -34
-22 -34 -6 0 6 4 10 10 10 5 0 7 6 4 14 -4 11 22 56 32 56 1 0 4 -15 6 -34z"/>
<path d="M824 2112 c-14 -8 -30 -66 -39 -142 -4 -30 -12 -64 -18 -75 -6 -11
-12 -31 -13 -45 -1 -14 -6 -54 -12 -90 -5 -36 -10 -72 -10 -80 0 -26 -21 -171
-26 -179 -5 -8 -18 -176 -18 -236 1 -159 24 -200 98 -171 40 17 50 31 75 111
6 22 17 56 24 75 7 19 16 64 20 100 4 35 13 81 21 102 7 21 13 68 12 105 0 37
7 97 16 133 16 66 16 85 3 108 -5 6 -6 16 -3 21 10 16 10 105 0 108 -6 2 -8
19 -6 37 6 49 -31 112 -71 120 -37 7 -39 7 -53 -2z m73 -125 c1 -23 5 -60 8
-82 12 -73 -17 -107 -81 -97 l-22 3 20 77 c11 42 21 86 23 97 9 67 49 69 52 2z
m9 -265 c-3 -15 -11 -53 -17 -84 -12 -61 -21 -68 -83 -59 -28 4 -28 4 -22 60
4 31 8 65 11 76 2 11 4 22 4 25 1 3 26 6 57 7 l56 2 -6 -27z m-29 -219 c-3
-10 -9 -36 -13 -58 -4 -22 -8 -43 -9 -47 -2 -5 -3 -21 -4 -38 -1 -32 -27 -43
-37 -16 -3 8 -18 18 -34 21 -30 7 -42 36 -29 71 4 10 8 31 8 46 1 25 5 27 49
31 26 2 53 4 60 5 8 1 11 -5 9 -15z m-77 -222 l30 -18 -27 -53 c-16 -29 -33
-55 -39 -57 -7 -2 -13 22 -17 63 -9 91 -2 99 53 65z"/>
<path d="M498 1947 c-27 -22 -64 -94 -58 -112 5 -15 8 -129 3 -137 -2 -4 -6
-89 -9 -190 -2 -101 -11 -266 -18 -368 -17 -251 -14 -518 7 -562 9 -18 20 -45
26 -59 7 -21 18 -28 48 -31 31 -4 42 0 61 20 36 38 43 67 48 207 9 260 12 310
21 335 6 14 7 39 2 62 -5 20 -6 56 -3 80 3 24 6 50 5 58 -3 65 -1 112 7 155 5
28 8 149 7 269 l-2 219 -34 28 c-19 16 -40 29 -46 29 -7 0 -13 5 -13 10 0 17
-24 11 -52 -13z m71 -81 c17 -20 30 -86 24 -121 -5 -34 -7 -35 -50 -35 l-45 0
5 79 c2 43 7 83 11 89 7 12 41 5 55 -12z m22 -288 c-5 -29 -4 -66 1 -84 6 -23
4 -53 -6 -98 -9 -36 -14 -84 -12 -106 5 -45 1 -47 -34 -20 -14 11 -32 20 -41
20 -14 0 -17 12 -17 66 l0 65 27 -6 c19 -4 35 0 52 13 20 17 22 22 10 36 -8 9
-22 14 -31 11 -39 -12 -47 2 -49 91 -2 81 -1 84 21 84 13 0 34 6 48 13 23 12
26 11 32 -11 4 -13 3 -46 -1 -74z m-34 -380 c19 -15 25 -127 10 -202 -14 -76
-26 -90 -46 -52 -8 13 -23 27 -35 30 -21 5 -22 10 -19 103 4 138 6 146 46 138
18 -4 37 -12 44 -17z m-42 -323 c50 -25 55 -33 44 -62 -5 -14 -9 -64 -9 -113
0 -95 -9 -134 -34 -143 -30 -12 -56 83 -59 213 -2 65 4 131 11 128 4 -2 25
-12 47 -23z"/>
<path d="M922 1237 c-6 -7 -23 -62 -38 -122 -15 -61 -31 -111 -36 -113 -4 -2
-8 -11 -8 -21 0 -9 -4 -21 -8 -26 -5 -6 -15 -30 -22 -55 -8 -25 -17 -49 -20
-55 -6 -9 -48 -131 -55 -160 -1 -5 -7 -23 -13 -38 -7 -16 -12 -33 -12 -38 0
-5 -7 -20 -14 -32 -13 -19 -18 -70 -14 -132 1 -11 -1 -33 -4 -50 -3 -16 -2
-40 3 -53 8 -21 13 -23 56 -16 27 3 55 10 65 15 24 13 87 102 99 141 6 18 14
42 19 53 31 78 63 196 76 276 8 52 17 103 19 114 7 40 16 112 24 185 7 69 6
76 -15 96 -13 14 -29 21 -42 18 -12 -4 -22 0 -25 10 -8 19 -21 20 -35 3z m64
-134 c-4 -27 -8 -60 -10 -75 -3 -34 -14 -46 -22 -24 -3 9 -14 16 -24 16 -16 0
-16 3 1 57 18 53 32 72 53 73 5 0 6 -21 2 -47z m-51 -184 c4 -11 11 -17 16
-13 7 4 8 -8 3 -33 -4 -21 -8 -39 -9 -41 -1 -1 -14 8 -30 20 -22 17 -31 19
-46 10 -23 -15 -25 -3 -5 41 8 18 17 40 20 51 6 18 7 18 26 1 11 -10 22 -26
25 -36z m-12 -216 c-8 -24 -17 -43 -19 -43 -2 0 -22 11 -44 25 -22 14 -44 25
-50 25 -5 0 -10 3 -10 8 0 10 28 101 35 111 3 5 27 -12 54 -37 l49 -46 -15
-43z m-94 -68 c33 -10 59 -44 53 -67 -5 -22 0 -21 -50 -4 -22 8 -42 12 -45 10
-2 -2 -10 2 -16 10 -10 12 -10 23 -1 52 11 31 15 35 24 22 6 -8 22 -19 35 -23z
m-65 -123 c3 -5 21 -7 40 -6 43 4 52 -16 23 -49 -12 -13 -30 -34 -39 -45 -10
-12 -24 -19 -35 -16 -15 4 -18 15 -18 65 0 39 4 59 12 59 6 0 14 -4 17 -8z"/>
<path d="M2071 1841 c-9 -12 -23 -18 -35 -15 -27 5 -50 -44 -42 -89 6 -38 6
-45 1 -577 -2 -228 -6 -471 -9 -540 -5 -132 4 -185 34 -193 9 -2 58 -4 107 -5
50 0 100 -5 111 -11 11 -6 22 -7 24 -2 2 5 19 18 38 28 l35 20 1 109 c0 60 1
129 2 154 0 25 0 113 -1 195 -2 83 1 175 5 205 10 70 20 220 19 285 0 28 -2
126 -3 220 l-3 169 -34 7 c-18 4 -36 11 -40 16 -3 4 -17 8 -31 7 -14 0 -29 1
-33 4 -5 2 -34 6 -65 8 -30 2 -59 8 -62 14 -3 5 -12 1 -19 -9z m65 -142 l10
-59 -31 2 c-17 1 -36 -2 -43 -6 -7 -4 -12 -4 -13 1 -13 99 -3 132 38 126 27
-4 30 -9 39 -64z m120 36 c12 -8 24 -11 28 -8 6 7 9 -21 7 -76 -1 -40 0 -38
-26 -41 -57 -6 -65 -2 -65 39 0 56 11 101 24 101 6 0 21 -7 32 -15z m-140
-170 c6 -2 12 -28 13 -59 l2 -56 -36 4 c-19 3 -35 0 -35 -5 0 -5 -4 -9 -9 -9
-4 0 -7 17 -6 38 1 20 3 52 4 70 1 33 7 35 67 17z m180 -45 c-2 -23 -6 -44
-10 -47 -3 -3 -1 -12 6 -20 14 -17 13 -76 -1 -233 -6 -63 -11 -150 -11 -192 0
-43 -3 -78 -7 -78 -5 -1 -27 -5 -50 -9 l-43 -8 2 61 c1 33 -1 78 -5 98 -6 35
-5 37 28 48 34 11 61 41 48 54 -3 3 -21 6 -40 6 l-33 0 -2 60 c-4 127 -8 115
37 116 51 2 75 12 75 31 0 23 -30 42 -66 43 -29 0 -32 3 -36 35 -5 43 7 55 56
57 20 1 39 5 42 10 10 16 13 7 10 -32z m-202 -151 c17 -3 20 -14 22 -71 1 -44
-2 -68 -9 -68 -6 0 -2 -7 9 -15 18 -13 17 -14 -19 -15 -53 0 -58 16 -48 169 1
17 4 21 14 13 6 -5 21 -11 31 -13z m21 -269 c10 -31 13 -110 5 -115 -3 -2 -5
-18 -2 -34 4 -28 2 -30 -24 -26 -16 2 -32 4 -36 4 -10 1 -11 175 -1 184 14 15
52 6 58 -13z m165 -310 c0 -60 -4 -100 -10 -100 -5 0 -10 7 -10 15 0 14 -24
20 -57 16 -13 -2 -15 9 -15 87 0 44 23 76 48 68 6 -2 17 0 25 5 8 5 15 9 17 9
1 0 2 -45 2 -100z m-152 -7 c-2 -57 -5 -63 -24 -63 -47 0 -54 9 -54 70 l0 57
41 -1 40 -1 -3 -62z m146 -184 c-3 -96 -12 -112 -55 -96 -26 10 -29 15 -23 42
4 16 6 44 6 61 -1 26 4 34 28 44 17 7 30 16 30 21 0 5 4 9 8 9 5 0 7 -36 6
-81z m-152 41 c10 0 17 -3 15 -7 -3 -5 -8 -35 -12 -68 -7 -63 -16 -76 -48 -69
-29 5 -29 6 -31 84 l-1 72 29 -6 c16 -3 37 -6 48 -6z"/>
<path d="M2486 1785 c-3 -8 -17 -17 -31 -21 -23 -6 -30 -16 -26 -38 3 -12 0
-155 -4 -246 -11 -265 -16 -354 -21 -361 -2 -4 0 -10 5 -13 5 -3 6 -23 3 -43
-8 -61 -8 -564 0 -569 4 -3 8 -12 8 -20 0 -8 9 -23 19 -33 16 -16 31 -19 83
-16 80 4 95 10 114 47 20 38 22 61 29 299 3 107 9 216 14 242 5 27 5 67 0 94
-14 73 -19 245 -18 587 0 27 -5 62 -12 78 -11 27 -14 28 -84 28 -55 0 -74 -4
-79 -15z m108 -86 c-2 -16 0 -30 5 -33 5 -3 6 -17 4 -30 -5 -24 -7 -25 -32
-12 -14 8 -38 12 -52 9 -20 -4 -25 -1 -26 19 -2 43 7 70 22 64 8 -3 15 -1 15
4 0 5 15 9 34 8 30 -1 33 -4 30 -29z m-74 -136 c12 -10 33 -18 48 -18 24 0 27
-4 33 -42 8 -59 0 -68 -44 -49 -31 12 -37 13 -48 0 -22 -26 -29 -14 -24 44 7
94 5 90 35 65z m24 -183 c40 0 59 -19 54 -57 -3 -26 -7 -28 -45 -29 -24 0 -46
-4 -50 -7 -3 -4 -12 -7 -20 -7 -14 0 -17 32 -7 92 6 32 8 35 21 22 8 -7 29
-14 47 -14z m-8 -158 c55 15 72 4 80 -50 4 -26 11 -57 15 -69 6 -17 5 -23 -6
-23 -8 0 -15 -4 -15 -9 0 -5 -18 -3 -40 5 -21 8 -53 11 -70 8 -30 -6 -30 -6
-31 40 -3 121 -3 124 17 104 13 -12 23 -14 50 -6z m77 -292 c-3 -41 -7 -77 -9
-79 -2 -2 -10 2 -18 8 -8 7 -29 13 -46 13 -17 1 -33 5 -36 10 -3 5 -15 6 -25
3 -19 -6 -20 -2 -17 51 3 51 5 58 25 59 13 1 26 4 29 8 3 3 28 5 54 4 l49 -2
-6 -75z m-98 -124 c17 -3 31 -10 33 -16 2 -5 17 -10 34 -10 23 0 29 -4 24 -16
-3 -9 -6 -34 -6 -55 0 -22 -4 -38 -9 -35 -5 4 -11 2 -13 -2 -1 -5 -26 -12 -55
-15 -50 -6 -52 -5 -57 21 -5 25 -9 108 -7 141 1 10 4 11 14 3 7 -6 26 -13 42
-16z m72 -249 c1 -43 -3 -47 -61 -52 -39 -4 -45 -2 -50 18 -3 12 -6 29 -6 38
0 19 45 38 85 36 27 -2 30 -5 32 -40z"/>
<path d="M4075 1842 c-19 -12 -39 -20 -44 -18 -14 9 -81 -65 -103 -114 -16
-34 -22 -68 -24 -145 -3 -122 9 -143 104 -188 111 -52 212 -37 301 43 17 16
31 34 31 39 0 6 10 21 22 33 17 17 22 36 25 104 l5 83 -42 45 c-24 25 -49 46
-57 46 -8 0 -28 11 -45 25 -16 14 -37 25 -47 25 -10 0 -23 11 -29 24 -13 30
-47 30 -97 -2z m83 -101 l27 -9 -29 -1 c-41 -1 -93 -39 -109 -80 -10 -24 -11
-47 -5 -79 4 -25 9 -46 11 -47 1 -1 20 -9 42 -17 41 -15 105 -8 105 12 0 5 13
17 29 26 17 10 28 21 25 25 -2 4 0 10 6 14 5 3 10 21 10 39 0 36 -38 86 -65
86 -8 0 -15 7 -15 14 0 22 113 -36 129 -66 15 -30 8 -108 -14 -141 -8 -13 -35
-38 -60 -56 -63 -45 -136 -46 -215 -4 l-55 30 -3 62 c-4 78 19 160 53 189 14
12 29 22 34 22 5 0 22 7 37 15 27 14 29 14 32 -4 2 -11 15 -24 30 -30z m-4
-107 c4 -10 13 -13 26 -9 27 8 25 -6 -3 -33 -15 -14 -30 -19 -45 -15 -24 6
-28 23 -12 54 13 23 26 24 34 3z"/>
<path d="M4596 1641 c-3 -5 -23 -11 -45 -15 -45 -7 -116 -74 -162 -152 -24
-41 -27 -56 -24 -114 3 -76 30 -169 51 -177 8 -3 14 -11 14 -19 0 -8 6 -14 13
-14 6 0 28 -14 47 -30 55 -47 175 -60 240 -27 32 16 80 75 80 98 0 5 3 9 8 9
12 0 41 82 51 145 9 60 4 85 -32 165 -14 31 -58 79 -73 80 -6 0 -19 9 -30 21
-14 16 -26 19 -52 14 -23 -4 -41 -1 -57 9 -13 9 -26 12 -29 7z m-19 -101 c6
-21 47 -28 58 -10 3 6 19 10 35 10 35 0 116 -75 126 -116 13 -50 -23 -204 -47
-204 -5 0 -9 -5 -9 -11 0 -28 -60 -59 -95 -48 -5 1 -26 2 -45 1 -26 -1 -48 8
-83 34 -56 41 -76 81 -84 168 -5 58 -3 63 29 102 77 94 105 112 115 74z"/>
<path d="M4583 1493 c-18 -9 -33 -20 -33 -25 0 -4 -15 -25 -34 -45 -30 -34
-33 -43 -31 -90 4 -60 25 -87 82 -102 83 -21 138 -4 172 54 20 34 20 39 7 102
-8 37 -19 69 -25 71 -6 2 -19 11 -28 20 -9 9 -21 17 -27 19 -6 1 -20 4 -31 7
-11 3 -35 -2 -52 -11z m85 -100 c7 -7 11 -16 8 -21 -2 -4 -1 -14 4 -22 17 -27
-6 -48 -50 -44 -54 5 -63 11 -56 40 16 62 23 72 53 66 15 -3 34 -11 41 -19z"/>
<path d="M4035 1165 c-134 -61 -223 -318 -165 -476 19 -50 64 -119 79 -119 4
0 18 -10 31 -22 21 -19 35 -22 101 -22 71 0 82 3 137 37 33 20 64 37 70 37 20
0 84 118 97 180 2 14 8 37 11 53 4 17 2 27 -5 27 -6 0 -11 18 -11 43 0 75 -91
227 -136 227 -8 0 -14 4 -14 8 0 4 -19 9 -42 11 -24 1 -50 9 -59 17 -19 17
-54 17 -94 -1z m29 -83 c3 -5 29 -10 57 -11 67 -2 135 -32 144 -62 4 -13 14
-32 22 -41 34 -38 51 -216 23 -226 -6 -2 -10 -9 -10 -16 0 -14 -28 -42 -59
-60 -64 -38 -87 -49 -110 -52 -52 -9 -96 -3 -117 16 -11 11 -24 20 -30 20 -5
1 -19 17 -32 37 -32 51 -34 174 -3 264 33 93 95 163 115 131z"/>
<path d="M4075 1021 c-38 -8 -61 -52 -79 -153 -14 -80 -11 -90 35 -137 34 -35
100 -40 145 -12 60 37 93 186 53 238 -52 67 -82 80 -154 64z m75 -91 c35 -35
43 -69 25 -106 -15 -32 -32 -44 -64 -44 -23 0 -51 35 -51 64 0 22 29 102 30
83 0 -5 7 -1 16 7 20 20 20 20 44 -4z"/>
<path d="M4582 943 c-43 -15 -102 -79 -102 -110 0 -7 -5 -13 -11 -13 -5 0 -7
-4 -4 -10 3 -5 1 -10 -6 -10 -7 0 -10 -3 -6 -6 3 -3 -3 -21 -13 -39 -10 -19
-19 -42 -20 -52 -7 -127 -5 -138 24 -193 33 -63 104 -134 149 -149 59 -21 142
-4 186 37 8 7 24 20 37 29 13 8 24 22 24 29 0 8 3 14 8 14 14 0 51 84 62 141
29 151 -28 266 -147 295 -15 4 -39 15 -53 24 -37 26 -80 30 -128 13z m78 -77
c0 -19 20 -34 55 -39 60 -9 94 -30 117 -73 21 -41 22 -46 9 -120 -14 -83 -29
-115 -75 -154 -57 -48 -131 -65 -156 -35 -7 8 -17 15 -23 15 -29 0 -109 130
-109 175 0 36 41 154 65 187 36 49 117 79 117 44z"/>
<path d="M4655 801 c-37 -11 -53 -26 -80 -75 -31 -56 -34 -105 -9 -144 30 -45
54 -59 102 -58 39 1 49 6 74 38 46 56 48 178 3 224 -13 14 -65 23 -90 15z m52
-116 c2 -39 -18 -85 -36 -85 -48 0 -68 77 -28 105 34 24 62 16 64 -20z"/>
<path d="M3010 1422 c0 -4 -14 -15 -31 -24 -24 -14 -30 -24 -28 -45 2 -16 8
-34 14 -42 5 -8 10 -65 11 -127 2 -168 29 -196 153 -156 44 15 68 18 77 11 8
-7 18 -2 33 17 25 31 26 47 7 66 -13 14 -15 31 -20 225 -1 40 -4 75 -7 78 -4
3 -18 1 -32 -4 -16 -6 -29 -7 -32 -1 -6 10 -145 12 -145 2z m148 -80 c18 -12
14 -231 -5 -233 -21 -2 -27 -4 -48 -15 -11 -5 -29 -9 -40 -9 -19 0 -20 7 -22
133 l-2 132 52 0 c29 0 58 -4 65 -8z"/>
<path d="M3348 1329 l-37 -39 4 -176 c4 -167 5 -177 27 -199 30 -29 86 -47
129 -41 41 5 104 30 113 44 9 14 9 66 2 162 -4 47 -7 110 -8 140 0 30 -2 63
-5 72 -7 28 -56 56 -109 64 -27 3 -56 8 -64 9 -9 2 -32 -14 -52 -36z m114 -55
c47 -8 56 -31 56 -155 0 -52 1 -98 2 -104 9 -40 -45 -80 -91 -68 -50 13 -54
27 -50 198 2 50 0 97 -4 107 -4 11 -1 18 12 21 28 7 35 7 75 1z"/>
<path d="M3191 834 c-43 -20 -51 -28 -52 -51 0 -16 -1 -53 -2 -83 -2 -30 0
-68 3 -85 3 -16 1 -56 -6 -88 -10 -48 -9 -64 2 -85 8 -15 14 -35 14 -44 0 -35
38 -59 103 -64 87 -8 148 -5 173 7 19 10 20 20 23 197 1 103 4 195 7 205 8 26
-23 85 -49 93 -12 4 -37 6 -56 6 -18 -1 -51 2 -71 7 -30 7 -47 4 -89 -15z
m186 -79 c17 -6 13 -333 -5 -344 -14 -8 -99 -7 -108 2 -3 3 -12 3 -19 1 -7 -3
-22 11 -35 33 -16 28 -20 46 -16 73 4 19 7 80 7 135 0 54 2 102 4 105 3 6 153
2 172 -5z"/>
<path d="M1378 1173 c-19 -23 -24 -159 -7 -228 14 -60 18 -105 10 -105 -14 0
-1 -140 17 -188 11 -29 16 -54 12 -57 -4 -3 -6 -14 -3 -24 3 -11 -7 -49 -21
-84 -14 -36 -26 -75 -26 -87 0 -29 44 -70 75 -70 14 0 24 -4 21 -9 -3 -5 4
-11 16 -14 24 -7 58 17 58 40 0 15 11 17 26 5 5 -5 29 -14 53 -21 40 -12 46
-11 58 5 18 25 16 54 -7 92 -39 64 -60 154 -65 273 -2 63 -9 137 -14 164 -9
47 -7 52 18 85 40 51 50 73 56 123 4 33 1 48 -10 57 -13 11 -18 10 -31 -8 -8
-12 -23 -26 -33 -31 -15 -9 -17 -4 -17 37 1 40 -2 47 -19 50 -23 3 -85 -49
-85 -72 0 -9 -7 -16 -16 -16 -8 0 -12 5 -9 10 4 6 4 29 0 50 -7 44 -31 53 -57
23z m126 -136 c-2 -7 1 -21 9 -30 12 -17 14 -17 40 3 36 28 34 13 -4 -28 -28
-31 -61 -42 -99 -31 -34 9 -43 59 -11 59 30 0 51 11 51 26 0 8 4 14 10 14 5 0
7 -6 4 -13z m22 -204 c3 -16 8 -34 10 -41 2 -8 1 -45 -2 -83 l-7 -69 -30 2
c-16 1 -31 9 -34 18 -3 8 -9 24 -14 35 -9 21 -13 58 -10 111 2 53 76 75 87 27z
m30 -308 c7 -5 16 -26 19 -45 3 -19 13 -45 21 -57 13 -20 13 -23 -1 -23 -8 0
-15 8 -15 18 -1 45 -53 70 -65 31 -5 -16 -12 -19 -32 -14 -17 4 -32 0 -46 -12
-19 -18 -19 -17 -12 7 4 14 13 38 21 54 8 16 14 35 14 41 0 7 15 20 32 28 30
15 34 15 42 -1 5 -9 15 -21 22 -27z"/>
</g>
</svg>
