<?xml version="1.0" standalone="no"?>
<!DOCTYPE svg PUBLIC "-//W3C//DTD SVG 20010904//EN"
 "http://www.w3.org/TR/2001/REC-SVG-20010904/DTD/svg10.dtd">
<svg version="1.0" xmlns="http://www.w3.org/2000/svg"
 width="531.000000pt" height="471.000000pt" viewBox="0 0 531.000000 471.000000"
 preserveAspectRatio="xMidYMid meet">
<metadata>
Created by potrace 1.16, written by Peter Selinger 2001-2019
</metadata>
<g transform="translate(0.000000,471.000000) scale(0.100000,-0.100000)"
fill="#000000" stroke="none">
<path d="M3300 4419 c-21 -21 -56 -64 -77 -96 -20 -32 -46 -68 -58 -81 -11
-13 -19 -27 -19 -30 1 -4 -8 -25 -21 -47 -29 -50 -56 -131 -57 -168 -1 -34 15
-47 58 -47 35 0 48 21 58 93 2 21 20 63 38 93 18 31 38 65 45 77 7 12 18 26
26 32 8 5 17 20 21 31 3 12 24 38 46 58 22 20 40 42 40 49 0 30 -13 53 -35 63
-22 11 -29 8 -65 -27z"/>
<path d="M3623 4427 c-4 -8 -15 -16 -24 -19 -11 -5 -15 -14 -12 -32 5 -26 -70
-279 -91 -305 -6 -8 -10 -16 -8 -18 5 -5 -44 -165 -67 -223 -10 -25 -21 -58
-25 -75 -4 -16 -13 -45 -21 -62 -35 -78 -44 -100 -55 -138 -6 -22 -15 -49 -20
-60 -5 -11 -14 -40 -21 -65 -6 -25 -20 -65 -31 -89 -13 -29 -19 -59 -16 -87 2
-26 -1 -45 -8 -48 -6 -2 -16 -18 -22 -36 -10 -28 -9 -32 13 -42 13 -6 22 -15
19 -20 -6 -9 23 -59 53 -94 33 -37 93 -149 93 -173 0 -19 56 -124 79 -148 12
-12 21 -27 21 -33 0 -5 5 -10 10 -10 6 0 10 -11 10 -25 0 -35 38 -75 71 -75
35 0 45 15 53 78 4 30 11 63 17 73 10 20 34 25 44 9 27 -44 79 74 84 192 1 20
33 20 53 0 29 -29 78 0 78 46 0 17 4 33 9 36 4 3 11 23 15 45 6 41 27 58 48
38 21 -20 91 -38 103 -26 5 5 13 49 17 97 8 101 11 120 32 164 24 53 55 150
59 188 2 19 16 62 30 95 14 33 30 86 36 118 6 31 15 66 21 76 5 11 10 31 10
45 0 14 4 26 8 26 5 0 19 42 32 93 12 50 31 109 41 129 10 21 19 44 19 53 0 8
4 15 8 15 10 0 36 117 34 150 -3 34 -24 48 -88 56 -30 3 -57 10 -59 15 -3 4
-12 6 -19 3 -8 -3 -31 -1 -52 5 -51 13 -108 20 -219 26 -49 3 -115 8 -145 11
-30 3 -80 7 -110 8 -30 1 -65 7 -77 14 -18 10 -23 10 -30 -1z m312 -132 c159
-5 212 -11 258 -26 31 -10 71 -19 87 -19 17 0 30 -2 30 -4 0 -9 -81 -249 -87
-260 -4 -6 -8 -17 -10 -26 -11 -67 -28 -130 -43 -161 -11 -20 -17 -38 -15 -41
5 -5 -46 -166 -59 -187 -5 -8 -10 -29 -12 -47 -3 -32 -51 -199 -62 -219 -4 -5
-8 -14 -9 -20 -1 -5 -8 -31 -14 -56 l-12 -46 -41 8 c-202 38 -324 46 -534 36
-66 -3 -95 4 -74 17 4 2 9 22 10 43 3 40 12 74 42 158 10 28 31 88 46 135 15
47 31 90 35 95 4 6 13 33 19 60 17 74 61 208 73 223 5 6 7 12 3 12 -3 0 4 21
17 48 21 41 31 70 38 107 2 9 23 68 58 159 9 22 16 27 34 22 12 -3 112 -8 222
-11z m-210 -1181 c28 -2 63 -9 79 -14 16 -6 40 -10 52 -10 30 0 31 -23 4 -50
-11 -11 -17 -20 -13 -20 3 0 4 -2 1 -5 -3 -4 -22 3 -42 15 -20 11 -46 20 -57
20 -24 0 -85 30 -118 59 l-23 20 33 -5 c19 -3 57 -7 84 -10z m-171 -73 c16 -6
48 -24 71 -40 23 -15 59 -31 79 -35 26 -5 36 -11 32 -21 -3 -8 -10 -33 -16
-57 -10 -36 -14 -40 -24 -27 -6 9 -21 19 -33 23 -29 9 -101 64 -134 102 -16
19 -46 43 -83 68 -16 11 -12 12 30 6 27 -4 62 -12 78 -19z m-84 -141 c0 -5 7
-10 15 -10 8 0 15 -4 15 -8 0 -5 16 -17 35 -28 19 -10 35 -22 35 -26 0 -5 11
-14 25 -20 30 -13 30 -21 5 -73 -16 -35 -20 -38 -26 -20 -4 11 -20 32 -35 47
-31 30 -93 148 -78 148 5 0 9 -4 9 -10z"/>
<path d="M875 4205 c-22 -27 -22 -80 0 -105 9 -11 12 -42 9 -107 -3 -73 0 -95
12 -108 8 -8 24 -43 34 -77 11 -35 35 -117 55 -183 20 -66 41 -124 46 -129 5
-6 9 -24 9 -40 0 -17 9 -45 19 -63 11 -17 23 -49 26 -70 4 -21 14 -61 22 -90
8 -29 15 -62 16 -75 4 -39 45 -107 64 -106 10 0 25 -2 33 -6 10 -4 21 4 32 24
9 16 33 36 52 44 22 9 36 22 36 33 0 43 -34 233 -41 233 -5 0 -9 10 -9 23 0
12 -20 62 -45 110 -24 48 -46 97 -48 110 -2 12 -13 42 -24 67 -12 25 -26 64
-32 88 -7 23 -16 42 -21 42 -6 0 -10 10 -10 21 0 33 -22 102 -38 121 -8 9 -12
23 -10 30 4 12 -46 125 -61 138 -3 3 -12 18 -20 33 -12 23 -68 68 -82 67 -2
-1 -13 -12 -24 -25z m249 -674 c-7 -8 -15 6 -19 35 l-4 29 14 -30 c7 -16 11
-32 9 -34z m22 -28 c7 -10 14 -27 14 -38 0 -12 5 -26 12 -33 15 -15 36 -77 44
-132 4 -30 3 -42 -4 -35 -12 13 -42 103 -42 129 0 12 -8 35 -19 52 -35 57 -38
101 -5 57z"/>
<path d="M417 3984 c-37 -53 -82 -128 -98 -164 -6 -14 -16 -32 -23 -40 -24
-27 -46 -100 -40 -126 8 -32 49 -50 70 -30 8 8 14 21 14 30 0 8 6 30 14 48 8
18 22 53 32 78 11 25 36 76 57 114 46 85 55 115 36 127 -23 14 -28 11 -62 -37z"/>
<path d="M2450 3245 c-36 -7 -80 -17 -97 -23 -18 -6 -33 -9 -33 -6 0 2 -10 -2
-23 -11 -13 -8 -27 -12 -30 -9 -4 4 -13 2 -20 -4 -8 -7 -47 -28 -88 -48 -51
-26 -89 -54 -122 -91 -27 -29 -54 -53 -60 -54 -18 0 -127 -153 -139 -194 -6
-19 -18 -43 -27 -52 -14 -16 -53 -110 -69 -168 -3 -11 -9 -22 -13 -25 -5 -3
-11 -26 -13 -50 -3 -25 -15 -83 -26 -130 -31 -135 -45 -306 -31 -379 7 -34 15
-83 18 -109 9 -80 78 -227 136 -290 45 -50 167 -142 187 -142 25 0 80 -21 80
-30 0 -5 -5 -21 -12 -37 -6 -15 -13 -36 -14 -45 -10 -47 -34 -192 -34 -199 0
-15 -37 -10 -54 6 -8 8 -21 15 -28 15 -7 0 -36 20 -63 45 -28 24 -79 59 -115
76 -36 17 -67 34 -70 38 -3 4 -30 25 -60 46 -30 21 -83 62 -117 91 -33 30 -64
54 -68 54 -3 0 -13 6 -20 13 -8 6 -33 26 -56 42 -83 59 -147 131 -155 172 -3
21 -12 45 -19 53 -7 8 -15 24 -18 35 -20 65 -56 157 -74 187 -20 35 -56 134
-67 190 -3 15 -13 33 -21 42 -8 8 -15 21 -15 28 0 8 -8 30 -19 50 -27 54 -59
138 -67 178 -3 19 -35 94 -69 165 -34 72 -68 146 -74 165 -10 31 -15 35 -51
38 -35 2 -41 -1 -55 -27 -15 -30 -11 -58 11 -76 15 -12 54 -81 54 -95 0 -5 18
-49 41 -96 23 -48 42 -92 44 -98 4 -21 31 -89 47 -120 5 -10 16 -41 24 -68 8
-27 26 -70 40 -95 13 -25 33 -78 44 -117 12 -39 29 -87 39 -106 10 -19 22 -46
26 -60 4 -14 16 -45 27 -70 32 -72 36 -83 49 -125 25 -84 42 -125 50 -125 5 0
9 -7 9 -16 0 -20 20 -39 49 -49 34 -10 217 -137 276 -190 28 -25 56 -45 62
-45 7 0 21 -7 30 -16 10 -9 72 -52 138 -95 66 -43 142 -95 169 -115 43 -32 60
-40 89 -43 9 -1 9 -35 0 -45 -4 -3 -8 -14 -9 -24 -4 -40 -37 -181 -54 -232
-30 -90 -61 -219 -76 -315 -7 -49 -21 -106 -30 -126 -9 -20 -14 -54 -12 -80 3
-42 5 -44 42 -54 34 -8 41 -7 57 13 9 12 21 48 24 80 4 31 13 83 21 114 8 31
13 61 12 65 -3 10 11 79 23 118 29 92 69 275 96 433 3 19 11 36 18 38 6 3 52
-3 101 -12 93 -17 154 -20 319 -14 87 3 200 -2 337 -13 43 -4 60 13 73 73 8
34 105 205 137 240 9 10 23 33 31 52 8 19 23 42 33 52 10 10 19 25 20 32 1 8
18 36 36 62 19 26 54 83 78 127 40 75 98 163 127 193 7 7 25 34 39 60 15 26
41 70 59 97 67 102 90 138 107 163 29 44 6 102 -41 102 -27 0 -90 -51 -92 -73
-3 -42 -8 -58 -30 -88 -25 -36 -45 -68 -80 -133 -12 -22 -28 -46 -35 -54 -8
-7 -14 -17 -14 -22 0 -5 -16 -30 -36 -56 -37 -48 -67 -98 -129 -214 -32 -59
-78 -130 -121 -185 -8 -11 -38 -58 -66 -105 -135 -227 -128 -222 -268 -205
-50 7 -104 8 -130 3 -53 -10 -234 -13 -248 -4 -8 5 -98 21 -167 30 -11 1 -19
6 -19 10 1 3 7 43 14 89 11 81 37 173 52 191 4 6 43 12 85 14 43 2 90 10 105
18 15 8 32 14 38 14 6 0 30 9 52 20 23 11 47 20 54 20 7 0 19 8 26 19 7 10 38
34 68 53 59 38 73 53 135 138 22 30 48 64 57 74 10 11 18 23 18 27 0 4 15 34
34 67 19 33 44 86 56 118 12 33 25 63 30 69 4 5 11 28 15 50 4 22 18 77 31
121 13 45 24 97 24 116 0 19 5 59 10 89 27 144 9 463 -30 529 -8 14 -23 41
-35 61 -17 31 -51 64 -132 129 -25 20 -115 59 -153 65 -22 4 -42 10 -45 15 -2
4 -25 8 -50 8 -25 1 -49 3 -53 5 -4 2 -36 -2 -72 -8z m187 -129 c72 -18 141
-50 164 -77 9 -11 21 -19 26 -19 14 0 83 -102 88 -130 1 -3 5 -23 9 -45 12
-54 15 -235 5 -315 -4 -36 -10 -92 -14 -125 -4 -33 -13 -82 -21 -110 -8 -27
-22 -75 -30 -105 -25 -84 -75 -211 -99 -250 -12 -19 -25 -45 -29 -57 -4 -13
-12 -23 -17 -23 -6 0 -15 -13 -20 -30 -6 -16 -15 -30 -20 -30 -5 0 -9 -4 -9
-10 0 -22 -125 -142 -175 -167 -16 -9 -37 -21 -45 -28 -8 -7 -43 -22 -78 -34
-50 -16 -82 -20 -150 -17 -124 6 -157 13 -223 52 -74 44 -126 96 -152 154 -11
25 -29 57 -40 72 -11 15 -17 34 -14 42 4 9 3 16 -2 16 -8 0 -11 11 -29 105
-18 101 -4 315 27 415 12 36 21 74 21 85 0 11 6 31 13 45 8 14 17 40 20 58 8
42 69 164 115 231 20 29 42 61 47 70 6 9 30 35 55 56 25 22 50 47 57 56 12 17
73 49 84 46 4 -1 15 6 25 15 20 17 93 47 131 53 12 2 28 7 35 11 18 11 150 21
168 13 8 -4 43 -14 77 -23z"/>
<path d="M2118 2590 c-29 -16 -39 -28 -44 -56 -8 -42 12 -69 64 -84 27 -7 34
-6 40 8 3 9 14 26 24 36 18 19 22 41 18 81 -4 40 -44 45 -102 15z"/>
<path d="M2570 2487 c0 -10 -7 -20 -16 -24 -12 -4 -14 -15 -9 -51 3 -25 8 -49
11 -54 6 -10 55 -10 69 0 16 11 35 50 35 70 0 22 -30 52 -51 52 -8 0 -20 5
-27 12 -9 9 -12 8 -12 -5z"/>
<path d="M1906 2137 c-18 -13 -29 -64 -18 -82 4 -5 8 -19 9 -30 18 -126 45
-186 112 -248 23 -21 41 -36 41 -33 0 2 24 -8 53 -23 55 -28 130 -40 142 -22
3 6 19 11 35 11 15 0 58 13 94 29 48 22 71 39 89 68 13 21 35 47 47 58 24 21
51 76 55 112 4 26 -33 63 -66 68 -13 2 -60 8 -105 14 -44 6 -110 23 -145 37
-35 14 -90 27 -122 28 -31 2 -64 9 -73 16 -12 11 -20 10 -40 0 -19 -11 -27
-11 -36 -2 -16 16 -50 15 -72 -1z m187 -113 c17 -3 48 -8 67 -11 19 -2 46 -12
60 -22 25 -17 68 -28 144 -37 51 -5 76 -13 76 -24 0 -37 -159 -138 -201 -127
-10 3 -19 2 -19 -2 0 -9 -37 -7 -46 2 -4 4 -16 7 -26 7 -51 0 -132 103 -144
182 l-6 48 31 -5 c17 -3 46 -8 64 -11z"/>
<path d="M307 2511 c-15 -15 -25 -30 -22 -33 4 -3 8 -21 11 -40 15 -113 55
-218 109 -288 19 -25 40 -55 47 -67 13 -26 46 -30 55 -8 3 9 -3 25 -12 35 -10
11 -15 20 -11 20 4 0 -1 12 -12 28 -37 51 -78 204 -84 310 -1 24 -8 48 -15 54
-7 6 -13 7 -13 3 0 -4 -6 -3 -12 3 -9 7 -21 2 -41 -17z"/>
<path d="M4557 2453 c-4 -6 -16 -9 -27 -6 -15 4 -22 -2 -30 -22 -10 -27 -67
-85 -82 -85 -5 0 -8 -5 -8 -10 0 -18 -68 -85 -107 -106 -70 -38 -118 -66 -143
-84 -14 -9 -35 -21 -47 -24 -13 -4 -23 -11 -23 -15 0 -5 -26 -16 -57 -25 -32
-9 -71 -25 -88 -36 -16 -11 -53 -32 -82 -45 -28 -14 -54 -33 -58 -44 -4 -12
-19 -21 -44 -25 -21 -3 -44 -13 -51 -21 -19 -23 -14 -73 9 -93 18 -16 36 -42
77 -117 9 -16 42 -57 73 -90 32 -33 71 -85 88 -115 18 -30 41 -65 52 -77 12
-12 21 -26 21 -30 0 -15 37 -82 75 -137 23 -33 43 -80 55 -129 10 -41 33 -102
49 -135 17 -33 32 -75 34 -93 3 -19 7 -41 10 -49 3 -8 13 -37 22 -65 30 -95
57 -137 90 -141 17 -2 37 4 49 14 13 11 17 12 11 3 -5 -8 6 -4 24 10 50 37
104 67 124 68 9 1 17 5 17 9 0 5 19 17 43 27 23 11 53 26 67 35 14 9 41 22 60
29 19 8 53 21 75 31 22 10 51 21 65 25 14 4 34 14 45 21 11 8 32 14 47 14 16
0 28 4 28 8 0 8 64 35 90 37 8 1 22 2 30 3 9 1 21 17 28 36 13 34 8 63 -14 81
-6 6 -21 38 -33 73 -21 63 -25 71 -54 130 -9 19 -17 38 -17 44 0 5 -20 40 -44
77 -54 83 -66 107 -71 131 -2 11 -22 57 -44 103 -23 45 -41 87 -41 92 0 6 -19
48 -41 95 -23 47 -50 114 -61 150 -11 36 -29 85 -40 110 -11 25 -26 59 -34 75
-15 35 -29 90 -50 190 -9 47 -28 85 -41 85 -6 0 -13 5 -15 12 -3 9 -6 9 -11 1z
m-21 -180 c3 -10 27 -74 54 -143 27 -69 60 -157 73 -195 14 -39 36 -95 50
-125 14 -30 40 -93 58 -140 32 -82 99 -229 119 -260 6 -8 14 -24 19 -35 5 -12
16 -27 24 -34 9 -7 28 -45 43 -84 15 -40 31 -76 35 -82 4 -5 16 -36 27 -68
l21 -57 -22 -15 c-13 -8 -40 -17 -62 -21 -22 -3 -49 -11 -60 -17 -11 -6 -22
-12 -25 -12 -34 -9 -66 -19 -70 -24 -3 -4 -44 -22 -92 -40 -49 -19 -93 -40
-99 -47 -6 -8 -20 -14 -30 -14 -10 0 -21 -5 -24 -11 -12 -18 -172 -89 -188
-83 -16 6 -41 73 -52 134 -3 19 -22 69 -42 110 -20 41 -35 80 -34 87 1 6 -3
14 -9 18 -5 3 -10 17 -10 31 0 26 -46 124 -64 136 -6 4 -7 8 -3 8 5 0 0 12
-11 28 -10 15 -24 42 -31 60 -8 17 -17 32 -21 32 -4 0 -10 13 -13 28 -3 15
-17 40 -31 55 -14 16 -26 31 -26 34 0 16 -71 111 -140 188 -10 11 -28 42 -40
68 -12 26 -26 50 -32 53 -5 3 12 20 38 37 26 17 60 43 76 58 35 32 88 60 130
68 18 4 103 43 108 50 12 16 99 69 153 91 31 13 57 26 57 30 0 11 71 84 98
101 35 23 42 23 48 2z"/>
<path d="M3070 775 c-76 -44 -118 -57 -199 -61 -46 -2 -90 -9 -97 -15 -19 -16
-17 -43 4 -70 15 -18 28 -22 63 -21 51 2 139 29 139 43 0 5 8 9 18 9 28 1 126
95 119 114 -8 19 -15 20 -47 1z"/>
</g>
</svg>
