<?xml version="1.0" standalone="no"?>
<!DOCTYPE svg PUBLIC "-//W3C//DTD SVG 20010904//EN"
 "http://www.w3.org/TR/2001/REC-SVG-20010904/DTD/svg10.dtd">
<svg version="1.0" xmlns="http://www.w3.org/2000/svg"
 width="515.000000pt" height="479.000000pt" viewBox="0 0 515.000000 479.000000"
 preserveAspectRatio="xMidYMid meet">
<metadata>
Created by potrace 1.16, written by Peter Selinger 2001-2019
</metadata>
<g transform="translate(0.000000,479.000000) scale(0.100000,-0.100000)"
fill="#000000" stroke="none">
<path d="M2071 4783 c-8 -3 -25 -15 -36 -27 -55 -53 -117 -106 -126 -106 -5 0
-9 -4 -9 -9 0 -5 -69 -80 -154 -165 -85 -86 -166 -173 -182 -194 -15 -20 -51
-60 -78 -87 -28 -28 -73 -78 -101 -110 -27 -33 -91 -102 -141 -155 -211 -222
-269 -286 -302 -330 -14 -19 -31 -39 -36 -45 -6 -5 -29 -32 -50 -60 -22 -27
-44 -54 -50 -60 -6 -5 -22 -23 -35 -40 -12 -16 -56 -66 -96 -110 -113 -124
-125 -137 -125 -145 0 -4 -29 -36 -64 -72 -35 -35 -69 -74 -75 -86 -12 -22
-42 -58 -109 -131 -19 -20 -46 -52 -60 -71 -15 -19 -30 -38 -35 -41 -16 -11
-17 -57 -2 -69 8 -7 15 -27 15 -44 0 -18 6 -56 14 -86 8 -30 24 -102 35 -160
11 -58 31 -154 45 -215 32 -144 94 -433 100 -465 17 -86 59 -282 102 -470 8
-36 23 -108 34 -160 19 -92 41 -192 61 -275 5 -22 11 -54 13 -71 2 -17 5 -35
8 -40 3 -5 9 -35 13 -68 3 -32 10 -66 14 -75 5 -9 16 -54 26 -101 29 -147 33
-164 55 -210 33 -72 35 -74 67 -85 16 -5 28 -15 26 -21 -6 -17 30 -55 52 -56
11 0 63 2 115 5 100 6 1798 21 2267 19 169 0 279 -5 291 -11 17 -9 24 -5 47
24 14 20 30 33 34 30 14 -8 48 38 56 75 8 37 63 190 106 295 9 23 18 55 24 85
2 11 11 35 20 52 8 17 15 39 15 49 0 9 3 19 8 21 4 2 15 28 25 58 11 30 29 84
42 120 12 36 37 110 56 165 18 55 39 111 46 125 7 14 13 30 13 37 0 7 6 27 14
45 8 18 23 56 35 83 11 28 29 84 40 125 10 42 28 96 39 120 11 25 34 90 52
145 18 55 38 114 46 130 7 17 27 73 45 125 17 52 47 136 66 185 19 50 46 124
60 165 14 41 43 123 64 182 22 60 39 116 39 126 0 10 5 23 10 28 13 13 33 65
112 294 33 96 65 180 70 187 17 21 4 54 -38 98 l-40 43 -170 6 c-149 5 -337
18 -459 30 -22 3 -103 7 -180 11 -76 4 -142 8 -145 10 -3 2 -64 7 -135 10 -72
4 -143 8 -160 10 -102 10 -175 15 -289 20 -71 3 -131 7 -135 9 -3 2 -60 6
-126 10 -66 4 -151 10 -190 14 -38 4 -94 7 -122 6 -40 0 -54 3 -57 15 -7 25
-15 90 -21 161 -5 70 -33 275 -40 300 -2 8 -11 76 -20 150 -8 74 -17 151 -20
170 -3 19 -11 98 -20 175 -8 77 -16 149 -19 160 -2 11 -7 62 -11 113 -4 50
-11 94 -15 97 -18 11 -109 3 -154 -15 -19 -7 -28 -5 -42 11 -17 19 -36 23 -63
12z m189 -234 c0 -25 11 -126 24 -225 14 -98 27 -210 31 -248 3 -39 10 -112
15 -163 6 -51 9 -97 8 -101 -2 -7 6 -61 24 -177 6 -38 13 -90 14 -115 7 -90
21 -150 38 -163 16 -12 16 -14 -1 -37 -10 -14 -25 -38 -32 -55 -12 -26 -14
-27 -20 -12 -4 10 -11 17 -16 15 -5 -2 -14 17 -20 42 -7 25 -16 54 -22 65 -6
11 -19 52 -28 90 -20 81 -94 308 -104 315 -3 3 -7 19 -7 35 -1 17 -8 44 -15
60 -6 17 -13 35 -15 40 -1 6 -10 37 -19 70 -9 33 -20 76 -25 95 -4 19 -12 46
-18 60 -29 71 -55 207 -41 216 13 8 11 48 -3 62 -13 13 9 38 152 179 l55 54
12 -28 c7 -15 12 -49 13 -74z m-290 -2 c0 -2 -10 -12 -21 -23 -22 -19 -22 -19
-8 4 12 19 29 30 29 19z m-83 -89 c-19 -24 -54 -63 -77 -88 -23 -25 -61 -67
-84 -94 -22 -27 -62 -72 -87 -100 -26 -28 -59 -67 -75 -86 -16 -18 -45 -50
-64 -70 -19 -20 -48 -52 -65 -72 -41 -50 -264 -285 -417 -441 -70 -71 -130
-138 -133 -148 -4 -11 -31 -45 -61 -77 -31 -31 -76 -81 -100 -109 -25 -29 -50
-53 -56 -53 -6 0 16 30 48 68 33 37 62 72 66 77 4 6 21 26 38 45 16 19 30 37
30 40 0 4 24 32 53 62 49 53 68 76 117 141 12 15 59 66 106 114 46 47 84 89
84 92 0 3 33 40 73 82 39 41 83 89 97 105 14 16 50 52 80 80 73 68 170 172
170 182 0 5 14 18 30 30 17 13 30 27 30 33 0 12 223 240 228 234 3 -2 -12 -23
-31 -47z m46 -168 c5 -21 -7 -28 -18 -10 -4 6 -11 8 -16 5 -13 -9 -11 9 3 23
14 14 24 8 31 -18z m-73 -142 c24 -76 40 -129 86 -288 15 -52 33 -104 40 -115
10 -16 43 -124 58 -190 17 -70 65 -226 86 -275 20 -47 56 -195 53 -219 -1 -7
7 -23 18 -34 10 -12 19 -17 19 -11 0 10 20 -17 20 -28 0 -12 -49 -1 -65 16 -9
9 -22 16 -29 16 -6 0 -18 6 -24 12 -7 7 -18 13 -25 13 -7 0 -34 6 -62 12 -27
7 -67 14 -87 18 -37 6 -38 7 -61 84 -14 43 -35 90 -48 105 -16 18 -26 45 -30
79 -4 29 -37 138 -74 242 -109 307 -120 345 -107 365 6 10 8 27 5 38 -4 16 19
45 98 126 57 58 104 106 105 106 1 0 12 -33 24 -72z m97 50 c-3 -8 -6 -5 -6 6
-1 11 2 17 5 13 3 -3 4 -12 1 -19z m17 -44 c10 -38 0 -41 -12 -5 -6 17 -7 31
-3 31 5 0 12 -12 15 -26z m11 -54 c3 -5 1 -10 -4 -10 -6 0 -11 5 -11 10 0 6 2
10 4 10 3 0 8 -4 11 -10z m29 -109 c-6 -7 -11 2 -17 34 l-6 30 13 -30 c8 -16
12 -32 10 -34z m26 -74 c0 -20 0 -20 -14 -2 -8 11 -12 23 -9 28 8 13 23 -3 23
-26z m30 -88 c0 -5 -4 -9 -10 -9 -5 0 -10 7 -10 16 0 8 5 12 10 9 6 -3 10 -10
10 -16z m7 -41 c-3 -8 -6 -5 -6 6 -1 11 2 17 5 13 3 -3 4 -12 1 -19z m-609
-40 c11 -29 34 -91 50 -138 17 -47 37 -101 45 -120 8 -19 23 -64 33 -100 10
-36 23 -72 31 -81 7 -8 13 -23 13 -32 0 -9 9 -36 19 -59 25 -54 91 -236 126
-348 15 -47 31 -89 36 -95 5 -5 9 -18 9 -30 0 -12 5 -26 12 -33 7 -7 9 -12 6
-12 -4 0 7 -33 23 -72 16 -40 30 -75 30 -78 -1 -17 21 -80 29 -85 16 -10 12
-41 -11 -80 -21 -35 -21 -35 -39 -15 -9 11 -21 20 -25 20 -5 0 -16 6 -24 13
-32 27 -239 76 -261 62 -6 -4 -10 -24 -10 -45 l0 -39 58 -6 c93 -10 144 -25
190 -55 24 -16 49 -31 55 -33 11 -3 -70 -178 -85 -185 -5 -2 -8 -10 -8 -18 0
-8 -4 -14 -10 -14 -5 0 -10 -6 -10 -14 0 -21 -42 -96 -54 -96 -5 0 -6 3 -3 7
4 3 3 11 -2 17 -5 6 -21 43 -36 81 -15 39 -31 79 -35 90 -5 11 -21 58 -36 105
-15 47 -31 89 -36 95 -4 5 -8 21 -8 37 0 30 -25 131 -37 151 -4 6 -8 18 -9 25
-2 8 -16 41 -33 75 -17 34 -31 66 -31 70 0 5 -16 41 -34 80 -19 40 -53 128
-76 196 -22 68 -47 138 -54 155 -23 53 -47 128 -67 216 -11 47 -24 93 -30 103
-8 15 -2 29 31 72 23 29 59 68 81 85 21 18 39 37 39 42 0 5 25 35 55 66 30 31
55 60 55 65 0 23 19 0 38 -45z m636 -28 l7 -25 -15 25 c-9 14 -15 32 -15 40 0
13 1 13 8 0 5 -8 12 -26 15 -40z m-1042 -362 c-7 -7 -12 -8 -12 -2 0 14 12 26
19 19 2 -3 -1 -11 -7 -17z m1693 -43 c88 -4 162 -8 166 -10 3 -2 77 -7 165
-11 87 -3 163 -9 167 -11 5 -3 11 4 14 16 5 19 12 21 94 21 53 0 89 -4 89 -10
0 -5 18 -10 40 -10 33 0 40 -4 40 -19 0 -18 9 -19 127 -20 74 -1 130 -6 134
-12 3 -6 10 -9 15 -8 5 2 41 0 79 -4 39 -4 120 -9 180 -13 61 -3 127 -10 149
-14 21 -5 45 -6 53 -3 11 4 13 -1 7 -23 -4 -16 -13 -41 -20 -56 -8 -15 -14
-34 -14 -42 0 -8 -7 -22 -15 -30 -13 -13 -33 -14 -113 -10 -53 4 -108 6 -122
6 -14 0 -63 3 -110 8 -47 5 -141 12 -210 15 -68 4 -127 8 -131 11 -4 2 -60 6
-125 8 -66 3 -137 7 -159 10 -73 8 -198 17 -300 22 -170 7 -243 12 -303 18
-31 3 -91 8 -132 12 -41 3 -76 6 -77 7 -1 2 15 36 35 77 34 68 40 75 72 81 19
3 37 4 40 3 3 -1 77 -5 165 -9z m-1731 -202 c20 -51 70 -195 111 -320 42 -124
79 -231 84 -237 4 -6 14 -32 21 -59 7 -26 17 -50 21 -53 5 -3 9 -15 9 -28 0
-12 4 -26 9 -31 11 -12 59 -147 67 -190 3 -16 10 -38 15 -47 5 -9 9 -28 9 -42
0 -14 5 -26 12 -26 6 0 9 -3 5 -6 -3 -4 2 -23 13 -43 17 -34 50 -145 54 -181
1 -8 12 -34 24 -57 22 -42 35 -49 85 -44 27 3 21 -35 -14 -98 -17 -31 -33 -57
-34 -59 -2 -2 -21 10 -43 26 -68 48 -221 95 -297 90 -45 -3 -50 -5 -53 -29 -4
-32 15 -48 64 -54 98 -11 135 -18 140 -26 3 -5 16 -9 29 -9 26 0 95 -42 108
-66 10 -17 -33 -113 -90 -201 -20 -32 -50 -83 -65 -113 -47 -91 -34 -111 -145
220 -31 91 -73 214 -95 273 -21 60 -38 116 -38 126 0 9 -4 21 -9 26 -4 6 -25
60 -44 120 -20 61 -75 225 -122 365 -113 334 -185 561 -185 582 0 10 67 89
154 183 41 44 89 97 107 118 l32 38 13 -28 c7 -15 29 -70 48 -120z m1236 102
c0 -5 -5 -3 -10 5 -5 8 -10 20 -10 25 0 6 5 3 10 -5 5 -8 10 -19 10 -25z
m2242 -31 c42 -6 41 0 12 -109 -13 -51 -108 -327 -158 -465 -16 -41 -37 -102
-48 -135 -11 -33 -24 -69 -29 -80 -5 -11 -29 -78 -53 -150 -66 -191 -86 -248
-96 -270 -5 -11 -21 -54 -34 -95 -14 -41 -41 -120 -61 -175 -20 -55 -47 -136
-61 -180 -14 -44 -34 -102 -45 -130 -10 -27 -21 -60 -23 -72 -3 -12 -9 -30
-15 -41 -5 -10 -22 -54 -36 -98 -15 -43 -33 -93 -41 -111 -8 -17 -14 -37 -14
-45 0 -8 -4 -18 -9 -24 -5 -5 -24 -54 -42 -109 -17 -55 -42 -122 -54 -150 -13
-27 -31 -79 -41 -115 -31 -112 -84 -244 -105 -260 -13 -11 -20 -30 -22 -60 -3
-43 -5 -45 -33 -45 -16 0 -31 -3 -34 -6 -3 -4 -30 -3 -60 1 -30 4 -206 5 -390
4 -725 -8 -1987 -7 -2029 0 -29 6 -39 11 -30 16 7 5 18 28 24 52 l10 43 59 6
c33 4 208 7 390 8 181 1 333 4 338 7 4 3 8 -1 8 -8 0 -9 3 -10 8 -2 11 18
1386 24 1403 7 12 -12 49 -5 49 9 0 6 7 8 15 4 8 -3 15 -1 15 5 0 6 5 7 10 4
9 -6 31 32 36 65 5 26 35 105 45 114 5 6 9 17 9 25 0 15 39 126 65 186 13 29
27 65 30 75 8 32 21 57 37 74 13 15 18 29 14 48 -4 19 6 50 29 100 19 40 36
88 37 105 1 18 6 33 10 33 4 0 8 6 8 13 0 8 16 50 35 95 20 45 49 119 66 164
80 221 123 338 141 393 21 63 36 101 86 225 17 41 62 158 100 260 39 102 79
204 91 225 12 22 21 47 21 56 0 8 3 19 7 23 4 3 25 55 47 114 33 85 45 108 62
110 28 4 42 37 37 88 -3 31 5 59 31 118 l36 77 52 -6 c29 -3 70 -8 90 -11z
m-3857 -94 c-3 -5 -12 -10 -18 -10 -7 0 -6 4 3 10 19 12 23 12 15 0z m1743
-91 c13 -16 32 -21 82 -24 36 -3 85 -7 110 -9 114 -11 235 -18 350 -21 69 -1
163 -6 210 -9 154 -11 244 -18 300 -21 223 -12 322 -18 370 -21 30 -2 71 -3
90 -2 74 2 181 -9 193 -21 5 -5 22 -5 37 -1 l28 8 -23 -66 c-13 -37 -40 -107
-60 -157 -21 -49 -45 -109 -54 -133 -19 -47 -34 -48 -21 -1 6 20 5 29 -3 30
-7 1 -61 2 -122 4 -102 3 -444 22 -525 30 -19 1 -82 6 -140 10 -58 4 -179 13
-270 21 -91 9 -221 19 -290 25 -293 22 -278 19 -256 51 17 23 13 40 -20 85
-13 17 -24 35 -24 40 0 5 -13 23 -29 40 l-29 32 18 33 c11 18 26 48 35 66 18
38 21 39 43 11z m-366 -23 c65 -17 105 -32 121 -46 6 -6 20 -16 30 -23 17 -12
17 -15 3 -42 -9 -17 -21 -41 -26 -55 -6 -14 -25 -48 -43 -77 -31 -49 -34 -51
-46 -32 -7 12 -23 51 -36 87 -13 37 -35 97 -49 135 -14 37 -21 67 -16 67 5 0
33 -6 62 -14z m258 -191 c0 -6 9 -20 20 -30 11 -10 20 -24 20 -32 0 -7 9 -22
21 -34 l21 -21 -59 6 c-32 3 -71 5 -86 5 -25 1 -28 3 -21 23 4 13 18 40 30 60
13 21 24 43 24 49 0 8 4 8 15 -1 8 -7 15 -18 15 -25z m-1745 -87 c9 -29 22
-66 29 -83 15 -36 134 -387 146 -430 8 -31 36 -114 51 -150 4 -11 34 -99 65
-195 31 -96 60 -179 64 -185 8 -10 31 -78 34 -98 1 -7 4 -16 7 -22 7 -11 39
-112 59 -185 7 -25 27 -85 46 -135 18 -49 36 -103 39 -120 11 -51 46 -149 61
-173 16 -25 14 -31 -35 -105 -16 -23 -42 -67 -57 -97 -16 -30 -32 -57 -35 -60
-3 -3 -12 -22 -20 -44 -8 -21 -20 -41 -26 -43 -7 -3 -13 -14 -13 -24 0 -10 -3
-19 -8 -19 -4 0 -18 -30 -31 -67 -28 -77 -29 -75 -55 62 -10 50 -20 97 -23
105 -4 8 -8 22 -9 30 -1 8 -7 35 -13 60 -6 25 -27 119 -46 210 -20 91 -42 194
-51 230 -9 36 -20 90 -25 120 -6 30 -13 69 -16 85 -3 17 -8 37 -13 45 -4 8
-13 44 -19 80 -11 58 -18 92 -27 125 -1 6 -7 39 -13 75 -19 115 -21 125 -31
150 -10 26 -16 54 -26 125 -3 22 -9 51 -14 65 -5 14 -11 50 -14 80 -3 30 -13
82 -22 115 -9 33 -20 87 -25 120 -5 33 -13 83 -19 110 -6 28 -15 80 -20 116
-5 36 -13 74 -16 84 -6 14 -4 17 8 13 9 -4 28 10 52 38 21 24 39 44 41 44 1 0
10 -24 20 -52z m1635 -77 c-6 -12 -15 -21 -21 -21 -5 0 -2 11 7 25 20 30 31
26 14 -4z m85 -175 c66 -3 131 -8 145 -10 14 -2 66 -7 115 -10 50 -4 117 -11
150 -16 33 -5 114 -12 180 -14 209 -9 358 -17 430 -23 39 -3 113 -6 165 -8 52
-1 129 -7 170 -13 41 -7 111 -14 155 -17 44 -3 90 -7 102 -9 31 -6 73 15 79
42 4 12 11 22 16 22 6 0 8 -6 5 -12 -2 -7 -18 -47 -35 -88 -26 -63 -64 -163
-116 -305 -6 -16 -14 -34 -17 -40 -4 -5 -10 -26 -14 -45 -11 -50 -34 -83 -50
-70 -15 12 -73 16 -520 35 -155 7 -280 15 -455 30 -63 5 -345 22 -505 31 -44
2 -129 9 -190 15 -60 6 -143 11 -182 12 -40 1 -72 5 -70 8 1 3 33 67 71 142
l70 137 27 -33 c15 -17 31 -43 34 -57 4 -14 18 -40 32 -58 24 -32 26 -33 44
-16 34 31 9 104 -69 201 l-33 41 29 55 c52 97 73 116 102 92 9 -8 62 -15 135
-19z m-1436 -278 c6 -17 9 -33 6 -36 -2 -3 -7 4 -10 14 -4 10 -11 27 -16 37
-5 10 -5 17 0 17 5 0 14 -14 20 -32z m18 -80 c-3 -8 -6 -5 -6 6 -1 11 2 17 5
13 3 -3 4 -12 1 -19z m911 -352 c6 -3 104 -8 219 -11 114 -2 228 -6 253 -9 25
-3 110 -8 190 -11 80 -3 182 -10 227 -14 46 -5 136 -9 200 -10 65 -1 132 -3
148 -6 17 -2 71 -7 120 -10 50 -3 133 -10 185 -15 52 -5 143 -11 203 -12 59
-1 107 -5 107 -8 0 -3 18 -5 40 -3 22 1 40 -1 40 -5 0 -11 -53 -149 -97 -252
-23 -52 -46 -115 -53 -140 -7 -24 -22 -65 -35 -90 -12 -25 -25 -57 -29 -72
l-6 -28 -98 5 c-218 10 -366 15 -542 20 -182 5 -314 10 -580 21 -74 3 -178 7
-230 9 -196 8 -319 15 -458 26 -112 8 -146 8 -158 -2 -26 -21 -26 -2 0 40 14
22 26 46 26 52 0 6 8 23 19 37 25 37 75 135 73 145 -1 4 3 7 8 7 6 0 10 9 10
20 0 25 18 26 27 3 3 -10 15 -30 25 -45 10 -14 18 -33 18 -42 0 -9 5 -16 10
-16 6 0 10 -6 10 -13 0 -8 10 -23 23 -35 22 -21 24 -21 39 -5 16 20 15 76 -2
81 -5 2 -10 12 -10 22 0 10 -6 20 -14 23 -8 3 -24 27 -37 54 -13 26 -28 51
-33 55 -9 6 30 92 98 213 39 71 38 71 47 48 4 -12 12 -24 17 -27z m-778 -22
c0 -8 -4 -12 -10 -9 -5 3 -10 10 -10 16 0 5 5 9 10 9 6 0 10 -7 10 -16z m23
-64 c3 -11 1 -18 -4 -14 -5 3 -9 12 -9 20 0 20 7 17 13 -6z m372 -570 c-4 -6
-1 -18 6 -26 14 -17 12 -20 -24 -29 l-28 -7 17 36 c10 20 22 36 26 36 5 0 6
-5 3 -10z m203 -65 c3 -3 -6 -5 -21 -5 -14 0 -29 5 -32 10 -7 11 42 6 53 -5z
m-259 -56 c-19 -12 -24 -2 -8 17 9 11 14 13 17 4 3 -7 -2 -16 -9 -21z m-43
-89 c11 -11 100 -15 554 -25 124 -3 268 -7 320 -10 52 -2 192 -7 310 -9 244
-7 459 -15 572 -22 42 -3 126 -6 187 -8 61 -1 113 -5 117 -8 3 -4 12 -4 20 -1
8 3 14 2 14 -1 0 -16 -33 -86 -41 -86 -5 0 -6 -6 -3 -14 3 -7 -6 -39 -20 -71
-15 -32 -26 -63 -26 -69 -1 -6 -11 -24 -23 -39 -17 -21 -36 -30 -75 -36 -30
-4 -55 -4 -58 1 -3 4 -10 6 -15 2 -8 -5 -225 -7 -319 -3 -8 0 -159 -2 -335 -6
-425 -8 -1295 -13 -1366 -8 l-57 5 16 41 c9 23 21 49 28 57 7 8 32 56 57 105
24 50 60 115 80 145 21 30 37 58 37 62 0 11 14 10 26 -2z"/>
</g>
</svg>
