<?xml version="1.0" standalone="no"?>
<!DOCTYPE svg PUBLIC "-//W3C//DTD SVG 20010904//EN"
 "http://www.w3.org/TR/2001/REC-SVG-20010904/DTD/svg10.dtd">
<svg version="1.0" xmlns="http://www.w3.org/2000/svg"
 width="543.000000pt" height="467.000000pt" viewBox="0 0 543.000000 467.000000"
 preserveAspectRatio="xMidYMid meet">
<metadata>
Created by potrace 1.16, written by Peter Selinger 2001-2019
</metadata>
<g transform="translate(0.000000,467.000000) scale(0.100000,-0.100000)"
fill="#000000" stroke="none">
<path d="M3568 4411 c-22 -22 -22 -38 3 -76 29 -45 32 -54 25 -70 -6 -17 -36
-21 -36 -5 0 17 -45 58 -67 62 -22 3 -53 -18 -53 -37 0 -24 25 -62 77 -116
104 -109 169 -185 193 -224 13 -22 27 -42 31 -45 3 -3 27 -36 53 -75 85 -128
201 -291 224 -315 12 -13 22 -27 22 -30 0 -4 9 -18 20 -31 25 -31 26 -32 81
-104 26 -33 59 -82 75 -108 16 -27 37 -61 46 -75 37 -56 42 -73 31 -91 -23
-37 -26 -108 -7 -168 25 -80 101 -160 164 -171 39 -7 53 -3 125 33 65 32 88
49 112 85 41 61 56 108 44 146 -5 16 -12 46 -16 66 -4 24 -20 53 -48 82 -43
47 -71 58 -147 58 -30 0 -39 6 -63 41 -15 23 -52 76 -82 117 -30 41 -60 84
-67 94 -7 10 -25 32 -40 48 -16 16 -28 31 -28 34 0 3 -5 10 -11 17 -5 7 -35
46 -66 87 -30 41 -59 77 -63 80 -8 6 -69 102 -88 141 -8 14 -36 50 -63 80 -27
30 -49 57 -49 61 0 4 -6 13 -12 20 -15 16 -78 107 -132 192 -21 33 -42 63 -46
66 -3 3 -15 26 -26 52 -10 27 -22 48 -26 48 -5 0 -8 6 -8 13 0 13 -41 38 -58
36 -4 0 -15 -8 -24 -18z"/>
<path d="M4740 3971 c0 -6 -7 -11 -15 -11 -10 0 -15 -10 -15 -28 0 -34 19 -62
45 -67 11 -2 20 -4 20 -5 0 -1 10 -3 21 -4 36 -4 134 -86 174 -146 31 -47 49
-60 81 -60 45 0 55 61 18 112 -10 15 -19 31 -19 35 -1 4 -13 17 -27 28 -14 11
-36 30 -48 43 -12 12 -26 22 -30 22 -4 0 -25 14 -47 31 -22 18 -58 35 -81 40
-23 4 -50 11 -59 14 -11 4 -18 3 -18 -4z"/>
<path d="M4548 3705 c-9 -20 -8 -31 2 -50 7 -14 19 -25 25 -25 7 0 20 -10 31
-21 10 -12 47 -35 81 -51 78 -38 109 -73 129 -147 18 -65 44 -83 85 -60 27 14
22 55 -17 137 -34 74 -74 115 -154 160 -36 19 -79 46 -96 59 -41 30 -71 30
-86 -2z"/>
<path d="M2575 3650 c-33 -5 -87 -13 -119 -19 -32 -6 -63 -8 -67 -5 -5 3 -9 1
-9 -4 0 -5 -17 -12 -38 -16 -125 -20 -472 -175 -576 -258 -11 -10 -48 -39 -82
-65 -100 -79 -116 -94 -187 -178 -37 -44 -71 -84 -75 -90 -107 -153 -167 -263
-237 -435 -27 -65 -30 -76 -45 -140 -4 -19 -17 -71 -29 -115 -29 -116 -48
-440 -28 -495 3 -8 8 -41 11 -73 3 -32 8 -62 11 -67 3 -5 7 -21 9 -37 4 -30
43 -174 56 -208 20 -51 46 -107 86 -188 23 -48 41 -87 38 -87 -14 0 150 -220
226 -303 25 -27 48 -55 52 -62 4 -7 47 -46 95 -86 49 -41 94 -80 101 -87 7 -6
20 -12 28 -12 8 0 14 -4 14 -8 0 -5 10 -14 23 -20 12 -6 45 -25 72 -42 73 -43
250 -130 267 -130 8 0 18 -4 24 -9 16 -15 235 -69 344 -85 102 -14 326 -15
430 -1 66 9 220 44 240 55 10 5 20 7 23 4 8 -8 177 59 282 112 106 53 147 78
202 122 23 17 45 32 50 32 13 0 254 236 286 280 14 19 42 57 62 84 20 26 46
65 57 85 12 20 29 50 39 66 11 17 21 37 25 45 3 8 11 29 19 45 88 193 116 278
131 407 3 29 8 56 11 61 2 4 7 92 10 195 4 151 2 204 -12 277 -9 50 -18 97
-20 105 -18 109 -51 218 -104 345 -24 57 -87 180 -93 183 -5 2 -8 8 -8 13 0
13 -97 167 -125 199 -56 63 -195 199 -240 235 -27 22 -52 42 -55 45 -17 17
-80 60 -88 60 -6 0 -12 3 -14 8 -1 4 -28 20 -58 36 -30 16 -62 35 -71 42 -18
16 -226 105 -254 109 -11 2 -45 12 -75 23 -118 44 -466 73 -615 52z m425 -120
c126 -24 245 -57 300 -82 25 -11 59 -27 75 -35 17 -7 37 -17 45 -22 8 -4 44
-23 80 -41 107 -55 172 -101 275 -199 66 -62 175 -184 195 -217 8 -15 24 -37
35 -50 12 -12 27 -35 35 -51 8 -15 18 -30 21 -33 16 -13 129 -249 129 -269 0
-6 4 -19 9 -29 30 -54 76 -274 86 -407 22 -301 -20 -554 -131 -793 -19 -40
-34 -75 -34 -77 0 -16 -137 -224 -172 -263 -75 -83 -202 -203 -230 -218 -15
-8 -31 -20 -35 -26 -14 -23 -129 -97 -230 -148 -140 -72 -273 -116 -438 -145
-101 -18 -404 -23 -445 -7 -14 5 -31 7 -37 5 -17 -6 -207 41 -303 75 -131 45
-353 166 -416 226 -6 6 -28 25 -48 41 -87 71 -185 173 -259 270 -4 5 -19 24
-32 40 -14 17 -25 34 -25 38 0 5 -11 23 -24 40 -33 44 -120 225 -136 284 -7
26 -19 60 -26 74 -7 14 -15 37 -17 50 -2 13 -7 31 -11 40 -4 9 -6 20 -5 25 1
5 -1 16 -4 24 -29 70 -47 415 -28 525 7 39 14 88 17 110 4 44 65 277 74 285 3
3 14 25 23 50 10 25 26 59 35 76 9 17 28 51 41 75 33 61 98 157 135 200 17 19
41 46 52 60 31 35 122 119 174 160 123 97 180 139 190 139 5 0 10 3 10 8 0 4
15 13 33 21 17 7 65 28 104 47 40 19 77 34 83 34 6 0 18 4 28 9 19 11 107 39
139 45 11 2 37 9 59 16 135 40 447 50 604 20z"/>
<path d="M2640 2250 c0 -5 -6 -10 -14 -10 -16 0 -76 -55 -99 -91 -19 -30 -23
-71 -13 -132 8 -43 14 -53 61 -87 28 -21 75 -45 104 -54 51 -15 53 -15 96 10
25 13 45 22 45 18 0 -4 13 7 29 24 43 45 51 111 24 204 -10 33 -58 88 -77 88
-8 0 -16 5 -18 11 -2 7 -23 12 -46 12 -23 0 -42 4 -42 8 0 5 -11 9 -25 9 -14
0 -25 -4 -25 -10z m123 -138 c9 -10 20 -32 23 -49 5 -25 1 -33 -23 -50 -15
-11 -35 -19 -43 -17 -54 11 -66 15 -76 29 -6 8 -14 12 -17 9 -3 -3 -10 3 -16
14 -18 34 2 70 41 75 73 9 95 7 111 -11z"/>
<path d="M597 2402 c-13 -14 -16 -42 -16 -151 0 -74 4 -154 9 -178 6 -24 12
-65 14 -91 2 -26 6 -58 10 -72 3 -14 8 -38 10 -55 3 -16 7 -43 10 -60 8 -39
17 -93 18 -102 0 -5 5 -19 10 -33 5 -14 12 -36 14 -50 14 -74 136 -430 171
-495 8 -16 29 -57 47 -90 17 -33 34 -62 37 -65 4 -3 18 -30 33 -60 34 -71 60
-117 80 -139 9 -10 16 -23 16 -30 0 -6 29 -48 65 -93 36 -44 68 -91 71 -104
14 -54 106 -37 112 21 2 22 -5 40 -28 64 -16 19 -30 37 -30 41 0 3 -17 25 -39
47 -21 23 -41 48 -45 55 -3 7 -24 42 -47 78 -77 121 -205 366 -236 455 -63
175 -127 393 -144 495 -11 63 -22 129 -25 145 -3 17 -8 48 -10 70 -2 22 -7 54
-9 70 -3 17 -7 94 -9 173 -3 90 -9 149 -17 158 -16 19 -53 18 -72 -4z"/>
<path d="M4752 2290 c-18 -11 -32 -23 -32 -27 -1 -26 -22 -344 -25 -373 -2
-19 -9 -62 -15 -95 -6 -33 -15 -85 -19 -115 -5 -30 -25 -110 -45 -178 -20 -68
-36 -128 -36 -133 0 -5 -11 -32 -25 -61 -14 -28 -25 -55 -25 -59 0 -4 -5 -20
-12 -36 -6 -15 -12 -32 -13 -38 -7 -27 -49 -122 -72 -164 -14 -25 -37 -65 -49
-89 -13 -23 -32 -55 -42 -70 -31 -45 -82 -133 -82 -141 0 -6 -28 -39 -97 -112
-34 -35 -62 -59 -71 -59 -4 0 -13 -13 -19 -29 -16 -43 9 -91 48 -91 18 0 36 8
47 21 9 12 39 45 66 73 97 101 301 442 351 586 1 3 5 12 8 20 19 46 97 270 97
279 0 5 13 49 29 98 16 48 34 115 40 148 25 142 47 313 56 440 3 44 7 100 10
125 4 37 1 50 -18 72 l-23 27 -32 -19z"/>
<path d="M225 1840 c-18 -20 -21 -159 -4 -229 5 -24 11 -55 13 -70 26 -181 31
-204 66 -324 6 -21 24 -64 41 -95 16 -31 32 -71 35 -89 3 -18 10 -33 15 -33 5
0 9 -5 9 -10 0 -11 41 -102 49 -110 3 -3 15 -23 26 -44 11 -22 25 -45 31 -51
6 -6 31 -48 54 -93 24 -45 47 -82 51 -83 66 -8 93 8 93 54 0 19 -7 42 -14 50
-41 45 -90 118 -126 187 -15 30 -31 57 -35 60 -11 8 -60 121 -76 174 -8 27
-23 65 -34 85 -10 20 -19 41 -19 48 0 7 -5 13 -11 13 -6 0 -9 6 -6 14 3 7 -1
31 -8 53 -7 21 -16 59 -20 83 -4 25 -13 77 -21 115 -8 39 -18 117 -21 175 -3
58 -10 110 -15 116 -15 20 -56 22 -73 4z"/>
<path d="M4972 1787 c-18 -21 -24 -61 -27 -184 -3 -122 -17 -216 -40 -268 -7
-16 -17 -46 -23 -65 -44 -150 -98 -300 -116 -325 -12 -16 -33 -55 -45 -85 -13
-30 -26 -57 -30 -60 -3 -3 -24 -40 -46 -83 -22 -43 -55 -93 -72 -111 -57 -57
-50 -136 11 -142 33 -3 79 30 84 61 2 11 12 31 21 45 9 14 23 37 31 53 7 15
17 27 22 27 4 0 8 9 8 21 0 11 8 33 18 47 10 15 27 47 37 72 11 25 32 65 47
90 32 52 72 154 99 255 11 39 29 102 41 140 25 81 22 70 41 160 9 40 16 130
16 211 2 122 0 142 -14 148 -26 10 -52 7 -63 -7z"/>
</g>
</svg>
