<?xml version="1.0" standalone="no"?>
<!DOCTYPE svg PUBLIC "-//W3C//DTD SVG 20010904//EN"
 "http://www.w3.org/TR/2001/REC-SVG-20010904/DTD/svg10.dtd">
<svg version="1.0" xmlns="http://www.w3.org/2000/svg"
 width="511.000000pt" height="437.000000pt" viewBox="0 0 511.000000 437.000000"
 preserveAspectRatio="xMidYMid meet">
<metadata>
Created by potrace 1.16, written by Peter Selinger 2001-2019
</metadata>
<g transform="translate(0.000000,437.000000) scale(0.100000,-0.100000)"
fill="#000000" stroke="none">
<path d="M656 3846 c-20 -15 -9 -75 13 -74 9 0 70 -5 136 -11 66 -5 163 -12
215 -15 52 -4 133 -9 180 -12 47 -2 112 -7 145 -10 106 -10 115 -10 144 -12
23 -2 30 -8 34 -29 3 -16 11 -48 17 -73 6 -25 13 -53 15 -63 2 -9 6 -21 9 -25
2 -4 11 -46 20 -92 8 -47 24 -130 35 -185 29 -143 149 -764 155 -800 16 -99
28 -167 55 -305 17 -85 33 -166 36 -180 3 -14 19 -106 36 -205 17 -99 36 -202
41 -230 5 -27 11 -64 13 -80 1 -17 8 -49 14 -72 6 -22 20 -94 30 -159 11 -66
24 -139 30 -164 23 -103 23 -103 -112 -237 -67 -67 -157 -156 -199 -197 -42
-41 -84 -86 -93 -100 -15 -23 -15 -27 0 -60 29 -60 2 -55 375 -72 74 -3 151
-7 170 -9 19 -2 87 -7 150 -10 63 -3 165 -10 225 -15 184 -15 319 -24 342 -21
13 1 73 -3 135 -9 62 -6 142 -13 178 -16 36 -3 78 -7 93 -8 33 -3 71 29 140
121 26 34 50 63 55 65 4 1 25 26 47 53 22 28 77 87 122 133 46 45 83 86 83 90
0 8 90 101 164 171 33 31 45 48 40 60 -4 9 -6 23 -6 32 0 9 -9 26 -21 37 -18
17 -40 22 -117 27 -134 8 -131 7 -144 75 -2 14 -11 54 -20 90 -14 60 -39 184
-71 350 -41 217 -98 511 -106 545 -5 22 -18 92 -29 155 -11 63 -29 165 -40
225 -12 61 -27 148 -35 195 -8 47 -19 108 -24 135 -6 28 -12 61 -15 75 -3 14
-14 72 -26 130 -11 58 -30 143 -40 190 -23 98 -52 319 -44 332 3 4 8 7 12 4 4
-2 70 -7 147 -10 77 -3 165 -8 195 -11 67 -6 264 -17 305 -17 17 0 73 -4 125
-9 52 -5 154 -13 225 -19 176 -14 237 -20 246 -25 14 -10 50 31 54 61 7 59 -4
64 -170 69 -132 4 -260 11 -545 30 -102 6 -395 24 -505 31 -149 8 -265 16
-424 29 -30 3 -136 9 -235 15 -333 18 -371 21 -466 30 -52 5 -142 12 -200 15
-127 7 -316 21 -465 34 -60 6 -164 13 -230 16 -66 3 -133 8 -150 10 -39 5
-256 16 -368 19 -52 2 -93 -2 -101 -8z m1119 -160 c39 -3 131 -8 205 -11 74
-4 158 -11 186 -16 29 -6 71 -10 95 -9 44 1 115 -5 219 -17 30 -3 63 -5 72 -4
21 3 449 -27 498 -35 l35 -5 23 -122 c12 -67 24 -135 27 -152 2 -16 12 -61 20
-100 23 -102 54 -249 70 -335 7 -41 16 -82 19 -90 3 -8 8 -33 11 -55 23 -143
49 -275 79 -396 2 -9 7 -40 11 -70 4 -30 13 -81 20 -114 8 -33 18 -94 24 -135
5 -41 17 -109 25 -150 8 -41 29 -151 46 -245 17 -93 35 -190 40 -215 5 -25 11
-61 14 -80 2 -19 9 -57 15 -84 7 -27 11 -71 9 -97 l-3 -47 -107 3 c-59 2 -129
6 -155 9 -27 3 -100 8 -163 11 -63 3 -133 7 -155 10 -22 2 -103 7 -180 10 -76
4 -142 8 -145 10 -3 2 -61 6 -129 9 -110 6 -125 9 -141 28 l-17 22 -18 -27
c-10 -15 -23 -26 -30 -25 -7 2 -42 -25 -79 -60 -37 -34 -71 -60 -75 -57 -5 2
-12 26 -16 52 -9 68 -37 205 -47 233 -3 8 -13 58 -23 110 -22 122 -44 234 -55
285 -10 45 -43 217 -95 503 -20 106 -38 198 -40 205 -5 12 -72 362 -82 422
-16 104 -34 203 -43 234 -5 20 -14 65 -20 101 -20 130 -30 186 -39 225 -9 37
-23 126 -36 238 l-6 48 33 -5 c18 -3 65 -7 103 -10z m742 -2631 c54 -3 161 -7
238 -9 78 -3 181 -10 230 -15 50 -5 155 -13 235 -16 171 -6 380 -25 380 -34 0
-3 -26 -5 -57 -4 -32 1 -155 4 -273 7 -118 3 -343 9 -500 13 -157 3 -301 6
-321 5 -30 -1 -38 3 -43 21 -9 32 -7 49 3 42 6 -3 54 -8 108 -10z m-185 -37
c0 -13 2 -29 2 -37 1 -17 -34 -54 -139 -146 -44 -38 -85 -74 -91 -80 -6 -5
-33 -29 -60 -52 -27 -22 -67 -57 -89 -77 -119 -107 -179 -119 -81 -16 112 117
244 244 299 286 15 12 27 25 27 29 0 12 105 114 118 115 6 0 13 -10 14 -22z
m1379 -37 c19 -8 11 -10 -38 -10 -35 -1 -63 2 -63 7 0 11 75 13 101 3z m-916
-66 c853 -14 921 -17 908 -40 -9 -15 -150 -171 -220 -244 -24 -24 -43 -46 -43
-50 0 -3 -17 -22 -38 -42 -20 -19 -55 -55 -77 -79 l-39 -45 -150 3 c-82 2
-152 5 -156 7 -4 2 -92 7 -196 10 -104 3 -200 8 -214 10 -14 2 -65 6 -115 9
-87 6 -192 13 -285 21 -25 2 -87 7 -138 11 -51 4 -91 10 -90 15 4 10 165 148
210 180 17 13 46 39 65 59 18 21 52 50 75 66 78 52 116 86 121 105 3 10 11 17
19 15 7 -3 171 -7 363 -11z"/>
<path d="M1343 678 c-64 -102 -90 -223 -63 -294 16 -41 52 -74 83 -74 32 0 34
14 11 80 -24 68 -7 148 50 233 22 32 24 76 5 88 -32 20 -59 9 -86 -33z"/>
<path d="M1080 603 c-48 -19 -90 -102 -90 -179 0 -50 3 -59 31 -85 33 -31 58
-36 90 -19 26 14 24 34 -6 54 -39 26 -31 85 19 139 31 33 33 58 8 80 -19 18
-27 19 -52 10z"/>
<path d="M781 519 c-42 -16 -71 -59 -66 -99 4 -33 17 -49 57 -71 24 -13 62 25
55 53 -3 11 1 31 9 44 26 39 -12 89 -55 73z"/>
</g>
</svg>
