<?xml version="1.0" standalone="no"?>
<!DOCTYPE svg PUBLIC "-//W3C//DTD SVG 20010904//EN"
 "http://www.w3.org/TR/2001/REC-SVG-20010904/DTD/svg10.dtd">
<svg version="1.0" xmlns="http://www.w3.org/2000/svg"
 width="513.000000pt" height="463.000000pt" viewBox="0 0 513.000000 463.000000"
 preserveAspectRatio="xMidYMid meet">
<metadata>
Created by potrace 1.16, written by Peter Selinger 2001-2019
</metadata>
<g transform="translate(0.000000,463.000000) scale(0.100000,-0.100000)"
fill="#000000" stroke="none">
<path d="M1627 3994 c-1 -1 -27 -5 -57 -8 -30 -3 -66 -9 -80 -12 -54 -13 -108
-23 -145 -28 -72 -10 -110 -18 -120 -26 -5 -4 -27 -10 -48 -13 -20 -3 -69 -22
-107 -41 -39 -20 -77 -36 -85 -36 -9 0 -18 -7 -21 -15 -4 -8 -11 -15 -17 -15
-13 0 -65 -58 -81 -90 -6 -14 -10 -45 -9 -70 6 -82 6 -135 0 -160 -39 -175
-49 -288 -48 -528 0 -192 -7 -424 -23 -777 -2 -38 -9 -122 -15 -185 -12 -128
-9 -293 7 -385 6 -33 13 -76 16 -96 3 -19 12 -48 20 -64 8 -16 13 -32 10 -36
-6 -10 24 -142 35 -149 4 -3 22 -30 39 -61 18 -31 39 -62 47 -69 8 -7 15 -18
15 -24 0 -28 80 -132 114 -150 l37 -20 -54 -55 c-30 -31 -62 -76 -71 -101 -10
-25 -21 -49 -26 -55 -7 -9 -25 -67 -36 -120 -3 -11 -4 -60 -4 -110 2 -117 2
-115 12 -115 4 0 8 -9 8 -21 0 -66 108 -194 185 -219 22 -7 45 -17 51 -22 7
-5 16 -8 20 -7 5 1 11 0 14 -1 3 -1 27 -3 53 -4 27 -1 52 -8 56 -15 6 -10 10
-9 15 4 4 11 12 14 26 10 11 -3 32 1 47 9 16 9 52 25 80 36 64 24 141 77 203
139 66 66 104 167 105 276 0 130 -20 201 -75 256 -29 30 -70 79 -70 84 0 2
112 3 249 2 202 -1 248 -4 239 -14 -6 -7 -14 -13 -19 -13 -14 0 -80 -77 -101
-118 -11 -20 -26 -47 -34 -59 -21 -34 -42 -102 -49 -165 -4 -32 -6 -59 -4 -60
1 -2 -3 -13 -9 -25 -14 -26 5 -98 37 -140 12 -15 36 -46 52 -68 50 -66 148
-111 264 -121 28 -3 55 -6 61 -8 35 -12 234 60 234 85 0 5 6 9 14 9 20 0 66
48 109 113 46 69 55 93 62 164 3 32 8 66 11 76 7 21 -12 140 -28 177 -40 92
-69 131 -110 145 -26 9 -22 25 5 19 12 -2 117 -4 232 -4 198 -1 209 -2 184
-17 -15 -9 -41 -41 -59 -72 -18 -31 -41 -67 -50 -82 -16 -23 -26 -59 -48 -179
-9 -47 5 -148 25 -185 6 -11 9 -28 8 -37 -2 -10 3 -18 10 -18 7 0 15 -13 18
-30 4 -16 13 -30 21 -30 7 0 19 -7 26 -15 7 -9 38 -28 69 -42 31 -15 58 -29
61 -33 10 -13 148 -36 185 -31 6 1 29 4 53 7 23 3 42 10 42 15 0 5 7 9 15 9
25 0 128 53 164 85 32 29 90 111 104 148 18 48 24 148 14 251 -6 59 -44 165
-68 186 -10 9 -39 54 -39 61 0 6 246 6 369 1 l33 -2 -28 -29 c-40 -39 -68 -88
-84 -146 -7 -28 -16 -54 -20 -60 -19 -26 -28 -147 -16 -214 21 -115 81 -192
186 -239 30 -13 75 -33 99 -45 114 -53 322 3 407 110 48 60 58 82 69 158 1 11
7 32 13 46 11 27 25 126 25 169 -1 49 -21 165 -33 192 -12 25 -10 29 36 75 52
51 94 138 94 194 0 16 -7 46 -15 66 -10 24 -17 83 -21 167 -4 125 -16 181 -49
246 -8 16 -15 36 -15 44 0 43 -119 190 -175 216 -16 8 -50 33 -75 55 -25 23
-58 47 -75 53 -16 5 -39 14 -50 18 -11 4 -22 8 -25 9 -3 1 -12 5 -20 8 -29 12
-146 45 -220 62 -42 10 -130 19 -200 21 -151 4 -267 17 -397 45 -54 11 -123
23 -153 26 -30 3 -61 10 -68 16 -7 6 -25 12 -40 13 -111 11 -237 80 -285 156
-9 15 -28 30 -41 34 -20 5 -23 10 -17 32 10 40 5 85 -14 121 -18 36 -50 71
-65 71 -5 0 -13 12 -16 28 -4 15 -18 40 -31 55 -12 16 -24 33 -24 38 -2 12 -5
21 -12 39 -27 63 -34 99 -21 104 15 6 49 77 59 126 4 19 11 37 16 40 16 11
-19 114 -46 133 -14 10 -25 25 -25 32 0 8 -8 16 -17 18 -139 37 -143 40 -144
71 -1 17 -3 49 -4 71 -2 33 -4 127 -4 207 0 10 4 20 10 23 14 9 11 62 -8 103
-9 20 -18 50 -20 66 -1 15 -14 41 -28 58 -14 16 -25 33 -25 37 0 4 -29 24 -64
44 -35 21 -67 44 -69 51 -4 9 -30 17 -69 21 -80 8 -105 12 -205 30 -65 12
-347 27 -356 19z m341 -108 c26 -8 80 -16 119 -18 40 -2 73 -6 73 -10 0 -5 -8
-8 -18 -8 -10 0 -25 -9 -35 -20 -9 -11 -24 -20 -32 -20 -8 0 -15 -4 -15 -9 0
-5 -12 -12 -26 -15 -14 -4 -33 -20 -42 -36 -9 -16 -27 -35 -39 -41 -13 -7 -23
-18 -23 -26 0 -7 -5 -13 -12 -13 -6 0 -8 -3 -5 -6 3 -4 2 -16 -4 -27 -17 -30
-13 -86 7 -108 24 -27 9 -36 -71 -44 -78 -7 -417 0 -567 12 -127 11 -173 28
-270 99 -62 44 -65 78 -12 122 36 29 42 33 124 70 53 23 152 50 232 61 31 5
61 11 66 15 12 7 86 22 162 31 30 4 56 8 57 8 1 1 65 1 142 0 95 -1 157 -7
189 -17z m306 -111 c8 -9 18 -16 21 -15 19 1 24 -3 34 -31 7 -21 8 -36 1 -44
-5 -6 -8 -14 -5 -17 13 -13 -65 -77 -106 -87 -24 -6 -57 -15 -74 -21 -64 -20
-92 -20 -114 -1 -21 19 -27 42 -13 55 4 4 7 11 7 14 0 13 47 82 55 82 5 0 26
12 47 26 21 14 50 28 66 31 15 3 27 9 27 14 0 15 37 10 54 -6z m92 -395 c2
-154 1 -160 -20 -167 -11 -4 -23 -7 -26 -8 -18 -2 -168 -70 -181 -81 -8 -8
-23 -14 -32 -14 -16 0 -21 20 -32 139 -2 29 -7 68 -11 85 -4 23 -1 36 10 45 9
7 13 17 10 22 -7 11 15 51 25 45 4 -3 20 1 35 9 15 8 30 14 34 13 15 -3 95 24
139 47 25 14 46 25 47 25 1 0 2 -72 2 -160z m-1364 92 c62 -35 143 -60 218
-66 41 -4 104 -10 140 -15 89 -10 484 -5 545 7 54 11 69 3 59 -31 -3 -9 -1
-32 5 -50 6 -18 13 -76 15 -128 2 -51 7 -102 10 -111 6 -13 -3 -21 -41 -38
-118 -52 -156 -103 -155 -205 1 -33 4 -69 6 -80 2 -11 5 -23 5 -26 1 -3 16
-21 34 -40 37 -40 78 -60 127 -65 99 -11 98 -10 110 -72 6 -31 15 -72 20 -90
8 -31 6 -37 -28 -68 -20 -19 -42 -34 -48 -34 -14 0 -45 -35 -73 -82 -26 -44
-32 -147 -11 -188 17 -33 59 -70 80 -70 9 0 20 -4 26 -10 17 -17 103 -23 157
-11 69 15 214 50 252 61 47 12 185 80 185 91 0 5 5 9 12 9 17 0 98 81 98 99 0
8 28 -12 63 -45 34 -32 89 -72 122 -88 33 -16 68 -33 77 -38 10 -4 24 -8 33
-8 8 0 35 -7 60 -16 26 -8 72 -20 103 -25 31 -6 71 -12 87 -15 17 -3 41 -7 55
-9 14 -2 68 -10 120 -19 52 -9 123 -20 156 -26 34 -5 111 -10 171 -10 71 0
123 -5 144 -14 19 -7 57 -16 84 -20 106 -14 250 -81 349 -164 17 -13 40 -28
51 -32 41 -16 133 -179 156 -276 16 -71 20 -205 6 -250 -6 -22 -21 -49 -33
-61 -12 -12 -24 -27 -26 -34 -3 -9 -12 -10 -35 -2 -17 6 -36 7 -44 2 -8 -4
-192 -6 -409 -3 -217 3 -730 7 -1140 9 -764 5 -1410 13 -1445 19 -22 4 -56
-10 -53 -22 1 -4 -3 -15 -7 -26 -5 -11 -4 -26 2 -35 9 -14 45 -16 299 -17 938
-4 2312 -19 2446 -27 20 -2 40 -6 44 -10 5 -4 -152 -5 -347 -2 -194 2 -718 7
-1164 10 -974 6 -1401 12 -1436 20 -21 6 -27 2 -38 -22 l-13 -28 -13 37 c-13
38 -52 88 -70 88 -14 0 -55 50 -55 67 0 8 -13 28 -30 46 -16 18 -30 35 -30 40
0 4 -11 25 -24 46 -24 38 -39 83 -51 150 -3 19 -9 41 -14 50 -7 14 -12 45 -28
186 -10 78 -7 231 5 340 18 159 23 310 27 770 3 391 5 416 29 547 14 76 26
140 26 143 0 8 8 6 42 -13z m1481 -349 c6 -4 19 -8 28 -8 9 -1 30 -12 47 -26
24 -18 31 -32 31 -59 2 -77 -34 -139 -83 -144 -12 -1 -71 -26 -130 -55 -60
-29 -111 -50 -114 -47 -3 3 -11 1 -18 -4 -6 -6 -16 -9 -20 -8 -5 2 -27 -8 -49
-22 -31 -19 -57 -26 -113 -29 -89 -4 -123 9 -150 58 -31 55 -21 102 31 146 22
19 47 35 54 35 13 0 53 19 63 31 3 3 21 11 40 19 59 23 144 60 165 72 57 33
191 58 218 41z m60 -429 c3 -12 11 -31 18 -42 14 -22 10 -32 -13 -36 -7 -2
-20 -5 -28 -8 -8 -3 -40 -13 -70 -22 -30 -9 -95 -36 -145 -60 -101 -49 -109
-48 -121 23 -3 20 -9 46 -14 58 -11 28 -2 35 80 62 77 26 86 30 170 69 92 43
104 44 112 7 3 -16 8 -40 11 -51z m128 -200 c27 -13 58 -74 38 -74 -6 0 -8 -3
-5 -8 2 -4 -6 -30 -18 -59 -24 -56 -73 -106 -123 -125 -18 -7 -33 -15 -33 -19
0 -3 -35 -19 -77 -34 -43 -14 -87 -31 -98 -35 -11 -5 -35 -12 -54 -16 -33 -6
-47 -8 -156 -21 -36 -4 -58 -1 -81 12 -41 22 -47 37 -33 88 12 44 99 137 129
137 9 0 31 11 49 24 42 31 228 123 261 130 14 2 36 8 49 13 31 12 118 5 152
-13z m1969 -1431 c0 -5 -8 -22 -19 -38 -14 -25 -26 -32 -57 -34 -22 -1 -54 -4
-73 -5 -18 -2 -48 0 -65 5 -23 5 -10 7 47 8 66 1 84 5 115 26 20 14 33 25 29
25 -5 0 -5 5 -2 10 7 12 25 13 25 3z m-325 -63 c3 -5 -3 -10 -15 -10 -12 0
-18 5 -15 10 3 6 10 10 15 10 5 0 12 -4 15 -10z m-62 -7 c-7 -2 -21 -2 -30 0
-10 3 -4 5 12 5 17 0 24 -2 18 -5z m122 -113 c4 -6 12 -9 18 -8 7 1 23 -4 37
-12 14 -7 27 -13 30 -13 10 1 36 -23 52 -48 9 -15 19 -55 23 -90 6 -63 6 -64
-12 -39 -10 14 -32 39 -50 57 -18 17 -33 35 -33 40 0 4 -15 22 -33 39 -18 16
-31 37 -29 45 3 7 1 11 -3 7 -9 -9 -35 9 -35 23 0 12 27 11 35 -1z m-3122 -27
c27 -5 31 -12 28 -46 -2 -19 29 -34 84 -40 34 -4 52 -15 101 -62 35 -34 67
-156 62 -237 -4 -43 -11 -75 -22 -87 -20 -22 -21 -70 -1 -77 20 -8 9 -24 -16
-24 -10 0 -19 -4 -19 -10 0 -5 -6 -10 -14 -10 -8 0 -36 -11 -62 -24 -27 -14
-51 -23 -55 -21 -3 3 -39 7 -80 11 -57 4 -84 12 -119 35 -74 46 -99 95 -116
219 -3 25 -7 46 -9 48 -7 7 27 133 50 186 31 70 117 161 143 151 9 -3 29 -9
45 -12z m2049 -15 c10 -10 18 -20 18 -23 0 -3 11 -16 25 -29 14 -13 25 -26 25
-30 0 -4 7 -14 15 -22 8 -9 15 -24 15 -35 0 -10 5 -19 11 -19 5 0 20 -21 31
-47 44 -99 24 -336 -29 -349 -13 -4 -23 -9 -23 -13 0 -14 -100 -32 -119 -21
-10 5 -21 7 -23 4 -9 -8 -141 48 -172 74 -52 42 -70 88 -70 177 1 96 5 118 29
170 10 22 18 43 17 47 -2 9 90 100 116 116 12 6 31 12 41 12 11 0 22 4 25 9 8
13 46 1 68 -21z m-1710 -49 c79 -84 107 -135 101 -190 -3 -24 -5 -51 -5 -59 0
-15 -11 -47 -29 -82 -5 -10 -9 -25 -9 -33 0 -9 -4 -14 -9 -11 -4 3 -6 17 -4
30 6 29 -14 155 -27 171 -4 5 -11 30 -15 55 -10 63 -27 92 -82 139 l-48 41 34
0 c30 0 44 -9 93 -61z m1915 32 c12 -9 24 -26 28 -39 3 -12 14 -31 25 -42 11
-11 20 -28 20 -38 0 -10 5 -23 10 -28 10 -10 16 -174 7 -204 -18 -64 -24 -61
-24 16 0 43 -5 99 -11 124 -12 51 -47 126 -62 135 -5 3 -10 13 -10 21 0 8 -11
27 -25 42 -14 15 -25 31 -25 35 0 11 40 -2 67 -22z m-958 -7 c64 -42 104 -139
102 -249 0 -11 -1 -34 -1 -50 0 -17 -11 -52 -24 -78 l-22 -47 -2 62 c-1 35 -4
74 -7 88 -3 14 -8 45 -10 70 -3 25 -13 56 -23 70 -10 14 -24 41 -32 60 -8 19
-20 39 -27 43 -7 4 -13 15 -13 22 0 8 -4 15 -10 15 -5 0 -10 5 -10 10 0 14 47
5 79 -16z m-234 -14 c48 -22 95 -61 95 -80 0 -5 6 -13 13 -17 18 -11 49 -89
54 -138 3 -22 9 -45 15 -52 13 -16 5 -144 -13 -201 -10 -34 -21 -48 -48 -61
-39 -20 -146 -27 -165 -12 -6 5 -29 14 -51 20 -60 16 -117 57 -154 111 -29 43
-32 53 -27 97 8 64 27 146 36 158 4 6 11 24 14 42 4 17 17 42 29 55 12 13 34
38 49 56 15 18 29 32 30 32 2 -1 10 1 18 4 34 11 45 13 50 11 3 -1 27 -12 55
-25z m1885 15 c19 -2 36 -8 38 -14 2 -6 10 -11 17 -11 8 0 35 -25 62 -56 26
-31 68 -78 93 -104 51 -53 65 -95 69 -192 2 -64 1 -66 -38 -106 -43 -43 -82
-59 -168 -69 -43 -5 -66 -1 -128 23 -41 16 -75 35 -75 42 0 7 -4 11 -8 8 -20
-12 -68 32 -81 75 -7 24 -16 51 -21 59 -15 30 20 210 47 241 7 8 13 21 13 27
0 6 10 18 22 26 12 9 19 16 14 16 -11 0 33 35 54 43 8 3 24 4 35 1 11 -3 36
-6 55 -9z"/>
<path d="M1195 587 c-40 -69 -30 -134 24 -161 47 -25 78 -18 85 19 3 16 2 45
-3 62 -5 18 -7 40 -5 50 3 10 1 31 -5 46 -8 21 -17 27 -40 27 -25 0 -35 -8
-56 -43z"/>
<path d="M3210 647 c-17 -9 -26 -22 -28 -45 -2 -18 1 -32 7 -32 6 0 11 -6 11
-13 0 -14 40 -37 65 -37 24 0 44 39 39 78 -7 57 -42 75 -94 49z"/>
<path d="M2241 603 c-7 -8 -15 -36 -18 -62 -4 -43 -2 -51 23 -74 21 -20 32
-24 46 -16 34 18 45 59 36 142 -1 9 -8 18 -17 18 -9 1 -25 3 -36 4 -11 1 -26
-4 -34 -12z"/>
<path d="M4165 607 c-11 -7 -21 -12 -21 -12 -1 0 -5 -14 -8 -31 -8 -35 11 -62
58 -82 38 -17 55 -1 63 55 9 65 -40 101 -92 70z"/>
</g>
</svg>
