<?xml version="1.0" standalone="no"?>
<!DOCTYPE svg PUBLIC "-//W3C//DTD SVG 20010904//EN"
 "http://www.w3.org/TR/2001/REC-SVG-20010904/DTD/svg10.dtd">
<svg version="1.0" xmlns="http://www.w3.org/2000/svg"
 width="479.000000pt" height="387.000000pt" viewBox="0 0 479.000000 387.000000"
 preserveAspectRatio="xMidYMid meet">
<metadata>
Created by potrace 1.16, written by Peter Selinger 2001-2019
</metadata>
<g transform="translate(0.000000,387.000000) scale(0.100000,-0.100000)"
fill="#000000" stroke="none">
<path d="M3811 3702 c-7 -5 -21 -7 -31 -5 -12 3 -25 -7 -41 -29 -13 -18 -28
-36 -34 -40 -5 -4 -6 -8 0 -8 5 0 4 -5 -3 -12 -7 -7 -12 -22 -12 -33 0 -23
-43 -50 -61 -40 -5 4 -9 1 -9 -4 0 -6 -5 -11 -11 -11 -13 0 -92 -60 -146 -111
-51 -48 -150 -184 -186 -254 -14 -27 -31 -72 -37 -100 -7 -27 -18 -64 -26 -82
-8 -17 -16 -44 -19 -60 -10 -56 -12 -279 -2 -303 5 -14 13 -68 17 -120 4 -56
14 -111 25 -135 10 -22 20 -58 22 -80 7 -79 25 -145 46 -177 12 -18 31 -53 41
-78 22 -53 55 -122 83 -170 11 -19 26 -53 33 -75 7 -22 23 -61 37 -87 13 -27
22 -48 19 -48 -2 0 12 -16 31 -36 26 -28 34 -45 33 -73 0 -97 11 -314 20 -376
10 -69 10 -106 -3 -135 -7 -18 -44 -154 -61 -225 -17 -76 -87 -207 -160 -298
-13 -17 -202 -70 -217 -62 -12 8 -206 -26 -284 -49 -188 -56 -254 -62 -293
-26 -10 10 -34 26 -53 35 -19 10 -49 31 -67 46 -18 16 -37 29 -42 29 -5 0 -44
17 -87 38 -154 73 -195 153 -196 378 0 67 4 134 10 150 15 41 32 129 37 199 3
33 11 94 19 135 8 41 15 86 15 99 1 20 37 133 62 196 5 11 11 32 14 46 3 14
18 52 32 85 15 32 29 64 30 69 2 6 17 44 34 85 24 56 35 106 46 200 8 69 19
144 25 168 26 116 20 289 -12 352 -4 9 -12 60 -18 114 -10 88 -41 192 -63 206
-4 3 -19 33 -33 65 -24 55 -43 77 -137 163 -45 41 -161 62 -343 64 -124 1
-170 -2 -203 -14 -23 -9 -45 -12 -48 -7 -3 5 -15 0 -26 -11 -12 -11 -37 -25
-55 -32 -18 -7 -33 -16 -33 -21 0 -5 -7 -7 -15 -3 -8 3 -15 1 -15 -5 0 -5 -19
1 -43 15 -48 26 -127 44 -127 28 0 -6 -15 -15 -33 -22 -47 -16 -84 -52 -92
-91 -4 -19 -14 -49 -21 -68 -12 -30 -12 -37 1 -58 12 -17 12 -23 3 -23 -10 0
-10 -2 0 -8 10 -7 6 -15 -14 -35 -15 -15 -30 -27 -35 -27 -4 0 -14 -6 -21 -13
-7 -6 -34 -23 -61 -36 -26 -13 -52 -30 -58 -38 -6 -7 -20 -13 -30 -13 -10 0
-21 -4 -24 -10 -3 -5 -13 -10 -21 -10 -8 0 -31 -11 -52 -23 -44 -28 -104 -43
-202 -51 -54 -4 -137 -44 -180 -86 -17 -16 -35 -30 -41 -30 -6 0 -7 -4 -4 -10
3 -5 2 -10 -4 -10 -6 0 -8 -7 -5 -15 4 -8 1 -22 -5 -29 -45 -54 -43 -219 3
-261 44 -39 97 -74 124 -79 17 -4 34 -12 37 -17 8 -12 107 -12 140 1 15 6 33
16 40 23 8 6 20 17 27 23 7 7 24 26 38 44 14 18 30 37 35 44 6 6 23 29 40 51
16 22 34 45 40 51 5 7 32 37 58 68 27 31 53 56 58 56 5 0 18 8 28 18 37 32 50
42 61 42 5 0 10 5 10 10 0 6 7 10 16 10 9 0 27 11 39 24 12 13 36 31 54 40 17
9 31 20 31 25 0 13 50 23 63 13 7 -5 33 -15 58 -21 44 -12 50 -11 92 13 29 17
49 38 57 59 6 18 17 43 23 57 6 14 11 30 12 36 0 6 6 18 13 26 6 8 9 18 5 21
-10 11 18 37 41 37 12 0 27 5 34 12 13 13 42 19 87 19 16 0 32 3 35 8 3 5 30
5 62 -1 42 -7 57 -14 61 -29 4 -16 9 -18 31 -9 14 5 28 5 31 1 3 -5 24 -19 47
-31 46 -23 118 -94 118 -116 0 -12 21 -61 51 -116 8 -16 5 -196 -4 -263 -12
-80 -30 -213 -32 -235 -1 -14 -7 -36 -13 -50 -11 -28 -34 -108 -37 -130 -1 -8
-10 -40 -19 -71 -9 -31 -19 -67 -21 -79 -2 -13 -11 -46 -20 -74 -29 -95 -33
-111 -40 -146 -4 -19 -15 -60 -25 -90 -24 -72 -34 -120 -31 -147 1 -12 -2 -30
-8 -41 -5 -10 -12 -54 -15 -98 -7 -106 -17 -176 -27 -195 -5 -9 -9 -93 -10
-185 -1 -171 16 -294 45 -319 6 -5 20 -23 30 -40 23 -37 88 -105 99 -105 5 0
27 -15 50 -34 23 -18 56 -40 72 -49 17 -8 39 -24 50 -34 31 -29 103 -75 182
-116 55 -29 91 -40 155 -47 46 -6 89 -13 97 -16 8 -2 17 -1 20 4 3 5 47 12 96
15 178 12 326 34 378 58 26 11 55 15 86 12 50 -5 53 -3 136 76 37 35 71 54 86
48 3 -1 13 5 21 13 9 8 31 26 49 40 17 14 35 27 38 30 13 11 78 96 88 115 23
44 113 325 128 399 8 43 15 106 14 140 -2 34 5 86 14 118 24 80 35 267 21 343
-9 50 -40 127 -77 192 -20 34 -39 72 -42 85 -4 13 -15 34 -25 48 -9 14 -32 53
-51 88 -18 34 -37 62 -40 62 -9 0 -79 97 -79 110 0 6 -4 18 -9 28 -13 26 -30
83 -35 122 -7 42 -10 59 -19 85 -4 11 -9 36 -12 55 -3 19 -8 47 -10 62 -3 15
-1 38 4 50 10 28 4 48 -14 48 -25 0 -27 45 -10 285 6 90 26 179 56 243 16 34
33 62 39 62 5 0 12 9 15 20 3 11 26 41 50 66 41 43 46 45 61 30 9 -10 14 -20
11 -23 -9 -9 21 -61 42 -72 17 -9 32 -7 94 15 9 4 17 9 17 13 0 4 18 7 41 8
34 1 42 -3 50 -24 5 -14 25 -40 44 -59 19 -18 35 -40 35 -47 0 -7 11 -24 24
-36 14 -13 30 -45 36 -72 7 -27 16 -49 20 -49 4 0 10 -8 13 -17 10 -33 41 -77
90 -129 26 -28 53 -58 60 -67 41 -51 228 -95 285 -66 34 18 72 58 72 75 0 8 4
14 9 14 12 0 20 50 22 128 2 72 -14 103 -70 133 -18 9 -48 31 -66 48 -18 16
-35 28 -38 25 -7 -8 -90 79 -107 112 -23 46 -163 178 -232 220 -75 46 -88 61
-81 96 7 36 -16 128 -33 135 -8 3 -14 10 -15 17 -1 36 -123 81 -158 58z m70
-89 c16 -10 29 -23 29 -29 0 -7 7 -15 16 -18 9 -3 14 -13 10 -21 -3 -8 -1 -17
5 -21 6 -3 7 -19 4 -36 -4 -16 -1 -43 6 -61 15 -38 57 -87 76 -87 7 0 13 -4
13 -10 0 -5 6 -10 14 -10 20 0 115 -72 122 -92 3 -10 11 -18 17 -19 7 0 28
-20 47 -44 19 -25 45 -56 57 -69 12 -14 24 -35 28 -46 3 -11 12 -20 19 -20 7
0 23 -11 36 -25 13 -14 29 -25 37 -25 7 0 13 -6 13 -14 0 -8 15 -19 34 -26 55
-18 69 -41 70 -116 1 -51 -3 -69 -17 -82 -34 -31 -90 -32 -174 -2 -51 18 -122
72 -123 93 0 5 -15 23 -32 40 -49 49 -65 71 -78 113 -17 51 -43 104 -51 104
-4 0 -16 18 -27 40 -11 22 -31 50 -46 61 -14 11 -26 26 -26 33 0 20 -31 43
-74 55 -34 9 -46 7 -89 -13 l-49 -24 -20 45 c-16 37 -18 56 -13 106 4 34 12
70 17 80 5 11 12 35 14 55 7 57 14 72 33 72 9 0 26 7 37 15 25 19 30 18 65 -2z
m-221 -179 c0 -25 -35 -77 -69 -102 -17 -12 -32 -22 -33 -22 -10 0 2 93 13
106 27 33 89 45 89 18z m-181 -131 c-6 -16 -11 -48 -11 -71 0 -30 -6 -51 -21
-69 -12 -13 -23 -29 -23 -34 -1 -5 -2 -14 -3 -20 -3 -26 -30 14 -36 53 -6 31
-4 44 7 52 8 6 18 21 22 34 4 12 11 22 16 22 5 0 16 14 25 30 20 38 38 40 24
3z m-1614 -102 l30 -6 -72 -74 c-51 -51 -77 -72 -89 -67 -9 3 -36 -3 -61 -14
-58 -25 -59 -25 -38 8 23 35 61 72 76 72 18 0 59 49 59 71 0 15 7 19 33 18 17
-1 45 -4 62 -8z m-221 -63 c-38 -38 -66 -75 -70 -92 -6 -30 -7 -29 -25 20 -11
27 -19 54 -19 59 0 24 101 70 161 74 9 1 -11 -26 -47 -61z m429 39 c56 -14 63
-28 22 -42 -27 -9 -44 -22 -105 -80 l-25 -24 -54 19 c-30 11 -59 17 -65 14 -6
-4 5 9 24 27 39 37 100 75 101 62 0 -4 4 2 9 15 11 25 25 27 93 9z m-700 -46
c15 -6 27 -15 27 -21 0 -5 8 -10 18 -10 65 0 112 -191 71 -286 -12 -26 -27
-44 -37 -45 -39 -3 -68 3 -77 15 -6 8 -25 17 -43 21 -30 6 -38 2 -97 -49 -35
-31 -74 -62 -87 -69 -113 -59 -271 -203 -325 -294 -14 -24 -31 -43 -39 -43 -8
0 -14 -7 -14 -16 0 -9 -5 -12 -12 -8 -7 5 -9 2 -6 -7 7 -17 -7 -38 -42 -62
-27 -19 -144 -24 -155 -7 -3 6 -14 10 -24 10 -9 0 -27 10 -39 23 -12 12 -30
31 -42 41 -31 30 -31 111 0 179 23 50 43 77 59 77 6 0 11 4 11 9 0 5 10 13 23
17 12 4 24 10 27 15 3 4 41 11 85 14 44 4 89 10 100 15 11 5 38 16 60 25 87
37 189 89 205 105 3 3 32 18 65 35 74 36 149 109 153 148 1 15 -2 27 -8 27 -8
0 -8 28 -2 103 1 9 17 26 35 38 32 20 57 20 110 0z m1979 -86 c19 -48 22 -69
17 -105 -4 -25 -8 -66 -8 -92 -1 -57 -17 -63 -26 -10 -13 74 -17 79 -63 73
-15 -2 -10 23 13 69 7 14 16 43 20 65 5 22 9 43 10 48 2 4 3 10 4 14 2 11 8
-1 33 -62z m-1103 -1 c7 -16 20 -42 28 -58 17 -36 12 -42 -24 -28 -45 18 -119
25 -140 14 -16 -9 -24 -5 -48 20 -23 24 -26 31 -14 39 19 14 63 30 71 27 4 -2
13 4 20 14 30 38 82 24 107 -28z m18 -174 c6 0 19 -7 28 -16 12 -13 18 -14 31
-4 21 18 24 11 31 -64 6 -72 3 -77 -45 -52 -15 8 -36 16 -47 18 -13 2 -30 25
-51 68 -33 69 -29 87 15 64 14 -8 31 -14 38 -14z m1003 -52 c0 -24 9 -40 38
-66 35 -32 37 -38 38 -98 l0 -63 -23 32 c-18 24 -30 31 -49 29 l-24 -3 1 100
c1 56 6 101 11 101 4 0 8 -14 8 -32z m-909 -197 c35 -33 42 -47 48 -97 10 -71
5 -99 -15 -83 -8 6 -14 18 -14 26 0 8 -13 22 -30 31 -16 9 -30 20 -30 24 0 3
-9 4 -20 1 -12 -3 -22 0 -24 8 -11 31 -16 92 -10 115 5 21 11 24 31 19 14 -3
43 -23 64 -44z m984 -131 c19 -7 24 -17 26 -59 4 -48 -2 -63 -16 -41 -4 6 -10
8 -15 5 -5 -3 -20 1 -33 10 -20 13 -24 24 -26 78 l-2 62 21 -23 c12 -13 32
-27 45 -32z m-1039 -50 c17 0 25 -7 30 -25 3 -14 10 -25 16 -25 27 0 50 -119
30 -156 -13 -23 -44 28 -36 60 6 24 -17 43 -37 30 -5 -3 -22 -3 -38 1 -27 6
-28 9 -23 43 3 20 6 47 6 60 1 14 6 20 14 17 8 -3 24 -5 38 -5z m1074 -143
c20 -3 32 -23 41 -70 5 -31 4 -37 -8 -33 -8 3 -18 6 -23 6 -5 0 -10 10 -12 23
-2 18 -8 21 -30 19 -26 -3 -28 -1 -28 33 0 34 2 37 23 31 12 -4 29 -8 37 -9z
m-1115 -53 c32 -21 54 -69 55 -119 1 -68 5 -96 18 -104 6 -4 10 -17 7 -30 -5
-27 -15 -41 -15 -22 0 14 -41 72 -83 118 -28 29 -29 35 -24 90 4 32 6 64 7 71
0 16 6 15 35 -4z m1165 -137 c19 -14 50 -58 50 -69 0 -5 -7 -8 -15 -8 -9 0
-18 -7 -21 -15 -8 -20 -34 -1 -34 25 0 9 -9 29 -20 43 -11 14 -20 28 -20 31 0
11 45 6 60 -7z m-1211 -94 c11 -16 28 -35 36 -45 30 -30 6 -248 -27 -248 -6 0
-8 9 -5 20 3 11 2 20 -3 20 -4 0 -14 15 -21 33 -7 17 -25 42 -38 55 -25 23
-25 23 -9 70 9 26 20 64 23 85 9 44 17 46 44 10z m1309 -107 c20 -27 22 -28
22 -9 0 50 35 28 60 -37 8 -19 22 -46 32 -59 10 -13 18 -28 18 -32 0 -18 -50
-8 -78 16 -17 14 -36 25 -43 25 -11 0 -79 106 -79 123 0 2 10 3 23 3 12 -1 32
-14 45 -30z m-1378 -169 c13 -28 19 -58 17 -86 -3 -36 0 -45 15 -49 20 -5 20
-5 12 -26 -5 -13 -13 -10 -44 16 -24 19 -46 29 -58 26 -15 -4 -18 -1 -16 18 7
68 17 106 29 111 8 2 11 11 8 19 -3 8 0 14 6 14 6 0 20 -19 31 -43z m1526 -63
c26 -5 64 -45 64 -68 0 -12 -56 -5 -74 9 -11 8 -28 15 -37 15 -10 0 -28 14
-40 31 l-22 31 39 -6 c21 -3 53 -8 70 -12z m-1581 -126 c49 -33 59 -55 48
-119 l-8 -54 -30 30 c-21 20 -40 29 -63 29 -31 0 -32 1 -26 31 5 28 36 104 42
105 1 0 18 -10 37 -22z m1620 -22 c11 1 27 5 36 9 12 5 19 -2 28 -26 6 -18 11
-43 11 -56 0 -22 -3 -23 -42 -17 -24 4 -47 13 -51 21 -5 8 -20 18 -33 23 -16
7 -24 17 -24 34 0 22 3 24 28 17 15 -4 36 -6 47 -5z m24 -164 c18 0 35 -3 38
-6 2 -2 2 -28 -2 -58 l-7 -54 -33 32 c-19 17 -37 43 -40 57 -4 14 -15 27 -26
30 -10 3 -19 10 -19 16 0 8 9 7 28 -2 15 -8 42 -15 61 -15z m-1674 -19 c31
-15 35 -21 35 -56 0 -21 5 -47 11 -59 14 -25 6 -33 -20 -19 -11 6 -39 12 -63
14 -47 2 -45 -3 -33 90 7 53 15 56 70 30z m1632 -135 c16 -24 34 -49 41 -56 7
-8 10 -17 7 -22 -3 -4 -5 -52 -6 -105 -1 -73 -4 -94 -12 -86 -7 7 -12 46 -12
94 0 65 -3 82 -15 82 -8 0 -20 -11 -27 -25 -12 -23 -13 -21 -13 30 0 30 -3 72
-6 93 -9 50 8 48 43 -5z m-1622 -74 c12 -13 13 -19 3 -31 -9 -11 -9 -19 -1
-32 11 -18 6 -71 -7 -71 -4 0 -21 7 -38 16 -18 8 -41 13 -51 9 -17 -5 -19 -2
-14 22 7 36 11 64 12 86 1 23 73 24 96 1z m1578 -146 c-3 -26 2 -61 12 -88 32
-88 33 -96 20 -126 -7 -16 -16 -37 -19 -46 -11 -35 -21 -17 -18 32 4 55 -14
74 -45 49 -14 -12 -15 -11 -10 6 14 47 30 112 34 139 5 33 20 76 27 76 2 0 1
-19 -1 -42z m-1606 -52 c2 -2 7 -30 10 -62 l6 -58 -27 17 c-14 10 -31 15 -36
12 -5 -3 -11 -1 -15 4 -3 6 -11 8 -18 5 -10 -3 -12 6 -9 33 6 63 9 66 48 60
20 -4 38 -8 41 -11z m-40 -168 c35 -16 73 -57 73 -80 0 -15 -9 -18 -55 -18
-52 0 -55 2 -57 25 -6 96 -8 93 39 73z m1572 -90 c-1 -18 6 -52 14 -76 16 -42
16 -43 -13 -75 -36 -40 -45 -32 -25 23 19 55 19 77 -1 88 -15 9 -15 12 2 41
10 17 20 31 21 31 2 0 3 -15 2 -32z m-1451 -111 c25 -27 25 -27 -27 -55 -28
-14 -44 -4 -74 47 l-18 30 33 9 c37 10 53 5 86 -31z m1367 -17 c-17 -34 -23
-58 -19 -75 7 -29 -18 -75 -41 -75 -8 0 -15 -4 -15 -10 0 -5 -6 -10 -14 -10
-20 0 -9 38 21 73 12 16 23 33 23 38 0 10 60 109 66 109 2 0 -7 -23 -21 -50z
m-1290 -71 c4 -6 34 -23 68 -39 l61 -28 -64 -4 c-53 -2 -68 1 -97 20 -33 23
-34 25 -17 43 19 21 39 25 49 8z m1125 -94 c0 -2 -9 -19 -19 -36 -11 -17 -17
-37 -14 -44 6 -16 -24 -26 -65 -23 -33 2 -33 14 0 58 24 31 98 66 98 45z
m-882 -29 c7 -6 22 -19 33 -28 10 -10 25 -18 32 -18 6 0 -12 -13 -41 -28 -38
-19 -55 -24 -60 -15 -4 6 -19 17 -32 23 -14 6 -38 19 -55 28 l-30 16 30 6 c17
4 34 3 39 -1 13 -11 45 12 39 28 -6 14 21 8 45 -11z m712 -7 c0 -29 -45 -89
-74 -98 -54 -17 -106 -24 -106 -13 0 11 49 62 60 62 4 0 12 11 18 24 6 14 21
26 34 29 44 8 68 7 68 -4z m-196 -37 c-10 -10 -34 -37 -53 -60 -32 -40 -37
-42 -85 -42 -42 1 -48 3 -35 13 9 7 23 27 33 45 9 17 20 32 24 32 4 1 30 7 57
15 71 20 83 19 59 -3z m-252 -74 c-47 -39 -52 -42 -106 -39 -31 1 -68 8 -82
16 -25 13 -26 13 -6 24 12 6 30 11 41 11 10 0 21 5 23 11 2 6 12 7 27 1 15 -5
43 -4 75 4 79 19 81 17 28 -28z"/>
</g>
</svg>
