<?xml version="1.0" standalone="no"?>
<!DOCTYPE svg PUBLIC "-//W3C//DTD SVG 20010904//EN"
 "http://www.w3.org/TR/2001/REC-SVG-20010904/DTD/svg10.dtd">
<svg version="1.0" xmlns="http://www.w3.org/2000/svg"
 width="489.000000pt" height="317.000000pt" viewBox="0 0 489.000000 317.000000"
 preserveAspectRatio="xMidYMid meet">
<metadata>
Created by potrace 1.16, written by Peter Selinger 2001-2019
</metadata>
<g transform="translate(0.000000,317.000000) scale(0.100000,-0.100000)"
fill="#000000" stroke="none">
<path d="M1117 2714 c-4 -4 -35 -9 -69 -11 -35 -2 -77 -11 -95 -19 -40 -18
-193 -165 -193 -185 0 -15 -40 -56 -72 -75 -57 -33 -213 -184 -258 -250 -17
-23 -37 -49 -45 -57 -20 -21 -33 -114 -21 -157 5 -19 19 -44 30 -55 12 -11 39
-45 61 -75 22 -30 49 -62 60 -70 11 -8 34 -28 52 -45 47 -45 72 -65 81 -65 5
0 26 -15 48 -33 21 -18 70 -50 107 -71 38 -21 71 -44 74 -52 3 -8 11 -14 18
-14 28 0 24 -21 -10 -57 -47 -49 -115 -147 -139 -198 -11 -22 -23 -48 -27 -57
-5 -10 -9 -27 -9 -38 0 -11 -4 -20 -8 -20 -9 0 -11 -19 -12 -128 -1 -96 27
-148 123 -234 75 -67 84 -72 162 -93 45 -12 148 -12 182 0 7 2 15 0 18 -5 19
-32 231 15 347 76 112 59 197 129 198 162 0 6 5 12 10 12 6 0 10 9 10 20 0 11
4 20 9 20 4 0 9 33 11 73 4 117 6 147 13 153 3 3 21 1 39 -5 18 -6 49 -13 68
-15 19 -3 60 -12 90 -19 109 -29 492 -75 683 -82 71 -3 133 -7 137 -10 9 -6
143 -13 344 -19 73 -3 133 -9 139 -15 8 -8 8 -11 -1 -11 -8 0 -11 -28 -8 -102
3 -86 7 -110 27 -143 94 -163 249 -235 427 -199 35 7 69 18 76 23 7 6 18 6 26
1 15 -9 63 8 166 58 105 52 189 172 201 287 3 28 10 58 15 68 5 10 6 39 2 65
-12 84 -12 83 31 97 22 6 60 22 84 34 24 12 53 24 65 27 21 4 62 22 81 37 21
16 86 57 90 57 9 0 45 35 45 43 0 4 15 28 34 53 20 26 37 63 41 87 4 23 17 67
30 97 23 59 26 81 29 198 1 62 -2 75 -18 84 -10 5 -29 34 -42 64 -13 30 -28
54 -34 54 -5 0 -10 5 -10 11 0 15 -53 79 -66 79 -5 0 -31 21 -56 48 -39 41
-56 50 -119 67 -41 10 -81 20 -89 21 -8 2 -35 6 -60 10 -67 10 -125 13 -475
18 -359 6 -415 9 -500 24 -33 6 -107 10 -165 10 -58 -1 -134 5 -170 12 -36 7
-110 14 -165 15 -92 2 -253 19 -282 30 -7 2 -52 7 -100 10 -48 4 -101 10 -118
15 -50 14 -165 29 -268 34 -53 3 -106 10 -117 16 -10 6 -23 9 -27 8 -14 -4
-217 65 -243 83 -14 9 -35 20 -47 23 -13 4 -23 11 -23 15 0 4 -6 8 -12 8 -13
0 -50 15 -153 63 -33 16 -72 33 -87 39 -14 5 -32 23 -40 38 -11 23 -20 28 -50
28 -20 0 -40 3 -44 8 -9 9 -28 9 -37 1z m52 -136 c20 -13 38 -23 41 -24 3 0
22 -8 44 -17 21 -9 44 -17 50 -17 7 0 17 -5 22 -10 6 -6 42 -22 80 -36 38 -13
71 -29 72 -34 2 -6 8 -10 14 -10 5 0 22 -8 36 -19 15 -10 61 -28 102 -40 41
-12 113 -35 160 -51 66 -22 110 -29 200 -33 63 -3 147 -12 185 -20 105 -22
191 -35 275 -42 132 -11 174 -15 240 -26 36 -5 112 -12 170 -14 58 -2 119 -7
135 -10 17 -4 79 -6 138 -6 59 0 145 -7 190 -15 86 -15 283 -24 525 -23 183 1
388 -18 474 -42 56 -16 77 -30 136 -84 68 -63 122 -146 143 -219 9 -29 -7
-172 -21 -191 -9 -12 -24 -67 -21 -78 2 -12 -41 -87 -50 -87 -4 0 -11 -9 -14
-20 -6 -19 -79 -71 -135 -97 -118 -54 -210 -85 -246 -85 -13 0 -24 -4 -24 -7
0 -8 -60 -31 -93 -35 -12 -2 -29 -6 -37 -9 -8 -3 -35 -8 -60 -10 -25 -3 -76
-12 -115 -21 -38 -8 -124 -19 -190 -24 -158 -13 -618 -6 -825 11 -41 4 -106 9
-145 12 -38 2 -90 7 -115 10 -105 13 -209 25 -269 30 -36 3 -67 8 -70 10 -3 1
-30 6 -59 9 -30 3 -59 9 -65 13 -7 4 -20 6 -29 5 -10 -2 -18 1 -18 6 0 6 -10
10 -22 9 -35 -1 -252 46 -259 55 -3 5 -10 8 -15 7 -17 -5 -89 12 -199 48 -60
20 -119 37 -130 39 -30 4 -119 41 -217 90 -49 24 -97 44 -108 44 -11 0 -20 3
-20 8 0 4 -13 13 -29 20 -26 12 -55 32 -126 88 -11 9 -30 20 -42 24 -22 9 -84
54 -168 124 -65 53 -67 56 -84 89 -8 15 -18 27 -22 27 -16 0 -79 94 -79 117 0
31 35 99 55 106 8 4 15 12 15 19 0 18 122 132 241 225 20 15 47 43 60 61 110
154 224 208 318 150z m-78 -1197 c14 -10 48 -26 76 -34 29 -9 72 -27 96 -41
24 -14 53 -26 65 -26 12 0 44 -5 72 -11 38 -8 50 -15 50 -29 0 -10 9 -25 21
-33 19 -14 20 -23 16 -98 -4 -95 -12 -135 -30 -154 -7 -7 -27 -31 -46 -54 -21
-24 -55 -49 -85 -61 -28 -12 -68 -30 -88 -41 -21 -11 -68 -26 -105 -33 -96
-18 -149 -4 -250 69 -23 17 -42 34 -43 39 0 5 -6 17 -13 25 -42 50 -43 181 -2
264 65 132 120 199 185 222 49 18 54 17 81 -4z m2812 -379 c31 -65 37 -141 12
-162 -8 -7 -15 -18 -15 -25 0 -18 -64 -93 -113 -132 -42 -34 -229 -41 -266
-10 -9 7 -28 18 -43 25 -15 6 -35 24 -45 39 -10 15 -28 39 -40 53 -14 15 -24
39 -24 60 -1 19 -2 49 -3 65 -1 17 2 45 8 63 7 25 15 32 35 32 137 2 415 31
430 46 16 16 39 -4 64 -54z"/>
<path d="M1062 1249 c-42 -16 -70 -60 -82 -131 -11 -66 -11 -68 14 -95 14 -15
26 -30 26 -34 0 -3 18 -16 41 -28 31 -18 49 -21 77 -16 59 10 72 15 72 31 0 8
6 14 13 14 19 0 68 85 69 120 1 38 -9 49 -55 60 -33 7 -37 5 -51 -23 -10 -23
-12 -35 -4 -44 6 -7 6 -13 2 -13 -5 0 -14 -10 -19 -22 -20 -46 -72 -24 -79 33
-4 39 11 79 31 79 14 0 18 28 5 45 -18 24 -38 32 -60 24z"/>
<path d="M3564 972 c-14 -11 -34 -75 -34 -110 0 -22 10 -41 35 -66 30 -30 40
-34 76 -31 35 2 49 11 91 55 38 40 48 58 46 78 -2 15 -7 30 -13 34 -15 11 -75
10 -75 -2 0 -13 -41 -60 -52 -60 -4 0 -8 17 -8 39 0 21 -6 43 -12 48 -20 15
-44 22 -54 15z"/>
</g>
</svg>
