<?xml version="1.0" standalone="no"?>
<!DOCTYPE svg PUBLIC "-//W3C//DTD SVG 20010904//EN"
 "http://www.w3.org/TR/2001/REC-SVG-20010904/DTD/svg10.dtd">
<svg version="1.0" xmlns="http://www.w3.org/2000/svg"
 width="531.000000pt" height="469.000000pt" viewBox="0 0 531.000000 469.000000"
 preserveAspectRatio="xMidYMid meet">
<metadata>
Created by potrace 1.16, written by Peter Selinger 2001-2019
</metadata>
<g transform="translate(0.000000,469.000000) scale(0.100000,-0.100000)"
fill="#000000" stroke="none">
<path d="M1204 4212 c-13 -12 -13 -57 0 -69 2 -2 263 -4 582 -5 318 -1 608 -4
644 -6 l65 -4 1 -63 c0 -49 5 -67 22 -85 23 -25 28 -40 13 -40 -11 0 -20 -23
-27 -69 -3 -20 -21 -76 -39 -126 -18 -49 -45 -124 -59 -165 -29 -84 -33 -91
-70 -172 -14 -31 -26 -61 -26 -66 0 -6 -13 -39 -28 -74 -16 -34 -39 -92 -51
-128 -13 -36 -30 -79 -37 -97 -8 -17 -14 -38 -14 -47 0 -9 -4 -24 -10 -34 -16
-28 -47 -104 -65 -157 -9 -27 -20 -54 -25 -60 -4 -5 -13 -26 -18 -45 -15 -51
-32 -98 -58 -160 -13 -30 -26 -74 -30 -98 -4 -23 -10 -42 -13 -42 -4 0 -15
-24 -25 -52 -19 -56 -23 -67 -54 -138 -10 -25 -27 -72 -37 -105 -9 -33 -26
-79 -36 -102 -10 -23 -19 -46 -19 -52 0 -5 -26 -9 -57 -8 -63 1 -73 -5 -157
-88 -42 -42 -100 -108 -97 -112 0 -2 0 -6 0 -10 -1 -5 -1 -16 0 -25 2 -12 -16
-25 -56 -43 -189 -85 -289 -169 -398 -335 -16 -25 -32 -47 -36 -50 -4 -3 -10
-20 -14 -39 -4 -18 -16 -42 -26 -52 -29 -29 -38 -98 -34 -249 4 -151 15 -222
44 -283 11 -23 27 -58 35 -77 72 -157 227 -313 373 -374 79 -33 150 -54 213
-63 94 -12 350 0 350 17 0 4 12 11 28 15 89 22 272 142 320 210 12 17 40 57
63 90 37 52 70 124 108 230 32 92 40 255 17 365 -2 14 -10 51 -16 82 -11 60
-68 185 -98 217 -9 10 -39 47 -67 83 -27 36 -73 83 -102 104 -29 22 -52 42
-53 47 0 4 -10 7 -23 7 -19 0 -26 10 -42 58 -28 82 -76 173 -113 211 -14 15
-9 53 14 106 34 81 42 102 48 125 4 14 13 41 21 60 8 19 33 87 56 150 23 63
45 120 50 125 4 6 19 48 34 95 26 81 53 154 97 265 10 28 21 58 23 69 2 10 11
29 20 42 8 13 15 28 15 34 0 6 9 30 20 52 11 23 20 48 20 55 0 8 14 46 31 86
17 40 42 103 56 141 14 38 40 102 59 142 19 41 34 80 34 87 0 7 4 17 9 23 4 5
23 56 41 114 18 58 36 107 39 110 4 3 15 30 25 61 l17 56 50 0 c37 0 49 -3 49
-15 0 -8 11 -45 25 -83 13 -37 26 -78 28 -91 1 -13 8 -32 14 -44 7 -11 14 -32
17 -45 19 -96 161 -604 176 -631 6 -10 10 -27 10 -39 0 -11 6 -33 14 -47 8
-15 22 -61 31 -102 10 -41 29 -109 42 -150 13 -41 26 -86 28 -100 5 -29 11
-52 55 -205 17 -60 38 -137 46 -170 8 -33 21 -77 29 -98 9 -21 13 -42 10 -46
-2 -5 5 -31 17 -59 19 -44 20 -53 8 -68 -43 -50 -62 -188 -37 -259 11 -31 20
-41 39 -43 20 -2 28 3 38 27 12 29 13 30 36 14 32 -20 30 -28 -8 -44 -18 -7
-60 -39 -92 -71 -33 -32 -63 -58 -68 -58 -4 0 -8 -5 -8 -11 0 -6 -11 -20 -25
-31 -14 -11 -46 -56 -73 -101 -85 -147 -113 -258 -108 -427 8 -246 102 -450
275 -593 12 -9 25 -17 30 -17 5 0 11 -4 13 -8 4 -11 123 -82 136 -82 6 0 12
-3 14 -8 6 -13 132 -51 193 -57 141 -15 338 3 379 33 6 5 31 14 56 22 25 7 52
20 60 29 8 9 31 24 50 34 43 21 122 83 134 106 5 8 30 41 55 71 63 78 138 240
157 340 16 81 15 256 0 325 -3 17 -9 44 -13 60 -18 89 -144 298 -212 350 -22
16 -64 49 -95 73 -30 23 -60 42 -66 42 -6 0 -21 6 -33 14 -61 39 -187 67 -326
72 -109 3 -126 10 -116 49 4 19 -31 99 -69 157 -26 39 -73 65 -133 73 l-51 7
-17 66 c-9 37 -30 114 -47 172 -16 58 -32 112 -33 120 -2 8 -4 15 -6 15 -1 0
-3 9 -5 20 -2 11 -15 63 -30 115 -14 52 -29 111 -34 130 -8 35 -70 244 -91
309 -23 69 -71 247 -79 293 -5 27 -12 53 -16 59 -4 6 -10 25 -15 43 -4 17 -24
90 -43 161 -20 72 -52 190 -71 263 -19 73 -39 141 -45 152 -6 11 -8 25 -5 30
3 5 2 18 -4 28 -8 14 -4 22 17 36 33 22 92 100 92 120 0 8 4 17 9 20 8 5 398
7 901 6 203 -1 226 0 237 16 7 10 13 29 13 43 l0 26 -1188 2 c-653 1 -1321 4
-1485 6 -256 4 -301 2 -313 -11z m1734 -87 c17 -6 -12 -63 -36 -72 -9 -4 -25
-17 -34 -29 -36 -44 -149 -69 -187 -40 -8 6 -17 10 -20 9 -12 -4 -72 30 -80
46 -5 9 -9 33 -9 53 l0 37 72 3 c87 4 276 -1 294 -7z m638 -2287 l26 -26 -48
24 c-32 16 -50 21 -54 13 -5 -7 -10 -5 -14 6 -3 9 -4 21 -1 25 8 13 63 -12 91
-42z m-1910 -25 c-19 -34 -39 -86 -34 -93 3 -5 -75 -20 -80 -15 -4 3 36 66 61
98 8 9 19 17 24 17 6 0 16 7 23 15 20 24 24 10 6 -22z m1744 -8 c0 -1 -7 -16
-15 -31 -8 -16 -15 -51 -15 -78 0 -38 -3 -47 -12 -38 -14 14 -13 114 2 142 6
11 16 17 25 14 8 -4 15 -7 15 -9z m-1655 -26 c13 -21 50 -27 82 -14 l32 13 14
-43 15 -42 -37 8 c-20 5 -62 9 -93 9 -63 0 -68 7 -46 55 12 27 23 32 33 14z
m1755 -19 c0 -5 6 -10 14 -10 7 0 21 -15 30 -34 13 -27 20 -33 37 -29 15 4 20
2 17 -7 -4 -12 -22 -19 -55 -22 -7 -1 -13 -5 -13 -9 0 -4 -14 -12 -31 -18 -26
-9 -30 -8 -26 4 3 7 -3 25 -14 39 -20 26 -19 55 3 84 12 14 38 16 38 2z m546
-236 c18 -14 18 -14 -6 -3 -31 14 -36 19 -24 19 6 0 19 -7 30 -16z m-2369 -54
c26 -5 64 -11 83 -13 56 -7 192 -56 227 -83 17 -13 36 -24 40 -24 8 0 77 -70
115 -118 9 -11 34 -55 54 -98 35 -70 38 -86 44 -188 3 -61 2 -130 -2 -154 -9
-53 -78 -191 -121 -244 -30 -37 -156 -128 -177 -128 -6 0 -10 -4 -10 -9 0 -11
-118 -52 -168 -57 -66 -8 -166 -5 -222 7 -114 23 -267 113 -291 171 -6 15 -15
28 -19 28 -7 0 -44 52 -79 110 -29 49 -51 143 -51 218 0 80 18 190 35 225 8
17 15 36 15 42 0 7 7 15 15 19 8 3 15 11 15 18 0 7 10 25 23 40 12 15 35 43
50 62 30 39 197 159 197 142 0 -2 35 7 78 20 91 27 88 27 149 14z m2493 -15
c14 -8 21 -14 15 -14 -5 0 -21 6 -35 14 -14 8 -20 14 -15 14 6 0 21 -6 35 -14z
m-238 -9 c24 -8 55 -17 70 -20 15 -3 34 -13 42 -22 9 -8 26 -14 38 -12 22 3
49 -18 138 -102 69 -66 139 -192 138 -247 0 -15 4 -46 11 -69 6 -22 9 -58 6
-80 -2 -21 -8 -66 -11 -98 -8 -64 -55 -168 -101 -220 -80 -92 -101 -114 -139
-143 -52 -40 -172 -81 -258 -89 -35 -3 -70 -7 -78 -7 -65 -7 -278 61 -308 99
-7 8 -30 24 -51 36 -22 12 -39 25 -39 29 0 4 -12 21 -27 37 -42 43 -63 74 -69
100 -4 12 -10 22 -15 22 -5 0 -8 3 -7 8 1 4 -4 20 -11 37 -22 52 -39 206 -31
270 24 186 188 384 370 448 41 14 86 28 100 30 60 10 192 6 232 -7z"/>
</g>
</svg>
