<?xml version="1.0" standalone="no"?>
<!DOCTYPE svg PUBLIC "-//W3C//DTD SVG 20010904//EN"
 "http://www.w3.org/TR/2001/REC-SVG-20010904/DTD/svg10.dtd">
<svg version="1.0" xmlns="http://www.w3.org/2000/svg"
 width="495.000000pt" height="435.000000pt" viewBox="0 0 495.000000 435.000000"
 preserveAspectRatio="xMidYMid meet">
<metadata>
Created by potrace 1.16, written by Peter Selinger 2001-2019
</metadata>
<g transform="translate(0.000000,435.000000) scale(0.100000,-0.100000)"
fill="#000000" stroke="none">
<path d="M1295 4292 c-11 -2 -26 -9 -33 -15 -7 -5 -15 -7 -18 -4 -8 8 -72 -27
-108 -58 -16 -14 -33 -25 -38 -25 -5 0 -14 -11 -20 -25 -6 -14 -16 -24 -22
-22 -12 4 -96 -76 -96 -91 0 -5 -6 -12 -14 -15 -22 -9 -76 -130 -92 -210 -14
-66 -14 -165 0 -302 8 -81 108 -322 138 -333 4 -2 6 -8 2 -13 -3 -5 0 -9 5 -9
6 0 11 -6 11 -12 1 -22 169 -189 225 -223 17 -10 35 -23 40 -29 6 -6 37 -24
70 -40 33 -16 74 -38 90 -50 28 -19 42 -21 185 -20 119 1 167 6 205 19 28 10
76 19 109 21 58 4 58 4 105 -43 26 -27 76 -84 112 -128 35 -44 67 -81 72 -83
4 -2 7 -10 7 -17 0 -7 14 -27 30 -45 17 -18 30 -34 30 -36 0 -3 4 -10 10 -17
91 -115 138 -175 146 -189 5 -9 30 -38 55 -65 25 -26 65 -79 89 -118 24 -38
55 -82 69 -97 13 -16 21 -28 16 -28 -5 0 1 -7 13 -16 12 -8 22 -20 22 -25 0
-6 25 -41 55 -78 30 -38 55 -72 55 -77 0 -5 11 -18 25 -28 14 -10 25 -25 25
-32 0 -7 14 -28 31 -46 17 -18 47 -58 66 -88 20 -30 51 -71 68 -90 17 -19 41
-52 53 -73 l22 -38 -26 -52 c-15 -29 -31 -60 -35 -69 -9 -18 7 -58 23 -58 5 0
8 -5 8 -12 0 -24 33 -98 44 -98 6 0 25 -23 41 -51 17 -28 63 -85 103 -127 39
-41 72 -77 72 -79 0 -2 4 -9 10 -16 47 -59 96 -117 116 -139 13 -14 24 -29 24
-33 0 -3 17 -24 37 -46 21 -22 55 -66 76 -97 21 -31 41 -59 45 -62 4 -3 14
-18 22 -33 42 -80 207 -96 303 -30 21 15 41 34 44 43 2 8 10 26 17 40 21 39
27 91 15 107 -7 7 -13 31 -15 53 -2 34 -50 131 -73 150 -14 12 -71 90 -71 98
0 5 -9 17 -19 27 -11 9 -37 44 -58 76 -20 32 -40 59 -44 59 -4 0 -26 25 -49
56 -24 31 -50 65 -59 74 -9 10 -27 34 -41 54 -14 20 -35 47 -47 61 -11 13 -47
59 -79 102 -73 97 -89 114 -138 143 -35 21 -39 22 -48 7 -5 -10 -17 -17 -26
-17 -9 0 -29 -7 -44 -14 -18 -9 -28 -11 -28 -4 0 6 -7 5 -16 -3 -15 -12 -19
-10 -33 11 -9 13 -24 31 -34 40 -10 8 -39 46 -65 83 -25 38 -57 77 -70 88 -22
17 -82 102 -82 115 0 3 -15 20 -32 39 -43 42 -66 73 -84 110 -8 17 -29 46 -47
66 -18 19 -49 60 -69 90 -20 31 -56 77 -80 105 -57 65 -98 120 -98 133 0 6 -9
15 -20 21 -11 6 -20 17 -20 24 0 8 -18 33 -39 57 -76 86 -101 117 -101 127 0
9 -73 109 -90 122 -3 3 -17 21 -30 40 -13 19 -34 47 -48 61 -18 21 -22 31 -14
45 5 11 13 37 17 59 3 22 13 54 20 70 7 17 15 44 18 60 3 17 8 41 11 55 13 48
8 155 -7 195 -9 22 -23 69 -32 105 -15 64 -44 140 -70 190 -8 14 -30 59 -51
100 -49 100 -174 279 -260 372 -18 21 -55 52 -81 70 -27 18 -64 45 -84 61 -20
15 -43 27 -52 27 -10 0 -17 5 -17 10 0 6 -5 10 -12 10 -6 0 -20 7 -30 16 -10
10 -35 19 -55 20 -82 8 -139 10 -158 6z m115 -123 c0 -4 -7 -6 -15 -3 -8 4
-15 10 -15 15 0 4 7 6 15 3 8 -4 15 -10 15 -15z m-110 -5 c0 -9 10 -24 23 -35
12 -10 17 -18 11 -19 -6 0 -24 -11 -40 -25 -16 -14 -33 -25 -39 -25 -5 0 -22
16 -37 34 l-28 35 43 25 c49 30 67 32 67 10z m248 -43 c38 -16 40 -30 6 -55
-23 -16 -29 -17 -51 -5 -13 7 -29 22 -35 32 -8 15 -5 20 11 24 12 3 21 10 21
15 0 5 3 8 8 6 4 -3 22 -10 40 -17z m-408 -50 c0 -5 11 -19 25 -32 27 -26 31
-39 13 -39 -6 0 -22 -10 -35 -22 l-24 -22 -29 34 -29 34 27 26 c27 28 52 38
52 21z m296 -45 l38 -35 -24 -19 c-14 -11 -38 -31 -55 -46 -34 -29 -46 -23
-80 39 l-19 37 24 19 c24 19 58 37 72 38 4 1 24 -15 44 -33z m229 16 c6 -4 20
-19 33 -34 l23 -26 -43 -47 -44 -47 -36 47 -36 46 21 23 c21 21 56 45 67 46 3
0 10 -4 15 -8z m-659 -108 c-5 -14 -4 -15 8 -5 11 9 20 10 35 1 27 -14 26 -19
-8 -53 -46 -45 -82 -14 -53 46 15 29 28 38 18 11z m247 3 c52 -56 68 -107 35
-107 -7 0 -25 -6 -40 -14 -26 -14 -28 -13 -53 29 -30 53 -30 53 -3 82 24 26
44 29 61 10z m280 -17 c9 -11 17 -24 17 -30 0 -5 10 -16 22 -24 l21 -15 -39
-41 c-60 -64 -71 -65 -115 -11 l-37 46 51 47 c29 26 54 48 57 48 3 0 13 -9 23
-20z m277 -32 c10 -18 23 -38 28 -44 10 -11 -57 -84 -76 -84 -5 0 -26 20 -46
44 l-36 45 33 25 c19 14 39 26 45 26 7 0 12 5 12 10 0 21 21 9 40 -22z m-656
-84 c25 -40 27 -48 16 -69 -22 -42 -58 -42 -79 -2 -6 12 -16 29 -23 38 -9 14
-7 22 13 47 13 17 29 31 34 31 6 1 23 -20 39 -45z m254 -66 c11 -14 9 -21 -14
-47 -15 -17 -32 -31 -39 -31 -6 0 -30 20 -53 43 -45 46 -44 56 5 71 11 4 27
13 33 21 12 15 16 12 68 -57z m264 20 l38 -43 -57 -53 -57 -54 -43 48 -43 47
22 15 c13 9 38 31 57 49 18 18 35 33 39 33 3 0 22 -19 44 -42z m275 -86 c4
-16 -2 -29 -21 -47 -15 -14 -31 -25 -36 -25 -13 0 -50 41 -50 56 0 6 -7 17
-15 24 -13 11 -10 17 22 48 l37 35 28 -34 c16 -19 31 -44 35 -57z m-907 22 c0
-7 6 -15 13 -18 8 -3 2 -14 -18 -30 -36 -31 -42 -32 -50 -6 -3 11 -15 20 -26
20 -24 0 -24 15 0 39 35 35 55 42 69 24 6 -9 12 -22 12 -29z m220 -34 c16 -16
30 -31 30 -34 0 -9 -47 -56 -56 -55 -5 0 -22 16 -37 35 l-29 34 29 24 c15 14
29 26 30 26 1 0 16 -13 33 -30z m218 -9 c12 -11 22 -23 22 -29 0 -5 9 -17 20
-27 18 -16 18 -18 2 -41 -9 -13 -23 -24 -29 -24 -7 0 -13 -7 -13 -15 0 -8 -3
-15 -7 -15 -16 1 -53 39 -53 54 0 9 -4 16 -9 16 -24 0 -20 39 6 68 34 36 33
36 61 13z m301 -13 c5 -13 20 -39 33 -58 l24 -36 -28 -24 c-15 -13 -28 -29
-28 -35 0 -7 -11 -17 -25 -23 -24 -11 -29 -8 -70 35 -42 44 -56 73 -37 73 5 0
31 20 58 45 27 25 52 45 57 45 4 0 11 -10 16 -22z m-635 -61 c42 -39 45 -59
11 -77 -14 -7 -25 -17 -25 -22 0 -4 -6 -8 -14 -8 -14 0 -66 78 -66 99 0 8 37
34 56 41 1 0 18 -15 38 -33z m226 -49 c14 -22 31 -47 39 -55 11 -12 10 -18 -9
-39 -13 -13 -29 -24 -37 -24 -16 0 -93 76 -93 92 0 15 50 68 64 68 6 0 22 -19
36 -42z m640 11 c10 -24 10 -35 0 -55 -14 -25 -30 -32 -30 -12 0 6 -10 22 -22
36 l-23 23 25 19 c33 26 35 25 50 -11z m-994 -41 c11 -13 25 -35 31 -49 10
-23 8 -29 -17 -52 l-28 -27 -22 66 c-19 55 -20 68 -9 75 20 12 23 11 45 -13z
m654 -99 c0 -11 -26 -29 -33 -22 -4 3 -7 -1 -7 -9 0 -33 -26 -23 -73 25 l-48
50 23 26 c48 53 48 53 95 -7 24 -31 43 -59 43 -63z m240 58 c0 -6 8 -19 17
-30 17 -18 17 -19 0 -32 -9 -6 -17 -15 -17 -18 0 -2 -14 -19 -30 -37 -33 -35
-54 -35 -70 2 -6 13 -15 31 -22 40 -7 9 -10 18 -8 20 3 2 27 23 53 46 39 35
51 41 63 32 8 -7 14 -17 14 -23z m-669 -22 c7 -19 16 -35 19 -35 3 0 15 -6 26
-14 18 -14 18 -16 -15 -45 -19 -17 -35 -31 -36 -31 -2 0 -23 21 -48 46 l-46
46 37 34 c20 19 40 34 44 34 4 0 12 -16 19 -35z m834 -57 c4 -16 5 -28 1 -28
-12 0 -37 50 -31 60 9 15 22 2 30 -32z m-579 -15 c16 -21 38 -46 49 -55 11
-10 15 -17 8 -18 -6 0 -25 -14 -41 -30 l-30 -30 -24 30 c-13 17 -33 43 -45 59
l-23 29 33 25 c17 14 35 26 38 27 4 0 19 -17 35 -37z m-348 -49 c25 -24 33
-38 24 -41 -7 -3 -26 -19 -42 -36 l-30 -32 -30 35 c-36 42 -35 68 5 91 17 10
31 18 33 18 2 1 20 -15 40 -35z m592 21 c0 -8 4 -15 8 -15 4 0 16 -13 25 -30
21 -35 13 -58 -27 -79 -24 -13 -28 -12 -66 29 l-40 42 43 34 c47 38 57 41 57
19z m263 -10 c1 -5 14 -23 30 -39 15 -17 27 -37 27 -46 0 -15 -59 -78 -68 -72
-3 2 -8 -2 -13 -9 -10 -18 -33 2 -65 57 -26 44 -25 64 2 64 8 0 14 5 14 10 0
31 67 64 73 35z m-653 -24 c0 -5 6 -16 13 -23 35 -37 67 -81 67 -93 0 -7 -11
-20 -25 -29 -24 -16 -27 -16 -42 -1 -9 9 -27 23 -40 32 -13 9 -31 29 -38 44
-14 27 -14 29 15 46 17 9 30 21 30 25 0 4 5 8 10 8 6 0 10 -4 10 -9z m285
-111 l40 -41 -32 -29 c-18 -17 -34 -30 -37 -30 -9 0 -42 35 -60 63 -15 22 -15
26 5 50 11 15 26 27 33 27 6 0 30 -18 51 -40z m-355 -47 c16 -18 34 -33 40
-33 18 0 11 -18 -16 -39 -15 -12 -35 -21 -45 -21 -21 0 -89 59 -89 77 0 7 -4
13 -10 13 -5 0 -10 5 -10 11 0 5 5 7 10 4 6 -3 10 -2 10 3 0 5 10 22 22 37
l22 28 18 -24 c11 -13 32 -39 48 -56z m599 5 c32 -49 33 -52 15 -65 -11 -7
-27 -20 -37 -28 -9 -8 -19 -15 -21 -15 -8 0 -56 89 -56 104 0 8 9 21 20 29 11
8 17 17 13 20 -3 4 2 7 13 7 12 0 32 -20 53 -52z m225 -15 c-4 -16 -9 -47 -11
-70 -4 -33 -9 -42 -26 -45 -28 -4 -63 57 -46 79 6 7 16 13 22 13 5 0 20 11 33
25 30 32 36 32 28 -2z m-600 -38 c6 -10 17 -25 23 -33 15 -16 2 -46 -26 -61
-15 -9 -24 -3 -50 35 l-33 44 24 20 c28 23 47 22 62 -5z m229 -17 c7 -7 21
-30 31 -50 23 -42 15 -59 -33 -76 -27 -10 -30 -7 -59 36 l-30 46 36 28 c43 32
40 31 55 16z m212 -48 c-10 -16 37 -51 63 -46 16 2 22 -2 22 -16 0 -11 -5 -18
-12 -15 -7 2 -24 0 -36 -5 -13 -4 -29 -5 -35 -1 -7 4 -22 6 -33 5 -13 -2 -24
4 -28 13 -7 20 0 35 17 35 7 0 18 9 25 20 7 11 15 20 18 20 3 0 2 -5 -1 -10z
m-537 -45 l21 -44 -27 12 c-15 6 -33 17 -39 23 -7 7 -18 14 -25 17 -9 3 -7 9
7 21 30 24 39 20 63 -29z m207 -45 c20 -39 20 -40 -14 -40 -28 0 -90 39 -63
40 7 0 20 7 28 15 22 22 32 19 49 -15z m1677 -1612 c-29 -73 -31 -85 -33 -156
-2 -65 -13 -88 -24 -52 -3 11 -12 26 -19 32 -6 7 -20 30 -30 51 -21 46 -15 79
22 119 26 29 93 70 101 62 2 -2 -6 -27 -17 -56z m137 -23 c37 -48 42 -62 42
-108 0 -28 -3 -63 -6 -77 -9 -41 -23 -114 -24 -132 0 -10 -2 -24 -3 -30 -1 -7
2 -30 6 -50 4 -24 3 -38 -4 -38 -5 0 -10 4 -10 8 0 4 -22 32 -50 62 -31 34
-50 64 -51 80 0 14 -2 34 -4 44 -16 84 -2 196 32 254 14 23 26 42 28 42 1 0
21 -25 44 -55z m121 -152 c0 -5 13 -21 28 -38 65 -70 84 -103 73 -124 -6 -11
-13 -33 -15 -48 -7 -53 -18 -103 -25 -107 -3 -2 -5 -43 -5 -91 l1 -87 -23 29
c-13 15 -33 39 -44 51 -11 13 -20 31 -21 40 0 10 -3 46 -7 82 -14 147 1 300
29 300 5 0 9 -3 9 -7z m213 -281 c26 -38 47 -73 47 -79 0 -5 -6 -23 -14 -39
-8 -16 -17 -56 -21 -88 -7 -57 -44 -136 -64 -136 -13 0 -24 30 -26 75 -13 199
-13 212 3 277 10 36 19 65 22 63 3 -2 27 -34 53 -73z m116 -160 c7 -14 5 -21
-11 -31 -25 -15 -28 -13 -21 22 6 31 18 35 32 9z m65 -166 c-20 -73 -36 -89
-101 -100 -62 -10 -51 27 32 107 45 44 50 47 62 31 7 -10 11 -27 7 -38z"/>
<path d="M3930 3294 c-8 -3 -22 -8 -30 -11 -8 -3 -29 -5 -47 -4 -43 3 -120
-46 -194 -124 -16 -16 -29 -36 -29 -43 0 -7 -11 -25 -25 -40 -14 -15 -25 -31
-25 -37 0 -5 -6 -22 -14 -36 -39 -75 -43 -195 -10 -275 8 -19 12 -39 9 -44 -3
-4 -2 -10 3 -12 4 -1 23 -28 41 -58 19 -30 42 -62 53 -70 11 -8 32 -24 46 -36
15 -12 50 -34 77 -50 42 -24 60 -28 118 -27 48 1 80 8 110 23 69 36 173 108
212 147 42 42 106 138 98 147 -3 3 -1 11 4 18 27 34 33 172 9 211 -7 12 -20
44 -27 72 -10 35 -27 62 -59 93 -64 63 -75 72 -86 72 -10 0 -95 58 -104 72 -7
10 -110 19 -130 12z m100 -131 c28 -15 50 -31 50 -35 0 -4 9 -8 19 -8 11 0 21
-4 23 -8 2 -4 20 -21 41 -36 20 -16 37 -36 37 -45 0 -9 9 -35 21 -56 17 -34
20 -51 15 -109 -4 -39 -12 -77 -19 -85 -7 -9 -18 -27 -25 -41 -13 -25 -15 -25
-124 -25 l-112 0 -23 35 c-23 34 -24 66 -3 110 4 8 17 47 29 85 19 61 21 76
11 120 -6 28 -18 60 -26 72 -18 28 -18 33 1 33 8 0 15 5 15 10 0 16 17 12 70
-17z m-161 -45 c37 -40 49 -100 30 -155 -7 -21 -14 -43 -15 -50 -1 -7 -10 -35
-19 -62 -9 -27 -14 -63 -12 -78 7 -43 18 -73 28 -73 5 0 15 -13 24 -30 13 -26
30 -36 78 -46 4 -1 23 -2 43 -3 19 0 33 -5 30 -10 -11 -16 -131 -68 -164 -70
-70 -4 -190 97 -227 191 -31 80 -31 171 0 229 13 24 29 54 34 66 16 34 105
123 124 123 9 0 30 -15 46 -32z"/>
<path d="M643 2696 c-28 -6 -55 -14 -59 -18 -4 -5 -16 -8 -26 -8 -10 0 -18 -6
-18 -13 0 -7 -14 -26 -31 -43 -17 -16 -39 -45 -49 -64 -10 -19 -27 -53 -39
-75 -17 -31 -21 -49 -16 -80 3 -22 6 -53 6 -70 -3 -306 -1 -353 29 -500 14
-69 72 -249 82 -253 4 -2 8 -8 8 -13 0 -18 74 -175 115 -244 13 -21 22 -42 20
-46 -3 -3 5 -15 16 -25 12 -11 33 -39 47 -64 15 -25 50 -80 79 -123 29 -42 53
-80 53 -84 0 -19 105 -175 146 -218 27 -27 66 -70 86 -95 51 -63 154 -166 218
-220 29 -25 58 -50 64 -56 6 -6 30 -22 52 -37 22 -14 47 -32 55 -40 8 -8 30
-22 47 -31 18 -9 41 -23 50 -31 95 -78 218 -146 270 -147 18 -1 32 -4 32 -7 0
-3 12 -7 28 -8 15 0 56 -3 92 -6 222 -16 402 103 436 290 4 21 13 50 20 64 14
27 13 265 -1 379 -13 108 -53 279 -74 318 -6 11 -15 37 -20 58 -5 22 -19 64
-31 94 -12 30 -22 60 -24 65 -1 6 -14 35 -27 65 -14 30 -32 71 -39 90 -8 19
-17 37 -20 40 -10 7 -105 169 -126 213 -10 20 -21 37 -26 37 -4 0 -8 7 -8 15
0 8 -4 15 -10 15 -5 0 -16 12 -24 28 -8 15 -26 41 -41 57 -14 17 -42 55 -62
85 -65 101 -273 320 -358 376 -27 19 -77 53 -110 76 -121 85 -205 127 -335
168 -58 18 -112 36 -120 39 -8 4 -49 16 -90 26 -41 9 -84 21 -95 26 -26 10
-107 8 -172 -5z m216 -121 c18 -2 38 -8 45 -13 11 -8 55 -22 196 -63 71 -20
205 -82 212 -97 2 -4 28 -20 58 -36 93 -50 178 -116 287 -225 90 -90 193 -215
193 -235 0 -3 19 -31 43 -60 52 -67 130 -190 147 -233 7 -18 16 -33 20 -33 4
0 10 -8 14 -17 5 -17 12 -29 49 -85 9 -14 17 -33 17 -41 0 -8 6 -20 14 -26 8
-7 18 -27 22 -44 4 -18 17 -54 30 -82 28 -61 50 -122 71 -195 8 -30 18 -59 23
-65 4 -5 7 -17 8 -25 0 -8 5 -40 12 -70 31 -146 41 -445 16 -505 -8 -19 -15
-36 -14 -38 0 -1 -3 -13 -7 -27 -15 -48 -76 -119 -102 -120 -7 0 -13 -4 -13
-9 0 -24 -203 -53 -234 -33 -6 4 -24 7 -41 8 -68 4 -121 19 -161 46 -23 15
-47 28 -53 28 -6 0 -11 4 -11 9 0 5 -15 15 -34 21 -19 6 -40 17 -46 25 -6 8
-35 27 -63 44 -29 16 -67 44 -86 60 -18 17 -37 31 -40 31 -3 0 -49 41 -101 91
-52 50 -104 99 -115 108 -11 9 -51 52 -89 96 -38 44 -76 87 -85 95 -20 20 -37
48 -76 125 -16 33 -42 76 -58 96 -15 20 -27 39 -27 42 0 4 -16 29 -35 56 -19
26 -35 52 -35 57 0 5 -11 19 -25 32 -23 22 -156 281 -170 332 -4 14 -11 30
-15 35 -14 18 -89 325 -89 362 1 38 0 152 0 258 0 61 3 119 8 130 4 11 14 38
21 60 28 88 97 149 163 141 15 -2 30 0 32 4 3 4 24 3 47 -2 24 -5 58 -11 77
-13z"/>
<path d="M697 2143 c-9 -20 -5 -36 22 -96 54 -119 58 -134 34 -154 -31 -27
-38 -61 -17 -84 19 -21 54 -25 70 -9 8 8 16 -4 29 -37 10 -26 37 -89 61 -139
24 -51 44 -97 44 -104 0 -7 -9 -20 -20 -30 -10 -9 -24 -29 -30 -45 -9 -23 -7
-31 9 -46 24 -23 58 -24 81 -4 15 13 20 12 47 -15 17 -17 39 -47 48 -68 10
-20 29 -52 43 -70 l25 -33 -21 -29 c-26 -34 -28 -72 -6 -94 27 -28 72 -14 87
26 5 15 47 -23 47 -43 0 -7 27 -38 59 -70 81 -79 86 -89 55 -124 -13 -15 -25
-31 -25 -34 -8 -41 -5 -61 11 -76 24 -22 53 -12 81 26 l21 30 22 -23 c12 -13
33 -39 45 -58 13 -19 39 -49 58 -66 34 -30 35 -31 20 -60 -23 -44 -32 -104
-16 -104 7 0 20 -7 29 -15 23 -21 46 -10 59 26 10 29 11 29 33 15 13 -9 34
-30 48 -48 14 -17 37 -46 53 -62 15 -17 27 -34 27 -39 0 -4 5 -5 10 -2 6 3 10
1 10 -4 0 -18 46 -12 64 8 28 30 12 56 -90 156 l-94 90 18 30 c25 43 17 73
-24 92 -33 16 -35 16 -54 -5 -22 -23 -36 -28 -42 -13 -5 12 -58 77 -101 123
l-37 41 25 23 c31 29 31 44 0 74 -22 21 -29 22 -59 13 -32 -10 -37 -8 -73 26
-22 20 -61 64 -87 99 -48 65 -52 86 -21 112 22 18 18 48 -10 76 l-26 26 -35
-27 c-34 -26 -36 -26 -49 -9 -8 11 -15 24 -15 29 0 6 -23 39 -50 75 -35 45
-46 67 -37 72 7 4 8 8 4 8 -4 0 -2 10 5 23 7 12 11 25 10 30 -1 4 2 7 8 7 14
0 12 51 -3 75 -7 11 -24 21 -40 23 -21 2 -29 -3 -37 -23 -5 -14 -12 -25 -14
-25 -7 0 -76 149 -96 206 -18 53 -13 74 17 74 7 0 13 5 13 10 0 6 5 10 11 10
6 0 16 6 24 13 11 12 10 21 -7 55 -24 46 -54 59 -80 35 -27 -24 -41 -11 -66
60 -13 36 -31 71 -40 80 -25 21 -52 17 -65 -10z"/>
</g>
</svg>
