<?xml version="1.0" standalone="no"?>
<!DOCTYPE svg PUBLIC "-//W3C//DTD SVG 20010904//EN"
 "http://www.w3.org/TR/2001/REC-SVG-20010904/DTD/svg10.dtd">
<svg version="1.0" xmlns="http://www.w3.org/2000/svg"
 width="521.000000pt" height="473.000000pt" viewBox="0 0 521.000000 473.000000"
 preserveAspectRatio="xMidYMid meet">
<metadata>
Created by potrace 1.16, written by Peter Selinger 2001-2019
</metadata>
<g transform="translate(0.000000,473.000000) scale(0.100000,-0.100000)"
fill="#000000" stroke="none">
<path d="M644 4470 c-31 -12 -37 -58 -13 -99 18 -31 83 -181 96 -223 3 -10 9
-18 14 -18 5 0 9 -7 9 -15 0 -9 8 -30 17 -48 9 -18 17 -35 18 -39 0 -3 3 -10
8 -14 4 -4 7 -13 7 -20 0 -8 11 -37 24 -66 13 -29 40 -96 61 -148 56 -141 62
-155 121 -277 30 -61 63 -137 74 -168 11 -32 24 -63 28 -69 5 -6 14 -27 22
-46 18 -49 78 -195 106 -258 13 -29 24 -57 24 -63 0 -6 7 -25 16 -42 29 -56
34 -67 34 -76 0 -5 15 -42 34 -83 18 -40 55 -125 80 -188 26 -63 57 -135 68
-160 12 -25 23 -51 24 -59 4 -19 71 -177 101 -235 14 -27 40 -89 58 -137 19
-49 46 -114 61 -146 15 -32 28 -60 29 -63 5 -22 22 -65 47 -120 17 -36 39 -89
49 -119 10 -30 23 -59 27 -65 5 -6 15 -27 22 -46 7 -19 28 -68 47 -108 18 -41
33 -78 33 -83 0 -11 20 -47 39 -71 8 -10 24 -18 36 -18 13 0 28 -7 35 -15 7
-8 19 -15 26 -15 8 0 14 -2 14 -5 0 -7 -52 -99 -65 -115 -11 -13 -25 -48 -31
-75 -1 -5 -13 -35 -27 -65 -36 -79 -67 -161 -67 -175 0 -6 -8 -20 -19 -29 -15
-14 -23 -15 -45 -5 -14 7 -26 17 -26 22 0 6 -3 8 -6 4 -3 -3 -18 5 -32 19 -15
13 -29 24 -33 24 -7 0 -51 59 -53 73 -1 7 -10 30 -20 52 -10 22 -24 56 -31 76
-7 20 -18 45 -24 55 -14 25 -132 304 -160 379 -13 33 -31 78 -41 100 -10 22
-22 56 -28 75 -9 34 -49 130 -116 280 -54 120 -64 144 -90 223 -13 40 -40 107
-59 148 -57 123 -65 143 -73 174 -4 17 -23 64 -42 105 -18 41 -40 96 -48 122
-8 26 -33 87 -55 135 -22 48 -44 97 -48 108 -5 11 -14 34 -21 50 -8 17 -14 35
-16 42 -2 14 -69 180 -117 293 -18 41 -35 77 -39 78 -5 2 -8 10 -8 19 0 8 -6
29 -14 46 -8 18 -33 82 -57 142 -23 61 -55 138 -70 172 -16 34 -36 85 -45 112
-9 28 -20 54 -25 57 -5 3 -9 12 -9 21 0 14 -57 152 -81 195 -5 10 -9 24 -9 32
0 8 -5 16 -11 18 -5 2 -12 19 -15 38 -3 19 -11 44 -18 55 -7 11 -26 60 -42
109 -37 115 -76 137 -120 70 -12 -17 -8 -30 29 -104 24 -47 76 -168 117 -270
40 -102 76 -189 80 -195 4 -5 15 -35 25 -65 10 -30 26 -73 36 -95 10 -22 32
-76 48 -120 16 -44 39 -102 51 -130 12 -27 25 -59 30 -70 4 -11 15 -36 23 -55
9 -19 27 -66 41 -105 15 -38 30 -79 35 -90 5 -11 23 -56 41 -100 18 -44 44
-105 58 -135 14 -30 27 -65 28 -77 2 -13 12 -42 22 -66 11 -23 50 -118 87
-212 37 -93 77 -193 90 -221 13 -28 38 -91 55 -140 17 -48 35 -93 39 -98 5 -6
11 -24 15 -41 4 -16 14 -45 22 -62 23 -54 39 -93 84 -208 24 -60 54 -135 68
-165 13 -30 30 -72 38 -93 7 -20 20 -52 28 -70 15 -31 54 -140 59 -163 2 -7 8
-18 14 -25 6 -8 24 -52 40 -99 15 -47 31 -86 35 -88 5 -2 8 -9 8 -16 0 -7 9
-31 20 -54 11 -22 20 -50 20 -62 0 -11 4 -20 9 -20 16 0 21 -44 6 -56 -7 -6
-13 -24 -13 -40 1 -22 11 -37 42 -62 23 -17 57 -46 76 -63 75 -66 86 -74 105
-77 25 -5 131 -58 170 -86 44 -31 117 -65 140 -66 23 0 135 -34 162 -49 24
-13 123 -41 203 -57 98 -19 203 -43 220 -50 8 -4 29 -6 46 -5 16 1 54 -7 82
-18 29 -12 75 -21 102 -21 27 0 61 -5 76 -10 15 -6 45 -13 68 -16 22 -3 45 -9
49 -13 5 -5 22 -5 38 -1 16 5 55 6 87 3 121 -12 485 -4 577 12 161 28 189 34
250 49 113 28 355 129 355 148 0 4 6 8 13 8 12 0 101 79 126 113 11 14 10 30
-9 100 -28 101 -45 167 -61 232 -6 28 -22 73 -34 100 -13 28 -26 62 -29 77 -3
15 -11 40 -18 55 -13 32 -11 26 -33 115 l-17 66 -47 -2 c-63 -4 -155 -22 -227
-45 -32 -10 -84 -22 -114 -25 -30 -4 -86 -14 -125 -23 -38 -8 -86 -16 -105
-18 -19 -1 -53 -5 -75 -9 -125 -18 -217 -27 -222 -23 -3 3 -17 1 -31 -4 -14
-5 -78 -12 -142 -14 -65 -2 -133 -7 -153 -10 -20 -4 -82 -2 -139 4 -57 5 -130
13 -163 16 -33 4 -79 8 -102 10 -100 10 -301 48 -340 66 -23 10 -51 19 -62 19
-11 0 -50 11 -85 24 -35 14 -74 22 -85 19 -15 -4 -21 -1 -21 11 0 9 -5 16 -11
16 -5 0 -8 4 -4 10 3 5 -2 17 -10 28 -9 10 -63 128 -121 263 -57 134 -111 258
-118 274 -27 58 -158 361 -186 430 -15 39 -39 95 -52 125 -14 30 -33 74 -43
98 -10 23 -21 42 -25 42 -4 0 -7 6 -7 13 0 21 -69 173 -83 182 -5 3 -10 15
-10 25 0 17 -15 56 -67 180 -31 73 -65 139 -73 142 -4 2 -11 21 -14 43 -4 22
-13 43 -21 48 -8 4 -15 19 -15 33 0 14 -4 22 -10 19 -6 -3 -7 1 -4 9 3 9 1 16
-4 16 -6 0 -14 16 -18 35 -3 19 -10 32 -15 29 -5 -3 -9 1 -9 10 0 8 -6 17 -12
20 -9 4 -10 8 -2 11 9 5 9 12 0 30 -6 14 -14 25 -17 25 -3 0 -4 12 -1 27 4 22
2 25 -12 20 -14 -6 -16 -3 -11 14 5 16 4 19 -6 14 -9 -6 -11 -2 -7 13 5 16 2
22 -10 22 -15 0 -15 2 -2 10 13 8 12 10 -2 10 -10 0 -19 3 -19 8 -1 4 -3 19
-4 34 -2 15 -9 37 -16 50 -7 13 -14 29 -15 36 -1 7 -9 24 -18 37 -9 13 -16 31
-16 40 0 8 -4 15 -10 15 -5 0 -10 8 -10 18 0 11 -6 32 -14 48 -27 53 -88 199
-92 218 -2 10 -7 23 -12 30 -15 18 -104 231 -160 381 -32 85 -54 108 -88 95z
m3646 -3501 c0 -8 4 -19 9 -25 20 -21 115 -346 127 -433 6 -46 4 -55 -17 -77
-13 -14 -40 -33 -59 -42 -19 -9 -41 -22 -48 -29 -7 -7 -32 -18 -55 -24 -23 -6
-51 -15 -62 -19 -11 -5 -38 -14 -60 -21 -22 -7 -44 -17 -50 -21 -5 -4 -12 -8
-15 -8 -12 0 -48 141 -57 220 -9 75 -2 370 10 444 12 67 13 68 52 82 22 8 56
17 75 20 19 3 53 8 75 13 39 7 41 6 57 -28 10 -20 18 -43 18 -52z m-2025 42
c3 -5 1 -12 -5 -16 -17 -11 -11 -25 30 -68 21 -23 61 -71 87 -107 26 -36 53
-71 59 -77 7 -7 22 -29 34 -50 13 -21 33 -47 46 -58 21 -18 22 -23 11 -57 -7
-21 -14 -38 -17 -38 -18 0 -123 155 -181 266 -64 123 -96 164 -125 164 -15 0
-8 30 10 42 15 11 44 10 51 -1z m184 -90 c78 -78 141 -153 141 -166 0 -7 -3
-15 -7 -19 -5 -4 -8 -11 -8 -14 -1 -4 -4 -19 -8 -35 l-7 -27 -24 22 c-23 23
-86 119 -86 131 0 4 -15 29 -33 55 -18 26 -39 59 -46 75 -8 15 -18 27 -23 27
-4 0 -8 5 -8 10 0 24 57 -7 109 -59z m1463 -6 c-2 -39 -7 -74 -11 -78 -6 -6
-45 44 -94 120 -5 8 6 15 35 21 72 17 73 16 70 -63z m-1310 24 l55 -11 -20
-49 c-19 -43 -22 -47 -34 -31 -7 9 -26 34 -43 56 -16 21 -30 40 -30 42 0 6 13
5 72 -7z m1151 -43 c151 -156 157 -165 157 -201 0 -19 -4 -35 -8 -35 -11 0
-62 57 -120 133 -48 61 -126 137 -142 137 -5 0 -10 5 -10 10 0 6 16 10 36 10
30 0 43 -8 87 -54z m-187 22 c5 -13 7 -26 6 -30 -1 -4 20 -19 46 -34 26 -15
79 -63 117 -107 39 -43 94 -103 123 -132 51 -50 53 -54 50 -101 l-3 -48 -80
93 c-44 52 -103 119 -131 150 -70 76 -104 118 -104 126 0 4 -12 16 -26 27 -26
21 -45 57 -37 71 9 15 32 6 39 -15z m-1311 -98 c35 -58 98 -154 106 -160 3 -3
19 -25 36 -50 17 -25 48 -63 68 -85 34 -37 36 -42 30 -85 l-7 -45 -17 33 c-9
18 -20 30 -24 26 -8 -8 -77 54 -77 69 0 4 -20 41 -43 80 -24 40 -63 108 -86
152 -51 95 -67 115 -94 115 -19 0 -19 1 -4 18 10 10 17 24 17 30 0 19 65 -48
95 -98z m1175 88 c0 -17 -23 -78 -30 -78 -10 1 -59 78 -53 84 12 11 83 6 83
-6z m-532 -4 c46 -9 46 -13 5 -144 -5 -18 -56 38 -77 85 -7 17 -21 38 -30 48
-16 16 -15 17 27 17 24 0 58 -3 75 -6z m403 -63 c32 -34 59 -68 59 -76 0 -8 4
-15 9 -15 5 0 7 -9 4 -20 -5 -20 -23 -28 -23 -10 0 8 -45 60 -115 134 -11 12
-26 29 -34 39 -13 17 -12 18 13 13 17 -3 52 -29 87 -65z m-95 -55 c57 -57 104
-109 104 -115 0 -6 9 -16 20 -23 20 -13 24 -38 11 -72 -6 -16 -17 -6 -65 58
-32 42 -69 89 -82 103 -13 14 -24 29 -24 33 0 17 -71 95 -102 112 l-33 19 34
-5 c26 -5 57 -30 137 -110z m-396 -38 c33 -44 60 -85 60 -92 0 -8 -6 -28 -13
-44 l-13 -31 -64 95 c-36 53 -69 102 -74 109 -7 9 -6 23 2 40 16 34 23 29 102
-77z m-640 5 c1 -4 23 -39 50 -78 27 -38 70 -101 96 -140 65 -96 117 -152 141
-150 11 1 20 -5 20 -15 1 -16 -4 -16 -55 -4 -48 11 -64 21 -100 61 -23 26 -47
57 -53 68 -5 11 -21 38 -34 60 -14 22 -29 51 -35 65 -14 33 -50 102 -63 118
-5 6 -18 12 -28 12 -22 0 -23 9 -7 45 l12 26 28 -30 c15 -16 28 -34 28 -38z
m872 56 c13 -6 50 -46 83 -90 33 -43 93 -113 132 -155 71 -73 73 -77 67 -115
-5 -27 -12 -39 -23 -39 -19 1 -51 23 -51 37 0 5 -9 18 -20 28 -11 10 -20 24
-20 31 0 7 -4 14 -8 16 -5 2 -35 41 -67 88 -32 47 -76 104 -98 126 -30 32 -37
47 -32 63 7 24 7 24 37 10z m569 -105 c21 -22 39 -48 39 -58 0 -9 4 -14 10
-11 5 3 58 -44 117 -106 60 -62 118 -121 129 -133 16 -15 23 -38 27 -83 3 -35
3 -63 -1 -63 -15 0 -42 36 -42 56 0 22 -17 47 -77 112 -35 37 -80 91 -178 210
-42 50 -80 92 -84 92 -5 0 -20 18 -35 40 -37 56 -22 73 21 24 19 -21 52 -57
74 -80z m-881 -66 c30 -40 53 -75 51 -76 -2 -2 9 -16 23 -31 23 -24 26 -33 20
-70 -8 -48 -18 -44 -52 21 -13 24 -43 75 -67 113 -40 64 -57 115 -37 115 4 0
32 -33 62 -72z m871 -58 c5 0 9 -5 9 -11 0 -7 27 -39 59 -73 110 -114 149
-161 140 -167 -13 -8 -1 -39 29 -71 14 -16 23 -28 19 -28 -8 0 -57 49 -57 58
0 9 -52 63 -79 82 -12 8 -32 31 -44 50 -12 19 -42 58 -68 85 -77 82 -98 106
-102 118 -1 5 -17 10 -33 10 -30 0 -30 1 -21 36 l10 36 64 -62 c36 -35 69 -63
74 -63z m-1521 84 c0 -8 7 -14 15 -14 8 0 38 -35 66 -77 28 -43 67 -97 86
-120 23 -29 30 -43 19 -43 -8 0 -21 7 -30 15 -8 8 -19 15 -23 15 -5 0 -20 19
-33 43 -13 23 -45 75 -72 115 -46 69 -60 100 -38 87 6 -3 10 -13 10 -21z m959
-35 c31 -34 61 -69 68 -78 124 -164 158 -201 184 -201 16 0 18 -5 13 -25 -4
-14 -8 -40 -9 -58 -2 -18 -3 -34 -4 -37 -2 -9 -101 105 -101 117 0 6 -4 13 -8
15 -5 2 -44 55 -87 118 -94 137 -121 171 -129 163 -3 -4 -6 -1 -6 5 0 15 11
42 17 42 3 0 31 -28 62 -61z m-328 -160 c31 -46 63 -90 72 -98 11 -8 17 -28
17 -52 0 -51 -21 -51 -69 0 -40 42 -47 53 -86 132 -15 30 -31 62 -36 71 -5 10
-6 24 -4 33 16 51 15 50 33 24 9 -14 42 -64 73 -110z m-617 44 c39 -55 36 -58
-27 -34 -32 12 -45 40 -39 83 5 34 7 33 66 -49z m1620 -225 c21 -32 35 -62 31
-68 -3 -5 -21 -10 -38 -10 -27 1 -29 2 -14 11 22 13 13 31 -43 89 -23 24 -53
59 -68 78 -15 20 -38 47 -52 62 -88 94 -107 116 -103 127 6 17 242 -220 287
-289z m-742 244 c10 -7 32 -34 50 -60 38 -56 51 -71 103 -131 22 -25 43 -50
48 -56 4 -5 18 -23 32 -40 13 -16 23 -30 21 -32 -1 -2 -24 0 -51 3 -35 5 -54
15 -75 38 -41 46 -137 189 -141 211 -2 11 -13 22 -24 25 -20 5 -27 32 -12 46
4 4 7 17 7 28 1 21 1 21 12 1 6 -11 20 -26 30 -33z m698 -326 c0 -12 -70 0
-106 19 -39 20 -77 54 -119 106 -29 37 -35 52 -35 93 l0 50 130 -130 c71 -71
130 -133 130 -138z m-1040 161 c22 -30 40 -56 40 -59 0 -6 -58 13 -76 25 -13
8 -24 87 -12 87 4 0 25 -24 48 -53z m321 -24 c23 -32 54 -71 68 -87 l26 -29
-25 7 c-14 3 -44 9 -67 12 -38 6 -42 9 -47 43 -10 65 -12 111 -4 111 4 0 26
-26 49 -57z m491 -131 c-29 -4 -29 -4 -38 33 l-7 30 34 -30 c34 -29 34 -30 11
-33z"/>
<path d="M4145 2528 c-107 -13 -254 -51 -305 -79 -8 -5 -28 -15 -45 -23 -32
-14 -125 -102 -125 -117 0 -5 -4 -9 -10 -9 -18 0 -47 -74 -43 -109 3 -19 0
-37 -6 -41 -7 -4 -14 -58 -17 -131 -3 -68 -7 -135 -9 -149 -7 -42 16 -97 53
-127 19 -15 45 -38 58 -49 86 -77 437 -151 656 -140 105 6 135 11 188 33 8 3
20 7 25 8 6 0 23 7 39 13 33 14 186 169 186 189 0 7 5 13 11 13 5 0 8 4 5 9
-3 5 7 31 22 57 26 47 27 55 27 184 0 114 -3 141 -20 174 -19 40 -128 156
-146 156 -5 0 -9 6 -9 14 0 21 -137 83 -200 91 -36 4 -213 33 -240 38 -8 2
-51 0 -95 -5z m209 -108 c39 -11 82 -20 96 -20 31 0 137 -53 167 -83 11 -12
35 -33 52 -46 17 -13 31 -27 31 -32 0 -4 11 -25 26 -46 16 -24 24 -48 22 -68
-2 -34 -33 -84 -56 -93 -9 -3 -23 -13 -33 -23 -19 -19 -38 -25 -179 -59 -136
-33 -399 -18 -485 27 -37 20 -134 63 -140 63 -4 0 -13 7 -21 15 -8 8 -23 20
-33 27 -10 7 -30 31 -44 53 -38 58 -30 97 35 159 122 117 383 175 562 126z
m-49 -760 c3 -6 -4 -10 -17 -10 -18 0 -20 2 -8 10 19 12 18 12 25 0z"/>
</g>
</svg>
