<?xml version="1.0" standalone="no"?>
<!DOCTYPE svg PUBLIC "-//W3C//DTD SVG 20010904//EN"
 "http://www.w3.org/TR/2001/REC-SVG-20010904/DTD/svg10.dtd">
<svg version="1.0" xmlns="http://www.w3.org/2000/svg"
 width="553.000000pt" height="477.000000pt" viewBox="0 0 553.000000 477.000000"
 preserveAspectRatio="xMidYMid meet">
<metadata>
Created by potrace 1.16, written by Peter Selinger 2001-2019
</metadata>
<g transform="translate(0.000000,477.000000) scale(0.100000,-0.100000)"
fill="#000000" stroke="none">
<path d="M202 3916 c-28 -27 -26 -32 51 -149 31 -48 57 -92 57 -97 0 -6 4 -10
8 -10 5 0 19 -19 32 -42 13 -24 53 -88 90 -143 61 -91 130 -199 155 -243 6
-10 20 -32 33 -49 12 -17 22 -34 22 -38 0 -4 17 -32 39 -63 21 -32 59 -91 85
-132 26 -41 52 -84 59 -95 6 -10 41 -67 76 -125 36 -58 83 -134 106 -170 56
-86 140 -222 190 -305 22 -37 50 -79 63 -95 12 -15 22 -30 22 -34 0 -6 107
-184 185 -306 30 -47 67 -106 82 -132 16 -27 31 -48 36 -48 4 0 7 -6 7 -13 0
-7 18 -41 40 -75 22 -33 40 -65 40 -71 0 -11 30 -25 50 -22 13 2 13 1 0 -8 -8
-6 -25 -11 -37 -11 -12 0 -25 -5 -28 -10 -8 -12 -35 6 -35 22 0 6 -11 19 -25
30 -14 11 -25 28 -25 38 0 9 -7 23 -16 30 -8 8 -27 34 -42 59 -14 25 -30 51
-35 56 -22 27 -117 180 -122 196 -4 11 -10 19 -15 19 -5 0 -19 21 -32 48 -13
26 -25 49 -28 52 -16 14 -70 105 -70 117 0 7 -4 13 -8 13 -4 0 -16 15 -26 33
-11 17 -43 68 -71 112 -29 44 -72 114 -95 155 -24 41 -51 84 -60 95 -10 11
-26 36 -37 55 -20 37 -54 92 -112 180 -20 30 -40 62 -46 71 -72 123 -194 321
-218 353 -13 17 -32 47 -42 66 -10 18 -24 40 -31 48 -8 7 -14 20 -14 28 0 8
-4 14 -9 14 -5 0 -17 17 -26 38 -10 20 -36 60 -57 88 -21 28 -38 54 -38 57 0
3 -27 51 -60 105 -33 55 -60 103 -60 107 0 4 -14 25 -31 46 -23 29 -38 39 -59
39 -34 0 -55 -30 -46 -65 5 -20 70 -123 86 -135 3 -3 15 -21 26 -40 12 -19 43
-71 71 -115 27 -44 56 -91 64 -104 8 -14 18 -30 22 -35 4 -6 28 -45 53 -86 24
-41 68 -112 97 -157 29 -45 90 -144 136 -220 47 -76 112 -181 146 -233 91
-142 103 -162 121 -202 9 -21 20 -38 24 -38 4 0 10 -8 14 -17 3 -10 28 -52 55
-93 28 -41 69 -106 92 -145 23 -38 46 -71 51 -73 4 -2 8 -9 8 -15 0 -6 12 -29
27 -51 14 -23 38 -59 52 -81 15 -22 33 -53 41 -70 8 -16 22 -38 30 -48 19 -22
49 -74 92 -157 31 -61 48 -86 75 -115 20 -21 53 -89 53 -109 0 -11 7 -27 15
-36 13 -15 12 -20 -15 -50 -35 -40 -37 -55 -10 -95 12 -16 28 -45 36 -62 9
-18 20 -33 24 -33 11 0 33 -77 26 -92 -3 -7 -15 -26 -26 -43 -28 -42 -43 -77
-42 -97 0 -10 -3 -18 -8 -18 -8 0 -14 -28 -26 -123 -9 -65 11 -158 47 -218 16
-27 29 -52 29 -55 0 -17 112 -144 127 -144 4 0 14 -6 22 -13 9 -8 52 -28 96
-46 l80 -31 165 5 c156 4 279 13 290 20 3 2 26 6 50 10 25 3 68 13 95 21 58
18 218 94 223 106 2 4 11 8 21 8 9 0 33 12 52 26 19 14 50 34 69 44 37 20 125
101 203 188 47 53 104 145 110 179 2 10 9 30 15 44 53 129 50 307 -7 413 -40
75 -48 87 -55 86 -3 0 -30 11 -59 24 -105 49 -134 57 -222 62 -87 6 -252 -12
-350 -37 -22 -6 -53 -12 -70 -15 -16 -2 -37 -6 -45 -9 -8 -2 -33 -7 -55 -11
-48 -7 -109 -31 -198 -78 l-69 -36 -19 22 c-10 13 -18 27 -19 31 0 18 -35 82
-50 94 -8 7 -21 10 -27 8 -7 -2 -29 5 -48 16 -27 16 -39 18 -49 10 -7 -6 -25
-10 -39 -9 -21 2 -24 5 -16 19 14 27 11 57 -8 78 -39 42 -175 244 -194 286 -8
19 -32 59 -73 121 -130 198 -137 210 -128 218 3 3 1 6 -4 6 -5 0 -18 15 -28
33 -37 63 -110 172 -138 205 -15 18 -28 39 -28 47 0 7 -4 15 -9 17 -4 2 -25
35 -46 73 -21 39 -47 81 -57 95 -11 14 -52 76 -91 138 -40 63 -84 132 -99 155
-15 23 -32 51 -38 62 -11 22 -24 43 -239 381 -31 50 -73 117 -91 150 -19 32
-37 61 -41 64 -9 7 -135 214 -162 265 -34 68 -65 80 -105 41z m2693 -2560 c33
-7 71 -24 86 -38 8 -7 28 -20 44 -28 25 -13 57 -57 62 -86 2 -11 14 -133 15
-149 3 -60 -69 -254 -106 -285 -9 -7 -16 -17 -16 -22 0 -30 -270 -247 -309
-249 -9 0 -29 -9 -46 -20 -91 -57 -215 -101 -282 -100 -12 0 -33 -3 -47 -9
-13 -5 -109 -12 -213 -15 l-188 -7 -57 27 c-49 22 -137 97 -174 146 -36 49
-68 138 -69 193 -2 82 32 179 81 229 31 32 38 47 39 80 1 46 -30 119 -75 177
-43 56 -43 57 2 87 90 60 130 71 225 63 22 -2 35 -10 43 -29 7 -14 18 -38 26
-54 7 -15 11 -34 8 -41 -8 -21 17 -34 85 -41 37 -5 76 11 156 60 56 35 164 65
290 81 22 3 49 8 60 11 71 23 288 34 360 19z"/>
<path d="M2941 1113 c-11 -10 -26 -41 -33 -68 -11 -41 -65 -144 -88 -165 -3
-3 -18 -23 -33 -46 -15 -23 -39 -47 -52 -54 -13 -7 -22 -16 -20 -20 5 -8 -57
-60 -70 -60 -4 0 -20 -9 -36 -21 -16 -11 -35 -22 -42 -23 -7 -1 -19 -6 -27
-11 -18 -11 -12 -10 -122 -34 -48 -11 -115 -21 -150 -22 -82 -2 -233 8 -281
20 -49 12 -72 5 -86 -25 -28 -61 -8 -78 114 -98 76 -12 276 -16 340 -6 39 6
84 13 100 15 17 3 48 14 70 25 21 11 47 20 57 20 19 0 98 46 109 63 4 5 14 7
23 4 9 -4 16 -1 17 6 0 7 26 34 57 61 68 60 155 177 204 273 43 84 45 135 6
165 -29 22 -31 22 -57 1z"/>
<path d="M4225 1181 c-55 -26 -175 -130 -175 -151 0 -4 -11 -20 -25 -36 -14
-16 -25 -39 -25 -52 0 -12 -7 -25 -15 -28 -8 -4 -15 -19 -15 -34 0 -16 -4 -31
-9 -34 -9 -6 -8 -22 9 -168 8 -68 18 -101 46 -155 42 -77 98 -141 134 -149 88
-21 139 -27 245 -28 116 -1 122 0 170 28 27 16 63 42 80 57 16 15 40 36 53 47
12 11 22 23 22 27 0 4 7 13 16 20 16 11 40 85 68 208 8 31 11 57 9 57 -3 0 0
6 6 13 6 8 7 17 3 21 -4 4 -7 11 -8 14 -2 27 -29 106 -49 149 -14 28 -25 55
-25 59 0 11 -63 68 -90 81 -113 54 -137 59 -295 68 -74 4 -97 1 -130 -14z
m148 -100 c17 -14 57 -6 57 10 0 13 80 3 143 -19 26 -9 47 -20 47 -24 0 -4 6
-8 13 -8 24 0 77 -84 98 -154 19 -62 20 -77 9 -126 -17 -82 -60 -177 -94 -209
-20 -19 -24 -20 -36 -6 -17 21 -36 19 -54 -7 -10 -14 -12 -27 -6 -37 13 -24
-6 -49 -48 -61 -49 -13 -175 -13 -244 1 -55 11 -56 11 -43 36 13 25 10 52 -8
64 -19 13 -45 -4 -54 -34 l-9 -32 -36 56 c-41 63 -55 99 -39 99 6 0 11 -4 11
-10 0 -15 19 -12 36 4 21 22 19 76 -4 76 -10 0 -24 6 -31 13 -8 6 -11 7 -8 1
4 -6 0 -19 -7 -29 -13 -18 -14 -17 -20 11 -13 64 -14 127 -2 162 11 32 17 37
44 37 17 0 36 5 42 11 12 12 16 62 6 85 -14 32 92 114 165 127 36 6 45 5 50
-8 4 -9 14 -22 22 -29z"/>
<path d="M4498 1028 c-21 -26 -22 -47 -3 -71 18 -25 51 -14 60 20 5 20 1 32
-17 49 l-23 23 -17 -21z"/>
<path d="M4280 1003 c-17 -4 -45 -43 -31 -43 5 0 12 -11 15 -25 8 -31 30 -32
50 -3 31 45 13 81 -34 71z"/>
<path d="M4602 878 c-18 -18 -15 -53 7 -72 16 -15 22 -15 40 -4 22 13 25 27
15 66 -7 24 -42 30 -62 10z"/>
<path d="M4141 836 c-16 -20 -10 -56 11 -70 24 -15 39 3 41 45 2 27 -2 35 -19
37 -11 2 -26 -4 -33 -12z"/>
<path d="M4368 813 c-34 -8 -35 -84 -2 -97 20 -8 54 29 54 59 0 26 -24 44 -52
38z"/>
<path d="M4623 698 c-28 -14 -30 -49 -4 -72 16 -15 22 -15 40 -4 23 14 28 57
9 76 -14 14 -16 14 -45 0z"/>
<path d="M4233 651 c-15 -24 5 -66 32 -66 26 0 47 42 34 67 -13 23 -51 23 -66
-1z"/>
<path d="M4412 539 c-11 -17 -11 -24 3 -45 21 -33 53 -31 61 3 13 50 -38 84
-64 42z"/>
<path d="M5232 507 c-25 -11 -32 -30 -35 -96 -1 -26 3 -46 10 -48 15 -6 45 40
47 72 0 13 6 27 13 29 11 5 7 43 -6 50 -3 2 -16 -1 -29 -7z"/>
<path d="M3343 488 c-20 -25 -20 -43 -3 -78 10 -19 21 -43 24 -52 3 -10 14
-18 25 -18 21 0 35 25 24 43 -4 6 -12 34 -18 62 -12 51 -32 68 -52 43z"/>
<path d="M5006 487 c-26 -19 -14 -97 15 -97 24 0 41 33 37 73 -3 36 -23 45
-52 24z"/>
<path d="M3816 455 c-6 -17 3 -95 11 -95 2 0 13 5 24 10 14 8 19 21 19 50 0
22 -4 40 -9 40 -5 0 -16 3 -24 6 -8 3 -17 -2 -21 -11z"/>
<path d="M3173 452 c-6 -4 -16 -19 -22 -34 -19 -50 58 -161 83 -119 7 11 -15
133 -27 149 -11 14 -17 15 -34 4z"/>
<path d="M4756 428 c-22 -31 -21 -94 1 -102 20 -8 27 -1 42 43 15 47 14 59 -8
71 -16 8 -23 6 -35 -12z"/>
<path d="M5340 442 c-22 -7 -27 -20 -28 -68 -1 -42 0 -44 28 -44 22 0 30 5 30
18 0 9 3 33 6 53 6 38 -6 51 -36 41z"/>
<path d="M3592 428 c-6 -7 -10 -37 -10 -65 -1 -45 2 -53 17 -53 25 0 37 18 44
64 9 55 -23 88 -51 54z"/>
<path d="M3944 432 c-21 -14 -25 -45 -8 -63 21 -24 43 -24 59 -2 11 14 10 23
-1 45 -15 28 -30 34 -50 20z"/>
</g>
</svg>
