<?xml version="1.0" standalone="no"?>
<!DOCTYPE svg PUBLIC "-//W3C//DTD SVG 20010904//EN"
 "http://www.w3.org/TR/2001/REC-SVG-20010904/DTD/svg10.dtd">
<svg version="1.0" xmlns="http://www.w3.org/2000/svg"
 width="543.000000pt" height="451.000000pt" viewBox="0 0 543.000000 451.000000"
 preserveAspectRatio="xMidYMid meet">
<metadata>
Created by potrace 1.16, written by Peter Selinger 2001-2019
</metadata>
<g transform="translate(0.000000,451.000000) scale(0.100000,-0.100000)"
fill="#000000" stroke="none">
<path d="M2148 4362 c-25 -29 -27 -151 -14 -1067 3 -275 9 -762 12 -1083 l5
-582 -31 -33 c-16 -17 -30 -42 -30 -54 0 -20 -40 -55 -40 -36 0 4 -4 3 -8 -2
-7 -11 -206 -105 -221 -105 -12 0 -72 -32 -89 -48 -7 -6 -17 -12 -22 -12 -5 0
-37 -13 -72 -29 -35 -16 -106 -46 -158 -66 -52 -20 -104 -42 -115 -49 -11 -7
-58 -28 -105 -46 -47 -19 -100 -43 -119 -54 -33 -19 -34 -19 -28 -1 4 10 3 21
-3 25 -17 10 -20 74 -25 480 -2 212 -7 556 -11 765 -12 663 -12 698 -12 795 0
112 0 184 -2 460 -3 453 -2 599 6 612 3 4 1 8 -4 8 -5 0 -9 12 -9 27 0 33 -30
56 -63 48 -27 -6 -52 -33 -45 -46 5 -7 10 -302 20 -1239 3 -256 7 -566 10
-690 9 -450 9 -1155 0 -1170 -5 -8 -10 -19 -10 -25 0 -5 -7 -10 -15 -10 -8 0
-22 -5 -30 -10 -17 -11 -66 -30 -131 -51 -26 -8 -89 -34 -140 -57 -52 -24
-112 -50 -134 -57 -22 -7 -53 -18 -70 -25 -16 -7 -65 -25 -108 -40 -80 -29
-100 -47 -91 -83 8 -28 26 -33 55 -17 27 16 60 32 107 51 65 28 108 46 137 60
69 31 154 67 215 90 36 14 99 41 140 61 41 19 77 35 80 34 3 0 8 -13 11 -30 6
-30 5 -30 -80 -65 -47 -19 -149 -64 -226 -101 -163 -77 -222 -105 -250 -116
-68 -26 -142 -62 -157 -76 -18 -16 -23 -48 -12 -77 9 -24 62 -20 116 9 26 14
85 41 130 61 46 20 115 51 153 69 39 18 86 39 105 48 19 8 71 32 115 52 44 20
127 57 185 82 58 24 128 55 155 68 87 42 307 135 319 135 6 0 24 7 39 15 42
21 277 128 287 130 3 0 39 17 80 37 80 38 125 58 178 78 17 7 32 19 32 27 0 8
3 13 8 11 36 -18 67 -28 127 -42 131 -31 150 -36 170 -46 19 -8 58 -20 290
-86 122 -35 259 -76 264 -80 1 -1 -7 -13 -19 -26 -24 -26 -58 -71 -130 -173
-27 -38 -83 -116 -125 -172 -41 -56 -75 -106 -75 -111 0 -5 -7 -15 -15 -22 -8
-6 -28 -33 -46 -58 l-31 -47 7 93 c3 52 9 112 11 134 8 67 -38 99 -86 60 -20
-16 -23 -28 -25 -123 -2 -57 -8 -149 -14 -204 -6 -55 -12 -113 -12 -130 -1
-16 -6 -47 -11 -67 -10 -42 8 -82 41 -91 41 -10 180 30 251 74 34 20 110 54
150 65 14 4 49 18 78 31 30 13 56 22 59 19 4 -3 17 6 30 20 18 19 22 32 18 57
-7 40 -19 53 -53 62 -18 4 -30 2 -37 -9 -9 -12 -46 -33 -75 -41 -3 -1 -22 -9
-44 -18 -21 -9 -46 -17 -55 -17 -9 0 -25 -7 -35 -15 -23 -17 -36 -19 -36 -6 0
11 177 270 195 286 6 6 20 24 30 40 32 53 183 249 208 271 13 12 30 31 38 42
17 24 21 23 174 -23 50 -15 99 -29 110 -30 20 -3 88 -22 176 -50 26 -8 53 -15
62 -15 8 0 28 -7 43 -15 16 -8 39 -15 51 -15 12 0 34 -5 50 -12 32 -13 35 -14
83 -27 19 -5 49 -14 65 -20 17 -6 98 -29 180 -52 83 -23 156 -48 163 -57 8
-10 12 -11 12 -3 0 7 5 9 11 5 6 -4 25 -10 43 -15 17 -4 58 -15 91 -24 33 -10
67 -19 75 -20 8 -2 42 -11 75 -20 33 -9 65 -18 70 -19 6 -2 23 -8 38 -14 16
-7 33 -12 38 -12 5 0 40 -10 77 -22 37 -12 69 -23 72 -23 3 -1 52 -16 108 -34
97 -30 105 -31 128 -16 25 16 28 23 24 65 -3 31 -27 49 -66 50 -18 0 -45 7
-60 15 -16 8 -41 15 -56 15 -16 0 -28 4 -28 8 0 5 -19 9 -41 10 -23 1 -47 6
-53 11 -6 5 -40 16 -76 25 -36 9 -121 31 -190 50 -69 18 -210 57 -315 85 -104
28 -217 60 -250 71 -56 18 -116 36 -260 75 -88 25 -140 40 -230 68 -44 14 -98
29 -120 33 -22 4 -54 13 -71 20 -17 7 -34 11 -37 8 -4 -4 -62 20 -75 31 -5 4
24 48 81 123 26 35 47 71 47 81 0 9 5 22 12 29 7 7 9 12 4 12 -9 0 31 59 56
81 10 9 18 19 18 23 0 11 163 237 201 279 9 9 22 30 30 45 8 15 19 33 24 39 6
7 22 29 38 50 15 21 48 65 73 98 24 33 57 78 71 100 14 22 32 46 40 53 7 7 13
17 13 21 0 4 11 21 24 36 13 15 30 40 38 54 7 14 28 41 46 60 17 20 32 40 32
46 0 5 13 24 28 40 54 58 92 119 92 146 0 43 -10 59 -36 59 -15 0 -24 6 -24
15 0 8 0 18 -1 23 0 4 -11 13 -24 20 -40 21 -75 -5 -129 -97 -26 -45 -53 -84
-60 -88 -7 -5 -23 -26 -36 -48 -13 -22 -45 -67 -70 -100 -25 -33 -63 -86 -84
-117 -21 -32 -42 -58 -47 -58 -5 0 -9 -4 -9 -10 0 -14 -65 -113 -84 -129 -9
-7 -16 -19 -16 -26 0 -8 -4 -15 -8 -17 -5 -1 -28 -32 -52 -68 -24 -36 -46 -67
-50 -70 -7 -6 -90 -121 -162 -225 -31 -44 -72 -114 -93 -155 -20 -41 -49 -88
-65 -105 -15 -16 -36 -46 -46 -64 -18 -34 -32 -52 -64 -90 -14 -17 -18 -17
-75 0 -33 10 -127 37 -210 60 -82 23 -208 61 -280 84 -71 24 -168 55 -216 70
l-85 27 1 72 c1 40 5 77 8 83 4 6 3 22 -2 35 -4 12 -7 32 -5 43 2 11 4 29 5
40 1 23 -10 618 -16 855 -5 191 -5 176 -3 203 0 12 -2 186 -6 387 -9 447 -9
873 -1 1000 3 52 2 100 -2 106 -15 21 -59 25 -75 6z"/>
<path d="M701 3522 c-19 -18 -35 -50 -49 -97 -21 -76 -42 -179 -42 -212 0 -15
-20 -30 -87 -64 -172 -86 -193 -107 -198 -201 -2 -41 2 -53 25 -78 16 -17 37
-30 47 -30 23 0 119 77 128 103 4 9 12 17 19 17 8 0 19 6 25 14 7 8 29 14 50
14 37 0 37 -1 34 -37 -1 -20 1 -65 5 -101 6 -54 11 -67 30 -75 12 -5 22 -15
22 -21 0 -15 48 -32 78 -28 27 5 69 33 77 52 6 15 6 277 0 392 -6 120 -21 243
-33 273 -6 15 -9 27 -6 27 7 0 -37 63 -51 72 -20 15 -45 8 -74 -20z m72 -100
c9 -20 18 -72 20 -115 l3 -77 -21 20 c-27 25 -37 25 -60 0 -10 -11 -23 -20
-28 -20 -21 0 11 186 39 232 9 15 32 -4 47 -40z m5 -277 c2 -2 -1 -13 -7 -24
-15 -27 -59 -48 -94 -46 -15 1 -30 -1 -32 -6 -3 -4 -14 -5 -24 -2 -27 7 -92
-16 -112 -39 -9 -10 -21 -18 -28 -18 -6 0 -11 -9 -11 -20 0 -13 -12 -28 -30
-38 -16 -9 -30 -20 -30 -24 0 -5 -4 -8 -10 -8 -5 0 -10 16 -10 34 0 28 7 40
33 59 37 27 117 74 132 77 6 1 16 6 23 12 6 6 12 8 12 5 0 -4 24 7 53 23 40
22 61 27 92 24 21 -3 41 -7 43 -9z m34 -216 c-2 -128 -19 -154 -69 -107 -13
12 -23 33 -23 46 0 24 1 24 18 9 37 -33 63 -8 56 53 -8 69 -22 78 -51 30 -19
-32 -40 -42 -28 -12 4 9 7 24 7 34 0 9 10 19 25 23 14 3 32 13 40 21 9 8 18
13 20 10 3 -3 5 -51 5 -107z"/>
</g>
</svg>
