<?xml version="1.0" standalone="no"?>
<!DOCTYPE svg PUBLIC "-//W3C//DTD SVG 20010904//EN"
 "http://www.w3.org/TR/2001/REC-SVG-20010904/DTD/svg10.dtd">
<svg version="1.0" xmlns="http://www.w3.org/2000/svg"
 width="555.000000pt" height="481.000000pt" viewBox="0 0 555.000000 481.000000"
 preserveAspectRatio="xMidYMid meet">
<metadata>
Created by potrace 1.16, written by Peter Selinger 2001-2019
</metadata>
<g transform="translate(0.000000,481.000000) scale(0.100000,-0.100000)"
fill="#000000" stroke="none">
<path d="M2809 4493 c-13 -9 -26 -18 -28 -19 -7 -5 48 -220 104 -404 7 -25 16
-65 20 -90 4 -24 12 -53 17 -65 6 -11 10 -20 8 -20 -2 0 0 -10 4 -21 9 -29 45
-37 75 -18 21 15 23 21 18 67 -4 28 -11 55 -17 61 -5 5 -10 19 -10 30 0 16 7
12 28 -20 148 -221 200 -302 205 -317 9 -23 -19 -34 -153 -57 -94 -16 -349
-77 -485 -115 -27 -7 -75 -19 -105 -26 -30 -6 -77 -18 -105 -25 -32 -8 -52
-10 -56 -3 -3 5 -21 9 -40 9 -19 -1 -56 4 -84 10 -78 17 -94 19 -185 30 -118
14 -204 28 -350 55 -106 20 -171 28 -295 40 -11 1 -48 7 -83 14 -34 7 -99 16
-145 20 -45 5 -93 11 -107 14 -14 3 -72 11 -130 17 -57 6 -108 14 -112 16 -4
3 -67 14 -140 24 -73 11 -140 22 -148 23 -254 54 -285 55 -292 7 -3 -19 1 -31
15 -40 18 -10 287 -65 382 -76 22 -3 65 -9 95 -14 30 -5 105 -16 165 -24 61
-9 142 -21 180 -27 39 -6 111 -17 160 -24 83 -13 166 -26 240 -40 17 -3 44 -7
60 -10 17 -3 41 -8 55 -10 14 -3 44 -8 66 -10 23 -3 75 -12 115 -20 41 -8 88
-18 104 -20 17 -3 53 -10 80 -16 28 -5 73 -12 100 -15 28 -3 95 -16 150 -29
55 -13 109 -25 119 -27 13 -2 20 -13 22 -33 12 -123 22 -2043 11 -2062 -4 -6
-2 -24 4 -40 7 -18 12 -133 14 -323 1 -162 3 -304 4 -316 0 -12 14 -26 34 -36
29 -14 35 -14 52 -1 22 15 21 -22 11 553 -17 980 -23 2201 -11 2255 6 28 13
32 98 58 51 16 142 41 202 57 61 15 122 33 138 39 15 6 27 8 27 6 0 -3 15 1
34 9 28 12 79 23 136 31 8 2 36 7 61 13 25 6 66 14 90 17 24 3 51 7 59 10 15
5 25 -9 75 -95 11 -19 39 -60 61 -90 23 -31 55 -80 72 -110 16 -30 62 -107
101 -170 39 -63 75 -122 79 -130 4 -8 36 -61 72 -118 90 -143 109 -176 105
-180 -2 -2 7 -15 20 -28 24 -24 135 -188 135 -199 0 -9 59 -93 88 -125 12 -13
22 -30 22 -37 0 -6 6 -18 14 -26 8 -7 29 -38 47 -68 18 -30 53 -82 76 -117 24
-35 43 -66 43 -69 0 -2 9 -16 20 -30 11 -14 20 -32 20 -41 0 -26 41 -53 74
-48 17 3 32 10 34 16 2 6 14 21 27 33 30 30 37 53 19 67 -8 7 -14 18 -14 26 0
7 -18 34 -40 59 -22 25 -40 52 -40 58 0 7 -10 22 -23 33 -12 12 -35 46 -51 75
-16 30 -31 56 -35 59 -3 3 -31 41 -61 85 -29 44 -59 83 -66 87 -6 4 -15 20
-19 35 -3 15 -14 34 -24 42 -10 9 -24 27 -31 41 -7 14 -31 54 -55 90 -23 36
-64 99 -90 140 -27 41 -61 91 -77 110 -15 19 -28 38 -28 43 0 4 -8 20 -18 35
-55 81 -72 110 -72 125 0 9 -6 17 -14 17 -7 0 -26 24 -40 54 -15 30 -33 59
-41 66 -8 7 -15 16 -15 21 0 5 -16 29 -35 55 -19 25 -35 50 -35 55 0 6 -13 30
-30 54 -16 24 -30 48 -30 53 0 5 -7 15 -15 22 -24 20 -46 70 -32 74 89 25 207
63 267 86 152 58 318 103 420 115 14 1 25 3 25 4 0 2 16 4 35 6 32 3 133 34
185 55 11 5 36 12 55 16 19 3 53 15 75 25 51 23 111 42 200 64 39 9 77 21 86
26 9 4 34 10 55 13 21 2 40 5 42 7 1 1 5 2 10 4 4 1 19 7 33 13 15 6 53 15 85
21 32 6 63 16 68 21 6 6 18 10 28 10 47 0 108 59 82 79 -5 3 -9 15 -9 25 0 36
-47 40 -110 11 -31 -14 -61 -23 -66 -20 -5 4 -9 1 -9 -4 0 -6 -9 -11 -19 -11
-11 0 -23 -4 -26 -10 -3 -5 -19 -10 -35 -10 -16 0 -52 -9 -80 -20 -28 -11 -59
-20 -69 -20 -29 0 -250 -74 -306 -102 -27 -14 -70 -29 -95 -32 -25 -4 -76 -18
-115 -31 -38 -13 -88 -27 -110 -30 -108 -18 -295 -59 -335 -75 -25 -9 -81 -32
-125 -49 -44 -18 -87 -34 -95 -36 -8 -2 -60 -17 -115 -34 -82 -24 -101 -27
-108 -16 -4 8 -13 20 -20 27 -17 19 -57 76 -57 82 0 11 -83 141 -91 144 -5 2
-9 8 -9 14 0 6 -13 33 -30 59 -16 27 -26 49 -22 49 5 0 27 -16 51 -36 46 -39
96 -51 119 -27 18 17 8 76 -16 103 -9 10 -23 26 -30 34 -7 9 -23 16 -36 16
-13 0 -32 8 -44 18 -11 10 -33 27 -47 38 -15 10 -33 25 -40 32 -8 6 -18 12
-23 12 -13 0 -182 167 -182 180 0 5 -17 18 -39 29 -35 19 -40 19 -62 4z"/>
<path d="M197 2995 c-11 -28 11 -55 46 -56 18 0 43 -2 57 -4 14 -2 66 -9 115
-15 50 -7 101 -14 115 -16 14 -2 63 -8 110 -13 101 -12 348 -44 550 -71 186
-25 205 -28 205 -30 0 -3 8 -4 120 -19 44 -6 115 -18 159 -26 44 -8 87 -13 96
-10 15 5 17 -3 18 -52 0 -32 3 -92 7 -134 7 -76 -4 -127 -25 -114 -10 6 -149
21 -330 35 -135 11 -226 19 -535 51 -110 12 -227 23 -260 25 -33 2 -112 11
-175 20 -63 9 -128 18 -145 20 -16 2 -38 7 -47 10 -33 10 -58 -5 -58 -35 0
-30 15 -48 40 -49 38 -3 160 -14 315 -28 94 -9 188 -18 210 -20 199 -18 282
-26 296 -30 25 -7 31 -58 35 -259 1 -99 5 -195 8 -213 6 -32 6 -32 -24 -27
-26 5 -37 0 -66 -30 -19 -19 -34 -41 -35 -48 -3 -41 -16 54 -18 133 -3 93 -7
196 -10 235 -1 19 -1 19 -21 0 -18 -19 -20 -36 -22 -218 l-3 -199 -20 24 c-21
25 -122 78 -147 78 -11 0 -17 14 -21 48 -3 26 -11 79 -16 117 -6 39 -10 107
-11 152 0 45 -4 84 -9 87 -23 15 -29 -30 -28 -240 l1 -222 -40 -33 c-21 -19
-42 -38 -45 -42 -4 -5 -17 -7 -30 -5 -27 3 -67 74 -68 119 -1 15 -10 38 -22
53 -11 14 -18 26 -15 26 3 0 -1 15 -8 33 -8 18 -17 98 -21 190 -6 142 -14 183
-29 159 -11 -18 -24 -250 -17 -314 l7 -67 -34 15 c-54 22 -76 18 -115 -25 -57
-64 -26 -113 35 -56 31 28 60 32 78 10 7 -8 19 -15 28 -15 21 0 55 -39 80 -94
12 -25 22 -49 22 -53 0 -5 16 -19 35 -31 39 -27 82 -24 105 8 8 11 18 20 23
20 5 0 16 8 25 17 16 16 17 14 22 -28 3 -24 7 -185 8 -358 l3 -314 -94 7 c-91
6 -94 6 -106 -18 -8 -13 -10 -33 -6 -46 7 -21 11 -22 103 -19 l97 4 6 -37 c3
-20 4 -88 2 -152 -2 -79 0 -123 9 -139 11 -20 13 -150 3 -202 -2 -11 -4 -62
-4 -113 l-1 -93 -122 3 c-140 2 -164 -3 -172 -38 -10 -39 23 -68 71 -61 77 12
319 18 365 9 26 -5 50 -6 55 -1 12 12 57 18 177 24 60 3 113 8 118 11 5 3 114
7 243 9 251 4 293 11 287 50 -2 11 -5 321 -8 690 -4 598 -2 674 12 710 22 54
26 75 23 105 -6 62 -3 481 5 534 l8 58 38 -6 c50 -8 62 12 54 86 -3 29 -7 121
-8 203 l-1 150 -24 3 c-13 2 -27 -2 -31 -8 -5 -9 -10 -6 -15 9 -3 11 -14 21
-23 21 -68 2 -216 19 -305 36 -10 2 -46 6 -80 9 -34 3 -100 10 -147 15 -47 6
-130 15 -185 20 -55 6 -126 15 -158 21 -53 9 -164 24 -367 49 -79 10 -194 25
-271 36 -38 5 -47 3 -52 -11z m1023 -580 c47 -4 110 -8 140 -10 30 -2 73 -6
95 -9 22 -3 72 -8 110 -11 140 -11 150 -21 135 -141 -5 -39 -5 -75 0 -85 5 -9
7 -19 4 -21 -4 -4 -13 -225 -16 -385 0 -35 -16 -47 -40 -29 -24 18 -65 106
-72 158 -4 26 -11 50 -16 53 -7 5 -43 99 -45 117 0 3 -3 10 -7 14 -5 4 -8 63
-8 131 0 100 -3 123 -14 123 -25 0 -36 -53 -37 -180 0 -47 5 -98 10 -113 6
-16 11 -36 11 -45 0 -21 -63 -57 -84 -49 -9 4 -16 2 -16 -3 0 -5 -11 -21 -24
-35 -15 -16 -30 -50 -36 -81 -6 -30 -13 -54 -14 -54 -8 0 -46 38 -46 46 0 5
-9 20 -20 34 -11 14 -20 33 -20 42 0 10 -7 38 -15 62 -9 25 -18 87 -20 138
-11 211 -24 306 -49 337 -6 8 -6 12 -1 9 6 -4 49 -9 95 -13z m295 -536 c4 -12
7 -36 7 -55 0 -19 4 -36 9 -39 4 -3 20 -29 34 -58 14 -29 39 -63 55 -77 l30
-25 1 -200 c1 -110 1 -222 0 -248 l-1 -49 -77 3 c-43 1 -85 0 -93 -4 -14 -5
-74 -8 -442 -23 l-148 -6 -2 48 c-1 27 -2 141 -4 254 -1 113 -4 238 -7 277 -6
79 0 93 26 62 17 -19 51 -25 81 -13 9 3 32 35 52 70 20 35 42 64 49 64 36 0
62 -21 84 -69 14 -28 30 -51 38 -51 7 0 13 -6 13 -14 0 -17 22 -26 66 -26 28
0 38 6 54 33 11 17 20 41 20 52 1 35 26 67 71 90 56 30 76 30 84 4z m-745 -75
c0 -14 -3 -14 -15 -4 -8 7 -15 14 -15 16 0 2 7 4 15 4 8 0 15 -7 15 -16z m32
-60 c14 -50 24 -320 17 -474 0 -8 2 -50 5 -92 l5 -78 -29 0 -30 0 0 68 c-1 64
0 525 0 585 1 36 21 31 32 -9z m851 -876 c-2 -101 -3 -192 -3 -203 0 -11 -1
-36 -1 -55 -1 -19 -1 -51 0 -70 6 -116 5 -219 -2 -226 -4 -5 -40 -9 -80 -11
-148 -5 -294 -13 -352 -18 -90 -9 -290 -23 -292 -21 -2 2 -5 117 -8 257 -4
140 -9 261 -12 269 -4 8 -7 63 -8 123 l-1 107 30 1 c17 0 42 2 56 4 14 1 104
6 200 10 96 4 176 8 177 9 1 1 68 2 150 4 l148 2 -2 -182z m-830 125 c3 -10 6
-83 6 -163 1 -80 3 -156 6 -169 5 -28 8 -381 3 -386 -2 -2 -14 4 -26 14 -22
16 -24 24 -24 127 -1 60 0 138 2 174 4 70 -8 354 -16 382 -3 10 -2 22 1 28 10
16 43 11 48 -7z"/>
</g>
</svg>
