<?xml version="1.0" standalone="no"?>
<!DOCTYPE svg PUBLIC "-//W3C//DTD SVG 20010904//EN"
 "http://www.w3.org/TR/2001/REC-SVG-20010904/DTD/svg10.dtd">
<svg version="1.0" xmlns="http://www.w3.org/2000/svg"
 width="553.000000pt" height="489.000000pt" viewBox="0 0 553.000000 489.000000"
 preserveAspectRatio="xMidYMid meet">
<metadata>
Created by potrace 1.16, written by Peter Selinger 2001-2019
</metadata>
<g transform="translate(0.000000,489.000000) scale(0.100000,-0.100000)"
fill="#000000" stroke="none">
<path d="M1396 4808 c-10 -9 -31 -20 -47 -23 -34 -8 -133 -104 -185 -182 -21
-32 -41 -60 -44 -63 -14 -14 -40 -61 -40 -74 0 -8 -3 -16 -8 -18 -4 -1 -15
-25 -24 -53 -15 -47 -49 -134 -71 -181 -10 -23 -13 -362 -4 -424 3 -19 10 -71
16 -115 21 -163 48 -275 81 -345 4 -9 11 -31 16 -50 10 -42 9 -41 17 -60 3 -8
8 -28 12 -44 3 -15 14 -47 24 -70 10 -22 24 -55 30 -71 6 -17 24 -44 40 -61
16 -17 41 -54 55 -82 14 -28 37 -63 51 -78 14 -15 40 -53 57 -83 18 -31 35
-57 40 -59 4 -2 8 -10 8 -18 0 -8 5 -14 10 -14 6 0 21 -9 33 -21 20 -19 21
-21 5 -33 -37 -27 -108 -97 -118 -116 -7 -12 -8 -39 -4 -65 4 -28 2 -45 -4
-45 -23 0 -2 -83 52 -200 99 -214 104 -224 116 -277 7 -29 16 -53 21 -53 5 0
9 -11 9 -24 0 -14 5 -28 10 -31 6 -4 8 -10 5 -15 -3 -4 2 -27 11 -51 35 -101
58 -288 58 -469 l0 -175 -44 -85 c-57 -112 -59 -135 -17 -223 35 -72 105 -177
120 -177 6 0 44 -31 87 -70 8 -8 36 -28 60 -44 25 -16 63 -41 85 -56 57 -37
155 -84 185 -88 40 -5 112 -30 157 -56 23 -13 68 -32 100 -41 32 -9 61 -21 64
-27 3 -5 17 -11 30 -13 30 -5 108 -25 134 -35 11 -5 35 -14 53 -20 29 -11 76
-19 132 -21 8 -1 56 -7 105 -14 78 -12 244 -24 395 -28 43 -1 204 9 280 18 19
2 67 11 107 19 64 13 87 22 154 62 16 9 50 39 128 115 39 38 41 130 5 248 -14
47 -29 91 -34 96 -6 8 -18 44 -24 75 -1 3 -14 32 -30 65 -16 33 -30 76 -33 95
-2 19 -8 39 -12 45 -9 11 -46 165 -43 178 6 21 13 119 13 182 1 40 7 79 14 91
8 12 12 40 10 65 -2 39 7 75 24 89 15 12 61 91 61 105 0 8 4 15 9 15 12 0 32
58 61 180 14 57 49 170 59 190 9 18 6 249 -4 300 -3 19 -18 58 -33 85 -14 28
-33 65 -42 83 -27 54 -156 192 -265 281 -86 70 -194 151 -203 151 -5 0 -17 9
-29 19 -23 21 -232 131 -250 131 -6 0 -24 6 -40 14 -87 43 -181 85 -203 91
-14 4 -38 15 -55 25 -27 16 -102 35 -240 62 -51 9 -192 11 -207 2 -4 -3 -16
-7 -25 -9 -10 -2 -23 -5 -30 -7 -9 -2 -14 53 -17 227 -3 127 -8 247 -11 267
-8 56 -62 217 -89 268 -14 25 -41 82 -60 127 -19 44 -45 98 -58 119 -13 22
-38 70 -54 107 -16 38 -46 89 -68 115 -21 26 -55 67 -75 91 -20 24 -58 61 -86
82 -27 22 -67 54 -89 72 -50 42 -127 85 -196 109 -69 24 -167 22 -194 -4z
m229 -143 c43 -19 83 -42 88 -50 4 -8 15 -21 23 -28 9 -6 24 -20 35 -29 10
-10 23 -18 28 -18 16 0 196 -193 196 -210 0 -5 3 -12 8 -16 13 -13 67 -133 67
-149 0 -8 4 -15 9 -15 7 0 21 -27 96 -193 14 -32 23 -62 20 -67 -3 -6 -2 -10
3 -10 24 0 58 -161 61 -285 3 -149 4 -272 1 -322 -5 -74 -48 -117 -79 -79 -7
8 -33 19 -59 26 -41 9 -53 8 -87 -7 -55 -25 -135 -74 -135 -82 0 -3 -11 -18
-23 -31 -37 -40 -42 -75 -15 -112 15 -22 18 -33 10 -36 -7 -2 -12 -10 -12 -18
0 -9 -5 -12 -12 -8 -6 4 -8 3 -5 -3 4 -6 -2 -22 -13 -36 -11 -14 -20 -31 -20
-38 0 -8 -5 -8 -17 3 -32 28 -58 30 -86 7 -15 -11 -27 -27 -27 -35 0 -8 -14
-42 -31 -75 -33 -67 -35 -109 -4 -123 32 -14 92 -106 69 -106 -3 0 -24 16 -47
35 -22 19 -43 35 -47 35 -3 0 -14 15 -24 34 -11 20 -24 32 -31 29 -8 -2 -19 6
-26 18 -6 12 -24 33 -39 45 -15 13 -40 48 -56 79 -16 30 -32 55 -36 55 -5 0
-8 7 -8 16 0 8 -4 13 -9 9 -5 -3 -12 4 -16 15 -3 11 -10 20 -15 20 -4 0 -13
12 -19 28 -7 15 -22 44 -34 64 -42 70 -77 138 -77 150 0 7 -9 35 -19 63 -56
144 -107 345 -121 480 -5 50 -11 104 -14 120 -21 125 -14 312 15 380 6 17 14
39 16 50 1 11 7 29 12 40 6 11 26 55 45 98 19 42 39 77 45 77 6 0 11 5 11 11
0 7 15 28 34 48 18 20 54 59 80 88 56 61 115 93 171 93 23 0 73 -15 120 -35z
m995 -1530 c19 -3 51 -8 70 -11 19 -3 46 -8 60 -11 14 -4 28 -7 32 -7 3 -1 10
-4 14 -8 4 -5 15 -8 25 -8 10 0 38 -11 61 -24 24 -13 68 -31 98 -41 30 -10 62
-24 71 -31 8 -8 20 -14 25 -14 5 0 20 -6 34 -13 14 -7 50 -22 80 -33 30 -10
61 -25 69 -32 8 -8 38 -25 68 -39 29 -14 53 -29 53 -33 0 -4 15 -13 33 -21 17
-7 44 -22 58 -33 14 -12 43 -34 65 -51 21 -16 45 -37 54 -45 8 -8 36 -31 60
-50 25 -19 47 -38 48 -42 2 -5 22 -27 45 -51 46 -47 117 -147 117 -165 0 -7 9
-31 19 -55 26 -57 33 -169 15 -267 -14 -81 -46 -160 -65 -160 -6 0 -7 -4 -4
-10 3 -5 1 -10 -4 -10 -6 0 -11 -8 -11 -19 0 -50 -210 -212 -334 -256 -75 -27
-87 -29 -255 -29 -185 -1 -187 -1 -366 59 -169 56 -317 117 -343 142 -7 7 -21
13 -30 13 -9 0 -30 11 -46 25 -16 14 -33 25 -37 25 -4 0 -14 6 -21 13 -24 23
-94 67 -106 67 -7 0 -12 4 -12 10 0 5 -14 17 -32 26 -17 9 -40 25 -51 35 -12
10 -24 19 -29 19 -4 0 -8 7 -8 15 0 8 -4 15 -9 15 -5 0 -27 24 -49 53 -22 28
-53 66 -69 83 -40 45 -58 68 -66 84 -4 8 -16 29 -27 45 -50 77 -91 178 -96
238 -3 39 -10 65 -19 70 -8 4 -15 12 -15 18 0 5 -15 23 -32 39 -18 16 -27 30
-20 30 6 0 12 9 12 20 0 24 27 37 43 21 6 -6 20 -11 31 -11 22 0 76 56 76 79
0 9 25 45 55 81 30 35 55 67 55 70 0 3 -9 20 -20 38 -32 53 -9 89 78 119 39
13 52 10 106 -29 27 -20 43 -25 51 -18 7 5 25 11 41 12 16 1 36 7 44 13 26 20
154 53 209 53 18 1 35 3 38 6 3 2 10 3 16 1 7 -2 28 -7 47 -10z m-1004 -658
c64 -54 101 -77 116 -72 8 3 21 -13 37 -47 13 -29 38 -71 56 -93 18 -22 40
-55 49 -73 9 -18 43 -59 74 -92 31 -32 72 -80 91 -107 33 -47 141 -143 160
-143 5 0 11 -4 13 -8 2 -5 30 -23 63 -40 33 -18 73 -43 89 -57 15 -13 49 -34
75 -46 25 -13 48 -25 51 -28 8 -9 157 -81 177 -86 26 -6 101 -32 153 -54 97
-40 217 -66 350 -77 102 -7 80 -8 221 9 108 14 180 31 204 50 49 37 178 118
182 114 4 -5 -24 -56 -37 -67 -9 -7 -40 -89 -38 -98 5 -16 -23 -50 -52 -62
-16 -7 -30 -16 -30 -20 0 -4 -8 -10 -17 -13 -10 -3 -48 -16 -85 -30 -38 -14
-68 -23 -68 -21 0 3 -9 0 -20 -6 -10 -6 -72 -12 -136 -13 -101 -3 -120 -6
-140 -24 -29 -26 -22 -57 18 -74 83 -34 386 10 476 69 l25 16 -7 -79 c-14
-153 -14 -170 2 -205 18 -40 15 -33 31 -89 7 -24 19 -54 27 -66 8 -13 14 -27
13 -31 -3 -10 13 -61 72 -229 40 -115 45 -144 35 -192 -8 -39 -25 -61 -78 -99
-29 -21 -55 -41 -58 -44 -13 -13 -70 -28 -76 -19 -3 6 -11 3 -18 -6 -18 -24
-78 -35 -216 -40 -69 -2 -134 -6 -145 -8 -11 -3 -55 1 -97 8 -42 6 -103 10
-135 8 -89 -6 -386 49 -498 91 -38 15 -95 34 -125 42 -30 8 -75 26 -98 40 -24
14 -85 37 -135 51 -82 22 -189 74 -225 110 -7 7 -19 13 -26 13 -8 0 -19 7 -26
15 -7 9 -15 13 -18 11 -3 -3 -29 17 -59 44 -30 28 -59 50 -63 50 -11 0 -86 99
-111 145 -12 22 -14 37 -7 57 6 16 14 28 19 28 5 0 9 7 9 15 0 9 7 18 15 21 8
4 15 14 15 23 0 9 9 40 20 70 17 47 19 74 16 226 -2 95 -6 176 -9 181 -3 5 -8
35 -11 66 -6 51 -20 120 -60 293 -19 79 -72 223 -134 360 -27 61 -59 135 -70
166 -20 54 -20 57 -3 75 9 11 18 21 18 24 15 58 55 97 104 99 8 1 33 -14 55
-32z"/>
<path d="M2400 3030 c-30 -4 -64 -11 -75 -15 -69 -25 -154 -59 -175 -70 -32
-17 -80 -61 -80 -75 0 -5 -3 -10 -8 -10 -12 0 -69 -102 -87 -154 -37 -108 -39
-170 -6 -193 12 -8 21 -22 21 -32 0 -10 7 -24 15 -31 8 -7 15 -18 15 -26 0
-19 69 -122 105 -157 11 -11 52 -45 90 -76 39 -31 72 -59 75 -62 3 -3 33 -21
68 -39 34 -19 62 -39 62 -46 0 -6 8 -14 18 -18 9 -3 40 -19 67 -34 187 -106
177 -101 400 -182 28 -10 64 -21 80 -24 17 -3 53 -12 80 -21 28 -9 66 -19 85
-22 19 -3 42 -9 50 -13 19 -10 202 22 254 45 130 56 215 168 234 308 13 101 4
161 -45 291 -18 49 -27 62 -90 136 -18 20 -33 42 -33 47 0 6 -14 21 -32 34
-18 13 -62 49 -99 79 -72 59 -92 74 -126 93 -12 7 -66 40 -120 75 -130 83
-117 76 -208 113 -191 76 -365 102 -535 79z m346 -125 c20 -8 46 -15 57 -15
18 0 52 -14 187 -73 14 -7 72 -43 130 -82 58 -38 109 -72 114 -74 16 -7 49
-35 101 -85 27 -26 58 -54 68 -61 25 -17 97 -116 97 -132 0 -7 4 -13 9 -13 10
0 38 -64 46 -107 15 -80 17 -142 4 -179 -15 -45 -16 -48 -18 -70 0 -9 -27 -42
-60 -74 -65 -65 -117 -87 -231 -96 -91 -8 -298 43 -460 113 -137 60 -322 160
-370 200 -50 43 -79 63 -88 63 -6 0 -15 6 -19 13 -4 6 -26 26 -48 42 -62 47
-121 112 -146 163 -12 26 -28 58 -35 72 -19 39 -27 97 -15 104 6 4 11 18 11
32 0 13 5 24 10 24 6 0 10 6 8 13 -7 30 119 177 153 177 10 0 20 4 24 9 10 17
118 45 190 49 38 2 72 5 74 7 9 10 174 -6 207 -20z"/>
</g>
</svg>
