<?xml version="1.0" standalone="no"?>
<!DOCTYPE svg PUBLIC "-//W3C//DTD SVG 20010904//EN"
 "http://www.w3.org/TR/2001/REC-SVG-20010904/DTD/svg10.dtd">
<svg version="1.0" xmlns="http://www.w3.org/2000/svg"
 width="561.000000pt" height="485.000000pt" viewBox="0 0 561.000000 485.000000"
 preserveAspectRatio="xMidYMid meet">
<metadata>
Created by potrace 1.16, written by Peter Selinger 2001-2019
</metadata>
<g transform="translate(0.000000,485.000000) scale(0.100000,-0.100000)"
fill="#000000" stroke="none">
<path d="M307 4612 c-31 -34 -11 -92 30 -92 11 0 44 -8 74 -19 30 -10 72 -21
94 -25 22 -4 54 -16 70 -26 17 -9 48 -23 70 -29 48 -15 101 -35 173 -67 29
-13 68 -24 87 -24 39 0 236 -44 263 -59 10 -5 44 -12 77 -15 33 -4 80 -10 105
-16 25 -5 72 -11 105 -14 143 -11 188 -20 250 -47 47 -20 112 -39 137 -39 42
0 58 -63 59 -240 1 -80 3 -302 5 -495 2 -192 3 -372 1 -400 -2 -70 -2 -211 2
-340 2 -60 3 -148 3 -195 -1 -47 -1 -153 0 -236 0 -83 -3 -186 -7 -230 -5 -43
-8 -83 -7 -87 7 -26 -3 -148 -16 -207 -5 -25 -13 -103 -16 -174 -4 -71 -8
-131 -10 -135 -6 -9 -19 -111 -20 -154 -1 -32 -5 -39 -26 -44 -14 -3 -47 -21
-74 -40 -26 -18 -57 -33 -67 -33 -11 0 -19 -4 -19 -8 0 -5 -12 -14 -27 -21
-31 -14 -132 -80 -151 -98 -7 -7 -20 -13 -28 -13 -14 0 -15 50 -10 418 3 229
6 442 8 472 1 30 -1 100 -5 155 -6 88 -8 403 -4 585 1 36 -2 169 -7 295 -4
127 -9 273 -10 325 -3 87 6 136 26 151 12 8 12 51 0 82 -9 20 -19 27 -39 27
-16 0 -37 7 -47 15 -11 8 -26 15 -32 15 -7 0 -29 11 -48 24 -20 13 -59 30 -88
36 -29 7 -72 24 -96 38 -43 24 -214 72 -262 72 -14 0 -47 8 -75 19 -27 10 -75
22 -105 26 -30 4 -62 11 -71 16 -9 4 -40 11 -69 14 -45 5 -54 3 -67 -15 -8
-11 -18 -18 -23 -15 -17 11 -50 -34 -49 -67 2 -106 -10 -563 -16 -613 -4 -33
-7 -64 -7 -70 13 -117 20 -482 14 -750 -2 -84 6 -849 12 -1141 2 -95 0 -194
-5 -220 -12 -61 -12 -171 -1 -296 9 -104 6 -193 -9 -220 -5 -9 -6 -24 -3 -32
6 -16 -17 -46 -34 -46 -11 0 -25 -58 -17 -71 3 -5 -7 -12 -22 -15 -15 -4 -46
-18 -68 -32 -22 -14 -45 -25 -52 -25 -6 0 -16 -11 -22 -24 -18 -39 21 -69 51
-40 20 20 158 109 198 128 19 9 62 36 95 61 80 60 131 89 138 81 4 -3 7 -1 7
5 0 6 10 14 23 18 24 7 97 55 137 90 14 12 55 38 92 57 37 20 91 53 120 74 29
20 89 55 133 78 130 67 237 132 276 167 19 19 57 48 85 65 27 18 58 40 69 50
11 10 42 29 69 43 79 40 86 44 86 52 0 5 8 8 18 8 10 0 28 7 41 16 38 27 117
52 134 43 8 -5 113 -6 233 -2 338 9 386 9 429 2 69 -13 305 -11 430 3 105 12
127 12 178 -1 58 -16 58 -16 78 9 13 16 18 34 15 52 -3 15 -1 40 4 55 5 15 11
53 13 84 4 52 44 139 65 139 5 0 21 13 38 28 16 15 43 37 59 49 l30 20 45 -32
c66 -46 71 -62 68 -199 -2 -106 0 -120 17 -132 10 -8 29 -14 42 -14 12 0 40
-9 62 -20 26 -14 48 -19 67 -15 51 11 215 26 349 30 72 3 177 7 234 10 104 5
202 -5 261 -28 8 -3 30 -8 48 -11 35 -6 74 -36 157 -123 27 -29 64 -63 81 -75
91 -66 314 -267 314 -282 0 -6 -7 -3 -14 7 -10 13 -15 15 -18 5 -6 -16 44 -64
75 -74 12 -3 30 -14 40 -23 39 -34 70 -40 100 -19 35 25 34 52 -3 90 -17 16
-35 38 -40 49 -6 10 -17 19 -25 19 -8 0 -36 22 -62 48 -26 26 -61 56 -77 66
-17 11 -41 32 -54 47 -13 16 -28 29 -33 29 -5 0 -24 17 -42 37 -18 20 -55 51
-82 69 -28 17 -68 52 -90 78 -22 25 -45 46 -51 46 -6 0 -27 18 -47 39 -20 22
-57 47 -84 57 -26 10 -56 25 -65 35 -15 15 -42 16 -280 13 -145 -2 -285 -7
-313 -10 -27 -3 -90 -7 -138 -9 l-88 -5 2 93 c1 81 -2 101 -24 149 -33 71
-108 138 -174 155 -87 23 -138 17 -211 -24 -37 -20 -74 -45 -83 -55 -9 -10
-20 -18 -25 -18 -21 0 -98 -110 -120 -172 -7 -20 -10 -46 -7 -57 3 -12 0 -41
-7 -65 l-12 -43 -45 5 c-25 3 -97 -1 -159 -8 -126 -14 -277 -16 -399 -7 -109
9 -154 9 -418 1 l-227 -6 5 58 c4 33 11 89 16 126 5 37 9 106 9 155 0 48 5
117 10 153 5 35 12 116 15 180 4 63 10 176 14 250 4 74 6 162 5 195 -4 96 -16
1226 -14 1270 3 52 3 116 -1 353 l-4 193 75 31 c62 25 89 31 155 31 44 0 91
-1 105 -2 14 -2 77 -1 141 2 117 5 173 -1 264 -27 49 -14 267 -27 540 -31 360
-6 608 -17 680 -30 97 -17 217 -24 560 -31 143 -3 263 -8 267 -12 4 -4 2 -56
-3 -116 -5 -60 -11 -254 -14 -431 -2 -177 -5 -326 -6 -331 -1 -5 -1 -11 0 -14
7 -17 19 -291 25 -550 2 -87 -17 -394 -29 -450 -5 -24 -8 -67 -20 -305 -5 -95
-13 -180 -29 -310 -2 -16 -11 -78 -20 -138 -17 -113 -13 -140 22 -149 40 -11
53 15 63 124 5 57 11 121 14 143 4 22 8 54 11 70 9 63 20 212 29 425 3 58 10
137 15 175 5 39 10 79 9 90 0 11 4 61 9 110 9 88 8 285 -3 495 -7 152 -7 375
-1 705 8 348 15 475 27 475 5 0 19 12 32 26 27 31 72 55 158 84 35 12 81 32
101 46 21 13 44 24 51 24 7 0 17 4 22 8 6 5 43 21 83 37 40 15 77 34 82 40 14
17 1 73 -19 80 -9 3 -34 -4 -56 -15 -22 -11 -45 -20 -52 -20 -7 0 -13 -4 -13
-8 0 -5 -17 -14 -39 -20 -21 -7 -53 -22 -72 -35 -49 -33 -104 -57 -129 -57
-23 0 -127 -57 -173 -96 -20 -17 -33 -21 -50 -16 -12 5 -35 7 -52 6 -191 -11
-670 3 -780 23 -61 11 -152 17 -285 18 -108 0 -202 5 -210 10 -8 5 -123 10
-255 12 -132 1 -273 3 -312 4 -40 0 -114 12 -165 25 -81 21 -115 24 -263 24
-93 0 -204 1 -245 1 -41 1 -91 -3 -110 -9 -47 -15 -148 -41 -184 -47 -16 -3
-33 -8 -37 -11 -4 -2 -36 5 -71 17 -35 12 -67 22 -73 24 -5 1 -17 5 -25 8 -8
3 -31 8 -50 11 -118 19 -172 26 -230 30 -104 8 -184 24 -271 56 -48 18 -109
32 -152 35 -74 6 -162 27 -207 50 -69 35 -321 126 -412 148 -25 7 -50 15 -54
20 -12 12 -30 8 -47 -11z m338 -921 c33 -6 69 -16 80 -21 28 -12 74 -22 120
-25 22 -1 60 -8 85 -15 25 -8 58 -15 74 -16 16 -1 61 -18 100 -38 39 -19 83
-38 98 -41 15 -3 33 -11 41 -19 8 -8 29 -21 48 -29 19 -8 40 -21 47 -29 11
-13 3 -18 -57 -38 -64 -20 -71 -21 -99 -6 -17 9 -39 16 -49 16 -10 0 -34 10
-53 22 -19 11 -57 27 -84 34 -26 7 -56 20 -65 28 -10 9 -44 25 -76 36 -32 11
-63 24 -70 30 -7 6 -46 12 -86 15 -47 2 -89 11 -116 24 -23 12 -53 21 -67 21
-29 0 -76 19 -76 32 0 4 7 8 15 8 8 0 15 7 15 16 0 13 10 15 58 11 31 -2 84
-9 117 -16z m-95 -124 c52 -14 120 -28 150 -31 31 -3 92 -21 140 -41 47 -20
116 -50 154 -66 38 -16 74 -33 80 -38 6 -5 30 -14 54 -21 44 -11 63 -33 44
-52 -7 -7 -6 -17 2 -33 14 -26 14 -550 0 -770 -11 -178 -6 -1312 6 -1350 6
-17 9 -48 8 -70 0 -22 0 -92 1 -155 l3 -115 -31 -25 c-16 -14 -56 -38 -88 -54
-32 -16 -68 -39 -80 -49 -13 -11 -23 -18 -23 -15 0 3 -29 -13 -64 -35 -172
-111 -252 -161 -280 -174 -17 -7 -69 -42 -116 -77 -47 -35 -87 -62 -89 -60 -7
7 -15 335 -11 459 6 180 5 393 -3 765 -5 184 -7 360 -6 390 4 89 4 737 0 970
-3 217 5 587 15 648 4 25 9 32 22 28 9 -2 60 -16 112 -29z m830 -207 c-12 -23
-4 -592 10 -670 5 -30 7 -66 4 -80 -10 -43 -9 -439 1 -600 6 -85 7 -181 3
-215 -4 -33 -10 -199 -13 -370 -9 -468 -10 -482 -25 -499 -17 -21 -101 -78
-106 -73 -3 2 -9 53 -14 113 -6 60 -14 152 -19 204 -16 173 -18 1142 -3 1410
4 74 8 273 7 442 0 336 -4 310 54 323 8 2 17 8 20 12 7 11 73 31 84 26 4 -2 3
-13 -3 -23z m2326 -1860 c23 0 37 -80 35 -199 -1 -35 -4 -41 -14 -32 -8 6 -17
8 -20 4 -7 -7 -8 1 -12 119 -2 54 -9 90 -23 120 l-21 43 22 -27 c13 -16 27
-28 33 -28z"/>
</g>
</svg>
