<?xml version="1.0" standalone="no"?>
<!DOCTYPE svg PUBLIC "-//W3C//DTD SVG 20010904//EN"
 "http://www.w3.org/TR/2001/REC-SVG-20010904/DTD/svg10.dtd">
<svg version="1.0" xmlns="http://www.w3.org/2000/svg"
 width="495.000000pt" height="415.000000pt" viewBox="0 0 495.000000 415.000000"
 preserveAspectRatio="xMidYMid meet">
<metadata>
Created by potrace 1.16, written by Peter Selinger 2001-2019
</metadata>
<g transform="translate(0.000000,415.000000) scale(0.100000,-0.100000)"
fill="#000000" stroke="none">
<path d="M1482 2880 c-7 -11 -20 -20 -30 -20 -10 0 -27 -7 -38 -15 -10 -8 -27
-15 -36 -15 -35 0 -34 -40 4 -138 20 -52 20 -53 2 -68 -11 -8 -56 -32 -100
-53 -45 -21 -84 -43 -87 -48 -18 -30 72 -136 91 -107 8 12 84 62 92 60 3 0 19
9 37 22 17 12 33 22 36 22 3 0 8 -18 12 -41 4 -22 22 -70 41 -106 37 -74 37
-76 -24 -144 -28 -32 -38 -48 -82 -133 -16 -33 -28 -62 -25 -64 3 -3 1 -10 -5
-17 -11 -13 -41 -135 -35 -144 2 -4 6 -47 10 -96 4 -50 10 -94 14 -100 4 -5
13 -29 21 -52 7 -24 16 -43 21 -43 4 0 9 -10 13 -23 3 -13 16 -35 28 -49 13
-14 37 -40 53 -59 84 -95 218 -176 320 -194 22 -4 45 -11 50 -15 6 -4 36 -7
68 -6 31 2 57 1 57 0 0 -2 -17 -10 -37 -19 -21 -9 -56 -25 -78 -35 -89 -41
-160 -73 -287 -129 -73 -33 -164 -76 -203 -96 -38 -20 -86 -42 -105 -50 -44
-16 -256 -112 -379 -172 -52 -25 -99 -46 -105 -47 -6 -1 -31 -11 -56 -23 -62
-30 -104 -47 -112 -45 -5 1 -8 -2 -8 -8 0 -5 -6 -10 -12 -10 -7 0 -67 -25
-133 -56 -162 -75 -190 -85 -204 -71 -8 8 -11 8 -11 -1 0 -7 -7 -12 -15 -12
-8 0 -19 -9 -25 -20 -6 -12 -21 -20 -35 -20 -15 0 -25 -6 -25 -14 0 -8 -6 -16
-13 -19 -17 -7 -19 -57 -3 -79 10 -14 41 -24 56 -18 3 1 95 3 205 6 110 2 243
6 295 9 52 3 217 8 365 10 149 3 342 7 430 10 88 3 167 5 175 5 8 0 249 0 535
0 286 -1 705 1 930 4 226 3 610 8 855 11 245 3 477 7 517 10 43 3 74 1 78 -5
20 -33 94 18 89 62 -1 15 0 27 4 26 4 -1 17 3 30 10 24 14 28 38 10 77 -11 25
-11 25 -117 21 -58 -3 -223 -8 -366 -11 -143 -3 -343 -8 -445 -10 -102 -3
-351 -7 -555 -10 -203 -3 -410 -8 -460 -10 -49 -2 -353 -6 -675 -9 -322 -4
-664 -8 -760 -11 -271 -8 -529 -9 -535 -3 -7 7 32 33 65 43 14 4 84 36 155 71
72 35 133 64 137 64 3 0 60 25 125 56 65 31 145 69 179 85 33 16 67 29 74 29
7 0 21 6 29 13 9 7 41 23 71 36 30 13 69 29 85 37 17 7 62 27 100 43 152 63
241 102 260 113 39 23 110 55 138 62 15 3 27 11 27 16 0 6 7 10 16 10 21 0
114 43 114 52 0 5 9 8 20 8 11 0 52 18 91 40 39 22 75 40 80 40 5 0 32 11 59
25 27 14 54 25 61 25 6 0 52 20 102 44 51 24 110 49 132 57 22 7 48 21 58 31
10 10 24 18 33 18 8 0 22 4 32 9 9 5 35 17 57 27 22 11 42 21 45 24 3 3 31 14
63 24 31 11 57 23 57 27 0 6 34 18 53 18 4 0 15 7 23 16 8 8 27 18 42 21 15 4
64 26 110 50 45 24 91 45 102 47 11 2 23 6 26 10 4 4 18 7 30 7 13 0 26 5 30
11 3 6 25 19 48 30 22 10 48 23 56 28 13 9 88 44 175 82 23 10 100 37 130 46
11 4 22 9 25 12 6 8 61 34 128 62 28 12 52 25 52 30 0 5 8 9 18 9 10 0 42 11
70 25 29 14 58 25 66 25 8 0 17 4 21 9 11 19 99 61 139 67 69 11 100 65 63
112 -6 8 -6 12 3 12 6 0 10 6 7 13 -2 6 0 20 5 30 7 13 2 24 -17 43 -21 21
-31 24 -58 19 -18 -4 -37 -12 -44 -17 -12 -10 -310 -158 -317 -158 -5 0 -235
-107 -258 -120 -10 -6 -23 -10 -29 -10 -11 0 -152 -66 -284 -133 -16 -9 -55
-25 -85 -37 -30 -12 -98 -42 -150 -67 -286 -137 -366 -173 -381 -173 -6 0 5
18 24 41 38 44 51 84 34 109 -16 27 -1 49 50 72 27 12 54 29 61 40 7 10 17 16
22 13 5 -3 8 9 7 27 -1 22 -13 44 -35 66 -33 33 -34 33 -60 16 -15 -9 -32 -23
-39 -31 -17 -22 -66 -32 -78 -16 -6 7 -24 16 -40 18 -30 5 -85 58 -85 81 0 6
-9 23 -21 38 -11 14 -17 26 -14 26 4 0 2 7 -5 15 -6 8 -9 18 -6 23 2 4 -4 21
-15 38 -10 16 -19 37 -19 47 0 12 -8 17 -30 17 -17 0 -39 6 -50 12 -16 10 -24
10 -38 0 -9 -7 -28 -18 -42 -24 -14 -7 -28 -16 -31 -21 -3 -5 -9 -9 -12 -8 -4
0 -22 -6 -41 -14 -20 -8 -38 -15 -41 -15 -4 0 -30 -11 -58 -24 -90 -41 -87
-41 -167 19 -90 68 -201 107 -300 108 -75 0 -111 -4 -125 -13 -12 -9 -134 -12
-157 -4 -10 3 -25 22 -35 42 -9 20 -20 39 -24 42 -9 7 -59 107 -59 119 0 5 -5
22 -12 38 -6 15 -12 33 -13 38 -2 6 -14 40 -29 76 -14 36 -26 75 -26 87 0 11
-4 32 -10 46 -12 32 -50 35 -68 6z m642 -573 c12 -8 37 -17 57 -21 112 -21
291 -208 203 -212 -21 -1 -91 -24 -149 -49 -16 -7 -50 -19 -75 -25 -25 -7 -50
-16 -56 -21 -6 -5 -32 -16 -58 -24 -25 -8 -67 -21 -92 -29 l-46 -15 7 62 c4
34 9 71 11 82 2 11 7 45 10 75 6 61 23 130 36 145 4 5 8 18 8 30 0 18 5 20 62
18 33 -2 71 -9 82 -16z m-396 -9 c15 -15 54 -21 61 -9 5 8 61 15 99 12 13 -1
17 -53 5 -65 -4 -3 -8 -14 -9 -24 -3 -18 -25 -209 -26 -229 -2 -26 -33 -11
-84 40 -30 30 -56 51 -59 48 -3 -3 -8 5 -12 17 -3 12 -9 22 -14 22 -5 0 -31
22 -59 50 -27 27 -50 47 -50 43 0 -3 -3 -4 -6 -1 -3 4 3 15 12 27 13 15 21 18
31 9 10 -8 13 -6 13 9 0 12 15 28 38 41 44 25 44 26 60 10z m1057 -175 c17
-38 22 -60 15 -67 -5 -5 -10 -7 -10 -3 0 21 -60 -28 -78 -63 -18 -37 -19 -49
-10 -113 10 -75 25 -103 80 -153 57 -52 80 -63 116 -58 17 3 32 3 32 0 0 -4
-104 -56 -114 -56 -6 0 -293 -135 -320 -151 -10 -6 -54 -26 -97 -44 -74 -31
-96 -31 -66 0 25 27 43 51 73 100 106 175 130 303 97 518 -4 30 -2 37 11 37 9
0 16 4 16 10 0 5 16 12 35 16 19 3 35 10 35 14 0 4 24 15 53 24 28 9 63 23 77
31 14 8 26 14 28 15 1 0 14 -26 27 -57z m-1233 9 c7 -11 23 -24 35 -31 13 -6
63 -51 113 -99 49 -48 97 -92 107 -98 30 -19 24 -30 -29 -54 -29 -12 -78 -35
-109 -50 -30 -15 -80 -33 -110 -40 -30 -7 -73 -21 -96 -31 l-43 -18 -7 27
c-15 61 -7 187 16 248 33 84 51 120 73 144 23 25 33 25 50 2z m1463 -134 c1
-2 10 -25 19 -52 26 -79 22 -98 -30 -144 -41 -38 -50 -42 -98 -42 -55 0 -72
11 -109 70 -23 36 -31 121 -13 145 14 19 62 33 51 15 -8 -13 1 -13 27 1 11 6
34 12 50 15 17 2 33 5 35 8 4 4 63 -10 68 -16z m-570 -58 c4 -27 4 -57 1 -67
-3 -10 -8 -38 -11 -63 -7 -50 -26 -122 -35 -130 -3 -3 -16 -27 -30 -55 -14
-27 -33 -58 -42 -68 -16 -19 -17 -19 -42 9 -14 16 -26 32 -26 36 0 3 -30 29
-67 56 -38 28 -79 62 -92 76 -14 14 -30 26 -36 26 -7 0 -31 17 -54 37 l-42 36
51 24 c28 13 55 21 61 18 5 -4 9 -1 9 4 0 6 10 11 23 11 13 0 28 5 34 11 6 6
17 11 24 13 8 1 41 12 74 25 64 24 141 46 173 48 17 1 21 -7 27 -47z m-491
-185 c29 -30 59 -55 65 -55 6 0 11 -4 11 -9 0 -5 9 -12 19 -16 11 -3 33 -18
49 -33 16 -15 46 -39 66 -52 20 -14 50 -46 67 -72 l30 -48 -33 -30 c-18 -17
-49 -38 -68 -47 -19 -9 -42 -22 -50 -28 -33 -26 -125 -40 -244 -36 -42 1 -47
3 -41 19 9 22 14 48 20 92 2 19 10 78 18 130 8 52 15 104 15 115 1 11 3 31 5
45 3 14 5 37 6 53 0 15 3 27 6 27 2 0 29 -25 59 -55z m-129 -22 c-7 -76 -17
-139 -27 -178 -6 -22 -12 -51 -13 -65 -1 -14 -11 -48 -21 -76 l-18 -50 -59 30
c-59 30 -178 146 -200 194 -6 12 -14 22 -19 22 -4 0 -8 6 -8 14 0 18 39 43 76
49 57 10 140 39 208 73 37 18 72 32 76 29 4 -3 6 -22 5 -42z"/>
<path d="M2862 1898 c-31 -31 6 -96 47 -83 24 7 31 33 17 60 -19 36 -43 44
-64 23z"/>
</g>
</svg>
