<?xml version="1.0" standalone="no"?>
<!DOCTYPE svg PUBLIC "-//W3C//DTD SVG 20010904//EN"
 "http://www.w3.org/TR/2001/REC-SVG-20010904/DTD/svg10.dtd">
<svg version="1.0" xmlns="http://www.w3.org/2000/svg"
 width="437.000000pt" height="345.000000pt" viewBox="0 0 437.000000 345.000000"
 preserveAspectRatio="xMidYMid meet">
<metadata>
Created by potrace 1.16, written by Peter Selinger 2001-2019
</metadata>
<g transform="translate(0.000000,345.000000) scale(0.100000,-0.100000)"
fill="#000000" stroke="none">
<path d="M2100 3249 c-19 -3 -48 -12 -65 -19 -16 -7 -37 -14 -45 -16 -62 -11
-100 -17 -130 -19 -128 -11 -267 -61 -367 -132 -17 -13 -35 -23 -40 -23 -15
-1 -120 -105 -136 -135 -8 -17 -24 -39 -36 -49 -12 -11 -21 -26 -21 -34 0 -7
-7 -30 -16 -50 -9 -21 -20 -46 -25 -57 -4 -11 -16 -47 -25 -80 -9 -33 -20 -64
-24 -70 -4 -5 -11 -27 -14 -49 -7 -39 -35 -107 -48 -116 -8 -6 -38 -85 -37
-98 1 -4 -18 -13 -41 -21 -28 -9 -65 -37 -116 -88 -41 -41 -74 -80 -74 -86 0
-17 -82 -137 -124 -182 -20 -21 -36 -44 -36 -51 0 -7 -4 -14 -9 -16 -4 -1 -41
-41 -81 -88 -40 -47 -77 -86 -81 -88 -5 -2 -9 -10 -9 -17 0 -8 -6 -20 -13 -27
-26 -28 -67 -87 -67 -97 0 -6 -4 -11 -10 -11 -5 0 -10 -11 -10 -23 0 -13 -9
-32 -20 -42 -11 -10 -19 -26 -18 -34 1 -9 -2 -23 -7 -31 -5 -8 -11 -65 -13
-127 l-4 -112 37 -78 c38 -79 91 -139 133 -149 19 -5 22 -13 23 -58 1 -28 3
-80 6 -116 2 -36 4 -69 4 -75 0 -5 -1 -69 -2 -142 -2 -114 0 -136 17 -160 10
-15 17 -31 16 -35 -1 -5 4 -8 12 -8 7 0 19 -7 26 -15 14 -17 125 -21 135 -5 3
6 35 10 70 10 l64 0 0 -32 c0 -78 29 -128 89 -153 86 -36 101 -32 219 64 24
19 40 37 38 41 -3 5 2 11 11 14 12 5 15 14 11 35 l-6 28 77 6 c171 14 351 18
427 10 48 -5 124 -4 190 2 127 12 312 13 470 1 79 -5 140 -4 218 7 59 8 118
12 131 10 22 -5 23 -7 14 -41 -7 -26 -7 -37 1 -40 6 -2 11 -8 11 -13 0 -9 15
-29 60 -81 19 -22 39 -31 88 -39 60 -11 64 -10 105 17 57 37 123 106 134 141
9 26 13 28 67 29 38 0 61 6 67 15 8 12 10 12 18 0 9 -14 51 -7 51 10 0 5 10 9
21 9 26 0 48 27 49 58 0 13 14 49 32 80 17 32 37 69 45 84 8 15 18 30 24 33
10 7 49 88 49 104 0 6 3 11 8 11 10 0 42 58 42 76 0 8 4 14 8 14 4 0 25 37 46
82 21 46 53 115 71 153 18 39 44 106 58 150 30 96 28 143 -11 271 -22 71 -26
97 -20 129 5 22 13 63 19 90 6 28 11 57 11 65 0 8 5 20 10 27 5 7 7 17 4 22
-10 15 20 179 49 266 14 44 28 91 31 105 2 14 8 45 14 70 18 91 22 149 22 320
0 160 -2 179 -22 225 -23 51 -58 99 -117 162 -18 19 -33 38 -33 42 0 7 -50 40
-60 39 -3 -1 -27 13 -54 31 -29 18 -63 31 -81 31 -33 0 -133 26 -150 40 -23
17 -112 40 -159 40 -28 1 -71 5 -96 10 -83 18 -157 22 -323 19 -55 -1 -102 2
-108 8 -7 7 -26 7 -57 1 -51 -10 -213 -3 -275 11 -20 5 -55 8 -77 7 -22 0 -40
2 -40 5 0 8 -87 5 -95 -3 -3 -3 -20 -3 -38 1 -18 4 -48 4 -67 0z m89 -211 c-7
-13 -25 -39 -41 -59 -34 -42 -128 -226 -128 -250 0 -9 -10 -41 -23 -70 -13
-30 -31 -81 -41 -114 -10 -33 -28 -91 -41 -130 -13 -38 -26 -95 -29 -125 -3
-31 -10 -78 -15 -105 -5 -28 -6 -51 -3 -53 4 -1 6 -27 5 -58 0 -31 3 -69 7
-85 7 -25 6 -30 -13 -34 -137 -29 -190 -36 -200 -26 -6 6 -8 11 -5 11 4 0 -2
30 -12 67 -10 37 -17 70 -14 74 2 4 -3 12 -11 19 -8 7 -15 17 -15 23 0 14 -58
69 -97 92 -18 11 -33 25 -33 32 0 7 -12 20 -27 30 -16 10 -34 24 -42 31 -10
10 -27 12 -52 8 -21 -3 -50 -1 -65 4 -25 10 -26 14 -22 59 3 27 17 74 31 104
15 30 27 57 27 61 0 4 11 32 25 62 14 30 25 61 25 69 0 8 4 15 10 15 5 0 13
12 16 28 4 15 15 41 25 58 9 17 23 42 31 55 43 78 146 169 191 169 13 0 59 19
100 41 20 11 153 21 314 23 61 0 115 5 119 9 14 14 16 -11 3 -35z m506 27
c104 -2 255 -28 255 -44 0 -3 -9 -13 -20 -21 -27 -19 -48 -56 -89 -155 -18
-44 -37 -88 -42 -97 -5 -10 -9 -24 -9 -32 0 -8 -13 -55 -30 -106 -16 -50 -29
-94 -28 -98 2 -11 -13 -103 -27 -162 -7 -30 -16 -113 -19 -185 -4 -71 -8 -139
-10 -150 -3 -11 -5 -27 -5 -36 -1 -23 -35 -30 -95 -18 -49 9 -79 10 -276 8
-189 -3 -340 4 -341 15 0 6 -3 20 -6 31 -13 53 -13 188 1 270 13 80 63 266 85
320 23 55 34 84 48 124 8 25 26 62 39 83 13 20 24 42 24 48 0 19 45 80 62 86
10 3 17 8 16 12 -6 33 54 92 95 92 18 1 61 7 97 15 36 8 87 11 115 8 28 -3
100 -7 160 -8z m604 -36 c36 -6 71 -15 76 -19 10 -7 86 -31 229 -71 60 -18 87
-31 114 -58 49 -51 81 -94 85 -117 2 -10 11 -37 21 -59 21 -49 14 -138 -21
-275 -14 -52 -29 -113 -34 -134 -5 -21 -19 -52 -30 -67 -11 -16 -18 -33 -15
-38 6 -10 -86 -2 -94 9 -3 3 -32 12 -65 19 -33 7 -69 16 -80 21 -25 9 -130
-10 -171 -32 -45 -24 -90 -75 -115 -127 -12 -25 -25 -48 -29 -51 -4 -3 -19
-27 -34 -55 -14 -27 -26 -45 -26 -39 0 8 -14 9 -45 3 -25 -5 -55 -5 -68 0 -28
11 -183 18 -192 9 -16 -16 -43 6 -49 40 -8 57 1 344 12 372 6 14 16 65 22 115
6 49 15 94 20 100 7 9 23 64 34 120 1 6 14 36 29 69 15 32 27 63 27 68 0 18
41 89 55 94 8 3 17 15 20 25 4 11 28 35 53 54 44 32 52 35 126 35 44 0 109 -5
145 -11z m-1980 -830 c17 -6 31 -15 31 -20 0 -4 6 -6 13 -3 7 2 22 -4 32 -16
10 -11 24 -20 31 -20 8 0 27 -24 44 -52 34 -60 38 -106 15 -181 -24 -81 -29
-84 -54 -41 -12 22 -27 46 -31 54 -5 8 -22 36 -36 63 -24 42 -81 97 -101 98
-5 0 -24 9 -43 19 -54 29 -101 38 -156 30 -27 -4 -51 -6 -52 -5 -6 6 56 35 73
35 8 0 15 7 15 15 0 8 1 15 3 16 1 0 22 3 47 6 25 3 47 7 49 9 9 8 89 4 120
-7z m2213 -93 c41 -5 88 -32 88 -51 0 -7 9 -15 19 -18 22 -5 61 -75 61 -109 0
-22 -1 -22 -19 6 -10 15 -28 33 -38 40 -11 6 -39 25 -62 43 -23 17 -61 35 -84
38 -23 4 -59 14 -79 21 -22 7 -38 9 -38 4 0 -6 -7 -10 -15 -10 -8 0 -15 3 -15
6 0 9 24 30 39 35 15 5 85 3 143 -5z m-213 -39 c9 3 3 -4 -14 -16 -37 -26 -57
-27 -48 -3 9 23 26 33 37 22 4 -4 16 -6 25 -3z m-2118 -50 c52 -23 99 -69 99
-96 0 -6 5 -11 10 -11 6 0 10 -7 10 -15 0 -8 5 -15 10 -15 6 0 10 -6 10 -13 0
-7 11 -29 24 -48 46 -67 44 -77 -28 -185 -36 -53 -65 -89 -64 -78 0 27 -29
129 -48 165 -46 89 -218 194 -330 201 -39 3 -41 5 -32 23 6 11 14 22 17 25 4
3 14 16 23 30 8 14 24 26 34 27 40 2 139 15 142 18 10 9 73 -6 123 -28z m2221
-27 c13 -5 41 -14 63 -19 71 -18 165 -121 190 -208 6 -22 -13 -103 -25 -103
-3 0 -26 24 -50 54 -75 90 -213 168 -268 152 -9 -3 -43 -8 -75 -10 -31 -3 -71
-13 -88 -22 -17 -8 -33 -13 -36 -11 -2 3 12 35 33 71 21 36 42 62 47 57 12
-12 80 3 118 27 39 23 58 26 91 12z m-1130 -101 c87 0 163 3 168 6 6 4 36 1
68 -6 31 -6 83 -11 115 -10 36 2 57 -2 57 -9 0 -10 -100 -135 -125 -155 -6 -5
-24 -29 -39 -53 -15 -24 -33 -45 -41 -49 -8 -3 -15 -10 -15 -15 0 -6 -18 -47
-39 -92 -39 -81 -81 -197 -81 -223 0 -8 -6 -24 -14 -36 -8 -12 -16 -42 -18
-66 l-4 -45 -54 -14 c-42 -10 -64 -11 -91 -3 -19 6 -70 13 -111 16 -42 2 -89
10 -105 16 -15 6 -91 12 -168 15 -177 4 -181 5 -177 35 7 48 10 65 23 94 6 17
14 38 16 49 2 10 12 30 22 45 10 14 26 47 34 72 17 49 61 134 83 160 8 8 14
23 14 32 0 8 8 23 18 33 9 10 15 20 13 22 -5 6 48 62 58 62 4 0 13 12 19 26 7
14 16 23 21 20 5 -4 12 12 16 33 l7 40 56 4 c31 2 71 2 87 0 17 -1 101 -3 187
-4z m-420 -36 c-11 -16 -29 -37 -41 -47 -23 -21 -81 -117 -81 -134 0 -6 -13
-31 -30 -55 -16 -25 -30 -50 -30 -55 0 -9 -10 -31 -41 -92 -76 -149 -111 -245
-102 -281 6 -21 4 -21 -88 -14 -126 11 -111 12 -294 -30 -33 -8 -78 -15 -100
-17 -22 -1 -46 -8 -54 -16 -28 -27 -22 -2 8 35 17 21 31 42 31 47 0 12 108
116 120 116 4 0 31 33 61 73 29 39 68 90 86 111 18 22 33 45 33 52 0 7 4 14 9
16 5 2 32 39 60 83 28 44 55 85 60 91 16 19 51 97 51 113 1 11 9 6 25 -14 14
-16 25 -25 25 -18 0 7 17 15 38 18 20 3 69 12 107 20 39 8 86 16 105 18 19 2
41 5 48 5 9 1 7 -7 -6 -25z m1098 11 c30 -4 63 -6 73 -6 25 1 22 -35 -12 -104
-15 -32 -31 -70 -35 -84 -4 -14 -16 -43 -26 -65 -10 -22 -26 -59 -36 -82 -9
-24 -21 -43 -27 -43 -5 0 -7 -7 -4 -15 4 -8 3 -17 -2 -19 -4 -3 -22 -34 -39
-68 -28 -57 -31 -74 -34 -175 -2 -62 -3 -113 -4 -113 0 0 -15 7 -33 16 -20 10
-67 17 -136 19 -57 2 -108 6 -113 9 -5 3 -31 -1 -58 -7 -80 -21 -89 -18 -89
27 0 22 7 62 17 90 10 28 18 58 18 69 0 41 143 310 190 357 3 3 32 37 65 75
33 39 62 72 66 75 3 3 11 15 17 27 7 12 24 24 39 26 27 4 50 3 163 -9z m-1982
-54 c54 -21 87 -42 127 -81 30 -29 55 -59 55 -66 0 -7 4 -13 8 -13 5 0 9 -12
10 -27 1 -49 13 -97 26 -113 11 -13 8 -23 -20 -66 -18 -28 -55 -67 -81 -86
l-48 -35 6 61 c7 69 4 117 -9 125 -4 3 -16 27 -25 53 -13 33 -25 48 -43 52
-13 4 -36 19 -50 35 -18 20 -39 31 -70 36 -24 3 -44 12 -44 18 0 9 -2 9 -8 0
-4 -7 -38 -17 -74 -23 -37 -5 -75 -13 -84 -17 -32 -12 -16 11 100 143 l39 45
56 -7 c31 -3 89 -19 129 -34z m2442 -48 c37 -23 130 -120 140 -148 7 -17 17
-24 35 -24 l26 0 -43 -82 c-24 -46 -46 -85 -49 -88 -3 -3 -9 -14 -14 -25 -7
-18 -9 -17 -17 11 -6 17 -24 44 -40 60 -16 16 -48 47 -69 69 -22 22 -45 39
-50 37 -6 -1 -17 3 -25 9 -9 8 -14 8 -14 1 0 -7 -10 -5 -27 4 -16 7 -40 14
-54 14 -35 0 -143 -22 -149 -30 -3 -4 -15 -12 -27 -18 -28 -15 -34 2 -16 45 7
18 13 42 13 53 0 15 8 22 29 26 16 4 31 14 34 24 18 69 235 111 317 62z
m-2504 -190 c70 -58 79 -78 78 -174 -2 -79 -18 -148 -36 -148 -4 0 -5 -6 -2
-13 5 -14 -52 -113 -87 -149 -13 -14 -42 -38 -63 -54 -35 -26 -48 -29 -110
-29 -109 0 -183 41 -227 125 -20 37 -23 59 -22 135 0 83 4 99 35 166 37 79 48
92 88 104 14 4 42 19 63 32 51 32 107 43 186 37 50 -4 71 -11 97 -32z m2094
-37 c0 -8 -4 -15 -10 -15 -5 0 -7 7 -4 15 4 8 8 15 10 15 2 0 4 -7 4 -15z
m220 -29 c0 -22 15 -27 43 -17 28 11 39 5 103 -55 65 -61 68 -72 54 -182 -15
-113 -41 -165 -111 -224 -82 -69 -180 -93 -274 -67 -22 6 -41 10 -42 8 -4 -8
-83 76 -83 87 0 7 -7 20 -16 28 -18 18 -22 94 -9 166 12 69 116 209 175 237
66 32 160 43 160 19z m430 -41 c0 -43 -1 -38 11 -77 13 -45 13 -141 0 -164
-32 -58 -161 -369 -161 -389 0 -16 -58 -127 -101 -193 -43 -67 -48 -72 -58
-54 -6 11 -12 29 -14 39 -4 18 -7 28 -30 88 -7 17 -12 38 -13 48 -1 9 -2 24
-3 32 0 8 -7 15 -15 15 -10 0 -13 9 -11 30 6 45 18 61 89 115 44 33 68 59 72
78 4 15 10 27 13 27 11 0 39 64 47 106 4 22 28 80 54 130 55 104 60 115 85
167 23 46 35 47 35 2z m-2135 -375 c-3 -9 -8 -43 -10 -76 -3 -32 -8 -66 -10
-74 -12 -45 -15 -123 -4 -136 14 -17 20 -16 -121 -20 -335 -9 -418 -13 -563
-24 -88 -6 -161 -9 -164 -6 -3 2 -2 38 2 79 l7 75 50 6 c58 8 132 40 167 73
14 12 28 20 32 18 4 -3 10 6 13 20 7 27 26 34 26 10 0 -21 27 -19 67 6 18 12
40 19 47 16 7 -3 17 -2 22 3 5 5 25 11 44 14 51 8 81 15 115 25 17 5 87 8 158
8 114 0 127 -2 122 -17z m280 2 c72 -5 136 -11 142 -15 6 -4 49 -10 95 -12 46
-3 97 -11 115 -17 24 -9 41 -9 70 0 66 20 83 23 83 18 0 -3 11 -49 25 -103 36
-143 36 -143 -50 -143 -38 0 -76 4 -83 9 -7 4 -54 2 -105 -5 -119 -16 -211
-23 -374 -29 l-131 -4 -11 47 c-14 56 0 218 21 252 10 17 19 20 43 15 17 -3
89 -9 160 -13z m775 -39 c36 8 153 -16 185 -37 31 -20 52 -20 63 0 7 12 14 7
36 -28 53 -84 154 -131 274 -130 61 1 63 0 57 -21 -4 -12 -9 -30 -11 -39 -9
-32 -54 -34 -105 -6 -26 15 -51 23 -58 19 -14 -9 -110 6 -126 19 -5 4 -21 6
-35 4 -157 -25 -201 -28 -238 -14 -23 9 -66 13 -113 11 l-77 -2 -5 43 c-3 24
-10 66 -17 93 -6 28 -12 57 -13 65 -3 20 88 40 126 27 15 -5 41 -7 57 -4z
m-315 -308 c33 1 110 5 171 9 95 8 118 6 156 -8 40 -16 55 -16 124 -6 92 14
144 15 153 4 7 -10 31 -13 106 -15 34 -1 67 -11 105 -31 53 -28 72 -30 125
-13 26 8 40 -23 80 -172 8 -27 28 -25 -210 -29 -104 -2 -296 -6 -425 -8 -129
-3 -401 -8 -605 -11 -203 -4 -417 -9 -475 -11 -229 -10 -356 -13 -627 -15
-155 0 -286 2 -291 5 -11 6 -9 202 1 213 20 19 160 33 402 38 667 16 765 21
955 50 48 8 109 10 140 7 30 -4 82 -7 115 -7z m821 -411 c-27 -71 -122 -118
-181 -90 -30 14 -66 59 -60 75 3 8 0 18 -7 23 -7 4 47 8 121 8 118 0 132 -2
127 -16z m-1949 -2 c30 -3 20 -32 -23 -72 -40 -36 -80 -54 -89 -40 -4 6 -14
10 -24 10 -32 0 -55 26 -56 61 0 25 5 35 18 39 17 5 121 6 174 2z"/>
</g>
</svg>
