<?xml version="1.0" standalone="no"?>
<!DOCTYPE svg PUBLIC "-//W3C//DTD SVG 20010904//EN"
 "http://www.w3.org/TR/2001/REC-SVG-20010904/DTD/svg10.dtd">
<svg version="1.0" xmlns="http://www.w3.org/2000/svg"
 width="525.000000pt" height="447.000000pt" viewBox="0 0 525.000000 447.000000"
 preserveAspectRatio="xMidYMid meet">
<metadata>
Created by potrace 1.16, written by Peter Selinger 2001-2019
</metadata>
<g transform="translate(0.000000,447.000000) scale(0.100000,-0.100000)"
fill="#000000" stroke="none">
<path d="M2480 4243 c-8 -2 -51 -22 -95 -43 -44 -21 -100 -47 -125 -58 -25
-11 -85 -38 -135 -60 -49 -21 -121 -52 -160 -67 -38 -16 -108 -46 -155 -68
-47 -21 -101 -46 -120 -54 -19 -9 -51 -24 -70 -33 -19 -10 -60 -28 -90 -39
-58 -23 -62 -24 -152 -65 -31 -14 -63 -26 -72 -26 -22 0 -30 -52 -28 -199 1
-74 -2 -139 -7 -145 -14 -18 -15 -48 -3 -91 24 -80 11 -100 -70 -110 -15 -2
-42 -8 -60 -14 -81 -25 -169 -43 -188 -38 -13 3 -38 -3 -59 -14 -20 -10 -64
-24 -97 -30 -32 -6 -63 -15 -68 -20 -6 -5 -18 -9 -28 -9 -37 0 -37 -1 -24
-675 3 -137 5 -301 6 -364 2 -114 10 -141 41 -141 6 0 17 -7 23 -16 7 -9 32
-18 61 -20 69 -7 319 -42 380 -54 28 -5 75 -14 105 -20 l55 -10 0 -108 c0
-110 11 -467 22 -722 9 -193 9 -228 0 -345 -6 -90 -5 -104 13 -140 11 -21 20
-35 20 -31 0 5 6 4 13 -2 20 -17 56 -3 71 27 7 14 12 49 10 76 -8 148 -15 302
-20 395 -2 58 -7 146 -10 195 -13 247 -19 496 -14 592 3 47 5 52 24 48 52 -10
158 -26 236 -35 47 -6 110 -15 140 -20 30 -6 100 -17 155 -24 114 -16 274 -42
355 -57 70 -13 97 -17 195 -28 44 -5 92 -14 106 -19 14 -6 52 -13 85 -17 32
-4 91 -13 131 -21 39 -8 89 -16 110 -18 21 -2 45 -6 53 -10 66 -25 157 -36
171 -20 13 16 154 84 174 84 8 0 15 3 15 8 0 4 34 20 75 36 41 16 75 33 75 37
0 5 3 8 8 7 8 -3 51 13 140 54 35 15 66 28 70 28 4 0 32 13 62 29 30 15 87 39
125 52 39 13 72 27 73 31 2 5 12 8 22 8 28 0 42 33 29 67 -6 15 -12 89 -15
164 -2 74 -4 137 -5 140 -2 10 -8 135 -13 264 -3 77 -8 215 -11 306 -7 190
-13 181 86 151 l56 -16 7 -76 c7 -88 13 -230 22 -495 7 -236 11 -330 18 -470
4 -60 8 -200 11 -310 2 -110 7 -238 9 -285 3 -47 8 -186 12 -310 3 -124 7
-260 9 -302 1 -43 -1 -78 -6 -78 -15 0 -10 -50 6 -56 8 -4 15 -12 15 -19 0
-19 35 -28 58 -16 36 19 39 33 30 146 -4 61 -10 156 -13 212 -2 56 -6 132 -9
170 -3 37 -8 140 -11 228 -3 88 -7 192 -10 230 -3 39 -7 158 -10 265 -3 107
-7 229 -10 270 -2 41 -7 163 -10 270 -3 107 -8 215 -10 240 -6 59 -19 519 -19
640 0 148 5 157 137 236 62 37 130 81 152 99 22 17 81 56 130 85 50 30 99 61
110 70 11 9 50 34 88 55 37 22 67 43 67 47 0 4 11 8 25 8 14 0 25 4 25 10 0 5
11 12 25 16 14 3 25 10 25 15 0 5 7 9 15 9 11 0 15 12 15 49 0 56 -5 61 -52
63 -24 1 -42 -7 -62 -25 -16 -15 -33 -27 -39 -27 -5 0 -26 -12 -46 -27 -41
-32 -69 -50 -91 -60 -8 -4 -17 -9 -20 -13 -3 -3 -50 -34 -105 -69 -55 -35
-106 -72 -113 -82 -7 -11 -18 -19 -24 -19 -13 0 -155 -85 -190 -115 -15 -12
-48 -33 -75 -46 -26 -13 -57 -31 -67 -41 -13 -12 -24 -15 -36 -8 -10 5 -19 7
-22 5 -2 -2 -33 0 -68 5 -36 4 -99 11 -140 14 -41 4 -102 11 -135 16 -33 5
-97 11 -143 14 -46 3 -134 12 -195 20 -62 8 -157 20 -212 26 -55 7 -111 14
-125 16 -14 2 -68 9 -120 14 -52 6 -111 12 -130 15 -19 3 -62 8 -95 11 -33 3
-109 12 -170 20 -154 21 -358 45 -575 68 -25 3 -81 9 -125 15 -44 6 -116 13
-160 16 -90 8 -205 22 -210 27 -2 2 40 21 93 42 53 22 131 55 172 74 137 63
180 81 180 75 0 -3 10 1 23 9 12 8 49 25 82 38 33 13 99 43 146 67 48 24 90
43 95 43 4 0 26 9 48 19 60 29 146 61 146 56 0 -3 8 -1 18 4 27 14 29 86 3
100 -21 12 -36 13 -61 4z m-959 -627 c46 -8 116 -18 154 -21 39 -4 81 -9 95
-11 14 -2 88 -10 165 -19 264 -28 371 -40 450 -49 28 -4 70 -8 95 -11 149 -15
256 -28 340 -40 52 -8 160 -21 240 -30 80 -9 195 -22 255 -30 61 -8 151 -19
200 -24 80 -9 130 -17 130 -21 0 0 27 -3 60 -5 33 -2 74 -6 90 -8 17 -3 83
-10 148 -17 64 -8 117 -17 117 -22 0 -5 5 -6 10 -3 13 8 94 -4 86 -13 -3 -3
-1 -11 5 -18 11 -14 25 -253 13 -241 -4 4 -13 2 -19 -3 -18 -15 -116 8 -137
32 -10 11 -34 21 -57 23 -23 2 -46 7 -51 10 -6 4 -32 8 -58 10 -26 2 -96 9
-157 15 -219 22 -281 29 -340 34 -33 4 -71 8 -84 11 -13 2 -72 9 -130 15 -58
6 -142 16 -186 21 -44 6 -98 12 -120 14 -22 3 -58 7 -80 10 -22 3 -65 8 -95
10 -51 5 -102 11 -175 22 -16 3 -45 4 -64 4 -18 -1 -39 3 -45 8 -6 5 -22 9
-36 10 -120 4 -240 19 -240 30 0 3 -33 6 -72 6 -40 0 -125 8 -188 18 -63 10
-144 20 -180 22 -36 3 -81 7 -100 10 -19 3 -51 8 -70 11 -19 3 -53 7 -75 9
l-40 2 -5 74 c-3 41 -3 95 -2 122 4 46 5 47 37 47 18 0 70 -6 116 -14z m-11
-346 c34 -1 34 -2 -15 -15 -60 -17 -118 -20 -95 -5 10 6 11 10 3 10 -7 0 -13
4 -13 9 0 5 19 8 43 6 23 -1 58 -4 77 -5z m370 -45 c47 -7 205 -26 250 -30 43
-4 258 -30 330 -40 19 -2 64 -7 100 -10 36 -3 97 -10 135 -16 39 -6 93 -12
120 -15 28 -2 93 -9 145 -15 52 -5 118 -12 145 -15 28 -2 62 -7 76 -10 15 -3
53 -7 85 -9 61 -5 128 -12 179 -20 17 -2 75 -9 130 -14 216 -22 255 -29 255
-41 0 -4 -17 -15 -37 -24 -21 -9 -51 -23 -66 -31 -16 -8 -35 -15 -43 -15 -13
0 -60 -26 -74 -40 -3 -3 -16 -6 -29 -8 -28 -3 -111 -42 -111 -52 0 -4 -19 -13
-42 -20 -24 -7 -54 -19 -68 -26 -40 -21 -101 -44 -116 -44 -8 0 -14 6 -14 14
0 25 -25 35 -96 41 -38 3 -82 9 -99 14 -16 5 -52 12 -80 16 -27 3 -86 12 -130
20 -113 19 -222 37 -259 41 -17 2 -116 17 -221 33 -173 27 -245 37 -315 46
-25 3 -48 7 -130 25 -25 5 -110 19 -190 30 -80 12 -152 24 -160 27 -8 3 -25 5
-37 4 -12 -1 -39 2 -60 8 -21 6 -56 13 -78 16 -76 11 -121 23 -97 25 12 1 25
3 30 5 15 4 60 14 132 31 41 9 80 20 85 23 6 4 20 6 33 5 12 0 22 3 22 7 0 5
14 9 32 9 37 0 68 24 68 53 0 19 5 19 88 13 48 -4 98 -9 112 -11z m-767 -221
c20 -3 37 -9 37 -14 0 -4 -17 -4 -37 0 -21 5 -58 12 -83 15 -25 4 -47 9 -50
12 -5 5 54 -1 133 -13z m181 -29 c21 -3 48 -7 60 -10 12 -2 41 -7 66 -10 67
-8 121 -23 91 -24 -50 -2 -332 49 -326 59 3 5 20 4 38 0 17 -5 50 -11 71 -15z
m-468 -29 c22 -3 91 -10 154 -16 63 -6 138 -18 167 -26 28 -8 66 -14 85 -14
18 0 49 -5 68 -10 35 -10 52 -14 125 -25 22 -3 72 -11 110 -16 39 -6 77 -12
85 -13 9 -1 20 -4 25 -7 6 -3 29 -5 52 -5 24 1 43 -3 43 -8 0 -4 6 -6 14 -3 7
3 17 2 22 -3 5 -5 43 -12 84 -16 41 -3 79 -9 85 -12 5 -4 33 -7 61 -8 29 -1
57 -5 64 -9 19 -12 210 -43 210 -34 0 5 5 9 11 9 5 0 8 -4 5 -9 -6 -9 56 -22
129 -27 22 -2 51 -6 65 -9 14 -3 30 -7 35 -8 6 -2 15 -5 20 -8 6 -3 35 -7 65
-8 30 -2 58 -5 61 -7 4 -2 35 -8 70 -13 35 -6 105 -19 154 -30 50 -10 112 -22
139 -25 26 -2 50 -7 52 -9 7 -7 15 -122 19 -292 3 -88 8 -232 12 -320 5 -88 7
-206 5 -262 l-3 -103 -30 0 c-16 0 -76 9 -132 19 -90 17 -197 33 -402 61 -33
5 -107 16 -165 25 -58 10 -116 18 -130 20 -14 1 -106 14 -205 29 -99 15 -270
41 -380 57 -276 40 -328 48 -420 64 -74 13 -338 56 -430 70 -37 5 -40 8 -41
38 0 18 -4 145 -9 282 -20 634 -20 705 5 690 4 -3 25 -7 46 -9z m819 -26 c28
-5 86 -14 130 -20 44 -6 91 -13 104 -15 13 -2 45 -7 70 -10 170 -22 222 -37
166 -47 -13 -3 -26 -2 -27 2 -2 5 -28 11 -58 14 -30 3 -74 10 -98 15 -36 7
-45 6 -49 -7 -5 -12 -8 -12 -14 5 -6 17 -20 21 -86 27 -43 3 -89 8 -103 11
-14 3 -41 7 -61 10 -19 2 -46 9 -60 14 -23 10 -23 10 6 10 17 0 53 -4 80 -9z
m2297 -114 c2 -112 4 -155 13 -461 9 -310 9 -326 1 -370 -7 -36 -13 -43 -54
-63 -26 -12 -54 -26 -62 -31 -19 -11 -90 -44 -150 -67 -25 -10 -47 -21 -50
-24 -3 -3 -29 -15 -57 -28 -29 -12 -75 -32 -103 -44 -27 -12 -52 -20 -54 -17
-9 9 -15 106 -21 309 -3 118 -8 251 -11 295 -7 115 -6 349 2 368 3 10 11 17
17 17 6 0 30 9 54 20 24 11 62 29 86 40 24 11 47 20 52 20 5 0 48 19 95 41
167 81 184 89 197 89 7 0 13 4 13 10 0 5 7 7 15 4 12 -5 15 -28 17 -108z
m-2452 64 c0 -5 -5 -10 -11 -10 -5 0 -7 5 -4 10 3 6 8 10 11 10 2 0 4 -4 4
-10z m827 -12 c-3 -8 -6 -5 -6 6 -1 11 2 17 5 13 3 -3 4 -12 1 -19z m-49 -33
c81 -10 112 -17 112 -26 0 -6 -4 -7 -10 -4 -5 3 -10 0 -10 -7 0 -9 -2 -10 -8
-1 -4 6 -32 14 -62 17 -108 12 -140 18 -134 28 4 5 21 7 40 3 19 -3 51 -8 72
-10z m377 -56 c82 -14 117 -34 40 -24 -27 4 -55 11 -61 16 -6 5 -13 7 -15 4
-3 -2 -31 0 -62 4 -51 7 -57 6 -52 -8 4 -13 2 -12 -9 2 -7 9 -22 17 -34 17
-25 0 -52 10 -52 19 0 7 89 -4 245 -30z m130 -30 c11 -17 2 -18 -19 -3 -17 12
-17 14 -4 14 9 0 20 -5 23 -11z m82 -15 c-3 -3 -12 -4 -19 -1 -8 3 -5 6 6 6
11 1 17 -2 13 -5z m40 -10 c-3 -3 -12 -4 -19 -1 -8 3 -5 6 6 6 11 1 17 -2 13
-5z m93 -5 c0 -11 -21 -11 -39 0 -9 6 -5 9 13 9 14 0 26 -4 26 -9z m70 -14 c0
-1 -11 -5 -24 -7 -16 -3 -23 -1 -19 7 3 10 43 10 43 0z m238 -142 c1 -43 4
-89 7 -103 4 -14 9 -201 12 -415 l6 -390 -49 -18 c-27 -9 -52 -17 -55 -17 -4
0 -8 44 -9 98 -1 53 -3 129 -5 167 -4 89 -15 405 -19 553 -4 148 -1 160 41
177 19 8 39 13 43 10 5 -3 11 -1 15 5 11 18 12 12 13 -67z"/>
<path d="M1060 2693 c-19 -6 -60 -23 -80 -33 -18 -9 -69 -94 -81 -135 -11 -35
-22 -138 -20 -175 2 -41 34 -120 48 -120 7 0 13 -4 13 -9 0 -5 13 -14 29 -21
16 -6 32 -18 35 -26 3 -8 16 -14 28 -15 110 -3 168 10 212 48 24 21 91 151 82
160 -2 3 2 19 9 37 10 24 11 43 4 74 -10 47 -38 111 -56 130 -7 7 -13 17 -13
21 0 15 -37 51 -53 51 -9 0 -19 5 -22 10 -6 10 -107 13 -135 3z m102 -100 c37
-22 88 -127 81 -166 -7 -36 -23 -35 -23 1 0 16 -7 37 -15 48 -8 10 -15 26 -15
34 0 16 -26 45 -70 80 -21 17 -22 19 -7 20 11 0 32 -8 49 -17z m-107 -89 c8
-13 21 -24 28 -24 18 0 45 -93 46 -155 l1 -51 -38 1 c-53 1 -99 29 -105 62
-17 96 5 209 37 197 8 -3 22 -17 31 -30z"/>
<path d="M2699 2476 c-3 -3 -21 -6 -40 -7 -113 -5 -207 -88 -237 -208 -12 -46
-8 -197 6 -222 22 -42 123 -99 174 -99 20 0 39 -4 42 -8 7 -12 138 -5 146 7 3
6 17 12 30 13 28 4 126 91 147 132 21 41 29 182 13 231 -22 65 -113 138 -185
148 -22 3 -51 8 -65 12 -14 3 -28 4 -31 1z m14 -204 c4 -2 7 -10 7 -18 0 -8 4
-14 10 -14 5 0 14 -18 20 -41 9 -34 8 -50 -8 -97 -19 -57 -19 -57 -58 -56
-100 1 -138 19 -164 77 -10 23 -17 44 -15 47 4 7 14 51 19 85 2 11 4 23 5 26
2 11 56 64 75 75 16 8 26 3 60 -35 23 -26 44 -47 49 -49z m99 78 c12 -11 28
-20 37 -20 8 0 12 -3 8 -6 -3 -3 2 -15 12 -25 25 -27 29 -143 6 -166 -9 -8
-17 -14 -19 -12 -2 2 -6 37 -9 78 -5 68 -9 77 -47 122 -29 34 -36 49 -25 49 9
0 25 -9 37 -20z"/>
</g>
</svg>
