<?xml version="1.0" standalone="no"?>
<!DOCTYPE svg PUBLIC "-//W3C//DTD SVG 20010904//EN"
 "http://www.w3.org/TR/2001/REC-SVG-20010904/DTD/svg10.dtd">
<svg version="1.0" xmlns="http://www.w3.org/2000/svg"
 width="485.000000pt" height="427.000000pt" viewBox="0 0 485.000000 427.000000"
 preserveAspectRatio="xMidYMid meet">
<metadata>
Created by potrace 1.16, written by Peter Selinger 2001-2019
</metadata>
<g transform="translate(0.000000,427.000000) scale(0.100000,-0.100000)"
fill="#000000" stroke="none">
<path d="M3586 4123 c-4 -4 -1567 -24 -2091 -27 -181 -1 -347 1 -368 5 -29 5
-40 3 -46 -10 -5 -9 -13 -13 -17 -9 -4 4 -24 -2 -45 -14 -38 -21 -39 -23 -40
-82 -2 -86 -2 -105 5 -251 3 -71 9 -236 12 -365 3 -129 7 -246 7 -259 2 -21
-4 -26 -37 -33 -68 -15 -90 -51 -101 -168 -3 -30 -8 -72 -11 -93 -7 -50 -7
-279 0 -339 11 -96 73 -168 145 -168 l31 0 1 -67 c1 -121 8 -323 18 -548 5
-121 9 -245 9 -275 -1 -30 2 -104 5 -165 4 -60 9 -182 13 -270 3 -88 6 -162 6
-165 3 -44 -5 -60 -34 -74 -18 -8 -39 -16 -47 -18 -25 -5 -58 -46 -65 -80 -6
-30 -19 -214 -18 -245 1 -7 2 -38 2 -68 3 -109 45 -154 129 -140 l40 7 7 -40
c4 -29 13 -43 30 -51 17 -8 24 -8 24 0 0 6 9 9 19 6 31 -8 43 30 37 109 -8
101 -35 670 -41 878 -3 98 -8 183 -11 188 -3 4 -7 97 -9 206 -4 203 -13 468
-21 582 -2 36 -6 169 -9 295 -3 127 -7 318 -10 425 -3 107 -7 283 -10 390 -3
107 -5 305 -4 440 0 135 0 266 -1 293 l-1 47 53 -5 c83 -7 161 -16 188 -21 14
-2 70 -9 125 -14 55 -6 107 -13 115 -15 8 -2 53 -7 100 -10 47 -4 87 -8 90
-10 3 -2 34 -6 70 -9 36 -4 77 -9 90 -12 36 -7 78 -13 135 -19 28 -3 91 -10
140 -15 50 -6 108 -12 130 -14 22 -2 69 -9 105 -15 36 -6 85 -13 110 -16 25
-2 72 -9 105 -15 33 -5 89 -12 125 -15 36 -3 79 -7 95 -10 43 -7 91 -13 160
-20 81 -9 123 -14 165 -21 19 -3 44 -6 55 -7 19 -2 20 -12 26 -132 9 -164 19
-443 24 -667 3 -95 7 -193 10 -218 3 -25 7 -133 10 -240 6 -248 14 -483 21
-585 3 -44 7 -161 9 -260 3 -99 7 -232 9 -295 3 -63 7 -198 11 -300 3 -102 8
-210 11 -240 5 -63 15 -361 17 -562 1 -82 6 -141 13 -148 16 -16 67 -20 85 -6
22 16 29 51 18 88 -5 18 -13 156 -19 308 -16 418 -20 511 -25 555 -3 22 -7
148 -11 280 -3 132 -7 258 -10 280 -5 44 -10 164 -19 410 -5 154 -11 281 -20
450 -3 44 -7 163 -10 265 -3 102 -7 237 -10 300 -10 247 -17 462 -19 617 l-3
163 -27 25 c-25 23 -38 26 -119 30 -51 2 -126 9 -167 14 -126 16 -163 20 -220
25 -30 3 -71 8 -90 10 -19 3 -125 14 -235 25 -110 12 -234 26 -275 32 -107 16
-117 17 -195 24 -85 7 -324 42 -310 45 14 3 508 9 780 9 312 0 601 1 967 3
208 1 321 -1 328 -8 7 -7 12 -112 15 -275 6 -402 17 -843 20 -849 2 -3 6 -187
10 -410 4 -223 9 -468 11 -545 2 -77 6 -264 9 -415 2 -151 7 -295 10 -320 6
-43 13 -330 20 -805 5 -323 6 -348 11 -367 4 -14 17 -18 61 -18 l55 0 -6 78
c-14 190 -19 286 -22 412 -2 74 -6 205 -9 290 -3 85 -9 346 -15 580 -18 691
-18 709 -24 875 -3 88 -8 288 -11 445 -3 157 -8 339 -12 405 -9 208 -18 877
-12 901 5 15 -12 57 -32 83 -10 13 -16 27 -14 31 3 5 1 12 -5 15 -9 6 -269 13
-274 8z m-2576 -1125 c0 -7 3 -80 6 -162 l6 -149 -48 7 c-26 3 -52 10 -57 15
-10 10 9 205 25 264 10 31 15 37 40 37 16 0 28 -5 28 -12z m11 -406 c1 -10 2
-54 3 -99 1 -92 -6 -103 -55 -81 -34 15 -47 42 -55 113 -9 77 -4 84 55 83 40
0 51 -4 52 -16z m62 -2014 c3 -57 4 -105 2 -106 -7 -7 -73 19 -85 33 -15 19
-19 71 -8 113 8 28 44 56 79 61 3 1 9 -45 12 -101z m-31 -182 c33 -3 33 -4 36
-58 3 -59 -5 -67 -65 -68 -30 0 -36 13 -38 86 -2 58 -1 63 16 54 10 -6 33 -12
51 -14z"/>
<path d="M2974 2227 c-59 -8 -62 -9 -72 -45 -11 -36 -16 -72 -12 -82 8 -20 15
-229 8 -236 -3 -2 -21 2 -40 10 -41 18 -80 20 -163 12 -145 -15 -210 -44 -258
-118 -10 -16 -23 -28 -30 -28 -9 0 -12 -22 -11 -80 0 -71 3 -82 25 -101 19
-17 32 -20 64 -15 22 4 51 15 65 25 68 49 113 64 195 65 77 0 149 -13 165 -31
5 -4 11 -96 13 -203 5 -197 13 -242 41 -253 9 -4 16 -14 16 -22 0 -10 5 -13
11 -9 7 4 44 6 84 5 54 -2 76 2 88 13 9 9 22 16 30 16 8 0 17 7 21 15 3 8 12
15 21 15 19 0 21 55 3 67 -7 4 -13 13 -13 18 -1 6 -4 46 -8 90 -3 44 -9 172
-13 285 -3 113 -8 208 -10 211 -2 4 -4 80 -5 171 0 90 -3 169 -7 175 -8 12
-84 35 -122 37 -14 0 -53 -3 -86 -7z m116 -90 c24 -12 25 -18 32 -127 3 -63 5
-116 3 -118 -1 -2 -18 6 -36 17 -43 27 -52 26 -80 -4 -44 -46 -49 -35 -49 98
0 82 4 127 12 135 16 16 86 15 118 -1z m-26 -293 c9 -3 16 -12 16 -20 0 -8 4
-14 8 -14 11 0 42 -66 35 -74 -4 -3 -15 -6 -25 -6 -10 0 -18 -7 -18 -15 0 -9
-12 -20 -27 -26 -29 -11 -38 -10 -178 16 -146 27 -234 12 -343 -58 -56 -36
-74 -30 -67 20 3 27 13 44 32 58 15 11 36 28 47 39 44 44 258 66 307 32 13 -9
31 -16 41 -16 10 0 18 -4 18 -10 0 -5 7 -7 15 -4 8 4 17 -1 21 -10 3 -9 9 -14
13 -12 4 3 23 1 43 -3 29 -7 38 -5 42 6 10 24 7 71 -4 78 -6 4 -8 11 -5 16 7
11 9 11 29 3z m76 -213 c0 -5 -9 -11 -20 -14 -17 -4 -18 -2 -9 14 9 18 29 18
29 0z m-50 -25 c0 -3 -4 -8 -10 -11 -5 -3 -10 -1 -10 4 0 6 5 11 10 11 6 0 10
-2 10 -4z m54 -214 c3 -84 8 -157 11 -162 10 -17 -33 -30 -84 -25 -28 2 -55 6
-60 9 -17 11 -36 306 -20 306 5 0 9 -5 9 -11 0 -6 5 -7 13 -2 6 4 27 8 44 10
18 1 43 9 55 17 12 9 23 15 24 13 1 -1 4 -71 8 -155z"/>
</g>
</svg>
