<?xml version="1.0" standalone="no"?>
<!DOCTYPE svg PUBLIC "-//W3C//DTD SVG 20010904//EN"
 "http://www.w3.org/TR/2001/REC-SVG-20010904/DTD/svg10.dtd">
<svg version="1.0" xmlns="http://www.w3.org/2000/svg"
 width="505.000000pt" height="409.000000pt" viewBox="0 0 505.000000 409.000000"
 preserveAspectRatio="xMidYMid meet">
<metadata>
Created by potrace 1.16, written by Peter Selinger 2001-2019
</metadata>
<g transform="translate(0.000000,409.000000) scale(0.100000,-0.100000)"
fill="#000000" stroke="none">
<path d="M2467 4023 c-4 -3 -53 -7 -109 -9 -327 -10 -606 -15 -929 -18 -335
-2 -366 -4 -392 -21 -36 -23 -50 -57 -37 -91 6 -14 10 -52 10 -84 0 -32 7 -91
15 -129 8 -39 14 -81 14 -94 -1 -12 2 -40 5 -62 3 -22 8 -56 11 -75 3 -19 10
-60 15 -90 17 -88 31 -232 26 -247 -10 -24 21 -82 46 -88 20 -4 57 -1 66 5 1
2 14 3 30 4 23 1 27 -3 26 -24 0 -14 3 -38 8 -55 12 -40 28 -171 33 -275 3
-47 9 -123 15 -170 5 -47 12 -128 15 -180 3 -52 8 -126 11 -165 4 -38 7 -87 8
-108 l2 -37 -81 0 c-94 0 -115 -11 -134 -68 -11 -33 -11 -43 2 -63 10 -16 14
-44 12 -88 -3 -74 13 -121 49 -145 14 -9 33 -31 43 -49 16 -29 18 -71 16 -506
-1 -260 -4 -476 -7 -478 -2 -3 4 -13 15 -24 18 -18 70 -21 87 -4 6 6 7 92 3
370 0 39 0 154 2 258 2 153 5 187 16 185 7 -2 38 -39 68 -83 30 -44 65 -92 79
-107 13 -15 24 -32 24 -38 0 -5 5 -10 10 -10 6 0 10 -7 10 -15 0 -10 10 -15
27 -15 14 0 40 -11 57 -24 18 -13 40 -25 50 -27 15 -3 18 -17 20 -84 2 -44 7
-129 10 -190 4 -60 9 -157 10 -215 2 -58 7 -198 11 -312 l8 -208 34 -9 c38
-11 59 -6 66 13 3 7 1 80 -4 162 -6 82 -12 205 -14 274 -3 69 -7 177 -10 240
-3 63 -8 172 -12 243 l-6 127 29 1 c58 2 284 9 464 14 102 3 193 8 202 11 10
3 21 -3 28 -16 11 -20 50 -28 50 -10 0 6 3 10 8 10 7 0 15 -188 16 -400 l1
-124 38 -9 c70 -17 71 -14 62 243 -4 124 -8 244 -10 266 l-3 42 51 5 c29 3
111 5 184 5 73 0 155 3 183 7 l51 7 -1 -118 c-1 -66 0 -121 0 -124 1 -3 3 -50
5 -105 2 -55 8 -179 14 -275 6 -96 13 -231 16 -300 8 -169 10 -180 43 -181 34
-2 66 2 72 7 6 6 2 112 -5 144 -4 14 -10 95 -15 180 -5 85 -12 196 -15 245
-12 168 -20 415 -17 486 2 30 7 38 26 43 13 3 29 18 36 36 16 38 -5 103 -46
146 -41 42 -74 83 -74 91 0 4 -9 16 -19 27 -11 12 -42 59 -71 106 -28 47 -79
115 -114 152 -34 36 -80 88 -102 114 -56 69 -97 109 -106 106 -4 -1 -8 4 -8
12 0 7 -9 25 -21 40 -16 20 -24 24 -34 16 -9 -8 -14 -7 -18 3 -3 9 -16 13 -34
10 -63 -9 -160 -13 -184 -7 -36 7 -38 14 -54 184 -4 36 -13 94 -20 130 -8 36
-19 128 -26 205 -6 77 -12 149 -13 160 -14 138 -20 236 -17 260 2 17 4 39 5
50 1 17 8 19 51 18 28 -1 52 -3 55 -3 12 -5 56 3 64 10 5 5 10 58 11 117 4
161 16 446 20 463 9 34 20 190 19 263 -1 82 -7 97 -43 100 -11 1 -21 5 -21 11
0 21 -49 44 -63 29z m28 -184 c0 -35 -3 -80 -7 -99 -4 -19 -10 -105 -13 -191
-4 -86 -8 -169 -10 -185 -2 -16 -5 -75 -6 -131 -2 -77 -5 -100 -14 -93 -6 5
-22 7 -36 5 -60 -12 -1191 -26 -1203 -15 -4 5 -31 185 -43 285 -1 17 -7 54
-12 82 -6 29 -11 85 -13 125 -2 40 -7 76 -12 80 -5 3 -10 47 -12 97 l-2 91 62
0 c33 0 136 1 228 1 92 0 171 -1 175 -4 4 -3 35 -1 67 4 33 6 67 7 75 3 9 -4
21 -6 26 -4 6 1 132 5 280 7 149 3 271 6 272 7 2 1 47 2 100 1 l98 -1 0 -65z
m-241 -815 c10 -9 14 -24 10 -38 -3 -13 1 -95 10 -182 22 -232 27 -283 32
-344 2 -30 11 -93 20 -140 17 -86 25 -282 12 -295 -3 -4 -189 -8 -412 -10
-224 -2 -411 -7 -416 -10 -6 -3 -10 -2 -10 3 0 6 -9 8 -20 5 -13 -3 -20 0 -21
8 0 15 -6 66 -14 137 -11 94 -14 131 -19 222 -3 52 -8 104 -10 115 -2 11 -7
70 -10 130 -4 61 -9 130 -13 155 -3 25 -7 65 -8 90 -1 25 -6 69 -10 98 -7 47
-6 52 11 53 11 0 203 2 428 4 224 2 411 6 414 9 8 8 9 8 26 -10z m497 -1168
c30 -33 70 -76 89 -96 114 -117 175 -193 200 -250 6 -13 14 -27 18 -30 13 -9
78 -104 85 -122 6 -16 -3 -18 -106 -19 -62 0 -137 -2 -167 -4 -30 -2 -118 -6
-195 -9 -77 -4 -192 -9 -255 -14 -63 -4 -177 -7 -253 -7 -80 0 -137 -4 -137
-10 0 -6 -3 -6 -9 0 -11 11 -205 3 -233 -9 -11 -5 -18 -2 -22 12 -4 10 -24 39
-46 63 -22 24 -40 47 -40 52 0 4 -8 15 -17 26 -10 10 -31 35 -48 56 -36 46
-59 71 -71 76 -5 2 -24 22 -42 44 -19 22 -57 65 -85 95 -29 31 -63 69 -76 85
-13 17 -37 45 -53 63 -15 18 -28 36 -28 40 0 4 183 7 408 7 224 0 531 2 682 5
151 3 291 5 311 5 31 0 43 -8 90 -59z"/>
</g>
</svg>
