<?xml version="1.0" standalone="no"?>
<!DOCTYPE svg PUBLIC "-//W3C//DTD SVG 20010904//EN"
 "http://www.w3.org/TR/2001/REC-SVG-20010904/DTD/svg10.dtd">
<svg version="1.0" xmlns="http://www.w3.org/2000/svg"
 width="517.000000pt" height="425.000000pt" viewBox="0 0 517.000000 425.000000"
 preserveAspectRatio="xMidYMid meet">
<metadata>
Created by potrace 1.16, written by Peter Selinger 2001-2019
</metadata>
<g transform="translate(0.000000,425.000000) scale(0.100000,-0.100000)"
fill="#000000" stroke="none">
<path d="M4528 3774 c-3 -3 -102 -5 -219 -5 -118 0 -263 -3 -322 -7 -60 -4
-111 -5 -113 -3 -2 3 -30 4 -62 2 -101 -3 -500 -14 -957 -26 -99 -3 -315 -7
-480 -10 -165 -2 -460 -7 -655 -11 l-355 -6 -39 -26 -38 -26 6 -191 c4 -104 9
-388 12 -630 4 -344 10 -777 14 -892 0 -13 76 -67 108 -77 17 -6 303 -11 382
-7 52 3 55 10 55 153 l0 133 60 2 c33 1 218 4 410 8 438 7 712 13 1025 21 135
3 367 7 517 9 l271 3 6 -32 c4 -17 11 -65 16 -106 5 -41 11 -84 14 -95 2 -11
5 -25 5 -31 1 -14 -9 -13 214 -14 181 -2 190 -1 204 19 8 12 20 21 26 21 7 0
19 11 28 23 14 19 15 35 7 102 -11 100 -19 255 -23 455 -1 85 -5 175 -8 200
-6 46 -13 275 -23 750 -4 224 -7 267 -21 282 -15 17 -53 24 -65 12z m-23 -144
c3 -19 9 -97 12 -172 4 -112 3 -138 -8 -139 -8 -1 -81 -3 -164 -5 -82 -2 -204
-6 -270 -9 -66 -3 -203 -7 -305 -10 -102 -2 -309 -7 -461 -11 l-277 -7 0 49
c-1 60 -6 87 -24 139 -12 33 -16 160 -6 170 6 6 239 15 573 21 187 4 341 7
342 8 1 0 132 1 291 1 l290 0 7 -35z m-1584 -2 c0 -7 2 -44 4 -83 2 -38 9
-112 15 -163 7 -53 9 -97 4 -102 -9 -9 -166 -16 -534 -25 -113 -3 -281 -8
-375 -11 -93 -4 -269 -7 -391 -9 -121 -1 -226 -5 -232 -9 -8 -5 -12 1 -13 16
-1 20 0 321 1 356 0 7 12 12 28 12 15 0 92 2 172 4 80 3 280 8 445 12 165 3
301 7 302 8 1 0 130 2 287 4 231 3 286 1 287 -10z m1595 -411 c11 -10 10 -302
-1 -303 -69 -4 -341 -15 -490 -19 -104 -3 -228 -7 -275 -10 -47 -3 -175 -7
-285 -10 -110 -3 -234 -7 -275 -10 -41 -2 -142 -7 -225 -10 -144 -6 -218 -8
-565 -20 -85 -2 -225 -7 -310 -10 -85 -3 -243 -8 -350 -11 -172 -6 -239 -6
-315 0 -19 1 -20 10 -25 121 -7 164 -2 229 15 215 8 -7 22 -9 32 -6 18 5 168
10 618 21 127 3 291 8 365 10 266 8 508 15 700 20 107 3 254 8 325 10 72 3
265 8 430 11 165 3 301 7 302 7 5 5 324 0 329 -6z m-23 -401 l42 3 1 -67 c0
-37 3 -116 5 -175 5 -126 4 -126 -86 -125 -52 1 -186 -2 -720 -17 -66 -2 -196
-6 -290 -9 -93 -3 -291 -8 -440 -11 -148 -4 -324 -8 -390 -10 -66 -2 -221 -7
-345 -10 -124 -3 -295 -8 -380 -11 -205 -7 -317 -7 -330 1 -5 3 -10 3 -10 -2
0 -4 -29 -8 -65 -8 l-65 0 -2 35 c0 19 -3 46 -4 60 -2 14 -6 76 -8 138 l-5
112 57 1 c31 1 75 3 97 4 98 6 348 15 545 20 118 3 312 10 430 15 118 5 310
12 425 15 214 6 352 11 575 20 69 3 197 7 285 10 88 2 264 7 390 11 127 3 232
8 235 11 2 2 6 0 8 -5 1 -4 21 -7 45 -6z m58 -490 c3 -166 8 -266 13 -274 11
-18 -16 -26 -94 -29 -41 -1 -99 -4 -128 -7 -65 -5 -69 0 -77 120 -4 49 -12 96
-19 104 -8 8 -12 20 -9 26 5 15 -19 34 -48 35 -13 1 -73 -1 -134 -4 -60 -4
-238 -9 -395 -13 -157 -3 -309 -7 -338 -9 -50 -4 -619 -16 -917 -20 -77 -1
-240 -3 -362 -4 -122 -1 -226 0 -231 3 -5 3 -18 -5 -30 -17 -18 -20 -20 -33
-17 -139 l3 -118 -27 -1 c-14 0 -39 -2 -56 -4 -16 -2 -81 -6 -142 -10 -113 -6
-113 -6 -114 17 -6 150 -7 288 -1 292 20 12 208 22 582 31 129 3 309 7 400 10
91 3 271 7 400 10 129 3 305 7 390 10 85 2 333 7 550 11 217 4 396 7 397 8 2
1 93 3 203 3 l200 1 1 -32z"/>
<path d="M3785 3574 c-131 -26 -124 -23 -134 -62 -28 -111 22 -173 121 -151
62 14 86 33 98 78 8 32 7 48 -6 81 -14 33 -42 64 -56 59 -2 -1 -12 -3 -23 -5z
m13 -106 c3 -16 -41 -29 -66 -20 -23 7 -12 31 16 35 38 5 47 3 50 -15z"/>
<path d="M2103 3553 c-13 -2 -28 -12 -35 -22 -7 -9 -21 -20 -30 -24 -24 -9
-27 -66 -7 -117 18 -46 110 -68 144 -34 37 37 46 61 39 103 -4 22 -10 41 -15
41 -5 0 -9 7 -9 15 0 12 -52 48 -62 44 -2 -1 -13 -4 -25 -6z m31 -89 c9 -25 7
-44 -5 -44 -17 0 -38 32 -32 47 7 18 30 16 37 -3z"/>
<path d="M2888 3111 c-26 -9 -68 -78 -68 -111 0 -35 29 -65 87 -91 63 -27 131
-7 171 49 20 27 20 30 5 84 -18 64 -34 74 -109 62 -25 -3 -50 -2 -57 4 -6 5
-20 7 -29 3z m120 -103 c2 -10 -6 -17 -23 -20 -14 -3 -25 -1 -25 3 0 5 -7 6
-15 3 -25 -10 -17 5 13 20 31 17 46 16 50 -6z"/>
<path d="M2927 2702 c-10 -10 -17 -26 -17 -35 0 -9 -5 -17 -11 -17 -5 0 -8 -4
-4 -9 3 -5 1 -12 -5 -16 -5 -3 -10 -22 -10 -42 0 -85 69 -128 159 -98 50 16
73 37 98 90 23 47 11 81 -35 100 -20 9 -52 23 -70 31 -45 19 -86 18 -105 -4z
m87 -82 c7 0 21 -6 32 -14 19 -15 19 -15 -1 -30 -25 -19 -56 -20 -79 -3 -16
11 -17 17 -6 36 7 14 17 20 27 17 8 -3 20 -6 27 -6z"/>
<path d="M3645 2053 c-38 -8 -75 -21 -81 -29 -6 -8 -12 -34 -12 -58 -1 -24 -2
-48 -3 -52 -2 -5 1 -61 5 -124 4 -63 8 -242 9 -398 l2 -282 -30 -1 c-53 -2
-137 -7 -245 -13 -58 -4 -199 -8 -313 -9 -195 -2 -210 -4 -224 -22 -9 -12 -12
-32 -9 -52 2 -18 0 -35 -6 -39 -6 -4 -8 -60 -4 -163 4 -86 9 -230 11 -321 3
-91 7 -174 9 -185 3 -11 5 -52 5 -91 1 -53 6 -78 19 -94 32 -40 155 -39 222 1
23 15 30 23 21 29 -9 5 -14 44 -17 126 -2 66 -4 119 -4 119 -1 0 -3 79 -5 175
-3 96 -6 207 -8 246 -3 48 -1 71 7 71 34 1 284 16 306 18 26 3 169 7 231 6 35
-1 37 -3 43 -43 7 -48 19 -399 19 -548 0 -94 12 -145 40 -168 23 -19 98 -25
142 -10 60 20 67 41 60 193 -4 71 -9 134 -12 139 -4 5 -7 84 -8 175 -2 91 -6
243 -9 336 -5 153 -17 739 -18 905 0 36 3 76 6 90 7 29 -7 48 -49 71 -27 14
-38 14 -100 2z"/>
<path d="M2177 1453 c-1 0 -72 -4 -157 -7 -85 -4 -204 -10 -265 -13 -60 -4
-123 -6 -140 -6 -100 4 -289 3 -485 -2 -124 -3 -380 -7 -569 -10 -197 -3 -352
-10 -362 -16 -11 -5 -19 -7 -19 -3 0 3 -7 1 -15 -6 -24 -20 -9 -883 20 -1144
8 -78 21 -83 210 -76 22 1 45 1 50 0 31 -7 45 3 54 36 6 20 6 44 2 53 -5 9 -7
27 -6 41 2 14 -1 106 -6 205 -11 199 -14 573 -5 582 6 7 47 10 216 17 112 5
710 19 735 17 120 -8 225 -8 282 -1 105 14 340 17 352 5 9 -9 25 -373 20 -480
-2 -67 -3 -65 6 -185 9 -132 9 -227 0 -262 -6 -21 -3 -27 14 -33 12 -3 21 -13
21 -21 0 -16 12 -18 26 -4 11 11 167 33 199 27 11 -1 32 -11 47 -21 21 -14 31
-15 48 -6 31 16 39 47 35 136 -2 43 -6 144 -10 224 -9 192 -15 436 -18 707 -2
140 -7 227 -13 233 -9 9 -259 21 -267 13z"/>
</g>
</svg>
