<?xml version="1.0" standalone="no"?>
<!DOCTYPE svg PUBLIC "-//W3C//DTD SVG 20010904//EN"
 "http://www.w3.org/TR/2001/REC-SVG-20010904/DTD/svg10.dtd">
<svg version="1.0" xmlns="http://www.w3.org/2000/svg"
 width="571.000000pt" height="457.000000pt" viewBox="0 0 571.000000 457.000000"
 preserveAspectRatio="xMidYMid meet">
<metadata>
Created by potrace 1.16, written by Peter Selinger 2001-2019
</metadata>
<g transform="translate(0.000000,457.000000) scale(0.100000,-0.100000)"
fill="#000000" stroke="none">
<path d="M1945 4148 c-27 -5 -64 -15 -82 -23 -17 -8 -36 -15 -41 -15 -6 0 -27
-9 -49 -19 -21 -11 -103 -51 -183 -89 -169 -81 -247 -144 -366 -291 -10 -13
-23 -28 -29 -35 -5 -6 -32 -38 -60 -71 -27 -33 -60 -70 -72 -82 -13 -12 -23
-26 -23 -31 0 -5 -8 -20 -19 -33 -19 -25 -51 -78 -81 -139 -51 -99 -70 -152
-79 -220 -6 -41 -18 -111 -26 -155 -23 -119 -33 -200 -39 -295 -5 -92 -11
-148 -26 -225 -5 -27 -9 -70 -10 -95 0 -25 -2 -126 -5 -225 -4 -170 -7 -215
-19 -344 -5 -54 -10 -136 -23 -391 -11 -220 -4 -590 13 -633 11 -29 88 -82
124 -85 19 -1 46 -4 60 -5 14 -1 30 -6 36 -9 6 -4 14 -5 18 -1 3 3 28 7 54 8
26 1 60 9 74 19 25 16 25 18 25 149 0 73 4 177 8 232 4 55 8 132 8 171 l0 71
41 -10 c22 -5 66 -15 96 -22 30 -8 89 -19 130 -25 107 -17 221 -39 250 -50 14
-5 48 -11 76 -13 29 -3 56 -7 61 -10 5 -3 31 -8 59 -12 91 -10 177 -27 399
-77 50 -11 101 -21 115 -23 14 -2 59 -10 100 -19 41 -9 118 -23 170 -32 52 -8
113 -20 135 -26 22 -6 58 -13 80 -15 22 -3 44 -8 50 -13 5 -4 42 -11 81 -15
l71 -7 -4 -146 c-6 -241 -8 -615 -2 -643 12 -59 21 -61 195 -36 l158 23 14 34
c8 19 20 42 28 51 12 13 14 58 13 245 -1 126 -1 277 0 335 l3 107 80 12 c44 6
90 15 102 20 29 11 281 52 491 80 235 31 296 40 370 54 44 8 118 18 164 21 46
4 93 9 105 12 31 7 187 29 304 43 57 6 109 13 116 16 22 9 33 -151 40 -600 2
-128 5 -161 17 -164 8 -3 18 -11 22 -19 8 -12 11 -12 20 1 11 15 58 24 170 31
20 1 45 3 55 4 9 0 29 12 43 25 l25 23 -2 384 c-2 211 -5 422 -8 469 -3 47 -7
141 -11 210 -8 175 -16 294 -20 300 -2 4 -6 28 -10 54 -3 27 -7 52 -10 56 -9
14 -24 143 -31 260 -7 121 -31 237 -64 305 -10 22 -22 56 -25 75 -3 19 -18 53
-33 75 -15 22 -38 60 -52 85 -80 144 -220 320 -323 407 -22 18 -159 80 -219
99 -29 9 -73 26 -98 37 -77 34 -381 56 -520 37 -41 -6 -93 -13 -115 -15 -62
-8 -101 -22 -260 -97 -21 -10 -39 -20 -96 -55 -36 -23 -69 -29 -83 -16 -7 8
-20 10 -86 17 -25 3 -67 10 -95 15 -27 5 -84 12 -125 16 -41 3 -93 11 -115 16
-45 12 -115 27 -192 41 -50 9 -53 11 -53 39 0 16 -3 29 -7 29 -9 0 -46 59 -50
80 -2 8 -7 39 -11 68 -5 30 -13 57 -19 60 -13 9 -43 121 -49 182 -7 74 -13 89
-38 96 -15 3 -33 23 -50 53 -29 54 -73 95 -131 122 -22 10 -50 27 -62 38 -12
12 -27 21 -33 21 -5 0 -10 7 -10 15 0 8 -6 15 -13 15 -7 0 -22 8 -33 18 -17
16 -147 56 -269 83 -68 15 -150 18 -210 7z m230 -130 c63 -15 57 -14 75 -20 8
-3 35 -12 60 -19 25 -7 52 -20 62 -30 9 -9 34 -27 55 -40 21 -12 40 -26 43
-29 3 -3 21 -13 40 -22 40 -19 100 -72 100 -87 0 -6 4 -11 8 -11 5 0 15 -19
22 -42 24 -76 39 -98 65 -98 30 0 43 -39 51 -150 3 -41 10 -76 15 -78 5 -2 9
-10 9 -17 0 -7 5 -15 11 -17 10 -3 16 -27 24 -101 2 -21 9 -44 15 -52 17 -20
37 -120 39 -190 1 -33 4 -73 7 -90 3 -16 7 -61 9 -98 2 -38 10 -79 18 -91 17
-25 27 -106 13 -106 -5 0 -39 7 -75 16 -36 8 -76 17 -88 20 -29 6 -36 45 -37
189 0 66 -4 113 -10 117 -6 4 -11 40 -12 80 0 40 -4 87 -8 105 -6 26 -4 32 13
38 39 12 37 65 -6 210 -20 66 -64 235 -67 257 -3 25 -66 98 -84 98 -8 0 -23 6
-31 14 -36 32 -271 138 -306 138 -41 0 -239 -13 -274 -18 -24 -4 -56 -13 -70
-20 -14 -8 -31 -14 -37 -14 -5 0 -34 -11 -62 -25 -29 -14 -54 -25 -57 -25 -3
0 -38 -16 -78 -36 -65 -32 -142 -96 -160 -134 -4 -8 -21 -33 -38 -55 -16 -22
-42 -58 -57 -80 -15 -22 -32 -45 -38 -52 -6 -6 -17 -25 -24 -42 -7 -17 -16
-31 -21 -31 -5 0 -9 -5 -9 -11 0 -6 -9 -24 -21 -41 -12 -16 -19 -31 -16 -34 7
-7 -11 -69 -34 -119 -16 -36 -33 -106 -46 -190 -2 -16 -10 -57 -18 -90 -8 -33
-16 -89 -19 -125 -7 -74 -16 -171 -22 -215 -2 -16 -6 -129 -9 -250 -3 -121 -8
-247 -12 -280 -3 -33 -6 -118 -7 -188 l-1 -129 -40 7 c-22 4 -47 8 -55 10 -8
2 -39 6 -68 10 -29 4 -55 12 -58 17 -7 11 -7 39 1 173 2 50 7 178 9 285 2 107
9 209 14 226 5 17 13 85 16 150 6 106 10 148 22 234 2 14 10 63 18 110 9 47
20 114 26 149 6 35 26 93 44 130 18 36 39 82 46 101 8 19 25 51 38 70 22 34
128 163 165 201 9 11 17 21 17 24 0 8 62 76 144 156 74 74 142 119 179 119 9
0 17 4 17 10 0 5 11 12 25 16 14 3 29 12 33 18 10 16 109 56 138 56 13 0 24 4
24 8 0 11 99 42 133 42 14 0 28 4 31 8 6 10 104 -1 181 -20z m80 -240 c22 -6
47 -17 55 -23 21 -17 104 -55 119 -55 25 0 77 -50 90 -87 8 -21 22 -44 31 -50
20 -14 39 -88 39 -148 0 -22 2 -65 5 -95 3 -30 2 -60 -2 -66 -6 -10 -56 -20
-138 -29 -30 -3 -93 -12 -139 -21 -111 -21 -151 -27 -220 -34 -138 -15 -167
-19 -239 -39 -39 -10 -104 -22 -144 -25 -39 -4 -107 -13 -150 -20 -42 -8 -123
-17 -179 -21 -91 -5 -103 -4 -103 10 0 29 80 228 100 250 11 12 20 25 20 30 0
8 69 115 81 125 4 3 16 23 27 46 22 44 84 104 106 104 8 0 16 7 20 15 5 15 99
65 122 65 6 0 17 6 23 14 7 8 30 17 52 21 23 4 52 13 67 21 14 7 29 11 34 8 4
-3 8 -1 8 5 0 20 247 20 315 -1z m2200 -595 c17 -2 44 -5 60 -7 33 -4 138 -32
170 -46 11 -5 31 -12 45 -15 41 -11 150 -64 166 -80 9 -8 19 -15 24 -15 19 0
141 -131 205 -220 38 -52 71 -97 75 -100 11 -8 110 -214 110 -228 0 -7 12 -39
26 -70 17 -37 28 -79 30 -120 2 -34 5 -66 8 -70 2 -4 7 -53 11 -107 6 -95 17
-179 30 -235 14 -56 27 -171 30 -260 2 -52 5 -129 8 -170 5 -65 20 -417 19
-445 0 -5 -1 -95 -2 -200 -1 -104 -7 -211 -13 -237 l-10 -46 -56 -4 c-31 -2
-57 -3 -59 -2 -2 1 -5 107 -8 235 -2 129 -9 257 -14 284 -5 28 -12 124 -15
215 -3 90 -8 200 -10 245 -3 44 -7 170 -10 280 -3 110 -7 207 -10 216 -3 9 -8
40 -10 69 -3 30 -7 61 -10 69 -2 9 -7 30 -9 46 -5 29 -18 75 -49 180 -13 45
-84 192 -106 219 -5 6 -14 28 -20 48 -12 37 -50 93 -96 139 -14 14 -25 30 -26
35 0 12 -127 94 -146 94 -8 0 -29 11 -46 24 -56 42 -294 119 -417 135 -75 10
-102 10 -130 -1 -8 -3 -53 -16 -100 -28 -47 -13 -105 -29 -129 -37 -60 -19
-207 -92 -225 -112 -31 -32 -62 -76 -78 -111 -30 -65 -80 -165 -109 -216 -33
-60 -101 -239 -118 -310 -7 -27 -12 -64 -11 -82 0 -18 -3 -38 -7 -45 -4 -7 -8
-15 -9 -19 -1 -5 -3 -9 -4 -10 -1 -2 -4 -16 -6 -33 -9 -81 -12 -107 -29 -195
-13 -76 -18 -169 -20 -460 -2 -201 -6 -455 -9 -565 -6 -219 -6 -265 -3 -467 1
-75 0 -136 -3 -135 -5 1 -121 -11 -173 -18 l-28 -3 3 214 c2 120 -1 214 -6
214 -9 0 -2 235 12 400 3 47 5 116 4 155 -1 38 2 103 7 145 6 41 13 145 16
230 3 85 8 162 10 170 2 8 6 51 10 95 3 44 10 94 15 110 5 17 12 46 14 65 3
19 7 44 9 55 3 11 15 74 27 140 13 66 26 122 29 125 3 3 7 27 8 55 2 27 7 61
13 75 5 14 12 36 15 50 14 70 18 86 25 95 4 6 11 26 15 45 23 111 154 267 300
359 39 24 81 51 95 60 73 48 196 103 265 117 141 29 305 36 430 17z m-1839
-88 c10 -60 20 -190 27 -364 l2 -43 -40 5 c-39 6 -205 33 -255 43 -14 2 -56 9
-95 14 -182 24 -326 47 -515 81 -30 5 -73 12 -95 14 -22 2 -116 20 -210 39
-93 20 -172 36 -176 36 -4 0 -6 8 -4 18 2 9 4 24 4 32 1 12 12 16 39 16 80 1
221 14 307 28 50 8 119 20 155 25 36 6 90 18 120 26 30 9 80 18 110 20 112 9
200 21 290 40 14 3 45 7 70 10 25 3 86 11 135 19 50 8 97 13 105 12 10 -1 18
-22 26 -71z m449 25 c17 -5 59 -14 95 -20 36 -7 69 -14 74 -17 5 -4 46 -7 90
-9 45 -1 97 -7 116 -13 19 -6 50 -11 67 -11 41 0 41 -8 1 -40 -74 -57 -169
-166 -190 -217 -12 -29 -25 -53 -30 -53 -4 0 -8 -7 -8 -16 0 -9 -7 -40 -15
-69 l-16 -54 -97 4 c-101 4 -144 9 -160 19 -6 3 -13 52 -16 108 -3 57 -8 139
-11 183 -3 44 -9 104 -14 134 -13 80 -8 90 42 84 23 -3 56 -9 72 -13z m1228
-191 c54 -3 89 -19 42 -19 -32 0 -69 -21 -96 -53 -13 -17 -18 -18 -35 -7 -16
10 -35 10 -84 2 -84 -15 -112 -41 -124 -113 -4 -30 0 -45 27 -85 17 -27 43
-59 57 -71 l25 -22 -50 -1 c-27 0 -81 -5 -120 -11 -38 -6 -113 -11 -166 -13
-85 -2 -96 0 -89 13 5 9 11 23 14 31 3 8 10 22 15 30 5 8 22 41 37 73 16 33
42 68 59 80 16 11 34 27 38 34 4 7 13 13 19 13 5 0 31 10 57 23 25 13 78 33
116 45 149 46 200 60 206 56 3 -1 26 -4 52 -5z m202 -54 c22 -4 58 -15 80 -25
22 -10 51 -21 65 -25 14 -4 32 -13 40 -20 8 -7 31 -16 52 -20 20 -4 45 -15 57
-26 11 -10 24 -19 30 -19 5 0 12 -7 15 -16 3 -8 10 -13 15 -10 5 3 25 -14 45
-38 36 -44 43 -58 29 -54 -11 3 -248 -12 -274 -17 -12 -3 -91 -7 -176 -11
-149 -6 -154 -5 -145 12 6 11 19 27 29 36 28 26 37 39 62 91 23 48 26 107 6
151 -7 16 -5 17 11 8 10 -5 37 -13 59 -17z m-3231 -42 c4 -5 26 -8 49 -8 32 0
41 -3 38 -15 -2 -8 -2 -42 -1 -75 5 -140 3 -402 -5 -562 -4 -95 -7 -234 -7
-310 0 -76 -2 -153 -5 -170 -6 -38 -18 -40 -98 -19 l-50 13 -8 74 c-5 43 -4
127 2 199 12 156 12 157 15 375 1 99 5 198 9 220 14 81 24 182 26 268 1 17 21
23 35 10z m3102 -18 c10 -25 -4 -62 -36 -97 -17 -18 -45 -54 -63 -80 -18 -26
-39 -48 -48 -48 -9 0 -48 31 -88 69 -55 53 -70 73 -64 87 3 11 11 22 17 26 16
11 74 10 96 -2 12 -6 21 -7 25 0 3 5 12 7 20 4 9 -4 30 7 50 25 38 33 82 41
91 16z m-2838 -21 l42 -7 1 -56 c1 -31 2 -85 4 -121 1 -36 -1 -91 -4 -123 -4
-32 -4 -60 -1 -62 6 -4 23 -200 21 -235 -1 -8 -2 -132 -1 -275 0 -143 -3 -273
-6 -289 -6 -27 -8 -28 -48 -22 -49 7 -106 23 -124 35 -13 8 -15 173 -6 486 5
164 6 261 4 465 -1 102 2 193 6 203 5 15 14 17 38 13 17 -3 50 -8 74 -12z
m197 -28 c11 -2 45 -6 75 -10 30 -4 60 -10 65 -14 6 -4 10 -62 11 -132 0 -69
7 -163 14 -210 7 -47 15 -132 16 -190 2 -58 6 -172 10 -255 7 -178 7 -152 4
-301 l-2 -121 -111 20 c-62 11 -115 24 -118 29 -3 5 -12 8 -19 6 -15 -3 -16
12 -25 277 -2 83 -4 175 -3 205 1 30 2 78 1 105 -7 282 -7 557 -1 561 4 3 8
14 8 25 0 17 5 20 28 15 15 -4 36 -8 47 -10z m395 -62 c131 -18 141 -21 123
-32 -7 -5 -8 -45 -4 -132 4 -69 6 -163 4 -210 -2 -47 -6 -130 -9 -185 -6 -139
-11 -303 -12 -415 -2 -202 -3 -244 -6 -247 -7 -8 -222 40 -229 50 -4 7 -6 80
-5 162 1 83 -3 211 -10 285 -6 74 -12 176 -13 225 -1 50 -8 140 -15 200 -15
125 -19 257 -9 296 5 22 12 26 33 24 15 -2 83 -11 152 -21z m319 -54 c120 -22
123 -23 92 -36 l-31 -13 0 -79 c0 -44 5 -104 12 -133 7 -30 13 -126 14 -214 1
-88 5 -241 8 -340 8 -223 8 -369 0 -388 -6 -17 -23 -16 -154 4 -41 6 -78 16
-82 22 -4 7 -9 30 -10 52 -1 22 -3 63 -4 90 -5 99 -4 437 2 447 5 7 11 285 14
561 0 32 3 56 8 54 4 -3 63 -15 131 -27z m246 -48 c11 -3 29 -6 40 -8 11 -1
29 -4 40 -7 11 -3 44 -8 73 -12 42 -6 52 -11 47 -23 -17 -46 -25 -116 -25
-225 1 -67 1 -248 1 -402 1 -154 1 -340 1 -413 1 -73 -1 -135 -4 -137 -6 -6
-201 23 -231 34 -23 9 -23 12 -26 178 -5 279 -9 386 -17 438 -9 59 -10 106 -3
200 3 39 0 108 -7 155 -16 105 -17 167 -3 175 6 4 7 19 4 37 l-7 30 49 -7 c26
-4 57 -9 68 -13z m2302 -84 c12 -24 24 -65 27 -93 3 -27 10 -75 16 -106 5 -30
10 -102 9 -160 -1 -57 1 -133 5 -169 3 -36 8 -117 11 -180 3 -63 7 -138 9
-167 3 -64 0 -70 -44 -78 -19 -3 -48 -8 -63 -11 -27 -6 -29 -4 -26 24 2 16 -1
36 -8 43 -11 15 -21 89 -24 184 -2 33 -6 71 -10 85 -5 14 -10 63 -13 110 -3
47 -8 101 -11 120 -3 19 -7 62 -10 95 -4 59 -14 141 -21 180 -2 11 -7 50 -10
87 -8 76 -9 75 86 77 l55 1 22 -42z m-1945 21 c54 -11 56 -12 56 -45 0 -18 2
-37 5 -41 3 -5 9 -81 12 -168 4 -87 11 -168 17 -178 9 -17 8 -35 -7 -107 -20
-93 -26 -136 -36 -277 -6 -87 -12 -189 -13 -228 -5 -162 -7 -167 -87 -154 -28
4 -53 10 -54 11 -6 6 -20 574 -18 703 7 446 6 432 31 455 12 12 20 25 17 31
-8 12 9 11 77 -2z m1710 -40 c3 -24 16 -104 28 -178 12 -74 24 -161 26 -195 2
-34 9 -106 15 -161 7 -55 13 -134 15 -175 2 -41 5 -115 7 -163 4 -83 3 -89
-17 -96 -34 -14 -189 -25 -183 -14 4 6 2 59 -3 119 -5 60 -12 158 -16 218 -6
113 -7 121 -17 146 -8 22 -18 174 -23 367 l-5 172 63 3 c106 5 102 6 110 -43z
m-241 -32 c0 -34 2 -80 4 -102 2 -22 7 -87 9 -145 3 -58 10 -145 16 -195 7
-49 13 -117 15 -150 14 -238 16 -316 10 -348 -7 -35 -8 -36 -64 -42 -31 -3
-68 -8 -83 -10 -20 -3 -26 -1 -22 9 3 7 -2 51 -10 97 -9 46 -17 116 -20 154
-3 39 -7 95 -10 125 -3 30 -8 98 -10 150 -2 52 -7 102 -10 110 -4 8 -7 101 -9
207 l-2 192 65 3 c36 2 77 4 93 5 27 2 27 2 28 -60z m-1307 47 c18 -7 21 -46
6 -74 -5 -10 -12 -42 -15 -72 -11 -124 -24 -113 -22 19 1 73 5 133 9 133 3 0
13 -3 22 -6z m1055 -26 c-1 -72 13 -405 19 -418 3 -8 7 -58 8 -112 1 -53 5
-118 8 -145 3 -26 7 -68 7 -93 1 -25 5 -65 10 -90 5 -25 10 -73 12 -107 l4
-62 -51 -10 c-28 -5 -77 -13 -108 -16 l-58 -6 0 38 c0 21 -5 56 -11 78 -6 22
-12 74 -14 115 -9 174 -15 263 -21 271 -3 5 -7 51 -9 102 -1 50 -6 130 -9 177
-4 47 -8 128 -11 182 l-4 96 87 7 c88 6 135 11 139 14 2 0 3 -9 2 -21z m-300
-20 c-1 -7 1 -24 4 -38 4 -14 9 -68 11 -120 3 -52 9 -129 15 -170 5 -42 10
-116 10 -164 0 -48 4 -102 10 -119 5 -18 12 -90 15 -162 3 -71 8 -154 12 -183
10 -78 -4 -98 -74 -106 -31 -4 -66 -9 -79 -12 -21 -6 -22 -3 -17 22 3 16 0 43
-7 59 -15 36 -14 26 -22 150 -4 55 -10 127 -13 160 -4 54 -8 355 -4 380 3 15
0 100 -6 202 -6 107 -16 98 129 111 10 1 17 -4 16 -10z m-221 -42 c0 -19 4
-41 8 -48 5 -7 10 -85 12 -173 6 -230 6 -242 0 -327 -4 -46 -2 -80 3 -84 6 -3
9 -36 8 -72 0 -37 2 -87 5 -112 3 -25 8 -79 10 -120 3 -41 7 -82 11 -91 5 -14
-5 -19 -58 -28 -82 -14 -103 -14 -105 2 0 6 -5 53 -11 102 -13 113 -5 815 10
907 11 71 15 75 76 77 29 1 31 -1 31 -33z m1369 -188 c-3 -8 -6 -5 -6 6 -1 11
2 17 5 13 3 -3 4 -12 1 -19z m-1544 -198 c-3 -128 -6 -508 -3 -540 2 -27 -7
-150 -11 -155 -3 -2 -25 -6 -50 -9 l-46 -6 3 148 c3 150 13 311 21 347 2 11 8
54 13 95 5 41 14 99 20 130 26 131 34 166 39 175 12 21 18 -55 14 -185z m1569
124 c4 -27 9 -71 12 -99 3 -27 6 -50 7 -50 14 0 29 -418 15 -433 -9 -9 -18 5
-21 32 -2 13 -6 32 -9 43 -3 10 -8 81 -11 157 -3 76 -8 143 -11 147 -2 5 -7
65 -11 135 -5 106 -4 126 8 122 8 -3 17 -26 21 -54z m-4147 -561 c151 -32 175
-37 260 -49 28 -3 59 -8 70 -11 11 -2 76 -13 145 -24 69 -12 141 -25 160 -30
47 -11 244 -47 300 -54 25 -4 59 -10 75 -15 17 -5 75 -16 130 -25 55 -9 141
-25 190 -36 50 -11 110 -22 135 -25 58 -7 84 -11 90 -14 6 -4 10 -4 75 -15 28
-4 91 -17 140 -28 50 -11 106 -21 125 -22 19 -1 46 -6 60 -11 14 -4 34 -9 45
-9 11 -1 32 -5 46 -9 26 -7 26 -9 27 -108 1 -90 -1 -99 -16 -93 -36 15 -80 25
-162 35 -122 16 -120 16 -175 28 -84 20 -191 42 -232 47 -21 4 -69 12 -108 20
-38 7 -103 19 -142 25 -40 7 -73 16 -73 21 0 6 -4 8 -9 5 -9 -6 -131 14 -216
34 -62 14 -195 39 -245 45 -25 3 -70 12 -100 19 -30 8 -75 17 -100 21 -89 13
-544 101 -607 117 -48 12 -49 14 -45 114 l4 74 41 -6 c23 -4 74 -13 112 -21z
m4208 -183 c0 -25 0 -70 -1 -101 l-2 -55 -52 -3 c-28 -1 -59 -6 -69 -12 -10
-5 -46 -13 -81 -18 -35 -5 -103 -16 -153 -25 -97 -16 -101 -17 -306 -46 -75
-11 -142 -22 -150 -24 -8 -3 -41 -7 -74 -10 -33 -3 -98 -13 -145 -20 -47 -8
-137 -22 -200 -31 -63 -9 -146 -20 -185 -26 -38 -5 -92 -12 -120 -15 -27 -3
-77 -10 -110 -15 -97 -15 -90 -22 -87 88 1 53 4 99 6 101 13 13 481 98 656
119 19 2 73 10 120 18 47 7 92 13 100 13 8 0 56 7 105 15 50 9 113 18 140 22
28 3 59 8 70 10 11 3 43 7 70 9 28 3 85 10 129 16 43 5 82 7 87 4 5 -3 9 0 9
5 0 6 21 11 48 12 26 0 56 4 67 8 11 4 44 8 74 7 l54 -1 0 -45z m-4248 -102
c22 -5 51 -10 64 -11 22 -2 23 -5 22 -77 -4 -227 -11 -428 -16 -446 -3 -16
-15 -23 -45 -28 -23 -3 -45 -4 -51 -1 -5 4 -28 8 -51 11 -24 3 -44 7 -45 8 -7
6 -11 417 -6 487 l6 77 41 -5 c22 -3 59 -9 81 -15z"/>
<path d="M2008 3690 c-31 -9 -49 -25 -67 -58 -10 -19 -15 -21 -33 -11 -53 28
-195 -23 -211 -76 -5 -16 -11 -37 -14 -45 -3 -8 -7 -19 -8 -25 -2 -5 -4 -14
-6 -20 -2 -5 4 -28 13 -50 16 -39 51 -73 116 -110 17 -11 32 -22 32 -26 0 -4
18 -26 39 -48 22 -23 41 -46 43 -51 8 -24 39 5 74 68 21 37 46 73 56 80 18 13
36 43 94 161 23 47 26 64 21 115 -4 49 -11 65 -32 83 -27 24 -67 28 -117 13z
m63 -80 c31 -17 25 -76 -16 -153 -20 -37 -48 -80 -63 -96 -15 -16 -34 -38 -43
-50 -15 -21 -16 -21 -53 14 -21 19 -42 35 -47 35 -5 0 -9 4 -9 9 0 5 -13 14
-29 21 -86 35 -91 115 -10 153 37 17 76 13 94 -9 6 -7 23 -16 38 -20 25 -6 29
-3 43 33 9 22 28 47 42 56 32 20 29 19 53 7z"/>
</g>
</svg>
