<?xml version="1.0" standalone="no"?>
<!DOCTYPE svg PUBLIC "-//W3C//DTD SVG 20010904//EN"
 "http://www.w3.org/TR/2001/REC-SVG-20010904/DTD/svg10.dtd">
<svg version="1.0" xmlns="http://www.w3.org/2000/svg"
 width="527.000000pt" height="445.000000pt" viewBox="0 0 527.000000 445.000000"
 preserveAspectRatio="xMidYMid meet">
<metadata>
Created by potrace 1.16, written by Peter Selinger 2001-2019
</metadata>
<g transform="translate(0.000000,445.000000) scale(0.100000,-0.100000)"
fill="#000000" stroke="none">
<path d="M3069 3996 c-2 -2 -101 -7 -219 -10 -118 -3 -249 -8 -290 -11 -103
-7 -384 -14 -775 -20 -181 -3 -364 -7 -405 -10 -90 -7 -198 -11 -470 -21 -229
-7 -243 -12 -234 -68 7 -44 21 -381 30 -691 2 -77 6 -225 9 -330 9 -346 17
-739 16 -775 -1 -19 -7 -38 -14 -42 -9 -6 -9 -8 1 -8 7 0 11 -4 8 -9 -13 -20
6 -67 31 -78 14 -7 30 -10 34 -7 5 3 9 -1 9 -8 0 -7 11 1 25 17 20 25 23 37
19 75 -3 25 -7 123 -9 218 l-3 173 117 -118 c65 -65 169 -174 231 -243 62 -69
123 -134 135 -145 12 -11 85 -87 161 -169 76 -83 159 -171 184 -197 25 -25 73
-76 108 -111 34 -36 62 -68 62 -70 0 -3 27 -34 61 -69 33 -35 86 -91 117 -124
31 -33 101 -107 157 -165 55 -58 114 -126 131 -151 l30 -47 0 -241 -1 -240 25
-3 c14 -2 40 1 58 7 30 9 39 27 32 60 -1 6 -3 100 -4 210 -2 155 1 203 11 213
11 11 117 13 571 12 306 -1 564 -1 572 -1 79 2 525 -1 715 -4 132 -3 263 -4
290 -3 95 4 167 -1 180 -12 9 -8 13 -50 13 -158 -1 -158 6 -277 17 -304 7 -19
25 -22 61 -12 26 7 41 39 36 74 -2 14 -5 102 -7 195 -2 94 -7 256 -10 360 -9
276 -15 534 -16 743 -1 178 -2 184 -23 191 -11 4 -74 5 -139 2 -65 -3 -122 -3
-126 2 -4 4 -35 8 -69 8 -34 1 -63 5 -63 10 -1 5 -2 13 -3 17 -1 8 -27 33 -80
80 -27 23 -116 153 -116 170 0 5 -14 22 -31 38 -16 16 -47 46 -67 68 -20 21
-57 48 -82 61 -25 13 -53 32 -64 44 -10 11 -23 18 -27 15 -5 -3 -9 -1 -9 4 0
6 -12 13 -26 16 -31 8 -51 27 -87 83 -15 23 -39 50 -54 60 -16 9 -41 30 -58
46 -49 48 -176 141 -235 172 -48 25 -124 87 -223 179 -15 14 -36 30 -47 36
-11 6 -20 17 -20 25 0 8 -4 15 -8 15 -14 0 -43 95 -42 136 0 21 -3 134 -7 249
-4 116 -8 280 -8 365 0 132 -2 157 -16 167 -9 7 -20 24 -23 38 -6 22 -33 34
-47 21z m-16 -336 c4 -118 7 -287 7 -374 0 -102 4 -164 11 -173 6 -7 8 -13 5
-13 -4 0 -2 -9 4 -20 13 -25 2 -26 -15 -3 -9 11 -28 18 -57 19 -23 1 -63 5
-88 9 -25 4 -51 8 -58 8 -9 0 -11 14 -6 57 5 48 -1 109 -22 223 -12 64 -31 76
-71 44 -17 -14 -44 -24 -68 -25 -22 -2 -62 -14 -89 -28 -28 -14 -76 -27 -110
-31 -34 -3 -69 -10 -78 -14 -26 -14 -222 -21 -252 -9 -15 5 -36 19 -48 30 -12
11 -38 22 -57 26 -20 3 -47 10 -61 17 -14 6 -52 12 -85 13 -33 1 -85 8 -115
14 -286 60 -290 60 -405 14 -23 -9 -67 -40 -65 -44 2 -3 -2 -15 -9 -27 -7 -15
-8 -23 -1 -23 5 0 19 -9 30 -20 12 -12 25 -18 30 -15 6 4 10 -7 10 -23 0 -16
7 -35 15 -42 8 -7 15 -19 15 -26 0 -8 4 -14 9 -14 5 0 12 -13 16 -30 4 -16 11
-32 16 -35 5 -4 9 -33 9 -66 l0 -60 -37 2 c-21 2 -43 6 -49 11 -6 4 -58 9
-115 10 -106 3 -110 2 -229 -48 -30 -13 -66 -26 -80 -30 -27 -7 -62 -32 -113
-79 l-32 -29 -7 124 c-4 69 -8 287 -10 484 l-3 360 114 2 c109 2 314 9 546 19
61 3 250 7 420 10 171 3 449 8 620 11 170 3 311 6 312 8 2 2 56 2 122 2 l118
-1 6 -215z m-1445 -274 c12 -7 64 -16 127 -21 29 -2 72 -9 94 -15 23 -6 58
-10 79 -9 63 2 155 -23 194 -52 31 -25 106 -48 131 -41 4 1 45 5 89 8 45 2 85
7 89 10 4 2 30 7 56 9 26 3 59 9 73 15 14 5 35 11 47 13 11 2 28 8 36 15 17
14 126 36 135 27 4 -3 12 -31 18 -62 8 -42 8 -79 -3 -161 -9 -64 -13 -162 -11
-242 3 -132 4 -136 41 -211 20 -42 37 -81 37 -85 0 -5 -17 -9 -37 -8 -149 5
-191 8 -213 17 -14 5 -54 11 -90 12 -36 2 -83 10 -105 18 -29 11 -53 13 -85 7
-56 -10 -254 -4 -340 10 -36 6 -81 13 -100 16 -19 2 -60 9 -90 15 -51 10 -60
9 -112 -15 -31 -14 -64 -26 -72 -26 -22 0 -62 -39 -85 -83 l-20 -39 -16 32
c-25 48 -23 143 4 220 68 190 81 351 36 456 -14 32 -31 71 -38 87 -6 15 -19
30 -29 33 -32 10 -21 40 20 52 65 20 106 19 140 -2z m1355 -370 c21 -8 40 -10
43 -5 3 5 10 7 15 3 5 -3 7 -9 5 -13 -3 -4 -1 -13 5 -21 6 -10 9 -11 9 -2 0 6
6 12 13 12 18 0 75 -28 82 -41 4 -5 13 -9 21 -9 8 0 26 -10 40 -22 14 -13 38
-34 53 -48 126 -113 205 -170 235 -170 6 0 46 -28 91 -62 44 -34 86 -67 94
-73 7 -5 25 -22 39 -37 15 -16 31 -28 36 -28 11 0 44 -38 61 -71 15 -29 80
-89 96 -89 6 0 31 -16 55 -34 25 -19 65 -45 90 -56 24 -12 44 -26 44 -31 0 -5
23 -30 50 -56 28 -26 50 -52 50 -57 0 -11 46 -81 73 -110 9 -11 17 -23 17 -27
0 -4 19 -26 43 -49 l42 -41 -70 1 c-38 0 -383 -2 -765 -6 -958 -9 -1094 -8
-1119 7 -16 11 -24 11 -44 0 -27 -15 -28 -19 -30 -298 -1 -95 -4 -173 -7 -173
-3 0 -28 21 -56 48 -28 26 -85 79 -128 117 -42 39 -97 88 -120 110 -24 22 -63
58 -87 79 -44 40 -105 95 -235 216 -39 36 -105 97 -148 135 -43 39 -97 88
-120 110 -23 22 -84 79 -136 126 -52 48 -169 159 -260 248 -190 187 -195 196
-131 254 22 20 59 41 83 47 24 7 54 18 68 25 14 7 55 22 91 34 54 18 73 20
108 12 24 -5 50 -7 57 -4 8 3 20 1 27 -5 7 -6 35 -13 62 -17 27 -3 50 -7 51
-8 5 -5 -20 -96 -45 -162 -22 -60 -26 -83 -24 -164 3 -83 6 -98 28 -127 14
-18 25 -36 25 -41 0 -4 11 -13 24 -19 30 -14 53 4 96 74 21 35 41 54 58 59 15
3 42 15 61 26 24 13 44 17 65 13 17 -4 50 -9 74 -11 24 -2 51 -7 61 -10 10 -3
35 -8 55 -10 19 -3 55 -9 78 -13 47 -9 270 -8 306 1 12 3 39 -1 59 -10 20 -8
62 -15 93 -15 30 0 60 -4 65 -8 31 -23 243 -30 371 -12 6 1 16 14 23 29 11 24
8 35 -27 107 -22 45 -45 95 -53 111 -16 37 -20 257 -5 267 17 12 77 8 119 -6z
m-2086 -375 c21 -19 70 -64 108 -100 39 -36 95 -88 125 -115 30 -27 98 -90
151 -140 114 -109 287 -269 348 -322 25 -22 64 -57 86 -79 23 -22 71 -67 106
-99 108 -100 294 -275 415 -393 l116 -111 -1 -153 c-1 -84 -3 -154 -5 -156 -6
-7 -459 461 -500 516 -12 16 -55 63 -96 104 -41 41 -115 119 -165 172 -49 53
-157 165 -240 249 -151 155 -365 380 -405 426 -12 14 -39 43 -60 66 -36 38
-38 45 -42 112 -3 78 -3 78 59 23z m3791 -882 l94 -4 3 -80 c2 -44 6 -206 10
-360 4 -154 8 -306 9 -337 l3 -58 -36 -7 c-20 -4 -49 -6 -66 -5 -16 1 -160 1
-320 -1 -597 -5 -1924 -2 -1930 4 -5 6 -9 468 -6 745 l1 101 97 2 c54 1 99 3
100 5 5 5 1933 0 2041 -5z"/>
</g>
</svg>
