<?xml version="1.0" standalone="no"?>
<!DOCTYPE svg PUBLIC "-//W3C//DTD SVG 20010904//EN"
 "http://www.w3.org/TR/2001/REC-SVG-20010904/DTD/svg10.dtd">
<svg version="1.0" xmlns="http://www.w3.org/2000/svg"
 width="459.000000pt" height="369.000000pt" viewBox="0 0 459.000000 369.000000"
 preserveAspectRatio="xMidYMid meet">
<metadata>
Created by potrace 1.16, written by Peter Selinger 2001-2019
</metadata>
<g transform="translate(0.000000,369.000000) scale(0.100000,-0.100000)"
fill="#000000" stroke="none">
<path d="M3687 3554 c-10 -10 -1120 -17 -2252 -14 -260 1 -272 -2 -287 -75 -5
-21 -12 -43 -17 -49 -4 -6 -14 -33 -21 -61 -7 -27 -17 -55 -22 -61 -4 -6 -13
-60 -18 -119 -6 -60 -13 -111 -15 -115 -3 -4 -7 -32 -10 -61 -4 -30 -15 -101
-25 -159 -11 -58 -24 -148 -30 -200 -6 -52 -13 -104 -16 -115 -9 -38 -12 -59
-13 -92 -1 -23 -6 -33 -16 -33 -12 0 -14 -7 -9 -27 9 -35 22 -44 54 -38 14 2
72 5 130 7 l105 3 -1 -35 c-1 -19 -9 -97 -18 -172 -9 -75 -16 -140 -16 -143 0
-3 -58 -5 -130 -5 -80 0 -130 -4 -130 -10 0 -5 -6 -10 -14 -10 -8 0 -17 -8
-20 -17 -3 -10 -17 -31 -31 -47 -14 -16 -25 -33 -25 -37 0 -4 -6 -14 -14 -21
-8 -8 -25 -37 -39 -64 -14 -27 -49 -80 -78 -119 -55 -74 -99 -153 -99 -178 0
-9 -6 -22 -13 -29 -7 -7 -22 -28 -32 -45 -11 -18 -22 -33 -26 -33 -4 0 -14
-18 -22 -39 -9 -22 -20 -42 -25 -45 -5 -3 -20 -34 -32 -68 -13 -35 -29 -68
-36 -74 -8 -6 -14 -19 -14 -29 0 -10 -7 -27 -17 -37 -20 -22 -20 -70 2 -100 8
-13 20 -40 26 -60 5 -20 16 -44 24 -52 9 -8 14 -19 13 -23 -8 -32 27 -61 48
-40 4 4 31 7 60 7 l52 0 6 -57 c3 -32 5 -65 5 -73 2 -81 10 -231 15 -255 5
-32 17 -160 20 -230 3 -51 8 -52 221 -47 118 2 164 7 174 17 20 19 17 129 -3
160 -11 17 -15 46 -15 98 0 41 -4 84 -10 95 -12 23 -16 302 -3 303 4 0 15 2
24 4 10 2 20 -1 24 -6 3 -5 10 -6 17 -2 17 11 72 7 70 -5 -1 -6 5 -34 13 -62
10 -35 13 -69 9 -100 -6 -43 -4 -49 19 -67 23 -19 37 -20 168 -16 191 5 186 3
193 61 3 26 10 69 14 96 5 27 5 62 1 78 -9 28 -8 28 38 28 169 2 826 -1 828
-3 1 -1 5 -40 8 -87 10 -158 15 -215 22 -240 3 -14 6 -32 6 -40 -1 -46 -14
-248 -16 -262 -2 -9 3 -19 12 -23 8 -3 96 -6 194 -6 148 0 184 2 204 16 21 14
31 41 24 70 -5 18 -12 209 -11 275 0 36 -6 99 -14 140 -7 41 -13 95 -12 119
l2 44 69 -1 c38 0 73 -5 78 -10 5 -5 4 -37 -2 -78 -6 -37 -8 -79 -5 -93 6 -23
8 -24 78 -17 89 9 95 10 132 25 17 7 42 11 58 8 15 -2 27 0 27 3 0 4 21 13 46
20 30 9 49 20 54 34 4 12 8 147 9 301 1 309 0 299 25 371 9 29 16 56 15 60 -1
5 1 18 6 29 14 36 80 170 86 175 27 22 30 63 10 130 -6 19 -11 58 -11 86 0 34
-5 56 -15 64 -8 7 -15 18 -15 26 0 26 -86 43 -150 29 -19 -4 -60 -8 -90 -9
l-55 -1 1 40 c3 84 17 219 28 264 l11 46 125 3 c69 2 150 3 181 3 67 0 84 14
94 77 10 71 34 203 50 277 15 72 41 270 51 385 2 36 9 94 14 130 5 36 12 101
15 144 3 44 10 85 16 93 7 8 8 13 1 13 -5 0 -13 11 -16 25 -4 15 -14 25 -24
25 -9 0 -23 9 -30 20 -12 20 -33 26 -45 14z m-74 -104 c5 0 5 -5 2 -10 -4 -6
-8 -20 -10 -33 -23 -147 -29 -169 -49 -176 -12 -5 -138 -8 -281 -9 -143 0
-485 -4 -760 -7 -275 -4 -590 -7 -700 -6 -110 0 -254 0 -320 0 -66 1 -136 0
-155 -1 -19 -1 -72 -1 -117 0 -72 2 -83 4 -83 20 0 23 49 174 61 187 5 5 9 16
9 25 0 13 122 15 1197 13 659 -2 1202 -3 1206 -3z m103 -42 c-2 -18 -7 -69
-11 -113 -4 -44 -9 -89 -12 -100 -5 -18 -7 -17 -28 9 -22 27 -22 32 -10 75 8
25 16 63 19 84 11 70 50 112 42 45z m-764 -248 c-16 -11 -32 -67 -36 -122 -5
-84 40 -168 91 -168 12 0 23 -4 23 -9 0 -12 -1498 -12 -1505 -1 -3 5 8 11 24
15 35 8 71 44 86 89 17 49 1 143 -26 151 -10 4 -19 11 -19 16 0 5 0 12 0 16 0
3 21 6 48 5 26 0 81 -1 122 -1 98 -1 1034 10 1037 12 1 1 38 2 82 2 44 1 77
-2 73 -5z m505 -3 c6 -4 14 -3 18 3 3 5 25 10 47 10 l41 0 -6 -37 c-4 -21 -11
-59 -16 -84 -5 -25 -12 -70 -16 -100 -10 -90 -1 -84 -132 -88 -206 -6 -342 -7
-337 -2 3 3 17 7 32 9 38 5 70 28 94 68 11 19 23 34 26 34 8 0 9 73 2 80 -3 3
-16 22 -30 42 -18 27 -36 40 -67 49 -24 6 -43 14 -43 18 0 9 373 7 387 -2z
m-1958 -12 c2 -3 -7 -5 -21 -5 -21 0 -30 -10 -54 -57 -36 -74 -42 -131 -16
-158 10 -11 17 -26 15 -32 -3 -7 4 -9 16 -6 12 3 21 1 21 -6 0 -6 6 -11 14
-11 8 0 17 -3 19 -7 3 -5 -87 -9 -200 -10 l-205 -2 6 32 c4 18 9 55 12 82 6
73 12 109 22 136 5 13 7 29 5 36 -3 9 26 13 114 15 132 3 244 0 252 -7z m2163
-40 c15 -14 25 -31 23 -38 -2 -6 -9 -61 -15 -122 -7 -60 -13 -119 -14 -130 -4
-27 -32 -31 -46 -6 -6 12 -17 21 -25 21 -17 0 -18 5 -6 28 5 9 12 53 16 96 4
43 9 88 12 100 3 12 7 33 10 49 6 33 11 34 45 2z m-539 -77 c3 -12 2 -29 -3
-37 -8 -13 -9 -12 -10 6 0 12 -3 28 -6 37 -3 9 -2 16 4 16 5 0 12 -10 15 -22z
m359 -288 c-3 -66 -27 -187 -54 -277 -11 -37 19 -33 -288 -33 -69 -1 -572 -3
-1119 -6 l-993 -4 7 71 c4 40 11 86 16 103 5 17 9 57 9 89 0 39 5 63 15 74 9
8 19 13 22 9 3 -3 13 0 21 7 12 9 147 13 576 15 309 1 572 3 586 5 14 1 291 2
615 2 l590 0 -3 -55z m118 -16 c29 -25 31 -30 25 -78 -3 -28 -14 -87 -24 -131
l-17 -80 -43 -1 c-50 -2 -49 -16 -12 156 11 52 21 110 21 128 0 39 9 40 50 6z
m-2013 -412 c-3 -20 -13 -77 -21 -127 -9 -49 -16 -109 -16 -131 0 -23 -6 -46
-12 -52 -19 -15 -255 -19 -270 -4 -7 7 19 265 29 292 3 8 5 23 4 32 -2 18 29
22 208 25 l83 2 -5 -37z m1197 13 c-3 -11 -8 -28 -11 -38 -2 -10 -6 -41 -8
-70 -2 -29 -7 -91 -11 -140 l-7 -87 -276 -1 c-152 0 -298 -1 -326 0 -27 0
-157 0 -287 1 l-238 1 0 43 c0 38 34 271 45 302 2 7 169 11 564 10 559 0 561
0 555 -21z m381 -38 c-2 -34 -6 -75 -9 -92 -3 -16 -8 -66 -11 -109 -3 -44 -10
-83 -15 -86 -6 -3 -76 -6 -158 -6 l-147 1 2 55 c3 83 13 192 20 220 4 14 8 30
8 35 7 43 11 44 165 44 l148 0 -3 -62z m-940 -378 c6 0 170 0 365 1 195 1 360
0 365 -1 6 -1 15 0 20 1 24 7 365 6 365 -1 0 -4 14 -4 31 1 36 11 51 -10 26
-38 -8 -9 -19 -29 -22 -45 -4 -15 -11 -30 -16 -33 -5 -3 -9 -13 -9 -23 0 -16
-12 -20 -74 -26 -41 -3 -126 -6 -188 -6 -62 1 -246 -1 -408 -4 -162 -2 -545
-5 -850 -4 -305 0 -655 0 -778 0 -170 0 -221 3 -215 12 15 27 97 143 109 154
6 7 46 13 90 15 59 2 1126 0 1189 -3z m1258 -124 c3 -55 0 -77 -14 -105 -10
-19 -24 -48 -30 -65 l-11 -30 -9 24 c-5 13 -16 39 -25 56 -15 31 -14 35 8 72
13 21 32 60 42 86 10 27 22 45 26 40 4 -4 10 -39 13 -78z m-1563 -118 c0 -5 5
-5 10 -2 20 12 1337 17 1345 5 8 -13 -14 -110 -25 -110 -4 0 -15 -20 -24 -45
-8 -25 -29 -66 -45 -91 -17 -25 -31 -49 -31 -53 0 -5 -17 -42 -39 -82 -21 -41
-42 -91 -45 -111 -4 -21 -10 -38 -14 -38 -4 0 -15 -14 -24 -30 -19 -34 -57
-53 -75 -38 -7 5 -17 6 -24 2 -25 -15 -2436 -21 -2451 -6 -10 10 21 91 73 195
21 41 35 57 50 57 11 0 30 5 42 12 39 20 2408 9 2415 -12 6 -15 61 11 68 32
10 32 -16 39 -137 39 -60 0 -122 4 -138 9 -16 4 -32 5 -36 2 -12 -12 -232 -13
-1020 -7 -280 2 -657 5 -837 6 l-326 3 19 24 c10 14 19 30 19 36 0 6 27 54 60
106 l60 95 108 5 c172 9 1022 6 1022 -3z m1450 -135 c5 -20 6 -39 1 -42 -4 -3
-16 -26 -26 -52 -10 -27 -21 -48 -25 -48 -8 0 -40 -66 -40 -83 0 -7 -8 -29
-18 -48 l-18 -36 -22 38 c-25 42 -21 90 8 124 10 11 37 62 60 112 47 101 60
106 80 35z m-30 -322 c-4 -30 -6 -134 -4 -232 3 -162 2 -178 -16 -198 -15 -17
-33 -23 -73 -26 -29 -1 -73 -10 -98 -18 -68 -24 -69 -23 -63 37 5 56 22 107
34 107 9 0 45 71 42 83 -1 4 5 7 13 7 8 0 15 6 15 14 0 8 8 17 19 21 17 5 49
62 54 97 2 8 10 23 20 32 9 9 22 36 28 59 11 44 28 81 34 75 1 -1 -1 -28 -5
-58z m-156 -72 c4 -20 0 -31 -19 -50 -14 -12 -25 -27 -25 -33 0 -14 -44 -95
-51 -95 -3 0 -12 11 -19 25 -7 14 -18 25 -24 25 -6 0 -1 7 10 14 12 8 29 37
39 63 10 26 25 58 33 71 8 12 11 22 8 22 -4 0 -1 6 6 14 11 12 15 11 24 -7 6
-12 14 -34 18 -49z m-474 -141 c257 -6 264 -7 288 -53 11 -21 9 -21 -81 -27
-51 -4 -450 -7 -887 -8 -437 0 -824 -2 -860 -4 -36 -2 -192 -5 -348 -6 l-283
-2 -24 29 c-27 33 -28 34 -16 52 6 10 62 14 222 19 118 3 215 6 216 7 4 3
1581 -3 1773 -7z m-1240 -170 c0 -8 4 -7 12 1 7 7 14 12 18 12 4 0 5 -121 0
-145 -1 -5 -2 -13 -1 -17 1 -9 -36 -19 -64 -16 -11 1 -55 -2 -97 -6 l-78 -8 0
40 c0 21 -5 53 -11 71 -6 17 -8 39 -3 49 4 9 7 20 6 23 -1 4 48 7 108 7 75 0
110 -3 110 -11z m1315 -6 c3 -10 5 -43 4 -72 -1 -30 6 -74 14 -99 15 -46 20
-147 17 -327 l-1 -63 -120 -2 c-65 -1 -129 -2 -141 -2 -15 -1 -22 4 -20 13 11
52 2 444 -11 457 -4 4 -7 31 -7 61 l0 53 129 -1 c117 0 131 -2 136 -18z
m-1843 -13 c3 -49 7 -127 10 -213 2 -49 7 -96 12 -104 5 -8 11 -48 13 -90 2
-42 11 -93 20 -114 9 -20 13 -40 10 -44 -7 -6 -94 -7 -209 -3 -67 3 -68 3 -73
34 -11 60 -25 253 -30 393 -4 127 -2 143 13 152 9 6 65 11 125 11 104 0 107
-1 109 -22z"/>
</g>
</svg>
