<?xml version="1.0" standalone="no"?>
<!DOCTYPE svg PUBLIC "-//W3C//DTD SVG 20010904//EN"
 "http://www.w3.org/TR/2001/REC-SVG-20010904/DTD/svg10.dtd">
<svg version="1.0" xmlns="http://www.w3.org/2000/svg"
 width="459.000000pt" height="435.000000pt" viewBox="0 0 459.000000 435.000000"
 preserveAspectRatio="xMidYMid meet">
<metadata>
Created by potrace 1.16, written by Peter Selinger 2001-2019
</metadata>
<g transform="translate(0.000000,435.000000) scale(0.100000,-0.100000)"
fill="#000000" stroke="none">
<path d="M3340 4199 c-36 -3 -324 -6 -640 -8 -316 -1 -665 -4 -775 -6 -301 -7
-889 -6 -944 1 -65 8 -86 -5 -107 -68 -9 -29 -32 -86 -51 -127 -18 -41 -31
-76 -29 -78 2 -3 -6 -26 -19 -51 -29 -59 -85 -188 -85 -196 0 -4 -16 -40 -35
-80 -19 -41 -35 -81 -35 -89 0 -9 -9 -36 -20 -61 -11 -26 -20 -50 -21 -54 -1
-4 -12 -29 -24 -57 -12 -27 -26 -61 -29 -75 -4 -14 -14 -39 -21 -56 -42 -92
-85 -197 -85 -206 0 -6 -18 -49 -40 -95 -22 -47 -40 -89 -40 -95 0 -5 -9 -22
-19 -37 -10 -14 -20 -33 -22 -41 -5 -28 13 -69 32 -75 20 -7 26 -25 9 -25 -5
0 -10 4 -10 9 0 11 -70 3 -83 -9 -7 -6 -14 -167 -19 -445 -1 -49 3 -137 8
-195 8 -99 9 -209 2 -360 -3 -62 0 -71 55 -185 32 -66 71 -145 85 -175 15 -30
29 -57 32 -60 8 -8 51 -103 54 -120 4 -29 30 -90 37 -90 4 0 20 -26 34 -57 15
-31 34 -63 41 -71 8 -7 14 -18 14 -23 0 -19 2 -24 14 -39 21 -26 66 -126 66
-148 0 -12 5 -22 10 -22 6 0 10 -4 10 -10 0 -5 14 -33 32 -61 17 -29 42 -80
54 -113 20 -55 25 -61 53 -64 25 -3 31 -8 31 -27 0 -26 8 -34 42 -41 13 -2 37
-7 53 -10 29 -6 475 -7 525 -1 14 2 41 -1 60 -5 46 -10 67 -2 83 30 10 20 11
37 4 62 -5 19 -11 61 -13 93 l-4 57 92 1 c93 1 337 -1 588 -3 74 -1 281 0 460
1 543 4 677 2 688 -12 5 -7 9 -41 9 -76 0 -48 4 -67 16 -76 10 -7 17 -17 17
-22 0 -36 50 -42 368 -46 152 -2 194 1 201 11 6 10 10 9 14 -7 5 -21 47 -37
72 -27 30 11 35 53 25 174 -6 64 -13 198 -15 297 -10 409 -15 547 -20 556 -5
7 -7 101 -5 249 1 32 -21 110 -30 110 -4 0 -15 17 -26 37 -10 21 -31 58 -45
83 -33 58 -79 175 -79 199 0 11 8 22 19 26 10 3 33 19 50 36 17 16 43 34 56
39 13 5 36 29 51 52 15 24 31 44 35 46 5 2 16 28 25 58 8 29 20 56 25 60 5 3
7 9 4 14 -3 5 3 19 14 32 11 13 29 33 40 46 29 34 54 154 39 187 -8 19 -8 31
0 48 66 133 53 183 -40 146 -26 -10 -48 -16 -48 -13 0 4 -9 -5 -21 -20 -13
-17 -30 -26 -48 -26 -25 0 -86 -36 -101 -59 -3 -6 -17 -12 -30 -15 -14 -3 -45
-10 -70 -16 -49 -10 -198 -19 -206 -11 -2 3 -14 6 -26 8 -12 2 -27 8 -33 13
-7 6 -20 7 -29 4 -10 -4 -26 1 -39 13 -12 12 -39 24 -59 27 -21 4 -41 13 -45
20 -5 7 -18 18 -31 25 -12 7 -20 16 -17 21 5 9 -13 17 -56 25 -27 5 -38 15
-17 15 9 0 20 17 27 43 7 23 17 47 22 52 4 6 10 24 13 41 3 17 20 64 37 105
17 41 32 81 34 89 10 38 102 286 130 345 15 34 39 100 60 163 7 24 18 48 23
55 5 7 22 50 37 97 15 47 35 101 43 120 9 19 17 37 17 40 4 23 28 80 34 80 19
0 27 45 16 89 -16 62 -39 72 -182 77 -64 3 -137 7 -162 10 -82 8 -125 9 -191
3z m275 -164 c28 -2 51 -4 52 -4 1 -1 -21 -65 -49 -143 -114 -321 -150 -426
-167 -488 -29 -99 -132 -394 -141 -400 -4 -3 -13 -25 -20 -50 -7 -25 -17 -51
-22 -57 -6 -7 -8 -19 -5 -27 3 -8 1 -17 -6 -19 -8 -3 -6 -11 7 -26 26 -29 17
-34 -40 -24 -59 10 -244 10 -334 -1 -97 -11 -201 -7 -224 10 -11 8 -27 14 -34
14 -8 0 -25 9 -38 19 -19 15 -31 18 -54 11 -27 -8 -29 -6 -26 13 2 12 -5 34
-15 49 -11 14 -19 33 -19 41 0 9 -9 19 -20 22 -11 3 -20 10 -20 14 0 15 -52
61 -69 61 -9 0 -21 10 -26 23 -8 18 -17 22 -45 20 -19 -2 -44 -3 -55 -3 -79
-1 -94 0 -99 8 -7 12 -98 -4 -107 -19 -4 -7 -11 -9 -17 -5 -5 3 -29 -1 -52 -9
-35 -12 -49 -13 -77 -3 -28 10 -42 9 -87 -6 -38 -13 -66 -17 -93 -12 -60 11
-194 9 -241 -3 -30 -9 -46 -19 -52 -37 -5 -13 -19 -44 -30 -68 -11 -25 -20
-49 -20 -53 0 -4 -33 -8 -72 -9 -40 0 -102 -6 -138 -12 -36 -6 -85 -14 -109
-17 -24 -3 -47 -8 -51 -10 -5 -3 -32 -7 -62 -10 -87 -9 -120 -16 -173 -37
-113 -46 -130 -59 -103 -86 6 -6 13 -26 15 -44 2 -19 13 -41 27 -53 13 -11 27
-30 31 -42 3 -13 10 -23 15 -23 7 0 14 -28 27 -115 3 -22 10 -45 15 -52 5 -7
7 -21 4 -31 -4 -11 0 -24 9 -32 12 -10 27 -7 80 14 36 14 79 26 96 26 17 0 39
5 49 10 12 7 34 7 60 1 24 -5 40 -5 40 0 0 6 9 5 21 -1 13 -7 25 -8 32 -2 15
12 62 24 105 27 27 2 32 -1 32 -21 0 -28 -49 -65 -79 -59 -11 2 -21 1 -21 -3
0 -15 -96 -37 -162 -38 -72 -1 -142 -17 -172 -39 -19 -15 -19 -28 0 -149 4
-21 1 -64 -6 -94 -11 -50 -11 -56 6 -66 26 -14 34 -14 73 1 18 7 37 11 41 8 5
-3 28 3 52 14 31 13 50 16 67 9 14 -5 43 -6 67 -2 30 4 45 2 55 -9 12 -12 15
-12 29 1 13 14 15 14 18 -1 2 -9 8 -17 13 -17 5 0 19 -9 31 -20 12 -11 30 -20
39 -20 10 0 24 -7 33 -15 8 -8 30 -15 50 -15 41 0 81 -16 115 -47 33 -31 79
-53 111 -53 15 0 30 -3 34 -7 3 -4 12 -8 19 -9 7 -1 18 -3 25 -5 20 -6 36 24
29 53 -6 22 -14 27 -49 31 -67 8 -101 19 -122 38 -28 26 -96 57 -136 60 -19 2
-46 11 -59 21 -13 10 -32 18 -42 18 -10 0 -20 4 -24 9 -8 14 28 103 64 156 17
25 31 48 31 51 0 2 31 47 70 99 38 52 70 99 70 105 0 5 5 10 10 10 6 0 10 6
10 13 0 8 11 24 25 37 14 13 25 29 25 37 0 7 4 13 9 13 8 0 22 24 75 127 11
24 27 43 34 43 19 0 16 79 -4 87 -8 3 -20 1 -27 -6 -6 -6 -26 -11 -44 -11 -18
0 -52 -5 -75 -11 -31 -8 -60 -9 -101 -2 -32 6 -59 7 -61 4 -2 -3 -30 -7 -63
-9 -41 -2 -54 0 -43 8 8 5 11 10 6 10 -5 0 -3 6 3 14 10 12 58 135 77 196 8
26 41 40 102 46 31 2 69 7 83 9 15 2 29 1 33 -2 14 -15 86 -13 148 3 60 16 69
16 85 3 22 -18 29 -18 70 4 43 23 57 22 43 -2 -9 -17 -8 -174 1 -211 2 -8 12
-23 22 -35 10 -11 25 -34 32 -52 8 -19 26 -37 47 -46 94 -41 117 -49 126 -43
6 3 34 11 63 16 105 20 184 69 227 142 l15 27 59 -31 c32 -17 63 -38 68 -48 5
-10 26 -24 47 -33 21 -8 51 -27 66 -41 18 -17 38 -25 55 -24 41 3 92 -23 99
-51 4 -15 -1 -38 -13 -60 -30 -57 -87 -146 -96 -149 -4 -2 -8 -9 -8 -15 0 -16
-55 -67 -71 -67 -7 0 -33 22 -58 50 -27 28 -57 51 -73 54 -15 2 -37 14 -50 25
-12 12 -27 21 -34 21 -19 0 -54 -68 -61 -119 -3 -25 -11 -55 -18 -66 -6 -11
-20 -44 -29 -72 -10 -29 -21 -53 -26 -53 -4 0 -11 -11 -14 -25 -9 -37 -62
-120 -74 -118 -6 2 -9 -4 -5 -12 3 -10 -14 -35 -51 -71 -31 -30 -56 -58 -56
-62 0 -4 -11 -19 -24 -34 -24 -28 -25 -29 -146 -28 -75 0 -155 10 -158 19 -2
6 -14 11 -27 11 -31 0 -50 -49 -30 -77 11 -14 28 -18 87 -20 40 -1 117 -3 170
-5 67 -2 103 1 115 10 9 6 14 12 10 12 -10 0 6 20 81 99 34 36 62 71 62 77 0
6 7 17 15 24 13 10 20 8 41 -14 15 -14 35 -26 45 -26 10 0 21 -5 24 -10 3 -5
26 -10 50 -10 24 0 46 -4 50 -9 6 -10 39 -7 90 9 39 11 198 5 203 -9 4 -12 52
7 52 21 0 15 19 8 29 -10 5 -10 12 -36 15 -58 4 -22 15 -58 26 -80 l20 -39
-87 -5 c-79 -4 -1631 -4 -1860 0 -72 2 -97 6 -113 20 -11 9 -20 22 -20 27 0 6
-7 16 -15 23 -20 17 -145 218 -145 234 0 6 -4 16 -10 22 -13 13 -80 125 -80
134 0 4 -8 18 -19 31 -21 28 -181 332 -181 346 0 5 41 10 92 12 51 1 96 5 100
7 4 3 8 16 8 28 0 34 -47 50 -136 48 -95 -3 -94 -14 -13 208 21 58 45 125 53
150 24 71 66 182 81 215 8 17 23 57 34 90 11 33 38 105 59 160 41 104 84 215
107 275 7 19 39 98 70 175 54 133 75 174 75 147 0 -9 31 -11 128 -8 354 14
528 17 1246 21 429 3 782 8 785 11 5 4 327 -3 456 -11z m-1305 -1030 c8 -14
22 -25 34 -25 20 0 76 -58 76 -79 0 -5 10 -17 21 -25 l21 -15 -20 -29 c-23
-31 -93 -91 -129 -110 -26 -14 -63 -16 -63 -3 0 5 -10 13 -22 16 -13 4 -37 14
-53 21 -30 14 -31 15 -28 82 2 76 5 95 15 102 4 3 1 19 -8 35 -19 37 -5 48 57
41 25 -2 52 0 60 5 21 13 24 12 39 -16z m-993 -232 c3 -7 -2 -26 -10 -43 -26
-51 -30 -86 -12 -104 18 -18 41 -21 50 -6 7 11 107 15 241 11 22 -1 52 2 66 8
46 17 50 -1 13 -58 -19 -29 -35 -56 -35 -60 0 -7 -35 -56 -69 -97 -5 -6 -16
-24 -25 -40 -9 -16 -37 -56 -61 -89 -25 -33 -48 -67 -52 -75 -3 -8 -12 -22
-20 -31 -19 -23 -83 -130 -83 -139 0 -5 -13 -15 -28 -23 -20 -10 -57 -13 -131
-10 -57 2 -108 0 -114 -6 -13 -10 -83 -18 -90 -11 -3 3 -7 34 -10 70 -3 36 -9
75 -12 87 -6 19 -2 23 37 34 41 11 116 14 126 4 2 -2 20 2 39 10 19 8 39 12
44 9 5 -3 9 0 9 5 0 6 14 11 30 11 44 0 126 41 144 72 9 14 16 42 16 62 0 20
5 36 10 36 12 0 13 20 2 37 -10 16 -72 24 -95 11 -13 -7 -22 -7 -29 0 -7 7
-19 7 -37 0 -14 -6 -62 -10 -107 -9 -54 1 -101 -5 -145 -18 -88 -26 -114 -30
-130 -17 -14 11 -16 27 -22 126 -1 35 -7 47 -23 54 -11 5 -27 23 -34 40 -7 17
-15 34 -17 37 -2 4 2 13 9 20 7 8 13 21 13 29 0 8 5 15 10 15 6 0 15 3 20 6 6
3 39 11 75 18 88 16 160 30 190 37 14 3 45 7 70 9 25 2 61 7 80 13 37 9 87 -9
97 -35z m1998 -49 c61 -6 76 -12 126 -51 32 -24 74 -50 93 -58 19 -8 39 -22
44 -30 5 -9 28 -18 58 -21 27 -4 54 -10 59 -14 20 -15 91 -19 122 -8 23 8 39
9 55 1 18 -8 26 -7 36 3 7 8 21 14 31 14 10 0 32 7 47 15 16 8 38 15 49 15 12
0 38 16 58 35 21 20 42 33 47 30 6 -4 33 6 60 21 54 29 70 27 52 -9 -6 -12
-14 -33 -17 -46 -14 -47 -71 -129 -128 -180 -31 -29 -57 -49 -57 -45 0 4 -5 3
-12 -4 -7 -7 -19 -12 -28 -12 -9 0 -33 -9 -55 -20 -47 -24 -156 -28 -174 -6
-37 44 -117 5 -91 -44 8 -15 17 -18 40 -13 21 4 30 2 30 -7 0 -21 163 -7 240
20 80 28 120 50 120 67 0 7 4 13 8 13 16 0 84 72 97 103 12 26 14 28 15 10 0
-36 -16 -66 -69 -123 -28 -30 -51 -61 -51 -67 0 -11 -8 -14 -35 -13 -3 0 -30
-18 -60 -40 -30 -22 -65 -44 -77 -49 -13 -4 -129 -7 -258 -6 -159 1 -237 -2
-242 -9 -5 -7 -18 0 -36 20 -15 17 -40 39 -55 49 -15 9 -27 22 -27 29 0 22
-65 56 -118 59 -51 4 -74 -4 -111 -41 -8 -8 -31 -24 -52 -37 -25 -16 -46 -43
-65 -80 -15 -31 -34 -59 -43 -61 -43 -13 -104 -50 -113 -70 -14 -30 13 -78 52
-94 22 -9 30 -19 30 -37 0 -19 -3 -23 -12 -15 -13 10 -35 9 -90 -4 -15 -3 -40
-2 -56 4 -21 7 -47 6 -95 -5 -63 -14 -71 -14 -136 6 -50 15 -72 27 -76 41 -7
22 -20 26 -30 10 -4 -6 -11 -8 -16 -4 -6 3 1 20 16 40 14 19 23 34 20 34 -4 0
5 20 19 45 15 25 25 45 22 45 -3 0 9 30 26 67 17 36 32 81 32 99 1 27 4 31 18
23 9 -5 28 -9 42 -9 17 0 31 -9 43 -27 21 -34 61 -73 73 -73 5 0 13 -7 18 -17
9 -15 12 -14 38 4 49 35 174 190 174 216 0 5 13 26 29 46 40 51 45 86 20 138
-16 33 -31 47 -67 63 -26 12 -58 22 -73 24 -44 5 -56 18 -28 29 60 24 314 30
494 11z m-85 -452 c0 -5 15 -16 34 -25 36 -17 50 -27 122 -92 42 -38 44 -42
34 -74 -8 -30 -7 -37 15 -57 14 -13 25 -33 25 -45 0 -20 -1 -21 -25 -5 -38 25
-80 20 -104 -11 -24 -30 -30 -28 -33 11 -1 15 -8 32 -15 38 -7 6 -13 19 -13
29 0 34 -23 68 -54 79 -17 6 -39 16 -48 21 -10 5 -45 10 -78 10 -33 1 -60 5
-60 9 0 12 31 46 78 84 34 28 53 36 83 36 21 0 39 -4 39 -8z m866 -70 c-9 -17
-28 -39 -43 -51 -16 -11 -43 -33 -61 -48 -18 -15 -70 -40 -115 -55 -85 -29
-115 -31 -207 -10 -25 6 -74 15 -109 21 -35 6 -65 12 -66 13 -1 2 -5 22 -9 45
l-6 43 117 -6 c65 -4 141 -6 168 -5 28 0 68 0 90 0 92 -1 107 2 158 33 106 66
107 66 83 20z m-3638 -82 c16 -30 57 -104 91 -164 34 -60 61 -112 61 -117 0
-4 6 -12 13 -16 7 -4 18 -19 24 -33 7 -14 24 -43 38 -65 13 -22 29 -50 35 -63
5 -12 22 -48 38 -80 30 -60 32 -65 32 -83 0 -5 14 -15 30 -20 26 -9 30 -16 31
-47 0 -21 2 -198 4 -395 l2 -358 -94 188 c-53 104 -116 229 -141 278 -25 50
-53 110 -62 135 -10 25 -29 68 -44 94 -15 27 -34 70 -42 95 -9 25 -27 70 -42
100 -14 29 -25 58 -24 65 1 9 9 340 11 500 1 27 3 47 5 45 2 -2 17 -29 34 -59z
m2696 -68 c16 -12 37 -22 47 -22 11 0 19 -5 19 -11 0 -6 6 -25 13 -42 19 -43
37 -101 37 -115 0 -9 -9 -8 -32 4 -22 12 -36 14 -48 7 -8 -6 -29 -13 -45 -17
-17 -4 -50 -23 -75 -42 l-45 -36 -14 49 c-7 26 -22 60 -32 74 -10 14 -18 37
-17 50 2 46 -2 55 -33 73 -36 21 -30 32 26 45 71 16 167 8 199 -17z m521 -70
c22 -6 55 -13 73 -17 37 -9 40 -18 11 -39 -28 -19 -125 -10 -158 15 -13 11
-34 19 -46 19 -22 0 -40 24 -31 39 5 8 86 -2 151 -17z m-96 -103 c23 -21 57
-28 164 -33 l59 -3 28 -52 c16 -28 29 -55 31 -59 1 -4 5 -17 10 -30 5 -13 9
-24 9 -25 0 -1 -137 -3 -305 -4 -256 -2 -305 0 -305 12 0 8 4 16 9 19 5 3 8
19 7 34 l-2 28 39 -18 c59 -29 100 -7 168 93 22 32 45 59 52 59 7 0 23 -9 36
-21z m-149 -10 c0 -23 -21 -47 -50 -57 -28 -10 -31 -9 -44 17 -11 21 -12 31
-3 40 14 14 97 15 97 0z m-204 -109 c1 -44 -15 -82 -33 -76 -7 3 -13 1 -13 -4
0 -6 -27 -10 -60 -10 -56 0 -60 2 -60 23 1 37 50 85 102 97 53 13 63 8 64 -30z
m569 -265 c17 -3 40 -7 53 -10 12 -3 22 -1 22 5 0 5 8 10 19 10 22 0 31 -26
31 -90 0 -25 5 -63 11 -85 6 -22 13 -69 14 -105 3 -67 11 -171 20 -275 5 -66
17 -366 18 -455 l0 -55 -54 -6 c-30 -3 -126 -5 -214 -5 l-160 1 -3 91 c-2 83
-5 93 -28 115 l-26 24 -386 -4 c-213 -2 -654 -5 -980 -5 -590 -1 -594 -1 -611
-22 -16 -21 -20 -106 -7 -159 11 -43 -4 -48 -145 -49 -74 -1 -140 2 -146 7 -9
6 -13 5 -13 -2 0 -6 -7 -11 -15 -11 -8 0 -15 4 -15 10 0 5 -10 6 -22 2 -20 -6
-93 -7 -163 -3 -39 2 -55 91 -61 331 -10 476 -11 729 -2 724 5 -3 15 1 21 9 7
9 23 17 37 19 40 6 2772 0 2805 -7z"/>
<path d="M2034 2515 c-46 -48 -44 -69 7 -92 17 -7 31 -8 43 -1 16 9 36 15 59
17 13 2 7 29 -8 35 -8 3 -15 16 -15 29 0 16 -9 28 -26 36 -23 10 -29 8 -60
-24z"/>
<path d="M1943 2340 c-37 -15 -26 -77 16 -100 16 -8 22 -3 40 35 11 24 18 51
15 60 -7 17 -37 19 -71 5z"/>
</g>
</svg>
