<?xml version="1.0" standalone="no"?>
<!DOCTYPE svg PUBLIC "-//W3C//DTD SVG 20010904//EN"
 "http://www.w3.org/TR/2001/REC-SVG-20010904/DTD/svg10.dtd">
<svg version="1.0" xmlns="http://www.w3.org/2000/svg"
 width="347.000000pt" height="411.000000pt" viewBox="0 0 347.000000 411.000000"
 preserveAspectRatio="xMidYMid meet">
<metadata>
Created by potrace 1.16, written by Peter Selinger 2001-2019
</metadata>
<g transform="translate(0.000000,411.000000) scale(0.100000,-0.100000)"
fill="#000000" stroke="none">
<path d="M557 3908 c-9 -7 -19 -24 -22 -37 -2 -14 -7 -193 -10 -400 -4 -206
-8 -378 -10 -381 -2 -3 -3 -191 -3 -416 1 -378 1 -1768 0 -2034 -1 -63 1 -168
2 -234 4 -112 5 -120 30 -144 25 -25 30 -26 153 -28 71 -1 274 -5 453 -9 179
-4 406 -9 505 -11 818 -15 1203 -24 1350 -29 l121 -4 33 28 c27 23 33 34 29
55 -3 14 -1 26 4 26 5 0 6 9 3 21 -4 11 -9 231 -11 487 -8 1045 -13 1411 -20
1487 -3 44 -7 91 -6 105 1 310 14 1226 17 1312 3 71 1 126 -5 140 l-11 23
-222 -2 c-388 -3 -1107 -1 -1237 3 -69 3 -262 7 -430 9 -168 3 -332 7 -365 9
-33 3 -100 5 -149 7 -83 2 -131 8 -166 23 -9 4 -23 1 -33 -6z m743 -123 c151
-3 417 -7 590 -11 173 -3 365 -7 425 -9 137 -5 724 -18 746 -17 13 0 18 -12
22 -51 7 -65 0 -602 -9 -757 -10 -173 -11 -731 -1 -765 10 -37 24 -1493 15
-1720 0 -11 1 -48 2 -83 2 -34 0 -65 -3 -68 -7 -8 -349 -5 -1302 12 -121 2
-267 3 -325 3 -137 -1 -127 -1 -185 4 -27 3 -183 8 -345 12 -162 3 -299 10
-303 14 -16 15 -23 137 -16 261 0 8 -2 191 -5 405 -5 328 -13 1146 -15 1535
-1 150 7 563 13 706 3 67 7 213 10 324 2 135 7 205 15 209 11 7 109 6 671 -4z"/>
<path d="M1700 3490 c0 -5 -8 -10 -19 -10 -35 0 -54 -126 -26 -180 28 -54 155
-54 213 1 62 58 24 154 -42 104 -10 -7 -15 -18 -12 -23 10 -17 -27 -41 -56
-35 -32 6 -41 35 -27 87 6 21 8 44 5 52 -6 16 -36 19 -36 4z"/>
<path d="M1424 2762 c-19 -16 -20 -27 -17 -332 2 -173 6 -351 10 -395 5 -44 6
-125 3 -180 -6 -127 -3 -165 16 -165 8 0 14 -7 14 -16 0 -8 13 -29 30 -47 16
-18 30 -35 30 -38 0 -3 16 -26 35 -50 19 -24 35 -47 35 -52 0 -4 15 -29 33
-55 18 -26 38 -58 45 -72 26 -50 41 -75 55 -85 19 -14 67 -92 60 -98 -8 -9 77
-45 112 -49 17 -1 35 1 41 5 13 7 273 2 370 -9 l61 -6 8 43 c5 24 9 127 10
229 l2 185 -44 115 c-24 63 -47 116 -53 118 -5 2 -19 23 -31 48 -13 24 -26 44
-31 44 -4 0 -15 14 -23 31 -9 16 -31 47 -49 67 -18 20 -57 84 -87 141 -59 115
-57 102 -50 341 2 94 -6 225 -17 265 -7 24 -14 29 -33 27 -30 -3 -270 -1 -410
3 -86 2 -109 0 -125 -13z m411 -96 c76 -3 94 -17 90 -68 -3 -38 -9 -131 -20
-310 -2 -32 -6 -62 -10 -68 -3 -5 -1 -10 4 -10 6 0 11 -7 11 -15 0 -7 6 -18
14 -22 7 -4 29 -37 49 -73 76 -140 94 -171 120 -202 57 -68 97 -123 97 -134 0
-6 14 -30 30 -52 17 -23 30 -51 30 -62 0 -18 -7 -19 -100 -17 -55 1 -100 6
-100 11 0 4 -7 6 -15 2 -8 -3 -33 1 -56 9 -23 9 -49 14 -58 13 -10 -2 -24 13
-38 41 -12 24 -31 54 -42 65 -33 37 -226 330 -241 366 -7 19 -21 46 -31 60 -9
14 -22 44 -29 67 -8 25 -20 43 -31 46 -20 5 -20 6 -20 247 0 39 0 82 0 96 l1
27 148 -8 c81 -4 170 -8 197 -9z m-284 -616 c8 -14 38 -60 67 -102 28 -42 52
-81 52 -85 0 -4 12 -19 25 -32 14 -13 25 -31 25 -41 0 -11 4 -21 9 -24 5 -4
29 -34 52 -69 l44 -62 -3 -131 c-1 -72 -5 -141 -10 -153 -7 -21 -8 -21 -25 -4
-23 23 -207 304 -207 316 0 4 -13 20 -30 33 -22 19 -30 34 -29 57 1 18 -1 59
-4 92 -3 33 -8 98 -11 145 -4 47 -9 105 -11 130 l-5 45 24 -45 c13 -25 29 -56
37 -70z m576 -526 c110 -3 143 -9 155 -28 11 -17 9 -164 -2 -171 -6 -3 -7 -17
-4 -30 3 -12 1 -26 -4 -29 -6 -3 -8 -15 -5 -26 5 -19 2 -20 -53 -15 -73 8
-173 14 -242 16 -47 2 -53 4 -60 28 -8 30 -7 250 2 258 3 3 12 1 19 -5 8 -7
17 -8 23 -3 11 11 46 19 57 13 4 -2 56 -6 114 -8z"/>
<path d="M1645 2603 c-3 -10 -7 -56 -7 -103 -1 -70 2 -86 15 -88 19 -4 32 20
40 73 4 22 9 57 12 77 5 30 2 39 -14 47 -28 15 -38 14 -46 -6z"/>
<path d="M1536 2538 c12 -113 53 -140 60 -41 6 79 -3 103 -37 103 l-30 0 7
-62z"/>
<path d="M1744 2576 c-3 -14 1 -34 9 -48 8 -12 17 -35 21 -50 11 -49 42 -27
50 36 8 56 -7 86 -44 86 -23 0 -31 -5 -36 -24z"/>
<path d="M1765 722 c-28 -6 -44 -20 -72 -65 -55 -88 12 -208 116 -207 37 1 66
19 100 65 45 59 39 125 -10 125 -19 0 -70 -39 -52 -40 15 0 5 -31 -15 -46 -8
-5 -27 -8 -43 -6 -24 4 -29 9 -29 32 0 15 11 39 25 54 27 29 34 81 13 88 -7 2
-22 2 -33 0z"/>
</g>
</svg>
