<?xml version="1.0" standalone="no"?>
<!DOCTYPE svg PUBLIC "-//W3C//DTD SVG 20010904//EN"
 "http://www.w3.org/TR/2001/REC-SVG-20010904/DTD/svg10.dtd">
<svg version="1.0" xmlns="http://www.w3.org/2000/svg"
 width="507.000000pt" height="369.000000pt" viewBox="0 0 507.000000 369.000000"
 preserveAspectRatio="xMidYMid meet">
<metadata>
Created by potrace 1.16, written by Peter Selinger 2001-2019
</metadata>
<g transform="translate(0.000000,369.000000) scale(0.100000,-0.100000)"
fill="#000000" stroke="none">
<path d="M4459 3415 c-9 -8 -456 -15 -1359 -20 -498 -3 -995 -7 -1105 -10
-237 -6 -322 -7 -600 -6 -115 1 -268 1 -340 0 -71 0 -281 2 -465 5 -229 4
-343 3 -361 -5 -42 -17 -51 -68 -44 -254 3 -88 7 -308 10 -490 3 -181 7 -492
10 -690 3 -198 8 -591 10 -873 2 -283 7 -523 10 -533 9 -28 16 -103 17 -179 0
-57 3 -67 25 -83 21 -17 31 -18 86 -8 34 6 166 10 292 11 338 0 1027 8 1365
15 1152 23 2290 32 2400 18 71 -8 197 -9 205 -1 3 3 6 46 7 94 0 49 4 91 9 94
10 7 13 62 5 105 -3 17 -8 174 -11 350 -3 176 -8 401 -11 500 -3 99 -8 320
-10 490 -2 171 -6 432 -9 580 -2 149 -4 369 -4 490 1 340 1 335 -24 356 -12
10 -28 18 -34 19 -7 0 -13 7 -13 15 0 10 -10 15 -28 15 -16 0 -31 -2 -33 -5z
m-447 -129 l417 0 0 -73 c0 -69 -10 -96 -24 -73 -4 6 -11 8 -16 5 -5 -4 -9 -1
-9 4 0 15 -43 14 -58 -1 -7 -7 -12 -9 -12 -5 0 3 -12 2 -27 -4 -19 -7 -28 -6
-33 2 -6 8 -13 8 -28 0 -25 -13 -65 -14 -77 -2 -9 8 -137 25 -175 23 -8 0 -46
-7 -85 -13 -59 -11 -136 -13 -307 -10 -16 0 -28 6 -28 11 0 6 -4 9 -8 6 -5 -3
-59 -2 -120 2 -62 4 -112 5 -112 1 0 -3 -17 -4 -37 -2 -20 1 -40 -2 -43 -8 -6
-9 -38 -18 -155 -45 -49 -12 -178 -3 -233 15 -31 10 -86 22 -122 26 -36 4 -78
9 -94 11 -16 2 -36 -2 -43 -8 -11 -9 -23 -6 -51 9 -20 12 -60 24 -89 28 -44 6
-53 4 -61 -12 -6 -10 -23 -19 -39 -21 -15 -1 -66 -6 -113 -11 -47 -5 -98 -8
-115 -8 -16 0 -38 -3 -47 -7 -13 -6 -20 -2 -29 17 -6 14 -32 34 -61 48 l-50
23 -19 -23 c-14 -17 -16 -27 -9 -42 9 -16 7 -19 -17 -20 -15 -1 -31 -1 -34 -1
-3 1 -30 2 -60 3 -30 1 -67 9 -83 16 -43 22 -81 28 -193 28 -79 0 -105 -4
-120 -17 -43 -38 -220 -50 -327 -22 -70 19 -173 21 -234 4 -24 -6 -47 -8 -52
-5 -5 3 -24 -2 -41 -11 -56 -28 -251 -38 -304 -14 -16 7 -36 14 -44 16 -7 1
-23 12 -35 23 -13 12 -26 18 -29 14 -4 -3 -7 24 -7 60 l0 66 138 3 c75 2 812
1 1637 -1 825 -2 1688 -4 1917 -5z m-2022 -196 c0 -26 -22 -40 -59 -39 -25 1
-29 3 -13 6 14 3 22 11 21 21 -4 45 0 51 26 39 14 -7 25 -19 25 -27z m-325 4
c50 -14 109 -26 132 -26 35 -1 43 -5 47 -24 7 -28 39 -51 80 -58 39 -7 114 37
131 77 8 20 14 25 18 15 6 -16 62 -17 184 -3 66 8 84 0 97 -42 4 -14 18 -23
39 -26 18 -3 44 -9 59 -12 21 -6 31 -1 54 24 18 21 33 29 45 26 24 -8 59 11
59 32 0 13 11 15 78 10 42 -3 109 -16 147 -29 91 -30 286 -33 328 -5 15 9 40
17 56 17 16 0 32 4 35 8 9 15 106 15 106 0 0 -11 2 -11 8 0 10 15 200 10 247
-7 32 -12 211 -9 280 5 55 11 196 9 204 -3 8 -13 77 -17 211 -14 14 1 45 0 70
-2 l45 -3 7 -164 c24 -574 26 -729 17 -1125 -3 -143 -3 -307 0 -365 4 -58 5
-119 3 -137 l-4 -32 -79 -3 c-43 -2 -79 1 -79 5 0 5 -39 5 -87 2 -69 -5 -98
-3 -136 10 -43 15 -53 15 -100 1 -29 -8 -65 -17 -82 -19 -45 -7 -115 -38 -116
-51 0 -6 -26 -24 -59 -40 -44 -21 -67 -27 -97 -23 -43 6 -111 24 -103 27 18 9
52 5 61 -6 26 -32 76 0 85 55 3 14 12 33 20 42 8 8 14 19 14 24 0 9 42 98 51
105 3 3 11 21 19 40 7 19 22 47 32 62 10 14 18 31 18 36 0 5 7 13 16 16 8 3
13 10 10 14 -3 4 22 39 55 77 32 38 59 72 59 77 0 4 16 24 35 44 19 19 35 40
35 45 0 5 5 9 10 9 6 0 10 5 10 11 0 14 86 99 100 99 5 0 10 6 10 14 0 13 17
30 117 124 20 18 23 29 18 50 -4 15 -9 47 -11 72 -8 81 -55 169 -102 194 -36
19 -110 1 -137 -33 -11 -14 -28 -34 -37 -43 -10 -10 -18 -22 -18 -27 0 -6 -9
-16 -20 -24 -23 -16 -46 -49 -115 -165 -28 -46 -58 -96 -67 -110 -24 -37 -48
-92 -48 -108 0 -25 -25 -94 -33 -94 -5 0 -6 12 -3 28 15 70 14 143 0 221 -17
89 -29 111 -63 111 -31 0 -91 -68 -98 -109 -21 -139 -21 -166 1 -221 13 -34
20 -71 18 -98 l-3 -42 -45 45 c-33 34 -44 53 -44 76 0 53 -41 80 -128 85 -78
4 -99 -6 -143 -68 -20 -28 -34 -88 -20 -88 5 0 11 -25 15 -56 9 -79 57 -164
92 -164 26 0 63 -54 85 -124 12 -39 33 -88 46 -108 13 -21 21 -47 19 -60 -3
-13 -5 -27 -5 -31 -1 -5 -9 -7 -18 -6 -10 2 -31 0 -47 -4 -43 -12 -164 -87
-195 -122 -15 -18 -50 -40 -79 -50 -46 -17 -58 -17 -124 -5 -40 7 -94 23 -119
36 -38 19 -67 24 -167 28 -66 3 -123 2 -126 -2 -7 -7 -93 -31 -113 -32 -8 0
-13 12 -13 29 0 19 -8 35 -21 45 -15 10 -20 22 -17 38 5 27 -16 52 -36 45 -7
-3 -20 3 -29 14 -9 10 -26 19 -37 19 -12 0 -42 11 -68 25 -54 29 -76 31 -116
10 -16 -9 -35 -14 -41 -11 -15 5 -101 -76 -110 -104 -3 -11 -11 -20 -16 -20
-6 0 -7 -4 -4 -10 3 -5 2 -10 -4 -10 -6 0 -13 -16 -17 -35 l-6 -35 -119 4
c-69 3 -119 0 -119 -5 0 -15 -69 -10 -106 7 -19 9 -34 19 -34 23 0 3 -15 12
-32 20 -18 8 -60 26 -93 41 -33 15 -87 30 -119 34 -47 5 -64 12 -83 34 -56 63
-65 71 -93 84 -17 7 -30 17 -30 21 0 5 -5 5 -10 2 -6 -4 -18 -1 -26 6 -17 14
-63 19 -70 7 -3 -4 -12 -8 -21 -8 -29 0 -138 -110 -155 -156 -14 -38 -27 -42
-65 -17 -44 29 -184 28 -253 -1 -108 -47 -99 -55 -100 86 -1 168 -8 451 -15
578 -3 58 -7 200 -10 315 -3 116 -7 296 -10 400 -3 105 -7 285 -10 402 l-3
212 31 -6 c18 -3 46 -12 62 -19 55 -25 261 -20 333 7 82 32 220 42 298 22 58
-15 228 -19 293 -8 25 5 61 18 82 29 55 31 135 31 244 0z m818 6 c3 -12 -1
-23 -10 -29 -21 -11 -63 10 -63 32 0 26 66 24 73 -3z m1682 -826 c14 -15 25
-35 25 -45 0 -11 4 -19 9 -19 5 0 12 -32 16 -71 l7 -70 -40 -42 c-22 -23 -72
-74 -111 -113 -39 -40 -71 -76 -71 -80 0 -8 -10 -21 -70 -91 -10 -12 -26 -35
-34 -50 -8 -15 -23 -35 -33 -44 -47 -41 -116 -145 -162 -244 -33 -70 -81 -148
-87 -142 -2 2 8 37 22 78 14 41 30 99 35 129 6 30 31 115 55 188 24 74 49 152
55 175 6 22 30 70 54 106 23 36 52 84 63 107 11 22 28 46 36 53 9 8 16 18 16
24 0 15 68 86 76 79 4 -4 4 -1 0 6 -8 13 27 65 38 55 3 -3 6 1 6 10 0 9 11 17
28 20 15 2 31 5 35 6 4 0 19 -11 32 -25z m-535 -282 c0 -22 7 -53 16 -71 9
-18 13 -42 10 -59 -4 -15 -8 -53 -10 -84 -3 -32 -7 -61 -10 -66 -3 -5 -8 -38
-12 -73 -3 -34 -10 -72 -14 -83 -8 -18 -9 -17 -10 9 -2 35 0 88 6 130 2 18 -7
55 -22 92 l-26 62 17 73 c27 108 55 144 55 70z m-270 -220 c25 -4 44 -10 43
-14 -5 -19 30 -94 56 -117 20 -19 30 -41 36 -76 11 -64 7 -303 -6 -326 -8 -17
-11 -16 -34 5 -14 13 -37 57 -52 97 -32 90 -64 143 -100 166 -50 32 -65 63
-78 168 -5 45 -3 53 20 78 27 28 39 30 115 19z m710 -588 c35 -6 151 -5 161 1
4 3 10 1 14 -5 3 -5 30 -10 60 -10 37 0 55 -4 58 -14 5 -12 13 -13 42 -5 20 6
39 8 42 5 3 -3 7 -40 9 -83 2 -43 6 -109 9 -148 10 -123 10 -197 2 -202 -4 -3
-4 -10 1 -16 5 -7 8 -23 7 -37 -2 -14 -4 -43 -4 -65 l-1 -40 -383 -3 c-210 -1
-517 -4 -682 -7 -165 -3 -487 -7 -715 -10 -228 -2 -590 -7 -805 -10 -530 -8
-1492 -11 -1498 -5 -3 3 -8 95 -11 205 -6 188 -5 201 13 223 23 27 126 76 141
67 5 -3 10 -2 10 3 0 14 143 5 155 -10 10 -13 18 -16 64 -24 13 -3 31 -9 40
-13 9 -5 40 -5 70 0 29 4 70 6 90 3 20 -3 50 0 66 6 15 6 48 13 72 16 24 3 59
14 77 25 30 17 41 19 93 10 33 -5 84 -21 113 -35 30 -14 62 -26 71 -26 10 0
21 -5 24 -10 17 -27 91 -53 145 -50 173 9 254 3 335 -25 86 -30 142 -34 315
-23 91 6 115 12 170 43 14 8 33 15 43 15 10 0 28 5 39 11 12 6 49 13 83 15 34
2 78 6 98 8 25 4 49 -2 79 -18 48 -25 83 -36 143 -42 22 -2 61 -9 87 -15 42
-10 52 -8 81 10 19 11 36 18 39 15 3 -3 25 14 49 37 57 55 129 104 175 119 39
13 166 8 171 -7 2 -4 39 -7 84 -6 68 1 85 5 112 26 18 13 43 28 57 32 14 4 34
15 45 25 31 28 169 63 205 53 8 -3 26 -7 40 -9z m-3040 -68 c0 -3 -4 -8 -10
-11 -5 -3 -10 -1 -10 4 0 6 5 11 10 11 6 0 10 -2 10 -4z m-23 -72 c-9 -9 -28
6 -21 18 4 6 10 6 17 -1 6 -6 8 -13 4 -17z"/>
<path d="M2220 2822 c0 -7 -4 -11 -8 -8 -20 12 -52 -35 -52 -75 0 -71 33 -110
84 -99 17 3 39 2 49 -4 14 -9 23 -5 47 24 17 19 28 41 25 48 -3 8 -5 23 -5 35
0 12 -13 37 -29 56 -27 33 -29 34 -61 21 -27 -11 -33 -11 -41 1 -7 11 -9 11
-9 1z m78 -102 c2 -14 1 -22 -3 -18 -3 3 -20 2 -36 -2 -22 -7 -31 -5 -38 8 -7
12 -4 19 12 28 34 19 62 13 65 -16z"/>
<path d="M1197 2479 c-1 -3 -33 -13 -71 -22 -38 -9 -77 -24 -87 -33 -9 -8 -23
-14 -31 -13 -15 3 -99 -21 -111 -31 -11 -10 -140 0 -151 11 -6 5 -25 9 -43 9
-21 0 -50 12 -80 34 -48 33 -58 35 -101 14 -15 -8 -22 -19 -20 -37 1 -14 -2
-35 -5 -47 -10 -28 56 -126 100 -149 34 -19 41 -33 23 -51 -6 -6 -16 -52 -22
-101 -10 -80 -10 -94 5 -116 11 -18 22 -24 37 -20 11 3 20 0 20 -6 0 -18 40
-13 47 7 23 62 83 118 137 126 6 1 17 5 24 10 7 4 30 5 50 1 20 -4 57 -9 82
-10 25 -2 64 -13 87 -24 23 -12 48 -21 55 -21 7 -1 21 -11 32 -24 13 -16 26
-21 43 -18 16 3 32 -3 49 -19 23 -21 36 -24 112 -26 48 0 91 2 97 5 5 3 20 7
33 8 13 2 32 10 41 18 10 9 23 16 31 16 7 0 26 14 42 30 16 17 33 28 38 25 6
-4 10 5 10 18 0 15 10 31 25 41 25 16 65 91 65 122 0 20 -38 84 -51 84 -5 0
-11 11 -15 25 -3 14 -9 25 -13 25 -3 0 -20 12 -36 28 -89 80 -185 112 -345
115 -55 1 -101 -1 -103 -4z m238 -64 c82 -19 163 -72 206 -135 13 -19 32 -42
41 -52 16 -16 16 -20 0 -58 -17 -41 -116 -150 -136 -150 -6 0 -23 -6 -37 -14
-41 -21 -73 -26 -107 -17 -20 6 -32 6 -34 -1 -6 -18 -77 2 -84 24 -4 13 -14
19 -32 18 -44 -3 -52 -1 -52 15 0 10 -10 15 -30 15 -16 0 -30 4 -30 8 0 11
-100 42 -135 42 -15 0 -45 5 -67 12 -31 9 -47 9 -75 -1 -19 -7 -46 -14 -59
-16 -26 -3 -54 -22 -96 -68 -14 -16 -31 -26 -37 -22 -16 9 -3 97 20 143 11 20
19 41 19 47 0 14 -64 71 -88 80 -32 11 -63 61 -54 86 l9 22 26 -29 c20 -22 35
-28 63 -27 21 1 47 -5 58 -12 25 -16 180 -15 211 2 11 6 44 16 74 23 30 7 69
21 85 31 62 36 250 55 341 34z"/>
<path d="M1410 2280 c-14 -42 -3 -70 26 -70 8 0 14 -6 14 -12 0 -27 62 54 67
87 l6 35 -50 0 c-49 0 -50 -1 -63 -40z"/>
<path d="M1880 2461 c0 -6 -9 -20 -21 -32 -17 -17 -19 -28 -14 -59 9 -52 25
-71 72 -85 72 -22 143 25 143 94 0 62 -22 80 -107 87 -51 4 -73 3 -73 -5z
m103 -65 c22 -17 22 -33 -1 -45 -15 -8 -72 -5 -72 5 0 1 4 14 10 28 10 28 35
33 63 12z"/>
<path d="M2226 2295 c-8 -8 -18 -15 -21 -15 -4 0 -23 -16 -42 -35 l-34 -34 17
-36 c29 -62 53 -70 127 -40 24 10 47 57 47 98 0 59 -58 98 -94 62z m34 -78 c0
-19 -21 -37 -42 -37 -25 0 -22 25 5 38 30 14 37 14 37 -1z"/>
<path d="M2950 2089 c-14 -10 -36 -28 -48 -39 -13 -11 -30 -20 -37 -20 -7 0
-15 -7 -19 -15 -3 -8 -12 -15 -19 -15 -8 0 -21 -7 -28 -16 -7 -9 -22 -20 -34
-25 -30 -13 -59 -33 -67 -45 -4 -6 -22 -11 -40 -12 -18 0 -38 -8 -45 -18 -10
-14 -15 -15 -27 -5 -12 10 -23 10 -48 2 -27 -9 -42 -7 -82 8 -35 13 -58 16
-79 10 -15 -4 -38 -4 -50 0 -12 4 -33 7 -47 5 -14 -1 -41 -4 -60 -5 -76 -6
-142 -48 -233 -147 -31 -34 -40 -87 -21 -117 9 -14 20 -25 24 -25 4 0 11 -16
14 -35 4 -19 11 -35 16 -35 5 0 12 -11 16 -25 5 -18 15 -28 36 -32 16 -3 33
-13 37 -22 13 -24 179 -19 228 8 12 6 30 11 39 11 10 0 29 11 43 24 30 28 134
66 179 66 18 0 32 5 32 10 0 6 11 10 25 10 14 0 25 -5 25 -11 0 -5 5 -7 11 -4
16 11 59 -4 59 -19 0 -8 16 -20 36 -26 33 -11 36 -15 32 -44 -2 -18 1 -33 7
-34 56 -9 57 -8 77 45 l20 52 -21 22 c-15 17 -20 31 -16 49 4 17 -3 42 -19 73
l-25 47 22 11 c42 23 87 83 87 117 0 14 7 33 15 42 8 9 16 30 18 46 3 28 17
66 37 104 7 14 6 23 -6 34 -20 21 -34 20 -64 -5z m-33 -126 c-4 -25 -13 -53
-38 -120 -5 -12 -28 -31 -56 -43 -26 -11 -51 -26 -55 -33 -14 -22 -8 -54 12
-72 12 -10 19 -24 16 -31 -3 -7 2 -18 10 -24 19 -16 18 -50 -1 -50 -8 0 -15 7
-15 15 0 8 -3 15 -7 16 -32 3 -58 11 -63 19 -9 14 -70 31 -70 19 0 -5 -9 -9
-19 -9 -11 0 -22 -4 -26 -10 -3 -5 -18 -9 -33 -8 -31 1 -76 -15 -142 -48 -100
-52 -132 -63 -195 -68 -57 -5 -69 -3 -101 19 -40 27 -74 67 -74 86 0 7 -7 20
-15 29 -23 26 -9 71 37 119 22 22 45 41 50 41 5 0 16 7 24 15 14 14 81 22 139
17 11 -1 46 -2 78 -2 35 0 67 -6 82 -16 18 -12 31 -13 57 -6 18 5 42 6 53 1
21 -7 62 -2 80 11 6 4 21 10 35 13 14 4 38 18 55 32 16 15 45 34 65 43 19 9
42 23 50 31 18 19 51 40 64 40 4 1 6 -11 3 -26z"/>
<path d="M2152 1734 c-41 -43 -8 -94 45 -69 30 14 58 64 44 78 -20 20 -65 15
-89 -9z"/>
<path d="M1825 1977 c-27 -28 -31 -39 -30 -87 l0 -55 46 -23 c45 -22 47 -22
77 -5 18 10 32 22 32 26 0 5 4 5 10 2 5 -3 12 6 16 20 3 14 10 25 15 25 10 0
12 50 3 74 -3 9 -26 25 -50 37 -36 18 -46 20 -59 9 -10 -8 -15 -9 -15 -1 0 19
-14 12 -45 -22z m105 -61 c0 -22 -29 -46 -56 -46 -26 0 -33 27 -12 48 17 17
68 15 68 -2z"/>
</g>
</svg>
