<?xml version="1.0" standalone="no"?>
<!DOCTYPE svg PUBLIC "-//W3C//DTD SVG 20010904//EN"
 "http://www.w3.org/TR/2001/REC-SVG-20010904/DTD/svg10.dtd">
<svg version="1.0" xmlns="http://www.w3.org/2000/svg"
 width="519.000000pt" height="409.000000pt" viewBox="0 0 519.000000 409.000000"
 preserveAspectRatio="xMidYMid meet">
<metadata>
Created by potrace 1.16, written by Peter Selinger 2001-2019
</metadata>
<g transform="translate(0.000000,409.000000) scale(0.100000,-0.100000)"
fill="#000000" stroke="none">
<path d="M3584 3807 c-27 -4 -94 -6 -149 -4 -55 2 -114 0 -130 -4 -17 -5 -102
-11 -190 -14 -262 -8 -487 -23 -540 -35 -48 -10 -131 -11 -350 -5 -109 3 -251
4 -385 2 -166 -3 -593 16 -630 28 -15 5 -28 -2 -50 -24 -15 -18 -30 -36 -32
-42 -3 -9 -193 -15 -678 -21 -81 -1 -153 -6 -162 -12 -20 -12 -24 -61 -8 -86
5 -8 10 -11 10 -6 0 5 6 4 12 -1 7 -5 33 -7 58 -5 70 6 732 11 762 5 29 -5 39
-35 17 -49 -15 -9 -201 -16 -548 -20 -267 -3 -351 -11 -351 -34 0 -5 -3 -15
-6 -23 -3 -8 3 -22 12 -32 15 -15 33 -16 173 -10 200 9 376 9 390 1 6 -4 21
-4 32 -1 28 9 199 13 204 5 2 -3 -7 -42 -20 -86 -74 -251 -78 -266 -77 -316 0
-21 -4 -38 -9 -38 -12 0 -11 -37 1 -45 6 -4 8 -10 5 -15 -6 -9 -6 -208 0 -260
2 -19 4 -137 5 -261 1 -124 5 -242 10 -262 4 -21 5 -39 1 -41 -4 -3 -5 -24 -3
-48 5 -72 5 -81 -2 -158 -3 -41 -7 -82 -8 -90 0 -8 0 -35 1 -60 2 -53 -3 -114
-14 -153 -5 -17 -3 -33 5 -42 7 -8 9 -15 5 -15 -5 0 0 -9 9 -19 15 -16 16 -28
10 -63 -5 -24 -7 -51 -6 -62 1 -10 -2 -24 -7 -30 -11 -13 -5 -76 8 -89 5 -5
17 -7 27 -5 17 3 23 24 48 158 12 64 20 80 38 80 15 0 18 -4 13 -17 -3 -10 -9
-45 -12 -78 -7 -82 19 -144 57 -135 20 5 24 12 22 31 -16 113 9 217 50 215 25
-1 32 -42 18 -96 -15 -57 -12 -333 4 -359 3 -4 8 -29 11 -55 8 -54 31 -195 40
-241 26 -131 31 -169 39 -285 2 -25 5 -46 6 -47 1 -2 3 -6 4 -10 3 -16 37 -58
44 -55 4 2 13 8 19 14 13 10 21 0 27 -34 3 -12 8 -27 43 -108 8 -19 17 -46 20
-60 5 -30 4 -29 31 -19 20 7 22 15 22 74 0 37 -4 74 -9 84 -5 9 -11 39 -13 65
-3 49 -3 49 29 50 28 1 33 -3 39 -26 7 -35 69 -187 81 -199 4 -4 15 -4 23 1
16 10 16 114 -1 172 -15 54 -13 58 35 58 l43 0 21 -67 c12 -38 28 -95 37 -127
18 -73 39 -92 65 -61 9 11 10 31 6 68 -4 28 -10 77 -12 107 -3 30 -7 60 -9 66
-4 14 47 26 70 18 8 -4 15 -17 15 -30 0 -13 4 -33 9 -46 5 -13 16 -50 25 -83
23 -80 36 -105 57 -105 24 0 27 25 18 121 -14 155 -16 149 35 149 44 0 45 0
71 -57 47 -104 62 -128 83 -131 25 -4 34 19 22 55 -5 15 -13 54 -18 86 l-9 57
42 0 42 0 17 -76 c19 -88 51 -164 69 -164 23 0 39 18 33 36 -5 17 -9 52 -20
171 -12 116 99 15 117 -108 5 -29 22 -42 46 -34 20 6 21 12 17 73 -3 37 -8 82
-12 100 -6 29 -4 32 17 32 28 0 64 -39 80 -88 19 -56 49 -102 69 -102 10 0 20
5 22 12 4 12 -7 113 -17 155 -4 18 0 23 28 28 17 4 39 9 48 11 12 3 19 -4 23
-22 4 -14 15 -45 25 -68 10 -22 26 -60 36 -84 14 -33 23 -42 39 -40 14 2 22
12 25 28 3 24 -11 104 -30 164 -11 35 0 46 49 46 24 0 32 -4 32 -18 0 -10 5
-23 11 -29 5 -5 23 -54 40 -109 28 -93 39 -113 65 -114 17 0 39 30 28 38 -5 4
-10 16 -11 27 0 11 -9 62 -19 112 -10 51 -16 95 -13 97 3 3 29 6 59 8 l54 3 9
-49 c4 -27 14 -58 22 -70 8 -11 15 -29 15 -39 0 -51 68 -94 72 -44 2 37 -2 81
-12 107 -4 14 -11 44 -14 66 -6 42 -6 42 30 46 27 3 37 0 41 -11 2 -9 21 -59
40 -111 44 -117 73 -147 92 -97 12 30 -8 133 -40 211 -4 9 12 13 56 17 47 3
54 -1 66 -43 49 -176 87 -240 109 -182 13 33 13 46 -4 113 -8 31 -16 71 -20
89 -5 32 -5 32 34 32 38 0 39 -1 60 -58 36 -100 63 -142 87 -142 26 0 28 12
14 75 -5 22 -12 61 -15 88 -6 46 -6 47 21 47 21 0 35 -10 54 -38 15 -20 30
-48 34 -62 20 -64 45 -100 72 -100 25 0 25 2 20 43 -9 58 -13 75 -31 125 l-15
42 39 0 40 0 61 -125 c52 -107 64 -125 84 -125 30 0 36 17 20 56 -7 17 -16 50
-20 74 -4 24 -14 58 -21 76 -8 18 -14 35 -14 38 0 10 92 18 100 10 5 -5 11
-18 13 -29 4 -23 21 -58 39 -77 7 -7 25 -30 40 -50 29 -38 64 -56 78 -41 5 4
-4 39 -20 76 -16 38 -32 81 -35 97 -6 29 -6 29 32 26 21 -2 43 -4 49 -5 10 -1
30 -74 25 -95 -4 -16 30 -43 54 -43 64 0 69 55 20 247 -9 36 -21 85 -26 110
-6 25 -17 60 -26 78 -8 18 -12 39 -10 46 3 7 -3 68 -13 137 -10 68 -21 156
-25 194 -3 39 -8 84 -11 100 -10 76 -20 767 -11 782 3 4 8 59 11 122 4 63 9
118 12 122 4 7 11 128 19 344 5 146 5 151 4 173 -1 9 1 42 5 72 11 79 9 346
-3 405 -5 27 -7 52 -5 54 2 3 88 6 190 7 197 3 214 7 214 50 0 39 -29 60 -80
56 -25 -1 -113 -5 -197 -7 l-152 -5 -16 29 -15 30 206 0 c226 0 237 3 232 55
-2 24 -11 35 -38 47 -19 10 -39 14 -45 11 -5 -4 -66 -7 -135 -9 -69 -1 -148
-4 -177 -7 -50 -6 -104 6 -102 21 4 21 -3 32 -23 39 -12 3 -28 12 -35 19 -7 8
-58 15 -130 20 -167 10 -610 11 -669 2z m228 -101 c4 -6 8 -26 8 -43 0 -30 28
-73 48 -73 8 0 32 -49 32 -67 0 -7 13 -27 29 -45 22 -25 30 -47 36 -94 l7 -60
-29 -2 c-15 -1 -100 -5 -189 -7 l-161 -6 -33 102 c-19 56 -43 116 -55 133 -11
17 -27 51 -34 75 -7 25 -20 55 -28 68 l-15 23 83 1 c46 0 107 4 134 8 62 9
158 2 167 -13z m270 -15 c2 -18 10 -27 24 -29 18 -3 37 -32 59 -92 1 -5 13
-30 51 -115 12 -27 25 -71 29 -96 l7 -46 -34 -6 c-32 -5 -180 1 -186 8 -2 2
-5 37 -7 78 -3 65 -7 80 -29 104 -15 15 -33 49 -40 75 -19 63 -34 88 -51 88
-16 0 -19 18 -9 43 4 11 25 15 94 15 89 0 89 0 92 -27z m-762 5 c0 -8 9 -18
21 -21 30 -10 56 -39 74 -82 9 -21 16 -40 17 -43 0 -3 11 -23 23 -45 13 -22
33 -67 45 -100 38 -105 41 -96 -31 -95 -35 1 -132 -1 -216 -5 l-151 -7 -12 59
c-7 32 -15 63 -19 68 -9 15 -30 97 -31 121 0 12 -14 47 -31 79 -17 31 -29 59
-26 61 2 2 61 5 130 7 70 2 130 7 134 10 13 14 73 7 73 -7z m1012 2 c28 -22
115 -210 123 -263 3 -27 8 -60 9 -72 4 -25 -34 -43 -90 -43 -28 0 -34 4 -35
23 -4 87 -10 116 -40 182 -13 28 -22 53 -21 58 1 4 -2 7 -7 7 -5 0 -11 8 -14
18 -4 9 -13 35 -21 57 -9 22 -16 41 -16 43 0 8 99 0 112 -10z m-1447 -24 c13
-5 14 -8 3 -15 -10 -7 -10 -9 2 -9 40 -1 98 -138 136 -322 l6 -27 -73 -1 c-41
0 -126 -4 -189 -8 -100 -8 -209 -6 -218 2 -1 2 -7 28 -12 57 -4 30 -11 70 -15
89 -4 19 -8 40 -9 45 -1 6 -11 26 -22 45 -28 49 -48 100 -41 106 3 3 27 8 54
11 58 5 73 8 93 16 34 14 255 22 285 11z m-1605 -26 c0 -9 3 -18 8 -20 10 -4
118 -244 124 -274 2 -11 6 -21 9 -24 4 -3 10 -24 14 -47 6 -41 5 -43 -17 -42
-12 1 -47 -2 -75 -6 l-53 -8 0 59 c-2 141 -26 329 -46 345 -22 18 -17 37 11
35 16 0 25 -7 25 -18z m415 -2 c44 -1 91 -8 105 -15 24 -13 69 -58 71 -70 3
-26 12 -59 28 -108 11 -32 22 -90 26 -129 l6 -72 -73 0 c-40 0 -128 -3 -194
-7 -134 -9 -126 -12 -138 55 -7 46 -27 115 -41 145 -45 98 -81 192 -78 202 3
8 35 10 106 6 56 -2 138 -6 182 -7z m563 2 l83 -3 18 -40 c10 -22 28 -48 40
-57 11 -10 21 -25 21 -33 0 -8 4 -15 9 -15 12 0 31 -49 35 -91 2 -20 5 -40 8
-45 11 -19 19 -72 11 -77 -11 -7 -187 -18 -354 -22 l-137 -3 -7 67 c-10 88
-12 99 -31 139 -9 19 -17 44 -19 56 -5 39 -18 81 -32 103 -14 21 -13 22 19 25
31 3 143 1 336 -4z m-1068 -251 c0 -29 -3 -32 -29 -33 l-30 -2 17 34 c20 44
42 44 42 1z m4 -116 c3 -5 8 -42 11 -82 2 -41 7 -93 11 -115 6 -45 6 -46 -79
-59 -12 -2 -41 -7 -63 -11 l-42 -6 14 53 c8 29 14 63 14 76 0 12 4 24 9 27 5
4 14 30 21 58 6 29 16 56 23 60 17 11 75 10 81 -1z m2788 -43 c0 -13 0 -73 -1
-134 -2 -64 1 -114 7 -118 6 -3 6 -22 1 -48 -4 -24 -8 -69 -9 -100 0 -66 3
-64 -115 -72 -44 -3 -114 -8 -156 -11 l-76 -6 -7 118 c-10 173 -15 233 -25
283 -5 25 -8 56 -8 70 l2 25 148 1 c82 1 151 5 154 8 4 3 24 6 45 6 32 0 38
-3 40 -22z m486 9 c6 -6 9 -39 7 -72 -13 -268 -18 -342 -26 -357 -5 -9 -31
-21 -59 -27 -83 -18 -82 -18 -75 42 3 28 8 93 10 142 2 50 7 104 10 120 12 70
14 82 14 117 1 36 2 37 44 41 23 2 47 4 53 5 6 1 16 -4 22 -11z m-972 -7 c30
0 34 -3 39 -37 4 -21 10 -51 15 -68 5 -16 11 -82 14 -145 4 -63 9 -144 12
-180 5 -59 4 -66 -13 -67 -10 0 -67 -3 -128 -7 -60 -3 -149 -8 -197 -11 l-87
-5 -1 163 c-1 89 -1 169 -2 177 0 8 -4 29 -9 46 -5 16 -11 51 -14 76 l-5 46
73 6 c39 4 90 8 112 10 22 2 67 2 99 0 32 -2 74 -4 92 -4z m752 -6 c7 -2 11
-7 9 -11 -8 -13 -18 -83 -23 -163 -18 -293 -14 -268 -43 -273 -14 -2 -55 -5
-91 -6 l-65 -2 -2 228 c0 125 1 231 3 234 4 6 190 1 212 -7z m-1195 -4 c2 -3
7 -33 10 -67 4 -35 10 -71 15 -80 5 -10 10 -63 11 -118 0 -55 2 -116 2 -135 4
-90 -3 -106 -46 -115 -27 -6 -227 -15 -400 -19 l-70 -1 4 40 c7 58 2 206 -13
445 l-3 45 96 0 c53 0 119 2 146 5 28 3 93 5 147 5 53 0 98 -2 101 -5z m-551
-60 c10 -56 15 -476 6 -485 -3 -4 -84 -8 -180 -11 -95 -2 -196 -6 -224 -9
l-51 -6 -7 43 c-4 24 -11 107 -16 184 -4 78 -10 147 -14 152 -12 20 -14 159
-2 160 6 1 96 5 201 8 104 3 191 7 193 9 2 1 22 2 45 1 41 -1 42 -1 49 -46z
m-557 -65 c1 -45 5 -87 11 -95 5 -8 10 -42 10 -74 3 -94 14 -246 21 -262 5
-12 -9 -14 -88 -13 -52 1 -114 -1 -139 -5 -25 -3 -80 -8 -123 -10 l-77 -4 1
32 c1 38 -8 267 -16 397 l-6 96 53 2 c29 1 78 6 108 10 30 4 98 7 149 7 l95
-1 1 -80z m-481 -257 l5 -208 -22 -1 c-41 -2 -72 3 -78 13 -4 5 -9 3 -12 -6
-4 -9 -13 -16 -20 -16 -16 0 -27 136 -32 378 -2 105 0 132 10 128 7 -2 16 -2
20 2 4 4 30 12 58 17 l52 10 7 -55 c4 -30 10 -148 12 -262z m-246 52 c7 -33
15 -88 19 -123 5 -55 3 -65 -12 -70 -9 -4 -21 -5 -26 -1 -5 3 -9 1 -9 -4 0 -6
-21 -15 -47 -20 -80 -18 -103 -20 -110 -10 -10 18 2 257 14 269 9 8 54 15 118
17 l41 2 12 -60z m2983 -200 c-4 -16 -10 -162 -14 -321 l-2 -97 -50 -6 c-27
-3 -70 -6 -94 -6 l-43 0 6 68 c3 37 9 119 12 182 6 102 12 193 13 196 1 0 40
0 89 0 72 -1 86 -4 83 -16z m234 14 c18 -5 20 -13 18 -92 -1 -48 -4 -105 -7
-127 -2 -22 -7 -70 -11 -107 -6 -61 -9 -68 -29 -68 -12 0 -32 -7 -44 -16 -12
-8 -35 -14 -50 -12 l-27 3 2 95 c1 52 2 145 3 207 l0 112 48 4 c26 2 54 4 62
5 8 1 24 -1 35 -4z m-474 -131 c-7 -65 -14 -160 -14 -212 l-2 -94 -85 -2 c-47
-1 -123 -5 -169 -10 l-84 -8 7 73 c4 41 10 78 13 83 3 6 6 69 7 141 l1 131 95
3 c52 2 127 7 165 11 39 4 72 6 74 4 2 -1 -2 -56 -8 -120z m-387 71 c4 -14 4
-46 2 -72 -3 -26 -8 -82 -11 -124 -3 -43 -7 -83 -10 -90 -2 -7 -6 -33 -9 -56
-2 -24 -7 -47 -11 -50 -13 -13 -113 -28 -139 -21 -14 4 -28 4 -30 1 -2 -4 -54
-9 -115 -10 l-112 -4 3 216 3 216 125 1 c69 1 139 4 155 8 17 3 55 7 87 8 52
2 57 0 62 -23z m-496 -29 c-3 -14 -2 -27 2 -30 6 -4 6 -94 1 -316 l-1 -46 -57
-7 c-32 -4 -143 -9 -248 -12 -104 -4 -194 -10 -199 -15 -6 -5 -13 -9 -16 -9
-14 0 9 404 24 425 10 14 45 17 226 22 118 3 217 7 219 9 2 2 15 4 29 4 21 0
24 -4 20 -25z m-1837 -35 c10 -36 11 -230 1 -230 -5 0 -19 -9 -32 -20 -13 -11
-32 -20 -44 -21 -12 0 -43 -3 -71 -5 l-50 -4 -2 145 -3 146 33 -1 c35 -1 109
9 117 16 13 13 45 -4 51 -26z m1264 -103 c-9 -201 -13 -282 -14 -283 -2 -2
-92 -13 -161 -20 -36 -3 -92 -9 -125 -13 -33 -3 -82 -5 -110 -3 l-50 4 0 204
c0 154 3 207 13 212 6 5 33 9 59 11 26 1 48 3 49 4 1 1 79 3 173 4 l171 2 -5
-122z m-580 103 l63 0 -6 -62 c-6 -72 -6 -190 -1 -293 4 -69 4 -70 -21 -72
-75 -5 -372 -5 -377 0 -3 4 -7 80 -9 169 -2 90 -6 179 -8 198 l-4 35 46 2 c87
4 212 20 220 28 3 3 12 3 20 0 7 -3 42 -5 77 -5z m-454 -68 c0 -20 3 -112 5
-204 l4 -168 -28 0 c-16 0 -49 3 -74 6 l-45 6 0 194 0 193 41 3 c104 8 96 10
97 -30z m-294 -270 l66 4 -6 -101 c-3 -55 -7 -107 -9 -115 -2 -9 -34 -23 -83
-35 l-80 -21 -7 25 c-4 13 -7 61 -7 105 1 45 0 86 -1 91 -1 6 -2 22 -1 37 1
26 3 26 31 16 17 -5 61 -8 97 -6z m3242 -227 c0 -108 3 -200 6 -205 8 -14 -8
-18 -90 -24 l-71 -5 2 42 c1 23 3 112 4 197 2 85 5 163 8 173 4 14 16 17 73
17 l68 0 0 -195z m-504 171 c20 -13 22 -22 20 -98 -2 -46 -8 -103 -15 -127 -6
-24 -12 -80 -13 -125 l-2 -81 -55 -2 c-30 -1 -103 -4 -162 -7 l-108 -5 -1 62
c-1 34 -2 74 -3 89 -2 15 1 53 5 85 12 83 18 133 21 169 2 34 0 33 87 39 35 3
66 6 67 8 2 2 33 4 70 5 45 1 75 -3 89 -12z m259 -50 c-1 -33 -4 -129 -6 -212
l-3 -152 -97 -1 -98 -2 -2 33 c-2 62 3 132 12 143 9 12 19 102 19 191 l1 61
88 0 88 1 -2 -62z m-640 -8 c-11 -119 -21 -325 -17 -354 3 -23 0 -33 -13 -38
-14 -5 -134 -8 -236 -4 -15 0 -86 -11 -108 -17 -41 -12 -56 52 -39 165 6 41
12 121 13 178 l1 102 150 1 c82 0 168 4 190 8 67 14 64 16 59 -41z m-459 -7
c-3 -14 -7 -75 -9 -136 -7 -147 -15 -257 -19 -262 -2 -2 -42 -5 -88 -8 -82 -4
-98 -6 -169 -22 -19 -5 -82 -8 -140 -8 l-105 0 1 120 c2 221 6 315 16 321 10
6 43 8 313 19 88 3 161 8 163 10 2 1 12 1 22 -2 14 -4 18 -12 15 -32z m-587
-220 c-3 -218 -3 -220 -25 -226 -24 -6 -412 -18 -414 -13 -1 2 -3 99 -5 216
l-4 212 22 1 c13 0 32 2 42 4 11 2 81 6 155 9 74 3 136 7 137 9 2 2 24 4 49 6
l45 2 -2 -220z m-510 73 c4 -132 3 -306 -1 -311 -2 -1 -95 -4 -208 -5 l-204
-3 -5 100 c-3 55 -2 134 2 175 4 41 9 89 10 107 1 29 4 32 42 36 23 2 102 5
176 6 74 1 136 3 137 5 2 1 13 2 25 1 22 -2 23 -6 26 -111z m-505 79 c5 -3 5
-33 1 -67 -4 -33 -7 -91 -5 -128 1 -36 -1 -68 -6 -71 -5 -3 -8 -33 -8 -66 l1
-60 -32 4 c-26 3 -33 -1 -43 -22 -11 -24 -9 -29 18 -57 17 -17 31 -25 31 -18
0 6 5 12 11 12 7 0 9 -63 7 -197 -3 -170 -5 -197 -18 -194 -8 3 -40 5 -70 5
l-55 1 1 90 c1 50 5 241 8 425 3 184 5 338 6 342 1 16 128 17 153 1z m-241
-281 c-2 -81 -6 -151 -9 -155 -3 -5 -14 -7 -24 -4 -10 3 -19 1 -21 -4 -2 -5
-34 -12 -72 -16 -65 -6 -68 -5 -62 13 3 11 8 82 11 159 3 86 9 141 16 146 6 3
40 6 76 5 36 -1 67 3 70 7 14 23 18 -18 15 -151z m3191 -65 c2 -7 5 -76 5
-154 l-1 -142 -32 -15 c-18 -9 -51 -16 -73 -16 l-40 0 -5 63 c-3 34 -6 108 -7
164 l0 102 32 4 c73 9 116 7 121 -6z m-257 -9 c2 -3 7 -78 9 -167 l3 -161 -46
-2 c-26 -1 -66 -2 -89 -2 l-41 -1 -11 75 c-5 41 -9 115 -8 165 2 84 3 89 25
95 28 6 150 5 158 -2z m-255 -48 c1 -19 1 -44 0 -55 -1 -11 5 -64 12 -117 12
-87 9 -133 -8 -116 -4 3 -21 2 -38 -3 -18 -5 -94 -12 -169 -16 l-138 -6 -1 54
c-3 86 2 252 7 271 6 20 39 24 212 24 l122 0 1 -36z m-407 -144 c-1 -89 -3
-164 -3 -167 -1 -4 -20 -10 -43 -13 -32 -4 -331 -36 -345 -36 -2 0 4 347 6
362 1 9 112 14 272 14 l117 0 -4 -160z m-457 -38 l2 -186 -32 -6 c-18 -3 -97
-8 -177 -11 -80 -3 -175 -7 -211 -9 l-66 -2 -7 130 c-4 72 -9 155 -12 184 -3
37 -1 54 8 56 7 3 85 7 173 11 88 4 189 10 225 14 36 5 72 8 80 7 13 -1 15
-30 17 -188z m-557 78 c0 -34 3 -92 6 -131 3 -38 5 -77 5 -85 -1 -8 -1 -29 -1
-46 l0 -31 -87 -7 c-49 -4 -124 -9 -168 -11 -44 -3 -110 -7 -146 -10 l-67 -5
-1 58 c-1 98 11 289 19 302 5 9 45 14 130 16 68 2 124 5 125 6 2 2 44 3 94 4
l91 1 0 -61z m-514 -34 c-3 -42 -7 -128 -9 -189 l-2 -113 -40 0 c-42 -1 -171
-7 -292 -13 -55 -3 -73 -1 -77 10 -3 7 -6 94 -5 193 0 162 1 179 17 179 9 0
58 3 107 8 50 4 139 7 198 5 l109 -3 -6 -77z m2465 -234 c0 -24 2 -65 5 -93 2
-27 6 -72 8 -100 3 -27 5 -50 6 -50 1 0 4 -12 6 -26 4 -26 3 -26 -60 -28 l-63
-2 -8 43 c-4 24 -9 57 -11 73 -2 17 -8 53 -14 80 -7 28 -14 69 -17 92 l-5 42
49 4 c113 8 103 12 104 -35z m-246 -2 c15 -92 22 -152 18 -158 -2 -5 -1 -8 4
-8 4 0 9 -21 11 -48 1 -26 5 -55 8 -64 6 -19 -5 -23 -94 -33 -29 -3 -60 -9
-69 -12 -11 -4 -14 -3 -9 6 4 6 3 18 -3 25 -12 14 -27 87 -36 176 -8 86 -14
120 -20 130 -6 10 25 15 117 16 l68 1 5 -31z m-253 -3 c1 -27 3 -43 8 -53 1
-3 3 -16 5 -30 11 -110 18 -157 25 -170 4 -8 10 -29 13 -46 6 -30 5 -30 -36
-32 -41 -2 -173 -18 -214 -26 -11 -3 -43 -7 -71 -11 -61 -8 -72 5 -72 88 0 29
-4 78 -9 108 -5 30 -11 80 -14 111 -3 48 -1 59 14 63 9 3 81 8 160 11 78 2
145 7 148 9 2 3 13 5 23 5 13 0 18 -8 20 -27z m-444 -11 c7 -5 14 -34 16 -68
6 -87 26 -266 32 -286 4 -12 -2 -19 -18 -22 -13 -2 -48 -9 -79 -16 -31 -6 -60
-10 -65 -8 -9 2 -90 -7 -165 -18 l-37 -5 -12 73 c-6 40 -18 100 -26 134 -8 33
-14 88 -14 122 0 58 2 62 23 62 34 1 285 30 327 39 3 0 11 -3 18 -7z m-429
-134 c0 -47 4 -96 12 -113 15 -38 17 -46 24 -122 5 -62 2 -69 -28 -64 -5 1
-29 -6 -54 -14 -33 -11 -72 -14 -146 -11 -56 2 -128 0 -160 -5 -66 -9 -87 -4
-87 20 0 9 -7 34 -14 56 -13 37 -22 108 -31 256 l-4 57 147 2 c81 1 167 5 192
9 25 4 69 8 98 9 l53 3 -2 -83z m-555 20 c3 -18 8 -76 11 -128 7 -116 12 -156
24 -196 l9 -31 -162 -7 c-88 -3 -200 -9 -247 -12 l-86 -6 -6 68 c-4 38 -10
124 -13 192 l-7 122 29 2 c16 1 45 2 64 3 96 4 275 17 279 21 2 2 26 4 52 4
45 0 47 -1 53 -32z m-583 -17 l36 -1 6 -87 c4 -49 9 -100 11 -115 2 -16 0 -28
-5 -28 -5 0 -5 -10 0 -22 4 -13 9 -44 10 -69 l1 -47 -132 -3 c-154 -3 -249 -2
-255 5 -2 2 -6 10 -7 18 -2 7 -8 26 -15 42 -6 15 -13 54 -15 85 -3 31 -8 91
-12 133 l-7 77 34 5 c19 3 45 5 59 3 14 -2 59 -1 100 3 41 4 93 6 115 4 22 -1
56 -3 76 -3z m-588 -23 c4 -10 7 -10 15 0 6 9 25 12 52 10 l44 -3 3 -60 c9
-174 13 -214 27 -254 9 -24 14 -46 11 -49 -3 -3 -20 -1 -38 5 -19 6 -43 6 -55
2 -16 -6 -24 -5 -26 4 -2 6 -7 21 -12 32 -4 11 -8 27 -9 35 -1 8 -4 31 -8 50
-3 19 -8 55 -11 80 -2 25 -9 58 -15 73 -16 41 -14 87 3 87 8 0 17 -6 19 -12z
m2921 -252 c4 -29 15 -79 25 -112 22 -70 22 -70 -76 -73 l-63 -2 0 33 c0 18
-7 42 -15 52 -8 10 -12 22 -10 26 2 4 -5 24 -15 46 -11 21 -20 44 -20 51 0 16
51 28 126 30 l42 1 6 -52z m200 41 c10 -7 25 -45 35 -92 10 -44 22 -87 25 -96
11 -25 -74 -37 -91 -13 -13 18 -52 115 -58 144 -2 8 -6 27 -10 43 -7 26 -6 27
37 27 24 0 52 -6 62 -13z m-437 -72 c9 -27 18 -57 21 -65 3 -8 6 -21 8 -29 1
-8 5 -25 9 -38 5 -20 1 -23 -22 -24 -16 -1 -86 -3 -158 -5 -71 -2 -151 -5
-177 -8 -47 -4 -48 -3 -48 26 0 16 -4 37 -9 46 -5 9 -10 37 -12 62 l-4 45 50
12 c84 21 166 31 249 29 l79 -1 14 -50z m-443 -136 l6 -36 -67 -6 c-38 -4
-114 -5 -170 -4 -57 2 -103 0 -103 -5 0 -4 -5 -8 -11 -8 -5 0 -7 4 -4 10 7 11
-13 89 -27 104 -12 15 -10 46 5 47 6 0 48 3 92 5 44 2 118 10 165 17 l85 12
11 -50 c7 -27 14 -66 18 -86z m-453 59 c2 -36 2 -37 30 -105 5 -13 8 -23 6
-23 -28 -2 -311 -32 -362 -40 -96 -13 -115 -12 -115 4 0 8 -6 27 -14 43 -16
32 -37 95 -33 99 1 2 88 7 192 13 105 5 204 14 220 20 53 17 75 13 76 -11z
m-561 -37 c0 -20 2 -26 10 -36 4 -5 11 -31 15 -57 6 -37 4 -48 -6 -49 -40 -4
-75 -6 -193 -13 -71 -4 -133 -9 -137 -11 -16 -11 -152 -7 -158 4 -9 15 -35
141 -29 146 2 2 64 7 138 11 74 3 136 7 137 8 1 1 52 3 113 5 73 1 110 -1 110
-8z m-565 -73 c3 -29 8 -65 11 -79 l5 -25 -189 0 -188 0 -1 30 c0 17 -5 49
-11 71 -6 22 -7 42 -2 45 5 3 89 6 188 8 l180 2 7 -52z m-579 30 c11 6 36 10
57 9 36 -1 37 -2 39 -41 2 -55 2 -58 16 -83 13 -23 12 -23 -46 -23 -63 0 -78
9 -85 50 -16 85 -18 104 -9 91 7 -9 15 -10 28 -3z"/>
</g>
</svg>
