<?xml version="1.0" standalone="no"?>
<!DOCTYPE svg PUBLIC "-//W3C//DTD SVG 20010904//EN"
 "http://www.w3.org/TR/2001/REC-SVG-20010904/DTD/svg10.dtd">
<svg version="1.0" xmlns="http://www.w3.org/2000/svg"
 width="487.000000pt" height="413.000000pt" viewBox="0 0 487.000000 413.000000"
 preserveAspectRatio="xMidYMid meet">
<metadata>
Created by potrace 1.16, written by Peter Selinger 2001-2019
</metadata>
<g transform="translate(0.000000,413.000000) scale(0.100000,-0.100000)"
fill="#000000" stroke="none">
<path d="M1868 3904 c-2 -1 -23 -4 -48 -6 -25 -2 -52 -8 -60 -13 -8 -5 -28 -8
-43 -6 -17 1 -43 -7 -65 -21 -20 -13 -59 -32 -87 -42 -27 -10 -64 -29 -82 -42
-17 -13 -36 -24 -41 -24 -6 0 -13 -7 -16 -16 -4 -9 -9 -15 -12 -12 -8 8 -65
-42 -244 -214 -41 -38 -119 -129 -190 -222 -14 -18 -37 -46 -50 -63 -14 -17
-32 -40 -40 -53 -8 -12 -21 -28 -27 -36 -7 -7 -13 -20 -13 -28 0 -9 -3 -16 -7
-16 -5 0 -19 -17 -33 -38 -14 -20 -30 -41 -37 -45 -7 -4 -13 -13 -13 -19 0 -6
-11 -26 -26 -45 -14 -18 -22 -33 -19 -33 3 0 -5 -17 -18 -37 -13 -21 -29 -54
-37 -73 -7 -19 -17 -39 -22 -45 -4 -5 -8 -19 -8 -32 0 -12 -9 -44 -19 -71 -11
-27 -22 -67 -25 -88 -2 -22 -7 -50 -10 -64 -17 -74 -19 -86 -21 -100 -1 -8 -6
-23 -10 -34 -9 -22 8 -264 23 -319 25 -92 142 -224 246 -277 32 -16 64 -34 71
-40 7 -6 17 -10 21 -9 5 1 16 -1 24 -4 81 -36 152 -52 215 -50 89 3 101 3 123
1 9 0 34 7 54 16 l37 16 12 -42 c32 -122 37 -160 34 -308 -2 -142 -17 -219
-57 -296 -19 -36 -27 -42 -82 -57 -34 -10 -75 -22 -92 -27 -17 -6 -39 -10 -50
-10 -18 0 -116 -34 -139 -48 -5 -4 -18 -8 -28 -9 -26 -4 -71 -29 -86 -47 -8
-9 -20 -16 -27 -16 -16 0 -91 -46 -114 -70 -39 -39 -76 -125 -59 -135 5 -4 6
-11 3 -17 -4 -5 -1 -29 7 -52 36 -113 136 -209 254 -246 22 -7 45 -16 51 -21
6 -5 14 -6 17 -2 4 3 7 2 7 -4 0 -6 21 -14 48 -18 26 -4 77 -15 114 -25 54
-15 106 -19 268 -20 110 0 210 -4 223 -8 27 -10 579 -8 627 2 77 15 138 25
193 32 31 3 57 10 57 15 0 4 17 11 38 14 113 19 229 98 287 198 70 116 85 244
45 366 -22 64 -65 131 -86 131 -6 0 -17 6 -23 14 -22 26 -177 75 -254 80 -39
3 -98 7 -129 10 -32 3 -83 6 -114 7 -50 2 -57 5 -65 28 -5 14 -12 33 -16 41
-30 72 -15 177 37 278 19 37 117 133 146 143 6 2 32 21 57 42 25 22 48 38 51
38 4 -1 28 22 54 51 87 96 77 90 119 74 21 -8 55 -17 75 -21 56 -9 84 -27 157
-102 78 -79 117 -156 155 -305 14 -54 34 -117 45 -140 10 -24 26 -69 34 -101
18 -70 73 -144 170 -231 79 -71 132 -93 245 -102 217 -18 331 98 337 341 3
120 -18 354 -35 385 -5 9 -7 81 -5 161 3 127 6 150 28 199 14 30 33 65 43 77
11 12 30 38 44 57 14 20 31 36 37 36 7 0 18 9 25 20 7 11 18 20 24 20 6 0 17
7 24 16 12 13 16 12 37 -10 48 -52 106 -76 195 -83 91 -6 140 4 179 37 22 20
37 24 72 20 26 -2 47 18 47 46 0 29 39 48 79 39 41 -8 50 5 48 65 l-2 55 -35
1 c-19 0 -45 -6 -57 -13 -42 -25 -51 -17 -51 40 0 28 -2 62 -5 75 -5 19 -2 22
24 22 17 0 39 -5 50 -10 24 -13 95 6 104 28 3 8 0 30 -6 49 -13 40 -49 59 -81
42 -12 -6 -38 -8 -63 -5 -39 6 -44 10 -49 41 -9 44 -39 62 -71 45 -30 -16 -36
-41 -22 -88 6 -20 10 -44 8 -53 -1 -8 5 -44 14 -80 24 -95 31 -209 14 -209 -8
0 -50 -12 -94 -26 -79 -25 -81 -26 -136 -10 -31 9 -65 26 -74 36 -24 26 -30
137 -9 157 8 8 14 23 14 32 0 10 7 24 15 31 8 7 15 18 15 24 0 16 87 70 140
86 60 18 72 28 68 58 -4 33 -47 46 -86 26 -15 -8 -33 -14 -40 -14 -27 0 -142
-68 -142 -85 0 -4 -11 -16 -24 -26 -13 -10 -26 -29 -29 -41 -28 -117 -37 -140
-70 -179 -21 -23 -37 -46 -37 -51 0 -4 -7 -8 -15 -8 -7 0 -18 -6 -22 -13 -4
-8 -20 -22 -35 -32 -16 -9 -28 -22 -28 -27 0 -6 -22 -43 -48 -82 -88 -130 -97
-159 -97 -331 0 -91 5 -170 13 -201 7 -28 15 -94 17 -145 1 -52 6 -128 10
-170 5 -61 4 -83 -9 -108 -9 -17 -16 -33 -16 -36 1 -36 -5 -50 -30 -74 -57
-51 -99 -67 -175 -66 -96 1 -160 33 -251 122 -81 78 -88 91 -134 223 -18 52
-37 99 -41 104 -5 6 -9 22 -9 37 0 33 -38 159 -48 159 -4 0 -8 9 -9 21 -3 39
-57 114 -141 197 -83 82 -111 100 -162 107 -14 2 -38 8 -53 14 -16 6 -39 11
-51 11 l-23 0 23 48 c45 92 64 244 49 381 -9 74 -51 215 -70 231 -8 6 -17 22
-21 33 -4 12 -17 36 -30 53 -13 17 -24 36 -24 42 0 7 -4 12 -9 12 -4 0 -35 27
-67 59 -32 33 -62 57 -66 55 -5 -3 -8 -1 -8 4 0 6 -27 23 -60 38 -33 15 -60
31 -60 36 0 4 -11 8 -25 8 l-25 0 19 38 c25 49 55 155 76 271 19 102 16 284
-5 351 -7 19 -13 49 -15 66 -3 28 -24 61 -98 157 -20 26 -186 114 -231 123
-10 2 -33 8 -50 13 -31 11 -103 20 -108 15z m122 -131 c30 -8 89 -33 131 -55
l77 -41 -10 -31 c-6 -17 -19 -50 -29 -73 -10 -24 -19 -45 -19 -47 0 -3 -11
-16 -24 -30 -24 -26 -46 -34 -46 -17 0 12 -44 61 -55 61 -4 0 -23 7 -42 16
-26 13 -50 15 -101 11 -37 -4 -68 -11 -70 -17 -2 -5 -8 -10 -13 -10 -21 0
-132 -103 -166 -153 -57 -85 -93 -158 -93 -190 0 -47 -17 -20 -25 38 -12 93
-14 220 -5 267 17 89 80 204 106 194 8 -3 14 -1 14 4 0 6 7 10 15 10 8 0 15 9
15 20 0 11 6 20 14 20 8 0 16 4 18 9 2 5 28 12 58 16 30 3 56 8 59 11 10 10
140 1 191 -13z m-489 -102 c-12 -16 -21 -35 -21 -43 0 -8 -5 -19 -12 -26 -13
-13 -12 -10 -28 -102 -16 -93 -18 -121 -9 -154 9 -30 3 -48 -9 -30 -15 21 -63
44 -93 44 -18 0 -60 -14 -94 -30 -86 -42 -148 -123 -208 -270 -26 -64 -6 -184
37 -219 9 -7 16 -20 16 -27 0 -8 7 -14 15 -14 8 0 15 -5 15 -11 0 -5 5 -7 10
-4 6 3 10 2 10 -3 0 -28 -131 -45 -218 -28 -55 11 -57 13 -89 70 -23 40 -30
61 -22 69 17 21 79 118 79 126 0 4 9 17 20 28 11 12 28 36 39 53 41 68 223
285 305 365 140 135 256 235 273 235 2 0 -5 -13 -16 -29z m780 -118 c21 -43
24 -61 25 -188 1 -93 -3 -153 -12 -178 -7 -20 -13 -41 -14 -45 -1 -25 -14 -79
-20 -87 -5 -5 -8 -13 -8 -18 -1 -22 -37 -130 -61 -182 -16 -33 -43 -94 -60
-135 -64 -150 -75 -161 -95 -104 -15 39 -38 74 -51 74 -20 1 -53 47 -80 110
-15 35 -34 69 -42 75 -17 13 -18 11 55 78 52 46 126 152 142 204 7 21 16 43
21 49 11 14 32 151 25 163 -4 5 12 30 34 56 22 25 45 56 51 68 7 12 18 25 24
29 7 4 16 24 19 43 4 19 10 35 15 35 4 0 18 -21 32 -47z m-350 -89 c20 -4 49
-17 63 -29 l27 -24 -23 -12 c-12 -7 -29 -18 -36 -26 -7 -7 -21 -13 -30 -13
-10 0 -22 -8 -28 -18 -7 -10 -30 -24 -52 -31 -26 -9 -53 -29 -74 -55 -18 -23
-36 -42 -40 -44 -4 -2 -8 -10 -8 -18 0 -9 -4 -12 -10 -9 -5 3 -10 1 -10 -5 0
-6 -11 -22 -24 -35 -13 -13 -34 -38 -47 -57 -12 -18 -33 -43 -46 -55 -13 -12
-23 -28 -23 -36 0 -7 -7 -22 -15 -33 -14 -18 -15 -18 -11 6 3 14 5 25 6 25 1
0 3 9 4 20 6 39 39 139 67 202 47 106 123 193 202 232 46 23 54 24 108 15z
m88 -176 c-16 -72 -72 -171 -131 -230 -10 -10 -18 -21 -18 -26 0 -4 -17 -16
-37 -27 -21 -11 -40 -22 -43 -25 -12 -13 -75 -38 -83 -33 -5 3 -13 0 -17 -6
-7 -12 -90 -29 -90 -19 0 15 35 69 70 107 22 25 40 48 40 52 0 22 133 153 177
174 26 13 66 35 88 49 22 14 43 26 46 26 4 0 3 -19 -2 -42z m-646 -42 c9 -5
17 -17 17 -27 0 -10 5 -18 12 -16 7 1 12 -2 13 -8 0 -5 9 -25 19 -44 21 -39
23 -134 4 -198 -10 -34 -18 -44 -41 -49 -16 -3 -43 -19 -61 -35 -28 -24 -37
-27 -62 -19 -16 5 -49 14 -72 21 -83 24 -117 109 -81 202 51 128 168 209 252
173z m101 -441 c6 -25 -3 -64 -15 -66 -27 -5 -34 -2 -39 21 -4 15 -13 24 -23
24 -19 -2 -15 9 16 43 16 18 23 20 38 10 10 -6 20 -20 23 -32z m303 0 c20 -8
34 -18 30 -21 -3 -3 -25 4 -49 15 -50 23 -35 28 19 6z m-997 -51 c38 -60 75
-75 185 -75 75 0 133 10 174 32 23 12 45 19 48 15 4 -3 0 -6 -7 -6 -19 0 -300
-286 -300 -306 0 -9 -9 -28 -20 -44 -36 -51 -61 -141 -61 -220 1 -40 -5 -51
-44 -93 -53 -58 -60 -55 -95 43 -44 122 -25 377 41 564 10 31 19 61 19 69 0
12 27 57 35 57 2 0 13 -16 25 -36z m1526 -11 c22 -9 41 -17 44 -18 35 -6 193
-158 205 -196 4 -10 11 -19 16 -19 5 0 9 -5 9 -12 0 -6 9 -31 20 -54 12 -23
25 -68 31 -100 5 -33 12 -73 15 -90 12 -74 11 -170 -2 -208 -28 -80 -106 -224
-131 -243 -14 -10 -47 -38 -73 -63 -70 -65 -131 -115 -140 -115 -21 0 -116
-104 -112 -122 2 -7 -1 -13 -5 -13 -4 0 -16 -28 -26 -62 -10 -35 -24 -83 -32
-106 -18 -58 -10 -216 12 -244 13 -17 25 -47 28 -74 2 -11 14 -45 28 -75 14
-30 28 -69 32 -87 4 -18 9 -31 12 -28 3 3 13 -5 23 -17 18 -21 19 -21 38 -3
12 10 24 31 27 47 6 27 -9 90 -28 116 -13 19 24 24 125 18 130 -7 145 -9 218
-30 140 -40 200 -113 200 -242 0 -173 -130 -294 -363 -338 -254 -47 -374 -55
-652 -41 -93 4 -246 10 -340 11 -209 4 -263 9 -340 33 -99 32 -134 42 -147 42
-8 0 -41 14 -73 30 -93 47 -160 129 -156 189 4 61 27 89 101 125 38 19 71 32
74 29 2 -3 15 4 27 15 12 12 36 24 53 28 17 3 40 11 51 17 18 10 59 22 168 46
34 8 50 0 27 -14 -5 -3 -10 -21 -10 -38 0 -26 6 -35 32 -46 41 -18 58 -7 80
55 10 27 27 61 39 77 11 15 22 46 24 67 2 22 15 72 29 112 47 138 55 408 17
551 -13 48 -22 89 -20 90 2 2 30 20 62 41 49 32 87 67 173 157 5 5 57 55 115
112 75 71 115 119 134 157 15 30 40 71 55 90 15 19 30 42 33 50 4 8 17 31 28
50 12 19 22 40 23 45 1 6 11 24 22 40 12 17 36 59 53 95 18 35 36 69 40 75 5
5 16 31 26 58 20 52 26 54 81 30z m-518 -29 c29 -8 55 -14 56 -14 8 0 19 -57
17 -85 -3 -36 -22 -95 -32 -95 -7 0 -22 -39 -20 -52 1 -5 -8 -8 -19 -8 -11 0
-20 -4 -20 -9 0 -10 -22 -19 -64 -27 -34 -6 -107 19 -137 47 -42 39 -67 107
-57 154 8 35 48 83 70 85 4 0 19 5 35 12 15 6 31 12 35 12 3 1 9 4 13 8 4 3
21 2 38 -4 18 -5 56 -16 85 -24z m-530 -118 c-5 -22 -15 -54 -23 -71 -8 -16
-21 -47 -29 -69 -27 -65 -83 -131 -148 -174 -35 -23 -78 -54 -97 -69 -19 -16
-37 -27 -40 -26 -3 1 -12 -3 -18 -9 -10 -8 -13 -3 -13 22 0 62 91 222 165 292
131 122 160 145 185 145 27 0 27 -1 18 -41z m140 29 c1 -1 4 -22 5 -46 3 -42
-15 -115 -48 -186 -8 -18 -22 -50 -31 -70 -58 -140 -118 -209 -205 -236 -69
-21 -88 -21 -141 0 -61 23 -64 29 -25 48 20 9 38 23 41 30 3 8 22 23 43 34 67
35 144 99 163 138 8 15 21 37 30 48 18 22 36 63 75 177 27 77 27 77 59 71 17
-3 32 -7 34 -8z m569 -27 c49 -104 48 -97 18 -155 -15 -29 -38 -67 -51 -85
-14 -18 -51 -69 -83 -113 -32 -44 -82 -100 -111 -125 -51 -43 -66 -58 -157
-152 -48 -50 -133 -114 -133 -100 0 18 43 112 51 112 5 0 9 8 9 18 0 9 7 31
16 47 27 51 30 178 5 261 -11 39 -21 74 -21 77 0 4 16 -5 36 -18 20 -14 58
-28 85 -31 27 -4 52 -11 55 -16 4 -5 10 -5 17 1 13 10 16 11 53 11 58 0 188
180 187 258 -1 37 9 41 24 10z m-501 -293 c9 -33 18 -74 19 -91 1 -17 5 -36 9
-42 4 -6 -1 -37 -9 -69 -18 -63 -95 -223 -107 -223 -4 0 -10 11 -14 25 -3 14
-11 26 -18 26 -6 1 -23 3 -39 5 -15 1 -25 -1 -22 -7 4 -5 1 -9 -4 -9 -17 0
-13 -68 5 -95 15 -23 15 -24 -13 -32 -15 -4 -68 -7 -118 -7 -81 0 -97 3 -157
32 -37 18 -71 32 -75 32 -5 0 -25 9 -46 20 -20 11 -37 17 -37 13 0 -3 -8 4
-19 15 -10 12 -22 22 -25 22 -4 0 -15 7 -23 16 -15 14 -15 19 0 50 27 55 54
61 116 25 28 -17 63 -31 77 -31 13 0 33 -5 43 -12 23 -14 106 2 170 33 22 10
45 19 51 19 5 0 10 3 10 8 0 4 18 27 39 51 22 25 48 61 58 80 10 20 23 41 30
48 6 7 21 45 33 85 13 40 25 77 27 81 9 15 22 -7 39 -68z"/>
<path d="M458 3671 c-14 -14 -40 -57 -58 -96 -18 -38 -46 -89 -61 -112 -40
-57 -52 -92 -39 -108 15 -18 48 -7 55 19 12 41 36 86 46 86 6 0 8 4 4 9 -3 5
-2 12 3 15 5 3 24 35 42 71 19 36 42 71 52 76 10 5 18 20 18 33 0 35 -31 38
-62 7z"/>
<path d="M753 3678 c-13 -6 -25 -19 -28 -28 -3 -10 -27 -39 -52 -65 -45 -45
-58 -62 -85 -115 -24 -47 -72 -125 -85 -138 -7 -7 -13 -20 -13 -29 0 -8 -25
-60 -55 -116 -30 -55 -55 -103 -55 -107 0 -14 -40 -87 -54 -100 -18 -14 -20
-38 -7 -59 8 -12 12 -12 25 -2 20 17 57 83 81 146 10 28 33 75 51 105 17 30
35 65 38 78 4 12 12 22 17 22 5 0 8 3 7 8 -4 12 24 72 33 72 5 0 9 5 9 11 0
35 135 209 161 209 5 0 9 6 9 14 0 8 14 24 31 36 51 37 28 85 -28 58z"/>
<path d="M1000 3633 c-45 -29 -182 -177 -218 -233 -19 -30 -56 -84 -82 -120
-26 -36 -62 -94 -81 -130 -19 -36 -37 -67 -40 -70 -10 -10 -86 -155 -94 -180
-7 -26 -43 -106 -78 -177 -12 -23 -26 -41 -31 -40 -17 3 -37 -72 -26 -93 9
-16 14 -18 34 -8 14 6 27 22 31 36 9 35 39 101 73 159 16 27 34 69 40 95 11
42 46 115 62 128 4 3 13 19 22 35 8 17 32 62 53 100 35 65 49 83 98 136 9 10
17 22 17 25 0 3 14 26 30 51 17 24 30 46 30 48 0 6 83 95 110 119 13 11 37 33
53 49 16 15 32 27 37 27 12 0 23 37 15 50 -9 14 -27 12 -55 -7z"/>
</g>
</svg>
