<?xml version="1.0" standalone="no"?>
<!DOCTYPE svg PUBLIC "-//W3C//DTD SVG 20010904//EN"
 "http://www.w3.org/TR/2001/REC-SVG-20010904/DTD/svg10.dtd">
<svg version="1.0" xmlns="http://www.w3.org/2000/svg"
 width="507.000000pt" height="399.000000pt" viewBox="0 0 507.000000 399.000000"
 preserveAspectRatio="xMidYMid meet">
<metadata>
Created by potrace 1.16, written by Peter Selinger 2001-2019
</metadata>
<g transform="translate(0.000000,399.000000) scale(0.100000,-0.100000)"
fill="#000000" stroke="none">
<path d="M4368 3681 c-20 -10 -47 -21 -61 -25 -34 -8 -113 -83 -137 -131 -36
-71 -63 -183 -51 -215 8 -25 5 -34 -22 -71 -18 -23 -36 -49 -42 -58 -5 -9 -13
-18 -16 -21 -4 -3 -9 -15 -13 -27 -4 -13 -13 -29 -19 -35 -21 -23 -34 -74 -33
-130 2 -66 48 -167 106 -230 22 -24 40 -46 40 -50 0 -5 5 -8 11 -8 6 0 34 -15
62 -34 46 -29 123 -70 137 -71 3 -1 35 -15 72 -33 37 -18 72 -32 78 -32 18 0
188 -176 208 -216 11 -22 27 -54 37 -72 34 -66 13 -165 -50 -228 -24 -25 -95
-84 -150 -127 -41 -31 -55 -47 -76 -87 -48 -93 -51 -110 -33 -245 2 -22 15
-60 28 -85 13 -25 29 -63 36 -85 7 -22 18 -47 25 -55 19 -23 35 -79 35 -119 0
-78 -81 -190 -171 -237 -64 -33 -299 -22 -345 17 -8 7 -14 6 -18 -3 -3 -7 -3
16 0 52 3 36 7 90 9 120 3 30 7 80 11 110 4 30 6 93 5 140 -4 168 -12 356 -17
400 -2 25 -4 80 -4 122 1 80 -12 118 -40 118 -9 0 -30 11 -48 24 -22 16 -52
25 -94 29 -35 4 -74 9 -88 12 -69 14 -86 18 -95 23 -5 4 -20 8 -33 10 -12 1
-35 8 -50 14 -36 15 -52 19 -87 23 -16 1 -63 12 -102 23 -40 11 -73 18 -73 15
0 -3 -6 -1 -12 5 -7 5 -34 13 -60 16 -27 4 -48 11 -48 17 0 5 -10 9 -23 9 -29
0 -196 35 -257 54 -65 20 -128 34 -185 41 -27 4 -66 10 -85 15 -19 5 -70 17
-113 26 -43 9 -80 21 -83 26 -3 4 -15 8 -28 8 -12 0 -27 5 -34 12 -7 7 -12 9
-12 6 0 -4 -24 0 -52 9 -29 9 -62 17 -73 19 -62 12 -178 37 -230 50 -33 8 -82
19 -110 25 -27 6 -54 14 -60 19 -9 7 -115 41 -123 40 -1 0 -20 5 -41 11 -54
16 -90 6 -87 -24 4 -34 14 -47 37 -47 11 0 30 -5 41 -11 52 -28 -48 -27 -107
1 -32 15 -133 30 -201 30 -72 0 -90 -14 -80 -61 5 -28 -17 -104 -45 -149 -5
-8 -15 -26 -21 -40 -7 -14 -15 -27 -19 -30 -3 -3 -8 -12 -11 -21 -6 -15 -37
-26 -98 -35 -65 -9 -155 159 -166 311 -3 33 -6 67 -7 75 -1 8 2 48 7 88 6 53
5 76 -4 87 -15 18 -54 20 -68 3 -11 -15 -24 -92 -26 -158 -2 -57 22 -212 34
-224 6 -6 10 -17 10 -26 0 -36 62 -138 113 -187 50 -49 58 -53 102 -53 41 0
46 -2 40 -17 -4 -10 -14 -40 -23 -66 -8 -26 -18 -44 -21 -40 -18 24 -175 17
-207 -8 -35 -28 -121 34 -165 119 -19 39 -22 61 -24 180 -1 76 -2 142 -3 149
-1 6 -15 16 -31 21 -26 9 -32 8 -46 -14 -9 -15 -16 -44 -15 -72 1 -26 1 -72 1
-102 0 -85 5 -106 43 -183 64 -131 79 -150 131 -176 52 -26 141 -34 153 -14 9
14 99 26 106 15 2 -4 -7 -35 -20 -67 -14 -33 -31 -78 -39 -100 -20 -55 -64
-143 -65 -128 0 7 -15 20 -33 29 -17 9 -34 20 -37 24 -3 4 -31 15 -63 25 -46
14 -74 16 -140 11 -101 -9 -155 -8 -178 4 -48 26 -63 222 -24 323 21 56 14 93
-21 109 -20 9 -28 9 -38 -3 -16 -16 -59 -155 -53 -167 3 -4 1 -31 -3 -60 -16
-100 29 -245 90 -290 36 -27 140 -43 177 -27 42 17 178 3 228 -25 63 -34 72
-46 53 -67 -8 -10 -30 -51 -48 -90 -18 -40 -37 -73 -41 -73 -5 0 -9 -6 -9 -13
0 -14 -85 -184 -104 -207 -7 -8 -20 -41 -30 -74 -12 -40 -24 -60 -37 -63 -11
-3 -21 -16 -24 -29 -3 -13 -7 -35 -10 -48 -3 -14 -1 -27 4 -30 5 -3 9 -17 8
-31 0 -31 5 -37 35 -41 21 -2 84 -15 168 -34 228 -50 278 -62 298 -70 13 -6
58 -17 100 -25 42 -9 86 -20 97 -25 11 -6 56 -17 100 -24 187 -34 229 -45 302
-78 11 -6 26 -7 32 -4 6 4 11 3 11 -2 0 -5 10 -13 23 -17 12 -4 24 -8 27 -9 9
-4 95 -29 106 -32 6 -1 56 -15 110 -32 54 -16 109 -30 121 -30 11 0 52 -10 90
-21 37 -11 71 -19 74 -18 3 1 12 -3 20 -9 13 -11 70 -22 148 -30 65 -6 111
-16 117 -25 3 -5 22 -9 42 -9 20 0 55 -5 77 -10 22 -5 78 -12 125 -16 47 -3
87 -10 88 -15 6 -15 79 -10 92 6 10 12 15 13 31 1 17 -11 27 -11 67 3 26 9 49
18 52 21 3 3 14 7 25 8 11 2 38 10 60 18 22 7 52 14 67 14 15 0 53 7 85 16 88
25 225 56 339 78 12 2 52 13 90 25 38 11 89 23 113 27 30 5 45 13 48 25 3 11
11 19 19 19 24 0 30 33 29 155 -2 140 1 159 24 149 9 -4 28 -8 42 -9 14 -1 31
-5 37 -9 48 -29 284 -16 322 19 9 8 21 15 27 15 19 0 129 116 148 156 10 22
22 42 27 45 13 8 23 65 22 126 -1 55 -24 126 -59 183 -12 19 -28 52 -35 73 -7
22 -18 51 -26 65 -20 39 -13 169 11 207 25 39 71 84 121 116 42 28 124 103
124 114 0 4 8 19 19 33 27 40 44 125 37 185 -7 54 -65 179 -97 210 -11 10 -19
22 -19 27 0 34 -187 193 -240 205 -18 4 -47 16 -64 26 -17 10 -37 19 -43 19
-17 0 -145 77 -188 113 -19 16 -51 53 -72 84 -51 77 -50 122 4 223 46 84 64
101 91 83 55 -40 98 -55 165 -58 58 -3 76 0 98 16 15 10 31 19 35 19 4 0 43
15 87 32 95 39 103 53 71 123 l-24 50 38 8 c20 5 47 10 59 13 26 5 43 52 23
64 -6 4 -11 11 -10 16 3 16 -34 21 -60 7 -39 -20 -68 -16 -86 13 -15 21 -15
27 -4 34 8 5 18 6 22 4 4 -3 8 0 8 5 0 6 9 11 20 11 11 0 20 6 20 13 0 8 3 8
9 -2 7 -11 13 -6 26 18 15 30 15 35 0 57 -20 31 -38 30 -102 -5 l-52 -29 -7
44 c-6 44 -25 61 -56 49 -10 -4 -17 1 -21 14 -7 26 -39 27 -89 2z m122 -166
c7 -22 20 -51 30 -65 9 -14 20 -36 22 -50 3 -14 14 -47 24 -73 19 -48 19 -49
0 -63 -11 -8 -45 -23 -75 -34 -31 -11 -64 -25 -73 -30 -53 -30 -169 15 -206
81 -20 34 -23 49 -17 88 6 39 28 94 45 111 3 3 6 12 8 20 9 38 136 116 174
107 10 -3 21 0 25 5 6 11 15 -11 43 -97z m-2759 -1005 c5 0 9 -4 9 -9 0 -4
-11 -6 -25 -3 -14 2 -25 9 -25 14 0 6 7 7 16 4 9 -3 20 -6 25 -6z m119 -42 c0
-6 -7 -7 -16 -4 -9 3 -20 6 -25 6 -5 0 -9 4 -9 9 0 4 11 6 25 3 14 -2 25 -9
25 -14z m-335 -23 c61 -8 126 -19 145 -25 19 -6 80 -19 135 -30 55 -10 121
-26 146 -34 53 -18 210 -61 319 -87 41 -9 107 -27 145 -39 39 -12 81 -23 95
-24 48 -6 195 -37 216 -46 14 -5 26 -4 33 3 8 8 11 8 11 -1 0 -7 8 -12 18 -12
10 0 21 -3 25 -6 3 -3 41 -19 84 -34 43 -15 98 -35 122 -44 24 -9 60 -17 80
-18 20 0 54 -10 76 -20 47 -24 156 -49 203 -48 18 0 66 -11 107 -25 40 -14 80
-22 88 -19 12 4 13 -2 1 -48 -13 -49 -32 -96 -44 -108 -3 -3 -16 -27 -30 -55
-14 -27 -27 -52 -30 -55 -6 -6 -23 -44 -43 -95 -8 -22 -21 -56 -28 -75 -8 -19
-14 -37 -15 -40 -3 -21 -28 -101 -39 -125 -8 -16 -28 -73 -46 -125 -32 -95
-51 -141 -68 -170 -10 -16 -52 -122 -82 -207 -10 -29 -25 -67 -33 -85 -8 -18
-31 -73 -51 -123 -20 -49 -47 -112 -60 -140 -13 -27 -27 -63 -31 -78 -4 -20
-10 -25 -17 -18 -7 7 -14 7 -24 0 -7 -6 -21 -8 -30 -4 -10 5 -40 9 -68 10 -68
4 -207 23 -280 39 -70 16 -157 34 -200 40 -16 3 -68 16 -114 30 -46 14 -101
26 -122 26 -22 0 -47 4 -57 9 -33 17 -178 61 -200 61 -12 0 -22 5 -22 10 0 6
-8 10 -18 10 -9 0 -78 21 -152 46 -74 25 -198 59 -275 75 -77 16 -194 43 -260
60 -190 49 -371 92 -438 103 -33 6 -36 9 -22 22 8 9 15 23 15 33 0 9 4 21 8
26 5 6 17 33 27 60 10 28 58 130 108 228 91 177 91 178 108 155 10 -13 23 -51
30 -85 7 -35 16 -63 21 -63 4 0 8 -7 8 -15 0 -17 27 -19 63 -6 22 9 24 13 17
50 -4 22 -12 46 -17 53 -6 7 -23 47 -38 88 -16 41 -32 78 -37 81 -15 10 -11
41 16 109 39 101 93 221 105 233 22 22 121 -116 121 -170 0 -28 33 -52 64 -46
14 3 29 10 32 15 7 10 -17 108 -26 108 -3 0 -12 16 -19 35 -7 19 -18 41 -24
48 -7 7 -31 36 -55 65 l-43 52 24 53 c13 28 30 67 37 85 13 34 23 37 93 26 49
-9 104 -62 144 -139 31 -61 63 -85 97 -72 43 17 -7 128 -100 220 -37 37 -75
67 -85 67 -10 0 -21 5 -24 10 -3 6 -16 10 -29 10 -12 0 -25 2 -28 5 -6 6 73
167 87 177 6 4 6 8 1 8 -5 0 -3 7 4 15 15 18 10 18 145 0z m455 -5 c18 -12 2
-12 -25 0 -13 6 -15 9 -5 9 8 0 22 -4 30 -9z m103 -27 c-7 -2 -19 -2 -25 0 -7
3 -2 5 12 5 14 0 19 -2 13 -5z m222 -45 c44 -12 75 -23 69 -25 -6 -2 -30 1
-53 7 -22 5 -60 15 -83 20 -51 13 -88 34 -43 25 17 -3 66 -16 110 -27z m112
-34 c-3 -3 -12 -4 -19 -1 -8 3 -5 6 6 6 11 1 17 -2 13 -5z m370 -80 c-3 -3
-12 -4 -19 -1 -8 3 -5 6 6 6 11 1 17 -2 13 -5z m112 -25 c17 -6 31 -15 31 -20
0 -5 -12 -3 -27 4 -16 8 -35 17 -43 20 -29 10 7 7 39 -4z m205 -51 c22 -6 48
-13 56 -14 8 -2 31 -6 50 -9 19 -4 62 -16 95 -27 72 -24 133 -39 160 -39 10 0
24 -3 30 -8 5 -4 36 -16 68 -25 31 -10 57 -20 57 -23 0 -6 -81 7 -100 17 -8 4
-37 11 -63 14 -26 4 -71 11 -100 17 -29 6 -61 12 -73 13 -11 2 -36 10 -54 19
-18 9 -60 22 -94 28 -69 13 -166 47 -166 59 0 8 67 -3 134 -22z m601 -157 c52
-17 56 -20 30 -22 -16 -1 -40 -2 -52 -1 -13 0 -23 -5 -23 -11 -1 -12 -29 32
-30 46 0 10 8 9 75 -12z m226 -98 c1 -5 3 -33 5 -63 1 -30 7 -93 12 -140 11
-102 12 -483 1 -525 -4 -16 -10 -59 -14 -94 -3 -36 -8 -68 -11 -73 -7 -11 -16
-175 -18 -311 -1 -107 -1 -108 -26 -113 -14 -3 -62 -17 -108 -31 -46 -14 -95
-27 -110 -29 -15 -2 -56 -10 -92 -19 -36 -9 -76 -18 -90 -19 -35 -5 -113 -27
-125 -35 -5 -4 -29 -9 -51 -10 -35 -1 -83 -13 -196 -48 -20 -6 -24 16 -8 45 5
9 16 37 24 62 16 50 50 139 71 185 22 48 75 183 105 270 28 78 74 205 87 235
3 8 8 24 10 35 2 10 17 45 33 77 16 32 34 84 41 116 7 31 22 73 34 92 12 19
29 53 39 75 9 22 43 92 74 156 50 103 61 118 87 124 17 4 33 7 37 7 11 -2 140
27 146 32 8 9 42 7 43 -1z"/>
<path d="M1660 2181 c-24 -45 32 -78 115 -67 17 2 91 -12 165 -31 74 -19 181
-45 236 -58 56 -13 130 -35 165 -48 35 -14 78 -28 94 -31 81 -17 307 -95 313
-108 2 -4 9 -5 16 -2 23 9 40 -23 27 -52 -6 -14 -11 -36 -11 -49 0 -14 -5 -25
-10 -25 -6 0 -10 -6 -9 -12 1 -7 -3 -26 -9 -41 -7 -16 -12 -32 -12 -37 0 -5
-6 -15 -13 -22 -7 -7 -21 -33 -31 -58 -10 -25 -21 -47 -24 -50 -4 -3 -18 -26
-31 -52 -14 -26 -27 -46 -31 -45 -16 5 -52 -47 -71 -102 -11 -35 -31 -75 -45
-90 -28 -29 -39 -63 -30 -87 3 -9 -3 -36 -14 -61 -11 -25 -20 -52 -20 -61 0
-14 -37 -82 -50 -92 -9 -6 -24 -61 -21 -77 2 -12 -31 -20 -94 -22 -22 -1 -48
-4 -57 -7 -15 -4 -62 9 -158 44 -8 3 -19 6 -25 6 -5 1 -37 12 -70 24 -39 15
-70 21 -90 18 -20 -4 -45 1 -70 12 -22 11 -62 25 -90 31 -50 13 -64 18 -120
41 -16 7 -59 18 -95 26 -36 7 -110 24 -164 39 -116 30 -171 30 -171 0 0 -17
11 -22 70 -32 107 -18 166 -31 210 -47 22 -8 64 -19 94 -26 30 -6 61 -16 68
-22 7 -6 30 -14 51 -19 85 -18 128 -31 150 -45 13 -8 41 -14 65 -13 41 2 196
-44 261 -78 22 -11 62 -17 130 -18 65 -1 101 -6 104 -13 2 -8 11 -7 27 4 26
17 31 27 51 103 8 29 23 64 33 78 11 13 23 38 27 56 3 17 16 44 27 59 16 22
19 37 14 82 -5 53 -2 60 23 58 6 -1 45 100 54 139 3 14 17 32 32 39 14 8 30
24 36 35 17 37 35 66 57 89 12 12 23 31 25 42 2 10 18 49 35 87 17 37 31 72
31 77 0 6 3 10 8 10 8 0 34 95 34 122 -1 10 3 20 9 23 15 10 -17 60 -46 73
-14 7 -37 12 -50 12 -13 0 -47 9 -75 20 -28 11 -61 20 -73 20 -13 0 -40 9 -60
19 -21 11 -57 22 -80 26 -23 3 -67 14 -97 24 -134 44 -251 76 -315 86 -22 4
-45 11 -51 16 -6 5 -27 11 -47 13 -20 3 -60 12 -89 22 -29 9 -84 19 -123 23
-38 4 -78 11 -87 15 -11 5 -20 1 -28 -13z"/>
<path d="M1698 1870 c-32 -35 -34 -48 -14 -76 12 -15 18 -17 33 -7 10 6 17 16
16 21 -7 30 133 29 142 -1 2 -7 6 -24 9 -38 11 -49 66 -42 66 8 0 31 18 36 82
26 45 -7 53 -12 54 -30 3 -50 62 -75 97 -42 48 44 110 10 122 -65 10 -63 15
-75 36 -86 28 -15 44 6 44 57 l0 43 45 2 c75 2 102 -3 122 -22 21 -19 17 -40
-8 -40 -19 0 -18 -22 4 -40 34 -30 87 -8 94 39 4 26 -3 38 -44 78 l-49 48
-102 2 c-85 2 -105 5 -122 21 -33 31 -61 42 -111 42 -34 0 -54 6 -70 21 -12
11 -39 22 -60 25 -22 3 -50 7 -64 11 -14 3 -37 5 -52 5 -16 -1 -36 -2 -45 -2
-27 -1 -57 5 -71 14 -8 4 -39 10 -70 13 -54 4 -59 2 -84 -27z"/>
<path d="M1533 1573 c-13 -2 -37 -18 -54 -35 -28 -28 -30 -36 -25 -72 4 -22
12 -46 18 -53 28 -34 80 6 58 46 -16 31 -12 38 26 45 56 11 100 -9 126 -56 13
-23 28 -43 35 -45 17 -6 58 38 44 46 -6 4 -9 15 -5 24 8 21 86 23 127 5 22
-11 57 -68 41 -68 -3 0 1 -7 10 -15 8 -8 24 -15 35 -15 20 0 23 4 25 40 1 22
42 24 92 5 38 -14 44 -21 44 -45 0 -38 15 -76 32 -83 21 -8 46 16 50 48 3 27
7 30 48 35 50 6 98 -7 117 -30 17 -21 16 -30 -5 -30 -27 0 -32 -9 -20 -36 13
-28 38 -38 78 -29 26 6 30 11 30 40 0 45 -12 75 -44 107 -25 25 -97 50 -141
48 -11 0 -40 -1 -65 -2 -33 -1 -56 6 -86 24 -29 18 -58 27 -104 30 -37 3 -82
13 -105 25 -57 29 -152 38 -189 18 -16 -9 -32 -12 -35 -7 -9 12 -94 42 -116
41 -11 -1 -30 -4 -42 -6z"/>
<path d="M1301 1270 c-61 -26 -67 -81 -15 -134 34 -35 37 -36 54 -21 22 20 20
40 -5 58 -29 22 -9 39 44 36 57 -3 78 -13 116 -55 40 -44 75 -46 75 -4 0 35
15 38 102 18 56 -13 73 -27 83 -69 8 -33 48 -54 65 -33 7 7 10 22 7 33 -5 21
23 50 54 56 12 3 32 -10 54 -32 34 -35 39 -45 36 -71 -1 -6 10 -17 25 -24 23
-11 28 -10 40 7 8 10 14 29 14 42 0 21 15 29 45 23 6 -1 19 -3 30 -4 76 -11
98 -20 116 -50 14 -22 19 -42 15 -69 -7 -61 1 -77 40 -77 l34 0 0 54 c0 97
-46 170 -115 182 -22 3 -49 8 -60 10 -77 16 -103 16 -129 -1 -26 -18 -27 -18
-33 4 -12 48 -116 74 -176 44 -25 -12 -30 -12 -56 6 -16 11 -39 25 -52 30 -37
14 -172 22 -189 12 -10 -7 -24 -4 -47 11 -38 23 -135 33 -172 18z"/>
<path d="M2830 1051 c0 -7 -17 -9 -45 -5 -81 9 -159 -48 -221 -161 -33 -60
-38 -78 -37 -130 1 -92 39 -144 125 -170 71 -20 176 12 246 76 36 32 61 98 56
145 -2 16 -5 56 -8 89 -4 57 -31 125 -49 125 -5 0 -22 9 -38 21 -16 11 -29 16
-29 10z m20 -119 c0 -4 -10 -8 -21 -9 -12 -1 -29 -9 -38 -17 -10 -9 -21 -16
-25 -16 -4 0 -16 -9 -28 -20 -12 -11 -28 -20 -35 -20 -7 0 -13 -3 -13 -7 0
-15 -59 -75 -69 -71 -20 6 43 111 79 131 19 10 39 23 45 28 11 11 105 12 105
1z m4 -134 c-18 -59 -84 -108 -145 -108 -27 0 -29 2 -15 15 8 8 24 26 35 41
17 22 102 72 124 73 5 1 5 -9 1 -21z"/>
</g>
</svg>
