<?xml version="1.0" standalone="no"?>
<!DOCTYPE svg PUBLIC "-//W3C//DTD SVG 20010904//EN"
 "http://www.w3.org/TR/2001/REC-SVG-20010904/DTD/svg10.dtd">
<svg version="1.0" xmlns="http://www.w3.org/2000/svg"
 width="437.000000pt" height="401.000000pt" viewBox="0 0 437.000000 401.000000"
 preserveAspectRatio="xMidYMid meet">
<metadata>
Created by potrace 1.16, written by Peter Selinger 2001-2019
</metadata>
<g transform="translate(0.000000,401.000000) scale(0.100000,-0.100000)"
fill="#000000" stroke="none">
<path d="M2050 3903 c-106 -11 -254 -38 -344 -63 -572 -161 -1042 -609 -1231
-1172 -219 -654 -51 -1361 441 -1852 470 -471 1140 -645 1789 -465 635 175
1144 714 1284 1360 194 902 -325 1810 -1205 2104 -223 75 -519 110 -734 88z
m275 -1238 c196 -42 371 -180 457 -361 152 -322 -10 -712 -352 -847 -321 -126
-688 14 -836 320 -160 330 -2 716 351 857 115 46 255 57 380 31z"/>
<path d="M2099 2277 c-144 -54 -202 -225 -119 -348 98 -146 309 -142 397 8 24
41 28 59 28 118 0 46 -6 81 -17 101 -22 41 -72 90 -111 110 -42 22 -134 27
-178 11z m176 -68 c110 -76 111 -235 2 -307 -56 -37 -147 -38 -199 -3 -70 48
-100 127 -79 207 13 47 71 110 115 124 46 14 124 4 161 -21z"/>
</g>
</svg>
