<?xml version="1.0" standalone="no"?>
<!DOCTYPE svg PUBLIC "-//W3C//DTD SVG 20010904//EN"
 "http://www.w3.org/TR/2001/REC-SVG-20010904/DTD/svg10.dtd">
<svg version="1.0" xmlns="http://www.w3.org/2000/svg"
 width="477.000000pt" height="471.000000pt" viewBox="0 0 477.000000 471.000000"
 preserveAspectRatio="xMidYMid meet">
<metadata>
Created by potrace 1.16, written by Peter Selinger 2001-2019
</metadata>
<g transform="translate(0.000000,471.000000) scale(0.100000,-0.100000)"
fill="#000000" stroke="none">
<path d="M2650 4615 c-36 -6 -75 -17 -87 -23 -12 -7 -33 -12 -47 -12 -44 0
-226 -50 -261 -71 -5 -4 -26 -10 -45 -14 -19 -4 -39 -11 -45 -15 -5 -4 -23
-10 -40 -14 -16 -4 -37 -14 -45 -21 -8 -8 -59 -39 -113 -69 -54 -31 -113 -71
-131 -91 -18 -19 -37 -35 -42 -35 -8 -1 -63 -67 -139 -170 -39 -53 -100 -171
-114 -220 -5 -19 -21 -68 -36 -108 -14 -41 -25 -83 -24 -95 1 -12 -3 -35 -10
-51 -6 -16 -16 -47 -21 -70 -14 -67 -16 -313 -2 -427 7 -59 15 -137 17 -175 5
-63 9 -95 19 -149 18 -96 18 -105 -1 -112 -61 -23 -175 -123 -188 -165 -4 -12
-23 -42 -41 -65 -19 -23 -34 -48 -34 -57 0 -9 -3 -16 -8 -16 -4 0 -19 -21 -32
-47 -14 -26 -38 -70 -54 -98 -50 -87 -86 -187 -86 -238 0 -26 5 -91 11 -144
10 -96 38 -173 114 -316 l25 -47 -26 -10 c-14 -6 -31 -10 -37 -10 -32 -1 -145
-149 -131 -171 3 -5 0 -18 -7 -30 -6 -12 -12 -42 -13 -67 -1 -41 -4 -46 -31
-55 -16 -6 -36 -16 -43 -24 -7 -7 -17 -13 -21 -13 -15 0 -31 -83 -34 -165 -2
-89 5 -78 -106 -165 -98 -77 -131 -159 -110 -274 7 -38 5 -42 -50 -100 -31
-33 -68 -70 -82 -83 -32 -27 -84 -107 -94 -143 -4 -14 -14 -41 -22 -60 -9 -19
-17 -50 -17 -70 -1 -32 1 -35 32 -38 28 -3 32 0 32 21 0 13 3 27 7 31 4 3 8
14 9 24 13 86 37 136 89 185 16 16 53 51 82 79 l51 50 16 -29 c19 -38 94 -106
107 -97 5 3 15 1 22 -4 7 -6 25 -8 41 -5 34 7 61 61 51 102 -4 14 -6 26 -5 26
1 0 -6 16 -17 35 -22 40 -64 59 -135 59 -46 1 -47 2 -54 37 -3 19 -4 57 -1 82
6 42 14 54 69 105 35 32 75 65 91 73 26 14 29 13 50 -10 46 -49 138 -59 152
-17 7 24 -1 69 -16 87 -16 20 -68 42 -104 46 -26 3 -30 7 -28 33 6 126 9 133
67 154 26 10 31 8 65 -28 45 -49 79 -58 115 -30 23 18 27 28 25 63 -3 36 -8
43 -39 58 -19 10 -45 17 -58 18 -37 0 -50 42 -29 100 9 26 17 54 17 62 0 43
123 118 166 101 9 -3 39 -30 67 -60 59 -62 81 -76 174 -104 37 -12 76 -27 87
-34 12 -7 37 -16 56 -20 19 -4 37 -11 40 -15 3 -4 37 -4 75 1 39 4 74 5 79 2
4 -3 12 0 16 6 4 7 20 14 36 16 16 2 31 5 34 6 3 1 10 3 15 4 51 10 213 105
237 139 3 5 23 9 42 8 30 -1 39 3 48 23 6 14 14 25 18 25 4 0 12 12 19 28 7
15 30 50 52 78 21 28 39 60 39 70 0 11 4 24 9 30 12 12 48 128 57 179 14 82 8
323 -7 335 -4 3 -9 21 -12 40 -13 83 -105 308 -132 323 -8 4 -15 12 -15 17 0
11 -22 39 -69 89 -18 20 -41 45 -50 56 -25 32 -162 115 -188 115 -13 0 -23 4
-23 9 0 5 -6 9 -12 8 -43 -1 -46 3 -57 71 -24 154 -33 534 -15 667 18 140 37
205 94 320 65 132 97 185 143 235 20 23 43 50 50 59 6 10 21 21 32 25 11 3 49
31 85 60 36 30 90 69 120 87 30 17 59 38 63 45 4 8 17 14 27 14 10 0 22 5 25
10 4 6 10 8 15 5 4 -2 18 4 31 14 26 20 87 41 192 66 61 15 72 15 115 1 26 -8
92 -27 147 -42 55 -14 139 -42 187 -60 48 -19 92 -34 97 -34 23 0 171 -114
221 -171 30 -34 64 -72 75 -83 60 -63 75 -103 106 -276 6 -36 14 -69 19 -75
27 -35 103 -340 124 -500 18 -134 16 -330 -6 -446 -11 -63 -15 -70 -45 -84
-18 -9 -39 -15 -45 -13 -19 4 -149 -62 -155 -78 -3 -8 -11 -14 -17 -14 -34 0
-186 -150 -211 -208 -11 -23 -23 -42 -28 -42 -4 0 -5 -4 -2 -10 3 -5 2 -10 -3
-10 -13 0 -58 -120 -88 -235 -73 -280 -76 -336 -27 -530 65 -262 204 -435 393
-489 195 -55 417 -3 538 128 48 51 54 57 106 96 57 43 84 75 111 135 11 22 36
69 58 104 45 74 93 200 103 268 4 27 7 122 8 213 0 168 -19 303 -49 340 -7 8
-27 44 -45 80 -34 68 -124 166 -179 195 l-31 15 8 88 c13 160 5 680 -13 787
-33 194 -50 257 -98 360 -47 103 -74 153 -87 165 -3 3 -28 34 -55 70 -96 129
-242 248 -401 327 -133 67 -199 95 -249 108 -33 8 -85 22 -115 30 -37 11 -109
17 -225 19 -136 2 -178 6 -204 19 -19 9 -39 16 -45 16 -6 -1 -40 -7 -76 -14z
m-235 -166 c-17 -4 -40 -16 -51 -26 -11 -10 -42 -34 -69 -53 -28 -19 -54 -40
-60 -46 -5 -7 -37 -29 -70 -50 -33 -20 -67 -45 -75 -55 -8 -10 -37 -46 -65
-80 -27 -34 -60 -71 -72 -82 -13 -12 -23 -27 -23 -34 0 -8 -15 -37 -33 -66
-31 -48 -103 -227 -92 -227 3 0 -1 -14 -10 -30 -43 -82 -49 -294 -20 -695 3
-44 8 -102 10 -130 2 -27 8 -90 14 -140 5 -49 13 -126 17 -169 4 -49 14 -92
26 -114 16 -29 18 -46 12 -116 -3 -44 -8 -83 -9 -84 -7 -7 19 -68 37 -86 26
-28 28 -114 3 -198 -24 -81 -37 -95 -118 -122 -37 -12 -96 6 -132 40 -53 49
-49 55 41 58 29 1 57 32 49 55 -7 23 -52 36 -70 21 -7 -6 -31 -12 -53 -15
l-40 -4 26 62 c15 34 32 67 38 72 28 25 35 71 25 156 -6 46 -11 115 -11 154 0
51 -7 86 -24 130 -18 44 -22 63 -14 73 8 9 8 19 0 35 -11 22 -26 110 -37 222
-3 33 -10 92 -15 130 -14 105 -22 204 -23 265 -1 87 21 281 37 333 9 27 15 52
14 55 -3 12 25 96 39 117 7 11 13 25 13 33 0 30 106 199 193 309 53 67 77 86
157 129 30 16 64 37 74 47 11 9 24 17 28 17 5 0 29 9 53 20 103 47 254 98 290
98 12 0 8 -3 -10 -9z m990 -49 c46 -22 96 -45 111 -51 25 -9 95 -52 204 -125
35 -24 112 -95 140 -130 81 -102 121 -163 163 -248 69 -142 71 -147 92 -291 3
-16 9 -53 13 -81 8 -46 13 -193 14 -399 1 -38 -2 -115 -6 -170 -3 -55 -7 -128
-9 -162 -2 -34 -5 -65 -8 -68 -3 -3 -41 4 -84 15 -43 11 -89 20 -103 20 -23 0
-24 1 -16 48 14 80 8 397 -10 507 -8 55 -18 118 -22 140 -3 22 -12 51 -19 66
-8 14 -20 63 -29 110 -8 46 -24 106 -35 132 -12 27 -21 57 -21 68 0 10 -4 19
-8 19 -10 0 -28 73 -37 145 -3 28 -11 66 -17 85 -30 97 -298 362 -403 398 -18
6 -23 11 -12 11 10 1 56 -17 102 -39z m-1485 -1780 c-6 -11 -13 -20 -15 -20
-3 0 -5 9 -5 20 0 11 7 20 15 20 13 0 14 -4 5 -20z m1813 -57 c-7 -2 -19 -2
-25 0 -7 3 -2 5 12 5 14 0 19 -2 13 -5z m-1763 -74 c0 -5 6 -9 13 -9 7 0 44
-38 82 -85 37 -47 72 -85 77 -85 4 0 8 -11 8 -24 0 -14 5 -28 10 -31 13 -8 40
-72 44 -105 2 -14 9 -38 15 -53 6 -16 13 -55 14 -86 2 -31 6 -61 9 -67 3 -5 4
-27 2 -49 -2 -22 -4 -63 -4 -92 0 -48 -30 -152 -53 -181 -5 -7 -7 -15 -4 -18
3 -4 -3 -24 -13 -45 -11 -21 -20 -48 -20 -59 0 -11 -7 -23 -15 -26 -8 -4 -15
-11 -15 -17 0 -17 -66 -73 -108 -91 -20 -9 -45 -21 -55 -27 -36 -20 -174 -58
-234 -64 -49 -5 -69 -3 -95 10 -18 9 -60 25 -93 35 -85 26 -129 50 -116 63 15
15 14 54 -6 184 -9 62 -13 116 -8 120 4 5 10 2 12 -4 3 -7 12 -13 22 -13 9 0
21 -4 27 -9 16 -15 137 -50 179 -52 62 -2 163 18 209 42 42 22 118 78 124 92
2 4 9 13 16 20 19 19 64 128 71 172 4 22 12 56 20 75 19 53 -8 205 -49 270
-12 19 -27 47 -34 63 -6 15 -16 27 -22 27 -5 0 -10 9 -10 19 0 11 -11 41 -25
67 -14 26 -25 53 -25 61 0 11 5 10 25 -3 14 -9 25 -20 25 -25z m2299 -20 c6
-11 9 -19 7 -19 -8 0 -56 47 -56 54 0 11 36 -16 49 -35z m-2729 -43 c0 -30 2
-60 5 -68 3 -8 -6 -18 -22 -25 -47 -21 -114 -95 -144 -158 -50 -108 -63 -246
-34 -358 10 -39 12 -64 5 -81 -9 -25 -7 -158 3 -186 3 -8 8 -30 11 -47 5 -32
4 -33 -28 -33 -31 0 -37 5 -67 58 -69 122 -97 180 -104 213 -4 19 -11 39 -16
45 -5 6 -12 54 -15 105 -6 88 -4 100 25 184 17 50 45 110 61 135 16 25 41 66
56 91 15 25 40 55 56 65 15 10 28 24 28 30 0 14 23 24 52 24 11 0 36 14 55 30
18 17 43 30 53 30 17 0 20 -7 20 -54z m2368 35 c39 -5 83 -16 98 -25 16 -8 44
-22 61 -31 56 -26 118 -96 152 -170 54 -118 51 -108 72 -225 12 -70 11 -293
-1 -326 -6 -14 -10 -40 -10 -58 0 -17 -9 -49 -20 -71 -11 -22 -20 -47 -20 -57
0 -10 -3 -18 -8 -18 -7 0 -25 -37 -36 -76 -8 -26 -119 -127 -196 -177 -110
-72 -285 -96 -385 -51 -22 10 -42 18 -45 19 -25 6 -80 37 -100 56 -41 38 -110
130 -110 145 0 8 -3 14 -8 14 -4 0 -18 28 -31 63 -13 34 -28 73 -34 87 -15 37
-17 55 -22 160 -4 109 5 177 42 305 55 195 101 294 172 375 34 39 47 46 98 56
74 14 241 16 331 5z m422 -51 c0 -5 -2 -10 -4 -10 -3 0 -8 5 -11 10 -3 6 -1
10 4 10 6 0 11 -4 11 -10z m-2764 -194 c3 -18 -3 -34 -23 -56 -15 -17 -29 -43
-31 -57 -2 -15 -10 -42 -18 -62 -9 -22 -13 -49 -9 -72 5 -31 2 -41 -24 -70
l-31 -33 -1 29 c-5 111 12 205 47 262 17 28 76 91 82 87 2 -1 5 -13 8 -28z
m768 -77 c9 -34 15 -64 12 -66 -3 -3 -12 21 -22 53 -9 33 -18 62 -21 67 -2 4
0 7 5 7 5 0 16 -28 26 -61z m2066 -224 c0 -8 -4 -15 -10 -15 -5 0 -7 7 -4 15
4 8 8 15 10 15 2 0 4 -7 4 -15z m-2823 -112 c35 -37 114 -58 197 -51 73 6 60
-5 -31 -27 -84 -20 -128 -17 -200 14 -88 39 -101 73 -41 115 20 14 23 14 34
-3 7 -9 25 -31 41 -48z m-462 -733 c3 -5 2 -10 -4 -10 -5 0 -13 5 -16 10 -3 6
-2 10 4 10 5 0 13 -4 16 -10z m-284 -697 c12 -33 12 -33 -14 -33 -13 0 -33 10
-44 23 -35 38 -34 43 9 39 31 -3 41 -10 49 -29z"/>
<path d="M3670 2163 c0 -5 -13 -15 -29 -24 -42 -24 -80 -80 -95 -140 -17 -65
-29 -238 -18 -253 5 -6 26 -51 47 -101 42 -98 63 -124 112 -144 37 -15 111 -8
155 15 40 21 98 74 98 89 0 8 6 20 14 27 16 17 40 123 31 138 -3 5 -1 29 6 52
18 67 19 90 4 143 -23 79 -44 111 -82 124 -78 29 -168 -16 -238 -117 -44 -66
-47 -73 -46 -135 0 -37 -4 -69 -9 -72 -19 -11 -22 24 -12 119 11 102 37 166
79 199 27 22 43 55 36 75 -5 13 -53 17 -53 5z m248 -206 c19 -41 21 -53 12
-86 -6 -21 -7 -46 -4 -55 3 -9 2 -16 -3 -16 -5 0 -10 -19 -11 -42 -3 -60 -10
-79 -46 -116 -33 -36 -84 -62 -121 -62 -32 0 -105 87 -105 125 0 9 41 -10 56
-26 17 -19 18 -19 48 14 17 18 41 39 54 47 29 20 35 76 10 109 -10 13 -18 33
-18 44 0 11 -8 29 -17 40 -13 15 -15 21 -5 24 6 3 12 11 12 19 0 19 37 34 80
31 31 -2 37 -7 58 -50z"/>
</g>
</svg>
