<?xml version="1.0" standalone="no"?>
<!DOCTYPE svg PUBLIC "-//W3C//DTD SVG 20010904//EN"
 "http://www.w3.org/TR/2001/REC-SVG-20010904/DTD/svg10.dtd">
<svg version="1.0" xmlns="http://www.w3.org/2000/svg"
 width="543.000000pt" height="391.000000pt" viewBox="0 0 543.000000 391.000000"
 preserveAspectRatio="xMidYMid meet">
<metadata>
Created by potrace 1.16, written by Peter Selinger 2001-2019
</metadata>
<g transform="translate(0.000000,391.000000) scale(0.100000,-0.100000)"
fill="#000000" stroke="none">
<path d="M2483 3788 c-14 -19 -36 -183 -34 -252 3 -76 44 -164 109 -231 56
-58 149 -97 228 -95 84 1 156 -11 254 -41 96 -29 195 -48 285 -53 88 -6 180
-18 195 -26 8 -4 34 -8 58 -9 24 0 51 -5 60 -10 24 -13 197 -19 217 -8 19 10
287 16 350 7 22 -3 57 -2 78 3 28 7 48 6 80 -7 23 -9 58 -16 77 -16 19 0 46
-9 60 -20 14 -11 41 -20 61 -20 23 0 42 -7 54 -20 10 -11 25 -22 35 -25 25 -8
42 -52 30 -75 -17 -31 -48 -35 -70 -8 -11 13 -19 26 -20 29 0 7 -77 61 -100
70 -8 3 -32 2 -53 -3 -28 -6 -57 -4 -103 8 -35 8 -76 14 -91 13 -16 -2 -55 7
-88 20 -56 21 -66 22 -145 12 -47 -6 -218 -13 -381 -16 -288 -4 -299 -4 -382
19 -47 13 -141 29 -209 36 -68 7 -156 18 -197 26 -40 8 -85 14 -100 14 -14 0
-52 18 -85 40 -32 22 -76 44 -96 50 -24 7 -50 25 -71 50 -19 22 -51 60 -71 84
-70 81 -98 276 -53 363 21 40 19 60 -7 67 -46 12 -69 -58 -64 -195 4 -139 28
-221 80 -274 22 -24 59 -65 81 -91 28 -33 60 -56 110 -79 38 -17 76 -39 83
-48 16 -19 60 -34 127 -42 28 -3 64 -8 80 -11 17 -3 49 -7 70 -8 139 -10 211
-20 290 -41 85 -21 171 -30 275 -27 25 1 128 2 230 2 102 -1 227 5 277 11 87
12 96 11 140 -9 49 -21 118 -32 255 -37 56 -3 85 -9 105 -23 16 -10 36 -22 46
-25 9 -4 17 -13 17 -22 0 -8 4 -15 10 -15 15 0 30 -70 29 -137 l-1 -61 -402 5
c-220 2 -682 6 -1026 8 -344 2 -663 4 -710 4 -47 1 -209 1 -360 1 -384 0 -872
8 -952 16 l-67 6 -45 -46 c-25 -25 -46 -49 -46 -54 0 -5 -24 -34 -53 -64 -39
-41 -61 -75 -82 -129 -15 -41 -45 -99 -66 -130 -72 -107 -102 -170 -133 -279
-7 -25 -18 -54 -24 -65 -13 -24 -50 -106 -91 -200 -37 -85 -111 -291 -116
-323 -2 -12 -31 -99 -64 -191 -34 -93 -61 -171 -61 -175 0 -3 -11 -30 -25 -60
-14 -30 -25 -62 -25 -71 0 -9 -15 -51 -34 -93 -18 -43 -36 -101 -40 -130 -4
-29 -15 -68 -26 -87 -22 -39 -38 -158 -34 -255 1 -36 2 -89 3 -118 1 -45 4
-55 21 -59 11 -3 20 -8 20 -12 0 -10 133 -14 410 -12 80 1 548 -1 1040 -4 492
-3 1257 -8 1700 -11 443 -2 868 -6 945 -7 130 -2 144 -1 198 22 46 20 64 34
89 73 17 26 37 48 45 48 7 0 16 13 19 30 4 16 20 43 36 61 16 17 39 58 50 92
11 34 25 69 32 77 7 8 18 30 26 48 7 17 16 32 20 32 4 0 15 28 23 63 8 34 25
87 37 117 12 30 24 66 27 80 2 14 9 34 14 45 5 11 11 31 13 45 3 14 5 25 6 25
1 0 4 11 6 24 2 14 11 32 19 41 16 17 96 236 93 254 -1 6 6 28 15 50 9 21 17
44 17 50 0 7 4 16 9 22 5 5 25 63 45 129 21 66 48 154 62 196 13 42 24 83 24
91 0 9 7 21 15 28 8 6 14 15 13 18 -4 22 50 240 64 257 4 5 8 23 8 40 0 16 4
37 9 44 6 9 6 22 1 31 -6 11 -5 21 1 27 27 27 10 184 -27 259 -22 43 -32 53
-72 67 -26 10 -51 17 -56 16 -5 0 -12 5 -16 11 -9 15 -55 19 -206 20 l-112 1
-7 102 c-7 100 -28 200 -47 225 -6 6 -7 12 -4 12 6 0 -59 66 -105 106 -8 7
-31 13 -51 12 -21 -1 -51 8 -72 20 -20 12 -51 21 -69 20 -17 0 -52 8 -76 19
-42 20 -48 20 -95 6 -39 -12 -58 -13 -87 -4 -22 7 -53 8 -80 3 -27 -5 -54 -5
-67 1 -15 7 -35 6 -62 -2 -30 -9 -44 -9 -59 0 -15 10 -25 9 -53 -4 -26 -12
-54 -15 -123 -11 -48 3 -96 9 -106 15 -10 5 -34 9 -54 9 -20 0 -45 5 -55 10
-18 10 -157 24 -205 21 -33 -2 -266 49 -320 70 -28 11 -64 19 -80 19 -55 -2
-210 13 -220 20 -5 4 -22 10 -37 14 -38 9 -122 92 -143 141 -13 32 -16 60 -12
140 3 55 10 112 17 127 24 52 -16 106 -47 66z m-218 -1222 c358 -3 846 -8
1085 -12 239 -3 561 -7 715 -8 154 -2 361 -7 460 -11 99 -4 185 -7 190 -7 6 1
62 1 125 1 63 0 124 0 135 0 35 1 179 -31 193 -42 40 -32 63 -164 38 -212 -9
-16 -16 -42 -16 -57 0 -15 -4 -49 -10 -75 -5 -26 -12 -59 -14 -73 -5 -27 -34
-133 -68 -245 -12 -38 -23 -77 -24 -85 -6 -38 -54 -210 -65 -229 -4 -9 -19
-52 -33 -96 -14 -44 -42 -129 -61 -190 -19 -60 -39 -119 -44 -130 -5 -11 -19
-49 -31 -85 -12 -36 -26 -69 -31 -74 -5 -6 -9 -16 -9 -24 0 -15 -63 -183 -80
-214 -6 -10 -10 -23 -10 -28 0 -6 -10 -32 -21 -58 -19 -42 -37 -65 -121 -159
-17 -20 -31 -23 -92 -24 -39 0 -163 -2 -276 -5 -113 -2 -306 -6 -430 -8 -124
-3 -308 -8 -410 -11 -102 -3 -401 -8 -665 -10 -264 -3 -583 -9 -710 -13 -126
-5 -471 -8 -765 -6 -294 3 -638 4 -764 5 -226 0 -278 7 -258 32 5 7 12 32 16
57 4 25 15 72 25 105 10 33 28 94 40 135 12 41 26 84 31 95 8 17 33 80 39 95
1 3 8 25 16 50 28 89 66 194 74 204 4 6 13 38 20 71 7 33 17 65 21 70 12 16
80 220 80 240 0 10 8 37 19 59 10 23 26 59 36 81 10 22 34 76 55 120 38 80 81
188 95 235 4 14 15 36 24 50 9 14 32 55 50 93 19 37 38 67 42 67 5 0 9 5 9 12
0 6 18 35 40 64 22 29 50 72 62 96 38 72 92 118 138 118 13 0 24 8 27 20 6 23
42 26 293 23 91 0 458 -4 815 -7z m2285 -2228 c0 -6 -29 -39 -64 -74 l-64 -64
-334 -1 c-538 -1 -641 -1 -1078 0 -228 1 -422 1 -430 1 -53 -3 -1083 10 -1300
16 -145 4 -429 7 -630 7 -200 0 -379 3 -397 8 -22 4 -36 3 -40 -5 -7 -11 -19
27 -22 69 -1 25 -66 23 989 29 699 4 1640 15 1647 20 1 0 389 2 862 3 574 1
861 -2 861 -9z"/>
<path d="M1250 2501 c0 -6 -11 -17 -25 -23 -19 -8 -30 -26 -41 -65 -9 -30 -22
-66 -29 -80 -8 -14 -10 -34 -6 -45 6 -16 20 -20 101 -24 170 -9 170 -9 177 91
4 52 2 70 -11 84 -9 10 -13 21 -9 24 3 4 0 7 -7 7 -7 0 -21 6 -29 14 -21 18
-121 32 -121 17z m95 -98 c0 -6 3 -15 8 -19 14 -14 7 -44 -10 -45 -29 -3 -108
3 -112 7 -3 2 3 20 12 40 16 33 20 35 60 32 23 -2 42 -8 42 -15z"/>
<path d="M4076 2493 c-4 -4 -21 -8 -38 -9 -17 -1 -33 -6 -37 -11 -3 -5 -13
-12 -22 -15 -20 -8 -24 -35 -24 -148 0 -98 2 -100 94 -80 31 6 66 14 79 16 12
3 32 14 43 25 18 18 20 28 13 107 -8 110 -14 122 -63 122 -21 0 -41 -3 -45 -7z
m34 -95 c0 -7 3 -23 6 -35 5 -17 2 -23 -9 -23 -8 0 -17 -5 -19 -11 -2 -7 -18
-13 -36 -14 -30 -2 -32 0 -32 28 0 17 7 39 17 49 18 20 73 25 73 6z"/>
<path d="M2216 2471 c-32 -87 -45 -204 -24 -217 7 -5 63 -8 123 -6 l110 2 38
39 c34 37 37 45 37 99 0 56 -2 60 -27 70 -44 17 -92 24 -175 27 -63 2 -77 0
-82 -14z m214 -84 c0 -19 -39 -59 -51 -52 -5 4 -9 2 -9 -2 0 -7 -51 -10 -97
-4 -10 1 -9 19 2 58 5 17 155 17 155 0z"/>
<path d="M3185 2457 c-18 -28 -34 -154 -18 -144 6 4 14 -4 17 -17 13 -51 27
-56 169 -56 73 0 137 4 143 8 5 4 16 34 24 66 13 55 13 61 -7 95 l-20 35 -64
-4 c-121 -7 -134 -5 -157 18 -29 29 -67 28 -87 -1z m160 -98 c90 6 108 6 111
-4 9 -25 -15 -34 -105 -37 -81 -2 -95 0 -107 16 -19 26 -10 34 28 28 18 -3 51
-4 73 -3z"/>
<path d="M3634 2449 c-19 -15 -35 -30 -36 -33 0 -3 -6 -38 -14 -78 -19 -98
-16 -101 116 -99 75 1 106 6 117 16 8 8 19 15 24 15 5 0 9 10 9 23 0 12 6 31
14 42 11 17 14 45 8 91 -3 17 -26 24 -120 38 l-84 12 -34 -27z m146 -69 c41
-22 -4 -64 -75 -71 -42 -3 -46 0 -43 34 3 27 7 32 30 32 15 1 30 4 34 8 10 10
32 9 54 -3z"/>
<path d="M4840 2472 c-42 -3 -90 -21 -90 -33 0 -5 -8 -9 -18 -9 -11 0 -27 -9
-36 -19 -15 -16 -16 -28 -10 -63 4 -24 7 -49 5 -56 -5 -26 21 -82 37 -83 136
-5 169 3 176 42 37 192 26 229 -64 221z m16 -122 c-3 -52 -21 -71 -62 -68 -39
2 -38 0 -20 53 14 40 48 68 71 58 8 -2 12 -20 11 -43z"/>
<path d="M1984 2459 c-10 -4 -29 -5 -41 -2 -62 14 -124 -46 -126 -120 -2 -75
3 -77 145 -81 l126 -4 10 26 c6 15 16 45 23 67 6 22 15 50 20 62 8 22 3 52
-10 54 -25 6 -131 4 -147 -2z m82 -71 c-3 -7 -9 -21 -12 -31 -8 -22 -37 -29
-99 -25 -30 2 -50 8 -53 17 -3 8 0 11 6 7 6 -3 14 0 19 7 7 12 44 22 136 36 5
0 6 -5 3 -11z"/>
<path d="M4467 2461 c-20 -4 -40 -11 -44 -15 -8 -7 -19 -151 -15 -182 4 -26
37 -42 107 -50 70 -9 97 -1 117 34 15 25 16 38 7 91 -5 34 -7 66 -4 70 3 5 -3
18 -13 29 -20 24 -95 35 -155 23z m88 -86 c3 -8 8 -23 12 -32 6 -17 7 -33 4
-50 -1 -5 -22 -9 -49 -11 l-47 -2 3 44 c3 33 9 46 25 54 31 15 47 14 52 -3z"/>
<path d="M1469 2441 c-10 -11 -13 -24 -8 -37 4 -10 5 -44 2 -75 -5 -55 -5 -56
23 -65 16 -5 36 -9 44 -8 8 1 59 2 113 3 89 1 97 3 97 21 0 11 8 34 18 52 10
18 16 43 14 54 -6 42 -31 52 -139 57 -57 2 -106 7 -110 10 -11 12 -37 6 -54
-12z m208 -98 c-3 -2 -95 -6 -119 -4 -10 0 -18 5 -18 10 0 5 20 8 45 7 25 -1
53 1 62 5 15 5 38 -9 30 -18z"/>
<path d="M5129 2451 c-3 -8 -26 -14 -59 -16 -30 -2 -58 -4 -62 -4 -30 -3 -63
-187 -37 -208 8 -5 49 -13 91 -16 61 -4 79 -2 89 9 15 18 20 192 7 200 -5 4
-13 16 -17 27 -5 14 -10 16 -12 8z m-31 -145 c-3 -26 -7 -30 -33 -31 -24 0
-31 5 -33 24 -3 17 4 30 19 42 30 23 51 7 47 -35z"/>
<path d="M2828 2438 c-2 -5 -10 -10 -18 -12 -41 -8 -48 -17 -40 -46 5 -18 4
-43 -3 -65 -17 -56 -2 -63 128 -65 151 -2 152 -2 160 18 15 39 24 125 15 143
-6 11 -26 20 -53 24 -70 11 -186 12 -189 3z m172 -77 c0 -5 3 -16 6 -25 5 -14
-6 -16 -80 -16 -81 0 -103 8 -73 27 6 4 39 11 72 14 33 3 63 7 68 7 4 1 7 -2
7 -7z"/>
<path d="M1129 2178 c-1 -5 -3 -12 -4 -18 -1 -5 -3 -17 -4 -25 0 -8 -9 -14
-18 -13 -44 3 -51 -2 -58 -44 -4 -24 -12 -49 -17 -55 -6 -7 -7 -13 -4 -13 4 0
2 -9 -4 -20 -9 -16 -8 -20 5 -20 8 0 15 -4 15 -9 0 -12 39 -21 45 -11 6 9 265
11 280 2 5 -3 23 -5 39 -3 21 2 26 -1 21 -11 -6 -10 -5 -10 5 -1 7 6 19 9 26
6 9 -3 20 8 30 33 9 22 22 46 29 54 17 20 26 62 17 77 -4 7 -43 15 -87 18 -44
3 -106 8 -138 10 -32 3 -63 7 -68 11 -6 3 -29 8 -52 11 -23 2 -45 10 -49 16
-4 7 -8 9 -9 5z m42 -104 c19 -3 43 -8 54 -9 11 -2 22 -4 25 -5 14 -6 32 -7
113 -8 49 -1 87 -6 87 -12 0 -6 -67 -9 -175 -8 -118 2 -174 6 -170 13 3 5 8
18 11 27 4 10 10 16 13 13 4 -2 23 -7 42 -11z"/>
<path d="M2118 2139 c-2 -6 -19 -14 -38 -18 -32 -6 -35 -10 -38 -46 -2 -22 -7
-44 -12 -50 -4 -5 -8 -22 -8 -37 1 -34 32 -46 141 -51 84 -3 84 -3 85 62 1 13
7 31 15 40 8 9 17 31 20 48 5 28 2 36 -18 49 -19 12 -28 14 -39 5 -7 -6 -20
-9 -27 -7 -38 12 -78 14 -81 5z m82 -91 c0 -7 -4 -18 -8 -24 -9 -15 -92 -17
-92 -3 0 6 7 9 15 5 9 -3 19 3 25 14 12 22 60 28 60 8z"/>
<path d="M4047 2139 c-9 -6 -17 -22 -17 -36 0 -20 -4 -24 -19 -20 -13 3 -22
-3 -30 -20 -6 -13 -9 -29 -6 -34 4 -5 2 -9 -3 -9 -18 0 -20 -38 -3 -66 17 -28
18 -28 119 -29 l102 0 11 35 c7 19 18 44 25 55 26 37 8 89 -30 90 -23 1 -121
28 -126 36 -3 4 -13 3 -23 -2z m100 -95 c40 -11 13 -29 -47 -32 -33 -2 -60 -1
-60 2 0 2 3 11 6 20 6 17 58 21 101 10z"/>
<path d="M2475 2118 c-22 -4 -51 -5 -65 -3 -37 7 -46 -3 -62 -78 -20 -91 -15
-98 90 -103 91 -4 93 -3 107 71 4 22 11 46 17 52 6 7 8 24 4 37 -7 28 -34 35
-91 24z m19 -93 c-4 -9 -19 -15 -38 -15 -29 1 -30 1 -12 15 26 20 57 20 50 0z"/>
<path d="M2827 2119 c-9 -6 -17 -17 -17 -26 0 -10 -6 -14 -19 -10 -43 11 -101
-111 -63 -132 22 -11 206 -21 221 -11 18 11 51 78 51 104 0 23 -22 51 -32 40
-3 -3 -23 2 -44 11 -73 31 -80 33 -97 24z m81 -89 c6 0 12 -4 12 -10 0 -6 -26
-10 -57 -10 -55 0 -57 1 -33 14 14 8 34 13 45 10 11 -2 26 -4 33 -4z"/>
<path d="M1706 2111 c-12 -5 -21 -19 -23 -36 -2 -16 -12 -41 -21 -57 -14 -23
-14 -31 -2 -53 13 -24 15 -25 112 -22 96 3 100 4 127 33 58 62 51 97 -25 125
-56 22 -95 24 -112 7 -8 -8 -15 -8 -24 -1 -7 6 -22 7 -32 4z m88 -69 l38 -19
-46 -1 c-33 -2 -46 2 -46 11 0 11 9 27 15 27 1 0 18 -8 39 -18z"/>
<path d="M3220 2110 c-25 -4 -66 -5 -91 -3 -34 4 -46 2 -47 -8 -6 -59 -4 -151
3 -158 6 -5 52 -12 103 -15 76 -4 92 -3 92 9 0 8 4 15 8 15 4 0 13 17 19 38 6
20 17 51 24 69 10 26 10 34 0 47 -14 17 -38 18 -111 6z m27 -95 c-7 -17 -107
-22 -107 -5 0 6 1 10 3 11 1 0 22 3 47 6 25 3 47 7 49 9 9 8 13 -6 8 -21z"/>
<path d="M4332 2108 c-5 -7 -12 -31 -15 -53 -3 -22 -10 -53 -16 -67 -8 -21 -6
-31 7 -49 16 -19 27 -21 112 -20 98 1 108 5 114 37 3 10 10 40 17 67 18 64 3
78 -83 83 -34 2 -77 6 -94 9 -19 3 -35 0 -42 -7z m156 -94 c-15 -15 -103 -23
-115 -10 -15 15 16 26 70 26 57 0 60 -1 45 -16z"/>
<path d="M4625 2087 c-8 -4 -15 -19 -15 -32 0 -13 -4 -35 -10 -49 -12 -34 5
-82 32 -89 32 -9 141 4 154 17 5 6 21 38 34 70 l23 59 -21 18 c-18 14 -28 15
-56 7 -19 -6 -43 -7 -53 -3 -25 11 -70 12 -88 2z m83 -94 c-10 -2 -26 -2 -35
0 -10 3 -2 5 17 5 19 0 27 -2 18 -5z"/>
<path d="M3483 2063 c-32 -3 -44 -9 -50 -26 -8 -26 -5 -14 -28 -114 -17 -76
-20 -81 -48 -87 -47 -10 -132 -7 -143 4 -7 7 -19 8 -36 1 -16 -6 -40 -6 -64
-1 -22 5 -61 7 -89 4 -27 -2 -70 -7 -95 -9 -82 -8 -111 -17 -126 -41 -17 -25
-27 -132 -15 -152 6 -10 87 -14 352 -17 189 -2 359 -6 378 -9 37 -6 58 5 71
39 11 29 24 114 22 150 0 17 2 37 5 45 9 28 10 155 1 183 -7 18 -17 27 -31 27
-12 0 -31 2 -42 4 -11 1 -39 1 -62 -1z m76 -130 c0 -41 -7 -94 -23 -178 -2
-11 -4 -27 -5 -35 -1 -14 -44 -16 -347 -17 -299 -1 -344 1 -340 14 3 8 6 18 6
22 0 5 12 8 28 9 15 0 54 5 87 12 44 8 93 8 183 1 155 -14 239 -14 247 -1 3 6
16 10 29 10 12 0 23 6 23 13 0 6 6 32 12 57 7 25 13 54 15 65 11 67 17 75 52
75 34 0 34 0 33 -47z"/>
<path d="M4937 2033 c-3 -3 -21 -6 -39 -7 -36 -2 -52 -23 -63 -86 -3 -19 -13
-54 -21 -78 -7 -23 -14 -49 -14 -57 0 -8 -10 -34 -22 -57 -22 -41 -23 -55 -12
-106 4 -21 10 -23 57 -21 29 1 59 -2 68 -5 22 -10 37 12 58 85 10 35 35 108
55 163 31 86 34 101 24 124 -7 13 -16 24 -21 23 -4 -1 -20 5 -36 13 -16 9 -31
13 -34 9z m-8 -90 c16 -13 19 -25 14 -62 -3 -25 -12 -56 -20 -68 -8 -12 -21
-42 -28 -65 -10 -35 -17 -44 -39 -46 -22 -3 -25 0 -22 20 3 13 5 24 7 26 2 2
2 2 14 47 4 17 10 34 13 40 4 5 7 16 8 25 2 25 24 100 29 100 3 0 13 -7 24
-17z"/>
<path d="M1057 1840 c-37 -5 -55 -13 -75 -36 -15 -17 -32 -29 -39 -27 -12 4
-17 -9 -28 -69 -4 -30 -2 -41 15 -58 18 -18 33 -20 163 -21 78 0 179 -2 224
-3 93 -3 120 11 111 58 -4 18 2 31 18 45 39 34 26 79 -19 67 -14 -3 -29 -2
-32 4 -3 5 -12 10 -20 10 -8 0 -26 5 -42 11 -15 6 -62 13 -103 15 -41 3 -86 6
-100 7 -14 2 -47 1 -73 -3z m221 -86 c23 -4 42 -11 42 -16 0 -6 6 -8 14 -5 15
6 40 -16 30 -25 -11 -12 -348 3 -356 15 -4 6 -4 15 0 19 22 21 167 27 270 12z"/>
<path d="M1682 1834 c-7 -7 -12 -18 -12 -24 0 -5 -6 -10 -14 -10 -7 0 -25 -10
-40 -21 -25 -19 -27 -26 -22 -73 4 -54 14 -86 25 -86 13 -1 177 -1 190 -1 7 1
11 7 7 16 -3 8 3 30 13 48 10 17 20 46 24 62 5 26 1 33 -26 50 -18 11 -55 27
-82 36 -42 13 -53 13 -63 3z m90 -92 c16 -16 -18 -43 -59 -49 -48 -6 -61 8
-39 42 13 20 22 23 53 19 21 -3 41 -8 45 -12z"/>
<path d="M4430 1828 c0 -13 -2 -57 -6 -98 -6 -75 -6 -76 20 -88 42 -19 170
-26 183 -10 11 12 33 67 53 130 13 42 -12 57 -89 53 -52 -2 -68 1 -84 16 -12
10 -33 19 -49 19 -22 0 -28 -4 -28 -22z m170 -97 c0 -18 -26 -29 -68 -28 -23
0 -45 4 -48 8 -3 5 5 9 18 9 13 0 30 5 38 10 19 12 60 13 60 1z"/>
<path d="M2343 1810 c-6 -16 -7 -34 -1 -43 5 -10 3 -34 -4 -62 -19 -70 -9 -79
98 -85 80 -4 91 -3 109 15 11 12 20 35 21 54 1 18 5 36 10 40 5 3 10 20 11 38
2 29 -1 32 -35 37 -20 3 -57 4 -82 2 -25 -2 -49 -1 -55 3 -5 4 -22 12 -36 18
-23 10 -26 8 -36 -17z m167 -89 c0 -15 -83 -30 -99 -17 -11 9 -9 12 10 16 43
11 89 11 89 1z"/>
<path d="M4094 1818 c-8 -24 -9 -30 -20 -116 -9 -72 4 -82 117 -80 48 0 92 -3
99 -7 15 -9 44 31 48 69 2 16 13 41 24 56 24 33 17 66 -15 76 -12 4 -59 8
-104 8 -45 1 -85 4 -89 9 -16 16 -53 7 -60 -15z m147 -70 c49 9 50 9 45 -12
-3 -11 -6 -24 -6 -28 0 -12 -128 -9 -135 2 -3 6 -3 19 0 30 5 16 10 18 26 10
13 -7 36 -8 70 -2z"/>
<path d="M3839 1802 c-10 -14 -21 -35 -24 -46 -23 -118 -13 -133 93 -134 77 0
80 1 101 29 14 18 25 51 28 83 l5 52 -38 12 c-37 11 -73 18 -122 26 -15 2 -29
-5 -43 -22z m135 -76 c-10 -26 -104 -37 -104 -12 0 17 8 20 65 24 36 2 44 0
39 -12z"/>
<path d="M1976 1743 c-21 -83 -20 -97 8 -113 33 -17 152 -18 187 -2 15 8 33
27 40 44 11 26 10 35 -4 60 -9 16 -17 36 -17 43 0 20 -35 28 -122 29 l-77 1
-15 -62z m159 -24 c4 -6 5 -13 2 -16 -10 -10 -97 -8 -94 2 1 5 8 10 15 12 8 1
16 4 20 7 9 10 50 7 57 -5z"/>
<path d="M860 1545 c-7 -8 -10 -22 -6 -30 4 -10 -1 -15 -14 -15 -22 0 -50 -55
-50 -97 0 -38 19 -66 38 -57 20 8 333 15 345 7 5 -3 38 -5 74 -6 l65 -1 13 37
c7 20 11 38 8 40 -2 2 3 10 12 17 8 7 15 28 15 47 0 54 -31 62 -237 58 -96 -2
-175 1 -179 6 -9 15 -70 10 -84 -6z m418 -98 c-3 -21 -8 -21 -143 -20 -215 3
-251 4 -237 10 6 2 12 10 12 16 0 9 52 12 186 13 183 2 185 2 182 -19z"/>
<path d="M2193 1550 c-20 -8 -23 -17 -25 -72 -3 -125 -1 -128 112 -131 98 -3
124 11 135 70 4 21 7 39 7 40 -1 2 3 16 8 32 8 28 5 33 -22 40 -4 1 -21 6 -36
11 -16 4 -49 4 -73 0 -34 -7 -47 -5 -55 6 -13 16 -20 16 -51 4z m123 -98 c29
2 39 -1 39 -12 0 -11 -13 -15 -47 -16 -58 -2 -83 14 -73 46 l7 23 17 -22 c14
-18 25 -22 57 -19z"/>
<path d="M2990 1529 c-32 -29 -35 -38 -38 -99 -6 -99 -4 -100 179 -100 112 0
149 -3 149 -12 0 -10 2 -10 8 -1 6 9 40 12 117 10 107 -2 109 -2 121 23 68
141 66 132 49 150 -17 19 -105 25 -315 21 -94 -1 -167 10 -220 33 -10 4 -28
-6 -50 -25z m310 -84 c150 -1 185 -4 185 -15 0 -24 -50 -29 -258 -26 -111 2
-205 4 -209 5 -5 0 -8 9 -8 19 0 29 12 34 60 26 25 -5 128 -9 230 -9z"/>
<path d="M4091 1546 c-6 -7 -11 -24 -10 -37 0 -13 -2 -53 -6 -89 -11 -115 31
-143 155 -103 l58 18 21 66 c11 36 21 75 21 87 0 32 -33 44 -108 40 -54 -2
-71 1 -84 15 -22 21 -32 21 -47 3z m159 -96 c4 0 6 -9 3 -20 -12 -44 -123 -71
-123 -31 0 34 10 49 30 44 10 -3 27 0 37 6 10 6 24 8 31 6 8 -3 17 -5 22 -5z"/>
<path d="M4413 1545 c-19 -13 -35 -87 -35 -165 -1 -76 10 -84 109 -85 62 0 63
0 78 35 8 19 28 58 44 85 29 48 29 51 13 72 -21 27 -120 56 -139 41 -7 -6 -13
-6 -13 -2 0 5 -8 14 -19 21 -14 9 -23 9 -38 -2z m132 -104 c10 -18 -45 -71
-74 -71 -15 0 -30 3 -33 6 -12 11 17 63 37 66 48 8 64 7 70 -1z"/>
<path d="M1936 1537 c-10 -8 -29 -12 -41 -9 -20 3 -25 -3 -41 -50 -39 -114
-29 -126 110 -129 105 -2 115 3 123 54 2 10 10 25 18 33 20 20 19 36 -4 66
-12 15 -29 24 -43 23 -13 -1 -40 4 -62 12 -46 16 -39 16 -60 0z m46 -73 c55
-12 62 -34 11 -35 -21 0 -46 -2 -55 -4 -25 -5 -29 8 -16 46 7 20 14 28 15 18
2 -9 21 -19 45 -25z"/>
<path d="M2738 1545 c-2 -3 -25 -5 -49 -6 -56 -1 -103 -15 -122 -37 -8 -9 -17
-41 -20 -70 -8 -73 4 -82 103 -82 l79 0 28 38 c15 20 34 42 41 47 22 17 27 88
8 104 -11 9 -16 10 -16 2 0 -8 -5 -9 -19 -1 -22 11 -26 12 -33 5z m-14 -89
c-9 -22 -104 -38 -104 -18 0 7 38 18 102 31 4 0 5 -5 2 -13z"/>
<path d="M3880 1540 c-30 -6 -70 -78 -70 -125 0 -41 17 -97 32 -107 7 -4 39
-8 72 -8 50 0 62 4 82 25 21 22 54 109 54 140 0 35 -117 87 -170 75z m83 -86
c9 -3 12 -14 9 -30 -5 -27 -35 -44 -78 -44 -19 0 -24 5 -24 24 0 25 22 51 33
39 4 -3 7 -1 7 5 0 13 28 16 53 6z"/>
<path d="M1563 1530 c-13 -5 -23 -16 -23 -23 0 -10 -8 -13 -24 -10 -19 4 -28
-1 -40 -25 -19 -36 -20 -58 -6 -98 l10 -29 113 3 113 3 13 31 c27 60 30 97 12
120 -10 12 -26 23 -37 25 -48 10 -111 12 -131 3z m107 -81 c0 -16 -47 -28 -84
-22 -20 3 -36 11 -36 18 0 8 8 11 18 9 9 -3 28 -1 42 4 27 10 60 5 60 -9z"/>
<path d="M2711 1216 c-9 -11 -21 -12 -53 -4 -27 6 -52 5 -71 -2 -22 -7 -33 -7
-38 1 -5 8 -8 8 -13 0 -4 -6 -20 -11 -35 -11 -33 0 -37 -11 -40 -117 -2 -84 3
-88 128 -92 74 -2 86 0 103 19 11 12 24 36 28 53 4 18 16 54 26 80 14 35 16
52 8 64 -14 23 -29 26 -43 9z m-43 -103 c-17 -40 -17 -40 -85 -47 -59 -5 -63
-4 -63 15 0 40 28 53 127 57 32 2 32 1 21 -25z"/>
<path d="M4121 1194 c-12 -15 -24 -38 -27 -51 -8 -31 12 -134 30 -151 8 -8 43
-16 84 -18 63 -4 72 -3 81 15 6 11 11 29 11 41 0 24 27 81 44 92 8 5 7 8 -1 8
-7 0 -13 11 -13 25 0 16 -6 25 -15 25 -8 0 -15 4 -15 9 0 5 -21 3 -47 -5 -59
-18 -56 -18 -68 8 -14 33 -39 33 -64 2z m131 -105 c-5 -11 -10 -20 -12 -20 -3
0 -22 -4 -43 -9 -36 -8 -38 -7 -35 13 2 18 12 23 48 28 25 3 46 7 47 7 1 1 -1
-7 -5 -19z"/>
<path d="M3951 1199 c-13 -5 -38 -7 -55 -3 -51 9 -73 -18 -88 -104 -15 -88 -4
-105 70 -109 73 -4 112 5 112 26 0 10 10 31 22 46 11 15 25 46 29 69 13 71
-23 102 -90 75z m6 -108 c-19 -35 -25 -38 -55 -35 -19 2 -36 5 -39 7 -10 11
12 38 36 42 21 5 71 20 78 24 1 1 -8 -16 -20 -38z"/>
<path d="M4484 1199 c-2 -4 -20 -10 -39 -13 -39 -8 -50 -24 -54 -80 -2 -22 -7
-51 -12 -64 -7 -18 -5 -31 5 -47 14 -21 21 -23 73 -19 102 8 143 15 143 26 0
5 7 24 15 41 28 61 36 120 19 145 -13 20 -22 22 -80 20 -36 -1 -67 -5 -70 -9z
m81 -91 c-10 -34 -43 -58 -81 -58 -27 0 -34 4 -34 20 0 25 54 60 93 60 25 0
27 -3 22 -22z"/>
<path d="M3236 1178 c-8 -12 -12 -26 -9 -31 11 -18 13 -66 3 -72 -15 -9 -12
-51 4 -64 8 -7 40 -12 73 -11 32 1 67 -1 78 -3 11 -3 23 -6 28 -6 4 -1 7 -7 7
-15 0 -19 50 -8 74 17 24 25 35 160 14 173 -7 4 -57 9 -112 11 -56 2 -105 8
-110 14 -16 15 -34 10 -50 -13z m214 -82 c0 -2 2 -10 5 -18 4 -10 -7 -13 -47
-11 -29 1 -69 2 -88 3 -33 1 -34 1 -16 15 18 13 146 23 146 11z"/>
<path d="M2190 1176 c-5 -5 -10 -18 -10 -28 0 -10 -4 -18 -8 -18 -4 0 -9 -12
-10 -27 -1 -15 -6 -31 -11 -36 -13 -13 0 -57 22 -68 11 -6 34 -9 51 -6 18 3
50 2 73 -2 51 -10 59 -5 68 39 4 19 13 45 21 57 15 25 18 71 6 91 -10 16 -186
14 -202 -2z m120 -76 c-8 -5 -11 -10 -5 -10 5 0 4 -5 -2 -11 -11 -11 -83 -21
-83 -11 0 19 37 42 69 42 27 0 32 -3 21 -10z"/>
<path d="M2898 1176 c-16 -8 -25 -27 -34 -74 -15 -72 -11 -90 20 -97 42 -9
176 -11 176 -2 0 13 32 81 42 87 4 4 11 20 14 38 6 28 3 33 -22 43 -38 16
-168 19 -196 5z m62 -75 c0 -6 17 -7 38 -4 37 6 37 6 19 -14 -12 -14 -31 -21
-57 -21 -41 -1 -51 13 -28 36 14 14 28 16 28 3z"/>
<path d="M720 1172 c-18 -6 -25 -15 -26 -37 -2 -43 -1 -41 -33 -55 -29 -12
-41 -34 -41 -80 0 -27 35 -66 45 -50 4 6 48 10 100 10 99 0 125 5 125 24 0 6
11 32 24 58 13 27 23 56 21 65 -2 10 -4 23 -4 28 -2 26 -157 53 -211 37z m140
-95 c0 -24 -18 -38 -53 -44 -53 -8 -67 0 -58 34 5 17 16 30 32 33 29 8 79 -7
79 -23z"/>
<path d="M1875 1162 c-11 -2 -24 -7 -28 -12 -5 -4 -22 -3 -38 3 -42 16 -55 -4
-62 -90 -7 -94 -1 -99 121 -105 50 -2 92 0 92 5 0 5 16 32 35 61 28 43 33 58
29 88 -6 34 -7 35 -68 44 -33 5 -70 8 -81 6z m-20 -72 c5 -17 12 -19 46 -14
24 4 39 3 39 -3 0 -19 -25 -32 -79 -39 -54 -7 -54 -7 -48 17 4 13 7 32 7 42 0
24 27 22 35 -3z"/>
<path d="M1026 1135 c-10 -14 -18 -36 -18 -48 0 -12 -5 -39 -10 -60 -8 -32 -6
-43 8 -58 14 -16 28 -18 83 -15 36 2 73 0 81 -4 24 -13 44 10 69 78 21 60 22
65 6 82 -10 11 -38 21 -68 26 -82 11 -91 13 -113 19 -15 5 -25 0 -38 -20z
m146 -75 c6 0 6 -6 -2 -15 -8 -10 -29 -15 -59 -15 l-46 1 35 18 c19 10 41 17
48 15 8 -2 18 -4 24 -4z"/>
<path d="M1464 1146 c-27 -7 -55 -11 -61 -9 -12 4 -15 -2 -33 -84 -15 -69 -3
-93 48 -94 20 0 46 -2 57 -3 59 -8 82 -9 100 -3 24 9 65 87 65 124 -1 61 -80
93 -176 69z m96 -76 c13 -8 13 -11 -2 -26 -21 -21 -109 -26 -115 -6 -3 6 3 12
12 12 9 0 14 4 11 9 -12 19 67 29 94 11z"/>
<path d="M4422 888 c-14 -7 -26 -26 -33 -52 -16 -60 -37 -124 -53 -154 -7 -15
-17 -45 -21 -67 -3 -21 -14 -52 -22 -69 -11 -21 -12 -35 -5 -51 9 -19 17 -22
74 -21 34 1 69 -3 76 -8 18 -12 23 -4 33 51 5 26 14 50 19 51 6 2 8 7 5 11 -5
9 31 109 46 127 5 6 16 39 24 73 12 46 14 66 5 76 -10 12 -71 30 -97 28 -7 0
-13 3 -13 8 0 11 -9 11 -38 -3z m81 -120 c-3 -18 -14 -45 -24 -60 -11 -14 -19
-31 -19 -37 0 -6 -14 -37 -31 -69 -26 -50 -34 -58 -54 -55 -23 5 -23 5 -8 61
8 32 18 59 22 62 4 3 16 28 26 55 20 56 38 75 72 75 20 0 22 -4 16 -32z"/>
<path d="M2117 868 c-4 -13 -6 -25 -6 -27 0 -2 -4 -7 -10 -11 -6 -3 -17 -33
-24 -66 -6 -32 -20 -67 -30 -77 -23 -23 -8 -53 30 -59 15 -3 217 -4 448 -2
231 2 435 -1 453 -6 19 -5 32 -5 32 1 0 5 44 6 103 3 56 -3 129 -5 161 -4 33
1 62 -3 65 -8 14 -22 50 8 61 50 32 122 33 108 -8 144 -23 21 -48 34 -67 34
-183 6 -560 12 -718 10 -185 -1 -341 11 -458 36 -21 4 -28 1 -32 -18z m238
-87 c17 -4 82 -6 145 -5 212 6 304 6 455 -1 196 -8 216 -8 304 -5 62 1 77 -1
88 -16 15 -21 16 -24 3 -44 -8 -13 -89 -15 -616 -17 l-606 -2 6 27 c19 81 20
81 109 76 45 -2 96 -8 112 -13z"/>
<path d="M3737 837 c-19 -20 -40 -53 -46 -74 -14 -51 -14 -116 1 -131 17 -17
183 -15 233 2 l40 14 3 80 c2 71 0 81 -15 81 -83 3 -146 19 -162 40 l-17 23
-37 -35z m161 -111 c6 -27 -12 -34 -89 -34 -66 -1 -69 0 -69 23 0 30 11 34 90
32 55 -2 65 -5 68 -21z"/>
<path d="M967 840 c-39 -7 -66 -32 -67 -62 0 -10 -7 -18 -15 -18 -11 0 -15
-12 -15 -47 0 -27 4 -54 8 -61 6 -8 45 -13 127 -15 113 -2 118 -1 121 19 5 34
23 74 32 74 5 0 9 14 10 30 1 26 -5 33 -41 50 -58 27 -115 37 -160 30z m79
-83 c4 -4 16 -7 26 -7 22 0 23 -13 2 -35 -10 -9 -26 -14 -42 -11 -15 2 -42 5
-59 5 -31 1 -32 2 -21 26 6 13 18 26 27 28 22 6 59 3 67 -6z"/>
<path d="M1699 813 c-5 -14 -9 -29 -9 -35 0 -5 -6 -8 -14 -5 -16 6 -39 -16
-42 -42 -2 -9 -6 -30 -9 -48 -8 -43 8 -50 127 -55 l97 -4 15 41 c9 22 16 62
16 87 0 46 -1 47 -37 59 -21 6 -60 14 -86 18 -45 7 -49 6 -58 -16z m116 -94
c0 -10 -17 -15 -58 -17 -51 -3 -58 -1 -55 14 5 26 67 45 93 29 11 -7 20 -19
20 -26z"/>
<path d="M4044 822 c-23 -19 -25 -30 -24 -117 2 -85 9 -90 130 -90 100 0 111
4 115 40 7 54 19 101 29 107 8 5 7 8 -2 8 -7 0 -10 5 -7 11 4 5 0 18 -9 28
-14 15 -30 18 -91 16 -41 -2 -75 1 -75 6 0 15 -44 9 -66 -9z m163 -88 c10 -27
-18 -44 -73 -44 -55 0 -62 7 -48 44 8 21 113 20 121 0z"/>
<path d="M1313 815 c-12 -8 -28 -13 -36 -10 -27 11 -41 -28 -38 -106 2 -48 20
-59 101 -64 59 -4 83 -1 110 13 42 20 68 69 62 111 -4 28 -10 33 -69 51 -78
24 -102 25 -130 5z m80 -71 c72 -10 55 -34 -24 -34 -59 0 -59 0 -59 30 0 28 1
29 28 19 15 -6 40 -13 55 -15z"/>
<path d="M630 812 c-67 -9 -103 -41 -113 -103 -6 -40 24 -102 38 -79 4 7 17 9
34 5 45 -12 75 -14 108 -8 28 4 38 15 66 68 26 49 31 67 24 88 -11 33 -32 40
-66 22 -23 -11 -32 -12 -47 -2 -10 7 -30 11 -44 9z m83 -98 c-2 -7 -29 -14
-61 -16 -65 -5 -67 -4 -59 16 5 12 20 15 66 14 42 -1 58 -5 54 -14z"/>
</g>
</svg>
