<?xml version="1.0" standalone="no"?>
<!DOCTYPE svg PUBLIC "-//W3C//DTD SVG 20010904//EN"
 "http://www.w3.org/TR/2001/REC-SVG-20010904/DTD/svg10.dtd">
<svg version="1.0" xmlns="http://www.w3.org/2000/svg"
 width="459.000000pt" height="451.000000pt" viewBox="0 0 459.000000 451.000000"
 preserveAspectRatio="xMidYMid meet">
<metadata>
Created by potrace 1.16, written by Peter Selinger 2001-2019
</metadata>
<g transform="translate(0.000000,451.000000) scale(0.100000,-0.100000)"
fill="#000000" stroke="none">
<path d="M1728 4275 c-1 -1 -57 -5 -123 -8 -66 -4 -138 -11 -160 -16 -22 -6
-74 -13 -115 -17 -41 -3 -78 -8 -81 -10 -7 -4 -139 -30 -199 -39 -25 -4 -79
-16 -120 -26 -41 -11 -88 -22 -105 -25 -85 -14 -176 -58 -232 -111 l-40 -38
-2 -95 c-1 -52 -4 -104 -7 -115 -2 -11 -11 -99 -19 -195 -8 -96 -18 -188 -21
-205 -10 -46 -19 -987 -11 -1070 3 -27 8 -90 12 -139 3 -49 9 -96 14 -105 5
-9 11 -36 15 -61 4 -25 8 -54 10 -65 2 -11 7 -46 11 -78 4 -32 18 -89 32 -125
13 -37 27 -76 30 -87 36 -134 222 -384 400 -536 62 -53 285 -168 383 -198 19
-6 67 -20 105 -31 39 -12 77 -24 85 -27 8 -4 19 -7 25 -7 6 -1 11 -55 12 -131
2 -137 10 -188 42 -272 33 -91 75 -139 151 -174 25 -12 52 -27 60 -34 30 -26
183 -59 315 -69 39 -3 91 -8 117 -11 26 -3 74 -1 105 4 32 6 110 13 173 17 63
3 122 10 130 14 8 4 33 10 55 13 22 4 116 32 208 62 129 43 191 58 267 65 55
5 130 17 167 26 74 17 195 20 234 6 13 -5 48 -13 77 -17 39 -5 57 -13 68 -30
8 -13 27 -28 42 -34 26 -11 84 -79 97 -113 4 -9 22 -19 41 -23 29 -5 38 -2 54
17 11 13 19 29 20 36 0 10 5 10 21 1 15 -8 24 -8 32 0 8 8 16 6 28 -5 22 -20
63 -2 55 24 -6 19 33 42 70 42 33 0 55 36 42 66 -6 13 -15 24 -20 24 -4 0 -7
3 -7 8 4 21 -3 30 -25 36 -13 3 -49 30 -79 58 -79 76 -120 108 -134 108 -7 0
-13 4 -13 8 0 5 -17 27 -37 50 -53 58 -120 92 -183 92 -28 0 -67 7 -87 15 -31
13 -63 14 -216 6 -99 -6 -183 -8 -186 -6 -13 8 -202 -44 -298 -81 -34 -13 -66
-24 -70 -23 -4 1 -15 0 -23 -3 -57 -22 -183 -56 -235 -63 -22 -4 -75 -17 -117
-30 -42 -13 -114 -27 -159 -30 -101 -7 -102 -8 -111 -20 -7 -10 -149 -13 -178
-4 -39 12 -92 59 -121 106 -29 48 -31 60 -30 129 2 84 9 106 37 110 99 12 193
27 209 33 75 30 132 51 141 51 11 0 95 31 144 53 14 7 48 26 77 44 29 18 56
33 60 33 8 0 125 121 160 166 12 16 52 61 88 99 36 39 81 93 100 120 19 28 54
71 78 98 25 26 52 68 62 95 10 26 23 54 30 62 7 8 18 42 25 75 6 33 22 103 35
155 13 52 27 115 30 140 4 24 9 48 11 52 8 12 27 280 29 409 1 64 4 120 7 125
2 5 6 57 7 117 1 59 6 140 10 180 7 63 -15 562 -35 772 -3 33 -6 88 -7 122 -1
44 -8 69 -23 90 -17 22 -19 32 -10 46 15 23 -3 49 -36 53 -15 1 -62 19 -105
40 -43 20 -87 40 -98 44 -11 4 -42 15 -70 25 -27 9 -66 21 -85 26 -19 6 -44
14 -55 19 -20 9 -31 12 -129 26 -27 4 -72 15 -100 25 -28 11 -64 19 -81 19
-16 0 -68 7 -115 15 -55 10 -176 18 -345 21 -143 3 -265 7 -272 9 -6 2 -13 2
-15 0z m43 -104 l36 -1 -3 -52 c-2 -29 -5 -118 -7 -197 l-4 -144 -44 -18 c-24
-9 -43 -22 -42 -28 2 -6 -3 -8 -11 -5 -20 8 -83 -69 -97 -118 -6 -24 -17 -60
-25 -80 -27 -74 -21 -428 11 -587 13 -65 20 -79 55 -112 44 -41 115 -79 147
-79 27 0 31 -19 33 -155 1 -60 2 -121 2 -135 1 -14 1 -51 0 -83 l-2 -57 -57 3
c-61 4 -85 9 -93 17 -3 3 -36 20 -75 39 -38 19 -77 40 -85 47 -8 6 -41 23 -72
36 -32 13 -68 33 -80 43 -13 11 -46 35 -74 53 -29 18 -66 46 -83 62 -17 17
-57 42 -88 56 -128 59 -400 88 -470 51 -63 -33 -60 -49 -59 316 1 289 4 350
23 467 12 74 29 209 38 300 9 91 21 170 26 176 5 6 35 19 67 28 31 10 75 24
97 31 55 19 150 42 208 50 51 7 60 8 142 25 28 5 86 14 130 20 44 5 91 12 105
15 35 9 215 21 270 19 25 -1 61 -2 81 -3z m369 -6 c183 -11 269 -23 400 -55
41 -10 93 -22 115 -26 22 -4 47 -8 55 -10 8 -2 23 -7 35 -12 11 -5 65 -24 120
-42 55 -18 141 -53 192 -77 l92 -43 10 -53 c5 -28 14 -122 21 -207 15 -221 18
-266 25 -350 6 -80 7 -365 2 -415 -2 -16 -5 -56 -5 -87 l-2 -57 -34 14 c-32
14 -107 26 -151 26 -11 0 -23 5 -27 12 -6 9 -8 9 -8 -1 0 -9 -11 -13 -32 -11
-53 3 -191 -61 -293 -136 -87 -64 -223 -155 -232 -155 -3 0 -22 -12 -40 -26
-29 -22 -112 -60 -148 -67 -5 -2 -15 -5 -20 -9 -29 -18 -224 -45 -282 -39 -9
1 -13 25 -12 85 0 47 -2 89 -5 94 -2 4 -6 64 -7 133 -1 113 0 125 17 134 33
17 94 78 94 93 0 8 10 31 22 50 24 38 33 88 48 252 5 58 12 138 15 178 6 63 3
89 -26 198 -41 156 -50 170 -128 179 l-58 7 -2 123 c-2 140 13 295 30 305 10
7 45 6 219 -5z m-251 -515 c24 -11 50 -20 57 -20 18 0 31 -30 44 -104 5 -32
14 -64 19 -70 4 -6 7 -20 5 -31 -2 -11 -5 -51 -8 -90 -16 -233 -28 -310 -54
-365 -32 -64 -86 -111 -133 -114 -63 -5 -168 85 -144 123 3 6 2 11 -2 11 -14
0 -17 43 -17 280 -1 217 0 227 24 288 41 104 112 136 209 92z m1237 -1002 c19
-6 34 -16 34 -21 0 -4 4 -6 9 -2 5 3 13 -4 16 -16 8 -24 9 -201 1 -226 -3 -10
-10 -74 -16 -143 -11 -129 -55 -352 -93 -475 -12 -38 -37 -95 -57 -126 -48
-78 -159 -219 -176 -226 -8 -3 -14 -9 -14 -14 0 -11 -30 -46 -117 -138 -35
-36 -63 -70 -63 -74 0 -12 -18 -28 -70 -64 -71 -48 -135 -77 -280 -127 -120
-41 -169 -53 -300 -73 -52 -7 -126 -7 -210 1 -114 11 -117 12 -240 50 -63 20
-123 36 -132 36 -14 0 -72 26 -226 103 -44 23 -221 161 -255 200 -10 12 -30
35 -44 51 -14 15 -35 42 -47 60 -29 42 -78 108 -93 124 -7 7 -17 32 -23 55 -6
23 -24 78 -40 122 -34 98 -48 155 -54 220 -3 28 -7 59 -9 70 -33 140 -51 343
-48 522 1 64 4 81 14 77 8 -3 34 4 59 15 39 16 63 19 149 16 57 -2 114 -8 128
-13 15 -6 46 -15 71 -22 62 -17 119 -47 160 -85 19 -18 45 -38 58 -45 25 -12
52 -33 84 -62 10 -10 20 -18 23 -18 3 0 10 0 15 0 6 0 10 -7 10 -16 0 -10 6
-13 18 -9 11 3 29 -3 43 -13 29 -22 106 -62 120 -62 5 0 26 -11 47 -25 73 -48
194 -68 307 -50 17 3 59 7 95 9 151 9 322 56 427 118 30 18 74 44 97 57 22 13
43 27 46 30 3 4 35 26 71 49 37 24 75 52 84 62 10 11 23 20 30 20 7 0 20 9 30
20 10 11 24 20 31 20 7 0 34 11 61 24 26 13 55 26 63 28 27 9 170 -1 206 -14z
m-1246 -1838 c13 -8 13 -10 -2 -10 -9 0 -20 5 -23 10 -8 13 5 13 25 0z m1427
-376 c-3 -3 -12 -4 -19 -1 -8 3 -5 6 6 6 11 1 17 -2 13 -5z m-927 -54 c-8 -5
-24 -9 -35 -9 -16 1 -16 2 5 9 35 11 48 11 30 0z m-77 -17 c-7 -2 -19 -2 -25
0 -7 3 -2 5 12 5 14 0 19 -2 13 -5z m1612 -3 c3 -5 2 -10 -4 -10 -5 0 -13 5
-16 10 -3 6 -2 10 4 10 5 0 13 -4 16 -10z m83 -85 c23 -37 28 -50 13 -41 -13
8 -52 76 -43 76 4 0 17 -16 30 -35z m-1773 -5 c3 -5 -1 -10 -9 -10 -9 0 -16 5
-16 10 0 6 4 10 9 10 6 0 13 -4 16 -10z m81 -12 c6 -10 -24 -9 -51 2 -16 6
-14 8 13 7 18 0 35 -4 38 -9z"/>
</g>
</svg>
