<?xml version="1.0" standalone="no"?>
<!DOCTYPE svg PUBLIC "-//W3C//DTD SVG 20010904//EN"
 "http://www.w3.org/TR/2001/REC-SVG-20010904/DTD/svg10.dtd">
<svg version="1.0" xmlns="http://www.w3.org/2000/svg"
 width="511.000000pt" height="443.000000pt" viewBox="0 0 511.000000 443.000000"
 preserveAspectRatio="xMidYMid meet">
<metadata>
Created by potrace 1.16, written by Peter Selinger 2001-2019
</metadata>
<g transform="translate(0.000000,443.000000) scale(0.100000,-0.100000)"
fill="#000000" stroke="none">
<path d="M4588 4254 c-9 -8 -3549 -18 -3998 -11 -117 2 -142 -8 -227 -95 -155
-159 -153 -156 -154 -222 -1 -73 0 -121 6 -246 8 -167 16 -579 14 -785 -1
-110 -1 -218 -1 -240 0 -22 1 -85 2 -140 0 -55 0 -388 0 -740 0 -352 1 -723 4
-825 8 -265 6 -352 -8 -410 -7 -30 34 -83 58 -74 8 3 28 -1 44 -10 26 -13 108
-15 618 -15 324 0 607 1 629 1 22 0 461 -3 975 -8 514 -5 960 -8 990 -8 192 4
374 3 500 -2 131 -5 244 -6 472 -4 43 1 112 -2 154 -5 91 -8 125 7 116 50 -3
16 0 30 7 35 15 9 16 35 8 250 -4 96 -10 317 -13 490 -4 173 -8 360 -9 415
-13 492 -25 1027 -28 1245 -1 85 -6 160 -10 167 -4 7 -23 15 -42 19 -24 4 -35
12 -39 30 -6 22 -28 31 -61 24 -5 -1 -37 -4 -71 -7 -69 -6 -79 3 -68 63 5 28
11 34 33 34 14 0 39 7 55 15 15 8 39 15 53 15 33 0 63 17 63 36 0 8 5 12 10 9
6 -4 18 -1 26 6 18 15 47 75 41 86 -6 10 -16 165 -22 348 -3 77 -7 192 -10
255 -4 63 -2 136 3 161 9 45 -3 82 -24 78 -5 -1 -11 0 -14 1 -3 1 -14 3 -25 5
-11 1 -27 5 -36 9 -8 4 -18 4 -21 0z m-1688 -100 c272 -1 527 -2 566 -3 l72
-1 6 -52 c5 -50 11 -122 21 -283 2 -38 6 -81 9 -95 15 -74 30 -577 17 -584 -4
-3 -532 -8 -1173 -10 l-1165 -5 -2 122 c-1 67 -3 133 -5 147 -2 14 -9 59 -16
100 -6 41 -13 129 -15 195 -2 66 -8 134 -13 152 -11 34 -15 224 -6 283 l5 35
547 -1 c301 0 567 3 592 6 25 4 49 4 55 1 5 -3 232 -6 505 -7z m-1775 -6 c4
-3 8 -71 11 -149 2 -79 9 -166 15 -192 6 -27 9 -74 7 -105 -3 -31 -2 -72 3
-91 4 -20 10 -58 13 -86 3 -27 10 -90 15 -140 10 -86 7 -277 -4 -295 -3 -4 -2
-15 1 -24 5 -14 27 -16 143 -16 75 0 159 -1 186 -1 28 0 237 0 465 0 1321 1
1594 0 1604 -8 7 -6 25 -3 46 8 32 15 35 20 40 69 3 30 3 55 0 57 -3 2 -6 29
-8 62 -2 32 -5 96 -7 143 -2 47 -6 110 -9 140 -22 250 -27 318 -32 410 -2 58
-6 131 -8 162 l-4 58 67 -1 c36 -1 140 -1 231 0 179 1 386 -6 398 -12 4 -3 18
0 32 5 36 15 259 18 267 4 4 -6 8 -33 9 -61 1 -27 5 -102 9 -165 4 -63 9 -207
11 -320 2 -113 6 -210 8 -216 2 -6 -19 -17 -47 -24 -29 -8 -59 -16 -67 -19 -8
-2 -36 -5 -62 -5 -27 0 -48 -4 -48 -8 0 -5 -9 -8 -20 -8 -11 0 -21 -3 -21 -7
-8 -43 -5 -73 16 -221 10 -67 52 -86 136 -60 35 10 42 9 62 -10 18 -17 26 -19
35 -10 6 6 14 10 16 7 8 -8 23 -361 32 -769 4 -157 8 -346 10 -420 3 -74 6
-234 9 -355 2 -121 8 -301 12 -400 8 -201 10 -541 3 -549 -5 -4 -285 -9 -383
-7 -34 1 -37 3 -27 21 6 11 8 30 4 44 -3 13 -7 143 -9 287 -1 145 -4 266 -5
269 -5 13 2 146 8 155 7 9 8 28 3 63 -3 27 -58 34 -279 34 -221 0 -224 0 -249
-23 l-25 -24 7 -145 c4 -80 7 -149 6 -155 -1 -36 0 -171 1 -294 1 -105 -1
-146 -10 -149 -15 -5 -15 -35 0 -50 6 -6 9 -14 7 -17 -3 -3 -91 -5 -195 -4
-104 0 -324 0 -489 -1 -165 0 -307 -1 -315 -1 -8 0 -103 0 -210 0 -107 0 -199
0 -205 0 -5 1 -440 3 -965 6 -1111 6 -979 4 -1011 17 -26 9 -27 13 -28 81 -1
40 -2 97 -3 127 0 30 0 235 0 455 1 220 -1 573 -3 785 -3 212 -4 426 -3 475 0
50 1 133 0 185 -2 348 -3 527 -3 760 1 146 -1 319 -3 385 -2 74 1 129 8 145
18 41 70 109 83 110 7 0 17 8 22 19 6 10 29 26 51 35 22 9 40 20 40 24 0 5 30
10 67 11 37 1 68 3 69 4 6 5 464 0 469 -5z m-850 -656 c-3 -3 -11 0 -18 7 -9
10 -8 11 6 5 10 -3 15 -9 12 -12z m3842 -2188 c-3 -3 -12 -4 -19 -1 -8 3 -5 6
6 6 11 1 17 -2 13 -5z m60 -322 c20 -2 21 -8 23 -89 1 -49 2 -95 2 -103 0 -8
-2 -68 -5 -132 -3 -72 -1 -118 5 -118 5 0 7 -4 4 -8 -3 -5 -51 -8 -108 -6 -57
1 -140 2 -185 3 -81 1 -82 1 -74 24 4 12 6 38 4 57 -6 50 -10 331 -5 355 3 20
10 20 160 20 86 -1 167 -2 179 -3z"/>
<path d="M1453 4009 c-13 -5 -20 -14 -18 -21 3 -8 -1 -22 -8 -32 -11 -16 -12
-28 -1 -75 17 -73 25 -160 15 -165 -4 -3 -5 -29 -1 -58 3 -29 6 -104 5 -167
-1 -84 2 -114 12 -118 8 -3 13 -22 13 -49 0 -60 18 -68 116 -54 42 5 93 7 115
4 61 -10 70 3 63 100 -3 44 -7 153 -8 241 -3 164 -4 178 -26 280 -12 57 -33
102 -55 117 -14 10 -194 8 -222 -3z m183 -73 c15 -5 24 -24 38 -84 10 -42 22
-90 25 -107 4 -16 6 -70 5 -120 -4 -143 -4 -236 0 -244 12 -18 -15 -29 -84
-33 -118 -8 -115 -16 -124 317 -3 115 -8 221 -11 236 -4 19 -1 30 9 36 16 9
112 9 142 -1z"/>
<path d="M2728 2922 c-11 -15 -29 -18 -104 -19 -174 -2 -295 -55 -429 -188
-68 -68 -85 -90 -123 -162 -46 -87 -61 -143 -68 -253 -5 -85 -3 -103 20 -174
14 -43 41 -104 60 -135 37 -59 125 -154 185 -199 20 -15 38 -29 41 -32 3 -3
16 -10 30 -16 14 -6 45 -21 70 -32 133 -62 328 -54 470 20 70 36 86 48 165
120 95 88 187 309 170 412 -2 17 -7 78 -10 136 -7 134 -10 155 -32 221 -37
110 -66 142 -195 215 -11 7 -25 17 -31 23 -6 6 -18 11 -27 11 -8 0 -27 8 -40
17 -22 16 -113 52 -132 53 -4 0 -13 -8 -20 -18z m76 -115 c53 -17 84 -23 92
-17 7 7 22 2 45 -15 19 -13 51 -33 71 -45 82 -45 119 -157 121 -362 0 -21 3
-38 7 -38 12 0 0 -151 -15 -203 -65 -217 -285 -377 -519 -377 -80 0 -208 41
-269 85 -21 16 -21 17 -1 11 16 -5 32 4 64 34 23 22 46 38 50 35 9 -6 87 27
112 47 20 17 13 65 -13 81 -11 7 -19 17 -19 23 0 6 -9 19 -21 30 -26 23 -49
67 -49 91 0 10 -11 40 -24 66 -14 26 -34 76 -46 110 -12 34 -24 66 -28 72 -4
5 -7 12 -8 15 -4 22 -27 63 -45 81 -18 18 -28 20 -63 15 -22 -4 -59 -9 -80
-12 l-39 -5 24 30 c13 16 39 51 58 78 34 49 116 115 188 151 21 11 40 20 43
20 3 1 12 3 20 6 89 33 230 30 344 -7z m-648 -552 c21 -61 48 -129 61 -152 13
-23 22 -46 22 -50 -1 -4 0 -15 4 -23 25 -67 48 -150 41 -150 -3 0 -23 17 -46
38 -52 47 -135 172 -149 225 -11 40 -14 167 -5 217 2 14 5 32 6 40 2 25 26
-28 66 -145z m294 -235 c0 -5 -5 -10 -11 -10 -5 0 -7 5 -4 10 3 6 8 10 11 10
2 0 4 -4 4 -10z"/>
<path d="M2680 2804 c0 -8 -4 -14 -9 -14 -15 0 -20 -41 -9 -65 12 -27 41 -38
57 -22 8 8 11 8 11 -1 0 -7 4 -12 10 -12 5 0 7 7 3 16 -3 9 0 19 7 24 9 6 9
12 1 29 -7 12 -9 26 -6 31 3 6 5 10 3 10 -2 0 -18 4 -36 9 -25 8 -32 7 -32 -5z"/>
<path d="M2740 2564 c-15 -8 -54 -14 -96 -14 -82 0 -101 -12 -89 -57 4 -16 7
-64 6 -108 -3 -106 7 -120 86 -121 32 -1 72 -5 89 -9 19 -4 40 -2 53 4 20 11
21 18 16 94 -3 45 -1 105 4 132 8 44 7 52 -11 73 -24 25 -24 25 -58 6z"/>
<path d="M662 1273 c-5 -10 -10 -52 -11 -93 -1 -41 -2 -92 -3 -113 -1 -26 5
-44 22 -62 21 -23 27 -24 99 -18 42 3 97 5 123 5 41 0 48 3 57 27 6 14 8 40 5
56 -2 17 -4 54 -4 83 1 60 -16 122 -33 122 -7 1 -64 3 -129 6 -106 5 -117 4
-126 -13z m195 -85 c15 -19 23 -62 15 -73 -10 -15 -72 -33 -107 -31 -29 1 -30
3 -33 52 l-2 51 36 1 c20 1 39 4 42 7 10 9 39 5 49 -7z"/>
</g>
</svg>
