<?xml version="1.0" standalone="no"?>
<!DOCTYPE svg PUBLIC "-//W3C//DTD SVG 20010904//EN"
 "http://www.w3.org/TR/2001/REC-SVG-20010904/DTD/svg10.dtd">
<svg version="1.0" xmlns="http://www.w3.org/2000/svg"
 width="457.000000pt" height="505.000000pt" viewBox="0 0 457.000000 505.000000"
 preserveAspectRatio="xMidYMid meet">
<metadata>
Created by potrace 1.16, written by Peter Selinger 2001-2019
</metadata>
<g transform="translate(0.000000,505.000000) scale(0.100000,-0.100000)"
fill="#000000" stroke="none">
<path d="M2690 4842 c-123 -7 -354 -54 -366 -73 -3 -5 -12 -9 -21 -9 -22 0
-214 -114 -240 -143 -11 -12 -47 -48 -81 -79 -33 -32 -63 -66 -67 -77 -3 -10
-12 -22 -20 -25 -35 -13 -287 -425 -310 -506 -26 -92 -37 -108 -89 -134 -28
-13 -63 -27 -78 -30 -41 -9 -117 -94 -139 -157 -50 -142 -58 -286 -19 -336 11
-14 20 -30 20 -35 0 -15 62 -88 75 -88 7 0 18 -6 24 -14 30 -36 124 -63 252
-72 61 -4 86 -1 132 16 68 26 135 87 172 157 28 55 29 60 39 208 6 83 9 92 36
117 36 33 96 50 175 50 52 0 73 -6 164 -52 57 -29 121 -68 141 -86 20 -18 70
-52 111 -75 40 -23 97 -58 125 -79 56 -42 123 -80 140 -80 6 0 32 -9 57 -20
44 -19 46 -23 57 -78 20 -93 48 -133 137 -190 46 -29 60 -33 153 -39 117 -7
155 1 243 49 12 7 43 33 70 58 l47 44 1 -29 c3 -49 -2 -97 -15 -155 -8 -32
-10 -65 -5 -77 8 -23 61 -43 112 -43 25 0 113 42 127 61 3 3 21 15 40 25 43
23 190 30 267 13 52 -12 53 -13 74 -68 22 -59 27 -82 34 -146 6 -60 23 -136
39 -170 8 -16 24 -71 37 -120 22 -87 22 -92 6 -124 -9 -19 -17 -40 -17 -47 0
-13 -68 -81 -98 -98 -9 -6 -44 -10 -77 -11 -44 -1 -76 -8 -120 -30 -80 -39
-116 -86 -173 -227 -9 -20 -19 -28 -37 -28 -15 0 -45 -5 -69 -11 -40 -10 -46
-9 -89 21 -42 28 -47 35 -47 70 0 21 -4 42 -10 45 -5 3 -10 33 -10 67 0 33 -7
81 -17 107 -14 40 -23 50 -57 64 -33 13 -51 14 -90 7 -27 -6 -54 -13 -60 -18
-26 -18 -50 -7 -60 27 -12 43 -48 61 -74 38 -10 -10 -25 -17 -32 -17 -7 0 -21
-7 -30 -15 -10 -9 -31 -20 -49 -25 -30 -8 -32 -7 -48 28 -9 20 -17 42 -18 47
0 6 -10 30 -22 55 -11 25 -23 55 -27 67 -4 11 -14 24 -22 27 -8 3 -12 10 -9
16 3 5 1 10 -4 10 -6 0 -23 13 -38 28 -16 16 -46 41 -68 57 -41 30 -115 103
-115 114 0 3 -37 40 -82 81 -45 41 -97 90 -116 108 -19 18 -40 31 -47 28 -8
-3 -15 0 -17 6 -2 6 -74 9 -208 8 -379 -5 -1004 -2 -1130 4 -237 12 -269 10
-334 -20 -33 -15 -82 -41 -110 -58 -50 -31 -179 -146 -172 -153 2 -2 -12 -21
-33 -42 -47 -49 -68 -77 -92 -123 -11 -21 -23 -38 -28 -38 -5 0 -15 -15 -21
-34 -6 -19 -17 -40 -25 -46 -7 -6 -17 -26 -21 -43 -3 -18 -13 -41 -20 -52 -8
-11 -14 -25 -14 -32 0 -6 -5 -24 -12 -40 -15 -39 -16 -39 -29 -118 -6 -38 -15
-77 -20 -86 -9 -19 -38 -238 -45 -354 -3 -44 -9 -91 -13 -105 -10 -34 -3 -145
14 -200 18 -60 23 -86 31 -151 3 -30 12 -65 19 -79 14 -28 36 -103 41 -137 5
-40 15 -63 25 -58 5 4 9 0 9 -8 0 -8 7 -20 15 -27 8 -7 13 -16 10 -20 -3 -5
-1 -12 5 -15 6 -4 20 -26 31 -50 20 -43 38 -64 93 -114 14 -13 29 -34 32 -46
7 -30 29 -38 57 -23 54 29 60 53 19 90 -41 37 -110 117 -129 149 -10 16 -21
29 -25 29 -4 0 -8 7 -8 15 0 9 -12 39 -26 68 -25 47 -83 233 -88 282 -2 11 -8
36 -14 55 -29 90 -38 208 -23 303 6 39 14 108 17 152 5 71 19 158 55 335 6 30
16 66 23 80 7 14 37 75 66 135 29 61 56 112 60 115 3 3 23 30 45 60 52 74 121
148 175 189 25 19 47 37 50 42 13 19 101 56 122 52 18 -3 27 1 34 17 9 21 14
22 163 21 84 -1 185 -4 224 -6 81 -5 429 -13 866 -20 336 -6 319 -2 431 -105
30 -27 58 -50 62 -50 5 0 8 -5 8 -10 0 -6 12 -23 28 -39 15 -15 41 -44 59 -64
17 -20 48 -45 70 -56 21 -10 45 -28 54 -38 9 -10 33 -33 52 -51 38 -36 119
-191 142 -272 3 -14 15 -44 25 -66 10 -23 21 -64 25 -92 3 -28 12 -66 20 -85
8 -20 18 -53 22 -74 13 -68 7 -294 -10 -373 -8 -41 -18 -91 -21 -110 -3 -19
-10 -50 -15 -68 -5 -18 -10 -33 -9 -35 1 -8 -28 -107 -58 -194 -58 -171 -96
-237 -195 -333 -48 -47 -93 -89 -101 -95 -7 -5 -31 -25 -53 -43 -59 -48 -59
-49 -92 -65 -16 -9 -35 -23 -42 -31 -8 -9 -20 -16 -29 -16 -8 0 -25 -11 -38
-25 -13 -14 -27 -25 -33 -25 -5 0 -47 -16 -92 -35 -46 -19 -92 -35 -102 -35
-10 0 -28 -6 -40 -14 -12 -8 -44 -17 -72 -20 -27 -4 -66 -9 -85 -12 -19 -3
-89 -5 -155 -5 -104 2 -141 7 -275 41 -85 22 -176 46 -202 54 -25 8 -49 12
-52 9 -3 -4 -6 -2 -6 4 0 10 -80 35 -150 47 -59 10 -73 14 -120 30 -25 8 -76
20 -115 26 -110 19 -292 128 -317 192 -10 24 -32 23 -62 -3 -21 -18 -23 -25
-15 -49 6 -15 34 -52 63 -81 72 -73 196 -136 305 -155 44 -8 107 -23 139 -34
31 -10 73 -22 92 -25 19 -3 49 -10 65 -15 17 -4 82 -24 145 -43 323 -97 503
-120 725 -91 17 2 49 4 73 5 24 1 45 6 48 10 2 4 21 13 42 20 39 13 111 43
202 87 69 32 197 113 230 145 14 14 40 33 58 43 17 10 32 24 32 31 0 7 4 13
10 13 23 0 220 221 220 248 0 4 11 28 25 55 14 26 23 47 20 47 -3 0 4 18 15
40 11 22 22 55 24 73 2 17 9 46 15 62 16 37 51 169 57 210 3 17 14 75 24 130
30 153 17 428 -25 528 -24 59 -20 73 28 92 23 9 62 20 87 24 40 6 45 9 51 38
3 18 2 30 -2 27 -5 -3 -9 -2 -9 3 0 11 20 40 20 29 0 -4 10 -1 23 7 22 14 62
22 98 19 26 -3 52 -83 44 -135 -5 -32 -3 -52 8 -68 8 -13 18 -42 22 -64 5 -34
14 -45 58 -74 54 -36 83 -40 189 -29 58 6 85 28 99 82 11 46 40 106 50 106 4
0 9 9 12 19 6 23 70 65 120 79 21 6 59 8 85 6 46 -4 48 -3 115 58 37 35 67 69
67 76 0 7 9 30 20 52 12 23 20 59 20 87 0 45 -18 114 -33 129 -4 4 -7 25 -7
46 0 21 -7 49 -16 63 -14 21 -23 61 -43 200 -6 39 -57 185 -65 185 -1 0 -26 9
-56 20 -34 12 -79 20 -120 20 -36 0 -86 0 -112 0 -41 1 -86 -16 -108 -40 -7
-7 -111 -56 -136 -64 -13 -4 -26 -1 -34 9 -7 8 -9 15 -4 15 14 0 17 219 4 235
-8 10 -9 34 -4 77 9 77 7 129 -6 142 -6 6 -10 16 -10 24 0 29 -71 154 -106
184 -22 20 -33 37 -30 47 9 28 47 156 49 166 2 6 6 16 10 23 5 6 6 12 3 12 -2
0 2 26 9 58 31 134 27 322 -10 455 -10 34 -56 138 -65 147 -3 3 -15 19 -27 35
-12 17 -48 58 -80 91 -32 33 -71 76 -88 95 -16 19 -46 41 -65 49 -19 7 -46 21
-60 30 -14 9 -56 27 -95 40 -38 12 -86 31 -105 40 -20 10 -51 21 -70 25 -40 7
-174 11 -240 7z m-30 -94 c0 -27 -19 -39 -94 -63 -42 -13 -80 -24 -84 -23 -21
5 -155 -69 -226 -125 -16 -12 -39 -29 -52 -37 -13 -8 -24 -18 -24 -23 0 -5
-19 -28 -42 -52 -50 -49 -185 -200 -226 -250 -4 -5 -11 -17 -15 -25 -4 -8 -15
-27 -25 -41 -91 -137 -99 -151 -134 -247 -19 -53 -26 -62 -43 -57 -11 2 -35 5
-52 5 -35 0 -35 -4 -2 75 7 17 12 32 11 35 -2 15 121 235 170 305 16 22 41 58
55 80 15 22 49 65 75 95 27 30 61 70 76 88 37 44 126 113 191 148 29 16 65 35
79 43 65 36 154 58 255 66 27 2 51 6 54 9 12 11 53 6 53 -6z m235 -102 c85
-23 282 -122 293 -147 2 -4 27 -38 57 -76 60 -78 87 -146 120 -303 1 -8 8 -33
13 -55 17 -63 7 -318 -15 -389 l-18 -59 -82 -17 c-74 -15 -157 -55 -148 -70 2
-4 -5 -19 -16 -36 -10 -16 -42 -75 -70 -132 -41 -84 -54 -102 -67 -96 -10 3
-39 15 -67 26 -76 29 -113 47 -121 59 -7 12 -122 86 -169 109 -29 15 -67 44
-112 87 -25 24 -57 42 -120 68 -24 10 -43 21 -43 25 0 19 -155 51 -188 39 -13
-5 -46 -10 -73 -11 -37 0 -53 -6 -70 -24 -25 -27 -49 -31 -49 -9 0 7 -6 18
-13 22 -6 4 -18 19 -25 33 -8 14 -40 38 -73 55 -38 19 -59 35 -59 47 0 23 94
207 120 235 11 12 20 25 20 28 0 41 361 435 399 435 6 0 11 3 11 8 0 14 138
72 265 111 181 56 216 60 300 37z m571 -283 c40 -55 64 -123 75 -215 7 -51 12
-100 12 -108 -3 -84 -18 -190 -38 -262 -14 -47 -28 -103 -31 -125 -8 -49 -11
-53 -39 -53 -27 0 -43 33 -26 53 9 12 20 60 26 120 1 12 3 24 5 27 1 3 1 67 0
142 -1 134 -7 170 -53 332 -13 48 -13 51 10 72 12 12 23 26 23 33 0 19 15 12
36 -16z m-2058 -693 c-12 -16 -25 -30 -30 -30 -4 0 -8 -8 -8 -18 0 -10 -4 -22
-9 -27 -5 -6 -16 -30 -25 -55 -8 -25 -15 -37 -16 -28 0 9 9 37 20 62 11 26 18
48 17 50 -3 6 60 76 67 76 4 0 -3 -13 -16 -30z m343 -12 c32 -17 59 -36 59
-41 0 -6 8 -16 18 -23 15 -12 13 -13 -18 -14 -19 0 -40 -4 -47 -8 -12 -7 -11
-57 1 -69 13 -14 61 12 64 35 4 29 22 18 22 -14 0 -13 4 -24 10 -24 12 0 10
-79 -2 -86 -4 -3 -8 -14 -8 -26 0 -25 -67 -113 -98 -127 -12 -6 -54 -17 -92
-25 -147 -31 -254 37 -266 168 -9 101 28 206 73 206 7 0 27 12 44 28 28 25
100 49 157 51 13 1 50 -13 83 -31z m1479 -153 c-7 -8 -18 -15 -26 -15 -7 0
-15 -8 -18 -18 -4 -10 -14 -27 -24 -38 -10 -10 -25 -30 -35 -44 -12 -18 -17
-20 -17 -8 0 9 3 18 8 20 4 2 18 24 32 50 15 29 35 52 50 57 37 14 44 13 30
-4z m195 5 c8 -13 -5 -13 -25 0 -13 8 -13 10 2 10 9 0 20 -4 23 -10z m-2104
-95 c2 -38 9 -82 16 -97 22 -46 14 -55 -12 -13 -15 25 -24 55 -25 81 0 41 10
107 15 102 2 -2 4 -34 6 -73z m2216 17 c3 -9 12 -24 18 -32 7 -8 16 -26 19
-40 6 -21 -1 -16 -39 23 -48 52 -63 97 -24 77 11 -6 23 -19 26 -28z m-180 5
c17 -7 41 -24 52 -39 22 -27 25 -82 5 -74 -6 2 -23 -2 -37 -9 -14 -7 -58 -15
-99 -18 -40 -3 -83 -8 -95 -12 -20 -6 -23 -4 -23 16 0 13 13 39 28 58 67 84
70 87 83 74 10 -10 9 -15 -1 -28 -10 -12 -10 -21 -1 -41 15 -34 52 -29 62 7 8
31 -1 49 -26 53 -11 2 -21 8 -23 14 -5 15 33 14 75 -1z m-269 -134 c-16 -37
-28 -51 -28 -32 0 14 27 59 35 59 3 0 -1 -12 -7 -27z m430 -67 c11 -11 10 -19
-4 -49 -21 -43 -31 -46 -40 -12 -7 26 -34 56 -34 36 0 -6 -9 -11 -20 -11 -27
0 -27 -43 1 -71 11 -11 19 -21 17 -22 -1 -1 -17 -10 -35 -19 -43 -25 -108 -23
-146 4 -40 27 -107 99 -107 115 0 12 49 11 70 -2 5 -3 20 0 32 7 38 21 170 47
213 42 22 -3 46 -11 53 -18z m-396 -129 c24 -34 57 -67 68 -67 5 0 10 -4 10
-9 0 -5 12 -14 28 -19 l27 -10 -28 -1 c-38 -1 -98 31 -135 73 -36 41 -52 103
-31 117 10 6 18 -1 31 -28 9 -20 22 -45 30 -56z m-1332 78 c0 -12 -66 -37
-108 -40 l-47 -4 50 13 c28 8 61 18 75 24 31 13 30 13 30 7z m1760 -89 c0 -2
-8 -10 -17 -17 -16 -13 -17 -12 -4 4 13 16 21 21 21 13z m-286 -983 c21 -78
21 -78 -41 -101 -31 -12 -57 -20 -58 -19 0 1 -8 19 -18 40 -17 37 -17 38 6 47
12 5 36 18 52 29 37 26 52 26 59 4z"/>
<path d="M1634 3617 c-19 -30 -20 -33 -4 -49 24 -26 49 -22 60 8 14 36 12 54
-5 54 -8 0 -15 5 -15 10 0 19 -15 10 -36 -23z"/>
<path d="M1487 3564 c-11 -11 -8 -52 4 -59 6 -4 8 -13 5 -21 -8 -21 11 -17 33
7 28 30 23 73 -10 77 -13 2 -28 0 -32 -4z"/>
<path d="M1772 3449 c-18 -7 -22 -14 -17 -31 15 -51 70 -57 82 -10 4 18 1 29
-12 39 -21 15 -22 15 -53 2z"/>
<path d="M1466 3411 c-15 -16 -15 -22 -4 -40 17 -28 54 -27 62 2 11 43 7 57
-17 57 -13 0 -32 -9 -41 -19z"/>
<path d="M1709 3346 c-35 -17 -37 -53 -4 -68 31 -14 44 -4 51 39 6 36 -12 47
-47 29z"/>
<path d="M1548 3326 c-19 -14 -23 -43 -9 -65 11 -17 71 -5 71 15 0 8 5 14 10
14 21 0 9 31 -16 40 -32 13 -35 12 -56 -4z"/>
<path d="M3257 3183 c-12 -11 -8 -60 6 -70 6 -6 20 -10 30 -10 21 0 39 56 24
75 -10 13 -49 17 -60 5z"/>
<path d="M1026 2511 c-4 -6 -16 -11 -27 -11 -10 0 -28 -9 -39 -20 -11 -11 -26
-20 -34 -20 -26 0 -47 -47 -42 -93 5 -40 2 -47 -37 -89 -23 -26 -54 -68 -68
-95 -14 -26 -45 -81 -68 -122 -24 -40 -44 -82 -47 -94 -2 -11 -7 -23 -11 -26
-5 -3 -9 -17 -9 -31 -1 -14 -6 -45 -11 -70 -5 -25 -8 -74 -8 -110 2 -71 24
-212 35 -220 4 -3 10 -28 13 -56 8 -73 59 -163 131 -232 33 -33 72 -76 86 -96
14 -20 39 -52 57 -70 18 -18 30 -36 27 -39 -3 -3 5 -8 18 -12 26 -9 71 -48
156 -138 26 -28 117 -68 165 -73 23 -3 49 -7 57 -10 8 -4 42 -9 74 -11 33 -3
78 -12 100 -21 78 -29 301 -47 370 -30 16 4 82 8 146 9 l118 2 32 -36 c18 -21
38 -37 46 -37 7 0 17 -6 21 -14 8 -14 24 -19 54 -17 28 2 199 250 199 289 0
13 -12 39 -26 58 l-26 34 51 103 c28 56 51 109 51 117 0 9 7 26 16 38 8 12 14
28 11 35 -2 6 4 28 14 47 10 20 22 80 28 140 13 123 17 363 6 379 -4 7 -9 31
-12 54 -4 40 -47 141 -73 172 -7 8 -9 15 -5 15 6 0 -9 21 -56 78 -5 7 -21 35
-34 64 -13 28 -28 54 -33 57 -5 3 -12 24 -15 46 -7 56 -24 95 -42 95 -8 0 -15
4 -15 10 0 13 -66 4 -107 -15 -18 -9 -33 -22 -33 -30 0 -11 -20 -14 -92 -15
-51 0 -100 0 -108 0 -8 0 -157 2 -330 4 -454 4 -539 13 -591 57 -19 16 -39 29
-46 29 -7 0 -16 7 -21 16 -6 11 -11 13 -16 5z m734 -167 c140 -3 273 -7 295
-9 22 -1 64 -3 93 -4 43 -1 52 -4 52 -19 0 -10 13 -33 28 -50 33 -37 76 -42
123 -15 29 17 30 17 54 -9 14 -15 25 -32 25 -38 0 -5 5 -10 10 -10 6 0 10 -6
10 -14 0 -8 7 -16 15 -20 8 -3 15 -13 15 -22 0 -9 9 -29 20 -44 33 -46 78
-137 86 -172 4 -18 9 -80 11 -138 2 -58 5 -112 5 -120 0 -8 -2 -40 -6 -70 -3
-30 -9 -82 -11 -115 -3 -33 -12 -78 -19 -100 -8 -22 -20 -60 -27 -85 -7 -25
-33 -87 -58 -138 -37 -76 -52 -97 -83 -114 -21 -12 -38 -25 -38 -29 0 -8 -60
-77 -122 -140 -53 -54 -58 -55 -223 -65 -228 -14 -413 -6 -460 19 -11 6 -29
12 -40 13 -11 1 -38 5 -60 7 -22 3 -67 9 -100 13 -67 7 -155 40 -169 63 -10
17 -122 125 -166 161 -17 14 -52 52 -78 85 -66 85 -102 124 -122 130 -9 3 -23
21 -30 41 -8 19 -20 40 -27 46 -7 5 -10 14 -7 19 3 5 1 9 -4 9 -13 0 -22 25
-28 79 -3 26 -9 60 -14 76 -29 93 -30 195 -5 300 2 11 9 44 14 74 6 29 16 61
23 70 7 9 24 38 38 64 14 27 39 64 57 83 18 20 35 44 38 54 7 22 52 53 64 45
5 -3 11 -1 13 5 2 6 14 6 33 1 21 -5 43 -3 70 7 54 20 63 28 70 63 l7 30 186
-6 c103 -3 302 -8 442 -11z m643 -1487 c-15 -23 -31 -44 -34 -47 -3 -3 -14
-20 -24 -37 -24 -40 -30 -41 -43 -5 -13 37 -3 56 61 114 42 39 53 44 60 32 6
-11 0 -29 -20 -57z"/>
<path d="M1664 2159 c-17 -19 -19 -39 -20 -203 -1 -201 6 -232 53 -223 26 5
28 2 38 -55 4 -27 11 -38 24 -38 33 0 116 33 141 56 31 28 64 17 55 -19 -4
-13 -1 -45 5 -71 12 -56 7 -65 -35 -66 -17 0 -48 0 -70 -1 -101 -3 -139 -2
-274 4 -223 11 -372 10 -384 -2 -6 -6 -10 -31 -8 -56 1 -24 -2 -53 -8 -62 -20
-38 38 -68 119 -64 8 1 83 1 165 2 144 0 184 -3 205 -16 6 -3 10 -2 10 2 0 5
18 10 40 11 22 2 40 -1 40 -5 0 -4 52 -8 115 -7 63 0 115 -2 115 -6 0 -20 31
-16 55 6 21 20 25 30 20 54 -3 16 -1 46 4 67 10 34 9 40 -9 55 l-20 17 20 6
c30 10 48 43 55 107 6 50 4 61 -16 90 -33 47 -99 92 -99 68 0 -6 -5 -10 -10
-10 -7 0 -7 6 0 20 14 26 4 139 -18 199 -14 36 -29 54 -72 83 -30 20 -72 39
-94 43 -22 3 -45 10 -51 15 -6 5 -25 11 -41 14 -23 4 -36 1 -50 -15z m162
-139 c62 -35 88 -86 78 -153 -11 -71 -76 -121 -112 -85 -9 9 -16 8 -30 -5 -17
-16 -18 -14 -19 51 -1 37 -2 72 -3 77 -2 6 -2 40 -1 78 1 80 8 83 87 37z m227
-356 c-1 -20 -8 -43 -16 -52 -14 -14 -16 -13 -22 9 -3 13 -4 40 -1 59 2 19 4
39 5 45 0 5 9 2 18 -8 10 -10 17 -31 16 -53z m-210 -201 c64 -3 117 -10 117
-15 0 -5 5 -6 10 -3 6 3 10 0 10 -8 0 -13 -16 -14 -92 -12 -51 2 -105 6 -121
8 -15 2 -30 0 -33 -5 -3 -4 -8 -6 -12 -4 -4 2 -95 7 -202 10 -107 3 -208 10
-225 15 -24 7 -26 9 -8 10 12 1 24 4 27 9 5 8 334 5 529 -5z"/>
<path d="M1404 2120 c-36 -8 -126 -94 -131 -125 -2 -11 -6 -59 -9 -108 -7 -93
0 -112 49 -139 31 -16 126 -38 168 -38 46 0 64 14 73 56 10 50 -4 59 -98 60
-53 0 -91 6 -101 14 -32 27 -11 118 40 173 40 42 37 41 83 25 30 -11 35 -11
48 7 21 29 18 65 -5 65 -11 0 -23 5 -26 10 -7 11 -38 10 -91 0z"/>
<path d="M2139 1805 c-12 -12 -13 -30 -8 -85 3 -39 4 -81 2 -94 -3 -13 1 -34
8 -47 7 -13 12 -27 11 -31 -1 -4 7 -6 18 -5 12 1 20 8 20 19 0 22 23 24 40 3
14 -16 73 -12 97 8 9 6 23 5 42 -3 44 -18 93 -9 107 18 6 13 17 29 23 35 14
14 14 47 0 47 -6 0 -22 -9 -36 -20 -28 -22 -58 -26 -68 -10 -3 6 -1 10 4 10 6
0 11 9 11 20 0 13 7 20 18 20 21 0 52 30 52 49 0 29 -30 43 -74 37 -54 -8 -78
-25 -81 -57 -4 -38 -4 -39 -15 -39 -7 0 -7 6 -1 18 13 24 -7 64 -34 68 -26 4
-65 -33 -65 -61 0 -12 9 -34 20 -48 21 -26 25 -38 13 -36 -21 3 -33 -2 -33
-16 0 -8 -5 -15 -11 -15 -8 0 -10 29 -6 100 5 81 3 103 -9 115 -19 19 -26 19
-45 0z"/>
<path d="M946 705 c-8 -9 -18 -16 -21 -15 -26 1 -37 -3 -50 -23 -12 -19 -13
-29 -3 -55 9 -23 9 -45 2 -82 -12 -59 -6 -72 45 -89 26 -8 44 -8 68 0 26 8 41
8 64 -1 16 -7 40 -10 55 -7 18 3 32 -2 49 -19 27 -27 40 -31 32 -10 -4 11 -1
13 10 9 24 -9 43 25 43 79 0 26 4 48 8 48 5 0 6 14 4 31 -5 32 -33 69 -52 69
-5 0 -10 5 -10 11 0 5 -4 8 -8 5 -4 -3 -26 0 -48 5 -21 6 -57 12 -79 15 -22 3
-52 14 -67 24 -24 18 -28 18 -42 5z m44 -85 c19 -5 51 -11 70 -13 67 -8 121
-31 126 -54 8 -29 -2 -43 -31 -43 -13 0 -35 -4 -50 -10 -20 -8 -29 -6 -45 10
-24 24 -36 25 -71 6 -38 -20 -59 -1 -59 56 0 61 3 64 60 48z"/>
<path d="M2569 672 c-11 -7 -27 -11 -35 -8 -9 3 -30 0 -47 -8 -18 -8 -51 -20
-73 -25 -23 -6 -54 -23 -69 -38 -23 -24 -26 -32 -19 -63 7 -33 12 -96 13 -164
1 -22 5 -27 17 -22 9 4 22 2 29 -4 8 -7 20 -1 40 20 16 17 46 35 67 40 20 6
50 21 65 33 15 12 46 31 68 42 22 11 43 24 47 30 11 14 10 102 -1 123 -5 9
-12 24 -14 33 -7 22 -62 29 -88 11z m56 -82 c7 -11 -25 -59 -40 -60 -6 0 -26
-14 -45 -31 -22 -20 -44 -32 -61 -31 -15 0 -35 -8 -45 -19 -27 -30 -41 -23
-46 24 -7 64 14 96 62 97 14 0 36 6 50 13 31 16 117 21 125 7z"/>
<path d="M1397 635 c-11 -11 -15 -37 -15 -94 0 -44 -5 -89 -12 -100 -6 -12 -7
-21 -2 -21 5 0 14 -12 21 -26 10 -23 16 -26 45 -21 19 3 38 2 42 -3 14 -13
121 -33 191 -36 46 -2 65 1 74 13 16 19 19 226 3 240 -7 7 -21 5 -44 -7 -33
-17 -36 -17 -79 2 -84 36 -96 41 -124 44 -16 2 -37 8 -47 14 -25 14 -36 13
-53 -5z m206 -119 c32 -14 64 -26 72 -26 8 0 15 -6 16 -12 0 -7 2 -28 5 -47
l4 -33 -42 6 c-24 4 -65 9 -93 12 -27 4 -56 11 -63 17 -7 5 -26 10 -42 9 -29
-1 -30 1 -24 36 7 45 12 77 13 78 8 7 110 -20 154 -40z"/>
<path d="M1903 562 c-38 -53 -48 -126 -22 -173 5 -10 9 -27 9 -38 0 -31 35
-45 79 -32 55 16 119 22 127 10 11 -19 53 -28 102 -22 43 5 48 8 45 27 -2 11
0 47 5 78 10 66 4 113 -19 146 -17 24 -18 24 -146 20 -10 0 -50 2 -89 5 -69 5
-72 4 -91 -21z m287 -82 c13 -32 6 -83 -15 -100 -11 -9 -19 -7 -38 12 -14 14
-33 23 -43 21 -11 -1 -44 -6 -74 -9 -30 -4 -58 -11 -61 -17 -4 -5 -14 12 -23
39 -24 72 -14 79 127 81 l115 1 12 -28z"/>
</g>
</svg>
