<?xml version="1.0" standalone="no"?>
<!DOCTYPE svg PUBLIC "-//W3C//DTD SVG 20010904//EN"
 "http://www.w3.org/TR/2001/REC-SVG-20010904/DTD/svg10.dtd">
<svg version="1.0" xmlns="http://www.w3.org/2000/svg"
 width="537.000000pt" height="345.000000pt" viewBox="0 0 537.000000 345.000000"
 preserveAspectRatio="xMidYMid meet">
<metadata>
Created by potrace 1.16, written by Peter Selinger 2001-2019
</metadata>
<g transform="translate(0.000000,345.000000) scale(0.100000,-0.100000)"
fill="#000000" stroke="none">
<path d="M1229 3006 c-2 -2 -36 -6 -74 -8 -39 -2 -85 -12 -103 -20 -17 -9 -46
-19 -64 -23 -42 -9 -128 -48 -128 -57 0 -5 -5 -8 -11 -8 -21 0 -144 -88 -169
-122 -63 -83 -95 -154 -119 -258 -12 -52 -26 -108 -31 -125 -30 -103 -29 -431
0 -560 13 -57 13 -59 -20 -96 -44 -48 -58 -79 -82 -172 -20 -82 -28 -274 -10
-286 4 -4 9 -17 11 -31 7 -52 81 -160 109 -160 7 0 12 -4 12 -10 0 -5 7 -10
15 -10 8 0 15 -3 15 -8 0 -14 156 -45 202 -40 43 5 45 4 57 -28 6 -18 9 -44 5
-58 -3 -15 -2 -32 4 -39 5 -6 16 -31 23 -55 7 -23 18 -47 26 -53 7 -6 13 -18
13 -25 0 -27 208 -162 252 -164 9 0 29 -5 45 -12 36 -14 31 -13 78 -23 22 -4
51 -13 65 -20 37 -19 94 -92 100 -128 4 -26 10 -33 33 -35 19 -2 27 -9 27 -22
0 -10 10 -26 21 -34 19 -13 24 -13 45 1 23 15 24 14 24 -10 0 -17 14 -36 46
-63 25 -22 55 -42 65 -46 10 -4 19 -11 19 -16 0 -5 6 -9 13 -10 16 -2 93 -18
137 -30 34 -8 94 1 115 18 6 5 31 11 58 15 26 4 57 15 70 24 12 9 40 25 62 35
55 25 143 130 182 219 20 46 34 99 40 147 10 95 5 365 -8 399 -12 31 -4 167
16 266 43 210 47 221 101 306 29 46 57 88 62 93 5 4 23 21 39 37 72 67 222
112 294 87 32 -11 38 -32 41 -125 1 -46 6 -64 17 -70 9 -4 156 -8 326 -9 889
-5 1581 -17 1636 -29 40 -9 79 10 72 34 -3 13 -1 21 7 21 8 0 10 21 6 78 -3
42 -8 139 -12 215 -3 76 -7 152 -10 169 -2 17 -6 90 -9 162 -3 72 -8 187 -11
256 -4 69 -7 140 -8 159 -2 45 -38 74 -86 69 -19 -3 -50 -1 -67 3 -18 4 -33 3
-33 -1 0 -5 -15 -8 -32 -8 -18 1 -130 0 -248 -1 -517 -5 -633 -2 -626 14 3 8
1 15 -4 15 -5 0 -10 15 -10 33 0 63 -2 65 -44 72 -23 4 -88 9 -146 11 -142 5
-172 -14 -135 -86 21 -41 11 -56 -42 -64 -54 -7 -59 -2 -61 56 -2 47 -11 60
-44 65 -12 2 -27 8 -34 14 -8 6 -51 13 -97 14 -113 5 -123 -2 -120 -89 l3 -66
-43 5 c-91 10 -185 9 -200 -3 -18 -15 -21 -95 -6 -175 5 -31 12 -139 15 -240
6 -245 12 -367 18 -391 4 -18 1 -21 -32 -21 -20 0 -56 -5 -79 -11 -23 -6 -44
-9 -47 -7 -7 7 -67 -17 -83 -33 -7 -6 -31 -24 -55 -39 -24 -15 -54 -43 -68
-62 -14 -19 -38 -50 -55 -68 -58 -64 -115 -176 -115 -226 0 -21 -4 -40 -9 -43
-4 -3 -11 -27 -14 -53 -3 -27 -8 -61 -11 -78 -18 -98 -22 -250 -8 -268 16 -21
22 -283 8 -387 -15 -113 -57 -198 -129 -259 -16 -14 -35 -31 -43 -38 -23 -23
-117 -63 -149 -63 -17 0 -41 -7 -53 -16 -16 -11 -36 -14 -60 -11 -68 9 -131
28 -143 43 -6 8 -17 14 -24 14 -21 0 -82 67 -88 97 -5 28 -23 85 -37 113 -4 8
-17 17 -30 18 -21 3 -22 7 -16 50 3 25 13 53 21 62 8 9 15 20 15 23 0 4 20 32
45 62 24 30 57 81 72 113 30 62 31 67 40 130 3 23 8 44 12 46 3 3 5 25 3 50
-3 34 -8 46 -21 47 -11 0 -8 4 9 12 52 24 140 106 140 130 0 9 3 17 8 17 10 0
49 105 57 152 13 79 6 313 -10 351 -8 20 -12 37 -8 37 5 0 1 6 -8 13 -9 7 -25
30 -36 52 -28 55 -49 70 -115 84 l-58 12 6 62 c3 34 9 85 14 112 16 90 -5 276
-46 405 -13 41 -28 99 -35 128 -16 79 -92 186 -172 245 -61 44 -149 82 -161
69 -4 -3 -6 0 -6 6 0 10 -23 17 -80 25 -8 2 -20 6 -26 10 -6 3 -13 5 -15 3z
m21 -182 c65 -7 99 -24 153 -73 69 -62 85 -83 115 -145 49 -100 60 -129 67
-176 7 -47 10 -252 6 -408 -3 -102 -6 -107 -81 -133 -60 -21 -118 -80 -157
-159 -15 -30 -31 -57 -35 -60 -7 -5 -14 -66 -23 -182 -3 -51 25 -169 55 -228
17 -33 65 -87 115 -128 34 -29 127 -63 187 -70 l63 -7 3 -55 c4 -54 -15 -160
-28 -160 -3 0 -12 -16 -19 -36 -7 -20 -37 -62 -66 -94 -29 -32 -56 -67 -60
-79 -3 -11 -9 -21 -13 -21 -4 0 -8 -23 -9 -51 -1 -28 -5 -59 -8 -68 -6 -14 -8
-14 -21 4 -50 68 -94 102 -151 114 -32 7 -77 21 -101 32 -23 10 -55 19 -70 19
-17 0 -40 11 -58 28 -28 27 -61 47 -76 44 -3 -1 -24 15 -46 36 -43 39 -71 108
-77 190 -2 24 -7 56 -10 73 -4 18 -3 29 4 29 6 0 11 4 11 8 0 5 17 27 38 49
49 51 95 146 97 198 3 83 -14 263 -32 329 -22 84 -74 150 -134 167 -21 7 -39
16 -39 21 0 11 -55 10 -105 -2 -22 -5 -44 -5 -48 -1 -5 5 -20 64 -34 132 -21
107 -24 141 -20 249 7 162 26 238 89 357 57 110 54 105 128 159 95 67 155 93
224 96 20 1 39 4 41 8 5 7 19 7 125 -6z m2103 -81 l5 -43 -74 0 c-72 0 -74 1
-74 24 0 13 -2 31 -5 38 -7 17 60 23 98 9 20 -8 27 -7 31 6 9 22 12 15 19 -34z
m405 31 c23 -5 30 -11 30 -30 0 -13 -3 -24 -7 -25 -3 -1 -39 -3 -78 -5 l-73
-4 0 35 0 35 49 0 c27 0 62 -3 79 -6z m1118 -176 c6 -6 13 -137 19 -353 3
-121 8 -233 10 -250 14 -105 19 -167 18 -215 -1 -105 0 -100 -37 -100 -19 0
-46 4 -60 9 -16 7 -26 7 -28 0 -6 -17 -45 -18 -473 -18 -650 0 -1258 9 -1271
20 -11 9 -16 39 -30 174 -3 33 -7 67 -10 75 -6 22 -13 200 -19 453 l-5 218
941 -5 c518 -3 943 -7 945 -8z m-3160 -844 c-13 -33 -37 -90 -52 -129 -15 -38
-35 -81 -44 -95 -9 -14 -23 -41 -32 -60 -69 -146 -103 -210 -110 -210 -15 0
-8 45 12 85 11 22 20 49 20 61 0 12 7 27 15 34 8 7 15 23 15 37 0 13 6 31 13
39 6 8 17 20 22 27 12 15 55 101 55 112 0 4 11 20 25 37 14 16 25 38 25 49 0
10 4 19 10 19 5 0 17 14 25 31 27 51 27 26 1 -37z m110 10 c-29 -56 -63 -139
-76 -184 -8 -25 -17 -49 -21 -55 -3 -5 -21 -44 -39 -85 -48 -114 -97 -222
-106 -238 -2 -2 -12 -1 -24 3 -18 6 -20 12 -16 48 3 23 12 47 20 53 9 6 16 20
16 31 0 11 7 26 15 33 9 7 14 19 11 27 -3 8 -1 11 4 8 6 -3 10 -3 11 2 3 32
11 57 24 69 8 9 15 24 15 33 0 10 7 25 16 32 9 7 19 20 23 29 31 75 125 240
133 232 5 -5 3 -20 -6 -38z m-331 -57 c-18 -40 -37 -85 -40 -100 -4 -15 -15
-43 -25 -63 -10 -20 -16 -42 -13 -50 3 -8 0 -14 -7 -14 -7 0 -10 -8 -7 -20 5
-21 -7 -28 -18 -10 -12 20 18 166 47 226 16 35 39 67 53 74 14 7 25 17 25 22
0 4 4 8 9 8 5 0 -5 -33 -24 -73z m115 24 c-12 -23 -18 -47 -14 -53 4 -6 0 -16
-9 -23 -33 -24 -146 -270 -147 -320 -1 -15 -6 -10 -20 17 l-20 37 35 60 c19
33 35 66 35 75 0 8 4 17 9 21 5 3 12 19 16 35 4 17 11 30 16 30 5 0 9 6 9 13
0 15 78 138 94 149 18 12 17 3 -4 -41z m-864 -42 c-41 -74 -52 -93 -62 -114
-6 -11 -19 -36 -28 -55 -10 -19 -36 -68 -58 -109 -22 -40 -46 -93 -53 -117
-12 -39 -11 -47 4 -65 16 -20 17 -20 30 33 14 60 63 161 96 198 12 14 27 39
34 55 6 17 22 42 34 57 12 14 29 36 37 49 20 30 62 76 58 64 -2 -5 -26 -57
-54 -115 -28 -58 -54 -118 -58 -134 -4 -16 -16 -41 -27 -54 -10 -14 -19 -32
-19 -41 0 -9 -7 -25 -15 -35 -8 -11 -15 -28 -15 -38 0 -10 -4 -18 -8 -18 -5 0
-14 -18 -21 -40 -6 -22 -18 -40 -26 -40 -19 0 -85 79 -87 104 -4 61 31 176 54
176 6 0 8 6 5 13 -3 7 4 24 14 38 10 13 19 30 19 37 0 7 4 11 9 7 5 -3 13 5
17 17 4 13 16 35 28 50 11 14 31 39 43 55 32 42 64 75 69 70 2 -2 -7 -24 -20
-48z m-131 -51 c-121 -223 -118 -220 -110 -148 8 64 36 134 68 169 18 19 75
61 84 61 2 0 -18 -37 -42 -82z m1284 19 c1 -11 -7 -21 -17 -24 -16 -4 -61
-108 -87 -203 -4 -14 -27 -64 -51 -112 -25 -49 -42 -88 -39 -88 14 0 -18 -42
-38 -49 -33 -13 -52 6 -31 30 9 10 13 23 9 28 -3 6 -1 11 4 11 6 0 11 7 11 15
0 8 4 15 9 15 5 0 12 16 15 35 4 19 12 35 19 35 7 0 20 20 31 43 10 23 26 60
36 82 10 22 39 85 65 140 39 82 49 96 56 80 4 -11 8 -28 8 -38z m-981 -14 c-8
-10 -19 -31 -22 -48 -4 -16 -25 -66 -46 -110 -51 -104 -150 -333 -150 -346 0
-5 -6 -9 -14 -9 -26 0 -46 12 -46 27 0 20 41 93 53 93 4 0 5 9 2 20 -5 14 -2
20 9 20 9 0 16 8 16 19 0 10 8 29 18 42 10 13 26 44 37 69 10 25 24 52 31 60
6 8 22 35 34 60 13 25 26 47 30 50 4 3 15 20 24 38 9 17 22 32 28 32 7 0 5 -7
-4 -17z m38 -146 c1 -12 -18 -62 -41 -112 -23 -49 -46 -101 -50 -114 -4 -14
-16 -38 -26 -55 -11 -17 -19 -41 -19 -54 0 -15 -9 -26 -26 -32 -37 -15 -42
-13 -36 15 2 14 8 25 13 25 5 0 9 9 9 20 0 25 35 92 44 83 3 -3 6 2 6 11 0 10
11 39 24 65 13 25 38 76 56 114 33 68 42 75 46 34z m933 -70 c-4 -30 -17 -73
-29 -98 -22 -43 -77 -109 -91 -109 -8 0 10 61 20 70 3 3 26 46 51 97 25 51 48
93 51 93 3 0 2 -24 -2 -53z m-956 -172 c-3 -9 -8 -14 -10 -11 -3 3 -2 9 2 15
9 16 15 13 8 -4z"/>
<path d="M4406 2365 c-15 -8 -36 -15 -45 -15 -9 0 -29 -11 -45 -25 -16 -14
-33 -25 -37 -25 -14 0 -88 -84 -89 -100 0 -8 -6 -27 -14 -42 -10 -18 -13 -57
-12 -125 2 -87 5 -105 33 -162 60 -120 115 -156 227 -146 102 9 185 33 228 66
20 16 42 29 47 29 6 0 11 7 11 15 0 9 10 34 21 57 18 35 21 54 16 117 -5 82
-40 201 -63 214 -8 4 -14 15 -14 22 0 8 -6 15 -14 15 -8 0 -17 7 -20 16 -3 8
-10 13 -15 9 -5 -3 -13 0 -17 6 -7 12 -74 44 -86 41 -5 -1 -8 7 -8 17 0 33
-55 41 -104 16z m64 -92 c0 -35 11 -52 41 -67 17 -8 28 -26 37 -61 14 -57 22
-264 10 -271 -5 -3 -6 -10 -2 -15 7 -12 -14 -39 -31 -39 -10 0 -13 31 -14 123
0 67 -5 137 -10 155 -5 18 -10 33 -10 35 0 4 -13 40 -37 101 -29 71 -28 66 -4
66 15 0 20 -7 20 -27z m-102 -25 c6 -7 11 -16 11 -20 1 -4 10 -28 21 -54 11
-25 20 -50 20 -55 0 -5 4 -9 9 -9 24 0 30 -144 8 -208 -14 -41 -14 -45 5 -64
11 -11 18 -21 16 -23 -8 -8 -67 -9 -67 -1 1 5 -4 12 -9 15 -5 3 -12 60 -15
127 -3 66 -11 132 -16 147 -20 51 -30 141 -17 149 16 11 22 10 34 -4z m-96
-95 c0 -16 1 -34 1 -40 -1 -7 3 -13 7 -13 12 0 32 -66 29 -97 -1 -16 1 -39 5
-53 4 -15 1 -39 -7 -58 l-13 -33 -27 49 c-33 61 -45 162 -26 226 15 52 28 60
31 19z m368 -9 c0 -8 4 -14 9 -14 11 0 21 -47 28 -128 4 -51 1 -68 -15 -94
l-20 -31 -6 29 c-3 16 -5 56 -5 89 2 57 -6 126 -18 170 -5 17 -4 18 11 6 9 -7
16 -20 16 -27z"/>
</g>
</svg>
