<?xml version="1.0" standalone="no"?>
<!DOCTYPE svg PUBLIC "-//W3C//DTD SVG 20010904//EN"
 "http://www.w3.org/TR/2001/REC-SVG-20010904/DTD/svg10.dtd">
<svg version="1.0" xmlns="http://www.w3.org/2000/svg"
 width="561.000000pt" height="461.000000pt" viewBox="0 0 561.000000 461.000000"
 preserveAspectRatio="xMidYMid meet">
<metadata>
Created by potrace 1.16, written by Peter Selinger 2001-2019
</metadata>
<g transform="translate(0.000000,461.000000) scale(0.100000,-0.100000)"
fill="#000000" stroke="none">
<path d="M4305 4355 c-58 -24 -71 -34 -107 -86 -12 -16 -20 -20 -25 -13 -16
24 -100 36 -236 35 -170 -1 -193 -9 -279 -96 -31 -32 -91 -149 -102 -200 -9
-44 -19 -201 -17 -268 1 -51 -1 -59 -21 -68 -75 -34 -148 -88 -148 -109 0 -8
-9 -10 -25 -6 -18 5 -27 1 -35 -14 -10 -18 -20 -21 -68 -20 -31 1 -79 -1 -107
-4 -73 -9 -643 -30 -735 -28 -25 1 -134 4 -242 7 -172 4 -198 3 -198 -10 0 -8
-6 -15 -14 -15 -28 0 -30 -41 -4 -66 23 -24 25 -24 73 -10 56 16 218 29 310
26 107 -5 325 -3 580 5 138 5 266 8 285 7 19 -1 52 -2 72 -2 l37 0 -1 -117
c-1 -161 11 -233 46 -262 33 -28 29 -32 -164 -156 -41 -27 -81 -53 -88 -59 -6
-6 -50 -40 -97 -76 -46 -36 -84 -70 -85 -76 0 -6 -13 -30 -30 -52 -39 -54 -95
-163 -115 -222 -14 -43 -15 -118 -2 -175 21 -88 51 -172 67 -185 4 -3 24 -34
45 -69 22 -35 55 -76 73 -90 41 -32 91 -101 117 -161 10 -25 30 -62 43 -84 31
-50 50 -104 61 -176 9 -52 7 -66 -19 -137 -16 -43 -39 -100 -53 -128 -13 -27
-27 -67 -30 -88 -3 -21 -21 -56 -40 -80 -19 -23 -44 -62 -55 -87 -12 -25 -40
-65 -63 -90 -150 -163 -185 -200 -195 -200 -7 0 -47 -31 -89 -70 -42 -38 -82
-70 -88 -70 -10 0 -251 -141 -307 -180 -14 -9 -42 -23 -62 -30 -21 -8 -38 -18
-38 -22 0 -4 -7 -8 -15 -8 -12 0 -16 12 -17 48 0 26 -2 110 -4 186 -2 77 -1
142 1 146 2 4 32 2 67 -5 49 -9 74 -9 111 1 26 7 47 10 47 8 0 -12 70 33 103
67 38 39 43 58 38 152 -3 37 -3 37 37 37 77 0 191 62 234 128 23 35 49 149 43
193 -13 111 -20 137 -48 193 -32 64 -53 88 -102 113 -39 20 -38 18 -27 40 78
150 62 307 -41 406 -34 33 -38 42 -33 70 16 84 17 116 6 186 -9 59 -20 86 -45
121 -42 57 -88 97 -108 94 -9 -1 -39 1 -69 5 -34 4 -67 2 -91 -6 -33 -12 -39
-11 -57 7 -11 11 -20 23 -20 28 -1 4 -23 25 -50 47 -27 22 -48 45 -46 50 2 6
-1 18 -6 28 -5 10 -11 68 -14 130 -2 62 -6 149 -8 194 -3 45 1 108 7 140 7 32
12 64 11 71 -1 6 -2 16 -3 21 0 5 -26 35 -56 66 -31 31 -67 73 -80 93 -13 21
-47 61 -74 91 -28 29 -51 57 -51 62 0 4 -12 21 -26 36 -38 40 -75 101 -86 141
-11 40 -53 86 -70 76 -6 -4 -17 1 -24 10 -10 15 -29 18 -111 17 -54 0 -140 -3
-191 -7 -97 -7 -388 -10 -457 -5 -50 4 -226 6 -365 4 -69 0 -108 3 -112 11 -6
8 -8 8 -8 0 0 -6 -21 -14 -48 -18 -30 -4 -51 -13 -59 -25 -31 -49 13 -83 86
-68 25 5 170 8 321 7 393 -4 408 -4 589 5 l163 8 -25 -40 c-14 -23 -24 -43
-21 -45 2 -3 -2 -11 -11 -18 -8 -7 -15 -17 -15 -23 0 -6 -6 -18 -14 -26 -8 -9
-25 -36 -39 -61 -44 -82 -81 -145 -87 -150 -10 -9 -60 -89 -60 -96 0 -4 -7
-15 -15 -24 -8 -9 -28 -41 -43 -71 l-27 -54 -270 0 c-310 0 -367 3 -412 21
-18 7 -33 9 -33 4 0 -6 -17 -18 -37 -27 -43 -20 -52 -46 -28 -73 16 -18 35
-19 344 -16 179 2 349 0 376 -3 47 -6 50 -8 52 -36 0 -16 4 -86 7 -155 3 -69
9 -168 12 -220 4 -52 6 -105 6 -117 0 -13 3 -23 7 -23 3 0 6 -21 6 -47 0 -27
2 -66 4 -88 1 -22 3 -59 2 -82 l-1 -43 -105 0 -105 0 5 23 c4 13 -1 53 -10 88
-12 47 -17 105 -17 215 1 83 2 155 3 160 1 5 -1 41 -6 79 -5 39 -9 77 -9 85
-1 12 -16 15 -71 16 -38 1 -107 4 -152 8 l-83 6 -17 -42 c-20 -49 -21 -88 -4
-168 17 -76 22 -192 9 -207 -7 -9 -7 -22 0 -41 5 -16 8 -53 5 -83 -3 -30 -5
-73 -5 -97 l-1 -42 -91 5 c-50 3 -118 8 -150 10 -74 5 -125 -20 -126 -64 0
-25 42 -53 70 -45 37 10 333 4 346 -7 6 -5 18 -7 25 -5 41 13 266 19 534 14 6
0 50 3 99 7 l89 7 -7 -28 c-4 -16 -8 -31 -9 -34 -3 -15 26 -116 43 -153 l20
-42 -42 -35 c-121 -98 -156 -156 -166 -276 -13 -140 25 -247 117 -331 20 -18
39 -33 42 -33 3 0 2 -32 -3 -72 -6 -56 -4 -79 8 -105 25 -51 69 -88 129 -107
l54 -17 -5 -43 c-8 -58 14 -94 74 -123 67 -32 125 -45 176 -38 l44 5 -4 -193
c-2 -106 -6 -211 -10 -234 -6 -37 -4 -43 19 -58 62 -40 81 1 61 135 -8 51 -12
95 -10 99 2 3 7 57 11 120 4 63 11 126 17 140 6 17 6 27 -1 29 -6 2 -8 14 -5
29 12 47 -39 58 -83 17 -24 -22 -34 -25 -68 -19 -61 9 -109 25 -134 44 -22 17
-23 20 -10 54 7 20 23 40 37 46 19 9 22 15 13 25 -6 7 -9 21 -5 30 9 23 -19
30 -79 18 -60 -12 -89 -1 -131 48 -33 39 -33 77 -1 121 13 19 30 45 36 59 31
69 45 89 91 131 46 42 50 49 43 77 -5 25 -12 32 -31 32 -38 0 -89 -40 -123
-96 -41 -69 -54 -79 -83 -63 -63 33 -115 140 -110 228 5 77 31 127 103 202 59
61 68 67 117 73 28 4 52 10 53 14 0 4 2 15 4 24 2 9 -3 22 -11 29 -8 6 -11 15
-8 20 6 11 -12 31 -43 47 -11 7 -30 31 -42 54 -18 38 -19 48 -8 89 11 42 80
139 99 139 5 0 17 9 28 20 11 11 28 20 37 20 10 1 33 9 52 19 32 17 38 17 78
4 24 -8 45 -19 49 -24 8 -14 34 -11 51 7 15 14 14 20 -6 70 -20 48 -22 59 -11
102 6 26 16 54 23 63 33 44 158 79 210 58 38 -14 98 -69 91 -81 -3 -4 2 -15
10 -24 9 -8 16 -21 16 -29 0 -16 22 -25 83 -31 31 -4 53 -1 64 7 20 18 39 21
98 20 45 -2 54 -6 88 -43 45 -50 61 -102 53 -177 -9 -94 -14 -104 -50 -97 -17
4 -50 16 -74 27 -48 24 -75 14 -69 -25 8 -42 20 -55 65 -70 29 -10 54 -27 66
-44 15 -22 24 -27 47 -24 41 6 94 -32 107 -78 13 -42 5 -127 -15 -175 -14 -36
-68 -105 -78 -101 -11 3 -45 -36 -45 -52 0 -16 40 -46 63 -47 12 -1 37 2 55 7
26 7 38 5 62 -12 35 -25 54 -57 80 -142 21 -67 19 -96 -12 -176 -24 -60 -82
-117 -137 -132 -53 -15 -117 -12 -131 5 -13 16 -67 11 -86 -9 -15 -14 -28 -57
-17 -54 14 5 73 -68 73 -90 0 -53 -13 -79 -52 -105 -55 -35 -116 -44 -169 -23
-23 9 -48 23 -55 31 -24 24 -81 30 -100 11 -18 -19 -19 -32 -10 -136 4 -41 8
-97 10 -125 2 -27 9 -72 15 -98 6 -27 9 -52 7 -56 -3 -4 -8 -35 -12 -69 -6
-59 -5 -62 20 -73 17 -8 26 -20 26 -34 0 -30 34 -39 72 -19 15 8 28 18 28 22
0 4 13 13 29 20 16 7 58 39 92 70 61 56 105 82 139 82 9 0 30 11 46 25 16 14
67 51 114 83 46 31 102 74 124 94 21 21 42 38 47 38 13 0 177 169 184 190 4
11 10 20 14 20 5 0 15 14 22 32 12 29 20 40 64 89 8 9 15 21 15 27 0 7 4 12 8
12 4 0 14 17 21 37 8 20 21 45 31 55 9 10 25 44 35 76 10 31 28 77 40 102 74
147 67 285 -23 470 -56 115 -95 172 -155 223 -31 26 -67 67 -81 90 -50 84 -79
143 -89 177 -15 56 -17 162 -2 190 7 14 20 41 29 60 47 100 82 149 162 226 47
46 107 93 133 106 25 12 52 28 59 35 7 7 19 13 25 13 7 0 28 14 47 30 19 16
40 30 46 30 7 0 26 14 44 30 18 17 43 30 57 30 14 0 31 6 37 14 6 8 28 17 50
21 37 6 38 5 32 -17 -4 -13 -10 -48 -15 -79 -7 -53 -11 -60 -82 -130 -41 -41
-81 -90 -88 -109 -8 -19 -24 -46 -36 -60 -37 -42 -55 -185 -40 -310 8 -65 65
-180 89 -180 4 0 20 -14 36 -30 16 -17 33 -30 39 -30 5 0 11 -7 15 -15 3 -8
12 -15 21 -15 8 0 15 -4 15 -9 0 -5 8 -11 18 -14 17 -6 72 -37 82 -47 3 -3 32
-25 65 -50 55 -41 98 -83 274 -266 96 -100 116 -166 115 -389 0 -79 -27 -206
-48 -234 -6 -8 -11 -21 -12 -30 -1 -20 -43 -123 -74 -182 -69 -132 -108 -200
-129 -225 -14 -17 -48 -62 -74 -100 -95 -137 -214 -274 -262 -302 -24 -15 -31
-26 -33 -55 -2 -31 1 -37 17 -37 11 0 23 -4 26 -10 14 -22 44 -8 83 39 23 27
42 52 42 56 0 3 14 20 31 38 17 18 51 59 75 92 37 50 84 111 134 172 6 7 10
17 10 22 0 6 8 20 18 31 36 43 185 332 215 420 57 165 78 252 73 303 -3 28 -8
88 -11 132 -6 90 -14 135 -25 150 -4 6 -15 36 -24 68 -9 31 -21 57 -26 57 -6
0 -10 7 -10 15 0 8 -4 14 -9 13 -4 -2 -25 17 -45 41 -20 24 -49 56 -64 71 -15
15 -63 64 -106 108 -44 45 -85 82 -92 82 -7 0 -17 6 -21 13 -4 8 -33 27 -63
43 -30 16 -57 32 -60 35 -3 3 -15 12 -28 18 -13 7 -33 20 -44 29 -108 87 -151
154 -151 237 0 82 24 187 50 218 13 16 23 33 23 39 0 15 119 128 135 128 7 0
15 5 17 10 2 6 18 2 39 -9 49 -26 135 -51 179 -51 55 0 152 29 177 52 27 25
33 22 38 -23 3 -19 8 -47 11 -64 17 -75 -5 -207 -47 -280 -32 -56 -62 -91
-114 -131 -39 -30 -43 -46 -17 -73 37 -39 56 -34 103 29 15 19 38 47 52 62 14
15 31 44 38 65 6 21 15 40 19 43 4 3 17 36 29 74 19 63 21 85 16 215 -4 80 -8
162 -11 181 -4 35 -26 60 -51 60 -27 0 -83 -29 -83 -43 0 -22 -33 -46 -89 -67
-53 -19 -124 -16 -181 8 -26 11 -60 45 -60 61 0 5 -7 11 -15 15 -23 8 -18 33
14 80 29 41 130 126 151 126 9 0 15 35 10 70 -5 41 -68 53 -100 18 -22 -24
-126 -68 -175 -73 -40 -5 -95 13 -116 39 -24 29 -41 117 -34 173 3 26 8 62 10
79 7 53 11 60 75 141 23 30 88 56 119 48 42 -10 73 -8 99 8 16 11 7 47 -30
122 -73 146 -13 408 108 471 77 40 278 58 332 30 19 -10 33 -31 46 -68 10 -29
21 -47 23 -40 3 6 10 12 17 12 19 0 46 34 46 57 0 32 83 103 122 105 69 3 113
-12 156 -52 12 -11 22 -17 22 -13 0 13 47 -62 64 -101 8 -20 16 -51 17 -69 1
-33 -27 -95 -60 -131 -45 -49 -23 -126 32 -112 67 16 176 -53 210 -134 27 -68
2 -225 -46 -277 -22 -25 -26 -91 -6 -103 27 -18 54 -4 75 37 19 36 24 40 34
28 7 -8 17 -15 23 -15 22 0 62 -71 58 -104 -2 -10 -14 -52 -27 -93 -27 -82
-52 -113 -129 -162 -53 -34 -114 -41 -174 -20 -24 9 -35 8 -47 -2 -19 -16 -14
-76 10 -110 21 -31 21 -36 -9 -55 -64 -42 -195 -18 -207 37 -7 32 -89 61 -104
37 -12 -19 -6 -294 8 -342 6 -22 12 -44 12 -48 1 -3 4 -10 9 -14 4 -4 7 -20 7
-35 0 -15 7 -35 16 -43 8 -9 13 -16 10 -16 -8 0 94 -100 125 -122 13 -10 38
-18 57 -18 29 0 33 3 31 23 -2 12 0 27 4 34 12 20 -4 42 -39 53 -77 26 -181
238 -166 338 3 22 42 33 42 12 0 -5 10 -10 23 -10 13 0 28 -5 34 -11 6 -6 36
-10 67 -10 50 0 65 4 113 38 60 41 73 63 73 124 0 21 3 38 8 37 31 -8 131 29
167 63 11 10 37 33 59 51 61 51 106 167 111 288 5 91 -3 109 -63 152 -23 16
-22 16 50 22 140 12 466 10 487 -4 19 -11 43 2 65 34 13 21 14 30 4 53 -16 36
-28 44 -49 33 -9 -5 -19 -7 -22 -4 -3 3 -11 2 -18 -2 -7 -4 -42 -10 -78 -12
-64 -5 -448 -7 -483 -3 -14 2 -18 13 -19 54 -3 137 -33 205 -124 278 -33 27
-65 49 -71 49 -20 0 -24 28 -10 62 21 53 19 119 -4 189 -39 114 -131 198 -241
220 -33 6 -59 16 -59 20 0 13 -9 11 -75 -16z m-2741 -711 c3 -9 6 -22 6 -30 0
-14 40 -81 68 -114 26 -31 82 -110 77 -110 -6 0 79 -94 131 -145 70 -70 75
-82 79 -223 2 -70 7 -182 10 -248 6 -129 -3 -178 -30 -168 -8 3 -15 2 -15 -3
0 -5 -6 -10 -12 -11 -49 -4 -98 -16 -98 -23 0 -5 -7 -9 -15 -9 -8 0 -15 -4
-15 -10 0 -5 -6 -10 -13 -10 -29 0 -72 -87 -92 -184 -3 -15 -8 -26 -11 -23 -9
8 -105 -22 -144 -46 -19 -12 -41 -29 -48 -40 -8 -10 -21 -17 -30 -16 -32 3
-41 -1 -47 -22 -5 -14 -13 -19 -25 -16 -10 3 -43 -3 -72 -12 -63 -21 -138 -27
-138 -11 0 6 5 8 12 4 8 -5 9 23 4 112 -9 159 -14 225 -20 249 -6 23 -20 210
-19 240 0 11 2 66 3 123 2 59 7 102 12 102 7 0 7 5 1 13 -5 6 -9 17 -8 22 3
29 31 93 65 148 22 34 49 80 61 102 11 22 34 59 50 83 16 24 29 45 29 49 0 3
14 25 30 50 17 24 30 46 30 48 0 7 46 72 61 88 28 28 61 40 69 27 6 -10 12 -7
21 9 16 25 25 27 33 5z"/>
<path d="M1471 3418 c-5 -13 -11 -52 -14 -88 -4 -36 -9 -75 -13 -87 -12 -44
72 -101 103 -70 4 5 6 34 5 67 -1 32 2 78 7 102 8 33 7 46 -5 59 -7 8 -14 21
-14 27 0 7 -14 12 -30 12 -22 0 -33 -6 -39 -22z"/>
<path d="M1777 3028 l-27 -10 1 -98 c0 -55 -2 -103 -5 -109 -4 -5 -4 -27 0
-49 5 -31 12 -41 37 -50 29 -11 34 -10 49 10 11 14 16 31 12 43 -7 27 -5 101
5 148 10 42 -1 106 -21 118 -15 10 -15 10 -51 -3z"/>
<path d="M1243 2984 c-16 -40 -2 -212 21 -266 19 -44 37 -47 72 -15 24 22 24
24 10 72 -8 28 -13 75 -12 105 2 57 -17 110 -40 110 -7 0 -19 3 -28 6 -10 4
-19 -1 -23 -12z"/>
<path d="M1507 2970 c-12 -17 -12 -28 -1 -72 12 -44 12 -56 -1 -81 -14 -27
-13 -32 1 -48 9 -10 13 -22 10 -28 -8 -12 25 -31 53 -31 39 0 51 36 39 125
-15 116 -28 149 -60 153 -17 2 -31 -4 -41 -18z"/>
<path d="M5189 2494 c-8 -10 -9 -36 -5 -85 9 -83 14 -99 31 -99 17 0 32 50 38
122 3 55 3 58 -24 67 -21 7 -31 6 -40 -5z"/>
<path d="M5317 2493 c-13 -15 -14 -27 -5 -68 5 -27 12 -60 14 -72 7 -38 34
-26 55 23 18 40 19 50 8 77 -12 29 -35 56 -50 57 -3 0 -13 -8 -22 -17z"/>
<path d="M4582 2478 c-14 -14 -16 -54 -2 -63 5 -3 17 -32 25 -63 20 -71 53
-142 67 -142 20 0 -9 216 -33 247 -27 35 -39 39 -57 21z"/>
<path d="M5029 2469 c-6 -12 -8 -33 -5 -48 4 -14 9 -42 12 -61 3 -19 11 -41
18 -49 12 -11 16 -10 25 7 18 34 25 107 12 130 -6 12 -20 26 -31 32 -15 8 -21
6 -31 -11z"/>
<path d="M4772 2463 c-10 -20 8 -166 22 -180 28 -28 59 122 35 166 -18 32 -45
38 -57 14z"/>
<path d="M4894 2465 c-16 -40 26 -149 54 -143 14 3 17 15 16 65 0 34 -7 69
-14 78 -16 19 -49 19 -56 0z"/>
<path d="M1454 402 c-13 -9 -17 -179 -4 -187 17 -11 60 93 60 146 0 39 -28 60
-56 41z"/>
<path d="M1549 369 c-8 -15 -8 -33 0 -63 5 -22 13 -58 16 -78 6 -40 28 -51 39
-21 4 9 9 44 12 79 5 54 3 65 -15 83 -26 26 -37 26 -52 0z"/>
<path d="M705 354 c-27 -42 -18 -158 13 -178 26 -16 41 6 42 62 0 32 1 75 3
97 2 34 -1 40 -19 43 -14 2 -27 -6 -39 -24z"/>
<path d="M1294 353 c-4 -16 -2 -34 7 -47 7 -12 16 -46 19 -76 7 -72 30 -75 47
-6 16 63 10 126 -13 143 -29 21 -53 16 -60 -14z"/>
<path d="M497 345 c-23 -16 -21 -41 3 -76 12 -15 27 -45 34 -66 7 -21 18 -38
25 -37 6 1 18 2 26 3 17 1 15 18 -13 113 -18 63 -45 85 -75 63z"/>
<path d="M928 338 c-8 -7 -25 -42 -36 -78 -19 -58 -19 -67 -6 -80 14 -13 18
-12 40 15 39 47 55 84 52 118 -3 35 -24 45 -50 25z"/>
<path d="M1663 298 c-9 -13 -9 -31 1 -127 5 -56 19 -70 40 -39 20 31 31 145
15 164 -14 17 -43 18 -56 2z"/>
<path d="M1006 281 c-24 -27 -19 -144 7 -149 28 -6 64 90 58 156 -2 19 -46 14
-65 -7z"/>
</g>
</svg>
