<?xml version="1.0" standalone="no"?>
<!DOCTYPE svg PUBLIC "-//W3C//DTD SVG 20010904//EN"
 "http://www.w3.org/TR/2001/REC-SVG-20010904/DTD/svg10.dtd">
<svg version="1.0" xmlns="http://www.w3.org/2000/svg"
 width="535.000000pt" height="403.000000pt" viewBox="0 0 535.000000 403.000000"
 preserveAspectRatio="xMidYMid meet">
<metadata>
Created by potrace 1.16, written by Peter Selinger 2001-2019
</metadata>
<g transform="translate(0.000000,403.000000) scale(0.100000,-0.100000)"
fill="#000000" stroke="none">
<path d="M3508 3565 c-3 -4 -48 -9 -99 -12 -52 -3 -114 -12 -139 -20 -60 -21
-149 -43 -182 -47 -16 -1 -36 -10 -46 -19 -10 -10 -25 -17 -33 -17 -8 0 -19
-4 -25 -9 -5 -4 -42 -21 -81 -36 -40 -14 -73 -30 -73 -33 0 -4 -20 -15 -45
-26 -25 -10 -60 -28 -79 -41 -18 -12 -49 -28 -69 -34 -19 -7 -38 -19 -41 -27
-3 -8 -19 -20 -34 -27 -27 -11 -78 -51 -154 -119 -18 -16 -46 -39 -62 -51 -16
-12 -61 -53 -100 -92 -40 -38 -94 -91 -121 -116 -56 -52 -166 -173 -207 -229
-15 -20 -42 -44 -60 -54 -18 -10 -47 -40 -63 -67 -17 -27 -52 -80 -79 -117
-26 -37 -62 -96 -79 -132 -17 -36 -44 -87 -60 -113 -16 -27 -38 -74 -48 -106
-9 -32 -27 -78 -38 -102 -11 -24 -35 -89 -54 -144 -19 -55 -47 -131 -61 -170
-51 -130 -144 -429 -171 -545 -14 -63 -32 -142 -40 -175 -8 -33 -23 -107 -34
-165 -11 -58 -27 -145 -37 -195 -10 -49 -18 -101 -19 -115 -2 -24 -5 -25 -54
-23 -29 2 -62 -2 -72 -8 -10 -5 -19 -6 -19 -2 0 7 -125 9 -155 3 -5 -1 -12 -1
-15 0 -3 1 -125 3 -272 5 l-267 2 -26 -27 c-28 -29 -25 -60 4 -60 10 0 26 -8
37 -17 17 -16 40 -20 69 -12 34 9 1333 12 2045 5 327 -4 600 -6 605 -6 18 0
100 7 108 9 15 2 6 29 -15 44 -19 13 -20 16 -5 16 10 1 17 9 17 19 0 29 -11
33 -38 16 -23 -15 -26 -15 -37 0 -7 8 -14 14 -16 11 -10 -10 -549 -10 -553 0
-3 6 -5 2 -5 -8 -1 -14 -5 -16 -18 -9 -10 5 -87 10 -171 10 -85 0 -156 3 -159
6 -4 3 -13 0 -21 -7 -9 -6 -13 -7 -10 -2 4 6 -42 10 -130 9 -75 -1 -160 2
-189 5 -29 4 -55 5 -58 3 -3 -3 -111 -6 -241 -6 l-236 -1 7 50 c4 27 9 68 12
89 2 22 8 47 13 57 5 9 7 18 5 21 -4 4 24 145 80 408 17 81 38 148 140 450 37
107 75 222 86 255 22 65 25 73 59 155 12 30 32 82 45 115 25 68 50 123 64 145
6 8 41 67 79 131 38 64 78 126 89 138 11 12 26 34 34 49 8 15 22 36 32 46 9
11 17 23 17 28 0 4 17 19 38 32 53 34 121 102 132 131 5 14 13 24 18 23 4 -2
54 42 109 97 56 55 107 105 114 111 8 6 31 29 51 50 20 21 53 50 73 64 20 14
42 30 48 35 7 6 35 25 62 42 28 18 55 36 61 40 16 12 44 29 104 64 30 18 64
39 74 48 11 9 16 10 12 4 -4 -7 -3 -13 2 -13 6 0 12 7 16 15 3 8 11 15 19 15
7 0 30 9 52 20 22 11 44 20 49 20 5 0 17 6 25 14 9 7 72 31 141 54 103 33 152
43 283 56 88 9 162 14 167 11 4 -3 50 -7 101 -10 110 -6 143 -12 184 -30 17
-7 46 -16 66 -19 52 -8 65 -14 103 -50 18 -17 72 -60 119 -94 48 -35 87 -68
87 -73 0 -5 9 -9 21 -9 11 0 18 -4 15 -8 -3 -4 13 -25 35 -46 21 -21 39 -43
39 -47 0 -5 6 -9 13 -9 11 -1 27 -20 102 -126 17 -23 40 -54 53 -68 12 -15 22
-30 22 -35 0 -11 52 -137 82 -200 17 -37 19 -49 10 -75 -9 -25 -7 -45 9 -101
36 -131 64 -325 47 -325 -6 0 -8 9 -5 19 11 45 -43 65 -69 26 -8 -13 -28 -25
-44 -28 -29 -6 -130 -63 -141 -80 -4 -5 -11 -7 -17 -3 -5 3 -22 -5 -38 -19
-19 -16 -32 -21 -40 -14 -21 18 -46 -1 -42 -32 3 -16 1 -29 -4 -29 -4 0 -8 -7
-8 -15 0 -8 -6 -15 -14 -15 -8 0 -28 -22 -46 -49 -53 -83 -55 -84 -115 -16
-51 58 -52 60 -36 85 8 14 19 28 24 31 4 3 21 44 37 90 24 70 29 100 29 179 0
52 -4 113 -9 135 -5 22 -12 60 -15 85 -4 24 -9 48 -11 52 -3 4 0 16 5 27 23
42 -62 215 -151 309 -95 99 -120 111 -241 114 -72 2 -80 0 -122 -30 -25 -18
-52 -32 -59 -32 -7 0 -25 -9 -39 -20 -14 -11 -30 -20 -36 -20 -6 0 -11 -5 -11
-10 0 -6 -8 -14 -17 -17 -48 -17 -91 -88 -134 -217 -10 -33 -29 -70 -40 -82
-16 -17 -20 -30 -15 -51 3 -15 9 -39 12 -53 28 -131 123 -324 200 -406 42 -45
206 -141 267 -157 55 -14 148 -16 184 -4 17 6 30 -1 67 -38 25 -25 46 -52 46
-60 0 -8 3 -15 8 -15 4 0 15 -7 25 -14 18 -14 18 -16 1 -48 -9 -18 -33 -53
-53 -77 -20 -25 -41 -52 -47 -60 -10 -13 -15 -13 -27 -2 -9 7 -24 10 -34 7
-10 -3 -45 -8 -78 -11 -33 -4 -87 -13 -120 -20 -33 -7 -86 -16 -119 -19 -32
-4 -66 -11 -76 -16 -10 -5 -37 -12 -59 -15 -23 -3 -51 -10 -62 -16 -12 -6 -23
-8 -26 -5 -3 2 -15 1 -27 -4 -13 -4 -40 -11 -60 -14 -21 -4 -43 -9 -48 -12 -5
-3 -20 -7 -34 -9 -26 -2 -58 26 -254 228 -41 42 -78 77 -82 77 -4 0 -22 15
-40 33 -18 17 -49 45 -68 61 -45 37 -147 126 -171 149 -11 9 -23 17 -27 17 -5
0 -14 11 -20 25 -6 13 -29 33 -52 45 -22 11 -40 25 -40 30 0 6 -9 10 -20 10
-11 0 -20 -4 -20 -10 0 -5 -9 -19 -19 -29 -18 -18 -19 -61 -2 -61 4 0 22 -14
40 -31 19 -17 59 -49 90 -71 31 -22 65 -50 77 -62 12 -11 59 -55 104 -96 46
-41 92 -83 102 -92 10 -10 20 -18 23 -18 13 0 105 -89 105 -103 0 -10 202
-209 228 -224 16 -10 37 -6 118 22 55 18 127 36 162 40 34 4 62 11 62 15 0 4
21 11 46 15 25 3 56 9 67 11 12 3 34 7 48 8 14 2 31 6 37 10 6 4 42 11 79 16
37 5 84 12 104 15 39 6 27 17 237 -210 35 -38 119 -126 186 -195 67 -69 140
-147 161 -175 22 -27 77 -88 123 -134 45 -47 82 -90 82 -96 0 -7 19 -17 41
-24 l42 -13 -7 -110 c-3 -61 -9 -114 -12 -117 -3 -3 -164 -7 -357 -9 -374 -2
-367 -1 -367 -52 0 -44 14 -54 72 -53 161 4 551 3 598 -2 89 -8 271 -17 320
-15 144 5 210 4 212 -2 5 -12 39 19 43 40 2 10 -4 31 -13 46 -16 26 -22 28
-117 33 -55 3 -139 6 -187 7 l-88 1 -1 185 c-1 102 -3 205 -4 230 -2 25 -6
216 -9 425 -6 442 -12 574 -31 743 -8 68 -14 126 -13 130 3 11 -12 141 -22
197 -5 28 -11 70 -14 95 -3 25 -12 68 -19 96 -9 34 -10 58 -4 72 12 26 -9 100
-64 223 -22 48 -39 89 -39 93 0 3 -29 50 -64 103 -94 142 -198 256 -327 358
-63 50 -119 101 -119 110 0 4 802 -2 827 -6 36 -6 43 2 43 49 0 70 -9 74 -208
72 -351 -4 -625 -3 -1008 5 -148 3 -273 3 -276 0z m312 -700 c8 -2 22 -4 30
-4 27 -2 125 -108 155 -168 22 -43 30 -74 31 -118 1 -33 7 -91 14 -130 14 -85
15 -276 1 -302 -5 -10 -13 -31 -16 -48 -4 -16 -24 -46 -45 -66 -31 -30 -48
-38 -95 -44 -117 -14 -225 32 -358 153 -28 26 -70 82 -84 112 -42 94 -64 160
-74 219 -9 58 -8 66 10 85 10 12 24 38 29 59 17 63 35 95 59 106 13 6 26 18
29 26 4 8 12 15 19 15 8 0 20 6 27 14 8 7 28 21 46 30 18 9 32 20 32 24 0 19
126 54 160 44 8 -2 22 -5 30 -7z m895 -813 c1 -10 4 -46 8 -82 13 -105 15
-150 8 -150 -4 0 -26 18 -50 40 -23 22 -71 58 -106 81 -35 23 -61 47 -59 53 5
12 76 46 97 46 8 0 17 3 21 7 10 10 70 30 76 25 3 -2 5 -11 5 -20z m-251 -157
c15 -14 29 -25 30 -25 7 0 71 -55 130 -112 46 -45 66 -58 90 -58 l31 0 3 -72
c1 -40 5 -255 7 -477 l5 -403 -27 18 c-55 36 -126 104 -328 319 -77 82 -170
180 -207 219 -51 53 -66 76 -62 91 3 12 2 15 -3 8 -9 -12 -58 27 -80 64 -10
18 -8 24 12 43 13 12 29 35 35 51 7 16 16 29 21 29 4 0 10 8 14 18 3 9 24 38
48 63 23 25 71 79 107 119 36 40 70 77 75 82 35 28 61 47 66 48 3 0 18 -11 33
-25z"/>
</g>
</svg>
