<?xml version="1.0" standalone="no"?>
<!DOCTYPE svg PUBLIC "-//W3C//DTD SVG 20010904//EN"
 "http://www.w3.org/TR/2001/REC-SVG-20010904/DTD/svg10.dtd">
<svg version="1.0" xmlns="http://www.w3.org/2000/svg"
 width="561.000000pt" height="421.000000pt" viewBox="0 0 561.000000 421.000000"
 preserveAspectRatio="xMidYMid meet">
<metadata>
Created by potrace 1.16, written by Peter Selinger 2001-2019
</metadata>
<g transform="translate(0.000000,421.000000) scale(0.100000,-0.100000)"
fill="#000000" stroke="none">
<path d="M3955 4152 c-22 -5 -55 -31 -52 -41 1 -3 -27 -33 -62 -66 -67 -63
-125 -123 -159 -165 -21 -26 -21 -26 -104 16 -14 8 -35 14 -46 14 -12 0 -24 5
-27 10 -12 20 -44 9 -84 -26 -22 -21 -51 -42 -63 -48 -27 -14 -71 -101 -63
-125 3 -10 32 -31 65 -48 l59 -30 -59 -54 c-96 -88 -122 -109 -134 -109 -20 0
-101 31 -116 45 -39 34 -90 23 -129 -27 -11 -13 -40 -35 -65 -49 -55 -28 -60
-40 -44 -88 16 -46 30 -57 99 -78 l56 -17 -36 -39 c-51 -56 -151 -151 -162
-155 -5 -2 -21 5 -36 15 -16 11 -48 25 -73 33 -25 7 -52 20 -61 27 -30 25 -59
14 -112 -40 -29 -29 -71 -67 -94 -86 -24 -18 -43 -40 -43 -50 0 -29 27 -57 68
-69 22 -7 56 -19 76 -27 32 -14 35 -18 26 -35 -6 -11 -16 -20 -22 -20 -6 0
-27 -15 -46 -32 -19 -18 -46 -43 -59 -55 -13 -13 -27 -23 -30 -23 -4 0 -30
-16 -58 -36 l-52 -36 -74 36 c-54 25 -90 35 -132 37 -54 2 -59 0 -93 -35 -20
-20 -59 -55 -88 -77 -97 -74 -117 -99 -113 -143 5 -44 10 -48 94 -77 35 -11
63 -24 63 -27 0 -11 -81 -86 -115 -108 -16 -10 -38 -25 -47 -33 -27 -23 -64
-21 -144 5 -41 13 -83 24 -94 24 -10 0 -22 5 -25 10 -14 23 -66 10 -103 -25
-72 -68 -108 -97 -174 -142 -52 -34 -68 -50 -68 -68 0 -30 19 -40 89 -49 64
-8 119 -30 136 -52 10 -14 -1 -28 -69 -93 -45 -42 -88 -83 -96 -92 -8 -9 -37
-33 -63 -54 -40 -32 -56 -38 -88 -36 -22 1 -52 7 -67 12 -48 19 -132 39 -163
39 -25 0 -32 -6 -45 -40 -9 -22 -22 -40 -29 -40 -8 0 -16 -8 -19 -17 -3 -10
-22 -29 -42 -43 -47 -31 -154 -136 -154 -150 0 -22 27 -40 90 -60 36 -11 74
-27 84 -35 19 -14 19 -15 -6 -35 -14 -10 -41 -34 -59 -52 -19 -18 -50 -45 -69
-59 -19 -15 -57 -47 -83 -73 -27 -25 -53 -46 -58 -46 -5 0 -9 -9 -9 -19 0 -11
-8 -22 -17 -25 -10 -3 -38 -24 -63 -46 -25 -22 -60 -50 -77 -63 -18 -12 -33
-26 -34 -32 0 -5 -20 -26 -44 -45 -70 -56 -71 -131 -2 -130 25 1 38 9 62 40
17 22 37 42 45 45 21 7 110 91 110 104 0 9 88 75 131 96 10 5 19 18 19 29 0
17 172 196 189 196 4 0 34 26 67 58 33 31 83 76 111 99 28 24 80 71 116 105
36 35 109 104 162 153 54 50 102 95 109 101 6 5 83 70 171 143 88 74 169 142
180 152 54 50 95 84 145 122 30 22 63 47 72 56 123 116 228 209 318 280 30 24
62 51 70 60 8 9 44 37 80 64 36 26 70 50 75 55 31 22 135 113 171 147 76 74
166 155 174 155 8 0 317 314 370 377 14 16 30 32 36 34 7 2 38 28 70 56 140
124 198 172 203 167 3 -3 -22 -32 -56 -64 -35 -32 -63 -63 -63 -68 0 -5 -16
-24 -35 -41 -19 -17 -35 -34 -35 -38 0 -10 -186 -200 -283 -288 -176 -161
-239 -219 -322 -302 -51 -51 -95 -96 -97 -100 -1 -4 -28 -28 -58 -53 -30 -25
-64 -56 -75 -70 -11 -14 -38 -41 -60 -60 -86 -76 -161 -148 -209 -199 -28 -30
-121 -122 -206 -205 -85 -83 -196 -193 -247 -243 -52 -51 -98 -93 -102 -93 -5
0 -21 -13 -34 -30 -14 -16 -28 -30 -30 -30 -2 0 -40 -34 -83 -75 -43 -41 -87
-77 -96 -81 -10 -3 -18 -10 -18 -15 0 -5 -48 -56 -107 -112 -58 -56 -139 -133
-178 -172 -73 -71 -83 -80 -170 -150 -27 -22 -54 -46 -59 -53 -4 -8 -20 -24
-34 -35 -15 -12 -71 -66 -125 -119 -55 -54 -105 -98 -113 -98 -8 0 -14 -4 -14
-10 0 -5 -17 -21 -38 -34 -21 -13 -52 -37 -68 -53 -16 -16 -41 -37 -55 -48
-14 -11 -34 -33 -44 -48 -41 -63 38 -108 97 -54 65 58 103 89 121 99 33 17
107 90 107 104 0 8 21 28 47 44 26 17 43 30 38 30 -4 0 3 11 16 24 13 14 35
37 49 51 22 24 161 146 265 233 38 32 72 40 91 23 5 -5 34 -16 64 -26 30 -10
60 -21 65 -25 6 -5 28 -12 50 -16 22 -4 42 -10 45 -13 7 -8 126 -57 214 -87
39 -13 74 -28 80 -34 5 -5 19 -10 29 -10 17 0 90 -24 287 -92 135 -48 220 -89
220 -107 0 -8 -35 -52 -80 -100 -19 -21 -51 -58 -70 -82 -19 -24 -37 -45 -41
-47 -15 -7 -54 -44 -54 -52 0 -5 -19 -27 -42 -50 -33 -31 -43 -48 -43 -73 0
-39 8 -52 38 -61 32 -10 59 1 69 28 7 22 59 86 128 160 17 17 48 54 70 81 22
28 47 56 56 62 9 7 29 33 43 58 15 25 44 62 64 83 62 62 130 145 163 198 17
27 35 51 39 54 4 3 27 33 51 66 83 116 204 275 279 367 41 51 93 121 114 157
42 70 98 145 128 172 10 9 56 66 101 126 45 60 103 133 128 163 39 46 69 90
132 193 7 11 26 36 44 55 31 36 80 101 128 173 13 20 31 40 39 45 7 4 29 31
47 58 74 112 198 272 309 399 25 28 71 85 102 126 31 41 66 81 78 88 11 7 20
17 20 23 0 6 10 24 23 39 12 15 29 37 37 49 8 12 41 49 73 82 31 33 57 62 57
64 0 14 57 95 67 95 7 0 13 5 13 11 0 6 16 34 35 63 48 73 46 90 -14 125 -21
11 -25 11 -33 -2 -5 -9 -14 -22 -22 -29 -7 -8 -17 -25 -21 -38 -4 -14 -19 -41
-34 -60 -14 -19 -33 -47 -40 -62 -8 -15 -24 -37 -36 -48 l-22 -21 -89 30 c-49
16 -109 41 -134 54 -25 14 -56 28 -69 32 -14 4 -49 24 -79 44 -30 20 -62 41
-71 46 -44 28 -91 68 -90 78 0 7 31 38 67 70 106 92 126 107 142 107 19 0 50
35 50 55 0 9 -7 31 -14 50 -23 55 -52 48 -137 -35 -40 -38 -76 -70 -81 -70 -4
0 -8 -7 -8 -15 0 -8 -5 -15 -10 -15 -6 0 -27 -16 -47 -35 -20 -19 -41 -35 -47
-35 -10 1 46 57 180 180 47 43 65 74 60 106 -3 23 -35 42 -61 36z m-417 -324
c23 -13 42 -26 42 -31 0 -4 -27 -35 -60 -69 -45 -46 -60 -56 -60 -41 0 16 -49
72 -57 65 -10 -8 -21 1 -17 13 4 8 10 15 15 15 5 0 23 15 41 34 18 19 38 35
43 35 6 1 29 -9 53 -21z m227 -18 c-3 -5 -31 -34 -62 -62 -31 -29 -71 -67 -88
-83 -49 -46 -105 -87 -105 -76 0 5 23 29 51 53 28 24 83 73 121 111 62 59 101
86 83 57z m50 -140 c3 -5 13 -10 21 -10 8 0 20 -5 27 -10 69 -58 322 -188 410
-211 23 -6 51 -17 62 -25 20 -15 19 -16 -14 -46 -25 -22 -40 -29 -60 -25 -36
7 -192 67 -216 83 -11 8 -29 14 -40 14 -12 0 -25 4 -31 9 -5 5 -25 18 -44 29
-46 25 -214 124 -219 128 -7 6 72 73 86 74 6 0 15 -4 18 -10z m-137 -135 c15
-8 43 -21 62 -29 35 -15 157 -81 175 -96 6 -4 28 -13 50 -20 22 -7 54 -20 70
-29 17 -9 57 -28 90 -41 33 -13 70 -30 82 -37 26 -17 20 -30 -47 -120 -24 -32
-46 -60 -47 -62 -3 -5 -39 6 -133 42 -72 27 -223 83 -315 117 -33 13 -67 28
-75 35 -8 7 -40 26 -70 42 -30 17 -56 35 -57 40 -2 6 8 21 23 34 14 13 43 40
64 59 40 37 93 80 98 80 2 0 16 -7 30 -15z m-580 -91 c19 -1 42 -10 50 -18 14
-14 12 -19 -24 -51 -21 -19 -47 -35 -57 -35 -35 0 -106 22 -110 35 -6 14 83
86 97 78 5 -3 25 -7 44 -9z m379 -165 c32 -18 63 -35 68 -39 6 -4 33 -15 60
-25 28 -10 69 -26 92 -36 24 -11 45 -19 47 -19 3 0 17 -5 33 -11 15 -7 69 -26
118 -44 50 -18 107 -40 128 -49 l38 -17 -30 -30 c-17 -16 -38 -43 -48 -60 -10
-16 -22 -27 -28 -25 -5 3 -41 14 -80 26 -176 54 -565 216 -581 243 -3 4 9 21
26 39 17 17 38 42 47 55 20 31 40 29 110 -8z m-77 -217 c36 -16 99 -42 140
-56 41 -15 93 -35 115 -45 99 -45 114 -51 132 -51 10 0 23 -4 29 -9 5 -5 26
-14 46 -21 l38 -12 -27 -46 c-14 -26 -42 -64 -62 -85 -33 -36 -39 -38 -76 -32
-22 4 -55 9 -73 11 -18 2 -66 16 -105 30 -40 14 -105 36 -145 50 -41 13 -87
31 -102 39 -16 8 -37 15 -47 15 -10 0 -49 21 -88 45 -38 25 -82 51 -96 57
l-27 12 57 58 c32 32 63 58 69 58 6 0 19 11 29 23 l17 24 56 -17 c30 -10 84
-31 120 -48z m-703 -9 c79 -22 83 -34 26 -78 -26 -20 -52 -43 -56 -51 -11 -20
-26 -18 -45 6 -11 13 -32 22 -55 23 -61 5 -63 19 -10 69 54 50 65 52 140 31z
m434 -214 c27 -16 84 -40 126 -55 43 -14 83 -30 88 -34 6 -4 33 -13 60 -20 28
-7 54 -17 59 -21 6 -5 17 -9 26 -9 9 0 32 -8 52 -19 20 -10 56 -21 80 -25 99
-15 129 -38 92 -68 -28 -24 -69 -66 -91 -96 -22 -29 -23 -29 -70 -17 -26 7
-61 18 -78 25 -62 25 -71 29 -110 40 -40 12 -163 63 -200 83 -32 17 -67 34
-120 57 -72 31 -147 69 -169 85 -18 13 -17 16 18 57 20 24 51 52 68 64 32 21
32 21 77 1 24 -10 66 -32 92 -48z m-274 -144 c29 -14 79 -37 111 -51 31 -14
98 -45 147 -69 116 -56 149 -70 265 -110 154 -54 175 -63 173 -74 -2 -6 -25
-38 -51 -71 -27 -33 -55 -72 -62 -87 -8 -15 -21 -39 -29 -52 -13 -21 -16 -22
-27 -7 -7 10 -37 21 -72 26 -65 11 -228 67 -306 106 -28 13 -58 24 -67 24 -10
0 -20 4 -23 9 -3 4 -27 16 -53 26 -89 32 -202 88 -197 96 3 5 -7 9 -21 9 -15
0 -35 5 -45 10 -14 8 -25 7 -40 -2 -36 -23 -24 -45 43 -77 103 -49 156 -71
170 -71 7 0 17 -4 23 -9 5 -5 34 -16 64 -26 30 -10 91 -32 135 -51 155 -63
230 -92 274 -104 24 -6 54 -15 67 -20 l24 -9 -35 -34 c-19 -19 -35 -38 -35
-43 0 -5 -12 -22 -25 -37 l-25 -28 -72 21 c-40 12 -82 25 -93 30 -90 40 -197
84 -230 95 -114 38 -264 93 -290 107 -16 8 -41 19 -55 23 -55 15 -129 49 -134
60 -2 7 12 23 32 36 20 13 41 34 47 47 5 12 15 22 22 22 7 0 29 20 50 45 20
25 42 45 48 45 6 0 30 19 52 43 23 23 49 49 58 57 10 8 39 39 65 68 26 28 51
52 55 52 5 0 32 -11 62 -25z m-655 -84 c14 -5 29 -15 33 -21 7 -11 -30 -50
-46 -50 -5 0 -41 -32 -81 -70 l-73 -70 -56 30 c-31 16 -64 30 -73 30 -25 0
-19 12 20 45 20 17 43 36 51 44 8 7 32 29 55 48 37 31 45 33 92 29 28 -2 63
-9 78 -15z m233 -417 c55 -20 120 -42 145 -50 25 -9 59 -21 75 -29 17 -7 50
-20 75 -28 68 -22 105 -36 220 -83 58 -23 135 -55 173 -70 37 -15 67 -29 67
-32 0 -3 -11 -17 -24 -31 -51 -54 -79 -87 -108 -128 -26 -39 -58 -57 -58 -34
0 5 -17 11 -38 15 -66 10 -324 95 -423 139 -30 13 -74 32 -99 41 -25 10 -54
22 -65 27 -11 5 -54 20 -95 35 -41 14 -98 37 -126 50 l-51 25 46 48 c25 26 65
69 89 94 53 58 64 58 197 11z m-762 -52 l47 -18 -23 -22 c-12 -12 -49 -43 -82
-69 -33 -26 -68 -55 -78 -64 -18 -16 -22 -15 -72 11 -29 15 -67 31 -84 35 -32
7 -52 26 -34 32 6 2 22 14 35 26 112 102 107 100 179 93 37 -4 87 -15 112 -24z
m507 -207 c58 -20 119 -40 135 -45 38 -10 192 -73 244 -99 22 -11 56 -25 78
-30 21 -5 83 -26 138 -46 55 -20 113 -41 129 -46 16 -4 37 -18 48 -29 18 -19
18 -21 -2 -57 -11 -21 -38 -58 -60 -82 l-41 -44 -52 20 c-29 12 -77 29 -107
38 -30 10 -98 38 -150 62 -100 47 -167 73 -265 103 -33 10 -87 27 -120 38 -33
11 -87 28 -120 37 -46 12 -131 44 -163 61 -11 6 18 39 57 65 25 17 61 49 79
70 26 30 37 36 50 29 9 -5 64 -26 122 -45z m-276 -204 c122 -43 201 -67 316
-97 58 -14 114 -32 125 -39 11 -6 36 -15 56 -19 21 -3 48 -15 62 -26 14 -11
30 -20 37 -20 6 0 44 -16 84 -35 40 -19 88 -38 107 -41 19 -4 42 -15 52 -25
10 -10 28 -21 42 -25 23 -6 23 -6 -23 -67 -26 -34 -49 -64 -52 -67 -3 -3 -15
-19 -25 -37 -37 -59 -106 -125 -124 -117 -9 3 -35 10 -58 15 -23 4 -59 17 -80
27 -38 19 -77 32 -213 73 -83 24 -143 47 -238 91 -66 30 -83 36 -227 87 -49
17 -102 38 -117 46 -14 8 -34 15 -45 15 -10 0 -27 7 -37 15 -19 14 -17 17 30
61 27 25 74 69 104 98 68 65 128 116 137 116 4 0 43 -13 87 -29z m-926 -132
c28 -5 58 -16 68 -24 18 -13 12 -21 -84 -115 -115 -114 -111 -113 -212 -69
l-50 22 61 56 c34 31 80 75 103 98 46 47 45 47 114 32z m566 -189 c45 -11 125
-36 177 -55 52 -20 112 -42 134 -49 51 -17 217 -86 230 -96 6 -4 26 -10 45
-14 19 -3 71 -20 115 -37 44 -17 94 -34 110 -38 17 -4 48 -17 70 -28 22 -11
56 -26 77 -32 36 -12 36 -12 21 -41 -8 -17 -20 -30 -27 -30 -6 0 -24 -19 -39
-42 -15 -24 -40 -56 -56 -71 -17 -15 -33 -36 -36 -47 -3 -10 -14 -20 -23 -22
-18 -4 -176 48 -249 82 -24 11 -56 20 -73 20 -16 0 -44 9 -62 20 -18 11 -41
20 -50 20 -10 0 -37 9 -60 19 -24 11 -70 28 -103 37 -68 20 -243 87 -360 139
-16 7 -56 23 -87 35 -32 12 -60 25 -63 30 -4 7 211 220 223 220 2 0 41 -9 86
-20z"/>
<path d="M4719 3616 c-23 -19 -79 -123 -79 -146 0 -5 -9 -14 -20 -20 -11 -6
-20 -17 -20 -24 0 -8 -7 -19 -15 -26 -8 -7 -32 -38 -53 -69 -21 -31 -67 -98
-103 -149 -35 -52 -73 -109 -84 -127 -36 -59 -207 -310 -225 -330 -10 -11 -30
-44 -45 -74 -15 -30 -33 -60 -40 -68 -7 -7 -34 -43 -59 -80 -25 -38 -63 -88
-86 -113 -22 -25 -52 -65 -67 -90 -15 -25 -31 -49 -35 -55 -5 -5 -17 -22 -26
-36 -52 -81 -79 -119 -111 -159 -21 -25 -61 -88 -91 -140 -48 -85 -98 -165
-151 -242 -11 -15 -19 -31 -19 -36 0 -5 -11 -19 -25 -32 -14 -13 -25 -27 -25
-32 0 -5 -20 -36 -45 -70 -25 -34 -45 -66 -45 -70 0 -4 -16 -30 -35 -57 -19
-26 -35 -51 -35 -54 0 -4 -31 -51 -70 -106 -38 -55 -70 -105 -70 -111 0 -6 -7
-13 -15 -16 -8 -3 -17 -15 -21 -26 -10 -32 -123 -194 -186 -268 -7 -8 -28 -40
-47 -70 -52 -84 -85 -134 -92 -140 -4 -3 -20 -27 -37 -54 -17 -27 -46 -65 -65
-85 -18 -20 -35 -40 -36 -46 -12 -36 -53 -83 -94 -109 -16 -9 -26 -23 -24 -29
2 -7 -3 -18 -10 -25 -16 -16 -8 -51 15 -69 19 -15 82 -17 82 -3 0 5 16 27 35
49 19 21 35 42 35 45 0 4 6 14 13 21 6 8 25 31 40 52 89 119 117 159 117 171
0 6 5 12 10 12 6 0 10 6 10 13 0 6 9 23 19 36 l18 23 49 -21 c27 -11 85 -30
129 -42 44 -12 99 -30 121 -41 32 -15 50 -17 75 -11 34 9 41 19 97 128 14 28
41 68 59 89 18 22 33 50 33 63 0 30 -42 73 -72 73 -13 0 -35 6 -50 14 -14 8
-43 19 -65 26 -21 7 -62 24 -91 37 l-53 24 23 37 c12 20 41 64 63 97 22 33 46
71 53 85 7 14 23 37 35 52 l22 28 111 -39 c61 -22 127 -49 148 -60 43 -25 84
-27 92 -6 4 9 13 13 23 10 12 -3 22 8 38 43 13 27 41 71 63 99 59 75 60 119 3
128 -21 3 -58 15 -83 25 -25 10 -58 21 -75 25 -16 3 -47 17 -67 31 -21 13 -42
24 -48 24 -18 0 -11 24 15 52 14 15 25 31 25 37 0 5 3 11 8 13 4 2 16 21 27
42 36 71 40 76 57 82 9 3 34 -3 55 -14 21 -10 67 -29 103 -41 36 -13 79 -30
97 -37 17 -8 38 -14 46 -14 15 0 44 29 39 39 -2 3 5 8 14 10 24 4 40 22 49 51
7 25 63 120 76 130 3 3 9 15 13 28 8 23 -4 33 -42 36 -36 4 -103 28 -154 54
-29 16 -64 31 -77 35 -13 3 -20 10 -16 16 3 6 1 11 -4 11 -16 0 -13 14 7 36
10 10 46 61 81 112 62 90 74 102 86 82 3 -5 18 -10 33 -10 15 0 52 -9 82 -20
30 -12 63 -23 73 -27 9 -3 17 -9 17 -13 0 -4 12 -12 26 -19 22 -10 30 -9 43 3
9 8 28 18 44 21 15 4 27 14 27 21 0 13 46 92 61 104 3 3 11 20 17 38 10 28 9
34 -6 38 -27 8 -200 97 -224 116 -20 15 -21 18 -8 35 8 10 24 35 34 55 10 20
26 45 35 55 9 10 22 30 30 46 8 15 18 27 23 27 5 0 41 -15 81 -34 85 -39 179
-69 204 -64 10 2 28 26 41 53 13 28 35 62 48 76 21 22 23 29 14 55 -9 26 -29
40 -120 85 -61 30 -110 57 -110 62 0 4 15 29 34 55 18 27 37 58 40 70 9 26 9
26 61 8 71 -25 135 -65 135 -83 0 -9 15 -13 44 -13 38 0 45 3 55 28 6 15 27
44 46 65 47 51 46 85 0 126 -20 17 -42 31 -50 31 -8 0 -34 10 -57 22 -24 13
-49 23 -56 25 -8 1 -16 4 -19 6 -7 7 16 47 27 47 5 0 16 15 25 33 8 18 25 43
38 57 13 14 23 28 23 31 -1 4 11 26 27 49 40 62 35 104 -13 113 -16 3 -34 -3
-51 -17z m-95 -391 c11 -8 31 -15 44 -15 13 0 36 -6 50 -14 15 -8 35 -17 44
-20 18 -5 14 -32 -9 -71 -12 -21 -8 -23 -121 34 -71 35 -78 45 -58 76 19 29
24 30 50 10z m-220 -354 c3 -5 22 -12 41 -15 19 -4 35 -11 35 -16 0 -6 9 -10
20 -10 26 0 54 -43 45 -69 -11 -36 -34 -52 -56 -41 -11 6 -24 8 -30 4 -13 -8
-159 64 -159 79 0 5 11 25 26 44 24 32 65 45 78 24z m-314 -428 c11 -10 29
-18 39 -19 34 -2 110 -45 130 -73 l20 -28 -30 -36 c-17 -21 -37 -37 -45 -37
-9 0 -62 19 -119 41 -84 34 -102 45 -97 58 7 15 74 110 79 111 2 0 12 -8 23
-17z m-363 -496 c4 -8 29 -17 55 -20 25 -4 63 -15 85 -26 21 -11 51 -25 67
-31 25 -9 28 -14 22 -42 -3 -18 -17 -44 -30 -58 -13 -14 -27 -35 -31 -47 -9
-31 -37 -30 -128 7 -42 17 -79 30 -84 30 -4 0 -21 12 -36 26 l-29 25 43 74
c44 77 52 85 66 62z m-257 -542 c30 -12 76 -28 102 -35 26 -7 56 -23 68 -35
l22 -24 -52 -70 c-29 -39 -54 -71 -55 -71 -2 0 -27 11 -57 25 -29 14 -59 25
-66 25 -8 0 -28 6 -45 14 -18 7 -47 19 -65 26 -45 17 -47 25 -18 63 15 19 26
37 26 42 0 4 9 23 21 42 23 37 23 37 119 -2z m-315 -597 c27 -11 57 -25 65
-32 8 -7 28 -17 43 -24 27 -12 27 -13 12 -41 -8 -17 -21 -34 -28 -38 -7 -4
-19 -21 -25 -38 -7 -16 -25 -45 -41 -64 -22 -27 -31 -32 -47 -24 -10 6 -59 20
-108 32 -110 26 -160 49 -164 76 -3 19 41 85 92 140 10 11 25 30 33 42 14 21
16 21 66 6 29 -8 74 -24 102 -35z"/>
</g>
</svg>
