<?xml version="1.0" standalone="no"?>
<!DOCTYPE svg PUBLIC "-//W3C//DTD SVG 20010904//EN"
 "http://www.w3.org/TR/2001/REC-SVG-20010904/DTD/svg10.dtd">
<svg version="1.0" xmlns="http://www.w3.org/2000/svg"
 width="565.000000pt" height="439.000000pt" viewBox="0 0 565.000000 439.000000"
 preserveAspectRatio="xMidYMid meet">
<metadata>
Created by potrace 1.16, written by Peter Selinger 2001-2019
</metadata>
<g transform="translate(0.000000,439.000000) scale(0.100000,-0.100000)"
fill="#000000" stroke="none">
<path d="M3217 4159 c-10 -6 -27 -9 -38 -6 -11 3 -26 -1 -33 -9 -8 -8 -17 -14
-20 -14 -3 0 -24 -19 -46 -42 -27 -29 -40 -53 -41 -73 -5 -88 -6 -102 -13
-113 -4 -7 -10 -10 -14 -8 -4 2 -18 -10 -31 -28 l-24 -31 -47 50 c-51 54 -84
110 -75 125 9 15 -15 52 -30 47 -7 -3 -17 -1 -23 5 -18 18 -50 -1 -57 -35 -16
-84 -64 -166 -142 -244 -23 -24 -49 -56 -59 -72 -9 -16 -28 -34 -41 -40 -16
-8 -23 -19 -23 -40 0 -41 20 -53 77 -46 26 3 55 1 63 -4 13 -9 12 -14 -4 -43
-10 -18 -29 -43 -42 -56 -13 -13 -24 -27 -24 -31 0 -5 -15 -14 -32 -21 -80
-31 -96 -42 -101 -66 -7 -40 13 -47 82 -28 66 19 84 14 58 -14 -10 -10 -17
-23 -17 -28 0 -6 -13 -23 -30 -39 -16 -16 -30 -34 -30 -41 0 -6 -7 -14 -15
-18 -8 -3 -15 -16 -15 -29 0 -18 8 -28 31 -37 27 -12 40 -10 110 15 44 15 83
25 86 21 4 -3 2 -6 -3 -6 -5 0 -10 -13 -11 -30 -4 -51 -23 -110 -36 -110 -7 0
-48 -23 -92 -51 -43 -28 -97 -60 -119 -70 -70 -34 -137 -75 -165 -103 -14 -14
-51 -45 -81 -68 -30 -23 -67 -55 -82 -72 -15 -17 -53 -51 -85 -75 -32 -24 -89
-82 -128 -129 -38 -46 -84 -99 -101 -117 -18 -18 -35 -42 -38 -52 -4 -11 -15
-28 -26 -38 -11 -10 -20 -24 -20 -31 0 -7 -6 -17 -14 -21 -7 -4 -19 -19 -26
-32 -7 -14 -16 -30 -21 -35 -13 -18 -56 -68 -93 -111 -20 -22 -36 -45 -36 -52
0 -6 -16 -30 -35 -53 -19 -23 -35 -45 -35 -50 0 -15 -273 -306 -306 -325 -19
-11 -34 -26 -34 -32 0 -7 -4 -13 -10 -13 -13 0 -45 -32 -53 -53 -3 -9 -30 -28
-59 -43 -29 -14 -74 -42 -99 -60 -51 -37 -61 -36 -50 4 4 15 7 46 6 68 -2 39
0 43 34 61 40 21 70 74 79 136 3 24 16 49 33 67 16 16 29 40 30 54 3 71 1 94
-10 133 -11 42 -30 68 -52 75 -8 3 -6 21 10 61 32 86 23 225 -17 260 -21 18
-82 30 -82 17 0 -6 -8 -10 -18 -10 -21 0 -82 -56 -82 -76 0 -21 -15 -24 -66
-15 -42 8 -56 6 -100 -15 -57 -27 -87 -73 -100 -154 -8 -53 -5 -129 6 -149 6
-11 -5 -28 -33 -59 -23 -23 -42 -48 -42 -55 -1 -18 36 -151 44 -157 3 -3 11
-14 17 -25 7 -13 31 -24 70 -33 72 -17 82 -17 118 -7 28 8 29 7 22 -26 -3 -19
-8 -52 -10 -73 -3 -22 -9 -49 -14 -60 -6 -12 -21 -47 -33 -78 -31 -73 -42 -77
-244 -80 -11 0 -36 3 -55 6 -52 10 -66 -4 -54 -51 l9 -38 55 3 c30 1 86 2 124
2 56 0 84 7 160 39 51 21 114 41 141 45 47 8 77 20 102 43 7 6 31 19 53 29 22
10 40 21 40 26 0 4 8 8 19 8 10 0 40 21 68 48 27 26 68 62 91 81 23 19 42 40
42 47 0 7 16 21 35 30 20 9 41 26 47 38 6 11 43 55 83 96 40 42 85 95 101 119
16 24 34 51 39 59 6 9 24 28 42 44 18 16 35 39 39 51 4 12 29 49 56 82 27 33
95 123 153 200 57 77 131 169 164 204 34 35 61 65 61 68 0 4 63 61 93 83 11 8
45 40 76 70 31 30 70 62 85 70 16 8 44 29 62 46 19 17 55 41 81 54 27 13 68
39 93 58 24 19 55 38 67 43 54 20 118 52 130 65 8 8 18 14 23 14 9 0 132 53
164 72 11 5 32 12 48 15 16 2 44 13 61 23 18 10 50 21 72 25 21 4 53 14 70 22
16 9 57 22 90 29 33 7 82 18 108 24 37 9 51 9 62 0 9 -8 53 -12 128 -11 62 1
147 -4 188 -10 41 -6 101 -12 134 -13 60 -2 166 -31 240 -65 22 -11 88 -42
147 -70 100 -47 126 -58 218 -91 75 -28 105 -48 179 -120 87 -85 119 -122 146
-168 11 -18 22 -32 26 -32 3 0 19 -19 34 -42 15 -24 34 -50 42 -58 7 -8 43
-55 80 -105 150 -205 232 -257 395 -257 49 0 90 -3 93 -8 2 -4 16 -5 30 -3 13
3 22 9 19 14 -3 5 9 9 25 9 29 0 31 3 31 35 0 44 -23 58 -71 44 -42 -12 -177
1 -204 20 -5 4 -29 13 -53 20 -26 7 -49 22 -60 39 -9 14 -34 44 -55 67 -21 22
-45 55 -52 73 -8 17 -21 32 -30 32 -8 0 -20 11 -25 25 -5 13 -17 33 -27 43
-52 55 -93 107 -93 118 0 6 -20 32 -44 56 -24 23 -50 57 -59 73 -9 17 -30 41
-47 55 -18 14 -44 36 -59 48 -14 13 -42 30 -61 38 -19 8 -66 29 -103 47 -66
31 -68 33 -61 62 18 84 -13 204 -60 232 -10 6 -12 22 -7 58 9 71 -5 129 -40
165 -26 25 -28 33 -19 50 13 25 5 91 -16 132 -19 36 -61 63 -93 60 -32 -4
-118 -47 -147 -73 -19 -17 -26 -18 -65 -9 -63 16 -87 13 -121 -15 -16 -14 -33
-25 -36 -25 -4 0 -15 -17 -25 -38 -16 -33 -28 -41 -101 -70 -115 -45 -137 -70
-143 -164 -3 -40 -7 -75 -9 -77 -6 -6 -111 -9 -138 -4 -20 4 -23 11 -24 51 0
26 6 70 14 98 13 47 18 53 70 79 31 16 58 35 61 44 4 9 12 23 20 32 7 9 15 30
17 46 5 39 -11 125 -25 134 -8 4 -6 16 5 37 22 42 21 135 0 157 -38 37 -63 47
-104 40 l-40 -7 0 36 c0 27 -9 46 -36 76 -20 22 -39 40 -43 40 -16 -1 -29 -18
-35 -46 -6 -27 -3 -33 29 -55 34 -23 36 -27 32 -69 -2 -25 -7 -53 -11 -62 -6
-12 -3 -20 8 -24 23 -9 66 4 66 20 0 15 21 26 51 26 51 0 53 -121 3 -141 -55
-20 -47 -75 11 -81 26 -3 30 -7 33 -37 4 -36 -14 -91 -30 -91 -5 0 -21 -9 -36
-20 -14 -11 -45 -25 -68 -31 -58 -15 -70 -30 -54 -68 11 -28 9 -77 -6 -158 -5
-24 -12 -32 -34 -35 -27 -4 -28 -2 -38 56 -6 38 -6 73 0 94 15 55 6 64 -56 57
-46 -6 -55 -4 -67 12 -8 10 -34 25 -59 32 -32 9 -61 29 -102 71 l-56 58 51 14
c29 7 58 12 65 12 17 -2 27 46 13 65 -22 31 -23 40 -4 65 12 17 28 25 46 26
16 0 38 10 52 25 25 24 32 45 17 45 -16 0 -43 72 -37 99 12 51 47 81 104 88
53 6 81 28 81 63 0 19 -37 24 -63 9z m-437 -207 c0 -17 66 -107 102 -140 21
-19 38 -43 38 -53 0 -11 5 -19 10 -19 6 0 10 -4 10 -8 0 -4 -26 -14 -58 -21
-31 -7 -68 -21 -81 -30 -22 -17 -23 -21 -11 -48 7 -16 25 -35 39 -41 24 -12
111 -87 111 -97 0 -3 -9 -5 -19 -5 -11 0 -23 -4 -26 -10 -3 -5 -23 -10 -44
-10 -21 0 -43 -6 -49 -12 -16 -20 -12 -69 7 -76 22 -8 46 -32 61 -61 11 -21
10 -26 -6 -38 -22 -16 -56 -17 -71 -2 -19 19 -30 -20 -30 -104 1 -65 -2 -79
-19 -91 -34 -26 -54 -27 -50 -3 3 12 5 37 5 55 1 20 6 32 15 32 35 0 28 74 -7
84 -12 3 -38 -3 -58 -14 -41 -21 -139 -52 -139 -44 0 3 7 12 15 20 8 9 36 46
62 82 26 37 51 69 55 70 14 6 9 49 -7 62 -8 7 -24 10 -35 7 -11 -3 -20 -4 -20
-2 0 2 22 34 50 70 55 73 70 112 49 126 -8 5 -22 7 -31 5 -9 -2 -19 3 -22 11
-5 11 -15 14 -41 9 -20 -4 -35 -3 -35 3 0 5 4 11 8 13 5 2 29 32 53 68 24 36
47 67 52 69 14 5 97 124 97 138 0 7 5 13 10 13 6 0 10 -4 10 -8z m1434 -297
c24 -37 20 -89 -9 -121 -37 -40 -30 -67 22 -77 53 -10 66 -26 65 -83 -1 -46
-15 -74 -36 -74 -26 -1 -59 -38 -61 -69 -2 -28 1 -31 28 -31 16 0 35 7 42 16
10 14 15 15 36 4 38 -21 48 -41 49 -95 0 -77 -8 -82 -71 -51 -30 14 -70 35
-89 46 -19 11 -43 20 -52 20 -10 0 -18 3 -18 8 0 4 -28 16 -63 26 -34 10 -67
23 -73 28 -12 9 -145 32 -244 43 -107 11 -116 14 -118 42 -1 14 -6 31 -11 37
-5 6 -8 26 -7 44 2 35 43 82 71 82 8 0 15 5 15 10 0 25 54 9 82 -24 26 -31 32
-34 54 -24 25 12 33 51 13 64 -19 12 -3 84 26 114 26 27 28 27 63 13 21 -8 45
-27 54 -44 10 -17 25 -29 37 -29 22 0 41 27 34 48 -7 19 23 60 60 82 44 27 81
26 101 -5z m-1164 -217 c1 -19 63 -47 93 -41 26 5 26 5 26 -58 0 -35 2 -73 3
-83 2 -16 -5 -21 -39 -27 -23 -4 -52 -13 -65 -20 -12 -7 -54 -20 -92 -30 -38
-10 -72 -22 -75 -26 -3 -5 -18 -14 -32 -20 -26 -11 -27 -10 -31 19 -7 43 32
78 88 78 33 0 43 4 52 24 11 25 8 33 -55 116 -18 23 -31 45 -29 49 3 4 18 8
35 9 16 1 40 6 53 11 33 14 68 13 68 -1z m-2168 -1261 c4 -6 10 -31 14 -54 9
-60 -6 -98 -88 -221 -13 -19 -14 -29 -6 -39 12 -15 44 -17 53 -3 9 14 41 12
53 -3 6 -7 13 -38 17 -69 6 -49 4 -59 -14 -77 -15 -15 -32 -21 -57 -19 -63 4
-89 -61 -29 -72 26 -5 30 -10 28 -35 -3 -34 -35 -65 -67 -65 -43 0 -50 -14
-51 -102 -2 -109 -10 -138 -41 -138 -28 0 -28 -3 -9 51 9 24 18 60 21 79 2 19
7 51 11 70 8 46 4 123 -7 134 -6 6 -25 -2 -49 -18 -38 -27 -40 -27 -101 -14
-45 9 -64 18 -68 30 -2 10 -8 18 -12 18 -4 0 -13 21 -20 46 -12 41 -11 48 7
72 17 22 29 27 65 28 66 1 80 9 76 41 -2 21 -10 29 -34 35 -42 11 -54 27 -60
85 -9 70 26 149 70 161 46 13 98 3 123 -24 37 -40 57 -27 66 44 7 58 32 85 71
78 17 -4 33 -12 38 -19z"/>
</g>
</svg>
