<?xml version="1.0" standalone="no"?>
<!DOCTYPE svg PUBLIC "-//W3C//DTD SVG 20010904//EN"
 "http://www.w3.org/TR/2001/REC-SVG-20010904/DTD/svg10.dtd">
<svg version="1.0" xmlns="http://www.w3.org/2000/svg"
 width="577.000000pt" height="491.000000pt" viewBox="0 0 577.000000 491.000000"
 preserveAspectRatio="xMidYMid meet">
<metadata>
Created by potrace 1.16, written by Peter Selinger 2001-2019
</metadata>
<g transform="translate(0.000000,491.000000) scale(0.100000,-0.100000)"
fill="#000000" stroke="none">
<path d="M3675 4571 c-3 -6 -3 -15 0 -21 3 -5 -6 -42 -20 -82 -20 -55 -27 -95
-29 -177 -4 -121 -19 -166 -50 -156 -12 3 -33 8 -48 11 -22 5 -28 12 -28 33 0
15 -12 51 -26 80 -21 41 -31 51 -48 49 -29 -4 -32 -35 -6 -63 13 -14 25 -42
27 -67 7 -61 17 -75 62 -82 28 -4 46 -14 60 -35 12 -16 21 -32 21 -36 0 -12
33 -34 50 -35 8 0 26 -12 39 -25 13 -14 29 -25 37 -25 8 0 14 -4 14 -10 0 -5
12 -13 28 -16 15 -4 31 -9 37 -12 5 -4 27 -7 47 -7 24 -1 46 -9 61 -23 13 -12
29 -22 35 -22 14 0 14 -1 2 -60 -8 -39 -6 -50 16 -82 13 -21 24 -51 24 -67 0
-16 7 -36 15 -45 8 -8 11 -17 7 -20 -5 -3 -9 -25 -10 -49 -3 -60 26 -97 74
-97 48 0 96 -26 90 -48 -30 -102 -44 -202 -32 -238 6 -18 -1 -26 -38 -47 -39
-22 -50 -24 -90 -15 -33 7 -51 18 -71 44 -14 19 -31 34 -38 34 -11 0 -57 40
-104 91 -40 44 -60 59 -76 59 -17 0 -67 59 -67 78 0 7 -4 12 -10 12 -5 0 -17
15 -26 32 -26 51 -77 117 -95 123 -26 9 -49 -5 -49 -31 0 -14 7 -27 17 -31 19
-7 83 -73 83 -85 0 -4 14 -28 31 -53 25 -37 29 -48 19 -60 -7 -8 -19 -15 -26
-15 -20 0 -114 -50 -114 -60 0 -12 29 -40 41 -40 5 0 9 5 9 10 0 6 7 10 15 10
8 0 15 4 15 9 0 9 47 24 80 26 8 1 27 5 42 9 40 12 61 1 86 -47 12 -24 39 -53
60 -66 21 -13 47 -38 59 -56 14 -21 33 -36 52 -40 17 -4 31 -11 31 -16 0 -5 6
-9 14 -9 7 0 26 -6 41 -14 23 -12 32 -12 61 0 18 8 36 14 38 14 3 0 5 -33 4
-74 -1 -41 3 -80 9 -88 6 -7 16 -30 23 -51 6 -21 24 -45 38 -54 15 -10 45 -35
67 -58 l39 -40 -1 -125 c-1 -142 -5 -190 -16 -207 -5 -7 -5 -13 -1 -13 3 0 2
-6 -4 -12 -6 -7 -15 -38 -20 -69 -6 -30 -26 -86 -45 -125 -38 -74 -67 -172
-67 -223 0 -17 -9 -57 -19 -88 -11 -32 -25 -88 -31 -126 -7 -37 -15 -67 -19
-67 -4 0 -13 -17 -21 -38 -13 -34 -15 -50 -19 -109 0 -13 -5 -23 -11 -23 -6 0
-7 46 -3 122 3 68 5 147 4 176 -1 51 -1 52 26 52 16 0 34 4 41 8 18 12 31 66
20 85 -10 19 -58 23 -75 6 -16 -16 -22 1 -24 62 -1 30 -8 59 -15 66 -16 16
-46 17 -67 1 -15 -12 -15 -18 -1 -73 9 -33 18 -69 20 -80 5 -19 0 -20 -85 -22
-103 -3 -99 -6 -82 84 7 37 5 45 -15 64 l-23 21 -24 -24 c-21 -22 -23 -31 -20
-90 5 -74 8 -71 -82 -83 -74 -10 -105 -30 -105 -67 0 -28 35 -41 78 -28 20 6
56 13 80 16 l43 6 -1 -118 c-1 -66 2 -149 6 -186 l7 -68 -36 -15 c-20 -8 -45
-15 -56 -15 -23 0 -51 -25 -51 -46 0 -8 9 -23 20 -34 l20 -20 40 20 c21 11 41
20 44 20 2 0 4 -20 4 -45 -2 -69 38 -98 76 -56 14 15 16 30 10 79 l-6 60 43 8
c58 10 79 6 106 -18 12 -12 29 -18 37 -15 25 10 19 -16 -17 -85 -19 -35 -47
-104 -62 -154 l-29 -92 -38 14 c-21 7 -69 15 -108 17 -39 3 -74 7 -77 11 -4 3
-15 -1 -25 -11 -20 -18 -24 -63 -5 -63 25 -1 203 -10 227 -13 23 -2 25 -6 25
-47 1 -73 15 -141 31 -147 8 -3 26 3 40 12 25 16 26 20 20 79 -4 33 -10 84
-13 112 -4 39 0 62 16 99 11 26 21 54 21 62 0 8 18 54 40 101 25 53 42 106 46
141 3 30 10 63 16 74 6 11 11 32 13 46 4 54 17 108 40 166 29 73 70 239 79
319 6 51 63 210 88 243 5 6 12 33 14 60 3 26 12 73 21 103 9 30 17 87 19 125
2 39 5 83 8 99 8 38 -12 158 -27 168 -7 4 -8 8 -2 8 10 0 -60 70 -86 86 -8 5
-26 25 -40 44 -22 32 -24 45 -24 140 -1 81 3 108 14 116 12 10 12 18 2 57 -11
38 -11 61 3 140 19 114 20 151 3 165 -7 6 -43 18 -80 28 l-67 16 0 48 c0 42 7
59 54 127 102 149 118 185 117 261 -1 37 1 90 5 118 5 46 9 52 51 79 25 16 58
40 72 53 14 14 42 37 62 52 55 40 119 118 119 145 0 13 5 36 12 50 14 31 -5
75 -33 75 -30 0 -52 -93 -27 -118 9 -9 4 -20 -22 -47 -19 -19 -38 -35 -42 -35
-4 0 -38 -22 -75 -49 -38 -26 -78 -51 -91 -54 -22 -5 -23 -3 -18 35 3 22 11
47 17 54 15 19 24 197 10 222 -23 43 -68 3 -56 -50 6 -27 -9 -186 -23 -243 -6
-22 -13 -107 -17 -189 -4 -82 -9 -155 -12 -164 -19 -47 -112 -182 -127 -182
-16 0 -36 66 -35 115 2 45 -3 60 -24 88 -26 34 -71 52 -102 41 -16 -7 -115 26
-115 37 0 4 -24 19 -54 33 -57 27 -73 41 -57 50 5 3 12 72 15 153 7 151 16
210 43 274 8 20 13 47 11 60 -3 25 -31 38 -43 20z m270 -2899 c1 -45 -1 -82
-4 -82 -3 0 -6 -26 -5 -58 0 -33 -1 -74 -4 -94 -4 -33 -6 -35 -67 -51 -35 -9
-66 -17 -68 -17 -6 0 -18 177 -20 293 l-2 77 30 1 c49 1 107 8 113 14 18 17
27 -10 27 -83z"/>
<path d="M4761 4459 c-10 -11 -24 -41 -31 -66 -6 -25 -17 -58 -25 -73 -8 -15
-15 -49 -16 -76 -2 -27 -9 -61 -17 -77 -8 -15 -16 -40 -18 -55 -6 -37 -4 -173
2 -183 7 -12 -33 -86 -50 -92 -8 -3 -16 -21 -18 -39 -2 -24 -13 -40 -44 -63
-94 -70 -93 -68 -95 -110 -2 -22 -13 -60 -25 -86 -12 -25 -26 -62 -29 -83 -4
-20 -16 -43 -26 -49 -11 -7 -19 -16 -19 -20 0 -5 -13 -27 -29 -51 -16 -23 -31
-56 -34 -73 -3 -18 -8 -36 -10 -41 -3 -4 -15 -44 -27 -87 -18 -65 -19 -83 -9
-102 21 -40 44 -28 59 30 8 28 15 59 16 67 12 72 41 133 92 189 43 49 56 71
60 104 2 23 8 50 13 59 5 9 9 26 9 37 0 12 4 21 10 21 5 0 15 18 21 40 8 26
33 62 71 100 32 33 61 60 64 60 7 0 30 19 73 60 20 20 51 46 69 59 17 12 32
29 32 36 0 8 13 37 29 64 17 28 33 66 36 84 7 34 8 35 45 30 81 -11 246 69
329 160 9 10 27 29 40 42 25 27 22 47 -4 25 -12 -10 -15 -10 -15 1 0 8 -8 5
-20 -8 -27 -30 -124 -93 -142 -93 -7 0 -18 -4 -23 -9 -9 -9 -121 -41 -143 -41
-13 0 4 77 24 108 8 12 12 27 9 32 -3 6 -2 10 4 10 25 0 54 91 37 116 -19 25
-54 -1 -62 -46 -4 -19 -20 -55 -36 -80 -21 -32 -28 -53 -24 -72 3 -15 0 -30
-5 -34 -14 -8 -59 -109 -59 -131 0 -9 -11 -31 -25 -49 -14 -18 -29 -44 -35
-58 -5 -14 -14 -26 -20 -26 -6 0 -20 -9 -32 -20 -31 -28 -37 -25 -28 14 4 19
6 37 3 39 -2 3 1 43 8 88 6 46 13 97 15 112 2 15 8 36 13 46 6 10 8 21 5 24
-3 3 2 32 12 64 10 32 16 64 15 71 -1 7 7 26 19 41 17 25 18 33 9 55 -15 31
-22 32 -48 5z"/>
<path d="M2736 3963 c-2 -2 -151 -5 -332 -8 -181 -3 -441 -7 -579 -10 -152 -3
-275 -1 -315 6 -45 7 -66 7 -68 0 -2 -6 -10 -11 -17 -11 -7 0 -16 -6 -18 -12
-4 -10 -7 -10 -14 -1 -6 8 -18 10 -38 5 -41 -11 -87 -98 -90 -172 -2 -53 -64
-278 -90 -330 -14 -28 -47 -138 -65 -220 -7 -30 -22 -75 -32 -99 -21 -50 -48
-144 -78 -271 -11 -47 -31 -114 -43 -150 -29 -79 -76 -228 -81 -255 -2 -11
-16 -50 -31 -85 -15 -36 -29 -78 -31 -95 -7 -39 -64 -227 -74 -240 -4 -5 -22
-68 -40 -140 -18 -71 -39 -144 -46 -162 -8 -17 -14 -40 -14 -50 0 -10 -4 -23
-9 -28 -4 -6 -16 -41 -25 -80 -10 -38 -23 -79 -31 -91 -7 -11 -16 -36 -19 -55
-15 -93 -28 -139 -42 -139 -8 0 -14 5 -14 11 0 8 -21 10 -72 4 -40 -4 -90 -8
-111 -10 -21 -2 -49 0 -61 5 -32 12 -92 -8 -139 -45 -43 -35 -47 -61 -12 -77
21 -10 29 -8 48 9 52 49 203 78 320 62 20 -2 27 -9 27 -26 0 -12 -5 -25 -10
-28 -6 -4 -8 -10 -5 -15 10 -17 -18 -116 -40 -140 -33 -36 -50 -100 -37 -139
10 -29 10 -31 -23 -37 -19 -3 -56 -1 -82 5 -77 18 -126 2 -112 -37 8 -22 11
-23 96 -17 175 12 253 33 302 81 13 13 30 24 37 24 7 0 15 13 19 30 4 16 11
32 16 35 5 4 9 21 9 40 0 19 4 36 8 39 5 3 9 19 10 36 0 16 4 35 9 42 9 14 10
20 12 47 1 16 8 17 51 13 40 -4 51 -1 56 12 10 25 -15 46 -53 46 -26 0 -34 4
-30 14 14 37 51 160 73 241 12 50 32 124 43 165 11 41 24 88 31 104 6 16 24
82 41 145 17 64 37 126 45 139 8 12 12 22 10 22 -3 0 2 19 10 43 8 23 22 74
31 112 8 39 20 79 26 90 6 11 28 78 49 150 74 249 109 371 132 455 13 47 32
105 43 130 22 52 33 89 64 215 13 50 30 104 39 120 14 26 25 57 35 100 13 54
40 150 55 195 l18 55 79 -2 c43 -1 89 -2 103 -2 24 -1 25 -4 22 -50 -5 -65 19
-116 65 -138 l35 -16 -5 -66 c-3 -36 -8 -82 -11 -101 -3 -19 -8 -57 -11 -83
-2 -27 -7 -53 -11 -58 -3 -5 -8 -37 -11 -72 -3 -34 -11 -80 -19 -102 -8 -22
-14 -62 -14 -90 0 -27 -5 -70 -11 -95 -6 -25 -10 -63 -10 -85 0 -22 -4 -65 -9
-95 -9 -51 -21 -178 -22 -225 0 -11 -4 -49 -9 -85 -16 -128 -33 -532 -30 -715
2 -95 5 -115 24 -145 12 -19 31 -52 42 -74 26 -51 116 -146 138 -146 10 0 41
-12 69 -27 58 -30 121 -37 314 -35 87 2 122 6 158 22 25 10 46 17 46 15 0 -2
23 18 50 46 28 27 50 54 50 59 0 5 8 15 18 22 40 28 102 180 102 249 0 21 4
60 9 86 12 60 21 165 25 308 3 61 7 164 10 230 7 118 10 715 6 1050 -1 94 -1
183 -1 198 1 18 14 40 36 63 35 35 40 53 36 129 -1 29 0 30 41 28 23 0 59 -7
80 -14 32 -10 38 -17 37 -38 -1 -14 6 -53 15 -86 9 -33 19 -73 22 -90 3 -16 9
-46 14 -65 5 -19 14 -84 20 -144 6 -61 15 -117 19 -125 9 -17 29 -127 36 -201
3 -25 14 -103 25 -175 11 -71 20 -152 20 -180 0 -27 6 -71 14 -96 13 -44 32
-175 28 -192 -1 -5 5 -50 14 -100 9 -51 19 -126 24 -167 7 -69 26 -162 50
-235 9 -30 14 -55 25 -147 3 -26 9 -66 13 -90 5 -24 5 -54 2 -68 -4 -14 -4
-32 0 -40 4 -8 12 -40 18 -70 6 -30 18 -86 25 -123 9 -42 11 -70 5 -73 -6 -4
-42 -6 -81 -6 -86 1 -120 -15 -115 -55 5 -40 30 -50 73 -30 19 9 59 20 89 23
l53 6 7 -82 c4 -46 5 -85 2 -87 -3 -3 -30 3 -60 12 -57 18 -126 14 -126 -7 0
-5 -7 -8 -15 -4 -8 3 -26 1 -38 -3 -13 -5 -44 -10 -68 -12 -80 -5 -129 -40
-114 -82 8 -19 45 -29 61 -16 7 6 46 19 86 29 40 10 86 23 102 29 30 12 81 6
102 -10 7 -5 28 -10 48 -11 32 -1 36 -4 36 -28 0 -14 -5 -31 -11 -37 -9 -9 -8
-16 5 -28 9 -9 16 -24 16 -33 0 -21 54 -47 78 -36 9 4 20 7 24 6 3 -1 12 5 18
13 7 8 24 15 39 15 37 1 70 33 75 72 2 18 -2 65 -11 103 -8 39 -17 86 -19 105
-3 19 -9 71 -14 115 -6 44 -12 96 -14 115 -3 19 -9 48 -15 64 -7 16 -13 59
-15 97 -2 37 -7 72 -10 78 -4 5 -13 61 -22 123 -17 128 -19 140 -34 223 -6 33
-13 76 -16 95 -3 31 -13 85 -19 115 -2 6 -12 71 -24 145 -11 74 -28 182 -37
240 -9 58 -18 121 -20 140 -2 19 -6 51 -9 70 -13 79 -68 438 -72 470 -5 41
-37 247 -64 413 -11 65 -17 123 -13 128 3 5 0 16 -6 24 -7 9 -10 30 -6 55 4
33 1 45 -16 62 -12 12 -22 32 -23 45 -2 42 -49 68 -150 78 -68 8 -204 12 -209
8z m-313 -236 c24 0 27 -4 27 -34 0 -18 8 -46 17 -61 20 -31 65 -73 71 -67 12
12 42 -19 47 -48 19 -116 23 -1133 4 -1258 -5 -35 -12 -144 -15 -242 -3 -98
-9 -200 -13 -226 -11 -69 -75 -164 -129 -192 -23 -12 -47 -28 -53 -36 -6 -7
-18 -13 -25 -13 -8 0 -14 -4 -14 -10 0 -5 -7 -10 -16 -10 -8 0 -36 -10 -62
-22 -39 -19 -62 -22 -137 -20 -91 3 -165 18 -165 34 0 4 -6 8 -13 8 -7 0 -24
15 -37 33 -13 17 -35 41 -48 51 -43 34 -62 59 -62 81 0 33 -28 83 -51 90 -30
10 -51 -13 -43 -48 9 -42 54 -125 81 -150 13 -12 51 -48 84 -79 32 -32 66 -58
74 -58 8 0 18 -8 23 -17 8 -14 31 -17 141 -20 125 -4 134 -3 179 21 26 14 63
33 82 41 19 8 42 19 50 24 8 6 34 19 57 30 l42 19 -15 -31 c-9 -16 -25 -40
-36 -51 -11 -12 -31 -35 -45 -53 -13 -18 -48 -47 -76 -65 -50 -32 -53 -33
-182 -35 -138 -2 -220 11 -304 48 -25 11 -52 28 -61 37 -22 25 -60 80 -60 87
0 3 -12 24 -27 48 l-27 42 1 225 c1 305 16 650 30 673 5 8 24 202 25 252 0 17
4 57 9 90 6 33 12 90 14 128 2 37 6 71 9 76 7 11 15 64 21 150 3 35 10 72 16
83 11 20 28 118 34 193 7 80 16 105 41 111 13 3 24 10 24 15 0 5 8 9 18 9 38
0 55 87 26 128 l-15 22 121 -1 c67 0 124 1 126 4 3 2 50 2 107 -1 56 -2 114
-4 130 -5z m250 -7 c14 -59 -36 -94 -96 -65 -31 15 -37 22 -37 49 l0 32 64 0
c49 -1 66 -5 69 -16z m-761 -9 c-11 -9 -22 -24 -24 -35 -2 -11 -21 -26 -53
-38 -47 -18 -50 -18 -62 -2 -14 19 -17 52 -7 78 5 13 21 16 86 14 74 -2 78 -3
60 -17z"/>
<path d="M5396 3875 c-44 -44 -179 -86 -291 -89 -22 -1 -51 -9 -65 -19 -13 -9
-22 -17 -18 -17 3 0 -7 -14 -23 -31 -16 -17 -29 -39 -29 -49 0 -10 -7 -23 -16
-31 -21 -17 -44 -63 -44 -88 0 -12 -9 -26 -20 -33 -11 -7 -20 -18 -20 -25 0
-7 -3 -13 -7 -13 -5 -1 -37 -28 -73 -61 -70 -65 -102 -83 -132 -73 -10 3 -51
0 -91 -7 -40 -7 -76 -12 -81 -11 -4 2 -15 -3 -24 -10 -8 -7 -29 -17 -46 -23
-31 -10 -31 -10 -32 -85 -1 -41 -9 -100 -18 -131 -11 -38 -14 -64 -8 -80 5
-13 7 -30 5 -36 -10 -29 84 -129 130 -139 15 -4 27 -10 27 -15 0 -20 4 -26 51
-70 l48 -45 -14 -48 c-14 -45 -71 -136 -86 -136 -4 0 -10 -14 -14 -31 -6 -24
-2 -36 14 -52 20 -20 24 -20 83 -8 35 8 79 15 98 17 l35 3 -25 -19 c-29 -22
-105 -45 -138 -42 -12 2 -35 -5 -50 -14 -25 -14 -30 -26 -42 -93 -7 -42 -19
-88 -26 -102 -19 -38 -36 -152 -36 -241 1 -43 -3 -78 -9 -78 -5 0 -9 -10 -9
-23 0 -13 -5 -28 -12 -35 -7 -7 -9 -12 -6 -12 4 0 -3 -24 -13 -52 -11 -29 -22
-66 -24 -83 -12 -81 -41 -204 -61 -250 -8 -19 -12 -35 -9 -35 3 0 1 -9 -5 -19
-5 -11 -12 -57 -15 -103 -6 -109 -16 -227 -20 -247 -2 -9 -9 -36 -15 -61 -22
-84 -22 -96 -6 -109 24 -20 66 -6 66 22 0 56 9 65 52 57 42 -8 113 -6 208 6
30 4 69 7 87 7 22 0 30 4 26 13 -8 21 -29 24 -153 22 -64 0 -134 4 -158 11
l-44 12 7 82 c6 82 7 94 21 217 4 36 8 72 8 80 1 8 10 15 21 16 23 1 51 11 80
26 11 6 37 13 57 16 l38 4 -4 -34 c-6 -47 29 -91 62 -78 16 7 22 18 22 38 0
16 3 43 6 60 6 28 10 30 80 44 l74 15 0 -26 c0 -36 15 -56 42 -57 31 -2 45 11
52 50 6 30 12 35 51 45 58 14 66 14 59 -4 -4 -8 -1 -15 5 -15 6 0 8 -7 4 -16
-7 -18 12 -34 43 -34 20 0 44 35 44 63 0 14 54 37 86 37 11 0 25 5 31 11 18
18 25 -7 14 -48 -13 -48 8 -88 42 -79 12 3 25 6 28 6 12 0 19 93 8 106 -9 11
-8 14 2 14 8 1 48 3 91 7 l76 5 0 -60 c0 -71 3 -78 38 -85 20 -3 28 0 31 14 3
11 10 19 16 19 10 0 4 69 -9 104 -6 16 -2 18 37 16 82 -5 109 -1 109 15 0 9 7
18 15 21 19 8 19 31 0 51 -12 11 -25 13 -53 8 -20 -4 -54 -9 -74 -11 l-37 -5
1 158 c0 87 0 163 -2 168 -14 55 14 100 49 78 9 -5 25 -7 36 -3 11 4 36 2 56
-5 41 -15 48 -12 68 28 13 24 13 29 -1 44 -17 16 -96 20 -173 7 -32 -5 -35 -3
-35 18 0 13 7 50 15 81 14 52 13 60 -1 82 -20 30 -68 34 -80 8 -4 -10 -7 -21
-6 -25 1 -4 4 -41 6 -83 5 -89 3 -90 -103 -98 l-63 -4 6 66 c7 74 2 86 -36 96
-35 9 -44 -14 -42 -108 2 -56 -1 -67 -14 -68 -10 -1 -40 -3 -68 -5 l-52 -3 4
62 c6 84 0 107 -31 107 -23 0 -39 -14 -40 -35 -1 -5 -5 -40 -9 -76 l-8 -67
-54 -7 c-65 -8 -75 -3 -67 35 8 43 -5 98 -27 110 -25 14 -72 -7 -66 -29 6 -19
9 -64 7 -108 -1 -30 -3 -32 -48 -38 -27 -3 -62 -8 -79 -11 l-31 -4 4 55 c4 44
1 60 -12 75 -24 26 -55 10 -55 -29 0 -15 -7 -49 -16 -75 -14 -42 -19 -47 -43
-44 -22 3 -26 8 -25 33 1 44 12 102 34 172 27 88 47 123 70 123 28 0 117 37
153 64 18 13 44 26 59 30 19 4 40 25 68 67 22 33 40 64 40 69 0 5 3 10 8 12
18 8 72 84 72 103 0 11 12 46 28 77 22 48 30 57 47 52 32 -9 59 -11 70 -5 5 3
16 6 25 8 111 19 158 34 262 85 76 38 87 46 88 69 0 32 -26 57 -44 43 -80 -61
-189 -114 -204 -100 -4 4 3 15 14 25 12 9 25 28 29 42 4 13 20 45 36 72 35 57
39 111 9 127 -17 9 -22 7 -31 -17 -19 -48 -53 -117 -65 -129 -6 -7 -16 -25
-23 -41 -6 -15 -28 -39 -49 -53 -20 -14 -43 -31 -51 -39 -10 -9 -26 -11 -50
-6 -20 4 -49 9 -64 12 -35 7 -56 -19 -53 -62 4 -43 -53 -195 -73 -195 -5 0
-16 -17 -25 -39 -19 -42 -69 -101 -85 -101 -5 0 6 16 25 35 54 56 40 101 -17
57 -13 -10 -37 -23 -54 -29 -29 -11 -105 -17 -105 -8 0 2 7 21 16 42 9 21 20
47 24 58 4 11 12 32 18 46 16 41 4 69 -54 126 -30 29 -54 57 -54 63 0 5 -12
16 -27 24 -16 8 -50 35 -76 59 -47 43 -48 45 -46 98 2 30 9 60 16 67 9 10 11
29 7 65 -6 48 -4 53 17 64 67 33 138 51 185 48 44 -3 58 1 110 34 58 37 134
113 134 135 0 10 39 54 75 84 13 11 15 10 15 -6 0 -40 70 -75 153 -77 54 -1
63 -4 72 -23 6 -13 19 -22 32 -22 13 0 23 -4 23 -8 0 -19 59 -72 108 -97 54
-27 138 -42 159 -28 6 5 14 20 18 34 6 26 5 27 -51 31 -32 3 -60 10 -62 16 -2
7 -13 12 -25 12 -12 0 -35 11 -50 25 -25 24 -28 30 -27 53 1 4 11 6 23 4 12
-1 42 4 66 13 24 8 66 15 94 15 42 0 54 5 77 29 20 20 32 26 43 20 34 -19 62
13 51 57 -7 29 -13 29 -67 5 -24 -11 -56 -23 -72 -27 -17 -3 -56 -15 -87 -25
-32 -11 -72 -19 -90 -18 -36 1 -73 -5 -108 -16 -14 -4 -28 -1 -39 9 -13 12
-32 15 -74 12 -32 -3 -57 -1 -57 5 0 5 -5 9 -11 9 -7 0 -20 10 -31 22 -66 76
-4 148 139 164 54 6 138 43 155 67 3 6 14 12 24 13 22 3 62 46 66 70 4 24 -25
30 -46 9z m51 -1901 c5 -32 4 -377 -2 -382 -11 -11 -121 -13 -147 -3 -23 8
-26 14 -21 42 2 17 8 104 11 192 l7 161 60 4 c33 2 62 6 64 8 9 9 24 -3 28
-22z m-224 -53 c4 -32 2 -109 -4 -172 -6 -63 -11 -125 -12 -139 -2 -32 -42
-50 -109 -50 l-51 0 7 43 c3 23 9 74 11 112 3 39 11 109 17 157 10 79 13 88
32 87 12 0 37 4 56 9 19 6 38 10 41 11 3 1 9 -25 12 -58z m-219 -15 c-1 -22
-3 -59 -4 -81 -1 -22 -7 -91 -13 -153 -12 -126 -13 -128 -90 -138 l-45 -6 4
113 c2 63 5 155 8 204 3 50 6 92 6 95 0 3 31 6 68 6 l68 1 -2 -41z m-219 -154
c-5 -92 -9 -180 -10 -197 -2 -34 -22 -42 -108 -44 l-47 -1 -2 58 c-3 123 -1
322 4 327 7 7 80 19 131 22 l39 3 -7 -168z m-244 101 c3 -82 5 -340 2 -349 -3
-7 -34 -17 -71 -24 -37 -6 -74 -13 -83 -14 -14 -3 -15 2 -4 43 7 25 20 86 30
136 9 49 22 103 30 120 7 16 19 47 25 68 10 32 16 37 41 37 21 0 29 -5 30 -17z"/>
<path d="M948 1248 c-61 -32 -45 -66 30 -65 48 0 57 7 48 42 -10 38 -35 46
-78 23z"/>
<path d="M4734 1082 c-12 -9 -24 -28 -27 -41 -7 -30 14 -191 25 -191 4 0 8
-11 8 -24 0 -31 14 -40 30 -21 8 10 10 36 6 82 -8 88 -8 140 0 181 7 37 -8 42
-42 14z"/>
<path d="M4866 1060 c-21 -52 -20 -136 2 -179 29 -59 42 -51 42 28 0 39 7 91
16 117 18 54 13 74 -20 74 -19 0 -27 -9 -40 -40z"/>
<path d="M4973 1058 c-20 -39 -27 -79 -24 -133 1 -11 11 -26 22 -33 30 -19 44
-2 45 53 1 25 7 58 14 74 16 40 10 75 -16 79 -15 2 -25 -8 -41 -40z"/>
<path d="M5130 1080 c-11 -7 -15 -27 -14 -73 1 -73 27 -132 60 -132 16 0 19 7
17 40 -2 69 -12 129 -24 153 -14 25 -17 26 -39 12z"/>
<path d="M755 1030 c-13 -14 -16 -29 -11 -62 3 -24 8 -73 12 -111 7 -70 19
-91 38 -65 13 17 21 206 11 238 -8 25 -27 26 -50 0z"/>
<path d="M5263 1002 c-40 -15 -43 -19 -43 -53 0 -46 19 -55 66 -33 37 18 129
26 154 14 8 -4 35 -10 60 -13 25 -3 55 -8 67 -10 17 -4 24 1 31 23 16 44 -15
66 -108 75 -138 14 -184 13 -227 -3z"/>
<path d="M946 977 c-15 -11 -19 -26 -19 -75 1 -68 21 -104 43 -77 18 22 24
127 8 148 -12 15 -16 16 -32 4z"/>
<path d="M1010 910 c-6 -10 -10 -26 -10 -34 0 -23 59 -86 81 -86 16 0 17 5 12
33 -3 17 -11 35 -17 39 -11 7 -12 11 -15 42 -2 22 -40 27 -51 6z"/>
<path d="M1189 864 c-12 -23 -11 -27 6 -40 15 -11 76 -20 107 -15 4 0 38 -10
75 -23 121 -44 183 -45 183 -5 0 18 -14 23 -52 20 -10 -1 -18 3 -18 8 0 6 -5
11 -12 11 -6 0 -39 13 -73 29 -41 20 -84 31 -132 35 -67 6 -70 5 -84 -20z"/>
<path d="M2354 365 c-7 -27 -5 -36 21 -129 9 -32 14 -61 11 -64 -6 -5 -48 -13
-71 -13 -5 0 -30 3 -55 7 -70 11 -208 8 -224 -5 -11 -9 -15 -9 -18 0 -3 8 -9
9 -19 4 -21 -14 -35 -16 -150 -21 -82 -3 -112 -1 -135 11 -16 8 -39 15 -52 15
-19 0 -23 -5 -20 -27 3 -23 12 -30 58 -46 52 -18 61 -18 185 -3 71 8 141 18
155 21 14 3 40 8 58 11 17 3 32 10 32 16 0 5 5 6 12 2 7 -4 27 -9 44 -11 18
-2 45 -10 61 -18 34 -18 102 -19 138 -3 19 9 28 9 37 0 16 -16 38 -15 38 2 0
7 6 19 14 26 16 13 11 40 -8 40 -12 0 -36 74 -36 111 0 30 -38 99 -55 99 -8 0
-17 -11 -21 -25z"/>
<path d="M2585 287 c-7 -58 7 -132 28 -140 29 -11 63 42 37 58 -5 3 -9 30 -9
59 2 61 -4 76 -31 76 -15 0 -20 -10 -25 -53z"/>
<path d="M2664 235 c-8 -30 30 -95 55 -95 10 0 25 8 35 19 15 17 15 19 1 31
-9 8 -23 26 -31 42 -18 35 -51 37 -60 3z"/>
<path d="M2850 214 c-6 -14 -10 -30 -10 -35 0 -11 60 -49 77 -49 7 0 22 -8 34
-17 11 -10 30 -26 41 -36 25 -20 32 -21 47 -4 8 10 3 23 -20 55 -16 22 -39 44
-49 47 -11 4 -20 11 -20 16 0 5 -4 9 -10 9 -5 0 -19 9 -30 20 -27 27 -49 25
-60 -6z"/>
<path d="M3085 157 c-25 -19 -13 -61 22 -76 18 -7 89 -10 195 -8 154 2 168 3
168 20 0 31 -57 45 -199 50 -80 3 -137 9 -144 16 -14 14 -19 14 -42 -2z"/>
</g>
</svg>
