<?xml version="1.0" standalone="no"?>
<!DOCTYPE svg PUBLIC "-//W3C//DTD SVG 20010904//EN"
 "http://www.w3.org/TR/2001/REC-SVG-20010904/DTD/svg10.dtd">
<svg version="1.0" xmlns="http://www.w3.org/2000/svg"
 width="521.000000pt" height="433.000000pt" viewBox="0 0 521.000000 433.000000"
 preserveAspectRatio="xMidYMid meet">
<metadata>
Created by potrace 1.16, written by Peter Selinger 2001-2019
</metadata>
<g transform="translate(0.000000,433.000000) scale(0.100000,-0.100000)"
fill="#000000" stroke="none">
<path d="M673 3940 c-3 -11 -12 -20 -19 -20 -8 0 -14 -9 -14 -20 0 -11 -9 -29
-20 -40 -12 -12 -20 -33 -20 -53 0 -38 -35 -241 -44 -256 -3 -5 -9 -33 -12
-63 -3 -29 -10 -54 -15 -56 -5 -2 -9 -16 -9 -30 0 -29 -21 -139 -45 -237 -8
-33 -24 -107 -35 -165 -11 -58 -29 -145 -40 -195 -21 -91 -66 -311 -75 -368
-3 -18 -10 -45 -14 -62 -5 -16 -15 -61 -21 -100 -6 -38 -16 -82 -21 -96 -6
-15 -14 -51 -19 -80 -5 -30 -18 -103 -29 -164 -11 -60 -27 -152 -36 -204 -8
-51 -18 -97 -20 -102 -7 -11 -44 -191 -51 -243 -3 -32 0 -47 14 -64 23 -27 47
-28 61 -5 9 15 10 12 11 -14 0 -18 2 -33 4 -33 1 0 17 5 34 11 37 13 55 49 72
144 7 39 19 99 26 135 8 36 32 148 53 250 21 102 48 223 59 270 11 47 25 110
31 140 20 102 72 344 91 425 11 44 22 91 25 105 2 14 9 45 15 70 5 25 14 68
20 95 9 49 43 200 62 280 5 22 13 61 18 86 4 25 13 64 19 85 6 21 17 66 25 99
8 33 22 87 31 120 9 33 20 71 23 85 9 43 30 54 104 57 46 1 66 -1 62 -9 -4 -5
-1 -13 5 -17 6 -4 14 -41 16 -82 3 -41 7 -90 10 -110 9 -69 15 -214 21 -509 3
-162 7 -374 9 -470 3 -190 11 -277 28 -320 3 -8 13 -44 22 -79 25 -104 125
-234 205 -268 52 -22 179 -28 210 -9 14 8 39 22 55 30 47 25 110 130 121 200
3 22 7 43 9 47 3 3 7 95 10 205 4 109 7 201 7 204 1 3 -1 43 -5 90 -4 47 -9
159 -12 250 -3 91 -8 208 -12 260 -3 52 -6 106 -5 120 5 77 4 273 -2 319 -3
33 -1 59 5 67 8 10 7 21 -4 43 l-14 29 100 -2 101 -1 18 -70 c19 -72 35 -151
44 -218 3 -21 10 -50 15 -65 11 -28 41 -151 63 -262 7 -36 26 -117 41 -180 37
-155 43 -186 55 -249 5 -30 14 -68 20 -85 5 -17 19 -76 31 -131 26 -127 24
-120 42 -196 9 -35 18 -77 22 -94 30 -160 48 -244 61 -291 8 -28 17 -62 20
-75 20 -84 25 -110 34 -163 6 -32 17 -74 25 -93 8 -18 12 -40 9 -47 -3 -8 -1
-17 5 -20 5 -4 13 -26 16 -51 9 -56 23 -74 69 -90 36 -13 40 -12 62 12 14 15
34 31 47 37 12 7 23 21 25 33 2 11 -12 86 -32 165 -19 78 -37 163 -41 188 -4
25 -11 50 -17 56 -10 13 -17 39 -27 104 -4 25 -17 79 -29 120 -11 41 -23 97
-27 124 -3 27 -10 56 -14 65 -5 9 -11 34 -15 56 -4 22 -18 83 -31 136 -13 53
-26 107 -29 120 -3 19 -30 136 -61 269 -17 74 -31 132 -56 230 -16 63 -33 141
-38 173 -6 32 -13 63 -17 68 -3 6 -8 25 -10 42 -12 87 -36 204 -44 222 -16 34
-64 295 -69 379 -1 5 -4 6 -8 3 -3 -4 -12 -2 -19 4 -15 13 27 12 -584 10 -278
-2 -556 0 -618 3 -108 6 -114 5 -119 -14z m884 -106 c-3 -3 -12 -4 -19 -1 -8
3 -5 6 6 6 11 1 17 -2 13 -5z m80 0 c-3 -3 -12 -4 -19 -1 -8 3 -5 6 6 6 11 1
17 -2 13 -5z m100 0 c-3 -3 -12 -4 -19 -1 -8 3 -5 6 6 6 11 1 17 -2 13 -5z
m90 0 c-3 -3 -12 -4 -19 -1 -8 3 -5 6 6 6 11 1 17 -2 13 -5z m-1058 -21 c-7
-10 -21 -25 -31 -33 -9 -8 -18 -26 -20 -40 -2 -14 -7 -31 -11 -37 -5 -7 -5
-17 -2 -23 3 -5 1 -18 -4 -27 -9 -16 -10 -15 -11 5 0 26 27 126 42 155 5 9 18
17 30 17 18 0 19 -2 7 -17z m744 -92 l68 -1 -15 -22 c-19 -26 -21 -65 -4 -70
8 -3 11 -41 10 -124 0 -65 4 -193 9 -284 5 -91 12 -237 15 -325 3 -88 7 -185
9 -215 11 -167 2 -479 -16 -555 -34 -142 -84 -188 -203 -187 -40 1 -72 6 -74
11 -2 6 -9 11 -15 11 -15 0 -107 101 -107 118 0 7 -4 21 -10 31 -9 18 -32 121
-45 210 -4 24 -9 92 -10 150 -2 58 -6 183 -9 276 -3 94 -8 292 -11 440 -4 149
-8 284 -10 300 -16 108 -24 233 -17 240 3 3 87 4 186 1 100 -2 212 -5 249 -5z
m-827 -153 c-2 -35 -11 -77 -20 -93 -8 -17 -17 -51 -20 -75 -6 -57 -12 -89
-41 -220 -14 -58 -31 -139 -40 -180 -9 -41 -23 -100 -31 -130 -33 -127 -56
-229 -64 -285 -13 -79 -48 -239 -66 -294 -8 -25 -14 -56 -14 -70 0 -37 -16
-59 -23 -32 -3 12 -1 24 4 27 5 3 9 20 9 39 0 19 5 46 11 62 6 15 12 35 13 43
1 8 5 22 8 30 3 8 16 74 28 145 12 72 30 163 41 204 11 41 18 80 15 88 -3 7 1
30 9 51 8 20 26 89 40 152 42 195 53 244 64 272 5 15 12 49 15 77 3 28 10 59
16 71 6 11 9 20 6 20 -2 0 0 17 5 38 5 20 12 52 15 71 5 34 11 51 20 51 3 0 3
-28 0 -62z m1351 -250 c-3 -8 -6 -5 -6 6 -1 11 2 17 5 13 3 -3 4 -12 1 -19z
m32 -128 l-1 -25 -8 25 c-4 14 -8 32 -9 40 -1 13 0 13 9 0 5 -8 9 -26 9 -40z
m8 -52 c-3 -8 -6 -5 -6 6 -1 11 2 17 5 13 3 -3 4 -12 1 -19z m42 -158 c0 -8
-9 12 -19 45 -11 33 -19 69 -19 80 0 11 9 -9 20 -45 10 -36 19 -72 18 -80z
m19 -90 c1 -23 0 -23 -8 -5 -5 11 -8 34 -8 50 0 29 0 29 8 5 4 -14 8 -36 8
-50z m25 -95 c6 -42 31 -149 46 -200 8 -26 28 -107 61 -255 6 -25 13 -58 16
-74 3 -16 11 -44 19 -62 7 -18 17 -55 20 -81 4 -26 14 -75 22 -108 23 -93 26
-112 15 -95 -5 8 -26 83 -46 165 -21 83 -44 175 -51 205 -26 103 -114 495
-120 535 -4 27 -3 35 3 25 6 -8 12 -33 15 -55z m-1814 -752 c-49 -225 -63
-283 -66 -279 -3 2 3 40 11 83 9 43 21 103 27 133 10 49 23 101 34 138 3 6 6
12 9 12 2 0 -5 -39 -15 -87z m2028 -185 c-3 -7 -5 -2 -5 12 0 14 2 19 5 13 2
-7 2 -19 0 -25z m23 -63 c0 -5 -5 -3 -10 5 -5 8 -10 20 -10 25 0 6 5 3 10 -5
5 -8 10 -19 10 -25z m-2170 -297 c0 -16 -3 -19 -11 -11 -6 6 -8 16 -5 22 11
17 16 13 16 -11z"/>
<path d="M4780 3414 c-97 -12 -312 -62 -327 -77 -3 -4 -13 -7 -21 -7 -31 0
-169 -91 -224 -147 -143 -147 -269 -384 -304 -568 -4 -22 -14 -56 -22 -75 -8
-19 -17 -48 -19 -65 -5 -28 -26 -101 -40 -135 -4 -8 -8 -25 -9 -38 -2 -13 -9
-42 -17 -65 -20 -56 -35 -113 -42 -161 -4 -21 -10 -46 -15 -55 -5 -9 -18 -50
-30 -91 -12 -41 -26 -84 -30 -95 -8 -19 -23 -65 -25 -75 0 -3 -13 -31 -28 -62
-15 -31 -27 -60 -27 -63 0 -3 -9 -25 -19 -48 -11 -24 -23 -55 -26 -70 -4 -15
-10 -27 -14 -27 -3 0 -12 -15 -20 -32 -8 -18 -24 -57 -37 -86 -13 -29 -24 -55
-24 -57 0 -22 -119 -181 -166 -222 -109 -96 -119 -104 -146 -119 -16 -8 -28
-18 -28 -22 0 -4 -17 -15 -37 -25 -21 -10 -58 -29 -81 -43 -24 -13 -47 -22
-52 -19 -5 3 -15 -1 -23 -9 -8 -8 -17 -12 -21 -9 -3 3 -11 1 -18 -4 -7 -6 -33
-14 -58 -18 -25 -3 -54 -8 -65 -9 -200 -31 -294 -38 -334 -26 -22 6 -31 5 -35
-6 -3 -7 -11 -11 -19 -8 -30 11 -41 -26 -43 -142 -1 -106 1 -116 22 -139 12
-13 24 -22 26 -20 2 2 60 7 128 10 69 3 142 9 163 14 20 5 37 8 38 7 0 0 2
-16 5 -33 2 -18 6 -48 8 -65 3 -18 5 -68 5 -110 1 -63 4 -79 19 -87 23 -12 79
-21 87 -13 3 3 18 8 33 9 32 4 85 24 93 35 3 4 4 82 3 172 l-2 164 79 31 c43
17 82 31 87 31 5 0 15 7 22 14 12 16 90 56 107 56 5 0 21 9 34 21 13 12 42 34
64 50 41 29 113 105 185 194 54 67 52 64 77 115 12 25 31 61 42 80 38 69 69
148 96 241 14 52 31 108 37 124 5 17 15 48 20 70 6 22 14 49 19 60 24 57 48
129 45 133 -3 2 7 27 20 55 13 29 24 60 24 70 0 9 4 17 9 17 5 0 9 13 9 28 -1
32 20 102 31 102 4 0 7 8 8 19 1 10 10 38 21 62 68 155 120 293 128 336 3 15
9 32 13 38 4 5 16 33 26 60 10 28 30 76 46 108 15 31 25 57 22 57 -4 0 0 6 9
13 8 6 39 42 67 79 28 38 76 93 106 125 l55 56 1 -104 c0 -57 2 -180 4 -274 3
-93 5 -377 4 -630 0 -253 1 -498 1 -545 1 -47 2 -98 2 -115 -2 -265 -1 -399 3
-655 3 -168 6 -309 7 -315 0 -5 -2 -31 -6 -57 -4 -29 -3 -48 2 -48 5 0 12 -9
15 -20 4 -15 14 -20 36 -20 24 0 34 7 46 30 9 17 13 35 10 40 -11 17 -15 260
-4 260 5 0 9 -4 9 -9 0 -5 24 -9 53 -9 28 0 92 -1 140 -1 l88 -1 -3 -81 c-1
-44 -5 -82 -9 -85 -12 -7 1 -89 16 -100 8 -6 13 -13 10 -15 -2 -3 11 -5 30 -5
53 0 69 47 55 165 -5 42 -11 204 -14 361 -4 157 -8 353 -11 435 -3 83 -7 272
-10 420 -3 149 -8 378 -11 510 -3 132 -6 457 -7 723 -2 401 -4 484 -16 491 -8
5 -11 16 -8 24 11 29 -16 34 -123 21z m60 -318 l0 -63 -42 -8 c-53 -10 -207
-15 -231 -8 -14 4 -17 13 -15 46 3 38 7 44 47 64 37 19 60 22 133 21 49 0 91
2 95 6 12 11 13 6 13 -58z m-42 -180 c6 -3 12 -1 14 5 2 5 11 7 19 4 12 -4 18
-26 23 -82 11 -136 8 -190 -11 -198 -10 -4 -70 -9 -133 -11 -63 -2 -127 -6
-142 -9 l-27 -4 0 137 c0 76 3 143 7 149 4 6 23 13 42 15 54 5 196 2 208 -6z
m30 -380 c17 -4 32 -11 33 -14 0 -4 3 -53 5 -108 4 -91 3 -102 -13 -109 -10
-4 -82 -9 -160 -11 l-143 -3 -1 37 c-1 20 -1 60 -1 87 1 28 1 67 1 88 1 32 4
37 19 33 9 -2 46 -1 82 2 80 9 135 8 178 -2z m36 -357 c3 -18 6 -69 6 -115 0
-79 -2 -85 -23 -93 -19 -7 -133 -8 -263 -2 l-31 1 -2 113 -2 114 32 1 c17 0
33 2 35 5 2 2 57 4 123 5 l119 2 6 -31z m-17 -307 c14 -9 28 -221 17 -254 -5
-18 -16 -19 -155 -17 l-149 2 -1 41 c-3 167 0 228 10 222 4 -3 28 -2 51 2 63
11 213 13 227 4z m24 -399 c3 -87 -3 -189 -11 -197 -7 -7 -93 -8 -250 -3 -8 0
-22 -2 -30 -4 -13 -3 -15 15 -18 116 l-3 120 156 3 155 4 1 -39z m-10 -314 c5
-8 9 -32 9 -54 1 -22 3 -63 5 -91 4 -39 1 -53 -10 -57 -8 -3 -69 -4 -137 -3
-97 3 -126 1 -139 -11 -16 -13 -17 -5 -18 110 l-2 124 142 -2 c107 -2 143 -6
150 -16z m-1401 -149 c0 -5 -4 -10 -10 -10 -5 0 -10 5 -10 10 0 6 5 10 10 10
6 0 10 -4 10 -10z m-38 -52 c-7 -7 -12 -8 -12 -2 0 14 12 26 19 19 2 -3 -1
-11 -7 -17z m1301 -103 c76 -1 140 -4 143 -7 2 -3 6 -48 8 -100 3 -92 2 -96
-18 -96 -11 0 -58 -1 -104 -2 -51 -1 -88 3 -97 10 -15 12 -52 -1 -67 -24 -4
-6 -8 30 -8 80 0 50 -2 113 -5 140 -3 30 -2 40 3 25 7 -24 9 -24 145 -26z"/>
</g>
</svg>
