<?xml version="1.0" standalone="no"?>
<!DOCTYPE svg PUBLIC "-//W3C//DTD SVG 20010904//EN"
 "http://www.w3.org/TR/2001/REC-SVG-20010904/DTD/svg10.dtd">
<svg version="1.0" xmlns="http://www.w3.org/2000/svg"
 width="441.000000pt" height="407.000000pt" viewBox="0 0 441.000000 407.000000"
 preserveAspectRatio="xMidYMid meet">
<metadata>
Created by potrace 1.16, written by Peter Selinger 2001-2019
</metadata>
<g transform="translate(0.000000,407.000000) scale(0.100000,-0.100000)"
fill="#000000" stroke="none">
<path d="M1865 3939 c-4 -5 5 -28 19 -49 14 -22 26 -44 26 -50 0 -5 13 -38 29
-72 16 -35 38 -94 49 -133 12 -38 34 -107 50 -152 16 -46 26 -83 23 -83 -7 0
-33 63 -38 94 -4 21 -81 172 -97 189 -6 7 -24 30 -41 52 -16 22 -37 46 -47 53
-9 7 -23 18 -30 25 -22 21 -92 65 -123 78 -16 7 -37 19 -47 27 -14 12 -17 11
-23 -8 -5 -17 1 -29 32 -54 21 -19 56 -50 78 -69 22 -20 45 -37 52 -37 6 0 14
-9 18 -20 3 -10 19 -30 36 -44 16 -14 29 -28 29 -31 0 -3 18 -43 40 -89 22
-45 40 -93 40 -105 0 -12 5 -32 11 -43 7 -13 7 -19 1 -17 -13 5 -112 137 -112
149 0 5 -6 13 -13 17 -7 4 -24 24 -37 43 -13 19 -32 42 -43 50 -10 8 -43 34
-72 58 -30 23 -58 42 -63 42 -5 0 -15 7 -22 15 -7 8 -16 13 -20 10 -5 -3 -10
-2 -12 2 -8 18 -185 109 -194 100 -3 -3 0 -22 7 -42 10 -27 30 -47 80 -80 36
-25 74 -48 85 -51 53 -20 160 -124 228 -223 21 -31 45 -64 54 -74 27 -31 3
-31 -25 0 -29 32 -151 123 -165 123 -4 0 -29 15 -55 33 -85 59 -165 86 -280
94 -60 4 -87 2 -98 -7 -23 -19 -18 -40 9 -40 43 0 236 -50 236 -62 0 -3 10
-10 23 -14 12 -3 43 -22 70 -40 26 -19 49 -34 52 -34 3 0 20 -13 38 -30 18
-16 48 -44 67 -60 33 -29 31 -29 -45 11 -226 120 -271 133 -412 125 -102 -6
-185 -26 -191 -46 -2 -5 -11 -10 -20 -10 -24 -1 -56 -26 -43 -35 6 -3 11 0 11
7 0 10 2 10 9 -1 7 -10 13 -11 30 -2 26 14 172 29 197 20 11 -4 46 -12 79 -18
75 -14 191 -63 269 -113 32 -21 62 -38 66 -38 5 0 22 -12 40 -26 l31 -26 -47
-42 c-50 -45 -104 -118 -104 -142 0 -7 -4 -14 -8 -14 -5 0 -9 -6 -10 -12 0 -7
-5 -31 -11 -53 -6 -22 -11 -53 -11 -70 l0 -30 -103 -1 c-83 0 -119 -6 -192
-28 -122 -39 -161 -55 -208 -89 -36 -27 -42 -28 -66 -16 -14 8 -29 18 -33 23
-3 5 -25 9 -48 8 -23 -1 -50 3 -61 8 -14 8 -19 7 -19 -1 0 -6 -6 -9 -14 -6 -7
3 -29 2 -48 -2 -20 -5 -43 -4 -52 1 -14 8 -19 5 -23 -11 -3 -12 -10 -21 -15
-21 -5 0 -24 -16 -41 -37 -18 -20 -43 -48 -57 -63 -15 -15 -34 -48 -45 -75
-10 -27 -32 -63 -50 -81 -37 -37 -41 -65 -39 -304 1 -121 5 -154 23 -200 11
-30 21 -64 21 -74 0 -21 17 -80 31 -108 5 -10 9 -27 9 -37 0 -11 11 -36 24
-56 14 -20 28 -50 31 -67 4 -17 27 -58 51 -91 24 -32 44 -65 44 -72 0 -7 5
-15 12 -17 21 -7 -2 -57 -45 -95 -75 -68 -167 -165 -167 -178 0 -7 -18 -52
-40 -100 -46 -100 -52 -164 -22 -242 25 -64 31 -82 32 -91 3 -22 104 -134 142
-157 9 -5 36 -26 60 -46 63 -54 215 -92 359 -92 70 0 167 31 252 79 23 13 58
31 77 40 23 10 36 23 37 36 3 34 42 67 44 36 0 -7 34 -38 76 -68 42 -30 81
-61 89 -68 24 -23 174 -112 189 -112 8 0 15 -3 15 -8 0 -4 15 -12 33 -18 17
-7 59 -22 92 -34 142 -53 347 -62 455 -20 64 24 99 39 120 51 8 4 34 18 57 29
45 23 154 134 204 208 21 31 29 52 25 68 -7 25 8 73 27 89 35 29 150 169 189
230 51 79 72 151 70 243 l-1 62 57 -5 c31 -3 69 -8 85 -10 15 -3 27 -1 27 3 0
4 16 8 36 10 20 1 59 14 87 28 28 13 53 21 56 17 6 -8 41 -25 121 -59 94 -39
317 -154 330 -168 7 -9 18 -16 24 -16 41 -2 208 -219 222 -289 5 -22 12 -31
23 -29 17 4 18 52 1 117 -12 46 -91 181 -106 181 -6 0 -35 26 -65 58 -29 31
-56 56 -61 55 -4 -2 -8 1 -8 7 0 5 -17 19 -37 30 -46 25 -76 43 -83 50 -7 8
-108 55 -152 71 -21 7 -38 16 -38 20 0 4 -10 10 -22 13 -13 3 -33 14 -45 23
-22 18 -21 18 57 21 92 4 199 -18 271 -54 26 -13 53 -24 61 -24 8 0 25 -11 38
-25 12 -13 26 -23 31 -22 7 2 36 -19 97 -71 15 -12 35 -25 44 -27 18 -6 138
-125 138 -137 0 -4 9 -8 20 -8 26 0 25 10 -5 74 -26 55 -57 91 -68 79 -4 -3
-7 3 -7 14 0 35 -156 160 -275 221 -75 38 -180 72 -254 81 -40 5 -74 11 -76
13 -3 2 -2 14 2 26 5 21 10 23 62 17 199 -20 253 -32 350 -78 47 -22 91 -46
99 -53 7 -8 17 -14 21 -14 15 0 186 -173 221 -222 18 -27 38 -48 43 -48 13 0
-1 69 -19 94 -8 11 -14 27 -14 34 0 42 -152 207 -225 244 -22 12 -42 24 -45
28 -20 29 -181 85 -285 99 -49 6 -103 13 -120 15 -16 3 -36 5 -43 5 -10 1 -12
11 -9 37 3 19 7 38 10 41 6 5 42 -2 291 -62 170 -40 302 -98 391 -170 56 -46
92 -59 81 -29 -3 9 -6 20 -6 25 0 15 -101 113 -142 138 -63 38 -45 37 39 0 45
-20 83 -25 83 -11 0 11 -34 42 -46 42 -5 0 -14 8 -20 18 -6 9 -65 44 -130 77
-66 33 -121 63 -124 66 -3 3 -22 12 -42 18 -20 7 -38 15 -40 19 -4 9 -141 58
-238 84 -46 12 -93 18 -123 15 -26 -2 -50 0 -53 5 -3 4 31 8 75 9 45 1 91 1
104 2 26 1 173 -13 202 -19 35 -8 158 -24 210 -29 68 -6 171 -31 222 -55 24
-11 49 -20 57 -20 8 0 17 -6 19 -12 3 -7 6 0 6 15 1 36 -11 48 -84 82 -94 43
-95 43 -195 59 -260 42 -433 66 -508 72 -51 4 -81 11 -79 18 8 23 97 66 172
82 87 18 268 25 325 13 19 -4 60 -10 90 -13 30 -3 93 -17 140 -30 90 -27 140
-33 140 -16 0 6 -7 10 -15 10 -8 0 -15 7 -15 15 0 8 -5 15 -11 15 -5 0 -7 -4
-4 -10 3 -5 2 -10 -4 -10 -5 0 -12 9 -16 19 -5 17 -40 34 -73 36 -7 0 -17 6
-21 13 -5 8 -12 13 -17 13 -5 0 -25 4 -44 9 -69 18 -270 36 -367 34 -56 -2
-129 -12 -170 -23 -56 -14 -73 -16 -73 -6 0 25 81 174 120 222 37 44 126 201
141 248 36 110 47 177 47 262 -1 109 -26 223 -49 223 -5 0 -9 6 -9 13 -1 6
-11 25 -24 41 -23 28 -23 29 -5 47 11 11 24 19 29 19 6 0 10 4 10 9 0 5 13 14
29 21 16 6 32 18 35 27 3 8 10 11 16 8 5 -3 10 -1 10 4 0 6 9 11 20 11 11 0
20 3 20 8 0 4 43 30 95 57 60 32 95 56 95 66 0 18 -37 33 -45 19 -3 -5 -22
-14 -43 -21 -59 -18 -141 -58 -186 -88 -35 -23 -115 -61 -131 -61 -13 0 -1 20
44 68 26 28 53 52 59 52 7 0 12 4 12 8 0 15 127 131 135 124 3 -3 5 0 5 6 0 7
20 32 45 58 25 25 45 49 45 55 0 5 7 9 17 9 9 0 14 3 10 6 -7 7 17 34 30 34 4
0 19 16 33 35 14 19 31 35 38 35 6 0 12 7 12 15 0 13 -3 13 -20 3 -11 -7 -20
-16 -20 -20 0 -5 -6 -8 -14 -8 -8 0 -26 -14 -40 -31 -14 -17 -26 -27 -26 -22
0 4 -6 1 -13 -7 -7 -8 -30 -28 -52 -44 -36 -27 -75 -60 -143 -124 -84 -80
-255 -213 -263 -205 -7 7 15 59 86 193 10 19 36 59 57 89 21 30 38 62 38 71 0
10 10 29 21 44 12 15 19 30 15 33 -8 8 -71 -59 -131 -141 -27 -37 -61 -82 -75
-100 -14 -18 -34 -45 -45 -60 -52 -72 -49 -70 -76 -53 -61 39 -266 60 -404 42
-27 -3 -61 -8 -75 -9 -24 -3 -75 -22 -135 -51 -130 -61 -206 -94 -240 -105
-22 -7 -65 -25 -95 -40 -30 -16 -66 -32 -80 -35 -14 -4 -32 -14 -41 -21 -15
-14 -151 -35 -197 -32 -40 4 -46 31 -67 273 -17 194 -28 231 -99 313 -36 41
-48 21 -20 -33 8 -16 20 -52 25 -80 11 -55 23 -263 16 -255 -3 3 -22 48 -42
100 -58 150 -131 293 -166 328 -35 34 -44 38 -54 21z m1625 -527 c47 -22 97
-53 111 -68 14 -16 39 -41 55 -56 53 -49 96 -119 114 -186 19 -74 15 -209 -9
-281 -11 -35 -21 -70 -21 -78 0 -7 -4 -13 -10 -13 -5 0 -10 -7 -10 -15 0 -9
-11 -33 -25 -55 -14 -22 -25 -45 -25 -51 0 -6 -11 -24 -25 -41 -14 -16 -25
-35 -25 -42 0 -6 -12 -23 -27 -37 -16 -13 -34 -36 -42 -49 -61 -106 -79 -142
-86 -176 -5 -21 -9 -44 -10 -50 -2 -6 -14 -23 -28 -38 -25 -27 -26 -45 -4 -74
5 -7 7 -15 3 -19 -3 -3 -6 -1 -6 5 0 7 -4 12 -9 12 -6 0 -22 11 -37 25 -37 34
-103 64 -144 65 -136 3 -269 -9 -313 -26 -51 -21 -159 -119 -183 -166 -8 -16
-19 -28 -24 -28 -6 0 -10 -6 -10 -14 0 -7 -7 -19 -15 -26 -9 -7 -13 -15 -11
-18 3 -2 -1 -17 -9 -32 -20 -39 -27 -145 -14 -215 6 -33 11 -75 12 -92 1 -18
7 -33 12 -33 6 0 19 -15 28 -33 30 -56 114 -133 177 -164 59 -28 72 -44 48
-60 -9 -5 -13 -39 -14 -103 0 -107 -9 -130 -73 -199 -22 -24 -46 -56 -53 -70
-6 -14 -29 -41 -49 -59 l-38 -33 -43 43 c-86 85 -124 110 -278 182 -52 24
-112 58 -134 75 -21 17 -42 31 -46 31 -5 0 -26 15 -48 33 -22 17 -51 41 -66
51 -14 10 -26 22 -26 25 0 3 32 6 70 5 62 -1 79 3 150 38 88 43 129 86 245
260 14 21 25 44 25 53 0 8 4 15 9 15 11 0 26 111 25 195 -1 66 -5 77 -61 182
-33 62 -84 143 -112 181 -48 65 -140 142 -169 142 -7 0 -23 6 -35 14 -12 7
-42 17 -67 20 -24 4 -47 12 -51 18 -5 8 -16 8 -38 0 -26 -9 -33 -9 -37 3 -15
39 -173 24 -281 -27 -70 -33 -139 -103 -177 -177 -12 -25 -35 -68 -50 -95 -15
-27 -31 -72 -37 -99 -5 -28 -11 -53 -14 -55 -9 -9 -134 131 -155 173 -11 22
-33 63 -49 90 -17 28 -30 58 -30 69 -1 10 -21 56 -46 102 -38 71 -44 87 -35
109 9 23 4 35 -31 88 -23 34 -48 67 -55 73 -44 36 186 134 330 141 39 2 92 -2
118 -9 39 -10 49 -17 63 -48 29 -64 136 -164 214 -202 39 -18 71 -39 71 -46 0
-24 87 -52 162 -52 68 0 138 21 138 41 0 5 5 9 10 9 20 0 115 67 171 121 101
97 133 196 109 337 -11 68 -58 162 -81 162 -5 0 -9 6 -9 14 0 15 -72 66 -95
66 -8 0 -15 3 -15 8 0 4 33 7 73 7 96 1 217 27 217 47 0 5 7 8 16 8 9 0 28 7
42 15 29 15 182 75 194 75 5 0 49 20 100 45 50 25 112 50 137 56 25 6 55 13
66 16 36 10 249 18 285 11 19 -4 73 -25 120 -46z m-1510 -107 c0 -9 -9 -15
-22 -15 -21 0 -21 0 -2 15 24 18 24 18 24 0z m98 -53 c-5 -2 -15 2 -23 8 -13
11 -13 14 2 26 16 11 19 10 24 -9 3 -12 1 -24 -3 -25z m-282 11 c-10 -10 -19
5 -10 18 6 11 8 11 12 0 2 -7 1 -15 -2 -18z m184 -68 c0 -3 -9 -14 -21 -26
-25 -25 -20 -45 12 -41 131 15 140 15 169 -7 16 -11 33 -21 38 -21 4 0 13 -5
20 -12 9 -9 8 -16 -5 -30 -9 -10 -21 -18 -28 -18 -6 0 -31 -18 -54 -39 -49
-45 -65 -53 -78 -40 -7 7 -24 5 -51 -4 l-40 -14 -48 44 c-55 49 -85 55 -102
19 -10 -23 -7 -28 43 -68 50 -40 53 -46 52 -84 -2 -35 -11 -50 -63 -107 -34
-37 -64 -67 -68 -67 -3 0 -26 19 -50 42 -85 78 -105 165 -64 273 42 109 168
201 281 204 31 0 57 -1 57 -4z m320 -180 c0 -9 9 -33 19 -53 53 -105 41 -207
-35 -285 -24 -25 -44 -44 -44 -41 0 3 -12 -7 -27 -21 -49 -46 -102 -68 -168
-68 -51 0 -72 6 -142 41 -44 23 -87 42 -93 42 -26 0 3 57 53 101 46 41 54 45
70 34 12 -9 37 -12 69 -9 50 5 50 5 115 -57 45 -43 67 -59 75 -51 13 13 -36
106 -71 133 -18 14 -26 33 -31 69 -8 60 -7 60 105 120 44 23 82 46 83 51 6 15
22 10 22 -6z m-1402 -372 c2 -7 9 -13 14 -13 12 0 52 -42 78 -81 8 -12 22 -30
31 -39 10 -10 13 -23 9 -30 -13 -20 0 -53 80 -200 10 -19 29 -57 42 -85 56
-120 119 -214 190 -287 41 -41 82 -79 90 -84 9 -5 18 -25 21 -44 7 -54 26
-119 37 -125 6 -4 34 -39 64 -78 80 -108 167 -193 227 -221 33 -15 46 -26 86
-68 27 -28 62 -57 158 -134 55 -43 106 -85 113 -91 7 -7 20 -13 28 -13 8 0 14
-4 14 -9 0 -5 17 -17 38 -26 20 -10 44 -26 53 -37 9 -10 21 -18 27 -18 12 0
120 -52 185 -89 68 -38 137 -108 137 -137 0 -13 5 -24 10 -24 21 0 9 -49 -21
-86 -42 -53 -112 -114 -125 -110 -6 2 -16 -5 -22 -15 -7 -10 -17 -19 -23 -19
-6 0 -17 -7 -25 -15 -9 -8 -27 -18 -42 -22 -15 -3 -29 -10 -33 -14 -3 -5 -51
-16 -108 -26 -153 -25 -263 -4 -471 89 -46 21 -141 83 -189 123 -26 22 -83 69
-125 105 -43 36 -104 90 -135 120 -31 31 -77 73 -103 93 -25 20 -61 54 -80 74
-18 20 -48 53 -66 72 -48 51 -128 143 -154 177 -12 16 -28 34 -34 39 -6 6 -26
31 -43 58 -18 26 -36 47 -41 47 -5 0 -7 7 -4 15 4 8 1 15 -6 15 -6 0 -8 5 -5
10 4 6 -4 22 -18 36 -14 14 -32 40 -41 59 -9 19 -23 41 -31 49 -8 8 -39 61
-69 118 -54 103 -89 204 -101 288 -4 25 -11 65 -17 90 -6 25 -10 96 -10 158 1
132 21 215 58 244 13 11 24 25 24 33 0 17 64 93 104 123 28 21 39 23 125 20
64 -2 96 -7 99 -15z m980 -363 c4 -1 43 -1 87 -2 44 -1 93 -6 108 -13 26 -11
27 -12 10 -27 -78 -68 -199 -104 -338 -101 -33 1 -61 7 -63 12 -2 6 -10 11
-18 11 -12 0 -12 4 1 29 19 37 62 69 140 102 56 24 60 25 63 8 2 -11 6 -19 10
-19z m362 -80 c8 -5 10 -10 4 -10 -6 0 -27 -15 -46 -32 -85 -81 -124 -109
-186 -138 -126 -59 -129 -60 -232 -66 -47 -3 -101 -10 -120 -15 -19 -5 -50 -9
-67 -9 -29 0 -33 3 -33 28 0 15 9 47 20 70 l20 44 52 -9 c143 -23 283 5 445
87 65 33 120 60 123 60 3 0 12 -5 20 -10z m91 -91 c9 -18 6 -26 -30 -62 -23
-22 -41 -44 -41 -50 0 -10 -109 -117 -120 -117 -3 0 -15 -9 -27 -19 -44 -41
-133 -71 -220 -73 -13 0 -23 -4 -23 -9 0 -5 -15 -9 -32 -9 -18 0 -56 -6 -83
-14 -49 -13 -69 -13 -152 0 -42 6 -43 7 -43 45 0 21 3 39 8 40 4 0 14 2 22 4
47 10 147 27 230 39 121 18 129 20 173 45 20 11 37 18 37 15 0 -8 112 55 125
70 14 16 149 116 157 116 4 0 12 -9 19 -21z m772 -24 c12 -2 36 -7 52 -11 50
-11 69 -12 82 -2 14 12 83 -26 83 -45 0 -12 -10 -24 -95 -123 -38 -45 -50 -52
-81 -52 -24 0 -37 5 -42 17 -7 18 -22 36 -37 42 -23 10 -175 114 -175 120 0
23 137 72 173 62 11 -3 29 -6 40 -8z m-693 -100 c0 -8 -4 -15 -10 -15 -5 0
-10 -7 -10 -15 0 -8 -4 -15 -10 -15 -5 0 -10 -6 -10 -13 0 -44 -74 -126 -190
-210 -65 -48 -217 -137 -233 -137 -7 0 -18 -5 -24 -11 -6 -6 -51 -12 -100 -14
-95 -4 -117 6 -157 68 -17 24 -16 26 6 33 25 8 41 12 73 18 11 2 28 7 37 10 9
4 22 9 30 10 7 2 24 6 38 9 14 3 53 9 87 12 34 3 74 12 90 20 15 8 33 15 39
15 5 0 19 8 30 18 10 10 34 24 52 31 17 7 32 17 32 22 0 5 7 9 15 9 8 0 54 38
102 85 87 83 113 100 113 70z m990 -34 c0 -5 13 -22 29 -37 33 -33 64 -128 56
-171 -19 -108 -28 -139 -51 -179 -82 -139 -216 -199 -365 -164 -61 14 -141 52
-172 81 -12 10 -24 19 -29 19 -11 0 -48 38 -48 50 0 6 -4 10 -9 10 -5 0 -14
15 -21 33 -7 17 -19 46 -26 64 -20 45 -17 134 7 206 28 85 40 96 76 71 44 -29
57 -37 111 -66 28 -15 53 -32 56 -37 4 -5 1 -30 -6 -56 -10 -37 -10 -50 0 -66
12 -18 8 -25 -32 -62 -24 -23 -47 -52 -51 -65 -4 -13 -9 -21 -12 -18 -3 2 -14
-4 -26 -14 -11 -11 -18 -22 -15 -26 11 -10 72 28 125 77 34 32 61 49 77 49 37
0 40 1 53 11 13 12 14 11 38 -63 11 -32 23 -58 27 -58 4 0 8 -7 8 -15 0 -8 7
-15 15 -15 12 0 15 9 11 38 -3 20 -5 37 -6 37 -1 0 -3 11 -5 25 -2 14 -8 39
-13 56 -6 19 -6 37 -1 45 5 8 8 28 7 44 -2 25 7 39 52 80 30 28 70 67 90 87
35 37 50 46 50 29z m-937 -118 c-8 -6 -16 -17 -17 -25 -5 -30 -39 -77 -103
-143 -75 -76 -173 -164 -201 -179 -9 -5 -19 -12 -22 -15 -12 -14 -68 -40 -74
-34 -3 3 -6 0 -6 -7 0 -7 -3 -11 -6 -8 -3 4 -19 2 -35 -2 -20 -6 -38 -4 -57 6
-15 7 -33 14 -40 14 -7 0 -23 5 -35 11 -19 11 -15 14 48 34 104 34 245 106
245 126 0 5 6 9 13 9 8 0 25 13 40 29 14 16 41 37 59 45 19 9 70 53 113 99 59
61 82 78 86 67 4 -8 0 -20 -8 -27z m1255 34 c6 -5 12 -7 12 -3 0 3 12 1 28 -5
15 -6 34 -12 42 -13 8 -1 33 -10 54 -19 22 -10 41 -15 44 -12 3 2 17 -4 32
-15 16 -11 33 -20 38 -20 5 0 23 -7 38 -16 33 -18 31 -18 -121 25 -152 43
-275 81 -275 86 0 9 95 1 108 -8z m-1272 -254 c-67 -98 -131 -173 -150 -173
-9 0 -16 -6 -16 -14 0 -15 -41 -33 -104 -46 l-38 -8 25 24 c15 13 29 24 32 24
10 0 131 107 204 181 70 70 89 75 47 12z m-1666 -347 c0 -6 8 -19 18 -28 36
-36 60 -64 78 -93 10 -16 21 -32 24 -35 3 -3 17 -21 29 -40 37 -55 151 -173
260 -269 28 -25 49 -47 46 -49 -5 -5 -107 18 -120 28 -5 4 -27 13 -48 20 -22
7 -51 18 -65 26 -15 8 -34 14 -42 14 -19 0 -106 81 -156 145 -21 28 -41 52
-45 55 -3 3 -14 20 -24 39 -12 25 -17 59 -17 131 0 54 3 103 6 109 8 12 56
-34 56 -53z m-171 -88 c4 -68 9 -94 25 -132 9 -21 16 -42 16 -46 0 -5 3 -10 8
-12 4 -1 20 -23 37 -48 80 -122 150 -178 292 -234 60 -23 129 -48 156 -56 26
-7 47 -16 47 -20 0 -4 -37 -22 -83 -41 -97 -39 -172 -41 -302 -8 -112 29 -136
42 -219 123 -67 66 -74 77 -100 158 -31 95 -30 124 6 199 28 59 90 140 114
149 0 0 2 -15 3 -32z"/>
<path d="M860 2280 c0 -6 -13 -10 -28 -10 -15 0 -33 -5 -38 -10 -6 -6 -36 -11
-67 -11 -31 -1 -61 -6 -66 -13 -9 -11 -9 -71 0 -81 9 -8 103 -10 120 -2 12 6
19 -4 33 -50 9 -32 21 -67 26 -78 14 -30 66 -174 81 -220 15 -50 98 -213 122
-239 9 -11 17 -25 17 -32 0 -6 9 -23 20 -37 l20 -26 -25 -26 c-31 -30 -27 -53
16 -102 15 -18 35 -48 44 -68 10 -19 21 -35 26 -35 5 0 9 -4 9 -10 0 -22 80
-89 115 -96 19 -3 38 -10 41 -15 3 -5 13 -5 23 1 15 8 33 -4 99 -65 44 -41 85
-75 91 -75 6 0 15 -8 20 -18 5 -10 22 -24 38 -32 15 -8 35 -22 43 -31 8 -9 42
-31 75 -49 33 -17 67 -38 75 -45 8 -7 26 -16 40 -20 14 -4 45 -20 70 -35 25
-16 57 -33 73 -39 15 -6 27 -15 27 -21 0 -5 5 -9 11 -8 12 3 22 -13 36 -57 8
-26 13 -30 42 -28 38 1 40 3 44 29 1 10 17 48 34 84 43 89 45 113 14 130 -26
13 -50 3 -62 -27 -8 -21 -13 -23 -46 -17 -21 4 -60 20 -88 37 -27 16 -59 33
-70 38 -11 5 -42 23 -70 39 -27 16 -62 35 -77 42 -16 7 -28 16 -28 21 0 4 -4
5 -10 2 -5 -3 -10 -2 -10 3 0 5 -16 17 -36 27 -19 9 -64 43 -99 76 l-63 60 14
45 c12 41 12 51 -6 101 -10 30 -30 65 -43 77 -14 13 -28 33 -32 44 -4 14 -15
22 -29 22 -19 0 -22 4 -19 23 5 24 -15 46 -82 88 -33 22 -51 26 -108 25 -37
-1 -67 2 -67 5 0 3 -25 46 -56 95 -53 83 -72 126 -153 359 -51 144 -50 143
-35 149 8 3 14 14 14 24 0 10 4 22 9 28 6 5 5 15 -2 24 -16 20 -67 43 -67 30z"/>
</g>
</svg>
