<?xml version="1.0" standalone="no"?>
<!DOCTYPE svg PUBLIC "-//W3C//DTD SVG 20010904//EN"
 "http://www.w3.org/TR/2001/REC-SVG-20010904/DTD/svg10.dtd">
<svg version="1.0" xmlns="http://www.w3.org/2000/svg"
 width="557.000000pt" height="455.000000pt" viewBox="0 0 557.000000 455.000000"
 preserveAspectRatio="xMidYMid meet">
<metadata>
Created by potrace 1.16, written by Peter Selinger 2001-2019
</metadata>
<g transform="translate(0.000000,455.000000) scale(0.100000,-0.100000)"
fill="#000000" stroke="none">
<path d="M2995 4291 c-20 -5 -29 -12 -27 -23 1 -9 -6 -19 -17 -23 -19 -6 -20
-14 -15 -273 3 -150 1 -273 -4 -281 -8 -10 -55 -13 -233 -12 -288 1 -291 0
-313 -49 -9 -21 -21 -86 -26 -144 -5 -59 -12 -111 -15 -116 -3 -5 -8 -51 -12
-102 -3 -51 -12 -105 -19 -120 -8 -15 -14 -36 -14 -48 0 -11 -6 -20 -12 -21
-7 0 -82 -1 -165 -3 -175 -3 -158 -14 -168 109 -4 44 -11 109 -17 145 -5 36
-13 108 -18 160 -4 52 -15 127 -23 165 -9 39 -21 99 -27 135 -6 36 -16 81 -20
100 -5 19 -14 56 -20 83 -13 52 -29 59 -68 31 -17 -11 -22 -24 -20 -44 1 -15
-4 -35 -11 -44 -17 -20 -9 -80 24 -191 22 -76 55 -259 60 -335 1 -19 6 -82 10
-140 11 -134 9 -155 -17 -212 -20 -45 -20 -49 -4 -67 10 -11 25 -17 36 -14 16
4 18 0 15 -28 -6 -48 -23 -152 -40 -234 -14 -75 -33 -199 -39 -252 -4 -44 21
-67 57 -54 28 11 32 22 42 116 5 51 41 243 77 408 l10 48 119 -2 c66 -1 122
-6 125 -11 3 -4 9 -6 13 -4 4 3 22 8 39 11 l31 5 -2 -54 c-2 -30 -6 -58 -10
-62 -3 -4 2 -19 13 -34 19 -27 46 -35 67 -18 7 6 20 1 35 -14 21 -19 25 -34
27 -88 1 -35 4 -67 6 -70 2 -3 6 -44 9 -90 10 -144 11 -147 59 -152 23 -3 48
-3 55 0 22 8 29 41 21 92 -9 59 -11 112 -10 270 2 112 3 122 15 100 8 -14 12
-28 10 -32 -3 -5 -1 -8 4 -8 5 0 15 -21 21 -47 7 -26 21 -66 32 -89 10 -24 19
-46 19 -49 0 -3 9 -25 19 -48 36 -80 60 -149 55 -162 -3 -7 8 -20 27 -29 30
-15 33 -15 45 2 7 9 14 13 14 7 0 -5 4 -4 9 4 9 14 -12 77 -93 280 -25 63 -46
120 -46 126 0 6 -9 30 -20 53 -27 55 -25 70 4 35 35 -41 157 -67 235 -50 l34
7 -7 -72 c-4 -40 -9 -118 -12 -173 -3 -55 -6 -117 -8 -137 -8 -70 51 -109 87
-58 8 11 11 41 9 77 -5 100 -2 185 10 276 9 65 9 96 1 118 -11 27 -10 29 15
35 15 3 40 10 56 15 25 8 33 5 60 -23 17 -17 49 -36 70 -42 21 -6 42 -18 47
-26 4 -8 17 -57 29 -109 11 -51 36 -138 54 -192 21 -64 29 -100 22 -102 -16
-6 29 -47 51 -47 28 1 53 25 53 52 0 13 -9 43 -20 66 -11 22 -20 50 -20 61 0
11 -4 22 -9 26 -6 3 -10 13 -9 23 0 9 -9 53 -21 96 -12 44 -21 80 -21 82 0 1
19 5 43 9 23 4 49 12 57 19 38 29 65 36 142 37 66 1 90 -3 118 -18 l35 -20 -4
-159 c-2 -87 -6 -167 -10 -177 -13 -34 -1 -74 25 -86 33 -15 41 -14 62 7 16
16 17 34 15 152 -3 184 4 240 29 240 11 0 34 11 52 25 17 14 36 29 41 34 20
15 179 -5 196 -25 6 -8 17 -14 25 -14 15 0 42 -80 50 -150 3 -25 10 -60 16
-78 6 -19 15 -68 22 -110 13 -87 28 -103 77 -85 26 10 34 9 46 -3 10 -9 23
-12 37 -7 11 4 32 7 46 8 14 1 34 4 46 8 20 7 20 13 17 217 -3 205 -3 210 17
210 12 0 20 -7 21 -17 0 -10 2 -38 4 -63 2 -25 7 -97 10 -160 3 -63 10 -133
16 -155 9 -35 14 -41 37 -40 41 0 63 47 51 105 -5 25 -11 72 -13 105 -2 33 -9
98 -16 144 -13 89 -8 227 9 244 12 12 230 15 289 4 24 -5 42 -14 42 -22 0 -8
18 -67 39 -132 22 -65 44 -146 51 -180 6 -35 22 -92 35 -128 14 -36 25 -67 25
-70 0 -3 0 -21 0 -41 0 -19 4 -33 9 -29 5 3 12 1 15 -3 10 -16 53 -1 66 24 11
19 10 33 -5 79 -9 31 -24 62 -32 70 -8 9 -13 21 -10 28 2 6 -2 24 -10 39 -7
15 -15 50 -18 77 -3 28 -10 63 -16 78 -33 82 -68 283 -50 283 14 0 28 72 26
140 -1 36 4 99 11 140 7 41 16 127 20 190 3 63 8 119 11 124 3 4 6 27 8 50 4
76 17 144 30 162 9 12 10 26 4 41 -5 13 -6 30 -3 38 11 28 -5 65 -28 65 -12 0
-37 5 -55 12 -59 21 -63 8 -78 -243 -7 -122 -25 -277 -34 -303 -4 -12 -9 -66
-10 -121 -2 -55 -6 -118 -10 -140 l-6 -40 -65 -1 c-36 -1 -67 -2 -70 -3 -3 -1
-57 -4 -120 -7 -63 -2 -123 -5 -134 -6 -10 -2 -22 4 -26 12 -11 20 -40 188
-40 229 0 17 -9 59 -20 92 -11 33 -19 63 -16 67 2 4 -1 30 -8 57 -11 44 -17
52 -55 71 -34 16 -52 19 -89 13 -26 -4 -52 -3 -58 2 -7 6 -13 53 -16 114 -2
57 -7 107 -11 111 -4 4 -25 7 -46 6 -22 -1 -42 2 -46 7 -3 6 -18 6 -35 1 -30
-9 -144 -5 -161 6 -5 3 -26 8 -47 10 -51 6 -74 11 -95 19 -9 4 -24 2 -32 -5
-8 -6 -19 -9 -24 -6 -5 4 -12 2 -16 -4 -3 -5 -17 -10 -31 -10 -44 0 -50 -15
-43 -114 4 -50 10 -103 14 -118 9 -33 22 -32 -275 -28 l-45 0 -29 134 c-16 74
-26 141 -23 150 3 8 2 18 -3 21 -10 6 -10 7 -10 147 -1 99 -2 108 -22 122 -17
12 -24 13 -30 3 -6 -9 -8 -9 -8 0 0 21 -112 33 -182 20 -22 -5 -39 -4 -43 3
-7 11 -15 11 -60 1z m27 -123 c-7 -7 -12 -8 -12 -2 0 6 3 14 7 17 3 4 9 5 12
2 2 -3 -1 -11 -7 -17z m178 6 c0 -8 -4 -12 -10 -9 -5 3 -10 10 -10 16 0 5 5 9
10 9 6 0 10 -7 10 -16z m743 -321 c-7 -2 -19 -2 -25 0 -7 3 -2 5 12 5 14 0 19
-2 13 -5z m112 -13 c3 -5 12 -7 20 -3 8 3 15 0 15 -6 0 -15 -20 -13 -50 4 -18
10 -20 14 -8 15 9 0 19 -4 23 -10z m-319 -253 c4 -4 9 -49 10 -99 5 -162 14
-281 25 -348 11 -67 20 -230 12 -230 -3 0 -18 9 -33 20 -25 18 -40 20 -112 16
-100 -5 -100 -5 -166 -39 -71 -36 -96 -35 -167 2 -33 17 -67 31 -75 31 -9 0
-24 14 -34 31 -17 29 -20 30 -79 28 -61 -2 -124 -23 -157 -51 -9 -8 -32 -22
-50 -32 -32 -16 -38 -16 -105 1 -38 10 -76 26 -83 35 -7 10 -36 29 -65 43 -45
23 -57 25 -87 16 -19 -5 -47 -12 -61 -15 -14 -3 -49 -24 -77 -47 l-52 -41 -9
24 c-5 12 -6 27 -4 31 3 5 5 33 4 64 0 31 4 64 10 74 5 10 12 49 14 86 5 65
21 196 29 240 3 12 8 42 11 67 5 28 12 46 20 46 8 0 15 7 17 16 4 19 54 23
368 28 165 2 223 -1 248 -11 29 -12 35 -12 48 2 12 12 19 13 30 4 7 -6 18 -8
25 -4 6 4 34 11 63 14 67 10 472 8 482 -2z m673 -6 c15 -11 28 -39 37 -77 15
-62 42 -210 50 -279 3 -22 9 -53 15 -70 12 -33 59 -215 59 -228 0 -4 -8 -4
-17 1 -10 5 -24 7 -31 5 -7 -3 -26 0 -42 7 -32 13 -53 6 -104 -37 -16 -13 -38
-23 -50 -21 -18 3 -21 10 -23 61 -1 32 -4 64 -6 71 -3 7 4 18 14 24 23 15 24
38 2 104 -14 43 -15 65 -6 157 6 58 9 150 8 203 l-3 97 37 -1 c21 0 48 -8 60
-17z m-509 -477 c0 -2 -7 -4 -15 -4 -8 0 -15 4 -15 10 0 5 7 7 15 4 8 -4 15
-8 15 -10z m256 -76 c41 4 41 4 47 -35 11 -67 9 -85 -10 -79 -10 2 -67 7 -128
11 -100 6 -112 5 -131 -13 -11 -11 -30 -24 -41 -30 -21 -11 -21 -10 -16 51 3
34 11 65 17 69 6 4 36 10 66 13 30 4 73 12 95 20 31 10 42 10 50 1 6 -7 27
-11 51 -8z m210 -309 c3 -41 10 -98 15 -128 5 -30 9 -64 8 -75 -1 -32 -27 69
-44 173 -12 75 -13 96 -3 102 7 4 14 7 15 5 2 -1 6 -36 9 -77z"/>
<path d="M2820 2088 c0 -4 -7 -8 -15 -8 -8 0 -15 -4 -15 -8 0 -4 -8 -8 -17 -9
-10 -1 -27 -3 -38 -6 -11 -2 -31 -1 -45 3 -16 4 -34 1 -47 -8 -13 -8 -23 -10
-23 -6 0 11 -52 14 -182 11 -42 -1 -80 -5 -84 -9 -4 -4 -1 -40 6 -80 7 -40 14
-95 17 -123 2 -27 10 -70 17 -95 8 -25 14 -58 15 -75 1 -30 5 -61 16 -113 4
-15 7 -73 8 -129 l2 -103 -85 -1 c-47 0 -145 -1 -217 -2 l-133 -2 -11 53 c-12
59 -16 97 -25 262 -8 148 -37 239 -70 226 -7 -3 -16 -1 -19 3 -6 10 -98 6
-170 -9 -27 -5 -97 -14 -155 -19 -130 -11 -175 -28 -183 -67 -3 -16 -2 -76 4
-134 24 -258 26 -308 9 -309 -8 0 -89 0 -180 0 -91 1 -187 1 -215 0 -63 -1
-101 -27 -97 -64 2 -14 -2 -36 -8 -47 -10 -19 -23 -130 -22 -182 0 -10 -3 -20
-9 -23 -5 -4 -9 -16 -9 -28 0 -22 -2 -22 -127 -20 -69 2 -128 5 -131 8 -3 3
-7 20 -9 38 -2 18 -5 50 -8 72 -2 22 -11 90 -20 150 -9 61 -22 151 -29 201 -7
50 -16 95 -19 100 -3 5 -8 34 -12 64 -4 30 -9 58 -10 61 -8 13 -55 253 -50
257 5 5 -34 42 -45 42 -3 0 -16 -9 -27 -19 -12 -11 -29 -18 -40 -15 -11 3 -26
-3 -37 -15 -17 -19 -17 -24 -3 -68 8 -26 20 -79 27 -118 6 -38 20 -106 31
-150 22 -93 24 -105 39 -290 6 -77 13 -147 16 -155 3 -8 8 -69 11 -135 4 -86
10 -127 21 -145 9 -14 15 -29 13 -35 -2 -5 -8 -30 -13 -55 -11 -52 -16 -73
-18 -80 -1 -3 -3 -21 -5 -40 -1 -19 -8 -66 -14 -105 -13 -79 -13 -78 -35 -195
-26 -146 -28 -154 -31 -204 -3 -51 10 -76 39 -76 21 0 58 51 53 72 -3 10 8 77
23 150 15 73 31 160 34 192 3 33 12 89 21 125 24 103 46 205 47 219 1 6 6 12
12 13 57 4 131 3 181 -3 33 -3 67 -2 77 3 10 5 18 6 19 2 3 -34 -1 -123 -7
-146 -9 -39 8 -55 60 -52 42 1 45 0 51 -29 3 -17 8 -78 11 -136 3 -58 12 -148
19 -200 8 -52 17 -114 19 -137 7 -73 62 -101 86 -44 12 29 10 63 -10 161 -12
61 -18 132 -26 303 l-7 145 34 11 c59 19 54 38 65 -234 8 -198 9 -256 4 -329
-3 -41 0 -51 20 -66 21 -16 28 -17 50 -5 23 12 31 12 55 -1 15 -8 36 -12 45
-9 34 11 35 70 10 365 -6 63 -12 155 -13 204 -3 82 -2 87 12 70 13 -16 81 -43
147 -60 16 -4 21 -56 23 -239 1 -198 11 -324 24 -332 5 -3 23 -7 38 -9 25 -3
30 1 37 29 5 18 5 42 0 55 -4 13 -9 129 -11 259 -3 227 -2 235 17 245 12 6 29
21 38 34 10 12 33 25 51 29 17 4 52 13 76 21 44 15 45 15 88 -16 24 -17 43
-28 43 -24 0 5 5 3 12 -4 7 -7 20 -12 29 -12 17 0 18 -5 43 -165 11 -66 25
-131 34 -156 6 -14 13 -52 17 -85 4 -32 11 -64 16 -70 9 -11 17 -57 18 -101 1
-33 29 -56 60 -48 14 4 29 12 34 18 10 15 2 76 -19 152 -9 33 -18 69 -19 80
-10 59 -26 128 -32 138 -4 7 -14 53 -23 103 l-16 92 43 -2 c24 0 43 -5 43 -10
0 -5 6 -4 13 1 6 5 23 10 36 11 13 0 43 14 65 30 23 16 60 39 84 52 l42 24 48
-20 47 -20 -2 -264 c-1 -146 -2 -278 -3 -295 -2 -47 5 -68 27 -82 17 -12 23
-11 46 7 l26 21 2 252 c2 316 2 317 15 317 6 0 29 -6 51 -14 36 -13 138 -15
222 -4 22 3 25 -3 42 -72 11 -41 21 -91 24 -110 7 -61 45 -314 51 -345 3 -16
12 -38 21 -47 20 -22 53 -24 53 -3 0 19 5 19 33 1 23 -15 97 -20 97 -6 0 13
33 21 44 10 18 -18 74 -12 86 10 6 11 8 25 5 30 -3 6 -1 10 5 10 7 0 7 7 -2
22 -15 29 -14 420 2 493 6 28 11 82 10 121 -2 85 -11 81 165 80 l120 -1 17
-36 c9 -20 24 -63 32 -95 8 -33 31 -117 52 -189 20 -72 38 -139 39 -151 1 -11
4 -24 7 -30 10 -16 68 -226 68 -246 0 -26 44 -42 71 -25 33 20 33 52 1 150
-33 96 -110 379 -133 482 -7 33 -21 83 -30 110 -15 42 -15 52 -4 65 8 9 17 31
20 49 3 19 10 41 14 50 5 9 12 39 16 66 9 69 10 79 30 173 19 97 16 77 54 312
61 381 61 380 13 380 -15 0 -38 -7 -50 -16 -12 -8 -22 -12 -22 -8 0 3 -6 1
-13 -5 -9 -7 -13 -31 -12 -68 0 -32 -5 -80 -12 -108 -7 -27 -14 -79 -17 -115
-3 -36 -16 -101 -31 -145 -14 -44 -28 -111 -31 -150 -6 -68 -17 -119 -48 -219
-9 -26 -13 -52 -10 -58 16 -26 -19 -34 -168 -37 -84 -1 -155 -5 -157 -7 -9 -8
-69 190 -77 251 -2 16 -8 31 -14 33 -5 2 -10 14 -10 27 0 40 -11 54 -43 60
-77 12 -87 13 -87 7 0 -4 -24 -6 -53 -5 -129 3 -115 -4 -122 58 -4 30 -2 106
4 167 6 62 13 165 16 228 5 122 13 205 21 231 2 9 -2 29 -10 44 -12 22 -22 28
-50 30 -20 0 -36 -3 -36 -7z m-350 -143 c0 -8 -4 -15 -10 -15 -5 0 -10 7 -10
15 0 8 5 15 10 15 6 0 10 -7 10 -15z m60 -705 c91 1 172 1 180 0 8 0 97 0 196
0 190 0 185 1 199 -40 1 -3 4 -12 8 -20 3 -8 13 -40 23 -70 9 -30 20 -59 24
-65 6 -10 15 -39 41 -135 7 -25 13 -71 13 -104 1 -49 -2 -61 -19 -70 -11 -6
-22 -13 -25 -16 -3 -3 -11 -5 -17 -4 -7 1 -24 2 -37 3 -14 1 -26 9 -29 20 -3
14 -11 18 -26 14 -14 -3 -35 4 -61 22 -45 31 -83 30 -127 -5 -14 -11 -32 -20
-40 -20 -8 0 -21 -6 -29 -14 -17 -17 -117 -16 -203 3 -51 10 -196 75 -206 91
-6 10 -92 -13 -107 -28 -7 -7 -16 -12 -21 -12 -5 0 -32 -16 -61 -35 -55 -37
-131 -51 -173 -32 -26 11 -37 59 -24 104 5 17 6 47 1 66 -4 19 -4 40 -1 46 4
6 4 39 0 74 -7 56 -13 184 -10 214 1 9 44 12 158 12 86 1 158 3 161 5 2 3 14
3 25 0 12 -2 96 -4 187 -4z m-1160 -12 c43 -4 50 -17 61 -128 6 -66 5 -88 -6
-100 -7 -8 -14 -37 -16 -65 -1 -27 -6 -54 -10 -60 -4 -5 -9 -21 -11 -34 -3
-23 11 -36 60 -57 8 -4 11 -54 4 -54 -23 0 -81 27 -122 56 -25 18 -58 36 -73
39 -15 4 -29 11 -32 15 -8 12 -97 -1 -129 -20 -41 -24 -148 -76 -175 -85 -19
-6 -21 -2 -22 32 -1 21 -1 42 0 47 1 5 4 43 7 85 3 42 11 85 16 96 10 16 16
53 30 171 2 12 11 32 22 46 l19 25 171 -3 c94 -2 187 -5 206 -6z m230 -436 c0
-5 -12 -20 -27 -35 l-28 -26 0 35 c0 30 3 34 28 34 15 0 27 -4 27 -8z m305 -1
c10 -17 -12 -21 -25 -6 -10 12 -10 15 3 15 9 0 18 -4 22 -9z m1103 -180 c1
-31 3 -100 6 -153 3 -54 2 -98 -3 -98 -4 0 -14 35 -20 78 -13 79 -31 177 -41
227 -7 31 0 36 29 19 26 -15 29 -22 29 -73z m178 -212 c-2 -132 -6 -243 -9
-245 -10 -10 -24 132 -32 324 -3 62 -6 116 -6 120 -4 26 5 35 44 41 4 0 5
-107 3 -240z m-1971 -41 c3 -37 1 -46 -5 -28 -9 29 -13 96 -4 88 3 -3 7 -30 9
-60z m1804 -45 c0 -31 -2 -34 -9 -18 -12 28 -12 55 0 55 6 0 10 -17 9 -37z
m-1802 -60 c-3 -10 -5 -2 -5 17 0 19 2 27 5 18 2 -10 2 -26 0 -35z m0 -55 c-3
-7 -5 -2 -5 12 0 14 2 19 5 13 2 -7 2 -19 0 -25z"/>
</g>
</svg>
