<?xml version="1.0" standalone="no"?>
<!DOCTYPE svg PUBLIC "-//W3C//DTD SVG 20010904//EN"
 "http://www.w3.org/TR/2001/REC-SVG-20010904/DTD/svg10.dtd">
<svg version="1.0" xmlns="http://www.w3.org/2000/svg"
 width="503.000000pt" height="481.000000pt" viewBox="0 0 503.000000 481.000000"
 preserveAspectRatio="xMidYMid meet">
<metadata>
Created by potrace 1.16, written by Peter Selinger 2001-2019
</metadata>
<g transform="translate(0.000000,481.000000) scale(0.100000,-0.100000)"
fill="#000000" stroke="none">
<path d="M1658 4594 c-3 -3 -141 -7 -307 -9 -166 -3 -312 -7 -325 -11 -33 -8
-41 -66 -36 -259 9 -343 5 -928 -7 -932 -6 -2 -32 -18 -58 -36 -25 -18 -54
-36 -63 -42 -66 -39 -110 -67 -207 -130 -180 -118 -227 -147 -243 -149 -8 -2
-20 -9 -26 -17 -6 -8 -35 -29 -63 -48 -29 -18 -53 -39 -53 -47 0 -8 -4 -14 -8
-14 -6 0 -13 -28 -14 -65 0 -5 2 -50 5 -100 10 -134 17 -450 22 -918 3 -230 7
-422 9 -426 5 -8 16 -479 20 -881 2 -162 -1 -260 -7 -268 -7 -9 -7 -16 1 -24
7 -7 12 -20 12 -29 0 -9 8 -19 18 -21 10 -3 18 -15 19 -28 1 -13 8 -27 15 -31
7 -5 137 -7 288 -4 151 2 422 5 603 6 228 2 327 6 327 13 0 8 3 7 8 0 5 -8 69
-11 222 -9 264 4 469 5 575 3 44 -1 184 0 310 0 127 1 271 1 320 1 330 -3
1643 8 1652 14 7 4 23 1 36 -8 13 -8 26 -12 30 -9 4 4 36 7 72 6 64 0 67 0
106 41 34 35 39 47 35 72 -10 53 -12 105 -5 117 5 7 3 18 -4 26 -7 9 -12 74
-13 180 -2 92 -5 199 -8 237 -3 39 -7 183 -10 320 -3 138 -8 291 -11 340 -3
50 -8 171 -10 270 -3 99 -9 286 -13 415 -10 347 -8 532 8 581 13 39 13 43 -5
56 -67 47 -225 169 -255 196 -24 21 -143 121 -155 129 -46 34 -249 196 -287
229 -25 23 -52 46 -60 50 -7 4 -33 27 -58 49 -80 74 -164 142 -190 154 -29 12
-50 31 -50 43 0 4 -17 19 -37 33 -20 14 -47 35 -59 48 -13 12 -28 22 -34 22
-5 0 -10 4 -10 8 0 5 -18 21 -40 38 -139 101 -193 143 -260 204 -41 37 -93 83
-115 101 -21 19 -51 45 -65 59 -15 14 -38 31 -52 39 -14 7 -32 24 -39 37 -7
13 -16 24 -21 24 -5 0 -21 12 -36 28 -15 15 -47 43 -72 62 -62 48 -59 46 -113
94 -27 23 -54 53 -60 66 -28 54 -67 49 -135 -17 -18 -18 -37 -33 -43 -33 -10
0 -118 -67 -129 -80 -8 -10 -178 -120 -184 -120 -3 0 -14 -7 -23 -16 -10 -8
-52 -37 -93 -65 -94 -62 -137 -92 -175 -121 -16 -13 -30 -21 -31 -18 -1 3 -13
-4 -26 -16 -13 -12 -42 -32 -65 -44 -24 -13 -43 -27 -43 -32 0 -4 -5 -8 -12
-8 -6 0 -20 -7 -29 -16 -10 -9 -29 -18 -41 -19 -13 -2 -31 -6 -41 -10 -17 -7
-18 9 -16 346 1 329 0 354 -17 366 -19 14 -37 17 -46 7z m-40 -129 c4 -4 6
-143 4 -310 -3 -387 -3 -386 108 -388 44 0 151 40 164 62 4 5 31 21 61 36 30
14 55 30 55 35 0 6 6 10 14 10 7 0 19 7 26 15 7 9 44 37 82 62 38 26 79 57 91
70 12 12 27 23 33 23 11 0 197 115 381 235 l102 66 28 -18 c41 -26 102 -73
154 -118 25 -22 92 -78 150 -125 131 -107 157 -129 192 -162 24 -24 146 -125
197 -164 8 -7 44 -36 80 -66 36 -29 81 -65 100 -78 19 -14 76 -61 126 -105
182 -160 217 -190 241 -205 14 -8 44 -33 67 -55 46 -45 315 -272 382 -323 24
-19 44 -38 44 -43 0 -5 6 -9 13 -9 7 0 26 -13 43 -28 16 -15 61 -52 99 -82 39
-30 72 -58 73 -63 2 -4 10 -13 17 -21 21 -21 40 -282 51 -696 3 -118 7 -316
11 -440 3 -124 7 -373 9 -555 3 -288 9 -537 17 -725 l2 -55 -55 -2 c-98 -4
-454 -7 -510 -5 -30 1 -174 0 -320 -2 -146 -3 -569 -7 -940 -10 -371 -3 -992
-8 -1380 -11 -873 -7 -1211 -7 -1216 -2 -3 3 -7 69 -19 382 -2 66 -7 244 -10
395 -3 151 -8 302 -11 335 -8 81 -16 586 -15 835 1 63 -1 232 -4 375 -3 172
-1 272 6 295 12 36 44 69 67 70 7 0 25 11 40 26 15 14 48 37 74 52 27 15 48
30 48 35 0 4 4 7 9 7 6 0 29 13 53 28 101 67 156 102 204 129 28 15 68 40 91
55 22 14 61 37 86 50 53 26 71 62 68 137 -14 490 -21 943 -14 1005 l6 45 101
3 c164 5 417 1 424 -7z"/>
<path d="M1816 2693 c-1 -2 -130 -5 -287 -8 -156 -3 -293 -8 -304 -10 -11 -2
-38 0 -61 4 -60 11 -79 0 -98 -59 -9 -28 -14 -55 -12 -59 3 -5 5 -84 5 -177 0
-93 1 -214 3 -269 3 -97 0 -373 -5 -485 -3 -63 8 -82 67 -110 29 -15 43 -17
57 -9 11 5 41 10 67 9 26 0 162 2 302 6 140 3 264 5 275 5 11 -1 31 -1 45 0
104 4 170 3 196 -3 24 -5 37 -2 54 12 21 18 22 26 22 197 -1 98 -4 246 -7 328
-4 83 -8 247 -9 365 -2 203 -10 259 -34 260 -55 3 -274 4 -276 3z m-516 -117
c0 -3 -4 -8 -10 -11 -5 -3 -10 -1 -10 4 0 6 5 11 10 11 6 0 10 -2 10 -4z m657
-48 c-3 -7 -5 -2 -5 12 0 14 2 19 5 13 2 -7 2 -19 0 -25z"/>
<path d="M3020 2408 c0 -17 -5 -19 -62 -23 -9 0 -20 -4 -24 -8 -4 -4 -22 -7
-39 -7 -44 0 -64 -25 -60 -75 2 -22 9 -130 15 -240 5 -110 12 -234 15 -275 2
-41 7 -169 10 -285 5 -200 7 -245 20 -465 9 -142 15 -334 18 -527 1 -132 5
-174 15 -178 7 -3 11 -9 7 -14 -8 -14 33 -34 57 -28 11 3 31 -1 44 -10 20 -13
45 -14 157 -8 226 11 663 6 697 -8 26 -11 63 27 63 64 0 36 -10 215 -18 314
-2 33 -8 116 -13 185 -6 69 -10 143 -9 165 0 22 -3 87 -7 145 -6 103 -11 225
-21 530 -3 85 -8 220 -11 300 -3 80 -5 150 -5 155 12 211 11 240 -8 270 l-20
29 -128 -2 c-70 -1 -166 -5 -213 -8 -47 -3 -170 -6 -273 -7 -156 -1 -189 1
-197 13 -8 13 -10 12 -10 -2z"/>
</g>
</svg>
