<?xml version="1.0" standalone="no"?>
<!DOCTYPE svg PUBLIC "-//W3C//DTD SVG 20010904//EN"
 "http://www.w3.org/TR/2001/REC-SVG-20010904/DTD/svg10.dtd">
<svg version="1.0" xmlns="http://www.w3.org/2000/svg"
 width="517.000000pt" height="435.000000pt" viewBox="0 0 517.000000 435.000000"
 preserveAspectRatio="xMidYMid meet">
<metadata>
Created by potrace 1.16, written by Peter Selinger 2001-2019
</metadata>
<g transform="translate(0.000000,435.000000) scale(0.100000,-0.100000)"
fill="#000000" stroke="none">
<path d="M4806 4063 c-4 -5 -161 -9 -349 -9 -188 -1 -943 -5 -1677 -9 -2194
-11 -2254 -11 -2285 -5 -16 3 -61 2 -99 -3 -51 -7 -70 -6 -76 3 -5 8 -10 8
-14 2 -3 -5 -26 -13 -50 -16 -64 -10 -71 -32 -61 -204 4 -75 9 -193 10 -262 2
-69 7 -177 11 -240 4 -63 9 -158 11 -210 2 -52 5 -138 7 -190 2 -52 6 -212 10
-355 3 -143 9 -363 12 -490 4 -126 8 -304 9 -395 1 -91 5 -219 9 -285 6 -118
11 -332 22 -815 8 -391 8 -393 69 -404 19 -4 35 -10 35 -14 0 -4 14 -13 32
-20 26 -10 35 -9 48 3 14 12 93 14 556 11 296 -2 559 -4 584 -5 25 -1 79 0
121 3 42 2 82 0 89 -4 20 -12 67 8 86 38 15 23 17 46 15 152 -3 110 -8 215
-11 215 0 0 -3 52 -6 115 -2 63 -6 151 -9 195 -21 396 -47 1186 -40 1194 3 3
246 6 540 7 l533 1 7 -41 c4 -23 9 -138 10 -256 2 -118 7 -255 11 -305 8 -104
9 -148 19 -535 4 -157 9 -307 10 -335 2 -27 6 -124 10 -215 4 -91 12 -176 19
-190 10 -23 18 -25 81 -28 120 -4 167 -4 270 3 84 5 245 6 570 3 28 0 127 0
220 0 407 0 667 -6 678 -17 14 -14 27 -14 27 0 0 15 26 39 44 39 8 0 22 7 31
17 15 14 16 31 11 122 -10 158 -14 249 -21 426 -3 88 -8 201 -10 250 -2 50 -7
196 -10 325 -5 211 -8 315 -22 615 -5 107 -5 110 -4 249 0 59 -1 111 -3 115
-4 6 -18 440 -21 676 -2 103 -10 396 -20 718 -4 140 4 187 31 187 15 0 28 38
22 67 -2 10 -13 19 -25 21 -15 2 -19 8 -16 23 3 10 -2 30 -11 44 -17 26 -27
30 -40 18z m-4456 -153 c0 -5 -4 -10 -9 -10 -5 0 -16 -3 -25 -6 -11 -4 -16 -1
-16 10 0 10 9 16 25 16 14 0 25 -4 25 -10z m2290 -28 c85 0 570 0 1077 1 507
1 924 0 927 -3 2 -3 8 -95 11 -205 4 -110 9 -229 11 -265 9 -167 21 -465 19
-468 -6 -6 -2201 -15 -2235 -9 -8 1 -21 6 -27 10 -7 5 -13 4 -13 -1 0 -5 -400
-7 -947 -5 -522 1 -973 3 -1003 3 l-55 0 -3 108 c-1 59 -7 161 -13 227 -13
148 -8 550 7 565 11 11 357 25 621 25 84 0 153 4 153 9 0 4 8 5 18 1 9 -4 121
-6 247 -6 723 5 965 8 969 12 3 2 22 4 43 3 21 -1 108 -2 193 -2z m2127 -624
c-3 -8 -6 -5 -6 6 -1 11 2 17 5 13 3 -3 4 -12 1 -19z m-2517 -473 c0 -2 -7 -5
-15 -9 -9 -3 -15 0 -15 9 0 9 6 12 15 9 8 -4 15 -7 15 -9z m2230 4 c19 -1 51
-1 70 0 122 4 128 3 134 -26 8 -38 20 -422 31 -978 1 -66 5 -203 9 -305 3
-102 8 -286 11 -410 7 -287 16 -493 22 -503 3 -4 -10 -7 -29 -7 -18 1 -47 -1
-65 -5 -39 -7 -44 4 -44 102 0 37 -5 91 -11 118 -5 28 -9 76 -9 107 1 49 -2
60 -22 73 -23 15 -35 14 -97 -4 -19 -6 -36 -11 -38 -11 -3 0 6 93 13 130 9 49
13 146 7 157 -14 20 -72 43 -112 43 -33 0 -42 4 -50 24 -4 13 -7 36 -5 52 12
100 15 161 7 172 -5 7 -39 15 -80 19 l-72 6 0 91 c0 108 -1 119 -20 141 -13
16 -28 17 -119 12 -57 -3 -109 -11 -115 -17 -5 -5 -20 -10 -33 -10 -13 0 -24
-6 -24 -12 -1 -7 -3 -22 -4 -33 -2 -11 -5 -56 -8 -100 -5 -69 -8 -80 -24 -78
-10 1 -37 4 -60 7 -24 3 -49 3 -57 0 -18 -7 -31 -71 -17 -88 5 -6 8 -50 6
-101 -2 -50 -4 -104 -4 -121 -1 -31 -3 -32 -68 -49 -129 -33 -131 -34 -135
-64 -2 -16 -1 -37 3 -47 3 -11 9 -60 13 -111 l6 -91 -37 -13 c-20 -6 -55 -12
-79 -13 -23 0 -46 -5 -51 -9 -4 -5 -8 -72 -8 -150 l0 -142 -65 4 c-36 1 -68 8
-72 14 -15 24 -22 142 -38 632 -6 165 -12 336 -15 380 -2 44 -7 161 -10 260
-3 99 -8 239 -11 310 -7 170 -13 643 -8 647 3 3 1284 0 1384 -3z m-2819 -89
c4 -47 10 -197 13 -335 4 -137 9 -272 11 -300 3 -27 7 -158 10 -290 3 -132 7
-294 10 -360 8 -197 16 -440 21 -613 2 -90 5 -167 5 -170 1 -4 1 -26 0 -48
l-1 -42 -197 -1 -197 -1 39 21 c22 11 45 27 51 35 6 8 16 14 23 14 6 0 11 7
11 15 0 7 6 18 13 22 21 14 67 109 67 141 0 16 -7 35 -15 42 -11 9 -15 28 -14
59 3 93 -27 202 -69 253 -8 9 -12 21 -9 26 3 4 -7 16 -24 26 -49 29 -41 38 58
67 60 17 135 57 156 84 11 14 1 141 -12 157 -6 7 -21 24 -32 38 -38 46 -124
142 -137 154 -8 6 -24 22 -37 34 -13 13 -29 21 -34 17 -14 -8 -14 8 -2 20 35
36 -19 304 -64 322 -8 3 -15 11 -15 18 0 27 -38 55 -83 61 -36 5 -56 1 -99
-19 -57 -27 -127 -96 -146 -143 -15 -38 -18 -129 -6 -146 14 -17 64 -105 64
-111 0 -5 -82 -15 -137 -18 -13 -1 -23 -5 -23 -9 0 -4 -26 -17 -58 -29 -38
-13 -67 -32 -82 -51 -13 -16 -29 -30 -35 -30 -7 0 -15 -7 -19 -15 -3 -8 -11
-15 -17 -15 -14 0 -77 -68 -84 -91 -4 -11 -12 -16 -21 -12 -10 3 -12 0 -8 -10
3 -8 -2 -29 -10 -46 -9 -17 -18 -44 -20 -60 -7 -60 64 -95 147 -71 23 6 50 12
60 13 9 1 17 4 17 8 0 4 14 9 32 13 18 3 43 16 56 29 l24 22 -9 -30 c-4 -16
-6 -77 -4 -135 7 -199 5 -222 -30 -269 -13 -18 -38 -39 -55 -47 -17 -8 -42
-25 -55 -37 -13 -12 -28 -22 -34 -23 -38 -4 -55 -18 -55 -43 0 -31 39 -65 86
-77 16 -4 35 -16 42 -26 7 -10 27 -25 43 -34 17 -8 48 -33 70 -55 27 -27 48
-39 67 -39 16 0 37 -6 48 -14 17 -13 -11 -15 -227 -14 l-247 2 -5 51 c-3 28
-6 125 -6 215 -1 90 -3 166 -5 169 -2 3 -7 114 -10 246 -4 132 -8 254 -10 270
-2 17 -7 181 -11 365 -4 184 -9 364 -11 400 -2 36 -6 169 -9 297 l-6 231 166
1 c92 0 169 2 171 4 3 2 208 4 457 3 l452 -1 6 -85z m-1334 58 c-3 -8 -6 -5
-6 6 -1 11 2 17 5 13 3 -3 4 -12 1 -19z m2160 -77 c75 -27 116 -88 117 -174 0
-86 -21 -126 -87 -162 -68 -37 -127 -37 -203 2 -49 24 -60 35 -79 78 -32 73
-36 107 -19 172 17 67 40 94 101 124 23 11 45 25 49 30 3 5 23 -5 44 -23 21
-19 55 -39 77 -47z m2300 -118 c-3 -10 -5 -2 -5 17 0 19 2 27 5 18 2 -10 2
-26 0 -35z m-4450 -25 c-3 -7 -5 -2 -5 12 0 14 2 19 5 13 2 -7 2 -19 0 -25z
m4453 -30 c-1 -28 -2 -30 -11 -15 -6 10 -8 25 -5 33 9 24 16 16 16 -18z
m-3033 -80 c-3 -8 -6 -5 -6 6 -1 11 2 17 5 13 3 -3 4 -12 1 -19z m3032 -10
c-1 -31 -1 -31 -8 -8 -5 14 -6 28 -4 33 9 15 13 6 12 -25z m-4452 -90 c-3 -8
-6 -5 -6 6 -1 11 2 17 5 13 3 -3 4 -12 1 -19z m4463 -194 c0 -8 -5 -12 -10 -9
-6 4 -8 11 -5 16 9 14 15 11 15 -7z m-3583 -86 c3 -16 14 -33 23 -38 21 -11
34 -52 46 -138 5 -38 -2 -73 -27 -139 -6 -16 -1 -31 22 -62 24 -33 35 -41 61
-41 27 0 45 -13 115 -85 65 -67 83 -92 86 -119 3 -28 -1 -38 -24 -55 -16 -12
-41 -21 -57 -21 -31 0 -31 -2 -48 134 -9 64 -14 79 -35 97 -16 14 -26 16 -41
8 -24 -13 -38 -48 -28 -74 11 -29 25 -136 21 -165 -3 -26 -30 -91 -41 -100 -4
-3 -10 -19 -13 -36 -6 -33 12 -58 61 -83 12 -6 22 -16 22 -22 0 -5 12 -27 26
-49 22 -33 27 -53 31 -132 2 -51 7 -100 11 -108 3 -8 6 -31 6 -50 1 -29 -8
-44 -54 -90 -49 -48 -64 -57 -125 -72 -39 -10 -106 -19 -151 -20 -71 -1 -84 1
-104 20 -13 12 -38 24 -56 28 -20 4 -37 15 -45 31 -7 14 -30 33 -51 44 -21 10
-51 32 -67 48 l-29 29 21 18 c12 11 33 25 47 32 36 18 71 74 85 135 9 42 12
230 3 264 -6 24 28 126 47 141 26 21 39 74 22 94 -15 19 -47 31 -47 18 0 -6
-13 -10 -29 -10 -17 0 -32 -4 -35 -9 -3 -5 -18 -12 -33 -16 -15 -3 -40 -15
-55 -27 -16 -11 -35 -21 -42 -22 -8 -1 -21 -8 -30 -15 -8 -7 -20 -10 -26 -6
-5 3 -26 1 -45 -6 -19 -7 -37 -10 -40 -7 -19 19 82 144 143 177 12 6 33 22 47
35 32 30 114 58 185 63 88 7 135 29 148 68 8 29 6 41 -13 77 -12 24 -26 54
-30 68 -4 13 -14 30 -21 38 -22 22 -16 66 14 108 35 47 48 58 87 71 40 13 55
6 62 -29z m560 -40 c-3 -8 -6 -5 -6 6 -1 11 2 17 5 13 3 -3 4 -12 1 -19z m0
-65 c-3 -10 -5 -4 -5 12 0 17 2 24 5 18 2 -7 2 -21 0 -30z m3033 17 c0 -5 -5
-10 -11 -10 -5 0 -7 5 -4 10 3 6 8 10 11 10 2 0 4 -4 4 -10z m-3 -52 c-3 -8
-6 -5 -6 6 -1 11 2 17 5 13 3 -3 4 -12 1 -19z m0 -55 c-3 -10 -5 -4 -5 12 0
17 2 24 5 18 2 -7 2 -21 0 -30z m-3017 -163 c0 -22 -3 -40 -7 -40 -5 0 -7 17
-6 37 2 44 2 43 8 43 3 0 5 -18 5 -40z m2261 3 c0 -5 3 -53 5 -108 7 -120 20
-142 87 -143 70 -1 78 -2 73 -10 -2 -4 -7 -35 -11 -67 -3 -33 -8 -80 -11 -105
-7 -59 9 -73 103 -90 l72 -13 -6 -101 c-9 -155 -7 -176 16 -200 16 -15 24 -18
29 -9 5 7 26 11 52 10 l45 -2 7 -55 c15 -120 19 -225 9 -239 -8 -12 -96 -15
-554 -17 l-545 -3 -6 37 c-6 41 -9 90 -7 139 1 34 20 44 109 58 23 4 42 11 42
16 0 5 7 9 17 9 9 0 13 3 10 7 -4 3 -3 11 3 18 6 7 5 27 -4 56 -7 24 -14 78
-15 121 l-2 76 33 7 c18 4 52 16 76 27 23 10 46 17 50 14 10 -6 38 15 44 34 3
8 0 26 -5 40 -6 14 -11 73 -11 133 -1 123 -4 119 88 113 80 -6 88 3 79 91 -9
88 -8 122 5 135 19 19 121 36 123 21z m-2263 -140 l-1 -88 -7 80 c-3 44 -4 83
-2 88 9 20 12 0 10 -80z m3029 -125 c-3 -7 -5 -2 -5 12 0 14 2 19 5 13 2 -7 2
-19 0 -25z m13 -39 c0 -6 -4 -7 -10 -4 -5 3 -10 11 -10 16 0 6 5 7 10 4 6 -3
10 -11 10 -16z m-3033 -36 c-3 -10 -5 -4 -5 12 0 17 2 24 5 18 2 -7 2 -21 0
-30z m3030 -120 c-2 -21 -4 -6 -4 32 0 39 2 55 4 38 2 -18 2 -50 0 -70z
m-3017 -148 c0 -8 -4 -15 -8 -15 -5 0 -9 7 -9 15 0 8 4 15 9 15 4 0 8 -7 8
-15z m1750 -629 c0 -11 -19 -15 -25 -6 -3 5 1 10 9 10 9 0 16 -2 16 -4z m175
-186 c3 -5 -3 -10 -14 -10 -12 0 -21 5 -21 10 0 6 6 10 14 10 8 0 18 -4 21
-10z m-1995 -10 c0 -5 -5 -10 -11 -10 -5 0 -7 5 -4 10 3 6 8 10 11 10 2 0 4
-4 4 -10z"/>
<path d="M3968 2646 c-7 -8 -35 -40 -63 -72 -67 -77 -96 -106 -220 -215 -58
-51 -105 -96 -105 -99 0 -9 -65 -71 -220 -210 -15 -14 -46 -36 -69 -50 -35
-20 -41 -29 -41 -57 0 -37 29 -69 100 -110 25 -15 58 -39 74 -55 30 -30 41
-34 51 -18 4 6 10 8 15 5 5 -3 30 22 56 57 44 61 247 264 329 330 41 33 117
104 179 168 100 101 110 110 125 105 12 -3 19 5 27 30 9 28 8 39 -9 64 -10 17
-22 31 -25 31 -4 0 -20 21 -37 45 -16 25 -35 45 -42 45 -6 0 -13 5 -15 11 -2
7 -12 7 -31 0 -19 -8 -34 -8 -47 -1 -14 7 -22 6 -32 -4z m86 -118 l37 -33 -53
-56 c-29 -31 -58 -63 -64 -70 -13 -17 -128 -119 -169 -151 -16 -12 -101 -94
-187 -180 -146 -147 -178 -173 -178 -148 0 6 -7 10 -15 10 -8 0 -15 3 -15 8 0
4 -10 12 -22 17 -32 15 -33 32 -1 48 15 8 101 87 190 174 89 87 183 177 209
198 25 22 85 79 133 126 47 47 89 87 92 88 3 0 22 -14 43 -31z"/>
<path d="M1189 2712 c-79 -82 -167 -151 -287 -227 -9 -5 -30 -24 -46 -41 -17
-17 -49 -43 -71 -59 -22 -16 -42 -32 -45 -35 -3 -4 -27 -17 -55 -30 -80 -38
-94 -67 -62 -129 11 -23 27 -41 34 -41 7 0 13 -6 13 -13 0 -7 10 -19 22 -27
12 -8 34 -27 48 -41 31 -31 58 -31 97 2 17 13 50 40 74 59 24 19 54 45 68 58
13 12 30 22 38 22 7 0 16 7 19 15 4 8 10 15 14 15 15 0 155 98 181 127 36 39
77 73 89 73 6 0 10 4 10 8 0 5 11 14 24 20 33 15 37 51 9 95 -13 20 -28 37
-33 37 -12 0 -37 48 -41 80 -7 48 -66 66 -100 32z m63 -164 c30 -21 33 -43 6
-43 -9 0 -36 -20 -61 -45 -25 -25 -67 -60 -93 -79 -93 -67 -174 -121 -182
-121 -4 0 -29 -20 -55 -44 -57 -55 -82 -64 -108 -40 -10 9 -17 19 -14 22 2 3
-3 11 -13 19 -14 12 -15 15 -3 20 8 3 24 15 36 27 12 12 47 40 78 64 31 23 57
47 57 52 0 5 7 10 15 12 8 2 43 25 77 51 195 149 198 150 260 105z"/>
</g>
</svg>
