<?xml version="1.0" standalone="no"?>
<!DOCTYPE svg PUBLIC "-//W3C//DTD SVG 20010904//EN"
 "http://www.w3.org/TR/2001/REC-SVG-20010904/DTD/svg10.dtd">
<svg version="1.0" xmlns="http://www.w3.org/2000/svg"
 width="533.000000pt" height="469.000000pt" viewBox="0 0 533.000000 469.000000"
 preserveAspectRatio="xMidYMid meet">
<metadata>
Created by potrace 1.16, written by Peter Selinger 2001-2019
</metadata>
<g transform="translate(0.000000,469.000000) scale(0.100000,-0.100000)"
fill="#000000" stroke="none">
<path d="M1190 4488 c-14 -5 -32 -7 -42 -5 -9 3 -25 -1 -35 -9 -10 -7 -24 -14
-31 -14 -7 0 -21 -8 -31 -17 -19 -18 -18 -58 3 -174 l5 -27 -72 -2 c-40 -1
-101 -3 -137 -4 -36 -2 -106 -4 -156 -4 -78 -2 -95 -5 -120 -24 -15 -13 -35
-22 -44 -21 -8 2 -26 -6 -39 -16 -24 -18 -24 -21 -13 -72 18 -81 7 -627 -12
-648 -12 -14 -16 -161 -21 -971 -8 -1297 -21 -2236 -32 -2252 -2 -5 1 -23 8
-42 l12 -34 84 -6 c46 -4 87 -5 91 -2 4 2 224 7 487 10 264 4 671 9 905 12
315 4 1804 14 1885 13 6 0 143 -2 305 -6 162 -3 378 -7 480 -8 162 -3 214 -6
255 -15 25 -6 46 2 69 25 14 14 28 24 32 23 13 -6 31 47 24 71 -4 14 -6 35 -4
46 7 50 17 402 20 745 1 206 6 753 10 1215 3 462 6 914 5 1004 -2 126 1 166
11 172 14 9 15 38 18 303 1 83 -2 142 -9 149 -5 5 -7 23 -4 38 4 22 2 29 -11
29 -9 0 -16 5 -16 11 0 5 -4 8 -9 4 -14 -8 -3230 -18 -3322 -10 l-77 7 -6 41
c-10 60 -15 122 -24 284 -7 130 -10 145 -31 164 -24 23 -19 22 -234 20 -76 0
-142 1 -145 3 -4 2 -18 -1 -32 -6z m317 -117 c6 0 12 -9 12 -18 0 -10 5 -58
10 -108 6 -49 13 -115 16 -145 3 -30 8 -92 10 -138 2 -46 9 -90 16 -98 13 -15
53 -15 185 4 59 8 2894 8 3102 0 145 -6 141 0 149 -210 5 -148 4 -170 -11
-193 -16 -25 -18 -87 -21 -818 -2 -436 -6 -875 -10 -977 -5 -181 -10 -397 -21
-890 -7 -366 -11 -442 -19 -473 -8 -31 -35 -41 -86 -33 -78 12 -523 5 -537 -9
-2 -2 -16 0 -31 5 -16 4 -47 4 -69 0 -23 -4 -44 -5 -47 -2 -3 3 -24 5 -48 4
-23 0 -87 -1 -142 0 -337 2 -1249 -7 -1709 -17 -276 -6 -288 -5 -281 12 10 24
19 220 13 293 -3 40 14 755 18 761 4 7 -16 98 -24 109 -6 8 -566 9 -577 0 -5
-4 -22 -10 -37 -14 -18 -4 -29 -15 -32 -29 -3 -12 -8 -227 -10 -477 -3 -250
-7 -501 -8 -557 l-3 -102 -387 3 c-214 1 -390 5 -394 8 -6 7 -5 398 3 723 2
116 6 716 9 1334 4 988 6 1127 19 1141 13 14 17 71 22 336 3 176 8 321 10 324
3 3 125 5 273 4 l268 -1 10 36 c9 30 10 104 2 146 -1 6 -2 24 -1 41 l1 30 173
-1 c94 -1 177 -3 184 -4z m-42 -3051 c-3 -5 -11 -10 -16 -10 -6 0 -7 5 -4 10
3 6 11 10 16 10 6 0 7 -4 4 -10z m62 4 c-3 -3 -12 -4 -19 -1 -8 3 -5 6 6 6 11
1 17 -2 13 -5z m140 -166 c-3 -8 -6 -5 -6 6 -1 11 2 17 5 13 3 -3 4 -12 1 -19z"/>
<path d="M4467 3524 c-3 -3 -140 -7 -306 -10 -165 -2 -311 -8 -325 -14 -14 -5
-30 -18 -35 -29 -6 -11 -20 -22 -31 -26 -14 -5 -18 -13 -15 -33 2 -15 7 -58 9
-97 3 -38 15 -149 26 -245 11 -96 20 -194 20 -216 0 -24 6 -47 14 -54 11 -8
91 -12 278 -14 145 -1 269 -5 275 -9 6 -4 14 -3 18 3 4 7 14 5 27 -4 13 -9 32
-13 50 -9 20 4 33 1 38 -7 7 -11 13 -10 33 3 27 18 39 62 32 117 -11 73 -14
131 -20 338 -6 193 -5 216 11 233 14 15 14 21 4 34 -7 8 -22 15 -34 15 -12 0
-31 7 -42 15 -12 8 -24 12 -27 9z"/>
<path d="M1558 3515 c-3 -3 -120 -6 -260 -5 -140 0 -269 -3 -287 -6 -20 -4
-42 -19 -58 -40 -24 -33 -25 -35 -10 -73 12 -30 16 -81 16 -232 0 -107 2 -215
4 -241 3 -29 0 -48 -6 -48 -7 0 -6 -5 1 -12 7 -7 12 -20 12 -29 0 -10 4 -20 9
-24 5 -3 139 -6 298 -6 171 -1 291 -6 294 -11 4 -6 15 -5 27 3 17 11 28 11 51
2 24 -8 34 -8 50 4 21 14 21 20 16 250 -2 130 -7 250 -10 267 -2 17 -7 49 -10
71 -3 22 -12 45 -19 51 -12 8 -11 12 5 22 24 16 24 38 0 52 -20 10 -114 14
-123 5z m-83 -595 c3 -6 -4 -10 -17 -10 -18 0 -20 2 -8 10 19 12 18 12 25 0z"/>
<path d="M2410 3497 c-8 -10 -28 -32 -43 -48 -17 -18 -25 -34 -20 -42 15 -24
43 -339 44 -500 1 -79 3 -89 23 -99 11 -7 35 -11 51 -9 81 7 560 0 569 -9 24
-24 107 -1 115 30 4 19 1 282 -4 290 -5 8 -17 198 -19 295 -2 71 -4 80 -21 84
-11 2 -23 8 -27 14 -5 8 -105 12 -330 12 -300 0 -324 -1 -338 -18z"/>
<path d="M1617 2454 c-3 -3 -145 -6 -316 -7 -343 0 -332 2 -344 -65 -4 -17 -3
-42 2 -55 22 -58 48 -582 29 -593 -15 -10 -8 -64 12 -84 14 -14 28 -18 52 -14
60 9 639 3 675 -8 6 -2 20 7 31 20 17 19 20 40 23 135 4 141 1 313 -9 491 -9
158 -17 173 -92 174 -22 0 -44 3 -49 6 -4 3 -11 3 -14 0z m83 -378 c0 -3 -4
-8 -10 -11 -5 -3 -10 -1 -10 4 0 6 5 11 10 11 6 0 10 -2 10 -4z"/>
<path d="M2409 2449 c-26 -16 -43 -407 -30 -671 7 -148 15 -164 71 -147 55 16
522 12 665 -6 22 -3 46 -1 54 4 19 13 24 73 12 166 -15 114 -22 260 -22 408 1
114 -1 128 -18 139 -15 9 -17 15 -8 29 19 31 -24 64 -98 75 -48 8 -615 10
-626 3z"/>
<path d="M4285 2451 c-3 -2 -109 -3 -237 -2 -196 0 -234 -2 -249 -15 -10 -9
-15 -23 -12 -35 3 -10 1 -25 -4 -32 -5 -6 -9 -16 -8 -22 1 -5 4 -93 9 -195 4
-102 14 -232 22 -290 8 -58 13 -125 11 -148 -3 -56 23 -80 80 -76 51 4 217 5
443 3 170 -1 227 -8 291 -34 19 -7 27 9 37 70 10 60 4 262 -10 325 -6 30 -12
125 -12 211 -1 159 -8 189 -42 189 -8 0 -14 9 -14 20 0 12 -9 22 -23 25 -25 7
-277 12 -282 6z"/>
</g>
</svg>
