<?xml version="1.0" standalone="no"?>
<!DOCTYPE svg PUBLIC "-//W3C//DTD SVG 20010904//EN"
 "http://www.w3.org/TR/2001/REC-SVG-20010904/DTD/svg10.dtd">
<svg version="1.0" xmlns="http://www.w3.org/2000/svg"
 width="455.000000pt" height="501.000000pt" viewBox="0 0 455.000000 501.000000"
 preserveAspectRatio="xMidYMid meet">
<metadata>
Created by potrace 1.16, written by Peter Selinger 2001-2019
</metadata>
<g transform="translate(0.000000,501.000000) scale(0.100000,-0.100000)"
fill="#000000" stroke="none">
<path d="M1596 4891 c-12 -13 -15 -29 -11 -60 l5 -42 -33 6 c-45 9 -78 -19
-70 -58 7 -35 40 -52 107 -55 l28 -2 -4 -60 c-5 -67 -19 -85 -78 -96 -19 -4
-53 -15 -76 -24 -22 -10 -59 -20 -82 -24 -23 -3 -51 -10 -61 -16 -23 -12 -162
-55 -207 -65 -17 -3 -40 -14 -51 -24 -18 -17 -36 -25 -80 -36 -39 -10 -158
-44 -158 -45 0 -1 -17 -3 -39 -5 -79 -8 -76 3 -77 -369 0 -182 0 -340 0 -351
1 -164 0 -288 -3 -294 -2 -3 0 -33 5 -66 5 -33 11 -376 13 -762 4 -704 6 -743
39 -743 7 0 56 -44 109 -98 102 -102 468 -463 631 -621 53 -51 97 -97 97 -102
0 -5 5 -9 11 -9 15 0 103 -75 200 -170 42 -41 103 -100 135 -132 68 -64 364
-369 441 -452 64 -69 85 -78 178 -76 11 1 106 1 210 2 105 1 255 2 335 4 80 1
195 2 255 2 61 0 182 1 270 2 88 2 217 3 287 3 l128 0 8 31 c5 17 7 45 6 61
-11 119 -14 168 -19 305 -10 271 -16 973 -9 1035 l6 59 32 -39 c17 -21 50 -59
72 -84 40 -44 43 -45 68 -32 21 12 26 22 26 53 0 39 -3 44 -96 148 -22 25 -47
53 -55 63 -8 10 -40 45 -71 78 -31 34 -58 65 -60 69 -4 10 -64 85 -94 116 -30
32 -151 170 -204 234 -58 70 -132 153 -187 210 -24 25 -43 50 -43 57 0 6 -3
13 -8 15 -10 4 -102 114 -102 121 0 8 -40 47 -67 67 -30 22 -208 166 -278 225
-33 28 -71 60 -84 70 -13 11 -46 39 -74 63 -27 24 -80 66 -118 94 -38 27 -69
53 -69 57 0 4 -17 20 -38 36 -24 19 -38 39 -39 55 0 14 -6 63 -11 110 -6 47
-10 112 -11 145 0 33 -2 76 -5 95 -3 19 -1 39 4 45 16 20 -14 78 -75 144 -125
134 -265 268 -336 321 -18 14 -40 32 -48 41 -44 47 -61 68 -61 74 0 4 -65 72
-145 150 l-144 142 0 49 c0 27 -2 68 -5 92 l-5 43 50 -4 c65 -5 82 14 66 75
-10 40 -11 40 -48 35 -21 -3 -41 -2 -44 2 -7 6 -12 7 -40 10 -11 1 -15 13 -15
42 0 22 -5 49 -10 60 -13 24 -52 25 -74 0z m-23 -538 c-8 -38 -16 -90 -19
-118 -5 -58 -19 -116 -39 -165 -7 -19 -17 -56 -20 -82 -3 -26 -10 -50 -16 -53
-5 -4 -9 -14 -9 -23 0 -9 -7 -29 -14 -44 -8 -15 -11 -30 -6 -33 9 -5 -6 -63
-20 -78 -9 -10 -59 19 -77 44 -7 9 -39 34 -70 55 -32 21 -78 57 -103 79 -25
22 -83 70 -130 105 -47 35 -96 75 -110 88 -14 14 -35 31 -48 40 -21 14 -21 15
-5 27 10 7 21 11 26 8 4 -2 13 0 20 5 7 5 28 13 47 17 19 4 41 12 48 17 6 6
12 7 12 3 0 -3 15 2 33 13 39 25 144 62 172 62 12 0 40 9 63 20 22 11 50 20
61 20 11 0 23 5 26 10 4 6 10 8 15 5 5 -3 26 1 46 10 20 8 49 15 65 15 16 0
29 5 29 10 0 6 8 10 18 10 18 0 18 -4 5 -67z m241 -98 c55 -55 119 -122 141
-150 42 -51 105 -117 105 -108 0 2 13 -8 29 -24 16 -15 39 -35 51 -43 13 -8
30 -23 39 -34 15 -17 37 -38 86 -83 27 -24 105 -122 84 -106 -9 7 -19 10 -22
7 -6 -6 -127 -9 -597 -14 -170 -2 -205 0 -204 11 3 30 13 69 20 80 4 7 8 28
10 48 5 61 14 101 23 101 5 0 12 21 15 48 4 26 13 67 21 92 7 25 19 79 25 120
6 41 16 101 22 133 13 67 -4 76 152 -78z m-974 -177 c11 -12 20 -25 20 -30 0
-4 3 -7 8 -6 10 3 62 -32 89 -59 12 -13 25 -23 29 -23 3 0 21 -12 39 -27 17
-16 42 -35 54 -43 24 -16 48 -35 96 -78 17 -15 51 -43 76 -62 25 -19 61 -52
78 -72 31 -36 34 -44 42 -145 5 -60 9 -155 8 -213 0 -337 2 -480 11 -509 9
-31 -3 -81 -20 -81 -3 0 -19 -22 -35 -50 -16 -27 -33 -50 -37 -50 -4 0 -8 -9
-8 -20 0 -11 -4 -20 -9 -20 -5 0 -11 -15 -15 -32 -5 -26 -2 -37 13 -49 18 -15
18 -16 0 -27 -10 -7 -17 -17 -15 -24 3 -7 7 -25 10 -39 3 -15 53 -74 118 -140
211 -214 453 -464 513 -530 33 -36 67 -73 75 -83 8 -9 63 -64 123 -123 59 -60
107 -111 107 -114 0 -3 23 -30 50 -59 37 -39 54 -50 61 -43 7 7 17 9 25 6 8
-3 16 5 20 21 3 14 9 24 13 21 4 -2 24 5 44 15 20 11 39 20 41 20 2 0 4 -66 5
-147 0 -82 3 -186 6 -233 3 -47 7 -247 10 -446 2 -198 7 -367 10 -376 12 -31
-13 -28 -40 4 -42 52 -147 159 -195 202 -25 21 -79 70 -120 110 -109 103 -222
208 -250 232 -14 12 -60 57 -102 100 -42 44 -90 89 -105 102 -74 60 -693 666
-693 680 -1 4 -19 21 -40 37 -21 17 -39 34 -40 39 0 5 -17 24 -39 42 -25 22
-41 45 -45 66 -3 18 -8 215 -11 438 -2 223 -8 538 -12 700 -6 246 -8 802 -4
1073 1 37 5 67 11 67 5 0 18 -10 30 -22z m1591 -460 c1 -7 3 -51 5 -98 1 -47
5 -118 8 -158 l6 -73 -28 20 c-15 10 -47 38 -72 60 -25 22 -48 41 -52 41 -3 0
-34 27 -67 59 -34 33 -61 56 -61 53 0 -4 -7 4 -16 16 -8 12 -29 29 -45 37 -16
9 -27 20 -25 24 3 5 76 7 162 6 122 -1 157 1 161 12 6 17 23 17 24 1z m-501
-18 c0 -3 -16 -29 -35 -57 -19 -29 -35 -56 -35 -61 0 -5 -7 -15 -14 -22 -8 -6
-25 -33 -37 -58 -13 -26 -26 -49 -29 -52 -4 -3 -17 -25 -31 -50 -13 -25 -30
-52 -38 -60 -8 -8 -35 -46 -60 -85 -24 -38 -47 -72 -50 -75 -10 -8 -77 -113
-95 -148 -10 -19 -19 -32 -22 -30 -6 7 -27 497 -25 592 1 58 5 82 16 90 9 6
69 13 138 14 67 2 124 5 126 7 6 6 191 1 191 -5z m122 -116 c23 -20 45 -40 46
-45 2 -5 8 -9 13 -9 6 0 24 -10 42 -22 33 -24 33 -24 93 -78 22 -19 75 -66
119 -105 44 -38 99 -87 122 -109 23 -21 53 -46 65 -55 12 -8 41 -33 63 -54 22
-21 52 -45 67 -52 14 -8 35 -25 45 -38 10 -12 36 -36 58 -52 34 -26 69 -56
144 -125 9 -8 34 -27 56 -42 67 -46 121 -97 110 -106 -6 -4 -16 -18 -22 -32
-12 -24 -37 -66 -77 -126 -65 -98 -127 -195 -150 -234 -15 -25 -63 -97 -107
-160 -44 -63 -99 -143 -122 -177 -23 -35 -45 -63 -49 -63 -4 0 -8 -7 -8 -15 0
-8 -4 -15 -9 -15 -5 0 -12 -12 -15 -26 -6 -24 -13 -34 -42 -67 -6 -7 -15 -24
-19 -37 -11 -33 -87 -129 -103 -129 -7 -1 -11 -5 -8 -10 3 -5 -2 -18 -12 -30
-17 -20 -19 -18 -149 114 -72 74 -130 135 -129 135 5 0 -163 168 -171 172 -5
1 -19 17 -31 33 -24 31 -140 154 -345 365 -156 161 -192 204 -172 208 9 2 13
8 10 13 -4 5 -2 9 4 9 5 0 23 28 40 63 34 69 57 110 93 165 13 20 28 45 33 54
6 9 40 62 78 117 37 55 67 104 67 107 0 4 7 15 15 24 15 17 88 131 146 230 63
106 152 240 159 240 5 0 28 -16 52 -36z m1274 -1105 c32 -36 77 -87 99 -114
22 -27 54 -64 70 -82 17 -18 46 -51 65 -73 19 -23 44 -52 56 -65 12 -13 44
-52 70 -87 27 -35 61 -76 76 -92 16 -16 28 -34 28 -40 0 -6 8 -19 18 -28 24
-22 124 -130 143 -154 15 -20 15 -22 -3 -33 -19 -12 -20 -20 -14 -139 4 -70 9
-386 12 -704 l6 -576 -69 -4 c-37 -2 -83 0 -100 3 -18 4 -33 4 -33 0 0 -3 -18
-6 -39 -6 l-39 0 -2 70 c-2 78 -4 98 -14 170 -7 59 -13 118 -22 235 -10 141
-53 257 -122 333 -46 49 -113 95 -130 90 -7 -3 -18 0 -25 5 -15 12 -71 24
-112 23 -41 -1 -135 -50 -145 -75 -4 -12 -26 -41 -49 -65 -50 -54 -69 -82 -75
-113 -2 -12 -9 -35 -14 -49 -6 -15 -15 -51 -21 -80 -6 -30 -13 -65 -16 -79
-24 -97 -34 -371 -16 -430 6 -19 11 -37 11 -40 0 -3 -72 -5 -160 -5 l-160 0
-1 35 c0 19 -2 60 -4 90 -1 30 -6 159 -10 285 -4 127 -11 324 -15 440 -4 116
-6 294 -6 397 1 177 3 189 23 215 13 15 37 53 54 83 18 30 48 77 68 105 38 52
52 75 73 115 7 14 23 36 35 50 13 14 23 28 23 32 0 3 17 33 39 65 21 32 55 83
75 113 19 30 58 88 86 128 27 41 50 76 50 78 0 7 47 72 74 102 l20 22 41 -42
c23 -24 68 -73 101 -109z m-31 -1389 c3 -5 15 -10 26 -10 25 0 109 -39 109
-51 0 -5 16 -29 35 -55 19 -25 35 -56 35 -69 0 -13 4 -26 9 -30 14 -8 30 -96
36 -190 3 -44 9 -138 13 -208 4 -70 6 -142 4 -160 l-4 -32 -106 -1 c-59 -1
-145 -2 -192 -3 -47 -2 -122 -2 -167 -2 l-82 1 -5 33 c-10 60 -13 230 -5 261
13 52 31 161 33 202 1 22 7 49 14 62 7 12 12 28 11 35 -3 14 11 47 25 64 6 6
29 37 51 69 49 70 139 118 160 84z"/>
<path d="M1002 3606 c-18 -22 -53 -98 -48 -103 3 -3 1 -13 -3 -22 -5 -9 -12
-147 -15 -308 l-5 -292 28 -6 c15 -3 38 -19 50 -35 12 -17 26 -30 32 -30 6 0
36 -21 66 -46 31 -25 69 -52 84 -60 26 -13 30 -13 49 6 17 17 20 28 14 53 -4
18 -8 156 -9 307 -3 221 -6 286 -20 330 -9 30 -20 69 -25 87 -12 49 -49 102
-76 109 -13 3 -24 9 -24 13 0 12 -89 10 -98 -3z m73 -104 c21 -14 47 -65 62
-120 13 -45 16 -103 15 -272 0 -118 -2 -220 -3 -227 -1 -7 -16 -1 -37 15 -21
16 -45 25 -62 24 -24 -2 -29 2 -34 32 -4 18 -1 46 5 62 6 16 12 116 14 229 2
110 6 211 8 225 3 14 6 28 6 33 1 9 13 9 26 -1z"/>
<path d="M3150 2169 c-8 -17 -10 -42 -5 -62 3 -17 9 -58 12 -89 l5 -58 -45 0
c-30 0 -53 -7 -68 -20 -13 -10 -19 -19 -12 -20 6 0 9 -9 6 -21 -9 -34 32 -59
83 -52 l41 5 7 -118 c7 -124 13 -201 24 -294 6 -44 12 -57 31 -66 20 -10 29
-9 48 3 23 15 24 20 18 82 -13 137 -15 153 -20 161 -3 4 -8 57 -11 117 -7 125
-7 125 79 116 l45 -5 7 45 c9 60 -4 82 -47 80 -18 -1 -33 -2 -33 -3 0 -6 -42
-8 -51 -2 -7 4 -15 39 -19 77 -12 115 -19 145 -38 146 -7 0 -20 2 -29 4 -10 2
-21 -7 -28 -26z"/>
</g>
</svg>
