<?xml version="1.0" standalone="no"?>
<!DOCTYPE svg PUBLIC "-//W3C//DTD SVG 20010904//EN"
 "http://www.w3.org/TR/2001/REC-SVG-20010904/DTD/svg10.dtd">
<svg version="1.0" xmlns="http://www.w3.org/2000/svg"
 width="459.000000pt" height="489.000000pt" viewBox="0 0 459.000000 489.000000"
 preserveAspectRatio="xMidYMid meet">
<metadata>
Created by potrace 1.16, written by Peter Selinger 2001-2019
</metadata>
<g transform="translate(0.000000,489.000000) scale(0.100000,-0.100000)"
fill="#000000" stroke="none">
<path d="M3806 4393 c-14 -16 -50 -46 -82 -68 -111 -79 -230 -174 -274 -219
-24 -25 -49 -46 -55 -46 -9 0 -105 -78 -166 -135 -9 -8 -18 -15 -22 -15 -3 0
-18 -11 -33 -25 -15 -14 -33 -25 -40 -25 -14 0 -47 -67 -40 -79 4 -6 13 -68
21 -141 3 -32 28 -96 41 -106 12 -9 9 -18 -14 -50 -16 -21 -36 -45 -45 -53 -9
-7 -17 -18 -17 -24 0 -5 -13 -23 -30 -39 -16 -15 -30 -32 -30 -36 0 -5 -19
-29 -41 -53 -40 -42 -75 -84 -144 -175 -16 -21 -35 -42 -41 -46 -7 -5 -29 -34
-50 -65 -21 -32 -56 -81 -79 -110 -22 -29 -65 -84 -95 -123 -30 -39 -81 -99
-112 -133 -32 -34 -60 -70 -64 -79 -3 -10 -10 -18 -15 -18 -5 0 -9 -8 -9 -19
0 -10 -10 -29 -23 -42 -13 -13 -40 -48 -61 -76 -21 -29 -40 -53 -44 -53 -3 0
-33 5 -66 11 -57 9 -67 8 -146 -20 -47 -17 -95 -31 -106 -31 -13 0 -46 -23
-77 -52 -136 -129 -138 -131 -164 -119 -63 29 -235 21 -307 -15 -16 -8 -35
-14 -41 -14 -14 0 -60 -57 -87 -106 -20 -37 -40 -110 -40 -144 0 -14 -6 -37
-14 -51 -14 -29 -102 -119 -116 -119 -4 0 -8 -5 -8 -12 0 -18 -178 -200 -289
-296 -53 -46 -189 -180 -227 -224 -79 -93 -125 -153 -145 -192 -12 -25 -26
-46 -31 -46 -12 0 -64 -116 -104 -235 -58 -170 -64 -308 -18 -400 16 -30 33
-55 39 -55 5 0 18 -12 29 -28 30 -45 92 -81 183 -107 103 -30 116 -31 263 -21
112 8 137 14 255 66 22 10 65 23 95 29 41 9 75 26 128 65 44 33 103 65 150 82
52 19 91 41 120 69 24 22 48 42 53 43 5 2 9 9 9 16 0 6 13 20 30 29 27 16 95
101 95 119 0 4 16 24 36 45 121 126 179 193 199 230 13 23 33 44 45 47 12 3
26 16 32 29 6 12 30 40 54 60 24 21 60 51 79 68 27 23 42 29 65 25 94 -17 110
-16 158 8 49 25 107 81 132 127 30 55 52 162 47 224 -2 33 -8 65 -13 70 -21
27 9 103 63 157 20 21 35 38 32 38 -2 0 3 17 12 38 19 42 30 232 14 232 -6 0
-10 6 -10 14 0 19 -43 28 -76 16 -40 -15 -39 -7 3 38 65 69 103 112 103 118 0
5 39 55 100 129 14 16 48 53 75 81 70 73 124 134 119 134 -8 0 138 163 164
184 13 11 49 53 80 95 71 96 82 110 108 135 12 12 49 60 82 108 34 47 74 96
88 107 15 12 23 21 19 21 -4 0 4 11 19 25 29 27 52 30 105 15 18 -5 70 -12
116 -15 86 -7 109 1 85 30 -10 12 -9 15 9 15 11 0 21 5 21 10 0 6 5 16 10 23
6 7 18 21 26 32 13 16 15 17 10 3 -3 -10 -2 -18 2 -18 13 0 32 23 32 40 0 8
13 42 29 75 52 109 140 318 156 373 3 12 11 22 16 22 5 0 9 10 9 23 0 13 4 27
9 33 15 17 69 159 75 199 4 22 9 47 11 56 4 12 -14 29 -62 60 -37 24 -83 59
-103 76 -19 18 -38 33 -42 33 -5 0 -8 6 -8 14 0 8 -10 16 -23 20 -13 3 -49 30
-80 61 -65 64 -94 70 -131 28z m84 -123 c0 -6 6 -10 13 -10 10 0 26 -12 98
-72 97 -82 122 -112 124 -152 1 -23 -1 -45 -5 -51 -15 -21 -82 -187 -77 -191
4 -5 -28 -94 -52 -142 -74 -152 -104 -218 -103 -224 1 -5 -2 -8 -7 -8 -5 0
-12 -13 -16 -29 -3 -16 -15 -37 -25 -46 -10 -9 -16 -23 -13 -31 3 -9 -2 -14
-16 -15 -68 -4 -87 -3 -109 8 -13 7 -39 10 -58 7 -20 -3 -34 -1 -34 5 0 6 -17
9 -40 6 -44 -4 -60 -11 -60 -26 0 -6 -15 -25 -33 -42 -34 -34 -72 -81 -123
-154 -17 -24 -44 -58 -61 -76 -16 -18 -60 -72 -97 -122 -37 -49 -104 -129
-148 -178 -45 -48 -90 -100 -102 -116 -36 -48 -145 -161 -156 -161 -5 0 -10
-3 -10 -7 0 -5 -14 -24 -30 -43 -37 -43 -83 -97 -110 -130 -12 -14 -38 -43
-58 -66 -65 -72 -127 -145 -137 -162 -5 -9 -33 -42 -62 -72 -56 -60 -71 -64
-150 -41 -47 13 -65 36 -69 90 -2 29 5 45 40 86 42 50 89 120 139 205 15 25
40 61 57 80 16 19 35 41 40 48 6 7 17 25 23 41 11 26 64 94 109 142 22 23 98
118 123 155 66 94 245 321 336 426 13 15 60 72 104 127 44 55 95 108 113 117
17 10 33 24 33 31 1 7 2 19 3 26 4 24 -15 47 -39 47 -16 0 -25 6 -25 15 0 8 6
15 14 15 25 0 26 15 6 67 -24 64 -37 153 -22 153 6 0 33 20 59 44 90 82 168
148 193 164 39 25 98 73 144 116 22 21 57 49 76 62 19 13 64 44 99 68 51 36
68 43 83 35 10 -5 18 -14 18 -19z m-1721 -2057 c-18 -21 -43 -48 -56 -60 -12
-12 -23 -26 -23 -32 0 -5 -11 -18 -25 -29 -13 -11 -29 -31 -36 -45 -10 -22 -8
-29 10 -48 12 -13 26 -39 31 -59 5 -20 21 -46 35 -58 65 -57 199 -97 248 -75
12 6 35 16 50 22 15 6 31 19 34 28 16 41 66 105 73 93 4 -6 18 -17 31 -24 21
-10 24 -20 27 -73 3 -60 2 -62 -27 -78 -17 -8 -40 -34 -51 -56 -14 -27 -27
-39 -38 -37 -9 2 -26 -4 -36 -14 -24 -22 -70 -23 -155 -3 -89 21 -171 68 -245
139 -137 132 -160 249 -70 354 54 64 112 90 203 91 l53 1 -33 -37z m-386 -172
c-7 -28 15 -123 41 -178 39 -81 171 -202 276 -255 36 -18 67 -35 70 -38 3 -3
16 -6 30 -6 14 -1 55 -8 92 -14 50 -10 74 -10 99 -1 38 13 43 10 35 -22 -8
-33 -27 -40 -121 -43 -96 -3 -163 11 -228 48 -26 15 -51 28 -56 28 -4 0 -18
11 -31 25 -13 14 -43 35 -65 46 -53 27 -165 133 -165 157 0 5 -7 16 -17 23 -9
8 -29 40 -44 72 -24 51 -26 62 -15 87 10 25 78 87 98 89 3 1 4 -8 1 -18z
m-203 -6 c-29 -35 -10 -175 30 -220 22 -25 45 -67 42 -77 -1 -5 5 -8 14 -8 8
0 13 -4 10 -9 -7 -10 35 -65 72 -95 13 -10 35 -31 50 -46 15 -15 58 -44 97
-65 38 -20 72 -40 75 -43 10 -14 136 -72 180 -83 25 -6 103 -12 173 -13 l129
-1 -5 -40 c-3 -22 -11 -41 -16 -43 -6 -2 -11 -9 -11 -16 0 -21 -65 -84 -95
-92 -15 -4 -42 -2 -59 4 -61 21 -98 17 -151 -16 -27 -17 -51 -30 -52 -28 -2 2
2 17 8 35 9 27 9 35 -2 42 -24 15 -58 10 -79 -11 -11 -11 -18 -20 -15 -20 7 0
2 -6 -90 -112 -42 -48 -79 -88 -83 -90 -4 -2 -25 -25 -47 -53 -22 -27 -61 -72
-87 -99 -27 -27 -48 -53 -48 -58 0 -10 -80 -88 -91 -88 -4 0 -10 -9 -14 -20
-3 -11 -24 -36 -45 -56 -22 -21 -37 -41 -34 -46 3 -4 1 -8 -3 -8 -10 0 -99
-87 -134 -132 -15 -18 -49 -44 -77 -58 -28 -14 -56 -35 -63 -47 -29 -53 -157
-58 -160 -7 -1 13 -2 28 -3 33 -2 15 88 118 206 238 39 40 247 239 262 251 8
6 20 12 26 12 5 0 10 3 10 8 0 16 80 103 160 173 47 41 103 93 125 115 22 23
50 45 62 48 30 9 40 56 16 74 -27 20 -73 6 -110 -34 -18 -20 -33 -40 -33 -45
0 -15 -216 -219 -232 -219 -4 0 -8 -5 -8 -12 0 -7 -78 -89 -173 -183 -96 -94
-178 -178 -183 -186 -5 -9 -25 -27 -45 -40 -30 -20 -72 -64 -117 -124 -30 -40
-42 -69 -40 -97 1 -18 -1 -43 -5 -55 -7 -19 -2 -25 30 -41 l38 -20 -43 -11
c-23 -6 -59 -16 -81 -21 -48 -12 -176 -15 -256 -6 -50 6 -146 45 -165 67 -3 3
-12 8 -20 11 -29 10 -74 88 -77 131 -2 23 -6 49 -9 57 -7 16 -5 80 2 92 3 4
13 3 23 -4 14 -8 29 -7 64 7 26 10 52 24 58 31 6 8 15 14 20 14 9 0 54 37 93
75 12 12 41 36 66 55 25 19 50 40 56 45 6 6 31 27 54 46 61 49 70 59 70 74 0
8 24 32 54 54 30 22 85 70 122 107 38 36 86 78 107 92 20 14 44 39 52 56 8 17
29 40 46 51 17 11 39 36 49 55 10 19 32 47 49 63 17 15 31 31 31 35 0 4 14 16
31 26 17 10 35 29 41 42 6 13 16 24 22 24 15 0 46 53 46 78 0 46 -74 32 -104
-19 -22 -37 -72 -89 -86 -89 -5 0 -10 -6 -10 -13 0 -7 -16 -29 -36 -48 -19
-18 -42 -48 -50 -65 -8 -17 -26 -37 -39 -44 -14 -7 -25 -17 -25 -22 0 -4 -6
-8 -13 -8 -7 0 -21 -15 -30 -34 -8 -19 -28 -42 -43 -53 -22 -15 -172 -154
-229 -213 -8 -8 -37 -37 -63 -65 -65 -66 -108 -105 -119 -105 -5 0 -27 -18
-48 -41 -40 -41 -171 -139 -187 -139 -20 0 -2 54 29 88 7 7 16 31 19 52 4 26
14 42 30 50 13 7 28 27 34 44 6 17 29 45 50 61 22 17 42 37 45 45 3 8 32 43
65 78 33 34 60 64 60 67 0 3 21 24 47 47 26 24 64 60 85 81 20 20 39 37 41 37
3 0 41 36 86 80 44 44 85 80 90 80 5 0 12 8 16 18 3 11 24 33 48 50 66 49 207
188 207 205 0 45 -66 45 -95 0 -32 -48 -316 -323 -334 -323 -6 0 -11 -4 -11
-8 0 -5 -81 -91 -180 -190 -98 -100 -183 -188 -187 -195 -4 -6 -21 -23 -37
-37 l-29 -25 18 35 c10 19 43 62 74 95 31 33 68 74 82 90 15 17 44 46 65 66
22 20 46 45 54 56 21 26 136 123 146 123 5 0 15 9 22 20 7 12 17 18 22 15 6
-3 10 0 10 8 0 7 19 32 43 55 93 90 114 111 162 167 55 64 106 115 117 115 11
0 27 59 17 65 -5 4 -7 10 -4 15 3 4 6 28 6 52 2 49 33 118 53 118 8 0 16 6 19
14 7 17 69 31 146 34 48 2 52 1 41 -13z m446 -944 c-22 -21 -26 -22 -20 -6 12
29 38 57 43 44 2 -6 -9 -23 -23 -38z m-26 -35 c0 -2 -17 -16 -37 -32 -35 -26
-37 -19 -5 19 13 15 42 24 42 13z m-131 -138 c-18 -26 -145 -174 -169 -198 -3
-3 -31 -39 -63 -81 -99 -131 -257 -266 -257 -220 0 10 34 45 89 94 17 15 31
34 31 42 0 8 6 15 13 15 14 0 57 33 57 43 0 4 34 40 75 82 41 41 75 77 75 80
0 2 15 19 33 37 17 18 48 53 66 78 46 60 65 79 69 69 2 -5 -7 -23 -19 -41z
m-1399 -58 c0 -5 -5 -10 -11 -10 -5 0 -7 5 -4 10 3 6 8 10 11 10 2 0 4 -4 4
-10z"/>
<path d="M1444 1443 c-32 -38 -76 -84 -96 -104 -21 -19 -38 -38 -38 -42 0 -10
-41 -57 -79 -92 -19 -16 -61 -57 -93 -90 -32 -33 -63 -64 -69 -70 -18 -17 -68
-69 -82 -85 -7 -8 -60 -58 -116 -110 -57 -52 -116 -106 -130 -120 -15 -14 -54
-50 -86 -80 -33 -30 -78 -77 -100 -105 -21 -27 -47 -57 -56 -65 -31 -29 -45
-131 -24 -182 4 -10 16 -18 27 -18 12 0 38 -5 60 -12 30 -9 51 -9 91 1 61 15
117 39 117 50 0 4 21 23 48 41 44 32 106 90 370 349 62 61 119 111 127 111 8
0 15 4 15 9 0 10 187 201 196 201 8 0 55 53 72 82 9 16 22 28 29 28 7 0 13 6
13 14 0 7 25 35 55 61 76 67 91 91 74 121 -7 13 -19 24 -26 24 -16 0 -73 -40
-73 -51 0 -5 -23 -32 -51 -61 -107 -113 -118 -125 -113 -131 3 -3 -16 -22 -42
-43 -26 -22 -54 -48 -63 -59 -9 -10 -43 -47 -76 -80 -33 -34 -77 -80 -98 -103
-20 -23 -40 -42 -43 -42 -3 0 -43 -38 -89 -84 -46 -46 -93 -87 -103 -91 -11
-3 -39 -30 -61 -59 -48 -62 -91 -103 -144 -135 -21 -13 -49 -35 -62 -49 -18
-20 -34 -25 -83 -28 -52 -3 -63 0 -86 21 -23 21 -25 27 -15 52 13 34 48 73 66
73 7 0 13 9 13 20 0 19 35 57 193 208 30 28 59 52 64 52 5 0 26 22 48 50 22
27 42 50 45 50 6 0 160 144 185 172 6 6 46 48 90 92 44 45 114 119 155 165 41
46 91 91 111 101 38 20 66 68 55 95 -3 9 -18 15 -34 15 -23 0 -41 -13 -88 -67z"/>
</g>
</svg>
