<?xml version="1.0" standalone="no"?>
<!DOCTYPE svg PUBLIC "-//W3C//DTD SVG 20010904//EN"
 "http://www.w3.org/TR/2001/REC-SVG-20010904/DTD/svg10.dtd">
<svg version="1.0" xmlns="http://www.w3.org/2000/svg"
 width="511.000000pt" height="467.000000pt" viewBox="0 0 511.000000 467.000000"
 preserveAspectRatio="xMidYMid meet">
<metadata>
Created by potrace 1.16, written by Peter Selinger 2001-2019
</metadata>
<g transform="translate(0.000000,467.000000) scale(0.100000,-0.100000)"
fill="#000000" stroke="none">
<path d="M4185 4575 c-27 -8 -63 -18 -80 -21 -42 -9 -252 -110 -262 -126 -4
-7 -21 -22 -38 -32 -29 -19 -37 -27 -79 -78 -11 -12 -45 -52 -76 -88 -31 -36
-68 -81 -82 -100 -14 -19 -36 -47 -49 -61 -25 -27 -44 -52 -104 -129 -19 -25
-41 -53 -49 -62 -8 -9 -26 -37 -41 -63 -14 -26 -39 -61 -55 -78 -17 -18 -30
-35 -30 -39 0 -5 -19 -27 -41 -50 -23 -24 -49 -54 -58 -68 -23 -36 -102 -134
-115 -142 -6 -4 -7 -8 -3 -8 5 0 -5 -12 -20 -27 -39 -38 -107 -126 -148 -192
-5 -9 -35 -47 -65 -85 -30 -39 -60 -78 -65 -87 -13 -23 -129 -159 -182 -215
-23 -24 -47 -53 -54 -65 -10 -20 -92 -131 -114 -155 -5 -7 -19 -24 -30 -40
-11 -15 -30 -37 -41 -49 -12 -12 -34 -41 -50 -65 -37 -57 -37 -57 -149 -174
-53 -55 -102 -101 -110 -102 -9 -1 -22 4 -30 13 -9 8 -28 13 -47 11 -28 -3
-32 0 -40 29 -12 46 -120 117 -248 162 -121 42 -314 47 -430 11 -105 -34 -205
-81 -233 -111 -10 -10 -22 -19 -28 -19 -22 0 -121 -85 -139 -119 -10 -20 -34
-52 -52 -71 -18 -19 -60 -66 -93 -105 -33 -38 -69 -79 -81 -92 -11 -12 -29
-42 -40 -65 -10 -24 -21 -45 -24 -48 -15 -15 -62 -139 -89 -240 -27 -102 -30
-127 -27 -220 2 -58 6 -116 10 -130 3 -14 8 -49 11 -79 5 -58 22 -120 36 -135
5 -6 9 -20 9 -33 0 -13 4 -23 10 -23 5 0 12 -17 16 -37 6 -34 35 -86 96 -175
10 -15 18 -31 18 -35 0 -11 92 -116 154 -176 28 -27 65 -55 84 -63 19 -8 40
-20 46 -28 13 -16 52 -27 72 -19 8 3 22 22 31 42 9 20 25 42 35 49 10 7 27 31
38 52 11 21 23 40 28 42 5 1 26 30 47 63 21 33 41 62 45 65 12 9 60 89 60 102
1 7 14 24 30 38 17 13 30 29 30 36 0 7 16 32 36 55 20 24 40 54 45 66 11 29
19 29 55 -3 16 -14 47 -38 70 -53 38 -25 40 -28 31 -56 -5 -17 -16 -37 -23
-45 -7 -9 -21 -33 -31 -55 -15 -35 -46 -83 -75 -120 -5 -5 -27 -39 -51 -74
-23 -36 -54 -79 -70 -95 -15 -17 -41 -59 -58 -94 -18 -38 -39 -66 -50 -69 -18
-5 -24 -25 -21 -66 2 -22 40 -56 62 -57 9 0 24 -6 35 -14 30 -20 187 -48 274
-48 111 -1 231 22 231 44 0 4 12 8 26 8 15 0 45 10 68 22 43 24 47 27 85 58
13 11 28 20 33 20 5 0 25 16 44 36 19 20 34 33 34 29 0 -10 77 69 113 117 15
19 27 46 27 59 0 21 8 27 48 38 60 18 112 42 112 53 0 4 7 8 15 8 15 0 74 57
135 130 19 24 40 48 45 54 16 19 33 48 55 93 11 23 24 44 29 48 5 3 12 20 16
38 4 17 20 58 36 89 16 31 36 76 45 99 21 63 54 226 56 284 1 60 -16 204 -31
260 -7 22 -13 47 -16 56 -5 25 30 69 135 165 52 48 196 189 320 313 124 125
267 264 319 311 52 47 119 110 150 140 31 30 88 76 126 102 39 26 81 64 95 85
14 21 34 45 45 54 11 9 33 29 48 43 15 14 32 26 38 26 5 0 9 7 9 15 0 8 9 15
20 15 12 0 54 32 98 74 42 41 95 87 116 103 45 32 186 171 186 184 0 4 9 10
20 14 10 3 32 26 47 51 15 25 43 66 61 90 18 25 50 80 71 122 21 42 48 95 59
117 48 92 61 161 56 300 -6 190 -27 253 -113 329 -13 11 -38 33 -55 49 -17 15
-65 44 -106 64 -66 33 -85 37 -160 40 -53 2 -104 -3 -135 -12z m270 -128 c83
-41 179 -129 180 -165 1 -4 6 -16 12 -27 17 -31 20 -270 4 -337 -8 -32 -18
-58 -23 -58 -4 0 -8 -6 -8 -14 0 -8 -6 -21 -13 -28 -7 -7 -31 -47 -52 -88 -22
-41 -48 -85 -60 -97 -11 -11 -29 -38 -39 -60 -11 -21 -36 -54 -55 -74 -20 -19
-70 -71 -111 -115 -41 -43 -95 -92 -119 -107 -24 -16 -72 -57 -105 -92 -34
-34 -79 -74 -102 -88 -72 -45 -160 -124 -177 -159 -13 -28 -124 -128 -142
-128 -3 0 -48 -42 -99 -93 -52 -52 -133 -127 -182 -167 -96 -79 -150 -129
-217 -200 -144 -153 -214 -226 -227 -236 -8 -6 -51 -46 -95 -88 -44 -42 -113
-102 -152 -134 -58 -45 -73 -62 -73 -84 0 -26 24 -80 46 -104 17 -19 38 -216
31 -294 -6 -74 -37 -191 -65 -249 -9 -19 -17 -37 -17 -40 -1 -3 -11 -25 -23
-48 -12 -23 -22 -49 -22 -56 0 -22 -95 -163 -148 -219 -51 -54 -106 -94 -162
-117 -39 -16 -126 -17 -145 -1 -7 6 -27 16 -46 23 -29 10 -264 159 -279 176
-8 10 -113 76 -141 90 -14 7 -54 39 -89 72 -35 32 -67 59 -71 59 -4 0 -16 14
-26 31 -16 27 -22 30 -52 25 -19 -3 -38 -11 -42 -18 -4 -7 -17 -24 -28 -37
-12 -14 -19 -31 -17 -38 3 -7 1 -15 -4 -18 -6 -4 -10 -14 -10 -24 0 -10 -8
-25 -18 -35 -11 -9 -48 -62 -83 -117 -35 -55 -87 -131 -115 -167 -28 -37 -54
-76 -58 -87 -3 -11 -28 -44 -55 -73 l-49 -53 -18 23 c-11 13 -35 32 -54 42
-19 11 -46 34 -60 50 -14 17 -35 41 -47 54 -13 13 -30 37 -39 54 -9 17 -30 50
-46 72 -16 23 -37 57 -45 76 -31 71 -64 156 -69 175 -37 151 -46 362 -18 460
9 33 20 80 25 105 9 45 76 186 108 226 10 12 47 55 84 96 98 109 107 120 132
158 12 20 39 47 59 60 20 14 36 28 36 33 0 4 4 7 9 7 6 0 40 19 77 43 36 23
73 41 80 39 8 -2 14 2 14 7 0 15 119 49 180 51 143 5 233 -2 270 -20 8 -5 35
-14 60 -21 41 -12 149 -67 177 -91 8 -7 9 -17 2 -35 -11 -30 7 -48 58 -58 25
-4 31 -10 26 -23 -4 -13 -3 -14 6 -6 13 12 61 7 61 -7 0 -5 11 -9 23 -9 21 0
93 67 153 141 6 8 29 30 50 49 41 37 90 97 136 165 15 22 39 52 53 67 14 15
25 30 25 33 0 3 19 32 42 63 95 129 123 167 128 172 7 7 102 120 117 140 33
43 117 146 127 155 18 17 71 88 96 130 13 22 43 63 67 91 24 28 43 54 43 58 0
3 8 15 18 25 9 11 22 26 27 33 30 40 91 113 110 131 12 12 50 60 85 107 35 47
66 87 70 90 4 3 33 42 66 88 32 45 68 96 80 111 31 43 166 213 187 236 11 11
38 42 60 70 57 68 114 122 162 153 62 40 167 92 187 92 10 0 18 4 18 8 0 7 96
27 170 35 47 5 105 -10 175 -46z m-2757 -3650 c28 -15 52 -32 52 -37 0 -6 5
-10 11 -10 9 0 185 -115 199 -130 12 -13 82 -50 95 -50 25 0 -6 -67 -51 -113
-75 -75 -107 -98 -195 -143 -88 -44 -96 -46 -204 -64 -91 -14 -250 9 -292 42
-7 6 -13 7 -13 3 0 -5 -2 -6 -6 -3 -8 8 111 200 162 262 25 29 80 117 102 164
21 43 73 112 82 109 3 -1 29 -15 58 -30z"/>
<path d="M4168 4385 c-2 -3 -24 -7 -49 -10 -65 -8 -79 -14 -79 -35 0 -10 -6
-20 -12 -23 -9 -3 -3 -15 16 -35 23 -25 33 -29 55 -22 76 22 150 30 202 20 30
-6 56 -15 57 -20 2 -6 10 -10 17 -10 14 0 65 -62 65 -79 0 -6 9 -20 20 -31 16
-16 18 -29 15 -76 -5 -70 -79 -225 -139 -291 -58 -64 -313 -322 -361 -364 -22
-20 -52 -49 -66 -65 -51 -58 -293 -280 -358 -329 -36 -28 -109 -93 -161 -144
-52 -51 -110 -105 -128 -119 -18 -14 -55 -46 -81 -71 -108 -103 -149 -141
-154 -141 -3 0 -52 -48 -109 -106 -170 -175 -202 -207 -245 -246 -72 -64 -100
-128 -63 -148 18 -10 27 -5 63 29 114 110 164 159 187 186 14 17 41 41 59 55
42 31 50 38 81 79 14 18 38 45 55 60 16 14 59 54 95 87 36 34 85 79 109 100
24 22 77 71 116 109 40 39 85 81 101 94 16 13 54 47 84 75 31 28 76 67 100 86
46 37 100 91 100 101 0 3 27 25 60 48 33 23 66 52 75 64 8 12 15 19 15 15 0
-3 16 8 36 25 35 31 152 140 166 155 48 49 78 82 78 85 0 9 210 217 219 217 6
0 11 4 11 10 0 5 15 30 34 54 19 25 45 69 59 98 66 141 76 232 33 317 -15 28
-31 51 -36 51 -6 0 -10 5 -10 10 0 18 -43 70 -57 70 -7 0 -13 5 -13 10 0 6 -5
10 -10 10 -6 0 -30 9 -53 20 -39 19 -186 37 -199 25z"/>
<path d="M1739 1972 c-11 -7 -17 -18 -14 -23 4 -5 1 -9 -6 -9 -6 0 -9 -8 -6
-20 4 -15 -1 -22 -18 -26 -16 -4 -30 -21 -45 -57 -41 -99 -154 -319 -175 -341
-35 -38 -46 -72 -34 -106 7 -19 18 -30 30 -30 24 0 179 -77 179 -88 0 -8 36
-32 128 -89 13 -8 28 -25 34 -39 10 -21 17 -25 41 -20 20 4 38 0 57 -14 15
-11 33 -20 38 -20 6 0 29 -18 51 -39 30 -29 49 -39 71 -39 22 1 30 6 30 19 0
10 8 24 18 31 18 12 152 184 152 193 0 3 26 31 58 63 77 80 85 90 106 145 10
26 22 47 26 47 14 0 24 70 13 81 -6 6 -17 11 -24 13 -8 1 -36 12 -64 25 -27
13 -65 30 -83 37 -18 8 -70 40 -115 71 -45 31 -99 65 -122 75 -97 46 -158 87
-231 154 -25 24 -66 26 -95 6z m151 -190 c5 -13 10 -36 10 -51 0 -40 -36 -273
-54 -350 -8 -36 -13 -68 -11 -72 10 -15 -29 -19 -52 -4 -22 15 -23 19 -18 98
6 94 20 193 40 287 8 36 17 81 20 101 6 34 8 36 30 25 13 -6 29 -21 35 -34z
m-170 -77 c-4 -27 -18 -111 -31 -186 l-23 -136 -26 17 c-14 10 -40 26 -58 37
-28 17 -32 22 -20 34 18 20 43 62 87 149 39 78 75 140 77 137 1 -1 -2 -24 -6
-52z m321 4 c20 -20 21 -29 15 -123 -3 -55 -10 -130 -16 -166 -6 -36 -14 -90
-17 -120 -3 -30 -9 -60 -15 -67 -5 -7 -7 -17 -4 -22 12 -18 -14 -22 -44 -6
-31 16 -31 16 -29 93 1 42 8 106 15 142 8 36 18 103 24 150 11 88 26 140 41
140 5 0 19 -10 30 -21z m149 -84 c6 -8 12 -29 12 -47 0 -53 -20 -249 -26 -255
-3 -4 -1 -12 5 -20 13 -15 0 -39 -50 -94 l-31 -33 0 29 c0 17 7 62 15 100 9
39 20 113 25 165 18 174 22 188 50 155z m177 -95 c1 0 -7 -15 -18 -34 -25 -43
-48 -54 -51 -23 -1 12 -2 31 -3 42 -2 31 3 34 38 24 17 -5 33 -9 34 -9z"/>
</g>
</svg>
