<?xml version="1.0" standalone="no"?>
<!DOCTYPE svg PUBLIC "-//W3C//DTD SVG 20010904//EN"
 "http://www.w3.org/TR/2001/REC-SVG-20010904/DTD/svg10.dtd">
<svg version="1.0" xmlns="http://www.w3.org/2000/svg"
 width="381.000000pt" height="375.000000pt" viewBox="0 0 381.000000 375.000000"
 preserveAspectRatio="xMidYMid meet">
<metadata>
Created by potrace 1.16, written by Peter Selinger 2001-2019
</metadata>
<g transform="translate(0.000000,375.000000) scale(0.100000,-0.100000)"
fill="#000000" stroke="none">
<path d="M2290 3733 c-23 -8 -170 -165 -170 -180 0 -5 -10 -20 -23 -35 -27
-33 -59 -74 -89 -113 -12 -16 -37 -45 -55 -63 -18 -18 -33 -36 -33 -40 -1 -4
-19 -25 -40 -47 -22 -22 -42 -46 -45 -55 -8 -26 10 -75 31 -79 19 -3 64 -49
64 -64 0 -5 4 -6 9 -3 5 3 14 -1 20 -8 11 -13 66 -28 116 -31 11 -1 40 -8 65
-15 25 -7 52 -14 60 -14 37 -3 90 -19 99 -30 16 -19 21 -69 9 -83 -5 -7 -10
-31 -10 -54 1 -27 -6 -47 -19 -60 -10 -10 -19 -22 -19 -25 0 -10 -118 -134
-220 -231 -93 -87 -363 -363 -356 -363 4 0 -10 -15 -31 -32 -20 -18 -55 -53
-77 -78 -23 -25 -108 -113 -191 -196 -82 -84 -157 -162 -165 -175 -8 -12 -25
-31 -37 -42 -13 -11 -23 -24 -23 -29 0 -5 -17 -26 -37 -47 -21 -21 -43 -44
-49 -52 -7 -8 -31 -33 -55 -56 -48 -45 -55 -53 -113 -127 -45 -57 -71 -88
-104 -124 -12 -14 -22 -29 -22 -33 0 -5 -6 -9 -14 -9 -8 0 -17 -8 -20 -17 -3
-10 -18 -31 -33 -48 -16 -16 -39 -46 -53 -66 -39 -59 -152 -189 -296 -341 -24
-26 -44 -49 -44 -53 0 -3 -12 -18 -26 -33 -14 -15 -35 -45 -46 -67 -11 -22
-31 -50 -44 -62 -31 -29 -28 -98 7 -124 13 -9 26 -16 30 -14 3 3 16 -5 28 -16
12 -12 25 -19 28 -15 5 4 66 -36 83 -54 18 -21 77 -54 107 -60 30 -7 39 -5 65
18 58 52 103 97 131 132 46 57 117 139 192 221 90 99 121 135 201 237 36 46
76 93 87 106 12 12 40 44 62 71 22 27 57 66 78 87 20 21 37 41 37 44 0 3 65
72 145 153 81 80 150 153 155 160 13 22 79 97 138 159 28 30 52 58 52 63 0 5
5 9 10 9 6 0 10 5 10 11 0 7 10 21 23 33 21 20 120 134 142 164 6 7 18 22 28
33 9 10 17 21 17 24 0 5 56 67 128 142 12 13 22 28 22 33 0 6 9 15 20 22 11 7
20 17 20 23 0 5 22 33 48 60 26 28 70 80 99 115 28 36 64 76 80 91 15 14 43
44 61 67 37 46 46 49 68 27 30 -30 154 -5 154 31 0 20 112 128 152 147 20 9
54 17 76 17 43 0 102 -17 102 -30 0 -4 12 -11 27 -15 26 -6 74 -36 101 -62 7
-7 18 -13 23 -13 5 0 9 -4 9 -10 0 -5 20 -36 44 -67 59 -78 100 -165 115 -243
16 -82 15 -380 -2 -397 -15 -14 -5 -35 30 -68 31 -28 38 -31 50 -19 8 8 21 14
28 14 8 0 17 10 21 23 4 12 15 29 25 38 11 9 19 21 19 28 0 6 4 11 8 11 4 0
18 19 30 43 13 23 29 53 36 67 33 61 46 98 49 136 2 23 6 45 9 50 3 5 6 34 7
64 1 30 6 59 11 64 5 5 4 22 -4 41 -9 20 -10 38 -5 48 6 9 6 18 0 21 -5 3 -7
15 -4 26 3 11 1 20 -5 20 -11 0 -42 71 -42 96 0 8 -8 27 -18 42 -22 32 -79
125 -101 166 -29 54 -79 108 -186 204 -32 28 -64 52 -71 52 -6 0 -14 7 -17 15
-4 8 -25 28 -48 45 -24 17 -79 63 -123 104 -45 40 -101 90 -126 112 -74 64
-120 113 -120 127 0 8 -9 13 -22 12 -13 -1 -28 2 -35 7 -20 16 -68 -1 -107
-38 -21 -20 -40 -33 -43 -30 -4 3 -12 1 -18 -4 -35 -29 -70 30 -80 134 -6 52
-16 84 -42 128 -19 32 -40 58 -47 58 -8 0 -19 7 -26 15 -7 8 -19 15 -27 15 -8
0 -26 9 -40 20 -25 20 -53 24 -83 13z m112 -166 c24 -26 46 -115 39 -155 -1
-8 7 -34 18 -58 12 -24 21 -45 21 -47 0 -9 67 -73 92 -90 31 -19 88 -23 88 -5
0 6 3 9 6 5 6 -6 17 1 55 36 10 9 24 17 29 17 6 0 10 7 10 15 0 22 19 18 45
-7 13 -13 42 -39 65 -58 23 -19 61 -53 85 -75 169 -156 216 -199 246 -220 18
-14 47 -40 64 -58 17 -17 55 -54 83 -80 29 -26 52 -50 52 -52 0 -3 8 -13 18
-23 37 -39 85 -104 103 -139 35 -72 89 -207 84 -211 -2 -3 0 -13 6 -24 7 -13
4 -47 -12 -121 -12 -56 -22 -109 -24 -116 -1 -8 -7 -17 -13 -19 -11 -3 -17 16
-13 45 1 7 -6 43 -14 80 -9 37 -19 79 -21 93 -3 14 -16 48 -30 77 -13 28 -24
55 -24 58 0 7 -50 75 -66 90 -6 6 -24 28 -39 50 -61 86 -97 116 -213 178 -63
34 -175 45 -232 24 -52 -19 -118 -55 -127 -70 -4 -7 -19 -20 -33 -28 -14 -9
-39 -31 -56 -48 -29 -30 -33 -31 -48 -16 -9 9 -16 13 -16 9 0 -3 -30 23 -66
60 -37 36 -71 66 -75 66 -5 0 -9 5 -9 11 0 5 -13 27 -30 47 -25 31 -29 43 -22
67 4 17 7 59 7 94 -1 71 -5 77 -91 117 -37 18 -75 26 -132 29 -78 4 -129 20
-160 51 -7 8 -18 14 -23 14 -20 0 4 75 33 103 16 16 35 44 43 63 8 19 18 34
23 34 8 0 66 72 165 204 5 6 26 11 46 11 28 0 44 -8 63 -28z m-2 -877 c0 -6
20 -31 45 -57 25 -25 45 -48 45 -50 0 -8 -43 -65 -70 -95 -14 -15 -53 -58 -87
-95 -35 -37 -63 -72 -63 -78 0 -6 -8 -18 -17 -26 -10 -9 -38 -39 -63 -69 -25
-29 -55 -64 -67 -77 -13 -13 -23 -27 -23 -30 0 -3 -30 -39 -67 -80 -38 -41
-81 -93 -98 -117 -16 -23 -42 -55 -56 -71 -15 -17 -61 -69 -103 -118 -43 -48
-99 -109 -124 -135 -26 -27 -60 -64 -76 -83 -94 -111 -194 -221 -338 -372 -60
-61 -108 -116 -108 -122 0 -5 -17 -28 -38 -51 -20 -22 -57 -64 -82 -93 -25
-29 -62 -70 -82 -91 -21 -21 -38 -43 -38 -49 0 -5 -8 -12 -18 -15 -11 -4 -25
-18 -32 -31 -7 -14 -17 -25 -22 -25 -4 0 -8 -5 -8 -11 0 -5 -29 -40 -63 -77
-35 -37 -95 -101 -133 -142 -80 -87 -120 -123 -133 -118 -36 14 -120 77 -129
97 -19 40 -14 57 29 103 22 23 52 57 67 74 15 17 63 71 107 119 123 135 125
138 125 144 0 3 50 57 110 119 61 63 110 117 110 122 0 4 44 53 97 108 54 56
147 158 208 227 60 69 113 125 117 125 4 0 9 8 13 18 3 9 24 38 48 63 23 25
67 74 97 109 90 104 142 162 188 205 23 23 42 45 42 48 0 3 17 23 38 45 20 21
54 59 75 83 48 55 236 249 241 249 3 0 45 39 94 88 49 48 108 104 130 124 23
20 46 47 53 60 23 46 59 74 59 48z"/>
</g>
</svg>
