<?xml version="1.0" standalone="no"?>
<!DOCTYPE svg PUBLIC "-//W3C//DTD SVG 20010904//EN"
 "http://www.w3.org/TR/2001/REC-SVG-20010904/DTD/svg10.dtd">
<svg version="1.0" xmlns="http://www.w3.org/2000/svg"
 width="477.000000pt" height="371.000000pt" viewBox="0 0 477.000000 371.000000"
 preserveAspectRatio="xMidYMid meet">
<metadata>
Created by potrace 1.16, written by Peter Selinger 2001-2019
</metadata>
<g transform="translate(0.000000,371.000000) scale(0.100000,-0.100000)"
fill="#000000" stroke="none">
<path d="M3977 3424 c-3 -3 -651 -14 -922 -14 -105 -1 -196 -5 -204 -9 -16
-10 -16 -3 -6 -861 3 -267 8 -567 11 -667 4 -168 4 -182 -13 -190 -10 -5 -193
-8 -408 -6 -214 1 -635 2 -935 1 -300 -1 -735 -2 -968 -2 -450 -1 -449 -1
-438 -48 2 -9 -1 -19 -7 -21 -5 -1 -9 -19 -7 -38 3 -42 3 -92 0 -189 -1 -41 1
-120 4 -175 10 -149 26 -337 31 -365 8 -52 20 -208 19 -268 0 -34 4 -62 8 -62
4 0 5 -6 2 -13 -3 -8 3 -20 12 -28 13 -11 108 -13 553 -9 645 5 1053 4 1543
-3 224 -3 370 -2 374 4 3 5 10 6 17 2 6 -3 304 -7 662 -8 358 -2 661 -6 673
-9 39 -13 79 2 88 32 4 15 7 30 6 35 -6 27 -3 150 4 157 5 4 24 11 42 15 25 5
32 3 32 -9 0 -20 10 -20 40 1 40 27 41 33 35 138 -14 252 -15 283 -30 985 -3
124 -8 293 -11 375 -3 83 -7 377 -10 654 -3 289 -9 512 -14 522 -6 10 -10 27
-10 38 0 13 -8 22 -22 25 -29 7 -147 14 -151 10z m-182 -108 c121 -3 230 -6
241 -6 36 0 34 25 48 -610 9 -366 16 -726 21 -1075 3 -176 8 -436 11 -577 4
-152 2 -258 -3 -258 -5 0 -15 6 -21 12 -10 10 -14 10 -21 0 -6 -9 -73 -12
-292 -12 -156 0 -293 0 -304 0 -264 0 -300 2 -306 12 -17 27 -35 743 -18 753
7 5 9 32 4 87 -4 43 -8 193 -10 331 -2 139 -6 483 -10 765 -4 282 -4 528 -1
547 l7 34 82 3 c93 3 255 2 572 -6z m-757 -68 l-3 -73 -40 3 c-44 4 -78 19
-71 31 3 4 6 31 7 59 l3 52 53 0 54 0 -3 -72z m4 -165 c1 -16 2 -51 2 -80 l1
-51 -58 -4 -57 -3 0 76 c0 42 3 79 7 82 3 4 28 7 55 7 45 0 48 -2 50 -27z m3
-274 l0 -64 -45 0 c-25 0 -50 -4 -57 -8 -14 -9 -19 20 -15 88 l4 51 56 -1 56
-1 1 -65z m-45 -144 l45 0 2 -78 3 -77 -59 2 -59 3 -1 83 c-1 66 1 82 11 76 7
-5 33 -9 58 -9z m50 -305 l0 -80 -57 0 -58 0 1 68 c1 37 2 72 3 77 0 6 26 11
56 12 l55 3 0 -80z m-80 -164 c0 5 19 10 43 11 l42 3 1 -59 0 -59 -58 -1 -58
0 0 61 c0 53 2 59 15 48 8 -7 15 -9 15 -4z m78 -252 l3 -71 -51 1 c-49 1 -50
2 -50 31 -1 17 -3 49 -5 73 l-3 43 51 -3 52 -3 3 -71z m4 -207 c-4 -58 -9 -68
-22 -47 -8 12 -10 12 -15 -1 -4 -10 -17 -16 -33 -15 -26 1 -27 4 -30 58 l-3
57 43 3 c63 5 65 3 60 -55z m-1555 -167 c1 -8 5 -41 8 -72 6 -51 10 -59 31
-64 13 -3 24 -11 24 -17 0 -6 10 -2 21 10 18 18 21 32 20 93 -1 40 3 69 8 66
5 -3 59 -6 121 -7 131 -1 143 -8 154 -87 7 -52 17 -62 61 -62 38 0 49 23 41
91 l-6 61 128 -2 c160 -3 191 -7 191 -28 0 -34 14 -107 23 -118 16 -21 70 -1
89 33 15 26 15 32 3 37 -8 3 -14 19 -14 36 l0 30 138 0 137 0 -1 -62 c-2 -68
10 -87 53 -88 30 0 43 28 43 94 0 55 0 55 33 61 21 4 48 1 71 -9 27 -11 43
-13 56 -6 24 13 70 13 70 0 0 -6 11 -8 26 -4 39 10 45 -9 37 -116 -3 -52 -6
-212 -6 -355 0 -228 2 -265 18 -298 9 -20 15 -46 12 -57 -4 -16 3 -24 31 -38
32 -15 64 -17 242 -16 113 1 210 3 215 4 6 1 12 2 15 1 6 -2 186 -2 245 0 81
3 136 -1 130 -10 -3 -5 -1 -12 4 -15 10 -6 4 -75 -8 -88 -7 -7 -49 -9 -306
-10 -235 -1 -267 -1 -290 1 -11 1 -101 -1 -200 -4 -99 -3 -353 -5 -565 -4
-760 2 -2017 2 -2139 0 -143 -2 -232 6 -229 23 3 20 -12 189 -23 250 -6 32
-13 97 -15 145 -3 47 -7 115 -10 151 -6 82 -7 325 -1 365 2 17 5 42 5 58 l2
27 124 0 c93 0 124 -3 123 -12 -2 -31 17 -118 27 -127 6 -5 25 -8 41 -7 28 1
31 4 39 55 7 40 6 56 -2 59 -7 2 -12 10 -12 18 0 15 1 15 140 15 132 1 120 7
120 -61 0 -47 4 -64 20 -80 17 -17 24 -18 45 -8 27 12 27 14 29 98 l1 55 131
3 131 2 0 -65 c-1 -53 3 -68 18 -79 15 -11 25 -11 45 -3 37 17 41 27 36 77 -9
73 -5 75 154 75 77 0 95 -3 97 -15z"/>
<path d="M3735 1551 c-126 -57 -117 -204 14 -226 57 -9 121 24 121 64 0 15 -8
36 -19 45 -18 16 -21 16 -52 -3 -25 -15 -37 -17 -52 -10 -18 10 -18 12 -1 30
9 10 22 19 29 19 20 0 36 47 25 75 -11 30 -13 30 -65 6z"/>
<path d="M3350 1540 c0 -6 -10 -15 -22 -21 -31 -14 -68 -72 -68 -107 0 -72 65
-131 132 -118 46 8 111 67 102 92 -16 45 -44 56 -73 30 -9 -8 -28 -18 -43 -21
-24 -6 -28 -4 -28 13 0 12 11 24 30 32 36 15 40 45 9 84 -21 27 -39 34 -39 16z"/>
<path d="M3535 1062 c-41 -25 -51 -41 -58 -83 -6 -38 11 -101 32 -122 33 -33
161 -4 195 45 45 64 21 134 -43 122 -24 -5 -30 -11 -26 -24 7 -21 -22 -56 -52
-65 -19 -5 -23 -2 -23 14 0 11 7 27 16 36 22 22 25 88 4 92 -8 2 -28 -5 -45
-15z"/>
</g>
</svg>
