<?xml version="1.0" standalone="no"?>
<!DOCTYPE svg PUBLIC "-//W3C//DTD SVG 20010904//EN"
 "http://www.w3.org/TR/2001/REC-SVG-20010904/DTD/svg10.dtd">
<svg version="1.0" xmlns="http://www.w3.org/2000/svg"
 width="391.000000pt" height="331.000000pt" viewBox="0 0 391.000000 331.000000"
 preserveAspectRatio="xMidYMid meet">
<metadata>
Created by potrace 1.16, written by Peter Selinger 2001-2019
</metadata>
<g transform="translate(0.000000,331.000000) scale(0.100000,-0.100000)"
fill="#000000" stroke="none">
<path d="M2139 3094 c-6 -8 -17 -14 -24 -14 -7 0 -15 -7 -19 -15 -3 -8 -9 -15
-13 -14 -4 1 -13 1 -18 0 -12 -1 -39 -60 -31 -68 3 -3 -1 -18 -9 -32 -9 -18
-10 -32 -4 -42 5 -8 7 -30 4 -49 -2 -19 -8 -64 -11 -100 -4 -36 -8 -72 -9 -80
-11 -87 -18 -120 -26 -120 -4 0 -6 -7 -3 -15 4 -8 1 -21 -5 -29 -16 -19 2 -64
40 -98 17 -16 33 -28 37 -28 4 0 20 -13 35 -29 15 -17 36 -33 47 -36 11 -4 20
-10 20 -15 0 -7 -119 -101 -319 -252 -24 -18 -69 -58 -100 -88 -69 -67 -84
-79 -186 -155 -44 -32 -105 -84 -136 -114 -30 -31 -88 -85 -128 -121 -41 -36
-108 -98 -150 -139 -64 -62 -137 -126 -211 -184 -12 -10 -59 -45 -105 -79 -5
-5 -36 -28 -67 -53 -31 -25 -60 -45 -63 -45 -4 0 -26 -13 -50 -30 -24 -16 -47
-30 -52 -30 -4 0 -28 -16 -52 -35 -24 -19 -47 -35 -50 -35 -4 0 -25 -17 -48
-37 -68 -64 -116 -103 -125 -103 -4 0 -8 -5 -8 -11 0 -5 -19 -32 -42 -60 -59
-67 -72 -126 -55 -235 2 -12 11 -33 20 -47 9 -15 17 -30 17 -34 0 -16 104
-103 138 -115 21 -7 73 -13 117 -13 72 0 87 4 155 37 41 20 105 63 141 95 83
73 143 123 194 163 22 18 42 35 45 39 3 3 32 29 65 56 33 28 62 52 65 55 3 3
18 16 34 28 15 12 50 41 76 64 26 24 57 50 70 58 37 25 83 63 118 97 18 18 45
41 60 50 29 19 65 48 93 75 10 10 35 29 56 43 61 40 87 59 107 77 11 10 23 18
27 18 4 0 22 15 41 33 18 17 59 55 92 82 32 28 66 58 74 68 9 9 21 17 27 17 6
0 21 14 35 32 47 59 168 168 188 168 6 0 12 4 12 9 0 13 47 60 105 106 27 22
57 47 65 56 8 9 45 41 81 72 l66 57 19 -21 c10 -12 31 -27 46 -35 14 -7 32
-19 40 -26 20 -19 105 -78 113 -78 7 0 47 -28 131 -92 34 -26 78 -54 98 -62
20 -8 36 -20 36 -25 0 -6 7 -11 15 -11 8 0 19 -9 25 -20 16 -31 83 -28 107 4
24 33 194 179 272 235 33 24 61 48 61 52 0 5 5 9 11 9 15 0 139 82 139 92 0 4
6 8 13 8 6 0 21 12 31 27 17 23 19 46 21 197 1 94 5 183 10 199 14 53 -2 93
-64 154 -71 70 -87 83 -102 83 -9 0 -178 92 -239 130 -55 34 -121 70 -130 70
-5 0 -10 4 -10 8 0 4 -12 13 -27 20 -16 7 -48 23 -73 36 -25 13 -48 22 -52 19
-5 -2 -8 1 -8 6 0 6 -9 11 -20 11 -10 0 -23 6 -27 13 -10 16 -49 37 -67 37 -8
0 -19 8 -24 17 -8 14 -23 17 -83 15 -103 -3 -197 -10 -206 -15 -15 -9 -324 41
-337 54 -6 5 -19 9 -31 9 -12 0 -26 5 -32 11 -20 20 -91 28 -104 13z m206
-150 c61 -14 135 -28 165 -30 30 -2 66 -7 80 -11 14 -3 32 -8 40 -9 8 -2 55 4
104 13 62 11 94 13 106 6 8 -6 30 -14 49 -18 18 -4 35 -13 38 -21 3 -8 12 -14
21 -14 14 0 62 -21 182 -78 61 -29 193 -112 198 -124 2 -5 11 -8 20 -8 8 0 23
-6 31 -14 14 -11 69 -41 121 -65 77 -36 155 -99 132 -108 -7 -3 -18 -10 -25
-16 -6 -7 -41 -27 -77 -44 -36 -18 -84 -44 -108 -58 -23 -13 -62 -30 -86 -36
-43 -11 -48 -9 -158 45 -62 30 -135 70 -163 88 -61 41 -190 115 -267 154 -32
16 -58 32 -58 37 0 4 -6 7 -14 7 -20 0 -104 47 -165 93 -31 23 -69 49 -86 57
-16 8 -41 24 -55 36 -14 12 -53 36 -86 53 -34 18 -70 43 -80 56 -10 14 -27 25
-36 25 -17 0 -24 11 -13 22 6 5 21 2 190 -38z m-114 -104 c5 0 28 -12 52 -27
23 -15 62 -38 87 -51 25 -13 61 -36 80 -51 20 -16 58 -41 85 -55 28 -15 68
-38 90 -51 22 -14 48 -25 57 -25 20 0 191 -91 208 -110 3 -3 34 -23 70 -45 90
-56 97 -60 170 -101 77 -44 104 -65 91 -73 -5 -3 -11 -42 -13 -87 -3 -45 -8
-86 -12 -93 -5 -7 -9 -22 -11 -34 -1 -12 -8 -42 -13 -67 -6 -25 -10 -94 -9
-153 3 -101 -3 -132 -18 -107 -3 5 -14 10 -24 10 -10 0 -24 7 -32 16 -7 8 -36
27 -63 41 -28 14 -93 55 -144 92 -52 36 -103 71 -115 78 -12 6 -37 25 -55 41
l-33 30 25 37 c14 21 23 41 20 46 -3 5 2 33 12 61 19 59 21 152 3 174 -6 8 -9
17 -6 21 8 7 -21 63 -44 86 -11 10 -19 15 -19 12 0 -3 -10 3 -22 15 -23 21
-132 58 -164 56 -11 -1 -58 -14 -106 -30 -69 -24 -88 -34 -92 -52 -4 -13 -15
-25 -26 -29 -30 -10 -89 11 -111 39 -11 14 -27 26 -34 26 -25 0 -28 45 -11
135 5 26 19 176 24 248 l2 29 46 -26 c26 -14 51 -26 55 -26z m313 -400 c47
-22 96 -62 96 -78 0 -5 6 -22 14 -37 29 -56 6 -185 -33 -185 -6 0 -16 -10 -22
-22 -12 -23 -119 -126 -169 -163 -15 -11 -45 -38 -66 -60 -46 -47 -91 -85
-100 -85 -4 0 -32 -26 -64 -57 -137 -138 -310 -299 -358 -332 -19 -13 -50 -39
-70 -58 -21 -19 -48 -42 -62 -51 -41 -27 -164 -120 -194 -147 -6 -6 -27 -22
-46 -35 -19 -13 -66 -53 -105 -88 -38 -35 -86 -74 -105 -87 -19 -12 -57 -44
-85 -70 -27 -26 -66 -59 -85 -73 -19 -14 -51 -43 -71 -64 -19 -21 -40 -38 -45
-38 -5 0 -24 -13 -42 -30 -18 -16 -36 -30 -40 -30 -4 0 -24 -16 -44 -35 -20
-19 -38 -35 -41 -35 -2 0 -30 -25 -63 -55 -32 -30 -62 -55 -66 -55 -13 0 -9
24 12 65 19 37 24 73 18 138 -1 15 -5 27 -8 27 -4 0 -19 24 -33 53 -29 57 -68
84 -127 89 l-34 3 54 36 c111 74 201 130 218 136 9 4 26 16 37 27 11 12 36 32
55 45 59 41 204 167 316 274 59 56 122 116 141 132 18 17 66 62 106 100 82 80
117 110 167 145 19 13 42 32 51 42 9 10 20 18 25 18 5 0 52 40 104 88 52 49
129 113 170 142 41 29 104 79 140 110 36 32 99 82 140 113 41 30 84 64 95 74
50 50 81 90 77 101 -2 7 0 12 5 13 22 2 57 10 62 14 9 10 36 5 75 -15z m1120
-97 c-5 -38 -9 -104 -10 -148 -1 -44 -2 -90 -3 -102 -1 -15 -27 -40 -88 -84
-49 -35 -92 -69 -96 -76 -4 -7 -20 -19 -35 -27 -15 -8 -38 -25 -53 -37 -14
-13 -41 -36 -61 -51 -20 -15 -44 -35 -53 -44 -9 -9 -18 -14 -21 -11 -14 13 -4
181 15 282 30 153 41 170 129 216 40 20 78 42 85 47 15 12 186 102 194 102 3
0 2 -30 -3 -67z m-3096 -1591 c38 -45 42 -51 52 -77 12 -33 13 -109 1 -133 -5
-9 -14 -30 -21 -47 -26 -64 -37 -80 -53 -77 -9 2 -17 -2 -17 -8 0 -14 -41 -13
-91 3 -84 25 -143 113 -130 191 6 38 30 71 101 142 43 43 47 45 90 39 30 -5
52 -15 68 -33z"/>
</g>
</svg>
