<?xml version="1.0" standalone="no"?>
<!DOCTYPE svg PUBLIC "-//W3C//DTD SVG 20010904//EN"
 "http://www.w3.org/TR/2001/REC-SVG-20010904/DTD/svg10.dtd">
<svg version="1.0" xmlns="http://www.w3.org/2000/svg"
 width="439.000000pt" height="271.000000pt" viewBox="0 0 439.000000 271.000000"
 preserveAspectRatio="xMidYMid meet">
<metadata>
Created by potrace 1.16, written by Peter Selinger 2001-2019
</metadata>
<g transform="translate(0.000000,271.000000) scale(0.100000,-0.100000)"
fill="#000000" stroke="none">
<path d="M455 2519 c-22 -6 -59 -15 -83 -21 -56 -14 -125 -75 -142 -127 -7
-23 -16 -41 -20 -41 -6 0 -9 -37 -10 -129 0 -34 -22 -62 -75 -97 -38 -25 -65
-127 -72 -278 -7 -145 -6 -459 1 -521 3 -22 8 -143 11 -270 7 -305 10 -340 39
-410 25 -61 78 -135 98 -135 13 0 88 -74 88 -87 0 -26 135 -133 168 -133 9 0
30 7 45 15 21 10 34 12 47 5 24 -13 66 -13 91 0 14 8 27 7 49 -5 31 -16 87
-17 97 -2 3 4 16 12 30 18 19 7 31 5 53 -11 15 -11 34 -20 42 -20 8 0 19 -5
26 -12 10 -10 20 -8 48 7 33 18 37 18 64 2 38 -23 82 -21 114 4 21 16 33 19
59 13 46 -12 99 -6 112 13 10 14 16 13 56 -8 54 -28 90 -33 114 -15 15 11 23
10 49 -3 45 -23 121 -21 140 4 14 19 15 19 50 2 47 -22 63 -21 111 3 49 25 49
25 103 -1 49 -24 111 -22 141 5 16 15 21 15 54 1 54 -22 101 -19 135 10 28 23
32 24 58 10 47 -24 89 -19 116 13 l24 29 34 -23 c42 -26 107 -24 128 3 8 12
15 14 20 7 11 -16 71 -34 77 -23 4 5 19 9 35 9 17 0 33 7 38 17 9 16 13 16 62
0 73 -24 107 -22 134 8 13 14 25 25 28 25 2 0 20 -13 38 -30 37 -33 74 -38
104 -15 13 10 23 12 32 4 23 -19 103 -13 135 11 29 21 32 21 71 5 51 -20 91
-12 119 23 l21 27 22 -26 c42 -49 106 -55 144 -13 12 14 22 32 22 40 0 22 16
17 42 -14 60 -71 102 -78 148 -26 17 20 33 34 36 31 20 -20 184 60 184 91 0 6
4 12 8 12 10 0 29 52 37 100 3 19 7 88 9 152 2 64 7 122 11 127 3 6 2 11 -2
11 -5 0 -9 8 -10 18 0 16 -11 113 -18 157 -1 11 -3 20 -5 20 -1 0 -3 9 -5 20
-1 11 -8 40 -14 65 -6 25 -14 58 -16 74 -2 15 -7 37 -10 47 -4 12 -2 19 7 19
9 0 10 3 2 8 -7 4 -22 26 -35 48 -22 37 -153 163 -171 164 -7 0 -74 31 -152
72 -22 11 -47 21 -56 23 -36 7 -119 34 -146 48 -16 8 -46 17 -68 21 -21 4 -71
22 -110 40 -39 18 -90 36 -113 39 -48 6 -266 72 -303 92 -23 12 -90 32 -135
41 -46 9 -155 44 -230 74 -85 35 -175 62 -175 53 0 -3 -6 -1 -12 4 -7 6 -32
13 -56 17 -24 3 -51 11 -60 16 -9 5 -57 23 -107 41 -49 17 -108 38 -130 46
-68 25 -324 103 -338 103 -7 0 -32 9 -55 20 -22 11 -48 20 -56 20 -8 0 -25 4
-38 9 -57 22 -205 64 -228 65 -14 1 -31 6 -37 13 -7 6 -45 16 -85 22 -120 18
-201 32 -233 41 -26 7 -74 17 -175 36 -14 2 -72 13 -130 24 -58 11 -114 19
-125 18 -11 -1 -38 1 -60 5 -22 3 -58 1 -80 -4z m210 -94 c44 -3 98 -11 120
-17 22 -6 45 -13 50 -14 52 -15 140 -34 165 -36 16 -1 30 -5 30 -9 0 -4 30
-10 68 -14 62 -6 174 -22 197 -29 6 -1 30 -8 55 -15 25 -7 70 -21 100 -31 30
-11 75 -22 100 -26 25 -4 50 -10 55 -14 6 -4 78 -28 160 -54 83 -26 164 -54
180 -61 17 -8 64 -23 105 -35 93 -27 156 -48 195 -65 17 -7 46 -16 65 -18 19
-3 35 -6 35 -7 0 -1 13 -4 29 -6 16 -3 45 -12 65 -20 81 -35 512 -177 571
-189 19 -4 60 -15 90 -25 30 -10 104 -33 164 -50 59 -17 116 -35 125 -41 29
-16 164 -66 256 -93 95 -29 162 -60 301 -141 31 -19 64 -65 64 -91 0 -8 5 -14
11 -14 5 0 8 -4 5 -9 -6 -8 -2 -23 35 -126 36 -105 50 -195 52 -341 l2 -141
-22 10 c-13 6 -23 14 -23 18 0 10 -80 2 -114 -11 -26 -9 -26 -9 -27 38 0 26
-4 70 -9 97 -5 32 -4 51 2 54 6 2 6 6 -1 10 -6 4 -12 32 -12 62 -1 30 -5 61
-9 69 -5 9 -11 38 -14 65 -14 116 -70 184 -210 250 -29 14 -58 25 -63 25 -10
0 -184 71 -258 105 -44 20 -116 44 -145 49 -14 2 -43 12 -65 21 -181 78 -273
110 -385 135 -30 7 -77 23 -105 35 -60 27 -96 38 -200 63 -44 11 -107 29 -140
40 -98 33 -265 84 -337 102 -36 10 -98 30 -136 44 -39 15 -114 36 -169 47 -54
11 -106 22 -117 24 -10 3 -44 12 -75 21 -31 9 -114 31 -186 49 -191 49 -229
60 -350 98 -60 19 -156 47 -212 62 -98 27 -108 27 -199 17 -97 -11 -141 -31
-130 -59 3 -7 1 -15 -4 -18 -5 -3 -7 -12 -3 -20 6 -17 -12 -21 -22 -5 -4 6
-10 8 -15 5 -5 -3 -21 -3 -36 1 -26 7 -26 9 -21 63 6 66 31 125 61 140 43 22
132 40 176 36 25 -3 81 -7 125 -10z m125 -254 c58 -17 148 -45 200 -61 102
-33 206 -62 230 -65 8 -1 35 -9 60 -18 39 -14 111 -30 175 -40 11 -2 30 -9 41
-15 12 -6 24 -9 27 -5 4 3 12 1 19 -4 7 -6 38 -14 68 -18 52 -6 82 -13 190
-46 25 -8 47 -14 50 -14 3 -1 15 -6 28 -13 12 -7 36 -15 52 -17 49 -6 137 -34
172 -54 18 -11 51 -23 73 -26 56 -10 163 -40 205 -58 19 -8 71 -23 115 -32 43
-9 93 -22 110 -29 73 -32 95 -39 180 -62 50 -13 97 -26 105 -29 8 -2 33 -13
55 -24 21 -12 45 -21 51 -21 7 0 42 -13 77 -30 36 -16 70 -30 75 -30 5 0 72
-25 148 -56 77 -30 144 -56 149 -58 13 -3 65 -26 87 -37 10 -5 25 -9 33 -9 8
0 15 -4 15 -9 0 -5 15 -12 34 -15 19 -4 37 -13 40 -21 3 -8 12 -15 20 -15 29
0 76 -56 97 -115 23 -67 24 -70 39 -214 6 -57 11 -107 12 -110 3 -32 -23 -37
-227 -47 -66 -3 -136 -7 -155 -10 -68 -9 -661 -22 -1115 -24 -253 -1 -523 -5
-600 -9 -77 -4 -304 -9 -505 -10 -201 -1 -394 -2 -430 -3 -128 -1 -116 -10
-114 84 2 97 -6 123 -49 169 -59 62 -58 61 -38 115 10 27 21 83 25 124 4 41
11 100 16 130 9 61 -7 139 -41 194 -22 36 -26 96 -6 96 31 0 47 74 52 235 3
101 -18 165 -80 244 -52 66 -57 100 -15 113 45 13 143 1 250 -31z m-555 -146
c-25 -31 -45 -61 -45 -66 0 -6 -9 -23 -21 -37 l-21 -27 8 40 c4 22 10 42 13
45 3 3 14 21 24 41 15 30 48 53 80 58 4 1 -13 -24 -38 -54z m155 29 c0 -8 -4
-14 -8 -14 -5 0 -19 -24 -32 -52 -14 -29 -32 -63 -41 -76 -10 -12 -25 -47 -35
-77 -9 -30 -20 -55 -23 -55 -9 0 -31 -53 -37 -87 -8 -46 -26 -86 -34 -73 -5 8
-9 7 -13 -5 -4 -9 -3 -14 2 -10 5 3 11 0 13 -7 5 -13 21 12 53 80 9 18 31 56
50 83 19 27 35 56 35 66 0 9 3 13 7 10 4 -4 18 12 32 36 52 88 94 137 115 137
l21 0 -21 -18 c-12 -9 -33 -42 -48 -72 -38 -80 -97 -182 -118 -204 -10 -11
-18 -25 -18 -32 0 -7 -3 -14 -8 -16 -17 -7 -73 -108 -77 -138 -4 -35 -11 -45
-28 -45 -5 0 -11 -6 -13 -13 -2 -8 0 -8 3 -1 4 8 7 8 13 -1 5 -7 17 6 35 37
30 49 123 184 135 193 5 4 40 50 72 95 4 5 20 26 36 45 16 19 39 53 53 75 18
30 25 36 27 22 2 -10 0 -23 -5 -30 -5 -7 -18 -34 -28 -62 -10 -27 -25 -59 -34
-70 -25 -29 -101 -150 -101 -160 0 -4 -25 -46 -56 -93 -33 -49 -61 -104 -67
-130 -6 -31 -12 -41 -18 -31 -7 11 -9 9 -9 -8 0 -12 -6 -23 -12 -26 -10 -4
-10 -7 -1 -17 16 -17 36 -1 53 40 7 17 16 30 20 30 4 0 10 13 13 29 4 16 19
44 35 63 16 18 41 56 56 83 63 116 184 266 159 198 -3 -10 -14 -27 -24 -38
-10 -12 -29 -41 -42 -65 -92 -172 -113 -209 -136 -240 -14 -19 -29 -36 -33
-38 -5 -2 -8 -9 -8 -16 0 -7 -11 -23 -25 -36 -14 -13 -25 -29 -25 -36 0 -7 -7
-17 -15 -21 -8 -5 -18 -26 -23 -48 -5 -22 -14 -39 -20 -38 -6 1 -13 -11 -17
-27 -12 -54 -25 -32 -26 43 0 39 -2 82 -5 94 -2 12 -5 115 -7 228 -3 186 -1
213 18 269 25 78 106 181 171 218 16 9 33 30 38 46 10 30 26 34 26 6z m13
-669 c-30 -60 -63 -120 -74 -133 -10 -14 -19 -29 -19 -34 0 -6 -9 -22 -19 -36
-10 -15 -20 -31 -21 -37 -1 -5 -11 -27 -21 -47 -11 -21 -15 -38 -10 -38 12 0
2 -32 -13 -42 -6 -4 -7 -10 -3 -14 13 -13 43 27 92 123 25 51 51 95 56 98 5 4
19 28 30 56 12 27 24 49 28 49 3 0 20 22 36 49 29 48 77 94 56 54 -5 -10 -19
-43 -31 -73 -12 -30 -28 -62 -35 -70 -6 -8 -29 -51 -51 -95 -21 -44 -47 -92
-57 -107 -10 -16 -15 -28 -11 -28 4 0 0 -8 -8 -17 -21 -25 -77 -138 -98 -200
-15 -43 -16 -52 -4 -57 14 -5 44 18 44 35 0 5 7 26 17 47 9 20 17 39 18 42 1
3 9 22 18 44 9 21 17 42 17 47 0 4 6 14 13 21 24 25 103 154 137 223 8 17 20
36 26 43 18 18 36 15 30 -5 -2 -10 -7 -37 -11 -60 -4 -27 -14 -47 -28 -56 -23
-15 -89 -138 -126 -234 -11 -28 -39 -91 -61 -139 -33 -68 -39 -89 -28 -95 8
-6 9 -12 3 -16 -12 -9 -19 -37 -8 -30 5 3 17 23 28 44 10 21 27 49 37 62 10
13 18 34 18 47 0 13 3 24 8 24 10 0 42 58 42 76 0 8 7 17 15 20 8 4 15 12 15
20 0 8 5 14 10 14 6 0 10 -3 10 -6 0 -10 -63 -139 -76 -154 -26 -31 -51 -132
-43 -174 4 -23 3 -48 -2 -57 -4 -9 -5 -20 -1 -24 4 -5 -1 -5 -11 -2 -10 4 -24
7 -31 7 -20 0 -81 66 -103 112 -30 60 -32 80 -39 271 -4 131 -3 167 7 165 7
-2 19 11 27 27 16 32 78 128 134 206 54 77 123 167 125 165 1 -1 -23 -51 -54
-111z m147 -502 c-1 -9 -11 -23 -62 -84 -37 -44 -78 -109 -100 -161 -11 -25
-28 -38 -28 -22 0 9 70 134 101 180 49 72 90 112 89 87z m22 -131 c-12 -8 -22
-21 -22 -28 0 -7 -13 -43 -30 -79 -16 -36 -30 -69 -30 -73 -1 -4 -8 -16 -18
-27 -17 -20 -76 -32 -85 -17 -7 11 43 113 53 107 4 -3 11 6 14 20 4 14 11 25
16 25 5 0 16 13 24 29 9 16 30 43 47 61 29 29 33 30 42 14 8 -14 5 -21 -11
-32z m3218 -86 c14 -2 28 -4 31 -5 3 0 6 -25 7 -53 0 -30 10 -75 22 -101 35
-80 20 -87 -56 -27 -48 38 -72 50 -87 46 -24 -6 -47 -47 -47 -82 0 -13 -4 -25
-8 -28 -10 -6 -54 38 -71 72 -10 18 -19 22 -44 20 -27 -2 -35 -10 -51 -45 -22
-48 -32 -52 -69 -23 -39 31 -117 21 -117 -15 0 -29 -23 -26 -55 8 -33 35 -35
35 -63 22 -16 -8 -34 -26 -42 -40 l-13 -25 -36 40 c-34 38 -38 40 -69 31 -18
-6 -42 -21 -53 -35 -26 -32 -39 -33 -69 -1 -13 14 -34 25 -47 25 -27 0 -74
-22 -91 -43 -18 -21 -55 -9 -74 23 -12 20 -23 28 -37 25 -36 -7 -61 -25 -67
-50 -5 -21 -8 -22 -25 -12 -10 6 -19 17 -19 23 0 13 -23 24 -50 24 -31 0 -67
-21 -81 -46 -15 -30 -24 -30 -52 -1 -32 31 -70 27 -110 -11 -39 -38 -54 -40
-88 -9 -13 13 -31 26 -39 29 -21 7 -67 -18 -75 -41 -3 -11 -12 -22 -20 -25
-16 -6 -65 12 -65 25 0 13 -80 47 -100 42 -10 -3 -30 -18 -44 -34 -15 -16 -29
-29 -34 -29 -13 1 -57 29 -47 30 18 2 -29 19 -55 19 -18 1 -31 -8 -43 -29 -20
-33 -60 -41 -71 -15 -5 15 -63 55 -79 55 -4 0 -19 -12 -32 -26 l-24 -26 -33
23 c-18 13 -35 26 -38 30 -3 3 -14 9 -26 13 -22 7 -64 -21 -64 -43 0 -16 -35
-14 -49 3 -7 8 -23 17 -36 20 -28 7 -79 -10 -71 -23 9 -14 -4 -41 -19 -41 -8
0 -29 14 -47 30 -38 35 -66 38 -98 10 -13 -11 -25 -20 -27 -20 -2 0 -22 14
-43 31 -36 29 -42 31 -69 19 -16 -6 -37 -20 -47 -31 -25 -27 -45 -24 -99 18
l-47 37 -23 -29 c-21 -25 -26 -27 -40 -15 -26 21 -62 23 -90 4 -25 -16 -27
-16 -45 4 -21 23 -17 32 15 32 39 0 89 27 133 71 23 24 42 48 42 53 1 27 48
54 115 66 39 6 76 11 83 10 6 0 24 -1 40 0 15 0 155 2 312 4 157 1 350 6 430
10 147 8 450 10 840 7 369 -3 916 11 1080 27 63 7 228 5 280 -2z"/>
<path d="M331 634 c0 -11 3 -14 6 -6 3 7 2 16 -1 19 -3 4 -6 -2 -5 -13z"/>
</g>
</svg>
