<?xml version="1.0" standalone="no"?>
<!DOCTYPE svg PUBLIC "-//W3C//DTD SVG 20010904//EN"
 "http://www.w3.org/TR/2001/REC-SVG-20010904/DTD/svg10.dtd">
<svg version="1.0" xmlns="http://www.w3.org/2000/svg"
 width="493.000000pt" height="347.000000pt" viewBox="0 0 493.000000 347.000000"
 preserveAspectRatio="xMidYMid meet">
<metadata>
Created by potrace 1.16, written by Peter Selinger 2001-2019
</metadata>
<g transform="translate(0.000000,347.000000) scale(0.100000,-0.100000)"
fill="#000000" stroke="none">
<path d="M3390 3043 c-25 -41 -96 -129 -143 -177 -16 -16 -36 -41 -45 -55 -25
-40 -106 -146 -114 -149 -5 -2 -8 -9 -8 -15 0 -7 -14 -25 -30 -41 -17 -15 -38
-42 -47 -60 -9 -17 -19 -33 -22 -36 -4 -3 -20 -23 -36 -45 -16 -22 -44 -58
-62 -79 -18 -22 -33 -44 -33 -49 0 -6 -19 -33 -43 -61 -24 -28 -70 -87 -104
-131 -33 -44 -77 -98 -97 -119 -20 -22 -36 -43 -36 -47 0 -4 -7 -10 -16 -13
-13 -5 -14 -3 -6 6 21 26 46 141 58 268 3 30 11 75 19 100 7 25 17 62 20 82 4
21 13 43 21 49 11 9 11 15 3 25 -7 9 -7 14 -1 14 5 0 15 14 22 30 7 17 19 30
27 30 9 0 13 6 10 15 -4 9 9 25 36 44 23 17 47 34 53 39 6 5 21 13 34 17 13 4
32 16 43 26 11 10 24 16 29 13 4 -3 8 -1 8 4 0 16 78 62 107 63 16 0 44 6 63
13 32 12 35 16 32 50 -3 39 -27 76 -50 76 -7 0 -27 7 -43 16 -17 8 -38 17 -47
19 -10 2 -30 8 -47 13 -16 5 -39 8 -50 6 -11 -2 -42 -5 -70 -8 -48 -4 -154
-40 -165 -55 -3 -4 -20 -13 -37 -20 -18 -8 -33 -17 -33 -22 0 -5 -5 -9 -11 -9
-9 0 -38 -20 -84 -59 -36 -30 -114 -123 -120 -143 -4 -12 -20 -41 -35 -63 -32
-49 -48 -88 -56 -140 -3 -22 -8 -44 -11 -48 -3 -4 -7 -27 -9 -50 -2 -23 -8
-58 -13 -77 -5 -19 -14 -82 -20 -140 -12 -117 -24 -156 -83 -280 -23 -47 -42
-87 -43 -90 -17 -44 -31 -70 -36 -70 -4 0 -9 -11 -13 -23 -8 -34 -43 -75 -86
-102 -21 -13 -46 -37 -56 -53 -9 -17 -35 -37 -58 -46 -22 -10 -48 -21 -57 -26
-9 -5 -36 -14 -60 -20 -24 -6 -61 -22 -81 -36 -21 -13 -43 -24 -49 -24 -6 0
-9 -5 -7 -12 5 -15 -22 -48 -39 -48 -7 0 -13 -7 -13 -15 0 -8 -9 -15 -19 -15
-11 0 -23 -9 -26 -20 -4 -11 -18 -27 -33 -34 -15 -8 -40 -28 -56 -45 -17 -17
-35 -31 -41 -31 -6 0 -22 -11 -35 -25 -23 -24 -53 -34 -48 -16 2 5 -19 29 -46
53 l-48 44 22 45 c29 56 50 147 51 218 1 63 -24 194 -40 213 -6 7 -27 31 -46
52 -19 22 -35 42 -35 46 0 3 -18 16 -40 30 -22 14 -40 28 -40 33 0 4 -3 6 -7
4 -5 -3 -24 3 -43 13 -87 46 -109 53 -165 56 -34 1 -83 -2 -110 -7 -52 -11
-135 -48 -135 -61 0 -5 -6 -8 -14 -8 -8 0 -16 -3 -18 -7 -1 -5 -20 -17 -41
-28 -22 -10 -47 -28 -58 -40 -48 -52 -129 -158 -129 -169 0 -6 -14 -45 -32
-86 -52 -124 -45 -272 19 -411 25 -52 41 -72 79 -97 26 -18 60 -32 75 -32 15
0 29 -5 31 -11 8 -25 202 -15 288 15 40 14 51 7 86 -49 24 -38 36 -51 53 -56
9 -3 -5 -17 -37 -37 -49 -30 -325 -221 -347 -240 -6 -5 -23 -17 -39 -27 -16
-11 -52 -41 -79 -68 -43 -42 -83 -73 -146 -112 -9 -5 -20 -16 -24 -22 -4 -7
-13 -13 -20 -13 -7 0 -25 -15 -41 -34 -15 -19 -39 -37 -52 -40 -15 -4 -24 -14
-24 -26 0 -11 -4 -20 -10 -20 -5 0 -6 -8 -3 -17 9 -23 57 -63 63 -53 7 11 121
40 157 41 91 1 314 19 348 28 22 5 96 11 165 11 69 1 154 4 190 7 36 3 103 7
150 8 47 1 121 3 165 4 129 4 134 3 130 -17 -20 -84 -27 -108 -35 -117 -11
-14 -4 -62 12 -78 18 -18 58 -31 58 -19 0 11 155 115 260 174 70 40 105 62
111 71 4 5 83 11 175 13 93 1 234 6 314 10 80 4 174 7 210 6 36 -1 88 3 115 9
77 15 265 21 265 9 0 -7 6 -7 18 -1 16 9 236 27 433 36 31 2 79 6 105 9 27 4
128 9 224 11 96 2 204 9 238 14 38 6 73 6 87 1 13 -5 26 -6 29 -3 4 4 88 8
189 10 187 4 196 5 282 17 28 4 65 9 84 12 19 2 40 12 47 22 15 20 27 79 19
92 -3 5 -10 57 -15 117 -18 197 -20 215 -40 305 -29 127 -61 179 -107 170 -23
-4 -25 -2 -19 14 20 51 44 192 51 304 3 41 7 88 9 104 3 16 1 38 -4 50 -4 12
-11 44 -14 71 -15 116 -19 141 -26 155 -5 8 -11 32 -14 53 -3 21 -11 47 -16
58 -14 25 -14 136 -1 185 6 21 18 68 26 104 17 73 63 166 140 285 74 114 79
124 65 140 -9 10 -7 21 6 46 13 26 15 48 10 103 -6 64 -10 74 -42 105 -36 34
-42 35 -131 28 -47 -5 -111 -36 -121 -59 -2 -4 -10 -8 -18 -8 -8 0 -14 -4 -14
-10 0 -5 -7 -10 -15 -10 -8 0 -15 -4 -15 -10 0 -5 -6 -10 -13 -10 -8 0 -24
-11 -37 -25 -13 -14 -47 -40 -74 -58 -44 -28 -73 -55 -158 -148 -22 -24 -88
-117 -88 -124 0 -3 -9 -18 -21 -34 -20 -28 -29 -53 -55 -169 -13 -56 -13 -66
2 -94 10 -18 14 -45 11 -67 -7 -58 -39 -171 -48 -171 -5 0 -9 -6 -9 -13 0 -8
-17 -38 -39 -69 -56 -81 -124 -232 -157 -350 -37 -133 -54 -215 -49 -235 3
-12 1 -24 -4 -27 -4 -3 -6 -22 -4 -43 9 -72 9 -78 -7 -74 -8 2 -49 10 -90 18
-79 15 -86 16 -110 26 -8 3 -42 13 -76 21 -66 17 -124 39 -137 53 -5 4 -12 8
-15 9 -24 3 -69 19 -82 28 -8 7 -26 16 -40 22 -90 37 -125 60 -122 79 19 104
18 163 -1 225 -21 67 -78 165 -103 174 -15 6 -20 42 -6 48 16 7 136 170 152
206 6 13 38 65 73 115 34 51 67 100 72 109 6 9 22 34 36 55 60 87 106 157 139
212 19 33 66 106 104 163 38 56 81 122 96 144 46 69 70 154 44 154 -8 0 -14 7
-14 15 0 10 -10 15 -34 15 -19 0 -38 5 -41 10 -3 6 -17 10 -30 10 -13 0 -25 4
-27 9 -1 5 -15 12 -29 16 -23 6 -30 1 -49 -32z m104 -107 c17 -6 17 -8 -8 -40
-14 -19 -26 -37 -26 -41 0 -8 -43 -69 -52 -73 -5 -2 -8 -10 -8 -17 0 -8 -8
-20 -17 -27 -18 -13 -26 -26 -71 -108 -29 -52 -167 -263 -185 -282 -6 -7 -13
-20 -15 -28 -2 -8 -7 -17 -11 -20 -9 -6 -71 -99 -71 -106 0 -6 -48 -72 -67
-92 -6 -6 -15 -22 -18 -33 -7 -22 -67 -106 -89 -124 -6 -5 -27 -35 -46 -65
-19 -30 -40 -61 -47 -68 -7 -7 -13 -17 -13 -22 0 -5 -6 -15 -12 -22 -7 -7 -24
-33 -37 -58 -13 -25 -37 -61 -53 -81 -15 -20 -28 -41 -28 -45 -1 -5 -8 -18
-18 -30 -15 -18 -26 -20 -117 -16 -55 2 -103 6 -107 10 -7 7 19 71 32 82 14
11 137 157 160 190 14 19 36 53 50 77 14 23 52 71 85 105 33 35 69 80 80 101
11 22 48 69 83 105 35 37 73 87 85 111 39 76 42 81 52 81 10 0 115 131 115
144 0 4 16 25 36 46 21 22 48 57 62 77 41 60 134 168 149 171 7 2 13 10 13 17
0 17 77 98 87 92 5 -2 16 -7 27 -11z m-546 -61 c3 -3 -6 -17 -20 -30 -17 -16
-29 -21 -34 -14 -4 7 -13 3 -25 -10 -11 -12 -24 -21 -29 -21 -6 0 -18 -8 -28
-17 -25 -26 -69 -53 -84 -53 -8 0 -20 -10 -28 -22 -8 -11 -25 -30 -37 -41 -13
-11 -23 -26 -23 -32 0 -7 -9 -22 -20 -35 -11 -13 -20 -33 -20 -45 0 -11 -4
-25 -9 -30 -5 -6 -16 -45 -26 -88 -9 -43 -23 -94 -31 -112 -8 -19 -16 -65 -18
-103 -5 -84 -19 -136 -51 -201 -14 -27 -25 -54 -25 -60 0 -13 -60 -144 -69
-151 -4 -3 -12 -24 -19 -47 -7 -23 -30 -64 -52 -92 -22 -28 -40 -53 -40 -56 0
-4 -7 -13 -15 -21 -8 -8 -18 -21 -22 -28 -8 -13 -128 -38 -138 -28 -6 7 24 62
34 62 5 0 11 8 15 18 3 9 10 24 15 32 20 32 51 101 51 115 0 8 3 15 8 15 8 0
32 48 32 65 0 6 9 29 20 52 19 40 58 174 58 203 0 28 23 215 28 232 3 10 7 30
10 45 11 62 47 169 63 188 10 11 28 37 40 58 13 20 27 37 32 37 5 0 9 6 9 13
0 21 82 100 126 121 21 10 46 22 54 27 8 5 42 22 75 38 50 24 70 28 124 25 35
-1 66 -6 69 -9z m1697 -36 c4 -6 13 -8 21 -5 21 8 38 -32 25 -60 -20 -44 -47
-21 -64 54 -5 23 7 30 18 11z m-90 -105 c16 -51 22 -58 61 -76 24 -10 44 -24
44 -30 0 -12 -45 -77 -66 -93 -7 -6 -14 -20 -16 -30 -1 -11 -5 -22 -8 -25 -3
-3 -18 -31 -34 -62 -15 -32 -32 -60 -37 -63 -5 -4 -7 -11 -4 -16 4 -5 -2 -21
-13 -37 -22 -32 -31 -59 -40 -127 -10 -79 -8 -235 3 -243 13 -8 65 -215 65
-253 0 -15 7 -46 15 -69 8 -23 13 -45 11 -49 -2 -3 -9 -56 -15 -117 -13 -129
-54 -258 -95 -299 -19 -20 -95 -27 -271 -25 -241 2 -334 6 -342 14 -7 6 -11
58 -14 151 0 17 2 46 6 65 3 19 6 42 7 50 1 33 50 179 63 190 8 7 15 20 15 30
0 9 3 20 7 24 4 3 8 14 9 22 3 17 20 52 63 129 48 85 90 175 101 215 6 22 15
42 20 45 5 3 9 22 9 43 1 126 -1 167 -9 183 -14 24 17 105 59 156 17 21 31 41
31 46 0 12 107 141 132 158 11 8 33 23 47 35 36 29 164 114 172 114 3 0 14
-25 24 -56z m-3655 -924 c0 -5 7 -10 17 -10 24 0 173 -90 173 -105 0 -7 7 -15
15 -19 8 -3 14 -9 13 -13 -1 -4 3 -18 10 -30 31 -57 49 -141 41 -192 -10 -64
-19 -94 -31 -102 -4 -3 -10 -15 -13 -27 -10 -53 -145 -158 -230 -178 -16 -4
-46 -16 -66 -26 -52 -27 -216 -55 -239 -41 -10 7 -34 15 -54 18 -20 4 -36 11
-36 15 0 4 -10 10 -22 14 -33 8 -67 79 -83 172 -15 87 -8 153 24 214 10 19 21
47 24 61 4 14 15 35 25 47 10 11 27 32 37 46 10 14 22 23 26 21 3 -3 15 7 25
21 19 25 43 41 148 96 41 22 64 27 124 28 41 0 72 -4 72 -10z m1996 -190 c19
-42 22 -152 6 -158 -7 -2 -9 -9 -5 -14 4 -8 -2 -9 -18 -4 -13 4 -36 9 -50 11
-40 6 -139 36 -139 42 0 3 8 17 19 31 29 42 96 156 105 177 7 18 10 17 37 -15
17 -19 37 -51 45 -70z m-471 -185 c89 -8 128 -17 238 -51 60 -19 112 -34 117
-34 5 0 29 -9 54 -20 26 -11 47 -19 49 -18 1 0 26 -14 55 -31 29 -17 55 -31
58 -31 3 0 42 -18 87 -39 148 -70 244 -111 263 -111 11 0 44 -7 74 -16 141
-40 206 -53 292 -59 51 -3 113 -9 138 -12 25 -3 192 -5 372 -5 233 0 330 -4
337 -12 11 -14 19 -54 26 -131 3 -33 8 -71 10 -85 11 -61 16 -242 6 -236 -5 4
-13 1 -16 -5 -4 -5 -12 -8 -19 -6 -6 2 -36 0 -66 -5 -71 -11 -150 -16 -150 -8
0 3 -27 7 -60 8 -53 3 -63 0 -79 -20 -18 -21 -20 -22 -38 -6 -20 18 -60 25
-85 13 -10 -4 -38 -5 -63 -3 -25 3 -69 1 -99 -3 -70 -12 -216 -22 -602 -43
-27 -2 -59 -8 -70 -13 -10 -5 -63 -8 -117 -7 -55 1 -113 -2 -131 -7 -18 -5
-105 -11 -194 -13 -89 -2 -165 -7 -169 -9 -4 -3 -141 -8 -303 -12 -162 -4
-308 -9 -325 -11 -16 -2 -95 -6 -175 -9 -332 -12 -472 -16 -595 -19 -71 -2
-164 -7 -205 -10 -139 -12 -170 -13 -208 -6 -20 3 -71 1 -112 -7 -41 -7 -91
-12 -110 -12 -19 1 -79 -2 -132 -5 -54 -3 -98 -4 -98 -2 0 12 82 84 121 105
25 15 66 43 90 64 24 21 73 58 109 82 36 25 91 63 123 85 32 22 61 40 64 40 3
0 22 12 42 28 48 36 70 49 108 67 18 8 57 35 88 60 30 25 72 54 93 65 21 11
47 28 58 38 50 44 104 82 117 82 8 0 22 9 33 21 10 11 41 37 69 57 27 20 52
40 53 44 2 5 7 6 12 3 4 -2 32 19 63 48 48 45 114 97 151 118 33 19 126 49
153 49 17 0 33 5 35 10 3 10 103 35 182 45 22 3 41 7 43 9 4 4 169 -2 238 -9z
m-1267 -339 c17 -19 28 -37 25 -40 -4 -3 1 -6 10 -6 10 0 17 -3 17 -7 0 -10
-61 -53 -153 -111 -69 -43 -94 -51 -57 -17 27 24 25 43 -7 78 l-28 29 30 24
c17 13 35 28 41 33 6 5 20 12 31 15 12 4 27 13 33 21 17 21 23 19 58 -19z"/>
</g>
</svg>
