<?xml version="1.0" standalone="no"?>
<!DOCTYPE svg PUBLIC "-//W3C//DTD SVG 20010904//EN"
 "http://www.w3.org/TR/2001/REC-SVG-20010904/DTD/svg10.dtd">
<svg version="1.0" xmlns="http://www.w3.org/2000/svg"
 width="457.000000pt" height="343.000000pt" viewBox="0 0 457.000000 343.000000"
 preserveAspectRatio="xMidYMid meet">
<metadata>
Created by potrace 1.16, written by Peter Selinger 2001-2019
</metadata>
<g transform="translate(0.000000,343.000000) scale(0.100000,-0.100000)"
fill="#000000" stroke="none">
<path d="M1705 3223 c-77 -9 -121 -26 -169 -66 -114 -94 -190 -189 -263 -327
-45 -86 -156 -194 -270 -265 -48 -30 -132 -45 -276 -50 -64 -2 -93 -7 -106
-19 -10 -9 -23 -16 -29 -16 -7 0 -12 -4 -12 -10 0 -5 -11 -12 -25 -16 -14 -3
-25 -10 -25 -15 0 -5 -7 -9 -15 -9 -8 0 -15 -7 -15 -15 0 -8 -4 -15 -9 -15
-11 0 -61 -44 -61 -54 0 -3 -20 -33 -45 -67 -25 -34 -45 -69 -45 -79 0 -9 -9
-29 -20 -43 -11 -14 -20 -30 -20 -36 0 -6 -4 -11 -9 -11 -14 0 -61 -156 -67
-220 -2 -30 -7 -69 -9 -85 -7 -45 29 -199 52 -224 11 -12 33 -47 49 -79 48
-97 95 -164 158 -230 34 -35 62 -67 64 -72 2 -6 26 -33 54 -62 28 -29 55 -65
60 -80 7 -19 20 -30 41 -36 24 -6 37 -18 51 -48 10 -21 22 -40 27 -42 5 -2 9
-9 9 -15 0 -7 16 -29 34 -50 19 -21 36 -41 38 -45 2 -4 25 -25 53 -47 54 -44
53 -42 110 -85 22 -16 45 -33 50 -38 14 -12 254 -151 260 -152 19 0 67 -35 86
-62 21 -32 127 -138 137 -138 10 0 60 -59 55 -64 -4 -3 1 -6 10 -6 10 0 25 -8
36 -19 10 -10 38 -27 62 -39 102 -47 138 -63 160 -68 76 -18 130 -24 179 -19
30 3 84 7 119 10 82 8 150 26 231 62 36 17 80 36 98 43 17 7 32 15 32 19 0 3
11 7 25 7 35 2 146 57 172 85 103 110 145 184 168 292 8 43 15 93 14 110 -4
82 39 460 56 487 2 4 7 21 10 37 7 43 14 58 60 130 22 35 46 63 53 63 16 0 50
-19 81 -45 32 -28 103 -133 96 -144 -3 -5 -1 -11 4 -13 5 -1 19 -34 29 -73 41
-142 63 -186 133 -257 101 -101 157 -113 360 -74 72 14 189 60 189 75 0 3 21
17 47 31 114 60 222 184 292 334 42 90 44 138 27 596 -5 119 -12 187 -27 245
-57 216 -133 355 -223 405 -28 16 -56 33 -61 38 -30 25 -65 42 -100 47 -22 4
-87 22 -144 42 -57 19 -123 35 -147 36 -34 0 -45 4 -50 20 -5 15 -13 18 -42
15 -21 -3 -50 -1 -67 3 -16 5 -74 9 -130 9 -171 0 -252 -10 -339 -40 -30 -10
-57 -16 -59 -13 -3 3 -32 -5 -64 -17 -32 -13 -77 -22 -100 -21 -24 1 -43 -2
-43 -7 0 -6 -16 -13 -36 -17 -32 -6 -63 -17 -131 -48 -17 -7 -26 -5 -44 12
-13 11 -26 21 -31 21 -10 0 -42 25 -86 67 -18 18 -58 46 -88 64 -79 45 -308
278 -343 349 -7 15 -33 40 -56 55 -24 15 -54 40 -66 56 -12 16 -27 28 -33 26
-6 -2 -28 2 -50 9 -21 8 -41 13 -45 13 -3 -1 -19 -4 -36 -6z m98 -129 c20 -10
37 -24 37 -31 0 -8 4 -12 9 -9 7 5 71 -56 71 -68 0 -3 25 -31 55 -62 30 -32
55 -61 55 -65 0 -10 81 -91 144 -144 26 -22 53 -45 59 -50 7 -6 30 -22 52 -35
22 -14 55 -39 73 -57 18 -18 37 -33 42 -33 6 0 10 -4 10 -9 0 -5 10 -13 22
-17 33 -10 47 -29 41 -53 -7 -27 -23 -27 -58 1 -16 12 -37 24 -47 25 -10 2
-45 23 -78 47 -33 24 -72 47 -88 51 -15 3 -36 14 -47 23 -17 14 -82 97 -133
167 -52 74 -80 116 -101 155 -14 26 -29 48 -33 49 -4 1 -32 13 -62 26 -46 20
-62 23 -105 16 -28 -4 -51 -7 -51 -5 0 2 -12 -3 -27 -11 -15 -8 -30 -12 -35
-9 -4 3 -8 1 -8 -4 0 -5 -45 -56 -100 -113 -55 -57 -100 -107 -100 -111 0 -18
-102 -178 -125 -196 -14 -11 -25 -24 -25 -30 0 -5 -21 -27 -46 -47 -25 -21
-60 -51 -78 -67 -17 -16 -51 -43 -76 -59 -43 -29 -48 -30 -130 -25 -88 5 -170
27 -191 52 -9 11 -7 14 10 14 11 0 22 0 24 -1 1 0 13 4 27 9 14 5 61 13 104
17 80 7 195 49 196 70 0 6 14 19 30 29 27 15 85 67 168 149 12 12 39 55 59 95
20 40 43 78 50 84 7 6 13 17 13 24 0 8 4 14 10 14 5 0 22 19 39 43 36 52 83
99 145 147 20 15 95 29 136 25 14 -2 42 -11 63 -21z m5 -185 c2 -5 9 -9 15 -9
11 0 57 -62 57 -76 0 -8 64 -98 73 -102 4 -2 7 -11 7 -21 0 -9 12 -31 28 -48
15 -17 35 -43 45 -57 18 -26 111 -92 137 -98 8 -2 43 -22 77 -45 34 -24 66
-43 72 -43 6 0 11 -4 11 -10 0 -5 9 -10 19 -10 11 0 21 -4 23 -9 2 -5 21 -18
42 -29 l39 -21 -27 -11 c-15 -5 -32 -10 -37 -10 -5 0 -27 -11 -49 -25 -22 -14
-46 -25 -53 -25 -7 0 -18 -5 -25 -12 -6 -6 -21 -13 -31 -15 -24 -3 -154 -54
-161 -62 -12 -14 -102 -51 -111 -46 -5 4 -9 2 -9 -4 0 -5 -17 -15 -37 -22 -21
-7 -40 -14 -43 -15 -3 -1 -15 -5 -27 -9 -13 -4 -23 -11 -23 -16 0 -5 -7 -9
-16 -9 -9 0 -44 -19 -78 -42 -33 -24 -74 -50 -91 -58 -16 -8 -41 -27 -56 -42
-14 -16 -31 -28 -38 -28 -6 0 -10 -3 -9 -7 5 -14 -30 -55 -40 -49 -6 3 -34
-19 -64 -50 -29 -31 -64 -62 -78 -69 -14 -8 -37 -25 -52 -39 -15 -14 -30 -26
-32 -26 -6 0 -28 -17 -95 -76 -20 -17 -56 -41 -81 -53 -25 -12 -76 -45 -115
-72 -38 -28 -81 -58 -95 -67 -14 -9 -31 -25 -38 -34 -7 -10 -20 -18 -28 -18
-15 0 -214 194 -214 209 0 5 -7 14 -15 21 -9 7 -25 33 -36 57 -11 23 -24 43
-30 43 -6 0 -9 6 -6 14 3 8 3 17 -1 21 -4 4 -7 10 -7 13 -1 4 -6 30 -13 57 -6
28 -13 65 -16 83 -7 49 11 229 29 287 50 170 44 157 81 153 22 -3 35 1 39 10
7 19 102 13 140 -10 20 -11 54 -18 103 -19 39 -1 72 -5 72 -10 0 -4 23 -1 51
7 28 9 54 13 57 10 5 -6 53 28 99 70 14 13 32 24 39 24 14 0 137 121 194 189
19 23 40 55 46 70 25 60 83 138 160 217 43 45 86 84 94 88 21 8 124 -4 128
-15z m1470 -293 c-15 -8 -48 -19 -75 -25 -26 -6 -55 -13 -63 -15 -8 -2 -56
-20 -105 -39 -101 -39 -135 -51 -150 -53 -12 -1 -38 -11 -118 -43 -15 -6 -36
-11 -46 -11 -10 0 -24 -7 -31 -15 -7 -8 -21 -15 -32 -15 -10 0 -32 -7 -49 -15
-16 -9 -28 -12 -27 -8 1 4 -2 18 -6 31 -8 24 -3 30 49 67 11 7 34 16 51 18 17
3 43 12 56 21 14 9 49 18 79 20 30 1 63 7 74 13 18 9 120 36 183 48 12 2 26 6
31 9 5 3 41 8 82 11 40 3 75 8 78 10 2 3 14 5 25 5 18 0 18 -2 -6 -14z m392
-56 c0 -3 -46 -18 -103 -33 -142 -40 -205 -62 -333 -118 -61 -27 -114 -49
-118 -49 -4 0 -28 -9 -54 -21 -48 -21 -61 -26 -122 -52 -19 -8 -78 -29 -130
-47 -52 -17 -113 -40 -135 -50 -22 -11 -105 -41 -185 -69 -220 -76 -435 -161
-490 -194 -147 -88 -245 -171 -349 -293 -65 -78 -108 -205 -132 -389 -17 -140
-28 -628 -15 -700 l5 -30 -24 28 c-14 15 -26 35 -26 43 -2 18 -3 24 -17 57 -7
16 -12 39 -12 52 0 13 -7 50 -14 82 -8 32 -17 83 -20 113 -3 30 -8 87 -12 126
-7 74 8 220 32 314 20 75 65 190 76 190 4 0 8 8 8 17 0 41 82 229 117 268 40
44 253 174 326 199 24 8 76 30 116 50 40 19 82 38 94 42 22 6 57 20 112 44 17
8 32 14 35 15 3 0 30 12 60 27 30 14 73 31 95 37 45 14 100 37 129 52 10 6 26
12 35 14 28 6 312 105 385 134 54 22 309 99 341 103 11 2 22 6 25 10 17 22 93
35 192 34 60 -1 108 -3 108 -6z m257 -86 c23 -8 45 -24 48 -34 3 -11 18 -28
31 -39 21 -17 29 -18 45 -8 16 10 23 7 48 -23 48 -58 106 -184 117 -258 3 -20
10 -57 16 -82 18 -79 27 -498 14 -640 -6 -67 -35 -149 -72 -198 -35 -47 -145
-152 -161 -152 -6 0 -13 -4 -15 -9 -1 -4 -30 -26 -63 -47 -42 -27 -85 -43
-145 -56 -47 -10 -92 -20 -100 -22 -8 -2 -39 0 -68 5 -66 10 -143 64 -167 117
-9 20 -24 53 -34 72 -10 19 -24 62 -31 95 -15 71 -44 136 -71 161 -10 9 -19
22 -19 28 0 11 -54 66 -105 108 -11 10 -47 24 -79 32 -56 15 -61 15 -91 -4
-17 -10 -41 -40 -54 -64 -12 -25 -26 -48 -32 -51 -20 -13 -72 -159 -85 -240
-28 -183 -38 -267 -49 -405 -7 -91 -16 -174 -18 -185 -3 -11 -6 -25 -6 -30 -1
-6 -24 -41 -52 -78 -61 -82 -126 -127 -234 -162 -44 -15 -96 -35 -115 -45 -41
-22 -134 -52 -170 -56 -14 -1 -52 -7 -85 -13 -33 -6 -78 -11 -100 -11 -39 0
-199 46 -246 70 -75 39 -153 133 -166 200 -2 14 -8 84 -12 155 -5 103 -4 132
6 138 7 5 11 13 7 18 -3 5 -8 69 -10 142 -2 73 -6 147 -8 166 -4 39 27 291 47
373 8 32 30 79 52 110 42 59 174 190 218 216 15 9 27 20 27 24 0 4 7 8 15 8 7
0 18 6 22 14 4 8 10 15 13 16 31 6 50 14 50 21 0 5 6 9 13 9 6 0 26 7 42 16
33 17 113 47 187 70 26 8 50 19 53 23 3 5 41 21 85 36 44 15 82 31 86 36 3 5
9 7 14 4 5 -3 11 -1 15 5 3 5 15 10 26 10 11 0 38 9 61 20 22 11 44 17 49 15
4 -3 9 0 11 5 2 6 10 12 18 14 8 2 22 6 30 9 8 3 39 11 69 17 30 6 75 21 100
34 68 35 92 44 131 52 19 3 59 19 90 35 30 15 67 31 83 34 15 4 27 11 27 17 0
5 4 7 9 3 5 -3 17 2 25 11 9 8 16 13 16 10 0 -6 37 5 110 34 78 30 129 47 170
56 48 11 50 11 53 14 2 2 13 4 52 13 11 3 42 14 68 24 55 22 130 21 194 -3z
m-3217 -74 c0 -5 -12 -10 -26 -10 -14 0 -23 4 -19 10 3 6 15 10 26 10 10 0 19
-4 19 -10z m-317 -421 c-9 -70 -2 -157 23 -294 8 -44 75 -178 105 -211 10 -11
19 -25 19 -31 0 -6 11 -18 24 -27 14 -8 32 -28 41 -43 9 -16 40 -44 68 -63 56
-38 87 -66 87 -77 0 -5 -10 -21 -23 -36 l-22 -28 -47 48 c-117 119 -258 298
-258 327 0 4 -18 34 -40 67 -40 60 -44 71 -55 139 -14 81 7 231 37 267 6 7 8
16 5 20 -4 3 4 20 16 37 l22 31 3 -31 c2 -18 -1 -61 -5 -95z m1027 -346 c0
-14 -30 -97 -64 -178 -40 -95 -54 -151 -63 -265 -15 -169 -2 -377 27 -460 14
-37 20 -110 9 -110 -5 0 -9 3 -9 8 0 4 -28 20 -62 36 -35 16 -82 44 -105 63
-23 18 -46 33 -51 33 -5 0 -32 20 -60 45 -27 25 -53 45 -56 45 -25 0 -123 121
-152 187 -25 58 -25 102 0 137 11 17 27 35 34 39 6 4 12 13 12 20 0 7 34 37
76 67 42 30 90 67 107 82 17 15 51 37 76 50 53 27 64 34 102 70 16 14 29 24
29 22 0 -3 24 18 53 46 28 27 58 50 65 50 6 0 12 5 12 10 0 6 5 10 10 10 6 0
10 -3 10 -7z"/>
</g>
</svg>
