<?xml version="1.0" standalone="no"?>
<!DOCTYPE svg PUBLIC "-//W3C//DTD SVG 20010904//EN"
 "http://www.w3.org/TR/2001/REC-SVG-20010904/DTD/svg10.dtd">
<svg version="1.0" xmlns="http://www.w3.org/2000/svg"
 width="501.000000pt" height="495.000000pt" viewBox="0 0 501.000000 495.000000"
 preserveAspectRatio="xMidYMid meet">
<metadata>
Created by potrace 1.16, written by Peter Selinger 2001-2019
</metadata>
<g transform="translate(0.000000,495.000000) scale(0.100000,-0.100000)"
fill="#000000" stroke="none">
<path d="M4066 4631 c-11 -8 -30 -22 -41 -33 -11 -10 -47 -38 -80 -63 -86 -64
-91 -68 -127 -101 -18 -16 -62 -50 -98 -74 -36 -24 -83 -59 -106 -79 -22 -20
-67 -54 -100 -76 -32 -22 -79 -60 -103 -84 -42 -42 -68 -59 -188 -131 -29 -17
-69 -50 -90 -74 -37 -42 -129 -110 -211 -156 -23 -13 -48 -33 -56 -45 -8 -12
-54 -50 -102 -85 -161 -115 -229 -169 -256 -203 -23 -30 -167 -137 -183 -137
-3 0 -11 -5 -18 -10 -51 -44 -73 -60 -79 -60 -4 0 -13 -6 -20 -12 -112 -105
-361 -300 -500 -391 -32 -21 -106 -80 -165 -132 -60 -52 -115 -95 -124 -95 -8
0 -26 -12 -40 -26 -13 -14 -37 -33 -54 -41 -16 -9 -64 -43 -106 -77 -41 -34
-90 -72 -109 -86 -18 -14 -41 -32 -50 -40 -10 -8 -44 -35 -75 -60 -31 -25 -75
-62 -98 -83 -22 -21 -49 -43 -59 -48 -10 -5 -18 -16 -18 -24 0 -8 -5 -15 -11
-15 -6 0 -16 -6 -23 -13 -27 -25 -83 -68 -141 -107 -155 -102 -323 -230 -391
-297 -18 -17 -52 -45 -76 -62 -120 -84 -181 -196 -117 -216 10 -4 19 -10 19
-14 0 -4 20 -6 45 -3 25 2 51 0 58 -5 6 -6 64 -11 127 -11 189 -3 250 -15 250
-48 0 -9 9 -23 21 -32 18 -15 21 -31 24 -125 2 -59 8 -113 13 -120 5 -7 12
-25 14 -42 12 -72 50 -222 64 -249 7 -16 14 -35 14 -43 0 -8 9 -27 20 -43 36
-53 55 -84 69 -112 8 -16 18 -28 23 -28 4 0 8 -6 8 -14 0 -24 139 -203 220
-283 35 -35 99 -75 110 -68 4 3 18 -7 29 -21 12 -15 27 -24 35 -21 7 3 23 -1
34 -8 23 -17 100 -18 157 -3 22 6 47 12 55 13 8 1 22 5 30 8 8 4 33 11 55 16
44 10 101 29 127 42 10 5 24 9 32 9 23 0 277 130 321 164 22 17 46 35 53 41
22 17 84 83 100 107 9 13 39 49 68 81 100 108 157 245 148 357 -5 75 -17 164
-25 180 -1 3 -3 10 -4 15 -1 9 -38 88 -60 127 -5 10 -13 18 -17 18 -5 0 -8 6
-8 13 0 6 -14 32 -30 57 -37 54 -61 106 -66 140 -2 14 -6 40 -10 57 -3 18 -3
49 0 68 l7 36 36 -30 c20 -17 40 -28 45 -25 5 3 40 -15 78 -40 37 -25 73 -46
80 -46 7 0 36 -13 65 -29 32 -18 70 -30 97 -31 78 -3 78 -3 78 35 0 27 8 44
35 71 33 33 43 65 36 121 -2 14 64 26 107 18 18 -3 42 0 53 6 18 9 20 17 15
52 -8 53 4 73 32 58 38 -20 95 -13 115 14 16 22 16 28 2 67 -15 44 -20 101 -7
83 23 -32 162 -23 162 11 0 7 -5 24 -11 38 -19 42 2 57 66 50 66 -8 79 4 116
109 25 71 25 72 58 69 39 -4 94 20 116 51 8 12 15 39 15 61 l0 39 37 -6 c27
-5 45 -1 70 14 28 17 33 27 33 57 0 20 5 53 10 73 10 34 13 37 62 43 28 4 60
12 70 17 27 15 50 66 46 106 l-3 36 55 2 c31 0 61 4 68 9 11 6 23 44 37 109 5
27 8 28 46 24 33 -4 43 -1 59 21 11 13 20 38 20 53 0 31 6 34 71 30 51 -3 71
20 69 78 -3 85 -4 83 35 78 28 -4 42 1 65 20 25 21 30 32 30 69 l0 44 53 -6
c75 -9 86 4 81 96 l-5 70 28 1 c91 3 85 -1 105 64 10 33 18 68 18 79 0 15 5
17 33 12 27 -5 38 -2 57 19 12 13 27 22 31 19 5 -3 7 8 5 25 -3 24 0 29 16 26
27 -6 44 3 63 31 19 29 11 94 -11 94 -8 0 -25 7 -38 15 -13 9 -34 18 -46 20
-13 2 -37 9 -55 15 -18 6 -63 12 -101 13 -46 1 -73 7 -80 16 -6 8 -21 16 -33
18 -27 4 -151 42 -170 51 -8 5 -20 30 -27 57 -7 28 -24 83 -38 123 -13 41 -22
80 -19 88 3 8 1 14 -5 14 -9 0 -25 60 -27 96 0 6 -5 18 -11 25 -6 8 -26 61
-44 119 -54 172 -46 158 -97 162 -28 2 -53 -2 -67 -11z m71 -259 c8 -19 28
-84 43 -146 16 -62 35 -128 43 -147 16 -37 36 -97 42 -126 6 -32 38 -87 62
-111 14 -12 57 -31 96 -43 104 -29 257 -69 291 -75 28 -5 56 -25 56 -39 0 -4
-17 -6 -37 -4 -21 1 -50 -1 -64 -5 -23 -7 -25 -11 -22 -54 6 -67 -9 -102 -44
-102 -38 0 -91 -34 -99 -64 -3 -13 -3 -40 0 -60 7 -40 0 -43 -53 -25 -17 6
-42 8 -56 5 -22 -6 -24 -10 -22 -76 l2 -70 -47 6 c-34 5 -51 2 -61 -8 -17 -16
-31 -80 -28 -125 3 -36 -9 -42 -33 -18 -8 8 -22 15 -31 15 -36 0 -52 -20 -66
-79 -13 -58 -13 -59 -35 -44 -26 17 -60 10 -73 -15 -5 -9 -14 -45 -21 -79
l-12 -62 -51 5 c-28 2 -56 -1 -64 -7 -15 -13 -35 -80 -37 -124 -1 -30 -1 -30
-56 -28 -47 1 -57 -2 -76 -24 -20 -23 -54 -123 -54 -159 0 -11 -6 -14 -21 -9
-31 10 -89 9 -100 -2 -9 -9 -15 -54 -18 -121 -1 -23 -4 -24 -62 -19 -69 5 -83
-3 -93 -58 -11 -55 -44 -125 -59 -125 -8 0 -28 7 -44 15 -17 8 -38 12 -48 9
-18 -7 -65 -102 -65 -130 0 -12 -4 -13 -21 -3 -45 23 -106 -7 -138 -68 -9 -18
-8 -29 4 -54 9 -17 15 -32 13 -34 -2 -2 -27 2 -56 7 -71 14 -75 10 -89 -88
l-5 -42 -65 4 c-36 2 -69 6 -73 9 -17 10 -33 -28 -31 -76 1 -48 -17 -100 -39
-114 -6 -3 -23 3 -39 14 -15 11 -43 23 -62 26 -39 6 -73 18 -146 51 -28 13
-55 24 -60 24 -15 1 -50 36 -57 58 -4 12 -12 22 -17 22 -5 0 -9 15 -9 33 0 26
-6 36 -25 45 -14 6 -25 18 -25 25 0 8 -9 22 -20 32 -11 10 -18 20 -15 23 6 6
-48 76 -96 124 -20 21 -51 61 -69 89 -17 29 -38 59 -46 66 -18 18 -74 100 -74
107 0 4 -21 28 -47 55 -27 27 -52 54 -58 61 -5 6 -32 31 -58 56 -37 34 -47 49
-42 64 4 11 13 20 21 20 8 0 17 7 20 15 4 8 11 15 16 15 6 0 18 8 27 18 9 10
48 39 86 65 77 51 107 73 173 129 12 9 33 25 49 34 26 17 109 84 159 129 12
11 43 36 69 55 26 19 57 44 69 55 11 11 35 31 53 45 51 40 165 136 199 167 17
15 47 41 67 58 21 16 37 35 37 42 0 6 8 14 18 17 9 3 32 19 49 35 18 16 47 39
65 52 18 13 35 26 38 29 3 3 32 25 65 50 33 24 71 55 84 67 13 13 27 23 32 23
4 0 23 14 41 31 18 17 68 56 111 87 42 30 77 59 77 64 0 4 6 8 13 8 8 0 24 12
38 26 32 35 260 229 279 237 8 4 40 26 70 48 30 23 105 74 165 114 61 40 117
80 124 89 7 9 19 16 25 17 6 1 31 22 56 48 l45 46 13 -45 c7 -25 20 -60 29
-78z m-2604 -1899 c41 -24 128 -119 169 -184 9 -14 35 -48 57 -75 22 -27 46
-56 53 -65 21 -25 133 -152 164 -185 16 -17 36 -44 44 -60 8 -16 21 -35 28
-42 34 -37 46 -108 22 -137 -16 -19 -50 -173 -48 -218 1 -24 10 -43 29 -61 28
-26 129 -219 129 -245 0 -8 14 -43 31 -78 31 -63 31 -67 26 -178 -3 -75 -10
-123 -21 -142 -18 -33 -35 -69 -49 -103 -22 -55 -42 -90 -70 -121 -16 -19 -44
-51 -61 -71 -60 -69 -232 -167 -366 -209 -41 -13 -77 -26 -80 -29 -9 -11 -64
-29 -105 -36 -22 -3 -59 -12 -83 -20 -23 -8 -56 -14 -72 -14 -34 0 -105 34
-123 60 -7 10 -28 27 -48 38 -68 38 -78 47 -90 74 -6 16 -31 50 -56 76 -24 26
-50 61 -57 77 -8 17 -29 46 -46 65 -18 19 -39 49 -47 67 -7 18 -18 33 -24 33
-5 0 -8 4 -4 9 3 5 0 15 -7 23 -20 20 -49 105 -63 183 -7 39 -21 93 -31 120
-19 53 -28 213 -13 251 11 30 -73 143 -113 151 -15 3 -28 10 -28 15 0 5 -4 6
-10 3 -5 -3 -20 -1 -32 6 -12 7 -74 13 -147 14 -132 2 -209 18 -188 39 7 6 44
35 82 63 39 29 92 73 118 98 26 25 75 63 110 85 34 22 67 44 74 50 7 5 15 10
18 10 3 0 16 10 29 23 41 40 70 62 119 90 26 15 47 32 47 37 0 6 5 10 10 10
13 0 109 70 129 93 7 10 17 17 21 17 4 0 26 17 48 38 84 77 129 114 188 155
33 23 78 57 100 75 71 59 133 102 147 102 8 0 22 9 32 20 22 24 20 24 58 3z"/>
<path d="M1338 2247 c-61 -11 -61 -11 -74 -116 -6 -50 79 -95 153 -82 92 17
136 79 101 140 -15 24 -91 71 -113 69 -5 0 -36 -5 -67 -11z m97 -87 c7 -11
-41 -32 -63 -28 -9 2 -17 9 -20 17 -3 8 0 11 6 7 6 -3 13 -2 17 4 8 13 52 13
60 0z"/>
<path d="M1654 1938 c-39 -43 -54 -72 -54 -103 0 -44 11 -75 25 -75 7 0 15 -6
18 -14 8 -20 66 -35 110 -27 21 3 51 19 67 34 25 24 30 36 30 78 0 27 -4 49
-10 49 -5 0 -10 7 -10 15 0 8 -6 12 -14 9 -7 -3 -20 1 -28 8 -22 20 -51 35
-84 42 -24 5 -34 2 -50 -16z m106 -98 c20 -12 2 -30 -37 -36 -24 -4 -32 -1
-36 16 -3 11 -1 18 4 14 5 -3 17 0 26 5 22 13 24 13 43 1z"/>
<path d="M1250 1791 c0 -5 -15 -12 -34 -15 -19 -4 -36 -13 -39 -20 -3 -7 -33
-28 -68 -46 -34 -17 -71 -41 -83 -52 -19 -19 -77 -45 -84 -39 -2 1 -17 -11
-33 -28 -21 -22 -29 -41 -29 -66 0 -19 -7 -75 -15 -124 -16 -89 -10 -141 15
-141 6 0 9 -4 5 -9 -3 -5 -1 -12 3 -15 5 -3 9 -20 10 -39 1 -18 8 -73 17 -121
8 -49 15 -104 15 -122 0 -18 4 -35 9 -38 12 -8 53 -144 47 -155 -6 -8 50 -118
70 -138 7 -7 15 -21 19 -32 3 -10 18 -23 33 -30 48 -22 97 -60 114 -89 14 -23
23 -28 42 -25 14 3 39 -2 57 -11 45 -22 126 -20 177 4 22 11 47 20 55 20 8 0
26 11 41 25 14 13 43 32 64 41 20 10 50 27 67 38 16 12 46 28 65 37 19 9 56
33 81 55 26 21 79 64 118 94 39 29 71 60 71 66 0 7 9 19 19 26 17 12 17 16 5
33 -8 10 -14 31 -14 46 0 15 -4 30 -9 34 -9 5 -15 23 -48 135 -8 30 -21 69
-28 85 -33 75 -54 127 -86 210 -12 33 -28 68 -35 78 -6 10 -9 28 -6 40 3 12 1
19 -3 15 -11 -11 -35 11 -35 31 0 31 -24 50 -69 56 -23 3 -48 8 -53 12 -6 3
-29 8 -52 11 -23 2 -44 9 -48 16 -4 6 -8 7 -8 2 0 -5 -7 -3 -16 4 -8 8 -29 15
-45 17 -16 1 -44 10 -60 19 -17 8 -40 17 -51 19 -35 7 -112 48 -134 72 -22 24
-34 29 -34 14z m100 -182 c36 -17 85 -40 110 -52 24 -12 47 -22 50 -23 3 0 12
-4 20 -7 22 -9 141 -38 162 -40 12 -1 22 -14 28 -39 6 -20 15 -40 20 -43 6 -3
10 -14 10 -24 0 -10 15 -47 33 -82 17 -35 41 -85 52 -111 11 -26 23 -48 28
-48 4 0 7 -8 7 -17 0 -10 8 -31 18 -48 20 -34 39 -95 45 -143 3 -26 -2 -37
-24 -55 -15 -12 -38 -30 -51 -41 -12 -10 -44 -32 -70 -49 -27 -16 -48 -34 -48
-38 0 -5 -7 -9 -15 -9 -8 0 -31 -16 -51 -35 -19 -19 -39 -35 -44 -35 -5 0 -10
-4 -12 -8 -4 -10 -129 -95 -132 -90 -1 1 -9 34 -19 72 -10 39 -23 82 -31 96
-7 15 -19 48 -27 73 -7 26 -17 47 -21 47 -3 0 -17 18 -29 40 -12 22 -31 42
-41 46 -10 3 -18 8 -18 12 0 4 -15 24 -34 44 -19 21 -41 47 -49 58 -8 12 -37
45 -63 74 -196 212 -191 204 -172 281 5 22 9 50 9 62 0 13 8 27 22 34 12 7 24
15 27 18 3 3 23 15 45 26 22 11 58 34 80 51 64 51 78 51 185 3z m-272 -573 c4
-18 -29 -106 -39 -106 -17 0 -19 71 -4 100 17 33 38 35 43 6z m97 -106 c4 -12
-5 -50 -20 -93 -15 -40 -32 -85 -38 -100 -15 -41 -30 -18 -30 45 0 35 9 73 26
111 27 59 51 73 62 37z m92 -112 c22 -37 18 -70 -19 -171 l-21 -57 -31 20
c-24 15 -30 25 -28 47 2 15 7 32 11 38 5 5 13 26 20 45 12 37 44 110 47 110 1
0 11 -15 21 -32z m89 -251 c7 -62 1 -69 -37 -38 -20 16 -22 22 -12 42 7 13 15
35 18 48 10 35 24 12 31 -52z"/>
</g>
</svg>
