<?xml version="1.0" standalone="no"?>
<!DOCTYPE svg PUBLIC "-//W3C//DTD SVG 20010904//EN"
 "http://www.w3.org/TR/2001/REC-SVG-20010904/DTD/svg10.dtd">
<svg version="1.0" xmlns="http://www.w3.org/2000/svg"
 width="425.000000pt" height="421.000000pt" viewBox="0 0 425.000000 421.000000"
 preserveAspectRatio="xMidYMid meet">
<metadata>
Created by potrace 1.16, written by Peter Selinger 2001-2019
</metadata>
<g transform="translate(0.000000,421.000000) scale(0.100000,-0.100000)"
fill="#000000" stroke="none">
<path d="M3266 3988 c-9 -5 -20 -7 -25 -3 -5 3 -12 1 -16 -5 -3 -5 -14 -10
-24 -10 -9 0 -23 -6 -29 -12 -7 -7 -17 -14 -22 -14 -6 -1 -14 -2 -20 -3 -23
-3 -78 -70 -99 -120 -20 -47 -23 -73 -24 -172 l0 -118 -27 -11 c-16 -6 -36
-19 -46 -28 -24 -21 -95 -56 -154 -75 -45 -15 -156 -48 -175 -53 -44 -10 -175
-46 -204 -56 -76 -27 -209 -97 -227 -121 -11 -13 -30 -27 -42 -31 -12 -4 -22
-10 -22 -14 0 -4 -25 -33 -55 -65 -51 -55 -125 -187 -125 -223 0 -9 -6 -28
-14 -42 -16 -31 -36 -93 -36 -111 0 -6 -9 -21 -20 -33 -20 -22 -27 -72 -12
-82 5 -3 7 -30 6 -61 -1 -30 2 -71 6 -89 6 -29 3 -39 -21 -65 -15 -17 -30 -31
-33 -31 -10 0 -71 -61 -72 -73 -1 -7 -3 -14 -4 -17 -3 -7 -11 -89 -13 -120 0
-14 5 -55 12 -92 l13 -67 -28 -30 c-41 -43 -54 -59 -54 -67 0 -4 -7 -14 -15
-23 -40 -44 -52 -59 -75 -91 -14 -19 -51 -62 -83 -95 -32 -33 -70 -75 -85 -94
-15 -18 -46 -54 -69 -78 -23 -24 -57 -63 -76 -86 -19 -23 -43 -51 -53 -63
-103 -116 -137 -155 -166 -190 -59 -73 -251 -297 -299 -349 -25 -27 -64 -70
-85 -95 -21 -25 -63 -71 -93 -103 -30 -32 -62 -68 -70 -80 -22 -31 -55 -70
-126 -144 -73 -78 -90 -111 -70 -140 8 -11 27 -23 41 -26 29 -5 74 36 289 264
50 53 95 98 102 100 9 3 79 67 312 289 159 150 252 236 356 325 38 33 86 77
107 98 21 21 42 36 48 32 5 -3 10 -2 10 3 0 7 71 79 204 207 17 17 49 43 71
59 22 17 58 47 79 68 26 26 45 37 55 33 9 -4 29 -9 46 -11 55 -7 136 -27 141
-35 7 -12 63 11 78 33 8 11 20 18 27 16 13 -4 32 8 70 44 39 37 64 46 116 43
28 -2 55 -5 60 -8 13 -8 106 -5 124 4 11 6 24 2 39 -11 19 -17 32 -18 104 -13
44 3 97 12 116 21 19 8 40 16 47 18 7 1 26 12 42 23 16 12 33 21 39 21 12 0
143 99 162 123 74 94 100 128 100 134 0 3 6 14 13 22 12 14 25 47 66 172 6 20
13 57 15 82 2 25 6 49 9 54 3 5 9 35 12 68 13 108 8 89 56 213 12 28 25 52 29
52 5 0 17 -11 28 -25 11 -14 25 -25 31 -25 6 0 11 -5 11 -11 0 -5 4 -8 9 -4 6
3 14 -3 20 -12 6 -10 11 -14 11 -9 0 4 11 1 23 -7 30 -19 103 -40 141 -39 40
1 126 24 126 34 0 4 10 8 21 8 19 0 81 45 144 105 12 11 32 40 46 65 13 25 29
48 34 52 6 4 7 8 3 8 -4 0 -2 15 3 33 6 17 10 73 10 123 -1 95 -15 150 -65
251 -14 29 -26 58 -26 64 0 10 -54 98 -91 149 -10 14 -32 48 -48 75 -47 80
-158 206 -258 291 -75 65 -116 78 -350 108 -11 2 -28 -1 -37 -6z m159 -118 c4
-6 10 -8 15 -5 5 3 23 -1 41 -10 17 -9 33 -14 36 -11 7 7 37 -9 70 -37 35 -29
162 -157 191 -191 41 -49 192 -283 192 -298 0 -4 13 -36 28 -70 43 -94 47
-124 18 -153 -38 -38 -135 -86 -155 -76 -9 4 -33 11 -54 14 -63 10 -186 85
-254 154 -72 74 -139 189 -169 290 -11 40 -19 74 -18 76 2 2 -3 42 -10 89 -17
105 -11 162 21 206 25 33 37 39 48 22z m-170 -37 c-12 -80 -14 -127 -5 -175 5
-29 11 -73 14 -98 8 -64 20 -108 45 -165 63 -139 134 -256 168 -278 7 -4 25
-21 40 -37 16 -15 54 -42 85 -59 32 -17 66 -39 77 -50 11 -11 37 -23 58 -27
21 -4 50 -13 65 -20 46 -23 166 -14 188 14 3 4 15 13 27 19 20 11 21 11 16 -5
-8 -20 -46 -74 -85 -121 -34 -40 -124 -88 -182 -96 -64 -10 -163 38 -224 109
-67 75 -92 109 -101 138 -15 46 -72 98 -99 92 -29 -8 -34 -75 -9 -123 11 -20
23 -37 28 -39 5 -2 9 -12 9 -22 0 -10 7 -20 15 -24 21 -8 19 -20 -11 -55 -14
-17 -24 -31 -21 -31 3 0 -2 -21 -10 -47 -29 -93 -41 -150 -64 -283 -12 -74
-25 -137 -28 -140 -3 -3 -7 -16 -9 -29 -2 -13 -14 -42 -27 -66 -14 -23 -22
-45 -20 -47 3 -3 -6 -15 -20 -28 -14 -13 -25 -28 -25 -33 0 -33 -143 -152
-213 -178 -20 -7 -37 -16 -37 -20 0 -14 -82 -39 -131 -39 -27 0 -64 -7 -82
-16 -22 -12 -32 -13 -35 -5 -8 25 -60 40 -123 37 -45 -2 -74 2 -99 14 -19 10
-43 16 -53 14 -22 -3 -121 37 -148 59 -10 9 -23 17 -28 17 -4 0 -21 18 -36 40
-15 22 -32 40 -36 40 -5 0 -9 7 -9 15 0 8 -14 29 -31 46 -17 17 -46 66 -66
108 -19 42 -41 87 -48 101 -29 56 -35 232 -10 280 9 17 14 39 11 48 -4 10 3
35 14 57 11 22 20 47 20 56 0 9 6 19 13 22 7 3 14 22 15 42 2 23 14 52 30 74
16 20 36 50 47 66 23 38 57 75 69 75 5 0 19 11 32 25 42 45 232 134 256 119 4
-3 8 0 8 7 0 7 3 9 7 6 3 -4 11 -3 17 2 6 4 65 23 131 41 66 18 127 36 135 40
8 5 29 10 45 13 17 3 66 24 110 46 44 23 86 41 93 41 6 0 12 5 12 10 0 6 5 10
11 10 5 0 8 -4 5 -8 -3 -5 12 -24 33 -43 32 -30 42 -34 63 -27 31 11 40 38 24
70 -7 13 -17 32 -23 43 -23 44 -30 87 -32 178 -1 58 2 98 9 102 5 3 10 15 10
25 0 22 61 82 93 92 36 10 37 9 32 -19z m-1349 -1570 c13 -58 86 -190 129
-236 25 -26 45 -52 45 -57 0 -6 4 -10 10 -10 5 0 12 -11 16 -24 4 -17 25 -34
70 -56 35 -18 64 -37 64 -41 0 -5 3 -8 8 -8 4 1 13 1 21 0 14 -1 12 -3 -48
-53 -20 -17 -46 -17 -106 2 -16 5 -43 12 -60 14 -16 3 -35 12 -41 21 -6 8 -20
15 -32 15 -12 0 -28 13 -41 34 -12 19 -28 37 -36 40 -14 5 -63 101 -78 151
-12 39 -16 124 -7 130 6 4 10 13 10 21 0 18 48 84 61 84 5 0 11 -12 15 -27z
m-65 -435 c16 -18 29 -37 29 -43 -1 -16 -69 -85 -85 -85 -8 0 -15 -6 -15 -13
0 -7 -50 -60 -111 -118 -61 -57 -139 -131 -174 -164 -193 -184 -289 -273 -369
-340 -7 -5 -36 -32 -65 -60 -30 -27 -49 -41 -43 -30 6 11 21 29 34 41 43 38
98 103 98 115 0 7 13 24 28 38 15 14 57 58 93 96 109 120 216 239 239 265 11
14 34 40 50 58 17 18 37 44 46 57 9 13 24 27 34 30 10 3 25 21 34 40 9 18 25
37 36 40 11 4 20 11 20 18 0 13 70 87 83 87 4 0 21 -15 38 -32z"/>
</g>
</svg>
