<?xml version="1.0" standalone="no"?>
<!DOCTYPE svg PUBLIC "-//W3C//DTD SVG 20010904//EN"
 "http://www.w3.org/TR/2001/REC-SVG-20010904/DTD/svg10.dtd">
<svg version="1.0" xmlns="http://www.w3.org/2000/svg"
 width="529.000000pt" height="459.000000pt" viewBox="0 0 529.000000 459.000000"
 preserveAspectRatio="xMidYMid meet">
<metadata>
Created by potrace 1.16, written by Peter Selinger 2001-2019
</metadata>
<g transform="translate(0.000000,459.000000) scale(0.100000,-0.100000)"
fill="#000000" stroke="none">
<path d="M1785 4399 c-22 -17 -41 -34 -43 -40 -2 -5 -10 -9 -18 -9 -8 0 -14
-4 -14 -8 0 -5 -25 -14 -55 -21 -30 -7 -58 -18 -62 -26 -10 -17 -162 -125
-228 -161 -16 -9 -46 -31 -66 -48 -65 -56 -120 -95 -174 -125 -59 -31 -115
-85 -115 -110 0 -12 -8 -24 -17 -28 -33 -12 -45 -25 -31 -34 9 -6 6 -9 -9 -9
-12 0 -25 -4 -28 -10 -3 -5 -17 -10 -31 -10 -13 0 -24 -4 -24 -10 0 -5 -8 -10
-18 -10 -10 0 -31 -13 -47 -30 -16 -16 -33 -30 -38 -30 -8 0 -57 -38 -108 -85
-9 -8 -20 -15 -26 -15 -5 0 -19 -8 -31 -17 -68 -56 -100 -81 -138 -108 -24
-16 -73 -54 -110 -82 -37 -29 -71 -53 -76 -53 -5 0 -16 -7 -25 -15 -8 -8 -19
-13 -24 -9 -20 12 -47 -8 -54 -39 -13 -60 -13 -92 -1 -112 7 -11 23 -49 34
-85 12 -36 49 -119 82 -184 33 -66 60 -124 60 -130 0 -6 16 -35 35 -65 19 -29
35 -57 35 -62 0 -5 4 -9 10 -9 5 0 13 -12 16 -27 8 -30 9 -33 96 -176 61 -100
70 -121 51 -122 -6 0 -20 -12 -32 -26 -19 -24 -187 -142 -260 -181 -37 -20
-44 -66 -11 -75 11 -3 17 -9 15 -14 -3 -4 5 -19 17 -31 29 -29 64 -79 83 -121
54 -114 197 -311 271 -372 27 -22 67 -57 89 -79 59 -56 218 -156 289 -181 33
-12 83 -36 110 -53 26 -17 62 -34 80 -38 30 -6 92 -29 165 -61 19 -9 61 -19
95 -23 34 -5 78 -15 98 -24 21 -9 54 -19 75 -22 21 -3 43 -10 49 -15 6 -5 14
-6 17 -3 4 4 32 -3 64 -14 32 -11 99 -33 148 -48 50 -15 99 -33 110 -39 11 -7
43 -18 70 -25 53 -14 174 -59 240 -90 65 -30 183 -80 190 -80 4 0 28 -14 53
-31 26 -17 51 -32 57 -33 21 -4 80 -39 88 -52 4 -8 15 -14 22 -14 8 0 15 -4
15 -10 0 -5 8 -10 18 -10 10 0 23 -5 30 -12 7 -7 12 -9 12 -5 0 4 10 -1 21
-12 12 -11 36 -27 53 -35 51 -24 211 -174 221 -207 4 -11 10 -19 15 -19 12 0
100 -85 100 -96 0 -5 9 -15 20 -22 11 -7 20 -19 20 -27 0 -8 12 -22 28 -32 15
-10 29 -21 32 -25 6 -7 22 5 118 90 29 26 65 54 80 62 49 28 140 90 152 105 7
8 18 15 25 15 8 0 15 3 17 8 4 10 94 72 105 72 4 0 14 9 21 20 7 11 16 20 21
20 15 0 266 156 321 200 14 11 30 20 37 20 6 0 13 3 15 8 3 6 88 64 154 104
80 48 156 99 171 113 24 24 119 95 127 95 9 0 142 106 151 120 3 5 14 10 24
10 10 0 28 12 42 26 14 15 31 23 42 20 39 -10 79 79 44 101 -7 4 -30 42 -51
83 -21 41 -42 77 -45 80 -13 10 -97 126 -111 154 -8 16 -28 43 -44 60 -17 17
-51 61 -76 98 -39 56 -93 112 -251 260 -11 10 -26 18 -34 18 -8 0 -15 4 -15 9
0 4 -27 27 -59 50 -70 49 -70 56 1 132 74 80 99 115 93 130 -3 8 -32 29 -64
46 -33 18 -66 39 -73 46 -24 23 -113 73 -155 87 -24 7 -43 17 -43 22 0 4 -8 8
-17 8 -9 0 -24 6 -32 13 -22 18 -65 31 -215 67 -116 28 -235 66 -324 106 -18
7 -39 14 -47 14 -14 0 -53 18 -65 30 -3 3 -41 23 -85 45 -44 22 -82 43 -85 46
-3 3 -21 11 -40 18 -20 6 -56 28 -81 49 -25 20 -58 46 -74 57 -15 11 -39 30
-54 42 -44 38 -46 40 -87 65 -21 14 -70 58 -109 98 -38 40 -104 107 -145 149
-87 90 -208 225 -230 256 -8 12 -26 32 -38 46 -13 13 -32 41 -43 62 -11 20
-23 37 -27 37 -4 0 -12 9 -17 19 -6 11 -26 50 -46 88 -79 150 -139 273 -139
281 0 6 -6 12 -14 15 -7 3 -17 18 -20 33 -13 52 -66 149 -101 186 -19 20 -35
41 -35 46 0 18 -49 42 -82 41 -20 0 -49 -12 -73 -30z m83 -154 c12 -19 22 -36
22 -38 0 -2 -18 -9 -40 -16 -31 -9 -40 -17 -40 -34 0 -47 29 -60 83 -39 15 7
27 19 27 27 0 9 4 14 9 11 11 -7 71 -121 71 -135 0 -5 -18 -18 -40 -28 -22
-10 -40 -23 -40 -29 0 -6 -18 -38 -40 -70 -22 -33 -40 -62 -40 -66 0 -18 23
-6 51 27 17 19 40 35 50 35 10 0 19 5 19 10 0 6 6 10 13 10 6 0 20 15 30 33
l19 32 15 -28 c21 -41 11 -55 -47 -63 -43 -6 -53 -11 -61 -33 -9 -23 -6 -30
37 -70 45 -41 48 -43 61 -25 9 12 13 33 10 55 -3 26 0 38 12 46 15 9 23 1 54
-61 92 -176 142 -263 168 -294 16 -18 29 -37 29 -42 0 -6 15 -27 33 -47 59
-67 57 -71 -38 -72 -68 -1 -83 2 -79 13 3 7 -3 17 -13 20 -13 5 -24 -1 -40
-21 -18 -22 -25 -25 -35 -15 -6 6 -20 12 -30 12 -10 0 -18 5 -18 12 0 6 -9 3
-20 -7 -20 -18 -25 -41 -14 -69 9 -23 80 -22 93 2 6 10 11 12 11 4 0 -31 89
-29 173 3 13 5 17 2 17 -13 0 -53 26 -65 81 -36 28 14 32 14 50 -2 22 -20 26
-76 6 -93 -8 -6 -22 -29 -32 -51 -16 -35 -16 -44 -5 -65 16 -30 29 -31 62 -5
14 10 29 16 33 12 3 -4 5 25 3 65 -5 76 -3 78 40 40 23 -21 29 -56 12 -73 -6
-6 4 -18 26 -33 28 -19 40 -22 52 -14 17 10 62 -2 62 -17 0 -3 -20 -23 -45
-44 -25 -22 -45 -45 -45 -53 0 -9 -7 -12 -24 -7 -34 8 -66 -12 -66 -41 0 -30
7 -34 48 -23 22 6 32 15 32 28 0 23 10 26 29 8 10 -11 23 -2 65 45 37 40 55
54 63 46 7 -7 5 -21 -8 -46 -14 -27 -16 -40 -8 -50 15 -18 54 -16 73 3 24 23
91 -2 80 -30 -5 -12 17 -28 41 -31 6 -1 21 -5 33 -9 l24 -8 -21 -15 c-12 -8
-21 -20 -21 -28 0 -19 -29 -47 -41 -39 -6 3 -8 11 -6 18 3 7 -3 23 -13 36 -23
31 -70 22 -70 -15 0 -13 7 -28 16 -33 15 -8 14 -12 -6 -39 -14 -20 -20 -38
-16 -51 15 -46 67 -31 108 32 l22 33 32 -22 c35 -24 85 -23 105 1 10 12 4 21
-27 49 -42 37 -30 48 16 15 15 -11 38 -24 52 -29 32 -12 34 -43 2 -35 -17 4
-27 -1 -39 -20 -21 -32 -12 -64 21 -72 13 -3 22 -10 19 -14 -10 -16 7 -39 36
-49 27 -9 31 -8 41 14 6 13 14 22 19 20 12 -8 62 14 89 40 18 17 32 22 53 18
30 -6 35 -18 12 -26 -9 -4 -13 -16 -10 -35 4 -39 25 -71 42 -65 9 4 11 0 7
-11 -3 -9 -10 -16 -15 -16 -19 0 10 -45 32 -51 18 -4 30 0 46 19 18 19 24 22
28 10 8 -20 92 -23 137 -4 37 16 54 46 35 65 -13 13 126 -40 185 -70 10 -5 30
-9 45 -9 25 0 26 -1 12 -16 -13 -12 -20 -13 -42 -3 -22 10 -30 8 -55 -10 -43
-30 -50 -86 -12 -91 39 -6 60 1 60 18 0 28 10 33 34 17 30 -22 65 -18 102 10
39 30 43 30 42 8 -1 -10 2 -30 5 -45 6 -21 13 -28 33 -28 22 0 25 -4 21 -27
-9 -65 -39 -85 -52 -36 -8 35 -52 76 -82 75 -13 0 -32 -7 -43 -17 -15 -14 -17
-22 -9 -43 5 -15 17 -33 26 -40 10 -7 12 -12 5 -12 -17 0 -15 -30 3 -36 8 -4
15 -11 15 -16 0 -12 -36 -43 -73 -64 -15 -8 -37 -24 -48 -35 -10 -10 -29 -19
-41 -19 -24 0 -58 -26 -58 -45 0 -6 -36 -40 -80 -74 -44 -34 -80 -60 -80 -59
0 2 6 23 13 48 19 64 16 84 -11 88 -13 2 -33 -3 -46 -11 -20 -13 -23 -13 -32
0 -8 14 -13 14 -34 3 -14 -7 -40 -27 -58 -45 -29 -27 -32 -34 -23 -58 8 -21
17 -27 41 -27 27 0 34 6 50 43 l20 42 0 -40 c0 -47 8 -61 35 -67 l20 -5 -20
-8 c-11 -5 -46 -26 -77 -47 -32 -21 -58 -34 -58 -29 0 5 -12 6 -27 2 -18 -5
-29 -16 -33 -32 -4 -16 -28 -38 -70 -66 -36 -23 -90 -59 -120 -81 -30 -22 -70
-47 -88 -56 -33 -17 -33 -17 -22 4 8 16 9 25 1 33 -12 12 -61 -22 -135 -95
-53 -53 -76 -60 -76 -25 0 13 -6 31 -13 41 -12 16 -17 17 -38 6 -34 -19 -46
-39 -41 -69 5 -25 4 -25 -15 -8 -24 21 -43 22 -43 1 0 -11 -5 -14 -17 -9 -31
12 -67 24 -109 35 -29 7 -43 17 -47 32 -6 20 -7 20 -32 4 -23 -15 -34 -16 -81
-6 -29 6 -54 14 -54 16 0 3 7 12 15 20 11 12 12 20 5 35 -9 16 -14 17 -33 8
-11 -7 -29 -21 -38 -33 -10 -12 -21 -17 -26 -12 -4 5 -2 11 5 13 19 7 15 43
-5 44 -33 2 -48 -3 -69 -22 -23 -22 -62 -25 -88 -6 -16 12 -16 13 1 28 10 9
33 19 52 23 71 13 84 51 16 44 -25 -3 -47 -2 -50 2 -6 9 -56 1 -72 -13 -15
-11 -17 -47 -3 -47 6 0 10 -5 10 -11 0 -10 -32 -7 -84 8 -19 5 -19 6 3 24 22
18 22 19 5 25 -31 11 -54 36 -54 58 0 14 3 17 8 9 5 -8 26 -12 55 -10 41 2 47
0 47 -16 0 -17 5 -19 32 -13 46 9 53 19 37 55 -14 31 -42 41 -55 20 -5 -8 -12
-5 -23 9 -9 12 -29 28 -45 36 -26 13 -31 13 -53 -1 -13 -9 -22 -22 -19 -29 3
-9 -2 -14 -15 -14 -52 0 -89 -61 -53 -87 28 -21 -1 -15 -58 11 -29 13 -75 32
-103 42 -27 10 -54 20 -60 24 -5 4 -29 12 -53 19 -41 12 -43 14 -37 42 8 36
-16 50 -45 24 -16 -14 -22 -15 -42 -4 -17 10 -19 14 -7 16 28 6 50 56 39 91
-8 30 -6 34 38 69 26 21 48 38 50 39 9 4 -13 33 -37 47 -27 16 -29 16 -46 -3
-10 -11 -23 -20 -30 -20 -7 0 -20 -9 -29 -19 -19 -20 -14 -59 8 -73 7 -5 3
-15 -12 -30 l-23 -23 -28 34 c-33 40 -60 39 -74 -4 -5 -16 -11 -31 -12 -33 -3
-4 -121 66 -137 81 -7 7 -29 24 -48 37 -91 63 -92 65 -70 105 17 31 18 36 4
50 -19 18 -18 18 -55 0 -27 -14 -31 -14 -52 2 -13 9 -31 27 -40 39 -16 22 -16
23 13 44 26 19 28 23 16 36 -8 8 -21 14 -29 14 -8 0 -17 7 -21 15 -7 19 -30
19 -50 0 -15 -15 -33 -4 -21 14 3 5 -4 12 -15 16 -11 3 -25 15 -30 26 -6 10
-16 19 -22 19 -23 0 -48 34 -48 64 0 17 -9 42 -19 56 l-19 24 36 13 c21 7 54
13 75 13 36 0 37 -1 37 -37 1 -54 21 -77 59 -68 43 9 56 65 15 65 -8 0 -14 9
-14 21 0 12 -8 23 -20 26 -24 6 -25 12 -3 28 24 18 9 45 -24 45 -43 0 -73 11
-73 26 0 8 -5 14 -12 14 -6 0 -4 8 6 19 23 25 13 56 -21 75 -23 12 -28 11 -45
-6 -11 -11 -17 -26 -14 -33 3 -8 1 -17 -5 -21 -6 -3 -1 -14 11 -24 21 -19 22
-19 3 -52 -10 -18 -21 -34 -25 -36 -5 -2 -8 -10 -8 -18 0 -8 -4 -14 -10 -14
-11 0 -14 20 -11 57 3 35 -17 63 -44 63 -16 0 -26 7 -31 23 -3 12 -13 29 -21
38 -12 15 -10 17 15 22 55 11 45 97 -11 97 -15 0 -32 -6 -39 -13 -10 -11 -15
-8 -30 20 -10 18 -18 34 -18 35 0 2 19 4 41 5 23 0 45 7 49 14 11 16 1 39 -16
39 -16 0 -19 46 -5 83 5 14 6 30 0 38 -17 28 -53 -11 -80 -86 l-11 -30 -19 49
c-11 27 -28 67 -38 90 -48 111 -49 101 5 150 32 30 55 43 67 40 9 -3 29 4 43
15 15 12 31 21 37 21 16 0 57 41 57 57 0 7 -6 13 -12 13 -7 0 -4 7 7 16 11 8
27 20 35 27 9 6 38 30 65 52 28 21 52 42 55 45 3 3 21 17 40 29 19 13 46 34
60 47 62 57 70 64 70 57 0 -3 10 3 23 14 12 11 39 30 59 42 l37 22 -9 -32
c-16 -55 11 -72 68 -43 39 19 47 31 32 49 -9 11 -9 23 -2 45 7 20 8 32 1 36
-11 6 22 44 38 44 5 0 30 18 57 40 26 22 50 40 53 40 3 0 -4 -15 -15 -33 -25
-44 -37 -104 -20 -109 9 -3 6 -13 -10 -33 -69 -88 34 -74 120 17 64 68 64 99
-1 77 -18 -6 -34 -9 -36 -7 -8 8 22 79 39 91 10 8 16 22 14 33 -3 14 12 30 54
62 32 23 61 42 66 42 8 0 141 92 181 125 13 11 38 32 55 46 45 38 107 79 120
79 6 0 21 -16 34 -35z m1628 -1676 c3 -5 15 -9 28 -9 29 0 37 -8 26 -29 -5 -9
-11 -24 -14 -34 -4 -12 -14 -17 -28 -15 -18 2 -22 9 -20 29 1 16 -6 33 -18 44
-11 10 -20 21 -20 26 0 9 39 -1 46 -12z m-2745 -445 c61 -64 63 -66 33 -60
-31 7 -32 6 -36 -30 -4 -31 -1 -38 20 -47 20 -9 27 -8 39 8 7 11 12 28 9 38
-8 30 11 18 61 -38 46 -52 150 -137 202 -165 14 -7 34 -21 45 -31 10 -10 38
-31 60 -46 23 -15 63 -45 89 -65 27 -21 55 -38 63 -38 8 0 14 -3 14 -7 0 -7
52 -35 230 -124 36 -18 84 -44 108 -59 41 -25 42 -27 24 -43 -38 -35 -7 -216
40 -225 8 -2 27 2 42 8 20 7 27 16 24 33 -2 17 -11 23 -36 25 -30 3 -33 6 -28
25 16 55 19 129 5 139 -10 6 -7 7 11 2 14 -3 32 -12 40 -19 8 -6 41 -23 72
-35 53 -21 56 -25 43 -40 -33 -36 -13 -66 49 -71 33 -3 40 0 47 19 6 17 3 27
-14 43 l-22 20 27 -10 c14 -5 35 -10 45 -10 20 0 144 -23 243 -45 36 -8 101
-22 145 -32 44 -9 85 -20 90 -24 6 -4 26 -11 45 -15 72 -15 126 -38 167 -71
23 -19 46 -34 51 -34 6 0 12 -4 14 -8 8 -21 68 15 118 71 30 34 75 72 100 84
25 12 54 30 65 40 11 10 45 30 75 45 31 14 64 36 74 47 11 12 23 21 28 21 11
0 115 70 143 97 11 10 61 43 110 72 50 30 92 57 95 60 3 3 32 24 64 46 33 22
64 45 70 51 14 13 93 64 101 64 3 0 5 -9 5 -19 0 -15 10 -21 42 -26 29 -5 43
-4 46 4 2 7 15 24 28 38 17 19 21 29 14 38 -12 15 -50 27 -50 16 0 -4 -12 -13
-26 -19 -39 -18 -19 4 39 42 29 19 70 53 91 75 22 22 43 38 48 35 4 -3 8 -1 8
4 0 14 88 64 100 57 6 -3 10 -12 10 -19 0 -7 19 -19 43 -26 23 -8 44 -17 47
-20 3 -4 30 -25 60 -47 51 -38 197 -177 247 -236 12 -14 29 -39 37 -54 8 -16
26 -40 40 -54 25 -26 76 -95 76 -104 0 -3 -4 -5 -10 -5 -18 0 -79 -75 -80 -97
0 -23 4 -25 76 -37 36 -6 74 2 74 16 0 5 -12 19 -26 31 -17 15 -23 28 -18 40
5 15 10 12 32 -20 14 -21 30 -42 34 -48 30 -39 55 -73 65 -91 13 -25 6 -33
-107 -121 -36 -28 -74 -61 -85 -73 -11 -12 -36 -30 -55 -40 -19 -10 -49 -31
-66 -47 -53 -48 -115 -95 -129 -97 -7 -1 -19 -7 -26 -13 -8 -6 -23 -13 -34
-17 -11 -3 -35 -19 -54 -35 -19 -17 -55 -40 -80 -53 -25 -12 -48 -25 -51 -29
-3 -3 -32 -23 -65 -44 -33 -21 -79 -51 -102 -66 -23 -16 -46 -29 -52 -29 -6 0
-11 -4 -11 -9 0 -5 -9 -11 -20 -14 -18 -5 -18 -4 -2 22 9 14 22 32 29 39 15
16 7 40 -15 44 -17 4 -91 -68 -92 -87 0 -15 13 -31 28 -36 13 -4 -113 -94
-328 -235 -52 -35 -117 -79 -143 -99 -65 -49 -73 -51 -99 -22 -56 61 -60 71
-43 103 16 31 20 63 8 65 -5 0 -18 2 -31 3 -14 2 -29 -5 -37 -18 -15 -20 -15
-20 -29 -1 -8 11 -10 22 -5 23 5 2 9 10 9 18 0 8 5 14 10 14 21 0 10 45 -14
56 -31 14 -56 0 -56 -32 l0 -25 -27 26 c-16 14 -51 41 -79 60 -46 31 -52 39
-52 69 0 19 -3 39 -7 45 -8 14 -46 14 -80 1 -19 -7 -33 -6 -53 4 -22 12 -26
21 -27 59 0 45 0 45 38 51 43 7 55 26 38 63 -10 21 -16 24 -42 19 -34 -7 -59
-27 -59 -50 0 -12 -5 -14 -23 -7 -16 6 -29 4 -42 -5 -16 -12 -18 -18 -7 -34 7
-11 10 -20 7 -20 -10 0 -129 61 -139 71 -6 5 -17 9 -25 9 -8 0 -44 14 -80 31
-112 53 -212 91 -227 85 -8 -3 -14 -1 -14 4 0 5 -27 19 -60 31 -57 20 -85 39
-60 39 23 0 22 32 -1 54 -22 21 -25 21 -51 7 -16 -9 -26 -21 -23 -28 6 -17
-13 -27 -28 -15 -7 5 -27 13 -45 17 -18 3 -30 11 -26 16 3 5 -7 27 -23 49 -21
30 -33 38 -48 33 -28 -8 -45 -23 -45 -40 0 -11 -6 -13 -22 -8 -13 4 -54 15
-93 24 -66 17 -68 19 -38 25 41 9 54 31 41 68 -12 34 -12 34 -66 6 -36 -20
-42 -27 -37 -47 5 -21 3 -23 -17 -18 -13 3 -57 13 -98 21 -75 17 -116 30 -243
81 -45 18 -65 31 -60 39 17 23 8 48 -22 60 -32 13 -78 10 -69 -5 11 -19 -70 4
-97 27 -8 8 -21 14 -28 14 -15 0 -125 77 -170 118 -18 18 -37 32 -41 32 -4 0
-15 12 -25 26 -14 22 -15 28 -4 35 8 5 22 6 31 3 11 -3 19 3 23 17 9 28 -15
48 -59 51 -43 2 -49 1 -68 -7 -12 -5 -24 6 -48 40 -30 44 -38 73 -10 40 15
-18 70 -20 71 -2 6 77 -12 113 -49 100 -25 -9 -52 -34 -52 -50 0 -24 -15 -14
-35 24 -11 20 -25 41 -30 47 -6 6 -16 22 -23 36 -27 52 -58 107 -74 133 -10
14 -18 28 -18 31 0 3 35 25 78 51 42 25 97 64 122 85 25 22 50 40 56 40 5 0
39 -30 75 -66z m685 -314 c1 -26 -1 -28 -17 -19 -16 8 -17 13 -6 29 16 27 22
25 23 -10z m528 -245 l16 -25 -27 12 c-38 17 -39 18 -23 28 8 6 16 10 16 10 1
0 9 -11 18 -25z m816 -895 c0 -5 -2 -10 -4 -10 -3 0 -8 5 -11 10 -3 6 -1 10 4
10 6 0 11 -4 11 -10z"/>
<path d="M1720 4083 c-36 -19 -68 -44 -72 -55 -11 -28 11 -57 37 -48 27 11 65
48 65 64 0 7 10 25 21 40 12 15 20 28 18 30 -2 1 -33 -13 -69 -31z"/>
<path d="M1499 4013 c-9 -2 -19 -18 -23 -35 -5 -24 -1 -35 16 -50 14 -12 24
-15 26 -8 2 6 21 20 43 30 40 21 44 27 31 46 -8 12 -68 23 -93 17z"/>
<path d="M1607 3899 c-29 -24 -37 -37 -35 -58 2 -20 9 -27 31 -29 15 -2 27 1
27 7 0 6 7 11 15 11 8 0 16 6 16 13 1 14 5 30 8 37 2 3 4 15 5 28 4 32 -22 28
-67 -9z"/>
<path d="M1547 3770 c-70 -55 -42 -138 36 -105 12 5 15 11 7 20 -7 8 -7 22 1
44 11 32 7 61 -9 61 -5 0 -21 -9 -35 -20z"/>
<path d="M1731 3777 c-31 -15 -37 -57 -13 -87 l19 -23 31 21 c16 12 37 22 46
22 22 0 20 36 -1 43 -10 4 -27 13 -38 21 -16 12 -25 13 -44 3z"/>
<path d="M2020 3701 c-14 -5 -39 -6 -55 -3 -19 2 -35 -1 -42 -10 -11 -14 -27
-86 -17 -75 4 4 13 2 20 -4 8 -6 21 -8 30 -5 13 5 15 2 11 -15 -13 -49 33 -90
83 -74 20 6 20 8 6 24 -24 27 -19 103 10 135 13 14 24 28 24 31 0 7 -39 5 -70
-4z"/>
<path d="M1794 3632 c-26 -16 -64 -87 -64 -116 1 -44 21 -66 61 -66 26 0 30 3
19 10 -12 8 -11 10 7 10 12 0 27 9 33 19 8 16 6 21 -10 26 -24 8 -24 15 -6 59
20 47 -4 82 -40 58z"/>
<path d="M1360 3587 c-40 -21 -102 -28 -155 -17 -39 8 -55 -1 -55 -30 0 -29 2
-30 45 -30 25 0 45 -3 45 -6 0 -4 -15 -45 -34 -93 -38 -94 -50 -141 -36 -141
6 0 5 -11 -1 -27 -11 -30 2 -51 39 -58 16 -3 27 5 43 28 12 18 35 46 52 64 29
31 29 31 49 11 27 -27 42 -18 46 25 4 45 35 69 89 69 24 0 53 9 79 26 78 50
80 52 66 58 -7 3 -21 14 -30 24 -16 17 -19 17 -69 -2 -29 -11 -53 -26 -53 -33
0 -8 -23 -20 -54 -29 -31 -9 -67 -29 -83 -45 -33 -33 -68 -47 -78 -31 -10 16
15 70 32 70 8 0 12 4 9 9 -4 5 7 12 24 16 17 4 30 13 30 21 0 16 48 63 65 64
14 0 45 37 45 54 0 15 -21 26 -48 26 -10 0 -37 -10 -62 -23z m-30 -93 c0 -2
-7 -4 -15 -4 -8 0 -15 4 -15 10 0 5 7 7 15 4 8 -4 15 -8 15 -10z"/>
<path d="M2117 3568 c-18 -14 -26 -65 -13 -86 13 -21 54 -14 72 14 16 24 16
27 -3 51 -24 33 -34 37 -56 21z"/>
<path d="M770 3501 c-5 -11 -10 -29 -10 -41 0 -17 -4 -20 -20 -15 -23 7 -50
-15 -50 -40 0 -9 9 -25 19 -36 l19 -21 40 26 c45 28 82 71 82 95 -1 45 -60 69
-80 32z"/>
<path d="M912 3490 c-12 -12 -22 -25 -22 -30 0 -18 -2 -25 -11 -41 -6 -12 -2
-19 16 -29 20 -11 22 -16 14 -33 -14 -25 6 -67 31 -67 13 0 19 -11 23 -42 7
-50 51 -102 67 -78 6 8 8 27 5 41 -3 14 -1 38 4 52 13 32 5 57 -18 57 -15 1
-15 2 1 13 9 7 18 24 20 37 3 22 -1 25 -32 26 -61 1 -70 4 -70 18 0 8 4 16 9
18 5 2 12 20 16 41 6 32 5 37 -12 37 -11 0 -29 -9 -41 -20z"/>
<path d="M1998 3443 c-52 -46 -56 -52 -65 -82 -13 -51 59 -61 97 -14 10 13 17
30 14 38 -3 7 4 27 16 43 23 31 20 52 -6 52 -7 0 -33 -17 -56 -37z"/>
<path d="M1760 3387 c-19 -7 -39 -13 -45 -13 -13 -1 -18 -29 -11 -60 6 -22 11
-25 48 -22 39 3 43 6 51 38 17 73 14 77 -43 57z"/>
<path d="M1534 3376 c-33 -7 -66 -16 -72 -20 -15 -9 -15 -41 -2 -67 17 -31 78
-22 117 17 11 11 30 86 21 83 -2 -1 -30 -7 -64 -13z"/>
<path d="M662 3314 c-64 -50 -62 -109 2 -101 27 3 31 7 32 35 0 17 8 40 17 50
13 14 14 21 5 30 -16 16 -18 16 -56 -14z"/>
<path d="M1931 3266 c-27 -10 -35 -18 -35 -37 0 -53 40 -66 85 -26 36 31 42
54 19 67 -23 12 -26 12 -69 -4z"/>
<path d="M824 3262 c-17 -11 -24 -55 -13 -72 9 -13 10 -12 5 3 -3 9 -1 17 4
17 6 0 10 -9 10 -19 0 -25 24 -33 58 -20 l27 11 -28 22 c-17 14 -27 30 -25 42
3 19 -19 29 -38 16z"/>
<path d="M1375 3226 c-36 -38 -49 -83 -32 -105 7 -8 12 -17 12 -20 0 -10 35
-2 77 19 28 13 28 40 1 40 -11 0 -13 6 -8 23 4 12 9 34 12 50 8 39 -21 36 -62
-7z"/>
<path d="M412 3202 c-25 -35 -35 -91 -21 -108 13 -16 84 -19 74 -4 -3 6 -1 10
4 10 13 0 15 37 2 44 -5 4 -7 19 -5 35 4 22 0 32 -15 40 -16 9 -23 6 -39 -17z"/>
<path d="M1818 3175 c-41 -45 -51 -70 -33 -85 28 -23 60 -4 82 50 21 48 21 51
3 60 -15 8 -25 3 -52 -25z"/>
<path d="M2122 3185 c-29 -24 -39 -65 -26 -109 5 -15 12 -17 48 -12 22 4 64
14 92 23 42 13 50 19 47 34 -3 11 -15 19 -27 20 -14 0 -1 10 38 29 54 26 57
29 34 35 -14 4 -49 0 -77 -9 -45 -13 -53 -13 -58 -1 -8 22 -38 18 -71 -10z"/>
<path d="M1698 3177 c-92 -54 -124 -109 -68 -115 31 -3 130 87 130 118 0 25
-15 24 -62 -3z"/>
<path d="M603 3140 c-13 -15 -23 -40 -23 -54 0 -22 4 -26 31 -26 16 0 28 4 24
9 -3 5 1 16 9 24 27 26 22 78 -7 76 -7 0 -22 -13 -34 -29z"/>
<path d="M1910 3130 c-44 -44 -14 -74 73 -72 71 2 93 15 54 33 -15 7 -27 16
-27 21 0 8 -60 38 -75 38 -3 0 -14 -9 -25 -20z"/>
<path d="M825 3100 c-22 -16 -50 -29 -61 -30 -18 0 -22 -6 -22 -35 0 -20 9
-46 20 -60 20 -25 20 -26 2 -41 -11 -8 -27 -19 -36 -25 -19 -10 -24 -54 -8
-64 13 -8 13 -35 0 -35 -6 0 -16 12 -23 28 -13 30 -46 61 -64 62 -22 0 -25
-20 -12 -90 10 -60 15 -69 37 -75 18 -4 32 0 52 20 21 20 32 24 58 19 18 -4
33 -3 33 2 1 5 3 22 5 38 4 40 14 46 14 8 0 -50 71 -92 99 -58 9 11 6 18 -14
34 -30 23 -32 59 -10 142 17 65 9 78 -34 57 -30 -15 -31 -15 -31 7 0 14 17 38
46 64 70 63 28 90 -51 32z"/>
<path d="M2308 3078 c-41 -26 -48 -36 -48 -63 0 -38 31 -58 67 -42 26 11 66
88 61 114 -5 27 -28 24 -80 -9z"/>
<path d="M1186 3084 c-25 -24 -31 -63 -13 -81 14 -14 19 -14 50 1 19 9 39 16
45 16 12 0 24 29 16 41 -3 5 -13 9 -24 9 -10 0 -20 7 -24 15 -7 19 -30 19 -50
-1z"/>
<path d="M957 3062 c-13 -3 -17 -11 -15 -30 4 -34 43 -47 97 -32 47 12 54 37
14 45 -16 3 -39 9 -53 13 -14 4 -33 6 -43 4z"/>
<path d="M1950 3004 c-19 -12 -40 -23 -46 -23 -7 -1 -15 -9 -18 -18 -5 -12 -9
-14 -18 -5 -7 7 -20 12 -29 12 -9 0 -19 7 -23 15 -6 18 -29 15 -74 -9 -21 -11
-32 -23 -28 -31 3 -8 0 -15 -6 -17 -22 -8 31 -49 56 -44 23 4 24 3 15 -27 -5
-18 -10 -61 -11 -96 -1 -55 2 -66 21 -80 12 -9 33 -18 48 -19 23 -2 25 0 18
26 -9 33 -15 144 -8 155 3 5 12 -1 20 -13 22 -32 61 -43 97 -29 17 7 32 13 34
14 9 7 -15 38 -34 46 -13 4 -24 14 -24 20 0 8 4 8 13 1 7 -6 30 -9 52 -7 22 1
46 3 53 4 26 2 10 30 -23 41 -34 11 -46 32 -25 45 16 10 11 44 -7 53 -13 7
-28 3 -53 -14z"/>
<path d="M2094 3005 c-23 -35 -15 -69 17 -73 22 -3 27 2 32 23 11 59 -21 92
-49 50z"/>
<path d="M1438 2986 c-10 -7 -18 -21 -18 -30 0 -9 -4 -16 -10 -16 -5 0 -10 -8
-10 -18 0 -10 -11 -25 -25 -32 -16 -8 -25 -22 -25 -36 0 -32 38 -41 79 -20
l31 16 -18 -32 c-27 -47 -34 -117 -15 -136 13 -14 13 -17 -9 -33 -12 -10 -29
-19 -37 -19 -11 0 -11 -3 0 -16 10 -12 10 -17 0 -23 -9 -6 -5 -14 15 -30 15
-12 32 -20 38 -18 20 7 63 80 58 99 -3 14 2 18 26 18 17 0 33 4 37 9 3 5 30
21 61 35 73 34 63 48 -32 44 -40 -1 -77 2 -82 7 -5 6 -5 29 0 53 9 41 10 42
31 27 38 -26 71 -17 131 37 39 35 26 50 -43 50 -61 -1 -91 -15 -91 -45 0 -13
-3 -17 -8 -11 -4 7 -18 14 -32 15 -26 4 -27 9 -17 82 6 40 -4 47 -35 23z"/>
<path d="M1233 2935 c-7 -8 -19 -17 -27 -22 -24 -13 -24 -63 -1 -79 17 -11 24
-11 45 1 14 8 33 18 43 21 20 7 24 54 4 54 -7 0 -18 9 -25 20 -14 23 -22 24
-39 5z"/>
<path d="M2456 2943 c-3 -4 -25 -7 -48 -7 -49 -1 -67 -22 -53 -62 16 -44 39
-52 82 -29 54 29 61 37 55 73 -4 30 -20 41 -36 25z"/>
<path d="M1004 2900 c-31 -12 -38 -60 -12 -82 35 -31 60 -19 73 33 4 18 1 31
-10 43 -18 18 -21 18 -51 6z"/>
<path d="M2118 2903 c-21 -5 -33 -55 -19 -82 6 -11 11 -41 11 -66 0 -36 5 -51
22 -64 19 -16 20 -21 9 -48 -17 -42 -17 -91 0 -109 20 -19 77 -35 84 -23 4 5
1 9 -4 9 -6 0 -11 7 -11 15 0 8 -4 15 -10 15 -16 0 -11 38 14 125 13 44 21 84
19 88 -3 5 -16 7 -29 4 -16 -3 -24 0 -24 9 0 8 -4 14 -10 14 -19 0 -10 17 18
31 33 17 42 28 42 53 0 12 -5 16 -16 12 -8 -3 -25 -1 -37 6 -26 14 -36 16 -59
11z"/>
<path d="M2597 2813 c-2 -5 -7 -20 -10 -34 -5 -21 -2 -28 19 -37 14 -7 31 -12
39 -12 29 0 15 -19 -22 -30 -21 -7 -42 -16 -48 -21 -5 -5 -16 -9 -25 -9 -21 0
-46 -86 -29 -106 23 -28 46 -24 105 14 76 50 104 58 104 28 0 -33 26 -63 52
-60 13 1 38 3 56 3 21 1 32 6 32 16 0 21 -38 38 -72 31 -26 -5 -29 -3 -23 14
9 27 -3 60 -21 60 -8 0 -14 5 -14 12 0 9 -3 9 -12 0 -20 -20 -40 -15 -28 7 13
26 13 31 -4 31 -9 0 -12 8 -8 25 7 37 -22 75 -58 75 -16 0 -31 -3 -33 -7z"/>
<path d="M1297 2792 c-21 -23 -22 -46 -2 -62 20 -16 47 -9 60 17 6 11 16 27
23 35 6 8 9 18 5 21 -13 14 -70 6 -86 -11z"/>
<path d="M1940 2766 c-31 -14 -34 -29 -11 -50 21 -19 69 -13 78 10 3 8 13 14
22 14 10 1 5 7 -14 17 -39 22 -46 23 -75 9z"/>
<path d="M2310 2761 c-16 -31 -12 -49 15 -67 39 -25 122 -13 184 28 28 18 51
36 51 41 0 11 -39 8 -105 -8 -80 -19 -92 -19 -98 5 -7 25 -33 26 -47 1z"/>
<path d="M1014 2737 c-33 -34 -58 -83 -51 -101 9 -24 40 -20 95 13 49 29 49
29 38 5 -6 -14 -20 -24 -32 -24 -34 0 -56 -23 -52 -55 4 -38 31 -44 68 -16 15
11 39 23 52 26 47 12 104 85 67 85 -6 0 -9 6 -6 14 3 8 -1 20 -9 27 -13 10
-20 10 -36 0 -18 -11 -20 -11 -14 4 6 15 2 17 -33 11 -36 -5 -39 -4 -34 14 7
28 -25 26 -53 -3z"/>
<path d="M1897 2582 c-34 -36 -35 -65 -1 -81 24 -10 29 -8 67 30 l41 41 -24
19 c-34 26 -52 24 -83 -9z"/>
<path d="M2298 2589 c-21 -12 -23 -47 -4 -72 16 -21 57 -17 82 7 8 9 21 16 29
16 7 0 15 7 19 15 4 10 -6 17 -37 25 -23 6 -49 13 -57 15 -8 2 -23 0 -32 -6z"/>
<path d="M1236 2574 c-19 -19 -20 -36 -4 -52 32 -32 80 8 58 48 -13 24 -33 26
-54 4z"/>
<path d="M1630 2551 c-17 -15 -30 -38 -30 -50 0 -19 -6 -21 -49 -21 -28 0 -53
-4 -56 -10 -3 -5 -19 -10 -34 -10 -16 0 -34 -6 -40 -13 -6 -8 -23 -12 -38 -10
-40 6 -123 -50 -123 -83 0 -13 9 -28 21 -34 17 -10 27 -7 60 16 22 15 42 30
44 34 2 4 24 5 47 3 35 -3 50 1 77 21 19 14 40 26 47 26 7 0 22 11 32 25 12
15 23 21 27 15 11 -18 45 -11 73 15 41 38 45 30 15 -27 -15 -29 -29 -59 -32
-66 -3 -7 -30 -24 -59 -37 l-54 -25 7 29 c8 38 -5 44 -46 24 -49 -23 -79 -53
-79 -79 0 -35 26 -47 77 -32 4 1 18 -3 31 -10 27 -16 50 -5 107 49 22 21 41
34 43 29 5 -13 52 -1 74 18 17 14 17 12 2 -31 -18 -52 -7 -87 26 -87 23 0 37
15 73 75 27 46 29 47 67 42 24 -3 46 0 57 8 11 8 25 10 39 4 15 -5 26 -4 33 5
6 7 32 21 57 31 61 23 51 40 -26 41 -49 1 -66 -2 -82 -18 -19 -19 -19 -19 -44
1 -13 10 -32 18 -42 16 -9 -2 -22 -4 -28 -4 -6 -1 -17 -14 -24 -31 -13 -30
-24 -37 -34 -21 -3 5 1 14 10 21 22 19 0 29 -47 23 -22 -3 -39 -2 -39 3 0 5
11 28 24 51 17 30 21 44 13 52 -15 15 -32 14 -47 -4 -14 -17 -35 -21 -25 -5 3
6 -5 14 -18 19 -13 5 -27 17 -30 25 -9 23 -23 20 -57 -13z"/>
<path d="M2968 2537 c-18 -18 -44 -55 -57 -82 -22 -45 -23 -49 -7 -61 16 -11
58 -7 85 10 9 6 51 133 51 155 0 22 -40 10 -72 -22z"/>
<path d="M2576 2494 c-37 -19 -57 -24 -85 -19 -30 5 -38 2 -49 -15 -11 -18
-11 -25 2 -45 13 -20 20 -22 43 -15 78 23 131 56 158 97 14 21 14 23 -2 23
-10 -1 -40 -12 -67 -26z"/>
<path d="M3311 2503 c-37 -25 -18 -83 26 -83 27 0 63 28 63 49 0 36 -56 58
-89 34z"/>
<path d="M1188 2452 c-15 -10 -41 -35 -58 -57 -17 -22 -39 -44 -47 -49 -13 -7
-15 -4 -9 18 9 35 -7 34 -74 -7 -45 -26 -56 -38 -58 -63 -2 -24 2 -33 23 -42
36 -17 56 -15 71 6 13 16 13 16 14 -1 0 -9 11 -23 25 -29 22 -10 29 -8 55 17
17 16 30 37 30 47 0 10 16 50 36 89 39 76 36 100 -8 71z"/>
<path d="M2190 2428 c0 -21 8 -43 21 -57 l21 -22 22 20 c12 12 27 21 33 21 17
0 55 38 48 49 -3 6 -16 10 -28 10 -12 -1 -43 2 -69 6 l-48 8 0 -35z"/>
<path d="M2753 2427 c-40 -40 -42 -63 -8 -79 36 -16 67 15 69 68 1 50 -19 54
-61 11z"/>
<path d="M3095 2400 c-10 -22 -15 -43 -12 -46 4 -4 -5 -15 -18 -26 -29 -22
-32 -50 -9 -69 13 -11 21 -10 49 5 18 10 37 28 42 39 6 12 28 28 49 36 40 14
66 39 57 54 -2 4 -27 4 -55 1 -44 -6 -50 -5 -45 8 6 17 -10 38 -28 38 -7 0
-20 -18 -30 -40z"/>
<path d="M3330 2367 c-19 -15 -18 -66 1 -78 26 -16 47 -9 69 21 24 34 21 60
-9 60 -11 0 -25 2 -33 5 -7 2 -20 -1 -28 -8z"/>
<path d="M2438 2358 c-36 -12 -40 -61 -7 -79 17 -9 33 -6 85 18 60 26 79 48
52 58 -30 10 -105 11 -130 3z"/>
<path d="M2365 2328 c-4 -10 -11 -15 -16 -12 -20 12 -74 -111 -62 -142 6 -15
43 -19 59 -6 5 5 29 14 54 21 25 7 58 17 73 23 39 15 16 28 -52 28 -47 0 -52
2 -46 18 15 36 17 51 7 69 -10 17 -11 17 -17 1z"/>
<path d="M2023 2314 c-18 -7 -39 -27 -48 -43 -13 -27 -13 -31 1 -46 21 -21 51
-11 87 29 29 32 33 69 7 73 -8 1 -29 -5 -47 -13z"/>
<path d="M2877 2319 c-13 -7 -15 -17 -11 -37 9 -35 22 -43 51 -29 29 13 31 52
4 67 -23 12 -22 12 -44 -1z"/>
<path d="M3456 2314 c-22 -21 -20 -43 4 -64 18 -16 19 -20 5 -47 -8 -16 -17
-45 -19 -64 -3 -19 -5 -39 -6 -44 -5 -24 2 -34 33 -44 18 -6 37 -21 42 -33 15
-33 59 -34 83 -3 17 21 19 32 11 58 -5 17 -9 33 -9 33 0 1 -7 4 -15 8 -8 3
-21 -2 -30 -10 -8 -8 -19 -12 -25 -9 -22 14 -3 130 26 160 14 14 12 18 -14 45
-34 33 -63 38 -86 14z"/>
<path d="M3630 2283 c-32 -62 -33 -107 -3 -111 18 -3 21 -8 16 -37 -4 -26 -1
-35 15 -44 11 -6 22 -21 26 -35 3 -14 15 -25 30 -28 22 -4 56 11 56 26 0 4 11
24 25 44 31 46 33 66 4 57 -13 -4 -27 -1 -39 10 -12 11 -26 14 -46 9 -26 -7
-28 -6 -15 9 9 11 28 17 57 17 33 0 46 5 58 22 13 19 14 24 2 30 -8 4 -17 19
-20 33 -8 32 -29 32 -56 -2 -23 -29 -36 -23 -42 17 -2 16 -10 26 -23 28 -16 2
-27 -9 -45 -45z"/>
<path d="M2688 2294 c-54 -29 -44 -84 16 -84 29 0 33 4 43 42 6 24 11 43 10
44 -13 10 -48 9 -69 -2z"/>
<path d="M2160 2289 c-45 -18 -57 -72 -17 -83 37 -10 41 -8 97 44 l54 50 -54
-1 c-30 0 -66 -5 -80 -10z"/>
<path d="M3129 2240 c-8 -11 -28 -22 -44 -24 -71 -7 -93 -42 -55 -84 21 -23
33 -21 85 10 17 10 38 18 48 18 20 0 57 34 57 54 0 7 -15 21 -34 30 -42 20
-41 20 -57 -4z"/>
<path d="M2905 2207 c-51 -29 -61 -67 -18 -67 17 0 33 8 41 20 7 11 17 20 22
20 12 0 50 32 50 42 0 16 -56 7 -95 -15z"/>
<path d="M1205 2197 c-51 -29 -56 -66 -10 -82 17 -5 34 -15 38 -22 18 -28 87
-6 87 27 0 11 6 20 13 20 12 0 37 39 37 57 0 9 -74 -8 -89 -20 -11 -9 -13 -9
-8 0 9 15 -2 43 -17 43 -6 0 -29 -11 -51 -23z"/>
<path d="M1530 2192 c-47 -15 -68 -84 -35 -112 27 -22 47 -7 61 45 13 54 4 78
-26 67z"/>
<path d="M1810 2189 c-8 -5 -27 -13 -42 -18 -23 -9 -26 -14 -19 -38 6 -22 14
-29 38 -31 25 -2 35 3 52 26 12 17 21 35 21 41 0 16 -33 30 -50 20z"/>
<path d="M3292 2173 c-33 -14 -52 -60 -30 -74 21 -14 52 -10 78 8 29 19 60 53
60 63 0 14 -77 16 -108 3z"/>
<path d="M1376 2161 c-19 -20 -14 -61 6 -61 6 0 -1 -9 -16 -21 -14 -11 -26
-25 -26 -30 0 -6 -7 -17 -15 -25 -26 -26 -30 -63 -9 -79 29 -22 42 -18 89 29
48 46 53 56 32 56 -23 0 -35 52 -19 77 16 26 9 73 -12 73 -7 0 -21 -9 -30 -19z"/>
<path d="M2709 2173 c-15 -2 -39 -17 -55 -34 -28 -29 -54 -38 -54 -19 0 6 -12
10 -26 10 -15 0 -32 7 -39 16 -21 30 -88 -10 -99 -59 -5 -23 -2 -29 18 -39 19
-8 29 -8 40 1 10 8 16 9 21 1 3 -5 14 -10 24 -10 10 0 24 -7 31 -15 19 -23 46
-18 72 13 12 15 42 36 66 46 46 21 72 49 72 78 0 18 -12 20 -71 11z"/>
<path d="M1630 2157 c-45 -23 -33 -95 17 -97 21 0 55 59 49 85 -7 28 -28 31
-66 12z"/>
<path d="M3870 2142 c-19 -6 -74 -62 -82 -83 -4 -9 -1 -22 5 -28 21 -21 47
-11 77 31 40 55 40 94 0 80z"/>
<path d="M2076 2133 c-4 -4 -18 -9 -32 -11 -15 -1 -38 -10 -53 -19 -100 -61
-116 -78 -105 -108 8 -21 61 -19 73 3 9 14 12 14 19 4 8 -12 15 -11 41 3 39
20 50 44 27 57 -15 9 -14 13 14 40 17 16 30 32 27 34 -2 2 -7 1 -11 -3z"/>
<path d="M2162 2105 c-32 -33 -46 -84 -31 -112 20 -37 60 -38 120 -4 l52 29
-39 11 c-22 6 -45 11 -51 11 -9 0 -10 7 -3 26 7 17 7 32 0 45 -14 25 -20 24
-48 -6z"/>
<path d="M1161 2101 c-7 -5 -15 -29 -18 -54 -5 -40 -2 -47 19 -61 23 -15 27
-14 66 4 53 26 58 57 10 62 -21 2 -33 8 -33 18 -1 18 -13 40 -23 40 -4 0 -13
-4 -21 -9z"/>
<path d="M2983 2088 c-33 -37 -36 -67 -6 -79 32 -12 99 7 119 35 20 29 18 36
-12 36 -14 0 -32 7 -40 15 -21 21 -37 19 -61 -7z"/>
<path d="M2700 2054 c-14 -35 -13 -42 9 -54 38 -20 54 -13 47 21 -5 28 -27 59
-41 59 -3 0 -10 -12 -15 -26z"/>
<path d="M3312 2049 c-23 -17 -48 -32 -55 -33 -25 -4 -37 -18 -37 -46 0 -31
14 -40 67 -40 36 0 72 30 73 61 0 8 5 20 11 26 12 12 4 63 -9 63 -5 0 -27 -14
-50 -31z"/>
<path d="M2410 1987 c-30 -15 -38 -51 -16 -73 23 -22 59 -14 74 18 11 23 10
30 -5 48 -20 23 -20 23 -53 7z"/>
<path d="M2591 1977 c-56 -39 -26 -99 34 -67 13 7 25 20 28 29 3 9 8 25 12 36
5 11 5 17 0 13 -4 -4 -15 -3 -25 2 -12 6 -26 3 -49 -13z"/>
<path d="M2854 1985 c-37 -16 -45 -31 -33 -62 13 -34 49 -29 79 11 14 19 25
40 25 47 0 19 -34 21 -71 4z"/>
<path d="M3720 1981 c0 -6 5 -13 10 -16 6 -3 10 1 10 9 0 9 -4 16 -10 16 -5 0
-10 -4 -10 -9z"/>
<path d="M3031 1921 c-23 -31 -40 -63 -39 -71 4 -17 58 -27 58 -11 0 6 8 11
18 11 25 0 84 38 77 50 -3 5 -1 19 5 30 15 28 4 43 -21 30 -11 -6 -19 -7 -19
-2 0 6 -9 12 -19 15 -14 3 -29 -10 -60 -52z"/>
<path d="M1703 1960 c-32 -13 -32 -62 1 -79 47 -26 85 13 65 67 -9 23 -29 27
-66 12z"/>
<path d="M2695 1910 c-14 -8 -25 -23 -25 -33 0 -21 37 -97 48 -98 4 0 15 -2
24 -4 19 -3 88 54 88 73 0 7 -13 12 -30 12 -29 0 -42 21 -20 35 5 3 7 12 4 20
-7 18 -56 15 -89 -5z"/>
<path d="M2133 1902 c-6 -4 -16 -19 -22 -34 -8 -21 -6 -29 8 -42 22 -20 30
-20 60 3 19 15 22 23 16 49 -5 24 -12 32 -28 32 -12 0 -27 -4 -34 -8z"/>
<path d="M2255 1864 c-44 -53 -86 -135 -83 -164 2 -18 10 -26 26 -28 49 -7
132 43 132 80 0 21 -7 22 -40 3 -37 -21 -41 -18 -22 15 11 18 20 26 26 20 6
-6 19 -10 30 -10 31 0 169 50 186 67 8 9 9 13 3 9 -7 -4 -13 -2 -13 3 0 13
-99 14 -152 2 -34 -8 -37 -7 -35 12 3 35 -26 30 -58 -9z"/>
<path d="M1908 1862 c-22 -15 -25 -20 -15 -37 22 -41 64 -56 96 -36 21 13 5
66 -25 80 -30 13 -24 14 -56 -7z"/>
<path d="M1808 1806 c-17 -18 -28 -22 -38 -15 -35 22 -100 0 -100 -34 0 -45
35 -61 81 -36 15 8 24 7 35 -2 20 -16 69 5 60 26 -3 8 1 30 10 50 13 33 13 35
-5 35 -10 0 -29 -11 -43 -24z"/>
<path d="M3277 1823 c-14 -3 -17 -13 -15 -36 4 -40 35 -47 85 -20 49 26 43 57
-12 60 -22 0 -48 -1 -58 -4z"/>
<path d="M2616 1795 c-10 -8 -20 -27 -22 -43 -3 -23 2 -31 22 -41 14 -6 30 -9
35 -6 5 4 9 -2 9 -12 1 -24 34 -63 54 -63 43 0 39 90 -4 97 -31 5 -35 10 -21
26 11 14 6 46 -8 48 -3 0 -15 2 -26 4 -11 2 -28 -2 -39 -10z"/>
<path d="M2875 1756 c-27 -58 -31 -91 -15 -101 6 -4 10 -16 9 -28 -6 -72 21
-96 88 -78 51 14 64 38 25 47 -56 12 -54 8 -51 111 4 86 2 98 -13 101 -13 2
-24 -11 -43 -52z"/>
<path d="M3014 1788 c-41 -10 -56 -30 -52 -65 2 -22 9 -29 32 -31 17 -2 35 3
47 15 10 10 25 24 34 31 37 31 -5 66 -61 50z"/>
<path d="M3192 1748 c-17 -17 -15 -47 3 -54 21 -8 40 10 43 40 2 28 -24 36
-46 14z"/>
<path d="M2458 1715 c-3 -3 -16 -8 -29 -10 -13 -3 -46 -13 -74 -23 -51 -18
-67 -41 -45 -67 10 -12 18 -12 58 1 26 7 48 14 50 14 1 0 -1 -8 -7 -17 -11
-23 -16 -63 -8 -83 3 -8 7 -22 9 -30 7 -24 136 -21 171 4 37 27 38 73 2 82
-16 4 -33 1 -43 -7 -20 -16 -59 -39 -67 -39 -3 0 -5 15 -5 33 0 24 6 35 23 42
22 10 37 55 18 55 -5 0 -11 10 -13 22 -3 22 -27 35 -40 23z"/>
<path d="M3115 1624 c-26 -28 -30 -42 -17 -59 9 -14 51 -17 73 -5 47 26 66 70
28 70 -11 0 -29 5 -40 10 -16 9 -24 6 -44 -16z"/>
<path d="M2655 1564 c-28 -30 -32 -66 -11 -84 29 -23 120 40 101 70 -4 6 -10
8 -15 5 -4 -3 -10 4 -13 15 -7 28 -33 25 -62 -6z"/>
<path d="M589 2000 c-11 -6 -15 -18 -11 -35 4 -22 9 -26 36 -23 24 2 32 8 34
27 5 35 -25 51 -59 31z"/>
<path d="M4170 1993 c-47 -18 -66 -42 -65 -82 1 -30 7 -45 23 -57 29 -20 41
-11 37 27 -4 32 -2 34 56 43 19 4 44 12 54 20 18 13 16 15 -23 27 -23 6 -42
16 -42 21 0 9 -17 9 -40 1z"/>
<path d="M820 1952 c-44 -20 -60 -38 -60 -67 0 -17 6 -40 14 -50 12 -16 16
-17 30 -6 9 7 16 23 16 35 0 13 11 33 25 46 41 38 25 64 -25 42z"/>
<path d="M568 1919 c-10 -5 -18 -6 -18 -2 -1 4 -7 -3 -15 -17 -19 -35 -3 -50
56 -50 45 0 49 2 49 24 0 14 -10 30 -25 40 -28 19 -25 18 -47 5z"/>
<path d="M4318 1894 c-25 -13 -34 -31 -29 -58 4 -20 -31 -45 -52 -37 -49 17
-85 -23 -53 -58 15 -17 76 -28 76 -14 0 5 17 8 37 8 33 0 38 3 37 23 0 12 3
22 8 22 4 0 8 6 8 14 0 56 51 -15 54 -74 1 -24 5 -30 20 -28 39 6 48 121 12
142 -36 20 -55 40 -49 49 6 10 -15 27 -32 26 -5 0 -22 -7 -37 -15z"/>
<path d="M4024 1886 c-12 -31 0 -51 31 -51 27 0 30 3 30 30 0 25 -4 30 -28 33
-17 2 -29 -2 -33 -12z"/>
<path d="M916 1848 c-24 -13 -20 -64 6 -82 20 -14 24 -14 50 12 15 15 28 34
28 43 0 20 -61 40 -84 27z"/>
<path d="M1055 1792 c-26 -19 -47 -114 -27 -125 4 -3 16 -1 26 3 25 9 59 103
43 119 -13 13 -28 14 -42 3z"/>
<path d="M743 1775 c-26 -29 -3 -65 41 -65 20 0 36 32 29 58 -6 26 -50 30 -70
7z"/>
<path d="M837 1719 c-29 -15 -38 -25 -35 -42 4 -30 37 -32 72 -3 21 18 26 29
21 45 -8 25 -10 25 -58 0z"/>
<path d="M3989 1704 c-18 -22 27 -109 59 -110 12 -1 22 4 22 11 0 7 14 15 30
19 17 3 30 12 30 19 0 28 -73 77 -114 77 -8 0 -19 -7 -27 -16z"/>
<path d="M4278 1673 c-9 -3 -20 -12 -23 -22 -7 -22 20 -77 30 -61 4 6 13 9 21
6 14 -5 19 11 14 44 -2 22 -22 37 -42 33z"/>
<path d="M1148 1663 c-9 -2 -20 -13 -23 -23 -7 -22 12 -63 24 -55 5 2 16 -6
25 -20 16 -24 18 -25 47 -9 20 10 29 20 25 31 -3 8 -9 26 -12 39 -9 36 -40 49
-86 37z"/>
<path d="M3722 1630 c-12 -12 -22 -27 -22 -36 0 -22 39 -32 77 -21 35 11 41
30 19 60 -18 23 -47 22 -74 -3z"/>
<path d="M4510 1632 c-22 -19 -18 -62 6 -62 9 0 14 -11 14 -29 0 -16 7 -36 15
-45 11 -11 13 -21 5 -40 -17 -46 14 -80 44 -47 25 28 32 79 11 87 -9 4 -12 10
-7 13 5 3 7 31 5 62 -5 54 -7 57 -39 67 -28 8 -38 7 -54 -6z"/>
<path d="M3878 1595 c-48 -42 -31 -75 38 -75 48 0 65 21 33 43 -11 8 -19 18
-18 23 7 40 -14 44 -53 9z"/>
<path d="M4366 1598 c-21 -12 -21 -45 2 -57 20 -11 69 7 90 32 14 17 13 17
-59 31 -9 2 -24 -1 -33 -6z"/>
<path d="M968 1559 c-10 -5 -18 -17 -18 -24 0 -8 -4 -15 -9 -15 -4 0 -6 -11
-3 -25 2 -14 10 -25 17 -25 8 0 22 -10 32 -23 10 -13 27 -28 38 -35 17 -9 23
-7 41 15 l21 27 7 -37 c6 -33 26 -53 26 -27 0 6 6 10 14 10 8 0 19 13 24 29 9
24 7 32 -9 47 -15 14 -24 15 -43 6 -13 -6 -27 -8 -31 -4 -4 4 -11 7 -17 7 -6
0 -12 16 -14 34 -6 48 -36 64 -76 40z"/>
<path d="M1263 1563 c-21 -8 -15 -46 11 -75 22 -27 24 -27 40 -10 19 22 21 63
4 80 -12 12 -33 14 -55 5z"/>
<path d="M1395 1560 c-10 -17 18 -42 38 -34 18 6 24 34 8 34 -5 0 -16 3 -24 6
-8 3 -18 0 -22 -6z"/>
<path d="M4654 1516 c-8 -34 12 -68 39 -64 18 2 21 9 19 33 -3 28 -25 55 -44
55 -4 0 -10 -11 -14 -24z"/>
<path d="M3549 1523 c0 -5 -2 -17 -4 -28 -4 -22 10 -35 41 -35 27 0 38 35 17
55 -15 16 -52 21 -54 8z"/>
<path d="M4025 1512 c-16 -9 -31 -20 -33 -24 -2 -5 -10 -8 -18 -8 -8 0 -24 -9
-36 -20 -19 -17 -20 -23 -9 -46 10 -22 16 -25 39 -19 34 8 112 88 112 115 0
24 -15 25 -55 2z"/>
<path d="M4267 1507 c-8 -22 3 -57 19 -57 8 0 14 -4 14 -8 0 -5 7 -9 15 -9 19
0 31 45 18 66 -13 21 -59 26 -66 8z"/>
<path d="M4130 1485 c-18 -21 3 -70 26 -61 9 3 27 6 40 6 17 0 24 6 24 19 0
36 -68 63 -90 36z"/>
<path d="M1456 1475 c-3 -8 -3 -28 0 -44 6 -27 8 -28 46 -21 54 10 64 29 31
57 -30 26 -68 30 -77 8z"/>
<path d="M3728 1456 c-27 -25 -35 -40 -31 -55 7 -28 17 -33 48 -25 15 4 25 13
25 25 0 10 9 24 21 33 12 8 19 22 17 33 -6 31 -40 26 -80 -11z"/>
<path d="M4422 1418 c-19 -19 -14 -44 13 -62 22 -14 25 -15 25 -1 0 8 7 15 15
15 13 0 14 4 4 23 -20 36 -38 44 -57 25z"/>
<path d="M1246 1409 c-3 -8 -6 -21 -8 -29 -4 -20 70 -92 85 -84 8 5 8 3 0 -7
-20 -20 -16 -56 6 -62 26 -6 110 3 117 14 2 4 2 20 -2 34 -5 22 -11 25 -53 26
-45 0 -45 0 -23 16 33 23 29 53 -7 53 -17 0 -34 8 -42 20 -18 25 -67 37 -73
19z"/>
<path d="M3527 1382 c-19 -21 -4 -46 36 -61 23 -9 28 -7 38 10 15 28 6 45 -29
57 -25 8 -33 7 -45 -6z"/>
<path d="M4068 1373 c-31 -8 -35 -64 -5 -63 19 1 57 37 57 54 0 16 -17 18 -52
9z"/>
<path d="M3295 1353 c-46 -24 -65 -44 -65 -70 0 -21 4 -23 48 -23 27 0 57 6
67 14 13 9 25 11 37 5 9 -5 25 -6 35 -2 13 5 -40 -47 -66 -64 -2 -1 -1 -14 3
-28 5 -20 13 -25 37 -25 26 0 30 3 26 19 -3 12 4 28 18 41 13 12 21 29 18 37
-4 9 2 16 16 20 28 7 27 30 -1 39 -13 3 -30 12 -38 19 -8 7 -23 11 -32 10 -10
-2 -18 3 -18 11 0 18 -46 17 -85 -3z"/>
<path d="M3823 1352 c-19 -12 -4 -50 22 -56 29 -7 75 9 75 26 0 25 -71 47 -97
30z"/>
<path d="M1544 1326 c-33 -7 -66 -16 -72 -20 -19 -11 -14 -45 8 -58 11 -7 20
-20 20 -28 0 -26 15 -39 51 -45 24 -4 40 -1 47 8 16 18 4 53 -21 65 -21 9 -20
11 18 27 22 9 48 25 57 35 15 16 15 19 2 24 -20 8 -35 6 -110 -8z"/>
<path d="M3703 1313 c-34 -13 3 -83 43 -83 12 0 60 68 53 74 -8 7 -85 14 -96
9z"/>
<path d="M3931 1291 c-19 -27 -20 -31 -5 -45 16 -17 41 -20 68 -10 17 7 22 34
7 34 -5 0 -11 10 -13 22 -5 34 -33 33 -57 -1z"/>
<path d="M4130 1280 c-8 -15 -7 -26 6 -45 16 -24 54 -35 54 -16 0 5 10 11 22
13 31 4 34 26 4 34 -14 3 -30 12 -37 20 -16 20 -36 17 -49 -6z"/>
<path d="M2121 1265 c-16 -16 -22 -30 -18 -45 3 -13 0 -23 -9 -27 -25 -9 -14
-73 12 -73 8 0 14 -4 14 -9 0 -15 32 -22 46 -10 16 13 19 65 4 74 -12 7 -14
26 -2 24 35 -6 62 3 62 19 0 22 -30 52 -51 52 -8 0 -19 4 -24 9 -6 5 -20 -1
-34 -14z"/>
<path d="M4350 1265 c-17 -21 -5 -45 24 -45 27 0 42 26 25 46 -15 18 -33 18
-49 -1z"/>
<path d="M4600 1266 c-17 -22 -5 -66 19 -66 10 0 32 5 50 11 23 8 31 17 31 35
0 20 -5 24 -29 24 -16 0 -36 2 -44 5 -7 3 -20 -1 -27 -9z"/>
<path d="M4738 1246 c-10 -7 -18 -25 -18 -39 0 -37 43 -48 71 -19 22 24 24 43
7 60 -16 16 -39 15 -60 -2z"/>
<path d="M2287 1228 c-14 -10 -17 -23 -13 -52 3 -22 11 -43 18 -48 21 -13 43
-4 43 17 0 11 11 30 25 42 26 22 25 31 -6 37 -11 3 -26 7 -34 10 -9 4 -23 1
-33 -6z"/>
<path d="M4472 1214 c-12 -8 -22 -26 -22 -40 0 -33 38 -33 70 0 40 44 3 76
-48 40z"/>
<path d="M3651 1185 c-25 -11 -32 -20 -28 -34 4 -15 -4 -24 -29 -36 -59 -28
-36 -84 28 -70 18 4 38 10 43 13 6 4 25 7 43 8 43 1 71 27 52 48 -7 9 -22 16
-34 16 -21 1 -21 1 -1 16 15 11 17 18 9 32 -15 23 -42 25 -83 7z m39 -59 c0
-2 -7 -7 -16 -10 -8 -3 -12 -2 -9 4 6 10 25 14 25 6z"/>
<path d="M3961 1174 c-17 -14 -31 -31 -31 -37 0 -7 -16 -12 -35 -13 -42 -1
-49 -6 -41 -32 9 -28 48 -35 88 -15 18 9 39 19 47 22 7 4 20 24 29 45 13 32
13 39 1 47 -20 13 -24 12 -58 -17z"/>
<path d="M1943 1178 c-24 -31 -22 -48 5 -62 44 -23 75 9 56 58 -7 19 -48 21
-61 4z"/>
<path d="M2468 1172 c-16 -10 -28 -26 -28 -38 0 -24 29 -54 53 -54 9 0 21 -8
26 -19 8 -14 19 -17 43 -15 37 5 48 14 50 40 3 42 -12 70 -47 87 -43 21 -62
20 -97 -1z"/>
<path d="M3217 1179 c-22 -13 -22 -32 1 -51 13 -11 26 -13 60 -6 23 5 42 15
42 22 0 20 -28 39 -46 32 -9 -4 -22 -2 -28 3 -7 6 -18 6 -29 0z"/>
<path d="M3516 1174 c-20 -19 -20 -31 -1 -51 11 -10 24 -13 43 -8 56 14 68 44
27 63 -35 16 -51 15 -69 -4z"/>
<path d="M3031 1169 c-14 -5 -34 -8 -45 -7 -17 2 -21 -2 -21 -27 0 -30 0 -30
61 -31 33 0 65 -3 70 -6 15 -10 76 20 71 34 -2 7 -17 13 -32 12 -16 0 -37 8
-47 18 -20 20 -23 21 -57 7z"/>
<path d="M4264 1157 c-9 -10 -8 -18 2 -31 19 -27 76 -13 72 17 -2 16 -11 23
-33 24 -16 2 -35 -3 -41 -10z"/>
<path d="M4543 1163 c-18 -6 -16 -48 1 -62 14 -12 82 -8 95 4 2 3 0 18 -5 33
-8 22 -16 27 -44 28 -19 1 -41 -1 -47 -3z"/>
<path d="M4090 1123 c-25 -18 -25 -35 -2 -56 20 -18 52 -23 52 -8 0 5 9 11 21
14 15 4 20 12 17 28 -4 30 -58 43 -88 22z"/>
<path d="M2731 1103 c-9 -10 -24 -13 -42 -9 -37 7 -59 -2 -59 -24 0 -34 20
-42 131 -56 55 -7 71 8 34 32 -14 9 -25 24 -25 34 0 27 -22 41 -39 23z"/>
<path d="M2228 1050 l-23 -19 25 -23 c21 -19 33 -22 70 -18 46 5 46 5 42 59
-3 27 -82 28 -114 1z"/>
<path d="M4171 1038 c-31 -32 -41 -68 -19 -68 21 0 68 53 68 77 0 31 -12 29
-49 -9z"/>
<path d="M3381 1031 c-16 -12 -20 -22 -14 -36 10 -25 32 -26 56 -2 37 37 1 70
-42 38z"/>
<path d="M3686 1009 c-40 -47 -31 -77 18 -65 15 4 25 15 29 33 3 16 9 36 12
46 12 30 -31 20 -59 -14z"/>
<path d="M4488 1015 c-15 -19 -23 -22 -45 -16 -16 4 -32 7 -38 5 -5 -1 -23 -5
-38 -8 -22 -5 -28 -11 -25 -29 2 -12 9 -21 15 -20 7 2 33 -6 58 -17 l45 -20
40 36 c28 25 40 45 40 63 0 35 -29 38 -52 6z"/>
<path d="M3103 1016 c-56 -31 -79 -78 -55 -111 6 -10 13 -11 51 -7 8 1 11 10
8 22 -3 14 3 30 19 47 39 42 23 74 -23 49z"/>
<path d="M2395 1000 c-65 -32 -84 -90 -29 -90 23 0 64 34 64 54 0 5 3 6 7 3
10 -11 33 13 33 34 0 25 -24 24 -75 -1z"/>
<path d="M4201 974 c-64 -48 -75 -75 -40 -97 13 -8 24 -2 54 27 20 20 47 41
60 46 17 6 22 14 18 29 -11 44 -28 43 -92 -5z"/>
<path d="M2556 981 c-22 -24 -20 -38 9 -67 21 -21 28 -24 41 -13 11 9 18 9 27
0 9 -9 5 -17 -16 -37 -15 -13 -27 -28 -27 -32 0 -19 28 -45 42 -39 9 3 21 0
28 -6 10 -9 14 -9 17 1 3 7 16 17 29 22 26 10 32 38 10 46 -21 8 -8 34 21 45
17 6 23 14 19 25 -3 9 -6 21 -6 28 0 6 -16 20 -35 30 -29 16 -39 17 -61 7 -14
-6 -31 -8 -37 -4 -23 14 -45 12 -61 -6z"/>
<path d="M2891 958 c-7 -20 -1 -53 15 -79 2 -4 14 -5 26 0 38 14 28 101 -12
101 -12 0 -24 -9 -29 -22z"/>
<path d="M3308 950 c-56 -7 -71 -19 -66 -51 5 -35 29 -34 82 1 67 46 62 60
-16 50z"/>
<path d="M3922 948 c-7 -7 -12 -17 -12 -23 0 -19 38 -48 54 -42 16 6 51 55 45
61 -12 11 -77 14 -87 4z"/>
<path d="M2427 923 c-4 -3 -7 -16 -7 -28 0 -38 91 -53 105 -17 12 32 -72 71
-98 45z"/>
<path d="M3585 899 c-46 -34 -64 -64 -48 -80 16 -16 71 -1 78 20 3 10 14 26
25 36 25 22 25 32 2 44 -13 7 -27 2 -57 -20z"/>
<path d="M3430 840 c-14 -11 -30 -20 -36 -20 -17 0 -25 -41 -12 -57 15 -18 35
-16 50 5 7 11 23 24 36 31 16 8 22 20 20 34 -4 29 -27 32 -58 7z"/>
<path d="M3768 839 c-28 -16 -21 -35 17 -53 32 -16 36 -16 60 0 14 9 25 22 25
30 0 29 -67 44 -102 23z"/>
<path d="M4091 824 c-11 -8 -18 -21 -15 -29 4 -9 0 -15 -7 -16 -8 0 -23 -3
-34 -5 -11 -2 -47 -8 -80 -12 -68 -8 -83 -29 -42 -57 23 -15 29 -14 83 6 33
12 67 29 77 37 15 13 20 14 26 3 6 -9 10 -10 15 -2 4 6 11 9 16 6 11 -7 40 22
40 40 0 7 -13 20 -29 28 -26 13 -32 13 -50 1z"/>
<path d="M3103 772 c-15 -2 -23 -10 -23 -23 0 -10 0 -22 -1 -26 -1 -14 31 -29
39 -18 4 6 16 15 27 21 46 26 19 55 -42 46z"/>
<path d="M3297 752 c-17 -14 -34 -27 -36 -29 -2 -1 -1 -14 3 -28 7 -28 37 -33
80 -14 20 10 25 19 24 49 0 50 -26 58 -71 22z"/>
<path d="M3773 752 c-21 -14 -24 -48 -6 -64 46 -41 92 -12 57 35 -22 30 -36
38 -51 29z"/>
<path d="M3645 727 c-69 -38 -84 -66 -46 -86 14 -8 23 -5 40 15 12 14 42 34
66 44 26 11 45 26 45 35 0 23 -58 19 -105 -8z"/>
<path d="M2997 700 c-36 -35 12 -83 57 -58 23 13 21 58 -2 58 -10 0 -22 4 -27
9 -6 5 -17 1 -28 -9z"/>
<path d="M3240 608 c0 -6 -10 -8 -26 -4 -14 4 -32 2 -40 -4 -7 -7 -19 -8 -25
-4 -7 4 -9 3 -5 -4 3 -6 2 -13 -4 -17 -15 -9 -12 -31 6 -49 21 -21 28 -20 55
8 22 23 25 23 41 9 13 -12 28 -14 60 -9 l43 7 -23 -21 c-12 -11 -22 -32 -22
-45 0 -21 5 -25 28 -25 38 0 51 11 62 51 13 44 13 72 0 64 -5 -3 -10 0 -10 7
-1 8 -6 5 -15 -7 -16 -20 -16 -21 -56 37 -9 14 -69 19 -69 6z"/>
<path d="M3496 523 c-15 -4 -17 -12 -13 -45 5 -38 4 -40 -39 -61 -27 -13 -49
-32 -56 -49 -7 -15 -17 -28 -21 -28 -5 0 -6 -4 -2 -9 3 -5 1 -12 -5 -16 -14
-9 -12 -21 6 -40 18 -18 51 -12 74 13 8 10 27 25 42 34 19 13 25 23 21 38 -3
11 1 28 10 38 8 9 18 32 22 50 3 17 12 32 18 32 8 0 7 3 -1 9 -8 4 -13 11 -13
15 4 27 -2 29 -43 19z"/>
<path d="M3696 497 c-20 -12 -39 -29 -42 -39 -6 -20 11 -48 30 -48 14 0 86 73
86 87 0 20 -38 20 -74 0z"/>
</g>
</svg>
