<?xml version="1.0" standalone="no"?>
<!DOCTYPE svg PUBLIC "-//W3C//DTD SVG 20010904//EN"
 "http://www.w3.org/TR/2001/REC-SVG-20010904/DTD/svg10.dtd">
<svg version="1.0" xmlns="http://www.w3.org/2000/svg"
 width="461.000000pt" height="433.000000pt" viewBox="0 0 461.000000 433.000000"
 preserveAspectRatio="xMidYMid meet">
<metadata>
Created by potrace 1.16, written by Peter Selinger 2001-2019
</metadata>
<g transform="translate(0.000000,433.000000) scale(0.100000,-0.100000)"
fill="#000000" stroke="none">
<path d="M3940 4098 c-72 -14 -386 -23 -715 -20 -178 1 -491 -4 -735 -12 -69
-2 -179 0 -245 6 -66 6 -263 10 -437 10 -175 -1 -320 3 -323 8 -5 9 -53 -1
-77 -16 -7 -5 -21 -9 -32 -9 -19 -2 -66 -51 -66 -70 0 -10 -47 -65 -55 -65 -2
0 -11 7 -20 16 -18 18 -97 21 -150 5 -17 -4 -44 -6 -60 -4 -40 5 -58 -9 -57
-43 1 -16 -4 -39 -10 -52 -10 -20 -18 -22 -75 -21 -59 1 -65 -1 -102 -34 -22
-19 -48 -40 -59 -46 -14 -7 -20 -21 -20 -45 0 -49 -11 -79 -25 -68 -7 5 -37
12 -67 16 -30 3 -71 8 -90 11 -128 15 -295 -1 -317 -31 -7 -10 -13 -22 -13
-27 0 -5 -9 -16 -20 -25 -17 -15 -18 -20 -7 -42 12 -25 15 -25 137 -26 112 -2
255 -9 255 -14 0 -1 20 -4 45 -7 25 -2 56 -6 70 -8 14 -1 33 -3 42 -4 9 -1 19
-13 23 -29 3 -15 15 -35 27 -43 11 -8 32 -24 46 -37 36 -32 97 -48 131 -35 40
15 87 5 99 -20 6 -15 35 -32 85 -50 71 -27 78 -28 133 -17 130 26 154 32 160
41 14 23 30 6 31 -32 1 -23 4 -43 7 -46 2 -3 35 -7 73 -9 139 -9 171 -12 182
-18 6 -4 27 -38 47 -76 20 -39 47 -76 59 -83 96 -52 127 -65 170 -71 79 -12
669 -5 712 8 10 3 104 8 208 11 105 2 205 7 223 9 18 3 54 1 80 -5 26 -5 53
-10 60 -11 25 -3 11 -18 -18 -18 -37 0 -54 -28 -40 -65 13 -35 18 -65 25 -157
3 -42 10 -90 17 -105 6 -15 13 -39 14 -53 2 -14 6 -36 10 -50 4 -14 8 -33 9
-43 2 -24 18 -33 66 -41 22 -3 39 -12 39 -19 0 -9 2 -9 9 1 10 17 66 10 67 -9
0 -8 4 -21 7 -29 18 -44 47 -128 50 -145 2 -11 11 -34 20 -52 9 -18 17 -38 17
-46 0 -7 8 -22 19 -33 10 -11 21 -30 25 -41 3 -11 42 -54 86 -97 44 -42 87
-90 95 -105 10 -20 27 -32 59 -42 29 -8 49 -22 60 -40 9 -16 40 -41 68 -56 45
-24 53 -33 60 -67 9 -44 26 -59 81 -76 28 -8 37 -16 33 -26 -3 -8 3 -33 14
-54 25 -49 26 -132 2 -179 -9 -19 -39 -50 -65 -69 -64 -46 -125 -48 -192 -6
-25 16 -64 38 -85 49 -21 11 -72 49 -113 85 -110 96 -113 98 -211 158 -50 31
-121 75 -158 98 -71 46 -123 71 -173 84 -56 15 -190 58 -258 83 -60 23 -123
35 -347 67 -65 9 -233 6 -251 -5 -7 -5 -22 -9 -35 -11 -50 -5 -143 -38 -204
-72 -229 -126 -304 -249 -272 -446 6 -37 6 -72 0 -90 -5 -17 -9 -48 -10 -68 0
-33 -4 -39 -32 -48 -17 -5 -47 -23 -67 -39 -40 -33 -119 -144 -119 -167 0 -8
-7 -28 -15 -45 -9 -16 -15 -46 -14 -67 1 -20 -6 -66 -16 -102 -16 -60 -16 -69
-1 -135 20 -84 52 -153 77 -160 34 -11 38 -27 23 -99 -8 -38 -12 -77 -9 -86 6
-19 30 -28 56 -23 20 5 52 84 43 107 -6 15 -2 16 22 9 16 -4 56 -7 89 -6 33 0
63 -4 66 -9 3 -5 3 -28 -2 -51 -5 -31 -4 -48 7 -65 17 -26 13 -25 50 -12 l29
10 -3 80 c-2 48 0 80 6 80 13 0 132 118 132 131 0 5 11 26 23 47 33 52 50 130
49 229 -1 77 -16 149 -54 255 -6 15 -10 31 -10 35 -1 4 -10 15 -22 23 -40 28
-66 54 -66 66 0 13 -45 24 -104 24 l-41 0 0 88 c0 48 -3 112 -7 142 -10 90 1
131 52 186 57 63 98 92 214 155 98 53 318 81 426 54 3 0 32 -5 65 -9 97 -13
208 -41 390 -100 60 -20 114 -36 118 -36 26 0 145 -61 204 -104 23 -17 80 -56
127 -86 47 -30 86 -58 86 -62 0 -5 5 -8 12 -8 6 0 37 -25 69 -55 32 -30 62
-55 68 -55 6 0 11 -7 11 -17 0 -9 3 -14 6 -11 3 3 31 -9 62 -28 103 -61 156
-83 210 -87 28 -2 52 0 52 4 0 4 11 10 24 13 48 12 142 92 159 135 30 75 31
209 2 283 -5 12 2 21 24 33 25 12 31 22 31 48 0 18 -5 38 -11 44 -7 7 -1 23
21 55 21 29 32 58 33 82 0 20 6 36 11 36 21 0 83 135 101 219 13 64 16 109 11
200 -7 150 -43 344 -73 405 -9 16 -17 43 -20 60 -3 16 -16 52 -29 80 -13 27
-24 58 -24 69 0 10 -4 27 -10 37 -18 34 -29 287 -14 312 6 9 12 42 16 96 1 7
16 28 34 46 18 18 36 46 40 62 3 16 12 34 19 39 27 22 65 134 64 188 -1 62
-26 170 -48 212 -8 17 -14 33 -13 38 1 4 -5 7 -13 7 -8 0 -15 7 -15 14 0 8
-17 28 -37 43 -21 15 -44 34 -52 41 -15 14 -56 33 -81 37 -8 2 -42 10 -75 19
-80 21 -131 25 -185 14z m-2136 -137 c54 -17 104 -20 431 -26 176 -3 336 -9
355 -12 19 -3 141 -4 270 -3 129 2 260 3 290 3 434 -4 741 -4 765 0 17 3 80 8
140 12 l110 7 60 -42 c66 -47 74 -57 92 -115 26 -82 25 -122 -3 -193 -15 -37
-33 -74 -40 -83 -8 -8 -14 -23 -14 -32 0 -9 -4 -17 -10 -17 -5 0 -22 -12 -38
-27 -16 -16 -37 -33 -47 -38 -15 -9 -16 -15 -6 -32 6 -12 9 -39 6 -60 -3 -21
-5 -94 -6 -163 -1 -105 3 -144 26 -240 15 -63 37 -144 50 -180 58 -164 87
-277 89 -347 0 -24 4 -43 7 -43 9 0 -2 -153 -12 -166 -5 -6 -7 -19 -3 -28 3
-9 1 -23 -6 -31 -7 -8 -10 -15 -6 -15 3 0 -1 -16 -9 -36 -16 -38 -57 -80 -87
-90 -10 -3 -18 -9 -18 -13 0 -4 -14 -8 -32 -9 -17 -2 -36 -6 -42 -11 -29 -23
-196 2 -256 39 -53 32 -167 146 -176 175 -3 11 -9 29 -14 40 -24 52 -78 224
-73 229 4 3 1 6 -5 6 -7 0 -11 3 -10 8 0 4 -1 14 -5 22 -3 8 -8 29 -11 45 -22
122 -45 244 -50 265 -4 14 -9 39 -11 55 -12 81 -19 113 -40 171 -13 35 -20 65
-17 68 3 3 -2 6 -10 6 -9 0 -18 5 -20 11 -3 8 -134 21 -228 22 -84 1 -486 -15
-493 -20 -15 -9 -95 -12 -394 -14 -284 -1 -293 -1 -342 22 -30 13 -51 29 -51
38 0 9 -9 31 -20 49 l-20 32 68 0 c93 1 383 10 407 13 58 8 102 28 113 53 13
27 2 63 -21 65 -23 3 -93 -2 -157 -10 -36 -4 -186 -9 -335 -9 -210 -2 -290 1
-362 14 -61 11 -93 21 -93 29 0 8 -11 35 -24 62 -60 122 -69 148 -72 228 -4
76 1 100 32 172 8 17 14 36 14 43 0 6 22 33 49 59 l49 48 118 2 c64 1 131 -3
148 -8z m-404 -6 c0 -2 -9 -18 -19 -36 -12 -19 -20 -26 -23 -17 -5 13 21 57
35 58 4 0 7 -2 7 -5z m-70 -158 c-11 -31 -20 -69 -21 -84 0 -24 -1 -25 -8 -8
-9 23 10 118 29 140 21 25 21 12 0 -48z m-126 41 c26 -10 28 -14 21 -47 -17
-82 8 -241 53 -340 11 -24 18 -50 15 -57 -2 -6 -24 -19 -48 -27 -51 -16 -83
-6 -100 30 -5 12 -19 27 -32 34 -12 6 -21 15 -20 18 1 3 -4 15 -10 26 -16 28
-35 140 -34 200 0 35 5 53 17 62 10 7 13 13 6 13 -13 0 20 79 38 90 18 11 61
10 94 -2z m-289 -190 c11 -96 9 -89 24 -123 7 -16 15 -39 17 -49 2 -11 9 -23
15 -27 13 -8 -56 -11 -82 -3 -20 6 -34 39 -51 119 -19 89 -13 131 20 144 47
17 49 14 57 -61z m2447 -785 c27 -24 22 -33 -17 -33 -31 0 -35 3 -35 25 0 30
24 33 52 8z m-7 -213 c3 -5 17 -10 30 -10 30 0 34 -6 41 -74 6 -50 4 -56 -12
-56 -32 0 -47 17 -59 62 -6 24 -15 53 -19 66 -7 22 7 32 19 12z m855 -890 c-8
-5 -22 -10 -30 -10 -13 0 -13 1 0 10 8 5 22 10 30 10 13 0 13 -1 0 -10z
m-2560 -896 c-18 -21 -24 -10 -9 18 8 14 14 18 17 10 2 -7 -2 -19 -8 -28z
m330 -64 c0 -5 -13 -10 -30 -10 -16 0 -30 4 -30 8 0 4 14 9 30 10 17 1 30 -2
30 -8z m-111 -80 c37 0 100 -35 137 -76 38 -42 51 -109 27 -136 -18 -20 -33
-15 -33 12 0 29 -37 51 -65 38 -19 -8 -22 -19 -24 -71 -1 -34 -5 -65 -9 -69
-10 -10 -113 -17 -147 -11 -30 6 -29 5 -9 143 3 22 0 42 -9 54 -14 19 -16 19
-40 4 -15 -11 -28 -31 -33 -55 -4 -21 -8 -41 -9 -45 -2 -5 -3 -13 -4 -19 -4
-33 -44 41 -60 112 -7 29 -4 40 13 60 54 62 147 95 205 72 18 -7 45 -13 60
-13z"/>
<path d="M4167 3896 c-6 -14 -62 -24 -181 -32 -38 -3 -73 -7 -78 -10 -15 -9
-8 -50 11 -68 17 -16 25 -16 136 4 64 11 125 18 135 15 29 -9 50 5 50 34 0 32
-8 44 -37 60 -27 14 -30 14 -36 -3z"/>
<path d="M4229 3746 c-3 -4 -57 -6 -120 -7 -120 0 -131 -3 -142 -31 -14 -38
12 -47 143 -49 69 -2 131 0 138 4 6 5 12 18 12 31 0 24 -22 61 -31 52z"/>
<path d="M4009 3549 c-17 -32 -2 -59 34 -61 18 -1 43 -2 57 -3 14 -1 34 -5 44
-10 15 -6 25 -2 43 19 26 30 27 35 13 56 -6 11 -31 15 -95 16 -75 2 -87 0 -96
-17z"/>
<path d="M1842 634 c-40 -27 -18 -84 33 -84 34 0 50 61 23 88 -16 16 -29 15
-56 -4z"/>
</g>
</svg>
