<?xml version="1.0" standalone="no"?>
<!DOCTYPE svg PUBLIC "-//W3C//DTD SVG 20010904//EN"
 "http://www.w3.org/TR/2001/REC-SVG-20010904/DTD/svg10.dtd">
<svg version="1.0" xmlns="http://www.w3.org/2000/svg"
 width="447.000000pt" height="403.000000pt" viewBox="0 0 447.000000 403.000000"
 preserveAspectRatio="xMidYMid meet">
<metadata>
Created by potrace 1.16, written by Peter Selinger 2001-2019
</metadata>
<g transform="translate(0.000000,403.000000) scale(0.100000,-0.100000)"
fill="#000000" stroke="none">
<path d="M1199 3866 c-3 -3 -45 -17 -95 -31 -94 -28 -209 -69 -234 -86 -8 -5
-26 -15 -40 -21 -14 -7 -37 -20 -52 -31 -16 -10 -28 -16 -28 -13 0 5 -41 -37
-152 -157 -90 -98 -98 -107 -98 -118 0 -5 -15 -40 -34 -77 -42 -81 -54 -121
-61 -192 -3 -30 -7 -80 -10 -112 -7 -64 9 -140 37 -180 10 -14 18 -29 18 -33
0 -25 101 -81 173 -97 90 -19 275 -1 339 33 14 7 18 6 18 -5 0 -8 6 -19 14
-23 8 -4 36 -28 62 -53 26 -25 55 -49 64 -55 24 -14 124 -101 182 -157 27 -27
53 -48 58 -48 5 0 14 -8 19 -17 6 -10 11 -14 11 -9 0 4 19 -10 42 -33 24 -22
46 -41 50 -41 5 0 8 -4 8 -10 0 -5 -7 -10 -15 -10 -8 0 -21 -12 -29 -27 -13
-25 -12 -30 6 -55 15 -21 28 -28 53 -28 19 0 36 4 40 9 3 5 19 9 35 9 22 -1
44 -16 89 -62 32 -34 76 -77 97 -97 94 -87 133 -139 104 -139 -5 0 -10 -9 -10
-19 0 -11 -7 -27 -16 -35 -11 -12 -14 -25 -9 -47 l7 -31 60 6 c40 5 64 3 74
-5 10 -8 14 -8 14 0 0 33 48 -1 155 -109 65 -66 136 -134 157 -151 39 -32 47
-56 27 -76 -8 -8 -8 -19 2 -41 15 -34 58 -49 91 -31 17 9 26 5 62 -27 182
-170 198 -184 206 -184 13 0 20 -43 9 -57 -13 -15 -7 -27 40 -75 41 -43 76
-55 100 -34 15 13 20 12 50 -12 19 -15 74 -66 122 -113 l87 -85 -16 -27 c-9
-15 -20 -27 -24 -27 -3 0 -12 -17 -19 -37 -9 -28 -9 -38 0 -41 6 -2 11 -10 11
-18 0 -21 43 -17 92 8 24 12 45 25 48 29 9 13 150 -112 150 -133 0 -4 5 -8 12
-8 13 0 108 -95 108 -108 0 -4 -7 -16 -15 -26 -17 -22 -20 -66 -5 -66 6 0 10
-7 10 -15 0 -26 33 -35 76 -20 21 7 39 17 39 22 0 15 19 3 53 -32 18 -19 37
-35 42 -35 6 0 10 -6 10 -13 0 -21 58 -39 138 -43 104 -5 178 -10 248 -19 56
-6 60 -5 87 23 24 25 29 38 30 88 0 33 -7 106 -16 163 -9 58 -17 129 -17 158
0 39 -4 55 -16 60 -12 4 -15 21 -13 87 2 44 7 84 12 87 10 7 -69 89 -142 149
-24 19 -52 46 -64 60 -12 14 -49 52 -83 86 -50 49 -64 70 -73 110 -20 85 -26
99 -69 151 -32 38 -98 70 -127 62 -23 -7 -58 16 -110 68 -30 30 -54 58 -53 62
4 15 -15 95 -28 119 -8 15 -14 30 -14 34 0 8 -48 58 -56 58 -2 0 -18 12 -35
28 -29 26 -79 39 -79 21 0 -5 -13 -9 -28 -9 -41 0 -139 99 -148 149 -13 67
-43 142 -66 162 -88 75 -142 97 -177 73 -22 -16 -24 -15 -57 17 -38 36 -50 61
-79 152 -10 31 -24 62 -32 68 -7 6 -13 15 -13 20 0 5 -20 40 -45 79 -37 57
-50 70 -72 72 -16 0 -35 2 -43 2 -8 1 -34 -4 -57 -10 -38 -12 -44 -11 -70 9
-15 12 -30 25 -31 29 -2 5 -9 14 -16 21 -7 7 -15 24 -19 37 -3 14 -8 35 -11
47 -7 30 -38 83 -49 83 -4 0 -5 5 -2 10 3 6 -1 10 -9 10 -8 0 -21 6 -28 13
-18 18 -66 31 -106 28 -21 -1 -34 3 -38 14 -3 8 -10 15 -15 15 -12 0 -69 57
-69 70 0 33 -36 113 -56 127 -13 8 -33 30 -45 49 -11 19 -24 34 -29 34 -11 0
-70 56 -70 67 0 18 -48 35 -85 31 -29 -3 -43 1 -64 21 -27 25 -28 27 -14 66 8
25 14 88 15 165 2 172 -10 198 -124 257 -16 8 -28 19 -28 24 0 6 -8 9 -17 8
-10 -1 -26 1 -35 6 -10 4 -47 5 -83 3 -36 -2 -66 0 -68 5 -1 4 -5 6 -8 3z m59
-101 c5 -9 18 -14 33 -12 13 3 33 0 44 -6 11 -6 24 -11 28 -12 4 0 11 -6 16
-13 5 -8 12 -14 17 -13 24 1 53 -13 60 -27 11 -25 13 -139 4 -204 -17 -111
-143 -328 -249 -426 -68 -63 -181 -144 -181 -130 1 14 37 184 45 208 11 35 66
318 72 375 3 22 12 76 20 120 18 100 21 117 22 132 1 11 19 19 48 22 7 0 16
-6 21 -14z m-162 -62 c-8 -47 -24 -130 -41 -208 -8 -33 -26 -123 -40 -200 -15
-77 -33 -158 -41 -179 -9 -22 -17 -56 -20 -75 -2 -19 -11 -54 -19 -78 -18 -53
-19 -75 -3 -91 17 -17 -6 -32 -51 -32 l-34 0 8 48 c15 101 26 153 53 247 11
39 23 88 26 110 8 56 14 86 38 185 11 47 22 101 25 120 3 18 12 57 20 85 8 27
17 60 20 72 3 12 13 24 22 26 39 11 42 8 37 -30z m-170 -60 c-4 -16 -9 -38
-11 -50 -3 -13 -7 -31 -9 -40 -2 -10 -7 -38 -11 -63 -4 -25 -13 -67 -20 -95
-8 -27 -17 -68 -20 -90 -3 -22 -8 -56 -11 -75 -8 -46 -55 -212 -63 -225 -4 -5
-8 -26 -10 -45 -2 -19 -12 -52 -23 -73 -11 -22 -17 -45 -14 -52 8 -22 -2 -23
-67 -9 -113 24 -134 37 -152 96 -9 29 -18 74 -21 100 -5 49 10 166 25 196 4 9
25 52 45 95 36 78 54 101 156 203 73 73 76 76 139 118 64 43 74 45 67 9z m580
-407 c3 -8 18 -19 33 -26 16 -6 34 -22 41 -36 8 -13 17 -24 21 -24 15 0 49
-43 49 -62 0 -10 5 -19 10 -19 6 -1 15 -2 22 -3 7 0 16 -17 20 -36 5 -19 11
-46 14 -60 23 -93 -29 -386 -91 -517 -13 -28 -29 -54 -34 -58 -15 -9 -14 -42
2 -48 6 -3 3 -6 -8 -6 -20 0 -74 40 -76 56 0 4 -29 31 -65 58 -36 28 -87 71
-115 98 -27 26 -54 47 -59 47 -6 0 -30 19 -53 43 -24 23 -69 65 -100 92 -31
28 -57 55 -57 60 1 6 21 23 47 39 79 50 243 194 243 213 0 7 3 13 8 13 10 0
58 79 55 90 -2 5 5 11 15 14 9 4 26 24 36 46 20 42 33 50 42 26z m505 -458
c30 -29 61 -66 68 -83 21 -50 31 -199 18 -275 -3 -19 -10 -62 -16 -95 -6 -33
-13 -76 -15 -95 -3 -19 -12 -56 -20 -83 -8 -26 -15 -49 -16 -52 0 -3 -3 -13
-6 -22 -15 -46 -26 -70 -44 -91 l-20 -24 -120 124 c-107 110 -140 158 -110
158 6 0 10 7 10 15 0 8 5 15 10 15 6 0 10 9 10 19 0 11 15 45 33 78 18 32 39
81 47 108 7 28 17 55 21 61 9 11 52 160 71 247 6 26 14 47 17 47 4 0 32 -24
62 -52z m354 -331 c27 -27 50 -52 50 -55 1 -4 8 -23 18 -42 40 -85 74 -422 51
-515 -3 -11 -7 -38 -9 -60 -11 -97 -17 -130 -29 -154 -7 -14 -16 -38 -20 -53
-3 -16 -13 -28 -21 -28 -11 0 -138 112 -179 158 -29 34 -37 42 -58 59 -13 10
-43 40 -66 66 -42 46 -43 49 -27 67 9 10 15 25 12 32 -2 7 4 27 14 43 40 68
116 266 134 350 19 96 25 135 25 178 l0 50 27 -24 c15 -13 50 -46 78 -72z
m433 -418 c30 -32 52 -65 52 -78 0 -12 7 -38 16 -59 14 -34 22 -221 10 -241
-5 -7 -11 -47 -27 -186 -10 -95 -53 -215 -76 -215 -7 0 -13 -11 -13 -25 0 -14
-4 -25 -9 -25 -4 0 -29 23 -54 50 -25 27 -48 50 -51 50 -7 0 -79 63 -118 104
l-38 39 20 34 c11 19 20 39 20 45 0 6 6 19 13 27 16 18 71 175 86 241 5 25 12
72 15 105 3 33 14 101 23 152 l16 92 31 -27 c17 -15 55 -53 84 -83z m409 -404
c17 -32 28 -168 27 -341 0 -162 -4 -184 -50 -328 -9 -27 -18 -61 -21 -75 -6
-38 -11 -38 -43 -3 -16 18 -31 32 -34 32 -2 0 -17 12 -33 28 -15 15 -54 50
-87 79 -50 44 -58 55 -52 77 3 13 12 31 19 38 20 20 54 123 77 233 33 155 36
176 30 233 -4 29 -3 58 2 65 4 6 8 38 8 71 l0 59 73 -74 c41 -41 79 -83 84
-94z m377 -393 c14 -55 15 -81 21 -266 3 -104 1 -194 -4 -200 -10 -13 -25 -67
-22 -79 3 -17 -23 -93 -41 -116 -10 -13 -18 -30 -18 -37 0 -24 -18 -15 -56 26
-20 21 -39 38 -43 37 -4 -1 -22 14 -41 33 -19 19 -54 50 -78 69 -23 18 -42 38
-42 43 0 7 32 82 71 163 5 11 11 31 13 45 3 14 5 25 6 25 1 0 3 9 5 20 4 27
23 129 35 190 6 28 12 70 14 95 2 25 7 66 11 92 l7 48 78 -81 c43 -44 81 -92
84 -107z m426 -520 c0 -86 5 -123 25 -187 14 -44 25 -94 25 -112 0 -17 5 -44
11 -60 11 -28 4 -97 -9 -89 -8 5 -223 20 -257 18 -24 -1 -75 20 -75 30 0 5 -5
8 -10 8 -6 0 -30 20 -54 44 l-44 45 42 88 c23 48 48 115 55 148 7 33 17 71 22
85 11 29 39 239 39 287 0 33 1 32 115 -83 l115 -116 0 -106z"/>
</g>
</svg>
