<?xml version="1.0" standalone="no"?>
<!DOCTYPE svg PUBLIC "-//W3C//DTD SVG 20010904//EN"
 "http://www.w3.org/TR/2001/REC-SVG-20010904/DTD/svg10.dtd">
<svg version="1.0" xmlns="http://www.w3.org/2000/svg"
 width="487.000000pt" height="483.000000pt" viewBox="0 0 487.000000 483.000000"
 preserveAspectRatio="xMidYMid meet">
<metadata>
Created by potrace 1.16, written by Peter Selinger 2001-2019
</metadata>
<g transform="translate(0.000000,483.000000) scale(0.100000,-0.100000)"
fill="#000000" stroke="none">
<path d="M3815 4653 c-54 -13 -64 -19 -98 -66 -46 -64 -103 -160 -113 -190 -3
-12 -20 -49 -37 -82 -17 -33 -32 -62 -32 -65 -1 -3 -4 -12 -7 -20 -3 -8 -12
-37 -19 -63 -6 -27 -18 -51 -25 -54 -7 -2 -15 -16 -19 -31 -3 -15 -18 -44 -33
-66 -31 -45 -38 -57 -75 -127 -16 -30 -32 -56 -35 -59 -4 -3 -20 -32 -35 -65
-31 -64 -48 -93 -140 -236 -32 -49 -63 -102 -70 -117 -14 -31 -9 -24 -87 -124
-33 -43 -60 -81 -60 -84 0 -3 -17 -27 -39 -53 -21 -25 -43 -56 -50 -68 -11
-22 -12 -22 -74 28 -34 28 -74 55 -89 61 -16 5 -28 14 -28 19 0 5 -9 9 -20 9
-11 0 -36 9 -57 19 -72 37 -128 59 -163 66 -258 48 -490 45 -571 -8 -13 -9
-34 -18 -45 -20 -12 -1 -34 -11 -50 -22 -17 -11 -42 -18 -60 -16 -24 2 -33 -2
-37 -18 -3 -11 -27 -34 -53 -50 -60 -37 -54 -32 -134 -121 -70 -77 -130 -158
-130 -173 0 -5 -16 -27 -35 -50 -19 -22 -35 -47 -35 -54 0 -8 -9 -31 -20 -52
-11 -22 -21 -59 -24 -83 -8 -82 -19 -123 -38 -137 -17 -12 -19 -22 -14 -105 3
-50 1 -107 -4 -126 -5 -19 -11 -60 -14 -90 -3 -30 -8 -66 -11 -80 -4 -14 -8
-44 -10 -68 -3 -23 -9 -51 -15 -61 -5 -11 -10 -30 -10 -43 0 -13 -12 -61 -26
-108 -13 -47 -26 -92 -29 -100 -17 -64 -77 -185 -116 -234 -5 -6 -30 -38 -56
-71 -25 -33 -50 -62 -55 -63 -4 -2 -6 -8 -2 -13 3 -5 -2 -9 -10 -9 -9 0 -16
-6 -16 -13 0 -21 -216 -218 -246 -225 -8 -2 -14 -7 -14 -12 0 -4 -12 -13 -27
-19 -16 -7 -41 -19 -58 -28 -30 -16 -47 -21 -94 -22 -16 -1 -21 -5 -18 -15 3
-8 1 -16 -4 -18 -19 -6 13 -58 40 -65 46 -12 194 -6 261 11 95 23 100 21 50
-25 -74 -68 -117 -99 -152 -111 -18 -6 -45 -19 -60 -30 -14 -10 -32 -18 -40
-18 -7 0 -22 -7 -32 -15 -15 -12 -22 -12 -34 -3 -12 10 -20 6 -43 -20 -28 -31
-29 -34 -14 -62 9 -17 22 -30 30 -30 8 0 15 -4 15 -8 0 -11 45 -14 227 -16 84
0 153 -2 153 -3 0 -8 -49 -50 -75 -66 -84 -49 -143 -71 -207 -75 -58 -4 -69
-8 -83 -29 -24 -37 0 -69 57 -76 115 -16 325 5 488 47 30 8 56 13 58 11 2 -1
-12 -13 -30 -26 -18 -13 -34 -27 -36 -31 -2 -4 -10 -8 -18 -8 -8 0 -14 -4 -14
-9 0 -5 -10 -12 -22 -16 -36 -12 -98 -13 -98 -1 0 24 -31 -23 -36 -55 -8 -56
19 -79 102 -89 38 -5 85 -13 104 -18 57 -13 663 1 719 17 18 6 36 10 40 9 3 0
9 1 14 2 4 1 10 3 15 4 26 6 90 30 107 41 11 6 38 18 60 25 22 7 90 33 150 57
61 25 115 46 120 47 6 1 21 9 35 19 13 9 30 17 36 17 7 0 25 10 41 23 39 30
60 43 116 68 26 12 47 24 47 28 0 3 19 15 43 26 23 11 48 25 55 32 7 7 44 31
81 52 37 22 74 47 81 56 7 9 28 22 46 30 18 7 51 32 74 54 23 23 49 41 56 41
8 0 14 4 14 9 0 5 12 14 28 19 15 6 47 29 70 51 24 23 47 41 50 41 4 0 28 20
54 44 26 23 66 58 90 76 24 18 59 53 78 76 30 37 163 134 184 134 4 0 17 9 29
21 12 11 41 30 64 41 24 12 43 26 43 31 0 5 16 23 36 40 20 18 46 52 59 77 13
25 44 68 69 95 25 28 46 58 46 68 0 16 7 33 31 77 15 26 39 82 56 129 16 45
21 206 9 286 -6 37 -64 194 -80 215 -6 8 -19 31 -29 50 -10 19 -33 52 -53 73
-19 20 -32 37 -28 37 4 0 -13 19 -39 41 -26 23 -47 48 -47 55 0 8 -4 14 -8 14
-5 0 -22 13 -38 30 -16 16 -34 30 -40 30 -6 0 -16 11 -22 25 -6 14 -19 25 -28
25 -9 0 -25 11 -36 25 -11 14 -25 25 -31 25 -15 1 -85 60 -72 60 6 0 23 23 40
50 16 28 33 50 37 50 4 0 8 5 8 11 0 6 14 31 30 56 17 24 30 48 30 53 0 4 4
10 9 12 10 4 81 113 81 125 0 5 32 49 71 98 39 50 77 104 84 120 8 17 22 39
32 50 10 11 38 49 62 85 24 36 62 85 85 110 68 75 175 213 234 300 20 30 46
67 57 81 32 39 134 252 149 309 22 86 0 179 -54 230 -75 70 -94 83 -152 106
-78 32 -213 39 -303 17z m223 -103 c77 -24 164 -91 182 -140 17 -45 16 -123
-1 -147 -8 -11 -31 -35 -52 -53 -35 -31 -44 -33 -105 -34 -55 0 -79 6 -132 32
-63 31 -110 69 -110 90 0 5 -6 12 -14 15 -18 7 -56 108 -56 150 0 24 9 43 31
65 17 18 34 30 38 28 3 -2 15 0 26 5 36 14 129 9 193 -11z m-324 -297 c20 -32
54 -69 74 -83 20 -13 42 -29 47 -34 31 -33 165 -76 220 -71 50 4 58 -1 40 -23
-13 -16 -32 -41 -110 -151 -16 -24 -53 -68 -82 -99 -29 -31 -53 -62 -53 -68 0
-6 -10 -19 -21 -30 -31 -27 -96 -114 -169 -224 -35 -52 -87 -124 -116 -160
-29 -36 -63 -85 -75 -110 -12 -25 -39 -67 -59 -95 -20 -27 -40 -58 -43 -67 -4
-10 -10 -18 -15 -18 -5 0 -15 -13 -22 -30 -7 -16 -15 -30 -19 -30 -4 0 -15
-17 -26 -37 -11 -21 -48 -75 -82 -119 -35 -45 -63 -85 -63 -89 0 -3 -21 -34
-47 -68 -49 -63 -73 -94 -118 -157 -14 -19 -41 -55 -60 -80 -19 -25 -42 -62
-51 -82 -9 -21 -22 -38 -30 -38 -8 0 -14 -5 -14 -11 0 -6 -8 -21 -17 -32 -16
-20 -27 -22 -101 -20 -120 4 -210 49 -256 129 -18 30 -18 31 7 71 14 22 31 46
39 54 8 8 35 43 60 79 26 36 58 77 72 92 15 15 26 30 26 33 0 3 7 13 15 23 9
9 50 62 92 117 41 55 84 109 94 120 10 11 27 29 37 41 10 11 33 41 50 65 17
24 42 56 56 70 14 15 22 30 19 33 -4 3 0 6 7 6 7 0 10 3 7 6 -4 4 17 34 45 68
28 33 55 73 60 89 6 15 13 27 17 27 4 0 18 23 31 51 12 28 35 65 50 83 15 17
38 49 50 71 67 118 123 222 175 320 32 61 61 112 65 115 4 3 15 21 23 40 9 19
22 46 30 60 15 25 24 46 47 110 31 88 45 118 51 115 3 -3 23 -31 43 -62z
m-1464 -1047 c14 -2 39 -6 55 -10 17 -4 50 -12 75 -18 57 -13 150 -48 150 -57
0 -4 12 -8 26 -9 26 -2 96 -39 102 -54 2 -4 12 -8 23 -8 10 0 19 -4 19 -9 0
-5 10 -11 23 -13 33 -4 34 -42 2 -81 -14 -18 -56 -71 -93 -118 -37 -47 -103
-129 -147 -183 -44 -54 -87 -108 -95 -120 -8 -11 -21 -27 -27 -34 -7 -7 -13
-20 -13 -27 0 -8 -7 -18 -16 -23 -22 -12 -26 -74 -7 -108 9 -16 22 -41 29 -55
25 -48 129 -129 166 -129 9 0 18 -4 20 -10 2 -5 37 -13 78 -16 41 -3 102 -10
135 -15 l60 -9 43 46 c23 26 42 48 42 51 0 3 13 23 29 46 15 23 35 53 44 67 9
14 35 50 57 80 35 48 95 133 125 178 6 9 17 23 25 32 8 9 26 31 39 48 l24 30
63 -44 c35 -24 67 -44 72 -44 12 0 112 -100 112 -111 0 -5 6 -9 13 -9 7 0 20
-8 29 -17 9 -10 23 -23 30 -30 24 -21 55 -58 74 -88 10 -16 21 -32 24 -35 8
-8 29 -44 39 -67 6 -11 15 -24 21 -28 5 -3 8 -10 5 -15 -3 -5 6 -37 20 -71 35
-83 42 -171 19 -270 -10 -44 -21 -79 -25 -79 -4 0 -9 -8 -13 -17 -32 -91 -138
-195 -266 -261 -164 -85 -242 -110 -357 -112 -54 -2 -107 -3 -118 -3 -11 -1
-45 2 -75 6 -71 10 -112 15 -180 23 -76 8 -328 88 -412 129 -38 19 -90 48
-114 65 -25 16 -49 30 -55 30 -5 0 -9 4 -9 8 0 4 -15 16 -32 26 -18 11 -54 40
-79 65 -26 25 -59 58 -75 72 -36 32 -141 146 -172 185 -47 61 -91 124 -107
151 -8 15 -24 42 -35 58 -11 17 -24 41 -30 54 -6 13 -19 36 -30 50 -10 15 -22
40 -26 57 -4 16 -11 34 -15 40 -12 15 -48 187 -53 249 -5 74 36 225 79 290 36
54 109 131 142 148 10 6 36 25 58 43 46 36 120 70 185 84 39 8 229 6 300 -4z
m-846 -433 c-2 -16 -9 -50 -14 -78 -11 -51 -7 -125 10 -205 5 -25 12 -56 14
-70 9 -57 90 -225 162 -337 19 -30 34 -58 34 -63 0 -6 4 -10 9 -10 5 0 12 -8
16 -19 3 -10 16 -30 30 -45 13 -14 36 -43 52 -63 35 -49 301 -313 313 -313 6
0 32 -16 59 -35 26 -19 53 -35 59 -35 6 0 12 -4 14 -9 6 -17 212 -118 268
-131 30 -8 67 -19 81 -27 39 -18 99 -32 229 -50 145 -21 464 -24 498 -4 13 7
45 18 70 25 26 7 56 17 66 21 14 6 17 5 12 -4 -9 -13 -116 -66 -128 -63 -5 1
-8 -2 -8 -7 0 -5 -17 -12 -37 -16 -21 -5 -45 -10 -53 -12 -8 -2 -40 -8 -70
-12 -30 -5 -82 -14 -115 -21 -63 -13 -165 -8 -225 10 -19 6 -44 13 -55 14 -69
12 -132 33 -225 77 -167 79 -229 113 -223 123 4 5 -1 7 -10 3 -8 -3 -21 1 -27
9 -7 8 -19 14 -26 14 -15 0 -55 20 -64 31 -3 4 -34 24 -70 45 -36 21 -71 44
-78 51 -7 7 -19 13 -25 13 -12 0 -137 129 -137 141 0 3 -17 22 -37 41 -21 20
-45 44 -54 54 -8 11 -27 28 -42 39 -15 11 -27 23 -27 27 0 4 -18 26 -41 50
-55 57 -139 169 -139 185 0 6 -15 27 -33 45 -18 18 -39 49 -47 68 -7 19 -23
58 -35 85 -37 84 -57 164 -49 199 4 17 7 34 6 37 -1 4 3 35 9 70 7 41 22 83
45 121 20 32 37 58 39 58 2 0 2 -12 -1 -27z m-98 -608 c21 -41 41 -75 46 -75
4 0 14 -16 22 -35 13 -30 13 -41 0 -87 -8 -29 -21 -90 -29 -135 -9 -45 -26
-105 -39 -135 -13 -29 -26 -66 -30 -81 -12 -51 -65 -151 -100 -192 -48 -55
-60 -79 -52 -108 7 -31 41 -26 50 6 3 12 24 42 46 67 22 24 43 54 46 67 4 13
10 23 15 23 5 0 9 6 9 13 0 18 23 67 32 67 4 0 5 6 2 14 -3 8 6 38 19 68 35
75 57 144 57 175 0 15 10 56 22 91 19 57 23 63 31 44 6 -12 14 -22 19 -22 4 0
8 -6 8 -13 0 -7 12 -24 28 -39 44 -42 82 -84 82 -92 0 -4 -4 -5 -9 -2 -20 13
-40 -22 -49 -84 -12 -79 -58 -206 -110 -303 -120 -220 -118 -217 -214 -330
-36 -43 -58 -77 -58 -93 0 -33 17 -30 48 7 15 18 43 48 62 68 19 20 47 52 62
72 32 43 118 188 118 199 0 5 4 10 8 12 9 3 92 174 92 189 0 5 12 37 26 72 14
34 31 84 38 112 l11 50 63 -61 c34 -34 62 -64 62 -68 0 -4 10 -16 23 -26 19
-16 20 -22 10 -39 -7 -11 -13 -26 -13 -32 0 -18 -80 -179 -114 -229 -41 -59
-128 -171 -183 -232 -45 -51 -53 -86 -18 -80 10 2 28 16 39 30 18 24 62 74
140 162 13 14 31 39 41 55 10 17 27 39 36 50 10 11 43 71 74 134 32 63 60 110
64 105 12 -18 87 -69 123 -86 21 -9 38 -20 38 -23 0 -16 -63 -140 -105 -205
-58 -91 -155 -211 -191 -237 -36 -26 -27 -61 15 -59 16 1 27 4 25 8 -3 4 11
24 30 45 48 52 96 111 125 152 37 52 151 222 159 237 6 11 17 9 56 -11 27 -13
55 -30 64 -37 8 -7 25 -17 38 -23 22 -9 23 -12 9 -35 -7 -14 -26 -50 -41 -80
-33 -65 -115 -156 -150 -164 -36 -10 -29 -66 9 -66 26 0 143 122 181 190 11
18 27 43 37 54 10 12 25 30 33 41 15 20 15 20 48 1 18 -11 49 -28 68 -38 19
-10 35 -22 35 -26 -1 -17 -97 -159 -150 -220 -11 -13 -45 -40 -75 -60 -30 -20
-59 -41 -65 -45 -5 -5 -37 -24 -70 -43 -79 -44 -124 -70 -160 -94 -16 -11 -38
-23 -47 -26 -23 -8 -25 -64 -3 -64 14 0 53 18 65 30 21 21 90 66 156 101 150
80 209 127 293 233 16 19 31 33 35 29 3 -3 6 3 6 14 0 21 30 53 68 72 12 6 22
18 22 26 0 21 19 28 36 14 8 -6 24 -13 37 -15 12 -2 40 -8 61 -13 22 -5 44 -8
48 -5 4 3 8 1 8 -3 0 -5 19 -10 42 -12 56 -3 59 -6 41 -44 -32 -67 -276 -276
-359 -307 -13 -5 -32 -18 -43 -29 -16 -16 -85 -55 -101 -56 -3 -1 -32 -14 -65
-29 -33 -15 -85 -39 -115 -53 -30 -13 -83 -38 -118 -54 -65 -31 -80 -36 -144
-46 -21 -3 -38 -9 -38 -13 0 -4 -14 -10 -30 -14 -37 -7 -48 -31 -25 -56 14
-15 22 -17 48 -8 18 6 36 15 42 19 5 5 20 9 35 9 14 0 68 20 120 45 52 25 101
45 108 45 6 0 12 4 12 8 0 4 25 16 55 27 30 10 55 22 55 27 0 4 4 8 10 8 17 0
124 52 155 75 17 12 41 26 55 30 21 6 81 48 137 95 7 5 16 10 22 10 5 0 11 3
13 8 2 4 45 45 96 92 57 51 106 106 126 140 30 51 35 55 72 58 21 1 66 9 100
18 100 26 109 17 38 -41 -34 -28 -74 -59 -89 -70 -16 -11 -34 -26 -41 -32 -7
-7 -18 -13 -24 -13 -6 0 -13 -7 -16 -15 -4 -8 -12 -15 -19 -15 -7 0 -15 -3
-17 -7 -5 -12 -75 -63 -86 -63 -5 0 -15 -7 -22 -15 -17 -20 -157 -115 -170
-115 -5 0 -10 -4 -10 -9 0 -5 -8 -12 -17 -15 -24 -9 -59 -30 -80 -48 -10 -8
-49 -32 -88 -53 -38 -21 -106 -59 -150 -85 -44 -27 -111 -60 -150 -75 -38 -15
-88 -35 -110 -45 -134 -60 -239 -100 -264 -100 -12 0 -29 -4 -39 -10 -37 -20
-119 -26 -415 -28 -211 -2 -307 1 -302 8 3 5 12 10 20 10 19 0 138 122 176
180 18 28 35 50 39 50 3 0 12 16 19 36 16 43 0 94 -30 94 -19 0 -85 -42 -134
-86 -39 -34 -91 -56 -186 -78 -127 -30 -132 -23 -43 64 149 145 154 150 154
175 0 14 -4 25 -10 25 -5 0 -10 7 -10 15 0 20 -56 9 -81 -16 -10 -10 -31 -21
-46 -25 -16 -3 -35 -8 -43 -12 -41 -16 -205 -26 -228 -13 -14 8 -11 12 20 25
21 9 42 16 47 16 5 0 33 23 63 52 29 28 77 69 106 91 28 22 52 43 52 48 0 5 4
9 10 9 14 0 100 92 111 118 14 35 12 39 -22 51 -26 9 -37 8 -63 -8 -17 -10
-56 -24 -86 -31 -30 -6 -79 -17 -107 -24 -29 -8 -53 -10 -53 -5 0 4 8 10 18
14 11 3 42 29 70 58 28 28 62 62 76 73 13 12 53 54 88 95 34 41 65 76 68 79
17 15 80 102 106 145 54 91 120 268 140 380 4 22 9 45 11 50 13 41 40 171 48
235 10 79 16 110 20 110 2 0 20 -34 41 -75z"/>
</g>
</svg>
