<?xml version="1.0" standalone="no"?>
<!DOCTYPE svg PUBLIC "-//W3C//DTD SVG 20010904//EN"
 "http://www.w3.org/TR/2001/REC-SVG-20010904/DTD/svg10.dtd">
<svg version="1.0" xmlns="http://www.w3.org/2000/svg"
 width="479.000000pt" height="475.000000pt" viewBox="0 0 479.000000 475.000000"
 preserveAspectRatio="xMidYMid meet">
<metadata>
Created by potrace 1.16, written by Peter Selinger 2001-2019
</metadata>
<g transform="translate(0.000000,475.000000) scale(0.100000,-0.100000)"
fill="#000000" stroke="none">
<path d="M455 4599 c-66 -4 -121 -7 -121 -8 -5 -4 -18 -46 -35 -111 -35 -134
-81 -275 -94 -285 -6 -5 -10 -19 -9 -30 11 -69 16 -139 18 -285 2 -170 13
-224 46 -226 8 0 23 -4 33 -9 10 -4 46 -4 80 0 92 12 129 14 157 8 24 -4 25
-7 24 -76 -2 -90 -17 -293 -28 -372 -2 -16 -7 -82 -10 -145 -12 -197 -30 -434
-40 -505 -10 -79 -23 -272 -31 -485 -5 -132 -15 -335 -21 -415 -10 -148 -15
-199 -25 -266 -12 -85 -7 -104 41 -149 72 -66 139 -84 257 -70 48 6 95 17 103
24 8 6 29 18 45 26 60 29 165 111 165 129 0 6 6 11 14 11 8 0 13 8 11 18 -1 9
1 24 5 32 4 8 10 35 13 60 3 25 8 55 10 66 5 19 16 249 23 469 4 130 14 364
18 450 3 44 8 148 11 230 3 83 7 159 9 170 8 42 24 232 33 390 3 54 3 189 0
285 0 19 0 49 1 66 l2 31 208 0 c114 0 239 4 277 7 39 4 111 9 160 12 148 7
159 10 194 59 17 24 31 50 31 59 0 8 4 17 9 21 16 9 41 66 41 92 0 12 3 23 8
23 4 0 8 26 10 58 2 31 8 75 14 97 14 52 11 113 -7 139 -8 11 -15 29 -15 38 0
10 -11 24 -25 30 -14 6 -25 18 -25 26 0 9 -3 13 -6 9 -3 -3 -52 18 -107 47
-56 29 -115 56 -131 60 -32 8 -119 47 -126 57 -3 3 -16 10 -30 14 -14 4 -42
19 -63 32 -36 22 -50 24 -208 28 -94 3 -176 8 -182 12 -14 9 -125 22 -246 29
-46 3 -91 8 -100 12 -9 5 -34 5 -56 2 -22 -3 -60 -2 -85 2 -78 12 -122 13
-245 7z m140 -133 c55 -2 121 -7 147 -10 26 -3 78 -8 115 -11 65 -4 97 -8 152
-21 23 -5 145 -17 181 -17 8 0 69 3 134 7 113 8 119 7 111 -11 -7 -17 -16 -50
-43 -158 -18 -69 -39 -117 -55 -127 -23 -12 -719 -2 -782 11 -27 6 -77 17
-111 24 -33 8 -71 12 -83 10 -21 -3 -22 0 -15 29 4 18 8 42 10 53 1 11 12 54
23 95 12 41 24 87 27 102 7 29 25 38 64 32 14 -2 70 -6 125 -8z m943 -95 c9
-6 49 -24 87 -42 39 -17 102 -47 142 -65 40 -19 76 -34 81 -34 5 0 15 -7 22
-15 7 -8 20 -15 30 -15 10 0 28 -8 39 -18 22 -17 22 -18 6 -95 -9 -43 -21 -89
-27 -102 l-10 -23 -36 20 c-20 11 -52 22 -71 24 -19 3 -41 10 -48 15 -7 6 -43
13 -80 14 -38 2 -95 11 -128 21 -33 9 -70 19 -82 21 -28 6 -30 46 -8 108 8 22
15 49 15 60 0 29 33 135 42 135 5 0 16 -4 26 -9z m-1057 -317 c118 -24 141
-25 464 -27 187 -1 362 0 389 2 28 2 51 -1 55 -8 8 -12 150 -51 188 -51 12 0
23 -3 23 -8 0 -4 17 -6 38 -4 21 2 56 -3 76 -12 21 -9 48 -16 61 -16 27 0 85
-28 85 -41 0 -5 6 -9 13 -9 9 0 12 -10 9 -30 -2 -17 2 -37 9 -46 10 -13 10
-17 -1 -24 -8 -5 -18 -6 -22 -3 -5 2 -15 0 -22 -6 -7 -6 -47 -13 -89 -15 -42
-3 -81 -7 -86 -10 -13 -8 -422 -10 -526 -3 -174 13 -330 19 -554 21 -188 2
-235 6 -241 17 -10 18 -23 276 -15 289 8 13 4 14 146 -16z m506 -412 c42 -4
42 -5 53 -58 7 -33 9 -108 6 -196 -4 -79 -8 -197 -11 -263 -3 -66 -9 -151 -15
-190 -6 -38 -12 -106 -15 -150 -2 -44 -9 -132 -14 -195 -13 -135 -19 -266 -26
-556 -3 -117 -7 -229 -10 -250 -2 -22 -7 -93 -10 -159 -4 -66 -10 -140 -13
-165 -7 -45 -8 -45 -85 -83 -85 -42 -188 -58 -257 -40 -54 14 -73 64 -67 167
3 45 10 165 16 267 6 102 17 219 25 260 8 41 17 103 20 139 3 36 8 76 11 90 3
14 12 144 21 290 8 146 17 281 19 300 4 50 15 202 21 290 2 41 7 93 9 115 3
22 7 78 10 125 2 47 8 127 11 178 l7 93 126 -2 c69 -1 145 -4 168 -7z"/>
<path d="M839 4400 c-107 -13 -169 -52 -169 -106 0 -51 45 -96 117 -116 103
-28 148 -35 171 -25 14 6 30 7 43 1 11 -5 55 -7 96 -3 64 5 80 10 95 30 21 25
20 88 -2 129 -21 40 -192 103 -264 99 -11 -1 -51 -5 -87 -9z m11 -95 c0 -14
-51 -36 -70 -30 -20 6 -21 7 -3 21 17 12 73 20 73 9z m253 -33 c15 -7 27 -18
27 -23 0 -8 -34 -14 -70 -11 -8 1 -43 2 -77 3 -35 1 -60 5 -57 10 3 5 11 9 18
9 8 0 19 7 27 16 15 19 90 17 132 -4z"/>
<path d="M2850 4570 c-6 -11 -22 -31 -35 -44 -14 -14 -25 -32 -25 -41 0 -9
-11 -31 -25 -49 -14 -18 -25 -39 -25 -47 0 -8 -13 -30 -30 -49 -16 -19 -29
-40 -30 -47 0 -6 -6 -18 -13 -25 -52 -53 -61 -80 -58 -163 9 -173 9 -170 -57
-306 -34 -70 -62 -130 -62 -133 0 -4 -24 -57 -54 -119 -29 -62 -57 -123 -61
-137 -4 -14 -23 -53 -41 -88 -19 -35 -34 -70 -34 -77 0 -7 -4 -15 -8 -17 -12
-5 -52 -86 -52 -106 0 -10 -11 -34 -25 -54 -14 -20 -25 -46 -25 -57 0 -11 -4
-22 -9 -26 -5 -3 -17 -27 -27 -53 -10 -26 -26 -59 -36 -74 -11 -16 -16 -28
-11 -28 4 0 4 -4 -2 -8 -5 -4 -17 -21 -26 -37 -8 -17 -20 -39 -26 -50 -6 -11
-20 -40 -31 -65 -56 -126 -78 -161 -150 -238 -113 -123 -164 -172 -174 -166
-4 3 -8 -1 -8 -8 0 -8 -22 -34 -48 -59 -53 -48 -112 -128 -136 -181 -8 -18
-22 -44 -30 -58 -17 -29 -49 -100 -52 -115 -12 -66 -17 -96 -19 -130 -1 -22
-7 -57 -14 -77 -6 -19 -11 -40 -9 -44 1 -5 -4 -19 -11 -32 -7 -13 -10 -30 -7
-37 3 -8 1 -17 -5 -21 -6 -3 -8 -12 -5 -19 2 -7 -3 -21 -12 -31 -9 -11 -19
-28 -20 -39 -2 -11 -12 -31 -22 -45 -9 -14 -39 -65 -65 -115 -26 -49 -55 -99
-65 -110 -34 -40 -120 -198 -120 -221 0 -9 -9 -47 -20 -85 -21 -69 -34 -204
-22 -223 3 -6 7 -33 7 -61 1 -36 9 -62 29 -93 28 -44 61 -82 73 -82 3 0 20
-10 37 -23 17 -13 45 -29 61 -35 37 -15 159 -18 200 -6 42 12 123 66 130 85 3
9 17 21 30 27 14 6 25 16 25 22 0 5 6 10 13 10 12 0 47 34 47 46 0 2 11 17 25
32 14 15 35 47 47 72 12 25 29 56 39 70 9 14 23 45 30 70 7 25 21 58 30 73 9
16 15 36 12 46 -2 10 2 44 10 77 8 32 15 66 16 74 3 76 20 154 34 165 9 7 17
16 17 22 0 5 14 22 31 39 17 16 39 45 50 64 11 19 24 42 29 50 5 8 34 68 64
133 31 64 60 117 66 117 6 0 8 5 5 10 -4 6 -1 27 6 48 7 20 13 39 14 42 0 3 3
10 6 15 8 12 21 69 25 105 1 14 12 66 23 115 12 50 24 108 27 130 10 74 11
220 1 233 -13 17 -3 70 26 133 14 30 39 97 57 149 17 52 35 99 41 106 7 9 38
95 44 124 0 3 17 39 37 80 60 126 118 257 118 269 0 6 12 37 27 68 26 57 45
100 78 178 10 22 33 72 51 111 19 38 34 73 34 77 0 7 28 70 83 187 23 47 54
83 67 75 5 -3 10 -1 10 4 0 6 7 11 15 11 8 0 19 9 25 19 5 11 18 22 27 26 18
5 83 103 83 124 0 6 5 20 10 31 6 11 15 29 20 40 6 11 10 28 10 37 0 10 7 31
15 47 8 15 15 44 15 63 0 19 7 62 15 95 9 33 13 69 9 81 -10 33 -35 57 -59 57
-11 0 -25 4 -30 9 -6 5 -28 14 -50 20 -55 17 -115 44 -115 54 0 4 -16 7 -35 7
-24 0 -37 -6 -45 -20z m145 -153 c54 -20 60 -25 61 -52 2 -32 -29 -166 -46
-200 -5 -11 -20 -46 -34 -77 -24 -55 -75 -118 -97 -118 -6 0 -17 -7 -25 -15
-8 -8 -23 -20 -32 -27 -17 -12 -102 -178 -117 -226 -4 -13 -19 -49 -35 -80
-15 -32 -35 -79 -45 -107 -10 -27 -24 -55 -32 -61 -7 -6 -13 -17 -13 -23 0 -7
-13 -41 -30 -76 -16 -35 -30 -71 -30 -79 0 -8 -4 -18 -10 -21 -5 -3 -10 -14
-10 -23 0 -25 -44 -129 -63 -150 -10 -10 -17 -27 -17 -38 0 -11 -4 -24 -8 -29
-5 -6 -16 -29 -25 -52 -9 -23 -25 -61 -36 -85 -10 -24 -29 -70 -42 -103 -12
-33 -30 -71 -39 -85 -10 -14 -22 -41 -29 -61 -6 -20 -24 -56 -40 -81 -15 -24
-34 -61 -40 -81 -12 -36 -33 -48 -46 -27 -3 6 -17 7 -30 4 -36 -9 -40 13 -12
69 13 29 32 71 41 95 9 23 27 60 41 82 14 22 25 45 25 52 0 12 19 52 63 133
22 40 77 161 77 169 0 3 23 54 51 114 28 59 59 127 70 152 11 25 29 63 40 85
10 22 19 46 19 53 0 7 10 29 23 50 12 20 33 60 45 87 13 28 27 58 33 67 5 10
9 22 9 27 0 6 13 32 28 58 85 146 105 230 90 376 -2 26 -2 47 2 47 6 0 18 20
75 130 53 100 90 150 110 149 11 0 47 -10 80 -22z m-980 -2038 c9 -13 54 -32
81 -33 21 -1 54 -23 52 -34 -1 -4 2 -15 7 -25 4 -9 3 -35 -3 -57 -5 -22 -8
-50 -5 -61 7 -27 -16 -69 -38 -69 -10 0 -30 5 -46 12 -15 6 -34 10 -41 9 -24
-4 -176 51 -199 72 l-22 20 70 66 c124 117 131 123 144 100z m-182 -286 c15
-3 27 -9 27 -13 0 -5 35 -15 78 -24 102 -22 152 -37 152 -48 0 -4 9 -8 20 -8
25 0 26 -25 3 -39 -10 -6 -15 -11 -11 -11 4 0 2 -15 -3 -32 -28 -91 -51 -176
-54 -198 -9 -62 -24 -113 -52 -172 -17 -34 -34 -78 -38 -95 -3 -18 -11 -33
-16 -33 -5 0 -9 -6 -9 -12 0 -13 -22 -41 -92 -124 -20 -24 -39 -53 -43 -64 -3
-11 -10 -20 -15 -20 -18 0 -32 -44 -36 -114 -2 -39 -7 -84 -9 -101 -3 -16 -7
-39 -9 -50 -5 -31 -38 -129 -48 -141 -5 -7 -19 -31 -32 -55 -49 -93 -81 -145
-106 -170 -14 -14 -41 -44 -60 -68 -33 -41 -37 -42 -78 -37 -24 3 -73 24 -111
46 -37 22 -73 40 -79 40 -7 0 -12 3 -12 8 0 4 -14 16 -30 27 -17 11 -35 35
-41 52 -15 47 -13 131 6 188 22 68 85 195 96 195 5 0 9 9 9 21 0 11 15 41 33
67 17 26 44 69 58 97 14 27 44 85 67 128 23 42 39 77 36 77 -3 0 2 7 10 16 9
8 14 20 10 25 -3 6 -2 15 3 22 18 24 35 97 47 202 5 51 27 149 37 167 5 10 9
23 9 29 0 15 69 128 98 159 12 14 25 33 28 43 3 9 10 17 15 17 5 0 9 6 9 13 0
6 12 19 28 27 25 15 28 15 52 -8 14 -12 37 -26 53 -29z m-600 -1646 c54 -25
65 -35 51 -50 -19 -19 -154 66 -154 96 l0 20 23 -20 c12 -11 48 -32 80 -46z"/>
<path d="M3945 3948 c-19 -18 -35 -38 -35 -45 0 -7 -6 -13 -12 -13 -7 0 -35
-17 -63 -38 -47 -35 -73 -53 -134 -95 -14 -9 -34 -20 -43 -23 -10 -4 -18 -10
-18 -15 0 -5 -10 -14 -22 -19 -13 -5 -45 -23 -73 -40 -27 -17 -58 -33 -67 -36
-10 -4 -18 -13 -18 -20 0 -8 -4 -14 -10 -14 -5 0 -10 -8 -10 -18 0 -10 -9 -35
-20 -57 -11 -22 -20 -46 -20 -54 0 -13 -17 -51 -86 -195 -13 -28 -24 -55 -24
-60 0 -6 -14 -24 -30 -40 l-30 -29 5 -111 c3 -61 6 -176 8 -255 l2 -145 -35
-16 c-52 -24 -224 -80 -247 -80 -11 0 -30 -11 -43 -25 -13 -14 -27 -25 -32
-25 -16 0 -131 -139 -137 -165 -1 -5 -13 -34 -27 -64 -14 -29 -27 -60 -29 -70
-5 -23 -66 -184 -75 -196 -7 -9 -22 -58 -25 -80 -4 -22 -17 -71 -25 -90 -15
-34 -24 -69 -22 -82 2 -7 -2 -21 -7 -31 -6 -10 -13 -41 -16 -68 -4 -27 -13
-71 -20 -99 -8 -27 -19 -77 -25 -110 -7 -33 -16 -64 -20 -70 -4 -5 -10 -23
-12 -40 -12 -71 -42 -165 -74 -228 -19 -37 -34 -75 -34 -83 0 -7 -8 -22 -18
-32 -10 -10 -28 -34 -40 -54 -26 -41 -73 -80 -123 -101 -34 -14 -62 -38 -102
-87 -17 -20 -21 -59 -18 -147 2 -45 86 -111 195 -153 43 -17 51 -18 70 -5 11
8 26 15 33 15 7 0 22 8 33 17 11 10 29 26 40 36 11 9 24 17 28 17 4 0 16 14
25 30 10 17 22 30 28 30 5 0 9 5 9 12 0 6 9 21 19 32 11 12 34 48 52 81 17 33
40 71 50 84 11 13 19 28 19 33 0 13 30 79 45 98 6 8 22 40 34 70 20 48 129
278 152 320 30 56 148 300 154 320 4 14 15 36 25 50 9 14 34 59 55 100 44 89
88 170 120 225 13 22 33 59 45 82 25 49 87 84 136 76 16 -2 35 -4 42 -4 29 2
39 1 72 -5 19 -4 45 -18 58 -31 20 -22 22 -31 16 -96 -3 -39 -12 -84 -20 -99
-8 -15 -14 -36 -14 -47 0 -24 -25 -102 -48 -151 -9 -19 -17 -37 -17 -40 -1 -3
-7 -18 -14 -35 -7 -16 -21 -54 -32 -84 -10 -30 -24 -58 -30 -61 -5 -4 -12 -13
-13 -21 -6 -34 -96 -202 -117 -219 -7 -6 -65 -109 -91 -162 -10 -21 -22 -38
-26 -38 -4 0 -14 -16 -21 -35 -7 -19 -17 -35 -22 -35 -5 0 -9 -7 -9 -15 0 -8
-16 -38 -35 -65 -19 -27 -35 -52 -35 -56 0 -3 -16 -25 -35 -48 -19 -24 -35
-46 -35 -51 0 -4 -11 -21 -25 -39 -14 -17 -29 -36 -34 -42 -5 -6 -12 -20 -15
-32 -4 -12 -11 -22 -16 -22 -5 0 -21 -27 -37 -60 -15 -33 -31 -60 -35 -60 -4
0 -8 -4 -8 -10 0 -5 -13 -38 -29 -72 -16 -35 -34 -79 -39 -98 -9 -36 -5 -97 8
-115 4 -5 10 -22 13 -36 14 -56 141 -111 235 -102 26 3 53 5 60 6 6 0 12 4 12
8 0 4 22 29 48 56 36 37 52 62 60 99 34 136 69 217 126 284 33 39 148 151 206
200 63 55 100 90 121 116 9 12 25 27 35 35 10 8 48 48 84 89 36 41 68 77 73
78 4 2 7 10 7 17 0 8 6 18 13 22 16 10 70 98 115 188 20 39 39 72 43 75 8 6
71 157 70 167 0 2 11 32 24 67 42 111 66 385 44 488 -12 54 -38 111 -55 121
-8 4 -14 14 -14 22 0 8 -9 30 -20 49 l-19 35 21 7 c12 3 31 15 42 26 12 11 36
26 54 35 17 8 32 19 32 24 0 5 5 9 11 9 5 0 45 27 87 60 43 33 83 60 89 60 6
0 14 12 18 27 5 23 87 201 131 286 8 16 12 33 8 38 -3 5 2 19 10 31 9 12 16
28 16 35 0 7 12 38 26 70 59 128 75 184 68 232 -3 25 -7 64 -9 86 -2 22 -7 63
-12 90 -11 67 -8 238 5 261 16 29 -12 60 -81 85 -34 12 -70 29 -81 38 -10 9
-20 15 -22 14 -2 -2 -5 -3 -6 -2 -2 0 -13 2 -26 5 -24 4 -75 -23 -67 -36 3 -4
-2 -10 -10 -14 -8 -3 -15 -12 -15 -20 0 -13 -27 -69 -49 -101 -4 -5 -13 -28
-20 -50 -8 -22 -22 -51 -31 -65 -10 -14 -21 -36 -25 -50 -4 -14 -18 -47 -31
-74 -28 -57 -31 -98 -9 -116 8 -7 15 -21 15 -31 0 -26 35 -41 86 -37 24 2 44
0 44 -3 0 -11 -44 -27 -90 -34 -60 -8 -70 -19 -70 -77 0 -65 33 -132 61 -125
16 4 18 3 9 -8 -9 -11 -18 -11 -43 -3 -18 6 -36 14 -42 18 -5 4 -29 11 -52 15
-24 4 -43 11 -43 16 0 17 -26 9 -48 -14 -12 -13 -22 -31 -22 -41 0 -21 -33
-83 -88 -163 -23 -34 -42 -64 -42 -67 0 -3 -11 -17 -26 -31 -27 -27 -45 -24
-84 15 -18 18 -18 60 0 60 5 0 6 9 3 19 -3 12 3 26 16 37 12 10 21 23 21 29 0
6 13 29 30 51 16 21 30 44 30 51 0 6 8 19 17 28 11 12 17 37 19 79 3 77 -8 85
-114 78 -55 -4 -73 -2 -68 7 4 6 13 11 19 10 58 -7 95 33 108 112 8 53 -3 89
-37 114 -18 13 -18 14 5 23 18 6 41 3 83 -11 l59 -20 21 22 c14 16 28 21 44
18 14 -2 27 -1 29 3 2 4 15 6 27 4 36 -6 61 24 103 124 22 50 43 92 47 92 4 0
8 8 8 19 0 28 41 121 54 121 11 0 17 84 6 92 -28 23 -86 50 -130 59 -30 6 -74
20 -97 30 l-42 18 -36 -31z m166 -145 c14 -14 -54 -199 -82 -223 -3 -3 -8 -12
-12 -22 -3 -9 -22 -19 -46 -23 -23 -4 -41 -11 -41 -16 0 -20 -50 -7 -79 20
-29 27 -52 35 -88 32 -7 -1 -25 -20 -40 -43 -16 -23 -47 -62 -70 -86 -59 -61
-59 -97 -3 -119 22 -9 40 -20 40 -24 0 -4 -25 -16 -56 -26 -61 -19 -75 -36
-76 -92 -1 -116 39 -173 115 -164 37 5 37 5 27 -21 -5 -14 -19 -39 -30 -54
-34 -46 -101 -233 -94 -264 3 -16 10 -28 15 -28 5 0 14 -11 20 -24 7 -14 31
-35 55 -47 25 -14 51 -38 63 -60 26 -46 27 -72 2 -42 -10 12 -44 31 -76 42
-50 18 -59 18 -72 6 -8 -8 -21 -15 -29 -15 -8 0 -14 -5 -14 -11 0 -5 -4 -8 -9
-5 -12 8 -25 -49 -22 -88 4 -44 68 -114 115 -127 63 -17 103 -4 121 38 8 19
15 54 15 77 l0 41 23 -26 c55 -65 67 -84 62 -100 -6 -18 49 -84 63 -75 16 10
40 -28 70 -109 53 -144 63 -188 57 -246 -13 -111 -27 -195 -37 -222 -6 -15
-12 -36 -13 -45 -3 -34 -18 -78 -40 -117 -13 -22 -26 -51 -30 -64 -4 -12 -18
-39 -31 -58 -13 -19 -35 -59 -50 -89 -14 -30 -30 -54 -34 -54 -4 0 -10 -10
-14 -23 -3 -12 -16 -33 -28 -47 -13 -13 -23 -27 -23 -31 0 -17 -179 -209 -195
-209 -6 0 -10 -6 -10 -12 0 -7 -32 -42 -72 -78 -141 -129 -276 -270 -300 -315
-32 -59 -68 -144 -68 -162 -1 -32 -25 -110 -39 -127 -21 -25 -65 -46 -80 -37
-7 4 -22 6 -34 4 -16 -3 -29 4 -45 27 -22 29 -25 63 -9 120 2 8 7 29 12 45 4
17 14 35 22 42 8 6 14 15 14 20 -1 17 12 49 29 68 10 11 28 40 40 65 21 42 78
129 91 140 3 3 13 19 22 36 9 17 23 37 32 44 9 8 26 32 37 54 11 23 33 59 50
81 53 73 139 218 202 340 34 66 74 139 89 163 15 23 25 42 22 42 -4 0 -3 6 2
13 4 6 17 39 29 72 35 95 59 156 83 208 12 26 29 74 37 105 8 31 22 72 30 90
23 50 21 65 -21 148 -31 61 -64 102 -150 189 -60 61 -122 127 -137 146 -36 48
-44 101 -52 339 -3 69 -7 157 -11 197 -5 63 -3 80 21 135 23 56 111 239 133
278 13 23 54 103 66 127 5 13 16 23 23 23 6 0 12 4 12 10 0 10 60 45 73 42 4
-1 7 2 7 7 0 5 21 22 48 37 26 15 53 34 61 42 8 7 26 21 40 30 14 9 44 30 66
48 66 52 91 61 146 54 27 -4 54 -11 60 -17z m384 -144 c3 -10 5 -42 4 -71 -1
-29 1 -91 5 -138 26 -300 25 -310 -32 -406 -16 -28 -33 -62 -37 -75 -4 -13
-13 -37 -20 -54 -8 -16 -25 -61 -38 -100 -65 -184 -98 -234 -191 -292 -23 -15
-43 -29 -46 -32 -3 -4 -27 -20 -55 -36 -122 -72 -149 -70 -200 20 -37 65 -39
92 -10 121 14 14 25 34 25 44 0 12 7 20 17 20 9 0 13 3 10 7 -4 3 1 16 11 27
10 12 40 56 66 99 l48 78 41 -6 c23 -4 50 -12 62 -18 11 -6 27 -11 35 -12 8
-1 24 -5 35 -8 16 -5 28 6 65 61 55 83 60 129 16 167 l-28 24 44 12 c75 21
124 89 99 137 -5 9 -17 43 -27 74 -10 31 -22 54 -27 51 -4 -3 -24 -5 -43 -5
-19 0 -31 -4 -28 -9 3 -5 -4 -9 -15 -9 -22 0 -29 24 -11 35 6 3 15 26 21 51 6
24 15 44 18 44 4 0 15 25 25 55 9 30 21 55 27 55 5 0 9 9 9 19 0 11 14 31 30
44 17 14 30 35 30 46 0 18 3 19 30 10 16 -6 32 -19 35 -30z m-1174 -1275 c15
-21 36 -50 48 -63 37 -42 32 -47 -70 -80 -19 -6 -41 -11 -48 -11 -6 0 -17 -4
-24 -10 -7 -5 -26 -21 -42 -34 -30 -24 -85 -120 -85 -148 0 -8 -8 -23 -17 -34
-10 -11 -47 -78 -83 -149 -36 -70 -71 -134 -78 -142 -7 -7 -9 -13 -3 -13 5 0
2 -17 -8 -37 -65 -137 -116 -235 -123 -239 -4 -3 -8 -11 -8 -18 0 -8 -7 -31
-17 -52 -9 -22 -17 -49 -19 -60 -1 -12 -13 -41 -25 -65 -13 -24 -23 -47 -24
-51 0 -3 -3 -10 -8 -14 -4 -4 -19 -33 -33 -63 -70 -152 -111 -230 -117 -224
-4 3 -7 -2 -7 -12 0 -10 -10 -32 -23 -49 -12 -17 -28 -42 -35 -56 -22 -43 -39
-70 -55 -88 -109 -118 -114 -122 -149 -122 -23 0 -44 8 -61 24 -14 13 -31 26
-38 28 -8 3 -13 20 -12 42 1 41 11 51 82 87 50 25 111 76 111 93 0 6 12 25 28
41 15 17 40 57 56 90 15 33 42 87 58 121 31 64 33 70 73 234 14 58 30 114 35
125 5 11 11 38 13 60 2 22 12 66 21 98 9 32 16 67 16 78 0 11 12 52 26 92 26
71 36 104 55 182 6 21 16 53 23 70 34 76 56 135 56 147 0 7 9 24 20 38 11 14
20 33 20 43 0 9 9 26 20 37 11 11 20 25 20 31 0 18 69 76 122 104 43 23 173
68 223 77 15 3 25 -6 40 -33 11 -20 32 -54 46 -75z m337 40 c25 -17 31 -64 7
-64 -15 0 -85 59 -85 72 0 14 55 8 78 -8z m-238 -155 c0 -6 -4 -7 -10 -4 -5 3
-10 11 -10 16 0 6 5 7 10 4 6 -3 10 -11 10 -16z"/>
</g>
</svg>
