<?xml version="1.0" standalone="no"?>
<!DOCTYPE svg PUBLIC "-//W3C//DTD SVG 20010904//EN"
 "http://www.w3.org/TR/2001/REC-SVG-20010904/DTD/svg10.dtd">
<svg version="1.0" xmlns="http://www.w3.org/2000/svg"
 width="555.000000pt" height="339.000000pt" viewBox="0 0 555.000000 339.000000"
 preserveAspectRatio="xMidYMid meet">
<metadata>
Created by potrace 1.16, written by Peter Selinger 2001-2019
</metadata>
<g transform="translate(0.000000,339.000000) scale(0.100000,-0.100000)"
fill="#000000" stroke="none">
<path d="M1242 3055 c-17 -14 -34 -25 -39 -25 -10 0 -89 -63 -146 -115 -20
-19 -42 -35 -48 -35 -6 0 -32 -15 -58 -33 -25 -19 -72 -48 -103 -66 -31 -17
-58 -35 -60 -39 -2 -4 -21 -19 -43 -32 -22 -13 -62 -41 -90 -61 -27 -20 -60
-40 -72 -44 -29 -8 -37 -41 -29 -112 5 -43 13 -61 32 -78 25 -22 100 -51 118
-46 5 1 16 -1 25 -5 9 -4 30 -8 46 -9 17 0 56 -13 89 -28 46 -21 57 -31 53
-46 -2 -10 0 -25 4 -34 7 -12 0 -17 -38 -25 -40 -9 -58 -7 -105 9 -72 24 -130
70 -193 154 -18 23 -26 26 -51 21 -27 -6 -30 -11 -29 -39 3 -46 29 -90 81
-134 73 -61 173 -106 234 -105 45 1 139 22 165 38 25 15 85 16 85 2 0 -6 19
-28 41 -50 39 -38 44 -40 84 -35 37 6 48 2 80 -23 21 -17 42 -30 46 -30 5 0 9
-7 9 -15 0 -8 6 -15 13 -15 7 0 26 -13 42 -30 16 -16 35 -30 42 -30 25 0 113
-62 178 -125 16 -16 46 -38 65 -49 36 -19 72 -45 116 -83 15 -12 39 -28 55
-35 16 -7 29 -18 29 -23 0 -6 15 -19 34 -29 69 -37 54 -43 -95 -41 l-139 1
-29 -30 c-28 -29 -86 -139 -145 -271 -14 -33 -30 -65 -34 -71 -4 -6 -25 -38
-46 -70 -96 -145 -196 -334 -196 -372 0 -22 6 -31 23 -37 12 -3 17 -8 12 -11
-10 -4 -10 -132 1 -232 7 -65 24 -76 119 -79 39 0 96 -2 128 -2 48 -2 57 -5
57 -20 0 -29 38 -108 55 -115 8 -3 15 -12 15 -19 0 -22 21 -35 86 -52 75 -19
196 -6 264 30 57 29 146 112 159 147 6 16 18 28 28 29 93 2 279 -1 423 -7 184
-9 413 -8 528 2 37 3 85 4 107 2 22 -1 63 -2 90 -1 50 1 50 0 79 -48 43 -71
66 -93 121 -122 90 -45 187 -42 282 11 39 22 94 99 100 140 l5 39 126 -5 c141
-5 185 7 197 56 4 15 24 63 46 109 21 45 39 87 39 93 0 17 33 114 40 120 10 7
73 131 132 260 12 25 25 53 30 62 4 10 8 23 8 30 0 7 7 26 15 42 9 16 13 37 9
45 -4 9 -8 18 -8 21 -1 3 -7 14 -13 25 -10 19 -19 60 -28 134 -4 32 -22 81
-45 123 -6 10 -10 25 -10 33 0 8 -8 23 -18 33 -19 19 -146 26 -485 27 l-168 0
-5 25 c-3 14 -12 52 -19 84 -8 32 -12 63 -9 67 3 5 -2 23 -10 41 -8 18 -20 51
-27 73 -19 61 -57 112 -100 135 -22 11 -45 20 -51 20 -6 0 -19 6 -27 13 -9 8
-43 20 -76 27 -33 7 -64 16 -70 19 -5 3 -35 7 -65 8 -52 2 -119 9 -130 14 -3
1 -7 1 -10 1 -3 0 -53 -3 -110 -6 -58 -3 -136 -9 -175 -12 -142 -12 -138 -12
-170 18 -16 15 -68 54 -115 85 -47 32 -86 61 -88 66 -2 4 -8 7 -14 7 -5 0 -22
9 -36 20 -36 28 -192 130 -199 130 -2 0 -10 6 -18 13 -7 6 -35 27 -62 45 -113
78 -218 156 -221 163 -2 5 -10 9 -18 9 -8 0 -17 7 -20 15 -3 8 -15 17 -25 20
-11 4 -42 28 -70 55 -28 27 -52 49 -55 49 -2 1 -7 1 -11 1 -5 0 -28 18 -52 40
-24 22 -52 42 -62 45 -11 4 -19 11 -19 16 0 5 -6 9 -14 9 -7 0 -26 12 -42 27
-16 15 -32 28 -36 28 -3 0 -15 10 -25 21 -19 23 -89 47 -105 38 -5 -4 -18 3
-29 15 -11 12 -24 19 -29 16 -5 -3 -11 -1 -15 5 -11 19 -63 10 -93 -15z m128
-143 c0 -4 -19 -17 -42 -30 -24 -12 -56 -35 -73 -50 -49 -45 -106 -86 -175
-127 -36 -21 -76 -48 -90 -61 -24 -22 -159 -104 -171 -104 -14 0 19 93 37 103
10 6 28 19 39 29 10 10 49 35 85 54 36 20 102 67 147 105 45 38 107 84 139
103 l58 35 23 -25 c13 -14 23 -28 23 -32z m181 -93 c24 -22 62 -53 84 -68 44
-31 194 -137 210 -149 6 -4 39 -29 75 -56 36 -27 72 -55 80 -63 8 -7 42 -31
75 -53 146 -96 207 -138 235 -163 16 -15 40 -29 54 -33 13 -3 32 -14 42 -25 9
-10 21 -19 25 -19 5 0 48 -28 96 -62 76 -55 85 -63 63 -66 -14 -2 -49 -14 -78
-28 -29 -13 -59 -24 -67 -24 -7 0 -20 -6 -27 -13 -7 -7 -34 -23 -61 -36 -26
-12 -50 -28 -55 -34 -4 -7 -19 -18 -34 -26 -16 -8 -28 -18 -28 -23 0 -5 -11
-21 -25 -36 -14 -15 -25 -34 -25 -43 0 -9 -13 -34 -28 -55 -34 -46 -62 -102
-62 -121 0 -17 -15 -17 -32 0 -7 7 -29 24 -48 37 -48 33 -51 36 -85 66 -16 15
-41 34 -55 42 -14 9 -50 37 -80 63 -30 25 -76 60 -102 77 -25 18 -52 38 -60
45 -7 7 -47 32 -88 56 -41 25 -76 48 -78 53 -2 4 -8 8 -13 8 -6 0 -15 5 -22
10 -7 6 -28 24 -47 41 -19 17 -47 37 -62 45 -26 14 -27 15 -11 42 16 28 16 30
-11 65 -16 21 -34 37 -41 37 -6 0 -20 10 -31 22 -10 11 -39 34 -63 50 -36 22
-56 28 -102 28 -32 0 -60 -4 -64 -10 -7 -11 -55 8 -55 22 0 5 -3 7 -7 5 -5 -3
-17 -1 -28 3 -19 7 -18 8 6 18 15 6 29 16 32 24 2 7 22 22 43 33 83 42 218
139 342 247 24 20 60 42 80 49 39 13 62 31 62 48 0 22 28 10 71 -30z m1759
-813 c14 -2 43 -7 65 -12 22 -4 42 -8 45 -9 3 0 25 -9 48 -19 42 -19 98 -89
122 -151 22 -59 3 -155 -32 -155 -6 0 -18 -9 -28 -20 -17 -20 -139 -76 -182
-84 -13 -3 -23 -5 -23 -6 0 -8 -153 -30 -245 -35 -58 -4 -107 -7 -110 -8 -18
-3 -271 16 -300 23 -19 5 -46 11 -60 14 -82 14 -216 77 -256 118 -45 47 -53
67 -43 101 16 56 122 124 269 172 30 10 60 21 65 26 6 4 42 13 80 19 37 6 72
13 76 15 4 3 85 8 180 11 96 3 176 8 179 11 4 4 70 -1 150 -11z m-1030 -400
c0 -17 122 -85 202 -113 88 -30 90 -30 203 -49 139 -24 473 -19 542 7 13 5 35
9 48 9 61 0 264 82 316 128 l36 31 17 -57 c10 -31 22 -62 26 -67 5 -6 11 -28
14 -50 2 -22 14 -64 25 -94 11 -29 20 -56 19 -60 -1 -3 2 -13 5 -21 13 -32 14
-85 1 -100 -8 -8 -25 -29 -38 -45 -25 -31 -119 -73 -251 -110 -33 -10 -78 -24
-100 -33 -22 -8 -94 -25 -160 -37 l-119 -22 -58 59 c-51 51 -61 57 -78 48 -24
-13 -27 -11 -83 40 -80 73 -100 90 -108 90 -5 0 -18 8 -28 18 -23 20 -83 62
-196 134 -44 29 -82 54 -85 57 -12 14 -129 91 -138 91 -6 0 -12 3 -14 8 -1 4
-22 20 -45 35 l-42 29 25 55 c13 31 24 58 24 61 0 3 9 -3 20 -13 11 -10 20
-23 20 -29z m1805 -120 c22 -1 88 -3 147 -4 l108 -2 -6 -32 c-4 -18 -12 -42
-19 -54 -7 -11 -19 -40 -26 -65 -7 -24 -16 -46 -19 -49 -5 -5 -40 -130 -45
-160 -8 -56 -19 -101 -26 -106 -5 -3 -9 -12 -9 -20 0 -14 -30 -90 -50 -126 -6
-10 -10 -23 -10 -30 0 -7 -7 -21 -15 -31 -18 -25 -42 -27 -530 -33 -225 -2
-432 -6 -460 -9 -136 -11 -195 -13 -195 -6 0 9 38 24 53 22 12 -2 77 39 77 49
0 8 64 25 133 35 53 7 130 26 142 35 6 4 24 10 40 14 49 11 169 47 188 58 10
5 46 18 80 28 34 11 76 32 93 47 32 30 94 117 94 134 0 6 3 8 8 6 4 -3 14 10
23 29 13 28 14 38 4 58 -7 13 -18 54 -24 92 -7 38 -19 79 -26 91 -13 20 -13
22 6 28 11 4 23 5 25 2 3 -3 17 -1 32 3 15 5 59 6 97 3 39 -2 88 -6 110 -7z
m-2075 -50 c0 -1 -13 -39 -30 -84 -16 -46 -30 -91 -30 -101 0 -61 162 -228
270 -278 190 -88 454 -163 577 -163 35 0 73 -18 73 -36 0 -5 -290 2 -390 10
-209 16 -255 19 -380 23 -74 2 -151 4 -170 5 -33 1 -118 -3 -395 -18 -126 -8
-145 -7 -153 1 -4 3 -1 10 7 14 7 5 12 11 12 15 -2 7 20 46 49 91 11 17 23 38
26 48 4 9 10 17 15 17 10 0 67 111 94 183 10 26 22 47 26 47 5 0 9 8 9 17 0
26 80 182 99 192 9 5 35 8 59 6 23 -1 45 1 47 6 4 6 185 11 185 5z m347 -158
c51 -38 96 -68 99 -68 4 0 30 -17 58 -38 28 -21 83 -60 123 -86 40 -27 70 -53
67 -58 -3 -4 1 -8 9 -8 9 0 44 -28 79 -62 l63 -61 -82 5 c-45 4 -88 10 -95 15
-7 4 -40 13 -73 20 -141 27 -358 120 -420 181 -22 21 -48 41 -58 45 -9 4 -20
15 -24 24 -4 10 -13 24 -20 32 -14 14 -11 34 12 86 7 17 19 44 26 60 28 65 28
65 236 -87z m2068 3 c4 -30 3 -62 -3 -75 -5 -11 -20 -48 -32 -81 -30 -78 -141
-306 -159 -324 -7 -8 -22 -35 -33 -60 -12 -27 -23 -40 -25 -32 -3 7 -1 16 5
20 5 3 16 26 23 51 7 25 19 54 26 66 7 11 10 24 6 27 -3 4 1 15 11 26 9 10 19
27 21 37 3 11 14 45 25 77 11 32 23 79 26 105 5 40 63 217 81 246 9 13 19 -19
28 -83z m-2257 -566 c103 -2 230 -8 282 -14 52 -6 165 -13 250 -16 85 -3 182
-9 215 -13 33 -5 78 -5 100 -1 34 6 432 24 475 21 8 -1 49 -1 90 0 66 1 129 1
310 -1 25 -1 82 1 127 4 94 5 91 7 91 -102 0 -62 0 -62 -31 -67 -43 -7 -176
-3 -171 5 11 18 -43 91 -81 111 -61 33 -193 50 -233 29 -9 -5 -48 -24 -86 -42
-73 -35 -126 -82 -126 -111 0 -10 -6 -18 -12 -19 -7 0 -24 -2 -38 -4 -74 -9
-408 -21 -490 -16 -19 1 -54 0 -78 -1 -23 -2 -42 0 -42 3 0 7 -156 11 -381 10
-112 0 -129 2 -147 20 -12 10 -25 19 -30 19 -5 0 -16 15 -23 33 -12 29 -37 62
-81 108 -9 10 -35 23 -57 30 -23 7 -41 16 -41 21 0 5 5 6 10 3 6 -4 95 -8 198
-10z m-383 -2 c-10 -3 -29 -12 -42 -20 -13 -9 -23 -12 -23 -9 0 7 -82 -66
-101 -89 -40 -47 -59 -75 -59 -84 0 -12 -40 -16 -141 -12 -23 1 -26 5 -24 34
2 17 3 62 4 98 l1 66 83 9 c89 10 334 16 302 7z m187 -146 c47 -27 78 -69 78
-103 0 -16 -36 -70 -67 -102 -7 -8 -18 -22 -23 -33 -6 -11 -34 -25 -67 -35
-53 -15 -60 -15 -110 0 -47 15 -56 22 -77 64 -20 39 -22 55 -16 95 4 26 5 47
3 47 -8 0 84 83 99 89 9 3 43 6 75 6 45 0 68 -6 105 -28z m1768 -17 c18 -18
25 -40 21 -64 -1 -5 3 -12 10 -16 30 -19 -2 -160 -37 -160 -8 0 -28 -7 -44
-15 -17 -9 -30 -12 -30 -8 0 5 -15 8 -33 9 -47 1 -88 24 -111 63 -15 26 -17
37 -8 52 8 13 8 26 1 49 -12 33 0 60 27 60 8 0 14 4 14 10 0 5 16 12 35 16 19
3 38 10 41 15 11 18 93 10 114 -11z"/>
<path d="M5203 1531 c-106 -77 -165 -219 -113 -271 20 -20 49 -18 51 4 1 6 0
22 0 36 -5 68 85 194 129 183 16 -4 20 -1 20 18 -1 55 -36 67 -87 30z"/>
<path d="M613 1483 c-37 -14 8 -85 50 -79 25 3 29 11 22 50 -6 31 -11 36 -34
35 -14 0 -32 -3 -38 -6z"/>
<path d="M942 1446 c-25 -28 -18 -52 19 -65 25 -9 33 -7 49 9 24 24 17 45 -20
64 -26 13 -30 12 -48 -8z"/>
<path d="M1346 1411 c-12 -21 -12 -30 -1 -44 23 -32 85 -13 85 27 0 17 -8 25
-35 33 -33 11 -36 10 -49 -16z"/>
<path d="M1191 1396 c-14 -17 1 -61 24 -70 23 -8 55 11 55 34 0 19 -35 50 -56
50 -6 0 -17 -6 -23 -14z"/>
<path d="M5384 1388 c-41 -31 -67 -58 -87 -89 -15 -25 -15 -28 1 -42 22 -20
58 -6 74 28 6 14 26 34 45 45 26 15 33 26 33 50 0 37 -23 40 -66 8z"/>
<path d="M4915 1351 c-29 -29 -39 -42 -57 -76 -39 -71 -66 -135 -58 -135 5 0
7 -6 4 -13 -7 -20 21 -40 46 -32 13 4 20 15 20 30 0 26 65 171 81 180 13 8 11
28 -4 49 -12 16 -14 16 -32 -3z"/>
<path d="M4718 1321 c-16 -9 -28 -21 -28 -27 0 -6 -9 -19 -20 -29 -29 -26 -60
-101 -60 -145 0 -53 18 -100 40 -100 29 0 38 22 35 80 -3 56 12 108 43 145 34
40 42 62 29 78 -11 12 -15 12 -39 -2z"/>
<path d="M1005 1304 c-9 -9 -15 -28 -13 -43 2 -21 8 -26 32 -26 33 0 48 27 35
63 -10 26 -31 28 -54 6z"/>
<path d="M576 1294 c-19 -51 9 -103 44 -81 27 16 27 72 1 87 -27 14 -38 13
-45 -6z"/>
<path d="M800 1255 c-20 -24 -4 -65 24 -65 24 0 56 23 56 40 0 5 3 15 6 24 5
13 -1 16 -34 16 -23 0 -45 -6 -52 -15z"/>
<path d="M1312 1250 c-18 -29 -15 -46 11 -62 21 -14 56 -14 58 0 0 4 2 17 5
28 2 15 -4 27 -21 38 -31 21 -38 20 -53 -4z"/>
<path d="M5483 1178 c-64 -136 -65 -150 -8 -146 32 2 34 4 51 67 23 87 24 135
3 139 -12 2 -25 -16 -46 -60z"/>
<path d="M346 1175 c-10 -50 11 -74 49 -57 36 17 35 59 -2 68 -16 4 -31 11
-34 17 -4 5 -10 -8 -13 -28z"/>
<path d="M716 1067 c-27 -20 -17 -59 17 -68 20 -6 30 -4 34 7 3 8 11 14 19 14
17 0 18 32 2 48 -16 16 -50 15 -72 -1z"/>
<path d="M5031 1033 c-6 -21 -15 -58 -21 -83 -6 -25 -12 -53 -15 -62 -13 -54
-39 -145 -47 -160 -12 -25 17 -51 42 -38 26 14 34 32 53 115 38 167 48 237 36
251 -20 24 -38 15 -48 -23z"/>
<path d="M5300 1038 c-17 -18 -42 -57 -56 -86 -44 -91 -12 -131 63 -79 31 21
45 57 23 57 -17 0 -11 24 15 54 31 36 34 86 6 86 -11 0 -34 -15 -51 -32z"/>
<path d="M1136 1045 c-30 -30 27 -82 59 -55 21 17 19 47 -4 60 -27 14 -37 13
-55 -5z"/>
<path d="M458 1028 c-25 -26 -22 -53 7 -66 31 -14 58 -16 51 -3 -4 5 -1 11 5
13 7 2 9 15 5 35 -9 37 -42 48 -68 21z"/>
<path d="M912 975 c-14 -30 -15 -54 -4 -56 58 -10 87 11 76 55 -9 36 -56 37
-72 1z"/>
<path d="M4837 973 c-16 -18 -54 -101 -64 -138 -11 -43 -10 -92 4 -140 8 -28
25 -88 37 -135 22 -82 24 -85 51 -83 15 1 30 5 33 7 7 8 -15 105 -44 193 -31
91 -30 138 1 210 34 77 23 131 -18 86z"/>
<path d="M165 972 c-6 -4 -11 -19 -13 -33 -2 -19 3 -28 23 -37 39 -18 52 -15
57 13 8 41 -36 79 -67 57z"/>
<path d="M4656 882 c-6 -18 -61 -82 -71 -82 -2 0 -19 9 -38 20 -53 32 -83 14
-136 -80 -20 -38 -19 -159 3 -192 10 -15 25 -29 34 -31 24 -5 72 31 72 53 0
18 -25 34 -40 25 -4 -3 -11 12 -15 32 -4 23 -2 38 5 43 6 4 10 11 9 16 -3 20
2 41 14 58 13 18 15 17 53 -2 36 -18 41 -19 64 -4 14 9 28 21 32 27 3 6 18 23
33 39 19 20 25 37 23 60 -3 36 -33 48 -42 18z"/>
<path d="M5509 792 c-27 -32 -36 -47 -74 -123 -15 -30 -33 -66 -41 -81 -18
-34 -18 -77 0 -84 30 -11 54 16 82 93 16 43 39 96 51 118 22 39 31 105 15 105
-5 0 -20 -13 -33 -28z"/>
<path d="M647 783 c-28 -7 -17 -55 17 -71 21 -11 30 -11 42 -2 20 18 17 57 -5
70 -20 10 -24 11 -54 3z"/>
<path d="M806 769 c-30 -44 -14 -79 34 -74 14 1 30 3 36 4 13 1 14 51 2 51 -5
0 -8 7 -8 16 0 11 -5 14 -17 10 -9 -4 -20 -2 -23 5 -5 7 -13 3 -24 -12z"/>
<path d="M990 780 c-34 -8 -40 -52 -9 -74 20 -13 25 -13 51 0 56 29 21 90 -42
74z"/>
<path d="M315 750 c-15 -17 -15 -20 0 -43 14 -23 19 -24 50 -14 24 7 35 16 35
29 0 42 -55 61 -85 28z"/>
<path d="M5265 713 c-63 -15 -156 -190 -123 -230 24 -29 45 -14 74 55 31 73
62 121 81 121 14 1 27 37 18 51 -6 10 -16 11 -50 3z"/>
<path d="M126 587 c-45 -40 -3 -84 58 -61 24 9 19 37 -9 62 l-25 21 -24 -22z"/>
<path d="M400 585 c-16 -29 -3 -50 36 -58 20 -4 27 1 35 22 7 17 7 27 0 29 -6
2 -11 10 -11 18 0 24 -45 16 -60 -11z"/>
<path d="M633 573 c-21 -8 -16 -61 6 -68 34 -10 71 5 71 29 0 30 -45 53 -77
39z"/>
<path d="M902 564 c-15 -16 -8 -46 14 -69 21 -21 29 -19 49 11 33 50 -24 103
-63 58z"/>
</g>
</svg>
