<?xml version="1.0" standalone="no"?>
<!DOCTYPE svg PUBLIC "-//W3C//DTD SVG 20010904//EN"
 "http://www.w3.org/TR/2001/REC-SVG-20010904/DTD/svg10.dtd">
<svg version="1.0" xmlns="http://www.w3.org/2000/svg"
 width="513.000000pt" height="255.000000pt" viewBox="0 0 513.000000 255.000000"
 preserveAspectRatio="xMidYMid meet">
<metadata>
Created by potrace 1.16, written by Peter Selinger 2001-2019
</metadata>
<g transform="translate(0.000000,255.000000) scale(0.100000,-0.100000)"
fill="#000000" stroke="none">
<path d="M4413 2455 c-10 -7 -65 -18 -123 -24 -57 -6 -109 -16 -114 -21 -6 -6
-30 -10 -55 -10 -26 0 -77 -6 -116 -13 -38 -8 -84 -12 -102 -10 -18 2 -62 -5
-98 -16 -36 -12 -71 -20 -77 -18 -15 3 -41 -71 -35 -100 4 -21 2 -22 -37 -17
-23 3 -66 12 -96 19 -30 8 -104 16 -165 20 -60 3 -148 8 -195 11 -47 3 -106 1
-130 -5 -25 -6 -114 -13 -197 -16 -139 -5 -260 -21 -323 -44 -14 -5 -74 -24
-135 -41 -60 -17 -119 -35 -130 -40 -37 -17 -219 -69 -330 -95 -183 -43 -298
-51 -445 -31 -69 10 -156 21 -195 26 -38 4 -104 17 -145 28 -185 50 -260 66
-335 69 -92 5 -196 -10 -275 -40 -63 -23 -147 -82 -156 -109 -3 -10 -16 -26
-30 -34 -13 -9 -24 -21 -24 -26 0 -5 -9 -22 -20 -37 -35 -50 -51 -117 -52
-219 -2 -173 19 -342 43 -342 6 0 7 -5 4 -11 -9 -13 14 -31 90 -72 57 -30 65
-32 172 -32 76 0 116 4 125 12 6 7 20 13 30 13 28 0 241 72 256 87 7 7 20 13
28 13 8 0 33 8 57 19 23 10 76 29 117 41 41 12 82 24 90 27 25 9 62 15 110 17
25 2 50 4 55 5 16 4 176 1 217 -3 21 -3 40 0 43 5 4 5 13 5 23 0 56 -28 77
-35 110 -34 72 1 137 2 172 1 76 -2 251 12 267 20 33 17 162 44 173 37 7 -4
22 -3 33 3 28 13 107 39 172 57 28 8 70 20 95 28 25 8 69 17 99 21 86 10 142
27 134 40 -4 6 0 6 9 -2 11 -9 47 -12 124 -9 73 2 124 -1 154 -11 25 -7 77
-15 116 -16 39 -1 83 -9 100 -18 16 -9 48 -24 71 -34 24 -11 45 -26 49 -34 6
-15 18 -120 30 -275 4 -55 1 -103 -9 -155 -9 -41 -17 -112 -18 -157 -1 -46
-10 -120 -19 -165 -44 -217 -51 -289 -31 -325 6 -13 18 -23 27 -23 8 0 25 -6
37 -14 12 -8 41 -17 64 -21 24 -4 45 -11 49 -16 3 -5 18 -9 34 -9 16 0 32 -5
35 -10 4 -6 10 -8 13 -6 4 2 30 0 57 -6 28 -6 64 -12 80 -13 70 -7 231 -19
237 -17 4 1 42 4 85 8 43 3 105 10 138 15 33 5 67 10 75 10 14 0 183 46 205
55 6 3 33 18 60 34 28 16 62 35 76 42 14 7 47 31 72 53 25 22 58 48 72 58 29
21 36 77 10 77 -20 0 -19 15 2 36 13 13 14 19 5 22 -7 2 -10 8 -7 12 3 5 -2
17 -12 27 -23 23 -43 68 -43 96 0 27 -28 104 -50 137 -9 14 -27 57 -39 95 -12
39 -39 106 -60 150 -21 44 -43 105 -50 135 -6 30 -20 79 -30 109 -17 53 -17
55 1 73 18 18 22 62 9 108 -4 14 -4 41 0 60 4 19 10 85 13 145 5 109 13 155
26 165 10 7 -18 114 -30 118 -6 2 -10 7 -10 12 0 5 -5 21 -12 37 -6 15 -12 34
-14 40 -1 7 -13 25 -26 41 -12 16 -46 58 -74 93 -92 114 -139 144 -181 114z
m17 -105 c22 0 85 -60 137 -131 36 -49 73 -111 73 -122 0 -23 -165 -38 -250
-24 -32 6 -239 16 -335 17 -33 0 -48 7 -78 35 -20 19 -40 35 -45 35 -4 0 -31
23 -61 51 -64 59 -60 69 31 75 87 6 215 24 242 34 12 4 49 11 81 15 33 3 76
10 95 15 19 5 48 7 64 4 16 -2 36 -4 46 -4z m-1050 -174 c25 -2 88 -8 140 -15
142 -17 200 -41 218 -89 50 -134 71 -284 52 -364 -6 -24 -13 -57 -15 -75 -7
-42 -22 -83 -32 -83 -5 0 -24 8 -43 18 -59 31 -211 79 -290 92 -41 6 -100 16
-131 21 -31 5 -81 10 -110 10 -85 1 -286 -19 -308 -30 -11 -6 -39 -11 -63 -11
-24 -1 -61 -8 -83 -16 -22 -9 -74 -27 -115 -40 -41 -14 -79 -26 -85 -28 -5 -2
-13 -3 -16 -2 -3 0 -12 -4 -20 -11 -8 -6 -43 -14 -79 -18 -36 -3 -92 -13 -125
-21 -73 -18 -464 -22 -509 -4 -37 14 -299 20 -401 9 -44 -5 -111 -19 -150 -32
-38 -13 -98 -33 -133 -43 -34 -10 -62 -22 -62 -26 0 -16 -311 -119 -391 -129
-86 -11 -159 9 -199 53 -25 27 -29 42 -41 156 -15 148 -13 253 6 299 15 35 63
100 109 146 28 28 28 28 43 8 8 -12 22 -21 32 -21 9 0 22 -5 29 -12 14 -14 16
-94 3 -102 -4 -3 -16 -33 -26 -68 -9 -34 -32 -96 -50 -137 -35 -82 -54 -161
-37 -161 6 0 17 -3 25 -6 11 -4 19 6 28 33 12 37 42 97 60 119 5 6 6 14 2 17
-3 4 -1 7 5 7 6 0 14 10 18 23 4 12 20 51 36 87 37 80 39 91 40 161 0 48 -4
60 -31 89 -17 19 -31 38 -31 42 0 5 15 9 33 9 17 1 43 3 57 5 59 7 119 6 175
-5 115 -22 195 -43 195 -51 0 -4 11 -6 24 -5 14 2 42 -1 63 -6 85 -21 140 -31
183 -36 25 -2 72 -8 104 -13 32 -5 62 -7 67 -5 4 3 19 1 33 -5 40 -15 334 15
371 38 6 4 15 7 20 8 56 9 149 32 235 61 58 18 112 35 120 37 8 1 33 10 55 20
22 9 60 22 85 28 25 5 77 19 115 31 39 11 87 21 107 23 21 1 52 6 70 10 18 4
38 6 43 5 19 -6 275 6 282 13 5 4 167 0 293 -8z m537 -142 c12 -19 14 -38 9
-82 -3 -31 -9 -160 -12 -286 -3 -126 -7 -233 -10 -238 -3 -5 0 -16 7 -24 16
-19 6 -107 -22 -199 -54 -178 -116 -352 -129 -365 -7 -7 -44 -95 -65 -152 -15
-44 -35 -65 -35 -35 1 16 18 135 24 167 3 14 7 63 10 110 2 47 7 92 10 100 21
61 27 253 11 375 -7 55 -7 58 9 43 18 -18 47 -14 43 5 -1 7 11 14 28 15 16 2
33 9 37 15 10 15 32 87 33 107 0 8 7 42 14 74 15 70 7 255 -14 316 -7 21 -16
54 -19 73 l-6 35 31 -15 c16 -8 37 -26 46 -39z m368 -40 c108 -7 323 -6 336 1
4 3 13 3 21 0 19 -8 15 -207 -8 -330 -1 -5 -2 -22 -3 -36 -1 -23 -8 -28 -48
-39 -27 -6 -57 -15 -68 -20 -36 -13 -115 -30 -144 -30 -17 0 -42 -5 -57 -10
-15 -6 -57 -12 -93 -14 -77 -3 -108 -17 -121 -52 -14 -36 7 -64 47 -64 18 0
33 5 33 10 0 6 12 10 27 10 15 0 54 6 87 14 34 8 90 20 126 27 36 7 90 20 121
29 l56 17 36 -111 c21 -61 37 -116 37 -123 0 -12 42 -96 59 -117 4 -6 23 -51
41 -101 44 -122 44 -123 71 -180 13 -27 25 -65 27 -83 2 -18 12 -63 22 -99
l18 -67 -71 -68 c-39 -37 -75 -68 -79 -68 -4 0 -31 -11 -60 -24 -73 -32 -180
-67 -209 -68 -13 0 -52 -7 -87 -15 -64 -14 -348 -22 -387 -10 -11 3 -42 8 -70
12 -86 10 -115 17 -115 27 0 6 -6 8 -13 5 -13 -5 -110 35 -135 55 -10 8 -10
14 0 25 30 37 103 187 113 234 4 19 27 72 50 119 23 47 46 100 50 119 4 18 16
49 27 67 11 19 17 34 13 34 -4 0 -3 6 3 13 6 7 13 26 16 42 3 16 12 52 20 80
23 79 50 227 48 259 -2 16 -7 35 -12 41 -17 21 -10 360 9 431 9 34 17 43 39
47 15 3 43 10 62 15 19 5 42 8 50 6 8 -2 60 -6 115 -10z"/>
</g>
</svg>
