<?xml version="1.0" standalone="no"?>
<!DOCTYPE svg PUBLIC "-//W3C//DTD SVG 20010904//EN"
 "http://www.w3.org/TR/2001/REC-SVG-20010904/DTD/svg10.dtd">
<svg version="1.0" xmlns="http://www.w3.org/2000/svg"
 width="521.000000pt" height="435.000000pt" viewBox="0 0 521.000000 435.000000"
 preserveAspectRatio="xMidYMid meet">
<metadata>
Created by potrace 1.16, written by Peter Selinger 2001-2019
</metadata>
<g transform="translate(0.000000,435.000000) scale(0.100000,-0.100000)"
fill="#000000" stroke="none">
<path d="M777 4326 c-16 -23 -47 -43 -135 -85 -23 -11 -52 -30 -65 -42 -12
-12 -40 -30 -63 -40 -22 -10 -51 -27 -65 -37 -13 -10 -49 -31 -79 -46 -124
-62 -199 -111 -205 -135 -3 -14 -15 -37 -26 -52 -10 -15 -19 -34 -19 -42 0 -7
-7 -27 -15 -44 -8 -16 -24 -65 -34 -107 -24 -97 -16 -164 34 -272 19 -42 35
-78 35 -81 0 -3 14 -22 30 -42 17 -20 34 -40 39 -46 4 -5 21 -20 38 -33 17
-13 46 -37 64 -53 19 -16 45 -32 59 -35 14 -3 43 -12 65 -21 111 -42 195 -71
195 -66 0 3 6 1 12 -4 24 -18 132 -51 186 -56 29 -4 58 -9 64 -13 22 -14 93
-9 109 7 10 10 26 15 42 12 14 -3 38 3 55 12 19 11 39 15 55 11 14 -3 68 -49
120 -101 52 -52 99 -95 104 -95 4 0 19 -18 31 -38 13 -21 38 -46 55 -56 37
-20 137 -109 137 -123 0 -5 13 -17 30 -26 16 -10 35 -27 40 -38 6 -10 19 -19
28 -19 10 0 42 -23 72 -50 30 -27 57 -50 60 -50 4 0 23 -18 44 -40 20 -22 41
-40 46 -40 9 0 37 -25 165 -149 44 -42 121 -112 170 -155 50 -43 116 -101 148
-130 32 -28 80 -64 107 -81 95 -59 156 -105 226 -172 40 -37 93 -86 119 -108
27 -22 81 -73 122 -114 67 -67 74 -77 69 -104 -8 -40 -25 -59 -47 -52 -14 5
-23 -2 -35 -28 -24 -51 -13 -79 40 -103 l45 -19 -17 -38 c-9 -20 -21 -37 -27
-37 -5 0 -28 -21 -50 -46 -22 -26 -46 -52 -53 -58 -12 -10 -91 -87 -93 -90 0
0 -2 -27 -5 -58 l-5 -57 36 -15 c19 -8 38 -23 42 -33 9 -23 33 -42 55 -43 10
0 23 -9 30 -20 7 -11 17 -20 21 -20 5 0 37 -28 71 -63 35 -35 81 -74 102 -87
44 -27 66 -43 144 -104 31 -24 78 -55 105 -70 53 -28 87 -48 95 -56 22 -22 47
-34 83 -41 23 -4 69 -17 102 -27 78 -26 188 -40 355 -46 74 -3 146 -7 159 -9
13 -2 72 5 130 15 58 10 143 20 189 21 60 2 86 6 92 17 15 24 11 41 -10 47
-16 4 -18 9 -10 19 6 7 13 57 16 111 2 54 7 141 10 193 7 112 -13 267 -45 355
-37 100 -192 407 -217 430 -6 6 -21 24 -33 42 -12 17 -30 35 -41 38 -11 4 -20
13 -20 21 0 8 -4 14 -10 14 -5 0 -10 6 -10 13 0 15 -150 171 -205 212 -21 17
-55 48 -75 69 -19 22 -42 46 -50 53 -8 7 -39 36 -68 63 -29 28 -55 50 -59 50
-8 0 -63 -62 -63 -71 0 -4 -27 -38 -60 -76 -33 -37 -60 -72 -60 -77 0 -12 -59
-66 -96 -88 -19 -12 -28 -24 -27 -38 5 -35 -14 -13 -33 40 -13 35 -28 57 -54
74 -50 33 -75 22 -84 -38 -9 -58 -22 -65 -55 -32 -14 14 -57 54 -96 88 -81 74
-139 132 -215 218 -30 34 -68 74 -84 89 -16 14 -35 32 -42 39 -7 6 -18 12 -24
12 -6 0 -9 4 -6 9 4 5 -45 61 -106 124 -62 63 -129 135 -148 158 -19 24 -43
50 -55 58 -11 8 -35 31 -54 50 -69 72 -205 191 -218 191 -7 0 -13 4 -13 9 0 5
-16 26 -35 47 -19 21 -35 35 -35 31 0 -3 -28 22 -62 57 -35 35 -94 90 -133
122 -38 32 -100 88 -138 124 -37 36 -88 83 -113 105 -25 22 -70 64 -100 93
-30 28 -58 52 -62 52 -4 0 -13 9 -19 19 -7 11 -25 26 -40 33 -15 7 -29 22 -31
33 -2 11 -10 25 -17 31 -14 11 -40 103 -31 111 2 3 0 18 -5 35 -11 42 -20 123
-23 210 -1 40 -5 78 -8 84 -4 5 -8 38 -9 73 -1 34 -8 73 -16 88 -7 14 -13 45
-13 68 0 24 -6 50 -12 57 -7 7 -21 28 -32 47 -21 38 -74 91 -90 91 -6 0 -28 9
-49 20 -20 11 -43 20 -50 20 -8 0 -28 7 -46 16 -17 9 -38 13 -46 10 -13 -4
-48 8 -97 35 -34 18 -85 11 -101 -15z m165 -127 c9 -11 20 -19 26 -19 5 0 18
-8 29 -17 17 -15 19 -30 18 -97 0 -56 -5 -81 -14 -84 -7 -2 -21 -13 -30 -24
-17 -22 -18 -23 -71 -67 -19 -17 -48 -41 -65 -55 -16 -14 -35 -26 -41 -26 -6
0 -30 -18 -55 -40 -24 -22 -47 -40 -51 -40 -4 0 -13 -6 -20 -12 -8 -7 -21 -17
-30 -23 -10 -5 -35 -23 -57 -39 -47 -33 -71 -29 -71 11 0 15 -14 65 -31 110
-30 75 -37 85 -92 125 -32 23 -63 51 -69 62 -7 14 -7 17 2 11 7 -4 25 2 41 14
15 11 31 21 35 21 3 0 18 8 32 19 15 10 38 22 52 26 14 4 39 18 55 31 17 12
57 37 90 54 33 18 82 44 108 58 26 14 55 33 65 43 16 15 21 15 72 -4 30 -11
62 -28 72 -38z m183 -29 c18 0 73 -58 87 -90 6 -14 17 -52 24 -85 8 -33 16
-67 18 -75 13 -52 19 -150 26 -414 1 -11 5 -26 9 -35 5 -9 5 -25 1 -36 -4 -12
-2 -31 7 -47 7 -16 11 -28 7 -28 -9 0 63 -88 105 -127 18 -18 40 -33 48 -33 8
0 36 -18 62 -40 26 -22 50 -40 54 -40 3 0 17 -10 29 -22 67 -65 140 -128 149
-128 5 0 9 -6 9 -14 0 -7 20 -31 44 -52 71 -62 127 -108 139 -116 7 -4 41 -34
77 -68 35 -34 77 -68 92 -76 15 -8 28 -20 28 -26 0 -11 234 -248 245 -248 8 0
145 -140 145 -148 0 -4 20 -23 45 -42 24 -19 44 -40 45 -47 0 -6 34 -42 75
-80 41 -37 109 -107 151 -155 42 -49 83 -88 90 -88 7 0 15 -8 19 -19 6 -19 59
-71 72 -71 5 0 19 -17 33 -37 14 -20 36 -48 50 -63 14 -15 34 -39 45 -54 36
-50 56 -67 68 -61 7 4 -2 -6 -19 -22 -17 -15 -39 -41 -49 -56 -16 -25 -19 -26
-35 -12 -9 8 -21 15 -26 15 -5 0 -24 16 -43 35 -19 19 -40 35 -47 35 -8 0 -14
5 -14 11 0 11 -25 39 -35 39 -3 0 -27 19 -51 43 -25 23 -53 46 -62 51 -10 5
-54 47 -99 93 -45 46 -88 83 -95 83 -22 0 -68 24 -68 35 0 6 -23 23 -51 38
-27 16 -64 44 -82 63 -17 19 -47 44 -66 56 -20 12 -54 40 -77 62 -101 102
-235 226 -244 226 -5 0 -10 5 -10 11 0 13 -41 52 -125 116 -33 26 -81 65 -106
87 -26 23 -71 62 -100 87 -30 26 -73 63 -95 83 -23 20 -47 36 -53 36 -6 0 -11
5 -11 10 0 6 -26 34 -57 63 -31 29 -64 60 -72 70 -59 69 -234 238 -261 252
-37 19 -77 13 -109 -16 -12 -11 -26 -17 -32 -14 -6 4 -18 0 -27 -8 -32 -29
-225 -16 -261 17 -10 9 -20 14 -23 11 -3 -4 -32 3 -64 13 -33 11 -72 23 -89
26 -41 10 -95 33 -190 81 -63 33 -90 54 -128 100 -26 33 -47 67 -47 76 0 9 -7
20 -15 23 -9 3 -15 11 -14 18 1 7 -1 20 -4 28 -34 82 -47 163 -28 174 4 3 11
23 15 44 3 22 12 45 20 51 7 6 16 28 20 49 7 46 31 82 55 82 21 0 71 -22 71
-32 0 -5 5 -8 10 -8 27 0 100 -106 100 -145 0 -22 -4 -25 -19 -20 -30 9 -63
-28 -55 -63 4 -15 10 -31 14 -37 4 -5 10 -22 14 -37 9 -37 95 -117 162 -150
82 -40 116 -49 201 -53 93 -4 153 -14 153 -26 0 -15 27 -10 34 6 3 9 18 15 39
15 48 0 71 27 54 63 -9 19 -20 27 -39 27 -25 0 -27 2 -17 23 6 13 20 27 32 32
18 8 61 71 81 120 41 99 56 274 26 299 -29 23 -37 49 -23 76 13 24 11 154 -4
204 -4 15 -2 18 12 13 9 -4 23 -7 30 -7z m-109 -315 c4 -8 11 -15 18 -15 13 0
15 -103 3 -130 -3 -8 -9 -28 -11 -44 -3 -16 -10 -32 -15 -36 -6 -3 -12 -16
-14 -27 -4 -27 -44 -81 -66 -88 -9 -3 -24 -18 -33 -33 -15 -26 -16 -31 -2 -50
8 -11 11 -22 7 -25 -12 -6 -108 0 -199 12 -83 11 -190 54 -179 71 3 5 -5 12
-19 16 -27 6 -39 26 -30 49 8 20 16 19 37 -5 24 -28 39 -25 85 18 57 52 70 62
82 62 5 0 10 5 10 10 0 6 6 10 13 10 7 0 31 16 53 36 21 20 53 42 69 49 17 7
44 28 60 47 29 32 102 86 118 87 4 1 10 -6 13 -14z m2789 -2124 c8 -38 -5 -63
-71 -131 -29 -30 -85 -88 -124 -129 -39 -40 -73 -72 -74 -70 -2 2 -15 27 -29
56 l-26 51 29 -11 c27 -10 32 -9 58 19 15 16 36 43 46 59 21 32 166 183 178
184 3 1 9 -12 13 -28z m126 -82 c28 -15 202 -188 281 -280 61 -71 114 -146
161 -229 45 -79 74 -136 80 -155 3 -11 16 -51 30 -90 38 -111 57 -214 59 -330
1 -53 -27 -255 -38 -272 -8 -12 -14 -33 -14 -46 0 -25 -14 -31 -95 -42 -16 -3
-59 -9 -95 -14 -36 -5 -96 -7 -135 -5 -38 2 -116 6 -173 8 -175 8 -266 18
-296 34 -35 17 -79 31 -121 38 -16 3 -41 16 -55 28 -46 41 -138 98 -148 92 -6
-3 -12 1 -16 9 -3 8 -10 15 -15 15 -6 0 -21 10 -34 22 -38 37 -70 62 -100 77
-15 8 -68 55 -118 104 -67 68 -88 94 -84 108 4 11 11 19 16 19 5 0 14 10 18
23 15 35 85 118 208 246 49 51 54 53 71 38 9 -9 38 -19 62 -23 45 -7 100 -32
100 -46 0 -10 79 -54 111 -62 14 -3 50 -28 80 -55 30 -28 65 -53 79 -56 14 -4
39 -13 57 -22 45 -21 89 -6 85 28 -2 13 -10 31 -18 40 -8 8 -14 20 -14 26 0
15 -52 93 -62 93 -4 0 -8 6 -8 13 0 7 -13 25 -28 40 -15 15 -48 65 -72 113
-24 47 -54 93 -66 101 -12 7 -27 27 -34 43 -11 27 -10 33 14 62 15 18 37 46
49 61 30 38 245 257 252 257 4 0 15 -5 26 -11z m-496 -192 c14 -21 25 -44 25
-51 0 -8 7 -19 15 -26 9 -7 15 -29 15 -52 0 -34 4 -41 28 -50 25 -10 82 -80
95 -119 10 -29 77 -129 87 -129 6 0 10 -5 10 -12 0 -6 11 -26 25 -44 14 -18
25 -39 25 -47 0 -8 7 -20 15 -27 8 -7 15 -18 15 -26 0 -10 -6 -11 -32 -2 -35
12 -47 21 -83 56 -12 12 -27 22 -34 22 -6 0 -11 5 -11 10 0 6 -7 10 -15 10 -8
0 -29 9 -47 19 -17 11 -35 18 -39 15 -5 -3 -14 4 -21 16 -7 11 -18 20 -24 20
-6 0 -18 10 -26 22 -11 17 -23 21 -55 20 -35 -2 -46 3 -74 33 -22 23 -42 35
-61 35 -15 0 -37 4 -50 9 -13 5 -51 18 -84 28 l-61 18 15 25 c44 72 59 90 75
90 9 0 17 4 17 9 0 5 27 36 60 68 33 32 60 62 60 68 0 5 17 26 37 45 l38 36
18 -26 c9 -14 29 -42 42 -63z m-245 -378 c0 -12 -31 -52 -77 -99 -43 -44 -89
-94 -103 -112 -63 -82 -82 -99 -96 -87 -22 18 -17 37 20 74 19 18 35 37 37 42
2 5 19 19 37 32 17 12 32 28 32 35 0 7 16 27 35 45 19 17 35 35 35 40 0 5 11
12 25 15 14 4 28 13 31 21 9 22 24 18 24 -6z"/>
</g>
</svg>
