<?xml version="1.0" standalone="no"?>
<!DOCTYPE svg PUBLIC "-//W3C//DTD SVG 20010904//EN"
 "http://www.w3.org/TR/2001/REC-SVG-20010904/DTD/svg10.dtd">
<svg version="1.0" xmlns="http://www.w3.org/2000/svg"
 width="517.000000pt" height="457.000000pt" viewBox="0 0 517.000000 457.000000"
 preserveAspectRatio="xMidYMid meet">
<metadata>
Created by potrace 1.16, written by Peter Selinger 2001-2019
</metadata>
<g transform="translate(0.000000,457.000000) scale(0.100000,-0.100000)"
fill="#000000" stroke="none">
<path d="M2885 4259 c-11 -4 -34 -8 -52 -8 -17 -1 -35 -6 -38 -11 -4 -6 -32
-10 -63 -10 -108 1 -146 -5 -180 -30 -17 -13 -35 -33 -38 -44 -4 -12 -17 -34
-29 -51 -12 -16 -25 -37 -29 -45 -17 -39 -54 -93 -128 -188 -33 -41 -33 -43
-8 -72 20 -23 20 -23 -2 -62 -12 -21 -29 -46 -38 -56 -18 -20 -160 -234 -184
-277 -9 -16 -20 -37 -25 -45 -5 -8 -14 -26 -20 -40 -6 -14 -29 -56 -51 -95
-22 -38 -59 -107 -81 -152 -23 -46 -46 -83 -50 -83 -5 0 -9 -5 -9 -11 0 -7
-25 -49 -55 -95 -30 -46 -55 -86 -55 -90 0 -3 -11 -20 -24 -37 -21 -29 -41
-62 -85 -146 -21 -39 -123 -195 -136 -206 -6 -5 -22 -32 -35 -60 -25 -53 -135
-233 -182 -299 -15 -21 -28 -43 -28 -48 0 -5 -12 -26 -27 -45 -16 -20 -27 -38
-25 -40 2 -2 -9 -20 -23 -41 -39 -56 -95 -153 -95 -165 0 -5 -9 -17 -20 -27
-11 -10 -38 -51 -60 -91 -22 -41 -48 -90 -59 -109 -10 -19 -26 -51 -36 -70
-16 -31 -94 -154 -155 -245 -75 -111 -96 -146 -143 -237 -54 -104 -99 -180
-150 -253 -101 -147 -111 -165 -131 -251 -10 -41 -10 -60 0 -95 25 -85 32 -91
149 -125 32 -10 62 1 122 44 17 12 35 22 40 23 4 0 18 12 31 27 13 15 39 45
58 67 20 22 44 58 54 80 9 22 33 61 53 86 19 26 38 57 42 70 4 13 16 36 26 51
11 14 19 31 19 37 0 6 21 43 46 82 25 40 53 88 61 108 34 79 78 166 85 169 5
2 8 8 8 14 0 5 9 23 21 39 11 16 25 44 30 63 5 18 22 46 39 62 16 16 30 37 30
47 0 10 7 20 15 23 8 4 15 14 15 24 0 9 9 29 21 44 11 14 18 26 15 26 -8 0 56
104 67 109 5 2 25 38 46 80 20 42 45 88 55 103 10 15 16 33 14 40 -3 7 8 25
24 40 15 15 28 32 28 37 0 24 92 30 189 11 73 -14 168 -89 192 -152 8 -20 18
-28 34 -28 13 0 30 -6 37 -13 13 -14 65 -34 107 -42 51 -10 181 55 181 91 0 7
5 14 10 14 11 0 14 93 3 103 -3 4 -8 21 -10 39 -2 18 -10 36 -18 41 -8 4 -15
12 -15 17 0 5 -16 24 -35 43 -19 19 -35 37 -35 41 0 4 -10 21 -23 37 -25 35
-107 86 -182 114 -27 11 -61 25 -75 32 -14 7 -35 13 -48 13 -13 0 -32 9 -44
20 -12 11 -16 20 -10 20 7 0 12 6 12 14 0 7 7 19 15 26 9 7 27 38 41 69 14 31
33 64 41 73 19 22 46 68 84 146 17 35 42 80 55 100 14 20 41 69 60 107 20 39
48 90 65 115 16 25 34 57 40 73 6 15 15 27 20 27 5 0 9 6 9 14 0 7 7 19 14 26
8 6 20 28 27 48 6 20 23 53 38 72 15 19 35 55 45 79 9 24 24 54 32 65 8 11 14
28 14 37 0 10 3 19 8 21 13 6 102 131 102 145 0 7 4 13 8 13 10 0 42 65 42 85
0 8 7 15 15 15 9 0 19 8 22 18 11 28 35 41 60 31 13 -5 23 -5 23 0 0 5 33 10
73 11 39 1 97 3 127 4 30 2 102 -4 160 -12 58 -8 129 -16 158 -18 29 -2 62 -9
73 -14 10 -6 19 -8 19 -6 0 3 19 -1 41 -9 23 -8 52 -15 65 -15 14 0 57 -13 97
-29 89 -35 291 -101 310 -101 15 0 88 -27 166 -62 24 -11 72 -37 106 -59 34
-21 67 -39 72 -39 5 0 21 -9 34 -21 13 -11 44 -37 68 -57 58 -48 138 -135 149
-162 1 -4 46 -52 100 -108 101 -105 171 -203 228 -321 48 -99 84 -182 84 -193
0 -5 7 -16 15 -24 8 -9 15 -26 15 -38 0 -19 7 -25 38 -30 30 -5 40 -2 54 15
15 17 16 36 12 127 -3 59 -6 118 -6 132 0 14 -3 30 -7 35 -4 6 -8 26 -10 45
-1 19 -8 44 -15 55 -7 11 -15 40 -18 65 -3 25 -12 61 -21 80 -9 19 -18 53 -22
75 -3 21 -12 46 -19 55 -8 8 -17 26 -21 38 -4 13 -16 45 -28 70 -12 26 -22 49
-23 52 -1 3 -5 15 -9 28 -4 12 -11 22 -15 22 -5 0 -20 20 -34 44 -24 41 -63
87 -186 219 -30 32 -79 74 -107 93 -29 18 -67 48 -85 65 -18 17 -50 42 -70 55
-20 13 -51 41 -69 64 -18 22 -36 40 -41 40 -5 0 -31 15 -58 34 -28 19 -96 57
-153 84 -56 28 -117 62 -136 76 -19 14 -41 26 -49 26 -7 0 -42 13 -76 29 -89
41 -292 100 -319 93 -4 -1 -49 5 -100 13 -50 8 -121 15 -156 17 -67 3 -60 -1
-142 84 -22 22 -50 27 -84 13z m-125 -126 c0 -4 -16 -28 -35 -52 -20 -25 -33
-51 -30 -58 3 -9 0 -11 -6 -7 -16 10 -29 -17 -18 -38 14 -25 63 -23 89 4 11
12 20 25 20 30 0 4 11 20 24 35 14 16 35 40 48 54 13 14 36 29 52 33 28 7 27
5 -22 -48 -44 -49 -49 -59 -43 -83 7 -25 12 -28 46 -27 30 1 45 9 69 36 17 19
43 40 58 46 58 24 440 -12 507 -48 11 -5 52 -22 93 -36 65 -24 146 -64 313
-154 28 -15 73 -40 100 -55 28 -15 81 -52 118 -83 80 -67 171 -136 209 -160
15 -9 33 -27 39 -39 7 -13 19 -25 28 -28 21 -7 95 -77 118 -112 23 -37 32 -48
70 -90 75 -84 150 -257 189 -435 1 -5 3 -10 4 -13 1 -3 3 -8 5 -12 1 -5 4 -15
7 -23 14 -37 31 -131 25 -137 -4 -3 -7 1 -7 11 0 17 -41 86 -72 120 -10 11
-18 24 -18 29 0 5 -13 26 -30 47 -16 21 -30 41 -30 45 0 4 -33 40 -72 80 -115
113 -188 194 -201 222 -6 14 -51 52 -99 84 -48 33 -95 67 -105 77 -10 10 -40
30 -68 43 -27 14 -59 30 -70 36 -50 29 -147 67 -223 88 -45 13 -86 24 -90 25
-4 1 -18 7 -32 12 -14 6 -70 23 -125 38 -103 29 -126 36 -160 50 -11 5 -47 13
-80 19 -112 20 -145 28 -158 39 -7 7 -18 7 -27 2 -8 -5 -21 -5 -29 0 -9 4 -20
8 -26 8 -5 1 -32 4 -60 8 -27 4 -63 8 -80 9 -16 1 -57 2 -91 3 l-61 2 5 51 c5
49 -12 104 -29 93 -4 -2 -10 0 -14 6 -18 29 -65 -19 -65 -68 0 -45 -9 -82 -20
-82 -5 0 -6 17 -3 38 4 31 0 44 -21 69 -23 27 -35 32 -94 39 -37 4 -71 9 -77
9 -5 1 -25 -4 -42 -11 -18 -7 -33 -11 -33 -8 0 5 40 64 50 74 3 3 22 30 42 60
48 71 97 119 134 129 41 11 104 13 104 4z m-182 -352 c7 0 16 -11 21 -23 6
-18 3 -28 -13 -45 -12 -12 -33 -46 -46 -75 -14 -29 -30 -56 -35 -60 -6 -4 -22
-30 -35 -57 -13 -28 -27 -51 -31 -51 -17 0 -133 -207 -158 -282 -7 -20 -23
-53 -36 -73 -25 -37 -81 -134 -99 -172 -6 -13 -14 -23 -17 -23 -4 0 -26 -37
-49 -82 -22 -46 -61 -117 -85 -158 -24 -41 -53 -95 -65 -120 -11 -24 -24 -47
-28 -50 -4 -3 -29 -49 -57 -103 -27 -53 -60 -109 -72 -124 -13 -14 -23 -30
-23 -35 0 -5 -12 -13 -26 -18 -14 -6 -28 -18 -30 -28 -4 -14 -18 -17 -72 -20
-76 -2 -139 -26 -148 -54 -9 -31 4 -66 29 -74 29 -10 44 -7 79 19 43 31 189
28 280 -7 86 -33 201 -92 224 -116 10 -11 28 -29 38 -40 20 -20 20 -20 -17
-20 -53 0 -112 -27 -126 -56 -12 -28 -33 -27 -81 4 -14 9 -27 17 -30 18 -3 0
-22 8 -42 17 -84 38 -307 54 -358 27 -11 -6 -20 -21 -21 -33 -1 -66 -7 -99
-21 -115 -8 -9 -26 -37 -39 -62 -13 -25 -27 -47 -30 -50 -3 -3 -14 -23 -25
-45 -10 -22 -21 -42 -25 -45 -3 -3 -23 -39 -44 -80 -71 -142 -89 -175 -152
-272 -35 -54 -63 -104 -63 -113 0 -8 -4 -15 -10 -15 -5 0 -10 -8 -10 -17 0
-10 -9 -31 -20 -48 -11 -16 -20 -35 -20 -42 0 -6 -9 -27 -21 -45 -33 -52 -110
-192 -112 -203 -1 -5 -5 -12 -8 -15 -3 -3 -27 -36 -52 -75 -65 -97 -86 -123
-87 -105 0 16 -90 70 -116 70 -8 0 -29 -7 -45 -16 -17 -8 -33 -14 -35 -12 -3
4 86 158 135 233 15 22 40 67 56 100 16 33 33 62 37 63 4 2 8 8 8 14 0 6 12
29 28 52 15 22 36 58 47 79 11 20 23 37 27 37 5 0 8 4 8 9 0 5 30 58 68 117
37 59 98 166 135 238 38 72 78 140 88 152 10 11 19 24 19 29 0 5 6 16 14 24 7
9 28 43 46 76 17 33 36 65 41 71 5 6 25 42 45 80 19 38 50 85 69 104 18 19 48
64 65 100 17 36 39 80 48 99 10 19 23 42 30 50 8 9 27 39 45 66 17 28 55 87
84 131 29 45 53 86 53 91 0 6 7 16 16 23 8 8 29 41 45 74 17 34 40 75 53 91
12 17 30 49 40 73 11 23 22 42 25 42 4 0 15 17 26 38 11 20 29 51 41 67 12 17
35 57 51 90 16 33 48 91 71 129 23 37 42 70 42 72 0 3 11 21 23 42 13 20 40
68 61 105 20 38 45 78 56 89 11 12 22 30 26 40 3 10 9 18 13 18 4 0 16 18 26
40 10 22 22 40 27 40 5 0 13 11 18 25 5 14 17 28 25 31 8 4 15 11 15 17 0 5
14 22 30 37 30 27 50 30 138 21z m-415 -2004 c66 -28 72 -62 15 -97 -48 -29
-128 -26 -128 6 0 8 -5 14 -10 14 -13 0 -3 68 13 88 11 15 60 10 110 -11z
m-1650 -1281 c12 -3 38 -7 58 -10 42 -5 79 -32 79 -58 0 -25 -58 -88 -81 -88
-10 0 -19 -4 -19 -10 0 -13 -51 -13 -85 0 -20 8 -26 15 -22 30 3 11 2 20 -2
20 -15 0 2 77 27 125 13 23 17 26 20 13 2 -10 13 -20 25 -22z"/>
</g>
</svg>
