<?xml version="1.0" standalone="no"?>
<!DOCTYPE svg PUBLIC "-//W3C//DTD SVG 20010904//EN"
 "http://www.w3.org/TR/2001/REC-SVG-20010904/DTD/svg10.dtd">
<svg version="1.0" xmlns="http://www.w3.org/2000/svg"
 width="461.000000pt" height="461.000000pt" viewBox="0 0 461.000000 461.000000"
 preserveAspectRatio="xMidYMid meet">
<metadata>
Created by potrace 1.16, written by Peter Selinger 2001-2019
</metadata>
<g transform="translate(0.000000,461.000000) scale(0.100000,-0.100000)"
fill="#000000" stroke="none">
<path d="M2739 4504 c-24 -23 -50 -43 -56 -44 -7 0 -13 -4 -13 -9 0 -5 -16
-24 -36 -43 -20 -18 -46 -43 -59 -55 -12 -13 -26 -23 -31 -23 -10 0 -91 -76
-109 -101 -47 -65 -69 -112 -92 -192 l-27 -93 -18 35 c-10 19 -18 48 -18 63 0
16 -11 46 -25 68 -14 22 -25 48 -25 59 0 10 -7 22 -16 25 -8 3 -13 10 -9 15 3
6 -1 13 -8 18 -8 4 -19 18 -26 31 -7 12 -29 32 -49 45 -64 39 -103 48 -183 40
-96 -8 -235 -8 -276 2 -29 6 -33 5 -39 -19 -9 -36 0 -52 38 -70 38 -18 78 -72
84 -113 2 -15 4 -71 4 -122 0 -122 16 -210 43 -239 l21 -22 -69 4 c-47 3 -81
0 -104 -10 -19 -8 -41 -12 -49 -9 -21 8 -156 -135 -186 -198 -30 -65 -120
-162 -158 -171 -15 -3 -33 -13 -42 -21 -8 -8 -24 -15 -35 -15 -36 0 -102 -32
-110 -53 -5 -13 -2 -31 8 -49 13 -22 21 -26 41 -21 14 4 63 7 110 6 101 -1
219 -35 277 -80 93 -72 103 -75 205 -64 51 6 94 15 96 21 2 5 14 10 27 10 22
0 23 0 8 -42 -9 -24 -18 -54 -20 -68 -8 -37 -7 -219 1 -265 9 -46 47 -148 59
-153 4 -2 7 -47 7 -101 0 -70 -4 -103 -15 -117 -19 -25 -19 -68 -1 -84 8 -6
12 -18 9 -25 -7 -20 39 -39 71 -31 17 4 28 15 32 34 10 45 57 135 85 162 14
14 24 31 22 38 -3 7 1 10 10 6 10 -3 36 15 71 51 31 30 56 49 56 41 0 -8 4
-16 9 -18 5 -1 12 -23 16 -48 4 -24 8 -47 10 -50 2 -3 6 -52 9 -110 4 -58 9
-123 13 -145 4 -22 6 -44 5 -48 -2 -5 -5 -59 -7 -119 -7 -169 -33 -427 -51
-509 -21 -100 -21 -98 -29 -149 -7 -39 -9 -42 -16 -22 -5 12 -14 22 -21 22 -9
0 -9 3 2 10 12 8 12 10 1 10 -10 0 -12 8 -7 30 3 17 2 30 -3 30 -5 0 -12 7
-15 16 -3 8 -2 12 4 9 6 -3 10 1 10 10 0 8 -7 18 -16 22 -11 4 -12 8 -4 13 10
6 9 16 -4 40 -9 18 -16 39 -16 47 0 8 -4 11 -10 8 -5 -3 -7 0 -4 8 3 8 -1 17
-9 20 -8 3 -17 23 -20 44 -7 40 -35 83 -56 83 -6 0 -11 7 -11 16 0 8 4 13 9
10 5 -4 7 3 4 15 -4 15 -8 17 -14 8 -6 -10 -11 -6 -18 14 -6 15 -10 31 -10 35
1 4 1 14 0 22 -1 13 -2 13 -11 0 -9 -14 -12 -7 -9 16 0 4 -3 10 -9 13 -5 3
-24 29 -43 56 -43 63 -75 95 -94 95 -8 0 -14 5 -13 11 3 14 -133 110 -144 103
-4 -3 -8 2 -8 10 0 9 -7 16 -15 16 -8 0 -37 14 -65 31 -28 17 -56 32 -63 33
-23 5 -147 68 -147 75 0 4 -15 14 -32 23 -33 16 -70 46 -208 173 -104 96 -134
121 -161 136 -47 25 -101 75 -147 139 -55 75 -125 214 -143 282 -10 35 -16 44
-25 37 -9 -7 -15 -5 -22 7 -16 28 -39 1 -45 -49 -2 -23 -16 -75 -31 -115 -14
-40 -28 -85 -30 -100 -2 -15 -8 -56 -14 -92 -15 -87 -25 -237 -23 -330 2 -97
16 -174 52 -284 16 -49 29 -97 29 -105 0 -20 31 -102 63 -166 14 -27 35 -81
47 -119 14 -41 36 -84 55 -105 18 -20 35 -46 39 -58 4 -11 13 -24 21 -27 8 -3
15 -12 15 -20 0 -8 4 -16 8 -18 4 -2 20 -28 35 -59 15 -31 46 -76 70 -101 64
-69 89 -97 141 -167 27 -35 63 -72 80 -82 17 -10 53 -43 80 -74 27 -30 55 -55
63 -55 8 0 12 -4 9 -8 -4 -8 10 -18 162 -117 40 -26 79 -53 87 -62 8 -8 15
-12 15 -8 0 3 13 -3 29 -14 16 -12 32 -21 35 -21 3 0 29 -15 58 -33 29 -18 68
-39 86 -46 17 -8 32 -17 32 -21 0 -4 28 -26 63 -48 58 -38 202 -183 237 -238
8 -13 18 -24 22 -24 5 0 8 -8 8 -19 0 -21 38 -50 72 -54 14 -1 26 6 33 20 7
13 19 31 27 40 8 10 28 41 44 68 15 28 39 61 53 74 15 14 25 29 23 34 -2 5 4
7 12 4 9 -4 16 3 21 21 7 28 71 91 93 92 6 0 12 5 12 10 0 6 7 10 15 10 8 0
15 5 15 10 0 6 7 10 15 10 8 0 15 5 15 10 0 6 5 10 11 10 14 0 119 86 113 94
-2 3 -1 4 3 1 3 -3 21 6 39 20 18 14 37 25 42 25 4 0 18 11 30 25 13 14 28 23
34 19 7 -4 8 -3 4 5 -5 7 6 17 28 26 20 9 36 19 36 24 0 11 74 55 86 52 4 -2
10 1 13 6 3 5 27 19 52 32 26 12 60 33 75 47 16 14 41 32 57 40 15 8 27 19 27
24 0 6 6 10 14 10 14 0 45 30 134 125 18 19 41 35 51 35 10 0 21 6 24 14 3 7
34 29 69 49 38 21 85 60 118 97 30 34 74 83 97 108 65 71 158 190 174 220 8
15 24 43 37 62 60 90 148 317 190 495 29 118 32 334 7 485 -16 98 -16 129 0
248 4 29 2 42 -6 42 -6 0 -20 10 -30 22 -19 21 -19 21 -40 2 -12 -10 -18 -26
-15 -37 6 -24 -30 -112 -63 -156 -14 -18 -40 -53 -57 -77 -17 -25 -53 -66 -80
-92 -28 -27 -59 -59 -69 -73 -11 -13 -33 -33 -50 -43 -40 -25 -96 -71 -153
-125 -26 -24 -71 -60 -101 -79 -30 -19 -81 -57 -115 -83 -33 -27 -65 -49 -71
-49 -6 0 -32 -20 -57 -44 -25 -24 -58 -46 -72 -50 -15 -4 -44 -25 -66 -47 -40
-41 -89 -82 -131 -109 -13 -8 -42 -34 -64 -57 -22 -23 -56 -52 -75 -65 -20
-13 -58 -47 -85 -77 -28 -30 -87 -91 -132 -136 -87 -87 -90 -86 -53 14 22 61
25 120 24 406 -1 147 -6 258 -14 285 -6 25 -13 56 -16 70 -4 22 -3 22 5 5 28
-63 121 -90 246 -74 160 20 185 22 185 8 0 -8 7 -6 20 6 11 10 20 30 20 45 0
15 -9 35 -20 45 -11 10 -20 26 -20 35 0 10 -7 23 -15 30 -10 8 -13 23 -9 49
14 79 8 235 -11 286 -20 58 -80 154 -107 173 -10 7 -15 18 -12 24 4 7 9 6 14
-1 5 -9 14 -9 35 -1 15 6 53 10 84 9 67 -2 151 33 151 63 0 10 7 18 15 18 9 0
46 29 83 65 37 36 70 65 74 65 5 0 8 5 8 10 0 6 18 34 40 63 58 75 76 102 86
127 15 38 30 64 51 86 24 27 30 44 13 44 -5 0 -10 6 -10 14 0 19 -21 24 -100
25 -36 1 -78 8 -95 15 -16 8 -73 22 -125 31 -52 10 -104 19 -115 22 -11 2 -55
4 -97 4 -76 0 -77 0 -68 22 33 80 62 327 38 327 -10 0 -10 2 1 9 9 6 10 11 2
15 -6 4 -9 12 -5 17 7 12 -15 109 -29 127 -5 6 -7 12 -4 12 14 0 -51 177 -67
183 -7 3 -32 -15 -57 -39z m47 -122 c3 -20 14 -56 25 -79 29 -66 39 -126 34
-203 -7 -84 -32 -221 -42 -229 -5 -3 -15 -19 -23 -35 -8 -16 -31 -39 -50 -51
-19 -13 -69 -52 -110 -89 -73 -64 -90 -75 -90 -57 0 14 -107 121 -122 121 -7
0 -19 14 -27 31 -14 32 -14 32 16 189 5 26 25 77 49 123 9 15 12 27 9 27 -4 0
0 6 7 14 7 8 24 31 38 50 14 20 30 36 36 36 7 0 14 7 18 15 3 8 12 15 19 15
12 0 83 61 172 147 26 25 33 21 41 -25z m-721 -148 c41 -27 92 -84 106 -119 7
-16 20 -41 29 -55 15 -22 59 -219 58 -260 0 -8 3 -29 7 -45 6 -29 4 -33 -38
-54 -25 -13 -50 -33 -57 -46 -10 -19 -15 -21 -36 -11 -13 6 -24 14 -24 18 0
13 -74 55 -109 63 -45 10 -129 89 -152 143 -14 32 -20 75 -23 170 -2 70 -9
140 -15 155 -18 46 -15 49 44 45 30 -1 55 1 55 5 0 5 4 6 8 3 4 -2 13 -1 20 3
22 13 97 5 127 -15z m1000 -488 c33 -8 63 -12 67 -10 9 6 138 -36 138 -45 0
-4 10 -8 23 -8 12 -1 33 -5 45 -8 23 -6 23 -7 8 -30 -9 -13 -16 -30 -16 -37 0
-23 -98 -167 -152 -224 -88 -93 -166 -139 -267 -159 -12 -2 -30 -7 -39 -9 -10
-3 -42 -8 -73 -11 -51 -4 -58 -2 -83 24 -15 16 -49 37 -74 46 -26 10 -54 24
-63 31 -9 8 -19 11 -22 8 -11 -11 -38 18 -29 30 11 13 42 137 42 164 0 11 13
33 28 48 54 56 130 122 161 140 17 10 31 24 31 30 0 31 173 44 275 20z m-1229
-68 c5 -2 22 -5 37 -6 31 -2 77 -23 100 -46 8 -9 37 -28 63 -44 34 -20 48 -35
47 -48 -4 -52 -27 -154 -34 -154 -5 0 -44 -36 -88 -80 -43 -44 -86 -80 -95
-80 -9 0 -16 -4 -16 -10 0 -5 -7 -10 -16 -10 -9 0 -30 -10 -47 -22 -49 -35
-126 -30 -204 13 -127 70 -148 79 -175 79 -15 0 -37 4 -50 9 -13 5 -36 12 -51
16 l-29 6 34 29 c18 16 40 30 48 30 20 0 68 61 105 132 37 72 120 162 165 180
31 13 185 18 206 6z m605 -64 c11 -19 25 -34 30 -34 5 0 7 -11 3 -25 -4 -17
-1 -32 11 -45 16 -17 16 -22 -5 -84 -32 -94 -73 -131 -160 -147 -82 -14 -135
-6 -155 24 -26 41 -29 125 -6 191 21 60 39 83 99 123 36 25 52 29 52 12 0 -13
39 -2 57 16 19 20 50 7 74 -31z m164 -424 c39 0 159 -73 215 -130 60 -61 80
-142 80 -320 0 -58 4 -119 9 -137 9 -30 7 -33 -29 -52 -50 -26 -142 -34 -178
-15 -15 8 -31 14 -37 14 -18 1 -62 44 -89 88 -32 52 -81 100 -154 154 -57 42
-98 112 -89 149 3 10 2 19 -2 19 -8 0 -5 102 5 149 4 20 8 42 10 49 6 30 14
42 30 42 17 0 87 39 92 51 2 4 30 -8 62 -27 32 -19 66 -34 75 -34z m-480 20
c12 -11 44 -23 75 -28 47 -7 55 -11 52 -27 -6 -34 -3 -218 4 -262 8 -54 -13
-166 -37 -197 -11 -13 -19 -28 -19 -34 0 -5 -9 -17 -20 -27 -11 -10 -18 -21
-15 -25 2 -3 -19 -26 -47 -51 -80 -68 -138 -130 -159 -169 l-20 -35 7 35 c14
83 1 214 -29 282 -16 37 -33 102 -42 163 -19 126 18 247 100 323 84 78 112 88
150 52z m-1446 -318 c17 -27 31 -54 31 -60 0 -20 33 -82 44 -82 6 0 24 -18 40
-39 15 -21 40 -45 55 -52 14 -7 34 -20 43 -29 10 -8 41 -33 70 -55 29 -22 86
-75 128 -117 42 -43 83 -78 91 -78 8 0 28 -15 45 -34 18 -19 51 -47 75 -63 24
-15 53 -36 63 -45 11 -10 26 -18 33 -18 7 0 30 -9 51 -20 20 -11 54 -23 75
-26 20 -4 37 -10 37 -14 0 -4 20 -13 45 -20 25 -7 45 -16 45 -19 0 -4 29 -24
65 -46 36 -22 65 -43 65 -47 0 -4 17 -24 38 -46 62 -63 92 -104 122 -167 34
-70 64 -138 65 -145 0 -3 11 -27 23 -54 12 -27 22 -53 22 -57 0 -5 4 -17 9
-27 15 -29 29 -83 51 -197 11 -60 29 -139 40 -175 11 -36 27 -94 37 -128 17
-64 56 -112 89 -112 17 0 34 40 34 82 0 31 19 109 30 118 3 3 6 12 7 20 5 48
26 136 34 144 5 6 9 29 9 53 0 43 26 113 42 113 5 0 7 4 4 9 -6 9 67 111 89
124 8 4 15 12 15 16 0 4 25 35 56 67 31 32 59 62 63 67 17 21 174 169 230 217
79 68 97 85 102 96 2 5 40 34 84 64 44 29 85 59 90 66 6 6 36 28 68 49 31 20
60 42 65 49 12 19 90 76 104 76 7 1 33 21 58 46 25 25 62 54 83 65 22 11 64
45 95 75 31 30 59 54 64 54 21 0 209 189 286 287 l57 72 7 -37 c4 -20 9 -131
12 -247 5 -188 4 -217 -14 -280 -11 -38 -22 -90 -26 -115 -3 -25 -10 -49 -15
-54 -5 -6 -9 -19 -9 -29 0 -35 -116 -287 -131 -287 -4 0 -19 -25 -33 -56 -36
-76 -94 -152 -201 -263 -133 -139 -135 -142 -221 -196 -79 -49 -100 -67 -219
-180 -35 -33 -67 -62 -72 -64 -27 -11 -100 -57 -108 -69 -6 -7 -18 -14 -27
-16 -9 -1 -40 -17 -69 -36 -29 -19 -64 -41 -78 -49 -14 -7 -44 -25 -66 -39
-22 -14 -68 -40 -102 -58 -73 -36 -139 -92 -359 -302 -8 -7 -14 -20 -14 -28 0
-8 -4 -14 -10 -14 -5 0 -35 -25 -67 -56 -54 -53 -58 -55 -67 -35 -5 11 -14 21
-20 21 -7 0 -19 13 -29 29 -51 86 -273 256 -457 350 -119 61 -200 110 -200
123 0 4 -6 8 -13 8 -8 0 -25 9 -38 21 -13 11 -35 27 -49 34 -14 7 -36 25 -49
39 -14 14 -27 26 -31 26 -3 0 -42 34 -86 75 -43 41 -82 75 -86 75 -5 0 -8 5
-8 11 0 7 -21 37 -47 68 -27 31 -55 65 -63 75 -8 11 -29 36 -47 55 -77 88
-100 118 -113 150 -7 18 -24 44 -36 56 -12 12 -37 51 -54 86 -18 35 -36 66
-41 67 -5 2 -7 8 -4 13 4 5 -1 23 -9 41 -25 53 -48 120 -53 158 -3 19 -12 44
-19 55 -8 11 -14 26 -14 35 0 8 -7 28 -15 44 -9 16 -13 31 -10 34 3 3 -3 17
-12 31 -16 23 -18 52 -18 241 0 126 5 238 12 270 7 30 16 78 21 105 5 28 18
73 27 100 10 28 20 57 22 65 3 9 10 0 17 -22 8 -20 27 -59 45 -86z m1670 -146
c6 -8 24 -19 40 -26 21 -8 27 -16 24 -34 -3 -12 7 -44 21 -70 14 -27 26 -59
26 -70 0 -12 7 -46 16 -76 9 -31 17 -103 19 -165 8 -262 6 -392 -5 -435 -6
-25 -13 -58 -15 -73 -7 -66 -18 -105 -41 -154 -20 -43 -22 -56 -13 -76 10 -21
6 -33 -29 -88 -37 -59 -68 -142 -123 -329 -13 -44 -24 -67 -27 -56 -3 13 -6
15 -12 7 -4 -8 -7 -1 -7 16 0 15 -3 43 -8 61 -6 25 -4 32 8 32 10 0 17 15 21
48 4 26 11 81 17 122 6 41 16 104 24 140 8 36 17 85 21 110 3 25 8 54 10 65
19 115 30 465 19 600 -13 164 -25 236 -52 315 -15 45 -15 47 12 98 29 55 36
60 54 38z m-199 -226 c0 -5 -2 -10 -4 -10 -3 0 -8 5 -11 10 -3 6 -1 10 4 10 6
0 11 -4 11 -10z m-53 -22 c-3 -8 -6 -5 -6 6 -1 11 2 17 5 13 3 -3 4 -12 1 -19z"/>
</g>
</svg>
