<?xml version="1.0" standalone="no"?>
<!DOCTYPE svg PUBLIC "-//W3C//DTD SVG 20010904//EN"
 "http://www.w3.org/TR/2001/REC-SVG-20010904/DTD/svg10.dtd">
<svg version="1.0" xmlns="http://www.w3.org/2000/svg"
 width="497.000000pt" height="453.000000pt" viewBox="0 0 497.000000 453.000000"
 preserveAspectRatio="xMidYMid meet">
<metadata>
Created by potrace 1.16, written by Peter Selinger 2001-2019
</metadata>
<g transform="translate(0.000000,453.000000) scale(0.100000,-0.100000)"
fill="#000000" stroke="none">
<path d="M3506 4063 c-1 -2 -45 -5 -97 -8 -52 -4 -110 -10 -129 -15 -30 -8
-60 -12 -182 -24 -10 -1 -21 -5 -24 -9 -4 -4 -22 -7 -39 -7 -17 0 -35 -3 -39
-7 -3 -4 -13 -8 -22 -9 -8 -1 -35 -12 -60 -23 -24 -12 -49 -21 -56 -21 -7 0
-31 -12 -53 -25 -22 -14 -46 -25 -53 -25 -13 0 -37 -16 -137 -90 -33 -25 -94
-68 -135 -95 -41 -27 -84 -57 -94 -67 -11 -10 -28 -20 -38 -24 -10 -3 -18 -10
-18 -15 0 -5 -8 -13 -17 -16 -18 -7 -203 -186 -203 -196 0 -3 -18 -33 -40 -66
-22 -33 -40 -62 -40 -65 0 -5 -43 -73 -58 -91 -21 -26 -82 -126 -82 -136 0 -5
-7 -20 -15 -32 -37 -56 -47 -296 -20 -467 3 -19 8 -57 11 -84 5 -46 37 -134
53 -146 4 -3 17 -21 29 -40 31 -50 66 -87 88 -94 10 -3 34 -19 53 -35 29 -25
32 -31 21 -50 -6 -12 -12 -35 -12 -51 -1 -26 -3 -28 -26 -19 -27 10 -57 12
-242 12 -132 0 -199 -12 -229 -42 -10 -10 -26 -23 -34 -27 -8 -5 -33 -25 -54
-44 -92 -84 -174 -140 -203 -140 -7 0 -25 -9 -41 -21 -16 -11 -35 -22 -42 -23
-7 -2 -25 -8 -42 -16 -16 -7 -41 -17 -55 -22 -14 -6 -32 -14 -40 -19 -75 -41
-272 -138 -286 -141 -10 -2 -26 -11 -36 -21 -20 -18 -138 -77 -156 -77 -7 0
-12 -3 -12 -8 0 -13 -94 -51 -170 -66 -172 -36 -154 -27 -265 -132 l-50 -48 1
-88 c0 -72 4 -92 20 -109 23 -27 74 -49 110 -49 15 0 43 -5 61 -12 28 -10 48
-9 116 6 45 10 91 18 102 17 17 -1 85 24 136 49 9 5 33 12 53 15 20 4 39 11
42 16 3 5 13 9 22 9 9 0 55 23 101 50 46 28 87 50 90 50 4 0 29 16 58 35 28
19 62 37 77 41 14 3 30 12 37 20 6 8 19 14 29 14 9 0 36 13 58 30 23 16 45 30
48 30 7 0 83 57 99 74 6 6 26 19 45 30 117 62 280 184 280 208 0 5 13 22 30
38 16 16 30 32 30 35 0 3 20 26 44 50 37 38 50 45 84 45 22 0 59 -9 83 -19 24
-11 58 -22 74 -24 17 -3 43 -10 58 -16 16 -6 87 -15 158 -20 70 -5 132 -12
137 -15 5 -3 41 -8 81 -12 l71 -6 15 36 c19 45 19 56 0 56 -8 0 -15 5 -15 10
0 6 -32 10 -76 10 -74 0 -144 20 -144 41 0 5 -7 9 -15 9 -8 0 -15 4 -15 8 0 5
-18 26 -41 48 -22 21 -47 53 -55 71 -16 37 -18 89 -4 98 6 3 10 17 10 30 0 12
7 25 15 29 25 9 7 31 -63 77 -144 96 -207 201 -223 378 -5 53 -13 113 -18 134
-6 23 -6 51 0 70 5 18 9 49 9 70 0 41 43 161 68 190 8 9 12 17 8 17 -7 0 -5 3
43 61 17 20 42 59 56 87 14 29 30 52 35 52 4 0 13 13 18 29 6 16 51 69 100
118 110 108 120 117 207 178 39 27 81 60 95 72 14 13 30 23 36 23 7 0 25 15
40 33 16 17 31 32 34 33 3 0 61 28 130 62 169 83 217 100 278 103 29 2 52 6
52 10 0 4 26 10 58 14 31 4 68 9 82 12 104 16 416 22 495 9 56 -10 80 -14 80
-16 0 -3 29 -7 94 -14 36 -4 82 -16 102 -27 21 -10 44 -19 50 -19 7 0 28 -17
48 -37 l36 -38 -107 -1 c-59 -1 -119 -6 -135 -12 -15 -5 -37 -13 -48 -17 -11
-5 -33 -7 -49 -6 -27 3 -175 -45 -186 -59 -3 -3 -21 -12 -40 -20 -19 -8 -63
-33 -98 -57 -35 -23 -66 -42 -70 -40 -4 1 -14 -4 -22 -10 -53 -44 -82 -64
-134 -93 -58 -31 -97 -62 -140 -109 -11 -13 -36 -38 -53 -56 -18 -18 -33 -38
-33 -44 0 -6 -9 -16 -20 -23 -11 -7 -20 -16 -20 -20 0 -4 -20 -35 -44 -70 -52
-73 -136 -222 -136 -240 0 -7 -6 -24 -13 -38 -33 -64 -37 -116 -23 -301 13
-154 42 -267 77 -297 11 -9 19 -22 19 -30 0 -7 6 -12 13 -11 33 4 55 -11 144
-99 31 -32 33 -37 33 -103 0 -84 -19 -135 -57 -151 -40 -18 -66 -55 -80 -113
-18 -80 -79 -238 -107 -279 -14 -21 -26 -44 -26 -50 0 -6 -11 -23 -24 -37 -13
-14 -29 -35 -35 -47 -15 -28 -25 -28 -40 1 -7 13 -19 24 -27 24 -7 0 -32 6
-54 13 -34 11 -39 17 -34 34 4 12 13 29 21 38 15 17 29 61 43 138 16 90 -30
149 -79 103 -19 -17 -20 -30 -8 -87 7 -37 -57 -176 -114 -246 -19 -23 -62 -71
-96 -107 -35 -35 -63 -67 -63 -69 0 -8 -134 -134 -142 -134 -5 0 -8 5 -8 10 0
6 4 10 9 10 16 0 20 43 5 64 -7 11 -14 15 -14 8 0 -6 -7 -12 -15 -12 -17 0
-96 -47 -106 -63 -4 -5 -11 -7 -17 -3 -15 9 -38 -35 -34 -66 3 -21 11 -30 35
-37 18 -5 26 -10 19 -10 -7 -1 -25 -12 -40 -26 -15 -14 -32 -25 -38 -25 -6 0
-30 -13 -52 -30 -23 -16 -46 -30 -50 -30 -5 0 -32 -18 -62 -40 -29 -22 -69
-45 -89 -51 -20 -6 -47 -18 -59 -26 -30 -19 -128 -54 -164 -59 -15 -2 -51 -12
-80 -23 -115 -41 -144 -52 -158 -58 -8 -3 -23 -8 -33 -10 -10 -1 -37 -12 -59
-23 -23 -11 -50 -20 -59 -20 -10 0 -21 -5 -24 -10 -3 -6 -13 -10 -21 -10 -8 0
-36 -10 -62 -21 -26 -12 -61 -28 -79 -35 -18 -8 -36 -20 -40 -27 -4 -7 -25
-21 -45 -31 -21 -11 -38 -25 -38 -33 0 -7 -7 -13 -15 -13 -20 0 -27 -33 -22
-106 4 -58 9 -69 57 -122 18 -20 96 -60 128 -67 12 -2 26 -6 31 -9 10 -6 78
-19 101 -19 40 0 186 39 206 54 6 5 13 6 16 3 4 -3 20 2 37 11 17 8 31 13 31
10 0 -3 10 1 23 9 12 8 45 21 73 29 28 8 68 24 90 35 21 10 51 22 67 26 15 4
60 22 99 41 39 19 75 35 79 35 8 0 100 59 109 70 3 4 26 21 52 38 26 18 87 73
137 122 49 50 94 90 100 90 6 0 11 7 11 15 0 8 4 15 8 15 10 0 170 148 264
244 104 106 218 232 218 240 0 2 12 18 28 34 43 46 66 75 85 105 10 16 25 36
34 45 20 23 83 124 83 135 0 4 9 20 20 35 20 27 42 79 86 202 16 45 38 81 75
121 28 31 60 77 69 101 23 60 27 206 7 245 -18 34 -62 83 -75 83 -6 0 -13 10
-16 23 -3 13 -21 29 -43 39 -66 31 -98 70 -113 136 -11 56 -11 62 9 91 11 17
30 44 41 61 11 16 20 33 20 37 0 4 13 19 30 33 17 15 33 39 36 59 6 30 5 32
-12 23 -22 -12 -104 -88 -104 -96 0 -7 -38 -46 -44 -46 -15 0 8 88 29 116 85
111 316 312 407 355 24 11 50 24 58 29 23 14 92 42 115 46 11 2 52 10 90 18
39 8 92 18 119 21 27 4 56 9 65 12 9 3 5 -4 -9 -16 -14 -11 -32 -21 -41 -21
-9 0 -22 -7 -29 -15 -7 -9 -19 -14 -27 -11 -7 3 -13 2 -13 -3 0 -5 -22 -11
-50 -15 -27 -4 -52 -11 -55 -16 -3 -6 -15 -10 -25 -10 -10 0 -20 -4 -22 -8 -4
-11 -105 -62 -123 -62 -8 0 -15 -7 -15 -15 0 -8 -5 -15 -10 -15 -6 0 -25 -14
-43 -31 -17 -17 -40 -37 -51 -44 -11 -8 -16 -20 -12 -30 5 -13 10 -14 28 -4
12 6 30 19 40 29 22 20 198 114 198 105 0 -4 25 8 55 25 31 18 75 34 98 37 23
2 49 10 57 18 19 16 55 27 99 31 19 1 37 8 41 14 4 6 27 13 51 15 24 1 56 8
72 14 17 6 36 7 50 2 13 -5 29 -6 36 -1 28 17 210 8 339 -16 35 -7 27 -17 -40
-52 -35 -18 -82 -44 -106 -57 -24 -14 -51 -27 -61 -28 -10 -1 -29 -14 -44 -27
-38 -36 -57 -51 -57 -46 0 2 -12 -8 -28 -22 -15 -15 -50 -45 -77 -67 -27 -22
-57 -49 -67 -59 -10 -11 -18 -16 -18 -12 0 4 -22 -16 -49 -43 -26 -28 -51 -51
-55 -51 -17 0 -384 -360 -457 -449 -79 -96 -172 -285 -188 -383 -8 -46 -7 -47
20 -53 43 -10 59 6 85 81 47 136 98 230 174 323 43 54 267 278 322 324 25 20
64 55 87 77 23 22 45 40 49 40 4 0 30 23 57 51 27 28 65 62 84 77 20 14 50 38
66 53 46 42 189 125 223 129 4 1 14 8 23 16 22 20 140 77 164 79 137 12 167
26 171 77 3 37 -25 56 -99 68 -31 5 -70 16 -88 25 -32 17 -168 48 -264 62 -58
7 -455 11 -470 4 -11 -6 -15 -6 -85 -15 -25 -3 -66 -10 -92 -16 -27 -5 -67
-14 -90 -19 -53 -11 -175 -60 -208 -83 -13 -10 -32 -18 -41 -18 -10 0 -30 -13
-46 -30 -15 -16 -33 -30 -39 -30 -7 0 -22 -11 -35 -25 -13 -13 -27 -25 -31
-25 -7 0 -15 -8 -126 -114 -40 -38 -62 -53 -62 -43 0 32 64 153 142 268 103
153 189 233 358 334 10 6 24 16 31 22 8 6 19 12 24 13 14 3 99 62 103 72 2 4
12 8 23 8 10 0 19 4 19 8 0 10 144 55 260 82 106 24 186 31 232 21 20 -5 43
-4 52 1 11 6 16 5 16 -2 0 -7 6 -10 13 -7 6 2 26 -1 42 -8 17 -6 47 -8 70 -4
22 3 36 7 32 8 -5 0 -1 11 7 23 9 12 16 28 16 35 0 21 -206 213 -229 213 -6 0
-11 4 -11 9 0 5 -12 11 -27 14 -16 3 -47 12 -71 21 -24 9 -73 21 -110 26 -37
5 -76 11 -87 14 -70 13 -320 28 -329 19z m-1491 -2193 c3 -5 1 -10 -4 -10 -6
0 -11 5 -11 10 0 6 2 10 4 10 3 0 8 -4 11 -10z m-381 -205 c-4 -9 -15 -20 -26
-26 -17 -9 -18 -8 -9 9 9 17 17 24 38 31 1 1 0 -6 -3 -14z m-390 -66 c3 -14
28 -49 56 -78 27 -28 50 -55 50 -60 0 -17 -159 -125 -259 -175 -58 -29 -119
-60 -136 -69 -16 -9 -37 -19 -45 -22 -8 -3 -28 -14 -45 -25 -44 -28 -196 -100
-212 -100 -5 0 -42 -11 -83 -24 -41 -14 -97 -28 -125 -31 -27 -4 -52 -7 -55
-8 -3 0 -30 3 -60 8 -30 4 -63 9 -72 10 -31 3 -58 36 -58 71 0 27 10 43 50 82
41 40 61 51 107 61 32 7 69 17 83 21 14 4 59 18 100 31 41 12 86 30 100 40 14
9 57 32 95 50 39 18 71 36 73 41 2 4 10 8 17 8 17 0 129 60 133 72 2 4 12 8
22 8 10 0 21 4 24 9 4 5 41 25 84 45 42 20 93 45 112 55 19 11 36 16 37 13 1
-4 4 -19 7 -33z m1446 -333 c0 -3 -4 -8 -10 -11 -5 -3 -10 -1 -10 4 0 6 5 11
10 11 6 0 10 -2 10 -4z m-30 -26 c0 -5 -5 -10 -11 -10 -5 0 -7 5 -4 10 3 6 8
10 11 10 2 0 4 -4 4 -10z m-20 -34 c0 -3 -4 -8 -10 -11 -5 -3 -10 -1 -10 4 0
6 5 11 10 11 6 0 10 -2 10 -4z m-626 -495 c27 -11 54 -21 62 -21 31 0 19 -21
-54 -93 -124 -122 -149 -144 -191 -164 -7 -3 -24 -16 -38 -29 -14 -13 -35 -26
-47 -29 -11 -4 -34 -13 -51 -20 -26 -12 -60 -25 -75 -30 -3 -1 -23 -9 -45 -19
-22 -9 -53 -20 -70 -23 -16 -4 -49 -14 -72 -24 -22 -10 -44 -15 -47 -12 -3 4
-6 1 -6 -6 0 -7 -6 -11 -14 -8 -8 3 -16 2 -18 -3 -3 -10 -35 -20 -186 -59 -67
-18 -77 -18 -140 -4 -93 21 -118 32 -152 63 -37 35 -38 61 -4 91 15 13 37 34
51 47 13 12 29 22 36 22 7 0 26 8 42 18 17 10 53 26 80 36 28 10 77 30 110 45
33 16 78 31 100 35 22 4 69 18 105 31 36 13 104 34 152 45 48 12 109 32 135
46 26 13 52 24 56 24 9 0 88 53 122 81 31 27 58 28 85 3 14 -12 47 -31 74 -43z"/>
<path d="M3160 2835 c-8 -14 -20 -23 -27 -21 -8 3 -13 -2 -13 -15 0 -11 -4
-17 -10 -14 -5 3 -10 2 -10 -4 0 -17 34 -18 60 -2 60 38 80 81 37 81 -15 0
-29 -9 -37 -25z"/>
<path d="M2565 2163 c-16 -9 -36 -24 -43 -34 -7 -10 -18 -24 -25 -31 -19 -21
-57 -103 -57 -125 0 -34 30 -96 58 -120 34 -29 96 -42 142 -30 19 5 43 9 53
10 9 1 17 5 17 10 0 5 7 7 15 3 34 -12 110 85 128 163 8 33 -27 89 -59 96 -13
3 -35 7 -49 10 -14 3 -25 12 -25 20 0 20 -52 45 -92 45 -18 -1 -46 -8 -63 -17z
m102 -92 c-4 -15 3 -24 28 -35 18 -9 38 -16 44 -16 19 0 12 -26 -14 -54 -13
-14 -28 -26 -32 -27 -4 0 -17 -2 -28 -5 -65 -14 -100 -8 -113 21 -23 51 33
134 92 135 23 0 27 -3 23 -19z"/>
<path d="M1775 1581 c-23 -7 -149 -89 -184 -120 -14 -12 -35 -24 -48 -27 -24
-6 -25 -9 -25 -44 0 -43 3 -48 32 -52 17 -3 33 -1 36 4 3 4 12 8 20 8 11 0 12
-4 5 -18 -14 -26 2 -45 37 -44 42 1 68 17 123 72 58 58 77 90 54 90 -8 0 -14
6 -12 13 3 18 -40 10 -73 -13 -39 -28 -51 -25 -14 3 94 69 126 153 49 128z
m-75 -165 c0 -2 -7 -7 -16 -10 -8 -3 -12 -2 -9 4 6 10 25 14 25 6z"/>
<path d="M1929 1421 c-76 -48 -136 -91 -147 -104 -7 -8 -26 -20 -42 -27 -23
-9 -28 -18 -28 -41 1 -37 9 -42 64 -41 34 1 42 -2 37 -14 -10 -26 17 -46 55
-39 35 6 35 6 28 -26 -14 -72 68 -66 147 11 61 61 98 120 87 141 -14 25 -46
13 -114 -43 -32 -27 -60 -47 -63 -45 -2 3 23 31 57 62 60 58 74 90 43 102 -17
7 -92 -31 -151 -75 -18 -14 -35 -22 -38 -19 -3 3 3 12 15 19 12 7 21 18 21 25
0 7 6 13 13 13 17 0 77 75 77 97 0 24 -27 26 -61 4z"/>
</g>
</svg>
