<?xml version="1.0" standalone="no"?>
<!DOCTYPE svg PUBLIC "-//W3C//DTD SVG 20010904//EN"
 "http://www.w3.org/TR/2001/REC-SVG-20010904/DTD/svg10.dtd">
<svg version="1.0" xmlns="http://www.w3.org/2000/svg"
 width="513.000000pt" height="487.000000pt" viewBox="0 0 513.000000 487.000000"
 preserveAspectRatio="xMidYMid meet">
<metadata>
Created by potrace 1.16, written by Peter Selinger 2001-2019
</metadata>
<g transform="translate(0.000000,487.000000) scale(0.100000,-0.100000)"
fill="#000000" stroke="none">
<path d="M4506 4635 c-3 -8 -22 -22 -43 -31 -46 -20 -50 -22 -138 -76 -38 -23
-79 -51 -90 -61 -11 -11 -54 -41 -95 -68 -41 -27 -113 -76 -160 -109 -47 -33
-107 -73 -135 -90 -27 -16 -61 -40 -75 -52 -14 -13 -46 -37 -72 -53 -27 -17
-48 -33 -48 -37 0 -5 -7 -8 -15 -8 -8 0 -15 -4 -15 -10 0 -5 -4 -10 -10 -10
-11 0 -207 -129 -328 -215 -46 -33 -95 -66 -110 -74 -14 -8 -60 -38 -101 -68
-42 -29 -84 -59 -95 -66 -10 -6 -24 -18 -31 -24 -12 -11 -37 -24 -70 -34 -5
-1 -21 -13 -35 -26 -14 -13 -28 -23 -32 -23 -3 0 -13 -6 -20 -13 -7 -7 -53
-39 -101 -71 -49 -32 -99 -68 -112 -80 -63 -58 -86 -76 -126 -98 -24 -12 -46
-25 -49 -28 -12 -12 -68 -47 -105 -65 -22 -11 -49 -30 -60 -42 -11 -13 -25
-23 -30 -23 -6 0 -16 -9 -23 -20 -7 -11 -21 -20 -31 -20 -11 0 -21 -3 -23 -8
-1 -4 -23 -23 -48 -42 -25 -19 -47 -37 -50 -40 -3 -4 -34 -26 -70 -50 -36 -24
-102 -72 -148 -107 -45 -35 -87 -63 -92 -63 -5 0 -26 -11 -46 -25 -20 -14 -40
-22 -45 -19 -5 3 -9 1 -9 -4 0 -5 -16 -17 -35 -26 -19 -9 -35 -21 -35 -27 0
-5 -17 -17 -37 -27 -21 -9 -42 -23 -46 -30 -5 -7 -12 -10 -18 -7 -5 4 -9 3 -9
-2 0 -4 -17 -19 -38 -33 -20 -13 -61 -42 -90 -64 -41 -30 -56 -36 -62 -26 -6
9 -12 6 -25 -13 -9 -15 -25 -29 -36 -32 -11 -4 -17 -11 -14 -16 4 -5 1 -9 -4
-9 -6 0 -10 -5 -8 -12 2 -12 -73 -58 -84 -52 -3 2 -21 -10 -40 -26 -19 -16
-40 -29 -46 -30 -7 0 -13 -4 -13 -10 0 -5 -6 -10 -13 -10 -12 0 -31 -15 -116
-90 -19 -16 -38 -30 -43 -30 -5 0 -21 -11 -35 -24 -15 -14 -30 -23 -35 -20 -4
3 -8 1 -8 -4 0 -4 -25 -19 -55 -31 -30 -13 -55 -27 -55 -32 0 -5 -7 -9 -15 -9
-8 0 -15 -4 -15 -9 0 -5 -19 -18 -42 -30 -24 -12 -38 -21 -33 -21 6 0 -2 -8
-17 -18 -35 -23 -103 -119 -112 -158 -27 -111 -29 -225 -5 -240 5 -3 7 -10 3
-15 -3 -5 -1 -15 4 -22 10 -13 9 -185 -2 -272 -3 -27 -11 -84 -16 -125 -5 -41
-12 -106 -15 -145 -3 -38 -8 -86 -12 -105 -3 -19 -7 -53 -9 -75 -4 -52 -11
-112 -23 -199 -6 -39 -13 -110 -16 -157 l-4 -87 33 -16 c19 -9 41 -16 49 -16
13 0 106 -41 160 -70 9 -6 25 -14 35 -19 9 -4 31 -15 47 -24 52 -26 298 -90
345 -89 25 0 67 1 93 2 27 0 74 7 105 15 46 12 64 23 94 57 69 80 93 187 64
293 -7 28 -11 56 -9 63 3 6 0 12 -5 12 -6 0 -9 16 -8 35 1 19 -2 35 -6 35 -5
0 -8 12 -8 28 0 30 -27 185 -37 217 -3 11 -8 36 -9 55 -2 19 -5 46 -8 60 -3
14 -10 56 -16 93 -5 38 -17 81 -25 98 -9 16 -13 29 -10 29 3 0 -1 10 -9 22
-14 23 -89 229 -84 233 16 10 86 63 98 73 8 8 40 30 70 51 79 53 107 116 115
254 4 69 12 144 21 185 2 12 11 22 19 22 8 0 15 4 15 9 0 5 16 15 36 21 20 7
50 24 67 39 18 15 46 35 62 46 17 10 60 42 96 72 36 29 71 53 77 53 6 0 12 3
14 8 2 4 37 29 78 56 41 27 79 55 83 62 4 8 13 14 20 14 7 0 30 14 51 30 22
17 46 30 53 30 7 0 13 5 13 10 0 6 6 10 13 10 8 0 22 9 32 20 10 11 24 20 32
20 7 0 13 3 13 8 0 4 22 17 48 29 26 12 70 43 98 67 27 25 55 46 62 46 6 0 12
4 12 9 0 5 21 23 48 40 70 46 156 109 167 123 6 7 37 31 70 53 33 22 62 42 65
45 3 3 23 18 45 35 22 16 42 32 45 36 3 3 21 14 40 24 32 16 88 55 116 80 6 6
37 28 68 50 31 22 79 57 107 77 27 20 71 47 97 60 26 13 49 26 50 31 2 4 10 7
17 7 7 0 15 6 18 14 3 7 27 24 54 37 26 12 59 34 72 48 14 14 29 25 34 23 5
-2 16 6 24 18 8 11 19 20 26 20 6 0 27 11 46 24 94 62 189 123 227 146 23 14
60 38 81 53 21 16 53 38 72 50 80 51 161 107 180 125 7 7 34 24 60 38 75 40
193 122 251 174 134 121 161 145 166 142 2 -1 14 7 26 18 12 11 28 20 35 20
27 0 90 79 98 123 4 23 8 44 8 47 -7 86 -14 105 -55 143 -45 42 -81 60 -107
53 -42 -12 -95 -15 -106 -6 -9 8 -14 6 -19 -5z m167 -97 c14 -13 29 -37 35
-54 11 -36 8 -39 -77 -95 -28 -19 -51 -37 -51 -41 0 -5 -5 -8 -11 -8 -13 0
-101 -75 -175 -147 -28 -28 -83 -72 -122 -97 -38 -24 -73 -49 -77 -55 -3 -6
-30 -23 -58 -38 -29 -14 -65 -36 -80 -49 -16 -13 -35 -24 -42 -24 -7 0 -15 -4
-17 -9 -4 -13 -212 -158 -237 -166 -12 -3 -21 -11 -21 -16 0 -5 -5 -9 -11 -9
-6 0 -29 -13 -52 -29 -85 -58 -167 -111 -172 -111 -3 0 -34 -20 -69 -45 -36
-25 -68 -45 -71 -45 -3 0 -15 -8 -26 -19 -11 -10 -37 -27 -57 -37 -20 -11 -46
-29 -57 -41 -11 -13 -24 -23 -27 -23 -11 0 -121 -67 -147 -89 -13 -12 -27 -21
-31 -21 -3 0 -15 -8 -26 -18 -10 -10 -35 -28 -54 -42 -19 -13 -37 -27 -40 -30
-15 -16 -160 -110 -160 -103 0 4 -6 -1 -14 -12 -8 -11 -36 -31 -63 -45 -26
-14 -50 -28 -53 -31 -3 -4 -21 -15 -41 -26 -20 -11 -43 -26 -52 -34 -8 -8 -24
-21 -37 -29 -12 -8 -32 -24 -44 -35 -12 -11 -37 -31 -55 -45 -19 -14 -45 -35
-60 -48 -14 -12 -47 -36 -73 -53 -27 -17 -48 -35 -48 -40 0 -5 -4 -9 -10 -9
-5 0 -31 -15 -57 -34 -27 -18 -67 -43 -90 -55 -24 -12 -43 -25 -43 -30 0 -5
-25 -22 -56 -37 -31 -15 -58 -33 -61 -41 -3 -7 -9 -13 -14 -13 -6 0 -33 -17
-62 -38 -29 -21 -68 -46 -88 -55 -20 -9 -42 -23 -49 -32 -7 -8 -16 -15 -21
-15 -15 0 -129 -72 -129 -82 0 -5 -4 -7 -9 -4 -4 3 -16 -3 -26 -14 -10 -11
-24 -20 -32 -20 -7 0 -13 -4 -13 -10 0 -5 -7 -10 -15 -10 -8 0 -15 -4 -15 -8
0 -23 -31 -4 -50 30 -12 21 -18 38 -14 38 4 0 -10 16 -31 36 l-40 36 30 16
c17 8 44 26 61 39 17 12 34 23 37 23 8 0 45 29 66 53 8 9 20 17 26 17 6 0 53
29 105 65 52 36 99 65 106 65 7 0 19 6 26 13 7 7 31 24 53 37 22 13 44 30 48
37 4 7 15 13 22 13 8 0 15 5 15 10 0 6 8 10 18 10 9 0 34 15 54 33 54 47 99
81 117 88 9 4 23 15 31 24 17 20 116 95 125 95 8 0 109 82 113 93 2 4 11 7 20
8 10 0 29 8 43 17 76 50 115 76 119 81 6 7 121 84 135 90 5 2 21 15 35 28 29
28 218 158 270 186 19 11 44 27 55 36 32 28 144 101 154 101 5 0 16 6 23 13 7
6 28 22 46 35 18 13 52 37 75 53 23 16 62 45 87 64 25 19 51 35 58 35 7 0 27
13 45 30 18 16 36 30 40 30 5 0 45 25 89 55 44 30 82 55 85 55 2 0 11 7 20 16
15 14 221 155 267 181 12 7 37 26 56 43 19 16 38 30 41 30 4 0 33 18 65 40 33
22 84 57 114 77 30 20 62 43 70 50 24 22 151 103 160 103 5 0 10 3 12 8 6 15
84 51 110 52 15 0 38 -10 51 -22z m-3441 -2360 c46 -57 50 -71 31 -115 -12
-29 -14 -57 -9 -119 l6 -82 -46 -33 c-96 -70 -120 -96 -108 -116 18 -29 43
-27 89 6 24 17 46 31 48 31 3 0 1 -15 -4 -32 -9 -33 -70 -98 -91 -98 -6 0 -20
-10 -32 -23 -11 -12 -41 -37 -66 -54 l-45 -31 0 62 c-1 79 -40 194 -70 208
-16 7 -29 7 -44 -1 -22 -12 -28 -45 -10 -57 15 -9 41 -71 46 -112 7 -49 -14
-131 -42 -164 -32 -38 -32 -69 5 -168 17 -45 39 -123 51 -173 11 -51 31 -116
45 -145 13 -28 24 -54 24 -57 0 -3 6 -22 14 -42 37 -101 96 -416 96 -509 0
-69 -14 -127 -36 -145 -28 -23 -162 -4 -251 37 -17 8 -35 14 -41 14 -5 0 -20
8 -33 18 -24 18 -217 84 -254 87 -11 1 -37 8 -58 15 -31 12 -37 19 -38 45 -1
16 0 35 1 40 5 22 31 214 35 265 3 30 7 64 10 76 2 11 7 56 10 100 8 101 13
142 25 179 5 17 16 75 25 130 8 55 17 112 20 126 2 14 -4 70 -16 125 -29 144
-33 208 -14 242 l16 27 -5 -44 c-2 -23 2 -66 9 -95 7 -28 16 -64 19 -81 17
-98 68 -163 141 -180 6 -2 15 -4 20 -6 6 -1 25 1 44 5 70 17 119 111 122 232
1 59 -29 188 -56 241 -8 15 -15 33 -15 39 0 14 -76 44 -110 44 l-25 0 27 25
c15 14 32 25 37 25 11 0 63 28 106 56 13 9 29 13 35 9 5 -3 10 0 10 7 0 14 94
88 112 88 6 0 8 3 5 6 -6 7 73 58 126 81 15 7 27 17 27 23 0 5 11 10 24 10 16
0 35 -14 58 -42z m-506 -376 c6 -4 17 -18 24 -31 17 -32 42 -142 34 -150 -3
-3 -18 8 -33 24 -15 17 -41 37 -57 45 -23 13 -30 23 -32 55 -4 50 30 80 64 57z
m-76 -192 c14 -7 42 -33 63 -57 21 -23 47 -43 57 -43 14 0 17 -5 12 -22 -18
-74 -72 -90 -124 -38 -22 22 -29 37 -25 55 2 14 1 25 -3 25 -9 0 -20 38 -26
90 -3 29 -2 32 9 19 6 -9 23 -22 37 -29z m356 -386 c4 -16 13 -38 21 -50 7
-11 16 -43 19 -70 3 -27 15 -73 25 -102 27 -75 23 -97 -6 -34 -32 68 -52 140
-51 175 1 15 -1 27 -4 27 -3 0 -11 19 -17 43 -7 23 -15 51 -19 62 -6 19 -6 19
9 -1 9 -11 19 -34 23 -50z m101 -356 c-3 -8 -6 -5 -6 6 -1 11 2 17 5 13 3 -3
4 -12 1 -19z m52 -186 c0 -24 -1 -25 -9 -7 -12 28 -12 47 0 40 6 -3 10 -18 9
-33z m15 -82 c4 -31 3 -40 -4 -30 -5 8 -10 30 -10 49 0 45 6 37 14 -19z m23
-192 c-3 -8 -6 -5 -6 6 -1 11 2 17 5 13 3 -3 4 -12 1 -19z m7 -113 c-4 -29
-10 -42 -14 -34 -5 7 -7 17 -5 23 2 6 6 24 10 40 10 45 17 23 9 -29z"/>
</g>
</svg>
