<?xml version="1.0" standalone="no"?>
<!DOCTYPE svg PUBLIC "-//W3C//DTD SVG 20010904//EN"
 "http://www.w3.org/TR/2001/REC-SVG-20010904/DTD/svg10.dtd">
<svg version="1.0" xmlns="http://www.w3.org/2000/svg"
 width="491.000000pt" height="461.000000pt" viewBox="0 0 491.000000 461.000000"
 preserveAspectRatio="xMidYMid meet">
<metadata>
Created by potrace 1.16, written by Peter Selinger 2001-2019
</metadata>
<g transform="translate(0.000000,461.000000) scale(0.100000,-0.100000)"
fill="#000000" stroke="none">
<path d="M2396 4518 c-9 -5 -16 -14 -16 -20 0 -6 -15 -43 -34 -82 -18 -39 -39
-91 -46 -116 -27 -98 -32 -110 -41 -110 -5 0 -9 11 -9 24 0 25 -14 73 -36 123
-8 17 -11 38 -8 47 3 9 1 16 -5 16 -6 0 -11 8 -11 18 0 28 -23 71 -42 75 -9 3
-24 -3 -33 -12 -15 -17 -18 -37 -30 -186 -4 -38 -8 -71 -10 -73 -6 -6 -45 23
-45 34 0 6 -21 31 -47 54 -27 23 -61 54 -77 68 -42 38 -62 21 -59 -53 1 -31 6
-62 11 -68 5 -7 8 -45 7 -85 -2 -64 1 -79 31 -139 19 -37 34 -72 34 -77 0 -6
-20 10 -44 37 -30 33 -52 47 -70 47 -27 0 -99 29 -104 43 -5 10 -82 49 -82 42
0 -9 -44 17 -53 31 -4 8 -23 14 -42 14 -60 0 -56 -24 29 -170 14 -25 26 -52
26 -61 0 -9 12 -33 26 -54 21 -32 22 -37 7 -32 -32 10 -170 73 -196 90 -58 38
-160 44 -184 12 -17 -25 -17 -28 10 -56 13 -13 38 -44 57 -69 19 -25 46 -55
60 -68 57 -51 100 -93 100 -97 0 -6 -80 5 -117 16 -43 13 -183 0 -190 -17 -12
-31 11 -69 85 -140 l77 -76 -97 7 c-60 4 -103 2 -115 -4 -10 -6 -35 -17 -55
-25 -53 -21 -52 -57 3 -108 33 -30 63 -45 156 -74 119 -37 133 -54 48 -54 -34
0 -49 -7 -87 -42 -54 -51 -63 -71 -40 -91 22 -18 99 -42 182 -57 93 -16 97
-18 74 -35 -10 -8 -26 -15 -35 -15 -15 0 -99 -73 -99 -86 0 -3 -10 -20 -22
-37 -25 -35 -30 -53 -22 -79 7 -23 29 -26 99 -12 33 7 62 11 65 9 4 -2 33 3
64 11 32 8 60 13 63 11 2 -3 -8 -22 -22 -43 -37 -55 -77 -144 -77 -174 -1 -49
2 -57 30 -69 15 -7 24 -10 20 -6 -9 9 74 52 127 66 22 6 45 17 52 25 8 11 13
12 18 4 4 -6 -5 -28 -19 -48 -41 -59 -63 -138 -57 -204 1 -23 24 -23 70 1 30
16 54 27 81 36 27 9 40 20 45 35 3 10 13 21 22 24 12 5 14 1 9 -21 -3 -16 -8
-41 -11 -57 -2 -15 -14 -47 -25 -71 -28 -58 -15 -95 32 -95 39 1 65 20 98 75
13 22 32 49 42 59 10 11 18 25 18 31 0 7 9 20 20 30 20 18 20 18 14 -13 -4
-18 -3 -32 2 -32 5 0 8 -42 6 -94 -3 -84 -1 -97 17 -115 11 -11 26 -18 33 -16
16 6 48 61 48 82 0 8 6 29 14 46 14 33 28 68 30 77 1 3 7 15 14 26 6 12 8 24
5 28 -3 3 -2 6 4 6 6 0 10 -49 10 -127 1 -111 29 -364 46 -413 3 -8 8 -35 11
-60 l6 -45 -36 40 c-75 84 -88 95 -120 101 -18 3 -39 13 -45 20 -8 10 -22 13
-38 9 -16 -3 -66 6 -125 25 -54 16 -104 30 -110 30 -6 0 -33 11 -61 25 -27 13
-68 25 -90 25 -22 0 -51 7 -65 15 -14 8 -42 23 -62 32 -20 10 -43 28 -50 41
-18 35 -53 26 -52 -13 4 -77 45 -199 81 -242 13 -15 34 -43 46 -63 60 -98 164
-187 280 -239 34 -16 89 -41 121 -56 89 -41 132 -55 234 -75 68 -13 99 -24
116 -42 13 -12 35 -31 49 -40 20 -14 26 -28 31 -75 3 -32 13 -121 22 -198 9
-77 18 -158 20 -180 1 -22 6 -60 10 -85 9 -56 9 -53 19 -292 4 -112 4 -198 -1
-198 -5 0 -13 4 -19 8 -16 12 -89 96 -105 122 -8 14 -36 45 -61 70 -25 25 -54
60 -65 78 -18 31 -53 50 -72 39 -13 -9 -113 65 -186 136 -23 23 -36 28 -60 24
-23 -3 -42 3 -73 25 -24 16 -43 33 -43 38 0 6 -9 10 -20 10 -11 0 -20 7 -20
15 0 8 -7 15 -15 15 -8 0 -24 9 -34 19 -11 11 -44 24 -75 31 -31 6 -62 17 -68
23 -7 7 -29 20 -48 30 -19 9 -48 26 -65 36 -34 22 -85 27 -102 10 -11 -11 -47
2 -145 52 -25 13 -66 11 -70 -3 -3 -9 -30 -4 -99 16 -52 15 -100 33 -106 38
-7 6 -39 10 -72 9 -55 0 -65 3 -134 48 -41 27 -81 59 -89 70 -13 18 -27 23
-76 25 -46 2 -70 9 -101 29 -23 15 -41 32 -41 37 0 18 -52 32 -77 21 -18 -8
-21 -17 -19 -48 4 -39 32 -124 44 -133 17 -12 32 -63 23 -74 -7 -8 -5 -20 4
-36 8 -14 17 -32 21 -40 16 -40 29 -61 46 -79 10 -11 18 -34 18 -52 0 -55 44
-121 100 -148 50 -25 84 -56 86 -78 1 -7 2 -23 3 -36 0 -12 18 -41 39 -64 30
-33 48 -43 92 -52 48 -10 56 -15 58 -36 1 -14 14 -38 29 -55 23 -26 33 -30 81
-30 48 0 54 -2 50 -18 -8 -31 24 -86 62 -104 21 -11 58 -18 91 -18 49 0 61 -4
88 -29 17 -16 52 -40 78 -52 38 -18 53 -21 82 -13 41 11 82 7 61 -6 -7 -4 -9
-16 -6 -27 10 -31 116 -62 188 -56 55 5 57 5 56 -18 -2 -50 -6 -49 146 -49
139 0 143 1 142 21 -2 33 -52 49 -96 31 -41 -17 -108 -18 -124 -2 -8 8 -5 16
12 30 27 23 27 26 0 44 -18 11 -42 12 -113 6 -93 -8 -145 -4 -145 11 0 5 14
22 31 37 l31 28 -24 16 c-22 15 -32 15 -104 1 -64 -12 -86 -12 -116 -2 -31 10
-36 15 -26 26 9 11 7 18 -8 33 -15 15 -38 20 -109 23 -93 4 -135 17 -135 42 0
15 23 41 42 48 9 3 5 13 -12 32 -23 25 -29 27 -82 21 -53 -5 -108 7 -108 23 0
4 9 15 21 24 19 17 20 20 5 36 -9 10 -36 21 -59 25 -103 15 -117 19 -127 31
-9 10 -6 16 9 24 30 17 14 46 -50 89 -150 102 -183 140 -157 182 11 17 10 22
-2 30 -8 5 -10 10 -5 10 6 0 -5 10 -23 21 -38 25 -64 76 -67 138 -1 24 -7 46
-13 50 -16 10 -62 112 -62 138 0 16 4 21 15 17 8 -4 15 -12 15 -19 0 -7 15
-18 33 -25 17 -7 41 -16 52 -21 29 -12 102 -30 112 -27 8 2 64 -30 73 -43 3
-4 29 -23 58 -43 44 -31 64 -38 120 -42 70 -6 136 -23 213 -56 35 -15 57 -18
87 -13 34 5 52 2 98 -20 45 -21 68 -26 113 -24 67 4 110 -11 171 -60 76 -62
99 -73 131 -66 36 8 62 -10 175 -121 47 -46 92 -84 99 -84 8 0 20 9 28 20 17
24 37 19 57 -14 25 -38 127 -125 175 -147 43 -20 135 -102 135 -120 0 -5 24
-42 53 -82 70 -94 82 -117 64 -117 -8 0 -20 6 -26 14 -7 8 -23 17 -37 20 -18
5 -24 11 -20 23 7 18 -20 53 -41 53 -8 0 -39 11 -69 25 -30 14 -60 25 -66 25
-10 0 -140 58 -183 83 -160 89 -195 110 -205 122 -7 8 -18 15 -26 15 -7 0 -41
32 -76 72 -61 70 -177 188 -231 236 -15 13 -31 21 -36 17 -6 -3 8 -22 31 -43
23 -20 58 -55 77 -77 20 -22 46 -50 58 -62 12 -12 29 -35 39 -50 25 -40 167
-163 189 -163 7 0 20 -9 30 -20 18 -19 17 -20 -2 -20 -11 0 -40 7 -63 15 -23
8 -58 15 -77 15 -25 0 -43 8 -64 29 -16 17 -39 33 -52 37 -30 9 -102 49 -157
88 -51 36 -41 27 -155 131 -48 44 -119 103 -159 132 -39 29 -86 64 -104 79
-23 18 -36 24 -43 17 -7 -7 1 -19 28 -39 111 -81 146 -110 199 -163 33 -32 68
-70 80 -83 12 -14 32 -32 44 -41 13 -9 21 -20 17 -24 -4 -3 -13 -1 -19 5 -7 7
-19 12 -28 12 -52 0 -119 33 -180 89 -43 40 -85 67 -123 82 -34 13 -87 46
-127 80 -39 32 -88 64 -111 70 -25 8 -53 27 -73 51 -18 21 -40 38 -49 38 -9 0
-19 5 -22 10 -11 18 -41 11 -42 -10 -2 -19 43 -60 65 -60 6 0 17 -6 24 -13 36
-34 74 -58 110 -68 27 -7 60 -29 97 -66 58 -57 86 -73 125 -73 13 0 36 -11 52
-25 16 -14 35 -25 42 -25 7 0 11 -4 8 -8 -6 -10 28 -42 82 -79 l35 -23 -29 0
c-102 0 -245 51 -309 109 -43 38 -88 46 -93 16 -2 -16 16 -30 97 -73 111 -59
191 -80 326 -86 83 -4 103 3 68 23 -10 6 -12 11 -6 11 7 0 18 -9 25 -20 7 -11
22 -20 33 -20 19 0 63 -24 75 -41 3 -4 30 -12 60 -17 32 -6 87 -29 129 -53 50
-29 90 -44 125 -48 l51 -5 -45 -7 c-89 -15 -138 -9 -242 25 -117 39 -138 41
-138 14 0 -22 19 -30 142 -60 107 -26 206 -29 295 -9 61 13 64 13 118 -13 30
-14 76 -31 102 -38 27 -6 62 -17 78 -24 27 -11 17 -13 -89 -13 -103 0 -122 -3
-138 -18 -15 -16 -16 -22 -5 -36 11 -16 19 -17 87 -6 43 6 123 9 185 6 94 -4
119 -9 170 -34 59 -28 93 -49 141 -88 l25 -20 -47 -2 c-32 -2 -61 -12 -93 -33
-50 -31 -98 -38 -145 -20 -18 7 -39 4 -78 -10 l-53 -19 162 0 c89 -1 174 4
189 9 14 6 60 13 101 17 40 3 76 10 79 14 9 15 34 10 34 -5 0 -8 5 -18 12 -22
17 -11 305 -6 326 5 10 5 46 11 80 13 34 2 62 6 62 9 0 13 77 39 128 44 29 3
61 9 70 14 9 5 53 12 97 16 43 4 93 15 110 24 16 10 57 28 90 41 33 13 74 32
90 42 17 10 40 22 51 27 12 5 24 16 27 24 3 9 23 24 44 33 21 10 43 22 48 26
6 5 33 23 60 41 28 17 54 42 60 54 5 12 30 34 54 50 60 37 187 161 196 192 4
13 24 41 44 61 76 78 111 123 117 148 4 15 38 59 76 98 62 63 70 76 70 110 1
29 9 48 33 74 47 52 101 132 108 160 3 14 14 34 24 45 52 57 71 148 33 160
-17 6 -15 12 29 73 53 75 67 119 47 148 -10 14 -11 26 -3 44 5 14 12 33 13 43
2 10 11 31 19 47 17 32 20 85 6 75 -6 -3 -14 3 -20 12 -6 10 -11 13 -11 6 0
-7 -7 -10 -15 -7 -8 4 -15 1 -15 -4 0 -6 -14 -23 -31 -39 -17 -15 -46 -43 -63
-61 -18 -17 -36 -32 -40 -32 -4 0 -14 -7 -23 -16 -9 -8 -22 -13 -30 -10 -8 4
-13 1 -11 -5 7 -20 -175 -185 -260 -236 -21 -12 -44 -27 -51 -35 -32 -29 -137
-88 -157 -88 -12 0 -38 -14 -59 -30 -62 -49 -158 -91 -193 -84 -25 5 -36 0
-69 -33 -38 -38 -125 -103 -137 -103 -3 0 -6 9 -6 20 0 30 -27 36 -58 13 -76
-55 -221 -152 -251 -168 -27 -14 -39 -15 -53 -6 -26 16 -46 14 -65 -9 -10 -11
-23 -20 -30 -20 -6 0 -16 -6 -20 -13 -4 -7 -39 -34 -77 -61 -37 -27 -80 -63
-95 -80 -14 -17 -48 -53 -75 -81 -52 -54 -106 -119 -106 -129 0 -3 -24 -43
-53 -88 -30 -46 -64 -109 -77 -140 -25 -62 -44 -68 -35 -12 3 20 1 43 -4 53
-6 10 -12 51 -15 92 -6 79 -14 146 -22 167 -2 8 -7 57 -10 110 -5 95 -5 97 18
107 13 6 23 17 23 25 1 8 6 25 13 36 6 12 9 24 6 27 -9 9 27 66 66 107 47 49
154 116 210 130 70 18 180 76 230 120 25 22 50 40 56 40 7 0 14 6 17 13 3 8
26 24 51 35 24 12 62 39 83 61 21 21 58 51 83 66 65 41 137 117 145 156 4 18
13 39 19 46 58 65 86 111 86 141 0 16 14 58 32 92 17 34 31 75 30 92 0 18 4
41 10 52 17 32 39 255 26 275 -17 27 -61 15 -82 -22 -10 -18 -52 -59 -94 -92
-42 -33 -94 -78 -117 -101 -22 -22 -48 -43 -57 -47 -10 -3 -18 -11 -18 -17 0
-5 -5 -10 -11 -10 -6 0 -22 -9 -36 -20 -14 -11 -29 -17 -35 -14 -5 3 -38 -22
-74 -55 -35 -34 -74 -61 -84 -61 -11 0 -50 -29 -85 -64 -53 -51 -70 -62 -90
-58 -18 3 -25 0 -25 -12 0 -9 -6 -16 -13 -16 -7 0 -28 -20 -46 -44 -19 -25
-44 -47 -56 -50 -26 -7 -85 -59 -85 -75 0 -16 -80 -141 -90 -141 -4 0 -14 -15
-23 -32 -36 -80 -80 -184 -92 -218 -1 -3 -5 -29 -10 -58 -4 -29 -10 -50 -13
-47 -16 16 -65 252 -83 400 -10 89 -14 118 -24 174 -3 21 -8 62 -10 92 -3 30
-11 85 -19 124 -20 100 -13 214 18 309 29 87 32 122 14 129 -10 4 -10 6 -1 6
20 1 42 -41 47 -91 9 -81 25 -126 59 -158 61 -58 90 -31 82 77 -13 175 -13
203 -5 203 14 0 46 -50 73 -115 18 -43 35 -66 61 -82 35 -23 36 -23 55 -4 19
19 41 79 41 114 0 15 6 14 43 -10 23 -15 59 -42 80 -60 32 -29 41 -32 59 -22
18 10 20 17 15 69 -3 32 -9 65 -13 72 -15 22 -33 82 -28 87 8 9 56 -22 68 -44
21 -39 53 -46 80 -19 25 25 11 115 -30 197 -19 37 -34 72 -34 77 0 16 41 12
100 -11 30 -11 72 -27 94 -35 40 -15 175 -20 177 -6 0 4 2 20 4 36 3 22 -7 43
-43 90 -25 34 -50 64 -55 67 -4 3 45 5 110 3 124 -2 133 1 133 45 0 25 -111
141 -136 141 -8 0 -14 4 -14 9 0 5 -8 11 -17 14 -10 4 -29 15 -43 27 -14 11
-36 22 -49 25 -27 5 -41 15 -22 15 17 0 83 31 99 47 7 7 18 13 24 13 6 0 27
12 47 27 19 15 42 28 49 29 25 4 42 27 39 53 -5 33 -67 71 -120 71 -51 0 -40
14 33 41 67 24 86 41 75 66 -5 10 -9 24 -11 32 -6 30 -59 48 -146 50 -32 0
-58 3 -58 5 0 2 26 31 58 64 68 72 100 141 84 178 -12 25 -15 25 -104 8 l-37
-7 8 31 c5 17 7 33 4 36 -3 3 -1 11 4 18 22 26 50 154 40 177 -14 31 -67 25
-113 -12 l-35 -29 17 39 c9 21 20 45 24 54 5 9 10 36 11 60 3 39 1 44 -18 47
-20 3 -97 -37 -104 -55 -4 -9 -85 -73 -92 -73 -9 0 5 43 34 109 16 35 29 72
29 82 0 10 5 21 10 24 15 9 12 61 -4 74 -7 6 -24 9 -37 7 -13 -3 -28 -5 -33
-5 -4 -1 -6 -10 -3 -22 3 -12 3 -18 0 -15 -4 3 -14 -1 -24 -10 -13 -12 -19
-12 -25 -3 -4 7 -3 10 3 6 13 -8 27 74 18 102 -8 26 -41 33 -58 12 -8 -9 -22
-32 -31 -51 -9 -19 -36 -57 -61 -84 -57 -61 -141 -169 -138 -178 1 -3 -4 -8
-11 -11 -9 -4 -14 2 -14 16 -2 163 -2 231 0 276 4 72 -13 83 -67 46 -22 -14
-39 -27 -37 -28 8 -5 -39 -129 -55 -149 -8 -9 -12 -21 -9 -26 3 -6 -1 -13 -9
-16 -19 -7 -20 -4 -40 99 -17 84 -35 144 -45 146 -33 5 -51 4 -64 -3z m53
-194 c26 -108 29 -213 7 -247 -8 -12 -18 -38 -21 -57 -3 -19 -10 -48 -15 -65
-19 -65 -30 -146 -35 -274 -4 -77 -12 -148 -20 -167 -7 -18 -11 -35 -7 -38 3
-3 0 -6 -6 -6 -6 0 -10 21 -10 54 1 30 -4 61 -10 68 -14 18 -49 176 -55 248
-2 30 2 75 9 100 8 25 13 77 13 115 0 39 4 81 9 95 9 20 22 66 26 90 1 5 11
32 46 123 12 31 28 57 34 57 7 0 22 -41 35 -96z m216 -75 c4 -148 -5 -216 -31
-226 -7 -3 -14 -9 -14 -15 0 -11 -86 -145 -99 -153 -6 -3 -8 40 -5 111 3 92 8
121 21 136 9 10 18 35 20 55 1 20 9 50 16 67 8 17 26 66 42 109 17 47 31 75
37 69 5 -5 11 -74 13 -153z m-498 33 c11 -31 24 -77 28 -102 4 -25 14 -62 21
-84 15 -42 19 -122 6 -130 -4 -2 -17 13 -29 35 -12 22 -16 36 -10 32 6 -4 2 5
-10 21 -17 21 -20 33 -13 52 7 18 6 24 -4 24 -8 0 -17 7 -20 16 -9 23 -7 194
2 194 4 0 17 -26 29 -58z m769 -64 c-27 -97 -58 -182 -107 -284 -16 -34 -29
-66 -29 -71 0 -5 -9 -15 -19 -23 -11 -7 -17 -18 -14 -23 3 -6 2 -7 -4 -4 -15
9 -61 -40 -142 -151 -41 -56 -78 -102 -82 -102 -20 0 49 115 144 240 27 35 54
76 61 90 12 27 49 87 66 108 16 18 2 36 -16 21 -8 -6 -14 -16 -14 -21 0 -6
-13 -27 -30 -48 -16 -21 -30 -40 -30 -43 0 -3 -12 -19 -26 -34 -49 -52 -183
-232 -184 -247 0 -5 -13 -35 -30 -68 -16 -32 -30 -67 -30 -78 0 -11 -4 -20
-10 -20 -12 0 -13 57 -1 64 4 3 11 19 14 36 4 17 17 54 30 83 14 28 34 76 45
106 26 66 112 201 129 201 14 0 53 53 53 73 0 15 94 151 135 195 13 14 21 30
18 35 -3 6 -2 7 4 4 6 -4 28 14 49 40 50 59 54 44 20 -79z m131 85 c1 -17 -6
-35 -60 -153 -12 -25 -21 -51 -22 -57 -1 -19 -32 -46 -44 -39 -8 5 -6 12 4 22
8 9 15 22 15 30 0 8 4 22 8 32 5 9 24 49 42 87 30 63 48 95 55 95 1 0 2 -8 2
-17z m-1091 -80 c25 -26 50 -57 57 -69 7 -12 23 -41 36 -65 13 -24 34 -57 46
-74 12 -16 30 -50 40 -75 10 -25 26 -63 35 -85 12 -27 20 -78 24 -153 l6 -113
-23 28 c-27 35 -43 60 -62 98 -9 17 -27 48 -40 70 -14 22 -29 50 -35 62 -5 11
-14 24 -19 28 -6 3 -38 61 -71 128 -57 116 -60 125 -59 195 0 41 5 72 11 72 5
0 30 -21 54 -47z m1169 -210 c-31 -65 -67 -132 -80 -149 -13 -17 -22 -33 -20
-36 2 -2 -7 -17 -21 -33 -13 -16 -36 -47 -50 -69 -30 -48 -115 -118 -147 -123
-12 -2 -56 -25 -97 -52 -92 -59 -158 -96 -164 -90 -2 2 25 36 60 74 36 39 72
84 80 102 9 18 36 54 61 80 24 26 49 57 55 68 6 11 19 25 28 32 9 7 41 48 71
92 33 49 69 89 92 103 21 13 71 47 110 75 39 29 72 51 75 49 2 -3 -22 -58 -53
-123z m-1480 30 c19 -9 35 -20 35 -23 0 -7 52 -24 102 -35 15 -3 38 -17 52
-33 78 -84 124 -146 135 -182 7 -25 16 -38 23 -34 6 4 8 3 4 -4 -3 -6 12 -30
35 -54 54 -56 89 -102 89 -116 0 -18 -119 70 -126 93 -4 11 -10 22 -14 25 -4
3 -24 38 -45 78 -33 63 -73 109 -76 85 0 -4 -2 -16 -4 -25 -2 -9 3 -19 9 -21
7 -3 35 -49 62 -102 28 -55 62 -108 79 -121 136 -109 151 -124 122 -124 -20 0
-168 75 -201 101 -56 45 -182 179 -168 179 3 0 -4 10 -15 23 -25 27 -111 185
-147 270 -19 44 -9 48 49 20z m1625 -105 c-13 -44 -34 -85 -51 -104 -16 -17
-27 -33 -23 -36 12 -12 -48 -41 -94 -46 -26 -2 -48 -8 -50 -13 -2 -5 -7 -9
-12 -9 -5 0 7 23 26 51 19 28 34 57 34 63 0 20 38 49 54 43 10 -4 13 -1 9 9
-3 8 1 14 11 14 9 0 16 4 16 9 0 4 19 32 41 60 56 70 70 56 39 -41z m-827 -15
c-3 -108 -20 -193 -34 -171 -16 24 16 268 35 268 1 0 1 -44 -1 -97z m-1035
-53 c34 -16 64 -30 67 -30 8 0 121 -68 154 -92 13 -10 31 -18 40 -18 9 0 25
-14 35 -31 10 -17 38 -55 62 -85 24 -30 44 -58 44 -64 0 -17 -71 0 -105 24
-16 12 -43 27 -59 34 -32 14 -101 72 -232 197 -111 105 -112 118 -6 65z m1952
-118 c0 -9 -8 -19 -76 -99 -37 -44 -213 -140 -384 -210 -47 -19 -96 -41 -108
-50 -44 -28 -130 -51 -214 -58 l-83 -7 30 27 c17 14 81 51 143 80 62 30 127
65 145 79 18 13 49 29 70 36 22 7 62 31 90 54 79 64 99 76 127 76 14 0 52 14
85 31 76 40 175 63 175 41z m-1975 -150 c28 -5 60 -13 72 -20 12 -7 53 -16 91
-22 52 -7 82 -18 122 -45 37 -25 63 -35 90 -35 20 0 72 -11 114 -25 42 -14 81
-25 86 -25 5 0 53 -21 107 -46 94 -44 97 -47 70 -56 -15 -6 -40 -7 -55 -2 -35
10 -32 9 -67 23 -16 7 -48 19 -70 27 -21 8 -60 28 -86 45 -31 20 -65 32 -100
35 -60 6 -109 22 -109 35 0 5 -9 9 -20 9 -11 0 -20 -4 -20 -9 0 -18 12 -41 21
-41 6 0 19 -8 30 -19 12 -11 43 -21 77 -25 55 -7 126 -39 151 -70 7 -9 18 -13
24 -9 5 3 7 2 4 -4 -4 -7 -24 -7 -54 -2 -27 5 -91 15 -143 23 -83 13 -112 24
-227 82 -127 64 -166 91 -225 151 -49 49 -46 50 117 25z m2025 -101 c0 -13
-71 -42 -119 -48 -25 -3 -65 -14 -89 -25 -24 -10 -66 -18 -93 -18 -27 0 -49
-4 -49 -9 0 -23 -144 -48 -172 -30 -10 7 -10 9 2 9 20 0 115 39 160 65 50 30
100 49 107 41 3 -3 13 0 21 6 24 21 232 28 232 9z m-2055 -128 c95 -16 255
-76 236 -87 -6 -4 -34 -9 -63 -12 -29 -3 -65 -10 -80 -16 -20 -7 -32 -6 -50 5
-12 8 -43 18 -68 22 -62 9 -168 43 -208 68 -77 46 32 56 233 20z m970 -61 c5
-25 2 -38 -10 -52 -11 -13 -15 -28 -11 -44 5 -22 3 -24 -31 -24 -20 0 -42 -6
-47 -14 -6 -7 -24 -19 -39 -26 -43 -19 -46 -13 -4 9 31 17 37 24 35 49 -1 20
-9 32 -23 37 -19 6 -18 7 5 13 14 3 27 15 29 25 2 11 19 35 39 53 39 36 44 33
57 -26z m1091 5 c3 -3 -7 -12 -23 -21 -16 -8 -35 -22 -43 -31 -16 -19 -77 -49
-99 -48 -9 1 -52 -6 -95 -14 -73 -14 -93 -14 -235 2 -165 18 -311 47 -294 58
5 4 37 7 69 8 32 1 75 8 94 14 20 7 111 16 203 20 91 4 181 11 199 15 36 9
215 6 224 -3z m-1591 -106 c58 -10 57 -10 -10 -18 -27 -3 -66 -13 -85 -23 -19
-9 -48 -20 -65 -24 -16 -4 -38 -16 -47 -26 -15 -16 -16 -20 -2 -31 12 -10 20
-10 35 -1 10 7 29 12 42 12 12 0 31 6 42 14 11 7 43 15 70 18 28 3 66 12 85
21 64 29 162 58 189 55 22 -3 15 -8 -44 -37 -38 -19 -81 -42 -95 -52 -43 -28
-122 -48 -217 -53 -50 -3 -103 -10 -118 -16 -34 -13 -126 -13 -160 0 -14 5
-44 12 -67 15 -105 13 -175 33 -161 45 4 4 39 15 77 24 37 9 96 31 129 48 47
23 75 30 117 30 30 0 64 4 75 8 23 9 135 5 210 -9z m926 -70 c117 -29 247 -93
314 -156 50 -45 92 -78 120 -92 17 -8 50 -41 75 -74 25 -32 49 -58 53 -59 5 0
5 -4 2 -10 -10 -17 -44 -11 -114 20 -38 16 -83 31 -102 34 -86 11 -160 48
-181 89 -5 12 -32 40 -58 62 -58 48 -63 62 -13 35 21 -11 44 -20 52 -20 21 0
99 -48 110 -67 7 -13 14 -15 29 -7 17 8 18 12 6 41 -17 40 -84 90 -133 99 -20
4 -52 18 -71 30 -19 13 -43 24 -54 24 -10 0 -35 12 -55 28 -19 15 -42 30 -51
34 -27 12 -4 8 71 -11z m368 -32 c20 -6 50 -15 66 -21 17 -5 46 -14 66 -18 49
-13 119 -53 154 -91 l30 -31 -80 6 c-44 3 -93 7 -110 9 -24 2 -32 8 -40 35 -9
30 -12 33 -40 28 -30 -6 -54 5 -96 43 -9 9 -27 24 -40 34 l-23 17 39 0 c21 0
55 -5 74 -11z m-667 -71 c12 -24 43 -92 68 -153 25 -60 51 -109 57 -108 6 1 9
-6 6 -18 -6 -22 8 -56 43 -105 19 -26 28 -53 33 -96 1 -5 8 -8 16 -8 25 0 19
81 -9 123 -13 19 -27 46 -31 58 -4 13 -21 50 -37 83 -16 32 -28 60 -26 62 10
9 77 -87 98 -141 13 -33 26 -64 30 -70 28 -39 45 -274 22 -297 -11 -11 -42 16
-42 38 0 8 -4 14 -10 14 -5 0 -10 9 -10 20 0 22 -17 53 -64 114 -19 24 -31 53
-32 75 -2 42 -15 73 -49 119 -13 18 -29 59 -35 90 -12 60 -25 104 -59 190 -17
43 -18 52 -6 52 8 0 25 -19 37 -42z m-356 -41 c-43 -65 -190 -218 -238 -247
-18 -11 -41 -20 -51 -20 -16 0 -125 -56 -137 -70 -3 -3 -20 -12 -37 -19 -18
-7 -31 -17 -28 -21 3 -5 -3 -6 -13 -3 -10 2 -43 -4 -74 -14 l-55 -19 9 34 c21
75 112 179 210 238 32 20 76 52 96 71 20 19 48 42 61 51 27 19 131 62 131 55
0 -12 -132 -106 -221 -156 -64 -36 -77 -53 -56 -74 15 -15 20 -13 69 19 29 19
78 51 108 71 31 19 78 54 105 76 27 23 55 41 61 41 7 0 14 5 16 12 4 11 69 39
76 32 2 -1 -12 -27 -32 -57z m104 -33 c-45 -103 -50 -115 -50 -132 -1 -26
-179 -373 -206 -400 -16 -15 -18 -28 -6 -35 4 -2 2 -2 -5 -1 -6 2 -36 -28 -65
-66 -28 -38 -54 -68 -56 -66 -3 4 7 46 34 144 9 30 30 70 48 90 18 20 31 42
29 49 -6 16 70 172 117 243 21 30 47 73 58 94 12 21 42 66 69 100 54 69 68 60
33 -20z m458 40 c116 -75 162 -107 162 -113 0 -4 34 -44 75 -89 41 -45 75 -89
75 -97 0 -9 14 -41 30 -72 17 -31 30 -58 30 -60 0 -8 -71 35 -103 63 -7 5 -36
23 -66 40 -65 34 -88 56 -120 115 -13 24 -45 71 -71 104 -62 79 -96 145 -74
145 3 0 31 -16 62 -36z m-334 -36 c22 -180 26 -243 23 -379 -2 -125 -7 -170
-27 -239 -13 -47 -27 -89 -31 -93 -12 -15 -39 93 -49 196 -10 111 -6 219 15
322 7 38 19 102 25 140 16 89 17 95 29 95 5 0 12 -19 15 -42z m-574 17 c0 -23
-166 -135 -200 -135 -10 0 -52 -7 -92 -16 -40 -9 -89 -17 -108 -18 -19 -1 -46
-6 -60 -11 l-25 -8 26 34 c27 34 84 74 149 105 19 9 43 20 52 25 10 5 39 9 65
9 27 0 55 5 63 10 16 10 130 14 130 5z m647 -83 c7 -4 15 -19 17 -32 2 -14 5
-25 6 -25 1 0 9 -29 19 -65 10 -36 28 -91 40 -123 21 -57 29 -174 22 -337 -3
-51 -3 -53 -12 -25 -6 17 -12 50 -15 75 -2 25 -14 73 -25 107 -13 41 -18 74
-14 93 5 24 2 34 -14 48 -19 15 -21 29 -23 145 -2 101 -6 130 -18 137 -8 5
-10 10 -5 10 6 0 16 -4 22 -8z m-197 -146 c-4 -19 -6 -37 -4 -39 8 -7 -36
-183 -65 -267 -75 -210 -107 -263 -105 -174 3 97 16 166 44 229 16 37 30 75
30 85 0 23 87 200 99 200 5 0 6 -15 1 -34z m-268 -48 c-3 -12 -11 -34 -19 -48
-7 -14 -13 -30 -13 -35 0 -6 -42 -53 -94 -106 -73 -75 -103 -100 -141 -113
-27 -9 -50 -14 -52 -12 -7 7 27 80 74 158 45 75 49 78 110 100 35 13 76 35 91
49 34 34 52 36 44 7z m908 -113 c36 -24 45 -46 57 -139 6 -45 5 -48 -13 -38
-10 6 -38 30 -61 54 -35 37 -42 51 -48 100 l-6 57 28 -12 c15 -7 35 -17 43
-22z m802 -390 c-8 -16 -20 -37 -27 -45 -8 -8 -17 -27 -20 -42 -6 -22 -4 -28
9 -28 19 0 12 -23 -22 -69 -16 -22 -25 -46 -24 -64 1 -15 -5 -41 -14 -57 -19
-32 -60 -58 -71 -45 -5 4 -2 10 5 12 6 3 10 9 6 14 -6 11 -44 12 -44 1 0 -14
-138 -151 -169 -167 -39 -19 -90 -19 -119 1 -28 20 -21 30 60 85 31 21 63 47
70 57 19 25 85 52 142 57 49 4 96 34 96 62 0 17 -5 16 -35 -3 -19 -13 -27 -13
-44 -2 -12 7 -21 15 -21 19 0 3 15 23 33 45 52 63 78 128 54 137 -16 6 -37
-10 -37 -28 0 -18 -110 -135 -126 -135 -20 0 -17 15 11 61 14 22 23 44 20 48
-7 13 158 145 249 198 20 12 21 10 27 -35 4 -32 1 -57 -9 -77z m-1425 30 c1
-54 19 -104 46 -126 14 -11 20 -31 23 -70 1 -30 7 -79 13 -109 5 -30 11 -75
13 -100 2 -25 7 -51 12 -58 4 -7 9 -32 11 -57 2 -24 7 -50 11 -56 4 -7 9 -43
10 -79 2 -36 6 -76 9 -90 3 -14 9 -51 15 -83 5 -31 12 -62 15 -67 3 -6 2 -10
-4 -10 -13 0 -21 14 -26 47 -5 36 -48 176 -69 228 -9 21 -19 61 -21 87 -3 26
-10 60 -16 75 -6 15 -13 42 -15 58 -2 17 -13 93 -25 170 -12 77 -21 159 -20
183 1 28 -2 42 -11 42 -10 0 -10 2 0 9 8 4 13 11 13 15 -3 21 0 36 7 36 5 0 9
-20 9 -45z m1103 -174 c0 -5 -7 -14 -15 -21 -8 -7 -15 -18 -15 -25 0 -6 -9
-20 -20 -30 -11 -10 -20 -24 -20 -31 0 -14 -57 -75 -100 -108 -14 -10 -33 -26
-43 -34 -33 -29 -30 -3 7 52 19 29 40 65 45 77 14 37 89 117 114 122 39 8 47
7 47 -2z m-1847 -81 c14 -11 31 -20 39 -20 8 0 18 -4 24 -10 5 -5 23 -11 40
-13 16 -2 70 -16 119 -31 50 -16 96 -30 103 -32 7 -2 10 -8 7 -14 -4 -6 3 -26
16 -46 l21 -35 -38 6 c-36 7 -69 24 -147 77 -24 17 -28 17 -33 3 -4 -8 1 -26
10 -40 23 -36 20 -39 -15 -14 -31 22 -32 22 -45 4 -30 -41 -12 -63 64 -78 59
-11 60 -12 55 -39 -3 -15 0 -34 6 -41 11 -14 128 -29 233 -32 30 -1 54 -7 67
-19 13 -11 27 -15 40 -11 12 3 21 2 21 -4 0 -5 -8 -12 -19 -16 -10 -3 -27 -21
-37 -40 -10 -19 -19 -35 -20 -35 -10 0 -106 39 -164 67 -41 19 -93 44 -115 54
-22 11 -36 19 -31 19 5 0 -10 13 -35 29 -63 43 -112 106 -173 225 -50 98 -48
129 7 86z m1604 -87 c-9 -15 -23 -45 -32 -65 -10 -21 -21 -38 -25 -38 -4 0
-13 -13 -20 -29 -11 -28 -97 -121 -111 -121 -4 0 -10 7 -13 17 -5 13 -11 11
-30 -15 -13 -18 -25 -29 -28 -26 -3 3 -30 -23 -60 -56 -65 -73 -131 -198 -134
-251 -1 -21 -11 -54 -23 -74 -11 -20 -21 -39 -21 -43 0 -4 -13 -23 -30 -42
l-29 -35 -2 35 c-3 77 11 135 58 245 37 88 53 115 95 168 21 27 38 53 38 58 0
6 8 6 19 -1 34 -18 52 -11 67 27 9 20 34 63 55 95 38 55 63 72 71 47 6 -19 42
9 69 54 22 36 87 92 97 82 2 -2 -3 -16 -11 -32z m-1147 -56 l85 -22 26 -50
c14 -28 29 -65 32 -83 6 -31 5 -33 -16 -26 -12 4 -32 15 -44 24 -64 50 -193
180 -178 179 6 0 48 -10 95 -22z m1534 -35 c-3 -48 -36 -86 -124 -142 -36 -23
-75 -55 -88 -71 -30 -38 -104 -70 -172 -76 -30 -2 -95 -18 -143 -34 -122 -40
-129 -39 -76 21 17 19 36 42 43 50 20 27 126 113 132 107 3 -3 17 -2 31 4 18
7 37 4 74 -12 44 -19 54 -20 95 -9 47 13 100 59 177 154 21 25 42 46 46 46 5
0 7 -17 5 -38z m-1317 -73 c18 -24 37 -54 43 -67 41 -93 54 -119 72 -133 12
-9 17 -19 11 -22 -12 -8 -23 1 -56 45 -15 20 -36 40 -47 43 -11 3 -20 14 -20
24 0 9 -18 53 -40 96 -22 43 -40 81 -40 83 0 13 49 -31 77 -69z m2493 37 c-14
-39 -12 -67 6 -81 15 -11 15 -14 0 -43 -9 -18 -21 -32 -26 -32 -6 0 -10 -6
-10 -12 -1 -7 -14 -29 -30 -48 -31 -36 -38 -68 -19 -87 6 -6 18 -9 25 -6 8 3
14 0 14 -7 0 -12 -57 -101 -71 -110 -5 -3 -15 -21 -23 -40 -23 -56 -73 -118
-116 -145 -43 -27 -49 -48 -25 -82 14 -20 12 -24 -23 -62 -20 -22 -53 -48 -72
-59 -29 -15 -36 -26 -41 -60 -3 -23 -14 -52 -24 -64 -48 -57 -90 -98 -102 -98
-14 0 -36 -36 -38 -63 -2 -19 -113 -137 -129 -137 -21 0 -96 -43 -96 -55 0
-40 -118 -125 -175 -125 -38 0 -60 -14 -52 -33 3 -8 -2 -22 -11 -30 -23 -21
-130 -67 -155 -67 -11 0 -34 -8 -51 -19 -21 -12 -60 -21 -121 -25 -92 -7 -212
-33 -254 -56 -34 -17 -213 -43 -291 -41 -95 3 -100 5 -93 49 12 82 99 168 180
179 26 3 50 9 53 13 9 14 131 61 183 71 29 5 117 14 197 19 163 11 251 26 229
42 -10 7 -8 8 8 3 19 -5 116 21 168 45 11 5 33 14 48 20 16 5 26 14 22 20 -3
5 -14 6 -28 1 -41 -17 -162 -51 -217 -62 -56 -11 -289 -13 -299 -3 -8 9 21 28
134 90 99 54 101 55 162 48 76 -8 96 -1 292 94 119 57 172 77 235 88 74 13
125 34 83 34 -9 0 -18 0 -19 1 -46 15 -104 16 -140 3 -45 -15 -53 -19 -213
-94 -83 -40 -203 -76 -185 -57 13 14 82 57 91 57 5 0 15 5 22 10 41 35 154
113 187 130 21 11 51 32 67 46 44 41 123 91 179 112 50 19 105 53 194 120 54
42 130 114 130 124 0 14 -29 9 -37 -6 -7 -13 -78 -66 -88 -66 -12 0 -73 -48
-68 -54 4 -3 -1 -6 -9 -6 -9 0 -36 -12 -62 -26 -25 -14 -46 -23 -46 -19 0 8
106 121 206 220 33 33 63 68 67 78 7 18 0 47 -12 47 -11 0 -84 -73 -180 -180
-142 -158 -195 -211 -223 -226 -25 -13 -41 -3 -18 11 5 3 26 32 46 63 20 31
44 68 54 82 35 52 91 160 83 160 -4 0 -2 4 6 9 8 5 14 23 14 39 0 26 6 31 47
46 26 10 58 28 71 42 12 13 27 24 32 24 10 0 88 62 147 116 79 73 208 167 218
159 1 -1 -2 -14 -8 -29z m-2871 -49 c8 -11 5 -13 -19 -9 -17 2 -30 8 -30 13 0
14 36 11 49 -4z m136 -47 c3 -5 1 -10 -4 -10 -6 0 -11 5 -11 10 0 6 2 10 4 10
3 0 8 -4 11 -10z m303 -184 c26 -37 30 -47 16 -42 -11 4 -50 12 -89 18 -115
16 -136 38 -57 62 74 22 91 17 130 -38z m832 -57 c-32 -28 -67 -45 -76 -36 -3
3 -16 -5 -29 -17 -13 -12 -54 -33 -92 -46 -37 -13 -83 -34 -102 -47 -19 -13
-38 -23 -42 -23 -16 0 -9 18 14 37 13 10 26 26 30 36 6 15 55 42 142 77 11 4
39 15 61 25 51 21 106 34 118 27 5 -3 -6 -18 -24 -33z m1061 -37 c-6 -12 -11
-32 -11 -46 0 -14 -4 -26 -9 -26 -7 0 -80 -108 -90 -135 -5 -13 -59 -83 -93
-120 -15 -16 -28 -33 -28 -37 0 -5 -6 -8 -14 -8 -8 0 -22 -12 -31 -27 -9 -16
-52 -57 -96 -92 -43 -35 -79 -68 -79 -75 0 -6 -33 -29 -74 -51 -41 -22 -72
-44 -69 -49 4 -5 1 -6 -5 -3 -12 8 -71 -21 -88 -43 -7 -8 -15 -13 -17 -10 -3
3 34 46 81 95 48 50 97 104 109 120 13 17 36 47 53 69 37 48 39 73 2 28 -61
-73 -199 -215 -222 -227 -14 -8 -43 -30 -65 -50 -22 -19 -80 -63 -130 -95 -49
-33 -96 -65 -104 -71 -16 -14 -117 -63 -150 -74 l-24 -7 24 38 c13 22 58 93
101 159 43 66 78 125 78 131 0 7 6 14 14 17 7 3 28 32 47 64 18 32 41 69 51
82 10 13 18 32 18 42 0 19 94 94 163 130 l37 19 0 -25 c0 -14 7 -28 15 -31 15
-6 88 37 103 60 4 6 35 32 70 59 45 34 71 47 95 47 37 0 140 47 172 78 12 10
37 22 57 26 20 3 53 19 74 35 43 32 51 32 35 3z m-1690 -133 c6 -30 15 -72 20
-94 19 -83 27 -150 18 -160 -14 -14 -11 -46 5 -59 10 -7 17 -38 21 -89 3 -43
7 -92 10 -110 2 -18 7 -82 10 -144 3 -62 9 -125 13 -140 11 -48 4 -233 -9
-233 -15 0 -10 -44 7 -68 8 -12 24 -22 35 -22 25 0 24 -15 -3 -42 l-21 -21
-17 21 c-10 12 -20 19 -23 16 -3 -3 -14 -1 -24 5 -17 10 -17 11 3 17 21 5 23
31 7 74 -7 17 -10 65 -18 260 -3 74 -10 178 -16 230 -14 127 -16 181 -6 187 4
3 3 11 -4 19 -7 8 -14 50 -15 92 -2 42 -6 111 -10 152 -11 118 -12 154 -7 163
8 13 12 4 24 -54z m823 -301 c-3 -13 -13 -31 -22 -40 -8 -10 -12 -18 -9 -18 7
0 -14 -28 -44 -60 -8 -9 -19 -23 -22 -31 -10 -22 -30 -52 -46 -69 -8 -8 -35
-46 -60 -85 -24 -38 -47 -72 -50 -75 -4 -3 -25 -31 -49 -62 -49 -66 -84 -101
-121 -119 -31 -16 -55 -36 -145 -123 -38 -36 -73 -66 -77 -66 -30 0 44 187
144 361 93 164 335 381 404 363 13 -4 36 4 59 20 48 31 47 31 38 4z m-1375
-557 c10 -17 9 -18 -14 -7 -28 12 -33 26 -10 26 8 0 19 -9 24 -19z"/>
</g>
</svg>
