<?xml version="1.0" standalone="no"?>
<!DOCTYPE svg PUBLIC "-//W3C//DTD SVG 20010904//EN"
 "http://www.w3.org/TR/2001/REC-SVG-20010904/DTD/svg10.dtd">
<svg version="1.0" xmlns="http://www.w3.org/2000/svg"
 width="529.000000pt" height="491.000000pt" viewBox="0 0 529.000000 491.000000"
 preserveAspectRatio="xMidYMid meet">
<metadata>
Created by potrace 1.16, written by Peter Selinger 2001-2019
</metadata>
<g transform="translate(0.000000,491.000000) scale(0.100000,-0.100000)"
fill="#000000" stroke="none">
<path d="M1544 4869 c-14 -31 -28 -45 -53 -53 -23 -8 -40 -24 -56 -51 -12 -22
-30 -42 -41 -43 -10 -2 -23 -8 -28 -13 -6 -5 -34 -9 -62 -9 -43 0 -56 -4 -71
-23 -10 -13 -33 -34 -51 -47 -42 -31 -68 -77 -65 -115 2 -24 -5 -36 -35 -61
-33 -28 -36 -36 -33 -73 1 -23 -2 -41 -8 -41 -22 0 12 -56 52 -86 l42 -31 106
15 c105 16 106 15 163 -7 31 -13 61 -32 67 -43 6 -12 17 -17 26 -14 19 8 170
-92 198 -130 11 -15 47 -60 80 -98 67 -79 85 -107 85 -134 0 -10 5 -23 12 -30
6 -6 15 -51 19 -99 4 -49 11 -104 14 -123 4 -19 8 -39 9 -45 3 -18 67 -179 83
-208 20 -38 7 -48 -20 -17 -26 29 -68 50 -102 50 -13 0 -26 4 -29 9 -3 5 -18
12 -33 15 -41 10 -113 46 -113 57 0 5 -16 24 -35 42 -21 20 -36 45 -38 63 -2
16 -12 47 -23 69 -22 48 -83 135 -94 135 -4 0 -13 14 -20 30 -7 17 -25 47 -41
66 -15 20 -31 44 -34 55 -4 10 -15 19 -25 19 -10 0 -22 5 -25 10 -3 6 -28 10
-55 10 -47 0 -50 2 -64 35 -12 27 -21 35 -43 37 -53 3 -87 -3 -104 -18 -16
-14 -18 -14 -27 2 -17 31 -44 9 -42 -33 3 -59 2 -63 -25 -63 -15 0 -25 -6 -25
-14 0 -8 -9 -18 -20 -21 -11 -3 -20 -12 -21 -18 0 -7 -2 -25 -2 -42 -2 -26 -7
-31 -39 -39 -41 -10 -56 -40 -33 -66 21 -23 20 -24 -30 -56 -25 -15 -45 -33
-45 -40 0 -23 12 -44 25 -44 24 0 25 -16 5 -53 -23 -43 -17 -67 16 -67 21 0
23 -3 14 -19 -5 -11 -16 -26 -24 -33 -7 -8 -16 -24 -20 -36 -6 -18 -2 -23 21
-28 15 -4 33 -14 39 -22 13 -18 42 -10 51 15 3 10 13 26 21 35 19 22 8 68 -18
75 -16 4 -19 13 -16 44 3 30 -1 43 -16 53 -12 9 -16 16 -9 21 6 3 11 18 11 33
0 15 7 36 15 46 8 11 15 32 15 46 0 17 10 33 28 47 16 12 33 36 38 55 8 26 16
34 37 36 19 2 32 12 39 30 29 68 125 115 148 72 21 -40 42 -52 77 -45 25 4 35
2 39 -10 4 -8 12 -14 18 -13 15 4 106 -85 106 -103 0 -7 15 -27 33 -44 47 -46
85 -102 92 -137 4 -16 5 -31 3 -34 -3 -2 -29 1 -59 7 -30 6 -63 12 -74 14 -11
2 -40 9 -65 14 -25 6 -48 10 -52 11 -4 0 -23 24 -42 54 -41 63 -46 68 -93 69
-27 1 -40 -5 -51 -21 -15 -23 -25 -112 -14 -128 13 -17 57 -33 113 -39 63 -7
85 -24 105 -80 14 -41 17 -40 -90 -21 -57 10 -80 9 -124 -2 -42 -11 -56 -11
-68 -1 -12 10 -16 9 -21 -9 -3 -12 -9 -22 -14 -22 -4 0 -3 -13 2 -29 10 -27
12 -28 57 -23 26 2 54 8 62 12 8 4 40 3 70 -2 84 -14 202 -18 222 -7 12 6 24
5 38 -3 15 -9 22 -10 31 -1 9 9 15 8 25 -2 10 -10 29 -12 67 -8 73 7 85 7 142
-5 111 -24 255 -94 255 -125 0 -7 9 -20 20 -30 11 -9 20 -26 20 -37 0 -16 -7
-20 -35 -20 -47 0 -86 -17 -167 -73 -37 -25 -76 -48 -86 -51 -11 -4 -27 -22
-37 -41 -13 -28 -22 -35 -44 -35 -23 0 -35 -10 -67 -57 -21 -32 -50 -80 -64
-108 -20 -40 -36 -55 -82 -80 -65 -34 -83 -55 -93 -108 -4 -20 -13 -53 -20
-74 -14 -40 -3 -83 22 -83 9 0 13 -13 13 -41 0 -44 14 -79 32 -79 7 0 22 10
35 22 22 20 24 21 42 4 19 -18 22 -17 63 2 74 35 95 36 124 7 32 -32 44 -29
68 19 12 25 23 35 33 32 50 -20 60 -18 66 11 4 20 -1 37 -19 60 -13 17 -24 39
-24 47 0 9 -4 16 -9 16 -14 0 -31 52 -30 90 0 19 -1 60 -4 90 -6 61 19 158 49
187 17 17 67 48 97 59 9 3 17 12 17 19 0 8 3 20 6 29 4 11 -1 19 -16 24 -22 8
-20 10 25 35 54 31 102 35 112 11 4 -11 14 -14 34 -10 25 5 30 2 35 -20 4 -14
18 -47 31 -73 14 -25 27 -54 29 -64 1 -10 15 -47 29 -82 14 -35 25 -72 25 -82
0 -10 9 -46 20 -81 11 -34 24 -88 30 -120 5 -31 17 -93 25 -137 8 -44 20 -111
26 -150 6 -38 20 -104 31 -145 20 -75 53 -216 69 -300 5 -25 13 -88 19 -140 5
-52 12 -106 14 -120 3 -14 8 -50 11 -80 7 -73 17 -151 20 -172 2 -9 7 -65 10
-125 4 -59 9 -121 12 -138 7 -45 13 -526 7 -558 -3 -15 -9 -27 -13 -27 -4 0
-40 48 -81 107 -41 58 -86 122 -100 142 -14 20 -35 56 -47 81 -11 25 -40 66
-64 91 -24 25 -52 58 -61 75 -18 31 -46 43 -57 25 -4 -6 -23 1 -51 19 -25 17
-49 30 -54 30 -5 0 -25 12 -45 27 -27 21 -45 27 -77 25 -43 -2 -72 20 -96 74
-15 33 -57 59 -71 45 -19 -19 -56 -12 -80 15 -28 32 -94 67 -114 60 -8 -3 -35
8 -60 25 -37 26 -51 30 -81 25 -128 -21 -128 -21 -171 16 -26 22 -65 41 -116
56 l-76 23 -39 -22 c-34 -19 -47 -21 -112 -15 -40 4 -127 9 -193 10 -107 2
-122 0 -142 -17 -13 -12 -42 -22 -72 -25 -40 -3 -54 -10 -67 -30 -9 -14 -25
-35 -35 -46 -44 -49 -69 -85 -69 -101 0 -30 20 -55 45 -55 21 0 114 -27 123
-35 5 -4 -19 -48 -28 -55 -12 -7 -14 -33 -6 -52 5 -12 19 -18 38 -18 29 0 29
-1 27 -47 -3 -44 -1 -49 24 -61 25 -12 32 -29 28 -73 -1 -9 5 -22 14 -29 15
-12 33 -12 156 6 56 8 104 -14 121 -54 14 -31 35 -55 66 -71 12 -6 22 -18 22
-25 0 -18 22 -26 71 -26 36 0 39 -2 40 -27 1 -16 1 -31 1 -34 -2 -16 38 -39
92 -53 32 -9 63 -19 70 -24 6 -5 26 -12 44 -15 20 -4 47 -22 67 -43 28 -29 40
-35 60 -30 14 3 37 9 52 12 17 5 30 2 37 -7 17 -22 60 -37 87 -32 17 3 36 -5
63 -26 43 -34 49 -36 94 -20 26 9 35 7 61 -12 23 -16 37 -20 62 -15 23 4 38 1
51 -11 21 -19 47 -20 175 -9 76 6 83 5 106 -16 13 -13 27 -37 31 -53 5 -25 44
-66 49 -53 19 38 25 42 66 39 24 -1 49 3 57 10 10 8 45 13 90 14 84 1 99 10
96 60 -2 29 1 35 17 35 20 0 55 45 46 59 -2 5 -5 37 -5 72 0 35 0 80 0 99 0
35 -10 451 -12 480 0 8 -5 38 -10 65 -5 28 -9 82 -9 120 0 39 -4 95 -9 125 -5
30 -10 71 -11 90 -1 19 -8 78 -15 130 -7 52 -15 118 -18 145 -4 28 -9 64 -12
82 -3 19 0 34 7 39 9 5 10 2 6 -9 -3 -10 -3 -17 1 -17 5 0 9 -19 11 -42 1 -23
4 -44 6 -48 2 -3 6 -33 10 -65 3 -33 15 -103 25 -156 11 -52 22 -136 25 -185
3 -49 8 -116 11 -149 3 -33 8 -89 10 -125 3 -36 7 -85 10 -110 2 -25 7 -164
10 -310 3 -146 6 -283 7 -305 l2 -40 99 3 c54 2 121 -2 148 -8 42 -11 56 -10
94 5 50 19 93 54 87 71 -2 7 17 16 44 23 74 18 102 31 108 52 5 16 16 19 68
19 79 0 110 8 103 27 -4 8 -1 11 5 7 6 -4 14 -2 18 4 4 6 22 12 41 13 45 2
100 18 100 29 0 5 13 11 30 15 21 5 43 -1 80 -19 64 -32 90 -32 172 -2 l65 23
79 -36 c43 -19 81 -38 84 -41 3 -3 23 -14 45 -25 31 -15 53 -19 95 -15 50 5
56 8 70 36 9 19 33 41 59 55 25 13 58 39 74 57 24 27 36 32 72 32 52 0 82 11
113 40 22 21 24 21 49 5 31 -21 123 -17 146 7 12 12 26 14 66 7 90 -14 141 9
133 60 -3 20 0 31 7 31 7 0 9 5 6 10 -13 21 26 21 55 0 l30 -22 60 24 c44 17
62 30 71 50 13 31 6 46 -27 58 -14 6 -27 18 -31 27 -6 19 -23 39 -68 83 -56
55 -68 62 -105 64 -21 0 -36 3 -34 5 2 2 -4 9 -15 15 -50 30 -131 90 -131 98
0 5 -12 13 -27 19 -15 6 -41 16 -58 24 -16 7 -42 16 -57 19 -14 3 -43 23 -65
43 -21 21 -42 36 -48 35 -5 -2 -35 0 -67 3 -46 6 -69 15 -112 47 -30 22 -57
51 -60 63 -9 34 -40 40 -89 17 -61 -28 -85 -34 -92 -22 -3 5 -24 10 -45 10
-31 0 -43 6 -64 31 -19 22 -30 28 -39 21 -6 -5 -28 -19 -48 -30 -35 -20 -37
-20 -64 -2 -27 18 -28 18 -76 -12 -27 -16 -55 -37 -62 -46 -17 -23 -47 -27
-47 -6 0 14 -8 16 -54 11 -50 -4 -116 -32 -116 -48 0 -11 -54 -28 -80 -25 -49
6 -139 -52 -194 -126 -23 -31 -31 -36 -51 -28 -27 10 -47 -2 -128 -79 -57 -55
-72 -63 -72 -38 0 6 -14 13 -32 15 -24 2 -33 -1 -38 -17 -3 -11 -26 -41 -51
-67 -24 -26 -52 -61 -60 -78 -43 -80 -64 -127 -64 -138 0 -25 -35 -98 -47 -98
-9 0 -13 23 -14 78 0 42 -2 88 -4 102 -2 14 -6 61 -9 105 -3 44 -8 112 -12
150 -4 39 -7 81 -7 95 1 14 -3 52 -8 85 -4 33 -10 85 -14 115 -7 69 -33 232
-46 285 -5 22 -12 67 -15 100 -3 33 -14 94 -24 135 -11 41 -22 95 -25 120 -4
25 -11 63 -16 85 -17 70 -19 79 -25 115 -4 19 -10 40 -13 45 -4 6 -7 17 -6 25
1 8 -2 22 -6 31 -4 8 -10 37 -13 65 -8 61 -13 92 -20 103 -3 5 -10 40 -16 78
-5 37 -16 83 -25 100 -8 17 -17 51 -20 74 -3 24 -16 76 -31 114 -42 114 -43
107 38 187 52 51 73 80 74 99 1 24 -1 26 -25 20 -14 -4 -37 -4 -51 0 -14 3
-48 4 -75 2 -61 -6 -73 5 -80 71 -2 26 -7 52 -11 57 -5 9 -33 112 -61 227 -3
13 -1 22 6 22 6 0 11 7 11 15 0 22 28 49 73 70 41 19 68 9 65 -23 -3 -45 6
-65 51 -112 27 -27 53 -50 59 -50 15 0 35 28 28 39 -4 5 -1 13 5 16 5 4 8 13
5 20 -3 8 1 19 9 25 11 9 20 3 45 -32 18 -24 34 -49 37 -55 8 -19 41 -16 52 5
7 13 6 25 -3 38 -31 46 -25 112 8 85 31 -26 116 -6 116 26 0 8 7 21 15 29 16
17 20 69 6 78 -5 3 -9 25 -9 48 -1 28 -7 47 -18 55 -13 9 -16 26 -15 75 1 56
-1 64 -26 86 -17 14 -37 22 -53 20 -21 -3 -25 1 -26 24 -1 15 -7 34 -14 43
-14 17 -46 20 -55 5 -10 -16 -26 -11 -23 8 2 12 -4 18 -22 20 -19 2 -29 -5
-42 -28 -22 -38 -35 -38 -43 1 -7 29 -9 31 -42 26 -45 -8 -60 -21 -69 -60 -4
-18 -16 -45 -28 -62 -42 -57 -53 -135 -25 -170 4 -6 7 -20 7 -30 -1 -11 2 -32
5 -48 6 -21 4 -29 -10 -34 -10 -3 -39 -21 -66 -40 -42 -30 -48 -31 -53 -16
-17 51 -31 74 -46 79 -36 11 -40 104 -8 191 35 94 154 244 181 227 4 -2 10 0
14 6 4 7 12 7 25 0 20 -11 47 -4 68 17 7 7 25 13 38 13 14 0 39 13 57 30 18
16 37 30 42 30 6 0 25 -16 43 -35 26 -26 43 -35 75 -37 38 -3 44 -7 62 -43 22
-44 39 -65 53 -65 5 0 20 -27 35 -60 29 -67 45 -74 81 -35 13 14 30 25 37 25
17 0 44 30 54 59 3 12 11 21 16 21 5 0 9 19 9 42 0 23 6 49 13 57 8 9 19 35
26 59 6 23 16 42 22 42 6 0 6 7 -1 19 -16 31 -12 41 19 41 24 0 31 5 36 29 7
35 -19 120 -46 150 -24 25 -24 27 2 34 19 5 21 11 16 49 -4 30 -14 49 -33 64
-28 23 -28 28 -2 92 11 28 11 34 -2 42 -8 5 -23 7 -32 4 -10 -3 -18 -3 -18 1
0 10 42 90 50 95 10 7 0 70 -11 70 -5 0 -27 -12 -49 -26 -59 -39 -80 -12 -40
54 28 46 26 62 -9 62 -21 0 -32 -6 -36 -20 -3 -11 -11 -20 -16 -20 -6 0 -8 -4
-5 -9 4 -5 -7 -20 -23 -33 -15 -14 -47 -62 -70 -109 -24 -46 -56 -98 -72 -114
-16 -17 -29 -35 -29 -41 0 -5 -27 -37 -60 -72 -33 -34 -60 -66 -60 -71 0 -5
-11 -12 -24 -15 -14 -3 -26 -16 -30 -31 -4 -14 -12 -25 -20 -25 -7 0 -19 -15
-26 -32 -7 -18 -27 -47 -44 -64 -17 -17 -46 -47 -64 -67 -18 -19 -44 -38 -58
-41 -29 -8 -64 -40 -64 -61 0 -7 -6 -18 -13 -22 -29 -18 -110 -129 -147 -204
-22 -43 -44 -79 -49 -79 -5 0 -14 20 -21 44 -7 25 -21 53 -31 62 -10 9 -16 20
-13 25 3 5 -2 19 -10 32 -9 12 -20 54 -26 92 -5 39 -12 81 -15 95 -12 52 -7
188 9 265 10 44 18 99 20 122 1 22 11 54 21 70 18 27 28 103 14 103 -8 0 -15
27 -25 95 -3 22 -15 50 -26 62 -20 21 -21 21 -53 3 l-33 -18 -13 24 c-19 36
-55 42 -78 13 l-18 -23 -17 32 c-14 26 -22 32 -50 32 -29 0 -35 -5 -52 -41z
m74 -61 c21 -83 25 -103 24 -110 -1 -5 7 -8 18 -8 14 0 22 11 29 38 6 20 11
43 11 50 0 21 25 8 28 -14 5 -32 25 -64 39 -64 7 0 19 11 25 25 13 29 34 33
36 8 4 -56 2 -118 -7 -198 -6 -49 -11 -98 -11 -108 0 -12 -8 -17 -27 -17 -63
0 -86 -6 -97 -25 -6 -11 -19 -26 -29 -33 -16 -12 -17 -22 -12 -64 8 -58 -7
-59 -31 -2 -18 43 -58 48 -68 9 -5 -18 -13 -25 -30 -25 -14 0 -26 4 -28 8 -1
4 -32 18 -68 29 -54 18 -76 21 -130 14 -72 -9 -81 -8 -51 9 27 14 30 70 4 70
-11 0 -14 3 -7 8 6 4 17 25 26 47 19 48 10 67 -41 88 -28 12 -30 15 -17 27 10
8 26 10 43 5 59 -14 93 -17 93 -7 0 6 3 17 6 26 4 11 -2 19 -20 26 -29 11 -34
20 -11 20 9 0 27 -11 40 -24 l25 -25 29 24 c25 22 30 23 41 9 7 -8 19 -13 27
-10 23 9 14 -19 -18 -51 -58 -60 -41 -120 21 -75 15 12 41 24 56 28 33 8 53
30 54 57 0 11 9 30 20 44 11 14 20 32 20 39 0 16 -36 19 -45 3 -4 -5 -19 -7
-35 -4 -20 4 -29 2 -34 -10 -3 -9 -11 -13 -16 -10 -8 5 -8 11 0 20 8 10 8 16
-3 22 -22 13 -30 60 -12 67 9 3 18 -1 21 -9 10 -26 35 -16 50 20 8 19 14 38
13 42 -3 18 14 53 26 53 7 0 17 -19 23 -42z m1255 -108 l27 0 -26 -39 c-29
-45 -26 -78 9 -83 14 -2 21 -9 18 -18 -7 -28 -1 -61 14 -76 17 -18 20 -34 5
-34 -6 0 -14 -10 -19 -22 -10 -29 11 -69 53 -102 18 -14 36 -37 38 -51 6 -28
-3 -33 -21 -11 -6 8 -25 16 -42 18 -25 4 -32 1 -40 -19 -5 -13 -15 -26 -23
-29 -8 -3 -17 -17 -21 -31 -4 -19 -9 -23 -18 -14 -27 27 -113 9 -120 -25 -6
-32 29 -66 85 -84 24 -8 44 -15 46 -16 2 -1 -4 -11 -14 -23 -10 -11 -19 -29
-21 -41 -2 -11 -4 -28 -6 -37 -7 -45 -18 -43 -68 9 -27 28 -49 57 -49 64 0 17
-49 74 -64 74 -16 0 -44 35 -52 65 -3 14 -15 30 -26 36 -19 10 -20 17 -14 76
6 55 12 69 39 97 47 48 106 137 178 272 23 44 44 83 46 87 3 5 17 -3 32 -17
16 -15 39 -26 54 -26z m-1678 -299 c-14 -12 -85 -24 -85 -13 0 16 13 22 54 22
23 0 36 -4 31 -9z m1253 -171 c-1 -3 5 -16 15 -30 21 -30 22 -40 3 -40 -8 0
-36 -11 -62 -25 -87 -46 -95 -32 -24 40 28 27 50 54 50 58 0 5 5 7 11 5 6 -2
9 -6 7 -8z m430 -272 c19 -19 14 -30 -8 -18 -11 6 -20 15 -20 20 0 14 14 12
28 -2z m-348 -118 c0 -22 5 -49 12 -60 11 -18 14 -18 40 -2 39 23 52 7 49 -64
-1 -38 4 -65 15 -81 18 -29 20 -27 -30 -39 -31 -7 -40 -14 -41 -32 -2 -26 14
-42 44 -45 12 -1 21 -7 21 -14 0 -18 -5 -17 -62 14 -49 27 -50 27 -64 8 -8
-11 -12 -25 -10 -32 8 -19 -11 -25 -33 -11 -15 9 -25 9 -46 0 -35 -16 -45 -15
-45 4 0 9 -7 22 -17 29 -21 15 -11 45 15 45 11 0 25 -7 32 -15 17 -20 27 -19
40 5 16 30 1 87 -31 120 -16 15 -29 35 -29 43 0 19 -24 39 -41 35 -9 -2 -15 9
-17 30 -2 24 1 34 15 38 10 3 33 12 50 21 25 12 36 13 47 4 11 -9 20 -7 42 13
16 14 32 26 37 26 4 0 7 -18 7 -40z m-1300 -274 c0 -2 -9 -2 -20 1 -11 3 -20
9 -20 15 0 5 9 4 20 -2 11 -6 20 -12 20 -14z m794 -101 c3 -8 1 -15 -3 -15 -5
0 -11 7 -15 15 -3 8 -1 15 3 15 5 0 11 -7 15 -15z m22 -34 c11 -1 22 -30 51
-126 40 -135 53 -195 43 -195 -4 0 -13 14 -20 31 -7 17 -19 37 -27 44 -7 8
-21 45 -29 82 -16 69 -26 97 -49 144 -11 24 -11 27 4 24 9 -2 21 -4 27 -4z
m144 -408 c0 -5 -4 -14 -9 -21 -7 -11 -9 -11 -14 1 -3 8 -3 18 0 21 9 8 23 7
23 -1z m120 -80 c-12 -8 -28 -12 -37 -9 -9 4 -25 -1 -35 -11 -19 -17 -20 -17
-34 2 -22 30 -18 34 44 37 75 4 89 0 62 -19z m-580 -145 c0 -7 -7 -26 -15 -42
-8 -15 -15 -35 -15 -42 0 -8 -4 -14 -10 -14 -13 0 -13 35 -1 58 5 9 12 25 15
35 6 20 26 23 26 5z m-95 -79 c-4 -31 0 -47 15 -66 l20 -26 6 32 c7 32 18 40
26 19 3 -7 6 -53 6 -102 1 -61 7 -97 17 -112 21 -32 19 -67 -4 -88 -21 -19
-41 -14 -41 10 0 16 -16 19 -25 3 -4 -5 -19 -7 -34 -4 -23 5 -29 1 -39 -20 -6
-14 -23 -31 -38 -37 -29 -13 -40 -4 -51 45 -7 34 -30 35 -43 2 -14 -37 -30
-30 -30 13 0 21 -5 43 -11 49 -13 13 -3 88 14 101 7 5 43 23 82 40 70 31 83
45 84 95 1 23 36 87 48 87 2 0 1 -18 -2 -41z m760 -529 c3 -5 1 -10 -4 -10 -6
0 -11 5 -11 10 0 6 2 10 4 10 3 0 8 -4 11 -10z m9 -36 c3 -8 2 -12 -4 -9 -6 3
-10 10 -10 16 0 14 7 11 14 -7z m-1324 -904 c22 -11 48 -20 58 -20 10 0 27 -8
38 -18 59 -54 72 -59 126 -54 29 3 64 12 77 21 18 12 26 12 29 3 2 -6 9 -12
15 -12 7 0 29 -16 50 -35 40 -37 52 -41 62 -25 13 21 42 8 87 -37 26 -27 56
-66 68 -88 40 -76 62 -110 73 -120 7 -5 18 -21 25 -35 7 -14 31 -50 52 -80 57
-77 80 -114 80 -124 0 -11 -52 -1 -93 18 -76 35 -112 46 -147 46 -27 0 -39 5
-44 18 -12 33 -31 57 -93 120 -35 35 -63 68 -63 73 0 23 -135 162 -152 157
-23 -8 -18 -26 12 -38 16 -7 30 -16 30 -19 0 -4 8 -16 18 -27 10 -10 42 -57
71 -104 30 -47 62 -97 72 -112 11 -15 19 -30 19 -33 0 -9 -35 -6 -45 4 -6 6
-44 19 -85 30 -95 25 -152 49 -145 60 6 10 -21 46 -77 102 -21 21 -38 41 -38
44 0 11 -145 149 -203 193 -51 40 -109 66 -120 56 -15 -16 13 -46 66 -74 62
-32 174 -126 164 -137 -3 -3 -25 4 -49 15 -95 43 -117 52 -223 82 -60 18 -118
36 -127 41 -27 14 -46 11 -68 -11 -16 -16 -18 -24 -9 -43 10 -22 19 -25 87
-30 134 -10 365 -97 440 -165 43 -40 45 -44 28 -54 -11 -6 -60 -9 -125 -6
-102 4 -129 12 -173 46 -11 9 -18 10 -23 3 -9 -15 0 -27 48 -59 54 -37 75 -42
235 -52 84 -5 141 -13 155 -22 29 -19 140 -55 194 -63 62 -10 63 -25 1 -25
-29 0 -91 -7 -138 -15 -47 -8 -99 -15 -116 -15 -18 0 -34 -6 -37 -14 -8 -19
87 -28 188 -17 113 12 218 6 312 -18 100 -26 103 -26 103 -1 0 25 20 25 68 1
21 -11 65 -25 100 -31 34 -7 76 -23 94 -36 l32 -24 -85 0 c-85 -1 -116 -6
-224 -35 -126 -33 -175 -50 -172 -60 5 -15 105 -6 220 22 119 28 213 27 331
-2 33 -8 63 -12 68 -9 5 3 28 -12 52 -33 71 -63 97 -83 106 -83 9 0 90 -94 90
-104 0 -4 -7 -3 -16 2 -18 10 -64 4 -64 -8 0 -9 -46 -19 -119 -25 -46 -3 -57
-1 -68 15 -8 11 -34 29 -58 40 -38 17 -59 19 -143 16 -88 -4 -102 -3 -116 13
-14 16 -23 17 -59 9 -29 -6 -43 -6 -45 2 -2 6 -15 23 -27 38 -22 25 -25 26
-37 10 -7 -9 -25 -21 -39 -27 -22 -8 -33 -5 -62 16 -19 13 -53 27 -76 30 -23
3 -41 11 -41 18 0 7 -13 18 -28 24 -24 10 -37 9 -71 -5 -46 -18 -61 -12 -86
36 -12 23 -21 27 -55 27 -27 0 -52 8 -70 22 -16 11 -38 21 -48 21 -29 0 -52
23 -54 55 -2 44 -15 55 -64 55 -37 0 -45 4 -56 27 -8 17 -25 30 -45 35 -22 6
-33 15 -33 27 0 22 -23 42 -77 66 -34 14 -58 17 -124 12 l-81 -5 5 28 c6 28
-5 45 -47 74 -16 11 -18 17 -8 45 14 39 7 60 -24 72 l-24 9 20 37 c27 50 11
76 -49 80 -23 1 -55 10 -71 18 -26 14 -28 18 -18 35 18 28 174 107 234 117 29
6 61 6 74 1 14 -5 35 -5 51 1 20 7 41 5 75 -5 26 -8 67 -14 90 -14 44 0 94 17
94 32 0 15 50 8 90 -12z m2889 -24 c9 -8 36 -16 61 -20 59 -7 90 -16 90 -26 0
-13 -250 -250 -264 -250 -4 0 -19 -11 -34 -26 -15 -14 -60 -42 -100 -62 -117
-59 -122 -62 -122 -79 0 -14 -10 -15 -72 -8 -40 4 -89 8 -110 9 -21 1 -34 5
-30 11 13 23 59 81 85 107 15 16 27 32 27 36 0 5 8 17 18 28 10 10 40 48 67
84 55 72 89 106 153 151 37 27 71 32 57 9 -3 -4 2 -13 9 -20 18 -14 40 -4 88
40 36 33 54 37 77 16z m281 2 c0 -13 69 -88 81 -88 4 0 24 -8 45 -17 48 -21
46 -20 94 -22 28 -1 49 -9 72 -30 18 -15 65 -40 103 -55 59 -23 123 -63 90
-55 -17 4 -67 -12 -118 -38 -26 -13 -51 -22 -56 -19 -4 3 -21 -2 -37 -10 -20
-11 -44 -14 -81 -10 -29 3 -79 9 -110 12 l-57 6 25 20 c13 11 19 17 12 14 -6
-4 -14 -2 -18 3 -3 6 5 8 20 5 14 -2 25 0 25 6 0 5 6 10 13 10 8 0 24 9 37 20
13 11 29 20 35 20 7 0 18 7 25 15 6 8 15 14 18 13 22 -2 32 5 32 23 0 16 -3
19 -13 11 -17 -14 -282 -122 -300 -122 -19 0 -77 -30 -77 -40 0 -4 -12 -10
-27 -13 -55 -11 -199 -53 -220 -65 -12 -7 -29 -9 -38 -6 -12 5 6 28 77 100 51
52 92 99 90 105 -1 6 2 8 7 5 8 -5 91 67 91 79 0 3 13 17 28 32 15 16 27 35
25 43 -2 10 14 23 44 37 57 26 63 27 63 11z m-650 -68 c0 -5 -5 -10 -11 -10
-8 0 -10 -12 -6 -33 4 -27 -1 -39 -29 -71 -19 -21 -31 -43 -27 -49 3 -6 1 -7
-5 -3 -7 4 -12 3 -12 -2 0 -18 -215 -231 -243 -241 -15 -6 -32 -22 -37 -35 -5
-13 -30 -38 -55 -56 -25 -17 -61 -46 -80 -63 -18 -18 -46 -44 -62 -58 -15 -14
-46 -46 -69 -70 -22 -24 -63 -55 -90 -68 -27 -13 -54 -29 -59 -35 -28 -31 -98
-77 -109 -73 -10 4 -12 16 -6 49 9 46 34 125 55 173 7 17 20 53 28 82 30 107
117 228 117 163 0 -11 7 -23 16 -27 18 -7 66 16 58 28 -5 8 32 54 106 131 48
50 65 60 56 30 -8 -24 15 -55 35 -47 9 3 37 39 63 80 26 41 66 88 89 105 l42
31 8 -31 c10 -39 28 -38 69 6 70 76 158 128 158 94z m-1802 -193 c21 -28 47
-59 56 -67 16 -12 20 -12 35 8 19 26 45 22 61 -8 5 -10 24 -21 42 -25 18 -4
43 -16 55 -27 11 -11 36 -25 55 -31 38 -14 88 -50 88 -65 0 -5 7 -12 15 -15 8
-4 26 -30 41 -59 27 -53 73 -125 96 -150 7 -7 26 -38 42 -68 16 -30 38 -66 48
-79 10 -13 18 -32 18 -42 0 -10 6 -22 13 -26 8 -4 16 -18 19 -30 9 -33 -15
-29 -43 7 -13 17 -44 44 -69 60 -60 40 -97 69 -129 102 -15 15 -60 43 -101 62
-126 61 -155 82 -152 109 3 24 -16 48 -146 186 -24 25 -63 72 -85 105 -23 32
-49 68 -57 79 -13 18 -13 19 7 13 12 -4 24 -2 28 4 12 19 24 10 63 -43z m3036
-69 c21 -15 44 -28 51 -28 20 0 128 -60 158 -88 16 -15 23 -30 18 -35 -13 -13
-66 1 -86 23 -10 11 -34 22 -54 25 -72 12 -82 16 -110 45 -26 27 -34 30 -95
30 -37 0 -66 4 -66 10 0 6 6 10 13 10 8 0 34 11 58 24 49 26 57 25 113 -16z
m-562 -84 c15 -12 42 -25 60 -29 18 -4 40 -13 48 -19 8 -7 34 -18 58 -26 23
-7 42 -16 42 -20 0 -4 12 -10 28 -13 46 -9 56 -12 70 -21 7 -4 16 -6 18 -3 3
3 14 -3 25 -14 44 -44 55 -1 11 47 -15 17 -51 39 -79 49 -28 10 -61 27 -74 37
-24 19 -24 19 46 14 39 -3 102 -6 140 -8 57 -3 75 -8 95 -26 21 -19 104 -52
132 -52 5 0 22 -10 38 -22 26 -19 28 -24 17 -37 -8 -9 -19 -31 -27 -48 -14
-36 -43 -43 -96 -22 -38 14 -72 4 -86 -26 -14 -30 -23 -31 -45 -5 -31 36 -114
24 -154 -22 -18 -19 -50 -23 -77 -9 -27 14 -72 2 -72 -20 0 -37 -64 -89 -110
-89 -18 0 -33 -11 -68 -54 -16 -19 -26 -20 -44 -3 -18 19 -58 28 -59 14 0 -8
-2 -8 -6 0 -2 7 -23 17 -46 23 -48 12 -86 30 -105 48 -20 18 -61 14 -112 -10
-74 -36 -90 -37 -150 -5 -58 31 -117 38 -134 15 -26 -35 -73 -42 -168 -25 -32
6 -68 -17 -68 -44 0 -15 -7 -19 -32 -19 -18 0 -57 -3 -86 -7 -48 -5 -54 -9
-59 -34 -6 -34 -46 -45 -122 -35 -59 8 -73 -5 -69 -61 3 -38 3 -38 -32 -35
-19 1 -70 3 -112 5 -42 1 -79 4 -81 7 -7 8 100 96 173 143 36 23 82 59 103 82
20 22 45 48 55 58 41 44 202 162 251 185 46 21 57 23 74 12 12 -7 49 -19 85
-26 65 -14 129 -41 194 -82 23 -15 44 -22 55 -18 10 4 14 4 10 0 -9 -9 72 -56
84 -48 15 9 10 34 -6 34 -8 0 -15 5 -15 12 0 6 -3 8 -6 5 -4 -3 -15 5 -26 18
-10 13 -46 41 -80 61 l-62 38 59 18 c86 26 142 32 205 19 30 -6 78 -15 105
-21 28 -5 97 -33 155 -62 109 -53 169 -71 192 -56 18 11 -20 41 -44 34 -11 -2
-18 1 -18 9 0 17 -90 77 -107 71 -7 -3 -12 0 -10 6 2 10 -51 30 -193 75 -23 8
23 24 125 44 115 22 153 21 187 -7z"/>
</g>
</svg>
