<?xml version="1.0" standalone="no"?>
<!DOCTYPE svg PUBLIC "-//W3C//DTD SVG 20010904//EN"
 "http://www.w3.org/TR/2001/REC-SVG-20010904/DTD/svg10.dtd">
<svg version="1.0" xmlns="http://www.w3.org/2000/svg"
 width="337.000000pt" height="445.000000pt" viewBox="0 0 337.000000 445.000000"
 preserveAspectRatio="xMidYMid meet">
<metadata>
Created by potrace 1.16, written by Peter Selinger 2001-2019
</metadata>
<g transform="translate(0.000000,445.000000) scale(0.100000,-0.100000)"
fill="#000000" stroke="none">
<path d="M1837 4233 c-4 -3 -7 -12 -7 -18 0 -7 -7 -29 -15 -49 -8 -20 -15 -38
-15 -41 0 -3 -9 -15 -20 -27 -11 -13 -27 -31 -35 -40 -8 -10 -27 -21 -42 -24
-21 -6 -30 -2 -41 14 -14 22 -46 29 -56 14 -3 -5 -43 -1 -88 10 -128 28 -159
19 -250 -76 -16 -15 -28 -31 -28 -35 0 -3 -18 -17 -40 -30 -22 -14 -47 -38
-56 -55 -9 -17 -31 -58 -49 -91 -18 -33 -41 -76 -50 -95 -31 -66 -54 -252 -41
-335 9 -62 20 -192 21 -275 2 -52 5 -124 8 -160 3 -36 9 -156 12 -267 3 -111
8 -226 10 -255 2 -29 9 -109 15 -178 5 -69 12 -174 15 -235 3 -60 8 -157 11
-215 9 -136 8 -151 0 -185 -6 -23 -9 -26 -17 -14 -5 7 -9 24 -9 37 0 12 -4 22
-9 22 -5 0 -9 15 -9 34 0 18 -7 44 -15 57 -18 28 -97 227 -97 245 0 7 -15 35
-34 63 -19 28 -33 51 -31 51 2 0 -10 30 -27 67 -37 81 -51 116 -52 125 -1 3
-4 10 -9 14 -4 4 -7 17 -7 28 0 12 -13 49 -30 82 -16 34 -30 76 -31 95 -2 19
-8 41 -15 49 -7 8 -17 35 -23 60 -7 25 -16 54 -20 65 -24 55 -41 108 -41 128
0 12 -11 55 -24 96 -18 58 -22 81 -14 105 5 17 12 38 15 47 3 10 -13 34 -41
63 -44 47 -45 47 -71 30 -19 -13 -24 -22 -19 -38 14 -43 12 -74 -12 -191 -14
-66 -29 -147 -34 -180 -5 -33 -12 -71 -15 -85 -13 -53 -4 -189 26 -368 17
-103 32 -189 35 -193 2 -4 6 -23 8 -43 3 -20 14 -55 24 -79 10 -23 18 -50 16
-60 -1 -9 1 -17 5 -17 6 0 33 -67 37 -90 0 -3 5 -16 11 -30 6 -14 19 -50 28
-80 10 -30 25 -71 34 -90 8 -19 15 -39 16 -45 0 -5 8 -26 17 -46 9 -20 19 -51
23 -70 4 -19 20 -68 36 -109 16 -41 29 -84 29 -95 0 -11 7 -33 16 -50 15 -30
57 -196 69 -275 4 -24 10 -51 15 -60 5 -9 11 -36 14 -60 4 -25 9 -61 12 -80
15 -105 20 -248 10 -295 -6 -27 -9 -70 -5 -95 4 -25 3 -49 -1 -54 -5 -5 -6
-16 -2 -25 11 -31 62 -56 62 -30 0 6 6 17 14 25 13 12 16 12 28 -4 20 -28 37
-35 51 -20 13 14 22 57 26 126 1 28 13 28 27 -1 7 -16 7 -28 0 -40 -8 -13 -6
-22 12 -39 l23 -23 51 55 c44 49 68 81 135 180 9 14 35 50 58 80 23 30 54 81
69 112 15 31 31 58 34 60 4 2 23 35 42 73 19 39 44 86 56 105 11 19 24 47 28
63 3 15 24 63 45 107 35 70 60 133 67 165 1 6 18 59 38 119 20 60 36 116 36
123 0 31 19 9 35 -41 24 -76 16 -233 -18 -346 -45 -149 -108 -323 -135 -375
-31 -58 -105 -170 -135 -203 -11 -12 -16 -22 -11 -22 5 0 -2 -10 -14 -22 -12
-13 -35 -37 -50 -55 -26 -30 -216 -143 -240 -143 -7 0 -12 -4 -12 -10 0 -5 -6
-10 -13 -10 -7 0 -18 -21 -25 -46 -11 -41 -11 -48 5 -60 10 -7 22 -14 26 -14
26 -1 222 129 254 168 7 8 33 36 58 63 60 63 149 172 188 229 17 25 33 47 37
50 3 3 14 23 24 45 34 77 51 110 66 129 8 10 13 19 11 20 -5 1 15 69 29 101
31 68 43 147 44 270 0 128 -10 260 -20 276 -8 13 -16 48 -21 94 -3 22 -11 47
-18 55 -7 8 -16 30 -20 48 -10 47 -43 59 -72 25 -17 -21 -23 -45 -28 -122 -4
-53 -9 -103 -11 -111 -16 -67 -27 -102 -59 -187 -43 -116 -46 -122 -78 -193
-13 -30 -34 -77 -46 -105 -13 -27 -27 -57 -32 -65 -5 -8 -12 -22 -15 -30 -15
-36 -59 -125 -65 -130 -4 -3 -19 -30 -35 -60 -36 -72 -154 -220 -175 -220 -15
0 -15 8 -4 78 20 130 22 316 11 827 -15 641 -31 1089 -39 1102 -3 5 -8 85 -12
178 -3 94 -10 217 -15 275 -4 58 -8 112 -8 120 0 8 -3 83 -7 166 -4 86 -3 166
3 185 5 19 6 43 2 53 -9 27 38 247 72 335 18 48 82 120 106 121 15 0 26 7 29
20 3 11 9 20 14 20 5 0 9 7 9 15 0 17 79 21 142 6 30 -7 114 -61 94 -61 -11 0
51 -57 76 -69 14 -8 41 -34 59 -60 18 -25 38 -49 43 -53 17 -12 13 -134 -6
-163 -12 -19 -4 -233 10 -247 6 -6 12 -22 12 -34 0 -13 7 -29 15 -37 8 -8 12
-17 9 -20 -3 -3 -1 -13 4 -24 15 -28 30 -65 40 -98 6 -22 15 -31 36 -33 18 -2
31 -12 39 -30 7 -15 20 -35 30 -44 9 -10 17 -26 17 -35 0 -10 7 -31 15 -47 8
-15 15 -34 15 -41 0 -8 5 -26 12 -42 6 -15 12 -30 13 -33 2 -7 15 -106 20
-150 5 -51 25 -152 35 -175 16 -40 20 -57 25 -128 6 -77 32 -173 53 -195 6 -7
12 -20 12 -29 0 -8 27 -43 60 -77 33 -35 60 -69 60 -77 1 -19 24 -49 39 -49
14 0 95 42 99 52 2 4 16 23 32 43 35 44 68 147 75 234 3 35 8 68 11 72 3 5 -3
20 -12 34 -21 32 -6 32 44 2 49 -30 79 -43 127 -57 22 -6 50 -16 62 -22 27
-14 53 4 53 36 0 42 -71 250 -91 266 -3 3 -14 19 -22 37 -16 30 -16 32 1 35 9
2 34 1 54 -3 46 -8 176 -2 203 10 11 4 52 19 92 32 68 22 90 39 77 60 -3 5 2
9 10 9 64 0 5 131 -113 249 -85 85 -115 105 -174 116 -20 4 -40 11 -43 16 -3
5 -15 9 -28 9 -12 0 -59 16 -103 35 -45 19 -90 35 -102 35 -12 0 -21 5 -21 10
0 6 -9 10 -21 10 -11 0 -35 11 -52 24 -18 14 -43 29 -57 35 -33 14 -63 34 -72
46 -4 5 -13 10 -20 11 -35 3 -60 20 -80 53 -13 20 -23 39 -23 43 0 3 -12 21
-27 40 -15 18 -35 44 -45 57 -10 13 -26 32 -35 42 -10 11 -18 24 -18 29 0 6
-5 10 -10 10 -6 0 -23 12 -37 26 -52 52 -114 84 -163 84 -43 0 -49 3 -79 44
-19 24 -34 48 -34 53 0 4 17 17 37 29 54 30 106 137 106 215 0 31 -7 72 -15
91 -20 48 -76 83 -98 61z m46 -116 c7 -20 -8 -99 -27 -138 -21 -45 -86 -80
-111 -59 -22 18 -19 26 25 57 22 15 40 32 40 36 0 5 9 21 19 36 11 15 23 39
26 54 8 29 20 35 28 14z m-789 -519 c-2 -29 -7 -64 -10 -78 -3 -14 -5 -71 -5
-127 1 -57 -2 -103 -7 -103 -5 0 -10 12 -10 28 -1 15 -4 56 -6 92 -3 56 2 96
29 218 9 40 14 23 9 -30z m854 0 c27 -13 70 -42 95 -65 42 -39 61 -71 121
-207 l26 -59 -32 -37 c-42 -48 -83 -68 -109 -52 -10 7 -32 12 -48 12 -35 0
-43 16 -101 190 -41 122 -44 150 -24 223 7 22 11 22 72 -5z m384 -360 c96 -93
150 -131 258 -186 50 -25 86 -35 152 -42 58 -6 100 -16 128 -32 24 -13 53 -29
66 -36 24 -13 84 -89 84 -107 0 -6 9 -19 21 -28 28 -25 12 -43 -60 -64 -60
-18 -207 -22 -233 -7 -9 5 -41 41 -72 79 -100 126 -107 134 -168 180 -33 25
-69 56 -80 70 -11 14 -25 25 -32 25 -7 0 -24 12 -37 28 -14 15 -37 36 -52 46
-14 11 -24 23 -21 28 3 4 -2 8 -11 8 -24 0 -29 27 -11 55 9 14 18 25 20 25 2
0 23 -19 48 -42z m-112 -103 c7 -8 19 -15 26 -15 8 0 37 -22 66 -50 28 -27 58
-50 65 -50 7 0 18 -9 25 -20 7 -11 48 -48 91 -81 49 -38 92 -81 113 -114 19
-30 34 -57 34 -60 0 -3 -14 -4 -31 -3 -36 3 -57 -19 -44 -48 5 -11 9 -27 10
-38 2 -15 -3 -17 -31 -13 -44 7 -68 -15 -59 -52 11 -40 11 -54 -1 -58 -6 -2
-16 8 -22 22 -7 14 -19 28 -27 31 -20 8 -45 -13 -38 -32 3 -8 -1 -14 -11 -14
-9 0 -16 8 -16 18 0 10 -9 25 -20 35 -11 9 -20 26 -20 36 0 11 -4 22 -9 25 -5
3 -19 43 -31 88 -12 46 -31 99 -41 118 -26 50 -49 106 -49 119 0 6 -4 11 -10
11 -5 0 -10 7 -10 15 0 8 -4 15 -10 15 -5 0 -10 3 -9 8 2 15 -14 52 -22 52
-16 0 -10 23 13 47 25 27 50 30 68 8z m430 6 c0 -5 -9 -7 -20 -4 -11 3 -20 7
-20 9 0 2 9 4 20 4 11 0 20 -4 20 -9z m-567 -91 c10 -16 22 -30 27 -30 11 0
52 -91 69 -152 8 -27 17 -48 21 -48 11 0 30 -48 30 -75 0 -13 5 -27 10 -30 6
-3 10 -19 10 -34 0 -16 9 -40 20 -54 11 -14 23 -39 26 -55 4 -17 14 -39 23
-49 23 -25 51 -87 51 -112 0 -25 39 -38 68 -22 12 6 23 11 25 11 13 0 19 -44
17 -132 -1 -80 -5 -104 -24 -140 -12 -24 -30 -44 -39 -46 -43 -8 -101 71 -149
203 -34 92 -46 144 -53 235 -4 41 -14 88 -22 105 -9 16 -20 46 -23 65 -14 71
-43 176 -62 227 -11 29 -18 54 -16 57 1 2 -4 12 -13 22 -9 11 -21 34 -27 52
-14 42 7 44 31 2z m-973 -234 c0 -3 -4 -8 -10 -11 -5 -3 -10 -1 -10 4 0 6 5
11 10 11 6 0 10 -2 10 -4z m-551 -91 c7 -38 21 -97 32 -129 20 -62 24 -97 12
-95 -52 8 -58 -16 -33 -132 47 -225 121 -457 190 -604 81 -171 100 -212 100
-219 0 -4 14 -39 31 -78 17 -39 33 -86 35 -104 2 -19 11 -51 19 -72 7 -20 19
-73 25 -116 7 -44 16 -91 22 -105 12 -33 22 -243 20 -446 -2 -222 -5 -269 -19
-277 -6 -5 -9 -17 -6 -28 3 -11 1 -20 -5 -20 -6 0 -11 19 -11 43 0 23 -3 65
-6 92 -3 28 -8 95 -10 150 -4 122 -17 268 -24 278 -2 1 -4 14 -6 28 -10 77
-111 430 -147 516 -6 16 -13 35 -14 43 -3 16 -58 155 -72 180 -5 8 -19 53 -31
100 -13 47 -30 97 -38 113 -8 15 -12 27 -8 27 3 0 -1 12 -8 28 -8 15 -17 46
-21 70 -3 24 -11 51 -16 60 -20 37 -53 202 -59 295 -8 123 -6 339 3 392 19
116 26 118 45 10z m552 -2 c1 -16 2 -39 3 -52 0 -13 -4 -26 -11 -28 -9 -3 -12
12 -12 51 1 56 18 80 20 29z m1539 -88 c-7 -8 -14 -15 -15 -15 -2 0 -5 7 -9
15 -4 10 1 15 16 15 17 0 18 -2 8 -15z m-1532 -52 c2 -27 5 -74 8 -105 2 -34
0 -58 -5 -58 -12 0 -25 99 -19 140 3 17 1 33 -4 36 -13 8 -9 34 5 34 9 0 14
-16 15 -47z m1539 10 c4 -10 17 -29 30 -43 13 -14 30 -41 39 -60 10 -19 21
-38 26 -41 12 -8 23 -79 12 -79 -22 0 -123 48 -166 79 -36 25 -46 40 -46 60 0
14 -1 32 -3 40 -3 10 6 14 31 15 28 1 36 5 38 24 4 26 30 29 39 5z m-2009
-189 c2 -10 10 -32 17 -49 7 -16 19 -48 28 -70 43 -112 92 -223 108 -246 15
-22 49 -99 121 -274 11 -27 25 -59 30 -69 33 -62 89 -268 103 -376 4 -30 10
-64 12 -75 3 -11 8 -83 10 -161 4 -116 3 -141 -9 -141 -7 0 -14 7 -15 16 -1
17 -12 93 -19 126 -10 54 -14 73 -19 110 -15 100 -135 454 -157 463 -5 2 -6 8
-2 13 3 5 0 9 -6 9 -6 0 -9 4 -5 10 3 5 2 17 -3 27 -5 10 -20 38 -33 63 -12
25 -26 52 -30 60 -4 8 -16 42 -25 75 -10 33 -23 69 -30 80 -7 11 -15 35 -19
53 -3 18 -12 49 -19 70 -8 20 -19 67 -25 104 -6 37 -19 85 -29 107 -11 23 -17
54 -14 71 5 33 25 36 30 4z m488 -89 c2 -48 6 -91 9 -96 4 -5 -1 -9 -9 -9 -11
0 -16 10 -17 33 -1 17 -2 55 -4 82 -3 52 3 91 12 81 3 -3 7 -44 9 -91z m11
-121 c-3 -3 -12 -4 -19 -1 -8 3 -5 6 6 6 11 1 17 -2 13 -5z m3 -40 c0 -8 -7
-14 -15 -14 -15 0 -21 21 -9 33 10 9 24 -2 24 -19z m-1 -86 c1 -26 -2 -48 -7
-48 -13 0 -21 46 -11 62 4 7 4 17 -1 23 -6 8 -5 12 3 12 9 0 14 -17 16 -49z
m6 -68 c3 -5 -1 -10 -10 -10 -9 0 -13 5 -10 10 3 6 8 10 10 10 2 0 7 -4 10
-10z m0 -60 c3 -5 -1 -10 -10 -10 -9 0 -13 5 -10 10 3 6 8 10 10 10 2 0 7 -4
10 -10z m15 -439 c0 -6 -4 -12 -8 -15 -5 -3 -9 1 -9 9 0 8 4 15 9 15 4 0 8 -4
8 -9z m-5 -81 c3 -5 1 -10 -4 -10 -6 0 -11 5 -11 10 0 6 2 10 4 10 3 0 8 -4
11 -10z m5 -84 c0 -3 -4 -8 -10 -11 -5 -3 -10 -1 -10 4 0 6 5 11 10 11 6 0 10
-2 10 -4z m0 -67 c0 -10 -7 -19 -15 -19 -13 0 -14 12 -6 48 3 12 21 -13 21
-29z m0 -58 c0 -6 -4 -13 -10 -16 -5 -3 -10 1 -10 9 0 9 5 16 10 16 6 0 10 -4
10 -9z m1 -53 c1 -13 3 -38 5 -55 3 -24 0 -33 -11 -33 -8 0 -16 10 -17 23 -4
62 -4 73 0 80 7 15 22 6 23 -15z m-38 -678 c-7 -48 -21 -80 -34 -80 -11 0 -9
48 5 105 2 11 5 24 5 28 1 5 7 2 15 -6 10 -9 13 -26 9 -47z m-152 -213 c-13
-13 -26 -3 -16 12 3 6 11 8 17 5 6 -4 6 -10 -1 -17z"/>
</g>
</svg>
