<?xml version="1.0" standalone="no"?>
<!DOCTYPE svg PUBLIC "-//W3C//DTD SVG 20010904//EN"
 "http://www.w3.org/TR/2001/REC-SVG-20010904/DTD/svg10.dtd">
<svg version="1.0" xmlns="http://www.w3.org/2000/svg"
 width="317.000000pt" height="327.000000pt" viewBox="0 0 317.000000 327.000000"
 preserveAspectRatio="xMidYMid meet">
<metadata>
Created by potrace 1.16, written by Peter Selinger 2001-2019
</metadata>
<g transform="translate(0.000000,327.000000) scale(0.100000,-0.100000)"
fill="#000000" stroke="none">
<path d="M1477 3192 c-15 -3 -18 -12 -16 -50 4 -77 0 -122 -12 -122 -7 0 -30
15 -53 34 -50 40 -77 50 -122 41 -30 -5 -34 -9 -34 -38 1 -18 7 -43 15 -57 8
-14 14 -29 15 -33 0 -14 -74 5 -122 31 -40 23 -48 24 -63 12 -13 -11 -16 -25
-12 -64 2 -28 7 -61 10 -73 5 -20 1 -24 -33 -29 -22 -4 -45 -13 -51 -20 -11
-14 1 -36 78 -143 l17 -23 -43 6 c-38 5 -47 2 -69 -19 -14 -14 -28 -25 -31
-25 -8 0 -41 -55 -41 -69 0 -16 42 -51 60 -51 9 0 25 -9 34 -19 16 -18 16 -21
2 -43 -12 -18 -14 -35 -8 -68 7 -43 9 -46 55 -60 26 -8 47 -20 47 -25 0 -6
-15 -26 -32 -45 -73 -78 -88 -101 -82 -129 12 -49 26 -55 78 -31 25 12 49 26
52 31 3 5 14 9 24 9 19 0 19 -1 -2 -36 -25 -42 -29 -111 -8 -124 8 -5 42 -10
76 -10 33 0 63 -2 66 -5 3 -4 2 -24 -3 -45 -10 -42 2 -90 22 -90 7 0 36 18 65
40 56 42 69 41 55 -6 -9 -35 -5 -52 21 -80 l19 -22 40 26 c21 14 41 34 45 44
3 10 11 18 17 18 8 0 12 -28 11 -92 0 -61 4 -103 13 -121 8 -16 12 -31 9 -35
-3 -3 -1 -11 4 -17 5 -7 13 -36 16 -66 3 -30 8 -57 10 -61 3 -4 10 -34 15 -65
6 -32 12 -65 13 -73 2 -8 6 -22 9 -30 18 -48 66 -200 72 -230 4 -19 11 -40 15
-45 5 -6 10 -53 13 -105 2 -52 6 -130 9 -172 5 -79 0 -92 -24 -60 -7 10 -29
29 -48 42 -19 14 -55 44 -80 67 -117 110 -136 124 -190 140 -30 8 -66 17 -80
18 -14 1 -52 8 -85 15 -33 7 -82 10 -110 7 -59 -6 -159 -42 -183 -66 -35 -34
-51 -42 -148 -65 -149 -36 -231 -49 -318 -50 -69 -1 -80 -3 -86 -21 -5 -13 -2
-26 8 -37 8 -10 11 -18 6 -18 -5 -1 7 -8 27 -18 19 -9 42 -23 50 -30 7 -7 32
-26 55 -42 32 -23 46 -44 68 -100 15 -38 32 -72 37 -76 5 -3 9 -12 9 -20 0
-20 133 -187 166 -209 15 -9 38 -28 53 -41 97 -86 309 -140 450 -114 75 13
137 46 213 111 31 27 60 49 65 49 5 0 25 14 46 31 46 38 84 44 126 18 29 -18
32 -23 25 -52 -12 -51 -12 -71 0 -90 29 -46 58 -2 52 80 -2 32 0 63 4 68 13
18 19 59 11 69 -10 13 -39 105 -39 126 -2 93 -5 137 -12 145 -4 6 -10 39 -14
75 -13 151 -35 349 -39 370 -2 8 -9 28 -16 44 -6 16 -13 37 -14 47 -2 10 -6
22 -10 25 -4 4 -7 19 -7 34 0 14 -9 43 -19 64 -11 21 -21 52 -22 69 -2 18 -7
37 -11 43 -5 7 -8 16 -7 20 2 5 -2 27 -9 49 -6 22 -13 58 -17 79 -3 22 -13 60
-21 85 -16 46 -23 255 -10 268 11 12 16 -4 22 -78 5 -66 65 -274 95 -332 10
-18 56 -188 65 -242 3 -16 12 -52 19 -80 8 -27 15 -77 17 -110 1 -33 5 -64 9
-70 3 -5 19 -57 35 -115 24 -89 28 -123 27 -220 0 -63 -7 -143 -15 -176 -13
-56 -13 -64 2 -84 12 -16 17 -43 17 -99 1 -85 13 -121 43 -121 24 0 30 41 13
90 -13 40 -5 55 32 64 14 4 25 13 25 20 0 9 32 24 85 41 80 26 88 27 152 15
38 -7 81 -16 97 -21 16 -5 74 -9 130 -9 142 0 283 27 316 60 3 3 23 14 45 25
84 42 168 128 207 212 16 35 32 74 34 86 11 50 19 156 16 210 -2 46 -6 57 -20
57 -13 0 -14 2 -4 9 20 12 -9 119 -46 174 -42 63 -64 121 -64 166 1 50 -18 69
-42 42 -10 -11 -24 -17 -32 -14 -8 3 -14 -1 -14 -9 0 -8 -28 -27 -62 -42 -35
-16 -70 -32 -78 -36 -9 -4 -31 -11 -50 -14 -19 -4 -63 -16 -98 -28 -34 -11
-86 -24 -115 -28 -154 -25 -261 -70 -341 -144 -44 -41 -88 -105 -103 -148 -3
-10 -9 -18 -13 -18 -4 0 -13 -19 -20 -42 -8 -24 -18 -48 -23 -55 -5 -7 -6 -16
-4 -20 3 -5 -1 -16 -8 -26 -11 -15 -13 -11 -19 35 -4 29 -16 80 -28 113 -11
33 -21 67 -23 75 -2 8 -7 33 -13 55 -5 22 -10 56 -11 75 -1 19 -6 50 -12 69
-11 33 -33 126 -45 186 -8 45 -64 209 -73 215 -9 6 -51 177 -51 208 0 18 6 15
44 -24 l44 -46 12 35 c15 47 15 248 0 277 -10 19 -9 21 7 17 10 -3 32 -8 49
-12 17 -3 45 -19 63 -36 18 -16 47 -33 65 -36 17 -3 40 -11 51 -18 11 -6 32
-14 47 -17 24 -4 27 -1 33 30 4 24 2 39 -9 51 -9 10 -16 25 -16 34 0 9 -4 19
-10 22 -5 3 -10 10 -10 15 0 5 31 -2 69 -15 38 -14 87 -27 109 -31 39 -6 40
-6 44 27 3 19 1 43 -4 54 -35 77 -76 121 -140 154 -57 28 -61 41 -14 41 24 0
46 10 78 36 78 66 103 101 93 134 -6 19 -43 46 -57 42 -4 -1 -19 3 -33 8 -19
7 -33 5 -58 -9 -17 -10 -52 -21 -77 -25 l-44 -7 39 28 c22 16 59 37 83 47 40
18 59 36 137 131 32 39 51 93 38 106 -11 11 -114 14 -137 4 -17 -7 -17 -6 -6
16 7 13 26 40 41 59 27 33 43 110 27 126 -10 9 -80 -18 -112 -44 -16 -12 -30
-21 -33 -19 -2 3 1 24 8 48 21 83 22 106 5 112 -21 8 -81 -25 -128 -71 -21
-20 -41 -33 -44 -29 -4 4 -2 39 5 77 13 74 9 120 -11 120 -13 0 -68 -49 -68
-61 0 -13 -63 -109 -71 -109 -14 0 -40 106 -34 133 4 15 2 28 -5 32 -16 10
-56 -12 -68 -39 -45 -93 -63 -135 -68 -163 -9 -45 -30 -31 -38 25 -3 26 -13
61 -22 77 -9 17 -23 42 -31 56 -18 35 -34 46 -56 41z m57 -160 c8 -15 18 -46
21 -67 4 -22 15 -56 24 -75 10 -19 16 -41 15 -47 -1 -7 -2 -29 -3 -50 0 -20
-4 -33 -8 -29 -11 11 -64 157 -69 191 -16 107 -16 117 -5 111 6 -4 17 -20 25
-34z m198 6 c23 -47 27 -62 34 -126 5 -51 -7 -118 -26 -147 -4 -5 -11 -28 -15
-50 -3 -22 -16 -55 -27 -73 -17 -28 -23 -31 -34 -20 -7 7 -16 31 -18 52 -3 21
-7 41 -10 43 -2 3 1 21 8 41 7 21 11 62 9 93 -2 30 1 75 7 100 6 24 12 54 14
66 3 23 23 53 35 53 4 0 14 -15 23 -32z m157 -38 c-7 -64 -24 -100 -46 -100
-15 0 -7 75 13 124 28 69 42 59 33 -24z m-507 -12 c60 -47 100 -105 129 -189
15 -43 37 -92 48 -108 12 -16 24 -44 28 -61 6 -30 5 -32 -18 -25 -13 4 -28 14
-34 23 -11 18 -32 39 -93 95 -46 42 -68 98 -51 129 12 22 4 39 -16 32 -7 -3
-22 4 -32 15 -21 25 -54 117 -45 125 9 10 45 -5 84 -36z m698 37 c0 -4 -32
-78 -76 -172 -13 -28 -24 -54 -24 -57 0 -3 -18 -36 -41 -73 -51 -85 -112 -143
-196 -186 -56 -30 -57 -20 -4 68 22 36 43 75 47 87 17 55 67 148 79 148 8 0
26 17 41 38 45 61 138 151 157 152 9 0 17 -2 17 -5z m17 -101 c-3 -3 -12 -4
-19 -1 -8 3 -5 6 6 6 11 1 17 -2 13 -5z m96 0 c3 -4 -14 -33 -38 -65 -25 -31
-45 -61 -45 -66 0 -17 -78 -83 -99 -83 -19 0 -21 4 -15 23 16 54 56 118 69
113 8 -3 29 13 50 40 33 40 62 54 78 38z m-995 -23 c18 -6 49 -24 68 -40 19
-17 42 -31 52 -31 12 0 23 -18 38 -60 12 -33 17 -60 11 -60 -5 0 -32 18 -60
41 -28 22 -64 43 -79 46 -16 3 -28 12 -28 21 0 19 -29 52 -46 52 -16 0 -27 17
-19 30 8 12 21 13 63 1z m631 -28 c-8 -9 -16 -10 -22 -4 -13 13 0 31 19 24 11
-4 12 -8 3 -20z m-662 -127 c66 -18 92 -33 140 -76 21 -19 69 -50 107 -68 37
-18 66 -35 63 -38 -3 -3 -20 2 -38 11 -18 10 -64 26 -103 36 -77 21 -213 85
-234 109 -7 8 -17 24 -23 34 -10 17 -9 18 12 12 13 -3 47 -13 76 -20z m1073
-11 c0 -2 -8 -17 -18 -33 -21 -35 -65 -73 -112 -97 -30 -15 -95 -59 -110 -75
-13 -13 -87 -42 -129 -50 -25 -5 -67 -16 -93 -24 -27 -8 -48 -11 -48 -6 0 6 5
10 11 10 14 0 73 44 134 100 65 60 92 76 140 85 48 8 155 65 155 83 0 7 14 12
35 12 19 0 35 -2 35 -5z m-1121 -156 c27 -6 55 -17 62 -25 16 -20 29 -18 29 5
0 11 4 22 9 25 15 10 185 -47 197 -65 2 -4 -56 -7 -130 -7 -103 0 -138 3 -146
13 -8 9 -29 13 -60 12 -35 -1 -53 3 -69 17 -11 10 -18 23 -15 27 7 12 63 11
123 -2z m1090 -123 c14 -17 5 -41 -27 -70 -28 -24 -174 -31 -265 -12 -57 11
-67 11 -80 -2 -11 -10 -24 -12 -44 -7 l-28 7 25 10 c14 5 63 11 110 13 47 2
102 11 122 19 21 9 50 16 65 16 15 0 42 9 58 20 36 24 49 25 64 6z m-767 -29
c40 -7 21 -12 -50 -12 -57 0 -89 -6 -122 -21 -59 -28 -168 -38 -194 -18 -11 7
-18 15 -15 17 62 47 69 49 219 43 80 -3 153 -7 162 -9z m-42 -76 c0 -5 -9 -13
-21 -16 -11 -4 -42 -26 -69 -50 -26 -24 -66 -48 -87 -55 -21 -7 -67 -30 -102
-51 -80 -48 -92 -49 -46 -4 19 20 35 39 35 43 0 15 59 42 90 42 34 0 89 27 91
45 1 5 2 17 3 25 1 10 17 17 51 21 28 3 51 7 53 7 1 1 2 -2 2 -7z m138 -74
c-39 -58 -118 -137 -137 -137 -4 0 -27 -18 -52 -40 -24 -22 -47 -40 -51 -40
-5 0 -8 -7 -8 -15 0 -21 -46 -37 -86 -29 -40 7 -43 23 -12 67 34 51 160 165
196 179 17 6 32 15 32 18 0 11 149 71 158 64 2 -1 -16 -31 -40 -67z m459 -7
c43 0 228 -128 211 -146 -10 -10 -118 26 -189 62 -36 19 -69 34 -73 34 -11 0
-53 43 -59 62 -5 15 -2 16 41 2 26 -7 57 -14 69 -14z m-372 -22 c-4 -18 -8
-44 -10 -58 -31 -202 -62 -290 -124 -349 l-26 -24 -5 24 c-4 13 -5 35 -3 49 2
14 6 44 9 68 3 23 26 84 51 135 25 50 49 101 54 112 17 39 44 74 57 75 2 0 0
-15 -3 -32z m146 4 c13 -10 44 -30 69 -44 25 -15 62 -46 83 -70 21 -24 42 -47
47 -53 4 -5 21 -21 36 -35 l27 -25 -36 -3 c-28 -2 -46 4 -72 23 -19 15 -54 33
-77 39 -37 11 -46 20 -70 67 -15 29 -28 59 -28 65 0 6 -7 17 -15 24 -37 30 -3
41 36 12z m-70 -55 c-1 -12 -15 -9 -19 4 -3 6 1 10 8 8 6 -3 11 -8 11 -12z
m-245 -124 c-13 -27 -27 -57 -30 -69 -13 -43 -117 -117 -108 -76 1 7 4 20 5
30 8 42 42 90 89 125 28 20 55 37 60 37 5 0 -2 -21 -16 -47z m259 35 c2 -7 6
-25 9 -40 2 -15 12 -42 21 -61 19 -40 17 -128 -3 -135 -7 -2 -19 13 -29 35
-20 46 -42 169 -36 194 6 21 31 26 38 7z m1237 -916 c21 -42 44 -88 52 -102
23 -41 48 -148 48 -210 2 -144 -49 -262 -145 -340 -85 -70 -180 -115 -255
-124 -34 -4 -62 -12 -62 -17 0 -6 -5 -7 -12 -3 -7 4 -53 8 -103 9 -49 0 -124
9 -165 19 -49 12 -95 16 -134 13 l-58 -5 33 36 c48 51 62 62 76 57 7 -2 15 0
18 6 7 10 35 7 78 -10 16 -6 70 -11 120 -10 51 0 106 -4 124 -9 28 -9 35 -7
61 18 22 21 28 34 25 54 -6 31 -26 34 -46 6 -13 -18 -19 -19 -67 -10 -30 6
-75 7 -101 4 -48 -6 -149 20 -149 38 0 12 119 122 142 130 11 5 29 3 40 -3 12
-7 45 -8 87 -4 55 5 74 3 114 -15 51 -23 90 -19 85 8 -2 8 -13 16 -26 17 -12
1 -32 11 -45 22 -41 37 -64 44 -127 37 -33 -4 -60 -4 -60 0 0 3 21 25 46 48
74 68 127 94 136 68 2 -6 22 -13 46 -15 23 -2 51 -9 61 -15 11 -5 29 -10 40
-10 36 0 23 33 -24 65 -25 17 -45 33 -45 36 0 3 14 18 30 32 17 15 30 36 30
47 0 27 -5 26 -51 -14 -37 -31 -82 -50 -94 -38 -2 3 2 17 10 31 8 14 19 44 25
66 8 34 7 42 -7 53 -10 7 -22 11 -28 9 -10 -3 -13 -13 -35 -130 -9 -43 -18
-62 -37 -75 -14 -9 -49 -38 -77 -64 -57 -51 -88 -63 -94 -35 -4 19 26 124 40
144 14 18 5 67 -13 71 -8 1 -20 -8 -26 -20 -15 -32 -35 -147 -37 -213 -1 -48
-6 -59 -31 -82 -17 -14 -54 -49 -83 -77 -44 -42 -54 -48 -63 -36 -15 22 -2
140 20 194 16 37 18 52 10 74 l-11 27 -19 -24 c-10 -13 -19 -34 -19 -48 0 -13
-5 -33 -11 -44 -5 -11 -11 -54 -13 -97 -6 -137 -18 -168 -96 -250 -40 -42 -77
-72 -89 -72 -10 0 -22 -6 -24 -12 -3 -7 -6 -1 -6 15 -1 15 3 27 8 27 6 0 8 15
5 32 -3 18 7 89 21 158 15 69 27 133 27 142 -1 10 3 20 9 23 5 4 9 13 9 21 0
8 16 40 35 70 19 30 35 59 35 64 0 15 92 100 108 100 7 0 33 11 58 25 25 14
51 25 60 25 8 0 40 9 71 20 32 11 69 20 84 20 15 0 47 8 71 19 24 10 63 22 87
26 55 9 143 40 199 70 24 13 49 22 56 19 6 -2 28 -39 48 -82z m-1647 -327
c102 -16 199 -60 229 -103 11 -15 43 -47 72 -72 92 -78 124 -109 125 -122 0
-7 2 -22 4 -32 2 -11 -1 -28 -6 -38 -9 -17 -12 -17 -40 -3 -16 9 -34 13 -39
10 -6 -3 -10 -1 -10 4 0 6 -9 11 -20 11 -12 0 -24 10 -30 24 -5 13 -15 28 -23
33 -8 4 -29 30 -46 58 -49 77 -120 130 -144 106 -13 -13 -1 -29 36 -45 63 -26
119 -144 73 -152 -38 -6 -73 8 -113 46 -23 21 -39 40 -36 44 3 3 -8 8 -23 11
-60 12 -88 36 -107 89 -2 5 -11 7 -20 3 -15 -6 -14 -10 6 -43 12 -21 37 -52
54 -70 31 -30 32 -33 13 -39 -23 -7 -63 12 -55 26 4 5 -2 9 -12 9 -19 0 -117
63 -145 93 -9 10 -22 16 -27 12 -16 -9 -14 -17 14 -49 23 -26 24 -31 9 -39
-15 -9 -51 -6 -121 9 -22 4 -37 2 -47 -9 -17 -17 -2 -39 20 -30 8 3 26 -3 41
-12 21 -14 39 -16 87 -12 34 3 68 2 76 -3 17 -11 14 -12 -79 -29 -50 -10 -70
-19 -95 -45 -17 -18 -41 -39 -53 -47 -22 -15 -42 -69 -26 -69 5 0 29 18 51 40
23 22 50 43 60 48 24 13 92 25 122 23 14 -1 37 7 50 17 25 19 150 38 150 23 0
-4 -21 -20 -46 -36 -59 -37 -91 -67 -140 -130 -21 -27 -42 -52 -45 -55 -3 -3
-3 -16 1 -30 l6 -25 16 30 c34 64 146 156 223 182 84 29 102 32 135 24 19 -4
38 -8 43 -9 4 -1 16 -2 28 -2 18 0 13 -8 -27 -50 -27 -28 -53 -58 -58 -68 -5
-9 -12 -19 -16 -22 -4 -3 -25 -40 -48 -82 -40 -75 -41 -78 -22 -88 16 -9 20
-8 20 7 0 32 59 121 121 183 33 33 65 61 72 61 7 1 24 2 39 3 15 1 30 5 34 9
25 25 135 -22 163 -70 l18 -29 -54 0 c-43 1 -58 -3 -71 -20 -9 -11 -38 -35
-64 -52 -83 -54 -113 -77 -126 -95 -19 -25 -62 -45 -133 -61 -55 -13 -74 -13
-163 0 -239 36 -385 151 -505 398 -28 57 -66 120 -86 140 -31 32 -32 37 -17
45 10 5 56 14 102 21 47 6 102 18 123 26 20 8 50 14 66 14 18 0 48 14 78 37
104 79 190 96 358 68z"/>
</g>
</svg>
