<?xml version="1.0" standalone="no"?>
<!DOCTYPE svg PUBLIC "-//W3C//DTD SVG 20010904//EN"
 "http://www.w3.org/TR/2001/REC-SVG-20010904/DTD/svg10.dtd">
<svg version="1.0" xmlns="http://www.w3.org/2000/svg"
 width="523.000000pt" height="387.000000pt" viewBox="0 0 523.000000 387.000000"
 preserveAspectRatio="xMidYMid meet">
<metadata>
Created by potrace 1.16, written by Peter Selinger 2001-2019
</metadata>
<g transform="translate(0.000000,387.000000) scale(0.100000,-0.100000)"
fill="#000000" stroke="none">
<path d="M2860 3691 c0 -5 -19 -11 -41 -15 -23 -4 -51 -12 -63 -18 -11 -7 -23
-12 -26 -13 -5 0 -26 -17 -71 -59 -13 -12 -33 -34 -44 -49 -34 -47 -162 -106
-184 -84 -6 6 -11 8 -11 3 0 -4 -13 2 -29 13 -16 12 -33 21 -38 21 -5 0 -35
23 -68 50 -33 28 -63 50 -67 50 -5 0 -25 11 -46 25 -27 18 -55 26 -104 29 -37
3 -76 10 -87 15 -11 6 -48 11 -82 11 -50 0 -80 -8 -155 -40 -52 -22 -102 -40
-113 -40 -11 0 -21 -4 -23 -9 -9 -23 -317 -161 -361 -161 -6 0 -50 -23 -97
-50 -46 -28 -96 -53 -110 -57 -44 -11 -247 -120 -301 -162 -28 -23 -56 -41
-63 -41 -11 0 -99 -62 -146 -102 -26 -22 -93 -63 -135 -83 -22 -10 -55 -33
-73 -52 -19 -18 -40 -33 -46 -33 -17 0 -46 -33 -46 -52 0 -8 -11 -20 -25 -26
-14 -6 -25 -20 -25 -30 0 -22 40 -124 52 -132 10 -8 48 -92 48 -109 0 -8 8
-24 18 -35 10 -12 31 -55 46 -97 15 -42 35 -85 45 -96 10 -10 32 -49 50 -86
18 -37 36 -67 41 -67 5 0 11 -8 14 -18 3 -9 20 -23 37 -31 33 -15 66 -60 76
-103 6 -30 48 -72 83 -83 46 -15 67 -41 156 -195 21 -36 63 -103 93 -149 85
-129 109 -172 126 -226 9 -27 20 -59 25 -70 5 -11 11 -29 13 -40 3 -11 22 -65
42 -120 46 -127 50 -145 35 -145 -7 0 -6 -6 4 -16 16 -15 20 -27 17 -50 -1 -7
5 -14 14 -18 8 -3 15 -11 15 -18 0 -22 39 -89 112 -191 51 -71 83 -105 117
-124 25 -15 62 -39 81 -55 19 -15 41 -28 50 -28 8 0 38 -16 66 -36 50 -34 58
-36 196 -50 78 -8 181 -17 228 -19 47 -3 103 -9 125 -14 60 -15 169 -33 180
-30 6 1 40 -1 77 -5 67 -8 123 -2 268 31 76 17 119 24 140 24 104 -3 123 0
206 32 49 19 114 40 144 47 54 13 181 63 210 84 26 19 59 36 70 36 14 0 114
65 170 111 25 20 59 43 75 52 17 9 49 33 71 54 23 21 67 60 98 88 31 27 56 55
56 62 0 6 6 16 13 20 17 11 77 89 77 101 0 5 6 15 14 21 7 6 21 33 31 59 10
26 21 49 25 52 11 8 36 67 70 165 17 49 38 97 46 106 7 8 14 19 14 23 0 4 11
22 24 39 23 31 76 137 76 154 0 4 11 30 24 58 36 77 81 190 121 305 20 58 48
128 61 157 13 28 24 59 24 67 0 8 5 18 10 21 6 3 10 15 10 26 0 10 5 19 10 19
6 0 10 5 10 12 0 6 6 19 14 27 12 14 37 61 105 200 9 18 26 43 38 55 13 11 23
25 23 29 0 8 47 71 85 115 23 27 27 69 7 77 -8 3 -12 12 -9 19 9 22 -18 38
-69 42 -25 2 -77 15 -115 29 -39 14 -79 25 -90 25 -10 0 -38 8 -62 18 -40 17
-94 37 -232 84 -33 11 -67 24 -75 28 -9 4 -40 11 -70 15 -30 4 -59 10 -65 13
-5 4 -14 7 -20 7 -5 1 -26 4 -45 9 -19 4 -42 8 -50 10 -141 25 -280 69 -326
103 -17 13 -36 23 -41 23 -6 0 -37 19 -69 43 -65 47 -97 66 -163 93 -24 10
-59 31 -79 46 -19 15 -41 28 -50 28 -8 0 -35 15 -61 33 -41 30 -94 53 -112 49
-3 -1 -12 11 -20 26 -20 41 -86 100 -121 108 -18 3 -47 15 -65 25 -18 10 -33
15 -33 10z m26 -111 c6 -6 21 -12 34 -15 32 -6 84 -43 105 -76 22 -31 65 -59
93 -59 10 0 30 -11 44 -25 14 -14 47 -34 74 -46 27 -12 63 -32 81 -45 17 -13
53 -31 79 -40 51 -17 124 -61 124 -75 0 -5 7 -9 15 -9 8 0 15 -4 15 -10 0 -5
5 -10 11 -10 6 0 34 -16 63 -35 80 -53 137 -75 278 -106 72 -16 137 -33 146
-38 10 -5 49 -12 87 -16 39 -3 79 -10 90 -14 40 -16 91 -34 130 -45 22 -7 51
-17 65 -23 58 -23 322 -109 363 -117 42 -10 37 -52 -13 -99 -22 -20 -40 -43
-40 -51 0 -7 -11 -26 -25 -42 -14 -16 -28 -44 -31 -61 -3 -18 -10 -33 -14 -33
-4 0 -11 -12 -15 -27 -3 -16 -12 -35 -19 -43 -13 -15 -96 -166 -96 -175 -1 -8
-11 -35 -66 -178 -30 -76 -54 -146 -54 -156 0 -9 -5 -22 -11 -28 -6 -6 -12
-17 -13 -24 -2 -8 -11 -32 -21 -54 -9 -22 -18 -44 -20 -50 -1 -5 -9 -26 -17
-45 -9 -19 -26 -60 -38 -92 -12 -31 -37 -80 -57 -110 -19 -29 -39 -63 -44 -75
-4 -13 -13 -23 -19 -23 -5 0 -9 -3 -8 -7 4 -18 -43 -142 -81 -213 -29 -54 -41
-84 -41 -99 0 -9 -8 -23 -17 -32 -17 -15 -40 -42 -93 -110 -14 -18 -34 -41
-45 -51 -69 -64 -141 -125 -173 -147 -21 -14 -65 -47 -98 -72 -75 -59 -315
-175 -402 -195 -37 -8 -101 -29 -142 -47 -66 -28 -87 -32 -170 -32 -68 -1
-128 -9 -210 -29 -103 -25 -126 -27 -220 -22 -115 7 -260 30 -269 43 -3 5 -51
10 -106 12 -55 2 -116 5 -135 6 -19 2 -77 7 -128 10 -84 7 -98 11 -140 41 -26
18 -63 41 -82 51 -32 16 -104 59 -157 93 -13 8 -23 19 -23 24 0 5 -17 32 -38
60 -72 98 -114 178 -137 266 -4 14 -19 61 -35 105 -15 44 -42 124 -59 179 -32
102 -78 212 -96 232 -32 36 -31 34 -183 274 -100 157 -110 168 -162 195 -38
19 -51 32 -60 61 -7 21 -39 62 -79 101 -39 39 -79 91 -97 127 -17 33 -44 86
-60 116 -51 97 -101 213 -129 300 l-28 84 28 21 c16 11 40 32 55 46 14 14 54
42 90 63 36 20 94 59 130 86 36 27 71 49 78 49 6 1 12 4 12 9 0 4 15 15 33 25
18 10 49 31 68 48 41 35 190 113 278 145 36 13 67 27 70 31 3 5 17 14 31 21
14 7 43 24 65 37 22 14 53 25 69 25 16 0 98 34 182 75 84 41 158 75 165 75 7
0 57 20 111 45 88 41 107 46 161 44 34 -1 76 -8 94 -16 18 -7 48 -13 68 -13
36 0 195 -74 195 -91 0 -4 8 -10 18 -13 10 -4 27 -14 38 -24 41 -37 83 -62
122 -71 23 -5 42 -6 42 -2 0 4 28 20 62 35 41 19 84 51 127 94 88 88 194 135
227 102z"/>
<path d="M1814 2861 c-3 -3 -22 -7 -42 -8 -86 -4 -160 -12 -197 -21 -22 -6
-62 -12 -90 -13 -27 -1 -67 -11 -88 -21 -21 -11 -62 -21 -90 -24 -29 -3 -69
-15 -90 -26 -29 -15 -49 -19 -79 -14 -31 5 -52 1 -98 -20 -40 -18 -67 -24 -82
-19 -13 4 -45 9 -73 12 -27 3 -58 9 -67 14 -28 15 -60 10 -65 -10 -5 -18 -8
-18 -65 9 l-61 29 -18 -22 c-15 -20 -24 -69 -20 -114 1 -7 27 -38 59 -70 66
-66 157 -185 197 -258 15 -27 48 -75 74 -105 26 -30 64 -82 86 -115 21 -33 47
-72 57 -87 10 -15 18 -32 18 -38 0 -5 4 -10 10 -10 5 0 16 -15 23 -32 8 -18
28 -48 46 -67 17 -18 31 -40 31 -48 0 -14 69 -88 116 -123 107 -82 209 -170
219 -190 7 -14 31 -44 53 -67 22 -23 49 -62 61 -85 11 -24 29 -51 41 -60 11
-10 36 -40 55 -67 45 -62 116 -115 230 -171 50 -24 98 -50 107 -58 20 -17 125
-23 177 -10 140 34 480 43 553 13 21 -8 62 -15 91 -15 28 0 72 -5 97 -11 51
-12 162 -15 178 -5 6 3 29 9 52 12 23 3 47 7 55 8 19 3 94 64 140 115 22 24
90 96 152 160 149 156 188 198 225 248 17 24 39 45 50 49 10 3 16 9 14 13 -3
3 5 14 17 24 106 85 137 107 145 107 6 0 12 4 14 9 2 5 14 11 27 13 44 6 144
102 188 180 17 29 56 76 87 103 59 52 104 120 126 190 7 22 25 63 39 90 15 28
42 97 60 155 18 58 41 112 51 120 31 25 36 68 11 94 -13 14 -19 29 -15 39 9
25 -4 67 -22 67 -8 0 -17 -7 -20 -15 -4 -8 -12 -15 -19 -15 -7 0 -15 -4 -17
-10 -4 -11 -95 -30 -147 -30 -21 0 -41 -4 -47 -9 -16 -16 -114 -15 -244 4 -96
14 -142 26 -197 51 -40 19 -79 34 -88 34 -8 0 -15 4 -15 9 0 12 -106 51 -165
61 -27 5 -70 16 -95 25 -28 10 -61 15 -85 12 -22 -3 -77 -10 -122 -15 -45 -6
-90 -15 -100 -20 -10 -5 -55 -19 -101 -30 -45 -12 -87 -24 -91 -27 -5 -3 -67
-8 -138 -11 -165 -9 -292 8 -323 41 -17 18 -33 23 -69 23 -25 1 -58 5 -72 11
-15 5 -77 12 -140 16 -118 7 -182 12 -186 16 -15 10 -279 19 -289 10z m112
-140 c0 -33 -4 -57 -8 -55 -3 2 -9 0 -13 -6 -10 -16 -73 -12 -101 6 -23 16
-104 21 -143 10 -9 -3 -33 -7 -53 -10 -21 -3 -55 -10 -77 -15 -52 -11 -63 -3
-58 45 4 38 5 39 53 47 88 13 288 34 345 36 l55 1 0 -59z m224 34 c19 -2 46
-7 60 -12 14 -5 60 -8 103 -7 82 2 86 -1 89 -46 2 -55 0 -58 -39 -55 -21 2
-60 8 -87 15 -37 9 -58 9 -85 1 -43 -13 -173 -22 -188 -13 -11 7 -16 41 -14
101 l1 34 63 -8 c34 -4 78 -9 97 -10z m1341 -15 c22 0 39 -34 31 -62 -2 -10
-11 -18 -20 -18 -9 0 -25 -8 -36 -19 -12 -10 -33 -21 -47 -25 -23 -5 -28 -1
-42 34 -14 36 -19 40 -50 40 -22 0 -48 -10 -74 -29 -21 -15 -68 -38 -104 -51
-35 -12 -68 -26 -74 -30 -5 -4 -20 -11 -33 -15 -22 -6 -23 -5 -19 46 l3 53 59
14 c33 7 72 16 88 19 15 3 30 9 33 14 7 12 44 11 44 -1 0 -5 5 -10 11 -10 5 0
7 5 4 10 -3 6 -1 10 4 10 6 0 12 1 14 2 9 5 165 25 175 22 8 -2 22 -4 33 -4z
m-2093 -65 c-2 -2 -35 -6 -73 -9 -116 -7 -134 -14 -166 -64 -16 -25 -26 -49
-23 -53 8 -14 -16 -11 -63 7 -36 14 -43 21 -43 44 0 40 22 53 93 54 43 1 72 7
91 19 16 11 51 20 85 21 32 2 67 8 77 14 16 9 20 7 22 -9 2 -12 2 -22 0 -24z
m2259 29 c26 -9 75 -29 108 -44 33 -16 84 -38 113 -51 51 -22 59 -33 52 -78
-2 -19 -41 -73 -65 -91 -26 -19 -44 -21 -80 -10 -16 6 -63 19 -103 31 -45 13
-78 29 -87 42 -8 12 -15 16 -15 9 0 -6 -4 -12 -9 -12 -4 0 -4 24 1 53 11 60
14 89 16 135 2 37 5 38 69 16z m-1107 -9 c7 -9 15 -13 18 -11 2 3 12 1 22 -4
15 -8 45 -14 140 -26 19 -3 77 -6 129 -7 103 -2 107 -5 94 -68 -5 -26 -8 -28
-52 -25 -25 1 -61 -1 -79 -5 -29 -6 -34 -4 -42 16 -10 26 -29 38 -72 49 -18 4
-28 2 -28 -5 0 -6 -7 -17 -15 -25 -13 -13 -21 -14 -53 -3 -20 7 -41 13 -47 14
-5 1 -29 5 -52 9 l-43 9 0 48 c0 49 0 49 34 49 18 0 39 -7 46 -15z m-1780 -80
c23 -3 40 0 40 6 0 11 137 5 149 -6 3 -4 -2 -12 -12 -19 -21 -16 -23 -56 -2
-56 8 0 15 -8 15 -18 0 -10 9 -35 20 -57 11 -22 20 -43 20 -48 0 -29 101 -86
155 -87 45 0 186 29 202 41 19 17 138 7 160 -13 24 -21 223 -45 223 -27 0 5
49 8 110 7 60 -1 112 1 116 5 4 3 22 -5 40 -19 18 -15 51 -28 71 -30 155 -14
247 -25 250 -28 2 -2 22 0 45 5 22 6 45 6 52 1 60 -45 355 -69 450 -37 27 9
57 15 67 12 10 -3 28 6 44 23 15 15 41 31 58 36 18 4 121 8 229 8 l197 1 28
30 c16 17 34 44 41 59 11 26 14 27 30 14 18 -15 57 -31 107 -44 36 -9 27 -6
94 -27 30 -9 63 -17 74 -17 27 0 92 54 107 90 7 16 16 30 20 30 10 0 30 48 30
74 0 40 17 44 125 31 55 -7 103 -10 108 -8 4 2 7 -2 7 -9 0 -10 3 -9 10 2 5 8
12 11 15 8 4 -4 18 -3 32 3 30 11 90 22 194 34 l57 7 -15 -58 c-8 -33 -18 -78
-23 -101 -5 -23 -27 -74 -49 -113 -22 -39 -46 -90 -52 -113 -6 -23 -19 -48
-29 -57 -9 -8 -21 -26 -25 -40 -9 -28 -94 -120 -111 -120 -7 0 -15 -11 -18
-25 -4 -14 -11 -25 -16 -25 -6 0 -10 -8 -10 -18 0 -23 -110 -138 -142 -147
-41 -13 -148 -79 -148 -91 0 -7 -11 -15 -25 -18 -23 -6 -105 -77 -105 -92 0
-6 -70 -87 -70 -82 -1 2 -2 29 -4 60 -5 61 -22 124 -43 149 -7 8 -13 21 -13
27 0 6 -11 19 -24 27 -18 12 -45 15 -115 13 -50 -2 -91 -6 -91 -9 0 -4 -17
-10 -37 -14 -21 -4 -47 -18 -60 -33 -22 -26 -23 -26 -37 -7 -9 11 -16 23 -16
27 0 11 -80 31 -118 30 -18 -1 -45 -11 -59 -22 -14 -11 -33 -20 -42 -20 -10 0
-22 -5 -27 -10 -6 -6 -20 -12 -32 -15 -12 -2 -32 -11 -43 -19 -20 -13 -24 -13
-53 7 -17 12 -32 25 -34 28 -1 3 -16 3 -32 1 -17 -2 -37 1 -45 8 -8 7 -15 8
-15 3 0 -5 -50 -8 -115 -7 -104 2 -115 0 -120 -17 -4 -10 -10 -19 -15 -19 -5
0 -17 -15 -26 -32 -16 -30 -17 -31 -24 -12 -7 19 -60 62 -60 49 0 -3 -9 -1
-20 5 -14 8 -20 8 -20 0 0 -8 -35 -10 -122 -5 -99 6 -130 4 -159 -8 -31 -12
-39 -13 -62 0 -15 7 -27 18 -27 23 0 6 -7 7 -17 1 -10 -5 -43 -14 -73 -21 -30
-7 -67 -19 -82 -27 -26 -12 -34 -11 -102 22 -90 43 -121 44 -186 5 -82 -48
-90 -48 -151 7 -30 27 -70 61 -90 75 -20 15 -43 42 -52 60 -9 19 -29 50 -44
70 -15 20 -36 49 -45 65 -59 96 -160 250 -171 258 -13 10 -57 72 -87 123 -8
14 -23 35 -32 45 -9 11 -24 35 -33 53 -8 18 -20 36 -25 39 -13 8 -120 142
-120 150 0 4 9 3 20 0 11 -3 38 -8 60 -10z m628 5 c10 0 12 -10 9 -34 -3 -19
0 -39 5 -44 14 -14 -2 -42 -26 -42 -29 0 -63 39 -71 82 -6 30 -4 37 12 41 10
3 27 3 38 1 11 -2 26 -4 33 -4z m210 -30 c4 -43 37 -90 63 -90 11 0 17 -4 14
-10 -10 -16 -116 -12 -135 5 -9 8 -26 16 -39 18 -28 4 -41 23 -41 63 0 31 2
32 58 42 74 12 76 11 80 -28z m312 10 c15 -9 20 -84 6 -97 -3 -3 -39 -8 -81
-11 -56 -3 -75 -1 -75 8 0 15 38 81 55 95 16 13 76 17 95 5z m478 -28 c6 -8
12 -41 12 -73 l0 -57 -42 2 c-24 1 -68 3 -98 5 l-55 2 26 22 c26 21 40 50 45
92 1 11 3 23 3 26 2 13 97 -3 109 -19z m-316 -25 c-3 -27 2 -45 15 -59 18 -21
18 -21 -35 -16 -29 3 -54 7 -57 9 -2 3 -7 28 -11 57 l-7 53 49 -3 49 -3 -3
-38z m1420 -9 c-14 -14 -142 -23 -142 -11 0 10 29 52 30 42 0 -3 26 0 58 6 53
11 57 11 60 -8 2 -11 -1 -24 -6 -29z m-312 12 c0 -10 9 -28 20 -38 l21 -19
-23 -7 c-13 -3 -61 -9 -106 -12 l-84 -7 4 24 c2 17 12 26 36 33 17 5 32 13 32
17 0 5 13 9 29 9 17 0 33 5 36 10 11 17 35 11 35 -10z m-635 -9 c28 -1 53 -6
56 -9 3 -4 4 -27 2 -52 l-5 -46 -68 -2 -68 -3 -4 61 c-3 69 -2 73 21 61 9 -4
39 -9 66 -10z m-1437 -43 c20 1 45 -7 63 -20 l30 -22 45 24 c33 18 47 22 52
13 4 -7 18 -16 31 -21 21 -7 18 -10 -30 -26 -86 -28 -180 -32 -215 -11 -54 34
-77 84 -31 69 12 -4 37 -6 55 -6z m1836 -4 c4 -9 5 -18 4 -20 -2 -1 -36 -5
-75 -8 -40 -2 -78 -8 -84 -11 -7 -5 -10 1 -7 16 2 20 10 25 48 30 85 11 108
10 114 -7z m516 -64 c-26 -36 -9 -34 -300 -29 -52 0 -108 -4 -123 -10 -37 -14
-35 -15 -29 15 6 31 28 41 54 25 15 -9 28 -9 54 -1 19 7 45 9 57 6 12 -3 41 1
63 9 23 8 77 17 120 21 43 4 88 10 99 14 29 11 31 -13 5 -50z m-1837 17 c102
13 309 11 314 -4 3 -7 -12 -11 -44 -12 -26 0 -70 -2 -98 -5 -198 -20 -201 -19
-259 7 -31 14 -56 31 -56 37 0 7 15 2 36 -10 32 -21 41 -22 107 -13z m492 -38
c17 -5 57 -8 90 -8 79 2 185 -11 185 -22 0 -5 -7 -9 -15 -9 -8 0 -15 -5 -15
-11 0 -8 -17 -10 -57 -4 -69 9 -164 16 -215 15 -20 0 -42 6 -50 13 -7 7 -21
16 -30 20 -10 3 -18 11 -18 16 0 11 74 5 125 -10z m825 -29 c-8 -53 -43 -67
-190 -74 -72 -3 -236 14 -272 29 -11 4 -17 16 -16 30 2 21 6 22 48 19 25 -3
55 -7 68 -10 12 -2 32 1 44 7 11 6 52 13 91 15 39 2 76 9 81 14 6 6 42 9 81 8
l71 -3 -6 -35z m635 -698 c20 -14 46 -64 41 -78 -3 -8 -2 -14 2 -14 4 0 9 -8
10 -17 1 -10 3 -27 4 -38 2 -12 -3 -20 -12 -20 -8 0 -19 -6 -25 -12 -5 -7 -30
-15 -55 -18 -25 -3 -61 -8 -81 -11 -49 -7 -117 14 -125 39 -3 10 -3 44 1 73 5
43 12 58 31 71 35 22 187 41 209 25z m-405 -24 c0 14 24 10 45 -8 25 -21 37
-49 50 -117 l12 -62 -50 -16 c-27 -9 -57 -13 -66 -10 -9 4 -64 6 -123 6 l-107
-1 1 66 c1 61 3 67 27 77 14 6 33 16 41 23 8 6 26 14 40 17 14 3 43 12 65 20
28 11 44 12 53 5 8 -7 12 -7 12 0z m-372 -31 c47 -5 60 -23 68 -96 l7 -64 -39
6 c-21 4 -105 7 -186 7 l-148 0 0 28 c0 15 7 36 15 46 8 11 15 27 15 37 0 16
31 33 75 42 20 4 132 0 193 -6z m-1110 -29 c33 -20 39 -32 22 -43 -5 -3 -10
-17 -10 -29 0 -38 -75 -43 -127 -10 -28 18 -61 66 -48 71 6 2 24 12 40 22 35
23 73 19 123 -11z m311 4 c8 -1 11 -10 8 -22 -3 -11 -1 -22 4 -25 4 -3 8 -21
7 -39 -1 -39 -8 -41 -130 -53 -53 -5 -72 -3 -86 9 -9 9 -23 17 -31 20 -11 3
-5 14 20 39 37 38 111 75 128 65 6 -4 11 -3 11 2 0 8 21 9 69 4z m333 -3 c57
2 58 1 83 -38 27 -44 32 -79 13 -86 -54 -16 -84 -14 -111 9 l-28 24 -85 -29
c-47 -17 -93 -28 -103 -24 -25 7 -29 97 -5 132 16 25 18 26 98 18 44 -4 107
-6 138 -6z m-315 -249 c-1 -65 -6 -110 -12 -111 -13 -1 -39 -6 -103 -19 -47
-10 -55 -9 -81 10 -16 11 -36 20 -45 20 -9 0 -16 6 -16 13 0 7 -9 18 -21 25
-15 10 -19 20 -15 40 4 15 8 36 10 47 15 75 15 75 52 58 38 -19 41 -25 18 -47
-8 -9 -17 -30 -20 -48 -4 -29 -1 -36 28 -54 18 -11 47 -23 64 -27 73 -14 138
109 85 162 -11 11 -21 23 -21 25 0 4 23 9 67 15 9 1 11 -29 10 -109z m1613 85
c0 -17 -14 -40 -39 -66 l-40 -39 5 32 c8 47 -21 63 -70 43 -41 -17 -57 -56
-37 -88 17 -26 4 -33 -52 -29 l-45 4 -4 70 c-3 74 7 92 41 71 10 -7 28 -6 56
3 23 6 61 10 85 9 24 -2 53 1 64 5 32 13 36 12 36 -15z m-1948 6 c-8 -4 -13
-11 -13 -15 3 -24 0 -28 -14 -16 -24 20 -18 40 13 40 18 0 23 -3 14 -9z m532
-3 c-4 -7 -18 -26 -30 -43 -29 -40 -31 -54 -11 -92 18 -34 72 -59 105 -49 10
4 31 20 47 36 25 26 28 37 27 84 l-1 54 41 10 c23 6 45 9 49 7 8 -6 21 -84 24
-151 2 -50 2 -50 -29 -52 -147 -5 -266 -14 -290 -22 -15 -5 -32 -7 -37 -4 -5
3 -9 1 -9 -5 0 -6 -6 -8 -13 -6 -10 5 -14 108 -8 208 1 4 11 7 24 7 12 0 42 7
67 14 25 8 46 15 48 15 2 1 0 -5 -4 -11z m471 1 c29 1 36 -2 25 -9 -8 -5 -25
-10 -37 -10 -12 0 -33 -14 -48 -32 -27 -32 -29 -49 -9 -115 5 -19 0 -23 -36
-34 -46 -14 -62 -4 -54 35 9 47 2 131 -11 145 -3 2 0 10 6 17 7 8 28 11 67 7
31 -2 75 -4 97 -4z m158 -8 c22 -9 25 -16 30 -93 3 -45 4 -84 3 -86 -2 -1 -15
3 -29 9 -22 10 -33 8 -69 -9 -48 -22 -72 -19 -36 6 42 29 48 44 42 102 -3 30
-10 61 -16 68 -8 9 -3 12 20 12 17 0 42 -4 55 -9z m206 -58 c-23 -44 -23 -59
-5 -95 l15 -28 -58 2 c-52 1 -59 4 -59 22 0 12 -3 47 -6 79 l-6 57 69 0 69 0
-19 -37z m232 15 c1 -13 2 -42 4 -66 2 -35 -1 -42 -14 -40 -9 1 -21 0 -26 -4
-6 -3 -27 -9 -48 -13 l-38 -7 21 36 c15 25 20 44 15 64 -5 23 -2 31 17 40 40
19 68 15 69 -10z m154 -148 l27 -10 -48 -49 c-27 -27 -52 -47 -56 -45 -13 8
-9 54 5 55 10 0 10 2 0 6 -14 5 -18 35 -6 46 9 10 48 8 78 -3z m-164 -10 c14
0 19 -7 19 -28 0 -15 -5 -33 -12 -40 -9 -9 -9 -12 1 -12 8 0 11 -10 10 -28 -2
-15 0 -33 4 -39 15 -25 -138 -73 -229 -73 -18 0 -36 5 -39 10 -3 6 -14 10 -24
10 -14 0 -20 14 -30 73 -7 39 -15 77 -16 84 -5 16 37 25 130 28 44 2 94 8 110
13 17 6 36 8 43 6 8 -2 22 -4 33 -4z m-407 -14 c19 7 25 -16 30 -104 4 -71 4
-72 -20 -72 -13 0 -50 7 -82 15 -31 8 -100 17 -153 21 -62 3 -96 10 -97 17 0
7 -4 30 -7 52 l-7 40 43 11 c24 7 71 10 104 7 40 -3 72 0 95 10 23 10 42 12
57 6 13 -5 29 -6 37 -3z m-422 -20 c24 -7 27 -12 21 -34 -8 -32 -8 -42 2 -64
9 -23 -21 -34 -110 -41 -39 -3 -92 -10 -120 -16 -85 -18 -170 -3 -179 32 -2
12 -2 38 2 57 7 32 11 35 72 52 42 11 86 15 125 12 33 -3 74 -1 90 4 34 10 58
10 97 -2z m-436 -13 c-3 -10 -8 -35 -12 -55 -3 -21 -8 -38 -10 -38 -11 0 -129
69 -131 77 -4 10 72 29 125 32 27 1 32 -2 28 -16z"/>
</g>
</svg>
