<?xml version="1.0" standalone="no"?>
<!DOCTYPE svg PUBLIC "-//W3C//DTD SVG 20010904//EN"
 "http://www.w3.org/TR/2001/REC-SVG-20010904/DTD/svg10.dtd">
<svg version="1.0" xmlns="http://www.w3.org/2000/svg"
 width="519.000000pt" height="475.000000pt" viewBox="0 0 519.000000 475.000000"
 preserveAspectRatio="xMidYMid meet">
<metadata>
Created by potrace 1.16, written by Peter Selinger 2001-2019
</metadata>
<g transform="translate(0.000000,475.000000) scale(0.100000,-0.100000)"
fill="#000000" stroke="none">
<path d="M1459 4465 c-3 -2 -68 -9 -144 -16 -77 -6 -158 -12 -180 -14 -129
-11 -307 -17 -375 -14 -23 1 -389 -11 -398 -13 -4 -1 -29 1 -55 6 -37 6 -54 4
-73 -9 -28 -18 -30 -32 -7 -57 15 -17 15 -18 -2 -18 -12 0 -16 -6 -12 -20 3
-13 0 -20 -9 -20 -11 0 -14 -18 -15 -77 -3 -436 -9 -1970 -7 -2043 7 -289 -1
-715 -15 -737 -5 -7 -4 -13 1 -13 9 0 9 -69 -2 -465 -3 -104 -8 -307 -11 -450
-3 -143 -7 -274 -10 -292 -7 -37 18 -103 38 -103 8 0 28 5 46 11 29 10 36 23
33 59 -4 33 -2 562 3 1010 3 261 8 660 10 885 15 1467 26 2152 35 2185 5 16 6
38 3 50 -5 20 -1 20 158 21 446 2 754 14 894 35 17 2 100 4 185 3 225 -2 230
-2 230 -8 8 -175 11 -564 7 -1126 -2 -247 0 -467 4 -487 3 -21 2 -38 -2 -38
-10 0 -5 -122 6 -140 9 -15 13 -270 4 -264 -4 2 -9 -5 -12 -16 -3 -11 -1 -18
4 -14 5 3 8 -53 8 -133 -1 -76 2 -155 6 -177 6 -28 4 -41 -6 -47 -11 -7 -11
-9 -1 -9 16 0 13 -61 -3 -72 -6 -5 -6 -8 2 -8 9 0 11 -21 6 -82 -3 -46 -5 -92
-4 -103 3 -27 3 -29 -2 -125 -2 -47 -1 -113 3 -146 4 -34 4 -130 -1 -213 -4
-83 -9 -287 -10 -454 -2 -166 -5 -341 -8 -388 -4 -48 -5 -93 -3 -102 3 -17 39
-30 47 -16 3 4 11 6 18 4 32 -12 42 13 44 117 2 86 9 2161 14 3603 0 220 5
418 10 440 6 25 7 50 1 65 -9 25 -10 25 -143 26 -74 1 -173 5 -220 8 -47 3
-88 4 -90 1z m-1179 -139 c0 -11 -19 -15 -25 -6 -3 5 1 10 9 10 9 0 16 -2 16
-4z m1557 -1998 c-3 -8 -6 -5 -6 6 -1 11 2 17 5 13 3 -3 4 -12 1 -19z m0 -820
c-3 -8 -6 -5 -6 6 -1 11 2 17 5 13 3 -3 4 -12 1 -19z"/>
<path d="M4305 4404 c-38 -19 -101 -44 -140 -55 -168 -49 -283 -100 -327 -144
-15 -15 -32 -24 -38 -20 -5 3 -10 2 -10 -3 0 -5 -25 -37 -55 -71 -30 -34 -55
-68 -55 -76 0 -8 -4 -15 -8 -15 -9 0 -52 -97 -52 -117 0 -6 -7 -18 -14 -26
-13 -13 -72 -169 -111 -297 -32 -101 -70 -225 -70 -230 -1 -3 -9 -30 -19 -60
-28 -84 -56 -140 -72 -140 -8 0 -24 -12 -37 -26 -12 -14 -40 -45 -62 -69 -82
-87 -192 -225 -179 -225 4 0 0 -8 -8 -17 -27 -31 -48 -81 -53 -125 -3 -24 -10
-65 -16 -92 -15 -65 -5 -185 21 -238 11 -23 20 -45 20 -48 0 -4 -16 -24 -35
-46 -19 -21 -35 -43 -35 -47 0 -5 -13 -20 -30 -34 -16 -13 -30 -30 -30 -37 0
-7 -9 -21 -20 -31 -11 -10 -20 -24 -20 -31 0 -7 -3 -14 -7 -16 -17 -7 -63 -78
-63 -97 0 -11 -6 -26 -13 -32 -10 -9 -11 -34 -4 -107 7 -81 12 -101 37 -138
17 -23 30 -48 30 -55 0 -7 22 -33 49 -59 27 -26 66 -73 87 -106 39 -61 145
-207 173 -236 9 -9 36 -40 61 -68 25 -28 56 -63 70 -78 14 -14 31 -37 37 -50
7 -13 30 -45 51 -71 38 -45 49 -63 91 -151 12 -25 32 -63 46 -85 13 -22 27
-47 31 -55 30 -68 119 -236 175 -331 38 -64 69 -122 69 -128 0 -6 8 -11 19
-11 21 0 69 41 65 55 -1 6 -5 22 -8 38 -4 15 -13 27 -21 27 -8 0 -20 10 -26
22 -6 12 -19 30 -28 39 -9 10 -28 42 -42 71 -61 126 -202 401 -209 408 -3 3
-16 28 -30 55 -29 60 -48 88 -117 177 -29 37 -53 71 -53 75 0 4 -21 28 -47 53
-25 25 -72 81 -104 125 -31 44 -66 89 -77 100 -11 11 -34 47 -52 80 -17 33
-53 81 -79 106 -63 62 -104 140 -106 204 -2 51 15 107 41 132 8 8 14 20 14 28
0 7 7 15 15 19 8 3 15 12 15 20 0 8 8 17 18 21 11 3 24 17 30 30 6 14 16 25
22 25 6 0 9 4 6 8 -7 11 95 118 108 113 6 -2 18 -5 26 -6 8 -1 29 -4 45 -8 17
-3 46 -9 66 -11 20 -3 48 -10 62 -15 15 -6 48 -13 74 -16 27 -4 73 -13 103
-21 189 -52 241 -65 295 -74 66 -12 125 -29 125 -36 0 -3 -12 -26 -27 -52 -16
-26 -28 -49 -28 -52 -1 -11 -40 -70 -46 -70 -10 0 -29 -59 -29 -89 0 -40 73
-237 119 -321 22 -42 47 -96 56 -120 15 -45 45 -110 55 -120 3 -3 6 -15 8 -28
5 -31 29 -89 42 -97 10 -6 90 -170 90 -185 0 -25 97 -230 251 -530 16 -30 29
-61 29 -68 0 -7 4 -11 8 -8 4 2 9 -4 9 -15 2 -25 19 -46 43 -54 25 -8 60 23
60 53 0 22 -75 157 -109 196 -9 10 -14 20 -12 23 2 2 -47 105 -108 228 -61
123 -111 228 -111 233 0 9 -96 217 -125 273 -8 14 -21 48 -30 75 -18 55 -18
55 -71 174 -21 47 -43 92 -50 100 -6 8 -16 33 -22 55 -6 22 -17 64 -25 92 -15
52 -15 54 9 89 14 20 44 74 66 120 31 62 48 86 65 90 13 4 23 12 23 20 0 8 4
14 10 14 9 0 17 13 62 100 29 56 38 58 74 15 19 -21 34 -43 34 -49 0 -6 6 -22
13 -36 8 -14 37 -69 65 -123 29 -54 74 -133 101 -175 27 -43 62 -102 78 -132
16 -30 41 -73 56 -96 14 -23 30 -59 36 -81 6 -21 27 -72 46 -111 19 -40 35
-75 35 -78 0 -3 -15 -24 -34 -47 -33 -41 -58 -82 -62 -102 -1 -5 -5 -23 -8
-40 -3 -16 -10 -43 -14 -60 -5 -16 -7 -57 -5 -90 11 -187 101 -278 273 -274
61 2 72 5 144 47 65 37 85 66 98 143 9 53 8 77 -5 139 -28 123 -74 224 -134
290 -58 63 -99 84 -160 78 l-38 -3 -41 111 c-23 62 -50 125 -61 140 -11 16
-37 63 -58 104 -21 41 -51 91 -67 110 -38 47 -40 49 -61 95 -21 45 -30 62
-100 195 -28 52 -66 116 -85 143 -39 54 -39 33 3 197 10 38 18 112 19 177 l2
113 42 47 c23 26 42 52 42 56 0 15 63 137 71 137 12 0 16 -63 12 -196 -3 -109
-2 -133 11 -144 20 -16 20 -46 1 -166 -19 -113 -13 -151 22 -165 44 -16 59 2
68 83 12 100 6 424 -10 593 -2 22 -6 69 -9 105 -13 139 -16 149 -44 168 -25
18 -28 18 -44 2 -10 -9 -18 -23 -18 -31 0 -22 -44 -143 -66 -180 -11 -19 -32
-60 -47 -91 -41 -87 -97 -135 -152 -130 -44 3 -207 64 -320 118 -60 29 -137
58 -170 65 -33 6 -79 20 -102 30 -24 11 -47 19 -53 19 -5 0 -10 5 -10 10 0 6
-7 10 -15 10 -26 0 -37 37 -21 73 20 46 41 109 70 217 51 189 60 216 130 380
13 30 32 75 42 100 10 25 21 47 24 50 3 3 14 22 24 43 11 21 50 67 87 102 67
63 116 91 214 122 28 9 55 19 60 23 6 4 36 15 68 24 53 17 145 56 207 89 14 8
24 19 23 25 -2 7 4 12 12 12 15 0 21 35 8 43 -31 17 -64 12 -128 -19z m-850
-1389 c39 -20 106 -45 150 -56 85 -21 232 -76 241 -91 6 -10 59 -33 134 -58
30 -10 75 -26 100 -36 25 -9 59 -16 76 -15 l32 1 -4 -101 c-2 -56 -9 -120 -15
-143 -6 -22 -13 -48 -15 -56 -10 -45 -54 -155 -63 -158 -6 -2 -11 -8 -11 -14
0 -6 -16 -37 -36 -70 l-36 -59 -42 6 c-41 5 -153 23 -191 30 -11 2 -47 10 -80
19 -32 9 -69 16 -82 16 -12 0 -24 4 -27 9 -5 7 -109 35 -176 47 -24 4 -103 26
-130 37 -8 3 -41 8 -74 11 -93 10 -127 43 -147 141 -7 38 0 91 31 206 10 36
126 219 139 219 4 0 27 27 50 59 25 34 54 62 67 65 13 4 24 11 24 16 0 15 10
12 85 -25z m1399 -1770 c62 -59 119 -193 119 -281 0 -55 -36 -142 -63 -152 -8
-3 -18 -10 -22 -16 -4 -6 -12 -5 -21 3 -9 7 -18 8 -21 2 -3 -5 -16 -7 -29 -4
-67 13 -107 27 -107 34 0 5 -6 9 -13 9 -7 0 -22 15 -32 33 -17 27 -20 50 -19
137 0 118 10 145 79 224 48 54 81 57 129 11z"/>
<path d="M2260 4247 c-12 -10 -15 -41 -13 -172 3 -267 2 -916 -2 -1565 -7
-960 -6 -928 -15 -891 -12 51 -46 61 -77 24 -10 -12 -13 -12 -20 2 -8 14 -11
15 -22 1 -14 -16 -14 -17 55 -302 19 -78 34 -151 34 -163 0 -11 10 -53 22 -92
18 -55 28 -73 47 -80 15 -6 28 -6 36 1 6 5 15 7 18 3 4 -3 14 9 22 28 9 19 23
45 30 59 8 14 15 34 15 45 0 11 7 45 16 75 8 30 22 82 29 115 19 82 41 164 55
201 6 18 10 52 8 75 -3 44 -3 44 -47 50 -54 7 -81 -14 -82 -63 -1 -31 -1 -31
-8 -8 -4 14 -7 320 -6 680 4 1142 4 1924 1 1947 -1 13 -4 24 -7 26 -12 11 -76
14 -89 4z"/>
<path d="M1311 3915 c-33 -36 -40 -49 -35 -69 3 -14 14 -28 24 -31 11 -3 17
-11 15 -18 -2 -7 -6 -53 -9 -104 -6 -87 -5 -93 15 -104 29 -15 39 2 39 69 0
62 -1 54 11 94 24 78 37 154 28 170 -22 41 -44 40 -88 -7z"/>
<path d="M972 3934 c-19 -13 -22 -23 -19 -70 2 -31 -1 -58 -7 -63 -6 -5 -32
-12 -58 -14 -26 -3 -52 -8 -58 -12 -12 -7 -14 -54 -2 -56 4 -1 34 -2 67 -3
l59 -2 1 -245 c0 -134 -1 -252 -3 -261 -3 -14 -15 -18 -48 -18 -42 0 -44 -1
-44 -30 0 -33 29 -55 61 -47 10 3 22 1 25 -5 3 -5 6 -89 5 -186 0 -97 -1 -201
-1 -229 0 -49 -2 -53 -22 -49 -29 4 -68 -21 -68 -43 0 -9 9 -24 20 -34 11 -9
20 -12 20 -7 0 13 37 13 45 0 5 -8 8 -265 5 -396 0 -7 -11 -15 -25 -18 -32 -8
-46 -54 -21 -72 10 -7 24 -10 32 -7 16 6 15 13 16 -231 0 -144 -2 -161 -19
-173 -66 -48 -69 -73 -9 -88 l39 -9 -7 -96 c-4 -52 -7 -132 -7 -177 1 -91 -8
-104 -64 -100 -17 1 -32 -5 -41 -18 -21 -31 -3 -47 55 -48 l51 0 0 -249 0
-249 -28 2 c-15 2 -38 -4 -51 -13 -19 -14 -21 -19 -12 -37 12 -21 25 -25 68
-22 21 2 21 1 17 -140 -2 -79 -2 -151 2 -161 8 -25 42 -42 58 -29 7 6 15 9 18
6 3 -3 13 4 24 16 16 18 19 38 21 143 0 66 2 131 2 143 1 17 8 22 33 25 25 2
33 9 39 31 6 22 3 29 -14 39 -12 7 -32 11 -44 9 l-23 -2 3 245 2 245 47 -1
c78 -2 105 42 47 76 -23 13 -34 15 -42 7 -6 -6 -22 -11 -35 -11 -18 0 -22 4
-17 19 5 17 7 124 4 251 -3 109 -3 110 35 110 41 0 59 19 50 54 -5 23 -10 25
-48 20 l-41 -4 3 202 c2 111 5 205 8 208 3 3 22 10 42 15 64 18 49 79 -18 77
-27 -1 -30 3 -31 31 -1 18 0 37 1 42 1 6 1 83 1 171 l-1 162 24 6 c13 3 38 3
54 0 37 -8 73 23 65 55 -5 19 -13 21 -74 21 l-68 0 5 128 c3 70 6 172 6 228 0
55 4 107 9 115 5 8 9 9 9 3 0 -11 82 -10 100 1 6 3 10 19 10 35 0 34 -25 45
-79 37 -50 -8 -48 -18 -55 303 l-5 226 42 -1 c24 -1 49 -5 56 -9 16 -10 56 26
58 53 1 13 -7 21 -23 25 -13 4 -24 11 -24 17 0 6 -9 5 -22 -2 -13 -7 -36 -13
-52 -13 l-30 0 -1 73 c-2 56 -6 76 -18 82 -11 7 -20 3 -31 -13 l-15 -22 -8 22
c-8 21 -10 21 -31 6z"/>
<path d="M1476 3930 c-26 -11 -51 -21 -53 -24 -3 -3 -7 -39 -8 -81 -3 -65 0
-77 17 -89 10 -8 19 -20 18 -27 -7 -46 1 -69 25 -75 25 -6 89 25 98 49 3 8 9
7 18 -5 8 -9 26 -22 41 -27 24 -9 32 -6 69 29 47 44 53 75 24 143 -13 31 -22
38 -60 48 -25 6 -43 14 -41 17 3 2 -4 18 -15 33 -24 35 -59 37 -133 9z m116
-62 c14 1 15 -3 6 -24 -10 -21 -16 -24 -37 -18 -14 4 -36 6 -48 6 -13 -1 -23
4 -23 11 0 17 41 36 65 30 11 -3 28 -5 37 -5z m80 -85 c6 -24 -1 -53 -13 -53
-5 0 -9 16 -9 35 0 36 15 48 22 18z m-152 -44 c0 -5 -9 -9 -20 -9 -22 0 -27
16 -7 23 15 5 27 -1 27 -14z"/>
<path d="M468 3305 c-89 -106 -107 -141 -81 -161 15 -10 22 -10 41 2 20 13 22
13 22 -3 0 -10 -7 -54 -17 -99 -18 -87 -14 -114 15 -114 16 0 23 16 41 93 36
157 52 251 46 275 -6 26 -47 31 -67 7z"/>
<path d="M563 3288 c-4 -7 -6 -21 -5 -31 2 -10 -6 -44 -17 -77 -12 -33 -21
-71 -21 -85 0 -27 38 -59 61 -50 11 4 14 -9 14 -62 0 -63 2 -68 23 -71 20 -3
22 1 22 40 0 24 6 60 13 81 l14 38 37 -36 c21 -19 41 -35 45 -35 5 0 20 9 34
20 24 19 33 47 50 151 8 56 -58 85 -103 44 -20 -18 -21 -18 -41 4 -14 14 -27
20 -40 16 -15 -5 -19 -1 -19 17 0 41 -47 66 -67 36z m59 -123 c-5 -16 -14 -31
-20 -33 -9 -3 -7 8 5 32 19 42 26 42 15 1z"/>
<path d="M1335 2783 c-28 -31 -75 -123 -75 -148 0 -9 9 -19 20 -22 18 -5 20
-14 20 -88 0 -67 3 -84 16 -89 26 -10 31 0 39 76 10 87 9 80 19 143 5 28 14
66 21 86 23 65 -14 91 -60 42z"/>
<path d="M1468 2782 c-9 -4 -26 -20 -39 -36 -27 -35 -16 -62 25 -59 26 2 37
-19 17 -32 -5 -3 -9 -19 -9 -36 1 -17 -3 -34 -9 -37 -20 -14 -33 -72 -20 -93
18 -29 42 -32 92 -10 44 20 45 20 55 0 12 -21 46 -25 82 -9 25 12 68 79 68
107 0 20 -29 102 -43 121 -16 20 -62 14 -87 -13 -32 -34 -47 -31 -55 12 -9 48
-32 93 -48 92 -6 0 -20 -3 -29 -7z m188 -228 c-3 -8 -10 -14 -16 -14 -11 0
-14 73 -3 84 10 9 26 -52 19 -70z m-135 14 c-4 -12 -14 -24 -22 -26 -11 -4
-12 -2 -1 9 6 7 12 21 12 32 0 10 4 16 10 12 5 -3 6 -15 1 -27z m9 -72 c0 -3
-4 -8 -10 -11 -5 -3 -10 -1 -10 4 0 6 5 11 10 11 6 0 10 -2 10 -4z"/>
<path d="M443 2234 c-67 -70 -75 -91 -42 -112 18 -12 24 -11 47 10 23 21 25
21 18 3 -17 -43 -30 -155 -19 -166 18 -18 42 2 48 39 3 21 13 60 21 87 9 28
18 56 20 64 4 11 8 9 20 -7 12 -18 19 -20 34 -12 26 14 30 13 30 -10 0 -10 -6
-23 -14 -27 -22 -13 -78 -101 -81 -129 -4 -41 61 -59 115 -31 30 16 82 15 88
-1 4 -13 51 -16 68 -4 20 13 44 70 44 104 0 45 -20 80 -53 96 -24 12 -31 11
-57 -8 -17 -12 -34 -37 -41 -59 -8 -28 -20 -43 -45 -55 -39 -18 -44 -9 -11 22
65 61 73 84 47 140 -12 25 -30 52 -39 59 -19 15 -60 8 -76 -14 -10 -13 -11
-10 -7 16 5 34 -11 61 -37 60 -9 0 -44 -30 -78 -65z"/>
<path d="M1284 1733 c-74 -82 -82 -96 -64 -118 19 -23 48 -18 66 11 9 14 21
21 25 17 7 -7 -6 -81 -25 -141 -6 -18 -3 -24 16 -31 21 -8 24 -4 40 43 25 73
45 173 47 228 2 37 -2 49 -17 57 -17 9 -29 0 -88 -66z"/>
<path d="M1455 1759 c-46 -41 -66 -79 -54 -102 13 -23 25 -21 55 8 l26 26 -6
-28 c-3 -15 -8 -41 -11 -58 -2 -16 -7 -42 -10 -57 -5 -20 -1 -29 15 -38 15 -8
21 -8 25 2 59 163 66 200 46 241 -21 43 -42 44 -86 6z"/>
<path d="M1577 1678 c-25 -57 -22 -120 6 -146 13 -12 36 -22 51 -22 23 0 30 7
47 46 30 67 35 109 15 139 -14 22 -24 26 -60 24 -39 -2 -44 -6 -59 -41z"/>
<path d="M422 1310 c-9 -17 -36 -57 -59 -88 -24 -31 -43 -60 -43 -64 0 -16 35
-39 52 -35 18 5 19 1 13 -53 -6 -50 -4 -60 12 -68 25 -13 43 -4 43 21 0 24 24
143 40 197 15 53 13 107 -6 114 -27 10 -34 7 -52 -24z"/>
<path d="M543 1255 c-22 -9 -34 -23 -38 -42 -4 -15 -10 -37 -14 -48 -4 -11 -3
-40 4 -65 8 -35 17 -47 38 -54 22 -8 31 -6 51 13 14 13 27 33 29 45 3 16 5 14
6 -7 1 -28 49 -87 70 -87 6 0 25 12 42 28 26 23 31 35 31 72 0 49 -14 94 -33
105 -6 4 -26 11 -44 15 -30 7 -34 5 -39 -16 -8 -32 -21 -30 -23 3 0 15 -9 33
-19 40 -22 16 -21 16 -61 -2z m84 -97 c-3 -8 -6 -5 -6 6 -1 11 2 17 5 13 3 -3
4 -12 1 -19z m70 -55 c-3 -10 -5 -4 -5 12 0 17 2 24 5 18 2 -7 2 -21 0 -30z"/>
<path d="M1270 723 c-40 -28 -52 -42 -65 -80 -14 -42 -11 -63 16 -92 25 -27
67 -27 90 1 l19 21 0 -29 c0 -16 -4 -44 -10 -63 -11 -39 5 -84 32 -89 19 -4
28 20 33 82 2 22 8 63 14 89 10 43 8 55 -13 101 -15 33 -33 56 -50 64 -35 15
-37 15 -66 -5z m24 -85 c-10 -13 -20 -25 -21 -27 -2 -2 -3 1 -3 7 0 11 27 42
37 42 3 0 -2 -10 -13 -22z"/>
<path d="M1476 641 c-4 -6 -15 -11 -26 -11 -23 0 -30 -19 -30 -86 0 -59 11
-88 43 -116 41 -37 88 -12 117 60 14 35 9 127 -7 143 -16 16 -89 23 -97 10z
m60 -94 c-2 -12 -8 -33 -15 -46 -10 -19 -15 -21 -22 -10 -13 21 -11 77 4 82
21 7 35 -4 33 -26z"/>
</g>
</svg>
