<?xml version="1.0" standalone="no"?>
<!DOCTYPE svg PUBLIC "-//W3C//DTD SVG 20010904//EN"
 "http://www.w3.org/TR/2001/REC-SVG-20010904/DTD/svg10.dtd">
<svg version="1.0" xmlns="http://www.w3.org/2000/svg"
 width="449.000000pt" height="457.000000pt" viewBox="0 0 449.000000 457.000000"
 preserveAspectRatio="xMidYMid meet">
<metadata>
Created by potrace 1.16, written by Peter Selinger 2001-2019
</metadata>
<g transform="translate(0.000000,457.000000) scale(0.100000,-0.100000)"
fill="#000000" stroke="none">
<path d="M4209 4468 c-13 -5 -26 -13 -29 -17 -8 -13 -243 -181 -253 -181 -5 0
-28 -20 -52 -44 -23 -24 -60 -55 -81 -69 -22 -14 -55 -40 -75 -59 -20 -18 -49
-40 -65 -48 -39 -20 -128 -73 -134 -79 -17 -20 -101 -70 -132 -80 -20 -7 -42
-19 -49 -28 -13 -15 -114 -83 -124 -83 -3 0 1 14 10 30 9 18 11 30 5 30 -7 0
-8 6 -2 18 16 33 9 57 -20 60 -34 4 -71 -33 -97 -94 -7 -18 -20 -40 -30 -51
-10 -10 -39 -50 -64 -88 -49 -75 -102 -135 -118 -135 -15 0 -10 -67 7 -84 19
-20 29 -20 101 0 32 8 78 19 103 24 82 15 105 21 120 27 8 3 40 7 70 8 30 1
56 7 58 14 2 6 7 11 12 11 5 0 21 5 37 12 15 6 35 12 43 12 19 1 29 44 18 77
-6 18 -19 28 -44 35 -39 10 -46 26 -15 34 11 3 31 15 45 28 15 12 28 22 31 22
5 0 85 54 282 189 39 27 74 47 77 44 3 -4 6 0 6 8 1 8 25 30 55 49 30 19 55
38 55 43 0 12 19 30 65 60 22 14 56 39 75 56 43 37 46 40 92 71 21 14 38 30
38 37 0 7 10 21 22 33 17 16 19 23 10 32 -16 16 -15 28 2 28 8 0 14 8 13 18
-1 25 -38 41 -68 30z"/>
<path d="M2520 4314 c-14 -9 -47 -43 -75 -76 -27 -32 -55 -64 -61 -72 -7 -7
-22 -32 -34 -57 -20 -39 -29 -74 -46 -174 -3 -16 -9 -46 -14 -65 -9 -35 -24
-129 -35 -225 -3 -27 -12 -102 -20 -165 -7 -63 -14 -142 -14 -174 0 -33 -3
-79 -7 -102 -3 -23 -7 -73 -9 -111 -1 -37 -8 -90 -14 -116 -6 -26 -9 -60 -6
-75 2 -14 -2 -49 -10 -76 -8 -27 -15 -65 -15 -84 0 -41 -18 -39 -40 4 -16 32
-18 191 -5 519 4 94 6 195 5 225 0 30 4 88 10 128 18 117 15 397 -5 457 -28
88 -80 170 -127 203 -21 15 -82 25 -151 25 -49 0 -127 -28 -127 -46 0 -6 -12
-28 -27 -49 -52 -77 -84 -280 -77 -488 4 -105 2 -174 -10 -250 -11 -76 -14
-147 -10 -259 5 -159 -7 -285 -31 -331 -12 -21 -14 14 -14 246 0 149 -3 278
-6 285 -6 16 -9 49 -20 219 -12 195 -44 370 -66 370 -5 0 -24 30 -43 68 -40
80 -80 116 -153 137 -52 15 -54 15 -100 -10 -26 -14 -53 -25 -59 -25 -19 0
-34 -25 -66 -112 l-31 -83 -10 -395 c-5 -217 -10 -415 -9 -440 0 -25 3 -118 6
-208 3 -89 3 -169 0 -177 -13 -33 -21 -1 -23 87 -1 51 -4 116 -6 143 -2 28 -7
86 -10 130 -3 44 -10 107 -15 140 -5 33 -11 92 -14 131 -6 76 -30 184 -51 224
-17 33 -52 62 -95 80 -19 7 -37 17 -40 21 -14 20 -120 9 -120 -12 0 -5 -7 -9
-15 -9 -8 0 -15 -4 -15 -9 0 -6 -16 -27 -35 -48 -19 -21 -35 -45 -35 -55 0 -9
-3 -18 -7 -20 -5 -1 -20 -21 -35 -43 -24 -35 -28 -53 -33 -150 -4 -60 -12
-168 -18 -238 -7 -77 -9 -175 -5 -245 4 -64 9 -172 12 -240 3 -67 7 -126 10
-130 2 -4 7 -56 11 -117 4 -60 9 -113 12 -117 2 -4 4 -40 4 -80 0 -40 5 -102
10 -138 6 -36 12 -81 15 -100 2 -19 6 -48 9 -65 3 -16 7 -97 10 -180 5 -126 8
-152 24 -170 10 -11 21 -28 24 -37 4 -10 10 -18 15 -18 5 0 24 -28 42 -62 19
-35 40 -70 48 -78 35 -35 56 -104 58 -190 2 -80 -13 -203 -27 -225 -4 -5 -10
-30 -14 -55 -11 -65 -12 -71 -23 -115 -15 -57 -21 -96 -33 -209 -5 -54 -14
-107 -20 -117 -5 -11 -7 -34 -4 -52 5 -26 15 -37 52 -55 59 -29 93 -13 84 41
-10 61 -9 131 4 150 8 13 15 52 16 95 2 80 12 153 43 312 8 41 12 79 9 83 -3
4 0 13 5 20 5 7 12 42 15 79 7 77 -16 184 -50 234 -11 16 -33 49 -49 74 -15
25 -36 53 -45 62 -31 31 -80 209 -84 305 -1 48 -6 104 -9 123 -11 67 -16 116
-21 215 -4 55 -11 152 -17 215 -5 63 -12 165 -14 225 -2 61 -8 164 -15 230
-12 134 -6 348 16 554 6 60 52 161 73 161 6 0 12 8 12 18 0 18 35 55 61 64 9
4 35 -3 58 -14 35 -17 43 -27 56 -70 18 -62 24 -97 30 -173 2 -33 6 -69 8 -80
15 -67 21 -127 32 -341 13 -247 15 -251 77 -286 50 -28 98 -22 98 13 0 10 3
19 8 19 21 0 32 64 31 176 -6 497 4 1066 19 1115 6 19 16 52 22 74 16 55 67
78 136 59 23 -6 93 -107 125 -178 19 -43 24 -72 34 -211 10 -136 15 -180 21
-205 3 -14 8 -144 10 -290 7 -509 4 -494 88 -515 55 -14 78 -11 69 11 -3 8 1
14 10 14 11 0 18 16 23 58 4 31 6 58 5 60 -1 1 5 15 12 30 8 15 15 54 16 86 1
33 5 75 10 95 4 20 6 45 4 56 -7 36 -4 375 3 387 4 7 8 113 9 237 1 185 4 237
19 286 10 33 21 74 25 90 19 75 73 112 147 101 85 -11 132 -64 151 -167 9 -50
6 -320 -5 -454 -4 -49 -7 -268 -7 -485 l0 -395 30 -39 c39 -51 102 -81 130
-62 11 8 20 25 20 39 l-1 25 32 -28 c18 -15 47 -31 66 -35 18 -4 38 -11 43
-15 6 -4 38 -10 71 -12 53 -4 66 -9 94 -36 17 -18 38 -32 47 -32 8 0 29 -10
46 -22 32 -23 35 -24 61 -27 10 -1 13 -10 8 -33 -3 -18 -6 -116 -6 -218 -1
-177 0 -187 22 -223 35 -55 67 -68 155 -63 122 8 139 26 246 256 12 25 37 63
56 85 19 22 35 44 35 49 0 5 6 17 14 25 8 9 33 52 56 96 89 168 155 245 240
279 8 4 29 15 45 25 37 24 78 26 95 5 18 -20 14 -162 -5 -217 -8 -23 -15 -48
-15 -56 0 -8 -25 -73 -57 -145 -31 -72 -66 -162 -79 -201 -12 -38 -32 -94 -43
-124 -11 -30 -30 -91 -41 -135 -21 -82 -186 -431 -222 -470 -10 -11 -18 -23
-18 -27 0 -10 -88 -116 -124 -150 -52 -48 -107 -88 -129 -94 -12 -3 -38 -12
-57 -20 -39 -15 -44 -17 -153 -55 -74 -27 -217 -113 -217 -131 0 -5 -18 -28
-40 -51 -22 -24 -40 -46 -40 -49 0 -4 -13 -21 -29 -38 -17 -18 -33 -42 -36
-54 -4 -12 -18 -58 -32 -102 -34 -109 -35 -115 -61 -270 -6 -33 -13 -67 -16
-75 -7 -16 -16 -81 -17 -114 0 -25 30 -56 55 -56 30 1 82 88 67 112 -14 23 29
276 61 358 42 107 70 158 101 187 15 15 27 31 27 35 0 5 12 20 28 34 27 25
151 108 161 110 3 0 24 8 45 17 22 10 51 20 65 24 14 3 50 16 79 29 28 13 52
21 52 18 0 -7 50 27 84 59 56 52 63 57 72 57 16 0 113 130 154 208 157 293
213 416 226 488 5 34 33 122 45 146 5 10 9 27 9 38 0 11 4 20 9 20 4 0 11 16
14 35 3 20 17 59 30 88 41 88 67 146 67 153 0 3 6 20 14 37 8 18 23 61 34 97
59 188 55 304 -12 369 -39 38 -70 43 -128 24 -21 -7 -38 -10 -38 -8 0 6 -143
-76 -158 -91 -7 -8 -21 -19 -31 -26 -10 -7 -37 -47 -61 -88 -23 -41 -49 -82
-56 -90 -7 -8 -19 -26 -26 -40 -43 -79 -81 -141 -101 -162 -12 -14 -33 -46
-47 -73 -14 -26 -31 -49 -37 -52 -7 -3 -13 -12 -13 -21 0 -9 -8 -25 -18 -36
-10 -12 -24 -40 -30 -62 -13 -46 -42 -71 -88 -75 -48 -4 -73 9 -83 46 -13 47
-9 268 5 286 7 8 8 22 3 34 -12 31 -10 43 9 63 24 26 42 59 42 77 0 8 4 15 8
15 5 0 10 25 11 55 1 30 5 74 9 97 4 24 5 61 2 83 -3 22 -2 101 1 175 3 74 3
171 0 215 -7 92 -6 530 1 715 3 69 1 139 -4 155 -5 17 -10 41 -12 55 -12 79
-30 116 -80 163 -61 58 -73 64 -162 72 -55 4 -74 2 -94 -11z m109 -69 c37 6
41 4 95 -48 31 -31 56 -59 57 -64 0 -4 2 -25 4 -45 1 -20 6 -41 10 -47 3 -7 2
-10 -3 -9 -6 2 -22 -10 -36 -27 -14 -16 -26 -24 -26 -17 0 8 -7 11 -17 8 -20
-6 -54 19 -71 50 -6 12 -41 36 -77 55 -103 53 -105 58 -50 114 37 37 49 44 60
35 9 -8 29 -9 54 -5z m-170 -166 c16 -12 34 -18 40 -15 6 4 11 3 11 -1 0 -10
50 -41 65 -41 5 0 17 -11 25 -25 8 -15 27 -36 43 -48 l27 -21 -43 -43 c-24
-23 -62 -54 -84 -68 -23 -15 -44 -30 -47 -36 -5 -8 -79 22 -96 39 -3 3 -16 6
-29 8 -14 1 -26 4 -28 6 -3 2 3 28 11 57 9 30 18 72 22 94 3 22 12 50 20 62 8
12 14 29 14 38 0 21 16 19 49 -6z m346 -262 c-3 -73 -10 -148 -15 -168 -11
-40 -38 -69 -60 -66 -21 3 -65 35 -110 78 -20 20 -51 40 -69 44 -17 3 -31 11
-31 17 0 6 2 9 5 6 3 -3 18 6 34 21 49 46 189 161 204 167 8 3 17 15 20 26 3
11 10 17 16 13 8 -4 10 -49 6 -138z m-440 -67 c4 -6 10 -8 15 -5 11 7 55 -19
95 -57 16 -16 43 -32 59 -36 19 -5 35 -19 45 -40 9 -17 21 -32 27 -32 29 0 83
-70 55 -70 -5 0 -26 -16 -45 -35 -20 -19 -40 -35 -45 -35 -5 0 -12 -7 -15 -15
-4 -12 -14 -14 -40 -10 -30 6 -34 4 -40 -20 l-7 -26 -28 21 c-16 11 -33 20
-39 20 -5 0 -12 9 -15 21 -9 33 -51 22 -54 -15 -2 -24 22 -79 30 -67 5 9 76
-29 93 -50 10 -13 31 -32 46 -41 15 -10 42 -49 63 -93 20 -41 43 -75 51 -75 8
0 14 -9 14 -20 0 -12 7 -20 18 -21 13 0 14 -2 2 -6 -8 -3 -41 -19 -74 -34 -32
-16 -67 -29 -77 -29 -10 0 -19 -4 -19 -10 0 -5 -4 -10 -9 -10 -10 0 -141 106
-157 128 -6 8 -18 13 -27 9 -19 -7 -28 40 -16 92 4 20 10 81 13 136 13 240 41
435 63 435 6 0 15 -5 18 -10z m437 -387 c1 -178 -4 -211 -29 -226 -8 -5 -19
-21 -24 -35 -10 -25 -12 -26 -23 -10 -7 10 -16 15 -19 11 -4 -3 -18 6 -31 20
-14 15 -30 27 -35 27 -5 0 -22 27 -37 60 -17 39 -41 72 -66 91 -38 31 -43 51
-10 43 9 -3 28 3 41 13 45 35 146 125 149 134 2 5 8 9 13 9 6 0 22 11 36 25
15 13 29 23 31 20 2 -2 4 -84 4 -182z m13 -350 c-5 -32 -7 -121 -6 -198 0 -77
-2 -153 -7 -168 l-8 -29 -31 44 c-17 24 -52 64 -78 88 -25 25 -68 72 -94 106
l-49 60 57 31 c34 18 68 29 88 28 26 -1 39 7 75 46 23 27 47 48 52 49 4 0 5
-26 1 -57z m-509 -18 c16 -14 32 -25 35 -25 12 0 61 -48 73 -71 9 -19 19 -23
42 -21 26 2 37 -5 75 -49 24 -28 76 -84 115 -124 39 -40 80 -93 92 -119 12
-25 28 -46 34 -46 8 0 6 -6 -4 -16 -14 -15 -23 -15 -65 -5 -26 7 -62 21 -79
32 -17 10 -37 19 -43 19 -7 0 -25 10 -42 22 -19 14 -51 24 -92 29 -34 3 -82
15 -107 27 -50 23 -102 82 -102 115 1 62 12 215 17 235 7 28 15 28 51 -3z"/>
</g>
</svg>
