<?xml version="1.0" standalone="no"?>
<!DOCTYPE svg PUBLIC "-//W3C//DTD SVG 20010904//EN"
 "http://www.w3.org/TR/2001/REC-SVG-20010904/DTD/svg10.dtd">
<svg version="1.0" xmlns="http://www.w3.org/2000/svg"
 width="337.000000pt" height="447.000000pt" viewBox="0 0 337.000000 447.000000"
 preserveAspectRatio="xMidYMid meet">
<metadata>
Created by potrace 1.16, written by Peter Selinger 2001-2019
</metadata>
<g transform="translate(0.000000,447.000000) scale(0.100000,-0.100000)"
fill="#000000" stroke="none">
<path d="M2883 4395 c-20 -14 -21 -21 -15 -121 5 -102 1 -136 -33 -324 -8 -47
-16 -91 -17 -97 -2 -17 -3 -17 -76 8 -34 11 -62 25 -62 31 0 5 -4 7 -9 3 -6
-3 -36 3 -68 14 -32 10 -79 22 -105 25 -55 8 -63 17 -64 69 -1 21 -4 59 -8 85
-3 26 -9 74 -12 107 -8 90 -18 96 -174 96 -238 1 -302 -20 -295 -94 2 -20 6
-41 10 -47 3 -5 1 -10 -5 -10 -6 0 -11 -10 -10 -22 1 -13 2 -42 1 -65 l-1 -42
-47 6 c-70 9 -110 8 -188 -6 -38 -7 -90 -15 -114 -18 -43 -6 -44 -5 -37 18 5
13 10 38 13 54 3 17 10 36 16 43 5 7 8 15 5 18 -3 2 1 33 8 67 20 92 18 119
-11 140 -30 21 -33 17 -40 -63 -10 -116 -20 -170 -40 -215 -18 -41 -45 -139
-45 -163 0 -11 -7 -33 -15 -49 -29 -57 -53 -119 -60 -153 -4 -19 -14 -47 -21
-62 -13 -25 -26 -112 -25 -170 0 -38 40 -197 55 -222 7 -11 19 -42 26 -69 7
-26 17 -50 21 -53 5 -3 9 -20 9 -37 0 -18 7 -52 16 -77 22 -62 66 -264 109
-500 13 -69 30 -156 38 -195 43 -199 56 -263 61 -295 14 -99 35 -217 40 -230
7 -20 17 -94 42 -295 20 -169 8 -372 -29 -489 -21 -67 -32 -81 -123 -166 -12
-11 -24 -20 -29 -20 -4 0 -15 -10 -25 -23 -22 -27 -86 -60 -150 -78 -60 -16
-133 -41 -145 -50 -5 -4 -22 -7 -38 -7 -15 0 -44 -11 -65 -26 -21 -14 -74 -41
-118 -60 -43 -18 -96 -41 -117 -50 -46 -20 -167 -15 -203 9 -13 8 -57 20 -97
27 -73 11 -74 11 -137 -21 -92 -47 -111 -65 -131 -124 -23 -71 -21 -85 30
-145 64 -76 103 -96 246 -128 56 -13 211 -20 267 -12 35 5 74 9 88 9 14 1 45
5 70 10 25 4 72 10 105 13 33 2 96 14 140 26 81 21 211 28 243 12 15 -8 88
-27 292 -77 101 -25 102 -25 155 -30 239 -21 388 -12 450 29 14 9 30 14 35 11
5 -3 11 -1 15 5 3 5 14 10 25 10 10 0 20 6 23 13 2 7 24 22 48 34 42 22 162
123 145 123 -5 0 -4 6 1 13 19 23 65 182 65 222 -1 69 -42 205 -62 205 -4 0
-13 19 -18 43 -15 56 -15 734 0 859 5 51 10 104 9 118 -2 33 17 143 36 205 26
84 44 157 53 210 4 28 11 61 14 75 4 14 9 50 12 80 2 30 9 90 15 133 15 98 4
321 -18 397 -8 30 -24 80 -34 111 -11 30 -19 61 -19 68 0 6 -8 24 -18 39 -61
89 -73 114 -83 170 l-11 62 49 98 c28 53 58 113 68 132 30 58 33 66 59 147 23
73 42 151 50 200 2 11 7 31 11 43 4 12 8 47 10 78 1 31 6 71 9 87 4 17 9 84
10 150 2 99 0 122 -14 137 -14 16 -18 16 -37 3z m-786 -459 c33 -9 69 -13 77
-10 10 4 25 -1 36 -11 14 -13 35 -17 76 -16 46 1 55 -2 50 -14 -3 -8 0 -18 6
-21 21 -13 73 -11 83 2 8 12 21 12 80 -1 68 -14 129 -34 150 -46 6 -4 25 -10
44 -14 19 -4 41 -14 49 -21 7 -8 20 -14 28 -14 20 0 18 -8 -16 -93 -16 -42
-30 -80 -30 -86 0 -6 -4 -11 -9 -11 -12 0 -41 -57 -41 -81 0 -30 -14 -29 -86
6 -57 28 -93 39 -194 60 -3 0 -21 6 -40 13 -19 6 -60 13 -90 15 -87 7 -190 28
-190 39 0 7 -15 8 -39 4 -28 -4 -42 -2 -51 9 -14 17 -40 20 -40 4 0 -5 -4 -8
-9 -5 -5 4 -11 1 -13 -5 -2 -7 -19 -8 -53 -2 -46 8 -78 6 -205 -11 -25 -3 -65
-8 -90 -11 -25 -2 -65 -11 -90 -18 -46 -14 -97 -8 -71 7 7 5 10 14 7 22 -3 8
-1 14 5 14 5 0 9 6 8 13 -2 12 2 25 22 75 5 13 9 32 9 43 0 11 6 22 14 25 7 3
19 32 26 65 13 59 26 81 39 61 6 -9 58 -4 146 15 17 4 87 7 158 7 70 0 127 3
127 7 0 10 39 5 117 -15z m-211 -367 c40 -10 44 -14 45 -43 0 -17 2 -40 5 -51
4 -21 10 -101 20 -280 3 -60 7 -126 9 -145 2 -35 11 -225 20 -473 3 -71 10
-172 16 -225 6 -53 12 -234 15 -402 3 -168 6 -357 8 -420 1 -63 0 -122 -2
-131 -3 -13 -20 -18 -78 -21 -41 -3 -80 -10 -87 -17 -21 -21 -37 -12 -35 22 0
17 -2 46 -5 63 -4 17 -9 62 -12 100 -3 38 -10 92 -15 119 -18 96 -48 285 -55
353 -3 24 -9 51 -14 61 -5 9 -11 47 -13 84 -2 37 -6 67 -9 67 -7 0 -28 71 -33
110 -2 14 -6 32 -9 40 -9 24 -36 171 -41 223 -3 26 -10 63 -16 81 -6 19 -10
38 -8 42 1 5 -7 36 -19 69 -11 33 -26 92 -33 130 -7 39 -17 78 -22 88 -5 10
-10 36 -11 57 -1 22 -4 40 -8 40 -4 0 -10 16 -13 35 -4 20 -16 56 -27 81 -10
25 -17 50 -13 55 3 5 1 9 -4 9 -5 0 -19 33 -30 74 -34 116 -28 146 29 152 19
2 48 6 64 10 17 3 55 10 85 14 90 14 174 31 179 35 8 9 72 5 117 -6z m695
-140 c35 -27 36 -30 31 -82 -7 -85 15 -162 77 -274 10 -18 23 -38 28 -45 6 -7
19 -38 29 -68 17 -52 20 -63 27 -92 1 -7 5 -17 8 -23 15 -26 18 -259 5 -410
-9 -106 -39 -266 -65 -344 -43 -127 -67 -313 -77 -576 -3 -76 -6 -140 -8 -142
-1 -2 -31 0 -65 3 l-62 7 6 121 c4 67 7 123 8 126 4 27 -24 591 -37 735 -25
274 -31 477 -27 825 2 113 0 222 -4 242 -4 20 -4 41 -1 47 8 13 82 -16 127
-50z m-166 -1169 c3 -5 1 -10 -4 -10 -6 0 -11 5 -11 10 0 6 2 10 4 10 3 0 8
-4 11 -10z m70 -946 c84 -5 135 -19 135 -38 0 -6 4 -6 9 3 15 23 20 -104 12
-291 l-1 -26 -84 23 c-47 13 -147 28 -227 35 -153 14 -137 15 -409 -35 -125
-24 -133 -27 -141 -57 -6 -23 -4 -28 11 -28 10 0 20 -5 22 -11 3 -9 10 -9 23
-1 11 5 43 12 70 13 28 2 52 6 55 9 3 3 15 11 27 18 45 24 50 18 56 -75 9
-128 14 -162 26 -177 17 -20 341 -7 450 19 22 6 23 8 15 63 -11 70 -11 148 -2
158 9 8 78 -24 78 -36 0 -6 6 -10 13 -10 8 0 19 -22 26 -55 7 -29 23 -75 36
-101 13 -26 29 -77 36 -115 11 -64 11 -72 -15 -151 -22 -68 -35 -90 -69 -121
-23 -20 -56 -44 -73 -52 -17 -8 -36 -21 -43 -29 -29 -35 -254 -110 -302 -101
-12 3 -61 7 -108 10 -168 11 -257 26 -421 74 -199 57 -259 62 -380 35 -147
-34 -319 -59 -349 -51 -12 3 -21 2 -21 -2 0 -8 -15 -9 -156 -11 -165 -2 -299
39 -360 108 -27 32 -29 39 -20 66 17 47 23 53 74 78 26 13 49 26 50 31 7 14
62 7 139 -19 66 -22 126 -32 216 -35 17 0 85 30 262 117 39 19 78 34 89 34 10
0 33 9 50 19 17 11 60 27 95 36 86 22 169 54 178 68 5 7 41 39 81 71 84 68
109 100 128 163 8 25 18 51 24 58 5 6 17 78 27 158 9 81 20 147 25 147 4 0 8
-5 8 -11 0 -7 10 -9 28 -4 50 14 166 27 271 30 57 2 106 7 110 11 3 3 38 3 76
0 39 -4 106 -9 150 -12z m-205 -540 c0 -8 -4 -12 -10 -9 -5 3 -10 10 -10 16 0
5 5 9 10 9 6 0 10 -7 10 -16z"/>
</g>
</svg>
