<?xml version="1.0" standalone="no"?>
<!DOCTYPE svg PUBLIC "-//W3C//DTD SVG 20010904//EN"
 "http://www.w3.org/TR/2001/REC-SVG-20010904/DTD/svg10.dtd">
<svg version="1.0" xmlns="http://www.w3.org/2000/svg"
 width="425.000000pt" height="387.000000pt" viewBox="0 0 425.000000 387.000000"
 preserveAspectRatio="xMidYMid meet">
<metadata>
Created by potrace 1.16, written by Peter Selinger 2001-2019
</metadata>
<g transform="translate(0.000000,387.000000) scale(0.100000,-0.100000)"
fill="#000000" stroke="none">
<path d="M638 3694 c-4 -3 -12 -7 -20 -8 -7 -2 -20 -5 -28 -8 -8 -3 -42 -13
-75 -23 -72 -21 -94 -35 -163 -100 -30 -27 -63 -55 -75 -62 -12 -6 -37 -41
-56 -77 -19 -36 -38 -66 -43 -66 -4 0 -8 -7 -8 -16 0 -9 -9 -28 -20 -43 -25
-36 -29 -63 -32 -201 -2 -142 4 -177 48 -287 58 -145 81 -177 159 -219 44 -23
151 -39 180 -26 11 6 40 17 65 26 68 25 92 50 101 104 5 33 3 54 -7 72 -56
104 -78 169 -98 294 -4 21 -9 42 -11 46 -3 5 -1 11 5 15 5 3 10 13 10 21 0 27
40 100 78 141 37 41 101 83 125 83 100 0 280 -137 454 -344 113 -134 114 -136
143 -179 14 -20 28 -37 33 -37 4 0 7 -5 7 -10 0 -6 9 -21 21 -33 26 -28 189
-270 189 -281 0 -10 75 -120 123 -181 21 -26 78 -110 112 -164 6 -8 15 -20 21
-26 13 -11 94 -134 94 -141 0 -3 24 -33 53 -68 57 -69 141 -182 171 -230 24
-38 103 -130 186 -217 34 -35 74 -80 88 -99 15 -19 36 -44 48 -55 12 -11 29
-32 39 -48 9 -15 22 -27 27 -27 6 0 38 -29 71 -65 33 -36 66 -65 73 -65 6 0
39 -26 73 -57 84 -80 111 -103 121 -103 5 0 10 -4 12 -9 1 -5 20 -20 40 -34
26 -17 50 -48 78 -103 22 -43 51 -90 64 -104 13 -14 55 -72 94 -130 39 -58 90
-125 112 -149 22 -24 40 -46 40 -49 0 -7 50 -52 57 -52 4 0 16 -9 27 -20 24
-22 76 -27 121 -12 58 19 125 53 125 63 0 6 4 8 8 5 5 -3 18 3 28 12 10 10 27
21 37 25 9 3 17 11 17 16 0 5 20 29 44 52 24 24 42 49 39 56 -3 7 -1 13 5 13
5 0 12 12 15 27 8 46 15 72 22 83 26 41 -70 154 -178 210 -118 61 -157 80
-167 80 -5 0 -10 4 -10 9 0 10 -104 71 -122 71 -6 0 -19 7 -28 15 -8 8 -32 21
-51 29 -33 14 -38 14 -56 -3 -18 -18 -20 -17 -73 30 -29 27 -57 49 -62 49 -4
0 -8 5 -8 11 0 6 -15 22 -32 37 -33 27 -118 102 -173 151 -16 15 -64 56 -105
91 -118 101 -380 375 -430 452 -17 25 -37 52 -45 58 -8 7 -15 19 -15 26 0 8
-4 14 -8 14 -5 0 -15 12 -23 28 -16 32 -88 123 -106 135 -7 4 -13 13 -13 19 0
10 -21 39 -88 117 -18 21 -57 76 -88 122 -30 46 -75 105 -99 130 -23 25 -59
70 -79 100 -55 83 -70 104 -78 107 -5 2 -8 10 -8 17 0 7 -3 15 -8 17 -4 2 -32
32 -62 68 -30 36 -58 67 -62 68 -5 2 -8 8 -8 14 0 5 -13 29 -30 53 -17 24 -30
47 -30 52 0 4 -16 26 -36 48 -19 22 -54 67 -76 100 -91 133 -244 306 -321 362
-18 12 -41 30 -52 38 -35 27 -124 85 -168 109 -53 29 -251 59 -269 40z m159
-117 c51 -5 86 -19 111 -44 7 -7 19 -13 27 -13 7 0 15 -3 17 -8 2 -4 36 -29
76 -55 39 -26 72 -52 72 -57 0 -6 6 -10 14 -10 7 0 29 -19 49 -42 46 -56 100
-116 134 -150 21 -22 25 -30 15 -40 -7 -7 -12 -9 -12 -4 0 4 -13 -2 -30 -14
-16 -12 -30 -16 -30 -10 0 16 -188 200 -240 235 -25 17 -46 33 -48 38 -2 4 -8
7 -14 7 -5 0 -24 11 -42 25 -25 19 -49 26 -108 30 -55 5 -79 3 -89 -7 -8 -7
-30 -22 -49 -32 -39 -23 -120 -103 -137 -137 -54 -109 -69 -193 -39 -218 8 -7
17 -40 21 -74 4 -34 18 -93 31 -131 14 -38 22 -71 19 -74 -2 -3 4 -20 15 -38
l21 -33 -23 -21 c-13 -12 -35 -24 -50 -27 -16 -3 -28 -10 -28 -15 0 -5 -8 -7
-18 -5 -9 3 -38 8 -65 12 -46 6 -97 41 -97 67 0 6 -11 26 -25 43 -13 18 -22
35 -19 37 2 3 -6 36 -18 74 -18 55 -23 92 -23 184 0 106 3 120 28 170 30 60
49 92 58 100 3 3 14 20 23 38 9 17 20 32 24 32 4 0 37 27 72 60 36 33 81 65
100 72 103 36 177 54 200 47 14 -4 48 -10 77 -12z m597 -510 l20 -27 -24 -25
c-22 -24 -24 -24 -40 -8 -27 30 -32 54 -13 75 20 23 31 20 57 -15z m120 -164
c8 -17 57 -86 108 -153 86 -113 140 -187 171 -234 7 -10 23 -31 37 -46 14 -16
36 -43 50 -60 14 -18 30 -37 36 -44 5 -6 27 -37 47 -69 21 -32 56 -82 78 -110
22 -29 47 -62 57 -74 9 -13 32 -40 51 -60 29 -31 74 -96 176 -251 6 -8 17 -23
25 -32 8 -9 31 -37 50 -61 19 -24 44 -53 55 -65 11 -11 61 -62 110 -114 50
-52 115 -116 145 -142 83 -74 167 -149 209 -188 20 -19 61 -55 90 -80 48 -41
230 -211 271 -253 20 -21 16 -63 -8 -72 -9 -3 -18 -1 -20 4 -2 6 -8 11 -13 11
-18 0 -123 77 -169 124 -25 25 -51 45 -57 46 -7 0 -13 5 -13 10 0 6 -6 10 -12
10 -7 0 -31 16 -53 36 -22 20 -58 53 -80 73 -22 20 -53 45 -70 55 -40 26 -240
233 -376 390 -19 22 -45 51 -59 66 -34 35 -60 69 -60 76 0 6 -91 125 -117 154
-13 14 -124 165 -248 336 -27 38 -58 83 -68 101 -9 18 -21 33 -26 33 -4 0 -13
11 -19 25 -6 13 -24 38 -39 55 -28 31 -133 195 -133 208 0 4 -14 21 -30 39
-17 18 -30 37 -30 43 0 13 -34 64 -63 95 -11 11 -31 36 -46 55 -14 19 -32 41
-38 48 -7 7 -13 15 -13 18 0 8 25 49 34 56 12 8 39 -19 60 -59z m1915 -2021
c61 -31 105 -56 111 -62 3 -3 50 -27 104 -54 55 -27 113 -61 130 -76 29 -28
29 -29 16 -77 -18 -67 -79 -145 -147 -190 -13 -9 -20 -20 -16 -26 3 -6 1 -7
-6 -3 -6 4 -18 2 -26 -4 -8 -7 -15 -10 -15 -7 0 3 -16 -1 -36 -9 -36 -15 -36
-15 -90 26 -30 22 -54 44 -54 48 0 4 -23 32 -50 62 -27 30 -53 64 -56 75 -4
11 -14 25 -23 32 -9 7 -13 13 -8 13 4 0 -3 10 -14 21 -26 26 -9 42 28 28 59
-22 105 25 116 120 4 38 2 62 -8 82 -16 29 -20 51 -7 34 4 -5 27 -20 51 -33z"/>
</g>
</svg>
