<?xml version="1.0" standalone="no"?>
<!DOCTYPE svg PUBLIC "-//W3C//DTD SVG 20010904//EN"
 "http://www.w3.org/TR/2001/REC-SVG-20010904/DTD/svg10.dtd">
<svg version="1.0" xmlns="http://www.w3.org/2000/svg"
 width="461.000000pt" height="427.000000pt" viewBox="0 0 461.000000 427.000000"
 preserveAspectRatio="xMidYMid meet">
<metadata>
Created by potrace 1.16, written by Peter Selinger 2001-2019
</metadata>
<g transform="translate(0.000000,427.000000) scale(0.100000,-0.100000)"
fill="#000000" stroke="none">
<path d="M2550 4149 c-37 -6 -231 -85 -292 -119 -10 -6 -23 -10 -30 -10 -7 0
-33 -14 -58 -30 -26 -17 -58 -30 -77 -30 -17 0 -33 -3 -35 -7 -4 -11 -75 -63
-84 -63 -4 0 -22 -11 -40 -25 -18 -14 -35 -25 -39 -25 -3 0 -36 -14 -73 -32
-64 -30 -93 -52 -168 -125 -19 -18 -38 -33 -43 -33 -24 0 -42 -85 -27 -122 8
-16 14 -44 15 -64 2 -21 37 -51 96 -82 33 -18 66 -32 72 -32 7 0 57 -14 110
-32 54 -17 103 -33 108 -34 6 -1 29 -9 53 -18 23 -8 46 -16 50 -17 24 -5 41
-12 74 -29 20 -11 43 -20 51 -20 8 0 21 -7 28 -16 12 -15 9 -16 -34 -10 -26 4
-57 10 -70 15 -12 5 -24 8 -27 7 -3 0 -16 7 -30 17 -13 9 -30 17 -37 17 -12 0
-127 50 -174 75 -14 8 -41 17 -60 20 -19 3 -85 20 -148 37 -106 29 -117 30
-165 18 -28 -7 -69 -21 -90 -31 -22 -11 -44 -19 -48 -19 -5 0 -14 -4 -21 -10
-7 -5 -39 -31 -72 -56 -33 -26 -63 -52 -67 -58 -3 -6 -23 -28 -42 -50 -20 -21
-36 -43 -36 -48 0 -6 -13 -27 -29 -47 -31 -39 -101 -182 -120 -246 -7 -22 -24
-65 -38 -95 -14 -30 -29 -64 -34 -75 -30 -72 -39 -99 -39 -113 0 -16 -37 -122
-65 -187 -7 -16 -25 -68 -39 -115 -15 -47 -33 -98 -40 -115 -18 -40 -36 -98
-36 -116 0 -8 -7 -27 -15 -42 -8 -16 -19 -47 -25 -70 -6 -23 -14 -49 -17 -57
-8 -19 -8 -19 -37 -125 -14 -49 -32 -107 -40 -127 -9 -21 -19 -54 -22 -75 -3
-21 -8 -41 -11 -46 -4 -6 -17 -71 -28 -142 -3 -16 -9 -33 -13 -37 -7 -7 -42
-16 -70 -17 -23 -2 -100 -91 -108 -124 -3 -18 -12 -44 -20 -58 -7 -15 -15 -37
-18 -50 -3 -13 -10 -40 -15 -59 -13 -40 -14 -103 -4 -114 4 -4 8 -13 8 -19 0
-7 3 -12 6 -12 3 0 12 -5 20 -12 8 -6 55 -20 104 -30 50 -10 91 -21 93 -24 1
-3 21 -3 44 0 40 6 44 9 71 64 16 33 31 78 32 102 2 24 5 47 8 52 2 4 8 33 12
63 4 30 11 63 16 72 6 10 5 19 -1 23 -5 3 -10 13 -10 21 0 13 -51 68 -78 83
-13 7 -7 48 19 137 5 17 9 44 9 60 0 17 6 36 12 42 7 7 18 34 24 60 7 26 21
76 31 111 17 58 21 62 35 48 9 -9 18 -14 20 -11 8 7 108 -18 108 -28 0 -4 4
-8 10 -8 10 0 83 -32 205 -90 83 -39 185 -76 365 -129 58 -18 125 -39 150 -47
25 -9 52 -16 60 -16 8 -1 17 -4 20 -7 6 -7 143 -62 163 -65 6 -1 18 -5 25 -9
6 -5 12 -5 12 -1 0 3 10 0 23 -8 12 -8 49 -25 82 -37 33 -12 67 -24 75 -28 8
-3 20 -7 25 -8 11 -1 20 -5 125 -45 41 -16 118 -41 170 -56 52 -15 103 -31
113 -36 41 -21 343 -88 398 -88 17 0 36 -9 46 -20 10 -11 23 -20 30 -20 7 0
13 -6 14 -12 0 -7 2 -75 4 -150 5 -152 10 -140 -70 -153 -60 -9 -87 -36 -92
-93 -2 -26 -8 -61 -14 -78 -9 -29 -5 -175 6 -230 6 -30 101 -67 169 -67 96 0
166 6 166 14 0 5 7 6 15 3 25 -10 63 23 74 63 24 91 7 361 -23 364 -6 1 -27 2
-47 3 -39 3 -73 28 -83 62 -9 29 -16 161 -15 289 1 130 1 84 -4 565 -3 212 -7
419 -10 460 -2 41 -7 177 -9 301 -3 125 -8 231 -11 236 -3 5 -9 25 -12 44 -17
106 -61 247 -87 283 -15 21 -28 45 -28 53 0 7 -7 16 -15 19 -17 7 -21 34 -5
34 6 0 10 -4 10 -9 0 -15 30 -21 51 -11 19 11 91 23 161 29 9 0 23 8 31 16 8
8 30 16 48 18 19 2 47 9 62 16 90 36 135 56 157 72 24 16 31 19 48 19 4 0 19
11 34 24 14 14 28 22 32 19 3 -3 35 9 70 26 36 17 79 34 96 37 16 4 30 11 30
17 0 6 3 7 7 4 3 -4 18 0 32 10 14 9 40 16 58 15 18 -1 39 5 46 13 22 21 62
28 74 13 34 -44 57 -131 78 -293 2 -16 9 -68 16 -115 6 -47 13 -166 14 -265 3
-171 10 -296 21 -395 7 -59 14 -550 8 -529 -8 26 -65 8 -115 -35 -24 -20 -48
-36 -55 -36 -7 0 -26 -11 -41 -25 -15 -14 -39 -36 -53 -49 -14 -12 -41 -33
-60 -47 -19 -13 -39 -30 -43 -36 -4 -7 -14 -13 -21 -13 -7 0 -31 -13 -53 -29
-23 -16 -63 -41 -89 -55 -27 -13 -63 -37 -80 -53 -36 -32 -69 -53 -84 -53 -11
0 -15 -3 -61 -43 -14 -12 -53 -35 -88 -52 -55 -26 -61 -32 -56 -52 3 -13 1
-23 -5 -23 -22 0 15 -39 40 -42 27 -3 150 52 170 77 7 8 17 15 22 15 5 0 30
14 56 32 51 35 52 35 98 73 18 14 37 25 43 25 6 0 11 4 11 9 0 5 16 15 35 22
19 7 35 16 35 20 0 4 10 9 23 13 13 3 37 18 54 33 17 16 42 37 57 48 15 11 32
25 39 30 22 18 96 65 103 65 4 0 16 10 28 23 17 18 52 40 86 53 3 1 5 -61 5
-138 l0 -140 -50 -19 c-105 -41 -136 -95 -137 -246 -1 -57 19 -124 41 -137 16
-10 247 -11 300 -2 54 10 97 51 107 101 5 31 1 118 -9 181 -2 11 -12 33 -23
48 -16 22 -28 28 -66 29 -26 1 -43 6 -39 10 5 5 1 23 -8 40 -12 24 -17 71 -21
185 -3 85 -4 155 -2 157 4 4 1 491 -3 535 -2 19 -7 80 -10 134 -3 55 -8 103
-10 107 -3 4 -5 92 -5 195 -1 263 -35 536 -81 656 -12 32 -38 75 -59 96 -32
32 -45 39 -85 41 -26 1 -53 -3 -61 -10 -8 -6 -14 -8 -14 -5 0 4 -9 -2 -21 -13
-12 -11 -28 -17 -36 -14 -7 3 -19 -2 -26 -11 -7 -8 -22 -17 -34 -19 -11 -2
-27 -7 -35 -13 -18 -13 -52 -27 -118 -49 -30 -9 -60 -21 -66 -26 -22 -18 -273
-138 -301 -144 -15 -4 -49 -15 -74 -25 -73 -30 -213 -26 -329 9 -41 13 -89 27
-107 33 -17 5 -37 16 -43 24 -7 7 -19 14 -26 14 -8 0 -22 4 -32 9 -41 21 -94
41 -107 41 -7 0 -15 4 -17 8 -3 10 -206 109 -258 127 -3 1 -18 7 -33 13 -16 7
-40 12 -53 12 -14 0 -35 5 -47 12 -12 6 -38 15 -57 19 -132 30 -257 75 -277
101 -22 28 -24 67 -4 85 72 69 100 89 181 131 30 16 69 38 87 48 134 81 160
93 448 224 28 12 70 24 94 25 27 2 50 10 56 19 11 14 14 14 29 -2 34 -39 38
-130 21 -477 -10 -184 -14 -236 -20 -264 -14 -67 -13 -89 7 -111 11 -12 27
-19 35 -16 8 3 19 6 23 6 15 0 32 79 36 165 2 44 6 121 8 170 3 50 7 135 10
190 12 218 7 287 -27 364 -18 41 -29 54 -72 89 -5 4 -30 4 -55 1z m-899 -889
c42 -10 92 -25 110 -33 19 -9 61 -23 94 -32 33 -9 69 -21 79 -27 32 -17 209
-76 282 -93 37 -9 86 -24 109 -34 50 -23 98 -44 105 -46 42 -9 180 -59 215
-78 11 -6 34 -17 50 -25 82 -40 132 -115 180 -271 46 -148 52 -264 60 -1098 4
-409 3 -442 -13 -445 -9 -2 -55 4 -102 14 -47 10 -96 20 -110 22 -60 9 -106
18 -113 23 -4 2 -19 7 -33 9 -15 3 -54 14 -88 25 -33 10 -92 29 -131 41 -38
12 -98 32 -132 45 -34 13 -66 23 -71 23 -10 0 -84 28 -173 66 -31 13 -65 24
-76 24 -10 0 -36 9 -58 20 -22 11 -46 20 -55 20 -8 0 -30 9 -48 20 -18 11 -38
20 -45 20 -6 0 -24 7 -39 14 -15 8 -67 24 -115 36 -49 11 -108 30 -133 40 -56
24 -135 48 -179 54 -19 3 -37 9 -40 14 -3 4 -27 14 -54 22 -26 7 -50 17 -53
22 -7 11 -84 50 -84 43 0 -4 -17 3 -37 13 -57 30 -131 62 -145 63 -7 0 10 7
37 16 131 41 293 97 325 113 19 9 40 16 45 13 6 -2 49 11 95 28 47 17 90 32
95 33 43 9 105 32 105 39 0 4 4 6 9 3 5 -3 25 1 45 9 20 8 36 12 36 9 0 -4 6
-2 13 4 6 5 28 13 47 16 51 10 133 28 150 33 8 2 15 3 15 2 0 -1 11 4 25 11
13 7 45 14 71 15 25 1 51 5 58 9 6 4 44 12 84 16 40 5 97 14 127 19 30 5 94
10 141 10 79 1 87 -1 92 -19 3 -11 2 -22 -3 -25 -6 -4 -20 -88 -22 -135 0 -8
-6 -49 -14 -90 -12 -67 -20 -126 -30 -225 -1 -16 -4 -32 -5 -35 -1 -3 -1 -8 0
-12 1 -7 -29 -12 -55 -9 -6 1 -19 -8 -29 -19 -10 -11 -24 -20 -30 -20 -15 0
-38 -55 -55 -132 -12 -53 -11 -58 9 -87 34 -48 73 -63 155 -61 39 0 97 1 129
0 39 -1 56 3 52 10 -3 5 -2 10 3 10 18 0 32 56 34 142 2 56 -1 91 -9 99 -6 6
-32 14 -57 16 -51 6 -64 17 -46 38 10 12 10 15 0 15 -8 0 -10 7 -5 18 4 9 11
60 16 112 11 101 14 124 23 180 10 58 16 121 22 210 3 47 10 99 15 115 10 34
29 157 35 226 2 25 7 64 12 86 5 22 10 67 10 99 1 33 5 92 10 132 6 50 5 75
-2 80 -21 12 -51 13 -74 0 -20 -10 -23 -19 -21 -62 2 -49 -6 -183 -16 -256 -3
-19 -7 -59 -10 -89 -3 -30 -8 -58 -11 -63 -3 -5 -8 -32 -11 -61 -3 -29 -10
-58 -17 -65 -6 -6 -39 -14 -71 -17 -33 -2 -60 -5 -60 -5 0 -1 -19 -3 -42 -5
-23 -2 -56 -6 -75 -9 -124 -19 -178 -27 -214 -30 -22 -1 -45 -5 -51 -9 -5 -3
-30 -9 -54 -12 -41 -6 -118 -27 -164 -46 -11 -4 -38 -10 -60 -14 -43 -7 -200
-57 -250 -80 -29 -13 -83 -29 -135 -39 -14 -3 -55 -16 -92 -29 -36 -14 -83
-28 -105 -32 -21 -4 -49 -13 -63 -20 -14 -7 -45 -18 -70 -25 -25 -6 -63 -20
-85 -30 -62 -28 -105 -43 -110 -39 -5 6 15 87 30 124 31 74 59 146 61 160 2 6
14 38 28 72 14 35 26 73 26 85 0 24 47 157 61 173 5 5 9 17 9 27 0 10 9 35 20
55 11 21 20 45 20 53 0 9 4 20 9 26 5 5 16 34 26 64 32 100 94 229 156 320 5
8 12 23 15 33 4 9 9 17 13 17 4 0 15 14 26 32 20 35 68 84 104 108 13 8 29 20
35 26 7 6 23 15 36 19 14 4 30 12 37 17 6 5 24 11 39 14 16 3 30 7 32 9 5 5
42 -2 143 -25z m629 -100 c0 -5 -2 -10 -4 -10 -3 0 -8 5 -11 10 -3 6 -1 10 4
10 6 0 11 -4 11 -10z m234 -99 c-7 -8 -35 9 -29 19 4 6 11 5 20 -3 7 -6 11
-14 9 -16z m-112 -1556 c16 -14 40 -25 53 -25 20 0 22 -4 19 -32 -1 -18 -3
-37 -3 -41 -1 -4 -8 -4 -17 1 -10 6 -33 6 -57 0 -44 -10 -125 -13 -133 -6 -2
3 3 28 12 55 24 75 73 93 126 48z m1641 -333 c-2 -7 4 -12 12 -12 8 0 15 -4
15 -9 0 -6 12 -6 32 -1 20 6 36 6 43 0 7 -6 19 -8 27 -5 21 8 45 -93 29 -123
-7 -12 -18 -22 -26 -23 -8 0 -41 -2 -72 -4 -32 -2 -83 -6 -114 -10 l-56 -7 -6
47 c-7 63 10 108 53 140 35 26 67 29 63 7z m-3553 -22 c0 -6 12 -15 26 -20 30
-12 30 -15 -5 -189 -6 -29 -11 -56 -11 -58 0 -3 -30 -3 -67 0 -88 8 -101 20
-84 84 6 26 16 66 22 88 14 57 34 83 72 94 43 13 47 13 47 1z m2468 -625 c6
-12 15 -14 33 -7 31 11 48 9 82 -8 21 -10 27 -21 28 -49 3 -78 -3 -166 -11
-175 -5 -5 -26 -10 -47 -11 -21 -1 -68 -6 -105 -10 -59 -6 -67 -5 -75 11 -9
22 -9 87 1 159 12 85 16 94 44 98 15 2 30 5 34 6 4 0 11 -6 16 -14z"/>
</g>
</svg>
