<?xml version="1.0" standalone="no"?>
<!DOCTYPE svg PUBLIC "-//W3C//DTD SVG 20010904//EN"
 "http://www.w3.org/TR/2001/REC-SVG-20010904/DTD/svg10.dtd">
<svg version="1.0" xmlns="http://www.w3.org/2000/svg"
 width="393.000000pt" height="413.000000pt" viewBox="0 0 393.000000 413.000000"
 preserveAspectRatio="xMidYMid meet">
<metadata>
Created by potrace 1.16, written by Peter Selinger 2001-2019
</metadata>
<g transform="translate(0.000000,413.000000) scale(0.100000,-0.100000)"
fill="#000000" stroke="none">
<path d="M2914 4022 c-80 -12 -176 -45 -212 -72 -54 -43 -122 -109 -122 -119
0 -6 -6 -11 -13 -11 -7 0 -24 -28 -37 -62 -76 -192 19 -432 206 -524 41 -20
53 -31 56 -53 4 -25 1 -27 -32 -28 -19 -1 -62 -4 -95 -7 -33 -3 -109 -11 -170
-17 -130 -12 -237 -34 -308 -61 -29 -11 -61 -21 -72 -23 -11 -2 -21 -4 -22 -5
-2 -2 -6 -3 -10 -4 -5 -1 -12 -4 -18 -7 -5 -3 -44 -16 -85 -29 -41 -12 -135
-47 -209 -76 -74 -30 -141 -54 -150 -54 -10 0 -21 -4 -26 -9 -6 -5 -39 -21
-75 -37 -126 -56 -306 -198 -352 -279 -34 -59 -84 -169 -131 -285 -23 -58 -30
-92 -31 -150 -2 -113 33 -175 189 -340 129 -136 173 -193 206 -266 16 -38 38
-85 47 -104 12 -24 17 -59 16 -115 0 -91 -15 -144 -50 -182 -13 -14 -24 -31
-24 -37 -1 -6 -12 -20 -27 -31 -14 -11 -33 -28 -42 -38 -20 -23 -99 -77 -111
-77 -5 0 -44 -22 -87 -50 -43 -27 -82 -50 -86 -50 -5 0 -23 -10 -40 -22 -63
-45 -103 -62 -152 -64 -27 -1 -54 2 -60 6 -5 4 -25 11 -43 15 -26 5 -32 11
-32 32 0 33 -54 190 -96 278 -51 108 -89 142 -209 190 -11 5 -24 7 -30 6 -5
-2 -19 -3 -30 -4 -34 -3 -105 -78 -134 -142 -34 -74 -44 -110 -43 -155 0 -19
-4 -40 -10 -47 -6 -7 -9 -51 -6 -105 2 -79 7 -102 33 -153 17 -33 33 -61 37
-63 3 -2 17 -12 30 -23 32 -29 66 -45 113 -54 51 -10 136 -12 141 -4 2 4 28
13 56 19 29 7 65 21 80 31 26 19 58 17 58 -4 0 -6 7 -1 16 11 10 15 25 22 48
22 28 0 62 5 151 24 6 1 15 4 20 7 6 4 41 17 79 29 38 12 114 47 170 76 56 30
106 56 111 58 6 2 28 9 50 16 55 18 175 103 175 125 0 3 9 16 21 28 48 51 103
226 93 301 -2 17 -6 51 -9 75 -7 55 -69 216 -100 256 -28 37 -178 209 -249
286 -61 66 -80 91 -84 110 -2 7 -9 17 -15 21 -14 8 -20 167 -8 182 5 6 14 29
21 51 7 22 20 51 28 65 49 81 89 140 119 177 43 54 236 200 334 252 80 42 286
115 359 126 25 4 49 10 55 13 5 3 16 7 25 8 58 5 118 17 191 39 46 13 91 25
99 25 8 0 31 9 51 19 20 11 52 22 70 24 19 3 34 6 34 7 0 1 14 3 30 5 17 2 48
6 70 9 22 3 60 8 84 11 24 3 48 8 52 11 5 3 9 -8 9 -24 0 -25 -5 -31 -42 -43
-24 -7 -48 -14 -54 -14 -6 0 -22 -5 -35 -11 -66 -31 -100 -43 -133 -49 -20 -4
-36 -11 -36 -16 0 -5 -8 -9 -18 -9 -40 0 -162 -114 -162 -151 0 -5 -4 -9 -9
-9 -25 0 -61 -173 -61 -290 0 -43 -4 -81 -9 -85 -6 -3 -6 -18 -1 -35 5 -17 9
-47 9 -68 0 -20 3 -53 6 -72 3 -19 8 -62 11 -95 3 -33 9 -80 13 -105 9 -53 12
-213 11 -520 -3 -716 -1 -848 15 -916 19 -83 50 -135 125 -212 34 -35 213
-138 255 -147 94 -19 134 -22 272 -21 87 1 180 -2 207 -7 52 -9 138 5 166 28
8 6 41 21 73 33 32 12 78 35 102 52 24 16 46 30 49 30 6 0 58 54 73 76 27 41
53 99 53 119 0 11 5 26 11 32 16 16 30 255 24 416 -3 77 -7 142 -9 146 -8 12
-16 366 -21 861 -5 502 -16 664 -53 771 -36 104 -64 144 -122 176 -36 21 -160
64 -195 69 -11 2 -35 7 -54 13 -18 6 -36 10 -40 9 -3 -1 -23 2 -43 6 -36 8
-38 10 -38 46 l0 38 37 -10 c20 -5 89 -11 153 -11 l118 -2 8 -35 c7 -27 15
-36 34 -38 14 -2 30 -8 36 -13 13 -11 58 3 70 22 4 7 8 31 10 53 1 23 7 61 13
86 16 68 13 104 -9 130 -17 19 -30 23 -72 22 -60 -1 -68 -7 -75 -60 -6 -46 4
-43 -157 -47 -126 -3 -160 3 -164 31 -1 14 14 28 60 54 34 19 66 44 72 55 6
11 16 23 21 27 52 34 97 114 108 193 3 17 10 49 16 73 10 37 9 54 -9 120 -12
42 -23 84 -25 92 -21 96 -112 186 -210 208 -83 19 -215 31 -261 24z m105 -121
c-4 -58 0 -68 25 -64 17 4 26 14 30 34 4 24 11 29 34 29 36 0 44 -8 31 -32 -7
-14 -7 -23 2 -34 12 -15 49 -20 49 -6 0 4 9 13 20 20 18 11 24 9 50 -17 32
-32 38 -51 16 -51 -13 0 -26 -20 -26 -41 0 -5 15 -17 34 -26 36 -17 49 -43 41
-83 -6 -30 -13 -36 -27 -22 -16 16 -55 15 -61 -2 -8 -22 4 -56 19 -56 21 0 38
-44 30 -77 l-8 -28 -18 25 c-17 22 -20 23 -44 10 -31 -16 -31 -46 -2 -71 18
-15 17 -17 -25 -51 -57 -46 -95 -58 -201 -65 -94 -6 -183 12 -223 47 -11 9
-34 25 -50 34 -44 25 -106 126 -119 194 -10 47 -9 67 4 112 8 31 22 64 30 73
36 43 70 77 76 77 4 0 14 8 23 18 9 10 34 26 56 36 22 10 48 23 58 28 13 7 19
4 26 -14 14 -36 51 -63 70 -50 9 5 15 14 14 19 -9 51 -7 57 17 63 37 10 51 1
49 -29z m21 -801 c3 -41 1 -96 -4 -121 -5 -25 -6 -53 -3 -63 10 -24 55 -42 75
-30 12 8 20 6 32 -8 8 -11 26 -21 40 -23 93 -15 206 -48 266 -79 86 -44 120
-140 140 -401 3 -33 6 -269 8 -525 4 -452 13 -786 22 -802 9 -14 5 -397 -4
-415 -5 -10 -7 -23 -5 -30 6 -16 -25 -130 -47 -172 -21 -41 -96 -121 -113
-121 -7 0 -34 -11 -61 -25 -27 -14 -59 -25 -70 -25 -12 0 -30 -6 -41 -14 -36
-24 -70 -27 -109 -8 -21 10 -52 17 -69 15 -18 -1 -89 -6 -158 -9 -118 -6 -131
-5 -212 21 -82 25 -189 85 -248 137 -36 33 -76 110 -88 170 -8 48 -12 227 -10
483 5 449 1 870 -9 930 -28 177 -35 272 -28 394 11 195 14 208 74 296 33 48
85 87 133 98 25 5 79 24 114 38 57 25 111 39 145 39 22 0 47 8 61 19 21 17 23
26 21 95 -1 43 0 81 3 86 3 5 22 -2 42 -15 35 -24 63 -31 76 -19 15 15 -38 94
-64 94 -4 0 -14 -9 -21 -19 -13 -18 -15 -16 -32 19 -28 58 -20 65 65 65 l74 0
5 -75z m-2660 -1945 c0 -8 -6 -34 -14 -57 -29 -93 -38 -145 -52 -312 -3 -33
-7 -63 -10 -68 -3 -4 0 -8 5 -8 6 0 11 -6 11 -14 0 -19 36 -26 56 -12 13 10
17 32 20 97 3 104 10 173 24 234 10 46 36 105 45 105 10 0 45 -35 45 -44 0 -5
8 -28 19 -50 78 -170 112 -324 81 -362 -27 -31 -73 -46 -159 -50 -84 -4 -88
-3 -128 26 -22 16 -49 47 -58 67 -44 91 3 376 71 440 29 26 44 29 44 8z"/>
<path d="M2756 3841 c-14 -15 -15 -23 -5 -45 7 -15 17 -25 23 -23 6 2 20 1 31
-3 41 -15 61 32 26 62 -32 27 -56 30 -75 9z"/>
<path d="M2693 3739 c-25 -7 -33 -15 -33 -33 0 -13 7 -30 16 -37 15 -12 14
-14 -7 -19 -26 -6 -50 -45 -42 -66 7 -19 45 -17 82 4 36 20 46 39 30 58 -9 11
-5 16 20 25 36 13 36 11 16 49 -16 31 -29 34 -82 19z m27 -79 c0 -5 -5 -10
-11 -10 -5 0 -7 5 -4 10 3 6 8 10 11 10 2 0 4 -4 4 -10z"/>
<path d="M2939 3647 c-32 -20 -35 -25 -28 -51 9 -33 -6 -71 -23 -60 -7 4 -8 3
-4 -4 4 -6 -11 -28 -34 -49 -32 -31 -40 -45 -40 -74 0 -48 23 -58 56 -22 13
14 24 29 24 33 0 7 76 111 105 143 24 27 33 60 24 85 -11 28 -34 28 -80 -1z"/>
<path d="M2722 3549 c-49 -19 -66 -55 -37 -79 12 -10 21 -10 45 0 42 17 53 40
32 67 -14 17 -22 19 -40 12z"/>
<path d="M2908 2798 c-26 -21 -13 -72 23 -85 52 -20 139 9 139 46 0 5 7 11 15
15 9 3 12 12 8 22 -4 12 -14 14 -37 10 -47 -9 -48 -9 -91 -2 -27 5 -45 3 -57
-6z"/>
</g>
</svg>
