<?xml version="1.0" standalone="no"?>
<!DOCTYPE svg PUBLIC "-//W3C//DTD SVG 20010904//EN"
 "http://www.w3.org/TR/2001/REC-SVG-20010904/DTD/svg10.dtd">
<svg version="1.0" xmlns="http://www.w3.org/2000/svg"
 width="439.000000pt" height="449.000000pt" viewBox="0 0 439.000000 449.000000"
 preserveAspectRatio="xMidYMid meet">
<metadata>
Created by potrace 1.16, written by Peter Selinger 2001-2019
</metadata>
<g transform="translate(0.000000,449.000000) scale(0.100000,-0.100000)"
fill="#000000" stroke="none">
<path d="M876 4264 c-11 -8 -28 -14 -39 -14 -26 0 -112 -28 -175 -56 -29 -13
-57 -24 -62 -24 -6 0 -10 -4 -10 -10 0 -5 -6 -10 -13 -10 -25 0 -137 -79 -210
-149 -39 -38 -87 -96 -106 -128 -19 -32 -43 -68 -54 -80 -16 -18 -18 -32 -14
-80 8 -83 23 -118 65 -146 100 -68 175 -53 470 91 33 16 56 22 60 16 4 -5 33
-45 65 -87 31 -42 57 -79 57 -82 0 -3 14 -24 30 -47 17 -22 30 -45 30 -49 0
-5 14 -29 31 -53 l32 -45 -33 -28 c-19 -15 -45 -35 -59 -44 -14 -9 -35 -26
-46 -37 -145 -148 -195 -208 -195 -234 0 -6 -6 -19 -14 -27 -20 -22 -34 -90
-26 -128 7 -31 34 -60 109 -113 59 -42 95 -54 120 -38 12 7 21 18 21 25 0 20
10 15 42 -19 30 -34 185 -254 209 -298 8 -14 31 -44 51 -67 21 -24 38 -48 38
-54 0 -7 17 -31 38 -55 38 -44 69 -84 125 -166 55 -80 224 -311 353 -481 32
-44 70 -96 84 -118 86 -133 117 -169 145 -169 15 0 25 -10 35 -34 12 -32 25
-41 82 -59 9 -3 22 -18 30 -34 11 -22 22 -29 58 -35 47 -7 98 -15 140 -23 28
-5 82 -13 155 -21 28 -3 72 -15 99 -26 27 -11 70 -20 95 -20 25 0 55 -6 67
-13 11 -8 41 -19 65 -25 24 -6 49 -17 54 -24 6 -7 24 -15 42 -18 26 -3 33 0
42 20 17 36 39 24 98 -53 30 -39 60 -78 68 -88 8 -9 15 -20 15 -24 0 -3 11
-21 25 -39 14 -18 25 -36 25 -39 0 -4 12 -19 28 -35 15 -15 38 -42 52 -60 14
-18 32 -40 41 -49 9 -9 24 -32 35 -51 10 -19 27 -44 37 -55 10 -11 33 -40 50
-64 18 -24 45 -57 60 -73 15 -17 34 -43 42 -59 8 -15 21 -32 28 -36 7 -4 29
-30 48 -58 58 -84 97 -106 119 -65 8 15 7 27 -4 47 -21 39 -52 73 -65 73 -6 0
-11 8 -11 18 0 11 -9 27 -20 37 -11 10 -20 24 -20 32 0 7 -4 13 -8 13 -8 0
-72 85 -72 95 0 3 -7 13 -16 23 -39 44 -67 80 -91 120 -13 23 -29 42 -34 42
-5 0 -9 6 -9 14 0 7 -7 19 -16 27 -20 17 -125 146 -150 185 -10 16 -24 33 -31
37 -7 4 -13 13 -13 19 0 5 -17 31 -39 57 -46 55 -66 91 -51 91 19 0 50 35 50
57 0 12 -6 28 -13 35 -8 7 -12 18 -10 24 2 7 -15 26 -37 44 -38 30 -41 36 -35
67 3 18 8 117 11 221 3 103 6 219 8 257 l3 70 -47 45 c-42 41 -130 152 -130
164 0 3 -29 44 -65 90 -36 46 -65 88 -65 93 0 5 -8 18 -17 29 -10 11 -34 42
-53 69 -19 28 -38 55 -42 60 -45 56 -138 185 -138 193 0 5 -9 17 -20 27 -11
10 -31 37 -45 61 -14 24 -31 47 -38 51 -6 4 -21 26 -32 47 -11 22 -33 57 -50
77 -60 74 -67 84 -78 107 -5 12 -14 22 -19 22 -4 0 -8 5 -8 11 0 6 -14 29 -32
51 -17 22 -41 54 -53 71 -12 18 -65 94 -118 170 -53 75 -93 137 -90 137 4 0
-3 10 -15 23 -17 18 -21 31 -16 56 4 21 2 37 -8 49 -7 9 -20 28 -26 42 -23 45
-38 59 -88 84 -51 25 -49 25 -159 0 -16 -4 -34 -13 -38 -20 -4 -8 -13 -14 -19
-14 -5 0 -29 -13 -52 -28 -22 -15 -58 -35 -78 -45 -20 -10 -40 -22 -44 -28 -3
-5 -29 -21 -57 -35 -67 -32 -169 -89 -184 -103 -9 -8 -20 1 -42 32 -17 23 -35
47 -41 54 -5 7 -10 16 -10 21 0 4 -28 49 -63 98 -100 142 -112 165 -96 175 8
5 17 9 21 9 11 0 198 190 198 202 0 5 9 23 21 39 11 16 23 44 25 62 2 18 7 46
9 64 8 44 -21 98 -69 130 -34 23 -53 28 -116 30 -53 1 -81 -2 -94 -13z m38
-83 c17 -6 57 -15 90 -22 l58 -13 -5 -39 c-10 -71 -115 -201 -211 -261 -26
-15 -48 -27 -50 -25 -1 2 -13 21 -25 42 -12 20 -28 38 -34 38 -7 1 -22 3 -35
4 -24 2 -42 -20 -42 -52 0 -11 14 -29 30 -41 30 -23 39 -42 20 -42 -6 0 -27
-11 -48 -24 -55 -37 -241 -107 -288 -109 -74 -3 -112 61 -76 126 47 85 103
152 174 210 26 21 53 43 60 50 7 7 31 21 53 32 22 11 42 22 45 25 5 6 62 31
175 79 84 35 72 33 109 22z m792 -646 c9 -8 24 -15 34 -15 19 0 50 -45 50 -73
0 -16 -153 -72 -170 -62 -5 3 -10 1 -10 -5 0 -7 -7 -9 -16 -6 -9 4 -40 -4 -68
-18 -28 -13 -62 -27 -76 -31 -14 -4 -42 -20 -62 -36 -20 -16 -41 -29 -47 -29
-5 0 -11 -4 -13 -8 -1 -5 -25 -26 -53 -47 -27 -20 -57 -46 -66 -56 -9 -11 -34
-33 -55 -50 -89 -69 -108 -86 -153 -130 -54 -53 -98 -105 -112 -131 -32 -59
-53 -64 -97 -24 -21 18 -23 27 -17 70 7 52 31 92 102 165 24 24 43 48 43 52 0
5 6 9 14 9 7 0 20 8 27 17 32 38 132 103 160 103 19 0 32 6 36 18 7 18 28 42
37 42 3 0 35 18 71 40 36 22 70 40 75 40 5 0 13 6 17 14 4 7 25 19 46 25 20 7
37 16 37 19 0 4 21 18 48 32 26 14 56 33 66 42 11 10 32 18 48 18 15 0 28 4
28 9 0 8 13 13 53 20 5 0 15 -6 23 -14z m188 -281 c23 -29 65 -85 94 -125 29
-41 56 -78 60 -84 8 -11 49 -68 158 -225 37 -52 77 -108 90 -125 36 -46 50
-65 91 -126 21 -31 48 -70 61 -85 12 -16 36 -49 52 -74 35 -53 76 -111 89
-126 4 -6 34 -48 66 -95 32 -46 75 -106 96 -133 22 -27 39 -54 39 -60 0 -6 10
-23 23 -38 42 -49 52 -63 69 -90 22 -34 27 -32 -122 -54 -25 -4 -61 -17 -80
-30 -19 -13 -47 -26 -63 -29 -15 -4 -30 -11 -33 -16 -3 -5 -35 -27 -72 -48
-63 -37 -148 -113 -234 -209 -41 -45 -118 -155 -118 -168 0 -5 -9 -20 -20 -34
l-19 -25 -41 40 c-22 22 -47 54 -54 70 -13 29 -34 52 -87 98 -14 12 -30 30
-35 39 -5 10 -24 35 -42 55 -39 45 -145 189 -186 253 -25 39 -48 68 -123 155
-10 12 -23 33 -30 47 -17 39 -125 178 -133 173 -4 -2 -7 1 -7 8 0 20 -65 106
-85 113 -10 3 -18 12 -18 20 0 23 -31 77 -51 92 -11 7 -19 17 -19 22 0 6 -18
36 -41 67 -22 32 -50 73 -61 91 -11 17 -24 32 -29 32 -5 0 -9 5 -9 12 0 6 -11
25 -24 43 -14 17 -34 48 -45 68 -20 35 -20 38 -3 68 17 32 86 109 97 109 6 0
39 29 96 83 11 9 23 17 27 17 4 0 32 25 62 56 59 59 178 144 203 144 9 0 23 7
32 16 10 10 40 18 82 22 36 3 86 13 111 22 25 10 68 17 96 16 47 -1 52 -3 90
-52z m1070 -1644 c1 -69 -1 -137 -5 -152 -4 -15 -4 -30 1 -33 14 -9 -13 -77
-35 -85 -11 -5 -41 -16 -66 -25 -67 -24 -125 -82 -140 -138 -6 -25 -17 -48
-24 -50 -6 -3 -45 1 -85 9 -40 7 -116 18 -169 24 -142 15 -222 31 -228 46 -5
15 36 104 49 104 4 0 8 6 8 13 0 6 15 28 33 48 17 21 40 48 50 62 10 13 40 42
67 63 27 22 47 45 45 52 -3 7 5 12 20 12 14 0 25 5 25 10 0 6 12 16 28 23 15
6 37 22 50 34 13 13 28 23 35 23 7 0 30 12 51 26 42 29 170 59 245 59 l43 -1
2 -124z"/>
<path d="M1367 3033 c-14 -13 -6 -30 33 -73 22 -24 40 -50 40 -58 0 -7 -12
-23 -26 -35 -57 -47 -114 -114 -114 -134 0 -22 29 -27 50 -8 11 10 20 23 20
29 0 7 23 33 51 59 60 56 54 58 136 -51 31 -43 67 -87 80 -100 13 -13 23 -26
23 -31 0 -11 -39 -51 -50 -51 -17 0 -40 -32 -40 -55 0 -15 7 -25 22 -28 12 -4
23 -5 23 -4 10 24 59 87 68 87 11 0 29 -22 135 -157 l32 -42 -24 -23 c-13 -13
-31 -28 -41 -34 -13 -7 -16 -17 -12 -36 6 -21 11 -24 32 -20 14 2 25 8 25 14
0 5 10 22 21 38 l22 29 28 -31 c16 -16 29 -32 29 -35 0 -3 20 -29 45 -57 25
-29 45 -57 45 -62 0 -5 -22 -31 -50 -59 -53 -54 -60 -74 -32 -92 24 -15 43 0
69 56 3 8 15 23 26 34 20 20 20 20 41 -9 12 -16 33 -42 48 -58 16 -16 28 -32
28 -35 0 -3 11 -19 24 -34 l24 -28 -24 -37 c-13 -20 -31 -46 -39 -57 -20 -25
-19 -32 5 -45 17 -9 23 -6 39 22 40 67 60 74 88 31 10 -16 21 -30 25 -33 4 -3
18 -21 31 -41 l24 -35 -39 -38 c-21 -21 -38 -43 -38 -49 0 -6 -10 -21 -22 -34
-17 -18 -19 -26 -10 -35 18 -18 54 7 77 55 26 54 124 113 202 121 56 6 93 20
93 36 0 6 -6 10 -12 10 -9 0 -8 4 2 10 13 9 13 12 -4 25 -16 12 -21 12 -40 0
-11 -8 -30 -15 -43 -15 -12 0 -25 -5 -28 -11 -4 -6 -13 -8 -21 -5 -7 3 -16 1
-19 -5 -4 -5 -20 -16 -36 -24 -28 -15 -30 -15 -39 7 -5 13 -29 46 -55 73 -41
45 -44 51 -28 63 9 6 28 12 42 12 50 1 79 48 49 78 -17 17 -31 15 -54 -5 -17
-16 -79 -43 -97 -43 -4 0 -7 6 -7 13 0 7 -11 21 -25 31 -14 11 -33 34 -41 53
-9 18 -20 33 -25 33 -5 0 -9 5 -9 12 0 6 -7 19 -15 28 -13 15 -10 17 34 29 41
10 51 18 60 42 5 16 8 30 5 30 -2 1 -7 2 -11 3 -5 1 -13 5 -19 8 -6 4 -19 -1
-29 -12 -10 -11 -26 -20 -36 -20 -10 0 -21 -4 -24 -10 -16 -25 -44 -4 -102 75
-35 47 -57 85 -50 86 6 0 34 2 60 3 49 2 67 14 67 49 0 15 -15 22 -45 19 -5 0
-37 -8 -69 -16 -33 -9 -63 -13 -66 -9 -32 35 -140 175 -140 181 0 12 75 52 98
52 25 0 46 25 38 46 -9 23 -84 13 -105 -14 -9 -11 -30 -22 -48 -25 -29 -6 -34
-2 -86 67 -30 39 -62 79 -71 88 -9 9 -16 20 -16 24 0 4 -7 16 -16 26 -14 14
-14 20 -4 33 7 8 19 15 26 15 8 0 14 5 14 10 0 6 7 10 15 10 8 0 15 5 15 10 0
6 9 10 19 10 11 0 23 5 26 10 4 6 11 7 17 4 14 -9 27 14 21 37 -6 22 -8 23
-53 6 -52 -19 -93 -42 -114 -66 -22 -25 -36 -27 -36 -6 0 8 -4 15 -8 15 -4 0
-21 20 -36 45 -26 41 -52 55 -69 38z"/>
</g>
</svg>
