<?xml version="1.0" standalone="no"?>
<!DOCTYPE svg PUBLIC "-//W3C//DTD SVG 20010904//EN"
 "http://www.w3.org/TR/2001/REC-SVG-20010904/DTD/svg10.dtd">
<svg version="1.0" xmlns="http://www.w3.org/2000/svg"
 width="521.000000pt" height="341.000000pt" viewBox="0 0 521.000000 341.000000"
 preserveAspectRatio="xMidYMid meet">
<metadata>
Created by potrace 1.16, written by Peter Selinger 2001-2019
</metadata>
<g transform="translate(0.000000,341.000000) scale(0.100000,-0.100000)"
fill="#000000" stroke="none">
<path d="M955 3049 c-97 -10 -188 -65 -281 -170 -16 -18 -43 -45 -60 -59 -61
-53 -134 -151 -134 -179 0 -7 -8 -23 -17 -38 -37 -57 -63 -139 -69 -223 -6
-76 -4 -92 17 -140 29 -67 108 -149 174 -181 28 -13 52 -27 55 -30 3 -3 28
-14 55 -25 28 -10 61 -24 75 -31 14 -7 33 -13 42 -13 9 0 19 -4 22 -9 3 -5 23
-12 43 -16 21 -4 42 -10 48 -13 5 -3 20 -7 33 -8 13 -2 42 -12 65 -24 22 -12
79 -37 126 -57 107 -43 224 -96 231 -103 3 -3 43 -25 90 -49 47 -24 99 -54
115 -66 17 -12 39 -25 51 -29 19 -6 150 -87 167 -103 5 -5 38 -40 75 -78 37
-39 83 -84 104 -100 99 -81 138 -116 205 -179 40 -38 83 -76 96 -85 12 -8 32
-25 44 -38 12 -13 26 -23 31 -23 6 0 23 -15 39 -32 46 -53 189 -155 201 -144
3 3 11 1 19 -5 7 -6 13 -9 13 -6 0 3 24 -1 53 -9 51 -14 149 -30 237 -38 84
-8 155 -17 195 -26 22 -5 56 -11 75 -15 19 -3 58 -10 85 -15 83 -16 107 -20
168 -31 32 -5 78 -16 103 -25 24 -8 49 -12 54 -9 6 3 16 3 22 -1 7 -5 19 -9
28 -10 8 0 51 -8 95 -17 44 -9 118 -21 165 -27 115 -14 128 -17 248 -50 180
-51 279 -33 404 72 12 10 25 18 29 18 5 0 16 14 25 32 9 17 24 39 33 50 10 10
22 28 28 41 6 12 22 47 37 77 14 30 26 59 26 64 0 4 6 22 14 39 36 80 95 289
89 317 -1 3 -4 40 -7 83 -3 44 -8 82 -10 86 -3 4 -7 18 -9 32 -3 13 -26 77
-51 141 -25 65 -46 122 -46 128 0 5 -3 10 -8 10 -4 0 -16 16 -26 35 -11 20
-42 55 -69 78 -27 23 -55 48 -62 54 -8 7 -16 13 -19 13 -6 0 -36 23 -60 46
-16 15 -223 114 -239 114 -7 0 -28 8 -47 19 -19 10 -43 17 -53 15 -14 -2 -17
2 -12 14 33 87 35 353 3 415 -5 10 -11 26 -13 36 -5 29 -115 227 -147 266 -17
19 -55 52 -85 71 -96 62 -287 84 -423 50 -8 -2 -30 -7 -47 -11 -18 -4 -33 -11
-33 -15 0 -4 -12 -11 -27 -15 -15 -3 -53 -22 -86 -41 -32 -19 -62 -34 -68 -34
-5 0 -9 -3 -9 -8 0 -4 -20 -29 -45 -56 -25 -27 -45 -55 -45 -63 0 -7 -8 -21
-18 -31 -11 -11 -33 -40 -51 -65 -31 -46 -48 -56 -67 -38 -12 12 -156 45 -279
65 -16 3 -102 12 -190 21 -88 8 -176 17 -195 20 -42 6 -197 39 -213 45 -1 1
-47 14 -102 30 -101 29 -243 75 -280 91 -11 5 -42 16 -70 23 -27 8 -77 24
-110 36 -33 11 -67 22 -75 24 -8 1 -32 10 -53 19 -21 9 -48 18 -60 20 -12 2
-40 12 -62 22 -70 31 -90 38 -97 37 -4 -1 -26 5 -50 14 -24 9 -54 18 -68 20
-14 3 -29 6 -35 7 -5 2 -37 0 -70 -4z m139 -132 c10 -9 23 -17 31 -17 42 0 58
-104 29 -195 -8 -27 -18 -61 -20 -75 -7 -31 -67 -158 -91 -189 -10 -13 -45
-51 -79 -85 -114 -115 -265 -165 -368 -122 -20 8 -36 12 -36 9 0 -20 -49 44
-58 75 -19 66 4 187 48 252 10 14 23 41 29 60 14 42 165 202 235 250 27 18 61
34 75 36 14 1 27 7 28 11 2 5 39 8 82 8 60 -1 82 -5 95 -18z m231 -41 c17 -5
44 -14 60 -21 17 -7 48 -18 70 -25 22 -7 54 -19 70 -25 17 -7 102 -37 190 -65
88 -29 164 -57 169 -61 6 -5 20 -9 33 -9 12 0 32 -4 45 -9 39 -16 62 -24 77
-27 8 -1 46 -10 85 -18 104 -24 113 -25 206 -36 99 -12 139 -17 235 -25 39 -3
93 -10 120 -15 28 -6 64 -12 80 -13 17 -2 37 -6 45 -9 8 -4 37 -14 63 -24 51
-18 62 -28 52 -45 -5 -6 -11 -4 -19 7 -10 13 -23 16 -58 12 -25 -3 -52 -2 -60
3 -15 8 -90 -24 -96 -42 -2 -5 -8 -9 -13 -9 -19 0 -59 -53 -66 -89 -15 -80 -3
-181 22 -181 8 0 15 -7 15 -15 0 -9 20 -28 45 -43 24 -15 45 -32 45 -39 0 -16
124 -9 179 11 24 9 55 16 69 16 14 0 40 11 58 25 18 14 36 25 40 25 9 0 154
150 154 160 0 4 9 17 20 30 11 13 20 29 20 37 0 9 8 12 23 9 12 -3 40 -8 62
-11 22 -4 45 -11 52 -17 7 -5 16 -7 21 -4 19 11 182 -56 224 -92 10 -8 24 -12
32 -9 9 4 18 2 22 -4 4 -6 12 -5 22 3 14 11 15 10 9 -5 -4 -11 -12 -51 -18
-89 -7 -43 -18 -79 -30 -91 -15 -16 -17 -29 -12 -61 10 -65 27 -83 91 -97 31
-6 64 -15 74 -20 28 -15 127 -23 192 -16 24 3 32 11 42 41 7 20 11 43 8 50 -3
8 0 17 5 21 6 3 8 11 5 17 -5 7 2 9 22 4 16 -4 45 -10 65 -15 19 -4 50 -15 67
-24 18 -9 47 -25 65 -34 17 -9 46 -27 63 -40 17 -13 34 -23 39 -23 21 0 175
-142 175 -161 0 -6 9 -19 20 -31 11 -12 20 -28 20 -35 0 -8 14 -41 31 -75 54
-106 81 -295 54 -367 -8 -20 -23 -70 -34 -112 -11 -42 -24 -85 -29 -95 -5 -11
-15 -32 -22 -49 -6 -16 -18 -43 -26 -58 -8 -16 -14 -35 -14 -43 0 -8 -4 -14
-10 -14 -5 0 -10 -5 -10 -11 0 -23 -71 -119 -108 -146 -20 -15 -39 -30 -42
-33 -3 -3 -24 -14 -47 -24 -41 -18 -84 -18 -150 -2 -13 3 -33 8 -45 11 -13 3
-34 8 -48 11 -14 3 -31 6 -37 6 -7 1 -13 5 -13 10 0 5 -4 7 -8 4 -4 -3 -26 -1
-48 4 -21 5 -70 11 -109 15 -38 4 -92 11 -120 17 -27 5 -57 11 -65 12 -8 1
-33 7 -55 14 -22 6 -58 13 -80 16 -22 3 -76 14 -120 24 -123 29 -247 52 -282
52 -17 0 -44 5 -59 10 -14 6 -82 17 -150 25 -67 8 -133 17 -146 19 -13 3 -36
8 -53 11 -115 20 -142 27 -181 47 -23 13 -64 43 -91 68 -26 25 -66 58 -88 74
-22 16 -48 37 -57 47 -9 9 -37 32 -62 50 -26 18 -54 47 -65 64 -10 17 -35 39
-54 49 -34 15 -103 75 -198 169 -21 20 -42 37 -46 37 -4 0 -19 16 -32 36 -14
19 -38 42 -55 51 -17 9 -33 19 -36 22 -6 9 -183 126 -190 126 -3 1 -34 16 -70
34 -36 18 -74 35 -85 37 -11 2 -21 8 -23 14 -3 8 -124 70 -138 70 -3 0 -34 14
-69 30 -35 17 -67 30 -71 30 -3 0 -18 9 -34 20 -15 11 -30 17 -33 14 -3 -3
-33 8 -67 25 -33 17 -68 31 -76 31 -9 0 -30 6 -47 14 -18 8 -54 22 -80 30 -27
9 -63 24 -80 33 -18 10 -35 17 -39 18 -3 0 -9 3 -13 6 -3 4 13 9 35 13 23 3
49 10 58 15 9 5 35 17 57 27 46 19 129 77 165 114 68 69 121 137 127 160 3 14
19 50 34 80 31 62 69 236 69 315 0 68 -2 67 65 51z m2451 -62 c60 -25 100 -59
146 -127 48 -69 57 -88 99 -201 40 -110 38 -187 -10 -456 -5 -25 -15 -57 -22
-72 -15 -29 -51 -42 -68 -25 -6 6 -11 8 -11 4 0 -4 -10 -2 -22 4 -12 6 -33 13
-47 14 -81 8 -84 20 -44 146 23 73 26 100 26 206 -1 130 -21 226 -54 261 -9
10 -21 28 -28 39 -16 31 -111 73 -168 74 -61 2 -129 -9 -170 -27 -33 -15 -133
-120 -133 -140 0 -6 -11 -23 -25 -38 -13 -14 -26 -38 -28 -52 -2 -14 -8 -29
-15 -33 -6 -4 -18 -24 -27 -44 -9 -21 -22 -40 -30 -44 -8 -3 -15 -14 -15 -24
0 -10 -4 -19 -10 -19 -5 0 -20 -10 -34 -22 -57 -53 -102 -79 -144 -84 -21 -3
-63 -11 -94 -18 -32 -7 -58 -11 -58 -7 0 3 -12 12 -27 19 -32 14 -73 72 -73
103 0 29 18 59 53 92 33 29 42 32 52 17 3 -5 2 -10 -3 -10 -15 0 -21 -51 -9
-77 13 -28 46 -30 90 -5 40 23 138 121 157 158 8 16 27 42 42 59 15 16 61 75
102 130 76 101 89 115 116 128 8 4 22 11 30 16 29 18 94 44 154 61 76 22 241
19 302 -6z m-139 -239 c34 -17 71 -57 75 -82 2 -10 6 -20 10 -24 8 -5 28 -99
28 -131 0 -22 -15 -20 -95 17 -27 13 -72 31 -100 40 -27 10 -57 20 -65 22 -8
3 -26 7 -40 9 -14 2 -41 6 -60 10 -19 4 -38 7 -42 6 -18 -4 -6 28 23 64 30 38
87 76 101 68 4 -2 9 0 12 5 9 15 121 12 153 -4z"/>
</g>
</svg>
