<?xml version="1.0" standalone="no"?>
<!DOCTYPE svg PUBLIC "-//W3C//DTD SVG 20010904//EN"
 "http://www.w3.org/TR/2001/REC-SVG-20010904/DTD/svg10.dtd">
<svg version="1.0" xmlns="http://www.w3.org/2000/svg"
 width="457.000000pt" height="359.000000pt" viewBox="0 0 457.000000 359.000000"
 preserveAspectRatio="xMidYMid meet">
<metadata>
Created by potrace 1.16, written by Peter Selinger 2001-2019
</metadata>
<g transform="translate(0.000000,359.000000) scale(0.100000,-0.100000)"
fill="#000000" stroke="none">
<path d="M3083 3579 c-18 -5 -48 -29 -71 -57 -54 -65 -63 -85 -101 -222 -4
-14 -4 -42 -1 -62 4 -21 3 -38 -2 -38 -4 0 -8 -10 -8 -23 0 -12 -7 -54 -15
-92 -9 -39 -20 -97 -26 -130 -5 -33 -14 -68 -19 -77 -9 -17 -25 -136 -22 -168
4 -52 16 -80 36 -86 11 -3 28 -12 36 -19 8 -7 34 -19 58 -26 37 -11 47 -10 78
5 20 9 38 26 41 36 3 11 8 20 12 20 19 0 47 74 58 155 21 151 64 340 82 358
26 26 125 -54 203 -165 22 -32 49 -60 59 -63 11 -4 19 -13 19 -20 0 -8 22 -33
50 -56 27 -23 69 -67 92 -98 24 -31 60 -73 80 -93 21 -21 38 -41 38 -44 0 -3
14 -19 30 -36 17 -16 30 -34 30 -39 0 -13 42 -59 54 -59 17 0 38 -50 23 -55
-23 -8 -148 -35 -155 -33 -4 1 -20 -4 -36 -11 -16 -6 -36 -13 -46 -14 -9 -2
-28 -10 -42 -19 -13 -9 -41 -21 -61 -26 -20 -6 -49 -20 -63 -31 -15 -12 -31
-21 -36 -21 -11 0 -262 -193 -281 -216 -6 -9 -20 -24 -29 -35 -10 -10 -18 -21
-18 -24 0 -11 -65 -95 -74 -96 -6 0 -49 -2 -96 -4 -47 -2 -85 -5 -85 -5 0 -1
-20 -4 -45 -6 -28 -3 -61 -16 -86 -34 -22 -16 -52 -32 -65 -35 -14 -3 -38 -18
-54 -33 -53 -48 -104 -82 -109 -74 -19 31 -191 37 -326 12 -24 -5 -48 -6 -52
-4 -5 3 -8 1 -8 -5 0 -11 -73 -35 -102 -33 -10 0 -20 -3 -23 -9 -4 -5 -15 -9
-26 -9 -10 0 -27 -4 -37 -9 -9 -5 -46 -21 -82 -36 -36 -14 -83 -35 -105 -45
-22 -10 -60 -27 -85 -38 -45 -20 -180 -118 -211 -154 -9 -10 -19 -18 -23 -18
-4 0 -19 -11 -34 -25 -15 -14 -30 -25 -35 -25 -4 0 -26 -16 -47 -36 -22 -20
-49 -43 -60 -51 -21 -15 -18 -20 -51 62 -4 11 -15 45 -25 75 -9 30 -32 77 -49
105 -18 28 -46 77 -62 110 -17 33 -44 87 -61 120 -16 33 -38 80 -48 105 -10
25 -21 47 -24 50 -4 3 -21 30 -38 60 -18 30 -37 62 -42 70 -5 8 -19 38 -31 65
-11 28 -25 57 -30 65 -5 8 -12 22 -16 30 -3 8 -16 29 -28 45 -12 17 -26 41
-30 55 -4 14 -17 39 -30 55 -12 17 -30 45 -39 63 -16 31 -35 58 -63 87 -7 8
-13 18 -13 24 0 6 -3 11 -8 11 -4 0 -26 18 -50 40 -23 22 -42 37 -42 34 0 -4
-11 1 -25 10 -26 17 -65 20 -128 9 -31 -5 -44 -14 -63 -44 -13 -21 -24 -52
-24 -68 0 -16 -5 -42 -10 -57 -12 -30 -18 -69 -25 -169 -3 -38 -8 -81 -11 -95
-4 -14 -8 -43 -10 -65 -2 -22 -5 -53 -8 -70 -3 -16 -8 -84 -12 -150 -6 -112
-5 -124 16 -170 20 -44 70 -116 70 -101 0 3 17 -3 37 -14 76 -40 126 -36 179
15 37 36 47 56 56 103 11 59 10 51 5 158 l-5 91 29 -26 c16 -14 29 -31 29 -37
0 -6 7 -17 15 -24 16 -13 75 -115 75 -129 0 -16 66 -147 87 -172 6 -8 12 -18
13 -24 3 -14 35 -72 70 -125 16 -25 40 -65 52 -90 13 -24 29 -51 36 -60 29
-33 77 -99 125 -170 28 -41 80 -105 116 -142 36 -36 84 -90 106 -118 22 -28
54 -68 71 -88 17 -20 43 -59 58 -86 26 -48 68 -107 94 -134 6 -7 12 -17 12
-22 0 -4 8 -10 18 -14 19 -6 54 -27 62 -37 8 -10 173 -89 186 -89 14 0 77 -32
82 -40 3 -8 300 -4 377 4 33 4 85 19 115 34 62 30 170 99 185 118 6 7 29 28
52 46 23 18 75 72 116 121 85 99 97 132 118 311 11 98 5 268 -11 310 -4 12
-11 46 -15 76 -11 84 -14 95 -25 98 -26 9 -4 41 69 99 32 26 43 28 143 31 74
3 108 1 108 -7 0 -6 -4 -11 -10 -11 -22 0 2 -80 24 -80 6 0 22 -18 36 -40 25
-41 118 -145 129 -145 4 0 13 -6 21 -13 37 -32 172 -111 235 -138 116 -49 237
-40 428 30 31 11 57 24 57 28 0 5 4 8 10 8 31 0 220 154 220 180 0 10 28 62
56 105 14 21 24 56 28 95 0 8 5 18 11 22 5 4 10 13 10 20 1 19 24 155 36 209
17 76 14 297 -4 349 -8 25 -18 61 -20 80 -6 42 -59 194 -69 198 -4 2 -5 9 -2
16 3 8 -2 16 -10 19 -9 4 -16 14 -16 23 0 12 -6 15 -24 10 -21 -5 -27 0 -45
37 -20 41 -92 127 -106 127 -7 0 -85 79 -85 86 0 3 -12 17 -26 31 -26 26 -89
122 -89 135 0 4 -25 34 -55 66 -30 32 -62 71 -70 87 -8 17 -20 35 -26 40 -6 6
-37 42 -69 80 -31 39 -90 105 -131 148 -41 43 -74 82 -74 87 0 5 -17 18 -37
29 -21 11 -48 29 -60 40 -12 12 -28 21 -36 21 -7 0 -19 6 -25 13 -7 6 -16 12
-20 13 -11 1 -45 14 -64 25 -22 11 -92 10 -135 -2z m157 -110 c25 -16 65 -38
90 -50 47 -24 110 -85 213 -209 34 -41 74 -86 90 -101 15 -15 27 -32 27 -38 0
-6 4 -11 10 -11 5 0 17 -14 25 -31 9 -17 27 -43 40 -57 74 -84 85 -99 91 -116
7 -21 85 -126 108 -146 9 -7 16 -17 16 -22 0 -11 66 -78 78 -78 20 0 92 -97
92 -125 0 -2 -20 -7 -45 -11 -35 -5 -50 -3 -64 10 -10 9 -21 16 -25 16 -12 0
-129 128 -152 165 -25 42 -92 122 -159 191 -94 97 -139 148 -228 261 -31 39
-125 126 -151 140 -45 23 -132 13 -154 -18 -9 -13 -16 -27 -14 -31 1 -4 -4
-27 -12 -50 -20 -61 -27 -96 -32 -148 -2 -25 -11 -70 -20 -100 -8 -30 -18 -81
-21 -112 -9 -92 -73 -147 -117 -99 -20 22 -17 59 29 271 3 14 14 99 25 189 11
91 24 169 30 175 5 5 10 20 10 33 0 12 6 26 13 30 7 4 21 21 31 38 46 71 98
81 176 34z m-305 -449 c-3 -5 -11 -10 -16 -10 -6 0 -7 5 -4 10 3 6 11 10 16
10 6 0 7 -4 4 -10z m-2495 -560 c14 -11 30 -20 36 -20 6 0 17 -11 24 -25 7
-14 19 -25 27 -25 7 0 13 -9 13 -20 0 -11 8 -28 18 -38 34 -37 48 -58 86 -137
22 -44 43 -82 46 -85 4 -3 25 -41 47 -85 48 -96 99 -191 122 -225 10 -14 28
-51 40 -82 13 -32 31 -67 42 -79 10 -12 16 -26 13 -30 -3 -5 -2 -9 3 -9 4 0
13 -10 19 -23 6 -12 36 -70 67 -128 32 -58 57 -112 57 -120 0 -8 10 -34 22
-59 12 -25 20 -49 19 -53 -1 -5 7 -20 18 -35 18 -25 25 -55 22 -92 -1 -10 -11
-5 -31 17 -17 18 -30 34 -30 37 0 6 -15 25 -62 81 -16 18 -28 38 -28 44 0 6
-5 11 -10 11 -6 0 -14 10 -19 23 -5 12 -21 39 -35 60 -14 21 -26 44 -26 52 0
8 -4 15 -10 15 -5 0 -10 6 -10 14 0 7 -14 31 -31 52 -17 22 -67 112 -110 202
-44 89 -110 206 -147 260 -86 124 -115 189 -124 279 -3 24 -64 39 -85 21 -11
-9 -13 -23 -7 -57 12 -69 18 -443 8 -496 -7 -38 -9 -41 -43 -53 -26 -9 -35 -7
-70 18 -33 25 -41 37 -47 76 -7 50 1 184 23 364 4 30 8 75 9 100 1 25 11 87
22 138 27 125 63 158 122 112z m3756 -78 c6 -4 18 -27 28 -52 10 -25 24 -55
32 -67 8 -13 17 -44 20 -70 8 -67 8 -67 19 -75 6 -4 10 -59 10 -130 -1 -128
-24 -255 -66 -363 -10 -28 -19 -56 -19 -63 0 -21 -39 -92 -51 -92 -6 0 -7 -4
-4 -10 3 -5 1 -10 -4 -10 -6 0 -11 -6 -11 -13 0 -17 -79 -94 -121 -117 -46
-25 -163 -84 -169 -85 -3 -1 -40 -9 -83 -19 -52 -12 -90 -16 -115 -10 -20 4
-42 8 -48 10 -33 6 -156 72 -162 87 -2 4 -8 7 -13 7 -13 0 -119 78 -142 104
-79 91 -99 114 -117 139 -13 16 -31 27 -46 27 -27 0 -31 16 -9 40 13 14 13 19
-1 38 -14 21 -21 22 -82 17 -88 -8 -82 -7 -119 -2 -24 3 -46 -5 -93 -34 -33
-22 -63 -39 -66 -39 -13 0 -94 -92 -89 -101 4 -5 2 -16 -4 -23 -8 -10 -7 -21
3 -42 10 -18 12 -32 6 -39 -6 -7 -7 -15 -3 -19 4 -4 8 -15 8 -24 1 -36 18
-117 26 -128 5 -6 11 -62 15 -125 7 -150 -21 -319 -62 -369 -20 -23 -27 -31
-113 -114 -28 -27 -51 -53 -51 -58 0 -4 -9 -8 -20 -8 -11 0 -20 -4 -20 -10 0
-5 -21 -24 -47 -41 -27 -18 -50 -35 -53 -38 -14 -17 -116 -42 -195 -48 -161
-14 -255 -7 -318 21 -31 14 -61 26 -67 26 -18 0 -176 86 -197 107 -10 10 -29
34 -43 53 -13 19 -27 37 -31 40 -3 3 -16 23 -27 46 -11 22 -28 46 -36 53 -9 8
-16 20 -16 27 0 8 -4 14 -8 14 -14 0 -90 142 -110 205 -19 60 -16 86 13 107 6
5 4 8 -4 8 -15 0 50 65 129 130 23 19 48 41 55 48 8 6 18 12 23 12 6 0 12 3
14 8 8 18 107 91 158 116 30 14 70 35 89 47 18 11 50 26 70 33 20 8 67 26 105
40 38 14 71 24 74 21 3 -3 10 -1 16 4 6 6 29 12 51 15 22 2 57 12 78 21 31 13
61 15 155 10 136 -6 170 -9 178 -18 9 -9 35 3 70 32 33 28 45 36 114 79 97 60
118 66 240 68 63 0 120 2 125 4 6 1 20 1 32 1 14 -2 24 5 28 19 4 11 31 48 61
83 30 34 54 67 54 73 0 6 11 17 25 24 14 7 25 17 25 22 0 4 5 8 11 8 7 0 22
10 34 23 38 39 215 167 230 167 3 0 24 9 48 19 85 39 180 65 235 65 12 0 22 3
22 7 0 4 12 9 28 12 15 3 38 8 52 11 14 3 41 9 60 12 19 4 38 11 41 16 6 9 89
34 119 37 8 0 20 -3 26 -7z"/>
<path d="M4044 2220 c-6 -6 -37 -17 -70 -26 -32 -8 -69 -21 -80 -29 -12 -7
-45 -20 -75 -29 -60 -16 -129 -41 -174 -61 -69 -32 -108 -45 -116 -39 -5 3 -9
0 -9 -5 0 -6 -7 -11 -15 -11 -8 0 -24 -9 -35 -20 -11 -11 -23 -20 -26 -20 -16
0 -143 -109 -144 -123 0 -5 -11 -23 -23 -40 -18 -25 -23 -42 -21 -77 2 -25 4
-62 5 -82 1 -29 11 -48 49 -87 25 -28 50 -51 54 -51 8 0 42 -26 104 -80 19
-16 47 -32 63 -35 16 -4 31 -11 34 -16 4 -5 15 -9 26 -9 11 0 28 -7 36 -16 31
-31 244 -5 287 35 12 11 26 21 30 21 4 0 22 16 39 36 18 20 42 47 55 61 12 13
22 31 22 39 0 7 5 14 10 14 6 0 15 12 20 28 6 15 19 45 29 67 11 23 25 88 32
150 16 134 17 177 7 235 -11 64 -13 69 -26 82 -7 7 -12 23 -12 38 0 14 -4 30
-8 36 -10 16 -57 25 -68 14z m-7 -122 c6 -7 14 -26 18 -43 4 -16 9 -39 12 -50
8 -32 4 -78 -16 -195 -26 -149 -36 -171 -117 -253 -71 -73 -112 -94 -190 -96
-62 -2 -174 30 -174 50 0 5 -6 9 -14 9 -8 0 -47 25 -87 55 -40 30 -76 55 -81
55 -11 0 -47 79 -48 103 0 30 170 187 203 187 8 0 26 9 40 20 14 11 35 20 46
20 12 0 21 5 21 10 0 5 3 9 8 8 8 -2 75 19 117 38 17 7 50 21 75 30 25 9 72
26 105 39 73 28 70 28 82 13z"/>
<path d="M2236 1533 c-3 -4 -12 -8 -19 -10 -96 -22 -192 -54 -209 -71 -7 -7
-17 -12 -23 -12 -15 0 -68 -28 -135 -71 -30 -19 -63 -38 -72 -42 -10 -3 -18
-11 -18 -17 0 -5 -8 -10 -19 -10 -10 0 -50 -30 -87 -67 -38 -38 -91 -79 -117
-92 -26 -13 -47 -28 -47 -33 0 -5 -13 -8 -28 -7 -39 5 -82 -25 -82 -56 0 -25
45 -75 67 -75 6 0 17 -16 24 -35 7 -19 20 -37 29 -40 8 -3 35 -27 58 -54 23
-27 57 -55 75 -62 17 -7 40 -20 49 -28 39 -36 150 -112 169 -114 8 -2 28 -8
44 -14 17 -6 39 -15 50 -19 11 -4 24 -6 29 -5 5 1 12 -3 16 -8 19 -32 218 -44
272 -17 17 9 37 16 44 16 13 0 112 75 131 99 31 42 105 205 112 250 4 28 7
115 7 194 -1 132 -4 150 -36 253 -32 105 -36 112 -67 123 -18 7 -65 14 -105
16 -39 3 -79 7 -88 10 -9 3 -20 2 -24 -2z m168 -114 c2 -2 15 -35 29 -74 21
-56 39 -157 38 -220 0 -34 -10 -146 -16 -179 -17 -85 -113 -246 -148 -246 -6
0 -18 -6 -26 -14 -18 -17 -146 -40 -162 -30 -6 3 -38 13 -72 20 -34 8 -89 28
-122 44 -33 15 -71 33 -85 39 -27 12 -86 52 -110 74 -8 8 -25 20 -38 26 -30
16 -140 131 -148 154 -6 20 32 73 61 83 10 4 28 17 38 30 10 13 25 24 33 24 8
0 14 5 14 10 0 6 6 10 13 10 6 0 25 11 41 25 16 14 32 25 36 25 4 0 25 14 46
31 22 18 62 42 89 55 53 25 82 42 101 60 6 5 38 16 70 23 33 7 79 19 104 25
40 11 206 14 214 5z"/>
</g>
</svg>
