<?xml version="1.0" standalone="no"?>
<!DOCTYPE svg PUBLIC "-//W3C//DTD SVG 20010904//EN"
 "http://www.w3.org/TR/2001/REC-SVG-20010904/DTD/svg10.dtd">
<svg version="1.0" xmlns="http://www.w3.org/2000/svg"
 width="401.000000pt" height="385.000000pt" viewBox="0 0 401.000000 385.000000"
 preserveAspectRatio="xMidYMid meet">
<metadata>
Created by potrace 1.16, written by Peter Selinger 2001-2019
</metadata>
<g transform="translate(0.000000,385.000000) scale(0.100000,-0.100000)"
fill="#000000" stroke="none">
<path d="M1470 3771 c-56 -11 -109 -41 -134 -75 -49 -64 -57 -92 -54 -177 3
-75 5 -81 38 -118 35 -38 48 -45 105 -56 91 -18 94 -18 138 8 43 23 47 24 79
9 18 -9 43 -27 55 -42 73 -86 103 -126 103 -137 0 -7 4 -13 9 -13 4 0 16 -21
26 -47 10 -27 24 -64 32 -83 8 -19 19 -44 23 -55 17 -43 30 -123 31 -185 2
-80 -19 -233 -32 -241 -6 -3 -34 -2 -62 4 -69 12 -157 4 -209 -21 -24 -11 -50
-22 -58 -25 -16 -7 -67 -37 -164 -97 -31 -19 -56 -40 -56 -47 0 -7 -5 -13 -10
-13 -6 0 -16 -12 -22 -27 -7 -16 -24 -39 -38 -53 -15 -14 -37 -42 -49 -62 -17
-29 -29 -38 -50 -38 -38 0 -92 19 -116 41 -11 9 -45 24 -77 32 -31 8 -71 26
-90 39 -18 13 -50 33 -71 43 -92 48 -233 196 -220 233 3 6 0 12 -5 12 -15 0
-50 98 -57 160 -4 30 -9 64 -12 75 -2 11 -7 41 -10 68 -5 46 -4 48 26 58 16 6
33 19 36 30 4 10 13 19 21 19 8 0 14 6 14 14 0 7 7 19 15 26 9 7 14 19 11 26
-3 7 0 14 6 16 18 6 18 131 0 169 -31 65 -104 118 -171 125 -77 8 -90 5 -160
-37 -40 -23 -56 -42 -84 -99 -31 -62 -33 -86 -12 -126 8 -16 15 -37 15 -46 0
-9 8 -23 18 -30 20 -14 20 -24 8 -269 -7 -132 11 -227 65 -349 18 -39 36 -70
40 -70 5 0 9 -6 9 -13 0 -14 162 -175 230 -229 25 -20 56 -39 70 -43 14 -4 43
-17 65 -30 22 -12 78 -34 125 -48 216 -67 205 -65 334 -60 136 6 244 5 326 -1
68 -5 75 -7 126 -34 39 -20 43 -20 57 -4 14 15 21 47 18 79 -3 38 -151 71
-325 73 -55 1 -103 3 -107 6 -4 2 -27 -4 -51 -15 -36 -15 -54 -17 -106 -10
-94 13 -118 18 -149 31 -33 13 -28 12 -78 22 -22 4 -54 16 -71 27 -17 10 -33
16 -36 14 -7 -8 -98 35 -122 56 -11 10 -28 21 -38 25 -10 3 -18 10 -18 15 0 5
-5 9 -12 9 -6 0 -52 41 -101 92 -147 151 -183 259 -172 513 8 163 20 213 60
232 22 10 25 9 25 -8 0 -10 3 -19 8 -19 4 0 7 -43 8 -95 0 -52 6 -100 11 -107
6 -7 11 -43 12 -79 1 -66 40 -187 73 -227 8 -10 23 -34 33 -56 11 -21 37 -55
59 -75 21 -20 57 -53 80 -74 22 -21 63 -49 91 -63 27 -14 57 -35 66 -46 10
-13 30 -22 55 -23 45 -4 92 -20 114 -40 16 -14 106 -37 150 -38 49 -1 100 14
100 28 0 8 4 15 9 15 5 0 21 26 37 58 16 31 41 68 56 81 16 13 28 30 28 36 0
7 18 20 40 29 22 9 40 19 40 24 0 15 125 79 179 92 74 17 161 8 184 -21 9 -12
17 -26 17 -33 0 -7 16 -11 39 -11 36 0 40 2 45 30 4 16 6 37 7 45 0 15 7 44
28 127 15 56 16 268 1 322 -6 23 -13 54 -15 69 -6 52 -19 87 -47 135 -16 27
-30 56 -31 65 -11 61 -175 281 -199 266 -4 -3 -8 0 -8 5 0 6 -7 11 -15 11 -20
0 -19 7 5 37 11 14 17 30 14 35 -10 15 57 -1 86 -20 14 -10 42 -26 63 -37 21
-11 43 -28 48 -37 5 -10 14 -18 19 -18 15 0 49 -33 44 -42 -3 -4 2 -11 10 -14
9 -3 16 -13 16 -22 0 -8 3 -12 7 -9 16 17 136 -193 148 -258 4 -22 11 -45 15
-50 13 -16 14 -246 1 -277 -6 -16 -8 -28 -6 -28 3 0 -1 -16 -9 -35 -8 -19 -13
-35 -11 -35 2 0 -2 -19 -11 -42 -8 -22 -12 -43 -10 -46 3 -2 -1 -17 -9 -32 -8
-15 -16 -40 -19 -55 -3 -14 -9 -32 -14 -38 -5 -7 -12 -28 -16 -48 -3 -20 -15
-54 -26 -77 -11 -23 -20 -45 -20 -51 0 -13 -33 -75 -42 -79 -5 -2 -8 -17 -8
-33 0 -27 -16 -66 -31 -79 -4 -3 -9 -14 -13 -25 -3 -11 -30 -35 -59 -54 -121
-80 -126 -100 -43 -180 65 -64 88 -91 79 -91 -5 0 -1 -6 7 -13 28 -23 60 -76
68 -114 10 -46 7 -144 -7 -233 -6 -36 -12 -78 -15 -95 -2 -16 -14 -64 -26
-105 -74 -255 -92 -492 -46 -624 14 -38 38 -89 55 -113 17 -24 31 -48 31 -53
0 -6 4 -10 9 -10 5 0 19 -16 32 -35 13 -19 31 -37 39 -40 8 -3 39 -27 69 -54
30 -28 57 -49 60 -48 3 1 33 -11 65 -27 48 -23 74 -28 140 -30 97 -1 246 35
371 91 44 20 91 41 105 47 44 19 133 92 182 147 94 109 108 127 108 138 0 6 4
11 8 11 5 0 14 12 21 28 7 15 28 50 47 79 19 28 34 56 34 63 0 9 10 28 36 68
1 2 10 -1 21 -6 66 -35 80 -37 209 -37 93 0 137 4 146 12 6 7 26 13 44 13 56
0 174 129 174 192 0 8 4 18 9 24 5 5 16 45 26 89 29 133 13 241 -58 385 -33
67 -145 190 -173 190 -8 0 -17 7 -20 15 -6 14 -93 62 -106 58 -4 -2 -35 7 -70
18 -108 35 -221 17 -345 -55 -13 -7 -36 -26 -52 -43 -16 -17 -35 -35 -43 -40
-22 -13 -87 -109 -113 -168 -29 -62 -30 -95 -11 -220 9 -59 23 -106 40 -137
30 -53 33 -80 11 -102 -8 -8 -15 -17 -15 -20 0 -3 -16 -28 -35 -55 -19 -26
-35 -53 -35 -60 0 -6 -4 -11 -9 -11 -11 0 -91 -104 -131 -171 -25 -40 -88 -79
-157 -95 -16 -4 -34 -12 -41 -17 -22 -17 -182 -13 -217 5 -34 18 -105 80 -105
92 0 4 -9 21 -21 37 -11 16 -17 29 -13 29 3 0 1 7 -7 16 -21 26 -24 173 -4
241 100 344 123 470 106 568 -12 65 -67 224 -85 244 -8 9 -26 40 -41 70 -14
29 -36 63 -48 75 -52 52 -60 74 -55 158 3 44 10 83 15 86 12 7 113 272 118
307 1 11 8 33 14 48 6 16 11 39 11 53 0 13 5 24 10 24 6 0 10 10 10 23 0 12 9
49 19 83 12 36 17 75 14 97 -3 25 -1 37 7 37 9 0 9 4 0 16 -8 9 -13 37 -12 67
1 29 -3 77 -9 107 -12 64 -114 280 -155 330 -54 63 -184 190 -196 190 -6 0
-19 6 -27 14 -9 7 -41 21 -71 31 -30 10 -61 22 -68 28 -7 5 -15 7 -18 4 -11
-11 -81 31 -99 60 -10 15 -23 33 -29 38 -13 12 -64 35 -74 34 -4 -1 -23 -4
-42 -8z m63 -131 c6 -14 11 -31 13 -39 3 -15 44 -56 44 -44 0 4 5 2 11 -4 12
-12 -42 -104 -69 -115 -41 -16 -128 0 -157 28 -16 16 -22 134 -7 134 4 0 12
10 17 22 15 35 125 79 134 54 2 -6 8 -22 14 -36z m-1081 -374 c9 8 69 -25 90
-50 9 -11 15 -27 13 -33 -2 -7 0 -13 4 -13 8 0 8 -17 -1 -77 -1 -7 -5 -13 -10
-13 -4 0 -8 -7 -8 -15 0 -8 -7 -15 -15 -15 -17 0 -20 31 -4 47 13 13 1 63 -16
63 -7 0 -15 5 -17 12 -3 9 -20 6 -62 -10 -45 -17 -62 -20 -73 -11 -10 9 -20 9
-39 1 -20 -10 -26 -9 -30 3 -10 25 40 80 86 95 22 7 43 17 46 22 3 5 11 4 18
-1 7 -6 15 -8 18 -5z m3031 -1622 c50 -14 94 -28 97 -33 3 -4 24 -21 47 -38
78 -56 170 -181 179 -243 1 -8 5 -35 9 -60 9 -59 9 -57 1 -117 -3 -29 -15 -75
-25 -102 -11 -27 -18 -51 -15 -53 2 -3 -7 -17 -21 -32 -14 -15 -25 -30 -25
-34 -1 -15 -50 -42 -87 -47 -123 -19 -274 -5 -294 26 -8 14 -1 39 12 39 5 0
18 -9 29 -20 12 -12 24 -19 28 -16 4 2 36 7 70 10 86 7 148 40 184 95 15 25
30 58 33 75 35 214 -19 356 -175 466 -48 34 -142 43 -235 22 -38 -8 -77 -21
-86 -29 -8 -7 -20 -13 -25 -13 -10 -1 -62 -69 -84 -110 -7 -13 -19 -31 -27
-38 -16 -17 -18 -193 -2 -223 8 -15 7 -24 -2 -35 -11 -13 -14 -12 -25 8 -7 12
-10 26 -8 30 3 5 1 8 -4 8 -13 0 -32 70 -32 118 0 57 25 147 51 185 46 65 125
132 185 156 61 24 133 40 147 33 4 -2 49 -15 100 -28z m-25 -166 c56 -26 113
-84 144 -147 22 -46 31 -151 17 -208 -7 -31 -48 -85 -59 -78 -5 3 -11 1 -15
-5 -7 -11 -67 -12 -102 -2 -22 7 -22 8 15 45 20 21 46 44 56 51 24 17 24 94
-1 134 -22 36 -77 86 -134 121 -41 26 -48 27 -70 15 -13 -7 -32 -13 -41 -14
-10 0 -18 -5 -18 -11 0 -11 -40 -68 -77 -109 l-23 -25 0 39 c0 81 69 166 154
190 28 8 62 16 76 19 14 2 26 5 28 6 1 0 24 -9 50 -21z m-1511 -920 c-3 -8 -6
-5 -6 6 -1 11 2 17 5 13 3 -3 4 -12 1 -19z"/>
<path d="M1775 2314 c-10 -8 -15 -14 -10 -14 4 0 1 -8 -7 -17 -8 -10 -18 -34
-22 -53 -3 -19 -16 -44 -28 -57 -18 -20 -27 -22 -77 -17 -31 4 -73 2 -94 -4
-29 -8 -44 -7 -66 4 -34 17 -58 10 -67 -19 -5 -16 1 -28 25 -49 35 -32 58 -34
124 -14 29 9 49 10 53 5 7 -12 113 -9 120 3 3 5 10 6 15 3 5 -4 19 2 32 12 16
13 23 30 24 61 1 24 9 55 17 68 36 53 6 121 -39 88z"/>
</g>
</svg>
