<?xml version="1.0" standalone="no"?>
<!DOCTYPE svg PUBLIC "-//W3C//DTD SVG 20010904//EN"
 "http://www.w3.org/TR/2001/REC-SVG-20010904/DTD/svg10.dtd">
<svg version="1.0" xmlns="http://www.w3.org/2000/svg"
 width="341.000000pt" height="401.000000pt" viewBox="0 0 341.000000 401.000000"
 preserveAspectRatio="xMidYMid meet">
<metadata>
Created by potrace 1.16, written by Peter Selinger 2001-2019
</metadata>
<g transform="translate(0.000000,401.000000) scale(0.100000,-0.100000)"
fill="#000000" stroke="none">
<path d="M1293 3819 c-15 -10 -50 -40 -77 -66 -28 -27 -64 -57 -81 -68 -16
-10 -34 -24 -38 -32 -4 -7 -12 -13 -17 -13 -6 0 -18 -8 -29 -17 -10 -10 -35
-31 -56 -48 -21 -16 -43 -34 -49 -40 -17 -14 -53 -35 -111 -63 -27 -13 -71
-39 -98 -58 -26 -19 -53 -34 -60 -34 -8 0 -24 -11 -37 -25 -13 -14 -28 -25
-33 -25 -10 0 -76 -51 -125 -97 -13 -12 -34 -25 -46 -29 -30 -10 -82 -86 -70
-105 2 -5 0 -18 -6 -29 -8 -14 -7 -36 4 -81 l14 -61 -72 -75 c-39 -42 -83 -87
-98 -102 -38 -37 -45 -74 -19 -100 12 -12 21 -25 21 -31 0 -5 4 -10 9 -10 5 0
30 -34 56 -75 53 -85 82 -110 117 -99 31 9 86 51 127 97 19 20 51 42 72 49 21
6 36 14 34 18 -3 5 2 10 10 14 9 3 19 -3 26 -17 7 -12 18 -27 25 -34 7 -7 21
-23 31 -35 22 -28 61 -54 88 -60 11 -2 40 6 64 19 24 13 52 23 62 23 11 0 19
3 19 8 0 4 32 21 70 37 38 17 70 33 70 38 0 4 6 7 14 7 8 0 36 18 61 40 25 22
49 40 53 40 8 0 87 -121 88 -135 0 -13 38 -74 64 -103 11 -13 18 -27 16 -31
-3 -4 13 -27 35 -51 21 -23 51 -65 66 -91 14 -27 29 -49 34 -49 4 0 14 -17 22
-37 8 -21 26 -51 40 -67 14 -17 24 -33 21 -38 -3 -4 2 -8 10 -8 9 0 16 -4 16
-9 0 -4 12 -24 28 -44 15 -20 38 -55 52 -77 14 -23 36 -53 49 -66 47 -48 53
-71 31 -121 -22 -50 -26 -83 -10 -83 7 0 7 -7 0 -20 -9 -16 -7 -28 4 -52 9
-17 16 -35 16 -40 0 -5 11 -24 23 -41 13 -18 30 -48 37 -67 8 -19 17 -37 21
-40 4 -3 26 -42 49 -87 23 -46 52 -91 66 -102 13 -10 24 -22 24 -25 0 -9 104
-160 113 -164 4 -2 7 -12 7 -23 0 -10 3 -19 8 -19 4 0 15 -15 24 -32 37 -74
98 -209 98 -216 0 -4 17 -36 38 -72 20 -36 44 -84 51 -108 8 -24 19 -46 25
-50 11 -7 76 -99 76 -107 0 -3 19 -25 43 -48 47 -48 105 -79 157 -84 47 -5
171 -5 190 0 56 15 70 21 70 31 0 7 25 28 55 47 30 18 55 39 55 44 0 6 9 17
20 25 11 8 20 17 20 21 0 4 38 46 84 94 61 63 89 100 102 136 10 27 21 49 25
49 3 0 9 28 13 63 4 34 12 77 19 95 13 36 1 96 -32 160 -10 21 -33 65 -51 100
-22 44 -61 92 -128 160 -54 53 -107 104 -120 112 -12 8 -22 18 -22 23 0 11
-109 138 -129 151 -12 8 -58 53 -108 107 -65 72 -255 249 -298 278 -27 19 -53
41 -58 47 -19 32 -98 73 -139 74 -70 0 -80 -1 -99 -10 -24 -13 -46 -3 -53 24
-5 22 -78 125 -126 179 -14 16 -34 43 -45 62 -51 84 -198 295 -206 295 -5 0
-9 6 -9 14 0 8 -4 16 -8 18 -13 5 -86 130 -105 179 l-17 44 81 85 c45 47 90
105 101 128 40 88 37 247 -5 329 -9 18 -17 38 -17 45 0 16 -51 119 -67 136 -7
7 -13 18 -13 23 0 26 -124 151 -178 178 -52 26 -128 26 -169 0z m137 -110 c0
-5 9 -9 20 -9 26 0 142 -155 165 -219 9 -26 20 -54 26 -64 15 -28 39 -140 32
-151 -4 -6 -6 -26 -4 -46 3 -50 -19 -94 -67 -136 -23 -19 -40 -39 -37 -44 3
-5 -4 -11 -15 -15 -11 -3 -20 -10 -20 -14 0 -5 -19 -21 -42 -37 -24 -15 -54
-37 -68 -49 -29 -24 -124 -82 -191 -117 -44 -22 -76 -45 -137 -96 -15 -12 -43
-29 -62 -38 -19 -9 -75 -36 -123 -60 -49 -23 -94 -41 -102 -38 -7 3 -25 28
-40 56 -22 41 -25 52 -14 59 8 5 17 9 21 9 3 0 13 19 21 43 11 35 12 48 1 77
-7 19 -13 47 -13 63 -1 15 -5 27 -9 27 -5 0 -19 21 -32 46 -29 55 -68 90 -120
105 -22 7 -40 16 -40 21 0 5 -4 6 -10 3 -5 -3 -16 -3 -22 2 -33 20 -63 8 -78
-32 l-9 -20 0 21 c-1 26 21 74 34 74 6 0 27 15 47 33 58 50 95 77 106 77 6 0
26 14 44 30 29 27 61 46 155 94 13 6 23 14 23 19 0 4 13 7 29 7 16 0 31 4 33
9 2 5 10 11 18 13 8 2 22 11 31 21 9 9 20 17 25 17 5 0 17 8 26 18 23 25 61
52 73 52 6 0 25 16 44 35 18 19 39 35 47 35 8 0 14 5 14 10 0 6 6 10 13 10 6
0 22 13 35 29 29 37 98 85 111 77 5 -4 12 -2 15 3 7 11 46 2 46 -10z m-807
-751 c34 -24 59 -70 67 -126 6 -40 5 -44 -24 -65 -17 -12 -42 -32 -56 -44 -14
-13 -28 -23 -31 -23 -5 0 -18 -10 -65 -49 -7 -6 -25 8 -53 40 -23 27 -47 49
-52 49 -12 0 -39 25 -39 37 0 4 14 24 31 43 17 19 38 47 47 61 10 14 33 44 52
65 29 33 40 39 65 35 17 -2 42 -12 58 -23z m867 -132 c0 -23 29 -79 65 -126
47 -62 125 -178 125 -186 0 -4 9 -16 21 -28 17 -18 100 -138 134 -195 6 -9 24
-35 41 -56 17 -22 37 -51 44 -65 7 -14 22 -34 32 -45 10 -11 30 -39 44 -62 23
-39 23 -43 7 -43 -10 0 -27 -14 -38 -30 -11 -17 -37 -44 -57 -60 -33 -27 -40
-29 -58 -18 -11 7 -20 16 -20 21 0 4 -9 18 -21 30 -11 12 -36 45 -54 72 -19
28 -51 72 -73 98 -21 26 -51 73 -67 103 -16 29 -32 54 -37 54 -4 0 -8 6 -8 13
0 10 -47 78 -105 152 -8 10 -15 23 -15 28 0 4 -13 28 -30 52 -16 24 -47 78
-69 121 -37 71 -38 79 -23 91 9 7 23 13 29 13 7 0 20 11 29 25 9 14 25 25 35
25 11 0 19 4 19 9 0 8 16 16 43 20 4 0 7 -5 7 -13z m-1122 -168 c45 -36 52
-43 52 -56 0 -7 -8 -24 -17 -36 l-18 -23 -30 41 c-17 23 -36 53 -42 67 -10 24
-10 26 13 23 14 -1 32 -8 42 -16z m1860 -677 c13 -1 20 -5 17 -11 -3 -5 3 -10
14 -10 12 0 30 -9 41 -20 11 -11 25 -20 30 -20 6 0 10 -4 10 -10 0 -5 5 -10
10 -10 10 0 22 -8 55 -37 7 -7 16 -13 20 -13 3 0 45 -39 93 -87 48 -49 99 -98
112 -109 14 -12 58 -56 99 -98 41 -42 79 -80 85 -84 6 -4 23 -23 37 -42 15
-19 41 -50 58 -67 17 -18 31 -37 31 -42 0 -5 9 -13 20 -16 11 -4 18 -11 15
-16 -4 -5 0 -9 8 -9 19 0 60 -38 82 -77 10 -17 29 -36 42 -42 13 -6 22 -15 19
-20 -4 -5 -3 -11 1 -13 11 -4 43 -67 43 -82 0 -7 12 -30 26 -52 23 -34 25 -41
15 -75 -6 -21 -10 -41 -9 -46 1 -4 -2 -36 -6 -71 -8 -62 -8 -62 -40 -60 -17 1
-41 -4 -53 -10 -15 -9 -22 -9 -25 -1 -2 6 -17 13 -33 15 -68 9 -115 10 -115 2
0 -4 -7 -8 -16 -8 -21 0 -82 -45 -113 -82 -21 -26 -22 -32 -11 -53 7 -13 18
-26 25 -29 13 -5 53 14 101 49 19 14 46 20 88 21 34 1 61 3 61 4 0 7 56 7 60
-1 8 -13 -175 -192 -247 -240 -57 -39 -138 -64 -138 -42 0 5 -13 8 -30 5 -16
-2 -38 -1 -47 3 -10 4 -28 8 -39 9 -12 1 -34 17 -50 36 -16 19 -38 44 -49 55
-11 11 -43 65 -71 120 -183 358 -248 482 -260 496 -8 8 -14 20 -15 25 0 5 -27
43 -59 84 -33 41 -82 120 -111 174 -28 55 -61 116 -74 137 -13 20 -35 64 -48
96 -23 57 -23 61 -8 100 9 23 19 45 24 49 4 4 7 16 7 26 0 10 4 18 9 18 5 0
14 14 21 30 7 17 19 30 26 30 7 0 21 11 30 26 17 26 67 57 77 48 7 -8 70 21
85 39 7 8 21 14 30 12 9 -2 27 -4 40 -4z"/>
</g>
</svg>
