<?xml version="1.0" standalone="no"?>
<!DOCTYPE svg PUBLIC "-//W3C//DTD SVG 20010904//EN"
 "http://www.w3.org/TR/2001/REC-SVG-20010904/DTD/svg10.dtd">
<svg version="1.0" xmlns="http://www.w3.org/2000/svg"
 width="529.000000pt" height="429.000000pt" viewBox="0 0 529.000000 429.000000"
 preserveAspectRatio="xMidYMid meet">
<metadata>
Created by potrace 1.16, written by Peter Selinger 2001-2019
</metadata>
<g transform="translate(0.000000,429.000000) scale(0.100000,-0.100000)"
fill="#000000" stroke="none">
<path d="M2155 4049 c-16 -5 -60 -12 -97 -14 -62 -5 -190 -39 -234 -64 -11 -5
-50 -25 -89 -44 -94 -45 -193 -120 -235 -179 -20 -27 -43 -48 -53 -48 -21 0
-40 -17 -50 -42 -3 -10 -11 -18 -17 -18 -5 0 -10 -7 -10 -16 0 -9 -9 -29 -21
-45 -11 -16 -18 -29 -15 -29 2 0 -13 -36 -35 -79 -21 -44 -39 -84 -39 -90 0
-6 -9 -30 -19 -54 -30 -64 -59 -164 -71 -242 -6 -38 -16 -75 -22 -82 -6 -7 -7
-13 -3 -13 4 0 3 -6 -3 -12 -5 -7 -13 -29 -16 -48 -3 -19 -10 -49 -15 -67 -5
-18 -13 -63 -16 -100 -8 -67 -12 -98 -15 -98 -7 0 -12 -90 -12 -180 1 -143 24
-331 51 -421 11 -39 21 -79 21 -88 0 -19 39 -108 50 -116 5 -3 10 -14 12 -25
2 -15 -3 -21 -23 -23 -34 -4 -139 -103 -139 -130 0 -14 -43 -49 -87 -70 l-42
-20 -66 33 c-101 51 -176 36 -216 -44 -27 -51 -56 -71 -106 -71 -24 0 -60 7
-80 15 -19 8 -46 15 -60 15 -31 0 -92 -31 -121 -63 -43 -46 -27 -141 19 -116
10 5 19 20 19 32 0 27 53 77 81 77 11 0 31 -7 45 -16 19 -13 39 -16 89 -11 36
4 74 11 86 17 31 17 59 43 59 56 0 17 52 65 66 60 6 -2 16 0 22 6 8 8 22 4 50
-16 60 -41 91 -46 146 -25 63 24 112 58 128 89 7 14 16 30 20 35 39 53 65 76
91 84 29 7 36 4 70 -28 21 -20 45 -51 53 -69 7 -19 27 -51 44 -72 16 -21 30
-41 30 -44 0 -8 53 -69 96 -111 70 -68 155 -145 162 -145 4 0 26 -21 50 -45
24 -25 49 -45 55 -45 7 0 34 -20 62 -45 27 -25 54 -45 61 -45 6 0 19 -9 28
-19 10 -11 41 -29 69 -41 29 -12 66 -32 82 -44 37 -28 134 -60 245 -82 47 -9
90 -20 95 -24 6 -4 50 -15 100 -25 69 -13 115 -16 197 -11 94 5 113 10 156 35
27 16 70 38 96 49 25 12 46 27 46 34 0 8 35 22 88 37 48 13 103 32 122 43 69
36 63 40 287 -177 123 -119 183 -174 183 -168 0 2 32 -29 71 -69 172 -177 343
-349 413 -415 65 -63 80 -73 111 -73 21 0 34 4 30 10 -3 5 3 17 14 26 16 14
18 21 8 43 -13 29 -56 70 -73 71 -12 0 -44 32 -44 44 0 4 6 4 13 0 6 -5 -1 8
-18 28 -16 20 -36 37 -42 37 -7 1 -13 6 -13 12 0 13 -45 75 -80 110 -33 33
-168 183 -211 234 -88 103 -338 358 -379 386 -24 16 -30 25 -19 27 8 1 23 16
33 33 16 27 22 30 51 25 27 -5 33 -3 38 13 10 41 -60 70 -121 50 -20 -7 -64
-24 -97 -39 -126 -58 -152 -68 -220 -85 -62 -16 -129 -42 -275 -108 -100 -45
-193 -67 -306 -74 -121 -6 -155 0 -269 52 -29 14 -60 25 -67 25 -7 0 -29 11
-48 24 -19 13 -66 40 -105 61 -38 21 -83 50 -100 64 -16 15 -48 40 -69 56 -22
16 -54 43 -73 61 -67 65 -140 124 -146 117 -4 -3 -7 -1 -7 7 0 7 -21 42 -47
78 -61 85 -79 113 -88 141 -3 12 -29 59 -56 105 -27 46 -49 90 -49 98 0 8 -4
18 -8 24 -30 34 -88 214 -117 364 -39 196 -48 280 -46 460 1 125 3 151 20 225
5 22 14 67 21 100 6 33 20 90 31 126 10 36 19 73 19 82 0 9 5 17 10 17 6 0 10
6 10 13 0 19 72 156 108 206 18 24 32 48 32 53 0 10 4 15 65 82 25 28 45 53
45 58 0 4 6 8 13 8 7 0 19 9 27 20 8 11 20 20 26 20 6 0 17 6 23 13 6 8 30 20
53 27 24 7 57 18 73 25 17 7 65 16 107 20 50 5 75 11 73 19 -3 6 2 20 10 31
14 17 17 18 31 4 14 -15 64 -15 64 0 0 11 254 5 325 -9 72 -13 165 -56 350
-160 129 -73 177 -103 194 -124 7 -9 19 -16 26 -16 7 0 23 -10 36 -23 13 -13
42 -37 64 -53 22 -16 48 -39 58 -52 10 -12 23 -20 28 -17 5 4 9 2 9 -4 0 -5 9
-12 19 -16 24 -7 221 -223 221 -242 0 -7 4 -13 10 -13 10 0 84 -104 112 -158
11 -23 13 -32 4 -29 -7 3 12 -43 42 -102 30 -58 62 -128 72 -156 9 -27 29 -81
43 -120 14 -38 31 -99 36 -135 6 -36 18 -90 27 -120 22 -79 41 -169 44 -210 7
-103 2 -312 -8 -351 -7 -24 -14 -57 -17 -74 -7 -52 -11 -65 -23 -77 -7 -7 -12
-20 -12 -30 0 -10 -13 -39 -29 -65 -45 -73 -47 -93 -14 -130 29 -32 45 -50
126 -147 52 -63 121 -133 197 -199 25 -21 108 -100 185 -176 77 -75 185 -175
240 -222 55 -47 118 -105 140 -129 22 -24 50 -54 63 -67 12 -13 22 -28 22 -33
0 -6 7 -10 15 -10 8 0 15 -4 15 -10 0 -5 9 -10 20 -10 25 0 27 30 3 30 -11 1
-2 9 20 21 l39 20 -32 29 -33 29 37 -6 c27 -4 42 -1 56 12 29 26 19 51 -36 92
-53 40 -80 66 -129 129 -16 21 -37 45 -46 53 -9 9 -34 41 -57 71 -48 66 -209
232 -271 280 -25 19 -54 44 -65 55 -11 11 -36 33 -55 48 -20 16 -70 62 -113
103 -43 41 -82 74 -87 74 -4 0 -27 17 -51 38 -41 39 -41 39 -28 73 8 19 23 68
32 109 10 41 23 86 28 100 14 34 30 150 32 235 2 72 -22 295 -43 400 -15 71
-63 219 -73 223 -5 2 -8 15 -8 28 0 14 -9 43 -21 66 -23 45 -25 41 53 95 l57
40 58 -29 c55 -27 62 -28 111 -18 29 7 52 17 52 24 0 7 10 18 23 25 12 7 36
30 52 51 64 82 146 111 198 70 55 -44 115 -18 242 101 37 35 72 66 78 68 7 2
19 10 28 17 8 8 26 13 40 13 170 -8 180 -4 304 117 31 30 66 55 85 59 35 8 45
24 36 60 -15 58 -119 4 -189 -99 -11 -15 -31 -33 -45 -39 -15 -6 -33 -18 -41
-25 -11 -11 -33 -12 -91 -7 -70 6 -82 5 -126 -18 -27 -14 -57 -33 -66 -44
-103 -112 -135 -143 -149 -143 -8 0 -20 -5 -27 -12 -9 -9 -17 -7 -35 10 -13
12 -30 22 -38 22 -8 0 -20 5 -27 12 -8 8 -12 9 -12 1 0 -6 -8 -9 -18 -6 -36 9
-116 -40 -193 -118 -41 -43 -82 -79 -90 -80 -23 -5 -70 11 -97 32 -31 24 -60
24 -92 2 -14 -10 -48 -30 -77 -45 l-52 -27 -19 32 c-11 18 -22 43 -25 57 -4
14 -18 37 -32 52 -14 15 -25 31 -25 35 -1 17 -147 231 -194 285 -8 9 -23 29
-33 45 -31 48 -55 75 -148 168 -147 147 -159 157 -360 302 -45 32 -406 211
-438 217 -16 3 -34 9 -40 14 -39 31 -265 52 -332 31z m-142 -132 c4 -10 -2
-13 -21 -9 -24 5 -25 6 -7 13 11 4 21 8 21 8 1 1 4 -5 7 -12z m-806 -1679 c-3
-8 -6 -5 -6 6 -1 11 2 17 5 13 3 -3 4 -12 1 -19z m33 -79 c0 -5 -4 -9 -10 -9
-5 0 -10 7 -10 16 0 8 5 12 10 9 6 -3 10 -10 10 -16z m10 -54 c0 -5 -5 -3 -10
5 -5 8 -10 20 -10 25 0 6 5 3 10 -5 5 -8 10 -19 10 -25z m67 3 c-3 -7 -5 -2
-5 12 0 14 2 19 5 13 2 -7 2 -19 0 -25z m2204 -1125 c13 -16 12 -17 -3 -4 -17
13 -22 21 -14 21 2 0 10 -8 17 -17z m903 -162 c-2 -3 -12 3 -22 13 -16 17 -16
18 5 5 12 -7 20 -15 17 -18z m210 -200 c-2 -3 -12 3 -22 13 -16 17 -16 18 5 5
12 -7 20 -15 17 -18z m106 -91 c0 -5 -2 -10 -4 -10 -3 0 -8 5 -11 10 -3 6 -1
10 4 10 6 0 11 -4 11 -10z"/>
<path d="M1995 3752 c-27 -9 -56 -22 -62 -28 -7 -7 -27 -16 -45 -19 -28 -7
-88 -53 -88 -70 0 -3 -22 -34 -48 -68 -26 -35 -54 -78 -62 -97 -8 -19 -24 -50
-36 -68 -13 -18 -30 -54 -39 -80 -10 -26 -21 -56 -25 -67 -19 -46 -35 -403
-20 -463 6 -26 12 -63 15 -82 2 -19 8 -57 14 -85 6 -27 15 -76 20 -108 6 -32
16 -69 24 -81 9 -12 21 -42 28 -67 10 -38 107 -244 142 -304 7 -11 25 -43 41
-70 16 -28 32 -52 36 -55 3 -3 15 -18 27 -35 28 -40 159 -175 170 -175 5 0 22
-14 39 -31 16 -17 47 -40 69 -51 22 -11 42 -23 45 -27 3 -3 31 -23 63 -45 31
-21 57 -42 57 -47 0 -4 18 -14 40 -20 22 -7 40 -15 40 -19 0 -4 14 -13 30 -20
17 -7 30 -16 30 -21 0 -5 8 -9 18 -9 10 0 47 -12 83 -26 79 -33 190 -54 287
-54 44 0 72 -4 72 -11 0 -5 4 -8 8 -5 7 4 127 22 212 31 130 15 259 51 299 84
14 12 31 25 37 29 27 18 119 183 149 267 26 73 37 328 17 396 -10 31 -26 76
-98 264 -14 39 -27 89 -29 112 -3 46 -11 63 -28 63 -7 0 -17 10 -23 23 -26 54
-103 196 -127 234 -15 24 -27 47 -27 53 0 5 -4 10 -9 10 -5 0 -15 15 -21 34
-6 19 -15 36 -20 38 -5 2 -26 30 -47 64 -60 95 -105 155 -148 199 -22 23 -50
52 -62 66 -27 30 -50 49 -60 49 -4 1 -26 19 -48 40 -22 22 -46 40 -52 40 -7 0
-13 5 -13 10 0 6 -5 10 -12 10 -6 0 -19 6 -27 14 -15 13 -80 50 -173 97 -21
11 -54 30 -74 44 -21 14 -49 28 -63 32 -14 3 -52 24 -83 45 -32 21 -58 35 -58
31 0 -4 -5 -2 -12 5 -7 7 -21 12 -33 12 -12 0 -26 5 -32 11 -20 20 -249 20
-308 1z m285 -74 c25 -6 79 -28 120 -48 41 -21 92 -43 113 -49 21 -7 50 -23
65 -35 15 -12 50 -35 77 -51 28 -15 52 -31 55 -35 3 -4 14 -10 25 -14 41 -12
157 -92 217 -148 17 -15 34 -28 39 -28 5 0 9 -5 9 -10 0 -6 21 -32 48 -58 26
-26 58 -63 72 -82 13 -19 32 -44 42 -54 10 -11 18 -26 18 -33 0 -7 5 -13 10
-13 6 0 10 -5 10 -11 0 -6 13 -28 28 -48 16 -20 44 -63 62 -96 110 -199 118
-216 102 -211 -9 3 -48 8 -87 11 -38 4 -72 8 -75 10 -13 8 -140 25 -191 26
-37 0 -67 -6 -94 -20 -21 -12 -45 -21 -53 -21 -8 0 -33 -20 -57 -44 l-43 -45
-45 142 c-25 78 -50 158 -55 177 -37 124 -134 332 -146 312 -4 -6 4 -33 18
-59 59 -114 146 -349 146 -393 0 -9 4 -20 9 -25 5 -6 21 -47 36 -92 27 -83 27
-112 0 -143 -7 -8 -19 -35 -26 -60 -7 -25 -19 -51 -26 -58 -7 -7 -13 -20 -13
-27 0 -8 -17 -32 -38 -54 l-38 -41 -70 4 c-56 3 -93 12 -131 31 -2 1 -28 100
-59 221 -88 339 -100 385 -123 449 -12 33 -24 73 -27 89 -6 34 -23 70 -31 62
-7 -7 13 -92 46 -196 44 -137 70 -223 76 -250 10 -51 28 -116 41 -147 8 -17
14 -39 14 -50 0 -10 9 -50 20 -88 23 -82 24 -91 8 -77 -13 10 -82 37 -197 77
l-64 22 -13 51 c-8 29 -16 62 -18 75 -3 12 -15 60 -26 107 -12 47 -24 96 -26
110 -9 53 -25 118 -45 190 -41 146 -51 186 -65 255 -7 39 -13 87 -14 107 0 20
-4 39 -9 42 -12 8 -29 -36 -25 -64 8 -57 25 -125 45 -188 51 -156 58 -179 64
-212 4 -19 13 -57 21 -85 7 -27 27 -113 45 -190 17 -77 36 -158 43 -181 l12
-41 -62 -33 c-68 -36 -132 -108 -160 -181 -10 -24 -19 -46 -21 -48 -12 -15
-70 101 -132 259 -46 116 -53 140 -65 212 -3 15 -7 32 -10 37 -5 8 -9 32 -21
136 -2 17 -8 53 -13 80 -10 49 -9 109 3 285 6 78 21 142 44 187 5 10 21 47 37
83 15 36 47 91 71 123 24 31 43 61 43 65 0 4 15 22 33 40 28 27 37 31 69 25
26 -4 49 0 75 12 21 10 52 22 68 26 44 11 163 9 215 -3z m1075 -1198 c33 0 78
2 99 3 39 2 40 2 58 -53 11 -30 32 -86 48 -125 15 -38 38 -108 49 -154 22 -88
28 -215 11 -226 -5 -3 -10 -22 -10 -42 0 -37 -15 -95 -31 -123 -5 -8 -12 -22
-15 -30 -15 -43 -53 -110 -85 -150 -47 -60 -145 -105 -244 -114 -38 -3 -92
-10 -120 -15 -50 -9 -334 -8 -390 2 -51 9 -217 76 -264 108 -24 16 -50 29 -58
29 -7 0 -13 4 -13 9 0 5 -14 14 -30 21 -17 7 -45 25 -63 41 -17 16 -50 37 -72
48 -22 11 -76 54 -120 96 -44 42 -89 83 -100 91 -19 14 -19 16 -2 25 9 6 29
33 43 62 14 29 44 69 67 90 l40 38 71 -6 c39 -4 80 -10 91 -15 34 -13 101 -30
124 -30 14 0 21 -6 21 -19 0 -11 4 -22 9 -25 5 -3 12 -22 15 -41 4 -19 11 -35
16 -35 13 0 13 10 -5 60 -19 52 -19 55 -1 41 16 -13 144 -12 152 1 3 5 16 8
29 8 13 0 30 7 39 15 8 9 21 14 28 13 7 -2 12 4 11 12 -2 9 13 24 33 35 20 11
48 37 63 59 l26 39 7 -29 c23 -94 48 -187 66 -244 11 -36 26 -89 33 -117 8
-33 18 -53 27 -53 9 0 12 6 7 18 -4 9 -13 40 -20 67 -8 28 -25 85 -39 128 -14
43 -26 84 -26 91 0 7 -9 42 -20 76 -11 34 -20 70 -20 79 1 14 59 86 125 151
14 14 25 31 25 37 0 9 40 27 46 20 4 -5 66 -237 85 -317 11 -47 33 -126 49
-177 17 -50 30 -99 30 -107 0 -9 5 -16 10 -16 19 0 23 31 7 73 -16 46 -30 97
-83 297 -43 166 -53 205 -60 252 l-6 36 88 -4 c49 -3 116 -4 149 -4z"/>
<path d="M3316 2245 c-3 -9 4 -48 15 -88 11 -40 24 -85 29 -102 5 -16 22 -68
39 -115 17 -47 31 -96 31 -110 1 -40 11 -70 25 -70 7 0 15 6 18 13 5 12 -31
141 -54 192 -4 11 -27 81 -49 155 -22 74 -42 136 -44 138 -2 1 -6 -4 -10 -13z"/>
<path d="M213 1523 c-19 -7 -17 -63 2 -63 8 0 15 5 15 11 0 6 7 18 16 26 13
13 13 17 2 24 -14 10 -17 10 -35 2z"/>
<path d="M4790 436 c0 -2 7 -7 16 -10 8 -3 12 -2 9 4 -6 10 -25 14 -25 6z"/>
</g>
</svg>
