<?xml version="1.0" standalone="no"?>
<!DOCTYPE svg PUBLIC "-//W3C//DTD SVG 20010904//EN"
 "http://www.w3.org/TR/2001/REC-SVG-20010904/DTD/svg10.dtd">
<svg version="1.0" xmlns="http://www.w3.org/2000/svg"
 width="535.000000pt" height="395.000000pt" viewBox="0 0 535.000000 395.000000"
 preserveAspectRatio="xMidYMid meet">
<metadata>
Created by potrace 1.16, written by Peter Selinger 2001-2019
</metadata>
<g transform="translate(0.000000,395.000000) scale(0.100000,-0.100000)"
fill="#000000" stroke="none">
<path d="M2307 3803 c-3 -2 -85 -7 -182 -9 -98 -2 -196 -9 -219 -15 -22 -6
-57 -13 -76 -15 -19 -3 -78 -16 -131 -29 -54 -14 -111 -25 -128 -25 -16 0 -33
-5 -36 -10 -3 -6 -17 -7 -29 -4 -14 3 -29 -1 -39 -10 -8 -9 -22 -16 -29 -16
-8 0 -19 -5 -26 -12 -7 -7 -12 -8 -12 -2 0 5 -4 3 -9 -4 -4 -8 -31 -15 -63
-16 -30 -2 -68 -11 -86 -20 -17 -9 -38 -16 -47 -16 -8 0 -15 -4 -15 -10 0 -5
-9 -10 -20 -10 -11 0 -28 -4 -38 -9 -9 -5 -35 -17 -57 -29 -149 -74 -237 -132
-315 -206 -33 -32 -60 -59 -60 -60 0 -1 -32 -36 -71 -77 -40 -41 -90 -99 -112
-129 -22 -30 -44 -57 -47 -60 -31 -23 -160 -239 -160 -268 0 -6 -13 -38 -30
-70 -16 -32 -36 -84 -45 -115 -8 -31 -22 -83 -31 -114 -44 -159 -53 -209 -59
-343 -3 -58 -8 -126 -10 -152 -4 -35 -2 -48 7 -48 9 0 10 -2 2 -8 -8 -5 -12
-56 -13 -152 -1 -149 6 -193 58 -375 11 -38 29 -104 40 -145 10 -41 26 -88 35
-105 9 -16 16 -36 16 -43 0 -7 8 -25 19 -40 32 -48 55 -86 72 -122 10 -19 38
-57 63 -85 25 -27 46 -54 46 -58 0 -5 4 -6 9 -2 5 3 18 -6 29 -20 11 -14 25
-25 30 -25 6 0 17 -8 24 -18 17 -24 56 -45 68 -37 6 3 10 -1 10 -9 0 -9 3 -15
8 -14 12 3 52 -13 52 -21 0 -4 16 -13 35 -20 19 -7 35 -16 35 -21 0 -4 15 -10
33 -13 54 -9 119 -27 146 -42 31 -16 78 -34 106 -39 424 -87 654 -113 825 -92
30 3 93 9 140 12 47 3 103 9 124 14 22 5 88 8 148 6 59 -1 108 1 108 4 0 3 28
6 62 8 34 1 107 11 162 22 113 21 167 28 275 36 40 3 90 12 111 19 21 7 40 11
43 9 6 -6 151 17 157 25 3 4 61 17 130 30 69 12 141 27 160 33 19 6 53 17 75
24 22 7 58 16 79 19 21 4 48 12 60 20 24 14 177 52 219 54 15 0 41 8 57 16 16
8 36 15 45 15 8 0 15 4 15 9 0 5 23 12 52 15 29 4 63 13 77 21 43 22 151 56
160 50 5 -3 11 -1 13 4 5 16 240 132 255 127 7 -3 13 -2 13 2 0 4 10 12 23 17
15 7 22 18 21 35 -1 14 5 30 13 35 8 6 16 25 18 42 2 18 12 44 21 59 10 14 25
47 35 73 9 25 33 84 54 130 38 86 49 119 91 276 31 116 84 279 93 285 4 3 21
48 39 100 113 335 134 390 152 390 21 0 22 43 1 71 -12 15 -21 31 -21 35 0 4
-11 17 -25 30 -14 13 -25 27 -25 33 0 5 -10 13 -22 17 -19 6 -91 55 -108 74
-10 11 -108 80 -114 80 -3 0 -14 7 -23 16 -33 29 -161 124 -168 124 -4 0 -21
12 -39 26 -132 108 -352 264 -374 264 -7 0 -12 4 -12 9 0 12 -414 218 -635
316 -16 7 -50 22 -75 33 -111 50 -140 61 -220 87 -47 15 -90 32 -97 37 -6 5
-56 16 -110 23 -54 8 -114 19 -133 25 -55 17 -64 19 -255 46 -169 23 -407 39
-418 27z m33 -91 c41 1 107 0 145 -2 39 -1 96 -3 128 -4 31 -1 57 -4 57 -8 0
-5 12 -8 28 -8 15 -1 54 -7 87 -16 70 -17 82 -20 152 -35 29 -5 55 -15 58 -20
4 -5 25 -9 48 -9 23 0 67 -7 97 -16 30 -8 62 -17 70 -19 68 -18 263 -96 278
-112 7 -7 20 -13 27 -13 7 0 21 -7 29 -16 9 -8 16 -13 16 -10 0 5 88 -31 205
-84 119 -54 411 -203 436 -223 14 -12 46 -34 70 -49 79 -49 84 -53 92 -65 4
-7 15 -13 22 -13 8 0 15 -3 15 -7 0 -5 17 -19 38 -33 20 -14 46 -33 57 -43 17
-16 48 -39 190 -145 17 -12 48 -34 70 -49 22 -15 50 -38 62 -50 12 -13 24 -23
27 -23 9 0 100 -62 126 -86 14 -12 38 -34 53 -48 15 -14 32 -26 37 -26 5 0 14
-9 20 -20 6 -11 7 -20 1 -20 -5 0 -29 -62 -55 -137 -72 -218 -79 -238 -86
-243 -8 -7 -74 -208 -94 -288 -9 -35 -22 -70 -30 -77 -7 -8 -17 -35 -21 -61
-3 -25 -14 -60 -24 -78 -9 -17 -25 -58 -35 -91 -10 -33 -31 -89 -47 -124 -16
-35 -29 -69 -29 -75 -1 -20 -35 -85 -58 -108 -12 -13 -43 -45 -70 -73 -27 -28
-65 -56 -88 -64 -21 -8 -50 -22 -63 -32 -13 -11 -32 -19 -42 -19 -10 0 -22 -6
-26 -13 -9 -16 -74 -40 -150 -57 -29 -7 -53 -16 -53 -20 0 -9 -60 -34 -74 -31
-22 5 -118 -22 -123 -35 -3 -8 -9 -12 -13 -9 -4 3 -32 -3 -61 -12 -30 -9 -58
-16 -63 -14 -4 1 -34 -6 -65 -15 -31 -9 -60 -17 -66 -18 -5 -1 -14 -4 -20 -8
-19 -11 -196 -50 -202 -44 -3 3 -11 2 -17 -3 -6 -5 -108 -28 -226 -51 -118
-22 -235 -45 -260 -50 -25 -5 -63 -12 -85 -14 -22 -3 -51 -7 -65 -10 -14 -2
-52 -7 -84 -11 -33 -4 -69 -10 -80 -15 -23 -8 -130 -18 -281 -25 -55 -3 -149
-10 -210 -16 -60 -6 -137 -13 -170 -14 -33 -2 -100 -8 -150 -13 -114 -12 -211
-7 -313 16 -23 6 -51 8 -62 5 -12 -3 -20 0 -20 6 0 7 -3 10 -7 8 -5 -3 -42 2
-83 10 -41 8 -84 16 -95 17 -11 2 -27 6 -35 9 -8 4 -33 11 -55 16 -98 24 -134
35 -185 59 -30 14 -60 25 -67 25 -7 0 -15 7 -18 15 -3 8 -12 11 -21 8 -8 -3
-12 -2 -9 4 3 6 -2 13 -12 17 -10 4 -20 10 -23 13 -3 4 -31 23 -63 44 -33 20
-64 41 -70 46 -7 6 -36 29 -66 51 -66 51 -100 89 -154 171 -83 129 -181 339
-193 416 -4 23 -11 45 -15 48 -5 3 -9 14 -9 24 0 10 -5 31 -11 47 -7 15 -14
51 -17 78 -13 120 0 541 17 588 5 12 14 56 20 97 11 70 35 152 52 175 3 6 10
26 14 45 4 19 17 50 29 70 12 19 28 54 34 77 13 45 79 166 122 223 14 19 32
47 39 61 7 14 38 53 69 86 248 264 291 306 337 331 69 39 99 56 105 62 10 10
50 30 60 30 12 0 158 60 235 96 28 13 57 24 66 24 8 0 20 5 25 10 6 6 33 13
60 16 27 3 72 12 101 20 29 9 56 13 60 11 4 -3 40 1 78 9 39 8 94 19 123 25
59 11 92 15 226 23 49 3 90 7 92 8 1 2 26 2 56 0 29 -1 87 -1 128 0z"/>
<path d="M2017 3379 c-9 -5 -33 -11 -54 -14 -47 -5 -141 -21 -208 -35 -27 -6
-61 -14 -75 -16 -13 -3 -27 -9 -30 -13 -3 -4 -24 -13 -47 -19 -23 -7 -48 -18
-55 -25 -16 -15 -76 -39 -100 -40 -10 -1 -18 -5 -18 -9 0 -4 -16 -15 -36 -24
-20 -9 -38 -23 -41 -31 -3 -7 -13 -13 -23 -13 -10 0 -23 -7 -30 -15 -7 -8 -16
-15 -21 -15 -5 0 -27 -18 -50 -39 -23 -21 -45 -43 -50 -47 -58 -53 -149 -172
-149 -195 0 -5 -7 -21 -16 -34 -9 -14 -14 -25 -11 -25 4 0 -1 -19 -9 -42 -25
-71 -32 -219 -13 -293 6 -22 14 -56 19 -75 36 -151 78 -220 236 -385 70 -74
254 -203 254 -178 0 4 6 -1 13 -10 16 -21 87 -51 87 -37 0 7 5 8 13 3 16 -10
34 -14 87 -20 25 -3 48 -10 52 -17 6 -8 8 -7 8 2 0 7 3 11 8 9 7 -5 29 -8 182
-27 47 -5 96 -13 110 -16 95 -21 419 -24 512 -5 29 6 67 12 83 13 17 1 55 8
85 16 30 8 65 15 78 16 12 0 22 4 22 9 0 4 6 7 13 7 8 0 36 11 63 25 27 14 59
25 71 25 12 0 25 5 28 10 3 6 17 10 30 10 26 0 109 24 137 40 27 15 58 12 52
-5 -4 -9 3 -16 19 -20 16 -4 29 -18 37 -38 6 -18 16 -40 21 -49 5 -10 9 -27 9
-37 0 -11 4 -23 10 -26 5 -3 14 -23 20 -45 12 -43 40 -56 101 -45 32 6 481 9
544 3 17 -1 76 1 133 6 93 7 102 10 102 28 0 15 5 19 20 15 23 -6 36 9 38 43
1 14 9 43 18 65 26 65 51 125 79 200 15 39 34 84 41 102 8 17 14 34 14 38 0 3
8 25 18 48 27 59 59 145 72 192 6 22 15 51 19 65 4 14 4 39 -1 56 -10 41 -28
45 -198 50 -149 4 -180 7 -290 23 -41 6 -99 11 -128 11 l-53 0 -82 84 c-45 46
-86 89 -92 95 -32 36 -160 150 -221 196 -64 50 -238 143 -324 174 -47 17 -84
35 -90 42 -16 20 -268 139 -294 139 -8 0 -17 4 -20 9 -5 8 -50 21 -91 26 -11
2 -29 6 -40 9 -82 23 -147 39 -190 46 -27 4 -57 11 -65 14 -8 3 -60 8 -115 12
-55 3 -125 7 -156 9 -30 1 -63 -1 -72 -6z m190 -98 c100 -11 117 -16 106 -34
-5 -9 -3 -9 8 -1 12 8 68 12 77 4 1 -1 7 -4 12 -5 6 -1 13 -4 18 -5 4 -1 11
-2 15 -1 22 4 143 -23 149 -33 6 -8 8 -8 8 1 0 6 9 9 20 6 11 -3 20 -12 20
-20 0 -8 5 -11 11 -8 18 11 59 -4 60 -23 0 -14 2 -14 9 3 5 11 9 14 9 8 1 -7
9 -13 19 -13 22 0 72 -22 72 -32 0 -5 7 -8 15 -8 8 0 15 -3 15 -8 0 -4 17 -16
38 -26 20 -10 45 -22 54 -27 10 -5 27 -9 37 -9 11 0 23 -4 26 -10 8 -12 129
-70 148 -70 8 0 20 -7 27 -15 7 -8 19 -15 26 -15 8 0 14 -4 14 -9 0 -5 14 -12
30 -16 17 -4 30 -11 30 -16 0 -5 9 -9 19 -9 11 0 26 -9 34 -20 8 -11 16 -18
18 -15 3 2 26 -13 52 -34 25 -21 43 -42 39 -45 -3 -4 1 -4 10 -1 11 4 18 0 23
-14 3 -12 9 -21 13 -21 16 0 94 -79 88 -89 -4 -6 -2 -9 6 -6 7 3 22 -8 33 -25
11 -16 24 -30 28 -30 4 0 19 -11 33 -25 14 -14 20 -25 14 -25 -5 0 -10 -4 -10
-10 0 -5 7 -6 17 -3 11 4 14 3 9 -5 -4 -7 -1 -12 9 -12 9 0 21 -13 26 -29 6
-16 17 -32 25 -35 9 -3 13 -10 10 -14 -3 -5 14 -8 37 -8 23 1 50 -2 60 -6 9
-5 17 -5 17 0 0 9 50 7 175 -8 44 -5 98 -11 120 -12 24 -2 43 -9 47 -18 6 -13
7 -13 7 0 1 12 18 15 91 15 51 0 94 -5 100 -11 8 -8 5 -25 -10 -63 -11 -28
-20 -59 -20 -67 0 -9 -15 -48 -34 -87 -18 -40 -41 -94 -51 -122 -9 -27 -21
-59 -26 -70 -4 -11 -17 -45 -29 -75 -49 -126 -90 -200 -116 -210 -38 -15 -97
-13 -88 3 5 7 1 7 -10 -2 -20 -17 -93 -16 -113 1 -9 7 -13 7 -13 0 0 -16 -241
-16 -252 0 -6 10 -8 10 -8 1 0 -7 -5 -13 -11 -13 -6 0 -9 7 -5 15 3 8 1 15 -4
15 -6 0 -10 -6 -10 -14 0 -24 -30 -27 -154 -12 -31 3 -76 55 -76 86 0 9 -4 20
-10 26 -10 10 -11 15 -25 92 -5 25 -13 42 -21 42 -8 0 -14 6 -14 14 0 16 -50
28 -66 15 -6 -5 -14 -6 -17 -2 -4 3 -12 1 -19 -4 -7 -5 -47 -18 -87 -28 -41
-9 -82 -21 -90 -25 -19 -9 -180 -59 -231 -70 -19 -5 -53 -14 -75 -20 -22 -6
-62 -13 -90 -15 -27 -3 -72 -10 -100 -15 -27 -5 -63 -12 -80 -15 -16 -3 -41
-7 -55 -10 -64 -14 -261 -17 -345 -5 -49 7 -112 14 -140 17 -176 16 -407 103
-499 188 -15 14 -30 25 -34 25 -9 1 -80 64 -150 133 -67 67 -148 225 -160 312
-9 71 -5 284 6 297 5 7 17 38 26 69 12 39 30 70 64 106 70 74 185 165 193 152
3 -6 9 -2 12 11 3 12 10 19 16 15 6 -3 14 1 17 10 4 9 13 14 21 11 8 -3 11 -1
8 4 -3 6 3 10 14 10 12 0 21 4 21 9 0 5 10 7 22 3 14 -3 19 -2 14 6 -5 8 1 12
17 12 14 0 24 -6 24 -15 0 -14 -10 -19 -30 -16 -5 1 -6 -3 -3 -8 3 -5 15 -7
26 -4 24 6 27 41 3 50 -14 6 -14 7 3 13 10 4 23 8 28 8 5 0 12 5 15 10 9 14
55 27 47 13 -4 -6 -1 -20 6 -30 17 -24 44 -12 34 14 -5 14 -9 15 -21 5 -16
-14 -18 -10 -9 14 7 19 34 22 34 4 0 -6 6 -3 14 7 7 10 24 19 37 21 13 1 35 5
49 8 48 13 125 28 142 29 9 1 15 4 12 6 -3 3 12 10 33 17 40 12 67 11 220 -5z
m2310 -923 c-3 -8 -6 -5 -6 6 -1 11 2 17 5 13 3 -3 4 -12 1 -19z m-221 -559
c-8 -21 -15 -27 -15 -16 -1 17 20 59 27 53 1 -2 -4 -19 -12 -37z"/>
<path d="M2175 3260 c-3 -5 -1 -10 4 -10 6 0 11 5 11 10 0 6 -2 10 -4 10 -3 0
-8 -4 -11 -10z"/>
<path d="M2245 3260 c-3 -5 -1 -10 4 -10 6 0 11 5 11 10 0 6 -2 10 -4 10 -3 0
-8 -4 -11 -10z"/>
<path d="M1965 3250 c-3 -5 -1 -10 4 -10 6 0 11 5 11 10 0 6 -2 10 -4 10 -3 0
-8 -4 -11 -10z"/>
<path d="M1812 3214 c-7 -8 -8 -14 -3 -14 10 0 25 19 20 25 -2 1 -10 -3 -17
-11z"/>
<path d="M1865 3220 c-3 -6 1 -7 9 -4 18 7 21 14 7 14 -6 0 -13 -4 -16 -10z"/>
<path d="M1756 3205 c-11 -8 -15 -15 -10 -15 6 0 19 7 30 15 10 8 15 14 9 14
-5 0 -19 -6 -29 -14z"/>
<path d="M2117 3185 c-4 -9 -1 -23 7 -31 20 -19 27 -4 12 25 -11 20 -14 21
-19 6z"/>
<path d="M2180 3183 c0 -10 4 -14 8 -8 4 6 11 13 16 18 5 4 2 7 -7 7 -10 0
-17 -8 -17 -17z"/>
<path d="M2280 3185 c0 -9 -7 -18 -15 -21 -21 -8 -19 -23 3 -21 11 0 18 10 19
29 1 15 0 28 -2 28 -3 0 -5 -7 -5 -15z"/>
<path d="M1878 3183 c-16 -4 -16 -6 0 -24 20 -23 29 -24 29 -4 0 8 -5 11 -10
8 -6 -4 -8 0 -4 10 3 10 5 16 4 16 -1 -1 -10 -3 -19 -6z"/>
<path d="M2572 3160 c0 -19 2 -27 5 -17 2 9 2 25 0 35 -3 9 -5 1 -5 -18z"/>
<path d="M1940 3170 c0 -5 5 -10 11 -10 5 0 7 5 4 10 -3 6 -8 10 -11 10 -2 0
-4 -4 -4 -10z"/>
<path d="M1965 3150 c-3 -6 1 -7 9 -4 18 7 21 14 7 14 -6 0 -13 -4 -16 -10z"/>
<path d="M2504 3153 c4 -4 16 -8 28 -10 28 -4 18 6 -12 12 -12 2 -20 1 -16 -2z"/>
<path d="M1860 3136 c0 -12 -5 -16 -15 -12 -8 3 -15 1 -15 -4 0 -6 11 -10 25
-10 27 0 30 7 15 30 -8 13 -10 12 -10 -4z"/>
<path d="M2083 3123 c-12 -33 -7 -53 13 -53 10 0 12 5 7 12 -4 7 -6 25 -4 40
3 36 -4 36 -16 1z"/>
<path d="M1696 3125 c4 -8 10 -12 15 -9 11 6 2 24 -11 24 -5 0 -7 -7 -4 -15z"/>
<path d="M1753 3123 c-3 -10 -7 -21 -9 -24 -2 -3 2 -6 9 -6 7 0 12 11 12 24 0
28 -3 29 -12 6z"/>
<path d="M1790 3140 c-1 -3 -4 -18 -6 -35 -3 -25 -2 -27 7 -12 6 10 8 25 6 35
-3 9 -6 15 -7 12z"/>
<path d="M1987 3133 c-10 -10 -8 -23 4 -23 5 0 7 5 3 12 -5 8 0 9 14 6 12 -4
22 -2 22 3 0 10 -33 12 -43 2z"/>
<path d="M2470 3129 c0 -5 5 -7 10 -4 6 3 10 8 10 11 0 2 -4 4 -10 4 -5 0 -10
-5 -10 -11z"/>
<path d="M2598 3133 c7 -3 16 -2 19 1 4 3 -2 6 -13 5 -11 0 -14 -3 -6 -6z"/>
<path d="M1892 3110 c0 -14 2 -19 5 -12 2 6 2 18 0 25 -3 6 -5 1 -5 -13z"/>
<path d="M2520 3120 c0 -5 4 -10 9 -10 6 0 13 5 16 10 3 6 -1 10 -9 10 -9 0
-16 -4 -16 -10z"/>
<path d="M1596 3107 c3 -10 9 -15 12 -12 3 3 0 11 -7 18 -10 9 -11 8 -5 -6z"/>
<path d="M1810 3100 c0 -11 4 -20 9 -20 17 0 19 15 5 28 -12 11 -14 9 -14 -8z"/>
<path d="M1628 3103 c7 -3 16 -2 19 1 4 3 -2 6 -13 5 -11 0 -14 -3 -6 -6z"/>
<path d="M1665 3100 c-3 -6 1 -7 9 -4 18 7 21 14 7 14 -6 0 -13 -4 -16 -10z"/>
<path d="M1950 3100 c0 -5 5 -10 10 -10 6 0 10 5 10 10 0 6 -4 10 -10 10 -5 0
-10 -4 -10 -10z"/>
<path d="M2468 3085 c2 -14 6 -25 8 -25 2 0 4 11 4 25 0 14 -4 25 -9 25 -4 0
-6 -11 -3 -25z"/>
<path d="M1470 3090 c0 -5 5 -10 11 -10 5 0 7 5 4 10 -3 6 -8 10 -11 10 -2 0
-4 -4 -4 -10z"/>
<path d="M1852 3084 c-7 -8 -8 -14 -3 -14 10 0 25 19 20 25 -2 1 -10 -3 -17
-11z"/>
<path d="M1920 3090 c0 -5 5 -10 11 -10 5 0 7 5 4 10 -3 6 -8 10 -11 10 -2 0
-4 -4 -4 -10z"/>
<path d="M2430 3090 c0 -5 5 -10 11 -10 5 0 7 5 4 10 -3 6 -8 10 -11 10 -2 0
-4 -4 -4 -10z"/>
<path d="M1615 3080 c-5 -9 -4 -15 3 -18 16 -5 15 -39 0 -44 -9 -3 -9 -6 0
-12 7 -4 12 -2 12 4 0 6 4 9 9 6 5 -3 11 1 15 9 3 8 1 15 -3 15 -5 0 -13 12
-18 27 -7 21 -11 24 -18 13z"/>
<path d="M2049 3058 c4 -28 6 -29 9 -9 2 13 0 27 -5 32 -6 6 -7 -3 -4 -23z"/>
<path d="M2791 3074 c0 -11 3 -14 6 -6 3 7 2 16 -1 19 -3 4 -6 -2 -5 -13z"/>
<path d="M1676 3065 c-3 -9 0 -15 8 -15 7 0 13 7 13 15 0 8 -4 15 -8 15 -4 0
-9 -7 -13 -15z"/>
<path d="M2247 3073 c-4 -3 -7 -13 -7 -22 1 -13 3 -13 11 2 11 19 8 33 -4 20z"/>
<path d="M2670 3065 c-11 -13 -11 -18 0 -28 10 -9 11 -9 6 1 -4 7 -2 19 4 27
7 8 10 15 7 15 -2 0 -10 -7 -17 -15z"/>
<path d="M1485 3044 c2 -32 10 -39 13 -9 1 13 -2 26 -6 29 -4 2 -7 -6 -7 -20z"/>
<path d="M1510 3060 c0 -5 5 -10 10 -10 6 0 10 5 10 10 0 6 -4 10 -10 10 -5 0
-10 -4 -10 -10z"/>
<path d="M2725 3059 c-4 -6 -5 -12 -2 -15 2 -3 7 2 10 11 7 17 1 20 -8 4z"/>
<path d="M1410 3051 c0 -6 4 -11 10 -11 5 0 7 -7 4 -15 -4 -10 0 -15 12 -14
12 0 14 3 6 6 -10 4 -10 8 0 21 7 10 8 14 4 10 -5 -4 -15 -3 -23 3 -9 9 -13 8
-13 0z"/>
<path d="M1820 3045 c0 -9 5 -15 11 -13 6 2 11 8 11 13 0 5 -5 11 -11 13 -6 2
-11 -4 -11 -13z"/>
<path d="M1865 3045 c-3 -8 -7 -22 -10 -30 -2 -8 0 -17 4 -20 5 -2 11 11 13
30 4 36 1 46 -7 20z"/>
<path d="M1891 3046 c-14 -17 -1 -28 19 -16 11 7 12 12 4 20 -8 8 -14 7 -23
-4z"/>
<path d="M1746 3031 c-17 -19 -17 -19 1 -15 11 3 20 12 20 20 0 18 0 18 -21
-5z"/>
<path d="M2001 3028 c7 -16 19 -28 28 -28 13 0 13 2 1 13 -8 6 -20 19 -27 27
-11 12 -11 10 -2 -12z"/>
<path d="M2340 3042 c0 -7 -7 -9 -17 -5 -15 5 -16 3 -5 -8 9 -10 15 -10 24 -1
6 6 9 15 5 19 -4 3 -7 1 -7 -5z"/>
<path d="M2442 3035 c4 -4 3 -14 -4 -22 -8 -11 -7 -12 6 -7 19 7 21 20 4 30
-7 4 -10 4 -6 -1z"/>
<path d="M1361 3021 c-8 -6 -12 -19 -9 -35 3 -15 2 -29 -3 -32 -5 -2 -8 -20
-7 -39 1 -19 2 -34 2 -33 1 2 10 13 21 26 14 17 15 21 4 17 -10 -4 -16 0 -16
9 0 9 9 19 20 22 18 6 18 7 4 15 -13 8 -14 15 -7 34 11 28 10 28 -9 16z"/>
<path d="M2636 3022 c-2 -4 -1 -14 5 -22 7 -12 9 -10 9 8 0 23 -5 28 -14 14z"/>
<path d="M1397 3000 c3 -11 7 -20 9 -20 2 0 4 9 4 20 0 11 -4 20 -9 20 -5 0
-7 -9 -4 -20z"/>
<path d="M2171 3004 c0 -11 3 -14 6 -6 3 7 2 16 -1 19 -3 4 -6 -2 -5 -13z"/>
<path d="M2550 3010 c0 -5 5 -10 11 -10 5 0 7 5 4 10 -3 6 -8 10 -11 10 -2 0
-4 -4 -4 -10z"/>
<path d="M1750 2999 c0 -5 5 -7 10 -4 6 3 10 8 10 11 0 2 -4 4 -10 4 -5 0 -10
-5 -10 -11z"/>
<path d="M1976 2993 c-4 -9 -2 -21 4 -27 8 -8 9 -6 4 8 -5 13 -4 17 4 12 8 -5
10 -2 6 8 -8 20 -10 20 -18 -1z"/>
<path d="M2085 2999 c-4 -6 -4 -13 -1 -16 3 -4 6 -1 6 6 0 7 5 9 12 5 7 -4 8
-3 4 4 -9 15 -13 15 -21 1z"/>
<path d="M2266 2995 c4 -8 8 -15 10 -15 2 0 4 7 4 15 0 8 -4 15 -10 15 -5 0
-7 -7 -4 -15z"/>
<path d="M2412 2990 c0 -14 2 -19 5 -12 2 6 2 18 0 25 -3 6 -5 1 -5 -13z"/>
<path d="M1572 2988 c-7 -7 -12 -19 -12 -27 0 -13 2 -13 9 -3 4 7 12 12 17 10
9 -3 14 4 14 22 0 14 -13 13 -28 -2z"/>
<path d="M1670 2990 c0 -5 5 -10 11 -10 5 0 7 5 4 10 -3 6 -8 10 -11 10 -2 0
-4 -4 -4 -10z"/>
<path d="M1711 2984 c0 -11 3 -14 6 -6 3 7 2 16 -1 19 -3 4 -6 -2 -5 -13z"/>
<path d="M1306 2974 c-22 -21 -20 -27 4 -12 11 7 20 16 20 20 0 12 -7 10 -24
-8z"/>
<path d="M1492 2973 c-7 -12 -5 -21 5 -32 11 -10 12 -16 4 -19 -6 -2 -11 -10
-11 -17 0 -7 -7 -16 -16 -19 -21 -8 -8 -26 19 -25 20 1 20 2 -3 9 -23 7 -23 8
-4 9 25 1 37 39 22 66 -6 10 -5 21 2 31 8 9 9 14 2 14 -6 0 -15 -8 -20 -17z"/>
<path d="M1815 2980 c3 -5 11 -10 16 -10 6 0 7 5 4 10 -3 6 -11 10 -16 10 -6
0 -7 -4 -4 -10z"/>
<path d="M2460 2981 c0 -18 12 -41 22 -41 7 0 6 5 -1 13 -6 8 -8 16 -5 19 3 3
1 9 -5 13 -6 3 -11 2 -11 -4z"/>
<path d="M1730 2970 c0 -5 5 -10 10 -10 6 0 10 5 10 10 0 6 -4 10 -10 10 -5 0
-10 -4 -10 -10z"/>
<path d="M1527 2959 c7 -7 15 -10 18 -7 3 3 -2 9 -12 12 -14 6 -15 5 -6 -5z"/>
<path d="M1635 2960 c-3 -5 -1 -10 4 -10 6 0 11 5 11 10 0 6 -2 10 -4 10 -3 0
-8 -4 -11 -10z"/>
<path d="M1681 2944 c0 -11 3 -14 6 -6 3 7 2 16 -1 19 -3 4 -6 -2 -5 -13z"/>
<path d="M1705 2950 c-3 -5 -1 -10 4 -10 6 0 11 5 11 10 0 6 -2 10 -4 10 -3 0
-8 -4 -11 -10z"/>
<path d="M1820 2949 c0 -5 5 -7 10 -4 6 3 10 8 10 11 0 2 -4 4 -10 4 -5 0 -10
-5 -10 -11z"/>
<path d="M1913 2947 c-3 -6 -1 -7 5 -3 8 5 11 -5 8 -31 -2 -21 -1 -30 1 -20 3
10 10 16 17 14 7 -3 13 1 13 8 0 7 -7 11 -15 8 -11 -5 -12 -2 -4 14 9 15 8 20
-4 20 -8 0 -18 -5 -21 -10z"/>
<path d="M2425 2950 c-3 -6 1 -7 9 -4 18 7 21 14 7 14 -6 0 -13 -4 -16 -10z"/>
<path d="M2861 2934 c0 -11 3 -14 6 -6 3 7 2 16 -1 19 -3 4 -6 -2 -5 -13z"/>
<path d="M3160 2941 c0 -5 5 -13 10 -16 6 -3 10 -2 10 4 0 5 -4 13 -10 16 -5
3 -10 2 -10 -4z"/>
<path d="M1311 2920 c14 -31 19 -36 19 -24 0 6 -7 19 -16 30 -14 18 -14 18 -3
-6z"/>
<path d="M1550 2930 c0 -5 5 -10 10 -10 6 0 10 5 10 10 0 6 -4 10 -10 10 -5 0
-10 -4 -10 -10z"/>
<path d="M1636 2924 c-5 -14 -4 -15 9 -4 17 14 19 20 6 20 -5 0 -12 -7 -15
-16z"/>
<path d="M2238 2933 c-39 -6 -35 -18 6 -18 23 0 32 4 29 13 -3 6 -6 11 -7 11
0 -1 -13 -4 -28 -6z"/>
<path d="M2396 2925 c4 -8 8 -15 10 -15 2 0 4 7 4 15 0 8 -4 15 -10 15 -5 0
-7 -7 -4 -15z"/>
<path d="M1431 2904 c0 -11 3 -14 6 -6 3 7 2 16 -1 19 -3 4 -6 -2 -5 -13z"/>
<path d="M1973 2905 c0 -8 4 -12 9 -9 4 3 8 9 8 15 0 5 -4 9 -8 9 -5 0 -9 -7
-9 -15z"/>
<path d="M2481 2904 c0 -11 3 -14 6 -6 3 7 2 16 -1 19 -3 4 -6 -2 -5 -13z"/>
<path d="M2590 2899 c0 -5 5 -7 10 -4 6 3 10 8 10 11 0 2 -4 4 -10 4 -5 0 -10
-5 -10 -11z"/>
<path d="M2626 2893 c-6 -14 -5 -15 5 -6 7 7 10 15 7 18 -3 3 -9 -2 -12 -12z"/>
<path d="M1762 2880 c0 -14 2 -19 5 -12 2 6 2 18 0 25 -3 6 -5 1 -5 -13z"/>
<path d="M2034 2888 c3 -11 0 -18 -7 -18 -8 0 -7 -4 3 -11 12 -9 11 -10 -7 -6
-24 5 -22 -17 3 -27 8 -3 12 -2 9 3 -3 6 1 13 9 18 13 7 12 11 0 33 -9 14 -13
17 -10 8z"/>
<path d="M2064 2889 c-3 -6 -2 -15 4 -21 6 -6 12 -6 16 1 4 6 2 11 -4 11 -6 0
-8 5 -5 10 3 6 4 10 1 10 -3 0 -8 -5 -12 -11z"/>
<path d="M2219 2900 c-6 -19 -5 -50 2 -50 15 0 20 20 10 37 -6 10 -11 16 -12
13z"/>
<path d="M2240 2889 c0 -5 5 -7 10 -4 6 3 10 8 10 11 0 2 -4 4 -10 4 -5 0 -10
-5 -10 -11z"/>
<path d="M1302 2874 c10 -10 20 -16 22 -13 3 3 -5 11 -17 18 -21 13 -21 12 -5
-5z"/>
<path d="M1865 2880 c3 -5 8 -10 11 -10 2 0 4 5 4 10 0 6 -5 10 -11 10 -5 0
-7 -4 -4 -10z"/>
<path d="M1940 2886 c0 -2 7 -7 16 -10 8 -3 12 -2 9 4 -6 10 -25 14 -25 6z"/>
<path d="M2185 2880 c-3 -5 -1 -10 4 -10 6 0 11 5 11 10 0 6 -2 10 -4 10 -3 0
-8 -4 -11 -10z"/>
<path d="M1741 2864 c0 -11 3 -14 6 -6 3 7 2 16 -1 19 -3 4 -6 -2 -5 -13z"/>
<path d="M1831 2864 c0 -11 3 -14 6 -6 3 7 2 16 -1 19 -3 4 -6 -2 -5 -13z"/>
<path d="M2470 2870 c0 -5 5 -10 11 -10 5 0 7 5 4 10 -3 6 -8 10 -11 10 -2 0
-4 -4 -4 -10z"/>
<path d="M1555 2860 c3 -5 8 -10 11 -10 2 0 4 5 4 10 0 6 -5 10 -11 10 -5 0
-7 -4 -4 -10z"/>
<path d="M2921 2848 c0 -16 2 -18 6 -8 3 8 11 18 17 22 7 5 4 8 -6 8 -12 0
-18 -7 -17 -22z"/>
<path d="M3280 2866 c0 -2 7 -6 15 -10 8 -3 15 -1 15 4 0 6 -7 10 -15 10 -8 0
-15 -2 -15 -4z"/>
<path d="M1457 2839 c4 -13 8 -18 11 -10 2 7 -1 18 -6 23 -8 8 -9 4 -5 -13z"/>
<path d="M1610 2850 c0 -5 5 -10 11 -10 5 0 7 5 4 10 -3 6 -8 10 -11 10 -2 0
-4 -4 -4 -10z"/>
<path d="M2135 2848 c-7 -24 0 -61 12 -65 9 -3 12 4 11 21 -1 14 -6 26 -11 26
-5 0 -7 7 -3 15 3 8 3 15 0 15 -2 0 -6 -6 -9 -12z"/>
<path d="M2176 2838 c-8 -12 -12 -26 -8 -32 4 -7 8 -3 10 9 2 11 9 26 14 33 6
6 8 12 5 12 -3 0 -13 -10 -21 -22z"/>
<path d="M1228 2843 c7 -3 16 -2 19 1 4 3 -2 6 -13 5 -11 0 -14 -3 -6 -6z"/>
<path d="M1585 2840 c-3 -5 -1 -10 4 -10 6 0 11 5 11 10 0 6 -2 10 -4 10 -3 0
-8 -4 -11 -10z"/>
<path d="M1700 2830 c0 -11 4 -20 9 -20 5 0 7 9 4 20 -3 11 -7 20 -9 20 -2 0
-4 -9 -4 -20z"/>
<path d="M2561 2834 c0 -11 3 -14 6 -6 3 7 2 16 -1 19 -3 4 -6 -2 -5 -13z"/>
<path d="M1190 2826 c0 -9 5 -16 10 -16 6 0 10 4 10 9 0 6 -4 13 -10 16 -5 3
-10 -1 -10 -9z"/>
<path d="M1273 2821 c0 -11 5 -18 9 -15 4 3 5 11 1 19 -7 21 -12 19 -10 -4z"/>
<path d="M1437 2819 c4 -13 8 -18 11 -10 2 7 -1 18 -6 23 -8 8 -9 4 -5 -13z"/>
<path d="M1554 2814 c-1 -13 2 -21 7 -18 11 6 12 31 2 37 -5 3 -9 -6 -9 -19z"/>
<path d="M1985 2829 c-4 -6 -5 -12 -2 -15 2 -3 7 2 10 11 7 17 1 20 -8 4z"/>
<path d="M2075 2830 c-3 -5 -1 -10 4 -10 6 0 11 5 11 10 0 6 -2 10 -4 10 -3 0
-8 -4 -11 -10z"/>
<path d="M1251 2814 c0 -11 3 -14 6 -6 3 7 2 16 -1 19 -3 4 -6 -2 -5 -13z"/>
<path d="M1656 2818 c3 -4 9 -8 15 -8 5 0 9 4 9 8 0 5 -7 9 -15 9 -8 0 -12 -4
-9 -9z"/>
<path d="M2446 2822 c-3 -5 1 -9 9 -9 8 0 12 4 9 9 -3 4 -7 8 -9 8 -2 0 -6 -4
-9 -8z"/>
<path d="M2605 2820 c-3 -5 -1 -10 4 -10 6 0 11 5 11 10 0 6 -2 10 -4 10 -3 0
-8 -4 -11 -10z"/>
<path d="M2198 2813 c7 -3 16 -2 19 1 4 3 -2 6 -13 5 -11 0 -14 -3 -6 -6z"/>
<path d="M2638 2803 c-8 -10 -8 -17 -1 -24 8 -8 11 -6 10 7 -1 13 4 18 16 16
9 -2 17 1 17 6 0 14 -29 10 -42 -5z"/>
<path d="M2015 2800 c28 -12 37 -12 30 0 -3 6 -16 10 -28 9 -21 0 -21 -1 -2
-9z"/>
<path d="M1351 2784 c0 -11 3 -14 6 -6 3 7 2 16 -1 19 -3 4 -6 -2 -5 -13z"/>
<path d="M1653 2785 c0 -7 6 -11 14 -8 7 3 13 6 13 8 0 2 -6 5 -13 8 -8 3 -14
-1 -14 -8z"/>
<path d="M1870 2796 c0 -2 7 -7 16 -10 8 -3 12 -2 9 4 -6 10 -25 14 -25 6z"/>
<path d="M2080 2790 c-12 -7 -12 -12 -2 -22 22 -22 13 -27 -60 -27 -40 1 -98
-3 -128 -7 -62 -8 -66 -8 -172 -3 -42 2 -71 1 -65 -3 7 -4 -4 -8 -24 -8 -20 0
-74 -7 -120 -15 -46 -8 -100 -16 -119 -19 -19 -2 -43 -7 -53 -11 -12 -5 -23
-1 -32 11 -13 18 -14 18 -8 -3 4 -19 1 -23 -16 -23 -12 0 -32 -5 -43 -11 -14
-8 -23 -8 -31 0 -10 10 -5 13 19 10 9 -1 24 23 24 40 0 11 -3 11 -15 1 -12
-10 -19 -10 -28 -1 -8 8 -9 14 -1 19 7 4 8 15 4 27 -7 18 -10 16 -24 -17 -18
-43 -18 -54 3 -50 9 2 12 -2 7 -13 -3 -9 -6 -21 -6 -26 0 -5 -5 -9 -12 -9 -6
0 -8 3 -5 7 8 7 -11 33 -24 33 -5 0 -2 -12 7 -26 15 -22 15 -27 3 -35 -8 -5
-21 -9 -29 -9 -39 0 -44 -35 -12 -72 18 -22 32 -23 32 -4 0 17 27 29 35 15 9
-14 25 -1 19 15 -6 14 22 30 37 20 5 -3 9 -1 9 5 0 12 96 45 109 37 5 -4 11
-2 13 4 1 5 19 11 38 14 19 2 51 7 70 10 92 15 113 16 128 4 9 -7 13 -8 9 -2
-11 19 64 33 154 28 47 -3 105 0 128 5 35 8 42 7 37 -5 -3 -8 -1 -14 4 -14 6
0 10 5 10 10 0 18 78 12 89 -7 10 -17 10 -17 11 1 0 16 6 18 56 14 40 -3 61
-10 70 -23 8 -11 14 -13 14 -7 0 7 7 12 15 12 8 0 15 -6 15 -12 0 -9 3 -8 10
2 11 18 25 5 25 -23 0 -14 7 -22 20 -24 15 -1 16 -1 3 3 -33 10 -19 31 24 40
25 4 78 -13 78 -27 0 -4 12 -4 28 0 28 8 156 -7 229 -28 24 -6 68 -12 98 -12
49 -1 55 -3 56 -23 1 -18 2 -18 6 -3 3 12 10 16 21 12 33 -13 97 -21 130 -18
21 3 46 -3 68 -16 19 -12 44 -21 55 -21 10 0 19 -3 19 -7 0 -5 20 -8 44 -9 29
-1 66 -12 106 -32 33 -17 100 -41 148 -52 47 -11 96 -27 108 -35 12 -7 53 -23
93 -35 67 -21 100 -46 83 -65 -4 -5 1 -5 10 -2 10 3 20 2 22 -2 3 -5 33 -14
66 -22 43 -9 59 -17 55 -27 -2 -7 -1 -11 4 -8 4 3 18 -6 31 -19 13 -13 27 -22
32 -19 5 3 16 -2 24 -12 9 -11 13 -14 10 -8 -7 13 42 26 50 13 2 -4 11 -6 20
-2 12 4 14 0 9 -20 -8 -31 18 -43 59 -27 36 13 39 13 32 -6 -6 -14 -4 -15 9
-4 12 10 13 15 4 21 -7 4 -9 17 -6 29 4 16 1 24 -14 27 -10 3 -19 9 -19 13 0
8 -43 19 -98 24 -17 1 -35 6 -39 9 -3 4 -17 7 -29 7 -16 0 -24 7 -26 23 -2 18
-13 24 -58 33 -61 12 -112 35 -92 42 6 2 12 8 12 13 0 6 -5 7 -12 3 -6 -4 -17
1 -25 12 -8 10 -16 18 -19 16 -10 -7 -83 13 -134 36 -30 13 -86 33 -124 43
-39 11 -73 24 -77 30 -4 6 -12 8 -18 4 -18 -10 -68 14 -74 36 -3 10 -11 19
-19 19 -10 0 -9 -3 2 -11 12 -8 10 -9 -10 -5 -14 3 -45 8 -70 12 -25 4 -65 16
-90 27 -25 11 -48 20 -52 19 -5 -1 -8 1 -8 6 0 4 -23 5 -51 3 -30 -2 -74 4
-106 14 -31 10 -77 18 -104 18 -27 0 -47 3 -44 6 2 4 -1 13 -7 21 -8 12 -9 12
-4 -2 7 -23 -18 -24 -68 -3 -20 8 -38 15 -41 15 -3 -1 -37 2 -75 6 -55 5 -70
10 -70 23 0 13 -2 13 -9 2 -6 -10 -17 -11 -37 -6 -35 9 -84 16 -144 19 -62 4
-103 16 -117 34 -10 11 -13 12 -13 3 0 -11 -3 -11 -16 0 -8 7 -13 21 -11 31 3
10 4 18 4 18 -1 0 -9 -5 -17 -10z"/>
<path d="M2715 2790 c3 -5 8 -10 11 -10 2 0 4 5 4 10 0 6 -5 10 -11 10 -5 0
-7 -4 -4 -10z"/>
<path d="M2840 2789 c0 -5 5 -7 10 -4 6 3 10 8 10 11 0 2 -4 4 -10 4 -5 0 -10
-5 -10 -11z"/>
<path d="M2870 2776 c0 -14 4 -27 8 -30 5 -3 6 8 4 25 -5 35 -12 38 -12 5z"/>
<path d="M1511 2774 c0 -11 3 -14 6 -6 3 7 2 16 -1 19 -3 4 -6 -2 -5 -13z"/>
<path d="M2275 2780 c-3 -5 -1 -10 4 -10 6 0 11 5 11 10 0 6 -2 10 -4 10 -3 0
-8 -4 -11 -10z"/>
<path d="M2601 2774 c0 -11 3 -14 6 -6 3 7 2 16 -1 19 -3 4 -6 -2 -5 -13z"/>
<path d="M2953 2771 c7 -8 13 -9 15 -3 2 6 10 8 18 5 8 -3 14 0 14 6 0 5 -13
9 -29 8 -23 -2 -27 -5 -18 -16z"/>
<path d="M1555 2770 c3 -5 8 -10 11 -10 2 0 4 5 4 10 0 6 -5 10 -11 10 -5 0
-7 -4 -4 -10z"/>
<path d="M1950 2770 c-9 -6 -10 -10 -3 -10 6 0 15 5 18 10 8 12 4 12 -15 0z"/>
<path d="M2252 2760 c0 -14 2 -19 5 -12 2 6 2 18 0 25 -3 6 -5 1 -5 -13z"/>
<path d="M1291 2754 c0 -11 3 -14 6 -6 3 7 2 16 -1 19 -3 4 -6 -2 -5 -13z"/>
<path d="M1316 2755 c-3 -8 -1 -15 4 -15 6 0 10 7 10 15 0 8 -2 15 -4 15 -2 0
-6 -7 -10 -15z"/>
<path d="M2838 2744 c5 -29 8 -30 15 -5 3 11 -1 22 -8 24 -8 4 -10 -3 -7 -19z"/>
<path d="M1361 2751 c-9 -6 -10 -11 -2 -15 6 -4 11 -2 11 4 0 6 5 8 10 5 6 -3
10 -1 10 4 0 13 -10 14 -29 2z"/>
<path d="M2281 2746 c-9 -11 -8 -15 5 -20 9 -4 19 -4 22 -1 3 3 0 5 -6 5 -6 0
-9 7 -6 15 8 19 0 19 -15 1z"/>
<path d="M2363 2745 c0 -8 4 -15 9 -15 4 0 8 4 8 9 0 6 -4 12 -8 15 -5 3 -9
-1 -9 -9z"/>
<path d="M2451 2744 c0 -11 3 -14 6 -6 3 7 2 16 -1 19 -3 4 -6 -2 -5 -13z"/>
<path d="M2496 2748 c3 -5 10 -6 15 -3 13 9 11 12 -6 12 -8 0 -12 -4 -9 -9z"/>
<path d="M1235 2740 c-3 -5 -1 -10 4 -10 6 0 11 5 11 10 0 6 -2 10 -4 10 -3 0
-8 -4 -11 -10z"/>
<path d="M2415 2740 c-3 -5 -1 -10 4 -10 6 0 11 5 11 10 0 6 -2 10 -4 10 -3 0
-8 -4 -11 -10z"/>
<path d="M2474 2729 c-3 -6 -2 -15 3 -20 5 -5 9 -1 9 11 0 23 -2 24 -12 9z"/>
<path d="M2567 2729 c7 -7 15 -10 18 -7 3 3 -2 9 -12 12 -14 6 -15 5 -6 -5z"/>
<path d="M2962 2720 c0 -14 2 -19 5 -12 2 6 2 18 0 25 -3 6 -5 1 -5 -13z"/>
<path d="M2551 2704 c0 -11 3 -14 6 -6 3 7 2 16 -1 19 -3 4 -6 -2 -5 -13z"/>
<path d="M2981 2704 c0 -11 3 -14 6 -6 3 7 2 16 -1 19 -3 4 -6 -2 -5 -13z"/>
<path d="M1316 2697 c3 -10 9 -15 12 -12 3 3 0 11 -7 18 -10 9 -11 8 -5 -6z"/>
<path d="M3485 2690 c3 -5 8 -10 11 -10 2 0 4 5 4 10 0 6 -5 10 -11 10 -5 0
-7 -4 -4 -10z"/>
<path d="M3192 2667 c10 -8 14 -18 10 -22 -4 -5 -1 -5 6 -1 17 10 15 14 -10
26 -21 10 -21 10 -6 -3z"/>
<path d="M1102 2650 c0 -14 2 -19 5 -12 2 6 2 18 0 25 -3 6 -5 1 -5 -13z"/>
<path d="M2117 2657 c-3 -9 -2 -19 4 -23 15 -9 18 -2 9 20 -6 17 -7 18 -13 3z"/>
<path d="M2152 2640 c0 -14 2 -19 5 -12 2 6 2 18 0 25 -3 6 -5 1 -5 -13z"/>
<path d="M2900 2650 c0 -5 5 -10 11 -10 5 0 7 5 4 10 -3 6 -8 10 -11 10 -2 0
-4 -4 -4 -10z"/>
<path d="M3500 2640 c0 -11 4 -20 10 -20 5 0 7 6 4 14 -3 8 2 16 13 19 14 4
14 5 -4 6 -17 1 -23 -5 -23 -19z"/>
<path d="M2840 2639 c0 -5 5 -7 10 -4 6 3 10 8 10 11 0 2 -4 4 -10 4 -5 0 -10
-5 -10 -11z"/>
<path d="M1130 2625 c0 -8 2 -15 4 -15 2 0 6 7 10 15 3 8 1 15 -4 15 -6 0 -10
-7 -10 -15z"/>
<path d="M1993 2624 c-5 -13 -7 -13 -14 -2 -6 9 -9 9 -9 1 0 -22 19 -24 30 -3
6 11 8 20 5 20 -3 0 -8 -7 -12 -16z"/>
<path d="M2347 2623 c-4 -3 -7 -18 -7 -31 0 -32 11 -23 14 12 3 28 3 30 -7 19z"/>
<path d="M3189 2613 c-13 -16 -12 -17 4 -4 9 7 17 15 17 17 0 8 -8 3 -21 -13z"/>
<path d="M3474 2612 c-17 -11 -23 -38 -12 -53 8 -11 9 -11 4 3 -3 10 2 25 11
33 16 17 15 29 -3 17z"/>
<path d="M2138 2603 c7 -3 16 -2 19 1 4 3 -2 6 -13 5 -11 0 -14 -3 -6 -6z"/>
<path d="M2196 2593 c-6 -14 -5 -15 5 -6 7 7 10 15 7 18 -3 3 -9 -2 -12 -12z"/>
<path d="M2098 2593 c7 -3 16 -2 19 1 4 3 -2 6 -13 5 -11 0 -14 -3 -6 -6z"/>
<path d="M2120 2580 c-11 -7 -12 -12 -4 -20 8 -8 13 -6 17 9 3 12 4 21 4 21
-1 0 -9 -5 -17 -10z"/>
<path d="M3288 2583 c7 -3 16 -2 19 1 4 3 -2 6 -13 5 -11 0 -14 -3 -6 -6z"/>
<path d="M3630 2569 c0 -5 5 -7 10 -4 6 3 10 8 10 11 0 2 -4 4 -10 4 -5 0 -10
-5 -10 -11z"/>
<path d="M2180 2565 c0 -2 8 -9 18 -14 14 -8 19 -6 19 5 0 7 -9 14 -19 14 -10
0 -18 -2 -18 -5z"/>
<path d="M3420 2554 c0 -8 5 -12 10 -9 6 4 8 11 5 16 -9 14 -15 11 -15 -7z"/>
<path d="M3583 2550 c-1 -16 1 -17 12 -7 7 6 11 15 8 20 -8 13 -19 7 -20 -13z"/>
<path d="M1345 2551 c-3 -5 -1 -12 5 -16 5 -3 10 1 10 9 0 18 -6 21 -15 7z"/>
<path d="M2062 2535 c0 -16 2 -22 5 -12 2 9 2 23 0 30 -3 6 -5 -1 -5 -18z"/>
<path d="M2766 2533 c-6 -14 -5 -15 5 -6 7 7 10 15 7 18 -3 3 -9 -2 -12 -12z"/>
<path d="M1846 2527 c3 -10 9 -15 12 -12 3 3 0 11 -7 18 -10 9 -11 8 -5 -6z"/>
<path d="M1975 2520 c-4 -6 -10 -8 -15 -5 -5 3 -11 1 -15 -5 -10 -16 21 -12
35 5 7 8 10 15 7 15 -3 0 -9 -5 -12 -10z"/>
<path d="M3618 2523 c7 -3 16 -2 19 1 4 3 -2 6 -13 5 -11 0 -14 -3 -6 -6z"/>
<path d="M3538 2513 c7 -3 16 -2 19 1 4 3 -2 6 -13 5 -11 0 -14 -3 -6 -6z"/>
<path d="M2732 2494 c-7 -8 -8 -14 -3 -14 10 0 25 19 20 25 -2 1 -10 -3 -17
-11z"/>
<path d="M1160 2492 c0 -5 7 -9 15 -9 8 0 15 4 15 9 0 4 -7 8 -15 8 -8 0 -15
-4 -15 -8z"/>
<path d="M2263 2460 c-1 -11 2 -22 8 -25 5 -4 8 3 6 14 -4 28 -12 34 -14 11z"/>
<path d="M2130 2450 c0 -5 5 -10 11 -10 5 0 7 5 4 10 -3 6 -8 10 -11 10 -2 0
-4 -4 -4 -10z"/>
<path d="M3632 2430 c0 -14 2 -19 5 -12 2 6 2 18 0 25 -3 6 -5 1 -5 -13z"/>
<path d="M1896 2425 c-9 -26 -7 -32 5 -12 6 10 9 21 6 23 -2 3 -7 -2 -11 -11z"/>
<path d="M3220 2405 c0 -8 2 -15 4 -15 2 0 6 7 10 15 3 8 1 15 -4 15 -6 0 -10
-7 -10 -15z"/>
<path d="M2206 2397 c3 -10 9 -15 12 -12 3 3 0 11 -7 18 -10 9 -11 8 -5 -6z"/>
<path d="M3780 2386 c5 -13 6 -27 3 -30 -4 -3 -2 -6 4 -6 15 0 11 49 -4 54 -9
4 -10 -1 -3 -18z"/>
<path d="M3930 2402 c0 -8 9 -16 20 -19 11 -3 20 -9 20 -14 0 -5 4 -9 9 -9 6
0 9 9 8 20 -1 15 -6 18 -20 14 -11 -4 -23 0 -28 7 -7 12 -9 12 -9 1z"/>
<path d="M3816 2375 c4 -8 11 -15 16 -15 6 0 5 6 -2 15 -7 8 -14 15 -16 15 -2
0 -1 -7 2 -15z"/>
<path d="M4105 2380 c4 -6 11 -8 16 -5 14 9 11 15 -7 15 -8 0 -12 -5 -9 -10z"/>
<path d="M4342 2381 c-10 -6 -9 -11 4 -22 16 -12 17 -12 11 3 -3 9 -1 19 6 22
7 2 8 5 2 5 -5 0 -16 -3 -23 -8z"/>
<path d="M3924 2367 c3 -10 6 -21 6 -23 0 -3 5 -2 11 2 6 3 15 0 20 -7 7 -11
9 -11 9 -1 0 7 -8 16 -17 19 -10 4 -22 11 -26 17 -5 7 -6 4 -3 -7z"/>
<path d="M4200 2366 c0 -8 5 -18 10 -21 6 -3 10 1 10 9 0 8 -4 18 -10 21 -5 3
-10 -1 -10 -9z"/>
<path d="M4388 2373 c7 -3 16 -2 19 1 4 3 -2 6 -13 5 -11 0 -14 -3 -6 -6z"/>
<path d="M1855 2361 c-3 -5 -1 -12 5 -16 5 -3 10 1 10 9 0 18 -6 21 -15 7z"/>
<path d="M2921 2354 c0 -11 3 -14 6 -6 3 7 2 16 -1 19 -3 4 -6 -2 -5 -13z"/>
<path d="M4080 2353 c0 -6 -11 -14 -25 -17 -24 -6 -27 -26 -4 -26 6 0 7 5 3
12 -5 7 -2 9 9 5 15 -6 34 20 22 31 -3 3 -5 1 -5 -5z"/>
<path d="M4293 2327 l-1 -32 12 28 c7 15 15 24 19 21 4 -4 7 -2 7 4 0 7 -8 12
-17 12 -13 0 -18 -9 -20 -33z"/>
<path d="M4372 2344 c-7 -8 -8 -14 -3 -14 10 0 25 19 20 25 -2 1 -10 -3 -17
-11z"/>
<path d="M4255 2315 c-11 -24 -22 -35 -31 -31 -8 3 -14 1 -14 -4 0 -6 7 -10
16 -10 11 0 14 -6 9 -21 -7 -20 -6 -20 19 -4 28 19 34 27 12 19 -8 -3 -17 0
-22 7 -4 7 -3 10 3 6 6 -4 17 1 24 10 10 12 10 14 2 9 -17 -9 -17 16 -1 32 6
6 9 14 6 17 -3 3 -13 -11 -23 -30z"/>
<path d="M2571 2324 c0 -11 3 -14 6 -6 3 7 2 16 -1 19 -3 4 -6 -2 -5 -13z"/>
<path d="M3932 2310 c0 -14 2 -19 5 -12 2 6 2 18 0 25 -3 6 -5 1 -5 -13z"/>
<path d="M4163 2316 c-9 -11 -7 -14 11 -12 12 0 23 7 23 14 0 16 -19 15 -34
-2z"/>
<path d="M1968 2313 c7 -3 16 -2 19 1 4 3 -2 6 -13 5 -11 0 -14 -3 -6 -6z"/>
<path d="M3378 2283 c7 -3 16 -2 19 1 4 3 -2 6 -13 5 -11 0 -14 -3 -6 -6z"/>
<path d="M3890 2280 c0 -5 4 -10 9 -10 6 0 13 5 16 10 3 6 -1 10 -9 10 -9 0
-16 -4 -16 -10z"/>
<path d="M4020 2286 c0 -2 7 -6 15 -10 8 -3 15 -1 15 4 0 6 -7 10 -15 10 -8 0
-15 -2 -15 -4z"/>
<path d="M4290 2275 c0 -8 2 -15 4 -15 2 0 6 7 10 15 3 8 1 15 -4 15 -6 0 -10
-7 -10 -15z"/>
<path d="M3950 2260 c0 -6 7 -10 15 -10 8 0 15 2 15 4 0 2 -7 6 -15 10 -8 3
-15 1 -15 -4z"/>
<path d="M3996 2261 c-4 -7 -5 -15 -2 -18 9 -9 19 4 14 18 -4 11 -6 11 -12 0z"/>
<path d="M4345 2260 c-3 -5 -1 -10 4 -10 6 0 11 5 11 10 0 6 -2 10 -4 10 -3 0
-8 -4 -11 -10z"/>
<path d="M2468 2233 c7 -3 16 -2 19 1 4 3 -2 6 -13 5 -11 0 -14 -3 -6 -6z"/>
<path d="M3650 2236 c0 -2 7 -6 15 -10 8 -3 15 -1 15 4 0 6 -7 10 -15 10 -8 0
-15 -2 -15 -4z"/>
<path d="M3698 2233 c7 -3 16 -2 19 1 4 3 -2 6 -13 5 -11 0 -14 -3 -6 -6z"/>
<path d="M4186 2217 c3 -10 9 -15 12 -12 3 3 0 11 -7 18 -10 9 -11 8 -5 -6z"/>
<path d="M3603 2185 c0 -8 4 -12 9 -9 4 3 8 9 8 15 0 5 -4 9 -8 9 -5 0 -9 -7
-9 -15z"/>
<path d="M3800 2190 c0 -5 7 -7 15 -4 8 4 15 8 15 10 0 2 -7 4 -15 4 -8 0 -15
-4 -15 -10z"/>
<path d="M4155 2180 c3 -5 8 -10 11 -10 2 0 4 5 4 10 0 6 -5 10 -11 10 -5 0
-7 -4 -4 -10z"/>
<path d="M3811 2144 c0 -11 3 -14 6 -6 3 7 2 16 -1 19 -3 4 -6 -2 -5 -13z"/>
<path d="M4290 2156 c0 -2 9 -6 20 -9 11 -3 18 -1 14 4 -5 9 -34 13 -34 5z"/>
<path d="M3565 2130 c-3 -6 1 -7 9 -4 18 7 21 14 7 14 -6 0 -13 -4 -16 -10z"/>
<path d="M4300 2129 c0 -5 -4 -8 -9 -4 -5 3 -12 1 -15 -4 -4 -5 2 -8 11 -7 15
3 33 26 19 26 -3 0 -6 -5 -6 -11z"/>
<path d="M3766 2105 c-3 -8 -1 -15 3 -15 5 0 11 7 15 15 3 8 1 15 -3 15 -5 0
-11 -7 -15 -15z"/>
<path d="M3845 2099 c-4 -6 -5 -12 -2 -15 2 -3 7 2 10 11 7 17 1 20 -8 4z"/>
<path d="M3895 2100 c3 -5 8 -10 11 -10 2 0 4 5 4 10 0 6 -5 10 -11 10 -5 0
-7 -4 -4 -10z"/>
<path d="M3510 2090 c0 -5 5 -10 11 -10 5 0 7 5 4 10 -3 6 -8 10 -11 10 -2 0
-4 -4 -4 -10z"/>
<path d="M4083 2080 c2 -8 12 -16 23 -17 13 -2 15 -1 4 4 -8 3 -19 11 -23 17
-6 7 -7 6 -4 -4z"/>
<path d="M4268 2083 c6 -2 18 -2 25 0 6 3 1 5 -13 5 -14 0 -19 -2 -12 -5z"/>
<path d="M3486 2063 c-6 -14 -5 -15 5 -6 7 7 10 15 7 18 -3 3 -9 -2 -12 -12z"/>
<path d="M3521 2044 c0 -11 3 -14 6 -6 3 7 2 16 -1 19 -3 4 -6 -2 -5 -13z"/>
<path d="M3775 2049 c-4 -6 -5 -12 -2 -15 2 -3 7 2 10 11 7 17 1 20 -8 4z"/>
<path d="M3880 2035 c0 -16 4 -23 13 -19 8 3 14 11 14 19 0 8 -6 16 -14 19 -9
4 -13 -3 -13 -19z"/>
<path d="M3490 2029 c0 -5 5 -7 10 -4 6 3 10 8 10 11 0 2 -4 4 -10 4 -5 0 -10
-5 -10 -11z"/>
<path d="M3585 2029 c-4 -6 -5 -12 -2 -15 2 -3 7 2 10 11 7 17 1 20 -8 4z"/>
<path d="M3820 2029 c0 -5 5 -7 10 -4 6 3 10 8 10 11 0 2 -4 4 -10 4 -5 0 -10
-5 -10 -11z"/>
<path d="M3850 2031 c0 -6 4 -12 8 -15 5 -3 9 1 9 9 0 8 -4 15 -9 15 -4 0 -8
-4 -8 -9z"/>
<path d="M4202 2021 c-11 -6 -10 -10 4 -15 20 -8 32 0 18 14 -5 5 -15 5 -22 1z"/>
<path d="M4240 2021 c0 -5 -3 -16 -6 -25 -3 -9 -2 -16 4 -16 5 0 12 11 14 25
3 14 1 25 -3 25 -5 0 -9 -4 -9 -9z"/>
<path d="M4135 2010 c-3 -5 0 -7 9 -4 8 3 16 -2 19 -13 4 -14 5 -14 6 5 1 22
-22 31 -34 12z"/>
<path d="M3842 2005 c4 -4 3 -14 -3 -21 -7 -9 -6 -14 3 -20 7 -4 10 -4 6 1 -4
4 -3 14 3 21 7 9 6 14 -3 20 -7 4 -10 4 -6 -1z"/>
<path d="M3771 1984 c0 -11 3 -14 6 -6 3 7 2 16 -1 19 -3 4 -6 -2 -5 -13z"/>
<path d="M3944 1976 c-3 -9 -9 -14 -13 -11 -4 2 -8 -2 -8 -9 0 -8 6 -13 14
-12 7 1 13 6 12 11 0 4 5 11 11 15 9 5 9 9 1 14 -6 4 -14 0 -17 -8z"/>
<path d="M4120 1981 c0 -5 7 -11 15 -15 8 -3 15 -1 15 3 0 5 -7 11 -15 15 -8
3 -15 1 -15 -3z"/>
<path d="M3648 1973 c7 -3 16 -2 19 1 4 3 -2 6 -13 5 -11 0 -14 -3 -6 -6z"/>
<path d="M3812 1955 c0 -16 2 -22 5 -12 2 9 2 23 0 30 -3 6 -5 -1 -5 -18z"/>
<path d="M4215 1960 c6 -10 3 -12 -14 -7 -18 4 -20 3 -11 -8 7 -8 9 -19 5 -25
-3 -5 -1 -10 4 -10 6 0 11 8 11 18 0 14 2 15 9 2 6 -8 7 -18 5 -22 -3 -4 2 -5
11 -1 13 5 14 7 3 14 -10 7 -10 9 0 9 6 0 12 8 11 18 0 10 -3 12 -6 5 -2 -7
-9 -13 -14 -13 -6 0 -8 4 -4 9 3 5 0 13 -6 17 -8 5 -9 3 -4 -6z"/>
<path d="M3540 1948 c0 -4 4 -8 9 -8 6 0 12 4 15 8 3 5 -1 9 -9 9 -8 0 -15 -4
-15 -9z"/>
<path d="M3755 1950 c3 -5 8 -10 11 -10 2 0 4 5 4 10 0 6 -5 10 -11 10 -5 0
-7 -4 -4 -10z"/>
<path d="M4105 1950 c3 -5 8 -10 11 -10 2 0 4 5 4 10 0 6 -5 10 -11 10 -5 0
-7 -4 -4 -10z"/>
<path d="M3550 1919 c0 -5 5 -7 10 -4 6 3 10 8 10 11 0 2 -4 4 -10 4 -5 0 -10
-5 -10 -11z"/>
<path d="M3768 1923 c6 -2 18 -2 25 0 6 3 1 5 -13 5 -14 0 -19 -2 -12 -5z"/>
<path d="M3963 1915 c0 -8 4 -15 9 -15 4 0 8 4 8 9 0 6 -4 12 -8 15 -5 3 -9
-1 -9 -9z"/>
<path d="M4140 1915 c-11 -13 -10 -14 4 -9 9 3 16 10 16 15 0 13 -6 11 -20 -6z"/>
<path d="M3906 1911 c-4 -7 -5 -15 -2 -18 9 -9 19 4 14 18 -4 11 -6 11 -12 0z"/>
<path d="M3753 1903 c-7 -2 -13 -12 -13 -21 1 -15 2 -15 11 1 6 9 14 15 20 12
5 -4 9 -1 9 4 0 12 -7 13 -27 4z"/>
<path d="M4100 1901 c0 -6 4 -13 10 -16 6 -3 7 1 4 9 -7 18 -14 21 -14 7z"/>
<path d="M3480 1884 c0 -8 5 -12 10 -9 6 4 8 11 5 16 -9 14 -15 11 -15 -7z"/>
<path d="M3381 1874 c0 -11 3 -14 6 -6 3 7 2 16 -1 19 -3 4 -6 -2 -5 -13z"/>
<path d="M4135 1880 c3 -5 8 -10 11 -10 2 0 4 5 4 10 0 6 -5 10 -11 10 -5 0
-7 -4 -4 -10z"/>
<path d="M4203 1874 c0 -7 6 -10 14 -7 7 3 13 8 13 12 0 4 -6 8 -13 8 -8 0
-14 -6 -14 -13z"/>
<path d="M3715 1860 c2 -27 15 -38 15 -12 0 11 -4 23 -8 26 -5 3 -8 -4 -7 -14z"/>
<path d="M4008 1860 c-18 -21 -13 -26 11 -11 7 5 12 14 10 20 -3 7 -11 3 -21
-9z"/>
<path d="M3850 1860 c0 -5 7 -7 15 -4 8 4 15 8 15 10 0 2 -7 4 -15 4 -8 0 -15
-4 -15 -10z"/>
<path d="M4164 1854 c3 -23 13 -26 18 -6 3 11 0 19 -7 19 -7 0 -12 -6 -11 -13z"/>
<path d="M3671 1844 c0 -11 3 -14 6 -6 3 7 2 16 -1 19 -3 4 -6 -2 -5 -13z"/>
<path d="M3816 1844 c-5 -14 -4 -15 9 -4 17 14 19 20 6 20 -5 0 -12 -7 -15
-16z"/>
<path d="M3836 1831 c-4 -5 3 -7 14 -4 23 6 26 13 6 13 -8 0 -17 -4 -20 -9z"/>
<path d="M4050 1826 c0 -2 7 -7 16 -10 8 -3 12 -2 9 4 -6 10 -25 14 -25 6z"/>
<path d="M4135 1820 c-3 -5 -1 -10 4 -10 6 0 11 5 11 10 0 6 -2 10 -4 10 -3 0
-8 -4 -11 -10z"/>
<path d="M3665 1810 c-8 -13 5 -13 25 0 13 8 13 10 -2 10 -9 0 -20 -4 -23 -10z"/>
<path d="M3432 1790 c0 -14 2 -19 5 -12 2 6 2 18 0 25 -3 6 -5 1 -5 -13z"/>
<path d="M3635 1790 c-3 -5 -1 -10 4 -10 6 0 11 5 11 10 0 6 -2 10 -4 10 -3 0
-8 -4 -11 -10z"/>
<path d="M3781 1784 c0 -11 3 -14 6 -6 3 7 2 16 -1 19 -3 4 -6 -2 -5 -13z"/>
<path d="M4065 1781 c4 -7 9 -10 12 -7 3 2 17 0 32 -5 17 -7 23 -7 16 0 -16
16 -69 26 -60 12z"/>
<path d="M3888 1773 c7 -3 16 -2 19 1 4 3 -2 6 -13 5 -11 0 -14 -3 -6 -6z"/>
<path d="M3645 1760 c-3 -5 1 -10 10 -10 9 0 13 5 10 10 -3 6 -8 10 -10 10 -2
0 -7 -4 -10 -10z"/>
<path d="M3810 1754 c0 -8 5 -12 10 -9 6 4 8 11 5 16 -9 14 -15 11 -15 -7z"/>
<path d="M4053 1756 c3 -6 9 -10 15 -9 6 2 9 -4 6 -12 -4 -8 -1 -15 5 -15 6 0
11 7 11 16 0 8 5 12 10 9 6 -3 10 -2 10 3 0 5 -14 12 -30 14 -19 3 -29 1 -27
-6z"/>
<path d="M3450 1710 c0 -5 7 -7 15 -4 8 4 15 1 15 -6 0 -6 5 -8 10 -5 6 4 8
11 5 16 -8 12 -45 12 -45 -1z"/>
<path d="M960 3028 c0 -6 -18 -32 -39 -58 -51 -61 -131 -185 -131 -204 0 -8
-15 -47 -33 -88 -53 -116 -68 -162 -103 -328 -23 -104 -27 -362 -8 -435 8 -33
20 -64 25 -70 5 -5 9 -15 9 -22 0 -7 8 -21 18 -32 9 -10 58 -62 107 -116 117
-126 273 -249 324 -253 41 -3 199 -82 204 -102 4 -15 57 -39 122 -57 6 -1 62
-19 125 -39 108 -34 133 -38 196 -34 15 2 29 -2 33 -7 3 -5 20 -10 36 -11 41
-3 62 -7 126 -27 30 -9 68 -18 84 -21 17 -2 41 -6 55 -9 85 -17 399 -36 610
-36 232 -1 471 17 570 41 251 62 329 83 400 108 30 11 105 35 165 52 67 20
130 46 160 66 28 19 54 34 58 34 10 0 70 42 79 55 4 5 -5 20 -19 32 -29 26
-39 28 -48 12 -4 -5 -12 -8 -18 -6 -7 2 -19 -1 -27 -8 -38 -33 -257 -129 -315
-138 -25 -5 -119 -35 -240 -79 -52 -19 -247 -58 -340 -68 -49 -6 -112 -13
-140 -17 -27 -3 -140 -6 -250 -6 -320 -1 -603 18 -715 49 -30 9 -77 20 -105
24 -57 11 -175 45 -222 66 -17 8 -46 17 -65 20 -18 4 -37 10 -43 14 -5 4 -23
10 -40 13 -50 8 -199 65 -203 76 -2 6 -7 11 -12 11 -5 0 -21 5 -37 11 -15 6
-30 10 -32 9 -2 -1 -8 5 -13 14 -5 9 -14 16 -21 16 -27 1 -129 60 -158 92 -9
10 -22 18 -28 18 -7 0 -9 5 -6 10 3 6 2 10 -2 10 -24 0 -230 203 -262 257 -58
100 -70 317 -26 493 46 184 59 229 75 265 10 22 32 75 50 117 17 42 38 82 46
89 8 6 14 18 14 25 0 8 3 14 8 14 4 0 18 18 32 40 14 22 28 40 32 40 13 0 20
61 8 75 -15 18 -70 20 -70 3z m195 -1570 c5 -5 5 -8 -2 -8 -7 0 -15 5 -18 10
-4 6 -15 8 -26 5 -13 -4 -19 -2 -19 9 0 9 -4 16 -10 16 -5 0 -10 5 -10 11 0 9
59 -20 85 -43z m409 -184 c9 -3 14 -10 11 -15 -7 -10 -35 0 -35 12 0 11 3 11
24 3z m132 -32 c23 -13 0 -25 -29 -16 -24 8 -32 10 -59 12 -10 1 -18 7 -18 13
0 13 80 6 106 -9z m42 -31 c11 -6 9 -9 -5 -13 -12 -3 -20 0 -20 8 0 16 6 17
25 5z"/>
<path d="M1758 1163 c7 -3 16 -2 19 1 4 3 -2 6 -13 5 -11 0 -14 -3 -6 -6z"/>
<path d="M1810 1150 c20 -13 33 -13 25 0 -3 6 -14 10 -23 10 -15 0 -15 -2 -2
-10z"/>
<path d="M1878 1133 c6 -2 18 -2 25 0 6 3 1 5 -13 5 -14 0 -19 -2 -12 -5z"/>
<path d="M1970 1120 c0 -5 5 -10 11 -10 5 0 7 5 4 10 -3 6 -8 10 -11 10 -2 0
-4 -4 -4 -10z"/>
</g>
</svg>
