<?xml version="1.0" standalone="no"?>
<!DOCTYPE svg PUBLIC "-//W3C//DTD SVG 20010904//EN"
 "http://www.w3.org/TR/2001/REC-SVG-20010904/DTD/svg10.dtd">
<svg version="1.0" xmlns="http://www.w3.org/2000/svg"
 width="453.000000pt" height="437.000000pt" viewBox="0 0 453.000000 437.000000"
 preserveAspectRatio="xMidYMid meet">
<metadata>
Created by potrace 1.16, written by Peter Selinger 2001-2019
</metadata>
<g transform="translate(0.000000,437.000000) scale(0.100000,-0.100000)"
fill="#000000" stroke="none">
<path d="M1754 4035 c-4 -16 4 -59 21 -113 15 -48 29 -98 32 -112 2 -13 8 -29
13 -35 4 -5 8 -12 8 -15 1 -3 5 -16 10 -30 5 -14 13 -56 17 -95 4 -43 14 -78
25 -93 10 -13 22 -49 25 -80 4 -31 16 -84 26 -116 11 -33 19 -71 17 -85 -1
-14 2 -32 6 -40 5 -8 10 -47 11 -88 2 -59 6 -77 21 -88 17 -13 17 -14 2 -15
-30 0 -39 -37 -39 -150 0 -66 -4 -112 -10 -116 -7 -4 -8 -24 -4 -54 4 -29 3
-50 -4 -54 -6 -4 -8 -30 -4 -69 4 -46 1 -71 -10 -93 -17 -33 -47 -145 -47
-176 0 -29 -91 -208 -106 -208 -6 0 -17 6 -23 14 -6 7 -29 13 -51 13 -33 0
-44 -5 -65 -33 -27 -36 -31 -50 -14 -56 8 -3 6 -16 -5 -42 -9 -21 -16 -47 -16
-57 0 -11 -5 -19 -12 -19 -6 0 -8 -3 -5 -7 4 -3 2 -12 -4 -19 -6 -8 -17 -46
-25 -86 -8 -45 -33 -112 -63 -173 -53 -109 -70 -152 -69 -175 1 -8 -13 -47
-30 -87 -18 -39 -32 -81 -32 -92 0 -12 -3 -21 -7 -22 -34 -4 -193 -3 -193 2 0
17 -214 -28 -230 -49 -3 -4 -24 -20 -47 -35 -24 -15 -43 -31 -43 -35 0 -4 -14
-23 -31 -42 -40 -45 -51 -73 -52 -135 -1 -62 10 -120 30 -160 20 -41 122 -133
155 -140 15 -4 40 -19 56 -33 16 -15 54 -40 85 -56 32 -16 57 -32 57 -36 0 -4
16 -15 35 -26 19 -10 35 -21 35 -24 0 -11 270 -140 293 -140 9 0 18 -4 22 -9
3 -6 27 -13 53 -17 26 -3 52 -10 57 -14 25 -20 75 -17 120 5 47 24 95 63 95
78 0 5 20 48 44 95 24 48 47 98 51 112 4 14 25 62 46 107 22 45 39 85 39 88 0
3 18 43 40 87 22 45 40 88 40 95 0 13 15 43 35 73 6 8 19 40 29 70 9 30 28 78
41 105 31 65 57 125 60 139 1 6 5 18 8 26 28 65 78 220 83 258 3 26 8 50 10
53 2 3 6 33 10 67 6 63 -6 123 -33 153 -16 20 -9 42 29 89 15 19 28 39 28 45
0 5 16 28 35 49 18 22 34 42 33 45 -3 20 17 71 28 75 8 3 14 12 14 21 0 19 47
110 64 124 10 9 17 -3 29 -55 9 -37 24 -81 32 -98 9 -17 18 -70 21 -120 5 -70
11 -97 29 -125 19 -29 24 -55 29 -140 3 -58 12 -117 20 -133 9 -16 13 -46 10
-70 -2 -23 1 -47 7 -54 5 -6 9 -16 7 -20 -1 -5 3 -29 9 -54 6 -25 17 -76 23
-115 7 -38 16 -77 20 -85 5 -8 11 -33 14 -55 4 -22 11 -69 17 -105 6 -36 12
-83 15 -105 3 -22 7 -56 11 -75 3 -19 7 -57 10 -85 2 -27 9 -60 14 -71 14 -26
78 -64 111 -64 20 0 27 -9 41 -52 10 -29 22 -69 26 -88 5 -19 20 -65 34 -102
14 -38 23 -68 20 -68 -2 0 10 -12 27 -26 28 -24 40 -27 118 -28 149 -2 313 13
377 34 33 11 88 25 123 31 34 7 62 15 62 19 0 4 17 11 37 15 20 4 53 15 73 25
19 10 55 21 80 25 87 13 180 49 238 92 91 68 112 260 33 305 -29 17 -80 14
-121 -7 -18 -9 -41 -10 -84 -4 -32 4 -68 4 -80 0 -11 -5 -40 -11 -63 -14 -57
-8 -96 -18 -109 -28 -23 -18 -172 9 -175 32 -5 25 -3 34 6 35 6 0 24 7 40 14
17 7 37 12 46 11 18 -2 59 43 59 65 0 7 5 14 10 16 6 2 -5 26 -25 53 -19 28
-40 66 -45 87 -6 20 -28 62 -49 95 -39 58 -75 160 -105 298 -8 39 -26 122 -41
185 -14 63 -32 151 -41 195 -10 48 -36 121 -64 180 -36 76 -102 254 -116 315
0 3 -5 16 -10 30 -6 14 -9 61 -7 105 1 48 -4 110 -14 155 -9 41 -17 98 -18
125 0 28 -4 62 -9 77 -6 22 -11 26 -25 18 -16 -8 -18 -3 -19 48 -1 31 -2 66
-2 77 -4 153 12 315 41 414 10 35 19 87 19 115 0 28 7 72 15 98 8 26 17 76 21
110 4 40 12 68 23 76 11 9 16 27 14 64 -1 54 -21 85 -47 75 -24 -10 -34 -44
-45 -163 -5 -60 -17 -135 -25 -166 -8 -31 -12 -66 -9 -78 5 -20 -18 -112 -39
-157 -6 -12 -8 -28 -5 -36 3 -8 -1 -47 -9 -88 -12 -62 -23 -193 -24 -286 0
-16 -6 -23 -19 -23 -10 0 -29 -8 -42 -18 -24 -18 -52 -25 -99 -23 -14 0 -36 1
-48 1 -13 0 -37 -9 -54 -21 -23 -17 -48 -22 -111 -25 -107 -4 -402 -4 -447 1
-144 15 -233 28 -278 42 -49 15 -52 17 -36 34 17 18 17 9 -17 253 -5 37 -16
80 -23 95 -8 14 -15 47 -17 71 -1 25 -13 66 -27 92 -13 26 -28 80 -34 120 -5
40 -14 80 -18 89 -15 28 -71 239 -66 247 9 14 -24 52 -44 52 -13 0 -22 -9 -26
-25z m1463 -1094 c4 -63 13 -141 18 -166 16 -82 17 -163 3 -186 -20 -33 -17
-58 10 -97 22 -30 39 -73 47 -117 5 -32 83 -219 106 -255 16 -26 38 -76 43
-101 3 -13 13 -55 21 -94 9 -38 16 -83 17 -100 0 -16 4 -34 8 -40 10 -13 46
-160 59 -242 5 -34 19 -83 30 -109 12 -26 21 -51 21 -57 0 -16 41 -100 60
-122 9 -11 26 -45 36 -75 10 -30 26 -67 36 -82 10 -14 18 -30 18 -35 0 -17
-97 -53 -160 -58 -50 -5 -70 -11 -90 -30 -15 -14 -36 -25 -48 -25 -12 0 -40
-11 -62 -25 -26 -17 -61 -27 -98 -31 -31 -2 -71 -11 -87 -19 -17 -8 -51 -18
-75 -24 -155 -34 -149 -34 -167 -15 -10 9 -18 31 -19 48 -1 17 -7 53 -13 80
-6 28 -13 68 -15 90 -3 23 -9 66 -15 96 -6 30 -13 69 -16 85 -13 72 -28 131
-37 141 -5 7 -9 34 -9 60 -1 27 -10 75 -20 107 -11 32 -21 84 -24 115 -2 31
-11 77 -19 101 -9 25 -19 86 -22 135 -5 71 -11 98 -28 121 -17 25 -21 46 -23
119 -1 61 -6 92 -15 97 -7 5 -10 9 -5 9 4 0 -2 18 -13 41 -16 30 -22 61 -23
117 -1 62 -4 80 -20 94 -14 13 -24 15 -38 8 -10 -6 -27 -10 -38 -10 -24 0 -34
-14 -36 -55 -3 -36 -107 -256 -142 -298 -13 -16 -23 -33 -23 -39 0 -5 -17 -31
-37 -56 -21 -26 -38 -49 -40 -51 -1 -2 -23 7 -49 19 -25 13 -59 24 -74 26 -51
6 -122 25 -151 40 -16 8 -29 11 -29 7 0 -4 -5 -2 -12 5 -7 7 -33 12 -59 12
l-47 0 10 40 c6 22 14 40 18 40 4 0 10 14 14 31 3 17 12 45 19 62 24 55 37
102 37 131 0 15 5 37 12 49 16 30 40 176 33 198 -4 11 -2 19 4 19 13 0 15 36
2 44 -4 3 -4 29 1 58 5 29 9 81 8 116 0 60 1 62 20 52 20 -11 33 -13 140 -25
30 -3 82 -10 115 -15 152 -23 268 -27 487 -17 76 4 103 9 125 25 23 16 42 19
100 17 55 -1 79 2 100 16 36 23 118 23 120 0z m-1317 -936 c262 -71 289 -82
357 -143 36 -31 43 -75 29 -167 -10 -69 -80 -272 -128 -375 -22 -47 -41 -92
-43 -100 -5 -23 -49 -123 -150 -335 -37 -77 -76 -162 -86 -190 -11 -27 -42
-95 -70 -150 -58 -118 -87 -142 -161 -130 -55 9 -138 37 -138 47 0 5 -9 8 -20
8 -11 0 -28 4 -38 9 -9 6 -39 20 -67 32 -71 32 -181 97 -242 141 -29 21 -56
38 -61 38 -5 0 -17 10 -28 21 -10 12 -42 32 -71 46 -28 13 -60 34 -70 45 l-18
20 40 -16 c22 -9 41 -21 43 -25 1 -5 24 -4 49 0 30 6 59 5 79 -1 39 -13 63 -1
88 42 10 16 26 28 37 28 11 0 23 8 26 18 4 9 15 25 24 35 22 24 42 102 34 136
-9 42 -92 81 -109 52 -3 -5 -22 -12 -41 -15 -19 -4 -35 -11 -35 -16 0 -4 -15
-23 -34 -41 -39 -36 -51 -70 -36 -99 14 -26 50 -26 57 0 3 11 10 20 15 20 5 0
6 5 3 10 -3 6 -2 10 3 10 5 0 14 11 21 24 8 13 23 26 35 29 11 3 32 9 45 13
21 6 23 5 16 -17 -10 -38 -39 -89 -49 -89 -11 0 -66 -60 -66 -72 0 -5 -4 -7
-9 -4 -5 3 -39 7 -76 8 -37 1 -69 7 -73 14 -4 6 -17 16 -29 23 -13 6 -23 17
-23 24 0 7 -5 29 -11 50 -15 55 -40 49 -61 -15 -16 -46 -16 -55 -3 -75 21 -32
19 -53 -3 -23 -31 44 -41 112 -23 156 24 59 54 104 68 104 7 0 13 4 13 9 0 13
79 48 129 56 107 18 303 11 361 -12 8 -3 24 -8 35 -10 11 -2 43 -14 70 -28 46
-23 51 -23 63 -8 8 11 9 20 2 27 -5 5 -10 14 -10 20 0 5 3 6 7 3 3 -4 13 3 21
14 14 20 13 23 -4 32 -10 6 -39 12 -64 14 -25 1 -55 5 -68 8 -21 5 -22 7 -7
40 8 20 14 37 15 40 2 12 15 45 43 104 30 64 137 382 137 406 0 7 11 37 23 66
13 30 32 73 42 97 l19 42 65 -6 c37 -4 86 -12 111 -19z m1680 -1099 c17 -53
68 -90 140 -101 14 -3 34 -6 45 -8 18 -3 50 2 110 19 11 3 38 10 60 14 22 4
55 13 74 19 19 6 44 8 55 6 50 -12 101 -13 118 -4 56 30 98 15 97 -34 0 -36
-30 -121 -41 -116 -3 2 -17 -6 -30 -17 -13 -12 -35 -24 -50 -28 -16 -3 -28
-11 -28 -16 0 -6 -8 -10 -18 -10 -10 0 -24 -6 -30 -12 -10 -10 -17 -10 -31 -1
-15 10 -22 9 -31 -2 -7 -8 -20 -15 -29 -15 -9 -1 -34 -9 -56 -20 -22 -11 -55
-19 -73 -20 -18 0 -40 -7 -48 -15 -8 -8 -31 -17 -52 -20 -20 -4 -68 -16 -107
-27 -38 -11 -86 -22 -105 -24 -19 -2 -46 -7 -60 -10 -14 -3 -82 -7 -151 -7
-96 -1 -130 2 -144 13 -22 18 -59 96 -51 109 3 5 3 11 -1 13 -5 1 -17 35 -29
74 -16 57 -18 75 -8 88 15 22 103 52 187 66 79 12 108 23 126 44 8 9 29 16 50
16 28 0 42 7 61 30 14 17 28 30 32 30 3 0 11 -15 18 -34z"/>
<path d="M322 3019 c-13 -5 -20 -13 -17 -19 3 -5 1 -10 -4 -10 -21 0 -10 -37
22 -76 17 -22 37 -48 43 -59 36 -67 51 -92 66 -109 10 -11 20 -28 24 -38 3
-10 10 -18 15 -18 5 0 9 -4 9 -9 0 -6 14 -30 30 -54 17 -25 30 -49 30 -55 0
-5 16 -30 35 -55 19 -25 35 -50 35 -56 0 -6 13 -25 28 -43 16 -18 34 -49 42
-68 7 -19 21 -44 30 -55 10 -11 21 -30 25 -42 3 -13 11 -23 16 -23 5 0 9 -6 9
-14 0 -8 4 -16 9 -18 5 -1 27 -38 49 -80 36 -67 38 -76 21 -73 -46 9 -85 -77
-41 -92 19 -6 72 -61 72 -74 0 -9 10 -20 153 -166 48 -50 87 -95 87 -101 0
-16 17 -24 61 -27 33 -3 42 0 48 17 11 30 -26 221 -65 333 -20 55 -42 123 -51
152 -10 35 -22 53 -35 56 -11 3 -22 15 -25 26 -3 12 -13 21 -23 21 -37 0 -53
-51 -35 -110 l8 -25 -22 27 c-11 14 -21 30 -21 34 0 4 -7 14 -15 23 -25 26
-81 111 -131 197 -25 45 -56 93 -68 107 -13 14 -31 44 -41 67 -10 22 -21 40
-25 40 -4 0 -23 25 -41 56 -19 31 -43 68 -54 82 -11 15 -36 57 -55 95 -19 37
-38 67 -43 67 -4 0 -12 10 -17 23 -6 12 -19 36 -30 52 -11 17 -26 42 -35 57
-20 36 -44 48 -73 37z m569 -966 c13 -16 12 -17 -3 -4 -10 7 -18 15 -18 17 0
8 8 3 21 -13z"/>
</g>
</svg>
