<?xml version="1.0" standalone="no"?>
<!DOCTYPE svg PUBLIC "-//W3C//DTD SVG 20010904//EN"
 "http://www.w3.org/TR/2001/REC-SVG-20010904/DTD/svg10.dtd">
<svg version="1.0" xmlns="http://www.w3.org/2000/svg"
 width="457.000000pt" height="277.000000pt" viewBox="0 0 457.000000 277.000000"
 preserveAspectRatio="xMidYMid meet">
<metadata>
Created by potrace 1.16, written by Peter Selinger 2001-2019
</metadata>
<g transform="translate(0.000000,277.000000) scale(0.100000,-0.100000)"
fill="#000000" stroke="none">
<path d="M1890 2549 c-19 -4 -96 -11 -170 -14 -155 -8 -357 -29 -415 -44 -22
-5 -69 -17 -105 -25 -36 -8 -90 -26 -120 -40 -30 -14 -60 -26 -66 -26 -12 0
-282 -137 -375 -191 -37 -21 -93 -60 -125 -87 -33 -27 -69 -54 -81 -61 -12 -6
-37 -33 -54 -59 -18 -26 -42 -58 -55 -72 -31 -35 -77 -130 -109 -228 -24 -72
-27 -95 -23 -175 3 -74 8 -101 27 -132 15 -26 21 -48 17 -67 -3 -15 -2 -30 3
-32 7 -4 20 -60 22 -96 1 -3 7 -21 15 -40 8 -19 17 -58 19 -88 3 -30 8 -59 12
-65 4 -7 8 -16 9 -22 11 -65 45 -168 82 -245 57 -121 151 -217 267 -274 96
-47 120 -55 225 -67 266 -31 408 -37 485 -19 28 6 71 15 97 20 27 5 54 12 60
17 15 9 57 25 138 52 96 33 213 82 275 116 33 18 96 43 140 55 44 12 87 26 95
30 8 4 40 11 70 15 30 4 59 9 63 12 4 3 108 6 230 8 201 3 234 1 351 -21 71
-13 141 -24 157 -24 15 0 30 -4 34 -9 3 -6 26 -13 50 -17 25 -3 48 -10 51 -15
3 -5 14 -9 25 -9 11 0 52 -11 91 -25 58 -20 92 -25 178 -26 146 -1 227 17 272
60 9 9 39 34 66 56 28 22 58 57 68 77 9 21 25 40 35 43 11 4 19 10 19 15 0 5
11 21 25 36 14 15 25 30 25 33 0 3 15 22 33 42 53 58 125 166 180 269 28 52
55 97 59 98 23 10 68 69 66 87 -1 11 1 25 5 32 4 6 7 38 7 70 1 84 0 94 -10
88 -4 -3 -6 5 -2 17 3 14 1 19 -6 14 -7 -4 -10 11 -10 46 1 45 -7 69 -51 156
-29 57 -64 113 -77 125 -13 11 -24 26 -24 33 0 6 -12 20 -27 30 -15 9 -39 28
-53 41 -28 26 -229 126 -250 125 -3 0 -12 5 -20 13 -8 7 -51 28 -95 46 -44 18
-82 36 -85 39 -7 9 -126 50 -146 50 -9 0 -35 9 -58 19 -46 21 -119 47 -183 64
-24 6 -43 15 -43 19 0 5 -10 8 -22 8 -13 1 -41 8 -63 16 -22 8 -48 17 -58 19
-10 2 -50 13 -90 24 -40 10 -103 24 -142 30 -38 6 -81 13 -95 16 -14 3 -56 7
-95 10 -38 3 -104 8 -145 11 -210 17 -550 24 -600 13z m560 -89 c97 -6 214
-17 260 -26 111 -20 220 -42 245 -48 11 -2 43 -9 70 -16 51 -11 184 -54 220
-70 11 -5 40 -16 65 -24 103 -34 312 -120 485 -201 28 -12 77 -35 110 -50 60
-28 168 -105 146 -105 -6 0 12 -30 40 -67 63 -80 115 -205 121 -286 4 -51 2
-60 -15 -66 -18 -7 -18 -9 -3 -24 15 -14 15 -20 0 -63 -8 -25 -17 -55 -19 -65
-14 -72 -82 -137 -166 -159 -39 -11 -189 -9 -189 1 0 4 -34 21 -76 39 -41 18
-80 40 -87 49 -7 9 -37 32 -67 51 -30 19 -57 37 -60 40 -3 3 -27 20 -55 36
-64 39 -182 78 -314 104 -58 12 -109 24 -115 27 -29 18 -419 35 -444 19 -5 -3
-49 -8 -98 -11 -49 -4 -98 -10 -109 -14 -51 -21 -106 -34 -185 -45 -19 -3 -62
-15 -95 -26 -33 -12 -73 -25 -90 -29 -16 -5 -60 -23 -97 -40 -36 -17 -75 -31
-86 -31 -11 0 -22 -3 -24 -7 -7 -17 -140 -74 -237 -103 -40 -12 -91 -31 -113
-42 -22 -12 -77 -29 -121 -39 -45 -10 -113 -28 -152 -39 -105 -33 -244 -31
-459 4 -142 24 -236 83 -357 224 -26 31 -35 49 -31 67 3 17 -7 42 -32 80 -32
47 -36 60 -31 92 11 60 46 175 65 213 27 53 108 154 184 229 35 35 201 132
266 155 14 5 29 15 33 23 5 8 16 11 26 8 10 -3 31 0 47 6 16 6 40 13 54 16 14
2 26 8 28 14 2 5 17 9 33 9 18 0 28 4 24 10 -3 6 0 10 7 11 22 1 60 8 138 25
73 15 104 25 145 47 30 16 95 29 138 28 21 0 54 6 74 14 19 8 46 15 60 15 13
0 22 4 19 9 -8 12 51 22 154 27 47 3 137 8 200 13 122 9 189 8 470 -9z m-1075
-45 c-16 -7 -34 -10 -39 -7 -12 7 21 21 49 20 15 0 13 -3 -10 -13z m-105 -25
c-14 -4 -36 -8 -50 -8 -22 0 -22 1 5 8 17 4 39 8 50 8 16 0 15 -2 -5 -8z m-85
-18 c-6 -5 -35 -16 -65 -24 -30 -9 -64 -19 -75 -24 -12 -4 -17 -3 -12 2 9 10
124 52 147 53 8 1 10 -2 5 -7z m2916 -495 c12 -22 12 -22 -10 -3 -11 11 -21
23 -21 28 0 14 19 -1 31 -25z m-1241 -421 c123 -7 303 -42 385 -75 11 -4 45
-16 75 -26 88 -28 179 -82 173 -104 -4 -14 5 -20 49 -29 29 -7 73 -24 98 -38
59 -34 162 -73 208 -79 90 -11 173 -3 201 19 23 18 -2 -23 -38 -63 -17 -19
-31 -38 -31 -43 0 -4 -7 -8 -15 -8 -8 0 -15 -4 -15 -8 0 -12 -49 -71 -122
-145 -38 -38 -68 -72 -68 -77 0 -31 -112 -99 -162 -100 -15 0 -30 -5 -33 -10
-5 -8 -11 -7 -21 1 -8 6 -14 7 -14 2 0 -10 -127 -4 -150 6 -3 1 -12 4 -20 7
-8 2 -40 11 -70 19 -30 9 -82 23 -115 31 -33 8 -76 19 -96 24 -20 6 -50 10
-66 10 -16 0 -33 4 -38 9 -14 14 -202 33 -315 33 -177 -1 -375 -10 -429 -21
-103 -21 -239 -69 -361 -127 -79 -39 -107 -50 -250 -102 -30 -11 -87 -32 -126
-47 -39 -15 -85 -28 -101 -29 -16 -2 -34 -5 -39 -8 -19 -11 -108 -12 -204 -4
-125 11 -175 17 -225 26 -27 5 -63 12 -78 14 -47 8 -100 28 -129 47 -14 11
-31 19 -37 19 -6 0 -11 4 -11 9 0 5 -13 14 -29 21 -28 11 -50 30 -106 93 -36
40 -105 192 -122 267 -7 36 -16 92 -19 125 -3 33 -7 68 -10 78 -9 28 8 20 59
-28 27 -25 57 -45 68 -45 10 0 19 -4 19 -8 0 -15 73 -42 140 -51 36 -6 76 -13
90 -16 35 -10 262 -25 280 -20 8 2 31 6 50 9 58 7 192 36 210 46 9 5 30 11 46
14 16 2 29 5 29 6 0 2 9 4 20 5 11 2 38 11 60 21 22 10 42 18 45 19 3 0 10 4
16 7 6 4 36 14 65 22 71 19 173 57 179 66 3 4 41 22 85 39 44 18 96 39 115 48
36 16 122 44 195 64 22 6 49 15 60 19 11 5 52 14 90 20 39 7 94 19 124 27 59
17 208 30 286 26 28 -1 93 -5 145 -7z"/>
</g>
</svg>
