<?xml version="1.0" standalone="no"?>
<!DOCTYPE svg PUBLIC "-//W3C//DTD SVG 20010904//EN"
 "http://www.w3.org/TR/2001/REC-SVG-20010904/DTD/svg10.dtd">
<svg version="1.0" xmlns="http://www.w3.org/2000/svg"
 width="415.000000pt" height="439.000000pt" viewBox="0 0 415.000000 439.000000"
 preserveAspectRatio="xMidYMid meet">
<metadata>
Created by potrace 1.16, written by Peter Selinger 2001-2019
</metadata>
<g transform="translate(0.000000,439.000000) scale(0.100000,-0.100000)"
fill="#000000" stroke="none">
<path d="M1310 4129 c-197 -18 -307 -55 -428 -144 -61 -45 -80 -66 -127 -144
l-38 -64 -2 -141 c-2 -91 2 -159 11 -191 18 -70 19 -66 -37 -104 -27 -19 -62
-46 -78 -60 -57 -54 -91 -81 -100 -81 -17 0 -106 -113 -124 -157 -25 -65 -35
-236 -20 -358 6 -57 7 -200 1 -263 -3 -24 1 -73 8 -110 7 -37 10 -71 7 -76
-10 -16 -3 -295 8 -324 6 -15 10 -28 10 -29 0 -2 42 -108 56 -142 5 -10 2 -12
-7 -6 -10 6 -12 4 -7 -9 4 -10 7 -21 7 -24 0 -4 4 -2 8 5 5 8 16 1 35 -22 24
-30 25 -35 10 -35 -12 -1 -4 -9 21 -25 22 -13 43 -22 48 -19 5 3 36 -13 69
-35 34 -23 67 -41 74 -41 6 0 20 -9 30 -20 10 -11 20 -18 23 -15 3 2 26 -7 52
-21 25 -14 53 -27 61 -28 8 -2 21 -6 29 -9 8 -4 25 -8 37 -10 12 -2 25 -6 29
-9 3 -4 12 -4 20 -1 8 3 17 -2 20 -11 5 -13 9 -14 21 -4 11 9 16 9 23 -1 4 -8
9 -9 11 -3 2 5 18 7 36 5 24 -4 30 -9 27 -22 -5 -14 -5 -14 5 0 8 13 19 14 58
8 119 -21 224 -32 291 -33 74 0 81 -3 60 -25 -11 -10 -10 -11 5 -6 12 5 17 2
17 -9 0 -85 172 -222 386 -306 43 -18 82 -37 86 -43 8 -13 40 -19 53 -9 6 4
16 19 23 35 10 24 9 30 -8 47 -11 11 -26 20 -34 20 -38 0 -41 9 -38 93 2 50 9
86 16 92 7 6 11 16 9 22 -9 25 80 122 137 151 30 15 58 32 63 37 4 7 10 6 15
-1 4 -6 17 -14 30 -18 12 -4 38 -23 59 -42 20 -19 46 -37 59 -40 12 -3 28 -19
35 -36 14 -34 21 -26 -81 -85 -139 -81 -270 -250 -275 -353 -3 -90 33 -139
131 -176 56 -21 76 -23 166 -19 87 3 168 16 284 42 11 3 27 -1 35 -9 8 -7 30
-15 49 -16 19 -2 49 -10 65 -17 30 -13 43 -16 160 -36 95 -16 116 -19 185 -29
36 -5 108 -15 160 -23 52 -8 104 -12 115 -10 11 2 43 3 70 1 28 -1 101 -2 162
-2 l113 2 66 43 c80 53 113 103 115 177 1 28 -3 57 -9 64 -5 7 -13 29 -17 48
-3 20 -18 49 -33 66 -39 44 -154 103 -231 119 -36 7 -96 25 -134 39 -37 14
-82 26 -100 27 -17 0 -55 3 -83 6 l-51 5 12 41 c17 62 10 120 -22 169 -15 24
-35 49 -43 56 -27 23 -89 52 -110 52 -11 0 -29 5 -39 12 -16 10 -38 6 -123
-22 -57 -18 -108 -37 -114 -41 -6 -5 -19 -10 -30 -12 -10 -2 -39 -13 -64 -24
-42 -19 -107 -42 -205 -73 -33 -11 -40 -10 -43 1 -3 8 -22 30 -43 51 -28 26
-35 39 -26 45 12 10 94 37 112 38 32 2 188 146 238 221 44 66 46 74 53 158 3
39 8 78 11 86 8 20 16 227 16 410 0 152 -5 256 -22 405 -6 50 -10 126 -10 170
2 108 -20 171 -81 235 -26 27 -55 50 -64 50 -9 0 -16 4 -16 8 0 4 -20 18 -44
29 -24 12 -59 35 -77 51 -19 15 -49 34 -67 41 -33 14 -51 49 -36 73 10 16 14
270 4 283 -5 6 -16 39 -25 74 -37 144 -75 191 -227 284 -14 9 -37 19 -50 21
-12 3 -61 15 -107 26 -47 11 -92 20 -100 19 -9 -2 -36 1 -61 6 -53 10 -516 13
-610 4z m585 -102 c22 -8 54 -17 70 -20 144 -23 201 -41 271 -83 61 -37 104
-72 102 -83 -1 -3 4 -23 11 -43 7 -21 11 -52 9 -70 -3 -34 -36 -98 -50 -98 -4
0 -8 -7 -8 -15 0 -8 -3 -15 -8 -15 -4 0 -18 -10 -32 -23 -39 -36 -181 -72
-405 -103 -96 -13 -435 -6 -520 11 -193 39 -266 60 -351 101 -79 38 -96 51
-128 96 -42 62 -44 85 -12 137 33 51 90 95 180 136 136 63 168 68 581 81 116
3 212 8 215 11 5 5 14 2 75 -20z m518 -510 c-2 -25 -12 -70 -23 -100 -17 -44
-32 -63 -83 -103 -34 -27 -65 -48 -69 -46 -5 1 -8 -2 -8 -6 0 -12 -87 -49
-148 -62 -29 -7 -94 -13 -145 -15 -51 -1 -174 -6 -274 -10 -134 -6 -204 -4
-260 5 -43 7 -85 14 -94 15 -8 0 -28 6 -45 12 -16 6 -47 16 -69 22 -183 50
-261 82 -317 129 -40 34 -54 67 -61 141 l-7 64 23 -20 c73 -67 326 -158 464
-168 35 -2 66 -6 70 -8 5 -3 25 -8 46 -12 29 -6 42 -3 56 9 16 15 38 16 165
12 81 -3 151 -8 154 -10 6 -4 150 16 209 28 11 2 43 8 70 12 155 22 245 61
300 131 15 18 32 32 37 30 6 -2 10 -25 9 -50z m-1488 -302 c33 -16 63 -28 68
-27 4 1 7 -2 7 -7 0 -5 10 -12 23 -15 12 -4 47 -14 77 -22 30 -9 75 -20 100
-24 25 -5 68 -14 95 -20 77 -18 209 -17 745 5 52 3 97 5 100 6 3 1 9 1 13 0
14 -2 131 57 153 77 11 11 30 23 42 26 12 4 22 12 22 17 0 5 7 9 16 9 8 0 13
4 10 8 -3 5 5 15 18 22 20 10 28 9 52 -8 77 -53 157 -102 168 -102 10 0 86
-66 86 -75 0 -2 -6 -10 -13 -17 -7 -7 -26 -34 -40 -59 -25 -42 -149 -169 -165
-169 -4 0 -29 -12 -57 -26 -55 -28 -179 -60 -295 -75 -110 -15 -387 -21 -408
-10 -33 18 -46 -3 -51 -86 -2 -43 -4 -107 -3 -143 4 -188 4 -494 0 -556 -4
-66 -3 -73 19 -89 18 -14 39 -18 91 -16 37 1 69 7 70 12 2 5 36 9 75 9 54 0
68 -3 57 -11 -16 -12 -18 -12 36 5 17 5 20 2 20 -16 -1 -20 3 -22 39 -19 22 1
48 8 59 13 10 6 34 8 52 5 19 -3 36 -2 38 2 3 4 22 8 43 9 39 1 113 31 113 45
0 5 5 5 10 2 6 -4 23 1 38 11 15 10 38 20 52 22 14 1 47 16 73 32 27 17 54 30
61 30 7 0 25 13 41 30 16 16 33 30 39 30 5 0 29 10 53 21 24 12 47 18 50 15 4
-4 2 -28 -5 -54 -6 -26 -14 -87 -18 -137 -3 -49 -13 -103 -22 -120 -22 -44
-55 -89 -72 -99 -8 -5 -29 -24 -47 -43 -17 -18 -34 -33 -38 -33 -3 0 -15 -9
-27 -20 -20 -19 -44 -28 -133 -51 -22 -6 -51 -17 -65 -24 -15 -7 -31 -9 -40
-4 -8 4 -33 16 -55 25 -22 10 -53 28 -70 40 -76 57 -278 81 -413 49 -104 -25
-210 -90 -212 -131 0 -12 -50 -62 -50 -50 0 5 -6 3 -14 -3 -17 -14 -48 -15
-121 -3 -33 6 -80 13 -105 16 -25 3 -61 8 -80 11 -19 3 -53 8 -75 11 -84 10
-98 13 -148 25 -55 13 -90 27 -262 105 -40 18 -101 59 -163 110 -35 29 -72 91
-72 122 0 10 -5 23 -10 28 -18 18 -29 168 -36 497 -12 535 -10 592 19 657 29
65 41 79 129 148 36 29 68 56 70 61 2 5 28 24 58 43 l55 36 35 -27 c19 -15 62
-40 95 -56z m1869 -312 c4 -54 9 -140 11 -191 2 -51 7 -96 9 -101 3 -5 7 -88
8 -185 1 -152 -1 -178 -15 -194 -9 -10 -17 -22 -17 -26 0 -19 -201 -176 -225
-176 -4 0 -30 -11 -58 -24 -50 -23 -126 -44 -252 -72 -34 -8 -153 -16 -271
-19 l-212 -5 -5 27 c-3 16 -3 84 -1 153 7 163 7 150 -6 265 -6 55 -11 105 -11
110 1 62 5 95 12 95 4 0 6 10 3 23 -7 44 14 56 96 56 41 1 92 1 112 1 20 1 66
7 103 15 37 7 73 11 80 9 7 -3 48 2 91 11 44 9 95 17 114 19 58 5 112 24 170
61 71 46 170 141 211 205 17 27 35 47 39 45 4 -2 10 -48 14 -102z m-561 -1030
c-7 -2 -19 -2 -25 0 -7 3 -2 5 12 5 14 0 19 -2 13 -5z m-100 -10 c-7 -2 -21
-2 -30 0 -10 3 -4 5 12 5 17 0 24 -2 18 -5z m582 -553 c-13 -21 7 -58 34 -63
76 -16 125 -71 167 -190 12 -33 12 -43 -1 -74 -19 -44 -19 -48 0 -66 13 -13 4
-19 -70 -51 -46 -20 -88 -36 -94 -36 -6 0 -25 -6 -43 -14 -96 -40 -194 -57
-321 -56 -76 1 -96 5 -140 28 -38 20 -53 35 -59 57 -10 37 -1 92 20 125 9 14
23 37 32 53 19 34 137 137 187 163 21 10 40 22 43 25 15 17 194 95 248 108 2
1 1 -3 -3 -9z m519 -145 c-4 -8 -11 -15 -16 -15 -6 0 -5 6 2 15 7 8 14 15 16
15 2 0 1 -7 -2 -15z m-33 -48 c-10 -9 -11 -8 -5 6 3 10 9 15 12 12 3 -3 0 -11
-7 -18z m183 -41 c-48 -57 -136 -211 -148 -261 -3 -13 -8 -42 -11 -66 -7 -53
-11 -59 -39 -59 -69 0 -418 88 -355 90 14 0 37 11 152 72 83 45 156 99 221
166 36 37 66 73 66 80 0 8 21 12 71 12 l71 0 -28 -34z"/>
<path d="M1308 1353 c7 -3 16 -2 19 1 4 3 -2 6 -13 5 -11 0 -14 -3 -6 -6z"/>
<path d="M1387 1339 c7 -7 15 -10 18 -7 3 3 -2 9 -12 12 -14 6 -15 5 -6 -5z"/>
<path d="M1430 1330 c19 -13 30 -13 30 0 0 6 -10 10 -22 10 -19 0 -20 -2 -8
-10z"/>
<path d="M1470 1330 c0 -5 5 -10 11 -10 5 0 7 5 4 10 -3 6 -8 10 -11 10 -2 0
-4 -4 -4 -10z"/>
<path d="M1508 1323 c7 -3 16 -2 19 1 4 3 -2 6 -13 5 -11 0 -14 -3 -6 -6z"/>
<path d="M1407 993 c-1 -1 -63 -3 -137 -4 -136 -3 -276 -25 -341 -53 -19 -8
-49 -20 -68 -27 -41 -15 -126 -72 -162 -108 -14 -14 -40 -53 -58 -85 -31 -55
-32 -64 -26 -121 6 -55 11 -66 51 -107 53 -55 118 -88 239 -121 162 -45 254
-60 335 -54 144 12 269 26 317 38 83 20 201 91 252 152 14 16 30 35 37 41 12
13 29 73 26 93 -2 6 2 14 8 18 21 13 11 96 -20 159 -38 78 -76 119 -142 153
-49 24 -63 26 -181 27 -71 1 -129 0 -130 -1z m-110 -94 c2 -13 11 -30 20 -36
32 -24 60 -139 59 -238 -1 -81 -5 -99 -34 -157 -31 -63 -34 -66 -75 -72 -67
-9 -206 10 -322 44 -33 10 -73 21 -89 25 -37 8 -106 55 -141 97 -23 27 -26 39
-22 76 3 25 9 47 13 51 5 3 22 25 37 48 68 100 260 175 472 186 75 3 78 2 82
-24z"/>
</g>
</svg>
