<?xml version="1.0" standalone="no"?>
<!DOCTYPE svg PUBLIC "-//W3C//DTD SVG 20010904//EN"
 "http://www.w3.org/TR/2001/REC-SVG-20010904/DTD/svg10.dtd">
<svg version="1.0" xmlns="http://www.w3.org/2000/svg"
 width="543.000000pt" height="413.000000pt" viewBox="0 0 543.000000 413.000000"
 preserveAspectRatio="xMidYMid meet">
<metadata>
Created by potrace 1.16, written by Peter Selinger 2001-2019
</metadata>
<g transform="translate(0.000000,413.000000) scale(0.100000,-0.100000)"
fill="#000000" stroke="none">
<path d="M5020 3981 c0 -8 -21 -19 -50 -26 -3 -1 -18 -5 -35 -9 -16 -4 -43
-14 -60 -21 -16 -7 -52 -21 -80 -30 -27 -9 -63 -23 -80 -30 -60 -28 -134 -53
-140 -47 -10 10 -39 11 -50 2 -6 -5 -256 -12 -555 -15 -300 -3 -660 -8 -800
-10 -488 -8 -1145 -17 -1160 -16 -36 2 -168 0 -195 -4 -38 -5 -212 -5 -462 0
l-193 4 -24 -32 c-18 -24 -24 -46 -26 -92 -3 -110 -2 -203 3 -212 3 -4 -81 -7
-186 -6 -650 7 -705 6 -723 -11 -9 -9 -13 -24 -10 -33 4 -9 0 -23 -7 -32 -8
-9 -17 -43 -21 -76 -4 -33 -9 -78 -12 -100 -2 -22 -6 -78 -9 -125 -2 -47 -6
-125 -10 -175 -10 -126 5 -199 71 -327 13 -27 24 -57 24 -67 0 -11 4 -22 9
-26 5 -3 13 -19 16 -37 4 -17 32 -92 61 -166 30 -75 54 -139 54 -144 0 -4 13
-36 29 -70 16 -35 33 -75 36 -91 4 -15 16 -44 26 -64 10 -21 19 -50 19 -65 0
-15 12 -53 26 -85 14 -32 37 -101 50 -153 14 -51 28 -99 33 -105 4 -5 14 -32
21 -60 7 -27 16 -54 20 -60 4 -5 15 -41 25 -79 9 -38 25 -87 35 -110 21 -46
59 -160 64 -192 1 -11 7 -27 12 -35 4 -8 9 -20 10 -27 2 -7 9 -34 18 -60 8
-26 22 -72 31 -102 9 -30 22 -62 29 -70 7 -8 28 -51 46 -95 19 -44 44 -96 56
-115 37 -60 100 -107 150 -114 16 -2 43 -9 59 -16 23 -9 325 -12 1247 -13
1102 -2 1219 -4 1233 -18 13 -13 25 -14 58 -7 73 15 90 19 98 24 4 2 52 13
106 25 54 11 107 22 117 24 40 9 92 28 106 40 8 6 22 15 30 19 39 17 72 46
119 103 28 34 51 67 51 73 0 5 4 10 8 10 17 0 68 189 76 285 4 39 10 93 15
120 5 28 14 88 21 135 6 47 18 105 25 130 7 25 19 79 25 120 7 41 15 79 17 84
3 4 7 31 9 60 2 28 6 76 8 106 3 30 8 96 11 145 3 50 10 122 15 160 5 39 12
102 15 140 3 39 7 84 9 100 4 33 14 130 21 215 5 59 15 149 21 190 8 54 17
273 18 435 l1 170 23 -2 c12 -2 22 2 22 7 0 6 7 10 15 10 8 0 15 5 15 10 0 6
11 10 24 10 13 0 29 7 36 15 7 8 19 15 26 15 8 0 14 5 14 10 0 6 10 10 23 10
12 0 44 11 71 25 27 13 53 22 58 19 5 -3 14 -1 21 4 21 17 128 51 143 45 8 -3
15 1 16 8 0 8 2 19 2 24 1 6 5 16 9 22 5 7 -1 57 -12 110 -27 137 -32 167 -41
262 -4 46 -11 86 -16 90 -5 3 -9 17 -9 31 1 14 -4 28 -10 32 -15 11 -55 10
-55 -1z m-6 -137 c10 -4 16 -18 16 -38 0 -57 33 -261 43 -268 7 -4 5 -15 -6
-31 -12 -19 -39 -33 -104 -52 -49 -15 -95 -30 -103 -33 -8 -3 -17 -6 -20 -7
-17 -6 -48 -18 -65 -26 -11 -5 -31 -11 -45 -13 -14 -2 -38 -9 -54 -15 -16 -7
-31 -10 -33 -7 -2 2 -7 83 -10 179 l-5 175 25 17 c14 9 32 18 39 19 7 1 24 9
39 19 14 9 40 20 57 23 18 4 35 11 38 15 3 5 9 7 14 4 5 -3 20 -1 34 5 19 7
26 6 26 -3 0 -9 2 -9 8 0 4 7 26 19 47 27 22 8 41 15 42 15 1 1 8 -2 17 -5z
m-502 -141 c26 -5 26 -6 26 -87 -1 -44 2 -99 5 -121 5 -31 16 -284 20 -455 2
-83 -15 -410 -22 -438 -6 -21 -8 -50 -6 -67 3 -30 -15 -211 -36 -355 -6 -41
-12 -95 -13 -120 -2 -25 -6 -67 -9 -95 -3 -27 -9 -104 -13 -170 -3 -66 -8
-123 -10 -126 -1 -3 -6 -32 -9 -65 -4 -32 -9 -75 -12 -94 -3 -19 -5 -52 -4
-73 1 -21 -5 -44 -13 -52 -15 -15 -43 -122 -51 -195 -2 -25 -18 -101 -35 -170
-17 -69 -33 -154 -36 -190 -3 -36 -10 -81 -16 -100 -14 -46 -61 -113 -92 -134
-14 -9 -26 -23 -26 -31 0 -8 -8 -15 -17 -15 -9 0 -27 -9 -39 -21 -12 -12 -34
-22 -48 -23 -14 0 -26 -4 -26 -7 0 -8 -51 -23 -64 -20 -5 1 -16 -1 -25 -5 -9
-4 -27 -8 -41 -10 -82 -10 -104 -15 -114 -23 -6 -5 -29 -11 -51 -14 -48 -6
-75 -16 -75 -28 0 -5 -7 -9 -16 -9 -10 0 -14 6 -11 14 5 13 -38 15 -301 13
-169 -1 -536 2 -817 7 -280 4 -516 8 -522 7 -59 -2 -218 -1 -428 4 -137 3
-260 6 -272 5 -12 0 -33 4 -47 10 -17 6 -26 5 -29 -3 -10 -30 -169 40 -184 81
-4 9 -12 22 -19 27 -6 6 -24 41 -39 79 -15 39 -38 87 -51 108 -13 21 -24 44
-24 52 0 8 -5 18 -10 21 -6 4 -8 10 -5 16 6 8 -10 65 -57 204 -11 33 -26 80
-34 105 -7 25 -22 72 -33 105 -41 126 -135 426 -136 435 0 3 -3 10 -6 15 -4 6
-12 28 -18 50 -7 22 -16 49 -20 60 -5 11 -26 72 -46 135 -21 63 -58 157 -81
207 -24 51 -47 105 -50 120 -4 16 -10 30 -13 33 -13 11 -31 62 -31 90 0 15 -3
30 -7 32 -5 2 -16 28 -27 58 -18 52 -33 90 -78 187 -20 44 -22 96 -14 283 3
80 19 237 32 323 4 24 2 37 -5 37 -15 0 -14 27 2 33 7 3 189 6 403 7 499 2
1279 8 1279 9 0 1 764 12 795 12 81 -2 335 1 610 6 335 5 431 6 436 0 2 -1 -2
-20 -8 -42 -10 -38 -24 -130 -48 -300 -7 -44 -14 -87 -18 -95 -12 -32 -34
-127 -39 -172 -3 -27 -9 -48 -14 -48 -5 0 -9 -6 -9 -12 0 -7 -6 -25 -14 -39
-7 -14 -16 -38 -20 -54 -9 -34 -45 -116 -86 -195 -15 -30 -34 -75 -41 -100 -7
-25 -16 -49 -20 -55 -4 -5 -21 -46 -39 -90 -18 -44 -39 -85 -46 -91 -8 -6 -14
-21 -14 -33 0 -22 -19 -30 -21 -8 -5 74 -22 107 -51 99 -46 -12 -51 -26 -43
-125 4 -51 9 -100 10 -109 2 -10 -1 -18 -6 -18 -5 0 -5 -10 0 -22 5 -13 9 -41
9 -63 2 -90 29 -372 37 -385 3 -5 7 -40 10 -80 3 -39 17 -110 31 -158 13 -47
26 -107 27 -132 1 -25 6 -48 12 -52 5 -4 10 -20 11 -35 1 -15 10 -46 20 -68
10 -22 20 -48 23 -57 12 -36 125 -150 175 -175 41 -22 66 -27 129 -28 53 -2
83 2 92 11 7 7 15 10 18 7 3 -3 18 4 33 16 15 11 33 21 40 21 8 0 14 3 14 8 0
4 15 24 34 44 19 21 37 47 41 58 3 11 13 20 21 20 8 0 14 9 14 19 0 11 4 22 9
25 4 3 14 27 21 53 7 27 19 55 25 63 13 16 21 45 35 130 20 118 67 324 81 352
4 9 11 43 14 74 4 32 10 65 15 74 4 8 11 42 16 75 4 33 8 62 9 65 1 3 5 25 9
50 5 25 14 70 22 100 8 30 17 98 20 150 6 105 19 248 33 355 16 129 23 200 27
270 2 39 7 115 12 170 4 55 7 165 5 245 -1 80 2 160 7 179 7 25 6 37 -4 47 -8
7 -16 10 -20 7 -3 -4 -6 -2 -6 3 0 6 5 15 12 22 18 18 -4 34 -35 27 -14 -4
-28 -16 -32 -28 -3 -12 -8 -137 -11 -277 -3 -140 -9 -286 -14 -325 -6 -38 -12
-104 -14 -145 -6 -101 -15 -194 -26 -260 -5 -30 -12 -104 -16 -165 -9 -131 -8
-120 -18 -173 -4 -23 -9 -52 -11 -65 -2 -12 -7 -35 -11 -52 -4 -16 -8 -39 -9
-50 -1 -11 -4 -27 -7 -35 -7 -19 -30 -140 -30 -160 1 -31 -21 -128 -44 -205
-24 -79 -56 -216 -56 -245 -1 -49 -41 -180 -68 -220 -10 -14 -22 -41 -29 -61
-6 -19 -19 -46 -29 -59 -22 -29 -85 -95 -92 -96 -3 0 -23 -6 -45 -12 -87 -26
-158 -3 -205 65 -14 20 -37 49 -52 64 -16 15 -28 35 -28 43 0 9 -4 24 -10 34
-10 19 -85 317 -93 372 -11 74 -27 176 -32 199 -2 13 -7 88 -11 165 -6 135 -6
142 15 160 11 11 21 24 21 31 0 6 20 50 45 98 25 48 42 87 38 87 -4 0 -3 4 4
8 14 9 57 106 82 186 20 62 46 120 64 144 6 7 25 55 42 105 18 51 39 112 48
137 14 42 35 115 42 150 2 8 8 28 14 43 15 38 44 202 56 312 3 28 9 64 14 80
35 118 48 239 28 252 -12 7 -423 5 -577 -3 -47 -3 -221 -6 -387 -7 -166 -1
-304 -5 -308 -9 -4 -4 -14 -4 -22 -1 -8 3 -19 0 -24 -8 -6 -11 -9 -11 -9 -1 0
10 -33 12 -153 9 -85 -2 -159 -7 -166 -12 -8 -4 -16 -2 -21 5 -10 15 -21 15
-31 -2 -5 -7 -9 -8 -9 -3 0 11 -280 11 -716 1 -223 -5 -242 -4 -246 12 -10 37
-3 201 9 213 9 9 134 13 475 15 660 4 1501 14 1504 17 5 5 1290 5 1316 0z
m-2482 -287 c0 -3 -4 -8 -10 -11 -5 -3 -10 -1 -10 4 0 6 5 11 10 11 6 0 10 -2
10 -4z"/>
</g>
</svg>
