<?xml version="1.0" standalone="no"?>
<!DOCTYPE svg PUBLIC "-//W3C//DTD SVG 20010904//EN"
 "http://www.w3.org/TR/2001/REC-SVG-20010904/DTD/svg10.dtd">
<svg version="1.0" xmlns="http://www.w3.org/2000/svg"
 width="535.000000pt" height="425.000000pt" viewBox="0 0 535.000000 425.000000"
 preserveAspectRatio="xMidYMid meet">
<metadata>
Created by potrace 1.16, written by Peter Selinger 2001-2019
</metadata>
<g transform="translate(0.000000,425.000000) scale(0.100000,-0.100000)"
fill="#000000" stroke="none">
<path d="M2280 4104 c-8 -3 -40 -12 -70 -22 -30 -9 -59 -20 -64 -24 -6 -4 -24
-8 -40 -8 -32 0 -174 -30 -263 -56 -29 -9 -58 -17 -65 -18 -7 -1 -39 -12 -71
-24 -32 -12 -64 -22 -72 -22 -8 0 -38 -11 -67 -24 -69 -31 -158 -66 -288 -111
-58 -21 -132 -50 -166 -65 -33 -15 -94 -36 -135 -45 -102 -23 -98 -22 -109
-50 -7 -20 -6 -32 6 -50 11 -16 17 -58 20 -142 8 -186 23 -290 50 -345 8 -15
14 -51 15 -80 0 -29 1 -69 1 -88 1 -19 0 -62 0 -95 -1 -33 -1 -78 -1 -100 0
-50 -7 -130 -16 -172 -5 -21 -15 -35 -29 -38 -36 -11 -90 -37 -109 -53 -26
-23 -97 -34 -247 -38 l-135 -4 -60 -42 c-33 -23 -66 -50 -73 -59 -7 -10 -19
-24 -27 -32 -8 -8 -17 -26 -21 -41 -3 -14 -10 -26 -15 -26 -20 0 26 -88 67
-127 44 -41 98 -67 165 -77 19 -4 44 -14 55 -24 11 -10 25 -17 32 -14 6 2 12
-3 12 -12 0 -9 7 -16 16 -16 24 0 7 -17 -23 -23 -57 -10 -71 -16 -128 -52
-176 -113 -212 -193 -130 -287 13 -16 28 -28 33 -28 5 0 15 -6 21 -14 6 -7 43
-16 87 -20 43 -3 82 -10 88 -15 28 -23 139 -38 336 -46 41 -1 89 -5 105 -8 17
-3 60 -8 98 -12 l67 -7 -38 -46 c-82 -99 -102 -137 -102 -190 0 -28 3 -52 8
-54 4 -2 20 -20 35 -41 16 -21 37 -37 48 -37 11 0 30 -6 42 -14 14 -10 42 -14
82 -11 33 1 60 4 60 5 0 1 20 4 45 6 95 8 117 12 195 37 44 13 98 29 120 35
41 10 91 27 135 45 14 6 57 12 95 14 66 3 73 1 103 -27 36 -33 38 -44 17 -98
-9 -22 -16 -54 -16 -73 0 -19 0 -54 1 -78 0 -47 24 -95 43 -88 7 2 25 0 40 -4
32 -9 117 25 117 47 0 19 50 62 79 69 28 6 86 -16 74 -28 -3 -4 1 -7 10 -7 19
0 65 -46 77 -77 8 -20 16 -22 80 -21 52 1 74 -3 81 -13 15 -25 10 -70 -15
-118 -60 -115 -75 -159 -80 -232 -3 -41 -8 -95 -12 -121 -9 -64 0 -90 37 -112
26 -15 43 -18 98 -12 105 9 93 4 174 81 53 51 97 102 97 113 0 5 9 17 20 27
11 10 20 26 20 35 0 9 5 21 11 27 5 5 16 37 24 71 8 33 36 102 63 153 57 109
74 118 179 99 64 -12 85 -27 90 -62 2 -11 17 -49 33 -85 17 -35 30 -69 30 -74
0 -5 5 -9 10 -9 6 0 10 -9 10 -19 0 -11 4 -22 10 -26 5 -3 7 -12 4 -19 -3 -8
1 -27 9 -43 8 -15 20 -52 26 -82 14 -68 38 -101 103 -142 29 -18 55 -36 58
-39 16 -19 79 -60 92 -60 20 0 60 21 79 40 38 39 59 93 61 153 6 166 -34 321
-118 457 -11 19 -22 40 -24 45 -2 6 -9 15 -15 20 -7 6 -15 20 -18 33 -7 29 19
43 90 47 46 3 63 -1 104 -26 29 -17 64 -29 84 -29 18 0 35 -5 37 -11 2 -7 21
-6 60 6 32 9 70 18 85 21 15 3 29 7 32 9 2 2 12 0 22 -5 11 -7 19 -6 21 1 2 7
18 7 51 -1 27 -6 52 -8 57 -5 9 6 107 -22 125 -36 6 -4 28 -10 50 -14 22 -3
56 -9 75 -13 21 -5 63 -2 107 6 68 14 72 16 79 46 3 17 13 39 22 48 19 22 28
103 14 132 -6 11 -13 32 -16 46 -8 33 -21 47 -88 97 -34 26 -72 45 -97 49 -35
6 -41 10 -41 31 0 41 24 44 300 29 43 -2 74 2 187 25 43 8 57 17 81 49 25 34
28 46 26 101 -4 75 -21 103 -76 121 -35 12 -44 21 -53 49 -5 19 -22 44 -37 57
-29 25 -58 75 -58 102 0 22 -34 38 -95 44 -27 3 -53 5 -56 5 -4 1 -22 14 -40
31 -36 31 -40 32 -160 34 -57 1 -82 5 -95 18 -11 9 -41 25 -69 35 l-50 19 1
49 c0 28 4 79 8 115 4 36 9 91 11 122 2 31 7 78 12 105 13 88 4 558 -13 609
-25 78 -47 116 -73 126 -13 5 -34 19 -45 31 -14 14 -36 23 -61 25 -28 2 -47
10 -62 28 -12 13 -25 24 -28 24 -3 0 -6 0 -7 1 -10 3 -57 10 -73 12 -19 2 -32
10 -75 49 -10 9 -27 19 -39 23 -12 3 -21 11 -21 16 0 5 -7 9 -16 9 -24 0 -134
50 -231 104 -33 20 -96 47 -140 62 -100 34 -180 71 -207 95 -37 35 -100 65
-186 89 -49 14 -107 39 -138 59 -90 60 -135 86 -182 105 -25 10 -56 28 -70 40
-33 29 -104 76 -116 76 -8 0 -84 47 -109 68 -5 4 -18 11 -27 15 -10 3 -18 10
-18 15 0 5 -16 8 -35 7 -19 -2 -38 1 -41 6 -6 10 -11 10 -34 3z m74 -128 c11
-6 26 -17 34 -23 7 -7 18 -13 23 -13 16 0 153 -82 162 -97 4 -7 13 -13 18 -13
6 0 23 -8 37 -19 15 -10 50 -26 77 -35 28 -9 82 -39 120 -66 51 -37 97 -59
179 -85 62 -20 126 -48 146 -64 44 -35 139 -85 180 -96 49 -12 130 -46 185
-78 79 -45 103 -58 160 -82 97 -42 143 -67 178 -98 22 -19 63 -41 97 -51 33
-10 60 -22 60 -27 0 -4 16 -11 35 -15 42 -8 55 -23 26 -31 -12 -3 -21 -9 -21
-14 0 -5 -7 -9 -16 -9 -15 0 -191 -56 -244 -78 -14 -6 -52 -20 -85 -32 -33
-12 -69 -26 -80 -31 -51 -22 -150 -50 -222 -62 -43 -8 -92 -21 -109 -30 -50
-26 -163 -53 -229 -56 -33 -2 -65 -7 -70 -11 -17 -14 -161 -24 -169 -12 -4 7
-25 0 -59 -17 -28 -16 -64 -31 -79 -35 -16 -3 -28 -12 -28 -19 0 -17 -37 -19
-43 -3 -3 7 -28 16 -55 20 -27 3 -55 13 -62 21 -7 8 -16 13 -20 10 -12 -8 -70
16 -116 47 -23 15 -58 30 -78 33 -21 2 -53 17 -74 35 -20 16 -42 30 -48 30 -6
0 -17 6 -23 14 -7 8 -26 18 -42 21 -16 4 -29 11 -29 16 0 5 -7 9 -16 9 -9 0
-28 12 -42 28 -27 27 -147 92 -172 92 -23 0 -104 52 -150 96 -25 24 -59 54
-76 66 -57 42 -124 105 -124 117 0 10 -14 15 -33 12 -4 -1 -10 6 -13 14 -4 8
-11 15 -18 15 -6 0 -27 13 -46 28 -20 16 -60 34 -92 42 -32 7 -58 17 -58 22 0
4 -9 8 -20 8 -11 0 -23 7 -26 15 -4 8 -12 15 -20 15 -8 0 -14 5 -14 10 0 6 -7
10 -15 10 -8 0 -18 12 -21 28 -4 15 -13 34 -21 43 -12 15 -7 20 54 50 94 45
185 78 263 94 19 4 88 32 152 61 64 30 122 54 129 54 6 0 60 14 118 31 58 17
129 33 156 36 28 3 55 9 61 14 6 5 39 13 75 18 35 5 80 16 99 24 41 18 126 19
154 3z m-1326 -456 c7 0 12 -8 12 -17 0 -20 58 -83 76 -83 7 0 19 -9 27 -20
12 -17 107 -66 107 -55 0 19 152 -77 172 -109 4 -6 8 -8 8 -3 0 4 17 -10 38
-30 21 -21 49 -45 61 -53 26 -17 45 -32 119 -97 70 -62 77 -66 152 -92 36 -13
72 -30 81 -37 8 -8 21 -14 27 -14 7 0 12 -4 12 -8 0 -4 15 -16 33 -27 17 -10
41 -27 51 -37 11 -10 35 -23 55 -29 43 -14 79 -36 107 -65 21 -22 49 -34 88
-38 13 -2 44 -17 69 -34 25 -18 50 -32 55 -32 5 0 22 -6 37 -14 15 -8 34 -12
41 -9 8 3 17 -2 20 -11 3 -9 14 -16 24 -16 11 0 20 -10 23 -27 6 -34 -13 -143
-28 -163 -7 -8 -16 -25 -19 -37 -4 -13 -11 -23 -16 -23 -13 0 -23 -116 -12
-137 20 -37 120 -132 146 -139 14 -3 26 -9 26 -13 0 -4 14 -8 30 -9 17 -1 30
2 30 8 0 5 3 9 8 8 16 -4 52 14 52 28 0 8 4 14 9 14 12 0 31 88 31 141 0 49
-28 207 -41 231 -5 10 -9 25 -9 33 0 9 -7 18 -15 21 -8 4 -15 14 -15 24 0 20
44 60 65 60 7 0 15 7 19 15 5 15 57 21 69 8 11 -10 120 -3 134 9 7 5 16 7 22
4 5 -4 16 0 24 8 7 8 36 17 63 21 27 4 105 24 174 45 69 22 168 49 220 61 52
11 131 36 175 54 137 56 188 74 260 90 39 9 93 26 120 39 77 35 145 51 154 38
4 -7 8 -46 10 -89 1 -42 4 -81 8 -85 3 -5 7 -66 9 -136 2 -70 6 -137 9 -149 3
-12 0 -44 -6 -70 -14 -66 -18 -93 -24 -208 -4 -55 -10 -129 -15 -165 -5 -36
-10 -94 -10 -130 0 -36 -4 -82 -9 -103 -6 -22 -5 -39 1 -43 12 -8 -10 -34 -29
-34 -8 0 -27 -7 -44 -16 -28 -14 -31 -14 -47 6 -26 33 -75 29 -125 -9 -39 -30
-63 -43 -112 -61 -11 -4 -47 -21 -80 -38 -33 -17 -78 -34 -100 -37 -22 -4 -44
-11 -50 -15 -41 -32 -155 -80 -187 -80 -21 0 -38 -4 -38 -9 0 -5 -15 -12 -34
-15 -19 -4 -39 -13 -46 -21 -6 -7 -26 -17 -43 -21 -17 -3 -38 -10 -47 -15 -8
-5 -46 -15 -85 -23 -65 -13 -73 -13 -114 5 -24 10 -58 19 -76 19 -19 0 -35 4
-37 9 -5 16 -114 -27 -148 -58 -18 -16 -46 -31 -64 -34 -17 -2 -39 -7 -48 -12
-13 -5 -18 -3 -18 8 0 20 -24 28 -65 21 -22 -3 -35 -1 -35 6 0 17 -32 48 -61
59 -15 5 -52 14 -84 20 -47 9 -65 18 -91 47 -18 19 -36 44 -39 55 -8 23 2 21
-113 25 -65 2 -99 7 -110 17 -10 8 -50 26 -91 40 -40 14 -74 27 -75 29 -1 2
-13 18 -26 37 -13 18 -37 39 -54 47 -17 7 -53 33 -79 58 -77 73 -104 82 -196
66 -79 -14 -189 -16 -202 -3 -4 5 -10 41 -13 82 -7 88 -14 117 -35 156 -20 38
-80 95 -100 95 -5 0 -11 7 -15 15 -4 10 -19 15 -49 15 -24 0 -46 3 -49 6 -3 3
1 31 10 62 8 31 16 93 17 137 2 44 6 121 10 170 5 50 8 131 7 180 -1 50 -2 98
-2 108 0 9 0 23 0 30 2 35 -9 165 -15 187 -9 34 -26 118 -31 160 -2 19 -9 56
-15 83 -6 26 -8 54 -5 62 3 8 2 35 -3 60 -8 43 -7 45 8 30 10 -8 23 -15 29
-15z m1628 -1142 c24 -96 32 -198 14 -198 -5 0 -9 -3 -9 -7 4 -27 -2 -31 -27
-18 -40 20 -83 77 -84 108 0 15 11 44 24 65 20 31 35 90 39 150 1 32 21 -13
43 -100z m-1736 -8 c0 -17 -7 -44 -15 -60 -14 -27 -13 -32 12 -73 30 -50 71
-76 125 -79 27 -1 40 -8 49 -25 7 -13 18 -23 25 -23 22 0 53 -64 56 -115 1
-28 6 -55 11 -62 4 -6 4 -14 -2 -17 -14 -9 7 -67 35 -94 21 -20 38 -23 134
-29 77 -4 110 -3 110 5 0 6 20 14 45 18 44 6 47 5 91 -38 25 -25 66 -55 91
-68 30 -15 48 -32 55 -52 10 -29 70 -68 105 -68 10 0 27 -6 38 -14 11 -7 22
-13 25 -13 3 0 23 -9 45 -20 50 -26 98 -37 150 -35 35 2 43 -3 70 -36 44 -57
70 -73 128 -78 29 -3 59 -8 67 -11 8 -4 20 -5 27 -4 6 1 15 -9 19 -21 9 -31
50 -68 75 -68 11 0 34 -7 51 -16 21 -11 43 -14 72 -10 22 4 53 8 68 10 28 3
98 45 98 59 0 5 9 5 20 2 11 -3 20 -2 20 3 0 10 55 33 62 26 3 -2 18 -5 34 -8
16 -2 43 -9 59 -16 37 -15 90 -15 145 0 23 6 44 9 47 6 3 -3 21 1 40 9 19 8
39 13 43 10 4 -3 10 2 13 10 8 20 58 43 140 65 40 10 106 34 147 53 41 19 96
42 122 51 26 10 64 29 85 43 21 14 65 36 98 48 33 13 77 37 98 55 27 22 41 29
46 21 11 -18 64 -29 112 -24 24 2 50 5 57 5 6 1 12 5 12 10 0 4 15 8 34 8 53
0 79 39 71 106 -3 28 -3 58 1 67 7 18 54 24 54 6 0 -5 4 -8 9 -4 6 3 13 -1 18
-9 10 -18 91 -38 112 -28 37 17 106 5 157 -27 40 -25 62 -32 103 -33 46 0 52
-2 57 -25 4 -14 14 -34 23 -44 39 -43 46 -55 47 -80 0 -27 42 -88 59 -87 52 3
75 -19 68 -64 -2 -18 -10 -39 -17 -46 -16 -16 -140 -31 -213 -25 -32 3 -105 5
-163 6 -96 1 -108 -1 -142 -23 -41 -28 -60 -75 -56 -141 2 -46 32 -74 83 -77
16 -1 48 -15 70 -30 22 -16 48 -32 58 -35 10 -4 17 -17 17 -31 0 -14 4 -27 9
-30 31 -20 6 -114 -31 -117 -25 -2 -32 -4 -43 -10 -11 -6 -14 -5 -62 6 -18 4
-33 10 -33 14 0 3 -14 7 -32 8 -17 1 -34 6 -37 10 -3 5 -19 8 -36 9 -16 0 -57
9 -90 19 -64 19 -104 21 -175 11 -25 -3 -61 -8 -80 -11 -19 -2 -52 -7 -72 -11
-26 -4 -44 -1 -60 10 -12 9 -30 16 -40 16 -10 0 -34 9 -54 20 -24 12 -49 18
-73 15 -20 -3 -56 -7 -81 -11 -25 -3 -53 -6 -62 -7 -9 -1 -15 -4 -12 -8 4 -7
-35 -61 -47 -67 -7 -3 -2 -34 9 -62 3 -8 6 -19 7 -25 3 -27 20 -62 39 -82 27
-27 95 -164 99 -200 2 -16 8 -39 14 -53 6 -14 13 -71 17 -127 6 -99 6 -102
-20 -130 -17 -19 -27 -24 -31 -15 -2 6 -8 12 -13 12 -11 0 -125 77 -139 94 -7
8 -14 31 -17 53 -3 21 -9 47 -14 58 -5 11 -11 40 -15 65 -3 27 -23 74 -50 120
-25 41 -45 85 -45 98 0 31 -38 98 -65 116 -12 8 -40 18 -61 22 -21 3 -43 10
-49 13 -32 22 -215 -6 -215 -33 0 -6 -23 -55 -50 -110 -27 -54 -59 -128 -70
-164 -11 -36 -25 -71 -31 -79 -6 -7 -9 -13 -5 -13 8 0 -48 -88 -77 -123 -14
-15 -31 -27 -40 -27 -8 0 -18 -7 -21 -15 -7 -20 -66 -45 -104 -45 l-29 0 14
61 c8 34 12 68 9 76 -6 15 8 95 23 128 5 11 15 36 22 55 7 19 18 42 25 51 9 9
15 49 16 106 3 89 2 93 -26 122 -23 24 -34 28 -61 24 -38 -6 -119 21 -138 46
-7 9 -25 23 -40 31 -16 8 -40 25 -54 38 -28 25 -96 33 -116 13 -6 -6 -19 -11
-29 -11 -10 0 -18 -3 -18 -8 0 -4 -15 -15 -33 -25 -18 -10 -41 -31 -51 -48 -9
-16 -22 -29 -27 -29 -13 0 -3 118 11 135 5 6 11 34 13 61 3 41 -1 55 -24 84
-45 58 -109 84 -209 85 -83 0 -180 -18 -180 -35 0 -9 -40 -21 -80 -25 -14 -1
-68 -17 -120 -35 -52 -18 -102 -34 -110 -35 -8 -2 -15 -4 -15 -4 0 -1 -43 -3
-95 -5 -100 -4 -136 5 -145 36 -4 10 -11 18 -16 18 -5 0 -9 7 -9 15 0 8 5 15
10 15 6 0 10 8 10 18 0 20 68 97 77 88 3 -3 15 5 28 17 12 12 38 36 58 54 43
39 40 63 -12 94 -51 30 -108 45 -164 43 -26 -1 -51 3 -55 10 -4 6 -27 11 -52
12 -25 0 -67 2 -95 2 -27 1 -59 1 -70 1 -42 -3 -211 14 -235 24 -14 6 -31 11
-39 13 -8 2 -26 6 -40 10 -14 4 -35 6 -46 5 -25 -2 -89 39 -93 59 -4 25 59 84
120 113 20 10 40 21 42 26 3 5 27 12 52 16 26 3 57 11 69 17 44 20 65 101 29
115 -8 3 -11 10 -8 15 15 24 -111 111 -172 121 -36 5 -134 58 -145 78 -14 27
-4 52 35 91 28 28 46 36 104 46 46 7 80 8 95 3 15 -6 52 -6 93 0 100 13 114
16 164 43 63 34 80 33 80 -4z"/>
<path d="M1538 2760 c-22 -21 -23 -53 -3 -70 8 -7 15 -28 15 -47 0 -42 -33
-191 -66 -298 -13 -44 -23 -91 -22 -105 5 -39 65 -105 103 -112 33 -7 52 7 60
45 4 17 10 37 13 42 4 6 8 19 9 29 2 11 8 25 13 31 5 7 8 14 5 16 -6 7 -52
254 -59 317 -1 17 -6 35 -9 39 -4 3 -2 12 4 19 17 20 7 58 -16 62 -43 7 -48
11 -35 27 18 22 8 26 -12 5z m52 -315 c0 -17 7 -54 15 -81 8 -27 15 -59 15
-70 0 -29 -38 -114 -51 -114 -6 0 -24 14 -40 31 -25 27 -28 37 -23 68 4 20 14
51 21 70 8 19 17 52 19 75 3 23 7 49 10 59 9 29 34 1 34 -38z"/>
<path d="M3766 2688 c-10 -19 -14 -44 -11 -62 3 -17 -1 -56 -10 -86 -21 -73
-24 -94 -26 -166 -2 -85 26 -135 81 -148 56 -13 112 131 74 190 -11 16 -17 42
-15 71 1 31 -4 52 -15 64 -9 10 -18 33 -19 51 -3 47 -24 118 -35 118 -5 0 -16
-14 -24 -32z m64 -268 c17 -80 2 -140 -35 -140 -30 0 -46 102 -26 166 5 16 12
43 16 59 l7 30 13 -30 c7 -16 19 -55 25 -85z"/>
<path d="M3445 2407 c-4 -16 -13 -23 -28 -23 -17 1 -22 -4 -20 -24 3 -56 -20
-217 -37 -255 -23 -51 -35 -132 -26 -180 5 -22 22 -51 46 -76 32 -33 43 -39
67 -34 50 11 74 28 80 57 3 15 11 32 18 38 14 12 8 108 -8 128 -6 7 -9 33 -9
57 1 24 -2 47 -8 50 -5 3 -10 21 -10 40 0 18 -6 40 -13 47 -7 7 -13 38 -14 68
-1 47 -5 91 -11 123 -4 16 -22 6 -27 -16z m5 -172 c0 -8 7 -35 16 -61 8 -25
18 -67 20 -93 3 -25 5 -52 6 -58 1 -7 6 -13 11 -13 5 0 6 -10 2 -22 -4 -13 -8
-32 -9 -43 -6 -47 -19 -76 -32 -71 -8 3 -14 1 -14 -4 0 -17 -17 -11 -49 16
-27 22 -31 33 -31 73 0 26 11 79 24 118 22 66 35 123 36 166 0 21 20 13 20 -8z"/>
<path d="M1927 2263 c-3 -5 -5 -45 -5 -90 -1 -50 -9 -116 -23 -169 -17 -68
-21 -103 -16 -167 5 -72 9 -84 31 -104 25 -21 68 -25 94 -9 8 5 28 119 24 138
-1 3 -3 28 -6 55 -2 26 -9 62 -14 80 -6 17 -8 34 -5 36 2 3 5 54 5 113 1 94
-1 109 -15 112 -13 3 -17 -4 -16 -30 0 -18 0 -85 0 -148 -1 -63 4 -137 10
-163 7 -29 8 -67 3 -95 -4 -26 -7 -50 -6 -54 1 -5 -11 -8 -27 -8 -35 0 -39 10
-45 99 -3 49 1 77 20 127 31 83 37 223 11 252 -9 10 -14 22 -10 25 3 4 4 7 0
7 -3 0 -8 -3 -10 -7z"/>
</g>
</svg>
