<?xml version="1.0" standalone="no"?>
<!DOCTYPE svg PUBLIC "-//W3C//DTD SVG 20010904//EN"
 "http://www.w3.org/TR/2001/REC-SVG-20010904/DTD/svg10.dtd">
<svg version="1.0" xmlns="http://www.w3.org/2000/svg"
 width="423.000000pt" height="477.000000pt" viewBox="0 0 423.000000 477.000000"
 preserveAspectRatio="xMidYMid meet">
<metadata>
Created by potrace 1.16, written by Peter Selinger 2001-2019
</metadata>
<g transform="translate(0.000000,477.000000) scale(0.100000,-0.100000)"
fill="#000000" stroke="none">
<path d="M2170 4505 c-41 -6 -88 -18 -105 -27 -16 -8 -46 -16 -65 -17 -53 -3
-61 -5 -110 -28 -25 -12 -60 -23 -77 -25 -18 -1 -33 -6 -33 -10 0 -4 -6 -8
-14 -8 -8 0 -28 -11 -44 -25 -17 -14 -32 -25 -35 -25 -16 0 -149 -86 -187
-121 -24 -22 -58 -48 -75 -56 -33 -17 -69 -52 -78 -77 -3 -8 -22 -26 -41 -38
-20 -13 -36 -27 -36 -31 0 -8 -44 -52 -65 -65 -6 -4 -17 -17 -25 -28 -8 -12
-42 -59 -75 -105 -68 -95 -145 -226 -145 -246 0 -8 -29 -76 -64 -151 -36 -75
-70 -157 -77 -181 -7 -23 -18 -45 -25 -48 -13 -5 -39 -73 -48 -123 -2 -14 -10
-56 -16 -95 -7 -38 -23 -115 -35 -170 -13 -55 -26 -149 -30 -210 -5 -85 -10
-113 -23 -123 -19 -14 -20 -89 -2 -122 6 -12 13 -119 16 -253 3 -127 7 -250 9
-272 5 -68 6 -442 1 -610 -4 -156 -10 -224 -23 -275 -9 -34 -8 -157 1 -200 13
-56 51 -122 98 -170 51 -51 74 -70 85 -70 4 0 25 -16 46 -35 21 -19 45 -35 53
-35 8 0 47 -15 87 -34 68 -33 137 -53 164 -48 7 2 23 -3 35 -9 13 -7 30 -14
38 -15 8 -1 44 -4 80 -8 36 -4 90 -15 120 -25 30 -10 57 -15 60 -11 3 4 39 1
80 -6 41 -7 95 -16 120 -19 25 -3 63 -8 85 -12 85 -14 605 1 680 21 33 8 105
15 160 15 145 1 185 5 230 25 22 10 87 24 145 32 58 8 114 19 125 24 11 5 35
12 53 15 18 3 41 9 50 14 9 5 39 14 67 20 27 7 57 19 66 27 8 8 21 14 28 14 6
0 29 9 50 20 21 10 42 16 46 12 3 -4 12 0 18 8 7 8 33 26 58 39 26 13 55 35
64 48 10 13 24 23 31 23 8 0 14 4 14 9 0 6 13 18 29 27 17 10 28 21 25 25 -2
4 4 12 13 18 10 5 15 13 11 16 -4 4 -3 17 2 30 21 57 27 224 15 480 -5 99 -7
232 -6 295 3 200 3 263 3 320 -3 229 -4 291 -7 333 -2 26 0 60 4 75 4 15 4 41
0 57 -5 17 -11 53 -15 80 -3 28 -7 59 -8 70 -4 31 -37 77 -52 71 -6 -2 -15 -2
-19 2 -4 4 -10 7 -13 8 -52 8 -94 18 -98 25 -3 5 -16 6 -30 3 -15 -4 -24 -2
-24 6 0 7 -7 10 -15 7 -16 -7 -21 16 -29 128 -8 110 -16 177 -27 215 -6 19
-12 82 -14 140 -3 58 -9 125 -15 150 -5 25 -12 88 -14 140 -2 52 -11 122 -19
155 -8 33 -18 93 -22 134 -6 55 -16 90 -41 139 -19 36 -34 70 -34 76 0 15 -67
154 -82 171 -22 24 -32 38 -83 110 -54 76 -70 95 -81 95 -9 0 -104 101 -104
111 0 5 -12 15 -27 23 -16 8 -41 26 -57 41 -16 14 -51 32 -78 40 -27 8 -54 17
-61 22 -6 4 -16 8 -22 9 -56 11 -152 37 -160 44 -17 13 -274 17 -355 5z m170
-105 c30 5 92 -3 205 -25 17 -3 31 -10 33 -15 2 -4 12 -6 22 -3 14 4 20 0 20
-11 0 -16 52 -76 177 -203 35 -35 70 -78 79 -96 9 -17 29 -47 43 -66 14 -19
25 -36 23 -38 -1 -2 5 -18 14 -36 10 -17 23 -61 31 -97 8 -36 22 -83 33 -105
10 -22 21 -72 24 -112 3 -39 11 -84 17 -100 6 -15 13 -55 15 -88 7 -94 16
-148 27 -175 3 -8 8 -44 12 -80 3 -36 8 -78 10 -95 2 -16 7 -109 11 -205 3
-96 7 -193 8 -215 1 -22 -4 -51 -10 -65 -6 -14 -9 -31 -7 -37 4 -10 -24 -13
-119 -12 -68 0 -130 0 -138 -1 -8 -1 -87 -1 -175 -1 -88 1 -333 1 -545 1 -212
0 -399 4 -417 9 -17 5 -55 6 -84 3 -48 -5 -94 -6 -314 -4 -33 0 -103 -1 -155
-1 l-94 -2 -12 40 c-6 23 -8 55 -3 75 4 19 9 58 12 85 3 28 10 75 17 105 10
46 33 157 54 260 2 14 10 43 16 65 6 22 17 65 24 95 33 135 50 182 106 298 33
67 60 127 60 133 0 6 9 23 19 38 11 15 21 34 23 41 2 8 15 26 31 42 15 15 27
34 27 43 0 8 5 15 10 15 6 0 10 8 10 18 1 20 67 99 152 178 59 55 214 174 227
174 6 0 11 6 11 14 0 8 12 17 28 21 15 3 41 17 59 31 17 13 34 24 38 24 3 0
36 14 73 32 45 22 85 33 126 36 34 2 65 8 70 13 5 4 16 5 25 0 9 -4 32 -5 51
-1z m660 -300 c7 0 22 -32 23 -50 0 -3 7 -11 14 -18 7 -8 27 -33 44 -58 16
-24 34 -44 39 -44 6 0 10 -7 10 -15 0 -8 8 -34 19 -58 10 -23 25 -58 32 -77 7
-19 16 -37 19 -40 13 -10 49 -119 49 -147 -1 -39 12 -116 22 -128 9 -12 17
-76 24 -180 2 -38 7 -86 10 -105 3 -19 7 -78 9 -132 2 -53 7 -101 10 -107 4
-6 9 -32 12 -58 2 -27 9 -88 14 -138 6 -49 9 -119 8 -155 l-3 -65 -45 0 c-45
0 -45 0 -46 35 -1 19 -4 80 -8 135 -3 55 -8 145 -11 200 -3 55 -10 130 -15
167 -6 37 -10 87 -10 111 0 24 -6 66 -14 93 -8 27 -17 81 -21 119 -3 39 -10
87 -16 107 -5 20 -14 72 -19 116 -10 74 -68 285 -90 324 -6 10 -10 24 -10 31
0 20 -28 73 -45 87 -8 7 -15 18 -15 25 0 7 -7 18 -15 25 -8 7 -15 17 -15 22 0
5 7 2 16 -6 8 -9 19 -16 24 -16z m-1521 -47 c-8 -10 -29 -34 -46 -53 -18 -19
-33 -38 -33 -42 0 -9 -89 -156 -108 -179 -8 -8 -25 -42 -40 -75 -14 -32 -32
-63 -39 -67 -8 -5 -11 -12 -8 -18 4 -5 -9 -39 -26 -76 -46 -94 -163 -548 -174
-671 -2 -23 -8 -57 -14 -75 -16 -52 -34 -206 -28 -242 6 -38 2 -40 -83 -44
-30 -1 -68 -3 -84 -5 l-29 -4 6 102 c4 55 16 139 27 186 11 47 25 121 31 165
15 112 36 171 85 240 12 17 22 33 22 38 0 35 20 92 52 151 21 39 47 96 58 126
29 79 109 215 177 300 20 24 162 175 219 232 31 31 57 39 35 11z m281 -1639
c19 -3 58 -4 85 -3 28 1 70 2 95 1 25 -1 363 -2 753 -3 389 -1 707 -4 707 -6
0 -2 -16 -27 -35 -56 -20 -30 -37 -63 -40 -76 -6 -33 -48 -113 -62 -118 -6 -3
-10 -13 -8 -24 2 -10 0 -19 -4 -19 -5 0 -8 -8 -7 -17 0 -10 -23 -67 -52 -126
-28 -60 -52 -111 -52 -114 0 -3 -14 -29 -31 -57 -38 -63 -65 -75 -180 -82 -45
-2 -85 -7 -90 -10 -5 -2 -61 -7 -126 -10 -65 -2 -185 -11 -268 -19 -82 -9
-163 -16 -180 -16 -158 0 -363 -11 -436 -23 -68 -11 -119 -12 -222 -6 -72 5
-177 12 -232 15 -132 8 -144 10 -155 21 -6 6 -29 46 -52 91 -51 97 -155 270
-178 298 -10 11 -26 35 -36 54 -10 19 -56 91 -102 160 l-82 126 82 7 c46 4
235 9 421 12 186 2 341 7 345 10 5 6 39 3 142 -10z m1841 -4 c31 -9 37 -16 44
-48 4 -20 9 -219 10 -442 2 -223 6 -486 10 -585 13 -407 10 -585 -8 -585 -5 0
-6 -4 -2 -9 3 -5 -3 -12 -13 -15 -10 -4 -28 -20 -40 -36 -13 -17 -31 -30 -41
-30 -11 0 -21 -4 -23 -9 -4 -10 -140 -81 -156 -81 -12 0 -84 -31 -92 -41 -12
-13 -72 -31 -90 -26 -11 3 -20 1 -20 -3 0 -11 -70 -31 -82 -24 -4 3 -8 1 -8
-4 0 -8 -57 -15 -110 -14 -14 1 -34 -3 -45 -7 -41 -18 -102 -30 -125 -26 -13
2 -29 0 -36 -6 -8 -6 -35 -13 -61 -15 -130 -11 -244 -24 -299 -33 -53 -9 -322
-22 -494 -22 -55 -1 -204 13 -270 25 -19 4 -55 8 -80 10 -56 4 -100 16 -100
25 0 9 -4 10 -94 16 -38 2 -92 11 -120 19 -28 8 -69 17 -91 20 -22 3 -41 10
-43 16 -2 5 -8 8 -13 4 -5 -3 -44 11 -87 32 -241 117 -319 237 -267 411 8 28
18 79 21 114 7 83 7 636 -1 714 -10 108 -13 405 -4 405 13 0 49 -38 49 -51 0
-5 27 -51 60 -101 33 -49 60 -96 60 -103 0 -6 11 -24 24 -38 14 -15 27 -36 31
-47 3 -11 10 -20 14 -20 4 0 18 -24 32 -52 13 -29 27 -54 31 -56 3 -2 12 -26
19 -54 10 -36 20 -53 36 -59 13 -5 23 -13 23 -18 0 -18 43 -24 181 -26 75 -1
141 -5 147 -9 16 -9 314 -16 331 -7 22 11 91 21 89 13 -1 -8 7 -31 37 -97 23
-50 95 -135 115 -135 5 0 10 -4 10 -10 0 -11 60 -39 105 -48 80 -17 183 -4
230 30 54 39 145 126 145 140 0 7 9 28 20 45 11 18 19 48 18 68 -1 19 2 38 6
43 4 4 53 8 108 9 55 1 105 7 112 12 6 5 22 9 36 9 48 0 195 10 210 15 8 2 23
7 32 11 10 5 23 6 30 3 23 -8 65 24 81 62 8 20 23 54 33 76 9 22 18 42 19 45
1 3 7 19 14 35 7 17 14 37 16 47 2 9 15 33 28 55 14 21 30 56 37 78 7 22 17
49 23 60 44 83 67 132 67 145 1 27 26 64 35 50 25 -40 24 -527 -1 -690 -4 -25
-8 -65 -9 -90 -1 -25 -10 -76 -20 -115 -9 -38 -18 -88 -19 -110 -4 -54 -16
-105 -31 -130 -7 -11 -15 -46 -18 -78 -3 -32 -10 -64 -15 -70 -5 -7 -12 -25
-16 -41 -4 -17 -16 -42 -27 -57 -10 -15 -19 -30 -19 -35 0 -4 -21 -26 -46 -50
-34 -32 -46 -51 -46 -74 -1 -36 5 -43 37 -47 17 -3 32 7 58 39 56 69 127 179
127 198 0 9 3 20 7 23 8 9 32 -23 33 -43 0 -31 49 -88 85 -100 29 -9 38 -9 50
4 23 22 18 42 -20 85 -19 21 -35 43 -35 49 0 5 -18 34 -40 63 -44 59 -47 74
-26 145 8 27 22 99 31 159 9 61 20 124 25 140 5 17 11 76 15 131 3 56 10 126
14 155 9 55 6 444 -4 534 -3 28 -6 53 -6 57 0 4 -4 22 -9 39 -15 50 -4 57 61
39z m-1146 -872 c12 -52 6 -71 -33 -106 -82 -74 -96 -81 -153 -83 -61 -1 -71
1 -117 20 -58 24 -132 110 -132 154 0 26 26 20 45 -10 25 -39 51 -63 70 -63 8
0 15 -4 15 -10 0 -21 67 -22 109 -1 22 12 41 19 41 15 0 -3 18 16 40 42 22 27
40 52 40 56 0 6 22 13 56 17 6 0 15 -14 19 -31z"/>
</g>
</svg>
