<?xml version="1.0" standalone="no"?>
<!DOCTYPE svg PUBLIC "-//W3C//DTD SVG 20010904//EN"
 "http://www.w3.org/TR/2001/REC-SVG-20010904/DTD/svg10.dtd">
<svg version="1.0" xmlns="http://www.w3.org/2000/svg"
 width="445.000000pt" height="447.000000pt" viewBox="0 0 445.000000 447.000000"
 preserveAspectRatio="xMidYMid meet">
<metadata>
Created by potrace 1.16, written by Peter Selinger 2001-2019
</metadata>
<g transform="translate(0.000000,447.000000) scale(0.100000,-0.100000)"
fill="#000000" stroke="none">
<path d="M1440 4368 c-19 -5 -39 -14 -45 -19 -5 -5 -8 -54 -7 -108 1 -54 -2
-111 -8 -127 -10 -26 -19 -63 -36 -149 -3 -16 -6 -39 -5 -50 3 -100 -1 -138
-17 -185 -20 -57 -19 -79 4 -93 16 -9 13 -70 -10 -179 -9 -43 -21 -122 -26
-175 -5 -54 -12 -109 -15 -123 -6 -26 -11 -88 -20 -253 -4 -54 -8 -107 -10
-119 -5 -21 -25 -49 -25 -34 0 5 -7 3 -15 -4 -8 -7 -15 -9 -15 -6 0 4 -12 1
-27 -8 -16 -8 -55 -19 -88 -26 -59 -11 -145 -39 -155 -49 -6 -7 -61 -29 -120
-48 -25 -7 -58 -19 -75 -24 -16 -6 -48 -14 -70 -18 -52 -9 -188 -53 -196 -63
-3 -5 -45 -20 -94 -34 -49 -14 -109 -37 -134 -50 -25 -13 -51 -24 -58 -24 -7
0 -33 -11 -59 -25 -25 -14 -50 -23 -54 -20 -11 7 -36 -26 -43 -55 -7 -29 7
-51 45 -67 16 -7 28 -17 28 -23 0 -5 7 -10 16 -10 9 0 25 -9 34 -20 10 -12 22
-19 27 -18 4 2 26 -4 48 -13 22 -10 69 -29 104 -43 35 -15 79 -29 97 -32 19
-3 72 -18 119 -34 47 -16 85 -27 85 -25 0 3 33 -7 73 -21 114 -39 129 -44 138
-38 5 3 9 1 9 -5 0 -6 33 -19 73 -31 39 -11 94 -27 121 -35 26 -8 54 -15 61
-15 7 0 35 -9 62 -21 l51 -21 -3 -201 c-2 -111 -6 -287 -10 -392 -8 -247 -7
-514 2 -562 9 -51 9 -120 0 -163 -4 -19 -10 -71 -13 -116 -4 -69 -2 -83 14
-102 27 -31 61 -24 91 18 13 19 26 37 30 40 3 3 12 17 20 32 8 15 22 37 33 47
10 11 18 24 18 28 0 17 87 113 166 183 21 19 52 54 67 78 33 51 91 108 132
129 33 17 115 99 115 114 0 5 3 9 8 9 4 0 24 15 44 33 20 17 50 42 66 54 39
30 78 67 83 79 6 15 122 101 146 108 12 4 26 21 32 37 10 29 145 169 163 169
4 0 23 14 42 31 l36 31 97 -33 c54 -17 122 -47 151 -65 29 -19 54 -34 57 -34
2 0 34 -21 71 -46 86 -59 131 -84 149 -84 8 0 24 -9 35 -20 11 -11 20 -18 20
-15 0 3 17 -2 38 -11 77 -34 194 -74 202 -69 5 3 10 2 12 -3 6 -15 175 -81
259 -102 88 -21 132 -40 186 -78 33 -23 76 -43 108 -49 11 -2 39 -12 62 -23
24 -11 54 -20 67 -20 39 0 65 36 56 75 -1 6 -3 17 -3 25 0 8 -8 23 -17 32 -9
10 -23 38 -29 61 -7 23 -21 61 -32 84 -21 47 -64 222 -73 299 -3 28 -22 98
-41 155 -20 57 -42 129 -51 159 -8 30 -19 59 -25 65 -5 5 -9 19 -9 32 0 13 -9
56 -21 96 -28 95 -48 174 -55 215 -3 18 -12 56 -20 85 -8 29 -15 58 -16 65 -1
6 -5 12 -10 12 -5 0 -7 4 -3 9 3 5 1 12 -4 16 -13 8 -26 96 -15 104 5 3 16 20
24 36 8 17 24 44 36 60 12 17 47 79 78 138 31 59 65 118 76 129 11 12 20 26
20 32 0 19 62 136 72 136 5 0 7 4 4 9 -3 5 1 14 9 21 8 7 15 18 15 24 0 7 27
66 59 132 32 65 67 137 76 159 10 22 28 62 41 89 32 67 31 83 -10 103 -32 15
-40 15 -106 -1 -39 -10 -83 -24 -98 -32 -15 -7 -34 -14 -43 -14 -9 0 -19 -3
-23 -7 -4 -4 -18 -9 -31 -10 -13 -2 -36 -10 -52 -18 -15 -8 -34 -15 -41 -15
-7 0 -20 -4 -30 -9 -31 -16 -124 -41 -133 -35 -5 3 -9 1 -9 -4 0 -5 -6 -9 -12
-10 -27 -2 -135 -31 -177 -46 -68 -25 -167 -46 -219 -46 -46 -1 -140 -17 -232
-40 -81 -20 -288 -61 -332 -65 -14 -2 -32 -7 -40 -11 -7 -5 -44 -14 -81 -20
-57 -9 -70 -8 -74 3 -3 8 -11 12 -18 9 -6 -2 -18 5 -26 16 -22 33 -73 92 -85
100 -7 5 -36 40 -64 78 -29 39 -67 86 -84 105 -112 124 -214 267 -208 293 2 6
-2 12 -8 12 -6 0 -14 8 -18 18 -11 30 -96 142 -107 142 -6 0 -16 13 -23 28 -7
16 -36 54 -66 85 -68 70 -86 96 -86 122 0 11 -20 50 -44 87 -25 37 -47 77 -51
88 -3 11 -11 20 -16 20 -5 0 -9 6 -9 14 0 21 -11 24 -50 14z m60 -260 c-7 -12
69 -123 119 -176 34 -35 61 -68 61 -74 0 -6 10 -21 23 -34 47 -48 63 -71 91
-124 16 -30 42 -70 57 -88 16 -18 29 -39 29 -46 0 -8 7 -16 14 -19 8 -3 22
-20 31 -37 16 -30 35 -56 65 -89 9 -9 33 -38 55 -66 22 -27 42 -52 46 -55 4
-3 27 -33 53 -67 25 -34 54 -67 66 -73 11 -6 20 -17 20 -24 0 -7 29 -43 66
-80 59 -60 69 -66 102 -64 20 1 51 8 69 15 18 7 45 13 61 13 16 0 55 9 88 20
32 11 72 23 89 26 123 20 152 26 165 31 18 7 11 6 140 33 58 12 130 23 160 26
77 6 114 13 195 36 119 35 209 58 226 58 9 0 38 8 65 19 27 10 92 31 144 47
52 16 97 32 100 35 3 4 19 9 35 12 17 3 38 8 48 12 9 4 17 4 17 1 0 -9 -41
-90 -49 -96 -3 -3 -6 -9 -6 -15 0 -5 -13 -37 -29 -70 -16 -33 -40 -85 -54
-115 -14 -30 -29 -57 -32 -60 -3 -3 -22 -41 -44 -85 -21 -44 -52 -99 -68 -122
-16 -23 -42 -71 -58 -105 -27 -59 -59 -117 -70 -128 -3 -3 -9 -12 -15 -21 -39
-63 -67 -99 -75 -99 -6 0 -10 -16 -10 -35 0 -36 15 -72 38 -90 7 -5 15 -23 18
-39 3 -16 11 -40 18 -55 7 -14 21 -62 31 -106 18 -85 51 -205 66 -243 5 -12
12 -48 16 -80 3 -31 14 -70 24 -87 15 -27 44 -104 54 -145 3 -8 15 -55 29
-103 14 -49 30 -126 37 -170 6 -45 15 -86 19 -92 4 -5 13 -32 20 -60 7 -27 21
-69 31 -92 l18 -41 -31 8 c-30 9 -119 57 -128 70 -3 4 -48 19 -100 34 -106 30
-138 41 -225 81 -33 15 -87 36 -120 45 -75 22 -132 47 -167 71 -14 11 -32 19
-40 19 -22 0 -130 55 -178 91 -25 18 -47 34 -50 34 -6 1 -63 38 -70 45 -9 10
-93 46 -165 70 -38 13 -74 29 -80 35 -28 32 -82 34 -103 4 -7 -10 -50 -47 -95
-81 -83 -63 -247 -221 -247 -239 0 -5 -6 -9 -13 -9 -7 0 -20 -8 -29 -17 -8
-10 -29 -28 -44 -40 -16 -12 -41 -32 -56 -45 -14 -13 -41 -34 -59 -48 -18 -14
-76 -69 -129 -122 -52 -53 -102 -98 -109 -100 -17 -3 -34 -20 -106 -105 -27
-32 -87 -96 -132 -143 -45 -47 -91 -96 -103 -110 l-20 -25 2 45 c1 25 -1 50
-4 55 -3 6 -7 69 -8 140 -1 72 -2 146 -2 165 -1 19 2 127 5 240 4 113 9 298
12 412 3 114 7 222 9 240 5 39 -29 98 -57 98 -10 0 -30 6 -45 14 -15 7 -72 23
-127 36 -55 12 -134 35 -175 50 -41 15 -115 40 -165 56 -49 15 -94 30 -100 33
-5 3 -21 7 -34 9 -36 5 -288 90 -349 118 -28 13 -52 28 -52 33 0 4 21 14 48
21 26 8 57 20 70 28 12 8 59 25 104 38 44 13 89 31 98 39 9 8 26 15 38 15 12
0 30 4 40 10 9 5 46 16 82 24 77 18 149 41 207 67 24 10 48 19 53 19 6 0 25 7
42 16 17 9 74 27 127 40 53 13 112 32 131 41 19 10 44 18 54 19 35 3 53 45 47
109 -1 10 3 31 8 46 5 15 7 30 3 33 -7 8 -4 93 9 226 6 58 12 130 14 160 1 30
14 125 28 210 45 274 51 331 37 340 -8 5 -11 20 -7 41 3 19 7 61 8 94 1 33 5
65 9 70 4 6 11 36 15 68 3 32 9 56 12 54 2 -3 4 -7 3 -9z"/>
</g>
</svg>
