<?xml version="1.0" standalone="no"?>
<!DOCTYPE svg PUBLIC "-//W3C//DTD SVG 20010904//EN"
 "http://www.w3.org/TR/2001/REC-SVG-20010904/DTD/svg10.dtd">
<svg version="1.0" xmlns="http://www.w3.org/2000/svg"
 width="431.000000pt" height="387.000000pt" viewBox="0 0 431.000000 387.000000"
 preserveAspectRatio="xMidYMid meet">
<metadata>
Created by potrace 1.16, written by Peter Selinger 2001-2019
</metadata>
<g transform="translate(0.000000,387.000000) scale(0.100000,-0.100000)"
fill="#000000" stroke="none">
<path d="M335 3660 c3 -5 8 -10 11 -10 2 0 4 5 4 10 0 6 -5 10 -11 10 -5 0 -7
-4 -4 -10z"/>
<path d="M2156 3542 c-2 -1 -105 -3 -229 -3 -184 -1 -227 -3 -231 -15 -3 -8
-17 -14 -31 -14 -14 0 -25 -4 -25 -8 0 -5 -23 -10 -52 -11 -53 -2 -93 -24 -84
-47 2 -6 -1 -17 -7 -23 -8 -8 -5 -11 11 -11 12 0 22 -5 22 -11 0 -7 10 -9 25
-5 29 7 30 4 9 -30 -10 -15 -33 -28 -60 -35 -47 -12 -55 -30 -33 -71 16 -29 3
-65 -26 -72 -14 -4 -25 -11 -25 -16 0 -6 -8 -10 -18 -10 -11 0 -24 -12 -31
-26 -9 -22 -8 -29 9 -51 18 -23 18 -27 5 -54 -9 -16 -34 -38 -56 -49 -46 -24
-56 -43 -40 -74 9 -16 9 -29 1 -50 -6 -16 -13 -26 -17 -22 -4 3 -17 -3 -29
-15 -19 -18 -21 -25 -12 -50 14 -40 -34 -129 -77 -144 -50 -17 -63 -53 -33
-92 19 -24 -30 -86 -82 -105 -33 -11 -41 -47 -16 -70 23 -21 -16 -86 -64 -107
-42 -17 -55 -43 -38 -74 8 -15 4 -31 -18 -73 -24 -46 -43 -63 -79 -68 -5 0
-16 -14 -25 -29 -14 -26 -14 -29 4 -42 18 -14 18 -15 -1 -52 -11 -21 -29 -39
-39 -41 -10 -2 -26 -6 -34 -9 -8 -3 -18 -5 -22 -5 -14 3 -8 -33 8 -56 22 -32
5 -71 -46 -102 -45 -28 -58 -53 -39 -76 10 -12 7 -22 -17 -57 -17 -23 -39 -43
-51 -45 -23 -3 -38 -41 -28 -73 11 -35 -15 -75 -59 -90 -46 -16 -61 -51 -31
-73 15 -11 15 -15 -1 -49 -10 -20 -22 -37 -28 -37 -6 0 -22 -9 -35 -19 -21
-16 -24 -27 -25 -85 -1 -57 2 -69 22 -86 12 -11 25 -20 27 -20 14 0 43 38 54
70 6 19 18 46 25 59 l14 24 26 -26 c32 -32 61 -35 76 -8 10 21 4 51 -11 51 -5
0 -9 7 -9 15 0 8 -6 15 -14 15 -8 0 -17 9 -21 20 -7 23 19 68 30 51 9 -15 65
-14 66 2 3 30 -4 63 -16 77 -23 27 21 102 55 93 11 -3 20 -10 20 -17 0 -6 9 0
19 13 20 26 19 64 -1 89 -14 16 8 88 28 96 8 3 14 1 14 -5 0 -6 15 -9 33 -7
30 3 32 6 30 37 -1 19 -7 44 -13 56 -10 18 -9 28 4 53 14 27 21 31 53 29 34
-2 38 1 46 31 8 26 7 36 -8 52 -18 20 -17 22 6 68 24 47 31 50 77 36 18 -5 24
-2 29 15 3 11 9 21 14 21 14 0 -2 34 -25 52 l-21 17 30 58 c35 69 44 77 66 57
19 -17 41 -18 57 -2 18 18 15 46 -9 85 -21 33 -21 35 -4 73 17 37 19 38 39 25
31 -23 54 -18 71 15 22 43 19 60 -16 72 -17 6 -27 13 -21 17 5 3 19 25 31 49
17 33 25 41 35 33 7 -6 25 -10 40 -9 24 2 26 6 26 45 0 24 -4 43 -9 43 -21 0
-18 32 5 75 26 46 41 54 61 34 19 -19 43 14 43 59 0 27 -5 42 -15 46 -14 5
-13 11 7 45 12 22 26 37 31 34 4 -3 20 -2 34 2 25 6 25 8 20 61 -6 56 14 114
39 114 20 0 44 36 44 67 0 16 5 44 11 62 9 25 16 31 40 31 24 0 30 5 40 41 11
34 10 42 -2 50 -10 6 -7 9 13 9 32 0 52 30 45 67 l-5 25 477 -5 c883 -10 1346
-18 1426 -24 44 -3 104 -5 133 -5 28 1 52 -3 52 -8 0 -5 -22 -50 -50 -102 -27
-51 -76 -147 -109 -213 -33 -66 -69 -136 -80 -155 -11 -19 -33 -62 -49 -95
-55 -112 -124 -240 -138 -256 -8 -8 -14 -19 -14 -22 0 -16 -96 -203 -117 -228
-6 -8 -49 -88 -96 -179 -133 -258 -182 -351 -226 -429 -23 -40 -41 -76 -41
-81 0 -4 -6 -13 -13 -19 -8 -6 -19 -28 -25 -49 -6 -21 -33 -74 -60 -118 -26
-43 -65 -110 -87 -149 -21 -38 -58 -106 -82 -150 -24 -44 -51 -95 -60 -113
l-17 -32 -615 5 c-339 3 -798 7 -1021 11 -270 3 -415 2 -433 -5 -22 -9 -27
-17 -27 -45 0 -18 6 -38 13 -44 8 -7 98 -11 242 -11 346 -1 1298 -13 1315 -16
8 -2 102 -4 208 -4 105 -1 192 -4 192 -9 0 -9 -105 -17 -180 -14 -153 7 -730
2 -793 -7 -125 -17 -912 2 -946 23 -6 4 -28 9 -49 12 -31 3 -42 0 -59 -19 -18
-21 -18 -26 -6 -43 8 -10 18 -19 23 -19 4 0 12 -3 16 -7 4 -5 -13 -8 -39 -8
-25 0 -48 4 -51 9 -10 15 -43 1 -57 -25 -16 -30 -6 -39 53 -49 35 -6 37 -9 31
-33 -3 -15 -9 -29 -13 -32 -4 -3 -12 -15 -19 -27 -14 -27 0 -62 27 -65 9 -1
231 -2 492 -3 575 -2 1651 -14 1659 -19 3 -2 45 -7 94 -10 92 -7 131 2 121 29
-4 8 -2 15 2 15 14 1 55 38 58 52 2 11 71 160 110 238 115 227 146 291 146
299 0 5 3 11 8 13 4 2 31 53 60 113 30 61 58 117 63 125 38 64 218 443 214
451 -4 5 -2 9 4 9 15 0 104 187 95 201 -4 8 -3 9 4 5 7 -4 12 -1 12 7 0 8 13
32 29 54 16 22 37 62 46 89 9 27 20 53 25 59 5 6 39 71 76 145 37 74 69 137
73 140 9 8 81 155 81 167 0 6 8 21 18 34 10 13 34 58 53 99 18 41 37 77 41 78
5 2 8 13 8 23 0 11 -4 17 -10 14 -14 -9 -12 10 9 90 18 69 18 70 -1 73 -32 6
-45 -5 -52 -42 -4 -20 -11 -36 -16 -36 -21 0 -3 47 32 87 11 12 18 31 16 45
-4 32 -41 36 -62 7 -8 -13 -18 -20 -21 -18 -7 8 66 149 77 149 5 0 8 32 6 73
l-3 72 -70 2 c-358 11 -594 15 -1108 16 -329 1 -600 1 -601 -1z m1683 -374
c-5 -18 -16 -36 -24 -41 -9 -4 -13 -13 -9 -18 6 -11 -14 -69 -25 -69 -7 0 -33
-55 -59 -126 -11 -28 -47 -88 -81 -133 -59 -77 -100 -150 -131 -231 -15 -38
-49 -93 -62 -98 -4 -2 -8 -9 -8 -16 0 -7 -10 -21 -22 -32 -19 -17 -19 -14 5
26 15 25 50 90 77 145 27 55 65 127 83 160 18 33 57 105 86 160 30 55 59 107
66 115 7 8 16 26 20 40 9 31 78 150 87 150 4 0 2 -14 -3 -32z m-22 -186 c-10
-10 -17 -28 -17 -40 0 -12 -4 -22 -9 -22 -13 0 -1 41 17 63 8 9 17 17 20 17 3
0 -2 -8 -11 -18z m-86 -195 c-16 -36 -39 -75 -51 -87 -11 -11 -19 -24 -16 -29
3 -4 -2 -21 -11 -37 -50 -91 -173 -347 -179 -371 -9 -33 -44 -94 -44 -75 0 7
6 25 14 40 19 38 31 112 17 112 -18 0 -12 27 13 57 23 27 48 73 111 205 15 31
33 62 41 69 8 6 14 16 14 21 0 5 18 32 41 60 22 28 47 64 55 81 29 54 25 20
-5 -46z m-355 -575 c-14 -28 -35 -85 -46 -129 -24 -86 -43 -133 -74 -178 -30
-43 -53 -83 -78 -137 -12 -27 -25 -48 -30 -48 -14 0 -9 19 27 86 19 36 35 79
35 94 0 16 4 31 9 35 5 3 15 22 22 42 6 21 27 61 45 90 19 28 34 63 34 77 0
28 71 147 77 129 2 -6 -7 -34 -21 -61z m-213 -302 c-3 -11 -9 -23 -14 -26 -5
-3 -9 -12 -9 -21 0 -9 -6 -24 -14 -32 -8 -9 -19 -40 -25 -70 -7 -33 -29 -81
-55 -120 -47 -73 -52 -83 -72 -158 -7 -29 -28 -78 -45 -108 -31 -55 -52 -72
-42 -35 3 11 9 20 14 20 5 0 9 7 9 15 0 9 8 32 19 53 10 20 35 85 54 143 20
59 58 146 85 195 27 49 57 106 67 127 18 39 37 51 28 17z m-386 -710 c-1 -11
-5 -20 -10 -20 -4 0 -6 -4 -3 -9 3 -4 -5 -22 -18 -40 -13 -17 -31 -52 -41 -76
-18 -49 -39 -62 -26 -17 7 24 91 182 97 182 2 0 2 -9 1 -20z m154 -37 c-12
-20 -14 -14 -5 12 4 9 9 14 11 11 3 -2 0 -13 -6 -23z m-81 6 c0 -19 -74 -158
-81 -153 -8 4 0 46 11 54 14 11 50 78 50 94 0 9 5 16 10 16 6 0 10 -5 10 -11z
m51 -62 c-10 -9 -11 -8 -5 6 3 10 9 15 12 12 3 -3 0 -11 -7 -18z m-137 -106
c5 -7 -21 -47 -64 -98 -5 -7 -10 -22 -10 -34 0 -11 -11 -34 -25 -51 -14 -16
-25 -36 -25 -44 0 -8 -10 -14 -21 -14 -18 0 -19 3 -9 15 6 8 9 22 6 33 -3 10
1 27 9 38 8 10 15 26 15 34 0 8 18 26 40 39 21 13 47 39 57 58 19 37 20 37 27
24z m35 -109 c-8 -9 -34 -57 -59 -107 -53 -107 -49 -100 -56 -93 -3 4 10 35
29 70 19 34 38 74 42 88 11 36 48 86 53 71 2 -7 -2 -20 -9 -29z m-284 8 c-3
-5 -22 -10 -41 -10 -19 0 -34 5 -34 10 0 6 18 10 41 10 24 0 38 -4 34 -10z
m-1830 -81 c67 -3 65 -3 -30 -8 -113 -7 -195 -3 -195 9 0 4 35 6 78 5 42 -2
109 -4 147 -6z m1838 4 c-7 -2 -19 -2 -25 0 -7 3 -2 5 12 5 14 0 19 -2 13 -5z
m-1460 -18 c-54 -12 -143 -14 -193 -5 -21 5 91 15 180 17 l75 2 -62 -14z m617
-45 c-14 -5 -67 -8 -118 -9 -51 -1 -103 -6 -114 -12 -29 -16 -197 -23 -304
-14 -77 7 -84 9 -54 16 19 5 101 11 181 14 80 4 176 9 213 13 87 9 232 2 196
-8z m584 9 c36 -2 -56 -18 -106 -18 -27 -1 -48 3 -48 8 0 11 62 20 104 15 16
-2 38 -5 50 -5z m104 -9 c6 0 12 -4 12 -8 0 -4 -16 -6 -35 -4 -19 2 -35 9 -35
14 0 6 10 8 23 4 12 -3 28 -6 35 -6z m189 -6 c-3 -3 -12 -4 -19 -1 -8 3 -5 6
6 6 11 1 17 -2 13 -5z m-511 -55 c5 -9 -149 -13 -306 -9 -125 3 -92 10 51 11
74 0 152 4 174 8 43 8 72 4 81 -10z m427 -16 c-7 -2 -19 -2 -25 0 -7 3 -2 5
12 5 14 0 19 -2 13 -5z"/>
<path d="M1760 3194 c-94 -40 -90 -222 6 -240 52 -10 96 1 142 33 54 37 76 82
70 143 -6 60 -23 80 -60 69 -46 -13 -59 -33 -52 -77 6 -37 5 -40 -26 -51 -18
-6 -37 -11 -42 -11 -15 0 3 44 23 58 25 18 25 68 0 82 -23 12 -18 12 -61 -6z"/>
<path d="M1580 2655 c-7 -8 -10 -24 -7 -35 6 -23 3 -24 -24 -10 -14 8 -29 6
-59 -10 -45 -23 -51 -32 -54 -82 -6 -96 106 -153 202 -104 64 33 82 59 88 127
6 58 4 66 -17 86 -13 11 -42 26 -64 32 -51 14 -50 14 -65 -4z m50 -114 c0 -10
-7 -22 -16 -25 -24 -9 -54 -7 -54 4 0 6 5 10 10 10 6 0 10 7 10 15 0 9 9 15
25 15 18 0 25 -5 25 -19z"/>
<path d="M1280 2053 c-48 -6 -92 -39 -82 -61 13 -27 9 -42 -18 -55 -32 -16
-39 -80 -12 -110 27 -31 89 -67 114 -67 30 0 129 51 136 70 3 8 14 22 24 30
18 14 18 17 3 60 -9 25 -18 53 -20 62 -5 23 -24 58 -33 59 -4 0 -14 2 -22 4
-41 10 -58 12 -90 8z m58 -139 c4 -28 -50 -53 -73 -34 -16 13 -20 42 -8 54 4
4 23 6 43 4 27 -2 36 -8 38 -24z"/>
<path d="M974 1414 c-16 -9 -36 -22 -45 -30 -8 -8 -21 -14 -28 -14 -21 0 -62
-32 -76 -61 -13 -25 -13 -32 4 -71 22 -52 33 -61 92 -77 41 -12 50 -11 85 8
21 12 44 21 51 21 16 0 70 67 78 97 8 32 -11 96 -34 117 -25 23 -92 28 -127
10z m60 -108 c-8 -22 -104 -58 -104 -39 1 42 13 53 61 53 37 0 47 -3 43 -14z"/>
</g>
</svg>
