<?xml version="1.0" standalone="no"?>
<!DOCTYPE svg PUBLIC "-//W3C//DTD SVG 20010904//EN"
 "http://www.w3.org/TR/2001/REC-SVG-20010904/DTD/svg10.dtd">
<svg version="1.0" xmlns="http://www.w3.org/2000/svg"
 width="409.000000pt" height="397.000000pt" viewBox="0 0 409.000000 397.000000"
 preserveAspectRatio="xMidYMid meet">
<metadata>
Created by potrace 1.16, written by Peter Selinger 2001-2019
</metadata>
<g transform="translate(0.000000,397.000000) scale(0.100000,-0.100000)"
fill="#000000" stroke="none">
<path d="M3499 3867 c-28 -34 -63 -97 -54 -97 2 0 -7 -20 -20 -44 -14 -25 -25
-54 -25 -65 0 -11 -10 -29 -21 -40 -13 -12 -23 -34 -24 -58 -2 -21 -10 -78
-20 -128 -12 -64 -14 -90 -6 -93 18 -6 45 -65 43 -94 -2 -17 3 -28 10 -28 10
0 10 -2 0 -8 -10 -7 -10 -19 -2 -58 17 -72 32 -118 40 -124 4 -3 10 -38 13
-78 3 -48 10 -78 20 -85 8 -7 21 -37 28 -67 7 -30 23 -73 35 -95 14 -24 23
-56 23 -80 -1 -22 1 -53 4 -70 8 -48 10 -109 4 -125 -3 -8 -8 -44 -12 -80 -8
-90 -25 -102 -21 -14 3 61 -1 119 -20 288 -3 27 -16 70 -30 95 -13 25 -24 60
-24 76 0 22 -10 40 -34 62 -25 24 -36 46 -46 93 -11 53 -21 72 -40 76 -26 5
-40 23 -51 64 -7 27 -16 47 -20 45 -3 -3 -9 10 -13 28 -4 17 -19 48 -35 67
-15 19 -35 49 -44 66 -9 18 -35 46 -57 64 -22 17 -43 43 -46 56 -3 13 -20 34
-36 45 -24 18 -34 20 -54 10 -38 -17 -33 -64 10 -90 36 -23 46 -44 46 -104 0
-21 7 -52 17 -70 14 -28 22 -54 38 -121 2 -10 8 -33 13 -50 5 -17 10 -44 11
-60 1 -17 4 -32 9 -35 4 -3 8 -33 10 -66 4 -81 12 -138 23 -151 6 -7 5 -38 0
-78 -6 -42 -6 -79 0 -102 8 -26 6 -53 -6 -105 -8 -39 -14 -73 -11 -77 15 -26
-89 -418 -126 -474 -10 -14 -16 -33 -12 -41 3 -8 -3 -30 -13 -48 -21 -38 -41
-99 -47 -144 -2 -16 -8 -41 -14 -55 -6 -14 -17 -74 -26 -135 -9 -60 -19 -128
-23 -150 -10 -57 -6 -304 5 -318 10 -14 22 -55 29 -107 3 -19 13 -51 23 -70 9
-19 20 -48 24 -65 9 -34 21 -45 52 -45 34 0 35 22 3 89 -16 34 -32 82 -36 108
-3 25 -14 62 -23 81 -11 21 -18 65 -20 111 -1 42 -3 99 -4 126 -1 28 4 79 12
115 7 36 17 90 22 120 4 30 16 79 25 108 9 30 15 68 14 85 -2 33 15 80 40 110
8 9 12 20 9 23 -3 3 3 27 13 55 11 27 19 57 19 66 0 9 7 24 15 33 8 9 20 43
26 76 5 32 17 79 24 104 8 25 17 59 20 75 5 32 29 168 40 225 4 19 6 76 6 125
-1 90 -1 98 1 158 1 17 -2 58 -6 90 -5 32 -9 79 -11 105 -2 50 -6 73 -31 162
-9 30 -21 78 -28 105 -8 28 -23 67 -36 88 -12 20 -18 37 -13 37 13 -1 53 -37
53 -49 0 -6 8 -19 18 -29 37 -40 52 -63 52 -80 0 -25 47 -122 60 -122 5 0 10
-7 10 -15 0 -7 6 -18 14 -22 20 -11 102 -173 110 -218 4 -19 10 -35 15 -35 29
0 57 -304 38 -425 -4 -27 -9 -67 -12 -89 -5 -45 -20 -95 -45 -151 -10 -22 -27
-60 -38 -85 -11 -25 -21 -49 -22 -55 -3 -17 -43 -85 -51 -85 -4 0 -15 -20 -25
-45 -9 -25 -21 -45 -25 -45 -5 0 -8 -3 -8 -7 3 -13 -25 -73 -33 -73 -4 0 -8
-6 -8 -14 0 -7 -7 -19 -15 -26 -8 -7 -13 -16 -10 -20 2 -4 -4 -22 -14 -41 -10
-19 -22 -49 -26 -68 -4 -18 -15 -52 -25 -75 -10 -22 -20 -75 -23 -116 -3 -41
-9 -86 -15 -100 -5 -14 -8 -36 -6 -50 11 -80 11 -110 1 -110 -8 0 -8 -3 0 -11
7 -7 10 -30 6 -60 -4 -33 -2 -49 6 -49 7 0 9 -13 5 -37 -4 -29 -3 -35 6 -26
15 14 20 152 6 176 -8 12 -7 23 2 37 6 11 12 31 12 45 0 13 7 44 15 69 8 24
16 57 17 72 1 16 5 34 10 40 4 6 6 20 3 31 -4 26 19 105 40 135 8 13 15 30 15
40 0 10 4 18 8 18 5 0 9 6 9 14 0 19 70 163 84 171 6 4 16 19 23 34 20 43 50
91 59 91 4 0 -6 -25 -23 -56 -16 -31 -30 -63 -30 -70 0 -8 -4 -14 -9 -14 -5 0
-17 -21 -27 -47 -10 -27 -22 -54 -27 -61 -5 -6 -6 -12 -1 -12 5 0 5 -4 -1 -8
-18 -13 -44 -68 -49 -103 -12 -79 -17 -96 -49 -171 -22 -50 -35 -145 -35 -243
0 -44 -5 -93 -11 -108 -6 -16 -11 -44 -11 -63 0 -19 -3 -33 -7 -33 -22 4 -31
-3 -35 -26 -3 -14 -1 -28 4 -31 4 -3 6 -10 3 -15 -4 -5 1 -9 9 -9 9 0 16 -5
16 -11 0 -6 -6 -9 -12 -6 -14 4 -41 -146 -38 -217 2 -78 41 -100 70 -39 11 23
20 31 33 27 13 -4 21 4 33 31 14 34 14 39 -2 56 -15 17 -17 41 -16 182 2 198
7 268 21 295 6 11 11 28 11 36 0 15 9 39 61 154 16 35 29 68 29 75 0 7 11 25
25 41 13 16 27 37 30 47 4 11 10 19 14 19 4 0 15 17 24 38 9 21 38 58 64 83
27 26 55 59 63 75 8 16 28 40 44 54 146 126 259 242 293 300 15 25 39 61 55
81 15 20 28 39 28 42 0 4 10 21 23 40 19 29 23 48 25 140 3 92 0 112 -16 140
-18 30 -28 59 -38 115 -5 28 -53 102 -65 102 -8 0 -27 16 -118 101 -15 15 -32
28 -37 30 -5 2 -26 25 -47 52 -21 26 -42 45 -47 42 -14 -9 -40 37 -40 72 0 18
-9 50 -21 72 -13 26 -19 55 -18 88 2 52 -18 196 -32 228 -13 32 -29 128 -25
150 9 52 20 122 21 140 2 31 17 89 25 95 14 10 61 142 56 156 -9 24 -40 15
-67 -19z m-69 -263 c-6 -14 -10 -48 -10 -75 0 -27 -4 -49 -9 -49 -13 0 -2
-101 13 -125 25 -39 56 -268 38 -279 -9 -6 -26 30 -23 48 1 5 -3 12 -8 15 -6
4 -14 43 -19 87 -5 44 -17 94 -26 112 -15 30 -17 85 -4 107 3 6 9 37 12 70 8
65 23 115 37 115 5 0 4 -12 -1 -26z m76 -639 c6 -23 -2 -63 -10 -54 -2 2 -6
21 -10 42 -8 42 10 53 20 12z m40 -107 c15 -13 47 -42 70 -65 23 -24 47 -43
51 -43 21 0 63 -26 69 -42 7 -23 79 -98 93 -98 6 0 11 -5 11 -11 0 -6 7 -17
15 -25 8 -8 17 -38 21 -65 4 -32 16 -62 31 -80 21 -24 24 -36 19 -67 -4 -20
-10 -67 -15 -104 -4 -37 -13 -74 -19 -81 -7 -8 -9 -17 -5 -20 3 -4 -1 -7 -10
-7 -11 0 -17 -8 -17 -21 0 -11 -6 -27 -12 -34 -7 -8 -26 -31 -43 -51 -36 -44
-207 -218 -250 -254 -31 -27 -75 -76 -75 -85 0 -6 -27 -36 -67 -76 -18 -18
-33 -38 -33 -46 0 -7 -6 -16 -14 -19 -8 -3 -21 -25 -31 -50 -9 -24 -22 -47
-28 -51 -12 -8 -24 -28 -79 -133 -16 -30 -26 -46 -22 -35 15 47 27 91 28 105
1 19 88 194 98 198 5 2 8 11 8 21 0 9 16 41 35 71 19 30 35 62 35 72 0 10 4
18 8 18 5 0 15 19 23 43 7 23 19 53 26 67 7 14 13 30 13 36 0 6 7 17 15 24 8
7 14 18 13 24 -1 10 33 134 49 176 4 8 8 26 10 40 2 14 10 43 18 65 20 53 23
307 5 395 -7 36 -21 81 -32 100 -18 30 -50 130 -42 130 1 0 15 -10 30 -22z
m-160 -1015 c-10 -10 -19 5 -10 18 6 11 8 11 12 0 2 -7 1 -15 -2 -18z"/>
<path d="M575 2876 c-37 -14 -128 -59 -135 -66 -17 -18 -80 -60 -89 -60 -6 0
-11 -5 -11 -10 0 -6 -16 -28 -35 -49 -42 -45 -95 -126 -95 -144 0 -7 -5 -18
-11 -24 -7 -7 -13 -45 -14 -85 l-3 -73 44 -33 c24 -19 65 -62 91 -97 26 -35
57 -69 68 -75 11 -6 35 -30 54 -53 18 -23 63 -66 100 -94 92 -73 191 -164 357
-328 78 -77 203 -198 278 -270 75 -71 188 -182 252 -245 63 -63 119 -119 125
-125 81 -77 139 -137 139 -144 0 -5 23 -26 51 -47 27 -22 65 -57 82 -80 53
-68 189 -214 464 -500 43 -45 85 -84 93 -86 17 -6 70 18 70 32 0 10 -20 33
-129 145 -42 44 -97 105 -122 135 -24 30 -78 87 -118 125 -41 39 -205 199
-365 357 -160 158 -381 376 -492 485 l-201 198 8 67 c5 37 13 76 18 87 6 10 8
21 5 24 -8 7 37 75 83 123 58 63 116 85 208 81 87 -5 82 -2 195 -126 41 -46
140 -150 220 -231 80 -82 177 -181 216 -222 40 -40 103 -103 140 -140 145
-143 286 -298 330 -364 14 -22 41 -55 60 -74 58 -61 108 -117 124 -141 8 -12
31 -37 50 -56 19 -18 30 -33 25 -33 -6 0 -2 -5 8 -11 10 -6 22 -21 27 -34 13
-33 66 -47 102 -26 42 24 51 10 -115 186 -47 50 -98 106 -114 125 -15 20 -37
45 -48 56 -12 11 -47 53 -79 93 -32 40 -161 177 -286 304 -126 128 -291 296
-367 375 -225 232 -565 572 -647 647 -42 39 -125 116 -184 172 -59 56 -128
116 -154 133 -25 17 -69 56 -98 88 -119 132 -118 131 -175 108z m102 -176 c21
-22 44 -40 51 -40 7 0 15 -7 19 -15 3 -9 22 -25 42 -35 20 -11 59 -41 88 -67
28 -26 77 -70 109 -98 32 -27 77 -68 101 -90 24 -22 55 -49 70 -60 14 -11 37
-33 52 -49 14 -16 34 -36 44 -45 9 -8 17 -18 17 -22 0 -4 -32 -17 -71 -29 -59
-19 -82 -33 -129 -80 -52 -51 -100 -131 -100 -165 0 -7 -6 -15 -14 -18 -10 -4
-14 -23 -13 -66 0 -33 -2 -63 -5 -67 -6 -6 -37 23 -144 137 -29 30 -81 78
-115 108 -81 70 -297 285 -332 332 -24 31 -25 39 -15 66 14 36 5 63 -22 70
-25 7 -25 8 5 47 14 18 25 38 25 43 0 21 68 83 145 131 105 66 139 68 192 12z"/>
<path d="M2760 468 c-17 -23 -30 -46 -30 -53 0 -6 -14 -33 -30 -59 -17 -27
-29 -53 -27 -60 2 -6 -16 -26 -40 -45 -34 -27 -42 -38 -37 -55 11 -37 32 -50
74 -47 21 1 54 64 46 88 -4 13 1 21 16 28 16 7 30 31 47 85 14 41 30 78 35 82
9 6 47 -39 44 -52 -1 -3 4 -15 11 -28 10 -19 9 -23 -6 -29 -26 -9 -61 -44 -78
-74 -12 -23 -12 -29 1 -48 22 -30 49 -26 79 13 14 19 43 41 64 50 l38 15 -1
98 c-1 89 -3 98 -21 101 -11 2 -25 8 -32 13 -6 6 -36 12 -67 14 -56 4 -57 4
-86 -37z"/>
<path d="M2587 399 c-79 -120 -84 -146 -30 -163 29 -9 68 43 77 102 3 24 18
61 32 83 25 40 25 79 1 79 -7 0 -43 -46 -80 -101z"/>
</g>
</svg>
