<?xml version="1.0" standalone="no"?>
<!DOCTYPE svg PUBLIC "-//W3C//DTD SVG 20010904//EN"
 "http://www.w3.org/TR/2001/REC-SVG-20010904/DTD/svg10.dtd">
<svg version="1.0" xmlns="http://www.w3.org/2000/svg"
 width="487.000000pt" height="425.000000pt" viewBox="0 0 487.000000 425.000000"
 preserveAspectRatio="xMidYMid meet">
<metadata>
Created by potrace 1.16, written by Peter Selinger 2001-2019
</metadata>
<g transform="translate(0.000000,425.000000) scale(0.100000,-0.100000)"
fill="#000000" stroke="none">
<path d="M2208 3996 c-120 -40 -241 -129 -297 -220 -13 -20 -26 -36 -30 -36
-13 0 -91 -150 -91 -174 0 -8 -4 -17 -9 -20 -5 -4 -12 -25 -16 -49 -4 -23 -18
-73 -31 -112 -34 -103 -39 -144 -37 -319 2 -151 4 -164 35 -255 18 -53 36 -97
40 -99 5 -2 8 -9 8 -15 0 -10 42 -77 65 -103 6 -7 18 -23 29 -38 10 -14 24
-33 31 -42 9 -13 8 -35 -3 -103 -8 -47 -18 -87 -23 -89 -5 -2 -9 -8 -9 -13 0
-5 -8 -17 -17 -28 -10 -10 -25 -27 -33 -38 -20 -26 -110 -83 -130 -83 -9 0
-20 -4 -25 -9 -13 -13 -256 -72 -320 -78 -27 -2 -69 -11 -93 -19 -23 -8 -51
-14 -62 -14 -10 0 -21 -4 -25 -9 -3 -5 -20 -13 -38 -17 -17 -3 -46 -17 -63
-30 -17 -13 -36 -24 -43 -24 -31 0 -181 -125 -181 -151 0 -5 -7 -9 -15 -9 -8
0 -15 -7 -15 -15 0 -8 -5 -15 -10 -15 -6 0 -18 -16 -27 -35 -12 -25 -22 -34
-32 -30 -67 26 -325 34 -357 11 -12 -10 -16 -27 -14 -77 1 -35 2 -100 3 -144
1 -44 5 -83 10 -86 4 -3 9 -48 11 -101 2 -52 6 -99 8 -104 3 -5 6 -22 6 -39 1
-16 5 -53 10 -82 5 -29 5 -58 1 -64 -4 -7 -4 -20 0 -28 4 -9 6 -83 6 -166 -1
-110 2 -156 12 -171 12 -19 23 -21 154 -22 78 -1 145 -4 148 -8 3 -3 7 -81 7
-173 1 -92 4 -176 8 -188 4 -11 2 -40 -4 -64 -6 -24 -14 -54 -17 -66 -9 -37 6
-73 34 -84 60 -23 84 10 90 125 2 44 5 92 7 108 2 15 -1 28 -5 28 -5 0 -6 26
-3 57 3 32 6 99 6 150 l1 92 51 6 c91 10 179 17 278 21 l97 5 0 -28 c0 -15 2
-41 4 -58 2 -16 1 -34 -2 -40 -6 -11 -8 -22 -15 -80 -3 -22 -13 -63 -21 -90
-9 -28 -18 -68 -20 -90 -3 -22 -10 -50 -16 -62 -16 -31 9 -68 52 -77 28 -5 37
-2 56 20 13 15 24 41 25 58 2 52 6 79 18 136 6 30 14 66 16 80 3 14 11 54 18
89 7 35 12 80 11 100 l-3 36 337 -2 c185 -1 615 -3 956 -3 578 -1 621 -2 622
-18 1 -22 32 -229 38 -256 3 -12 7 -48 9 -80 4 -45 10 -65 28 -82 21 -22 27
-23 61 -12 21 6 38 18 39 27 5 56 3 77 -10 124 -26 95 -40 177 -38 235 l1 57
214 -3 c118 -1 216 -4 218 -6 9 -8 52 -146 56 -181 4 -22 11 -53 16 -70 10
-29 17 -63 28 -132 11 -70 75 -96 112 -45 18 26 19 34 9 68 -14 48 -12 37 -27
109 -7 33 -19 80 -27 105 -8 25 -14 54 -14 65 0 11 -6 32 -14 46 -13 25 -12
27 8 27 11 0 41 3 66 6 25 3 68 2 95 -2 74 -11 130 6 170 52 27 32 32 45 29
73 -3 20 -8 43 -13 52 -11 20 -21 85 -27 171 -10 158 -14 207 -19 230 -3 14
-7 59 -10 100 -3 41 -7 89 -10 105 -3 17 -7 44 -10 60 -2 17 -7 62 -10 100 -7
90 -14 125 -26 125 -5 0 -9 11 -9 25 0 36 -24 43 -130 41 -52 -1 -109 1 -126
5 -17 3 -39 2 -48 -3 -11 -6 -16 -5 -16 5 0 8 -9 22 -20 32 -11 10 -20 22 -20
26 0 17 -44 109 -52 109 -4 0 -8 9 -8 20 0 11 -5 20 -10 20 -6 0 -9 3 -8 8 6
18 -132 159 -195 198 -123 79 -204 110 -277 105 -112 -8 -226 -7 -232 3 -5 8
-11 7 -19 -1 -7 -7 -19 -8 -33 -3 -11 5 -49 14 -83 20 -41 8 -73 22 -97 42
-37 30 -76 95 -69 113 2 6 -6 21 -17 32 -24 26 -19 42 27 92 18 20 42 54 53
76 11 23 31 56 45 75 14 19 25 43 25 53 0 11 4 36 9 56 24 90 41 194 46 281
12 184 12 216 -2 275 -8 33 -18 89 -23 124 -6 42 -18 75 -35 97 -14 18 -25 37
-25 42 0 9 -53 68 -173 191 -28 29 -66 59 -84 67 -17 7 -37 19 -45 26 -7 7
-24 19 -38 25 -14 7 -45 24 -70 38 -40 23 -55 25 -142 23 -68 -1 -116 -8 -160
-22z m343 -158 c42 -24 91 -58 109 -76 17 -18 35 -32 40 -32 5 0 11 -8 14 -18
3 -10 26 -38 50 -62 58 -61 95 -121 101 -169 2 -21 12 -61 21 -87 13 -38 15
-73 11 -169 -10 -231 -17 -287 -49 -380 -44 -131 -79 -183 -189 -281 -8 -7
-35 -22 -60 -33 -25 -11 -48 -24 -52 -28 -8 -7 -107 -32 -152 -38 -11 -1 -28
-6 -38 -10 -10 -4 -35 -5 -55 -1 -20 4 -55 9 -76 11 -52 6 -106 24 -106 36 0
5 -5 9 -11 9 -29 0 -179 140 -179 168 0 5 -9 17 -19 26 -11 10 -29 43 -41 74
-12 31 -26 66 -30 77 -8 18 -16 50 -26 99 -11 57 -13 195 -4 254 17 106 60
271 90 343 30 75 128 209 188 257 23 17 44 32 48 32 4 0 16 8 26 17 11 9 24
18 31 20 67 16 70 16 84 -2 7 -11 13 -13 13 -6 0 7 4 9 10 6 5 -3 23 1 41 10
17 9 37 14 45 11 8 -3 14 -1 14 4 0 14 67 -13 151 -62z m-417 -1482 c9 3 22 2
29 -4 17 -14 154 -20 218 -10 97 15 104 17 179 48 89 36 110 38 110 10 0 -11
7 -20 15 -20 8 0 21 -16 29 -35 20 -47 84 -115 126 -133 36 -15 99 -32 215
-58 17 -4 109 -8 205 -9 115 -1 183 -6 198 -14 12 -6 22 -9 22 -6 0 3 26 -12
59 -34 73 -50 190 -168 198 -201 3 -14 13 -32 22 -40 23 -21 42 -98 26 -104
-7 -2 -262 -5 -566 -6 -869 -1 -2246 -17 -2286 -26 -77 -16 54 104 182 168 96
48 223 85 252 74 8 -3 21 -2 31 3 20 11 64 23 187 52 198 46 365 164 399 282
9 31 21 59 26 62 5 3 7 12 3 20 -3 8 -3 22 1 30 4 12 15 9 55 -20 30 -22 55
-33 65 -29z m1834 -737 c153 -3 195 -7 202 -18 4 -8 11 -42 15 -75 3 -34 10
-90 15 -126 5 -36 12 -108 15 -160 4 -52 8 -111 11 -130 2 -19 6 -70 8 -114 3
-43 8 -81 11 -84 3 -3 5 -42 5 -87 l0 -82 -32 -1 c-18 0 -35 3 -38 8 -4 6 -20
6 -41 0 -18 -6 -54 -10 -79 -10 -44 1 -1295 1 -2440 0 -322 -1 -598 -3 -615
-5 -110 -16 -223 -16 -275 -1 -29 9 -76 16 -104 16 -96 0 -91 -8 -91 153 1 78
-2 158 -6 177 -4 19 -10 71 -13 115 -3 44 -7 98 -10 120 -3 22 -9 76 -12 120
-3 44 -7 104 -10 133 l-4 54 102 -5 c57 -3 128 -10 158 -16 39 -8 71 -8 110 0
30 5 100 13 155 17 105 7 2628 8 2963 1z"/>
<path d="M996 943 c-4 -5 -74 -8 -154 -8 -143 0 -147 -1 -150 -22 -3 -21 -1
-21 167 -21 130 -1 172 2 181 13 17 21 -24 57 -44 38z"/>
<path d="M1237 933 c-4 -3 -7 -15 -7 -25 0 -21 -1 -20 137 -18 82 1 107 -2
128 -16 27 -18 28 -17 46 5 11 13 19 26 19 31 0 11 -48 30 -52 20 -2 -5 -42
-5 -98 0 -114 11 -164 12 -173 3z"/>
<path d="M1730 916 c-10 -16 -9 -22 6 -33 11 -8 27 -11 39 -7 11 4 82 8 157 9
76 1 141 5 145 9 4 4 3 14 -3 23 -8 13 -36 16 -171 17 -149 1 -162 0 -173 -18z"/>
<path d="M2318 933 c-19 -5 -25 -38 -8 -48 5 -3 97 -7 204 -8 178 -2 195 0
200 15 2 10 0 20 -5 23 -4 3 -87 7 -182 9 -96 2 -178 5 -183 8 -5 2 -17 3 -26
1z"/>
<path d="M2934 917 c-10 -27 0 -52 21 -50 11 1 81 2 155 2 74 -1 146 -1 159
-1 26 0 42 18 34 37 -3 9 -37 13 -111 13 -59 1 -140 4 -179 8 -61 5 -74 4 -79
-9z"/>
<path d="M3536 911 c-21 -23 -20 -38 1 -50 11 -6 24 -6 37 1 11 6 69 9 140 7
119 -4 121 -4 124 19 4 25 12 24 -143 24 -54 0 -109 4 -121 8 -16 6 -26 4 -38
-9z"/>
<path d="M4010 910 c-29 -4 -35 -9 -35 -30 0 -24 1 -25 84 -25 l85 0 3 32 4
33 -53 -3 c-29 -1 -69 -4 -88 -7z"/>
</g>
</svg>
