<?xml version="1.0" standalone="no"?>
<!DOCTYPE svg PUBLIC "-//W3C//DTD SVG 20010904//EN"
 "http://www.w3.org/TR/2001/REC-SVG-20010904/DTD/svg10.dtd">
<svg version="1.0" xmlns="http://www.w3.org/2000/svg"
 width="449.000000pt" height="491.000000pt" viewBox="0 0 449.000000 491.000000"
 preserveAspectRatio="xMidYMid meet">
<metadata>
Created by potrace 1.16, written by Peter Selinger 2001-2019
</metadata>
<g transform="translate(0.000000,491.000000) scale(0.100000,-0.100000)"
fill="#000000" stroke="none">
<path d="M3865 4768 c-4 -13 -8 -29 -10 -35 -2 -7 6 -40 18 -73 19 -59 20 -64
5 -133 -9 -40 -14 -85 -13 -102 2 -16 -3 -57 -11 -91 -7 -33 -16 -77 -18 -96
-4 -30 -48 -124 -65 -138 -3 -3 -8 -12 -10 -20 -2 -8 -7 -28 -11 -45 -4 -16
-19 -50 -33 -75 -13 -25 -33 -61 -43 -80 -11 -19 -22 -37 -26 -41 -5 -3 -27
-48 -49 -100 -34 -76 -42 -108 -45 -164 -1 -38 -5 -85 -7 -103 -5 -36 24 -124
42 -130 6 -2 11 -21 11 -43 0 -33 4 -41 25 -49 15 -6 25 -17 25 -30 0 -11 3
-20 8 -20 4 0 8 -21 9 -46 2 -44 8 -59 49 -133 22 -39 58 -78 96 -103 23 -15
28 -15 47 -2 32 23 23 94 -14 104 -22 6 -44 27 -64 64 -24 42 -19 63 7 31 10
-12 25 -24 34 -27 31 -12 37 13 29 117 -7 85 -6 106 9 140 16 36 20 47 31 80
1 6 7 15 11 20 5 6 17 21 28 34 11 13 20 30 20 38 0 7 4 13 9 13 5 0 12 14 16
30 4 17 15 35 26 40 10 6 19 17 19 24 0 8 9 16 20 19 11 3 20 14 20 25 0 10 7
33 16 51 12 25 16 63 16 168 0 136 -4 152 -38 153 -15 0 -47 -67 -39 -80 3 -6
2 -10 -3 -10 -5 0 -9 -6 -10 -12 -3 -47 -19 -97 -41 -131 -14 -21 -26 -42 -26
-46 -1 -15 -36 -71 -45 -71 -5 0 -34 -26 -66 -57 -31 -32 -54 -50 -51 -41 3 9
9 34 13 55 4 21 14 54 22 73 9 19 16 37 17 40 1 3 14 31 28 63 15 32 27 60 27
64 0 4 6 14 13 22 7 9 22 36 32 61 11 25 22 47 25 50 4 3 16 41 28 85 13 44
28 98 34 120 12 43 12 43 22 127 4 35 3 59 -4 63 -6 3 -8 11 -5 16 4 5 1 9 -4
9 -6 0 -11 17 -11 38 0 41 -37 163 -52 173 -6 3 -9 8 -8 10 1 2 -3 17 -9 32
-6 16 -11 34 -11 41 0 12 -41 56 -52 56 -3 0 -9 -10 -13 -22z m90 -308 c4 -25
13 -54 21 -64 7 -11 10 -26 5 -35 -4 -9 -9 -34 -10 -56 -2 -22 -7 -48 -12 -57
-5 -9 -9 -27 -9 -39 0 -23 -31 -130 -40 -139 -5 -5 -62 -121 -84 -170 -6 -14
-14 -27 -17 -30 -11 -8 -60 -133 -66 -165 -3 -16 -15 -62 -28 -100 -13 -40
-21 -87 -19 -110 1 -21 -2 -47 -7 -57 -7 -12 -6 -25 2 -40 23 -44 67 -53 67
-14 0 33 46 130 75 160 13 13 32 34 43 47 10 13 31 32 46 42 15 9 39 42 53 72
15 30 31 55 36 55 5 0 9 9 9 20 0 11 4 20 9 20 6 0 6 -13 -1 -32 -5 -18 -12
-41 -15 -50 -3 -10 -8 -18 -12 -18 -11 0 -84 -100 -78 -107 4 -3 -5 -20 -18
-37 -14 -17 -29 -35 -33 -41 -4 -5 -21 -36 -37 -68 -16 -32 -33 -60 -37 -63
-12 -8 -10 -58 3 -71 12 -12 -6 -123 -19 -123 -23 1 -102 110 -102 141 0 11
-4 19 -9 19 -5 0 -12 11 -15 25 -4 14 -11 25 -16 25 -20 0 -40 58 -34 102 3
24 5 63 4 89 -1 35 10 67 50 146 27 56 50 104 50 107 0 3 20 39 45 79 25 41
45 80 45 87 0 7 20 53 45 101 25 48 47 107 50 131 3 24 9 66 15 93 5 28 9 69
9 93 0 24 3 58 7 74 8 38 18 23 29 -42z"/>
<path d="M3522 3145 l-22 -25 20 -48 c62 -141 98 -188 138 -180 9 2 21 18 26
37 9 30 7 36 -16 56 -27 23 -78 120 -78 146 0 18 -19 39 -35 39 -6 0 -21 -11
-33 -25z"/>
<path d="M3388 3115 c-3 -3 -43 -5 -89 -6 -46 0 -113 -5 -149 -11 -80 -12
-114 -17 -165 -24 -22 -3 -47 -8 -55 -11 -8 -4 -17 -7 -20 -8 -3 -1 -39 -11
-80 -24 -41 -12 -98 -33 -126 -47 -28 -13 -55 -24 -60 -24 -14 0 -156 -63
-184 -82 -14 -9 -41 -24 -61 -32 -20 -8 -39 -22 -42 -31 -4 -8 -13 -15 -22
-15 -8 0 -15 -5 -15 -10 0 -6 -8 -14 -17 -17 -10 -4 -48 -28 -84 -55 -37 -26
-74 -48 -83 -48 -9 0 -29 -8 -44 -18 -44 -30 -121 -78 -204 -127 -9 -5 -74
-48 -145 -95 -70 -47 -139 -91 -153 -98 -46 -24 -71 -39 -95 -60 -21 -19 -59
-46 -124 -87 -9 -6 -63 -57 -121 -113 -57 -56 -110 -102 -117 -102 -7 0 -13
-4 -13 -9 0 -10 -131 -141 -142 -141 -4 0 -14 -12 -22 -27 -8 -16 -41 -56 -73
-89 -109 -116 -153 -164 -153 -169 0 -6 -51 -64 -97 -109 -17 -17 -45 -56 -62
-86 -59 -103 -101 -166 -128 -195 -11 -11 -24 -35 -31 -53 -6 -17 -24 -51 -40
-74 -19 -29 -34 -72 -47 -133 -10 -49 -22 -99 -28 -110 -25 -48 -43 -152 -39
-221 4 -66 7 -75 43 -115 21 -24 43 -55 49 -70 9 -20 21 -28 48 -33 37 -7 123
-18 152 -19 32 -2 147 15 190 28 25 7 78 19 118 26 39 6 72 16 72 20 0 6 31
21 50 24 3 0 10 3 15 6 13 8 78 23 88 21 4 -1 7 3 7 8 0 6 9 10 19 10 11 0 26
7 34 15 8 8 33 17 56 21 23 4 41 10 41 15 0 4 17 13 37 20 21 6 79 31 129 55
50 24 94 44 98 44 4 0 16 9 28 20 12 11 30 20 40 20 10 0 35 11 56 24 20 12
47 26 60 30 12 4 22 11 22 15 0 5 24 19 53 31 28 12 54 26 57 30 3 4 21 15 40
25 18 10 40 24 48 31 7 8 22 14 31 14 10 0 24 7 31 15 7 8 18 15 25 15 7 0 19
7 26 17 8 9 33 25 56 35 23 10 45 23 48 28 3 4 19 11 35 15 17 4 30 11 30 16
0 5 8 13 17 16 9 4 24 14 34 22 25 23 68 52 72 49 2 -2 11 4 20 12 30 28 46
40 52 40 10 0 125 93 125 101 0 5 14 16 31 25 17 8 43 28 58 42 14 15 50 43
78 62 29 19 53 41 53 47 0 7 12 20 28 30 15 10 36 28 47 40 11 13 24 23 29 23
10 0 36 26 36 36 0 21 203 216 211 203 3 -6 9 0 13 13 3 12 26 45 51 71 25 27
45 51 45 55 0 4 22 30 48 58 26 28 64 71 84 96 20 25 60 67 87 93 28 27 51 54
51 60 0 5 11 19 25 29 14 10 25 25 25 32 0 8 3 14 8 14 4 0 18 17 32 37 14 20
36 48 50 62 60 63 112 138 143 207 8 17 26 48 39 70 14 21 31 56 39 77 7 20
17 37 21 37 4 0 8 5 8 11 0 5 -4 8 -9 5 -4 -3 -17 10 -27 29 -22 41 -36 48
-69 33 -20 -9 -60 -70 -58 -88 1 -10 -37 -79 -47 -85 -6 -4 -8 -11 -5 -16 4
-5 2 -9 -4 -9 -5 0 -24 -24 -41 -52 -18 -29 -35 -55 -39 -58 -3 -3 -12 -16
-20 -30 -21 -37 -136 -174 -211 -251 -80 -82 -160 -170 -160 -176 0 -2 -28
-32 -63 -66 -34 -34 -100 -107 -147 -161 -98 -115 -333 -354 -403 -410 l-48
-39 -32 31 c-18 18 -54 54 -82 81 -98 97 -144 159 -128 175 3 3 -11 15 -31 27
-20 11 -36 29 -36 38 0 10 -11 28 -25 41 -14 13 -25 28 -25 34 0 7 -12 27 -28
46 -58 73 -71 131 -38 175 12 17 30 48 40 70 10 22 24 51 30 65 15 32 11 158
-6 208 -7 20 -23 52 -35 71 -13 19 -23 40 -23 47 0 7 10 16 23 20 12 3 29 12
37 19 8 7 26 16 39 20 14 4 39 20 55 36 28 26 41 33 49 27 1 -2 12 6 24 17 12
11 62 40 110 65 48 25 90 48 91 53 2 4 9 7 15 7 6 0 68 25 137 56 69 31 143
64 165 74 49 21 143 42 156 34 5 -3 9 -1 9 4 0 12 47 20 180 33 119 12 127 12
193 7 41 -3 51 -7 65 -33 9 -16 27 -41 40 -54 12 -14 22 -31 22 -38 0 -6 15
-27 34 -46 27 -28 36 -33 52 -24 41 22 46 67 11 90 -12 8 -40 43 -61 77 -33
53 -41 77 -45 133 -1 5 -5 5 -11 2 -5 -3 -20 1 -32 9 -23 16 -41 20 -50 11z
m-1358 -664 c0 -5 12 -24 27 -42 24 -28 28 -42 30 -108 2 -59 -2 -86 -17 -118
-11 -24 -20 -45 -20 -48 0 -6 -6 -14 -45 -58 -14 -15 -25 -37 -25 -48 0 -30
48 -160 67 -181 9 -10 21 -27 27 -37 29 -50 99 -143 111 -147 8 -3 17 -18 20
-33 3 -16 19 -41 35 -56 17 -16 30 -34 30 -39 1 -16 32 -51 58 -65 12 -6 22
-16 22 -20 0 -5 19 -28 42 -51 l43 -42 -26 -22 c-112 -93 -122 -99 -153 -82
-34 17 -156 137 -156 154 0 6 -4 12 -8 12 -15 0 -57 43 -87 90 -17 25 -33 47
-37 48 -5 2 -8 10 -8 17 0 8 -15 29 -32 48 -18 19 -44 57 -58 84 -14 26 -28
50 -31 53 -3 3 -11 21 -19 40 -7 19 -18 41 -23 48 -11 14 -67 17 -67 3 0 -12
-50 -29 -75 -25 -11 1 -41 5 -66 7 -25 3 -55 9 -65 15 -10 5 -24 7 -31 5 -11
-4 -94 44 -101 58 -1 3 -16 21 -32 39 -17 19 -30 36 -30 40 0 26 347 283 435
322 17 7 36 21 43 30 7 10 19 18 25 18 7 0 34 15 61 33 94 61 136 79 136 58z
m1059 -565 c-24 -31 -48 -56 -53 -56 -10 0 4 19 51 70 18 19 33 39 33 44 0 5
3 7 6 3 3 -3 -13 -31 -37 -61z m-1772 -1 c30 -30 61 -55 68 -55 8 0 20 -8 27
-19 13 -18 36 -28 85 -37 15 -3 31 -8 37 -12 18 -11 184 -13 191 -2 12 20 31
9 50 -27 28 -55 81 -138 99 -152 8 -7 25 -34 37 -59 13 -26 31 -53 41 -60 10
-7 18 -17 18 -22 0 -10 115 -135 183 -198 26 -25 47 -50 47 -56 0 -10 -92 -76
-106 -76 -3 0 -23 -13 -43 -29 -20 -16 -76 -50 -126 -76 -49 -27 -110 -63
-135 -80 -60 -43 -128 -77 -140 -70 -6 3 -10 2 -10 -2 0 -5 -17 -15 -37 -22
-21 -7 -70 -28 -110 -47 -39 -19 -78 -34 -87 -34 -16 0 -52 -15 -141 -56 -80
-38 -233 -94 -255 -94 -11 0 -20 -4 -20 -9 0 -5 -30 -19 -67 -32 -38 -12 -102
-37 -145 -55 -70 -31 -85 -34 -175 -34 -93 0 -101 2 -153 33 -47 29 -56 39
-65 77 -7 25 -8 57 -4 72 4 14 5 29 2 32 -8 7 21 99 64 206 36 90 97 201 145
261 15 20 28 41 28 47 0 5 11 20 25 33 13 13 25 30 25 37 0 7 4 11 9 8 5 -3
11 4 15 17 5 20 44 79 109 161 12 15 45 51 72 80 28 28 75 81 105 117 127 152
167 196 220 241 30 26 57 47 59 48 2 0 28 -25 58 -55z m1693 -85 c0 -5 -5 -10
-11 -10 -5 0 -7 5 -4 10 3 6 8 10 11 10 2 0 4 -4 4 -10z"/>
</g>
</svg>
