<?xml version="1.0" standalone="no"?>
<!DOCTYPE svg PUBLIC "-//W3C//DTD SVG 20010904//EN"
 "http://www.w3.org/TR/2001/REC-SVG-20010904/DTD/svg10.dtd">
<svg version="1.0" xmlns="http://www.w3.org/2000/svg"
 width="563.000000pt" height="513.000000pt" viewBox="0 0 563.000000 513.000000"
 preserveAspectRatio="xMidYMid meet">
<metadata>
Created by potrace 1.16, written by Peter Selinger 2001-2019
</metadata>
<g transform="translate(0.000000,513.000000) scale(0.100000,-0.100000)"
fill="#000000" stroke="none">
<path d="M931 5061 c-28 -5 -39 -14 -58 -51 -12 -25 -32 -72 -42 -105 -49
-149 -74 -210 -145 -357 -42 -86 -76 -162 -76 -169 0 -7 -14 -42 -31 -78 -43
-89 -118 -269 -130 -308 -5 -18 -14 -35 -19 -38 -6 -4 -10 -13 -10 -21 0 -16
-53 -147 -70 -174 -6 -8 -13 -22 -16 -30 -25 -64 -57 -138 -65 -150 -5 -8 -12
-22 -16 -30 -3 -8 -17 -39 -29 -68 -13 -29 -24 -57 -24 -61 0 -5 -8 -26 -19
-48 -54 -111 -71 -150 -71 -165 0 -9 -4 -19 -9 -22 -4 -3 -6 -17 -3 -31 3 -19
9 -24 23 -20 14 5 20 0 25 -21 5 -18 18 -31 43 -41 20 -9 69 -30 108 -49 65
-30 229 -104 338 -153 22 -10 69 -31 105 -48 36 -17 106 -50 155 -73 50 -23
115 -54 145 -68 124 -57 202 -97 206 -104 3 -4 13 -8 23 -8 10 0 53 -18 97
-39 43 -22 91 -42 106 -46 47 -12 53 -30 16 -53 -100 -63 -174 -128 -254 -222
-49 -58 -98 -118 -109 -135 -34 -53 -125 -236 -125 -251 0 -8 -4 -22 -10 -32
-8 -15 -41 -138 -58 -217 -8 -40 -8 -300 0 -350 36 -207 69 -305 152 -453 84
-148 252 -326 401 -428 20 -13 38 -24 41 -24 2 0 37 -19 77 -41 78 -45 232
-100 349 -125 90 -19 289 -26 383 -13 73 10 144 28 233 60 30 11 57 17 62 14
5 -3 14 1 22 8 7 8 20 14 28 14 8 0 52 21 97 46 45 26 87 47 93 47 5 0 10 5
10 10 0 6 7 10 15 10 8 0 15 4 15 8 0 5 20 23 43 40 51 36 165 147 219 212 46
54 141 213 165 272 9 24 22 52 29 63 7 11 17 54 23 95 29 201 29 218 0 243
-15 12 -18 21 -11 30 5 6 12 44 15 82 3 39 8 77 10 85 17 56 20 60 46 61 41 2
64 6 87 13 23 7 83 -32 77 -51 -3 -7 6 -15 20 -18 18 -5 32 1 54 22 51 48 86
72 130 89 36 14 42 20 45 51 3 28 0 37 -13 40 -24 7 -51 89 -34 103 36 30 145
12 166 -27 18 -34 57 -41 78 -15 9 11 28 24 43 27 16 4 25 11 22 16 -3 5 1 9
9 9 8 0 22 9 32 20 10 11 26 20 36 20 10 0 23 9 29 19 12 23 13 61 2 61 -5 0
-15 15 -24 32 -11 25 -12 42 -5 68 13 50 22 57 68 55 31 -1 46 -8 65 -30 13
-15 24 -34 24 -42 0 -7 6 -13 14 -13 8 0 22 -8 32 -17 15 -16 17 -16 29 0 6 9
15 14 18 10 4 -3 7 0 7 8 0 8 15 23 33 33 94 54 126 81 127 107 0 14 -9 36
-20 49 -23 26 -26 67 -6 92 19 26 82 15 116 -20 15 -15 41 -37 59 -50 l32 -23
57 43 c55 42 80 69 71 77 -2 2 14 9 35 15 22 6 48 23 60 39 l21 29 -28 24
c-30 25 -50 75 -40 100 5 12 10 15 28 14 3 -1 13 6 21 15 9 8 19 15 24 15 9 0
53 -45 88 -90 l20 -25 47 24 c25 13 49 29 52 37 3 8 11 14 19 14 7 0 17 6 21
13 4 6 33 25 63 41 107 56 135 80 133 110 -1 15 -12 38 -25 51 -13 13 -31 40
-42 62 -10 21 -22 46 -27 55 -5 10 -9 27 -9 38 0 11 -4 20 -9 20 -5 0 -12 9
-16 19 -3 11 -15 23 -26 26 -10 4 -19 11 -19 17 0 6 -7 19 -16 29 -15 17 -20
16 -97 -12 -45 -16 -88 -29 -96 -29 -19 0 -40 30 -41 57 0 19 12 33 101 114
33 31 41 55 25 72 -17 16 -56 96 -56 113 0 7 -5 24 -11 37 -11 25 -11 25 -68
10 -188 -51 -244 -45 -227 22 8 32 83 125 101 125 8 0 19 9 25 21 15 27 0 66
-52 134 -20 28 -44 67 -53 88 -19 45 -51 56 -99 33 -19 -9 -43 -16 -54 -16
-12 0 -24 -5 -28 -11 -7 -13 -56 -3 -66 14 -4 7 -8 28 -8 48 0 30 7 43 38 70
21 19 41 41 44 49 5 14 -17 80 -31 90 -13 11 -81 117 -81 128 0 20 -39 24 -69
6 -17 -10 -28 -20 -26 -24 7 -11 -98 -80 -121 -80 -23 0 -24 3 -24 60 0 63 29
140 52 140 19 0 59 52 53 68 -8 20 -49 71 -58 71 -4 1 -35 19 -68 41 -69 45
-100 50 -126 18 -10 -13 -31 -24 -47 -26 -27 -3 -28 -2 -23 28 6 30 55 100 70
100 4 0 16 9 28 21 26 26 21 49 -26 121 -20 29 -38 62 -41 73 -3 11 -17 27
-32 36 -24 13 -30 14 -41 2 -11 -12 -15 -12 -30 1 -20 18 -61 21 -61 5 0 -5
-4 -7 -10 -4 -5 3 -10 1 -10 -4 0 -6 -21 -22 -47 -36 -27 -14 -93 -57 -148
-95 -55 -39 -105 -70 -112 -70 -16 0 -25 -33 -18 -67 9 -40 6 -102 -6 -140 -8
-24 -17 -33 -33 -33 -27 0 -106 56 -106 76 0 13 -18 19 -50 14 -8 -1 -51 -25
-95 -55 -44 -29 -90 -58 -102 -64 -27 -14 -31 -57 -8 -87 23 -30 19 -98 -7
-128 -39 -44 -98 -24 -161 54 -13 16 -25 20 -43 16 -18 -5 -24 -2 -24 9 0 16
-85 59 -100 50 -5 -3 -10 -2 -12 3 -5 12 -171 92 -190 92 -9 0 -19 4 -22 9 -3
5 -18 12 -33 16 -15 3 -57 20 -93 37 -36 16 -92 43 -125 58 -96 45 -147 67
-190 81 -22 7 -78 32 -125 55 -163 80 -387 183 -475 218 -16 7 -60 27 -96 44
-36 18 -69 32 -72 32 -3 0 -50 20 -103 45 -53 25 -98 45 -100 45 -2 0 -46 20
-96 45 -96 47 -117 52 -149 35 -11 -6 -26 -7 -36 -2 -10 4 -33 6 -52 3z m-1
-168 c-11 -17 -11 -17 -6 0 3 10 6 24 7 30 0 9 2 9 5 0 3 -7 0 -20 -6 -30z
m360 -90 c47 -22 96 -44 110 -48 14 -4 54 -21 90 -37 103 -47 141 -64 200 -88
30 -12 57 -26 60 -29 3 -4 32 -18 65 -31 33 -13 65 -27 70 -31 6 -4 49 -24 95
-44 46 -20 98 -42 114 -50 17 -7 69 -30 116 -50 47 -20 103 -45 126 -56 23
-10 44 -19 48 -19 3 0 52 -22 109 -49 56 -27 120 -56 142 -65 22 -10 56 -26
75 -37 19 -11 61 -32 92 -47 32 -15 56 -31 54 -37 -2 -5 -9 -9 -15 -7 -6 1
-14 -5 -17 -13 -9 -22 -27 -19 -112 22 -42 20 -79 37 -82 38 -3 1 -14 5 -25
10 -11 4 -54 21 -95 37 -41 17 -79 33 -85 37 -5 4 -55 27 -110 50 -55 24 -128
56 -163 72 -35 16 -67 29 -71 29 -5 0 -61 25 -125 55 -63 30 -117 55 -120 55
-2 0 -46 20 -97 44 -52 24 -105 47 -119 51 -54 16 -351 156 -369 173 -10 10
-31 13 -68 10 -29 -3 -53 -1 -53 3 0 4 -8 5 -19 2 -20 -5 -36 -37 -110 -228
-84 -218 -141 -359 -151 -377 -6 -10 -10 -24 -10 -31 0 -8 -14 -41 -31 -73
-18 -32 -49 -105 -70 -162 -22 -56 -43 -110 -48 -120 -36 -75 -120 -266 -141
-322 -7 -19 -17 -39 -21 -45 -4 -5 -16 -36 -27 -67 -31 -87 -24 -102 48 -112
45 -6 50 -9 50 -32 0 -15 7 -27 18 -30 9 -3 34 -15 55 -26 20 -10 49 -21 63
-24 22 -4 130 -50 176 -75 53 -28 338 -169 343 -169 12 0 463 -228 499 -252
l37 -25 -31 -12 c-16 -6 -45 -16 -62 -23 -18 -6 -37 -15 -43 -20 -5 -4 -22 5
-40 22 -17 17 -40 32 -51 34 -11 2 -37 13 -57 25 -20 11 -40 20 -43 20 -3 -1
-42 17 -87 39 -82 41 -116 56 -302 139 -55 25 -154 71 -220 103 -226 109 -380
182 -420 198 -22 9 -55 25 -73 35 -29 17 -33 24 -29 51 8 52 28 120 35 126 4
3 16 25 26 50 10 25 24 57 32 72 8 14 14 34 14 44 0 9 27 70 60 135 33 65 60
122 60 128 0 6 13 39 29 73 15 35 38 92 51 128 12 36 33 88 45 115 48 108 58
132 81 199 13 38 33 78 44 88 11 10 20 25 20 33 0 8 18 53 40 100 22 47 40 90
40 95 0 5 14 36 30 68 17 33 30 65 30 71 0 7 9 29 20 51 11 22 20 46 20 55 0
8 10 30 22 48 l22 34 75 -33 c42 -17 114 -50 161 -71z m2776 -110 c13 -16 31
-41 40 -56 14 -27 14 -29 -20 -68 -56 -65 -69 -103 -63 -173 3 -38 11 -64 21
-72 23 -16 73 -8 133 22 l51 26 46 -31 46 -32 -26 -34 c-32 -42 -52 -116 -56
-206 -3 -87 13 -108 88 -111 45 -2 57 3 120 45 l69 46 22 -27 c13 -15 23 -33
23 -39 0 -7 5 -13 10 -13 18 0 10 -27 -16 -55 -84 -91 -67 -227 33 -262 22 -8
34 -8 42 0 6 6 11 8 11 5 0 -4 29 1 65 11 l66 19 17 -25 c9 -13 31 -43 48 -65
l31 -42 -39 -40 c-21 -22 -38 -44 -38 -48 0 -5 -11 -25 -24 -46 -14 -20 -27
-56 -29 -79 -3 -35 0 -46 22 -67 15 -14 44 -32 66 -39 34 -12 49 -11 118 5 43
10 87 23 98 28 15 9 19 7 19 -7 0 -10 9 -37 20 -60 l19 -42 -40 -32 c-45 -35
-82 -100 -81 -141 1 -32 27 -86 54 -112 14 -13 27 -16 46 -12 15 4 58 13 96
21 37 8 74 19 80 24 7 6 17 6 26 1 11 -7 12 -10 2 -10 -8 0 -3 -10 11 -22 13
-13 30 -41 37 -63 7 -22 24 -59 37 -82 12 -23 23 -44 23 -46 0 -4 -64 -45
-135 -87 -22 -14 -46 -30 -53 -37 -20 -19 -25 -17 -72 28 -41 39 -46 41 -92
37 -28 -3 -57 -13 -69 -24 -12 -10 -23 -18 -25 -16 -12 8 -31 -19 -42 -61 -10
-41 -10 -56 3 -95 18 -51 13 -92 -11 -92 -8 0 -36 -12 -60 -26 l-45 -27 -37
36 c-20 20 -50 41 -67 47 -36 14 -105 20 -105 9 0 -4 -8 -10 -17 -13 -27 -9
-66 -75 -68 -116 -1 -19 4 -51 11 -72 11 -32 11 -37 -4 -41 -9 -3 -34 -16 -55
-28 l-37 -23 -38 37 c-21 20 -43 37 -50 37 -7 0 -12 6 -13 13 0 9 -2 9 -6 0
-3 -9 -20 -11 -57 -7 -63 8 -67 3 -101 -95 -25 -70 -27 -96 -10 -134 4 -10 2
-24 -6 -33 -19 -23 -111 -67 -118 -56 -11 16 -49 32 -78 32 -15 0 -34 4 -41 9
-23 14 -95 -9 -128 -43 l-31 -31 14 -63 c7 -34 12 -68 10 -74 -6 -31 -137 -95
-137 -68 0 5 -18 14 -41 20 -32 9 -58 8 -119 -4 -42 -9 -79 -16 -82 -16 -10 0
-48 -136 -52 -187 -2 -28 -12 -63 -21 -77 -20 -31 -153 -116 -176 -113 -18 3
-70 52 -73 70 -2 7 -10 28 -19 48 -12 26 -14 45 -7 74 5 21 6 43 3 48 -3 6 -7
27 -9 48 -2 21 -13 50 -26 65 -46 54 -73 79 -85 80 -7 1 -35 2 -62 2 -47 2
-49 3 -90 62 -44 65 -49 80 -27 80 8 0 19 23 28 59 l15 59 -31 58 c-17 32 -41
63 -52 69 -12 6 -30 17 -39 25 -23 19 -40 21 -76 8 -27 -9 -33 -7 -59 21 -17
17 -30 37 -30 45 0 8 -7 17 -15 20 -17 6 -16 52 1 64 5 4 11 14 12 22 11 45
14 81 9 95 -4 8 -7 19 -8 23 0 4 -20 26 -44 50 -29 28 -53 42 -71 43 -16 1
-42 2 -59 3 -18 1 -29 6 -27 14 1 6 -4 12 -12 12 -7 0 -26 19 -41 41 -21 33
-25 46 -17 63 24 53 33 96 24 113 -6 9 -6 26 -2 38 15 39 -19 92 -75 119 -59
27 -110 40 -147 37 -23 -2 -32 7 -67 66 -23 38 -41 75 -41 81 0 7 -12 26 -28
43 -29 32 -81 126 -82 147 0 6 -8 12 -17 12 -15 0 -15 2 -3 14 21 19 121 86
129 86 4 0 16 -8 27 -18 27 -26 97 -35 143 -20 88 30 136 96 113 157 -7 19 -4
32 12 57 35 54 56 57 105 19 44 -35 92 -52 112 -39 7 4 25 8 41 9 34 3 54 19
74 57 18 34 21 117 5 146 -6 11 -8 28 -5 36 6 15 12 18 30 15 4 0 10 3 13 8 3
5 17 16 30 25 22 16 25 15 50 -3 14 -10 37 -22 51 -25 116 -25 146 -18 183 40
15 24 27 52 27 62 0 11 9 27 20 37 11 9 20 26 20 38 0 12 -8 23 -20 26 -23 6
-27 33 -5 33 8 0 15 4 15 9 0 5 13 19 29 30 27 20 30 20 72 4 24 -10 46 -20
49 -23 12 -13 58 -31 88 -35 47 -5 96 26 121 80 23 49 28 91 17 152 -7 37 -5
44 11 50 10 5 36 21 59 36 45 31 72 28 108 -12 11 -11 31 -21 46 -21 15 0 30
-3 34 -7 13 -13 49 -13 77 -1 39 17 60 75 65 173 3 80 4 80 41 107 21 15 46
27 56 28 9 0 17 4 17 9 0 11 70 53 84 51 5 -1 12 4 16 10 8 12 79 57 93 59 4
1 19 -11 33 -26z m-2901 -23 c3 -5 17 -10 31 -10 14 0 27 -7 31 -16 4 -10 8
-12 12 -5 8 12 136 -36 356 -134 17 -7 64 -27 105 -45 41 -18 107 -47 145 -65
114 -53 185 -85 191 -85 3 0 29 -11 57 -24 29 -13 75 -34 102 -46 28 -12 64
-28 80 -35 17 -8 59 -26 95 -40 36 -15 97 -42 135 -61 64 -30 204 -93 298
-131 27 -12 37 -22 37 -39 0 -34 -16 -70 -35 -78 -25 -9 -93 12 -113 34 -27
32 -75 36 -119 9 -21 -13 -40 -25 -43 -28 -3 -4 -17 -12 -32 -20 -33 -17 -96
-81 -80 -81 7 0 12 -9 12 -20 0 -11 9 -25 20 -32 14 -9 20 -24 20 -48 0 -49
-10 -60 -59 -64 -39 -3 -47 0 -88 40 -25 25 -54 44 -66 44 -12 0 -38 -13 -57
-30 l-34 -29 -11 29 c-11 31 -79 110 -94 110 -5 0 2 21 17 47 28 51 30 60 32
143 1 70 -4 93 -32 138 -42 68 -98 102 -171 102 -38 0 -146 -53 -185 -91 l-31
-30 -20 38 c-33 61 -62 90 -125 122 -64 34 -85 37 -154 19 -52 -13 -66 -26
-119 -113 -33 -54 -36 -66 -35 -126 1 -36 8 -84 16 -107 l15 -41 -50 -26 c-28
-14 -56 -25 -62 -25 -7 -1 -28 -20 -48 -43 -42 -49 -64 -125 -54 -184 4 -21 8
-47 9 -58 0 -11 15 -31 31 -45 17 -13 32 -27 35 -31 23 -29 163 -59 176 -37
13 21 25 6 18 -24 -21 -93 6 -243 53 -296 66 -73 189 -57 279 35 l51 52 22
-22 c11 -13 21 -28 21 -34 0 -6 4 -13 8 -15 14 -6 52 -66 52 -81 0 -9 4 -17 9
-19 5 -1 37 -45 70 -96 62 -94 90 -117 126 -100 14 6 37 2 80 -16 60 -24 60
-24 66 -73 6 -49 -4 -98 -19 -89 -12 7 -181 -12 -242 -28 -49 -13 -50 -13 -50
9 0 23 -35 43 -235 135 -82 38 -373 177 -395 189 -8 4 -24 13 -35 19 -11 6
-127 64 -258 129 -131 65 -247 122 -257 128 -11 5 -20 19 -22 30 -2 14 -14 23
-40 29 -33 8 -37 13 -33 34 2 13 8 29 14 35 5 7 14 32 21 57 6 25 20 60 31 78
10 18 19 37 19 42 0 4 10 30 22 57 12 26 22 50 23 53 8 32 31 80 39 80 5 0 7
3 3 6 -7 8 14 67 58 159 19 41 35 78 35 83 0 4 11 30 24 58 13 27 29 67 36 89
7 22 16 45 20 50 4 6 15 35 25 65 10 30 21 60 25 65 4 6 20 42 35 80 15 39 40
95 56 125 15 30 31 67 35 83 4 17 15 29 30 33 25 6 31 19 14 29 -10 6 -2 35
10 35 5 0 12 -4 15 -10z m-409 -196 c-4 -9 -9 -15 -11 -12 -3 3 -3 13 1 22 4
9 9 15 11 12 3 -3 3 -13 -1 -22z m-36 -81 c-11 -17 -11 -17 -6 0 3 10 6 24 7
30 0 9 2 9 5 0 3 -7 0 -20 -6 -30z m826 -245 c50 -34 80 -75 86 -117 3 -23 -2
-26 -52 -37 -84 -18 -107 -30 -137 -73 -17 -24 -36 -40 -48 -41 -57 -1 -97 80
-76 152 21 69 65 124 108 136 59 16 68 14 119 -20z m1354 -38 c0 -5 -7 -10
-16 -10 -8 0 -12 5 -9 10 3 6 10 10 16 10 5 0 9 -4 9 -10z m-902 -27 c38 -35
53 -65 48 -95 -3 -13 -5 -37 -5 -55 -1 -17 -8 -38 -16 -46 -8 -8 -11 -17 -8
-20 7 -7 -43 -52 -77 -71 -14 -7 -38 -16 -55 -19 -26 -5 -30 -3 -31 18 -1 14
-9 32 -18 40 -9 9 -16 22 -16 30 0 7 -21 36 -46 64 -51 57 -51 56 14 115 80
71 158 85 210 39z m-1425 -38 c-3 -9 -8 -14 -10 -11 -3 3 -2 9 2 15 9 16 15
13 8 -4z m-52 -132 c-11 -21 -20 -35 -21 -32 0 14 31 81 36 76 3 -3 -4 -22
-15 -44z m1177 -35 c1 -30 -2 -38 -8 -28 -12 19 -13 70 -1 70 5 0 9 -19 9 -42z
m-80 -10 c7 -24 15 -61 17 -83 14 -119 37 -206 57 -218 24 -15 23 -27 -1 -27
-11 0 -22 -4 -26 -10 -3 -5 -11 -7 -19 -4 -7 3 -23 1 -37 -4 -13 -5 -30 -7
-37 -5 -36 13 -74 150 -76 276 -2 74 5 89 22 54 22 -46 50 -181 43 -214 -1 -7
3 -13 9 -13 5 0 10 -10 10 -23 0 -13 6 -31 13 -41 11 -15 17 -17 35 -7 26 14
30 56 8 80 -8 9 -17 39 -20 66 -7 56 -31 170 -41 198 -5 12 -2 17 12 17 13 0
22 -12 31 -42z m102 -73 c2 16 39 -105 48 -156 6 -34 5 -51 -5 -64 -15 -22
-20 -19 -27 17 -2 14 -9 36 -16 48 -6 11 -13 44 -15 73 -2 29 -7 66 -11 82 -6
29 -6 29 10 10 8 -11 16 -15 16 -10z m-386 -37 c-12 -66 -8 -131 10 -167 16
-31 16 -34 0 -52 -22 -24 -89 -42 -131 -36 -40 7 -83 51 -83 86 0 45 19 97 45
121 24 23 141 88 159 89 5 1 5 -18 0 -41z m109 -40 c2 -24 12 -70 20 -103 9
-33 14 -62 11 -64 -8 -8 -57 44 -70 75 -12 29 -11 105 2 126 14 22 32 5 37
-34z m-1011 -10 c-7 -7 -12 -8 -12 -2 0 14 12 26 19 19 2 -3 -1 -11 -7 -17z
m1579 -15 c8 -6 24 -14 36 -17 12 -4 25 -16 28 -27 4 -10 11 -19 16 -19 13 0
11 -37 -2 -46 -7 -4 -9 -22 -4 -51 10 -67 -11 -93 -75 -93 -27 0 -52 5 -55 10
-3 6 -16 10 -28 10 -13 0 -38 13 -56 28 -32 26 -33 30 -23 63 6 18 14 55 18
82 7 51 11 56 58 68 39 9 70 6 87 -8z m-1602 -40 c0 -5 -9 -26 -20 -48 -11
-22 -17 -31 -14 -20 4 11 9 32 12 48 3 15 9 27 14 27 5 0 9 -3 8 -7z m-58
-140 c-10 -27 -21 -57 -25 -67 -3 -10 -8 -17 -11 -15 -5 5 20 81 36 111 18 34
19 18 0 -29z m1127 -62 c27 -20 108 -31 129 -18 33 20 55 -125 28 -186 -30
-72 -109 -123 -171 -111 -50 9 -64 40 -67 142 -2 74 2 95 22 140 14 28 26 52
28 52 2 0 16 -9 31 -19z m340 -11 l22 -29 -32 -24 c-45 -34 -88 -60 -89 -56
-1 2 -3 20 -4 39 -1 19 -5 44 -9 56 -5 16 0 22 21 31 45 18 67 14 91 -17z
m-1565 -165 c-3 -9 -8 -14 -10 -11 -3 3 -2 9 2 15 9 16 15 13 8 -4z m-36 -97
c-3 -8 -6 -5 -6 6 -1 11 2 17 5 13 3 -3 4 -12 1 -19z m1924 -645 c8 -10 23
-34 33 -53 11 -19 32 -50 47 -69 16 -19 27 -36 26 -37 -1 -1 -49 -4 -107 -7
-224 -12 -405 -78 -563 -206 -59 -48 -93 -77 -99 -86 -3 -5 -18 -23 -33 -40
-166 -187 -252 -414 -256 -676 -2 -128 -1 -138 33 -279 17 -71 57 -178 86
-227 60 -103 181 -242 272 -315 61 -48 168 -112 225 -134 26 -9 52 -23 59 -29
6 -6 58 -22 116 -35 182 -42 405 -29 575 35 63 24 169 76 229 112 102 61 271
242 316 338 8 17 19 37 26 45 16 21 44 109 68 218 21 91 22 93 65 119 l43 26
-5 -44 c-10 -73 -55 -232 -84 -295 -28 -61 -101 -179 -137 -222 -45 -54 -175
-174 -241 -223 -109 -83 -317 -179 -431 -199 -32 -5 -109 -15 -170 -21 -101
-9 -121 -8 -251 15 -108 20 -161 35 -227 66 -47 22 -92 40 -100 40 -8 0 -17 4
-21 10 -3 5 -33 23 -65 41 -33 17 -60 36 -60 41 0 5 -8 12 -17 15 -10 4 -26
17 -36 30 -10 13 -23 23 -28 23 -14 0 -149 132 -149 146 0 6 -7 18 -17 25 -19
16 -103 145 -103 158 0 5 -6 16 -13 23 -32 34 -97 232 -117 360 -22 137 3 410
49 526 12 29 21 60 21 70 0 9 9 28 20 42 11 14 20 32 20 41 0 16 80 141 141
221 28 38 158 168 167 168 2 0 13 10 25 23 76 79 349 209 477 227 105 14 176
12 191 -7z m245 -168 c31 -28 26 -44 -9 -27 -12 6 -41 14 -65 17 -35 6 -41 9
-31 21 19 23 75 17 105 -11z m-94 -78 c32 -5 88 -27 88 -35 0 -3 -8 -14 -17
-24 -12 -13 -14 -23 -8 -32 6 -7 38 -55 73 -106 34 -52 70 -98 80 -101 10 -4
33 0 50 8 41 20 83 2 117 -48 31 -47 24 -72 -26 -94 -21 -10 -39 -19 -39 -20
0 -1 5 -17 12 -36 11 -32 17 -42 45 -73 6 -7 26 -40 44 -72 17 -32 40 -66 51
-75 17 -16 23 -16 63 -2 55 18 76 9 104 -50 26 -54 27 -101 2 -133 -22 -28
-17 -64 10 -71 10 -3 24 -18 31 -34 7 -16 16 -29 20 -29 5 0 8 -6 8 -12 0 -20
74 -98 93 -98 10 0 17 -8 17 -18 0 -42 -40 -172 -71 -228 -18 -32 -37 -68 -43
-79 -13 -24 -78 -103 -122 -149 -90 -93 -219 -175 -344 -218 -118 -41 -200
-53 -355 -53 -149 0 -245 24 -395 98 -105 52 -240 148 -240 171 0 3 -18 22
-40 42 -34 31 -134 173 -135 193 -1 3 -13 31 -27 62 -87 187 -102 498 -32 685
14 38 30 82 36 98 6 17 24 49 40 72 15 23 28 46 28 51 0 4 11 20 25 35 14 15
25 31 25 36 0 15 153 156 210 193 169 111 325 159 495 154 55 -2 112 -6 127
-8z"/>
<path d="M3850 4377 c-19 -13 -51 -32 -70 -43 -19 -10 -49 -30 -66 -44 -38
-30 -96 -64 -106 -62 -5 1 -8 -2 -8 -7 0 -12 -157 -115 -206 -136 -21 -9 -41
-19 -44 -24 -6 -9 -152 -108 -245 -165 -33 -20 -78 -50 -100 -65 -84 -60 -281
-184 -292 -184 -7 0 -14 -6 -17 -14 -3 -7 -12 -13 -21 -13 -8 0 -15 -4 -15 -9
0 -5 -8 -11 -17 -15 -17 -5 -40 -19 -67 -39 -50 -36 -348 -227 -355 -227 -5 0
-11 -3 -13 -7 -1 -5 -19 -20 -39 -35 -30 -22 -38 -36 -48 -84 -11 -57 -11 -58
18 -88 16 -17 48 -60 70 -96 99 -158 167 -265 315 -486 135 -203 156 -236 156
-244 0 -5 10 -21 23 -37 12 -15 31 -45 42 -66 11 -21 28 -47 38 -57 9 -11 17
-23 17 -27 0 -5 19 -33 41 -63 41 -55 132 -196 158 -247 16 -30 50 -62 67 -63
6 0 9 -12 6 -29 -4 -27 0 -32 58 -60 58 -29 65 -30 103 -19 24 7 61 31 88 58
25 25 75 62 110 83 145 87 174 105 202 127 36 29 166 110 177 110 4 0 23 12
43 28 92 69 125 92 153 104 16 7 36 19 44 26 35 30 206 145 282 189 46 26 112
68 149 93 77 53 105 70 119 70 5 0 37 19 70 42 34 24 69 48 78 53 9 6 35 22
57 36 22 15 62 36 89 49 53 24 85 55 86 82 0 9 6 18 13 21 20 7 -7 42 -34 42
-19 0 -24 5 -24 25 0 15 -9 30 -22 38 -13 7 -23 22 -23 35 0 26 -13 49 -26 47
-9 -1 -17 9 -125 172 -40 60 -67 92 -71 85 -5 -8 -8 -4 -8 10 0 12 -7 28 -15
37 -8 8 -15 19 -15 24 0 5 -9 17 -21 28 -12 10 -28 36 -36 57 -8 20 -21 37
-29 37 -8 0 -14 6 -14 13 0 12 -40 98 -50 107 -15 13 -50 69 -50 79 0 6 -21
41 -48 78 -26 38 -54 82 -62 98 -8 17 -18 32 -21 35 -9 8 -105 168 -139 232
-16 31 -34 60 -40 63 -6 4 -22 30 -36 58 -44 92 -92 162 -111 163 -10 1 -26 2
-35 3 -11 1 -18 9 -18 21 0 27 -27 26 -70 -3z m105 -297 c27 -30 125 -176 125
-186 0 -4 9 -17 19 -28 11 -12 39 -57 62 -101 24 -44 51 -89 61 -99 10 -11 18
-24 18 -29 0 -4 6 -14 13 -22 29 -31 47 -56 47 -67 0 -7 12 -25 27 -40 15 -16
41 -53 58 -82 16 -29 44 -73 60 -98 17 -26 39 -61 50 -80 11 -18 27 -44 35
-58 9 -14 29 -47 45 -75 16 -27 46 -73 67 -102 21 -29 38 -59 38 -67 0 -8 3
-16 8 -18 4 -1 22 -25 39 -52 l32 -48 -35 -24 c-19 -13 -37 -24 -41 -24 -6 0
-139 -88 -204 -136 -26 -19 -51 -34 -57 -34 -5 0 -38 -21 -73 -47 -83 -62
-129 -93 -135 -93 -3 0 -32 -20 -64 -45 -32 -25 -61 -45 -65 -45 -3 0 -11 -4
-18 -10 -31 -25 -289 -190 -297 -190 -6 0 -10 -4 -10 -8 0 -4 -15 -16 -32 -26
-80 -46 -251 -154 -338 -213 -69 -46 -102 -62 -120 -60 -14 2 -45 -2 -70 -9
-25 -8 -52 -14 -61 -14 -13 0 -72 73 -104 132 -50 90 -146 241 -186 294 -27
36 -49 67 -49 70 0 3 -8 17 -18 32 -11 15 -32 47 -48 72 -16 25 -31 47 -34 50
-15 15 -111 163 -139 215 -18 33 -40 68 -49 78 -8 9 -20 26 -26 36 -17 29
-173 264 -191 286 -8 10 -15 22 -15 26 0 10 43 43 135 102 44 29 92 60 105 70
67 48 229 152 265 169 69 34 91 47 117 70 28 25 49 40 92 64 16 9 38 25 49 35
12 10 24 19 28 19 5 0 28 14 52 30 25 17 49 30 55 30 5 0 27 14 48 31 22 17
48 35 59 40 25 11 55 30 73 47 7 7 17 10 22 7 4 -3 10 2 14 10 3 8 12 15 20
15 8 0 16 3 18 8 2 4 57 42 123 84 66 43 125 82 132 88 6 5 29 19 50 31 21 11
62 36 92 54 l54 34 24 -37 c14 -20 35 -48 48 -62z"/>
<path d="M3818 3530 c-10 -6 -18 -19 -18 -29 0 -10 -2 -20 -5 -23 -3 -2 -37 6
-77 20 -39 13 -92 24 -117 24 -68 1 -155 -7 -170 -16 -6 -4 -19 -2 -27 5 -12
9 -23 9 -54 -1 -22 -7 -45 -19 -51 -27 -6 -7 -15 -13 -20 -13 -15 0 -99 -98
-99 -116 0 -4 -15 -30 -33 -58 -51 -79 -98 -220 -82 -246 3 -5 -5 -15 -19 -22
-14 -6 -26 -16 -26 -21 0 -6 -6 -18 -14 -26 -18 -21 -34 -91 -27 -117 12 -45
110 -151 149 -161 12 -3 29 -18 37 -33 8 -15 34 -42 59 -61 l46 -34 -6 -60
c-6 -56 -6 -83 1 -160 4 -43 30 -148 44 -173 6 -12 10 -22 7 -22 -3 0 -1 -13
5 -28 8 -23 15 -28 38 -27 15 1 33 5 39 9 21 13 13 53 -18 86 -16 18 -30 43
-30 55 0 13 -4 35 -10 50 -16 42 -16 176 1 206 l14 26 65 -14 c118 -25 237 2
321 74 28 24 64 50 78 58 60 31 153 153 165 216 20 109 22 113 46 84 8 -10 25
-13 58 -9 42 4 58 -2 143 -46 88 -45 124 -76 131 -112 4 -17 31 -28 56 -21 65
16 3 131 -93 173 -22 10 -75 34 -118 54 -101 47 -167 50 -185 9 l-11 -28 3 34
c4 47 -11 120 -33 165 -19 37 -19 38 1 58 13 13 18 28 15 44 -2 14 -1 26 2 29
4 2 8 23 10 46 2 41 -21 104 -44 121 -5 4 -6 8 -2 8 5 0 -5 12 -22 26 -34 29
-96 41 -123 24z m-379 -99 c14 -10 31 -17 39 -14 7 3 24 0 37 -7 28 -15 109
-124 122 -165 7 -22 17 -31 36 -33 21 -3 28 2 33 24 4 15 2 35 -5 45 -6 10
-11 25 -11 33 0 8 -3 16 -7 18 -10 4 -83 99 -83 107 0 4 18 5 40 3 22 -2 40
-8 40 -14 0 -5 4 -6 10 -3 13 8 70 -22 95 -50 36 -40 70 -85 70 -93 1 -4 11
-26 23 -49 12 -24 20 -43 16 -43 -3 0 4 -15 15 -33 24 -40 39 -160 22 -180 -6
-8 -8 -16 -5 -19 3 -4 -2 -20 -10 -37 -9 -17 -16 -33 -16 -36 0 -3 0 -11 0
-19 0 -22 -87 -114 -144 -152 -28 -18 -69 -47 -90 -64 -21 -16 -46 -30 -55
-30 -9 0 -34 -7 -56 -14 -34 -12 -52 -12 -115 -1 -41 7 -87 18 -101 23 -37 14
-96 68 -128 116 -60 90 -64 100 -69 181 -9 140 0 210 36 283 17 33 23 37 36
25 3 -4 13 -8 21 -9 19 -3 120 -61 133 -77 6 -7 15 -32 21 -56 11 -50 22 -60
58 -53 22 4 25 9 20 37 -11 66 -44 119 -101 160 -31 22 -56 42 -56 46 0 7 -50
23 -62 21 -13 -3 -9 11 15 52 28 49 40 53 56 22 9 -16 19 -22 32 -19 31 8 140
-110 169 -183 13 -32 24 -60 25 -62 1 -1 15 2 30 8 25 10 27 14 22 52 -3 22
-10 44 -15 47 -5 3 -19 25 -30 48 -26 50 -136 163 -160 163 -14 0 -15 2 -2 10
20 13 21 13 49 -9z m466 -8 c23 -27 35 -93 17 -93 -8 0 -35 28 -71 73 -16 20
-8 47 14 47 9 0 27 -12 40 -27z m-833 -542 c2 -17 1 -28 -4 -25 -8 5 -12 54
-4 54 2 0 6 -13 8 -29z"/>
<path d="M3742 3085 c-15 -32 -6 -54 24 -61 46 -12 77 52 36 74 -35 18 -47 15
-60 -13z"/>
<path d="M3670 2955 c-13 -20 -30 -35 -41 -35 -13 0 -19 -7 -19 -24 0 -13 -3
-33 -7 -43 -3 -10 -3 -15 2 -11 4 4 14 3 21 -3 15 -13 59 8 94 44 32 33 35 93
5 101 -31 9 -32 8 -55 -29z"/>
<path d="M3786 2912 c-9 -9 -28 -31 -43 -48 -16 -16 -48 -39 -73 -49 -25 -10
-50 -23 -56 -27 -21 -15 -23 -48 -4 -71 l18 -22 59 29 c110 55 184 123 177
164 -1 6 -2 18 -3 25 -2 20 -56 19 -75 -1z"/>
<path d="M3411 2891 c-20 -13 -6 -78 19 -86 40 -13 78 53 48 83 -14 14 -47 15
-67 3z"/>
<path d="M2312 2003 c-12 -2 -29 -16 -36 -31 -8 -15 -24 -34 -35 -42 -12 -8
-21 -18 -21 -23 0 -5 -8 -21 -19 -35 -48 -69 -55 -182 -10 -182 24 0 43 31 64
104 9 33 28 72 43 87 25 27 30 28 84 23 56 -6 57 -5 64 22 4 15 3 38 -2 52 -8
21 -16 25 -59 27 -27 1 -60 1 -73 -2z"/>
<path d="M2378 1813 c-22 -6 -25 -75 -4 -92 26 -22 76 8 76 46 0 19 -35 55
-50 52 -3 -1 -13 -3 -22 -6z"/>
<path d="M1836 1572 c-3 -5 -38 -14 -78 -22 -40 -7 -80 -18 -89 -24 -31 -21
-119 -140 -145 -193 -26 -57 -25 -88 5 -96 28 -7 52 18 62 64 6 24 24 59 43
79 18 21 37 44 42 53 6 11 38 21 93 31 100 17 131 39 115 83 -9 28 -37 42 -48
25z"/>
<path d="M1790 1330 c-21 -5 -25 -12 -23 -39 2 -42 15 -55 48 -47 30 8 40 26
31 60 -7 28 -22 35 -56 26z"/>
<path d="M2338 1333 c-9 -2 -19 -17 -23 -33 -7 -32 -28 -53 -77 -79 -23 -13
-34 -27 -36 -46 -5 -36 11 -45 62 -33 48 11 86 44 117 103 21 39 22 46 9 69
-13 26 -19 28 -52 19z"/>
<path d="M2707 1273 c-4 -3 -7 -13 -7 -22 0 -9 -6 -27 -14 -41 -7 -14 -24 -46
-38 -71 -27 -50 -78 -122 -90 -127 -5 -2 -8 -10 -8 -18 0 -8 -3 -14 -8 -14 -4
0 -25 -16 -47 -35 -89 -77 -231 -121 -309 -95 -47 15 -78 -1 -74 -38 8 -72
169 -77 328 -9 102 44 238 186 308 323 57 109 56 154 -2 154 -18 0 -36 -3 -39
-7z"/>
</g>
</svg>
