<?xml version="1.0" standalone="no"?>
<!DOCTYPE svg PUBLIC "-//W3C//DTD SVG 20010904//EN"
 "http://www.w3.org/TR/2001/REC-SVG-20010904/DTD/svg10.dtd">
<svg version="1.0" xmlns="http://www.w3.org/2000/svg"
 width="533.000000pt" height="447.000000pt" viewBox="0 0 533.000000 447.000000"
 preserveAspectRatio="xMidYMid meet">
<metadata>
Created by potrace 1.16, written by Peter Selinger 2001-2019
</metadata>
<g transform="translate(0.000000,447.000000) scale(0.100000,-0.100000)"
fill="#000000" stroke="none">
<path d="M5159 4185 c-2 -2 -45 -6 -96 -9 -135 -8 -298 -57 -543 -162 -176
-76 -286 -133 -341 -176 -26 -21 -52 -38 -58 -38 -5 0 -18 -8 -28 -18 -10 -11
-38 -30 -63 -43 -25 -13 -60 -37 -78 -54 -19 -16 -42 -34 -52 -40 -9 -5 -48
-39 -86 -74 -38 -35 -85 -74 -105 -87 -46 -28 -204 -184 -250 -244 -19 -24
-41 -52 -49 -60 -8 -9 -31 -36 -50 -60 -19 -24 -42 -51 -51 -59 -9 -9 -20 -26
-23 -38 -4 -13 -12 -23 -17 -23 -5 0 -9 -7 -9 -15 0 -8 -4 -15 -10 -15 -5 0
-10 -4 -10 -9 0 -14 -52 -91 -62 -91 -4 0 -7 -3 -6 -7 2 -5 -8 -30 -20 -58
-92 -201 -95 -209 -90 -252 3 -21 1 -48 -3 -61 -7 -17 -5 -24 6 -28 8 -4 90
-7 183 -9 297 -4 323 -5 318 -13 -4 -7 -79 -12 -221 -14 -16 -1 -54 2 -84 5
-29 3 -96 7 -149 8 l-95 2 -23 -49 c-13 -27 -35 -62 -50 -77 -14 -16 -35 -54
-46 -85 -20 -58 -119 -197 -200 -284 -16 -16 -28 -32 -28 -37 0 -4 -11 -17
-25 -27 -14 -10 -25 -24 -25 -30 0 -6 -10 -20 -22 -32 -13 -12 -34 -35 -48
-52 -14 -16 -30 -30 -36 -30 -6 0 -19 -9 -29 -20 -10 -11 -22 -20 -28 -20 -5
0 -21 -8 -35 -19 -42 -29 -116 -25 -152 9 -51 47 -56 95 -24 245 35 170 36
177 22 187 -7 4 -24 7 -37 6 -20 -3 -26 4 -36 40 -12 40 -55 107 -79 124 -7 5
-7 8 -1 8 33 1 -212 115 -308 144 -211 62 -200 60 -386 58 -224 -3 -281 -6
-281 -12 0 -3 -17 -5 -37 -5 -51 -1 -164 -15 -238 -30 -44 -9 -62 -9 -67 -1
-5 8 -8 7 -8 -1 0 -7 -11 -13 -25 -13 -14 0 -25 -4 -25 -9 0 -4 -25 -11 -56
-15 -53 -6 -100 -23 -186 -67 -34 -17 -58 -35 -124 -94 -12 -12 -26 -38 -30
-59 -4 -22 -20 -58 -35 -81 -24 -36 -27 -47 -20 -71 6 -16 13 -85 17 -154 4
-69 9 -145 11 -170 2 -25 8 -124 12 -220 7 -177 16 -221 61 -310 10 -19 21
-51 25 -70 6 -29 39 -99 83 -180 5 -8 23 -44 40 -80 18 -36 54 -87 80 -115 53
-54 162 -151 197 -175 116 -78 151 -100 161 -100 7 0 39 -15 71 -33 49 -28 90
-45 123 -51 3 -1 11 -5 18 -9 6 -5 12 -6 12 -2 0 3 17 -2 37 -11 58 -24 279
-37 348 -21 11 3 40 8 65 12 25 4 54 10 65 12 31 8 61 11 190 22 157 13 253
34 323 71 31 17 98 50 147 73 163 78 278 157 366 252 63 68 207 243 287 349
29 39 60 79 68 89 8 9 14 21 14 26 0 5 7 16 15 24 8 8 24 35 37 61 13 25 56
100 96 166 68 112 162 289 162 305 0 7 54 134 75 175 7 14 30 59 52 100 22 41
59 109 81 150 22 41 43 97 47 123 6 42 4 51 -15 67 l-22 19 24 6 c18 5 24 14
26 36 1 17 13 47 25 67 13 20 29 51 36 69 7 17 21 39 32 49 10 9 19 22 19 28
0 6 13 27 28 46 16 19 31 42 35 50 4 8 18 33 31 55 14 22 33 56 43 75 18 37
117 170 168 226 17 18 50 57 75 88 25 30 48 55 52 56 4 0 28 20 54 45 25 25
52 45 60 45 7 0 18 9 24 19 5 11 19 23 30 26 11 3 20 12 20 18 1 16 35 57 48
57 5 0 12 7 16 15 3 8 26 24 51 36 25 12 45 25 45 29 0 5 10 12 22 16 13 4 39
19 58 35 19 15 60 35 90 46 30 10 57 20 60 23 3 4 28 13 55 23 83 27 139 47
160 57 11 5 40 12 65 16 54 8 80 23 80 46 0 9 4 19 9 22 5 4 12 45 16 94 3 48
12 107 19 132 11 41 11 47 -8 66 -24 24 -41 35 -47 29z m-33 -135 c-3 -23 -9
-68 -13 -101 -4 -42 -10 -59 -20 -59 -8 0 -52 -13 -99 -30 -46 -16 -84 -27
-84 -23 0 3 -6 1 -12 -5 -16 -12 -154 -62 -184 -66 -12 -2 -34 -15 -48 -30
-15 -14 -32 -26 -38 -26 -6 0 -26 -11 -44 -25 -18 -14 -35 -25 -37 -25 -12 0
-121 -71 -141 -92 -12 -13 -31 -31 -42 -40 -10 -9 -37 -38 -59 -63 -22 -25
-43 -45 -46 -45 -9 0 -89 -82 -131 -133 -18 -22 -50 -57 -70 -78 -20 -21 -50
-57 -65 -81 -15 -23 -39 -54 -53 -68 -14 -14 -36 -46 -50 -72 -13 -27 -28 -48
-32 -48 -5 0 -8 -4 -8 -9 0 -15 -130 -226 -150 -243 -11 -9 -20 -23 -20 -31 0
-8 -8 -25 -19 -38 -10 -13 -21 -34 -25 -45 -9 -29 -29 -33 -120 -24 -41 4 -88
6 -103 4 -16 -2 -46 -4 -68 -3 -22 0 -64 0 -92 -1 -35 0 -53 3 -53 11 0 9 -3
9 -14 0 -22 -19 -36 14 -24 58 9 35 85 206 101 226 21 28 57 87 57 94 0 8 40
60 168 216 81 100 204 222 297 296 44 34 85 68 90 75 13 17 147 114 157 114 7
0 36 21 63 48 8 6 16 12 19 12 8 0 120 72 126 81 3 5 22 15 43 24 20 8 37 20
37 25 0 6 5 10 12 10 6 0 39 13 72 29 57 27 94 43 106 45 3 1 31 14 64 29 32
15 64 27 72 27 7 0 15 4 18 9 3 4 26 14 51 21 25 7 48 17 51 21 3 5 13 9 23 9
10 0 47 9 82 21 35 11 88 22 117 24 30 2 55 5 58 7 2 2 22 5 45 7 l42 2 -7
-41z m-1911 -1705 c130 -9 124 -9 247 -3 53 3 102 1 110 -3 10 -6 -12 -58 -94
-221 -97 -192 -148 -306 -154 -348 -2 -8 -8 -16 -13 -18 -6 -2 -11 -9 -11 -15
0 -11 -35 -72 -144 -252 -34 -55 -68 -113 -76 -130 -8 -16 -17 -32 -21 -35 -3
-3 -16 -23 -29 -45 -21 -36 -61 -88 -227 -293 -169 -209 -288 -293 -628 -447
-73 -33 -178 -55 -265 -55 -36 0 -144 -14 -240 -32 -169 -30 -179 -31 -285
-20 -60 6 -135 20 -165 31 -83 29 -306 141 -320 160 -3 4 -21 18 -41 32 -59
40 -167 141 -197 184 -15 22 -33 44 -39 48 -7 4 -13 13 -13 20 0 7 -21 52 -46
102 -26 49 -57 124 -71 167 -13 43 -28 80 -34 83 -5 4 -9 14 -9 24 0 10 -8 33
-17 52 -14 27 -18 64 -19 179 -1 80 -7 201 -13 270 -12 118 -14 190 -7 198 2
1 41 -22 86 -53 46 -30 91 -55 102 -55 10 0 18 -4 18 -8 0 -4 19 -9 43 -11 23
-1 67 -8 97 -16 99 -25 181 -36 294 -41 61 -3 127 -7 146 -9 69 -9 544 -4 619
6 42 6 92 17 111 26 78 33 195 94 217 113 20 17 24 12 19 -22 -16 -116 -17
-143 -5 -186 12 -45 32 -85 54 -108 6 -6 35 -19 64 -29 64 -21 137 -16 188 15
19 11 40 20 46 20 7 0 18 9 25 21 8 12 19 18 28 15 8 -3 14 0 14 7 1 7 19 26
40 42 21 17 39 36 40 43 0 6 4 12 9 12 4 0 20 17 33 38 14 20 37 50 52 65 14
15 37 44 50 63 12 19 41 54 62 77 21 23 48 58 58 77 11 19 28 41 38 48 10 7
18 19 18 25 0 7 9 23 20 37 11 14 20 33 20 43 0 9 5 17 10 17 6 0 10 9 10 21
0 22 64 94 77 86 5 -3 58 -8 118 -12z m-2318 -441 c-3 -3 -12 -4 -19 -1 -8 3
-5 6 6 6 11 1 17 -2 13 -5z m420 -30 c-3 -3 -12 -4 -19 -1 -8 3 -5 6 6 6 11 1
17 -2 13 -5z"/>
</g>
</svg>
