<?xml version="1.0" standalone="no"?>
<!DOCTYPE svg PUBLIC "-//W3C//DTD SVG 20010904//EN"
 "http://www.w3.org/TR/2001/REC-SVG-20010904/DTD/svg10.dtd">
<svg version="1.0" xmlns="http://www.w3.org/2000/svg"
 width="547.000000pt" height="463.000000pt" viewBox="0 0 547.000000 463.000000"
 preserveAspectRatio="xMidYMid meet">
<metadata>
Created by potrace 1.16, written by Peter Selinger 2001-2019
</metadata>
<g transform="translate(0.000000,463.000000) scale(0.100000,-0.100000)"
fill="#000000" stroke="none">
<path d="M3892 4378 c-29 -10 -102 -80 -127 -123 -9 -15 -12 -15 -37 4 -14 11
-34 22 -44 24 -11 1 -24 5 -29 9 -6 3 -28 0 -50 -8 -56 -19 -136 -111 -166
-191 -23 -62 -24 -63 -61 -63 -64 0 -101 -22 -123 -71 -11 -24 -22 -46 -25
-49 -15 -12 -21 -51 -21 -136 0 -50 3 -97 6 -105 4 -10 -6 -19 -30 -29 -64
-25 -117 -105 -109 -165 4 -32 35 -169 39 -173 2 -2 -9 -15 -24 -28 -67 -56
-79 -146 -32 -248 23 -51 38 -70 73 -92 23 -15 46 -31 49 -37 4 -5 10 -44 15
-86 4 -42 8 -83 10 -91 18 -110 27 -338 22 -585 -1 -93 -20 -210 -36 -224 -20
-18 -24 -48 -11 -72 13 -24 -18 -33 -47 -14 -35 22 -63 19 -76 -10 -14 -30
-23 -31 -45 -5 -10 11 -23 20 -30 20 -8 0 -19 11 -25 25 -11 24 -33 31 -83 25
-49 -6 -61 -6 -78 3 -10 4 -44 10 -75 12 -109 8 -176 15 -191 19 -9 3 -36 7
-61 10 -25 3 -58 9 -75 14 -16 5 -47 8 -68 7 -21 -1 -40 2 -43 6 -3 5 -15 9
-28 9 -18 0 -26 10 -41 53 -10 28 -17 52 -14 52 2 0 -6 14 -18 30 -17 25 -28
31 -60 30 -64 0 -87 41 -97 178 -2 38 -10 75 -17 83 -13 16 -12 20 17 31 24
10 95 88 116 128 32 60 68 153 68 173 0 12 5 24 10 27 6 3 10 13 10 21 0 9 11
30 25 48 14 18 25 35 25 38 0 3 16 22 34 43 19 21 47 63 61 94 15 31 39 76 54
101 56 94 93 195 93 252 -1 21 -26 75 -52 108 -16 21 -27 25 -72 25 -29 0 -72
-4 -94 -8 l-42 -8 -5 68 c-3 37 -7 75 -10 83 -2 8 -7 29 -11 45 -4 17 -12 50
-18 75 -6 25 -22 69 -34 98 -13 29 -24 55 -24 59 0 16 -54 113 -71 129 -10 9
-19 22 -19 28 0 16 -95 88 -158 120 -120 61 -277 64 -338 8 -10 -10 -48 -35
-83 -56 -35 -22 -76 -52 -91 -68 -15 -15 -31 -28 -36 -28 -17 0 -117 -108
-144 -154 -14 -24 -40 -70 -58 -101 -29 -50 -79 -184 -96 -258 -6 -26 -9 -27
-51 -22 -31 4 -55 1 -77 -11 -39 -19 -88 -63 -88 -78 0 -6 -7 -24 -15 -40 -18
-35 -23 -143 -7 -172 6 -12 11 -38 10 -57 -1 -27 7 -45 30 -72 18 -20 32 -40
32 -45 0 -5 38 -47 85 -93 47 -46 82 -87 78 -90 -3 -4 -1 -13 5 -20 7 -7 21
-45 33 -83 11 -38 25 -73 30 -78 5 -6 9 -16 9 -24 0 -35 40 -93 111 -162 56
-54 75 -79 70 -90 -4 -8 -14 -41 -21 -72 -7 -32 -17 -58 -22 -58 -4 0 -8 -9
-8 -20 0 -11 -4 -28 -10 -38 -5 -9 -16 -34 -25 -54 -20 -45 -40 -54 -74 -31
-46 31 -101 -2 -122 -73 -20 -66 -58 -83 -214 -98 -17 -1 -36 -5 -42 -9 -7 -4
-15 -3 -18 3 -5 8 -11 8 -19 1 -7 -6 -42 -15 -77 -20 -36 -5 -103 -21 -149
-35 -74 -24 -85 -25 -92 -11 -12 21 -25 19 -33 -5 -3 -11 -9 -19 -13 -17 -16
5 -63 -50 -88 -102 -14 -31 -35 -72 -45 -92 -11 -20 -19 -48 -19 -62 0 -14 -5
-29 -10 -32 -6 -4 -8 -10 -5 -15 3 -5 1 -11 -5 -15 -5 -3 -10 -16 -10 -28 1
-20 -8 -197 -14 -277 -1 -19 -5 -46 -9 -60 -8 -27 -16 -97 -21 -175 -5 -78
-16 -157 -24 -169 -3 -6 -7 -101 -8 -211 -2 -191 -8 -309 -19 -367 -3 -15 -1
-30 5 -33 7 -4 7 -13 0 -26 -6 -10 -7 -19 -3 -19 4 0 0 -5 -10 -11 -13 -8 -17
-18 -13 -35 14 -53 75 -83 187 -91 35 -2 724 -6 1530 -9 1335 -5 1467 -4 1479
11 15 18 16 42 6 135 -4 36 -9 126 -11 200 -3 128 -12 327 -20 452 -2 31 -8
74 -13 95 -6 21 -10 45 -10 53 0 95 -41 430 -53 430 -5 0 -9 10 -9 23 0 13 -3
26 -6 30 -3 3 -8 27 -10 53 -2 25 -9 53 -15 60 -6 8 -9 14 -7 14 3 0 -5 29
-17 65 -15 43 -20 67 -13 72 17 9 108 15 109 6 5 -66 11 -80 46 -111 21 -19
47 -32 63 -32 38 0 40 -6 19 -55 -28 -64 -23 -146 12 -187 35 -43 80 -57 144
-45 27 5 65 16 83 24 18 9 35 14 37 11 3 -2 6 -21 7 -41 2 -20 6 -37 10 -37 3
0 10 -13 16 -28 24 -70 158 -83 233 -23 22 18 41 31 42 30 1 -2 8 -14 15 -26
6 -13 12 -30 12 -40 0 -9 3 -13 7 -10 3 4 11 3 17 -2 31 -24 87 -33 136 -21
28 7 50 16 50 21 0 4 15 24 34 42 18 19 40 50 47 70 15 42 11 40 61 27 101
-28 173 40 181 171 3 47 2 46 79 52 30 2 78 65 78 102 0 11 7 33 15 49 8 15
15 39 15 52 0 23 2 23 68 18 141 -11 162 -18 221 -71 32 -29 56 -61 68 -91 9
-26 20 -49 23 -52 4 -3 15 -39 25 -80 9 -41 26 -104 36 -140 27 -94 30 -153
34 -665 3 -427 7 -515 24 -515 28 0 81 24 85 38 2 9 3 69 1 132 -2 63 -6 270
-10 459 -3 189 -7 347 -10 351 -2 4 -7 49 -11 101 -4 52 -10 101 -14 109 -5 8
-16 57 -25 108 -9 50 -21 95 -26 98 -5 3 -9 16 -9 29 0 13 -4 26 -9 29 -4 3
-14 26 -21 51 -7 25 -17 45 -21 45 -5 0 -9 6 -9 14 0 8 -21 32 -47 53 -27 21
-50 41 -53 44 -3 3 -22 14 -42 24 -21 9 -38 21 -38 25 0 5 -8 6 -19 3 -11 -3
-21 2 -25 13 -6 15 -9 16 -16 4 -8 -13 -9 -12 -13 0 -2 8 -10 32 -16 52 -7 21
-18 81 -26 135 -8 54 -19 123 -26 153 -6 30 -13 78 -16 105 -2 28 -9 88 -14
135 -5 47 -11 156 -13 242 -3 131 -2 156 10 151 8 -3 14 -10 14 -15 0 -6 5 -6
14 1 8 6 18 11 22 10 5 -2 28 3 52 10 23 6 47 9 52 6 6 -3 10 1 10 9 0 9 6 16
13 16 20 0 65 81 72 130 15 110 7 209 -22 266 -16 30 -15 32 16 78 18 25 30
46 27 46 -2 0 -1 13 4 30 5 16 5 32 1 35 -5 2 -11 30 -15 61 -8 72 -30 118
-63 133 -21 10 -24 16 -20 40 5 25 -1 87 -17 168 -4 21 -24 46 -107 133 -35
36 -67 105 -55 117 5 6 -25 55 -50 80 -10 11 -48 30 -74 38 -3 1 -16 7 -30 14
-21 10 -34 9 -70 -4 -78 -29 -90 -30 -90 -8 0 11 -11 36 -24 56 -13 19 -22 38
-18 41 3 3 -1 6 -10 6 -8 0 -23 9 -34 21 -25 28 -82 21 -131 -17 l-36 -27 -26
29 c-29 32 -78 67 -101 71 -56 10 -120 10 -148 1z m160 -134 c25 -23 48 -67
48 -92 0 -10 9 -29 19 -41 16 -18 23 -20 39 -12 11 6 22 8 24 5 7 -6 25 17 30
36 3 16 57 70 69 70 4 0 14 -17 22 -37 12 -32 13 -42 2 -63 -11 -22 -10 -31 6
-68 15 -31 25 -42 37 -38 9 2 32 7 50 11 17 4 32 10 32 14 0 11 70 56 99 64
53 13 111 -35 111 -93 0 -32 -4 -40 -18 -40 -23 0 -52 -35 -52 -63 1 -44 50
-78 87 -59 71 37 68 37 107 -4 40 -43 49 -66 44 -114 -3 -27 -9 -34 -43 -46
-49 -16 -78 -49 -69 -78 10 -35 21 -40 82 -41 66 0 109 -24 117 -65 3 -14 8
-39 11 -55 4 -23 -1 -41 -22 -73 -23 -35 -32 -41 -59 -40 -35 1 -75 -27 -75
-55 0 -23 30 -68 40 -62 5 3 11 1 14 -3 3 -5 16 -7 30 -5 29 6 50 -25 52 -77
1 -19 3 -53 4 -75 2 -24 -5 -56 -16 -80 l-19 -40 -61 0 -61 0 0 35 c0 39 -8
84 -18 100 -11 18 -72 12 -77 -8 -21 -78 -12 -606 12 -772 5 -36 13 -92 16
-125 8 -83 9 -89 16 -100 3 -6 6 -31 6 -56 1 -25 6 -67 12 -94 6 -26 9 -50 6
-52 -3 -3 -29 -2 -58 3 -29 4 -57 7 -61 6 -5 -1 -21 7 -37 18 -15 11 -40 20
-54 20 -14 0 -35 9 -46 20 -11 11 -23 20 -27 20 -28 1 -144 142 -150 183 -2
12 -8 24 -12 27 -5 3 -12 30 -15 60 -3 30 -9 71 -15 90 -5 19 -12 49 -14 67
-5 28 -2 33 24 42 29 10 144 124 144 142 0 4 7 16 15 26 16 19 39 77 60 153 7
25 16 54 20 65 15 36 21 69 26 135 2 36 8 77 12 92 9 35 -2 271 -16 323 -6 22
-16 67 -23 100 -14 70 -98 246 -140 295 -61 71 -124 131 -158 152 -20 12 -45
29 -57 40 -24 21 -58 27 -171 33 -61 2 -85 0 -93 -11 -7 -7 -28 -16 -49 -20
-60 -10 -70 -14 -76 -35 -4 -10 -11 -19 -17 -19 -11 0 -68 -51 -68 -61 0 -4
-22 -29 -50 -57 -27 -28 -50 -53 -50 -56 0 -3 -16 -31 -35 -64 -19 -32 -44
-85 -55 -118 -12 -32 -25 -67 -31 -76 -5 -10 -9 -31 -9 -47 0 -16 -4 -41 -9
-54 -18 -47 -38 -250 -34 -342 6 -120 28 -239 54 -287 5 -10 9 -26 9 -37 0
-25 39 -112 59 -132 9 -9 40 -42 70 -73 29 -31 59 -56 65 -56 7 0 22 -9 35
-21 20 -19 22 -28 18 -107 -3 -48 -6 -94 -8 -102 -8 -28 -56 -105 -67 -106 -7
-1 -17 -2 -23 -3 -6 0 -8 -8 -5 -17 3 -8 2 -12 -4 -9 -6 3 -10 -1 -10 -10 0
-40 -128 -140 -219 -172 -39 -14 -54 -9 -47 15 15 49 26 206 25 367 0 191 -7
394 -12 403 -3 4 -7 46 -8 92 -1 46 -6 100 -11 119 -10 38 -15 66 -17 92 0 9
-26 29 -57 45 -54 28 -71 50 -89 111 -4 14 0 34 10 51 14 24 23 28 63 28 66 0
82 8 82 42 0 28 -8 39 -61 85 -28 25 -55 126 -44 169 8 32 75 64 103 49 27
-15 32 -14 68 8 30 18 31 21 21 54 -6 18 -20 38 -31 43 -47 21 -50 197 -3 261
12 17 77 4 109 -23 34 -28 64 -22 84 19 15 28 15 33 0 64 -22 45 -7 102 41
161 46 57 82 58 133 4 42 -46 90 -60 114 -33 9 10 16 25 16 34 0 9 4 18 10 22
5 3 7 12 3 20 -3 8 0 15 6 15 6 0 11 9 11 20 0 11 8 24 18 27 9 4 21 13 25 21
13 20 112 10 139 -14z m-2236 -370 c-4 -9 0 -26 7 -38 7 -12 24 -50 36 -86 13
-36 32 -83 42 -106 11 -22 19 -43 19 -47 0 -4 7 -15 15 -24 45 -53 75 -92 75
-99 1 -14 109 -84 131 -84 16 0 19 -8 20 -57 1 -143 -4 -290 -15 -363 -2 -19
-7 -60 -11 -90 -7 -60 -17 -99 -48 -175 -38 -95 -52 -117 -97 -154 -25 -20
-51 -41 -58 -48 -6 -6 -21 -14 -31 -18 -11 -3 -22 -12 -25 -20 -3 -8 -22 -17
-43 -20 -21 -4 -54 -12 -73 -20 -19 -7 -71 -12 -115 -13 -83 0 -130 13 -196
54 -20 13 -39 21 -41 18 -3 -2 -11 2 -18 11 -7 8 -18 15 -25 15 -7 0 -21 12
-31 27 -10 16 -30 41 -45 57 -15 16 -30 43 -33 59 -3 17 -12 37 -18 45 -14 16
-37 88 -45 142 -3 19 -9 40 -13 45 -16 22 -53 236 -46 270 2 11 7 64 11 117 4
54 12 95 16 92 5 -3 12 2 15 11 5 13 9 14 15 4 6 -10 13 -10 34 -1 14 7 41 12
60 12 19 0 36 3 39 8 5 9 116 65 164 82 17 7 32 16 32 21 0 5 4 9 10 9 21 0
96 71 158 149 43 55 112 187 112 216 0 8 5 15 11 15 6 0 8 -7 5 -16z m2186
-211 c5 -7 7 -16 4 -21 -11 -18 52 -153 109 -234 8 -13 15 -30 15 -40 0 -10 6
-18 14 -18 8 0 16 -10 20 -22 6 -24 71 -98 86 -98 5 0 12 -9 15 -20 3 -11 13
-20 21 -20 8 0 17 -7 21 -15 3 -9 17 -22 32 -30 14 -7 36 -23 49 -35 21 -20
23 -28 17 -84 -11 -102 -32 -208 -54 -268 -12 -32 -21 -64 -21 -73 0 -8 -4
-15 -9 -15 -5 0 -13 -10 -17 -22 -7 -24 -16 -36 -60 -83 -34 -36 -119 -87
-128 -78 -3 4 -6 2 -6 -4 0 -30 -155 -40 -282 -19 -34 5 -168 76 -168 88 0 5
-4 6 -10 3 -5 -3 -10 -1 -10 5 0 6 -14 24 -31 41 -17 17 -32 36 -33 42 -1 7
-4 17 -8 22 -21 34 -69 198 -72 249 -3 34 -7 71 -10 83 -2 13 0 25 5 28 5 4 6
11 2 18 -4 6 -6 36 -4 67 1 30 2 62 3 70 0 16 28 164 31 166 1 0 26 14 55 29
28 16 52 32 52 37 0 4 4 8 10 8 10 0 104 55 127 75 74 62 212 209 214 229 1 6
4 -2 6 -19 3 -16 9 -35 15 -42z m-2967 -360 c-3 -13 -8 -74 -10 -135 -5 -105
-12 -140 -22 -110 -3 7 -10 18 -16 25 -21 22 -55 101 -62 144 -8 51 7 108 37
140 l22 24 29 -33 c20 -23 27 -39 22 -55z m1369 43 c7 -30 -1 -74 -22 -113 -9
-18 -33 -63 -52 -100 -19 -37 -38 -71 -43 -74 -5 -3 -7 -8 -6 -10 2 -2 -2 -13
-8 -24 -9 -15 -10 13 -6 115 6 154 15 178 83 221 30 20 46 15 54 -15z m-454
-1067 c-14 -82 -7 -139 26 -196 l24 -41 -45 -26 c-68 -37 -82 -40 -88 -16 -8
31 -41 25 -58 -12 -17 -38 -35 -46 -44 -19 -12 40 -117 37 -183 -5 -13 -8 -31
-12 -42 -9 -20 6 -74 -4 -66 -13 3 -2 1 -13 -4 -22 -7 -12 -17 -16 -32 -13
-38 9 -118 46 -118 55 0 4 -9 8 -19 8 -32 0 -35 19 -7 45 14 13 27 29 27 35 1
5 2 13 4 18 1 4 5 21 10 37 4 17 13 36 19 44 6 8 10 16 8 18 -2 2 0 44 4 93 5
75 9 90 23 90 9 0 21 -4 27 -9 25 -23 126 -44 224 -47 117 -4 200 11 271 48
24 13 46 20 48 14 2 -5 -2 -40 -9 -77z m1892 66 c5 -5 151 -18 173 -15 6 1 30
2 55 3 44 2 45 2 53 -38 4 -22 9 -53 10 -70 1 -16 6 -36 11 -43 4 -7 9 -23 11
-35 5 -42 17 -77 26 -77 5 0 9 -6 9 -14 0 -19 49 -108 70 -128 10 -10 24 -26
32 -36 10 -14 87 -71 105 -77 1 0 -3 -20 -8 -45 -10 -42 -74 -161 -91 -168 -4
-2 -8 -9 -8 -15 -1 -15 -68 -67 -87 -67 -7 0 -13 -4 -13 -9 0 -10 -87 -33
-135 -36 -16 -1 -60 -5 -97 -10 -76 -9 -96 -3 -198 56 -49 28 -80 57 -124 114
-64 82 -109 166 -104 193 2 9 20 25 40 36 21 11 40 28 44 38 3 10 9 18 14 18
14 0 70 61 70 76 0 9 12 31 26 50 15 19 23 34 19 34 -4 0 1 12 10 27 25 38 42
120 38 186 -3 54 -2 57 20 57 13 0 26 -2 29 -5z m-2860 -518 c4 -7 8 -35 8
-62 0 -56 21 -84 62 -85 47 -1 166 0 263 2 133 2 151 -3 159 -46 10 -50 38
-70 94 -67 26 1 62 9 80 17 24 11 43 13 75 7 61 -13 97 9 97 58 0 20 -7 49
-15 65 -8 15 -13 30 -11 32 2 2 21 -4 41 -12 20 -9 41 -13 46 -10 5 3 44 -12
86 -32 54 -27 95 -39 135 -42 47 -4 60 -9 73 -29 14 -20 21 -23 48 -18 42 9
56 24 58 60 1 30 -8 111 -17 153 -4 22 -2 23 31 19 20 -3 38 -7 41 -9 2 -3 5
-56 5 -119 2 -99 -4 -155 -26 -269 -2 -14 -7 -54 -9 -90 -10 -136 -83 -363
-168 -527 -21 -40 -38 -77 -38 -82 0 -13 -69 -131 -92 -157 -10 -11 -18 -25
-18 -32 0 -21 -75 -84 -135 -113 -64 -30 -119 -37 -194 -24 -38 7 -57 21 -132
95 -48 48 -91 98 -94 112 -4 15 -15 35 -24 45 -10 11 -31 41 -46 69 -15 27
-31 53 -36 59 -5 5 -9 15 -9 23 0 7 -10 34 -21 60 -12 26 -30 66 -40 89 -11
23 -19 47 -19 54 0 6 -18 49 -41 95 -38 78 -93 232 -103 287 -2 14 -18 53 -34
88 -36 79 -72 168 -72 181 0 6 -16 44 -35 85 -19 41 -35 76 -35 76 0 9 57 2
62 -6z m2452 -68 c14 -11 24 -24 21 -29 -3 -5 -1 -11 5 -15 17 -11 12 -35 -6
-28 -10 4 -22 -1 -29 -11 -16 -22 -78 -24 -99 -4 -23 23 -4 71 37 91 41 20 40
20 71 -4z m1105 1 c10 0 3 -88 -10 -127 -6 -20 -17 -33 -27 -33 -21 1 -82 28
-65 29 11 1 23 26 29 59 7 37 37 83 51 78 8 -3 18 -6 22 -6z m-1539 -110 c0
-5 -2 -10 -4 -10 -3 0 -8 5 -11 10 -3 6 -1 10 4 10 6 0 11 -4 11 -10z m617
-144 c34 -38 34 -40 14 -48 -12 -4 -21 -11 -21 -15 0 -5 -21 -19 -47 -32 -27
-12 -56 -27 -65 -32 -53 -27 -89 14 -68 77 7 19 16 34 21 34 4 0 15 13 23 29
8 15 25 40 38 55 l23 26 24 -28 c13 -15 39 -45 58 -66z m765 -61 c-2 -78 -29
-93 -82 -48 l-32 27 38 33 c22 18 44 37 49 42 17 16 28 -6 27 -54z m-570 -63
c26 -12 54 -22 62 -22 24 0 19 -13 -23 -61 -32 -37 -45 -45 -75 -46 -42 -1
-53 13 -54 71 -1 21 -4 41 -6 44 -3 2 -1 13 5 23 11 22 28 20 91 -9z m353 -41
c2 -40 -61 -144 -83 -136 -8 3 -20 5 -28 5 -8 0 -14 6 -14 13 0 8 -7 27 -15
43 -8 17 -16 45 -17 64 -3 35 -3 35 47 41 28 4 63 6 79 5 26 -1 30 -5 31 -35z
m-1015 -651 c0 -5 -5 -10 -11 -10 -5 0 -7 5 -4 10 3 6 8 10 11 10 2 0 4 -4 4
-10z m-2280 -40 c0 -5 -5 -10 -11 -10 -5 0 -7 5 -4 10 3 6 8 10 11 10 2 0 4
-4 4 -10z m1822 -217 c18 -19 66 -140 72 -178 2 -11 7 -32 11 -46 10 -39 -27
-65 -93 -64 -29 0 -52 -3 -52 -7 0 -7 -111 -3 -160 7 -28 5 -39 14 -52 44 -22
47 -22 49 2 102 24 53 142 189 179 206 28 12 26 13 93 -64z"/>
<path d="M4609 1102 c-23 -3 -29 -12 -48 -78 -17 -60 -20 -82 -12 -112 6 -20
13 -65 16 -99 3 -34 11 -79 19 -100 7 -21 14 -59 15 -86 2 -62 3 -68 22 -90 9
-10 19 -37 22 -60 6 -43 9 -59 25 -112 9 -31 8 -74 -4 -138 -6 -31 -3 -40 16
-57 27 -24 23 -23 64 -6 25 11 36 22 41 46 4 18 3 35 -2 39 -5 3 -10 31 -11
61 -1 30 -8 75 -17 100 -8 25 -16 54 -18 65 -9 48 -30 111 -43 126 -8 9 -12
18 -9 21 9 8 -17 188 -27 188 -4 0 -8 24 -9 53 -1 28 -4 63 -8 77 -7 26 7 80
21 80 4 0 8 13 8 28 0 35 -26 59 -61 54z"/>
</g>
</svg>
