<?xml version="1.0" standalone="no"?>
<!DOCTYPE svg PUBLIC "-//W3C//DTD SVG 20010904//EN"
 "http://www.w3.org/TR/2001/REC-SVG-20010904/DTD/svg10.dtd">
<svg version="1.0" xmlns="http://www.w3.org/2000/svg"
 width="425.000000pt" height="421.000000pt" viewBox="0 0 425.000000 421.000000"
 preserveAspectRatio="xMidYMid meet">
<metadata>
Created by potrace 1.16, written by Peter Selinger 2001-2019
</metadata>
<g transform="translate(0.000000,421.000000) scale(0.100000,-0.100000)"
fill="#000000" stroke="none">
<path d="M1869 3987 c-33 -17 -71 -47 -86 -66 -15 -20 -32 -39 -39 -44 -35
-21 -48 -165 -18 -198 8 -8 14 -19 14 -23 0 -4 9 -21 21 -37 23 -33 26 -30
-61 -54 -296 -80 -304 -83 -367 -125 -24 -17 -50 -30 -57 -30 -8 0 -20 -7 -27
-16 -13 -16 -114 -84 -125 -84 -14 0 -136 -100 -207 -169 -67 -66 -146 -166
-183 -231 -6 -11 -18 -28 -27 -37 -17 -20 -110 -204 -122 -243 -4 -14 -25 -60
-46 -103 -22 -43 -39 -85 -39 -93 0 -8 -4 -22 -9 -32 -9 -16 -32 -87 -80 -242
-17 -58 -28 -106 -36 -165 -1 -11 -5 -27 -8 -35 -8 -19 -36 -213 -38 -265 -1
-22 -4 -44 -7 -48 -15 -29 -22 -514 -9 -612 4 -27 9 -70 11 -95 2 -25 7 -67
10 -95 5 -44 10 -121 21 -325 3 -57 11 -165 19 -236 4 -40 21 -81 50 -118 14
-17 33 -18 238 -19 238 -2 428 11 708 45 146 18 218 21 430 19 312 -4 297 -4
555 3 335 10 376 12 445 24 36 7 151 14 255 17 105 4 259 13 344 21 85 9 172
12 193 9 26 -5 46 -2 61 8 12 7 61 17 109 20 105 8 127 16 155 55 22 31 28 64
37 237 2 50 8 131 11 180 9 114 9 544 0 735 -6 144 -20 263 -50 415 -41 213
-78 373 -92 405 -8 19 -23 60 -33 90 -36 108 -112 272 -158 338 -10 15 -28 47
-40 72 -12 25 -34 59 -49 77 -15 17 -41 48 -58 68 -16 20 -42 50 -57 67 -15
17 -30 38 -33 47 -3 9 -26 32 -50 51 -25 19 -45 40 -45 47 0 12 -92 73 -110
73 -6 0 -10 4 -10 9 0 10 -59 39 -155 77 -38 15 -106 46 -150 69 -148 78 -249
111 -375 124 -63 7 -120 17 -127 22 -6 6 -17 8 -23 4 -5 -3 -15 -3 -22 1 -7 4
-32 7 -57 6 -59 -3 -81 10 -58 33 10 9 17 22 18 28 0 7 3 21 6 32 13 50 5 141
-16 185 -31 65 -59 93 -125 125 -84 41 -151 41 -227 2z m183 -123 c74 -48 93
-111 58 -187 -12 -26 -19 -54 -16 -63 6 -14 1 -16 -31 -9 -47 9 -71 10 -105 2
-38 -8 -100 51 -127 119 -19 50 -19 52 -1 80 23 38 73 77 107 86 39 9 72 1
115 -28z m-128 -412 c-73 -66 -80 -69 -166 -76 -45 -4 -94 -10 -108 -12 -24
-5 1 8 155 75 39 17 85 31 104 31 34 0 34 0 15 -18z m259 -7 c20 -10 37 -22
37 -27 0 -4 6 -8 13 -8 7 0 22 -7 33 -16 18 -14 16 -15 -25 -10 -34 3 -50 12
-77 41 -19 21 -34 40 -34 42 0 5 0 5 53 -22z m444 -27 c40 -12 70 -25 68 -29
-3 -4 -40 -7 -83 -8 -69 -1 -84 2 -147 34 l-70 34 80 -5 c44 -3 112 -14 152
-26z m-1022 -8 c-16 -25 -107 -61 -148 -58 -41 3 -39 4 53 35 52 17 96 32 98
32 2 1 0 -4 -3 -9z m380 -9 c-3 -6 -14 -11 -23 -11 -13 0 -13 2 4 14 21 15 30
14 19 -3z m122 -17 c-3 -3 -12 -4 -19 -1 -8 3 -5 6 6 6 11 1 17 -2 13 -5z
m-157 -64 c0 -5 -7 -27 -14 -47 -21 -53 -76 -287 -76 -320 0 -15 -3 -45 -6
-66 l-7 -37 -128 1 c-117 2 -146 7 -120 23 5 3 12 21 15 40 14 73 113 245 203
353 36 42 50 53 81 56 20 2 40 4 45 5 4 1 7 -2 7 -8z m243 -58 c42 -94 64
-183 83 -333 l5 -46 -38 -7 c-21 -3 -78 -8 -128 -11 -49 -3 -116 -8 -147 -10
l-58 -5 0 36 c0 20 9 78 20 128 30 132 36 154 63 231 l24 70 64 5 c35 3 69 4
75 2 6 -2 22 -29 37 -60z m177 59 c24 -5 46 -14 48 -20 2 -6 10 -11 18 -11 26
0 167 -184 217 -281 26 -52 47 -100 47 -107 0 -8 -22 -12 -72 -12 -40 0 -89
-4 -108 -8 -36 -8 -164 -1 -175 9 -3 3 -12 42 -20 85 -8 43 -18 94 -24 112 -5
18 -10 33 -9 35 1 13 -19 92 -33 130 -11 26 -19 52 -19 57 0 17 66 23 130 11z
m524 -27 c23 -13 47 -24 54 -24 7 0 31 -9 55 -19 23 -11 58 -26 78 -34 52 -21
156 -100 217 -165 77 -82 115 -132 107 -140 -7 -8 -237 -5 -275 3 -16 4 -44
32 -80 81 -52 71 -141 162 -225 229 -52 41 -122 85 -137 85 -9 0 -8 4 2 10 26
17 158 0 204 -26z m-1124 19 c0 -5 -10 -19 -21 -33 -70 -87 -157 -248 -216
-399 l-9 -25 -177 -1 c-97 -1 -177 1 -177 3 0 3 14 32 31 66 63 124 169 250
278 329 57 42 69 47 120 48 31 1 70 5 86 9 41 10 85 12 85 3z m-360 -27 c0 -3
-26 -31 -58 -63 -90 -90 -168 -197 -215 -294 -23 -49 -49 -91 -57 -94 -19 -6
-274 -24 -278 -20 -8 8 144 201 193 245 72 65 132 110 173 131 26 13 50 29 54
35 17 26 66 49 118 55 30 3 58 7 63 8 4 0 7 -1 7 -3z m1243 -43 c45 -21 107
-56 136 -78 66 -49 202 -181 223 -216 l16 -26 -88 -11 c-126 -17 -180 -16
-180 4 0 19 -85 192 -105 214 -8 9 -15 20 -15 25 0 4 -17 29 -37 54 -57 71
-57 71 -44 71 6 0 48 -17 94 -37z m433 -415 c9 -18 20 -35 24 -38 13 -9 85
-133 119 -205 52 -110 123 -346 108 -361 -4 -5 -234 -16 -343 -17 -45 -1 -64
10 -64 35 0 13 -9 57 -20 98 -12 41 -25 98 -30 125 -5 28 -27 118 -50 200 -22
83 -40 155 -40 161 0 11 125 30 222 32 55 2 58 1 74 -30z m401 -20 c100 -138
164 -266 224 -443 40 -118 39 -125 -16 -125 -16 0 -89 -3 -161 -6 l-132 -6
-16 78 c-33 162 -120 371 -202 487 -19 26 -34 50 -34 54 0 3 55 3 123 0 69 -3
130 -2 138 4 26 16 39 9 76 -43z m-744 -46 c10 -37 22 -83 27 -102 4 -19 18
-73 29 -120 51 -199 78 -325 72 -332 -8 -8 -201 -27 -311 -31 l-84 -2 -23 130
c-13 72 -25 148 -28 170 -3 22 -7 51 -10 65 -13 60 -17 79 -30 155 -24 132
-29 124 73 128 48 1 128 4 177 5 l90 2 18 -68z m-428 21 c3 -21 14 -87 25
-148 11 -60 26 -157 35 -215 9 -58 23 -136 31 -174 8 -38 13 -70 12 -72 -6 -6
-150 -14 -334 -19 l-181 -5 4 308 c2 169 5 312 8 319 5 14 52 21 195 28 63 3
116 8 119 11 2 2 21 4 42 4 36 0 38 -2 44 -37z m-858 7 l43 0 -15 -37 c-9 -21
-20 -58 -26 -82 -5 -25 -16 -59 -23 -76 -28 -65 -89 -309 -102 -402 -6 -52 -7
-52 -48 -58 -22 -3 -61 -5 -86 -3 -25 1 -100 -1 -167 -6 -110 -7 -123 -6 -123
8 0 46 108 388 139 441 9 17 30 66 45 110 16 44 31 83 35 87 9 10 190 27 240
22 24 -2 63 -4 88 -4z m347 -6 l47 -7 -2 -61 c-1 -34 -1 -128 -1 -211 1 -82
-2 -195 -6 -250 l-7 -100 -220 0 -220 0 3 50 c1 28 11 79 22 115 11 36 29 106
41 155 12 50 25 95 29 100 5 6 18 45 29 87 36 135 29 128 141 128 54 0 118 -3
144 -6z m-744 -18 c0 -10 -52 -140 -69 -172 -28 -52 -121 -352 -135 -436 l-7
-36 -117 -6 c-64 -4 -141 -9 -169 -11 -70 -7 -70 -18 2 200 20 61 45 128 56
151 10 22 19 47 19 56 0 9 7 21 15 28 8 7 20 30 27 51 6 22 15 39 19 39 4 0
15 21 25 46 26 68 35 74 117 75 40 1 97 4 127 9 72 9 90 11 90 6z m2699 -600
c9 -12 21 -55 27 -101 3 -16 9 -48 14 -70 10 -41 17 -85 25 -165 3 -25 9 -61
14 -80 15 -57 26 -152 23 -198 -3 -38 -7 -44 -40 -58 -25 -10 -49 -13 -77 -8
-22 4 -84 6 -137 6 l-98 -2 0 38 c0 21 -7 83 -15 138 -19 123 -34 227 -41 279
-6 42 -19 126 -30 187 l-6 37 73 4 c140 7 259 4 268 -7z m-386 -94 c15 -84 25
-151 48 -312 6 -41 14 -102 20 -136 5 -33 9 -79 9 -102 0 -35 -4 -42 -22 -46
-37 -8 -206 -19 -292 -20 l-79 -1 -13 55 c-7 30 -13 73 -14 95 0 22 -4 56 -10
75 -5 19 -14 80 -19 135 -6 55 -12 111 -15 125 -7 46 -27 175 -29 190 -3 19
50 25 250 27 l151 1 15 -86z m-482 71 c1 -5 3 -21 5 -38 2 -16 8 -50 13 -75 6
-25 15 -85 21 -135 6 -49 18 -130 25 -180 8 -49 17 -117 20 -150 3 -33 8 -72
11 -87 5 -24 2 -27 -28 -32 -34 -5 -230 -16 -348 -19 l-65 -2 -6 45 c-7 50
-14 150 -29 400 -5 91 -12 181 -15 201 -6 33 -4 37 19 43 31 8 102 14 220 21
49 2 91 7 94 10 8 8 62 6 63 -2z m-453 -110 c6 -43 11 -103 11 -133 1 -55 16
-289 26 -406 l6 -61 -38 -7 c-21 -3 -92 -6 -158 -6 -66 0 -160 -6 -210 -13
-49 -7 -109 -11 -131 -9 l-42 4 -6 151 c-9 189 -10 336 -6 450 l3 87 41 1 c53
2 398 15 452 17 l42 2 10 -77z m-622 58 c8 -1 11 -70 11 -226 1 -124 4 -279 8
-344 l7 -118 -63 -12 c-35 -6 -109 -13 -164 -15 -55 -2 -138 -7 -185 -11 l-85
-8 2 196 c1 108 7 233 13 279 5 45 10 110 11 143 1 33 4 71 8 85 l7 25 159 6
c136 4 216 4 271 0z m-500 -68 c-3 -32 -8 -103 -11 -158 -3 -55 -8 -109 -11
-120 -2 -11 -6 -102 -8 -203 -2 -100 -6 -185 -8 -188 -11 -11 -121 -22 -276
-29 l-164 -8 6 89 c3 49 8 136 11 194 3 58 7 112 9 120 7 35 16 110 21 175 3
39 8 91 11 117 l6 46 102 10 c55 5 150 10 209 11 l108 1 -5 -57z m-481 -20
c-4 -32 -9 -83 -11 -113 -4 -64 -11 -134 -24 -245 -6 -44 -10 -127 -11 -185
-1 -154 3 -147 -87 -154 -43 -4 -124 -10 -182 -15 -57 -6 -107 -6 -110 -1 -6
10 -5 157 3 235 3 33 8 105 11 160 4 55 11 118 16 140 5 22 17 77 26 122 13
66 21 83 38 88 20 7 176 20 285 23 l54 2 -8 -57z m3028 -580 c6 -4 3 -617 -4
-650 -2 -9 -27 -13 -83 -12 -45 0 -105 -5 -135 -10 -67 -14 -84 -14 -76 -1 3
6 3 14 0 20 -3 5 -8 56 -10 112 -5 153 -14 327 -20 378 -2 25 -8 73 -11 107
l-7 61 29 5 c33 5 305 -3 317 -10z m-392 -99 c15 -132 20 -582 7 -590 -5 -4
-88 -9 -183 -12 l-173 -5 -6 44 c-3 24 -15 112 -26 194 -11 83 -23 217 -27
298 l-6 148 54 -1 c80 -2 291 12 314 20 11 5 24 5 28 0 4 -4 12 -47 18 -96z
m-475 37 c6 -157 21 -340 35 -431 5 -36 11 -100 13 -142 l3 -77 -51 -5 c-28
-3 -89 -8 -136 -11 -47 -3 -119 -10 -160 -14 -41 -4 -83 -6 -92 -3 -23 6 -36
97 -43 302 -3 91 -8 216 -11 278 l-6 112 68 1 c38 0 87 3 109 7 22 4 92 8 155
8 l115 1 1 -26z m-505 -48 c1 -32 2 -71 4 -88 2 -16 6 -146 9 -288 3 -142 8
-262 11 -267 8 -12 31 -10 -190 -20 -104 -5 -242 -13 -305 -16 -112 -7 -115
-6 -99 12 23 27 29 72 12 90 -12 11 -13 35 -8 127 4 61 2 193 -4 291 -6 99 -9
182 -5 185 3 3 38 6 77 8 40 1 144 6 232 11 88 5 184 9 213 10 l52 2 1 -57z
m-636 -35 c5 -35 8 -187 7 -338 0 -228 3 -278 15 -292 13 -14 12 -17 -14 -22
-45 -10 -362 -36 -436 -36 -66 0 -67 1 -56 21 11 21 7 89 -12 203 -6 32 -11
154 -12 272 l-2 214 30 2 c43 2 70 5 155 16 41 5 113 10 160 11 46 1 86 4 89
7 2 2 19 4 37 4 32 0 32 0 39 -62z m-575 -115 c0 -153 8 -288 21 -362 5 -30 9
-85 9 -122 0 -37 5 -71 10 -74 28 -17 -8 -20 -212 -18 -123 2 -234 3 -247 3
-20 0 -22 2 -11 15 9 11 11 42 6 118 -4 56 -9 197 -12 313 l-6 210 109 12 c59
7 150 15 202 17 51 2 96 7 99 10 3 3 11 5 19 5 10 0 13 -28 13 -127z m-499 4
c3 -386 10 -542 26 -559 15 -17 14 -18 -23 -18 -21 0 -104 -5 -183 -11 -79 -5
-145 -8 -147 -7 -1 2 -5 44 -8 93 -4 50 -8 113 -11 140 -6 57 -13 136 -20 215
-3 30 -7 83 -11 118 -5 61 -5 62 23 73 15 6 90 16 165 23 75 6 148 12 162 13
26 3 26 3 27 -80z m3066 -599 c-11 -132 -13 -136 -66 -145 -25 -4 -71 -7 -101
-6 -49 2 -136 -8 -340 -37 -36 -5 -157 -12 -270 -15 -117 -2 -238 -11 -281
-19 -42 -9 -116 -16 -165 -16 -49 -1 -195 -4 -324 -8 -129 -4 -282 -5 -340 -2
-140 7 -469 -5 -550 -19 -36 -7 -108 -16 -160 -21 -52 -5 -140 -15 -195 -21
-188 -21 -297 -24 -365 -12 -36 7 -92 12 -126 13 l-60 0 -27 65 c-15 36 -27
78 -27 93 0 51 49 57 510 58 350 1 561 9 790 29 113 10 361 27 525 36 94 5
242 16 330 24 88 8 243 19 345 25 102 5 232 12 290 15 227 14 270 16 415 16
83 0 157 4 165 9 29 19 33 10 27 -62z"/>
</g>
</svg>
