<?xml version="1.0" standalone="no"?>
<!DOCTYPE svg PUBLIC "-//W3C//DTD SVG 20010904//EN"
 "http://www.w3.org/TR/2001/REC-SVG-20010904/DTD/svg10.dtd">
<svg version="1.0" xmlns="http://www.w3.org/2000/svg"
 width="461.000000pt" height="373.000000pt" viewBox="0 0 461.000000 373.000000"
 preserveAspectRatio="xMidYMid meet">
<metadata>
Created by potrace 1.16, written by Peter Selinger 2001-2019
</metadata>
<g transform="translate(0.000000,373.000000) scale(0.100000,-0.100000)"
fill="#000000" stroke="none">
<path d="M4267 3659 c-16 -4 -35 -13 -43 -20 -8 -6 -14 -8 -14 -5 0 4 -12 0
-27 -8 -31 -16 -60 -27 -82 -32 -8 -1 -26 -6 -40 -10 -14 -4 -30 -8 -36 -9 -5
-1 -14 -3 -20 -5 -5 -1 -17 -3 -25 -4 -8 0 -21 -18 -29 -39 -14 -37 -14 -39
13 -64 21 -19 35 -24 62 -21 19 2 34 2 34 -2 0 -7 -70 -81 -105 -110 -17 -14
-40 -41 -52 -60 -12 -19 -54 -64 -93 -100 -39 -36 -95 -89 -123 -118 -46 -47
-52 -51 -67 -37 -9 8 -20 15 -23 15 -4 0 -36 18 -72 40 -36 22 -72 40 -79 40
-8 0 -38 9 -68 20 -92 34 -203 49 -328 45 -176 -6 -298 -47 -457 -152 -97 -64
-115 -79 -158 -138 -17 -22 -38 -49 -47 -59 -10 -11 -18 -23 -18 -27 0 -4 -11
-21 -24 -36 -32 -38 -86 -142 -86 -166 0 -9 -10 -46 -22 -80 -17 -51 -22 -89
-24 -216 -2 -148 6 -208 36 -276 5 -11 12 -31 15 -45 4 -14 13 -39 20 -55 8
-17 18 -42 23 -56 25 -65 235 -298 270 -299 6 0 12 -3 12 -7 0 -5 24 -21 53
-37 28 -16 59 -35 68 -42 8 -8 24 -15 35 -17 10 -2 33 -10 49 -16 17 -7 40
-15 52 -17 12 -2 33 -8 46 -13 39 -15 137 -25 227 -23 79 1 108 5 230 33 112
26 329 164 411 262 13 16 33 38 44 51 19 20 63 106 114 219 53 120 81 357 52
452 -5 16 -12 53 -16 80 -7 53 -99 275 -118 287 -7 4 -8 8 -3 8 4 0 -17 27
-48 61 -40 42 -54 65 -48 75 20 37 205 236 228 245 5 2 26 24 46 49 20 25 55
65 78 90 24 25 51 56 61 69 13 16 19 19 19 9 0 -9 -6 -21 -14 -27 -11 -9 -12
-18 -3 -41 6 -17 17 -30 24 -30 7 0 13 -4 13 -9 0 -5 11 -11 25 -13 20 -4 31
2 55 32 19 24 27 44 24 58 -5 18 50 178 65 192 11 9 12 60 2 79 -14 25 -59 40
-94 30z m-920 -627 c142 -53 197 -90 315 -216 74 -78 150 -215 187 -339 23
-76 31 -268 12 -291 -6 -7 -8 -16 -5 -19 12 -12 -29 -163 -61 -227 -46 -91
-166 -234 -242 -288 -62 -44 -167 -92 -251 -114 -115 -30 -290 -30 -402 0 -71
19 -201 78 -208 95 -2 4 -9 7 -15 7 -13 0 -85 57 -126 100 -157 163 -225 327
-224 540 0 119 11 228 24 236 5 3 9 13 9 23 0 30 75 167 128 233 88 111 274
248 337 248 9 0 28 6 43 14 25 13 57 19 162 31 24 3 45 7 46 8 2 1 45 -1 96
-5 65 -4 117 -15 175 -36z"/>
<path d="M1075 3204 c-132 -15 -208 -30 -253 -50 -29 -13 -59 -24 -67 -24 -7
0 -17 -4 -20 -10 -3 -5 -12 -10 -20 -10 -29 0 -161 -97 -239 -177 -77 -78 -87
-94 -154 -227 -40 -79 -52 -120 -77 -247 -13 -69 -13 -207 1 -278 7 -41 11
-78 8 -82 -3 -5 -2 -9 3 -9 4 0 14 -19 21 -42 7 -23 22 -59 33 -82 10 -22 19
-44 19 -49 0 -5 14 -26 30 -47 17 -21 30 -41 30 -44 0 -7 63 -90 98 -129 50
-54 64 -66 146 -115 127 -78 203 -109 329 -138 4 -1 19 -2 35 -3 51 -3 52 -6
57 -187 3 -93 8 -179 11 -192 l4 -22 -127 5 c-71 4 -143 7 -161 9 -46 3 -72
-18 -72 -58 0 -19 6 -39 14 -45 12 -10 99 -17 293 -24 49 -2 53 -4 54 -27 0
-14 2 -92 3 -175 3 -178 9 -195 73 -195 52 0 55 8 47 125 -12 182 -10 255 6
256 8 1 90 3 183 4 141 2 170 5 186 19 24 22 32 63 15 77 -8 6 -14 18 -14 27
0 12 -8 13 -47 7 -55 -9 -333 -13 -338 -5 -2 3 -7 71 -10 150 -11 213 -8 259
16 244 16 -10 197 36 265 67 22 11 43 19 47 19 25 0 163 106 242 187 87 88
101 107 154 217 32 67 66 153 75 191 29 126 19 361 -22 491 -12 38 -43 107
-52 114 -3 3 -12 20 -19 37 -7 18 -21 41 -30 52 -9 10 -23 29 -31 41 -28 41
-65 86 -100 121 -39 39 -186 138 -240 163 -42 18 -152 50 -164 47 -4 -1 -13 2
-20 7 -12 10 -172 21 -221 16z m300 -149 c39 -16 86 -39 105 -52 19 -13 39
-23 45 -23 6 0 21 -10 35 -23 14 -12 37 -32 52 -43 33 -26 148 -162 148 -175
0 -6 13 -27 29 -47 16 -20 32 -53 36 -72 4 -19 14 -43 23 -53 8 -9 13 -20 10
-23 -3 -3 0 -32 8 -65 15 -66 20 -201 9 -264 -11 -64 -45 -174 -55 -180 -6 -4
-8 -11 -4 -16 3 -5 0 -17 -7 -25 -7 -8 -22 -37 -35 -63 -30 -66 -94 -140 -199
-230 -54 -47 -222 -123 -300 -137 -5 -1 -12 -3 -15 -4 -15 -6 -135 -14 -155
-10 -5 1 -31 1 -56 0 -81 -3 -293 75 -354 129 -11 10 -28 22 -37 27 -34 18
-138 125 -177 182 -52 77 -101 174 -101 200 0 12 -7 43 -16 69 -42 123 -17
339 57 485 5 10 9 24 9 32 0 8 7 16 15 20 8 3 15 12 15 21 0 22 113 165 131
165 4 0 22 15 41 33 51 48 175 121 238 140 81 24 150 38 160 32 5 -3 11 -2 13
2 3 5 63 5 134 2 109 -5 138 -10 198 -34z"/>
</g>
</svg>
