<?xml version="1.0" standalone="no"?>
<!DOCTYPE svg PUBLIC "-//W3C//DTD SVG 20010904//EN"
 "http://www.w3.org/TR/2001/REC-SVG-20010904/DTD/svg10.dtd">
<svg version="1.0" xmlns="http://www.w3.org/2000/svg"
 width="395.000000pt" height="441.000000pt" viewBox="0 0 395.000000 441.000000"
 preserveAspectRatio="xMidYMid meet">
<metadata>
Created by potrace 1.16, written by Peter Selinger 2001-2019
</metadata>
<g transform="translate(0.000000,441.000000) scale(0.100000,-0.100000)"
fill="#000000" stroke="none">
<path d="M1955 4261 c-12 -11 -187 -51 -224 -51 -15 0 -31 -4 -36 -8 -6 -5
-44 -21 -85 -37 -41 -15 -89 -38 -107 -51 -17 -13 -35 -24 -40 -24 -5 0 -15
-9 -23 -20 -8 -11 -22 -20 -32 -20 -10 0 -27 -13 -40 -30 -12 -16 -26 -30 -31
-30 -16 0 -195 -177 -247 -244 -19 -25 -43 -55 -52 -67 -10 -12 -18 -25 -18
-28 0 -4 -20 -33 -45 -66 -25 -33 -45 -64 -45 -69 0 -4 -14 -38 -32 -75 -18
-36 -33 -68 -34 -71 0 -3 -3 -12 -6 -20 -3 -8 -15 -42 -26 -75 -47 -137 -66
-184 -74 -179 -19 12 -119 4 -151 -11 -24 -11 -41 -30 -57 -65 -22 -47 -22
-52 -10 -137 31 -222 37 -287 44 -463 5 -106 14 -170 26 -170 4 0 10 -17 14
-37 4 -23 18 -50 36 -67 16 -16 27 -32 25 -36 -5 -8 14 -28 28 -29 4 -1 8 -1
10 -2 1 0 10 -2 21 -4 10 -2 22 -7 27 -12 12 -12 59 -148 59 -170 0 -17 8 -45
42 -147 11 -33 21 -64 23 -70 8 -40 21 -75 37 -104 10 -18 18 -39 18 -47 0 -8
3 -15 8 -15 4 0 13 -15 21 -32 8 -18 24 -45 37 -60 12 -16 26 -38 30 -50 4
-12 24 -41 45 -63 21 -22 39 -44 39 -49 0 -5 7 -14 17 -21 18 -13 10 -35 -13
-35 -8 0 -14 -6 -14 -14 0 -8 -4 -16 -8 -18 -30 -12 -90 -138 -90 -188 0 -8
-3 -47 -7 -86 -6 -63 -4 -75 20 -119 14 -27 27 -56 29 -65 6 -28 18 -50 28
-50 6 0 18 -8 27 -19 18 -21 93 -61 114 -61 8 0 26 -9 40 -20 15 -12 48 -23
78 -26 67 -7 97 -19 118 -45 15 -19 20 -20 39 -8 13 8 27 31 32 54 6 22 17 54
26 71 9 17 14 46 12 65 -4 44 -46 117 -71 125 -10 3 -25 21 -33 40 -12 28 -12
40 -2 66 18 47 9 132 -15 136 -30 6 -49 -18 -44 -55 5 -36 -11 -103 -25 -103
-12 0 -10 -37 5 -61 6 -12 31 -40 54 -63 23 -22 48 -54 57 -70 13 -26 13 -32
-2 -65 -9 -20 -17 -37 -18 -39 -3 -5 -88 21 -98 30 -6 4 -19 8 -30 8 -33 0
-133 34 -153 52 -10 8 -28 20 -39 26 -12 7 -36 41 -54 76 -31 61 -32 69 -27
143 11 138 10 137 72 205 46 51 66 64 123 76 35 8 40 7 35 -7 -3 -11 1 -9 14
6 15 17 32 22 100 26 47 3 85 1 89 -4 3 -5 9 -7 14 -4 14 9 50 -14 79 -49 51
-60 61 -68 76 -56 32 27 23 60 -32 115 -14 13 -22 34 -23 56 -2 86 24 380 35
399 1 3 6 66 10 140 9 168 9 166 25 218 17 54 31 66 70 57 37 -8 54 -33 69
-100 19 -88 20 -147 2 -260 -10 -64 -16 -137 -13 -175 4 -56 6 -161 3 -210 -2
-26 7 -109 13 -118 2 -4 8 -55 11 -113 4 -57 9 -107 11 -111 3 -4 7 -59 9
-122 3 -85 9 -122 21 -140 9 -15 17 -53 20 -96 2 -38 14 -109 27 -158 14 -48
32 -116 41 -152 15 -57 20 -66 41 -68 19 -1 25 4 30 28 4 16 3 34 0 41 -16 25
-72 279 -74 334 -1 33 -6 64 -10 70 -5 5 -11 35 -15 65 -3 30 -8 69 -11 85 -4
27 0 32 28 44 18 7 50 21 72 32 41 19 205 70 205 63 0 -2 9 5 20 16 12 12 25
18 30 15 5 -3 26 3 47 14 38 19 57 27 122 52 18 7 49 27 68 46 20 18 42 33 49
33 8 0 14 5 14 10 0 6 6 10 14 10 8 0 23 13 33 30 9 16 23 30 30 30 7 0 13 4
13 9 0 5 18 28 39 51 22 24 45 55 53 69 7 14 31 51 53 81 22 30 50 73 61 95
11 22 26 49 32 60 18 32 82 182 82 191 0 5 12 31 26 58 14 27 29 69 33 94 6
45 7 46 59 60 39 11 67 28 103 63 27 26 49 52 48 56 -1 4 3 21 9 36 7 16 12
36 12 46 0 9 5 22 11 28 7 7 11 34 11 62 -1 27 5 68 13 92 8 23 15 52 15 65 0
13 4 24 9 24 5 0 9 20 9 45 1 25 6 53 11 64 6 10 13 48 17 83 7 71 -15 167
-46 199 -28 30 -81 51 -112 45 -28 -5 -29 -4 -28 32 2 78 -27 273 -44 301 -3
5 -13 41 -21 81 -8 40 -21 87 -29 104 -8 17 -21 51 -30 75 -27 71 -76 155
-183 316 -36 55 -94 119 -148 163 -31 26 -134 92 -143 92 -6 0 -13 7 -16 16
-3 9 -12 14 -20 11 -7 -3 -17 -2 -22 3 -9 9 -164 50 -264 69 -50 10 -138 21
-182 22 -10 0 -18 4 -18 10 0 5 -9 9 -20 9 -11 0 -20 -4 -20 -9 0 -17 -33 -21
-50 -6 -19 17 -32 19 -45 6z m141 -122 c44 -5 93 -11 109 -14 17 -3 53 -9 80
-13 28 -4 59 -13 70 -19 11 -6 36 -13 55 -16 56 -10 62 -11 130 -46 116 -58
140 -74 183 -123 23 -26 59 -67 80 -90 20 -23 37 -48 37 -54 0 -7 6 -19 14
-26 7 -8 32 -47 54 -86 23 -40 48 -83 57 -95 8 -12 15 -29 15 -37 0 -9 9 -35
20 -57 11 -23 25 -63 31 -90 6 -26 18 -73 27 -103 18 -65 22 -85 27 -169 2
-35 8 -67 12 -70 11 -9 15 -31 4 -31 -5 0 -4 -21 1 -47 5 -27 6 -86 3 -133 -6
-77 -9 -112 -20 -217 -2 -18 -6 -36 -8 -40 -3 -5 -8 -28 -12 -53 -4 -25 -9
-48 -12 -53 -2 -4 -6 -29 -8 -55 -2 -26 -15 -96 -30 -157 -15 -60 -30 -128
-35 -151 -5 -22 -15 -58 -23 -80 -8 -21 -18 -48 -23 -59 -4 -11 -8 -24 -9 -30
-9 -37 -58 -149 -79 -184 -14 -22 -26 -45 -26 -50 0 -5 -16 -32 -35 -60 -19
-28 -35 -55 -35 -61 0 -5 -4 -10 -10 -10 -5 0 -10 -6 -10 -13 0 -7 -16 -30
-35 -51 -19 -21 -35 -41 -35 -43 0 -12 -100 -115 -149 -153 -48 -38 -170 -103
-196 -105 -5 -1 -20 -6 -32 -13 -12 -7 -28 -12 -35 -12 -8 0 -31 -9 -53 -20
-22 -11 -45 -20 -53 -20 -7 0 -42 -9 -77 -21 -36 -11 -80 -22 -100 -23 -32 -3
-35 -1 -40 28 -9 48 -15 120 -20 244 -4 113 -4 114 18 109 12 -3 36 2 53 11
18 9 48 25 68 36 20 10 36 23 36 29 0 6 12 28 27 50 27 40 31 56 33 144 1 47
-5 67 -32 113 -5 8 -14 27 -21 43 -14 33 -96 77 -142 77 -31 0 -32 2 -44 58
-16 73 -20 80 -65 117 -31 24 -47 30 -87 30 -57 0 -71 -14 -107 -110 -19 -48
-24 -86 -28 -195 -4 -126 -9 -190 -20 -250 -2 -14 -6 -61 -9 -105 -3 -44 -7
-113 -11 -153 l-6 -74 -36 8 c-54 11 -119 10 -190 -6 -67 -14 -75 -12 -96 32
-6 12 -21 27 -32 32 -12 5 -38 38 -60 73 -21 35 -41 63 -45 63 -4 0 -26 40
-50 90 -24 50 -47 90 -51 90 -5 0 -8 10 -8 23 0 13 -8 50 -19 83 -10 32 -24
79 -31 104 -7 25 -23 79 -36 120 -59 194 -95 692 -65 910 14 101 42 205 76
278 14 29 25 58 25 65 0 30 89 230 119 268 10 13 24 36 32 51 38 73 263 313
324 345 17 9 41 29 55 44 36 40 192 119 235 119 20 0 48 6 63 14 15 8 50 17
77 21 28 4 55 12 61 17 7 5 16 8 20 7 18 -4 64 14 64 25 0 7 4 6 9 -2 5 -8 41
-18 87 -23z m-1348 -1154 c2 -2 -1 -20 -8 -39 -19 -57 -28 -451 -10 -451 1 0
3 -22 5 -50 2 -27 6 -90 10 -140 5 -79 5 -88 -8 -70 -28 39 -40 101 -43 210
-2 116 -11 240 -19 265 -5 15 -21 128 -31 208 -3 26 -1 42 6 42 5 0 10 6 10
14 0 8 8 17 18 19 16 5 63 -1 70 -8z m2526 -154 c-2 -2 2 -13 8 -25 7 -11 12
-23 11 -26 0 -3 -4 -27 -8 -54 -3 -27 -8 -52 -10 -56 -2 -3 -6 -28 -9 -55 -4
-28 -10 -51 -15 -53 -4 -1 -6 -14 -3 -27 2 -14 0 -31 -6 -38 -6 -7 -14 -32
-18 -55 -4 -23 -10 -45 -14 -47 -4 -3 -4 -19 0 -37 8 -38 -10 -96 -43 -145
-20 -30 -47 -44 -47 -25 0 17 30 173 34 181 3 4 8 32 10 62 3 30 13 90 21 134
17 87 27 168 27 229 1 29 5 40 19 43 11 3 19 9 19 15 0 5 6 3 14 -4 8 -7 12
-15 10 -17z m-1296 -996 c15 -4 25 -17 29 -36 3 -16 10 -32 14 -35 14 -9 10
-66 -8 -109 -16 -39 -17 -40 -70 -42 l-54 -1 7 41 c4 23 8 49 9 57 16 135 17
141 34 136 9 -2 26 -7 39 -11z"/>
<path d="M1320 3200 c-30 -4 -66 -12 -80 -18 -29 -11 -33 -12 -60 -12 -12 0
-24 -10 -30 -24 -5 -13 -14 -26 -20 -28 -14 -4 15 -78 31 -78 5 0 30 9 55 20
63 29 147 33 193 10 36 -19 47 -20 90 -6 22 8 23 12 17 60 -9 61 -15 69 -60
70 -20 1 -38 5 -42 9 -8 8 -16 8 -94 -3z"/>
<path d="M2485 3149 c-22 -5 -51 -11 -65 -12 -14 -2 -35 -9 -47 -15 -12 -7
-33 -12 -46 -12 -29 0 -78 -36 -72 -53 2 -7 6 -24 9 -38 9 -43 44 -45 131 -9
66 27 103 32 139 20 20 -6 36 -15 36 -18 0 -4 9 -13 20 -19 21 -14 68 -2 82
20 30 47 -22 125 -88 133 -12 1 -30 4 -41 7 -10 2 -36 0 -58 -4z"/>
<path d="M1323 2992 c-34 -16 -38 -25 -34 -77 3 -36 15 -45 62 -45 28 0 38 5
45 23 6 12 9 28 8 35 -1 6 -2 23 -3 37 -1 18 -7 25 -20 25 -11 0 -21 4 -23 9
-1 5 -18 1 -35 -7z"/>
<path d="M2457 2920 c-13 -12 -17 -29 -15 -56 2 -32 8 -40 30 -48 36 -13 70 6
85 45 6 16 7 29 2 29 -5 0 -9 7 -9 15 0 15 -38 36 -63 34 -7 0 -20 -8 -30 -19z"/>
<path d="M1729 2587 c-33 -28 -30 -50 13 -88 54 -50 92 -62 170 -54 37 4 68
11 68 16 0 4 16 11 35 15 40 7 53 20 61 60 7 37 -16 59 -68 67 -29 4 -39 2
-50 -15 -9 -13 -28 -22 -59 -25 -39 -4 -50 -2 -74 21 -34 32 -62 33 -96 3z"/>
</g>
</svg>
