<?xml version="1.0" standalone="no"?>
<!DOCTYPE svg PUBLIC "-//W3C//DTD SVG 20010904//EN"
 "http://www.w3.org/TR/2001/REC-SVG-20010904/DTD/svg10.dtd">
<svg version="1.0" xmlns="http://www.w3.org/2000/svg"
 width="363.000000pt" height="313.000000pt" viewBox="0 0 363.000000 313.000000"
 preserveAspectRatio="xMidYMid meet">
<metadata>
Created by potrace 1.16, written by Peter Selinger 2001-2019
</metadata>
<g transform="translate(0.000000,313.000000) scale(0.100000,-0.100000)"
fill="#000000" stroke="none">
<path d="M1645 2890 c-74 -7 -209 -34 -247 -49 -13 -5 -54 -19 -93 -31 -73
-22 -221 -90 -267 -122 -16 -11 -28 -17 -28 -14 0 3 -8 -2 -18 -11 -10 -10
-42 -38 -72 -63 -110 -91 -228 -216 -282 -300 -70 -109 -130 -222 -153 -285
-10 -27 -23 -56 -28 -63 -5 -7 -7 -15 -4 -19 4 -3 2 -14 -4 -25 -21 -39 -47
-214 -49 -328 -4 -258 31 -417 152 -690 11 -25 31 -59 44 -77 13 -17 24 -36
24 -41 0 -5 9 -17 20 -27 11 -10 20 -24 20 -30 0 -7 7 -15 15 -19 8 -3 15 -10
15 -15 0 -15 159 -182 204 -213 17 -13 40 -31 51 -41 21 -20 137 -90 177 -107
12 -5 30 -14 38 -20 51 -33 230 -96 300 -106 19 -3 41 -7 49 -10 8 -2 37 -7
65 -9 204 -18 311 -10 516 41 107 27 160 46 255 95 66 34 122 66 123 71 2 4 9
8 16 8 22 0 167 120 246 204 41 44 92 97 112 118 31 33 227 398 213 398 -2 0
4 24 14 53 10 28 21 79 24 112 3 33 10 85 16 115 11 53 8 310 -3 328 -3 5 -7
29 -10 53 -6 57 -16 109 -25 134 -19 51 -53 151 -55 165 -3 21 -58 132 -73
148 -7 7 -13 19 -13 26 0 8 -7 19 -15 26 -7 6 -28 37 -46 68 -36 63 -191 223
-290 297 -57 43 -238 142 -304 166 -76 29 -271 78 -335 85 -81 8 -224 10 -295
4z m305 -121 c25 -5 58 -12 73 -14 52 -9 152 -37 177 -50 43 -23 116 -55 126
-55 5 0 20 -9 34 -20 14 -11 33 -20 42 -20 9 0 23 -8 30 -18 7 -10 24 -22 38
-25 14 -3 43 -22 64 -42 21 -19 40 -35 42 -35 4 0 78 -75 129 -131 50 -55 91
-111 112 -154 40 -80 68 -130 76 -133 4 -2 7 -9 7 -16 0 -7 8 -30 19 -52 48
-102 82 -279 83 -441 1 -132 -20 -296 -48 -363 -8 -19 -15 -45 -17 -57 -2 -12
-6 -26 -10 -29 -4 -4 -7 -14 -7 -23 0 -29 -103 -217 -132 -243 -11 -9 -18 -18
-17 -20 3 -4 -31 -58 -48 -76 -7 -7 -13 -17 -13 -21 0 -13 -121 -127 -180
-170 -30 -22 -60 -44 -65 -49 -27 -22 -127 -82 -171 -102 -68 -31 -304 -107
-356 -115 -111 -16 -382 -1 -505 28 -197 47 -435 188 -579 340 -137 146 -193
233 -258 402 -46 120 -42 106 -70 275 -18 106 -21 292 -6 368 17 87 32 146 42
159 6 7 7 17 3 22 -3 6 4 32 17 58 12 26 23 50 23 53 8 33 89 190 98 190 4 0
7 5 7 10 0 20 109 156 182 226 80 78 198 167 238 179 14 4 32 14 41 21 13 12
81 43 204 93 54 23 209 55 228 48 7 -2 21 -1 32 4 29 11 262 10 315 -2z"/>
<path d="M1602 2650 c-133 -18 -176 -28 -257 -55 -40 -14 -211 -103 -294 -153
-47 -29 -146 -123 -201 -192 -19 -24 -42 -51 -50 -60 -18 -18 -56 -87 -116
-210 -92 -190 -119 -341 -99 -555 14 -158 35 -246 82 -340 41 -82 105 -189
116 -193 4 -2 7 -10 7 -17 0 -7 18 -32 40 -55 22 -23 46 -50 53 -59 16 -25
133 -121 145 -121 5 0 15 -7 23 -16 21 -25 169 -108 239 -133 87 -31 199 -62
213 -59 7 1 46 -4 87 -11 68 -12 220 -11 290 3 27 5 135 18 160 19 8 0 17 3
20 7 3 4 42 21 87 38 45 18 111 48 146 67 35 19 71 35 80 35 9 0 17 4 17 8 0
4 46 45 103 90 90 72 177 159 177 177 0 4 13 24 28 44 57 72 102 158 128 239
14 46 32 95 40 110 8 15 14 41 14 59 0 17 4 34 8 37 9 5 7 254 -2 335 -4 29
-12 63 -18 75 -7 11 -13 30 -15 41 -14 85 -94 275 -134 318 -10 11 -19 28 -19
37 0 8 -8 23 -17 32 -10 9 -33 37 -52 62 -18 25 -37 46 -42 46 -5 0 -9 7 -9
15 0 8 -4 15 -8 15 -5 0 -18 8 -30 18 -11 9 -42 35 -68 57 -51 43 -157 105
-179 105 -8 0 -56 19 -107 41 -51 23 -106 45 -123 50 -16 4 -50 15 -75 24 -24
9 -57 17 -73 17 -15 1 -29 4 -31 7 -6 10 -215 10 -284 1z m253 -109 c17 -5 48
-12 71 -15 111 -16 315 -107 392 -175 13 -11 27 -21 30 -21 12 -1 46 -34 85
-83 27 -33 46 -47 63 -47 13 0 31 -8 38 -17 40 -49 83 -112 101 -148 11 -22
25 -45 32 -52 6 -7 21 -39 33 -70 11 -32 25 -67 30 -78 13 -29 32 -115 34
-152 0 -18 4 -33 8 -33 4 0 7 -10 7 -22 -1 -13 1 -48 5 -78 6 -47 2 -110 -18
-266 -4 -37 -52 -149 -78 -183 -10 -13 -18 -29 -18 -36 0 -25 -86 -141 -157
-212 -65 -66 -168 -143 -191 -143 -6 0 -12 -7 -16 -15 -6 -17 -145 -85 -232
-113 -109 -36 -168 -45 -294 -46 -222 -2 -338 15 -448 65 -24 11 -62 27 -85
36 -102 41 -233 137 -300 221 -25 31 -56 71 -70 87 -29 35 -117 192 -117 209
0 6 -7 25 -16 41 -48 90 -69 277 -50 445 6 52 35 182 46 205 5 11 16 42 25 69
17 52 73 153 109 196 11 15 32 41 46 60 47 61 131 139 226 206 79 56 304 149
388 160 17 2 58 8 91 12 68 10 185 6 230 -7z"/>
<path d="M1244 2110 c-55 -46 -78 -115 -55 -165 5 -11 13 -32 19 -47 16 -38
51 -58 123 -68 51 -7 64 -6 78 7 19 20 49 81 71 148 l17 49 -34 32 c-19 18
-49 39 -68 49 -43 20 -125 18 -151 -5z m114 -113 c8 -7 9 -13 2 -22 -5 -6 -7
-15 -3 -18 3 -4 -3 -7 -14 -7 -11 0 -28 9 -38 20 -10 11 -13 20 -7 20 7 0 12
7 12 15 0 15 23 11 48 -8z"/>
<path d="M1950 2058 c-19 -22 -41 -52 -49 -66 -15 -27 -16 -83 -1 -92 4 -3 10
-15 14 -28 4 -12 22 -29 39 -38 18 -9 38 -22 46 -28 29 -23 93 -16 149 17 28
17 52 36 52 42 0 5 6 22 14 37 8 15 11 29 8 33 -3 3 -5 24 -3 45 2 29 -2 42
-13 46 -9 3 -16 12 -16 19 0 6 -12 12 -27 13 -16 0 -48 8 -73 17 -80 30 -101
27 -140 -17z m106 -121 c38 6 48 -12 10 -19 -28 -6 -56 8 -55 25 0 9 2 9 5 0
3 -7 18 -9 40 -6z"/>
<path d="M1253 1271 c-18 -8 -33 -19 -33 -24 0 -5 -9 -20 -20 -34 -66 -84 -28
-200 75 -228 50 -13 79 -11 99 8 11 9 25 17 30 17 6 0 24 14 40 31 40 42 40
103 0 161 -25 35 -32 39 -61 36 -28 -3 -34 0 -44 24 -13 31 -32 33 -86 9z m77
-141 l25 -20 -32 0 c-26 0 -33 4 -33 20 0 25 8 25 40 0z"/>
<path d="M1999 1253 c-27 -4 -118 -85 -120 -106 -7 -59 -3 -75 22 -111 46 -64
91 -78 172 -54 44 13 76 40 93 78 12 27 0 113 -16 118 -6 2 -10 12 -10 23 0
10 -4 19 -10 19 -5 0 -10 6 -10 14 0 8 -8 15 -17 15 -10 0 -31 2 -48 5 -16 2
-42 2 -56 -1z m51 -127 c0 -15 -38 -29 -52 -20 -11 7 21 33 40 34 6 0 12 -6
12 -14z"/>
</g>
</svg>
