<?xml version="1.0" standalone="no"?>
<!DOCTYPE svg PUBLIC "-//W3C//DTD SVG 20010904//EN"
 "http://www.w3.org/TR/2001/REC-SVG-20010904/DTD/svg10.dtd">
<svg version="1.0" xmlns="http://www.w3.org/2000/svg"
 width="527.000000pt" height="417.000000pt" viewBox="0 0 527.000000 417.000000"
 preserveAspectRatio="xMidYMid meet">
<metadata>
Created by potrace 1.16, written by Peter Selinger 2001-2019
</metadata>
<g transform="translate(0.000000,417.000000) scale(0.100000,-0.100000)"
fill="#000000" stroke="none">
<path d="M3792 3970 c-13 -6 -27 -8 -32 -5 -4 3 -13 -1 -19 -8 -6 -8 -39 -22
-73 -31 -35 -10 -90 -31 -123 -47 -33 -16 -96 -41 -140 -55 -44 -14 -96 -35
-115 -47 -19 -12 -43 -23 -54 -24 -11 -2 -24 -7 -30 -11 -6 -5 -33 -16 -61
-26 -27 -10 -59 -21 -70 -26 -11 -5 -63 -23 -115 -40 -52 -17 -135 -47 -185
-67 -102 -40 -203 -73 -225 -73 -8 0 -27 -11 -41 -24 -14 -13 -43 -29 -65 -37
-21 -7 -43 -16 -49 -20 -5 -4 -73 -31 -150 -59 -77 -29 -162 -61 -190 -72 -27
-11 -59 -22 -70 -25 -11 -4 -29 -12 -40 -20 -11 -7 -29 -13 -41 -13 -12 0 -46
-9 -76 -19 -29 -10 -73 -25 -98 -31 -90 -26 -194 -61 -244 -84 -28 -13 -62
-27 -76 -31 -14 -4 -44 -15 -67 -26 -23 -10 -59 -23 -80 -28 -39 -10 -145 -50
-198 -76 -16 -8 -61 -24 -100 -35 -84 -25 -94 -29 -165 -62 -78 -37 -237 -90
-285 -94 -22 -2 -41 -8 -43 -14 -2 -5 -20 -12 -39 -16 -20 -4 -63 -22 -95 -40
-33 -19 -75 -41 -94 -49 -19 -8 -51 -22 -71 -32 -48 -21 -67 -40 -71 -70 -3
-25 17 -83 30 -83 10 0 68 -105 68 -123 0 -22 63 -138 127 -235 30 -45 72
-120 94 -167 22 -46 44 -87 49 -90 6 -3 10 -13 10 -21 0 -8 5 -20 10 -27 34
-39 306 -595 395 -807 15 -36 42 -97 61 -137 18 -39 37 -87 42 -105 5 -18 26
-69 45 -114 22 -49 34 -89 31 -102 -4 -12 2 -33 13 -49 28 -42 47 -103 35
-115 -12 -12 13 -116 34 -139 8 -8 14 -25 14 -37 0 -13 10 -27 28 -36 23 -12
30 -12 47 0 10 8 26 14 36 14 9 0 19 6 22 14 5 14 15 19 112 68 77 39 268 120
285 120 8 1 17 4 20 7 5 6 107 58 209 105 30 14 62 26 71 26 9 0 21 5 28 12 7
7 12 8 12 3 0 -4 8 0 19 9 10 9 22 16 27 15 5 -1 22 3 37 9 16 7 32 10 37 7 4
-2 15 4 25 15 10 11 25 20 34 20 16 0 45 14 174 84 37 20 109 52 160 72 51 20
96 40 102 45 5 5 15 9 22 9 7 0 60 23 117 50 57 28 110 50 117 50 8 0 30 8 49
19 19 10 50 22 69 26 18 4 49 18 68 31 20 13 42 24 49 24 7 0 39 13 71 29 63
33 148 70 203 91 19 7 42 19 50 26 8 7 40 22 70 34 30 12 82 34 115 50 33 16
72 32 88 35 15 4 27 10 27 14 0 10 102 55 158 70 23 7 42 15 42 19 0 9 45 28
86 37 17 3 41 15 52 25 12 11 24 20 27 20 11 0 269 109 350 149 44 21 121 55
170 76 50 21 113 48 140 60 28 12 66 28 85 34 52 19 83 34 98 49 7 6 17 12 21
12 4 0 12 12 17 28 12 33 -7 134 -38 202 -35 75 -46 103 -59 148 -7 23 -16 42
-20 42 -4 0 -15 21 -25 48 -10 26 -36 76 -59 112 -23 36 -49 84 -58 106 -8 23
-27 57 -40 77 -13 19 -30 57 -37 84 -7 26 -26 66 -42 87 -15 22 -28 45 -28 51
0 12 -69 147 -79 155 -14 11 -79 118 -106 174 -15 33 -34 67 -43 75 -8 8 -29
45 -47 82 -18 37 -48 90 -69 117 -20 27 -36 54 -36 59 0 5 -11 20 -25 33 -14
13 -24 28 -22 34 2 6 -11 29 -29 53 -17 23 -40 63 -50 90 -9 26 -23 55 -31 64
-7 8 -13 20 -13 25 0 5 -16 33 -35 61 -19 29 -35 63 -35 76 0 28 -17 47 -37
40 -8 -3 -18 -1 -22 5 -9 15 -101 24 -129 12z m98 -136 c0 -5 13 -20 29 -32
16 -11 48 -59 73 -109 75 -146 107 -200 191 -317 53 -74 127 -211 298 -551 55
-110 116 -227 135 -260 19 -33 44 -81 56 -107 11 -27 24 -48 29 -48 4 0 11
-15 14 -32 4 -18 14 -41 23 -50 8 -10 13 -18 9 -18 -3 0 12 -34 34 -76 21 -41
39 -82 39 -90 0 -7 3 -14 8 -14 4 0 13 -19 20 -42 7 -23 22 -61 33 -85 27 -59
35 -103 19 -103 -7 0 -22 -11 -34 -23 -12 -13 -35 -27 -50 -31 -15 -4 -70 -27
-121 -51 -52 -25 -99 -45 -105 -45 -10 0 -50 -20 -60 -30 -9 -9 -120 -60 -131
-60 -6 0 -40 -14 -76 -30 -35 -17 -70 -30 -76 -30 -7 0 -21 -7 -31 -15 -11 -8
-30 -15 -42 -15 -12 0 -27 -7 -34 -15 -7 -8 -19 -15 -26 -15 -8 0 -22 -4 -32
-9 -9 -5 -35 -14 -57 -21 -53 -16 -142 -58 -150 -69 -3 -5 -18 -12 -34 -16
-15 -3 -37 -14 -47 -23 -30 -28 -90 -62 -108 -62 -10 0 -32 -11 -49 -24 -18
-13 -43 -27 -57 -31 -14 -4 -56 -23 -94 -41 -38 -19 -73 -34 -78 -34 -10 0
-58 -22 -213 -95 -120 -57 -155 -72 -185 -80 -14 -4 -65 -25 -115 -47 -137
-62 -152 -68 -163 -68 -5 0 -15 -6 -21 -14 -7 -8 -24 -17 -39 -21 -15 -4 -58
-21 -97 -39 -38 -19 -88 -39 -110 -46 -22 -6 -59 -20 -82 -31 -24 -10 -46 -19
-49 -19 -3 0 -40 -16 -81 -35 -41 -19 -79 -33 -83 -30 -5 3 -11 1 -14 -4 -3
-5 -18 -12 -33 -16 -16 -3 -73 -28 -128 -55 -246 -117 -279 -132 -330 -150
-30 -10 -55 -16 -55 -13 0 3 -6 1 -12 -5 -7 -5 -33 -15 -58 -22 -46 -11 -191
-64 -222 -81 -10 -5 -29 -9 -43 -9 -19 0 -25 5 -25 23 0 12 -7 41 -15 65 -9
24 -13 48 -9 53 3 6 -1 16 -10 22 -9 7 -27 44 -40 82 -31 88 -98 245 -124 288
-11 17 -32 61 -47 97 -15 36 -35 74 -45 85 -23 25 -95 179 -104 221 -4 18 -26
63 -50 101 -23 37 -55 97 -71 133 -17 35 -39 81 -50 102 -11 21 -47 91 -80
156 -33 64 -63 119 -66 122 -3 3 -20 34 -37 70 -70 149 -143 299 -176 360 -20
36 -36 71 -36 78 0 8 -9 25 -20 39 -11 14 -17 29 -14 34 3 5 1 9 -4 9 -6 0
-12 6 -15 14 -4 10 12 21 51 37 31 13 59 25 62 28 15 17 110 55 141 57 20 1
56 13 80 27 24 14 76 38 114 52 39 15 77 33 86 41 9 8 19 11 22 8 4 -4 12 -2
19 3 7 6 29 14 48 18 19 4 41 11 50 16 8 5 53 22 100 38 143 49 229 82 313
120 26 11 56 21 67 21 10 0 23 6 27 13 4 6 13 12 18 12 27 1 115 28 115 36 0
5 5 9 11 9 6 0 17 7 25 15 14 14 41 20 73 16 8 -2 10 2 5 10 -5 9 -1 11 14 7
12 -4 20 -2 16 3 -3 5 7 9 23 10 15 0 35 2 43 4 8 2 26 6 39 9 13 3 35 13 50
23 14 10 31 18 36 19 6 0 28 6 50 12 22 6 54 13 70 16 17 3 38 15 47 26 10 13
22 18 29 14 8 -5 9 -3 4 6 -6 10 -4 12 9 7 10 -4 32 -1 49 7 18 7 52 19 77 26
25 7 48 17 52 24 4 6 12 12 18 12 5 1 12 3 15 4 7 4 16 6 60 14 34 7 110 47
125 67 3 4 19 9 35 12 17 2 48 16 69 31 21 14 46 27 55 27 9 1 21 2 26 4 6 1
21 3 35 4 23 2 24 3 5 12 -15 7 -13 8 12 3 17 -3 40 0 50 5 29 17 123 51 123
45 0 -3 14 5 32 18 35 24 44 27 101 35 20 3 37 9 37 14 0 5 6 9 14 9 7 0 25 9
40 21 15 11 33 18 42 15 8 -3 12 -2 9 4 -6 9 10 14 43 13 6 -1 12 3 12 8 0 5
11 7 24 3 13 -3 27 -1 31 5 3 6 11 9 16 5 5 -3 23 6 41 21 47 40 102 65 128
58 12 -3 25 -1 30 6 4 7 13 14 21 15 41 8 69 19 69 27 0 5 16 9 35 9 19 0 35
3 35 8 0 12 82 44 102 39 10 -3 21 -1 24 5 3 5 17 7 29 4 13 -3 27 -2 30 4 7
12 45 -10 45 -26z"/>
<path d="M3686 3653 c-26 -31 -30 -32 -46 -18 -25 23 -43 18 -78 -21 -18 -20
-32 -31 -32 -25 0 6 -11 13 -25 17 -34 8 -75 -19 -75 -51 0 -34 -20 -42 -40
-15 -23 31 -54 19 -73 -28 -19 -48 -43 -70 -59 -54 -7 7 -8 12 -4 12 5 0 -3 9
-17 20 -33 26 -53 25 -68 -2 -7 -13 -12 -24 -11 -25 1 -2 2 -21 2 -43 0 -38
-1 -39 -26 -30 -14 6 -27 10 -29 10 -4 0 -16 -61 -16 -85 0 -11 6 -24 14 -30
7 -5 22 -25 32 -42 20 -35 37 -39 81 -23 23 9 25 9 15 -4 -19 -23 -40 -101
-31 -116 5 -7 22 -13 39 -13 35 0 37 -5 16 -33 -21 -28 -18 -53 8 -63 20 -8
23 -15 19 -40 -5 -37 9 -58 48 -66 24 -5 28 -11 26 -38 -1 -27 2 -32 22 -31
12 0 22 0 22 -1 0 -2 -7 -18 -15 -38 -13 -32 -13 -36 4 -51 11 -10 25 -16 33
-15 38 5 45 -1 43 -37 -3 -52 48 -101 101 -95 5 0 27 17 48 36 43 39 61 43 87
19 30 -27 48 -11 51 48 4 71 28 73 43 3 6 -33 16 -51 27 -53 25 -5 29 12 16
67 -9 40 -9 53 2 66 18 22 25 19 39 -21 9 -24 18 -34 29 -32 14 3 16 14 14 76
-2 39 0 72 5 72 9 0 26 -28 37 -62 6 -20 14 -22 35 -9 12 8 13 16 2 50 -19 65
-1 72 28 10 32 -67 63 -77 80 -28 6 18 11 47 11 65 0 18 5 36 11 40 7 4 9 21
6 40 -3 19 -1 36 4 39 18 12 9 54 -15 71 -21 13 -23 19 -15 40 14 40 11 54
-16 64 -21 8 -25 16 -25 50 0 36 -4 43 -34 61 -22 13 -36 30 -40 49 -4 22 -16
35 -41 47 -36 17 -43 27 -25 38 6 3 10 21 10 40 0 24 -7 39 -25 53 -18 15 -25
29 -25 55 0 35 -1 36 -57 47 -38 8 -68 22 -88 40 l-30 27 -29 -34z m34 -62 c0
-5 25 -15 55 -22 30 -7 55 -14 55 -16 0 -3 -7 -11 -16 -20 -8 -9 -14 -27 -12
-42 3 -28 25 -32 76 -16 24 8 24 7 9 -22 -9 -16 -23 -35 -31 -42 -9 -8 -16
-25 -16 -39 0 -20 3 -23 12 -14 7 7 16 8 22 3 6 -5 22 -11 36 -13 22 -3 25 -7
22 -39 -3 -33 0 -38 29 -48 18 -6 40 -11 50 -11 24 0 24 -5 -1 -30 -28 -28 -9
-70 32 -70 15 0 28 -4 28 -10 0 -5 -3 -10 -7 -10 -17 -1 -44 -51 -38 -70 5
-15 15 -20 43 -20 l37 -1 -22 -18 c-24 -20 -31 -55 -13 -66 10 -6 8 -60 -3
-72 -4 -3 -7 -1 -7 5 0 14 -47 57 -63 58 -7 0 -22 -6 -35 -13 -13 -8 -30 -12
-37 -9 -19 7 -56 -37 -53 -64 2 -17 -3 -25 -17 -28 -11 -2 -29 -13 -41 -23
-11 -11 -31 -18 -44 -17 -19 3 -28 -6 -49 -49 -20 -39 -30 -50 -40 -44 -9 6
-26 2 -48 -10 -18 -10 -40 -19 -48 -19 -7 0 -17 -9 -20 -20 -7 -23 -25 -27
-25 -5 0 8 -7 15 -16 15 -13 0 -14 9 -9 55 7 55 3 63 -30 55 -28 -6 -41 -7
-47 -3 -10 5 18 60 34 65 24 8 -1 38 -32 38 -26 0 -30 3 -30 29 0 30 -14 41
-56 41 -24 0 -33 23 -14 35 6 3 10 17 10 31 0 19 -5 24 -26 24 -21 0 -25 4
-19 18 25 65 16 92 -32 92 -28 0 -29 8 -2 64 30 60 21 80 -30 71 -55 -9 -81 7
-81 50 0 29 4 34 28 37 28 3 29 5 17 53 l-7 30 24 -22 c42 -39 85 -27 108 31
15 39 39 47 47 17 6 -22 26 -33 46 -25 7 2 20 23 28 46 16 44 39 62 39 31 0
-22 18 -43 37 -43 7 0 25 19 39 43 34 54 31 52 49 37 18 -15 65 -5 65 14 0 13
13 23 33 25 4 1 7 -3 7 -8z"/>
<path d="M3666 3465 c-15 -8 -36 -15 -46 -15 -10 0 -25 -6 -32 -13 -15 -16
-20 -17 -52 -17 -14 0 -31 -6 -38 -12 -16 -15 -29 -19 -83 -23 -57 -4 -73 -13
-80 -45 -8 -37 3 -79 32 -113 13 -16 21 -33 17 -38 -3 -5 -1 -9 4 -9 5 0 15
-13 22 -30 7 -16 16 -30 20 -30 4 0 15 -18 24 -40 9 -22 20 -40 25 -40 6 0 14
-15 19 -32 5 -18 28 -64 51 -103 22 -38 41 -77 41 -87 0 -10 9 -22 19 -28 36
-19 69 -11 103 23 47 47 114 97 129 97 8 0 25 9 39 20 14 11 30 20 37 20 31 0
63 24 63 47 0 37 -56 159 -115 248 -29 44 -70 115 -91 158 -41 84 -53 90 -108
62z"/>
<path d="M4004 2549 c-10 -12 -23 -44 -29 -72 -12 -61 -35 -73 -52 -27 -8 22
-18 30 -36 30 -21 0 -27 -8 -42 -56 -9 -30 -25 -58 -34 -61 -9 -4 -27 -15 -41
-25 -18 -15 -33 -18 -62 -13 -33 6 -43 3 -65 -19 -14 -14 -40 -28 -58 -32 -25
-4 -36 -13 -43 -33 -11 -32 -103 -71 -126 -52 -26 22 -78 -15 -69 -49 2 -9 -2
-22 -11 -29 -12 -10 -18 -9 -35 6 -29 24 -61 32 -88 20 -24 -11 -35 -33 -41
-84 -3 -18 -22 -16 -43 2 -11 11 -26 14 -43 9 -25 -6 -30 -15 -38 -69 -3 -16
-11 -20 -38 -20 -32 0 -35 -3 -38 -30 -5 -56 65 -99 98 -60 7 8 20 30 30 48
10 17 28 35 41 38 53 13 65 22 82 60 l19 39 25 -20 c36 -28 62 -25 103 14 19
18 56 41 81 51 29 10 51 26 57 41 7 13 23 26 39 29 36 8 93 35 117 58 18 16
43 22 74 18 6 -1 12 3 12 8 0 6 17 13 38 16 71 12 77 14 97 44 14 21 23 27 35
21 8 -4 27 -6 42 -3 21 4 31 15 44 49 14 36 21 44 43 44 38 0 55 14 48 41 -3
12 -2 31 4 41 8 15 6 18 -14 18 -14 0 -30 7 -37 15 -16 20 -23 19 -46 -6z"/>
<path d="M3335 2550 c-3 -5 -13 -10 -21 -10 -26 0 -84 -61 -84 -89 0 -24 -2
-23 -25 15 -27 46 -42 55 -74 47 -15 -4 -21 -13 -21 -34 0 -16 5 -29 10 -29
12 0 13 -37 1 -44 -5 -3 -19 19 -31 49 -12 30 -27 56 -34 57 -34 4 -42 2 -54
-14 -8 -11 -10 -31 -6 -56 7 -43 -12 -72 -46 -72 -10 0 -21 -4 -24 -9 -3 -4
-31 -16 -62 -26 -90 -28 -119 -70 -60 -86 31 -9 44 -3 123 54 61 43 79 46 87
13 8 -32 32 -56 56 -56 23 0 66 41 75 72 12 37 26 50 40 38 14 -11 65 -3 65
10 0 4 20 24 45 44 l44 37 20 -20 c17 -17 25 -19 45 -9 29 13 41 37 26 52 -5
5 -10 17 -10 26 0 9 -13 23 -29 33 -33 19 -47 21 -56 7z"/>
<path d="M4112 2219 c-22 -7 -32 -15 -29 -23 3 -8 -5 -30 -19 -49 -25 -38 -41
-40 -75 -10 -9 7 -24 11 -33 7 -20 -8 -96 -102 -96 -120 0 -10 -18 -13 -72
-13 -60 1 -74 -2 -87 -19 -25 -31 -62 -47 -72 -31 -4 7 -6 16 -3 20 8 14 -37
16 -51 2 -14 -13 -13 -18 6 -44 23 -33 59 -38 106 -15 48 24 103 38 151 38 43
1 82 21 82 44 0 4 7 15 15 24 12 13 24 16 54 10 52 -9 99 11 112 47 8 24 15
28 47 28 35 0 37 2 36 30 0 17 4 33 9 36 5 4 6 16 2 28 -7 23 -28 25 -83 10z"/>
<path d="M4147 1982 c-23 -25 -21 -48 3 -69 11 -10 20 -23 20 -30 0 -20 34
-15 58 7 36 34 29 66 -20 90 -50 24 -42 24 -61 2z"/>
<path d="M3357 1893 c-4 -3 -7 -18 -7 -32 0 -14 -9 -39 -19 -54 l-19 -29 -19
21 c-19 20 -47 21 -63 2 -3 -4 -18 -11 -35 -17 -29 -10 -30 -11 -28 -73 4
-102 44 -119 87 -37 14 25 26 36 42 36 13 0 26 5 29 10 3 6 14 10 24 10 13 0
21 10 25 35 6 32 10 35 41 35 19 0 35 4 35 9 0 5 9 11 21 14 29 8 14 27 -22
27 -22 0 -29 5 -29 19 0 25 -45 42 -63 24z"/>
<path d="M4000 1880 c0 -5 -6 -10 -13 -10 -7 0 -14 -13 -15 -30 -2 -24 3 -32
27 -45 36 -18 77 -20 88 -2 14 22 14 57 1 71 -18 17 -88 30 -88 16z"/>
<path d="M3817 1832 c-22 -24 -21 -38 4 -78 24 -39 57 -45 77 -13 16 26 7 58
-26 87 -30 27 -34 27 -55 4z"/>
<path d="M3593 1675 c-49 -21 -45 -45 13 -98 30 -27 32 -27 60 -11 66 38 97
113 41 99 -15 -4 -28 -1 -36 9 -16 19 -36 20 -78 1z"/>
<path d="M3422 1622 c-13 -9 -9 -102 5 -126 4 -6 -1 -5 -11 3 -9 8 -14 21 -12
28 5 11 -2 13 -27 11 -29 -3 -32 -6 -35 -39 -4 -53 19 -73 76 -64 76 11 74 9
70 97 -2 56 -8 82 -18 88 -18 12 -31 12 -48 2z"/>
</g>
</svg>
