<?xml version="1.0" standalone="no"?>
<!DOCTYPE svg PUBLIC "-//W3C//DTD SVG 20010904//EN"
 "http://www.w3.org/TR/2001/REC-SVG-20010904/DTD/svg10.dtd">
<svg version="1.0" xmlns="http://www.w3.org/2000/svg"
 width="453.000000pt" height="443.000000pt" viewBox="0 0 453.000000 443.000000"
 preserveAspectRatio="xMidYMid meet">
<metadata>
Created by potrace 1.16, written by Peter Selinger 2001-2019
</metadata>
<g transform="translate(0.000000,443.000000) scale(0.100000,-0.100000)"
fill="#000000" stroke="none">
<path d="M350 4238 c-16 -13 -21 -28 -20 -50 9 -152 1 -479 -13 -518 -3 -8 -8
-33 -12 -55 -4 -21 -16 -52 -28 -69 -20 -28 -26 -77 -14 -109 11 -28 65 -50
96 -38 20 7 171 41 186 41 3 0 -21 -101 -30 -122 -4 -10 -11 -18 -17 -18 -5 0
-8 -17 -6 -37 3 -32 9 -40 47 -61 40 -22 52 -24 115 -18 39 3 86 9 104 12 40
8 44 -16 7 -40 -60 -39 -70 -124 -20 -176 21 -22 34 -28 54 -24 22 4 40 -9
119 -84 120 -114 125 -119 137 -131 6 -6 29 -27 53 -48 23 -20 42 -42 42 -49
0 -22 48 -27 123 -14 136 24 133 24 120 9 -7 -7 -13 -20 -13 -29 0 -9 -11 -31
-25 -50 -17 -23 -24 -44 -22 -65 4 -38 42 -95 63 -95 18 0 113 -96 124 -126 6
-14 20 -23 41 -26 28 -4 39 1 72 34 22 21 56 48 77 58 21 11 40 23 42 27 6 9
1 -8 -15 -59 -6 -20 -19 -39 -29 -41 -10 -3 -18 -12 -18 -21 0 -9 -4 -16 -9
-16 -5 0 -8 -11 -5 -25 2 -14 -3 -36 -12 -50 -16 -24 -15 -26 10 -51 15 -16
32 -24 41 -20 9 3 15 0 15 -10 0 -8 11 -19 24 -24 25 -9 86 -69 86 -84 0 -15
33 -35 58 -36 14 0 22 -6 22 -17 0 -10 16 -29 36 -43 20 -13 47 -42 61 -63 23
-36 23 -41 10 -70 -51 -108 -90 -308 -88 -454 1 -147 54 -384 110 -490 5 -10
20 -40 32 -68 13 -27 27 -54 32 -60 4 -5 20 -26 35 -46 15 -20 38 -51 52 -69
66 -87 212 -218 295 -264 17 -9 44 -25 60 -36 96 -62 276 -123 414 -141 129
-16 321 -11 396 11 17 5 50 12 74 15 77 12 293 116 366 176 26 21 51 39 56 39
14 0 199 190 199 205 0 7 6 15 13 18 6 3 21 22 32 43 10 22 34 63 52 92 18 29
33 56 33 60 0 4 7 20 15 36 23 43 55 145 61 189 3 21 9 49 14 63 5 13 8 24 5
24 -2 0 1 15 6 33 15 47 11 229 -6 327 -8 47 -17 100 -20 118 -3 17 -11 49
-19 70 -7 20 -19 55 -26 77 -7 22 -27 62 -44 89 -17 28 -31 56 -32 63 -1 7 -9
20 -18 29 -9 9 -23 30 -31 47 -19 42 -34 62 -72 103 -18 19 -33 39 -33 44 0 6
-4 10 -9 10 -5 0 -46 36 -92 80 -45 44 -102 90 -128 102 -25 13 -52 29 -60 36
-8 8 -24 18 -35 23 -12 5 -34 17 -51 27 -31 19 -242 91 -285 98 -14 2 -54 6
-90 9 -36 4 -76 9 -90 12 -28 7 -39 7 -190 -1 l-105 -4 -65 63 c-120 116 -152
145 -161 145 -5 0 -9 4 -9 8 0 5 -23 31 -51 58 -28 27 -83 81 -123 119 -39 39
-114 108 -166 153 -52 46 -146 132 -208 190 -63 59 -130 120 -150 137 -20 16
-54 48 -77 70 -22 22 -72 67 -110 100 -37 33 -100 91 -139 128 -39 38 -93 89
-121 115 -27 25 -106 97 -174 161 -185 172 -183 171 -265 245 -42 38 -76 74
-76 80 0 8 -86 11 -294 11 -266 0 -297 -2 -316 -17z m477 -109 c29 0 55 -5 58
-10 4 -5 15 -9 26 -9 10 0 19 -4 19 -10 0 -5 4 -10 10 -10 5 0 19 -8 31 -17
11 -10 30 -26 42 -36 12 -10 74 -67 137 -126 63 -60 153 -141 200 -181 47 -40
119 -106 160 -146 41 -40 98 -94 127 -121 28 -26 75 -70 104 -98 29 -27 64
-57 76 -66 13 -9 106 -95 206 -191 100 -96 202 -193 225 -214 40 -36 204 -190
227 -215 6 -5 19 -18 29 -27 24 -22 39 -37 103 -105 29 -30 57 -57 61 -59 5
-1 28 -25 51 -53 23 -27 48 -58 57 -67 20 -21 106 -42 134 -33 62 20 219 28
305 15 44 -6 96 -13 115 -16 34 -4 56 -12 202 -68 37 -14 96 -46 132 -70 35
-24 66 -42 69 -40 9 9 254 -243 270 -278 10 -20 22 -40 27 -43 6 -3 10 -17 10
-31 0 -13 4 -24 9 -24 13 0 58 -83 66 -122 4 -18 11 -37 15 -43 4 -5 18 -55
31 -110 19 -82 23 -125 22 -241 -1 -156 -16 -232 -78 -396 -31 -84 -129 -248
-147 -248 -5 0 -8 -7 -8 -15 0 -8 -3 -15 -7 -15 -5 0 -28 -25 -53 -55 -25 -31
-58 -64 -75 -75 -16 -11 -55 -38 -85 -60 -30 -22 -71 -47 -90 -56 -19 -8 -37
-18 -40 -23 -3 -4 -45 -23 -95 -41 -206 -77 -358 -87 -625 -42 -66 11 -167 50
-270 104 -65 34 -95 55 -168 113 -32 26 -137 133 -161 165 -14 19 -34 44 -43
54 -10 11 -21 29 -24 40 -4 12 -10 23 -13 26 -27 21 -97 180 -118 265 -8 33
-19 80 -25 105 -11 48 -15 318 -5 360 29 123 60 225 77 255 20 36 26 76 13 89
-4 4 -8 13 -8 19 -2 40 -18 74 -43 85 -15 7 -38 28 -52 47 -14 19 -29 33 -35
31 -17 -6 -45 14 -45 31 0 19 -54 73 -74 73 -21 0 -57 55 -62 96 -3 22 4 57
20 97 56 145 59 178 20 213 -14 13 -27 24 -29 24 -10 0 -120 -44 -129 -51 -6
-5 -27 -22 -47 -39 -54 -44 -84 -40 -142 18 -46 47 -48 50 -41 93 6 40 13 59
47 124 36 69 37 73 27 99 -15 42 -50 52 -96 28 -59 -29 -133 -51 -187 -54 -47
-2 -48 -1 -145 88 -53 50 -119 110 -146 135 -27 24 -60 54 -73 65 -26 24 -41
78 -24 88 5 4 8 13 5 20 -3 7 1 16 9 19 8 3 17 18 21 32 4 15 14 34 22 43 18
17 11 76 -11 98 -15 16 -86 19 -101 4 -11 -11 -183 -42 -194 -35 -10 6 37 144
55 165 9 10 11 26 6 50 -5 27 -14 37 -36 45 -17 5 -32 12 -35 16 -10 12 -46 5
-80 -16 -42 -26 -130 -41 -130 -22 0 6 5 32 11 57 13 55 23 167 27 323 1 31 5
57 10 57 4 0 26 -17 48 -38 23 -20 55 -47 70 -59 16 -12 48 -39 70 -60 23 -21
72 -65 109 -98 38 -33 82 -74 100 -91 18 -18 61 -56 96 -87 35 -30 86 -75 113
-101 27 -26 76 -70 109 -99 33 -29 68 -59 76 -67 9 -8 64 -57 121 -109 140
-126 316 -289 408 -378 41 -40 77 -73 80 -73 5 0 75 -67 198 -189 24 -24 44
-48 44 -52 0 -4 8 -10 19 -14 10 -3 54 -39 97 -81 44 -41 87 -82 96 -91 10 -9
18 -22 18 -30 0 -7 11 -13 25 -13 27 0 51 33 39 53 -11 17 -164 161 -211 198
-36 29 -139 122 -281 258 -80 76 -121 113 -187 170 -27 24 -84 76 -125 115
-41 39 -93 86 -115 105 -22 19 -67 59 -100 90 -90 83 -161 147 -245 220 -41
36 -79 71 -83 78 -4 7 -15 13 -22 13 -8 0 -15 4 -15 8 0 11 -71 80 -265 257
-160 146 -210 195 -202 195 8 0 267 -226 292 -254 21 -24 202 -182 245 -215
25 -19 68 -55 95 -81 202 -191 303 -284 454 -419 94 -85 186 -166 203 -180 17
-14 48 -42 68 -61 20 -19 87 -82 150 -140 62 -58 122 -115 133 -127 11 -13 24
-23 28 -23 17 0 210 -185 202 -194 -3 -3 1 -6 10 -6 16 0 113 -90 132 -123 6
-10 24 -19 40 -20 27 -2 30 1 33 29 2 18 -3 38 -11 45 -89 87 -336 307 -367
328 -14 9 -45 36 -70 61 -25 25 -90 86 -144 135 -55 50 -114 104 -132 120 -52
48 -145 129 -199 175 -27 24 -72 65 -100 93 -27 27 -70 66 -95 86 -25 19 -56
47 -70 61 -14 14 -70 65 -125 114 -55 49 -125 112 -156 140 -30 28 -100 92
-154 141 -54 50 -111 101 -126 115 -15 14 -64 59 -109 100 -45 41 -116 107
-158 146 l-75 71 87 1 c48 0 89 2 92 5 2 2 17 3 32 1 15 -2 51 -4 79 -5z
m-356 -72 c-13 -13 -31 0 -24 19 4 11 8 12 20 3 9 -8 10 -16 4 -22z"/>
<path d="M3480 875 c-7 -8 -19 -15 -26 -15 -23 0 -46 -71 -51 -160 l-6 -86 50
-44 c84 -75 158 -84 243 -30 27 17 52 40 55 51 4 10 10 19 15 19 12 0 30 58
30 101 0 50 -17 87 -56 126 -29 28 -37 31 -86 28 -29 -1 -61 -6 -70 -10 -13
-5 -18 -3 -18 8 0 28 -59 37 -80 12z m100 -79 c0 -8 6 -17 13 -20 80 -40 93
-68 51 -115 -27 -31 -34 -32 -97 -16 -47 12 -49 79 -4 136 24 31 37 36 37 15z"/>
</g>
</svg>
