<?xml version="1.0" standalone="no"?>
<!DOCTYPE svg PUBLIC "-//W3C//DTD SVG 20010904//EN"
 "http://www.w3.org/TR/2001/REC-SVG-20010904/DTD/svg10.dtd">
<svg version="1.0" xmlns="http://www.w3.org/2000/svg"
 width="543.000000pt" height="507.000000pt" viewBox="0 0 543.000000 507.000000"
 preserveAspectRatio="xMidYMid meet">
<metadata>
Created by potrace 1.16, written by Peter Selinger 2001-2019
</metadata>
<g transform="translate(0.000000,507.000000) scale(0.100000,-0.100000)"
fill="#000000" stroke="none">
<path d="M1180 5025 c0 -6 -17 -17 -37 -24 -81 -28 -170 -75 -218 -114 -83
-68 -185 -169 -223 -222 -20 -27 -42 -54 -49 -60 -17 -14 -63 -102 -63 -121 0
-9 -5 -25 -12 -37 -6 -12 -13 -29 -14 -37 -1 -8 -7 -33 -13 -55 -13 -50 -14
-200 -2 -224 5 -9 11 -30 13 -46 4 -28 35 -106 60 -150 6 -11 19 -33 27 -50 9
-16 18 -32 21 -35 3 -3 18 -25 32 -50 33 -57 113 -141 158 -166 19 -10 38 -24
42 -30 18 -27 158 -51 279 -48 76 2 111 8 184 34 106 37 255 108 255 121 0 5
6 9 14 9 15 0 62 43 119 110 49 56 102 169 118 249 13 68 7 227 -10 257 -6 11
-17 34 -26 51 l-15 33 27 -10 c16 -6 35 -13 43 -16 8 -3 39 -7 69 -9 29 -1 56
-7 60 -12 3 -5 26 -9 51 -8 43 0 123 -20 145 -36 6 -5 30 -11 53 -15 41 -6
112 -61 112 -86 0 -6 11 -8 24 -6 15 3 27 0 30 -8 3 -8 15 -14 27 -14 11 0 36
-7 55 -16 43 -21 60 -14 79 32 l15 36 67 -6 c38 -4 80 -8 94 -10 24 -4 28 2
57 88 33 95 42 169 20 164 -25 -5 -108 25 -108 38 0 8 -9 14 -21 14 -16 0 -19
4 -14 21 9 29 -2 65 -22 75 -10 4 -40 8 -68 10 -27 1 -58 3 -67 3 -10 1 -18 7
-18 15 0 17 -25 27 -46 19 -9 -3 -23 -6 -32 -7 -10 -1 -40 -14 -69 -28 -42
-23 -52 -25 -57 -13 -3 8 -12 15 -21 15 -8 0 -15 5 -15 10 0 6 -7 10 -15 10
-8 0 -15 5 -15 10 0 6 -7 10 -15 10 -8 0 -15 4 -15 9 0 5 -8 12 -18 15 -10 3
-33 21 -53 39 -39 37 -75 62 -133 95 -22 12 -43 26 -46 30 -8 13 -107 52 -129
52 -11 0 -22 4 -25 9 -6 9 -86 25 -181 36 -27 4 -84 11 -125 16 -41 5 -131 12
-200 15 -80 3 -127 10 -132 17 -5 7 -8 8 -8 2z m283 -112 c5 -3 29 -5 52 -5
24 1 77 -5 117 -14 40 -8 82 -16 93 -18 57 -9 93 -19 125 -33 89 -41 136 -68
148 -85 7 -10 20 -18 28 -18 8 0 40 -26 72 -57 32 -32 69 -64 83 -71 51 -27
89 -67 89 -94 0 -38 -40 -94 -65 -91 -11 2 -46 5 -78 7 -32 3 -96 14 -142 26
-73 18 -114 32 -220 75 -11 5 -33 10 -50 12 -16 3 -32 8 -35 11 -6 9 -25 13
-70 18 -19 1 -57 6 -85 10 -52 8 -216 9 -250 2 -33 -7 -92 -38 -120 -63 -14
-13 -25 -21 -25 -18 0 22 -84 -89 -101 -134 -5 -13 -9 -52 -10 -87 -1 -55 3
-72 29 -118 68 -119 178 -193 273 -185 56 5 129 39 168 78 16 16 36 29 44 29
29 0 53 164 30 204 -20 35 -85 74 -134 81 -45 6 -54 4 -91 -21 -23 -16 -43
-37 -46 -46 -2 -10 -8 -18 -13 -18 -15 0 -10 -16 12 -44 20 -25 21 -25 56 -11
20 9 43 24 50 35 28 40 74 15 88 -48 6 -29 3 -37 -30 -67 -42 -40 -115 -75
-157 -75 -61 0 -137 57 -169 127 -26 57 -26 144 1 168 11 10 22 25 25 35 7 22
59 60 87 63 13 1 32 10 43 20 16 15 33 17 100 14 84 -5 212 -35 267 -63 40
-21 91 -75 112 -118 8 -18 18 -76 22 -128 l7 -95 -42 -89 c-23 -49 -46 -91
-50 -94 -4 -3 -17 -20 -30 -38 -22 -31 -101 -90 -166 -122 -17 -8 -32 -18 -35
-21 -3 -3 -34 -18 -70 -32 -117 -46 -266 -63 -373 -41 -60 12 -136 43 -137 55
0 4 -23 31 -51 60 -28 30 -61 77 -75 104 -14 28 -42 83 -64 122 -21 40 -45 99
-53 130 -18 75 -14 224 7 255 9 12 16 30 16 40 0 9 5 29 12 45 6 15 11 31 10
36 -1 4 2 7 8 7 5 0 10 5 10 11 0 6 10 24 23 40 34 45 177 190 220 224 21 17
51 42 66 56 16 15 42 30 59 34 16 3 47 15 69 26 34 18 52 19 172 14 74 -3 138
-8 144 -12z m1028 -330 c1 -10 0 -22 -1 -28 -1 -5 -3 -19 -4 -30 -6 -41 -72
-185 -86 -185 -5 0 -10 5 -10 10 0 6 -6 10 -14 10 -8 0 -16 5 -18 11 -3 9 -20
15 -50 18 -9 1 1 31 18 51 6 8 16 35 21 60 9 46 11 48 93 84 45 20 50 20 51
-1z m129 -41 c0 -10 -4 -22 -9 -27 -4 -6 -13 -28 -19 -50 -5 -22 -20 -65 -31
-95 -12 -30 -21 -63 -21 -73 0 -14 -5 -17 -22 -11 -13 3 -24 8 -26 9 -8 7 63
211 84 243 17 26 44 29 44 4z m137 -125 c8 -5 8 -17 0 -42 -10 -33 -13 -35
-54 -35 -48 0 -65 19 -45 51 7 10 12 25 12 33 0 10 9 12 38 6 21 -4 43 -10 49
-13z"/>
<path d="M4390 4329 c-19 -4 -64 -9 -100 -12 -36 -3 -86 -12 -113 -20 -26 -9
-50 -15 -52 -15 -22 0 -94 -16 -108 -24 -10 -5 -26 -11 -35 -13 -68 -15 -151
-56 -212 -104 -73 -58 -184 -176 -205 -217 -11 -22 -22 -41 -25 -44 -3 -3 -13
-21 -22 -41 -10 -23 -26 -39 -41 -43 -14 -3 -58 -26 -98 -51 -40 -25 -77 -45
-82 -45 -17 0 -101 -66 -158 -125 -102 -107 -189 -236 -189 -283 0 -17 -20
-30 -110 -70 -50 -22 -64 -15 -48 27 5 14 9 27 8 29 -2 4 11 96 16 111 3 9 16
2 44 -23 22 -20 46 -36 54 -36 31 0 46 13 46 39 0 30 -10 42 -101 121 -100 86
-208 201 -233 248 -5 10 -21 31 -36 47 -15 17 -40 53 -55 80 -16 28 -44 69
-63 92 -35 41 -36 42 -101 41 -108 -1 -200 -43 -271 -123 -19 -22 -51 -55 -71
-75 -62 -62 -83 -98 -71 -125 7 -16 8 -25 1 -27 -6 -2 -1 -14 10 -27 11 -12
21 -26 23 -29 2 -4 35 -28 73 -54 75 -50 162 -131 235 -217 25 -30 53 -61 63
-70 24 -21 93 -123 102 -151 4 -11 18 -33 32 -48 l25 -27 -54 -50 c-105 -98
-261 -296 -280 -358 -10 -34 -16 -39 -67 -53 -98 -28 -217 -90 -289 -149 -51
-43 -179 -172 -207 -210 -16 -22 -33 -42 -36 -45 -4 -3 -28 -38 -53 -78 -52
-80 -106 -202 -106 -238 0 -16 -6 -24 -18 -24 -20 0 -177 -79 -262 -131 -69
-43 -101 -70 -167 -139 -96 -101 -107 -115 -149 -195 -15 -27 -37 -66 -51 -86
-15 -22 -22 -45 -19 -56 4 -14 -2 -22 -27 -32 -63 -27 -153 -94 -197 -148 -25
-31 -49 -61 -55 -67 -25 -29 -85 -127 -110 -180 -35 -76 -65 -146 -63 -149 0
-1 -16 -54 -36 -117 -29 -88 -38 -135 -41 -200 -1 -47 -4 -89 -6 -95 -7 -23
14 -51 53 -72 55 -28 184 -62 209 -56 25 7 34 44 21 93 -5 21 -6 42 -1 47 4 4
15 35 23 68 8 33 24 92 36 130 13 39 30 97 39 130 9 33 26 76 39 96 12 20 22
43 22 51 0 15 51 98 60 98 10 0 39 -76 43 -115 2 -22 17 -75 32 -117 22 -63
38 -88 86 -137 71 -73 113 -92 229 -106 14 -1 50 -6 81 -9 48 -6 63 -4 102 17
62 33 167 140 167 169 0 13 7 33 15 45 11 15 17 55 20 123 5 106 -6 160 -57
284 -22 53 -66 127 -83 138 -6 4 -33 28 -60 53 -28 26 -67 55 -88 66 -34 18
-51 49 -27 49 6 0 10 5 10 12 0 6 39 50 87 97 l88 86 6 -70 c3 -40 17 -95 32
-130 14 -33 30 -75 37 -92 7 -18 16 -33 21 -33 5 0 8 -3 6 -8 -3 -12 119 -133
127 -125 4 4 10 3 14 -2 17 -24 107 -67 140 -67 12 0 22 -3 22 -7 0 -4 8 -7
18 -8 9 0 47 -3 84 -7 85 -8 135 12 226 89 24 20 62 93 62 118 0 7 3 17 7 21
4 3 8 12 9 19 2 7 5 23 9 37 24 105 9 244 -37 339 -24 48 -137 168 -179 188
-148 71 -217 103 -227 103 -7 0 -12 2 -12 4 0 10 65 131 72 134 4 2 8 10 8 18
0 19 37 82 68 117 72 80 97 95 86 53 -3 -14 1 -57 10 -96 14 -61 35 -107 113
-253 8 -15 19 -27 24 -27 5 0 9 -6 9 -13 0 -16 73 -85 120 -114 19 -12 49 -23
65 -26 17 -3 48 -10 70 -16 40 -11 200 -8 258 5 51 10 88 33 135 83 59 62 90
131 93 206 1 33 6 70 10 82 11 29 -8 185 -27 226 -8 18 -26 48 -40 67 -31 45
-165 170 -181 170 -7 0 -13 5 -13 10 0 6 -6 10 -14 10 -18 0 -76 32 -76 43 0
4 -12 7 -26 7 -21 0 -25 3 -19 18 4 9 10 26 13 37 3 11 13 32 24 47 10 14 18
30 18 35 0 5 23 33 51 63 29 30 58 65 67 78 21 33 29 27 35 -25 3 -27 8 -58
11 -70 8 -37 49 -148 57 -153 3 -3 14 -19 23 -37 9 -18 25 -37 36 -43 11 -6
20 -15 20 -20 0 -12 117 -130 129 -130 6 0 11 -4 11 -8 0 -5 16 -16 36 -25 40
-19 50 -27 105 -79 21 -20 39 -34 39 -31 0 11 34 -23 55 -57 13 -19 36 -48 52
-65 15 -16 27 -31 26 -32 -9 -10 0 -22 22 -27 35 -9 199 -179 233 -242 7 -13
17 -24 22 -24 5 0 22 -21 37 -47 15 -27 33 -52 39 -58 28 -24 131 -197 186
-314 78 -164 108 -231 108 -243 0 -6 6 -24 14 -41 37 -81 48 -115 50 -155 2
-48 18 -65 55 -58 17 3 35 -7 65 -36 72 -69 84 -72 276 -82 106 -5 252 30 315
76 48 36 195 174 195 183 0 4 16 23 35 43 19 20 35 40 35 45 0 4 13 21 29 38
16 17 39 51 51 77 12 26 25 49 29 52 3 3 17 30 30 60 13 30 27 62 31 71 9 18
35 125 45 181 4 24 0 55 -11 85 -9 27 -18 65 -21 87 -2 21 -14 51 -25 67 -19
26 -30 31 -54 28 -4 0 -10 3 -13 8 -10 13 -101 73 -111 73 -6 0 -10 5 -10 11
0 6 -9 24 -21 40 -17 24 -24 27 -39 19 -20 -11 -62 3 -89 28 -21 21 -89 62
-101 62 -6 0 -34 15 -63 33 -29 18 -81 46 -117 61 -81 36 -104 51 -155 100
-22 21 -56 50 -75 65 -19 14 -37 28 -40 31 -3 3 -23 18 -45 34 -22 16 -59 48
-82 72 -23 23 -63 57 -88 74 -24 17 -49 38 -54 48 -9 17 -61 69 -156 157 -27
25 -71 56 -97 68 -43 20 -48 26 -58 72 -6 27 -13 60 -17 73 -5 22 -4 22 23 10
16 -7 35 -18 42 -25 7 -7 29 -15 50 -19 20 -3 53 -9 72 -13 53 -11 182 -6 207
7 12 7 27 12 33 12 22 0 150 65 150 76 0 6 7 17 15 24 22 19 52 87 81 188 22
75 25 100 21 182 -3 52 -10 109 -16 125 -6 17 -22 65 -37 107 -27 79 -40 95
-126 155 -51 36 -85 51 -132 58 -49 7 -60 10 -71 17 -6 3 -27 9 -48 13 l-37 7
38 29 c20 16 42 32 47 37 30 24 136 70 175 76 173 28 308 23 359 -13 14 -11
29 -19 34 -20 21 -2 97 -67 135 -115 20 -25 43 -19 86 19 22 19 44 35 49 35 5
0 17 8 26 18 9 9 25 22 36 28 16 10 20 21 17 60 -1 27 -12 67 -23 89 -20 38
-88 120 -101 120 -3 0 -20 12 -39 28 -18 15 -39 27 -46 27 -7 0 -21 4 -31 9
-19 10 -166 57 -197 63 -11 3 -36 1 -55 -3z m101 -119 c35 -11 71 -23 79 -27
8 -3 21 -5 28 -4 6 1 12 -2 12 -8 0 -5 15 -15 34 -21 37 -12 119 -93 131 -129
7 -24 -9 -51 -30 -51 -8 0 -15 -6 -18 -12 -2 -8 -21 2 -49 29 -25 23 -80 58
-122 78 -73 36 -80 38 -198 40 -68 1 -127 -1 -133 -5 -5 -4 -35 -10 -65 -14
-54 -7 -82 -17 -170 -59 -55 -26 -131 -75 -147 -95 -6 -8 -30 -34 -52 -57 -42
-45 -44 -45 -138 -36 -6 0 -11 15 -11 31 1 17 3 29 5 26 5 -5 83 75 83 85 0 4
8 10 18 13 9 3 26 19 37 36 11 16 24 30 28 30 4 0 20 11 35 25 15 14 36 25 47
25 12 0 25 4 31 9 32 29 272 86 414 98 36 3 67 7 69 9 7 7 16 5 82 -16z
m-2171 -315 c0 -11 -95 -100 -142 -132 -29 -20 -56 -41 -60 -47 -4 -6 -9 -8
-12 -5 -8 8 67 108 81 109 7 0 27 16 44 34 17 19 41 37 53 39 11 2 24 5 29 6
4 0 7 -1 7 -4z m220 -197 c0 -9 6 -18 13 -21 9 -3 9 -8 -2 -21 -8 -10 -16 -44
-17 -78 -3 -59 -43 -220 -66 -265 -10 -20 -38 -22 -38 -1 0 5 -11 19 -24 32
-44 40 -33 151 41 405 l15 54 39 -44 c21 -24 39 -51 39 -61z m-205 -10 c-18
-68 -30 -122 -40 -179 l-5 -36 -55 51 c-30 28 -65 58 -77 67 -20 14 -21 18 -7
31 8 8 26 21 39 28 14 7 32 19 40 26 50 47 115 93 118 85 2 -6 -4 -38 -13 -73z
m1553 49 c6 -5 12 -7 12 -5 0 3 26 -1 58 -9 31 -7 65 -16 76 -18 10 -2 30 -12
44 -22 41 -29 76 -52 90 -59 6 -3 12 -12 12 -19 0 -7 8 -23 19 -36 26 -33 61
-168 61 -233 0 -72 -63 -267 -99 -306 -14 -16 -37 -31 -51 -34 -14 -3 -44 -12
-68 -21 -32 -11 -65 -14 -133 -9 -102 6 -118 11 -175 49 -47 31 -140 135 -150
167 -4 13 -12 27 -19 33 -16 13 -34 79 -41 152 -8 74 8 131 39 137 12 3 34 7
49 10 26 6 27 4 34 -51 6 -54 37 -155 54 -178 4 -5 10 -21 13 -35 6 -25 57
-90 71 -90 4 0 28 -17 54 -38 71 -56 86 -62 162 -63 60 -1 76 3 109 24 65 43
102 172 77 272 -23 94 -30 110 -71 151 -41 40 -96 76 -111 73 -4 0 -10 5 -14
11 -4 7 -25 14 -46 17 -22 3 -68 11 -104 17 -39 7 -93 9 -135 5 -71 -6 -236
-46 -245 -58 -3 -4 -20 -13 -37 -20 -18 -8 -33 -17 -33 -22 0 -5 -6 -9 -13 -9
-19 0 -150 -123 -192 -180 -36 -49 -37 -50 -88 -47 l-53 2 26 47 c46 83 201
248 254 269 17 7 45 23 62 36 29 21 101 52 134 58 8 1 29 8 45 15 17 6 79 14
140 16 60 3 111 7 114 10 8 7 54 1 69 -9z m-1156 -290 c-9 -19 -19 -60 -48
-197 -4 -19 -9 -53 -10 -75 -1 -22 -2 -43 -3 -46 0 -3 -20 -15 -42 -27 -46
-25 -62 -19 -73 23 -4 14 -10 25 -15 25 -12 0 -5 44 30 175 16 61 37 143 46
183 l17 73 54 -56 c47 -49 53 -60 44 -78z m1113 77 c22 -4 45 -8 50 -9 80 -11
175 -93 197 -169 17 -63 13 -142 -10 -171 -11 -13 -22 -21 -26 -18 -3 3 -26 5
-51 5 -38 -2 -55 4 -105 39 -60 41 -100 82 -100 103 0 6 -11 34 -24 63 -14 29
-27 79 -29 113 l-5 61 31 -5 c18 -3 50 -8 72 -12z m-417 -99 c-10 -23 -5 -76
18 -177 l6 -27 -78 39 c-44 20 -85 39 -92 41 -8 3 2 18 25 41 21 21 54 53 73
72 43 43 65 48 48 11z m-184 -230 c67 -10 148 -54 209 -113 31 -31 57 -62 57
-69 0 -7 4 -21 10 -31 5 -9 19 -46 31 -82 19 -54 23 -88 23 -195 1 -121 -1
-134 -25 -185 -24 -50 -97 -140 -114 -140 -4 0 -19 -9 -35 -20 -52 -37 -116
-43 -220 -20 -52 11 -96 24 -99 28 -3 5 -23 17 -43 27 -51 23 -167 151 -195
215 -28 62 -51 169 -46 213 8 73 11 82 43 95 32 14 66 9 55 -8 -7 -12 21 -178
33 -194 5 -6 13 -22 17 -36 4 -13 18 -32 31 -42 12 -10 26 -27 29 -38 7 -22
137 -120 160 -120 8 0 15 -5 15 -12 0 -6 3 -8 6 -5 4 3 16 0 28 -8 23 -17 111
-20 149 -6 37 14 114 97 127 136 17 51 6 214 -17 256 -29 55 -64 102 -104 140
-40 38 -116 79 -147 79 -10 0 -21 3 -25 6 -10 10 -118 11 -182 2 -66 -9 -173
-41 -220 -65 -139 -71 -206 -127 -304 -257 -57 -75 -104 -160 -94 -170 4 -4
-11 -4 -33 0 -21 3 -40 10 -42 15 -2 5 -10 9 -18 9 -8 0 -14 3 -14 6 0 6 35
58 57 84 16 19 71 97 120 172 21 31 46 57 55 58 9 0 28 15 42 33 14 19 43 42
63 53 21 10 56 30 78 43 66 40 125 71 138 71 7 0 39 14 72 30 33 16 71 30 85
31 14 0 45 6 70 13 44 12 97 12 174 1z m-160 -292 c-3 -42 -8 -86 -11 -98 -2
-11 -7 -37 -10 -57 -3 -21 -10 -38 -15 -38 -12 0 -38 62 -31 74 3 4 1 11 -5
15 -5 3 -11 43 -13 88 l-4 82 35 4 c19 2 41 4 48 5 10 2 11 -15 6 -75z m156
42 c27 -14 30 -20 30 -63 -1 -26 -8 -96 -16 -157 -8 -60 -14 -123 -14 -138 0
-25 -2 -28 -22 -21 -60 18 -79 34 -74 62 3 15 15 96 27 180 13 83 27 152 32
152 4 0 21 -7 37 -15z m149 -173 c25 -94 9 -199 -34 -216 -12 -4 -14 0 -9 27
5 28 10 106 13 210 1 37 18 26 30 -21z m436 -186 c32 -29 55 -57 52 -63 -3 -5
-7 -45 -8 -89 -1 -43 -8 -113 -15 -154 -7 -41 -15 -92 -18 -114 -4 -21 -9 -42
-12 -47 -3 -5 -7 -35 -10 -66 -5 -56 -30 -192 -41 -223 -3 -8 -7 -31 -9 -50
-1 -19 -6 -59 -9 -89 l-7 -54 -24 29 c-13 16 -32 43 -40 59 -9 17 -25 40 -36
52 -16 17 -19 28 -12 50 4 15 9 37 10 48 9 96 54 428 74 544 6 30 10 72 10 93
0 46 19 128 30 128 4 0 33 -24 65 -54z m-1465 -118 c89 -31 216 -99 262 -140
24 -21 46 -38 50 -38 3 0 17 -17 29 -37 13 -21 37 -55 53 -77 l31 -38 -2 -128
c-2 -117 -4 -133 -28 -180 -54 -106 -101 -130 -247 -125 -57 3 -116 6 -132 9
-39 6 -86 27 -86 37 0 5 -6 9 -12 9 -15 0 -88 75 -88 89 0 6 -11 22 -24 36
-14 15 -31 45 -40 68 -8 23 -23 65 -33 92 -10 28 -17 61 -15 75 6 52 1 84 -16
96 -23 17 -18 20 66 42 l72 19 0 -68 c0 -37 4 -79 9 -93 6 -13 12 -42 15 -63
8 -64 14 -81 46 -145 38 -75 78 -128 96 -128 7 0 17 -7 22 -16 10 -17 90 -23
158 -10 42 7 104 52 104 74 0 7 5 12 12 12 6 0 9 3 6 6 -4 3 0 21 8 39 20 50
17 128 -8 209 -20 62 -32 80 -89 136 -130 129 -171 149 -297 151 -99 1 -133
-2 -142 -12 -3 -3 -33 -15 -68 -27 -83 -28 -193 -102 -237 -160 -84 -111 -104
-143 -134 -208 -18 -38 -37 -78 -43 -90 -7 -15 -20 -21 -44 -22 -19 -1 -39 -4
-44 -7 -29 -18 -63 -11 -44 8 3 3 21 39 38 79 36 83 85 158 131 203 17 17 37
43 45 58 17 33 104 114 166 154 22 15 170 88 199 99 43 16 171 41 185 37 8 -3
40 -14 70 -25z m1267 -71 c-3 -41 -11 -96 -17 -122 -6 -27 -22 -117 -36 -200
-14 -82 -29 -156 -33 -163 -5 -8 -19 5 -45 38 -21 27 -42 50 -46 50 -4 0 -18
11 -30 23 -20 21 -23 36 -26 121 -3 94 -2 99 23 122 14 13 29 21 34 18 5 -3 9
0 9 5 0 6 6 11 13 11 19 0 87 59 87 75 0 7 6 15 13 18 8 3 22 21 31 41 9 20
20 36 23 36 3 0 3 -33 0 -73z m420 -14 c54 -46 55 -47 34 -62 -19 -14 -21 -29
-26 -141 -2 -69 -8 -150 -13 -180 -24 -152 -44 -270 -53 -320 -6 -30 -12 -66
-13 -80 -7 -53 -18 -147 -21 -178 -5 -53 -16 -92 -25 -92 -5 0 -16 21 -26 46
-10 26 -35 73 -56 106 -21 32 -38 61 -38 63 0 3 9 14 20 25 12 12 21 35 22 58
1 20 2 53 4 72 2 43 32 234 39 252 3 7 12 60 20 118 8 58 20 139 26 180 19
133 30 180 41 180 6 0 35 -21 65 -47z m-1629 -132 c22 -17 43 -31 46 -31 26 0
129 -160 120 -185 -3 -7 -1 -16 5 -20 33 -20 -16 -148 -62 -165 -20 -6 -35 -6
-48 1 -11 5 -24 7 -29 4 -6 -3 -10 -2 -10 3 0 6 -11 13 -25 16 -14 4 -25 11
-25 16 0 6 -11 27 -24 48 -14 20 -31 60 -38 87 -7 28 -15 52 -19 55 -3 3 -6
51 -5 108 l1 103 37 -4 c21 -2 53 -18 76 -36z m1879 -74 c10 -17 0 -306 -14
-372 -2 -11 -6 -51 -9 -90 -3 -38 -11 -95 -19 -125 -7 -30 -13 -75 -14 -100
-2 -51 -4 -65 -15 -99 -6 -16 -4 -26 5 -31 10 -7 10 -11 0 -24 -8 -9 -10 -16
-5 -16 5 0 4 -4 -1 -8 -33 -22 -106 -158 -136 -252 l-17 -55 -22 50 c-12 28
-26 60 -32 71 -7 15 -7 38 0 75 6 30 14 81 17 114 3 33 10 74 15 90 5 17 10
57 11 90 1 33 8 103 16 155 8 52 16 111 18 130 11 96 16 130 30 185 8 33 17
83 20 110 3 28 8 75 11 105 10 94 7 93 74 48 33 -22 63 -45 67 -51z m-1001 23
c-2 -17 -5 -32 -7 -34 -2 -2 -17 12 -32 31 l-29 33 36 0 c34 0 35 -2 32 -30z
m1160 -136 c21 -9 62 -31 91 -50 52 -33 53 -34 38 -58 -9 -13 -18 -55 -21 -92
-3 -38 -10 -78 -15 -89 -6 -12 -9 -45 -7 -75 3 -54 2 -56 -37 -84 -22 -15 -53
-41 -70 -56 -16 -16 -42 -40 -57 -54 l-28 -25 0 52 c0 29 9 115 20 192 10 77
22 188 26 248 3 59 9 107 14 107 4 0 25 -7 46 -16z m282 -151 c33 -21 66 -42
75 -48 9 -6 17 -31 20 -63 4 -50 3 -53 -22 -58 -14 -3 -51 -14 -82 -25 -31
-10 -61 -19 -67 -19 -13 0 -9 99 7 172 6 26 8 54 5 62 -9 23 -2 20 64 -21z
m227 -143 c8 -13 -5 -13 -25 0 -13 8 -13 10 2 10 9 0 20 -4 23 -10z m-3308
-24 c29 -3 61 -10 70 -15 10 -4 51 -24 91 -42 123 -56 201 -116 238 -184 18
-33 31 -61 29 -64 -3 -2 1 -11 8 -19 17 -21 16 -237 -1 -254 -7 -7 -12 -22
-12 -35 0 -32 -73 -100 -122 -114 -75 -20 -189 1 -268 50 -28 17 -54 31 -58
31 -4 1 -24 20 -46 43 -40 44 -58 84 -81 176 -7 29 -17 56 -23 60 -11 7 -15
29 -13 88 1 40 2 42 48 57 54 19 63 13 63 -46 0 -21 4 -38 9 -38 5 0 11 -17
15 -37 8 -50 67 -164 91 -177 11 -6 33 -20 49 -30 33 -22 140 -26 188 -7 50
19 66 158 26 228 -12 21 -25 40 -28 43 -3 3 -26 33 -49 67 -58 83 -105 107
-221 111 -159 7 -292 -61 -487 -249 -34 -33 -68 -73 -75 -89 -12 -29 -15 -30
-79 -30 -37 0 -80 -3 -97 -6 l-31 -6 21 41 c11 23 23 41 27 41 3 0 15 17 26
38 11 20 30 47 42 59 13 12 23 25 23 28 0 25 199 172 283 209 20 9 52 23 71
31 19 8 56 20 83 25 26 6 64 14 83 18 19 5 40 7 45 6 6 -2 34 -5 62 -8z m3372
-87 c22 -8 31 -17 31 -33 0 -13 9 -31 21 -42 17 -16 19 -26 14 -69 -8 -59 -43
-197 -53 -205 -4 -3 -20 -30 -36 -60 -54 -102 -108 -172 -211 -275 -153 -153
-249 -192 -421 -175 -125 13 -197 60 -203 132 -6 81 67 258 149 362 77 97 213
236 231 236 4 0 14 6 21 13 32 31 186 91 284 111 88 17 133 19 173 5z m-3304
-129 c14 -5 38 -24 52 -41 15 -17 32 -36 38 -43 19 -19 67 -85 66 -90 0 -3 2
-12 5 -20 3 -8 4 -25 2 -38 -3 -19 -9 -23 -43 -24 -59 -1 -106 28 -130 80 -18
39 -36 111 -40 153 -2 36 6 40 50 23z m-609 -367 c15 -7 32 -13 39 -13 7 0 24
-10 39 -22 14 -13 40 -34 57 -48 41 -34 82 -95 103 -155 10 -27 24 -63 31 -80
28 -64 38 -115 32 -172 -13 -120 -54 -193 -131 -231 -40 -20 -55 -23 -118 -17
-40 3 -91 12 -113 21 -22 8 -47 17 -55 20 -17 6 -75 77 -95 115 -23 44 -36 93
-42 159 -4 42 -12 70 -23 80 -29 26 -37 112 -8 94 5 -3 18 2 29 12 19 17 19
16 19 -39 0 -31 4 -66 9 -79 5 -13 15 -45 23 -72 15 -55 74 -121 142 -159 56
-31 156 -30 190 2 12 12 23 27 24 34 1 6 7 35 15 62 20 69 8 144 -38 239 -36
76 -66 116 -95 129 -8 4 -31 17 -50 28 -40 24 -140 30 -160 9 -3 -3 -39 -22
-80 -43 -115 -58 -163 -90 -187 -128 -13 -19 -26 -38 -30 -44 -20 -25 -103
-206 -119 -257 -10 -32 -22 -58 -26 -58 -5 0 -8 -6 -7 -12 1 -7 -1 -24 -4 -38
-4 -14 -9 -36 -11 -50 -2 -14 -14 -56 -27 -95 -28 -84 -25 -73 -34 -112 -4
-18 -10 -33 -12 -33 -20 0 -103 58 -103 73 0 9 4 17 9 17 5 0 11 21 14 48 6
70 34 182 55 227 11 22 25 58 32 80 35 114 148 279 252 367 135 115 366 187
454 141z m-55 -183 c40 -11 64 -39 105 -125 28 -58 35 -133 19 -185 -7 -20
-72 -20 -102 1 -26 18 -93 97 -94 112 -1 7 -3 23 -5 37 -2 14 -5 52 -7 85 -1
33 -5 65 -9 71 -9 14 45 16 93 4z"/>
<path d="M4815 1519 c-11 -4 -47 -15 -80 -25 -33 -9 -82 -30 -110 -46 -27 -15
-59 -32 -70 -37 -63 -28 -215 -212 -229 -278 -4 -18 -18 -43 -32 -55 -29 -28
-32 -76 -6 -106 38 -43 52 -35 235 143 46 44 95 90 109 102 26 21 86 42 137
48 14 1 30 11 38 21 14 19 18 80 6 87 -24 13 -63 16 -75 4 -7 -7 -33 -19 -57
-27 -24 -8 -69 -31 -100 -53 -54 -37 -55 -37 -19 -5 20 18 53 42 75 53 21 11
40 22 43 25 15 17 200 70 223 65 20 -5 29 -1 42 19 16 24 16 28 1 51 -15 22
-23 26 -64 24 -27 -1 -57 -6 -67 -10z"/>
</g>
</svg>
