<?xml version="1.0" standalone="no"?>
<!DOCTYPE svg PUBLIC "-//W3C//DTD SVG 20010904//EN"
 "http://www.w3.org/TR/2001/REC-SVG-20010904/DTD/svg10.dtd">
<svg version="1.0" xmlns="http://www.w3.org/2000/svg"
 width="405.000000pt" height="423.000000pt" viewBox="0 0 405.000000 423.000000"
 preserveAspectRatio="xMidYMid meet">
<metadata>
Created by potrace 1.16, written by Peter Selinger 2001-2019
</metadata>
<g transform="translate(0.000000,423.000000) scale(0.100000,-0.100000)"
fill="#000000" stroke="none">
<path d="M1997 4069 c-7 -4 -31 -10 -54 -14 -43 -7 -50 -16 -59 -83 -3 -19
-10 -47 -17 -64 -12 -29 -13 -30 -102 -34 -50 -3 -101 -5 -114 -5 -36 1 -157
-51 -171 -73 -7 -11 -16 -69 -22 -129 -5 -61 -13 -118 -19 -128 -5 -10 -9 -26
-9 -36 0 -15 -16 -25 -67 -42 -38 -13 -80 -32 -95 -42 -14 -11 -30 -19 -35
-19 -7 0 -39 -20 -116 -73 -10 -6 -35 -27 -55 -45 -20 -18 -61 -49 -90 -69
-30 -20 -56 -43 -59 -52 -4 -9 -27 -36 -52 -61 -25 -25 -53 -56 -61 -69 -8
-13 -33 -49 -55 -80 -23 -31 -47 -69 -55 -86 -8 -16 -29 -49 -47 -73 -17 -24
-40 -64 -49 -90 -10 -26 -21 -51 -25 -57 -4 -5 -15 -39 -24 -75 -10 -36 -24
-77 -31 -91 -7 -15 -16 -39 -19 -55 -54 -269 -45 -567 24 -819 22 -77 60 -185
71 -195 3 -3 20 -34 39 -70 100 -188 244 -364 391 -476 l50 -38 -4 -55 c-4
-49 -33 -154 -57 -203 -5 -10 -9 -26 -9 -36 0 -9 -13 -43 -29 -74 -16 -31 -31
-69 -32 -84 -2 -16 -6 -33 -10 -39 -4 -5 -6 -26 -5 -45 1 -28 7 -38 31 -49 17
-8 46 -16 65 -18 38 -2 109 -10 125 -13 6 -1 35 -2 65 -1 83 2 111 31 184 193
14 31 26 64 26 72 0 8 9 31 20 51 11 20 20 44 20 55 0 24 5 24 61 4 59 -21
209 -53 289 -62 143 -16 467 -5 508 17 11 6 33 13 50 16 17 3 70 19 119 36 48
17 95 33 105 36 9 3 23 -3 32 -14 9 -10 24 -27 34 -39 28 -31 82 -129 82 -148
0 -9 4 -16 9 -16 5 0 13 -10 17 -22 4 -13 18 -39 32 -58 60 -81 120 -112 177
-90 14 6 31 8 36 4 5 -3 9 -1 9 3 0 5 11 10 25 11 14 1 37 9 50 18 14 9 25 13
25 9 0 -4 6 -2 14 4 21 17 26 88 10 140 -7 25 -14 60 -14 78 0 17 -3 33 -7 35
-5 2 -19 30 -32 63 -12 33 -29 74 -36 90 -7 17 -27 63 -44 103 l-30 72 50 47
c180 169 338 420 422 674 40 120 44 141 52 264 4 50 10 104 15 120 9 35 8 165
-3 181 -4 7 -6 23 -6 35 2 24 -6 105 -17 187 -4 23 -11 42 -16 42 -6 0 -8 7
-4 15 3 8 2 15 -3 15 -5 0 -9 6 -8 13 1 40 -5 67 -18 80 -8 8 -12 17 -9 20 3
3 -3 18 -15 34 -11 15 -23 44 -26 63 -3 19 -9 37 -13 40 -9 6 -30 40 -38 60
-28 68 -56 120 -64 120 -6 0 -10 5 -10 11 0 16 -58 97 -110 153 -172 189 -303
294 -475 382 -84 43 -93 50 -91 73 1 14 -3 44 -10 66 -6 22 -14 59 -17 82 -10
72 -44 135 -90 169 -61 45 -97 54 -223 54 -63 0 -114 1 -114 3 0 10 -23 128
-31 159 -9 34 -12 36 -55 40 -25 2 -50 0 -57 -3z m145 -314 c214 -6 228 -8
273 -38 32 -20 39 -34 48 -97 2 -8 5 -19 8 -25 4 -5 9 -27 13 -47 7 -38 -6
-51 -30 -29 -5 4 -45 16 -89 25 -44 10 -96 21 -115 26 -19 4 -66 9 -105 9 -38
1 -97 6 -130 11 -38 6 -84 5 -125 -1 -36 -6 -99 -14 -140 -19 -86 -10 -152
-24 -193 -39 l-29 -11 6 52 c7 69 24 128 42 146 27 27 99 40 229 41 71 1 131
4 134 6 2 3 7 2 11 0 4 -3 90 -7 192 -10z m-226 -295 c15 0 26 -50 28 -128 1
-68 11 -82 59 -82 43 0 59 47 46 135 -5 37 -12 72 -15 77 -4 6 19 8 62 4 112
-9 157 -18 181 -33 15 -10 27 -12 36 -6 14 11 23 10 61 -6 16 -6 37 -13 47
-14 10 -2 22 -6 25 -10 4 -4 14 -7 22 -7 15 0 85 -29 187 -77 83 -39 85 -41
70 -87 -33 -100 -54 -151 -63 -154 -14 -4 -2 -42 13 -42 7 0 25 15 40 33 38
46 115 127 122 127 3 0 38 -25 77 -55 67 -51 122 -106 178 -180 12 -16 25 -32
28 -35 13 -12 80 -111 80 -119 0 -5 7 -14 15 -21 23 -19 18 -30 -20 -46 -19
-8 -42 -25 -50 -38 -9 -13 -29 -29 -45 -36 -35 -14 -39 -35 -10 -50 14 -7 20
-7 20 0 0 5 8 10 18 10 10 0 44 9 76 21 57 20 60 20 76 2 19 -20 80 -184 104
-278 14 -57 32 -181 38 -272 3 -32 0 -42 -12 -42 -8 0 -55 -9 -105 -21 -49
-11 -91 -20 -92 -20 -2 0 -3 -17 -3 -38 0 -24 7 -45 18 -55 15 -14 23 -14 77
-1 33 7 72 14 88 14 23 0 27 -3 23 -23 -3 -12 -12 -57 -20 -100 -42 -213 -150
-477 -194 -477 -10 0 -35 7 -57 14 -33 12 -42 12 -53 1 -12 -11 -11 -17 3 -39
10 -15 30 -36 46 -47 l29 -20 -48 -61 c-54 -71 -89 -107 -190 -197 -106 -95
-121 -104 -150 -85 -13 8 -32 24 -43 35 -22 22 -55 25 -62 5 -5 -13 4 -37 33
-82 18 -29 8 -38 -95 -91 -93 -47 -208 -87 -297 -103 -35 -6 -84 -17 -110 -25
-26 -8 -49 -11 -51 -7 -7 13 -17 58 -27 133 -6 40 -16 77 -23 81 -18 12 -55
10 -63 -4 -6 -10 -7 -75 -1 -183 2 -29 1 -30 -48 -33 -149 -10 -426 46 -581
118 l-91 42 19 38 c11 21 26 44 34 51 8 6 14 17 14 24 0 7 7 18 15 25 18 15
20 50 3 50 -6 0 -38 -20 -69 -45 -32 -25 -62 -45 -68 -45 -6 0 -19 -9 -29 -21
l-20 -20 -33 28 c-19 15 -54 44 -79 63 -65 50 -154 135 -222 213 l-58 68 27
29 c50 53 105 135 96 144 -5 5 -91 -40 -103 -54 -3 -3 -23 -11 -45 -18 -40
-12 -54 -5 -55 26 0 6 -4 12 -8 12 -5 0 -15 18 -22 40 -7 22 -17 40 -22 40 -4
0 -8 8 -8 18 0 10 -5 23 -11 29 -17 17 -88 229 -99 298 -21 122 -23 177 -9
185 7 5 43 7 79 5 91 -6 103 -1 98 41 -3 23 0 34 8 34 20 0 25 15 11 35 -11
14 -31 17 -110 19 -53 1 -98 5 -98 9 -2 10 12 157 17 181 2 10 8 33 13 50 6
17 12 42 13 56 2 14 6 30 10 35 5 10 21 69 23 90 3 32 18 75 26 75 6 0 7 5 4
10 -3 6 -2 10 2 10 5 0 14 15 21 33 19 51 29 62 44 51 29 -23 115 -36 157 -24
63 17 55 40 -29 83 -38 21 -76 37 -85 37 -34 0 184 264 290 350 90 74 125 94
125 71 0 -5 17 -16 38 -24 20 -9 57 -36 81 -61 45 -46 61 -50 61 -15 0 27 -47
129 -72 156 l-20 21 94 45 c94 45 217 86 318 106 94 19 174 29 195 25 11 -2
25 -4 31 -4z m824 -2775 c0 -8 -4 -15 -10 -15 -5 0 -10 7 -10 15 0 8 5 15 10
15 6 0 10 -7 10 -15z m-1370 -45 c0 -5 -7 -7 -15 -4 -8 4 -15 8 -15 10 0 2 7
4 15 4 8 0 15 -4 15 -10z m1560 -270 c8 -5 11 -10 5 -10 -5 0 -17 5 -25 10 -8
5 -10 10 -5 10 6 0 17 -5 25 -10z"/>
<path d="M1981 3106 c-26 -14 -60 -78 -61 -113 0 -12 -7 -55 -15 -95 -9 -40
-18 -89 -21 -108 -3 -19 -8 -38 -10 -42 -44 -72 -57 -819 -18 -1025 3 -16 14
-24 41 -29 24 -4 38 -3 41 4 2 7 41 9 125 4 160 -9 416 -5 492 6 67 11 123 30
144 51 8 7 27 18 43 23 15 6 28 14 28 19 0 5 5 9 10 9 13 0 99 62 100 71 0 4
16 24 35 45 20 21 33 44 30 52 -3 7 0 22 5 33 19 34 -4 59 -53 59 -24 0 -48 5
-55 12 -7 7 -12 8 -12 3 0 -6 -45 -8 -112 -5 -103 5 -269 -14 -328 -36 -8 -3
-33 -8 -55 -11 -22 -2 -50 -11 -62 -19 -12 -8 -29 -14 -37 -14 -7 0 -27 -7
-42 -15 -16 -8 -38 -15 -49 -15 -11 0 -44 -16 -73 -36 -58 -39 -72 -39 -48 -2
9 14 18 49 20 80 3 30 9 73 14 94 6 21 14 82 18 134 4 52 8 109 10 125 13 125
26 252 26 265 2 58 -13 275 -22 320 -6 30 -12 66 -14 80 -5 40 -6 44 -19 61
-18 24 -49 30 -76 15z"/>
</g>
</svg>
