<?xml version="1.0" standalone="no"?>
<!DOCTYPE svg PUBLIC "-//W3C//DTD SVG 20010904//EN"
 "http://www.w3.org/TR/2001/REC-SVG-20010904/DTD/svg10.dtd">
<svg version="1.0" xmlns="http://www.w3.org/2000/svg"
 width="355.000000pt" height="439.000000pt" viewBox="0 0 355.000000 439.000000"
 preserveAspectRatio="xMidYMid meet">
<metadata>
Created by potrace 1.16, written by Peter Selinger 2001-2019
</metadata>
<g transform="translate(0.000000,439.000000) scale(0.100000,-0.100000)"
fill="#000000" stroke="none">
<path d="M1555 4279 c-33 -5 -94 -6 -135 -3 -57 3 -79 1 -94 -10 -10 -8 -15
-19 -11 -25 3 -6 2 -11 -2 -11 -5 0 -16 -12 -24 -26 -15 -25 -15 -31 7 -99 18
-58 24 -100 26 -199 2 -124 2 -125 -24 -145 -14 -11 -44 -36 -68 -56 -23 -19
-55 -43 -71 -52 -16 -10 -29 -20 -29 -24 0 -4 -21 -20 -47 -35 -27 -15 -65
-42 -86 -60 -21 -18 -49 -35 -62 -38 -34 -9 -86 -43 -163 -106 -85 -71 -167
-130 -180 -130 -20 0 -33 -30 -37 -89 -3 -33 0 -73 6 -88 6 -15 12 -37 14 -48
1 -11 8 -49 14 -85 17 -106 22 -528 7 -730 -8 -114 -10 -128 -22 -183 -7 -33
-9 -49 -18 -137 -12 -108 -39 -240 -81 -395 -8 -27 -19 -77 -26 -110 -15 -79
-91 -310 -118 -360 -11 -22 -21 -47 -21 -56 0 -21 -84 -177 -111 -205 -29 -31
-44 -102 -28 -131 11 -21 24 -27 57 -26 6 1 12 -5 12 -12 0 -15 29 -44 96 -98
61 -49 269 -129 369 -141 22 -3 67 -13 100 -21 33 -9 73 -18 88 -20 16 -2 56
-11 90 -19 34 -9 121 -23 192 -32 72 -8 141 -17 155 -20 42 -6 332 -5 380 2
25 4 51 6 58 5 41 -4 110 3 200 19 69 13 73 12 95 -7 20 -19 42 -30 118 -61
31 -12 102 -6 216 19 45 10 62 21 113 73 33 33 60 69 60 78 0 25 28 48 60 48
28 0 325 96 365 118 11 6 58 28 105 49 101 45 150 80 150 109 0 30 -30 114
-41 114 -5 0 -9 7 -9 16 0 9 -9 29 -20 45 -12 15 -37 63 -56 106 -20 43 -47
103 -61 133 -14 30 -36 96 -49 145 -13 50 -32 122 -44 160 -11 39 -23 84 -26
100 -3 17 -14 63 -24 104 -11 41 -25 113 -30 160 -16 123 -19 144 -41 259 -10
57 -19 126 -19 155 0 29 -6 84 -13 122 -16 82 -20 400 -7 465 5 25 16 83 24
130 9 47 18 99 21 115 3 17 8 63 11 102 l4 73 -40 25 c-22 14 -51 34 -63 44
-12 11 -46 40 -76 65 -30 25 -60 46 -67 46 -7 0 -32 15 -56 33 -24 18 -54 40
-68 49 -14 9 -41 30 -60 48 -19 17 -48 39 -65 47 -16 9 -48 30 -70 48 -22 18
-56 40 -75 50 -19 10 -42 25 -50 34 -8 9 -28 23 -45 31 -28 14 -64 41 -89 66
-6 6 -18 9 -27 7 -22 -6 -29 55 -28 241 1 83 -3 142 -9 148 -6 6 -8 23 -5 38
7 38 -8 42 -177 46 -80 2 -154 5 -165 7 -11 2 -47 0 -80 -4z m203 -113 c62 -2
115 -6 118 -9 6 -5 8 -302 3 -323 -1 -5 1 -30 5 -56 8 -45 9 -47 49 -54 23 -3
47 -15 54 -24 12 -17 35 -33 193 -136 41 -26 77 -51 80 -55 9 -12 80 -59 90
-59 5 0 15 -8 22 -18 20 -27 124 -109 166 -131 21 -10 55 -35 77 -55 21 -20
57 -48 79 -63 45 -31 76 -61 76 -75 0 -5 -9 -44 -19 -86 -11 -43 -23 -113 -26
-157 -4 -44 -10 -84 -13 -89 -8 -15 -3 -317 7 -392 5 -38 13 -109 16 -159 4
-49 13 -117 21 -150 7 -33 14 -76 14 -95 0 -20 6 -60 14 -90 7 -30 16 -74 20
-98 6 -39 4 -43 -11 -38 -10 3 -45 8 -78 11 -33 4 -76 9 -95 11 -91 12 -727
20 -790 10 -63 -10 -138 -19 -170 -20 -19 -1 -46 -9 -59 -18 -20 -14 -22 -22
-17 -52 8 -40 0 -38 101 -16 35 8 110 16 240 26 181 13 659 -3 778 -26 26 -6
64 -10 82 -10 19 0 35 -3 36 -7 0 -5 3 -20 5 -34 4 -23 0 -27 -28 -33 -18 -3
-49 -4 -68 -1 -19 2 -53 6 -75 9 -22 3 -94 8 -160 11 -66 4 -134 10 -151 14
-43 12 -143 12 -264 0 -57 -6 -138 -10 -180 -10 -41 0 -104 -6 -140 -14 -36
-8 -118 -25 -184 -39 -65 -14 -133 -26 -152 -26 -37 0 -54 -20 -54 -64 0 -19
5 -26 20 -26 20 0 248 52 305 70 17 5 73 12 125 15 52 4 106 9 120 11 33 6
283 19 340 18 64 -1 320 -22 350 -29 14 -3 57 -11 95 -16 39 -6 72 -13 74 -15
2 -2 10 1 18 8 20 17 41 -8 52 -62 13 -64 18 -82 29 -110 5 -14 10 -28 11 -32
2 -8 7 -25 21 -68 5 -14 18 -59 30 -100 13 -41 37 -106 55 -145 18 -38 40 -88
49 -110 10 -22 22 -48 28 -58 14 -27 7 -29 -43 -12 -56 18 -191 58 -204 60
-44 4 -95 18 -95 26 0 4 -7 6 -15 3 -8 -4 -21 -1 -29 5 -7 6 -33 14 -57 16
-24 3 -80 10 -124 16 -44 6 -93 12 -110 14 -179 24 -584 24 -746 1 -63 -9
-123 -16 -134 -15 -40 1 -171 -12 -200 -21 -16 -5 -52 -12 -80 -16 -27 -3 -61
-7 -75 -8 -49 -6 -106 -17 -188 -37 -45 -11 -90 -19 -100 -18 -9 1 -24 -1 -32
-4 -46 -20 -103 -36 -110 -32 -5 3 -11 1 -15 -5 -3 -5 -21 -10 -38 -10 -18 0
-84 -17 -147 -36 -63 -20 -124 -37 -136 -38 -11 -1 -25 -6 -31 -9 -16 -10
-103 -26 -103 -19 0 11 93 192 101 198 5 3 9 12 9 21 0 8 18 52 39 96 21 45
42 102 46 127 4 25 11 50 16 56 11 14 34 95 60 214 10 47 25 112 33 145 21 90
67 334 71 380 2 22 10 78 19 125 9 47 16 121 17 165 1 44 8 128 15 187 10 80
11 137 4 230 -5 67 -10 166 -10 219 0 53 -7 136 -17 185 -27 149 -30 139 69
214 158 119 213 157 236 164 12 4 22 11 22 15 0 3 15 15 33 26 17 10 82 55
142 99 201 148 226 171 222 205 -2 16 3 31 15 41 18 14 18 22 9 100 -6 46 -11
105 -11 131 0 26 -7 65 -15 88 l-14 41 27 1 c71 2 146 9 150 14 3 3 21 2 41 0
20 -3 87 -7 149 -9z m302 -3300 c0 -8 6 -16 13 -19 7 -3 19 -24 26 -48 7 -24
16 -57 21 -73 8 -25 5 -33 -18 -57 -15 -16 -34 -45 -41 -66 -8 -21 -18 -44
-24 -51 -11 -14 -13 -25 -21 -105 -2 -27 -6 -50 -8 -52 -2 -2 -26 -6 -53 -9
-28 -3 -59 -8 -70 -10 -123 -24 -433 -30 -605 -12 -30 3 -81 8 -112 10 -31 3
-103 16 -160 30 -57 14 -118 28 -135 31 -85 13 -103 17 -177 36 -43 11 -106
31 -141 44 -91 34 -183 95 -143 95 7 0 67 18 133 39 66 21 139 42 163 45 24 4
82 18 129 31 47 14 100 27 117 30 17 2 56 9 86 15 30 5 82 14 115 20 33 5 116
20 185 34 69 13 143 23 165 22 22 -1 60 2 85 6 25 5 71 10 104 13 32 2 61 7
64 10 3 3 72 5 154 5 120 0 148 -3 148 -14z m176 4 c29 0 34 -3 34 -24 0 -14
4 -27 9 -30 4 -3 11 -29 14 -59 4 -29 12 -67 17 -84 10 -29 14 -31 50 -27 36
3 43 -1 89 -49 42 -44 51 -58 51 -90 0 -46 -18 -82 -62 -123 -80 -76 -188 -97
-280 -54 -16 8 -24 18 -21 27 3 7 -2 22 -12 33 -18 20 -18 29 1 125 3 16 9 32
13 35 5 3 11 15 15 27 4 11 22 33 41 47 35 27 40 51 18 91 -10 18 -43 141 -43
159 0 5 7 5 16 2 9 -3 31 -6 50 -6z m302 -25 c41 -3 81 -9 90 -14 10 -5 31
-12 47 -15 166 -31 420 -109 410 -126 -8 -13 -100 -53 -180 -79 -38 -13 -86
-30 -105 -37 -19 -8 -50 -16 -69 -19 -19 -3 -42 -10 -53 -16 -10 -6 -26 -9
-36 -7 -9 1 -23 -1 -29 -5 -8 -5 -13 -3 -13 7 0 21 -55 113 -84 139 -63 58
-83 73 -91 70 -21 -6 -32 14 -37 65 l-5 53 41 -6 c23 -2 74 -7 114 -10z"/>
<path d="M1645 4150 c-12 -4 -27 -15 -34 -24 -7 -9 -21 -16 -31 -16 -10 0 -23
-7 -30 -15 -7 -8 -18 -15 -25 -15 -16 0 -33 -37 -40 -91 -9 -67 1 -94 32 -97
32 -2 59 27 73 78 22 80 61 78 84 -4 11 -35 22 -56 31 -56 8 0 15 -4 15 -10 0
-6 10 -5 25 2 14 6 24 17 23 24 -2 7 5 19 14 26 16 11 16 17 5 48 -7 19 -20
49 -29 65 -17 31 -58 71 -59 57 0 -4 -4 3 -9 16 -10 24 -14 25 -45 12z"/>
</g>
</svg>
