<?xml version="1.0" standalone="no"?>
<!DOCTYPE svg PUBLIC "-//W3C//DTD SVG 20010904//EN"
 "http://www.w3.org/TR/2001/REC-SVG-20010904/DTD/svg10.dtd">
<svg version="1.0" xmlns="http://www.w3.org/2000/svg"
 width="447.000000pt" height="475.000000pt" viewBox="0 0 447.000000 475.000000"
 preserveAspectRatio="xMidYMid meet">
<metadata>
Created by potrace 1.16, written by Peter Selinger 2001-2019
</metadata>
<g transform="translate(0.000000,475.000000) scale(0.100000,-0.100000)"
fill="#000000" stroke="none">
<path d="M3184 4663 c-6 -5 -15 -15 -20 -24 -8 -16 -52 -69 -116 -142 -16 -17
-28 -36 -28 -42 0 -19 -87 -125 -142 -174 -29 -25 -66 -60 -82 -77 -39 -38
-101 -84 -115 -84 -6 0 -11 -4 -11 -10 0 -5 -6 -7 -13 -4 -8 3 -30 -15 -53
-43 -38 -47 -84 -93 -94 -93 -3 0 -42 -35 -86 -78 -45 -42 -107 -99 -139 -127
-31 -27 -82 -73 -113 -102 -31 -29 -61 -53 -67 -53 -5 0 -32 -24 -60 -53 -27
-29 -75 -73 -105 -97 -30 -25 -79 -71 -109 -102 -31 -32 -60 -58 -65 -58 -5 0
-54 -46 -110 -102 -56 -57 -132 -125 -170 -153 -37 -27 -91 -74 -119 -103 -29
-30 -77 -74 -107 -99 -30 -25 -82 -70 -115 -102 -33 -31 -78 -70 -100 -86 -22
-17 -44 -36 -48 -42 -4 -7 -14 -13 -22 -13 -7 0 -16 -8 -19 -17 -3 -10 -22
-35 -41 -55 -19 -20 -35 -39 -35 -41 0 -3 -18 -31 -39 -63 -22 -33 -54 -86
-71 -119 -18 -33 -39 -67 -46 -76 -8 -8 -14 -19 -14 -24 0 -5 -6 -16 -14 -24
-7 -9 -24 -45 -36 -81 -34 -101 -71 -194 -81 -204 -5 -6 -9 -20 -9 -31 0 -12
-3 -25 -7 -29 -4 -3 -8 -12 -9 -19 -1 -7 -17 -39 -36 -72 -33 -60 -70 -144
-103 -240 -10 -27 -28 -74 -41 -103 -13 -29 -24 -56 -24 -60 -1 -4 -9 -25 -20
-47 -11 -22 -20 -49 -20 -60 0 -11 -7 -31 -15 -45 -8 -14 -14 -39 -15 -56 0
-17 -7 -37 -14 -44 -14 -11 -42 -78 -38 -92 1 -3 -5 -12 -13 -18 -8 -7 -15
-22 -15 -33 0 -21 -47 -97 -59 -97 -4 0 -8 -16 -9 -35 -2 -26 1 -35 13 -35 9
0 14 -4 10 -9 -9 -15 26 -27 65 -24 91 7 167 20 185 30 30 18 187 65 215 65
14 0 43 10 65 21 22 12 46 20 53 19 6 -2 12 2 12 8 0 5 6 10 13 10 8 0 32 17
54 38 45 41 101 85 115 90 5 2 37 32 72 65 35 34 72 67 82 74 11 6 18 16 16
23 -1 6 7 19 18 28 20 16 20 19 5 64 -16 45 -16 50 6 120 19 63 48 121 69 138
3 3 17 21 30 40 31 45 59 70 79 71 137 5 201 21 202 52 1 12 2 56 3 97 1 41 7
84 13 95 7 11 22 43 34 70 12 28 25 52 29 55 3 3 14 22 23 42 10 21 28 43 40
49 12 7 26 18 30 26 5 7 12 11 18 8 5 -4 9 -1 9 4 0 15 63 39 123 47 29 4 63
13 77 21 24 14 26 19 23 88 -2 58 3 89 24 147 33 92 113 195 178 228 17 8 45
25 63 38 17 14 33 22 33 18 1 -3 2 -11 3 -18 0 -6 11 -13 24 -14 20 -4 27 5
23 28 0 4 12 5 28 2 33 -7 39 7 47 96 2 30 8 64 13 75 22 46 51 114 51 120 0
3 11 22 23 41 23 33 24 33 41 15 10 -11 25 -17 37 -14 12 4 19 0 19 -9 0 -21
33 -48 59 -48 12 0 36 7 53 16 l31 16 -5 -27 c-7 -36 12 -95 30 -95 9 0 5 -7
-11 -20 -14 -11 -29 -20 -33 -20 -4 0 -38 -22 -76 -50 -38 -27 -71 -50 -74
-50 -3 0 -12 -6 -19 -12 -36 -33 -46 -39 -54 -34 -5 3 -12 -1 -15 -10 -4 -9
-9 -14 -13 -11 -3 4 -19 -1 -34 -10 -28 -17 -46 -48 -40 -68 2 -5 4 -14 5 -20
1 -5 5 -16 10 -24 5 -7 4 -16 -1 -20 -6 -3 -13 -23 -17 -43 -4 -21 -10 -38
-14 -38 -4 0 -13 -12 -19 -27 -7 -16 -47 -55 -89 -88 -42 -33 -81 -65 -88 -71
-15 -14 -48 -25 -90 -29 -53 -5 -76 -31 -76 -86 0 -28 5 -49 12 -51 18 -6 20
-74 2 -89 -8 -6 -14 -19 -14 -28 0 -9 -13 -31 -30 -49 -16 -18 -30 -37 -30
-42 0 -4 -7 -10 -15 -14 -8 -3 -15 -12 -15 -20 0 -20 -86 -105 -150 -147 -70
-46 -100 -62 -100 -52 0 4 -5 2 -12 -5 -7 -7 -22 -12 -35 -12 -27 0 -56 -40
-51 -72 2 -13 15 -28 31 -36 25 -12 39 -52 19 -52 -5 0 -15 -12 -23 -27 -15
-30 -50 -85 -60 -93 -3 -3 -8 -13 -12 -23 -3 -9 -12 -17 -19 -17 -7 0 -29 -16
-48 -35 -19 -19 -42 -35 -51 -35 -9 0 -19 -6 -22 -14 -3 -8 -19 -17 -36 -21
-17 -4 -33 -11 -36 -16 -4 -5 -17 -9 -30 -9 -14 0 -29 -8 -34 -19 -6 -10 -21
-21 -35 -25 -14 -3 -36 -25 -54 -53 -40 -65 -104 -200 -107 -226 -1 -12 -3
-22 -4 -22 -4 0 -11 -35 -22 -105 -5 -36 -11 -74 -14 -85 -2 -11 -9 -47 -15
-80 -6 -33 -15 -79 -21 -103 -5 -23 -9 -55 -9 -71 0 -17 -4 -40 -9 -54 -11
-28 -5 -39 28 -57 26 -14 79 -8 151 16 25 9 63 18 85 20 21 3 60 14 85 24 45
18 156 39 237 45 23 2 74 15 114 30 74 28 172 45 225 38 20 -3 35 1 44 11 7 9
18 16 25 16 8 0 33 15 57 33 24 19 66 47 92 62 75 44 182 160 230 249 31 59
102 171 108 174 5 2 8 9 8 16 0 6 10 27 23 46 13 19 37 60 53 90 16 30 35 61
42 70 44 53 118 162 142 209 15 31 52 98 81 149 65 112 111 196 152 277 16 33
51 94 77 135 26 41 64 109 85 150 21 41 53 98 72 127 18 28 33 56 33 61 0 6 4
12 9 14 6 2 33 53 61 113 28 61 68 135 87 165 59 89 79 121 113 185 18 33 50
84 71 112 22 29 44 64 49 77 5 13 25 45 44 71 20 25 43 62 53 83 15 31 66 112
119 187 34 48 114 176 114 182 0 3 6 14 14 22 7 9 26 39 41 66 46 85 97 165
105 165 5 0 16 20 27 45 10 25 21 45 26 45 4 0 7 5 7 11 0 5 18 37 40 69 22
32 40 61 40 65 0 3 10 26 21 50 20 42 22 105 5 122 -9 10 -76 11 -81 2 -4 -5
-18 -9 -32 -9 -26 0 -86 -37 -79 -49 4 -6 -38 -61 -114 -151 -16 -19 -37 -44
-47 -56 -10 -12 -36 -42 -58 -68 -22 -26 -82 -91 -133 -144 -52 -52 -101 -106
-109 -119 -8 -13 -19 -23 -22 -23 -4 0 -37 -28 -72 -62 -36 -35 -98 -92 -138
-128 -40 -36 -97 -87 -126 -115 -29 -27 -74 -68 -101 -90 -26 -22 -76 -65
-110 -95 -113 -100 -194 -153 -228 -148 -16 2 -22 12 -24 41 -3 32 0 38 23 47
14 5 50 29 81 52 114 86 151 188 68 188 -55 0 -102 -29 -125 -77 -12 -24 -26
-49 -33 -56 -6 -7 -17 -24 -23 -40 -16 -34 -121 -85 -135 -65 -5 9 1 20 18 33
50 38 134 129 134 145 0 9 5 21 10 26 6 6 11 32 12 57 0 38 -4 50 -23 66 -23
18 -23 18 -55 -13 -18 -17 -43 -49 -55 -71 -12 -22 -33 -59 -46 -82 -13 -24
-20 -43 -16 -43 4 0 2 -5 -5 -12 -7 -7 -12 -20 -12 -30 0 -21 -13 -23 -39 -6
-15 9 -17 17 -10 37 32 87 149 312 159 306 4 -3 16 12 26 33 10 20 25 43 32
50 6 7 12 19 12 27 0 7 4 15 8 17 5 2 28 42 51 90 23 48 48 93 55 100 11 12
91 163 95 180 10 43 86 203 116 244 13 16 33 52 46 80 22 48 71 136 113 201
12 18 27 33 34 33 6 0 12 3 13 8 0 4 2 27 5 52 2 25 1 51 -4 57 -10 16 -63 26
-78 16z m-331 -605 c-13 -35 -29 -72 -35 -83 -7 -11 -22 -40 -36 -65 -13 -25
-43 -81 -67 -125 -24 -44 -49 -90 -54 -102 -5 -11 -15 -24 -20 -28 -6 -3 -11
-13 -11 -21 0 -8 -5 -20 -10 -27 -66 -76 -240 -395 -240 -440 0 -9 -11 -28
-25 -43 -14 -15 -25 -33 -25 -41 0 -7 -4 -21 -9 -31 -5 -9 -19 -39 -32 -66
-13 -27 -33 -52 -46 -57 -13 -5 -23 -15 -23 -23 0 -7 -9 -16 -20 -19 -11 -3
-24 -17 -30 -31 -5 -15 -20 -31 -32 -36 -55 -24 -104 -60 -116 -84 -7 -14 -20
-26 -27 -26 -8 0 -32 -26 -52 -57 -21 -32 -41 -60 -44 -63 -15 -12 -49 -96
-49 -120 0 -14 -4 -30 -10 -36 -5 -5 -12 -32 -15 -59 -7 -52 -16 -64 -52 -66
-13 -1 -27 -2 -32 -3 -15 -2 -171 -106 -171 -114 0 -4 -13 -22 -29 -39 -54
-59 -128 -234 -134 -318 l-4 -49 -39 -3 c-21 -2 -48 -8 -59 -13 -19 -9 -55
-18 -82 -19 -7 -1 -13 -7 -13 -14 0 -8 -18 -33 -40 -58 -38 -41 -100 -125
-100 -134 0 -3 -16 -38 -35 -79 -19 -41 -34 -83 -33 -93 1 -10 -1 -44 -6 -75
-8 -54 -12 -61 -77 -123 -38 -36 -73 -65 -78 -65 -5 0 -11 -3 -13 -8 -14 -33
-188 -142 -226 -142 -20 0 -186 -52 -192 -60 -3 -4 -28 -11 -57 -17 -46 -9
-52 -8 -50 6 1 9 5 21 8 26 4 6 14 34 23 62 10 29 21 55 26 58 4 3 11 24 15
48 4 23 10 47 14 52 3 6 16 37 27 70 84 231 128 340 182 455 67 143 92 202 92
216 0 21 90 234 112 266 10 14 18 29 18 33 0 3 14 26 30 50 17 24 30 49 30 56
0 31 89 148 181 239 52 52 134 122 149 128 4 1 37 31 73 65 56 52 179 166 220
202 7 6 28 23 47 37 20 15 76 65 125 113 198 188 223 212 284 265 35 30 86 77
114 103 29 27 68 61 87 75 19 15 53 45 76 67 22 22 61 58 85 79 24 22 67 60
94 85 28 25 75 66 104 91 28 25 78 71 111 102 32 31 73 65 92 75 68 36 101 59
126 86 14 15 26 27 27 27 2 0 -8 -28 -22 -62z m1127 -131 c0 -8 -8 -21 -18
-30 -10 -9 -34 -47 -53 -84 -18 -38 -44 -79 -56 -93 -13 -14 -23 -30 -23 -37
0 -6 -6 -18 -13 -25 -7 -7 -28 -40 -46 -73 -19 -33 -51 -84 -72 -114 -22 -30
-39 -60 -39 -68 0 -7 -4 -13 -10 -13 -5 0 -10 -5 -10 -11 0 -6 -31 -57 -68
-113 -37 -55 -76 -120 -87 -144 -10 -24 -26 -49 -34 -55 -15 -11 -26 -31 -87
-145 -23 -43 -93 -153 -103 -162 -3 -3 -14 -21 -24 -40 -9 -19 -29 -55 -43
-80 -34 -58 -84 -158 -84 -168 0 -4 -11 -20 -25 -35 -14 -15 -24 -27 -21 -27
3 0 -6 -16 -19 -36 -14 -20 -25 -42 -25 -49 0 -7 -6 -17 -13 -23 -7 -6 -32
-49 -56 -96 -24 -47 -47 -83 -52 -80 -5 3 -9 -4 -9 -14 0 -11 -7 -25 -15 -32
-8 -7 -15 -19 -15 -27 0 -8 -11 -34 -25 -59 -14 -24 -37 -65 -51 -91 -15 -27
-35 -60 -45 -75 -11 -14 -29 -48 -42 -75 -12 -26 -31 -61 -41 -76 -21 -32 -36
-57 -83 -145 -17 -32 -42 -72 -55 -88 -30 -37 -97 -134 -123 -179 -11 -18 -40
-69 -64 -112 -25 -43 -48 -80 -51 -83 -4 -3 -10 -15 -14 -27 -4 -13 -13 -29
-19 -35 -25 -27 -67 -87 -67 -97 0 -5 -6 -14 -14 -18 -7 -4 -20 -22 -29 -39
-18 -35 -79 -87 -152 -129 -27 -16 -61 -39 -75 -52 -14 -13 -32 -22 -40 -21
-8 1 -24 -3 -35 -9 -21 -11 -51 -18 -143 -33 -29 -5 -58 -12 -65 -17 -25 -20
-105 -43 -159 -47 -31 -3 -65 -9 -75 -15 -11 -5 -25 -6 -33 -1 -9 5 -19 5 -27
-1 -6 -6 -20 -9 -30 -8 -10 1 -36 -5 -58 -15 -22 -9 -50 -15 -63 -13 -13 3
-48 -4 -78 -15 -30 -11 -58 -18 -63 -16 -5 2 -3 26 4 53 7 28 15 77 18 110 3
33 8 71 12 85 12 44 27 114 31 144 2 16 17 56 33 90 15 34 31 71 35 84 4 12
12 22 17 22 5 0 9 6 9 13 0 14 98 77 119 77 17 0 91 41 91 51 0 4 24 20 53 37
59 34 124 100 139 143 5 16 14 29 19 29 5 0 9 8 9 18 0 10 9 27 19 39 25 27
42 88 34 126 -4 20 -3 28 5 23 5 -3 12 -2 14 2 1 5 31 25 64 46 68 41 194 155
194 174 0 7 4 12 9 12 5 0 16 18 25 39 8 22 22 43 29 48 25 15 67 113 67 156
0 66 8 81 53 102 23 11 55 35 71 53 16 18 35 31 43 28 7 -3 13 1 13 10 0 8 13
20 30 25 25 9 93 87 98 112 1 4 7 14 15 21 7 8 26 52 41 99 l28 85 66 43 c37
24 70 48 74 53 4 6 8 7 8 2 0 -6 12 2 28 16 15 14 32 27 38 29 13 4 42 26 153
115 42 33 90 69 106 79 17 11 32 22 35 25 12 12 121 110 185 165 38 33 86 76
106 95 118 110 209 192 244 222 22 18 62 57 90 87 27 29 86 90 130 136 127
130 182 192 201 225 19 32 34 39 34 17z m-1254 -609 c-3 -13 -6 -31 -6 -41 0
-18 -108 -132 -117 -123 -10 10 15 63 58 124 45 62 77 82 65 40z m184 -77 c0
-9 -100 -100 -127 -115 -20 -11 33 83 60 107 20 18 67 24 67 8z"/>
</g>
</svg>
