<?xml version="1.0" standalone="no"?>
<!DOCTYPE svg PUBLIC "-//W3C//DTD SVG 20010904//EN"
 "http://www.w3.org/TR/2001/REC-SVG-20010904/DTD/svg10.dtd">
<svg version="1.0" xmlns="http://www.w3.org/2000/svg"
 width="549.000000pt" height="433.000000pt" viewBox="0 0 549.000000 433.000000"
 preserveAspectRatio="xMidYMid meet">
<metadata>
Created by potrace 1.16, written by Peter Selinger 2001-2019
</metadata>
<g transform="translate(0.000000,433.000000) scale(0.100000,-0.100000)"
fill="#000000" stroke="none">
<path d="M4693 4000 c-27 -16 -60 -20 -200 -25 -301 -9 -397 -15 -478 -30 -73
-13 -538 -34 -795 -36 -58 -1 -154 -9 -215 -20 -76 -12 -160 -18 -270 -18 -88
0 -180 -4 -205 -10 -25 -5 -104 -12 -175 -15 -72 -3 -161 -10 -200 -15 -38 -5
-146 -13 -240 -17 -93 -4 -186 -8 -205 -9 -19 -2 -98 -6 -175 -9 -164 -8 -262
-20 -400 -48 -55 -11 -112 -23 -127 -25 -23 -4 -28 -13 -43 -71 -9 -37 -20
-71 -24 -77 -10 -13 -28 -86 -36 -145 -6 -48 -19 -96 -40 -146 -8 -17 -17 -53
-20 -80 -4 -27 -11 -53 -15 -59 -15 -21 -77 -246 -115 -415 -20 -92 -44 -195
-62 -265 -8 -33 -19 -82 -25 -110 -19 -90 -68 -287 -103 -415 -19 -69 -46
-180 -60 -248 -14 -68 -30 -131 -34 -140 -18 -34 -53 -149 -76 -247 -21 -89
-53 -214 -98 -385 -8 -30 -18 -73 -21 -95 -4 -22 -9 -47 -12 -56 -3 -11 7 -24
28 -37 31 -18 38 -19 113 -7 44 7 123 18 175 24 52 6 145 20 205 31 61 12 165
25 233 30 67 5 126 12 132 15 5 3 63 12 127 20 65 8 132 18 150 21 38 7 37 8
53 -136 5 -52 16 -124 25 -160 8 -36 15 -82 15 -103 0 -21 10 -87 22 -148 22
-117 25 -120 93 -144 23 -8 50 -6 110 6 44 10 143 24 220 33 283 32 412 49
500 63 50 8 142 19 205 24 174 13 320 28 330 34 16 10 304 45 525 64 66 6 145
18 175 26 30 8 125 22 210 30 85 9 189 22 230 30 41 8 143 19 225 25 83 6 186
15 230 20 44 5 120 14 169 19 48 6 138 19 200 30 61 11 152 25 201 31 145 17
158 22 174 54 12 25 11 36 -4 85 -9 31 -19 85 -21 121 -5 67 -28 196 -44 240
-5 14 -10 50 -11 80 -1 30 -6 66 -11 79 -5 13 -9 40 -9 60 -1 20 -7 63 -14 96
-7 33 -16 85 -19 115 -8 67 -12 95 -31 185 -8 39 -19 113 -25 165 -6 52 -14
109 -16 125 -3 17 -7 44 -9 60 -3 17 -9 55 -16 85 -16 81 -18 91 -24 140 -4
25 -15 95 -25 155 -10 61 -24 139 -29 175 -6 36 -17 99 -25 140 -26 135 -35
204 -41 295 -9 147 -16 218 -25 261 -5 22 -12 94 -15 160 -4 65 -15 171 -25
234 -10 63 -15 122 -10 130 4 8 4 24 -1 35 -4 11 -8 34 -8 52 -2 72 -77 104
-148 63z m33 -130 c7 -7 11 -16 8 -22 -3 -5 -1 -14 4 -21 6 -7 13 -34 17 -62
4 -27 11 -66 15 -85 10 -42 17 -103 25 -224 4 -50 8 -93 10 -96 9 -14 29 -286
26 -340 -1 -19 3 -55 9 -80 11 -48 43 -228 65 -375 7 -49 19 -115 25 -145 6
-30 20 -118 31 -195 11 -77 25 -158 31 -180 7 -22 12 -49 13 -60 1 -11 5 -47
9 -80 5 -33 9 -74 11 -91 1 -17 13 -85 28 -150 14 -65 42 -236 62 -379 20
-143 41 -289 46 -325 33 -221 33 -210 7 -228 -13 -10 -45 -20 -73 -24 -27 -4
-93 -14 -145 -23 -205 -35 -417 -59 -739 -85 -68 -6 -127 -13 -132 -16 -9 -5
-81 -15 -297 -39 -73 -8 -137 -17 -142 -20 -17 -10 -216 -35 -285 -35 -38 0
-149 -13 -245 -30 -231 -39 -410 -60 -507 -60 -43 0 -121 -9 -173 -20 -52 -11
-122 -20 -155 -20 -33 0 -78 -5 -100 -10 -22 -5 -110 -19 -195 -30 -85 -12
-180 -25 -210 -30 -140 -24 -147 -24 -158 -4 -15 29 -42 141 -52 219 -11 82
-19 126 -25 136 -8 12 107 38 210 48 55 6 187 13 294 16 107 3 199 9 204 12
16 10 177 32 233 33 28 0 91 6 140 14 49 8 154 22 234 30 200 23 315 41 380
61 36 10 91 16 158 16 57 0 133 7 170 14 37 8 121 15 188 15 77 0 157 7 220
19 54 10 126 24 159 30 33 6 83 15 110 21 28 6 111 13 185 15 74 3 167 10 205
16 39 5 121 12 184 15 93 4 117 9 134 24 l20 20 -27 25 c-31 29 -39 30 -56 10
-8 -9 -30 -15 -59 -15 -25 0 -100 -7 -166 -16 -66 -9 -168 -17 -228 -19 -59
-2 -111 -6 -115 -9 -4 -2 -39 -7 -77 -11 -39 -4 -78 -11 -87 -16 -9 -5 -31 -9
-49 -9 -41 0 -148 -17 -221 -36 -34 -8 -107 -14 -175 -14 -65 0 -136 -5 -158
-11 -22 -6 -103 -14 -180 -19 -95 -6 -161 -16 -205 -30 -44 -14 -109 -24 -200
-30 -74 -4 -148 -13 -165 -19 -16 -7 -74 -15 -130 -18 -55 -3 -118 -11 -140
-18 -22 -7 -87 -16 -145 -20 -58 -3 -130 -10 -160 -16 -30 -5 -116 -11 -190
-13 -74 -2 -189 -8 -255 -12 -139 -8 -247 -6 -257 4 -4 4 -8 55 -10 114 -3 59
-9 113 -15 120 -10 13 -43 162 -43 197 0 33 35 39 315 45 171 5 422 20 500 31
17 2 127 9 245 15 118 6 223 13 234 16 10 4 66 10 125 14 131 10 376 35 536
55 66 8 153 17 192 19 92 6 127 22 131 60 3 27 2 28 -30 23 -18 -3 -62 -13
-98 -21 -77 -18 -381 -52 -635 -71 -99 -7 -196 -18 -216 -24 -20 -6 -56 -11
-80 -10 -37 1 -207 -10 -414 -26 -27 -2 -120 -9 -205 -16 -154 -12 -298 -15
-375 -9 -22 2 -74 0 -117 -5 -85 -9 -128 -2 -128 20 0 9 -4 23 -9 33 -15 27
-41 160 -41 210 0 25 -5 72 -12 104 -7 31 -9 60 -5 64 6 7 122 19 277 29 47 3
120 9 163 13 65 6 75 5 61 -5 -10 -7 -27 -13 -38 -13 -36 0 -50 -15 -37 -39 7
-11 19 -21 29 -21 15 0 15 -2 2 -10 -8 -5 -27 -10 -42 -10 -34 0 -42 -14 -39
-68 3 -43 -9 -106 -36 -196 -13 -41 -13 -50 -2 -57 8 -5 19 -9 24 -9 14 0 40
18 40 27 4 64 18 99 42 111 41 19 49 15 62 -30 17 -55 28 -68 57 -68 28 0 30
16 9 67 -10 24 -12 40 -5 48 7 9 5 19 -8 36 -17 21 -30 60 -34 97 -1 7 -11 23
-23 36 l-22 24 63 28 c34 15 65 35 67 44 5 20 83 30 263 35 94 3 302 25 380
41 27 5 37 29 24 55 -13 23 -48 25 -56 4 -4 -8 -18 -15 -33 -15 -15 0 -31 -4
-36 -9 -6 -5 -44 -12 -85 -15 -41 -3 -104 -8 -140 -10 -36 -3 -135 -8 -220
-11 -170 -6 -338 -19 -415 -33 -27 -5 -106 -9 -175 -8 l-125 1 -5 48 c-7 52 0
60 20 23 15 -30 36 -34 113 -24 69 9 130 49 125 82 -4 25 -48 36 -48 13 0 -21
-51 -39 -101 -35 l-44 3 -3 46 c-4 60 26 102 66 93 15 -3 33 -15 41 -25 17
-24 47 -25 59 -1 11 21 6 40 -19 67 -11 13 -17 31 -15 50 2 17 4 38 5 48 1 15
12 17 93 16 59 -1 116 5 156 15 34 9 66 15 71 12 4 -3 39 -1 77 5 38 5 110 12
159 14 104 5 247 19 355 35 41 5 111 14 155 19 44 5 87 11 95 14 14 5 60 9
275 23 55 4 125 13 155 20 30 8 86 14 125 14 77 0 95 9 95 48 0 23 -3 24 -42
18 -24 -3 -79 -10 -123 -16 -44 -5 -118 -14 -165 -20 -47 -6 -139 -15 -205
-20 -143 -10 -272 -28 -294 -39 -9 -5 -41 -12 -71 -16 -30 -4 -71 -14 -90 -22
-20 -8 -49 -12 -70 -8 -19 3 -100 1 -180 -5 -80 -6 -190 -13 -245 -16 -54 -3
-108 -10 -119 -16 -21 -12 -134 -13 -195 -3 -21 3 -41 2 -45 -3 -7 -11 -223
-15 -230 -4 -6 10 -12 46 -21 117 -4 28 -10 66 -15 85 -5 19 -12 62 -15 95 -4
33 -9 68 -11 78 -3 10 0 17 9 17 8 0 27 6 43 14 16 8 74 20 129 25 55 6 132
16 170 22 57 9 162 14 221 10 20 -2 25 -49 9 -87 -10 -23 -12 -41 -6 -48 5 -6
9 -57 9 -112 0 -56 2 -107 6 -113 18 -29 74 2 62 35 -5 14 -1 16 26 10 18 -4
50 -15 71 -26 49 -26 54 -25 60 8 6 31 -7 52 -33 52 -10 0 -33 7 -53 15 l-35
15 34 34 c46 46 48 104 5 164 -24 32 -27 43 -17 51 7 6 82 13 172 16 241 7
386 15 394 20 5 3 91 10 192 16 212 12 246 15 388 31 58 6 122 12 142 12 24 1
45 9 58 22 l20 20 -23 22 c-24 22 -25 22 -68 6 -47 -17 -117 -29 -244 -39 -44
-4 -99 -14 -123 -22 -33 -12 -64 -15 -135 -10 -66 4 -104 2 -133 -8 -29 -10
-121 -15 -332 -18 -161 -3 -292 -4 -292 -2 0 10 25 62 38 77 22 26 12 63 -18
63 -17 0 -26 -6 -28 -20 -2 -11 -7 -29 -12 -40 -5 -11 -16 -37 -24 -57 -15
-38 -33 -47 -53 -27 -8 8 -21 8 -48 -1 -20 -7 -46 -10 -57 -6 -12 3 -69 -2
-127 -10 -213 -30 -294 -34 -319 -18 -19 12 -30 13 -54 5 -17 -6 -33 -9 -35
-7 -3 2 -6 33 -8 69 -1 35 -5 77 -9 93 -8 40 -15 94 -22 190 l-7 82 39 5 c21
3 75 9 118 13 70 5 78 4 65 -9 -8 -8 -26 -18 -39 -22 -40 -12 -51 -25 -39 -46
12 -23 34 -24 73 -4 15 8 29 15 30 15 0 0 1 -40 1 -90 l0 -90 -46 -46 -47 -47
-17 26 c-16 25 -21 85 -13 172 2 22 -2 30 -16 33 -28 6 -38 -11 -41 -76 -4
-65 18 -156 43 -184 23 -27 67 -22 105 12 39 34 47 36 47 15 0 -18 34 -37 54
-29 19 7 20 27 5 56 -6 11 -10 64 -10 121 1 81 -2 103 -15 118 -11 12 -13 19
-5 19 8 0 10 11 5 35 -6 34 -6 35 27 36 19 0 48 2 64 4 17 1 57 5 90 9 33 3
76 9 95 13 19 3 58 7 85 8 28 1 91 7 141 13 50 6 126 14 169 17 44 3 85 11 92
17 7 6 32 7 60 3 57 -7 593 28 614 41 12 7 234 27 329 29 47 1 137 10 200 21
63 10 169 18 235 19 66 0 160 8 210 17 50 10 169 20 267 24 97 4 181 10 188
14 18 11 -6 60 -30 60 -11 0 -23 -6 -25 -13 -4 -9 -42 -13 -138 -14 -127 -2
-244 -13 -297 -28 -14 -4 -92 -8 -175 -10 -82 -2 -193 -8 -245 -15 -52 -6
-138 -15 -190 -20 -192 -16 -327 -30 -390 -40 -120 -20 -135 -21 -255 -25 -66
-2 -156 -8 -200 -13 -44 -5 -98 -10 -120 -9 -85 0 -224 -12 -264 -23 -23 -6
-86 -13 -139 -16 -53 -2 -135 -9 -182 -14 -137 -16 -317 -30 -424 -32 -117 -3
-110 -11 -120 137 -4 55 -14 123 -21 150 -7 28 -16 67 -19 88 -4 34 -2 38 27
50 96 40 199 49 1197 106 96 5 200 15 230 21 30 6 136 13 235 14 120 3 210 10
265 21 65 13 109 16 187 11 56 -4 141 -2 190 4 48 5 194 12 323 15 144 2 286
11 366 22 163 22 587 31 610 13z m-3691 -427 c5 -27 9 -52 10 -58 1 -5 5 -54
9 -108 4 -54 11 -110 17 -123 5 -14 9 -44 9 -67 0 -23 7 -82 15 -132 8 -49 20
-153 25 -230 6 -77 21 -194 35 -260 13 -66 26 -150 29 -188 3 -37 14 -102 25
-145 21 -83 46 -249 56 -377 7 -82 40 -325 55 -405 4 -25 23 -114 40 -198 31
-148 31 -154 13 -167 -10 -8 -26 -15 -35 -15 -9 0 -19 -4 -22 -9 -3 -5 -34
-12 -68 -16 -35 -4 -91 -13 -126 -21 -35 -8 -96 -14 -137 -14 -40 0 -117 -9
-172 -20 -121 -25 -372 -58 -433 -56 -42 1 -45 3 -42 26 1 14 6 34 11 45 13
28 47 149 60 215 6 30 13 62 16 70 2 8 13 56 23 105 11 50 27 108 35 130 17
42 42 137 82 310 8 39 22 86 30 106 7 20 19 65 25 100 6 35 17 84 25 109 22
67 47 170 52 210 12 101 174 749 217 867 8 22 17 52 20 65 2 12 13 50 24 83
10 33 27 95 37 138 9 42 21 77 25 77 4 0 11 -21 15 -47z m869 -838 c26 -27 29
-56 9 -83 -31 -41 -40 -37 -47 22 -10 74 4 95 38 61z m-411 -464 l-6 -25 -9
23 c-9 25 -1 48 13 34 5 -5 6 -19 2 -32z m-78 -8 c4 -16 8 -36 10 -46 2 -10
-6 -22 -18 -29 -38 -20 -57 -50 -58 -92 l-1 -41 -10 35 c-5 19 -15 67 -22 107
-12 69 -12 72 8 82 12 5 36 10 53 10 28 1 33 -3 38 -26z m423 -577 c9 -20 8
-25 -8 -29 -21 -5 -29 8 -22 36 6 24 17 21 30 -7z"/>
<path d="M1281 3650 c-13 -11 -33 -20 -45 -20 -12 0 -27 -5 -34 -12 -17 -17
-15 -57 3 -64 8 -4 15 -11 15 -18 0 -6 7 -24 16 -41 8 -16 22 -72 29 -124 16
-104 14 -98 35 -101 48 -7 55 13 30 86 -11 32 -20 72 -20 89 0 31 2 33 46 40
26 3 52 9 58 11 7 3 11 -10 12 -33 1 -63 8 -102 17 -96 4 2 19 -7 32 -21 13
-14 33 -26 45 -26 33 0 132 38 150 58 35 37 40 141 10 208 -21 49 -61 74 -118
74 -41 0 -74 -25 -87 -67 -10 -36 -47 -30 -69 11 -15 28 -70 67 -94 66 -4 -1
-18 -10 -31 -20z m68 -74 c19 -21 20 -24 6 -30 -30 -11 -54 -6 -65 13 -8 16
-6 22 7 30 25 14 27 14 52 -13z m276 -1 c26 -25 31 -61 19 -121 -6 -30 -65
-74 -98 -74 -25 0 -54 39 -61 81 -5 30 -2 47 16 76 41 70 81 82 124 38z"/>
<path d="M1525 3410 c3 -5 10 -10 16 -10 5 0 9 5 9 10 0 6 -7 10 -16 10 -8 0
-12 -4 -9 -10z"/>
<path d="M1420 3320 c0 -5 5 -10 10 -10 6 0 10 5 10 10 0 6 -4 10 -10 10 -5 0
-10 -4 -10 -10z"/>
<path d="M1645 3135 c-27 -7 -72 -19 -100 -27 -40 -10 -51 -18 -53 -37 -4 -28
14 -43 45 -36 19 4 24 -1 33 -35 6 -22 13 -72 16 -112 7 -86 23 -111 53 -83
11 9 18 21 16 26 -3 4 -8 50 -12 101 -3 54 -12 102 -20 115 -14 21 -13 23 9
27 12 3 41 4 63 3 39 -2 40 -2 40 33 0 42 -14 46 -90 25z"/>
<path d="M3982 3024 c-16 -20 -32 -48 -35 -63 -7 -44 0 -147 13 -171 11 -20 9
-25 -11 -41 -29 -22 -33 -23 -48 -5 -10 11 -9 24 0 55 29 98 -36 211 -121 211
-76 0 -135 -39 -146 -97 -6 -29 -10 -33 -39 -33 -67 0 -141 -51 -164 -113 -19
-49 -14 -131 10 -161 24 -31 78 -56 123 -56 26 -1 29 -3 16 -13 -36 -29 -50
-66 -50 -133 0 -113 27 -154 99 -154 29 0 76 32 123 83 14 15 30 27 35 27 12
0 40 -57 83 -167 17 -45 35 -83 40 -85 4 -2 24 -34 45 -73 22 -38 48 -77 59
-86 19 -16 19 -20 8 -110 -7 -52 -19 -116 -27 -144 -8 -27 -26 -99 -40 -160
-14 -60 -30 -125 -34 -142 -6 -20 -5 -33 0 -33 5 0 9 -7 9 -15 0 -16 55 -21
78 -7 6 5 17 44 22 88 6 43 12 88 15 99 2 11 11 49 20 85 9 36 18 77 22 93 8
40 23 33 23 -10 0 -21 10 -72 21 -113 11 -41 22 -91 25 -110 3 -19 10 -39 15
-44 5 -6 9 -20 9 -32 0 -23 42 -64 66 -64 7 0 20 7 29 16 17 18 15 46 -12 119
-17 48 -54 207 -49 212 5 5 21 -17 56 -82 35 -64 38 -69 65 -130 29 -68 31
-70 59 -73 59 -7 84 54 45 109 -11 16 -34 57 -50 91 -47 99 -124 213 -172 255
-23 19 -24 25 -16 60 6 21 10 45 10 53 1 19 16 63 40 115 10 22 21 47 24 55 3
8 11 24 18 35 26 42 41 70 42 77 1 21 16 13 49 -27 43 -50 79 -62 131 -45 43
14 115 100 115 136 0 14 4 23 10 19 5 -3 21 -3 35 1 28 7 69 73 59 97 -2 8 2
20 11 27 15 13 20 66 9 106 -3 12 -23 32 -44 45 -40 25 -41 30 -26 115 7 36
-22 81 -56 88 -65 13 -109 -4 -170 -64 -32 -32 -58 -63 -58 -69 0 -27 -19 -7
-28 31 -10 38 -9 44 13 70 21 25 24 37 22 106 -2 69 -6 83 -29 114 -34 45 -71
54 -127 32 -22 -9 -41 -19 -41 -23 0 -3 -9 -12 -21 -19 -12 -8 -18 -9 -14 -3
3 6 1 11 -4 11 -6 0 -11 7 -11 15 0 22 -39 42 -97 49 -50 6 -52 5 -81 -30z
m98 -123 c0 -33 -4 -62 -9 -66 -14 -8 -34 33 -28 56 3 10 1 21 -4 24 -9 6 20
45 33 45 5 0 8 -27 8 -59z m227 8 c19 -37 16 -77 -7 -89 -23 -12 -87 -16 -97
-6 -8 7 21 65 51 103 21 28 36 26 53 -8z m-501 -14 c23 -36 11 -87 -28 -120
-36 -30 -41 -26 -54 45 -13 76 -5 100 35 100 21 0 35 -8 47 -25z m-173 -152
c6 -57 -8 -103 -33 -103 -10 0 -34 7 -54 15 -39 16 -44 33 -26 81 14 36 38 53
76 54 30 0 32 -2 37 -47z m542 -11 c3 -15 15 -33 26 -41 12 -7 18 -8 14 -2 -9
16 27 14 49 -2 10 -7 17 -22 14 -33 -2 -15 -13 -20 -48 -22 -44 -3 -46 -2 -58
33 -8 19 -17 35 -22 35 -12 0 -20 28 -14 45 10 25 32 17 39 -13z m-132 -62
c-17 -34 -31 -50 -44 -50 -10 0 -19 4 -19 10 0 12 69 90 80 90 5 0 -3 -22 -17
-50z m551 12 c-1 -18 -9 -42 -18 -55 -9 -12 -28 -37 -41 -56 -34 -46 -33 -79
3 -88 36 -10 51 -6 86 23 36 32 50 20 41 -35 -8 -47 -24 -55 -87 -46 -35 5
-47 3 -66 -15 -17 -17 -20 -25 -12 -40 6 -11 17 -23 26 -28 22 -12 7 -61 -23
-75 -36 -16 -60 19 -62 89 0 33 -9 67 -21 89 -15 27 -17 35 -6 35 22 0 46 29
46 54 0 13 7 29 15 36 8 7 15 26 15 42 0 29 5 39 48 85 31 34 57 27 56 -15z
m-728 -79 c5 -40 -15 -93 -36 -93 -14 0 -18 64 -7 113 9 39 13 45 24 34 7 -7
16 -31 19 -54z m319 -101 c-8 -22 -11 -56 -8 -81 5 -34 13 -47 42 -67 19 -13
42 -24 49 -24 11 0 10 -6 -4 -27 -10 -16 -24 -40 -32 -55 -7 -16 -18 -28 -23
-28 -5 0 -9 -10 -9 -21 0 -23 -39 -99 -51 -99 -8 0 -24 96 -21 125 1 11 4 74
6 140 5 150 11 175 41 175 22 0 22 -1 10 -38z m-150 -188 c0 -224 -1 -226 -52
-117 -13 29 -29 55 -34 58 -5 4 -9 14 -9 23 0 9 -7 30 -15 46 -8 15 -15 38
-15 50 0 12 -4 26 -10 32 -6 6 3 27 28 61 28 39 44 52 67 55 17 2 32 2 35 0 3
-2 5 -96 5 -208z m-311 190 c16 -42 6 -73 -41 -118 -52 -51 -63 -48 -63 19 0
29 7 46 25 63 13 13 21 30 18 38 -4 10 3 14 25 14 18 0 32 -6 36 -16z m654 -4
c11 -18 10 -20 -8 -20 -12 0 -33 -14 -49 -30 -21 -23 -30 -27 -39 -18 -17 17
-15 33 11 62 27 31 67 34 85 6z"/>
<path d="M1688 2664 c-10 -10 -35 -17 -69 -18 -45 -1 -54 -4 -57 -20 -5 -25
23 -46 63 -46 l32 0 3 -82 c1 -46 3 -103 4 -128 1 -41 4 -45 27 -48 41 -5 51
16 38 84 -14 77 -8 168 14 192 44 48 -9 112 -55 66z"/>
<path d="M1385 2625 c-44 -43 -28 -166 24 -195 11 -5 38 -10 60 -10 22 0 42
-4 45 -9 10 -16 -47 -44 -85 -43 -50 2 -68 -19 -39 -48 17 -17 28 -19 58 -14
42 8 103 36 120 56 13 16 24 68 14 68 -4 0 -12 10 -17 23 -9 19 -16 22 -59 19
-35 -2 -53 2 -67 14 -23 21 -25 76 -3 98 17 17 34 13 34 -9 0 -12 21 -25 40
-25 30 0 8 81 -25 94 -35 13 -76 6 -100 -19z"/>
<path d="M2069 2117 c-1 -28 -1 -58 0 -65 1 -7 -6 -26 -16 -42 -14 -25 -15
-34 -5 -50 6 -11 12 -38 12 -61 0 -38 1 -40 28 -37 21 2 28 9 30 30 3 25 5 26
35 16 18 -6 43 -19 56 -30 31 -24 53 -23 69 2 17 27 9 38 -44 61 l-43 20 25
37 c21 30 25 45 21 81 -7 63 -32 84 -106 87 l-61 4 -1 -53z m114 -39 c12 -18
-28 -91 -47 -85 -6 2 -12 24 -14 49 -2 38 0 47 15 51 25 6 35 3 46 -15z"/>
<path d="M1944 2108 c-4 -24 -7 -47 -6 -52 2 -4 0 -17 -3 -27 -9 -28 -25 -13
-25 22 0 61 -40 90 -71 53 -10 -12 -10 -20 -2 -34 12 -18 18 -48 28 -134 7
-60 20 -86 43 -86 31 1 49 25 61 80 7 30 23 79 37 108 29 61 26 96 -8 106 -41
10 -46 7 -54 -36z"/>
<path d="M1754 2119 c-4 -7 -34 -10 -83 -8 l-76 4 0 -30 c0 -25 5 -32 32 -40
18 -6 35 -14 39 -18 5 -4 7 -44 6 -89 -2 -86 7 -105 40 -87 14 8 18 26 20 107
l3 97 38 -3 c36 -3 37 -3 37 31 0 41 -38 65 -56 36z"/>
<path d="M3655 2084 c-27 -13 -56 -24 -64 -24 -8 0 -57 -21 -110 -46 -53 -25
-121 -57 -151 -71 -30 -14 -80 -38 -110 -53 -64 -33 -225 -104 -258 -115 -22
-6 -21 -3 13 46 20 29 33 59 30 67 -3 7 -5 17 -5 22 0 4 -8 10 -17 14 -10 3
-23 8 -30 12 -13 6 -83 -53 -83 -71 0 -16 -158 -175 -184 -185 -33 -13 -62
-75 -50 -108 9 -25 13 -27 64 -25 30 1 78 -2 105 -8 28 -6 120 -12 205 -14
147 -4 156 -3 178 17 25 24 28 46 9 72 -10 14 -34 18 -146 21 -74 3 -137 7
-139 10 -3 3 2 5 11 5 10 0 25 4 35 9 9 6 55 26 102 46 114 50 142 62 303 139
76 36 141 66 144 66 11 0 79 35 102 52 13 10 32 18 41 18 23 0 105 36 118 53
14 16 7 57 -10 69 -21 13 -50 8 -103 -18z"/>
<path d="M1458 1659 c-35 -20 -15 -69 28 -69 16 0 23 -7 26 -30 3 -16 0 -34
-6 -40 -7 -7 -7 -16 2 -30 6 -11 12 -40 12 -66 0 -57 14 -84 43 -84 32 0 47
18 38 44 -5 11 -11 37 -15 57 -6 36 -6 37 36 50 36 12 47 22 66 61 26 51 21
77 -20 99 -28 15 -188 21 -210 8z m181 -65 c6 -5 -40 -54 -50 -54 -10 0 -19
39 -12 56 3 9 14 12 32 8 14 -4 28 -8 30 -10z"/>
<path d="M1947 1148 c-16 -6 -29 -19 -33 -33 -3 -14 -15 -27 -25 -30 -17 -6
-18 -14 -15 -66 9 -116 52 -165 137 -157 76 8 98 34 105 128 3 42 1 87 -5 102
-17 46 -106 76 -164 56z m102 -64 c21 -15 23 -22 17 -68 -10 -88 -67 -135
-101 -83 -19 30 -23 113 -6 145 14 27 56 29 90 6z"/>
<path d="M1689 1115 c-51 -27 -65 -55 -46 -94 13 -26 41 -38 93 -40 33 -1 60
-24 66 -56 5 -30 -31 -30 -71 -1 -28 21 -37 23 -57 14 -37 -17 -28 -50 16 -61
19 -5 52 -15 72 -23 102 -37 140 65 59 154 -24 26 -38 32 -70 32 -48 0 -61 16
-26 32 22 10 28 8 48 -10 26 -25 50 -28 65 -9 15 18 -37 75 -74 82 -19 3 -44
-3 -75 -20z"/>
<path d="M2138 689 c-10 -5 -48 -12 -85 -16 -84 -7 -106 -23 -98 -72 3 -19 11
-41 18 -49 7 -9 12 -48 12 -101 l0 -86 40 1 c52 2 214 41 231 55 21 17 17 37
-10 55 -23 14 -27 14 -53 -5 -15 -11 -52 -23 -80 -27 -49 -6 -53 -5 -53 13 0
28 19 42 74 52 57 11 67 19 55 49 -10 25 -40 29 -101 10 -33 -10 -41 -9 -49 3
-5 8 -9 17 -9 21 0 9 99 37 145 40 32 2 39 7 37 21 -2 9 3 17 10 17 8 1 5 6
-6 15 -23 17 -53 19 -78 4z"/>
<path d="M1878 623 c-14 -3 -18 -15 -18 -53 0 -27 5 -61 10 -76 6 -15 7 -31 3
-35 -20 -19 -85 66 -76 99 11 44 -36 66 -84 39 l-22 -12 19 -40 c16 -33 18
-53 13 -118 l-6 -79 29 4 c26 3 29 7 32 41 2 20 5 37 7 37 3 0 19 -9 37 -20
41 -25 80 -26 101 -2 14 16 15 27 6 81 -8 46 -8 66 0 74 15 15 14 33 -5 51
-16 17 -17 17 -46 9z"/>
</g>
</svg>
