<?xml version="1.0" standalone="no"?>
<!DOCTYPE svg PUBLIC "-//W3C//DTD SVG 20010904//EN"
 "http://www.w3.org/TR/2001/REC-SVG-20010904/DTD/svg10.dtd">
<svg version="1.0" xmlns="http://www.w3.org/2000/svg"
 width="325.000000pt" height="367.000000pt" viewBox="0 0 325.000000 367.000000"
 preserveAspectRatio="xMidYMid meet">
<metadata>
Created by potrace 1.16, written by Peter Selinger 2001-2019
</metadata>
<g transform="translate(0.000000,367.000000) scale(0.100000,-0.100000)"
fill="#000000" stroke="none">
<path d="M1568 3485 c-1 -2 -55 -6 -118 -9 -143 -8 -174 -12 -202 -27 -13 -7
-25 -12 -28 -12 -7 1 -18 -2 -99 -27 -66 -21 -161 -80 -219 -137 -7 -7 -18
-13 -23 -13 -15 0 -144 -131 -168 -171 -11 -19 -21 -42 -21 -51 0 -10 -4 -18
-10 -18 -5 0 -10 -5 -10 -11 0 -5 -17 -36 -38 -67 -21 -31 -46 -79 -56 -107
-11 -27 -25 -57 -32 -66 -8 -8 -14 -20 -14 -25 0 -5 -6 -21 -14 -36 -8 -14
-20 -43 -27 -65 -16 -45 -14 -38 -23 -88 -8 -46 -44 -171 -57 -200 -15 -35
-22 -78 -26 -177 -3 -54 -8 -98 -11 -98 -9 0 -7 -326 2 -410 15 -134 65 -410
78 -427 5 -7 7 -17 4 -22 -4 -5 -2 -12 4 -16 5 -3 10 -13 10 -21 0 -40 97
-266 130 -304 12 -14 47 -61 78 -104 71 -99 225 -256 323 -328 115 -85 349
-190 449 -202 15 -2 41 -14 59 -27 29 -21 42 -24 124 -23 86 1 228 25 252 43
5 4 39 20 74 35 57 24 88 45 190 131 55 46 180 179 175 187 -3 4 2 8 10 8 9 0
16 8 16 19 0 10 18 53 40 96 22 43 40 83 40 90 0 14 40 52 41 39 1 -10 29 93
31 113 1 9 13 11 39 7 44 -7 90 19 114 66 28 53 61 217 60 300 0 44 2 80 5 80
3 0 10 10 16 23 6 12 20 40 32 62 12 22 24 56 27 75 17 95 21 128 18 166 -2
32 3 48 22 70 14 16 25 36 25 45 0 8 4 19 10 25 17 17 36 176 28 234 -10 66
-35 95 -90 104 -31 5 -38 9 -29 20 6 7 9 15 7 17 -3 2 -6 38 -9 79 -2 42 -9
85 -15 95 -6 11 -18 37 -26 58 -9 21 -25 41 -38 46 -20 7 -23 15 -24 72 -1 70
-10 91 -79 172 -32 38 -45 47 -72 47 -18 0 -33 -4 -33 -10 0 -5 -4 -10 -8 -10
-5 0 -19 32 -32 71 -12 38 -29 76 -36 84 -8 7 -14 20 -14 27 0 8 -5 19 -11 25
-6 6 -11 17 -13 26 -5 35 -147 206 -219 264 -42 34 -143 93 -175 104 -20 6
-41 15 -47 20 -5 5 -15 9 -23 9 -8 0 -28 6 -45 13 -70 30 -112 39 -201 42 -52
2 -96 2 -98 0z m2 -100 c20 -11 31 -12 36 -4 13 22 108 -5 179 -51 17 -11 37
-23 45 -26 52 -23 250 -201 250 -226 0 -3 21 -41 46 -84 l45 -77 -21 -56 c-11
-31 -24 -76 -28 -101 -7 -42 -10 -45 -37 -42 -93 8 -112 -1 -160 -80 -36 -58
-37 -60 -37 -163 1 -96 -1 -105 -18 -105 -10 0 -31 -11 -46 -25 -45 -42 -73
-108 -90 -213 -6 -32 -45 -82 -64 -82 -6 0 -10 -5 -10 -10 0 -6 -8 -19 -18
-30 -20 -22 -62 -155 -62 -198 0 -28 26 -110 48 -149 13 -23 101 -56 125 -47
10 4 12 -9 9 -56 -7 -97 39 -190 103 -206 24 -6 25 -8 22 -98 -2 -78 1 -98 22
-139 31 -63 79 -99 141 -105 42 -4 52 -1 77 22 l28 26 3 -22 c2 -13 12 -49 23
-81 10 -31 19 -65 19 -75 0 -52 -190 -352 -223 -352 -5 0 -18 -11 -29 -25 -10
-13 -29 -30 -42 -37 -13 -7 -48 -28 -77 -45 -30 -18 -64 -33 -77 -33 -13 0
-31 -4 -41 -10 -10 -5 -40 -12 -67 -16 -27 -3 -52 -8 -56 -11 -5 -2 -39 -4
-76 -5 -77 0 -170 27 -237 71 -101 66 -236 190 -300 276 -17 22 -38 49 -47 59
-10 11 -18 28 -18 38 0 10 -5 18 -10 18 -11 0 -80 138 -80 159 0 6 -8 28 -17
49 -35 78 -96 387 -86 440 2 13 0 28 -4 35 -11 19 -13 43 -14 197 0 134 6 263
16 335 2 17 7 64 10 105 9 117 24 211 40 244 7 17 20 60 29 96 14 63 44 154
69 214 54 131 155 314 180 324 4 2 7 8 7 13 0 30 187 229 215 229 4 0 24 13
44 29 30 24 94 57 161 86 8 3 26 12 40 20 31 18 25 18 60 0z m-260 -14 c0 -5
-15 -16 -32 -26 -66 -34 -79 -43 -126 -87 -53 -52 -58 -57 -130 -152 -29 -37
-52 -72 -52 -77 0 -5 -8 -18 -17 -29 -44 -46 -156 -293 -202 -440 -71 -231
-68 -217 -87 -405 -3 -33 -8 -62 -9 -65 -19 -31 -33 -531 -19 -615 3 -16 8
-55 10 -85 5 -48 21 -149 39 -244 3 -16 8 -34 11 -38 3 -5 8 -23 11 -41 3 -17
13 -47 23 -67 9 -19 25 -59 35 -88 29 -91 97 -208 164 -286 70 -81 45 -65 -46
30 -112 115 -117 121 -195 229 -75 103 -90 131 -113 200 -71 217 -102 336
-115 445 -6 52 -15 127 -20 166 -19 145 0 554 29 627 6 15 20 65 31 110 32
129 50 186 87 267 46 103 111 227 145 277 15 23 28 44 28 47 0 3 8 16 18 27
54 68 90 103 145 140 34 23 71 53 82 65 24 28 156 94 188 94 12 0 42 7 67 14
25 8 46 15 48 15 1 1 2 -3 2 -8z m787 -143 c43 -29 80 -65 123 -119 14 -17 31
-37 38 -45 6 -7 12 -17 12 -22 0 -6 7 -12 15 -16 8 -3 15 -12 15 -19 0 -8 7
-20 15 -27 21 -17 19 -29 -4 -23 -10 2 -34 0 -54 -5 l-35 -10 -27 62 c-14 33
-37 78 -51 98 -13 21 -24 44 -24 53 0 8 -3 14 -7 13 -8 -2 -43 31 -108 103
l-30 32 40 -23 c22 -13 59 -36 82 -52z m243 -381 c16 -2 32 -16 44 -39 18 -31
18 -40 7 -77 -6 -23 -26 -57 -42 -76 -25 -28 -38 -35 -68 -35 -46 0 -57 8 -76
53 -38 92 8 192 84 181 14 -2 37 -5 51 -7z m213 -166 c48 -53 54 -68 56 -127
0 -39 -4 -56 -19 -69 -11 -10 -22 -32 -26 -51 -4 -24 -13 -34 -31 -39 -14 -3
-26 -5 -27 -3 -1 2 -9 12 -19 24 -29 35 -37 108 -19 166 15 46 15 50 0 59 -28
16 2 78 38 79 7 0 28 -18 47 -39z m-543 -53 c0 -7 -7 -21 -15 -31 -7 -11 -11
-25 -8 -33 8 -22 32 -16 44 10 17 36 56 50 85 31 19 -12 24 -25 25 -58 1 -23
3 -53 4 -66 6 -59 -64 -151 -115 -151 -12 0 -31 16 -48 39 -26 35 -28 45 -26
117 2 50 9 91 21 116 18 37 33 50 33 26z m681 -249 c22 -58 20 -168 -5 -221
-15 -31 -24 -38 -46 -38 -35 0 -40 13 -40 109 0 64 3 81 19 95 10 9 22 37 26
62 8 55 22 53 46 -7z m-761 -84 c0 -7 -6 -15 -12 -18 -16 -5 29 -57 48 -57 20
0 28 -84 14 -136 -17 -61 -53 -81 -105 -60 -48 20 -69 71 -62 144 7 63 28 99
62 108 13 3 27 15 30 25 7 21 25 16 25 -6z m890 -190 c14 -17 16 -118 2 -123
-5 -1 -7 -14 -4 -27 2 -14 -1 -32 -8 -40 -12 -14 -15 -13 -32 5 -10 11 -23 21
-28 21 -6 1 -14 2 -19 3 -13 1 -26 16 -15 16 5 0 10 16 12 36 4 55 37 124 60
124 11 0 25 -7 32 -15z m-1066 -146 c5 -34 9 -39 26 -34 15 5 20 0 25 -29 14
-74 10 -103 -21 -139 -37 -45 -57 -52 -88 -32 -30 20 -49 65 -42 101 16 87 32
129 62 158 24 24 31 20 38 -25z m951 -129 c31 -19 32 -23 34 -90 4 -126 -29
-239 -70 -240 -15 0 -31 20 -33 43 -1 4 -8 12 -16 17 -8 5 -12 10 -8 10 3 0 0
21 -8 48 -19 60 -9 206 12 198 8 -3 18 4 24 14 13 25 25 25 65 0z m-765 -80
c11 -6 31 -31 46 -56 33 -56 30 -111 -9 -170 -30 -44 -80 -79 -103 -70 -19 7
-44 67 -44 104 0 38 34 135 60 172 24 34 24 34 50 20z m180 -337 c30 -46 32
-52 28 -126 -3 -43 -10 -83 -16 -89 -7 -7 -12 -19 -12 -28 0 -8 -12 -26 -26
-39 -22 -21 -30 -23 -62 -15 -32 8 -41 17 -63 63 -24 50 -24 57 -13 110 24
114 61 168 116 170 9 1 30 -20 48 -46z m506 -21 c20 -13 25 -63 13 -149 -14
-106 -41 -171 -74 -179 -35 -9 -41 -1 -50 58 -14 93 -7 154 18 173 8 5 12 16
10 22 -3 7 2 16 11 19 9 3 16 13 16 21 0 9 8 22 18 29 20 16 23 16 38 6z
m-230 -231 c23 -14 34 -31 43 -64 13 -55 14 -104 2 -112 -5 -3 -12 -18 -16
-35 -4 -19 -11 -27 -20 -24 -7 3 -23 -4 -35 -16 -14 -14 -28 -19 -41 -15 -23
8 -91 94 -83 106 3 5 0 9 -5 9 -6 0 -11 13 -11 30 0 31 19 80 31 80 4 0 12 14
18 30 9 26 15 30 48 30 21 0 52 -9 69 -19z m-88 -364 l32 -12 -26 -53 c-14
-28 -30 -52 -35 -52 -5 0 -9 -7 -9 -15 0 -16 -127 -155 -141 -155 -5 0 -24
-15 -42 -32 -53 -53 -111 -97 -126 -98 -8 0 5 17 30 37 24 21 56 50 71 66 41
43 133 185 167 260 17 37 35 67 39 66 4 0 22 -6 40 -12z"/>
</g>
</svg>
