<?xml version="1.0" standalone="no"?>
<!DOCTYPE svg PUBLIC "-//W3C//DTD SVG 20010904//EN"
 "http://www.w3.org/TR/2001/REC-SVG-20010904/DTD/svg10.dtd">
<svg version="1.0" xmlns="http://www.w3.org/2000/svg"
 width="513.000000pt" height="443.000000pt" viewBox="0 0 513.000000 443.000000"
 preserveAspectRatio="xMidYMid meet">
<metadata>
Created by potrace 1.16, written by Peter Selinger 2001-2019
</metadata>
<g transform="translate(0.000000,443.000000) scale(0.100000,-0.100000)"
fill="#000000" stroke="none">
<path d="M453 4092 c-18 -20 -45 -53 -60 -72 -15 -19 -40 -47 -55 -62 -40 -41
-36 -61 19 -101 53 -38 137 -104 168 -132 17 -15 43 -36 58 -48 16 -12 35 -28
42 -34 8 -7 16 -13 20 -13 4 0 34 -24 68 -54 77 -68 214 -184 298 -253 35 -29
75 -63 89 -75 14 -13 81 -70 150 -127 135 -111 227 -191 269 -232 14 -14 69
-59 121 -100 52 -40 97 -77 101 -81 3 -4 28 -25 55 -45 28 -21 89 -73 135
-115 46 -42 101 -89 121 -105 98 -75 176 -151 165 -162 -6 -6 -17 -11 -24 -11
-7 0 -13 -4 -13 -8 0 -5 -10 -13 -22 -19 -13 -6 -34 -20 -48 -32 -25 -22 -151
-116 -215 -161 -20 -14 -42 -31 -50 -37 -7 -7 -18 -13 -23 -13 -6 0 -12 -4
-14 -9 -1 -4 -50 -41 -108 -80 -58 -40 -148 -102 -201 -139 -52 -37 -162 -114
-245 -171 -82 -58 -203 -143 -269 -191 -66 -47 -131 -94 -145 -103 -14 -9 -56
-38 -94 -64 -38 -27 -84 -58 -103 -71 -18 -12 -33 -26 -33 -30 0 -4 -23 -20
-51 -37 -27 -16 -83 -55 -123 -85 -41 -30 -88 -63 -105 -72 -36 -20 -64 -69
-43 -76 6 -2 12 -14 12 -26 0 -13 15 -43 33 -67 34 -46 56 -88 81 -152 8 -20
21 -38 28 -39 33 -4 67 -3 62 1 -2 2 6 12 19 20 13 9 54 41 93 71 70 56 196
145 235 167 12 6 25 16 29 23 4 6 19 19 33 28 14 9 59 41 101 70 42 28 81 52
86 52 5 0 13 6 17 13 9 13 113 89 208 152 33 21 62 42 63 47 2 4 9 8 16 8 6 0
18 9 26 20 8 11 19 20 25 20 5 0 21 9 35 20 41 32 120 86 195 132 39 23 76 48
83 55 7 7 16 13 20 13 4 0 27 19 52 41 25 22 65 53 90 69 25 16 50 34 57 40 7
5 14 10 16 10 3 0 22 16 43 35 20 19 39 33 42 31 2 -3 12 3 22 12 45 42 73 62
85 62 7 0 15 4 17 8 2 5 37 31 78 58 41 27 84 57 94 67 11 9 23 17 27 17 7 0
29 17 79 63 25 23 49 27 64 12 8 -8 17 -15 19 -15 6 0 52 -40 136 -115 31 -28
72 -61 91 -74 19 -13 40 -29 45 -36 6 -6 57 -49 115 -95 58 -47 119 -98 135
-115 17 -16 51 -46 75 -65 25 -19 51 -40 58 -48 8 -7 30 -24 50 -39 21 -15 55
-43 77 -64 22 -20 67 -58 100 -84 64 -51 126 -103 240 -201 38 -33 128 -107
200 -165 71 -57 156 -128 188 -158 32 -30 79 -69 105 -87 26 -18 54 -40 63
-50 9 -11 25 -26 35 -34 11 -8 50 -39 88 -69 37 -30 89 -74 113 -98 25 -24 49
-43 54 -43 4 0 11 -9 14 -20 12 -37 105 -20 105 19 0 6 37 48 82 95 67 68 84
92 86 119 3 27 -2 39 -18 50 -12 9 -17 16 -10 19 18 6 -8 54 -36 67 -13 6 -24
15 -24 21 0 5 -5 10 -11 10 -6 0 -16 6 -23 13 -7 6 -27 23 -46 37 -18 14 -56
45 -85 70 -28 25 -62 52 -75 60 -13 8 -31 22 -39 30 -9 8 -35 28 -56 45 -22
16 -46 37 -53 47 -7 10 -19 18 -26 18 -8 0 -16 7 -20 15 -3 8 -12 15 -21 15
-9 0 -28 12 -43 28 -33 33 -167 142 -175 142 -3 0 -17 10 -30 23 -47 45 -87
77 -97 77 -5 0 -10 6 -10 13 0 7 -15 20 -32 30 -18 10 -55 38 -83 63 -59 53
-129 104 -144 104 -6 0 -11 4 -11 10 0 10 -116 110 -175 150 -46 32 -77 56
-129 101 -22 20 -93 77 -156 128 -63 51 -130 106 -147 122 -18 16 -36 29 -41
29 -5 0 -19 11 -31 24 -13 13 -42 36 -65 51 -50 31 -76 67 -56 73 8 3 23 15
34 27 12 12 46 38 76 58 30 19 99 70 153 111 53 42 100 76 103 76 3 0 12 6 19
13 51 46 88 74 145 110 36 22 76 51 90 64 14 13 33 26 43 29 9 3 17 12 17 20
0 8 5 14 11 14 6 0 31 14 56 30 24 17 47 30 51 30 4 0 19 11 34 25 15 14 31
25 36 25 6 0 12 6 15 14 3 7 33 30 66 50 33 21 73 49 89 64 43 41 85 72 99 72
7 0 13 4 13 9 0 8 14 19 105 76 30 20 47 33 85 67 10 9 27 19 38 22 11 4 27
15 37 26 10 11 23 20 30 20 6 0 24 13 41 28 35 34 177 132 192 132 5 0 12 7
16 15 3 8 9 14 13 13 20 -6 73 47 79 80 7 37 -11 82 -33 82 -7 0 -13 4 -13 9
0 4 -25 35 -56 67 -30 33 -69 74 -85 92 -16 17 -37 32 -47 32 -35 0 -60 -12
-72 -36 -7 -13 -22 -26 -32 -30 -10 -3 -29 -16 -42 -29 -13 -13 -38 -31 -56
-40 -18 -9 -42 -27 -54 -39 -11 -13 -46 -39 -76 -59 -113 -76 -283 -197 -304
-216 -12 -12 -27 -21 -33 -21 -6 0 -13 -3 -15 -7 -6 -15 -104 -90 -212 -162
-60 -40 -121 -84 -135 -97 -14 -14 -59 -47 -99 -75 -40 -28 -87 -64 -104 -80
-18 -16 -36 -29 -40 -29 -3 0 -13 -6 -20 -13 -12 -12 -207 -155 -255 -187 -12
-8 -87 -63 -167 -122 -80 -60 -150 -108 -155 -108 -15 0 -163 105 -211 150
-25 23 -65 58 -90 78 -25 20 -52 43 -61 52 -43 41 -80 70 -89 70 -5 0 -10 4
-10 8 0 5 -21 24 -47 43 -27 18 -68 52 -93 75 -25 23 -63 54 -85 68 -42 28
-96 72 -148 121 -18 17 -55 48 -82 70 -27 22 -70 59 -95 82 -25 24 -50 43 -55
43 -6 0 -32 23 -59 50 -27 28 -52 50 -56 50 -3 0 -26 18 -51 40 -24 22 -67 56
-96 75 -28 19 -53 39 -55 43 -1 5 -29 28 -60 51 -32 24 -58 47 -58 52 0 5 -6
9 -13 9 -7 0 -37 22 -67 49 -48 43 -105 92 -166 141 -11 9 -59 53 -109 98 -74
68 -95 82 -120 81 -16 -1 -41 1 -55 4 -20 4 -32 -2 -57 -31z"/>
</g>
</svg>
