<?xml version="1.0" standalone="no"?>
<!DOCTYPE svg PUBLIC "-//W3C//DTD SVG 20010904//EN"
 "http://www.w3.org/TR/2001/REC-SVG-20010904/DTD/svg10.dtd">
<svg version="1.0" xmlns="http://www.w3.org/2000/svg"
 width="393.000000pt" height="461.000000pt" viewBox="0 0 393.000000 461.000000"
 preserveAspectRatio="xMidYMid meet">
<metadata>
Created by potrace 1.16, written by Peter Selinger 2001-2019
</metadata>
<g transform="translate(0.000000,461.000000) scale(0.100000,-0.100000)"
fill="#000000" stroke="none">
<path d="M1780 4535 c-14 -17 -7 -57 15 -79 25 -25 42 -76 50 -146 4 -36 10
-69 14 -75 4 -5 8 -26 10 -45 1 -19 4 -47 6 -62 4 -23 2 -28 -14 -28 -27 0
-39 -43 -34 -125 3 -50 -1 -94 -17 -155 -11 -47 -23 -94 -25 -105 -18 -77 -57
-178 -102 -255 -42 -73 -78 -275 -62 -339 3 -8 -6 -14 -21 -16 -58 -8 -127
-27 -158 -46 -18 -10 -39 -19 -46 -19 -7 0 -21 -8 -32 -17 -26 -24 -82 -63
-89 -63 -7 0 -50 -44 -50 -52 0 -3 -10 -18 -23 -33 -12 -14 -20 -30 -17 -35 4
-6 2 -10 -4 -10 -5 0 -12 -13 -16 -30 -4 -16 -11 -30 -16 -30 -14 0 -11 -48 6
-80 9 -17 12 -30 8 -30 -5 0 -3 -4 4 -8 18 -11 41 -109 42 -175 0 -31 5 -74
10 -95 6 -20 13 -62 16 -92 7 -81 23 -201 29 -230 18 -78 24 -132 31 -262 l6
-96 -28 -5 c-15 -3 -46 -6 -67 -6 -22 -1 -42 -4 -46 -6 -3 -2 -50 -11 -104
-20 -108 -17 -316 -95 -354 -132 -7 -7 -17 -13 -22 -13 -13 0 -153 -81 -171
-99 -9 -9 -30 -27 -47 -40 -18 -13 -32 -29 -32 -34 0 -6 -11 -25 -25 -43 -14
-18 -25 -37 -25 -43 0 -6 -5 -11 -11 -11 -6 0 -9 -6 -6 -14 3 -7 2 -17 -3 -22
-23 -26 -60 -198 -54 -251 19 -162 26 -197 43 -232 28 -55 134 -184 182 -222
49 -39 329 -183 390 -200 24 -7 51 -18 60 -26 9 -7 18 -10 21 -7 4 3 28 -4 55
-16 36 -16 76 -23 163 -27 84 -4 136 -12 195 -31 76 -25 92 -26 315 -28 129
-1 260 1 290 6 30 4 73 5 95 1 22 -4 58 -4 80 0 22 4 54 9 70 12 17 3 61 10
99 16 38 7 81 18 97 26 15 8 40 15 55 15 15 0 50 11 78 24 29 14 65 28 81 31
17 4 49 15 72 26 24 10 52 19 63 19 11 0 20 5 20 10 0 6 4 10 9 10 6 0 36 16
68 35 31 19 71 37 88 41 16 4 47 22 68 40 20 19 42 34 48 34 6 0 16 6 24 12 7
7 26 22 41 33 16 11 40 33 54 49 14 16 50 55 80 85 30 31 75 85 99 121 25 36
49 68 54 71 5 3 8 8 7 10 -1 2 1 11 4 19 2 8 14 44 25 79 30 93 23 215 -16
291 -32 62 -90 130 -110 130 -7 0 -13 4 -13 10 0 5 -11 12 -25 16 -14 3 -25
10 -25 14 0 5 -10 12 -22 16 -12 3 -31 15 -42 25 -11 11 -26 19 -33 19 -7 0
-32 9 -56 19 -83 39 -283 82 -383 83 l-41 0 -7 121 c-3 67 -8 140 -11 162 -17
175 -25 305 -30 525 -3 140 -9 271 -12 290 -4 19 -6 55 -5 80 3 61 -6 110 -21
110 -7 0 -21 20 -31 43 -21 45 -88 117 -110 117 -8 0 -19 6 -25 14 -6 8 -33
19 -59 26 -62 17 -57 16 -132 24 -36 4 -72 11 -80 16 -9 5 -17 35 -21 80 -4
52 -12 77 -28 93 -11 13 -21 27 -21 31 0 4 -8 19 -18 34 -54 78 -74 112 -76
127 -1 9 -7 20 -13 23 -30 19 -52 222 -33 305 20 91 29 300 17 389 -8 60 -27
105 -77 184 -21 34 -36 65 -33 68 4 3 1 6 -6 6 -7 0 -18 6 -26 13 -53 50 -74
57 -95 32z m148 -244 c29 -66 37 -266 15 -361 -31 -132 -18 -396 22 -440 8 -9
15 -21 15 -26 0 -6 9 -19 19 -31 11 -11 28 -40 40 -65 11 -25 27 -51 36 -58
62 -52 51 -222 -18 -274 -35 -27 -112 -42 -136 -27 -13 8 -12 15 2 48 14 31
40 133 61 233 5 27 -15 94 -34 112 -26 24 -42 23 -69 -6 -18 -19 -21 -30 -15
-63 9 -56 -27 -233 -48 -233 -4 0 -7 -3 -6 -7 4 -19 -15 -63 -27 -63 -7 0 -23
12 -36 26 -13 14 -35 36 -47 48 -23 22 -24 28 -19 123 3 55 10 108 15 119 6
10 20 39 31 64 11 25 31 64 45 86 13 23 27 58 30 78 3 20 10 44 15 54 9 15 22
62 25 87 1 6 7 28 13 50 30 106 35 134 34 212 -1 64 2 83 13 83 14 0 30 55 20
71 -7 13 -21 189 -14 189 3 0 11 -13 18 -29z m445 -1290 c6 -6 21 -11 33 -11
13 0 31 -10 41 -23 10 -13 27 -26 37 -30 10 -4 16 -10 13 -14 -4 -3 0 -11 9
-18 9 -6 17 -23 17 -38 1 -15 5 -27 10 -27 10 0 9 -27 -2 -48 -5 -9 -15 -32
-21 -49 -7 -18 -16 -33 -21 -33 -5 0 -9 -5 -9 -11 0 -10 -45 -59 -55 -59 -2 0
-14 -10 -27 -21 -27 -24 -85 -49 -203 -85 -58 -18 -110 -27 -187 -29 -58 -3
-110 -5 -115 -7 -4 -1 -35 2 -68 7 -33 4 -67 7 -76 6 -9 -1 -58 12 -109 29
-51 16 -98 30 -105 30 -7 0 -30 9 -52 19 -21 11 -53 25 -70 33 -18 7 -33 16
-33 20 0 5 -7 8 -16 8 -28 0 -84 68 -84 101 0 33 20 78 52 114 29 34 128 92
174 104 21 5 53 13 69 18 36 11 115 7 129 -7 5 -5 20 -10 33 -10 13 0 23 -4
23 -10 0 -5 7 -10 15 -10 9 0 17 -6 19 -12 3 -7 12 -39 22 -71 9 -33 23 -61
31 -64 7 -3 13 -14 13 -24 0 -21 0 -21 45 -23 23 -2 34 4 48 27 17 27 15 67
-3 67 -7 0 -40 60 -40 74 0 3 26 6 58 6 38 0 69 7 92 19 19 11 45 24 58 30 12
6 22 15 22 20 0 5 8 7 18 5 9 -2 31 0 47 5 36 12 154 6 168 -8z m203 -624 c1
-123 6 -256 12 -297 5 -41 10 -88 10 -105 0 -28 4 -97 17 -275 6 -95 16 -173
22 -183 2 -4 6 -33 8 -65 8 -118 15 -188 21 -237 8 -55 9 -122 3 -145 -2 -8
-24 -30 -49 -49 -25 -19 -47 -38 -50 -41 -3 -4 -20 -13 -37 -21 -18 -8 -33
-17 -33 -21 0 -5 -7 -8 -16 -8 -8 0 -41 -12 -72 -27 -52 -24 -69 -26 -197 -29
-133 -2 -206 7 -270 35 -48 20 -80 36 -85 42 -3 3 -25 13 -50 21 -25 9 -44 21
-43 27 2 6 -5 11 -15 11 -9 0 -35 12 -57 25 -22 14 -45 25 -52 25 -7 0 -25 12
-41 27 -16 16 -41 37 -56 47 -15 11 -34 36 -43 55 -12 27 -17 31 -20 18 -5
-19 -18 -23 -28 -7 -3 5 -8 53 -10 107 -13 248 -21 359 -28 370 -8 13 -18 107
-22 211 -1 48 -11 119 -20 157 -9 39 -18 88 -20 110 -3 57 -24 235 -31 270 -4
16 -7 48 -8 71 -2 48 -14 50 132 -15 51 -23 104 -41 117 -41 14 0 25 -4 25 -9
0 -4 28 -14 63 -21 69 -15 77 -16 162 -23 33 -3 65 -6 70 -7 6 -1 12 -2 15 0
3 1 50 3 105 5 110 4 194 17 240 39 17 8 62 27 100 42 108 41 134 56 179 100
22 23 43 39 46 37 2 -2 5 -104 6 -226z m-1276 -798 c0 -5 4 -8 8 -5 5 3 10 -9
12 -27 6 -59 4 -242 -2 -284 -6 -36 -3 -46 21 -74 20 -22 33 -30 47 -25 16 5
19 1 18 -27 -1 -27 9 -41 65 -94 36 -34 70 -63 74 -63 5 0 21 -8 35 -18 15
-11 72 -43 127 -72 55 -29 102 -56 105 -60 6 -7 137 -52 160 -55 8 -1 27 -5
43 -9 26 -8 91 -13 202 -17 53 -1 99 6 127 22 10 5 30 9 45 9 31 0 183 60 183
72 0 4 5 8 12 8 30 0 158 99 158 123 0 4 12 7 26 7 21 0 25 4 21 20 -3 11 -1
20 5 20 5 0 8 8 7 18 -1 9 1 24 5 32 7 18 4 49 -7 67 -4 7 -5 23 -1 37 3 13 1
33 -4 43 -6 10 -16 64 -22 120 -6 56 -13 111 -15 122 -3 19 1 21 46 22 27 0
61 1 77 2 24 0 77 -13 217 -55 22 -7 55 -23 74 -35 19 -13 40 -23 47 -23 7 0
17 -7 22 -16 5 -9 12 -15 15 -15 4 1 11 1 15 1 11 0 72 -55 72 -64 0 -4 11
-22 25 -41 34 -44 41 -111 22 -204 -21 -97 -53 -146 -208 -313 -14 -15 -29
-25 -32 -21 -4 3 -7 -1 -7 -10 0 -9 -10 -22 -22 -28 -13 -7 -25 -15 -28 -19
-12 -17 -188 -130 -203 -130 -9 0 -19 -4 -22 -10 -3 -5 -17 -10 -30 -10 -13 0
-27 -5 -31 -11 -10 -16 -93 -51 -104 -44 -6 3 -10 1 -10 -4 0 -6 -9 -11 -20
-11 -11 0 -20 -4 -20 -8 0 -15 -266 -96 -282 -85 -5 2 -8 0 -8 -6 0 -23 -304
-52 -470 -44 -52 3 -99 5 -105 6 -5 0 -49 -3 -97 -7 -63 -5 -104 -3 -145 8
-70 17 -225 43 -310 51 -34 3 -82 14 -108 25 -25 11 -48 19 -50 19 -25 -1
-188 59 -221 82 -24 16 -50 29 -58 29 -9 0 -16 4 -16 9 0 5 -12 11 -27 14 -16
3 -38 15 -51 27 -12 11 -26 19 -30 16 -5 -3 -16 3 -25 12 -8 9 -33 31 -55 47
-21 17 -54 50 -73 75 -19 25 -36 47 -39 50 -18 17 -44 79 -48 114 -16 122 8
290 49 348 10 15 19 32 19 38 0 5 5 10 10 10 6 0 10 7 10 15 0 8 4 15 8 15 5
0 28 18 51 40 24 21 87 61 140 87 53 26 98 50 101 54 9 9 112 51 139 56 14 2
30 8 36 14 5 5 21 9 36 9 14 0 40 5 57 11 27 9 127 24 190 28 12 0 22 -4 22
-10z"/>
<path d="M2433 4245 c-53 -14 -153 -62 -185 -87 -22 -18 -7 -58 22 -58 11 0
53 23 92 50 39 28 75 50 80 50 5 0 31 10 59 21 83 36 37 52 -68 24z"/>
<path d="M1296 4134 c-22 -22 -20 -30 14 -54 17 -12 30 -19 30 -16 0 3 11 1
25 -4 14 -5 48 -10 76 -11 27 -1 52 -5 54 -9 3 -6 19 -6 56 -1 3 1 4 12 1 26
-2 14 -7 23 -10 21 -3 -3 -10 -2 -16 3 -6 5 -46 16 -88 25 -43 10 -80 21 -83
27 -9 14 -42 11 -59 -7z"/>
<path d="M2510 3921 c-8 -6 -18 -7 -22 -4 -5 2 -40 -14 -79 -37 -57 -34 -70
-46 -67 -63 2 -17 10 -22 36 -23 17 -1 37 5 44 13 6 8 44 32 84 54 83 46 101
69 51 69 -18 0 -39 -4 -47 -9z"/>
<path d="M1365 3708 c-22 -4 -75 -7 -119 -6 -83 1 -96 -6 -96 -49 0 -23 1 -24
80 -28 34 -2 162 34 179 50 25 24 1 42 -44 33z"/>
<path d="M2428 3604 c-12 -12 -9 -51 5 -62 19 -15 76 -20 120 -10 30 6 42 5
48 -4 5 -8 10 -3 14 15 11 43 2 52 -51 53 -27 1 -67 5 -89 9 -22 4 -43 3 -47
-1z"/>
<path d="M1177 3352 c-67 -12 -78 -17 -83 -37 -12 -49 8 -54 122 -30 39 8 88
17 110 20 21 3 53 9 69 12 17 4 36 6 43 4 9 -1 12 6 10 21 -3 22 -7 23 -98 24
-52 0 -130 -6 -173 -14z"/>
</g>
</svg>
