<?xml version="1.0" standalone="no"?>
<!DOCTYPE svg PUBLIC "-//W3C//DTD SVG 20010904//EN"
 "http://www.w3.org/TR/2001/REC-SVG-20010904/DTD/svg10.dtd">
<svg version="1.0" xmlns="http://www.w3.org/2000/svg"
 width="471.000000pt" height="381.000000pt" viewBox="0 0 471.000000 381.000000"
 preserveAspectRatio="xMidYMid meet">
<metadata>
Created by potrace 1.16, written by Peter Selinger 2001-2019
</metadata>
<g transform="translate(0.000000,381.000000) scale(0.100000,-0.100000)"
fill="#000000" stroke="none">
<path d="M2292 3743 c-8 -3 -37 -20 -65 -39 -28 -19 -62 -34 -74 -34 -13 0
-23 -4 -23 -10 0 -5 -3 -10 -7 -9 -14 2 -54 -13 -97 -36 -22 -12 -90 -48 -151
-80 -60 -31 -114 -60 -120 -65 -5 -4 -53 -29 -105 -56 -101 -51 -105 -54 -150
-97 -17 -16 -30 -26 -30 -22 0 3 -10 -4 -22 -16 -13 -11 -34 -28 -48 -37 -14
-9 -83 -60 -155 -113 -71 -52 -163 -117 -204 -144 -78 -50 -100 -67 -165 -128
-23 -22 -68 -64 -101 -94 -33 -30 -80 -73 -105 -96 -25 -23 -67 -60 -94 -82
-66 -54 -88 -78 -143 -158 -45 -65 -46 -69 -35 -102 9 -24 10 -45 2 -77 -31
-128 -47 -449 -31 -612 6 -61 14 -158 17 -216 9 -169 31 -310 79 -524 14 -62
25 -130 25 -150 0 -19 7 -53 15 -73 8 -21 21 -69 30 -108 9 -38 24 -86 34
-105 17 -32 23 -56 50 -178 5 -24 7 -68 4 -99 -6 -68 12 -93 66 -93 32 0 38 5
53 38 19 41 94 128 108 125 5 -2 11 5 15 15 10 28 286 192 324 192 10 0 242
129 261 145 31 26 157 84 220 101 65 17 140 53 172 81 10 9 23 13 31 10 7 -3
19 3 25 13 6 11 28 26 49 36 21 9 56 25 79 35 22 11 44 19 48 19 5 0 71 31
147 70 77 38 147 70 157 70 9 0 29 11 44 25 15 14 32 25 39 25 6 0 40 -14 76
-31 36 -17 101 -38 146 -46 45 -9 124 -29 175 -45 70 -22 120 -30 210 -34 126
-7 178 -19 259 -65 29 -16 63 -29 75 -29 32 0 370 -73 408 -87 8 -3 24 -5 35
-4 11 1 52 -10 90 -25 90 -33 248 -42 282 -15 45 37 53 70 58 258 3 98 8 230
11 293 3 63 5 124 5 135 -1 55 0 144 4 175 2 19 6 67 10 105 4 39 9 78 11 88
10 54 23 213 23 287 0 47 7 128 15 180 9 52 18 118 21 145 5 49 14 112 21 148
2 10 4 40 5 65 1 26 6 54 10 63 27 54 31 239 6 284 -9 17 -17 38 -17 48 0 9
-4 17 -9 17 -5 0 -12 16 -15 35 -5 25 -15 39 -32 47 -13 6 -24 14 -24 18 0 4
-8 10 -17 14 -10 3 -25 10 -33 15 -8 5 -26 13 -40 19 -14 5 -52 21 -85 35 -33
14 -100 40 -150 57 -49 18 -121 47 -160 65 -38 18 -90 41 -115 51 -25 9 -70
28 -100 42 -30 13 -74 26 -98 28 -25 2 -92 18 -151 35 -58 17 -126 35 -151 39
-25 5 -65 14 -90 20 -25 6 -57 14 -73 17 -15 3 -30 9 -33 14 -3 5 -13 9 -22 9
-9 0 -52 13 -96 29 -45 16 -110 37 -146 47 -36 10 -70 21 -77 26 -6 5 -23 11
-37 14 -14 2 -41 13 -59 23 -56 31 -110 44 -176 43 -35 -1 -66 -4 -69 -6 -2
-3 -12 -2 -21 3 -9 5 -22 6 -29 4z m176 -142 c2 -6 7 -9 12 -6 8 5 100 -23
113 -35 16 -14 -100 -1 -139 15 -22 10 -48 18 -59 20 -11 1 -23 3 -27 4 -5 0
-8 5 -8 11 0 13 103 6 108 -9z m-148 -33 c7 -18 15 -36 18 -40 2 -5 -5 -8 -16
-8 -11 0 -25 -7 -32 -15 -7 -8 -18 -15 -24 -15 -17 0 -204 -98 -243 -128 -18
-13 -33 -21 -33 -17 0 4 -6 3 -12 -2 -7 -6 -24 -13 -38 -16 -14 -4 -36 -16
-49 -28 -32 -30 -154 -109 -168 -109 -6 0 -13 -3 -15 -8 -8 -18 -140 -101
-209 -131 -42 -18 -90 -47 -106 -64 -17 -18 -53 -43 -79 -57 -27 -13 -85 -46
-130 -71 -67 -38 -270 -142 -309 -157 -5 -3 26 31 70 74 52 51 116 100 180
138 85 50 166 110 223 163 7 7 26 20 42 30 17 9 30 21 30 25 0 4 5 8 11 8 6 0
16 6 24 13 28 26 92 73 120 87 6 3 42 26 82 53 39 26 80 47 90 47 17 0 60 24
73 40 6 7 307 156 330 163 8 2 18 5 22 6 4 1 31 13 60 26 29 14 58 25 63 25 6
0 17 -15 25 -32z m340 -28 c18 -12 2 -12 -25 0 -13 6 -15 9 -5 9 8 0 22 -4 30
-9z m-171 -26 c24 -3 58 -8 75 -9 54 -6 97 -15 130 -29 17 -7 47 -16 67 -20
20 -3 63 -19 95 -35 33 -16 75 -31 94 -35 19 -4 76 -24 125 -45 116 -49 286
-108 400 -137 50 -13 115 -33 145 -43 30 -11 100 -34 155 -51 55 -17 109 -35
120 -40 42 -19 153 -62 225 -87 41 -14 86 -30 100 -36 l25 -10 -28 -7 c-15 -5
-43 -4 -63 2 -20 5 -43 7 -51 4 -8 -3 -48 7 -89 24 -61 24 -125 39 -270 64 -7
1 -18 7 -25 12 -20 15 -92 40 -184 63 -44 11 -120 34 -168 51 -49 16 -103 32
-120 36 -17 3 -36 9 -42 13 -5 4 -66 27 -135 50 -69 23 -156 57 -195 75 -38
18 -86 39 -105 46 -19 7 -46 21 -60 30 -45 31 -234 102 -274 104 -23 0 -41 7
-44 15 -3 10 3 12 24 8 16 -3 49 -9 73 -13z m231 6 c13 -9 13 -10 0 -10 -8 0
-22 5 -30 10 -13 9 -13 10 0 10 8 0 22 -5 30 -10z m132 -37 c62 -31 68 -33 89
-33 12 0 64 -13 116 -30 51 -16 111 -30 133 -30 21 0 69 -11 107 -24 37 -13
109 -32 158 -41 50 -10 110 -28 135 -40 25 -13 62 -29 84 -37 21 -7 41 -18 43
-25 3 -6 10 -10 18 -7 7 3 19 -1 26 -8 8 -7 19 -13 24 -13 6 0 35 -12 65 -27
30 -14 105 -43 165 -63 131 -44 175 -63 175 -75 0 -5 7 -7 16 -3 16 6 58 -30
47 -41 -12 -11 -150 29 -243 72 -54 25 -145 58 -185 68 -12 3 -73 25 -216 75
-59 21 -128 41 -155 45 -64 8 -211 65 -225 86 -3 4 -25 10 -50 12 -24 2 -64
12 -89 24 -95 43 -143 62 -159 62 -9 0 -21 4 -26 8 -6 5 -30 17 -55 27 -25 10
-61 24 -80 32 l-35 14 42 -6 c23 -3 56 -12 75 -22z m-497 -33 c7 -11 48 -14
59 -3 14 15 44 12 121 -13 69 -23 139 -52 207 -85 10 -5 22 -9 28 -9 11 0 117
-51 165 -79 27 -15 93 -38 135 -45 22 -3 62 -16 85 -26 84 -37 117 -49 165
-60 30 -7 62 -16 70 -20 26 -13 187 -60 205 -60 9 0 60 -17 113 -39 54 -21
123 -41 156 -45 32 -3 66 -11 75 -16 13 -8 11 -9 -9 -6 -14 3 -47 8 -75 11
-27 3 -75 15 -105 25 -30 10 -77 21 -105 25 -113 15 -200 32 -223 43 -9 5 -22
7 -29 5 -6 -2 -25 3 -41 11 -47 24 -115 46 -145 46 -15 0 -35 4 -45 9 -9 5
-38 15 -64 22 -27 6 -48 16 -48 20 0 5 -7 9 -16 9 -9 0 -52 18 -96 40 -44 22
-86 40 -92 40 -7 0 -32 9 -56 21 -23 11 -53 23 -65 25 -39 7 -169 66 -196 88
-15 13 -41 28 -58 36 -29 11 -34 11 -54 -8 -28 -25 -97 -62 -117 -62 -9 0 -20
-4 -25 -9 -6 -4 -32 -17 -60 -27 -27 -10 -61 -24 -75 -31 -14 -7 -30 -13 -35
-13 -6 0 -35 -13 -65 -30 -30 -16 -65 -34 -77 -39 -11 -5 -101 -49 -200 -97
-347 -169 -494 -236 -501 -230 -3 3 22 18 55 34 33 16 82 44 109 64 27 19 84
52 127 73 42 20 77 41 77 45 0 4 11 11 24 14 14 3 37 17 53 30 15 13 69 49
118 80 121 76 113 72 170 97 28 13 66 33 85 45 19 13 51 29 70 35 19 7 43 19
52 27 18 15 96 40 130 41 9 1 20 -3 23 -9z m266 -242 c16 -7 29 -16 29 -19 0
-3 11 -5 25 -4 14 2 27 -1 31 -6 3 -5 12 -9 20 -9 9 0 40 -11 70 -25 30 -14
59 -25 64 -25 6 0 10 -4 10 -9 0 -5 15 -14 33 -21 17 -7 41 -16 52 -21 11 -5
32 -13 48 -19 30 -11 27 12 31 -232 l1 -86 -30 5 c-16 2 -43 9 -59 14 -72 23
-129 -1 -128 -53 2 -85 1 -157 -3 -183 -3 -16 -7 -118 -10 -225 -2 -107 -7
-244 -10 -305 -3 -60 -7 -168 -10 -240 -2 -71 -7 -140 -9 -153 -10 -48 11 -69
83 -83 36 -7 69 -14 74 -15 4 -1 18 -2 30 -3 13 0 34 -10 46 -20 21 -18 21
-24 16 -147 -4 -71 -6 -146 -5 -166 0 -21 -4 -38 -10 -38 -6 0 -10 -6 -9 -12
5 -45 -1 -57 -31 -56 -16 1 -30 6 -30 11 0 6 -3 8 -6 4 -4 -3 -18 0 -33 7 -14
7 -75 23 -136 35 -60 13 -128 31 -150 42 -22 10 -44 19 -50 19 -5 1 -21 10
-35 21 -23 20 -25 27 -25 113 0 50 4 138 8 196 12 142 16 253 10 262 -6 11 -9
208 -3 208 3 0 4 30 2 67 -5 113 -6 445 -1 498 2 28 -1 71 -7 96 -14 55 -10
432 5 529 6 36 11 68 11 72 0 8 48 -5 91 -24z m-301 -2 c-5 -13 -6 -33 -3 -45
3 -12 -4 -36 -16 -57 -12 -20 -19 -44 -16 -53 3 -9 -9 -43 -25 -74 -17 -32
-30 -73 -30 -90 0 -32 -40 -129 -65 -157 -21 -24 -51 -81 -65 -125 -16 -51
-39 -103 -105 -240 -29 -60 -63 -141 -76 -180 -13 -38 -43 -108 -67 -155 -24
-47 -53 -109 -64 -137 -11 -29 -24 -53 -29 -53 -5 0 -9 -6 -9 -14 0 -22 -108
-154 -132 -162 -12 -3 -35 -22 -52 -40 -16 -19 -37 -34 -46 -34 -9 0 -21 -5
-27 -11 -7 -7 -23 -8 -45 -3 -18 4 -37 8 -43 9 -30 4 -101 50 -142 93 -12 13
-28 24 -35 26 -8 1 -30 11 -51 23 -33 20 -99 43 -137 47 -8 2 -22 5 -30 9 -28
11 -213 67 -222 67 -14 0 -80 31 -98 46 -8 7 -44 22 -80 34 -101 33 -130 50
-130 80 0 49 21 206 31 240 11 35 55 90 72 90 5 0 27 15 50 34 114 92 683 416
732 416 8 0 15 4 15 8 0 5 24 19 53 32 28 13 70 31 92 41 22 10 81 34 130 55
50 20 101 44 115 54 31 22 214 110 228 110 6 0 12 4 14 8 5 12 281 132 305
132 9 0 10 -7 3 -24z m87 -73 c-3 -10 -5 -4 -5 12 0 17 2 24 5 18 2 -7 2 -21
0 -30z m0 -246 c1 -122 5 -440 8 -707 6 -588 6 -546 -6 -705 -5 -71 -11 -155
-13 -185 -5 -91 -12 -105 -67 -130 -27 -12 -62 -32 -77 -45 -15 -12 -76 -46
-137 -75 -144 -68 -245 -118 -270 -133 -64 -38 -141 -82 -145 -83 -3 0 -12 -3
-20 -6 -8 -3 -51 -18 -95 -33 -44 -15 -87 -32 -95 -39 -8 -7 -40 -25 -70 -41
-30 -15 -57 -32 -60 -36 -6 -9 -199 -108 -320 -164 -47 -21 -110 -55 -140 -75
-30 -20 -80 -53 -110 -72 -30 -20 -58 -33 -62 -29 -4 4 -9 20 -12 36 -2 17 -8
43 -15 58 -6 16 -11 33 -11 38 0 5 -7 26 -17 47 -9 20 -17 39 -18 42 -7 26
-18 59 -25 75 -15 36 -41 145 -39 163 1 9 -2 35 -8 57 -18 66 -34 165 -29 174
3 5 -1 14 -9 21 -8 7 -15 27 -15 44 0 17 -6 72 -14 121 -8 50 -17 117 -20 150
-24 262 -31 351 -31 425 l0 85 30 -3 c16 -2 34 -7 40 -11 5 -5 30 -11 54 -15
24 -4 62 -15 85 -25 42 -19 103 -40 121 -42 6 -1 19 -6 30 -12 11 -6 22 -12
25 -12 6 -2 59 -23 85 -34 21 -9 82 -26 129 -36 16 -3 46 -24 66 -46 21 -21
44 -39 50 -39 7 0 23 -9 37 -20 14 -11 32 -20 40 -20 9 0 13 -6 10 -13 -3 -8
8 -19 27 -27 17 -7 34 -18 37 -23 9 -13 174 -13 191 0 7 6 23 13 34 17 12 4
43 27 69 51 26 25 53 45 60 45 7 0 15 3 17 8 2 4 18 19 36 35 19 15 30 27 26
27 -4 0 0 8 8 18 27 31 113 195 137 262 13 36 36 92 51 125 15 33 33 78 40
100 17 54 51 130 109 245 27 52 54 120 61 150 7 30 26 80 43 110 66 120 86
166 87 193 0 26 34 106 50 117 4 3 10 22 14 44 7 37 25 76 36 76 3 0 6 -100 7
-223z m825 96 c15 -12 193 -59 258 -67 25 -4 51 -10 57 -14 7 -4 18 -44 24
-87 10 -75 9 -152 -8 -360 -4 -44 -6 -98 -6 -120 1 -22 2 -70 2 -107 1 -71 6
-79 53 -84 17 -2 42 -9 56 -16 36 -18 89 -91 102 -141 6 -23 15 -51 20 -62 16
-37 21 -63 15 -88 -6 -21 -16 -26 -63 -36 -31 -6 -81 -9 -110 -6 -50 4 -53 2
-68 -26 -10 -21 -15 -55 -14 -107 5 -200 -2 -564 -11 -627 -6 -38 -10 -78 -10
-87 0 -10 -8 -18 -17 -18 -31 0 -116 27 -189 59 -40 17 -94 34 -120 37 -26 3
-57 7 -68 9 -19 2 -20 9 -18 131 2 185 2 219 1 639 0 209 0 418 0 465 0 47 0
168 0 270 -2 268 3 421 14 446 9 18 15 20 49 14 21 -4 44 -12 51 -17z m538
-128 c36 -8 84 -15 106 -15 23 0 79 -6 125 -14 46 -8 120 -17 164 -19 147 -9
155 -15 142 -94 -5 -32 -10 -71 -12 -88 -2 -16 -10 -84 -19 -149 -9 -66 -14
-121 -12 -124 3 -2 1 -14 -4 -26 -12 -33 -23 -139 -25 -261 -2 -60 -4 -110 -4
-110 -1 0 -3 -25 -5 -55 -2 -31 -6 -69 -10 -85 -3 -17 -8 -43 -10 -60 -7 -43
-19 -289 -20 -435 -3 -247 -21 -445 -42 -477 -18 -28 -72 -30 -173 -9 -36 8
-100 21 -141 27 -90 15 -75 12 -135 27 l-50 13 3 217 c4 413 8 551 14 557 3 4
22 7 42 8 20 1 36 6 36 10 0 4 6 7 13 5 20 -4 107 36 107 50 0 6 4 12 8 12 5
0 17 24 27 53 l17 52 -26 75 c-15 41 -32 91 -38 110 -6 19 -14 37 -18 40 -4 3
-14 19 -23 35 -20 38 -88 110 -104 111 -48 4 -45 -14 -38 267 5 231 6 313 3
336 -3 28 4 42 20 37 9 -3 46 -12 82 -21z m-2530 0 c-7 -9 -15 -13 -19 -10 -3
3 1 10 9 15 21 14 24 12 10 -5z m-220 -119 c0 -3 -12 -11 -27 -19 -79 -41
-169 -91 -177 -98 -16 -14 -29 -10 -17 5 6 8 33 23 59 35 26 12 67 35 92 51
41 26 70 37 70 26z"/>
<path d="M1543 2123 c-40 -5 -112 -73 -166 -154 -29 -44 -37 -66 -37 -102 0
-25 5 -49 10 -52 6 -3 10 -16 10 -28 0 -18 2 -19 10 -7 8 12 10 11 10 -6 0
-32 44 -49 129 -49 66 0 80 3 106 25 58 49 90 90 108 137 10 26 23 56 28 66 6
11 6 17 -1 17 -5 0 -10 7 -10 16 0 8 -5 25 -12 37 -7 12 -14 31 -15 42 -8 48
-77 72 -170 58z"/>
</g>
</svg>
