<?xml version="1.0" standalone="no"?>
<!DOCTYPE svg PUBLIC "-//W3C//DTD SVG 20010904//EN"
 "http://www.w3.org/TR/2001/REC-SVG-20010904/DTD/svg10.dtd">
<svg version="1.0" xmlns="http://www.w3.org/2000/svg"
 width="377.000000pt" height="419.000000pt" viewBox="0 0 377.000000 419.000000"
 preserveAspectRatio="xMidYMid meet">
<metadata>
Created by potrace 1.16, written by Peter Selinger 2001-2019
</metadata>
<g transform="translate(0.000000,419.000000) scale(0.100000,-0.100000)"
fill="#000000" stroke="none">
<path d="M1835 4052 c-11 -2 -24 -8 -30 -12 -5 -4 -55 -11 -110 -15 -55 -3
-109 -8 -120 -11 -35 -9 -145 -66 -145 -74 0 -5 -6 -15 -13 -22 -89 -93 -144
-224 -187 -443 -7 -33 -16 -71 -21 -85 -5 -14 -10 -34 -12 -45 -4 -23 -33 -76
-63 -114 -60 -77 -169 -364 -191 -503 -6 -44 -18 -103 -31 -158 -38 -158 -44
-195 -47 -256 -2 -38 -4 -77 -4 -86 -1 -11 -9 -18 -20 -18 -24 0 -140 -48
-163 -68 -17 -14 -57 -88 -62 -114 -2 -7 -8 -26 -15 -43 -32 -82 -50 -133 -55
-158 -4 -17 -16 -31 -32 -37 -31 -12 -74 -3 -74 16 0 16 -14 18 -40 4 -38 -20
-208 -324 -235 -420 -4 -14 -18 -44 -31 -68 -35 -65 -45 -142 -30 -229 8 -44
26 -66 66 -81 25 -10 26 -11 28 -143 1 -73 6 -137 11 -143 8 -10 18 -56 26
-119 1 -12 14 -55 29 -96 14 -41 24 -76 22 -79 -2 -2 2 -11 10 -20 8 -10 26
-32 40 -50 39 -49 132 -117 199 -145 61 -25 91 -31 200 -42 33 -3 67 -8 75
-10 21 -6 88 -16 135 -20 22 -1 105 -10 184 -20 183 -21 223 -21 291 -1 99 30
214 34 561 21 152 -6 208 -5 213 3 4 7 16 12 27 12 10 0 19 5 19 10 0 6 9 10
20 10 24 0 210 59 225 71 6 4 30 11 54 15 23 4 48 13 56 20 7 8 16 14 19 14 8
0 88 56 121 85 17 15 37 39 45 55 63 119 181 293 234 345 22 21 41 46 42 55 2
32 17 60 35 65 10 4 19 12 19 20 0 7 6 15 14 18 8 3 17 18 20 34 4 16 18 42
31 57 14 16 25 33 25 38 0 4 8 27 19 51 10 23 35 87 56 142 20 55 47 125 60
155 37 90 83 246 101 340 3 13 11 28 17 32 7 4 9 8 5 8 -3 0 0 26 8 58 8 31
17 80 20 107 3 28 9 61 14 75 9 27 32 124 35 149 1 9 4 23 7 31 7 18 18 66 22
96 1 11 5 25 9 30 3 6 7 32 8 60 2 27 8 59 14 71 6 11 11 55 11 97 -1 42 2 77
6 78 12 5 31 282 29 418 -1 127 -24 315 -43 370 -3 8 -13 42 -21 75 -32 123
-69 184 -179 298 -90 94 -108 108 -143 113 -22 3 -47 8 -55 12 -53 20 -145 33
-280 38 -171 7 -229 -3 -302 -51 -21 -14 -62 -36 -91 -49 -36 -16 -66 -39 -93
-72 -21 -27 -45 -55 -52 -63 -36 -38 -162 -263 -162 -290 0 -27 -25 -62 -43
-59 -18 3 -20 14 -24 143 -4 126 -16 214 -37 270 -16 41 -31 70 -41 77 -5 4
-6 8 -2 8 19 0 -93 130 -133 155 -16 10 -74 14 -105 7z m76 -130 c23 -10 121
-131 141 -174 26 -56 40 -195 29 -269 -6 -34 -8 -65 -6 -69 3 -4 -34 -7 -80
-7 l-85 1 0 137 c0 133 -10 217 -32 269 -26 63 -42 89 -57 96 -12 5 -9 9 14
14 39 10 56 10 76 2z m-251 -11 c0 -6 -5 -13 -10 -16 -15 -9 -34 -60 -54 -145
-10 -41 -22 -85 -27 -98 -5 -13 -9 -36 -9 -51 0 -15 -4 -41 -10 -57 -11 -32
-18 -76 -19 -115 l-1 -25 -110 -1 -110 -2 6 52 c3 29 10 57 16 64 5 7 7 17 4
22 -4 6 0 27 9 47 8 20 17 49 20 63 9 51 55 130 107 183 53 54 71 66 118 75
13 2 27 6 29 9 8 8 41 4 41 -5z m1219 -51 c20 0 21 -2 11 -15 -7 -8 -16 -12
-21 -10 -4 3 -17 -12 -28 -34 -12 -22 -31 -51 -43 -64 -32 -36 -97 -110 -106
-122 -4 -5 -14 -25 -21 -42 -7 -18 -17 -33 -22 -33 -8 0 -66 -115 -82 -162 -4
-11 -12 -15 -22 -12 -8 4 -21 1 -29 -5 -10 -8 -39 -9 -112 0 -55 6 -100 12
-101 13 -6 5 21 83 48 141 16 35 29 70 29 77 0 8 12 25 26 39 14 13 32 38 39
56 7 17 26 40 42 49 15 10 32 24 36 31 4 7 15 13 23 13 8 0 25 9 37 21 40 38
148 68 227 63 25 -2 56 -3 69 -4z m-1120 -40 c10 -5 29 -33 41 -62 20 -46 24
-73 26 -197 2 -79 2 -146 0 -150 -2 -3 -47 -5 -100 -3 l-96 3 0 32 c0 18 7 70
16 117 9 47 18 99 20 117 5 48 53 153 70 153 3 0 13 -4 23 -10z m1397 -52 c91
-144 146 -364 147 -592 1 -98 -25 -300 -45 -361 -5 -16 -12 -61 -14 -100 -3
-38 -12 -106 -20 -150 -8 -44 -17 -98 -20 -120 -8 -62 -73 -342 -92 -395 -3
-8 -6 -19 -8 -25 -12 -41 -37 -102 -45 -109 -5 -6 -9 -16 -9 -23 0 -17 -73
-173 -81 -173 -11 0 -21 70 -24 180 -4 108 -13 238 -21 300 -3 19 -5 42 -5 50
-2 25 -20 157 -25 182 -8 34 -34 299 -40 403 -2 50 -6 113 -8 140 -4 61 -28
188 -37 195 -3 3 -9 15 -13 28 -7 22 -41 31 -48 13 -1 -5 -10 -11 -18 -13 -8
-2 -20 -9 -26 -17 -5 -7 -32 -15 -59 -18 l-48 -6 7 29 c4 16 11 48 16 71 5 23
14 50 19 60 6 10 24 48 40 84 33 72 136 209 157 209 8 0 14 6 14 13 0 8 11 20
25 27 14 7 25 19 25 27 0 7 6 13 13 13 7 0 23 14 36 30 12 17 39 39 59 48 20
9 39 20 42 24 3 3 19 8 35 11 17 2 33 5 37 6 4 0 20 -18 34 -41z m168 -31 c65
-68 126 -141 126 -151 0 -6 7 -24 16 -41 36 -68 63 -179 46 -189 -10 -6 -8
-18 23 -136 23 -84 26 -211 9 -328 -8 -50 -16 -122 -18 -160 -5 -81 -25 -232
-33 -245 -3 -4 -9 -43 -13 -85 -5 -42 -10 -84 -13 -92 -12 -41 -17 -69 -21
-105 -3 -22 -10 -62 -16 -90 -7 -27 -13 -59 -15 -70 -3 -18 -26 -126 -41 -185
-3 -14 -9 -34 -14 -45 -19 -47 -30 -82 -36 -120 -7 -48 -87 -293 -114 -350
-79 -170 -100 -212 -117 -230 -10 -11 -27 -37 -37 -58 -10 -21 -19 -37 -21
-35 -1 2 -5 39 -9 83 -3 44 -14 134 -24 200 -23 148 -23 257 -1 275 16 12 76
136 72 148 -3 6 9 35 26 62 17 28 31 56 31 63 0 8 3 17 8 21 4 4 8 12 8 17 1
5 3 11 4 14 1 3 3 8 5 13 1 4 5 14 8 22 14 32 72 264 80 320 3 19 10 51 16 70
5 19 12 55 15 80 8 75 17 133 27 165 5 17 13 64 18 105 11 86 16 117 36 215
29 144 37 265 26 412 -5 77 -14 151 -20 164 -5 13 -21 68 -36 122 -15 54 -33
114 -41 132 -17 41 -17 45 -3 45 6 0 25 -15 43 -33z m-1274 -432 c127 -9 133
-10 149 -19 7 -5 18 -3 24 3 8 8 15 7 27 -4 17 -16 85 -27 168 -28 28 0 52 -4
52 -9 0 -4 7 -8 15 -8 25 0 17 -15 -16 -27 -25 -10 -30 -17 -26 -33 3 -11 -15
-78 -39 -150 -24 -71 -55 -171 -68 -222 -32 -120 -59 -199 -90 -270 l-25 -57
-123 4 c-156 6 -273 16 -273 25 0 1 -16 4 -35 7 -19 2 -36 8 -38 13 -2 5 -30
7 -63 4 l-59 -5 0 43 c-1 24 -9 59 -18 78 -16 34 -19 35 -72 35 -30 1 -60 4
-65 7 -13 8 -127 -30 -136 -44 -4 -6 -4 -27 -2 -48 l5 -37 -142 4 c-78 3 -153
8 -168 12 -26 7 -27 11 -25 69 0 37 12 92 27 137 14 41 26 80 26 86 0 6 11 33
25 61 14 27 25 55 25 61 0 23 67 150 124 234 34 51 56 58 201 67 155 10 228
16 231 19 5 4 288 -1 384 -8z m485 -145 c3 -5 1 -10 -4 -10 -6 0 -11 5 -11 10
0 6 2 10 4 10 3 0 8 -4 11 -10z m-20 -168 c-1 -48 -5 -97 -9 -109 -15 -48 -34
-233 -24 -239 5 -3 5 -11 1 -17 -4 -6 -8 -18 -9 -27 -1 -8 -5 -33 -9 -55 -4
-22 -8 -112 -9 -200 0 -88 -5 -166 -10 -173 -4 -8 -10 -39 -12 -70 -2 -31 -7
-97 -11 -147 -3 -49 -12 -99 -19 -110 -27 -38 -11 -85 28 -85 34 0 35 7 42
323 1 26 4 47 9 47 4 0 4 12 1 26 -4 15 -2 29 4 33 9 5 11 41 13 200 0 19 2
38 5 43 3 4 7 21 10 36 2 15 7 43 10 62 3 19 8 64 10 99 2 35 8 107 13 160 9
80 19 198 21 247 0 17 111 24 127 9 16 -16 25 -77 38 -261 6 -90 12 -125 25
-169 5 -16 11 -66 14 -110 3 -44 9 -107 15 -140 5 -33 12 -80 15 -105 3 -25
12 -99 20 -165 8 -66 14 -155 15 -196 0 -42 6 -109 12 -150 6 -41 12 -118 14
-172 2 -54 7 -103 13 -110 16 -20 38 -272 36 -412 -2 -95 -32 -221 -63 -270
-15 -22 -33 -56 -41 -75 -23 -57 -58 -101 -92 -119 -18 -9 -38 -27 -45 -40
-20 -41 -122 -142 -162 -160 -21 -9 -45 -24 -55 -33 -9 -10 -36 -22 -59 -28
-23 -6 -51 -15 -62 -19 -54 -22 -129 -42 -215 -56 -80 -13 -117 -14 -235 -4
-77 6 -166 12 -197 14 -31 2 -61 6 -66 8 -4 3 -4 36 0 74 5 37 9 75 9 83 -7
253 -7 800 1 874 6 65 6 108 -1 125 -5 14 -12 37 -15 51 -5 22 -25 49 -96 126
-11 12 -20 33 -20 47 0 13 -9 36 -21 50 -17 23 -25 26 -62 21 -23 -3 -62 -1
-87 5 -52 12 -148 20 -345 26 -77 2 -185 8 -240 13 -55 5 -103 8 -108 5 -10
-6 -10 -3 19 83 27 84 65 169 86 195 7 8 28 22 46 30 17 7 32 17 32 21 0 5 3
7 8 6 4 -1 23 3 42 8 19 5 62 9 95 8 33 -2 139 -5 235 -8 96 -3 198 -8 225
-11 28 -3 84 -8 125 -10 41 -2 86 -6 100 -9 14 -3 41 -7 60 -11 62 -10 81 -16
124 -35 22 -10 48 -18 56 -18 56 -1 131 -37 159 -78 33 -48 40 -86 35 -196 -6
-112 -6 -170 0 -175 2 -2 19 -6 38 -9 l35 -6 6 53 c11 100 1 291 -18 334 -22
51 -64 107 -75 100 -4 -3 -6 4 -3 15 4 14 0 20 -13 21 -11 1 -26 3 -34 3 -8 1
-33 10 -55 20 -48 23 -106 49 -159 72 -37 16 -79 21 -226 27 -36 2 -71 6 -78
11 -6 4 -94 9 -194 11 -101 3 -219 7 -263 10 -44 2 -85 5 -92 5 -13 0 -10 92
5 190 l7 45 75 -4 c41 -2 122 -5 180 -6 58 -1 109 -3 113 -4 5 0 5 -16 1 -33
-7 -33 -8 -62 -6 -106 1 -14 12 -26 29 -33 30 -11 225 -15 242 -4 6 3 11 35
11 71 0 60 1 64 23 64 12 0 40 -7 62 -14 23 -8 84 -15 144 -15 58 -1 107 -3
109 -6 3 -3 11 0 18 6 7 6 19 7 26 2 28 -17 277 -18 293 -1 12 14 59 171 58
197 0 9 5 22 11 30 12 15 44 111 52 156 3 17 11 44 18 60 7 17 18 48 23 70 16
62 60 175 67 175 2 0 2 -40 1 -88z m-997 -409 c22 -5 23 -9 18 -62 -15 -154
-15 -155 -61 -152 -60 5 -64 8 -59 59 6 76 16 146 21 155 5 9 49 9 81 0z
m-803 -923 c76 -10 315 -23 400 -22 58 1 206 -24 247 -41 34 -14 34 -15 32
-73 -3 -100 -47 -249 -122 -417 -12 -27 -22 -54 -22 -61 0 -23 -10 -24 -68
-11 -31 7 -59 12 -63 9 -3 -2 -21 1 -40 6 -56 16 -196 31 -339 36 -74 2 -182
9 -240 15 -101 10 -181 11 -246 5 -37 -4 -61 12 -69 46 -9 36 100 311 174 441
49 86 58 90 176 83 55 -3 136 -10 180 -16z m820 -223 c16 -35 23 -123 16 -212
-3 -33 -4 -575 -2 -700 2 -111 -8 -196 -25 -220 -14 -19 -15 -19 -51 0 -65 35
-108 88 -116 141 -3 17 -10 41 -17 53 -6 13 -10 25 -7 27 2 3 -4 38 -13 80
-13 57 -16 101 -13 187 3 62 10 117 15 123 8 11 11 22 24 82 6 28 27 95 59
182 13 36 27 74 31 85 4 11 9 31 11 45 2 14 10 45 18 70 8 25 17 62 21 82 7
43 19 37 49 -25z m-1129 -430 c3 -3 21 -3 40 0 18 3 48 0 65 -8 l32 -13 -6
-153 c-4 -87 -3 -153 2 -153 5 0 7 -8 5 -17 -7 -27 33 -42 71 -27 54 21 177
38 185 25 6 -11 39 -5 41 8 9 75 8 95 -2 107 -12 15 -7 173 7 195 8 13 137 2
194 -16 12 -4 36 -8 53 -10 18 -1 53 -6 80 -10 l47 -7 1 -62 c2 -137 7 -214
18 -276 6 -36 14 -81 18 -100 3 -19 9 -39 13 -45 5 -5 11 -26 13 -44 3 -19 24
-62 47 -94 22 -33 38 -62 35 -66 -17 -16 -254 -17 -285 -1 -16 9 -225 34 -260
31 -112 -8 -258 28 -340 83 -81 54 -99 82 -143 231 -42 141 -57 229 -52 305 2
30 4 71 4 91 l1 36 55 -2 c30 -1 58 -5 61 -8z m327 -26 c24 -9 24 -11 25 -130
1 -88 -2 -121 -11 -122 -55 -5 -105 -3 -121 4 -17 8 -18 17 -13 101 10 145 12
151 57 154 21 1 49 -2 63 -7z"/>
</g>
</svg>
