<?xml version="1.0" standalone="no"?>
<!DOCTYPE svg PUBLIC "-//W3C//DTD SVG 20010904//EN"
 "http://www.w3.org/TR/2001/REC-SVG-20010904/DTD/svg10.dtd">
<svg version="1.0" xmlns="http://www.w3.org/2000/svg"
 width="529.000000pt" height="483.000000pt" viewBox="0 0 529.000000 483.000000"
 preserveAspectRatio="xMidYMid meet">
<metadata>
Created by potrace 1.16, written by Peter Selinger 2001-2019
</metadata>
<g transform="translate(0.000000,483.000000) scale(0.100000,-0.100000)"
fill="#000000" stroke="none">
<path d="M2176 4475 c-9 -9 -16 -19 -16 -23 -1 -73 -58 -242 -82 -242 -4 0 -8
-6 -8 -14 0 -17 -54 -118 -94 -176 -17 -25 -42 -65 -55 -90 -13 -25 -30 -52
-37 -61 -8 -8 -14 -20 -14 -25 0 -6 -13 -23 -28 -40 -15 -16 -46 -54 -67 -84
-56 -77 -60 -83 -192 -223 -40 -42 -73 -81 -73 -86 0 -5 -4 -11 -8 -13 -5 -1
-26 -25 -46 -53 -21 -27 -46 -59 -56 -70 -48 -51 -60 -65 -55 -65 6 0 -25 -51
-36 -60 -3 -3 -24 -32 -46 -65 -21 -33 -47 -71 -56 -85 -80 -117 -128 -194
-153 -244 -16 -32 -38 -68 -49 -81 -11 -12 -21 -27 -22 -33 -2 -6 -20 -37 -41
-69 -21 -33 -51 -85 -67 -117 l-30 -57 -40 5 c-22 3 -78 10 -125 15 -109 12
-200 31 -200 42 0 13 -44 11 -64 -4 -19 -14 -27 -67 -11 -83 31 -32 74 -43
195 -50 47 -3 105 -12 130 -19 25 -8 83 -17 130 -20 96 -7 107 -8 135 -19 33
-13 49 -18 75 -22 14 -3 41 -10 60 -16 19 -7 40 -12 45 -13 13 -1 38 -11 105
-42 30 -14 93 -37 140 -50 47 -13 108 -30 135 -38 52 -15 289 -132 362 -178
24 -15 46 -27 51 -27 15 0 222 -140 222 -150 0 -6 5 -10 10 -10 18 0 70 -53
70 -70 0 -16 14 -26 78 -52 17 -7 32 -19 32 -25 0 -7 4 -13 8 -13 18 0 313
-299 370 -375 32 -44 69 -89 81 -99 11 -11 21 -23 21 -27 0 -9 20 -35 55 -73
11 -12 29 -37 39 -56 11 -19 36 -55 57 -80 20 -25 49 -67 64 -95 15 -27 33
-57 41 -65 7 -9 23 -38 35 -65 12 -27 28 -55 35 -63 8 -7 14 -20 14 -28 0 -8
6 -14 13 -14 6 0 23 -24 36 -53 14 -28 32 -63 40 -76 8 -13 16 -30 17 -38 2
-8 6 -22 10 -31 4 -9 8 -21 9 -27 8 -48 20 -75 31 -75 7 0 17 -6 21 -13 15
-26 57 -28 84 -4 38 33 27 86 -36 182 -11 16 -25 44 -31 61 -12 36 -10 39 71
99 22 16 45 34 50 40 6 6 35 23 64 38 30 15 51 27 46 27 -4 0 2 9 15 20 13 11
27 20 32 20 4 0 7 3 5 8 -2 8 86 115 139 167 18 17 39 46 48 63 9 18 21 32 26
32 6 0 10 7 10 15 0 8 5 15 10 15 6 0 15 10 20 23 14 34 46 78 52 72 3 -4 10
7 16 23 5 15 16 35 23 43 8 8 30 46 49 84 19 39 38 71 42 73 5 2 8 11 8 21 0
9 13 38 29 64 17 25 42 72 57 104 15 31 42 84 61 116 18 32 33 67 33 77 0 9 9
28 19 42 19 24 81 140 81 152 0 6 128 177 139 186 4 3 18 21 31 40 14 19 34
44 45 56 11 12 29 32 41 45 11 13 34 35 50 49 104 88 169 146 172 152 2 5 9 8
15 8 7 0 26 12 42 26 41 36 112 84 123 84 19 0 72 58 72 79 0 26 -38 81 -56
81 -7 0 -31 18 -52 39 -21 21 -72 55 -112 75 -101 48 -162 92 -213 150 -23 26
-84 93 -134 148 -51 55 -93 106 -93 114 0 7 -28 36 -62 63 -35 28 -80 68 -102
90 -41 43 -71 64 -181 130 -38 23 -77 46 -85 51 -8 6 -55 28 -105 51 -49 22
-113 52 -142 65 -28 13 -57 24 -63 24 -6 0 -32 10 -58 21 -26 12 -83 34 -127
49 -147 51 -270 97 -310 117 -22 11 -58 29 -80 41 -40 21 -134 52 -156 52 -9
0 -190 84 -264 123 -11 5 -50 22 -87 38 -36 15 -92 46 -123 69 -64 47 -255
233 -255 248 0 30 -70 51 -94 27z m159 -265 c38 -38 75 -70 81 -70 6 0 17 -7
24 -16 8 -8 27 -22 44 -29 17 -8 38 -19 46 -24 8 -6 42 -22 75 -37 143 -63
184 -83 221 -106 21 -14 92 -43 158 -66 65 -23 144 -57 176 -76 31 -19 68 -37
81 -41 31 -9 338 -113 364 -124 11 -5 47 -19 80 -31 33 -13 79 -31 102 -41 23
-11 46 -19 52 -19 5 0 11 -3 13 -7 2 -5 28 -19 58 -33 30 -14 57 -27 60 -30 9
-10 146 -90 154 -90 11 0 84 -59 143 -115 29 -28 70 -66 93 -85 22 -18 40 -40
40 -47 0 -8 30 -44 68 -81 37 -37 89 -94 116 -127 27 -33 58 -69 70 -80 26
-25 122 -95 130 -95 12 0 133 -78 162 -105 34 -31 35 -29 -69 -91 -33 -19 -87
-61 -121 -94 -34 -33 -77 -71 -96 -84 -30 -20 -76 -68 -168 -175 -12 -14 -31
-35 -42 -46 -11 -12 -20 -24 -20 -29 0 -4 -6 -13 -12 -21 -28 -28 -48 -56 -48
-64 0 -4 -9 -20 -21 -35 -12 -15 -31 -46 -44 -69 -12 -23 -38 -71 -58 -107
-20 -36 -42 -76 -48 -90 -6 -14 -22 -48 -35 -75 -13 -28 -24 -54 -24 -58 0
-10 -52 -81 -62 -85 -5 -2 -8 -12 -8 -21 0 -10 -16 -50 -35 -90 -19 -39 -35
-74 -35 -78 0 -12 -74 -124 -102 -155 -16 -17 -28 -35 -28 -39 0 -13 -92 -129
-102 -129 -5 0 -7 -4 -4 -9 3 -5 -7 -22 -22 -38 -15 -16 -45 -51 -67 -77 -74
-88 -114 -123 -199 -180 -33 -22 -62 -44 -64 -48 -2 -4 -10 -8 -18 -8 -8 0
-14 -4 -14 -8 0 -4 -16 -15 -35 -24 -26 -11 -38 -13 -48 -4 -13 11 -51 66 -52
76 0 3 -20 43 -44 90 -43 85 -76 135 -111 168 -10 9 -28 36 -40 60 -12 23 -26
42 -30 42 -4 0 -15 15 -23 33 -9 17 -34 51 -57 75 -22 23 -40 46 -40 50 0 5
-13 23 -30 42 -16 18 -27 37 -24 41 3 5 0 9 -6 9 -11 0 -110 98 -193 190 -25
27 -49 50 -55 50 -11 0 -117 114 -126 135 -4 12 4 20 28 30 45 19 98 28 105
18 18 -25 132 -65 201 -72 42 -5 84 -12 94 -18 35 -19 231 21 331 68 22 10 60
26 85 34 25 9 62 27 82 40 21 14 41 25 45 25 5 0 34 19 65 43 31 23 67 49 79
57 26 17 58 49 102 103 17 20 36 37 42 37 5 1 29 27 53 58 23 32 60 78 82 102
62 70 190 281 190 314 0 8 9 30 19 48 11 18 23 56 27 83 10 67 11 345 1 345
-4 0 -6 3 -5 8 3 11 -45 102 -54 102 -4 0 -8 6 -8 13 0 12 -33 44 -150 145
-19 17 -38 28 -42 26 -4 -3 -8 -1 -8 5 0 5 -15 14 -33 20 -18 6 -58 27 -88 46
-29 20 -77 43 -106 51 -28 8 -62 23 -75 33 -14 11 -34 16 -52 14 -16 -2 -36
-1 -45 3 -9 4 -19 7 -23 6 -4 -1 -31 -4 -60 -6 -203 -19 -275 -29 -333 -47
-69 -21 -215 -84 -225 -97 -3 -4 -25 -20 -49 -36 -25 -16 -54 -38 -66 -50 -12
-11 -51 -49 -87 -83 -36 -35 -83 -86 -103 -115 -21 -29 -42 -54 -47 -56 -4 -2
-8 -8 -8 -14 0 -6 -8 -17 -17 -24 -10 -7 -18 -18 -18 -26 0 -7 -14 -42 -32
-78 -18 -36 -41 -99 -52 -140 -11 -41 -27 -95 -36 -120 -9 -25 -19 -65 -21
-90 -6 -62 -6 -229 0 -238 2 -4 7 -28 11 -52 9 -60 124 -297 165 -337 l31 -32
-35 -15 c-20 -8 -36 -19 -36 -24 0 -5 -9 -12 -20 -15 -11 -3 -20 -2 -20 3 0 4
-14 13 -30 20 -17 7 -43 27 -58 44 -15 17 -50 47 -78 66 -27 19 -50 38 -52 42
-2 4 -13 8 -24 8 -10 0 -26 6 -33 13 -34 30 -45 37 -57 37 -18 0 -68 48 -68
64 0 7 -12 35 -26 61 -15 26 -40 94 -55 153 -16 59 -37 114 -49 127 -11 12
-20 28 -20 37 0 9 -7 21 -15 28 -8 7 -15 18 -15 24 0 6 -9 17 -20 23 -10 7
-24 30 -31 51 -10 35 -9 44 17 95 15 32 31 57 35 57 4 0 11 10 14 21 8 25 75
141 85 149 4 3 10 15 14 28 4 12 11 22 16 22 5 0 18 17 31 38 12 20 35 51 50
67 15 17 35 46 43 66 8 19 21 41 29 48 9 6 29 40 46 74 17 35 44 77 59 94 48
55 106 124 114 136 13 20 9 55 -7 71 -8 8 -15 19 -15 25 0 5 -15 9 -32 9 -34
-1 -47 -13 -79 -73 -19 -34 -159 -249 -184 -280 -33 -43 -148 -221 -156 -244
-6 -13 -23 -39 -39 -58 -17 -19 -30 -40 -30 -47 0 -7 -9 -25 -21 -40 -24 -30
-51 -79 -103 -183 l-37 -73 21 -40 c11 -22 25 -40 30 -40 5 0 12 -10 16 -22 4
-13 6 -23 4 -23 -2 0 15 -19 37 -41 49 -49 75 -98 97 -179 8 -33 19 -71 22
-84 7 -24 7 -24 -17 -8 -13 9 -33 17 -45 17 -12 0 -24 3 -26 8 -7 15 -68 42
-109 47 -24 3 -46 9 -49 14 -4 6 -102 33 -135 37 -21 2 -95 36 -95 44 0 4 -15
10 -32 14 -18 3 -55 12 -83 20 -27 8 -77 22 -110 31 -33 9 -64 23 -69 32 -5
10 -11 12 -15 5 -4 -6 -16 -9 -28 -6 -21 6 -21 6 8 57 17 29 35 64 40 80 6 15
15 27 20 27 5 0 9 9 9 19 0 11 4 21 9 23 5 2 28 39 51 83 23 44 65 117 94 162
28 46 58 96 67 112 9 17 41 62 73 100 31 38 56 74 56 80 0 5 3 11 8 13 4 2 29
32 56 68 26 36 54 69 62 73 8 4 14 12 14 17 0 4 17 26 38 48 20 21 54 59 74
83 63 75 78 92 131 152 48 55 85 105 141 188 13 20 30 42 38 50 7 8 22 32 33
54 11 22 28 48 38 59 9 11 17 24 17 29 0 11 61 101 72 105 4 2 8 9 8 17 0 7 7
18 15 25 8 7 13 15 10 19 -5 9 44 110 65 133 8 10 20 17 25 18 6 0 42 -31 80
-70z m1015 -880 c0 -5 25 -10 55 -10 40 0 71 -8 117 -30 34 -16 70 -30 80 -30
10 0 18 -4 18 -8 0 -5 18 -14 40 -21 22 -6 40 -16 40 -21 0 -6 5 -10 11 -10 6
0 31 -13 56 -30 24 -16 48 -30 53 -30 6 0 41 -31 78 -70 72 -73 75 -80 98
-220 15 -92 1 -200 -36 -279 -17 -35 -30 -69 -30 -76 0 -8 -7 -20 -15 -29 -9
-8 -14 -17 -13 -19 4 -5 -117 -167 -202 -270 -55 -67 -201 -203 -253 -236 -34
-22 -73 -48 -88 -59 -27 -22 -212 -104 -226 -101 -4 1 -21 -3 -38 -10 -56 -23
-122 -30 -182 -21 -32 6 -77 10 -100 10 -42 0 -113 26 -113 42 0 4 -7 8 -15 8
-48 0 -199 135 -211 189 -4 14 -12 31 -20 37 -7 6 -14 21 -16 35 -2 13 -11 38
-20 54 -34 65 -50 136 -50 223 0 88 18 209 33 226 5 6 9 16 9 22 0 7 5 25 12
41 6 15 13 39 15 53 6 39 92 207 119 232 13 13 24 26 24 31 0 19 99 126 159
172 36 27 69 54 73 60 5 7 8 7 8 0 0 -5 5 -2 11 8 5 9 17 17 24 17 8 0 15 4
15 8 0 5 17 16 38 24 20 9 65 27 99 41 33 14 93 29 132 33 39 3 74 11 77 15 7
13 134 11 134 -1z"/>
<path d="M2997 3140 c-22 -21 -22 -73 -1 -91 11 -9 46 -14 103 -15 120 -1 133
-11 152 -108 16 -83 52 -105 104 -64 24 19 26 25 21 62 -4 22 -10 43 -14 46
-5 3 -18 27 -29 55 -30 71 -82 106 -165 112 -34 2 -83 8 -108 12 -36 6 -49 4
-63 -9z"/>
<path d="M2980 2961 c-40 -9 -56 -30 -52 -68 7 -58 74 -70 108 -19 14 22 14
27 0 55 -19 36 -24 39 -56 32z"/>
<path d="M3416 2769 c-25 -25 -27 -67 -4 -83 10 -7 15 -16 11 -19 -3 -4 3 -7
14 -7 24 0 83 -39 119 -77 21 -22 24 -34 19 -58 -17 -73 12 -123 64 -110 48
12 60 31 55 88 -10 111 -35 156 -122 213 -32 21 -69 46 -84 56 -34 22 -48 22
-72 -3z"/>
<path d="M2535 2597 c-33 -20 -35 -28 -30 -137 4 -103 27 -206 53 -232 7 -7
12 -18 12 -25 0 -6 6 -16 14 -20 7 -4 32 -30 56 -58 23 -27 54 -56 69 -64 14
-8 28 -17 31 -21 21 -28 182 -62 297 -64 97 -1 103 0 113 22 13 29 13 82 0 82
-5 0 -10 7 -10 16 0 13 -7 15 -42 9 -140 -22 -273 9 -351 80 -20 19 -37 37
-37 40 0 3 -14 19 -30 37 -42 44 -58 107 -57 227 0 55 -2 103 -6 107 -12 12
-62 12 -82 1z"/>
<path d="M2858 2570 c-34 -40 -37 -66 -16 -113 22 -48 42 -61 115 -77 42 -10
48 -8 79 15 41 31 43 58 7 91 -22 20 -35 25 -60 21 -32 -6 -33 -4 -33 27 0 19
-6 38 -12 44 -18 14 -65 10 -80 -8z"/>
<path d="M3410 2553 c-17 -3 -30 -14 -37 -33 -15 -41 3 -74 44 -78 58 -6 90
70 44 105 -9 7 -18 12 -21 11 -3 0 -16 -3 -30 -5z"/>
</g>
</svg>
