<?xml version="1.0" standalone="no"?>
<!DOCTYPE svg PUBLIC "-//W3C//DTD SVG 20010904//EN"
 "http://www.w3.org/TR/2001/REC-SVG-20010904/DTD/svg10.dtd">
<svg version="1.0" xmlns="http://www.w3.org/2000/svg"
 width="439.000000pt" height="387.000000pt" viewBox="0 0 439.000000 387.000000"
 preserveAspectRatio="xMidYMid meet">
<metadata>
Created by potrace 1.16, written by Peter Selinger 2001-2019
</metadata>
<g transform="translate(0.000000,387.000000) scale(0.100000,-0.100000)"
fill="#000000" stroke="none">
<path d="M3582 3733 c-7 -3 -25 -33 -41 -66 -24 -54 -62 -119 -89 -152 -4 -5
-30 -47 -56 -92 -27 -46 -53 -83 -57 -83 -5 0 -8 -3 -7 -7 1 -5 -11 -27 -26
-51 -21 -31 -34 -41 -45 -36 -9 3 -24 9 -33 11 -10 3 -18 9 -18 14 0 5 -7 9
-15 9 -8 0 -34 8 -58 19 -79 35 -179 56 -272 56 -85 0 -93 -2 -139 -32 -27
-18 -66 -41 -86 -50 -29 -14 -43 -30 -61 -73 -13 -30 -25 -62 -25 -70 -1 -8
-3 -19 -5 -25 -7 -25 24 -123 46 -147 14 -15 25 -34 25 -42 0 -8 20 -39 45
-69 24 -30 42 -57 39 -59 -2 -3 9 -15 26 -28 16 -13 30 -29 30 -36 0 -8 6 -14
13 -14 7 0 28 -15 47 -34 36 -34 175 -117 220 -131 14 -4 57 -23 95 -43 39
-19 86 -43 106 -53 86 -43 235 -56 319 -28 30 10 63 19 73 19 9 0 17 7 17 15
0 8 6 15 13 15 16 0 109 88 124 118 16 30 15 148 -2 213 -15 55 -73 148 -92
149 -26 0 -34 6 -110 78 -24 23 -49 42 -54 42 -5 0 -9 4 -9 9 0 5 -11 12 -25
15 -14 4 -25 12 -25 20 0 19 38 137 49 150 4 6 11 25 14 43 4 18 13 49 22 70
9 21 15 38 15 38 -5 0 35 93 45 105 7 8 20 40 30 70 10 30 21 59 26 65 20 21
-8 84 -31 70 -5 -3 -11 -1 -15 5 -7 11 -22 12 -43 3z m-571 -511 c68 -15 156
-50 198 -79 2 -2 -8 -14 -22 -27 -15 -14 -27 -29 -27 -34 0 -5 -20 -30 -44
-56 -47 -49 -53 -79 -20 -103 21 -15 75 2 67 23 -3 8 0 14 7 14 6 0 8 5 5 10
-3 6 -1 10 6 10 6 0 18 8 25 18 13 16 14 16 8 -1 -9 -27 22 -67 52 -67 22 0
24 -3 15 -14 -19 -23 -9 -94 14 -104 23 -9 31 -9 61 1 24 8 40 38 50 94 3 21
11 43 16 50 5 7 7 17 4 22 -4 5 -2 12 3 15 4 3 38 -21 74 -54 36 -33 70 -60
76 -60 6 0 11 -8 11 -17 1 -10 15 -27 32 -38 36 -23 56 -70 57 -133 1 -42 -21
-102 -37 -102 -5 0 -17 -9 -29 -19 -26 -25 -85 -41 -148 -41 -45 1 -69 5 -160
26 -16 4 -37 14 -47 23 -9 9 -58 32 -109 51 -50 18 -101 41 -113 50 -11 9 -38
25 -60 35 -36 19 -121 98 -139 130 -4 8 -15 15 -22 15 -8 0 -15 4 -15 9 0 4
-16 28 -35 52 -19 24 -35 52 -35 61 0 9 -4 18 -8 20 -15 6 -52 79 -52 102 0
33 60 105 88 105 12 1 22 5 22 11 0 15 60 29 105 25 22 -3 79 -13 126 -23z"/>
<path d="M930 3501 c0 -5 -21 -14 -47 -19 -27 -6 -75 -16 -108 -23 -33 -7 -71
-20 -85 -29 -14 -9 -51 -28 -83 -41 -130 -53 -218 -251 -160 -363 32 -62 142
-135 226 -150 21 -4 66 -16 100 -28 34 -11 69 -21 77 -23 98 -17 95 -15 108
-56 7 -21 12 -54 12 -72 0 -18 7 -60 15 -92 9 -33 20 -100 26 -150 15 -139 26
-207 38 -239 6 -16 11 -43 11 -60 0 -17 2 -62 5 -101 4 -57 10 -73 28 -87 12
-10 26 -18 30 -18 15 0 69 59 63 69 -4 5 0 58 7 118 8 59 14 119 15 133 1 31
11 125 16 155 5 28 15 112 21 180 10 115 18 171 26 187 6 10 27 19 57 23 126
17 186 31 274 66 74 30 155 79 170 103 3 6 23 28 42 50 46 49 67 117 55 179
-17 95 -80 188 -136 203 -13 3 -23 10 -23 15 0 5 -9 9 -20 9 -11 0 -20 4 -20
9 0 11 2 11 -145 14 -61 2 -115 6 -121 10 -36 22 -474 48 -474 28z m385 -111
c33 -7 65 -17 72 -22 6 -5 56 -10 110 -12 88 -2 104 -5 150 -32 29 -16 54 -36
57 -44 3 -8 12 -28 22 -45 39 -68 37 -82 -19 -148 -29 -35 -97 -81 -137 -92
-3 -1 -18 -7 -35 -14 -124 -52 -477 -72 -653 -36 -64 12 -198 52 -252 73 -34
13 -69 53 -79 88 -6 21 -1 43 16 84 22 48 61 100 78 100 3 0 22 11 43 25 44
29 110 53 164 60 21 3 58 9 81 15 59 14 87 15 212 14 61 -1 137 -7 170 -14z
m-170 -622 c-4 -24 -9 -95 -10 -158 -4 -146 -3 -140 -15 -140 -6 0 -10 12 -10
28 2 37 -6 108 -13 118 -12 20 -30 171 -22 184 2 3 20 7 40 8 l37 3 -7 -43z
m-15 -327 c0 -11 -4 -23 -10 -26 -6 -4 -10 5 -10 19 0 14 5 26 10 26 6 0 10
-9 10 -19z"/>
<path d="M1083 3233 c-30 -6 -62 -48 -56 -73 12 -44 99 -81 118 -50 4 6 11 8
16 5 5 -4 9 16 9 44 0 46 -3 52 -30 66 -16 8 -30 14 -32 14 -2 -1 -13 -4 -25
-6z"/>
<path d="M2210 1838 c-19 -4 -42 -10 -50 -12 -8 -2 -21 -6 -29 -8 -8 -1 -28
-18 -44 -36 -26 -29 -35 -33 -62 -28 -26 5 -39 1 -64 -21 -17 -15 -31 -34 -31
-43 0 -8 -7 -24 -15 -34 -8 -11 -15 -28 -15 -38 0 -10 -5 -18 -11 -18 -5 0 -8
-4 -5 -9 4 -5 -1 -36 -11 -68 -13 -44 -17 -99 -17 -230 l-1 -173 -35 -15 c-19
-9 -55 -27 -80 -40 -25 -14 -52 -25 -61 -25 -9 0 -22 -7 -29 -15 -7 -8 -18
-15 -25 -15 -6 0 -20 -9 -31 -21 -10 -11 -33 -27 -51 -34 -18 -8 -33 -19 -33
-24 0 -6 -6 -11 -14 -11 -7 0 -19 -7 -26 -15 -7 -8 -17 -12 -22 -9 -5 3 -16
-3 -24 -15 -8 -12 -22 -21 -30 -21 -8 0 -14 -4 -14 -10 0 -5 -7 -10 -15 -10
-8 0 -15 -4 -15 -10 0 -5 -4 -10 -10 -10 -9 0 -151 -88 -177 -110 -7 -5 -15
-10 -18 -10 -9 0 -45 -40 -45 -51 0 -15 22 -35 48 -43 21 -7 70 4 117 24 11 5
58 20 105 34 78 22 155 47 205 67 11 4 33 10 50 14 16 4 55 18 85 32 30 14 65
26 77 27 13 0 23 4 23 9 0 4 24 7 53 7 48 0 55 3 65 26 11 23 32 25 32 3 0
-11 97 -162 126 -196 11 -12 35 -42 54 -66 41 -52 76 -77 145 -102 28 -9 64
-24 82 -31 17 -8 36 -14 43 -14 6 0 23 -6 38 -14 66 -34 217 24 290 112 75 90
83 117 79 255 -2 67 -10 156 -16 197 -7 41 -14 89 -15 105 -3 41 -51 192 -92
295 -19 47 -36 89 -37 95 -1 5 -10 18 -20 30 -11 11 -38 49 -62 85 -36 56 -90
115 -170 187 -21 19 -71 39 -117 47 -15 2 -31 6 -35 9 -5 2 -24 0 -43 -5z
m116 -141 c41 -22 116 -96 150 -148 16 -24 35 -52 43 -61 20 -23 89 -191 103
-248 6 -25 14 -49 19 -55 4 -5 9 -23 12 -40 3 -16 10 -42 15 -56 6 -15 11 -40
10 -55 0 -16 5 -51 12 -79 6 -27 10 -97 9 -155 -2 -98 -4 -108 -33 -151 -32
-50 -106 -103 -144 -105 -12 -1 -25 -4 -28 -7 -3 -3 -35 5 -70 19 -35 13 -64
22 -64 19 0 -2 -22 7 -49 20 -46 23 -96 71 -151 143 -14 18 -35 45 -47 60 -13
15 -23 30 -23 35 0 4 -11 25 -25 47 -35 56 -89 215 -90 265 0 6 -4 13 -10 17
-16 11 -10 214 9 308 17 85 43 145 60 141 5 -2 12 1 15 6 3 5 24 19 46 32 22
13 44 29 48 37 4 8 19 14 32 14 14 0 25 4 25 8 0 14 95 5 126 -11z m-423 -707
c4 -16 0 -20 -19 -20 -27 0 -65 -18 -77 -37 -4 -6 -22 -15 -40 -18 -17 -4 -36
-11 -42 -15 -21 -17 -159 -70 -169 -66 -6 2 -4 5 5 5 8 1 24 9 35 19 30 27 72
52 88 52 8 0 19 6 23 13 7 11 35 28 53 31 3 1 21 8 40 17 103 46 96 45 103 19z"/>
<path d="M2263 1281 c-32 -27 -32 -42 0 -111 17 -36 32 -50 64 -56 59 -12 84
75 37 127 -10 11 -14 22 -11 26 7 7 -38 33 -57 33 -6 -1 -21 -9 -33 -19z"/>
</g>
</svg>
