<?xml version="1.0" standalone="no"?>
<!DOCTYPE svg PUBLIC "-//W3C//DTD SVG 20010904//EN"
 "http://www.w3.org/TR/2001/REC-SVG-20010904/DTD/svg10.dtd">
<svg version="1.0" xmlns="http://www.w3.org/2000/svg"
 width="429.000000pt" height="417.000000pt" viewBox="0 0 429.000000 417.000000"
 preserveAspectRatio="xMidYMid meet">
<metadata>
Created by potrace 1.16, written by Peter Selinger 2001-2019
</metadata>
<g transform="translate(0.000000,417.000000) scale(0.100000,-0.100000)"
fill="#000000" stroke="none">
<path d="M2660 4058 c-36 -4 -81 -14 -100 -22 -19 -9 -62 -22 -95 -31 -76 -20
-161 -61 -203 -97 -18 -15 -39 -28 -46 -28 -7 0 -46 -35 -85 -77 l-72 -78 -29
33 c-16 17 -33 32 -36 32 -3 0 -23 13 -43 28 -20 16 -62 40 -94 55 -32 15 -60
34 -63 42 -4 8 -14 15 -23 15 -9 0 -26 6 -37 14 -23 16 -110 34 -205 41 -35 3
-84 8 -109 11 -72 11 -144 5 -270 -22 -155 -34 -340 -101 -370 -135 -3 -3 -31
-25 -63 -48 -84 -62 -224 -203 -300 -303 -60 -78 -157 -238 -157 -258 0 -4 -9
-27 -19 -51 -23 -52 -28 -74 -42 -199 -12 -117 -12 -411 0 -505 23 -168 41
-267 57 -302 8 -21 27 -69 40 -108 14 -38 29 -79 34 -90 5 -11 12 -31 16 -45
3 -14 12 -32 19 -40 7 -8 36 -60 65 -115 28 -55 58 -107 65 -115 8 -8 20 -28
29 -44 27 -54 120 -160 292 -336 168 -172 251 -258 331 -342 90 -96 303 -290
359 -328 33 -22 79 -58 104 -81 25 -23 81 -68 125 -100 116 -85 235 -182 235
-191 0 -5 25 -24 55 -43 41 -27 60 -47 76 -83 12 -26 32 -58 46 -71 23 -24 24
-24 37 -5 8 10 18 16 22 12 4 -5 15 5 25 21 10 16 28 32 41 37 28 9 119 76
169 127 21 20 41 37 44 37 8 0 100 72 103 81 2 5 9 9 15 9 7 0 39 25 72 55 32
30 64 55 70 55 6 0 17 9 25 20 8 11 17 20 20 20 4 0 35 27 70 60 35 33 68 60
74 60 6 1 29 24 51 52 22 28 67 71 100 96 33 24 69 56 80 70 44 57 98 112 116
117 11 4 29 26 40 50 11 24 27 46 35 49 8 3 14 12 14 21 0 8 4 15 9 15 5 0 36
42 70 93 33 50 65 97 71 104 6 7 15 24 22 38 6 14 15 25 19 25 4 0 20 26 37
58 16 31 37 71 46 87 57 110 126 257 140 297 8 26 24 66 35 90 11 24 22 62 26
86 4 23 11 42 16 42 5 0 8 3 7 8 -2 10 11 72 21 97 5 11 13 32 19 47 11 26 32
206 30 243 -1 11 4 45 10 76 7 30 12 68 11 85 0 16 2 56 6 89 6 47 3 79 -13
140 -11 44 -23 109 -27 145 -4 36 -13 80 -21 98 -8 19 -19 64 -25 100 -6 37
-19 78 -29 92 -9 14 -27 54 -40 90 -13 36 -29 70 -36 75 -7 6 -22 32 -34 58
-13 26 -30 53 -40 60 -9 7 -34 35 -55 62 -20 28 -50 64 -65 80 -16 17 -43 47
-61 68 -17 21 -46 45 -63 54 -17 8 -43 26 -57 40 -15 13 -51 37 -80 52 -30 16
-88 46 -130 68 -146 78 -383 128 -529 111z m296 -127 c76 -19 193 -66 204 -81
3 -4 41 -26 85 -49 77 -41 210 -133 217 -150 2 -5 34 -43 73 -86 104 -114 149
-180 191 -274 21 -47 42 -87 46 -89 4 -2 8 -11 8 -21 0 -9 4 -21 9 -27 5 -5
12 -31 15 -59 9 -73 11 -84 19 -91 4 -4 7 -17 7 -28 0 -12 12 -82 27 -156 24
-124 25 -140 14 -205 -7 -38 -14 -119 -17 -180 -6 -140 -10 -171 -34 -248 -10
-34 -31 -102 -45 -152 -40 -137 -93 -269 -152 -382 -29 -56 -53 -107 -53 -113
0 -7 -26 -51 -59 -98 -32 -48 -75 -114 -95 -147 -58 -94 -292 -369 -360 -423
-34 -28 -168 -150 -288 -265 -16 -15 -48 -40 -71 -55 -23 -15 -46 -32 -50 -39
-4 -7 -12 -13 -17 -13 -6 0 -18 -8 -29 -18 -65 -60 -105 -92 -117 -92 -8 0
-14 -3 -14 -7 0 -5 -32 -33 -71 -63 -40 -30 -77 -61 -85 -67 -7 -7 -18 -13
-24 -13 -6 0 -13 -7 -16 -15 -7 -17 -59 -45 -84 -45 -9 0 -27 18 -39 41 -13
23 -39 50 -57 61 -19 11 -34 24 -34 29 0 5 -20 19 -45 31 -25 12 -45 25 -45
30 0 4 -21 22 -47 40 -27 18 -57 41 -68 51 -11 10 -36 28 -55 40 -19 12 -75
55 -123 97 -49 41 -103 84 -120 95 -61 37 -82 55 -184 155 -56 55 -104 100
-107 100 -6 0 -39 33 -145 146 -120 128 -233 244 -237 244 -2 0 -25 23 -51 52
-26 29 -60 65 -74 80 -127 136 -211 250 -254 345 -15 32 -31 65 -36 73 -24 40
-68 141 -80 181 -7 24 -15 49 -19 54 -3 6 -13 30 -20 55 -8 25 -17 47 -20 50
-9 8 -30 108 -30 145 0 19 -4 36 -8 39 -12 7 -17 104 -16 301 3 313 15 397 79
530 25 51 52 98 60 105 8 7 15 19 15 26 0 8 5 14 10 14 6 0 10 6 10 13 0 7 12
26 28 42 15 16 42 47 60 70 71 85 166 175 239 225 76 52 170 100 198 100 8 0
47 11 87 24 40 13 117 29 172 36 90 12 131 11 316 -5 62 -5 114 -17 137 -31
12 -8 28 -14 34 -14 7 0 26 -10 43 -23 17 -12 44 -29 60 -37 17 -8 44 -28 62
-45 91 -87 118 -106 140 -101 14 4 24 1 28 -10 4 -10 16 -14 38 -12 28 2 35 8
43 36 10 34 69 103 115 134 14 10 44 31 67 47 23 16 84 43 135 60 51 16 113
37 138 45 62 22 258 15 366 -13z"/>
<path d="M2080 3423 c-8 -4 -21 -12 -28 -20 -7 -7 -19 -13 -27 -13 -14 0 -80
-65 -99 -98 -6 -11 -28 -47 -48 -81 -35 -57 -71 -169 -63 -195 2 -6 6 -33 8
-61 11 -110 78 -214 161 -250 44 -19 70 -55 52 -72 -13 -13 -214 -9 -227 5
-22 21 -43 14 -74 -25 -33 -41 -87 -97 -125 -129 -14 -11 -51 -49 -83 -82 -33
-34 -62 -62 -66 -62 -19 0 1 -105 41 -212 5 -14 9 -55 7 -90 -1 -34 1 -71 6
-80 4 -10 4 -25 1 -34 -10 -25 23 -64 54 -64 45 0 55 21 36 77 -9 25 -16 70
-16 99 0 29 -7 81 -15 116 -30 130 -30 132 10 171 19 19 35 39 35 44 0 6 19
27 43 48 23 20 52 46 64 56 12 11 26 20 30 20 4 -1 9 -25 10 -54 1 -28 3 -59
4 -67 0 -8 -2 -58 -5 -110 -16 -263 -17 -369 -5 -391 6 -12 13 -72 15 -133 10
-322 15 -420 18 -424 3 -2 0 -16 -5 -31 -9 -25 -17 -29 -98 -44 -48 -9 -102
-17 -120 -17 -28 0 -31 -3 -26 -20 4 -11 2 -20 -4 -20 -14 0 -2 -32 17 -47 21
-17 67 -16 105 1 18 8 61 19 97 25 36 6 76 19 90 29 23 18 24 24 23 118 0 54
-4 126 -7 159 -4 33 -8 121 -11 196 -3 117 -1 140 14 165 l18 29 179 0 c98 0
191 4 206 9 24 7 29 5 38 -20 6 -15 12 -77 13 -138 2 -139 -13 -479 -21 -487
-4 -3 -45 -22 -92 -43 -47 -21 -91 -45 -97 -54 -21 -26 -15 -60 12 -78 24 -16
27 -15 68 12 61 42 128 73 159 73 15 1 30 7 34 13 5 7 9 71 10 143 2 71 6 182
10 245 4 63 5 151 3 195 -10 216 2 620 19 637 6 6 19 -7 36 -38 14 -25 26 -50
26 -54 0 -5 3 -10 8 -12 13 -6 39 -62 56 -120 15 -53 19 -58 53 -67 21 -6 40
-7 43 -3 9 14 63 30 105 32 22 2 93 2 157 2 l118 -1 -2 40 c-1 25 -7 43 -17
48 -23 11 -302 4 -336 -9 -22 -9 -31 -7 -46 6 -11 10 -19 24 -19 33 0 9 -6 25
-14 36 -38 56 -114 219 -120 259 -4 25 -12 46 -18 46 -6 0 -8 9 -5 20 3 11 0
23 -5 26 -6 4 -78 8 -160 8 -118 2 -151 5 -159 17 -13 21 -11 39 5 39 8 0 50
18 93 40 64 34 86 51 121 99 23 32 42 63 42 68 0 5 9 39 21 76 17 54 20 83 16
169 -6 119 -7 128 -19 128 -5 0 -15 15 -23 33 -7 17 -28 49 -47 70 -27 32 -46
42 -107 58 -74 19 -122 23 -151 12z m168 -115 c23 -11 40 -23 37 -28 -3 -4 2
-14 11 -21 34 -28 47 -73 48 -159 0 -153 -51 -253 -158 -307 -137 -70 -257 15
-282 199 -7 49 11 151 29 170 7 7 27 36 45 64 42 66 59 81 113 99 52 16 98 11
157 -17z m15 -782 l88 0 -7 -86 c-3 -47 -11 -91 -16 -97 -6 -8 -7 -13 -1 -13
5 0 8 -19 7 -42 -2 -24 -6 -101 -9 -173 -4 -71 -8 -134 -10 -140 -6 -22 -101
-39 -215 -37 -63 1 -143 1 -177 2 -88 0 -93 8 -88 128 2 53 7 140 10 192 4 52
8 124 9 160 1 36 3 78 4 93 l2 29 158 -8 c86 -5 197 -8 245 -8z"/>
</g>
</svg>
