<?xml version="1.0" standalone="no"?>
<!DOCTYPE svg PUBLIC "-//W3C//DTD SVG 20010904//EN"
 "http://www.w3.org/TR/2001/REC-SVG-20010904/DTD/svg10.dtd">
<svg version="1.0" xmlns="http://www.w3.org/2000/svg"
 width="451.000000pt" height="473.000000pt" viewBox="0 0 451.000000 473.000000"
 preserveAspectRatio="xMidYMid meet">
<metadata>
Created by potrace 1.16, written by Peter Selinger 2001-2019
</metadata>
<g transform="translate(0.000000,473.000000) scale(0.100000,-0.100000)"
fill="#000000" stroke="none">
<path d="M1065 4519 c-37 -16 -71 -29 -77 -29 -5 0 -24 -6 -41 -14 -18 -7 -59
-21 -92 -31 -79 -24 -120 -41 -134 -58 -14 -18 -9 -61 14 -112 24 -54 33 -75
45 -107 11 -31 16 -33 55 -18 15 6 24 6 20 1 -3 -6 3 -14 12 -20 10 -6 14 -11
10 -11 -4 0 -3 -8 2 -18 16 -30 64 -25 136 14 69 38 84 37 85 -6 0 -8 7 -28
15 -44 9 -16 14 -30 13 -31 -7 -7 -140 -56 -159 -60 -12 -3 -27 -9 -32 -14
-11 -11 1 -111 13 -111 5 0 12 -9 15 -20 4 -14 15 -20 36 -20 25 0 29 -3 25
-18 -4 -10 0 -32 9 -48 15 -30 15 -30 77 -23 34 4 64 12 66 18 2 6 14 11 27
11 13 0 27 5 30 10 3 6 10 10 14 10 8 0 41 -64 41 -79 0 -12 -72 -49 -86 -44
-6 2 -19 -8 -28 -22 -15 -23 -15 -29 -1 -71 22 -66 33 -84 51 -84 12 0 15 -6
10 -25 -8 -31 23 -65 59 -65 14 0 46 10 70 21 25 12 48 20 50 17 2 -2 5 -23 7
-47 3 -43 2 -44 -37 -57 -90 -31 -98 -43 -71 -106 8 -18 19 -58 26 -88 16 -69
25 -81 59 -74 46 10 56 9 56 -3 1 -44 55 -40 105 9 l34 32 13 -30 c6 -16 12
-35 13 -43 0 -24 -33 -40 -81 -41 -47 0 -88 -27 -74 -49 3 -6 0 -11 -7 -11
-10 0 -15 -19 -16 -72 -1 -40 -7 -101 -14 -135 -11 -58 -13 -62 -35 -57 -26 7
-39 8 -65 6 -19 -2 -42 -58 -27 -67 10 -7 12 -98 2 -109 -4 -3 -8 -15 -10 -26
-1 -11 -16 -41 -33 -68 -16 -27 -30 -54 -30 -60 0 -5 -7 -12 -15 -16 -8 -3
-15 -12 -15 -20 0 -21 -22 -57 -59 -96 -18 -19 -43 -51 -56 -70 -22 -35 -55
-68 -55 -56 0 3 -37 -31 -82 -77 -46 -46 -90 -88 -99 -93 -17 -10 -59 -92 -59
-115 0 -8 -16 -46 -36 -84 -40 -78 -43 -116 -19 -240 8 -46 54 -155 71 -170 6
-5 20 -41 31 -80 11 -38 28 -95 37 -126 9 -31 16 -68 16 -83 0 -14 4 -34 10
-44 5 -9 23 -60 41 -112 42 -130 116 -268 199 -372 66 -85 130 -174 130 -183
0 -9 103 -143 168 -217 23 -27 42 -53 42 -58 0 -13 40 -13 60 0 11 7 12 13 3
32 -6 13 -11 30 -11 38 0 8 -3 27 -6 41 -7 25 -3 29 63 62 l70 36 45 -40 c25
-22 47 -48 51 -58 3 -9 21 -25 41 -34 35 -17 36 -17 97 15 34 18 68 39 75 45
19 18 19 18 47 -27 29 -46 25 -56 -32 -79 -17 -7 -34 -19 -37 -27 -4 -11 12
-14 93 -14 93 0 98 1 111 24 11 21 11 31 -1 58 -7 18 -16 35 -20 38 -3 3 -20
27 -37 54 l-30 49 27 22 c22 19 123 75 134 75 2 0 23 -27 46 -60 26 -37 49
-60 61 -60 24 0 55 41 39 51 -7 4 -8 12 -5 18 4 6 -5 27 -21 46 -15 19 -40 50
-55 69 -16 18 -28 39 -28 45 0 6 -3 10 -7 9 -14 -4 -60 49 -99 114 -21 35 -53
84 -70 110 -18 25 -49 79 -69 120 -21 40 -43 80 -49 88 -7 8 -18 35 -26 60 -7
25 -24 68 -38 95 -39 82 -90 226 -100 285 -15 93 -5 305 18 382 23 74 50 138
80 183 11 17 28 46 39 65 10 19 32 51 48 71 15 20 35 47 43 60 8 12 25 34 38
47 13 13 21 27 18 30 -3 3 2 11 12 18 11 7 18 21 17 31 -4 35 -17 73 -26 73
-22 0 -6 21 30 39 21 11 45 26 53 33 24 22 91 55 135 67 33 9 42 17 46 39 7
38 1 92 -18 151 -9 27 -15 58 -13 68 3 17 117 82 146 83 6 0 12 -12 12 -26 0
-14 6 -32 14 -40 8 -7 12 -22 9 -32 -7 -27 60 -62 85 -45 33 24 97 51 135 58
20 4 39 11 42 15 3 5 14 6 25 3 12 -3 29 2 40 12 26 24 23 72 -11 166 -28 76
-26 99 7 99 12 0 84 -105 84 -124 0 -7 11 -19 25 -26 22 -12 34 -8 132 40 59
30 110 57 111 62 2 4 10 8 18 8 16 0 12 47 -6 81 -6 10 -10 31 -10 47 0 16 -5
44 -12 62 -10 30 -9 35 13 53 23 19 24 19 40 -2 9 -11 25 -48 35 -81 14 -47
24 -64 46 -74 24 -13 30 -13 42 0 8 8 23 15 34 17 11 2 26 8 34 13 20 16 78
40 131 54 39 11 47 16 47 36 0 13 -4 24 -10 24 -5 0 -10 7 -10 15 0 9 -9 33
-20 55 -32 63 -27 90 28 130 26 19 56 43 66 52 11 10 21 16 23 15 9 -10 38
-147 31 -149 -4 -2 10 -13 32 -25 31 -19 41 -20 52 -10 22 22 85 57 101 57 8
0 17 5 19 10 2 6 14 12 26 13 13 1 28 9 33 19 5 10 16 18 23 18 26 0 23 38
-12 142 l-35 106 22 30 c27 39 44 33 67 -25 54 -132 72 -142 177 -94 106 49
122 59 119 73 -2 7 -5 24 -7 39 -2 14 -16 52 -33 85 -16 32 -40 102 -52 154
-43 177 -75 220 -143 192 -16 -7 -35 -12 -43 -12 -8 0 -31 -9 -51 -20 -21 -11
-45 -20 -53 -20 -8 0 -23 -12 -34 -26 -15 -22 -16 -28 -5 -35 10 -6 11 -9 2
-9 -7 0 -13 -7 -13 -15 0 -8 5 -15 12 -15 6 0 9 -3 6 -6 -4 -3 4 -21 17 -40
13 -19 27 -48 30 -65 6 -26 2 -36 -23 -61 l-31 -29 -19 43 c-11 24 -23 54 -27
68 -9 30 -34 60 -49 60 -6 0 -47 -19 -91 -42 -44 -23 -98 -51 -120 -62 -43
-22 -59 -40 -61 -71 -2 -23 28 -55 50 -55 9 0 20 -16 26 -41 6 -23 15 -52 20
-64 8 -20 2 -28 -51 -64 -64 -44 -89 -51 -89 -25 0 9 -12 43 -26 75 -37 83
-63 90 -156 43 -66 -33 -128 -84 -128 -104 0 -6 -7 -10 -15 -10 -16 0 -20 -12
-8 -23 3 -4 7 -17 9 -30 1 -12 5 -43 9 -68 7 -41 5 -48 -16 -63 -33 -23 -38
-21 -45 24 -8 50 -36 70 -96 66 -53 -4 -149 -33 -163 -50 -5 -6 -24 -21 -40
-33 -25 -17 -31 -28 -30 -55 1 -18 7 -43 13 -55 21 -39 15 -89 -14 -108 -14
-9 -27 -15 -29 -13 -13 15 -25 50 -20 58 7 11 -18 40 -34 40 -6 0 -11 4 -11 9
0 12 -41 19 -60 9 -8 -4 -46 -17 -85 -29 -38 -12 -87 -31 -107 -42 -35 -19
-37 -22 -34 -66 2 -25 11 -70 19 -99 18 -58 9 -92 -24 -92 -9 0 -22 -6 -28
-14 -7 -8 -25 -19 -41 -25 -32 -11 -28 -20 -45 92 -5 34 -22 46 -175 116 -36
16 -86 50 -112 76 -33 32 -56 46 -75 46 -42 1 -137 -22 -148 -36 -10 -12 -49
-35 -59 -35 -3 0 -6 7 -6 15 0 9 -7 27 -16 40 -15 23 -15 25 2 25 9 0 26 7 36
16 14 14 20 14 33 4 9 -7 17 -11 18 -9 28 42 30 60 12 131 -9 40 -25 89 -35
108 -10 19 -21 43 -24 53 -8 25 -57 17 -133 -21 -34 -18 -66 -32 -71 -32 -11
0 -32 45 -32 70 0 13 7 20 20 20 36 0 98 24 109 42 8 14 8 35 -4 86 -8 37 -16
81 -19 97 -2 17 -7 39 -10 50 -10 30 -86 61 -86 35 0 -5 -16 -13 -35 -19 -19
-5 -48 -19 -65 -31 -25 -18 -30 -19 -30 -5 0 8 -7 27 -16 40 -15 22 -15 26 0
40 9 9 25 18 36 20 69 13 98 56 72 107 -7 15 -15 36 -17 48 -2 11 -7 26 -11
32 -5 7 -9 20 -9 29 -3 31 -35 69 -58 69 -24 0 -92 -22 -103 -33 -4 -4 -19 -7
-33 -7 -29 0 -52 39 -57 96 -2 28 3 36 37 58 21 14 43 26 47 26 5 0 21 9 35
20 30 24 28 36 -27 152 -20 42 -36 80 -36 86 0 19 -33 36 -70 38 -22 1 -65
-11 -105 -27z m107 -97 c6 -6 17 -27 23 -46 10 -29 10 -35 -4 -40 -22 -9 -50
-26 -92 -58 -20 -16 -41 -28 -46 -28 -9 0 -134 -50 -173 -69 -12 -7 -15 2 -16
46 0 40 -5 57 -20 68 -19 15 -19 15 1 27 20 13 55 26 135 54 25 9 63 24 85 34
69 31 86 33 107 12z m186 -450 c9 -27 7 -30 -37 -57 -50 -30 -127 -60 -207
-79 l-52 -13 0 34 c0 29 5 36 39 53 21 11 43 20 48 20 9 0 98 37 140 59 34 17
59 11 69 -17z m2757 -49 c3 -10 10 -36 15 -58 10 -50 37 -127 64 -182 22 -46
15 -67 -27 -75 -28 -5 -44 10 -61 60 -8 20 -20 51 -26 67 -12 29 -57 150 -62
169 -2 4 15 14 37 21 54 17 52 17 60 -2z m-325 -211 c0 -9 8 -30 18 -47 10
-16 29 -64 41 -105 13 -41 29 -83 37 -94 17 -25 18 -56 1 -56 -7 0 -29 -9 -50
-20 -20 -11 -41 -20 -45 -20 -5 0 -15 19 -22 43 -7 23 -31 94 -54 157 l-42
115 32 21 c52 36 84 38 84 6z m-2264 -77 c6 -34 -1 -73 -12 -62 -8 8 -62 -16
-131 -58 -32 -19 -68 -35 -81 -35 -21 0 -23 4 -20 37 2 30 9 40 38 56 19 11
64 37 100 58 84 48 97 48 106 4z m1864 -187 c0 -5 9 -18 20 -30 10 -12 17 -25
14 -30 -3 -5 -1 -21 5 -36 6 -15 12 -55 14 -88 3 -34 7 -67 11 -73 12 -19 -47
-61 -87 -61 -14 0 -80 134 -96 195 -20 74 -15 87 42 122 38 23 55 29 64 21 7
-6 13 -15 13 -20z m-1684 -167 c-1 -22 -9 -29 -53 -47 -29 -11 -89 -49 -133
-83 l-80 -62 0 40 c0 22 -4 43 -10 46 -21 13 0 65 26 65 7 0 140 61 204 94 22
11 26 10 36 -7 6 -11 11 -31 10 -46z m1344 -98 c11 -32 25 -67 30 -78 8 -19
15 -80 11 -115 -1 -14 -21 -26 -83 -49 -25 -9 -29 -7 -56 37 -29 46 -62 154
-62 203 0 31 42 57 97 58 l42 1 21 -57z m-390 -152 c0 -11 5 -23 10 -26 6 -3
10 -16 10 -28 0 -12 8 -35 18 -52 10 -16 24 -56 31 -89 14 -64 9 -76 -35 -76
-12 0 -39 -6 -60 -14 -29 -10 -42 -10 -50 -2 -10 11 -84 228 -84 246 0 13 31
28 92 44 69 19 68 19 68 -3z m-689 -72 c23 -23 70 -49 164 -91 39 -18 55 -35
58 -65 2 -16 6 -34 10 -40 4 -5 11 -49 16 -96 6 -47 17 -101 25 -121 14 -33
13 -35 -5 -41 -10 -4 -19 -10 -19 -14 0 -5 -21 -16 -47 -26 -27 -10 -53 -23
-58 -30 -12 -15 -80 -45 -102 -45 -7 0 -23 -9 -35 -20 -16 -15 -25 -17 -35 -9
-7 6 -24 9 -37 7 -23 -5 -24 -3 -14 21 5 14 17 35 27 46 21 23 34 55 23 55 -4
0 -12 10 -17 22 -10 23 -60 61 -124 94 -20 10 -50 29 -67 41 -36 27 -49 28
-98 8 -27 -11 -40 -26 -52 -55 -13 -33 -19 -38 -30 -29 -8 6 -14 8 -14 5 0 -4
-7 -1 -15 7 -8 8 -13 23 -11 33 4 18 19 194 19 222 0 8 12 19 26 25 14 5 51
21 81 35 140 64 167 74 193 73 15 -1 27 4 27 10 0 6 6 9 14 6 8 -3 17 1 20 9
7 17 32 5 77 -37z m-189 -598 c-52 -99 -101 -181 -136 -225 -11 -14 -19 -16
-28 -9 -7 6 -31 16 -53 23 -22 7 -48 18 -57 25 -19 13 -22 4 50 135 33 61 77
167 98 238 2 8 32 -3 93 -34 l89 -46 -56 -107z m-311 123 c6 -8 20 -14 30 -14
10 0 21 -5 24 -10 8 -14 -78 -191 -97 -198 -4 -2 -8 -9 -8 -16 0 -8 -8 -24
-18 -37 -11 -13 -22 -38 -25 -55 -7 -39 11 -59 68 -73 57 -14 159 -54 177 -69
25 -20 60 3 90 56 14 26 34 62 44 81 10 19 26 43 35 53 9 11 24 37 34 58 l18
39 31 -23 c17 -13 40 -27 52 -30 11 -3 31 -17 43 -30 19 -20 20 -27 10 -50 -7
-14 -16 -26 -21 -26 -4 0 -8 -6 -8 -14 0 -12 -12 -27 -80 -104 -11 -12 -19
-26 -18 -30 3 -9 -37 -86 -54 -104 -18 -20 -33 -45 -65 -110 -15 -32 -31 -58
-35 -58 -5 0 -8 -6 -8 -14 0 -7 -6 -19 -14 -25 -8 -7 -17 -30 -21 -51 -4 -21
-12 -44 -20 -50 -7 -6 -16 -27 -20 -48 -4 -20 -13 -44 -20 -52 -7 -8 -23 -40
-35 -72 -11 -31 -27 -62 -35 -68 -8 -7 -15 -18 -15 -24 0 -13 -101 -114 -140
-140 -13 -9 -34 -16 -46 -16 -12 0 -24 -5 -26 -12 -3 -9 -36 -12 -109 -13
l-104 0 -68 48 c-86 62 -137 138 -178 267 -24 74 -26 159 -5 198 8 15 20 43
27 62 26 73 62 116 205 250 44 41 94 93 110 115 16 21 36 47 45 56 21 21 91
142 109 187 7 17 16 32 21 32 5 0 12 12 15 28 4 15 13 38 20 52 7 14 15 37 18
51 5 22 10 25 31 22 13 -3 30 -11 36 -19z m245 -1066 c-1 -46 1 -93 5 -104 4
-13 3 -26 -4 -33 -8 -8 -8 -11 1 -11 7 0 12 -13 12 -30 0 -17 4 -38 10 -48 22
-38 69 -177 62 -183 -15 -13 -145 -58 -153 -53 -5 3 -9 1 -9 -4 0 -11 -83 -42
-110 -42 -10 0 -33 32 -62 89 l-47 90 24 15 c34 23 112 104 144 151 28 42 80
144 105 208 8 20 17 37 20 37 2 0 3 -37 2 -82z m-683 -372 c3 3 22 -2 41 -11
29 -14 54 -16 119 -12 83 5 125 12 135 22 3 2 11 -3 17 -12 16 -22 1 -38 -45
-48 -19 -4 -50 -18 -70 -30 -41 -26 -118 -51 -177 -58 l-41 -5 -12 44 c-7 25
-17 47 -21 50 -5 3 -9 18 -9 34 0 16 -5 41 -10 55 l-10 27 38 -31 c22 -17 42
-28 45 -25z m402 -180 c22 -57 61 -76 116 -57 20 7 33 4 58 -11 17 -11 31 -23
31 -27 0 -7 -70 -41 -85 -41 -4 0 -58 -24 -119 -54 -126 -62 -146 -70 -163
-67 -7 1 -13 -3 -13 -10 0 -6 -8 -9 -20 -6 -21 5 -23 0 -22 -58 0 -27 -1 -28
-11 -11 -7 10 -29 40 -49 66 -36 46 -114 197 -107 204 2 2 18 7 34 10 80 15
114 26 165 51 58 29 124 52 152 54 11 1 22 -14 33 -43z m455 -28 c18 -40 46
-93 60 -118 l27 -46 -36 -16 c-20 -10 -65 -29 -101 -43 -36 -14 -74 -30 -85
-35 -36 -17 -110 -40 -128 -40 -10 0 -33 17 -52 38 l-35 37 23 17 c12 10 29
18 38 18 9 0 21 6 27 13 6 7 23 14 38 15 40 3 98 36 102 57 2 9 -12 41 -32 69
-20 29 -36 55 -36 58 0 2 17 10 38 16 46 13 105 30 112 31 3 1 21 -32 40 -71z
m-432 -285 c36 -23 92 -81 92 -96 0 -7 9 -18 19 -24 19 -12 67 -5 116 17 50
22 63 21 85 -7 19 -24 20 -29 6 -39 -9 -6 -16 -16 -16 -23 0 -6 -7 -11 -15
-11 -14 0 -50 -19 -80 -43 -24 -18 -186 -97 -200 -97 -8 0 -15 -4 -15 -10 0
-21 -20 -9 -42 24 -65 98 -132 191 -140 194 -18 8 -6 28 27 46 19 11 35 23 35
28 0 4 6 8 13 9 6 0 28 11 47 24 43 29 36 28 68 8z m632 -59 c27 -41 50 -82
50 -89 0 -8 -16 -22 -36 -31 -20 -9 -38 -23 -41 -31 -3 -7 -11 -13 -19 -13 -8
0 -19 -9 -26 -20 -7 -11 -16 -20 -20 -20 -4 0 -21 -13 -38 -30 -17 -16 -49
-39 -71 -51 -44 -22 -45 -22 -101 31 -15 14 -28 30 -28 35 0 11 47 43 101 68
23 10 39 26 43 41 6 26 -1 56 -14 56 -4 0 -14 14 -23 32 -14 29 -14 33 1 45 9
7 24 13 33 13 8 0 33 9 55 20 67 33 78 28 134 -56z"/>
<path d="M994 1782 c-4 -15 -14 -36 -23 -47 -26 -32 -42 -64 -57 -114 -17 -57
-17 -95 -2 -179 11 -60 17 -70 73 -126 75 -76 122 -100 181 -92 41 5 126 42
132 58 2 4 10 8 18 8 17 0 96 105 113 151 7 19 19 46 27 61 15 28 19 86 6 104
-8 12 -40 29 -212 113 -69 34 -133 61 -142 61 -8 0 -21 6 -27 13 -6 8 -27 14
-46 15 -30 1 -36 -2 -41 -26z m206 -157 c14 -4 42 -19 62 -31 21 -13 43 -24
50 -24 7 -1 23 -9 35 -19 20 -17 21 -22 10 -57 -17 -56 -101 -139 -160 -159
-45 -15 -51 -15 -73 0 -14 9 -29 13 -34 10 -6 -3 -10 -3 -10 2 0 4 -19 28 -41
53 l-41 45 6 85 c4 64 10 91 27 113 11 16 18 31 15 34 -3 3 2 12 11 18 14 11
25 7 68 -25 28 -20 61 -41 75 -45z"/>
<path d="M2840 4009 c0 -5 5 -7 10 -4 6 3 10 8 10 11 0 2 -4 4 -10 4 -5 0 -10
-5 -10 -11z"/>
</g>
</svg>
