<?xml version="1.0" standalone="no"?>
<!DOCTYPE svg PUBLIC "-//W3C//DTD SVG 20010904//EN"
 "http://www.w3.org/TR/2001/REC-SVG-20010904/DTD/svg10.dtd">
<svg version="1.0" xmlns="http://www.w3.org/2000/svg"
 width="493.000000pt" height="519.000000pt" viewBox="0 0 493.000000 519.000000"
 preserveAspectRatio="xMidYMid meet">
<metadata>
Created by potrace 1.16, written by Peter Selinger 2001-2019
</metadata>
<g transform="translate(0.000000,519.000000) scale(0.100000,-0.100000)"
fill="#000000" stroke="none">
<path d="M403 5108 c-19 -9 -21 -17 -17 -77 2 -36 6 -118 9 -181 7 -133 11
-175 18 -187 3 -4 8 -33 11 -63 4 -30 18 -93 33 -139 14 -47 26 -89 27 -95 1
-6 4 -15 8 -21 3 -5 13 -41 23 -80 23 -97 77 -259 87 -263 4 -2 8 -10 8 -18 0
-8 14 -43 30 -77 17 -35 30 -69 30 -76 0 -6 16 -42 37 -79 40 -74 71 -134 134
-265 23 -48 46 -90 51 -93 4 -3 8 -12 8 -20 0 -9 13 -29 29 -45 16 -15 38 -48
50 -71 11 -24 39 -67 61 -96 22 -29 40 -56 40 -61 0 -7 13 -25 51 -70 9 -9 9
-25 2 -57 -6 -25 -7 -46 -3 -49 7 -4 5 -56 -6 -115 -7 -43 -7 -348 1 -360 3
-5 7 -21 9 -37 3 -15 12 -48 22 -73 14 -37 16 -78 15 -240 -1 -107 -1 -199 -1
-205 4 -39 12 -189 13 -230 0 -27 0 -86 0 -130 2 -220 -8 -458 -20 -479 -13
-24 -3 -96 13 -96 8 0 14 -4 14 -10 0 -5 16 -17 35 -26 19 -9 35 -20 35 -24 0
-4 10 -11 23 -14 12 -3 41 -24 65 -46 24 -22 46 -40 50 -40 4 0 23 -10 42 -22
19 -12 44 -23 55 -25 11 -2 25 -9 30 -16 6 -7 21 -11 34 -9 14 2 30 -2 36 -10
20 -25 114 -98 126 -98 7 0 10 -3 6 -6 -7 -7 28 -41 90 -86 25 -18 62 -48 83
-66 20 -17 40 -32 44 -32 11 0 132 -108 207 -183 37 -37 75 -67 86 -67 10 0
27 -6 38 -13 11 -8 47 -19 79 -25 49 -10 71 -9 125 3 36 9 73 19 81 24 8 4 38
20 65 36 28 15 60 33 71 39 23 13 136 88 144 96 10 11 90 61 130 82 13 7 38
25 54 41 17 15 36 27 43 27 22 0 28 3 47 27 10 13 41 38 70 54 28 17 85 51
126 76 41 25 81 46 88 47 8 1 17 7 20 12 17 24 67 54 82 49 10 -3 23 1 30 10
7 8 21 15 32 15 11 0 25 6 32 13 8 6 37 32 65 57 133 115 174 166 177 218 1
21 5 55 8 77 3 22 8 81 11 130 3 50 8 137 12 195 4 58 7 125 6 150 -5 278 -5
429 1 500 3 47 6 92 6 100 -2 94 2 292 7 355 8 104 8 109 -1 248 -3 65 -10
128 -15 140 -14 38 -3 113 25 166 8 14 14 31 14 37 0 5 8 19 18 30 10 10 53
91 96 179 43 88 102 208 132 268 30 59 51 107 48 107 -4 0 -2 6 3 13 6 6 18
35 27 64 10 29 29 69 43 89 13 21 29 58 33 83 5 25 20 78 34 116 14 39 26 81
26 95 0 29 27 109 42 127 5 7 7 16 4 21 -5 8 6 84 35 252 22 126 17 308 -9
303 -7 -2 -12 2 -12 7 0 13 -36 13 -62 -1 -16 -9 -24 -7 -41 9 -33 29 -63 33
-83 11 -14 -15 -17 -44 -20 -151 -4 -156 -9 -205 -22 -221 -6 -7 -10 -14 -11
-17 0 -3 -2 -12 -4 -20 -21 -68 -29 -112 -34 -173 -5 -73 -47 -232 -64 -243
-5 -3 -9 -16 -9 -30 0 -14 -8 -39 -17 -57 -9 -18 -18 -34 -18 -37 -1 -3 -8
-21 -16 -40 -9 -19 -22 -56 -29 -82 -8 -27 -17 -48 -21 -48 -5 0 -30 -71 -29
-85 0 -3 -8 -20 -18 -37 -27 -48 -72 -137 -137 -268 -62 -126 -146 -263 -185
-304 -26 -27 -50 -34 -50 -15 0 8 -4 8 -12 2 -18 -15 -404 -37 -543 -32 -202
7 -255 10 -297 17 -45 9 -103 8 -248 -2 -46 -4 -160 -22 -260 -41 -14 -3 -77
-5 -140 -6 -63 -1 -134 -5 -158 -9 -24 -4 -60 -3 -80 2 -39 10 -63 12 -127 8
-68 -4 -208 7 -238 19 -16 6 -44 11 -63 11 -19 0 -33 4 -30 9 3 5 -6 21 -19
35 -14 15 -25 33 -25 40 0 7 -11 34 -24 62 -13 27 -31 67 -41 89 -10 22 -28
54 -40 70 -12 17 -27 47 -34 68 -7 20 -17 37 -22 37 -5 0 -9 9 -9 19 0 11 -4
22 -9 25 -15 9 -79 153 -110 245 -41 121 -69 191 -84 206 -7 7 -19 32 -26 56
-7 24 -17 53 -22 64 -4 11 -11 35 -14 53 -4 17 -10 32 -14 32 -5 0 -18 39 -30
88 -13 48 -31 107 -41 132 -10 25 -22 70 -25 100 -10 81 -12 91 -28 135 -15
43 -29 143 -32 240 -3 79 -13 135 -26 151 -6 7 -24 16 -41 19 -25 6 -35 3 -52
-17 -24 -27 -31 -48 -16 -48 6 0 10 -13 10 -28 0 -16 3 -32 7 -36 4 -4 8 -26
9 -49 3 -82 16 -163 36 -227 11 -36 22 -74 24 -85 19 -111 34 -178 43 -189 6
-7 8 -15 5 -18 -3 -4 2 -20 10 -37 9 -16 16 -41 16 -55 0 -14 5 -28 10 -31 6
-3 10 -14 10 -23 0 -10 8 -33 19 -52 10 -19 22 -51 26 -70 4 -19 16 -54 26
-77 11 -23 19 -48 19 -55 0 -12 29 -78 52 -118 10 -18 11 -20 32 -90 17 -54
55 -140 67 -150 3 -3 14 -27 24 -55 21 -56 70 -149 92 -174 12 -15 47 -88 91
-191 8 -19 21 -50 29 -68 44 -95 -47 -5 -144 143 -36 55 -82 125 -102 155 -38
56 -105 188 -137 270 -10 25 -26 57 -36 72 -10 15 -25 46 -33 69 -9 23 -19 47
-25 53 -5 7 -21 45 -36 86 -14 41 -30 80 -34 85 -13 17 -73 217 -77 259 -2 21
-13 61 -25 90 -44 111 -68 206 -78 306 -17 177 -18 184 -21 230 -1 25 1 68 6
96 6 46 5 53 -16 73 -25 23 -43 25 -76 9z m3949 -359 c1 -55 -15 -176 -32
-239 -5 -19 -11 -55 -13 -80 -7 -71 -57 -301 -72 -324 -7 -12 -18 -43 -24 -69
-13 -53 -47 -133 -67 -157 -7 -8 -13 -18 -13 -23 -2 -29 -24 -79 -92 -216 -42
-86 -91 -185 -108 -221 -18 -36 -45 -90 -62 -120 -16 -30 -35 -72 -41 -92 -6
-21 -14 -38 -18 -38 -4 0 -10 -13 -13 -28 -8 -40 -38 -72 -59 -64 -16 7 -16 9
0 42 9 19 22 41 29 48 8 8 21 28 30 45 9 18 19 34 22 37 4 3 54 100 110 215
57 116 108 213 113 216 5 3 6 13 2 22 -3 9 -2 17 4 17 5 0 12 10 15 23 3 12
19 56 35 97 17 41 44 109 60 150 17 41 32 89 35 105 3 17 17 62 31 100 17 45
29 101 33 155 3 55 16 114 34 167 20 57 29 99 28 140 -1 54 18 159 28 150 2
-3 4 -29 5 -58z m-1312 -1751 c179 -1 348 1 375 4 67 7 155 -12 185 -40 22
-20 23 -25 12 -55 -7 -19 -12 -65 -12 -103 0 -126 -37 -368 -60 -399 -5 -5
-11 -27 -15 -47 -4 -21 -11 -38 -15 -38 -4 0 -11 -20 -14 -45 -6 -38 -18 -55
-74 -113 -57 -58 -150 -132 -165 -132 -3 0 -39 -16 -80 -35 -41 -19 -79 -35
-85 -35 -6 0 -12 -4 -14 -8 -1 -4 -32 -20 -68 -36 -113 -49 -212 -99 -239
-121 -14 -12 -51 -36 -81 -55 -30 -19 -57 -37 -60 -41 -6 -8 -54 -23 -56 -18
-1 2 -10 -3 -20 -12 -11 -9 -37 -23 -59 -30 -22 -7 -56 -23 -75 -34 -61 -37
-158 -65 -222 -66 -10 0 -18 -4 -18 -8 0 -4 -19 -8 -42 -9 -24 -1 -64 -4 -91
-8 -62 -8 -136 10 -217 52 -57 30 -140 95 -140 109 0 3 -8 13 -17 23 -10 10
-38 42 -63 71 -25 29 -52 61 -61 70 -40 40 -189 290 -189 316 0 3 -16 29 -35
58 -33 50 -65 133 -86 227 -6 25 -10 135 -10 246 1 230 9 273 57 286 53 14
127 17 148 6 11 -6 57 -15 101 -19 44 -4 91 -10 104 -13 13 -3 43 -1 66 4 29
7 56 5 93 -4 32 -9 64 -11 85 -6 19 4 77 8 128 9 111 2 163 8 244 28 82 21
219 31 350 26 61 -2 256 -5 435 -5z m727 -96 c2 -9 5 -33 6 -53 2 -19 7 -41
11 -47 4 -7 5 -16 2 -20 -18 -29 -39 -1068 -23 -1137 4 -16 2 -55 -5 -85 -6
-30 -10 -59 -9 -65 3 -12 0 -152 -5 -245 -4 -89 -12 -142 -23 -171 -11 -31
-62 -89 -77 -89 -6 0 -19 -11 -28 -25 -9 -13 -26 -29 -37 -36 -21 -11 -21 -10
-15 42 3 30 9 94 11 143 3 48 10 107 15 130 5 22 10 68 10 101 0 33 9 92 21
130 25 88 25 86 34 170 5 39 9 75 10 80 0 6 6 35 12 65 7 30 14 69 17 85 3 17
9 47 14 67 6 20 8 39 5 42 -3 2 0 37 6 78 6 40 13 98 16 128 3 30 8 71 10 90
5 36 10 537 5 555 -1 6 -2 30 -1 54 1 42 11 50 18 13z m-122 -554 c-2 -13 -6
-43 -9 -68 -3 -25 -9 -83 -12 -130 -8 -113 -9 -116 -22 -180 -13 -64 -19 -96
-27 -159 -4 -25 -11 -59 -15 -76 -5 -16 -10 -55 -11 -85 -1 -55 -5 -75 -33
-185 -8 -33 -15 -80 -16 -104 0 -24 -7 -69 -15 -102 -8 -32 -17 -93 -19 -136
-4 -72 -9 -127 -21 -211 -4 -37 -31 -66 -91 -102 -22 -13 -63 -39 -92 -59 -29
-20 -65 -43 -80 -51 -35 -20 -95 -62 -102 -72 -3 -4 -26 -16 -50 -27 -25 -11
-60 -34 -78 -51 -18 -16 -36 -30 -38 -30 -3 0 -29 -16 -58 -35 -29 -19 -56
-35 -59 -35 -4 0 -20 -14 -37 -32 -17 -17 -33 -28 -36 -25 -4 3 -13 -1 -21 -9
-22 -22 -93 -68 -138 -88 -22 -11 -49 -24 -60 -29 -11 -6 -54 -12 -96 -15 -87
-5 -105 3 -180 77 -25 25 -67 64 -93 86 -26 22 -59 50 -73 63 -14 12 -29 22
-34 22 -4 0 -11 9 -14 20 -4 11 -10 18 -14 15 -4 -2 -17 5 -29 15 -12 11 -26
20 -31 20 -5 0 -12 9 -16 19 -3 11 -12 18 -18 15 -11 -4 -73 44 -139 108 -10
10 -21 18 -25 18 -5 0 -27 18 -51 39 -47 42 -50 43 -166 92 -43 19 -84 42 -90
51 -6 10 -16 18 -23 18 -6 0 -18 6 -25 13 -10 10 -56 45 -97 74 -3 2 -6 108
-8 236 -2 127 -8 247 -13 266 -6 22 -6 51 1 78 9 43 10 75 6 335 -2 70 1 124
6 119 11 -11 57 -92 64 -113 3 -10 9 -18 14 -18 5 0 9 -7 9 -15 0 -8 3 -15 8
-15 4 0 16 -17 27 -37 21 -39 35 -56 103 -128 23 -25 42 -48 42 -53 0 -4 20
-28 45 -54 25 -26 45 -52 45 -58 0 -5 4 -10 9 -10 4 0 25 -13 46 -30 47 -37
168 -96 216 -105 58 -11 252 -12 279 -2 14 5 34 13 45 17 11 4 52 15 90 24 39
10 97 30 130 46 101 48 151 70 158 70 10 0 147 90 171 112 11 10 23 18 27 18
5 0 27 13 51 29 42 28 118 65 188 92 19 7 37 16 40 19 6 7 91 48 190 91 41 18
91 44 110 58 33 24 49 38 120 105 15 15 36 43 46 64 10 20 21 39 24 42 9 8 50
136 50 154 0 9 4 16 9 16 4 0 7 -10 6 -22z"/>
<path d="M2058 2334 c-54 -18 -122 -55 -131 -70 -4 -8 -14 -14 -21 -14 -15 0
-96 -113 -101 -142 -2 -10 -7 -23 -10 -29 -12 -18 -13 -72 -4 -117 40 -192
209 -299 388 -246 34 10 70 26 79 34 9 8 32 27 50 43 19 15 30 27 26 27 -4 0
2 10 13 23 33 36 66 161 60 229 -9 90 -56 171 -132 224 -60 42 -157 59 -217
38z m117 -114 c4 -6 14 -10 24 -10 18 0 71 -51 89 -85 6 -12 9 -52 7 -91 -2
-58 -8 -77 -33 -114 -46 -68 -66 -82 -138 -95 -82 -16 -114 -6 -171 53 -67 70
-75 167 -19 240 33 43 82 84 107 89 16 3 31 9 34 13 7 11 93 11 100 0z"/>
<path d="M2050 2121 c0 -5 -11 -12 -24 -15 -35 -9 -50 -59 -31 -97 19 -37 55
-46 89 -24 27 18 29 23 26 68 -2 33 -60 98 -60 68z"/>
</g>
</svg>
