<?xml version="1.0" standalone="no"?>
<!DOCTYPE svg PUBLIC "-//W3C//DTD SVG 20010904//EN"
 "http://www.w3.org/TR/2001/REC-SVG-20010904/DTD/svg10.dtd">
<svg version="1.0" xmlns="http://www.w3.org/2000/svg"
 width="413.000000pt" height="415.000000pt" viewBox="0 0 413.000000 415.000000"
 preserveAspectRatio="xMidYMid meet">
<metadata>
Created by potrace 1.16, written by Peter Selinger 2001-2019
</metadata>
<g transform="translate(0.000000,415.000000) scale(0.100000,-0.100000)"
fill="#000000" stroke="none">
<path d="M2748 3950 c-15 -5 -56 -10 -90 -11 -35 -2 -70 -6 -78 -10 -24 -11
-108 -29 -133 -29 -13 0 -38 -11 -57 -25 -19 -14 -38 -25 -44 -25 -5 0 -17 -6
-25 -13 -9 -7 -36 -20 -61 -27 -25 -8 -64 -26 -87 -42 -23 -15 -44 -28 -46
-28 -16 0 -161 -161 -181 -199 -12 -25 -28 -55 -34 -66 -6 -11 -18 -41 -28
-67 -9 -27 -20 -48 -23 -48 -4 0 -17 -33 -29 -72 -13 -40 -30 -93 -38 -118 -8
-25 -14 -54 -14 -65 -1 -11 -6 -30 -13 -42 -12 -22 -12 -22 -72 19 -70 47
-119 73 -157 82 -15 3 -33 12 -40 19 -7 8 -55 22 -106 32 -80 15 -102 16 -169
5 -43 -6 -84 -12 -90 -13 -7 0 -13 -4 -13 -8 0 -4 -10 -11 -22 -14 -13 -4 -39
-25 -59 -46 -21 -22 -46 -39 -58 -39 -12 0 -19 -4 -16 -10 3 -5 1 -10 -5 -10
-6 0 -9 -4 -6 -9 4 -5 -6 -22 -21 -38 -26 -26 -51 -61 -98 -138 -10 -16 -20
-39 -21 -50 -1 -11 -5 -60 -8 -109 -4 -49 -9 -93 -12 -98 -3 -5 -2 -14 3 -21
5 -7 10 -28 11 -47 6 -100 124 -441 179 -518 13 -17 21 -37 18 -42 -3 -6 -2
-10 3 -10 5 0 22 -24 37 -52 16 -29 39 -66 52 -81 21 -26 23 -55 3 -42 -5 3
-11 1 -15 -5 -3 -5 -15 -10 -25 -10 -10 0 -57 -13 -104 -29 -47 -16 -86 -27
-86 -24 0 3 -10 -1 -23 -9 -12 -8 -48 -22 -79 -32 -32 -10 -58 -22 -58 -27 0
-5 -9 -9 -21 -9 -21 0 -117 -59 -139 -85 -7 -8 -16 -15 -21 -15 -13 0 -89 -82
-89 -96 0 -7 -9 -16 -20 -19 -11 -3 -20 -13 -20 -21 0 -7 -9 -19 -20 -26 -11
-7 -20 -20 -20 -28 0 -8 -11 -34 -24 -56 -90 -157 -90 -375 -1 -562 25 -52 45
-99 45 -106 0 -10 183 -140 199 -141 3 -1 22 -9 41 -20 125 -68 167 -82 255
-90 50 -4 97 -9 106 -10 20 -4 82 -8 89 -5 6 2 27 7 56 14 61 13 208 98 255
147 61 64 129 164 129 189 0 12 41 102 49 110 3 3 7 16 9 30 1 14 23 71 47
128 25 56 45 112 46 125 0 12 8 38 17 58 15 32 20 36 40 28 12 -4 22 -13 22
-19 0 -5 6 -10 14 -10 8 0 17 -9 21 -19 3 -10 19 -24 35 -31 17 -7 30 -15 30
-19 0 -4 17 -15 38 -26 20 -10 50 -28 67 -39 35 -24 124 -73 220 -122 39 -19
86 -43 105 -53 33 -18 111 -30 206 -34 23 0 68 6 100 16 32 9 84 21 115 27 48
9 65 19 111 64 42 40 58 63 67 100 6 26 18 58 27 71 8 12 17 32 19 45 2 12 6
29 9 38 4 14 16 102 19 137 0 6 -9 40 -21 77 -12 37 -22 76 -22 87 0 11 -11
41 -25 66 -14 25 -22 45 -18 45 4 0 2 5 -5 12 -25 25 -13 47 31 59 23 7 109
36 191 66 160 59 276 118 308 158 11 14 25 25 32 25 7 0 21 9 31 20 10 11 22
17 26 14 5 -3 9 0 9 7 0 7 25 34 55 62 30 27 55 53 55 58 0 4 17 35 38 67 120
188 195 469 178 674 -20 248 -34 348 -56 403 -4 11 -16 43 -25 70 -10 28 -34
75 -54 105 -20 30 -36 58 -36 61 0 11 -96 137 -134 177 -20 21 -53 56 -73 78
-20 21 -43 44 -50 49 -21 15 -97 51 -150 70 -27 10 -48 22 -48 26 0 5 -3 8 -7
7 -5 -1 -25 6 -46 15 -24 10 -69 17 -125 18 -48 1 -98 6 -112 11 -34 13 -109
18 -142 8z m232 -119 c54 -5 96 -13 98 -20 2 -6 12 -11 23 -11 10 0 44 -11 75
-25 31 -14 60 -25 65 -25 16 0 114 -64 139 -91 131 -141 172 -190 207 -250 11
-21 18 -40 15 -43 -3 -3 -1 -6 5 -6 14 0 60 -88 66 -126 3 -17 9 -40 15 -50 5
-11 12 -50 15 -89 4 -38 11 -115 17 -169 21 -184 -1 -356 -67 -526 -4 -8 -7
-17 -7 -20 -4 -14 -79 -155 -89 -165 -7 -7 -23 -30 -37 -53 -14 -22 -41 -50
-60 -63 -19 -13 -42 -31 -50 -39 -47 -43 -89 -78 -127 -102 -42 -28 -234 -108
-258 -108 -7 0 -32 -9 -55 -19 -24 -11 -49 -17 -57 -14 -7 3 -19 0 -27 -6 -8
-7 -31 -9 -55 -6 -24 3 -41 1 -41 -5 0 -21 -16 -9 -30 23 -7 17 -15 35 -18 39
-2 5 5 11 15 14 10 4 37 15 60 25 23 11 48 19 56 19 8 0 31 7 51 15 19 8 39
14 43 13 15 -3 68 15 83 28 8 7 56 33 105 58 93 47 113 63 193 157 82 96 106
130 127 172 11 23 25 49 30 57 5 8 10 17 11 20 0 3 6 19 13 35 7 17 15 50 17
75 3 25 7 61 10 80 15 108 18 187 12 288 -9 140 -11 152 -26 179 -7 12 -12 30
-12 40 0 19 -15 61 -43 126 -10 20 -24 53 -32 73 -54 131 -234 315 -330 338
-16 4 -51 18 -76 31 -25 13 -77 33 -115 44 -61 19 -79 20 -159 12 -87 -9 -141
-26 -252 -77 -28 -13 -54 -24 -57 -24 -3 0 -25 -13 -48 -29 -24 -16 -46 -27
-50 -25 -5 3 -8 1 -8 -5 0 -6 -13 -17 -29 -26 -16 -8 -35 -20 -43 -27 -7 -8
-33 -30 -58 -50 -25 -20 -58 -55 -75 -78 -16 -23 -40 -54 -51 -68 -49 -62
-174 -342 -174 -390 0 -34 -18 -35 -59 -1 -46 36 -52 52 -35 94 7 17 22 62 34
100 31 101 81 225 91 225 5 0 9 8 9 19 0 34 49 106 123 182 91 91 86 88 177
124 41 16 77 32 80 35 20 25 118 60 164 60 18 0 36 4 42 9 5 5 29 13 54 16 25
4 65 11 90 15 44 8 92 7 280 -9z m-59 -187 c30 -9 86 -31 124 -49 39 -18 86
-40 106 -49 100 -43 227 -210 281 -368 53 -154 50 -135 62 -354 3 -64 -16
-237 -33 -302 -26 -94 -209 -352 -251 -352 -5 0 -10 -4 -10 -8 0 -5 -37 -27
-82 -49 -125 -61 -150 -72 -188 -78 -19 -3 -39 -10 -45 -16 -5 -5 -18 -9 -30
-9 -11 -1 -45 -9 -75 -20 -31 -11 -59 -15 -64 -10 -5 5 -15 2 -24 -6 -20 -21
-38 1 -104 125 -13 25 -39 61 -58 80 -20 20 -53 65 -75 101 -21 36 -41 67 -44
70 -8 6 -107 132 -146 184 -16 22 -45 56 -64 76 -85 85 -187 202 -201 232 -15
30 -15 38 2 98 50 180 148 367 233 445 53 48 89 75 101 75 6 0 17 7 25 16 7 8
29 24 48 35 20 10 47 28 61 39 14 11 66 34 115 51 50 17 97 33 105 37 8 3 29
7 45 9 17 3 32 7 34 9 10 10 102 3 152 -12z m-1581 -556 c8 -3 33 -8 55 -13
22 -4 49 -12 60 -18 11 -6 23 -10 28 -9 4 1 7 -1 7 -6 0 -4 13 -13 29 -20 16
-7 42 -25 58 -41 15 -15 42 -35 58 -45 17 -10 53 -36 81 -57 28 -22 56 -39 62
-39 5 0 12 -4 14 -8 2 -5 28 -27 59 -50 62 -45 123 -103 182 -175 22 -25 78
-86 125 -134 127 -130 192 -209 192 -233 0 -4 3 -10 8 -12 7 -3 57 -68 77 -99
6 -8 35 -53 65 -100 31 -46 62 -96 69 -111 8 -15 21 -36 30 -45 9 -10 30 -40
46 -68 16 -27 38 -63 47 -80 20 -33 57 -112 63 -135 0 -3 12 -25 25 -50 17
-33 24 -63 26 -110 1 -36 4 -76 8 -88 7 -20 -7 -149 -20 -194 -10 -35 -26 -19
-20 20 16 95 22 143 17 148 -3 3 -6 11 -6 17 -1 25 -17 103 -24 122 -5 11 -17
47 -26 80 -43 147 -90 236 -210 394 -28 36 -64 86 -80 110 -17 25 -58 74 -92
110 -34 36 -71 77 -83 91 -197 233 -562 601 -658 664 -38 25 -75 46 -83 46 -8
0 -36 12 -64 25 -27 14 -54 25 -58 25 -5 0 -35 15 -67 34 -38 22 -78 37 -115
41 -78 10 -50 27 35 21 36 -2 72 -6 80 -8z m35 -162 c45 -24 96 -47 113 -51
17 -3 36 -13 42 -21 7 -7 16 -11 22 -8 5 3 34 -14 66 -37 81 -61 92 -72 92
-86 0 -7 6 -13 13 -13 7 0 87 -77 178 -171 90 -95 187 -195 214 -223 28 -29
67 -74 87 -101 20 -28 56 -70 80 -95 71 -74 133 -151 172 -212 20 -31 40 -59
45 -63 19 -11 124 -190 133 -225 5 -19 14 -51 19 -70 6 -19 13 -46 16 -60 2
-14 11 -39 18 -55 15 -33 27 -165 16 -165 -4 0 -8 -15 -9 -33 -4 -63 -40 -193
-57 -207 -14 -11 -45 -3 -45 11 0 14 -17 11 -34 -6 -8 -9 -13 -22 -10 -30 4
-9 -3 -18 -17 -24 -29 -11 -158 -4 -174 9 -7 6 -14 8 -17 5 -6 -6 -122 32
-169 55 -19 10 -64 38 -100 62 -35 24 -87 57 -115 73 -55 32 -194 158 -194
175 0 19 74 85 125 110 27 14 67 41 88 60 21 19 50 41 63 48 13 7 24 17 24 22
0 6 6 10 13 10 7 0 12 15 12 40 0 22 -3 40 -6 40 -4 0 -12 14 -19 31 -28 67
-196 259 -226 259 -7 0 -14 6 -17 13 -5 12 -58 41 -124 68 -18 8 -33 17 -33
21 0 18 -21 4 -80 -52 -34 -33 -68 -60 -75 -60 -8 0 -15 -3 -17 -8 -6 -15
-134 -84 -156 -84 -12 0 -25 -4 -28 -9 -6 -11 -34 -12 -33 -1 3 19 -2 32 -14
32 -19 0 -83 69 -101 110 -23 49 -82 158 -94 173 -6 7 -25 55 -42 107 -18 52
-36 100 -40 105 -11 16 -21 62 -34 171 -13 109 -5 179 30 274 19 50 75 108
114 117 14 3 31 10 38 16 6 5 12 7 12 4 0 -4 10 -3 21 2 39 14 130 -8 214 -53z
m404 -1016 c25 -16 64 -48 85 -70 22 -22 43 -40 48 -40 4 0 8 -7 8 -15 0 -8 5
-15 10 -15 6 0 10 -5 10 -11 0 -6 9 -23 21 -37 12 -16 16 -28 10 -30 -6 -2
-11 -9 -11 -16 0 -16 -38 -51 -46 -44 -3 3 -16 -5 -29 -18 -13 -13 -31 -24
-40 -24 -8 0 -15 -7 -15 -16 0 -9 -8 -14 -17 -13 -32 3 -43 -1 -43 -15 0 -7
-18 -30 -40 -50 -22 -20 -40 -42 -40 -50 0 -7 -6 -19 -14 -25 -19 -16 -89
-159 -122 -251 -14 -41 -31 -78 -36 -81 -5 -3 -9 -10 -8 -15 2 -13 -20 -96
-31 -116 -5 -10 -9 -24 -9 -33 0 -18 -56 -142 -73 -161 -7 -7 -23 -28 -36 -46
-56 -77 -175 -158 -284 -191 -69 -22 -202 -22 -262 0 -53 20 -147 65 -161 78
-6 5 -22 19 -35 31 -13 11 -33 33 -44 48 -11 15 -32 34 -48 42 -35 19 -74 81
-103 164 -20 55 -22 78 -18 155 4 49 5 104 5 121 -1 18 6 37 15 44 8 8 25 32
36 54 24 46 39 67 111 150 111 128 152 161 221 181 27 8 77 33 111 55 42 27
76 41 107 44 25 3 63 9 84 14 21 6 55 13 74 15 19 3 60 11 90 18 30 7 58 12
63 11 4 -1 7 2 7 7 0 5 12 12 28 16 15 3 41 12 57 20 17 7 55 24 85 36 30 13
91 43 135 65 44 23 84 42 89 43 5 1 30 -12 55 -29z"/>
</g>
</svg>
