<?xml version="1.0" standalone="no"?>
<!DOCTYPE svg PUBLIC "-//W3C//DTD SVG 20010904//EN"
 "http://www.w3.org/TR/2001/REC-SVG-20010904/DTD/svg10.dtd">
<svg version="1.0" xmlns="http://www.w3.org/2000/svg"
 width="493.000000pt" height="435.000000pt" viewBox="0 0 493.000000 435.000000"
 preserveAspectRatio="xMidYMid meet">
<metadata>
Created by potrace 1.16, written by Peter Selinger 2001-2019
</metadata>
<g transform="translate(0.000000,435.000000) scale(0.100000,-0.100000)"
fill="#000000" stroke="none">
<path d="M188 3603 c-23 -6 -32 -51 -15 -77 8 -11 56 -48 108 -80 52 -32 96
-63 97 -67 2 -5 8 -9 13 -9 9 0 96 -53 164 -100 22 -15 58 -37 80 -49 22 -12
61 -36 87 -54 26 -17 83 -54 128 -82 45 -27 93 -59 108 -71 15 -12 50 -33 77
-48 28 -15 55 -33 60 -39 6 -7 31 -23 58 -37 26 -14 47 -28 47 -32 0 -5 6 -8
13 -8 8 0 29 -12 48 -26 33 -25 233 -159 377 -252 40 -26 128 -83 195 -127 68
-44 135 -86 150 -94 15 -8 27 -18 27 -23 0 -4 6 -8 14 -8 8 0 21 -6 28 -12 14
-14 35 -28 183 -123 165 -105 215 -140 215 -147 0 -5 6 -8 14 -8 7 0 19 -6 25
-14 9 -10 -5 -9 -56 5 -116 32 -199 48 -221 42 -13 -3 -23 -16 -28 -36 -5 -25
-2 -34 16 -49 12 -10 29 -18 38 -18 9 0 29 -4 46 -10 17 -5 78 -24 136 -41 58
-17 112 -34 120 -37 8 -2 22 -6 30 -7 40 -7 155 -46 175 -59 12 -8 37 -13 56
-12 36 3 69 -12 69 -30 0 -15 39 -6 63 14 22 20 22 80 0 124 -10 18 -21 35
-25 36 -5 2 -8 9 -8 16 0 7 -8 21 -17 32 -73 82 -123 144 -123 153 0 5 -7 14
-16 19 -8 4 -23 20 -32 34 -24 37 -129 174 -148 193 -11 10 -29 15 -53 13 -35
-3 -36 -4 -39 -49 -3 -44 0 -50 55 -111 73 -82 93 -107 93 -115 0 -3 16 -21
35 -40 19 -19 35 -38 35 -43 0 -10 -57 17 -66 31 -3 6 -17 15 -31 20 -14 5
-79 44 -145 87 -200 129 -390 253 -450 292 -31 21 -66 41 -78 45 -11 3 -20 11
-20 16 0 5 -5 9 -11 9 -6 0 -41 21 -78 48 -94 67 -303 204 -351 230 -14 7 -42
26 -62 43 -20 16 -39 29 -42 29 -2 0 -32 18 -65 40 -33 22 -65 40 -71 40 -5 0
-10 4 -10 8 0 4 -15 16 -32 26 -37 21 -151 94 -215 138 -23 15 -44 28 -48 28
-3 0 -30 18 -59 40 -29 22 -56 40 -59 40 -5 0 -219 133 -325 202 -15 10 -37
22 -49 27 -11 5 -24 15 -28 21 -3 6 -27 22 -53 35 -26 14 -65 36 -87 50 -22
13 -42 24 -45 23 -3 0 -12 -2 -22 -5z"/>
<path d="M3938 2285 c-2 -2 -17 -5 -34 -8 -17 -3 -39 -9 -50 -14 -107 -53
-154 -79 -154 -84 0 -3 -8 -14 -18 -25 -47 -51 -76 -99 -93 -156 -11 -34 -23
-66 -28 -72 -4 -6 -14 -33 -21 -61 -8 -27 -24 -65 -37 -84 -13 -19 -23 -38
-23 -42 0 -9 -20 -36 -60 -80 -14 -15 -40 -43 -58 -64 -19 -20 -53 -45 -75
-55 -23 -10 -58 -31 -77 -48 -19 -17 -46 -40 -59 -51 -13 -12 -29 -21 -34 -21
-6 0 -8 -2 -6 -5 3 -2 -25 -36 -62 -75 -84 -87 -124 -159 -154 -275 -12 -49
-32 -118 -44 -152 -25 -75 -27 -163 -5 -253 9 -36 17 -72 19 -80 1 -8 6 -24
10 -35 10 -25 139 -152 151 -148 5 2 22 -8 38 -22 16 -14 35 -25 43 -25 7 0
13 -5 13 -11 0 -5 4 -8 9 -5 5 3 44 -5 86 -19 120 -40 216 -50 263 -29 15 7
56 25 92 42 78 35 118 48 185 58 28 4 57 9 65 10 71 12 86 12 133 -7 29 -12
63 -23 77 -26 13 -2 38 -10 55 -18 88 -39 215 -72 279 -74 38 -1 72 -3 75 -3
3 -1 26 2 50 6 83 15 128 43 191 119 33 40 60 77 60 83 0 7 13 38 29 70 35 72
61 174 61 240 0 66 -46 201 -82 239 -15 16 -28 33 -28 37 0 4 -15 22 -32 41
-18 18 -42 44 -54 58 -12 13 -39 40 -62 60 -22 21 -48 51 -57 69 -21 40 -21
144 -1 260 23 130 34 328 21 390 -14 71 -19 87 -32 114 -22 42 -82 96 -107 96
-12 0 -26 4 -32 9 -5 5 -43 21 -84 35 -41 15 -84 31 -95 36 -96 43 -127 53
-182 55 -34 2 -63 1 -65 0z m144 -129 c29 -13 79 -35 110 -50 31 -14 63 -26
72 -26 8 0 18 -4 21 -10 3 -5 15 -10 26 -10 10 0 19 -6 19 -14 0 -8 9 -18 20
-21 11 -3 20 -11 20 -16 0 -5 6 -9 13 -9 6 0 19 -15 27 -32 12 -25 15 -69 13
-188 -2 -188 -2 -185 -14 -218 -6 -15 -12 -79 -14 -142 -4 -136 13 -197 72
-251 74 -69 137 -135 163 -171 15 -21 29 -35 32 -33 6 7 68 -157 73 -193 8
-63 -77 -250 -145 -319 -72 -74 -127 -87 -275 -63 -38 6 -74 15 -80 20 -6 5
-22 11 -35 14 -33 6 -53 13 -125 46 -76 35 -183 60 -213 49 -12 -5 -39 -10
-59 -13 -84 -11 -145 -27 -220 -57 -43 -17 -91 -37 -108 -43 -40 -16 -117 -13
-190 8 -33 10 -71 21 -85 24 -35 10 -130 63 -130 74 0 4 -6 8 -13 8 -31 0 -76
66 -103 150 -30 98 -29 169 5 255 11 28 27 82 36 122 16 67 43 118 104 201 14
17 28 32 32 32 4 0 29 23 56 51 55 57 146 129 165 129 39 1 199 192 251 300
19 41 39 89 43 105 11 46 53 135 91 193 35 52 75 78 168 110 53 18 121 14 177
-12z"/>
</g>
</svg>
