<?xml version="1.0" standalone="no"?>
<!DOCTYPE svg PUBLIC "-//W3C//DTD SVG 20010904//EN"
 "http://www.w3.org/TR/2001/REC-SVG-20010904/DTD/svg10.dtd">
<svg version="1.0" xmlns="http://www.w3.org/2000/svg"
 width="467.000000pt" height="433.000000pt" viewBox="0 0 467.000000 433.000000"
 preserveAspectRatio="xMidYMid meet">
<metadata>
Created by potrace 1.16, written by Peter Selinger 2001-2019
</metadata>
<g transform="translate(0.000000,433.000000) scale(0.100000,-0.100000)"
fill="#000000" stroke="none">
<path d="M1118 4033 c-20 -3 -28 -10 -28 -24 0 -10 -7 -19 -15 -19 -19 0 -58
-21 -68 -38 -4 -7 -24 -19 -43 -27 -18 -8 -34 -19 -34 -26 0 -6 -7 -8 -15 -5
-9 3 -18 -1 -21 -9 -7 -17 -129 -115 -144 -115 -5 0 -10 -4 -10 -10 0 -5 -11
-12 -25 -16 -14 -3 -25 -9 -25 -13 0 -4 -26 -21 -57 -36 -32 -16 -72 -39 -89
-52 -17 -13 -34 -23 -38 -23 -4 0 -15 -9 -24 -20 -10 -10 -23 -20 -31 -22 -8
-2 -35 -22 -60 -45 -25 -23 -59 -44 -75 -47 -16 -3 -27 -9 -24 -12 3 -3 -4
-33 -16 -67 -20 -58 -21 -79 -20 -342 1 -154 5 -379 9 -500 11 -366 15 -560
20 -1020 5 -430 5 -473 4 -565 0 -25 0 -51 0 -57 1 -16 58 -46 71 -38 5 3 22
0 37 -8 15 -8 72 -24 126 -36 54 -13 103 -29 110 -36 13 -12 87 -33 142 -39
17 -2 30 -5 30 -5 0 -1 14 -4 30 -5 17 -2 59 -15 95 -29 71 -27 120 -41 134
-38 4 1 13 -2 20 -7 6 -5 32 -13 59 -16 26 -4 47 -12 47 -18 0 -6 2 -9 5 -6 3
3 40 -3 83 -14 42 -10 84 -21 92 -23 8 -1 29 -6 45 -10 17 -4 68 -20 115 -36
47 -15 103 -31 125 -35 71 -12 147 -33 169 -47 21 -14 54 -21 149 -31 26 -3
67 -14 90 -25 24 -11 65 -25 93 -31 60 -14 180 -49 214 -63 14 -6 31 -9 39 -8
7 1 20 -1 30 -5 9 -4 22 -8 29 -10 7 -1 57 -16 110 -33 53 -16 165 -51 247
-77 205 -63 238 -75 250 -89 10 -12 69 -25 139 -30 33 -3 44 2 67 26 15 16 31
29 37 29 5 0 13 7 16 16 3 8 10 13 15 9 6 -3 13 1 18 9 4 8 57 40 118 71 60
31 122 66 136 76 15 10 30 19 34 19 15 0 100 45 108 58 4 7 22 19 40 27 18 8
55 28 82 45 58 35 137 74 146 72 4 -1 25 14 47 33 22 19 44 35 48 35 12 0 98
43 109 54 25 25 56 92 55 115 -2 40 -2 70 -1 146 1 100 -7 267 -13 285 -3 8
-8 76 -12 150 -3 74 -8 153 -10 175 -2 22 -4 67 -5 100 -1 33 -7 79 -14 102
-8 25 -9 45 -4 49 5 3 7 9 4 14 -7 11 -14 81 -20 200 -3 52 -8 133 -10 180 -3
47 -7 101 -9 120 -2 19 -5 96 -7 170 -3 168 -22 356 -39 393 -8 15 -24 30 -36
33 -17 4 -25 16 -30 41 -7 39 -31 52 -167 97 -43 14 -91 34 -105 45 -15 10
-43 23 -62 29 -63 18 -244 83 -316 113 -39 16 -80 31 -91 33 -11 3 -42 13 -69
25 -49 20 -138 41 -173 41 -10 0 -26 -11 -35 -25 -15 -22 -15 -31 -4 -60 6
-19 17 -35 23 -36 11 0 84 -14 130 -24 16 -3 34 -9 40 -13 5 -4 24 -9 40 -10
17 -2 53 -14 81 -28 28 -13 58 -24 67 -24 9 0 19 -5 22 -10 4 -6 10 -8 15 -5
5 3 29 -3 53 -14 23 -11 55 -23 70 -26 15 -4 30 -11 33 -16 2 -5 24 -13 47
-20 23 -6 69 -23 102 -39 33 -16 72 -31 86 -34 14 -3 35 -14 47 -24 l22 -19
-34 -26 c-18 -15 -36 -24 -38 -22 -3 3 -13 -4 -23 -15 -10 -11 -23 -20 -28
-20 -6 0 -43 -20 -83 -45 -39 -25 -76 -45 -82 -45 -5 0 -22 -7 -38 -15 -35
-18 -63 -12 -135 30 -52 31 -87 46 -116 51 -32 6 -83 26 -83 34 0 4 -15 11
-34 14 -19 4 -49 17 -68 29 -19 12 -50 30 -69 40 -28 14 -36 25 -36 45 0 33
-30 82 -49 82 -9 0 -14 -12 -14 -32 -1 -31 -19 -68 -34 -68 -4 0 -14 -7 -22
-15 -9 -8 -27 -15 -42 -15 -15 0 -36 -3 -48 -6 -13 -3 -28 1 -37 11 -9 8 -18
15 -19 15 -6 -3 -64 12 -83 21 -19 9 -35 13 -95 25 -40 8 -90 27 -90 35 0 4
-17 10 -37 13 -37 7 -79 19 -118 37 -11 5 -42 16 -70 24 -27 9 -57 19 -65 22
-8 3 -19 7 -25 8 -5 0 -23 7 -40 13 -47 19 -97 38 -135 51 -19 7 -80 28 -135
48 -55 19 -108 36 -117 38 -20 4 -78 29 -129 56 -20 10 -42 19 -49 19 -18 0
-99 58 -114 83 -8 13 -12 34 -9 49 7 35 23 26 23 -13 0 -23 4 -29 23 -29 12 0
31 -3 42 -6 16 -4 24 3 38 31 10 20 15 41 11 46 -3 5 -1 24 5 42 14 44 22 93
25 153 3 63 29 94 106 124 68 27 218 36 227 14 3 -8 11 -14 18 -14 8 0 29 -13
47 -30 18 -16 39 -30 48 -31 69 -5 100 -14 193 -58 143 -68 176 -81 201 -81
11 0 34 -7 50 -15 15 -8 32 -15 37 -15 14 0 124 -54 127 -62 2 -4 12 -8 22 -8
9 0 34 -15 53 -32 20 -18 43 -37 52 -43 35 -22 57 -182 41 -300 -3 -16 -5 -37
-5 -46 -1 -22 -57 -32 -91 -17 l-27 11 13 61 c8 41 9 66 2 79 -5 10 -7 25 -4
34 3 8 2 22 -3 31 -5 9 -11 28 -12 42 -5 32 -59 82 -127 117 -29 14 -57 32
-63 40 -7 7 -18 13 -25 13 -8 0 -14 5 -14 10 0 6 -6 10 -13 10 -7 0 -30 9 -52
20 -22 11 -45 20 -52 20 -7 0 -13 5 -13 11 0 5 -4 7 -10 4 -10 -6 -140 54
-140 66 0 4 -16 10 -35 13 -19 4 -35 10 -35 15 0 4 -26 15 -57 25 -32 10 -76
26 -98 36 -59 27 -111 39 -126 29 -8 -5 -25 -9 -39 -9 -14 0 -42 -13 -61 -30
-37 -30 -38 -31 -55 -164 -2 -17 -9 -33 -16 -37 -9 -6 -9 -17 0 -46 13 -44 52
-66 91 -51 15 5 28 4 36 -2 7 -6 17 -10 21 -9 5 1 16 0 24 -3 8 -3 34 -11 58
-18 23 -8 47 -19 53 -27 6 -7 19 -13 28 -13 9 0 48 -16 86 -35 39 -19 77 -35
86 -35 17 0 145 -43 196 -66 17 -8 37 -14 45 -14 7 0 26 -7 42 -15 16 -8 45
-17 64 -20 20 -2 48 -13 63 -24 16 -12 33 -21 40 -21 7 0 10 -14 7 -40 -2 -22
0 -40 4 -40 4 0 15 -14 25 -30 10 -17 28 -33 40 -36 13 -4 23 -10 23 -14 0 -7
157 -5 190 2 34 7 41 37 47 186 6 184 6 187 -11 225 -8 18 -18 43 -22 57 -10
37 -47 89 -66 96 -10 3 -18 9 -18 13 0 23 -110 106 -110 84 0 -5 -4 -3 -8 2
-10 14 -49 35 -66 35 -7 0 -19 7 -26 15 -7 8 -23 15 -36 15 -12 0 -29 6 -36
13 -7 6 -28 13 -47 14 -19 1 -56 14 -82 28 -27 14 -55 25 -64 25 -8 0 -15 3
-15 8 0 9 -74 42 -94 42 -8 0 -17 4 -20 9 -3 5 -26 12 -51 15 -25 4 -45 11
-45 17 0 5 -3 8 -7 8 -26 -4 -53 3 -53 14 0 14 -91 59 -152 75 -21 6 -53 7
-75 2 -21 -4 -59 -11 -85 -15 -26 -3 -53 -12 -60 -18 -7 -7 -34 -18 -60 -25
-53 -13 -98 -47 -98 -72 0 -9 -4 -20 -10 -26 -16 -16 -42 -133 -37 -169 4 -29
0 -37 -22 -51 -14 -9 -37 -30 -50 -46 -23 -29 -26 -29 -85 -23 -33 4 -68 11
-77 16 -9 5 -37 10 -61 13 -27 2 -88 25 -157 59 -62 31 -125 59 -141 62 -15 3
-43 14 -62 24 l-35 17 43 37 c23 20 47 37 53 37 6 0 11 5 11 10 0 6 5 10 12
10 7 0 38 18 70 41 32 22 58 38 58 35 0 -8 64 16 72 28 7 10 178 -35 233 -62
86 -43 135 -30 135 35 0 26 -6 36 -25 45 -14 6 -25 14 -25 18 0 4 -20 11 -45
14 -25 4 -45 11 -45 15 0 5 -17 12 -37 17 -70 14 -114 29 -165 55 -18 9 -31 9
-80 2z m-295 -386 c3 -7 24 -19 48 -25 113 -32 269 -88 318 -113 30 -16 58
-26 63 -23 5 3 30 -1 56 -9 26 -8 66 -20 89 -27 31 -10 43 -19 48 -38 9 -37
42 -80 68 -88 12 -4 24 -9 27 -13 10 -12 69 -41 84 -41 9 0 16 -4 16 -10 0 -5
6 -10 13 -10 6 0 25 -7 41 -15 16 -9 63 -25 105 -35 41 -11 77 -24 80 -29 3
-4 24 -11 46 -15 22 -4 46 -13 53 -19 17 -14 109 -47 115 -41 2 2 17 -2 33
-11 16 -8 35 -15 42 -15 6 0 12 -5 12 -11 0 -5 4 -8 9 -5 5 4 38 -7 72 -24 35
-16 72 -27 81 -24 10 3 18 1 18 -5 0 -6 30 -19 66 -31 36 -11 71 -23 77 -27 7
-4 17 -8 22 -8 10 0 27 -5 230 -70 131 -42 218 -47 235 -15 11 21 36 21 85 0
57 -24 147 -65 200 -91 33 -16 72 -29 87 -29 15 0 33 -7 42 -15 8 -8 21 -15
28 -15 21 -1 58 -37 58 -57 0 -14 -76 -75 -100 -79 -23 -4 -135 -68 -182 -105
-20 -16 -45 -29 -55 -29 -10 0 -41 15 -69 34 -28 19 -73 44 -100 56 -27 12
-56 26 -64 31 -51 30 -156 84 -167 85 -8 1 -32 12 -53 23 -22 11 -40 18 -40
15 0 -4 -11 1 -24 10 -25 16 -36 20 -186 75 -47 17 -94 36 -105 41 -30 14 -78
33 -95 36 -9 2 -37 14 -62 28 -26 14 -63 28 -83 32 -19 3 -35 12 -35 20 0 8
-6 11 -15 8 -14 -6 -110 21 -130 36 -5 4 -28 13 -50 20 -22 7 -51 19 -64 28
-14 8 -32 15 -40 16 -23 2 -151 36 -181 48 -14 6 -46 21 -72 34 -27 13 -48 22
-48 20 0 -3 -33 6 -72 20 -40 14 -84 27 -98 30 -14 2 -34 8 -45 13 -48 21
-112 43 -135 46 -42 6 -192 45 -230 61 -32 14 -82 28 -135 39 -29 6 -114 35
-153 52 -18 8 -36 12 -40 9 -5 -3 -29 5 -55 18 l-47 22 46 40 c25 21 73 54
107 72 34 18 68 39 77 46 8 8 34 22 58 32 23 10 42 22 42 26 0 13 28 9 33 -5z
m1176 -37 c30 -17 67 -30 83 -30 28 0 130 -46 136 -62 2 -4 10 -8 18 -8 8 0
14 -4 14 -10 0 -5 8 -10 18 -10 9 0 31 -9 47 -20 17 -11 37 -20 46 -20 38 0
299 -149 299 -170 0 -9 4 -20 9 -25 5 -6 13 -27 16 -47 l7 -37 -37 4 c-20 3
-42 8 -49 12 -6 4 -23 8 -37 9 -15 1 -46 13 -70 25 -24 13 -48 22 -53 20 -6
-1 -19 2 -30 7 -40 18 -72 29 -189 68 -65 21 -123 44 -129 51 -6 7 -14 13 -19
13 -5 0 -32 11 -61 24 -29 13 -76 34 -105 46 -29 12 -55 30 -58 40 -10 32 -8
106 4 128 17 32 73 29 140 -8z m-1590 -278 c8 -2 30 -10 50 -19 20 -9 48 -17
64 -18 15 -2 33 -7 40 -12 10 -8 35 -17 77 -28 3 0 30 -9 60 -20 30 -10 64
-20 75 -21 44 -7 62 -12 108 -33 27 -11 63 -23 80 -27 17 -3 36 -9 42 -14 5
-4 31 -8 56 -8 26 0 68 -9 95 -20 76 -30 116 -43 149 -49 17 -3 35 -8 40 -12
6 -4 39 -16 75 -26 36 -9 85 -26 110 -37 80 -36 122 -51 142 -53 3 0 10 -3 14
-7 4 -5 16 -8 27 -8 10 0 33 -6 50 -14 18 -7 47 -19 65 -26 17 -7 32 -16 32
-21 0 -5 6 -6 13 -3 7 2 27 -2 43 -11 16 -8 34 -15 41 -15 6 0 24 -5 40 -12
15 -6 32 -10 36 -9 12 2 121 -51 129 -63 4 -6 8 -8 8 -3 0 4 12 1 28 -6 24
-13 170 -66 197 -72 11 -2 34 -12 110 -45 28 -12 72 -29 98 -37 26 -8 70 -27
98 -44 27 -16 54 -29 59 -29 13 0 155 -82 158 -91 2 -5 12 -9 21 -9 22 0 141
-76 141 -90 0 -5 6 -10 14 -10 20 0 23 -15 16 -69 -3 -25 -2 -64 1 -86 6 -33
8 -103 8 -295 0 -8 2 -28 5 -43 13 -80 18 -253 22 -652 1 -242 3 -492 4 -555
2 -247 0 -340 -10 -340 -6 0 -10 -11 -10 -24 0 -29 -15 -42 -33 -29 -11 9
-162 58 -452 149 -66 21 -124 41 -130 45 -5 3 -28 10 -50 14 -47 8 -256 65
-370 100 -44 13 -100 27 -125 31 -25 3 -76 17 -115 30 -90 31 -187 56 -192 50
-3 -3 -42 8 -88 25 -46 16 -91 30 -101 32 -11 2 -32 10 -49 17 -16 6 -59 17
-95 22 -36 6 -76 16 -90 23 -14 7 -63 21 -110 30 -47 9 -105 26 -130 37 -62
27 -162 58 -171 52 -4 -2 -10 0 -14 6 -3 5 -25 10 -48 10 -23 0 -51 7 -61 15
-11 8 -31 15 -45 15 -14 0 -41 9 -59 20 -18 11 -37 18 -41 16 -4 -3 -19 1 -33
8 -15 8 -45 17 -67 21 -23 4 -42 10 -43 13 -4 18 -9 200 -13 512 -4 338 -9
539 -21 850 -4 85 -8 346 -9 580 -3 328 -1 422 8 410 7 -8 18 -16 26 -18z
m3637 -560 c13 -8 22 -117 29 -332 6 -189 14 -317 24 -380 5 -29 9 -93 10
-143 1 -51 6 -111 12 -134 5 -23 9 -52 8 -65 0 -28 10 -182 17 -263 3 -33 7
-105 9 -160 4 -139 15 -326 20 -352 3 -12 -1 -40 -8 -61 -7 -21 -12 -55 -9
-74 3 -31 -1 -41 -29 -67 -19 -17 -43 -33 -54 -37 -10 -4 -32 -20 -48 -36 -16
-16 -43 -32 -58 -35 -16 -3 -32 -10 -35 -14 -3 -5 -10 -7 -15 -4 -5 4 -9 1 -9
-4 0 -6 -9 -11 -20 -11 -11 0 -20 -5 -20 -12 0 -6 -3 -9 -6 -5 -3 3 -17 -5
-31 -17 -14 -13 -41 -33 -62 -44 l-36 -20 2 61 c6 178 6 835 0 844 -4 6 -9 54
-12 107 -2 53 -6 100 -8 104 -3 4 -7 57 -11 117 -3 61 -9 144 -11 185 -3 41
-8 154 -10 250 -3 96 -8 198 -12 225 -7 56 -6 93 3 148 5 27 3 37 -7 37 -14 0
38 32 134 84 27 14 55 33 63 41 9 8 24 15 35 15 10 0 19 4 19 9 0 11 79 51
100 51 8 0 20 -4 26 -8z m-484 -371 c4 -47 10 -180 13 -294 2 -114 9 -226 15
-248 6 -22 10 -58 9 -82 -2 -62 12 -231 19 -237 10 -7 12 -87 13 -460 1 -400
-7 -634 -20 -638 -6 -2 -32 -21 -59 -43 -28 -21 -57 -39 -65 -39 -9 0 -22 -6
-29 -13 -27 -27 -140 -78 -165 -75 l-26 3 3 140 c1 77 2 147 2 155 -1 8 -3
221 -6 473 -5 335 -3 457 5 457 8 0 8 4 1 13 -5 6 -13 59 -17 117 -4 58 -9
128 -12 155 -13 142 -13 245 -1 245 10 0 10 2 -1 9 -9 6 -14 44 -18 137 l-4
129 43 41 c24 23 54 47 67 54 14 7 30 17 35 22 6 5 47 29 91 53 95 52 94 52
107 -74z"/>
</g>
</svg>
