<?xml version="1.0" standalone="no"?>
<!DOCTYPE svg PUBLIC "-//W3C//DTD SVG 20010904//EN"
 "http://www.w3.org/TR/2001/REC-SVG-20010904/DTD/svg10.dtd">
<svg version="1.0" xmlns="http://www.w3.org/2000/svg"
 width="509.000000pt" height="431.000000pt" viewBox="0 0 509.000000 431.000000"
 preserveAspectRatio="xMidYMid meet">
<metadata>
Created by potrace 1.16, written by Peter Selinger 2001-2019
</metadata>
<g transform="translate(0.000000,431.000000) scale(0.100000,-0.100000)"
fill="#000000" stroke="none">
<path d="M3357 4173 c-1 -1 -46 -3 -99 -5 -128 -6 -135 -12 -112 -100 4 -14
-6 -17 -68 -21 -105 -7 -148 -19 -200 -58 -39 -29 -47 -40 -52 -79 -3 -25 -8
-58 -11 -75 -4 -16 -6 -43 -5 -60 0 -29 -2 -30 -44 -32 l-44 -1 -12 71 c-16
98 -26 115 -83 140 -51 24 -102 23 -237 -4 -30 -6 -72 -11 -92 -12 -21 -1 -38
-5 -38 -9 0 -5 -16 -8 -35 -8 -19 0 -43 -4 -53 -9 -19 -10 -98 -39 -128 -46
-225 -58 -311 -93 -367 -149 -37 -37 -111 -175 -122 -224 -8 -39 12 -384 26
-427 8 -26 20 -125 22 -175 0 -8 5 -18 10 -22 6 -3 12 -23 14 -43 2 -21 4 -40
5 -44 2 -20 -4 -31 -17 -31 -8 0 -19 -8 -24 -19 -6 -10 -21 -18 -35 -18 -28 0
-86 -24 -86 -35 0 -5 -7 -8 -16 -8 -8 0 -40 -12 -71 -26 -31 -15 -63 -27 -72
-28 -9 -1 -68 -27 -131 -58 -173 -85 -266 -128 -275 -128 -5 0 -16 -7 -25 -15
-29 -26 -240 -130 -371 -183 -70 -28 -142 -60 -161 -70 -33 -19 -95 -38 -110
-34 -5 1 -8 -2 -8 -7 0 -5 -8 -12 -18 -16 -11 -3 -24 -17 -31 -32 -10 -22 -9
-29 9 -48 23 -25 26 -52 17 -180 -8 -109 -10 -253 -3 -264 5 -7 11 -135 20
-416 1 -38 8 -59 31 -90 16 -22 35 -44 42 -48 7 -4 27 -29 45 -55 35 -51 88
-110 243 -268 55 -57 118 -123 140 -148 168 -193 189 -214 213 -220 12 -4 22
-13 22 -21 0 -25 39 -37 104 -31 65 5 73 7 154 31 28 8 74 21 101 29 27 7 69
23 93 34 73 34 132 59 158 67 14 4 41 15 60 25 55 27 110 50 121 50 12 0 110
42 229 97 171 80 197 92 245 108 28 10 55 21 60 25 6 3 42 16 80 27 95 28 191
58 245 77 25 8 72 22 105 31 33 10 78 25 100 35 46 21 123 45 175 56 19 3 67
21 106 39 39 18 106 42 150 54 43 11 117 34 164 51 47 16 102 30 122 30 21 0
82 18 135 39 125 50 195 71 258 78 28 3 74 16 104 29 79 35 178 64 220 64 20
0 45 6 56 14 11 7 63 28 115 45 52 18 123 46 157 62 34 16 68 29 75 29 8 0 38
9 68 19 30 11 64 21 75 23 34 5 49 37 46 96 -3 66 16 328 29 397 5 28 12 91
15 140 10 193 16 263 25 333 16 117 14 138 -18 169 -16 16 -31 36 -35 45 -3 9
-24 29 -47 43 -23 14 -43 32 -46 40 -3 8 -13 17 -22 20 -10 2 -26 18 -37 34
-10 16 -22 28 -26 26 -7 -5 -55 30 -93 68 -15 15 -45 36 -67 47 -21 11 -39 27
-39 36 0 8 -4 13 -9 9 -6 -3 -36 9 -68 26 -32 18 -80 43 -108 58 -27 14 -67
38 -88 54 -20 16 -43 30 -50 31 -17 2 -97 48 -97 56 0 3 -24 12 -52 19 -29 8
-67 24 -85 37 -17 13 -38 24 -46 24 -22 0 -66 25 -82 46 -8 11 -15 14 -15 8 0
-6 -16 -14 -36 -17 -20 -3 -44 -13 -54 -22 -9 -8 -34 -16 -56 -18 -21 -1 -42
-6 -46 -11 -3 -5 -30 -12 -60 -17 -29 -4 -61 -10 -70 -14 -16 -6 -18 -1 -18
39 0 25 7 81 15 123 18 99 29 176 26 187 -3 14 41 156 50 156 10 0 58 128 65
171 9 58 -62 160 -121 175 -22 5 -114 11 -118 7z m131 -116 c30 -29 38 -51 18
-47 -5 1 -12 -4 -16 -10 -5 -9 -16 1 -31 29 -13 22 -28 41 -34 42 -44 4 -137
2 -167 -4 -30 -6 -38 -5 -38 7 0 12 17 14 90 13 50 -1 90 1 90 5 0 17 58 -6
88 -35z m-127 -78 c16 -5 69 -57 69 -68 0 -12 53 -11 66 0 11 9 14 8 14 -4 0
-9 -5 -19 -10 -22 -6 -4 -8 -10 -5 -15 3 -4 -2 -11 -11 -14 -8 -3 -13 -10 -10
-14 3 -5 -3 -22 -13 -38 -18 -29 -29 -77 -37 -169 -3 -27 -9 -59 -14 -70 -5
-11 -11 -40 -14 -65 -3 -25 -7 -56 -9 -70 -2 -14 -7 -70 -11 -126 -7 -87 -6
-103 9 -117 9 -9 15 -22 14 -29 -1 -7 3 -25 9 -41 7 -15 14 -38 17 -50 2 -12
12 -47 21 -77 21 -67 35 -294 22 -333 -6 -15 -7 -34 -4 -42 3 -8 1 -15 -5 -15
-5 0 -27 -11 -47 -25 -20 -14 -43 -25 -50 -25 -7 0 -25 -9 -40 -19 -35 -25
-88 -36 -90 -19 0 7 -5 40 -11 73 -32 188 -27 464 11 650 12 55 22 116 24 135
1 19 7 62 13 95 6 33 13 96 16 140 3 44 8 109 11 144 4 58 3 65 -21 87 -61 56
-132 69 -234 40 -48 -13 -56 -13 -77 1 -13 8 -24 22 -24 30 0 8 -5 11 -11 7
-7 -4 -10 1 -7 12 4 22 41 31 167 39 52 4 103 10 115 15 21 8 126 7 157 -1z
m-757 -113 c15 -9 25 -23 23 -29 -5 -15 -115 -61 -182 -76 -27 -7 -67 -21 -88
-31 -21 -11 -46 -20 -56 -20 -25 0 -74 -63 -76 -97 -1 -16 5 -38 12 -50 21
-31 20 -375 -1 -543 -3 -25 -8 -72 -12 -105 -11 -108 -13 -120 -23 -152 -5
-17 -7 -34 -5 -36 3 -3 4 -45 4 -93 -1 -49 0 -107 1 -129 1 -22 2 -69 4 -105
1 -66 15 -201 20 -210 2 -3 -26 -5 -61 -6 -35 0 -61 3 -58 8 3 4 1 8 -4 8 -16
0 -32 158 -37 365 -3 110 -8 241 -12 290 -8 101 -9 223 -2 500 5 219 0 236
-68 250 -21 5 -42 7 -48 6 -9 -3 -96 -11 -140 -14 -32 -1 -104 14 -110 24 -7
10 48 67 83 87 27 15 224 78 267 85 17 3 50 14 75 25 25 12 68 23 95 26 128
13 153 17 200 30 70 18 165 15 199 -8z m296 -36 c0 -5 17 -18 38 -29 34 -17
41 -18 72 -5 18 8 66 17 107 21 63 5 73 4 79 -11 4 -11 0 -25 -12 -37 -16 -15
-39 -20 -123 -24 -56 -3 -106 -6 -109 -7 -64 -8 -83 10 -74 70 4 29 22 47 22
22z m-250 -89 c0 -19 -51 -48 -68 -37 -5 3 -23 -8 -41 -24 -18 -17 -34 -30
-35 -30 -2 0 -37 -8 -79 -19 -73 -18 -127 -18 -127 0 0 5 12 14 28 20 15 7 36
15 47 20 11 5 58 18 105 30 47 11 103 29 125 40 48 23 45 23 45 0z m585 -42
c-4 -5 -8 -63 -10 -130 -3 -66 -7 -125 -10 -130 -4 -5 -10 -39 -15 -77 -5 -37
-16 -101 -25 -142 -10 -41 -19 -111 -20 -155 -2 -44 -7 -107 -10 -140 -8 -69
-8 -98 -1 -140 3 -16 8 -93 11 -169 3 -77 7 -144 8 -149 1 -6 -11 -15 -28 -20
-36 -12 -59 -20 -105 -40 -39 -16 -97 -36 -126 -41 -10 -3 -39 -10 -64 -16
-25 -6 -61 -15 -80 -19 -19 -5 -63 -18 -96 -30 -34 -12 -66 -21 -70 -19 -5 2
-29 -4 -54 -13 -77 -28 -173 -57 -211 -63 l-36 -6 10 40 c9 34 9 42 -6 52 -29
23 -37 91 -36 318 1 142 2 156 24 335 19 158 25 256 28 445 l2 145 112 25 c61
14 115 28 118 32 4 4 13 4 20 2 14 -6 75 22 75 34 0 4 29 15 64 26 47 13 69
15 83 7 25 -13 260 -7 339 9 32 7 67 21 77 31 18 19 43 17 32 -2z m-1455 -174
c25 -1 78 1 118 4 40 4 77 4 81 1 14 -9 30 -71 26 -98 -13 -74 -20 -565 -9
-583 2 -4 6 -118 9 -255 3 -137 8 -261 11 -277 3 -15 7 -53 9 -85 2 -48 0 -58
-14 -58 -9 0 -51 -4 -93 -8 -74 -6 -78 -6 -78 14 0 11 4 20 9 20 20 0 -2 233
-24 260 -14 17 -33 76 -42 130 -3 19 -12 44 -19 55 -8 11 -14 34 -14 53 0 24
-5 35 -22 41 -12 4 -22 16 -24 27 -1 10 -7 33 -12 49 -25 74 -42 145 -47 200
-4 32 -8 63 -11 66 -2 4 -6 57 -8 118 -3 61 -6 114 -9 118 -2 4 -4 46 -5 92
-1 62 3 90 15 108 15 23 21 25 62 17 25 -4 66 -8 91 -9z m2007 -257 c15 -7 30
-15 33 -18 7 -8 96 -49 140 -65 19 -7 51 -22 70 -34 19 -11 46 -26 60 -32 14
-5 34 -19 45 -29 11 -10 65 -41 120 -70 55 -28 107 -59 115 -68 8 -9 24 -18
34 -20 24 -4 117 -74 177 -132 43 -42 101 -92 159 -138 27 -22 22 -32 -35 -64
-27 -15 -46 -24 -128 -65 -15 -8 -40 -17 -54 -19 -15 -3 -33 -10 -40 -16 -8
-6 -16 -8 -20 -5 -3 4 -18 -2 -32 -12 -14 -10 -48 -26 -75 -35 -27 -9 -81 -32
-120 -51 -39 -18 -91 -39 -116 -45 -69 -17 -150 -47 -205 -74 -27 -14 -57 -26
-65 -26 -32 0 -137 -32 -185 -56 -28 -13 -80 -30 -115 -38 -79 -16 -148 -39
-217 -72 -29 -13 -75 -29 -102 -34 -28 -5 -58 -14 -68 -19 -10 -6 -49 -19 -88
-29 -111 -31 -216 -63 -270 -82 -27 -10 -113 -35 -190 -55 -77 -20 -171 -46
-210 -57 -38 -12 -81 -23 -95 -25 -13 -3 -29 -8 -35 -12 -5 -4 -32 -14 -60
-21 -27 -7 -54 -16 -60 -20 -5 -4 -39 -16 -75 -28 -80 -25 -159 -55 -225 -87
-61 -30 -222 -88 -290 -105 -27 -7 -63 -18 -80 -25 -16 -7 -56 -18 -87 -25
-32 -7 -58 -17 -58 -21 0 -5 -17 -11 -37 -14 -21 -4 -51 -13 -68 -20 -16 -7
-66 -26 -110 -41 -44 -15 -82 -31 -85 -35 -20 -28 -81 1 -109 52 -12 21 -29
39 -36 39 -8 0 -18 6 -22 13 -4 7 -23 24 -42 36 -18 13 -40 39 -47 57 -8 19
-19 34 -25 34 -14 0 -31 18 -54 58 -11 17 -23 32 -27 32 -4 0 -8 6 -8 14 0 8
-9 21 -19 28 -45 32 -151 133 -151 144 0 7 -4 14 -8 16 -5 2 -30 35 -55 75
-31 47 -54 73 -68 75 -12 2 -23 10 -25 19 -2 20 123 84 291 150 61 24 112 46
115 49 3 3 32 18 65 35 33 16 81 44 106 61 25 17 76 43 112 57 36 14 94 40
130 57 35 16 71 30 80 30 10 0 17 4 17 9 0 4 21 16 48 25 26 10 65 26 88 37
23 10 48 19 57 19 9 0 19 5 22 10 3 6 20 8 36 5 22 -4 39 1 62 19 18 13 52 30
77 36 42 11 45 11 60 -11 8 -12 20 -43 26 -68 6 -25 14 -53 18 -62 6 -14 -4
-20 -51 -34 -32 -10 -62 -22 -67 -27 -6 -4 -16 -8 -23 -8 -7 0 -33 -19 -58
-43 -44 -41 -46 -45 -50 -110 -4 -58 -1 -73 18 -103 39 -61 145 -101 277 -106
65 -2 290 11 301 18 5 3 37 5 70 5 32 0 94 7 137 16 42 8 95 19 117 23 22 4
101 28 175 53 74 25 149 47 165 48 17 2 35 6 40 10 9 6 36 13 95 24 63 12 88
19 125 35 22 9 81 32 130 50 50 18 100 41 113 51 13 10 37 21 55 25 18 3 34 9
37 13 3 3 36 22 75 41 38 19 98 56 133 82 35 26 67 48 71 48 9 0 101 87 101
95 0 4 12 22 26 41 31 40 36 120 9 140 -8 6 -15 16 -15 21 0 25 -145 68 -199
60 -29 -5 -31 -3 -41 36 -16 64 -30 119 -41 153 -5 17 -9 35 -9 41 0 14 59 45
71 38 4 -3 27 1 51 10 24 8 53 15 66 15 12 0 22 5 22 10 0 6 13 10 29 10 17 0
33 5 36 10 8 13 8 13 42 -2z m1003 -830 c-1 -40 -4 -89 -6 -108 -2 -19 -6 -84
-10 -144 -3 -61 -9 -117 -13 -125 -4 -9 -9 -36 -10 -61 -2 -25 -5 -48 -7 -52
-2 -4 -6 -53 -9 -110 -5 -114 -12 -158 -26 -158 -5 0 -8 -5 -6 -11 3 -16 -103
-79 -134 -79 -14 0 -29 -4 -35 -8 -5 -5 -36 -19 -69 -32 -33 -12 -74 -29 -92
-36 -17 -8 -38 -14 -48 -14 -9 0 -28 -6 -43 -14 -16 -8 -57 -22 -92 -31 -36
-9 -108 -29 -160 -45 -152 -46 -265 -80 -317 -94 -26 -8 -68 -21 -92 -30 -24
-9 -55 -18 -70 -20 -58 -8 -268 -67 -301 -85 -19 -10 -54 -22 -77 -26 -24 -4
-45 -10 -48 -15 -3 -5 -23 -11 -45 -15 -22 -4 -42 -11 -46 -16 -3 -5 -12 -9
-21 -9 -8 0 -29 -7 -46 -14 -52 -24 -155 -56 -180 -56 -13 0 -28 -5 -33 -10
-6 -6 -22 -12 -35 -14 -22 -2 -61 -16 -101 -37 -10 -5 -25 -9 -33 -9 -8 0 -66
-17 -128 -37 -61 -20 -119 -38 -127 -39 -8 -2 -23 -7 -35 -12 -46 -21 -77 -32
-92 -32 -8 0 -45 -14 -82 -31 -36 -17 -77 -35 -91 -41 -61 -26 -77 -34 -100
-50 -25 -18 -155 -69 -177 -71 -7 0 -13 -3 -13 -7 0 -4 -19 -12 -42 -19 -24
-7 -68 -25 -98 -41 -31 -15 -70 -31 -88 -35 -17 -3 -32 -11 -32 -16 0 -5 -8
-9 -18 -9 -10 0 -36 -9 -57 -21 -76 -39 -305 -105 -319 -92 -3 3 0 17 5 31 5
14 7 39 3 56 -4 17 -6 93 -6 170 0 76 -4 150 -9 164 -19 50 -27 210 -17 357
l3 40 95 38 c52 21 102 39 110 41 23 5 52 16 82 32 14 8 35 14 46 14 12 0 24
4 27 10 3 5 21 10 38 10 37 0 138 33 362 120 271 104 405 151 536 185 69 18
136 38 147 44 28 15 166 57 267 81 74 18 202 58 250 79 19 8 55 19 227 71 37
11 72 20 78 20 6 0 35 11 64 25 81 38 165 65 204 65 40 0 102 20 102 32 0 4 6
8 13 8 6 0 26 7 42 16 32 17 38 19 125 35 30 6 63 17 74 25 11 8 27 14 35 14
8 0 22 6 30 14 20 18 91 45 156 59 28 6 86 27 130 48 44 21 99 43 123 49 23 6
57 19 75 30 17 10 61 28 97 40 36 12 73 29 82 37 9 8 21 12 26 9 5 -3 24 5 43
18 19 13 36 22 38 20 2 -2 3 -36 1 -76z m-4420 -605 c5 -7 10 -16 10 -20 0 -5
18 -30 40 -57 22 -26 40 -52 40 -57 0 -5 5 -9 12 -9 6 0 18 -7 27 -15 9 -8 33
-30 54 -49 20 -19 37 -37 37 -41 0 -11 54 -79 88 -109 17 -16 32 -35 32 -41 0
-6 10 -20 23 -32 117 -110 207 -205 202 -213 -3 -6 -2 -10 3 -10 5 0 9 -30 10
-67 0 -38 3 -99 7 -138 3 -38 9 -133 12 -210 6 -175 6 -159 3 -227 -2 -45 -7
-58 -19 -58 -15 0 -71 79 -71 100 0 6 -6 10 -13 10 -6 0 -37 27 -67 61 -30 33
-73 77 -95 97 -107 99 -228 232 -272 297 -23 34 -48 67 -57 74 -9 7 -16 26
-16 42 0 15 -4 50 -10 76 -5 26 -11 93 -14 148 -3 55 -10 145 -16 200 -5 55
-8 136 -6 180 2 44 5 91 5 105 l2 25 19 -25 c11 -14 24 -30 30 -37z"/>
</g>
</svg>
