<?xml version="1.0" standalone="no"?>
<!DOCTYPE svg PUBLIC "-//W3C//DTD SVG 20010904//EN"
 "http://www.w3.org/TR/2001/REC-SVG-20010904/DTD/svg10.dtd">
<svg version="1.0" xmlns="http://www.w3.org/2000/svg"
 width="381.000000pt" height="405.000000pt" viewBox="0 0 381.000000 405.000000"
 preserveAspectRatio="xMidYMid meet">
<metadata>
Created by potrace 1.16, written by Peter Selinger 2001-2019
</metadata>
<g transform="translate(0.000000,405.000000) scale(0.100000,-0.100000)"
fill="#000000" stroke="none">
<path d="M2757 3849 c-15 -4 -49 -10 -75 -14 -26 -3 -65 -11 -87 -17 -22 -6
-44 -12 -50 -13 -5 0 -23 -7 -38 -13 -16 -7 -32 -10 -37 -7 -5 3 -10 1 -12 -5
-1 -5 -16 -11 -33 -12 -16 -1 -35 -6 -42 -11 -7 -5 -16 -6 -21 -3 -20 12 -282
-94 -282 -114 0 -4 -12 -11 -27 -15 -16 -3 -68 -26 -118 -50 -138 -66 -206
-95 -224 -95 -10 0 -56 -25 -104 -55 -47 -30 -89 -55 -92 -55 -3 0 -37 -24
-74 -52 -38 -29 -95 -66 -125 -82 -70 -37 -225 -168 -290 -246 -12 -14 -54
-59 -95 -100 -41 -41 -85 -93 -99 -115 -14 -22 -29 -43 -34 -46 -5 -3 -10 -10
-11 -15 0 -5 -18 -34 -39 -64 -113 -162 -150 -221 -181 -280 -19 -36 -43 -81
-54 -100 -11 -19 -20 -42 -20 -50 0 -8 -12 -40 -27 -70 -17 -35 -30 -84 -36
-140 -6 -47 -17 -107 -26 -135 -33 -106 -24 -439 15 -512 5 -10 25 -52 45 -93
19 -41 43 -88 52 -105 9 -16 21 -37 26 -45 4 -8 12 -24 17 -36 5 -11 20 -33
33 -50 14 -16 33 -45 44 -64 10 -19 21 -37 24 -40 3 -3 25 -32 50 -65 50 -66
70 -90 70 -80 0 3 42 -37 94 -90 52 -52 98 -95 104 -95 6 0 30 -18 54 -40 23
-22 55 -45 71 -52 15 -7 27 -16 27 -20 0 -5 6 -8 14 -8 8 0 21 -8 28 -17 7
-10 29 -26 48 -37 120 -65 165 -86 181 -86 11 0 19 -4 19 -8 0 -4 17 -14 38
-21 20 -7 46 -16 57 -21 27 -11 118 -43 180 -64 28 -9 68 -19 90 -22 58 -7
271 22 334 46 30 12 60 19 67 16 8 -3 14 -2 14 3 0 4 17 16 38 25 21 10 51 28
67 42 15 13 31 24 35 24 8 0 249 240 322 321 81 92 128 150 128 160 0 5 14 21
31 36 28 25 44 53 130 225 15 31 33 59 38 62 6 4 18 32 28 64 10 31 25 65 34
75 9 10 27 46 39 80 12 34 28 69 34 77 21 26 80 154 78 168 -2 6 2 12 8 12 5
0 10 6 10 14 0 7 7 19 15 26 8 7 13 16 10 20 -3 4 2 13 10 20 8 7 15 18 15 24
0 6 9 28 20 49 11 20 21 46 23 56 2 10 10 29 18 42 15 22 33 64 89 199 51 124
81 196 90 215 5 11 14 40 20 65 6 25 20 66 30 91 10 25 21 57 24 72 2 15 8 32
11 37 4 6 15 48 25 93 10 45 23 100 30 122 6 22 13 58 16 80 3 22 9 54 13 70
9 28 13 77 13 135 0 14 -1 46 -1 73 0 26 0 53 1 60 3 56 -20 165 -47 217 -7
14 -16 40 -20 58 -3 17 -11 32 -17 32 -6 0 -9 3 -5 6 21 21 -131 212 -182 229
-12 4 -38 20 -57 37 -19 17 -48 31 -66 33 -18 2 -45 8 -59 13 -66 26 -412 41
-482 21z m246 -110 c-21 -10 -56 -30 -78 -43 -22 -14 -69 -41 -105 -61 -75
-40 -160 -114 -160 -138 0 -35 34 -38 95 -6 33 17 70 38 84 48 14 10 58 35 96
56 39 21 90 50 115 63 33 18 62 26 109 27 54 1 66 5 82 26 13 16 19 19 19 9 0
-8 -38 -48 -85 -88 -47 -41 -102 -95 -123 -120 -20 -26 -55 -66 -77 -90 -39
-43 -85 -111 -98 -144 -4 -11 1 -23 15 -32 18 -13 24 -13 49 0 16 8 29 19 29
24 0 6 6 10 14 10 7 0 21 15 29 33 25 50 177 216 260 283 23 19 78 46 84 41 2
-3 -16 -46 -41 -96 -25 -50 -46 -99 -46 -110 0 -11 -18 -70 -41 -133 -59 -165
-60 -166 -75 -172 -8 -3 -14 -14 -14 -24 0 -10 -5 -23 -12 -30 -26 -26 46 -61
84 -41 20 11 81 135 97 199 7 25 16 54 21 65 4 11 19 53 31 93 30 95 45 108
55 47 6 -41 3 -81 -12 -175 -16 -103 -27 -148 -45 -187 -11 -25 -18 -51 -15
-59 3 -7 1 -16 -4 -19 -20 -12 -10 -54 18 -73 56 -41 102 -3 102 84 0 24 4 45
9 48 9 6 23 61 27 101 3 37 15 150 18 170 2 11 4 32 5 48 0 15 6 27 11 27 6 0
10 -6 9 -12 -1 -7 3 -26 10 -43 28 -67 32 -307 7 -405 -9 -34 -16 -78 -16 -99
0 -32 -6 -56 -37 -151 -3 -11 -8 -9 -18 10 -11 20 -22 25 -57 27 -60 2 -87 8
-130 26 -20 8 -39 13 -41 10 -6 -5 -77 28 -132 62 -22 14 -47 27 -55 31 -36
14 -68 35 -104 68 -20 20 -42 36 -47 36 -6 0 -42 31 -80 70 -39 38 -76 73 -82
77 -14 9 -58 66 -102 133 -48 73 -55 84 -64 107 -6 11 -15 24 -20 28 -6 3 -11
14 -11 23 0 9 -7 29 -14 44 -13 25 -31 122 -38 207 -3 32 -1 34 42 48 68 21
181 42 197 36 7 -3 19 -1 26 5 15 12 71 18 185 19 l83 0 -38 -18z m-600 -174
c5 -63 31 -172 51 -215 13 -28 87 -152 96 -160 3 -3 18 -25 32 -50 25 -44 56
-85 79 -105 6 -5 36 -35 67 -66 32 -31 86 -80 122 -108 36 -28 73 -58 83 -66
9 -8 21 -15 26 -15 15 0 161 -102 161 -112 0 -5 4 -7 9 -4 8 5 132 -28 163
-44 31 -17 145 -39 166 -33 18 4 22 1 22 -19 0 -13 -4 -28 -9 -33 -5 -6 -24
-55 -42 -110 -17 -55 -36 -103 -41 -106 -6 -3 -9 -8 -7 -10 5 -8 -26 -88 -71
-184 -26 -55 -53 -118 -60 -140 -7 -22 -20 -56 -30 -75 -10 -19 -25 -51 -34
-70 -9 -19 -21 -42 -26 -50 -6 -8 -28 -54 -50 -102 -22 -49 -44 -88 -50 -88
-5 0 -9 -3 -8 -7 1 -5 -11 -35 -26 -68 -16 -33 -53 -111 -82 -173 -30 -62 -54
-117 -54 -122 0 -14 -40 -91 -65 -125 -12 -16 -27 -46 -34 -65 -6 -19 -26 -52
-44 -73 -17 -20 -42 -49 -53 -65 -19 -24 -27 -27 -73 -25 -29 1 -58 6 -65 12
-7 6 -15 8 -19 5 -14 -14 -170 45 -189 71 -4 5 -10 7 -13 3 -4 -4 -31 7 -60
23 -29 16 -60 29 -69 29 -9 0 -16 5 -16 10 0 6 -3 9 -7 8 -13 -2 -102 42 -160
79 -29 18 -61 37 -71 40 -9 4 -39 24 -65 45 -27 21 -52 38 -57 38 -4 0 -40 25
-79 55 -39 30 -75 55 -79 55 -4 0 -23 13 -42 30 -19 16 -39 29 -44 30 -5 0
-18 10 -30 23 -11 13 -48 46 -81 73 -33 27 -63 54 -68 61 -8 12 -44 49 -123
125 -54 51 -109 114 -174 198 -24 30 -64 78 -89 105 -68 75 -101 114 -101 120
0 6 -41 67 -51 75 -3 3 -18 46 -34 95 -15 50 -35 114 -45 144 l-19 54 30 36
c16 19 29 39 29 44 0 10 49 82 79 116 11 13 23 32 27 43 3 11 49 63 102 117
54 54 116 118 139 142 45 48 78 77 132 117 20 15 38 29 41 32 11 11 112 70
120 70 5 0 15 6 22 13 22 21 208 137 220 137 6 0 19 6 27 14 9 7 48 26 86 40
86 33 134 54 157 66 10 6 25 10 33 10 8 0 15 4 15 9 0 5 11 11 23 15 13 3 50
21 82 40 32 20 74 41 94 47 20 6 41 16 48 21 7 6 34 15 60 22 57 15 59 13 66
-69z m-1681 -1285 c9 -19 26 -66 38 -105 22 -69 68 -139 150 -228 19 -21 39
-46 44 -55 5 -10 20 -27 33 -39 12 -12 23 -26 23 -31 0 -6 7 -12 15 -16 8 -3
15 -11 15 -17 0 -14 19 -35 137 -152 50 -51 98 -98 105 -106 84 -89 179 -178
232 -216 16 -11 34 -26 41 -32 7 -7 53 -40 102 -73 48 -33 101 -71 117 -84 15
-14 49 -35 75 -47 25 -13 55 -32 67 -43 11 -12 27 -22 35 -24 7 -2 21 -10 29
-17 8 -8 47 -28 85 -45 72 -32 90 -41 160 -77 45 -24 94 -45 145 -63 92 -32
157 -50 179 -50 23 0 23 0 6 -28 -19 -29 -40 -52 -133 -147 -119 -121 -243
-215 -284 -215 -9 0 -20 -4 -23 -10 -3 -5 -23 -10 -43 -10 -20 0 -55 -5 -77
-10 -92 -22 -177 -22 -260 0 -116 30 -116 30 -50 50 58 17 192 72 265 108 19
9 70 41 114 69 44 29 85 53 91 53 7 0 29 13 50 30 20 16 45 32 55 35 10 3 17
13 15 23 -2 9 -4 20 -4 25 -1 4 -8 7 -16 7 -19 0 -191 -77 -225 -100 -49 -33
-286 -128 -393 -156 -55 -15 -75 -16 -109 -7 -41 11 -72 4 -90 -21 -7 -11 -60
8 -100 36 -14 10 -32 18 -40 18 -18 1 77 80 130 109 15 8 33 20 40 28 8 8 56
45 106 83 138 103 197 162 193 190 -5 34 -18 34 -63 0 -124 -95 -416 -280
-442 -280 -22 0 -72 -22 -72 -32 0 -5 -7 -8 -15 -8 -18 0 -125 104 -125 122 0
6 3 9 6 6 6 -7 54 39 54 51 0 4 9 16 20 26 11 10 20 24 20 32 0 7 5 13 10 13
6 0 10 9 10 20 0 11 4 20 8 20 9 0 93 102 155 187 45 62 50 103 12 103 -14 0
-25 -3 -25 -8 0 -4 -42 -50 -92 -102 -51 -52 -106 -110 -121 -129 -16 -20 -51
-60 -78 -89 -27 -29 -49 -60 -49 -68 0 -12 -11 -7 -40 16 -39 31 -39 31 -19
51 16 16 19 32 18 82 -1 34 0 73 3 87 8 40 39 143 49 162 5 10 9 24 9 31 0 7
18 60 41 118 23 57 42 109 43 114 2 6 6 17 9 25 14 38 17 88 5 92 -29 10 -45
-7 -82 -85 -125 -265 -171 -391 -182 -497 -4 -30 -8 -57 -10 -59 -7 -7 -32 29
-64 91 -17 32 -35 58 -42 58 -6 0 -3 9 8 21 22 24 23 39 8 94 -5 22 -10 45 -9
50 1 6 5 53 9 105 9 127 16 208 21 250 2 19 9 73 14 120 18 149 17 201 -4 216
-23 17 -35 10 -35 -21 0 -14 -7 -42 -14 -62 -15 -39 -64 -316 -73 -412 -2 -29
-8 -63 -13 -75 -4 -11 -7 -45 -6 -74 0 -28 -2 -52 -5 -52 -11 0 -78 146 -100
216 -30 96 -29 297 2 434 11 52 25 117 30 144 7 43 21 84 62 186 18 45 50 105
66 123 15 18 16 18 21 0 3 -10 13 -34 22 -53z"/>
<path d="M1372 3078 c-19 -24 -70 -133 -83 -178 -7 -25 -18 -52 -25 -60 -15
-18 -20 -68 -10 -92 10 -23 38 -31 67 -19 21 7 27 23 47 112 25 109 35 142 59
197 8 18 11 37 8 42 -9 14 -51 12 -63 -2z"/>
<path d="M1695 2830 c-11 -5 -39 -9 -62 -9 -24 -1 -43 -4 -43 -9 0 -8 -71 -32
-95 -32 -8 0 -15 -4 -15 -9 0 -5 -9 -12 -19 -16 -27 -8 -31 -54 -7 -82 21 -24
56 -25 83 0 20 17 125 66 186 86 34 12 37 16 35 47 -2 36 -19 43 -63 24z"/>
<path d="M993 2692 c-41 -2 -56 -8 -68 -25 -40 -57 -3 -81 116 -73 115 7 125
11 119 56 -2 21 -29 40 -46 33 -7 -3 -26 -1 -41 3 -16 5 -52 8 -80 6z"/>
<path d="M1371 2578 c-8 -22 2 -97 18 -133 46 -106 52 -115 82 -115 27 0 29 3
29 38 -1 58 -38 213 -54 224 -24 16 -67 8 -75 -14z"/>
<path d="M2032 2538 c-6 -6 -12 -8 -12 -4 0 11 -66 -69 -110 -134 -21 -31 -45
-62 -54 -69 -27 -22 -20 -64 14 -83 28 -16 31 -16 49 0 11 9 36 48 57 86 20
39 52 92 71 119 35 50 40 89 13 95 -9 1 -21 -3 -28 -10z"/>
<path d="M1212 2510 c-12 -12 -22 -31 -22 -43 0 -25 -31 -113 -62 -176 -22
-42 -22 -43 -3 -57 26 -20 33 -18 49 14 8 16 22 34 30 41 9 7 18 29 22 48 4
19 13 37 20 40 8 3 14 14 14 24 0 10 4 19 8 19 14 0 28 43 24 73 -2 20 -8 27
-17 23 -8 -3 -17 -1 -20 4 -9 15 -19 12 -43 -10z"/>
<path d="M1623 2497 c-23 -23 -23 -21 6 -129 11 -42 57 -132 74 -146 10 -9 18
-8 31 1 16 12 16 18 -2 107 -11 53 -15 99 -11 105 16 17 9 40 -17 60 -35 26
-55 27 -81 2z"/>
<path d="M2557 2153 c-13 -13 -64 -128 -70 -158 -4 -16 -9 -55 -12 -85 -3 -30
-8 -67 -11 -82 -11 -55 35 -92 79 -64 21 14 23 24 25 94 2 107 19 220 37 245
13 19 13 23 -2 39 -17 19 -35 23 -46 11z"/>
<path d="M2012 2138 c-91 -7 -112 -18 -112 -54 0 -44 35 -56 126 -43 43 7 92
12 107 13 28 1 45 30 34 59 -9 23 -69 33 -155 25z"/>
<path d="M1625 2112 c-6 -5 -26 -15 -45 -22 -53 -20 -99 -58 -131 -108 -16
-25 -29 -49 -29 -52 0 -4 11 -12 25 -18 23 -11 27 -9 37 12 6 15 34 36 72 54
73 35 127 57 141 57 6 0 11 16 13 36 3 31 -1 37 -20 43 -32 8 -52 7 -63 -2z"/>
<path d="M1774 1999 c-14 -16 -15 -25 -7 -52 6 -19 9 -47 7 -63 -1 -16 -5 -54
-8 -85 -3 -30 -10 -67 -15 -82 -10 -25 -8 -29 15 -39 21 -10 28 -9 44 8 10 10
21 35 24 54 2 19 12 60 20 90 21 72 21 154 1 170 -25 20 -62 20 -81 -1z"/>
<path d="M2157 1938 c-10 -5 -17 -20 -17 -33 0 -24 39 -75 57 -75 6 0 31 -16
57 -36 76 -58 108 -30 64 56 -31 61 -122 110 -161 88z"/>
<path d="M2303 1642 c-77 -51 -200 -215 -188 -251 9 -31 39 -26 67 12 43 55
116 120 171 153 62 36 83 77 52 100 -28 21 -55 17 -102 -14z"/>
<path d="M2820 1642 c-53 -23 -57 -24 -104 -8 -32 10 -54 12 -61 6 -7 -6 -14
-7 -18 -4 -11 11 -29 -38 -22 -63 7 -31 58 -53 123 -53 36 0 59 7 93 29 65 42
91 68 87 87 -6 30 -40 32 -98 6z"/>
<path d="M2463 1511 c-22 -23 -57 -185 -54 -250 2 -53 16 -73 49 -69 24 3 27
10 53 143 16 77 28 143 29 146 0 9 -40 49 -50 49 -5 0 -17 -9 -27 -19z"/>
</g>
</svg>
