<?xml version="1.0" standalone="no"?>
<!DOCTYPE svg PUBLIC "-//W3C//DTD SVG 20010904//EN"
 "http://www.w3.org/TR/2001/REC-SVG-20010904/DTD/svg10.dtd">
<svg version="1.0" xmlns="http://www.w3.org/2000/svg"
 width="289.000000pt" height="449.000000pt" viewBox="0 0 289.000000 449.000000"
 preserveAspectRatio="xMidYMid meet">
<metadata>
Created by potrace 1.16, written by Peter Selinger 2001-2019
</metadata>
<g transform="translate(0.000000,449.000000) scale(0.100000,-0.100000)"
fill="#000000" stroke="none">
<path d="M1590 4229 c-68 -11 -138 -33 -152 -47 -7 -7 -22 -12 -35 -12 -13 0
-23 -4 -23 -9 0 -5 -12 -12 -26 -15 -58 -15 -166 -120 -205 -200 -37 -77 -71
-256 -56 -296 3 -8 8 -31 12 -50 12 -72 18 -90 26 -90 5 0 9 -7 9 -15 0 -8 12
-29 28 -47 41 -48 145 -148 153 -148 4 0 15 -7 23 -16 28 -28 145 -54 246 -56
79 -1 110 3 182 26 48 15 94 36 104 47 9 10 23 19 29 19 19 0 101 77 126 118
13 20 29 43 36 50 7 7 17 32 23 55 6 23 14 49 17 57 17 43 21 225 7 296 -14
66 -42 134 -56 134 -4 0 -8 5 -8 11 0 21 -114 119 -139 119 -5 0 -14 6 -20 14
-6 7 -29 16 -51 20 -22 3 -40 10 -40 15 0 5 -18 7 -40 4 -24 -4 -40 -2 -40 5
0 5 -10 9 -22 9 -13 -1 -32 2 -43 5 -11 3 -40 2 -65 -3z m67 -127 c34 -13 58
-17 82 -11 19 4 41 3 50 -1 9 -5 30 -13 47 -20 16 -6 48 -26 70 -45 21 -19 43
-35 47 -35 5 0 6 -4 2 -9 -3 -6 3 -18 14 -28 21 -20 51 -120 46 -156 -1 -12
-8 -68 -15 -124 -7 -57 -17 -103 -22 -103 -4 0 -8 -7 -8 -16 0 -13 -80 -99
-121 -129 -24 -18 -92 -51 -129 -63 -43 -14 -161 -19 -214 -8 -110 22 -237
131 -274 238 -33 94 -35 115 -16 198 39 162 114 236 319 310 64 24 65 24 122
2z"/>
<path d="M1551 3949 c-16 -15 -21 -28 -16 -43 20 -62 19 -67 -8 -64 -15 2 -29
7 -33 11 -11 11 -44 -13 -54 -39 -10 -26 5 -73 24 -75 6 -1 22 -3 36 -6 14 -2
33 -5 43 -6 14 -1 17 -12 18 -57 1 -30 2 -76 3 -101 1 -52 15 -75 51 -81 45
-9 60 22 59 124 l-2 90 29 -6 c21 -4 31 -1 35 9 3 8 14 17 24 20 23 7 33 58
18 90 -11 25 -48 42 -67 31 -5 -3 -12 0 -14 6 -4 10 -6 10 -6 1 -1 -7 -7 -13
-14 -13 -9 0 -19 22 -26 56 -10 44 -18 57 -37 65 -34 12 -37 12 -63 -12z"/>
<path d="M2523 3149 c-5 -5 -49 -16 -98 -25 -50 -9 -97 -19 -105 -22 -62 -22
-149 -31 -290 -31 -80 0 -172 -2 -205 -4 -33 -3 -132 -9 -220 -12 -171 -8
-167 -8 -235 -7 -25 1 -63 1 -85 0 -22 0 -80 2 -130 6 -49 4 -94 6 -100 6 -5
-1 -95 -3 -200 -5 -282 -6 -281 -6 -271 -66 3 -21 2 -40 -4 -44 -17 -11 -29
-75 -19 -103 5 -14 12 -42 14 -61 6 -49 33 -172 44 -196 43 -98 91 -190 123
-239 21 -32 40 -72 42 -88 3 -27 47 -77 69 -78 4 0 7 -9 7 -20 0 -11 3 -20 8
-20 4 0 41 -34 82 -75 41 -41 79 -74 84 -75 4 0 31 -15 58 -32 28 -18 53 -33
57 -33 3 -1 31 -13 61 -27 149 -70 191 -88 205 -88 14 0 36 -39 34 -58 -1 -4
0 -9 1 -12 4 -11 11 -69 16 -131 l5 -65 -43 -38 c-24 -20 -47 -40 -53 -44 -5
-4 -29 -20 -52 -35 -43 -30 -56 -54 -53 -101 4 -58 31 -88 106 -115 78 -29 96
-39 90 -50 -7 -10 -19 -186 -18 -246 1 -52 -22 -173 -38 -203 -5 -9 -20 -43
-34 -75 -14 -32 -38 -75 -53 -95 -16 -21 -33 -46 -38 -56 -6 -10 -15 -18 -19
-17 -5 1 -15 -11 -22 -27 -16 -39 -89 -116 -102 -108 -15 9 -49 -24 -65 -65
-15 -36 -14 -38 13 -65 45 -47 51 -49 130 -50 118 -1 404 -15 412 -20 3 -2 9
-1 11 3 3 5 59 8 124 7 65 0 143 3 173 8 30 4 75 11 100 14 25 4 54 10 65 14
11 4 46 7 78 6 32 -1 61 2 64 7 2 4 13 5 23 2 23 -7 70 14 70 32 0 7 5 13 10
13 31 0 -11 78 -64 118 -29 21 -53 52 -70 87 -14 30 -29 55 -34 55 -4 0 -19
21 -32 48 -14 26 -35 61 -47 78 -13 17 -23 36 -23 43 0 7 -11 27 -24 44 -26
36 -80 180 -74 199 2 6 -3 19 -13 29 -9 9 -21 43 -28 75 -6 33 -17 82 -25 109
-11 40 -11 52 -2 60 43 34 88 70 95 75 25 18 57 133 43 155 -4 6 -12 26 -17
45 -9 28 -20 40 -58 57 -26 13 -48 27 -48 33 -2 16 -5 22 -23 63 -9 21 -19 63
-22 94 -3 31 -6 61 -7 67 -1 5 22 18 52 28 29 9 59 22 67 29 7 6 17 8 22 5 6
-3 15 1 22 9 7 8 25 15 40 15 15 0 47 13 71 30 24 16 52 30 61 30 9 0 20 9 23
20 3 11 10 20 15 20 10 0 103 96 109 112 2 6 12 20 23 32 10 11 25 28 32 36 7
8 21 31 31 50 10 19 21 37 25 40 4 3 20 41 35 85 15 44 33 91 40 105 7 14 15
54 18 90 3 36 10 77 15 91 11 28 27 202 27 284 -1 87 -15 213 -26 239 -12 26
-42 39 -56 25z m-41 -187 c5 -43 2 -191 -6 -278 -11 -116 -50 -291 -81 -358
-14 -30 -25 -57 -25 -60 0 -2 -12 -18 -27 -35 -48 -52 -83 -98 -83 -110 0 -6
-7 -11 -17 -11 -9 0 -13 -3 -10 -6 3 -4 -13 -20 -36 -37 -50 -37 -67 -53 -67
-64 0 -10 -115 -53 -141 -53 -9 0 -20 -7 -23 -16 -3 -8 -10 -12 -16 -9 -5 3
-24 -1 -42 -9 -47 -21 -128 -36 -128 -24 0 7 -5 6 -13 -1 -22 -17 -257 -18
-257 0 0 5 -5 9 -12 9 -11 0 -76 29 -173 76 -28 13 -55 24 -61 24 -7 0 -17 6
-23 14 -6 7 -24 16 -40 19 -16 3 -35 12 -43 20 -8 8 -27 21 -43 30 -38 19
-225 204 -225 222 0 15 -50 114 -61 120 -13 8 -59 108 -59 129 0 8 -7 22 -16
30 -8 9 -12 16 -7 16 4 0 2 4 -5 8 -21 14 -58 228 -53 308 l1 21 368 -5 c455
-6 431 -6 527 1 256 20 484 27 542 18 24 -4 68 0 118 12 44 11 91 21 105 23
64 9 94 14 98 18 12 13 31 -10 34 -42z m-791 -1202 c61 12 75 12 66 3 -4 -3
-2 -12 5 -20 6 -8 12 -37 14 -66 2 -56 6 -76 16 -93 4 -6 9 -23 12 -38 6 -31
67 -116 79 -109 4 2 7 0 7 -6 0 -6 11 -13 24 -17 14 -3 27 -12 30 -21 8 -21
-38 -98 -58 -97 -9 1 -16 -2 -16 -8 0 -5 -4 -6 -10 -3 -5 3 -10 1 -10 -4 0 -6
-6 -11 -14 -11 -30 0 -44 -28 -41 -82 2 -43 24 -163 39 -213 1 -5 8 -30 15
-55 7 -25 15 -52 18 -60 4 -8 7 -17 8 -20 22 -71 176 -368 213 -412 22 -26 62
-110 57 -118 -8 -14 -188 -43 -250 -41 -33 1 -64 2 -70 2 -5 0 -32 -3 -60 -6
-75 -10 -515 -7 -515 3 0 5 37 54 76 100 17 20 48 68 69 106 20 39 44 76 51
84 8 7 14 22 14 32 0 11 8 24 18 29 9 6 14 11 9 11 -4 0 2 19 14 43 12 23 26
58 30 77 4 19 10 46 13 59 3 13 8 80 11 150 6 131 9 155 27 233 11 45 10 47
-18 72 -17 15 -41 25 -60 26 -42 0 -124 29 -124 44 0 6 23 25 50 41 28 16 50
33 50 37 0 4 12 8 26 8 14 0 23 4 19 9 -3 5 -1 12 5 16 6 3 18 23 28 43 14 29
18 58 17 127 -2 50 -6 104 -10 122 l-7 31 40 -9 c25 -5 60 -5 93 1z"/>
</g>
</svg>
