<?xml version="1.0" standalone="no"?>
<!DOCTYPE svg PUBLIC "-//W3C//DTD SVG 20010904//EN"
 "http://www.w3.org/TR/2001/REC-SVG-20010904/DTD/svg10.dtd">
<svg version="1.0" xmlns="http://www.w3.org/2000/svg"
 width="529.000000pt" height="501.000000pt" viewBox="0 0 529.000000 501.000000"
 preserveAspectRatio="xMidYMid meet">
<metadata>
Created by potrace 1.16, written by Peter Selinger 2001-2019
</metadata>
<g transform="translate(0.000000,501.000000) scale(0.100000,-0.100000)"
fill="#000000" stroke="none">
<path d="M121 4921 c-24 -33 -26 -52 -9 -69 6 -6 13 -22 16 -34 6 -37 4 -31
44 -128 8 -19 18 -47 21 -61 6 -24 4 -26 -18 -21 -21 4 -25 1 -25 -21 0 -14 9
-45 19 -70 13 -31 16 -48 9 -55 -10 -10 -8 -37 7 -122 4 -24 -4 -12 -27 40
-25 57 -39 76 -55 78 -16 2 -24 -3 -28 -20 -6 -28 -2 -52 11 -69 12 -16 148
-294 158 -321 3 -10 10 -18 16 -18 5 0 10 -6 10 -14 0 -8 11 -27 23 -43 13
-15 30 -43 38 -60 8 -18 19 -33 24 -33 6 0 21 -19 33 -42 25 -50 44 -81 53
-88 4 -3 8 -14 10 -25 3 -11 12 -21 22 -23 21 -4 76 -62 118 -124 15 -24 51
-67 79 -97 27 -30 50 -59 50 -66 0 -6 5 -16 11 -22 7 -7 13 -25 14 -40 1 -16
10 -56 20 -88 14 -49 28 -71 78 -121 55 -55 67 -62 111 -67 27 -2 52 -11 56
-18 10 -15 316 -19 418 -5 38 6 62 5 62 0 0 -6 29 -7 72 -3 57 5 75 11 90 29
10 12 18 28 18 35 0 30 -57 50 -88 31 -7 -4 -18 -3 -25 2 -7 5 -27 13 -46 17
-19 4 -49 15 -67 25 -17 10 -60 26 -95 36 -71 20 -150 57 -193 91 -15 12 -46
57 -68 100 -46 90 -66 112 -108 118 -20 2 -46 20 -78 53 -60 65 -66 72 -87
113 -10 19 -21 36 -24 39 -4 3 -23 27 -42 55 -18 27 -43 59 -54 71 -11 12 -38
52 -60 88 -22 37 -85 135 -140 219 -55 84 -105 167 -111 185 -7 17 -34 71 -60
119 -27 48 -68 144 -92 213 -50 148 -51 152 -59 213 -7 55 -22 60 -52 18z
m434 -1071 c-3 -5 -12 -10 -18 -10 -7 0 -6 4 3 10 19 12 23 12 15 0z m141 -92
c19 -18 34 -36 34 -40 0 -4 14 -27 30 -50 17 -24 42 -60 56 -81 l25 -39 -37
-36 -37 -36 -33 40 c-19 21 -49 55 -68 74 -19 19 -41 49 -50 65 -24 46 -52 75
-73 75 -20 1 -16 4 73 77 l39 33 3 -25 c2 -14 19 -39 38 -57z m229 -257 c-7
-13 22 -41 43 -41 24 0 52 -36 64 -79 13 -44 61 -107 102 -132 33 -20 23 -25
-18 -9 -34 13 -84 68 -91 103 -4 18 -13 27 -26 27 -10 0 -19 -3 -20 -7 0 -5
-2 -19 -4 -33 -5 -34 4 -60 20 -60 7 0 22 -16 34 -35 l20 -35 -28 14 c-38 20
-99 90 -106 121 -3 14 -7 36 -10 50 -6 29 -31 33 -39 7 -11 -34 2 -83 34 -130
55 -82 130 -120 235 -122 22 -1 54 -7 70 -14 27 -12 21 -13 -60 -8 -49 2 -105
11 -124 18 -18 8 -46 14 -62 14 -46 0 -129 84 -140 141 -20 104 -11 125 81
198 28 23 34 25 25 12z m413 -347 c35 -7 50 -22 29 -30 -14 -5 -147 59 -147
71 0 2 21 -5 46 -16 25 -11 58 -23 72 -25z"/>
<path d="M4482 3189 c-13 -5 -44 -9 -70 -9 -216 0 -271 -18 -434 -145 -100
-77 -147 -142 -172 -237 -8 -31 -20 -67 -26 -79 -9 -15 -10 -46 -6 -93 l6 -71
-62 -85 c-35 -47 -79 -117 -97 -155 -19 -39 -39 -76 -45 -83 -5 -7 -11 -39
-13 -70 -2 -31 -8 -73 -14 -93 -10 -40 -23 -163 -24 -224 0 -50 -14 -60 -90
-70 -103 -12 -379 -124 -450 -182 -211 -173 -357 -351 -391 -478 -32 -121 -55
-255 -45 -255 3 0 7 -27 9 -59 8 -194 145 -384 317 -441 39 -13 94 -31 123
-41 63 -23 164 -24 273 -5 71 13 151 44 163 65 4 5 20 13 37 16 21 5 66 42
140 115 60 59 109 112 109 118 0 6 4 12 8 14 17 7 111 155 139 218 24 54 69
210 78 270 16 99 38 181 49 177 6 -2 20 -1 31 3 11 4 26 3 33 -3 9 -7 11 -6 7
5 -4 10 13 20 67 37 67 21 178 84 178 101 0 3 11 13 25 20 13 7 22 17 19 21
-2 4 4 14 14 21 10 7 27 27 38 43 10 17 21 32 24 35 13 13 69 141 84 191 18
63 45 249 47 318 1 25 3 38 6 29 5 -20 23 -25 23 -7 0 7 11 9 30 6 17 -4 30
-2 30 3 0 11 41 30 75 35 21 3 30 5 117 41 32 13 64 24 72 24 8 0 19 6 23 13
4 7 20 20 35 30 38 24 99 84 139 137 18 25 36 47 39 50 15 14 42 64 56 106 12
36 14 66 9 133 -8 92 -35 160 -107 268 -39 59 -126 133 -160 137 -13 1 -32 7
-44 14 -11 6 -38 13 -60 16 -22 2 -57 11 -79 20 -22 8 -77 17 -121 20 -45 2
-91 9 -102 15 -24 13 -29 13 -60 0z m113 -94 c17 -2 53 -7 80 -10 57 -7 215
-50 260 -70 35 -16 105 -80 105 -96 0 -6 12 -25 26 -42 26 -31 76 -129 73
-144 -1 -4 1 -16 6 -26 11 -27 -1 -119 -20 -157 -10 -18 -28 -45 -41 -59 -13
-14 -24 -29 -24 -32 0 -3 -11 -18 -25 -33 -14 -15 -25 -25 -25 -22 0 3 -15
-10 -32 -28 -45 -45 -86 -71 -133 -86 -22 -7 -59 -21 -82 -31 -52 -24 -171
-52 -183 -44 -6 4 -10 34 -10 69 0 146 -64 391 -114 436 -90 81 -101 86 -230
97 -88 7 -183 -20 -233 -66 -10 -9 -35 -28 -55 -42 -21 -14 -47 -37 -58 -52
-32 -41 -44 -34 -36 21 15 114 70 216 152 282 129 103 196 129 349 136 60 3
112 8 115 11 3 3 28 2 55 -2 28 -3 64 -8 80 -10z m-297 -383 c54 -12 127 -79
146 -137 46 -135 57 -212 53 -379 -8 -283 -49 -467 -128 -561 -105 -125 -157
-164 -273 -202 -107 -36 -113 -34 -119 35 -6 63 -10 82 -18 97 -4 6 -12 28
-19 50 -15 46 -40 84 -56 85 -6 0 -17 6 -23 14 -7 8 -47 23 -89 32 -42 10 -80
22 -83 27 -4 5 -17 8 -30 7 -42 -4 -51 -1 -45 15 3 8 -2 19 -11 24 -14 7 -15
22 -10 93 14 196 58 339 139 449 18 24 42 58 53 75 26 42 157 184 168 184 5 0
32 18 60 40 27 22 62 43 76 46 14 3 40 9 56 14 31 8 96 4 153 -8z m-595 -1014
c17 -13 38 -29 45 -35 7 -7 20 -13 28 -13 8 0 31 -11 51 -25 30 -20 42 -39 65
-102 26 -70 29 -86 23 -153 -14 -166 -90 -470 -117 -470 -5 0 -8 -8 -9 -17 0
-10 -9 -31 -20 -48 -10 -16 -23 -40 -29 -52 -5 -13 -14 -23 -20 -23 -6 0 -9
-4 -5 -10 3 -5 -28 -44 -70 -87 -41 -43 -93 -97 -116 -120 -22 -24 -45 -43
-50 -43 -6 0 -35 -16 -65 -35 -69 -44 -178 -74 -267 -73 -71 1 -269 52 -306
80 -83 60 -114 90 -142 138 -19 30 -38 58 -44 62 -5 4 -7 8 -3 8 3 0 -2 23
-13 50 -28 73 -26 228 2 312 47 137 83 200 174 298 123 134 250 232 341 265
27 9 58 21 69 26 102 44 184 62 295 63 77 1 119 5 128 14 17 16 17 16 55 -10z"/>
<path d="M1949 2896 c-2 -2 -88 -7 -191 -10 -102 -4 -194 -8 -205 -10 -10 -2
-29 -7 -43 -10 -14 -3 -45 -8 -70 -10 -96 -10 -248 -72 -297 -121 -8 -8 -18
-15 -23 -15 -21 0 -168 -262 -175 -314 -2 -12 -8 -45 -14 -75 -6 -30 -9 -56
-6 -59 2 -3 0 -13 -5 -22 -5 -10 -12 -37 -15 -61 -3 -24 -9 -45 -14 -47 -5 -2
-22 -15 -38 -30 -15 -15 -40 -36 -54 -47 -31 -23 -109 -166 -109 -198 0 -13
-4 -27 -8 -32 -13 -15 -32 -89 -37 -142 -12 -117 -23 -278 -20 -283 2 -3 6
-32 9 -66 3 -33 10 -81 15 -105 13 -68 62 -243 71 -254 8 -10 25 -87 21 -93
-1 -2 4 -9 12 -15 8 -7 25 -32 38 -57 13 -25 26 -47 29 -50 3 -3 27 -34 54
-70 42 -56 122 -130 142 -130 3 0 18 -8 32 -19 87 -60 287 -85 408 -51 35 10
64 17 64 14 0 -2 18 7 40 21 22 14 44 25 49 25 25 0 104 67 157 133 33 39 105
193 113 239 5 29 13 64 17 78 12 38 7 107 -12 190 -9 41 -17 87 -18 103 -1 15
-4 27 -8 27 -5 0 -8 9 -8 19 0 11 -4 23 -10 26 -5 3 -10 13 -10 21 0 29 -72
195 -109 251 -32 48 -49 94 -57 158 0 6 -6 23 -12 38 -7 16 -12 39 -12 52 0
13 -4 35 -9 48 -29 77 -33 438 -6 604 10 62 27 137 34 148 3 6 6 13 6 16 0 3
9 24 20 46 18 38 23 41 70 47 82 10 220 7 377 -9 173 -16 218 -24 218 -36 0
-5 -4 -9 -8 -9 -5 0 -17 -26 -27 -57 -10 -32 -23 -71 -29 -88 -6 -16 -10 -33
-8 -37 1 -5 -2 -8 -7 -8 -12 0 -25 -120 -25 -245 0 -120 6 -186 22 -255 6 -25
21 -88 33 -140 21 -89 36 -134 58 -170 17 -27 51 -106 51 -117 0 -6 7 -13 15
-17 30 -11 13 -24 -62 -45 -43 -12 -100 -29 -126 -37 -66 -20 -242 -42 -317
-40 -66 3 -90 -9 -90 -44 0 -37 27 -50 88 -45 139 14 231 28 282 42 71 21 76
22 133 30 26 3 47 9 47 13 0 4 19 15 43 25 141 60 180 78 187 86 3 3 12 10 22
15 9 5 43 32 75 61 182 161 265 257 284 327 6 21 18 50 26 63 26 40 64 213 57
263 -10 73 -59 156 -147 248 -89 92 -170 152 -232 172 -22 7 -72 28 -112 46
-40 19 -82 34 -95 34 -13 0 -54 7 -93 16 -99 22 -165 30 -296 39 -41 3 -90 7
-110 10 -20 3 -38 3 -40 1z m-333 -113 c-30 -96 -59 -234 -63 -303 -14 -195
-7 -510 13 -541 9 -15 13 -89 5 -89 -3 0 -28 23 -56 51 -40 40 -50 59 -52 87
-1 21 -9 75 -18 122 -24 128 -22 334 5 440 22 90 34 125 56 177 8 17 14 38 14
46 0 11 13 17 43 20 23 2 46 4 50 5 5 1 6 -6 3 -15z m-177 -40 c-26 -68 -66
-246 -69 -309 -6 -97 -3 -215 7 -311 10 -93 7 -96 -49 -58 -20 14 -39 25 -42
25 -2 0 -31 15 -63 33 -75 43 -142 60 -201 51 l-45 -7 6 39 c3 22 11 71 17
109 11 74 13 81 50 160 65 136 126 205 230 257 38 19 151 48 162 41 4 -2 3
-16 -3 -30z m1017 -7 c3 -8 -4 -50 -16 -93 -12 -43 -24 -87 -26 -98 -17 -88
-20 -114 -18 -145 2 -19 4 -77 5 -129 1 -52 8 -122 16 -155 8 -34 18 -81 23
-106 17 -91 35 -144 76 -223 8 -16 14 -34 14 -40 0 -23 49 -67 67 -60 35 14 2
-14 -39 -32 -24 -11 -46 -24 -49 -29 -12 -16 -30 5 -23 26 3 11 2 23 -3 27
-15 10 -86 141 -76 141 4 0 3 4 -3 8 -37 26 -94 299 -98 475 -3 105 29 275 57
303 4 4 7 18 7 31 0 24 21 63 50 95 19 21 29 22 36 4z m169 -53 c89 -33 140
-68 230 -157 124 -122 158 -207 130 -327 -13 -59 -44 -144 -77 -216 -6 -12
-28 -40 -49 -63 -22 -23 -39 -45 -39 -50 0 -4 -10 -15 -22 -23 -13 -8 -41 -32
-63 -52 -107 -100 -120 -108 -111 -71 5 19 1 32 -15 49 -32 33 -97 176 -102
223 -2 23 -7 46 -11 53 -26 41 -51 301 -36 379 5 32 13 77 16 102 3 25 10 53
15 62 5 9 9 23 9 31 0 26 30 87 42 87 7 0 44 -12 83 -27z m-1531 -592 c3 -5
16 -8 29 -8 36 0 200 -97 262 -154 30 -29 65 -59 75 -66 11 -8 20 -18 20 -23
0 -5 27 -36 60 -69 33 -33 60 -64 60 -69 0 -5 9 -17 20 -27 11 -10 22 -26 26
-37 3 -11 18 -39 34 -61 67 -102 148 -417 136 -533 -5 -49 -10 -66 -42 -141
-8 -17 -14 -34 -14 -38 0 -14 -71 -113 -111 -154 -74 -76 -213 -131 -341 -135
-21 -1 -38 1 -38 4 0 3 -15 4 -33 2 -62 -7 -239 77 -292 139 -63 75 -138 204
-150 259 -4 19 -18 62 -30 95 -50 131 -78 402 -54 535 7 41 12 79 10 84 -4 15
40 148 69 211 37 79 111 148 177 164 26 7 59 16 73 20 34 12 48 12 54 2z"/>
<path d="M2637 2503 c-14 -13 -7 -73 8 -74 22 -2 25 -3 87 -26 31 -12 79 -25
107 -29 47 -6 51 -5 51 15 0 14 -6 21 -19 21 -11 0 -39 13 -63 29 -93 62 -152
84 -171 64z"/>
<path d="M2705 2317 c-27 -7 -56 -16 -62 -20 -21 -13 -16 -55 7 -62 19 -6 112
18 135 35 6 4 23 10 38 14 20 5 27 12 25 24 -4 21 -70 25 -143 9z"/>
<path d="M2784 2140 c-32 -17 -67 -37 -77 -44 -23 -18 -19 -54 8 -72 18 -12
24 -10 55 20 65 61 101 106 95 116 -9 15 -16 13 -81 -20z"/>
<path d="M1968 2493 c-74 -139 -94 -215 -63 -227 30 -11 42 7 74 109 17 58 32
107 31 110 0 3 6 18 15 35 19 36 19 60 2 60 -8 0 -34 -39 -59 -87z"/>
<path d="M1730 2500 c-6 -11 -9 -24 -6 -29 5 -7 12 -47 31 -176 6 -41 20 -57
45 -52 25 4 14 96 -26 216 -19 60 -29 69 -44 41z"/>
<path d="M2157 2487 c-10 -12 -36 -59 -58 -104 -22 -44 -46 -84 -54 -87 -8 -3
-15 -14 -15 -25 0 -27 28 -42 55 -29 24 11 55 66 55 97 0 10 14 48 30 84 17
37 30 71 30 77 0 18 -24 11 -43 -13z"/>
<path d="M1882 2148 c-18 -18 -14 -46 7 -58 43 -22 62 -5 53 48 -5 24 -39 31
-60 10z"/>
<path d="M2020 2045 c-11 -13 -8 -23 19 -66 17 -28 31 -54 31 -58 0 -16 57
-61 80 -63 19 -2 26 2 28 20 2 14 -2 22 -11 22 -8 0 -32 35 -53 78 -41 80 -67
99 -94 67z"/>
<path d="M1795 2018 c-39 -65 -73 -162 -64 -180 16 -29 27 -21 59 42 17 33 34
60 39 60 5 0 14 13 21 29 29 70 -17 111 -55 49z"/>
<path d="M1922 1943 c-26 -54 45 -279 86 -271 20 4 20 15 -8 93 -12 33 -22 85
-23 115 -1 30 -6 61 -10 68 -12 17 -35 15 -45 -5z"/>
</g>
</svg>
