<?xml version="1.0" standalone="no"?>
<!DOCTYPE svg PUBLIC "-//W3C//DTD SVG 20010904//EN"
 "http://www.w3.org/TR/2001/REC-SVG-20010904/DTD/svg10.dtd">
<svg version="1.0" xmlns="http://www.w3.org/2000/svg"
 width="477.000000pt" height="415.000000pt" viewBox="0 0 477.000000 415.000000"
 preserveAspectRatio="xMidYMid meet">
<metadata>
Created by potrace 1.16, written by Peter Selinger 2001-2019
</metadata>
<g transform="translate(0.000000,415.000000) scale(0.100000,-0.100000)"
fill="#000000" stroke="none">
<path d="M2635 4130 c-68 -23 -313 -37 -345 -20 -12 6 -20 6 -22 0 -2 -5 -19
-11 -38 -13 -19 -2 -45 -9 -57 -15 -12 -7 -38 -12 -59 -12 -23 0 -54 -11 -86
-30 -26 -16 -57 -30 -67 -30 -11 0 -32 -11 -48 -24 -15 -13 -46 -30 -68 -37
-46 -16 -160 -105 -168 -131 -3 -10 -12 -18 -20 -18 -8 0 -20 -13 -27 -29 -6
-16 -30 -47 -53 -69 -23 -22 -49 -49 -57 -61 -8 -11 -20 -21 -27 -21 -7 0 -13
-8 -13 -18 0 -11 -8 -26 -19 -36 -10 -9 -18 -27 -17 -39 1 -12 -2 -35 -6 -52
-4 -16 -9 -49 -10 -73 -1 -23 -7 -47 -15 -53 -7 -6 -13 -18 -13 -25 0 -8 -5
-14 -10 -14 -16 0 -50 -62 -50 -93 0 -15 13 -56 29 -90 35 -77 43 -108 31
-127 -5 -8 -10 -11 -10 -5 0 5 -7 -1 -17 -14 -22 -32 -31 -164 -13 -186 7 -9
12 -33 12 -53 -1 -20 5 -54 13 -74 41 -103 51 -124 68 -140 9 -10 17 -24 17
-32 0 -15 21 -26 49 -26 15 0 19 -12 24 -71 3 -39 10 -76 15 -82 5 -7 12 -25
16 -42 11 -46 129 -255 144 -255 7 0 11 -3 9 -7 -3 -5 12 -26 34 -48 21 -22
39 -46 39 -54 0 -7 8 -28 19 -45 10 -17 22 -42 26 -56 4 -14 14 -29 21 -35 11
-8 1 -23 -44 -70 -31 -33 -56 -63 -54 -67 1 -5 -5 -8 -14 -8 -8 0 -13 -4 -10
-8 3 -5 -2 -21 -10 -36 -7 -16 -14 -36 -14 -46 0 -10 -7 -23 -15 -30 -9 -7
-15 -29 -15 -51 0 -21 -4 -40 -8 -43 -5 -3 -10 -27 -11 -53 -1 -26 -6 -52 -11
-57 -6 -6 -10 -25 -10 -43 0 -18 -3 -32 -7 -31 -8 2 -99 -25 -218 -63 -181
-58 -253 -83 -287 -100 -20 -10 -45 -20 -55 -22 -30 -5 -171 -99 -245 -162
-38 -33 -81 -69 -97 -80 -15 -11 -40 -36 -57 -57 -16 -20 -35 -37 -41 -38 -7
0 -13 -3 -13 -7 0 -5 -33 -43 -73 -86 -85 -92 -87 -95 -108 -133 -8 -16 -20
-38 -27 -49 -23 -42 -132 -287 -138 -311 -13 -50 40 -71 84 -34 18 15 22 26
18 48 -5 21 7 58 49 151 54 117 114 227 115 206 0 -5 7 1 16 14 72 103 294
314 409 390 39 25 72 49 75 53 3 4 15 9 25 11 11 2 47 16 79 31 32 15 73 30
90 33 17 3 36 9 41 13 6 4 35 15 65 25 30 10 71 23 90 31 46 17 72 24 106 28
16 3 41 9 56 15 42 16 118 -5 118 -33 0 -3 8 -14 18 -25 26 -28 52 -64 52 -72
0 -4 26 -20 59 -37 85 -43 200 -75 326 -88 28 -3 55 -9 60 -13 10 -7 241 -5
280 3 11 2 26 -1 33 -7 8 -6 12 -6 12 1 0 6 17 14 38 18 63 11 143 35 176 54
17 10 54 25 82 34 28 9 66 28 84 41 19 14 41 25 50 25 9 0 20 4 25 9 12 11
183 77 248 96 26 7 54 18 61 24 14 12 126 -7 182 -30 85 -36 233 -110 258
-131 79 -62 145 -139 183 -214 22 -43 47 -92 56 -109 41 -80 67 -138 67 -152
0 -9 9 -30 19 -47 10 -17 27 -60 37 -96 9 -36 21 -70 27 -77 9 -13 22 -57 38
-133 13 -65 13 -65 31 -91 l16 -24 27 25 c22 21 26 31 21 60 -8 50 -32 133
-51 177 -38 86 -43 100 -50 133 -4 19 -11 40 -15 45 -4 6 -13 28 -20 50 -7 22
-23 60 -35 85 -13 25 -42 83 -65 130 -24 46 -50 96 -59 111 -9 15 -29 49 -45
76 -32 53 -102 123 -122 123 -8 0 -21 11 -30 25 -9 14 -21 25 -28 25 -6 0 -27
10 -46 22 -19 12 -38 22 -41 23 -3 0 -30 11 -60 24 -108 47 -120 51 -148 51
-15 0 -31 3 -35 7 -3 4 -14 8 -24 10 -25 5 -66 12 -75 12 -5 1 -8 38 -7 84 4
191 -2 242 -26 235 -9 -2 -25 10 -112 87 -24 22 -46 39 -48 38 -20 -14 -35 32
-17 51 4 3 8 17 10 29 6 44 27 113 46 152 11 22 19 55 18 73 -1 17 3 32 9 32
5 0 10 6 10 13 0 7 8 22 18 33 10 11 21 28 24 39 4 11 18 52 33 90 44 116 54
148 58 186 2 20 14 47 25 60 12 12 24 31 28 41 3 10 10 18 15 18 6 0 7 5 4 11
-4 6 2 20 12 32 39 45 95 186 103 260 5 39 6 76 3 81 -4 5 -11 57 -17 115 -8
82 -14 106 -26 107 -8 1 -21 2 -28 3 -8 1 -10 6 -6 13 4 7 9 48 11 93 4 101 4
94 0 133 -2 18 -1 50 3 71 5 29 3 43 -12 61 -10 12 -18 37 -18 55 0 40 -59
173 -80 180 -8 3 -28 28 -44 57 -55 102 -136 171 -226 194 -60 15 -118 42
-150 68 -8 7 -23 16 -33 19 -10 4 -16 10 -14 14 3 5 -8 9 -25 9 -17 1 -33 6
-37 12 -3 6 -38 13 -76 16 -55 5 -83 2 -130 -14z m168 -85 c12 -8 29 -15 39
-15 10 0 18 -4 18 -9 0 -15 121 -73 191 -91 53 -14 77 -27 114 -61 26 -24 53
-48 61 -52 8 -4 14 -14 14 -20 0 -7 22 -37 50 -67 27 -30 53 -63 56 -75 4 -11
13 -29 20 -40 8 -11 14 -35 14 -55 0 -19 7 -48 15 -63 9 -18 13 -49 11 -88 -1
-33 1 -62 6 -65 4 -3 6 -15 3 -27 -3 -12 -7 -53 -9 -92 -4 -71 -9 -91 -29
-132 -15 -32 -24 -29 -32 10 -3 17 -10 41 -15 52 -5 11 -11 37 -15 58 -4 26
-11 37 -24 37 -9 0 -26 8 -37 18 -10 9 -30 19 -44 21 -14 1 -27 7 -30 11 -3 4
-21 10 -40 11 -19 2 -40 8 -46 14 -20 19 -43 79 -46 120 l-3 40 -69 22 c-38
13 -74 27 -81 33 -7 6 -15 33 -18 61 -4 29 -13 59 -22 69 -8 9 -15 22 -15 28
0 7 -9 12 -20 12 -13 0 -33 -18 -55 -49 -19 -27 -48 -54 -63 -60 -38 -15 -85
-18 -89 -4 -2 6 -13 8 -25 6 -11 -3 -23 -1 -27 4 -3 6 -16 13 -28 17 -17 5
-36 -5 -90 -52 -61 -52 -75 -59 -138 -71 -38 -7 -89 -23 -112 -37 -23 -13 -51
-24 -63 -24 -12 0 -34 -13 -48 -30 -15 -16 -30 -30 -35 -30 -5 0 -16 -7 -25
-16 -9 -9 -18 -12 -19 -7 -8 22 -83 -9 -110 -44 -16 -21 -52 -47 -88 -64 -71
-33 -81 -35 -89 -14 -8 21 -63 19 -85 -2 -20 -20 -53 -88 -58 -118 -7 -50 -47
-204 -52 -200 -2 3 -4 21 -3 41 1 20 -1 34 -5 31 -11 -12 -44 43 -48 80 -4 51
-16 93 -24 93 -4 0 -15 15 -23 34 -18 36 -13 49 35 101 29 31 46 70 38 84 -11
18 13 145 34 178 19 29 129 148 228 245 36 36 73 62 97 69 22 7 40 15 40 19 0
4 15 14 33 22 17 9 61 29 97 46 85 40 260 69 380 63 123 -6 158 -2 215 23 49
22 70 25 114 21 29 -3 63 -12 74 -20z m18 -488 c1 -12 2 -31 3 -42 1 -24 68
-69 121 -82 37 -8 40 -12 41 -42 1 -42 42 -119 68 -127 11 -4 28 -14 38 -24
11 -10 37 -21 59 -24 22 -3 42 -13 45 -21 4 -8 12 -15 20 -15 23 0 50 -66 60
-145 2 -22 10 -67 16 -100 14 -71 17 -421 4 -450 -5 -11 -11 -31 -13 -45 -2
-13 -9 -30 -15 -37 -6 -7 -8 -13 -5 -13 7 0 -17 -91 -34 -130 -8 -16 -17 -30
-21 -30 -5 0 -8 -8 -8 -19 0 -10 -7 -24 -15 -31 -8 -7 -12 -16 -9 -21 3 -5 0
-9 -5 -9 -6 0 -11 -6 -11 -13 0 -7 -16 -44 -35 -81 -71 -139 -299 -306 -457
-336 -38 -8 -54 -7 -57 1 -2 8 -6 7 -12 -2 -12 -20 -150 -19 -228 3 -66 18
-217 75 -236 88 -5 4 -52 29 -102 55 -51 26 -93 51 -93 56 0 5 -6 9 -14 9 -22
0 -196 197 -196 222 0 10 -4 18 -10 18 -20 0 -117 230 -105 250 3 6 2 10 -3
10 -6 0 -10 10 -9 23 0 21 -8 137 -19 257 -8 88 -5 185 6 188 5 2 10 13 10 25
0 12 10 56 21 97 11 41 22 83 24 94 3 10 6 20 8 22 3 3 88 13 129 15 9 0 19 6
21 13 3 8 26 24 52 36 26 12 61 37 78 55 26 27 38 32 64 28 24 -4 34 -1 39 11
3 9 15 16 26 16 11 0 34 16 52 35 19 19 37 35 42 35 5 0 26 9 47 20 36 19 136
46 184 49 6 1 18 7 25 14 7 7 34 29 59 50 l47 38 43 -17 c50 -18 56 -19 123
-9 29 4 57 15 70 28 31 31 66 33 67 4z m646 -594 c7 -54 11 -109 8 -123 -3
-14 -7 -35 -9 -46 -7 -35 -57 -134 -67 -134 -6 0 -8 -4 -4 -9 3 -5 1 -12 -5
-16 -5 -3 -10 0 -10 7 -6 214 -9 278 -16 302 -5 20 -3 27 4 22 6 -3 13 3 17
14 4 11 11 18 16 15 5 -4 9 1 9 10 0 17 32 66 39 59 2 -2 10 -48 18 -101z
m-2007 -72 c0 -8 10 -25 22 -38 25 -26 36 -89 37 -202 l1 -75 -26 35 c-34 45
-44 72 -55 149 -5 36 -14 79 -20 95 -8 22 -8 38 1 60 11 29 12 29 26 11 8 -11
14 -27 14 -35z m1603 -1098 c-7 -38 -18 -86 -22 -108 -5 -22 -7 -43 -4 -48 2
-4 -3 -19 -12 -33 -8 -13 -14 -31 -13 -40 4 -20 -73 -64 -111 -64 -16 0 -31
-4 -33 -9 -6 -19 -105 -48 -168 -50 -35 -2 -73 -8 -85 -14 -11 -6 -74 -12
-140 -13 -106 -2 -135 2 -250 31 -141 35 -220 67 -235 96 -6 10 -12 40 -14 66
-8 93 -19 158 -29 171 -5 7 -7 16 -3 19 4 4 10 3 14 -2 4 -6 31 -21 60 -34 28
-14 52 -28 52 -33 0 -4 3 -7 8 -6 13 2 62 -21 62 -30 0 -5 19 -12 43 -16 23
-4 60 -15 82 -25 80 -37 129 -46 235 -45 114 2 252 29 320 64 21 11 44 20 50
20 6 0 21 10 33 23 12 13 45 39 72 59 28 20 61 48 74 62 14 14 25 26 27 26 1
0 -5 -30 -13 -67z m-1282 -286 c-10 -9 -11 -8 -5 6 3 10 9 15 12 12 3 -3 0
-11 -7 -18z m823 -254 c-9 -101 -9 -93 -2 -195 7 -90 11 -87 -108 -95 l-80 -6
-13 97 c-7 52 -9 101 -5 107 4 7 6 30 6 52 -1 22 3 57 9 78 l12 38 81 4 c45 1
87 4 94 5 11 2 12 -15 6 -85z m-487 15 c-3 -8 -6 -5 -6 6 -1 11 2 17 5 13 3
-3 4 -12 1 -19z"/>
<path d="M2059 3026 c-2 -3 -18 -7 -34 -10 -27 -5 -42 -10 -100 -32 -11 -4
-22 -8 -25 -9 -56 -14 -59 -16 -68 -58 -5 -23 -7 -45 -5 -49 8 -14 53 -9 53 6
0 35 160 75 225 57 18 -5 36 -7 39 -4 3 3 22 -1 43 -10 63 -25 102 -8 108 48
3 26 -38 44 -115 51 -14 1 -25 3 -25 4 0 4 -91 10 -96 6z"/>
<path d="M2775 3013 c-33 -2 -67 -6 -75 -10 -8 -3 -24 -8 -35 -10 -10 -2 -22
-7 -25 -11 -3 -5 -13 -11 -22 -15 -12 -4 -18 -17 -18 -36 0 -44 58 -55 86 -16
11 15 22 17 69 11 31 -3 63 -10 73 -15 16 -9 54 -23 115 -41 25 -8 30 -5 47
22 29 47 12 71 -61 87 -32 8 -64 20 -70 27 -6 8 -14 13 -18 12 -3 -1 -33 -3
-66 -5z"/>
<path d="M2043 2851 c-23 -41 -30 -95 -14 -105 5 -3 23 -3 40 0 25 5 32 12 37
41 8 42 -6 97 -26 101 -9 1 -25 -15 -37 -37z"/>
<path d="M2810 2865 c0 -8 -9 -15 -20 -15 -11 0 -20 -6 -20 -14 0 -8 -5 -16
-11 -18 -7 -2 0 -17 15 -35 28 -33 49 -34 73 -4 19 25 15 52 -12 77 -18 16
-25 19 -25 9z"/>
<path d="M2504 2475 c-28 -24 -82 -34 -98 -18 -3 4 -12 8 -19 10 -67 16 -66
16 -72 -9 -11 -42 8 -69 60 -89 30 -11 54 -15 64 -10 9 5 27 8 41 6 16 -2 38
7 57 24 39 32 51 72 28 95 -22 21 -27 20 -61 -9z"/>
<path d="M2740 2190 c0 -5 -7 -10 -15 -10 -8 0 -15 -7 -15 -15 0 -8 -6 -16
-12 -16 -16 -2 -31 -5 -38 -9 -5 -2 -94 -7 -245 -13 -78 -3 -155 9 -155 25 0
6 -7 7 -16 4 -8 -3 -28 1 -44 9 -39 20 -47 19 -66 -10 -19 -30 -11 -44 46 -80
43 -27 96 -35 225 -35 204 1 327 12 333 31 2 5 12 9 21 9 22 0 43 60 29 84
-11 20 -48 41 -48 26z"/>
</g>
</svg>
