<?xml version="1.0" standalone="no"?>
<!DOCTYPE svg PUBLIC "-//W3C//DTD SVG 20010904//EN"
 "http://www.w3.org/TR/2001/REC-SVG-20010904/DTD/svg10.dtd">
<svg version="1.0" xmlns="http://www.w3.org/2000/svg"
 width="397.000000pt" height="389.000000pt" viewBox="0 0 397.000000 389.000000"
 preserveAspectRatio="xMidYMid meet">
<metadata>
Created by potrace 1.16, written by Peter Selinger 2001-2019
</metadata>
<g transform="translate(0.000000,389.000000) scale(0.100000,-0.100000)"
fill="#000000" stroke="none">
<path d="M1752 3727 c-6 -7 -14 -37 -17 -67 -8 -62 -49 -158 -71 -167 -7 -3
-14 -11 -14 -18 0 -7 -12 -39 -26 -71 -24 -55 -26 -67 -21 -162 l5 -103 -29
-15 c-16 -8 -29 -11 -29 -7 0 4 -12 -10 -27 -32 -22 -33 -27 -51 -28 -110 -1
-39 -5 -77 -10 -85 -4 -7 -10 -47 -12 -89 -4 -88 -7 -108 -15 -117 -4 -3 -4
-26 -1 -50 5 -43 4 -44 -23 -46 -16 0 -40 0 -52 1 -13 1 -29 -2 -36 -8 -7 -6
-26 -7 -48 -2 -21 5 -39 6 -42 3 -4 -3 -6 0 -6 6 0 6 -11 9 -27 6 -16 -3 -39
-7 -51 -9 -13 -2 -39 -16 -58 -30 l-34 -26 0 36 c0 46 -25 105 -44 105 -9 0
-16 7 -16 15 0 15 -17 20 -59 16 -31 -3 -48 -25 -49 -64 0 -16 -3 -32 -6 -35
-4 -3 -49 -7 -100 -9 -80 -3 -98 -1 -115 14 -29 24 -26 33 10 29 22 -3 34 2
42 15 14 23 27 25 27 4 0 -10 10 -15 29 -15 30 0 41 18 41 68 0 13 6 22 15 22
22 0 65 28 102 67 33 36 54 101 46 150 -7 45 -36 133 -45 133 -4 0 -8 7 -8 15
0 8 -4 15 -9 15 -15 0 -31 113 -26 180 5 72 1 84 -32 94 -18 6 -24 2 -29 -19
-6 -23 -8 -24 -18 -9 -19 25 -60 15 -64 -16 -3 -28 -23 -82 -32 -90 -3 -3 -21
-27 -39 -54 -40 -61 -77 -167 -76 -221 3 -132 5 -146 28 -169 12 -12 28 -30
35 -38 11 -14 10 -16 -8 -11 -14 4 -27 -2 -40 -17 -11 -13 -20 -20 -20 -16 0
4 -7 0 -16 -8 -8 -9 -25 -16 -37 -16 -28 -1 -64 -31 -77 -64 -10 -27 -4 -56
11 -56 5 0 9 -7 9 -15 0 -8 4 -15 8 -15 5 0 7 -39 5 -87 -2 -49 -4 -140 -4
-204 l-1 -116 -49 -11 c-27 -7 -62 -23 -77 -37 -15 -14 -32 -25 -38 -25 -7 0
-14 -7 -18 -15 -3 -8 -12 -15 -19 -15 -8 0 -22 -18 -32 -40 -10 -22 -22 -40
-27 -40 -4 0 -7 -3 -6 -7 2 -12 -12 -66 -23 -85 -6 -11 -5 -27 3 -44 11 -23 9
-28 -10 -42 -28 -22 -72 -109 -72 -144 0 -15 -3 -29 -8 -32 -28 -17 19 -145
70 -191 34 -31 115 -70 138 -67 32 4 41 -12 25 -46 -30 -58 1 -165 53 -184 27
-10 27 -12 27 -105 0 -91 1 -96 28 -119 l28 -24 52 27 c29 15 57 32 62 39 20
24 60 42 78 35 17 -6 17 -8 3 -20 -9 -7 -16 -22 -16 -32 0 -11 -4 -19 -8 -19
-13 0 -35 -88 -28 -115 8 -33 38 -48 70 -35 14 5 26 14 26 19 0 12 84 101 97
102 4 0 18 2 30 3 17 2 20 0 12 -10 -17 -21 -23 -186 -7 -205 13 -16 83 -36
75 -21 -3 4 3 15 12 24 16 16 19 15 49 -21 23 -28 38 -38 52 -34 14 4 22 -3
33 -28 29 -71 77 -109 172 -139 22 -7 55 -19 73 -27 30 -14 34 -14 52 2 19 17
21 16 67 -22 26 -21 68 -46 93 -53 25 -8 57 -27 73 -43 15 -15 27 -25 27 -21
0 3 7 0 16 -7 9 -7 31 -18 49 -25 48 -16 182 18 211 54 l22 26 35 -27 c65 -50
131 -46 183 10 17 19 30 23 54 19 17 -2 37 -10 45 -16 14 -11 86 -4 82 9 -2 6
6 19 79 118 l45 62 51 -27 c41 -21 66 -27 118 -27 57 0 70 4 103 30 21 17 40
40 43 52 5 19 11 21 42 17 21 -3 56 2 79 10 22 8 43 12 46 9 3 -2 8 5 12 16 3
12 15 26 26 31 10 6 19 18 19 26 0 8 4 13 9 10 17 -11 126 -14 145 -4 54 29
115 87 148 142 48 79 87 126 104 126 8 0 14 3 14 8 0 4 12 20 26 35 30 32 64
133 64 189 0 20 6 41 13 45 50 32 85 218 53 281 -13 26 -14 37 -5 54 6 11 15
50 19 86 10 81 -14 161 -64 207 -27 25 -34 40 -39 85 -8 63 -39 154 -62 180
-8 9 -15 26 -15 38 0 12 -6 22 -13 22 -8 0 -19 12 -26 27 -7 15 -15 23 -19 17
-4 -5 -33 -10 -65 -10 -51 -2 -58 1 -63 20 -3 12 0 34 6 50 5 15 7 32 4 38 -4
6 -6 98 -5 204 2 159 -1 197 -13 217 -9 12 -14 34 -11 47 3 13 1 27 -3 30 -12
9 -32 49 -32 64 0 8 -9 21 -19 29 -16 10 -19 22 -16 58 8 83 7 144 -4 189 -5
25 -14 63 -19 85 -5 22 -22 63 -39 91 -17 27 -36 68 -43 90 -7 21 -23 50 -35
64 -39 43 -65 110 -65 166 0 54 -8 64 -51 64 -20 0 -24 -14 -20 -82 2 -21 -5
-47 -14 -62 -13 -20 -16 -40 -13 -78 3 -29 2 -59 -2 -68 -69 -133 -116 -284
-99 -312 5 -7 9 -25 9 -39 0 -15 7 -45 15 -68 l14 -41 -39 -39 c-22 -22 -40
-44 -40 -50 0 -6 -7 -19 -16 -30 -20 -23 -26 -79 -24 -229 l2 -113 -40 21
c-49 25 -62 26 -129 7 -29 -8 -53 -12 -53 -9 -1 14 -48 41 -96 55 -46 14 -53
13 -124 -9 -69 -22 -91 -39 -96 -72 -3 -19 42 -38 58 -25 18 15 76 26 123 25
32 -1 46 -9 73 -38 l34 -35 65 20 c37 12 72 21 78 21 6 0 30 -16 52 -35 l41
-35 1 -121 0 -121 -25 5 c-17 3 -33 -4 -54 -23 -33 -31 -38 -64 -14 -91 15
-17 19 -17 56 -2 46 18 57 10 58 -42 1 -44 21 -65 64 -65 21 0 36 5 36 12 0 6
3 9 6 6 3 -3 16 5 29 18 37 37 91 26 98 -22 1 -11 12 -30 23 -42 33 -36 66
-17 100 58 15 33 29 58 32 56 2 -3 14 1 26 9 31 22 53 18 84 -15 36 -40 67
-33 83 21 10 31 9 42 -2 56 -12 15 -12 16 4 10 10 -4 24 -7 32 -7 16 0 75 -59
75 -76 0 -6 9 -31 20 -56 14 -32 18 -59 15 -100 -4 -62 7 -86 43 -91 33 -5 55
-44 58 -101 1 -39 -5 -65 -29 -113 l-31 -63 29 -30 c23 -24 29 -38 26 -63 -5
-49 -27 -95 -65 -133 -26 -26 -32 -39 -28 -61 16 -95 -14 -168 -81 -197 -24
-10 -40 -29 -65 -78 -32 -66 -79 -122 -120 -146 -28 -16 -70 -6 -101 24 -18
18 -27 21 -42 14 -10 -6 -22 -10 -26 -9 -23 4 -30 -4 -31 -32 0 -19 -9 -37
-21 -46 -12 -8 -21 -20 -21 -27 0 -23 -38 -25 -77 -5 -54 28 -84 13 -107 -52
-21 -57 -25 -61 -78 -65 -29 -3 -45 2 -61 16 -11 11 -26 20 -32 20 -5 0 -15
10 -20 22 -6 12 -23 26 -38 31 -25 8 -32 6 -55 -20 -15 -17 -38 -51 -51 -77
-13 -25 -28 -46 -33 -46 -6 0 -7 -7 -4 -15 3 -9 -1 -18 -9 -21 -8 -4 -15 -12
-15 -19 0 -7 -7 -18 -16 -26 -13 -10 -17 -10 -24 1 -4 7 -30 15 -58 18 -48 4
-52 2 -96 -38 -44 -40 -47 -42 -65 -26 -10 9 -23 34 -30 55 -8 29 -18 41 -37
45 -23 6 -34 -1 -83 -53 -38 -40 -67 -62 -91 -68 -47 -11 -90 -5 -90 13 0 8
-7 14 -15 14 -8 0 -15 6 -15 13 0 6 -11 25 -25 41 -22 26 -29 28 -68 23 -51
-7 -62 -1 -86 44 -15 27 -25 34 -50 35 -20 1 -31 -4 -31 -12 0 -20 -14 -17
-35 6 -12 13 -29 19 -54 18 -20 0 -45 4 -56 10 -11 6 -34 16 -52 22 -39 15
-46 31 -28 67 16 30 19 62 7 79 -23 35 -87 39 -113 8 -17 -21 -26 -17 -27 12
0 33 -30 64 -68 68 -16 2 -30 4 -31 5 -1 0 5 18 14 39 20 48 19 89 -4 114 -16
18 -26 20 -88 15 -38 -4 -71 -11 -73 -17 -9 -26 -20 -6 -15 28 7 55 -18 74
-101 75 -67 0 -83 -6 -141 -57 l-30 -26 -3 26 c-2 14 4 34 14 45 11 12 17 36
17 64 0 50 -21 79 -68 91 -36 9 -39 23 -15 78 37 86 24 107 -92 146 -40 14
-74 28 -76 33 -2 4 -9 7 -15 7 -6 0 -24 12 -39 27 -33 31 -37 76 -13 144 17
48 48 78 81 79 24 0 58 33 47 44 -5 4 -8 11 -8 14 0 4 -12 23 -28 43 -26 34
-36 69 -19 69 4 0 15 18 25 41 10 23 27 43 37 46 11 3 20 8 20 12 0 13 58 41
84 41 20 0 26 -5 25 -22 -2 -60 12 -142 26 -158 11 -12 13 -20 6 -24 -15 -10
-33 -84 -26 -106 14 -44 95 -12 95 37 0 12 6 23 13 26 20 7 66 -13 72 -31 3
-10 16 -25 30 -35 31 -22 67 -8 82 33 10 27 13 28 72 27 33 -1 62 1 64 4 1 4
12 10 25 13 19 6 22 4 22 -17 0 -14 7 -27 15 -31 13 -5 12 -10 -7 -31 -28 -32
-41 -75 -27 -91 20 -25 58 -23 79 5 l20 26 42 -45 c50 -52 72 -56 113 -18 62
58 150 46 195 -26 23 -39 54 -48 88 -28 19 13 22 13 17 0 -3 -8 6 -33 21 -56
l27 -41 28 22 c28 20 34 31 29 52 -1 6 -2 36 -2 68 0 31 -4 60 -9 62 -8 6 -4
204 6 235 5 15 11 17 37 9 35 -10 153 -13 213 -6 22 3 45 1 52 -5 9 -7 13 -7
13 0 0 11 109 47 117 39 2 -3 0 -20 -4 -39 -5 -18 -6 -44 -3 -58 4 -14 3 -32
-1 -41 -5 -9 -4 -30 0 -47 5 -17 7 -33 4 -35 -2 -3 0 -14 6 -24 6 -12 6 -34 1
-59 -8 -33 -17 -147 -19 -231 -1 -15 -7 -23 -18 -23 -9 0 -35 -11 -58 -24
l-41 -25 -60 29 c-55 27 -63 28 -114 18 -61 -11 -91 -37 -83 -69 8 -29 49 -46
74 -31 10 7 29 12 41 12 26 0 73 -39 82 -68 8 -24 47 -42 74 -35 12 3 27 21
36 44 13 32 22 40 57 49 35 10 52 9 95 -5 29 -9 58 -23 65 -31 14 -17 73 -18
87 -1 24 29 25 67 1 93 -12 13 -28 24 -36 24 -7 0 -13 4 -13 8 0 5 -14 9 -31
10 -17 0 -32 2 -34 4 -1 2 -6 40 -9 84 l-7 81 28 6 c15 3 35 8 44 12 10 4 25
-1 35 -12 11 -10 31 -25 47 -32 15 -8 27 -18 27 -23 0 -9 31 -11 54 -2 31 12
37 40 20 83 -13 34 -14 44 -2 68 7 15 24 33 38 40 22 11 27 10 40 -5 32 -39
100 -31 100 11 0 8 8 24 18 35 25 31 68 19 88 -24 25 -52 91 -50 110 4 8 21 6
34 -9 59 -21 36 -74 73 -105 73 -11 0 -23 4 -26 9 -9 14 -56 4 -92 -21 -18
-13 -34 -25 -34 -28 0 -3 -29 -5 -64 -6 -55 0 -69 -4 -97 -28 -18 -16 -41 -45
-50 -66 -17 -37 -17 -37 -66 -33 -28 3 -59 0 -70 -5 -19 -10 -21 -7 -27 41 -4
29 -8 62 -10 75 -2 12 0 25 4 27 4 3 6 28 3 55 -3 32 0 56 8 66 12 15 16 174
5 221 -7 30 -56 83 -77 83 -26 0 -31 14 -14 46 22 43 18 89 -15 161 -16 35
-30 67 -30 69 0 3 -11 17 -25 32 -24 25 -104 179 -119 229 -24 79 -119 20
-122 -77 -2 -55 -38 -169 -59 -184 -24 -17 -35 -113 -20 -161 29 -90 29 -91
-16 -109 -61 -25 -138 -94 -149 -136 -15 -56 -14 -103 3 -134 11 -20 13 -36 6
-53 -8 -21 -12 -102 -11 -213 1 -29 -1 -32 -11 -19 -7 9 -17 14 -24 12 -6 -2
-18 6 -27 19 -9 12 -16 19 -16 16 0 -4 -22 -1 -48 7 -42 13 -69 13 -142 0 -8
-1 -26 -7 -40 -13 -21 -9 -28 -7 -43 14 -10 13 -34 26 -53 30 -26 5 -32 9 -24
19 6 7 9 43 8 81 -1 38 -1 112 1 164 3 108 -6 303 -14 331 -8 25 22 87 53 107
31 20 118 23 154 6 22 -11 34 -11 71 0 49 15 67 8 67 -26 0 -9 8 -22 18 -27
16 -10 15 -10 -3 -11 -31 0 -65 -28 -65 -53 0 -42 14 -50 87 -51 37 -1 73 -4
78 -7 6 -3 25 -6 42 -8 27 -2 35 2 43 24 15 40 6 68 -28 90 -23 14 -31 28 -32
48 0 16 -4 36 -10 46 -12 24 -14 75 -6 198 10 149 12 159 27 154 22 -7 162
-32 179 -32 8 -1 40 6 70 14 30 8 72 18 93 22 l39 6 -5 -66 c-3 -36 -3 -74 0
-83 12 -46 81 -49 100 -4 13 32 15 135 3 168 -6 15 -5 26 1 30 10 6 8 95 -3
146 -6 26 -40 59 -55 54 -21 -8 -23 8 -7 53 13 39 13 53 0 124 -9 44 -22 87
-31 97 -8 9 -15 20 -15 25 0 4 -16 30 -35 57 -20 27 -38 62 -42 79 -3 16 -10
29 -15 29 -7 0 -8 24 -3 65 6 63 6 65 -19 75 -15 5 -29 17 -32 25 -7 18 -48
20 -62 2z m114 -308 c14 -14 21 -28 17 -32 -3 -4 -1 -7 5 -7 7 0 12 -6 12 -14
0 -7 9 -25 20 -39 13 -17 22 -48 26 -96 9 -91 1 -101 -77 -100 l-58 2 6 56
c11 115 7 185 -15 220 l-20 33 -20 -20 c-16 -16 -19 -30 -17 -64 9 -99 0 -218
-16 -218 -4 0 -21 11 -36 24 -27 24 -28 27 -25 111 1 58 7 94 18 110 9 13 15
25 14 27 -2 5 13 42 22 53 4 6 19 24 32 41 14 17 28 43 32 58 6 26 9 21 32
-45 13 -41 35 -86 48 -100z m1104 -35 c14 -27 31 -63 37 -79 7 -17 22 -46 34
-65 12 -19 23 -46 26 -60 2 -14 8 -41 14 -61 5 -21 7 -71 4 -113 -4 -71 -7
-79 -37 -106 -35 -33 -48 -37 -49 -17 -1 19 -6 41 -22 98 -22 79 -31 156 -18
164 6 3 11 20 11 36 0 17 4 39 10 49 7 12 6 21 -3 27 -51 40 -82 11 -92 -83
-7 -57 -3 -85 19 -172 15 -57 25 -106 23 -108 -18 -18 -77 63 -96 131 -23 84
-14 143 34 239 24 49 47 109 51 133 8 55 22 52 54 -13z m-2095 -289 c10 -22
20 -47 21 -55 2 -8 8 -16 13 -18 6 -2 11 -12 11 -22 0 -10 4 -21 8 -24 4 -2 6
-28 5 -57 -3 -55 -26 -92 -61 -101 -15 -4 -17 4 -14 67 4 66 2 74 -19 88 -21
15 -23 15 -37 -4 -9 -13 -15 -47 -16 -88 l-1 -66 -28 3 c-43 5 -67 35 -73 95
-8 85 20 187 69 248 15 19 31 39 36 45 5 6 12 20 15 32 4 12 11 22 15 22 5 0
12 15 16 33 7 26 10 14 15 -63 5 -56 15 -111 25 -135z m880 -45 c8 -13 55 -13
55 1 0 7 15 9 43 5 23 -3 50 -6 61 -7 12 0 17 -6 13 -18 -2 -10 0 -25 4 -34 6
-10 5 -18 -1 -22 -6 -4 -7 -11 -4 -17 4 -7 2 -8 -4 -4 -7 4 -18 4 -24 -1 -7
-4 -24 -9 -38 -11 -13 -2 -30 -7 -36 -13 -14 -11 -142 -1 -169 14 -20 11 -26
13 -46 16 -5 0 -9 16 -7 34 2 22 10 35 26 42 12 5 22 12 22 15 0 10 98 11 105
0z m1125 -232 c11 -12 20 -19 20 -15 0 4 10 2 23 -4 31 -17 83 -22 107 -9 15
8 21 6 30 -9 5 -11 19 -23 30 -26 21 -7 26 -30 11 -53 -4 -7 -28 -15 -52 -16
-56 -4 -217 20 -235 35 -10 8 -14 8 -14 1 0 -6 -7 -9 -15 -6 -27 11 -16 46 27
86 23 21 43 38 44 38 2 0 12 -10 24 -22z m-2110 -104 c0 -22 -16 -17 -17 6 -1
11 2 18 8 15 5 -4 9 -13 9 -21z m1125 -142 c-3 -3 -14 -1 -24 5 -12 7 -23 8
-36 1 -16 -10 -17 -8 -10 18 4 16 8 34 9 39 7 39 20 36 43 -9 14 -27 22 -51
18 -54z m985 24 c30 -3 56 -9 57 -13 2 -5 46 -6 98 -3 70 4 98 9 105 20 5 8
10 11 10 5 1 -5 2 -109 4 -230 2 -121 6 -227 10 -236 4 -10 2 -16 -6 -16 -25
-1 -145 -54 -166 -74 -23 -20 -52 -26 -52 -9 0 17 -61 39 -79 29 -70 -37 -81
-40 -88 -22 -3 10 -11 24 -16 31 -12 15 -10 168 2 272 5 36 5 74 1 85 -4 11
-3 33 1 49 5 17 10 51 10 76 2 51 -8 48 109 36z m-956 -61 c6 -11 26 -37 44
-59 17 -22 32 -46 32 -54 0 -8 9 -29 20 -47 17 -28 18 -37 8 -66 -15 -45 -51
-79 -83 -79 -27 0 -28 5 -25 103 1 26 -3 62 -8 80 -18 56 -24 149 -10 145 6
-2 16 -13 22 -23z m-83 -97 c18 -73 22 -168 7 -168 -4 0 -8 6 -8 13 0 8 -3 8
-9 -2 -8 -12 -13 -12 -35 3 -14 9 -27 21 -27 26 -1 6 -2 13 -3 18 -2 4 -6 28
-10 55 -7 42 -5 52 18 85 14 21 26 44 26 52 0 34 23 -12 41 -82z m-1181 62
c11 -13 77 -26 115 -23 22 2 67 5 100 6 33 2 70 9 82 15 20 11 22 9 28 -26 7
-46 14 -156 21 -372 4 -135 3 -171 -10 -200 -8 -19 -15 -30 -16 -23 0 16 -97
36 -119 24 -9 -6 -26 -8 -37 -7 -10 2 -26 -5 -34 -15 -15 -19 -17 -19 -65 -1
-33 12 -63 16 -87 12 l-36 -7 4 106 c5 149 4 183 -4 214 -4 15 -4 62 0 104 4
43 7 100 7 126 0 65 8 88 29 80 9 -4 19 -9 22 -13z m1370 -350 c0 -16 4 -30 8
-30 5 0 14 -12 21 -26 12 -27 -1 -60 -20 -48 -5 3 -9 1 -9 -4 0 -11 -43 -21
-110 -28 -25 -2 -56 -7 -70 -11 -14 -3 -29 -5 -35 -3 -5 1 -26 4 -45 6 -79 7
-133 32 -128 62 5 26 63 72 91 72 14 0 27 5 29 12 7 19 76 15 91 -6 13 -17 15
-17 45 -2 17 9 44 16 59 16 15 0 35 5 43 10 24 16 30 12 30 -20z"/>
</g>
</svg>
