<?xml version="1.0" standalone="no"?>
<!DOCTYPE svg PUBLIC "-//W3C//DTD SVG 20010904//EN"
 "http://www.w3.org/TR/2001/REC-SVG-20010904/DTD/svg10.dtd">
<svg version="1.0" xmlns="http://www.w3.org/2000/svg"
 width="537.000000pt" height="473.000000pt" viewBox="0 0 537.000000 473.000000"
 preserveAspectRatio="xMidYMid meet">
<metadata>
Created by potrace 1.16, written by Peter Selinger 2001-2019
</metadata>
<g transform="translate(0.000000,473.000000) scale(0.100000,-0.100000)"
fill="#000000" stroke="none">
<path d="M2576 4501 c-9 -10 -13 -21 -9 -25 5 -4 9 -56 9 -114 1 -59 5 -150 9
-202 7 -97 7 -111 4 -190 -1 -25 0 -52 2 -60 3 -12 -7 -16 -46 -18 -129 -7
-644 1 -1044 17 -138 6 -243 6 -257 0 -20 -7 -24 -15 -24 -52 0 -24 6 -64 13
-88 7 -24 10 -57 7 -74 -10 -52 29 -127 81 -155 9 -5 112 -11 230 -15 118 -3
244 -8 280 -11 50 -4 70 -1 81 9 13 14 64 13 98 -1 17 -7 28 -9 52 -11 9 0 38
-18 65 -40 51 -40 132 -81 170 -85 13 -2 45 -18 73 -37 l50 -34 0 -125 c1 -69
2 -150 4 -180 2 -30 -1 -84 -5 -120 -4 -36 -11 -96 -14 -134 -3 -37 -8 -73
-11 -78 -9 -15 -12 -218 -3 -224 4 -2 8 -12 8 -22 0 -9 3 -60 6 -112 4 -52 7
-108 9 -125 1 -16 5 -36 10 -44 5 -7 7 -39 6 -70 -1 -31 -2 -65 -2 -76 1 -11
4 -101 7 -200 4 -98 11 -187 16 -196 5 -10 9 -29 9 -43 l0 -25 -517 5 c-285 3
-552 8 -594 12 -42 4 -89 4 -105 0 -24 -6 -32 -3 -55 25 -15 18 -45 42 -67 52
-23 11 -43 27 -45 35 -5 20 10 498 16 530 19 92 19 105 -2 131 -19 24 -25 26
-58 18 -60 -14 -75 -12 -69 9 5 14 0 18 -22 20 -49 3 -55 -8 -52 -99 1 -46 1
-93 0 -104 -3 -26 -2 -46 3 -130 2 -38 0 -77 -4 -86 -4 -9 -9 -67 -10 -130 -3
-129 -16 -189 -46 -200 -11 -4 -31 -20 -44 -36 -21 -24 -36 -31 -84 -37 -69
-8 -79 -15 -109 -75 -28 -57 -34 -83 -42 -213 -4 -57 -10 -111 -15 -120 -5 -9
-8 -27 -8 -40 4 -65 -14 -374 -22 -397 -12 -29 -15 -48 -30 -176 -6 -50 -17
-97 -25 -106 -8 -8 -14 -21 -14 -27 0 -7 -4 -12 -9 -12 -5 0 -11 -8 -14 -17
-3 -10 -19 -55 -36 -100 -36 -102 -31 -145 23 -167 56 -23 206 17 269 72 15
13 19 13 35 0 29 -25 134 -11 259 36 36 13 48 14 80 2 22 -7 51 -10 70 -6 35
8 399 6 953 -4 190 -4 451 -9 580 -11 129 -3 424 -7 655 -11 436 -6 848 -19
900 -28 16 -2 34 -11 40 -18 7 -10 29 -13 75 -11 75 4 94 9 85 23 -8 12 9 13
33 1 59 -30 70 -33 88 -23 14 8 23 7 34 -4 28 -27 93 -74 102 -74 4 0 25 -11
46 -24 53 -33 138 -29 166 8 23 30 25 85 5 131 -7 17 -13 32 -14 35 -1 3 -6
16 -12 30 -23 56 -62 177 -68 210 -3 19 -10 46 -15 60 -8 22 -32 127 -45 198
-2 12 -6 26 -9 31 -9 13 -16 201 -18 437 -1 120 -6 218 -12 229 -5 11 -10 27
-11 35 -1 8 -2 25 -3 37 -3 30 -46 51 -107 51 -72 1 -73 1 -72 15 2 52 -5 63
-59 96 -30 19 -59 42 -65 52 -10 19 -10 23 -10 134 0 39 -1 81 -1 95 0 14 0
41 1 60 1 19 2 107 2 195 0 88 0 174 1 190 0 50 -1 54 -26 70 -23 15 -27 15
-50 0 -23 -15 -26 -15 -45 4 -26 26 -33 26 -56 1 -28 -30 -28 -30 -24 -410 1
-52 0 -143 -1 -201 -2 -101 -3 -107 -26 -120 -13 -7 -24 -18 -24 -25 0 -7 -10
-21 -22 -31 -25 -21 -58 -77 -58 -99 0 -8 -8 -14 -17 -15 -56 -3 -934 6 -1005
10 -18 1 -25 31 -11 45 4 3 8 61 9 129 1 67 5 147 8 177 11 104 16 215 21 480
7 365 13 484 29 530 7 22 11 41 7 42 -3 2 -13 17 -22 34 -12 22 -14 36 -7 48
21 38 27 117 13 181 -13 61 -9 105 10 105 8 0 22 9 32 19 10 10 56 40 103 65
47 25 102 55 123 66 20 11 37 17 37 13 0 -4 5 -2 11 4 8 8 18 7 36 -2 18 -9
34 -10 59 -3 25 6 39 6 49 -2 9 -7 15 -8 19 -1 4 6 45 8 104 6 243 -11 490 -7
509 6 23 18 31 103 24 249 -1 25 -1 54 -1 65 4 48 -4 65 -30 67 -14 1 -32 2
-40 3 -8 0 -20 4 -27 8 -6 4 -14 3 -17 -2 -5 -8 -643 -13 -658 -4 -4 2 -96 6
-204 8 -186 5 -239 13 -207 33 17 11 24 56 22 147 -1 44 -1 155 0 247 1 165 0
168 -23 183 -24 16 -94 23 -282 30 -98 4 -113 2 -128 -14z m281 -610 c18 -16
34 -27 36 -24 3 2 19 -10 36 -27 31 -32 37 -55 32 -135 -3 -48 18 -84 53 -93
17 -5 38 -5 46 -1 8 4 49 17 90 29 41 12 91 28 111 35 20 8 40 11 43 7 4 -3
10 -1 14 5 8 12 105 30 202 36 31 2 77 15 105 28 69 34 122 36 195 7 66 -25
80 -43 26 -33 -20 4 -36 2 -40 -4 -4 -6 -23 -11 -41 -11 -34 0 -115 -22 -147
-40 -10 -6 -23 -10 -31 -10 -7 0 -28 -9 -48 -19 -19 -11 -54 -25 -77 -32 -23
-7 -42 -15 -42 -18 0 -7 -17 -16 -155 -81 -49 -23 -116 -55 -148 -71 -32 -16
-63 -29 -69 -29 -17 0 -68 -61 -69 -84 -3 -44 0 -102 7 -136 10 -55 12 -100 3
-100 -5 0 -6 -6 -3 -13 3 -8 -2 -20 -11 -27 -8 -7 -15 -18 -15 -25 0 -6 -9
-20 -19 -29 -11 -10 -21 -32 -23 -50 -2 -17 -8 -30 -14 -29 -8 2 -11 -10 -9
-32 2 -19 -1 -37 -6 -40 -5 -4 -9 -16 -9 -27 0 -12 -8 -38 -17 -59 -21 -43
-45 -51 -163 -52 -60 -1 -83 4 -113 21 -36 21 -85 22 -72 2 3 -5 1 -11 -5 -15
-5 -3 -10 1 -10 10 0 8 -6 18 -13 21 -20 7 -25 72 -13 159 11 73 13 168 5 180
-4 6 -4 42 1 80 12 107 6 188 -16 213 -10 12 -22 22 -26 22 -4 0 -19 11 -33
24 -14 14 -45 27 -68 31 -23 4 -52 13 -64 21 -12 8 -30 14 -39 14 -8 0 -40 20
-68 45 -29 25 -63 45 -74 45 -11 0 -23 4 -26 9 -3 4 -32 11 -65 14 -33 3 -66
9 -73 13 -7 5 -24 10 -37 12 -14 2 -36 14 -49 28 -14 13 -31 24 -38 24 -7 0
-18 8 -23 19 -6 10 -25 24 -43 30 -59 22 -138 62 -138 70 0 5 25 9 56 9 61 0
130 -24 163 -57 12 -12 21 -19 21 -16 0 3 21 -6 47 -20 27 -14 54 -25 61 -25
7 0 23 -5 35 -12 12 -7 27 -13 32 -15 18 -4 109 -35 180 -60 39 -14 93 -32
120 -40 28 -8 63 -18 78 -23 20 -6 44 -3 84 11 31 10 58 17 61 14 3 -2 14 2
26 10 11 8 28 15 37 15 22 0 37 35 43 105 8 85 22 128 51 153 14 12 25 26 25
31 0 9 38 26 75 34 11 3 22 5 25 6 3 0 20 -12 37 -28z m-967 -81 c0 -5 -4 -10
-9 -10 -6 0 -13 5 -16 10 -3 6 1 10 9 10 9 0 16 -4 16 -10z m540 -6 c0 -2 -9
-4 -21 -4 -11 0 -18 4 -14 10 5 8 35 3 35 -6z m607 -91 c-3 -10 -5 -4 -5 12 0
17 2 24 5 18 2 -7 2 -21 0 -30z m-1272 -103 c3 -5 -1 -10 -10 -10 -9 0 -13 5
-10 10 3 6 8 10 10 10 2 0 7 -4 10 -10z m2042 -56 c-3 -3 -12 -4 -19 -1 -8 3
-5 6 6 6 11 1 17 -2 13 -5z m-840 -716 c-3 -8 -6 -5 -6 6 -1 11 2 17 5 13 3
-3 4 -12 1 -19z m-396 -195 c63 -16 160 -17 207 -2 29 10 37 8 68 -16 22 -17
33 -33 30 -42 -3 -8 -6 -18 -6 -22 0 -4 -11 -20 -24 -35 -23 -27 -25 -28 -112
-22 -49 2 -101 5 -116 5 -20 1 -28 6 -28 19 0 13 -2 14 -9 4 -6 -11 -11 -10
-24 3 -13 13 -20 14 -36 3 -22 -14 -29 -32 -23 -64 3 -18 16 -23 75 -35 40 -7
83 -14 97 -15 14 -1 29 -2 34 -3 5 -1 -6 -12 -25 -24 -23 -16 -39 -21 -50 -16
-10 5 -30 1 -53 -11 -21 -10 -51 -20 -68 -22 -30 -3 -31 -1 -34 37 -2 22 -8
60 -13 85 -6 25 -10 76 -11 115 0 59 3 72 23 91 l22 21 11 -20 c8 -14 31 -26
65 -34z m254 -273 c-8 -22 -12 -46 -9 -53 2 -7 -2 -26 -10 -42 -10 -19 -12
-33 -6 -40 13 -16 2 -158 -17 -215 -10 -29 -16 -92 -17 -180 -3 -151 -15 -272
-27 -265 -4 3 -10 -4 -14 -15 -5 -15 -15 -20 -42 -20 -32 0 -35 2 -28 23 3 12
6 27 6 32 -2 21 -1 129 1 385 2 146 -1 277 -5 293 -5 20 -4 27 6 27 8 0 24 9
37 20 13 11 31 20 41 20 9 0 34 16 53 35 20 19 38 35 41 35 2 0 -2 -18 -10
-40z m62 -42 c-3 -8 -6 -5 -6 6 -1 11 2 17 5 13 3 -3 4 -12 1 -19z m1407 -256
c-1 -145 -4 -265 -7 -268 -3 -3 -3 -23 0 -44 5 -34 3 -38 -13 -35 -11 2 -25 4
-33 4 -8 1 -11 4 -8 8 4 3 2 12 -3 18 -7 8 -7 21 -1 38 5 14 7 28 4 31 -4 3
-7 114 -8 247 -2 258 1 274 49 267 21 -3 21 -5 20 -266z m-1764 194 c33 -1 41
-32 33 -119 -6 -64 -5 -68 15 -74 17 -4 22 -13 22 -37 -1 -17 2 -71 5 -121 3
-49 6 -94 6 -100 0 -5 -6 -59 -14 -120 -7 -61 -10 -117 -6 -127 9 -16 -6 -28
-36 -28 -12 0 -31 55 -25 75 5 19 0 59 -9 64 -5 3 -9 47 -10 96 -1 50 -6 119
-11 155 -5 36 -5 84 -1 107 5 23 5 47 0 54 -4 7 -6 17 -3 21 3 4 0 17 -6 28
-6 11 -12 47 -13 80 -2 51 0 59 13 54 8 -3 26 -7 40 -8z m-1490 -14 c0 -10 -6
-40 -13 -67 -8 -32 -13 -131 -15 -274 -1 -125 -6 -229 -11 -234 -5 -5 -21 -7
-36 -3 -23 6 -25 10 -20 39 3 18 8 68 11 112 3 44 7 96 9 115 8 61 1 281 -8
297 -9 15 13 28 53 31 23 2 30 -2 30 -16z m1837 -34 c-3 -7 -5 -2 -5 12 0 14
2 19 5 13 2 -7 2 -19 0 -25z m78 -258 c-4 -17 -9 -29 -12 -26 -3 2 -2 19 2 36
4 17 9 29 12 26 3 -2 2 -19 -2 -36z m-8 -72 c-3 -8 -6 -5 -6 6 -1 11 2 17 5
13 3 -3 4 -12 1 -19z m-110 -160 c-2 -13 -4 -5 -4 17 -1 22 1 32 4 23 2 -10 2
-28 0 -40z m1417 -93 c11 -8 28 -15 37 -15 10 0 28 -9 41 -20 12 -11 39 -33
58 -50 l35 -30 -162 1 c-125 0 -163 4 -163 13 0 27 70 105 97 109 16 2 30 5
33 5 3 1 14 -5 24 -13z m-1438 -93 c-11 -10 -14 3 -7 38 l6 35 3 -33 c2 -19 1
-36 -2 -40z m-1815 34 c4 2 18 0 31 -5 17 -7 -3 -10 -72 -10 -86 1 -92 2 -66
13 19 9 41 11 64 5 20 -4 39 -6 43 -3z m380 -130 c272 -3 562 -8 644 -11 83
-3 308 -8 500 -10 193 -2 494 -6 670 -9 176 -3 507 -8 735 -12 228 -3 444 -7
480 -10 36 -2 86 -4 111 -4 44 1 47 -1 53 -32 4 -18 9 -116 11 -218 4 -190 12
-336 20 -380 2 -14 7 -52 10 -84 3 -33 10 -66 15 -75 4 -9 10 -29 13 -46 3
-16 17 -73 32 -125 14 -52 27 -102 29 -110 2 -8 14 -42 26 -75 12 -33 22 -67
24 -75 1 -9 6 -21 10 -29 7 -10 3 -11 -15 -6 -13 4 -27 13 -31 20 -4 7 -21 18
-37 24 -27 12 -75 50 -145 116 -32 30 -55 63 -96 138 -17 32 -26 38 -48 35
-36 -4 -48 -39 -33 -95 6 -23 19 -49 27 -58 9 -9 14 -18 11 -21 -11 -11 -67
28 -82 56 -9 17 -20 30 -25 30 -6 0 -10 7 -10 15 0 21 -64 20 -84 -1 -21 -20
-20 -63 1 -86 15 -17 15 -18 -8 -19 -173 -5 -1710 8 -1889 16 -100 5 -720 15
-1085 18 -133 2 -172 5 -181 16 -15 19 -69 18 -91 -1 -18 -15 -131 -53 -137
-47 -4 4 19 40 123 199 17 25 33 59 37 75 4 17 13 39 20 50 7 11 14 36 17 55
3 19 7 42 10 50 6 14 13 53 23 125 8 55 -4 89 -36 103 -41 18 -62 12 -80 -23
-8 -17 -17 -32 -20 -35 -10 -9 -9 -50 1 -50 10 0 13 -73 2 -83 -3 -4 -8 -22
-10 -39 -1 -18 -8 -44 -14 -58 -7 -14 -17 -36 -23 -50 -33 -74 -172 -290 -186
-290 -4 0 -23 -15 -42 -32 -46 -43 -119 -80 -134 -68 -6 6 -14 7 -17 3 -19
-18 -3 39 24 87 56 99 59 107 69 191 6 46 21 122 35 169 26 94 33 163 38 350
4 152 23 289 43 312 9 9 14 27 13 40 -2 13 0 29 5 36 4 7 5 20 2 28 -5 13 6
15 74 13 43 -2 82 0 86 4 4 3 10 5 14 2 3 -2 229 -6 501 -9z"/>
<path d="M4211 2849 c-20 -8 -22 -14 -18 -49 2 -22 0 -43 -5 -46 -5 -3 -6 -14
-3 -24 3 -10 2 -21 -3 -23 -11 -7 -14 -132 -4 -176 6 -27 15 -37 43 -46 55
-20 82 -10 108 41 28 51 25 108 -9 174 -11 21 -20 46 -20 54 0 24 -30 81 -49
93 -10 6 -25 7 -40 2z m62 -227 c7 -34 -6 -72 -23 -72 -6 0 -10 32 -10 72 0
64 2 70 13 53 8 -11 17 -35 20 -53z"/>
<path d="M972 2759 c-23 -9 -47 -54 -36 -70 3 -5 -2 -34 -10 -63 -23 -78 -28
-176 -10 -203 12 -19 22 -22 68 -20 48 2 56 5 75 33 46 66 42 217 -6 235 -13
5 -23 20 -27 42 -8 44 -24 57 -54 46z m52 -177 c3 -15 4 -36 2 -47 -3 -11 -5
-23 -5 -27 -1 -5 -8 -8 -16 -8 -8 0 -15 -4 -15 -10 0 -5 -4 -10 -10 -10 -10 0
-3 101 9 137 1 1 7 0 15 -3 8 -3 17 -18 20 -32z"/>
</g>
</svg>
