<?xml version="1.0" standalone="no"?>
<!DOCTYPE svg PUBLIC "-//W3C//DTD SVG 20010904//EN"
 "http://www.w3.org/TR/2001/REC-SVG-20010904/DTD/svg10.dtd">
<svg version="1.0" xmlns="http://www.w3.org/2000/svg"
 width="485.000000pt" height="453.000000pt" viewBox="0 0 485.000000 453.000000"
 preserveAspectRatio="xMidYMid meet">
<metadata>
Created by potrace 1.16, written by Peter Selinger 2001-2019
</metadata>
<g transform="translate(0.000000,453.000000) scale(0.100000,-0.100000)"
fill="#000000" stroke="none">
<path d="M822 4254 c-18 -26 -23 -28 -41 -16 -26 15 -79 16 -112 0 -15 -7 -33
-30 -44 -56 -10 -25 -36 -61 -57 -81 -38 -35 -73 -96 -63 -111 3 -4 -2 -13
-10 -20 -8 -7 -15 -19 -15 -26 0 -8 -4 -14 -9 -14 -11 0 -22 -71 -13 -84 8
-12 8 -50 -2 -180 -11 -136 -17 -477 -9 -489 5 -7 9 -23 10 -37 0 -14 8 -61
17 -105 19 -91 23 -182 13 -272 -4 -37 -2 -65 3 -68 14 -9 12 -45 -10 -183
-16 -93 -20 -151 -16 -236 5 -113 5 -113 -20 -124 -13 -7 -24 -17 -25 -24 0
-7 -2 -22 -4 -33 -2 -11 -7 -40 -10 -65 -4 -25 -11 -52 -15 -60 -5 -9 -13 -51
-19 -95 -6 -44 -18 -100 -26 -125 -61 -191 -66 -503 -10 -625 7 -16 17 -43 21
-60 4 -16 13 -39 19 -50 7 -11 18 -47 25 -80 7 -33 18 -69 25 -80 13 -20 41
-124 37 -137 -1 -5 3 -8 8 -8 6 0 10 -7 10 -15 0 -8 15 -38 34 -67 18 -29 36
-63 40 -75 4 -12 25 -44 47 -70 21 -26 39 -53 39 -60 0 -7 5 -13 10 -13 6 0
36 -25 66 -55 30 -30 77 -69 104 -86 28 -18 50 -36 50 -41 0 -4 6 -8 14 -8 8
0 36 -20 62 -45 69 -67 123 -60 109 14 -5 27 -34 63 -45 56 -4 -2 -33 13 -64
35 -31 22 -69 46 -84 54 -15 9 -41 28 -59 43 -17 15 -51 44 -74 63 -23 19 -54
53 -68 74 -14 22 -34 51 -43 65 -10 14 -21 33 -24 41 -4 8 -14 23 -21 32 -8 9
-12 21 -9 26 3 6 -1 13 -10 16 -8 3 -13 10 -10 15 4 5 1 11 -5 13 -6 2 -14 23
-19 46 -5 31 -4 40 4 34 24 -19 207 1 227 24 6 8 18 14 26 14 16 0 43 23 43
37 0 4 20 31 44 58 25 28 47 62 50 76 3 15 12 33 19 41 8 8 31 50 52 94 20 43
47 102 60 129 13 28 27 67 31 88 3 20 10 40 15 43 5 3 9 18 9 34 0 16 5 32 10
35 6 3 10 15 10 25 0 10 4 21 9 25 9 5 8 -89 -3 -165 -2 -19 -7 -54 -10 -76
-3 -23 -10 -53 -15 -68 -6 -14 -8 -26 -5 -26 2 0 -3 -15 -13 -32 -9 -18 -16
-37 -15 -42 3 -8 -1 -22 -28 -91 -4 -11 -15 -46 -25 -78 -10 -32 -29 -69 -42
-83 -13 -14 -23 -30 -23 -37 0 -26 -148 -135 -163 -121 -12 13 -47 -9 -67 -42
-20 -32 -21 -36 -6 -58 23 -35 88 -45 117 -17 13 12 29 21 36 21 7 0 13 4 13
8 0 4 20 21 45 36 47 30 135 114 135 129 0 5 20 45 45 88 27 50 46 97 50 127
8 72 17 115 27 135 12 24 35 160 37 222 1 28 5 83 9 123 5 40 4 76 0 78 -5 3
-5 11 0 17 4 7 9 75 10 151 2 127 1 141 -17 160 -18 19 -21 41 -26 231 -3 116
-8 221 -12 235 -3 14 -9 66 -13 115 -5 50 -11 104 -14 120 -3 17 -7 42 -10 57
-2 15 -7 32 -11 38 -11 17 -15 152 -6 164 13 16 68 114 93 166 12 25 26 47 30
48 5 2 6 7 4 11 -2 3 2 33 10 66 8 33 17 74 20 90 4 17 10 38 15 48 5 9 7 17
3 17 -3 0 -2 6 3 13 6 6 11 35 13 62 7 164 -3 258 -31 286 -10 10 -19 23 -19
28 0 5 -11 11 -24 13 -18 4 -35 -5 -65 -31 -23 -20 -41 -43 -41 -50 0 -8 -3
-11 -6 -8 -4 3 -8 122 -9 263 -2 147 -7 259 -12 263 -6 3 -13 18 -17 33 -3 15
-19 35 -34 44 -15 9 -40 26 -56 37 -23 15 -33 17 -52 8 -18 -8 -25 -7 -32 5
-4 8 -24 17 -43 20 -31 5 -39 2 -57 -22z m58 -146 c0 -14 4 -28 10 -30 8 -2
20 -81 22 -143 1 -56 -14 -317 -20 -340 -11 -41 6 -82 39 -94 23 -8 31 -5 49
14 19 20 23 38 26 117 6 126 5 337 -2 368 -2 14 -7 44 -9 68 -4 33 -2 42 11
42 9 0 14 -6 11 -12 -2 -7 1 -26 7 -43 6 -16 11 -59 10 -95 0 -36 -1 -101 -2
-145 -1 -44 -1 -91 -1 -105 0 -14 -2 -70 -6 -125 -4 -55 -7 -107 -7 -115 0 -8
-5 -21 -11 -27 -6 -9 -2 -19 14 -33 13 -10 29 -19 36 -20 6 0 18 -2 25 -5 9
-3 25 12 42 40 16 25 33 45 37 45 5 0 9 5 9 11 0 14 25 39 39 39 11 0 12 -11
11 -110 0 -46 -24 -172 -42 -225 -26 -76 -98 -225 -108 -225 -5 0 -12 -10 -16
-22 -3 -12 -15 -30 -25 -41 -15 -17 -18 -32 -14 -93 4 -73 10 -108 25 -154 24
-74 47 -332 48 -540 0 -30 1 -75 3 -100 3 -65 3 -95 -5 -190 -3 -47 -7 -104
-9 -126 -2 -23 -9 -49 -16 -58 -7 -9 -11 -16 -8 -16 6 0 -18 -86 -36 -129 -5
-14 -11 -28 -11 -31 -1 -3 -6 -12 -11 -20 -5 -8 -11 -24 -12 -35 -2 -11 -7
-23 -11 -27 -10 -10 -72 10 -72 23 0 5 -6 9 -13 9 -7 0 -21 11 -31 25 -10 14
-29 25 -41 25 -22 0 -48 29 -85 95 -30 53 -48 108 -70 213 -11 51 -25 102 -30
113 -6 11 -13 41 -15 67 -5 68 -16 125 -27 139 -15 19 -22 327 -8 353 12 22
20 71 25 155 1 28 6 62 10 77 5 19 2 40 -9 63 -10 19 -14 41 -9 47 4 7 12 42
18 78 9 57 8 67 -7 82 -12 12 -16 26 -12 42 3 13 1 27 -5 30 -6 4 -11 24 -11
45 0 21 -3 41 -7 45 -14 13 -33 120 -33 181 0 306 24 630 51 683 l19 36 0 -35
c0 -19 -6 -58 -14 -85 -10 -35 -13 -99 -11 -231 2 -194 7 -213 50 -213 42 0
48 50 45 355 -1 28 6 79 15 114 9 35 15 72 12 82 -3 11 -2 19 3 19 4 0 5 24 3
54 -4 51 7 80 22 56 4 -6 8 -104 9 -219 1 -114 6 -212 10 -219 9 -16 48 -15
69 1 14 10 16 37 18 182 1 174 16 306 31 283 4 -7 8 -25 8 -40z m-360 -2118
c0 -5 -4 -10 -10 -10 -5 0 -10 5 -10 10 0 6 5 10 10 10 6 0 10 -4 10 -10z m-2
-54 c0 -37 18 -99 37 -131 7 -11 15 -46 19 -77 3 -32 15 -80 26 -108 11 -27
18 -50 15 -50 -6 0 41 -85 76 -136 32 -46 94 -104 112 -104 7 0 25 -13 40 -29
15 -17 36 -33 47 -36 21 -7 27 -34 11 -51 -18 -19 -61 -105 -61 -122 0 -10 -9
-24 -20 -32 -11 -8 -20 -20 -20 -27 0 -6 -19 -33 -43 -58 -36 -40 -50 -48 -90
-52 -34 -4 -54 -1 -73 11 -14 10 -32 15 -40 12 -15 -6 -64 69 -67 103 -1 12
-5 21 -9 21 -4 0 -8 7 -8 16 0 9 -10 37 -23 63 -49 97 -61 259 -31 407 9 43
17 97 19 119 2 22 10 63 19 90 9 28 16 69 16 91 0 24 6 47 15 54 8 6 14 15 13
18 -2 21 3 42 11 42 5 0 9 -15 9 -34z"/>
<path d="M2780 4202 c0 -10 -61 -33 -71 -26 -5 3 -9 1 -9 -3 0 -5 -17 -15 -37
-22 -60 -21 -104 -40 -156 -66 -26 -14 -54 -25 -62 -25 -8 0 -15 -4 -15 -10 0
-5 -5 -10 -10 -10 -27 0 -260 -196 -260 -218 0 -4 -7 -17 -15 -27 -35 -46
-124 -185 -130 -204 -3 -12 -10 -21 -14 -21 -7 0 -33 -73 -32 -92 0 -4 -6 -25
-14 -47 -7 -22 -11 -42 -7 -46 3 -3 -12 -3 -34 0 -52 9 -110 -8 -152 -43 -81
-67 -94 -245 -24 -324 8 -10 12 -18 8 -18 -6 0 87 -114 121 -148 6 -7 15 -29
18 -50 3 -20 13 -62 21 -92 9 -30 17 -64 18 -76 1 -11 5 -24 8 -30 3 -5 9 -25
13 -44 4 -19 13 -42 20 -50 28 -33 27 -58 -2 -77 -15 -10 -43 -35 -61 -55 -19
-21 -40 -38 -47 -38 -11 0 -39 -29 -85 -86 -5 -7 -13 -14 -17 -15 -4 -2 -32
-32 -61 -66 -30 -35 -58 -63 -64 -63 -5 0 -33 -22 -61 -50 -28 -28 -54 -50
-57 -50 -4 0 -25 -17 -48 -38 -23 -21 -59 -47 -79 -58 -21 -10 -41 -23 -45
-29 -5 -6 -8 -6 -8 -1 0 6 -5 5 -12 -2 -7 -7 -20 -12 -29 -12 -27 0 -32 -31
-34 -240 -2 -107 -6 -235 -10 -285 -3 -49 -8 -254 -9 -455 -2 -201 -6 -403 -9
-450 -7 -93 -14 -243 -18 -360 l-2 -75 61 -3 60 -3 -4 28 c-7 44 -5 323 3 483
4 80 6 224 5 320 0 96 -2 222 -2 280 -1 109 9 310 16 322 2 4 7 71 10 150 6
129 9 180 13 207 0 5 19 16 41 25 22 9 40 20 40 24 0 11 100 96 105 90 2 -2
-3 -17 -11 -33 -9 -17 -19 -48 -24 -70 -5 -22 -13 -58 -19 -79 -7 -28 -6 -46
2 -60 12 -22 14 -28 16 -48 0 -7 23 -28 50 -47 40 -27 60 -33 103 -34 29 -1
58 2 64 5 5 4 39 16 74 29 36 12 70 26 77 31 17 13 15 -57 -4 -112 -8 -25 -16
-70 -17 -101 -2 -31 -6 -61 -9 -66 -5 -7 -21 -483 -19 -548 1 -36 14 -281 18
-335 2 -36 6 -118 9 -183 3 -66 8 -124 12 -130 4 -7 8 -33 9 -59 3 -95 -3 -88
65 -88 48 0 60 3 56 14 -5 12 -10 41 -22 136 -3 19 -7 73 -10 120 -2 47 -7
117 -10 155 -27 366 -23 936 7 1015 7 16 37 167 44 214 5 35 16 49 59 75 l34
20 3 -31 c2 -24 10 -34 33 -42 17 -6 44 -24 61 -41 43 -41 62 -55 72 -55 15 0
48 -43 62 -80 7 -19 29 -51 49 -71 43 -43 100 -113 120 -144 8 -12 33 -30 57
-40 24 -10 44 -22 44 -27 0 -4 8 -8 19 -8 26 0 38 -19 39 -60 2 -53 -7 -88
-26 -95 -9 -4 -42 -8 -72 -11 -80 -5 -109 -20 -104 -51 3 -15 9 -34 14 -44 6
-10 10 -28 10 -40 0 -12 10 -37 21 -56 l21 -34 62 6 c33 3 66 2 73 -2 6 -5 16
-57 21 -123 11 -118 11 -148 0 -165 -3 -6 -4 -22 -1 -38 5 -25 21 -34 48 -27
78 20 164 30 171 19 8 -13 49 29 51 54 2 12 3 84 3 159 l0 138 40 6 c44 7 68
31 65 67 -6 68 -19 128 -29 134 -6 4 -33 8 -61 8 l-50 0 -1 52 c-1 53 -20 113
-35 113 -18 0 -8 19 14 26 47 14 89 67 147 180 33 63 62 131 66 152 4 20 8 44
10 52 2 8 8 42 14 75 7 33 15 74 20 90 l7 30 10 -25 c47 -113 79 -176 109
-213 19 -22 21 -32 14 -53 -15 -40 -12 -68 10 -82 11 -7 20 -23 20 -36 0 -14
5 -37 11 -52 5 -16 12 -69 14 -119 3 -49 7 -101 10 -115 3 -14 8 -99 10 -190
5 -167 7 -199 20 -257 5 -23 4 -33 -4 -33 -7 0 -9 -5 -5 -12 4 -6 8 -23 9 -37
2 -14 6 -36 10 -48 5 -15 3 -23 -4 -23 -13 0 -14 -39 -2 -59 7 -11 -1 -22 -32
-43 -23 -15 -57 -39 -76 -53 -18 -14 -37 -22 -42 -20 -11 7 -37 -34 -49 -75
-8 -26 -6 -38 10 -60 25 -34 51 -32 93 8 18 18 36 32 39 32 4 0 20 14 37 31
17 17 35 28 41 24 5 -3 10 1 10 9 0 9 8 16 19 16 11 0 32 10 48 23 15 12 39
28 53 34 55 26 119 53 126 53 3 0 23 13 44 30 20 16 40 27 43 23 4 -3 9 2 13
11 3 9 11 16 16 16 5 0 34 25 63 56 52 54 54 57 58 122 2 37 7 79 11 94 4 17
1 31 -7 40 -8 7 -17 30 -21 51 -4 20 -15 54 -25 74 -11 21 -33 68 -50 104 -17
36 -39 73 -50 83 -17 16 -23 16 -48 4 -37 -17 -40 -52 -12 -114 12 -27 29 -67
39 -89 10 -22 24 -56 33 -75 9 -19 17 -47 19 -62 2 -15 7 -30 11 -34 4 -4 1
-14 -5 -21 -7 -8 -11 -31 -10 -50 3 -38 3 -38 -91 -104 -57 -40 -167 -99 -184
-99 -5 0 -10 10 -10 23 -5 82 -14 182 -23 242 -5 39 -12 131 -15 205 -10 249
-17 334 -31 419 -16 98 -17 104 -6 97 5 -3 52 17 105 44 54 27 99 48 101 47 1
-1 35 22 75 51 39 30 91 65 115 78 37 21 45 22 50 9 3 -8 15 -15 26 -15 11 0
20 -4 20 -8 0 -5 12 -14 26 -21 15 -6 25 -14 22 -16 -3 -3 16 -27 41 -53 25
-27 55 -65 65 -85 11 -19 28 -38 38 -40 10 -3 18 -12 18 -20 0 -17 28 -52 78
-100 18 -17 38 -42 46 -56 70 -134 116 -253 116 -299 0 -10 4 -22 9 -28 12
-14 33 -103 25 -115 -3 -5 -2 -15 3 -22 15 -20 33 -88 37 -142 2 -27 6 -57 9
-65 6 -14 15 -93 23 -190 5 -58 4 -143 -2 -149 -2 -2 1 -10 6 -17 6 -6 10 -16
9 -20 -4 -25 5 -34 42 -46 38 -11 43 -10 58 8 18 22 20 93 7 169 -22 118 -28
169 -30 230 0 28 -4 55 -7 60 -3 6 -7 31 -8 57 -1 25 -9 70 -17 100 -38 135
-47 171 -78 288 -23 91 -41 137 -64 169 -18 24 -32 50 -32 58 0 7 -4 13 -8 13
-4 0 -16 15 -27 33 -18 31 -38 54 -117 140 -21 23 -38 46 -38 52 0 5 -9 16
-20 23 -11 7 -20 18 -20 25 0 18 -127 140 -167 161 -22 11 -33 24 -33 39 0 12
-11 63 -25 112 -14 50 -34 126 -46 170 -11 44 -29 89 -39 100 -10 11 -21 31
-25 45 -8 25 -88 110 -105 110 -5 0 -16 7 -25 17 -18 18 -113 79 -159 103 -16
8 -38 27 -49 43 -12 15 -29 27 -38 27 -28 0 -30 14 -10 56 11 22 27 75 37 119
17 74 22 82 72 130 30 27 64 61 76 74 11 14 35 39 51 57 17 17 31 37 33 45 2
8 10 28 18 44 30 64 34 94 18 148 -21 71 -27 79 -61 99 -23 14 -39 16 -80 9
l-51 -8 -1 76 c0 42 -7 101 -15 132 -8 30 -18 80 -21 110 -6 48 -17 80 -46
141 -5 10 -9 22 -9 28 0 5 -8 18 -17 28 -10 10 -25 29 -33 42 -24 36 -68 77
-103 93 -18 9 -47 29 -66 46 -19 17 -37 29 -39 26 -3 -2 -27 14 -53 36 -27 23
-49 38 -49 34 0 -4 -14 5 -31 19 -31 26 -48 29 -155 26 -38 -1 -53 3 -57 14
-6 16 -57 23 -57 8z m4 -139 c4 -5 54 -8 111 -8 100 0 104 -1 141 -31 22 -17
54 -38 72 -48 18 -9 38 -25 45 -36 6 -11 17 -20 23 -20 18 0 74 -31 74 -41 0
-5 5 -9 11 -9 19 0 49 -41 89 -122 21 -43 36 -78 34 -78 -3 0 -23 11 -45 26
-96 60 -97 61 -234 79 -5 0 -26 4 -45 8 -65 13 -154 18 -414 22 -236 4 -263 2
-309 -15 -27 -11 -54 -17 -58 -14 -10 6 112 124 128 124 6 0 18 6 25 13 31 28
205 117 229 117 9 0 22 6 29 14 10 13 24 17 76 25 6 0 14 -2 18 -6z m-174
-344 c0 -4 17 -3 39 2 49 11 234 4 260 -10 14 -8 22 -8 26 0 4 6 14 7 24 3 9
-3 34 -8 56 -9 143 -8 281 -51 333 -102 7 -7 18 -13 23 -13 5 0 19 -21 30 -47
17 -41 20 -68 19 -183 0 -74 -5 -153 -10 -175 -5 -22 -10 -65 -10 -96 0 -31
-5 -81 -11 -110 -5 -30 -14 -83 -19 -119 -18 -132 -51 -235 -106 -330 -8 -14
-22 -41 -30 -60 -51 -116 -111 -210 -169 -265 -87 -83 -240 -146 -355 -148
-60 -1 -160 27 -160 45 0 4 -3 7 -7 6 -15 -3 -99 42 -118 62 -10 11 -24 20
-31 20 -7 0 -29 16 -48 35 -20 19 -40 35 -46 35 -5 0 -10 3 -10 8 0 4 -23 32
-51 62 -28 30 -77 96 -109 145 -33 50 -64 95 -69 101 -5 6 -20 56 -34 110 -19
80 -24 121 -22 209 3 113 4 126 24 255 6 41 14 100 17 130 12 140 55 271 104
320 3 3 10 14 16 25 6 11 14 18 17 15 3 -3 16 5 29 17 13 11 42 26 65 32 23 6
53 17 68 25 27 14 265 18 265 5z m-683 -471 c-7 -75 -13 -121 -21 -168 -3 -19
-8 -55 -11 -79 -2 -24 -7 -46 -9 -49 -6 -5 -75 69 -76 81 0 4 -9 17 -19 28
-25 27 -35 98 -21 150 18 66 55 92 139 98 23 1 23 -1 18 -61z m1722 8 c21 -25
22 -95 2 -115 -10 -10 -21 -29 -25 -42 -6 -25 -90 -119 -106 -119 -4 0 -10 -6
-13 -12 -10 -28 -16 1 -7 33 6 19 11 70 13 112 1 43 7 81 13 85 6 4 17 22 25
40 12 28 19 32 50 32 20 0 42 -6 48 -14z m-230 -831 c14 -4 46 -21 72 -36 25
-16 51 -29 57 -29 6 0 24 -12 40 -27 16 -16 50 -45 75 -67 50 -41 94 -119 102
-177 2 -19 11 -54 20 -79 8 -24 18 -62 20 -84 3 -23 7 -51 9 -63 3 -14 -1 -24
-12 -28 -9 -3 -42 -28 -72 -55 -54 -50 -134 -96 -157 -91 -7 1 -13 -2 -13 -8
0 -11 -78 -57 -112 -66 -26 -7 -68 18 -68 40 0 6 -9 17 -20 25 -11 8 -25 30
-31 50 -7 19 -19 46 -29 60 -9 14 -26 49 -39 78 -12 29 -30 61 -40 71 -10 10
-20 22 -22 27 -4 9 -50 48 -88 74 -11 8 -21 17 -21 20 0 3 31 37 68 75 55 57
80 94 131 197 61 121 65 126 85 113 12 -7 32 -16 45 -20z m-1304 -127 c98
-120 117 -138 198 -196 70 -49 76 -56 60 -67 -10 -7 -35 -15 -55 -19 -21 -4
-38 -12 -38 -18 0 -5 -7 -8 -15 -5 -8 4 -22 -4 -33 -17 -10 -13 -36 -33 -57
-45 -40 -22 -94 -59 -128 -86 -9 -8 -19 -15 -22 -15 -2 0 -15 -10 -29 -22 -13
-13 -41 -32 -63 -43 -21 -11 -44 -26 -51 -32 -12 -12 -18 -14 -48 -17 -6 -1
-18 -6 -25 -12 -20 -15 -91 -34 -128 -34 -59 0 -71 14 -71 80 0 32 5 62 10 65
6 3 10 15 10 26 0 10 5 19 10 19 6 0 10 5 10 11 0 6 22 57 49 113 41 82 65
117 133 188 61 64 212 198 223 198 1 0 28 -33 60 -72z m910 -329 c33 -25 52
-46 48 -53 -4 -6 -8 -29 -9 -51 -2 -77 -16 -169 -30 -209 -7 -23 -14 -51 -14
-63 0 -13 -5 -23 -10 -23 -6 0 -15 -12 -22 -27 -31 -76 -63 -139 -75 -146 -7
-4 -13 -14 -13 -21 0 -24 -150 -78 -193 -69 -62 12 -91 29 -143 82 -68 70
-136 150 -151 177 -32 62 -49 84 -75 95 -15 6 -44 31 -63 54 -20 23 -51 51
-70 61 -19 10 -35 22 -35 25 0 4 19 16 43 28 54 27 80 43 89 56 4 5 13 10 20
10 30 2 89 18 94 26 3 5 22 16 42 25 20 8 40 20 43 26 6 9 21 8 61 -4 55 -18
151 -34 178 -30 53 7 170 39 195 53 17 10 31 18 33 18 2 1 27 -18 57 -40z
m-185 -793 c0 -19 5 -38 11 -41 6 -4 9 -28 8 -54 -2 -29 3 -55 12 -68 16 -22
60 -37 100 -34 23 2 27 -2 25 -22 0 -14 -4 -23 -8 -20 -5 2 -8 1 -8 -4 0 -4
-20 -19 -44 -31 -46 -25 -60 -48 -44 -76 11 -19 14 -228 4 -245 -4 -5 -12 -8
-19 -5 -7 2 -30 -2 -50 -11 -62 -26 -72 -22 -72 33 0 26 -4 84 -8 130 -4 49
-4 90 2 100 8 14 4 25 -15 45 -14 15 -30 28 -37 28 -49 5 -95 3 -114 -3 -25
-8 -28 -5 -37 39 l-7 31 53 5 c70 6 121 17 132 27 5 5 8 49 7 99 -1 50 2 92 6
92 4 1 18 3 31 4 12 1 25 5 29 9 3 3 15 6 25 6 14 0 18 -8 18 -34z"/>
<path d="M2300 3368 c-19 -10 -42 -18 -52 -18 -31 0 -48 -12 -48 -35 0 -49 43
-59 113 -25 39 18 58 21 99 17 28 -4 55 -12 58 -18 6 -8 13 -8 29 0 25 14 29
62 5 82 -26 21 -163 20 -204 -3z"/>
<path d="M3030 3370 c-132 -17 -226 -125 -134 -154 15 -5 24 0 34 19 8 15 22
25 36 25 12 0 24 5 26 11 9 26 168 17 168 -10 0 -3 9 -12 21 -19 27 -17 49 0
49 37 0 30 -37 70 -83 89 -30 13 -34 13 -117 2z"/>
<path d="M2358 3223 c-8 -10 -15 -26 -15 -35 1 -27 32 -51 56 -43 16 5 19 12
15 43 -6 51 -30 65 -56 35z"/>
<path d="M3039 3217 c-29 -40 -30 -60 -3 -91 14 -15 26 -27 27 -25 1 2 8 14
15 26 17 31 15 64 -6 90 l-17 22 -16 -22z"/>
<path d="M2596 2861 c-15 -17 -16 -25 -7 -54 21 -63 75 -97 146 -92 22 2 41 4
43 5 1 2 5 3 10 4 26 6 52 30 52 49 -1 52 -33 66 -84 37 -34 -19 -86 -17 -86
4 0 6 -13 23 -29 39 -27 27 -28 27 -45 8z"/>
<path d="M2907 2515 c-39 -39 -246 -74 -280 -47 -7 5 -33 15 -59 23 -27 7 -48
17 -48 21 0 14 -37 8 -50 -7 -11 -13 -10 -20 6 -41 18 -24 37 -36 124 -78 45
-21 134 -22 182 -2 21 9 51 16 67 16 16 0 33 5 36 10 4 6 12 10 18 9 12 -2 40
6 67 20 8 5 16 20 18 35 6 46 -49 73 -81 41z"/>
</g>
</svg>
