<?xml version="1.0" standalone="no"?>
<!DOCTYPE svg PUBLIC "-//W3C//DTD SVG 20010904//EN"
 "http://www.w3.org/TR/2001/REC-SVG-20010904/DTD/svg10.dtd">
<svg version="1.0" xmlns="http://www.w3.org/2000/svg"
 width="555.000000pt" height="471.000000pt" viewBox="0 0 555.000000 471.000000"
 preserveAspectRatio="xMidYMid meet">
<metadata>
Created by potrace 1.16, written by Peter Selinger 2001-2019
</metadata>
<g transform="translate(0.000000,471.000000) scale(0.100000,-0.100000)"
fill="#000000" stroke="none">
<path d="M373 4455 c-7 -8 -13 -28 -13 -45 0 -36 12 -42 127 -63 93 -18 191
-44 215 -57 10 -6 23 -10 29 -10 6 0 41 -14 77 -31 37 -17 76 -35 87 -39 17
-6 178 -123 222 -160 7 -5 18 -10 24 -10 22 0 178 -172 214 -236 19 -34 34
-67 33 -71 -1 -4 2 -26 6 -48 12 -55 13 -85 4 -85 -16 0 -7 -28 16 -53 24 -26
27 -27 118 -21 303 17 396 10 503 -40 220 -103 371 -185 418 -227 9 -9 30 -22
45 -30 29 -14 100 -65 117 -83 6 -6 31 -28 58 -49 26 -21 47 -46 47 -55 0 -10
36 -55 81 -102 44 -47 92 -101 105 -120 52 -75 71 -107 89 -150 11 -25 25 -50
31 -56 11 -13 65 -7 75 8 3 5 18 10 32 12 14 1 32 7 39 12 43 31 175 88 207
90 22 1 43 4 48 7 21 13 158 4 225 -14 40 -11 90 -23 112 -26 114 -16 393 -98
423 -125 10 -9 41 -27 70 -42 28 -14 54 -30 58 -36 3 -5 14 -10 24 -10 10 0
26 -9 36 -20 10 -11 24 -20 31 -20 7 0 21 -10 31 -23 10 -13 26 -26 36 -30 9
-3 17 -13 17 -21 0 -14 36 -46 53 -46 15 0 67 61 67 80 0 10 6 25 13 32 6 7
13 20 15 28 9 39 161 200 189 200 7 0 13 5 13 10 0 14 79 90 94 90 6 0 30 18
54 40 24 22 45 40 48 40 3 0 20 11 37 24 44 32 96 56 122 56 13 0 28 7 35 15
15 18 84 50 128 59 60 14 96 84 58 115 -19 16 -79 5 -110 -20 -13 -11 -30 -19
-38 -19 -7 0 -49 -18 -93 -40 -44 -22 -85 -40 -92 -40 -7 0 -13 -4 -13 -10 0
-5 -9 -10 -19 -10 -10 0 -41 -19 -67 -42 -27 -24 -65 -54 -84 -67 -19 -13 -42
-30 -50 -36 -30 -24 -250 -248 -250 -256 0 -4 -13 -19 -30 -32 -16 -14 -30
-30 -30 -36 0 -6 -2 -11 -5 -11 -8 0 -80 42 -96 56 -8 8 -23 14 -32 14 -9 0
-17 4 -17 8 0 5 -11 14 -25 20 -14 7 -37 18 -52 25 -15 6 -38 22 -51 34 -13
12 -49 28 -79 34 -31 7 -70 22 -87 34 -18 12 -43 21 -56 19 -14 -1 -58 9 -98
22 -40 13 -86 24 -103 24 -34 0 -119 19 -134 30 -35 25 -293 36 -349 15 -49
-19 -109 -45 -130 -56 -16 -9 -132 -49 -142 -49 -2 0 -4 9 -4 20 0 10 -6 23
-13 27 -6 4 -26 28 -42 53 -47 71 -123 162 -166 198 -21 18 -50 55 -65 83 -15
27 -31 49 -35 49 -4 0 -31 23 -61 51 -29 28 -73 60 -98 71 -47 22 -91 51 -122
80 -9 10 -53 36 -95 58 -43 23 -89 47 -103 55 -14 7 -83 42 -155 76 -154 74
-205 83 -457 82 l-167 0 -6 41 c-4 23 -12 61 -20 86 -7 25 -12 47 -12 50 0 3
-10 24 -22 48 -34 67 -196 232 -266 270 -32 19 -79 51 -102 73 -23 21 -69 52
-102 68 -32 15 -85 44 -117 64 -47 28 -133 56 -181 59 -5 0 -37 11 -73 24 -36
12 -84 25 -106 27 -23 3 -51 10 -62 16 -27 14 -44 13 -59 -4z"/>
<path d="M306 4184 c-23 -22 -20 -60 5 -78 17 -12 43 -14 125 -9 70 3 104 2
104 -5 0 -6 8 -11 18 -11 18 1 78 -20 102 -36 8 -5 49 -26 90 -46 41 -20 84
-46 94 -58 11 -11 25 -21 32 -21 19 0 165 -149 174 -179 5 -14 20 -57 35 -96
15 -38 28 -90 29 -115 l1 -45 -50 1 c-27 0 -69 4 -92 8 l-43 9 -21 -48 c-11
-26 -33 -66 -49 -88 -15 -23 -44 -68 -65 -99 -21 -32 -41 -58 -45 -58 -4 0 -5
-11 -3 -23 4 -21 -2 -26 -55 -45 -98 -36 -195 -164 -244 -322 -42 -132 -47
-151 -53 -210 -3 -30 -10 -82 -17 -115 -6 -33 -11 -124 -10 -201 1 -126 4
-149 28 -213 14 -39 29 -71 33 -71 3 0 24 -16 45 -35 22 -19 48 -35 57 -35 10
0 20 -4 23 -9 6 -9 145 -25 205 -23 19 1 48 6 65 11 17 6 42 12 56 14 14 2 43
11 64 20 22 10 51 20 65 24 30 7 108 48 131 67 8 8 24 16 35 20 11 3 54 38 96
78 98 95 204 254 254 383 31 79 55 153 55 168 0 9 4 17 9 17 13 0 -5 61 -21
71 -8 5 -3 16 18 36 17 15 47 50 67 77 21 26 53 64 73 82 29 28 35 41 32 67
-6 51 -42 108 -102 161 -31 26 -53 52 -50 57 5 9 77 30 103 30 28 0 219 -37
251 -48 8 -3 22 -7 30 -8 62 -8 212 -63 260 -96 69 -47 147 -123 156 -152 7
-21 72 -110 111 -152 27 -29 66 -95 56 -95 -4 0 -2 -4 6 -9 22 -14 67 -152 53
-165 -2 -3 -24 -3 -47 1 -39 5 -45 2 -79 -31 -20 -20 -36 -39 -36 -41 0 -3
-18 -32 -40 -64 -22 -32 -40 -64 -40 -70 0 -7 -7 -25 -15 -40 -8 -16 -17 -55
-20 -87 -7 -58 -18 -84 -37 -84 -14 0 -78 -65 -78 -79 0 -6 -3 -11 -8 -11 -4
0 -18 -25 -31 -55 -13 -30 -27 -55 -32 -55 -4 0 -10 -14 -14 -30 -4 -17 -10
-30 -14 -30 -12 0 -48 -129 -51 -182 -1 -4 -7 -22 -14 -40 -8 -20 -10 -41 -6
-53 4 -11 6 -61 3 -111 -5 -80 -2 -99 23 -174 15 -46 27 -90 27 -97 0 -7 5
-13 10 -13 5 0 7 -9 4 -20 -3 -11 -1 -20 4 -20 5 0 12 -12 15 -26 4 -14 17
-48 31 -76 33 -69 83 -91 213 -92 94 -1 104 2 210 46 79 34 94 42 135 73 22
17 53 37 68 45 16 8 44 30 62 50 45 46 145 178 159 210 6 14 26 47 44 73 17
27 32 57 32 67 0 10 7 23 14 30 8 6 20 28 27 48 6 20 17 44 25 52 7 8 20 44
29 80 9 36 20 82 25 102 6 21 6 47 1 59 -6 16 -1 41 17 84 13 33 33 83 44 110
11 28 26 64 33 80 19 41 21 85 7 112 -11 19 -9 22 18 28 17 4 30 13 30 20 0 9
28 23 73 36 110 33 283 35 424 3 60 -13 124 -31 143 -41 19 -9 40 -17 45 -19
30 -5 124 -51 152 -73 29 -23 30 -27 15 -35 -9 -6 -32 -9 -49 -7 -19 1 -33 -2
-33 -8 0 -6 -7 -11 -15 -11 -9 0 -20 -11 -25 -24 -5 -13 -14 -26 -22 -28 -11
-4 -13 -58 -4 -148 1 -14 -4 -41 -11 -60 -18 -45 -18 -141 -1 -177 7 -15 23
-32 36 -38 31 -14 28 -29 -18 -79 -22 -23 -37 -45 -35 -48 3 -3 -5 -36 -17
-74 -20 -59 -22 -79 -15 -144 9 -90 45 -258 57 -265 5 -3 14 -22 21 -43 19
-59 170 -191 269 -235 25 -11 49 -26 53 -33 4 -8 15 -14 22 -14 8 0 15 -4 15
-8 0 -12 60 -45 104 -59 58 -17 119 -6 174 33 26 19 51 34 56 34 20 0 101 124
111 170 4 19 14 44 21 55 7 11 20 43 29 70 9 28 19 57 22 65 3 8 8 26 10 40 2
14 11 61 19 105 18 86 26 281 14 305 -14 29 -22 92 -10 85 6 -4 24 -1 40 5 27
11 29 15 25 54 -3 22 -7 52 -10 66 -3 14 -7 72 -9 130 -5 109 -8 124 -34 176
-18 38 -74 59 -139 55 -34 -2 -43 1 -43 13 0 9 5 16 11 16 5 0 8 4 5 8 -5 9
31 86 63 137 11 17 29 49 41 72 12 23 48 70 81 105 33 35 68 71 76 80 9 10 29
23 45 30 15 7 28 17 28 21 0 5 5 5 10 2 6 -3 10 -2 10 3 0 9 162 122 176 122
4 0 34 10 66 22 l59 21 -3 40 c-3 38 -6 41 -35 44 -17 2 -34 -1 -38 -7 -3 -5
-14 -10 -24 -10 -25 0 -138 -58 -189 -97 -24 -18 -48 -33 -54 -33 -11 0 -124
-94 -149 -125 -9 -11 -46 -50 -83 -88 -36 -37 -66 -74 -66 -81 0 -7 -6 -19
-14 -25 -8 -7 -18 -26 -21 -42 -4 -17 -26 -54 -50 -83 -45 -56 -61 -89 -56
-119 2 -15 -2 -17 -18 -12 -11 3 -43 6 -71 7 -27 0 -80 8 -117 17 -38 10 -85
16 -105 13 -38 -4 -38 -4 -38 32 0 26 -5 39 -17 43 -10 4 -32 17 -49 30 -17
13 -36 23 -42 23 -7 0 -12 5 -12 10 0 6 -7 10 -15 10 -7 0 -18 6 -22 13 -4 8
-30 21 -58 31 -97 33 -247 76 -277 78 -16 1 -32 6 -34 10 -3 4 -31 10 -64 14
-33 4 -65 13 -71 21 -10 11 -14 11 -20 1 -5 -7 -25 -13 -46 -14 -21 -1 -54 -4
-73 -7 -19 -3 -62 -9 -95 -12 -41 -3 -86 -18 -150 -49 -115 -55 -145 -62 -187
-43 -40 18 -110 39 -203 62 -38 9 -87 25 -108 35 -21 10 -51 22 -68 25 -16 4
-28 12 -27 18 1 7 -3 28 -10 47 -6 19 -14 48 -16 65 -3 16 -11 43 -18 60 -14
34 -107 182 -129 205 -8 8 -39 49 -69 90 -66 92 -69 96 -100 125 -38 35 -192
135 -210 135 -8 0 -35 7 -60 16 -43 15 -179 52 -210 58 -8 1 -22 5 -30 8 -28
11 -133 28 -175 28 -52 0 -155 -20 -155 -30 0 -4 -13 -13 -29 -20 -31 -12 -52
-6 -91 27 -22 19 -177 83 -200 83 -12 0 -15 8 -12 36 3 20 0 39 -7 43 -6 4
-13 29 -16 56 -3 27 -9 51 -13 54 -5 3 -17 31 -27 61 -36 108 -75 160 -207
273 -63 55 -140 107 -167 113 -14 4 -33 12 -41 19 -8 6 -32 19 -52 28 -21 9
-53 24 -71 32 -71 33 -294 46 -321 19z m809 -805 c4 -6 13 -8 21 -5 21 8 28
-13 10 -33 -9 -10 -16 -22 -16 -27 0 -14 -54 -116 -72 -138 -10 -11 -18 -26
-18 -33 0 -10 -13 -13 -50 -11 -27 2 -50 6 -50 11 0 4 5 7 10 7 6 0 10 4 10
10 0 22 57 129 94 177 43 55 51 60 61 42z m-145 -75 c-28 -42 -50 -81 -50 -86
0 -6 -9 -21 -20 -35 l-20 -26 0 36 c0 21 15 64 36 105 35 68 44 75 91 81 7 0
-10 -33 -37 -75z m300 31 c14 -8 19 -14 13 -15 -8 0 -13 -13 -13 -30 0 -29
-18 -80 -32 -90 -4 -3 -15 -26 -26 -50 -11 -25 -29 -53 -40 -63 -19 -18 -22
-18 -55 -2 -28 13 -34 20 -29 38 5 22 84 150 106 173 6 6 18 21 26 33 17 25
17 25 50 6z m118 -55 c12 -11 26 -20 32 -20 5 0 10 -2 10 -4 0 -10 -27 -64
-43 -86 -47 -66 -88 -135 -93 -156 -8 -30 -25 -30 -60 -1 l-27 24 26 39 c15
21 27 42 27 46 0 4 20 39 45 77 25 38 45 77 45 85 0 21 12 20 38 -4z m141 -94
l23 -25 -43 -70 c-24 -39 -47 -71 -51 -71 -5 0 -8 -5 -8 -12 0 -17 -49 -78
-63 -78 -7 0 -22 7 -34 15 l-21 15 24 47 c13 27 30 57 37 68 6 11 25 41 41 68
16 26 35 47 43 47 7 0 13 5 13 10 0 17 15 11 39 -14z m110 -102 c22 -36 22
-37 3 -58 -11 -11 -28 -32 -38 -45 -11 -14 -37 -45 -60 -69 -36 -40 -43 -43
-63 -33 -17 9 -20 18 -15 34 4 12 10 24 15 27 4 3 14 19 21 36 20 44 91 144
105 144 6 0 21 -16 32 -36z m-753 -25 c3 -5 15 -9 28 -9 44 0 147 -41 219 -87
39 -26 74 -50 75 -55 2 -4 11 -8 19 -8 20 0 173 -81 173 -92 0 -4 8 -8 18 -8
34 -1 62 -36 62 -77 0 -22 -3 -43 -7 -47 -5 -4 -8 -11 -9 -14 -2 -30 -17 -72
-26 -72 -5 0 -8 -6 -5 -12 5 -17 -33 -92 -99 -193 -78 -120 -145 -193 -212
-232 -26 -15 -49 -30 -52 -33 -3 -3 -23 -13 -45 -22 -117 -49 -179 -69 -221
-72 -25 -2 -47 -6 -50 -9 -6 -6 -118 0 -152 8 -13 3 -41 17 -62 31 -31 21 -41
36 -59 94 -36 112 -27 261 29 545 12 60 42 135 53 135 5 0 5 5 2 10 -4 6 7 33
24 60 17 28 31 54 31 58 1 11 44 58 71 75 13 9 49 19 79 22 30 4 59 10 63 14
10 10 45 3 53 -10z m1869 -629 c7 -11 -63 -147 -133 -259 -5 -7 -18 -11 -28
-9 -23 4 -27 59 -8 98 7 14 27 54 44 90 17 36 41 72 52 81 20 15 63 15 73 -1z
m-179 -57 c-13 -27 -32 -67 -42 -90 -11 -24 -22 -43 -26 -43 -5 0 -8 -9 -8
-20 0 -23 -8 -25 -32 -6 -23 17 -23 25 7 89 31 65 77 117 104 117 20 0 20 -1
-3 -47z m283 18 c18 -12 1 -62 -50 -154 -22 -38 -39 -75 -39 -83 0 -8 -4 -14
-10 -14 -5 0 -10 -11 -10 -25 0 -14 -6 -25 -13 -25 -21 0 -67 24 -67 35 1 26
124 245 142 253 5 2 6 8 2 13 -7 11 26 12 45 0z m139 -44 c7 -8 8 -25 2 -47
-17 -71 -92 -244 -110 -255 -17 -11 -92 26 -81 39 5 6 12 29 16 51 4 22 12 46
17 52 6 7 22 36 37 65 49 94 92 128 119 95z m127 -47 c4 -6 10 -8 15 -5 16 10
20 -13 5 -25 -8 -7 -15 -24 -15 -39 0 -14 -9 -46 -20 -70 -11 -24 -20 -49 -20
-56 0 -13 -35 -97 -45 -106 -3 -4 -26 1 -52 9 -26 9 -42 17 -35 20 7 2 12 11
12 20 0 10 13 42 29 73 15 30 31 69 34 86 13 66 72 126 92 93z m105 -61 c0
-35 -59 -202 -81 -228 -24 -29 -32 -24 -20 15 5 16 19 61 31 99 34 112 70 169
70 114z m1114 -211 c-3 -57 -9 -121 -14 -143 -5 -22 -8 -48 -6 -59 3 -22 29
-38 49 -30 22 8 39 52 28 73 -6 10 -8 40 -6 67 18 202 18 201 53 190 17 -6 19
-11 12 -36 -6 -22 -5 -30 7 -34 12 -5 14 -15 8 -44 -10 -48 -12 -126 -4 -178
l5 -42 -59 -6 c-152 -16 -156 -12 -158 116 -2 131 27 228 67 228 22 0 23 -1
18 -102z m-139 10 c-4 -40 -6 -110 -6 -155 1 -64 -2 -83 -13 -83 -30 0 -39 28
-31 98 5 37 9 96 9 132 1 63 8 77 40 79 4 1 5 -32 1 -71z m-1662 43 c6 -6 18
-11 26 -11 8 0 31 -11 52 -25 20 -14 49 -28 65 -31 16 -3 56 -16 89 -28 104
-40 297 -95 333 -96 26 0 27 -11 4 -95 -17 -60 -110 -247 -180 -360 -37 -61
-205 -235 -226 -235 -7 0 -28 -12 -47 -26 -87 -66 -218 -100 -308 -80 -62 14
-78 28 -95 85 -13 42 -46 127 -68 177 -15 32 -18 71 -18 184 1 117 19 210 54
285 13 28 36 77 51 110 18 39 47 78 84 113 l56 54 59 -5 c32 -3 63 -10 69 -16z
m2033 8 c-13 -8 -15 -14 -7 -19 21 -13 42 -125 29 -160 -6 -17 -8 -49 -5 -71
4 -33 2 -39 -14 -39 -16 0 -18 6 -14 35 2 19 0 35 -5 35 -5 0 -6 8 -3 17 5 12
2 15 -10 10 -14 -5 -17 0 -18 31 -1 20 0 42 1 47 1 6 4 36 7 68 5 54 7 57 32
57 24 -1 24 -2 7 -11z m129 -9 c-3 -5 1 -31 10 -57 9 -26 15 -63 14 -83 -2
-20 0 -40 3 -45 3 -6 3 -27 1 -47 -4 -27 -10 -38 -22 -38 -9 0 -25 -3 -36 -6
-20 -5 -20 -1 -19 133 1 76 3 141 3 146 1 4 13 7 27 7 14 0 22 -4 19 -10z
m128 -6 c3 -4 2 -15 -4 -26 -7 -14 -5 -35 7 -76 9 -31 18 -78 20 -104 2 -43 0
-48 -19 -48 -12 0 -26 4 -32 8 -5 4 -12 62 -13 130 -4 115 -3 122 15 122 11 0
23 -3 26 -6z m116 -42 c6 -15 9 -47 8 -72 -2 -25 1 -65 5 -89 9 -51 4 -65 -21
-51 -13 6 -17 17 -14 35 3 14 1 37 -5 53 -17 42 -23 110 -11 118 6 3 9 14 6
24 -7 29 19 13 32 -18z m-63 -351 c45 -52 54 -246 18 -389 -8 -31 -21 -84 -29
-118 -8 -33 -28 -89 -45 -125 -17 -35 -38 -78 -47 -95 -14 -30 -50 -71 -89
-104 -10 -8 -35 -20 -56 -27 -38 -11 -40 -10 -111 41 -40 28 -94 60 -120 70
-27 10 -51 24 -54 32 -3 8 -10 14 -17 14 -16 0 -136 113 -136 128 0 6 -4 12
-9 12 -8 0 -24 46 -26 75 -1 6 -6 20 -13 32 -16 29 -22 68 -26 184 -5 110 9
148 77 223 20 22 37 43 37 46 0 3 66 5 148 6 160 1 337 12 392 24 48 10 79 2
106 -29z m171 23 c-3 -3 -12 -4 -19 -1 -8 3 -5 6 6 6 11 1 17 -2 13 -5z"/>
<path d="M253 3299 c-12 -12 -6 -49 9 -49 5 0 30 -20 56 -44 47 -44 102 -69
102 -47 0 6 -9 16 -20 23 -11 7 -20 16 -20 20 0 5 -11 21 -25 36 -14 16 -31
36 -38 44 -16 22 -51 30 -64 17z"/>
<path d="M153 2974 c-7 -3 -13 -14 -13 -24 0 -36 33 -42 128 -26 55 10 50 29
-9 37 -24 3 -55 9 -69 12 -14 3 -31 3 -37 1z"/>
<path d="M110 2610 c-6 -11 -8 -25 -5 -30 8 -14 167 -11 163 2 -5 13 -54 32
-110 42 -31 6 -39 3 -48 -14z"/>
<path d="M1648 2544 c-17 -17 10 -47 67 -74 89 -43 112 -38 58 12 -61 55 -109
79 -125 62z"/>
<path d="M1487 2203 c-19 -18 -2 -45 54 -87 34 -25 65 -46 70 -46 22 0 5 36
-42 86 -50 52 -68 62 -82 47z"/>
<path d="M2030 2202 c0 -4 19 -16 43 -26 23 -10 45 -23 49 -30 6 -8 12 -8 25
0 23 14 29 44 11 55 -16 11 -128 12 -128 1z"/>
<path d="M217 2103 c-34 -12 -49 -22 -53 -39 -7 -26 1 -44 19 -44 15 1 97 77
97 90 0 13 -5 12 -63 -7z"/>
<path d="M1215 1949 c-5 -16 3 -31 34 -63 23 -23 41 -45 41 -50 0 -17 39 -56
45 -46 10 16 -26 106 -58 145 -33 40 -53 44 -62 14z"/>
<path d="M1877 1941 c-36 -8 -66 -26 -56 -35 2 -2 38 -5 79 -7 74 -4 75 -4 75
21 0 21 -5 25 -30 27 -16 0 -47 -2 -68 -6z"/>
<path d="M977 1860 c-11 -15 -13 -28 -6 -39 5 -9 16 -45 24 -81 9 -36 17 -72
19 -80 3 -8 5 -19 5 -23 1 -5 6 -5 12 -1 8 5 10 38 6 107 -4 81 -9 103 -25
119 -19 20 -20 20 -35 -2z"/>
<path d="M3392 1861 c-24 -15 -10 -46 23 -49 53 -6 135 8 135 24 0 10 -14 14
-54 14 -30 0 -58 5 -61 10 -8 12 -25 13 -43 1z"/>
<path d="M644 1805 c-3 -8 -7 -38 -8 -67 -2 -29 -7 -85 -11 -124 -5 -49 -4
-73 3 -78 11 -7 17 8 26 64 6 37 25 111 38 142 14 38 3 78 -23 78 -11 0 -22
-7 -25 -15z"/>
<path d="M5311 1732 c-56 -3 -95 -22 -112 -53 -13 -26 23 -46 44 -24 8 7 28
17 43 20 49 11 82 26 88 41 7 18 0 20 -63 16z"/>
<path d="M1886 1673 c-49 -32 -85 -73 -86 -96 0 -16 4 -15 33 7 19 14 49 31
68 37 51 18 70 38 58 60 -13 25 -26 23 -73 -8z"/>
<path d="M3294 1616 c-14 -35 21 -56 79 -47 4 1 25 3 47 5 23 2 44 6 48 10 8
8 -25 30 -48 32 -8 1 -39 5 -67 9 -44 6 -54 4 -59 -9z"/>
<path d="M3899 1546 c-2 -3 -30 -6 -61 -7 -73 -3 -118 -21 -118 -49 0 -21 19
-27 36 -10 5 5 45 10 89 12 77 3 80 4 80 27 0 22 -15 38 -26 27z"/>
<path d="M5214 1373 c-26 -26 2 -41 81 -44 65 -2 70 -1 73 19 4 26 -5 30 -81
36 -43 3 -61 1 -73 -11z"/>
<path d="M1908 1317 c-91 -95 -97 -112 -32 -78 54 28 106 78 102 98 -6 31 -28
25 -70 -20z"/>
<path d="M3161 1336 c-14 -17 3 -61 20 -50 5 3 16 1 24 -6 20 -17 120 -9 120
10 0 8 -4 15 -10 16 -25 1 -95 26 -100 34 -9 15 -41 12 -54 -4z"/>
<path d="M3746 1246 c-93 -48 -110 -99 -20 -56 26 12 63 24 81 27 34 6 59 34
48 53 -11 17 -48 9 -109 -24z"/>
<path d="M2987 1152 c-20 -22 -16 -28 54 -80 57 -43 79 -51 79 -29 0 14 -97
127 -109 127 -4 0 -15 -8 -24 -18z"/>
<path d="M2022 1033 c-46 -56 -79 -119 -67 -130 4 -5 10 -1 13 7 5 14 34 44
111 114 35 31 36 49 4 54 -14 2 -33 -12 -61 -45z"/>
<path d="M5163 1029 c-18 -18 -16 -37 5 -43 9 -2 49 -6 87 -8 57 -2 70 0 70
12 0 33 -136 66 -162 39z"/>
<path d="M3934 983 c-9 -16 -38 -60 -65 -100 -58 -87 -40 -84 55 11 53 53 70
77 68 94 -5 31 -38 28 -58 -5z"/>
<path d="M2727 983 c-12 -11 -8 -48 7 -69 8 -11 17 -36 20 -55 8 -50 25 -93
34 -85 11 12 1 138 -15 178 -14 36 -31 47 -46 31z"/>
<path d="M2388 938 c0 -2 -2 -51 -3 -109 -1 -59 -5 -118 -9 -133 -13 -52 12
-24 32 37 24 71 35 176 20 195 -9 10 -35 17 -40 10z"/>
<path d="M4124 802 c-6 -4 -16 -22 -22 -40 -6 -18 -20 -45 -30 -60 -11 -15
-23 -43 -27 -62 -4 -19 -13 -45 -21 -57 -17 -27 -17 -33 -4 -33 6 0 24 29 39
64 16 35 37 70 48 77 10 8 31 34 47 58 22 35 25 45 14 52 -16 11 -30 11 -44 1z"/>
<path d="M5017 702 c-10 -10 -17 -26 -17 -34 0 -18 114 -108 136 -108 24 0 15
29 -18 64 -18 18 -45 47 -59 64 -25 31 -27 31 -42 14z"/>
<path d="M4403 588 c-6 -7 -13 -53 -17 -101 -4 -49 -10 -95 -13 -103 -3 -8 1
-14 11 -14 9 0 16 8 16 19 0 10 11 48 24 84 14 35 24 78 23 93 -3 31 -27 43
-44 22z"/>
<path d="M4707 529 c-23 -13 -22 -34 3 -70 12 -15 26 -51 33 -79 6 -27 16 -49
22 -47 17 6 17 72 0 130 -18 64 -32 80 -58 66z"/>
</g>
</svg>
