<?xml version="1.0" standalone="no"?>
<!DOCTYPE svg PUBLIC "-//W3C//DTD SVG 20010904//EN"
 "http://www.w3.org/TR/2001/REC-SVG-20010904/DTD/svg10.dtd">
<svg version="1.0" xmlns="http://www.w3.org/2000/svg"
 width="373.000000pt" height="483.000000pt" viewBox="0 0 373.000000 483.000000"
 preserveAspectRatio="xMidYMid meet">
<metadata>
Created by potrace 1.16, written by Peter Selinger 2001-2019
</metadata>
<g transform="translate(0.000000,483.000000) scale(0.100000,-0.100000)"
fill="#000000" stroke="none">
<path d="M1461 4721 c-17 -16 -31 -34 -31 -40 0 -6 -7 -11 -15 -11 -8 0 -15 8
-15 19 0 40 -93 34 -114 -8 -7 -14 -11 -32 -9 -38 5 -15 33 -18 33 -4 0 19 32
19 51 0 16 -16 18 -23 9 -34 -8 -10 -18 -12 -29 -6 -9 5 -23 6 -31 2 -30 -15
-45 -6 -48 27 -4 38 -15 41 -36 10 -9 -12 -17 -18 -17 -13 -1 6 -3 23 -5 39
-2 16 -10 36 -18 44 -13 14 -19 12 -52 -14 -20 -16 -48 -36 -63 -45 -14 -9
-25 -24 -25 -33 1 -9 -2 -16 -6 -16 -5 0 -11 -9 -15 -20 -4 -14 4 -32 27 -60
43 -52 74 -53 128 -4 28 26 46 35 61 31 11 -3 34 -1 50 5 21 7 33 7 43 -1 21
-18 60 5 80 47 l18 36 37 -42 c29 -32 42 -40 59 -35 12 3 22 9 22 14 0 5 6 9
14 9 7 0 19 7 26 15 19 23 37 18 43 -14 7 -35 20 -40 81 -34 39 5 54 13 88 49
42 44 59 44 51 0 -8 -40 30 -65 89 -60 59 5 72 14 100 67 21 43 18 87 -7 87
-8 0 -15 4 -15 9 0 29 -70 12 -108 -26 -10 -9 -18 -11 -26 -3 -7 5 -16 7 -19
3 -4 -3 -7 0 -7 9 0 8 -11 24 -25 36 -14 12 -25 19 -25 16 0 -4 -6 -2 -13 4
-7 6 -29 9 -48 6 -39 -7 -79 -54 -79 -92 0 -31 38 -30 45 1 9 32 40 50 65 37
27 -15 25 -30 -7 -61 -33 -30 -93 -46 -93 -24 0 7 -10 22 -22 32 -17 13 -22
26 -20 50 2 23 -3 35 -19 47 -20 13 -25 13 -51 0 -27 -14 -32 -14 -47 0 -23
21 -24 21 -60 -13z m129 -51 c0 -14 -49 -60 -64 -60 -7 0 -17 10 -23 23 -9 20
-7 22 16 24 14 0 27 6 29 12 4 13 42 15 42 1z m413 -25 c4 -8 2 -17 -4 -20 -5
-4 -7 -10 -4 -15 6 -9 -9 -14 -67 -23 -42 -6 -35 17 15 47 50 30 53 31 60 11z
m-838 -45 c-1 -14 -3 -29 -4 -35 -1 -12 -50 -36 -55 -27 -2 4 -7 21 -11 39 -6
29 -3 34 27 52 36 23 48 15 43 -29z"/>
<path d="M2130 4692 c-51 -25 -60 -40 -56 -101 4 -63 14 -72 89 -76 40 -2 59
3 84 20 18 12 31 24 28 27 -3 3 4 13 14 23 20 17 20 17 15 -17 -10 -60 33 -82
115 -58 28 8 38 6 59 -10 14 -11 33 -18 42 -15 22 7 59 -7 88 -35 13 -12 30
-19 38 -16 12 4 14 1 9 -14 -10 -31 30 -92 75 -114 38 -18 39 -18 83 3 44 21
60 43 72 95 5 24 0 34 -37 70 -39 39 -47 42 -85 38 -23 -2 -47 -10 -54 -18
-14 -18 -28 -18 -48 0 -23 19 -170 65 -177 54 -14 -22 -20 6 -10 51 8 44 7 53
-8 70 -21 23 -74 36 -104 26 -12 -3 -29 -20 -40 -36 l-19 -31 -24 34 c-13 18
-28 36 -34 40 -18 13 -78 7 -115 -10z m108 -48 c32 -32 -9 -95 -49 -74 -11 6
-29 8 -39 5 -18 -6 -20 -2 -20 33 0 35 4 42 28 50 30 10 61 5 80 -14z m190
-26 c2 -8 -2 -27 -8 -42 -8 -22 -15 -27 -38 -24 -21 2 -26 8 -24 23 2 11 4 31
4 45 0 14 5 28 11 32 14 9 51 -14 55 -34z m371 -177 c10 -10 24 -20 31 -23 10
-3 9 -11 -4 -36 -20 -39 -58 -43 -93 -10 -30 28 -29 42 3 67 33 26 39 26 63 2z"/>
<path d="M940 4536 c-69 -33 -71 -34 -58 -55 9 -15 17 -16 62 -8 68 13 100 54
59 75 -13 6 -32 3 -63 -12z"/>
<path d="M775 4525 c-5 -2 -22 -6 -37 -9 -19 -4 -28 -13 -28 -26 0 -11 -6 -20
-14 -20 -14 0 -26 -29 -26 -68 0 -27 37 -61 87 -78 32 -11 41 -11 65 4 15 9
36 34 47 57 18 37 18 42 3 70 -9 17 -15 33 -14 37 4 15 -59 40 -83 33z m42
-75 c10 -27 9 -34 -11 -57 l-23 -26 -31 18 c-30 18 -30 19 -12 32 11 8 20 23
20 33 0 16 8 22 40 29 3 0 11 -13 17 -29z"/>
<path d="M606 4363 c-3 -4 -6 -14 -6 -23 0 -9 -20 -31 -45 -49 -25 -18 -45
-39 -45 -47 0 -10 -12 -14 -40 -14 -37 0 -42 -4 -70 -47 -20 -31 -29 -57 -26
-73 3 -19 -7 -37 -45 -77 -43 -45 -48 -56 -39 -73 6 -11 8 -20 4 -20 -4 0 0
-8 9 -18 16 -17 15 -20 -6 -40 -52 -49 -57 -68 -33 -127 12 -29 12 -36 1 -45
-8 -7 -17 -21 -21 -33 -4 -12 -17 -29 -30 -39 l-23 -19 19 -41 c10 -23 26 -48
35 -54 20 -15 12 -74 -10 -74 -7 0 -15 -5 -17 -12 -7 -21 4 -58 16 -58 7 0 18
-16 24 -36 9 -30 7 -42 -13 -86 -24 -51 -23 -74 1 -94 12 -10 12 -17 -1 -47
-27 -66 -21 -83 34 -102 l49 -16 4 -59 c3 -47 9 -63 29 -78 22 -19 23 -21 7
-39 -10 -11 -14 -24 -8 -33 4 -8 7 -35 6 -60 -1 -57 22 -81 78 -78 32 2 40 -1
47 -20 5 -12 16 -22 26 -22 12 0 24 -14 35 -39 24 -56 67 -63 83 -13 5 19 3
25 -15 29 -12 3 -29 23 -42 49 -11 24 -24 44 -29 44 -15 0 -10 37 6 54 18 17
19 42 4 84 -13 39 -49 52 -114 42 -28 -4 -51 -7 -53 -5 -2 2 2 12 10 24 11 17
10 22 -4 33 -21 16 -33 64 -19 72 6 4 11 20 11 35 0 15 9 36 20 46 39 35 21
125 -26 125 l-24 0 25 49 c14 28 22 56 19 64 -2 7 -21 18 -40 23 l-36 9 30 30
c49 51 57 73 35 103 -10 14 -33 33 -51 42 l-32 17 40 44 c48 52 57 78 38 116
-13 26 -12 31 16 71 16 23 33 42 38 42 4 0 8 11 8 23 0 25 -25 60 -50 70 -11
4 -9 6 5 6 34 2 119 151 86 151 -28 0 12 64 55 88 9 5 17 25 19 48 4 58 24 94
56 101 32 6 43 27 29 53 -10 19 -35 32 -44 23z m-102 -179 c14 -5 14 -8 0 -28
-18 -28 -63 -51 -76 -38 -6 6 -5 19 4 33 21 38 38 46 72 33z m-55 -159 c7 -8
-40 -73 -57 -77 -9 -2 -25 4 -34 14 -16 16 -16 19 9 48 21 26 31 30 52 25 14
-4 28 -8 30 -10z m-47 -193 c9 -9 7 -16 -8 -33 -23 -26 -69 -51 -78 -42 -7 8
-8 56 -1 75 7 18 69 18 87 0z m-52 -180 c0 -27 -63 -97 -79 -87 -12 7 -4 69 9
73 5 2 10 10 10 17 0 17 29 35 47 28 7 -3 13 -17 13 -31z m-6 -203 c17 -20 17
-22 -5 -45 -27 -29 -49 -31 -49 -5 0 11 -4 23 -10 26 -14 8 11 45 30 45 9 0
24 -9 34 -21z m16 -177 c0 -6 -32 -67 -42 -78 -12 -16 -48 -6 -48 13 0 8 7 27
15 44 13 24 21 29 45 27 17 -1 30 -4 30 -6z m30 -154 c0 -20 -43 -58 -64 -58
-50 1 -51 18 -1 49 46 29 65 32 65 9z m126 -323 c9 -21 -17 -72 -42 -84 -44
-20 -59 -8 -62 46 l-3 50 51 1 c36 1 53 -3 56 -13z"/>
<path d="M2896 4354 c-31 -31 -13 -74 31 -74 13 0 23 -6 23 -13 0 -6 11 -33
25 -58 21 -40 23 -51 13 -76 -10 -25 -7 -34 17 -71 15 -23 33 -42 39 -42 6 0
11 -19 12 -45 1 -37 8 -53 42 -94 37 -43 41 -53 32 -75 -5 -14 -16 -26 -24
-26 -8 0 -17 -9 -21 -19 -10 -33 6 -70 46 -104 38 -33 39 -48 7 -60 -22 -8
-22 -33 -3 -67 8 -14 14 -35 15 -47 0 -13 8 -31 19 -42 11 -11 15 -24 11 -31
-6 -9 -9 -9 -13 1 -4 11 -11 8 -26 -10 -25 -28 -27 -58 -5 -83 16 -16 16 -18
0 -24 -19 -7 -21 -53 -4 -101 10 -27 10 -38 -1 -55 -17 -27 -6 -35 58 -42 30
-3 56 -8 58 -10 3 -3 2 -18 -1 -33 -7 -32 -66 -76 -66 -50 0 7 -13 26 -29 41
-50 48 -79 14 -30 -35 15 -15 16 -23 8 -49 -6 -17 -8 -37 -5 -46 8 -22 -10
-51 -36 -57 -14 -4 -31 -23 -44 -49 -34 -66 -36 -79 -18 -99 15 -16 14 -19
-11 -41 -15 -13 -33 -28 -39 -33 -6 -6 -25 -10 -43 -11 -18 0 -57 -11 -88 -24
-44 -19 -56 -28 -54 -44 3 -39 -1 -43 -38 -50 -60 -9 -100 -39 -106 -78 -2
-18 -3 -36 0 -40 7 -12 31 3 36 23 6 21 63 50 83 42 23 -8 28 -62 8 -84 -21
-23 -39 -20 -39 7 0 24 -28 30 -48 10 -8 -9 -34 -18 -56 -22 -53 -8 -91 -38
-91 -70 0 -30 13 -31 32 -3 10 15 25 22 53 23 36 1 40 -1 41 -24 0 -14 -4 -31
-9 -37 -5 -7 -6 -13 -1 -13 4 0 -3 -11 -16 -25 -29 -31 -34 -31 -91 0 -64 33
-97 26 -156 -37 -17 -18 -33 -42 -35 -53 -2 -15 -15 -22 -51 -29 -36 -6 -47
-12 -47 -27 0 -10 -9 -23 -20 -29 -11 -6 -20 -17 -20 -24 0 -17 -93 -58 -114
-50 -10 4 -20 -5 -31 -25 -18 -35 -15 -34 -50 -21 -20 8 -30 7 -41 -5 -9 -8
-26 -15 -40 -15 -13 0 -23 -3 -23 -7 4 -24 -8 -31 -73 -43 -40 -7 -81 -17 -91
-22 -12 -6 -23 -6 -32 2 -8 6 -22 11 -32 10 -34 -4 -40 0 -52 40 -15 49 -31
58 -103 55 -51 -3 -61 0 -90 26 -20 17 -54 33 -85 39 -48 10 -55 9 -83 -11
-35 -26 -35 -28 -15 -76 24 -57 51 -76 107 -77 39 -1 48 -4 48 -18 0 -10 5
-18 10 -18 6 0 10 -7 10 -15 0 -8 14 -17 38 -21 20 -4 45 -11 54 -15 10 -6 19
-5 23 1 4 6 15 8 26 5 11 -4 26 0 35 10 11 11 20 13 28 6 7 -6 22 -12 35 -14
21 -3 70 -49 104 -97 22 -32 22 -35 -7 -48 -19 -8 -25 -21 -30 -66 -9 -71 11
-114 62 -131 18 -5 21 -10 12 -20 -7 -9 -8 -20 -3 -32 5 -10 9 -25 8 -33 -1
-8 -3 -23 -3 -32 -1 -10 -15 -33 -32 -51 -33 -38 -36 -54 -18 -103 9 -26 9
-39 -2 -61 -17 -36 -13 -70 11 -94 18 -18 18 -21 3 -44 -19 -29 -12 -68 16
-93 11 -9 20 -22 20 -29 0 -7 5 -13 10 -13 20 0 9 -62 -22 -116 -31 -55 -31
-56 -13 -86 21 -37 13 -46 -45 -49 -71 -3 -108 -49 -55 -69 17 -7 25 -17 25
-34 0 -13 3 -32 7 -42 5 -15 2 -16 -23 -9 -16 4 -42 8 -59 9 -28 1 -30 -2 -42
-59 -28 -124 -30 -121 82 -120 110 0 111 -1 94 -86 -22 -110 -23 -139 -2 -140
10 -1 23 0 28 1 6 2 54 9 108 16 96 13 133 27 121 45 -3 5 -1 9 5 9 5 0 8 12
5 28 -3 15 -7 37 -9 49 -7 43 14 55 108 56 49 1 88 6 88 12 1 6 3 42 4 81 1
39 4 75 8 81 17 28 -60 76 -87 54 -6 -5 -32 -9 -58 -8 l-46 2 2 35 c3 39 -11
98 -26 118 -9 10 -15 9 -34 -3 -13 -8 -31 -15 -40 -15 -12 0 -10 6 10 31 14
17 26 38 26 46 0 23 -60 74 -80 68 -13 -4 -15 6 -15 64 0 67 10 94 43 114 13
8 8 70 -8 92 -4 6 -4 21 0 35 6 24 -5 74 -21 95 -5 6 1 16 13 24 17 11 19 19
13 59 -8 57 -21 82 -40 82 -15 0 -18 13 -19 85 -1 27 5 44 16 53 26 19 69 112
66 140 -2 14 -12 30 -22 36 -11 6 -27 18 -36 27 -15 14 -15 18 2 50 10 18 18
42 18 51 0 24 4 23 35 -8 21 -20 33 -25 55 -20 28 5 37 11 93 61 18 16 29 19
41 13 24 -13 48 -2 71 32 11 16 25 30 30 30 6 0 15 11 22 25 6 14 7 25 2 25
-5 0 -9 4 -9 8 0 5 13 7 29 4 16 -2 33 2 40 10 70 83 86 98 102 98 10 0 25 11
34 23 8 13 26 29 39 35 13 6 32 29 42 51 16 35 23 40 43 36 35 -9 66 17 106
90 28 50 42 65 59 65 27 0 46 20 76 78 16 31 28 42 45 42 13 0 40 9 59 21 30
17 37 29 48 77 14 66 67 129 113 138 57 10 115 72 115 123 0 11 -13 27 -30 38
-32 18 -37 28 -20 38 6 3 15 26 21 50 8 33 17 45 35 49 13 4 38 25 55 49 25
35 29 48 24 77 -4 19 -11 40 -15 46 -5 6 -3 37 6 73 8 35 12 72 9 82 -4 11 -2
19 4 19 15 0 14 23 -4 56 -8 16 -15 37 -15 46 0 9 -5 20 -10 23 -7 4 -3 19 10
42 29 49 20 105 -21 135 -23 17 -26 23 -15 32 7 6 19 39 25 74 11 57 10 66 -6
89 -61 86 -66 107 -33 151 20 27 20 29 3 70 -11 26 -28 47 -45 54 l-27 13 19
33 c33 55 23 80 -24 62 -24 -9 -26 -7 -26 15 0 13 -5 27 -11 31 -11 7 -59 -14
-71 -31 -5 -6 -8 -5 -8 3 0 8 -8 26 -19 40 -10 15 -21 40 -25 55 -4 16 -16 31
-30 37 -12 4 -30 15 -39 24 -14 15 -17 15 -31 0z m233 -240 c7 -6 -23 -36 -44
-44 -25 -10 -45 6 -45 35 0 21 3 23 43 18 23 -3 44 -7 46 -9z m-29 -92 c0 -5
-7 -9 -15 -9 -8 0 -12 4 -9 9 3 4 9 8 15 8 5 0 9 -4 9 -8z m85 -31 c3 -11 -4
-37 -17 -62 l-22 -43 -13 31 c-7 17 -17 34 -23 38 -18 11 -10 31 18 42 40 16
50 15 57 -6z m25 -203 c19 -30 21 -54 8 -100 -9 -32 -14 -36 -29 -27 -11 5
-26 21 -35 34 -15 23 -15 28 0 59 9 19 16 39 16 45 0 19 25 12 40 -11z m37
-245 c10 -13 9 -22 -4 -44 -23 -39 -52 -36 -59 6 -11 68 -8 76 24 64 15 -5 32
-17 39 -26z m1 -193 c10 -29 10 -29 -18 -26 -29 3 -60 26 -60 45 0 9 47 20 62
14 3 -2 11 -16 16 -33z m2 -110 c0 -6 -7 -27 -15 -46 -17 -40 -35 -41 -49 -1
-8 22 -6 30 10 42 22 17 54 20 54 5z m-112 -460 c24 -20 22 -40 -4 -40 -8 0
-12 -5 -9 -10 12 -19 -26 -23 -45 -5 -23 20 -26 45 -8 63 17 17 39 14 66 -8z
m-208 -229 c11 -21 0 -64 -20 -76 -6 -4 -22 -4 -36 -1 -34 9 -35 68 -1 84 33
16 45 14 57 -7z m-470 -391 c0 -5 9 -10 20 -10 31 0 24 -29 -16 -66 -42 -40
-50 -42 -58 -11 -9 35 -7 42 15 71 21 26 39 34 39 16z m-100 -126 c12 -12 -65
-94 -87 -94 -22 0 -14 39 12 62 14 12 25 28 25 35 0 15 35 12 50 -3z m-956
-110 c14 -55 -46 -58 -76 -4 l-17 30 43 0 c39 0 45 -3 50 -26z m803 -5 c14
-14 1 -61 -25 -89 -17 -18 -24 -20 -41 -11 -12 7 -22 18 -22 26 -2 24 -4 29
-13 43 -10 16 -9 16 29 30 40 14 59 14 72 1z m-633 -52 c23 -17 17 -49 -9 -53
-60 -10 -112 25 -82 55 15 15 69 14 91 -2z m484 -34 c15 -21 7 -52 -20 -75
-29 -25 -47 -22 -59 9 -7 20 -7 33 2 49 6 12 8 28 4 35 -13 19 57 2 73 -18z
m-152 -31 c7 -4 -2 -27 -26 -64 l-36 -58 -44 45 -44 44 35 14 c55 23 63 25 84
26 11 0 25 -3 31 -7z m-15 -247 c5 4 9 -5 9 -18 0 -27 -35 -77 -53 -77 -35 1
-64 53 -51 92 6 21 65 29 77 10 5 -7 12 -10 18 -7z m-9 -343 c9 -39 -25 -76
-59 -65 -16 6 -17 70 -2 75 32 11 58 7 61 -10z m-8 -157 c9 -34 2 -43 -28 -38
-34 7 -40 29 -13 48 29 20 34 19 41 -10z m16 -120 c0 -41 -32 -59 -58 -33 -9
9 -8 15 3 28 18 20 55 23 55 5z m34 -290 c4 -10 -1 -15 -15 -15 -11 0 -22 -7
-25 -15 -4 -8 -10 -15 -15 -15 -11 0 -29 42 -22 53 8 14 71 8 77 -8z m45 -127
l33 -1 -6 -74 -7 -74 93 3 93 3 3 -47 c3 -47 3 -48 -27 -48 -16 0 -33 -5 -36
-11 -4 -6 -31 -9 -61 -8 -30 2 -59 -2 -65 -8 -6 -6 -11 -42 -12 -81 -2 -39 -5
-73 -7 -75 -3 -3 -38 -8 -77 -12 -85 -8 -81 -16 -56 112 16 83 16 86 -2 100
-11 7 -26 11 -35 8 -74 -29 -143 -18 -147 23 -3 22 0 23 63 21 48 -2 68 2 75
12 12 19 11 53 -2 66 -7 7 -9 26 -4 51 6 37 10 41 38 44 18 2 50 2 72 0 22 -1
55 -3 74 -4z"/>
<path d="M745 2543 c-50 -11 -74 -26 -85 -56 -6 -18 -16 -40 -21 -50 -11 -20
-3 -41 12 -31 5 3 21 23 35 45 20 33 30 39 58 39 38 0 46 -17 38 -83 -3 -28
-9 -37 -23 -37 -12 0 -19 7 -19 19 0 27 -25 33 -46 10 -14 -15 -16 -25 -8 -47
8 -22 16 -28 47 -30 23 -2 35 -7 31 -14 -15 -24 21 -26 49 -2 40 34 69 31 90
-9 15 -27 16 -38 6 -65 -6 -17 -16 -32 -22 -32 -22 1 -50 29 -44 44 9 23 -22
27 -43 6 -28 -28 -25 -36 20 -69 48 -34 81 -31 111 10 34 48 36 93 5 139 -25
39 -40 45 -91 42 -16 -2 -20 5 -21 31 -2 59 -11 102 -25 125 -14 22 -18 23
-54 15z"/>
<path d="M971 2195 c-54 -29 -64 -45 -57 -87 4 -27 44 -74 54 -63 2 2 17 -1
34 -6 29 -8 35 -5 80 42 26 28 48 58 48 67 -1 18 -57 59 -93 67 -13 3 -41 -6
-66 -20z m83 -40 c16 -12 17 -17 5 -32 -29 -39 -40 -43 -71 -27 -25 13 -28 18
-17 32 33 44 53 50 83 27z"/>
<path d="M1175 2085 c-16 -8 -39 -11 -50 -9 -15 4 -27 -4 -44 -26 -27 -38 -23
-70 16 -106 46 -43 99 -28 151 41 64 87 23 143 -73 100z m55 -45 c0 -20 -47
-70 -66 -70 -6 0 -19 9 -30 21 -21 24 -11 34 44 45 17 3 32 10 32 15 0 5 5 9
10 9 6 0 10 -9 10 -20z"/>
</g>
</svg>
