<?xml version="1.0" standalone="no"?>
<!DOCTYPE svg PUBLIC "-//W3C//DTD SVG 20010904//EN"
 "http://www.w3.org/TR/2001/REC-SVG-20010904/DTD/svg10.dtd">
<svg version="1.0" xmlns="http://www.w3.org/2000/svg"
 width="427.000000pt" height="467.000000pt" viewBox="0 0 427.000000 467.000000"
 preserveAspectRatio="xMidYMid meet">
<metadata>
Created by potrace 1.16, written by Peter Selinger 2001-2019
</metadata>
<g transform="translate(0.000000,467.000000) scale(0.100000,-0.100000)"
fill="#000000" stroke="none">
<path d="M2183 4342 c-32 -17 -42 -35 -23 -47 9 -6 -27 -55 -41 -55 -4 0 -9 9
-12 20 -3 12 -11 18 -19 15 -12 -5 -38 -50 -38 -67 0 -4 -9 -17 -20 -28 l-20
-20 0 24 c0 19 -7 26 -30 31 -30 7 -70 -1 -70 -13 0 -4 -11 -20 -25 -36 -39
-45 -33 -61 24 -69 13 -2 30 -12 37 -22 16 -21 19 -59 5 -51 -5 3 -15 -11 -24
-31 -12 -31 -12 -40 -1 -62 8 -14 14 -34 14 -44 0 -11 9 -21 20 -24 16 -4 18
-8 9 -20 -16 -18 -15 -156 1 -213 6 -25 23 -64 37 -87 14 -24 21 -43 16 -44
-4 0 2 -4 15 -9 12 -5 22 -16 22 -23 0 -14 -40 -37 -66 -37 -8 0 -17 -7 -20
-15 -4 -8 -10 -13 -14 -10 -5 3 -11 1 -15 -5 -3 -5 -17 -10 -31 -10 -14 0 -34
-5 -44 -10 -40 -22 -126 -25 -360 -15 -80 3 -219 8 -310 10 -209 6 -214 7
-237 28 -30 27 -68 21 -111 -17 -26 -24 -42 -32 -52 -26 -8 5 -17 7 -21 4 -17
-10 -90 32 -102 58 -6 15 -23 32 -37 38 -14 6 -54 37 -88 69 -56 52 -67 59
-99 56 -44 -4 -60 -20 -66 -62 -4 -25 1 -39 24 -64 16 -18 29 -37 29 -41 0 -5
4 -7 9 -3 5 3 12 -4 16 -15 3 -11 10 -20 15 -20 4 0 10 -9 13 -20 7 -29 -33
-36 -108 -20 -101 23 -143 14 -213 -45 -29 -24 -30 -27 -17 -52 10 -19 11 -32
4 -46 -12 -22 -5 -103 11 -122 6 -7 10 -28 9 -46 -3 -35 15 -79 31 -79 5 0 20
-18 32 -40 13 -22 28 -40 35 -40 7 0 17 -9 22 -19 16 -30 98 -31 206 -3 50 12
134 26 187 29 90 5 98 4 103 -13 4 -10 11 -27 16 -37 5 -10 13 -48 16 -85 3
-37 13 -77 21 -89 8 -13 12 -30 8 -38 -3 -8 -1 -15 4 -15 6 0 10 -7 10 -15 0
-8 5 -15 12 -15 6 0 9 -3 5 -6 -3 -4 3 -29 15 -58 11 -28 24 -75 28 -105 5
-33 17 -62 31 -77 l22 -24 -61 0 c-60 0 -100 -19 -87 -41 4 -5 -1 -9 -9 -9
-17 0 -24 -33 -16 -75 4 -16 1 -73 -6 -125 -17 -136 -7 -151 95 -143 l66 5 3
-563 c6 -1085 5 -1044 24 -1062 20 -21 68 -23 68 -3 0 8 5 16 12 18 9 3 11 53
8 209 -5 199 -6 499 -3 549 1 14 1 180 0 370 -2 190 0 376 3 414 l5 69 270 -2
c149 -1 430 -4 625 -7 195 -3 526 -7 735 -9 209 -2 439 -3 510 -4 162 -1 211
-2 353 -4 l112 -2 -4 -45 c-3 -25 -9 -83 -15 -130 -5 -47 -10 -125 -11 -175
-1 -49 -3 -142 -6 -205 -14 -366 -20 -897 -10 -927 4 -13 4 -28 -1 -35 -4 -7
-8 -22 -8 -33 0 -11 -4 -25 -8 -32 -7 -11 46 -73 62 -73 4 0 20 11 35 23 27
23 27 27 26 123 -4 239 -3 444 3 644 4 118 9 298 12 400 6 211 8 243 24 360 6
46 11 88 11 92 0 5 23 8 50 8 28 0 50 -4 50 -10 0 -6 10 -6 28 1 15 6 27 9 28
7 0 -2 7 4 15 12 8 8 13 31 13 50 -1 19 -4 91 -6 160 -2 69 -7 131 -11 137 -4
7 -25 20 -45 30 -30 14 -59 17 -146 15 -65 -2 -112 1 -116 7 -5 9 -3 37 14
171 13 102 44 220 57 220 5 0 9 6 9 14 0 7 15 43 34 79 18 37 31 69 28 72 -3
2 3 14 13 25 12 13 18 34 17 60 -1 21 3 52 10 67 6 15 14 48 19 73 4 25 14 77
22 115 14 67 14 72 -7 114 -11 24 -25 44 -31 44 -23 -2 -45 19 -45 43 0 19 -7
28 -30 35 -18 7 -30 18 -30 29 0 17 -52 70 -69 70 -11 0 -32 90 -31 133 2 82
-28 110 -82 77 -40 -24 -87 -116 -78 -151 4 -13 5 -35 3 -49 -6 -38 -16 -152
-17 -182 -1 -16 -6 -28 -12 -28 -14 0 -24 -23 -24 -56 0 -14 -6 -37 -13 -52
-7 -15 -15 -44 -16 -65 -1 -21 -10 -47 -19 -57 -10 -10 -43 -52 -76 -95 l-59
-76 -21 20 c-12 11 -41 31 -64 43 -56 30 -126 87 -138 113 -44 89 -97 185
-109 195 -8 7 -15 20 -15 29 0 9 -11 27 -25 41 -38 38 -79 92 -94 123 -8 15
-18 27 -23 27 -4 0 -8 7 -8 15 0 9 -6 12 -15 9 -17 -7 -21 11 -5 21 6 3 10 17
10 31 0 14 5 34 11 46 6 11 13 65 15 121 3 56 7 109 10 117 10 28 34 165 34
190 0 45 -14 55 -56 42 -21 -6 -40 -10 -42 -8 -2 2 3 27 12 55 14 48 14 50 -5
56 -10 4 -19 11 -19 16 0 15 -60 10 -66 -5 -5 -12 -11 -12 -37 3 -18 10 -32
22 -32 28 0 18 -50 83 -69 89 -13 5 -25 -1 -37 -15 -15 -18 -22 -20 -38 -12
-28 16 -56 9 -91 -22 -28 -25 -30 -26 -30 -7 0 12 -10 25 -24 31 -13 6 -27 20
-29 30 -6 23 -22 23 -64 1z m217 -92 c0 -5 -10 -10 -22 -10 -19 0 -20 2 -8 10
19 13 30 13 30 0z m-202 -66 c-16 -8 -28 -19 -28 -24 0 -9 -88 -100 -96 -100
-3 0 2 10 11 23 8 13 13 26 10 29 -3 2 6 11 20 18 14 7 25 17 25 22 0 17 41
48 63 48 21 -1 20 -2 -5 -16z m262 -14 c9 -6 17 -5 21 1 10 17 116 -99 152
-166 11 -19 25 -35 33 -35 7 0 19 -10 25 -22 17 -32 23 -207 9 -254 -6 -21
-18 -61 -25 -87 -20 -72 -73 -143 -118 -162 -66 -27 -293 -38 -307 -15 -6 9
-24 14 -71 19 -13 2 -99 87 -121 121 -59 88 -61 246 -6 335 7 11 16 22 19 25
4 3 10 16 14 29 7 24 65 110 65 98 0 -4 21 13 46 38 25 25 51 45 58 45 8 0 20
7 27 16 10 12 24 15 54 11 22 -2 51 -1 65 3 35 11 43 11 60 0z m-503 -22 c-3
-8 -6 -5 -6 6 -1 11 2 17 5 13 3 -3 4 -12 1 -19z m714 -5 c-12 -20 -14 -14 -5
12 4 9 9 14 11 11 3 -2 0 -13 -6 -23z m-14 -55 c-3 -7 -5 -2 -5 12 0 14 2 19
5 13 2 -7 2 -19 0 -25z m-597 -53 c0 -12 -35 -75 -42 -75 -11 0 -10 5 6 45 8
19 20 35 25 35 6 0 11 -2 11 -5z m696 -28 c-3 -12 -5 -24 -6 -27 0 -3 -7 4
-15 14 -11 14 -12 23 -4 33 15 18 30 7 25 -20z m-748 -69 c-6 -18 -28 -21 -28
-4 0 9 7 16 16 16 9 0 14 -5 12 -12z m1579 -350 c13 -80 9 -154 -8 -175 -8 -9
-8 -13 -1 -13 8 0 8 -9 1 -30 -8 -22 -7 -45 5 -91 16 -65 30 -89 52 -89 8 0
14 -4 14 -10 0 -12 89 -52 120 -54 38 -2 39 -52 3 -116 -15 -27 -31 -50 -35
-50 -4 0 -16 -10 -27 -21 -17 -19 -27 -21 -68 -15 -26 3 -49 10 -52 14 -4 4
-24 15 -46 23 -36 13 -41 20 -62 81 -23 68 -23 131 1 122 7 -3 21 4 31 16 10
11 15 20 12 20 -4 0 1 19 10 41 13 33 14 46 5 60 -15 23 -15 116 0 184 9 47
16 103 17 153 2 47 18 19 28 -50z m-3045 -142 c26 -25 50 -46 55 -46 4 0 21
-15 38 -32 37 -40 60 -56 125 -83 36 -15 55 -31 57 -50 5 -59 6 -112 1 -121
-2 -5 -6 -29 -7 -54 -1 -29 -8 -50 -20 -60 -9 -9 -16 -21 -13 -28 2 -6 -5 -13
-15 -14 -10 0 -40 -3 -68 -4 -51 -4 -163 -22 -174 -28 -9 -6 -6 74 3 107 6 19
3 34 -8 52 -18 28 -42 31 -70 10 -10 -8 -24 -11 -29 -8 -6 4 -41 8 -78 9 -68
3 -124 25 -116 48 4 12 47 18 47 6 0 -9 34 -21 70 -25 61 -7 160 -4 160 6 0 3
26 3 57 1 46 -3 59 -1 70 14 17 23 17 55 -1 79 -14 19 -15 19 -35 1 -16 -15
-24 -16 -34 -7 -11 9 -17 8 -27 -4 -9 -11 -23 -14 -46 -11 -18 3 -36 1 -39 -4
-8 -12 -65 -13 -65 -1 0 5 -25 12 -55 16 -30 3 -55 11 -55 16 0 6 -3 8 -8 5
-4 -2 -15 2 -25 9 -10 7 -15 15 -10 18 10 5 66 21 73 20 3 -1 21 -4 40 -7 38
-6 105 -15 160 -21 51 -5 80 17 80 61 0 19 -6 42 -12 49 -7 8 -24 30 -38 50
-14 20 -35 46 -47 58 -13 11 -23 27 -23 36 0 17 4 14 82 -63z m2154 -51 c9
-25 21 -45 27 -45 12 0 54 -47 73 -82 8 -16 19 -28 24 -28 5 0 12 -11 16 -25
3 -14 9 -25 13 -25 9 0 45 -72 43 -82 -1 -5 2 -8 6 -8 5 0 17 -18 27 -39 17
-39 17 -41 -3 -93 -12 -29 -30 -82 -41 -118 -11 -36 -30 -92 -42 -125 -12 -33
-24 -76 -26 -95 -3 -19 -11 -64 -20 -100 -8 -36 -14 -75 -14 -87 1 -13 -4 -23
-9 -23 -5 0 -7 -7 -4 -15 4 -8 1 -15 -5 -15 -6 0 -11 -11 -11 -24 0 -14 -7
-32 -16 -41 -9 -8 -14 -21 -11 -28 3 -9 -6 -12 -37 -10 -22 1 -190 3 -371 5
l-331 2 -16 56 c-18 57 -44 165 -52 212 -2 15 -7 31 -10 36 -4 8 -20 283 -18
312 1 8 2 47 2 85 0 67 19 185 41 252 7 23 20 36 45 45 19 6 34 16 34 20 0 4
5 8 11 8 7 0 31 18 55 40 24 22 48 40 53 40 16 0 84 -31 98 -46 11 -10 41 -14
116 -14 114 1 209 18 250 44 15 10 27 14 27 10 0 -5 10 6 21 23 12 18 25 31
29 28 5 -3 16 -25 26 -50z m978 30 c3 -8 1 -15 -4 -15 -6 0 -10 7 -10 15 0 8
2 15 4 15 2 0 6 -7 10 -15z m72 -117 c-15 -10 -16 -6 -9 22 6 22 7 22 13 4 4
-10 2 -22 -4 -26z m-72 -3 c-4 -17 -10 -23 -16 -17 -6 6 -5 17 3 30 17 27 22
22 13 -13z m-2624 -42 l36 -5 -7 -67 c-4 -36 -14 -97 -21 -136 -9 -44 -11 -85
-6 -110 4 -22 10 -74 13 -115 7 -102 22 -192 46 -271 10 -36 19 -75 19 -87 0
-12 11 -54 24 -92 14 -38 22 -71 18 -73 -4 -3 -35 -2 -70 1 -54 4 -62 7 -56
21 4 9 6 23 6 31 -2 40 -9 77 -19 100 -31 72 -83 231 -89 270 -16 111 -11 306
12 415 3 17 8 53 9 80 2 28 4 52 4 54 1 2 11 0 24 -3 12 -4 38 -10 57 -13z
m243 -14 c2 -2 0 -47 -3 -99 -11 -193 0 -562 18 -596 5 -11 10 -30 10 -44 0
-14 7 -50 17 -80 9 -30 18 -64 18 -75 1 -11 8 -27 16 -35 13 -13 11 -15 -13
-18 -56 -7 -58 -3 -108 158 -16 52 -31 102 -32 110 -2 8 -6 23 -10 33 -13 37
-16 51 -30 170 -23 185 -28 287 -16 287 5 0 9 3 9 8 -1 4 0 9 1 12 3 9 8 43
15 111 l8 66 49 -2 c27 -1 50 -4 51 -6z m226 -5 c22 -5 22 -6 6 -18 -13 -9
-16 -22 -13 -52 3 -21 0 -57 -5 -79 -16 -72 -27 -149 -31 -220 -3 -63 0 -99
19 -256 8 -67 41 -217 59 -266 11 -32 12 -43 3 -44 -7 0 -21 -2 -32 -4 -26 -5
-44 12 -40 36 2 12 0 28 -5 37 -28 50 -54 134 -77 252 -7 39 -14 252 -12 385
3 245 1 229 29 236 25 5 54 4 99 -7z m285 -31 c-3 -27 -9 -52 -12 -57 -5 -8
-11 -120 -14 -266 -1 -33 10 -227 17 -295 2 -16 13 -68 24 -115 11 -47 23
-103 27 -125 3 -22 8 -43 11 -47 2 -5 -34 -8 -81 -8 -88 0 -91 1 -86 43 1 10
-5 26 -13 35 -23 26 -67 167 -72 230 -3 31 -9 80 -15 107 -22 112 17 451 57
491 8 7 11 18 8 24 -4 6 9 10 32 11 54 2 105 8 111 14 12 11 13 3 6 -42z
m1946 17 c-18 -12 -30 -13 -30 -2 0 4 10 9 22 9 18 2 20 0 8 -7z m-3351 -212
c35 -9 46 -9 49 0 5 16 20 15 39 -3 22 -23 11 -28 -63 -31 -37 -2 -69 -6 -72
-9 -3 -3 -16 2 -29 10 -13 9 -29 15 -36 14 -15 -3 -47 11 -47 20 0 12 115 11
159 -1z m3061 -105 c0 -4 21 -16 48 -26 26 -10 63 -25 82 -33 19 -8 46 -16 60
-18 18 -2 24 -9 22 -22 -2 -11 -8 -20 -13 -22 -5 -2 -9 -11 -9 -20 0 -9 -7
-26 -15 -36 -8 -11 -15 -28 -15 -38 0 -10 -4 -18 -10 -18 -5 0 -10 -9 -10 -20
0 -11 -5 -20 -11 -20 -5 0 -9 -8 -8 -17 1 -10 -2 -43 -8 -73 -6 -30 -11 -68
-12 -84 -1 -17 -7 -33 -14 -38 -9 -6 -9 -8 0 -8 9 0 9 -8 2 -30 -6 -16 -15
-30 -20 -30 -5 0 -12 -18 -15 -40 l-6 -39 -149 0 c-165 1 -152 -6 -150 74 1
22 6 67 11 100 5 33 15 89 20 125 6 36 13 81 16 100 3 19 8 37 12 40 4 3 13
17 19 33 7 15 17 27 23 27 5 0 10 9 10 20 0 11 4 20 8 20 5 0 19 19 31 43 13
23 33 56 44 73 l21 32 18 -23 c10 -13 18 -27 18 -32z m-387 10 c18 -10 33 -19
35 -19 6 -3 -32 -89 -42 -96 -6 -4 -7 -10 -4 -14 4 -3 -4 -24 -18 -45 -13 -21
-21 -39 -17 -39 5 0 2 -4 -5 -8 -7 -5 -15 -28 -18 -53 -3 -24 -13 -59 -22 -78
-9 -19 -15 -44 -14 -55 0 -11 -2 -23 -6 -26 -16 -11 -54 -149 -50 -179 4 -26
2 -30 -16 -27 -19 3 -21 10 -20 63 1 33 7 69 13 81 6 12 14 43 17 69 7 59 28
160 49 233 9 30 19 66 22 80 3 14 9 30 13 35 5 6 13 29 19 53 13 47 19 49 64
25z m-2635 -20 c-16 -2 -40 -2 -55 0 -16 2 -3 4 27 4 30 0 43 -2 28 -4z m2772
-97 c0 -2 -9 -23 -20 -48 -11 -24 -21 -61 -24 -81 -2 -20 -7 -41 -11 -46 -8
-13 -33 -153 -51 -281 -8 -63 -13 -70 -49 -70 -32 0 -33 1 -25 29 4 16 6 32 3
34 -7 7 35 174 53 215 9 18 18 50 21 70 6 40 51 132 65 132 4 0 7 3 6 8 -2 12
14 42 23 42 5 0 9 -2 9 -4z m-1225 -621 c324 -6 571 -8 591 -4 5 1 11 1 14 0
3 -1 113 -4 245 -6 132 -3 323 -7 425 -11 102 -3 262 -7 355 -8 265 -4 247 2
252 -89 l3 -64 -846 4 c-465 1 -850 5 -855 9 -5 3 -13 3 -18 -1 -16 -9 -211
-8 -1069 9 -89 2 -165 6 -168 8 -3 3 -1 39 3 79 l8 74 60 5 c72 6 522 4 1000
-5z"/>
<path d="M2260 3991 c0 -8 -7 -11 -18 -9 -25 7 -61 -66 -45 -90 15 -25 39 -26
62 -3 29 29 36 66 17 93 -9 12 -16 16 -16 9z"/>
<path d="M2547 3945 c-22 -16 -32 -61 -15 -71 24 -15 48 -14 48 1 0 8 5 15 10
15 6 0 10 13 10 29 0 32 -26 46 -53 26z"/>
<path d="M2326 3807 c-31 -29 -32 -30 -5 -62 18 -19 26 -22 41 -14 11 6 26 8
34 5 12 -5 15 2 12 32 -2 28 -7 37 -21 37 -10 0 -22 6 -26 13 -6 11 -14 8 -35
-11z"/>
<path d="M2109 3619 c4 -22 16 -37 39 -50 19 -9 41 -24 50 -31 29 -24 138 -68
169 -68 43 0 135 30 149 48 6 8 16 12 22 8 7 -4 12 -1 12 9 0 8 5 24 11 34 14
22 5 67 -16 75 -8 3 -28 1 -43 -5 -31 -12 -43 -15 -136 -31 -63 -12 -69 -11
-82 7 -10 14 -28 19 -68 21 -30 1 -68 5 -84 9 -29 6 -30 5 -23 -26z"/>
<path d="M2255 3078 c-9 -6 -12 -23 -8 -65 8 -85 -9 -101 -112 -110 -96 -8
-105 -16 -94 -86 5 -27 6 -54 3 -58 -3 -5 0 -18 6 -30 11 -19 17 -20 94 -14
81 7 83 6 89 -16 6 -21 1 -173 -7 -246 -4 -33 14 -59 44 -64 15 -2 100 9 131
17 14 4 16 19 15 97 -1 51 0 114 2 140 l4 48 59 -2 c36 -2 64 2 71 9 17 17 20
144 5 154 -7 4 -30 8 -53 8 -61 0 -84 27 -81 93 1 28 6 57 10 63 4 6 0 26 -9
43 -15 30 -16 30 -85 28 -39 -1 -76 -5 -84 -9z m114 -110 c-9 -56 -3 -125 14
-145 5 -7 25 -13 44 -13 44 0 73 -16 73 -39 0 -15 -9 -17 -66 -17 -53 1 -68
-2 -75 -17 -6 -9 -7 -22 -4 -27 6 -10 8 -231 3 -235 -2 -1 -19 -5 -39 -8 l-36
-5 3 116 c2 65 6 131 9 147 9 54 -4 60 -105 57 l-90 -3 0 31 c0 29 16 38 54
31 5 -1 16 1 25 5 21 9 19 9 68 18 24 4 46 13 50 19 3 6 5 35 4 64 -2 47 0 54
21 62 50 21 56 16 47 -41z"/>
<path d="M2213 1505 c-27 -27 -33 -41 -33 -78 0 -44 0 -45 -44 -56 -109 -27
-111 -140 -3 -160 26 -5 51 -11 54 -15 3 -3 5 -41 3 -83 -2 -43 -3 -102 -2
-132 1 -29 -3 -62 -8 -72 -16 -29 24 -101 53 -97 12 2 30 -5 40 -16 9 -11 20
-16 24 -13 3 4 12 2 20 -4 29 -25 78 48 74 109 -2 17 1 32 6 32 5 0 8 44 7 98
-2 144 3 172 32 172 12 0 25 -4 28 -9 9 -14 66 18 75 41 10 28 -14 118 -38
142 -16 16 -23 17 -35 7 -10 -9 -16 -9 -21 -1 -4 6 -14 9 -22 6 -14 -6 -14 7
1 81 3 13 1 25 -5 28 -5 4 -9 14 -9 24 0 15 -9 17 -57 17 -32 0 -69 3 -83 6
-20 5 -32 0 -57 -27z"/>
</g>
</svg>
