<?xml version="1.0" standalone="no"?>
<!DOCTYPE svg PUBLIC "-//W3C//DTD SVG 20010904//EN"
 "http://www.w3.org/TR/2001/REC-SVG-20010904/DTD/svg10.dtd">
<svg version="1.0" xmlns="http://www.w3.org/2000/svg"
 width="495.000000pt" height="493.000000pt" viewBox="0 0 495.000000 493.000000"
 preserveAspectRatio="xMidYMid meet">
<metadata>
Created by potrace 1.16, written by Peter Selinger 2001-2019
</metadata>
<g transform="translate(0.000000,493.000000) scale(0.100000,-0.100000)"
fill="#000000" stroke="none">
<path d="M2283 4753 c-32 -7 -89 -17 -128 -23 -100 -15 -107 -16 -135 -27 -14
-6 -34 -9 -45 -7 -10 1 -24 -1 -30 -6 -6 -5 -27 -9 -46 -8 -40 1 -101 -8 -184
-27 -62 -15 -89 -21 -140 -31 -16 -3 -46 -13 -65 -22 -19 -9 -43 -17 -53 -19
-10 -2 -26 -11 -37 -21 -11 -10 -36 -24 -57 -31 -21 -8 -49 -22 -62 -32 -13
-11 -30 -19 -37 -19 -7 0 -29 -16 -50 -35 -20 -19 -41 -35 -46 -35 -5 0 -23
-16 -40 -35 -17 -20 -46 -42 -64 -50 -35 -14 -134 -113 -146 -146 -4 -10 -12
-19 -18 -19 -5 0 -10 -5 -10 -10 0 -6 -21 -31 -46 -58 -90 -93 -99 -113 -97
-219 2 -77 6 -103 27 -148 14 -29 26 -60 26 -67 0 -16 72 -80 121 -109 75 -43
243 -109 299 -117 19 -2 38 -10 42 -16 5 -8 27 -11 63 -9 62 4 72 -10 34 -48
-11 -11 -27 -38 -34 -60 -13 -37 -13 -40 10 -65 20 -21 31 -25 60 -22 37 4 47
-10 21 -31 -13 -11 -19 -27 -30 -86 -2 -11 -11 -38 -19 -60 -8 -22 -21 -62
-29 -89 -7 -27 -18 -51 -25 -53 -13 -5 -28 -58 -24 -85 1 -10 -3 -18 -10 -18
-7 0 -9 -10 -6 -29 4 -16 2 -31 -3 -33 -5 -2 -12 -19 -14 -38 -3 -19 -9 -57
-15 -83 -10 -44 -14 -200 -10 -472 1 -60 -1 -136 -4 -167 -9 -85 -76 -284
-116 -348 -22 -34 -42 -90 -39 -106 2 -10 18 -27 37 -38 35 -20 34 -20 119 11
14 6 18 -117 3 -132 -4 -6 -14 -32 -20 -60 -11 -45 -53 -150 -86 -215 -7 -14
-22 -29 -34 -35 -12 -5 -21 -13 -21 -17 0 -5 -5 -8 -11 -8 -9 0 -69 -45 -120
-90 -9 -8 -48 -42 -85 -75 -38 -33 -82 -75 -99 -94 -16 -18 -49 -53 -73 -76
-23 -23 -49 -59 -57 -79 -8 -20 -19 -36 -23 -36 -4 0 -20 -21 -37 -45 -16 -25
-33 -45 -37 -45 -4 0 -15 -14 -23 -31 -9 -16 -23 -38 -31 -47 -41 -47 -63 -81
-69 -105 -4 -16 -14 -27 -24 -27 -46 0 -51 -89 -6 -114 11 -6 23 -15 27 -20 4
-6 12 -5 20 1 13 11 18 13 38 13 6 0 10 7 10 15 0 8 5 15 10 15 6 0 10 9 10
20 0 24 21 70 32 70 4 0 8 5 8 12 0 11 42 72 95 136 30 37 47 63 73 115 7 15
22 32 33 37 10 6 19 16 19 23 0 14 250 257 264 257 3 0 24 18 47 40 23 22 45
37 49 35 4 -3 18 5 31 16 13 12 34 28 47 36 12 9 22 21 22 28 0 8 27 35 60 61
33 26 60 50 60 53 0 4 25 23 55 44 l55 37 -2 -40 c-1 -45 10 -63 54 -81 24
-10 33 -10 36 -1 2 7 9 12 16 12 7 0 21 16 32 36 19 36 67 64 108 64 21 -1 56
-58 56 -93 0 -9 9 -26 21 -38 17 -17 29 -19 61 -15 23 3 43 8 46 11 14 13 30
109 31 185 1 47 3 114 4 150 1 67 -7 129 -21 158 -28 56 18 375 79 552 17 47
31 90 32 96 2 7 8 18 14 25 6 8 12 32 13 54 4 104 1 175 -9 192 -10 20 -8 123
3 142 4 6 13 59 20 118 17 134 17 132 42 168 11 17 26 44 33 62 7 17 23 41 37
54 13 12 24 28 24 34 0 6 29 43 65 82 36 39 65 75 65 80 0 4 16 22 35 38 19
17 35 35 35 42 0 7 9 17 20 23 11 6 29 29 40 50 11 22 25 40 31 40 5 0 15 13
20 30 6 16 15 27 20 24 5 -3 9 2 9 10 0 9 9 25 20 36 11 11 20 27 20 35 0 8 5
15 10 15 6 0 10 8 10 18 0 9 14 33 31 52 39 44 69 102 69 133 0 26 24 65 32
51 3 -5 15 -41 26 -80 12 -39 29 -77 38 -84 8 -8 22 -27 31 -44 8 -17 38 -52
66 -79 70 -64 74 -67 90 -67 8 0 26 -9 40 -20 14 -11 38 -20 54 -20 15 0 53
-13 83 -28 30 -15 80 -36 110 -45 30 -10 69 -30 85 -45 29 -26 72 -92 60 -92
-7 0 23 -48 50 -80 12 -14 35 -54 50 -90 29 -65 29 -65 32 -299 3 -190 0 -237
-11 -250 -26 -29 -9 -126 24 -136 11 -4 25 -25 35 -55 9 -27 23 -54 31 -60 7
-7 14 -20 14 -29 0 -9 6 -26 14 -37 8 -11 17 -37 20 -57 3 -21 14 -50 23 -64
14 -22 18 -50 18 -147 1 -180 -11 -417 -22 -425 -6 -3 -13 -30 -16 -60 -4 -35
-16 -68 -34 -94 -50 -72 -62 -91 -78 -126 -17 -37 -12 -71 11 -71 8 0 14 -4
14 -9 0 -23 137 21 208 67 23 15 23 15 21 -39 -2 -67 1 -77 27 -107 22 -24 74
-39 74 -21 0 5 7 9 15 9 9 0 18 12 21 28 3 15 15 38 26 52 19 24 20 24 34 5 8
-10 14 -25 14 -32 0 -7 4 -13 9 -13 5 0 12 -12 15 -26 13 -50 55 -104 81 -104
14 0 25 5 25 10 0 6 7 10 15 10 8 0 15 -6 15 -14 0 -17 42 -28 75 -20 35 9 55
61 58 151 1 40 5 73 10 73 4 0 7 -4 7 -9 0 -5 9 -13 20 -16 11 -3 23 -17 26
-31 3 -13 11 -24 18 -24 33 0 187 -199 257 -332 9 -17 23 -36 31 -42 9 -7 19
-45 27 -105 6 -52 17 -103 22 -114 6 -11 9 -32 6 -47 -3 -15 -2 -31 4 -37 16
-16 51 -153 59 -231 12 -112 58 -142 122 -78 24 23 28 34 22 55 -4 14 -8 35
-10 46 -1 11 -3 21 -4 23 -2 1 -3 5 -4 10 -1 4 -10 32 -19 62 -52 171 -67 225
-67 237 0 7 -4 21 -9 31 -5 9 -13 42 -19 72 -15 79 -15 81 -34 115 -45 79 -78
146 -78 159 0 8 -4 16 -9 18 -4 1 -39 44 -76 93 -38 50 -80 101 -93 115 -13
14 -36 50 -51 80 -15 30 -33 64 -39 75 -10 17 -57 122 -63 143 -2 4 -11 16
-21 27 -24 26 -48 73 -48 96 0 10 -4 20 -9 24 -5 3 -13 20 -16 38 -4 17 -13
39 -20 47 -24 28 -51 132 -57 213 -1 20 -5 37 -8 37 -3 0 -6 27 -7 59 -1 51 1
58 15 54 10 -2 29 0 43 6 26 9 26 11 28 123 1 62 4 131 6 153 2 22 -2 63 -10
90 -7 28 -21 86 -30 130 -10 44 -23 91 -30 105 -16 32 -55 117 -93 200 -17 37
-29 80 -28 99 1 30 4 34 28 35 36 2 56 23 58 61 1 17 1 32 0 35 -5 16 -11 43
-23 110 -7 41 -19 85 -25 97 -7 13 -22 53 -33 90 -11 38 -22 74 -24 80 -2 7
-1 12 3 11 4 -1 31 2 60 6 95 14 278 160 331 265 60 116 66 262 15 363 -29 58
-83 139 -99 150 -6 4 -30 24 -54 44 -24 21 -51 43 -61 49 -49 29 -105 69 -109
77 -4 10 -106 59 -166 78 -63 21 -145 59 -145 68 0 5 -10 8 -22 7 -13 -1 -39
6 -58 15 -66 33 -105 49 -160 66 -30 10 -61 25 -68 33 -10 12 -15 13 -18 4 -6
-14 -34 -18 -34 -5 0 4 -24 8 -52 10 -29 2 -55 6 -58 10 -3 4 -25 7 -50 8 -75
1 -162 15 -226 35 -34 11 -75 22 -90 25 -16 2 -36 7 -44 11 -25 11 -119 16
-285 15 -55 0 -148 0 -207 1 -59 1 -133 -4 -165 -10z m567 -132 c3 -4 16 -7
30 -7 48 -2 95 -11 159 -33 44 -16 75 -20 101 -16 21 4 66 1 101 -6 35 -7 81
-12 102 -10 46 2 93 -14 218 -73 53 -25 106 -46 117 -46 11 0 24 -4 27 -10 3
-5 17 -10 31 -10 14 0 35 -5 47 -12 12 -7 31 -13 42 -15 39 -6 244 -112 257
-133 7 -11 18 -20 25 -20 17 0 83 -40 83 -51 0 -5 7 -9 15 -9 8 0 15 -7 15
-15 0 -8 5 -15 10 -15 18 0 81 -69 96 -107 21 -50 15 -118 -18 -182 -15 -30
-28 -60 -28 -67 0 -24 -90 -102 -162 -141 -40 -22 -83 -46 -95 -53 -27 -18
-32 -13 -54 52 -14 41 -22 52 -37 50 -11 -2 -23 7 -32 23 -7 14 -19 25 -27 25
-7 0 -13 5 -13 10 0 6 -4 10 -10 10 -10 0 -96 76 -144 128 -79 86 -223 220
-244 226 -9 3 -32 19 -51 35 -20 17 -53 33 -75 37 -23 3 -63 17 -89 29 -39 18
-62 21 -118 18 -38 -2 -78 1 -88 7 -14 7 -22 7 -26 0 -7 -12 -72 -11 -97 2
-10 5 -19 4 -23 -2 -8 -12 -67 -13 -118 -1 -21 5 -39 5 -43 0 -3 -5 -13 -5
-25 1 -10 6 -19 8 -19 4 0 -3 -16 4 -36 15 -24 14 -62 24 -112 28 -43 3 -93
11 -112 18 -30 10 -40 9 -73 -8 -21 -11 -53 -21 -70 -23 -59 -7 -69 -14 -63
-40 7 -27 -8 -33 -22 -8 -7 13 -18 15 -51 9 -23 -4 -45 -13 -47 -20 -3 -7 -28
-16 -56 -19 -29 -4 -70 -15 -92 -25 -23 -10 -48 -21 -56 -24 -26 -11 -54 -31
-72 -51 -10 -10 -18 -16 -18 -12 0 4 -15 -4 -32 -18 -50 -40 -98 -87 -98 -95
0 -4 -11 -14 -25 -21 -14 -7 -25 -19 -25 -27 0 -7 -4 -13 -8 -13 -10 0 -48
-80 -45 -92 2 -4 -10 -20 -26 -35 -34 -35 -54 -70 -46 -83 3 -6 2 -10 -3 -10
-5 0 -12 -17 -16 -39 -3 -21 -13 -44 -21 -51 -8 -7 -15 -18 -15 -25 0 -7 -7
-16 -16 -19 -8 -3 -12 -11 -8 -17 10 -16 -54 -3 -75 15 -26 22 -129 75 -135
69 -5 -5 -76 34 -86 48 -3 3 -21 11 -40 18 -20 6 -43 20 -53 31 -9 11 -22 20
-29 20 -38 0 -89 150 -67 193 6 9 7 17 3 17 -3 0 -2 6 4 13 5 6 13 27 17 44
14 66 238 262 337 295 18 6 40 16 48 23 29 25 131 75 158 78 15 2 41 10 57 19
17 9 46 19 65 23 19 4 41 11 50 16 31 17 217 60 285 65 39 3 79 9 90 15 42 19
145 38 145 26 0 -9 2 -9 8 -1 10 15 102 27 102 13 0 -6 6 -6 18 0 10 5 67 17
128 25 60 9 123 20 139 24 34 10 247 4 255 -7z m-335 -430 c33 -4 93 -20 134
-34 72 -26 81 -27 307 -27 129 -1 234 -4 234 -9 0 -4 26 -15 58 -25 59 -18
103 -36 112 -47 3 -4 37 -30 75 -59 39 -30 74 -60 78 -67 5 -7 15 -19 24 -26
29 -23 113 -111 113 -119 0 -4 7 -8 15 -8 8 0 15 -4 15 -9 0 -8 44 -55 87 -92
10 -9 25 -26 33 -39 8 -13 32 -41 53 -63 46 -47 57 -70 86 -167 30 -101 50
-159 67 -197 8 -17 18 -59 22 -92 9 -65 0 -84 -37 -74 -10 3 -23 -8 -35 -32
-19 -34 -19 -37 -1 -95 10 -33 21 -60 25 -60 4 0 11 -21 15 -47 4 -27 19 -68
35 -94 26 -42 46 -90 41 -97 -2 -2 5 -15 14 -29 27 -41 45 -129 50 -248 3 -60
8 -120 11 -133 4 -19 1 -23 -18 -21 -51 5 -66 -1 -78 -30 -8 -21 -9 -35 -1
-48 5 -11 10 -28 9 -39 0 -10 5 -64 11 -119 6 -55 14 -122 16 -150 2 -27 16
-78 30 -112 14 -35 25 -67 25 -73 0 -11 42 -107 70 -160 63 -122 101 -203 95
-208 -3 -4 -10 -1 -14 7 -4 7 -24 16 -43 20 -46 11 -77 -12 -67 -49 4 -14 7
-50 8 -81 1 -47 -3 -59 -24 -79 -20 -19 -25 -20 -25 -7 0 9 -6 20 -14 24 -16
10 -56 86 -56 108 0 26 -53 85 -76 85 -11 0 -39 -19 -62 -42 -23 -22 -44 -39
-46 -37 -2 2 2 26 9 52 11 43 10 50 -6 71 -21 27 -58 25 -85 -5 -9 -10 -22
-19 -28 -19 -6 0 -23 -6 -38 -14 l-27 -14 22 39 c52 93 54 101 49 153 -3 28
-5 65 -4 81 2 52 1 287 -2 385 -3 91 -16 173 -35 215 -4 11 -23 58 -42 105
-18 47 -36 87 -39 90 -4 3 -6 36 -6 73 1 49 -3 70 -13 77 -12 7 -15 48 -18
207 -6 295 -13 355 -51 414 -12 19 -31 54 -42 79 -12 24 -26 47 -31 51 -6 3
-10 8 -9 10 5 12 -19 48 -52 80 -21 20 -38 41 -38 47 0 6 -8 13 -18 16 -9 3
-32 20 -51 36 -21 20 -46 32 -71 34 -20 2 -47 9 -59 15 -11 7 -21 9 -21 5 0
-3 -16 3 -36 15 -19 12 -44 21 -55 21 -10 0 -19 4 -19 10 0 5 -3 9 -7 8 -15
-4 -59 15 -106 46 -36 23 -59 51 -92 107 -25 42 -45 81 -45 88 0 31 -26 89
-48 105 -19 15 -29 16 -47 8 -24 -11 -24 -10 -19 36 4 37 1 52 -15 70 -16 18
-24 20 -44 13 -34 -13 -38 -21 -44 -94 -3 -34 -11 -72 -19 -85 -8 -12 -13 -26
-10 -31 3 -4 -12 -38 -34 -74 -22 -36 -40 -69 -40 -72 0 -8 -55 -74 -122 -146
-10 -11 -16 -19 -13 -19 14 0 -55 -87 -78 -99 -14 -7 -28 -23 -31 -35 -5 -22
-28 -52 -83 -115 -18 -20 -33 -40 -33 -46 0 -5 -14 -19 -30 -30 -17 -11 -33
-28 -36 -37 -3 -10 -10 -18 -15 -18 -5 0 -9 -6 -9 -13 0 -7 -16 -36 -35 -64
-19 -29 -35 -59 -35 -67 0 -8 -4 -18 -10 -21 -5 -3 -10 -14 -10 -24 0 -10 -7
-24 -15 -31 -8 -7 -13 -15 -11 -19 3 -4 0 -38 -6 -76 -5 -39 -11 -87 -13 -108
-2 -20 -7 -42 -10 -47 -6 -9 -10 -48 -16 -130 -1 -14 3 -45 10 -69 7 -24 11
-52 8 -61 -2 -9 1 -24 8 -33 14 -20 2 -105 -20 -147 -8 -14 -26 -63 -41 -110
-14 -47 -33 -99 -40 -117 -8 -17 -16 -53 -19 -80 -3 -27 -9 -70 -14 -96 -5
-26 -7 -87 -4 -135 5 -119 7 -132 25 -172 14 -34 15 -47 9 -175 -2 -51 -4 -56
-12 -34 -15 39 -51 55 -96 41 -37 -11 -85 -22 -100 -23 -5 0 -12 -7 -16 -15
-10 -17 -38 -19 -32 -2 2 7 -4 29 -13 48 -13 26 -25 36 -52 41 -32 7 -38 4
-72 -32 -20 -21 -40 -39 -45 -39 -4 0 -14 -9 -21 -20 -7 -11 -18 -20 -26 -20
-12 0 -12 8 -1 58 24 101 37 222 26 236 -6 7 -6 17 -1 26 5 8 5 21 -1 32 -5
10 -6 18 -2 18 4 0 -1 6 -11 13 -19 14 -76 11 -76 -4 0 -5 -4 -9 -10 -9 -5 0
-1 16 10 35 11 20 20 42 20 51 0 8 6 17 14 20 13 5 24 49 32 129 7 71 14 108
24 120 5 7 7 15 4 18 -7 7 -13 116 -18 328 -3 138 14 288 38 341 4 9 9 25 11
35 2 10 4 18 5 18 1 0 4 11 6 25 2 13 13 39 24 58 11 18 20 44 20 58 0 13 5
24 10 24 6 0 10 6 9 13 -2 9 5 55 16 107 0 3 4 26 8 52 5 25 15 52 22 58 8 7
15 21 15 31 0 11 4 19 9 19 11 0 41 80 41 111 0 42 -22 63 -66 61 -32 -1 -36
1 -23 11 9 7 22 30 30 52 7 22 19 47 26 56 7 9 10 18 7 22 -3 3 3 11 14 18 16
10 19 20 15 46 -4 21 1 47 14 75 11 24 23 56 27 72 4 16 16 41 27 54 10 14 19
29 19 33 0 5 8 18 18 28 31 35 42 50 42 58 0 11 112 113 125 113 5 0 19 11 29
25 10 14 24 25 31 25 7 0 22 9 35 20 13 11 42 25 64 31 23 6 82 25 131 43 75
26 90 35 89 53 0 20 0 20 28 3 29 -17 30 -17 81 11 40 22 60 28 87 24 19 -3
62 -9 95 -14z"/>
<path d="M2214 2835 c-28 -43 18 -126 78 -140 18 -4 40 -9 48 -11 49 -12 188
-16 208 -5 32 17 34 80 3 107 -23 20 -27 20 -70 7 -73 -22 -172 3 -186 47 -9
30 -60 27 -81 -5z"/>
<path d="M3310 2780 c-19 -10 -62 -21 -95 -25 -75 -9 -95 -19 -95 -50 0 -61
39 -75 148 -54 37 7 74 12 83 11 8 -2 28 9 42 24 35 35 36 76 2 98 -30 19 -40
19 -85 -4z"/>
<path d="M2865 2311 c-25 -23 -84 -32 -124 -20 -34 10 -44 9 -65 -5 -29 -18
-32 -60 -7 -86 16 -17 169 -31 178 -17 3 5 11 6 17 4 17 -7 69 35 72 58 3 22
-32 75 -50 75 -6 0 -16 -4 -21 -9z"/>
<path d="M2539 2166 c-2 -2 -20 -7 -39 -10 -39 -6 -82 -22 -177 -67 -33 -16
-68 -26 -77 -23 -10 4 -28 -6 -50 -27 -46 -46 -75 -69 -85 -69 -9 0 -31 -68
-31 -98 0 -11 -5 -24 -10 -27 -6 -4 -8 -10 -6 -14 8 -12 -16 -105 -30 -116
-10 -8 -10 -17 1 -49 7 -21 20 -46 29 -54 13 -13 19 -12 52 9 21 12 34 17 30
10 -5 -7 -10 -67 -13 -133 -4 -113 -3 -122 18 -144 16 -17 29 -22 48 -18 33 7
49 -10 86 -93 16 -34 38 -66 49 -71 12 -5 27 -22 35 -38 7 -16 17 -36 22 -46
4 -9 11 -49 14 -90 6 -63 8 -86 14 -144 2 -22 51 -64 74 -64 13 0 33 10 45 22
39 42 46 46 72 36 25 -8 70 -74 70 -102 0 -9 4 -16 9 -16 5 0 17 -7 25 -16 9
-9 22 -17 29 -18 6 -1 17 -4 22 -7 6 -4 33 4 60 17 28 13 47 24 43 24 -3 0 10
16 30 36 30 30 37 33 44 20 14 -24 60 -44 88 -37 15 4 32 20 42 41 10 18 24
37 32 42 17 10 46 0 46 -16 0 -13 34 -36 63 -42 30 -5 63 20 70 54 3 16 17 53
31 83 13 30 26 63 28 74 3 14 11 19 26 18 15 -2 22 3 22 14 0 20 57 124 76
138 19 14 44 91 44 135 0 20 5 50 10 66 6 17 7 54 3 89 -7 53 -11 61 -36 69
-43 16 -58 -7 -62 -95 -3 -78 -21 -166 -36 -175 -5 -3 -9 -14 -9 -25 0 -10 -7
-20 -15 -20 -8 -1 -21 -2 -27 -3 -19 -2 -83 -126 -86 -167 -5 -54 -6 -61 -21
-96 -7 -18 -17 -33 -21 -33 -12 0 -40 29 -40 41 0 26 -73 68 -85 49 -4 -6 -15
-10 -26 -10 -13 0 -19 -7 -19 -22 -1 -13 -7 -34 -14 -48 l-14 -24 -12 39 c-9
30 -21 44 -46 56 l-34 17 -25 -43 c-14 -23 -25 -49 -25 -59 0 -9 -13 -25 -29
-34 -17 -9 -32 -25 -35 -34 -6 -27 -22 -22 -47 15 -36 52 -137 147 -156 147
-23 0 -83 -36 -83 -50 0 -5 -4 -10 -9 -10 -4 0 -11 37 -15 83 -8 92 -20 140
-47 178 -10 14 -15 29 -12 33 4 4 -3 9 -15 12 -25 7 -57 82 -49 114 6 24 -10
90 -22 90 -4 0 -13 11 -19 25 -9 20 -19 25 -46 25 -19 0 -38 6 -42 12 -13 21
-7 112 10 153 34 80 15 120 -54 112 -46 -5 -47 -3 -20 73 15 45 24 56 50 65
17 6 39 20 48 31 19 23 68 47 172 85 19 7 41 17 49 23 8 6 22 10 32 8 11 -2
32 5 48 14 24 14 36 16 63 7 21 -6 43 -6 58 -1 18 7 27 5 36 -6 12 -17 49 -21
58 -7 4 5 21 5 42 -2 28 -8 37 -8 44 2 6 10 23 11 71 5 35 -4 72 -7 81 -5 9 1
35 -7 57 -18 22 -12 46 -21 54 -21 8 0 23 -8 35 -17 11 -10 34 -28 51 -41 17
-13 33 -33 36 -44 4 -11 13 -17 21 -14 8 3 14 2 14 -3 0 -5 9 -11 20 -14 19
-5 69 -99 83 -157 6 -23 46 -50 71 -50 6 0 19 12 30 26 16 23 17 31 6 70 -7
25 -16 47 -21 49 -4 3 -17 26 -30 53 -40 86 -83 152 -99 152 -8 1 -33 9 -55
20 -22 11 -45 19 -51 20 -6 0 -17 7 -24 15 -7 8 -22 15 -34 15 -12 0 -31 7
-42 15 -10 8 -38 15 -61 15 -24 0 -43 3 -43 8 0 4 -64 8 -142 10 -255 4 -326
7 -334 15 -8 8 -28 10 -35 3z"/>
<path d="M3023 1862 c-24 -8 -43 -18 -43 -22 0 -11 -55 -36 -97 -45 -23 -5
-33 -3 -33 5 0 10 -3 10 -15 0 -20 -17 -199 -5 -228 15 -28 19 -52 19 -82 -1
-43 -28 -26 -82 35 -111 42 -19 340 -37 340 -20 0 5 7 6 16 3 9 -4 39 7 69 24
29 16 60 30 69 30 10 0 28 8 40 17 22 17 23 19 9 60 -19 56 -30 62 -80 45z"/>
</g>
</svg>
