<?xml version="1.0" standalone="no"?>
<!DOCTYPE svg PUBLIC "-//W3C//DTD SVG 20010904//EN"
 "http://www.w3.org/TR/2001/REC-SVG-20010904/DTD/svg10.dtd">
<svg version="1.0" xmlns="http://www.w3.org/2000/svg"
 width="483.000000pt" height="345.000000pt" viewBox="0 0 483.000000 345.000000"
 preserveAspectRatio="xMidYMid meet">
<metadata>
Created by potrace 1.16, written by Peter Selinger 2001-2019
</metadata>
<g transform="translate(0.000000,345.000000) scale(0.100000,-0.100000)"
fill="#000000" stroke="none">
<path d="M3650 3031 c-55 -7 -85 -19 -128 -52 -21 -16 -54 -16 -77 2 -23 17
-172 -9 -199 -36 -8 -8 -19 -15 -25 -15 -5 0 -16 -9 -24 -21 -12 -16 -28 -21
-71 -24 -43 -3 -61 -9 -83 -29 -22 -21 -35 -25 -64 -22 -21 3 -39 3 -42 0 -2
-3 -68 -7 -147 -9 -78 -2 -147 -9 -154 -14 -6 -6 -25 -9 -41 -7 -18 2 -38 -3
-50 -14 -11 -9 -36 -20 -55 -24 -19 -3 -53 -15 -75 -25 -22 -11 -78 -33 -125
-51 -47 -17 -107 -42 -135 -55 -65 -31 -244 -101 -320 -126 -52 -17 -94 -35
-167 -71 -10 -4 -26 -8 -35 -8 -17 0 -102 -29 -148 -50 -68 -31 -115 -50 -124
-50 -5 0 -39 -13 -76 -30 -37 -16 -73 -30 -80 -30 -7 0 -18 -6 -24 -14 -6 -8
-24 -16 -39 -19 -30 -5 -218 -72 -242 -86 -9 -4 -31 -12 -50 -16 -19 -4 -39
-11 -45 -15 -5 -4 -35 -15 -65 -25 -30 -10 -83 -30 -117 -46 -34 -16 -113 -45
-175 -65 -62 -20 -118 -41 -125 -46 -7 -5 -17 -7 -23 -3 -5 3 -10 1 -10 -5 0
-6 -10 -14 -23 -19 -26 -10 -28 -26 -27 -186 1 -60 1 -163 0 -227 -1 -101 -2
-153 -11 -323 -5 -115 -4 -120 73 -200 39 -41 81 -87 92 -101 12 -15 33 -41
49 -58 15 -17 33 -43 40 -58 6 -16 16 -28 22 -28 14 -1 54 -43 116 -125 52
-68 117 -135 131 -135 4 0 10 -9 13 -20 4 -11 11 -18 16 -15 5 4 9 1 9 -5 0
-14 52 -9 62 5 5 6 8 6 8 -1 0 -8 20 -4 56 9 44 16 60 18 74 9 12 -7 20 -8 22
-1 2 5 30 14 63 19 33 6 69 12 80 14 45 8 122 19 145 21 14 1 50 7 80 13 124
26 329 62 385 68 33 3 123 19 200 34 193 40 343 63 366 57 10 -3 19 0 19 6 0
6 3 7 6 4 4 -3 15 -2 25 3 12 7 20 7 24 0 4 -7 11 -8 18 -2 7 6 32 13 57 17
25 4 54 9 65 12 58 13 165 34 205 39 25 3 50 10 56 15 6 5 14 6 17 3 3 -4 52
2 109 11 57 10 113 19 125 20 12 2 35 6 52 10 18 4 46 9 64 11 63 8 145 22
168 29 13 5 31 9 39 10 33 3 119 17 190 31 41 7 84 12 95 10 11 -2 25 0 30 4
6 4 30 11 54 14 39 5 89 35 99 59 2 4 10 7 17 7 7 0 26 13 41 28 16 16 70 59
119 97 50 38 107 85 128 105 21 19 57 47 80 62 23 15 50 34 60 42 9 9 19 16
21 16 3 0 21 16 41 35 21 19 46 37 56 40 10 4 19 10 19 14 0 5 19 21 43 37 64
43 147 115 159 138 12 23 15 40 29 186 6 71 6 144 -1 225 -15 163 -16 171 -35
265 -11 56 -18 69 -38 72 -12 2 -23 10 -23 18 -1 8 -2 23 -3 32 -1 17 -73 98
-88 98 -4 0 -17 11 -27 25 -11 14 -46 54 -78 88 -33 34 -67 74 -76 90 -12 20
-24 27 -48 27 -25 0 -34 6 -43 28 -17 38 -78 102 -99 102 -29 0 -76 35 -96 73
-26 48 -57 62 -133 61 -34 0 -63 3 -63 7 0 24 -80 39 -160 30z m104 -76 c9 -9
20 -23 24 -32 8 -13 15 -14 42 -4 59 20 99 14 131 -20 16 -17 29 -36 29 -43 1
-26 38 -59 71 -63 48 -5 78 -30 110 -93 35 -68 36 -111 4 -166 -26 -45 -25
-74 4 -74 28 0 30 -8 12 -65 -17 -59 -60 -111 -130 -160 -35 -24 -52 -29 -101
-29 -52 0 -62 4 -80 27 -12 15 -25 27 -30 27 -4 0 -19 -24 -34 -52 -34 -68
-44 -81 -86 -107 -42 -25 -66 -26 -108 -5 -44 22 -44 20 -51 133 -1 8 -4 11
-8 8 -3 -4 -12 -2 -19 4 -9 8 -16 2 -29 -24 -11 -24 -30 -40 -64 -55 -76 -35
-150 -26 -219 26 -30 21 -33 28 -28 57 5 25 3 34 -10 39 -9 3 -23 1 -30 -5 -8
-6 -14 -8 -14 -3 0 5 -8 -5 -16 -23 -22 -45 -74 -73 -135 -73 -58 0 -69 15
-43 58 17 30 17 30 -19 65 -42 43 -49 62 -38 102 6 24 13 30 33 28 37 -2 50
29 53 131 3 98 16 146 40 146 8 0 15 5 15 11 0 6 6 17 14 25 8 7 12 22 10 32
-4 13 5 22 31 35 46 22 57 21 73 -3 19 -31 48 -25 56 11 8 41 55 83 110 99 38
10 51 10 93 -5 26 -9 56 -21 65 -26 14 -7 27 -1 57 27 46 41 76 52 148 53 34
1 57 -4 67 -14z m-880 -253 c3 -5 18 -8 34 -7 l29 2 -14 -61 c-8 -34 -12 -69
-9 -79 6 -25 -3 -47 -19 -47 -7 0 -24 -12 -38 -26 -23 -23 -26 -32 -24 -93 2
-57 6 -73 30 -104 15 -20 23 -37 18 -37 -15 0 -14 -79 2 -93 21 -21 67 -37
104 -37 41 0 113 19 113 30 0 14 39 18 44 4 3 -7 38 -28 78 -47 53 -25 85 -34
118 -33 46 2 118 21 135 37 18 17 35 9 52 -25 12 -27 24 -36 52 -41 20 -4 41
-11 48 -17 30 -24 119 14 175 76 l37 40 86 2 c81 2 89 4 138 38 29 19 65 47
81 61 16 14 33 25 38 25 5 0 7 4 4 9 -3 5 1 14 10 22 29 24 41 58 51 140 4 32
1 50 -9 60 -12 11 -12 20 -3 42 l11 28 42 -45 c23 -25 42 -48 42 -51 0 -3 11
-18 25 -33 14 -15 25 -33 25 -40 0 -7 11 -17 24 -24 35 -15 39 -34 10 -53 -13
-8 -53 -45 -89 -80 -36 -36 -69 -65 -74 -65 -6 0 -34 -21 -62 -46 -29 -26 -75
-62 -103 -80 -28 -19 -78 -57 -111 -85 -84 -71 -189 -139 -213 -139 -11 0 -22
-4 -24 -10 -1 -5 -13 -11 -24 -13 -12 -1 -29 -10 -37 -19 -16 -15 -35 -20
-132 -33 -23 -3 -52 -8 -65 -10 -14 -3 -41 -7 -60 -9 -19 -3 -42 -7 -50 -10
-8 -3 -28 -8 -45 -11 -16 -3 -39 -8 -50 -10 -11 -2 -42 -6 -68 -9 -26 -3 -57
-11 -69 -17 -11 -6 -33 -9 -49 -7 -16 3 -29 1 -29 -2 0 -4 -19 -10 -42 -14
-24 -4 -54 -9 -68 -11 -14 -2 -54 -7 -90 -11 -35 -3 -71 -9 -80 -14 -8 -4 -33
-10 -55 -14 -22 -3 -56 -10 -75 -16 -19 -6 -69 -15 -110 -20 -87 -11 -166 -25
-230 -40 -25 -6 -94 -20 -155 -30 -60 -10 -137 -23 -169 -29 -43 -8 -63 -7
-73 0 -10 9 -13 8 -13 -5 0 -10 -9 -16 -22 -17 -36 -1 -156 -22 -323 -55 -38
-7 -106 -17 -150 -20 -44 -4 -84 -10 -90 -14 -9 -7 -37 -11 -175 -25 -19 -2
-46 -7 -60 -10 -14 -3 -54 -8 -90 -11 -36 -3 -75 -12 -87 -20 -29 -18 -73 -18
-73 0 0 17 -38 61 -188 221 -32 34 -92 103 -164 190 -9 11 -25 30 -35 42 -10
11 -25 31 -33 42 -8 12 -20 21 -28 21 -64 0 214 123 388 171 19 6 53 19 75 29
22 11 63 27 90 35 28 9 64 22 80 29 56 25 194 76 204 76 6 0 34 11 63 24 29
13 80 33 113 46 33 13 74 28 90 35 17 7 57 23 90 35 33 13 79 31 102 42 24 10
49 18 56 18 7 0 17 4 22 8 6 4 36 16 68 27 31 10 62 24 68 32 6 7 17 13 24 13
6 0 54 18 106 39 52 22 105 41 119 43 14 2 30 6 35 9 6 3 30 11 55 18 25 7 65
23 90 36 25 12 70 28 100 36 30 7 59 16 65 21 5 4 15 8 23 8 7 0 39 12 70 26
31 15 67 29 79 33 36 10 211 12 217 3z m1650 -496 c32 -171 22 -536 -14 -536
-6 0 -10 -6 -10 -13 0 -20 -143 -149 -240 -217 -47 -33 -98 -70 -114 -82 -16
-13 -33 -25 -38 -27 -5 -1 -20 -13 -33 -25 -13 -11 -44 -37 -69 -56 -25 -19
-64 -52 -87 -72 -22 -21 -42 -38 -44 -38 -7 0 -4 207 3 260 5 30 4 100 0 155
-16 201 -18 185 27 231 22 22 56 51 75 64 19 14 44 32 54 42 11 10 26 18 33
18 7 0 13 5 13 10 0 6 5 10 11 10 6 0 35 20 63 45 29 25 58 45 65 45 6 0 11 4
11 9 0 5 15 16 33 24 17 9 48 32 67 52 19 19 51 44 71 55 20 10 39 26 42 35 4
8 15 15 26 15 10 0 21 7 25 15 9 25 23 17 30 -19z m-763 -589 c11 -41 14 -122
4 -137 -2 -4 -1 -20 4 -36 4 -16 5 -39 0 -51 -7 -19 -15 -128 -22 -300 -2 -41
-3 -42 -46 -53 -24 -6 -45 -9 -48 -6 -2 2 -19 0 -36 -6 -18 -5 -43 -11 -57
-13 -14 -2 -59 -11 -100 -20 -83 -18 -154 -32 -215 -41 -22 -3 -43 -8 -47 -10
-5 -3 -8 0 -8 6 0 7 -7 5 -16 -4 -8 -9 -27 -16 -42 -16 -15 0 -43 -4 -62 -10
-19 -5 -51 -12 -70 -15 -19 -2 -62 -9 -95 -14 -33 -5 -63 -7 -67 -4 -4 2 -54
-7 -110 -21 -106 -26 -128 -30 -238 -46 -36 -6 -101 -17 -145 -25 -249 -47
-427 -75 -436 -70 -5 4 -16 2 -24 -5 -7 -6 -19 -10 -27 -9 -7 1 -24 0 -38 -4
-48 -11 -285 -49 -304 -49 -11 1 -26 -3 -35 -7 -9 -5 -47 -12 -86 -16 -38 -3
-107 -15 -153 -26 -45 -11 -94 -19 -110 -18 -15 1 -40 -1 -57 -4 -16 -4 -52
-9 -79 -12 -27 -3 -51 -7 -54 -9 -2 -3 -13 -1 -23 4 -12 7 -19 6 -22 -3 -2 -6
-10 8 -17 33 -9 32 -11 118 -8 303 4 275 5 280 53 275 11 -1 36 3 55 9 19 6
73 17 120 23 47 6 101 14 120 16 19 3 77 14 129 25 52 11 126 22 165 25 39 3
77 9 86 14 8 4 35 11 60 15 25 3 79 13 120 21 41 7 100 15 130 18 30 2 62 6
70 9 14 5 188 40 260 52 19 3 62 10 95 16 33 6 74 12 90 14 17 1 75 12 130 23
55 12 120 24 145 27 25 4 81 15 125 25 102 24 213 40 290 43 33 1 66 8 73 15
8 7 18 10 23 7 5 -3 17 -2 26 4 10 5 34 10 53 12 19 2 40 5 45 8 6 3 19 6 30
7 11 1 37 3 58 5 20 2 37 7 37 12 0 5 12 8 28 7 15 -1 29 -1 32 0 3 1 14 3 25
5 11 2 36 7 55 11 19 4 38 8 42 8 3 1 9 3 11 6 3 3 26 4 51 2 44 -4 46 -5 57
-45z m-3303 -66 c26 -30 53 -60 60 -67 6 -7 12 -17 12 -22 0 -6 4 -12 8 -14 5
-1 26 -28 49 -58 22 -30 47 -61 56 -69 10 -7 17 -19 17 -25 0 -7 11 -23 25
-36 13 -13 36 -45 51 -73 25 -48 26 -54 19 -161 -3 -61 -6 -166 -5 -233 0 -68
-3 -123 -7 -123 -10 0 -67 60 -143 149 -76 89 -120 139 -155 176 -16 17 -45
49 -62 72 -30 37 -32 46 -28 89 3 27 6 146 7 264 0 118 3 219 5 223 3 4 14 -2
25 -15 10 -13 40 -47 66 -77z"/>
<path d="M3390 2806 c-21 -14 -39 -20 -46 -15 -22 18 -84 -57 -84 -103 0 -26
25 -49 62 -57 33 -8 48 -3 120 33 72 35 83 45 86 69 3 20 -4 35 -22 52 -14 13
-26 29 -26 35 0 18 -54 10 -90 -14z"/>
<path d="M3763 2755 c-17 -7 -45 -26 -62 -41 -24 -21 -31 -35 -31 -66 0 -21 5
-38 10 -38 6 0 10 -9 10 -19 0 -11 4 -23 10 -26 5 -3 17 -23 26 -43 27 -62 30
-67 59 -77 23 -8 30 -6 46 14 12 15 17 34 15 55 -4 26 2 38 35 70 21 22 39 48
39 58 0 24 -29 68 -45 68 -7 0 -18 12 -24 28 -13 31 -41 37 -88 17z"/>
<path d="M3423 2531 c-19 -12 -35 -16 -38 -11 -11 17 -49 11 -78 -13 -24 -18
-30 -33 -36 -83 -7 -64 3 -106 29 -113 34 -9 67 -8 99 6 19 7 41 11 49 8 34
-13 63 8 88 62 42 96 27 151 -43 159 -27 4 -47 -1 -70 -15z m-73 -146 c0 -8
-4 -15 -10 -15 -5 0 -10 7 -10 15 0 8 5 15 10 15 6 0 10 -7 10 -15z"/>
</g>
</svg>
