<?xml version="1.0" standalone="no"?>
<!DOCTYPE svg PUBLIC "-//W3C//DTD SVG 20010904//EN"
 "http://www.w3.org/TR/2001/REC-SVG-20010904/DTD/svg10.dtd">
<svg version="1.0" xmlns="http://www.w3.org/2000/svg"
 width="433.000000pt" height="461.000000pt" viewBox="0 0 433.000000 461.000000"
 preserveAspectRatio="xMidYMid meet">
<metadata>
Created by potrace 1.16, written by Peter Selinger 2001-2019
</metadata>
<g transform="translate(0.000000,461.000000) scale(0.100000,-0.100000)"
fill="#000000" stroke="none">
<path d="M735 4482 c-11 -2 -24 -8 -29 -13 -6 -5 -16 -9 -23 -9 -47 0 -183
-102 -183 -137 0 -8 -6 -24 -14 -36 -8 -12 -15 -43 -14 -70 0 -44 3 -51 54
-102 31 -30 62 -55 70 -55 8 0 13 -4 10 -9 -7 -11 89 -35 103 -27 5 4 13 1 16
-5 4 -5 13 -8 21 -5 7 3 44 -1 81 -9 37 -8 86 -15 108 -17 22 -2 46 -8 53 -12
7 -4 24 -5 38 -2 14 4 24 2 24 -4 0 -6 5 -8 10 -5 6 3 10 3 10 -2 0 -4 17 -8
38 -9 53 -1 132 -14 152 -24 10 -5 20 -7 22 -4 3 2 18 -1 34 -7 16 -6 44 -13
63 -15 18 -2 38 -7 45 -12 6 -5 35 -15 65 -22 30 -7 66 -19 80 -26 14 -8 32
-14 39 -14 6 0 12 -5 12 -11 0 -5 5 -7 11 -3 6 3 21 1 32 -5 31 -15 206 -71
224 -71 8 0 29 -6 46 -14 18 -8 40 -17 50 -20 24 -8 12 -26 -17 -26 -13 0 -35
-10 -50 -21 -15 -12 -30 -19 -33 -15 -3 3 -13 -4 -21 -15 -20 -29 -26 -117 -9
-143 9 -13 11 -29 6 -41 -4 -11 -8 -48 -8 -81 -1 -58 -2 -61 -25 -61 -13 0
-39 -8 -56 -17 -18 -9 -37 -16 -43 -16 -11 0 -144 -66 -213 -106 -56 -32 -174
-124 -174 -135 0 -4 -8 -10 -19 -14 -35 -11 -229 -215 -263 -277 -9 -17 -26
-39 -37 -50 -19 -17 -25 -30 -23 -49 1 -4 -8 -15 -18 -24 -11 -10 -20 -23 -20
-29 0 -6 -15 -42 -35 -81 -19 -38 -49 -108 -67 -155 -17 -47 -35 -90 -40 -96
-10 -13 -49 -213 -64 -329 -16 -122 -19 -159 -18 -230 2 -146 30 -324 67 -412
14 -34 28 -77 32 -95 6 -33 20 -70 36 -98 5 -8 32 -60 60 -115 28 -55 63 -122
77 -149 41 -75 230 -261 342 -336 12 -8 28 -20 34 -26 6 -6 23 -17 38 -25 35
-19 172 -110 178 -118 3 -4 25 -17 50 -30 25 -12 52 -26 60 -31 21 -12 144
-58 172 -64 57 -13 168 -38 228 -52 36 -8 76 -17 90 -20 14 -2 32 -7 40 -11
18 -7 26 -8 165 -17 72 -6 124 -4 150 3 22 6 92 13 155 16 134 6 173 11 197
23 10 5 24 7 32 4 7 -2 16 0 20 5 3 5 60 36 126 68 66 32 143 75 171 96 28 22
69 49 92 61 52 29 193 162 244 230 21 29 45 56 53 61 8 4 15 13 15 20 0 12 15
41 73 147 15 27 27 51 26 52 -1 4 11 39 21 63 17 39 78 241 91 300 7 33 15 62
19 65 15 13 64 234 69 310 5 72 5 380 0 445 -6 88 -98 447 -120 470 -5 5 -9
17 -9 27 0 22 -68 164 -95 197 -11 13 -30 33 -42 44 -13 12 -23 24 -23 29 0 5
-28 38 -62 73 -35 35 -81 86 -103 114 -22 27 -43 50 -48 50 -4 1 -35 22 -70
49 -66 50 -93 68 -117 79 -8 3 -34 14 -57 24 -23 11 -45 19 -48 19 -3 0 -25 9
-49 19 -45 21 -81 27 -205 36 -41 3 -78 10 -82 16 -4 7 -9 7 -12 2 -4 -6 -32
-8 -64 -5 -32 3 -111 6 -175 6 -65 0 -118 4 -118 8 0 5 -6 8 -13 8 -11 0 -14
30 -14 139 -1 136 -2 139 -28 165 -14 14 -24 30 -21 35 9 15 -21 21 -98 21
-73 0 -73 0 -68 25 8 45 -6 72 -49 93 -42 21 -72 17 -90 -10 -3 -5 -18 3 -33
17 -15 14 -36 25 -46 25 -10 0 -45 7 -77 16 -32 9 -83 22 -113 29 -30 7 -77
22 -103 34 -27 11 -55 21 -63 21 -7 0 -29 9 -49 20 -19 11 -37 19 -40 19 -14
-3 -85 15 -125 31 -75 30 -83 32 -140 37 -30 3 -61 8 -70 13 -8 4 -35 9 -60
11 -25 1 -49 6 -55 9 -5 4 -32 11 -60 15 -27 4 -61 9 -75 12 -14 2 -43 6 -65
7 -22 2 -42 4 -45 5 -6 3 -50 9 -100 15 -81 9 -113 20 -144 50 -28 26 -32 36
-28 68 4 34 12 46 59 89 10 9 40 22 66 29 48 13 67 32 67 67 0 28 -22 50 -45
45z m1410 -772 c3 -5 1 -10 -4 -10 -6 0 -11 5 -11 10 0 6 2 10 4 10 3 0 8 -4
11 -10z m-97 -123 c-1 -12 9 -41 21 -64 30 -56 63 -59 87 -8 16 35 16 36 -6
60 l-23 25 91 -1 c121 -1 122 -3 118 -175 -2 -90 -6 -129 -15 -132 -7 -2 -23
-15 -35 -29 l-24 -25 -45 17 c-31 12 -61 15 -97 12 -46 -5 -55 -3 -71 16 -13
17 -28 22 -61 22 l-43 0 -2 44 c-1 24 2 63 6 86 5 28 4 53 -4 72 -17 40 -5 62
46 87 50 25 59 24 57 -7z m802 -406 c58 -1 119 -4 135 -7 17 -3 39 -7 50 -8
11 -2 27 -6 35 -9 8 -4 41 -16 72 -27 32 -12 60 -25 63 -30 3 -5 28 -21 55
-36 28 -15 50 -31 50 -35 0 -4 10 -11 22 -15 23 -7 62 -45 188 -184 41 -46 82
-91 91 -100 9 -10 25 -32 35 -51 11 -18 25 -40 33 -49 12 -13 12 -15 -5 -20
-32 -8 -61 -33 -69 -60 -8 -25 -33 -55 -47 -55 -4 0 -15 -11 -24 -24 -9 -13
-32 -29 -50 -37 -19 -8 -34 -19 -34 -25 0 -5 -4 -8 -9 -5 -5 4 -11 2 -13 -4
-1 -5 -30 -17 -62 -25 -33 -9 -65 -20 -70 -24 -6 -5 -27 -12 -46 -16 -19 -3
-61 -15 -92 -26 -57 -20 -80 -26 -128 -34 -14 -2 -47 -13 -75 -23 -27 -11 -95
-25 -150 -31 -55 -6 -111 -14 -125 -17 -71 -18 -408 -34 -545 -25 -22 2 -67 0
-100 -4 -50 -6 -69 -4 -106 13 -74 34 -63 32 -334 47 -60 3 -133 12 -161 21
-28 8 -56 14 -60 12 -25 -7 -87 16 -116 44 -18 17 -53 42 -78 56 -54 31 -67
43 -80 76 -7 19 -17 26 -35 26 -17 0 -25 5 -25 17 0 17 48 122 61 133 3 3 40
50 81 105 42 55 105 125 139 155 118 103 191 160 205 160 8 0 14 5 14 10 0 6
7 10 15 10 8 0 15 4 15 8 0 12 131 76 155 76 11 -1 46 -13 77 -27 31 -15 62
-27 68 -27 6 0 45 -17 88 -39 42 -21 93 -39 112 -39 19 -1 69 -8 110 -17 99
-22 169 -20 222 4 24 10 61 24 84 30 22 6 49 20 59 31 10 11 22 20 27 20 15 0
98 87 98 103 0 11 8 13 38 7 20 -3 84 -7 142 -9z m906 -747 c23 -72 82 -338
90 -399 10 -86 6 -362 -6 -463 -11 -88 -35 -156 -51 -146 -5 3 -16 -11 -26
-30 -9 -20 -22 -36 -29 -36 -6 0 -34 -20 -60 -45 -27 -25 -54 -45 -60 -45 -5
0 -34 -20 -63 -45 -29 -25 -59 -45 -67 -45 -8 0 -14 -5 -14 -11 0 -6 -6 -9
-14 -6 -7 3 -23 -1 -35 -9 -12 -8 -25 -13 -30 -10 -5 3 -19 -3 -32 -13 -27
-21 -85 -41 -114 -40 -11 1 -44 -8 -72 -19 -29 -11 -53 -18 -53 -16 0 3 -10
-1 -22 -7 -12 -6 -49 -13 -82 -15 -34 -2 -79 -7 -101 -13 -22 -5 -74 -9 -115
-10 -41 0 -142 -4 -225 -7 -82 -4 -202 -6 -265 -6 -63 1 -155 2 -205 2 -49 1
-119 8 -155 15 -36 8 -81 14 -101 15 -36 0 -105 20 -209 60 -34 13 -90 23
-145 27 -49 3 -106 12 -125 20 -19 8 -69 24 -110 35 -40 10 -94 29 -119 40
l-45 20 33 14 c39 17 63 18 77 4 14 -14 72 7 77 28 5 22 -18 68 -38 76 -12 4
-15 16 -13 43 3 30 9 38 28 43 31 7 55 52 42 77 -5 10 -13 54 -17 97 l-7 79
44 -6 c48 -7 60 -2 77 30 9 19 6 32 -20 84 -28 55 -36 89 -39 176 0 21 -31 43
-60 43 -29 0 -90 -42 -90 -62 0 -6 -9 -18 -19 -27 -10 -9 -26 -33 -34 -53 -8
-20 -29 -50 -47 -66 -25 -24 -31 -37 -28 -62 3 -28 17 -43 66 -67 7 -3 -31
-68 -49 -86 -11 -10 -19 -28 -20 -40 0 -12 -2 -32 -3 -44 -2 -13 0 -23 4 -23
3 0 14 -6 24 -13 18 -13 18 -15 1 -40 -9 -15 -14 -27 -11 -27 3 0 -9 -22 -28
-50 -19 -27 -36 -55 -38 -62 -4 -10 -11 -10 -33 2 -15 8 -35 14 -44 12 -21 -3
-57 106 -66 198 -3 36 -9 85 -12 110 -13 90 -8 218 12 310 3 14 9 50 14 80 14
83 21 123 26 140 2 8 7 31 10 50 7 42 68 172 75 161 3 -5 29 -21 59 -36 29
-14 59 -31 65 -36 37 -29 154 -103 175 -110 14 -4 44 -10 66 -13 22 -3 60 -12
85 -19 26 -8 75 -13 114 -11 37 1 79 -2 93 -7 14 -5 66 -12 115 -15 50 -2 98
-9 107 -13 27 -15 102 -25 196 -27 50 -1 133 -4 185 -7 52 -3 137 0 188 7 51
6 104 10 117 9 13 -2 82 6 154 17 72 11 134 19 138 18 15 -4 248 54 270 68 11
7 32 16 45 18 101 22 165 40 178 51 13 11 46 22 88 31 8 1 31 14 53 28 21 14
41 26 44 26 8 0 104 79 127 104 10 10 18 16 18 12 0 -4 12 0 28 8 36 20 44 17
58 -30z m-10 -1231 c-8 -21 -27 -80 -42 -130 -15 -51 -31 -93 -36 -93 -6 0 -8
-6 -5 -12 8 -24 -83 -208 -103 -208 -5 0 -12 -10 -16 -22 -6 -20 -32 -50 -149
-173 -22 -23 -74 -65 -115 -94 -41 -28 -93 -65 -115 -81 -22 -16 -46 -29 -52
-30 -7 0 -13 -4 -13 -10 0 -5 -4 -10 -9 -10 -5 0 -38 -13 -73 -29 -114 -53
-245 -85 -284 -70 -12 4 -25 5 -28 2 -3 -3 -18 -7 -33 -8 -16 -2 -53 -6 -83
-10 -120 -14 -256 -3 -425 35 -148 33 -189 42 -213 45 -34 5 -176 58 -180 67
-2 5 -8 6 -13 3 -9 -6 -101 43 -107 57 -2 4 -7 8 -12 8 -4 0 -34 18 -66 40
-33 23 -96 66 -142 97 -46 31 -91 66 -100 77 -9 12 -28 28 -42 37 -39 25 -120
110 -120 126 0 8 -4 11 -10 8 -5 -3 -10 -2 -10 4 0 5 -11 22 -24 38 -25 30
-99 168 -96 179 1 4 -2 10 -7 13 -16 11 -63 121 -52 121 6 0 39 -15 72 -34 51
-27 156 -66 177 -65 3 0 39 -12 80 -27 84 -30 97 -33 193 -35 37 -1 70 -5 73
-10 3 -5 13 -9 23 -9 9 0 44 -13 76 -30 50 -26 143 -49 168 -42 5 1 41 -4 82
-13 91 -18 193 -26 355 -27 156 -1 525 10 565 17 17 3 74 7 128 10 71 4 124
14 190 36 51 16 104 32 119 34 54 7 69 13 227 86 52 24 98 43 102 41 5 -1 9 3
9 9 0 14 123 117 142 118 4 1 2 -16 -6 -36z"/>
<path d="M3463 2172 c-28 -9 -63 -38 -64 -54 0 -7 -1 -58 -3 -113 -1 -58 -7
-110 -14 -123 -28 -49 -13 -136 19 -117 11 8 11 2 -2 -87 -13 -91 -3 -126 41
-134 35 -7 36 -15 11 -69 -10 -22 -19 -43 -20 -47 0 -5 -9 -23 -19 -40 -44
-82 2 -104 153 -73 57 11 64 16 75 53 14 53 13 73 -10 110 -11 18 -20 42 -20
53 0 11 -5 29 -10 40 -8 15 -7 23 4 34 8 8 19 15 25 15 16 0 43 60 35 78 -3
10 -8 27 -10 39 -1 12 -12 43 -24 70 -13 30 -17 49 -10 51 6 2 17 10 24 18 8
8 19 14 25 14 6 0 15 9 21 20 8 16 7 27 -7 50 -9 17 -20 30 -24 30 -3 0 -31
33 -62 73 -31 39 -65 82 -74 94 -19 24 -24 25 -60 15z"/>
<path d="M2793 1948 c-9 -18 -17 -40 -18 -48 -10 -99 -48 -230 -66 -230 -5 0
-9 -17 -9 -38 0 -29 5 -40 23 -47 12 -6 20 -17 18 -25 -2 -8 -6 -26 -9 -40 -2
-14 -12 -34 -21 -45 -30 -37 -38 -60 -34 -91 6 -42 41 -59 73 -37 l23 16 -8
-59 c-5 -42 -15 -68 -35 -92 -32 -38 -30 -63 7 -87 20 -14 30 -14 61 -4 20 6
61 12 92 11 57 0 86 10 107 37 18 23 17 27 -23 71 -20 22 -33 40 -29 40 4 0 1
10 -7 23 -8 12 -18 34 -21 49 -4 14 -10 33 -13 42 -5 13 1 16 27 16 53 1 93
46 68 76 -6 8 -8 14 -5 14 4 0 2 6 -4 13 -34 40 -58 81 -53 93 3 8 18 14 34
14 31 0 42 15 54 69 5 23 4 31 -4 27 -6 -4 -11 -2 -11 3 0 6 -6 11 -13 11 -8
0 -22 17 -33 37 -10 21 -26 45 -35 55 -8 10 -21 42 -28 70 -21 91 -74 119
-108 56z"/>
<path d="M2000 1940 c0 -4 -11 -12 -24 -18 -18 -8 -25 -21 -31 -58 -7 -48 -48
-137 -75 -164 -25 -25 -30 -40 -21 -57 5 -10 12 -26 15 -35 4 -13 16 -18 41
-18 38 0 55 -20 37 -43 -6 -6 -12 -26 -14 -42 -2 -17 -14 -52 -27 -79 -23 -47
-24 -50 -7 -81 16 -30 16 -35 2 -62 -29 -56 -51 -128 -48 -155 5 -39 46 -63
82 -48 16 7 33 12 37 12 4 0 18 4 31 9 12 5 22 5 22 0 0 -17 33 -21 61 -9 25
11 34 25 31 49 -3 24 -13 63 -30 117 l-20 63 38 15 c48 19 53 31 30 80 -59
129 -63 153 -27 155 36 2 40 3 73 21 40 22 51 64 23 94 -10 11 -19 28 -19 37
0 9 -3 16 -7 15 -5 -2 -23 8 -41 22 -27 20 -32 30 -31 60 3 59 0 67 -30 96
-27 25 -71 40 -71 24z"/>
</g>
</svg>
