<?xml version="1.0" standalone="no"?>
<!DOCTYPE svg PUBLIC "-//W3C//DTD SVG 20010904//EN"
 "http://www.w3.org/TR/2001/REC-SVG-20010904/DTD/svg10.dtd">
<svg version="1.0" xmlns="http://www.w3.org/2000/svg"
 width="489.000000pt" height="441.000000pt" viewBox="0 0 489.000000 441.000000"
 preserveAspectRatio="xMidYMid meet">
<metadata>
Created by potrace 1.16, written by Peter Selinger 2001-2019
</metadata>
<g transform="translate(0.000000,441.000000) scale(0.100000,-0.100000)"
fill="#000000" stroke="none">
<path d="M705 4340 c-3 -5 -33 -12 -66 -16 -50 -6 -63 -11 -80 -35 -26 -37
-24 -144 4 -226 11 -32 20 -65 21 -73 4 -27 28 -105 35 -110 6 -4 26 -49 45
-100 3 -8 17 -33 30 -55 35 -57 86 -161 86 -176 0 -7 11 -27 24 -44 26 -34 20
-55 -14 -55 -23 0 -126 -57 -158 -87 -15 -14 -37 -32 -49 -40 -13 -9 -23 -19
-23 -24 0 -5 -9 -18 -20 -29 -11 -11 -20 -27 -20 -35 0 -8 -4 -15 -8 -15 -10
0 -46 -80 -60 -130 -5 -19 -6 -44 -1 -55 4 -11 5 -29 2 -40 -5 -25 10 -67 33
-93 55 -65 63 -70 120 -83 32 -7 64 -16 71 -21 13 -10 185 -27 246 -25 36 2
39 0 56 -43 43 -108 44 -111 26 -273 -3 -21 -12 -55 -21 -75 -33 -74 -59 -127
-69 -138 -6 -6 -19 -30 -29 -53 -11 -22 -23 -41 -27 -41 -5 0 -24 -31 -43 -70
-19 -38 -33 -70 -30 -70 3 0 -4 -13 -14 -28 -17 -23 -34 -72 -57 -162 -2 -8
-9 -35 -16 -60 -15 -55 -20 -179 -7 -202 6 -13 5 -18 -6 -18 -8 0 -19 -15 -26
-34 -6 -19 -19 -44 -30 -56 -17 -20 -51 -112 -54 -150 -1 -9 -6 -21 -10 -28
-10 -17 3 -112 16 -112 6 0 8 -7 4 -15 -7 -19 27 -129 59 -194 14 -27 25 -53
25 -57 0 -5 16 -25 35 -44 46 -45 46 -70 1 -70 -19 0 -37 -4 -40 -9 -3 -4 -23
-11 -43 -14 -21 -4 -61 -18 -89 -32 -29 -14 -61 -28 -73 -30 -12 -3 -29 -7
-39 -9 -24 -5 -88 -49 -134 -92 -20 -19 -42 -34 -47 -34 -6 0 -15 -9 -21 -20
-6 -11 -16 -20 -23 -20 -17 0 -46 -54 -53 -100 -5 -33 -2 -43 20 -65 14 -14
26 -30 26 -35 0 -30 253 -50 276 -22 5 8 29 14 52 15 23 1 42 5 42 9 0 3 26 8
58 11 31 3 90 13 129 23 40 9 76 15 79 11 3 -3 -4 -20 -16 -37 -44 -62 -6
-135 84 -161 24 -6 99 -9 188 -7 94 2 148 -1 148 -7 0 -6 3 -6 8 0 12 18 142
45 237 50 127 7 152 12 236 41 41 14 92 28 114 30 22 3 44 9 50 13 14 12 107
40 125 39 34 -3 47 3 60 27 7 14 22 25 32 25 20 0 58 20 128 65 25 16 50 30
55 30 12 0 8 135 -4 135 -3 0 -17 20 -30 45 -13 25 -27 45 -31 45 -20 0 -16
31 6 57 13 15 24 35 25 43 0 8 2 28 2 44 2 22 10 34 37 48 19 11 42 28 50 39
14 18 17 17 60 -21 64 -56 64 -56 88 -69 12 -6 32 -21 45 -34 14 -12 42 -31
63 -43 22 -11 48 -25 59 -32 64 -35 155 -72 179 -72 15 0 41 -7 58 -16 32 -17
108 -21 169 -9 22 4 54 24 83 51 26 24 52 42 57 38 5 -3 9 2 9 10 0 8 8 21 18
28 31 24 71 122 92 229 11 59 19 117 17 130 -10 53 -28 109 -36 109 -4 0 -17
18 -30 40 -12 22 -26 40 -32 40 -5 0 -9 6 -9 14 0 7 -12 26 -26 41 -14 15 -29
36 -32 45 -7 18 -52 74 -110 139 -18 20 -43 57 -55 84 -11 26 -24 47 -29 47
-4 0 -8 7 -8 16 0 14 -43 74 -80 113 -26 27 -90 61 -116 61 -13 0 -24 6 -24
13 0 16 -56 49 -100 59 -73 16 -108 20 -196 20 l-92 1 -16 61 c-9 34 -19 77
-22 96 -4 19 -24 65 -45 103 -22 38 -39 71 -39 74 0 3 -11 16 -25 29 -14 13
-25 26 -25 30 0 6 -52 57 -101 99 -34 29 -119 79 -149 87 -14 4 -47 12 -75 18
-27 6 -57 14 -65 17 -8 4 -19 7 -25 7 -16 2 -3 118 31 271 4 17 7 136 8 265
l1 236 28 28 c15 15 36 28 47 29 11 1 20 6 20 12 0 5 47 39 105 75 57 36 104
71 105 78 0 7 5 10 11 7 5 -4 20 4 32 17 24 26 154 140 201 176 16 12 25 22
21 22 -5 0 -1 8 7 18 8 9 26 44 39 77 19 48 23 75 21 138 -2 86 -13 110 -69
153 -40 30 -123 42 -170 22 -36 -14 -48 -17 -103 -22 -51 -5 -80 -14 -80 -26
0 -5 -17 -14 -37 -20 -49 -15 -143 -63 -143 -72 0 -5 -5 -8 -12 -8 -6 0 -18
-7 -27 -15 -9 -9 -47 -38 -86 -66 -38 -27 -78 -56 -88 -64 -9 -8 -19 -15 -21
-15 -2 0 -21 -16 -42 -36 -22 -20 -61 -53 -89 -74 -27 -21 -68 -55 -89 -75
-38 -37 -40 -37 -65 -22 -16 9 -30 30 -35 51 -5 20 -13 36 -17 36 -4 0 -13 16
-19 35 -12 37 -33 65 -117 155 -29 31 -53 60 -53 63 0 4 -13 20 -30 35 -16 16
-30 34 -30 41 0 6 -3 11 -8 11 -4 0 -30 29 -57 64 -30 38 -75 80 -110 103 -64
42 -131 67 -140 53z m86 -145 c32 -27 89 -88 89 -97 0 -4 25 -33 55 -65 30
-32 55 -61 55 -65 0 -4 12 -19 27 -33 15 -14 23 -25 18 -25 -5 0 1 -7 13 -16
23 -16 89 -100 111 -142 7 -13 15 -35 17 -50 3 -14 8 -30 11 -36 4 -6 8 -24 9
-41 1 -16 2 -30 4 -30 1 0 4 -10 5 -22 4 -40 14 -53 40 -53 14 0 25 4 25 10 0
5 17 7 40 4 l40 -6 119 120 c65 66 136 131 157 145 22 13 66 47 99 75 32 28
71 57 85 64 14 6 34 20 45 29 53 44 210 109 299 125 157 27 185 15 181 -78 -2
-29 -10 -70 -18 -90 -15 -37 -79 -106 -156 -168 -23 -19 -50 -42 -59 -51 -9
-9 -33 -24 -52 -35 -19 -10 -42 -28 -51 -39 -19 -23 -99 -70 -99 -58 0 4 -4 3
-8 -3 -4 -6 -31 -26 -60 -44 -42 -25 -55 -30 -67 -20 -13 11 -63 4 -52 -7 3
-2 -6 -15 -20 -29 -13 -13 -22 -28 -18 -33 3 -5 0 -11 -7 -13 -9 -3 -7 -15 7
-43 26 -57 31 -156 20 -405 -7 -151 -10 -171 -29 -209 -9 -17 -14 -36 -11 -41
3 -6 1 -10 -4 -10 -6 0 -11 -9 -11 -19 0 -11 -4 -22 -9 -25 -11 -7 -5 -85 8
-100 6 -7 6 -17 1 -26 -27 -42 2 -71 76 -76 75 -4 195 -35 201 -51 3 -7 14
-13 25 -13 21 0 127 -78 128 -93 0 -4 15 -22 34 -40 18 -18 44 -51 57 -74 12
-24 26 -43 31 -43 4 0 8 -9 8 -20 0 -12 9 -49 20 -83 16 -52 30 -185 33 -317
0 -42 -7 -90 -14 -90 -4 0 -10 -16 -13 -35 -4 -19 -11 -35 -16 -35 -6 0 -10
-7 -10 -15 0 -8 -4 -15 -10 -15 -5 0 -10 -7 -10 -15 0 -28 -93 -125 -120 -125
-29 0 -79 54 -98 107 -16 43 -20 81 -20 245 -2 274 -7 301 -64 346 -20 16 -67
-3 -70 -27 -4 -48 -3 -67 4 -77 4 -6 11 -33 14 -60 7 -57 7 -235 0 -242 -3 -2
-1 -12 3 -21 5 -9 6 -35 1 -59 -5 -29 -4 -45 5 -52 7 -6 15 -27 19 -48 3 -20
17 -57 31 -82 14 -25 28 -53 31 -62 4 -10 11 -18 16 -18 5 0 6 -5 3 -10 -4 -6
-3 -9 2 -8 13 4 133 -106 133 -122 0 -4 11 -12 24 -20 14 -7 27 -23 30 -36 4
-13 13 -24 21 -24 8 0 15 -6 15 -12 1 -22 39 -60 54 -55 20 8 27 -29 13 -62
-15 -32 -33 -52 -41 -44 -9 9 -50 -15 -63 -36 -7 -11 -8 -33 -3 -59 6 -36 4
-45 -16 -68 -13 -14 -24 -37 -24 -52 0 -31 30 -92 66 -135 34 -40 31 -73 -7
-93 -17 -8 -41 -17 -53 -18 -27 -4 -58 -17 -72 -31 -6 -6 -31 -17 -55 -24 -24
-7 -62 -21 -84 -31 -52 -24 -181 -62 -225 -67 -66 -7 -89 -11 -101 -19 -7 -4
-54 -9 -105 -10 -50 -1 -111 -8 -135 -14 -23 -6 -59 -13 -78 -16 -20 -2 -52
-6 -71 -9 -33 -6 -80 -6 -194 -2 -27 1 -51 7 -53 13 -2 6 24 39 57 73 44 45
65 61 79 56 20 -6 80 18 128 52 17 13 60 30 94 39 35 8 88 24 117 35 29 10 66
19 82 19 16 0 32 5 35 10 4 6 13 7 24 1 11 -7 27 -5 48 6 55 26 47 82 -21 157
-20 21 -34 42 -31 46 2 4 -3 17 -13 28 -45 53 -51 62 -46 62 3 0 2 5 -2 12 -4
7 -9 26 -11 43 -2 16 -7 41 -13 55 -12 32 -17 165 -7 210 21 92 91 190 137
190 22 0 50 32 50 57 0 60 -110 43 -182 -28 -49 -48 -74 -96 -103 -192 -18
-61 -17 -185 4 -297 8 -46 70 -183 90 -200 10 -8 33 -52 29 -55 -2 -2 -15 -6
-30 -10 -24 -6 -29 -3 -45 29 -9 20 -22 36 -29 36 -6 0 -24 16 -39 36 -47 61
-80 91 -117 103 -19 6 -41 23 -48 36 -7 14 -16 25 -19 25 -15 0 -61 49 -64 69
-2 11 -12 29 -23 40 -10 10 -26 28 -34 40 -8 11 -19 21 -25 21 -6 0 -17 10
-25 21 -8 12 -30 41 -48 65 -17 23 -32 50 -32 58 0 9 -3 16 -7 16 -27 1 -55
76 -57 150 -1 14 -5 28 -10 31 -4 4 -10 67 -12 140 -4 127 -3 139 25 224 50
153 89 239 165 362 75 122 96 161 96 178 0 8 4 15 9 15 24 0 39 261 20 346
-19 88 -18 106 11 111 36 6 36 6 95 29 11 4 28 9 37 10 23 5 54 36 63 63 5 16
-1 32 -20 56 -27 36 -54 44 -77 23 -38 -35 -110 -62 -193 -73 -16 -3 -56 -9
-87 -14 -31 -5 -90 -7 -130 -4 -40 2 -80 5 -88 5 -8 1 -17 4 -20 7 -10 12 -50
31 -67 31 -22 1 -53 23 -53 39 0 6 -5 11 -11 11 -13 0 -10 100 4 118 5 7 7 15
3 19 -9 9 39 71 103 131 51 48 200 132 234 132 7 0 22 7 33 15 10 8 27 15 36
15 41 0 57 82 21 111 -11 10 -22 8 -53 -9 l-40 -21 0 29 c0 16 -11 42 -25 58
-14 17 -25 34 -25 40 0 18 -43 107 -66 138 -13 17 -24 38 -24 47 0 8 -5 17
-11 19 -5 2 -11 10 -13 18 -1 8 -9 29 -16 45 -7 17 -19 45 -27 63 -8 18 -15
50 -16 72 -1 22 -6 41 -13 44 -16 6 -28 114 -15 130 18 21 104 15 132 -9z
m1747 -2350 c23 -4 42 -10 42 -12 0 -3 -19 -23 -41 -46 -23 -23 -54 -60 -68
-82 -14 -22 -38 -56 -53 -75 -37 -48 -103 -167 -117 -212 -7 -20 -20 -47 -30
-60 -10 -13 -24 -47 -31 -75 -11 -49 -30 -72 -30 -38 0 8 -6 15 -13 15 -7 0
-26 14 -42 30 -16 17 -23 30 -16 30 12 0 121 103 121 114 0 3 18 34 40 68 25
39 40 75 40 95 0 17 4 34 9 37 5 3 8 52 8 107 -2 101 -1 102 22 106 14 2 26 5
28 6 5 5 88 1 131 -8z m234 -92 c47 -20 69 -71 73 -174 4 -86 -5 -112 -26 -82
-20 28 -79 57 -109 54 -34 -4 -80 -29 -102 -55 -44 -53 -56 -133 -48 -321 3
-55 0 -70 -11 -71 -8 0 -21 -3 -29 -6 -51 -19 -99 -29 -125 -25 -16 3 -33 6
-37 6 -13 2 -39 49 -44 80 -3 17 1 41 8 53 7 13 11 26 10 30 -1 4 17 46 40 95
23 48 43 95 45 103 1 8 7 16 12 18 6 2 11 10 11 17 0 21 24 61 86 141 128 166
149 178 246 137z m218 -299 c30 -42 48 -65 77 -102 43 -54 72 -98 98 -149 15
-29 30 -53 34 -53 10 0 12 -13 13 -80 2 -67 -5 -108 -21 -139 -7 -12 -15 -35
-17 -49 -8 -40 -122 -138 -173 -148 -35 -7 -169 22 -192 42 -8 8 -21 14 -27
14 -7 0 -12 5 -12 10 0 6 -8 10 -19 10 -29 0 -91 29 -97 45 -4 8 -9 13 -13 10
-4 -2 -19 7 -34 21 -14 13 -30 24 -34 24 -4 0 -26 16 -47 35 -35 31 -37 35
-18 36 63 4 203 68 236 109 12 13 33 38 49 55 15 16 33 37 41 45 14 16 79 148
81 165 1 6 7 21 13 35 6 14 13 42 17 63 3 20 9 37 13 37 4 0 18 -16 32 -36z
m-234 -12 c63 -50 47 -132 -44 -231 -83 -92 -93 -84 -91 68 1 62 7 106 17 127
24 52 79 68 118 36z m-2042 -125 c1 -26 9 -53 16 -62 8 -9 23 -34 34 -55 56
-102 66 -118 80 -123 9 -4 22 -21 29 -39 8 -18 26 -46 41 -61 14 -15 26 -32
26 -38 0 -5 3 -9 8 -9 4 0 13 -13 20 -30 9 -19 21 -30 33 -30 11 0 23 -8 26
-17 9 -22 74 -83 90 -83 20 0 82 -44 88 -63 4 -10 22 -33 40 -51 l33 -33 -34
-17 c-19 -9 -41 -16 -49 -16 -8 0 -40 -16 -71 -36 -30 -19 -62 -33 -70 -30 -8
3 -25 -1 -38 -9 -12 -8 -26 -12 -29 -8 -4 3 -7 0 -7 -7 0 -11 -3 -11 -12 -2
-14 14 -54 16 -63 3 -3 -6 -27 -10 -53 -10 -26 1 -60 -5 -77 -11 -34 -13 -145
-31 -189 -30 -15 0 -33 -4 -40 -9 -31 -25 -261 -49 -281 -29 -11 11 23 53 73
89 26 18 55 41 66 51 10 9 44 26 75 38 31 12 65 25 76 30 11 4 38 15 60 23 22
9 65 21 95 27 82 17 168 50 174 67 9 23 -15 92 -41 116 -12 12 -23 27 -23 33
0 6 -16 29 -35 50 -20 21 -40 56 -46 79 -6 22 -20 48 -30 58 -11 10 -19 32
-20 50 0 18 -2 41 -5 52 -14 68 -13 102 3 147 9 26 18 46 20 44 2 -2 5 -24 7
-49z"/>
<path d="M1174 3380 c-35 -14 -44 -120 -11 -120 7 0 24 -6 39 -14 29 -15 38
-10 52 28 9 27 -12 94 -34 106 -21 11 -18 11 -46 0z"/>
<path d="M661 3106 c-16 -20 -17 -86 -1 -96 34 -21 93 22 83 60 -6 22 -39 50
-59 50 -6 0 -17 -6 -23 -14z"/>
<path d="M3709 1715 c-19 -7 -42 -16 -51 -20 -11 -4 -18 -3 -18 4 0 19 -45 12
-95 -15 -26 -14 -54 -23 -61 -20 -8 3 -14 0 -14 -7 0 -7 -17 -45 -37 -86 -35
-68 -38 -81 -38 -155 0 -70 4 -87 28 -128 24 -41 35 -49 79 -63 64 -19 67 -19
112 0 20 8 37 14 39 13 1 -2 16 9 32 25 16 15 34 27 39 27 38 0 135 206 139
296 2 56 -21 90 -83 123 -31 16 -41 17 -71 6z m-107 -77 c-17 -17 -15 -48 4
-48 8 0 33 14 54 31 43 35 67 35 114 -2 31 -24 30 -48 -7 -159 -23 -69 -54
-105 -128 -147 -56 -33 -149 -30 -149 3 0 8 -4 14 -10 14 -5 0 -10 7 -10 15 0
8 -4 15 -9 15 -17 0 -9 104 12 160 24 62 36 76 92 107 46 26 54 28 37 11z"/>
<path d="M4500 1553 c-108 -35 -250 -156 -263 -224 -4 -19 -11 -53 -16 -76 -4
-24 -5 -43 -1 -43 4 0 10 -8 12 -18 3 -11 34 -36 69 -58 56 -33 73 -39 131
-41 104 -3 187 32 261 111 89 94 117 174 81 235 -22 37 -83 75 -124 76 -25 0
-36 6 -40 20 -4 16 -14 20 -50 21 -25 1 -52 -1 -60 -3z m46 -71 c6 -4 13 -15
17 -24 4 -13 17 -18 44 -18 40 0 85 -24 108 -57 13 -18 13 -22 0 -33 -8 -7
-15 -18 -15 -24 0 -6 -8 -18 -17 -27 -10 -8 -31 -32 -47 -52 -20 -24 -47 -44
-83 -57 -74 -28 -134 -26 -202 6 -62 30 -71 39 -65 66 2 10 6 28 9 39 9 45 64
108 122 140 91 52 106 57 129 41z"/>
<path d="M3914 1220 c-86 -38 -225 -194 -260 -291 -46 -132 27 -239 165 -242
72 -2 145 36 219 113 86 90 130 209 123 333 -2 30 -61 77 -97 77 -17 0 -37 7
-44 15 -16 20 -55 18 -106 -5z m112 -80 c22 0 45 -5 52 -12 27 -27 1 -175 -40
-226 -34 -42 -103 -105 -133 -122 -50 -28 -128 -21 -166 16 -16 16 -32 38 -35
49 -6 24 33 135 47 135 5 0 9 7 9 15 0 8 9 20 20 27 11 7 20 17 20 22 0 13 56
63 109 97 40 26 46 27 61 14 9 -8 34 -15 56 -15z"/>
</g>
</svg>
