<?xml version="1.0" standalone="no"?>
<!DOCTYPE svg PUBLIC "-//W3C//DTD SVG 20010904//EN"
 "http://www.w3.org/TR/2001/REC-SVG-20010904/DTD/svg10.dtd">
<svg version="1.0" xmlns="http://www.w3.org/2000/svg"
 width="553.000000pt" height="501.000000pt" viewBox="0 0 553.000000 501.000000"
 preserveAspectRatio="xMidYMid meet">
<metadata>
Created by potrace 1.16, written by Peter Selinger 2001-2019
</metadata>
<g transform="translate(0.000000,501.000000) scale(0.100000,-0.100000)"
fill="#000000" stroke="none">
<path d="M4491 4776 c-40 -27 -57 -34 -70 -26 -23 12 -97 13 -137 3 -33 -9
-124 -83 -124 -102 0 -6 -3 -11 -8 -11 -18 0 -31 -62 -31 -145 0 -92 17 -187
49 -285 26 -80 57 -190 64 -226 5 -31 3 -33 -44 -48 -27 -9 -66 -18 -87 -21
-101 -12 -136 -27 -183 -76 -33 -35 -55 -49 -74 -49 -58 0 -110 -25 -169 -82
-32 -32 -63 -56 -67 -53 -5 3 -31 0 -58 -5 -37 -8 -63 -23 -103 -60 -29 -27
-56 -47 -60 -44 -18 10 -79 14 -79 5 0 -6 -4 -11 -9 -11 -12 0 -81 -61 -81
-72 0 -5 -24 -32 -54 -61 -29 -29 -56 -59 -58 -67 -4 -12 -9 -13 -24 -4 -24
14 -94 -23 -144 -76 -47 -50 -85 -74 -142 -90 -26 -7 -53 -19 -59 -26 -6 -8
-14 -12 -18 -10 -4 3 -29 -17 -56 -45 -26 -27 -51 -49 -56 -49 -4 0 -19 -19
-35 -43 -22 -35 -36 -46 -73 -56 -34 -9 -59 -27 -103 -72 -32 -34 -58 -65 -58
-71 0 -5 -16 -8 -35 -7 -19 2 -40 -2 -47 -9 -6 -6 -16 -12 -20 -12 -5 0 -37
-30 -73 -67 -62 -67 -95 -99 -125 -127 -36 -33 -85 -91 -86 -103 -3 -18 -44
-73 -55 -73 -5 0 -9 6 -9 13 0 18 -53 43 -58 28 -2 -6 -7 -11 -12 -11 -15 0
-110 -104 -110 -121 0 -23 -39 -71 -52 -63 -21 14 -96 -19 -141 -62 -26 -24
-47 -48 -47 -53 0 -5 -7 -12 -15 -15 -9 -3 -21 -19 -26 -36 -6 -16 -15 -30
-20 -30 -5 0 -9 -9 -9 -20 0 -12 -12 -28 -27 -37 -23 -13 -96 -96 -99 -113
-12 -67 -30 -130 -39 -131 -51 -3 -83 -13 -120 -39 -24 -16 -48 -30 -53 -30
-12 0 -52 -44 -52 -57 0 -6 -7 -16 -15 -23 -8 -7 -15 -21 -15 -31 0 -11 -3
-19 -7 -19 -5 0 -25 -16 -46 -35 -45 -41 -76 -106 -77 -157 0 -36 -2 -38 -30
-38 -18 0 -41 -9 -55 -22 -25 -23 -55 -95 -55 -130 0 -15 -3 -17 -19 -9 -48
26 -141 -41 -141 -101 0 -59 -12 -88 -35 -88 -36 0 -83 -46 -91 -88 -8 -43
-22 -64 -36 -56 -6 4 -13 3 -17 -2 -3 -5 -15 -14 -26 -20 -23 -12 -74 -108
-75 -140 0 -14 -8 -24 -24 -28 -13 -3 -32 -18 -41 -33 -10 -15 -44 -51 -76
-81 -55 -51 -79 -94 -79 -143 0 -31 47 -69 85 -69 30 0 35 -3 35 -23 0 -27 38
-67 63 -67 11 0 17 -8 17 -22 0 -13 5 -39 10 -59 9 -30 16 -37 58 -51 46 -14
52 -14 100 4 53 20 70 41 131 160 8 16 20 28 27 28 18 0 55 64 52 91 -3 21 1
24 31 25 52 0 88 39 97 101 6 50 7 51 46 57 22 4 50 17 63 30 25 25 41 94 33
146 -4 26 -1 30 18 30 49 0 114 80 114 140 0 28 2 30 20 20 14 -7 20 -7 20 0
0 5 8 10 18 10 40 0 102 78 102 129 0 12 9 22 23 26 36 12 67 47 78 90 7 29
18 44 37 53 32 14 102 78 119 110 7 12 13 52 13 88 0 61 2 66 20 61 22 -6 154
42 179 66 53 49 85 101 84 137 -2 111 -3 120 -18 120 -8 0 -15 5 -15 10 0 6
13 10 29 10 53 0 110 77 126 168 6 40 9 42 63 59 46 14 68 28 114 77 54 58 60
61 127 72 61 10 75 17 106 49 19 21 35 42 35 46 0 5 4 9 8 9 10 0 44 71 41 86
-5 27 5 43 42 67 22 15 44 27 48 27 10 0 77 64 133 128 26 29 61 58 79 64 46
16 140 84 153 110 6 13 22 25 35 26 14 2 31 10 39 19 8 8 27 22 41 31 36 23
48 33 79 64 45 44 48 51 44 81 -5 29 12 48 45 53 74 12 165 71 198 128 6 10
30 20 61 25 63 9 173 63 228 112 26 23 55 38 82 42 22 4 54 14 72 22 36 18 82
70 82 92 0 11 6 14 25 9 28 -7 108 10 145 31 14 8 35 29 46 47 19 27 31 34 85
44 35 6 76 21 91 32 15 11 32 20 38 20 5 0 10 7 10 15 0 20 27 8 33 -15 4 -17
-5 -35 -83 -150 -10 -14 -30 -52 -45 -85 -79 -173 -108 -232 -120 -255 -7 -14
-17 -43 -21 -65 -4 -21 -17 -62 -30 -90 -12 -27 -26 -72 -30 -100 -4 -27 -13
-59 -20 -70 -6 -11 -18 -47 -24 -80 -11 -54 -24 -100 -75 -280 -8 -27 -22 -90
-31 -140 -18 -98 -18 -100 -35 -195 -6 -36 -16 -81 -20 -100 -8 -30 -6 -38 12
-52 20 -17 23 -17 61 3 32 16 53 20 102 16 33 -2 71 -7 83 -12 36 -12 53 20
58 110 6 131 17 226 32 300 7 39 18 108 23 155 5 47 13 96 16 110 4 14 8 30
10 35 35 143 84 313 114 395 21 58 46 130 55 160 9 30 25 78 35 105 10 28 21
61 25 74 4 14 11 19 16 14 9 -9 -13 -197 -31 -263 -6 -19 -10 -54 -10 -77 0
-24 -3 -43 -7 -43 -5 0 -8 -10 -9 -22 0 -13 -3 -54 -7 -93 -3 -38 -9 -113 -13
-165 -3 -52 -8 -104 -10 -115 -5 -27 -16 -356 -18 -539 -1 -131 1 -150 16
-160 13 -8 25 -6 47 7 16 9 40 17 53 17 12 1 34 7 48 15 14 8 37 14 51 15 14
0 47 16 72 35 l45 34 -4 83 c-3 46 -9 124 -14 173 -5 50 -10 162 -11 250 0 88
-2 246 -2 350 -1 105 3 231 10 280 15 117 43 267 52 280 4 6 5 21 1 35 -7 26
8 78 42 145 12 22 23 42 25 45 13 15 128 6 213 -17 52 -14 111 -29 130 -33
112 -26 177 -40 191 -40 9 0 42 24 74 53 44 40 58 59 58 80 0 34 -35 61 -78
63 -84 2 -160 33 -87 35 60 1 135 30 165 64 53 60 57 111 9 121 -15 3 -34 9
-42 13 -15 8 -110 -1 -190 -18 -117 -25 -109 -26 -65 3 22 14 47 26 55 26 23
1 104 51 154 95 43 37 57 70 39 89 -5 4 -8 13 -8 19 0 6 -11 14 -25 17 -27 7
-119 -7 -135 -20 -5 -4 -26 -11 -45 -15 -52 -11 -115 -42 -214 -107 -49 -31
-104 -62 -122 -68 -20 -7 -34 -18 -34 -27 0 -9 -3 -14 -6 -10 -3 3 -18 -5 -32
-18 -26 -25 -44 -26 -24 -2 6 7 18 44 26 82 8 39 24 112 36 163 21 97 29 268
15 331 -10 46 -42 98 -70 113 -12 7 -35 20 -51 30 -16 9 -50 19 -74 23 -41 6
-51 3 -99 -29z m142 -75 c4 -4 1 -14 -8 -21 -8 -7 -15 -19 -15 -26 0 -8 -4
-14 -9 -14 -5 0 -12 -13 -15 -30 -20 -103 -18 -101 -36 -28 -10 37 -25 75 -35
84 -16 16 -16 18 7 36 17 14 33 17 63 13 22 -3 44 -10 48 -14z m-272 -40 c-33
-33 -38 -84 -37 -368 1 -150 -1 -273 -5 -273 -10 0 -37 70 -44 115 -2 11 -17
61 -33 110 -25 75 -44 166 -43 210 3 140 2 137 42 178 24 25 43 37 53 34 8 -3
18 -2 21 3 4 6 19 10 36 10 29 0 29 0 10 -19z m354 -104 c8 -60 0 -193 -13
-228 -5 -13 -13 -46 -17 -74 l-8 -50 -8 40 c-4 22 -10 108 -14 191 -5 130 -3
154 10 167 26 26 43 10 50 -46z m-271 47 c9 -3 16 -12 16 -19 0 -7 4 -15 9
-17 16 -5 54 -304 55 -435 1 -59 -1 -65 -36 -100 -35 -34 -39 -36 -62 -23
l-25 13 -2 206 c-1 293 1 351 14 367 14 16 12 15 31 8z m785 -372 c-13 -10
-73 -43 -134 -72 -60 -30 -124 -64 -141 -77 -17 -13 -36 -23 -41 -23 -6 0 -16
-7 -23 -15 -7 -9 -15 -13 -18 -11 -3 3 -18 -4 -34 -15 -16 -12 -31 -19 -34
-16 -10 10 42 54 90 77 27 13 58 32 68 42 10 10 23 18 29 18 6 0 26 12 46 27
20 15 47 29 62 31 14 2 28 7 31 12 3 5 21 12 39 15 19 3 41 10 50 15 28 16 35
11 10 -8z m62 -233 c-17 -10 -53 -21 -79 -23 -205 -18 -218 -18 -191 -2 25 15
277 56 292 48 5 -2 -5 -13 -22 -23z m-686 -21 c2 -7 6 -38 7 -68 2 -30 7 -58
12 -61 12 -9 10 -77 -3 -93 -6 -7 -30 -16 -54 -19 -24 -3 -50 -9 -59 -12 -27
-11 -41 28 -24 67 8 18 24 60 37 93 30 81 72 127 84 93z m99 -3 c3 -8 1 -15
-3 -15 -5 0 -11 7 -15 15 -3 8 -1 15 3 15 5 0 11 -7 15 -15z m-439 -15 c3 -5
1 -10 -4 -10 -6 0 -11 5 -11 10 0 6 2 10 4 10 3 0 8 -4 11 -10z m700 -10 c-44
-11 -67 -11 -60 0 3 6 25 9 48 9 40 -1 40 -2 12 -9z m-510 -30 c3 -5 -4 -24
-15 -43 -12 -19 -23 -46 -26 -58 -3 -13 -7 -31 -9 -39 -2 -8 -4 -32 -4 -52 -1
-27 -5 -38 -16 -38 -8 0 -15 5 -15 11 0 5 -14 28 -31 49 -57 71 -41 147 34
165 15 4 29 11 32 15 6 9 43 1 50 -10z m-268 -108 c-28 -5 -32 5 -11 29 l19
21 5 -24 c5 -17 2 -24 -13 -26z m882 26 c14 -6 36 -12 48 -14 58 -7 162 -38
157 -45 -3 -5 -12 -9 -20 -9 -8 0 -17 -6 -20 -13 -5 -15 -79 -2 -189 33 -33
10 -86 24 -118 31 -32 7 -60 16 -63 20 -7 12 174 9 205 -3z m-1009 -8 c0 -5
-21 -24 -47 -41 -27 -18 -58 -44 -71 -57 -13 -13 -25 -22 -28 -20 -11 12 104
115 144 127 1 1 2 -3 2 -9z m107 -113 c-2 -7 -10 -12 -18 -12 -8 0 -16 -3 -19
-6 -3 -3 -21 -9 -41 -13 -29 -5 -38 -3 -43 10 -9 24 9 33 72 33 36 0 52 -4 49
-12z m-370 -51 c-23 -25 -107 -69 -116 -61 -4 5 18 24 88 77 43 32 62 21 28
-16z m777 -12 c12 -5 14 -18 10 -67 -2 -34 -7 -71 -11 -82 -4 -11 -5 -34 -4
-52 1 -17 -2 -41 -8 -51 -35 -65 -41 -473 -17 -1132 4 -119 -3 -140 -49 -140
-17 0 -40 -7 -51 -15 -27 -20 -71 -19 -76 3 -3 9 -2 112 2 227 4 116 6 226 4
245 -3 33 13 224 37 435 12 106 26 190 39 225 5 14 12 53 14 88 3 35 8 67 11
72 3 5 6 58 6 118 l0 109 37 10 c20 6 38 11 39 12 1 0 8 -2 17 -5z m-618 -60
c-3 -9 -10 -13 -15 -9 -5 3 -13 1 -16 -5 -4 -6 -31 -10 -61 -9 -43 2 -52 5
-43 16 6 7 19 13 28 13 10 0 26 9 38 19 29 27 67 31 71 8 2 -10 1 -25 -2 -33z
m-397 -46 c-32 -25 -80 -51 -85 -45 -3 2 6 11 18 19 13 9 34 25 47 37 13 11
28 18 34 14 5 -3 -1 -14 -14 -25z m773 -50 c-22 -46 -33 -79 -77 -228 -7 -25
-25 -76 -40 -115 -53 -139 -76 -211 -90 -275 -8 -36 -23 -101 -34 -146 -11
-44 -23 -107 -26 -140 -4 -32 -12 -90 -20 -129 -13 -66 -24 -161 -30 -250 -1
-23 -6 -55 -9 -72 l-7 -32 -80 -3 -79 -3 5 42 c3 23 9 52 14 66 5 13 12 46 15
73 7 62 21 133 40 209 8 33 20 80 26 105 6 24 15 49 19 55 5 5 12 31 15 57 4
26 18 80 30 120 13 40 27 95 31 121 3 27 14 57 23 67 9 11 22 43 29 72 18 73
168 388 185 388 4 0 8 7 8 15 0 19 50 64 65 59 8 -3 4 -20 -13 -56z m-633 -29
c-13 -9 -26 -16 -30 -14 -3 3 -21 0 -40 -5 -24 -7 -35 -6 -41 2 -9 17 12 28
64 34 24 3 44 7 47 9 2 3 8 2 14 -2 5 -3 -1 -14 -14 -24z m-379 -22 c0 -2 -12
-14 -27 -28 -24 -22 -24 -13 0 19 8 11 27 17 27 9z m194 -56 c9 -13 -67 -68
-104 -75 -3 -1 -26 -9 -52 -19 -79 -31 -89 -20 -36 40 25 28 48 49 51 46 3 -2
12 -1 21 4 22 12 113 15 120 4z m-260 -14 c-2 -7 -20 -25 -38 -41 -19 -15 -32
-34 -30 -41 3 -7 -4 -15 -15 -18 -33 -8 -25 9 31 63 55 53 60 57 52 37z m-54
-177 c0 -5 -4 -10 -9 -10 -5 0 -17 -7 -25 -16 -9 -8 -25 -17 -36 -19 -11 -2
-25 -7 -31 -11 -7 -4 -10 -1 -7 7 11 33 108 77 108 49z m-252 -56 c-24 -25
-47 -52 -51 -60 -9 -15 -27 -19 -27 -6 0 13 97 112 110 112 6 0 -8 -21 -32
-46z m119 -10 c-3 -3 -12 -4 -19 -1 -8 3 -5 6 6 6 11 1 17 -2 13 -5z m-298
-71 c-8 -10 -17 -20 -20 -23 -3 -3 -17 -23 -31 -45 -41 -64 -104 -122 -111
-102 -4 14 37 73 70 100 12 10 38 33 58 52 38 37 57 47 34 18z m171 -93 c-56
-55 -101 -77 -146 -72 -24 2 -45 -1 -48 -7 -4 -6 -12 -11 -18 -11 -6 0 2 13
18 30 18 18 39 30 57 30 15 0 27 5 27 10 0 6 7 10 15 10 8 0 15 4 15 9 0 10
55 29 88 30 22 1 21 0 -8 -29z m-430 -119 c0 -5 -11 -16 -25 -25 -29 -19 -33
-11 -8 16 17 19 33 24 33 9z m188 -53 c-4 -13 -35 -30 -146 -83 -63 -29 -62
-29 -62 -11 0 26 36 58 68 62 18 2 42 9 54 15 21 11 65 26 81 28 5 1 7 -5 5
-11z m-277 -41 c-6 -8 -14 -35 -17 -60 -6 -40 -9 -46 -36 -49 -42 -7 -44 8 -6
45 19 18 39 45 46 61 7 16 15 26 19 23 3 -4 1 -13 -6 -20z m-189 -124 c-6 -10
-13 -54 -17 -98 -4 -44 -8 -83 -11 -86 -2 -4 -17 -9 -34 -11 -24 -4 -30 -1
-30 13 0 10 5 21 10 24 6 4 8 10 5 15 -3 5 -1 11 5 15 5 3 10 27 10 53 0 41 4
50 32 74 36 29 45 30 30 1z m218 -47 c0 -5 -106 -67 -132 -78 -19 -8 -29 10
-22 39 4 13 15 20 37 21 18 1 46 6 62 11 34 10 55 13 55 7z m-406 -143 c-36
-85 -59 -124 -62 -107 -6 27 51 143 70 144 4 0 0 -17 -8 -37z m199 -97 c-15
-19 -34 -35 -40 -35 -7 -1 -13 -5 -13 -10 0 -5 -9 -13 -20 -16 -14 -5 -29 2
-50 22 -17 15 -30 31 -30 34 0 6 32 15 95 26 17 3 32 7 34 9 2 2 15 4 29 4
l24 0 -29 -34z m-458 -83 c-4 -10 -11 -35 -16 -56 -5 -21 -14 -45 -19 -55 -29
-52 -47 -103 -39 -108 10 -6 3 -24 -9 -24 -4 0 -12 17 -19 37 -9 30 -9 41 2
53 7 8 16 26 20 40 10 35 68 130 78 130 5 0 6 -8 2 -17z m182 -77 c-16 -33
-137 -84 -137 -58 0 34 21 62 47 63 16 0 37 4 48 9 11 5 27 9 37 9 14 1 14 -3
5 -23z m-425 -128 c-6 -18 -13 -73 -16 -121 -2 -49 -7 -91 -10 -95 -3 -3 -17
1 -31 8 -29 16 -33 54 -10 87 9 13 14 35 11 57 -2 19 -1 36 3 38 4 2 17 18 30
36 28 40 37 36 23 -10z m108 -38 c12 -8 11 -10 -7 -10 -13 0 -23 5 -23 10 0
13 11 13 30 0z m107 -82 c-11 -28 -19 -33 -49 -34 -19 -1 -44 -7 -55 -13 -15
-7 -25 -7 -38 3 -27 20 -11 33 47 40 29 4 64 13 78 21 14 8 26 14 28 15 1 0
-4 -15 -11 -32z m-380 -225 c3 -87 5 -198 5 -247 -1 -88 -1 -90 -36 -124 -29
-30 -37 -33 -50 -23 -12 10 -19 11 -29 2 -8 -6 -17 -8 -20 -4 -13 13 -6 31 23
63 46 49 62 122 62 274 -1 92 4 145 15 179 8 27 17 46 20 43 3 -2 7 -76 10
-163z m163 40 c14 -4 33 -5 43 -4 10 1 17 -4 17 -13 0 -18 -17 -19 -97 -10
-42 6 -53 10 -53 25 0 19 16 19 90 2z m-301 -93 c4 0 7 -15 6 -32 0 -24 -5
-34 -19 -36 -10 -2 -29 -14 -42 -26 -13 -11 -29 -26 -36 -33 -7 -7 -19 -19
-27 -28 -12 -15 -15 -15 -36 5 -20 19 -21 25 -11 52 19 51 106 113 144 102 8
-2 17 -4 21 -4z m375 -35 c-6 -16 -68 -39 -87 -32 -6 2 -24 0 -39 -4 -26 -7
-28 -5 -28 21 l0 28 80 1 c65 0 78 -2 74 -14z m-374 -140 c-5 -14 -23 -38 -39
-54 l-30 -30 6 32 c6 31 44 77 63 77 6 0 6 -10 0 -25z m-206 -103 c8 -37 20
-92 25 -122 14 -75 17 -89 34 -135 8 -22 12 -47 10 -55 -9 -32 -27 -60 -39
-60 -10 0 -55 93 -60 125 -1 6 -9 37 -19 70 -9 33 -21 78 -26 100 -6 22 -14
44 -19 49 -10 10 5 64 25 86 30 33 52 14 69 -58z m148 -119 c41 -39 37 -104
-5 -87 -8 3 -17 18 -20 33 -3 16 -9 40 -13 55 -8 33 3 33 38 -1z m-340 -50
c10 -9 18 -23 18 -31 0 -9 6 -23 13 -31 8 -9 19 -32 27 -51 7 -19 18 -49 26
-66 19 -45 22 -150 4 -169 -24 -23 -40 -4 -60 71 -10 38 -30 94 -44 124 -17
36 -26 72 -26 106 0 67 9 77 42 47z m-160 -162 c22 -11 33 -33 67 -135 66
-199 74 -232 61 -256 -6 -11 -17 -20 -25 -20 -18 0 -56 63 -66 109 -10 48 -26
95 -57 161 -31 64 -34 75 -32 114 1 31 8 49 18 44 4 -2 19 -10 34 -17z m-99
-208 c29 -66 84 -227 91 -265 10 -53 -1 -88 -28 -88 -18 0 -26 11 -41 58 -11
31 -20 59 -21 62 -2 13 -28 71 -56 125 -29 56 -38 111 -23 135 4 6 19 10 34
10 23 0 31 -7 44 -37z m-129 -175 c16 -35 32 -71 37 -80 19 -38 49 -136 55
-182 5 -43 4 -48 -11 -42 -9 3 -23 6 -31 6 -20 0 -124 170 -124 204 0 7 -7 19
-15 26 -9 7 -14 19 -11 26 3 7 1 16 -4 19 -17 11 15 79 41 86 13 3 26 5 29 3
3 -1 18 -31 34 -66z m-144 -144 c0 -39 -117 -134 -166 -134 -28 0 -13 22 67
101 83 82 98 87 99 33z m60 -104 c0 -16 -23 -60 -32 -60 -4 0 -8 -5 -8 -11 0
-17 -48 -59 -67 -59 -28 0 -5 50 45 96 48 44 62 52 62 34z m90 -131 c0 -11
-12 -42 -27 -69 -30 -55 -64 -73 -90 -48 -13 13 -13 17 1 31 9 8 16 20 16 24
0 5 14 28 30 50 23 31 35 40 50 36 11 -3 20 -14 20 -24z"/>
</g>
</svg>
