<?xml version="1.0" standalone="no"?>
<!DOCTYPE svg PUBLIC "-//W3C//DTD SVG 20010904//EN"
 "http://www.w3.org/TR/2001/REC-SVG-20010904/DTD/svg10.dtd">
<svg version="1.0" xmlns="http://www.w3.org/2000/svg"
 width="411.000000pt" height="425.000000pt" viewBox="0 0 411.000000 425.000000"
 preserveAspectRatio="xMidYMid meet">
<metadata>
Created by potrace 1.16, written by Peter Selinger 2001-2019
</metadata>
<g transform="translate(0.000000,425.000000) scale(0.100000,-0.100000)"
fill="#000000" stroke="none">
<path d="M1605 4099 c-83 -7 -194 -34 -251 -60 -22 -11 -46 -19 -53 -19 -17 0
-68 -29 -97 -56 -13 -11 -40 -29 -60 -40 -21 -10 -51 -32 -69 -49 -17 -16 -60
-58 -96 -91 -35 -34 -80 -81 -99 -105 -19 -24 -56 -65 -82 -93 -26 -27 -50
-58 -54 -68 -3 -10 -10 -18 -15 -18 -5 0 -9 -7 -9 -15 0 -8 -4 -15 -10 -15 -5
0 -10 -6 -10 -13 0 -7 -9 -29 -19 -50 -10 -20 -21 -47 -25 -60 -3 -13 -15 -45
-28 -73 -12 -27 -23 -58 -25 -68 -2 -10 -13 -40 -24 -65 -11 -25 -22 -55 -24
-66 -21 -110 -44 -318 -49 -445 -2 -30 -6 -89 -11 -130 -4 -41 -9 -160 -11
-265 -4 -193 -5 -1229 -2 -1585 1 -111 -3 -204 -8 -215 -6 -11 -8 -35 -5 -54
8 -44 20 -48 191 -62 59 -5 312 13 385 27 86 16 109 18 165 14 27 -2 157 17
170 25 17 11 192 38 270 42 47 2 130 13 184 24 55 11 105 18 112 15 8 -3 32 1
55 9 22 8 50 14 62 14 12 -1 42 4 67 10 25 7 61 14 80 18 19 3 40 9 45 13 12
9 50 17 120 26 49 5 176 44 225 69 49 24 177 65 196 63 19 -3 168 66 192 90 7
6 20 12 28 12 14 0 54 19 64 31 3 3 21 11 40 19 19 8 46 25 60 37 14 13 29 23
34 23 5 0 27 15 50 33 23 19 48 38 57 43 25 14 100 77 118 98 9 11 42 47 73
80 123 132 158 172 169 198 6 16 15 28 20 28 5 0 9 5 9 12 0 7 11 23 24 37 13
15 38 53 56 86 18 33 46 83 61 110 15 28 35 70 45 95 10 25 20 47 24 50 3 3
14 32 24 65 10 33 23 71 29 85 23 58 27 193 12 425 -9 152 -10 159 -18 171 -3
6 -11 85 -17 175 -6 90 -18 193 -26 228 -14 61 -45 117 -57 105 -5 -5 -26 25
-25 36 1 8 -43 92 -71 135 -38 59 -110 125 -172 159 -18 10 -43 27 -54 37 -11
9 -47 26 -80 37 -33 11 -93 32 -133 46 -40 15 -87 29 -105 31 -18 3 -45 8 -62
10 -16 3 -106 5 -200 4 -245 -1 -255 -2 -255 -10 0 -3 -21 -10 -47 -14 -27 -4
-54 -12 -61 -18 -15 -12 -28 2 -38 43 -4 14 -13 33 -21 42 -8 9 -12 21 -9 26
7 11 -15 82 -25 82 -5 0 -16 14 -25 32 -9 17 -38 60 -65 95 -27 34 -49 67 -49
73 0 5 -4 10 -9 10 -4 0 -30 20 -57 45 -50 47 -198 126 -281 150 -91 26 -275
36 -418 24z m290 -123 c88 -7 215 -48 215 -68 0 -6 3 -9 6 -6 3 3 16 -4 29
-16 13 -12 43 -31 67 -43 48 -25 83 -59 118 -118 23 -39 72 -106 97 -133 8 -8
10 -33 6 -75 -8 -88 25 -148 93 -172 33 -11 41 -10 71 7 18 11 33 17 33 14 0
-4 10 -1 23 6 12 6 42 15 67 20 25 4 60 10 78 14 21 4 32 2 32 -5 0 -7 5 -9
11 -5 16 10 129 12 135 2 3 -4 13 -4 22 0 27 14 196 -2 219 -20 7 -6 19 -8 27
-5 14 5 177 -51 216 -74 8 -5 43 -25 78 -45 56 -32 67 -44 63 -66 0 -5 5 -8
11 -8 20 0 79 -71 104 -126 29 -61 36 -127 35 -334 -1 -180 -3 -198 -18 -225
-6 -11 -19 -47 -28 -80 -10 -33 -25 -73 -35 -90 -22 -36 -63 -112 -99 -180
-38 -73 -80 -135 -91 -135 -6 0 -10 -5 -10 -10 0 -16 -79 -120 -90 -120 -6 0
-10 -6 -10 -12 0 -7 -18 -30 -40 -51 -22 -20 -40 -39 -40 -42 0 -11 -83 -106
-175 -200 -38 -39 -97 -86 -130 -105 -59 -33 -141 -78 -201 -110 -17 -9 -40
-25 -52 -36 -11 -10 -43 -30 -69 -44 -26 -13 -72 -39 -101 -57 -29 -18 -55
-33 -58 -33 -3 0 -42 -16 -86 -35 -44 -19 -98 -40 -121 -45 -23 -6 -51 -13
-62 -16 -11 -3 -36 -8 -55 -11 -19 -3 -39 -9 -45 -13 -5 -4 -35 -11 -65 -15
-30 -4 -61 -11 -70 -15 -95 -47 -260 -87 -381 -93 -53 -2 -100 -7 -106 -10
-12 -7 -151 -40 -178 -41 -11 -1 -27 -6 -35 -11 -8 -5 -53 -10 -100 -12 -99
-3 -158 -9 -219 -24 -59 -13 -361 -23 -361 -11 0 5 13 29 29 53 17 24 28 45
27 47 -2 1 -21 4 -42 6 l-39 4 -5 68 c-6 76 -3 923 4 1104 2 63 5 169 6 235 1
66 6 147 11 180 5 33 12 114 15 180 3 66 7 136 9 155 18 143 30 195 60 265 7
17 23 59 35 95 23 70 68 172 78 180 4 3 15 19 25 37 24 44 44 67 192 217 120
121 202 195 228 205 5 2 17 10 27 18 23 20 130 63 157 63 12 0 25 5 28 10 4 6
12 10 18 9 7 -1 19 1 27 4 8 3 24 8 35 10 21 5 267 0 350 -7z m1966 -1498 c0
-7 6 -63 12 -123 7 -61 12 -166 11 -235 -1 -107 -5 -135 -28 -196 -14 -39 -26
-78 -26 -85 0 -8 -9 -31 -20 -52 -11 -20 -20 -44 -20 -52 0 -21 -75 -149 -107
-183 -7 -7 -13 -19 -13 -25 0 -10 -66 -106 -99 -144 -6 -7 -11 -15 -11 -18 0
-12 -245 -255 -257 -255 -8 0 -16 -6 -19 -14 -3 -8 -24 -27 -47 -43 -41 -28
-59 -41 -99 -76 -12 -9 -27 -17 -35 -17 -7 0 -13 -4 -13 -9 0 -5 -24 -19 -52
-31 -29 -12 -55 -25 -58 -29 -17 -21 -127 -72 -169 -78 -31 -4 -108 -32 -216
-78 -78 -34 -115 -45 -170 -49 -33 -3 -91 -14 -130 -26 -38 -12 -89 -25 -113
-30 -24 -5 -48 -13 -54 -16 -10 -7 -46 -11 -133 -18 -76 -7 -158 -23 -200 -40
-20 -9 -40 -14 -44 -12 -13 8 -199 -15 -312 -39 -64 -14 -163 -27 -220 -29
-57 -3 -111 -7 -119 -9 -77 -20 -323 -33 -430 -23 -14 2 -35 4 -48 4 -22 2
-22 3 -19 123 3 101 7 123 21 131 9 5 88 11 175 13 87 2 170 9 185 15 15 5 40
10 56 10 16 0 31 4 35 9 6 10 26 8 58 -4 9 -4 17 -3 17 3 0 5 28 10 63 11 84
3 105 6 160 25 27 9 63 17 82 19 19 1 35 4 35 7 0 3 17 6 37 8 20 1 42 7 49
12 7 6 45 9 92 6 58 -3 88 0 109 11 15 8 57 21 93 29 36 9 67 19 70 23 9 13
128 44 145 37 9 -3 26 1 38 9 12 8 32 15 44 15 13 0 23 5 23 10 0 6 12 10 28
10 27 0 138 31 177 50 11 5 40 16 65 24 57 18 100 40 172 86 31 20 71 43 90
50 18 8 35 17 38 20 10 12 133 90 142 90 25 0 210 124 264 176 33 33 77 74 97
92 20 18 37 37 37 42 0 5 6 15 13 22 6 7 24 29 39 48 14 19 43 53 65 75 66 71
103 114 103 123 0 5 11 19 25 32 13 13 34 42 46 64 12 23 34 57 49 76 15 19
52 82 81 140 30 58 57 107 60 110 8 6 49 126 56 163 5 27 22 38 24 15z"/>
<path d="M1675 3152 c-11 -2 -24 -9 -30 -15 -17 -20 -83 -67 -93 -67 -6 0 -12
-3 -14 -8 -11 -25 -257 -152 -294 -152 -14 0 -26 -10 -34 -29 -23 -57 33 -117
73 -77 8 9 55 34 104 57 48 23 96 48 106 57 9 8 17 13 17 10 0 -7 -50 -81 -99
-148 -18 -25 -39 -59 -46 -76 -7 -17 -18 -34 -23 -38 -6 -3 -13 -20 -17 -36
-4 -16 -12 -33 -19 -37 -7 -5 -25 -26 -42 -48 -16 -22 -42 -55 -58 -73 -16
-17 -37 -43 -45 -56 -9 -13 -28 -39 -43 -58 -57 -71 -40 -141 30 -130 18 2 30
8 27 12 -3 4 2 14 11 21 9 7 27 36 41 63 23 46 69 108 131 176 12 14 39 56 60
94 20 38 46 85 56 105 11 20 27 43 36 51 13 13 134 188 193 281 11 16 22 29
27 29 13 0 21 49 11 69 -11 21 -36 29 -66 23z"/>
<path d="M1835 3028 c-86 -169 -267 -418 -303 -418 -12 0 -12 -43 0 -71 11
-24 17 -26 69 -27 67 0 119 -10 119 -22 0 -5 -21 -32 -47 -60 -26 -29 -63 -75
-81 -104 -19 -28 -45 -61 -59 -73 -15 -13 -22 -23 -18 -23 5 0 -12 -14 -38
-31 -49 -32 -53 -47 -28 -112 10 -26 15 -28 53 -25 36 3 45 8 58 33 16 33 56
90 80 116 28 31 50 63 50 74 0 6 31 45 70 87 77 84 88 87 136 37 33 -34 52
-36 88 -8 21 16 26 28 24 55 -1 19 -5 34 -8 34 -4 0 -21 13 -40 30 -18 16 -38
28 -44 27 -17 -3 -9 18 25 67 30 41 31 47 19 75 -20 50 -90 36 -109 -22 -7
-19 -22 -44 -35 -56 -19 -18 -27 -20 -49 -11 -15 5 -39 15 -54 21 -18 6 -23
13 -16 17 15 9 223 320 223 333 0 5 11 27 24 48 37 57 21 101 -35 101 -23 0
-32 -12 -74 -92z"/>
<path d="M2519 2728 c-8 -7 -20 -21 -25 -30 -5 -9 -30 -38 -55 -65 -25 -26
-53 -61 -62 -78 -36 -67 -38 -75 -22 -106 9 -16 18 -29 21 -29 17 0 74 34 74
44 0 6 23 36 50 68 41 46 58 58 91 63 40 7 43 5 85 -40 36 -38 44 -54 44 -83
-1 -102 -42 -167 -135 -212 -27 -13 -59 -31 -70 -41 -11 -9 -45 -29 -75 -44
-160 -80 -169 -85 -211 -117 -20 -16 -40 -28 -44 -28 -4 0 -39 -31 -78 -70
-38 -38 -78 -72 -89 -76 -19 -6 -38 -41 -38 -70 0 -8 10 -19 23 -24 12 -6 29
-14 37 -19 8 -5 26 -14 40 -20 14 -6 43 -22 65 -36 22 -14 46 -28 54 -32 8 -4
33 -26 56 -50 33 -34 51 -44 86 -49 40 -5 47 -3 61 17 9 15 13 37 11 56 -4 26
-15 39 -57 64 -28 17 -53 35 -56 38 -5 7 -99 66 -138 86 l-23 12 38 32 c21 17
47 40 58 49 57 51 327 202 360 202 7 0 20 9 30 20 10 11 22 20 27 20 19 0 117
81 123 102 4 13 13 30 19 38 35 43 48 192 22 253 -13 33 -83 107 -100 107 -5
0 -16 9 -26 20 -12 14 -27 19 -53 17 -20 -2 -38 0 -39 5 -5 14 -63 19 -79 6z"/>
<path d="M1745 2076 c-12 -9 -20 -30 -23 -69 l-4 -56 35 -6 c61 -12 106 38 86
93 -5 12 -16 22 -25 22 -10 0 -25 7 -34 15 -14 13 -19 13 -35 1z"/>
<path d="M2614 1613 c-14 -3 -25 -17 -34 -43 -16 -48 -10 -64 31 -85 47 -25
76 -7 81 51 5 62 -22 88 -78 77z"/>
</g>
</svg>
