<?xml version="1.0" standalone="no"?>
<!DOCTYPE svg PUBLIC "-//W3C//DTD SVG 20010904//EN"
 "http://www.w3.org/TR/2001/REC-SVG-20010904/DTD/svg10.dtd">
<svg version="1.0" xmlns="http://www.w3.org/2000/svg"
 width="405.000000pt" height="455.000000pt" viewBox="0 0 405.000000 455.000000"
 preserveAspectRatio="xMidYMid meet">
<metadata>
Created by potrace 1.16, written by Peter Selinger 2001-2019
</metadata>
<g transform="translate(0.000000,455.000000) scale(0.100000,-0.100000)"
fill="#000000" stroke="none">
<path d="M1960 4400 c-25 -4 -101 -11 -170 -14 -69 -4 -144 -9 -167 -12 -49
-6 -113 -30 -113 -43 0 -5 -14 -14 -30 -20 -17 -6 -43 -19 -57 -31 -14 -11
-29 -17 -33 -15 -5 3 -11 1 -15 -5 -4 -6 -11 -8 -16 -5 -5 4 -9 0 -9 -9 0 -8
-13 -17 -30 -21 -16 -4 -30 -12 -30 -18 -1 -7 -23 -30 -50 -52 -27 -22 -64
-62 -82 -90 -17 -27 -35 -52 -38 -55 -12 -9 -22 -64 -24 -135 -2 -62 2 -78 31
-135 32 -64 57 -95 104 -134 18 -15 38 -19 88 -18 l66 1 24 -39 c27 -43 51
-59 100 -65 43 -5 43 -6 43 -56 -1 -24 6 -58 14 -77 18 -43 18 -42 -3 -42 -10
0 -51 -32 -91 -70 -81 -77 -77 -77 -132 0 -13 19 -35 45 -47 58 -13 13 -23 26
-23 30 0 4 -8 12 -18 17 -48 26 -111 73 -105 79 3 3 -1 6 -10 6 -17 0 -57 19
-67 31 -3 4 -22 14 -43 23 -61 25 -186 6 -223 -35 -10 -12 -28 -25 -39 -29
-11 -4 -29 -25 -40 -46 -11 -22 -30 -55 -42 -74 -21 -33 -60 -172 -69 -249 -2
-20 -6 -121 -9 -226 -3 -104 -7 -203 -9 -220 -2 -16 -7 -59 -11 -95 -4 -36
-13 -78 -20 -95 -7 -16 -16 -55 -19 -85 -3 -30 -15 -80 -27 -110 -11 -30 -31
-86 -43 -123 -13 -37 -28 -73 -34 -79 -7 -7 -12 -18 -12 -25 0 -7 -9 -41 -21
-75 -20 -62 -28 -84 -54 -143 -35 -80 -44 -303 -13 -314 6 -2 25 -19 42 -36
60 -63 111 -74 193 -40 20 9 44 22 53 29 8 7 42 14 76 14 33 1 78 9 100 18 38
16 114 85 114 104 0 6 4 10 10 10 5 0 12 11 16 25 6 22 30 39 50 33 14 -3 74
13 74 20 0 4 15 23 33 42 18 19 41 53 50 75 10 22 22 48 27 57 6 10 10 26 10
36 0 10 5 23 11 29 6 6 12 28 13 49 3 39 55 164 68 164 23 0 30 -103 29 -405
-1 -326 -5 -373 -51 -575 -6 -25 -13 -61 -16 -80 -3 -19 -8 -42 -11 -50 -3 -8
-8 -23 -10 -33 -8 -44 -45 -147 -53 -147 -4 0 -11 -17 -15 -37 -4 -21 -15 -49
-25 -63 -31 -44 -37 -69 -44 -190 -4 -72 -8 -99 -21 -140 -3 -11 -1 -37 5 -59
9 -35 13 -39 37 -35 23 4 86 44 69 44 -4 0 5 16 19 35 24 31 31 34 67 30 43
-4 47 -6 134 -75 53 -41 61 -45 115 -45 51 0 62 4 89 30 l31 29 35 -34 c19
-19 42 -43 52 -52 9 -10 24 -18 32 -18 9 0 21 -5 26 -10 9 -9 73 30 131 80 15
13 51 -7 59 -32 3 -10 8 -17 12 -16 4 1 22 -6 40 -15 51 -28 100 -19 143 25
20 21 39 38 42 38 3 0 18 -13 35 -28 64 -60 151 -58 212 6 33 35 38 36 72 28
28 -7 48 -5 82 8 55 21 79 53 94 126 12 54 10 199 -3 220 -4 6 -8 21 -10 33
-5 31 -52 201 -71 255 -8 26 -17 64 -20 87 -10 73 -12 82 -33 123 -12 23 -21
56 -21 74 0 18 -7 60 -16 93 -8 33 -17 78 -21 100 -3 21 -12 57 -19 78 -8 22
-14 50 -14 64 0 13 -4 32 -9 41 -5 9 -12 48 -16 87 -3 38 -8 72 -10 76 -5 8
-19 142 -20 189 0 19 -6 40 -14 46 -17 13 -4 24 40 31 23 3 29 1 29 -14 0 -17
27 -64 92 -161 15 -22 41 -49 58 -58 16 -10 30 -22 30 -26 0 -4 8 -8 18 -8 9
0 25 -7 35 -15 11 -7 36 -17 58 -20 21 -4 39 -11 39 -16 0 -5 10 -9 23 -9 15
0 28 -11 41 -34 18 -33 76 -97 76 -83 0 4 23 -7 52 -24 55 -32 71 -36 103 -26
16 5 23 1 32 -21 26 -60 84 -159 113 -190 16 -18 30 -37 30 -41 0 -11 23 -21
75 -33 76 -17 91 -12 117 41 19 38 23 63 24 146 0 60 -5 116 -14 140 -7 22
-19 69 -27 105 -17 85 -73 299 -81 312 -4 6 -8 34 -9 62 -3 61 -34 245 -45
266 -24 45 -85 474 -94 655 -6 116 -11 142 -44 215 -65 148 -107 220 -127 220
-4 0 -14 8 -23 19 -29 31 -91 49 -167 46 -41 -1 -71 -7 -73 -14 -2 -6 -14 -11
-26 -11 -12 0 -54 -16 -94 -35 -54 -27 -95 -59 -169 -133 -54 -53 -106 -107
-116 -120 l-17 -22 -53 40 c-113 87 -102 68 -84 141 14 56 23 103 26 133 1 4
8 5 17 2 14 -5 54 14 82 41 7 7 17 13 21 13 4 0 21 11 37 25 16 14 40 28 54
31 59 14 242 106 251 126 3 7 12 24 19 38 12 22 21 85 21 144 0 11 -4 31 -9
45 -5 14 -16 46 -23 71 -19 67 -113 205 -157 232 -20 12 -38 26 -40 30 -2 4
-12 8 -22 8 -10 0 -20 5 -22 10 -2 6 -30 20 -63 32 -33 12 -80 32 -104 45 -24
12 -61 23 -82 23 -21 0 -40 4 -43 9 -12 19 -161 33 -226 21z m120 -125 c14 -3
48 -9 77 -14 28 -5 61 -15 72 -21 12 -6 21 -8 21 -5 0 4 26 -7 57 -24 31 -17
63 -31 70 -31 8 0 11 -5 7 -12 -5 -8 -2 -9 10 -5 72 28 240 -188 240 -309 0
-56 -19 -104 -41 -104 -7 0 -22 -9 -32 -19 -13 -13 -22 -16 -30 -8 -7 7 -15 6
-25 -2 -13 -11 -18 -7 -31 24 -8 21 -15 44 -15 51 0 21 -66 90 -104 108 -19 9
-56 16 -83 16 -44 1 -51 4 -78 40 -24 31 -37 40 -65 41 -55 4 -83 1 -108 -13
-15 -8 -26 -8 -30 -2 -22 31 -136 46 -160 22 -7 -7 -12 -9 -12 -4 0 4 -16 -10
-35 -31 -25 -27 -38 -34 -43 -25 -5 7 -22 10 -43 8 -19 -2 -52 -4 -73 -5 -33
-1 -46 -8 -80 -45 -23 -24 -50 -46 -61 -50 -31 -10 -111 -88 -126 -123 -8 -18
-21 -33 -30 -33 -25 0 -64 24 -67 40 -2 8 -12 22 -22 31 -44 38 -52 117 -18
185 12 24 25 44 30 44 4 0 8 5 8 11 0 17 87 95 121 109 16 7 29 16 29 21 0 5
5 9 11 9 13 0 132 59 139 69 18 26 92 38 280 45 41 1 82 5 90 8 8 4 22 9 30
12 15 5 74 1 120 -9z m-158 -385 c16 -16 18 -22 18 -45 0 -11 12 -15 45 -15
34 0 45 4 45 15 0 9 16 23 35 32 43 20 54 12 62 -46 3 -23 10 -44 16 -48 23
-14 63 -11 83 8 44 41 111 17 138 -50 8 -21 12 -49 9 -62 -9 -32 -43 -78 -64
-84 -44 -14 -57 -13 -62 5 -3 10 -18 25 -35 34 -28 14 -30 14 -51 -8 -27 -28
-34 -63 -21 -96 16 -39 -11 -178 -45 -229 -52 -77 -147 -112 -265 -97 -53 6
-136 62 -150 99 -6 18 -16 40 -21 50 -5 9 -9 72 -8 140 1 162 1 163 -16 181
-12 11 -22 13 -39 6 -13 -5 -27 -6 -30 -3 -3 4 -6 0 -7 -8 0 -8 -2 -25 -4 -39
-1 -14 2 -33 7 -42 11 -22 10 -22 -36 -3 -42 18 -67 52 -71 97 -3 37 21 63 42
46 9 -7 13 -7 13 0 0 6 9 9 21 7 25 -5 43 11 54 45 16 54 30 66 73 62 30 -3
43 -9 47 -23 12 -35 51 -23 111 36 57 55 78 62 106 35z m-902 -525 c22 -14 42
-25 45 -25 3 0 13 -7 23 -16 9 -8 42 -33 72 -55 30 -22 71 -61 92 -87 21 -26
42 -52 48 -59 15 -18 24 -64 14 -72 -10 -7 -49 -92 -59 -128 -4 -13 -11 -23
-16 -23 -5 0 -9 -6 -9 -12 0 -7 -6 -25 -14 -40 -8 -15 -16 -44 -17 -65 -1 -21
-7 -46 -12 -56 -37 -77 -40 -478 -3 -536 5 -8 4 -16 -4 -21 -8 -5 -15 -28 -17
-52 -3 -41 -19 -107 -42 -173 -6 -16 -18 -56 -26 -87 -9 -32 -20 -58 -25 -58
-6 0 -10 -6 -10 -13 0 -8 -12 -24 -26 -38 l-26 -24 10 25 c5 14 14 41 20 60 5
19 23 80 40 135 70 230 75 260 53 318 -12 29 -19 36 -39 34 -44 -3 -78 -67
-50 -95 17 -17 12 -60 -20 -147 -61 -165 -70 -191 -82 -243 -10 -46 -52 -136
-69 -152 -3 -3 -7 -12 -9 -20 -2 -8 -10 -22 -18 -31 -8 -8 -14 -20 -14 -25 -1
-10 -92 -56 -98 -49 -3 2 9 26 26 52 49 78 134 270 147 333 4 19 14 47 21 62
8 15 14 43 14 62 0 20 11 64 24 100 14 35 23 66 21 68 -3 2 2 28 10 58 26 98
-6 154 -72 127 -24 -11 -43 -49 -41 -87 1 -14 -2 -40 -5 -57 -4 -18 -9 -48
-12 -65 -3 -18 -10 -46 -15 -63 -5 -16 -12 -50 -16 -75 -4 -25 -8 -52 -10 -60
-4 -22 -29 -89 -37 -96 -4 -4 -7 -21 -7 -39 0 -17 -9 -41 -20 -53 -11 -12 -20
-26 -20 -32 0 -18 -62 -123 -97 -164 -18 -22 -33 -43 -33 -47 0 -5 -11 -20
-25 -35 -35 -38 -100 -44 -138 -14 -26 21 -28 26 -23 74 9 84 18 126 27 132 5
3 9 14 9 24 0 10 6 25 14 32 7 8 16 29 19 48 10 69 30 125 48 140 4 3 11 21
17 40 6 19 22 67 37 105 14 39 31 99 36 135 6 36 13 76 16 90 3 14 6 36 7 50
1 14 7 41 13 60 16 47 25 135 28 253 6 213 16 378 24 395 5 9 14 41 20 71 20
95 57 153 135 205 49 33 95 33 146 1z m1885 -5 c3 -5 14 -10 25 -10 33 0 120
-104 120 -144 0 -7 11 -34 24 -62 28 -58 43 -127 45 -209 4 -118 11 -213 21
-261 6 -27 15 -83 20 -124 6 -41 13 -82 16 -90 3 -8 12 -49 19 -90 16 -88 20
-106 33 -140 5 -14 13 -56 16 -95 12 -114 50 -281 98 -428 15 -48 28 -98 28
-112 0 -13 4 -26 8 -29 4 -2 9 -50 10 -105 2 -101 2 -101 -22 -101 -28 0 -86
60 -86 89 0 10 -7 21 -15 25 -8 3 -15 10 -15 15 0 6 -15 36 -34 68 -19 32 -37
75 -41 96 -4 20 -11 37 -16 37 -5 0 -9 7 -9 16 0 8 -11 34 -23 57 -25 45 -45
98 -53 143 -3 16 -9 33 -14 39 -5 6 -12 30 -15 53 -2 23 -14 69 -25 102 -11
33 -20 65 -20 72 0 6 -9 31 -20 54 -12 23 -25 71 -30 105 -18 114 -30 147 -56
152 -30 5 -84 -27 -84 -51 0 -11 7 -33 16 -51 14 -28 39 -119 47 -171 1 -8 5
-17 8 -20 4 -3 14 -34 23 -70 9 -36 21 -66 26 -68 6 -2 10 -20 10 -40 1 -20 8
-55 16 -77 9 -22 22 -60 30 -85 8 -25 28 -74 45 -109 16 -35 28 -66 25 -69 -3
-2 -24 5 -47 17 -43 23 -78 57 -79 78 0 6 -3 13 -7 15 -12 5 -43 64 -43 81 0
9 -5 17 -11 19 -6 2 -11 17 -11 33 0 17 -8 49 -18 71 -26 57 -50 162 -66 284
-8 67 -11 73 -30 76 -31 5 -52 -5 -60 -29 -14 -42 3 -198 27 -252 13 -30 49
-177 49 -203 0 -23 0 -23 -31 -5 -46 27 -119 103 -119 123 0 5 -4 10 -9 10
-24 0 -43 116 -30 183 6 28 11 59 11 67 0 8 4 32 9 52 5 20 11 69 14 107 2 39
6 75 9 79 6 11 -14 190 -24 217 -5 11 -11 37 -13 57 -7 47 -73 181 -121 243
-20 26 -36 52 -36 57 0 6 11 23 25 40 14 16 25 36 25 44 0 8 4 14 10 14 5 0
25 16 45 37 19 20 35 33 35 29 0 -4 10 4 23 17 12 13 41 34 65 47 23 13 42 27
42 32 0 11 49 31 73 30 10 0 32 6 50 13 38 17 83 19 92 5z m-1226 -210 c5 0
22 -10 38 -23 80 -65 279 -57 385 15 25 18 29 18 58 3 17 -9 34 -23 37 -31 3
-7 11 -14 19 -14 22 0 79 -64 137 -152 30 -46 57 -90 60 -98 4 -8 11 -22 16
-30 51 -87 71 -178 72 -332 1 -111 -12 -186 -42 -240 -5 -10 -9 -23 -9 -29 0
-15 -44 -56 -70 -64 -11 -3 -20 -11 -20 -16 0 -20 -256 8 -304 33 -26 14 -64
57 -72 81 -12 39 -89 41 -103 3 -12 -32 3 -71 46 -116 21 -23 42 -48 46 -56 8
-14 65 -42 102 -49 11 -2 20 -4 20 -5 0 -1 9 -3 20 -5 11 -1 36 -6 55 -10 19
-4 55 -8 80 -10 25 -2 47 -4 50 -5 3 0 -1 -4 -8 -9 -20 -12 -18 -89 3 -105 12
-9 19 -30 21 -68 2 -30 8 -67 14 -82 5 -15 10 -42 10 -59 0 -31 43 -227 80
-362 11 -38 21 -88 24 -110 7 -61 14 -85 36 -132 11 -24 20 -49 18 -56 -4 -25
14 -111 29 -134 9 -13 17 -44 20 -69 2 -25 8 -55 14 -67 35 -64 55 -281 29
-312 -14 -17 -78 -15 -84 2 -3 7 -14 13 -24 13 -10 0 -23 5 -28 10 -7 7 -19 8
-36 1 -27 -10 -48 -54 -48 -102 0 -24 -4 -28 -26 -26 -27 2 -38 18 -74 100
-16 37 -25 47 -44 47 -24 0 -76 -50 -76 -73 0 -14 -61 -77 -74 -77 -27 1 -70
72 -100 164 -4 12 -13 17 -26 13 -10 -3 -22 0 -25 7 -3 8 -7 8 -11 -1 -3 -7
-14 -13 -25 -13 -11 0 -19 -7 -20 -17 -4 -92 -13 -110 -71 -143 -33 -19 -85
43 -102 121 -7 31 -49 53 -75 39 -10 -5 -26 -27 -35 -50 -16 -39 -49 -81 -63
-79 -18 3 -80 39 -93 54 -36 44 -186 93 -223 73 -19 -10 -20 -8 -13 53 4 35
12 65 17 67 5 2 9 10 9 17 0 7 4 15 9 17 6 2 13 19 16 38 3 19 17 58 29 85 23
48 50 154 62 240 3 21 7 42 10 46 6 10 22 95 40 209 11 68 15 186 16 418 0
177 4 322 9 322 4 0 14 -6 21 -12 7 -8 47 -15 91 -17 105 -4 166 24 236 112
50 63 61 94 47 135 -6 17 -15 22 -41 22 -35 0 -80 -34 -69 -52 3 -4 0 -8 -5
-8 -6 0 -11 -6 -11 -14 0 -7 -16 -24 -35 -37 -19 -13 -35 -27 -35 -30 0 -15
-80 -18 -123 -5 -25 8 -48 12 -50 10 -2 -2 -14 7 -27 21 -13 14 -30 25 -38 25
-8 0 -33 21 -57 47 -43 46 -43 47 -50 142 -9 121 -8 202 4 214 5 5 7 16 4 23
-12 32 31 214 51 214 5 0 7 3 3 6 -3 3 1 23 8 45 8 21 12 39 10 39 -3 0 4 17
15 37 11 21 20 42 20 46 0 10 71 100 83 105 4 2 7 10 7 17 0 15 59 75 74 75 6
0 21 11 34 24 l23 25 34 -35 c19 -19 39 -34 44 -34z"/>
<path d="M1986 3679 c-30 -24 -37 -85 -11 -95 8 -4 15 -12 15 -19 0 -11 6 -11
29 1 16 8 33 20 39 27 16 19 8 78 -13 93 -24 18 -27 18 -59 -7z"/>
<path d="M1728 3638 c-21 -26 -25 -98 -5 -99 6 0 23 -2 36 -3 29 -3 53 22 57
62 4 33 -7 46 -46 55 -18 5 -30 0 -42 -15z"/>
<path d="M1765 3409 c-4 -5 -15 -9 -26 -9 -16 0 -18 -5 -13 -27 4 -15 7 -34 7
-41 0 -7 23 -25 51 -40 41 -21 64 -26 115 -25 35 1 67 6 70 11 3 4 14 11 24
15 18 7 24 62 9 82 -14 19 -52 36 -52 23 0 -6 -3 -9 -6 -6 -3 4 -17 0 -32 -8
-17 -9 -30 -10 -36 -4 -6 6 -19 10 -30 10 -12 0 -33 7 -48 14 -16 9 -30 11
-33 5z"/>
<path d="M1823 2923 c-4 -10 -33 -44 -65 -76 -32 -32 -58 -62 -58 -68 0 -6 -7
-17 -15 -25 -8 -9 -15 -26 -15 -40 0 -13 -5 -24 -11 -24 -6 0 -9 -6 -6 -14 3
-8 -4 -24 -15 -35 -17 -19 -28 -21 -74 -17 -30 2 -54 0 -54 -5 0 -5 -5 -9 -10
-9 -6 0 -20 -8 -30 -18 -17 -16 -18 -23 -9 -56 l11 -38 44 7 c101 15 137 14
149 -2 11 -15 15 -15 45 3 44 25 58 49 44 72 -7 10 -8 25 -3 37 4 11 10 36 14
55 3 19 14 46 25 60 18 23 20 23 21 5 4 -81 9 -124 17 -150 5 -19 5 -38 -1
-52 -24 -54 42 -144 93 -128 26 8 50 55 50 98 0 18 5 38 11 44 6 6 11 40 11
76 1 36 5 64 9 61 13 -7 29 -75 29 -119 0 -27 8 -50 23 -69 31 -39 62 -42 91
-11 32 35 58 31 105 -14 35 -34 44 -38 72 -32 45 9 55 30 40 80 -6 23 -18 41
-25 41 -7 0 -25 9 -40 21 -14 11 -26 18 -26 14 0 -3 -13 3 -28 14 -22 15 -38
18 -72 14 -31 -4 -41 -3 -36 5 4 7 3 12 -1 12 -10 0 -33 57 -33 81 0 8 -13 46
-28 84 -24 58 -35 74 -68 92 -23 13 -49 20 -65 17 -16 -3 -31 1 -39 11 -17 21
-69 20 -77 -2z"/>
</g>
</svg>
