<?xml version="1.0" standalone="no"?>
<!DOCTYPE svg PUBLIC "-//W3C//DTD SVG 20010904//EN"
 "http://www.w3.org/TR/2001/REC-SVG-20010904/DTD/svg10.dtd">
<svg version="1.0" xmlns="http://www.w3.org/2000/svg"
 width="473.000000pt" height="369.000000pt" viewBox="0 0 473.000000 369.000000"
 preserveAspectRatio="xMidYMid meet">
<metadata>
Created by potrace 1.16, written by Peter Selinger 2001-2019
</metadata>
<g transform="translate(0.000000,369.000000) scale(0.100000,-0.100000)"
fill="#000000" stroke="none">
<path d="M2605 3431 c-48 -8 -65 -18 -65 -37 0 -8 -7 -14 -15 -14 -8 0 -15 -6
-15 -12 0 -7 -7 -26 -15 -42 -8 -16 -17 -43 -20 -60 -8 -46 -46 -146 -56 -146
-5 0 -9 -13 -9 -29 0 -25 5 -31 30 -36 16 -4 32 -11 35 -16 4 -5 16 -9 29 -9
22 0 106 -57 106 -72 0 -18 -63 -37 -135 -40 -67 -3 -80 -6 -96 -26 -17 -22
-17 -26 -2 -48 9 -14 24 -29 34 -35 28 -14 23 -38 -8 -44 -16 -4 -35 -10 -43
-16 -20 -12 -30 -16 -62 -23 -43 -10 -54 -29 -82 -143 -14 -59 -37 -145 -50
-190 l-23 -82 26 -9 c14 -4 42 -7 61 -7 35 2 92 -31 155 -89 15 -14 32 -26 37
-26 12 0 78 -50 78 -60 0 -4 -26 -15 -57 -24 -32 -10 -70 -24 -85 -32 -15 -8
-42 -14 -60 -13 -30 2 -65 -6 -143 -35 -16 -6 -34 -10 -38 -8 -5 1 -19 -5 -33
-15 -23 -17 -24 -25 -29 -148 -2 -71 -7 -156 -9 -187 -5 -57 -5 -58 27 -74 18
-9 43 -25 56 -35 13 -11 34 -19 47 -19 14 0 31 -11 43 -29 11 -15 34 -34 51
-41 16 -7 30 -15 30 -19 0 -15 -25 -31 -47 -31 -12 0 -28 -6 -35 -13 -7 -8
-19 -12 -28 -10 -8 2 -25 -5 -37 -16 -12 -11 -32 -23 -45 -26 -12 -4 -41 -19
-63 -34 -40 -27 -40 -28 -45 -101 -9 -130 17 -257 74 -365 9 -16 16 -36 16
-43 0 -7 7 -26 15 -42 8 -16 17 -37 18 -47 2 -10 7 -25 11 -34 4 -9 6 -20 4
-26 -10 -31 115 -123 168 -123 13 0 35 -7 48 -15 12 -8 55 -19 94 -24 39 -5
75 -12 81 -15 5 -4 29 -9 53 -12 42 -5 121 -15 223 -30 48 -7 173 -8 323 -3
39 1 74 0 77 -3 7 -7 258 31 278 42 10 6 55 22 100 36 77 24 126 43 137 54 3
3 25 16 50 29 25 13 71 41 103 63 32 21 83 46 112 56 62 20 120 66 175 138 21
28 44 57 52 65 8 8 24 31 37 51 12 21 26 38 29 38 4 0 25 35 46 78 50 99 44
87 97 168 51 78 64 107 83 185 8 30 21 79 29 109 21 79 30 147 27 210 -1 30
-2 75 -1 100 3 152 0 202 -14 224 -11 17 -14 40 -11 80 3 37 1 56 -6 56 -6 0
-9 3 -5 6 3 3 -4 31 -15 62 -11 32 -21 62 -22 68 -1 7 -8 19 -15 28 -8 9 -11
19 -8 23 3 3 0 18 -9 34 -8 16 -12 29 -9 29 2 0 -9 23 -26 50 -29 47 -64 140
-53 140 2 0 -9 14 -26 30 -17 17 -37 43 -43 58 -21 47 -79 123 -152 199 -38
41 -75 79 -81 86 -34 37 -149 132 -181 149 -21 11 -47 29 -59 39 -11 10 -24
19 -30 19 -5 0 -40 20 -77 45 -64 41 -92 52 -222 84 -87 22 -232 51 -280 56
-25 2 -49 7 -53 9 -13 8 -515 15 -557 7z m486 -105 c86 -2 161 -6 167 -10 6
-3 23 -8 39 -10 49 -7 259 -55 289 -66 26 -10 131 -76 144 -91 3 -3 26 -16 53
-28 26 -13 47 -27 47 -32 0 -5 7 -9 16 -9 9 0 27 -10 39 -22 12 -13 41 -41 66
-63 43 -40 150 -153 179 -191 8 -11 23 -36 34 -57 10 -20 27 -45 37 -56 11
-11 19 -25 19 -31 0 -13 45 -93 71 -128 10 -13 15 -30 12 -38 -3 -8 0 -14 5
-14 9 0 24 -29 27 -50 0 -3 5 -12 10 -20 5 -8 10 -19 10 -25 0 -5 12 -35 26
-65 42 -88 39 -79 53 -221 3 -31 12 -71 19 -90 18 -44 21 -256 6 -369 -7 -47
-23 -108 -36 -137 -13 -29 -26 -62 -28 -74 -2 -12 -10 -31 -18 -43 -7 -11 -18
-39 -25 -61 -6 -22 -22 -51 -34 -65 -29 -31 -101 -141 -158 -244 -31 -53 -65
-96 -105 -131 -78 -68 -247 -174 -308 -192 -26 -7 -62 -27 -80 -43 -18 -15
-57 -35 -87 -43 -30 -9 -80 -23 -110 -31 -30 -9 -72 -16 -94 -16 -21 0 -65 -7
-99 -16 -33 -8 -68 -13 -78 -11 -9 3 -55 0 -101 -5 -116 -13 -228 -10 -328 8
-48 8 -90 14 -95 13 -6 -2 -19 2 -30 7 -11 6 -51 19 -90 28 -38 10 -77 21 -85
26 -9 4 -31 11 -50 15 -73 16 -75 25 -13 86 110 108 122 119 132 119 5 0 17
15 26 34 16 34 16 36 -10 80 -23 39 -31 72 -26 112 0 7 13 15 28 19 15 3 30
10 33 14 10 14 105 68 131 74 49 12 43 49 -16 113 -13 14 -22 33 -20 43 3 17
-14 89 -30 125 -5 10 -3 39 3 65 6 25 23 107 38 182 l26 136 61 49 c34 27 89
75 122 108 68 67 156 136 173 136 6 0 17 8 24 18 7 9 25 25 41 35 32 21 37 61
8 76 -33 18 -121 112 -127 137 -3 13 -21 33 -39 44 -32 20 -33 22 -20 48 43
84 75 157 75 173 0 10 5 21 10 24 6 3 10 14 10 23 0 10 12 39 26 65 31 60 29
97 -8 115 -16 7 -28 19 -28 26 0 8 -7 16 -15 20 -9 3 -15 18 -15 35 0 45 -19
79 -49 86 -14 4 -38 20 -53 36 -15 16 -34 29 -42 29 -8 0 -24 19 -34 43 -10
23 -49 73 -85 110 -37 37 -67 70 -67 72 0 2 55 2 123 -1 67 -2 192 -6 278 -8z
m-501 -6 c0 -6 8 -14 17 -17 10 -4 38 -29 63 -56 25 -28 60 -65 77 -84 18 -18
36 -45 39 -58 3 -14 10 -25 15 -25 4 0 32 -22 61 -50 29 -27 61 -50 70 -50 12
0 16 -8 16 -29 -1 -33 20 -70 64 -113 29 -28 29 -30 13 -55 -9 -14 -30 -64
-47 -112 -38 -109 -56 -149 -85 -184 -13 -16 -23 -35 -23 -43 0 -8 28 -43 63
-77 111 -111 138 -147 126 -169 -6 -10 -19 -22 -29 -26 -20 -8 -103 -78 -185
-157 -54 -52 -112 -100 -157 -129 -30 -20 -48 -60 -54 -126 -8 -81 -35 -224
-49 -261 -13 -35 -11 -99 4 -109 12 -8 22 -41 31 -95 5 -27 11 -60 15 -72 5
-17 3 -25 -11 -30 -11 -4 -35 -19 -55 -35 -20 -16 -52 -31 -72 -35 -32 -5 -37
-10 -43 -39 -3 -19 -4 -46 -1 -62 18 -86 26 -115 36 -125 8 -8 1 -21 -26 -49
-20 -21 -41 -38 -45 -38 -4 0 -39 -32 -77 -71 -79 -80 -111 -89 -122 -34 -4
17 -7 26 -8 21 -3 -24 -113 237 -128 304 -12 51 -8 193 5 198 6 2 12 10 12 18
0 15 76 68 100 69 8 0 26 8 40 18 13 9 33 17 43 17 10 0 33 11 50 24 18 13 47
29 65 37 25 11 32 20 32 41 0 28 -7 36 -37 43 -52 12 -110 39 -128 60 -11 12
-35 28 -53 34 -19 6 -43 22 -53 35 -11 14 -25 23 -32 20 -15 -5 -15 58 -2 196
6 65 13 89 28 102 23 21 108 45 159 47 21 0 58 10 82 21 25 11 52 20 61 20 24
0 118 41 131 57 25 30 -13 81 -105 143 -29 19 -69 50 -89 67 -20 18 -41 33
-46 33 -5 0 -14 7 -20 15 -11 14 -39 23 -83 24 -25 1 -23 19 8 88 10 24 19 54
19 68 0 14 7 42 17 63 9 20 15 42 15 47 -2 15 116 68 134 61 8 -3 14 -1 14 4
0 6 9 10 20 10 12 0 31 10 44 23 25 25 22 51 -8 76 -9 7 -16 20 -16 27 0 15
43 29 60 19 6 -3 25 3 43 14 20 12 42 18 55 14 42 -10 87 58 48 73 -8 3 -17
17 -20 30 -4 14 -22 34 -40 45 -19 11 -36 26 -39 33 -3 6 -24 18 -46 26 -23 7
-44 17 -47 21 -2 4 12 54 31 110 19 57 35 105 35 106 0 2 5 3 10 3 6 0 10 -5
10 -10z"/>
<path d="M1411 3133 c-34 -7 -77 -19 -94 -27 -18 -8 -48 -19 -67 -25 -43 -13
-155 -52 -235 -82 -68 -26 -177 -93 -227 -140 -18 -17 -52 -43 -75 -58 -50
-33 -158 -143 -231 -234 -55 -70 -142 -195 -142 -206 0 -3 -9 -23 -20 -43 -19
-35 -130 -302 -134 -323 -2 -5 -12 -41 -23 -80 -32 -107 -44 -206 -46 -370 -2
-182 6 -266 28 -277 8 -5 15 -17 15 -26 0 -10 4 -22 9 -28 6 -5 12 -20 15 -34
19 -90 53 -174 105 -255 14 -22 24 -50 22 -63 -3 -28 15 -52 40 -52 9 0 24 -7
33 -15 8 -8 19 -15 23 -15 5 0 25 -12 44 -26 19 -14 48 -32 64 -40 17 -8 44
-23 60 -34 17 -11 41 -25 55 -30 13 -6 27 -14 30 -18 16 -22 210 -123 345
-181 47 -19 178 -58 235 -68 50 -9 249 -5 326 7 43 7 89 14 101 15 50 7 209
58 235 76 21 15 28 29 28 52 0 27 -6 35 -41 51 -22 10 -50 16 -63 14 -25 -5
-60 32 -37 40 6 2 11 10 11 17 0 7 3 15 8 17 4 2 27 26 51 55 41 50 43 53 31
87 -7 22 -21 39 -38 47 -15 6 -38 30 -52 52 -14 22 -37 53 -52 69 -16 16 -28
36 -28 44 0 20 -48 80 -127 160 l-62 62 44 84 c25 45 49 90 55 98 9 14 42 75
76 141 8 14 17 40 20 57 6 28 3 33 -21 42 -33 13 -58 6 -88 -24 -17 -17 -33
-22 -69 -21 -26 0 -50 4 -55 8 -9 9 240 261 279 282 37 21 47 61 34 145 -3 19
-7 65 -9 102 -4 71 -18 98 -47 98 -9 0 -32 7 -49 16 -21 11 -47 15 -72 11
l-39 -5 6 56 c3 32 7 63 10 70 6 22 -15 62 -33 62 -10 0 -26 7 -37 15 -10 7
-44 22 -75 31 -64 20 -69 23 -55 32 17 12 72 86 98 133 35 62 86 165 86 173 0
4 11 31 24 60 15 31 26 78 28 111 3 49 0 59 -17 69 -11 6 -25 17 -31 25 -17
21 -111 29 -183 14z m93 -93 c16 -6 27 -6 31 0 15 24 35 9 35 -24 0 -47 -103
-297 -130 -316 -4 -3 -19 -23 -33 -45 -14 -22 -48 -65 -76 -95 -28 -30 -51
-59 -51 -64 0 -19 37 -35 81 -36 26 0 64 -8 85 -17 22 -9 46 -18 54 -19 30 -6
37 -31 28 -95 -6 -33 -7 -71 -4 -82 6 -26 48 -56 54 -38 6 17 87 14 102 -4 7
-8 18 -15 25 -15 12 0 18 -31 32 -156 l5 -51 -135 -136 c-74 -74 -139 -141
-143 -149 -5 -7 -34 -32 -65 -56 -31 -23 -64 -51 -74 -62 -17 -19 -17 -21 0
-40 23 -26 41 -25 91 4 36 20 51 23 111 19 44 -4 78 -1 92 7 25 13 29 22 -31
-79 -14 -25 -41 -75 -59 -111 -18 -36 -42 -78 -55 -95 -12 -16 -26 -42 -29
-58 -6 -24 -3 -29 26 -41 64 -28 189 -169 189 -214 0 -12 4 -22 9 -22 10 0 86
-112 83 -122 -1 -4 9 -15 22 -23 13 -9 27 -23 30 -31 5 -14 -32 -56 -103 -116
-24 -21 -30 -88 -8 -88 15 0 63 -38 56 -44 -22 -18 -103 -28 -276 -33 -184 -4
-211 -3 -300 17 -54 13 -117 32 -139 44 -23 11 -72 37 -110 56 -74 38 -146 80
-154 90 -5 7 -120 62 -154 74 -11 4 -49 26 -85 50 -60 41 -101 87 -101 115 0
7 -18 30 -39 51 -56 57 -90 135 -162 370 -22 72 -31 237 -18 330 5 30 11 80
14 110 6 58 58 219 81 255 8 12 23 50 35 86 47 142 150 315 255 426 16 17 43
47 59 67 17 20 46 46 65 59 19 13 53 40 75 60 101 90 215 154 350 197 39 12
79 25 90 30 49 18 133 40 166 44 19 1 44 8 55 14 23 14 18 14 48 2z"/>
</g>
</svg>
