<?xml version="1.0" standalone="no"?>
<!DOCTYPE svg PUBLIC "-//W3C//DTD SVG 20010904//EN"
 "http://www.w3.org/TR/2001/REC-SVG-20010904/DTD/svg10.dtd">
<svg version="1.0" xmlns="http://www.w3.org/2000/svg"
 width="391.000000pt" height="417.000000pt" viewBox="0 0 391.000000 417.000000"
 preserveAspectRatio="xMidYMid meet">
<metadata>
Created by potrace 1.16, written by Peter Selinger 2001-2019
</metadata>
<g transform="translate(0.000000,417.000000) scale(0.100000,-0.100000)"
fill="#000000" stroke="none">
<path d="M2247 3874 c-4 -4 -324 -19 -397 -18 -36 0 -110 2 -165 3 -111 3
-379 -14 -438 -28 -22 -5 -39 -5 -43 0 -3 5 -11 6 -17 2 -19 -12 -37 -14 -145
-17 -122 -3 -148 -16 -139 -71 3 -20 1 -35 -5 -37 -6 -2 -12 -29 -14 -61 -2
-31 -10 -82 -18 -114 -8 -32 -17 -80 -21 -108 -3 -27 -9 -54 -13 -60 -4 -5 -9
-23 -11 -40 -1 -16 -14 -84 -28 -150 -13 -66 -29 -142 -35 -170 -5 -27 -14
-56 -20 -62 -5 -7 -12 -30 -13 -50 -2 -21 -10 -60 -19 -88 -25 -83 -45 -163
-51 -197 -5 -33 -11 -62 -21 -108 -3 -14 -9 -45 -13 -70 -5 -25 -19 -88 -30
-140 -12 -52 -23 -104 -25 -115 -5 -33 -27 -109 -37 -127 -5 -10 -9 -30 -9
-45 0 -35 -25 -153 -47 -223 -6 -19 -14 -62 -17 -95 -4 -33 -13 -79 -22 -104
-8 -24 -17 -56 -19 -70 -2 -14 -6 -33 -8 -41 -2 -8 -7 -37 -12 -65 -4 -27 -11
-55 -16 -60 -4 -6 -10 -22 -12 -35 -8 -42 -36 -132 -45 -144 -5 -6 -10 -18
-10 -26 -4 -60 -12 -83 -31 -97 -17 -11 -21 -21 -16 -40 3 -14 1 -30 -4 -37
-14 -16 -16 -116 -4 -186 17 -103 88 -209 151 -225 14 -3 42 -19 61 -34 20
-16 42 -26 50 -23 7 2 17 -1 21 -8 5 -9 46 -12 141 -12 180 -1 524 9 585 17
27 3 76 6 110 6 34 0 103 7 155 14 52 7 98 11 102 8 5 -3 90 -4 190 -3 271 2
406 -2 424 -13 11 -7 33 -4 49 5 10 7 73 2 81 -5 2 -3 24 -1 48 4 26 5 55 5
69 -1 13 -5 27 -6 31 -2 4 4 11 8 16 8 5 1 14 2 19 3 6 0 20 17 32 37 17 29
25 34 44 30 20 -5 26 0 43 37 11 24 20 52 19 63 0 10 11 51 25 89 13 39 30 90
37 115 12 45 15 52 43 125 20 50 57 205 57 237 0 13 5 29 10 34 13 13 36 127
45 219 9 90 11 108 24 180 5 33 18 105 27 160 9 55 18 109 20 120 12 64 34
212 44 290 7 50 18 109 26 132 17 52 23 84 30 148 3 28 6 64 8 80 2 17 13 75
26 130 12 55 24 123 26 150 7 92 12 129 32 215 11 47 22 108 25 137 3 29 7 56
10 60 9 15 21 96 19 125 -2 20 -62 43 -73 27 -5 -8 -8 -8 -13 0 -4 6 -10 9
-14 7 -4 -2 -14 1 -23 7 -18 14 -35 102 -20 111 5 3 15 30 21 58 7 29 17 55
21 58 11 8 -9 80 -22 80 -5 0 -9 6 -8 13 3 19 -18 64 -33 69 -7 3 -36 3 -63 1
-77 -8 -296 -7 -440 1 -144 9 -314 14 -318 10z m328 -183 c-3 -6 -14 -10 -23
-10 -15 1 -15 2 1 6 9 2 17 9 17 15 0 6 3 9 6 5 3 -3 3 -10 -1 -16z m-578
-289 c14 -9 15 -214 1 -252 -5 -14 -13 -45 -18 -70 -8 -41 -6 -46 22 -73 20
-19 35 -26 46 -22 32 13 87 25 167 35 44 5 104 13 134 16 50 7 53 6 43 -12 -5
-10 -10 -36 -10 -57 0 -21 -5 -43 -11 -50 -6 -8 -12 -46 -14 -86 l-3 -73 -39
-4 c-143 -14 -242 -17 -310 -10 -60 6 -79 -12 -81 -77 -1 -28 -6 -72 -12 -97
-6 -25 -13 -72 -17 -105 -3 -32 -10 -66 -15 -75 -4 -8 -11 -37 -15 -65 -4 -27
-10 -54 -14 -60 -3 -5 -6 -19 -7 -30 -2 -41 -16 -132 -31 -195 -8 -36 -17 -78
-19 -95 -4 -36 -30 -151 -50 -221 -8 -28 -14 -64 -14 -79 0 -16 -4 -42 -10
-59 -5 -17 -14 -59 -21 -94 l-12 -63 -111 6 c-61 4 -137 7 -168 8 -68 1 -73 9
-58 83 6 27 13 63 16 79 3 17 10 39 14 50 5 11 17 56 25 100 28 142 35 168 46
181 6 7 14 52 19 101 4 48 18 112 29 141 12 29 21 65 21 79 0 33 20 141 30
168 5 11 9 27 9 35 0 8 7 40 16 70 8 30 15 64 15 75 0 30 -34 55 -70 51 -17
-2 -51 1 -78 6 -63 12 -137 12 -162 -2 -14 -8 -20 -8 -20 0 0 6 -4 9 -10 5 -5
-3 -21 -3 -35 1 -25 6 -26 9 -21 53 4 25 12 66 18 91 6 25 10 62 10 82 0 38
11 46 78 55 62 9 242 6 248 -4 10 -14 72 -4 72 12 0 7 4 15 9 17 6 2 12 23 15
48 3 25 13 70 21 100 9 30 17 62 19 70 2 8 6 22 9 30 3 8 13 49 22 92 18 87
26 92 118 83 29 -3 64 -2 77 4 30 12 71 13 87 3z m1099 -85 c3 -10 3 -35 -2
-55 -4 -21 -8 -57 -9 -82 -2 -25 -5 -56 -8 -70 -15 -70 -30 -163 -43 -275 -3
-27 -8 -57 -11 -65 -3 -8 -7 -24 -8 -35 -2 -11 -8 -49 -15 -84 -6 -35 -13 -89
-15 -120 -1 -31 -10 -73 -19 -94 -8 -21 -22 -88 -31 -150 -8 -62 -19 -141 -24
-177 -6 -36 -13 -87 -16 -115 -4 -27 -11 -68 -15 -90 -5 -22 -11 -56 -15 -75
-3 -19 -9 -55 -15 -80 -5 -25 -12 -65 -15 -90 -15 -122 -24 -179 -35 -225 -6
-27 -13 -59 -15 -70 -25 -135 -85 -348 -111 -397 -8 -16 -13 -28 -10 -28 2 0
-8 -35 -23 -78 -29 -81 -70 -135 -96 -126 -26 10 -40 107 -19 139 7 11 15 43
18 70 3 28 8 61 11 75 15 77 23 116 40 215 11 65 36 187 49 240 2 6 6 33 10
60 4 28 11 68 16 90 4 22 13 63 19 90 25 123 44 205 61 275 10 41 26 111 36
155 9 44 21 87 25 96 5 9 11 27 14 40 12 54 64 333 69 374 1 11 5 30 9 41 4
12 14 61 23 110 19 108 16 97 53 272 17 78 33 147 37 154 4 6 9 26 11 45 2 18
8 44 13 58 9 23 12 24 30 13 11 -7 23 -21 26 -31z m-299 -639 c-3 -8 -6 -5 -6
6 -1 11 2 17 5 13 3 -3 4 -12 1 -19z m-2067 -1188 c0 -5 -5 -10 -11 -10 -5 0
-7 5 -4 10 3 6 8 10 11 10 2 0 4 -4 4 -10z m1107 -426 c-3 -3 -12 -4 -19 -1
-8 3 -5 6 6 6 11 1 17 -2 13 -5z m-527 -99 c57 -10 219 -17 435 -19 204 -2
451 -12 542 -21 17 -2 48 -11 68 -21 36 -17 37 -19 31 -60 -4 -29 -1 -46 8
-53 8 -6 16 -25 20 -42 3 -17 17 -44 31 -61 43 -51 39 -54 -105 -58 -162 -4
-190 -3 -265 4 -127 12 -588 -1 -745 -20 -79 -10 -315 -13 -351 -5 -20 5 -59
3 -97 -5 -34 -7 -70 -13 -80 -13 -59 -2 -142 0 -172 5 -46 8 -120 35 -120 44
0 4 -11 11 -24 14 -30 7 -98 77 -92 93 3 7 1 15 -4 18 -6 4 -10 21 -10 40 0
19 -5 37 -10 40 -6 4 -7 13 -1 23 4 9 7 27 6 40 -1 13 6 27 15 32 10 5 82 12
161 16 175 7 163 8 224 -1 28 -4 74 -3 103 3 28 5 69 6 90 3 20 -4 75 -1 122
5 78 11 156 11 220 -1z"/>
</g>
</svg>
