<?xml version="1.0" standalone="no"?>
<!DOCTYPE svg PUBLIC "-//W3C//DTD SVG 20010904//EN"
 "http://www.w3.org/TR/2001/REC-SVG-20010904/DTD/svg10.dtd">
<svg version="1.0" xmlns="http://www.w3.org/2000/svg"
 width="395.000000pt" height="433.000000pt" viewBox="0 0 395.000000 433.000000"
 preserveAspectRatio="xMidYMid meet">
<metadata>
Created by potrace 1.16, written by Peter Selinger 2001-2019
</metadata>
<g transform="translate(0.000000,433.000000) scale(0.100000,-0.100000)"
fill="#000000" stroke="none">
<path d="M2495 4090 c-33 -4 -85 -18 -115 -32 -30 -14 -66 -29 -80 -33 -14 -4
-28 -12 -31 -18 -4 -5 -20 -9 -35 -9 -16 0 -35 -5 -41 -10 -7 -6 -13 -7 -13
-4 0 4 -28 -16 -62 -44 -35 -27 -68 -50 -75 -50 -7 0 -13 -3 -13 -8 0 -4 -11
-19 -23 -33 -13 -13 -37 -45 -53 -69 -16 -25 -36 -50 -45 -57 -22 -16 -34
-175 -20 -260 12 -74 52 -159 89 -190 30 -25 129 -75 182 -92 35 -11 354 -8
424 4 17 3 50 7 72 9 23 2 52 11 66 20 13 9 51 25 84 35 57 19 60 20 74 2 8
-10 33 -26 55 -36 22 -10 46 -24 53 -32 7 -7 19 -13 25 -13 7 0 41 -27 76 -59
50 -48 61 -64 56 -80 -4 -12 -2 -21 4 -21 6 0 11 -7 11 -15 0 -9 8 -28 18 -42
11 -17 19 -55 22 -102 5 -68 7 -77 30 -88 22 -11 27 -10 42 8 17 21 18 31 2
152 -3 28 -1 37 10 37 8 0 16 -3 18 -7 2 -5 21 -17 42 -28 21 -11 47 -31 58
-45 40 -54 70 -281 48 -374 -12 -54 -6 -68 32 -70 32 -3 58 22 58 56 0 16 4
28 9 26 16 -6 86 -64 133 -110 75 -74 90 -114 90 -229 0 -107 -16 -159 -72
-229 -16 -21 -30 -41 -30 -44 0 -8 -100 -106 -165 -161 -25 -22 -54 -47 -63
-56 -9 -8 -28 -22 -42 -31 -14 -8 -48 -36 -76 -62 -29 -25 -97 -69 -153 -96
-55 -28 -101 -55 -101 -59 0 -12 -25 -21 -103 -37 -73 -14 -228 -4 -254 18 -7
6 -13 8 -13 5 0 -15 -95 51 -121 83 -34 43 -44 117 -22 162 8 16 13 32 9 35
-5 6 41 52 89 88 15 11 34 27 43 35 98 91 353 279 389 286 7 1 26 12 42 23 16
12 33 21 39 21 15 0 34 56 27 80 -10 31 -53 21 -101 -25 -22 -20 -52 -43 -69
-51 -16 -8 -57 -34 -90 -59 -33 -25 -78 -57 -100 -72 -39 -26 -130 -93 -168
-123 -10 -8 -45 -40 -77 -70 -75 -70 -108 -98 -112 -95 -2 2 -46 5 -98 8 -85
4 -185 29 -200 49 -3 3 -19 10 -35 14 -61 14 -121 94 -112 149 6 34 168 265
186 265 4 0 25 16 45 35 21 19 41 35 46 35 5 0 10 3 12 8 4 9 116 102 143 119
11 7 47 26 80 42 33 16 71 36 85 44 14 8 72 25 130 38 111 25 150 47 150 85 0
43 -23 48 -92 16 -35 -17 -90 -35 -123 -42 -54 -11 -111 -35 -125 -51 -3 -4
-16 -10 -29 -14 -14 -4 -48 -23 -77 -41 -29 -19 -58 -34 -64 -34 -5 0 -10 -4
-10 -10 0 -5 -7 -10 -16 -10 -8 0 -36 -21 -62 -46 -26 -25 -59 -53 -74 -62
-16 -9 -28 -20 -28 -24 0 -4 -7 -8 -15 -8 -8 0 -15 -3 -15 -7 0 -5 -17 -26
-38 -48 -20 -23 -59 -69 -87 -104 -80 -101 -76 -99 -136 -95 -66 3 -147 17
-217 37 -58 16 -97 47 -145 117 -28 39 -32 53 -31 106 0 49 6 71 30 110 16 27
35 62 43 77 8 16 32 41 55 57 23 15 49 41 60 57 10 15 38 44 63 63 25 19 51
41 59 48 20 19 164 122 170 122 3 0 20 11 38 25 18 14 37 25 43 25 18 0 63 49
63 68 0 10 -9 29 -19 41 l-19 22 -28 -31 c-16 -17 -58 -48 -94 -69 -36 -22
-75 -47 -87 -58 -11 -10 -31 -25 -43 -33 -12 -8 -33 -23 -45 -32 l-23 -18 -12
53 c-6 28 -20 71 -31 94 -10 24 -19 45 -19 48 0 2 -22 38 -50 79 -27 41 -50
78 -50 83 0 5 -27 36 -59 71 -39 40 -71 64 -90 68 -17 4 -31 13 -31 20 0 7 6
11 13 9 6 -3 25 6 41 20 17 14 41 28 55 32 14 3 46 15 71 26 50 22 120 38 162
37 56 -1 91 71 47 98 -18 11 -26 10 -64 -12 -24 -15 -56 -26 -70 -26 -15 0
-39 -8 -53 -19 -15 -10 -57 -28 -94 -40 -37 -12 -77 -30 -90 -39 -23 -18 -57
-35 -132 -68 -32 -13 -57 -15 -135 -11 -53 4 -125 11 -160 17 -35 6 -70 9 -77
6 -8 -3 -13 0 -11 7 3 17 -53 21 -89 6 -16 -7 -37 -11 -47 -10 -10 1 -33 -11
-53 -28 -19 -17 -47 -37 -62 -45 -16 -8 -41 -30 -55 -50 -15 -19 -34 -41 -42
-50 -9 -8 -21 -30 -27 -48 -11 -33 -49 -91 -102 -154 -15 -19 -26 -41 -22 -49
3 -8 0 -17 -5 -21 -7 -4 -8 -38 -4 -99 4 -50 8 -116 10 -146 2 -30 6 -108 9
-174 4 -66 9 -162 11 -213 8 -161 11 -170 76 -233 62 -61 89 -104 89 -141 0
-13 6 -43 14 -68 7 -25 17 -74 21 -110 4 -35 11 -71 16 -80 4 -8 19 -49 33
-90 13 -42 40 -106 59 -142 20 -41 31 -72 26 -80 -11 -17 -1 -52 28 -108 17
-32 23 -55 19 -80 -3 -19 -5 -52 -6 -72 0 -35 -2 -37 -78 -74 -84 -41 -205
-153 -195 -180 3 -8 1 -14 -4 -14 -5 0 -9 -9 -10 -21 -1 -11 -14 -32 -29 -45
-21 -20 -25 -32 -21 -57 6 -46 -9 -157 -28 -194 -9 -18 -18 -41 -20 -52 -2
-11 -10 -35 -18 -53 -9 -18 -18 -46 -22 -63 -8 -36 -44 -115 -61 -133 -25 -24
-26 -52 -3 -92 13 -22 27 -40 31 -40 19 0 46 37 51 70 5 38 41 145 56 171 5 9
13 38 17 65 3 27 20 78 36 114 l30 65 54 -54 c30 -30 54 -58 54 -62 0 -3 19
-12 43 -18 24 -6 54 -19 68 -29 13 -11 27 -20 32 -20 4 0 31 -5 60 -11 230
-47 286 -54 466 -56 86 -1 174 -7 196 -13 22 -6 78 -12 126 -12 54 0 90 -5 97
-12 10 -10 15 -10 21 0 7 11 9 11 14 -1 7 -18 92 -16 110 2 6 6 23 11 37 11
14 0 30 4 36 9 5 6 38 14 73 20 36 6 93 25 128 42 36 18 72 29 83 26 11 -3 30
3 44 14 13 10 29 19 35 19 12 0 114 70 119 82 2 5 8 8 13 8 5 0 17 7 27 15 9
9 40 36 67 61 29 25 51 39 53 32 1 -7 8 -98 16 -201 13 -195 22 -226 59 -211
26 9 28 33 16 155 -6 63 -14 157 -18 209 -14 162 -61 250 -111 205 -13 -12
-20 -31 -20 -54 0 -25 -8 -43 -25 -60 -29 -27 -31 -22 -10 19 9 16 17 43 19
59 3 30 30 80 66 120 11 13 20 28 20 33 0 10 37 48 48 48 4 0 12 8 19 18 6 11
32 29 56 40 25 12 48 30 51 40 6 17 127 72 160 72 9 0 20 9 25 19 6 10 30 30
53 44 52 31 156 132 223 217 28 35 67 82 88 105 20 23 37 46 37 51 0 5 16 29
35 53 19 24 35 48 35 52 0 5 12 15 28 23 40 21 205 184 236 234 15 24 33 45
41 49 8 3 15 9 15 15 0 5 12 35 27 66 25 53 27 67 27 187 1 126 0 132 -29 180
-16 28 -38 59 -49 71 -39 39 -131 146 -139 160 -4 8 -14 14 -20 14 -7 0 -20 9
-30 20 -9 11 -23 20 -31 20 -16 0 -26 30 -26 80 0 19 -4 51 -9 70 -5 19 -12
53 -16 75 -12 71 -146 175 -246 191 -25 4 -41 14 -53 34 -9 16 -33 44 -52 62
-20 18 -46 42 -58 53 -12 11 -41 34 -66 50 -25 17 -51 36 -58 43 -7 6 -18 12
-23 12 -16 0 -10 26 11 45 41 37 126 173 147 234 27 80 26 245 -1 287 -9 13
-15 28 -12 33 5 7 -28 46 -75 87 -36 31 -108 62 -169 74 -66 13 -272 19 -355
10z m355 -93 c14 -3 38 -10 53 -16 l29 -11 -33 -31 c-18 -17 -49 -37 -69 -44
-46 -17 -155 -26 -168 -13 -6 6 -17 6 -30 -1 -13 -7 -31 -7 -53 -1 -19 6 -45
10 -59 10 -14 0 -38 7 -54 15 -15 8 -42 15 -60 15 -30 0 -94 38 -68 41 15 2
22 4 47 13 36 14 70 25 90 29 26 6 342 1 375 -6z m174 -121 c44 -106 37 -261
-15 -327 -16 -20 -29 -41 -29 -45 0 -9 -29 -46 -80 -100 -16 -17 -60 -46 -97
-64 -37 -18 -77 -38 -88 -44 -42 -21 -298 -49 -435 -47 -85 2 -102 5 -167 36
-44 21 -78 44 -90 62 -10 15 -23 33 -29 40 -13 14 -46 151 -39 163 2 4 5 33 6
64 2 56 21 94 78 159 31 35 103 102 107 99 2 -1 17 4 33 13 23 11 31 12 39 2
6 -7 24 -14 40 -15 17 -1 45 -8 63 -16 45 -18 189 -50 196 -43 3 3 17 1 32 -4
31 -12 229 -21 245 -11 6 3 22 8 36 10 40 5 141 64 153 89 12 27 23 22 41 -21z
m-2037 -627 c21 -8 126 -20 188 -21 110 -4 235 -19 260 -32 17 -9 36 -16 42
-16 19 0 123 -116 123 -136 0 -6 11 -28 25 -48 14 -20 25 -43 25 -50 0 -8 6
-16 14 -19 12 -5 25 -42 32 -92 1 -11 8 -40 14 -65 10 -41 9 -46 -10 -62 -22
-18 -23 -17 -61 31 -22 28 -49 53 -59 56 -11 4 -20 11 -20 16 0 6 -14 16 -31
23 -42 18 -100 6 -135 -28 -16 -15 -68 -61 -116 -104 -49 -42 -88 -83 -88 -92
0 -8 12 -33 25 -55 14 -22 25 -51 25 -65 0 -14 11 -46 25 -72 30 -57 30 -58 6
-53 -37 7 -211 111 -211 126 0 5 -6 9 -12 9 -12 0 -146 117 -141 122 6 7 -11
48 -19 48 -5 0 -8 6 -6 12 11 32 -49 51 -72 23 -12 -15 -5 -75 10 -75 4 0 13
-14 19 -32 10 -28 135 -158 152 -158 4 0 14 -6 21 -12 29 -28 139 -99 168
-109 16 -6 30 -16 30 -22 0 -6 3 -8 6 -5 3 4 20 2 37 -3 18 -5 59 -11 92 -14
85 -8 88 -10 109 -61 19 -47 79 -116 131 -151 74 -50 235 -96 333 -95 21 0 32
-4 29 -11 -6 -18 13 -80 30 -99 8 -9 13 -20 10 -25 -14 -23 173 -126 298 -163
47 -15 173 -20 177 -8 2 6 5 -22 6 -63 2 -40 10 -88 18 -106 17 -34 96 -113
114 -113 6 0 35 -11 64 -25 56 -27 138 -46 196 -45 19 0 46 0 60 0 37 -1 113
21 133 38 9 8 17 12 17 7 0 -4 11 0 25 9 13 9 29 16 36 16 6 0 30 13 53 28 43
29 76 45 76 36 0 -11 -34 -56 -69 -91 -21 -21 -42 -45 -47 -53 -19 -31 -159
-138 -182 -139 -7 -1 -21 -9 -32 -19 -10 -10 -45 -26 -77 -36 -32 -10 -67 -22
-78 -27 -11 -4 -49 -15 -85 -24 -36 -9 -83 -23 -105 -31 -22 -9 -51 -18 -65
-21 -66 -12 -111 -24 -153 -42 -45 -20 -139 -23 -165 -7 -7 4 -31 9 -54 12
-99 10 -135 17 -165 31 -19 9 -43 13 -58 9 -20 -5 -25 -12 -25 -40 0 -47 29
-59 170 -71 41 -4 93 -13 116 -22 42 -15 55 -14 199 18 28 6 59 11 70 11 21 0
102 26 120 38 6 4 20 10 33 13 29 7 30 -17 1 -37 -12 -8 -27 -23 -33 -34 -6
-11 -28 -49 -48 -84 -21 -36 -38 -70 -38 -77 0 -7 -11 -36 -25 -66 -15 -30
-32 -73 -38 -97 -12 -39 -19 -46 -77 -75 -36 -18 -72 -35 -80 -37 -8 -3 -22
-10 -30 -15 -36 -22 -113 -51 -186 -70 -44 -11 -98 -27 -121 -35 -27 -10 -66
-13 -119 -10 -93 5 -213 14 -234 18 -51 8 -139 17 -230 22 -151 8 -194 12
-305 29 -11 2 -36 6 -55 9 -20 2 -49 8 -65 11 -42 10 -155 65 -155 76 0 4 14
42 30 84 16 42 30 83 30 91 0 9 6 14 13 11 15 -6 52 47 43 61 -3 5 2 33 10 63
8 30 17 121 21 209 3 85 6 161 6 168 1 18 7 15 57 -27 53 -45 192 -114 232
-115 16 -1 28 -4 28 -8 0 -3 15 -10 33 -13 17 -4 35 -12 38 -17 3 -5 51 -9
105 -9 99 0 141 10 214 47 19 10 58 20 86 22 49 4 60 10 122 63 7 6 28 15 45
20 47 13 52 19 75 82 20 53 20 58 5 64 -14 6 -43 -17 -55 -45 -3 -7 -101 -67
-152 -92 -16 -8 -37 -14 -46 -12 -10 2 -49 -13 -88 -31 -50 -24 -90 -36 -139
-41 -104 -9 -123 -7 -190 19 -34 14 -72 25 -86 25 -13 0 -39 10 -58 23 -19 12
-47 29 -63 37 -52 27 -170 152 -201 214 -17 32 -37 72 -47 90 -9 17 -27 63
-40 101 -12 39 -26 73 -31 76 -4 3 -14 43 -22 90 -25 144 -44 227 -59 262 -14
35 -60 87 -76 87 -5 0 -21 20 -35 44 -23 40 -26 55 -30 197 -3 85 -8 192 -10
239 -19 304 -19 289 17 360 19 36 50 91 71 122 20 31 37 60 37 63 0 21 110
125 139 131 14 3 33 9 41 14 18 11 116 10 147 -1z m572 -541 c56 -57 58 -64
36 -87 -47 -50 -75 -87 -75 -98 0 -7 -4 -13 -9 -13 -5 0 -15 -16 -21 -36 -7
-20 -18 -48 -26 -62 -8 -15 -14 -33 -14 -41 0 -9 -8 -12 -25 -9 -14 3 -28 1
-31 -3 -11 -19 -24 -8 -24 21 0 16 -6 33 -13 37 -23 14 -57 67 -63 97 -3 16
-11 41 -19 57 -14 26 -13 29 13 53 95 89 114 105 132 111 11 4 20 11 20 16 0
5 15 9 34 9 27 0 43 -10 85 -52z m-732 -1868 c-3 -53 -11 -90 -23 -108 -10
-15 -30 -49 -44 -77 -62 -116 -71 -127 -89 -111 -19 17 -40 83 -45 139 -4 42
25 111 66 159 21 24 111 77 132 78 5 0 6 -36 3 -80z"/>
</g>
</svg>
