<?xml version="1.0" standalone="no"?>
<!DOCTYPE svg PUBLIC "-//W3C//DTD SVG 20010904//EN"
 "http://www.w3.org/TR/2001/REC-SVG-20010904/DTD/svg10.dtd">
<svg version="1.0" xmlns="http://www.w3.org/2000/svg"
 width="565.000000pt" height="423.000000pt" viewBox="0 0 565.000000 423.000000"
 preserveAspectRatio="xMidYMid meet">
<metadata>
Created by potrace 1.16, written by Peter Selinger 2001-2019
</metadata>
<g transform="translate(0.000000,423.000000) scale(0.100000,-0.100000)"
fill="#000000" stroke="none">
<path d="M4705 4198 c-11 -6 -22 -14 -25 -17 -5 -7 -115 -88 -146 -108 -10 -7
-36 -24 -57 -38 -21 -13 -51 -32 -67 -40 -17 -9 -61 -42 -98 -74 -63 -55 -133
-104 -243 -173 -75 -47 -83 -52 -116 -75 -17 -13 -34 -23 -37 -23 -7 0 -41
-27 -73 -57 -13 -13 -27 -22 -31 -22 -4 0 -21 -11 -39 -25 -18 -15 -37 -26
-42 -26 -6 0 -11 -4 -11 -8 0 -5 -40 -35 -89 -66 -49 -31 -95 -64 -101 -72 -7
-7 -19 -14 -27 -14 -7 0 -29 -15 -47 -33 -19 -19 -40 -37 -47 -41 -42 -21
-245 -162 -254 -176 -3 -5 -29 -23 -58 -40 -28 -17 -77 -51 -107 -76 -30 -24
-79 -60 -107 -80 -52 -35 -58 -43 -53 -74 3 -24 18 -27 73 -18 29 4 70 8 92 8
22 -1 61 4 86 10 49 12 98 1 100 -22 0 -7 2 -22 5 -33 2 -11 4 -45 5 -75 0
-30 0 -89 1 -130 0 -41 1 -246 2 -455 0 -209 5 -386 9 -392 5 -7 5 -13 2 -13
-13 0 -132 63 -162 86 -17 13 -39 24 -49 24 -18 0 -43 -27 -44 -47 0 -12 87
-63 202 -119 77 -38 75 -32 83 -214 3 -69 8 -172 12 -230 3 -58 7 -175 8 -260
3 -175 12 -328 21 -342 3 -5 8 -87 10 -181 3 -95 5 -179 6 -187 1 -8 -1 -52
-5 -97 -8 -98 -4 -113 33 -113 53 0 54 14 46 388 -2 89 -9 184 -15 210 -14 62
-19 145 -25 382 -3 107 -7 215 -11 240 -3 25 -7 104 -9 177 l-4 131 28 -8 c15
-4 37 -13 49 -19 30 -17 104 -18 109 -3 6 18 29 14 29 -5 -1 -10 0 -64 1 -119
2 -100 2 -102 35 -134 30 -29 35 -31 81 -25 26 3 74 12 105 20 31 8 124 20
206 26 235 18 255 18 255 6 0 -7 -16 -37 -34 -67 -82 -131 -88 -143 -77 -167
13 -27 42 -30 62 -5 8 9 36 60 62 112 27 52 54 103 61 112 11 14 45 17 262 23
137 4 311 8 386 9 l137 1 15 31 c12 26 12 35 2 50 -11 14 -22 16 -77 10 -139
-15 -178 -14 -185 6 -3 10 -13 25 -21 34 -9 9 -20 38 -24 66 -5 28 -15 55 -23
62 -8 6 -17 25 -19 41 -2 17 -12 53 -21 80 -10 28 -22 68 -26 90 -36 161 -53
216 -110 361 -16 42 -42 34 -179 -57 -73 -49 -139 -89 -147 -89 -15 0 -37 34
-27 44 4 3 -1 12 -11 19 -28 20 -21 47 32 135 49 80 50 84 51 161 0 44 -4 103
-9 133 -11 58 -66 181 -96 213 -57 63 -170 102 -261 90 -60 -7 -87 -26 -129
-87 -16 -24 -46 -61 -66 -83 -48 -51 -69 -112 -85 -247 -4 -38 0 -58 24 -111
44 -92 93 -140 193 -189 94 -45 205 -63 235 -38 9 7 17 11 19 9 8 -8 36 -82
36 -93 0 -6 -30 -24 -65 -41 -36 -16 -65 -33 -65 -36 0 -9 -69 -38 -141 -58
-45 -13 -76 -29 -100 -52 -19 -19 -52 -43 -74 -54 -22 -11 -56 -29 -77 -42
-31 -19 -37 -20 -42 -7 -11 29 -7 484 5 506 6 11 7 18 1 14 -5 -3 -12 23 -16
62 -13 131 -26 308 -31 437 l-6 130 28 16 c47 27 163 43 250 35 152 -15 345
-19 468 -11 28 2 124 -1 215 -6 91 -6 172 -10 180 -9 8 0 45 1 82 1 51 1 71 5
87 20 26 24 26 31 4 57 -15 17 -25 20 -63 14 -38 -6 -76 -6 -215 -3 -20 1
-118 1 -265 1 -41 0 -113 -2 -159 -6 -46 -3 -111 -1 -145 5 -87 15 -277 28
-282 19 -3 -5 -24 -8 -47 -8 -23 0 -64 -7 -91 -15 -35 -11 -53 -12 -62 -4 -19
16 -54 1 -64 -27 -6 -16 -6 -50 0 -92 5 -37 14 -151 21 -254 6 -102 13 -199
15 -215 3 -15 7 -181 10 -369 l6 -340 -42 -19 c-32 -15 -46 -16 -60 -8 -9 6
-35 16 -56 22 -22 6 -44 14 -51 19 -28 18 -36 149 -38 647 -1 275 -5 525 -9
556 -9 63 -28 80 -81 73 -60 -8 -150 -12 -157 -7 -5 2 33 36 84 73 51 38 98
73 103 77 15 13 143 104 186 133 78 52 228 161 243 175 8 8 18 15 22 15 7 0
124 82 146 103 11 10 119 83 188 127 8 5 40 27 72 47 174 116 227 153 232 162
9 13 150 113 219 154 100 59 255 167 260 179 7 20 -12 48 -31 48 -9 0 -26 -6
-37 -12z m-643 -1494 c54 -27 88 -65 120 -134 25 -54 31 -80 34 -156 3 -90 3
-90 -40 -169 -24 -44 -55 -88 -69 -99 -31 -23 -78 -28 -132 -13 -42 11 -76 32
-40 25 11 -3 37 4 58 14 22 11 41 17 44 14 8 -7 63 53 63 69 0 49 -38 60 -79
21 -28 -25 -80 -46 -117 -46 -13 0 -29 -9 -37 -21 -14 -19 -17 -20 -43 -6 -40
21 -101 112 -111 167 -9 51 41 206 70 216 9 3 17 13 17 23 0 10 23 42 51 71
l51 53 63 -6 c36 -4 79 -14 97 -23z m412 -691 c-5 -51 -9 -74 -25 -163 -6 -30
-13 -71 -16 -90 -5 -35 -21 -69 -68 -145 -14 -22 -43 -76 -66 -120 -23 -44
-45 -85 -50 -91 -5 -7 -45 -12 -93 -13 l-83 -2 -7 31 c-3 17 -19 44 -35 60
-16 16 -26 32 -23 34 3 3 -2 14 -11 24 -15 17 -97 173 -97 186 0 16 50 52 148
103 167 88 216 113 225 113 5 0 34 18 66 40 31 22 61 40 66 40 6 0 21 9 35 20
36 28 40 25 34 -27z m105 -136 c1 -16 6 -38 13 -50 19 -36 58 -219 58 -274 0
-41 9 -63 26 -63 8 0 14 -7 14 -16 0 -9 9 -31 20 -49 l20 -33 -87 -6 c-69 -4
-275 -2 -315 3 -8 1 76 156 101 186 43 53 81 137 79 177 -1 19 2 40 5 45 4 6
11 43 17 83 6 40 13 77 17 83 8 13 31 -48 32 -86z m-753 -193 c-3 -7 4 -20 14
-29 10 -9 17 -22 14 -29 -2 -6 4 -21 15 -32 10 -11 29 -49 41 -83 17 -46 27
-60 38 -56 11 4 12 2 4 -7 -8 -10 -4 -19 14 -37 13 -13 21 -27 18 -32 -3 -5
-35 -9 -72 -8 -37 1 -103 -6 -147 -15 -148 -29 -139 -30 -157 23 -17 49 -20
202 -4 200 5 0 12 3 15 9 6 8 49 34 146 86 45 25 68 29 61 10z"/>
<path d="M3980 2500 c-32 -8 -61 -57 -41 -69 7 -5 10 -14 7 -20 -4 -6 -2 -11
3 -11 6 0 11 4 11 9 0 5 11 12 25 15 14 4 25 10 25 15 0 5 6 16 13 23 20 20
-10 47 -43 38z"/>
<path d="M3797 2439 c-13 -15 -16 -29 -12 -50 6 -25 10 -28 38 -25 28 3 32 7
35 35 2 23 -2 37 -15 47 -24 18 -26 18 -46 -7z"/>
<path d="M350 3970 c-14 -3 -26 -14 -28 -24 -6 -27 63 -93 106 -101 34 -6 61
-19 184 -83 94 -50 259 -155 295 -188 18 -18 72 -51 118 -74 47 -24 88 -47 91
-51 3 -5 31 -21 62 -36 31 -14 59 -30 60 -35 2 -4 9 -8 15 -8 7 0 24 -11 39
-25 15 -14 30 -25 34 -25 4 0 15 -6 23 -14 9 -7 70 -41 136 -76 66 -34 150
-84 186 -111 37 -27 97 -63 133 -79 36 -17 66 -34 66 -39 0 -11 -153 -50 -210
-53 -41 -3 -47 -6 -61 -38 -14 -31 -14 -38 -1 -57 8 -13 16 -46 19 -75 8 -89
7 -654 -2 -812 l-8 -149 -30 -16 c-16 -9 -46 -27 -66 -40 -20 -13 -59 -37 -88
-53 l-52 -28 1 37 c0 21 -3 74 -7 118 -4 44 -7 121 -7 170 1 50 2 101 2 115 0
16 10 32 30 45 16 11 30 23 30 28 0 4 14 22 31 40 52 54 92 146 119 270 19 92
-8 180 -69 225 -30 22 -138 51 -190 52 -17 0 -21 3 -14 13 16 20 35 109 25
116 -5 3 -14 16 -20 27 -20 38 -87 34 -74 -4 3 -10 -10 -12 -58 -7 -62 7 -147
20 -165 26 -5 1 -31 0 -57 -5 -51 -8 -86 -10 -388 -21 -107 -4 -203 -11 -213
-17 -10 -5 -30 -7 -44 -3 -32 8 -53 -10 -53 -46 0 -32 24 -44 68 -35 15 4 38
9 52 11 14 3 113 8 220 11 107 3 229 7 270 10 125 7 192 4 260 -12 36 -8 75
-12 87 -9 15 3 23 0 25 -12 2 -13 -10 -24 -46 -41 -129 -59 -234 -180 -281
-323 -41 -121 -31 -227 28 -301 8 -10 19 -18 26 -18 12 0 14 -22 5 -57 -6 -22
-44 -34 -44 -14 0 5 -8 11 -17 15 -10 3 -31 14 -48 25 -46 30 -81 27 -100 -9
-9 -16 -13 -30 -10 -30 3 0 -4 -17 -15 -37 -11 -21 -20 -43 -20 -50 0 -7 -4
-13 -9 -13 -7 0 -71 -119 -71 -133 0 -6 -44 -106 -86 -193 -13 -29 -37 -67
-52 -86 -15 -19 -38 -58 -52 -86 -14 -28 -30 -51 -37 -52 -6 0 -18 -9 -26 -21
-13 -18 -21 -20 -71 -14 -31 4 -56 12 -56 18 0 13 -44 -43 -46 -60 -6 -36 64
-52 201 -46 35 2 159 24 185 33 14 5 50 11 80 14 161 15 225 16 325 6 204 -22
378 -28 394 -14 12 11 13 32 3 135 -12 119 -8 149 19 149 7 0 65 36 94 57 6 5
29 20 52 36 l43 27 4 -22 c8 -39 20 -191 19 -238 -1 -25 -5 -139 -9 -255 -5
-115 -7 -313 -6 -440 3 -470 3 -642 -2 -713 l-5 -73 42 3 42 3 -2 40 c-2 47
-2 93 -1 310 0 88 -1 268 -2 400 -2 132 0 319 3 415 10 252 11 359 2 501 -7
119 -6 127 11 133 11 3 44 26 74 51 30 25 68 49 83 52 49 10 77 81 40 101 -12
7 -33 -2 -87 -42 -39 -28 -84 -60 -99 -70 l-28 -17 8 218 c4 120 8 343 7 495
l0 277 29 7 c16 3 40 12 55 20 15 8 36 14 47 14 11 1 56 16 100 33 63 26 81
38 83 56 5 29 -12 48 -49 56 -16 4 -29 11 -29 16 0 5 -6 9 -12 10 -22 1 -132
61 -208 114 -40 27 -82 51 -93 52 -12 2 -30 12 -42 22 -31 27 -90 61 -109 61
-9 0 -16 5 -16 10 0 6 -6 10 -13 10 -7 0 -45 21 -84 48 -67 44 -118 74 -323
192 -43 25 -86 53 -97 62 -27 24 -215 148 -225 148 -5 0 -42 21 -84 46 -41 25
-100 54 -131 65 -31 10 -70 29 -87 42 -22 16 -38 22 -56 17z m1072 -1282 c41
-18 93 -96 84 -125 -3 -10 -6 -43 -7 -73 -1 -41 -11 -72 -37 -122 -39 -74 -82
-124 -82 -95 0 24 -35 40 -59 27 -11 -5 -30 -10 -43 -10 -25 0 -118 54 -118
69 0 5 -9 11 -21 14 -27 7 -59 -25 -52 -52 11 -42 136 -101 216 -101 l42 0
-25 -21 c-37 -30 -68 -40 -139 -46 -59 -5 -141 10 -141 26 0 4 -14 15 -31 25
-58 34 -74 125 -43 234 14 48 51 113 75 132 4 3 15 19 26 37 11 18 38 47 62
66 42 33 42 33 149 32 73 -1 118 -6 144 -17z m-358 -606 c7 -12 162 -15 184
-3 17 9 20 7 25 -17 2 -15 5 -53 6 -86 l2 -58 -36 6 c-20 4 -51 15 -68 25 -18
10 -52 25 -77 35 -48 18 -103 55 -82 56 6 0 12 8 12 18 0 28 22 43 34 24z
m-22 -164 c32 -15 63 -28 69 -28 7 0 8 -7 3 -17 -12 -28 -8 -61 10 -78 9 -9
16 -19 16 -22 0 -6 -58 -80 -80 -103 -9 -9 -29 -34 -45 -55 -17 -22 -33 -42
-36 -45 -11 -9 -79 -119 -79 -128 0 -9 -149 -28 -177 -23 -10 1 -123 -17 -226
-36 l-29 -6 17 33 c9 18 28 44 41 56 13 13 21 24 19 24 -3 0 18 44 45 97 28
53 50 105 50 114 0 10 4 20 9 23 5 3 21 36 36 73 31 78 110 209 134 223 12 6
36 -2 91 -33 41 -23 101 -54 132 -69z m258 -146 l0 -57 -25 30 c-29 36 -30 44
-9 73 23 33 34 18 34 -46z m-56 -127 c20 -27 42 -59 50 -70 7 -11 17 -54 20
-96 l7 -76 -123 4 c-68 2 -134 5 -148 8 -14 2 -38 4 -53 4 l-28 1 18 30 c10
17 28 37 40 45 11 8 24 27 28 43 8 39 124 174 141 164 7 -4 28 -29 48 -57z"/>
<path d="M1288 2589 c-29 -17 -21 -85 9 -84 19 0 45 43 41 68 -3 25 -25 32
-50 16z"/>
<path d="M1414 2486 c-26 -31 -15 -56 26 -56 36 0 56 30 40 60 -14 27 -40 25
-66 -4z"/>
<path d="M892 2781 c-11 -7 -11 -9 2 -14 10 -4 16 -1 16 8 0 17 -1 17 -18 6z"/>
</g>
</svg>
