<?xml version="1.0" standalone="no"?>
<!DOCTYPE svg PUBLIC "-//W3C//DTD SVG 20010904//EN"
 "http://www.w3.org/TR/2001/REC-SVG-20010904/DTD/svg10.dtd">
<svg version="1.0" xmlns="http://www.w3.org/2000/svg"
 width="465.000000pt" height="437.000000pt" viewBox="0 0 465.000000 437.000000"
 preserveAspectRatio="xMidYMid meet">
<metadata>
Created by potrace 1.16, written by Peter Selinger 2001-2019
</metadata>
<g transform="translate(0.000000,437.000000) scale(0.100000,-0.100000)"
fill="#000000" stroke="none">
<path d="M3110 4227 c-3 -3 -25 -8 -50 -12 -45 -7 -88 -25 -112 -47 -7 -7 -31
-28 -53 -47 -86 -72 -160 -148 -190 -196 -18 -27 -47 -66 -64 -85 -17 -19 -31
-39 -31 -44 0 -4 -13 -28 -30 -53 -16 -24 -30 -49 -30 -54 0 -6 -12 -30 -26
-55 -14 -25 -30 -59 -34 -77 -4 -18 -23 -88 -41 -157 -34 -131 -41 -228 -19
-269 16 -31 7 -36 -31 -17 -37 19 -80 21 -96 5 -8 -8 -17 -8 -31 0 -21 11
-120 -12 -180 -43 -17 -9 -35 -17 -39 -18 -5 -1 -17 -10 -27 -20 -11 -10 -24
-18 -30 -18 -12 0 -107 -97 -157 -160 -87 -111 -157 -246 -178 -350 -13 -62
-29 -123 -42 -160 -5 -14 -11 -54 -14 -90 -4 -36 -11 -87 -16 -115 -12 -62
-10 -294 3 -343 5 -21 13 -46 19 -57 5 -11 11 -30 12 -43 0 -12 5 -22 9 -22 4
0 8 -6 8 -14 0 -34 88 -193 138 -249 24 -27 122 -77 152 -77 14 0 31 -5 38
-12 7 -7 12 -9 12 -5 0 4 9 3 20 -3 25 -13 180 -21 180 -9 0 5 7 9 16 9 47 0
161 46 198 79 206 187 281 323 361 651 33 135 50 326 37 400 -6 30 -7 59 -2
64 4 4 23 3 42 -3 18 -6 46 -13 61 -16 22 -4 27 -10 22 -23 -45 -117 -60 -267
-39 -407 6 -44 10 -83 7 -87 -2 -4 1 -9 7 -13 5 -3 10 -14 10 -23 0 -36 60
-141 114 -199 55 -60 97 -85 241 -148 68 -29 129 -34 198 -15 96 26 153 51
184 79 10 9 46 38 81 65 70 53 128 134 187 261 21 44 43 87 50 95 17 21 55
128 55 154 0 12 4 26 10 32 17 17 59 257 65 379 12 220 -16 333 -108 432 -67
73 -132 109 -246 138 -52 13 -57 13 -108 -11 -29 -14 -57 -23 -62 -19 -25 15
-156 -37 -169 -67 -2 -5 -9 -8 -16 -8 -7 0 -29 -12 -48 -27 -20 -16 -46 -35
-58 -43 -30 -20 -70 -60 -100 -100 -14 -19 -37 -48 -52 -66 -16 -17 -28 -36
-28 -42 0 -5 -7 -15 -15 -22 -9 -7 -25 -32 -35 -55 -10 -23 -25 -47 -33 -53
-8 -7 -22 -30 -32 -52 -16 -35 -22 -40 -54 -41 -20 -1 -40 0 -46 1 -5 2 -25 3
-42 2 -26 -1 -37 6 -55 31 -12 18 -25 34 -28 37 -3 3 -18 34 -33 70 -15 36
-41 85 -57 110 -16 25 -30 49 -30 54 0 10 -20 32 -103 117 -26 27 -42 49 -35
49 21 0 41 55 29 79 -15 28 -14 122 3 173 8 24 17 61 21 83 7 46 61 182 80
205 7 8 23 40 36 70 13 30 28 60 35 65 6 6 21 26 34 45 45 67 162 194 209 228
13 9 31 24 40 32 29 26 110 60 144 60 34 -1 125 -21 168 -38 15 -6 29 -9 32
-6 2 2 10 -2 17 -11 7 -8 18 -15 25 -15 14 0 114 -101 163 -165 18 -23 45
-105 56 -171 13 -71 13 -251 2 -309 -4 -16 -7 -36 -8 -42 -1 -7 -5 -13 -10
-13 -4 0 -8 -17 -8 -39 0 -31 4 -40 23 -46 29 -9 60 -6 69 9 28 41 60 263 47
311 -5 16 -9 58 -9 92 0 83 -16 153 -51 224 -16 32 -29 61 -29 65 0 9 -41 44
-52 44 -4 0 -8 9 -8 20 0 11 -4 20 -8 20 -4 0 -27 17 -49 38 -69 62 -95 78
-171 106 -68 24 -201 45 -212 33z m600 -1128 c25 -6 55 -12 66 -13 12 -2 35
-13 52 -24 16 -12 35 -22 41 -22 6 0 11 -3 11 -7 0 -5 19 -27 41 -50 22 -24
37 -43 34 -43 -4 0 -2 -7 5 -14 22 -27 29 -180 18 -356 -7 -104 -55 -313 -88
-385 -67 -147 -122 -251 -152 -285 -10 -11 -18 -23 -18 -26 0 -3 -23 -26 -51
-52 -171 -157 -296 -178 -479 -79 -48 25 -150 117 -132 117 4 0 2 4 -4 8 -15
10 -52 83 -58 116 -2 14 -7 30 -10 35 -4 5 -11 33 -17 63 -20 93 -10 233 22
325 11 32 29 85 39 118 25 85 157 298 232 377 71 74 215 175 262 183 17 3 51
10 76 14 61 12 59 12 110 0z m-1312 -107 c28 -14 52 -29 52 -33 0 -11 60 -69
71 -69 5 0 9 -5 9 -10 0 -6 16 -33 35 -60 66 -94 116 -231 135 -370 10 -71 -7
-267 -31 -350 -10 -36 -26 -92 -35 -125 -9 -33 -27 -82 -39 -110 -12 -27 -35
-79 -51 -115 -46 -105 -168 -241 -254 -284 -27 -13 -74 -29 -105 -36 -72 -15
-197 -4 -230 20 -5 4 -28 13 -50 20 -53 17 -58 21 -109 99 -78 117 -118 241
-120 371 -1 120 6 242 15 260 4 8 12 44 17 80 6 36 13 75 16 88 3 12 8 30 10
40 2 9 12 44 22 77 10 33 19 65 20 71 4 25 58 130 71 137 7 4 13 14 13 21 0
24 107 152 162 195 29 22 58 45 65 51 7 5 16 10 22 10 5 0 11 5 13 11 2 6 33
19 68 29 79 23 135 18 208 -18z"/>
<path d="M3295 2718 c-61 -11 -75 -22 -75 -60 0 -33 -11 -32 111 -12 24 4 40
2 50 -8 40 -40 79 -42 79 -3 0 22 -59 85 -80 85 -4 0 -14 2 -22 4 -7 2 -35 -1
-63 -6z"/>
<path d="M3685 2637 c-37 -14 -75 -51 -75 -73 0 -28 27 -46 50 -34 11 6 20 15
20 20 0 21 63 10 86 -15 17 -19 33 -25 64 -25 28 0 40 4 40 14 0 26 -12 46
-26 46 -8 0 -24 15 -35 34 -27 46 -65 56 -124 33z"/>
<path d="M3286 2561 c-23 -26 -14 -53 24 -70 28 -12 33 -11 45 5 17 22 19 54
4 54 -5 0 -8 4 -5 9 3 5 -4 11 -17 15 -31 8 -32 8 -51 -13z"/>
<path d="M3721 2466 c-7 -8 -10 -26 -7 -41 6 -32 5 -31 32 -39 28 -9 57 16 60
52 2 23 -2 31 -19 36 -35 9 -54 7 -66 -8z"/>
<path d="M3388 2366 c-40 -30 -2 -96 56 -96 39 0 69 26 56 50 -10 19 -70 60
-86 60 -5 0 -17 -7 -26 -14z"/>
<path d="M3248 2143 c-25 -6 -30 -35 -14 -74 26 -61 91 -87 214 -87 73 0 88 3
108 22 29 27 34 65 12 79 -13 8 -30 8 -65 -2 -86 -24 -193 -2 -193 39 0 10 -7
21 -16 24 -17 6 -19 6 -46 -1z"/>
<path d="M1985 2567 c-54 -13 -95 -28 -95 -36 1 -3 9 -16 19 -28 19 -22 27
-23 112 -5 34 6 51 6 64 -4 25 -18 55 -1 48 27 -12 43 -74 63 -148 46z"/>
<path d="M2346 2512 c-25 -48 -7 -60 97 -63 75 -3 90 -1 98 14 14 24 -9 54
-45 61 -17 3 -54 8 -83 12 -50 6 -52 5 -67 -24z"/>
<path d="M2423 2364 c-32 -16 -34 -34 -7 -61 39 -40 105 17 68 58 -20 23 -21
23 -61 3z"/>
<path d="M1951 2359 c-15 -6 -21 -14 -17 -25 3 -9 6 -24 6 -34 0 -24 34 -31
59 -13 21 14 30 73 12 73 -5 0 -15 2 -23 4 -7 3 -24 1 -37 -5z"/>
<path d="M2128 2163 c-16 -8 -28 -23 -28 -33 0 -26 21 -70 31 -65 4 3 10 1 14
-5 11 -18 61 -11 83 13 24 25 30 66 10 68 -7 1 -18 2 -24 3 -6 0 -18 9 -28 19
-20 20 -22 20 -58 0z"/>
<path d="M1950 1853 c-33 -13 -41 -59 -12 -70 9 -4 31 -20 47 -35 17 -15 38
-28 48 -28 10 0 28 -5 40 -12 27 -14 162 -15 179 -1 7 6 34 13 59 17 48 7 59
20 59 72 0 24 -49 52 -60 34 -20 -32 -199 -65 -215 -39 -4 5 -12 8 -18 6 -7
-2 -27 11 -45 29 -32 33 -50 39 -82 27z"/>
<path d="M2895 3683 c-27 -8 -58 -23 -67 -34 -22 -23 -23 -65 -2 -73 24 -9 54
-7 54 4 0 12 65 30 111 30 22 0 42 7 52 18 19 21 22 48 7 57 -21 13 -107 12
-155 -2z"/>
<path d="M3345 3670 c-84 -21 -102 -43 -72 -84 11 -15 19 -16 57 -7 36 8 48 7
61 -5 40 -36 70 21 38 73 -21 34 -32 37 -84 23z"/>
<path d="M2893 3513 c-51 -10 -13 -99 38 -91 12 2 31 16 43 31 l21 29 -24 19
c-23 19 -34 20 -78 12z"/>
<path d="M3327 3485 c-26 -19 -21 -59 8 -75 23 -12 28 -12 47 8 43 43 -7 102
-55 67z"/>
<path d="M3068 3336 c-9 -7 -19 -24 -22 -39 -4 -22 0 -28 20 -33 13 -3 24 -10
24 -15 0 -16 47 -10 68 9 29 24 39 70 18 78 -9 3 -23 1 -31 -6 -11 -10 -18 -9
-30 4 -20 19 -25 19 -47 2z"/>
<path d="M2881 3141 c-18 -25 -18 -27 15 -68 22 -28 33 -34 58 -32 17 2 37 0
44 -5 20 -12 105 -15 125 -5 10 6 17 21 17 38 0 23 -6 31 -27 38 -16 5 -39 7
-53 3 -14 -4 -36 -3 -49 2 -13 5 -32 6 -42 3 -13 -4 -19 -1 -19 9 0 14 -28 36
-47 36 -5 0 -15 -9 -22 -19z"/>
<path d="M1277 1227 c-3 -7 -27 -21 -54 -31 -26 -10 -61 -23 -78 -31 -16 -7
-61 -23 -100 -35 -108 -34 -157 -61 -167 -92 -14 -42 14 -67 75 -66 26 1 50 5
53 10 3 4 11 8 17 8 7 0 -6 -16 -28 -35 -22 -20 -68 -60 -102 -91 -95 -85
-117 -104 -125 -104 -4 0 -38 -28 -75 -61 -38 -34 -78 -66 -90 -72 -13 -6 -23
-15 -23 -20 0 -10 -81 -87 -91 -87 -6 0 -34 -22 -74 -58 -11 -10 -47 -40 -80
-67 -72 -58 -165 -135 -184 -153 -8 -7 -24 -20 -37 -29 -26 -17 -33 -64 -11
-80 27 -22 45 -20 73 6 52 47 180 155 209 176 38 27 148 119 280 235 61 53
130 111 155 130 25 19 86 68 135 110 114 97 110 95 110 52 0 -34 3 -38 37 -49
42 -14 68 -8 68 13 0 8 5 14 10 14 6 0 10 6 10 14 0 16 24 71 48 108 36 57
112 192 112 200 0 4 4 8 9 8 13 0 21 39 12 63 -9 25 -85 37 -94 14z"/>
</g>
</svg>
