<?xml version="1.0" standalone="no"?>
<!DOCTYPE svg PUBLIC "-//W3C//DTD SVG 20010904//EN"
 "http://www.w3.org/TR/2001/REC-SVG-20010904/DTD/svg10.dtd">
<svg version="1.0" xmlns="http://www.w3.org/2000/svg"
 width="423.000000pt" height="497.000000pt" viewBox="0 0 423.000000 497.000000"
 preserveAspectRatio="xMidYMid meet">
<metadata>
Created by potrace 1.16, written by Peter Selinger 2001-2019
</metadata>
<g transform="translate(0.000000,497.000000) scale(0.100000,-0.100000)"
fill="#000000" stroke="none">
<path d="M2414 4937 c-10 -6 -43 -9 -74 -8 -58 2 -244 -32 -264 -48 -6 -5 -27
-12 -46 -16 -19 -4 -39 -11 -45 -15 -5 -5 -21 -10 -35 -12 -14 -1 -29 -6 -35
-11 -5 -4 -38 -22 -72 -40 -35 -17 -106 -66 -159 -107 -52 -41 -113 -88 -134
-105 -54 -42 -160 -179 -201 -259 -19 -37 -43 -84 -53 -104 -41 -80 -120 -314
-130 -387 -4 -27 -11 -63 -16 -80 -16 -54 -24 -176 -25 -400 -3 -344 -7 -455
-16 -461 -5 -3 -9 -15 -9 -27 0 -29 -32 -120 -49 -141 -8 -9 -11 -16 -7 -16 6
0 -12 -30 -57 -93 -16 -22 -16 -29 -5 -49 19 -33 47 -51 82 -54 17 -1 56 -9
86 -18 172 -52 344 -65 398 -29 13 8 38 16 55 18 89 11 117 17 135 33 12 9 34
27 49 39 15 12 39 32 53 44 14 12 35 31 46 41 l22 19 1 -65 c1 -59 -1 -66 -19
-66 -11 0 -43 -9 -72 -20 -29 -11 -61 -20 -70 -20 -10 0 -18 -4 -18 -8 0 -10
-64 -40 -98 -47 -13 -2 -43 -15 -65 -28 -97 -57 -159 -87 -177 -87 -11 0 -20
-4 -20 -10 0 -5 -8 -10 -18 -10 -9 0 -34 -9 -55 -20 -20 -11 -44 -20 -52 -20
-8 0 -15 -4 -15 -9 0 -5 -15 -14 -32 -21 -18 -7 -65 -28 -104 -46 -39 -19 -74
-34 -79 -34 -5 0 -36 -28 -70 -62 -33 -35 -87 -86 -120 -115 -48 -41 -70 -70
-104 -139 -24 -48 -52 -95 -62 -105 -10 -10 -27 -36 -38 -57 -11 -21 -27 -44
-35 -51 -9 -8 -16 -22 -16 -32 0 -11 -4 -19 -9 -19 -5 0 -12 -12 -16 -27 -3
-16 -26 -71 -49 -123 -24 -52 -56 -147 -71 -210 -15 -63 -39 -158 -53 -210
-13 -52 -26 -125 -27 -161 -3 -58 -14 -133 -31 -221 -3 -16 -14 -30 -26 -34
-19 -6 -20 -11 -14 -61 9 -77 20 -93 61 -93 39 0 49 13 58 75 3 22 13 85 21
140 8 54 14 102 14 105 -7 31 30 209 94 455 7 28 13 52 14 55 6 32 22 74 49
129 18 36 36 77 40 90 4 14 31 63 59 109 28 47 66 112 84 146 19 33 40 68 48
77 8 8 14 20 14 26 0 13 231 236 237 229 3 -3 19 6 35 19 16 14 35 25 42 25 6
0 37 13 68 29 32 17 76 36 100 43 24 6 77 29 118 50 41 21 82 38 92 38 9 0 23
6 30 13 39 37 256 127 308 127 31 0 31 3 15 -125 -2 -16 4 -63 13 -103 20 -91
37 -110 158 -178 63 -35 73 -38 143 -36 99 2 151 11 178 28 19 12 46 20 76 23
15 2 80 77 93 109 22 50 17 228 -7 274 -18 34 -8 38 34 15 23 -14 71 -30 107
-36 73 -14 233 -66 267 -87 12 -8 28 -14 35 -14 7 0 36 -11 63 -25 28 -13 55
-25 60 -25 6 0 24 -14 42 -30 18 -17 35 -30 38 -30 27 0 105 -135 140 -240 10
-30 26 -75 35 -100 10 -25 23 -70 30 -100 6 -30 22 -86 35 -125 13 -38 33
-104 45 -145 12 -41 25 -86 30 -100 5 -14 12 -45 16 -70 3 -25 19 -72 34 -105
57 -125 89 -223 106 -325 7 -47 22 -114 33 -150 46 -154 50 -176 52 -292 1
-54 6 -98 11 -98 5 0 6 -4 3 -10 -11 -17 40 -34 64 -21 18 10 21 21 21 70 0
31 -4 82 -10 112 -5 30 -12 79 -15 109 -3 30 -19 96 -35 145 -23 73 -58 209
-74 287 -3 14 -11 37 -27 76 -5 13 -9 31 -9 41 0 19 -25 76 -45 101 -14 18
-29 69 -60 208 -13 59 -35 148 -49 197 -14 50 -27 102 -29 115 -4 27 -5 31
-31 105 -10 28 -21 64 -26 80 -15 50 -35 102 -46 116 -6 8 -22 39 -36 69 -14
30 -37 68 -52 83 -14 15 -26 31 -26 35 0 4 -25 23 -56 42 -30 19 -61 41 -69
48 -7 6 -20 12 -29 12 -8 0 -17 4 -20 9 -3 5 -18 12 -33 16 -16 3 -35 13 -44
21 -9 8 -49 24 -90 35 -41 11 -88 26 -105 34 -16 8 -50 17 -75 21 -24 4 -49
11 -55 15 -6 5 -13 7 -16 4 -7 -7 -68 15 -68 25 0 9 -49 24 -67 21 -10 -1 -12
20 -9 86 6 148 12 169 72 242 52 63 134 210 134 238 0 7 13 48 29 91 17 42 32
91 35 107 2 17 10 55 16 85 9 41 17 466 10 563 0 4 -8 15 -18 25 -22 22 -62
90 -62 105 0 14 -50 117 -65 133 -16 17 -53 10 -75 -14 -11 -12 -20 -25 -20
-30 0 -5 -11 -19 -25 -32 -14 -13 -25 -21 -25 -17 0 4 -12 2 -26 -3 l-25 -10
3 71 c1 39 5 72 9 75 11 6 -8 76 -23 85 -24 16 -47 9 -67 -20 -12 -16 -21 -33
-21 -39 0 -15 -147 -155 -183 -174 -46 -25 -48 -23 -22 30 39 81 77 198 73
228 -2 21 -9 30 -26 32 -30 5 -48 -11 -56 -50 -8 -39 -23 -58 -48 -58 -15 0
-17 -3 -9 -19 16 -29 -54 -115 -122 -150 -15 -8 -27 -18 -27 -23 0 -5 -4 -6
-10 -3 -5 3 -10 2 -10 -4 0 -5 -24 -22 -52 -38 -74 -41 -88 -48 -133 -69 -22
-10 -53 -27 -69 -38 -23 -15 -32 -17 -47 -8 -12 8 -19 8 -19 2 0 -5 -6 -10
-13 -10 -31 0 -66 -159 -65 -295 0 -27 0 -95 0 -150 -2 -187 22 -314 82 -433
36 -71 164 -213 223 -247 25 -15 31 -24 27 -38 -4 -11 0 -23 7 -29 9 -6 3 -7
-19 -3 -27 6 -37 2 -66 -27 -53 -52 -110 -102 -121 -105 -198 -48 -307 -57
-398 -32 -23 7 -49 13 -57 14 -26 3 -100 28 -100 33 0 3 9 26 21 51 32 70 36
81 53 147 30 112 33 186 26 574 -3 142 12 292 42 430 26 123 82 294 117 360
66 124 89 163 124 209 45 59 151 164 207 206 19 14 61 45 92 69 33 24 96 57
145 76 49 18 102 38 118 45 17 7 59 20 95 29 117 29 370 39 370 15 0 -3 11 -4
25 -1 18 3 58 -12 131 -49 92 -46 114 -63 181 -136 93 -100 175 -247 198 -353
7 -35 28 -108 41 -149 8 -23 17 -66 20 -95 3 -28 8 -54 10 -58 4 -6 15 -104
29 -258 4 -41 17 -162 20 -185 0 -5 4 -26 8 -45 3 -19 9 -69 11 -110 3 -41 11
-102 17 -135 6 -33 12 -72 13 -86 2 -14 6 -30 9 -36 4 -6 8 -26 11 -46 2 -20
7 -41 10 -46 4 -5 8 -32 10 -58 2 -27 8 -59 15 -70 6 -12 11 -28 11 -35 1 -7
11 -35 24 -63 13 -27 22 -53 19 -57 -4 -8 -134 -3 -213 8 -25 3 -74 8 -109 9
-91 5 -213 43 -291 91 -53 33 -74 37 -97 16 -17 -14 -20 -25 -15 -51 6 -27 14
-35 46 -46 21 -8 42 -18 45 -23 11 -19 185 -74 227 -72 27 0 48 -5 58 -15 9
-9 16 -13 16 -8 0 4 26 6 58 4 72 -5 356 -4 400 2 37 4 47 12 56 44 6 17 -2
32 -34 65 -38 39 -106 156 -97 165 2 2 -5 34 -15 71 -11 37 -21 74 -22 82 -2
8 -11 51 -21 95 -11 44 -18 84 -16 89 1 5 -2 30 -8 55 -6 25 -13 78 -16 116
-3 39 -8 79 -11 90 -6 30 -14 94 -19 155 -12 145 -22 237 -31 285 -4 17 -8 50
-10 75 -4 57 -7 69 -38 162 -14 42 -28 90 -30 105 -6 53 -18 93 -32 104 -8 6
-14 18 -14 25 0 8 -5 14 -10 14 -6 0 -9 3 -8 8 3 12 -13 55 -32 82 -9 14 -29
44 -44 67 -34 51 -175 193 -193 193 -7 0 -13 4 -13 10 0 8 -93 57 -125 66 -24
7 -111 37 -125 44 -8 4 -24 6 -35 4 -11 -2 -36 1 -56 5 -22 5 -44 4 -55 -2z
m-31 -840 c-4 -42 -1 -57 15 -76 19 -24 51 -28 139 -17 26 3 62 33 72 59 6 15
14 4 39 -47 18 -36 36 -66 41 -66 5 0 17 -14 25 -32 13 -26 16 -70 17 -237 0
-209 -2 -238 -21 -301 -5 -19 -10 -49 -10 -65 0 -17 -4 -35 -8 -40 -5 -6 -14
-23 -20 -40 -88 -248 -137 -319 -257 -378 -82 -40 -223 -76 -281 -72 -45 3
-197 72 -254 114 -31 24 -54 47 -133 134 -31 36 -81 134 -96 192 -13 52 -24
173 -23 255 1 36 2 118 2 182 l2 117 51 30 c29 17 67 44 85 61 18 17 41 32 52
33 11 1 20 5 20 9 0 4 6 8 14 8 8 0 16 4 18 8 2 4 34 25 72 46 63 34 71 36 82
21 16 -22 76 -30 105 -14 13 7 33 13 44 14 47 2 185 108 185 142 0 7 6 13 14
13 11 0 13 -12 9 -53z m48 -1389 c-12 -53 -2 -262 18 -413 18 -131 -2 -181
-80 -211 -113 -41 -208 -44 -275 -7 -111 61 -136 117 -115 250 6 43 14 92 16
108 2 17 7 50 10 75 11 85 11 115 -2 158 -10 34 -10 42 0 42 7 0 18 -5 24 -11
32 -32 263 -16 356 25 50 22 56 20 48 -16z"/>
<path d="M2350 3822 c-63 -32 -75 -42 -77 -65 -2 -26 19 -57 38 -57 6 0 21 11
35 25 14 14 33 25 44 25 10 0 21 4 25 9 6 11 61 6 117 -11 34 -10 40 -9 58 12
22 25 26 40 10 40 -5 0 -10 6 -10 14 0 15 -27 27 -70 31 -14 2 -41 5 -60 9
-28 5 -49 -1 -110 -32z"/>
<path d="M1887 3816 c-75 -42 -77 -45 -83 -100 -4 -34 -2 -46 8 -47 7 0 20 -2
29 -4 9 -2 23 11 34 31 24 46 60 68 93 58 15 -4 34 -8 42 -10 8 -2 31 -11 53
-20 37 -17 39 -17 58 3 17 17 18 23 8 46 -7 15 -20 27 -29 27 -9 0 -21 5 -26
10 -8 8 -120 43 -127 39 -1 -1 -28 -16 -60 -33z"/>
<path d="M2421 3651 c-49 -38 11 -92 64 -57 30 20 31 30 5 56 -25 25 -38 25
-69 1z"/>
<path d="M1962 3638 c-20 -20 -14 -52 15 -70 26 -16 28 -15 49 9 18 21 20 30
11 49 -11 26 -54 33 -75 12z"/>
<path d="M2149 3412 c-37 -19 -53 -65 -25 -75 23 -9 117 9 127 24 16 25 10 49
-12 49 -11 0 -28 4 -38 10 -13 6 -28 4 -52 -8z"/>
<path d="M1990 3121 c-17 -5 -26 -15 -28 -33 -3 -22 3 -30 35 -46 50 -25 80
-31 183 -34 146 -3 210 17 210 68 0 47 -47 60 -120 33 -23 -8 -189 2 -235 14
-11 3 -31 2 -45 -2z"/>
<path d="M1212 1282 c-13 -13 -18 -37 -20 -92 -3 -87 -19 -200 -31 -215 -9
-10 -17 -42 -52 -198 -11 -49 -26 -98 -34 -110 -18 -28 -65 -155 -65 -176 0
-9 -16 -47 -36 -86 -42 -83 -49 -142 -19 -159 11 -6 23 -15 26 -19 13 -18 55
40 68 93 8 29 24 78 37 106 13 29 25 64 27 78 1 14 6 28 10 32 4 4 7 14 7 21
0 8 13 45 29 81 16 37 35 98 41 135 7 37 14 67 15 65 3 -3 7 -93 20 -407 3
-88 19 -114 68 -109 28 3 33 7 37 38 3 19 2 51 -2 70 -4 19 -9 109 -12 200 -3
91 -8 185 -11 210 -5 42 -15 273 -17 381 -1 43 -4 48 -35 63 -31 15 -34 15
-51 -2z"/>
<path d="M2903 1232 c-22 -15 -25 -70 -28 -471 -2 -362 -1 -418 13 -434 24
-27 55 -21 76 14 16 28 18 44 11 138 -13 189 -9 431 6 431 10 0 85 -130 99
-173 15 -48 71 -149 108 -193 15 -19 50 -60 77 -93 28 -32 64 -85 80 -117 54
-107 83 -129 116 -89 12 14 15 30 11 55 -5 33 -66 138 -108 187 -11 12 -30 36
-44 54 -14 17 -32 40 -40 49 -8 9 -19 24 -25 32 -5 8 -22 33 -36 54 -14 21
-36 66 -50 99 -13 33 -50 108 -81 167 -32 58 -58 111 -58 117 0 6 -9 38 -21
71 -11 33 -19 70 -17 82 3 20 -1 23 -38 25 -22 0 -45 -2 -51 -5z"/>
</g>
</svg>
