<?xml version="1.0" standalone="no"?>
<!DOCTYPE svg PUBLIC "-//W3C//DTD SVG 20010904//EN"
 "http://www.w3.org/TR/2001/REC-SVG-20010904/DTD/svg10.dtd">
<svg version="1.0" xmlns="http://www.w3.org/2000/svg"
 width="423.000000pt" height="345.000000pt" viewBox="0 0 423.000000 345.000000"
 preserveAspectRatio="xMidYMid meet">
<metadata>
Created by potrace 1.16, written by Peter Selinger 2001-2019
</metadata>
<g transform="translate(0.000000,345.000000) scale(0.100000,-0.100000)"
fill="#000000" stroke="none">
<path d="M1889 3446 c-3 -3 -29 -8 -59 -11 -30 -4 -59 -9 -65 -13 -5 -3 -14
-7 -20 -8 -171 -26 -277 -73 -366 -163 -36 -36 -79 -77 -95 -91 -16 -14 -65
-69 -108 -123 -43 -55 -85 -107 -94 -117 -35 -39 -46 -54 -64 -92 -11 -22 -36
-65 -56 -96 -51 -79 -58 -94 -76 -155 -9 -30 -24 -65 -34 -78 -18 -23 -42 -89
-77 -214 -49 -172 -42 -160 -83 -161 -20 0 -65 -2 -99 -4 l-62 -4 -27 -53
c-14 -29 -24 -59 -21 -67 3 -8 3 -17 -1 -20 -6 -7 -7 -12 -17 -96 -8 -60 -7
-114 1 -145 12 -50 48 -165 66 -211 10 -28 21 -64 23 -80 6 -35 16 -91 21
-122 3 -13 9 -29 14 -35 6 -7 31 -38 56 -69 25 -32 54 -60 65 -63 10 -4 19
-11 19 -16 0 -5 3 -8 8 -8 41 7 49 -3 126 -163 69 -143 125 -243 156 -281 6
-7 31 -41 57 -75 42 -59 175 -202 187 -202 2 0 48 -29 102 -65 54 -36 104 -65
111 -65 7 0 46 -12 86 -27 61 -22 91 -26 198 -29 69 -1 145 2 170 7 24 4 76
13 115 19 39 6 106 27 150 46 43 19 84 34 91 34 7 0 13 4 13 9 0 5 17 16 38
25 68 30 106 55 187 128 122 111 249 244 323 338 36 47 73 90 81 96 8 6 21 25
30 42 22 43 107 183 125 206 9 11 23 17 33 14 10 -3 24 1 31 9 7 7 22 13 32
13 11 0 25 9 32 20 7 11 18 20 25 20 7 0 13 7 13 15 0 8 4 15 9 15 11 0 106
86 107 97 0 4 6 21 12 36 7 16 12 34 12 40 0 7 9 27 20 45 25 41 41 114 45
202 1 36 10 97 19 135 42 176 43 184 32 235 -15 62 -66 110 -118 110 -15 0
-29 4 -33 10 -3 5 -11 7 -18 4 -9 -3 -13 34 -15 149 -1 85 -7 187 -12 228 -6
41 -13 99 -16 129 -4 30 -10 60 -14 65 -4 6 -17 47 -29 92 -13 53 -35 103 -59
139 -20 31 -46 71 -58 90 -31 52 -94 112 -146 141 -27 14 -48 30 -48 35 0 4
-7 8 -15 8 -8 0 -15 4 -15 8 0 5 -19 15 -42 22 -24 7 -52 16 -63 20 -60 24
-116 39 -160 44 -27 3 -63 7 -80 10 -43 6 -141 17 -184 21 -52 6 -192 6 -289
1 -82 -4 -82 -4 -97 23 -12 23 -21 28 -58 29 -24 1 -46 0 -48 -2z m40 -126
l30 -31 128 6 c70 4 139 8 153 9 14 2 59 0 100 -5 41 -5 82 -9 90 -10 8 -1 32
-5 52 -10 21 -6 66 -12 100 -14 35 -2 79 -9 98 -15 19 -6 45 -13 56 -16 12 -2
38 -11 58 -19 31 -13 35 -18 26 -35 -6 -10 -11 -32 -11 -47 -1 -15 -6 -39 -13
-52 -13 -30 -185 -205 -241 -246 -22 -17 -42 -33 -45 -36 -3 -3 -21 -14 -40
-24 -18 -10 -40 -24 -48 -31 -7 -8 -20 -14 -28 -14 -8 0 -14 -4 -14 -9 0 -5
-37 -24 -82 -41 -46 -17 -98 -40 -116 -51 -71 -41 -167 -58 -309 -55 -135 3
-154 8 -197 51 -23 24 -21 29 29 54 25 12 45 26 45 30 0 3 13 14 28 23 15 9
63 51 105 92 91 89 104 121 62 154 -30 24 -38 20 -64 -31 -15 -28 -62 -73
-168 -160 -72 -59 -128 -93 -170 -102 -18 -3 -33 -10 -33 -14 0 -9 -131 -80
-164 -88 -11 -4 -47 -7 -79 -7 -31 -1 -57 -4 -57 -7 0 -23 -156 3 -183 30 -5
5 -16 7 -23 4 -22 -8 -17 6 26 68 22 32 40 61 40 65 0 3 14 27 32 52 17 26 41
61 52 77 11 17 57 74 103 127 46 53 83 102 83 107 0 6 4 11 10 11 5 0 26 16
46 35 32 31 61 53 154 116 14 9 68 27 120 39 52 12 118 28 145 35 73 19 80 18
114 -15z m1074 -243 c29 -29 59 -66 67 -82 8 -17 21 -36 28 -43 6 -7 12 -17
12 -22 0 -5 7 -16 16 -25 20 -20 69 -163 77 -225 4 -25 10 -72 16 -105 14 -95
0 -579 -18 -628 -6 -16 -11 -41 -11 -56 0 -15 -5 -41 -10 -57 -6 -16 -14 -58
-19 -94 -5 -36 -21 -103 -35 -150 -15 -47 -29 -94 -31 -104 -14 -61 -26 -90
-99 -246 -66 -140 -176 -304 -243 -364 -18 -16 -33 -34 -33 -41 0 -8 -3 -15
-7 -17 -5 -2 -25 -22 -45 -46 -21 -23 -38 -40 -38 -36 0 3 -19 -14 -43 -38
-56 -56 -166 -158 -197 -182 -37 -30 -220 -120 -280 -139 -30 -9 -80 -19 -110
-23 -30 -3 -62 -8 -70 -11 -8 -3 -69 -6 -135 -8 -150 -4 -232 19 -360 100 -22
14 -48 28 -57 31 -10 4 -18 10 -18 14 0 5 -8 11 -18 14 -38 12 -158 142 -185
198 -10 21 -26 42 -35 47 -10 5 -24 22 -32 38 -8 15 -28 46 -46 68 -33 43 -67
104 -79 145 -4 14 -29 68 -55 121 -60 118 -86 196 -107 319 -18 103 -26 391
-13 475 4 28 11 79 14 115 4 35 11 70 17 76 5 7 9 16 7 20 -8 34 104 372 129
387 5 3 54 -5 108 -19 105 -27 88 -27 253 8 28 6 52 15 52 20 0 4 7 8 16 8 9
0 38 11 66 25 27 14 56 25 64 25 8 0 14 4 14 9 0 5 8 11 18 13 12 3 35 -9 63
-34 75 -66 94 -72 258 -72 80 0 163 3 185 8 52 10 251 88 308 120 26 14 53 26
62 26 8 0 16 4 18 8 2 4 30 25 63 46 70 43 138 94 180 135 88 85 163 169 169
189 4 12 11 22 16 22 5 0 12 10 16 23 11 35 35 67 51 67 8 0 38 -24 66 -53z
m407 -1004 c3 -3 4 -45 4 -94 -1 -64 -6 -95 -18 -114 -11 -17 -18 -55 -22
-118 -2 -50 -10 -119 -16 -152 -16 -85 -68 -185 -115 -220 -21 -16 -44 -35
-51 -42 -13 -13 -52 -18 -52 -7 0 3 7 18 15 32 8 15 23 61 34 102 11 41 29
107 41 145 11 39 23 99 26 135 5 55 22 134 42 190 7 20 9 41 11 105 l1 55 48
-7 c26 -3 49 -8 52 -10z m-2702 -58 c1 -1 -5 -53 -14 -116 -12 -87 -14 -142
-8 -234 4 -66 9 -140 10 -165 1 -25 13 -90 27 -145 14 -55 24 -101 23 -102 -1
-2 -17 17 -34 41 -34 48 -57 107 -67 176 -3 25 -10 54 -14 65 -5 11 -14 40
-21 65 -6 25 -18 60 -26 79 -18 40 -34 156 -27 197 19 128 24 142 61 157 32
13 39 13 62 -1 14 -9 26 -17 28 -17z"/>
</g>
</svg>
