<?xml version="1.0" standalone="no"?>
<!DOCTYPE svg PUBLIC "-//W3C//DTD SVG 20010904//EN"
 "http://www.w3.org/TR/2001/REC-SVG-20010904/DTD/svg10.dtd">
<svg version="1.0" xmlns="http://www.w3.org/2000/svg"
 width="485.000000pt" height="459.000000pt" viewBox="0 0 485.000000 459.000000"
 preserveAspectRatio="xMidYMid meet">
<metadata>
Created by potrace 1.16, written by Peter Selinger 2001-2019
</metadata>
<g transform="translate(0.000000,459.000000) scale(0.100000,-0.100000)"
fill="#000000" stroke="none">
<path d="M3888 4355 c-2 -3 -28 -9 -57 -15 -29 -5 -75 -21 -103 -35 -27 -14
-56 -25 -64 -25 -8 0 -14 -6 -14 -13 0 -7 -22 -37 -49 -67 -71 -79 -72 -80
-66 -80 3 0 -6 -22 -20 -48 -44 -84 -59 -157 -58 -277 1 -60 4 -117 6 -125 3
-8 13 -40 21 -70 32 -117 152 -207 267 -202 13 0 16 -16 18 -102 l2 -102 -138
-24 c-76 -14 -160 -25 -188 -26 -27 -1 -56 -3 -63 -3 -7 -1 -18 -13 -24 -27
-9 -20 -9 -27 1 -34 8 -5 10 -13 5 -21 -4 -8 -7 -28 -5 -46 1 -17 -3 -41 -9
-53 -15 -28 -21 -53 -27 -115 -2 -27 -11 -70 -19 -95 -16 -51 -48 -273 -53
-367 -1 -6 -7 -18 -14 -25 -7 -7 -18 -24 -25 -38 -7 -14 -25 -45 -41 -70 -31
-48 -113 -188 -120 -205 -2 -5 -7 -12 -10 -15 -9 -7 -104 -147 -116 -170 -5
-11 -13 -20 -17 -20 -12 0 -38 -57 -38 -83 0 -13 6 -24 13 -25 6 -1 23 -4 37
-7 22 -5 27 -1 44 37 32 71 112 197 139 216 9 7 17 18 17 24 0 13 85 156 163
273 54 81 59 95 58 139 -3 90 34 336 50 336 4 0 8 -15 8 -32 0 -102 10 -387
15 -413 4 -16 9 -66 12 -110 3 -44 9 -104 15 -134 5 -29 7 -57 4 -61 -4 -7 8
-176 20 -267 5 -38 38 -78 56 -67 6 3 8 -5 5 -18 -3 -12 -7 -56 -11 -95 -3
-40 -7 -106 -10 -145 -9 -114 -15 -158 -30 -226 -8 -35 -15 -75 -15 -88 0 -14
-11 -60 -25 -101 l-26 -76 41 -121 c41 -120 69 -213 76 -251 13 -77 25 -135
34 -165 12 -43 13 -40 -4 -40 -8 0 -16 -5 -18 -10 -2 -6 -14 -12 -28 -14 -14
-1 -34 -7 -45 -13 -11 -6 -38 -16 -60 -23 -22 -7 -44 -16 -50 -20 -5 -5 -26
-9 -45 -11 -37 -3 -59 -20 -80 -59 -11 -21 -10 -26 10 -42 29 -23 51 -23 84 3
14 11 26 18 26 14 0 -4 7 1 15 9 9 9 35 21 58 27 23 6 47 14 52 19 9 6 40 16
132 39 18 5 35 5 41 -1 10 -10 13 -8 37 39 13 25 13 29 -10 53 -23 24 -36 63
-56 165 -5 28 -19 81 -31 118 -11 37 -18 70 -14 74 3 3 2 11 -3 17 -19 24 -63
191 -58 220 3 17 12 72 21 123 8 51 20 102 26 114 13 23 19 80 20 174 1 76 20
267 28 280 7 10 8 16 11 35 0 6 9 10 19 10 14 0 15 2 2 10 -12 7 -8 10 15 11
17 0 39 3 50 5 11 3 34 6 50 9 17 2 50 8 75 14 25 6 61 11 81 11 20 0 72 11
115 25 43 14 93 25 110 25 l31 0 -13 -62 c-7 -35 -25 -126 -39 -203 -38 -209
-47 -249 -54 -260 -4 -5 -8 -23 -10 -39 -1 -16 -11 -54 -21 -85 -10 -32 -14
-62 -9 -71 6 -12 17 -51 32 -115 2 -5 5 -14 8 -20 9 -15 47 -136 54 -174 4
-19 16 -50 26 -68 10 -18 23 -63 29 -99 7 -43 29 -104 60 -168 26 -56 47 -102
45 -104 -1 -1 -27 -7 -56 -12 -111 -20 -153 -30 -163 -40 -6 -6 -25 -10 -43
-10 -42 0 -83 -38 -72 -68 11 -30 55 -39 93 -19 48 25 229 67 305 71 49 2 61
39 31 104 -12 26 -26 54 -31 62 -5 8 -16 31 -25 50 -8 19 -24 53 -36 74 -12
22 -27 69 -35 105 -7 36 -20 75 -28 87 -8 13 -17 37 -20 56 -11 68 -28 134
-41 153 -7 11 -14 31 -16 45 -2 14 -6 27 -10 30 -17 13 -15 137 3 195 15 47
54 262 61 343 1 6 5 12 10 12 5 0 7 4 4 8 -4 8 21 111 41 162 10 28 10 37 -1
63 -5 9 -4 23 2 30 6 7 8 65 5 147 -8 191 -1 836 9 972 l2 27 24 -24 c13 -14
37 -44 52 -68 15 -24 41 -58 58 -75 17 -17 33 -39 36 -49 3 -10 32 -46 65 -80
74 -78 80 -101 54 -223 -7 -30 -17 -84 -23 -120 -13 -74 -24 -125 -40 -190 -6
-25 -11 -52 -11 -60 0 -13 -5 -41 -25 -148 -3 -14 -9 -20 -17 -16 -9 5 -9 4 0
-6 7 -8 8 -22 2 -43 -14 -50 -11 -67 15 -77 38 -14 63 -2 70 33 3 18 9 43 12
57 3 14 7 43 8 65 4 43 11 90 27 170 5 28 11 59 13 70 2 11 11 48 20 81 9 34
16 72 15 85 0 25 0 27 19 94 6 23 14 60 17 84 3 24 8 48 11 53 8 13 -34 89
-67 121 -16 15 -29 32 -29 39 0 6 -3 9 -6 5 -6 -6 -64 52 -64 64 0 3 -20 28
-45 55 -24 27 -50 60 -57 74 -7 13 -19 31 -26 40 -32 36 -63 94 -58 106 6 16
-19 44 -40 44 -9 0 -14 11 -14 29 0 16 -6 33 -12 39 -15 12 -108 20 -108 10 0
-5 -25 -8 -55 -8 -34 0 -55 4 -55 11 0 7 -7 8 -17 4 -10 -4 -48 -9 -84 -11
-58 -4 -67 -3 -70 13 -7 32 2 183 11 183 5 0 21 5 37 12 15 6 34 12 42 14 14
3 61 44 117 101 64 66 137 263 149 398 9 106 -18 220 -63 268 -12 13 -22 28
-22 33 0 30 -133 114 -180 114 -11 0 -22 5 -25 10 -6 10 -28 13 -37 5z m32
-94 c0 -7 40 -20 65 -21 19 0 139 -140 120 -140 -3 0 2 -11 10 -24 24 -36 26
-177 4 -241 -10 -27 -21 -66 -24 -85 -19 -94 -131 -233 -205 -256 -34 -10
-165 -10 -205 0 -18 5 -60 41 -92 80 -6 7 -21 42 -32 75 -24 73 -32 243 -13
278 7 12 12 30 12 41 0 35 63 147 106 187 87 82 107 94 162 96 29 2 52 6 52
11 0 4 9 8 20 8 11 0 20 -4 20 -9z m82 -1155 c34 -10 58 -11 101 -3 32 6 60 7
64 3 8 -8 7 -522 -1 -731 -3 -66 -5 -145 -4 -175 1 -30 2 -116 3 -190 l0 -135
-50 -8 c-27 -5 -75 -17 -105 -28 -30 -10 -77 -21 -105 -24 -74 -7 -109 -13
-152 -24 -64 -16 -200 -24 -207 -12 -4 6 -9 52 -11 103 -2 51 -4 93 -5 93 -4
0 -12 82 -26 270 -2 33 -9 84 -15 113 -6 29 -11 96 -11 150 0 114 -5 333 -11
447 -4 84 0 108 20 112 20 4 145 22 197 28 27 3 53 8 58 11 4 3 24 0 43 -7 28
-10 39 -10 59 0 13 7 29 10 35 7 6 -4 11 -2 11 3 0 15 58 14 112 -3z"/>
<path d="M2140 3871 c-14 -3 -36 -14 -50 -23 -15 -10 -56 -19 -99 -22 -77 -6
-95 -14 -144 -59 -37 -36 -49 -70 -36 -104 6 -16 12 -41 15 -57 2 -15 6 -35 8
-45 8 -25 -4 -37 -65 -65 -31 -14 -62 -32 -69 -41 -7 -8 -18 -15 -24 -15 -21
0 -81 -96 -87 -140 -3 -20 11 -70 20 -70 4 0 14 -12 21 -26 15 -27 70 -60 114
-68 61 -11 66 -15 66 -57 0 -104 30 -149 110 -164 47 -8 78 9 152 84 53 55 63
61 93 58 19 -2 40 -9 47 -15 8 -6 42 -12 75 -14 50 -2 67 2 97 22 40 28 45 42
50 169 2 46 8 86 14 90 86 54 111 78 122 114 31 105 17 169 -47 208 -28 18
-52 22 -120 23 -99 2 -106 7 -97 84 6 51 5 53 -38 95 -44 43 -75 52 -128 38z
m57 -88 c4 -10 12 -23 19 -30 7 -8 10 -29 6 -59 -4 -37 -1 -49 12 -56 9 -5 16
-15 16 -23 0 -8 11 -22 25 -31 20 -13 32 -14 77 -4 76 17 135 1 153 -43 7 -17
11 -36 10 -41 -2 -6 -6 -23 -9 -38 -5 -21 -19 -34 -55 -52 -65 -33 -89 -84
-96 -202 -3 -48 -6 -88 -7 -90 -12 -10 -84 -5 -132 10 -80 25 -112 13 -192
-70 -65 -67 -78 -73 -109 -50 -14 10 -21 32 -26 86 -6 65 -10 76 -35 94 -15
11 -35 21 -43 23 -63 8 -86 18 -116 46 -42 41 -38 71 16 122 34 32 125 85 144
85 12 0 50 35 54 50 7 27 4 90 -6 102 -5 7 -9 20 -8 28 1 8 -2 25 -6 36 -6 16
-2 27 14 42 28 25 92 35 107 17 14 -17 42 -9 104 32 57 37 74 41 83 16z"/>
<path d="M832 3139 c-59 -29 -132 -99 -168 -160 -54 -94 -83 -170 -93 -252
-11 -84 -7 -201 9 -222 4 -5 15 -30 24 -55 10 -25 27 -52 39 -60 52 -33 110
-60 128 -60 22 0 38 -33 37 -77 -1 -29 -3 -30 -72 -41 -39 -7 -102 -14 -141
-18 -88 -7 -125 -20 -125 -46 0 -21 -32 -87 -64 -132 -54 -76 -187 -253 -204
-271 -25 -25 -33 -72 -19 -104 5 -15 11 -30 13 -36 2 -5 10 -29 19 -53 8 -24
17 -51 19 -60 4 -22 23 -72 36 -95 6 -9 13 -37 17 -62 9 -69 60 -94 91 -45 16
26 1 91 -39 174 -16 32 -29 70 -29 85 0 14 -6 38 -14 53 -33 62 -25 111 28
175 9 10 29 36 45 58 17 22 34 45 38 50 5 6 17 23 27 39 l19 30 9 -24 c5 -14
9 -54 8 -90 0 -36 4 -109 9 -164 5 -59 5 -127 0 -170 -5 -39 -8 -125 -7 -190
2 -101 5 -121 20 -136 13 -12 23 -46 33 -106 15 -98 20 -117 46 -154 10 -14
20 -53 23 -88 3 -35 8 -67 11 -71 3 -5 -2 -42 -10 -82 -9 -41 -20 -96 -25
-124 -5 -27 -25 -113 -45 -190 -54 -217 -53 -229 20 -218 60 9 184 6 198 -5 8
-7 24 -6 46 2 44 14 64 62 35 83 -16 12 -78 18 -126 14 -10 -1 -18 3 -18 10 0
10 -3 10 -11 2 -13 -13 -70 -6 -80 9 -3 4 3 41 13 81 11 39 28 115 39 167 11
52 21 100 23 105 4 15 13 54 26 118 9 43 9 62 1 71 -7 8 -17 42 -23 77 -6 35
-21 87 -33 114 -26 57 -40 185 -21 185 7 0 17 -5 24 -12 9 -9 12 -9 12 0 0 8
29 11 98 11 53 -1 129 2 167 6 39 4 84 8 100 9 17 1 35 4 40 8 6 3 30 7 55 9
32 2 44 -1 42 -10 -1 -7 3 -31 10 -54 7 -23 13 -51 15 -62 1 -11 10 -54 19
-95 14 -65 19 -152 11 -200 -1 -8 -15 -53 -29 -100 -15 -47 -44 -139 -64 -205
-20 -66 -40 -124 -43 -130 -3 -5 -6 -16 -6 -25 -3 -29 -17 -85 -25 -95 -12
-16 -5 -56 11 -65 8 -4 55 1 104 11 102 21 158 22 196 3 22 -11 29 -10 57 8
35 22 39 38 17 71 -13 20 -21 22 -112 21 -54 -1 -117 -5 -140 -9 -24 -4 -43
-4 -43 1 1 11 32 128 60 219 12 39 22 77 24 86 1 8 7 28 13 45 6 16 19 56 29
89 10 33 24 67 31 75 17 21 17 58 0 160 -8 47 -12 88 -10 92 2 5 1 14 -4 20
-10 16 -32 115 -32 150 -1 16 6 31 17 37 14 8 15 13 5 30 -7 12 -13 27 -13 35
0 8 -9 17 -19 21 -24 7 -29 40 -31 185 -1 63 -3 129 -5 145 -10 68 -9 375 1
385 6 6 35 10 65 10 30 -1 92 -1 139 -1 47 1 112 -5 145 -12 52 -11 64 -11 87
3 16 8 28 20 28 25 0 15 73 85 88 85 7 0 12 4 12 10 0 19 276 214 290 205 5
-3 11 -1 15 5 13 20 22 9 28 -32 4 -29 14 -48 34 -64 24 -20 37 -22 98 -18 96
5 97 5 119 26 11 10 25 18 32 18 7 0 16 9 19 20 3 11 13 27 21 35 20 19 54
116 54 151 0 34 28 58 88 75 26 7 54 21 63 31 9 10 21 18 27 18 24 0 81 75 87
114 7 47 -8 96 -29 96 -8 0 -16 5 -18 11 -6 18 -109 17 -138 -2 -14 -9 -47
-24 -75 -34 -98 -36 -295 -157 -295 -180 0 -4 -15 -25 -34 -46 -18 -22 -36
-54 -40 -71 -9 -45 -24 -60 -47 -47 -10 5 -19 6 -19 2 0 -5 -37 -33 -82 -63
-46 -29 -84 -57 -86 -62 -2 -4 -9 -8 -15 -8 -7 0 -23 -12 -37 -26 -13 -15 -36
-34 -50 -43 -30 -19 -68 -51 -129 -109 -42 -39 -49 -42 -86 -38 -22 3 -90 7
-152 8 -61 2 -114 6 -118 10 -4 4 -18 3 -32 -3 -31 -11 -61 3 -68 34 -5 17
-14 22 -43 23 -20 1 -85 3 -144 4 -106 3 -106 4 -110 29 -6 42 6 86 22 86 19
0 118 65 148 97 56 60 76 89 112 164 31 64 42 101 50 171 5 49 7 100 5 113 -6
27 -13 86 -14 110 -1 8 -25 40 -54 71 -39 43 -66 61 -110 77 -31 11 -65 18
-76 15 -11 -3 -21 2 -24 11 -10 24 -47 19 -115 -15z m108 -85 c93 -8 183 -69
195 -131 10 -55 7 -191 -5 -232 -32 -105 -138 -246 -204 -271 -58 -21 -191 -5
-203 26 -3 8 -10 14 -17 14 -15 0 -41 61 -56 134 -19 94 7 238 56 303 13 17
24 36 24 42 0 5 11 23 25 38 67 77 97 97 125 86 8 -3 35 -7 60 -9z m1700 -274
c21 -13 2 -58 -35 -78 -16 -9 -32 -20 -35 -23 -6 -7 -40 -21 -60 -25 -8 -2
-36 -13 -63 -25 -40 -19 -49 -29 -59 -63 -7 -23 -11 -50 -10 -62 3 -29 -23
-100 -45 -122 -10 -10 -31 -24 -48 -30 -36 -14 -105 -13 -106 2 -2 24 3 139 6
154 8 41 86 138 100 124 3 -3 5 0 5 6 0 7 5 12 11 12 6 0 38 16 70 37 33 20
62 33 65 30 3 -3 14 2 24 10 15 13 128 58 155 61 6 1 17 -2 25 -8z m-1765
-658 c77 5 155 0 169 -11 10 -8 16 -9 21 -1 12 20 33 10 40 -20 3 -16 6 -55 5
-87 -4 -123 0 -311 9 -379 9 -74 6 -307 -4 -324 -3 -6 -17 -10 -30 -10 -13 0
-35 -4 -48 -9 -52 -20 -250 -29 -434 -19 l-53 3 -2 60 c0 33 -1 67 0 75 2 42
14 209 17 235 1 17 -2 59 -7 95 -6 36 -12 124 -13 195 -4 152 3 178 50 174 17
-2 36 0 43 5 6 4 16 5 20 2 5 -3 28 1 53 9 25 9 61 12 84 9 22 -3 58 -4 80 -2z"/>
</g>
</svg>
