<?xml version="1.0" standalone="no"?>
<!DOCTYPE svg PUBLIC "-//W3C//DTD SVG 20010904//EN"
 "http://www.w3.org/TR/2001/REC-SVG-20010904/DTD/svg10.dtd">
<svg version="1.0" xmlns="http://www.w3.org/2000/svg"
 width="557.000000pt" height="465.000000pt" viewBox="0 0 557.000000 465.000000"
 preserveAspectRatio="xMidYMid meet">
<metadata>
Created by potrace 1.16, written by Peter Selinger 2001-2019
</metadata>
<g transform="translate(0.000000,465.000000) scale(0.100000,-0.100000)"
fill="#000000" stroke="none">
<path d="M786 4127 c-27 -10 -65 -30 -85 -46 -20 -15 -50 -36 -67 -46 -35 -20
-116 -135 -134 -190 -6 -19 -15 -35 -20 -35 -9 0 -20 -38 -27 -100 -3 -25 -11
-64 -19 -87 -10 -33 -11 -64 -4 -145 9 -97 11 -115 25 -180 4 -15 8 -39 10
-55 8 -62 44 -138 75 -156 16 -10 30 -22 30 -28 0 -5 8 -9 18 -9 9 0 31 -9 49
-20 18 -10 47 -23 65 -28 33 -8 33 -9 36 -75 4 -74 12 -67 -76 -72 -16 -1 -53
-5 -82 -9 -42 -6 -56 -4 -71 9 -13 13 -28 15 -58 10 -22 -4 -44 -7 -48 -7 -24
1 -44 -34 -42 -73 2 -23 -1 -47 -6 -55 -4 -7 -9 -139 -11 -294 -4 -351 -9
-464 -23 -546 -6 -36 -11 -102 -12 -148 -2 -79 -1 -85 23 -105 15 -12 31 -33
38 -46 12 -23 86 -327 95 -386 2 -16 11 -64 20 -105 28 -127 24 -160 -45 -325
-5 -11 -14 -37 -20 -57 -6 -21 -16 -40 -21 -43 -5 -4 -9 -15 -9 -26 0 -11 -9
-37 -20 -59 -11 -22 -20 -48 -20 -60 0 -11 -11 -38 -25 -60 -14 -22 -25 -45
-25 -52 0 -16 -22 -76 -38 -105 -7 -12 -12 -27 -12 -33 0 -7 -9 -24 -20 -40
-17 -24 -18 -32 -7 -61 6 -19 12 -35 13 -37 1 -2 28 1 60 7 63 11 239 24 290
22 42 -2 88 34 74 58 -5 10 -7 27 -4 39 7 25 -27 46 -59 36 -12 -4 -22 -5 -23
-3 0 2 -8 -2 -17 -9 -10 -8 -57 -17 -116 -21 -110 -7 -107 -9 -83 54 7 17 16
38 22 47 5 9 19 45 30 80 12 35 35 90 52 123 18 33 31 61 30 62 -2 4 5 25 34
100 13 34 24 70 24 81 0 10 3 22 6 25 4 4 18 33 31 64 23 58 24 112 2 153 -22
41 -58 206 -51 234 2 4 -1 13 -6 20 -5 6 -12 27 -15 46 -12 68 -46 225 -53
244 -6 16 -3 18 22 13 79 -16 493 -25 514 -12 14 9 28 -20 40 -85 7 -36 17
-70 21 -76 5 -5 11 -39 14 -75 7 -71 30 -183 44 -214 33 -72 38 -123 17 -163
-8 -15 -26 -67 -41 -117 -15 -49 -31 -101 -36 -114 -6 -13 -7 -26 -5 -29 3 -2
1 -13 -5 -24 -6 -11 -12 -27 -14 -36 -24 -101 -50 -193 -63 -220 -9 -19 -15
-43 -14 -55 0 -12 -5 -32 -13 -44 -21 -32 -21 -74 -1 -105 21 -32 27 -33 67
-13 16 9 53 18 82 22 64 7 64 7 164 -4 45 -5 91 -5 103 -1 23 9 39 40 23 45
-7 3 -9 18 -6 39 7 40 24 36 -180 35 -143 -1 -148 0 -142 19 3 11 9 32 11 47
3 16 12 47 19 71 8 23 17 57 20 75 4 29 8 46 34 140 12 43 45 133 67 182 10
22 19 46 20 53 1 7 8 20 15 28 18 22 20 86 3 105 -21 23 -62 170 -80 284 -8
55 -20 114 -25 130 -17 50 -22 149 -11 222 6 37 14 103 17 146 l7 78 51 -6
c29 -4 60 -11 70 -17 10 -5 45 -11 77 -12 45 -2 60 1 68 15 15 24 -3 89 -26
90 -9 1 -35 3 -57 4 -57 3 -115 13 -147 26 -33 13 -33 18 -14 149 8 52 17 129
21 170 10 103 11 111 18 145 4 17 9 46 11 65 6 48 23 120 30 127 3 3 40 -29
83 -70 104 -102 132 -127 143 -127 5 0 30 -21 57 -47 l48 -48 75 1 c41 1 120
11 175 23 74 15 119 20 170 16 39 -3 95 -8 125 -10 47 -3 58 -8 82 -37 15 -18
28 -41 28 -50 0 -10 7 -18 16 -18 9 0 28 -9 43 -19 35 -26 83 -32 150 -20 68
12 109 32 140 71 28 35 44 95 27 102 -7 3 -7 5 2 5 6 1 12 10 12 21 0 18 7 20
64 20 66 0 159 23 187 47 29 24 52 89 45 126 -9 48 -53 93 -101 102 -98 21
-142 23 -175 11 -28 -10 -127 -25 -205 -31 -71 -6 -142 -24 -156 -41 -6 -8
-19 -14 -29 -14 -9 0 -24 -8 -33 -18 -22 -24 -57 -103 -57 -129 0 -22 -1 -23
-121 -18 -106 4 -134 1 -217 -20 -123 -33 -181 -32 -232 0 -22 14 -40 29 -40
33 0 5 -21 23 -47 40 -27 17 -92 76 -146 131 -54 56 -102 101 -107 101 -6 0
-10 6 -10 14 0 25 -39 29 -232 29 l-188 -1 0 38 c0 38 19 69 43 71 97 6 248
134 282 240 10 30 22 63 28 74 6 11 12 25 13 30 1 6 10 39 19 73 9 35 14 66
11 69 -3 4 -2 11 3 17 13 16 30 115 26 156 -12 146 -47 238 -128 345 -59 78
-99 108 -137 101 -18 -2 -34 1 -41 10 -6 8 -20 14 -30 14 -10 0 -20 4 -23 9
-11 17 -62 16 -110 -2z m83 -89 c-4 -35 2 -38 54 -37 73 3 101 -17 163 -109
59 -89 88 -166 87 -237 0 -74 -29 -206 -71 -324 -31 -87 -46 -114 -90 -162
-51 -56 -54 -57 -136 -72 -71 -14 -91 -14 -132 -3 -115 32 -187 98 -199 181
-2 11 -10 58 -19 104 -9 46 -16 121 -16 167 0 237 173 487 348 503 7 0 12 -5
11 -11z m239 -1257 c55 -1 63 -3 58 -18 -10 -33 -42 -257 -51 -353 -3 -36 -10
-92 -15 -125 -8 -50 -16 -131 -19 -204 -1 -11 -17 -13 -86 -8 -120 9 -116 5
-187 148 -29 58 -39 84 -45 112 -4 25 -31 76 -58 112 -12 17 -26 41 -30 55 -4
14 -31 72 -59 130 -53 109 -58 125 -41 126 6 0 35 3 65 7 30 4 79 9 108 11 30
2 56 6 58 9 2 2 57 3 122 1 64 -1 145 -3 180 -3z m-623 -93 c15 -29 33 -60 41
-69 8 -8 14 -20 14 -26 0 -6 9 -21 19 -35 11 -14 28 -45 37 -69 9 -24 32 -65
51 -90 18 -26 33 -52 33 -59 0 -35 54 -177 90 -237 10 -17 22 -47 25 -67 9
-48 18 -51 169 -60 91 -6 112 -16 100 -46 -13 -30 -23 -96 -24 -146 0 -88 1
-87 -221 -88 -225 -1 -290 3 -362 19 l-52 12 2 69 c1 38 7 161 13 274 5 113
12 291 15 395 2 105 6 206 9 225 2 19 5 38 5 43 2 16 11 5 36 -45z m2315 6
c41 -16 47 -27 31 -53 -13 -20 -34 -24 -123 -25 -43 -1 -78 -4 -78 -8 0 -4
-12 -3 -26 3 -20 7 -32 6 -50 -6 -20 -13 -24 -24 -24 -69 0 -86 -8 -111 -44
-130 -44 -23 -117 -23 -149 0 -29 22 -57 68 -57 94 0 10 -4 22 -10 25 -14 9
-12 48 4 79 14 28 60 68 68 60 3 -2 25 0 50 5 63 15 126 22 178 22 25 0 52 4
60 9 24 15 126 11 170 -6z"/>
<path d="M4660 4063 c-82 -24 -199 -123 -238 -200 -20 -38 -44 -114 -81 -255
-26 -98 -22 -203 12 -313 27 -88 57 -156 72 -167 6 -4 10 -12 10 -17 0 -20 78
-117 119 -148 33 -26 55 -34 106 -39 36 -3 66 -7 66 -8 1 0 4 -31 8 -68 l7
-68 -43 -1 c-167 -5 -225 -10 -254 -24 -42 -20 -47 -28 -50 -89 -1 -28 -4 -62
-7 -76 -22 -117 -32 -159 -43 -181 -7 -15 -22 -58 -33 -97 -11 -39 -31 -87
-45 -108 -14 -21 -23 -41 -20 -46 3 -5 -2 -18 -12 -29 -9 -10 -13 -19 -8 -19
5 0 1 -5 -8 -11 -10 -5 -18 -19 -18 -29 0 -24 -21 -70 -32 -70 -4 0 -8 -8 -8
-19 0 -10 -9 -30 -20 -44 -11 -14 -20 -30 -20 -35 0 -5 -7 -15 -15 -22 -15
-12 -10 -72 7 -78 4 -2 15 -10 23 -18 13 -13 18 -11 42 13 15 15 29 35 31 43
3 14 65 141 100 205 10 16 23 34 30 40 14 11 44 114 36 126 -2 4 0 10 6 14 13
8 13 -124 0 -193 -5 -28 -12 -90 -15 -139 -4 -48 -13 -122 -20 -164 -8 -42
-17 -98 -21 -125 -3 -27 -8 -52 -10 -56 -2 -4 0 -9 6 -13 15 -9 12 -69 -10
-180 -32 -161 -74 -295 -92 -295 -6 0 -8 -3 -5 -7 4 -3 1 -13 -6 -21 -9 -12
-9 -16 0 -19 7 -2 9 -11 6 -19 -3 -8 1 -22 8 -32 8 -9 19 -26 25 -37 6 -11 24
-45 41 -75 17 -30 34 -65 37 -78 4 -12 24 -50 45 -85 33 -54 57 -107 52 -115
0 -1 8 -19 19 -39 10 -20 22 -57 26 -82 4 -25 11 -54 15 -63 8 -14 1 -23 -30
-42 -54 -35 -141 -76 -171 -81 -32 -6 -79 -65 -51 -65 5 0 7 -9 4 -19 -3 -13
2 -23 15 -30 23 -12 46 -6 81 21 13 10 31 18 40 18 9 0 34 12 56 27 22 15 69
43 105 62 36 18 68 39 73 45 9 14 0 68 -13 76 -5 3 -11 15 -12 26 -2 10 -11
30 -21 44 -9 13 -17 32 -17 42 0 9 -11 38 -25 64 -14 26 -25 54 -25 62 0 15
-32 91 -51 122 -25 41 -80 153 -103 209 -24 60 -25 65 -10 100 19 43 54 183
54 214 0 12 12 63 27 114 l28 92 55 -4 c98 -8 150 -15 173 -24 24 -8 292 -6
307 4 5 3 16 -19 25 -48 19 -65 23 -340 6 -361 -6 -7 -9 -42 -7 -84 4 -61 9
-78 34 -110 38 -48 49 -70 72 -143 11 -33 26 -72 34 -87 18 -36 53 -156 60
-212 l7 -45 -43 -12 c-24 -7 -71 -14 -105 -17 -67 -4 -166 -45 -177 -72 -27
-70 50 -122 114 -76 33 23 88 42 123 42 15 0 44 7 64 15 20 9 50 13 67 10 23
-4 38 0 60 18 27 22 28 26 18 58 -6 19 -20 66 -31 104 -42 151 -64 220 -73
232 -5 6 -11 24 -14 40 -3 15 -9 32 -15 38 -5 5 -9 16 -9 25 0 9 -16 47 -36
85 -19 39 -35 81 -35 95 0 14 1 34 1 45 1 72 -9 379 -15 423 -4 33 -3 58 4 66
7 8 10 52 9 112 -4 174 11 756 21 854 6 52 11 101 11 108 0 28 22 9 41 -35 10
-27 28 -64 39 -84 11 -20 20 -42 20 -48 0 -13 50 -123 59 -131 4 -3 15 -30 25
-60 10 -30 23 -59 27 -64 5 -6 9 -16 9 -24 0 -8 8 -26 19 -40 30 -43 29 -63
-6 -130 -18 -35 -32 -66 -31 -70 4 -17 -32 -81 -61 -108 -39 -36 -44 -99 -10
-129 15 -15 19 -14 43 7 23 20 44 57 118 203 11 22 31 62 45 88 35 67 35 103
1 160 -15 26 -28 51 -28 54 0 3 -28 63 -61 132 -34 69 -76 164 -94 211 -53
135 -113 263 -133 285 -10 11 -22 32 -25 46 -6 22 -11 25 -39 21 -18 -2 -38
-8 -44 -13 -6 -5 -60 -12 -120 -15 l-109 -6 -3 62 c-4 68 -1 72 70 120 20 13
39 31 42 40 3 8 14 31 24 50 37 66 70 155 81 215 30 177 31 201 21 280 -16
123 -71 266 -124 321 -12 12 -35 39 -52 60 -19 24 -41 40 -55 41 -13 1 -33 14
-45 28 -16 20 -32 27 -65 30 -24 1 -51 1 -59 -2z m59 -117 c12 -13 35 -26 51
-30 29 -5 120 -86 120 -105 0 -6 7 -11 15 -11 9 0 18 -8 21 -17 4 -10 15 -38
26 -63 11 -25 22 -58 24 -75 1 -16 6 -48 10 -70 10 -57 8 -99 -9 -190 -14 -75
-61 -214 -77 -225 -4 -3 -14 -19 -23 -36 -43 -84 -166 -125 -248 -84 -74 38
-159 172 -198 313 -30 104 -30 150 -5 257 36 150 71 227 129 284 80 78 126 93
164 52z m347 -1251 c7 -27 -2 -148 -15 -208 -11 -47 -21 -296 -25 -612 -2
-115 -7 -233 -11 -262 -7 -49 -9 -51 -44 -58 -20 -3 -85 -8 -146 -10 -60 -3
-118 -7 -127 -9 -10 -2 -18 -1 -18 3 0 16 -146 45 -227 45 -26 0 -33 4 -34 20
-3 44 3 114 17 196 8 47 15 110 15 140 0 76 6 168 13 210 7 38 13 153 21 353
4 97 9 133 21 144 19 20 75 32 141 33 29 0 78 7 110 15 32 9 87 19 123 22 36
3 66 6 67 7 1 0 26 -1 57 -2 49 -3 57 -7 62 -27z"/>
<path d="M3701 3998 c-55 -18 -121 -65 -179 -127 -60 -64 -139 -256 -144 -351
-1 -22 5 -92 18 -195 8 -65 24 -126 43 -162 32 -64 110 -157 148 -176 35 -19
35 -19 29 -70 -10 -77 -13 -101 -15 -109 -2 -11 -204 2 -218 13 -7 7 -14 6
-18 -1 -3 -5 -15 -10 -27 -10 -11 0 -34 -10 -51 -22 -18 -12 -33 -22 -35 -23
-1 -2 -5 -36 -8 -76 -4 -41 -10 -81 -14 -89 -4 -8 -13 -51 -20 -95 -13 -90
-33 -177 -48 -216 -6 -15 -13 -47 -17 -70 -3 -24 -8 -52 -11 -61 -5 -16 -10
-40 -20 -86 -16 -77 -34 -99 -122 -152 -115 -67 -126 -74 -132 -81 -3 -3 -34
-21 -70 -40 -36 -19 -69 -40 -73 -46 -4 -7 -17 -13 -27 -13 -23 0 -30 -11 -36
-55 -5 -38 1 -44 51 -50 29 -4 37 -1 51 20 15 23 84 71 147 103 15 8 27 18 27
23 0 5 5 9 11 9 6 0 25 10 42 22 18 13 33 21 35 20 4 -5 51 15 97 41 27 15 42
32 47 52 4 17 16 66 27 110 l19 80 -4 -75 c-9 -164 -17 -236 -27 -246 -4 -4
-7 -23 -7 -43 -1 -20 -9 -75 -19 -122 -10 -47 -16 -94 -14 -105 8 -44 5 -121
-6 -142 -6 -12 -14 -46 -17 -75 -3 -28 -9 -56 -14 -62 -10 -13 -50 -177 -50
-207 0 -27 26 -116 38 -132 5 -6 19 -53 31 -104 12 -51 26 -101 31 -110 5 -9
19 -46 31 -82 12 -36 35 -93 50 -128 37 -80 37 -90 -3 -96 -127 -17 -206 -25
-225 -22 -29 6 -101 -29 -105 -51 -7 -33 4 -61 25 -67 36 -10 87 -7 87 5 0 6
6 9 13 6 6 -2 32 2 57 8 25 7 72 13 105 14 150 3 195 21 195 76 0 32 -6 50
-32 95 -4 8 -13 26 -19 40 -6 14 -17 38 -25 53 -8 16 -14 37 -14 47 0 10 -4
21 -9 25 -5 3 -28 65 -51 138 -23 72 -47 145 -53 162 -6 16 -16 56 -22 90 -12
64 -9 80 59 338 14 54 26 109 26 123 0 25 1 25 58 19 31 -4 86 -14 122 -21
164 -36 309 -55 392 -52 l87 3 -6 -45 c-10 -81 -32 -167 -53 -204 -11 -20 -20
-44 -20 -54 0 -9 -9 -32 -20 -50 -11 -18 -17 -39 -13 -45 4 -7 6 -19 5 -29 -2
-9 2 -19 8 -23 5 -3 10 -15 10 -25 0 -10 15 -55 34 -100 19 -45 38 -96 42
-113 6 -29 68 -170 114 -257 10 -19 20 -48 22 -65 3 -28 0 -30 -43 -41 -25 -7
-55 -17 -67 -23 -11 -6 -55 -16 -97 -22 -60 -9 -79 -16 -91 -34 -15 -24 -11
-48 14 -77 16 -19 52 -25 52 -9 0 5 15 12 33 16 17 4 58 16 89 26 32 11 73 21
93 24 19 2 43 9 54 15 11 5 32 10 46 10 15 0 32 6 40 13 19 19 8 92 -21 135
-13 19 -24 39 -24 44 0 5 -31 74 -70 153 -38 79 -70 151 -70 159 0 9 -4 16 -9
16 -5 0 -12 19 -16 43 -4 23 -11 47 -15 52 -5 6 -12 33 -18 62 -8 44 -6 62 13
116 13 35 37 124 54 198 18 74 36 147 41 163 6 18 6 36 0 47 -6 9 -7 52 -4 94
3 42 7 106 9 143 1 37 3 67 5 67 5 0 9 101 15 420 5 305 10 453 16 482 1 4 -1
22 -6 38 -9 32 -36 57 -70 63 -40 7 -260 7 -271 0 -7 -5 -9 11 -6 50 2 31 8
59 13 60 5 2 9 10 9 18 0 10 13 14 43 14 32 0 56 8 88 29 24 16 47 27 51 25 4
-3 8 2 8 11 0 8 7 18 15 21 8 3 26 26 40 50 14 24 30 44 36 44 6 0 7 5 4 10
-3 6 -1 10 4 10 6 0 11 6 11 13 0 6 14 38 30 69 16 31 30 67 29 80 0 13 7 50
16 83 23 83 29 340 11 415 -21 81 -54 161 -77 190 -21 24 -25 25 -148 25 -93
0 -140 -4 -180 -17z m272 -90 c38 -20 57 -96 71 -282 1 -21 -1 -60 -5 -85 -4
-25 -10 -62 -12 -81 -8 -62 -36 -157 -65 -218 -35 -74 -97 -161 -120 -169 -9
-3 -30 -15 -46 -26 -15 -11 -31 -16 -35 -11 -3 5 -24 11 -46 12 -22 2 -58 15
-80 29 -57 35 -135 154 -148 223 -4 19 -9 45 -12 58 -5 26 -6 174 -1 212 2 22
18 61 74 180 33 71 109 134 187 156 50 14 213 16 238 2z m-58 -1200 c2 -2 -8
-43 -20 -93 -13 -49 -35 -137 -50 -195 -36 -140 -36 -141 -42 -170 -3 -14 -11
-39 -19 -57 -8 -17 -14 -35 -14 -40 0 -11 -51 -64 -80 -83 -13 -8 -30 -23 -39
-32 -8 -10 -21 -18 -28 -18 -6 0 -18 -8 -25 -19 -15 -21 -153 -111 -170 -111
-7 0 -22 -11 -34 -25 -24 -28 -22 -57 4 -87 21 -25 43 -22 79 10 43 38 64 54
98 76 28 18 52 37 174 135 26 22 60 43 73 46 30 8 48 42 48 93 0 20 9 69 21
107 11 39 24 90 29 115 12 62 32 134 39 142 3 4 5 -21 3 -55 -2 -34 -5 -179
-7 -322 -2 -143 -8 -289 -14 -325 -6 -36 -11 -98 -11 -138 0 -40 -6 -90 -12
-112 -13 -39 -14 -40 -63 -41 -27 0 -63 -1 -80 -2 -16 -1 -55 3 -85 10 -30 7
-89 16 -130 21 -41 5 -120 19 -175 32 -55 12 -111 24 -124 26 -23 5 -23 7 -18
82 3 42 9 88 13 102 4 14 7 40 8 58 1 17 4 32 7 32 3 0 9 53 12 118 8 133 13
195 22 266 3 27 8 72 10 100 1 28 6 63 10 79 8 29 12 77 14 164 0 31 7 58 16
67 8 8 15 19 15 25 0 13 -23 12 224 16 114 2 211 7 215 10 5 6 100 0 106 -7z"/>
</g>
</svg>
