<?xml version="1.0" standalone="no"?>
<!DOCTYPE svg PUBLIC "-//W3C//DTD SVG 20010904//EN"
 "http://www.w3.org/TR/2001/REC-SVG-20010904/DTD/svg10.dtd">
<svg version="1.0" xmlns="http://www.w3.org/2000/svg"
 width="571.000000pt" height="511.000000pt" viewBox="0 0 571.000000 511.000000"
 preserveAspectRatio="xMidYMid meet">
<metadata>
Created by potrace 1.16, written by Peter Selinger 2001-2019
</metadata>
<g transform="translate(0.000000,511.000000) scale(0.100000,-0.100000)"
fill="#000000" stroke="none">
<path d="M3275 5022 c-22 -1 -87 -14 -145 -28 -58 -14 -132 -27 -165 -29 -33
-2 -96 -13 -140 -24 -44 -12 -107 -26 -140 -31 -95 -16 -113 -19 -240 -51
-127 -31 -296 -87 -380 -124 -27 -12 -68 -29 -90 -36 -22 -7 -60 -26 -84 -41
-23 -16 -64 -40 -90 -53 -48 -25 -249 -215 -290 -275 -13 -19 -30 -42 -38 -50
-16 -18 -127 -157 -163 -205 -14 -18 -46 -57 -71 -86 -42 -50 -63 -84 -147
-240 -16 -30 -35 -80 -41 -110 -19 -96 -24 -124 -23 -141 0 -10 -2 -18 -6 -18
-4 0 -8 -25 -10 -56 -1 -31 -7 -64 -12 -74 -5 -9 -7 -20 -3 -24 3 -3 7 -66 9
-140 1 -74 5 -140 9 -145 11 -18 -14 -12 -29 7 -84 103 -118 142 -126 142 -6
0 -10 7 -10 15 0 8 -4 15 -9 15 -5 0 -24 12 -42 27 -29 25 -41 28 -121 30 -89
3 -138 -7 -138 -28 0 -6 -11 -38 -24 -72 -13 -34 -36 -102 -52 -152 -15 -49
-30 -92 -33 -95 -4 -3 -12 -25 -19 -50 -7 -25 -18 -61 -24 -80 -6 -19 -13 -63
-15 -97 l-5 -61 48 -47 c52 -52 70 -61 164 -80 36 -7 76 -16 90 -19 14 -3 65
-8 113 -11 112 -6 207 -31 207 -55 0 -20 -26 -45 -57 -54 -11 -4 -24 -13 -27
-21 -3 -8 -12 -15 -21 -15 -8 0 -15 -4 -15 -9 0 -5 -31 -40 -68 -78 -38 -37
-84 -88 -103 -113 -18 -25 -37 -46 -41 -48 -4 -2 -12 -19 -18 -38 -6 -19 -16
-34 -21 -34 -5 0 -9 -5 -9 -12 0 -6 -22 -43 -48 -82 -26 -39 -51 -78 -55 -86
-4 -8 -21 -40 -38 -70 -58 -101 -88 -165 -89 -183 0 -19 -67 -196 -80 -212 -7
-9 -32 -94 -46 -155 -3 -14 -17 -54 -30 -90 -14 -36 -30 -78 -36 -95 -6 -16
-15 -35 -19 -40 -5 -6 -24 -54 -44 -105 -20 -52 -47 -112 -61 -133 -14 -22
-23 -41 -20 -44 3 -4 1 -11 -4 -18 -7 -8 -2 -19 14 -34 l24 -23 83 27 c113 36
175 39 230 14 87 -40 113 -54 137 -74 31 -26 232 -226 232 -231 0 -4 28 -32
101 -98 54 -50 149 -100 222 -117 38 -9 57 -19 57 -29 0 -12 2 -12 9 -1 7 10
13 11 30 2 11 -6 56 -11 98 -11 43 1 92 0 110 -1 18 -1 38 5 48 14 18 19 24
75 8 85 -5 4 -23 32 -38 62 -16 30 -36 71 -46 90 -10 19 -30 76 -44 125 -14
50 -34 113 -45 140 -10 28 -21 70 -24 95 -2 25 -10 77 -16 115 -16 105 -18
151 -10 234 5 42 11 112 14 156 3 44 7 89 10 100 6 29 23 92 41 155 8 30 15
64 15 75 0 12 13 48 28 81 15 32 36 94 47 137 10 42 21 77 25 77 4 0 8 -28 9
-62 1 -34 4 -65 7 -69 2 -4 9 -45 15 -91 15 -122 55 -244 106 -319 16 -24 35
-56 42 -71 8 -16 18 -28 23 -28 4 0 8 -7 8 -15 0 -9 4 -21 10 -28 17 -21 91
-111 111 -135 10 -12 19 -27 19 -32 0 -6 5 -10 10 -10 11 0 24 -13 94 -91 38
-42 224 -179 243 -179 7 0 13 -4 13 -8 0 -5 16 -17 35 -28 19 -10 35 -22 35
-26 0 -5 11 -8 25 -8 14 0 28 -6 31 -14 3 -7 23 -21 45 -31 21 -10 39 -21 39
-26 0 -4 23 -15 50 -25 28 -10 50 -24 50 -32 0 -10 7 -12 24 -8 13 3 43 -1 67
-10 24 -9 62 -18 84 -20 22 -3 71 -9 108 -14 38 -5 74 -7 80 -4 7 2 57 6 112
9 76 4 260 25 278 33 36 15 66 24 82 26 12 1 26 5 31 9 6 3 30 9 52 13 23 4
42 10 42 15 0 5 5 9 10 9 6 0 58 22 115 50 57 27 107 50 110 50 14 0 115 71
152 106 22 22 62 55 87 74 151 113 164 125 211 186 28 36 43 54 134 154 17 19
34 43 37 54 4 11 24 48 45 83 22 35 39 69 39 76 0 6 9 23 20 37 11 14 20 29
20 34 0 8 17 47 71 162 10 22 19 47 20 55 0 8 6 3 12 -11 7 -14 21 -33 31 -44
16 -16 17 -21 5 -30 -9 -7 -14 -30 -13 -66 0 -63 -10 -120 -36 -205 -17 -55
-22 -84 -35 -200 -3 -22 -10 -64 -16 -94 -18 -87 -15 -355 6 -572 2 -20 15
-73 29 -118 14 -45 28 -96 31 -114 12 -73 17 -86 41 -102 40 -26 71 -7 144 85
53 68 64 80 73 80 5 0 33 20 61 45 29 25 56 45 60 45 4 0 14 6 21 12 54 48
111 85 207 131 53 26 99 47 103 47 3 0 21 11 38 23 18 13 56 34 86 46 50 21
129 67 141 82 3 3 21 12 40 19 20 7 45 27 57 45 19 29 20 35 7 60 -8 15 -14
31 -14 36 0 14 -150 209 -161 209 -5 0 -9 4 -9 10 0 8 -44 52 -190 188 -30 28
-71 65 -90 81 -19 17 -42 37 -50 45 -29 26 -55 62 -79 111 -13 28 -30 57 -36
65 -29 36 -29 104 0 80 10 -9 38 -9 106 0 50 6 94 9 96 6 6 -6 97 25 104 36 3
4 29 10 58 13 30 3 57 8 62 10 4 3 11 0 14 -5 5 -8 12 -7 23 3 10 8 24 16 32
19 26 9 40 88 42 233 2 137 -15 309 -33 331 -5 6 -7 13 -4 16 3 3 -1 11 -10
18 -8 7 -15 19 -15 27 0 8 -4 12 -9 9 -5 -3 -14 1 -21 10 -22 25 -107 16 -156
-18 -36 -24 -134 -56 -156 -50 -5 1 -8 -2 -8 -7 0 -5 -8 -12 -19 -16 -10 -3
-31 -19 -47 -35 -16 -16 -32 -30 -37 -30 -12 0 4 51 34 110 16 30 33 80 40
110 6 30 15 60 19 65 15 18 29 89 35 174 3 46 8 87 10 91 2 4 7 71 9 150 3 78
8 157 12 175 3 19 1 64 -5 102 -6 37 -13 104 -16 148 -4 44 -10 84 -15 90 -10
12 -40 153 -40 188 0 14 -14 67 -30 118 -17 52 -35 111 -42 132 -6 20 -15 37
-19 37 -4 0 -15 22 -24 49 -9 28 -25 61 -36 75 -11 14 -17 30 -14 36 3 5 2 10
-2 10 -5 0 -15 17 -22 38 -8 20 -17 39 -21 42 -4 3 -21 25 -38 49 -18 24 -41
50 -52 58 -10 7 -29 31 -41 53 -13 22 -26 40 -30 40 -4 0 -17 17 -29 38 -12
20 -55 64 -97 96 -73 58 -97 74 -178 117 -22 12 -42 25 -45 29 -5 8 -124 64
-190 90 -19 8 -37 17 -40 20 -3 4 -39 17 -80 30 -79 25 -162 58 -170 70 -3 4
-18 10 -35 14 -16 4 -32 11 -35 16 -3 4 -65 27 -139 50 -135 43 -204 51 -336
42z m170 -121 c97 -21 181 -43 199 -53 10 -5 34 -18 52 -29 19 -10 36 -19 39
-19 3 0 18 -6 33 -13 15 -8 70 -29 122 -47 52 -18 99 -37 104 -42 6 -4 16 -8
24 -8 8 0 49 -18 92 -39 43 -22 81 -37 84 -34 3 4 6 2 6 -4 0 -6 15 -16 33
-24 17 -7 46 -23 63 -36 17 -13 35 -23 41 -23 37 0 253 -212 253 -248 0 -5 7
-15 15 -22 9 -7 14 -15 11 -17 -2 -3 16 -24 40 -47 24 -24 44 -48 44 -55 0 -6
5 -11 10 -11 6 0 10 -7 10 -15 0 -8 5 -15 10 -15 6 0 10 -7 10 -16 0 -18 31
-77 43 -82 4 -2 7 -9 7 -15 0 -6 6 -18 14 -26 14 -17 28 -54 67 -181 13 -41
26 -77 30 -80 7 -5 14 -49 24 -145 3 -27 12 -72 20 -100 18 -57 19 -65 35
-194 7 -53 9 -113 4 -140 -4 -25 -8 -78 -9 -116 0 -39 -4 -75 -7 -81 -4 -5 -3
-16 2 -23 4 -8 6 -25 4 -40 -1 -14 -8 -64 -14 -111 -12 -102 -15 -117 -29
-153 -6 -16 -11 -41 -11 -56 0 -16 -7 -34 -15 -41 -8 -7 -15 -21 -15 -32 0
-11 -11 -46 -24 -77 -13 -31 -27 -63 -30 -71 -4 -8 -15 -28 -26 -45 -11 -16
-25 -40 -31 -51 -15 -29 -58 -52 -67 -36 -9 14 -55 -1 -124 -40 l-48 -27 0 32
c0 76 -13 203 -21 211 -5 6 -9 29 -9 53 0 60 -27 122 -56 129 -18 5 -24 13
-24 33 0 42 -58 63 -81 29 -12 -19 -211 -42 -419 -49 -160 -6 -460 53 -596
116 -88 41 -183 102 -191 121 -3 8 -10 14 -15 14 -10 0 -39 24 -80 65 -11 11
-40 55 -64 98 -41 76 -63 153 -78 282 -2 22 -7 47 -10 55 -4 8 -8 62 -10 120
-6 182 -33 315 -67 325 -43 14 -64 -6 -75 -70 -18 -112 -27 -149 -41 -182 -8
-21 -18 -40 -22 -43 -7 -5 -51 -96 -51 -105 0 -5 -42 -71 -62 -100 -39 -54
-111 -135 -137 -155 -18 -14 -53 -42 -77 -62 -95 -80 -190 -124 -325 -153 -41
-8 -105 -30 -109 -36 -3 -4 -32 -10 -65 -14 -33 -4 -73 -10 -90 -14 -16 -4
-46 -6 -66 -3 -30 3 -41 -2 -72 -31 -21 -19 -37 -39 -37 -44 0 -5 -23 -20 -51
-32 -27 -13 -55 -31 -62 -41 -10 -17 -13 -17 -39 -4 -15 8 -28 18 -28 23 0 10
-56 32 -63 25 -2 -2 -10 2 -17 11 -7 8 -22 15 -34 15 -11 0 -37 14 -56 31 -19
17 -45 38 -58 48 -22 16 -43 75 -58 167 -10 56 -10 406 -1 488 4 38 12 76 18
83 7 7 9 13 6 13 -8 0 12 69 35 120 41 92 61 130 70 130 4 0 8 7 8 15 0 8 5
15 10 15 6 0 10 6 10 13 1 13 23 42 105 137 136 156 161 187 175 213 8 16 27
38 42 49 15 10 28 25 28 31 0 14 53 72 120 132 49 44 130 99 130 88 0 -4 7 3
16 15 8 12 20 22 26 22 12 0 81 31 88 40 15 19 301 122 375 135 11 2 20 4 20
6 0 1 9 3 20 4 11 2 56 12 100 24 44 11 103 22 130 24 28 3 57 7 65 11 8 3 26
8 40 11 14 2 45 9 70 15 25 6 74 15 110 20 36 5 101 18 145 30 44 12 91 24
105 26 13 3 27 7 29 10 8 7 185 3 226 -5z m-660 -1498 c-1 -27 3 -70 8 -98 4
-27 10 -63 12 -80 2 -16 7 -43 10 -60 3 -16 10 -57 16 -90 11 -63 60 -176 91
-209 10 -11 18 -24 18 -28 0 -12 96 -107 145 -143 22 -17 42 -32 45 -35 7 -8
153 -95 160 -95 12 -1 86 -28 95 -35 9 -6 186 -50 225 -55 8 -2 29 -5 45 -8
110 -21 346 -28 450 -14 33 5 106 10 163 12 l102 4 16 -37 c40 -93 59 -299 36
-387 -6 -22 -13 -62 -17 -90 -3 -27 -10 -54 -15 -60 -4 -5 -11 -36 -14 -69 -6
-54 -40 -154 -57 -166 -4 -3 -11 -19 -15 -35 -8 -32 -63 -157 -73 -165 -3 -3
-16 -26 -28 -52 -56 -119 -254 -338 -427 -472 -114 -89 -138 -106 -171 -122
-16 -8 -56 -30 -87 -48 -32 -19 -113 -53 -180 -76 -68 -23 -130 -46 -138 -50
-8 -4 -42 -10 -75 -13 -33 -4 -73 -10 -90 -15 -28 -8 -145 -16 -245 -17 -143
0 -321 39 -367 81 -14 13 -32 24 -39 24 -7 0 -27 12 -45 27 -18 16 -35 27 -38
27 -10 -2 -33 9 -90 44 -31 19 -72 44 -91 56 -19 11 -38 20 -42 18 -5 -1 -8 2
-8 7 0 5 -6 11 -13 13 -32 7 -125 92 -209 189 -126 144 -192 237 -243 338 -57
114 -74 182 -100 391 -10 85 -18 256 -17 388 2 261 29 373 94 401 18 8 49 32
69 54 21 22 42 37 48 33 6 -4 14 0 17 9 4 10 16 15 33 13 31 -3 112 11 126 22
6 4 30 10 55 14 24 4 50 12 57 17 13 11 26 15 147 45 38 9 91 29 118 45 27 16
52 29 57 29 4 0 16 9 26 20 10 11 24 20 32 20 7 0 13 3 13 8 0 4 33 33 74 65
64 50 156 145 156 161 0 3 13 24 29 48 34 50 107 181 124 221 16 39 22 34 22
-20z m-2055 -244 c14 -5 41 -32 60 -59 19 -27 40 -49 46 -50 6 0 15 -9 20 -20
5 -11 43 -56 84 -101 41 -45 75 -84 75 -88 0 -3 10 -18 23 -31 13 -14 32 -45
43 -70 11 -24 23 -47 28 -50 5 -3 11 -15 15 -27 6 -18 2 -24 -18 -29 -14 -3
-26 -10 -26 -15 0 -23 -19 -5 -36 34 -10 23 -27 54 -39 68 -11 14 -27 36 -35
48 -8 11 -20 21 -27 21 -7 0 -13 4 -13 9 0 5 -10 11 -22 14 -13 3 -62 17 -111
31 -63 19 -114 27 -182 29 -107 2 -102 -6 -60 97 18 44 40 110 50 150 14 59
45 69 125 39z m-23 -409 c17 -4 34 -6 37 -3 3 3 11 1 18 -5 7 -6 27 -12 43
-14 60 -8 105 -38 131 -89 13 -27 24 -51 24 -55 0 -3 -15 -3 -32 0 -18 4 -71
9 -118 12 -116 6 -242 23 -256 34 -6 6 -14 7 -17 3 -4 -3 -7 -1 -7 5 0 7 -6
12 -13 12 -8 0 -22 9 -32 20 -10 11 -13 20 -8 20 6 0 21 16 34 35 13 19 33 36
44 38 25 6 110 -2 152 -13z m650 -170 c14 -11 32 -20 39 -20 19 0 17 -31 -5
-84 -22 -49 -57 -90 -70 -81 -5 3 -29 5 -53 6 -73 1 -148 21 -159 41 -15 29
18 77 76 111 86 51 132 58 172 27z m3967 -314 c7 -28 14 -58 14 -66 0 -8 3
-24 5 -35 3 -11 6 -24 7 -30 1 -5 2 -50 1 -100 -1 -62 -4 -85 -11 -75 -5 8
-10 12 -10 8 0 -4 -15 -2 -32 4 -18 6 -65 12 -105 13 -39 2 -88 8 -109 15 -20
7 -56 12 -80 12 -36 -1 -46 3 -62 26 -40 56 -38 66 25 126 60 58 125 95 203
117 25 7 58 21 73 30 44 26 64 14 81 -45z m-4048 25 c6 -1 18 -26 28 -55 13
-44 16 -77 11 -162 -3 -59 -8 -110 -10 -114 -3 -5 -8 -32 -11 -62 -7 -69 -21
-123 -44 -173 -22 -46 -86 -263 -93 -315 -3 -19 -8 -46 -11 -60 -10 -36 -29
-280 -30 -375 0 -44 5 -107 12 -140 7 -33 14 -83 15 -111 2 -28 6 -55 9 -60 3
-5 9 -25 14 -44 4 -19 8 -37 9 -40 1 -3 9 -23 19 -45 27 -62 58 -164 51 -175
-3 -5 0 -12 6 -15 11 -7 49 -89 49 -106 0 -11 -87 -12 -94 0 -3 4 -29 11 -58
14 -89 9 -214 88 -312 196 -73 81 -291 291 -302 291 -3 0 -39 16 -79 35 -59
29 -86 36 -137 37 -35 0 -73 -2 -86 -6 -14 -5 -22 -3 -22 5 0 27 25 96 49 134
14 22 27 51 29 65 2 14 14 57 26 95 37 112 56 176 56 191 0 7 9 29 19 48 11
18 24 49 29 67 19 65 94 254 102 257 4 2 25 36 46 77 20 41 41 75 46 75 4 0 8
4 8 10 0 5 36 62 79 127 100 148 220 272 314 325 28 16 79 18 263 9z m3424
-256 c32 -18 50 -19 50 -2 0 9 10 12 30 9 23 -3 39 -16 62 -49 26 -39 30 -52
26 -92 -6 -65 -42 -131 -86 -160 -29 -19 -54 -26 -113 -29 -69 -4 -79 -2 -99
18 -13 13 -20 29 -17 41 3 10 1 19 -4 19 -5 0 -8 3 -7 8 1 4 -2 26 -6 50 -7
36 -4 52 20 100 31 63 52 88 80 95 31 8 38 7 64 -8z m386 -140 c27 -7 61 -13
75 -11 14 2 45 0 70 -3 l44 -6 -50 -18 c-27 -10 -54 -19 -60 -20 -5 -1 -14 -5
-20 -8 -5 -3 -33 -7 -62 -8 -28 -1 -65 -6 -82 -11 -17 -5 -31 -7 -31 -5 0 2 5
27 11 55 12 57 21 60 105 35z m-291 -307 c9 -24 24 -51 32 -60 9 -10 13 -18 9
-18 -4 0 5 -12 19 -27 14 -15 25 -34 25 -42 0 -8 3 -11 7 -8 3 4 18 -10 32
-31 28 -42 54 -66 92 -87 15 -8 77 -63 138 -123 61 -60 113 -107 115 -105 8 8
122 -132 143 -176 13 -25 23 -46 23 -47 0 -1 -75 -39 -166 -85 -296 -150 -319
-163 -410 -229 -196 -142 -236 -175 -267 -223 -9 -15 -21 -27 -26 -27 -5 0
-11 24 -15 53 -7 49 -21 114 -34 147 -10 28 -26 243 -24 340 1 36 1 83 1 105
1 22 10 108 20 190 19 140 35 217 77 355 9 30 18 69 21 87 3 18 10 30 17 28 6
-2 40 2 76 9 36 8 68 14 71 15 4 0 14 -18 24 -41z"/>
<path d="M1973 2359 c-55 -13 -153 -104 -153 -142 0 -48 67 -60 90 -16 6 10
28 28 48 38 50 26 191 20 237 -9 93 -59 117 -59 135 -4 10 29 9 39 -5 60 -9
14 -24 27 -33 30 -9 3 -33 13 -52 23 -21 11 -61 19 -100 20 -36 1 -78 4 -95 6
-16 2 -49 -1 -72 -6z"/>
<path d="M3535 2324 c-15 -8 -35 -14 -44 -14 -9 0 -29 -7 -46 -16 -16 -9 -42
-23 -56 -31 -15 -7 -32 -27 -39 -43 -11 -26 -10 -33 5 -50 24 -27 67 -25 111
5 20 14 40 23 44 20 5 -3 10 0 12 6 2 7 34 13 76 16 70 3 75 2 119 -32 69 -53
109 -44 119 25 5 30 -21 89 -33 76 -6 -6 -79 29 -87 43 -9 14 -151 11 -181 -5z"/>
<path d="M2120 2070 c0 -6 -7 -18 -15 -26 -8 -9 -15 -24 -15 -35 0 -24 46 -73
60 -64 6 3 10 1 10 -5 0 -18 19 -1 36 31 20 40 11 85 -21 93 -13 3 -30 9 -39
12 -9 3 -16 1 -16 -6z"/>
<path d="M3570 2033 c-8 -2 -23 -15 -33 -28 -27 -38 -11 -87 32 -99 30 -8 36
-7 52 13 26 32 24 78 -3 102 -13 10 -25 18 -28 18 -3 -1 -12 -3 -20 -6z"/>
<path d="M2718 1672 c-9 -9 -18 -28 -21 -42 -5 -21 0 -29 31 -50 35 -23 45
-25 163 -25 139 1 153 6 164 56 13 58 -42 87 -104 55 -32 -17 -111 -19 -111
-3 0 6 -3 8 -6 4 -3 -3 -16 -2 -28 2 -53 20 -73 21 -88 3z"/>
<path d="M2302 1238 c-15 -15 -15 -40 -1 -87 8 -27 20 -40 50 -54 22 -11 61
-33 87 -50 26 -18 58 -33 71 -35 13 -2 39 -12 57 -23 19 -10 38 -18 42 -17 9
2 64 -13 77 -21 17 -10 235 -11 299 -1 100 16 170 31 181 40 6 4 27 13 47 19
96 31 202 109 210 156 12 61 -85 96 -114 41 -17 -32 -32 -44 -74 -60 -22 -8
-48 -18 -59 -22 -11 -4 -24 -9 -30 -9 -24 -4 -73 -18 -107 -31 -21 -7 -86 -17
-146 -20 -87 -5 -124 -3 -188 11 -43 11 -81 20 -84 21 -3 1 -15 5 -27 9 -13 4
-23 11 -23 15 0 4 -14 10 -30 14 -17 3 -51 19 -75 36 -24 16 -46 30 -49 30 -3
0 -17 11 -32 25 -29 27 -63 32 -82 13z"/>
</g>
</svg>
