<?xml version="1.0" standalone="no"?>
<!DOCTYPE svg PUBLIC "-//W3C//DTD SVG 20010904//EN"
 "http://www.w3.org/TR/2001/REC-SVG-20010904/DTD/svg10.dtd">
<svg version="1.0" xmlns="http://www.w3.org/2000/svg"
 width="307.000000pt" height="457.000000pt" viewBox="0 0 307.000000 457.000000"
 preserveAspectRatio="xMidYMid meet">
<metadata>
Created by potrace 1.16, written by Peter Selinger 2001-2019
</metadata>
<g transform="translate(0.000000,457.000000) scale(0.100000,-0.100000)"
fill="#000000" stroke="none">
<path d="M1455 4483 c-16 -3 -37 -11 -45 -18 -8 -7 -55 -24 -105 -38 -94 -26
-157 -48 -165 -58 -3 -3 -18 -13 -35 -22 -34 -17 -115 -99 -115 -116 0 -6 -4
-11 -10 -11 -5 0 -10 -7 -10 -15 0 -8 -4 -15 -10 -15 -5 0 -10 -8 -10 -17 0
-10 -13 -43 -29 -75 -35 -69 -80 -211 -91 -287 -13 -88 -2 -245 21 -304 28
-71 60 -141 68 -147 3 -3 21 -25 40 -50 19 -25 50 -58 68 -73 37 -32 42 -47
14 -47 -10 0 -52 -13 -92 -30 -41 -16 -78 -30 -83 -30 -5 0 -24 -11 -42 -25
-18 -14 -36 -25 -41 -25 -4 0 -21 -14 -37 -30 -16 -17 -33 -30 -37 -30 -5 0
-28 -21 -51 -47 -24 -26 -54 -58 -68 -73 -14 -14 -40 -57 -58 -95 -18 -39 -38
-78 -43 -88 -29 -54 -68 -200 -73 -277 -3 -47 -10 -119 -14 -160 -13 -120 -4
-567 13 -652 5 -26 4 -43 -6 -54 -8 -9 -9 -18 -3 -22 5 -4 11 -25 13 -47 1
-22 7 -44 12 -50 6 -6 104 -10 252 -10 l242 0 -2 -40 c-2 -22 -7 -69 -13 -105
-5 -36 -12 -83 -15 -105 -9 -67 -25 -244 -23 -252 3 -13 -14 -77 -23 -89 -5
-6 -14 -51 -19 -100 -16 -159 -39 -351 -44 -365 -3 -8 -8 -32 -10 -54 -3 -22
-9 -54 -15 -72 -5 -17 -7 -34 -4 -37 3 -3 1 -18 -4 -33 -36 -98 -37 -110 -12
-147 l24 -35 85 4 c47 3 133 8 192 11 80 5 111 4 123 -6 10 -9 15 -9 15 -1 0
12 177 14 185 1 2 -4 19 -7 37 -8 55 -2 108 55 73 80 -11 8 11 126 27 146 12
14 47 198 54 287 3 33 10 78 16 100 6 22 12 70 13 106 2 37 8 76 14 87 6 11
11 42 11 69 l1 48 23 -66 c13 -37 29 -76 36 -88 6 -12 13 -30 15 -39 3 -9 16
-64 29 -122 14 -58 31 -140 37 -183 6 -42 15 -80 20 -83 5 -2 14 -24 21 -47
15 -54 13 -48 26 -82 7 -16 19 -42 27 -57 9 -15 16 -31 15 -35 -1 -30 15 -75
34 -93 20 -18 28 -20 67 -11 24 5 69 15 99 21 30 7 77 18 103 27 47 15 75 18
237 29 100 7 120 11 114 27 -3 8 2 20 11 27 20 17 20 20 -16 60 -43 48 -65
101 -83 198 -9 46 -20 91 -25 100 -4 9 -12 35 -16 56 -3 22 -17 60 -29 85 -13
26 -26 61 -29 79 -4 19 -15 46 -26 60 -39 56 -83 188 -103 307 -5 33 -14 76
-19 95 -5 19 -11 60 -14 90 -3 30 -10 56 -15 58 -6 2 -10 25 -10 52 0 56 0 57
138 65 l83 4 47 47 47 47 -2 141 c-3 223 -11 429 -18 456 -3 14 -8 62 -10 107
-3 45 -11 101 -19 125 -8 24 -17 54 -20 68 -8 42 -22 81 -59 170 -59 142 -84
193 -116 235 -17 22 -34 45 -38 50 -29 39 -102 112 -123 123 -14 7 -33 21 -43
30 -11 9 -24 17 -30 17 -7 0 -43 12 -82 27 -38 15 -104 36 -145 48 -41 12 -81
23 -88 25 -8 3 1 17 24 37 72 63 129 123 145 153 102 185 127 274 136 471 5
100 2 137 -16 222 -12 56 -29 119 -37 139 -15 36 -119 153 -137 153 -4 0 -20
11 -35 25 -15 14 -32 25 -39 25 -7 0 -13 5 -13 10 0 6 -7 10 -16 10 -9 0 -28
8 -42 19 -15 10 -47 22 -72 26 -25 3 -52 8 -60 9 -8 2 -28 1 -45 -1z m153
-160 c28 -14 52 -29 52 -34 0 -5 7 -9 15 -9 8 0 15 -7 15 -16 0 -8 5 -12 10
-9 6 4 21 -3 33 -14 12 -11 34 -30 50 -43 64 -54 97 -350 55 -505 -10 -40 -21
-81 -23 -91 -12 -65 -145 -260 -177 -262 -5 0 -16 -8 -26 -17 -34 -33 -85 -68
-95 -65 -6 2 -13 -2 -17 -9 -4 -6 -19 -13 -33 -14 -14 -2 -30 -6 -35 -9 -46
-28 -174 -5 -259 46 -61 37 -183 169 -183 198 0 10 -4 21 -9 24 -4 3 -12 20
-16 38 -4 18 -8 35 -9 38 -1 3 -5 12 -11 20 -18 28 -10 200 14 290 40 153 139
330 204 366 203 113 327 134 445 77z m-221 -1242 c2 -9 16 -23 31 -31 23 -13
36 -14 87 -2 111 23 271 -4 413 -71 57 -27 149 -96 157 -118 3 -9 17 -29 31
-45 13 -16 36 -54 50 -84 15 -30 35 -73 45 -94 11 -22 19 -44 19 -50 0 -5 7
-17 15 -26 8 -9 24 -48 34 -86 10 -38 26 -94 34 -124 22 -79 39 -334 29 -435
-1 -11 1 -68 4 -127 11 -183 1 -196 -142 -205 l-81 -5 -8 48 c-11 64 -9 59
-35 134 -12 36 -24 75 -26 87 -2 12 -9 34 -14 48 -6 15 -10 37 -10 51 0 14 -9
43 -19 65 -11 22 -27 70 -36 107 -9 37 -23 81 -31 99 -8 17 -14 38 -14 47 0 9
-3 16 -8 16 -8 0 -32 93 -32 126 0 11 -5 25 -10 30 -15 15 -52 114 -55 144 -4
49 -15 67 -50 77 -28 9 -36 8 -48 -6 -22 -25 -27 -72 -11 -103 8 -16 12 -28
10 -28 -3 0 6 -24 18 -52 13 -29 33 -90 44 -135 11 -45 27 -94 35 -110 18 -36
103 -310 111 -358 2 -11 6 -27 9 -35 4 -8 8 -27 11 -42 3 -15 8 -33 12 -40 9
-14 23 -76 30 -135 6 -41 5 -42 -28 -47 -72 -13 -139 -18 -273 -23 -253 -10
-329 -10 -360 -1 -16 5 -87 9 -158 8 l-127 -1 -10 27 c-6 15 -8 35 -5 44 11
34 16 136 20 390 3 140 6 333 8 428 3 94 0 172 -4 172 -5 0 -9 6 -9 14 0 23
-48 25 -76 3 -23 -18 -25 -24 -19 -67 7 -54 7 -95 0 -390 -10 -416 -16 -518
-32 -560 -3 -8 -5 -22 -4 -30 1 -12 -18 -16 -101 -19 -130 -6 -175 -5 -213 1
-16 3 -35 6 -41 7 -11 1 -22 25 -29 66 -7 34 -18 293 -18 415 -1 95 6 249 18
425 3 49 17 105 26 111 5 3 9 14 9 25 0 10 5 19 10 19 6 0 10 11 10 24 0 13
23 58 50 99 28 41 50 77 50 80 0 22 147 147 173 147 8 0 17 4 19 9 2 4 23 20
47 35 81 51 248 80 322 56 29 -10 45 -10 62 -2 49 24 78 25 84 3z m614 -1647
c2 -22 4 -28 17 -51 14 -24 22 -64 27 -133 2 -25 6 -52 8 -60 17 -50 28 -91
32 -125 7 -51 44 -172 66 -215 38 -72 78 -167 100 -235 13 -38 26 -72 30 -75
3 -3 9 -21 11 -40 7 -50 57 -242 69 -263 8 -16 3 -17 -66 -16 -41 1 -81 -3
-88 -9 -16 -13 -111 -39 -170 -47 -49 -6 -83 7 -71 27 3 5 -1 15 -8 21 -8 7
-21 28 -28 47 -7 19 -21 55 -32 80 -11 25 -32 99 -45 165 -14 66 -27 129 -30
140 -3 11 -9 38 -13 60 -11 52 -38 135 -49 149 -14 18 -40 103 -37 122 2 10
-3 29 -11 43 -7 15 -13 32 -13 38 0 7 -11 34 -25 60 -13 27 -27 56 -29 66 -7
22 -44 36 -78 30 -23 -4 -27 -11 -33 -61 -4 -32 -11 -64 -15 -73 -5 -8 -11
-47 -14 -85 -2 -38 -5 -69 -6 -69 -1 0 -3 -27 -5 -60 -3 -62 -9 -98 -20 -115
-3 -5 -2 -17 3 -26 8 -15 -7 -108 -22 -132 -3 -6 -8 -36 -11 -67 -3 -31 -7
-60 -9 -64 -2 -3 -9 -41 -15 -83 -6 -42 -18 -96 -27 -120 -8 -24 -19 -56 -23
-73 l-7 -30 -164 -1 c-91 -1 -206 -5 -255 -9 l-91 -8 8 74 c4 41 16 121 28
179 11 58 22 128 24 155 11 134 25 255 31 264 3 6 8 19 10 28 3 10 9 38 15 63
7 25 13 83 15 130 2 47 8 105 14 130 5 25 15 91 21 148 6 57 13 109 16 116 3
8 24 12 62 11 31 -1 80 1 107 5 28 3 74 0 106 -7 65 -14 75 -14 324 -7 105 2
224 11 265 18 80 14 99 12 101 -10z"/>
</g>
</svg>
