<?xml version="1.0" standalone="no"?>
<!DOCTYPE svg PUBLIC "-//W3C//DTD SVG 20010904//EN"
 "http://www.w3.org/TR/2001/REC-SVG-20010904/DTD/svg10.dtd">
<svg version="1.0" xmlns="http://www.w3.org/2000/svg"
 width="517.000000pt" height="479.000000pt" viewBox="0 0 517.000000 479.000000"
 preserveAspectRatio="xMidYMid meet">
<metadata>
Created by potrace 1.16, written by Peter Selinger 2001-2019
</metadata>
<g transform="translate(0.000000,479.000000) scale(0.100000,-0.100000)"
fill="#000000" stroke="none">
<path d="M2340 4660 c-75 -13 -165 -34 -170 -41 -3 -3 -16 -9 -30 -12 -14 -3
-63 -27 -110 -53 -47 -25 -97 -53 -112 -61 -26 -13 -168 -147 -168 -158 0 -3
-8 -13 -17 -23 -71 -74 -103 -113 -103 -126 0 -8 -5 -27 -12 -43 -13 -33 -16
-45 -24 -98 -4 -22 -9 -42 -13 -45 -15 -10 -29 -124 -19 -152 6 -16 8 -35 5
-43 -3 -7 -2 -29 4 -47 5 -18 12 -53 15 -78 3 -25 10 -49 15 -55 5 -5 9 -15 9
-22 0 -7 10 -30 23 -51 39 -63 40 -71 7 -90 -16 -9 -30 -22 -30 -28 0 -5 -10
-21 -21 -33 -27 -29 -38 -77 -39 -161 0 -58 4 -71 35 -117 19 -29 35 -55 35
-58 0 -3 8 -13 18 -23 34 -37 59 -76 102 -160 21 -41 75 -92 97 -92 14 0 20
-27 29 -115 6 -67 49 -215 80 -273 7 -15 14 -34 14 -42 0 -16 -68 -80 -85 -80
-22 0 -133 -127 -159 -181 -14 -31 -26 -61 -26 -66 0 -9 -34 -21 -105 -39 -5
-1 -39 -9 -75 -19 -36 -9 -87 -18 -115 -21 -27 -2 -57 -7 -65 -11 -27 -11
-109 -28 -290 -58 -190 -33 -272 -51 -280 -64 -3 -7 -14 -9 -23 -5 -9 3 -17 2
-17 -4 0 -5 -21 -13 -48 -17 -49 -7 -102 -21 -139 -38 -11 -5 -25 -7 -30 -4
-18 11 -93 -34 -99 -59 -3 -13 -10 -24 -15 -24 -5 0 -9 -7 -9 -15 0 -8 5 -15
11 -15 5 0 7 -5 3 -12 -8 -13 -10 -80 -18 -478 -6 -337 -15 -587 -21 -620 -3
-14 -7 -54 -10 -90 -2 -36 -11 -94 -19 -130 -17 -71 -29 -170 -30 -240 -1 -38
3 -46 26 -60 52 -29 85 16 93 126 8 114 16 173 35 267 6 33 9 64 7 70 -2 7 0
41 5 77 4 36 10 166 13 290 2 124 7 326 11 450 3 124 6 236 6 250 0 14 2 40 4
58 6 40 34 53 152 71 46 7 111 25 145 41 34 15 76 30 92 31 17 2 36 8 43 13 8
6 45 11 82 11 40 1 76 7 85 15 8 7 15 10 15 8 0 -3 19 -1 43 3 23 5 60 12 82
15 22 3 56 10 75 16 19 6 60 14 90 18 68 11 214 45 230 55 8 5 9 -3 4 -32 -4
-21 -7 -47 -6 -57 0 -11 -3 -27 -8 -37 -7 -12 -5 -20 4 -28 9 -7 12 -23 9 -42
-9 -59 22 -120 107 -208 43 -45 79 -84 80 -86 0 -3 0 -9 0 -15 0 -11 56 -42
85 -46 11 -2 40 -7 65 -10 25 -4 51 -13 58 -21 8 -8 22 -11 32 -8 10 3 21 1
25 -5 3 -6 10 -8 14 -6 4 3 24 1 44 -3 43 -10 51 -3 92 79 15 30 38 69 51 86
13 17 24 36 24 42 0 6 17 31 39 56 l39 45 15 -32 c25 -51 62 -161 59 -174 -2
-7 1 -13 6 -13 4 0 15 -21 24 -47 21 -63 23 -303 3 -430 -8 -51 -15 -110 -15
-130 -1 -21 -10 -63 -21 -93 -34 -94 -26 -175 18 -186 41 -11 68 28 70 101 1
33 4 74 8 90 3 17 8 59 11 95 3 36 12 92 19 125 7 33 16 91 19 129 4 38 9 72
12 75 11 11 23 -26 29 -89 6 -55 23 -173 41 -285 3 -16 8 -37 11 -45 4 -8 6
-18 5 -21 -1 -4 3 -22 9 -40 6 -19 12 -45 15 -59 4 -26 6 -144 3 -170 -6 -52
1 -69 37 -80 31 -10 38 -10 56 7 18 16 20 25 14 93 -16 176 -16 174 -40 267
-22 83 -44 234 -52 358 -4 55 -8 103 -11 107 -5 9 18 91 28 98 3 3 21 37 39
75 84 182 97 211 102 225 5 12 7 11 13 -5 4 -11 13 -33 20 -50 34 -78 41 -101
37 -113 -2 -7 6 -24 19 -38 31 -34 108 -33 164 1 22 14 50 29 63 35 53 24 69
32 97 48 16 9 37 25 46 34 9 10 20 18 23 18 4 0 25 17 46 39 61 62 94 137 106
246 10 84 10 84 54 79 22 -3 83 -18 135 -34 96 -30 235 -61 290 -65 17 -1 32
-3 35 -5 3 -1 26 -4 52 -5 27 -1 54 -8 62 -14 8 -7 34 -14 58 -16 72 -7 118
-16 124 -26 3 -5 9 -7 13 -4 5 2 23 0 42 -6 55 -17 102 -29 134 -35 30 -5 58
-30 50 -44 -2 -4 0 -22 5 -41 6 -19 11 -63 11 -99 1 -36 5 -90 10 -120 4 -30
9 -93 10 -140 1 -47 8 -103 15 -125 7 -22 20 -107 29 -190 10 -82 20 -154 24
-160 6 -11 8 -30 17 -172 3 -51 10 -93 15 -93 5 0 8 -3 7 -7 -1 -5 2 -28 7
-53 4 -25 9 -52 10 -60 1 -8 5 -22 8 -30 9 -21 16 -65 22 -130 8 -81 21 -113
52 -127 42 -19 71 -7 82 33 7 25 6 42 -4 62 -8 15 -16 52 -19 82 -6 60 -13 94
-28 140 -16 49 -47 200 -47 230 1 20 -6 76 -16 124 -9 49 -18 110 -20 135 -3
48 -19 142 -36 221 -5 25 -12 88 -15 140 -3 52 -8 99 -12 104 -4 6 -7 58 -8
116 -1 88 -8 147 -28 250 -5 24 -70 70 -101 71 -17 1 -39 5 -50 9 -47 19 -126
40 -148 40 -13 0 -27 3 -31 7 -10 10 -35 14 -80 14 -22 -1 -42 3 -45 8 -6 9
-21 11 -196 31 -55 7 -104 15 -110 18 -5 4 -16 7 -24 9 -7 1 -36 7 -65 14 -28
7 -53 11 -55 10 -2 -2 -7 2 -10 8 -4 5 -20 12 -36 15 -16 3 -41 10 -55 15 -14
5 -42 12 -62 16 -21 3 -38 10 -38 15 0 6 -9 6 -25 0 -22 -8 -25 -6 -34 25 -5
19 -27 63 -48 97 -21 35 -52 90 -69 123 -18 33 -37 59 -44 57 -6 -1 -9 2 -6 7
3 5 -19 27 -49 50 -30 23 -55 44 -55 47 0 2 24 39 53 82 65 95 97 150 97 164
0 6 6 19 14 27 8 9 17 27 19 41 3 14 19 55 37 93 27 55 37 67 56 67 27 0 65
18 77 38 4 6 20 24 34 40 27 29 68 102 57 102 -4 0 -2 6 4 13 17 20 52 204 52
272 0 35 -7 79 -15 99 -8 20 -12 36 -8 36 4 0 -6 13 -21 29 -23 24 -27 35 -21
58 4 15 9 39 12 53 2 13 8 29 13 35 10 12 16 84 8 105 -5 12 -19 84 -32 160
-1 8 -14 40 -29 71 -15 31 -27 61 -27 66 0 6 -6 13 -14 16 -7 3 -17 22 -20 42
-4 20 -14 39 -22 42 -7 3 -14 11 -14 19 0 8 -4 14 -10 14 -5 0 -10 10 -10 23
0 12 -11 32 -23 44 -13 12 -35 38 -48 57 -13 20 -30 36 -36 36 -7 0 -13 5 -13
11 0 5 -4 8 -9 5 -4 -3 -24 10 -44 29 -20 19 -41 35 -47 35 -6 0 -26 11 -43
24 -18 13 -39 23 -47 23 -33 0 -94 14 -107 25 -9 7 -61 11 -138 12 -120 1
-124 2 -147 27 -42 49 -219 126 -308 135 -101 10 -137 11 -180 4z m188 -115
c23 -4 42 -12 42 -18 0 -6 3 -8 6 -4 4 3 18 0 33 -7 14 -7 31 -11 37 -9 6 2
17 -3 24 -12 7 -8 20 -15 30 -15 10 0 23 -7 30 -15 7 -9 15 -13 18 -11 2 3 16
-4 30 -14 13 -11 32 -20 41 -20 12 0 13 -2 3 -9 -7 -4 -15 -25 -17 -47 -7 -59
-10 -71 -21 -85 -5 -8 -17 -30 -27 -50 -11 -20 -32 -51 -48 -68 -16 -18 -29
-36 -29 -40 0 -9 -68 -81 -77 -81 -5 0 -24 -16 -43 -35 -19 -19 -39 -35 -45
-35 -5 0 -33 -11 -61 -24 -47 -22 -265 -67 -342 -70 -41 -2 -63 -24 -67 -67
-15 -150 -31 -202 -85 -279 -10 -14 -21 -36 -25 -50 -11 -34 -54 -90 -70 -90
-7 0 -24 21 -37 48 -14 26 -46 86 -71 135 -80 149 -101 295 -63 427 9 30 19
69 22 85 10 50 32 90 82 140 26 26 54 58 62 70 8 13 35 39 60 59 25 20 54 45
65 55 22 20 151 91 175 96 50 11 120 30 155 40 40 13 134 13 213 0z m571 -189
c6 -4 26 -9 46 -11 36 -5 110 -38 117 -52 1 -5 20 -17 41 -27 21 -11 42 -27
47 -36 5 -9 24 -33 44 -54 19 -22 42 -54 51 -73 9 -19 30 -54 46 -78 16 -23
29 -47 29 -51 0 -5 7 -22 16 -39 36 -68 53 -162 44 -251 -4 -46 -12 -90 -19
-97 -14 -18 -61 -10 -61 10 0 8 -5 11 -10 8 -6 -3 -27 7 -47 24 -20 16 -40 28
-44 25 -5 -3 -26 7 -48 21 -23 14 -45 25 -51 25 -19 0 -100 40 -100 50 0 5 -9
12 -21 15 -26 8 -186 168 -200 198 -5 12 -13 29 -18 37 -6 8 -24 46 -42 83
-18 37 -36 70 -41 73 -10 7 -10 47 0 60 8 8 40 88 55 136 5 14 18 16 81 13 41
-2 80 -6 85 -9z m-268 -359 c7 -17 15 -34 18 -37 11 -10 61 -86 61 -93 0 -4
36 -42 81 -84 108 -104 107 -103 114 -103 3 0 20 -13 38 -30 18 -16 36 -30 40
-30 8 0 61 -23 147 -63 85 -40 143 -87 134 -110 -14 -38 79 -84 106 -52 7 8
16 15 20 15 13 0 41 -69 36 -88 -3 -9 -8 -41 -11 -71 -13 -117 -60 -235 -97
-244 -11 -3 -32 -1 -48 5 -34 11 -53 -1 -64 -42 -4 -14 -11 -34 -16 -45 -5
-11 -21 -49 -37 -85 -15 -36 -28 -67 -28 -70 -1 -17 -103 -206 -122 -228 -7
-7 -13 -17 -13 -21 0 -5 -13 -21 -28 -37 -16 -17 -31 -38 -35 -47 -3 -9 -13
-17 -22 -17 -8 0 -15 -3 -15 -7 0 -21 -149 -155 -270 -244 -42 -31 -111 -59
-145 -59 -13 0 -27 -5 -30 -10 -9 -14 -180 -7 -218 8 -16 7 -32 12 -37 12 -16
0 -82 40 -130 78 -129 102 -213 228 -256 383 -18 66 -35 208 -27 222 3 4 0 13
-5 20 -5 7 -12 41 -16 77 -5 55 -11 68 -37 92 -33 30 -73 37 -83 13 -7 -18
-26 -20 -26 -2 0 10 -51 79 -120 164 -19 23 -27 58 -25 107 2 37 9 54 29 75
29 29 40 23 52 -29 28 -120 81 -138 158 -55 54 58 88 102 106 139 8 17 18 33
22 34 4 2 8 8 8 13 0 5 10 20 22 34 21 24 68 146 83 215 9 42 22 55 60 63 17
4 61 13 99 22 38 8 72 13 76 10 3 -2 19 3 34 11 16 7 34 14 41 14 17 0 101 38
117 53 18 16 49 36 68 44 8 3 44 38 80 78 62 68 66 71 81 53 9 -10 23 -33 30
-51z m360 -1734 c48 -23 114 -96 129 -144 8 -22 17 -42 21 -45 18 -11 82 -159
87 -199 7 -69 -7 -175 -24 -175 -8 0 -13 -3 -12 -7 10 -46 -84 -142 -190 -195
-35 -18 -66 -36 -68 -40 -3 -4 -15 -8 -28 -8 -23 0 -66 47 -66 73 0 8 -17 50
-39 93 -50 104 -54 114 -36 114 8 0 15 3 15 8 0 4 15 14 33 21 45 21 78 54 77
79 0 12 0 32 1 45 1 31 1 53 -2 122 -3 80 21 185 43 185 4 0 10 20 14 45 3 25
7 45 9 45 1 0 17 -8 36 -17z m-1171 -88 c6 -35 6 -85 0 -132 -9 -69 -8 -79 11
-109 48 -78 188 -178 266 -190 24 -3 43 -10 43 -15 0 -14 -52 -89 -61 -89 -5
0 -9 -7 -9 -15 0 -8 -3 -15 -8 -15 -4 0 -18 -21 -32 -47 -14 -27 -32 -56 -42
-67 -9 -10 -22 -32 -29 -48 -12 -29 -14 -30 -58 -24 -25 3 -47 10 -51 15 -3 6
-18 8 -33 7 -15 -2 -27 0 -27 5 0 4 -14 7 -30 7 -24 -1 -40 9 -75 48 -25 27
-53 61 -62 77 -10 15 -21 27 -26 27 -13 0 -52 52 -53 70 0 8 -4 41 -8 73 -8
62 4 131 34 202 9 22 23 57 30 78 16 51 187 216 208 202 1 -1 7 -28 12 -60z
m965 -57 c-3 -13 -8 -66 -9 -119 -3 -80 -7 -102 -24 -127 -24 -33 -73 -57 -98
-48 -9 4 -22 2 -29 -4 -51 -42 -515 11 -569 65 -8 8 -19 15 -24 15 -9 0 -42
25 -73 55 -9 9 -19 29 -22 45 -7 35 3 130 14 130 4 0 24 -16 43 -35 20 -19 38
-35 41 -35 2 0 32 -13 67 -30 63 -29 205 -73 217 -66 3 2 40 7 81 10 83 8 120
15 135 26 6 5 28 12 50 16 21 4 48 15 59 25 11 11 25 19 31 19 6 0 22 10 35
23 22 20 70 54 79 56 2 1 0 -9 -4 -21z m-420 -423 c87 -7 204 -7 215 0 11 7
40 -22 40 -40 0 -24 -50 -174 -60 -180 -6 -3 -10 -15 -10 -25 0 -10 -7 -25
-15 -34 -9 -8 -16 -19 -15 -23 0 -4 -8 -27 -16 -50 -17 -43 -27 -52 -39 -33
-3 6 -15 10 -26 10 -23 0 -49 22 -49 40 0 7 -9 29 -19 49 -11 20 -29 70 -41
111 -12 41 -29 88 -37 104 -9 17 -19 43 -24 59 -8 27 -6 29 14 23 12 -4 49 -9
82 -11z"/>
<path d="M2332 3549 c-13 -5 -28 -7 -33 -3 -5 3 -9 1 -9 -4 0 -5 -12 -12 -28
-15 -38 -8 -82 -44 -82 -68 0 -33 36 -60 76 -56 19 2 40 9 46 15 15 15 88 16
88 2 0 -17 35 -11 58 10 25 23 30 77 10 102 -16 19 -94 30 -126 17z"/>
<path d="M2986 3502 c-3 -5 -24 -15 -48 -22 -90 -28 -121 -74 -84 -122 18 -25
36 -23 103 12 57 30 113 40 113 20 0 -5 7 -10 15 -10 9 0 18 -6 21 -13 3 -9
16 -12 35 -9 55 8 66 93 17 131 -21 17 -41 21 -96 21 -39 0 -73 -4 -76 -8z"/>
<path d="M2327 3379 c-31 -18 -39 -46 -23 -82 26 -63 106 -50 106 16 0 18 -4
37 -8 44 -12 19 -56 32 -75 22z"/>
<path d="M3008 3323 c-29 -34 -28 -51 3 -78 17 -14 34 -25 38 -25 4 0 21 12
39 28 33 27 33 27 17 60 -14 26 -22 32 -49 32 -19 0 -39 -7 -48 -17z"/>
<path d="M2501 2912 c-13 -9 -21 -25 -21 -43 0 -29 29 -68 53 -70 6 0 21 -2
32 -4 115 -18 109 -18 123 11 17 39 15 57 -9 88 -22 28 -48 33 -67 14 -9 -9
-16 -8 -30 5 -21 19 -51 19 -81 -1z"/>
<path d="M2763 2556 c-13 -6 -23 -14 -23 -18 0 -5 -8 -8 -18 -8 -10 0 -22 -4
-28 -10 -5 -5 -23 -12 -39 -14 -17 -2 -41 -8 -55 -14 -15 -5 -47 -6 -80 -2
-64 9 -85 17 -122 42 -37 26 -63 22 -87 -11 -16 -22 -19 -35 -12 -53 11 -28
58 -71 71 -63 5 3 11 1 15 -5 4 -6 10 -8 15 -5 4 3 19 -1 32 -8 63 -32 312 5
396 59 2 1 7 18 12 38 7 30 4 39 -16 61 -25 27 -28 28 -61 11z"/>
<path d="M3862 873 c-17 -7 -39 -53 -36 -78 14 -134 33 -232 55 -279 29 -61
70 -302 60 -353 -1 -7 3 -31 9 -53 8 -30 18 -44 37 -51 33 -12 47 -7 68 24 13
21 14 35 6 88 -6 35 -13 89 -17 119 -3 30 -10 75 -16 100 -5 25 -11 54 -13 65
-2 11 -4 22 -5 25 -1 3 -2 8 -1 13 1 4 -10 34 -24 68 -29 67 -45 174 -38 241
5 43 4 45 -30 61 -19 9 -37 17 -39 16 -1 0 -9 -3 -16 -6z"/>
<path d="M1156 759 c-25 -20 -26 -23 -19 -92 14 -145 4 -418 -18 -459 -6 -11
-13 -41 -14 -65 -4 -53 12 -76 58 -81 37 -4 61 21 65 68 2 19 6 49 9 65 3 17
7 62 9 100 2 39 6 104 10 145 8 88 8 69 -5 199 -8 91 -13 107 -33 123 -29 22
-30 22 -62 -3z"/>
</g>
</svg>
