<?xml version="1.0" standalone="no"?>
<!DOCTYPE svg PUBLIC "-//W3C//DTD SVG 20010904//EN"
 "http://www.w3.org/TR/2001/REC-SVG-20010904/DTD/svg10.dtd">
<svg version="1.0" xmlns="http://www.w3.org/2000/svg"
 width="413.000000pt" height="435.000000pt" viewBox="0 0 413.000000 435.000000"
 preserveAspectRatio="xMidYMid meet">
<metadata>
Created by potrace 1.16, written by Peter Selinger 2001-2019
</metadata>
<g transform="translate(0.000000,435.000000) scale(0.100000,-0.100000)"
fill="#000000" stroke="none">
<path d="M835 4124 c-61 -15 -105 -40 -142 -81 -49 -53 -62 -85 -58 -142 4
-45 58 -124 94 -136 17 -5 32 -28 45 -67 5 -16 -15 -37 -110 -113 -20 -16 -42
-34 -48 -40 -6 -5 -36 -29 -66 -51 -106 -80 -127 -108 -140 -187 -20 -118 2
-215 62 -264 19 -16 86 -24 107 -12 9 5 38 18 66 30 27 11 75 38 106 59 64 43
97 55 128 45 29 -9 42 -64 31 -132 -13 -80 2 -134 51 -178 50 -45 86 -46 132
-5 36 31 48 55 67 128 6 24 17 45 24 48 15 6 85 -29 97 -47 4 -6 30 -14 58
-17 44 -4 56 -1 85 22 19 14 38 26 43 26 14 0 51 65 64 111 6 24 13 82 14 129
3 125 0 117 48 125 97 16 135 35 162 81 30 51 59 181 52 233 -3 20 -14 70 -25
111 -22 78 -53 116 -127 157 -56 31 -203 15 -228 -24 -13 -21 -37 -15 -37 9 0
12 -8 38 -17 59 -30 70 -140 92 -222 46 l-43 -25 -36 35 c-20 19 -52 41 -70
49 -35 15 -134 26 -167 18z m148 -90 c12 -11 33 -32 47 -48 44 -51 80 -86 89
-86 5 0 32 18 60 40 28 22 61 40 73 40 43 0 52 -15 56 -91 5 -117 27 -133 105
-81 85 57 149 84 184 79 56 -10 86 -39 105 -103 28 -95 29 -143 4 -215 l-22
-64 -69 -19 c-39 -10 -71 -22 -73 -27 -2 -5 -9 -9 -15 -9 -7 0 -23 -9 -36 -19
-29 -22 -45 -105 -31 -164 12 -58 -10 -134 -50 -170 -40 -36 -77 -33 -150 12
-29 18 -57 28 -67 25 -45 -15 -83 -40 -83 -56 0 -9 -4 -19 -9 -22 -5 -4 -15
-29 -22 -56 -7 -28 -21 -57 -30 -66 -16 -14 -19 -14 -38 5 -18 18 -21 34 -22
109 -1 48 -1 92 0 99 1 6 -3 14 -9 18 -5 3 -10 16 -10 29 0 32 -31 57 -78 63
-46 6 -113 -20 -174 -68 -40 -33 -132 -69 -173 -69 -38 0 -60 36 -62 101 -1
32 4 76 10 96 13 43 73 105 131 135 21 11 52 32 70 48 17 16 59 52 93 79 67
55 74 72 61 148 -8 48 -38 95 -74 113 -30 17 -55 69 -48 106 6 36 65 94 96 94
13 0 29 4 37 9 23 15 100 5 124 -15z"/>
<path d="M2865 3389 c-44 -15 -70 -31 -100 -63 -52 -57 -65 -73 -65 -83 0 -4
-7 -21 -15 -36 -8 -16 -16 -40 -17 -55 -2 -19 -18 -38 -55 -65 l-53 -38 -62
50 c-35 28 -70 51 -78 51 -9 0 -36 9 -59 21 -34 16 -64 21 -140 21 -53 1 -109
-2 -125 -6 -16 -4 -33 -8 -39 -9 -9 -2 -63 -58 -109 -115 -32 -40 -48 -91 -42
-136 4 -25 1 -52 -5 -65 -9 -16 -9 -21 0 -21 6 0 9 -6 6 -14 -3 -8 3 -22 13
-31 14 -12 17 -25 13 -46 -3 -17 0 -38 9 -51 26 -40 28 -67 7 -73 -20 -7 -21
-14 -19 -110 2 -106 -35 -223 -131 -406 -10 -20 -19 -46 -19 -58 0 -11 -8 -30
-17 -41 -12 -14 -16 -34 -14 -72 4 -99 22 -193 42 -231 11 -21 18 -44 17 -50
-3 -12 16 -82 32 -122 16 -37 35 -345 23 -361 -10 -14 -65 -48 -113 -70 -38
-17 -80 -52 -80 -66 0 -5 -6 -15 -12 -23 -7 -7 -26 -29 -42 -49 -16 -19 -33
-33 -37 -30 -5 3 -9 0 -9 -6 0 -7 -14 -43 -31 -82 -17 -38 -37 -95 -45 -125
-8 -31 -21 -67 -28 -82 -28 -54 -64 -159 -71 -206 -4 -28 -11 -54 -15 -60 -10
-14 -33 -85 -36 -116 -5 -39 24 -62 62 -49 31 11 49 42 58 100 3 19 8 46 11
60 3 14 8 39 10 55 9 47 15 63 62 168 24 54 45 110 47 125 6 48 52 151 72 164
7 4 26 30 43 57 18 27 49 60 70 74 l39 26 -8 -27 c-5 -15 -13 -43 -19 -63 -19
-60 -13 -104 19 -160 34 -56 95 -119 116 -119 8 0 22 -9 31 -19 9 -11 21 -17
26 -14 4 3 27 -2 50 -11 23 -8 51 -17 62 -19 11 -1 26 -6 33 -11 7 -4 38 -8
70 -8 31 -1 62 -5 67 -9 26 -19 318 19 336 44 3 5 8 8 10 7 22 -8 112 73 124
111 4 11 11 19 17 19 7 0 9 20 5 61 -5 39 -3 58 3 54 6 -3 10 -13 10 -20 0 -8
15 -43 32 -77 l32 -63 -3 -170 c-8 -369 -7 -395 9 -406 14 -9 67 -5 79 7 8 7
8 107 1 165 -4 27 -4 49 0 49 7 0 5 388 -2 410 -15 45 -29 71 -43 76 -8 4 -15
18 -15 33 0 14 -12 44 -26 65 l-26 38 34 49 c18 27 36 49 39 49 3 0 16 10 29
22 14 13 36 23 50 24 73 2 116 17 157 57 24 23 43 49 43 59 0 10 4 18 10 18 9
0 29 39 60 118 7 17 16 32 21 32 5 0 9 5 9 11 0 6 7 17 15 25 8 9 15 27 15 41
0 43 -55 70 -84 41 -11 -13 -80 -131 -78 -135 2 -3 -26 -62 -42 -91 -7 -12
-24 -34 -36 -47 -21 -23 -28 -24 -104 -20 -45 2 -94 7 -111 11 -37 9 -98 46
-147 90 -21 18 -54 44 -75 58 -21 13 -53 38 -71 55 -42 39 -74 48 -96 26 -9
-9 -14 -20 -11 -25 3 -5 0 -10 -6 -12 -23 -8 14 -55 69 -88 31 -18 59 -36 62
-39 40 -49 212 -161 245 -161 20 0 13 -13 -40 -73 -63 -71 -73 -84 -79 -105
-4 -11 -20 -37 -36 -58 -19 -23 -27 -41 -21 -48 4 -6 11 -26 15 -45 10 -55
-33 -101 -107 -115 -12 -2 -41 -9 -64 -15 -47 -13 -193 -18 -238 -8 -16 4 -47
9 -67 11 -85 11 -186 52 -239 98 -53 47 -62 129 -19 178 18 21 25 48 21 74 -1
4 3 22 8 40 24 76 29 234 11 341 -13 80 -13 92 5 92 8 0 15 -4 15 -9 0 -5 5
-6 10 -3 6 4 17 2 24 -4 8 -6 44 -12 82 -13 38 -1 74 -5 79 -8 6 -4 28 -11 49
-14 37 -7 84 -31 97 -49 3 -5 9 -8 13 -8 3 1 8 1 11 0 3 0 19 -1 37 -2 27 -1
32 3 35 28 8 59 -2 70 -89 103 -85 31 -117 38 -262 56 -22 3 -44 10 -49 15 -5
5 -15 7 -22 5 -19 -8 -95 69 -95 95 0 12 -7 33 -16 47 -10 14 -20 63 -26 116
-10 104 -15 89 83 294 57 121 78 191 86 294 3 30 8 58 12 63 4 4 22 -22 40
-57 46 -92 171 -246 200 -246 5 0 11 -4 13 -8 6 -15 98 -73 138 -87 42 -15 43
-15 61 -15 6 0 9 -6 6 -13 -3 -8 4 -20 15 -28 11 -8 26 -20 34 -26 7 -7 17
-13 23 -13 6 0 11 -4 11 -8 0 -4 24 -17 52 -27 58 -20 146 -23 191 -6 36 14
37 14 31 -3 -5 -13 27 -56 42 -56 3 0 17 -13 31 -30 13 -16 31 -30 39 -30 8 0
14 -7 14 -16 0 -8 4 -12 10 -9 17 10 70 -28 70 -50 0 -13 12 -27 35 -39 19
-11 52 -34 72 -53 21 -18 66 -49 100 -69 34 -19 65 -38 68 -43 2 -5 19 -5 37
-1 18 5 59 15 91 23 34 9 70 26 86 41 15 14 30 26 34 26 10 0 88 87 119 132
17 25 29 60 34 96 4 31 11 68 16 82 6 14 11 50 13 81 1 31 8 66 14 78 7 12 12
61 12 109 0 132 -41 271 -97 326 -9 10 -11 23 -5 42 4 16 7 58 7 94 -2 91 -29
141 -120 218 -34 28 -143 43 -157 21 -5 -8 -9 -9 -9 -4 0 15 -56 18 -82 4 -15
-8 -19 -8 -13 1 4 6 11 43 16 82 8 61 6 77 -11 115 -20 46 -165 203 -187 203
-7 0 -38 11 -69 25 -66 29 -107 30 -189 4z m140 -69 c3 -5 26 -18 50 -29 26
-11 73 -49 109 -86 76 -79 89 -122 55 -192 -12 -24 -25 -43 -29 -43 -8 0 -42
-27 -82 -66 -24 -23 -89 -12 -178 32 -120 59 -187 144 -173 219 8 40 24 60 34
44 4 -7 1 -19 -7 -27 -9 -9 -11 -18 -6 -26 5 -6 12 -24 16 -39 9 -36 54 -84
89 -92 15 -4 27 -10 27 -14 0 -15 79 -51 123 -57 42 -6 50 -3 99 32 29 21 58
43 63 49 14 14 18 75 7 105 -22 55 -106 120 -155 120 -13 0 -28 5 -34 11 -16
16 -114 13 -148 -5 -16 -9 -35 -16 -42 -16 -6 0 -14 -6 -16 -12 -4 -10 -6 -10
-6 -1 -1 19 65 65 122 84 60 21 74 23 82 9z m37 -154 c11 -8 27 -12 34 -9 8 3
14 -1 14 -10 0 -9 9 -18 19 -22 33 -10 32 -41 -3 -73 -42 -38 -92 -41 -129 -7
-14 14 -30 25 -35 25 -17 0 -69 55 -75 77 -4 18 1 23 32 31 46 12 118 6 143
-12z m-677 -95 c87 -43 158 -107 185 -166 83 -182 110 -291 108 -435 -1 -63
-5 -124 -9 -135 -8 -22 -10 -12 -14 73 -1 21 -8 51 -17 67 -9 17 -21 42 -28
58 -8 15 -30 43 -49 63 -39 39 -55 40 -134 12 -54 -19 -146 -106 -151 -143 -6
-45 -17 -75 -26 -70 -13 8 -100 143 -100 155 0 6 -7 13 -15 16 -8 4 -15 12
-15 20 0 8 -4 14 -9 14 -16 0 -80 144 -81 185 -7 176 1 215 61 274 38 38 75
48 164 44 53 -2 84 -10 130 -32z m345 -83 c19 -22 46 -52 60 -65 38 -37 149
-90 205 -98 6 -1 23 -7 38 -13 16 -7 35 -12 43 -12 40 0 0 -34 -150 -127 -58
-36 -59 -37 -106 -92 -41 -48 -50 -51 -50 -13 0 41 -50 215 -75 264 -43 81
-65 129 -65 138 0 10 50 59 60 59 3 1 21 -18 40 -41z m823 -152 c26 -21 39
-42 40 -59 1 -15 5 -27 10 -27 10 0 9 -107 -2 -128 -5 -9 -20 -39 -32 -65 -22
-45 -138 -167 -158 -167 -5 0 -23 -13 -40 -29 -17 -15 -47 -36 -66 -46 -20 -9
-53 -28 -73 -41 -20 -14 -93 -52 -162 -85 -69 -33 -133 -64 -143 -70 -84 -47
-102 -52 -172 -53 -56 0 -78 3 -92 17 -11 9 -27 17 -36 17 -37 0 -23 21 34 52
55 29 64 39 81 83 10 28 21 76 25 108 3 31 10 57 15 57 5 0 11 7 15 16 14 37
158 183 224 227 30 20 69 50 88 67 19 18 53 44 75 58 22 15 51 37 64 50 14 12
31 22 38 22 7 0 14 6 16 13 3 8 35 14 94 17 110 6 110 6 157 -34z m-1043 -306
c23 -12 40 -41 46 -78 3 -15 9 -31 14 -37 4 -5 10 -34 11 -63 l4 -54 -50 7
c-27 4 -63 8 -78 10 -38 6 -91 53 -104 93 -10 31 -8 37 27 77 21 24 40 42 42
39 3 -2 16 0 29 5 32 13 37 13 59 1z m1162 -72 c29 -59 38 -100 38 -182 0
-105 -36 -226 -67 -226 -7 0 -13 -4 -13 -10 0 -5 -9 -10 -19 -10 -11 0 -21 -3
-23 -7 -9 -22 -83 -64 -122 -72 -25 -5 -56 -15 -69 -23 -24 -16 -72 -24 -197
-34 -73 -6 -77 -5 -135 30 -61 37 -101 79 -100 105 0 8 72 51 165 98 90 46
167 87 170 91 3 4 12 8 20 10 47 11 256 167 291 219 17 24 33 43 37 43 4 0 15
-15 24 -32z m-1195 -234 c-3 -3 -12 -4 -19 -1 -8 3 -5 6 6 6 11 1 17 -2 13 -5z
m113 -4 c-20 -13 -90 -13 -90 0 0 6 24 10 53 10 37 0 48 -3 37 -10z m1070
-295 c0 -24 -39 -95 -55 -102 -8 -3 -15 -10 -15 -17 -1 -32 -99 -106 -142
-106 -15 0 -38 -5 -51 -11 -20 -9 -33 -6 -75 16 -28 15 -54 35 -57 46 -4 10
-13 19 -21 19 -15 0 -19 25 -5 34 4 3 41 10 82 17 40 6 89 20 108 30 20 10 48
19 62 19 14 0 37 8 50 19 61 47 119 64 119 36z"/>
</g>
</svg>
