<?xml version="1.0" standalone="no"?>
<!DOCTYPE svg PUBLIC "-//W3C//DTD SVG 20010904//EN"
 "http://www.w3.org/TR/2001/REC-SVG-20010904/DTD/svg10.dtd">
<svg version="1.0" xmlns="http://www.w3.org/2000/svg"
 width="505.000000pt" height="407.000000pt" viewBox="0 0 505.000000 407.000000"
 preserveAspectRatio="xMidYMid meet">
<metadata>
Created by potrace 1.16, written by Peter Selinger 2001-2019
</metadata>
<g transform="translate(0.000000,407.000000) scale(0.100000,-0.100000)"
fill="#000000" stroke="none">
<path d="M3960 3991 c-14 -5 -40 -9 -58 -10 -46 -1 -87 -29 -176 -119 -41 -41
-126 -204 -126 -242 0 -16 -4 -40 -10 -54 -21 -56 -7 -347 21 -436 24 -74 74
-153 121 -190 26 -21 44 -41 40 -45 -4 -5 -1 -5 5 -1 7 4 21 3 30 -3 20 -10
65 -19 135 -28 26 -3 46 -9 43 -13 -2 -4 4 -15 15 -25 11 -10 24 -31 29 -49
14 -45 18 -111 6 -112 -38 -3 -112 -18 -120 -25 -6 -4 -51 -13 -100 -20 -50
-6 -97 -14 -105 -17 -8 -2 -32 -6 -53 -6 -26 -2 -42 -9 -53 -24 -8 -12 -21
-22 -28 -22 -8 0 -19 -7 -26 -14 -6 -8 -37 -20 -68 -27 -31 -7 -61 -16 -66
-21 -6 -4 -19 -8 -30 -8 -12 0 -45 -11 -74 -25 -50 -23 -55 -24 -83 -9 -17 8
-66 21 -110 29 -44 8 -84 17 -89 20 -4 3 -30 8 -56 11 -27 3 -52 8 -57 11 -5
3 -37 6 -71 7 -58 2 -136 28 -136 46 0 4 -13 22 -28 38 -36 38 -129 69 -237
77 -44 4 -83 9 -88 12 -7 4 -80 4 -199 0 -21 -1 -38 -4 -38 -8 0 -6 -60 -34
-97 -44 -19 -5 -55 -48 -86 -101 -14 -25 54 -74 103 -74 10 0 31 -5 47 -12 15
-7 39 -13 53 -13 93 -5 88 -3 108 -47 23 -53 36 -64 102 -88 41 -15 72 -18
152 -15 94 3 104 6 149 36 26 18 53 44 58 57 6 13 15 21 19 18 5 -3 16 4 26
16 16 18 25 20 74 13 32 -4 73 -8 92 -9 51 -4 252 -45 272 -56 9 -5 35 -12 56
-16 32 -5 48 -1 84 20 25 14 54 26 64 26 11 0 24 4 30 9 5 6 37 14 72 20 34 5
72 17 84 25 20 14 22 13 33 -8 7 -13 15 -50 19 -82 4 -32 9 -70 11 -84 5 -39
17 -198 20 -275 2 -38 8 -108 15 -155 6 -47 13 -150 16 -230 7 -239 9 -250 40
-250 13 0 14 -11 9 -68 -4 -37 -9 -76 -11 -87 -2 -11 -6 -42 -9 -70 -7 -65
-24 -142 -41 -182 -7 -18 -18 -62 -25 -98 -6 -36 -17 -71 -24 -78 -21 -21 -12
-62 40 -172 18 -38 40 -92 50 -120 17 -51 53 -174 51 -176 0 -1 -17 -2 -36 -4
-107 -9 -159 -16 -190 -25 -19 -5 -53 -10 -74 -10 -44 0 -77 -23 -69 -48 19
-60 32 -66 88 -41 35 15 217 41 297 43 59 1 81 5 95 18 16 17 15 22 -14 95
-17 43 -52 136 -78 208 -26 72 -54 141 -60 155 -11 21 -9 43 10 137 13 62 26
117 30 123 4 6 9 27 11 48 3 20 9 54 15 76 6 21 12 68 14 105 3 37 15 96 27
131 20 56 27 65 53 71 17 4 56 14 88 23 32 9 68 16 80 16 27 0 134 26 162 40
42 20 126 50 141 50 13 0 14 -8 8 -42 -4 -24 -8 -53 -9 -65 -2 -11 -6 -29 -9
-40 -3 -10 -8 -43 -11 -73 -8 -81 -13 -103 -57 -238 l-40 -122 20 -68 c11 -37
25 -89 30 -117 12 -55 69 -224 82 -240 8 -10 47 -152 57 -206 5 -28 2 -29
-107 -46 -14 -2 -38 -8 -54 -13 -15 -5 -39 -7 -52 -4 -16 4 -24 2 -24 -7 0 -7
-3 -10 -6 -6 -10 10 -64 -22 -64 -37 0 -8 -2 -20 -5 -28 -12 -29 76 -44 110
-17 6 4 46 15 89 24 44 9 82 18 86 20 3 2 37 6 75 10 38 3 75 11 82 17 21 17
15 60 -11 87 -22 24 -62 131 -49 131 3 0 1 6 -4 13 -6 6 -13 26 -17 42 -4 17
-14 44 -21 60 -25 54 -84 241 -90 286 -4 24 -11 56 -17 71 -11 30 -5 65 35
193 13 44 27 103 30 130 10 78 29 182 50 260 6 22 9 58 8 80 -2 22 -7 191 -12
375 -4 184 -11 394 -14 465 l-6 130 33 -35 c18 -19 49 -55 69 -80 20 -25 51
-60 68 -77 17 -18 31 -39 31 -46 0 -8 28 -44 61 -81 61 -66 61 -68 55 -112 -3
-25 -21 -107 -40 -182 -19 -75 -37 -157 -41 -182 -4 -25 -9 -56 -11 -70 -2
-14 -6 -59 -9 -100 -3 -41 -11 -101 -17 -132 -9 -48 -8 -59 5 -72 9 -9 22 -16
29 -16 17 0 53 25 54 37 0 4 3 44 7 88 4 44 10 112 13 150 7 87 48 289 71 355
3 8 7 22 9 30 2 8 10 46 18 83 l14 69 -44 51 c-24 29 -64 81 -87 117 -24 36
-64 86 -88 111 -24 26 -60 68 -79 95 -19 27 -45 59 -57 72 -13 13 -24 29 -24
37 -3 32 -4 36 -15 43 -6 4 -14 19 -17 34 -10 41 -46 42 -172 7 -153 -43 -147
-43 -163 16 -34 125 -34 120 17 154 72 47 151 131 151 160 0 5 5 11 10 13 6 2
12 17 14 33 2 17 10 44 17 60 19 46 21 56 20 115 0 30 4 72 10 93 13 50 -17
203 -69 347 -6 19 -11 36 -15 55 -2 9 -15 30 -30 46 -15 17 -27 35 -27 41 0 5
-4 6 -10 3 -5 -3 -10 1 -10 10 0 8 -7 18 -15 21 -8 4 -15 12 -15 20 0 8 -7 14
-15 14 -7 0 -18 7 -23 16 -5 8 -19 17 -33 19 -67 11 -116 13 -139 6z m95 -91
c3 -5 13 -10 21 -10 39 0 126 -127 140 -205 1 -6 11 -39 22 -75 34 -109 44
-167 36 -212 -4 -24 -6 -62 -5 -86 1 -50 -33 -164 -63 -207 -80 -114 -196
-168 -306 -142 -56 14 -140 60 -140 77 0 5 -14 32 -30 59 -17 27 -33 62 -35
78 -2 15 -11 80 -20 143 -16 106 -15 133 1 245 7 50 34 134 44 140 6 4 17 23
25 42 20 46 116 139 152 146 16 3 47 4 71 2 23 -2 42 1 42 6 0 12 37 12 45 -1z
m305 -1413 c1 -206 5 -275 13 -283 3 -4 6 -135 7 -293 l0 -286 -132 -47 c-73
-26 -158 -52 -188 -58 -89 -17 -192 -38 -232 -48 -36 -9 -36 -9 -44 27 -4 20
-9 95 -10 166 -3 137 -7 195 -18 285 -4 30 -9 96 -11 145 -5 135 -15 243 -30
309 -18 79 0 116 57 116 14 0 70 12 124 26 53 14 109 28 123 30 29 5 116 31
146 44 60 25 177 58 187 53 4 -2 8 -86 8 -186z m-1920 118 c112 -10 166 -30
195 -73 32 -47 31 -62 -2 -101 -34 -38 -66 -48 -156 -49 -91 -1 -151 28 -155
75 -4 36 -40 58 -109 67 -84 10 -164 29 -161 38 4 10 55 32 113 48 30 9 157 6
275 -5z"/>
<path d="M2840 3873 c-55 -17 -178 -92 -188 -115 -6 -14 -29 -9 -76 18 -38 21
-54 25 -89 19 -103 -16 -137 -53 -137 -154 0 -33 -4 -61 -9 -61 -5 0 -19 -11
-32 -25 -13 -13 -27 -25 -31 -25 -4 0 -19 -11 -32 -25 -21 -21 -26 -37 -28
-83 -2 -31 3 -72 11 -89 15 -36 100 -103 130 -103 44 0 49 -8 45 -76 -2 -51 2
-75 22 -121 31 -70 62 -100 112 -108 20 -4 51 -10 67 -14 17 -5 40 -5 51 0 26
9 85 81 109 132 19 42 25 44 60 21 33 -21 150 -24 189 -4 80 40 116 221 65
325 -13 28 -27 52 -31 53 -5 2 -8 10 -8 18 0 8 -4 14 -10 14 -5 0 -18 10 -30
22 -21 23 -27 58 -9 58 5 0 7 5 4 10 -3 6 0 13 9 16 18 7 29 49 31 124 2 45
-3 62 -24 94 -34 52 -124 93 -171 79z m57 -98 c21 -9 41 -21 45 -28 15 -23 8
-98 -11 -125 -10 -15 -28 -43 -39 -63 -18 -33 -19 -39 -5 -66 8 -17 30 -43 49
-58 69 -55 96 -159 66 -251 -22 -67 -79 -77 -167 -29 -64 35 -107 16 -138 -62
-18 -45 -65 -105 -76 -98 -4 2 -27 6 -51 9 -45 5 -59 14 -64 37 -2 8 -6 22 -9
32 -15 39 -16 49 -6 108 7 46 7 65 -3 76 -13 17 -87 49 -104 45 -17 -3 -81 64
-86 91 -3 16 4 35 22 57 21 25 36 33 73 37 39 5 48 10 53 29 3 13 11 24 17 24
6 0 3 6 -7 13 -27 20 -31 112 -5 138 10 10 26 19 34 19 21 0 86 -28 105 -44
13 -13 28 -13 110 -7 9 0 16 11 17 23 3 28 20 45 85 79 64 34 52 32 95 14z"/>
<path d="M1283 3830 c-13 -5 -23 -8 -23 -5 0 2 -35 -14 -78 -34 -52 -26 -90
-53 -115 -82 -21 -24 -48 -55 -60 -69 -12 -13 -20 -26 -18 -28 2 -2 -8 -29
-22 -60 -32 -70 -59 -151 -88 -262 -18 -72 -21 -100 -15 -192 3 -60 13 -127
22 -151 9 -23 18 -52 21 -64 3 -13 9 -23 13 -23 4 0 10 -13 13 -28 8 -38 88
-116 143 -139 41 -17 44 -21 44 -56 0 -37 -36 -163 -48 -171 -13 -7 -126 -18
-222 -21 -66 -2 -103 2 -121 11 -24 12 -30 11 -53 -7 -15 -12 -33 -35 -40 -52
-15 -35 -166 -241 -200 -272 -11 -11 -27 -32 -35 -47 -7 -15 -45 -56 -82 -93
-75 -72 -75 -72 -43 -157 8 -21 11 -38 8 -38 -3 0 2 -10 10 -22 9 -12 16 -30
16 -40 0 -10 4 -18 8 -18 5 0 14 -15 19 -32 10 -28 40 -101 98 -233 7 -16 19
-50 26 -75 15 -53 20 -58 59 -52 35 5 59 55 37 81 -6 9 -19 32 -28 51 -28 64
-57 125 -78 168 -11 23 -21 51 -21 60 0 10 -4 22 -9 28 -12 12 -61 137 -67
170 -4 21 4 35 40 70 24 25 64 71 88 102 23 31 48 63 55 70 7 7 27 33 44 57
18 25 33 44 34 42 2 -1 5 -29 8 -63 3 -34 11 -83 17 -110 23 -107 30 -141 36
-178 3 -21 8 -48 10 -60 2 -11 7 -46 10 -76 3 -30 10 -79 15 -109 5 -30 9 -85
9 -122 0 -79 16 -163 34 -178 8 -7 10 -26 6 -58 -7 -58 12 -176 40 -258 12
-33 24 -92 27 -132 5 -61 3 -78 -16 -113 -11 -22 -21 -45 -21 -51 0 -6 -12
-36 -26 -67 -31 -67 -120 -311 -139 -382 -1 -3 -6 -16 -12 -30 -22 -51 -36
-109 -29 -126 4 -9 9 -14 13 -11 3 4 12 2 18 -3 8 -7 27 -5 58 4 25 7 92 14
148 15 127 2 154 13 154 61 0 28 -4 35 -25 40 -14 4 -38 3 -55 -2 -16 -4 -67
-8 -113 -8 -76 0 -83 2 -78 18 4 10 12 40 20 68 27 95 77 240 101 289 13 28
32 70 41 95 10 25 30 69 46 98 16 29 26 58 22 63 -3 5 -14 49 -24 97 -10 48
-24 101 -31 117 -22 53 -23 59 -24 151 -1 50 -5 96 -8 101 -4 6 8 17 26 24 31
13 88 15 287 10 47 -2 98 2 113 8 40 15 64 14 71 -5 3 -9 9 -50 12 -92 8 -118
11 -139 39 -250 26 -109 31 -161 16 -190 -25 -48 -35 -83 -55 -187 -3 -11 -7
-29 -10 -40 -3 -11 -15 -58 -26 -105 -11 -47 -24 -92 -27 -100 -3 -8 -7 -19
-9 -25 -1 -5 -9 -35 -17 -65 -21 -76 -9 -95 59 -91 27 2 72 4 99 5 28 1 56 5
62 9 6 4 33 7 59 8 27 1 59 6 72 10 13 5 22 5 22 -2 0 -6 7 -6 20 1 11 6 20 8
20 5 0 -13 48 28 53 44 11 45 -33 64 -106 45 -31 -8 -60 -13 -64 -12 -4 1 -33
-2 -63 -5 -144 -18 -143 -18 -136 6 17 58 45 166 49 193 3 16 11 52 17 79 7
28 14 60 15 72 2 12 17 58 34 102 37 97 38 104 12 207 -11 44 -22 93 -25 109
-3 16 -10 51 -16 79 -6 28 -10 71 -9 96 1 25 -2 65 -5 90 -9 56 -9 69 4 205 5
61 12 166 15 235 3 69 8 148 11 175 3 28 7 64 8 80 2 17 8 59 14 95 6 36 12
84 14 108 2 47 9 52 27 19 6 -12 28 -33 49 -47 87 -58 192 -150 192 -169 0
-16 44 -21 101 -11 224 39 375 50 514 39 11 0 26 1 34 2 10 3 15 -6 17 -26 2
-41 51 -146 78 -168 48 -40 109 -58 196 -60 78 -1 89 1 127 27 56 38 71 82 53
161 -5 21 1 31 18 32 70 6 200 37 214 51 6 6 17 12 23 12 13 0 35 42 35 67 0
9 -9 36 -21 60 -18 37 -27 45 -72 59 -74 23 -104 25 -167 14 -30 -5 -73 -12
-95 -15 -22 -3 -47 -8 -55 -11 -8 -3 -35 -8 -60 -10 -79 -8 -106 -14 -169 -39
-38 -16 -71 -23 -85 -19 -19 4 -26 1 -31 -15 -3 -12 -9 -21 -13 -21 -4 -1 -68
-1 -142 -2 -74 0 -139 -4 -145 -8 -5 -4 -41 -10 -80 -14 -38 -3 -83 -9 -100
-12 -120 -20 -115 -21 -182 44 -34 33 -81 74 -105 90 -24 17 -50 39 -58 49
-31 38 -51 74 -45 83 8 13 -17 50 -34 50 -8 0 -22 7 -31 15 -10 9 -26 17 -36
19 -64 12 -139 15 -204 7 -41 -4 -76 -8 -76 -7 -1 0 9 41 21 91 l23 90 43 7
c24 5 50 6 57 3 6 -2 12 0 12 5 0 6 12 10 27 10 51 0 131 32 169 67 14 13 28
23 32 23 10 1 52 37 52 45 0 4 17 29 38 55 21 27 53 84 71 127 18 43 39 89 46
103 7 14 15 44 19 67 3 23 16 63 27 90 30 68 33 271 5 353 -25 74 -37 99 -46
97 -4 -1 -22 10 -39 26 -17 15 -34 27 -38 27 -5 -1 -17 2 -28 6 -11 3 -27 8
-35 9 -8 2 -23 8 -35 13 -85 41 -261 64 -312 42z m177 -79 c26 -6 53 -19 65
-33 14 -15 33 -24 60 -26 22 -1 60 -13 85 -26 38 -20 47 -31 63 -77 25 -72 25
-255 0 -302 -9 -17 -19 -43 -21 -56 -5 -36 -52 -171 -74 -216 -52 -101 -124
-181 -195 -216 -55 -27 -195 -51 -257 -44 -87 9 -165 78 -201 177 -24 67 -24
66 -31 168 -7 90 13 226 41 284 8 15 17 43 21 62 3 19 10 34 15 34 5 0 9 7 9
15 0 63 118 200 197 230 27 10 52 22 58 26 12 11 106 11 165 0z m-71 -1365
c13 -3 26 -8 29 -10 10 -11 3 -207 -9 -248 -5 -18 -12 -64 -15 -102 -2 -38 -6
-72 -9 -75 -4 -7 -9 -96 -21 -344 -4 -89 -10 -132 -20 -142 -8 -7 -14 -18 -14
-24 0 -5 -9 -13 -21 -16 -38 -12 -194 -23 -210 -14 -19 10 -190 2 -238 -11
-19 -5 -37 -7 -41 -5 -11 7 -21 71 -21 134 0 31 -4 74 -9 96 -5 22 -12 76 -15
120 -4 44 -9 89 -11 100 -12 61 -26 153 -26 175 0 14 -5 28 -11 32 -7 4 -11
52 -10 135 2 192 -7 173 77 170 39 -1 116 2 171 7 158 13 216 18 273 21 30 2
56 6 59 9 6 6 46 3 92 -8z m1639 -185 c9 -5 31 -14 47 -21 l30 -12 -25 -10
c-40 -16 -170 -48 -196 -48 -36 0 -74 -21 -80 -45 -3 -12 -3 -50 0 -85 4 -52
1 -66 -12 -77 -25 -18 -142 -17 -170 3 -61 42 -92 91 -92 142 0 16 -5 33 -12
40 -14 14 -16 12 42 39 54 26 72 31 130 38 46 5 138 19 225 34 69 12 92 12
113 2z"/>
</g>
</svg>
