<?xml version="1.0" standalone="no"?>
<!DOCTYPE svg PUBLIC "-//W3C//DTD SVG 20010904//EN"
 "http://www.w3.org/TR/2001/REC-SVG-20010904/DTD/svg10.dtd">
<svg version="1.0" xmlns="http://www.w3.org/2000/svg"
 width="503.000000pt" height="475.000000pt" viewBox="0 0 503.000000 475.000000"
 preserveAspectRatio="xMidYMid meet">
<metadata>
Created by potrace 1.16, written by Peter Selinger 2001-2019
</metadata>
<g transform="translate(0.000000,475.000000) scale(0.100000,-0.100000)"
fill="#000000" stroke="none">
<path d="M1120 4291 c-54 -22 -108 -47 -135 -64 -31 -19 -170 -130 -173 -138
-2 -4 -16 -21 -33 -38 -16 -17 -29 -35 -29 -41 0 -5 -6 -10 -13 -10 -15 0 -49
-64 -68 -127 -7 -24 -16 -43 -21 -43 -4 0 -8 -6 -8 -14 0 -8 -13 -39 -29 -70
-34 -63 -76 -224 -88 -336 -14 -127 3 -353 34 -451 10 -30 18 -58 18 -64 1 -5
6 -19 12 -30 6 -11 14 -38 18 -60 4 -22 13 -47 20 -55 13 -16 53 -86 89 -156
12 -22 36 -54 54 -72 17 -17 32 -35 32 -39 0 -7 54 -36 70 -38 3 -1 21 -6 40
-12 137 -43 153 -45 224 -39 39 4 83 7 98 7 15 0 30 4 33 9 4 6 16 10 29 10
13 0 41 12 62 28 22 15 61 38 87 52 27 14 69 49 95 78 68 77 112 122 120 122
4 0 15 21 26 48 10 26 32 68 47 93 16 25 29 55 29 66 0 11 6 39 14 61 8 22 17
53 19 69 3 15 10 48 16 73 34 144 42 198 43 301 0 63 -2 143 -6 179 -4 36 -9
83 -12 105 -2 22 -9 54 -14 70 -5 17 -12 46 -14 65 -3 19 -18 69 -35 110 -22
56 -43 88 -85 131 -31 31 -56 62 -56 68 0 7 -4 10 -9 7 -4 -3 -19 6 -32 20
-55 59 -115 94 -160 94 -27 0 -57 8 -78 21 -49 29 -169 35 -231 10z m225 -103
c10 -2 27 -10 36 -18 38 -33 49 -41 49 -35 0 8 56 -36 120 -94 25 -22 51 -41
57 -41 7 0 22 -21 33 -47 11 -27 27 -61 36 -77 8 -16 17 -50 21 -75 3 -25 9
-50 13 -56 5 -5 11 -37 15 -70 11 -82 16 -385 7 -399 -3 -6 -7 -15 -8 -21 -14
-71 -24 -137 -27 -165 -2 -19 -13 -54 -25 -76 -12 -23 -19 -44 -16 -46 2 -3
-14 -43 -36 -90 -73 -157 -232 -307 -367 -346 -98 -29 -219 -23 -318 16 -36
14 -145 114 -145 133 0 4 -18 39 -39 77 -22 38 -52 112 -66 163 -14 52 -32
114 -40 139 -13 38 -19 198 -14 335 2 42 28 181 40 210 7 17 13 37 15 45 2 8
7 23 12 35 5 11 26 55 46 98 20 43 36 81 36 84 0 3 15 27 33 52 76 107 220
224 324 262 44 16 129 19 208 7z"/>
<path d="M914 3661 c-91 -48 -114 -70 -114 -113 0 -64 46 -72 101 -17 22 22
32 23 62 8 16 -9 22 -9 25 0 2 6 10 11 17 11 7 0 18 12 23 28 11 31 -5 66 -42
93 -20 16 -25 15 -72 -10z"/>
<path d="M1364 3610 c-12 -5 -25 -13 -29 -19 -3 -6 -15 -11 -25 -11 -40 0 -53
-67 -19 -99 22 -20 24 -20 83 11 27 15 32 14 63 -3 46 -26 77 -17 91 27 13 44
-5 66 -72 88 -55 18 -62 18 -92 6z"/>
<path d="M912 3493 c-12 -10 -22 -25 -23 -33 -3 -33 1 -61 10 -56 5 3 11 -1
15 -9 8 -23 53 -18 70 7 47 66 -13 141 -72 91z"/>
<path d="M1396 3398 c-15 -58 12 -98 64 -98 24 0 29 5 34 36 10 50 -13 84 -58
84 -26 0 -35 -5 -40 -22z"/>
<path d="M1043 3089 c-44 -13 -44 -47 -1 -88 34 -31 38 -32 153 -18 27 3 35
16 35 59 0 27 -5 40 -19 48 -26 14 -64 13 -79 -2 -9 -9 -15 -9 -24 0 -14 14
-21 14 -65 1z"/>
<path d="M885 2872 c-43 -36 -13 -103 54 -118 14 -4 31 -12 36 -19 26 -32 265
-56 283 -28 4 5 14 10 22 11 23 1 44 7 58 15 6 5 17 5 22 2 36 -22 56 77 22
108 -24 22 -38 21 -106 -6 -46 -19 -74 -24 -140 -22 -75 1 -89 5 -149 38 -75
42 -75 42 -102 19z"/>
<path d="M3492 4156 c-105 -53 -252 -175 -346 -288 -14 -18 -26 -37 -26 -44 0
-7 -3 -14 -8 -16 -24 -10 -140 -347 -141 -408 0 -8 -2 -42 -5 -75 -9 -94 -10
-241 -2 -254 4 -6 9 -33 11 -60 5 -83 46 -238 72 -276 7 -11 13 -25 13 -32 0
-16 61 -103 72 -103 4 0 8 -5 8 -10 0 -17 42 -72 75 -100 16 -14 40 -35 53
-47 12 -13 29 -23 37 -23 8 0 15 -4 15 -9 0 -11 41 -27 110 -41 30 -6 67 -15
83 -20 31 -10 250 -9 257 0 3 4 34 17 70 29 36 13 70 27 75 31 6 5 23 11 39
14 16 3 37 14 48 26 10 11 22 20 27 20 8 0 54 41 118 103 18 18 38 44 44 59 6
16 15 28 20 28 5 0 9 8 9 19 0 10 6 24 14 30 8 7 18 26 21 42 4 17 13 33 21
36 8 3 11 9 8 14 -3 5 6 30 20 57 13 26 27 64 31 85 3 21 14 57 24 80 10 23
21 69 24 102 3 33 9 81 13 107 13 92 -27 410 -61 474 -8 16 -15 34 -15 41 0 7
-11 37 -24 68 -14 30 -22 55 -18 55 4 0 2 4 -4 8 -16 10 -84 115 -84 128 0 6
-21 30 -47 53 -27 23 -58 50 -69 61 -12 10 -24 16 -27 14 -7 -7 -48 15 -67 35
-21 23 -34 24 -233 25 l-177 1 -78 -39z m370 -81 c15 -1 34 -7 41 -13 8 -7 17
-9 20 -5 4 3 7 2 7 -4 0 -6 25 -21 56 -34 54 -21 104 -57 104 -74 0 -5 11 -23
25 -41 14 -18 25 -37 25 -43 0 -6 4 -11 8 -11 11 0 52 -86 52 -109 0 -11 4
-21 10 -23 9 -3 43 -120 53 -185 3 -18 8 -36 11 -42 9 -13 10 -263 2 -328 -7
-57 -100 -329 -117 -343 -3 -3 -16 -26 -27 -52 -11 -27 -26 -48 -32 -48 -6 0
-8 -4 -5 -10 10 -15 -125 -141 -174 -163 -25 -11 -66 -29 -91 -41 -25 -11 -58
-22 -75 -23 -16 -1 -43 -5 -60 -8 -48 -9 -136 -7 -194 5 -29 5 -56 8 -60 6 -3
-2 -19 5 -36 15 -16 10 -42 25 -57 34 -64 36 -137 129 -215 275 -21 40 -34 96
-64 290 -27 172 21 429 115 615 42 84 61 109 115 159 19 17 48 44 65 59 58 54
113 97 122 97 5 0 27 10 49 22 33 18 59 23 144 25 57 2 106 5 109 8 3 3 15 2
26 -1 11 -4 33 -8 48 -9z"/>
<path d="M3438 3585 c-4 -4 -25 -9 -48 -10 -83 -6 -139 -74 -89 -108 17 -13
28 -13 72 -1 29 7 68 11 88 8 54 -9 79 8 75 51 -1 20 -7 40 -13 46 -13 13 -76
23 -85 14z"/>
<path d="M3798 3562 c-23 -3 -30 -10 -38 -43 -13 -49 -10 -68 12 -83 13 -8 21
-6 36 7 23 21 90 23 98 3 3 -8 13 -14 22 -14 9 0 22 -1 27 -2 6 -2 22 2 37 10
21 10 27 19 24 37 -3 13 0 23 7 23 7 0 -1 11 -18 24 -30 24 -121 49 -160 44
-11 -2 -32 -4 -47 -6z"/>
<path d="M3390 3410 c-14 -11 -19 -20 -12 -20 8 0 11 -10 7 -30 -5 -27 -3 -30
32 -36 31 -6 39 -3 55 16 50 62 -17 121 -82 70z"/>
<path d="M3890 3411 c-41 -11 -47 -76 -8 -100 16 -10 26 -10 49 -1 30 13 33
18 29 60 -4 46 -20 55 -70 41z"/>
<path d="M3530 3082 c-47 -8 -65 -62 -32 -101 16 -20 99 -44 145 -43 38 1 67
31 67 67 0 42 -26 59 -79 52 -24 -3 -42 1 -56 12 -11 10 -31 15 -45 13z"/>
<path d="M3352 2834 c-11 -7 -22 -10 -26 -7 -7 7 -9 -11 -6 -42 5 -52 48 -87
150 -123 26 -10 315 -8 321 2 4 5 17 10 30 11 13 1 27 3 31 4 3 0 9 14 13 30
12 54 -48 108 -85 77 -8 -7 -40 -13 -71 -14 -31 -1 -79 -4 -108 -7 -54 -4
-151 19 -151 36 0 6 -4 7 -10 4 -5 -3 -10 -2 -10 4 0 5 -13 16 -29 24 -25 13
-33 13 -49 1z"/>
<path d="M186 2608 c-28 -10 -28 -11 -22 -73 7 -71 54 -200 91 -254 29 -41
128 -130 152 -136 15 -3 30 -10 33 -13 6 -9 130 -42 195 -53 28 -4 61 -10 75
-14 84 -19 615 -20 760 -1 58 8 112 14 120 14 8 0 61 1 117 2 56 1 106 -1 112
-4 5 -3 22 -8 38 -10 15 -1 44 -8 63 -14 19 -6 60 -18 90 -27 84 -25 111 -40
163 -91 63 -61 78 -94 81 -167 3 -52 7 -64 30 -84 33 -28 39 -29 70 0 18 15
28 36 31 65 3 24 13 55 22 69 23 34 83 93 96 93 5 0 15 7 21 15 18 24 446 46
446 22 0 -4 5 -5 11 -2 12 8 103 18 134 15 52 -5 156 0 210 10 33 6 89 13 125
15 36 2 92 10 125 19 33 8 87 16 120 17 33 1 76 6 95 10 19 4 72 10 118 13 45
3 99 10 120 15 20 5 80 12 132 15 52 4 106 8 120 11 14 2 39 6 55 8 32 5 119
50 195 100 76 50 151 138 210 246 20 37 24 55 19 85 -14 87 -95 81 -115 -9 -9
-39 -27 -72 -64 -113 -9 -9 -32 -38 -52 -63 -21 -26 -54 -54 -74 -64 -21 -10
-46 -26 -57 -35 -10 -10 -33 -20 -50 -23 -18 -3 -59 -10 -92 -15 -33 -6 -93
-13 -134 -17 -41 -3 -77 -8 -81 -10 -6 -4 -207 -24 -304 -31 -54 -3 -126 -15
-186 -29 -14 -4 -61 -10 -105 -15 -44 -5 -96 -14 -115 -20 -19 -6 -60 -10 -90
-9 -30 1 -97 1 -149 0 -67 -1 -97 2 -102 11 -6 10 -11 10 -20 1 -7 -7 -18 -9
-28 -4 -17 9 -66 8 -141 -5 -25 -4 -98 -7 -162 -8 -65 -1 -118 -4 -118 -8 0
-5 -7 -8 -15 -8 -8 0 -15 -4 -15 -10 0 -5 -8 -10 -17 -10 -10 0 -45 -25 -77
-55 -57 -52 -76 -60 -76 -29 0 8 -4 14 -10 14 -5 0 -10 6 -10 13 0 18 -77 87
-121 109 -60 30 -132 56 -189 69 -30 7 -70 18 -88 26 -34 14 -101 27 -137 26
-119 -2 -271 -14 -315 -26 -41 -11 -104 -14 -245 -11 -104 1 -206 6 -225 9
-19 3 -91 6 -160 6 -69 0 -136 4 -150 9 -14 4 -34 11 -45 15 -11 4 -27 9 -35
10 -92 12 -210 70 -210 102 0 6 -9 18 -21 29 -30 27 -81 138 -87 189 -4 40
-32 86 -50 84 -4 0 -20 -5 -36 -11z"/>
<path d="M1950 1274 c-25 -14 -58 -40 -75 -58 -16 -17 -50 -47 -75 -66 -25
-19 -54 -43 -64 -52 -17 -16 -36 -22 -57 -20 -10 2 -33 -59 -32 -81 4 -47 56
-61 116 -31 32 17 32 16 15 -3 -10 -11 -18 -23 -18 -27 0 -4 -6 -14 -12 -21
-7 -8 -29 -35 -48 -60 -19 -25 -56 -68 -82 -95 -25 -28 -50 -60 -54 -72 -4
-13 -9 -25 -13 -28 -3 -3 -21 -27 -39 -53 -19 -26 -47 -62 -64 -80 -32 -35
-88 -112 -88 -122 0 -3 -19 -34 -43 -68 -65 -95 -72 -113 -59 -142 17 -38 61
-34 92 8 13 17 24 34 23 37 0 3 8 11 17 17 10 7 21 24 24 38 4 14 11 25 16 25
6 0 10 7 10 15 0 8 4 15 10 15 5 0 17 15 26 33 10 17 34 52 54 77 21 25 55 72
76 105 21 33 49 71 64 85 14 14 43 48 65 75 21 28 54 66 73 87 l34 36 34 -20
c32 -19 36 -19 60 -3 14 9 27 24 30 33 3 9 10 26 15 37 5 11 12 31 14 45 3 14
8 40 11 58 3 17 9 32 13 32 4 0 8 12 9 28 1 15 13 49 27 75 39 76 31 123 -25
152 -36 18 -27 20 -80 -11z"/>
</g>
</svg>
