<?xml version="1.0" standalone="no"?>
<!DOCTYPE svg PUBLIC "-//W3C//DTD SVG 20010904//EN"
 "http://www.w3.org/TR/2001/REC-SVG-20010904/DTD/svg10.dtd">
<svg version="1.0" xmlns="http://www.w3.org/2000/svg"
 width="549.000000pt" height="303.000000pt" viewBox="0 0 549.000000 303.000000"
 preserveAspectRatio="xMidYMid meet">
<metadata>
Created by potrace 1.16, written by Peter Selinger 2001-2019
</metadata>
<g transform="translate(0.000000,303.000000) scale(0.100000,-0.100000)"
fill="#000000" stroke="none">
<path d="M999 2626 c-2 -2 -26 -7 -54 -10 -82 -11 -89 -12 -105 -19 -14 -5
-101 -20 -125 -22 -5 0 -14 -5 -20 -12 -5 -6 -37 -18 -69 -27 -45 -11 -70 -25
-104 -58 -89 -86 -163 -148 -177 -148 -28 0 -144 -217 -160 -298 -1 -9 -8 -35
-13 -57 -19 -71 -23 -148 -13 -245 11 -107 38 -240 52 -255 5 -5 9 -18 9 -30
0 -12 4 -25 9 -30 5 -6 18 -35 29 -65 28 -74 45 -110 55 -110 4 0 7 -7 7 -15
0 -8 12 -29 28 -47 15 -18 36 -49 47 -68 52 -95 204 -208 300 -225 11 -2 36
-9 55 -15 19 -7 73 -15 119 -20 75 -8 90 -6 159 17 41 14 88 33 103 42 41 24
111 72 135 94 21 18 22 18 59 -7 21 -14 63 -33 94 -42 31 -9 81 -25 111 -36
30 -10 62 -21 70 -23 8 -2 26 -6 40 -9 96 -23 508 -53 640 -47 120 5 315 46
401 85 47 20 108 39 124 37 3 0 21 8 40 19 20 11 37 20 39 20 2 0 6 -19 9 -41
6 -48 13 -53 84 -75 28 -8 57 -21 63 -29 7 -8 20 -15 29 -15 9 0 22 -5 28 -11
11 -11 179 -22 323 -22 86 0 151 22 209 72 29 25 74 53 101 62 27 9 79 33 117
53 37 19 80 38 94 40 14 3 42 17 62 30 20 14 47 27 59 29 13 2 43 14 68 27
100 52 155 83 160 90 3 4 14 12 25 18 18 9 23 6 35 -21 7 -18 22 -38 31 -45
10 -7 26 -28 35 -47 9 -19 20 -35 25 -35 5 0 9 -6 9 -13 0 -7 12 -24 28 -38
15 -13 42 -43 61 -66 18 -23 49 -49 67 -58 18 -8 34 -19 36 -23 2 -4 26 -18
53 -31 28 -14 52 -27 55 -30 21 -25 80 -55 117 -59 35 -4 51 0 83 22 22 14 43
26 48 26 5 0 17 9 27 20 10 11 24 20 30 20 7 0 19 7 26 17 8 9 26 24 41 33 16
9 45 32 66 51 20 19 58 51 85 72 41 33 117 127 103 127 -3 0 2 16 10 35 7 19
14 55 14 80 0 59 -32 95 -84 95 -19 0 -37 4 -40 9 -5 8 -84 -1 -129 -15 -12
-4 -34 -15 -49 -26 -17 -12 -28 -15 -28 -8 0 7 9 14 20 17 11 3 20 11 20 18 0
7 19 31 42 52 104 96 170 166 204 217 31 47 37 66 42 125 6 96 -15 141 -81
170 -52 23 -67 26 -67 12 0 -5 -9 -13 -20 -16 -11 -4 -51 -31 -87 -60 -81 -65
-122 -76 -157 -43 -101 96 -146 142 -146 149 0 6 -124 133 -180 183 -27 25
-83 64 -115 82 -82 45 -141 74 -152 74 -7 0 -13 5 -13 11 0 29 -172 -14 -214
-53 -11 -10 -26 -18 -33 -18 -8 0 -16 -7 -19 -15 -4 -8 -12 -15 -20 -15 -8 0
-14 -6 -14 -13 0 -8 -11 -20 -25 -27 -14 -7 -25 -17 -25 -22 0 -4 -5 -8 -12
-8 -6 0 -36 -19 -67 -42 -31 -24 -59 -42 -63 -41 -4 2 -37 -29 -74 -67 -61
-64 -69 -69 -84 -55 -9 8 -22 15 -28 15 -6 0 -17 6 -24 14 -18 18 -109 64
-139 70 -130 29 -127 29 -323 3 -16 -2 -33 -11 -37 -20 -9 -15 -13 -14 -53 3
-24 10 -47 16 -50 13 -3 -3 -11 -1 -18 4 -7 6 -35 16 -63 22 -27 6 -61 15 -75
18 -14 4 -68 8 -120 9 -149 3 -413 14 -435 18 -39 7 -171 -12 -265 -38 -52
-15 -112 -31 -133 -35 -21 -5 -44 -14 -50 -20 -6 -6 -30 -11 -54 -11 -24 0
-43 -4 -43 -10 0 -5 -3 -10 -8 -10 -17 0 -192 177 -192 194 0 10 -9 35 -19 55
-10 20 -28 57 -39 82 -23 51 -87 122 -144 160 -21 13 -38 27 -38 32 0 4 -6 7
-14 7 -7 0 -25 9 -39 20 -14 11 -35 20 -48 20 -12 0 -30 6 -38 13 -17 14 -110
42 -174 52 -21 3 -44 8 -51 11 -7 2 -14 3 -17 0z m81 -107 c88 -18 94 -20 105
-28 5 -5 28 -14 50 -21 22 -7 52 -22 66 -34 14 -12 37 -28 49 -36 13 -8 32
-23 42 -32 10 -10 21 -18 24 -18 11 0 54 -54 54 -67 0 -7 4 -13 9 -13 5 0 14
-14 20 -30 9 -28 9 -30 -12 -25 -81 20 -207 4 -254 -31 -17 -13 -37 -24 -43
-24 -6 0 -13 -7 -16 -15 -4 -8 -13 -15 -20 -15 -8 0 -25 -9 -37 -20 -12 -11
-39 -26 -62 -32 -22 -6 -47 -17 -56 -25 -8 -7 -23 -13 -31 -13 -9 0 -32 -7
-51 -15 -49 -20 -112 -19 -138 3 -11 9 -44 40 -73 68 -46 44 -57 50 -100 53
-26 1 -63 -3 -81 -9 -40 -13 -47 -41 -27 -113 8 -27 10 -53 6 -57 -5 -5 -48
-1 -96 9 -48 10 -89 17 -90 16 -2 -1 -15 -5 -29 -8 -25 -6 -26 -5 -22 28 5 45
48 145 63 145 6 0 9 3 6 8 -8 14 58 90 114 132 30 22 76 60 102 84 29 28 60
46 83 50 21 4 60 18 89 31 58 26 211 62 271 63 22 1 60 -3 85 -9z m3309 -310
c65 -29 211 -122 211 -134 0 -6 14 -19 31 -29 44 -26 175 -164 203 -215 5 -9
17 -22 27 -28 9 -7 33 -28 53 -48 62 -60 75 -65 130 -53 61 13 113 41 163 89
54 52 78 57 96 22 19 -36 15 -107 -6 -131 -9 -10 -17 -24 -17 -30 0 -7 -7 -12
-15 -12 -8 0 -15 -7 -15 -15 0 -25 -224 -235 -251 -235 -18 0 -22 8 -35 70 -3
19 -12 48 -19 65 -7 16 -19 49 -26 73 -7 23 -15 42 -18 42 -4 0 -13 20 -20 45
-7 24 -22 54 -32 66 -10 12 -19 25 -19 28 0 3 -18 26 -40 49 -22 24 -43 55
-46 68 -3 13 -12 24 -19 24 -8 0 -20 6 -27 13 -13 12 -38 25 -88 45 -24 9
-137 8 -184 -3 -64 -14 -95 -24 -117 -37 -13 -9 -37 -19 -54 -23 -16 -3 -32
-10 -35 -15 -8 -12 -181 -92 -187 -86 -3 3 -14 -6 -25 -19 -11 -14 -25 -25
-33 -25 -7 0 -27 -14 -44 -32 -17 -17 -32 -30 -34 -27 -1 2 -15 21 -30 41 -15
20 -27 40 -27 44 0 4 -10 18 -21 30 l-22 23 34 43 c52 66 106 112 223 188 41
27 83 59 93 70 10 11 21 20 26 20 5 0 16 9 25 19 35 41 125 51 191 20z m-2908
-97 c13 -11 38 -23 56 -26 20 -5 57 -32 100 -74 37 -37 83 -78 100 -92 18 -14
33 -30 33 -37 0 -6 8 -14 18 -17 28 -9 110 -97 132 -141 11 -22 25 -58 31 -80
23 -87 41 -125 66 -131 52 -13 71 41 41 119 -11 29 -26 69 -34 89 -16 45 -77
140 -105 167 -24 22 -15 31 25 27 16 -2 30 2 33 10 3 8 11 14 18 14 8 0 20 6
27 14 16 15 136 44 238 57 36 4 142 5 235 2 198 -7 192 -7 270 -3 33 1 91 -3
128 -9 65 -11 214 -56 229 -70 6 -6 -54 -133 -126 -266 -9 -16 -16 -37 -16
-45 0 -8 -9 -26 -20 -40 -11 -14 -20 -32 -20 -40 0 -8 -9 -37 -19 -65 -26 -69
-36 -157 -35 -310 0 -71 -1 -121 -4 -111 -8 35 -23 44 -59 33 -18 -6 -33 -14
-33 -19 0 -11 -70 -39 -81 -32 -5 3 -9 1 -9 -5 0 -10 -83 -51 -105 -51 -6 0
-27 -7 -45 -16 -18 -10 -45 -18 -59 -20 -14 -1 -57 -6 -96 -10 -69 -8 -357 -7
-445 2 -25 2 -94 9 -154 14 -61 6 -141 21 -180 34 -39 13 -97 31 -129 40 -69
20 -170 70 -160 79 8 9 -26 47 -43 47 -7 0 -26 -17 -41 -37 -41 -54 -84 -94
-94 -87 -5 3 -9 -1 -9 -8 0 -34 -146 -88 -232 -87 -70 2 -203 35 -264 67 -58
31 -151 123 -198 197 -11 17 -25 34 -33 38 -7 4 -13 12 -13 18 0 5 -11 27 -25
49 -32 50 -31 62 2 58 19 -2 29 -11 37 -35 18 -54 39 -63 110 -45 34 8 63 18
66 21 3 3 25 16 50 29 25 12 66 41 91 65 33 30 55 42 78 43 19 1 27 -2 20 -6
-8 -6 -5 -11 10 -20 18 -9 27 -8 44 2 28 18 95 22 113 7 8 -7 14 -7 14 -1 0 5
9 12 20 15 11 3 20 1 20 -4 0 -5 7 -9 16 -9 9 0 12 5 8 12 -5 8 -2 9 9 5 12
-4 17 -1 17 10 0 13 3 14 12 5 8 -8 16 -6 30 10 10 12 18 18 18 15 0 -4 22 2
49 13 27 10 51 17 53 15 4 -4 36 -12 59 -14 4 -1 9 -11 12 -23 14 -56 59 -171
73 -185 8 -9 17 -28 21 -43 3 -15 16 -33 29 -40 13 -7 21 -16 19 -20 -3 -4 10
-13 28 -20 17 -6 44 -18 59 -26 24 -13 29 -13 48 3 19 16 29 76 13 71 -5 -1
-24 3 -44 10 -48 17 -70 43 -121 145 -22 45 -47 126 -52 168 -7 60 -16 81 -32
75 -8 -3 -19 1 -26 8 -13 13 -48 10 -48 -4 0 -4 -17 -11 -37 -15 -21 -4 -50
-13 -65 -21 -15 -8 -35 -15 -45 -17 -10 -2 -28 -8 -39 -15 -12 -6 -24 -9 -27
-5 -3 3 -13 -1 -21 -9 -20 -20 -133 -24 -155 -5 -23 20 -49 28 -56 17 -4 -6
-18 -10 -33 -10 -40 -1 -111 -36 -123 -62 -22 -48 -105 -95 -202 -114 -36 -7
-9 44 63 117 39 39 70 76 70 82 -1 40 -46 51 -78 20 -13 -13 -28 -23 -35 -23
-15 -1 -67 -46 -67 -59 0 -14 -50 -51 -70 -51 -18 0 -30 26 -30 66 0 26 49 73
103 99 45 21 50 43 20 78 -21 23 -44 22 -71 -3 -29 -27 -108 -61 -126 -54 -8
3 -16 14 -19 24 -6 22 42 55 108 74 45 13 70 48 54 78 -5 10 -20 18 -34 18
-13 0 -30 7 -39 15 -8 8 -19 15 -25 15 -11 0 -16 52 -6 62 3 3 32 -2 64 -12
31 -10 85 -21 120 -24 l62 -5 15 36 c19 43 20 55 10 115 l-7 47 31 -11 c17 -6
34 -18 38 -27 10 -27 78 -89 112 -103 37 -15 157 -7 196 13 12 6 44 12 70 14
71 3 74 4 68 18 -4 13 121 107 143 107 6 0 22 9 37 21 16 13 33 18 46 14 11
-3 20 -2 20 3 0 5 26 10 58 11 44 1 64 -3 83 -17z m1954 -154 c28 -6 59 -15
70 -21 11 -6 25 -12 30 -13 38 -7 86 -37 99 -63 9 -16 26 -33 38 -37 13 -4 32
-17 43 -28 11 -12 28 -25 38 -29 9 -3 16 -10 15 -14 -2 -4 7 -24 20 -44 12
-20 25 -50 28 -66 5 -25 0 -34 -29 -59 -19 -16 -60 -51 -91 -78 -68 -58 -111
-137 -125 -228 -11 -74 -8 -108 13 -166 8 -23 16 -46 17 -50 1 -4 5 -18 10
-31 12 -31 4 -53 -32 -89 -41 -40 -135 -67 -198 -56 -25 4 -80 8 -121 9 -41 1
-82 4 -90 7 -8 3 -28 8 -45 13 -71 18 -151 83 -142 115 3 11 2 20 -2 20 -11 0
-13 13 -16 160 -5 164 15 264 74 377 5 10 17 38 27 62 10 24 23 49 29 55 5 6
24 38 40 71 23 45 84 152 100 172 1 2 21 5 45 8 24 3 46 8 48 10 7 7 52 4 107
-7z m1200 -98 c28 -16 67 -50 87 -77 44 -58 98 -158 98 -182 0 -9 5 -22 11
-28 6 -6 12 -17 13 -24 7 -36 18 -76 26 -94 5 -11 12 -36 14 -55 12 -76 23
-105 54 -138 7 -8 15 -27 18 -41 6 -26 8 -27 52 -21 26 4 75 21 108 38 49 26
74 32 122 32 39 0 62 -4 65 -12 13 -40 -36 -141 -86 -177 -10 -7 -32 -28 -49
-47 -17 -19 -35 -34 -40 -34 -5 0 -23 -13 -41 -30 -18 -16 -38 -30 -45 -30 -7
0 -15 -6 -18 -14 -3 -8 -20 -20 -37 -27 -18 -7 -41 -21 -52 -32 -32 -29 -61
-31 -100 -7 -19 12 -35 26 -35 31 0 5 -8 9 -18 9 -11 0 -29 9 -42 20 -13 11
-27 20 -32 20 -4 0 -8 7 -8 16 0 8 -4 12 -10 9 -5 -3 -10 -3 -10 2 0 4 -18 19
-40 32 -45 28 -154 146 -164 179 -4 12 -11 22 -15 22 -4 0 -17 18 -30 40 -12
22 -27 40 -32 40 -5 0 -2 11 7 25 9 14 22 25 28 25 6 0 17 14 23 31 14 35 2
69 -22 69 -8 0 -15 8 -15 18 -1 16 -1 16 -11 -1 -6 -9 -14 -15 -19 -12 -5 3
-12 -6 -16 -20 -3 -14 -10 -25 -16 -25 -5 0 -8 -6 -6 -12 3 -16 -44 -64 -86
-86 -18 -10 -51 -32 -72 -49 -22 -17 -64 -40 -94 -50 -30 -10 -77 -33 -103
-51 -27 -18 -61 -32 -77 -32 -16 0 -32 -4 -35 -10 -3 -5 -15 -10 -25 -10 -10
0 -20 -5 -22 -10 -2 -6 -26 -19 -54 -30 l-52 -19 -26 39 c-14 22 -26 46 -26
54 0 8 -5 16 -11 18 -6 2 -15 26 -19 53 -8 56 8 138 37 183 21 32 94 101 152
143 23 16 41 34 41 39 0 13 104 119 155 158 23 16 57 33 78 37 20 4 37 11 37
16 0 5 5 9 11 9 6 0 24 9 41 21 16 12 32 19 35 15 3 -3 17 3 30 14 26 20 110
48 183 59 70 12 130 2 185 -29z m-4365 -80 c0 -5 -7 -10 -15 -10 -8 0 -15 5
-15 10 0 6 7 10 15 10 8 0 15 -4 15 -10z"/>
</g>
</svg>
