<?xml version="1.0" standalone="no"?>
<!DOCTYPE svg PUBLIC "-//W3C//DTD SVG 20010904//EN"
 "http://www.w3.org/TR/2001/REC-SVG-20010904/DTD/svg10.dtd">
<svg version="1.0" xmlns="http://www.w3.org/2000/svg"
 width="417.000000pt" height="441.000000pt" viewBox="0 0 417.000000 441.000000"
 preserveAspectRatio="xMidYMid meet">
<metadata>
Created by potrace 1.16, written by Peter Selinger 2001-2019
</metadata>
<g transform="translate(0.000000,441.000000) scale(0.100000,-0.100000)"
fill="#000000" stroke="none">
<path d="M1722 3929 c-6 -5 -168 -41 -247 -55 -107 -18 -186 -51 -287 -116
-14 -10 -31 -18 -36 -18 -16 0 -222 -212 -243 -250 -11 -19 -24 -42 -29 -50
-35 -55 -122 -205 -149 -258 -25 -49 -36 -63 -49 -59 -9 3 -44 15 -77 27 -54
19 -67 20 -135 10 -108 -15 -152 -63 -153 -169 -1 -58 21 -182 33 -191 4 -3
19 -52 33 -110 19 -74 25 -118 21 -150 -3 -25 -7 -61 -9 -80 -2 -19 -6 -58
-10 -86 -5 -32 -3 -59 4 -72 6 -12 14 -41 17 -64 9 -60 37 -88 126 -128 74
-34 77 -36 83 -75 11 -70 36 -148 65 -206 16 -32 26 -60 23 -63 -4 -3 3 -15
15 -26 12 -12 22 -24 22 -29 0 -4 20 -29 45 -57 25 -27 48 -60 51 -74 14 -51
48 -106 87 -140 23 -19 52 -45 64 -58 13 -12 27 -22 31 -22 4 0 31 -15 59 -34
29 -19 63 -38 75 -42 13 -3 35 -15 50 -26 16 -11 28 -17 28 -14 0 3 21 -1 48
-8 26 -7 73 -19 105 -26 31 -7 57 -18 57 -23 0 -5 7 -4 15 3 11 9 15 9 15 1 0
-7 9 -9 25 -5 15 4 32 1 40 -6 9 -7 15 -8 15 -2 0 10 41 20 119 28 63 7 70 9
116 28 87 36 151 71 183 100 17 16 32 26 32 22 0 -5 11 3 25 18 13 14 27 26
30 26 8 0 105 96 105 104 0 4 11 17 23 29 13 12 35 42 50 67 14 25 44 64 66
87 40 43 121 159 121 173 0 4 11 27 25 52 13 24 26 54 28 66 2 12 6 25 10 28
4 4 7 15 7 25 0 9 8 31 18 48 16 29 20 30 59 25 38 -5 45 -2 80 33 42 42 61
91 73 188 5 33 13 78 19 100 12 41 16 57 27 110 4 17 9 32 13 35 16 12 40 60
52 101 47 168 14 344 -71 379 -24 10 -38 9 -82 -5 -29 -10 -60 -24 -69 -31
-18 -16 -33 -19 -24 -4 9 15 -4 50 -20 50 -7 0 -16 16 -19 38 -10 55 -46 172
-66 212 -10 19 -21 53 -24 75 -17 95 -119 261 -212 343 -27 24 -63 56 -80 72
-59 55 -157 104 -249 124 -68 14 -178 17 -193 5z m148 -126 c19 -3 40 -7 45
-7 21 -3 55 -18 55 -25 0 -4 10 -7 21 -8 26 -2 81 -39 129 -85 19 -18 48 -42
63 -51 15 -10 32 -28 36 -40 5 -13 17 -29 26 -37 22 -18 67 -109 99 -196 13
-38 36 -100 50 -139 41 -109 64 -213 69 -301 2 -45 7 -85 10 -90 8 -14 10
-180 3 -284 -8 -119 -67 -408 -100 -491 -9 -22 -16 -46 -16 -54 0 -40 -215
-327 -332 -445 -44 -44 -83 -80 -88 -80 -5 0 -21 -11 -37 -26 -31 -29 -124
-74 -203 -97 -122 -37 -283 -36 -352 3 -10 5 -24 7 -32 4 -9 -3 -62 17 -118
45 -73 36 -123 69 -173 115 -38 36 -66 65 -61 66 5 0 3 7 -4 15 -7 8 -22 33
-34 54 -11 22 -32 52 -46 68 -25 28 -60 92 -60 110 0 6 -9 20 -20 33 -11 13
-20 30 -20 40 0 9 -5 21 -11 27 -12 12 -30 74 -33 114 -2 14 -6 30 -9 36 -3 5
-9 43 -12 84 -3 41 -8 88 -11 106 -9 59 -5 357 5 423 18 106 21 119 57 260 19
74 44 147 55 162 10 15 19 34 19 41 0 8 7 20 15 27 8 7 24 31 35 54 37 79 95
169 137 216 13 14 23 27 23 31 0 7 127 137 158 161 12 10 22 15 22 11 0 -3 10
3 23 14 12 11 42 28 67 37 25 10 50 21 55 26 6 5 28 11 50 15 22 4 69 15 105
26 59 17 91 23 158 34 13 2 26 6 29 9 6 6 100 -1 153 -11z m-1249 -781 c32
-31 33 -51 10 -137 -5 -22 -13 -55 -16 -74 -3 -19 -8 -37 -10 -40 -15 -25 -25
-491 -11 -546 l7 -27 -42 24 c-53 30 -79 96 -66 173 17 100 22 200 13 235 -3
14 -8 39 -10 55 -2 17 -15 68 -29 115 -27 90 -47 179 -47 208 0 31 48 51 113
47 48 -3 64 -9 88 -33z m2115 -134 c13 -38 3 -152 -17 -190 -5 -10 -9 -25 -9
-34 0 -9 -10 -30 -22 -46 -27 -39 -62 -176 -83 -331 -6 -43 -9 -47 -30 -44
-13 1 -27 5 -30 8 -3 3 4 48 15 100 25 114 32 195 31 356 l-1 123 49 51 c57
59 78 60 97 7z"/>
<path d="M2473 1489 c-13 -5 -23 -14 -23 -20 0 -7 -8 -21 -17 -31 -16 -18 -16
-22 7 -66 13 -26 29 -51 35 -57 6 -5 33 -39 60 -75 27 -36 66 -84 87 -107 21
-24 38 -49 38 -58 0 -8 5 -15 10 -15 6 0 10 -6 10 -14 0 -30 78 -36 103 -8 10
10 17 26 17 35 0 13 10 8 37 -18 20 -19 41 -35 46 -35 4 0 32 -24 62 -52 29
-29 82 -79 117 -111 34 -32 71 -66 80 -75 10 -9 21 -21 27 -25 5 -5 18 -18 30
-28 12 -10 25 -19 31 -19 5 0 15 -9 22 -20 7 -11 17 -20 21 -20 5 0 28 -19 50
-43 23 -23 65 -60 92 -82 28 -22 75 -63 105 -91 30 -29 77 -71 104 -95 94 -85
286 -283 286 -295 0 -20 67 -29 96 -14 32 18 37 77 7 93 -14 8 -92 82 -254
239 -44 43 -83 78 -87 78 -4 0 -38 30 -76 66 -38 36 -85 77 -105 91 -20 15
-63 54 -96 88 -33 34 -76 72 -95 85 -42 29 -154 127 -264 230 -43 41 -87 83
-97 93 -11 9 -23 17 -27 17 -10 0 -52 43 -52 54 0 4 6 6 12 4 16 -6 38 16 38
36 0 9 4 16 10 16 5 0 8 6 6 13 -3 6 -7 25 -11 41 -5 25 -9 28 -35 22 -16 -3
-32 -1 -35 4 -4 6 -11 8 -16 5 -5 -4 -9 -1 -9 4 0 6 -4 11 -9 11 -5 0 -22 5
-38 12 -15 6 -31 11 -35 10 -5 -1 -8 3 -8 8 0 6 -9 10 -19 10 -11 0 -23 5 -26
10 -4 6 -10 8 -14 5 -5 -2 -17 2 -27 10 -10 8 -28 15 -38 15 -11 0 -33 15 -50
33 -37 40 -54 47 -83 36z"/>
</g>
</svg>
