<?xml version="1.0" standalone="no"?>
<!DOCTYPE svg PUBLIC "-//W3C//DTD SVG 20010904//EN"
 "http://www.w3.org/TR/2001/REC-SVG-20010904/DTD/svg10.dtd">
<svg version="1.0" xmlns="http://www.w3.org/2000/svg"
 width="517.000000pt" height="463.000000pt" viewBox="0 0 517.000000 463.000000"
 preserveAspectRatio="xMidYMid meet">
<metadata>
Created by potrace 1.16, written by Peter Selinger 2001-2019
</metadata>
<g transform="translate(0.000000,463.000000) scale(0.100000,-0.100000)"
fill="#000000" stroke="none">
<path d="M4580 4299 c-14 -6 -52 -12 -85 -15 -83 -5 -203 -65 -282 -141 -65
-62 -138 -167 -128 -183 3 -6 2 -10 -3 -10 -25 0 -70 -253 -59 -330 4 -30 9
-82 11 -115 4 -79 32 -138 107 -229 52 -64 83 -89 109 -89 3 0 30 -8 60 -19
30 -10 87 -21 126 -25 63 -5 77 -3 135 23 35 15 85 43 110 61 26 18 51 33 55
33 5 0 23 16 39 35 17 19 49 53 73 76 23 23 42 47 42 53 0 6 12 29 26 50 57
83 110 322 98 443 -6 69 -27 150 -50 199 -28 58 -133 160 -179 173 -59 17
-176 23 -205 10z m150 -81 c8 -2 26 -11 40 -21 13 -9 29 -17 35 -17 5 -1 30
-25 53 -55 69 -86 91 -205 67 -355 -3 -19 -8 -50 -10 -69 -2 -18 -11 -44 -20
-57 -8 -13 -15 -28 -15 -35 0 -35 -88 -170 -146 -224 -15 -14 -23 -25 -19 -25
12 0 -55 -47 -100 -70 -22 -12 -56 -30 -75 -41 -28 -15 -49 -18 -100 -15 -36
2 -78 9 -95 16 -16 7 -35 14 -41 15 -40 9 -63 22 -92 51 -18 19 -36 34 -40 34
-7 0 -34 57 -58 123 -15 39 -28 144 -26 208 1 60 41 210 72 274 57 117 244
275 281 238 10 -10 127 10 159 27 14 7 93 6 130 -2z"/>
<path d="M4300 3976 c-18 -23 13 -70 42 -63 26 7 133 -45 142 -69 5 -13 9 -14
21 -4 24 20 17 46 -20 79 -66 57 -160 86 -185 57z"/>
<path d="M4643 3853 c-20 -7 -16 -51 5 -56 9 -3 38 -8 63 -12 26 -3 54 -14 64
-25 20 -22 41 -17 48 11 14 52 -113 110 -180 82z"/>
<path d="M4405 3684 c-19 -20 -13 -62 12 -81 28 -21 83 -27 99 -11 15 15 10
48 -8 48 -6 0 -23 14 -38 30 -32 34 -42 36 -65 14z"/>
<path d="M4320 3484 c-20 -51 -10 -67 52 -87 48 -16 61 -17 73 -7 14 12 13 16
-11 41 -15 15 -32 38 -38 51 -7 14 -22 24 -39 26 -22 3 -29 -2 -37 -24z"/>
<path d="M1092 4082 c-9 -9 -28 -18 -42 -19 -124 -8 -137 -16 -284 -178 -87
-95 -156 -257 -170 -396 -2 -21 -9 -54 -16 -75 -20 -60 -7 -184 30 -284 48
-129 68 -165 129 -230 43 -46 69 -64 116 -81 33 -12 65 -25 70 -29 6 -4 35 -8
66 -9 48 -2 70 4 145 40 49 23 91 45 94 49 3 3 40 32 82 63 70 53 80 65 116
140 38 78 71 169 78 212 2 11 8 39 14 63 15 63 19 198 8 267 -32 190 -124 344
-258 435 -67 45 -150 60 -178 32z m123 -105 c9 -10 20 -17 25 -17 21 0 142
-138 166 -189 13 -31 32 -68 40 -83 18 -33 25 -196 13 -286 -18 -130 -76 -289
-120 -329 -13 -12 -38 -34 -55 -50 -18 -15 -47 -42 -65 -58 -19 -17 -50 -37
-69 -45 -19 -7 -40 -17 -45 -21 -16 -12 -133 -29 -153 -22 -27 8 -84 33 -120
51 -49 25 -122 115 -129 160 -3 20 -11 44 -18 52 -7 8 -20 47 -29 85 -17 74
-16 166 4 245 6 25 16 74 23 110 20 101 90 231 167 310 72 73 128 110 140 90
5 -8 21 -7 61 4 66 19 141 15 164 -7z"/>
<path d="M1164 3540 c-27 -22 -52 -40 -57 -40 -13 0 -67 -60 -67 -74 0 -19 21
-34 43 -31 9 2 43 30 75 63 31 33 66 62 77 64 14 2 20 11 20 28 0 40 -35 37
-91 -10z"/>
<path d="M760 3460 c0 -5 -3 -15 -6 -23 -9 -24 23 -47 57 -40 67 13 104 31
107 52 3 19 -2 20 -77 20 -45 0 -81 -4 -81 -9z"/>
<path d="M970 3211 c-50 -5 -55 -8 -58 -32 -2 -15 4 -31 13 -39 22 -19 121 12
130 40 7 23 -1 41 -18 38 -7 -1 -37 -4 -67 -7z"/>
<path d="M1217 3172 c-9 -2 -15 -7 -12 -11 2 -5 -6 -20 -19 -34 -13 -13 -26
-32 -29 -40 -12 -32 -69 -51 -152 -53 -44 -1 -84 2 -90 6 -11 9 -38 13 -68 11
-14 -1 -18 -8 -15 -33 2 -18 9 -33 18 -35 98 -21 177 -24 250 -8 44 10 160
132 160 168 0 20 -21 34 -43 29z"/>
<path d="M3250 3503 c-54 -8 -186 -45 -205 -57 -43 -28 -165 -161 -165 -181 0
-4 -6 -13 -14 -21 -8 -7 -22 -35 -31 -61 -10 -27 -25 -66 -35 -88 -23 -51 -38
-96 -39 -115 -1 -8 -4 -62 -7 -120 -5 -91 -3 -113 15 -170 30 -88 68 -170 94
-197 25 -28 96 -63 136 -68 17 -2 40 -9 52 -16 25 -13 151 -7 210 11 55 16
162 90 226 157 56 58 103 116 103 128 0 3 9 24 19 48 19 42 41 132 60 237 10
61 8 94 -15 221 -14 77 -20 91 -53 125 -104 107 -192 163 -221 141 -8 -6 -12
-7 -7 -2 4 4 -10 14 -30 22 -38 13 -48 13 -93 6z m78 -82 c9 -5 34 -16 56 -25
32 -14 101 -64 153 -112 18 -17 46 -85 49 -119 1 -16 5 -59 9 -95 4 -46 2 -75
-8 -100 -8 -19 -13 -40 -10 -46 9 -25 -77 -196 -129 -257 -29 -34 -59 -66 -66
-70 -7 -5 -20 -16 -30 -27 -25 -27 -92 -58 -132 -62 -19 -1 -40 -9 -46 -17
-13 -17 -110 -19 -126 -3 -6 6 -16 8 -23 6 -25 -10 -84 25 -114 67 -17 23 -38
67 -47 98 -9 31 -23 74 -31 96 -11 30 -13 61 -7 135 4 52 7 98 6 103 -1 4 9
30 23 57 14 27 25 55 25 62 0 34 80 160 144 227 55 58 77 71 120 71 19 0 38 5
41 10 8 12 119 13 143 1z"/>
<path d="M3078 3143 c-26 -7 -29 -31 -6 -53 23 -22 45 -25 67 -11 19 12 22 51
4 51 -7 0 -13 5 -13 10 0 10 -21 11 -52 3z"/>
<path d="M3360 3036 c-13 -34 -3 -55 28 -63 18 -4 29 -1 39 12 24 33 13 55
-34 69 -19 6 -25 2 -33 -18z"/>
<path d="M3174 2958 c-3 -5 -7 -35 -9 -68 -2 -43 1 -60 11 -64 15 -6 44 19 44
38 0 8 7 19 15 26 18 15 20 54 2 68 -15 12 -56 12 -63 0z"/>
<path d="M2993 2753 c-18 -7 -16 -48 2 -67 9 -9 33 -20 53 -26 49 -14 180 7
196 32 5 9 7 20 4 23 -3 4 -44 6 -91 6 -72 -1 -87 2 -102 19 -18 19 -37 24
-62 13z"/>
<path d="M1945 2885 c-33 -18 -75 -40 -93 -50 -19 -9 -36 -23 -39 -31 -3 -8
-8 -12 -12 -10 -4 3 -17 -11 -30 -30 -13 -19 -27 -34 -32 -34 -9 0 -44 -52
-80 -118 -11 -20 -24 -44 -29 -52 -16 -27 -51 -144 -60 -198 -13 -80 -4 -208
19 -287 37 -123 43 -137 80 -191 58 -83 125 -125 221 -138 79 -11 109 -8 157
14 24 11 48 20 54 20 14 0 125 58 152 80 54 43 158 166 182 217 63 133 95 382
65 513 -5 25 -12 57 -14 72 -13 78 -88 177 -163 213 -45 22 -124 35 -228 39
-85 3 -93 1 -150 -29z m100 -56 c14 23 212 -8 245 -38 10 -9 37 -29 59 -46 22
-16 40 -34 41 -40 0 -5 7 -22 15 -38 39 -74 49 -297 18 -382 -8 -22 -21 -64
-29 -94 -9 -30 -22 -60 -30 -68 -8 -8 -14 -18 -14 -23 0 -7 -27 -43 -95 -127
-15 -18 -32 -33 -38 -33 -5 0 -25 -11 -43 -25 -18 -14 -35 -25 -39 -25 -3 0
-39 -16 -79 -35 -41 -19 -83 -35 -94 -35 -46 0 -129 25 -161 48 -39 29 -100
93 -101 105 0 5 -6 23 -14 40 -8 18 -17 46 -20 62 -10 49 -12 54 -19 61 -14
14 -7 229 9 285 41 141 157 330 210 343 16 4 31 11 34 16 3 4 27 19 55 33 35
18 54 23 67 16 10 -6 19 -5 23 0z"/>
<path d="M1883 2433 c-26 -17 -30 -55 -9 -72 10 -9 30 -10 63 -5 26 5 52 8 57
9 5 0 14 8 20 18 13 21 -5 37 -42 37 -12 0 -33 6 -45 14 -19 12 -25 12 -44 -1z"/>
<path d="M2169 2389 c-17 -4 -23 -11 -21 -25 6 -33 23 -44 68 -44 46 0 70 22
58 53 -6 16 -67 26 -105 16z"/>
<path d="M1937 2224 c-16 -16 -6 -52 16 -58 59 -16 112 5 105 42 -2 12 -17 17
-59 19 -30 2 -58 1 -62 -3z"/>
<path d="M1796 2121 c-29 -32 -17 -56 39 -79 41 -17 184 -19 213 -3 12 6 27 9
32 6 5 -3 11 -1 15 5 3 5 17 10 29 10 30 0 48 22 44 52 -4 29 -39 28 -113 -2
-29 -12 -60 -21 -71 -20 -10 0 -38 0 -60 0 -27 -1 -44 4 -47 13 -3 8 -19 19
-35 25 -25 9 -33 7 -46 -7z"/>
<path d="M702 2714 c-35 -7 -75 -15 -90 -18 -76 -14 -176 -57 -217 -93 -11
-10 -33 -36 -49 -58 -17 -22 -33 -42 -36 -45 -4 -3 -15 -27 -25 -55 -10 -27
-26 -61 -35 -75 -64 -94 -87 -269 -57 -435 9 -55 18 -109 19 -120 1 -11 8 -26
15 -33 7 -7 13 -21 13 -30 0 -9 9 -28 20 -42 11 -14 20 -29 20 -33 0 -18 85
-98 109 -104 14 -3 38 -15 54 -25 75 -53 367 -5 450 73 9 8 27 23 42 34 55 43
94 81 112 112 86 148 95 166 90 189 -2 13 0 21 4 18 5 -3 9 -2 9 1 0 3 7 41
16 83 24 114 15 346 -15 422 -12 30 -31 64 -42 76 -10 11 -19 26 -19 32 0 6
-12 19 -27 29 -16 10 -48 34 -73 53 -25 20 -61 41 -80 47 -45 15 -128 13 -208
-3z m183 -74 c22 -5 41 -14 43 -19 2 -6 8 -11 12 -11 5 0 22 -11 37 -25 120
-107 140 -151 142 -315 2 -99 -3 -133 -28 -233 -35 -134 -41 -146 -128 -242
-19 -22 -42 -50 -51 -63 -14 -22 -174 -105 -224 -117 -12 -3 -57 -7 -98 -9
-75 -4 -89 -1 -188 47 -13 6 -31 24 -40 39 -9 15 -20 28 -24 28 -4 0 -8 7 -8
16 0 9 -10 29 -23 44 -16 19 -24 42 -25 72 -1 24 -10 68 -19 98 -12 39 -16 84
-15 154 2 109 17 164 62 238 16 26 37 64 45 85 23 56 147 166 182 163 13 -1
87 34 101 47 16 15 186 17 247 3z"/>
<path d="M460 2255 c-23 -27 3 -65 44 -65 42 0 62 21 47 48 -18 34 -69 43 -91
17z"/>
<path d="M774 2197 c-6 -8 -7 -24 -2 -43 8 -33 41 -50 72 -38 19 7 20 42 3 65
-16 21 -59 31 -73 16z"/>
<path d="M561 2001 c-34 -26 -20 -68 26 -77 51 -10 71 12 49 53 -19 37 -46 46
-75 24z"/>
<path d="M432 1854 c-27 -19 -28 -38 -2 -71 41 -53 121 -76 205 -59 17 3 41 8
55 11 14 3 26 9 28 14 2 6 9 8 17 5 16 -6 55 30 55 51 0 8 -9 19 -19 25 -15 8
-24 6 -37 -7 -9 -10 -35 -18 -58 -19 -23 -1 -48 -5 -57 -9 -38 -15 -119 12
-119 40 0 8 -9 19 -19 25 -25 13 -22 13 -49 -6z"/>
<path d="M4126 2172 c-3 -5 -41 -12 -84 -15 -75 -6 -152 -31 -152 -49 0 -4 -4
-8 -9 -8 -15 0 -134 -83 -156 -109 -11 -13 -31 -44 -45 -70 -14 -25 -38 -66
-52 -91 -15 -25 -39 -92 -54 -150 -25 -94 -27 -121 -26 -257 2 -141 4 -156 28
-207 22 -46 89 -134 137 -180 30 -28 71 -48 93 -43 13 2 25 -1 27 -7 2 -7 47
-11 133 -11 153 1 200 14 289 80 33 25 62 45 65 45 12 1 80 68 113 112 47 61
87 147 87 185 0 17 6 36 14 42 12 10 26 92 30 176 6 120 -34 252 -101 342 -46
62 -115 132 -158 161 -22 15 -43 31 -47 37 -4 5 -8 7 -8 3 0 -4 -19 -1 -41 7
-47 17 -75 19 -83 7z m96 -114 c14 -10 31 -18 36 -18 6 0 34 -24 64 -53 146
-147 164 -189 155 -360 -10 -196 -71 -346 -169 -422 -22 -17 -58 -47 -81 -67
-95 -84 -328 -118 -435 -62 -36 18 -105 94 -137 151 -26 45 -28 57 -31 183 -3
143 14 277 41 331 9 16 12 29 8 29 -5 0 -3 4 3 8 6 4 25 35 42 69 42 85 76
128 139 174 60 45 148 72 203 63 21 -4 40 -2 44 4 8 13 83 -5 118 -30z"/>
<path d="M3918 1853 c-10 -2 -18 -10 -19 -16 0 -7 -2 -20 -4 -29 -4 -24 29
-51 53 -44 28 9 48 61 32 81 -12 15 -29 17 -62 8z"/>
<path d="M4258 1788 c-24 -30 -23 -42 7 -58 19 -10 28 -10 39 -1 24 20 26 50
3 66 -27 19 -29 19 -49 -7z"/>
<path d="M4108 1743 c-10 -2 -20 -14 -22 -26 -3 -12 -11 -47 -18 -77 -15 -63
-13 -99 7 -119 20 -20 31 -7 53 62 28 88 33 126 22 148 -11 19 -13 20 -42 12z"/>
<path d="M3804 1492 c-20 -14 -23 -40 -6 -59 9 -10 42 -31 73 -47 49 -24 72
-29 159 -33 81 -3 110 0 137 12 40 19 50 39 30 59 -15 16 -57 11 -57 -6 0 -6
-10 -8 -23 -4 -12 3 -35 -1 -51 -9 -20 -10 -33 -12 -46 -5 -10 6 -30 10 -45
10 -31 0 -71 24 -103 63 -24 27 -47 34 -68 19z"/>
<path d="M2897 1589 c-73 -11 -142 -34 -187 -63 -19 -12 -63 -41 -98 -64 -35
-22 -67 -42 -71 -44 -4 -2 -22 -25 -41 -53 -19 -27 -42 -55 -50 -62 -33 -25
-114 -213 -124 -288 -6 -52 -14 -88 -24 -115 -11 -28 13 -189 39 -270 49 -150
87 -190 219 -235 119 -40 186 -42 273 -9 79 31 79 31 107 33 11 0 20 8 20 16
0 8 5 15 12 15 17 0 92 58 162 126 73 72 116 148 141 254 10 41 21 84 25 95
15 36 23 79 23 110 -3 73 -15 204 -24 244 -13 58 -56 146 -88 178 -38 38 -146
113 -163 113 -8 0 -23 7 -34 15 -21 16 -33 16 -117 4z m136 -108 c40 -16 75
-40 115 -81 66 -68 81 -105 87 -225 3 -44 7 -95 9 -113 5 -34 -37 -198 -55
-216 -5 -6 -9 -21 -9 -34 0 -83 -152 -242 -302 -316 -73 -36 -91 -41 -153 -41
-70 0 -195 30 -195 47 0 4 -6 8 -14 8 -8 0 -25 15 -37 33 -13 17 -29 36 -36
40 -7 4 -13 16 -13 26 0 10 -3 21 -7 25 -4 3 -8 12 -9 19 -1 7 -9 36 -17 65
-16 52 -23 184 -12 232 3 14 8 42 11 63 3 20 11 37 16 37 6 0 8 6 5 13 -5 14
14 56 100 221 9 15 34 45 56 65 23 20 48 44 56 54 9 9 19 17 24 17 4 0 27 9
49 20 23 11 57 20 75 20 22 0 40 8 53 23 27 31 122 30 203 -2z"/>
<path d="M2656 1187 c-40 -29 13 -90 60 -68 30 13 31 45 2 65 -27 19 -39 20
-62 3z"/>
<path d="M2975 1103 c-29 -29 -13 -83 25 -83 23 0 50 32 50 57 0 32 -51 50
-75 26z"/>
<path d="M2713 958 c-6 -13 -9 -34 -7 -48 1 -14 3 -33 3 -42 1 -10 12 -25 25
-33 19 -13 28 -14 50 -4 28 13 35 43 12 52 -12 5 -13 13 -6 36 6 23 5 35 -6
46 -23 23 -59 19 -71 -7z"/>
<path d="M2584 734 c-16 -38 -11 -70 15 -95 46 -44 134 -24 150 35 4 17 6 34
4 39 -7 12 -38 8 -59 -8 -30 -22 -42 -18 -46 16 -2 22 -10 34 -26 40 -20 8
-25 4 -38 -27z"/>
<path d="M1194 1543 c-26 -5 -164 -121 -188 -157 -56 -86 -83 -154 -119 -301
-21 -85 -17 -313 6 -375 10 -25 20 -54 22 -65 3 -11 14 -32 25 -47 11 -15 20
-30 20 -34 0 -15 87 -86 125 -104 53 -24 155 -50 197 -50 66 0 237 67 269 106
6 8 17 14 23 14 19 0 71 55 96 103 13 25 35 51 47 58 12 7 25 22 28 33 4 12
10 30 15 41 59 132 86 367 55 485 -21 82 -66 165 -115 210 -33 30 -51 37 -127
51 -88 16 -159 18 -199 5 -16 -5 -23 -2 -27 14 -4 18 -13 20 -69 19 -34 -1
-73 -4 -84 -6z m186 -98 c52 0 102 -4 110 -7 8 -4 44 -11 79 -18 65 -12 78
-21 131 -90 37 -48 61 -139 60 -230 -1 -136 -83 -353 -162 -433 -95 -95 -234
-174 -315 -178 -46 -3 -139 24 -189 53 -43 25 -124 131 -124 162 0 11 -6 41
-13 66 -16 52 -13 160 8 319 9 71 60 192 98 233 20 23 37 48 37 57 0 33 101
83 150 74 19 -3 78 -7 130 -8z"/>
<path d="M1172 1168 c-33 -41 -8 -83 39 -66 21 7 26 15 24 35 -4 38 -42 56
-63 31z"/>
<path d="M1399 1094 c-18 -22 -2 -63 28 -70 20 -5 30 -2 44 17 15 20 16 27 5
44 -15 23 -61 28 -77 9z"/>
<path d="M1200 940 c-26 -49 88 -98 117 -51 14 22 9 28 -46 55 -44 21 -58 20
-71 -4z"/>
<path d="M1088 789 c-25 -14 -22 -52 5 -76 29 -27 78 -37 119 -24 18 6 49 13
70 16 42 6 58 33 31 52 -9 8 -24 11 -32 8 -8 -3 -35 -8 -62 -11 -41 -4 -50 -2
-73 20 -28 29 -33 30 -58 15z"/>
</g>
</svg>
