<?xml version="1.0" standalone="no"?>
<!DOCTYPE svg PUBLIC "-//W3C//DTD SVG 20010904//EN"
 "http://www.w3.org/TR/2001/REC-SVG-20010904/DTD/svg10.dtd">
<svg version="1.0" xmlns="http://www.w3.org/2000/svg"
 width="505.000000pt" height="487.000000pt" viewBox="0 0 505.000000 487.000000"
 preserveAspectRatio="xMidYMid meet">
<metadata>
Created by potrace 1.16, written by Peter Selinger 2001-2019
</metadata>
<g transform="translate(0.000000,487.000000) scale(0.100000,-0.100000)"
fill="#000000" stroke="none">
<path d="M442 4413 c-16 -16 -37 -43 -46 -61 -15 -29 -15 -34 -1 -48 8 -8 15
-18 15 -22 0 -4 20 -20 45 -35 25 -16 45 -33 45 -38 0 -5 6 -9 13 -9 6 0 45
-31 84 -68 40 -37 85 -77 100 -89 38 -30 89 -74 143 -121 25 -22 68 -57 96
-78 66 -50 150 -120 191 -160 17 -17 49 -43 70 -59 21 -15 43 -33 48 -40 6 -6
48 -42 95 -81 47 -38 99 -83 115 -99 17 -17 48 -44 70 -60 22 -16 42 -31 45
-35 3 -3 30 -25 60 -50 81 -66 84 -69 68 -74 -7 -2 -28 -9 -47 -15 -19 -6 -36
-9 -39 -7 -2 3 -15 -6 -29 -18 -36 -33 -29 -72 12 -70 17 1 52 10 78 19 34 12
51 15 59 7 7 -7 19 -7 39 0 32 11 46 4 105 -49 17 -15 53 -46 80 -68 27 -22
107 -89 179 -150 72 -60 171 -144 220 -185 50 -41 96 -80 102 -86 7 -7 24 -21
38 -32 l26 -20 -58 -54 c-32 -29 -114 -111 -183 -182 -69 -70 -217 -221 -330
-335 -113 -114 -245 -249 -293 -300 -49 -50 -99 -99 -113 -107 -13 -9 -24 -21
-24 -26 0 -19 -52 -56 -69 -50 -62 23 -106 90 -95 147 6 33 -6 49 -20 26 -3
-4 -19 -11 -35 -14 -20 -4 -30 -13 -33 -31 -3 -14 -2 -28 1 -32 3 -3 6 -9 6
-12 2 -20 48 -92 79 -121 20 -19 36 -40 36 -45 0 -14 -329 -353 -650 -671
l-162 -160 6 -43 c8 -62 33 -95 66 -88 40 7 93 46 129 92 17 23 210 222 429
442 218 221 461 468 539 549 78 81 188 193 244 248 55 55 129 129 162 164 62
63 208 209 396 395 l100 99 53 -42 c29 -22 76 -62 105 -88 28 -27 68 -61 89
-78 21 -16 48 -39 60 -51 12 -11 44 -38 70 -60 66 -52 278 -227 284 -234 3 -3
30 -25 60 -50 80 -66 85 -70 211 -177 64 -55 123 -106 133 -114 10 -8 43 -37
74 -65 31 -29 73 -65 92 -80 19 -16 52 -46 73 -67 21 -20 42 -37 45 -37 4 0
26 -17 49 -38 23 -20 58 -50 78 -67 20 -16 61 -54 90 -83 30 -28 58 -52 63
-52 6 0 12 -6 15 -13 3 -8 27 -28 54 -46 26 -17 85 -66 129 -109 45 -42 99
-90 120 -107 21 -16 57 -49 80 -72 23 -23 49 -41 58 -39 29 4 77 53 70 70 -3
9 1 32 10 51 19 39 13 60 -24 85 -13 8 -41 32 -64 52 -22 21 -44 38 -48 38 -3
0 -42 30 -86 68 -43 37 -94 78 -112 92 -18 14 -45 36 -60 50 -15 14 -46 41
-70 59 -23 19 -48 40 -54 46 -6 5 -54 45 -106 88 -52 42 -124 102 -160 132
-36 30 -76 63 -89 73 l-25 19 32 66 c49 102 39 157 -24 129 -17 -8 -24 -20
-24 -39 0 -36 -21 -93 -35 -93 -6 0 -25 10 -41 23 -27 19 -272 226 -300 252
-6 5 -35 30 -64 55 -30 25 -76 66 -104 91 -43 39 -121 104 -186 156 -8 6 -44
35 -79 65 -66 56 -126 105 -201 166 -25 20 -62 53 -83 72 l-38 35 154 150 c84
83 187 182 228 222 40 39 97 97 125 128 43 47 57 56 80 54 16 -2 34 -1 39 2 6
4 22 9 38 13 34 8 36 36 2 56 l-25 15 234 238 c129 130 237 237 241 237 4 0 5
-12 4 -27 -3 -33 4 -59 36 -128 12 -27 26 -68 30 -90 12 -69 41 -85 71 -40 15
23 15 29 1 58 -8 18 -25 68 -38 112 -31 108 -36 117 -61 109 -12 -3 -24 -1
-28 6 -8 13 8 37 52 78 15 13 97 94 183 178 86 85 161 154 166 154 5 0 15 13
24 30 9 16 22 30 30 30 8 0 15 8 15 17 0 9 7 24 16 34 8 9 18 32 21 50 4 26 0
36 -23 54 -22 18 -34 21 -57 14 -18 -5 -37 -4 -49 2 -14 8 -25 5 -48 -11 -17
-12 -30 -26 -30 -31 0 -5 -8 -17 -17 -27 -10 -11 -34 -38 -53 -61 -66 -79
-183 -201 -214 -222 -17 -12 -44 -39 -61 -60 -16 -21 -34 -39 -41 -39 -7 0
-16 -10 -20 -22 -7 -23 -224 -243 -236 -240 -5 1 -8 -2 -8 -7 0 -6 -39 -50
-86 -98 -47 -48 -90 -92 -95 -98 -5 -5 -47 -48 -94 -95 -46 -47 -93 -97 -105
-112 -24 -31 -43 -34 -79 -14 -21 12 -27 12 -39 0 -7 -8 -23 -14 -35 -14 -13
0 -55 -16 -95 -35 -58 -28 -72 -39 -72 -57 1 -56 36 -60 106 -13 21 14 51 25
70 25 32 0 25 -8 -177 -210 l-211 -209 -51 42 c-27 23 -60 51 -71 62 -38 37
-253 215 -260 215 -3 0 -14 8 -24 18 -10 9 -33 29 -51 44 -31 25 -32 28 -17
43 55 56 -36 127 -176 138 -23 2 -48 13 -64 28 -15 13 -41 38 -58 54 -18 17
-47 41 -65 55 -19 14 -57 44 -85 68 -102 86 -122 103 -196 163 -41 34 -77 65
-80 68 -3 4 -15 14 -28 23 -12 8 -40 32 -62 52 -21 20 -45 36 -52 36 -12 1 24
37 80 82 12 10 22 27 22 38 0 16 -7 20 -30 20 -33 0 -45 -7 -94 -56 l-31 -31
-70 56 c-38 31 -72 58 -75 61 -7 8 -172 150 -204 175 -45 36 -291 252 -316
277 -25 26 -89 68 -102 68 -4 0 -20 -12 -36 -27z"/>
<path d="M2640 4329 c-19 -5 -60 -13 -90 -20 -71 -15 -95 -36 -81 -72 13 -33
22 -33 105 -2 77 29 111 32 120 9 3 -8 10 -13 15 -9 6 3 14 -1 18 -10 14 -24
42 3 49 47 5 29 3 38 -12 46 -28 14 -84 19 -124 11z"/>
<path d="M2998 4293 c-19 -5 -34 -45 -23 -62 3 -6 13 -11 21 -11 8 0 31 -8 52
-19 20 -10 64 -24 97 -31 33 -6 68 -16 77 -21 10 -5 26 -9 37 -9 11 0 22 -5
24 -10 3 -6 4 -5 3 2 -1 7 3 23 10 37 19 36 -6 69 -48 62 -22 -3 -117 25 -156
45 -44 24 -59 26 -94 17z"/>
<path d="M2089 4244 c-24 -7 -45 -11 -48 -9 -8 8 -41 -27 -41 -44 1 -38 15
-44 65 -27 26 9 77 18 113 20 54 3 68 7 83 27 10 13 17 25 15 26 -1 1 -34 6
-73 11 -51 6 -84 5 -114 -4z"/>
<path d="M1722 4119 c-35 -17 -76 -32 -92 -33 -41 -2 -89 -44 -90 -78 0 -39
21 -37 132 16 51 24 103 47 115 50 30 9 37 36 16 58 -17 17 -21 16 -81 -13z"/>
<path d="M3553 4078 c-6 -7 -13 -25 -15 -40 -4 -23 0 -30 23 -40 16 -7 29 -16
29 -20 0 -5 7 -8 15 -8 39 0 115 -88 115 -132 0 -17 26 -31 41 -22 5 3 9 12 9
20 0 8 5 13 12 11 25 -5 18 33 -14 76 -18 25 -40 56 -49 69 -15 21 -102 79
-140 93 -9 3 -20 0 -26 -7z"/>
<path d="M1038 3448 c-21 -33 -78 -175 -78 -193 0 -11 -13 -5 -45 21 -47 40
-55 43 -122 47 -24 1 -43 5 -43 8 0 4 -9 9 -21 12 -15 4 -23 0 -26 -14 -3 -10
-9 -19 -13 -19 -4 0 -11 -7 -14 -16 -3 -8 -2 -12 4 -9 6 3 10 -1 10 -9 0 -22
17 -29 73 -27 57 1 105 -23 127 -64 22 -41 80 -28 80 18 0 16 3 17 14 8 21
-18 48 16 70 86 10 32 29 78 41 102 13 24 21 49 18 57 -8 23 -59 17 -75 -8z"/>
<path d="M4388 3344 c-9 -3 -19 -17 -23 -32 -7 -29 14 -52 47 -52 11 0 31 -11
45 -24 22 -21 30 -23 47 -14 28 15 34 25 28 54 -8 44 -91 83 -144 68z"/>
<path d="M4177 3300 c-16 -16 -32 -30 -37 -30 -4 0 -18 -21 -30 -46 -19 -38
-21 -49 -10 -69 17 -31 46 -21 62 21 7 19 18 34 25 34 7 0 13 5 13 10 0 6 6
10 13 10 23 0 59 46 55 72 -5 37 -56 37 -91 -2z"/>
<path d="M575 3271 c-34 -14 -55 -46 -82 -123 -41 -116 -39 -218 5 -218 27 0
39 30 41 100 1 35 6 69 11 74 6 6 10 17 10 26 0 9 9 25 19 37 28 30 53 83 47
99 -6 16 -21 17 -51 5z"/>
<path d="M3542 3170 c-21 -46 -12 -63 39 -80 25 -8 54 -23 63 -32 31 -31 86
-20 86 17 0 36 -42 78 -94 94 -25 7 -46 17 -46 22 0 22 -36 6 -48 -21z"/>
<path d="M2255 3161 c-22 -21 15 -101 46 -101 6 0 28 -10 49 -21 61 -34 116
-8 89 43 -6 11 -35 31 -65 44 -30 13 -54 28 -54 34 0 10 -56 11 -65 1z"/>
<path d="M4023 3119 c-8 -8 -5 -28 9 -72 10 -34 21 -100 24 -147 3 -47 9 -89
14 -94 5 -5 20 1 36 13 34 27 35 57 3 226 -6 33 -16 66 -21 73 -13 15 -50 16
-65 1z"/>
<path d="M4464 3086 c-3 -13 3 -53 14 -89 11 -37 18 -82 15 -106 -4 -46 11
-60 45 -42 27 14 32 63 15 136 -8 33 -13 69 -12 80 3 40 -1 45 -36 45 -28 0
-36 -4 -41 -24z"/>
<path d="M954 3002 c-18 -12 -33 -69 -28 -104 3 -18 1 -61 -5 -96 -13 -81 -3
-112 34 -104 33 6 34 8 39 112 2 47 10 107 17 134 10 40 10 50 -2 57 -17 11
-40 11 -55 1z"/>
<path d="M4250 2928 c-13 -9 -14 -21 -6 -74 7 -51 6 -71 -6 -103 -14 -35 -14
-42 -1 -60 18 -26 30 -27 38 -2 4 13 12 18 21 14 13 -5 14 12 12 113 -3 111
-4 119 -23 121 -11 1 -27 -3 -35 -9z"/>
<path d="M740 2875 c-10 -12 -11 -43 -6 -127 6 -97 10 -114 29 -131 13 -11 23
-14 25 -8 2 6 10 11 18 11 8 0 14 9 14 20 0 11 5 20 11 20 7 0 4 11 -6 27 -12
18 -18 49 -19 103 -1 42 -6 81 -10 88 -10 17 -41 15 -56 -3z"/>
<path d="M1860 2837 c-29 -10 -34 -17 -32 -36 5 -34 21 -45 67 -50 88 -10 99
-8 109 21 13 38 -16 71 -56 64 -15 -2 -30 0 -34 5 -6 11 -10 11 -54 -4z"/>
<path d="M3345 2801 c-6 -5 -33 -11 -62 -13 -83 -6 -121 -57 -68 -92 14 -9 25
-12 25 -7 0 12 46 22 107 23 45 0 49 2 48 21 -1 12 3 28 8 36 19 23 -36 53
-58 32z"/>
<path d="M561 2734 c-24 -28 15 -191 56 -232 7 -7 17 -20 22 -29 7 -14 12 -13
36 9 27 25 27 27 11 57 -9 17 -23 45 -32 62 -9 17 -19 52 -22 78 -7 66 -39 90
-71 55z"/>
<path d="M4432 2668 c-5 -7 -13 -35 -16 -63 -10 -67 -32 -132 -56 -163 -25
-30 -26 -80 -4 -89 31 -12 49 10 93 110 47 105 53 217 12 217 -10 0 -23 -6
-29 -12z"/>
<path d="M4110 2620 c-11 -7 -17 -36 -22 -107 -3 -54 -9 -112 -13 -128 -5 -23
-2 -35 14 -49 19 -17 20 -17 33 3 7 12 18 21 24 21 6 0 10 31 10 83 0 45 4 99
8 120 10 55 -15 82 -54 57z"/>
<path d="M950 2517 c-14 -23 -18 -115 -6 -161 10 -39 39 -50 67 -25 23 20 23
20 8 106 -11 70 -18 87 -35 93 -15 6 -24 3 -34 -13z"/>
<path d="M712 2308 c-21 -21 -14 -79 14 -115 14 -18 22 -33 19 -33 -4 0 10
-15 31 -32 21 -18 54 -48 72 -65 39 -38 46 -39 77 -14 23 18 24 19 7 52 -10
20 -32 41 -52 50 -39 19 -85 66 -93 95 -3 11 -8 31 -11 47 -5 20 -12 27 -29
27 -13 0 -28 -5 -35 -12z"/>
<path d="M4223 2230 c-11 -19 -25 -30 -39 -30 -22 0 -28 -9 -45 -64 -10 -33 4
-66 27 -66 21 0 111 97 129 139 18 40 13 51 -25 51 -21 0 -33 -8 -47 -30z"/>
<path d="M2794 2153 c-42 -29 -50 -39 -46 -59 7 -36 42 -40 94 -12 49 28 64
71 32 95 -23 17 -20 17 -80 -24z"/>
<path d="M4057 2183 c-9 -2 -15 -9 -12 -14 3 -5 1 -17 -5 -28 -5 -11 -13 -44
-16 -73 -3 -29 -12 -66 -19 -83 -18 -40 -20 -56 -11 -82 8 -25 37 -30 55 -10
6 8 13 29 17 48 3 19 17 71 30 116 36 116 27 144 -39 126z"/>
<path d="M2458 2148 c-30 -25 -27 -53 11 -94 33 -36 41 -39 95 -42 33 -1 66
-8 73 -14 11 -9 17 -8 24 3 5 8 9 10 9 5 0 -21 19 10 24 39 8 45 -13 67 -53
55 -48 -13 -96 -1 -126 31 -28 33 -35 34 -57 17z"/>
<path d="M1038 2098 c-23 -19 -6 -126 31 -198 16 -31 31 -64 33 -75 8 -48 47
-59 72 -20 21 32 20 41 -8 78 -32 43 -53 95 -60 153 -6 43 -25 74 -46 74 -3 0
-13 -6 -22 -12z"/>
<path d="M2028 1668 c-17 -6 -28 -17 -28 -28 0 -10 -3 -25 -6 -34 -4 -10 -1
-16 10 -16 8 0 25 -14 38 -30 25 -34 106 -90 130 -90 26 0 40 26 33 59 -5 23
-15 33 -43 42 -40 13 -72 40 -93 80 -12 23 -17 25 -41 17z"/>
<path d="M3182 1669 c-12 -5 -25 -17 -29 -26 -3 -10 -19 -30 -36 -44 -24 -21
-29 -31 -23 -52 5 -21 12 -27 35 -27 15 0 36 9 46 20 10 11 23 20 29 20 15 0
46 37 46 54 0 25 -12 46 -25 46 -7 0 -15 4 -17 9 -2 5 -13 5 -26 0z"/>
<path d="M2902 1495 c-23 -7 -54 -20 -67 -29 -13 -9 -36 -16 -50 -16 -22 0
-25 -4 -25 -39 0 -22 5 -43 10 -46 13 -8 110 26 110 38 0 5 13 7 29 4 49 -10
75 33 48 79 -11 20 -15 21 -55 9z"/>
<path d="M2364 1444 c-15 -22 -15 -26 0 -49 10 -16 26 -25 42 -25 13 0 41 -7
62 -17 20 -9 40 -17 44 -17 3 -1 9 -4 12 -7 3 -3 19 -4 36 -1 24 3 32 11 38
36 12 44 6 53 -41 59 -23 3 -72 14 -110 25 l-67 21 -16 -25z"/>
<path d="M3627 1311 c-16 -10 -38 -31 -50 -47 -34 -43 -68 -74 -83 -74 -8 0
-14 -5 -14 -11 0 -5 -4 -7 -10 -4 -5 3 -10 1 -10 -5 0 -6 -7 -18 -15 -26 -19
-20 -20 -64 -1 -64 8 0 16 -5 18 -12 3 -8 13 -4 29 12 14 14 46 41 70 62 25
20 64 61 88 91 36 48 41 59 31 76 -13 26 -18 26 -53 2z"/>
<path d="M1558 1235 c-10 -21 -7 -29 23 -63 19 -22 56 -51 83 -66 27 -15 63
-41 80 -57 35 -32 51 -36 72 -15 27 27 17 62 -22 81 -52 24 -142 89 -165 119
-26 33 -56 33 -71 1z"/>
<path d="M3247 1019 c-9 -6 -25 -12 -35 -14 -9 -2 -34 -11 -55 -20 -21 -9 -47
-13 -57 -10 -13 4 -26 -2 -41 -19 -13 -15 -28 -26 -35 -26 -29 0 -32 -66 -3
-75 20 -7 97 20 110 38 3 4 46 21 95 36 76 23 90 30 92 50 6 39 -33 61 -71 40z"/>
<path d="M2032 936 c-15 -41 -2 -71 35 -81 13 -3 23 -10 23 -16 0 -6 4 -8 8
-5 16 10 158 -50 166 -70 5 -13 11 -12 36 6 33 24 38 50 14 71 -17 14 -111 55
-162 70 -18 6 -39 21 -48 34 -24 37 -57 33 -72 -9z"/>
<path d="M2717 823 c-11 -10 -152 -30 -155 -22 -5 13 -62 11 -62 -2 0 -5 -4
-8 -9 -5 -5 3 -11 -10 -13 -30 -4 -31 0 -37 25 -50 16 -9 40 -13 55 -9 27 5
54 10 142 22 47 6 69 25 70 59 0 20 -42 49 -53 37z"/>
</g>
</svg>
