<?xml version="1.0" standalone="no"?>
<!DOCTYPE svg PUBLIC "-//W3C//DTD SVG 20010904//EN"
 "http://www.w3.org/TR/2001/REC-SVG-20010904/DTD/svg10.dtd">
<svg version="1.0" xmlns="http://www.w3.org/2000/svg"
 width="389.000000pt" height="511.000000pt" viewBox="0 0 389.000000 511.000000"
 preserveAspectRatio="xMidYMid meet">
<metadata>
Created by potrace 1.16, written by Peter Selinger 2001-2019
</metadata>
<g transform="translate(0.000000,511.000000) scale(0.100000,-0.100000)"
fill="#000000" stroke="none">
<path d="M1730 5068 c-85 -16 -164 -38 -169 -45 -3 -5 -36 -23 -73 -41 -89
-45 -161 -118 -207 -212 -49 -97 -51 -105 -52 -257 0 -107 4 -143 25 -221 14
-52 30 -99 36 -106 5 -7 21 -44 35 -81 13 -38 36 -80 50 -95 14 -14 25 -31 25
-38 0 -7 5 -12 10 -12 6 0 10 -7 10 -15 0 -8 4 -15 9 -15 5 0 12 -8 15 -18 6
-16 100 -70 115 -65 3 1 11 -3 18 -9 7 -5 40 -12 73 -15 33 -3 63 -10 66 -15
3 -4 -4 -23 -15 -41 -14 -22 -17 -37 -11 -47 6 -8 10 -34 10 -56 l0 -42 -72
-6 c-40 -3 -95 -8 -123 -9 -27 -2 -93 -9 -145 -16 -53 -6 -129 -11 -170 -10
-67 2 -88 0 -140 -12 -25 -6 -47 -38 -43 -61 2 -16 -7 -35 -29 -59 -55 -60
-78 -89 -78 -97 0 -5 -10 -18 -22 -29 -13 -12 -40 -45 -61 -75 -58 -81 -93
-128 -142 -188 -25 -30 -65 -84 -90 -120 -24 -36 -64 -89 -89 -118 -25 -30
-46 -57 -46 -61 0 -7 -9 -18 -85 -102 -16 -19 -34 -42 -40 -51 -5 -9 -27 -41
-47 -72 -42 -60 -45 -74 -23 -82 8 -4 15 -13 15 -21 0 -7 6 -13 13 -11 6 1 23
-5 37 -13 14 -9 63 -40 110 -69 47 -30 93 -53 102 -53 10 1 20 -2 23 -8 4 -5
15 -9 26 -9 19 0 28 -4 76 -28 13 -7 29 -12 36 -12 23 0 77 -31 77 -44 0 -7 9
-22 19 -33 11 -12 17 -24 14 -27 -4 -3 -2 -6 3 -7 24 -2 46 -9 76 -23 41 -21
77 -14 143 27 46 29 60 41 67 59 7 17 31 11 34 -8 2 -12 9 -34 15 -50 7 -16
14 -38 16 -48 2 -11 7 -24 12 -30 5 -6 14 -35 20 -65 6 -30 16 -59 20 -65 5
-6 12 -31 16 -56 4 -25 11 -50 15 -55 5 -6 10 -31 12 -55 1 -26 9 -51 20 -62
10 -10 18 -31 18 -46 0 -48 -36 -168 -61 -203 -13 -19 -23 -35 -21 -37 11 -10
-83 -212 -99 -212 -5 0 -9 -18 -9 -40 0 -40 -17 -90 -31 -90 -5 0 -12 -15 -17
-32 -9 -34 4 -74 42 -130 10 -15 15 -32 11 -38 -3 -5 -2 -10 3 -10 5 0 13 -15
19 -32 6 -18 27 -79 47 -136 20 -57 36 -112 36 -123 0 -11 11 -44 24 -72 13
-29 33 -73 45 -99 11 -26 23 -55 24 -65 2 -10 14 -40 26 -67 12 -27 20 -50 19
-51 -28 -18 -146 -47 -203 -50 -70 -3 -129 -25 -112 -41 4 -4 2 -13 -4 -20
-12 -14 -1 -40 27 -69 16 -16 65 -13 89 5 6 4 30 11 55 15 50 7 80 16 189 54
71 25 75 28 79 60 2 19 -1 44 -7 55 -6 12 -20 50 -31 85 -12 35 -34 91 -50
125 -38 80 -76 182 -85 226 -4 19 -10 40 -13 45 -6 10 -20 47 -80 213 -28 79
-29 84 -15 125 8 23 18 46 23 52 9 11 25 85 22 98 -2 8 27 76 64 149 24 48
105 280 103 295 -4 25 6 33 54 42 28 5 68 10 87 10 43 -1 104 6 116 13 5 3 34
6 65 7 31 1 80 10 110 20 34 12 96 22 164 26 61 3 117 6 125 8 8 1 16 -2 17
-7 1 -5 5 -12 10 -15 8 -6 61 -205 68 -252 2 -23 40 -168 51 -199 3 -8 6 -17
6 -20 0 -3 4 -14 8 -25 4 -11 11 -47 15 -80 3 -33 11 -66 18 -73 8 -10 7 -23
-2 -48 -7 -19 -14 -47 -17 -62 -2 -15 -8 -36 -13 -47 -5 -11 -14 -45 -21 -75
-6 -30 -25 -94 -41 -142 -16 -47 -29 -99 -29 -115 0 -16 -7 -53 -15 -83 -16
-58 -18 -68 -34 -165 -5 -33 -16 -79 -25 -102 -15 -40 -15 -44 2 -64 24 -29
59 -42 112 -40 25 1 101 -8 170 -19 69 -12 158 -22 198 -24 67 -4 74 -2 91 20
20 25 20 33 8 71 -11 29 -30 36 -117 40 -63 2 -128 8 -310 26 -24 3 -25 5 -21
68 1 35 5 68 8 72 2 4 6 20 8 35 10 77 60 292 80 346 13 34 26 84 30 111 4 28
19 75 33 105 24 55 25 56 8 115 -9 33 -18 69 -20 80 -9 51 -30 121 -39 133 -5
6 -7 12 -4 12 3 0 -2 21 -10 48 -8 26 -20 79 -28 117 -7 39 -20 95 -28 125 -9
30 -19 83 -23 118 -5 51 -11 66 -30 79 -19 12 -22 19 -13 34 6 11 12 55 15 97
6 120 25 229 64 374 33 122 39 149 56 258 20 127 30 187 43 260 6 30 16 91 22
135 6 44 15 87 20 96 7 15 31 166 44 293 l7 59 28 -51 c16 -29 39 -65 52 -80
12 -16 39 -55 58 -86 19 -32 47 -76 62 -99 15 -23 28 -47 28 -53 0 -6 9 -22
21 -35 11 -13 33 -44 47 -69 14 -25 30 -51 36 -58 24 -32 25 -92 5 -277 -5
-44 -11 -123 -14 -175 -2 -52 -7 -106 -10 -120 -3 -14 -8 -45 -11 -70 -3 -25
-13 -72 -21 -105 -9 -33 -15 -67 -15 -75 0 -21 -38 -163 -48 -175 -4 -5 -10
-28 -13 -50 -5 -35 -2 -43 20 -61 23 -18 31 -20 62 -10 45 13 51 21 45 68 -3
20 2 61 10 90 8 29 17 76 21 103 4 28 11 57 15 66 5 8 11 35 14 60 3 24 8 55
11 69 3 14 12 99 20 190 9 91 18 176 20 189 5 26 19 215 18 241 0 28 -15 70
-24 70 -5 0 -9 6 -9 14 0 7 -7 19 -16 26 -8 8 -22 27 -29 44 -8 17 -34 58 -59
91 -25 33 -45 66 -45 73 -1 6 -9 20 -18 30 -19 19 -39 52 -70 112 -9 19 -25
42 -35 52 -31 31 -76 138 -84 200 -4 36 -19 49 -54 47 -14 -1 -32 1 -40 5 -9
3 -47 9 -85 12 -152 11 -172 12 -225 14 -30 1 -120 0 -200 -3 l-145 -4 0 86 0
86 55 6 c82 8 189 69 217 123 8 15 28 41 44 57 50 48 88 137 124 286 33 134
35 149 29 255 -4 62 -13 131 -21 153 -8 22 -17 50 -20 63 -3 12 -9 22 -13 22
-4 0 -11 11 -14 24 -3 13 -21 37 -40 54 -19 16 -40 42 -48 56 -8 15 -26 35
-40 44 -14 9 -45 30 -69 46 -24 16 -47 34 -51 41 -8 13 -135 41 -144 32 -4 -3
-16 -2 -28 2 -11 4 -41 4 -66 -1z m148 -124 c23 -3 42 -10 42 -14 0 -4 21 -20
46 -35 25 -15 57 -41 72 -58 15 -17 39 -44 55 -58 15 -15 27 -30 27 -33 0 -4
12 -25 27 -48 18 -30 26 -55 25 -85 0 -24 3 -45 6 -47 8 -5 -2 -165 -12 -211
-42 -185 -74 -254 -164 -355 -47 -53 -101 -73 -207 -75 -90 -2 -213 28 -248
61 -14 13 -30 24 -35 24 -5 0 -15 11 -22 25 -7 14 -17 25 -22 25 -4 0 -8 5 -8
10 0 6 -11 27 -24 48 -12 20 -23 39 -24 42 0 5 -18 50 -33 85 -34 77 -45 138
-47 262 -3 126 -1 140 30 193 5 8 18 35 30 60 11 25 25 47 30 48 5 2 31 22 59
44 56 44 95 63 184 89 58 17 107 17 213 3z m432 -1435 l82 -13 -7 -50 c-4 -28
-11 -105 -15 -171 -5 -66 -11 -129 -14 -140 -20 -73 -35 -148 -46 -230 -5 -33
-13 -82 -19 -110 -6 -27 -13 -63 -15 -80 -2 -16 -9 -41 -14 -55 -5 -14 -12
-47 -16 -75 -15 -113 -34 -222 -43 -245 -20 -50 -33 -97 -33 -123 0 -14 -4
-36 -9 -49 -8 -23 -23 -124 -26 -186 -1 -18 -5 -35 -9 -39 -3 -3 -6 -21 -6
-39 0 -36 -7 -39 -144 -50 -43 -4 -106 -13 -140 -21 -120 -28 -420 -61 -450
-50 -9 4 -16 1 -16 -6 -1 -15 -20 18 -24 41 -2 9 -6 35 -10 57 -9 51 -27 105
-43 130 -7 11 -13 34 -13 52 0 17 -4 35 -10 38 -5 3 -10 19 -10 35 0 16 -4 31
-9 35 -6 3 -10 13 -10 23 0 9 -4 34 -9 54 -9 36 -1 58 21 58 4 0 23 10 40 23
49 34 70 47 90 53 9 4 17 12 17 19 0 7 15 20 34 29 19 9 53 34 75 56 22 22 44
40 48 40 15 0 74 177 68 204 -11 52 -18 63 -36 59 -10 -3 -19 0 -19 6 0 6 -7
11 -14 11 -12 0 -13 6 -4 31 14 41 4 107 -19 125 -12 9 -14 16 -7 21 6 5 28
31 49 58 20 28 41 52 45 55 31 22 76 142 72 195 -2 40 -44 104 -76 116 -54 20
-70 18 -111 -20 -22 -20 -55 -47 -74 -61 -54 -41 -151 -141 -151 -157 0 -8 -7
-21 -15 -29 -13 -14 -15 -14 -15 0 0 9 -3 16 -7 16 -5 0 -17 13 -27 29 -11 16
-25 27 -32 24 -8 -3 -16 12 -22 39 -6 24 -17 63 -25 88 -8 25 -14 65 -13 89 1
51 -12 46 161 56 66 3 138 8 160 10 22 1 117 8 210 15 94 7 182 15 198 19 47
11 371 4 457 -10z m-1282 -207 c2 -14 7 -31 11 -37 5 -5 9 -34 10 -63 1 -45
-2 -56 -25 -77 -15 -14 -31 -25 -36 -25 -5 0 -7 -4 -3 -9 3 -5 0 -16 -7 -23
-27 -29 -75 -122 -108 -208 -7 -19 -17 -39 -20 -45 -4 -5 -11 -36 -15 -69 -4
-32 -13 -77 -21 -100 -19 -52 -33 -116 -40 -175 -3 -25 -10 -50 -15 -56 -5 -5
-9 -15 -9 -22 0 -8 -8 -22 -18 -33 -16 -17 -20 -17 -47 -5 -17 7 -55 21 -85
31 -30 9 -78 32 -107 51 -28 18 -56 33 -60 33 -4 0 -18 9 -31 18 l-24 18 59
72 c32 39 78 101 103 137 25 36 50 71 55 78 118 145 148 187 138 187 -4 0 2 7
14 15 13 9 39 41 60 73 21 31 55 74 75 95 20 21 40 47 43 58 4 10 10 19 15 19
5 0 10 6 12 14 4 17 62 86 68 80 2 -3 6 -17 8 -32z m553 -37 c1 -11 -1 -29 -6
-40 -32 -86 -43 -105 -67 -121 -15 -11 -28 -23 -28 -28 0 -5 -20 -29 -45 -53
-25 -23 -45 -47 -45 -53 0 -5 -6 -10 -14 -10 -8 0 -32 -21 -53 -46 -21 -25
-55 -65 -75 -89 -43 -47 -46 -63 -20 -95 21 -26 59 -20 91 13 44 46 71 78 71
83 0 3 6 12 14 20 18 18 56 18 56 1 0 -20 -109 -127 -129 -127 -4 0 -13 -11
-19 -25 -13 -29 -1 -72 23 -81 19 -8 75 14 96 38 9 10 21 18 27 18 5 0 12 7
16 15 3 8 16 15 29 15 23 0 24 -1 13 -45 -14 -51 -61 -106 -115 -131 -20 -9
-39 -22 -43 -29 -4 -6 -35 -29 -70 -50 -35 -22 -69 -45 -76 -52 -7 -7 -20 -13
-27 -13 -7 0 -35 -21 -62 -46 -26 -26 -60 -51 -75 -56 -16 -6 -28 -16 -28 -24
0 -7 -11 -16 -25 -20 -14 -3 -32 -15 -39 -26 -13 -18 -17 -19 -42 -6 -29 14
-37 25 -55 73 -15 39 -15 76 1 150 7 33 14 74 16 90 2 17 7 46 13 65 30 107
49 180 45 180 -2 0 7 25 21 55 13 30 22 55 20 55 -10 0 48 96 67 113 12 10 18
20 16 23 -5 5 77 94 86 94 15 0 -6 -81 -39 -155 l-39 -86 19 -35 c14 -26 24
-34 46 -34 24 0 36 11 79 75 27 41 50 79 50 84 0 5 8 16 19 23 10 7 32 43 49
80 33 69 98 143 166 188 21 14 45 32 55 41 18 18 28 13 32 -16z"/>
<path d="M1707 4642 c-21 -23 -21 -36 -2 -56 13 -12 13 -30 5 -113 -5 -54 -9
-105 -8 -113 1 -8 -2 -32 -6 -53 -6 -25 -4 -47 4 -67 12 -30 19 -34 51 -31 9
1 27 -3 41 -8 29 -11 53 1 45 22 -3 9 -1 17 4 19 19 6 -2 36 -33 44 l-31 9 -2
97 c-1 53 1 121 5 151 8 75 -4 117 -34 117 -12 0 -30 -8 -39 -18z"/>
<path d="M1944 4569 c-3 -5 -15 -9 -27 -9 -37 -1 -59 -24 -51 -54 8 -32 16
-38 59 -38 69 0 94 27 72 79 -10 23 -43 37 -53 22z"/>
<path d="M1544 4559 c-4 -6 -20 -8 -40 -4 -30 5 -34 3 -40 -21 -9 -36 27 -69
57 -53 15 7 23 6 35 -6 8 -8 19 -15 24 -15 12 0 23 31 26 73 2 35 0 37 -26 37
-16 0 -32 -5 -36 -11z"/>
<path d="M1601 4184 c-42 -54 -23 -86 66 -109 91 -25 113 -25 154 -4 21 10 45
19 52 19 8 0 26 9 40 20 18 15 25 29 25 56 0 44 -21 54 -52 25 -79 -75 -175
-75 -244 0 l-20 20 -21 -27z"/>
</g>
</svg>
