<?xml version="1.0" standalone="no"?>
<!DOCTYPE svg PUBLIC "-//W3C//DTD SVG 20010904//EN"
 "http://www.w3.org/TR/2001/REC-SVG-20010904/DTD/svg10.dtd">
<svg version="1.0" xmlns="http://www.w3.org/2000/svg"
 width="513.000000pt" height="485.000000pt" viewBox="0 0 513.000000 485.000000"
 preserveAspectRatio="xMidYMid meet">
<metadata>
Created by potrace 1.16, written by Peter Selinger 2001-2019
</metadata>
<g transform="translate(0.000000,485.000000) scale(0.100000,-0.100000)"
fill="#000000" stroke="none">
<path d="M2720 4730 c-19 -5 -38 -6 -43 -3 -4 2 -19 -3 -33 -12 -13 -9 -29
-13 -33 -10 -5 3 -11 2 -13 -2 -1 -5 -21 -20 -43 -34 -30 -20 -49 -45 -77
-100 -37 -74 -108 -257 -108 -278 0 -6 -4 -11 -10 -11 -5 0 -16 -16 -26 -35
-15 -32 -87 -102 -210 -203 -72 -59 -239 -270 -248 -315 -8 -33 -23 -52 -46
-54 -14 -1 -68 -5 -120 -8 -52 -3 -96 -10 -98 -15 -2 -6 -13 -10 -23 -10 -11
0 -29 -5 -40 -10 -17 -10 -177 -59 -205 -64 -7 -1 -19 -8 -28 -15 -9 -7 -16
-10 -16 -5 0 5 -4 4 -8 -2 -4 -6 -29 -21 -57 -33 -90 -41 -97 -45 -119 -74
-11 -16 -32 -40 -45 -54 -26 -30 -91 -163 -100 -208 -3 -16 -5 -64 -5 -105 1
-68 5 -84 45 -165 24 -49 50 -94 57 -98 6 -4 24 -19 39 -33 15 -14 57 -39 93
-56 202 -95 254 -114 331 -122 20 -2 45 -8 56 -14 10 -6 48 -14 83 -18 36 -4
72 -8 80 -10 8 -1 31 -3 51 -3 41 -1 38 14 42 -201 2 -86 7 -123 20 -147 9
-18 17 -39 17 -48 0 -8 4 -23 9 -33 5 -9 17 -35 26 -57 29 -69 49 -107 66
-118 36 -26 31 -50 -16 -82 -25 -17 -47 -38 -51 -48 -3 -10 -16 -22 -28 -26
-12 -5 -28 -22 -36 -37 -8 -16 -25 -43 -37 -60 -13 -17 -23 -36 -23 -42 0 -7
-5 -12 -10 -12 -6 0 -19 -9 -30 -20 -11 -11 -27 -20 -35 -20 -9 0 -30 -8 -48
-17 -18 -9 -34 -18 -37 -18 -3 0 -30 -9 -60 -20 -30 -11 -57 -20 -60 -20 -26
-6 -99 -29 -112 -36 -10 -5 -34 -9 -53 -9 -19 0 -43 -4 -53 -9 -9 -5 -57 -21
-107 -36 -49 -15 -99 -31 -110 -35 -28 -12 -54 -19 -100 -26 -22 -3 -52 -12
-67 -20 -16 -8 -28 -12 -28 -10 0 2 -28 -6 -62 -20 -34 -13 -64 -22 -66 -19
-3 3 -10 -2 -16 -10 -6 -7 -24 -16 -41 -18 -48 -6 -85 -28 -92 -56 -3 -14 -9
-28 -13 -31 -24 -18 -61 -112 -85 -215 -15 -66 -36 -148 -47 -182 -17 -54 -28
-110 -68 -328 -5 -27 -14 -64 -20 -81 -6 -17 -10 -35 -9 -40 4 -16 -22 -123
-31 -129 -10 -6 -6 -24 13 -63 8 -16 18 -21 40 -20 34 3 47 24 52 81 2 23 8
69 14 102 6 33 14 80 17 104 3 24 13 64 23 90 10 25 22 77 26 115 4 38 17 101
30 140 13 39 26 89 29 110 4 22 13 59 21 83 8 24 15 49 15 55 0 6 12 36 26 67
29 60 78 113 99 105 7 -3 19 1 26 9 8 8 32 20 54 27 22 7 45 16 51 21 6 5 51
19 100 33 49 13 116 33 149 45 33 12 67 24 77 26 9 2 29 10 46 19 16 8 65 20
108 25 74 10 102 18 244 71 30 11 62 20 72 20 9 0 33 9 52 21 27 16 36 18 37
7 4 -75 31 -207 45 -219 8 -6 14 -16 14 -21 0 -15 50 -77 110 -138 61 -62 77
-73 135 -98 22 -9 64 -28 94 -42 l54 -25 -24 -23 c-13 -12 -33 -30 -45 -39
-51 -44 -156 -232 -167 -299 -1 -11 -5 -24 -9 -29 -3 -6 -25 -57 -48 -115 -22
-58 -49 -121 -59 -141 -24 -48 -17 -85 19 -97 16 -6 33 -6 41 -1 8 5 10 9 6 9
-16 0 82 85 125 109 52 28 153 127 225 222 47 61 103 162 103 187 0 6 5 12 10
14 6 2 12 13 12 24 2 21 2 21 44 3 35 -16 60 -18 162 -14 120 4 120 4 155 -24
37 -29 94 -98 121 -148 9 -15 20 -35 26 -43 12 -19 36 -79 43 -105 3 -11 15
-45 27 -75 13 -30 25 -70 27 -88 7 -41 45 -65 80 -49 13 6 23 16 23 23 0 8 8
23 17 33 9 11 18 26 19 33 1 7 10 31 20 53 9 22 18 66 20 97 1 32 5 62 9 68 7
12 8 116 1 167 -3 18 -11 45 -19 60 -29 56 -133 175 -157 181 -6 1 -23 13 -36
26 l-25 23 23 15 c13 8 38 19 56 22 17 4 32 12 32 17 0 5 5 9 12 9 6 0 25 15
42 32 17 18 54 53 82 78 64 57 108 115 125 163 7 20 17 37 23 37 5 0 7 3 3 6
-3 4 0 22 8 41 8 20 15 44 15 54 0 16 8 17 75 14 41 -2 79 -6 83 -9 9 -5 47
-14 97 -23 17 -3 37 -11 45 -18 8 -7 47 -20 87 -29 39 -9 84 -21 98 -26 15 -6
46 -13 69 -16 70 -8 98 -14 118 -25 11 -6 26 -8 35 -5 8 3 35 -3 61 -14 25
-11 59 -23 76 -26 86 -15 158 -39 181 -60 14 -13 30 -24 34 -24 12 0 21 -26
21 -61 0 -17 5 -39 11 -50 8 -16 6 -23 -13 -39 -13 -11 -27 -19 -31 -20 -4 0
-13 -5 -20 -10 -7 -6 -30 -26 -52 -45 -22 -19 -45 -35 -51 -35 -7 0 -14 -6
-17 -14 -3 -8 -27 -42 -54 -76 -65 -84 -91 -130 -92 -164 -1 -16 -8 -37 -17
-47 -11 -12 -13 -27 -9 -51 6 -30 12 -36 51 -47 24 -7 44 -17 44 -22 0 -4 15
-11 34 -14 35 -7 76 -37 76 -56 0 -20 27 -37 52 -32 25 5 52 39 47 59 -5 18
32 124 43 124 6 0 9 3 5 6 -3 4 12 25 33 48 22 22 40 46 40 51 0 6 9 18 19 27
19 16 20 14 41 -75 12 -51 24 -101 26 -111 2 -11 12 -38 22 -60 11 -23 22 -69
25 -102 8 -79 31 -181 51 -218 8 -16 13 -33 10 -38 -6 -9 41 -58 54 -58 20 0
53 33 47 48 -3 8 0 19 7 23 9 6 9 12 -3 26 -35 40 -65 123 -75 206 -3 23 -9
53 -14 67 -5 14 -14 43 -19 65 -5 22 -16 65 -24 95 -8 30 -16 73 -18 95 -1 22
-6 45 -9 50 -4 6 -8 17 -8 25 0 8 -14 60 -31 114 -17 55 -31 109 -31 121 0 12
-11 44 -25 71 -23 46 -30 71 -38 134 -2 14 -11 42 -21 63 -14 29 -24 37 -45
37 -14 0 -39 7 -56 16 -40 21 -127 49 -197 64 -32 6 -58 16 -58 21 0 6 -4 8
-8 5 -4 -2 -34 4 -65 14 -31 10 -85 21 -119 25 -35 3 -76 10 -93 15 -151 48
-193 60 -210 63 -11 2 -29 8 -40 14 -11 6 -49 14 -85 18 -36 3 -74 9 -85 13
-20 6 -28 7 -52 10 -7 1 -15 18 -19 38 -14 74 -64 121 -159 150 -35 11 -188
-1 -217 -17 -16 -9 -24 -7 -37 5 -15 15 -13 19 19 50 43 41 80 85 80 95 0 4
12 18 26 32 14 13 34 40 43 59 21 43 44 83 52 90 19 18 71 172 100 300 6 25
13 56 16 70 4 14 6 46 6 71 l0 46 81 23 c97 26 102 28 190 70 37 17 85 39 105
47 64 27 204 126 265 188 38 39 71 86 95 135 35 72 36 79 36 185 0 103 -2 114
-33 179 -22 47 -51 86 -91 125 -84 79 -86 81 -136 88 -25 3 -45 10 -45 15 0 6
-7 8 -15 5 -8 -4 -27 0 -42 8 -15 8 -36 15 -45 15 -9 0 -29 5 -45 12 -42 17
-87 21 -215 20 -93 0 -118 3 -118 13 0 8 -9 29 -20 48 -12 19 -25 60 -30 91
-5 31 -15 62 -22 69 -7 8 -24 37 -37 65 -14 29 -28 52 -33 52 -4 0 -8 5 -8 11
0 15 -57 87 -98 123 -27 24 -62 73 -67 96 -1 3 -7 18 -13 33 -7 16 -12 67 -12
114 0 99 -27 206 -69 268 -25 38 -29 40 -81 42 -30 1 -71 -2 -90 -7z m120
-116 c11 -26 19 -52 18 -58 -1 -6 2 -45 7 -86 4 -41 9 -88 11 -105 13 -125 35
-177 105 -246 32 -32 59 -63 59 -69 0 -6 9 -21 21 -33 11 -12 30 -40 41 -62
11 -22 29 -52 39 -66 10 -14 21 -50 25 -80 4 -33 16 -67 31 -86 13 -18 26 -46
28 -62 2 -17 10 -63 19 -103 8 -40 18 -90 21 -110 3 -20 13 -46 23 -58 15 -18
21 -20 45 -11 37 14 49 48 30 84 -8 16 -12 31 -9 34 2 3 -2 23 -10 45 -22 64
-22 64 77 76 74 8 99 7 125 -4 19 -8 34 -11 34 -8 0 4 6 2 13 -4 6 -5 33 -13
59 -16 26 -4 53 -13 60 -19 7 -7 24 -13 38 -14 55 -6 90 -14 90 -23 0 -6 4
-10 8 -10 19 0 109 -98 121 -130 7 -19 17 -73 21 -119 8 -74 6 -93 -13 -149
-28 -87 -127 -194 -224 -243 -37 -19 -69 -34 -72 -34 -4 0 -22 -10 -42 -23
-20 -12 -43 -22 -52 -22 -8 0 -17 -3 -19 -7 -1 -5 -25 -16 -53 -26 -27 -11
-79 -30 -115 -43 -36 -13 -105 -29 -155 -35 -49 -6 -108 -14 -130 -19 -22 -5
-78 -12 -125 -15 -95 -6 -168 -13 -220 -20 -19 -3 -87 -7 -150 -10 -63 -3
-140 -8 -170 -12 -59 -9 -110 -8 -350 2 -85 3 -168 10 -183 15 -15 5 -62 12
-105 16 -42 3 -108 14 -147 24 -38 11 -90 21 -115 24 -53 6 -86 14 -120 28
-14 6 -36 15 -50 21 -14 5 -34 14 -45 20 -11 6 -45 23 -75 38 -54 26 -147 106
-136 116 3 3 -1 12 -9 20 -25 25 -56 147 -49 195 7 49 35 128 47 128 4 0 7 8
7 19 0 10 11 30 25 45 13 15 29 35 34 44 12 22 202 117 252 126 20 3 54 15 77
26 23 11 52 20 65 20 14 0 30 6 36 14 9 11 40 15 120 15 l108 1 6 -51 c11 -90
62 -146 97 -104 11 13 11 28 2 79 -17 91 10 220 53 256 8 7 15 20 15 30 0 9 9
25 20 35 11 10 20 21 20 25 0 4 29 36 65 72 36 36 65 71 65 77 0 6 7 11 15 11
8 0 15 5 15 10 0 6 8 14 18 17 9 4 29 19 45 35 15 15 29 28 31 28 9 0 106 104
106 114 0 5 6 17 14 25 7 9 25 48 40 86 15 39 31 79 36 90 5 11 14 37 20 57 6
20 18 42 26 48 7 7 14 18 14 25 0 19 51 71 88 89 18 9 61 19 95 23 34 3 64 7
66 9 8 7 10 4 31 -42z m377 -2086 c-10 -97 -15 -126 -25 -145 -5 -10 -14 -39
-21 -66 -12 -50 -58 -152 -91 -202 -11 -16 -25 -40 -31 -52 -7 -13 -16 -23
-20 -23 -5 0 -19 -19 -33 -43 -31 -53 -150 -168 -202 -196 -22 -12 -46 -25
-54 -30 -42 -24 -112 -50 -160 -60 -69 -14 -233 -1 -275 22 -38 20 -115 90
-115 104 0 7 -8 14 -17 17 -18 6 -33 27 -87 121 -15 27 -33 53 -38 56 -11 7
-38 57 -38 72 0 6 -7 18 -16 28 -8 9 -17 23 -18 31 -3 13 -5 19 -29 82 -6 16
-11 87 -11 158 l-1 129 40 -5 c22 -3 79 -5 128 -5 85 -1 115 -13 59 -26 -36
-8 -82 -96 -62 -120 20 -24 44 -18 63 15 10 17 26 30 36 30 9 0 21 4 27 10 6
6 24 4 49 -5 22 -8 48 -14 58 -15 9 0 17 -4 17 -9 0 -4 12 -6 28 -3 33 5 61
38 55 63 -6 21 -66 44 -103 40 -14 -2 -22 0 -19 3 11 11 160 25 324 31 61 2
142 6 180 10 l70 6 -50 -24 c-61 -30 -90 -73 -75 -111 5 -14 16 -26 25 -26 18
0 55 35 55 52 0 6 3 8 6 5 4 -3 16 0 28 8 31 23 63 17 148 -26 27 -14 50 -11
63 8 25 34 -17 108 -55 98 -8 -2 -26 2 -39 9 -23 13 -21 14 30 20 30 4 77 10
104 14 108 15 99 20 92 -50z m-1087 -785 c12 -9 13 -17 2 -45 -6 -19 -12 -40
-12 -46 0 -6 -11 -22 -24 -35 -27 -27 -26 -61 4 -87 10 -8 20 -26 24 -40 19
-65 91 -190 139 -242 29 -32 51 -58 49 -58 -3 0 5 -8 16 -19 12 -10 22 -27 22
-37 0 -15 -32 -87 -45 -102 -1 -2 -28 9 -60 24 -32 14 -75 32 -95 39 -21 7
-56 25 -79 39 -22 14 -43 26 -46 26 -17 0 -115 119 -115 140 0 6 -4 10 -8 10
-5 0 -15 12 -22 28 -34 73 -35 226 -2 294 30 60 113 148 141 148 11 0 26 8 33
19 11 18 13 17 37 -13 14 -17 33 -36 41 -43z m779 -51 c14 -20 40 -51 59 -69
l35 -31 -34 -36 c-95 -102 -245 -246 -256 -246 -7 0 -13 -4 -13 -9 0 -10 -121
-91 -173 -115 -40 -18 -67 -16 -67 6 0 7 -23 27 -50 43 -36 22 -63 50 -98 105
-57 87 -102 178 -102 206 0 11 -5 25 -10 30 -7 7 -7 20 0 41 13 36 37 37 110
4 35 -15 69 -20 145 -21 169 -2 263 25 374 105 19 14 39 25 45 25 6 0 22 -17
35 -38z m374 -33 c16 -20 18 -33 12 -83 -3 -33 -13 -78 -21 -100 -7 -23 -14
-48 -14 -57 0 -9 -9 -24 -20 -34 -11 -10 -20 -26 -20 -36 0 -10 -18 -37 -40
-59 -22 -22 -40 -45 -40 -50 0 -6 -4 -10 -8 -10 -5 0 -24 -15 -43 -33 -49 -47
-105 -88 -111 -81 -7 6 -85 -31 -110 -53 -11 -10 -26 -13 -42 -9 -16 4 -26 1
-30 -9 -3 -8 -14 -15 -24 -15 -14 0 -21 9 -25 35 -3 20 -20 53 -37 74 l-30 39
41 30 c80 59 319 286 319 303 0 5 6 9 14 9 20 0 44 36 41 63 -1 12 -3 27 -4
34 0 6 -10 9 -21 6 -16 -4 -18 -1 -14 23 9 54 11 55 69 53 30 -1 57 0 60 3 11
10 79 -20 98 -43z m-670 -548 c-3 -13 2 -21 15 -25 25 -8 36 -41 48 -153 l6
-63 -86 1 c-102 1 -136 9 -171 41 -32 30 -35 76 -10 146 18 50 44 68 60 42 9
-15 46 -11 90 9 51 25 54 25 48 2z m1911 -280 c-11 -20 -38 -55 -61 -77 -25
-24 -62 -79 -88 -130 -25 -49 -45 -83 -45 -76 0 6 -7 12 -15 12 -13 0 -72 35
-102 60 -7 5 -17 10 -23 10 -12 0 -13 -6 4 57 8 29 20 59 28 67 13 14 23 27
82 111 20 28 70 75 113 107 l78 56 24 -81 c23 -80 23 -81 5 -116z m-1615 83
c17 -10 31 -22 31 -26 0 -4 6 -8 13 -8 6 0 31 -18 55 -40 24 -22 40 -40 36
-40 -4 0 2 -10 13 -22 36 -40 43 -65 44 -155 2 -88 -16 -203 -30 -203 -8 0
-71 123 -71 139 0 21 -104 179 -146 222 -24 25 -42 48 -38 51 3 3 -4 9 -15 13
-16 5 -21 15 -21 44 0 21 3 40 6 44 12 11 92 -1 123 -19z m-599 -13 c0 -5 12
-24 28 -42 18 -22 21 -31 10 -27 -16 7 -52 -13 -54 -29 0 -4 -6 -21 -12 -36
-7 -16 -12 -32 -12 -37 0 -7 -62 -95 -90 -127 -5 -7 -10 -16 -10 -20 -1 -21
-169 -173 -191 -173 -6 0 -2 15 9 34 11 19 40 88 63 153 45 125 79 184 143
242 53 49 116 83 116 62z"/>
<path d="M2602 4477 c-35 -44 -48 -248 -23 -367 12 -56 47 -120 68 -120 6 0
14 -9 18 -19 3 -11 25 -35 48 -54 79 -64 155 -94 172 -67 4 6 10 8 15 5 12 -8
100 82 100 102 0 26 -28 63 -48 63 -9 0 -33 -18 -52 -41 l-36 -41 -44 30 c-78
53 -132 112 -147 161 -15 49 -20 192 -9 228 14 43 15 65 6 89 -6 14 -14 23
-19 20 -5 -4 -16 0 -24 9 -12 11 -17 12 -25 2z"/>
<path d="M2239 2383 c-33 -8 -39 -82 -9 -101 22 -13 55 0 65 26 14 38 -20 83
-56 75z"/>
<path d="M2912 2377 c-16 -8 -22 -17 -20 -39 3 -35 27 -51 63 -42 27 7 33 31
15 63 -13 25 -30 30 -58 18z"/>
<path d="M2599 2219 c-26 -18 -59 -17 -59 2 0 16 -36 10 -58 -10 -28 -24 -28
-55 1 -68 56 -26 77 -32 82 -23 4 6 14 10 23 10 27 1 62 36 62 63 0 38 -20 49
-51 26z"/>
<path d="M2322 2018 c-26 -33 -17 -75 21 -94 17 -9 35 -21 38 -26 26 -40 279
-38 320 3 23 23 24 47 3 77 -17 24 -40 23 -103 -5 -46 -21 -105 -18 -151 6
-21 11 -40 18 -42 15 -3 -2 -13 5 -23 16 -21 23 -48 26 -63 8z"/>
<path d="M2567 539 c-9 -5 -23 -22 -31 -38 -14 -26 -13 -29 14 -55 21 -20 35
-25 53 -21 23 6 47 41 47 68 -1 35 -52 64 -83 46z"/>
<path d="M2575 159 c-24 -25 -21 -58 7 -82 43 -36 87 -11 88 51 0 26 -5 34
-26 42 -35 14 -46 12 -69 -11z"/>
</g>
</svg>
