<?xml version="1.0" standalone="no"?>
<!DOCTYPE svg PUBLIC "-//W3C//DTD SVG 20010904//EN"
 "http://www.w3.org/TR/2001/REC-SVG-20010904/DTD/svg10.dtd">
<svg version="1.0" xmlns="http://www.w3.org/2000/svg"
 width="497.000000pt" height="473.000000pt" viewBox="0 0 497.000000 473.000000"
 preserveAspectRatio="xMidYMid meet">
<metadata>
Created by potrace 1.16, written by Peter Selinger 2001-2019
</metadata>
<g transform="translate(0.000000,473.000000) scale(0.100000,-0.100000)"
fill="#000000" stroke="none">
<path d="M4157 4466 c-10 -10 -17 -12 -19 -5 -4 11 -26 1 -145 -61 -23 -12
-45 -30 -48 -41 -4 -10 -11 -19 -16 -19 -5 0 -9 -6 -9 -14 0 -8 -7 -17 -16
-20 -8 -3 -12 -10 -9 -16 3 -5 2 -10 -3 -10 -8 0 -31 -76 -53 -175 -4 -22 -11
-51 -14 -65 -16 -70 6 -269 36 -322 5 -10 9 -24 9 -32 0 -9 18 -41 41 -73 49
-71 123 -120 192 -129 l50 -7 -6 -59 c-3 -33 -8 -62 -11 -65 -3 -4 -79 -5
-169 -4 -89 1 -171 2 -182 3 -48 0 -116 -16 -127 -29 -7 -8 -14 -44 -15 -80
-2 -35 -10 -83 -18 -106 -8 -23 -15 -51 -15 -62 0 -11 -11 -67 -24 -125 -13
-58 -31 -134 -39 -170 -14 -62 -36 -148 -58 -236 -15 -57 -57 -97 -152 -143
-45 -22 -95 -49 -112 -61 -16 -11 -36 -20 -44 -20 -7 0 -52 -22 -100 -48 -91
-51 -170 -84 -211 -88 -57 -7 -78 -96 -29 -121 36 -19 49 -16 109 27 30 22
125 74 210 117 85 43 157 80 160 83 11 11 125 60 139 60 6 0 19 4 29 9 9 5 29
14 45 20 18 7 27 18 28 33 4 135 64 398 91 398 6 0 14 -212 10 -270 0 -3 -3
-79 -6 -170 -4 -91 -8 -178 -10 -195 -4 -27 -16 -160 -20 -210 0 -11 -11 -24
-23 -30 -46 -20 -51 -99 -7 -115 13 -5 30 -7 37 -5 16 7 15 -137 -2 -178 -6
-16 -11 -46 -11 -67 0 -21 -5 -51 -11 -67 -7 -15 -16 -48 -20 -73 -23 -129
-56 -259 -71 -283 -18 -27 -19 -76 -1 -99 15 -20 54 -162 55 -198 0 -8 4 -28
8 -45 15 -54 32 -202 31 -279 0 -22 5 -48 11 -59 5 -11 12 -34 14 -51 3 -17 7
-41 9 -52 8 -36 -53 -53 -200 -56 -118 -2 -128 -4 -156 -28 -28 -23 -30 -29
-23 -68 6 -42 7 -42 48 -42 22 0 55 7 71 16 17 9 65 18 109 21 43 2 88 8 100
12 11 4 43 6 69 4 61 -4 96 18 96 62 0 17 -6 39 -14 49 -8 11 -15 30 -15 43 0
13 -5 23 -11 23 -5 0 -7 5 -4 10 4 6 0 43 -9 83 -8 40 -18 104 -21 142 -3 39
-10 95 -15 125 -5 30 -12 81 -15 113 -3 32 -8 64 -10 70 -5 13 -12 52 -21 107
-3 19 -7 40 -9 47 -2 6 0 27 6 45 5 18 11 47 14 63 8 51 23 128 35 175 18 69
21 82 26 125 5 42 7 54 17 95 8 31 14 76 23 156 4 34 9 66 13 72 7 11 44 16
221 33 139 12 112 12 250 3 63 -4 132 -13 154 -21 21 -7 51 -13 66 -13 15 0
30 -6 33 -14 7 -17 -7 -72 -22 -89 -5 -7 -15 -41 -22 -77 -6 -36 -20 -83 -30
-105 -10 -22 -23 -60 -29 -85 -7 -25 -15 -52 -18 -60 -3 -8 -6 -20 -7 -26 -2
-6 -15 -33 -29 -60 -14 -27 -26 -54 -26 -60 0 -6 -7 -17 -14 -24 -8 -6 -20
-27 -26 -46 -10 -28 -8 -41 8 -76 11 -24 28 -63 38 -88 10 -25 26 -64 36 -87
10 -23 18 -50 18 -60 0 -10 6 -27 13 -38 8 -11 26 -60 41 -110 15 -49 31 -99
36 -110 5 -11 14 -45 21 -75 6 -30 14 -59 18 -65 3 -5 7 -19 8 -30 2 -11 10
-37 18 -58 19 -47 19 -44 -7 -45 -13 -1 -59 -7 -103 -15 -44 -9 -84 -12 -90
-7 -24 18 -78 3 -107 -28 -28 -33 -36 -52 -19 -52 5 0 11 -10 13 -22 2 -13 9
-24 16 -24 6 -1 13 -3 15 -4 6 -7 53 -7 62 0 6 5 28 11 50 15 22 4 45 11 50
15 6 4 28 10 50 13 22 3 54 9 70 13 17 3 39 8 50 9 11 2 22 4 25 5 3 1 8 2 13
1 4 0 7 4 7 9 0 6 7 10 15 10 28 0 23 40 -15 118 -15 32 -45 118 -65 191 -20
74 -40 143 -45 155 -62 158 -130 369 -130 404 0 12 12 46 27 75 14 29 29 66
34 82 4 17 19 64 34 105 15 41 28 80 30 85 1 6 7 23 13 38 7 16 12 40 12 55 1
15 8 45 16 67 29 75 51 160 47 180 -5 18 -13 97 -14 120 0 6 7 43 15 82 8 40
18 153 21 250 3 98 10 201 15 228 12 65 32 265 34 332 0 28 4 49 7 47 10 -6
47 275 49 365 0 29 2 56 4 60 2 3 0 16 -5 29 -8 22 -12 23 -137 21 -71 -1
-133 0 -138 4 -5 3 -46 2 -91 -2 -45 -3 -86 -5 -92 -3 -15 5 -14 97 2 109 6 6
25 13 41 17 17 4 42 16 57 27 15 10 34 19 43 19 9 0 16 4 16 10 0 5 11 19 24
32 50 49 121 206 130 290 3 25 10 58 15 72 9 22 8 103 -3 239 -2 29 -17 75
-37 114 -56 109 -151 170 -283 179 -58 4 -76 2 -89 -10z m157 -91 c39 -6 60
-17 96 -51 65 -61 88 -122 88 -231 0 -228 -71 -407 -194 -489 -28 -19 -169
-24 -201 -7 -14 7 -31 13 -38 13 -8 0 -24 14 -37 30 -13 17 -37 47 -54 66 -44
51 -79 189 -69 276 6 56 36 188 52 228 3 8 5 18 5 22 -1 4 11 14 27 22 15 8
34 28 40 44 17 41 83 76 156 82 33 3 65 5 70 4 6 0 32 -4 59 -9z m234 -1104
c9 -1 12 -11 8 -33 -8 -44 -30 -123 -50 -178 -33 -89 -56 -163 -56 -181 0 -10
-4 -20 -9 -23 -5 -3 -12 -22 -15 -41 -4 -19 -11 -35 -15 -35 -9 0 -21 -36 -27
-76 -4 -31 -45 -124 -55 -124 -4 0 -14 -6 -21 -13 -7 -7 -29 -22 -48 -34 -19
-12 -48 -35 -64 -52 -17 -17 -35 -31 -41 -31 -7 0 -20 -9 -30 -20 -10 -11 -26
-20 -35 -20 -10 0 -23 -7 -30 -15 -7 -8 -27 -17 -46 -21 -44 -8 -77 -49 -69
-84 16 -64 62 -67 120 -10 22 22 43 40 47 40 11 0 100 62 133 93 17 15 55 39
85 53 30 14 64 30 76 36 16 7 24 28 38 101 9 51 31 128 47 171 17 44 31 87 32
98 1 10 4 18 8 18 4 0 12 21 18 48 5 26 21 72 35 102 l25 55 -5 -45 c-3 -25
-9 -65 -14 -90 -5 -25 -12 -72 -15 -105 -3 -33 -8 -69 -10 -80 -10 -42 -15
-82 -20 -140 -3 -33 -8 -82 -10 -109 -3 -27 -8 -99 -10 -160 -3 -61 -11 -142
-19 -181 -15 -72 -33 -165 -43 -223 -5 -30 -7 -32 -37 -27 -87 15 -473 24
-494 11 -7 -4 -56 -9 -111 -11 -110 -5 -111 -5 -104 60 11 112 18 399 15 640
-4 411 -2 539 8 549 6 6 10 23 10 38 0 33 -11 31 165 32 77 1 162 5 188 10 27
5 47 5 46 0 -9 -38 55 -61 81 -29 7 8 9 15 5 15 -4 0 -2 6 5 14 18 23 49 23
308 7z"/>
<path d="M2673 3086 c-11 -18 -47 -36 -72 -36 -11 0 -25 -9 -31 -20 -6 -11
-15 -20 -21 -20 -5 0 -23 -15 -39 -33 -16 -19 -47 -46 -68 -61 -22 -15 -45
-39 -51 -54 -16 -34 -58 -92 -139 -188 -34 -42 -71 -92 -81 -112 -26 -52 -19
-109 18 -143 l28 -26 -25 -34 c-25 -31 -118 -126 -247 -252 -67 -65 -95 -95
-111 -123 -8 -13 -21 -18 -40 -17 -16 2 -66 3 -112 2 -86 0 -214 23 -267 48
-47 23 -93 49 -110 63 -12 10 -19 10 -27 2 -7 -7 -33 -12 -58 -12 -25 0 -51
-5 -56 -10 -12 -12 -100 -29 -186 -36 l-58 -6 0 45 c0 42 3 46 32 57 36 14 45
16 69 18 23 3 97 70 105 95 3 12 14 31 23 42 33 38 44 120 42 305 -1 95 -6
129 -21 144 -5 5 -10 19 -10 29 0 18 -63 114 -84 129 -6 4 -14 4 -20 1 -5 -3
-6 -1 -2 6 17 26 -62 67 -125 65 -81 -3 -131 -23 -182 -72 -40 -39 -127 -153
-127 -167 0 -2 -10 -21 -22 -42 -23 -37 -26 -47 -34 -93 -2 -14 -8 -47 -13
-74 -10 -58 2 -180 22 -227 28 -66 112 -131 196 -152 60 -15 69 -27 70 -93 1
-47 -10 -54 -90 -54 -25 0 -50 -5 -57 -12 -7 -7 -48 -12 -105 -13 -101 -1
-117 -6 -117 -35 0 -23 20 -70 31 -70 4 0 7 -19 7 -42 0 -24 5 -54 10 -68 5
-14 8 -43 7 -65 -8 -143 -16 -349 -20 -482 -2 -86 -8 -160 -13 -165 -15 -15
12 -86 99 -259 40 -82 40 -86 0 -184 -32 -78 -82 -255 -75 -266 2 -4 0 -10 -5
-13 -5 -3 -12 -23 -16 -43 -3 -21 -13 -47 -20 -59 -7 -11 -16 -35 -18 -52 -3
-18 -14 -46 -25 -64 -19 -30 -19 -35 -6 -61 l15 -28 82 7 c45 4 114 8 152 9
39 1 76 3 82 3 17 3 43 55 43 85 0 27 -23 52 -39 43 -6 -4 -32 -7 -58 -8 -26
0 -52 -4 -58 -8 -5 -4 -31 -10 -56 -14 l-47 -7 13 53 c7 29 20 80 29 113 9 32
16 70 16 83 0 13 11 52 25 87 14 35 28 72 30 82 6 27 28 84 46 118 18 36 24
105 9 105 -6 0 -17 15 -24 32 -8 18 -22 50 -31 70 -42 98 -55 160 -37 172 5 3
89 8 187 11 98 4 199 10 224 15 52 9 71 4 71 -19 0 -9 7 -29 15 -45 8 -15 15
-34 15 -42 0 -7 11 -33 24 -57 14 -24 26 -56 28 -73 3 -16 9 -40 15 -54 22
-53 46 -126 46 -140 0 -8 -10 -58 -23 -110 -12 -52 -23 -102 -24 -110 -5 -28
-28 -105 -37 -122 -5 -10 -9 -31 -9 -47 0 -15 -10 -40 -21 -55 -30 -38 -37
-110 -14 -136 16 -18 30 -20 134 -19 64 1 145 4 181 8 l65 6 3 46 c4 65 -10
74 -91 60 -68 -12 -180 -15 -190 -5 -3 3 -2 18 3 32 5 15 16 63 25 107 16 77
25 107 41 150 14 38 47 190 49 230 1 24 -5 53 -16 73 -11 18 -19 44 -19 57 0
13 -4 26 -9 30 -5 3 -13 19 -16 36 -4 17 -19 68 -34 113 -25 80 -26 86 -19
241 5 87 10 160 11 162 2 2 21 -3 43 -10 21 -8 67 -17 102 -20 35 -4 67 -9 73
-13 14 -8 66 15 73 32 3 8 -1 17 -10 21 -8 3 -14 13 -13 22 1 9 1 21 0 26 -1
6 -41 10 -98 10 -80 0 -103 4 -127 19 -27 19 -28 22 -21 70 4 28 11 78 16 111
4 33 10 71 13 85 2 14 13 71 23 128 16 95 19 103 38 97 127 -38 219 -55 302
-55 61 0 106 -5 132 -16 45 -18 81 -16 91 6 37 80 73 126 179 227 115 110 114
109 176 177 43 48 56 57 68 48 29 -24 200 -14 242 14 11 8 27 14 37 14 9 0 23
6 30 13 7 6 26 19 42 27 28 14 78 84 104 143 7 15 12 59 12 96 0 66 -1 70 -35
100 -20 17 -42 31 -50 31 -27 0 -26 20 5 65 17 25 33 53 35 63 2 9 10 31 19
47 9 17 16 54 16 86 0 50 -3 57 -22 63 -35 9 -46 7 -55 -8z m-12 -134 c-7 -34
-89 -152 -105 -152 -16 0 -46 -53 -46 -83 0 -37 18 -46 75 -37 62 10 82 0 91
-44 8 -44 -1 -71 -39 -121 -17 -22 -32 -41 -33 -43 -1 -2 -8 -4 -16 -6 -7 -1
-34 -12 -59 -24 -25 -12 -65 -24 -90 -26 -53 -6 -119 12 -119 31 0 7 -8 16
-17 19 -40 13 -63 28 -63 42 0 13 29 71 40 82 3 3 17 20 30 39 13 19 48 62 77
94 29 33 53 65 53 71 0 6 14 22 30 36 17 14 30 29 30 35 1 17 130 109 161 114
4 1 4 -11 0 -27z m-1696 -102 c20 0 85 -72 118 -130 21 -39 27 -62 28 -112 0
-61 -9 -202 -16 -243 -2 -11 -4 -27 -4 -36 -1 -24 -65 -88 -103 -103 -91 -38
-263 -7 -310 57 -28 36 -58 118 -58 156 0 74 31 173 90 281 18 35 110 131 110
116 0 -5 7 -3 15 4 9 7 27 10 45 7 16 -4 32 -2 36 4 3 6 13 8 21 5 8 -3 21 -6
28 -6z m271 -907 c-4 -8 -9 -33 -12 -56 -3 -23 -12 -78 -19 -122 -7 -44 -14
-87 -14 -95 0 -8 -3 -35 -7 -60 -3 -25 -7 -69 -8 -97 -1 -43 -4 -53 -18 -53
-9 0 -20 4 -23 10 -3 5 -18 7 -33 5 -57 -10 -128 -12 -147 -5 -24 9 -115 122
-115 143 0 9 -3 17 -7 19 -5 2 -35 39 -68 83 -33 43 -72 93 -88 109 -15 17
-26 35 -24 41 4 11 58 21 183 34 45 5 86 11 92 14 5 4 33 9 63 12 30 4 81 12
113 18 87 18 139 18 132 0z m-591 -202 c7 -14 29 -42 47 -63 19 -20 47 -56 63
-80 17 -23 38 -52 48 -62 9 -11 17 -26 17 -33 0 -7 4 -13 9 -13 5 0 20 -21 32
-47 32 -67 44 -77 92 -74 23 1 76 3 117 4 l75 2 -2 -104 c-1 -57 -4 -105 -6
-107 -2 -3 -42 -11 -88 -20 -77 -14 -443 -23 -455 -12 -7 7 -7 40 0 343 3 160
6 293 6 297 0 16 32 -6 45 -31z"/>
</g>
</svg>
