<?xml version="1.0" standalone="no"?>
<!DOCTYPE svg PUBLIC "-//W3C//DTD SVG 20010904//EN"
 "http://www.w3.org/TR/2001/REC-SVG-20010904/DTD/svg10.dtd">
<svg version="1.0" xmlns="http://www.w3.org/2000/svg"
 width="527.000000pt" height="373.000000pt" viewBox="0 0 527.000000 373.000000"
 preserveAspectRatio="xMidYMid meet">
<metadata>
Created by potrace 1.16, written by Peter Selinger 2001-2019
</metadata>
<g transform="translate(0.000000,373.000000) scale(0.100000,-0.100000)"
fill="#000000" stroke="none">
<path d="M1458 3439 c-63 -10 -128 -54 -152 -104 -23 -45 -26 -165 -7 -254 6
-29 8 -57 5 -63 -3 -5 -7 -19 -9 -31 -1 -12 -8 -41 -14 -64 -15 -55 -3 -80 45
-89 33 -6 34 -7 18 -25 -9 -11 -13 -19 -8 -19 5 0 4 -4 -1 -8 -6 -4 -17 -20
-25 -35 -11 -22 -11 -32 -3 -47 9 -13 9 -22 -1 -35 -12 -16 -14 -15 -19 15
l-7 32 -72 -7 c-80 -8 -148 -42 -148 -73 0 -5 -9 -21 -21 -36 -11 -14 -18 -26
-16 -26 2 0 1 -18 -3 -40 -4 -22 -4 -40 0 -40 4 0 14 -15 21 -32 13 -31 27
-53 56 -82 6 -7 16 -29 21 -50 9 -30 8 -38 -3 -42 -8 -3 -17 -14 -20 -24 -3
-10 -38 -32 -83 -51 -42 -19 -91 -47 -109 -62 -18 -16 -37 -26 -43 -22 -5 3
-10 1 -10 -5 0 -6 -12 -16 -27 -23 -67 -29 -77 -80 -35 -167 37 -78 67 -94
124 -65 37 18 97 39 143 49 17 4 38 9 47 12 17 5 18 -7 17 -152 0 -178 2 -185
70 -186 38 0 41 -2 34 -22 -4 -11 -7 -49 -8 -83 0 -54 -4 -64 -26 -82 -29 -22
-39 -19 -39 12 0 11 -6 28 -14 36 -7 9 -21 68 -31 131 -9 63 -21 122 -25 130
-4 8 -10 35 -13 60 -7 57 -25 117 -37 125 -16 10 -59 -28 -60 -52 0 -12 4 -24
9 -28 6 -3 13 -27 17 -53 3 -26 13 -62 20 -80 8 -19 19 -73 25 -120 6 -48 13
-97 14 -110 2 -13 8 -28 13 -35 5 -7 12 -27 16 -46 7 -40 -12 -60 -59 -61 -16
0 -36 -4 -44 -9 -19 -12 -58 69 -63 134 -3 28 -12 66 -21 85 -14 32 -44 166
-51 230 -2 14 -4 31 -4 38 -3 18 -36 15 -54 -5 -11 -13 -18 -51 -22 -133 -4
-63 -10 -131 -15 -150 -4 -19 -3 -59 1 -88 10 -62 3 -135 -12 -140 -6 -2 -31
-15 -56 -28 -25 -13 -52 -24 -60 -24 -8 0 -27 -6 -42 -14 -40 -20 -72 -29 -72
-19 0 8 15 24 72 77 28 25 28 26 23 128 -3 57 -11 126 -17 155 -6 28 -8 61 -5
73 3 12 1 74 -4 138 -6 64 -12 142 -14 172 -5 78 -25 180 -42 213 -7 15 -11
32 -8 37 7 12 -33 179 -48 198 -23 30 -86 -6 -93 -54 -1 -8 -12 -35 -25 -61
-15 -31 -23 -67 -24 -107 -1 -69 -19 -111 -42 -102 -8 3 -21 6 -28 6 -10 0
-13 28 -13 123 0 67 -4 145 -10 172 -10 50 -9 50 36 110 25 33 50 62 55 64 6
2 38 29 72 60 34 31 76 67 94 80 17 13 31 29 31 36 0 7 11 20 25 29 13 9 32
30 40 47 15 28 15 33 0 55 -8 13 -19 24 -23 24 -8 0 -80 -77 -125 -134 -16
-20 -34 -36 -41 -36 -6 0 -18 -10 -26 -21 -8 -12 -42 -42 -75 -66 -32 -24 -68
-59 -78 -76 -11 -18 -23 -34 -27 -37 -4 -3 -17 -22 -28 -44 -15 -27 -18 -44
-12 -60 22 -54 28 -180 14 -313 l-7 -61 33 -17 c38 -19 164 -22 186 -4 7 6 14
21 14 33 2 114 9 175 24 204 10 19 20 32 23 29 2 -3 6 -32 7 -65 1 -33 8 -67
14 -75 7 -8 14 -23 16 -33 12 -66 19 -115 21 -154 2 -25 6 -90 10 -145 4 -55
8 -134 10 -175 1 -41 5 -125 7 -187 l5 -112 -38 -31 c-22 -17 -39 -37 -39 -44
0 -8 -7 -16 -15 -20 -23 -8 -20 -79 5 -101 11 -10 20 -15 20 -12 0 4 11 2 24
-3 18 -6 39 -3 78 12 29 11 70 25 91 31 20 6 37 15 37 19 0 4 10 8 23 8 13 0
27 3 31 7 3 4 14 8 23 9 9 2 28 5 41 9 l24 6 -6 149 c-4 95 -2 150 4 150 11 0
17 -25 23 -98 2 -29 11 -60 21 -70 9 -10 16 -26 16 -35 0 -28 32 -85 51 -90
10 -3 30 2 46 11 15 8 48 16 73 18 25 1 48 3 53 3 4 1 7 8 7 17 0 11 9 7 29
-15 33 -35 58 -38 121 -16 24 8 45 13 48 10 5 -5 94 44 103 58 3 5 10 8 15 8
5 -1 9 52 10 117 0 109 11 162 32 162 4 0 23 -39 42 -87 18 -49 37 -90 40 -93
4 -3 10 -17 13 -31 8 -33 62 -52 98 -34 25 13 57 14 76 2 6 -4 13 0 17 8 3 8
17 15 30 15 40 0 58 36 47 94 -11 58 -37 89 -67 82 -26 -7 -29 -4 -38 45 -7
39 -9 38 68 39 39 1 68 -22 73 -60 7 -43 44 -165 55 -177 8 -11 24 -13 50 -10
26 3 43 0 53 -9 13 -13 20 -12 59 6 25 11 56 20 70 20 27 0 84 27 103 50 7 8
11 23 9 32 -2 9 1 19 6 20 7 3 5 10 -3 18 -8 8 -22 27 -31 41 -16 25 -21 27
-83 23 -61 -4 -65 -3 -65 16 0 12 -6 33 -14 48 -7 15 -16 42 -19 59 -5 26 -2
35 13 43 11 6 24 9 28 6 15 -9 106 22 118 40 11 16 9 26 -6 59 -11 22 -19 46
-20 54 0 8 -11 33 -24 55 -13 23 -26 55 -30 71 -7 29 -28 82 -47 117 -5 10 -9
24 -9 31 0 7 -12 38 -26 68 -27 56 -63 155 -64 176 0 16 76 -22 84 -42 4 -12
17 -15 48 -13 42 3 43 4 79 76 20 40 44 81 54 92 23 26 13 68 -20 80 -18 7
-25 17 -25 35 0 14 -4 25 -9 25 -5 0 -46 36 -91 80 -45 44 -86 78 -91 74 -10
-6 -107 76 -122 103 -6 9 -3 21 6 31 27 32 44 78 41 115 -5 54 -20 77 -51 77
-18 0 -40 15 -72 49 -25 26 -56 51 -68 55 -24 8 -49 41 -59 80 -6 27 -75 95
-97 97 -6 1 -24 0 -39 -1 -15 -1 -35 3 -45 8 -10 4 -39 5 -65 1z m158 -103
c13 -9 24 -25 24 -35 0 -10 7 -24 15 -31 8 -7 15 -16 15 -21 0 -15 43 -59 57
-59 7 0 41 -27 75 -60 34 -32 65 -57 70 -54 4 3 8 -3 8 -13 0 -22 -36 -83 -49
-83 -5 0 -17 -7 -26 -16 -9 -9 -44 -26 -79 -38 -56 -20 -80 -22 -211 -19 -81
1 -150 5 -153 8 -4 3 -1 14 6 25 7 12 8 21 2 25 -7 4 -6 14 1 27 8 14 8 38 0
82 -29 173 -21 232 38 270 33 21 169 16 207 -8z m294 -516 c39 -39 107 -90
118 -90 6 0 12 -3 14 -8 2 -4 24 -25 50 -46 26 -21 46 -42 43 -46 -2 -4 4 -15
15 -25 17 -16 24 -16 48 -6 22 10 25 10 15 0 -7 -7 -13 -18 -13 -25 0 -7 -16
-36 -35 -65 -19 -29 -36 -58 -38 -63 -2 -6 -11 -3 -21 7 -10 9 -22 17 -28 17
-6 0 -20 7 -29 16 -21 19 -91 34 -121 26 -23 -6 -22 -11 12 -136 11 -43 34
-103 51 -134 16 -30 29 -61 29 -69 0 -8 13 -42 29 -76 16 -34 32 -78 36 -97 4
-19 15 -51 25 -70 47 -91 48 -120 6 -120 -31 0 -124 -28 -131 -41 -8 -11 26
-152 38 -157 4 -2 7 -15 7 -28 0 -14 7 -38 15 -54 16 -31 29 -35 111 -31 23 2
45 -2 48 -8 9 -14 -26 -31 -64 -31 -17 0 -41 -7 -54 -15 -16 -11 -33 -14 -52
-8 -16 4 -34 6 -41 5 -21 -4 -40 50 -52 148 -6 53 -7 55 -37 58 -30 3 -31 4
-27 43 4 35 1 44 -29 72 -44 42 -63 74 -100 160 -47 113 -47 112 -11 93 28
-14 68 -15 81 -1 3 3 11 40 18 82 9 58 9 88 0 122 l-11 46 -55 8 c-30 5 -75
10 -99 11 -24 2 -47 9 -51 15 -4 8 -17 10 -33 6 -36 -9 -139 41 -133 64 19 71
11 163 -18 200 -6 8 -10 23 -8 33 5 30 -26 58 -65 58 -18 0 -33 5 -33 10 0 6
9 10 19 10 13 0 26 15 41 44 14 29 29 46 45 50 18 5 25 13 25 30 0 22 3 23 27
17 16 -4 46 -4 68 0 22 5 54 6 70 3 32 -6 190 39 201 57 6 10 28 -5 84 -61z
m-620 -216 c9 -15 22 -24 37 -24 13 0 26 -8 30 -17 3 -10 12 -25 20 -34 21
-25 19 -112 -5 -160 -26 -53 -17 -74 36 -83 22 -3 45 -12 52 -21 6 -8 27 -17
46 -21 19 -3 34 -10 34 -15 0 -5 15 -9 33 -9 39 1 89 -5 142 -16 22 -4 45 -7
51 -6 12 2 12 -12 0 -70 -8 -38 -19 -47 -31 -28 -11 18 -80 11 -102 -10 -30
-27 -21 -70 27 -135 21 -28 41 -69 44 -89 3 -20 17 -54 31 -74 14 -20 25 -42
25 -48 0 -7 8 -15 18 -19 15 -6 14 -8 -8 -20 -14 -7 -29 -11 -34 -7 -18 11
-60 11 -73 0 -17 -14 -16 -49 4 -133 17 -74 47 -115 84 -115 10 0 19 -4 19 -9
0 -14 -43 -21 -57 -10 -9 8 -20 5 -42 -10 l-29 -21 -21 36 c-12 19 -21 39 -21
43 0 5 -9 29 -20 53 -11 25 -24 68 -30 95 -6 28 -17 59 -24 68 -12 16 -15 15
-49 -14 -20 -18 -37 -31 -39 -30 -2 2 -11 -2 -20 -7 -23 -13 -40 -97 -41 -204
-1 -84 -1 -85 -32 -106 -17 -11 -53 -24 -78 -27 -40 -6 -47 -4 -47 11 0 9 13
24 29 34 22 12 32 27 38 60 6 25 5 46 0 49 -5 4 -5 31 0 67 7 45 6 69 -4 95
-14 33 -54 63 -81 58 -10 -2 -11 21 -6 106 3 59 8 111 11 116 2 4 -1 7 -6 7
-6 0 -11 5 -11 11 0 25 -33 79 -53 86 -24 8 -57 5 -72 -6 -5 -4 -26 -8 -45
-10 -19 -1 -41 -8 -50 -16 -9 -8 -26 -15 -37 -15 -11 0 -26 -7 -33 -15 -7 -8
-19 -15 -26 -15 -13 0 -44 49 -44 69 0 19 176 132 250 161 44 17 65 35 101 83
24 34 26 41 17 75 -12 44 -42 105 -61 124 -22 22 -45 72 -40 88 18 63 47 98
76 93 12 -2 33 0 47 5 33 12 55 5 70 -24z m-152 -1287 c5 -23 -15 -21 -28 2
-8 16 -7 19 8 17 9 -2 18 -10 20 -19z"/>
<path d="M735 3329 c-16 -4 -48 -7 -70 -8 -79 -2 -134 -64 -140 -155 -2 -23
-7 -50 -11 -61 -5 -11 -8 -47 -8 -80 1 -53 5 -66 37 -112 21 -28 47 -53 60
-56 12 -3 43 -12 68 -20 41 -14 50 -13 97 2 50 17 52 17 58 -1 3 -10 10 -18
16 -18 11 0 117 -62 157 -92 30 -23 57 -23 69 -1 16 27 -6 58 -61 88 -67 35
-136 87 -137 101 0 6 6 24 14 40 21 41 28 172 11 198 -8 12 -15 39 -16 61 -3
44 -32 85 -61 85 -10 0 -18 3 -18 8 0 16 -36 28 -65 21z m45 -84 c27 -14 37
-40 31 -78 -1 -4 4 -18 11 -30 21 -37 11 -127 -19 -170 -15 -21 -34 -42 -44
-48 -42 -22 -126 -2 -163 39 -23 26 -24 88 -2 131 18 35 20 63 6 77 -7 7 -3
21 13 45 20 30 29 35 77 40 30 3 56 6 58 7 2 1 16 -5 32 -13z"/>
<path d="M3583 3205 c-24 -7 -43 -10 -43 -7 0 3 -8 -2 -17 -10 -10 -9 -31 -18
-48 -21 -16 -3 -41 -8 -55 -12 -14 -4 -36 -9 -50 -12 -13 -4 -43 -17 -65 -29
-22 -13 -101 -53 -175 -90 -74 -37 -137 -70 -140 -74 -3 -4 -19 -16 -36 -26
-17 -11 -57 -43 -89 -71 -32 -29 -64 -53 -72 -53 -7 0 -13 -6 -13 -14 0 -7
-12 -24 -28 -37 -44 -39 -98 -112 -106 -144 -4 -16 -14 -37 -21 -45 -14 -16
-38 -81 -51 -140 -13 -59 -15 -137 -18 -615 -2 -253 -7 -471 -10 -485 -5 -22
-20 -102 -33 -185 -2 -16 -15 -75 -28 -129 -14 -55 -23 -102 -20 -104 2 -3 -3
-18 -11 -34 -17 -33 -29 -102 -29 -168 0 -49 26 -113 59 -146 17 -17 74 -48
101 -54 3 -1 19 -6 37 -11 35 -10 103 -21 128 -21 34 -1 136 14 155 22 11 4
54 18 95 30 99 29 217 71 292 104 20 9 43 16 51 16 8 0 20 7 27 15 16 19 55
12 92 -15 15 -11 41 -20 57 -20 16 0 36 -6 43 -13 7 -8 23 -13 36 -12 13 1 25
-2 28 -7 3 -4 10 -6 15 -3 5 4 9 1 9 -5 0 -7 6 -10 13 -7 6 2 31 -4 54 -14 38
-16 46 -17 77 -4 19 8 70 17 113 20 101 8 147 22 206 63 71 49 114 72 122 64
4 -4 10 -7 13 -8 19 -2 69 -28 87 -43 39 -36 153 -98 200 -110 26 -7 57 -19
69 -27 11 -7 35 -14 53 -14 17 0 34 -3 36 -7 3 -5 36 -8 74 -7 213 3 333 192
333 524 0 41 -5 91 -10 110 -6 19 -15 58 -20 85 -6 28 -15 73 -20 100 -6 28
-12 66 -15 85 -2 19 -11 94 -20 165 -8 72 -18 175 -20 230 -3 55 -8 125 -11
155 -7 80 -14 158 -18 215 -5 79 -36 278 -47 297 -5 10 -9 23 -9 30 0 16 -125
264 -142 283 -7 8 -18 20 -24 27 -21 25 -123 110 -166 137 -39 25 -72 51 -117
91 -17 16 -119 60 -137 60 -6 0 -47 12 -90 26 -73 24 -124 36 -264 64 -143 29
-168 32 -305 44 -22 2 -59 -2 -82 -9z m184 -91 c-3 -3 -12 -4 -19 -1 -8 3 -5
6 6 6 11 1 17 -2 13 -5z m108 -41 c39 -8 79 -19 90 -23 11 -4 40 -13 65 -20
25 -6 53 -16 62 -21 10 -5 28 -9 40 -9 33 0 200 -50 218 -65 8 -7 24 -15 35
-19 11 -3 43 -27 70 -52 28 -25 65 -58 84 -72 53 -41 140 -131 159 -165 19
-33 26 -45 62 -102 69 -111 83 -186 105 -590 3 -49 10 -137 16 -195 5 -58 12
-127 14 -155 2 -27 9 -81 16 -118 6 -37 8 -74 5 -82 -3 -8 -1 -15 4 -15 6 0
10 -15 10 -33 0 -18 9 -75 20 -127 25 -123 41 -241 35 -270 -2 -12 -5 -40 -7
-62 -1 -21 -8 -44 -15 -50 -7 -5 -10 -14 -7 -19 3 -5 -2 -23 -10 -41 -9 -17
-16 -39 -16 -49 0 -25 -56 -80 -105 -102 -31 -14 -52 -17 -95 -12 -30 4 -59
10 -65 15 -5 4 -25 11 -43 15 -37 8 -152 66 -190 95 -13 11 -29 20 -34 20 -5
0 -23 12 -39 27 l-29 28 50 47 c33 31 57 66 71 100 11 29 29 73 41 98 38 82
65 155 79 215 5 22 15 53 21 68 6 15 12 38 14 50 1 12 8 49 14 82 17 85 13
497 -5 525 -3 5 -7 39 -10 77 -6 78 -28 190 -43 219 -10 19 -27 103 -24 117 1
4 -2 7 -6 7 -4 0 -8 9 -9 21 -3 38 -31 69 -62 69 -27 0 -50 -17 -144 -107 -24
-23 -37 -27 -93 -28 -36 -1 -67 2 -70 6 -2 5 -10 6 -17 3 -18 -6 -43 23 -55
66 -6 19 -18 53 -26 75 -8 22 -15 54 -16 70 0 42 -29 58 -86 49 -25 -3 -43 -9
-40 -11 2 -3 -9 -27 -25 -54 -16 -28 -29 -57 -29 -65 0 -8 -19 -35 -41 -59
-32 -35 -49 -45 -73 -45 -17 0 -49 -5 -70 -10 -22 -5 -44 -6 -50 -3 -6 4 -20
8 -31 9 -12 1 -41 8 -66 14 -24 7 -116 14 -204 15 -88 1 -168 6 -178 10 -11 4
-27 0 -45 -11 -15 -10 -36 -17 -47 -16 -30 3 -40 -7 -77 -83 -51 -103 -75
-172 -88 -250 -6 -38 -15 -92 -20 -120 -37 -212 -34 -336 19 -605 10 -50 163
-359 183 -368 4 -2 17 -20 29 -40 26 -42 34 -52 88 -107 l39 -39 -33 -23 c-19
-13 -41 -23 -49 -23 -8 0 -18 -5 -21 -10 -4 -6 -11 -8 -16 -5 -5 4 -9 2 -9 -2
0 -11 -90 -56 -145 -73 -22 -7 -50 -19 -62 -27 -12 -8 -28 -16 -35 -17 -7 -1
-38 -8 -68 -14 -30 -7 -66 -10 -80 -8 -78 10 -111 21 -139 47 -27 24 -31 34
-31 82 0 33 9 77 24 115 14 34 23 62 20 62 -2 0 6 18 17 40 12 22 25 57 30 78
25 99 42 599 37 1067 -1 56 6 114 16 155 10 36 19 70 20 77 1 7 5 16 9 19 4 4
7 15 7 24 0 42 43 153 101 260 25 46 63 87 124 131 33 24 65 47 70 51 53 41
155 105 220 138 44 22 109 56 145 75 38 20 86 36 115 40 28 2 70 7 95 10 25 3
70 11 100 19 59 14 76 13 185 -11z m110 -675 c10 -35 27 -72 37 -84 10 -11 18
-26 18 -32 0 -7 11 -12 23 -12 13 0 26 -3 30 -6 7 -7 111 -16 189 -17 52 0 93
15 84 32 -2 3 12 22 30 41 32 34 34 34 34 11 0 -13 9 -53 21 -90 36 -114 39
-126 44 -172 2 -24 7 -58 9 -75 8 -55 20 -247 18 -309 -2 -151 -19 -267 -51
-347 -6 -16 -8 -28 -5 -28 3 0 -2 -12 -10 -27 -8 -16 -23 -46 -32 -68 -10 -22
-21 -42 -25 -45 -3 -3 -16 -25 -27 -50 -12 -25 -26 -52 -31 -60 -5 -8 -22 -41
-37 -72 -15 -31 -31 -55 -36 -52 -4 3 -8 1 -8 -4 0 -18 -189 -197 -198 -188
-3 4 -15 -2 -26 -13 -12 -10 -39 -22 -61 -26 -46 -10 -245 -14 -260 -6 -5 3
-29 6 -53 8 -24 1 -49 6 -55 11 -7 5 -34 15 -60 22 -27 7 -54 18 -60 24 -7 6
-41 25 -77 41 -42 19 -86 51 -122 88 -32 31 -58 59 -58 62 0 11 -73 105 -81
105 -5 0 -9 4 -9 10 0 5 -18 47 -40 94 -22 46 -40 89 -40 95 0 7 -6 22 -14 34
-13 20 -30 95 -54 236 -14 79 -6 391 12 491 13 77 67 254 81 268 7 8 37 12
120 17 39 3 76 7 83 10 6 2 12 -1 13 -8 0 -7 2 -8 5 -2 5 13 171 1 229 -17 45
-13 207 -18 216 -6 3 5 29 10 58 13 29 2 59 9 66 15 7 6 27 42 46 80 18 39 36
70 39 70 4 0 15 -28 25 -62z"/>
<path d="M3294 1865 c-28 -11 -44 -32 -44 -54 0 -15 46 -58 67 -63 49 -13 74
51 34 91 -10 10 -20 23 -22 29 -3 7 -14 6 -35 -3z"/>
<path d="M4071 1833 c-26 -18 -29 -84 -4 -104 31 -26 82 1 83 43 0 28 -21 66
-41 71 -10 3 -27 -2 -38 -10z"/>
<path d="M3613 1439 c-9 -9 -8 -19 3 -40 22 -44 57 -63 105 -56 48 6 46 5 54
40 7 26 6 27 -31 27 -23 0 -49 8 -64 20 -29 22 -51 25 -67 9z"/>
<path d="M3392 1219 c-12 -11 -22 -23 -22 -27 0 -10 38 -42 49 -42 5 0 15 -10
24 -22 18 -28 104 -72 177 -92 34 -9 91 -14 150 -12 89 2 101 5 186 45 86 41
91 45 90 73 -1 19 -9 36 -21 44 -18 12 -24 11 -46 -9 -73 -66 -204 -89 -344
-62 -42 8 -139 58 -152 78 -5 7 -22 20 -39 29 -30 17 -32 17 -52 -3z"/>
</g>
</svg>
