<?xml version="1.0" standalone="no"?>
<!DOCTYPE svg PUBLIC "-//W3C//DTD SVG 20010904//EN"
 "http://www.w3.org/TR/2001/REC-SVG-20010904/DTD/svg10.dtd">
<svg version="1.0" xmlns="http://www.w3.org/2000/svg"
 width="567.000000pt" height="505.000000pt" viewBox="0 0 567.000000 505.000000"
 preserveAspectRatio="xMidYMid meet">
<metadata>
Created by potrace 1.16, written by Peter Selinger 2001-2019
</metadata>
<g transform="translate(0.000000,505.000000) scale(0.100000,-0.100000)"
fill="#000000" stroke="none">
<path d="M5208 4768 c-57 -44 -126 -100 -154 -124 -29 -25 -62 -53 -75 -62
-13 -9 -29 -21 -35 -27 -6 -5 -26 -21 -44 -35 -19 -14 -41 -32 -50 -41 -9 -9
-59 -50 -111 -92 -52 -43 -100 -82 -108 -89 -11 -9 -12 -7 -6 13 21 64 23 90
8 104 -24 24 -63 14 -63 -16 0 -10 -4 -19 -10 -19 -5 0 -9 -3 -8 -7 1 -5 -4
-21 -10 -36 -7 -16 -12 -34 -12 -40 0 -7 -12 -34 -25 -62 -27 -55 -32 -97 -12
-113 7 -6 75 -13 152 -16 117 -3 143 -1 158 12 9 8 17 23 17 32 0 34 -26 42
-122 41 -91 -2 -92 -2 -73 18 9 11 22 18 26 15 5 -3 9 -1 9 4 0 5 28 31 63 58
34 27 73 59 87 71 14 13 30 23 37 23 7 0 13 5 13 11 0 15 38 50 85 79 20 12
44 30 53 40 58 58 322 260 341 260 6 0 12 9 12 20 1 11 2 28 3 38 2 38 -44 19
-146 -60z"/>
<path d="M147 4605 c-9 -7 -17 -19 -17 -27 0 -15 118 -118 148 -129 9 -4 31
-21 47 -39 17 -17 55 -45 85 -60 30 -15 97 -58 148 -94 51 -36 105 -73 120
-81 15 -8 43 -28 62 -45 l34 -30 -55 0 c-30 0 -63 -6 -73 -13 -26 -19 -16 -49
18 -58 48 -13 260 -13 264 0 2 6 8 9 13 6 9 -6 5 9 -11 50 -4 11 -13 49 -19
85 -19 117 -36 164 -63 179 -23 13 -28 13 -42 -1 -21 -21 -20 -33 4 -103 11
-32 20 -67 20 -78 0 -18 -3 -17 -37 9 -21 15 -40 31 -43 34 -3 3 -30 21 -60
39 -30 19 -57 37 -60 41 -3 4 -21 15 -40 25 -19 10 -39 24 -43 31 -4 8 -13 14
-19 14 -6 0 -26 11 -44 25 -18 14 -36 25 -40 25 -7 0 -86 58 -208 151 -61 48
-75 55 -89 44z"/>
<path d="M3810 4129 c-14 -6 -32 -12 -40 -14 -50 -10 -135 -63 -168 -103 -20
-25 -47 -54 -59 -65 -13 -11 -23 -29 -23 -39 0 -10 -3 -18 -8 -18 -4 0 -12
-19 -19 -42 -6 -24 -19 -63 -28 -88 -9 -25 -21 -70 -25 -100 -14 -97 -50 -273
-69 -332 -19 -59 -18 -107 3 -109 60 -5 162 3 222 16 28 6 34 4 50 -23 10 -17
31 -37 48 -45 17 -8 57 -27 88 -42 59 -28 198 -52 227 -39 9 4 19 7 23 6 3 -1
12 5 18 13 7 8 20 15 29 15 9 0 25 6 36 13 11 7 36 20 54 27 36 15 86 63 96
93 7 18 35 24 35 7 0 -5 8 -10 18 -10 9 0 30 -8 45 -19 15 -10 40 -17 55 -15
14 1 32 -2 38 -7 7 -5 37 -11 68 -13 31 -1 59 -6 63 -9 14 -14 22 -6 29 30 5
27 3 39 -9 48 -15 11 -35 59 -79 195 -11 36 -27 74 -34 85 -8 11 -14 26 -14
35 0 14 -10 37 -69 160 -54 114 -114 211 -142 230 -12 8 -38 29 -57 47 -35 31
-59 45 -95 57 -10 3 -15 10 -12 16 3 5 1 10 -4 10 -6 0 -11 -4 -11 -9 0 -5
-14 -5 -32 1 -46 15 -50 17 -78 33 -29 17 -132 19 -170 4z m390 -365 c5 -5 12
-41 15 -80 3 -38 9 -102 13 -143 7 -60 5 -79 -8 -105 -10 -17 -27 -59 -40 -93
-24 -66 -20 -63 -125 -100 -51 -18 -58 -19 -155 -10 -125 12 -136 16 -170 63
-20 28 -29 51 -26 62 4 12 -1 25 -13 36 -27 24 -36 106 -21 187 6 35 11 80 10
99 0 19 5 47 11 62 l11 28 102 -3 c55 -2 124 0 151 4 70 10 232 6 245 -7z"/>
<path d="M1509 4076 c-2 -3 -35 -7 -73 -10 -51 -3 -86 -13 -131 -36 -66 -34
-155 -111 -155 -135 0 -8 -3 -15 -7 -15 -12 0 -76 -139 -82 -179 -3 -20 -5
-88 -5 -152 2 -162 28 -236 114 -319 80 -77 88 -82 180 -107 63 -17 219 -21
229 -5 3 5 28 20 54 32 26 12 53 30 60 40 7 9 24 24 39 34 14 9 36 38 48 64
12 26 30 56 40 67 23 26 37 108 47 271 6 115 -7 179 -58 279 -31 61 -97 124
-153 145 -14 5 -26 14 -26 20 0 9 -112 15 -121 6z m-4 -130 c64 -7 83 -10 91
-19 4 -4 14 -7 22 -7 7 0 31 -12 51 -27 59 -42 88 -131 86 -263 -2 -77 -33
-240 -47 -240 -4 0 -8 -6 -8 -14 0 -20 -65 -72 -130 -104 -68 -33 -72 -34
-145 -34 -70 -1 -116 19 -142 60 -10 15 -20 29 -23 32 -11 10 -41 70 -35 70 3
0 -1 10 -9 23 -22 36 -35 155 -23 219 20 104 38 145 101 225 30 38 54 57 91
71 27 11 54 18 60 16 5 -1 33 -5 60 -8z"/>
<path d="M1740 3197 c-12 -25 -39 -64 -61 -88 -21 -23 -39 -45 -39 -48 0 -3
-22 -41 -50 -83 -57 -90 -77 -97 -133 -48 -19 17 -41 30 -50 30 -8 0 -17 7
-21 15 -3 8 -10 15 -16 15 -6 0 -30 18 -53 39 -80 74 -150 121 -182 121 -17 0
-58 -7 -90 -16 -33 -9 -69 -17 -80 -18 -11 -2 -29 -7 -40 -13 -11 -6 -33 -15
-50 -20 -22 -6 -31 -15 -33 -33 -1 -14 -9 -51 -18 -83 -8 -32 -17 -85 -19
-118 -2 -33 -8 -65 -12 -72 -4 -6 -9 -20 -10 -30 -2 -9 -12 -44 -23 -76 -10
-31 -24 -89 -30 -127 -6 -38 -15 -82 -20 -99 -5 -16 -11 -43 -14 -60 -5 -29
-56 -187 -75 -230 -16 -38 -62 -190 -67 -226 -5 -30 -2 -39 20 -56 14 -12 26
-26 26 -33 0 -6 4 -9 9 -6 4 3 22 0 40 -7 22 -8 30 -16 25 -27 -4 -8 -10 -33
-14 -55 -4 -22 -13 -53 -20 -70 -14 -35 -15 -176 -1 -224 6 -18 24 -47 42 -63
31 -30 33 -30 103 -24 39 4 79 8 88 10 24 3 80 55 102 95 11 19 21 50 23 70 2
20 6 43 10 51 5 14 14 61 16 87 0 11 84 53 105 53 8 0 21 -26 49 -100 9 -23
-2 -77 -18 -90 -4 -3 -30 -86 -60 -185 -29 -99 -56 -182 -59 -185 -4 -3 -11
-27 -15 -55 -4 -27 -17 -84 -30 -125 -13 -41 -26 -96 -29 -121 -4 -25 -9 -57
-11 -70 -25 -145 -30 -181 -45 -364 -7 -77 -16 -155 -21 -174 -8 -34 2 -68 25
-83 6 -4 29 -8 51 -8 l40 0 -1 47 c-1 27 1 53 4 58 11 18 15 39 17 100 1 33 5
67 8 75 3 8 8 38 11 65 9 78 15 116 22 126 3 5 8 47 10 92 3 45 8 89 11 97 4
8 8 22 9 30 1 8 7 53 13 100 17 122 45 238 91 373 22 64 40 123 40 131 0 7 7
19 15 26 8 7 15 20 15 30 0 19 19 30 54 30 13 0 26 3 30 7 4 4 69 9 144 10 75
1 170 3 210 5 69 3 75 1 92 -22 11 -14 25 -32 32 -40 7 -9 19 -28 27 -43 8
-15 18 -27 23 -27 4 0 8 -5 8 -10 0 -6 8 -19 18 -30 9 -10 28 -40 42 -66 14
-26 33 -56 43 -66 9 -10 17 -24 17 -31 0 -7 9 -18 20 -25 11 -7 20 -19 20 -27
0 -8 7 -15 15 -15 8 0 15 -5 15 -10 0 -6 12 -9 28 -6 15 2 30 5 34 5 4 1 13 7
20 14 35 34 87 67 106 67 25 0 28 4 37 52 6 33 5 37 -17 40 -12 2 -51 -11 -85
-29 l-61 -32 -16 24 c-9 14 -36 47 -61 75 -25 28 -54 69 -66 92 -11 22 -31 52
-44 66 -13 14 -22 29 -19 34 3 4 1 8 -4 8 -5 0 -19 20 -32 45 -20 39 -22 49
-12 87 14 53 22 132 27 260 2 54 6 102 10 108 12 20 66 -24 127 -106 l61 -80
50 0 c42 1 52 5 65 26 9 14 28 44 44 68 36 55 37 89 3 98 -28 7 -51 -7 -61
-39 -4 -12 -13 -27 -20 -35 -12 -11 -15 -11 -20 2 -3 9 -13 16 -20 16 -8 0
-19 11 -24 25 -5 14 -19 35 -30 47 -11 12 -20 28 -20 35 0 7 -4 13 -9 13 -5 0
-13 10 -16 21 -4 12 -27 52 -51 88 -47 69 -83 99 -96 78 -6 -9 -8 -9 -8 -1 0
8 -10 8 -37 -1 l-38 -13 -1 -99 c0 -54 -6 -120 -12 -148 -14 -60 -26 -146 -23
-159 1 -5 -3 -39 -9 -75 -6 -36 -13 -81 -15 -100 -3 -19 -9 -39 -14 -44 -9 -9
-363 -18 -418 -10 -28 5 -32 9 -38 47 -4 22 -16 61 -28 86 -11 25 -22 58 -24
73 -1 16 -13 50 -25 75 -18 41 -22 66 -23 187 -2 158 -18 215 -59 215 -46 -1
-58 -23 -63 -117 -2 -48 -8 -104 -13 -123 -6 -19 -10 -80 -11 -135 -2 -151 0
-149 -100 -169 -29 -6 -28 -2 -35 -121 -5 -82 -25 -155 -42 -155 -4 0 -13 -13
-20 -28 -10 -24 -17 -28 -42 -24 -47 7 -74 58 -66 130 3 31 11 61 16 66 6 6
10 23 10 38 0 15 3 28 8 28 4 0 8 12 9 28 1 15 5 43 8 63 6 32 3 41 -24 68
-17 18 -35 30 -40 27 -4 -3 -18 2 -30 10 -24 18 -24 54 3 116 35 83 70 188 80
240 2 14 9 35 14 45 6 10 19 54 30 98 11 44 27 105 36 137 17 64 33 151 46
254 11 91 45 168 71 161 11 -3 19 -1 19 3 0 4 23 14 51 20 46 11 53 11 78 -7
15 -11 45 -30 67 -41 22 -11 62 -39 89 -62 28 -22 73 -54 101 -71 29 -16 57
-36 65 -45 25 -31 65 -44 96 -33 30 11 118 124 169 216 40 71 59 81 92 48 30
-30 53 -29 67 3 8 19 15 22 40 18 36 -8 39 -13 67 -101 12 -38 34 -98 50 -131
15 -34 28 -65 28 -68 0 -3 16 -29 35 -56 19 -27 35 -53 35 -58 0 -4 10 -23 23
-42 13 -19 31 -57 41 -85 11 -27 24 -57 30 -65 15 -19 86 -185 86 -200 0 -6 4
-9 8 -6 11 6 52 -48 52 -67 0 -15 41 -37 68 -37 21 1 52 23 52 38 0 7 12 14
28 17 45 10 57 21 55 50 -3 37 -5 38 -65 37 -63 0 -89 19 -120 88 -11 25 -35
77 -53 115 -45 93 -65 141 -65 154 0 6 -4 11 -9 11 -5 0 -26 34 -46 75 -21 41
-41 75 -46 75 -5 0 -9 9 -9 19 0 11 -4 23 -10 26 -5 3 -10 14 -10 24 0 10 -9
28 -20 41 -11 13 -20 31 -20 40 0 17 -17 65 -45 125 -7 16 -11 33 -9 37 3 4 0
8 -5 8 -6 0 -11 16 -11 36 0 43 -25 68 -52 53 -11 -6 -19 -5 -23 1 -5 8 -11 7
-21 -1 -9 -7 -26 -9 -51 -3 -21 4 -44 8 -50 7 -7 0 -13 3 -13 8 0 5 -8 9 -18
9 -10 0 -23 5 -29 11 -9 9 -17 0 -33 -34z"/>
<path d="M3540 3133 c-80 -53 -139 -83 -192 -99 -26 -8 -50 -19 -53 -24 -3 -6
-15 -10 -25 -10 -30 0 -48 -38 -55 -115 -4 -38 -18 -106 -30 -150 -13 -44 -26
-96 -30 -115 -3 -19 -12 -53 -20 -75 -7 -22 -21 -100 -30 -173 l-18 -133 28
-29 c26 -27 27 -33 21 -87 -3 -32 -8 -71 -11 -88 -2 -16 -7 -106 -9 -200 -3
-93 -6 -172 -7 -175 0 -3 -1 -27 0 -55 1 -60 16 -92 46 -97 59 -12 91 35 94
135 1 32 2 62 3 65 1 4 -3 18 -9 32 -16 40 -7 399 11 428 4 7 68 7 135 -1 28
-4 37 -12 56 -48 37 -72 54 -193 53 -394 0 -99 -4 -196 -9 -215 -4 -19 -10
-54 -13 -77 -3 -23 -10 -52 -17 -65 -7 -13 -12 -24 -11 -25 1 -2 2 -12 2 -24
0 -18 -4 -20 -26 -15 -14 4 -43 18 -64 31 l-38 24 -26 -20 c-17 -14 -26 -30
-26 -50 0 -28 10 -35 47 -30 16 2 72 -26 98 -49 31 -28 57 -28 71 -2 6 13 14
23 18 23 41 -4 53 14 68 98 22 135 14 121 72 122 71 1 101 5 113 12 6 4 53 10
105 13 51 3 113 11 138 19 30 8 103 13 214 13 149 0 173 -2 204 -20 45 -25 68
-51 91 -103 5 -12 16 -27 24 -34 9 -7 23 -38 33 -69 10 -31 25 -68 34 -82 30
-43 77 -143 93 -195 8 -27 34 -102 56 -165 23 -63 41 -124 41 -135 0 -11 7
-29 15 -39 8 -11 15 -32 15 -48 0 -15 7 -45 15 -66 9 -22 15 -43 14 -48 -2 -5
3 -27 9 -49 7 -22 12 -70 12 -106 l0 -66 -42 -7 c-23 -4 -47 -11 -53 -16 -15
-13 -159 -84 -170 -85 -5 0 -20 -6 -31 -12 -40 -23 -143 -24 -204 -2 -30 11
-63 18 -72 15 -10 -2 -20 -1 -23 4 -3 4 -21 11 -40 14 -19 4 -35 10 -35 15 0
36 -269 33 -344 -5 -53 -26 -128 -33 -228 -20 l-58 7 0 37 c-1 20 -2 69 -4
107 -4 92 -2 96 36 83 32 -11 42 -6 52 29 9 29 -24 64 -53 56 -15 -4 -31 4
-52 25 -17 17 -37 28 -43 26 -7 -3 -13 8 -14 28 -3 35 -24 58 -54 58 -10 0
-18 4 -18 8 0 17 -50 33 -71 22 -20 -11 -27 -60 -9 -60 8 0 80 -47 120 -77 2
-2 -2 -8 -9 -12 -10 -6 -12 -23 -7 -67 4 -33 9 -120 10 -194 4 -130 5 -135 30
-155 14 -11 63 -29 108 -39 46 -11 86 -23 89 -28 8 -13 69 -13 77 -1 12 17 45
27 137 38 58 8 97 9 109 2 10 -5 48 -11 85 -13 84 -6 104 -8 171 -22 109 -22
254 -23 337 -2 42 10 81 24 86 29 6 6 23 11 38 11 15 0 30 4 33 9 3 4 29 8 58
9 29 0 65 5 79 10 19 8 30 7 38 -1 22 -22 51 -18 63 11 7 15 20 38 30 51 25
33 23 43 -14 82 -29 30 -33 42 -35 94 -8 182 -16 240 -43 300 -5 11 -25 70
-45 130 -20 61 -39 117 -42 125 -3 8 -7 20 -9 25 -6 18 -37 110 -45 130 -4 11
-11 30 -14 42 -3 13 -12 29 -18 35 -16 17 -57 116 -57 138 0 10 7 23 15 30 8
7 15 18 15 25 0 7 13 39 30 71 16 32 30 65 30 73 0 7 10 30 22 50 13 20 24 47
26 60 2 14 7 32 13 42 5 10 9 25 9 34 0 9 9 35 20 57 11 23 20 45 20 49 0 4 5
20 12 36 6 15 12 35 14 43 1 8 9 39 19 68 23 68 16 119 -24 179 -18 26 -35 59
-38 73 -4 14 -18 45 -33 70 -15 25 -25 50 -23 56 2 6 -6 14 -19 17 -18 5 -20
9 -10 19 17 17 15 76 -3 94 -8 9 -15 34 -16 57 -1 110 -45 284 -104 412 l-33
71 -135 68 c-74 37 -143 75 -154 85 -24 23 -77 41 -93 31 -6 -4 -25 -6 -41 -5
-16 1 -29 -2 -29 -7 0 -6 7 -8 15 -4 8 3 15 1 15 -4 0 -5 -23 -20 -51 -34
-117 -59 -319 -37 -455 51 -67 43 -103 42 -174 -4z m200 -97 c41 -15 83 -32
92 -37 25 -13 142 -29 213 -29 40 0 73 6 98 19 47 24 103 35 112 21 3 -6 11
-8 16 -4 6 3 50 -15 100 -40 49 -26 89 -44 89 -42 0 3 11 -1 25 -8 24 -13 105
-98 105 -110 0 -3 8 -25 19 -49 26 -58 63 -194 67 -242 2 -22 6 -57 9 -77 4
-33 2 -39 -27 -59 -18 -13 -38 -29 -43 -37 -16 -21 -125 -62 -175 -67 -76 -7
-84 -26 -76 -175 3 -69 9 -136 13 -150 7 -23 5 -311 -2 -318 -5 -5 -345 -4
-377 1 -16 2 -28 1 -28 -3 0 -3 -26 -4 -58 -2 -41 3 -82 -3 -138 -18 -43 -13
-99 -24 -124 -26 l-45 -3 3 139 c4 122 0 172 -24 345 -4 22 -10 48 -15 57 -5
9 -9 25 -9 36 0 11 -6 25 -13 31 -8 6 -14 25 -15 42 -1 40 -18 59 -53 59 -15
0 -30 4 -33 9 -7 10 -107 24 -183 25 -34 0 -49 4 -44 11 5 5 9 17 9 25 1 8 11
58 22 110 11 52 25 127 30 165 15 123 42 239 59 259 16 18 89 53 104 48 4 -1
10 5 13 13 4 8 12 15 20 15 8 0 14 3 14 8 0 4 21 16 48 26 26 11 56 28 66 38
10 9 23 15 27 12 4 -2 11 0 14 6 4 6 10 10 14 8 3 -2 40 -16 81 -32z m1000
-780 c0 -8 6 -16 14 -19 21 -8 131 -238 129 -272 0 -16 -6 -43 -13 -60 -7 -16
-14 -37 -15 -45 -4 -21 -83 -259 -99 -295 -8 -16 -23 -51 -35 -78 -11 -26 -21
-52 -21 -57 0 -5 -8 -23 -18 -40 l-19 -30 -22 43 c-12 23 -31 54 -42 68 -20
25 -20 28 -5 80 21 74 44 199 52 290 6 69 4 79 -14 97 -11 11 -23 34 -27 52
-4 17 -20 45 -37 60 -20 20 -32 42 -35 69 -3 23 -11 41 -17 41 -16 0 25 25 62
38 18 6 46 21 63 33 26 18 67 35 92 38 4 1 7 -5 7 -13z m-219 -266 c5 0 9 -4
9 -10 0 -5 11 -34 25 -65 14 -31 24 -59 21 -63 -3 -5 -7 -37 -11 -71 -3 -35
-10 -72 -16 -83 -6 -11 -9 -25 -6 -31 2 -7 -1 -25 -8 -41 l-12 -29 -8 29 c-17
64 -27 261 -14 270 5 2 -1 19 -11 37 -12 19 -20 50 -20 77 l0 45 21 -32 c12
-18 25 -33 30 -33z"/>
<path d="M2666 2298 c-34 -48 -8 -76 76 -83 43 -4 61 -12 53 -26 -4 -5 0 -9 9
-9 8 0 16 -6 19 -12 3 -10 9 -10 23 -2 14 8 19 22 18 49 -2 43 -9 49 -84 71
-30 9 -59 20 -64 25 -16 15 -34 10 -50 -13z"/>
<path d="M2944 2123 c-6 -21 -2 -31 19 -48 15 -11 27 -24 27 -28 0 -4 5 -13
10 -20 6 -7 16 -20 23 -29 7 -9 21 -18 32 -20 17 -2 21 3 23 34 7 85 -115 187
-134 111z"/>
<path d="M3012 1877 c-6 -12 -10 -42 -10 -66 0 -28 -5 -48 -14 -55 -19 -14
-31 -51 -24 -74 4 -13 15 -18 37 -16 17 1 31 4 33 6 33 55 63 217 40 219 -5 0
-18 2 -30 4 -14 3 -24 -3 -32 -18z"/>
<path d="M2180 1801 c-6 -12 -8 -47 -5 -83 4 -51 10 -67 31 -86 20 -18 29 -20
45 -11 16 8 19 16 14 37 -4 15 -9 51 -10 80 -3 57 -8 66 -42 76 -16 5 -25 2
-33 -13z"/>
<path d="M2948 1602 c-23 -4 -88 -112 -88 -145 0 -22 22 -57 36 -57 18 0 44
24 44 41 0 25 27 79 40 79 6 0 9 18 8 40 -1 21 -5 37 -9 35 -4 -3 -9 -2 -11 3
-1 4 -11 6 -20 4z"/>
<path d="M2283 1523 c-29 -10 -10 -74 45 -151 24 -33 59 -42 68 -18 13 34 9
53 -18 90 -15 21 -28 47 -28 58 0 10 -3 19 -7 19 -27 5 -50 5 -60 2z"/>
<path d="M3063 1452 c-57 -3 -62 -5 -70 -30 -17 -53 -13 -57 54 -57 48 1 63
-3 67 -15 3 -12 4 -11 5 3 1 10 9 17 20 17 13 0 20 10 25 31 10 51 -1 56 -101
51z"/>
<path d="M3530 1142 c-31 -25 -21 -50 40 -98 27 -21 52 -47 55 -57 9 -24 51
-51 70 -43 9 3 15 18 15 35 0 22 -16 46 -74 105 -40 42 -76 76 -79 76 -2 0
-15 -8 -27 -18z"/>
<path d="M2004 1092 c-23 -15 -94 -137 -94 -162 0 -21 5 -26 29 -28 25 -2 34
6 75 69 48 74 54 97 34 117 -14 14 -28 15 -44 4z"/>
<path d="M1496 1045 c-14 -13 -26 -28 -27 -32 -1 -4 -3 -80 -5 -167 -2 -88 -8
-182 -14 -210 -6 -28 -14 -76 -16 -106 -3 -30 -12 -93 -20 -140 -20 -111 -27
-202 -17 -215 21 -27 53 -36 81 -23 24 12 28 21 35 78 4 36 7 82 7 103 -1 21
4 37 11 37 6 0 9 6 6 14 -3 8 -2 30 4 49 9 32 16 107 19 202 1 38 2 39 12 15
22 -52 65 -217 78 -300 13 -79 51 -170 71 -170 9 0 22 -6 28 -14 18 -21 69
-17 87 8 16 23 19 72 4 81 -5 3 -10 14 -10 23 0 9 -7 30 -15 46 -18 33 -75
192 -75 207 0 5 11 3 24 -6 36 -24 53 -10 60 48 4 29 18 76 32 105 29 62 28
86 -4 90 -25 4 -72 -38 -72 -63 0 -8 -4 -24 -9 -37 -5 -13 -15 -44 -21 -71
-11 -42 -14 -45 -26 -30 -7 10 -27 61 -44 113 -17 52 -35 104 -39 115 -10 22
-26 103 -37 178 -7 53 -36 97 -63 97 -10 0 -30 -11 -45 -25z"/>
<path d="M3700 891 c-16 -30 -13 -40 24 -77 19 -19 38 -49 42 -67 10 -48 34
-78 58 -75 45 6 24 105 -43 200 -29 42 -64 50 -81 19z"/>
<path d="M3033 870 c-25 -10 -30 -41 -14 -82 5 -13 14 -49 21 -80 9 -49 15
-58 40 -66 23 -8 30 -7 34 5 9 23 7 81 -3 85 -5 2 -11 29 -15 61 -5 54 -19 88
-35 86 -3 0 -16 -4 -28 -9z"/>
<path d="M3136 817 c-35 -31 -21 -62 32 -70 22 -4 45 -14 52 -22 7 -8 30 -20
53 -26 33 -9 42 -8 56 6 14 14 14 18 1 42 -9 16 -28 30 -48 35 -17 5 -32 12
-32 17 0 9 -17 18 -63 31 -22 7 -32 4 -51 -13z"/>
<path d="M2357 815 c-11 -5 -25 -19 -31 -30 -6 -11 -19 -32 -29 -47 -41 -63 7
-120 52 -62 l21 27 -5 -50 c-6 -53 1 -65 42 -75 18 -5 22 -1 26 36 15 124 1
212 -35 212 -11 0 -29 -5 -41 -11z"/>
<path d="M2190 610 c0 -5 -7 -10 -15 -10 -8 0 -15 -4 -15 -10 0 -12 -54 -40
-78 -40 -33 0 -45 -62 -15 -78 22 -13 78 3 128 36 48 33 55 40 55 70 0 15 -8
26 -26 32 -32 12 -34 12 -34 0z"/>
<path d="M3800 585 c-7 -8 -14 -32 -17 -52 -6 -44 -28 -73 -55 -73 -20 0 -38
-34 -31 -61 5 -18 63 -45 63 -29 0 5 12 15 27 22 26 12 63 71 69 108 1 8 5 25
7 36 6 25 -17 64 -37 64 -8 0 -19 -7 -26 -15z"/>
<path d="M3106 568 c-11 -18 -13 -33 -5 -68 5 -25 16 -80 25 -122 18 -89 43
-123 71 -95 16 15 16 23 -2 108 -10 50 -19 110 -19 133 -1 22 -5 47 -9 54 -13
19 -45 14 -61 -10z"/>
<path d="M1809 469 c-26 -26 -24 -44 7 -68 21 -16 41 -21 88 -21 66 0 86 11
86 46 0 34 -24 47 -75 42 -26 -3 -46 -1 -48 5 -6 18 -38 16 -58 -4z"/>
<path d="M2363 468 c-17 -8 -23 -22 -27 -67 -14 -125 -13 -134 14 -148 29 -14
40 -4 40 38 0 15 7 45 15 68 24 70 2 129 -42 109z"/>
<path d="M3210 193 c0 -16 11 -57 24 -93 26 -70 55 -95 81 -69 13 12 13 21 0
64 -34 120 -37 125 -72 125 -29 0 -33 -3 -33 -27z"/>
<path d="M2303 168 c-5 -7 -14 -25 -20 -40 -10 -23 -9 -30 12 -52 37 -40 61
-34 68 15 3 23 1 52 -4 65 -9 26 -41 32 -56 12z"/>
</g>
</svg>
