<?xml version="1.0" standalone="no"?>
<!DOCTYPE svg PUBLIC "-//W3C//DTD SVG 20010904//EN"
 "http://www.w3.org/TR/2001/REC-SVG-20010904/DTD/svg10.dtd">
<svg version="1.0" xmlns="http://www.w3.org/2000/svg"
 width="475.000000pt" height="479.000000pt" viewBox="0 0 475.000000 479.000000"
 preserveAspectRatio="xMidYMid meet">
<metadata>
Created by potrace 1.16, written by Peter Selinger 2001-2019
</metadata>
<g transform="translate(0.000000,479.000000) scale(0.100000,-0.100000)"
fill="#000000" stroke="none">
<path d="M2270 4694 c-41 -6 -82 -7 -91 -3 -8 4 -33 4 -55 -2 -21 -5 -69 -9
-106 -10 -38 0 -68 -4 -68 -9 0 -11 -92 -32 -122 -28 -14 1 -38 -6 -54 -17
-16 -10 -54 -21 -84 -23 -30 -3 -64 -11 -75 -18 -11 -7 -49 -18 -85 -24 -88
-15 -280 -71 -280 -82 0 -4 -4 -8 -10 -8 -5 0 -38 -22 -72 -50 -34 -27 -67
-50 -74 -50 -7 0 -34 -25 -60 -57 -27 -31 -64 -72 -81 -91 -18 -19 -33 -38
-33 -42 0 -3 -15 -24 -34 -45 -19 -21 -40 -50 -46 -64 -7 -14 -18 -39 -26 -54
-8 -16 -14 -35 -14 -43 0 -8 -7 -26 -16 -40 -9 -13 -23 -54 -30 -89 -8 -36
-23 -83 -34 -106 -12 -22 -26 -77 -31 -122 -6 -45 -14 -89 -18 -97 -8 -15 -48
-42 -89 -60 -12 -5 -22 -14 -22 -20 0 -5 -15 -33 -32 -62 -35 -57 -37 -61 -43
-128 -2 -25 -7 -64 -10 -87 -3 -24 -7 -60 -9 -80 -3 -21 -14 -74 -25 -118 -11
-44 -21 -92 -21 -106 0 -14 -13 -66 -29 -115 -23 -73 -28 -103 -25 -165 2 -42
8 -88 14 -103 5 -15 10 -41 10 -57 0 -16 3 -29 8 -29 4 0 8 -12 8 -27 3 -46 8
-58 50 -114 22 -30 45 -65 51 -79 6 -14 19 -43 29 -65 9 -22 23 -46 30 -53 8
-7 21 -39 30 -70 35 -127 81 -184 144 -177 14 2 32 4 41 4 9 1 33 14 54 31 44
35 55 32 55 -15 0 -64 21 -135 43 -150 12 -8 48 -15 80 -16 56 -2 57 -3 67
-38 5 -20 10 -45 10 -56 0 -12 9 -38 20 -60 11 -22 17 -47 14 -57 -3 -12 5
-29 26 -49 17 -17 33 -45 35 -63 5 -28 1 -35 -43 -67 -26 -20 -63 -44 -80 -53
-18 -9 -65 -49 -104 -89 -64 -65 -81 -91 -94 -137 -65 -240 -64 -234 -48 -257
14 -22 9 -28 -133 -171 -145 -146 -233 -238 -233 -246 0 -2 -37 -41 -81 -86
-77 -78 -81 -84 -75 -118 3 -19 11 -39 18 -44 16 -10 72 -1 76 12 2 6 10 10
18 10 8 0 14 10 14 25 0 23 31 66 56 76 10 4 110 120 159 184 17 22 59 67 95
100 36 33 79 74 95 90 17 17 44 41 62 53 28 19 35 21 53 10 11 -7 20 -16 20
-20 0 -5 6 -8 13 -8 6 0 24 -6 39 -14 15 -8 40 -17 55 -20 16 -4 51 -18 78
-31 26 -14 54 -25 61 -25 13 0 47 -13 139 -55 90 -41 103 -44 187 -50 46 -3
97 -8 113 -11 29 -4 243 -61 275 -72 19 -6 28 -9 60 -15 14 -3 39 -11 55 -18
38 -15 39 -16 107 -33 31 -7 71 -21 89 -30 29 -14 104 -30 194 -41 17 -2 51
-7 76 -10 54 -8 115 16 105 41 -11 28 28 95 92 162 13 13 25 23 26 21 2 -2 6
-49 10 -104 3 -55 10 -116 14 -135 7 -30 12 -35 37 -35 17 0 35 3 42 8 7 5 31
6 53 2 22 -4 65 -8 95 -10 30 -1 60 -7 67 -13 14 -11 18 -12 43 -12 9 0 35
-18 58 -40 53 -48 83 -60 150 -60 41 0 55 4 65 20 7 11 23 20 37 20 36 0 59
39 45 76 -13 37 -33 78 -41 84 -4 3 -24 30 -45 60 -22 31 -67 87 -101 125 -57
64 -113 154 -113 181 0 7 -7 15 -16 18 -9 4 -14 9 -11 13 3 3 0 18 -8 33 -22
42 -2 53 55 30 25 -10 82 -33 128 -51 45 -18 82 -37 82 -42 0 -4 6 -5 13 -1 6
4 3 -3 -8 -15 -11 -13 -20 -29 -20 -36 0 -7 -10 -25 -22 -39 -13 -14 -23 -30
-23 -35 0 -5 -7 -14 -15 -21 -19 -16 -19 -30 0 -30 8 0 17 -11 21 -25 6 -25
16 -29 64 -27 64 4 162 2 169 -3 5 -2 12 -33 15 -68 4 -35 14 -76 21 -91 8
-15 17 -48 20 -74 7 -58 24 -76 72 -78 63 -2 67 24 25 149 -29 86 -32 134 -12
172 9 17 8 29 -4 59 -18 42 -38 53 -70 37 -16 -9 -34 -9 -66 -2 -25 6 -59 11
-77 11 l-31 0 14 30 c9 17 20 30 26 30 5 0 8 7 4 15 -3 8 2 18 10 23 13 7 14
17 7 53 -5 28 -14 44 -23 44 -8 0 -21 6 -28 12 -7 7 -19 13 -26 13 -7 0 -24 8
-37 18 -13 10 -44 24 -69 32 -25 7 -67 24 -95 37 -27 13 -42 22 -33 19 9 -3
43 -1 75 4 32 5 74 11 94 13 20 3 41 7 45 10 5 3 27 8 48 11 86 14 186 56 186
80 0 6 11 24 25 40 14 16 26 37 26 48 2 22 3 27 14 51 10 23 -2 112 -20 146
-7 15 -15 47 -18 73 -3 26 -7 50 -10 55 -3 5 -1 20 6 34 42 85 58 195 33 228
-8 10 -4 19 15 35 13 12 26 30 27 41 1 11 3 33 5 49 4 30 -8 108 -19 136 -9
21 -4 101 7 121 5 10 27 20 51 24 24 4 58 18 76 32 17 13 37 21 42 18 6 -3 10
-2 10 4 0 5 14 25 31 43 17 18 35 43 40 56 15 37 11 155 -6 178 -16 24 -45
102 -45 123 0 8 -22 36 -49 62 -28 27 -46 51 -40 54 5 4 7 10 4 15 -3 5 -1 11
5 15 5 3 7 19 4 34 -3 16 -2 31 2 34 10 6 10 129 0 235 -4 44 -3 72 3 72 9 0
8 7 -19 109 -12 46 -38 90 -54 91 -4 0 -17 11 -28 25 -11 14 -25 25 -33 25
-10 0 -11 9 -4 41 5 23 7 110 5 193 -6 163 -8 185 -20 204 -4 6 -5 16 -1 21 3
5 1 12 -5 16 -5 3 -10 14 -10 24 0 9 -11 39 -24 67 -37 78 -58 126 -60 138 -3
16 -36 76 -60 111 -12 17 -28 42 -35 56 -29 58 -401 396 -465 423 -17 7 -48
29 -68 49 -20 19 -46 38 -57 42 -12 3 -21 11 -21 16 0 5 -8 9 -18 9 -10 0 -56
14 -102 31 -168 60 -170 61 -305 62 -71 1 -164 -3 -205 -9z m350 -117 c36 -7
103 -29 200 -67 78 -30 130 -67 130 -91 0 -5 11 -9 25 -9 14 0 25 -4 25 -10 0
-5 5 -10 11 -10 15 0 135 -98 220 -180 37 -36 87 -83 111 -106 51 -48 109
-117 132 -159 9 -16 20 -37 25 -45 5 -8 13 -26 18 -40 6 -14 23 -52 38 -85 16
-33 30 -71 32 -85 3 -13 8 -29 12 -35 5 -5 11 -32 15 -60 3 -27 10 -70 16 -95
6 -24 9 -60 6 -80 -3 -19 -8 -76 -12 -127 -3 -51 -9 -106 -14 -123 -5 -16 -7
-30 -4 -30 2 0 -2 -13 -11 -30 -8 -16 -16 -33 -18 -37 -2 -9 -19 -5 -27 6 -9
13 -81 51 -95 51 -8 0 -37 14 -63 30 -33 20 -62 30 -88 30 -46 0 -121 -25
-148 -48 -37 -34 -94 -128 -101 -170 -4 -23 -10 -42 -15 -42 -5 0 -6 -14 -3
-32 6 -40 -6 -120 -17 -113 -4 3 -20 1 -35 -5 -51 -19 -202 -33 -405 -37 -244
-4 -233 -4 -340 -1 l-85 3 4 110 c8 197 6 234 -15 250 -10 8 -15 15 -9 15 5 0
-1 7 -13 16 -20 13 -25 13 -49 0 -112 -60 -112 -60 -150 -42 -35 16 -35 18
-31 65 5 55 -13 87 -53 92 -29 3 -69 -9 -89 -27 -75 -68 -85 -74 -128 -74 -33
0 -56 -8 -98 -36 -71 -47 -127 -66 -169 -58 -33 6 -34 8 -40 63 -8 73 -30 116
-72 141 -35 20 -83 27 -83 11 0 -19 -42 -19 -58 1 -9 11 -36 31 -60 45 -40 24
-44 24 -67 9 -13 -9 -43 -18 -65 -21 -22 -3 -65 -15 -96 -26 -30 -12 -58 -18
-61 -15 -3 3 -5 42 -5 86 1 59 6 85 17 97 10 9 13 22 9 32 -12 27 -13 73 -2
100 5 14 12 42 14 61 6 44 26 112 51 170 11 25 23 61 27 80 8 42 62 155 91
189 11 13 39 45 63 70 23 25 50 58 59 72 8 15 27 33 42 42 14 8 46 34 71 57
25 22 62 50 83 61 37 19 203 67 261 75 32 4 165 36 266 64 76 20 154 40 190
47 14 3 91 6 172 7 80 0 150 5 154 9 8 8 257 3 304 -6z m-1976 -1271 c-3 -71
-2 -75 30 -109 46 -51 77 -56 143 -23 29 14 64 26 77 26 13 0 40 7 59 15 l36
15 42 -45 c26 -27 49 -43 59 -41 8 3 36 8 61 11 45 7 47 6 58 -26 6 -17 11
-42 11 -55 0 -12 10 -40 22 -63 24 -45 56 -61 124 -61 39 0 152 35 164 51 13
17 73 39 110 41 22 1 40 4 40 7 0 3 17 7 38 8 23 2 43 11 54 24 17 20 18 20
24 3 25 -79 53 -98 138 -97 34 0 76 4 94 8 37 8 34 20 37 -133 1 -57 -3 -106
-8 -109 -5 -3 -30 -7 -56 -9 -25 -2 -68 -6 -94 -9 -27 -3 -54 -2 -60 4 -7 5
-29 6 -53 2 -36 -7 -48 -4 -98 26 -31 18 -60 33 -64 33 -4 0 -25 9 -47 20 -78
40 -205 16 -272 -50 -71 -69 -102 -112 -118 -160 -8 -26 -13 -54 -10 -62 4 -9
1 -19 -4 -23 -6 -3 -9 -11 -5 -16 3 -6 7 -32 8 -58 2 -32 10 -58 24 -76 12
-15 22 -33 22 -39 0 -7 20 -32 45 -56 24 -24 43 -46 41 -48 -3 -2 11 -24 30
-49 36 -47 79 -123 69 -123 -7 0 48 -84 58 -88 4 -2 7 -9 7 -17 0 -7 8 -30 17
-51 9 -22 16 -45 14 -51 -1 -7 3 -13 9 -13 19 0 10 -20 -35 -82 -25 -34 -45
-67 -45 -73 -1 -5 -9 -28 -20 -50 -11 -22 -19 -50 -20 -62 0 -25 -14 -30 -85
-32 -98 -2 -118 10 -130 80 -3 19 -8 47 -11 64 -3 16 -11 41 -17 55 -15 30
-73 53 -100 38 -27 -14 -69 -1 -66 20 5 36 -14 114 -35 144 -41 60 -51 60
-151 0 -48 -29 -63 -32 -80 -16 -8 9 -15 26 -15 40 0 13 -4 32 -9 42 -5 9 -15
31 -22 47 -14 31 -17 35 -48 72 -10 13 -26 44 -36 70 -20 53 -40 88 -67 119
-10 11 -20 31 -23 42 -2 12 -7 27 -11 34 -19 30 -29 234 -14 288 7 25 12 47
12 50 0 3 4 10 8 15 5 6 10 35 11 65 1 30 13 83 26 118 15 40 25 92 27 140 5
109 23 216 42 254 16 32 34 58 39 58 1 0 1 -33 -1 -74z m2759 -269 c98 -51
127 -77 127 -116 0 -20 8 -35 23 -46 12 -8 23 -25 24 -38 2 -30 10 -76 19
-110 6 -26 1 -45 -36 -132 -52 -120 -60 -136 -70 -130 -5 3 -10 2 -10 -3 0
-30 -149 -57 -174 -32 -6 6 -16 10 -23 10 -14 0 -58 42 -80 76 -45 69 -63 153
-63 299 0 119 -2 112 56 217 7 11 25 29 40 39 37 24 66 19 167 -34z m337 -13
c6 -17 10 -59 10 -95 -1 -35 2 -103 5 -150 8 -95 -5 -126 -25 -62 -7 21 -19
49 -28 62 -14 23 -19 114 -13 264 1 35 2 36 21 25 11 -7 25 -27 30 -44z
m-2209 -308 c14 -2 45 -15 69 -28 23 -12 57 -31 74 -40 51 -28 101 -80 121
-128 10 -25 25 -50 32 -56 7 -6 13 -16 13 -22 0 -22 41 -90 78 -130 48 -52
100 -74 132 -57 13 7 30 10 39 8 45 -12 63 62 65 269 1 108 1 108 26 109 50 2
104 -3 126 -11 14 -6 42 -3 75 5 30 8 63 12 74 8 25 -8 295 -10 295 -2 0 3 15
6 33 6 17 0 46 3 62 6 66 13 161 27 181 27 17 0 22 -10 32 -63 6 -34 23 -86
37 -115 14 -28 25 -55 25 -59 0 -17 84 -86 131 -108 39 -17 65 -22 115 -21 35
1 69 7 75 13 6 6 17 9 24 6 38 -14 126 70 164 157 51 119 49 117 77 65 10 -19
22 -35 25 -35 4 0 10 -10 13 -22 3 -13 24 -43 46 -68 22 -25 40 -49 40 -53 0
-10 23 -64 50 -119 11 -22 15 -40 9 -43 -5 -4 -9 -14 -9 -24 0 -20 -37 -72
-48 -69 -4 2 -19 -5 -33 -15 -18 -12 -37 -16 -58 -12 -17 3 -31 1 -31 -4 0 -6
-10 -7 -22 -5 -13 3 -30 7 -38 8 -9 1 -21 5 -28 10 -7 4 -18 3 -25 -2 -7 -5
-30 -12 -52 -14 -22 -3 -49 -8 -60 -13 -11 -4 -17 -5 -13 -1 9 11 -12 66 -33
87 -16 16 -23 17 -44 7 -42 -19 -53 -46 -45 -109 5 -31 15 -68 25 -82 28 -43
110 -52 148 -16 24 22 85 26 93 6 3 -8 6 -54 8 -103 2 -49 7 -113 11 -141 7
-46 5 -53 -9 -53 -9 0 -16 -4 -16 -10 0 -5 -8 -10 -19 -10 -10 0 -29 -8 -42
-19 -13 -10 -30 -16 -36 -14 -7 3 -13 -1 -13 -7 0 -8 -11 -11 -30 -8 -16 2
-31 0 -33 -6 -2 -7 -10 -6 -21 3 -9 8 -24 15 -34 16 -9 1 -29 5 -43 9 -24 7
-26 11 -22 49 4 32 0 48 -13 64 -36 42 -94 3 -94 -63 0 -13 -5 -26 -10 -29 -6
-4 -8 -11 -5 -16 4 -5 -2 -34 -11 -64 -21 -65 -11 -127 19 -133 41 -8 66 7 78
48 10 31 17 40 35 40 13 0 26 -4 29 -10 3 -5 17 -10 31 -10 14 0 36 -7 49 -16
15 -10 25 -12 25 -5 0 6 10 11 23 11 12 0 42 9 66 21 35 15 46 17 53 7 10 -17
10 -55 -1 -62 -5 -3 -12 -22 -15 -41 -4 -19 -10 -35 -15 -35 -14 0 -5 -144 13
-198 10 -29 15 -59 12 -67 -3 -8 -1 -15 4 -15 30 0 -18 -141 -50 -146 -8 -2
-39 -12 -69 -23 -30 -11 -56 -19 -59 -17 -2 3 -20 -3 -40 -11 -30 -13 -72 -16
-216 -14 -113 1 -184 6 -193 12 -7 7 -13 8 -13 4 0 -4 -6 -3 -12 3 -20 16 -66
2 -88 -25 -15 -20 -17 -30 -9 -51 19 -48 45 -64 94 -57 l45 6 0 -32 c0 -29 -2
-31 -27 -26 -16 3 -39 8 -53 12 -30 9 -209 17 -375 17 -97 -1 -135 4 -200 23
-44 13 -87 23 -95 23 -91 2 -262 41 -385 88 -38 15 -117 38 -175 51 -58 13
-116 26 -129 30 -23 6 -135 75 -176 109 -11 9 -32 20 -47 26 -23 8 -26 14 -23
44 2 20 6 38 8 41 3 3 2 15 -3 27 -4 13 -5 28 0 35 4 7 2 32 -5 55 -7 22 -15
60 -18 84 l-5 42 64 -4 c36 -2 67 1 70 6 3 5 12 7 20 4 27 -10 66 37 74 89 5
28 14 64 21 80 7 17 13 33 13 37 2 13 51 67 62 68 6 0 24 -11 40 -25 16 -14
45 -28 64 -32 32 -6 47 -7 99 -4 11 1 26 8 35 16 8 8 19 15 24 15 26 0 102 41
102 55 0 8 7 15 15 15 25 0 28 45 6 89 -23 45 -32 49 -51 26 -7 -9 -19 -14
-26 -11 -7 3 -18 -8 -26 -25 -7 -16 -17 -29 -21 -29 -5 0 -20 -9 -34 -20 -40
-31 -100 -26 -141 10 -17 16 -31 33 -30 37 4 17 -14 53 -27 53 -7 0 -16 12
-20 28 -11 47 -117 255 -150 297 -18 22 -35 49 -39 60 -3 11 -25 40 -47 65
-115 127 -116 237 -3 347 41 40 75 53 119 46 11 -1 32 -5 46 -7z m523 -109 c7
-36 1 -159 -9 -200 -4 -15 -14 -27 -22 -27 -22 0 -73 55 -73 79 0 12 -4 21 -8
21 -5 0 -20 21 -33 48 -13 26 -30 53 -37 61 -16 17 -11 33 12 37 10 1 19 4 21
6 2 2 35 4 73 5 l70 1 6 -31z m-870 -1492 c-4 -44 -3 -65 5 -65 6 0 11 -6 11
-14 0 -7 24 -21 56 -31 30 -9 65 -27 77 -39 12 -11 35 -28 52 -36 16 -8 40
-24 53 -35 23 -20 93 -41 163 -50 93 -12 188 -37 244 -64 33 -16 71 -33 85
-36 14 -4 43 -15 65 -25 27 -12 77 -20 155 -24 75 -4 133 -12 167 -25 53 -19
263 -36 411 -32 44 1 76 -4 109 -19 25 -11 54 -20 64 -20 11 0 19 -4 19 -9 0
-11 48 -25 73 -22 12 2 24 -11 38 -43 11 -25 25 -51 32 -58 7 -7 25 -38 39
-68 16 -31 47 -72 73 -94 25 -22 45 -43 45 -48 0 -4 12 -22 27 -38 32 -36 77
-114 60 -103 -7 4 -19 8 -27 10 -20 3 -59 23 -96 50 -73 54 -134 71 -254 73
-30 1 -60 6 -67 12 -7 5 -16 8 -20 5 -4 -3 -8 29 -9 71 0 43 -4 103 -9 135 -6
49 -11 60 -36 72 -26 14 -30 13 -61 -12 -39 -32 -130 -126 -161 -166 -12 -16
-29 -38 -37 -49 -29 -38 -167 -32 -261 10 -24 11 -60 23 -79 27 -43 8 -161 45
-175 55 -5 3 -22 7 -37 8 -15 1 -76 15 -135 31 -59 16 -160 37 -223 47 -75 11
-141 27 -190 48 -41 17 -79 31 -85 32 -51 3 -365 136 -365 154 0 6 -4 9 -9 6
-5 -4 -21 8 -35 25 -21 25 -24 34 -15 51 6 11 13 32 15 46 10 54 25 101 34
107 6 4 8 11 5 16 -7 10 2 21 64 84 24 25 47 45 52 45 5 0 9 5 9 10 0 6 6 10
13 10 6 0 26 11 42 25 17 13 31 24 33 25 1 0 -1 -29 -4 -65z"/>
<path d="M3410 2842 c-20 -3 -53 -34 -56 -52 0 -3 -4 -28 -8 -57 -11 -77 -1
-113 35 -120 16 -3 29 -9 29 -14 0 -23 60 52 69 86 14 50 14 102 1 110 -5 3
-10 14 -10 24 0 21 -22 29 -60 23z"/>
<path d="M1657 2477 c-15 -12 -27 -30 -27 -38 0 -15 40 -59 54 -59 4 0 18 -12
30 -27 27 -31 27 -75 0 -127 -13 -26 -13 -36 2 -85 18 -62 42 -93 85 -112 27
-10 32 -9 54 11 24 23 35 80 16 80 -5 0 -23 14 -40 30 l-30 30 24 53 c26 55
31 82 16 91 -4 3 -11 24 -15 45 -7 43 -28 68 -88 107 -46 29 -49 29 -81 1z"/>
<path d="M2006 1394 c-31 -31 -12 -108 49 -199 43 -64 117 -141 150 -157 32
-14 63 -34 82 -50 17 -14 80 -35 130 -43 12 -2 27 -6 34 -11 7 -4 28 -7 48 -6
48 2 71 30 62 74 -4 18 -9 31 -12 28 -3 -3 -13 1 -22 9 -10 7 -43 15 -75 17
-41 3 -80 16 -140 45 -121 59 -165 111 -226 264 -18 45 -52 57 -80 29z"/>
</g>
</svg>
