<?xml version="1.0" standalone="no"?>
<!DOCTYPE svg PUBLIC "-//W3C//DTD SVG 20010904//EN"
 "http://www.w3.org/TR/2001/REC-SVG-20010904/DTD/svg10.dtd">
<svg version="1.0" xmlns="http://www.w3.org/2000/svg"
 width="451.000000pt" height="483.000000pt" viewBox="0 0 451.000000 483.000000"
 preserveAspectRatio="xMidYMid meet">
<metadata>
Created by potrace 1.16, written by Peter Selinger 2001-2019
</metadata>
<g transform="translate(0.000000,483.000000) scale(0.100000,-0.100000)"
fill="#000000" stroke="none">
<path d="M175 4648 c-11 -6 -21 -12 -23 -13 -11 -8 56 -100 89 -121 8 -5 29
-27 48 -49 52 -61 168 -189 243 -269 103 -110 153 -167 194 -221 21 -27 44
-56 51 -63 25 -25 13 -32 -24 -16 -94 41 -104 43 -138 23 -31 -19 -32 -21 -24
-62 4 -23 8 -45 9 -48 0 -4 21 -12 48 -18 61 -16 192 -78 192 -91 0 -6 4 -9 8
-6 9 5 123 -51 132 -65 3 -5 21 -15 40 -24 19 -8 42 -20 51 -27 12 -8 23 -7
45 3 23 11 30 22 32 50 2 23 -3 42 -13 52 -9 9 -23 33 -31 54 -14 34 -86 188
-119 253 -7 14 -18 42 -24 63 -7 20 -17 37 -22 37 -5 0 -9 9 -9 20 0 11 -6 23
-14 26 -8 3 -17 16 -20 29 -6 25 -44 38 -70 23 -21 -12 -32 -74 -16 -93 7 -8
10 -22 6 -30 -3 -9 0 -15 10 -15 8 0 13 -4 10 -9 -3 -4 6 -23 19 -41 14 -19
25 -38 25 -42 0 -21 -23 -3 -64 50 -92 115 -239 270 -253 264 -4 -2 -10 3 -13
11 -8 22 -59 84 -125 153 -33 34 -71 78 -84 96 -14 19 -39 45 -57 59 -18 13
-30 27 -28 30 3 5 -26 23 -56 35 -3 1 -14 -2 -25 -8z"/>
<path d="M2535 4572 c-11 -5 -84 -8 -162 -8 -79 1 -143 -3 -143 -8 0 -5 -14
-6 -31 -2 -18 3 -37 2 -43 -3 -7 -6 -24 -12 -40 -15 -53 -10 -101 -29 -123
-49 -13 -11 -23 -17 -23 -13 0 4 -19 -12 -42 -34 -23 -23 -52 -49 -65 -57 -12
-8 -23 -19 -23 -24 0 -4 -10 -19 -22 -32 -41 -42 -58 -67 -58 -82 0 -8 -3 -15
-8 -15 -10 0 -54 -117 -58 -155 -2 -16 -5 -55 -8 -85 -2 -31 -9 -73 -15 -95
-10 -38 -9 -91 3 -160 6 -40 8 -114 3 -145 -7 -37 -19 -84 -26 -95 -3 -5 -6
-16 -7 -23 -4 -26 -57 -92 -73 -92 -10 0 -22 -5 -29 -12 -15 -15 -122 -14
-132 2 -4 6 -10 11 -14 11 -3 -1 -7 -1 -8 0 -2 0 -15 2 -30 3 -22 1 -30 -5
-44 -35 -23 -51 -6 -115 43 -167 7 -7 13 -18 13 -23 0 -5 6 -9 13 -9 7 0 20
-9 29 -19 15 -18 15 -20 -1 -35 -10 -9 -21 -16 -25 -16 -18 0 -146 -94 -180
-132 -44 -48 -92 -134 -125 -223 -12 -33 -27 -68 -32 -78 -5 -9 -12 -43 -14
-75 -3 -31 -9 -77 -15 -102 -5 -25 -12 -67 -15 -95 -3 -27 -11 -78 -19 -112
-7 -34 -12 -64 -9 -66 4 -4 22 -225 28 -350 5 -91 11 -107 43 -109 15 0 41 -2
57 -3 17 -1 37 2 45 5 23 11 40 1 40 -24 0 -13 7 -37 16 -54 8 -17 18 -60 20
-94 3 -35 12 -77 21 -95 8 -18 12 -37 8 -42 -3 -6 -1 -11 5 -11 14 0 49 -40
50 -57 0 -6 6 -18 13 -25 37 -38 55 -229 34 -368 -4 -25 -9 -73 -11 -107 -3
-35 -7 -66 -10 -71 -4 -7 -11 -73 -21 -222 -3 -36 -14 -103 -25 -150 -12 -47
-25 -105 -31 -130 -6 -25 -13 -52 -16 -60 -4 -8 -8 -24 -10 -35 -2 -10 -7 -22
-12 -25 -4 -3 -17 -25 -28 -50 -18 -42 -19 -48 -5 -78 9 -17 24 -34 33 -37 20
-7 59 10 59 25 0 5 13 37 29 72 26 54 73 236 87 333 3 17 9 52 14 78 6 26 10
79 10 118 0 39 6 100 14 137 18 83 29 182 31 290 1 45 5 85 8 88 3 3 30 -8 61
-25 30 -17 65 -31 78 -31 13 -1 34 -7 48 -15 14 -8 33 -14 42 -15 9 0 38 -10
65 -22 26 -12 50 -22 53 -22 3 -1 23 -12 45 -26 53 -32 83 -45 125 -54 110
-23 170 -25 228 -8 32 9 134 26 223 37 63 8 189 61 189 80 0 6 15 19 33 29 88
47 117 71 117 97 0 18 10 23 75 32 95 15 147 28 195 50 30 14 74 32 98 41 42
16 42 16 43 -7 0 -12 2 -31 5 -42 2 -11 8 -60 14 -110 20 -168 30 -225 41
-225 5 0 9 -15 9 -34 0 -19 4 -37 9 -40 5 -3 11 -18 14 -33 13 -66 29 -115 57
-176 16 -36 30 -68 30 -72 0 -3 7 -13 15 -21 8 -8 17 -31 21 -52 4 -20 13 -42
20 -49 7 -7 20 -34 29 -60 24 -67 32 -84 79 -155 49 -75 85 -94 116 -60 25 27
25 62 0 95 -11 14 -20 33 -20 42 0 9 -4 14 -9 11 -14 -9 -38 26 -61 94 -13 36
-28 72 -35 80 -6 8 -16 26 -22 40 -6 14 -29 64 -51 111 -34 73 -57 134 -68
184 -1 6 -10 37 -20 70 -10 33 -19 65 -19 70 0 6 -4 15 -7 21 -4 6 -12 50 -18
99 -6 49 -13 91 -15 94 -2 4 -6 49 -10 101 l-6 96 35 17 c20 9 36 22 36 27 0
6 5 8 10 5 6 -3 10 -1 10 4 0 6 5 11 11 11 5 0 24 13 42 30 18 16 35 30 40 30
4 0 14 18 23 40 9 22 20 40 24 40 5 0 26 36 46 80 37 78 39 80 73 80 20 0 52
8 71 18 44 24 62 84 44 154 -7 26 -9 49 -6 52 3 3 0 6 -6 6 -7 0 -12 16 -12
38 0 20 -5 55 -12 77 -6 22 -11 44 -9 49 1 5 -1 16 -5 25 -4 9 -8 22 -10 30
-1 7 -12 23 -23 35 -18 19 -19 26 -9 61 6 22 11 46 9 53 -1 8 3 20 10 28 7 8
12 44 13 79 1 36 5 65 11 65 6 0 6 3 -1 8 -6 4 -19 30 -29 57 -23 62 -44 95
-59 95 -6 0 -17 9 -24 20 -7 12 -23 25 -36 30 -15 6 -28 23 -36 47 -7 21 -21
57 -32 81 -11 23 -20 58 -20 77 0 47 -21 57 -128 61 -105 5 -232 20 -285 35
-53 14 -105 40 -105 51 0 5 -4 7 -8 4 -4 -2 -35 1 -69 8 -57 12 -64 12 -80 -5
-29 -30 -43 -48 -43 -57 0 -12 -44 -52 -56 -52 -6 0 -17 -12 -25 -27 -18 -35
-53 -73 -68 -73 -6 0 -11 -4 -11 -10 0 -11 -20 -37 -65 -85 -37 -39 -82 -54
-92 -29 -4 10 -14 25 -22 34 -9 9 -24 30 -33 46 -62 104 -97 151 -123 164 -17
8 -48 32 -70 52 -22 21 -45 38 -52 38 -6 0 -16 14 -22 30 -5 17 -15 30 -20 30
-6 0 -11 6 -11 13 0 15 -39 54 -48 49 -4 -2 -8 1 -10 7 -2 6 1 11 7 11 6 0 11
8 11 18 1 15 2 14 12 -3 7 -11 22 -28 35 -38 13 -10 23 -23 23 -28 0 -44 202
-172 290 -184 19 -3 52 -9 73 -14 24 -6 37 -5 37 1 0 6 9 8 20 5 11 -3 22 -2
25 3 3 4 24 11 48 14 25 4 54 17 69 31 15 14 33 25 40 25 18 0 88 58 88 73 0
6 12 23 26 38 l25 27 23 -22 c57 -52 81 -65 183 -98 124 -41 185 -47 353 -34
65 5 78 9 148 52 45 27 102 88 102 108 0 4 9 15 21 27 18 18 19 23 6 42 -20
31 -56 41 -92 26 -61 -26 -182 1 -220 50 -38 48 -61 124 -71 241 -2 30 -9 87
-14 125 -9 71 -18 161 -26 264 -5 60 -7 70 -19 146 -10 58 -9 51 -19 93 -8 33
-52 123 -66 132 -13 9 -59 98 -53 104 4 3 1 6 -6 6 -24 0 -86 33 -117 62 -30
28 -141 67 -194 68 -14 1 -72 3 -130 5 -58 3 -114 1 -125 -3z m-147 -119 c-10
-2 -28 -2 -40 0 -13 2 -5 4 17 4 22 1 32 -1 23 -4z m103 -413 c19 -16 38 -30
43 -30 5 0 30 -10 55 -21 25 -12 57 -26 71 -32 14 -5 37 -16 52 -23 14 -8 32
-14 39 -14 28 0 169 -74 170 -89 6 -89 -8 -323 -22 -357 -7 -16 -14 -38 -16
-49 -4 -25 -45 -109 -55 -113 -5 -2 -8 -10 -8 -17 0 -7 -3 -15 -7 -17 -12 -5
-103 -119 -103 -129 0 -5 -7 -9 -15 -9 -8 0 -15 -4 -15 -8 0 -4 -17 -14 -37
-22 -21 -7 -43 -20 -50 -29 -9 -13 -30 -16 -108 -15 -54 1 -100 6 -104 11 -3
6 -18 13 -33 16 -15 4 -33 14 -42 22 -8 8 -18 15 -23 15 -14 1 -69 56 -89 89
-10 17 -22 31 -26 31 -12 0 -67 122 -69 155 -2 17 0 77 5 135 4 58 9 150 10
205 1 55 5 105 9 111 4 7 19 15 34 19 30 7 95 35 103 45 3 3 31 18 62 34 31
16 74 49 95 73 21 23 39 43 39 43 1 0 17 -13 35 -30z m729 -606 c0 -8 -5 -12
-10 -9 -6 4 -8 11 -5 16 9 14 15 11 15 -7z m290 -268 c0 -3 -4 -8 -10 -11 -5
-3 -10 -1 -10 4 0 6 5 11 10 11 6 0 10 -2 10 -4z m-1512 -67 c10 -8 25 -29 33
-46 7 -18 18 -33 24 -33 5 0 34 -24 64 -53 30 -28 57 -52 60 -52 22 -2 51 -30
60 -58 7 -19 22 -44 36 -57 13 -12 27 -34 30 -49 3 -14 25 -48 48 -74 78 -89
139 -81 247 33 80 84 144 159 148 170 2 6 7 10 12 10 4 0 24 14 44 32 41 36
112 50 122 24 3 -8 12 -12 20 -9 8 3 22 -2 32 -10 20 -18 164 -46 272 -53 107
-7 114 -9 133 -49 9 -20 17 -37 17 -38 0 -2 -54 -1 -119 1 -105 3 -125 0 -162
-18 -24 -11 -46 -20 -51 -20 -23 0 -113 -68 -136 -104 -74 -114 -80 -131 -82
-246 -1 -52 22 -164 41 -202 13 -26 13 -26 -33 -26 -33 -1 -49 5 -70 25 -15
14 -35 31 -45 37 -138 83 -223 148 -223 171 0 15 -6 21 -74 79 -27 23 -70 47
-102 57 l-56 18 -49 -27 c-52 -29 -63 -49 -61 -112 1 -43 27 -141 47 -180 8
-16 15 -38 15 -50 0 -11 4 -20 9 -20 4 0 18 -26 30 -59 17 -46 33 -69 78 -107
31 -27 67 -60 79 -74 13 -14 24 -21 24 -17 0 5 7 2 15 -7 21 -21 19 -32 -12
-64 -38 -38 -72 -58 -113 -67 -19 -4 -49 -18 -66 -31 -26 -19 -86 -50 -189
-95 -11 -5 -27 -13 -35 -18 -8 -5 -28 -14 -45 -20 -28 -11 -61 -36 -127 -96
-14 -14 -32 -25 -39 -25 -21 0 -79 50 -79 69 0 9 -4 21 -10 27 -6 6 -5 28 4
61 8 29 12 54 9 57 -12 12 -2 141 14 173 14 30 14 38 3 57 -8 12 -14 53 -15
101 -1 44 -6 96 -13 115 -6 19 -13 50 -16 68 -9 62 -58 87 -100 53 -18 -15
-11 -63 13 -100 10 -16 16 -54 18 -122 2 -87 0 -98 -15 -97 -34 2 -127 -14
-136 -23 -6 -5 -32 -9 -58 -9 -32 0 -66 -9 -99 -25 -28 -15 -74 -28 -107 -30
-31 -3 -76 -8 -99 -11 -36 -5 -43 -3 -43 11 0 10 -9 32 -19 49 -17 27 -20 52
-21 181 -1 83 3 170 8 195 6 25 13 63 16 85 3 22 7 49 10 60 2 11 7 43 10 70
25 185 126 390 212 431 19 9 34 20 34 25 0 5 8 9 18 9 11 0 27 9 37 20 10 11
28 20 41 20 12 0 29 7 38 15 28 28 71 38 176 40 58 2 119 8 135 15 17 6 37 13
45 15 30 7 89 35 96 47 5 8 10 5 15 -9 4 -12 16 -27 27 -34z m1327 -424 c113
-4 255 -83 255 -142 0 -13 5 -23 11 -23 13 0 3 -127 -11 -145 -4 -5 -8 -17 -8
-25 0 -8 -3 -22 -5 -30 -3 -8 -8 -29 -12 -47 -8 -35 -50 -78 -105 -108 -19
-11 -42 -25 -50 -32 -28 -22 -154 -42 -196 -32 -22 6 -51 13 -66 17 -37 10
-127 88 -134 118 -3 13 -10 24 -16 24 -5 0 -6 5 -3 10 3 6 2 10 -3 10 -9 0
-32 78 -34 120 -3 40 23 131 48 175 23 40 53 64 129 104 31 17 50 20 85 15 25
-4 77 -8 115 -9z m-987 -240 c16 -9 50 -38 74 -66 92 -106 105 -118 171 -154
38 -21 71 -44 74 -51 3 -8 11 -14 17 -14 7 0 30 -15 53 -34 33 -29 74 -49 105
-51 3 0 9 -3 12 -6 4 -3 35 1 71 9 l65 14 47 -35 c43 -31 84 -46 178 -63 17
-3 32 -8 35 -11 11 -10 -64 -132 -111 -180 -28 -29 -54 -53 -57 -53 -4 0 -20
-11 -36 -25 -16 -14 -37 -25 -46 -25 -10 0 -23 -7 -30 -16 -13 -14 -68 -42
-100 -49 -8 -2 -27 -6 -42 -10 -15 -4 -44 -9 -65 -11 -54 -5 -76 -10 -93 -17
-8 -4 -73 -9 -145 -11 -71 -3 -146 -9 -165 -14 -19 -5 -38 -8 -42 -8 -16 2
-87 -61 -105 -96 -12 -21 -18 -38 -14 -38 3 0 13 -15 21 -32 7 -18 15 -35 17
-38 2 -3 -12 -5 -30 -6 -17 0 -56 -3 -84 -7 -35 -5 -53 -4 -53 3 0 5 -8 10
-18 10 -11 0 -32 11 -48 25 -16 14 -32 25 -36 25 -18 0 -6 38 20 62 33 32 92
68 110 68 8 0 21 9 30 19 10 10 53 33 97 50 44 18 89 41 100 51 12 11 34 21
51 23 34 4 104 46 145 88 16 16 35 29 44 29 8 0 15 6 15 13 0 23 66 40 106 27
19 -7 36 -10 37 -8 1 1 10 13 21 25 17 21 17 23 0 52 -10 17 -27 31 -37 31
-10 0 -48 8 -84 17 -55 15 -76 28 -132 79 -36 33 -76 66 -88 72 -12 7 -24 26
-28 44 -4 18 -12 39 -17 46 -6 6 -7 12 -4 12 4 0 -2 14 -14 30 -12 17 -19 30
-16 30 3 0 -2 21 -10 48 -19 58 -33 130 -26 137 9 9 28 5 60 -10z m1269 -327
c5 -7 10 -22 10 -33 1 -11 9 -54 18 -95 9 -41 18 -88 18 -105 2 -28 -1 -30
-43 -37 -25 -3 -63 -11 -85 -18 -22 -7 -71 -16 -110 -21 -38 -4 -91 -11 -117
-15 -48 -7 -59 1 -36 24 7 7 31 50 53 95 27 56 46 83 60 86 11 2 32 12 48 23
15 11 27 17 27 13 0 -3 6 -1 13 5 23 20 122 89 128 90 4 0 11 -6 16 -12z
m-1937 -273 c7 -4 9 -30 5 -68 -11 -122 -14 -210 -7 -221 7 -12 12 -32 14 -54
1 -7 14 -24 30 -37 15 -13 28 -28 28 -32 0 -5 17 -15 38 -23 20 -7 57 -31 81
-54 24 -23 51 -48 60 -56 9 -8 40 -27 69 -42 55 -29 126 -36 217 -22 96 14
108 13 133 -6 13 -11 28 -17 33 -14 5 3 9 1 9 -5 0 -13 72 -24 168 -23 81 0
83 0 66 -19 -9 -10 -23 -19 -30 -19 -7 0 -17 -6 -21 -13 -16 -27 -160 -68
-253 -73 -25 -1 -69 -9 -99 -18 -88 -26 -184 -10 -296 49 -80 41 -252 105
-284 105 -7 0 -32 14 -56 30 -24 17 -48 30 -53 30 -13 0 -92 87 -92 101 0 7
-6 20 -13 28 -7 9 -22 36 -32 61 -11 25 -24 48 -30 52 -5 4 -10 15 -11 25 0
10 -3 25 -7 33 -5 14 -8 29 -26 140 -5 25 -10 51 -12 59 -3 9 7 17 26 21 17 4
45 14 63 24 19 10 53 19 75 21 51 5 149 24 155 29 5 5 38 -1 52 -9z m1810
-149 c0 -8 -11 -28 -25 -44 -14 -17 -25 -34 -25 -40 0 -9 -49 -54 -90 -82 -12
-8 -28 -19 -34 -25 -21 -19 -221 -115 -238 -115 -10 0 -18 -4 -18 -8 0 -14
-80 -44 -101 -39 -11 3 -26 -2 -34 -10 -10 -10 -42 -16 -93 -19 -182 -10 -203
-12 -216 -23 -7 -6 -15 -9 -18 -6 -2 3 -25 5 -49 6 -51 1 -149 26 -149 37 0 5
-14 24 -31 43 -46 51 -51 64 -31 81 22 20 79 30 100 19 12 -6 24 -4 37 5 12 9
44 14 89 14 39 0 87 5 106 11 19 6 46 12 60 13 14 2 59 6 100 11 41 4 80 11
86 16 6 5 44 25 84 45 71 36 86 46 134 89 19 18 34 20 129 18 59 -1 107 1 107
6 0 4 27 8 60 9 46 1 60 -2 60 -12z"/>
</g>
</svg>
