<?xml version="1.0" standalone="no"?>
<!DOCTYPE svg PUBLIC "-//W3C//DTD SVG 20010904//EN"
 "http://www.w3.org/TR/2001/REC-SVG-20010904/DTD/svg10.dtd">
<svg version="1.0" xmlns="http://www.w3.org/2000/svg"
 width="461.000000pt" height="487.000000pt" viewBox="0 0 461.000000 487.000000"
 preserveAspectRatio="xMidYMid meet">
<metadata>
Created by potrace 1.16, written by Peter Selinger 2001-2019
</metadata>
<g transform="translate(0.000000,487.000000) scale(0.100000,-0.100000)"
fill="#000000" stroke="none">
<path d="M1850 4834 c-102 -25 -271 -56 -307 -56 -12 0 -24 -7 -27 -15 -6 -14
-87 -53 -112 -53 -14 0 -63 -22 -220 -96 -28 -13 -58 -24 -67 -24 -8 0 -17 -4
-19 -8 -1 -5 -30 -28 -63 -52 -33 -24 -79 -65 -103 -90 -24 -25 -47 -49 -53
-55 -5 -5 -26 -28 -47 -49 -20 -21 -47 -50 -60 -62 -23 -24 -66 -113 -58 -121
2 -3 -7 -21 -20 -40 -13 -20 -24 -42 -24 -49 0 -8 -16 -49 -36 -91 -87 -184
-92 -197 -100 -252 -3 -20 -9 -45 -14 -56 -18 -42 -23 -61 -26 -90 -1 -16 -8
-77 -15 -135 -9 -76 -9 -115 -2 -137 6 -16 10 -68 9 -114 -2 -46 1 -97 7 -114
5 -16 11 -70 13 -120 2 -49 5 -103 6 -120 2 -20 -1 -30 -11 -30 -17 0 -45 -24
-169 -145 -139 -135 -171 -204 -174 -382 0 -32 4 -63 9 -70 6 -7 14 -28 18
-46 3 -18 12 -45 19 -60 7 -15 26 -58 42 -97 25 -62 42 -83 150 -190 129 -127
193 -185 206 -185 4 0 8 -6 8 -14 0 -8 8 -17 19 -21 10 -3 31 -17 47 -30 27
-24 83 -53 129 -70 11 -3 53 -10 93 -15 40 -4 76 -10 79 -13 7 -7 -24 -102
-48 -147 -11 -19 -19 -38 -19 -42 0 -5 -9 -27 -19 -51 -19 -41 -62 -187 -63
-217 -1 -8 2 -30 6 -48 7 -30 4 -37 -63 -104 -39 -39 -71 -75 -71 -79 0 -4 -7
-9 -15 -12 -8 -4 -23 -23 -34 -44 -10 -21 -38 -61 -60 -88 -23 -27 -53 -74
-68 -105 -16 -30 -35 -60 -44 -67 -20 -15 -63 -82 -118 -183 -105 -193 -112
-222 -59 -244 18 -8 38 -12 45 -9 13 5 53 68 53 84 0 19 89 196 122 244 44 64
58 84 94 147 17 29 41 62 53 72 11 11 21 23 21 27 0 8 27 43 60 78 9 9 29 34
45 56 35 48 48 60 103 104 48 38 71 37 121 -5 17 -14 37 -27 43 -29 42 -10 58
-19 58 -32 0 -8 4 -11 10 -8 5 3 24 -1 42 -9 44 -19 93 -33 148 -41 25 -4 64
-16 87 -26 23 -11 58 -19 77 -19 19 0 59 -9 88 -20 29 -10 76 -21 103 -24 69
-7 115 -17 115 -26 0 -5 8 -6 18 -3 10 2 47 -3 81 -12 44 -11 102 -15 199 -14
258 2 390 6 400 13 6 3 14 2 17 -4 5 -8 12 -7 22 2 11 9 62 13 172 15 117 1
166 6 194 18 32 13 45 14 75 4 40 -12 150 -70 194 -100 14 -11 31 -19 37 -19
7 0 14 -6 17 -14 8 -22 74 -61 127 -76 26 -7 47 -16 47 -20 0 -4 26 -20 58
-36 31 -16 73 -41 92 -56 46 -35 85 -45 93 -24 4 9 13 16 22 16 11 0 15 11 15
43 0 55 -7 64 -55 72 -39 8 -96 34 -163 77 -18 11 -51 24 -74 30 -27 6 -59 25
-96 59 -30 27 -87 66 -128 86 -41 20 -76 39 -78 42 -3 4 13 33 35 65 21 32 39
69 39 82 0 37 -21 74 -47 80 -13 4 -23 10 -23 15 0 5 -7 9 -16 9 -15 0 -76 43
-114 79 -8 8 -34 23 -57 33 -23 10 -59 36 -81 58 -21 22 -44 40 -50 40 -14 0
-15 10 -4 28 7 10 27 10 97 3 48 -6 91 -8 95 -6 16 10 77 13 89 6 7 -5 40 0
74 11 34 10 70 17 80 14 9 -2 17 0 17 4 0 11 32 21 80 25 22 2 47 12 59 24 12
12 27 21 35 21 8 0 37 24 65 53 51 52 52 52 48 109 -2 31 -10 67 -19 80 -34
52 -42 121 -22 178 11 28 10 115 0 147 -5 18 -18 35 -28 39 -19 6 -25 24 -8
24 6 0 10 6 10 14 0 7 11 22 25 32 28 21 54 94 50 136 -3 25 -7 42 -35 131
-11 34 -9 43 16 90 15 29 36 59 48 67 11 8 34 27 50 42 15 15 36 30 46 33 45
14 66 144 34 211 -21 44 -25 91 -10 107 18 18 76 143 76 163 0 10 5 44 12 76
10 48 10 63 -1 80 -7 12 -21 46 -31 77 -30 90 -50 131 -65 138 -8 3 -15 10
-15 17 0 6 -22 20 -49 31 -54 21 -51 11 -49 155 2 151 -14 256 -50 333 -16 34
-49 104 -72 155 -24 50 -47 92 -51 92 -4 0 -14 13 -22 29 -13 27 -13 30 7 40
16 9 21 21 20 49 -2 57 -3 60 -22 66 -9 3 -32 29 -50 57 -19 27 -47 62 -64 77
-17 15 -52 47 -78 72 -64 60 -97 89 -143 122 -20 16 -46 37 -57 48 -20 20 -39
26 -180 55 -47 10 -89 22 -94 27 -6 4 -20 8 -32 8 -13 0 -29 6 -36 13 -7 6
-20 13 -28 14 -70 9 -187 47 -201 66 -3 4 -25 0 -49 -8 -32 -11 -64 -14 -114
-10 -39 4 -91 8 -116 10 -25 1 -45 4 -45 5 0 1 -16 3 -35 6 -19 2 -44 6 -55 8
-11 2 -63 -7 -115 -20z m355 -98 c28 -3 77 -8 110 -10 131 -10 221 -33 259
-68 11 -10 36 -20 55 -23 132 -21 172 -31 216 -53 28 -13 52 -27 55 -31 3 -3
24 -19 48 -34 59 -39 92 -68 92 -84 0 -7 4 -13 9 -13 4 0 24 -15 44 -32 56
-51 65 -58 77 -58 9 0 14 -14 11 -32 0 -5 3 -8 8 -8 5 0 18 -16 30 -36 12 -19
17 -33 12 -30 -5 3 -11 -4 -15 -17 -8 -32 -122 -125 -175 -142 -11 -3 -36 -24
-54 -45 -26 -31 -48 -44 -103 -61 -38 -12 -95 -34 -127 -50 -32 -16 -77 -31
-101 -33 -25 -2 -83 -22 -140 -50 -53 -25 -101 -46 -107 -46 -6 0 -57 -18
-113 -39 -55 -22 -126 -43 -158 -46 -39 -4 -65 -14 -85 -31 -15 -13 -31 -24
-35 -24 -13 0 -37 -86 -43 -155 -4 -38 -6 -128 -5 -200 1 -124 -1 -138 -45
-310 -25 -99 -55 -199 -65 -222 -11 -24 -20 -47 -20 -52 0 -6 -6 -14 -13 -18
-7 -4 -28 -39 -47 -76 -34 -67 -63 -98 -200 -212 -69 -57 -64 -54 -135 -90
-33 -16 -62 -32 -65 -35 -3 -3 -15 -6 -27 -8 -43 -6 -171 -80 -233 -135 -30
-27 -41 -28 -73 -5 -105 75 -221 194 -261 270 -20 37 -47 85 -60 107 -14 21
-23 41 -20 44 7 7 -28 77 -38 77 -5 0 -6 5 -3 10 4 6 1 17 -5 25 -21 25 -64
242 -62 312 1 24 -4 73 -11 110 -7 38 -10 99 -6 138 3 46 1 81 -7 102 -13 32
-11 123 2 144 3 6 10 43 15 83 4 39 20 107 34 150 25 77 40 111 104 247 17 36
31 75 31 85 0 11 4 24 8 30 5 5 19 38 33 74 20 53 40 81 111 155 48 50 95 99
106 110 40 43 161 125 183 125 5 0 17 4 27 9 43 24 91 44 142 61 30 10 87 32
125 50 95 44 197 73 290 84 28 3 66 10 85 15 38 9 254 7 335 -3z m1058 -690
c9 -7 17 -18 17 -25 0 -6 5 -11 10 -11 6 0 15 -10 20 -22 6 -13 14 -30 19 -38
9 -15 28 -57 70 -155 25 -60 36 -163 31 -300 -1 -27 0 -94 2 -147 2 -54 0 -98
-3 -98 -3 0 -26 17 -50 38 -24 21 -52 41 -61 45 -10 3 -18 10 -18 15 0 5 -6 9
-12 9 -7 1 -40 8 -73 17 -45 13 -80 15 -139 10 -73 -6 -85 -10 -145 -52 -81
-56 -83 -59 -128 -151 l-36 -74 -66 8 c-36 4 -124 9 -196 11 -86 3 -144 10
-172 20 -32 12 -58 15 -105 10 -35 -4 -84 -9 -110 -11 l-48 -3 -2 36 c0 21 0
44 0 52 1 8 -3 51 -9 95 -9 67 -8 86 5 117 9 21 16 52 16 71 0 44 29 73 82 82
42 7 78 21 171 65 26 12 50 20 53 17 8 -7 98 27 176 67 56 29 72 33 102 26 19
-4 36 -5 38 -1 7 14 157 82 212 96 55 14 85 31 145 84 13 11 29 21 35 21 6 0
33 20 61 45 52 46 77 54 108 31z m-54 -771 c40 -14 89 -46 133 -86 10 -8 19
-33 20 -55 2 -21 9 -45 16 -52 19 -21 14 -65 -14 -118 -36 -70 -75 -124 -84
-119 -4 3 -10 -2 -14 -10 -3 -8 -12 -15 -20 -15 -8 0 -16 -4 -18 -10 -4 -11
-149 -50 -188 -50 -32 0 -73 38 -96 87 -9 18 -22 33 -28 33 -7 0 -22 18 -35
40 -28 50 -27 118 3 205 20 58 36 78 91 120 60 46 153 57 234 30z m378 -61
c12 -21 22 -44 22 -51 1 -6 6 -24 12 -40 6 -15 11 -30 11 -33 0 -3 4 -12 8
-21 11 -20 -15 -148 -33 -167 -12 -11 -18 -5 -39 40 -30 62 -53 134 -51 163 1
11 9 40 18 65 9 24 14 55 12 68 -7 34 15 22 40 -24z m-1265 -165 c46 -16 75
-20 133 -16 40 2 98 0 127 -4 103 -17 143 -22 161 -21 12 0 17 -7 17 -27 0
-51 30 -116 85 -181 30 -36 62 -77 72 -93 9 -15 22 -26 28 -24 5 2 16 -2 23
-10 16 -16 41 -16 135 -3 117 17 211 55 263 107 25 25 54 63 65 85 29 56 33
52 100 -72 11 -19 19 -54 19 -78 0 -24 8 -57 17 -75 23 -44 24 -55 4 -70 -10
-6 -20 -19 -23 -28 -4 -9 -20 -23 -37 -30 -16 -7 -27 -17 -25 -21 3 -4 -7 -15
-20 -24 -23 -15 -30 -15 -71 -1 -33 12 -53 13 -73 6 -15 -5 -37 -9 -47 -8 -41
4 -55 -2 -69 -29 -8 -16 -13 -38 -10 -48 7 -28 50 -45 82 -33 15 6 44 13 65
15 34 4 38 3 33 -13 -12 -41 -16 -108 -6 -142 5 -20 10 -51 12 -68 1 -18 6
-33 10 -33 21 0 -3 -66 -29 -83 -7 -4 -13 -14 -13 -21 0 -17 -86 -46 -137 -46
-56 0 -143 19 -143 31 0 6 -4 8 -9 5 -5 -3 -14 1 -21 9 -7 8 -18 15 -25 15 -7
0 -33 11 -57 25 -66 37 -140 38 -166 2 -11 -15 -10 -22 8 -47 14 -19 30 -30
46 -30 14 0 41 -7 62 -16 20 -8 39 -15 42 -16 3 0 16 -8 30 -18 21 -14 80 -39
113 -46 4 -1 8 -2 10 -3 1 -1 21 -4 44 -6 22 -3 53 -9 68 -15 16 -6 33 -7 43
-1 11 6 28 3 53 -10 45 -22 48 -36 36 -163 -7 -72 -5 -97 7 -125 8 -20 20 -54
26 -76 10 -38 9 -41 -21 -65 -142 -111 -433 -147 -717 -88 -30 7 -59 19 -66
30 -7 10 -15 15 -18 12 -10 -9 -151 75 -178 106 -18 21 -104 79 -111 74 -5 -3
-9 1 -9 9 0 7 -17 28 -39 45 -47 38 -90 39 -108 2 -19 -41 -6 -78 33 -92 19
-7 41 -22 49 -35 9 -13 24 -23 34 -23 11 0 36 -18 57 -40 21 -22 43 -40 50
-40 7 0 26 -13 44 -30 18 -16 36 -30 41 -30 5 0 12 -7 15 -15 4 -8 14 -15 23
-15 9 0 30 -7 46 -16 17 -9 48 -22 70 -29 21 -7 48 -23 58 -37 17 -23 18 -28
3 -79 -16 -54 -54 -107 -93 -127 -11 -6 -40 -11 -64 -11 -59 -1 -224 15 -236
22 -5 3 -37 8 -71 11 -34 3 -70 10 -80 15 -68 36 -134 60 -177 65 -59 6 -92
13 -104 20 -5 3 -37 10 -72 15 -93 14 -101 17 -156 44 -59 30 -157 57 -207 57
-27 0 -44 7 -61 26 -14 15 -25 31 -25 35 0 4 -11 19 -24 34 -23 24 -23 27 -11
83 21 96 43 143 90 193 52 56 106 164 113 227 4 41 -22 152 -36 152 -4 0 -13
15 -21 33 -8 17 -17 34 -21 37 -3 3 -20 26 -37 52 l-31 47 44 20 c24 12 47 21
51 21 5 0 42 17 84 38 76 37 129 75 200 142 21 19 44 40 52 45 8 6 30 21 50
35 24 16 43 41 54 69 22 57 67 144 93 179 18 25 55 137 64 197 2 11 5 21 6 23
3 3 5 10 15 57 10 53 23 75 38 70 6 -3 44 1 82 9 97 19 111 19 177 -5z m-1768
-391 c4 -23 15 -58 26 -77 10 -20 26 -54 35 -76 30 -70 39 -89 56 -115 9 -14
20 -36 24 -50 14 -46 62 -99 224 -249 18 -17 36 -31 40 -31 13 0 81 -70 81
-84 0 -7 11 -16 25 -18 14 -3 25 -1 25 3 0 5 9 9 19 9 11 0 22 8 25 18 4 10
19 30 34 45 25 24 31 26 65 16 20 -5 37 -16 37 -23 0 -7 9 -21 21 -32 36 -32
73 -115 72 -159 -1 -44 -55 -136 -109 -187 -69 -64 -191 -97 -274 -74 -14 4
-54 11 -90 16 -67 8 -137 40 -181 83 -26 25 -145 126 -167 142 -58 41 -194
198 -216 249 -47 104 -73 194 -70 236 11 169 33 215 134 292 19 14 55 45 78
67 57 54 77 54 86 -1z m618 -1201 c-16 -32 -31 -94 -27 -114 1 -10 -1 -25 -6
-34 -9 -18 27 -69 48 -69 7 0 18 -10 24 -22 31 -57 65 -74 166 -84 38 -3 91
-17 118 -29 97 -46 131 -57 210 -70 157 -27 222 -44 285 -73 52 -24 79 -34
100 -37 8 -1 67 -10 130 -20 63 -9 117 -20 120 -24 5 -6 73 -13 145 -13 17 -1
53 10 80 23 62 29 105 32 105 7 0 -10 7 -18 15 -18 8 0 15 -4 15 -9 0 -5 9
-11 20 -13 26 -4 126 -87 139 -117 10 -20 9 -22 -4 -17 -8 3 -50 -1 -93 -9
-42 -7 -97 -13 -122 -13 -53 1 -168 -10 -180 -17 -5 -3 -118 -8 -252 -11 -207
-5 -253 -3 -308 11 -36 9 -81 20 -100 25 -19 5 -60 10 -90 11 -30 1 -72 11
-92 21 -21 10 -47 18 -59 18 -12 0 -58 9 -103 20 -44 10 -99 22 -121 26 -45 7
-245 101 -245 115 0 5 -7 9 -16 9 -24 0 -114 51 -124 71 -13 24 9 120 41 181
5 10 9 25 9 33 0 8 5 15 11 15 5 0 8 4 5 9 -3 5 1 25 9 45 8 20 15 38 16 41 0
2 9 24 19 47 11 24 20 53 20 65 0 18 9 25 45 34 25 6 45 16 46 23 0 6 3 5 6
-2 3 -8 1 -24 -5 -35z m1608 -458 c0 -4 16 -13 36 -19 20 -7 53 -27 73 -44 20
-18 57 -47 83 -66 42 -29 46 -35 36 -54 -24 -46 -27 -45 -104 30 -41 41 -79
74 -85 74 -5 0 -11 11 -15 24 -3 13 -22 32 -43 44 -21 12 -38 28 -38 36 0 13
4 13 29 -2 15 -9 28 -19 28 -23z"/>
<path d="M3150 3051 c-83 -77 -42 -178 64 -155 36 7 86 50 86 73 0 42 -22 88
-49 104 -42 24 -54 22 -101 -22z"/>
</g>
</svg>
