<?xml version="1.0" standalone="no"?>
<!DOCTYPE svg PUBLIC "-//W3C//DTD SVG 20010904//EN"
 "http://www.w3.org/TR/2001/REC-SVG-20010904/DTD/svg10.dtd">
<svg version="1.0" xmlns="http://www.w3.org/2000/svg"
 width="327.000000pt" height="513.000000pt" viewBox="0 0 327.000000 513.000000"
 preserveAspectRatio="xMidYMid meet">
<metadata>
Created by potrace 1.16, written by Peter Selinger 2001-2019
</metadata>
<g transform="translate(0.000000,513.000000) scale(0.100000,-0.100000)"
fill="#000000" stroke="none">
<path d="M980 5020 c-12 -12 -19 -29 -16 -38 3 -9 13 -48 22 -87 10 -38 24
-80 32 -92 24 -38 -3 -26 -43 20 -21 23 -51 70 -67 105 -30 63 -35 66 -75 56
-47 -13 -15 -97 70 -184 27 -28 47 -53 44 -57 -11 -11 -71 21 -112 58 -92 85
-98 89 -119 83 -23 -7 -36 -22 -36 -41 0 -14 71 -72 142 -117 l46 -29 -36 -31
c-55 -47 -81 -79 -82 -98 0 -10 -9 -27 -21 -39 -13 -13 -25 -48 -35 -97 -14
-71 -41 -122 -66 -122 -20 0 -76 -53 -83 -77 -3 -14 -12 -31 -19 -39 -23 -22
-7 -63 35 -90 21 -13 42 -24 47 -24 5 0 9 -39 9 -87 1 -53 7 -106 17 -133 9
-25 16 -55 16 -68 0 -22 35 -116 68 -181 18 -35 101 -91 137 -91 14 0 6 -8
-25 -26 -52 -29 -50 -28 -153 -126 -43 -40 -79 -81 -80 -90 -2 -9 -7 -22 -13
-29 -5 -8 -21 -39 -34 -69 -14 -30 -36 -73 -49 -95 -14 -22 -26 -47 -27 -55
-4 -19 15 -40 35 -40 15 0 101 70 101 82 0 13 60 73 114 115 35 27 81 51 109
59 28 7 55 18 60 23 6 6 14 11 18 11 12 0 2 -74 -16 -115 -10 -22 -19 -49 -21
-60 -7 -44 -42 -183 -48 -194 -4 -6 -9 -20 -12 -31 -11 -50 -15 -69 -25 -120
-20 -96 -30 -163 -34 -215 -7 -99 -24 -231 -35 -280 -6 -27 -13 -97 -15 -155
-2 -58 -10 -139 -18 -181 -8 -41 -12 -89 -10 -106 3 -17 -3 -75 -12 -129 -9
-55 -18 -166 -20 -249 -1 -82 -5 -166 -9 -185 -4 -19 -8 -57 -10 -85 -2 -27
-9 -63 -17 -78 -10 -23 -10 -32 -1 -45 7 -9 15 -25 18 -34 8 -23 0 -22 194
-23 91 -1 197 -5 235 -11 83 -11 75 16 79 -266 l2 -196 -28 -17 c-15 -9 -52
-24 -81 -34 -59 -21 -121 -57 -152 -90 -11 -11 -28 -29 -38 -40 -20 -21 -57
-90 -57 -106 0 -6 -14 -32 -30 -59 -26 -41 -28 -49 -16 -61 8 -8 16 -20 18
-26 3 -8 15 -7 41 6 29 13 37 23 37 44 0 53 40 137 90 188 47 49 212 123 258
114 7 -1 15 6 19 16 4 10 11 21 17 25 8 4 8 51 3 155 -9 155 -12 241 -9 308
l2 40 53 0 52 0 1 -115 c1 -100 9 -296 17 -397 4 -48 -35 -83 -93 -83 -16 0
-30 -4 -30 -8 0 -5 -19 -14 -42 -21 -24 -7 -54 -20 -68 -29 -14 -9 -35 -21
-47 -27 -24 -13 -93 -92 -93 -107 0 -18 -34 -83 -47 -91 -24 -14 -16 -57 13
-67 29 -11 44 -6 44 16 0 8 5 13 12 11 6 -1 13 7 15 18 7 38 35 105 44 105 5
0 9 5 9 11 0 31 132 108 194 114 18 1 47 10 64 19 17 9 42 16 55 16 24 0 50
22 59 50 2 8 -1 37 -7 65 -7 28 -13 98 -14 155 -1 57 -5 108 -7 112 -10 16 -4
192 7 225 7 23 17 33 32 34 12 0 41 2 64 2 49 2 100 44 128 108 10 21 21 39
24 39 3 0 5 -36 3 -79 -2 -46 1 -88 8 -100 13 -24 42 -27 63 -6 21 20 26 9 15
-32 -5 -19 -7 -41 -5 -48 3 -7 1 -17 -4 -22 -14 -14 -24 -192 -22 -393 1 -96
2 -205 2 -241 1 -37 -3 -88 -8 -113 -8 -44 -7 -48 21 -71 37 -31 42 -31 63 2
20 29 21 56 9 198 -20 241 -5 646 26 705 9 17 17 20 46 14 27 -5 40 -2 57 13
12 11 29 21 37 21 93 4 184 1 223 -8 27 -6 53 -8 58 -5 5 4 9 2 9 -4 0 -7 72
-9 112 -2 11 2 20 60 22 147 1 47 7 89 13 95 8 8 8 20 3 35 -6 14 -6 26 0 29
13 8 13 52 0 57 -6 2 -12 35 -15 73 -2 39 -7 111 -10 160 -3 50 -8 162 -10
250 -7 213 -14 312 -25 356 -10 37 -5 69 11 69 5 0 9 -3 9 -8 0 -4 16 -25 35
-47 33 -38 85 -132 85 -154 0 -14 33 -14 47 0 6 6 9 18 6 25 -3 9 0 12 9 9 31
-12 17 39 -21 77 -35 34 -116 156 -109 164 6 5 95 36 153 52 76 22 136 77 153
143 10 38 9 46 -5 57 -33 24 -147 9 -181 -25 -7 -7 -22 -13 -32 -13 -15 0 -11
13 28 89 40 76 45 93 37 116 -13 35 -55 60 -87 52 -25 -7 -127 -147 -174 -238
-23 -45 -29 -43 -39 14 -4 21 -19 62 -32 90 -14 28 -25 67 -25 87 0 19 -4 37
-8 40 -4 3 -11 25 -14 50 -8 60 -12 80 -24 110 -5 14 -7 31 -5 37 3 7 -3 48
-12 90 -9 43 -18 88 -21 100 -2 12 -9 34 -14 48 -5 14 -7 25 -4 25 2 0 -2 13
-11 30 -8 16 -15 36 -15 44 0 12 -10 45 -23 75 -1 2 7 5 18 6 11 1 36 6 55 10
19 5 38 8 41 7 4 -1 15 8 25 19 16 17 18 34 16 97 -2 43 -6 78 -10 80 -4 1 -6
50 -6 110 1 59 -3 112 -8 119 -5 6 -12 38 -14 70 -3 32 -11 76 -18 98 -15 44
-27 90 -47 175 -6 30 -15 62 -20 70 -4 8 -22 53 -39 100 -18 47 -37 91 -44 99
-6 8 -10 16 -8 18 5 6 -72 123 -80 123 -4 0 -28 20 -52 45 -25 25 -52 45 -61
45 -8 0 -15 4 -15 8 0 5 -19 17 -42 27 -24 11 -55 27 -70 37 -14 10 -32 18
-40 18 -7 0 -29 10 -48 22 -19 12 -51 22 -70 23 -19 2 -62 6 -95 10 -82 11
-182 11 -230 1 -75 -16 -87 -14 -108 23 -19 31 -31 73 -44 147 -2 16 -13 36
-24 42 -16 10 -22 9 -39 -8z m480 -297 c25 -4 51 -7 58 -6 6 0 12 -3 12 -8 0
-5 4 -9 10 -9 16 0 203 -91 230 -112 108 -83 178 -190 231 -353 13 -38 29 -81
36 -95 7 -14 13 -36 13 -50 0 -14 7 -50 15 -80 41 -151 54 -233 59 -364 3 -78
1 -147 -4 -157 -19 -35 -180 -50 -305 -28 -33 5 -86 12 -117 14 -55 4 -69 6
-128 19 -14 3 -45 8 -70 11 -25 3 -58 8 -75 11 -24 4 -27 3 -15 -6 13 -10 13
-11 0 -7 -8 2 -15 10 -15 17 0 7 -13 14 -30 16 -16 2 -41 6 -54 9 -26 7 -26
-7 0 165 30 196 33 527 5 695 -20 119 -31 166 -52 211 -13 28 -24 58 -24 67 0
9 -4 19 -10 22 -20 13 -9 24 28 27 46 4 142 0 202 -9z m-333 -35 c41 -33 96
-173 107 -275 3 -28 8 -57 11 -65 9 -23 14 -136 14 -298 0 -184 -1 -208 -23
-325 -30 -166 -36 -185 -57 -185 -10 0 -19 -4 -19 -10 0 -6 -29 -10 -67 -9
-63 0 -76 5 -178 58 -104 55 -112 61 -137 110 -39 77 -40 103 -3 117 17 7 64
26 105 44 41 18 89 39 106 46 27 12 31 19 30 46 -1 17 -7 33 -14 36 -21 7 -62
-7 -62 -22 0 -7 -13 -16 -29 -19 -16 -3 -36 -13 -44 -22 -17 -17 -89 -33 -124
-27 -31 5 -51 73 -46 160 5 80 -7 112 -40 112 -26 0 -47 17 -47 38 0 16 39 51
58 52 6 0 12 5 12 10 0 6 6 10 13 10 26 0 73 73 75 115 4 69 42 172 68 182 8
3 14 10 14 17 0 19 97 90 146 106 47 16 110 15 131 -2z m-209 -1256 c-3 -20
-16 -54 -29 -75 -23 -35 -42 -45 -109 -61 -14 -3 -59 -37 -100 -75 -41 -38
-77 -65 -79 -59 -2 6 1 13 6 17 5 3 17 27 27 53 16 44 51 85 146 170 18 16 46
29 66 31 19 2 43 11 52 20 24 22 24 21 20 -21z m515 9 c15 -6 31 -10 35 -9 4
1 32 -2 62 -7 30 -5 58 -8 63 -7 4 1 7 -2 7 -7 0 -5 -10 -11 -23 -15 -12 -3
-32 -14 -44 -26 -12 -11 -25 -20 -27 -20 -3 0 -18 -13 -33 -28 -16 -16 -51
-45 -79 -65 l-52 -36 -8 47 c-4 26 -7 51 -5 55 1 5 -11 25 -27 45 -16 20 -27
42 -25 49 2 6 -1 14 -6 18 -6 3 -11 11 -11 17 0 13 133 5 173 -11z m-292 -13
c2 -40 -2 -53 -24 -70 -24 -19 -58 -23 -85 -9 -9 5 -25 12 -34 15 -20 6 -23
37 -8 67 9 16 22 19 80 19 66 0 70 -1 71 -22z m776 -50 c51 0 51 0 55 -34 3
-29 1 -33 -14 -28 -10 3 -18 1 -18 -5 0 -6 -9 -11 -20 -11 -11 0 -39 -9 -63
-19 -41 -19 -59 -25 -176 -57 -30 -8 -61 -20 -68 -26 -8 -6 -30 -11 -49 -10
-32 1 -36 -2 -54 -43 -10 -24 -28 -53 -39 -64 -12 -12 -21 -27 -21 -35 0 -8
-16 -35 -35 -60 -19 -26 -35 -49 -35 -52 0 -6 -37 -92 -49 -114 -5 -9 -12 -31
-16 -50 -4 -19 -11 -39 -15 -45 -10 -12 -31 -88 -36 -130 -2 -16 -5 -41 -8
-55 -2 -14 -7 -50 -11 -81 l-7 -56 47 -12 c78 -20 162 -23 223 -10 79 18 77
19 79 -26 0 -22 4 -103 8 -181 5 -121 4 -142 -9 -153 -9 -8 -16 -19 -16 -27 0
-13 -50 -115 -68 -137 -13 -15 -50 -81 -72 -127 -20 -41 -31 -73 -62 -190 -12
-47 -23 -86 -24 -88 -3 -5 -46 -10 -144 -18 -52 -3 -106 -8 -120 -10 -89 -11
-200 -25 -230 -29 -93 -12 -107 -14 -120 -17 -9 -2 -14 3 -12 12 2 8 6 80 7
160 4 150 7 189 17 206 3 5 7 50 9 99 2 50 9 115 16 145 7 30 13 102 13 160 1
58 5 125 11 150 5 25 14 83 19 131 5 47 14 98 20 113 6 16 10 45 9 65 -4 56
21 139 43 144 34 9 179 0 191 -12 17 -17 65 -13 86 7 10 9 24 34 30 55 7 20
19 37 26 37 8 0 17 15 21 35 3 20 14 41 24 48 30 21 58 79 66 134 5 44 10 52
31 58 13 3 59 40 101 82 42 41 93 86 112 99 19 13 45 31 57 40 12 8 46 18 77
21 31 3 56 10 56 15 0 6 21 7 53 3 28 -4 75 -8 104 -7z m-686 -41 c63 -55 66
-239 4 -333 l-17 -27 -22 39 c-17 28 -23 58 -25 109 -1 39 -6 87 -11 108 -7
31 -4 47 13 83 12 24 24 44 27 44 3 0 17 -10 31 -23z m-180 -84 c37 -41 48
-73 55 -165 4 -50 15 -101 27 -127 16 -35 18 -47 8 -60 -6 -9 -14 -24 -17 -33
-4 -10 -16 -20 -27 -24 -34 -11 -137 -5 -166 10 -14 7 -31 11 -37 9 -12 -4
-27 34 -15 39 10 4 47 119 62 193 7 33 24 78 37 99 13 22 25 50 26 63 1 30 17
29 47 -4z m981 -79 c4 -16 15 -58 24 -94 9 -36 19 -72 22 -80 3 -8 7 -26 8
-40 5 -40 12 -81 24 -145 18 -89 15 -431 -4 -463 -4 -7 -11 -60 -21 -152 -16
-144 -19 -164 -34 -203 -6 -16 -9 -32 -6 -37 3 -5 1 -11 -4 -14 -5 -4 -12 -25
-16 -49 -4 -23 -10 -46 -13 -52 -4 -5 -8 -21 -9 -35 -5 -41 -44 -138 -62 -154
-17 -16 -34 -15 -196 15 -96 17 -99 21 -86 122 14 111 5 655 -13 792 -14 104
-19 174 -21 290 -1 71 -5 155 -10 187 -7 55 -7 56 22 71 16 9 47 19 68 22 22
4 45 11 50 15 6 4 26 11 45 15 19 4 55 18 80 30 43 22 45 22 94 5 41 -14 52
-22 58 -46z m-488 -170 c2 -16 6 -36 9 -44 3 -8 6 -31 6 -50 -1 -95 4 -266 8
-273 2 -4 6 -38 8 -76 4 -59 2 -71 -16 -86 -38 -35 -229 -26 -215 10 2 7 0 17
-4 21 -5 5 6 70 26 154 25 105 47 168 79 229 36 68 42 88 33 100 -10 13 -10
14 2 4 11 -10 17 -7 32 18 22 35 26 34 32 -7z m950 -339 c-11 -60 -131 -232
-149 -214 -7 7 13 80 32 114 55 102 129 165 117 100z m-287 -193 c2 -20 5 -47
8 -59 4 -18 1 -23 -14 -23 -24 0 -31 37 -17 93 10 45 18 41 23 -11z m443 26
c0 -6 -12 -24 -26 -41 -20 -24 -51 -40 -138 -69 -61 -21 -113 -38 -116 -38
-13 0 85 80 134 110 88 54 146 69 146 38z m-393 -205 c0 -10 6 -58 13 -108 13
-91 17 -163 25 -450 6 -187 14 -394 19 -447 2 -21 -1 -38 -6 -38 -4 0 -7 -3
-7 -7 3 -21 -2 -33 -15 -33 -8 0 -16 -5 -18 -10 -2 -7 -15 -7 -38 0 -19 6 -64
11 -100 11 -36 -1 -80 2 -98 5 l-32 6 6 122 c10 193 10 231 1 237 -5 4 7 49
27 102 20 53 36 104 36 114 0 10 9 43 20 73 18 48 72 316 69 337 -1 4 -1 29 0
56 l1 47 48 0 c38 0 48 -3 49 -17z m-691 -562 c-16 -72 -18 -103 -4 -112 11
-7 -51 -69 -71 -69 -5 0 -17 -7 -26 -16 -17 -18 -22 -17 -26 6 -4 23 49 186
65 199 8 7 27 38 42 69 l28 57 4 -34 c2 -19 -3 -64 -12 -100z m215 -151 c30
-5 71 -12 91 -14 47 -6 58 -12 58 -37 0 -10 4 -19 9 -19 11 0 5 -164 -10 -300
-6 -52 -12 -106 -12 -120 -3 -46 -46 -48 -47 -2 0 6 -3 12 -8 12 -4 0 -5 21
-3 46 2 32 -1 49 -10 55 -12 7 -12 9 -1 9 10 0 13 12 9 45 -2 25 -1 45 3 45
12 0 19 84 9 97 -6 7 -8 21 -4 33 5 16 2 20 -17 20 -13 0 -28 -4 -35 -8 -14
-9 -66 -229 -57 -244 6 -9 -22 -122 -35 -144 -16 -26 -7 100 15 205 19 88 20
131 4 141 -20 12 -49 -1 -55 -24 -9 -32 -58 -131 -67 -134 -4 -2 -8 -12 -8
-23 0 -10 -4 -19 -8 -19 -4 0 -16 -20 -26 -45 -11 -25 -22 -45 -26 -45 -13 0
6 62 30 105 13 22 37 67 53 100 78 161 76 157 65 181 -14 31 -42 30 -79 -1
-16 -13 -36 -22 -43 -19 -7 3 -16 -2 -19 -10 -7 -16 -81 -56 -106 -56 -24 0
35 54 130 120 90 62 108 67 200 50z m-201 -208 c0 -10 -9 -28 -20 -40 -11 -12
-20 -25 -20 -30 0 -5 -9 -31 -21 -57 -19 -44 -22 -46 -39 -30 -18 16 -29 15
-180 -11 -30 -5 -277 -16 -305 -14 -50 5 -208 -10 -215 -20 -10 -13 -69 -29
-75 -20 -10 17 7 131 19 127 6 -2 26 4 43 14 30 17 144 42 183 41 8 -1 67 4
130 10 175 16 241 15 278 -3 46 -22 132 -9 175 25 38 30 47 32 47 8z m610
-253 c124 -20 144 -41 53 -55 -32 -5 -76 -6 -98 -2 -22 5 -71 8 -110 8 -55 0
-67 2 -57 12 7 7 12 19 12 28 0 20 98 25 200 9z m-725 -24 c0 -5 -18 -10 -40
-11 -71 -3 -154 -13 -187 -21 -32 -8 -124 -8 -283 2 -44 2 -109 5 -145 5 -52
0 -61 3 -46 12 10 6 42 14 70 17 79 11 631 8 631 -4z m345 -60 c0 -8 -4 -15
-10 -15 -5 0 -10 7 -10 15 0 8 5 15 10 15 6 0 10 -7 10 -15z"/>
<path d="M1372 4618 c-16 -16 -15 -48 2 -70 17 -23 25 -23 60 5 27 22 27 24
12 40 -9 9 -16 20 -16 24 1 14 -44 15 -58 1z"/>
<path d="M1570 4578 c-26 -40 -28 -52 -7 -70 24 -21 20 -21 52 -6 30 14 34 57
7 81 -25 22 -34 21 -52 -5z"/>
<path d="M1805 4446 c-10 -14 -13 -34 -10 -48 13 -52 95 -22 95 34 0 10 -5 18
-11 18 -5 0 -7 5 -4 10 4 6 -6 10 -24 10 -21 0 -35 -7 -46 -24z"/>
<path d="M1648 4443 c-25 -6 -31 -39 -12 -68 31 -48 76 -20 66 43 -4 32 -13
36 -54 25z"/>
<path d="M1440 4434 c-8 -3 -20 -16 -26 -29 -10 -21 -9 -26 12 -40 34 -22 53
-19 65 11 18 49 -1 71 -51 58z"/>
<path d="M1693 4232 c-27 -21 -38 -78 -16 -86 8 -3 30 -6 49 -6 l34 0 0 49 c0
35 -4 51 -16 55 -22 9 -26 8 -51 -12z"/>
<path d="M1461 4204 c-11 -15 -21 -30 -21 -34 0 -13 26 -30 49 -32 18 -2 26 5
38 35 18 43 17 43 -18 52 -21 5 -31 1 -48 -21z"/>
<path d="M1883 4222 c-6 -4 -16 -20 -22 -34 -9 -24 -7 -30 18 -47 37 -27 59
-11 63 44 3 36 1 40 -22 43 -14 1 -30 -1 -37 -6z"/>
<path d="M1447 4008 c-13 -13 -17 -28 -13 -44 5 -20 12 -24 46 -24 43 0 57 20
46 66 -8 30 -52 32 -79 2z"/>
<path d="M1690 4023 c-34 -13 -40 -53 -11 -84 26 -28 57 -18 63 22 3 16 -2 38
-9 49 -15 21 -19 22 -43 13z"/>
<path d="M1916 4015 c-25 -19 -28 -67 -5 -83 15 -11 24 -10 48 3 27 14 29 17
20 47 -5 18 -9 33 -9 34 0 9 -41 8 -54 -1z"/>
<path d="M1902 3782 c-22 -17 -22 -19 -7 -50 28 -56 89 -33 83 30 -2 27 -8 33
-28 36 -14 1 -35 -6 -48 -16z"/>
<path d="M1442 3776 c-34 -19 -35 -22 -18 -54 11 -21 23 -29 41 -29 29 0 35 6
42 49 7 45 -19 59 -65 34z"/>
<path d="M1670 3773 c-20 -8 -30 -24 -30 -50 0 -24 29 -38 59 -28 19 6 36 58
25 76 -6 10 -31 11 -54 2z"/>
<path d="M1425 3625 c-17 -14 -30 -36 -32 -53 -3 -26 0 -30 28 -36 35 -7 61 7
53 29 -3 7 -1 22 4 32 7 12 7 25 1 36 -13 22 -18 21 -54 -8z"/>
<path d="M1646 3611 c-23 -25 -15 -66 14 -74 28 -7 49 17 47 55 -2 40 -33 50
-61 19z"/>
<path d="M1915 3600 c-3 -5 -15 -10 -26 -10 -19 0 -24 -14 -20 -55 2 -23 18
-35 48 -35 26 0 28 4 37 52 6 31 3 39 -13 47 -13 7 -22 8 -26 1z"/>
<path d="M919 4506 c-1 -2 -8 -29 -15 -57 -6 -27 16 -59 39 -59 26 1 47 29 50
66 2 37 1 38 -35 45 -21 3 -38 5 -39 5z"/>
</g>
</svg>
