<?xml version="1.0" standalone="no"?>
<!DOCTYPE svg PUBLIC "-//W3C//DTD SVG 20010904//EN"
 "http://www.w3.org/TR/2001/REC-SVG-20010904/DTD/svg10.dtd">
<svg version="1.0" xmlns="http://www.w3.org/2000/svg"
 width="543.000000pt" height="503.000000pt" viewBox="0 0 543.000000 503.000000"
 preserveAspectRatio="xMidYMid meet">
<metadata>
Created by potrace 1.16, written by Peter Selinger 2001-2019
</metadata>
<g transform="translate(0.000000,503.000000) scale(0.100000,-0.100000)"
fill="#000000" stroke="none">
<path d="M1857 5024 c-9 -9 5 -38 26 -53 11 -8 17 -21 14 -32 -3 -11 -1 -19 4
-19 5 0 9 -7 9 -15 0 -8 4 -15 9 -15 5 0 16 -3 24 -6 10 -3 18 3 23 18 13 39
14 52 5 73 -5 11 -12 28 -15 38 -4 13 -16 17 -49 17 -24 0 -46 -3 -50 -6z"/>
<path d="M2085 4975 c6 -71 20 -97 48 -93 12 2 21 6 20 10 -1 4 3 27 10 50 7
24 11 53 9 66 -3 19 -9 22 -48 22 l-45 0 6 -55z"/>
<path d="M2286 4971 c-9 -10 -16 -31 -14 -47 1 -16 -6 -41 -16 -56 -14 -21
-15 -31 -6 -47 6 -12 14 -21 18 -21 10 1 58 29 50 30 -4 0 4 16 17 36 29 43
34 108 9 118 -26 10 -40 7 -58 -13z"/>
<path d="M1680 4967 c-22 -17 -26 -67 -6 -67 9 0 16 -6 16 -14 0 -21 40 -66
58 -66 9 0 24 5 32 10 13 8 13 13 -3 39 -9 16 -17 40 -17 53 0 24 -31 58 -53
58 -6 0 -19 -6 -27 -13z"/>
<path d="M2426 4866 c-9 -14 -16 -34 -16 -44 0 -10 -9 -27 -21 -38 -40 -36
-48 -84 -13 -84 8 0 14 -5 14 -10 0 -18 89 89 96 114 3 13 4 37 2 52 -4 39
-39 44 -62 10z"/>
<path d="M1502 4809 c-19 -30 -14 -52 20 -81 33 -28 50 -26 77 5 16 20 4 68
-15 60 -8 -3 -14 -1 -14 5 0 6 -13 14 -28 20 -24 8 -31 7 -40 -9z"/>
<path d="M2566 4668 c-10 -6 -23 -11 -29 -13 -60 -15 -79 -37 -66 -73 8 -20
13 -22 46 -16 21 4 40 11 41 15 2 5 10 9 17 9 7 0 20 11 29 24 25 40 0 75 -38
54z"/>
<path d="M1370 4638 c-25 -27 -22 -39 16 -58 16 -8 30 -18 32 -21 5 -11 54 3
59 18 3 8 -4 23 -16 34 -11 11 -21 26 -21 34 0 23 -46 18 -70 -7z"/>
<path d="M2610 4493 c-32 -6 -60 -31 -60 -54 0 -12 11 -19 39 -24 32 -5 43 -2
65 18 49 46 30 73 -44 60z"/>
<path d="M1324 4474 c-39 -16 -51 -42 -27 -60 10 -7 25 -14 33 -15 8 0 29 -2
45 -4 64 -6 75 42 18 72 -33 17 -42 18 -69 7z"/>
<path d="M1993 4325 c-17 -12 -21 -23 -18 -50 3 -21 1 -35 -6 -35 -6 0 -7 -5
-2 -12 4 -7 8 -22 8 -33 0 -33 39 -31 55 2 7 15 13 31 12 36 -1 4 3 7 8 7 14
0 12 74 -2 88 -16 16 -29 15 -55 -3z"/>
<path d="M2202 4328 c-21 -11 -22 -16 -17 -72 8 -78 11 -86 30 -86 33 0 55 41
61 110 4 56 -22 73 -74 48z"/>
<path d="M1747 4315 c-17 -12 -18 -18 -6 -69 6 -31 21 -65 32 -76 18 -20 20
-21 38 -4 17 15 19 26 13 78 -9 78 -36 103 -77 71z"/>
<path d="M2616 4315 c-14 -15 -14 -19 6 -46 13 -17 24 -26 26 -21 1 5 13 7 25
5 13 -3 32 4 44 15 20 16 21 21 8 38 -18 26 -86 31 -109 9z"/>
<path d="M1285 4303 c-83 -11 -117 -54 -52 -67 70 -15 119 -7 135 23 26 50 14
57 -83 44z"/>
<path d="M1526 4254 c-25 -25 -18 -84 10 -84 8 0 15 -4 15 -10 1 -5 3 -14 4
-20 1 -5 3 -16 4 -23 2 -20 52 -19 71 1 14 15 15 20 3 30 -7 7 -13 23 -13 36
0 13 -7 29 -15 36 -8 7 -15 18 -15 25 0 12 -21 25 -40 25 -5 0 -16 -7 -24 -16z"/>
<path d="M2452 4240 c-18 -16 -36 -30 -42 -30 -5 0 -17 -11 -26 -25 -15 -23
-15 -27 0 -50 15 -22 20 -24 39 -14 54 29 112 105 101 133 -9 25 -38 19 -72
-14z"/>
<path d="M2656 4203 c-3 -4 -16 -8 -27 -10 -51 -8 -83 -56 -61 -90 9 -14 47
-10 68 8 8 6 21 9 29 5 10 -3 20 5 31 25 8 17 14 32 12 33 -2 0 -12 9 -24 19
-11 9 -24 14 -28 10z"/>
<path d="M1267 4150 c-23 -18 -25 -24 -14 -41 6 -10 25 -26 42 -34 16 -9 38
-21 47 -28 15 -10 22 -7 44 14 21 22 24 30 16 45 -6 11 -14 18 -19 18 -11 -2
-44 13 -69 31 -19 14 -23 14 -47 -5z"/>
<path d="M1064 4112 c-6 -4 -16 -17 -22 -29 -10 -17 -9 -25 4 -37 8 -9 21 -16
28 -16 7 0 18 -11 26 -24 27 -52 120 -60 120 -11 0 18 -7 26 -25 31 -14 3 -38
23 -53 43 -30 40 -42 51 -57 51 -5 0 -15 -4 -21 -8z"/>
<path d="M2845 4094 c-27 -14 -57 -23 -66 -21 -34 9 -76 -71 -48 -89 21 -13
73 -5 86 13 7 9 16 14 19 10 8 -8 34 18 34 33 0 7 8 9 19 5 42 -13 70 32 39
63 -17 17 -29 15 -83 -14z"/>
<path d="M1887 4003 c-12 -7 -40 -12 -62 -12 -22 0 -74 -7 -115 -16 -41 -9
-83 -17 -92 -18 -10 0 -18 -4 -18 -8 0 -3 -19 -12 -42 -19 -24 -8 -50 -20 -59
-27 -8 -7 -23 -13 -31 -13 -9 0 -18 -3 -20 -7 -1 -5 -24 -18 -50 -31 -58 -28
-140 -95 -150 -122 -4 -11 -10 -42 -14 -68 -3 -26 -12 -70 -20 -98 -20 -69
-26 -345 -9 -393 6 -20 10 -41 8 -48 -5 -15 35 -205 45 -213 4 -3 18 -30 32
-60 13 -30 33 -67 43 -81 23 -32 27 -107 7 -119 -8 -6 -23 -10 -33 -10 -10 0
-32 -7 -50 -16 -21 -11 -32 -13 -35 -6 -2 7 -10 8 -20 3 -27 -14 -92 -30 -166
-41 -38 -6 -83 -17 -100 -24 -17 -7 -56 -19 -86 -26 -30 -7 -64 -19 -75 -26
-11 -8 -27 -14 -37 -14 -10 0 -18 -5 -18 -11 0 -5 -5 -7 -10 -4 -6 4 -18 1
-26 -6 -8 -6 -17 -9 -20 -6 -4 3 -13 0 -21 -8 -13 -14 -47 -20 -80 -16 -7 1
-13 -2 -13 -8 0 -5 -18 -29 -40 -53 -22 -24 -46 -50 -53 -58 -7 -8 -19 -34
-26 -58 -7 -24 -18 -45 -25 -48 -8 -3 -11 -16 -8 -34 2 -17 0 -36 -6 -43 -5
-6 -10 -50 -11 -95 -1 -46 -4 -89 -7 -95 -16 -45 -35 -267 -35 -407 0 -91 0
-229 0 -307 1 -144 -15 -428 -24 -443 -2 -4 -7 -29 -10 -56 -4 -26 -8 -51 -11
-55 -2 -4 -7 -34 -10 -66 -3 -32 -11 -82 -19 -111 -7 -28 -11 -52 -8 -52 2 0
-2 -9 -9 -19 -18 -25 -5 -197 17 -244 24 -51 131 -99 222 -99 49 0 79 5 104
18 28 15 64 19 209 22 96 3 186 5 200 4 14 0 97 -1 185 -2 89 -1 174 3 193 8
18 6 94 9 170 8 139 -3 220 8 289 40 35 16 139 19 148 4 3 -5 11 -7 18 -5 7 3
34 -1 61 -8 l49 -13 -41 -44 c-48 -50 -51 -68 -19 -98 21 -20 34 -22 129 -22
81 0 110 4 122 15 8 8 21 15 28 15 22 1 86 64 93 93 7 25 10 26 49 21 58 -8
52 -9 145 25 46 17 108 49 138 71 29 22 59 43 65 45 25 10 61 74 56 100 -4 19
2 31 28 53 29 25 65 103 77 169 2 10 9 37 15 60 17 57 4 86 -48 107 l-41 16
19 28 c11 15 39 46 63 68 55 52 74 74 131 149 25 33 63 76 84 96 51 47 109
121 147 187 16 30 35 56 42 58 7 3 22 27 35 55 13 27 30 49 37 49 7 0 18 10
23 23 21 49 66 102 74 88 11 -17 68 -21 99 -6 63 29 84 47 109 95 22 42 51 79
59 75 4 -3 10 6 13 20 3 13 23 44 44 68 20 24 42 52 47 62 10 16 13 16 53 -5
23 -12 42 -26 42 -30 0 -22 124 -35 195 -20 42 9 64 21 104 58 28 26 51 50 51
54 0 4 44 51 97 106 54 54 109 118 123 140 14 23 33 44 43 47 9 4 17 10 17 15
0 5 11 21 25 36 14 15 25 32 25 38 0 6 21 30 45 54 25 24 45 47 45 50 0 4 9
13 20 20 11 7 20 19 20 27 0 7 8 20 18 27 9 7 26 29 37 50 39 70 117 193 126
196 5 2 7 8 3 13 -3 5 -1 9 4 9 6 0 23 20 39 45 15 25 31 45 35 45 3 0 9 12
12 28 4 15 20 41 36 59 16 17 32 43 36 57 3 14 9 26 13 26 4 0 18 24 30 53 12
28 27 62 33 73 15 32 6 57 -24 65 -15 4 -29 4 -32 1 -4 -3 -22 -7 -42 -9 -37
-4 -89 -35 -77 -47 3 -3 -1 -6 -10 -6 -9 0 -17 -4 -17 -8 0 -5 -8 -18 -17 -30
-10 -11 -34 -43 -53 -71 -19 -28 -40 -50 -46 -51 -17 0 -114 -97 -114 -113 0
-7 -23 -37 -51 -67 -28 -30 -57 -66 -64 -80 -7 -14 -26 -35 -40 -46 -63 -44
-87 -68 -111 -110 -14 -24 -33 -44 -41 -44 -26 0 -105 -64 -173 -141 -109
-122 -139 -151 -152 -146 -20 6 -10 48 23 92 16 22 35 54 43 70 7 17 26 41 41
55 15 14 47 55 71 92 24 36 47 68 52 70 12 4 102 138 102 151 0 12 111 191
122 195 4 2 8 11 8 19 0 9 17 36 37 61 42 51 153 263 153 292 0 10 5 22 10 25
13 8 13 81 0 105 -15 28 -65 24 -79 -6 -6 -13 -15 -24 -21 -24 -5 0 -10 -6
-10 -13 0 -8 -9 -25 -21 -38 -11 -13 -42 -49 -69 -79 -27 -31 -71 -88 -98
-128 -27 -40 -83 -109 -123 -153 -41 -43 -76 -85 -79 -93 -3 -8 -26 -36 -52
-63 -25 -27 -65 -81 -88 -119 -24 -38 -61 -88 -84 -111 -23 -23 -53 -56 -66
-74 -38 -50 -141 -159 -151 -159 -5 0 -18 9 -29 20 -31 31 -17 67 61 160 21
25 45 61 53 80 8 19 25 46 38 60 13 14 29 37 35 53 7 15 17 27 23 27 5 0 10 6
10 14 0 8 8 21 19 28 10 7 47 56 81 108 35 52 69 100 75 105 16 13 105 143
105 152 0 4 9 16 19 27 11 12 36 53 56 91 20 39 44 78 53 87 66 69 107 136
110 181 l4 37 -41 0 c-29 0 -41 -4 -41 -14 0 -8 -4 -16 -8 -18 -4 -1 -32 -33
-62 -70 -29 -38 -57 -68 -62 -68 -4 0 -8 -5 -8 -11 0 -43 -521 -575 -576 -587
-8 -2 -12 -8 -9 -13 4 -5 2 -9 -2 -9 -5 0 -29 -18 -53 -40 -25 -22 -48 -40
-52 -40 -10 0 39 84 67 114 14 15 25 31 25 37 0 5 4 9 8 9 10 0 62 99 62 118
0 6 4 12 9 12 5 0 11 10 15 23 3 12 21 40 41 62 19 22 43 56 52 75 10 19 38
64 64 100 31 43 48 79 52 106 4 35 33 93 58 114 3 3 16 31 28 63 13 32 32 63
42 71 32 22 48 65 37 97 -5 16 -7 36 -4 44 8 21 -31 54 -56 47 -11 -2 -22 -12
-25 -21 -3 -9 -17 -27 -32 -41 -14 -14 -30 -33 -36 -42 -26 -41 -88 -126 -115
-158 -16 -19 -33 -39 -38 -45 -71 -92 -198 -248 -217 -269 -33 -34 -188 -241
-257 -341 -23 -33 -45 -61 -50 -63 -4 -2 -8 -8 -8 -14 0 -6 -15 -36 -34 -67
-53 -88 -106 -191 -106 -207 0 -8 -6 -17 -13 -20 -16 -6 -19 -20 -18 -97 0
-38 5 -63 16 -73 8 -8 15 -22 15 -30 0 -8 5 -14 10 -14 6 0 10 -5 10 -10 0 -6
12 -24 28 -41 81 -88 105 -110 142 -129 26 -14 38 -25 33 -33 -8 -14 -78 -103
-126 -160 -43 -52 -60 -109 -41 -134 16 -21 18 -63 3 -63 -5 0 -8 -4 -4 -9 3
-5 -4 -12 -15 -16 -11 -3 -20 -12 -20 -19 0 -7 -20 -34 -43 -60 -24 -26 -50
-58 -58 -72 -7 -14 -25 -38 -40 -52 -14 -15 -57 -65 -94 -112 -38 -47 -84 -99
-102 -117 -18 -17 -33 -35 -33 -40 0 -4 -23 -33 -50 -63 -27 -30 -53 -64 -56
-75 -7 -20 -67 -97 -114 -146 -14 -14 -37 -48 -52 -75 -29 -54 -45 -65 -55
-37 -3 10 -11 21 -16 24 -5 4 -75 5 -156 4 -146 -4 -226 -17 -286 -49 -16 -9
-38 -16 -47 -16 -10 0 -18 -4 -18 -8 0 -5 -30 -19 -67 -32 -38 -13 -74 -27
-80 -33 -7 -5 -33 -6 -60 -2 -27 4 -138 9 -248 10 -181 4 -209 7 -295 31 -52
15 -120 32 -150 38 -77 16 -95 28 -81 54 25 47 7 91 -39 95 -20 1 -21 5 -15
41 3 22 10 45 16 52 16 19 31 122 32 225 1 114 -1 112 96 104 34 -2 72 0 85 5
17 6 28 4 39 -7 13 -14 19 -14 32 -3 13 11 18 10 28 -2 7 -9 27 -22 45 -29 17
-8 32 -16 32 -19 0 -3 21 -4 46 -3 26 0 58 -3 73 -7 14 -5 71 -16 126 -25 55
-10 114 -21 131 -26 20 -6 61 -5 115 2 46 6 117 13 158 14 40 2 78 8 84 14 6
6 17 11 24 11 12 0 36 17 68 47 14 14 9 53 -9 65 -15 10 -66 10 -66 0 0 -10
-60 -45 -66 -39 -3 3 -31 -1 -62 -8 -31 -8 -84 -16 -118 -19 -33 -3 -68 -8
-77 -11 -9 -4 -22 -3 -29 1 -15 10 -24 11 -93 20 -40 5 -244 50 -316 70 -12 3
-15 25 -17 119 -2 100 -5 118 -22 135 -21 21 -22 24 -25 80 -1 19 -5 58 -10
85 -5 28 -8 66 -8 85 1 19 -5 62 -12 95 -7 33 -16 78 -19 100 -3 22 -12 54
-21 72 -15 30 -19 42 -31 102 -3 13 -12 40 -20 59 -8 19 -12 37 -10 40 3 2 -2
11 -10 19 -21 22 -14 33 31 49 71 24 76 22 75 -43 -1 -32 2 -83 6 -115 5 -49
12 -61 48 -95 76 -71 260 -150 356 -152 36 -1 90 -3 120 -5 30 -3 72 2 95 9
22 8 72 19 110 26 39 6 73 16 76 21 3 5 13 10 21 12 21 3 98 56 98 67 0 5 6 9
14 9 8 0 17 11 20 25 4 14 11 25 18 25 15 0 80 73 118 131 20 30 33 66 37 98
5 42 9 51 22 46 9 -4 35 -12 59 -18 40 -11 42 -13 37 -42 -4 -16 -8 -59 -10
-95 -3 -36 -6 -76 -9 -90 -10 -63 -36 -261 -41 -315 -12 -137 -52 -264 -83
-266 -72 -3 -130 -29 -136 -62 -2 -12 -9 -49 -16 -82 -24 -119 -24 -126 -1
-132 11 -3 21 -8 21 -12 0 -6 47 -6 60 0 22 9 217 15 226 6 9 -9 44 -188 44
-228 0 -62 15 -89 50 -89 23 0 31 5 36 24 8 34 -1 135 -21 228 -4 14 -1 29 4
33 17 10 13 22 -9 28 -15 4 -20 14 -20 40 0 19 7 40 15 47 8 7 13 15 10 19 -2
4 2 18 8 32 17 32 7 84 -15 84 -25 0 -31 11 -19 34 7 11 12 38 13 58 0 21 4
43 8 48 4 6 13 66 20 135 7 69 18 146 26 173 7 26 11 47 9 47 -3 0 0 12 6 27
5 14 10 47 10 72 1 25 8 72 16 104 13 53 19 87 22 129 1 14 14 16 91 16 49 0
92 -3 95 -8 2 -4 16 -5 30 -2 14 2 36 -3 50 -12 14 -9 25 -13 25 -9 0 5 4 2 8
-4 13 -20 49 12 54 47 4 27 0 34 -26 48 -17 9 -39 15 -48 13 -10 -1 -18 2 -18
8 0 7 -39 10 -112 9 -123 -2 -263 8 -282 20 -6 4 -36 7 -66 8 -62 1 -96 8
-116 24 -7 7 -17 9 -22 6 -6 -3 -12 3 -15 14 -3 11 -12 20 -21 20 -13 0 -10
10 12 53 43 80 81 186 105 294 24 107 28 238 14 450 -7 109 -12 149 -31 242
-13 58 -40 127 -58 144 -22 22 -84 50 -116 53 -13 2 -30 8 -37 14 -20 17 -439
19 -468 3z m223 -93 c0 -5 -7 -7 -15 -4 -8 4 -15 8 -15 10 0 2 7 4 15 4 8 0
15 -4 15 -10z m-260 -14 c0 -2 -9 -6 -20 -9 -11 -3 -20 -1 -20 4 0 5 9 9 20 9
11 0 20 -2 20 -4z m130 -25 c0 -5 9 -12 19 -16 11 -3 35 -16 54 -29 38 -26 77
-39 247 -85 78 -21 127 -29 152 -25 43 7 56 -9 56 -71 0 -22 3 -61 6 -86 12
-94 14 -345 4 -389 -41 -177 -108 -327 -176 -397 -91 -92 -116 -109 -197 -136
-132 -43 -214 -60 -290 -61 -162 -2 -233 19 -295 88 -19 22 -51 56 -70 75
-136 139 -181 235 -206 436 -14 105 -8 294 10 376 l17 77 42 6 c23 3 50 7 60
8 9 1 17 6 17 10 0 4 9 8 20 8 10 0 39 6 62 14 24 7 73 21 110 31 36 9 90 32
119 51 29 18 69 39 88 45 20 6 51 27 70 45 32 32 81 46 81 25z m-405 -31 c-3
-5 -11 -10 -16 -10 -6 0 -7 5 -4 10 3 6 11 10 16 10 6 0 7 -4 4 -10z m2545
-214 c0 -2 -8 -10 -17 -17 -16 -13 -17 -12 -4 4 13 16 21 21 21 13z m-47 -75
c-17 -10 -33 -48 -33 -76 0 -15 -17 -49 -40 -80 -22 -30 -46 -67 -52 -82 -7
-15 -15 -30 -18 -33 -6 -5 -61 -81 -92 -129 -20 -29 -39 -72 -37 -84 1 -10
-48 -76 -73 -98 -10 -9 -18 -21 -18 -26 0 -5 -8 -18 -17 -29 -10 -10 -31 -44
-47 -74 -16 -30 -35 -62 -41 -70 -7 -8 -29 -45 -49 -82 -30 -55 -34 -71 -26
-92 11 -29 57 -37 66 -11 4 8 14 15 23 15 9 0 27 15 41 33 36 46 84 90 117
107 15 8 70 57 121 108 51 50 98 92 104 92 6 0 43 33 83 73 82 82 104 101 111
95 4 -4 -50 -85 -65 -98 -3 -3 -13 -18 -20 -33 -8 -15 -32 -46 -53 -69 -21
-23 -38 -44 -38 -46 0 -3 -6 -13 -14 -21 -8 -9 -30 -46 -50 -82 -34 -65 -78
-119 -96 -119 -5 0 -12 -11 -16 -25 -3 -14 -9 -25 -13 -25 -8 0 -31 -42 -41
-75 -13 -41 37 -144 62 -129 4 3 8 -1 8 -9 0 -13 62 -43 84 -41 34 5 56 18 56
36 0 22 27 60 88 126 66 71 192 229 192 241 0 5 9 16 20 24 11 8 18 16 15 18
-2 3 16 27 40 54 25 28 45 55 45 61 0 5 27 36 60 68 32 32 69 73 80 92 12 19
25 34 28 34 4 0 13 13 20 30 8 16 36 53 63 82 27 29 51 61 55 71 3 9 10 17 15
17 18 0 -57 -150 -84 -167 -6 -4 -21 -26 -32 -47 -11 -22 -24 -44 -30 -51 -21
-22 -52 -71 -74 -115 -12 -25 -26 -52 -31 -60 -6 -8 -14 -26 -20 -40 -14 -35
-31 -61 -60 -90 -14 -14 -36 -42 -50 -63 -14 -20 -29 -37 -33 -37 -5 0 -6 -4
-3 -9 3 -4 -9 -23 -27 -42 -45 -46 -94 -111 -107 -140 -5 -13 -19 -35 -30 -49
-23 -29 -33 -61 -33 -109 0 -26 7 -40 39 -66 21 -18 42 -31 46 -29 4 3 11 -3
16 -12 13 -24 49 -12 95 31 21 19 40 35 42 35 5 0 145 146 164 171 9 11 32 35
51 52 33 31 158 151 190 184 61 62 140 158 140 169 0 8 3 14 8 14 4 0 18 17
32 38 14 20 56 69 95 107 40 40 59 55 45 35 -14 -19 -36 -54 -48 -78 -13 -23
-37 -57 -53 -74 -16 -18 -29 -36 -29 -40 0 -4 -20 -39 -45 -77 -25 -38 -45
-74 -45 -80 0 -6 -3 -11 -7 -11 -5 0 -16 -12 -25 -28 -38 -61 -85 -123 -104
-137 -12 -7 -36 -38 -55 -69 -19 -30 -45 -62 -59 -71 -14 -9 -36 -35 -50 -56
-13 -21 -28 -39 -32 -39 -4 0 -8 -5 -8 -11 0 -5 -18 -29 -40 -52 -225 -238
-249 -258 -304 -252 -62 7 -121 32 -162 68 -43 37 -45 38 -80 25 -27 -9 -40
-23 -55 -56 -11 -24 -23 -41 -27 -38 -3 4 -12 -8 -19 -25 -8 -19 -17 -28 -24
-23 -7 4 -9 3 -6 -3 8 -12 -76 -133 -125 -180 -42 -42 -59 -43 -52 -4 4 17 0
41 -9 58 -8 15 -20 40 -27 56 -8 15 -18 27 -24 27 -6 0 -35 22 -64 48 l-54 49
29 34 c15 19 34 40 41 48 7 7 22 31 33 52 10 21 23 39 28 39 9 0 29 40 41 81
13 42 -13 81 -70 107 -28 13 -50 27 -50 32 0 6 -7 10 -15 10 -8 0 -15 5 -15
12 0 6 -16 26 -36 45 -22 20 -34 38 -30 48 3 9 -3 19 -14 25 -28 15 -33 44
-15 95 16 50 112 237 125 245 4 3 11 16 15 30 4 14 15 34 24 45 9 11 27 36 41
55 13 19 28 40 32 45 5 6 31 42 59 80 27 39 61 84 74 100 13 17 43 54 67 84
24 29 69 88 101 130 32 42 66 83 75 92 9 9 35 40 57 68 22 28 42 46 44 40 2
-6 -1 -14 -6 -18z m207 -350 c0 -5 -7 -12 -16 -15 -14 -5 -15 -4 -4 9 14 17
20 19 20 6z m-1876 -538 c14 -52 16 -82 6 -109 -19 -49 -76 -128 -111 -153
-19 -14 -37 -30 -42 -37 -25 -42 -174 -109 -230 -103 -12 1 -38 -5 -57 -14
-19 -8 -50 -13 -70 -11 -19 2 -57 4 -83 5 -64 1 -179 30 -249 63 -58 26 -120
88 -117 116 1 8 -1 22 -5 32 -4 9 -5 42 -1 75 3 32 6 71 5 86 l0 28 32 -38
c50 -57 56 -63 67 -63 6 0 11 -4 11 -10 0 -5 6 -10 14 -10 8 0 22 -7 30 -16 9
-8 16 -13 16 -11 0 3 19 -1 43 -8 83 -25 317 -11 402 24 36 15 150 53 172 58
13 3 43 23 67 44 24 22 49 39 54 39 5 0 12 7 16 15 7 20 24 19 30 -2z m51 -33
c3 -5 2 -10 -4 -10 -5 0 -13 5 -16 10 -3 6 -2 10 4 10 5 0 13 -4 16 -10z m296
-67 c0 -10 2 -27 4 -37 2 -11 -1 -43 -6 -70 -13 -61 -16 -83 -24 -160 -3 -33
-10 -65 -16 -72 -6 -7 -8 -18 -5 -23 4 -6 0 -27 -9 -48 -9 -21 -18 -69 -21
-108 -6 -107 -13 -155 -28 -214 -8 -29 -16 -55 -18 -56 -2 -2 -14 5 -28 15
-22 17 -23 20 -11 47 8 15 15 42 16 58 2 17 10 66 19 110 8 44 17 105 20 135
13 140 17 177 26 203 5 16 12 59 15 95 8 91 12 108 31 126 20 21 34 20 35 -1z
m-1572 -107 c17 -30 33 -65 35 -78 11 -51 25 -95 39 -128 8 -19 18 -57 22 -85
4 -27 9 -59 12 -70 2 -11 6 -58 9 -105 3 -47 8 -86 12 -87 4 -2 5 -25 4 -52
-4 -53 -15 -62 -89 -75 -27 -4 -33 -2 -34 12 -5 61 7 312 15 319 3 3 -2 22 -9
44 -8 21 -12 39 -8 39 3 0 0 6 -6 13 -6 8 -8 17 -4 20 3 4 2 7 -4 7 -6 0 -14
12 -18 28 -3 15 -13 41 -20 57 -7 17 -26 64 -43 105 -32 82 -30 88 30 89 22 1
31 -8 57 -53z m-183 -23 c10 -27 18 -51 19 -55 0 -3 3 -10 8 -14 4 -4 7 -18 7
-31 0 -12 4 -23 9 -23 5 0 19 -33 31 -72 12 -40 27 -84 32 -98 10 -25 11 -110
3 -277 -3 -75 -8 -97 -24 -114 -25 -28 -53 -154 -52 -238 3 -184 -1 -296 -9
-306 -6 -7 -8 -14 -5 -17 3 -3 -2 -22 -12 -44 -19 -44 -18 -43 -31 -106 -11
-54 -51 -113 -93 -137 -16 -9 -29 -21 -29 -27 0 -5 -16 -25 -35 -44 -37 -36
-55 -88 -35 -100 23 -14 55 4 113 63 32 32 61 56 64 53 8 -8 36 32 29 42 -5 9
22 48 28 41 6 -6 -23 -122 -32 -129 -8 -6 -15 -36 -16 -70 -1 -21 4 -26 30
-28 39 -4 48 8 64 86 7 34 15 62 17 62 3 0 19 -6 36 -14 18 -8 55 -19 82 -25
81 -18 86 -20 99 -30 7 -6 32 -12 57 -15 24 -3 80 -10 124 -15 44 -6 147 -11
228 -12 l149 -2 10 -28 c5 -16 14 -27 19 -23 8 4 10 -49 11 -284 0 -62 -32
-132 -61 -132 -5 0 -22 -5 -38 -12 -15 -6 -35 -13 -43 -16 -8 -3 -80 -6 -160
-7 -80 0 -183 -6 -230 -13 -51 -7 -135 -10 -210 -7 -161 7 -137 6 -273 1 -65
-2 -131 -1 -147 4 -15 4 -32 4 -36 0 -5 -5 -36 -13 -68 -19 -33 -6 -62 -15
-65 -20 -3 -5 -26 -11 -51 -14 -36 -4 -57 1 -107 26 -59 28 -62 32 -74 79 -13
56 -8 138 11 183 7 17 12 37 11 47 -1 9 5 57 14 107 8 50 18 116 21 148 3 32
10 83 16 113 6 33 11 217 12 464 1 278 4 410 12 413 5 2 9 16 8 31 -1 15 2 52
7 82 5 30 13 102 19 160 13 150 15 158 36 181 11 12 18 23 16 25 -2 3 9 25 25
49 25 41 47 59 64 52 4 -1 15 5 25 14 29 25 125 70 135 63 5 -3 9 -2 9 3 0 11
44 29 105 44 28 6 54 16 60 20 22 21 43 8 61 -38z m360 -731 c11 -27 14 -141
4 -147 -9 -6 -124 -7 -175 -3 -11 1 -32 -1 -47 -5 -27 -7 -28 -6 -27 30 1 51
12 88 27 88 6 0 21 8 32 18 11 9 43 19 71 22 28 3 58 9 67 14 20 11 38 5 48
-17z m1204 9 c0 -5 12 -14 28 -20 15 -7 37 -20 50 -31 20 -16 21 -22 10 -45
-7 -16 -17 -24 -26 -20 -9 3 -44 8 -79 11 -53 5 -63 4 -63 -10 0 -11 -9 -15
-37 -13 -21 1 -40 5 -41 7 -4 5 6 70 14 102 4 13 19 18 67 21 34 2 65 4 70 5
4 1 7 -2 7 -7z m518 -361 c-7 -10 -14 -17 -17 -15 -4 4 18 35 25 35 2 0 -1 -9
-8 -20z m-520 -494 c31 -8 32 -9 17 -32 -8 -13 -15 -30 -15 -39 0 -14 -42 -22
-75 -15 -83 17 -103 7 -82 -42 8 -19 21 -35 28 -36 97 -8 120 -9 125 -1 3 5
47 9 97 9 51 1 130 1 175 1 46 0 86 -2 89 -5 13 -13 -21 -67 -46 -72 -14 -3
-35 -9 -46 -14 -11 -4 -38 -12 -60 -18 -22 -6 -62 -17 -88 -25 -39 -12 -64
-13 -122 -4 -64 9 -78 8 -100 -7 -61 -40 -13 -75 111 -81 63 -3 95 0 109 9 12
8 39 16 60 19 22 3 62 13 90 21 27 8 51 14 52 12 6 -6 -9 -36 -19 -36 -5 0
-19 -11 -31 -24 -20 -22 -96 -56 -142 -63 -11 -2 -60 3 -109 12 -48 9 -94 14
-102 11 -23 -9 -17 -61 9 -75 41 -22 231 -29 270 -10 22 10 -7 -20 -62 -64
-45 -36 -142 -63 -212 -59 -52 4 -155 8 -284 13 -27 1 -245 40 -245 44 0 2 5
16 11 31 5 16 10 103 10 200 -1 109 3 175 9 179 6 4 8 16 4 27 -4 14 -2 18 5
14 6 -4 11 -2 11 3 0 6 6 11 14 11 8 0 31 8 53 19 21 10 56 24 78 31 21 7 45
19 53 27 7 7 18 11 23 8 5 -4 9 -2 9 3 0 24 247 38 328 18z"/>
<path d="M2091 3614 c-15 -14 -22 -30 -19 -49 2 -24 8 -29 33 -30 17 -1 41 2
54 7 17 6 27 4 35 -6 25 -32 103 5 91 43 -3 12 -11 21 -16 21 -5 0 -9 7 -9 15
0 12 -11 14 -55 11 -30 -2 -55 -1 -55 3 0 15 -37 6 -59 -15z"/>
<path d="M1575 3609 c-27 -5 -64 -11 -82 -13 -41 -5 -52 -12 -64 -43 -9 -25
10 -71 24 -56 4 3 7 1 7 -7 0 -8 4 -9 13 -3 25 19 118 35 166 28 38 -5 52 -3
65 10 17 17 21 52 8 72 -11 17 -78 23 -137 12z"/>
<path d="M2174 3503 c-13 -3 -25 -16 -31 -38 -9 -28 -8 -37 7 -50 12 -11 26
-14 44 -9 32 8 47 64 23 89 -9 8 -17 14 -19 14 -2 -1 -12 -4 -24 -6z"/>
<path d="M1580 3463 c-50 -20 -33 -125 17 -109 33 10 53 49 44 82 -7 29 -30
39 -61 27z"/>
<path d="M1755 3171 c-13 -26 -12 -30 14 -62 28 -33 31 -34 100 -33 58 0 74 4
86 20 8 10 15 15 15 9 1 -19 29 40 30 62 0 29 -45 35 -82 10 -30 -19 -68 -30
-68 -19 0 10 -38 33 -61 37 -13 3 -24 -5 -34 -24z"/>
<path d="M2076 2974 c-36 -24 -66 -41 -66 -37 0 4 -4 3 -8 -4 -4 -6 -20 -14
-36 -17 -57 -10 -214 -8 -252 3 -69 22 -94 33 -94 44 0 21 -34 36 -55 24 -49
-26 -51 -61 -4 -92 16 -11 29 -23 29 -27 0 -5 13 -8 28 -8 15 0 32 -4 38 -8
41 -37 268 -42 365 -9 33 11 59 24 59 28 0 5 6 9 14 9 7 0 19 7 26 15 6 8 15
14 18 13 35 -7 64 57 40 89 -21 28 -32 26 -102 -23z"/>
<path d="M920 3997 c-40 -20 -36 -43 12 -73 45 -29 91 -35 111 -15 16 16 -3
45 -32 49 -11 2 -21 10 -21 17 0 8 -9 19 -19 25 -24 12 -21 12 -51 -3z"/>
<path d="M2966 3968 c-10 -6 -35 -12 -55 -13 -54 -3 -79 -14 -87 -37 -5 -15 0
-26 17 -38 25 -20 50 -16 131 22 48 23 59 43 36 66 -14 14 -18 14 -42 0z"/>
<path d="M778 3820 c-3 -20 2 -34 15 -45 19 -16 24 -16 81 -1 83 23 89 27 71
52 -12 18 -25 21 -88 22 l-75 1 -4 -29z"/>
<path d="M2856 3765 c-21 -22 -10 -43 33 -62 46 -21 97 -23 122 -5 37 26 12
62 -45 62 -14 0 -28 5 -31 10 -9 15 -62 12 -79 -5z"/>
<path d="M880 3640 c-25 -3 -64 -14 -86 -25 -38 -17 -41 -21 -32 -41 13 -27
56 -37 76 -17 8 8 24 13 36 11 30 -4 76 28 76 51 0 24 -14 28 -70 21z"/>
<path d="M2808 3612 c-32 -21 -25 -45 31 -101 39 -39 59 -53 46 -30 -4 6 0 9
10 7 10 -2 22 5 29 14 9 14 7 21 -10 33 -12 8 -24 27 -27 43 -8 40 -46 56 -79
34z"/>
<path d="M2689 3551 c-22 -18 -22 -20 -9 -60 17 -53 60 -80 96 -60 29 15 30
23 3 50 -11 11 -18 26 -16 34 7 16 -20 55 -37 55 -8 0 -24 -8 -37 -19z"/>
<path d="M953 3456 c-35 -16 -43 -26 -43 -47 0 -25 15 -39 43 -39 23 0 77 61
77 86 0 29 -18 29 -77 0z"/>
<path d="M1134 3413 c-11 -2 -31 -22 -45 -43 -13 -22 -27 -40 -31 -40 -14 0
-9 -37 6 -49 23 -19 60 -3 76 32 7 18 19 38 26 44 12 12 8 50 -5 56 -3 2 -15
1 -27 0z"/>
<path d="M3503 1433 c-16 -6 -17 -59 -2 -69 8 -5 9 -66 5 -211 -3 -113 -8
-208 -11 -213 -6 -9 -10 -42 -40 -280 -20 -158 -21 -166 -40 -261 -17 -84 -20
-117 -11 -126 2 -2 20 -6 39 -7 31 -3 36 0 42 23 8 31 26 134 30 176 21 203
36 333 46 395 16 110 23 188 20 245 0 11 1 83 3 160 1 77 -1 148 -6 158 -8 16
-47 22 -75 10z"/>
</g>
</svg>
