<?xml version="1.0" standalone="no"?>
<!DOCTYPE svg PUBLIC "-//W3C//DTD SVG 20010904//EN"
 "http://www.w3.org/TR/2001/REC-SVG-20010904/DTD/svg10.dtd">
<svg version="1.0" xmlns="http://www.w3.org/2000/svg"
 width="469.000000pt" height="447.000000pt" viewBox="0 0 469.000000 447.000000"
 preserveAspectRatio="xMidYMid meet">
<metadata>
Created by potrace 1.16, written by Peter Selinger 2001-2019
</metadata>
<g transform="translate(0.000000,447.000000) scale(0.100000,-0.100000)"
fill="#000000" stroke="none">
<path d="M2389 4240 c-8 -5 -50 -15 -94 -24 -90 -17 -262 -72 -285 -91 -8 -7
-29 -20 -45 -28 -17 -8 -84 -68 -148 -132 -121 -122 -194 -224 -227 -320 -13
-38 -22 -50 -38 -51 -30 -2 -52 -22 -52 -48 0 -25 -18 -53 -69 -112 -20 -22
-48 -53 -62 -70 -38 -43 -92 -88 -109 -91 -8 -1 -20 -9 -26 -17 -6 -9 -16 -16
-22 -16 -6 0 -20 -13 -32 -30 -12 -16 -28 -30 -35 -30 -8 0 -44 -21 -80 -46
-60 -41 -71 -45 -111 -40 -60 6 -89 -17 -79 -62 3 -18 10 -32 15 -32 4 0 35
-18 68 -40 33 -22 66 -40 74 -40 8 0 46 -11 84 -23 38 -13 83 -22 101 -20 30
4 32 2 53 -63 12 -36 29 -78 36 -93 8 -14 14 -34 14 -43 0 -23 65 -159 92
-193 29 -37 63 -48 134 -46 61 2 61 2 74 -31 7 -18 28 -54 47 -79 18 -26 33
-51 33 -55 0 -5 20 -31 45 -58 51 -55 48 -46 49 -148 l1 -76 -48 -6 c-26 -4
-62 -13 -80 -20 -18 -8 -63 -27 -102 -42 -38 -16 -79 -37 -90 -47 -11 -10 -33
-26 -50 -34 -16 -9 -50 -30 -75 -48 -25 -17 -58 -35 -72 -38 -15 -4 -49 -27
-75 -52 -26 -25 -56 -48 -68 -51 -11 -4 -23 -11 -26 -16 -4 -6 -24 -14 -45
-19 -22 -4 -72 -20 -113 -34 -41 -14 -86 -27 -100 -30 -30 -5 -267 -91 -293
-105 -10 -6 -25 -10 -33 -10 -8 0 -15 -4 -15 -8 0 -4 -12 -15 -28 -25 -42 -26
-85 -69 -106 -107 -50 -94 -126 -248 -126 -257 0 -6 -11 -35 -24 -64 -14 -30
-29 -81 -35 -114 -14 -83 -17 -97 -39 -168 -80 -257 -80 -257 -32 -277 50 -21
74 10 85 113 1 9 10 43 19 75 9 31 22 75 28 97 5 22 14 49 18 60 5 11 11 38
13 61 11 99 165 417 232 478 36 32 226 111 239 99 3 -4 6 -2 6 3 0 9 74 35
110 39 8 1 22 5 30 8 47 17 197 69 207 71 7 1 16 5 19 9 4 4 15 7 25 7 9 0 20
6 22 13 4 9 6 9 6 -1 1 -7 -10 -32 -23 -55 -13 -23 -26 -59 -29 -81 -5 -32 -3
-39 13 -43 11 -3 20 -9 20 -13 0 -4 20 -7 44 -5 44 2 147 47 249 107 26 15 47
25 47 22 0 -3 12 3 28 14 24 17 57 29 104 38 9 2 55 12 102 23 105 23 100 27
151 -129 20 -63 46 -135 57 -159 11 -25 21 -53 23 -63 2 -10 19 -44 38 -76 18
-31 39 -69 46 -83 25 -51 124 -158 173 -187 52 -31 56 -53 23 -150 -34 -99
-53 -140 -88 -185 -45 -59 -115 -125 -149 -143 -18 -9 -36 -22 -40 -28 -4 -6
-50 -10 -120 -11 l-113 0 -49 35 c-53 38 -74 74 -101 165 -19 66 -44 120 -85
180 -23 34 -26 45 -18 75 6 22 6 67 -1 122 -8 72 -16 96 -40 131 -70 99 -99
120 -201 144 -130 30 -259 -17 -320 -116 -14 -23 -28 -41 -32 -41 -5 0 -8 -8
-8 -18 0 -10 -4 -22 -9 -27 -30 -31 -33 -202 -5 -257 44 -84 58 -105 94 -136
34 -29 49 -34 127 -44 83 -10 95 -9 168 13 54 16 87 32 107 52 15 17 28 34 28
38 0 16 25 9 43 -11 9 -11 17 -27 17 -36 0 -8 9 -34 20 -56 11 -23 20 -46 20
-50 0 -5 9 -28 20 -50 11 -23 20 -48 20 -55 0 -7 5 -13 11 -13 5 0 7 -5 4 -10
-4 -6 13 -30 38 -53 67 -64 79 -71 111 -75 17 -2 39 -8 49 -14 25 -13 141 -12
183 2 19 6 38 9 43 6 11 -7 42 9 111 58 59 42 170 154 170 172 0 5 13 23 30
39 16 15 28 31 25 34 -2 4 5 26 16 50 10 24 19 53 19 66 0 12 7 40 17 61 9 22
17 47 18 57 2 22 49 72 95 102 19 13 44 32 56 43 11 11 30 23 42 26 11 4 45
35 74 69 60 70 96 104 118 112 8 3 31 30 50 61 19 31 45 68 57 83 13 14 42 61
65 103 24 43 52 93 62 111 11 17 20 39 20 47 1 25 35 23 66 -4 16 -13 39 -27
49 -31 11 -3 45 -30 75 -60 31 -30 60 -55 66 -55 5 0 10 -4 10 -10 0 -11 78
-66 139 -97 50 -25 61 -21 81 26 9 24 9 36 -3 63 -9 18 -26 71 -38 118 -12 47
-26 93 -31 102 -8 16 -6 17 19 7 15 -5 32 -14 38 -18 13 -11 111 -39 155 -45
164 -20 316 -78 386 -145 24 -24 44 -50 44 -58 0 -8 9 -27 19 -42 11 -15 27
-45 36 -67 22 -57 73 -257 80 -319 2 -16 6 -43 9 -59 5 -30 13 -83 21 -151 3
-22 8 -92 11 -155 10 -226 10 -222 34 -242 64 -52 100 3 80 122 -5 30 -19 134
-30 230 -32 286 -91 564 -139 658 -77 154 -78 155 -154 202 -83 52 -113 66
-181 87 -71 21 -86 25 -131 30 -22 2 -49 8 -60 13 -11 5 -36 11 -56 13 -103
14 -257 117 -300 200 -27 51 -45 71 -109 120 -30 23 -61 48 -68 55 -7 6 -28
12 -45 12 -27 0 -35 6 -46 33 -8 17 -22 37 -30 43 -13 10 -6 22 49 80 36 37
81 81 100 98 64 58 95 91 112 124 l17 32 74 -4 73 -5 51 47 c45 42 80 97 111
172 6 14 27 60 46 102 20 43 36 82 36 87 0 5 15 11 33 14 50 8 138 33 183 51
28 12 48 29 63 57 34 59 26 77 -48 115 -88 45 -174 132 -212 214 -35 76 -80
127 -121 135 -15 4 -28 12 -29 18 0 7 -3 36 -5 66 -4 56 -59 237 -75 247 -5 3
-9 13 -9 23 0 49 -206 270 -259 278 -9 1 -17 7 -19 12 -2 6 -12 11 -22 11 -9
0 -23 7 -30 15 -7 9 -15 13 -18 10 -3 -3 -24 6 -47 19 -22 13 -70 32 -105 41
-36 9 -73 21 -83 27 -51 27 -127 36 -271 33 -83 -1 -162 1 -176 5 -15 4 -33 4
-41 0z m231 -105 c201 -6 192 -5 210 -21 8 -7 38 -18 65 -24 28 -7 94 -34 149
-61 54 -27 103 -49 108 -49 21 0 178 -144 178 -163 0 -2 18 -37 40 -76 54 -99
87 -203 89 -278 1 -35 -2 -63 -5 -63 -4 0 -44 18 -88 40 -161 80 -285 74 -292
-14 -2 -30 12 -36 90 -36 54 0 81 -6 122 -26 29 -14 58 -32 65 -40 6 -8 18
-14 26 -14 7 0 16 -7 19 -15 4 -8 12 -15 20 -15 8 0 14 -4 14 -10 0 -5 9 -10
19 -10 20 0 33 -21 26 -42 -2 -7 -6 -47 -9 -88 -10 -151 -25 -209 -94 -360
-16 -36 -33 -76 -37 -90 -9 -30 -55 -100 -65 -100 -4 0 -21 -26 -36 -57 -25
-48 -93 -129 -145 -169 -8 -7 -41 -42 -74 -80 -125 -143 -280 -277 -331 -286
-10 -1 -21 -6 -24 -9 -3 -3 -34 -20 -70 -37 -66 -31 -157 -47 -247 -44 -63 3
-73 4 -73 14 0 5 -6 8 -12 6 -34 -6 -163 52 -233 106 -51 39 -74 64 -105 117
-14 23 -30 47 -35 53 -6 6 -19 24 -29 40 -10 16 -30 41 -43 57 -44 49 -90 121
-128 199 -52 106 -53 109 -65 172 -9 48 -15 57 -38 64 -42 12 -46 11 -65 -13
-20 -25 -17 -46 14 -97 30 -48 25 -66 -16 -66 -19 0 -35 4 -35 9 0 5 -15 36
-34 69 -19 33 -37 75 -41 94 -4 18 -15 51 -25 73 -41 87 -53 133 -57 208 -4
70 -2 85 22 133 22 46 31 54 53 54 32 -1 57 -18 66 -46 6 -20 44 -44 70 -44
22 0 37 43 41 115 3 74 11 120 24 143 19 34 159 104 252 127 41 9 106 26 144
37 97 28 101 28 180 30 47 1 88 -6 125 -19 51 -18 55 -22 67 -64 22 -76 70
-149 100 -149 7 0 13 -4 13 -10 0 -5 8 -10 18 -10 10 0 22 -3 25 -7 4 -3 30
-15 59 -25 67 -23 201 -24 273 -2 74 24 155 83 183 133 48 84 25 274 -44 376
-13 20 -24 39 -24 43 -1 14 -77 60 -119 72 -57 15 -154 16 -213 2 -47 -11
-128 -50 -158 -74 -37 -30 -91 -114 -96 -149 -6 -36 -7 -37 -43 -33 -20 3 -57
10 -82 15 -61 14 -220 4 -257 -15 -16 -8 -72 -24 -125 -35 -53 -11 -110 -27
-126 -36 -17 -8 -35 -15 -41 -15 -7 0 -24 -9 -38 -21 -32 -25 -40 -11 -18 32
9 18 16 38 16 45 0 17 75 160 102 194 13 16 28 30 33 31 6 0 42 36 80 79 39
43 75 78 81 79 6 1 31 17 57 37 25 19 52 37 59 38 7 2 20 6 28 9 31 14 173 47
180 42 4 -3 32 4 61 15 30 10 65 17 79 14 14 -2 99 -6 190 -9z m228 -349 c4
-6 16 -16 27 -21 11 -6 35 -41 53 -77 41 -80 52 -165 29 -220 -17 -41 -81 -89
-124 -93 -15 -1 -35 -5 -43 -9 -8 -3 -54 -5 -101 -3 -73 3 -94 8 -133 31 -26
15 -52 38 -58 52 -6 13 -15 24 -20 24 -5 0 -7 38 -5 84 4 63 10 94 27 124 22
39 69 82 93 86 7 1 19 6 27 11 36 22 215 31 228 11z m-1342 -418 c-3 -13 -9
-39 -12 -59 -6 -34 -8 -36 -43 -33 -20 2 -40 3 -44 3 -5 1 6 15 23 33 17 17
38 42 47 55 19 29 37 30 29 1z m2083 -50 c8 -13 30 -52 48 -88 22 -41 49 -77
76 -97 23 -18 62 -51 87 -73 24 -22 55 -43 68 -47 23 -5 22 -7 -14 -23 -22
-10 -60 -21 -86 -24 l-47 -6 6 35 c3 22 -1 52 -11 79 -19 50 -60 76 -119 76
l-35 0 -1 95 c-1 52 2 95 6 95 5 0 15 -10 22 -22z m-2355 -190 c-18 -55 -22
-92 -13 -115 5 -13 9 -26 9 -28 0 -1 -17 -3 -37 -3 -44 -1 -133 25 -133 39 0
5 31 29 68 54 38 24 74 51 81 59 20 23 33 19 25 -6z m2388 -95 c9 -8 15 -22
13 -31 -15 -66 -35 -124 -49 -143 -9 -13 -16 -31 -16 -40 0 -9 -9 -27 -19 -41
-11 -13 -23 -37 -27 -53 -10 -40 -71 -147 -96 -167 -20 -18 -63 -25 -56 -10
25 52 43 82 50 82 4 0 5 6 2 14 -3 8 -1 17 5 21 6 3 11 16 11 27 0 11 9 35 19
52 21 35 59 147 72 216 14 69 14 69 34 84 20 15 28 13 57 -11z m-681 -1005
c18 -34 11 -142 -15 -222 -22 -66 -26 -72 -62 -85 -21 -7 -48 -15 -59 -17 -11
-1 -47 -9 -80 -16 -44 -9 -103 -11 -210 -6 -83 3 -222 9 -310 13 -88 3 -180 7
-205 9 l-45 4 -8 53 c-4 30 -11 61 -14 69 -4 8 -8 31 -10 50 -1 19 -5 52 -8
73 -3 20 -3 37 0 37 2 0 23 -20 46 -45 23 -25 54 -48 68 -52 14 -3 42 -17 62
-30 32 -21 102 -45 169 -59 14 -3 68 -5 120 -6 77 0 111 5 178 26 45 15 99 38
120 52 20 14 49 28 64 31 15 3 63 36 105 74 43 37 79 68 80 69 1 0 8 -10 14
-22z m175 -119 c9 -10 23 -19 30 -19 28 0 139 -177 148 -235 1 -8 8 -21 14
-27 7 -7 12 -19 12 -28 0 -9 4 -20 10 -26 9 -9 50 -128 50 -146 0 -14 -70 37
-130 96 -63 62 -194 146 -227 146 -12 0 -24 4 -27 8 -2 4 5 39 16 77 11 39 23
90 27 115 4 25 10 50 14 57 9 15 41 6 63 -18z m-1285 -36 c1 -5 3 -18 4 -29 1
-12 5 -32 8 -46 4 -14 9 -41 12 -61 6 -35 5 -35 -37 -46 -109 -27 -138 -36
-138 -44 0 -4 -4 -6 -9 -2 -26 16 -173 -43 -349 -139 -28 -16 -55 -27 -58 -24
-7 7 36 94 82 165 64 100 300 230 422 232 34 1 63 -2 63 -6z m-151 -258 c0
-12 -19 -12 -23 0 -4 9 -1 12 9 8 7 -3 14 -7 14 -8z m441 -20 c151 -6 287 -14
324 -20 47 -8 245 -6 258 2 6 3 25 8 42 10 16 1 50 6 75 9 25 4 49 6 55 5 5
-1 18 -3 27 -4 20 -1 24 -12 8 -22 -5 -3 -10 -15 -10 -26 0 -10 -6 -29 -12
-42 -92 -168 -225 -333 -259 -322 -11 4 -31 8 -46 11 -16 2 -48 9 -73 14 -70
15 -240 20 -288 8 -24 -6 -59 -19 -79 -29 -34 -17 -37 -18 -49 -1 -7 9 -14 23
-14 30 0 6 -4 12 -9 12 -5 0 -12 12 -16 27 -3 15 -20 53 -36 86 -16 32 -29 69
-29 81 0 11 -11 52 -25 89 -28 80 -25 101 14 92 15 -3 79 -8 142 -10z m369
-495 c9 -5 20 -7 23 -4 3 3 15 3 27 -1 21 -7 20 -7 -7 -31 -15 -14 -32 -28
-38 -32 -5 -4 -30 -22 -53 -41 -24 -19 -60 -42 -80 -52 -35 -19 -36 -19 -66 5
-17 13 -55 47 -84 76 -59 60 -58 73 11 89 49 12 240 5 267 -9z m-1214 -25 c6
-8 16 -15 23 -15 6 0 11 -4 11 -10 0 -5 5 -10 11 -10 34 0 83 -116 73 -172 -8
-44 -45 -106 -86 -145 -76 -74 -232 -86 -299 -23 -20 18 -66 107 -70 135 -5
33 10 89 40 151 43 89 99 116 221 108 43 -2 69 -9 76 -19z"/>
<path d="M2034 3250 c-23 -10 -50 -33 -62 -51 -12 -19 -33 -44 -46 -57 -32
-30 -56 -131 -46 -196 6 -40 16 -56 71 -111 66 -67 94 -81 181 -92 62 -7 140
29 187 88 19 23 41 48 48 55 19 18 45 83 38 93 -3 5 3 19 13 30 14 18 30 23
87 26 39 2 84 8 101 13 18 6 37 6 45 1 8 -5 23 -9 34 -9 30 -1 67 -36 70 -67
8 -75 26 -137 46 -151 11 -8 24 -25 29 -38 20 -51 166 -96 206 -63 8 7 30 9
54 6 23 -3 40 -1 40 5 0 5 4 7 8 4 5 -3 18 5 30 17 11 12 31 30 45 39 14 10
37 41 51 70 39 78 37 174 -5 263 -18 36 -41 73 -53 81 -32 22 -141 53 -167 47
-35 -7 -109 -45 -109 -55 0 -4 -3 -7 -7 -7 -25 4 -44 -6 -87 -47 -42 -40 -52
-44 -70 -35 -12 6 -41 18 -65 26 -39 13 -49 13 -97 -1 -29 -8 -67 -13 -83 -11
-16 3 -50 1 -75 -5 -40 -8 -48 -7 -75 13 -16 12 -35 35 -42 50 -6 16 -16 29
-22 29 -5 0 -17 9 -26 19 -16 19 -55 27 -161 36 -29 2 -60 -3 -86 -15z m184
-81 c1 -1 5 -2 10 -3 24 -5 92 -93 92 -121 0 -8 4 -16 10 -20 6 -4 6 -16 -1
-33 -19 -54 -35 -78 -80 -124 -44 -45 -50 -48 -95 -47 -71 1 -88 9 -149 62
-39 35 -56 58 -61 82 -9 47 15 117 45 131 29 15 41 33 34 51 -8 21 35 31 117
27 41 -1 76 -4 78 -5z m879 -7 c32 -3 91 -66 97 -104 14 -95 15 -119 4 -142
-6 -15 -15 -26 -20 -26 -4 0 -8 -9 -8 -20 0 -11 -5 -20 -11 -20 -7 0 -17 -7
-24 -17 -7 -9 -25 -16 -43 -15 -18 0 -34 -4 -37 -9 -16 -25 -165 4 -165 33 0
5 -9 22 -19 37 -32 44 -36 110 -11 158 12 23 28 48 37 55 38 32 125 74 150 72
16 0 38 -2 50 -2z"/>
<path d="M2125 3061 c-44 -13 -57 -26 -49 -55 11 -47 75 -69 106 -36 18 19 17
70 -2 70 -5 0 -15 6 -22 13 -7 7 -22 11 -33 8z"/>
<path d="M2985 3004 c-9 -9 -14 -23 -11 -31 3 -8 6 -27 6 -41 0 -31 32 -56 60
-47 17 5 40 51 40 80 0 20 -36 55 -58 55 -11 0 -28 -7 -37 -16z"/>
<path d="M2403 2700 c-16 -7 -23 -18 -23 -38 0 -37 34 -67 85 -77 37 -7 52 -7
128 -4 15 1 27 8 27 15 0 7 5 14 11 16 18 6 20 64 3 79 -13 10 -24 10 -62 0
-64 -18 -95 -17 -120 7 -15 14 -19 14 -49 2z"/>
<path d="M2062 2364 c-22 -15 -27 -38 -16 -67 3 -9 31 -27 62 -42 141 -66 188
-78 312 -78 58 -1 119 2 135 6 94 21 150 39 159 53 7 8 18 14 26 12 19 -4 15
61 -4 81 -16 16 -65 18 -75 4 -9 -15 -83 -53 -92 -47 -4 2 -29 -1 -56 -7 -109
-25 -243 -3 -327 54 -21 15 -49 27 -60 27 -12 0 -26 4 -32 10 -6 6 -17 5 -32
-6z"/>
<path d="M2680 3632 c-20 -16 -22 -23 -14 -58 6 -21 14 -39 19 -40 6 0 18 -4
28 -9 11 -4 29 -3 44 4 23 11 25 16 20 54 -9 63 -52 85 -97 49z"/>
<path d="M1087 915 c-20 -19 -20 -25 -7 -59 5 -14 16 -26 24 -26 8 0 16 -5 18
-11 4 -13 79 -23 94 -12 24 18 25 61 1 89 -29 34 -104 45 -130 19z"/>
</g>
</svg>
