<?xml version="1.0" standalone="no"?>
<!DOCTYPE svg PUBLIC "-//W3C//DTD SVG 20010904//EN"
 "http://www.w3.org/TR/2001/REC-SVG-20010904/DTD/svg10.dtd">
<svg version="1.0" xmlns="http://www.w3.org/2000/svg"
 width="521.000000pt" height="501.000000pt" viewBox="0 0 521.000000 501.000000"
 preserveAspectRatio="xMidYMid meet">
<metadata>
Created by potrace 1.16, written by Peter Selinger 2001-2019
</metadata>
<g transform="translate(0.000000,501.000000) scale(0.100000,-0.100000)"
fill="#000000" stroke="none">
<path d="M2856 4713 c-2 -2 -67 -6 -145 -8 -93 -3 -161 -11 -199 -22 -31 -9
-62 -18 -68 -19 -56 -10 -212 -80 -324 -145 -48 -27 -260 -221 -295 -270 -115
-159 -267 -426 -280 -492 -12 -67 -50 -167 -63 -167 -7 0 -27 -7 -43 -16 -17
-8 -48 -17 -70 -20 -22 -3 -52 -10 -67 -16 -15 -6 -29 -12 -32 -13 -27 -7 -62
-20 -97 -37 -23 -11 -59 -21 -79 -24 -45 -6 -80 -23 -174 -89 -69 -49 -187
-166 -227 -225 -9 -14 -25 -34 -35 -45 -63 -66 -88 -100 -99 -133 -14 -44 -49
-115 -59 -122 -9 -6 -61 -119 -90 -196 -12 -33 -37 -137 -45 -189 -4 -29 -11
-93 -21 -200 -2 -28 2 -77 11 -113 9 -35 17 -77 17 -93 1 -22 5 -28 16 -24 12
4 13 3 2 -9 -13 -17 -10 -54 13 -153 11 -45 26 -75 55 -110 22 -26 45 -68 52
-91 11 -44 60 -120 85 -134 7 -5 25 -29 40 -55 15 -27 36 -57 46 -68 9 -11 19
-27 21 -35 2 -8 10 -20 18 -26 12 -10 12 -17 2 -38 -7 -15 -12 -39 -12 -55 0
-15 -9 -61 -20 -102 -21 -78 -36 -150 -44 -209 -10 -75 -25 -147 -39 -185 -9
-22 -19 -67 -23 -100 -8 -65 -8 -63 -17 -85 -19 -43 -37 -105 -37 -125 0 -12
9 -30 20 -40 17 -15 24 -16 45 -7 14 7 29 22 34 34 12 32 44 180 57 262 3 21
12 55 19 75 16 41 31 119 41 206 4 33 15 87 24 120 10 33 21 76 24 95 4 19 16
72 28 117 l22 81 55 -5 c31 -3 63 -9 72 -14 9 -4 25 -6 36 -3 33 9 106 -31
210 -115 146 -118 167 -144 209 -266 31 -92 45 -107 86 -93 15 6 28 14 28 19
0 5 6 9 13 9 8 0 22 8 31 19 9 10 28 19 41 19 43 -1 58 20 51 72 -4 25 -9 65
-12 90 -3 25 -10 61 -16 80 -15 47 -91 154 -120 167 -13 6 -52 35 -88 64 -36
28 -83 61 -105 71 -22 11 -58 32 -80 48 -22 16 -46 29 -52 30 -7 0 -13 3 -13
8 0 8 -33 26 -104 58 l-38 17 38 24 c22 12 45 23 52 23 7 0 41 20 75 43 34 24
91 61 127 82 36 21 67 42 70 46 3 4 17 13 30 18 14 6 40 20 58 31 17 11 32 18
32 16 0 -2 20 2 45 9 29 9 47 10 51 4 3 -6 16 -14 27 -20 28 -12 59 -31 72
-45 5 -6 37 -19 70 -28 33 -9 83 -26 110 -36 28 -10 69 -24 91 -29 23 -6 47
-18 54 -26 7 -8 38 -22 69 -32 31 -9 63 -22 71 -29 8 -7 49 -22 90 -34 41 -12
77 -25 80 -29 5 -7 24 -12 148 -43 26 -6 52 -15 58 -19 6 -5 14 -6 17 -3 3 4
14 3 24 -1 44 -17 194 -24 273 -11 30 4 66 8 79 7 86 -4 393 77 483 127 79 44
108 65 108 78 0 8 8 14 18 14 27 0 147 104 137 120 -4 6 30 40 41 40 3 0 25
-15 50 -34 24 -19 67 -42 94 -52 28 -10 50 -21 50 -25 0 -4 13 -10 30 -14 16
-4 32 -11 36 -16 3 -5 24 -19 47 -30 23 -12 44 -24 47 -28 6 -8 154 -81 163
-81 7 0 35 -23 84 -66 32 -29 75 -121 117 -247 19 -56 50 -139 69 -184 20 -45
40 -97 46 -115 15 -52 95 -256 128 -328 17 -36 36 -81 44 -100 7 -19 37 -73
65 -120 47 -80 72 -136 78 -178 3 -18 41 -42 68 -42 29 0 48 28 38 55 -5 14
-7 25 -5 25 3 0 -4 17 -15 37 -11 21 -20 42 -20 47 0 12 -62 110 -72 114 -5 2
-8 10 -8 18 0 8 -4 14 -10 14 -5 0 -10 5 -10 11 0 7 -10 28 -22 47 -12 20 -32
65 -45 101 -12 36 -32 86 -44 111 -36 75 -47 101 -84 205 -20 55 -41 112 -47
127 -5 15 -9 30 -8 34 1 4 -2 10 -7 13 -13 9 -39 76 -68 176 -37 126 -44 145
-74 189 -46 70 -113 126 -201 168 -47 23 -87 44 -90 48 -3 3 -34 18 -69 33
-35 15 -77 38 -92 51 -16 13 -49 32 -75 42 -26 10 -63 33 -83 51 -20 18 -46
36 -58 39 -22 6 -41 54 -28 74 3 5 -5 21 -19 34 -14 13 -26 28 -26 34 0 6 20
31 45 55 61 62 135 233 184 427 5 19 16 60 24 90 27 96 31 123 53 330 15 135
21 218 24 330 3 97 -19 381 -30 394 -6 8 -15 36 -20 63 -17 93 -31 138 -61
190 -17 29 -34 53 -38 53 -4 0 -13 16 -20 35 -7 19 -17 35 -22 35 -5 0 -9 7
-9 15 0 8 -16 29 -35 48 -19 19 -35 40 -35 47 0 7 -3 11 -6 7 -3 -3 -16 4 -29
16 -128 123 -182 161 -246 170 -11 2 -29 12 -41 23 -13 10 -42 26 -65 33 -24
8 -43 17 -43 21 0 12 -75 48 -115 56 -22 3 -58 15 -80 24 -22 10 -69 23 -105
29 -69 11 -188 20 -194 14z m142 -103 c48 0 72 -4 72 -12 0 -6 3 -9 6 -6 3 4
24 -2 47 -13 23 -10 52 -19 65 -19 27 0 84 -27 95 -46 4 -7 28 -20 55 -30 26
-10 60 -26 75 -37 16 -11 49 -26 75 -33 70 -22 92 -38 200 -146 55 -54 101
-118 143 -198 13 -25 26 -47 29 -50 14 -14 38 -69 45 -100 4 -19 16 -66 28
-105 12 -39 22 -103 23 -145 5 -166 5 -347 0 -390 -3 -25 -8 -76 -11 -115 -13
-166 -28 -266 -51 -347 -13 -48 -24 -93 -24 -101 0 -29 -79 -273 -106 -326 -9
-19 -37 -53 -61 -75 -23 -22 -43 -43 -43 -48 0 -18 -111 -123 -175 -166 -38
-26 -71 -50 -73 -54 -2 -5 -11 -8 -21 -8 -20 0 -181 -53 -227 -75 -26 -12
-161 -50 -304 -86 -60 -15 -191 -12 -239 5 -24 9 -67 16 -96 16 -29 0 -65 4
-81 10 -16 5 -42 11 -59 13 -38 6 -109 34 -155 62 -19 11 -60 31 -90 44 -90
39 -101 44 -126 68 -14 13 -29 23 -33 23 -9 0 -138 124 -161 155 -21 28 -40
73 -40 95 0 18 -32 45 -42 35 -4 -5 -51 85 -68 130 -57 154 -77 238 -91 380
-6 66 -13 136 -16 155 -6 61 -6 322 1 402 4 43 18 107 31 143 14 37 27 82 30
102 7 55 14 72 66 161 27 45 49 86 49 90 0 7 41 71 77 122 10 14 17 28 15 33
-1 4 2 7 7 7 5 0 23 21 39 48 31 50 167 189 217 222 17 11 37 24 45 30 74 49
184 102 278 134 96 32 130 38 230 43 64 3 135 8 157 12 22 4 58 4 80 -1 22 -4
73 -7 113 -8z m959 -622 c-3 -8 -6 -5 -6 6 -1 11 2 17 5 13 3 -3 4 -12 1 -19z
m-2483 -563 c4 -25 5 -49 2 -54 -4 -5 -7 -41 -7 -80 -1 -39 -4 -71 -8 -71 -3
0 -16 -3 -27 -6 -18 -5 -23 0 -29 33 -5 21 -7 44 -6 51 1 6 -2 12 -7 12 -9 0
-22 37 -41 112 -10 42 -9 43 70 46 l47 2 6 -45z m-203 -98 c14 -42 24 -77 21
-77 -2 0 0 -6 5 -12 5 -7 15 -32 23 -56 15 -46 14 -47 -52 -87 -27 -15 -28
-15 -28 5 0 23 -27 70 -47 83 -8 5 -11 12 -8 17 3 5 -3 15 -12 22 -16 11 -93
121 -93 132 0 2 19 9 43 15 24 6 57 17 73 26 16 8 33 13 39 12 5 -2 21 -38 36
-80z m-266 -52 c14 -13 25 -28 25 -32 0 -4 16 -25 35 -47 19 -21 35 -44 35
-51 0 -6 9 -22 20 -35 11 -13 20 -27 20 -31 0 -5 12 -14 26 -22 l26 -14 -32
-26 c-31 -27 -57 -36 -45 -17 3 6 2 10 -2 10 -9 0 -113 100 -181 174 -34 38
-40 50 -30 59 19 18 70 57 75 57 2 0 15 -11 28 -25z m-150 -154 c3 -11 12 -22
20 -25 8 -3 15 -12 15 -21 0 -8 4 -15 10 -15 5 0 38 -26 72 -58 35 -32 71 -61
81 -65 26 -10 21 -25 -15 -47 l-33 -20 -5 22 c-3 13 -15 28 -25 33 -11 6 -45
26 -75 45 -30 19 -58 34 -62 33 -4 -2 -12 6 -17 16 -9 16 -42 32 -73 35 -17 2
-9 20 26 62 31 37 40 42 56 34 10 -5 21 -19 25 -29z m625 -70 c0 -38 6 -84 14
-102 7 -19 16 -87 19 -151 4 -64 10 -125 15 -135 40 -82 52 -110 52 -123 0 -8
11 -39 25 -68 14 -30 25 -58 25 -62 0 -4 -15 -17 -34 -28 -39 -23 -73 -88 -79
-149 -2 -24 -1 -43 2 -43 3 0 6 -12 6 -27 1 -16 4 -43 9 -60 7 -29 5 -34 -18
-43 -14 -5 -62 -34 -106 -65 -45 -30 -84 -55 -87 -55 -3 0 -41 -21 -84 -46
-117 -69 -179 -96 -179 -79 0 8 -15 32 -34 52 -18 21 -48 72 -66 113 -18 41
-36 77 -41 80 -20 13 -43 186 -42 310 2 122 13 161 71 263 56 96 66 114 78
137 15 29 157 169 224 221 76 59 190 125 223 128 4 1 7 -30 7 -68z m-724 -106
c18 -14 40 -25 48 -25 9 0 16 -4 16 -10 0 -5 5 -10 10 -10 10 0 19 -6 53 -36
7 -5 27 -19 45 -29 17 -11 32 -23 32 -27 0 -4 -14 -28 -31 -53 -31 -45 -32
-46 -46 -25 -11 16 -24 20 -61 19 -59 -2 -204 8 -242 16 l-29 6 46 87 c69 129
64 124 97 118 16 -4 44 -17 62 -31z m-218 -267 c6 -6 46 -13 89 -14 75 -3 161
-16 204 -29 13 -4 18 -12 15 -22 -3 -8 -6 -19 -6 -24 0 -6 -21 -7 -52 -4 -70
8 -57 8 -196 1 l-122 -6 16 37 c9 21 18 46 21 56 6 20 14 22 31 5z m197 -192
c11 -2 29 -4 41 -5 18 -1 21 -7 21 -45 0 -44 0 -44 -31 -38 -51 9 -67 6 -156
-27 -47 -18 -97 -34 -112 -36 -15 -2 -36 -9 -47 -15 -25 -13 -35 2 -25 38 4
15 8 34 9 42 8 71 16 87 38 83 12 -2 58 1 102 6 73 8 102 8 160 -3z m65 -205
c0 -18 -9 -34 -27 -47 -34 -24 -159 -84 -176 -84 -17 0 -108 -66 -129 -93
l-18 -22 0 31 c0 17 -7 53 -15 80 -19 63 -19 67 5 61 11 -3 20 -2 20 2 0 3 19
12 43 19 23 7 67 25 97 39 32 15 78 28 110 30 30 2 58 7 64 13 14 14 26 2 26
-29z m880 15 c0 -8 9 -18 20 -21 11 -3 20 -13 20 -21 0 -20 170 -188 210 -209
16 -9 30 -19 30 -24 0 -9 110 -61 129 -61 6 0 11 -4 11 -10 0 -5 4 -10 10 -10
5 0 24 -10 42 -22 73 -50 258 -105 378 -113 36 -2 83 -12 105 -21 33 -14 61
-16 157 -11 64 3 125 10 136 16 10 5 47 16 83 25 56 13 126 41 191 77 10 5 25
9 33 9 8 0 23 4 33 9 44 23 69 31 98 34 26 3 128 57 144 76 3 3 22 15 43 26
22 10 47 29 57 42 10 13 23 23 29 23 6 0 11 6 11 13 0 6 5 4 11 -6 12 -20 7
-49 -18 -105 -14 -32 -77 -93 -132 -127 -9 -6 -35 -23 -59 -38 -109 -70 -312
-131 -488 -147 -247 -22 -276 -22 -339 -6 -161 42 -347 101 -392 125 -10 5
-43 19 -73 31 -30 12 -73 31 -96 41 -22 10 -52 20 -65 23 -13 2 -53 15 -89 28
-36 14 -69 26 -75 27 -5 2 -20 7 -33 12 -13 5 -27 9 -32 9 -21 0 -129 113
-144 151 -19 46 -14 148 7 161 20 13 47 9 47 -6z m-860 -185 c0 -11 3 -26 6
-34 3 -10 -3 -18 -18 -23 -13 -4 -24 -6 -25 -5 -2 0 -21 -17 -44 -39 -22 -22
-47 -40 -55 -40 -8 0 -14 -4 -14 -10 0 -5 -6 -10 -13 -10 -6 0 -35 -20 -62
-45 -28 -25 -56 -45 -62 -45 -7 0 -13 -4 -13 -10 0 -16 -19 -11 -28 8 -6 9
-13 32 -17 50 -5 25 -3 32 8 32 8 0 31 20 51 45 38 46 52 56 146 101 99 48
140 55 140 25z m64 -176 c17 -25 16 -26 -24 -65 -23 -22 -45 -40 -49 -40 -4 0
-23 -18 -42 -40 -19 -22 -39 -40 -45 -40 -6 0 -35 -23 -63 -51 -29 -28 -53
-50 -55 -48 -1 2 -11 26 -21 53 -17 48 -17 49 2 65 11 9 33 33 48 54 15 21 47
46 69 57 23 10 53 30 66 43 43 42 91 47 114 12z m92 -148 c5 -16 1 -25 -17
-37 -12 -8 -43 -32 -68 -52 -24 -20 -48 -35 -52 -33 -8 6 -40 -59 -43 -89 -3
-23 -35 -96 -43 -96 -9 0 -33 29 -33 39 0 6 -4 11 -8 11 -5 0 -14 11 -20 25
-10 20 -8 31 9 60 12 19 24 35 28 35 12 0 54 41 83 80 26 37 122 92 145 83 7
-3 15 -14 19 -26z m106 -229 c32 -15 60 -28 63 -28 3 0 14 -8 24 -17 28 -23
119 -73 135 -73 7 0 21 -10 32 -21 10 -12 44 -38 74 -59 30 -21 79 -66 109
-100 52 -59 54 -65 61 -132 5 -61 4 -72 -11 -75 -9 -3 -22 -16 -29 -29 -17
-31 -26 -30 -35 3 -3 15 -10 30 -13 33 -4 3 -20 31 -37 62 -25 49 -135 178
-151 178 -3 0 -30 19 -61 43 -85 64 -136 97 -155 97 -9 0 -19 4 -22 9 -3 5
-23 12 -43 15 -43 8 -98 24 -129 39 l-22 9 20 34 c15 25 27 34 46 34 15 0 33
4 41 9 16 10 22 8 103 -31z"/>
<path d="M2619 3886 c-30 -7 -60 -16 -66 -19 -6 -4 -33 -12 -60 -17 -84 -17
-91 -18 -112 -29 -10 -6 -25 -17 -33 -24 -7 -7 -42 -34 -78 -60 -111 -81 -129
-99 -155 -154 -13 -29 -38 -67 -55 -85 -17 -18 -33 -44 -36 -58 -3 -14 -9 -32
-15 -40 -5 -8 -12 -22 -15 -30 -3 -8 -15 -35 -26 -60 -24 -53 -37 -158 -45
-365 -3 -82 -6 -165 -7 -182 0 -18 -4 -33 -7 -33 -7 0 -7 3 -12 -165 -3 -77
-1 -156 4 -175 4 -19 10 -47 13 -61 8 -37 51 -63 101 -60 22 1 80 3 128 4 49
2 91 8 95 13 4 6 25 21 47 33 54 30 102 120 111 211 8 85 7 159 -5 210 -5 25
-5 99 0 192 8 126 13 156 30 180 27 37 62 37 100 -1 15 -16 34 -50 41 -76 12
-46 34 -65 73 -65 17 0 27 40 29 120 3 92 11 122 48 193 43 82 46 84 129 112
98 34 201 35 324 4 22 -6 49 -10 60 -9 28 2 81 2 145 0 30 -1 65 1 77 4 13 3
25 0 28 -5 4 -5 10 -7 15 -4 5 3 11 1 15 -5 6 -10 -28 -15 -74 -11 -16 2 -31
-6 -41 -19 -20 -27 -15 -78 9 -79 9 0 23 -1 31 -2 8 0 37 2 63 7 47 7 49 6 45
-17 -2 -18 -10 -24 -28 -25 -44 -1 -48 -3 -59 -34 -7 -21 -7 -39 0 -60 9 -25
16 -30 43 -30 l32 0 -8 -52 c-5 -29 -9 -62 -9 -73 0 -11 -4 -22 -10 -26 -5 -3
-11 -16 -12 -27 -1 -21 -17 -32 -17 -12 0 5 -14 39 -31 75 -19 40 -29 75 -25
88 3 13 -2 31 -12 45 l-18 23 -19 -20 c-10 -12 -14 -21 -9 -21 5 0 3 -4 -4 -9
-8 -4 -15 -27 -18 -49 -3 -32 1 -46 15 -59 11 -10 29 -45 42 -78 12 -33 26
-65 30 -71 5 -6 10 -25 12 -42 2 -17 9 -37 16 -45 16 -20 22 -78 10 -94 -7 -8
-29 -10 -67 -7 -32 3 -84 6 -117 7 -33 2 -69 8 -81 14 -17 10 -23 8 -37 -8
-21 -23 -22 -49 -3 -74 11 -15 25 -18 79 -16 77 3 81 -3 59 -91 -16 -66 -8
-62 -147 -60 -137 3 -176 9 -197 31 -22 24 -28 25 -63 9 -54 -24 -17 -92 64
-117 23 -6 80 -9 147 -5 61 2 120 1 132 -3 l23 -9 -21 -21 c-11 -12 -20 -26
-20 -30 0 -4 -24 -33 -53 -65 -40 -42 -64 -59 -97 -68 -25 -6 -58 -18 -75 -25
-47 -21 -143 -26 -220 -12 -38 7 -80 12 -92 11 -13 -1 -23 2 -23 6 0 4 -19 13
-42 20 -24 7 -57 24 -75 37 -18 13 -53 32 -78 43 -45 19 -46 19 -65 0 -16 -16
-18 -25 -10 -40 6 -11 7 -20 3 -20 -4 0 3 -9 16 -21 12 -11 28 -18 36 -16 7 3
31 -8 54 -24 22 -17 53 -32 68 -35 15 -3 37 -11 48 -18 11 -7 43 -14 70 -15
80 -3 110 -7 134 -21 14 -7 37 -9 59 -5 20 4 52 8 72 10 19 2 49 10 65 19 17
9 45 19 64 22 19 4 44 12 55 18 36 19 116 89 116 102 0 7 4 14 8 16 16 6 82
105 82 122 0 9 4 16 9 16 4 0 13 21 19 48 5 26 18 77 27 115 16 60 21 67 42
67 38 0 93 30 99 54 3 12 6 58 8 102 2 81 7 107 24 140 21 41 44 134 44 174
-1 23 3 52 7 63 12 31 -3 275 -17 289 -16 16 -15 38 2 38 23 0 49 49 41 78 -4
15 -9 37 -10 49 -4 30 -44 93 -58 93 -7 0 -18 9 -25 21 -7 11 -19 18 -27 15
-7 -2 -26 6 -42 20 -15 13 -33 24 -40 24 -6 0 -13 4 -15 9 -5 15 -173 91 -204
92 -16 1 -47 7 -69 14 -22 7 -67 16 -100 20 -33 4 -68 11 -78 17 -29 15 -284
18 -348 4z m326 -85 c30 -10 73 -17 152 -26 23 -3 54 -10 68 -15 15 -6 40 -10
56 -10 16 0 29 -4 29 -9 0 -16 74 -40 82 -27 5 7 8 5 8 -6 0 -9 9 -19 19 -23
17 -5 39 -27 93 -93 6 -8 23 -12 40 -10 24 4 32 0 44 -23 8 -15 14 -32 14 -36
0 -10 -56 -35 -89 -40 -88 -11 -373 8 -394 27 -8 7 -167 3 -192 -4 -5 -2 -14
-5 -20 -6 -5 -1 -19 -9 -30 -16 -11 -8 -26 -14 -35 -14 -8 0 -38 -16 -66 -35
-55 -38 -84 -87 -120 -206 -16 -52 -18 -55 -34 -40 -54 50 -83 62 -105 43 -6
-5 -29 -14 -51 -20 -65 -19 -87 -65 -101 -212 -9 -98 -6 -264 5 -320 9 -43 9
-73 -2 -135 -27 -161 -46 -176 -228 -180 l-97 -2 -5 26 c-7 37 -10 127 -6 216
1 22 1 47 1 55 -1 8 3 42 9 75 5 33 13 132 16 220 9 240 16 295 44 335 10 14
25 48 34 75 9 28 30 68 45 90 16 22 40 63 55 92 14 29 36 58 48 64 13 7 25 15
28 19 3 3 31 27 63 53 32 26 54 47 50 47 -18 1 104 39 125 40 12 0 38 7 58 15
19 8 58 17 86 20 29 3 54 8 57 10 7 8 214 -5 246 -14z m-195 -431 c0 -5 -5
-10 -11 -10 -5 0 -7 5 -4 10 3 6 8 10 11 10 2 0 4 -4 4 -10z"/>
<path d="M2949 3298 c-16 -10 -29 -24 -29 -32 0 -23 49 -57 69 -47 21 11 160
21 165 12 8 -12 77 -12 92 0 14 12 10 55 -8 74 -5 6 -64 10 -135 10 -102 0
-131 -3 -154 -17z"/>
<path d="M3060 3183 c-16 -20 -19 -34 -14 -57 13 -63 37 -81 82 -65 19 7 22
16 22 57 0 38 -5 53 -23 70 -30 29 -41 28 -67 -5z"/>
<path d="M1032 1113 c-7 -3 -22 -24 -33 -46 -27 -53 -23 -51 -51 -36 -37 22
-64 20 -76 -4 -18 -35 -9 -65 27 -95 l33 -28 -24 -29 c-51 -63 -70 -133 -48
-175 6 -11 40 -33 76 -50 36 -18 68 -38 71 -46 3 -8 12 -14 19 -14 8 0 26 -7
40 -16 23 -16 26 -16 48 5 22 20 23 28 19 122 l-3 100 28 -19 c15 -10 35 -22
45 -25 27 -10 52 20 48 57 -3 33 -45 86 -69 86 -29 0 -42 27 -36 74 4 36 1 49
-15 65 -11 11 -21 32 -23 48 -2 23 -8 28 -33 29 -16 0 -36 -1 -43 -3z"/>
<path d="M3995 1090 c-4 -6 -11 -8 -16 -5 -5 4 -10 0 -10 -7 -7 -61 -5 -85 7
-102 29 -41 14 -47 -32 -11 -26 19 -51 35 -56 35 -5 0 -19 -12 -32 -27 -19
-22 -22 -31 -12 -47 13 -23 47 -55 59 -56 16 0 116 -84 125 -104 21 -45 42
-115 62 -209 11 -54 27 -115 35 -134 8 -20 15 -44 15 -55 0 -11 9 -58 20 -104
11 -46 19 -87 18 -91 -5 -19 23 -52 40 -47 63 21 64 23 43 109 -6 22 -15 63
-21 90 -7 28 -22 84 -35 126 -13 42 -27 91 -30 110 -11 62 -24 113 -45 176
-25 77 -58 213 -65 273 -3 26 -12 50 -23 57 -9 7 -22 17 -29 23 -8 6 -14 6
-18 0z"/>
<path d="M2133 932 c-31 -27 -38 -52 -39 -142 -4 -267 -22 -443 -54 -549 -35
-113 -21 -167 36 -139 32 16 48 61 70 198 8 52 16 105 19 118 2 12 5 64 6 114
2 90 2 91 38 127 20 20 55 51 78 70 24 18 50 45 60 61 9 16 26 34 38 40 19 10
22 24 16 76 -1 13 -45 24 -70 17 -9 -2 -26 -20 -36 -40 -22 -40 -81 -103 -97
-103 -10 0 -7 51 8 112 5 22 1 29 -24 42 -27 14 -31 14 -49 -2z"/>
</g>
</svg>
