<?xml version="1.0" standalone="no"?>
<!DOCTYPE svg PUBLIC "-//W3C//DTD SVG 20010904//EN"
 "http://www.w3.org/TR/2001/REC-SVG-20010904/DTD/svg10.dtd">
<svg version="1.0" xmlns="http://www.w3.org/2000/svg"
 width="409.000000pt" height="485.000000pt" viewBox="0 0 409.000000 485.000000"
 preserveAspectRatio="xMidYMid meet">
<metadata>
Created by potrace 1.16, written by Peter Selinger 2001-2019
</metadata>
<g transform="translate(0.000000,485.000000) scale(0.100000,-0.100000)"
fill="#000000" stroke="none">
<path d="M1610 4723 c-47 -8 -95 -26 -115 -42 -11 -10 -45 -32 -75 -50 -96
-57 -155 -121 -189 -210 -12 -28 -27 -62 -35 -74 -8 -12 -17 -49 -21 -82 -4
-33 -11 -68 -16 -77 -5 -9 -10 -30 -10 -45 -1 -15 -6 -57 -11 -92 -10 -70 2
-130 62 -325 16 -54 30 -109 30 -122 0 -13 4 -24 9 -24 5 0 13 -13 19 -28 11
-31 92 -120 132 -144 14 -8 49 -23 78 -33 49 -18 55 -26 51 -61 0 -3 7 -11 16
-18 13 -9 18 -31 19 -97 3 -81 2 -85 -26 -111 -16 -16 -40 -31 -54 -34 -13 -3
-54 -22 -91 -40 -36 -19 -72 -34 -80 -34 -18 0 -31 -35 -53 -143 -10 -49 -24
-95 -31 -103 -6 -8 -8 -14 -4 -14 4 0 2 -6 -4 -14 -6 -7 -13 -33 -16 -57 -3
-24 -7 -62 -10 -84 -3 -22 -8 -73 -12 -113 -3 -40 -10 -75 -14 -78 -5 -3 -9
-38 -9 -78 0 -40 -3 -76 -7 -79 -3 -4 -7 -17 -9 -29 -1 -13 -8 -54 -14 -93 -6
-38 -14 -90 -17 -115 -3 -25 -9 -52 -13 -60 -4 -8 -8 -44 -9 -80 -3 -110 -8
-125 -42 -127 -16 -1 -37 -9 -45 -18 -9 -8 -20 -15 -25 -15 -5 0 -25 -16 -43
-35 -19 -19 -39 -35 -45 -35 -6 0 -11 -6 -11 -13 0 -8 -11 -20 -25 -27 -14 -7
-25 -20 -25 -28 0 -7 -8 -26 -19 -40 -10 -15 -24 -46 -31 -70 -7 -23 -17 -42
-21 -42 -4 0 -7 -17 -6 -38 1 -20 -2 -42 -6 -48 -3 -6 -13 -37 -21 -68 -18
-68 -9 -181 25 -316 6 -25 14 -52 17 -60 3 -8 6 -17 6 -20 1 -3 6 -12 11 -20
24 -36 36 -58 60 -108 26 -55 81 -117 125 -141 74 -40 244 -48 319 -15 34 15
40 23 56 78 10 33 21 66 25 71 15 20 39 174 45 287 6 102 4 121 -11 148 -10
16 -22 30 -27 30 -5 0 -7 7 -3 15 3 8 -1 33 -9 56 -8 23 -15 71 -15 108 -1
114 -35 227 -82 275 -9 9 -21 16 -27 16 -5 0 -18 13 -28 30 -9 16 -21 30 -26
30 -5 0 -5 10 -1 23 4 12 8 40 10 62 4 77 15 170 24 200 12 41 29 157 35 235
3 36 8 72 11 81 5 18 9 47 19 139 4 30 11 80 17 110 6 30 11 66 12 80 4 52 58
205 77 219 10 7 19 21 19 31 0 13 25 30 83 58 l82 40 3 -36 c1 -20 5 -44 9
-52 3 -8 7 -69 9 -135 5 -238 7 -280 15 -305 4 -14 10 -63 13 -110 3 -47 8
-96 12 -110 4 -14 8 -92 9 -175 1 -82 5 -161 10 -175 4 -14 9 -61 10 -105 1
-44 5 -88 10 -97 10 -24 12 -185 3 -223 -18 -73 -27 -125 -33 -190 -3 -38 -10
-92 -16 -120 -21 -108 -29 -151 -33 -185 -2 -19 -11 -66 -20 -105 -8 -38 -16
-94 -16 -123 0 -29 -4 -62 -10 -72 -12 -22 -26 -194 -29 -367 -1 -29 -5 -33
-38 -39 -21 -4 -42 -10 -48 -14 -5 -4 -31 -10 -57 -13 -38 -5 -48 -4 -48 8 0
20 -15 27 -45 19 -15 -4 -25 -13 -25 -24 0 -10 -7 -23 -15 -30 -19 -16 -19
-34 1 -76 14 -30 21 -34 43 -30 14 3 53 8 86 12 33 3 74 12 92 19 17 7 33 11
36 9 2 -3 17 1 33 7 16 7 34 12 39 11 6 -1 25 11 43 28 29 26 32 34 26 67 -3
21 -6 56 -7 78 -2 69 14 318 23 355 4 19 11 58 15 85 3 28 10 64 15 80 5 17
11 61 14 98 3 38 8 72 11 77 13 21 49 244 50 308 0 23 3 42 8 42 4 0 7 11 7
25 0 14 5 25 10 25 6 0 10 -12 10 -27 0 -16 11 -50 25 -78 13 -27 25 -54 25
-59 0 -5 15 -47 34 -95 19 -47 40 -108 46 -136 7 -27 15 -59 20 -70 17 -41 24
-60 26 -75 9 -56 27 -137 34 -150 11 -23 44 -134 42 -142 -1 -4 9 -33 23 -64
14 -31 25 -65 25 -76 0 -10 7 -32 15 -48 16 -32 29 -105 27 -155 -1 -16 5 -38
12 -48 19 -24 66 -36 96 -25 21 8 126 14 291 17 23 1 46 10 64 25 l29 25 -20
38 c-33 66 -76 90 -107 59 -17 -17 -70 -26 -179 -29 -72 -2 -78 -1 -78 18 0
27 -54 203 -74 240 -9 17 -16 37 -16 45 0 9 -4 20 -9 25 -5 6 -16 46 -25 90
-9 44 -21 84 -26 89 -6 6 -10 20 -10 32 0 12 -7 41 -16 65 -9 24 -17 51 -18
59 -15 100 -20 120 -25 120 -4 0 -7 9 -8 20 -1 11 -15 49 -31 83 -28 59 -76
198 -102 297 -7 25 -30 89 -51 144 -22 54 -39 111 -39 126 0 16 -5 41 -11 57
-6 15 -13 42 -15 58 -2 17 -6 41 -9 55 -3 14 -7 98 -10 188 -2 89 -9 171 -15
181 -5 11 -10 41 -10 68 0 26 -5 80 -11 118 -5 39 -12 135 -14 214 -2 80 -7
164 -11 189 -6 43 -6 43 14 31 12 -8 26 -25 32 -39 6 -14 23 -39 38 -55 15
-17 40 -50 55 -75 47 -77 52 -85 58 -90 6 -5 29 -45 81 -145 53 -101 68 -134
68 -148 0 -8 9 -26 20 -40 22 -28 73 -34 100 -12 13 10 86 42 100 43 9 1 64
22 85 33 12 5 28 11 37 13 9 1 22 7 29 13 23 19 226 117 244 118 10 0 30 15
69 53 26 25 38 86 22 106 -14 18 -54 27 -62 14 -3 -5 -12 -7 -19 -5 -6 3 -19
-3 -28 -14 -9 -10 -28 -19 -41 -19 -14 0 -32 -10 -40 -22 -9 -12 -16 -19 -16
-15 0 4 -12 -3 -26 -17 -15 -13 -50 -36 -78 -50 -28 -15 -58 -30 -66 -35 -32
-20 -207 -91 -222 -91 -11 0 -38 56 -31 64 4 3 -1 12 -9 19 -9 6 -28 35 -43
62 -15 28 -36 62 -47 77 -10 15 -21 37 -23 48 -2 11 -15 30 -28 42 -14 13 -33
39 -43 59 -11 20 -46 76 -79 125 -33 49 -60 91 -60 94 0 3 -4 11 -8 18 -5 6
-5 12 0 12 4 0 1 5 -7 10 -8 5 -16 14 -16 20 -1 5 -2 15 -3 20 0 6 -13 10 -28
10 -50 0 -55 10 -52 106 1 49 0 95 -2 103 -3 10 15 21 56 36 87 31 125 53 168
96 21 22 42 39 45 39 22 0 122 196 163 320 64 193 83 508 38 607 -10 23 -19
45 -19 48 0 18 -148 165 -165 165 -8 0 -15 4 -15 9 0 5 -30 23 -67 41 -56 26
-82 32 -148 35 -44 1 -91 0 -105 -2z m163 -132 c20 -10 48 -22 61 -25 41 -10
145 -96 171 -141 28 -48 45 -168 38 -270 -2 -33 -4 -67 -5 -75 -2 -40 -53
-232 -75 -285 -42 -99 -67 -147 -80 -152 -7 -3 -13 -9 -13 -14 0 -19 -45 -70
-80 -91 -77 -48 -112 -59 -189 -59 -90 0 -136 16 -189 69 -49 48 -74 104 -112
252 -7 25 -16 53 -21 63 -5 10 -7 22 -4 27 3 5 0 22 -8 37 -17 33 -22 138 -9
173 5 14 13 52 16 85 9 77 20 115 59 195 28 58 115 160 136 160 5 0 24 11 43
24 51 35 86 44 158 45 46 1 77 -5 103 -18z m-733 -3031 c0 -53 0 -53 21 -68
34 -24 72 -11 92 31 21 43 32 46 48 15 6 -13 19 -31 28 -41 9 -11 14 -31 13
-48 -2 -16 0 -29 5 -29 5 0 10 -29 11 -63 3 -59 1 -65 -23 -81 -14 -9 -30 -14
-35 -11 -5 3 -24 2 -42 -3 -18 -5 -62 -6 -98 -2 -45 5 -73 3 -90 -6 -14 -7
-43 -11 -64 -9 -21 2 -49 0 -62 -5 -28 -11 -31 1 -12 47 6 15 10 36 9 45 -1
10 5 28 13 40 9 12 16 31 16 42 0 57 55 134 124 172 38 21 46 16 46 -26z m110
-402 c0 -8 -19 -13 -74 -23 -21 -3 -47 -11 -56 -18 -13 -8 -22 -8 -32 0 -7 6
-39 9 -70 7 -33 -1 -60 2 -64 8 -10 15 16 27 46 22 14 -3 43 -1 65 4 45 11
185 11 185 0z m135 -79 c0 -8 4 -19 8 -26 10 -15 2 -165 -13 -233 -6 -30 -21
-78 -33 -107 -18 -43 -28 -53 -52 -59 -16 -3 -35 -10 -41 -15 -7 -6 -16 -4
-23 5 -7 8 -18 13 -25 10 -7 -3 -26 2 -42 11 -16 8 -35 15 -42 15 -16 0 -92
79 -92 96 0 8 -3 14 -8 14 -4 0 -13 15 -20 33 -7 17 -25 57 -40 87 -14 30 -29
74 -32 98 -6 36 -4 42 9 38 23 -7 198 -9 251 -3 47 5 100 25 112 42 5 6 11 6
19 -2 9 -9 15 -8 27 3 17 17 37 14 37 -7z"/>
<path d="M3037 4005 c-4 -8 -13 -12 -22 -9 -8 3 -15 1 -15 -5 0 -6 -19 -11
-45 -11 -25 0 -45 -4 -45 -10 0 -5 -9 -10 -20 -10 -24 0 -44 -34 -36 -65 5
-18 1 -24 -17 -29 -43 -10 -65 -134 -34 -192 8 -16 23 -50 32 -76 9 -27 20
-48 23 -48 4 0 13 -14 21 -30 13 -32 8 -66 -9 -55 -5 3 -12 -7 -16 -22 -3 -15
-8 -36 -10 -45 -9 -32 -15 -63 -19 -103 -3 -22 -9 -76 -15 -120 -5 -44 -12
-118 -15 -165 -3 -47 -7 -98 -10 -115 -5 -40 -23 -236 -23 -255 0 -15 -15
-117 -32 -220 -5 -30 -12 -90 -16 -134 -3 -43 -9 -88 -14 -100 -4 -12 -11 -53
-14 -91 -11 -109 -16 -147 -26 -190 -5 -22 -10 -61 -10 -87 0 -26 -4 -58 -10
-73 -17 -45 -44 -230 -36 -244 3 -5 -1 -31 -9 -59 -8 -27 -18 -74 -20 -103 -3
-30 -8 -74 -10 -99 -3 -25 -7 -55 -9 -67 -7 -32 -16 -103 -20 -148 -2 -22 -6
-47 -9 -55 -3 -8 -8 -24 -12 -35 -9 -24 -16 -80 -16 -117 0 -15 -4 -30 -8 -33
-10 -6 10 -55 22 -55 4 0 7 -6 7 -14 0 -11 6 -12 36 -1 52 18 58 33 70 195 3
47 10 92 14 100 4 8 10 52 14 97 3 45 8 87 10 95 3 7 7 48 11 90 5 78 21 173
30 187 2 5 6 54 9 109 3 55 9 109 14 119 12 23 25 95 27 148 0 22 8 74 17 115
9 41 18 102 19 135 0 33 9 105 20 160 20 113 29 178 35 262 2 32 10 119 18
193 8 74 17 171 21 215 4 43 8 82 10 85 2 4 7 42 10 86 3 43 8 88 10 99 2 11
5 38 6 60 1 22 6 -5 10 -60 4 -55 10 -116 13 -135 2 -19 5 -45 5 -57 1 -12 7
-28 14 -35 15 -15 27 -91 30 -186 2 -58 5 -66 44 -111 l43 -50 75 6 c62 4 76
2 81 -10 3 -9 12 -13 20 -10 8 3 14 1 14 -4 0 -22 66 -41 111 -33 24 5 47 6
50 4 9 -5 26 16 51 63 13 24 22 62 24 103 4 73 21 196 29 209 17 28 5 101 -27
171 -42 88 -45 97 -54 170 -8 60 -8 71 -20 334 -7 176 -8 181 -36 223 -16 23
-33 45 -39 48 -5 4 -9 14 -9 23 0 23 -40 59 -86 78 -36 15 -93 15 -173 -1 -14
-2 -30 0 -37 5 -8 7 -13 6 -17 -5z m223 -119 c8 -16 25 -40 38 -54 12 -14 22
-31 22 -38 0 -8 4 -14 9 -14 5 0 9 -19 9 -42 0 -24 1 -71 1 -106 1 -34 8 -81
16 -105 9 -27 11 -54 7 -77 -10 -44 -5 -135 7 -158 5 -10 9 -38 9 -64 0 -25 6
-57 13 -70 7 -12 12 -27 11 -32 -2 -5 1 -12 6 -15 6 -3 19 -33 30 -67 16 -49
18 -69 10 -105 -5 -24 -12 -66 -15 -94 -7 -63 -22 -95 -23 -47 0 18 -7 46 -14
61 -9 17 -16 62 -17 115 -1 71 -6 95 -27 134 -14 26 -29 70 -33 98 -4 29 -13
67 -21 85 -8 19 -25 66 -38 104 -20 62 -21 76 -11 129 18 95 15 124 -11 128
-21 3 -23 8 -23 73 0 39 4 91 9 118 8 46 8 47 -18 47 l-26 0 0 -99 c0 -105 12
-156 39 -171 16 -8 17 -16 8 -67 -14 -88 -11 -129 14 -186 27 -64 38 -105 45
-182 4 -43 12 -65 26 -78 17 -14 21 -32 24 -95 4 -98 14 -172 26 -195 5 -9 11
-44 15 -77 5 -51 3 -61 -12 -66 -10 -4 -29 0 -43 8 -21 13 -26 24 -28 62 -1
25 -7 52 -13 60 -8 9 -11 45 -10 93 1 62 -3 86 -19 118 -12 22 -24 65 -28 95
-3 30 -9 59 -11 63 -3 5 -5 50 -4 101 1 79 -1 95 -17 110 -11 9 -26 14 -35 10
-12 -4 -18 4 -27 35 -15 57 -35 66 -27 12 7 -52 31 -91 57 -91 18 0 20 -7 20
-77 0 -103 19 -244 36 -264 18 -20 23 -54 27 -176 l4 -101 -65 -4 c-96 -5
-107 11 -118 171 -5 77 -11 104 -24 116 -14 12 -17 26 -13 55 3 24 -1 54 -10
78 -9 23 -15 69 -15 119 0 83 -14 165 -37 218 -43 96 -55 126 -64 161 -5 22
-15 58 -21 80 -10 35 -9 46 5 67 9 14 24 27 33 29 13 4 17 -3 19 -30 1 -19 9
-42 17 -51 9 -10 16 -24 16 -32 0 -8 5 -20 11 -26 14 -14 20 -120 8 -152 -7
-17 -7 -27 0 -29 6 -2 11 -12 11 -21 0 -23 33 -53 51 -46 15 6 15 5 19 -120 1
-44 6 -88 12 -99 13 -24 18 -58 23 -153 4 -82 7 -104 24 -192 6 -29 11 -71 11
-93 0 -27 4 -38 13 -35 17 6 11 166 -8 187 -10 11 -16 56 -20 155 -4 77 -11
145 -15 150 -5 6 -9 29 -8 51 0 23 -3 73 -7 113 -5 55 -11 74 -26 82 -10 5
-19 6 -19 2 0 -4 -7 0 -15 10 -9 13 -12 35 -8 73 6 52 -13 141 -38 184 -21 34
-20 43 2 85 24 45 62 64 52 26 -9 -35 54 -242 78 -257 8 -4 9 -3 5 4 -25 40
-45 198 -34 267 5 34 18 40 86 40 63 0 67 -2 82 -29z"/>
</g>
</svg>
