<?xml version="1.0" standalone="no"?>
<!DOCTYPE svg PUBLIC "-//W3C//DTD SVG 20010904//EN"
 "http://www.w3.org/TR/2001/REC-SVG-20010904/DTD/svg10.dtd">
<svg version="1.0" xmlns="http://www.w3.org/2000/svg"
 width="471.000000pt" height="445.000000pt" viewBox="0 0 471.000000 445.000000"
 preserveAspectRatio="xMidYMid meet">
<metadata>
Created by potrace 1.16, written by Peter Selinger 2001-2019
</metadata>
<g transform="translate(0.000000,445.000000) scale(0.100000,-0.100000)"
fill="#000000" stroke="none">
<path d="M3505 4188 c-16 -5 -43 -16 -58 -24 -16 -8 -37 -14 -47 -14 -34 0
-89 -60 -126 -136 -45 -94 -73 -282 -57 -380 12 -68 73 -225 97 -249 9 -9 16
-19 16 -23 1 -19 81 -92 125 -113 64 -30 191 -38 246 -15 42 18 135 86 153
112 36 52 92 245 67 230 -5 -4 -5 9 0 32 28 110 8 286 -43 382 -27 52 -91 120
-136 145 -38 22 -183 67 -201 64 -3 -1 -19 -6 -36 -11z m144 -114 c3 -5 19
-16 36 -24 112 -56 162 -193 150 -409 -3 -53 -8 -105 -11 -116 -10 -36 -46
-110 -63 -129 -27 -31 -88 -65 -128 -72 -74 -12 -201 40 -211 85 -1 7 -10 20
-18 28 -46 47 -109 237 -99 303 2 14 9 61 16 105 12 79 52 180 68 171 4 -3 21
8 36 24 15 16 31 28 34 26 4 -3 17 2 31 10 27 16 147 14 159 -2z"/>
<path d="M2105 3684 c-22 -8 -56 -19 -75 -24 -19 -5 -36 -14 -38 -19 -2 -6 -8
-11 -13 -11 -33 0 -169 -213 -169 -266 0 -12 -5 -35 -11 -50 -10 -28 -14 -151
-5 -189 37 -168 56 -210 123 -278 53 -54 81 -71 136 -81 42 -8 45 -18 26 -106
-10 -46 -18 -55 -43 -51 -5 1 -32 4 -61 6 -29 3 -65 9 -79 15 -32 12 -72 4
-103 -20 -17 -13 -33 -16 -70 -11 -26 4 -177 7 -335 6 -159 0 -288 2 -288 5 0
3 -18 16 -40 30 -22 14 -40 28 -40 32 0 5 -3 7 -7 6 -5 -1 -21 4 -36 10 -16 7
-33 12 -39 12 -6 0 -19 6 -27 14 -18 15 -129 51 -148 47 -7 -1 -13 3 -13 10 0
8 -20 9 -67 4 -38 -4 -84 -8 -105 -10 -41 -4 -156 -54 -194 -84 -15 -12 -30
-18 -35 -15 -5 3 -9 2 -9 -3 0 -4 -17 -19 -38 -33 -34 -23 -82 -70 -131 -130
-11 -14 -25 -30 -31 -37 -17 -21 -65 -127 -87 -193 -43 -130 -46 -247 -11
-385 11 -43 24 -86 29 -95 4 -8 22 -45 39 -82 28 -62 95 -148 114 -148 5 0 27
-16 50 -36 51 -43 87 -67 146 -95 58 -27 98 -42 120 -46 34 -5 200 -4 225 2
135 33 166 45 244 98 48 33 171 155 171 170 0 6 11 24 24 42 53 69 96 254 96
410 l0 74 48 -5 c68 -6 94 -10 117 -17 38 -12 80 -19 125 -23 25 -1 74 -9 110
-15 36 -7 68 -12 71 -12 3 1 7 -46 9 -105 2 -113 3 -135 15 -277 5 -49 8 -144
7 -210 -1 -146 -22 -211 -104 -337 -30 -45 -68 -103 -84 -127 -42 -63 -41 -63
-56 -98 -7 -18 -18 -33 -24 -33 -15 0 -26 -41 -15 -54 5 -6 19 -39 31 -74 13
-34 27 -65 31 -68 11 -6 43 -78 80 -178 15 -43 32 -83 37 -90 5 -6 18 -38 29
-72 l20 -60 -61 4 c-33 3 -72 10 -86 17 -28 14 -33 11 -62 -43 -10 -18 -15
-39 -12 -47 7 -17 63 -47 74 -40 5 3 38 8 74 11 46 4 74 1 98 -9 18 -9 48 -17
65 -19 31 -4 33 -2 41 36 6 35 3 49 -29 113 -20 40 -39 85 -42 101 -5 26 -124
309 -153 364 -8 14 -14 39 -14 56 0 28 48 131 88 189 50 72 112 174 142 235
35 68 47 78 105 78 17 0 66 12 110 26 82 27 106 30 284 40 98 6 104 5 97 -12
-4 -11 -13 -39 -19 -64 -6 -25 -20 -58 -29 -75 -10 -16 -21 -38 -24 -47 -4
-10 -10 -18 -15 -18 -5 0 -9 -5 -9 -10 0 -13 -34 -64 -68 -102 -19 -21 -23
-33 -17 -57 4 -17 10 -31 15 -31 4 0 10 -8 14 -17 3 -10 11 -27 18 -37 7 -11
28 -45 47 -75 19 -30 50 -75 69 -100 19 -25 38 -54 42 -66 4 -11 31 -46 58
-77 28 -32 54 -68 57 -80 4 -13 14 -31 23 -40 14 -16 13 -20 -9 -42 -35 -35
-46 -50 -53 -73 -4 -12 -18 -23 -34 -26 -36 -8 -68 -78 -50 -111 26 -49 63
-48 111 3 20 22 37 44 37 49 0 6 10 23 23 39 13 15 27 36 30 46 4 11 15 21 25
24 10 2 26 19 36 37 26 48 12 77 -116 239 -30 37 -63 84 -73 105 -11 20 -25
42 -31 47 -15 14 -77 112 -102 161 l-21 40 26 45 c99 173 153 291 153 336 0
13 -6 34 -14 46 -11 17 -13 33 -5 71 10 55 15 160 25 496 6 208 9 270 13 324
1 12 21 14 114 11 61 -2 146 -5 187 -6 90 -3 136 16 146 59 3 15 19 65 36 112
16 47 46 133 66 192 21 59 40 108 45 108 4 0 7 -47 7 -105 0 -58 6 -149 14
-203 8 -53 17 -129 20 -169 l5 -72 -42 -12 c-23 -7 -46 -16 -52 -20 -5 -3 -26
-10 -45 -14 -19 -4 -44 -14 -55 -21 -12 -8 -36 -15 -55 -17 -22 -3 -40 -13
-53 -32 -23 -31 -18 -46 25 -78 24 -18 25 -18 70 6 25 13 59 29 74 35 16 6 53
20 83 31 30 11 56 19 58 18 1 -2 6 -64 9 -138 4 -74 8 -141 9 -149 1 -8 0 -19
-4 -25 -13 -23 -10 -51 9 -78 21 -27 21 -29 4 -80 -16 -49 -49 -120 -67 -142
-5 -5 -55 -104 -112 -219 -72 -145 -101 -213 -95 -222 6 -6 13 -31 16 -55 3
-24 12 -57 20 -72 7 -16 27 -88 44 -160 43 -182 55 -226 96 -350 19 -60 34
-110 32 -112 -10 -11 -189 -52 -193 -45 -3 5 -19 4 -36 -2 -28 -10 -59 -59
-59 -94 0 -18 33 -47 57 -51 17 -2 61 14 73 28 6 6 132 45 179 54 99 20 126
72 83 159 -23 48 -67 172 -76 218 -3 13 -12 48 -21 78 -9 30 -21 75 -26 100
-6 25 -25 92 -42 150 -37 124 -41 198 -13 229 11 12 16 21 13 21 -3 0 5 22 18
49 14 27 25 52 25 56 0 3 26 54 59 113 32 59 75 145 96 192 72 166 53 146 151
154 47 3 95 11 107 17 11 7 80 13 157 14 75 1 142 5 148 9 6 3 13 2 17 -4 4
-6 11 -7 17 -4 8 5 9 -1 4 -17 -3 -13 -13 -62 -22 -109 -8 -47 -17 -94 -21
-105 -3 -11 -6 -22 -5 -25 0 -3 -5 -12 -12 -20 -12 -14 -25 -46 -89 -220 -11
-30 -31 -69 -44 -86 -29 -39 -29 -76 2 -139 13 -27 25 -55 25 -62 0 -7 12 -34
26 -60 28 -53 61 -135 94 -233 12 -36 32 -83 45 -105 12 -22 26 -60 29 -85 4
-25 11 -54 16 -65 4 -11 13 -33 18 -50 6 -16 13 -38 17 -47 5 -14 -2 -18 -42
-24 -26 -3 -64 -13 -83 -22 -19 -8 -45 -14 -56 -14 -60 4 -72 -103 -15 -133
26 -13 30 -12 62 15 19 16 43 29 54 30 11 0 52 11 90 25 39 13 78 25 88 25 9
0 17 5 17 11 0 5 4 8 8 5 15 -9 4 86 -12 103 -18 19 -66 150 -66 178 0 10 -13
45 -29 78 -15 33 -43 103 -61 155 -18 52 -46 121 -61 152 -78 156 -86 208 -43
303 13 31 24 62 24 70 0 8 4 15 8 15 5 0 15 19 22 43 7 23 20 60 30 82 20 44
39 101 45 137 3 13 10 46 17 73 7 29 11 101 9 168 -1 65 5 178 13 250 9 73 18
181 21 240 3 60 7 112 10 117 3 5 7 41 10 82 3 40 8 101 10 136 3 35 7 67 10
71 2 4 5 65 6 135 1 110 -1 129 -17 147 -10 11 -23 17 -31 15 -7 -3 -34 1 -60
8 -26 8 -104 17 -173 20 -69 4 -147 10 -175 13 -63 9 -238 8 -375 -1 -121 -8
-135 -17 -145 -94 -3 -26 -24 -103 -46 -172 -21 -69 -39 -129 -39 -133 0 -5
-16 -43 -36 -85 -38 -80 -48 -105 -58 -134 -5 -17 -55 -25 -116 -20 -38 3 -95
10 -95 12 0 1 -20 3 -45 6 -78 7 -108 14 -112 26 -3 7 -28 11 -69 9 -35 -1
-95 3 -134 9 -38 6 -83 12 -100 15 -104 14 -112 19 -110 73 4 125 0 116 58
137 37 15 71 40 122 91 61 61 73 80 95 145 22 65 25 91 25 209 -1 74 -3 142
-6 150 -3 8 -13 40 -23 70 -39 121 -94 197 -171 234 -49 24 -124 28 -170 10z
m122 -101 c3 -7 11 -13 17 -13 15 0 87 -83 99 -114 22 -54 40 -135 38 -173 0
-24 3 -62 8 -86 8 -32 6 -54 -5 -87 -39 -120 -89 -196 -145 -226 -48 -24 -114
-35 -151 -23 -76 24 -89 33 -123 85 -32 48 -77 154 -73 172 1 4 -2 33 -7 66
-6 44 -3 73 10 120 38 136 75 191 170 256 52 35 66 40 109 38 29 -1 50 -7 53
-15z m1448 -559 c192 -12 235 -16 235 -23 0 -4 -16 -34 -36 -67 -20 -32 -46
-77 -59 -99 -12 -22 -39 -68 -59 -102 -20 -34 -36 -66 -36 -72 0 -6 -20 -42
-45 -81 -25 -39 -45 -74 -45 -79 0 -4 -9 -16 -20 -26 -11 -10 -20 -23 -20 -30
0 -16 -33 -31 -107 -50 -34 -8 -82 -24 -107 -34 l-44 -20 -6 22 c-3 12 -8 54
-11 92 -3 39 -10 106 -15 150 -6 44 -13 146 -16 226 -8 186 -8 184 127 193 51
4 95 8 97 10 2 2 18 2 35 0 18 -2 77 -7 132 -10z m350 -141 c-3 -42 -7 -83
-10 -92 -2 -9 -7 -65 -10 -124 -2 -59 -7 -112 -10 -117 -3 -5 -8 -26 -10 -47
-3 -21 -7 -54 -10 -73 -3 -19 -10 -100 -15 -180 -15 -227 -24 -289 -43 -291
-25 -3 -96 -8 -207 -17 -64 -4 -120 -11 -126 -14 -13 -9 -178 -22 -222 -19 -8
1 -12 13 -11 34 1 36 -9 213 -16 270 -4 29 -2 37 11 37 9 0 38 11 65 25 27 13
49 22 49 19 0 -2 8 -1 18 5 9 5 40 12 67 15 92 13 94 14 126 84 16 37 33 69
37 72 16 12 81 119 107 175 15 33 46 89 69 125 24 36 58 89 77 117 19 29 40
53 47 53 7 0 10 5 7 10 -3 6 -2 10 4 10 6 0 8 -30 6 -77z m-3319 -224 c3 -5
16 -9 29 -9 27 0 138 -40 143 -52 2 -4 12 -8 23 -8 38 0 139 -65 139 -89 0 -6
12 -18 28 -28 45 -29 53 -40 89 -126 29 -69 35 -98 40 -183 6 -109 -9 -246
-32 -291 -8 -16 -15 -36 -15 -47 0 -43 -84 -154 -171 -226 -56 -47 -113 -72
-196 -86 -15 -3 -44 -9 -63 -14 -19 -6 -65 -10 -102 -10 -62 0 -76 4 -165 50
-102 53 -202 126 -203 148 0 7 -7 15 -15 18 -8 4 -15 10 -15 15 0 4 -13 31
-29 58 -33 55 -58 144 -69 242 -8 66 13 213 36 254 6 11 21 43 34 70 59 130
198 249 358 304 57 20 146 26 156 10z m940 -152 c3 -3 20 -3 37 -1 18 3 38 1
46 -4 16 -11 38 -138 40 -234 l2 -68 -29 0 c-15 0 -32 4 -38 9 -5 5 -38 11
-74 14 -36 3 -73 8 -82 12 -9 4 -45 13 -80 21 -63 14 -71 16 -138 28 -43 9
-42 7 -69 86 -13 36 -32 80 -42 98 -24 41 -24 40 4 44 36 5 418 1 423 -5z
m359 -2 c33 -4 80 -7 105 -7 25 -1 52 -6 60 -13 8 -7 53 -18 100 -24 47 -6
100 -15 119 -19 l34 -7 -31 -27 c-18 -15 -32 -30 -32 -33 0 -7 -37 -39 -124
-108 -34 -26 -66 -52 -73 -57 -7 -6 -15 -10 -19 -10 -3 0 -17 -9 -31 -20 -14
-11 -32 -20 -40 -20 -8 0 -21 -6 -28 -14 -12 -11 -23 -11 -67 -1 -82 19 -118
41 -119 73 -1 15 -3 41 -5 57 -2 17 -5 73 -7 125 l-3 95 41 11 c22 6 45 9 50
8 6 -1 37 -6 70 -9z m497 -262 c-10 -438 -17 -569 -33 -639 l-12 -50 -91 -12
c-50 -7 -109 -12 -132 -12 -23 0 -77 -12 -120 -26 -43 -14 -109 -28 -146 -31
-61 -5 -68 -3 -69 13 0 11 -3 30 -5 44 -2 14 -4 39 -3 55 1 17 2 39 2 50 1 20
-13 187 -18 215 -9 50 -16 240 -9 240 5 0 18 -7 28 -15 11 -8 29 -15 41 -15
30 0 75 -23 75 -37 0 -24 50 -13 83 17 17 17 65 55 105 85 41 29 92 70 115 90
94 81 182 154 187 155 3 0 4 -57 2 -127z"/>
<path d="M840 2369 c-30 -17 -60 -38 -66 -46 -19 -23 5 -163 27 -163 5 0 9 -6
9 -14 0 -23 56 -39 118 -33 31 3 58 11 60 17 2 5 11 10 21 10 9 0 27 9 39 20
57 54 -6 208 -92 225 -17 4 -38 8 -46 11 -8 2 -40 -10 -70 -27z m130 -124 c0
-16 -48 -42 -71 -37 -16 3 -29 30 -29 59 0 17 41 21 73 6 15 -8 27 -20 27 -28z"/>
<path d="M511 2383 c-18 -7 -47 -30 -89 -70 -33 -32 -34 -35 -29 -95 2 -35 6
-70 9 -79 7 -28 52 -67 88 -77 75 -19 191 48 211 122 21 78 20 94 -9 115 -15
12 -34 27 -42 35 -18 17 -100 56 -114 55 -6 0 -17 -3 -25 -6z m76 -121 l32
-28 -22 -32 c-38 -56 -99 -54 -104 3 -2 30 31 85 50 85 7 -1 27 -13 44 -28z"/>
<path d="M894 1958 c-12 -10 -34 -18 -48 -18 -16 0 -40 -14 -66 -38 -36 -35
-40 -44 -40 -87 0 -51 31 -115 55 -115 7 0 15 -6 18 -12 2 -9 25 -13 69 -12
75 1 149 32 182 76 25 35 24 132 -2 168 -42 56 -121 74 -168 38z m73 -90 c22
-45 22 -68 2 -79 -11 -5 -23 -7 -28 -4 -5 3 -11 0 -13 -7 -3 -9 -14 -10 -44
-3 -30 8 -40 15 -42 34 -4 27 6 40 38 46 12 2 32 11 44 19 28 20 31 20 43 -6z"/>
<path d="M459 1947 c-85 -39 -118 -141 -73 -228 16 -33 95 -73 123 -64 9 3 31
7 49 9 111 13 140 178 45 261 -41 37 -93 45 -144 22z m90 -116 c26 -37 26 -47
0 -61 -50 -27 -104 20 -74 66 21 32 49 30 74 -5z"/>
</g>
</svg>
