<?xml version="1.0" standalone="no"?>
<!DOCTYPE svg PUBLIC "-//W3C//DTD SVG 20010904//EN"
 "http://www.w3.org/TR/2001/REC-SVG-20010904/DTD/svg10.dtd">
<svg version="1.0" xmlns="http://www.w3.org/2000/svg"
 width="503.000000pt" height="459.000000pt" viewBox="0 0 503.000000 459.000000"
 preserveAspectRatio="xMidYMid meet">
<metadata>
Created by potrace 1.16, written by Peter Selinger 2001-2019
</metadata>
<g transform="translate(0.000000,459.000000) scale(0.100000,-0.100000)"
fill="#000000" stroke="none">
<path d="M2709 4444 c-97 -11 -119 -18 -204 -69 -50 -29 -145 -119 -200 -189
-16 -21 -40 -50 -51 -65 -12 -14 -25 -42 -29 -61 -4 -19 -14 -45 -23 -58 -8
-12 -18 -40 -23 -60 -13 -66 -18 -82 -26 -95 -4 -6 -6 -21 -5 -32 1 -11 -11
-35 -26 -54 -25 -30 -34 -33 -76 -33 -26 1 -52 5 -59 9 -7 4 -16 8 -22 8 -5 1
-17 4 -25 8 -8 3 -35 11 -58 17 -27 7 -58 25 -80 48 -47 47 -82 50 -98 8 l-10
-30 -41 75 c-23 40 -49 94 -59 119 -27 70 -91 184 -108 195 -11 7 -19 4 -31
-10 -20 -26 -13 -81 15 -110 11 -12 20 -28 20 -37 0 -9 4 -18 8 -20 4 -1 25
-37 46 -78 21 -41 45 -82 52 -91 8 -8 14 -18 14 -22 0 -4 -36 -5 -80 -4 -56 1
-81 -2 -85 -10 -2 -7 -13 -13 -24 -13 -11 0 -23 -4 -26 -10 -3 -5 -15 -10 -26
-10 -23 0 -111 -38 -120 -51 -3 -5 -13 19 -23 53 -19 66 -59 176 -80 218 -9
19 -19 24 -40 23 -28 -2 -62 -33 -46 -43 15 -9 130 -244 130 -265 0 -18 -56
-65 -79 -65 -5 0 -19 33 -31 73 -11 39 -24 79 -27 87 -3 8 -5 20 -4 27 1 6 -3
14 -9 18 -5 3 -10 15 -10 25 0 46 -63 67 -81 27 -11 -24 8 -74 76 -197 13 -25
29 -58 34 -73 9 -25 8 -30 -9 -34 -11 -3 -20 -9 -20 -14 0 -5 -7 -9 -15 -9 -8
0 -18 17 -25 43 -46 182 -97 267 -147 244 -29 -13 -30 -46 -3 -75 11 -12 20
-25 20 -30 0 -4 6 -14 12 -21 7 -6 13 -15 14 -19 0 -4 19 -45 42 -92 l42 -85
-33 -27 c-38 -32 -46 -34 -54 -10 -3 9 -14 28 -24 42 -9 14 -17 28 -18 33 0 4
-14 33 -29 66 -16 32 -35 74 -41 93 -20 61 -79 71 -96 17 -6 -18 22 -79 36
-79 4 0 11 -10 15 -22 19 -63 113 -171 139 -162 8 4 15 2 15 -4 0 -13 -25 -33
-44 -36 -9 -1 -26 -11 -38 -23 -13 -11 -33 -26 -46 -33 -20 -10 -26 -9 -37 7
-8 10 -17 30 -20 45 -4 15 -15 45 -26 67 -10 22 -19 46 -19 53 0 7 -9 28 -20
46 -18 29 -18 33 -4 39 24 9 -49 32 -82 25 -24 -4 -26 -8 -20 -40 3 -19 10
-38 15 -41 15 -10 54 -69 92 -142 18 -35 40 -69 48 -75 12 -9 7 -16 -25 -38
-21 -14 -42 -26 -46 -26 -4 0 -14 15 -22 33 -52 113 -76 171 -76 182 0 13 -41
35 -65 35 -8 0 -21 -10 -29 -22 -17 -24 -12 -40 32 -87 15 -17 36 -47 47 -68
10 -21 27 -50 37 -65 21 -31 23 -58 4 -58 -7 0 -24 -11 -38 -25 l-25 -24 -20
42 c-51 104 -79 174 -75 190 1 4 -14 15 -34 23 -33 14 -37 14 -50 -3 -18 -23
-9 -60 20 -93 21 -23 52 -72 97 -155 16 -29 15 -30 -19 -67 -19 -21 -39 -38
-44 -38 -5 0 -24 35 -44 78 -19 42 -38 84 -43 92 -5 9 -12 29 -15 45 -4 17
-18 38 -31 48 -21 15 -28 15 -45 5 -24 -15 -26 -50 -5 -68 8 -7 15 -16 15 -21
0 -10 85 -153 111 -187 18 -23 16 -49 -5 -67 -7 -5 -19 -21 -28 -34 l-17 -24
-30 49 c-17 26 -31 55 -31 63 0 8 -6 22 -14 30 -7 9 -18 30 -24 47 -5 17 -22
50 -36 72 -22 35 -29 40 -48 33 -12 -4 -28 -17 -35 -27 -11 -17 -9 -24 15 -54
15 -19 45 -64 67 -100 21 -36 47 -74 57 -84 10 -11 18 -24 18 -30 0 -5 7 -17
15 -26 13 -14 12 -22 -4 -66 -17 -44 -17 -52 -4 -77 8 -15 16 -44 19 -63 2
-20 14 -50 27 -67 13 -18 29 -44 37 -59 7 -16 21 -28 31 -28 10 0 20 -10 24
-22 3 -13 10 -32 15 -43 4 -11 11 -28 14 -37 9 -31 82 -68 141 -72 97 -7 266
55 353 129 20 18 52 40 70 49 33 17 52 31 99 74 22 20 114 72 128 72 3 0 5 -5
5 -11 0 -7 8 -19 18 -28 16 -15 52 -80 52 -95 0 -4 17 -30 38 -59 45 -62 172
-273 172 -286 0 -5 3 -11 8 -13 21 -9 94 -153 81 -161 -2 -1 -26 -13 -52 -27
-27 -14 -63 -37 -81 -52 -37 -30 -81 -115 -90 -173 -4 -21 -13 -70 -22 -109
-8 -39 -17 -118 -19 -176 -3 -58 -7 -168 -10 -245 -3 -77 -8 -174 -11 -216 -3
-41 -7 -156 -9 -255 -2 -98 -6 -204 -10 -234 -6 -59 -41 -212 -54 -245 -13
-30 -13 -86 0 -101 28 -34 71 -2 76 56 3 32 9 61 16 80 3 8 8 35 12 60 3 25 8
63 11 85 3 22 8 47 10 55 3 8 8 114 10 235 2 121 7 243 9 270 7 72 14 180 20
340 9 217 12 253 23 283 10 27 31 104 36 132 5 33 47 99 66 105 11 3 20 10 20
15 0 5 17 12 38 15 20 3 44 10 52 14 11 6 24 -10 54 -68 21 -42 54 -98 72
-126 18 -27 52 -88 76 -135 25 -47 57 -107 73 -135 15 -27 46 -86 68 -130 21
-44 42 -82 47 -85 4 -3 19 -29 34 -57 21 -42 23 -53 11 -53 -19 0 -45 -40 -45
-71 0 -13 2 -42 5 -64 4 -22 7 -134 8 -250 2 -175 -1 -217 -15 -255 -14 -38
-60 -184 -63 -200 -9 -50 -19 -93 -30 -125 -7 -22 -16 -57 -19 -77 -6 -38 -6
-38 28 -38 36 0 45 11 52 65 2 17 9 46 14 65 5 19 19 76 31 125 12 50 25 92
29 95 10 6 31 82 37 130 3 19 6 137 7 262 1 195 6 256 19 237 2 -2 16 -31 31
-64 16 -33 36 -69 46 -80 10 -11 40 -60 65 -110 26 -49 80 -132 119 -184 81
-107 101 -136 118 -171 14 -28 54 -85 80 -114 16 -18 53 -100 91 -206 20 -54
63 -104 84 -96 8 3 19 6 24 6 16 0 10 67 -9 91 -10 13 -29 49 -41 79 -47 111
-66 146 -93 172 -15 14 -28 28 -28 31 0 9 -163 247 -190 277 -40 44 -56 70
-93 144 -21 45 -54 101 -72 126 -18 25 -45 72 -60 105 -15 33 -33 73 -41 88
-8 16 -14 33 -14 39 0 5 -20 42 -44 82 -24 40 -60 106 -80 147 -20 41 -47 92
-61 114 -13 22 -41 74 -61 115 -38 78 -122 212 -136 218 -5 2 -6 8 -2 13 3 5
-2 19 -10 31 -9 12 -16 29 -16 36 0 8 -12 31 -27 51 -36 47 -63 95 -63 113 0
8 -27 58 -60 112 -33 54 -60 101 -60 103 0 2 -22 39 -48 81 -100 158 -112 178
-138 232 -14 30 -29 57 -33 60 -9 6 -146 286 -155 316 -11 37 2 53 42 52 21 0
45 -8 56 -17 23 -20 96 -131 96 -146 0 -7 9 -22 20 -35 11 -13 23 -34 26 -47
4 -13 10 -23 15 -23 5 0 9 -6 9 -13 0 -6 16 -35 36 -62 19 -28 45 -70 56 -95
11 -25 23 -47 27 -50 6 -5 20 -30 71 -125 15 -27 41 -72 58 -100 17 -27 45
-77 62 -110 50 -97 63 -120 72 -123 4 -2 8 -8 8 -13 0 -5 25 -51 56 -102 31
-51 64 -105 74 -122 9 -16 45 -71 78 -122 34 -51 62 -95 62 -98 0 -4 10 -21
22 -38 13 -18 32 -48 43 -69 11 -20 50 -88 86 -150 77 -130 102 -177 105 -197
2 -8 7 -17 12 -20 5 -3 26 -37 47 -76 20 -38 43 -77 50 -85 17 -21 103 -177
182 -328 35 -70 69 -132 73 -137 5 -6 34 -60 65 -120 31 -61 61 -113 67 -116
5 -3 10 -17 10 -30 3 -43 105 -209 129 -209 5 0 18 9 29 20 19 19 19 20 -10
72 -16 29 -48 91 -73 138 -51 100 -70 133 -78 140 -6 5 -24 39 -61 115 -11 22
-30 54 -42 70 -36 50 -65 104 -58 109 4 2 27 7 52 11 25 4 63 14 85 22 22 9
81 19 130 24 84 7 136 15 160 23 6 2 19 0 30 -4 12 -4 43 2 80 15 56 21 139
35 230 40 67 4 70 4 83 26 11 17 11 24 -1 42 -8 12 -15 46 -16 76 -1 29 -4 57
-7 62 -3 5 0 18 6 29 8 15 8 20 -1 20 -7 0 -9 18 -5 58 4 31 9 82 11 112 3 30
12 91 21 135 9 44 17 97 20 118 3 31 34 174 48 227 2 8 10 38 16 65 23 98 53
180 78 213 13 17 21 32 16 32 -4 0 -4 4 1 9 6 5 45 12 88 15 43 3 83 8 88 11
12 8 12 2 -5 -80 -8 -38 -18 -90 -21 -115 -4 -25 -13 -70 -21 -100 -8 -30 -14
-72 -14 -95 0 -22 -7 -72 -15 -112 -23 -109 -23 -506 0 -543 6 -10 6 -148 -1
-245 -6 -95 -6 -126 2 -225 5 -69 6 -112 1 -150 -1 -14 6 -73 19 -160 6 -38
10 -84 12 -141 2 -34 32 -79 52 -79 21 0 40 46 31 76 -5 17 -12 66 -16 110 -4
43 -9 83 -12 88 -5 8 -16 317 -14 400 0 17 8 45 16 63 9 18 14 41 11 51 -13
39 -50 420 -50 507 0 83 13 245 23 284 5 20 12 63 15 96 3 33 10 78 16 100 5
22 15 71 20 110 6 38 14 72 18 75 4 3 16 18 26 33 20 32 21 32 126 -3 81 -27
162 -62 175 -75 6 -5 16 -30 23 -55 7 -25 17 -54 22 -65 8 -17 27 -82 36 -120
1 -5 11 -34 23 -62 19 -49 27 -76 35 -128 4 -20 10 -40 26 -80 6 -16 28 -113
44 -195 1 -8 5 -22 8 -30 11 -28 38 -175 39 -215 1 -22 8 -62 15 -89 8 -27 14
-76 14 -109 0 -55 17 -216 40 -372 16 -107 22 -192 21 -279 -1 -85 14 -126 47
-126 24 0 51 34 47 57 -4 18 -9 64 -25 223 -4 47 -10 92 -13 100 -4 8 -8 35
-11 60 -7 62 -24 190 -31 220 -3 14 -6 66 -7 115 0 50 -7 105 -14 124 -8 18
-14 47 -14 63 0 16 -4 48 -9 71 -5 23 -17 80 -26 127 -9 47 -23 114 -30 150
-8 36 -17 88 -21 115 -4 28 -10 57 -14 65 -5 8 -10 29 -13 45 -2 17 -18 71
-35 120 -17 50 -33 109 -36 131 -2 23 -11 52 -19 65 -9 13 -19 40 -22 58 -8
45 -59 95 -131 128 -30 14 -60 26 -67 27 -22 4 -92 28 -125 43 -18 8 -44 17
-57 19 -14 2 -35 8 -47 13 -13 5 -44 5 -69 2 -26 -4 -54 -6 -63 -5 -9 1 -18
-2 -21 -6 -7 -11 -224 -1 -247 11 -9 5 -28 9 -41 9 -15 0 -31 10 -41 25 -9 14
-23 25 -30 25 -24 0 -39 84 -34 181 3 50 11 96 17 102 6 6 11 17 11 25 0 8 14
34 30 59 17 24 30 49 30 56 0 7 10 28 23 47 13 19 30 51 37 70 8 19 22 50 32
68 10 18 18 37 18 43 0 6 14 40 30 76 17 35 30 70 30 78 0 7 3 21 6 30 6 14
10 13 33 -8 14 -14 49 -37 76 -52 28 -15 57 -32 65 -39 8 -7 22 -11 31 -9 17
4 45 53 30 53 -11 0 -29 44 -40 100 -14 72 -38 156 -54 186 -8 16 -18 39 -22
52 -7 23 -6 23 24 8 16 -9 37 -16 46 -16 8 0 15 -4 15 -9 0 -4 28 -2 62 6 34
8 67 15 72 16 6 1 13 5 16 8 3 3 23 16 45 30 72 43 185 132 185 146 0 7 4 13
8 13 15 0 50 75 57 125 9 59 7 127 -5 139 -16 16 -80 -3 -89 -27 -9 -23 -62
-67 -81 -67 -5 0 -10 -5 -10 -10 0 -6 -12 -16 -27 -22 -33 -13 -28 -12 -78
-22 -22 -4 -44 -11 -50 -16 -19 -14 -87 -21 -142 -14 -40 5 -63 14 -86 35 -19
18 -38 27 -49 23 -18 -5 -16 -9 -53 136 -21 81 -33 103 -118 210 -76 96 -133
157 -192 205 -47 38 -182 93 -240 96 -22 2 -44 4 -48 7 -17 8 -180 6 -268 -4z
m274 -89 c56 -4 105 -14 135 -28 26 -11 52 -22 59 -23 24 -4 133 -109 170
-163 40 -58 50 -71 83 -108 11 -13 18 -23 15 -23 -3 0 4 -15 15 -32 28 -46 25
-58 -5 -25 -14 15 -34 27 -43 27 -10 0 -23 5 -28 10 -6 6 -41 19 -79 29 -57
16 -95 19 -205 16 -74 -2 -151 -3 -170 -3 -58 1 -63 0 -105 -11 -22 -7 -71
-16 -110 -21 -72 -9 -108 -17 -209 -44 -33 -9 -67 -18 -75 -20 -32 -6 -57 -21
-128 -73 -40 -30 -73 -49 -73 -43 0 31 35 152 58 200 15 30 27 58 27 61 0 9
41 54 111 124 54 53 166 124 187 117 4 -1 7 3 7 8 0 6 6 10 13 9 6 -1 19 0 27
3 73 25 122 27 323 13z m232 -409 c58 -7 142 -33 150 -47 4 -5 13 -9 22 -9 8
0 32 -13 53 -30 21 -16 42 -30 48 -30 12 0 52 -83 52 -109 0 -23 -49 -35 -88
-20 -15 6 -51 12 -81 14 -30 2 -57 7 -60 12 -3 5 -19 10 -35 11 -16 1 -35 7
-41 12 -7 6 -17 10 -21 8 -5 -1 -22 1 -39 5 -16 4 -47 9 -68 12 -21 2 -42 7
-48 10 -5 4 -49 8 -97 10 -48 3 -91 5 -97 5 -45 3 -171 -13 -194 -24 -15 -8
-37 -15 -47 -15 -37 0 -59 -7 -114 -33 -30 -15 -62 -29 -70 -32 -8 -3 -22 -10
-30 -16 -8 -5 -37 -19 -65 -30 -27 -12 -60 -26 -72 -32 -12 -6 -28 -8 -37 -5
-16 6 -12 32 15 92 14 31 63 85 77 85 5 0 17 8 28 18 30 26 56 39 94 47 19 4
40 11 45 16 14 11 143 38 230 49 39 5 88 14 110 19 22 6 54 8 70 5 17 -3 47
-1 68 3 43 9 167 9 242 -1z m952 -197 c-24 -62 -92 -122 -218 -192 -93 -51
-119 -54 -183 -22 -78 39 -106 65 -115 107 -9 38 -8 38 37 21 9 -3 29 -7 43
-8 15 -1 34 -5 43 -8 15 -6 134 15 186 32 14 4 43 14 65 21 22 7 62 30 90 51
27 21 52 36 56 33 4 -2 2 -18 -4 -35z m-2577 -31 c33 3 50 1 50 -7 0 -6 -3
-10 -7 -9 -13 2 -61 -13 -100 -33 -21 -10 -45 -19 -55 -19 -23 0 -68 -21 -68
-32 0 -4 -6 -8 -12 -8 -17 0 -108 -46 -133 -68 -11 -9 -50 -32 -85 -51 -64
-33 -177 -109 -214 -143 -11 -10 -23 -18 -26 -18 -4 0 -18 -10 -32 -22 -25
-23 -41 -36 -158 -130 -36 -29 -66 -56 -68 -60 -2 -4 -10 -8 -18 -8 -8 0 -14
-7 -14 -15 0 -8 -3 -15 -7 -15 -5 0 -32 -23 -61 -50 -29 -28 -56 -50 -61 -50
-15 0 -143 -135 -183 -193 -41 -61 -59 -64 -61 -13 -1 14 -5 26 -8 26 -8 0 -9
28 -3 67 4 30 81 132 140 188 90 84 313 245 340 245 6 0 23 9 37 20 13 11 47
31 73 46 78 41 118 67 164 104 23 19 60 44 82 55 21 12 37 23 34 26 -3 3 16
16 42 29 26 14 59 33 73 42 14 9 32 18 40 20 8 2 28 12 44 24 17 11 41 24 55
27 93 23 145 33 148 27 1 -4 25 -5 52 -2z m259 -33 c8 -5 24 -11 35 -12 12 -1
46 -7 76 -13 60 -12 103 -14 138 -5 19 5 22 1 22 -23 0 -15 5 -33 12 -40 9 -9
1 -16 -35 -32 -38 -17 -59 -20 -104 -15 -66 7 -133 39 -140 66 -3 10 -8 19
-12 19 -7 0 -71 86 -71 96 0 5 53 -22 79 -41z m984 0 c-3 -19 0 -35 6 -39 6
-4 11 -17 11 -29 0 -15 3 -18 9 -9 5 9 16 1 36 -30 16 -23 28 -48 28 -55 0 -7
6 -14 13 -17 7 -3 21 -31 30 -63 21 -70 26 -77 52 -69 19 7 21 33 8 99 -2 9 0
17 5 17 5 0 9 -8 9 -18 0 -38 46 -56 69 -28 10 11 6 31 -14 93 -14 43 -30 85
-35 94 -7 14 -5 16 11 12 24 -7 59 -50 59 -73 0 -28 39 -70 65 -70 26 0 38 28
23 54 -5 9 -11 26 -13 37 -2 11 -11 34 -20 51 -16 33 -14 45 6 32 7 -4 25 -9
39 -10 14 -2 55 -13 93 -25 51 -16 67 -26 67 -40 0 -27 -1 -24 15 -76 8 -25
12 -50 9 -55 -3 -4 -1 -8 4 -8 11 0 52 -95 52 -119 0 -10 14 -30 31 -47 28
-26 30 -33 26 -79 -5 -53 -25 -115 -42 -127 -5 -4 -6 -8 -2 -8 5 0 2 -12 -6
-27 -20 -39 -34 -72 -46 -113 -6 -20 -24 -60 -41 -90 -16 -30 -41 -76 -55
-102 -14 -27 -29 -48 -34 -48 -6 0 -12 -8 -15 -17 -17 -52 -85 -101 -171 -124
-60 -16 -105 -36 -122 -55 -10 -11 -30 -25 -44 -31 -25 -11 -42 -8 -254 46
-41 11 -115 49 -115 60 0 5 -11 12 -25 15 -29 7 -145 119 -145 140 0 8 -6 16
-13 19 -15 6 -76 125 -83 162 -2 13 -9 37 -16 52 -6 16 -15 51 -19 78 -5 28
-11 67 -15 88 -4 22 -12 37 -20 37 -21 0 -18 12 26 99 22 43 40 82 40 86 0 3
11 30 23 58 46 100 62 141 62 156 0 8 23 26 50 39 28 13 57 28 65 33 41 25 88
41 127 42 24 1 43 5 43 9 0 13 56 26 107 25 l51 0 -5 -32z m193 25 c8 0 14 -6
14 -14 0 -12 -5 -12 -30 -3 -16 6 -30 15 -30 20 0 5 7 6 16 3 9 -3 22 -6 30
-6z m-1277 -126 c38 -31 58 -92 42 -122 -6 -11 -11 -31 -11 -44 0 -40 -121
-208 -150 -208 -5 0 -10 -4 -10 -9 0 -19 -217 -164 -231 -155 -5 3 -9 1 -9 -4
0 -5 -11 -14 -24 -20 -22 -10 -25 -8 -37 21 -7 18 -21 41 -31 52 -64 72 -103
109 -117 111 -120 15 -114 17 -145 -27 -38 -54 -49 -160 -20 -187 28 -25 74
-96 74 -113 0 -8 5 -20 12 -27 9 -9 2 -20 -27 -47 -22 -19 -44 -35 -49 -35 -6
0 -23 -13 -38 -29 -15 -16 -49 -41 -75 -57 -27 -15 -52 -33 -58 -39 -20 -22
-82 -64 -126 -83 -106 -47 -170 -64 -216 -57 -64 9 -70 13 -79 43 -4 15 -8 29
-9 32 -1 3 -5 19 -10 35 -4 17 -17 37 -28 46 l-20 16 23 39 c45 75 146 184
170 184 8 0 26 16 40 35 14 19 32 37 42 40 9 3 38 28 64 55 27 28 54 50 61 50
7 0 13 4 13 8 0 9 91 77 100 76 3 0 13 10 23 22 9 12 41 39 70 60 28 21 60 45
69 53 31 29 47 41 54 41 3 0 37 20 74 45 37 25 74 45 82 45 8 0 33 13 56 30
54 39 226 120 255 120 9 0 19 5 22 10 4 6 10 8 14 6 4 -3 13 -1 21 5 8 5 36 9
62 9 35 0 54 -6 77 -26z m1271 -68 c-1 -16 -29 36 -30 54 0 8 7 2 15 -14 8
-15 15 -33 15 -40z m-1019 -62 c29 -4 54 -2 68 6 13 6 25 9 29 6 8 -9 3 -88
-7 -101 -5 -5 -11 -21 -14 -35 -3 -14 -15 -65 -27 -115 -11 -49 -23 -105 -27
-123 -3 -18 -9 -35 -14 -38 -5 -3 -9 -19 -9 -35 0 -21 7 -32 24 -41 23 -10 29
-6 75 41 28 29 51 56 51 61 0 7 31 24 34 18 7 -14 26 -80 31 -108 3 -19 11
-40 17 -47 6 -7 8 -13 4 -13 -3 0 7 -35 22 -78 30 -84 135 -252 158 -252 22 0
33 -33 24 -73 -4 -20 -4 -37 0 -37 5 0 8 -29 7 -65 -2 -51 -6 -67 -22 -79 -11
-9 -26 -16 -33 -16 -7 0 -20 -7 -28 -15 -8 -8 -21 -12 -29 -9 -8 4 -15 1 -15
-5 0 -6 -3 -10 -7 -9 -5 1 -26 -6 -48 -16 -59 -26 -179 -54 -208 -49 -13 3
-28 0 -31 -6 -4 -6 -24 -11 -45 -11 -21 0 -51 -7 -67 -15 -17 -8 -46 -17 -66
-20 -34 -6 -38 -3 -67 39 -17 24 -31 49 -31 55 0 6 -4 11 -9 11 -5 0 -15 16
-21 35 -6 19 -16 35 -21 35 -6 0 -8 4 -5 9 3 4 -19 49 -49 99 -30 49 -55 95
-55 102 0 6 -11 26 -23 43 -13 18 -41 65 -61 105 -21 40 -57 103 -81 139 l-44
65 27 28 c26 27 173 130 185 130 3 0 25 19 49 43 24 23 61 58 83 77 48 43 85
97 116 171 13 30 27 57 32 60 4 3 7 10 6 15 -7 37 -5 37 122 18z m609 -991
c36 -18 87 -37 113 -42 26 -4 53 -13 60 -20 8 -6 17 -8 20 -5 3 3 12 2 19 -2
7 -5 44 -10 81 -12 64 -3 71 -1 108 29 53 42 107 69 139 69 14 0 34 7 44 15
24 18 56 20 57 3 1 -26 18 -154 25 -187 7 -38 -4 -51 -47 -51 -15 0 -44 -8
-65 -17 -47 -20 -293 -26 -334 -8 -14 6 -43 13 -64 14 -22 2 -50 7 -63 12 -14
5 -33 9 -44 9 -21 0 -129 49 -129 59 0 3 -3 38 -7 78 -5 71 1 117 15 98 4 -6
36 -25 72 -42z m-136 -211 c7 -12 151 -59 204 -67 23 -4 42 -10 42 -15 0 -4
10 -6 23 -5 13 2 40 -3 60 -10 46 -16 327 -15 348 1 8 6 41 16 74 23 33 7 75
19 94 27 24 10 37 11 47 3 7 -5 28 -13 46 -15 18 -3 42 -7 53 -8 11 -2 33 -4
48 -5 16 0 25 -5 22 -11 -3 -5 -8 -29 -11 -52 -3 -24 -13 -72 -24 -108 -21
-74 -53 -213 -71 -310 -6 -36 -20 -105 -30 -155 -30 -145 -40 -241 -40 -381
l1 -130 -34 -12 c-19 -7 -59 -15 -88 -18 -29 -3 -69 -12 -89 -19 -20 -8 -69
-16 -108 -19 -39 -3 -74 -7 -79 -9 -4 -3 -38 -8 -77 -12 -38 -3 -95 -12 -125
-20 -30 -8 -84 -16 -120 -19 -36 -3 -66 -10 -68 -15 -5 -14 -22 -14 -22 -1 0
5 -20 44 -45 86 -25 41 -45 79 -45 83 0 3 -11 22 -24 42 -13 20 -38 62 -56 93
-30 57 -31 61 -34 215 -2 86 -7 167 -10 181 -4 14 -9 52 -12 85 -3 33 -10 72
-15 86 -6 14 -9 30 -8 35 2 5 -1 36 -6 69 -5 33 -10 71 -12 85 -1 14 -7 50
-13 80 -5 30 -12 70 -15 89 -3 19 -10 40 -16 48 -13 14 12 26 90 44 25 5 55
16 66 23 18 12 42 21 67 25 4 0 9 -3 12 -7z m-304 -147 c23 -53 42 -147 55
-280 4 -33 11 -89 16 -125 12 -79 28 -215 28 -253 1 -35 -13 -27 -38 21 -39
77 -61 115 -74 131 -23 27 -29 52 -31 148 -2 51 -8 98 -13 105 -6 7 -16 39
-23 71 -6 32 -23 91 -36 130 -13 39 -22 72 -20 74 2 2 14 5 27 7 13 1 31 5 39
9 33 13 55 12 58 -3 2 -8 7 -24 12 -35z m-177 -105 c15 -39 27 -77 26 -83 -1
-7 1 -19 4 -27 10 -25 27 -94 23 -97 -1 -2 -26 34 -55 79 -29 46 -61 94 -70
108 -48 69 -72 112 -59 108 8 -3 22 0 32 8 31 22 66 -12 99 -96z"/>
<path d="M2591 3444 c-19 -8 -39 -13 -45 -11 -22 8 -123 -51 -130 -75 -10 -39
-7 -46 25 -57 27 -9 33 -8 52 14 29 32 110 54 137 37 25 -16 30 -15 30 3 0 7
7 18 15 23 13 6 13 14 4 40 -6 18 -15 32 -19 32 -5 0 -14 2 -22 5 -7 2 -28 -2
-47 -11z"/>
<path d="M3193 3416 c-62 -13 -64 -15 -68 -58 -2 -25 2 -38 16 -46 12 -8 19
-8 19 -2 0 5 3 9 8 8 4 -1 20 4 37 11 29 12 75 7 85 -9 13 -20 76 -15 82 8 7
27 -11 82 -25 76 -7 -2 -32 2 -56 11 -24 8 -44 14 -45 14 0 -1 -24 -7 -53 -13z"/>
<path d="M2580 3290 c-22 -5 -25 -11 -25 -50 0 -44 1 -45 30 -43 34 3 57 27
48 51 -14 37 -28 48 -53 42z"/>
<path d="M3229 3261 c-21 -12 -27 -23 -27 -52 -1 -45 12 -51 61 -32 32 13 37
19 33 42 -2 14 -5 29 -5 34 -1 4 -7 7 -15 7 -8 0 -16 4 -18 8 -1 5 -15 1 -29
-7z"/>
<path d="M2951 3016 c-15 -17 -81 -30 -93 -18 -10 10 -67 3 -69 -9 -1 -5 -1
-16 -1 -24 0 -8 0 -19 1 -24 2 -17 58 -32 116 -30 50 2 64 7 87 30 31 30 29
49 -7 73 -19 13 -25 13 -34 2z"/>
<path d="M2652 2789 c-34 -36 -17 -67 52 -100 33 -16 74 -29 89 -29 16 0 38
-5 50 -12 32 -17 202 -12 230 7 12 8 31 15 42 15 30 1 65 35 65 64 0 43 -28
48 -101 17 -69 -29 -189 -43 -189 -21 0 6 -4 9 -9 5 -6 -3 -29 -1 -53 5 -24 6
-52 13 -63 15 -11 3 -25 11 -31 19 -6 9 -23 20 -37 25 -22 9 -30 7 -45 -10z"/>
<path d="M1321 4097 c-24 -24 -11 -61 35 -101 29 -26 56 -62 75 -103 22 -47
35 -63 47 -61 44 9 -8 178 -75 239 -33 31 -67 41 -82 26z"/>
<path d="M1209 4064 c-15 -14 -13 -22 20 -87 20 -40 49 -103 65 -140 16 -37
33 -67 37 -67 5 0 16 11 25 25 14 21 14 27 1 52 -22 42 -68 194 -62 203 7 11
-27 30 -52 30 -10 0 -26 -7 -34 -16z"/>
</g>
</svg>
