<?xml version="1.0" standalone="no"?>
<!DOCTYPE svg PUBLIC "-//W3C//DTD SVG 20010904//EN"
 "http://www.w3.org/TR/2001/REC-SVG-20010904/DTD/svg10.dtd">
<svg version="1.0" xmlns="http://www.w3.org/2000/svg"
 width="363.000000pt" height="493.000000pt" viewBox="0 0 363.000000 493.000000"
 preserveAspectRatio="xMidYMid meet">
<metadata>
Created by potrace 1.16, written by Peter Selinger 2001-2019
</metadata>
<g transform="translate(0.000000,493.000000) scale(0.100000,-0.100000)"
fill="#000000" stroke="none">
<path d="M2047 4880 c-14 -11 -32 -20 -40 -20 -19 0 -136 -91 -137 -106 0 -6
-9 -19 -20 -29 -11 -10 -18 -20 -16 -22 2 -3 -9 -37 -25 -76 -52 -126 -61
-181 -73 -450 -3 -59 -8 -112 -11 -117 -3 -5 -1 -11 5 -15 6 -4 8 -10 5 -15
-13 -21 -25 -513 -14 -567 9 -43 27 -60 61 -55 40 6 46 25 42 122 -7 145 -6
323 1 370 4 25 9 97 10 160 1 63 6 169 10 235 5 66 8 123 7 127 -4 17 59 180
84 219 32 48 39 55 102 100 l43 31 42 -22 c55 -29 113 -76 115 -92 0 -7 8 -41
17 -75 12 -48 14 -96 10 -215 -7 -203 -9 -236 -22 -283 -17 -63 -53 -238 -53
-260 0 -11 -12 -56 -25 -100 -14 -44 -28 -96 -31 -115 -3 -19 -12 -48 -19 -65
-30 -69 -35 -137 -10 -161 21 -22 69 -56 117 -85 33 -20 68 -79 68 -116 0 -6
5 -13 11 -15 12 -4 41 -119 41 -163 0 -69 -13 -159 -27 -192 -16 -41 -20 -43
-59 -44 -22 0 -54 -3 -71 -5 -163 -24 -167 -24 -189 0 -39 44 -77 56 -152 49
-70 -6 -205 -53 -231 -79 -26 -25 -34 -15 -28 34 3 26 2 52 -2 57 -13 16 -61
45 -76 45 -21 0 -57 -44 -57 -71 0 -13 -3 -34 -6 -46 -5 -18 -10 -21 -24 -13
-26 14 -158 20 -215 9 -66 -12 -129 -44 -160 -80 -28 -34 -29 -34 -142 -43
l-83 -7 -2 28 c-1 15 -2 36 -1 46 0 9 -3 17 -7 17 -7 0 -5 30 11 127 9 61 63
183 80 183 5 0 9 6 9 13 0 40 111 187 142 187 6 0 8 3 5 6 -7 8 99 74 119 74
7 0 15 4 18 9 3 4 21 7 41 5 27 -2 39 3 55 23 27 35 22 61 -21 103 -20 19 -41
45 -48 57 -12 24 -50 168 -57 223 -3 19 -16 69 -29 110 -25 76 -32 109 -39
191 -2 25 -9 56 -15 67 -6 12 -14 47 -17 79 -4 32 -10 65 -14 73 -9 18 -5 253
4 269 4 6 9 19 11 28 7 36 24 69 47 91 41 40 71 62 85 62 24 0 63 -32 93 -75
29 -42 106 -252 96 -263 -3 -3 -2 -10 4 -17 8 -10 19 -62 45 -215 3 -19 10
-60 16 -90 6 -30 12 -77 15 -105 3 -27 11 -82 20 -120 8 -39 16 -99 19 -133 2
-34 6 -70 9 -80 3 -9 7 -47 10 -84 6 -93 16 -108 61 -98 20 4 41 13 48 18 13
11 16 89 4 109 -4 6 -14 58 -22 115 -8 57 -21 135 -29 173 -8 39 -21 115 -30
170 -8 55 -20 134 -26 175 -7 41 -14 95 -17 120 -2 25 -7 52 -10 60 -4 8 -7
18 -8 23 -2 4 -3 8 -5 10 -1 1 -4 16 -6 32 -9 64 -89 265 -106 265 -4 0 -8 6
-8 14 0 8 -19 30 -42 48 -75 60 -91 67 -147 63 -60 -4 -89 -25 -147 -103 -21
-29 -44 -59 -51 -66 -37 -42 -54 -286 -29 -423 16 -87 23 -134 29 -178 1 -11
8 -26 15 -33 6 -7 13 -32 14 -55 1 -23 3 -55 3 -72 1 -16 12 -52 23 -80 12
-27 23 -66 26 -85 3 -19 8 -59 12 -87 3 -29 10 -53 14 -53 4 0 12 -24 19 -53
6 -28 18 -65 26 -81 16 -30 7 -56 -19 -56 -6 0 -22 -9 -36 -20 -14 -11 -33
-20 -42 -20 -22 0 -124 -91 -157 -139 -52 -78 -141 -264 -156 -328 -15 -63
-19 -142 -12 -220 2 -18 3 -33 3 -34 -1 0 -39 -4 -86 -9 -95 -9 -120 -14 -200
-36 -30 -9 -73 -21 -95 -27 -22 -6 -74 -25 -115 -43 -72 -31 -142 -50 -166
-46 -17 3 -35 -23 -28 -42 3 -9 14 -16 25 -16 23 0 69 21 69 32 0 4 4 8 10 8
5 0 56 18 112 39 124 47 317 93 409 98 62 3 67 2 73 -19 15 -59 18 -57 -226
-108 -76 -16 -146 -34 -157 -40 -11 -5 -64 -25 -118 -44 -150 -52 -214 -83
-207 -101 9 -23 51 -23 69 -1 14 18 93 55 129 62 16 2 37 9 47 15 11 5 19 7
19 3 0 -3 16 3 35 15 44 26 114 47 235 71 52 11 106 22 120 25 80 19 94 18
111 -13 l17 -29 -82 -28 c-44 -15 -85 -31 -91 -35 -23 -17 -197 -90 -215 -90
-26 0 -48 -49 -28 -62 17 -10 48 -10 48 1 0 4 35 26 78 49 43 22 100 52 127
66 26 14 54 26 61 26 7 0 23 4 36 9 13 5 25 9 28 9 3 0 18 6 34 12 28 10 32 8
78 -40 28 -27 56 -50 63 -50 8 0 20 -9 27 -19 8 -11 27 -23 43 -27 17 -4 37
-12 45 -19 8 -6 31 -18 50 -25 82 -32 101 -66 87 -155 -2 -11 -70 -45 -139
-70 -27 -10 -48 -22 -48 -26 0 -5 -6 -9 -13 -9 -31 0 -220 -112 -311 -184 -21
-17 -66 -57 -100 -89 -34 -32 -69 -63 -78 -68 -9 -5 -36 -47 -59 -94 -23 -47
-46 -88 -51 -91 -4 -3 -6 -9 -3 -14 3 -5 1 -11 -5 -15 -16 -10 -12 -21 17 -56
25 -30 78 -60 113 -65 139 -19 181 -10 184 41 1 23 4 25 31 19 17 -3 27 -3 24
0 -4 4 6 21 22 39 23 25 29 41 29 78 0 42 -3 48 -25 53 -18 5 -25 13 -25 31 0
26 -25 45 -59 45 -12 0 -21 -4 -21 -10 0 -5 -5 -10 -11 -10 -18 0 -87 -79
-100 -115 -7 -19 -16 -35 -20 -35 -4 0 -14 -3 -23 -6 -25 -10 -20 27 9 60 14
16 25 34 25 41 0 7 32 41 71 76 40 35 83 76 96 91 14 15 44 40 67 55 22 15 46
31 51 36 83 63 303 166 358 167 9 0 17 5 17 10 0 6 5 10 11 10 13 0 79 50 77
58 -1 4 3 17 10 28 6 12 9 23 7 26 -3 2 -7 20 -10 40 l-6 36 103 -5 c124 -6
226 7 333 43 44 14 96 28 117 30 35 5 37 3 60 -42 12 -25 28 -49 35 -51 7 -3
13 -11 13 -19 0 -8 9 -23 19 -33 11 -11 28 -32 38 -48 38 -58 147 -163 199
-190 30 -15 54 -31 54 -35 0 -4 7 -5 15 -2 8 4 15 1 15 -5 0 -6 9 -11 20 -11
10 0 24 -9 30 -20 6 -11 17 -20 26 -20 22 0 194 -89 194 -100 0 -6 5 -10 10
-10 21 0 140 -61 140 -71 0 -6 4 -8 9 -4 15 8 59 -44 88 -105 15 -30 30 -57
33 -60 10 -8 50 -90 44 -90 -2 0 0 -8 5 -19 6 -10 13 -38 16 -61 3 -23 7 -46
10 -50 3 -4 5 -51 6 -104 1 -82 -2 -99 -20 -125 -12 -16 -21 -35 -21 -42 0
-17 -139 -149 -157 -149 -7 0 -16 -7 -19 -15 -4 -8 -15 -15 -25 -15 -10 0 -19
-5 -19 -10 0 -15 -48 -33 -92 -36 -56 -3 -94 -25 -90 -53 1 -13 -3 -30 -9 -37
-14 -17 -5 -128 13 -171 6 -15 12 -35 13 -43 1 -8 5 -25 9 -37 7 -21 4 -23
-33 -23 -22 0 -42 -4 -45 -9 -5 -7 -83 -20 -136 -23 -8 0 -20 -5 -27 -10 -7
-5 -31 -11 -55 -12 -24 -2 -70 -6 -103 -10 -33 -4 -82 -9 -110 -12 -94 -10
-110 -12 -167 -24 -48 -11 -59 -10 -78 3 -17 12 -29 13 -48 6 -13 -5 -27 -7
-30 -5 -2 3 -17 -1 -33 -9 -15 -8 -43 -17 -61 -20 -31 -5 -34 -3 -43 27 -8 26
-16 34 -39 36 -20 3 -32 -2 -39 -13 -8 -16 -12 -15 -31 10 -17 21 -26 25 -49
20 -58 -15 -137 -121 -137 -185 0 -9 12 -23 26 -30 42 -23 77 4 125 98 7 12
16 22 21 22 5 0 6 -5 2 -11 -3 -6 2 -26 12 -45 15 -28 24 -34 54 -35 19 -1 42
-2 50 -3 8 -1 41 4 73 11 32 7 63 11 68 8 5 -4 33 -6 61 -5 29 0 62 1 73 1 11
0 38 4 60 10 41 11 76 16 162 23 29 2 60 7 70 10 10 3 52 8 93 11 41 3 88 9
105 14 16 6 44 12 60 15 17 2 45 9 63 15 18 5 43 8 55 5 12 -3 42 -5 66 -6 62
-2 79 21 76 105 -1 35 -5 68 -8 74 -4 6 -9 24 -11 40 -2 15 -9 40 -15 56 -15
39 -1 100 24 103 26 3 79 24 131 51 23 12 44 20 47 17 9 -10 121 -33 158 -34
42 0 152 34 157 49 2 6 12 11 23 11 10 0 35 16 55 35 19 19 40 35 45 35 4 0
16 14 24 30 9 18 21 28 27 24 7 -4 8 -3 4 5 -4 6 0 14 8 17 9 3 13 10 11 15
-3 4 10 32 30 61 31 44 35 58 30 88 -8 42 -30 63 -55 50 -16 -9 -17 -6 -9 28
5 20 9 52 9 70 0 26 -4 32 -21 32 -12 0 -28 -8 -35 -17 -16 -21 -18 -53 -4
-53 14 0 12 -39 -6 -85 -9 -22 -17 -52 -19 -68 -5 -44 -54 -109 -92 -121 -13
-4 -23 -14 -23 -22 0 -8 -6 -14 -14 -14 -8 0 -16 -3 -18 -7 -1 -5 -21 -18 -43
-29 -46 -25 -123 -30 -131 -9 -9 22 45 113 71 119 50 13 77 172 54 317 -5 30
-11 72 -14 94 -11 71 -24 109 -58 165 -18 30 -38 69 -45 86 -25 61 -131 161
-216 204 -43 22 -85 40 -92 40 -7 0 -14 3 -16 8 -1 4 -32 22 -68 40 -36 17
-72 36 -80 41 -8 5 -35 19 -60 31 -25 12 -64 35 -87 50 -22 15 -50 31 -61 34
-10 4 -31 20 -46 36 -14 17 -30 30 -35 30 -5 0 -20 20 -32 44 -12 25 -34 58
-49 75 -34 37 -67 106 -69 146 -1 24 5 34 28 48 16 9 35 17 43 17 16 0 96 56
115 80 7 8 13 12 13 8 0 -5 9 1 20 12 17 17 34 20 118 21 53 1 101 0 107 -1 5
-1 59 -8 120 -16 97 -12 195 -30 276 -49 21 -5 27 -2 38 21 17 39 2 49 -79 50
-38 0 -75 6 -83 12 -8 7 -51 15 -95 17 -45 3 -92 9 -106 15 -15 5 -36 6 -48 2
-31 -11 -178 -15 -177 -5 0 4 12 31 27 58 26 46 30 50 66 51 21 0 67 -5 100
-11 42 -8 86 -9 135 -3 57 7 84 5 120 -6 25 -9 66 -19 91 -22 25 -4 54 -13 65
-20 25 -16 41 -7 50 28 5 20 2 29 -12 36 -11 6 -25 7 -33 2 -8 -5 -17 -7 -20
-5 -3 2 -22 6 -43 9 -21 3 -49 13 -62 22 -21 14 -34 14 -88 5 -79 -14 -162
-13 -248 2 -55 10 -64 14 -53 25 8 7 14 26 14 41 0 18 6 31 17 35 36 14 233 6
368 -15 77 -12 199 -24 270 -28 72 -4 138 -11 147 -15 14 -6 20 -2 28 19 11
29 -3 61 -21 49 -25 -15 -247 -9 -409 11 -121 16 -207 21 -277 18 -57 -2 -103
-2 -103 1 0 2 7 35 15 71 9 37 13 75 10 85 -3 9 -2 28 3 41 14 37 -45 287 -74
317 -7 6 -16 22 -20 34 -9 28 -91 116 -116 124 -16 5 -19 12 -14 47 9 60 12
78 35 159 11 40 27 107 35 148 17 83 21 104 35 170 36 167 48 296 45 474 -3
177 -16 243 -58 299 -14 18 -26 39 -26 45 0 7 -6 12 -13 12 -8 0 -24 11 -37
25 -13 14 -30 25 -37 25 -8 0 -31 11 -51 25 -44 30 -71 31 -105 5z m-116
-2133 c18 -13 16 -15 -33 -21 -117 -16 -133 -18 -137 -22 -2 -2 -9 0 -15 5
-17 14 -56 -6 -56 -29 0 -18 10 -25 33 -21 4 1 16 -3 26 -8 12 -7 21 -7 28 0
6 6 25 13 42 15 18 3 51 12 73 20 62 22 88 19 88 -10 0 -30 -20 -46 -56 -47
-34 -1 -153 -6 -172 -8 -8 0 -12 -10 -10 -23 3 -22 7 -23 81 -21 42 1 77 0 77
-2 0 -3 -20 -13 -44 -24 -30 -14 -54 -18 -80 -14 -32 5 -38 3 -43 -16 -7 -26
-3 -26 -55 1 -63 31 -70 38 -57 54 7 9 7 19 -2 35 -10 20 -12 20 -21 5 -5 -9
-13 -14 -19 -11 -14 9 -11 55 4 55 7 0 35 15 62 33 47 32 113 61 160 70 35 7
105 -2 126 -16z m353 -16 c3 -5 -4 -27 -15 -49 -19 -35 -27 -40 -67 -46 -24
-3 -74 -6 -109 -6 l-65 0 7 43 c4 23 8 43 10 45 1 2 38 5 81 8 43 3 81 7 83
10 8 8 70 4 75 -5z m-891 -30 c14 -2 7 -23 -15 -41 -21 -17 -22 -18 -4 -45 17
-26 18 -26 37 -9 10 9 19 25 19 36 0 24 4 23 36 -7 25 -23 26 -26 11 -47 -8
-13 -23 -31 -33 -40 -84 -78 -73 -73 -167 -74 -48 -1 -87 1 -87 3 0 3 10 13
22 22 l21 18 -22 22 c-21 21 -24 21 -46 7 -32 -21 -38 -20 -30 3 3 11 -1 26
-12 37 -17 17 -17 17 11 10 32 -8 56 7 56 34 0 22 -23 32 -58 24 -25 -5 -26
-4 -7 8 68 43 79 46 170 43 50 -2 93 -4 98 -4z m820 -108 c-7 -2 -13 -9 -13
-13 0 -5 -14 -24 -30 -42 -30 -32 -32 -33 -108 -31 -42 1 -89 6 -104 10 l-28
8 38 30 c28 23 51 31 92 35 78 7 167 9 153 3z m-1207 -12 c-3 -5 -27 -14 -53
-20 -105 -23 -110 -23 -117 -5 -4 10 -1 21 6 26 18 11 171 10 164 -1z m559
-54 c16 -19 56 -47 88 -64 51 -28 63 -30 110 -24 28 4 64 15 79 25 15 10 31
15 36 12 8 -5 122 -15 182 -16 l25 0 -27 -15 c-63 -34 -75 -41 -108 -65 -19
-13 -37 -27 -40 -30 -8 -9 -84 -44 -100 -46 -8 -1 -36 -11 -61 -23 -127 -57
-345 -64 -500 -16 -90 28 -149 55 -149 67 0 5 -11 8 -24 8 -14 0 -43 18 -72
43 l-48 44 49 18 c56 22 81 22 104 1 50 -44 211 -44 289 1 23 14 62 45 85 69
23 24 44 44 47 44 2 0 18 -15 35 -33z m-533 -11 c16 -12 14 -15 -25 -31 -89
-37 -85 -36 -112 -7 l-25 27 37 12 c51 16 104 15 125 -1z m-360 -1121 c-4 -25
-13 -31 -25 -18 -6 5 19 43 28 43 1 0 0 -11 -3 -25z"/>
<path d="M1651 2598 c-15 -40 3 -57 43 -42 22 8 20 41 -3 54 -27 14 -31 13
-40 -12z"/>
<path d="M1221 2646 c-22 -26 10 -64 39 -46 8 5 10 17 6 34 -7 28 -27 34 -45
12z"/>
<path d="M1303 2573 c-24 -16 -31 -47 -13 -58 5 -3 20 -3 34 1 20 5 24 12 23
37 -2 36 -14 42 -44 20z"/>
<path d="M1315 3218 c-27 -21 -27 -23 -21 -95 8 -90 19 -119 45 -128 49 -15
99 66 79 128 -5 18 -11 41 -13 53 -4 32 -28 64 -46 64 -9 0 -29 -10 -44 -22z"/>
<path d="M1763 3219 c-24 -9 -29 -24 -37 -104 -3 -27 -8 -69 -12 -91 -6 -41
-6 -42 32 -60 22 -9 42 -19 45 -21 19 -9 40 54 44 127 2 44 6 84 9 88 7 11
-20 49 -42 61 -9 5 -27 5 -39 0z"/>
<path d="M1592 1948 c-16 -20 -114 -69 -150 -74 -47 -8 -234 -93 -249 -113 -7
-11 -45 -41 -83 -66 -78 -52 -140 -106 -140 -123 0 -6 -14 -27 -30 -45 -17
-19 -30 -39 -30 -45 0 -6 -6 -15 -14 -19 -18 -11 -46 -78 -46 -113 0 -49 27
-87 77 -106 43 -17 49 -17 129 0 63 13 88 14 104 6 18 -10 25 -7 48 19 14 17
31 31 37 31 6 0 27 11 47 25 l36 25 7 -33 c4 -17 13 -39 20 -47 7 -8 16 -26
20 -40 8 -25 55 -98 88 -134 9 -11 17 -25 17 -32 0 -7 7 -20 16 -28 13 -14 13
-18 1 -36 -7 -11 -17 -17 -20 -13 -4 3 -7 1 -7 -5 0 -7 -6 -12 -13 -12 -7 0
-23 -11 -35 -25 -12 -14 -27 -25 -33 -25 -5 0 -8 -4 -5 -9 3 -4 -6 -21 -19
-37 -14 -16 -35 -49 -46 -74 -11 -25 -24 -52 -29 -61 -9 -18 -34 -130 -32
-144 1 -6 -56 -10 -156 -10 -174 0 -182 -2 -317 -83 -113 -68 -155 -114 -215
-235 -32 -64 -33 -70 -19 -95 8 -15 25 -28 37 -30 31 -5 72 24 72 49 0 40 51
128 98 170 57 50 147 104 200 120 24 7 83 10 152 7 91 -3 114 -7 124 -20 25
-34 89 -47 120 -25 20 15 33 117 15 117 -15 0 0 108 21 150 10 19 27 52 37 73
28 60 104 131 142 134 12 1 32 -9 46 -23 13 -13 31 -24 40 -24 8 0 33 -11 54
-24 39 -25 51 -53 51 -118 0 -16 6 -36 14 -43 7 -8 16 -32 20 -54 3 -23 11
-41 17 -41 7 0 9 -13 7 -32 -4 -21 0 -36 9 -43 7 -6 16 -26 19 -46 6 -34 4
-37 -22 -43 -16 -3 -57 -8 -92 -10 -35 -3 -78 -9 -95 -15 -18 -5 -64 -12 -104
-15 -39 -3 -84 -11 -100 -17 -31 -12 -34 -13 -108 -24 -60 -10 -50 -7 -106
-32 -47 -21 -93 -68 -112 -112 -8 -21 -11 -23 -14 -9 -4 18 -58 38 -100 38
-24 0 -29 9 -14 26 5 5 12 23 16 41 5 25 2 34 -14 42 -36 20 -61 13 -82 -24
-12 -19 -25 -35 -30 -35 -5 0 -9 -9 -9 -20 0 -11 -7 -20 -15 -20 -19 0 -19 6
3 38 28 41 32 58 17 80 -23 32 -51 33 -78 3 -13 -15 -26 -36 -30 -47 -3 -10
-13 -37 -21 -59 -22 -57 -21 -102 3 -110 28 -9 186 -25 262 -28 56 -1 68 -5
75 -22 6 -13 18 -20 37 -19 58 2 53 -3 92 91 14 34 25 45 54 54 20 6 41 15 46
20 6 4 37 9 69 10 40 2 66 9 83 22 20 16 44 21 107 23 84 3 122 7 167 19 15 4
30 2 33 -3 4 -6 20 -7 43 -1 29 7 45 5 71 -9 30 -15 35 -16 60 -1 15 9 26 21
25 27 -14 65 -14 152 1 196 15 44 15 50 1 66 -8 9 -15 22 -15 28 0 6 -13 19
-30 28 -30 18 -58 87 -59 144 0 14 0 48 -1 75 0 28 2 61 5 75 3 14 8 43 11 65
8 64 43 126 107 187 52 51 58 61 52 87 -14 64 -50 63 -115 0 -84 -83 -135
-174 -142 -254 -3 -30 -7 -57 -10 -60 -8 -8 -78 24 -78 35 0 6 -7 10 -15 10
-8 0 -15 7 -15 15 0 22 -30 65 -44 65 -15 0 -56 46 -49 54 4 3 2 6 -4 6 -11 0
-37 49 -35 66 1 6 -7 19 -18 29 -11 10 -20 24 -20 32 0 7 -4 13 -10 13 -15 0
-40 56 -45 100 -3 30 0 40 11 40 8 0 17 7 20 15 4 8 10 15 15 15 4 0 25 11 45
25 50 34 196 103 231 109 30 6 53 30 53 57 0 10 2 23 5 31 8 21 -17 47 -53 53
-27 5 -38 0 -63 -24 -16 -16 -39 -33 -52 -37 -12 -3 -29 -12 -37 -19 -20 -16
-103 -55 -118 -55 -6 0 -16 -9 -22 -20 -6 -11 -16 -20 -24 -20 -7 0 -31 -16
-53 -35 -23 -19 -46 -35 -52 -35 -6 0 -11 -4 -11 -10 0 -5 -5 -10 -11 -10 -6
0 -24 -9 -40 -20 l-28 -21 -15 30 c-13 24 -21 29 -43 25 -41 -8 -46 -14 -40
-54 6 -48 -1 -58 -47 -65 -37 -6 -37 -6 -25 16 7 13 25 41 41 63 15 21 28 45
28 53 0 15 -35 53 -50 53 -27 0 -93 -109 -106 -174 -4 -22 -12 -32 -25 -33
-10 -1 -19 0 -19 1 0 14 24 66 30 66 4 0 10 8 14 18 3 9 15 31 26 47 11 17 25
39 31 50 6 11 38 39 72 62 34 24 78 58 98 77 21 20 57 43 80 52 24 10 61 28
81 41 20 12 56 26 80 29 46 8 154 59 182 86 12 13 14 22 6 42 -5 14 -16 26
-24 26 -8 0 -16 5 -18 11 -2 7 -8 6 -16 -3z"/>
<path d="M3079 1220 c-2 -8 -3 -55 -3 -105 -1 -49 -5 -100 -9 -112 -15 -40 11
-25 34 20 34 64 36 206 4 193 -8 -3 -16 0 -19 7 -3 8 -5 7 -7 -3z"/>
<path d="M3180 1170 c-10 -6 -14 -24 -12 -56 1 -26 -5 -72 -12 -101 -19 -73
-2 -65 41 18 37 73 42 123 15 138 -11 6 -24 6 -32 1z"/>
</g>
</svg>
