<?xml version="1.0" standalone="no"?>
<!DOCTYPE svg PUBLIC "-//W3C//DTD SVG 20010904//EN"
 "http://www.w3.org/TR/2001/REC-SVG-20010904/DTD/svg10.dtd">
<svg version="1.0" xmlns="http://www.w3.org/2000/svg"
 width="495.000000pt" height="485.000000pt" viewBox="0 0 495.000000 485.000000"
 preserveAspectRatio="xMidYMid meet">
<metadata>
Created by potrace 1.16, written by Peter Selinger 2001-2019
</metadata>
<g transform="translate(0.000000,485.000000) scale(0.100000,-0.100000)"
fill="#000000" stroke="none">
<path d="M2454 4528 c-16 -4 -34 -6 -41 -4 -6 3 -14 -1 -17 -9 -2 -7 -13 -12
-23 -11 -10 2 -22 1 -27 -2 -4 -2 -27 -6 -51 -8 -51 -4 -159 -38 -195 -62 -47
-31 -65 -41 -128 -72 -35 -16 -70 -37 -79 -45 -8 -9 -29 -22 -46 -29 -34 -14
-129 -84 -187 -136 -19 -18 -42 -37 -50 -43 -8 -7 -35 -37 -60 -67 -25 -30
-48 -57 -52 -60 -4 -3 -17 -28 -29 -55 -12 -28 -30 -61 -40 -75 -15 -22 -45
-136 -55 -210 -7 -57 -23 -148 -34 -190 -5 -25 -17 -83 -25 -129 -8 -47 -20
-99 -26 -118 -6 -18 -8 -46 -4 -62 3 -16 3 -45 0 -65 -6 -29 -10 -34 -24 -27
-9 5 -45 13 -79 17 -73 8 -102 34 -102 92 0 19 -10 51 -22 71 -13 20 -21 37
-19 39 2 2 -10 25 -27 50 -17 26 -34 60 -37 75 -4 15 -13 27 -20 27 -18 0 -55
62 -61 102 -4 21 4 62 21 113 29 89 32 110 41 273 8 126 3 145 -53 199 -44 41
-80 53 -118 39 -49 -18 -95 -49 -101 -69 -3 -11 -16 -36 -27 -55 -31 -52 -56
-131 -57 -177 -1 -34 -3 -37 -13 -22 -7 10 -31 38 -54 64 -24 26 -43 50 -43
55 0 5 -4 7 -10 3 -5 -3 -18 3 -28 13 -26 26 -87 45 -123 38 -49 -9 -56 -11
-71 -24 -8 -6 -17 -9 -21 -6 -3 3 -16 -5 -28 -17 -19 -19 -23 -33 -23 -98 0
-42 5 -86 12 -97 11 -21 10 -22 -21 -19 -17 1 -36 -1 -42 -6 -11 -8 -16 -9
-40 -9 -8 0 -15 -5 -15 -11 0 -7 -8 -18 -18 -25 -14 -10 -17 -28 -17 -91 0
-70 4 -86 37 -153 20 -41 43 -86 51 -100 8 -14 22 -40 31 -57 l17 -33 -26 0
c-46 0 -92 -26 -108 -62 -33 -72 -29 -165 8 -202 8 -8 15 -17 15 -21 0 -8 25
-33 68 -67 51 -41 120 -56 256 -55 114 0 121 -1 135 -23 9 -13 40 -46 69 -74
30 -28 124 -120 210 -204 142 -138 166 -157 248 -197 50 -25 96 -45 102 -45 6
0 18 -7 27 -16 9 -9 39 -29 68 -43 38 -19 53 -34 59 -56 12 -44 12 -193 -1
-250 -6 -27 -13 -59 -16 -71 -3 -12 -12 -40 -20 -64 -8 -23 -15 -52 -15 -64 0
-12 -7 -31 -15 -43 -8 -11 -26 -58 -41 -104 -14 -46 -31 -93 -38 -104 -7 -11
-21 -62 -31 -113 -20 -103 -16 -245 8 -342 4 -14 9 -36 12 -50 12 -64 37 -142
69 -222 42 -101 42 -103 18 -120 -48 -35 -126 -156 -178 -275 -17 -40 -34 -63
-47 -67 -17 -4 -18 -8 -8 -20 7 -8 11 -20 10 -28 -5 -25 24 -68 45 -69 12 0
32 -2 46 -4 14 -1 70 -6 124 -10 55 -4 109 -9 120 -11 12 -2 170 -6 351 -8
182 -2 366 -7 410 -11 88 -8 113 3 102 46 -8 30 9 68 47 109 18 19 44 52 59
72 32 44 96 67 192 69 70 1 113 -15 172 -66 46 -39 68 -95 57 -141 -5 -20 -4
-25 5 -19 8 4 25 -2 42 -14 24 -18 40 -21 108 -19 44 2 82 0 86 -4 3 -3 22 -2
41 2 53 12 554 10 574 -2 11 -7 30 -8 56 -1 24 5 52 5 75 -1 50 -13 89 -1 89
27 0 12 7 31 15 41 8 11 12 29 10 40 -3 12 -7 47 -10 80 -3 32 -9 64 -14 70
-4 6 -11 29 -13 52 -3 22 -17 59 -32 82 -14 23 -26 47 -26 54 0 14 -8 22 -121
136 -46 45 -87 82 -91 82 -4 0 -8 2 -8 5 0 14 43 111 52 116 5 3 9 9 9 13 -1
11 10 41 35 91 14 30 27 77 30 115 3 36 9 74 14 85 5 11 11 38 15 60 3 22 10
67 15 100 22 138 31 287 30 519 0 105 -1 202 -3 215 -1 17 4 26 18 30 11 3 47
24 79 46 33 22 66 45 75 50 8 6 20 15 27 20 47 40 64 53 106 82 26 18 51 33
56 33 4 0 21 20 36 44 34 54 50 69 96 86 75 28 120 51 120 60 0 6 7 10 15 10
20 0 146 126 165 165 8 17 21 38 29 48 8 9 11 17 8 17 -3 0 1 16 9 36 8 19 17
71 21 115 6 78 7 81 38 97 31 16 115 87 115 97 0 4 44 73 58 91 10 12 23 94
27 173 3 55 -9 81 -36 81 -7 0 -10 3 -6 6 11 11 -50 54 -67 48 -13 -5 -16 2
-16 39 0 25 -10 68 -24 99 -19 43 -35 62 -75 87 -49 32 -55 33 -131 29 -66 -3
-80 0 -81 12 -1 8 -2 53 -4 100 -3 138 -38 223 -120 299 -57 52 -98 55 -147
11 -18 -16 -36 -30 -40 -30 -3 0 -9 -24 -13 -52 -5 -47 -17 -273 -15 -305 0
-7 1 -21 1 -30 1 -20 -14 -102 -38 -206 -9 -37 -17 -87 -19 -110 -10 -123 -84
-362 -116 -375 -4 -2 -8 -9 -8 -17 0 -7 -35 -48 -77 -92 -108 -110 -173 -156
-258 -183 -22 -7 -45 -17 -51 -21 -16 -13 -76 -17 -98 -6 -12 6 -22 5 -29 -2
-22 -22 -26 -16 -42 69 -3 14 -7 43 -10 65 -3 22 -7 54 -10 70 -2 17 -8 52
-13 78 -5 27 -6 63 -2 82 5 23 3 43 -6 60 -13 26 -11 30 45 98 32 40 61 82 65
95 4 12 23 34 42 48 39 30 42 43 15 75 -18 22 -20 22 -62 9 -24 -7 -56 -15
-71 -16 -24 -3 -28 0 -29 24 -1 15 -3 74 -4 132 -7 226 -19 287 -76 390 -5 8
-17 31 -28 50 -41 74 -202 220 -243 220 -7 0 -19 9 -26 20 -7 11 -19 20 -27
20 -8 0 -19 9 -25 20 -6 11 -15 18 -19 15 -5 -2 -42 9 -82 26 -81 33 -88 36
-169 49 -60 10 -82 10 -126 -2z m1781 -362 c57 -62 67 -105 69 -286 l2 -155
40 -5 c32 -4 42 -1 57 18 15 18 29 22 70 22 93 0 143 -49 146 -143 1 -41 -3
-53 -29 -80 -30 -32 -39 -70 -20 -82 13 -8 94 4 86 13 -3 3 -1 11 4 18 11 12
50 8 50 -6 0 -4 8 -7 18 -6 41 3 19 -147 -31 -217 -37 -52 -86 -96 -112 -103
-29 -7 -76 10 -100 36 -16 18 -15 23 15 97 17 44 35 109 39 148 7 66 5 79 -25
168 -4 9 -10 17 -15 17 -5 0 -9 6 -9 13 0 8 -16 18 -35 24 -32 10 -37 9 -62
-17 -38 -38 -83 -91 -83 -98 0 -9 -129 -132 -139 -132 -12 0 -43 -68 -37 -79
3 -5 15 -11 26 -14 19 -5 41 12 185 148 23 22 47 50 53 61 12 22 48 38 57 24
2 -4 7 -39 10 -78 4 -62 1 -80 -26 -151 -20 -54 -41 -90 -63 -109 -43 -38 -49
-56 -25 -85 13 -17 19 -41 19 -74 0 -44 -4 -53 -35 -82 -33 -30 -49 -81 -25
-81 6 0 10 -6 10 -13 0 -7 9 -13 20 -13 11 0 20 3 20 7 0 3 16 26 36 51 27 36
37 60 44 108 5 34 10 64 12 66 10 9 49 -10 44 -22 -3 -8 -2 -14 3 -14 17 0 21
-66 7 -117 -15 -57 -64 -163 -75 -163 -4 0 -14 -11 -21 -25 -7 -13 -23 -27
-34 -31 -12 -3 -30 -16 -41 -28 -29 -31 -92 -68 -111 -64 -9 2 -25 31 -40 73
-26 76 -53 136 -54 120 0 -5 -13 11 -28 36 -15 26 -38 58 -52 72 -14 14 -32
38 -40 54 -8 15 -24 37 -36 48 -36 34 -44 58 -29 86 43 79 71 149 74 184 1 22
9 51 18 64 9 14 17 39 18 55 6 107 19 205 31 231 7 17 15 53 18 80 2 28 10 82
16 120 6 39 10 81 9 95 -7 89 7 209 27 231 21 23 49 17 79 -15z m-3375 -117
c23 -20 25 -27 24 -118 0 -95 -11 -168 -41 -264 -43 -139 -35 -197 38 -278 17
-19 38 -51 47 -71 9 -21 20 -38 25 -38 21 0 81 -187 70 -217 -3 -7 -14 -13
-24 -13 -10 0 -19 -4 -19 -9 0 -5 -16 -29 -37 -53 -42 -50 -76 -122 -109 -233
-13 -43 -28 -83 -33 -88 -13 -13 -210 189 -218 222 -11 43 -44 65 -74 50 -26
-13 -204 -19 -260 -9 -38 7 -63 20 -87 43 -61 58 -71 97 -43 170 10 25 53 41
69 25 5 -5 21 -11 36 -14 16 -3 35 -11 43 -19 25 -25 73 -15 73 15 0 26 -10
50 -21 50 -12 0 -68 62 -69 76 0 6 -10 24 -22 39 -30 38 -87 151 -104 205 -20
64 -17 87 11 116 21 21 31 24 58 19 32 -7 87 -54 87 -74 0 -6 3 -11 8 -11 4 0
18 -19 32 -41 26 -43 61 -59 85 -39 21 18 19 32 -12 76 -16 21 -39 59 -52 84
-13 25 -37 66 -53 92 -24 39 -29 55 -26 99 3 47 6 52 28 56 13 2 29 8 34 13 6
6 25 10 44 10 27 0 43 -10 93 -61 32 -33 66 -73 74 -89 8 -15 25 -37 38 -47
30 -23 42 -53 22 -53 -8 0 -15 -7 -15 -15 0 -8 -4 -15 -9 -15 -5 0 -12 -8 -15
-17 -4 -10 -20 -33 -36 -52 -17 -19 -32 -44 -35 -55 -2 -12 -7 -34 -10 -51 -8
-36 -7 -139 1 -178 5 -25 10 -28 37 -25 l32 3 -3 60 c-4 113 31 200 115 283
18 18 34 38 34 45 2 24 -3 52 -12 62 -17 18 -10 137 12 185 11 24 24 47 30 51
5 3 12 19 15 35 6 33 29 62 59 75 30 12 38 10 65 -12z m1790 8 c20 -16 80
-110 80 -126 0 -7 6 -25 14 -39 39 -74 38 -217 -2 -295 -30 -57 -42 -67 -76
-67 -33 0 -136 47 -136 62 0 5 -6 15 -12 23 -42 43 -51 67 -73 190 -2 11 -4
20 -5 20 -8 0 -7 87 0 115 13 48 68 109 105 116 16 3 32 7 34 10 9 9 57 3 71
-9z m346 -87 c8 -19 19 -37 25 -41 5 -3 11 -17 12 -30 0 -13 5 -27 9 -30 16
-11 33 -222 26 -318 -1 -11 -19 -12 -92 -8 -103 6 -160 23 -151 46 17 43 25
169 14 220 -13 66 -4 152 22 195 37 62 102 46 135 -34z m-696 -368 c42 -15 62
-27 169 -105 24 -18 55 -39 70 -47 64 -37 80 -53 86 -83 22 -103 81 -139 222
-138 47 1 95 4 109 7 22 6 24 3 26 -35 1 -23 2 -48 2 -57 1 -23 -92 -70 -139
-69 -16 0 -33 -4 -37 -10 -4 -6 -51 -10 -105 -10 -89 0 -104 3 -156 29 -31 16
-57 33 -57 38 0 4 -6 8 -13 8 -16 0 -120 74 -165 117 -22 21 -31 37 -25 45 8
13 10 19 12 41 0 7 9 22 19 33 30 32 33 53 12 74 -32 32 -48 24 -81 -41 -17
-34 -36 -68 -42 -76 -36 -46 -68 -73 -84 -73 -22 0 -43 -18 -43 -37 0 -20 38
-53 60 -53 12 0 33 11 48 25 15 14 29 25 32 25 4 0 19 -18 36 -41 16 -23 37
-50 47 -60 9 -10 17 -21 17 -24 0 -3 9 -18 20 -33 10 -15 22 -41 25 -58 2 -17
11 -47 19 -66 9 -20 13 -38 9 -41 -7 -7 50 -80 92 -119 31 -29 176 -82 185
-68 3 5 17 11 32 15 35 9 107 79 142 139 16 28 41 61 55 74 15 13 26 35 26 50
0 15 4 28 9 30 5 1 8 -35 8 -80 -8 -536 -3 -640 37 -773 10 -33 25 -80 32
-105 7 -25 23 -66 36 -91 13 -26 23 -52 23 -57 0 -6 4 -12 8 -14 14 -5 79
-129 92 -173 15 -55 24 -152 23 -260 0 -89 -23 -172 -52 -189 -6 -4 -19 -26
-29 -49 -22 -48 -121 -177 -196 -255 -86 -90 -210 -142 -370 -157 -32 -3 -62
-8 -67 -10 -4 -3 -50 4 -101 15 -84 19 -100 26 -171 80 -43 33 -81 60 -85 60
-13 0 -82 80 -112 129 -25 42 -40 85 -67 208 -10 43 -17 155 -16 253 0 102 10
169 33 227 26 69 67 162 80 183 5 8 28 51 50 95 42 85 60 155 60 240 0 49 2
53 27 60 21 5 24 8 12 15 -8 6 -15 6 -17 0 -5 -15 -42 8 -42 27 0 15 -98 223
-110 233 -29 24 -136 240 -163 330 -54 178 -56 194 -47 293 7 75 16 107 44
163 34 70 106 154 132 154 8 0 14 4 14 8 0 11 58 35 105 43 65 11 147 7 195
-9z m958 -194 c-45 -68 -180 -208 -199 -208 -17 0 -4 219 13 236 7 7 51 15 98
19 47 4 87 9 89 11 2 2 13 4 23 4 16 0 12 -10 -24 -62z m-1638 -2734 c58 -14
116 -32 130 -39 33 -17 109 -52 140 -65 47 -19 110 -71 110 -90 0 -6 4 -10 9
-10 5 0 21 -20 35 -45 21 -39 24 -54 20 -111 -2 -36 0 -73 5 -82 8 -16 -1 -17
-102 -15 -62 1 -194 2 -294 2 l-182 1 9 27 c18 62 50 121 93 174 l46 56 -20
22 c-11 11 -24 21 -29 21 -19 0 -40 -13 -40 -25 0 -6 -9 -20 -21 -31 -19 -17
-36 -45 -77 -131 -9 -18 -22 -33 -29 -33 -7 0 -12 -3 -12 -7 1 -5 1 -23 0 -42
l-1 -34 -52 8 c-29 4 -59 8 -65 8 -15 0 -17 13 -3 22 6 3 10 16 10 28 0 12 11
34 24 49 14 14 22 29 19 32 -4 3 -1 6 5 6 7 0 12 5 12 11 0 6 18 29 40 51 40
40 45 54 34 95 -5 16 -12 21 -28 19 -11 -3 -24 -5 -28 -5 -5 -1 -8 -8 -8 -16
0 -8 -12 -25 -26 -37 -14 -13 -39 -46 -55 -75 -17 -29 -38 -57 -47 -63 -9 -5
-13 -10 -9 -10 5 0 0 -11 -11 -25 -11 -14 -19 -37 -17 -51 2 -25 1 -26 -44
-19 -59 9 -63 12 -55 38 10 32 74 168 85 181 5 6 20 25 32 42 30 41 92 95 114
98 10 2 24 14 31 29 36 73 88 81 252 41z m1803 -105 c15 -7 27 -16 27 -21 0
-5 4 -7 9 -4 21 13 110 -132 95 -155 -3 -6 -1 -15 4 -22 5 -7 12 -36 16 -64 5
-43 3 -53 -8 -53 -14 0 -18 14 -30 80 -7 44 -47 119 -68 128 -5 2 -8 16 -8 32
0 31 -30 45 -75 34 -19 -5 -25 -13 -25 -35 0 -15 8 -34 18 -41 39 -29 72 -87
80 -142 5 -31 7 -57 5 -59 -13 -13 -51 9 -63 36 -7 18 -18 43 -24 57 -6 14
-15 30 -21 37 -5 6 -26 34 -45 62 -38 54 -63 64 -81 30 -13 -26 -2 -52 50
-118 19 -24 36 -57 37 -73 2 -26 -1 -28 -34 -28 -21 0 -97 -3 -170 -6 -145 -7
-138 -11 -112 51 5 11 14 37 21 59 6 21 21 53 34 71 12 18 27 46 34 63 7 16
24 35 39 43 15 7 34 19 42 25 42 34 191 42 253 13z"/>
<path d="M2600 3835 c0 -8 -7 -18 -16 -23 -25 -14 -27 -75 -4 -105 11 -14 20
-37 20 -51 0 -19 8 -30 26 -38 33 -15 60 0 57 33 0 13 -3 57 -6 97 -2 40 -9
78 -15 84 -17 17 -62 19 -62 3z"/>
<path d="M2912 3758 c-12 -12 -17 -104 -6 -132 3 -9 12 -16 19 -16 7 0 15 -5
17 -11 2 -5 11 -7 21 -4 13 6 17 20 18 66 1 32 2 65 3 72 5 32 -46 51 -72 25z"/>
</g>
</svg>
