<?xml version="1.0" standalone="no"?>
<!DOCTYPE svg PUBLIC "-//W3C//DTD SVG 20010904//EN"
 "http://www.w3.org/TR/2001/REC-SVG-20010904/DTD/svg10.dtd">
<svg version="1.0" xmlns="http://www.w3.org/2000/svg"
 width="425.000000pt" height="361.000000pt" viewBox="0 0 425.000000 361.000000"
 preserveAspectRatio="xMidYMid meet">
<metadata>
Created by potrace 1.16, written by Peter Selinger 2001-2019
</metadata>
<g transform="translate(0.000000,361.000000) scale(0.100000,-0.100000)"
fill="#000000" stroke="none">
<path d="M1971 3414 c-17 -9 -32 -9 -49 -3 -14 5 -44 7 -67 3 -23 -3 -69 -7
-101 -8 -32 -2 -77 -8 -99 -14 -22 -6 -85 -23 -140 -38 -55 -14 -120 -37 -145
-49 -115 -57 -226 -118 -236 -131 -6 -8 -14 -14 -17 -14 -11 0 -148 -129 -229
-215 -25 -28 -67 -69 -92 -93 -25 -24 -46 -48 -46 -53 0 -5 -15 -30 -33 -56
-40 -58 -74 -127 -123 -253 -21 -52 -44 -105 -52 -117 -7 -12 -13 -24 -12 -28
4 -12 -13 -91 -21 -101 -5 -6 -18 -76 -30 -155 -21 -148 -28 -309 -16 -389 4
-25 8 -58 9 -75 1 -16 5 -34 9 -40 4 -5 7 -21 7 -35 -1 -38 101 -321 123 -344
5 -6 9 -17 9 -25 0 -18 61 -154 73 -162 5 -3 9 -12 11 -20 2 -14 17 -40 63
-110 12 -19 23 -39 23 -44 0 -4 7 -15 15 -24 8 -9 31 -36 52 -61 114 -135 343
-340 381 -340 6 0 12 -4 12 -10 0 -5 6 -10 14 -10 7 0 25 -9 40 -21 14 -11 26
-18 26 -14 0 5 10 -2 43 -31 12 -11 56 -24 90 -27 9 -1 17 -5 17 -9 0 -10 31
-26 61 -32 13 -2 41 -12 62 -21 41 -17 87 -28 208 -50 73 -12 226 -12 259 1 8
4 67 15 130 25 158 26 162 27 211 39 61 15 59 14 103 33 21 9 41 17 45 17 3 1
24 9 46 20 22 11 44 19 48 20 15 0 281 136 350 178 37 23 70 42 73 42 12 0
121 80 145 106 14 16 45 45 69 64 57 47 78 69 120 126 19 26 62 77 95 114 33
36 67 80 74 98 7 17 17 32 22 32 5 0 9 5 9 11 0 6 20 41 44 78 40 63 58 98 54
111 0 3 9 24 21 47 11 23 21 49 21 57 0 9 11 50 25 93 31 94 75 304 77 370 2
46 -9 139 -17 153 -2 3 -7 26 -10 51 -11 74 -13 83 -29 121 -9 21 -16 53 -16
71 0 19 -6 40 -13 46 -8 6 -25 43 -38 83 -13 40 -32 84 -41 97 -10 13 -18 32
-18 42 0 11 -4 19 -10 19 -5 0 -10 5 -10 10 0 6 -9 30 -21 55 -23 49 -151 185
-174 185 -7 0 -16 9 -20 19 -3 11 -20 30 -37 43 -31 23 -124 115 -188 183 -62
67 -179 154 -223 166 -57 15 -117 40 -117 49 0 6 -55 19 -102 24 -3 1 -10 4
-14 9 -4 4 -20 7 -36 7 -16 0 -31 6 -34 14 -3 8 -27 17 -55 21 -27 4 -49 11
-49 16 0 5 -11 9 -24 9 -14 0 -27 4 -30 8 -2 4 -24 9 -48 10 -24 2 -60 7 -81
13 -20 5 -41 8 -45 6 -4 -3 -18 0 -32 6 -37 15 -319 16 -349 1z m124 -114 c72
7 255 -1 255 -11 0 -3 39 -11 88 -18 48 -7 96 -17 107 -21 11 -4 54 -18 95
-30 75 -22 100 -30 199 -69 29 -12 62 -21 72 -21 10 0 20 -4 23 -8 3 -4 30
-21 60 -36 51 -26 106 -75 222 -197 23 -24 59 -59 80 -77 45 -37 41 -33 136
-134 86 -90 91 -96 124 -168 14 -30 39 -82 55 -115 16 -33 31 -78 35 -100 3
-22 10 -45 15 -51 5 -7 14 -38 20 -70 14 -82 14 -83 22 -90 4 -4 7 -18 7 -31
0 -14 5 -34 12 -46 17 -32 18 -172 1 -247 -7 -36 -16 -84 -18 -107 -3 -23 -10
-55 -16 -70 -6 -15 -18 -55 -25 -88 -22 -89 -80 -215 -138 -298 -181 -257
-345 -436 -448 -486 -15 -7 -28 -17 -28 -22 0 -5 -5 -9 -10 -9 -6 0 -19 -8
-30 -17 -27 -26 -355 -188 -420 -208 -30 -10 -62 -24 -71 -31 -8 -8 -22 -14
-30 -14 -8 0 -19 -4 -24 -9 -9 -8 -127 -35 -315 -72 -119 -24 -276 -30 -350
-14 -78 16 -217 57 -245 72 -80 42 -103 52 -109 46 -3 -3 -6 -1 -6 5 0 7 -9
12 -20 12 -11 0 -20 4 -20 9 0 5 -8 11 -17 14 -19 6 -95 48 -103 58 -3 3 -23
16 -45 29 -22 14 -71 55 -109 92 -37 38 -71 68 -75 68 -3 0 -22 21 -41 46 -19
25 -45 55 -57 67 -13 11 -23 25 -23 30 0 5 -11 18 -24 28 -13 10 -27 31 -31
46 -7 29 -54 89 -66 86 -5 -2 -6 4 -3 11 3 8 -15 56 -40 107 -25 50 -46 98
-46 106 0 8 -9 31 -20 51 -16 31 -49 102 -55 122 -1 3 -7 25 -14 50 -7 25 -17
56 -23 70 -21 54 -35 200 -33 345 2 83 5 161 8 175 3 14 8 47 12 74 4 27 12
61 17 75 6 14 12 31 13 36 15 66 69 211 116 313 16 35 29 68 29 73 0 5 4 9 9
9 5 0 12 11 15 25 4 14 11 25 16 25 6 0 10 5 10 11 0 35 293 329 391 393 115
75 210 126 235 126 8 0 52 13 97 29 45 15 115 31 156 35 40 4 83 11 95 16 11
4 80 6 151 3 72 -3 139 -4 150 -3z"/>
<path d="M2639 2896 c-2 -2 -34 -7 -72 -11 -57 -5 -76 -12 -127 -48 -64 -43
-79 -71 -60 -106 15 -29 54 -27 95 4 47 36 89 44 170 31 56 -9 64 -12 102 -37
40 -26 56 -24 97 10 38 32 2 100 -61 115 -15 4 -34 13 -42 19 -7 6 -27 10 -43
8 -16 -1 -35 2 -42 8 -7 6 -15 9 -17 7z"/>
<path d="M1562 2868 c-38 -9 -126 -42 -132 -49 -3 -3 -16 -9 -30 -12 -54 -13
-83 -66 -56 -102 13 -18 16 -18 87 9 41 15 84 33 96 38 16 8 46 8 99 2 99 -13
128 -8 145 23 11 21 10 29 -5 58 -18 33 -19 34 -97 37 -44 2 -92 0 -107 -4z"/>
<path d="M1574 2658 c-3 -4 -17 -8 -32 -8 -45 0 -99 -45 -131 -109 -32 -65
-63 -185 -51 -198 5 -4 11 -30 15 -58 16 -123 33 -166 90 -218 58 -55 79 -61
164 -46 84 15 136 50 148 98 3 14 17 50 29 80 15 33 24 74 25 110 1 31 4 67 8
81 7 24 -1 52 -38 129 -15 32 -101 129 -101 115 0 -4 -6 -2 -12 3 -25 20 -106
35 -114 21z"/>
<path d="M2634 2658 c-3 -5 -12 -7 -20 -4 -26 10 -81 -27 -94 -64 -7 -19 -21
-44 -31 -55 -34 -38 -57 -109 -64 -195 -4 -47 -7 -87 -8 -90 -4 -21 18 -102
36 -131 26 -43 84 -94 121 -109 34 -13 133 -13 141 0 3 5 11 7 18 5 18 -8 101
125 137 221 11 30 17 184 8 214 -17 58 -82 160 -102 160 -4 0 -19 9 -35 21
-33 24 -98 41 -107 27z m142 -279 c1 -16 -2 -29 -7 -29 -5 0 -9 17 -9 37 0 42
14 36 16 -8z"/>
<path d="M3005 1907 c-45 -14 -62 -34 -80 -88 -12 -36 -15 -66 -10 -113 9 -78
-2 -101 -86 -188 -33 -35 -67 -75 -77 -90 -9 -16 -20 -28 -25 -28 -5 0 -26
-15 -48 -33 -54 -47 -196 -115 -256 -123 -12 -1 -60 -12 -105 -23 -46 -11 -96
-21 -113 -22 -61 -4 -293 13 -374 27 -77 13 -191 57 -199 76 -2 4 -10 8 -17 8
-12 0 -75 37 -172 102 -22 15 -71 56 -108 91 -65 62 -68 67 -62 102 4 23 0 51
-9 75 -9 21 -14 49 -12 62 2 15 -7 34 -26 54 -25 28 -33 31 -74 27 -25 -2 -53
-10 -62 -17 -8 -8 -28 -18 -43 -22 -16 -3 -31 -13 -34 -20 -3 -8 -10 -14 -17
-14 -15 -1 -65 -108 -68 -145 -2 -26 9 -56 43 -115 5 -8 13 -25 19 -37 5 -12
19 -27 31 -33 29 -16 94 -5 119 20 11 11 28 20 37 20 17 0 63 -59 63 -80 0 -5
4 -10 9 -10 5 0 22 -19 38 -42 16 -24 35 -44 43 -46 20 -5 60 -43 60 -56 0 -6
14 -17 31 -25 17 -8 74 -56 126 -107 53 -51 104 -96 114 -99 11 -4 19 -10 19
-15 0 -5 6 -7 13 -4 7 2 38 -11 68 -29 57 -34 104 -47 264 -71 105 -16 133
-13 275 20 108 26 226 76 269 113 14 12 44 34 68 49 27 17 63 56 96 102 28 41
61 84 72 95 40 39 135 159 135 171 0 7 3 14 8 16 4 2 15 20 26 40 30 59 54 80
76 68 22 -12 97 17 135 52 13 13 31 29 39 36 17 14 40 86 38 120 -1 13 -16 43
-33 67 -33 45 -78 70 -147 81 -20 3 -39 7 -42 9 -3 1 -18 -2 -35 -8z m123
-127 c56 -52 -5 -143 -74 -111 -14 6 -22 16 -19 21 11 18 14 50 5 50 -16 0
-23 42 -9 51 25 15 75 10 97 -11z m-1983 -82 c9 -9 17 -50 16 -83 -1 -21 -12
-39 -38 -62 -44 -40 -58 -41 -61 -7 -1 14 -7 34 -12 45 -15 27 -4 58 31 91 26
24 50 30 64 16z"/>
<path d="M1857 1865 c-29 -32 -28 -55 6 -125 34 -71 64 -89 153 -91 85 -2 147
16 184 53 16 15 36 28 44 28 9 0 16 8 16 20 0 10 5 30 11 43 8 19 6 30 -11 60
-18 31 -25 35 -40 27 -11 -6 -22 -15 -25 -20 -3 -6 -15 -10 -26 -10 -11 0 -18
-4 -15 -9 7 -11 -54 -41 -83 -41 -29 0 -102 30 -127 52 -11 10 -26 18 -32 18
-7 0 -12 5 -12 10 0 17 -18 11 -43 -15z"/>
</g>
</svg>
