<?xml version="1.0" standalone="no"?>
<!DOCTYPE svg PUBLIC "-//W3C//DTD SVG 20010904//EN"
 "http://www.w3.org/TR/2001/REC-SVG-20010904/DTD/svg10.dtd">
<svg version="1.0" xmlns="http://www.w3.org/2000/svg"
 width="437.000000pt" height="469.000000pt" viewBox="0 0 437.000000 469.000000"
 preserveAspectRatio="xMidYMid meet">
<metadata>
Created by potrace 1.16, written by Peter Selinger 2001-2019
</metadata>
<g transform="translate(0.000000,469.000000) scale(0.100000,-0.100000)"
fill="#000000" stroke="none">
<path d="M765 4392 c-40 -28 -60 -131 -70 -352 -23 -510 -25 -547 -30 -562 -4
-13 -13 -145 -20 -333 -3 -55 -9 -122 -16 -150 -12 -57 -16 -103 -28 -374 -7
-141 -13 -196 -22 -202 -7 -4 -43 -11 -79 -14 -100 -10 -114 -16 -118 -53 -3
-27 1 -34 25 -44 15 -7 30 -16 33 -20 10 -13 62 -28 100 -28 21 0 42 -4 45
-10 11 -17 54 -11 64 9 8 14 6 25 -10 45 l-20 26 29 0 29 0 7 -102 c3 -57 11
-121 16 -143 6 -22 13 -58 16 -80 2 -22 9 -60 14 -85 5 -25 12 -64 14 -87 5
-48 19 -78 40 -86 24 -9 79 11 113 42 29 27 31 34 32 98 0 144 -5 131 49 138
26 4 88 18 137 31 50 14 135 30 190 35 124 13 139 19 164 68 20 38 110 185
177 288 19 28 34 56 34 62 0 6 5 11 10 11 6 0 10 6 10 13 0 8 11 24 25 37 19
17 26 20 29 9 9 -29 20 -314 22 -609 2 -168 5 -367 7 -443 2 -75 1 -139 -3
-142 -13 -8 2 -55 21 -69 10 -7 17 -15 14 -17 -8 -9 -53 -194 -64 -269 -7 -41
-16 -88 -21 -105 -16 -53 -39 -179 -41 -220 -1 -22 5 -58 13 -80 9 -22 28 -83
43 -135 37 -128 66 -209 76 -216 5 -3 9 -12 9 -21 0 -29 -192 -2 -212 30 -13
21 -63 -5 -66 -35 -6 -47 56 -69 238 -88 122 -12 117 -13 124 5 5 14 -38 168
-54 190 -4 6 -13 35 -19 65 -7 30 -18 69 -26 85 -25 59 -50 189 -44 230 25
156 41 245 59 315 43 167 64 235 79 252 16 16 40 19 267 23 137 2 298 0 358
-4 l109 -8 44 -47 c44 -49 52 -66 31 -66 -8 -1 -5 -7 6 -15 16 -12 18 -23 13
-67 -4 -29 -9 -100 -12 -158 -3 -58 -8 -134 -11 -170 -3 -36 -7 -123 -10 -194
-2 -71 -6 -131 -8 -135 -2 -3 -7 -56 -11 -116 -10 -155 -25 -146 259 -148 204
-2 227 0 243 16 13 13 15 20 6 25 -6 4 -11 16 -10 26 2 17 -11 18 -200 19
-146 2 -205 5 -214 14 -10 10 -10 33 -1 110 7 54 12 130 12 169 0 39 3 73 6
77 3 3 7 86 9 184 1 98 6 193 10 211 l8 34 111 -111 111 -110 53 25 c37 17 82
53 145 119 94 96 137 143 137 151 0 2 19 24 42 48 62 62 120 159 152 251 15
44 31 84 36 90 4 5 13 35 19 65 6 30 18 73 25 95 34 100 40 123 47 165 9 56
15 81 33 139 13 42 28 169 29 246 2 89 -15 349 -24 372 -6 15 -8 37 -5 49 8
31 -19 50 -91 65 -50 10 -69 10 -100 0 -21 -7 -130 -19 -243 -27 -113 -8 -231
-17 -262 -20 -50 -6 -58 -4 -58 10 0 37 -26 97 -45 103 -11 3 -158 6 -327 7
-168 1 -310 4 -314 9 -12 12 0 17 67 29 106 18 156 51 259 168 16 19 33 46 36
60 4 14 12 32 19 40 20 25 63 113 68 140 3 14 12 59 22 100 31 137 15 455 -26
532 -5 9 -9 27 -9 40 0 13 -7 32 -15 42 -8 11 -15 26 -15 33 0 7 -23 42 -50
77 -75 96 -149 127 -253 106 -68 -14 -224 -62 -274 -85 -17 -8 -34 -15 -39
-15 -20 0 -116 -71 -174 -130 -76 -76 -131 -181 -146 -280 -11 -67 -21 -197
-17 -215 3 -11 4 -42 4 -70 0 -28 11 -81 24 -122 14 -39 25 -77 25 -83 0 -6
13 -30 29 -53 16 -23 45 -68 66 -99 43 -67 71 -86 180 -123 143 -48 136 -44
133 -79 -3 -29 -6 -31 -53 -39 -27 -4 -82 -4 -121 -1 -64 5 -73 4 -91 -15 -18
-19 -24 -20 -73 -11 -82 15 -128 13 -139 -8 -6 -11 -6 -24 1 -35 8 -14 1 -29
-34 -73 -24 -30 -50 -66 -59 -82 -26 -46 -97 -155 -129 -199 -17 -23 -42 -63
-56 -90 -46 -92 -51 -95 -160 -109 -55 -7 -138 -24 -187 -38 -48 -15 -107 -26
-132 -26 -41 0 -45 2 -50 28 -3 15 -10 41 -14 59 -5 18 -6 34 -3 37 3 3 53 6
111 6 93 0 108 2 118 19 12 20 7 61 -8 61 -5 0 -9 8 -9 19 0 31 -28 45 -85 43
-32 -1 -57 2 -61 9 -4 7 -8 156 -9 333 -3 424 -21 885 -41 1017 -8 58 -14 121
-14 140 3 53 -11 210 -21 249 -5 20 -11 71 -14 115 -7 111 -55 180 -100 147z
m44 -224 c7 -39 15 -108 17 -152 2 -45 5 -101 8 -126 2 -25 9 -90 15 -145 5
-55 13 -203 16 -330 4 -126 9 -248 13 -270 7 -53 10 -583 3 -682 l-6 -78 -34
-3 -34 -3 8 78 c5 43 10 161 12 263 4 258 4 309 -3 440 -3 63 -7 144 -8 180
-1 58 -3 65 -22 68 -11 2 -27 -4 -34 -13 -25 -31 -33 -17 -25 48 4 34 9 105
10 157 4 95 11 229 21 370 3 41 4 106 4 143 -2 71 7 127 19 127 3 0 13 -32 20
-72z m1717 -77 c38 -17 84 -66 84 -89 0 -6 4 -12 8 -14 11 -4 61 -163 71 -228
19 -118 7 -350 -24 -453 -13 -44 -72 -174 -85 -187 -3 -3 -18 -23 -34 -45 -71
-96 -104 -120 -192 -133 -59 -10 -69 -8 -199 29 -189 55 -263 128 -325 323
-20 61 -22 84 -17 200 3 72 8 147 12 166 8 44 66 180 77 180 4 0 8 5 8 12 0
12 67 78 79 78 4 0 24 17 46 37 43 41 213 113 268 113 18 1 46 7 62 15 43 19
113 18 161 -4z m-1775 -783 c2 -102 8 -264 13 -326 2 -34 0 -77 -5 -95 -9 -31
-11 -78 -7 -208 1 -36 -2 -70 -5 -76 -4 -6 -3 -13 2 -15 7 -2 6 -18 0 -43 -14
-54 -17 -74 -18 -112 -1 -25 -5 -33 -20 -33 -40 0 -43 19 -35 217 4 103 6 197
6 208 -2 17 4 62 23 195 8 54 20 216 24 308 2 53 21 36 22 -20z m2124 -594
c12 -12 13 -20 5 -28 -13 -13 -62 -12 -239 3 -158 15 -185 8 -171 -40 7 -24 5
-31 -10 -39 -33 -18 -45 -90 -55 -319 -3 -68 -8 -127 -11 -132 -2 -5 2 -21 9
-36 9 -17 15 -60 16 -109 0 -85 38 -255 86 -394 25 -71 37 -100 73 -178 8 -17
13 -34 11 -35 -2 -2 -165 -1 -361 1 l-356 4 -8 27 c-10 33 -12 95 -18 531 -4
318 -11 548 -21 651 -5 57 2 61 111 64 55 2 124 8 154 15 49 10 273 20 647 27
101 3 124 0 138 -13z m734 -60 c21 -4 31 -12 31 -24 0 -10 6 -20 12 -22 7 -3
14 -27 15 -59 2 -30 6 -103 9 -164 8 -138 9 -122 -5 -240 -6 -55 -18 -118 -26
-140 -7 -22 -19 -69 -26 -105 -6 -36 -27 -111 -45 -168 -19 -56 -34 -110 -34
-120 0 -10 -9 -35 -19 -56 -11 -21 -27 -58 -35 -83 -14 -41 -77 -149 -111
-191 -86 -106 -118 -142 -126 -142 -5 0 -38 -30 -72 -66 -77 -82 -114 -101
-157 -79 -43 22 -153 139 -213 227 -29 41 -64 92 -80 114 -76 108 -118 181
-131 223 -8 25 -26 78 -39 116 -14 39 -33 103 -42 143 -9 39 -20 72 -24 72 -3
0 -6 12 -7 28 0 15 -3 108 -6 207 -6 164 -1 239 25 438 5 42 61 46 277 22 89
-10 142 -12 155 -6 41 19 195 40 347 46 86 4 178 13 205 20 57 16 79 17 122 9z
m-2789 -426 c6 -24 16 -60 22 -81 9 -28 8 -41 0 -49 -15 -15 -15 -51 -1 -65
16 -16 12 -175 -4 -185 -7 -5 -14 -1 -18 10 -12 31 -48 246 -55 318 -5 63 -4
73 13 83 28 16 31 14 43 -31z"/>
</g>
</svg>
