<?xml version="1.0" standalone="no"?>
<!DOCTYPE svg PUBLIC "-//W3C//DTD SVG 20010904//EN"
 "http://www.w3.org/TR/2001/REC-SVG-20010904/DTD/svg10.dtd">
<svg version="1.0" xmlns="http://www.w3.org/2000/svg"
 width="383.000000pt" height="483.000000pt" viewBox="0 0 383.000000 483.000000"
 preserveAspectRatio="xMidYMid meet">
<metadata>
Created by potrace 1.16, written by Peter Selinger 2001-2019
</metadata>
<g transform="translate(0.000000,483.000000) scale(0.100000,-0.100000)"
fill="#000000" stroke="none">
<path d="M1553 4802 c-17 -11 -67 -116 -88 -186 -13 -42 -16 -63 -8 -75 21
-33 36 -16 58 64 12 44 34 104 49 133 30 60 26 88 -11 64z"/>
<path d="M2960 4270 c-8 -4 -31 -15 -50 -24 -75 -34 -231 -142 -303 -210 -50
-47 -57 -57 -48 -74 11 -20 41 -38 41 -24 0 17 147 151 205 187 32 19 79 57
147 118 32 28 35 41 8 27z"/>
<path d="M1423 4227 c-10 -13 -27 -43 -37 -66 -14 -29 -25 -41 -40 -41 -24 0
-250 -71 -281 -88 -11 -6 -48 -25 -83 -42 -35 -16 -73 -39 -84 -50 -12 -11
-27 -20 -33 -20 -6 0 -44 -32 -84 -71 -76 -74 -161 -194 -161 -227 0 -34 60
-71 88 -53 8 4 13 10 12 12 -6 12 23 91 36 96 7 3 14 11 14 18 0 12 30 43 114
119 16 14 35 26 42 26 8 0 14 4 14 9 0 18 149 92 225 112 41 10 96 26 121 35
25 8 48 14 50 12 2 -2 -5 -31 -16 -63 -19 -60 -19 -60 2 -78 12 -10 26 -16 32
-14 6 2 18 41 27 88 l15 84 150 2 c146 3 213 -5 304 -34 48 -16 143 -64 148
-75 2 -5 8 -8 14 -8 12 0 90 -59 101 -77 4 -7 28 -32 53 -56 l45 -44 -48 -38
c-26 -21 -52 -41 -56 -45 -4 -4 -5 -19 -1 -34 10 -40 38 -32 91 24 26 28 50
50 53 50 4 0 13 -12 21 -27 8 -16 16 -30 19 -33 14 -12 50 -70 81 -130 18 -36
36 -67 40 -70 30 -24 74 -215 65 -283 -3 -23 -10 -77 -16 -120 -5 -43 -13 -84
-17 -90 -4 -6 -8 -18 -9 -27 -2 -8 -13 -46 -25 -85 -12 -38 -22 -87 -23 -107
-1 -24 -9 -43 -23 -56 -15 -12 -19 -22 -13 -28 10 -10 -12 -95 -30 -119 -4 -5
-11 -21 -15 -35 -9 -28 -59 -141 -81 -183 -9 -15 -21 -38 -27 -50 -17 -33 -88
-118 -117 -142 -13 -11 -34 -31 -45 -44 -37 -45 -79 -81 -95 -81 -5 0 -10 -5
-10 -11 0 -6 -47 -57 -104 -113 -57 -55 -113 -120 -125 -144 -12 -23 -26 -42
-31 -42 -6 0 -10 -4 -10 -9 0 -5 -12 -35 -26 -67 -21 -45 -26 -73 -25 -119 1
-33 -2 -72 -8 -87 -5 -14 -12 -46 -16 -69 -16 -121 -50 -246 -84 -314 -14 -27
-26 -56 -27 -63 -9 -53 -28 -50 -39 5 -4 21 -10 42 -13 48 -4 5 -11 32 -17 59
-12 60 -35 78 -64 52 l-21 -19 20 -32 c11 -18 20 -41 20 -52 0 -10 5 -24 10
-29 6 -6 17 -37 26 -69 17 -69 11 -89 -39 -120 -111 -67 -205 -82 -285 -45
-71 33 -183 134 -202 181 -7 16 -26 32 -48 41 -36 14 -38 14 -64 -13 -21 -20
-25 -32 -20 -51 8 -28 46 -78 58 -78 5 0 27 -18 49 -40 143 -142 151 -148 188
-155 20 -4 40 -11 42 -16 3 -4 11 -6 18 -4 7 3 46 6 87 9 66 3 86 9 164 50 83
43 90 45 102 28 7 -9 14 -26 14 -37 0 -11 4 -26 9 -33 14 -22 34 13 26 45 -19
74 -16 89 28 155 72 110 131 251 142 343 1 11 5 34 8 50 4 17 9 46 12 65 3 19
10 51 15 70 5 19 12 67 15 105 7 68 19 107 53 171 23 42 68 94 82 94 6 0 9 4
6 8 -2 4 39 48 92 97 178 166 290 288 324 353 14 26 42 77 62 113 20 37 36 72
36 79 0 6 11 35 24 63 13 29 34 78 47 110 l23 59 55 -7 c62 -8 202 -8 209 0
13 13 -21 28 -90 41 -112 21 -122 22 -141 23 -15 1 -17 7 -13 29 3 15 8 44 10
64 2 21 8 43 12 50 5 7 9 18 9 23 1 14 14 61 31 114 8 24 16 67 18 96 2 30 7
58 10 63 7 12 9 139 2 167 -2 11 -9 42 -15 68 -15 63 -110 249 -198 386 l-32
50 31 26 c17 14 29 27 27 29 -11 11 -37 9 -65 -2 -35 -15 -52 -7 -98 48 -74
86 -168 159 -252 195 -93 40 -191 66 -231 63 -24 -2 -43 1 -43 5 0 5 -56 7
-125 5 -70 -2 -125 -7 -125 -12 0 -6 -5 -5 -12 2 -9 9 -9 24 0 63 7 29 11 54
8 56 -2 2 -12 -7 -23 -20z"/>
<path d="M1401 3829 c-41 -10 -107 -20 -147 -23 -74 -5 -97 -13 -147 -53 -16
-13 -33 -23 -38 -23 -42 0 -269 -192 -269 -227 0 -7 12 -24 26 -38 26 -26 60
-27 76 -1 58 98 230 221 324 231 27 3 63 10 80 16 56 17 77 20 194 26 101 5
122 3 165 -15 28 -11 76 -30 108 -43 31 -12 57 -26 57 -30 0 -4 8 -9 18 -13
18 -6 43 -21 75 -46 27 -21 107 -135 107 -152 0 -8 4 -18 9 -23 11 -13 35 -92
59 -195 18 -74 20 -110 16 -275 -4 -143 -9 -196 -20 -212 -7 -12 -14 -29 -14
-37 0 -19 -18 -24 -55 -16 -16 4 -83 16 -148 25 -108 16 -120 17 -134 2 -9 -8
-13 -22 -10 -30 5 -14 51 -21 232 -33 50 -4 91 -8 93 -9 2 -2 -7 -20 -21 -42
-13 -21 -28 -49 -32 -63 -19 -62 -87 -165 -154 -230 -20 -20 -73 -75 -117
-122 l-81 -86 -59 59 c-45 45 -65 59 -84 57 -40 -5 -38 -41 2 -66 18 -11 49
-37 68 -57 l34 -35 -26 -25 c-34 -31 -88 -110 -93 -134 -2 -10 -13 -39 -24
-64 -12 -25 -21 -50 -21 -56 0 -5 -9 -31 -20 -57 -11 -26 -23 -63 -26 -83 -11
-70 -63 -215 -83 -231 -3 -3 -17 -25 -30 -50 -13 -25 -39 -56 -58 -69 -40 -26
-115 -51 -155 -51 -48 0 -77 -20 -84 -57 -5 -27 -2 -39 17 -59 27 -29 33 -30
69 -4 16 11 50 23 77 27 26 3 64 17 83 30 19 12 40 23 46 23 11 0 31 21 101
107 17 22 38 63 47 91 8 29 18 58 23 65 4 6 8 17 10 22 1 6 11 42 23 80 12 39
25 84 29 100 4 17 15 45 25 62 9 18 16 35 16 38 -2 33 45 130 91 188 30 37 31
38 56 22 31 -21 38 -14 21 21 -16 33 -16 32 140 187 111 110 162 177 162 213
0 15 5 22 13 19 7 -3 21 16 36 50 13 30 28 55 32 55 5 0 9 7 9 15 0 9 16 49
35 89 19 41 35 81 35 89 0 9 5 28 10 43 6 15 13 100 16 188 7 193 6 254 -6
275 -4 9 -18 57 -30 106 -12 50 -29 110 -38 135 -13 37 -93 159 -144 220 -19
23 -190 117 -234 129 -21 6 -57 20 -79 31 -51 26 -178 26 -284 -1z"/>
<path d="M1255 3523 c-31 -73 -56 -162 -53 -185 4 -33 48 -39 48 -7 0 12 4 36
10 53 15 51 40 151 40 164 0 27 -31 9 -45 -25z"/>
<path d="M1757 3308 c-133 -94 -176 -132 -176 -155 -1 -12 8 -27 18 -33 17 -8
30 1 93 63 41 39 97 92 126 115 49 42 58 62 27 62 -8 0 -47 -24 -88 -52z"/>
<path d="M939 3118 c-7 -13 -23 -36 -36 -52 -40 -47 -59 -121 -41 -152 3 -5 9
-28 13 -50 12 -74 43 -90 190 -93 65 -2 117 -12 162 -33 40 -19 44 -25 64 -91
31 -105 24 -152 -39 -257 -28 -47 -57 -93 -66 -102 -8 -9 -23 -29 -33 -45 -10
-15 -29 -37 -43 -48 -48 -37 -139 -136 -146 -158 -4 -12 -12 -25 -18 -29 -12
-8 -15 -163 -5 -261 4 -38 2 -66 -7 -82 -7 -14 -11 -25 -9 -25 3 0 0 -11 -5
-24 -8 -22 -5 -26 26 -41 80 -38 98 2 96 211 -2 193 3 207 127 329 50 49 91
95 91 102 0 7 4 13 9 13 5 0 24 26 42 58 18 31 36 59 41 60 4 2 6 8 2 13 -3 5
0 9 5 9 6 0 11 6 11 13 0 6 7 26 16 42 25 44 25 170 2 257 -24 91 -32 104 -71
124 -18 9 -34 20 -37 24 -13 19 -113 42 -200 47 -52 2 -98 8 -102 11 -19 19
-15 81 7 123 13 24 30 54 36 67 17 32 1 56 -39 60 -24 2 -33 -2 -43 -20z"/>
<path d="M3077 2590 c-42 -33 -25 -46 81 -60 143 -20 202 -21 202 -6 0 23 -22
33 -125 54 -55 11 -107 23 -116 27 -8 3 -27 -3 -42 -15z"/>
<path d="M3621 2569 c-6 -17 -5 -26 4 -31 21 -12 108 -30 158 -32 42 -2 47 0
47 18 0 17 -12 24 -58 38 -32 9 -77 20 -100 24 -38 6 -43 4 -51 -17z"/>
<path d="M1163 1779 c-8 -8 -8 -17 -2 -28 13 -23 65 -189 80 -256 7 -30 16
-55 20 -55 20 0 25 102 6 127 -5 7 -6 16 -4 20 3 5 -1 40 -9 78 -9 39 -17 79
-19 89 -7 33 -49 48 -72 25z"/>
<path d="M1993 1763 c-28 -11 -12 -48 35 -86 26 -21 81 -71 122 -111 56 -54
81 -71 94 -66 16 5 15 9 -10 40 -16 19 -33 40 -39 46 -5 6 -39 44 -75 84 -98
110 -94 107 -127 93z"/>
<path d="M2452 1338 c-7 -7 -12 -17 -12 -23 0 -12 187 -202 214 -217 24 -13
32 16 13 46 -9 13 -42 51 -74 86 -124 135 -118 131 -141 108z"/>
<path d="M2899 943 c-49 -11 -21 -53 138 -203 30 -27 156 -120 165 -120 23 0
-2 31 -105 133 -62 62 -123 129 -135 149 -24 38 -37 47 -63 41z"/>
<path d="M1546 477 c-17 -13 -17 -17 9 -88 15 -41 29 -84 30 -96 4 -25 23 -86
41 -129 16 -37 44 -53 44 -26 0 33 -21 136 -41 201 -10 35 -19 78 -19 97 0 23
-6 37 -19 44 -25 13 -24 13 -45 -3z"/>
</g>
</svg>
