<?xml version="1.0" standalone="no"?>
<!DOCTYPE svg PUBLIC "-//W3C//DTD SVG 20010904//EN"
 "http://www.w3.org/TR/2001/REC-SVG-20010904/DTD/svg10.dtd">
<svg version="1.0" xmlns="http://www.w3.org/2000/svg"
 width="433.000000pt" height="375.000000pt" viewBox="0 0 433.000000 375.000000"
 preserveAspectRatio="xMidYMid meet">
<metadata>
Created by potrace 1.16, written by Peter Selinger 2001-2019
</metadata>
<g transform="translate(0.000000,375.000000) scale(0.100000,-0.100000)"
fill="#000000" stroke="none">
<path d="M2380 3478 c-46 -20 -63 -22 -260 -19 -102 1 -127 -2 -159 -18 -11
-6 -33 -11 -50 -11 -16 0 -36 -6 -43 -14 -8 -7 -25 -17 -38 -21 -28 -9 -150
-130 -150 -149 0 -14 -39 -52 -87 -85 -18 -12 -55 -25 -83 -28 -27 -3 -50 -9
-50 -12 0 -4 -10 -8 -22 -8 -47 -4 -148 -37 -167 -54 -11 -11 -25 -19 -31 -19
-14 0 -125 -70 -168 -106 -33 -27 -53 -64 -87 -157 -13 -37 -16 -64 -11 -120
7 -70 6 -73 -21 -98 -15 -15 -43 -32 -61 -40 -18 -8 -35 -22 -38 -31 -3 -10
-10 -18 -15 -18 -5 0 -22 -20 -38 -45 -24 -38 -29 -59 -35 -147 -5 -57 -8
-107 -8 -113 1 -32 26 -94 44 -106 5 -3 10 -38 13 -78 5 -97 10 -107 55 -125
43 -17 93 -65 86 -83 -3 -6 6 -23 20 -36 28 -28 28 -28 -45 -42 -18 -4 -52
-16 -76 -26 -24 -11 -64 -19 -91 -18 -27 0 -92 0 -144 0 -52 -1 -119 1 -150 4
-55 6 -69 1 -97 -36 -10 -12 -9 -29 3 -79 8 -35 12 -75 10 -90 -3 -14 -8 -90
-11 -170 -4 -80 -11 -162 -16 -182 -5 -21 -12 -109 -14 -195 -3 -87 -7 -167
-10 -178 -2 -11 -8 -36 -13 -56 -6 -23 -6 -43 1 -54 17 -30 40 -54 48 -49 5 3
30 -2 56 -10 26 -8 91 -22 143 -31 52 -9 109 -20 125 -25 17 -5 55 -15 85 -24
40 -11 130 -17 330 -22 151 -4 295 -6 320 -5 65 2 246 11 310 15 30 1 71 8 90
14 19 6 62 14 95 17 33 4 74 11 91 16 17 5 48 12 68 14 20 3 71 14 113 25 42
11 91 20 108 20 34 0 160 35 185 51 8 5 44 24 80 41 36 18 78 45 93 60 16 15
35 28 43 28 8 0 14 4 14 9 0 11 123 99 156 111 12 5 25 14 29 19 3 6 13 11 21
11 9 0 42 16 75 35 32 19 59 32 59 28 0 -3 8 1 18 10 20 18 128 67 148 67 8 0
14 5 14 10 0 6 17 18 38 27 20 10 54 32 75 50 20 18 43 33 50 33 8 0 32 19 54
42 43 46 61 62 108 92 16 11 41 30 55 43 14 13 30 23 37 23 7 0 13 5 13 10 0
6 7 13 17 17 9 3 32 24 52 46 19 21 43 42 52 46 26 9 191 198 189 214 -1 5 14
23 32 41 38 37 62 71 96 136 13 25 31 51 40 57 9 7 12 13 7 13 -5 0 -4 5 3 12
7 7 12 19 12 27 0 8 11 38 25 68 21 43 25 62 19 101 -3 26 -6 54 -7 62 0 16
-11 31 -44 62 -12 12 -20 25 -18 29 5 7 -12 15 -55 27 -8 2 -34 6 -58 9 -30 4
-40 9 -34 17 5 6 14 31 21 55 11 38 10 57 -5 130 -16 82 -77 221 -97 221 -4 0
-6 4 -3 9 3 5 -8 14 -24 21 -26 11 -38 10 -78 -5 -26 -10 -58 -26 -71 -37 -33
-26 -48 -23 -54 12 -7 32 -84 123 -97 115 -5 -3 -10 0 -12 6 -6 17 -77 39
-128 39 -32 0 -56 -7 -83 -25 -34 -24 -38 -24 -43 -8 -17 54 -30 77 -60 116
-19 23 -34 47 -34 54 0 6 -11 20 -25 31 -14 11 -25 23 -25 27 0 23 -168 215
-188 215 -7 0 -23 9 -35 21 -12 12 -39 32 -59 45 -35 22 -45 24 -156 20 -125
-3 -145 1 -282 66 -14 7 -27 13 -30 14 -3 2 -26 -7 -50 -18z m140 -96 c75 -37
75 -37 192 -35 93 2 124 -1 155 -15 89 -40 168 -112 218 -199 11 -18 23 -33
27 -33 4 0 8 -7 8 -15 0 -9 7 -18 15 -21 16 -7 115 -158 115 -177 0 -7 4 -17
9 -23 17 -18 20 -69 5 -88 -19 -27 -18 -52 4 -74 16 -16 18 -32 15 -113 -1
-52 -4 -108 -6 -125 -2 -17 -1 -51 2 -75 4 -30 2 -54 -8 -74 -9 -16 -17 -39
-18 -50 -2 -11 -12 -31 -21 -45 -10 -14 -27 -44 -37 -67 -10 -24 -22 -43 -26
-43 -9 0 -28 -48 -32 -82 -1 -15 -6 -30 -10 -34 -4 -4 -7 -16 -7 -26 0 -10 -6
-21 -14 -24 -8 -3 -27 -24 -43 -47 -28 -42 -62 -76 -76 -77 -4 0 -29 -15 -55
-33 -26 -19 -65 -40 -87 -47 -22 -7 -43 -17 -46 -23 -4 -5 -42 -13 -85 -18
-102 -11 -108 -12 -185 -44 -96 -41 -146 -54 -231 -61 -84 -7 -90 -2 -58 38
10 14 17 28 14 30 -2 3 2 11 11 18 8 7 15 18 15 24 0 6 15 41 34 76 38 72 84
165 111 223 9 20 21 37 26 37 5 0 9 7 9 15 0 8 8 15 18 15 10 0 36 15 58 33
22 17 47 37 55 42 9 6 51 34 94 63 43 28 79 52 81 52 9 0 107 104 138 148 34
47 38 58 33 95 -11 82 -18 102 -43 125 -14 12 -23 26 -20 31 10 15 -39 31
-110 34 -38 2 -75 6 -81 10 -6 4 -13 3 -15 -3 -1 -5 -28 -14 -58 -20 -30 -6
-59 -15 -64 -20 -6 -6 -18 -10 -27 -10 -10 0 -24 -6 -32 -14 -7 -8 -33 -23
-58 -35 -72 -35 -230 -130 -249 -151 -3 -4 -23 -17 -45 -30 -22 -13 -49 -31
-60 -41 -11 -10 -57 -32 -103 -50 -102 -38 -168 -92 -271 -217 -112 -137 -261
-262 -314 -262 -7 0 -43 -15 -79 -34 -37 -19 -94 -43 -127 -55 -56 -19 -63
-19 -110 -5 -55 16 -56 17 -102 82 -17 24 -33 41 -36 38 -3 -3 -20 9 -39 27
-30 28 -34 40 -40 102 -4 39 -15 89 -25 112 -16 34 -18 57 -13 120 3 43 5 89
5 102 -1 39 49 108 99 135 42 23 67 44 97 80 8 9 13 44 12 88 0 75 20 166 42
196 23 29 81 82 105 95 13 6 56 32 95 56 77 47 101 55 221 76 47 8 92 24 119
40 42 27 139 123 139 138 0 12 76 82 102 94 98 44 194 60 343 56 82 -2 132 2
159 11 60 21 85 18 166 -22z m973 -579 c32 -5 44 -14 75 -62 39 -58 44 -96 14
-106 -16 -5 -82 -127 -82 -152 0 -6 -8 -26 -17 -45 -9 -18 -19 -40 -23 -48 -8
-18 -55 -46 -90 -55 -24 -6 -25 -4 -26 37 -1 24 3 113 8 198 9 148 27 228 47
216 5 -3 14 1 21 9 14 17 19 17 73 8z m365 -140 c20 -20 52 -99 52 -130 0 -12
5 -25 10 -28 7 -4 8 -21 4 -43 -3 -21 -7 -44 -9 -52 -13 -77 -32 -114 -72
-142 -24 -16 -62 -55 -85 -86 -23 -31 -48 -61 -55 -65 -14 -9 -53 -79 -53 -97
0 -6 -7 -18 -15 -27 -8 -8 -12 -19 -9 -24 3 -6 -3 -13 -14 -16 -11 -3 -23 -11
-26 -19 -3 -7 -11 -11 -19 -8 -8 3 -20 -2 -27 -11 -7 -8 -18 -15 -25 -15 -31
0 -134 -63 -156 -95 -13 -19 -31 -38 -39 -41 -8 -3 -50 -47 -93 -99 -80 -95
-80 -95 -172 -112 -73 -13 -110 -30 -285 -125 -36 -19 -78 -38 -94 -42 -17 -4
-38 -17 -48 -28 -21 -25 -20 -18 -7 -55 12 -36 54 -50 80 -27 8 8 19 14 23 14
4 0 22 11 39 24 46 34 235 123 282 132 60 11 85 12 85 2 0 -28 96 35 105 70 3
12 22 40 43 62 20 21 64 69 97 105 56 62 109 102 128 97 5 -1 19 6 33 17 14
11 39 23 56 26 62 14 92 39 125 106 18 35 33 72 33 82 0 9 5 17 10 17 6 0 10
5 10 11 0 6 21 34 46 63 32 34 55 51 72 52 15 1 34 12 47 28 11 14 26 26 33
26 7 0 12 4 12 9 0 5 12 11 28 14 53 10 138 -84 105 -117 -4 -3 -8 -13 -9 -22
-3 -22 -77 -164 -85 -164 -4 0 -10 -13 -14 -28 -3 -15 -24 -48 -46 -72 -22
-25 -47 -60 -55 -79 -15 -36 -233 -261 -253 -261 -6 0 -11 -4 -11 -8 0 -5 -21
-23 -47 -39 -54 -35 -106 -78 -171 -141 -55 -53 -230 -159 -254 -154 -5 1 -8
-2 -8 -7 0 -9 -124 -71 -143 -71 -5 0 -24 -10 -41 -23 -17 -13 -44 -30 -61
-38 -74 -37 -153 -84 -190 -114 -54 -43 -169 -120 -174 -116 -2 1 -7 -2 -10
-7 -18 -29 -182 -87 -316 -113 -27 -5 -88 -16 -135 -25 -90 -17 -93 -18 -155
-34 -22 -6 -74 -15 -115 -20 -41 -5 -109 -14 -151 -19 -129 -16 -806 -2 -869
18 -75 25 -115 35 -133 33 -12 0 -26 3 -32 7 -5 5 -44 14 -86 21 -100 16 -106
20 -90 59 10 23 10 38 2 62 -14 39 -14 234 -1 349 8 71 18 253 22 412 l1 37
152 -6 c113 -4 161 -2 191 8 48 16 39 14 99 23 98 13 335 86 415 126 30 15 88
44 128 64 41 20 88 46 105 58 36 25 111 101 134 136 8 12 21 22 27 22 6 0 20
17 31 37 39 73 123 145 230 197 55 27 120 63 145 80 25 17 52 36 61 41 9 6 43
28 75 49 33 22 84 52 114 68 30 16 75 40 100 54 70 40 140 62 220 70 70 6 73
5 96 -21 36 -42 32 -84 -15 -140 -21 -26 -52 -55 -67 -64 -16 -10 -35 -25 -43
-34 -7 -10 -19 -17 -27 -17 -7 0 -19 -6 -26 -13 -7 -7 -44 -32 -83 -57 -38
-25 -71 -48 -73 -52 -2 -5 -10 -8 -18 -8 -8 0 -14 -4 -14 -9 0 -5 -13 -14 -29
-19 -39 -14 -69 -49 -81 -93 -10 -36 -68 -164 -113 -249 -13 -25 -32 -61 -41
-80 -38 -79 -74 -134 -92 -141 -10 -4 -15 -8 -9 -8 5 -1 -20 -29 -56 -63 -63
-60 -90 -98 -69 -98 5 0 12 -11 15 -23 10 -37 67 -31 106 11 16 18 35 32 42
32 7 1 26 19 42 40 23 30 37 39 60 40 17 0 45 4 64 10 18 5 59 12 90 16 31 3
61 9 66 12 6 4 15 7 20 9 6 1 54 18 108 37 100 37 198 48 213 25 8 -14 88 -5
136 16 18 7 51 31 73 52 22 21 53 45 69 53 16 8 51 36 77 63 26 26 53 47 61
47 16 0 33 45 43 114 4 27 12 61 18 75 5 14 11 28 11 31 1 3 9 14 18 25 9 11
29 35 43 53 15 17 32 32 38 32 10 0 29 15 69 58 12 12 29 22 39 22 9 0 34 17
55 38 30 29 46 58 68 124 29 87 60 132 102 148 15 6 22 15 18 25 -3 8 -1 15 5
15 5 0 30 13 53 30 50 34 63 36 86 13z m-508 -347 c0 -3 -4 -8 -10 -11 -5 -3
-10 -1 -10 4 0 6 5 11 10 11 6 0 10 -2 10 -4z"/>
</g>
</svg>
