<?xml version="1.0" standalone="no"?>
<!DOCTYPE svg PUBLIC "-//W3C//DTD SVG 20010904//EN"
 "http://www.w3.org/TR/2001/REC-SVG-20010904/DTD/svg10.dtd">
<svg version="1.0" xmlns="http://www.w3.org/2000/svg"
 width="533.000000pt" height="521.000000pt" viewBox="0 0 533.000000 521.000000"
 preserveAspectRatio="xMidYMid meet">
<metadata>
Created by potrace 1.16, written by Peter Selinger 2001-2019
</metadata>
<g transform="translate(0.000000,521.000000) scale(0.100000,-0.100000)"
fill="#000000" stroke="none">
<path d="M992 5058 c-5 -7 -13 -28 -17 -46 -6 -27 -3 -37 17 -56 12 -12 31
-25 40 -29 18 -6 210 -149 243 -180 11 -11 54 -46 95 -79 132 -106 377 -337
479 -453 25 -27 72 -80 105 -117 34 -36 72 -81 86 -99 73 -97 173 -162 265
-173 41 -5 90 -24 147 -57 36 -22 70 -39 75 -39 5 0 36 -19 68 -43 88 -62 205
-112 290 -123 57 -7 167 -33 179 -43 6 -4 29 -13 52 -19 22 -7 55 -26 72 -44
17 -18 37 -38 44 -44 7 -6 21 -21 31 -35 9 -13 44 -60 77 -104 33 -44 76 -113
96 -152 21 -40 40 -73 43 -73 10 0 62 -88 60 -102 -1 -7 1 -26 5 -43 3 -16 12
-52 18 -80 14 -64 65 -156 163 -295 28 -39 60 -87 71 -106 12 -20 26 -39 32
-43 21 -13 61 -103 78 -177 l18 -76 -24 -19 c-14 -10 -35 -19 -48 -19 -44 0
-116 -47 -164 -106 -44 -55 -46 -60 -33 -81 8 -12 17 -41 21 -65 3 -24 13 -53
20 -65 23 -37 16 -45 -18 -21 -18 13 -35 26 -36 31 -2 4 -8 7 -13 7 -22 0
-136 132 -155 180 -14 34 -70 139 -101 187 -18 29 -33 59 -33 68 0 9 -6 18
-14 21 -8 3 -16 17 -20 32 -3 15 -19 42 -36 61 -16 18 -30 38 -30 42 0 5 -6 9
-14 9 -30 0 -105 53 -144 102 -23 29 -48 60 -56 68 -7 8 -17 25 -20 38 -4 12
-11 22 -16 22 -5 0 -11 9 -15 19 -3 11 -16 23 -28 27 -41 12 -252 95 -272 106
-60 35 -132 68 -147 68 -10 0 -18 4 -18 9 0 5 -9 12 -20 16 -10 3 -66 38 -122
76 -57 38 -130 87 -163 109 -33 22 -71 47 -85 57 -14 10 -32 18 -40 18 -17 0
-50 -43 -50 -65 1 -20 35 -60 52 -60 7 0 21 -6 30 -14 29 -22 9 -66 -71 -156
-17 -19 -33 -43 -37 -52 -3 -10 -10 -18 -15 -18 -6 0 6 -17 26 -37 19 -21 38
-48 41 -60 4 -13 10 -23 14 -23 5 0 14 -17 21 -37 6 -20 20 -46 30 -57 11 -11
19 -26 19 -33 0 -7 4 -13 9 -13 16 0 44 -96 72 -254 11 -63 52 -147 80 -166
63 -42 226 -240 214 -260 -3 -5 -2 -10 3 -10 13 0 24 -32 15 -41 -5 -5 -40 7
-78 25 -97 47 -163 68 -205 65 -50 -3 -128 -47 -132 -73 -3 -20 -5 -19 -33 11
-31 32 -79 89 -115 133 -11 14 -24 30 -30 37 -9 11 -51 70 -88 123 -9 14 -34
43 -56 65 -21 22 -50 58 -64 79 -26 42 -92 116 -207 232 -38 39 -88 92 -110
118 -22 27 -45 54 -52 61 -19 20 -93 137 -93 148 0 5 -13 37 -29 71 -16 33
-35 75 -42 91 -9 21 -13 106 -14 290 -1 219 -4 266 -17 295 -9 19 -19 47 -22
62 -14 66 -70 69 -92 6 -10 -29 -9 -44 6 -89 24 -71 33 -209 14 -209 -19 0
-84 32 -84 42 0 4 -5 8 -11 8 -5 0 -37 18 -69 40 -32 22 -62 40 -65 40 -6 0
-320 196 -340 213 -5 4 -35 27 -65 50 -68 51 -107 90 -150 151 -18 25 -41 48
-51 51 -45 15 -87 -49 -56 -83 101 -112 141 -150 197 -190 36 -26 79 -57 95
-69 36 -27 148 -102 225 -152 30 -19 57 -38 58 -43 2 -4 11 -8 20 -8 8 0 24
-7 34 -17 10 -9 26 -21 36 -27 32 -19 115 -80 135 -100 11 -10 36 -20 56 -23
l36 -5 1 -111 c0 -116 15 -179 56 -239 10 -14 18 -33 18 -42 0 -9 5 -16 10
-16 6 0 10 -5 10 -11 0 -30 65 -143 123 -211 91 -110 136 -158 145 -158 4 0
28 -23 52 -52 25 -28 67 -75 93 -102 27 -28 55 -64 64 -81 9 -16 36 -50 62
-75 25 -25 58 -64 72 -85 59 -92 81 -122 112 -157 17 -20 44 -51 60 -70 15
-18 35 -42 45 -53 22 -26 103 -85 116 -85 6 0 21 -10 33 -23 76 -79 310 -123
388 -72 50 32 95 88 101 125 3 19 8 44 12 55 3 11 5 23 4 26 -1 4 27 10 62 13
34 4 87 19 117 32 51 24 108 37 155 35 33 -1 79 49 99 107 10 32 27 59 41 69
13 8 24 21 24 29 0 7 6 17 13 21 8 4 24 30 37 56 15 29 30 47 38 45 8 -2 29
-30 46 -63 17 -33 33 -62 36 -65 3 -3 11 -16 18 -30 31 -64 77 -139 108 -177
19 -22 38 -53 44 -67 5 -14 14 -26 20 -26 12 0 93 -60 98 -72 2 -5 9 -8 15 -8
7 0 39 -25 72 -55 32 -30 67 -58 77 -61 10 -3 18 -10 18 -16 0 -5 7 -7 16 -4
9 4 22 2 28 -3 35 -29 118 -43 136 -21 3 3 18 13 33 23 15 10 31 26 34 35 3 9
16 31 29 49 29 39 36 78 39 218 1 91 -2 123 -22 184 -12 40 -23 80 -23 88 0 8
-9 33 -20 56 -24 48 -50 143 -50 180 0 15 -26 61 -64 113 -34 49 -73 109 -86
134 -12 25 -29 49 -36 53 -8 4 -14 13 -14 19 0 6 -9 20 -21 32 -26 27 -87 119
-99 151 -5 14 -16 66 -24 116 -10 61 -21 99 -34 113 -11 11 -29 40 -41 64 -12
23 -28 50 -36 60 -45 55 -95 128 -95 139 0 7 -4 13 -10 13 -5 0 -10 5 -10 10
0 9 -56 83 -105 140 -31 37 -116 104 -146 117 -74 31 -145 53 -193 59 -28 4
-63 13 -77 20 -15 7 -29 10 -33 7 -3 -4 -16 -1 -29 5 -12 6 -51 23 -86 37 -34
14 -73 35 -85 46 -11 11 -50 34 -86 51 -36 17 -67 34 -70 37 -19 24 -179 89
-202 83 -4 -1 -27 7 -52 18 -46 19 -125 92 -175 161 -53 72 -301 324 -466 475
-66 60 -122 112 -125 115 -3 3 -37 28 -75 56 -39 28 -91 69 -115 92 -25 22
-80 67 -122 98 -43 31 -78 61 -78 65 0 5 -11 13 -25 18 -14 5 -25 14 -25 20 0
14 -46 13 -58 -2z m1291 -2194 c18 -9 45 -26 60 -37 l29 -20 -39 -36 c-46 -44
-76 -81 -65 -81 4 0 3 -4 -3 -8 -5 -4 -19 -27 -31 -52 l-21 -45 -27 57 c-15
31 -29 67 -31 78 -2 12 -9 28 -15 34 -7 10 2 26 35 61 25 26 45 51 45 56 0 14
28 11 63 -7z m385 -209 c13 -12 11 -115 -3 -186 -10 -46 -18 -90 -18 -96 0 -7
-9 -13 -20 -13 -11 0 -36 -8 -56 -18 -20 -11 -62 -31 -93 -46 -62 -29 -70 -45
-42 -85 14 -20 22 -22 56 -17 21 4 58 15 81 25 62 28 76 31 82 21 4 -6 15 -10
25 -10 19 0 65 -47 75 -78 3 -11 17 -24 31 -31 22 -10 32 -8 58 7 53 31 47 58
-29 133 -66 64 -67 64 -60 109 3 25 10 87 14 137 4 51 11 96 15 100 4 4 28 -4
53 -17 32 -17 69 -54 121 -120 87 -109 109 -130 169 -161 23 -12 50 -30 59
-40 16 -18 16 -19 -6 -19 -24 0 -70 -45 -70 -69 0 -18 -54 -102 -80 -126 -11
-10 -25 -35 -30 -56 -11 -38 -33 -58 -74 -64 -47 -8 -94 -23 -117 -38 -65 -43
-182 -29 -221 26 -27 40 -92 118 -136 164 -18 19 -45 51 -60 71 -15 21 -32 43
-39 49 -6 7 -14 27 -18 45 -3 18 -17 76 -30 129 l-25 95 20 39 c11 22 20 46
20 55 0 27 103 140 128 140 10 0 26 6 37 13 16 12 28 9 99 -25 45 -22 82 -41
84 -43z m1288 -640 c10 -8 16 -15 12 -15 -4 0 -1 -19 8 -42 20 -57 17 -229 -4
-283 -13 -32 -46 -75 -57 -75 -12 0 -65 35 -90 59 -33 31 -41 48 -69 139 -28
90 -25 118 18 158 41 38 108 73 142 74 11 0 29 -7 40 -15z m-1536 -287 c41
-22 78 -42 82 -46 16 -15 -11 -33 -62 -41 -61 -10 -166 13 -195 42 -9 10 -19
17 -23 17 -4 0 -16 7 -26 15 -15 12 -17 17 -7 29 7 8 19 12 27 9 8 -3 14 0 14
5 0 13 44 20 85 14 17 -3 64 -23 105 -44z"/>
<path d="M4625 1801 c-48 -22 -121 -88 -129 -117 -8 -27 29 -67 54 -59 9 3 33
20 51 37 27 24 44 31 80 32 56 2 84 25 75 61 -13 50 -75 72 -131 46z"/>
<path d="M4920 1690 c-34 -48 -21 -81 38 -100 38 -12 51 -23 65 -53 24 -48 59
-58 93 -26 13 12 24 31 24 41 0 30 -99 134 -137 144 -13 4 -23 10 -23 15 0 21
-40 7 -60 -21z"/>
<path d="M4335 1500 c-3 -5 -3 -14 0 -20 3 -5 0 -10 -8 -10 -9 0 -14 -11 -15
-30 0 -16 -8 -42 -16 -57 -8 -16 -19 -44 -25 -64 -7 -31 -5 -41 13 -64 22 -27
23 -27 54 -11 23 12 32 24 33 44 2 39 3 43 19 85 8 20 17 37 22 37 4 0 10 16
14 37 5 29 3 39 -11 50 -22 15 -71 17 -80 3z"/>
<path d="M5129 1413 c-24 -6 -38 -44 -27 -73 5 -14 13 -63 18 -109 7 -61 14
-88 27 -100 27 -23 43 -24 65 -4 18 16 19 26 14 88 -10 105 -16 137 -29 165
-18 38 -29 44 -68 33z"/>
<path d="M4120 1173 c-8 -3 -24 -14 -35 -24 -26 -23 -86 -48 -102 -42 -7 3
-16 -4 -20 -14 -3 -10 -11 -21 -16 -25 -12 -7 8 -61 29 -79 11 -9 25 -4 63 20
27 18 60 33 73 34 28 1 68 41 68 67 0 26 -42 69 -60 63z"/>
<path d="M3773 1042 c-15 -19 -40 -48 -56 -65 -37 -41 -44 -71 -20 -95 30 -32
61 -34 81 -5 9 13 36 47 60 74 48 56 48 60 25 100 -22 38 -54 35 -90 -9z"/>
<path d="M5128 943 c-10 -2 -21 -17 -25 -31 -3 -15 -28 -68 -55 -119 -37 -69
-47 -98 -42 -118 11 -46 88 -42 111 6 6 13 28 59 48 101 43 89 47 124 15 150
-12 10 -25 17 -29 17 -3 -1 -14 -3 -23 -6z"/>
<path d="M3573 758 c-28 -14 -35 -76 -11 -105 6 -7 23 -40 39 -73 17 -33 41
-67 54 -76 29 -19 63 -10 74 19 8 21 3 34 -78 207 -17 38 -41 46 -78 28z"/>
<path d="M4893 522 c-22 -14 -96 -77 -123 -104 -15 -16 -32 -28 -38 -28 -18 0
-43 -57 -36 -84 5 -23 29 -36 67 -36 20 0 34 12 60 53 10 15 22 27 27 27 16 0
110 97 110 114 0 47 -35 78 -67 58z"/>
<path d="M3833 432 c-15 -2 -26 -14 -33 -36 -14 -45 2 -79 44 -94 18 -7 41
-21 51 -32 10 -11 28 -20 40 -20 13 0 28 -6 34 -14 18 -22 80 -27 107 -9 49
32 21 99 -46 108 -18 2 -40 11 -49 19 -10 9 -21 16 -26 16 -4 0 -28 15 -54 33
-27 19 -55 31 -68 29z"/>
<path d="M4395 212 c-2 -3 -43 -4 -90 -4 -67 1 -85 -2 -85 -14 0 -8 -4 -14 -9
-14 -5 0 -11 -12 -14 -27 -4 -21 0 -33 19 -49 21 -18 30 -20 63 -13 21 5 62
11 92 14 30 3 69 10 87 16 66 22 46 102 -25 97 -19 -1 -36 -4 -38 -6z"/>
</g>
</svg>
