<?xml version="1.0" standalone="no"?>
<!DOCTYPE svg PUBLIC "-//W3C//DTD SVG 20010904//EN"
 "http://www.w3.org/TR/2001/REC-SVG-20010904/DTD/svg10.dtd">
<svg version="1.0" xmlns="http://www.w3.org/2000/svg"
 width="397.000000pt" height="311.000000pt" viewBox="0 0 397.000000 311.000000"
 preserveAspectRatio="xMidYMid meet">
<metadata>
Created by potrace 1.16, written by Peter Selinger 2001-2019
</metadata>
<g transform="translate(0.000000,311.000000) scale(0.100000,-0.100000)"
fill="#000000" stroke="none">
<path d="M2360 2800 c-11 -11 -26 -20 -33 -20 -7 0 -23 -9 -35 -20 -12 -11
-26 -20 -32 -20 -5 0 -10 -4 -10 -8 0 -5 -16 -16 -35 -25 -19 -9 -35 -21 -35
-27 0 -5 -5 -10 -11 -10 -6 0 -16 -6 -23 -12 -8 -7 -23 -20 -36 -28 -12 -8
-33 -25 -46 -37 -14 -13 -28 -23 -33 -23 -4 0 -18 -10 -31 -22 -26 -24 -83
-59 -140 -84 -19 -9 -45 -24 -58 -35 -13 -10 -30 -15 -38 -12 -8 3 -14 1 -14
-4 0 -5 -42 -29 -92 -53 -51 -24 -109 -54 -128 -67 -19 -12 -45 -23 -57 -23
-13 0 -23 -4 -23 -10 0 -5 -26 -27 -59 -49 -32 -22 -71 -55 -86 -73 -79 -96
-233 -251 -277 -279 -41 -26 -51 -30 -59 -18 -5 8 -9 19 -9 25 0 15 -51 28
-59 16 -12 -18 -151 -37 -151 -21 0 5 -33 8 -72 7 -98 -2 -173 8 -237 32 -35
13 -59 16 -70 10 -22 -12 -51 -48 -51 -63 0 -7 -4 -17 -9 -22 -12 -14 -78
-221 -85 -270 -30 -208 -34 -345 -20 -610 8 -158 32 -217 83 -207 14 3 31 10
37 17 20 19 145 16 245 -6 52 -11 114 -22 139 -25 25 -2 52 -7 60 -10 8 -3 67
-10 130 -14 107 -8 208 -28 255 -49 11 -5 61 -12 110 -14 50 -3 110 -13 135
-22 25 -9 65 -16 90 -15 131 3 180 3 235 0 44 -2 79 4 135 23 41 14 102 29
135 33 33 4 62 8 65 9 15 5 104 15 159 19 35 2 67 9 71 16 10 16 52 37 92 45
35 8 188 86 227 116 13 11 29 19 36 19 7 0 18 7 25 15 7 8 24 15 38 15 37 0
354 152 397 190 19 17 194 82 212 79 21 -4 44 2 39 9 -3 5 7 15 22 23 15 7 36
21 47 31 11 9 37 24 57 33 21 8 52 31 70 51 105 115 118 130 118 142 0 5 9 17
20 27 11 10 20 24 20 32 0 7 24 37 53 66 93 92 106 127 64 169 -28 28 -70 43
-149 53 -27 4 -48 9 -48 13 0 6 18 36 60 98 36 54 80 135 80 149 0 9 6 12 15
9 12 -5 13 -2 7 17 -6 15 -5 34 3 54 12 27 19 78 16 112 -1 7 -14 19 -30 28
-16 8 -36 22 -45 31 -13 13 -22 14 -44 6 -27 -11 -162 -27 -162 -20 0 2 9 24
21 47 29 60 49 129 49 169 0 33 -27 92 -42 92 -4 0 -8 6 -8 13 0 8 -6 14 -12
14 -7 0 -39 8 -72 17 -70 21 -109 16 -191 -24 -47 -23 -62 -26 -74 -17 -7 7
-30 17 -50 23 -37 11 -39 10 -131 -30 -20 -8 -47 -17 -62 -20 -14 -2 -39 -11
-55 -20 -36 -18 -139 -114 -136 -126 5 -18 -79 -100 -102 -100 -13 0 -27 -5
-30 -10 -4 -6 -33 -24 -66 -41 -33 -16 -81 -46 -106 -65 -26 -20 -57 -40 -69
-44 -12 -5 -49 -34 -84 -66 -52 -48 -68 -58 -101 -60 -22 -1 -56 -5 -75 -8
-21 -4 -34 -3 -34 4 0 5 5 10 11 10 5 0 24 13 41 29 17 15 59 42 93 59 34 17
68 38 75 47 7 8 19 15 26 15 28 0 231 195 260 250 27 52 27 196 -1 229 -31 37
-94 95 -118 108 -36 20 -104 16 -127 -7z m145 -150 c36 -77 21 -129 -65 -219
-63 -66 -190 -161 -215 -161 -7 0 -19 -8 -29 -19 -9 -10 -36 -27 -59 -37 -23
-10 -52 -29 -65 -41 -13 -13 -27 -23 -32 -23 -5 0 -12 -10 -16 -22 -4 -13 -9
-25 -13 -28 -12 -10 -31 -50 -31 -67 0 -10 -9 -33 -20 -51 -11 -18 -20 -38
-20 -45 0 -12 -7 -23 -56 -85 -11 -15 -29 -42 -40 -60 -35 -62 -211 -244 -257
-266 -18 -8 -40 -24 -50 -36 -19 -23 -20 -80 -1 -80 7 0 15 -7 18 -15 5 -14 9
-14 33 -1 16 8 55 40 88 70 33 31 63 56 66 56 4 0 32 30 63 68 62 74 60 71
101 127 17 22 36 44 42 48 7 4 13 14 13 20 0 24 97 115 129 122 17 4 29 10 26
15 -3 4 1 12 8 18 14 12 78 27 92 22 34 -11 72 -3 98 22 15 14 27 30 27 35 0
16 90 91 144 118 31 16 56 32 56 36 0 13 103 56 140 58 41 2 80 25 80 47 0 9
17 33 38 54 20 21 44 49 52 61 36 54 78 87 138 108 34 11 69 21 76 21 23 0 28
-17 9 -35 -9 -9 -18 -31 -20 -47 -2 -17 -11 -37 -21 -44 -9 -7 -13 -14 -9 -14
11 0 -12 -40 -23 -40 -5 0 -33 -11 -62 -25 -37 -17 -68 -42 -103 -85 -27 -34
-67 -82 -87 -106 -21 -25 -38 -50 -38 -55 0 -6 -5 -7 -10 -4 -6 3 -16 0 -24
-8 -8 -7 -65 -31 -128 -52 -122 -41 -221 -98 -281 -161 -56 -59 -49 -104 16
-104 21 0 67 39 67 56 0 14 137 89 223 123 49 20 95 31 126 31 56 0 84 8 75
21 -3 5 -1 9 4 9 5 0 12 13 15 29 11 53 79 140 145 185 23 16 42 32 42 36 0 8
65 25 88 23 25 -2 52 31 52 63 0 17 9 51 20 76 28 65 60 94 145 137 17 8 32
18 35 22 15 22 150 20 150 -3 0 -5 6 -16 14 -23 7 -8 12 -25 11 -38 -3 -22
-44 -121 -66 -157 -5 -8 -12 -23 -15 -32 -4 -10 -10 -18 -15 -18 -5 0 -9 -7
-9 -16 0 -9 -12 -29 -27 -43 -24 -23 -108 -120 -123 -141 -3 -4 -40 -21 -83
-38 -88 -36 -105 -47 -199 -139 -38 -36 -68 -62 -68 -58 0 4 -6 2 -13 -4 -8
-6 -16 -8 -19 -6 -15 15 -322 -105 -361 -140 -12 -12 -42 -34 -67 -51 -60 -40
-79 -74 -60 -108 18 -34 41 -33 80 4 136 127 341 212 452 188 30 -7 54 12 98
76 41 61 74 91 135 121 22 11 43 24 47 29 3 5 33 6 66 3 60 -6 61 -6 74 23 7
17 16 30 21 30 4 0 5 11 2 23 -5 19 3 33 39 69 59 58 125 93 204 109 78 15
118 2 106 -34 -4 -12 -8 -33 -9 -47 -1 -14 -3 -33 -3 -43 -1 -10 -14 -30 -28
-44 -14 -14 -27 -32 -28 -38 -1 -7 -13 -26 -26 -42 -14 -17 -34 -43 -45 -59
-37 -53 -97 -113 -118 -120 -12 -4 -29 -14 -37 -23 -8 -10 -31 -28 -50 -41
-19 -13 -37 -27 -40 -30 -3 -3 -21 -14 -41 -24 -29 -16 -42 -17 -67 -8 -35 12
-44 11 -92 -10 -19 -8 -52 -20 -72 -27 -21 -7 -38 -17 -38 -22 0 -5 -6 -9 -12
-9 -7 -1 -31 -19 -53 -40 -33 -33 -47 -40 -80 -41 -66 -1 -138 -9 -165 -19
-14 -4 -51 -16 -82 -26 -32 -9 -58 -21 -58 -25 0 -5 -11 -9 -23 -9 -29 0 -106
-40 -120 -61 -16 -25 13 -73 46 -77 15 -2 27 1 27 6 0 20 152 92 214 102 33 6
75 13 92 16 20 4 45 0 65 -10 19 -9 44 -14 55 -12 29 6 65 29 61 40 -5 16 80
94 128 115 56 25 73 26 99 6 32 -24 69 -17 124 23 103 74 135 97 146 103 14 8
78 29 106 34 12 2 31 7 42 10 11 4 26 1 36 -8 17 -16 21 -17 47 -17 24 0 17
-27 -18 -67 -42 -49 -97 -129 -97 -141 0 -5 -19 -26 -42 -46 -36 -30 -41 -38
-28 -47 13 -10 13 -10 -1 -6 -8 3 -26 -4 -40 -14 -13 -10 -29 -19 -36 -19 -7
0 -16 -6 -20 -13 -10 -17 -119 -75 -153 -81 -60 -12 -117 -31 -145 -47 -16
-10 -68 -38 -115 -64 -47 -25 -92 -50 -100 -55 -88 -54 -152 -80 -233 -95 -20
-4 -49 -17 -64 -28 -29 -23 -63 -43 -135 -80 -26 -13 -54 -29 -62 -36 -17 -15
-171 -72 -206 -77 -14 -2 -50 -6 -80 -9 -78 -7 -173 -26 -294 -59 -39 -11
-104 -17 -200 -17 -149 -1 -204 3 -250 20 -15 6 -52 11 -82 11 -34 0 -85 11
-137 29 -83 29 -137 37 -307 46 -52 3 -121 12 -153 20 -31 8 -83 22 -115 30
-31 8 -78 15 -104 15 -53 0 -149 18 -161 30 -15 14 -25 419 -13 515 26 209 80
385 115 377 6 -1 28 -5 49 -8 20 -3 44 -7 53 -10 17 -5 78 -15 114 -18 11 -2
28 -6 38 -10 9 -5 37 -3 62 3 57 14 55 15 55 -13 0 -13 8 -34 19 -47 l19 -23
58 18 c70 22 110 42 184 90 30 20 60 36 67 36 6 0 14 9 18 20 3 11 24 35 46
53 21 19 39 39 39 45 0 6 9 14 20 17 11 3 20 10 20 15 0 5 16 26 36 47 20 21
46 49 58 63 26 30 91 80 104 80 6 0 12 6 15 13 3 8 27 22 54 32 26 10 50 21
53 25 5 6 96 52 160 79 14 6 43 22 65 34 22 13 76 43 120 66 44 24 105 63 137
87 31 24 61 44 66 44 6 0 12 3 14 8 8 17 93 82 109 82 10 0 19 4 21 8 6 15 82
67 112 77 27 10 35 8 63 -15 17 -14 34 -32 38 -40z"/>
</g>
</svg>
