<?xml version="1.0" standalone="no"?>
<!DOCTYPE svg PUBLIC "-//W3C//DTD SVG 20010904//EN"
 "http://www.w3.org/TR/2001/REC-SVG-20010904/DTD/svg10.dtd">
<svg version="1.0" xmlns="http://www.w3.org/2000/svg"
 width="373.000000pt" height="461.000000pt" viewBox="0 0 373.000000 461.000000"
 preserveAspectRatio="xMidYMid meet">
<metadata>
Created by potrace 1.16, written by Peter Selinger 2001-2019
</metadata>
<g transform="translate(0.000000,461.000000) scale(0.100000,-0.100000)"
fill="#000000" stroke="none">
<path d="M1906 4275 c-3 -11 -14 -70 -25 -131 -12 -60 -21 -119 -21 -131 0
-11 -10 -49 -21 -84 -12 -35 -25 -82 -29 -104 -4 -22 -21 -74 -38 -115 -17
-41 -40 -102 -52 -135 -20 -55 -89 -210 -111 -245 -5 -8 -45 -89 -90 -180 -45
-91 -85 -167 -89 -170 -3 -3 -17 -23 -30 -45 -13 -22 -32 -47 -42 -56 -10 -9
-18 -20 -18 -25 0 -11 -111 -176 -125 -186 -5 -4 -6 -8 -2 -8 5 0 -3 -14 -17
-30 -14 -17 -33 -48 -42 -68 -10 -20 -24 -45 -32 -55 -9 -9 -20 -26 -26 -36
-48 -84 -81 -139 -93 -153 -27 -31 -94 -173 -109 -228 -7 -30 -20 -68 -28 -85
-19 -40 -36 -157 -36 -243 0 -141 26 -205 115 -283 73 -64 117 -85 200 -95 22
-2 47 -7 55 -10 8 -3 50 -8 93 -11 60 -4 87 -2 115 11 45 20 222 35 254 22 13
-5 30 -10 38 -11 8 -1 42 -9 75 -18 71 -19 273 -23 357 -8 32 5 74 21 95 35
21 14 42 26 48 26 24 0 155 146 155 172 0 9 11 38 25 65 22 41 25 55 19 108
-3 33 -7 74 -8 91 -3 30 -49 107 -79 132 -14 12 -32 47 -81 152 -13 29 -26 38
-69 52 l-52 16 -27 -29 c-35 -37 -37 -83 -7 -142 12 -23 25 -44 29 -47 7 -5
76 -105 98 -143 18 -31 8 -124 -20 -184 -28 -59 -74 -104 -136 -135 -43 -20
-60 -22 -184 -21 -76 1 -146 6 -155 11 -67 36 -260 45 -364 17 -89 -23 -173
-29 -244 -15 -91 18 -110 28 -155 81 -40 47 -42 54 -47 127 -6 88 -1 110 61
287 57 161 74 202 102 240 24 34 54 93 54 108 0 5 10 17 23 27 12 10 33 40 46
67 14 26 31 55 38 64 8 9 15 26 16 37 0 11 5 20 10 19 8 -2 129 165 184 253 9
14 32 50 52 80 20 30 50 84 66 120 15 36 47 101 70 146 23 44 45 94 49 110 4
16 18 45 30 64 13 19 34 67 48 105 46 126 75 201 91 231 8 16 18 48 22 69 4
22 16 74 26 115 11 41 28 127 39 190 33 200 34 187 -20 223 -34 22 -70 18 -74
-8z"/>
<path d="M1673 1289 c-25 -9 -37 -40 -28 -70 11 -33 6 -111 -9 -153 -18 -52
-8 -90 26 -94 33 -4 52 21 50 66 -1 20 5 75 13 122 10 54 11 86 5 88 -6 2 -10
12 -10 22 0 22 -18 30 -47 19z"/>
<path d="M1298 1263 c-10 -11 -14 -30 -11 -48 2 -16 -3 -73 -13 -125 -27 -156
-27 -155 -10 -169 8 -7 25 -11 37 -9 23 3 35 29 43 93 2 17 9 50 15 74 7 23
10 48 8 55 -2 6 0 22 6 36 12 32 9 93 -6 102 -21 13 -53 9 -69 -9z"/>
<path d="M1961 1251 c-16 -10 -11 -64 13 -156 9 -33 18 -71 21 -85 9 -47 20
-55 54 -40 25 10 31 18 31 41 0 16 -4 29 -10 29 -5 0 -11 15 -14 33 -16 114
-27 159 -40 172 -16 17 -34 19 -55 6z"/>
<path d="M1223 793 c-7 -2 -13 -14 -13 -26 0 -12 -10 -47 -21 -77 -12 -30 -23
-67 -25 -82 -2 -16 -6 -42 -8 -59 -9 -61 22 -82 44 -29 7 16 12 32 11 35 -1 3
15 36 34 74 19 37 35 76 35 85 0 9 5 16 11 16 8 0 8 5 -1 15 -7 8 -9 15 -5 15
5 0 0 9 -10 20 -18 20 -29 23 -52 13z"/>
<path d="M1620 779 c-6 -11 -9 -32 -6 -47 13 -58 15 -122 5 -154 -7 -26 -6
-40 8 -65 20 -38 23 -39 51 -14 20 17 22 26 19 145 -2 113 -4 129 -21 142 -27
19 -43 18 -56 -7z"/>
<path d="M2082 782 c-34 -5 -36 -24 -13 -98 12 -37 21 -85 21 -106 0 -21 7
-50 16 -64 14 -21 22 -24 48 -18 17 3 32 7 33 8 3 2 -21 133 -30 171 -3 11 -8
34 -12 50 -10 39 -34 61 -63 57z"/>
<path d="M1617 337 c-2 -7 -3 -55 0 -106 2 -51 -1 -107 -6 -123 -19 -54 25
-106 66 -80 7 5 12 42 14 102 3 151 0 191 -12 206 -14 18 -55 18 -62 1z"/>
<path d="M2162 333 c-9 -19 -9 -40 2 -94 3 -19 9 -62 12 -95 3 -32 10 -69 16
-81 12 -25 47 -30 66 -11 14 14 16 80 3 94 -5 5 -11 49 -13 97 -4 93 -11 107
-55 107 -12 0 -26 -8 -31 -17z"/>
<path d="M1076 292 c-2 -15 -10 -58 -17 -97 -6 -38 -16 -75 -21 -82 -6 -8 -6
-25 2 -48 23 -69 77 -31 86 61 3 30 9 66 14 80 12 30 13 75 2 90 -4 6 -19 14
-34 17 -23 6 -27 4 -32 -21z"/>
</g>
</svg>
