<?xml version="1.0" standalone="no"?>
<!DOCTYPE svg PUBLIC "-//W3C//DTD SVG 20010904//EN"
 "http://www.w3.org/TR/2001/REC-SVG-20010904/DTD/svg10.dtd">
<svg version="1.0" xmlns="http://www.w3.org/2000/svg"
 width="483.000000pt" height="511.000000pt" viewBox="0 0 483.000000 511.000000"
 preserveAspectRatio="xMidYMid meet">
<metadata>
Created by potrace 1.16, written by Peter Selinger 2001-2019
</metadata>
<g transform="translate(0.000000,511.000000) scale(0.100000,-0.100000)"
fill="#000000" stroke="none">
<path d="M3865 5088 c-22 -12 -91 -65 -153 -117 -62 -53 -136 -115 -165 -139
-29 -24 -62 -52 -73 -62 -12 -11 -27 -20 -33 -20 -6 0 -11 -4 -11 -8 0 -5 -27
-28 -60 -52 -33 -24 -60 -47 -60 -50 0 -10 -116 -90 -129 -90 -6 0 -11 -4 -11
-10 0 -5 -4 -10 -9 -10 -6 0 -30 -13 -54 -30 -25 -16 -48 -30 -51 -30 -3 0
-35 -18 -71 -40 -36 -22 -69 -40 -74 -40 -5 0 -29 -15 -53 -33 -48 -37 -167
-117 -174 -117 -5 0 -198 -142 -254 -187 -39 -32 -89 -85 -178 -191 -12 -15
-30 -36 -40 -47 -36 -38 -54 -75 -86 -169 -34 -98 -36 -122 -20 -246 5 -36 9
-70 9 -76 0 -6 9 -24 20 -40 11 -16 18 -32 17 -36 -1 -5 2 -8 8 -8 5 0 10 -6
10 -12 1 -18 36 -58 52 -58 12 -1 -19 -32 -93 -92 -18 -15 -48 -33 -66 -39
-18 -6 -33 -17 -33 -25 0 -8 -7 -17 -15 -20 -17 -7 -20 -50 -4 -59 6 -4 8 -22
4 -45 -4 -26 -2 -41 7 -49 45 -38 116 -89 133 -95 19 -7 17 -10 -15 -38 -158
-140 -342 -319 -342 -332 0 -3 -6 -29 -13 -57 -13 -49 -13 -54 7 -83 12 -17
25 -33 28 -36 45 -42 170 -208 170 -227 0 -17 51 -63 71 -63 10 0 30 11 45 25
15 14 44 35 63 47 20 12 42 28 49 35 7 7 20 13 27 13 28 0 215 98 240 126 6 6
40 27 76 47 l67 37 5 -30 c5 -20 19 -37 46 -55 23 -14 49 -42 60 -62 21 -42
55 -68 74 -57 22 13 102 79 105 87 2 4 10 7 17 7 8 0 24 14 36 31 23 32 100
108 125 122 15 8 94 -30 94 -45 0 -4 9 -8 19 -8 11 0 26 -6 33 -13 14 -15 78
-39 113 -43 11 -1 38 -7 60 -12 63 -14 133 7 227 69 45 30 101 73 123 95 23
23 51 45 63 48 12 4 22 12 22 17 0 5 7 9 16 9 9 0 41 27 71 60 30 32 64 62 76
66 29 9 84 51 122 92 16 18 48 42 70 52 22 10 54 33 70 50 17 18 55 49 85 68
30 19 73 50 96 69 23 18 45 33 50 33 5 0 23 15 39 33 36 38 100 94 140 122 51
35 86 78 79 94 -3 9 -7 27 -8 41 -2 40 -43 38 -99 -5 -26 -20 -47 -40 -47 -45
0 -6 -4 -10 -8 -10 -4 0 -40 -30 -79 -67 -38 -38 -86 -79 -107 -93 -20 -14
-52 -39 -72 -57 -19 -18 -45 -35 -57 -39 -11 -3 -38 -23 -59 -42 -22 -20 -72
-59 -111 -86 -40 -27 -78 -58 -85 -68 -7 -10 -46 -42 -85 -71 -40 -30 -87 -67
-106 -85 -19 -17 -58 -48 -88 -69 -30 -21 -78 -57 -106 -81 -65 -55 -88 -67
-159 -82 -46 -11 -66 -10 -105 0 -42 12 -117 48 -178 85 -11 6 -33 15 -50 19
-29 7 -65 32 -65 46 0 9 -50 67 -125 145 -33 34 -94 100 -135 146 -115 129
-192 209 -201 209 -4 0 -24 17 -44 38 -20 20 -40 37 -45 37 -14 0 -98 92 -115
127 -19 38 -89 108 -108 108 -43 1 -95 87 -112 189 -22 126 2 224 77 311 22
25 42 50 46 55 35 50 122 145 169 183 32 25 64 52 71 59 7 7 17 13 20 13 4 0
19 11 33 24 14 13 36 29 49 36 13 7 29 17 34 22 29 23 83 59 99 64 9 4 17 10
17 14 0 5 8 11 18 14 10 4 27 14 38 24 11 9 42 28 69 42 28 14 52 28 53 33 2
4 11 7 21 7 9 0 22 5 28 11 12 12 46 32 78 48 12 5 27 16 34 25 7 9 17 16 22
16 14 0 129 72 142 89 7 9 26 25 42 35 17 10 42 30 57 45 33 33 44 41 93 71
54 33 54 33 162 138 53 50 105 98 117 105 61 34 91 54 114 75 15 13 38 22 58
22 39 0 60 28 48 63 -5 12 -7 25 -6 30 4 16 -104 5 -143 -15z m-1536 -2012 c9
-10 8 -15 -4 -20 -8 -3 -15 -16 -15 -28 0 -15 -17 -38 -46 -63 -25 -22 -61
-55 -79 -74 -34 -35 -34 -35 -61 16 -11 19 -7 26 28 57 22 20 48 40 57 45 9 5
34 26 56 45 44 40 48 42 64 22z m74 -137 c-10 -17 -35 -51 -57 -77 -21 -26
-47 -58 -57 -70 -17 -22 -21 -23 -54 -12 -19 6 -35 15 -35 20 0 20 61 76 130
121 41 27 79 49 83 49 5 0 0 -14 -10 -31z m127 -69 c7 -13 3 -28 -17 -56 -55
-82 -117 -154 -133 -154 -14 0 -70 61 -70 76 0 6 21 28 47 50 26 21 66 56 90
76 45 38 66 40 83 8z m95 -90 c4 -6 -3 -27 -15 -48 -34 -58 -124 -191 -130
-192 -3 0 -18 16 -33 35 l-28 36 93 89 c51 49 96 89 100 90 4 0 10 -5 13 -10z
m22 -202 c-63 -105 -87 -126 -112 -102 -8 8 -15 19 -15 23 0 12 173 182 178
176 3 -3 -20 -46 -51 -97z m-349 8 c34 -35 62 -69 62 -74 0 -11 136 -152 169
-174 l23 -16 -28 -16 c-16 -8 -50 -32 -76 -54 -53 -44 -213 -126 -228 -117 -6
3 -10 2 -10 -3 0 -5 -15 -16 -32 -23 -18 -7 -44 -24 -58 -36 -32 -29 -34 -29
-62 8 -13 17 -40 49 -60 72 -21 22 -38 43 -38 46 0 3 -21 28 -45 54 -25 26
-45 50 -45 52 0 29 330 345 360 345 4 0 35 -29 68 -64z m499 -4 c2 -13 -3 -25
-12 -28 -8 -4 -15 -11 -15 -16 0 -6 -11 -24 -25 -42 -32 -39 -35 -43 -65 -88
l-24 -36 -23 24 c-13 14 -23 26 -23 27 0 1 36 40 80 86 44 46 80 88 80 93 0
19 23 1 27 -20z m112 -102 c21 0 11 -15 -63 -101 -41 -48 -79 -96 -85 -108
-13 -24 -28 -26 -54 -7 -31 24 -13 73 51 141 32 33 71 70 87 83 26 21 31 22
41 8 6 -9 16 -16 23 -16z m92 -111 c10 -19 4 -27 -48 -76 -32 -30 -75 -69 -96
-85 -38 -30 -38 -30 -56 -11 -18 19 -18 20 3 37 13 9 45 38 73 64 47 44 104
92 110 92 1 0 7 -9 14 -21z"/>
<path d="M3637 4410 c-15 -5 -53 -36 -85 -71 -31 -34 -72 -76 -91 -93 -19 -17
-46 -42 -61 -56 -15 -14 -37 -32 -50 -40 -12 -8 -33 -23 -45 -32 -13 -10 -28
-18 -34 -18 -6 0 -11 -4 -11 -10 0 -5 -21 -25 -47 -45 -83 -63 -273 -239 -273
-252 0 -7 -4 -13 -10 -13 -5 0 -31 -20 -57 -45 -26 -24 -51 -45 -55 -45 -4 0
-24 -16 -45 -35 -21 -20 -50 -43 -65 -53 -16 -9 -33 -31 -39 -50 -16 -48 7
-88 113 -193 47 -48 103 -113 123 -145 21 -33 47 -70 59 -82 12 -13 35 -39 51
-57 64 -70 98 -112 127 -154 16 -24 38 -46 49 -48 10 -3 19 -9 19 -13 0 -4 8
-16 18 -28 9 -11 24 -29 32 -39 9 -10 41 -40 73 -68 31 -27 57 -55 57 -63 0
-38 109 34 225 148 12 11 26 20 33 20 7 0 12 4 12 10 0 5 15 16 34 25 18 9 42
24 52 33 11 10 46 34 79 55 70 43 105 71 105 85 0 5 14 15 30 22 17 7 34 18
38 24 12 19 49 35 94 42 62 10 101 29 143 69 21 19 43 35 49 35 6 0 38 24 71
53 55 49 90 72 106 69 16 -3 41 40 46 77 5 39 -19 131 -35 131 -4 0 -18 16
-31 35 -13 19 -30 35 -37 35 -8 0 -14 4 -14 9 0 10 -34 53 -62 79 -10 9 -18
20 -18 24 0 4 -65 73 -145 153 -80 81 -145 150 -145 154 0 4 -19 28 -42 52
-24 24 -57 64 -74 89 -18 25 -53 68 -78 95 -63 68 -72 79 -79 98 -6 17 -47 38
-70 36 -7 0 -24 -4 -40 -9z m35 -112 c30 -17 49 -36 80 -79 15 -20 50 -59 78
-87 27 -27 50 -53 50 -57 0 -11 60 -79 170 -193 52 -55 111 -117 132 -139 20
-23 40 -42 45 -44 4 -2 21 -23 37 -46 15 -23 37 -45 47 -48 11 -4 19 -10 19
-14 0 -5 18 -27 40 -50 51 -52 60 -86 30 -109 -12 -9 -31 -25 -41 -34 -11 -10
-21 -18 -24 -18 -5 0 -113 -78 -125 -90 -20 -20 -75 -50 -130 -71 -78 -30
-193 -104 -249 -161 -23 -22 -78 -64 -124 -94 -45 -29 -93 -61 -107 -72 -14
-10 -57 -42 -97 -71 -70 -51 -72 -52 -93 -34 -46 37 -196 196 -215 226 -10 18
-26 39 -35 47 -9 8 -49 53 -90 100 -40 47 -80 89 -87 93 -7 5 -11 12 -8 18 4
5 2 9 -3 9 -5 0 -21 19 -36 43 -15 23 -47 56 -72 72 -24 17 -46 37 -49 46 -3
9 -16 28 -29 42 -13 14 -26 32 -28 39 -3 7 31 40 79 77 46 35 83 70 83 77 0 8
6 14 13 14 12 0 140 117 148 135 7 17 128 123 229 200 36 28 70 55 75 61 6 6
46 38 91 72 45 33 101 81 125 106 24 25 45 46 47 46 1 0 12 -6 24 -12z"/>
<path d="M1673 1848 c-18 -13 -33 -29 -33 -37 0 -8 -11 -28 -24 -45 -13 -17
-26 -41 -30 -53 -4 -13 -12 -23 -17 -23 -5 0 -9 -16 -9 -35 0 -19 -4 -35 -10
-35 -5 0 -10 -5 -10 -11 0 -5 -10 -31 -22 -57 -17 -36 -22 -66 -22 -127 -1
-100 7 -131 40 -148 22 -12 33 -12 68 0 22 8 47 21 55 28 23 22 41 86 41 145
0 30 5 73 10 95 6 22 10 68 11 102 0 39 7 76 19 100 20 43 17 91 -8 111 -21
16 -22 16 -59 -10z m-14 -215 c-1 -27 -8 -64 -16 -83 -8 -19 -14 -60 -13 -90
3 -105 2 -108 -30 -125 -29 -15 -31 -15 -39 8 -14 37 -15 48 -6 102 8 54 49
170 66 192 6 7 8 13 5 13 -10 0 17 29 27 30 5 0 7 -21 6 -47z"/>
<path d="M805 1443 c-58 -12 -71 -23 -73 -61 -5 -68 -84 -313 -108 -333 -8 -6
-14 -20 -14 -31 0 -17 -59 -198 -79 -243 -5 -11 -17 -42 -27 -70 -10 -27 -20
-54 -24 -60 -4 -5 -22 -48 -40 -94 -19 -47 -49 -110 -67 -140 -18 -30 -33 -64
-33 -75 1 -27 33 -49 95 -66 28 -7 78 -28 113 -46 34 -19 69 -34 76 -34 8 0
17 -7 20 -15 10 -27 59 -13 76 22 15 31 61 91 113 147 16 17 33 40 38 51 13
29 31 56 54 81 37 40 55 64 55 74 0 14 111 173 132 188 17 13 72 87 94 127 16
31 38 68 47 79 49 67 117 148 150 176 53 48 48 80 -18 111 -25 12 -48 25 -51
30 -3 5 -17 9 -32 9 -15 0 -48 11 -74 24 -50 25 -83 35 -138 42 -19 3 -44 11
-55 18 -11 7 -38 19 -60 26 -22 7 -49 20 -60 30 -11 9 -29 20 -40 22 -11 3
-27 8 -35 11 -8 2 -24 3 -35 0z m60 -103 c8 -13 89 -50 109 -50 8 0 17 -4 21
-9 3 -6 27 -13 53 -17 26 -5 50 -9 55 -10 4 -1 15 -2 26 -3 10 0 29 -11 43
-23 14 -13 40 -24 63 -26 21 -2 49 -11 62 -19 l23 -15 -28 -36 c-15 -21 -30
-38 -34 -40 -5 -2 -8 -10 -8 -17 0 -8 -6 -18 -13 -22 -8 -4 -22 -27 -32 -50
-11 -24 -22 -43 -26 -43 -4 0 -14 -15 -23 -32 -27 -54 -38 -70 -98 -139 -31
-36 -82 -104 -112 -150 -31 -46 -59 -88 -64 -94 -4 -5 -19 -26 -32 -45 -32
-46 -101 -131 -128 -158 -12 -12 -22 -29 -22 -39 0 -9 -3 -13 -7 -10 -3 4 -12
-2 -20 -13 -18 -25 -61 -18 -123 21 -25 15 -57 31 -73 34 -38 10 -41 20 -19
63 10 20 27 64 37 97 9 33 20 65 25 70 4 6 11 21 15 35 4 14 25 61 46 105 22
44 39 88 39 97 0 9 4 19 9 22 4 3 14 33 20 67 7 34 16 69 21 78 4 9 16 34 25
56 10 22 24 51 30 65 7 14 18 43 25 65 7 22 16 45 20 50 3 6 12 30 19 54 21
75 57 112 76 81z"/>
<path d="M1860 1388 c-7 -18 -23 -60 -37 -92 -15 -34 -28 -87 -31 -125 -2 -36
-10 -75 -16 -86 -17 -31 -36 -88 -36 -108 0 -31 51 -127 76 -143 16 -11 36
-14 61 -10 21 3 43 7 50 8 7 1 15 8 19 17 11 24 13 153 3 173 -5 9 -9 88 -9
175 -1 175 -11 223 -46 223 -15 0 -25 -10 -34 -32z m16 -243 c-5 -57 -3 -77 6
-80 17 -7 25 -180 8 -190 -19 -12 -56 3 -66 27 -15 34 -17 107 -4 123 6 7 15
43 21 79 8 60 26 116 37 116 2 0 2 -34 -2 -75z"/>
<path d="M2920 1299 c0 -4 -26 -6 -57 -5 -32 1 -87 -6 -123 -16 -36 -11 -101
-28 -145 -38 -44 -11 -100 -24 -125 -30 -25 -6 -81 -15 -124 -20 -44 -5 -86
-15 -93 -22 -7 -7 -15 -31 -19 -53 -3 -22 -10 -48 -16 -58 -5 -10 -12 -30 -14
-44 -3 -14 -11 -38 -19 -53 -27 -53 -59 -155 -56 -185 2 -39 -45 -157 -84
-210 -17 -22 -21 -36 -14 -52 4 -12 4 -25 0 -27 -5 -3 -11 -33 -15 -65 -4 -33
-11 -63 -16 -66 -6 -4 -10 -19 -10 -36 0 -16 -4 -29 -8 -29 -5 0 -14 -11 -20
-25 -18 -39 18 -71 77 -70 24 0 61 -5 82 -13 21 -7 83 -21 136 -31 54 -10 122
-28 151 -39 28 -11 52 -19 52 -17 0 2 29 -5 64 -15 61 -17 65 -17 91 0 15 10
26 20 26 24 -1 9 9 39 21 60 43 79 79 161 96 218 12 36 25 75 31 85 18 32 61
133 61 143 0 6 4 10 8 10 9 0 43 67 43 85 0 6 6 17 12 25 28 35 137 247 137
265 0 8 3 15 8 17 4 2 18 28 32 58 13 30 35 69 48 87 21 29 23 36 12 68 -6 19
-18 35 -26 35 -8 0 -14 4 -14 9 0 5 -8 12 -17 16 -24 10 -173 22 -173 14z
m133 -78 c18 -2 6 -38 -42 -121 -12 -22 -79 -161 -91 -190 -5 -14 -14 -32 -20
-40 -25 -38 -70 -122 -70 -130 0 -5 -29 -69 -64 -142 -35 -73 -76 -172 -91
-221 -15 -48 -31 -87 -36 -87 -5 0 -9 -6 -10 -12 0 -7 -13 -33 -28 -58 -26
-42 -29 -45 -67 -41 -21 1 -57 9 -79 17 -22 7 -83 20 -135 29 -52 9 -117 21
-145 26 -27 6 -66 13 -87 16 -34 5 -36 7 -32 35 2 17 8 35 13 42 5 6 12 25 14
41 10 51 27 104 37 110 6 4 10 17 10 30 0 13 4 26 10 30 5 3 7 12 3 20 -3 8 0
15 6 15 6 0 11 11 11 25 0 14 4 25 8 25 10 0 32 103 32 147 0 17 14 64 31 104
17 41 35 90 41 109 6 19 16 43 23 53 14 20 135 67 255 98 41 11 100 27 130 35
30 8 66 16 80 18 14 3 35 8 47 13 17 6 204 9 246 4z"/>
</g>
</svg>
