<?xml version="1.0" standalone="no"?>
<!DOCTYPE svg PUBLIC "-//W3C//DTD SVG 20010904//EN"
 "http://www.w3.org/TR/2001/REC-SVG-20010904/DTD/svg10.dtd">
<svg version="1.0" xmlns="http://www.w3.org/2000/svg"
 width="513.000000pt" height="449.000000pt" viewBox="0 0 513.000000 449.000000"
 preserveAspectRatio="xMidYMid meet">
<metadata>
Created by potrace 1.16, written by Peter Selinger 2001-2019
</metadata>
<g transform="translate(0.000000,449.000000) scale(0.100000,-0.100000)"
fill="#000000" stroke="none">
<path d="M2094 4448 c-12 -52 -5 -145 14 -188 6 -14 16 -44 22 -67 6 -24 14
-43 18 -43 4 0 13 -15 20 -32 7 -18 18 -40 23 -48 5 -8 26 -48 46 -87 28 -55
43 -73 58 -73 23 0 67 37 109 93 l29 38 23 -53 c12 -29 38 -70 58 -90 20 -21
36 -40 36 -43 0 -3 12 -23 26 -45 19 -28 34 -40 50 -40 30 0 49 33 34 60 -6
10 -10 23 -9 27 1 4 -7 28 -18 53 -12 25 -24 66 -27 92 -4 26 -11 50 -17 53
-5 4 -9 15 -9 26 0 10 -4 19 -10 19 -5 0 -12 11 -16 25 -4 14 -9 24 -12 21 -3
-3 -11 -1 -19 6 -8 6 -34 14 -58 18 -41 6 -47 4 -87 -31 -39 -34 -44 -36 -55
-20 -6 10 -15 31 -19 47 -4 16 -13 36 -21 46 -8 9 -21 38 -29 64 -14 49 -50
97 -65 88 -4 -2 -11 16 -15 41 -7 50 -25 75 -54 75 -13 0 -21 -10 -26 -32z"/>
<path d="M410 4241 c0 -39 21 -74 73 -122 28 -27 59 -51 67 -54 8 -3 22 -16
30 -29 22 -37 85 -109 170 -196 41 -42 91 -96 111 -119 43 -49 59 -54 109 -30
47 23 58 37 65 85 13 85 27 94 68 44 14 -16 59 -51 101 -77 42 -26 99 -62 127
-80 27 -17 72 -52 99 -77 27 -25 55 -46 62 -46 18 1 53 23 54 35 0 15 41 97
57 118 8 9 20 17 28 17 30 -1 105 -43 203 -115 57 -41 107 -75 111 -75 4 0 16
-9 25 -20 10 -12 31 -22 47 -23 25 -2 28 2 31 30 2 23 -3 37 -19 50 -12 10
-32 27 -45 38 -12 11 -35 29 -50 40 -25 18 -115 94 -198 168 -17 15 -52 44
-78 65 -26 20 -47 42 -48 49 -1 30 -68 20 -74 -11 -2 -11 -12 -57 -22 -102
l-18 -81 -72 58 c-39 32 -87 73 -106 91 -39 37 -174 158 -229 206 -59 52 -109
61 -109 21 0 -10 -4 -19 -9 -19 -6 0 -13 -21 -17 -47 -9 -55 -8 -49 -18 -90
l-8 -33 -56 44 c-31 24 -91 65 -132 92 -41 26 -94 66 -118 88 -24 23 -48 43
-54 45 -15 5 -47 31 -71 59 -27 29 -87 31 -87 3z"/>
<path d="M4818 4217 c-7 -8 -38 -22 -68 -31 -30 -10 -93 -39 -140 -66 -83 -46
-116 -61 -134 -59 -5 0 -12 -3 -15 -8 -3 -5 -19 -14 -34 -21 l-28 -12 2 53 c2
44 -4 66 -29 106 -1 3 -19 6 -39 8 -27 2 -45 -5 -73 -27 -21 -17 -43 -30 -49
-30 -6 0 -11 -4 -11 -10 0 -5 -5 -10 -10 -10 -6 0 -16 -5 -23 -11 -20 -17
-158 -103 -219 -137 l-58 -31 -14 22 c-8 12 -24 46 -36 75 -22 51 -42 66 -81
59 -9 -1 -80 -67 -158 -146 -115 -116 -142 -148 -139 -168 6 -50 82 -68 121
-28 17 17 63 45 135 81 28 15 52 31 52 36 0 21 20 4 30 -27 13 -41 34 -49 103
-40 40 5 74 21 147 68 52 34 100 66 105 70 26 21 118 77 121 74 2 -2 9 -25 16
-53 19 -71 47 -114 76 -114 15 0 21 -4 16 -11 -16 -27 54 5 106 47 127 103
196 154 209 154 6 0 23 11 36 25 14 13 25 22 25 20 0 -7 93 46 108 62 11 11
12 17 2 29 -11 12 -10 13 5 8 15 -6 17 -4 12 17 -4 13 -7 27 -7 32 0 12 -48 8
-62 -6z"/>
<path d="M2840 3689 c-127 -12 -331 -56 -389 -84 -28 -14 -53 -25 -55 -25 -8
0 -124 -81 -136 -95 -7 -8 -20 -15 -29 -15 -15 0 -36 -16 -126 -99 -16 -15
-45 -38 -62 -50 -18 -12 -33 -28 -33 -34 0 -7 -14 -26 -30 -44 -17 -18 -30
-39 -30 -47 0 -8 -6 -21 -12 -28 -7 -7 -20 -26 -28 -43 -8 -16 -17 -32 -20
-35 -14 -14 -42 -74 -46 -98 -3 -15 -25 -67 -49 -115 -42 -86 -47 -112 -31
-166 3 -10 -24 -47 -79 -105 -47 -49 -87 -97 -90 -107 -4 -11 -11 -19 -16 -19
-5 0 -9 -7 -9 -15 0 -9 -7 -18 -15 -21 -8 -4 -15 -10 -15 -16 0 -13 -82 -137
-164 -248 -100 -135 -130 -180 -146 -219 -7 -19 -25 -46 -38 -60 -14 -14 -53
-69 -87 -121 -34 -52 -83 -117 -110 -145 -26 -27 -71 -82 -99 -120 -29 -39
-59 -77 -67 -85 -8 -8 -31 -36 -52 -62 -20 -26 -65 -68 -100 -94 -34 -26 -70
-58 -80 -71 -10 -12 -49 -53 -87 -90 -80 -80 -92 -105 -57 -128 13 -8 30 -13
38 -10 11 5 105 110 129 143 3 5 42 38 86 75 68 56 111 102 206 222 5 6 19 22
33 37 13 16 37 47 54 71 16 24 47 59 68 78 40 36 85 99 97 136 4 11 29 45 56
74 28 30 53 63 56 74 4 11 10 22 13 25 4 3 19 26 34 52 15 26 38 59 50 72 52
59 67 78 67 87 0 5 6 9 13 9 8 0 22 18 32 40 10 22 21 40 25 40 4 0 21 27 39
59 17 33 48 82 69 110 20 27 46 62 57 77 11 15 52 60 90 100 116 120 176 188
190 215 8 14 56 68 107 120 89 90 93 93 96 66 3 -27 -61 -177 -76 -177 -14 0
-33 -67 -27 -92 5 -17 -1 -29 -20 -46 -14 -12 -23 -27 -20 -32 3 -6 1 -10 -5
-10 -7 0 -9 -8 -4 -22 24 -81 97 -62 218 54 28 27 56 48 63 48 7 0 13 6 13 14
0 8 28 35 63 61 34 25 70 53 80 61 11 9 49 32 85 52 37 19 87 49 112 66 60 41
108 62 161 71 24 4 53 14 64 21 23 17 80 18 122 3 17 -5 46 -29 64 -52 34 -42
34 -42 32 -143 -2 -108 -14 -156 -66 -264 -17 -36 -31 -69 -32 -73 0 -4 -5
-11 -11 -15 -6 -4 -15 -15 -21 -25 -16 -30 -124 -136 -162 -160 -20 -12 -52
-37 -71 -55 -19 -19 -51 -42 -71 -52 -19 -10 -63 -37 -97 -59 -33 -23 -66 -41
-72 -41 -6 0 -26 -11 -44 -25 -18 -14 -38 -25 -43 -25 -6 0 -17 -7 -24 -16
-16 -20 -97 -56 -109 -49 -4 3 -10 -2 -14 -10 -3 -8 -14 -15 -25 -15 -11 0
-23 -5 -26 -10 -3 -5 -20 -10 -36 -10 -17 0 -40 -5 -52 -12 -12 -7 -27 -13
-33 -14 -35 -6 -95 -62 -134 -125 -73 -115 -149 -228 -168 -248 -35 -38 -55
-67 -74 -108 -10 -24 -23 -43 -28 -43 -6 0 -10 -7 -10 -15 0 -8 -4 -15 -10
-15 -5 0 -10 -7 -10 -15 0 -9 -7 -18 -15 -21 -8 -4 -15 -12 -15 -19 0 -8 -6
-20 -13 -27 -22 -23 -57 -85 -57 -102 0 -9 -8 -16 -20 -16 -13 0 -20 -7 -20
-18 0 -25 -49 -125 -107 -219 -41 -65 -81 -115 -183 -231 -11 -12 -20 -25 -20
-29 0 -3 -11 -16 -25 -29 -14 -13 -25 -27 -25 -32 0 -13 -176 -192 -189 -192
-6 0 -20 -9 -31 -20 -26 -26 -27 -83 0 -110 16 -16 24 -18 50 -9 16 6 41 25
55 42 39 48 105 116 105 109 0 -4 16 18 37 48 20 30 53 74 74 96 20 23 50 61
65 85 16 24 37 50 47 57 22 17 178 252 218 329 31 61 34 65 74 126 14 21 25
42 25 48 0 5 6 12 13 15 8 3 20 20 27 39 8 19 17 35 22 35 4 0 8 6 8 14 0 8 6
21 13 28 6 7 24 31 39 53 27 41 44 64 89 117 l26 31 13 -54 c13 -61 52 -170
86 -244 28 -62 74 -196 74 -216 0 -9 9 -25 20 -37 11 -12 20 -28 20 -37 0 -14
24 -65 50 -105 5 -8 14 -33 20 -55 22 -89 122 -209 232 -277 26 -16 50 -37 53
-48 3 -10 19 -23 35 -29 17 -5 30 -14 30 -19 0 -4 19 -19 43 -32 23 -13 44
-26 47 -29 9 -10 71 -41 83 -41 7 0 53 -21 102 -46 62 -31 103 -46 130 -46 44
0 129 0 160 0 88 1 185 18 240 42 80 36 135 58 135 54 0 -10 81 38 86 50 3 8
13 17 22 20 57 21 160 116 324 297 104 115 119 133 129 154 5 11 18 34 29 50
55 84 93 187 95 257 1 26 7 53 13 60 6 7 20 58 31 113 11 55 27 116 35 136 8
20 13 39 10 42 -4 3 3 50 14 104 47 220 70 541 51 693 -4 36 -10 103 -14 150
-7 103 -24 196 -42 230 -7 14 -13 35 -13 48 0 13 -13 56 -29 95 -15 40 -36 98
-45 129 -9 32 -22 63 -29 70 -7 7 -32 51 -56 98 -24 47 -49 93 -56 103 -34 49
-172 177 -244 226 -20 14 -41 30 -47 35 -6 6 -27 22 -47 36 -20 14 -37 28 -37
33 0 4 -6 7 -13 7 -7 0 -39 15 -70 34 -31 19 -71 37 -89 41 -18 4 -46 12 -63
20 -16 7 -61 16 -100 19 -38 4 -86 9 -105 12 -19 3 -87 6 -150 8 -63 1 -122 5
-130 8 -8 3 -53 2 -100 -3z m445 -130 c44 -7 92 -18 106 -25 15 -7 29 -11 32
-8 6 6 78 -25 87 -37 3 -3 29 -18 58 -33 65 -33 183 -118 238 -171 23 -22 63
-60 88 -84 72 -66 151 -206 190 -333 10 -32 22 -60 27 -64 5 -3 9 -15 9 -28 0
-12 6 -28 13 -34 6 -7 12 -16 13 -20 5 -48 19 -114 31 -142 25 -62 59 -605 40
-638 -3 -4 -8 -47 -12 -96 -4 -49 -13 -109 -20 -134 -8 -25 -12 -48 -10 -52 2
-4 -2 -31 -10 -61 -8 -30 -16 -74 -19 -99 -5 -56 -16 -102 -27 -116 -5 -6 -11
-31 -14 -55 -8 -67 -45 -218 -68 -279 -40 -108 -87 -179 -192 -289 -161 -168
-234 -238 -295 -280 -36 -24 -68 -49 -72 -55 -4 -6 -10 -7 -14 -3 -4 4 -17 1
-29 -7 -87 -57 -232 -91 -406 -95 -85 -2 -118 5 -169 40 -24 16 -90 41 -100
37 -3 -1 -24 11 -47 25 -24 15 -45 27 -48 27 -6 0 -37 25 -94 78 -25 23 -70
56 -98 73 -86 50 -201 203 -203 270 0 9 -8 23 -18 33 -10 9 -27 43 -38 76 -10
33 -22 60 -26 60 -4 0 -10 17 -14 37 -4 21 -11 46 -16 56 -5 10 -12 28 -14 40
-9 37 -10 40 -47 117 -19 41 -38 89 -40 105 -3 17 -12 59 -20 95 -9 36 -18 85
-22 110 -3 24 -10 47 -16 51 -19 11 34 99 60 99 5 0 16 12 26 26 9 14 19 23
23 20 3 -3 15 0 26 7 56 36 167 43 235 15 75 -31 289 -6 390 46 18 10 35 15
38 12 3 -3 14 -1 25 5 14 7 17 18 15 44 -2 19 -10 41 -17 50 -11 13 -17 11
-53 -15 -23 -17 -48 -30 -57 -30 -9 0 -22 -6 -28 -12 -15 -15 -188 -35 -254
-30 -51 4 -62 16 -25 28 12 4 35 17 50 30 15 13 59 40 97 60 39 20 70 40 70
44 0 4 25 20 56 35 31 16 80 50 109 77 29 26 57 48 61 48 13 1 214 195 214
207 0 6 8 21 18 34 10 13 29 53 42 89 12 36 29 75 36 87 7 11 18 47 23 80 5
32 14 70 20 85 7 18 7 29 0 34 -5 3 -7 20 -4 37 10 50 6 79 -16 127 -23 50
-71 104 -109 124 -14 7 -38 20 -54 29 -36 20 -133 14 -180 -10 -17 -9 -38 -17
-46 -18 -8 -1 -37 -11 -65 -24 -27 -12 -72 -32 -100 -44 -27 -12 -55 -27 -62
-33 -6 -6 -37 -24 -70 -40 -32 -16 -59 -32 -61 -36 -2 -5 -8 -8 -13 -8 -6 0
-22 -11 -37 -25 -15 -14 -32 -25 -38 -25 -7 0 -44 -31 -83 -70 -73 -71 -76
-66 -16 30 12 19 22 43 23 53 9 105 -12 167 -63 191 -58 28 -88 13 -199 -95
-55 -54 -102 -96 -105 -93 -2 2 5 14 17 27 12 13 22 31 22 41 0 21 49 125 69
146 8 8 20 29 27 46 22 52 188 208 234 219 22 6 47 22 58 37 7 10 18 18 23 18
6 0 27 13 47 29 20 16 55 35 77 42 22 7 45 16 50 20 6 4 33 10 60 14 28 4 61
12 75 17 14 6 48 14 75 18 66 11 448 3 550 -11z"/>
<path d="M3868 2042 c-7 -10 -42 -33 -78 -51 -54 -28 -78 -34 -140 -36 -41 -2
-107 -6 -146 -9 -59 -6 -74 -4 -95 12 -34 26 -85 27 -99 2 -16 -31 4 -53 69
-73 48 -15 82 -17 214 -13 l157 4 86 43 c47 24 89 49 91 57 7 16 -23 82 -36
82 -6 0 -16 -8 -23 -18z"/>
<path d="M3148 1381 c-14 -11 -36 -21 -49 -23 -13 -2 -28 -6 -34 -9 -20 -10
-75 -10 -75 0 0 18 -17 13 -47 -13 l-28 -25 23 -23 c28 -29 97 -30 190 -3 49
14 66 24 77 45 13 25 12 29 -6 49 -24 25 -21 25 -51 2z"/>
<path d="M3375 1000 c-66 -7 -91 -17 -119 -49 -11 -12 -25 -21 -33 -21 -7 0
-13 -6 -13 -13 0 -7 -10 -19 -22 -27 -27 -17 -78 -31 -78 -20 0 3 -6 7 -12 7
-7 0 -49 17 -93 38 -72 34 -89 38 -165 39 -110 1 -176 -7 -198 -26 -20 -17
-114 -64 -123 -61 -4 1 -9 -9 -12 -23 -5 -28 28 -68 47 -57 6 4 34 22 62 40
29 18 62 34 75 37 13 2 44 9 68 14 43 10 111 6 111 -8 0 -3 13 -5 28 -2 21 3
45 -6 85 -32 31 -20 58 -36 59 -35 8 5 48 -14 48 -22 0 -14 55 -2 100 22 19
10 51 33 70 52 45 44 74 58 122 63 46 4 229 -41 243 -60 16 -21 42 3 46 41 4
38 -25 76 -52 68 -9 -3 -20 -1 -24 5 -3 5 -19 10 -34 10 -15 0 -31 4 -37 10
-13 13 -79 18 -149 10z"/>
</g>
</svg>
