<?xml version="1.0" standalone="no"?>
<!DOCTYPE svg PUBLIC "-//W3C//DTD SVG 20010904//EN"
 "http://www.w3.org/TR/2001/REC-SVG-20010904/DTD/svg10.dtd">
<svg version="1.0" xmlns="http://www.w3.org/2000/svg"
 width="525.000000pt" height="419.000000pt" viewBox="0 0 525.000000 419.000000"
 preserveAspectRatio="xMidYMid meet">
<metadata>
Created by potrace 1.16, written by Peter Selinger 2001-2019
</metadata>
<g transform="translate(0.000000,419.000000) scale(0.100000,-0.100000)"
fill="#000000" stroke="none">
<path d="M3827 4014 c-1 -1 -34 -4 -73 -7 -70 -4 -127 -26 -206 -79 -14 -10
-33 -18 -40 -18 -19 0 -68 -42 -68 -58 0 -7 -4 -12 -9 -12 -5 0 -11 -8 -14
-17 -3 -10 -14 -34 -25 -53 -26 -46 -52 -164 -53 -234 0 -33 6 -95 17 -161 8
-47 44 -135 56 -135 4 0 8 -5 8 -11 0 -20 54 -99 68 -99 6 0 12 -6 12 -12 1
-21 102 -95 160 -117 69 -26 166 -51 205 -52 17 -1 60 2 97 6 52 6 70 5 80 -6
13 -14 55 -128 61 -165 1 -11 13 -33 25 -49 12 -15 20 -30 18 -32 -2 -3 -35
-7 -73 -9 -37 -3 -87 -12 -111 -20 -24 -8 -47 -12 -52 -9 -5 3 -31 0 -59 -6
-43 -9 -54 -16 -67 -42 -8 -18 -26 -50 -39 -72 -13 -22 -34 -61 -46 -87 -12
-27 -25 -48 -28 -48 -4 0 -18 -29 -32 -65 -13 -36 -27 -65 -31 -65 -5 0 -8
-14 -8 -31 0 -17 -11 -52 -24 -78 -13 -25 -29 -58 -35 -73 -6 -16 -15 -38 -20
-50 -5 -13 -12 -35 -15 -50 -4 -16 -12 -28 -19 -28 -8 0 -13 -10 -13 -22 1
-13 -3 -23 -9 -23 -5 -1 -19 -4 -30 -8 -11 -3 -31 -9 -45 -11 -14 -3 -68 -17
-120 -31 -52 -15 -110 -29 -129 -31 -19 -3 -40 -9 -47 -15 -7 -6 -18 -9 -26
-8 -13 2 -40 -6 -68 -20 -21 -11 -24 -61 -6 -96 9 -17 16 -27 16 -23 0 4 11 3
25 -2 14 -5 25 -6 25 -1 0 15 70 47 140 64 162 41 189 48 245 66 33 11 72 22
86 25 25 5 69 74 69 109 0 19 42 133 70 193 11 22 20 48 20 57 0 9 4 18 9 21
5 3 12 17 15 32 7 26 47 94 56 94 3 0 6 -8 6 -17 1 -10 6 -56 12 -103 6 -47
14 -103 16 -125 3 -22 11 -62 17 -90 6 -27 12 -63 14 -80 4 -49 17 -109 25
-120 4 -5 10 -39 14 -75 9 -86 14 -128 22 -170 4 -19 6 -44 5 -55 -1 -12 2
-32 7 -45 6 -16 3 -38 -10 -72 -10 -26 -18 -58 -18 -71 0 -12 -6 -31 -14 -42
-7 -11 -21 -47 -30 -80 -20 -71 -86 -215 -99 -215 -5 0 -6 -24 -2 -57 4 -32 9
-71 11 -88 5 -50 25 -149 34 -170 10 -22 59 -234 64 -275 2 -14 6 -46 10 -71
6 -36 5 -47 -6 -52 -8 -3 -73 -5 -144 -5 -170 0 -184 -4 -184 -51 0 -48 35
-90 70 -84 14 3 59 6 100 8 41 2 75 5 75 6 0 0 18 2 40 3 116 7 170 19 185 40
17 24 20 96 4 96 -13 0 -44 102 -44 143 0 14 -5 29 -10 32 -6 4 -10 21 -8 39
1 17 -1 37 -5 43 -11 17 -77 329 -77 362 0 17 4 39 8 49 37 75 52 113 62 152
7 25 19 56 28 70 9 14 18 34 19 45 3 20 22 79 51 163 9 26 20 41 27 38 7 -2
17 0 23 6 7 7 20 7 41 0 17 -6 33 -7 35 -3 3 4 22 8 43 9 111 1 274 15 318 27
28 7 74 16 103 20 52 7 52 7 52 -20 0 -15 -6 -41 -14 -58 -8 -18 -19 -61 -25
-97 -18 -113 -23 -135 -31 -145 -14 -18 -22 -73 -10 -80 5 -3 8 -11 5 -16 -4
-5 -2 -9 3 -9 6 0 16 -24 22 -52 7 -29 15 -57 19 -63 3 -5 6 -14 6 -20 0 -5 8
-27 18 -49 9 -21 17 -44 17 -50 0 -6 6 -23 14 -38 8 -15 17 -42 21 -60 4 -18
18 -64 31 -103 13 -38 25 -81 27 -95 2 -14 11 -43 20 -64 10 -22 15 -41 13
-43 -2 -2 5 -27 15 -56 10 -28 19 -57 19 -63 0 -13 -152 -12 -227 1 -36 6 -42
5 -53 -15 -17 -32 -15 -89 4 -108 13 -13 40 -16 163 -14 131 2 189 5 216 10 4
1 14 17 22 36 13 31 12 40 -14 117 -16 46 -32 102 -36 124 -4 22 -10 45 -14
50 -8 10 -11 18 -37 115 -8 30 -18 64 -23 75 -4 11 -21 61 -37 110 -16 50 -35
101 -41 115 -7 14 -13 32 -13 40 0 8 -8 29 -17 45 -21 37 -25 184 -5 207 6 8
9 17 6 21 -3 3 -1 21 4 39 6 18 18 69 28 113 10 44 22 83 28 87 12 8 15 42 22
291 5 155 8 179 22 183 10 3 24 9 32 13 9 5 30 12 47 15 18 4 58 21 89 37 32
16 66 29 75 29 17 0 59 48 59 68 0 5 -7 15 -15 22 -8 7 -15 20 -15 30 0 10 -6
20 -12 23 -7 3 -22 22 -33 43 -11 22 -33 53 -48 69 -15 17 -45 59 -67 95 -21
36 -55 84 -77 107 -84 93 -117 148 -114 193 1 28 -49 75 -90 85 -32 7 -251
-10 -315 -25 -47 -11 -54 -10 -87 11 -24 16 -37 32 -37 47 0 12 -4 22 -8 22
-5 0 -14 19 -21 43 -7 23 -19 58 -26 79 -13 36 -12 36 39 91 49 52 79 113 106
217 17 62 10 208 -15 345 -8 45 -37 127 -55 155 -9 14 -22 38 -30 54 -43 85
-215 194 -328 206 -29 3 -54 5 -55 4z m96 -129 c20 -3 37 -10 37 -15 0 -6 7
-10 16 -10 9 0 29 -10 44 -22 15 -13 42 -34 59 -48 17 -14 31 -30 31 -37 0 -7
3 -13 8 -13 10 0 41 -58 46 -86 3 -12 11 -42 20 -66 8 -25 15 -63 15 -84 0
-21 2 -55 5 -74 10 -60 9 -146 -2 -166 -20 -40 -42 -95 -42 -108 0 -14 -35
-48 -65 -64 -49 -25 -221 -32 -308 -12 -51 11 -70 18 -124 43 -43 19 -133 117
-155 167 -11 25 -27 61 -36 80 -13 27 -17 64 -17 160 0 119 2 128 32 190 l31
65 103 52 c77 38 116 51 148 52 24 0 46 2 49 6 5 5 16 4 105 -10z m688 -1242
c2 -29 10 -78 18 -115 5 -23 8 -45 6 -48 -2 -4 0 -22 5 -41 5 -19 12 -54 15
-79 3 -25 7 -58 10 -75 2 -16 7 -55 9 -85 3 -30 8 -77 11 -105 3 -27 8 -64 10
-81 3 -30 0 -32 -78 -69 -74 -34 -119 -51 -166 -60 -33 -7 -67 -23 -80 -39 -7
-9 -21 -16 -30 -16 -9 0 -23 -10 -31 -22 -16 -25 -22 -58 -10 -58 4 0 10 -9
13 -20 4 -17 12 -19 58 -15 30 2 55 8 57 14 4 11 110 63 167 81 22 7 57 21 78
30 l37 18 0 -94 c0 -54 -4 -94 -10 -94 -5 0 -7 -6 -4 -14 5 -12 -2 -21 -40
-54 -9 -7 -28 -12 -43 -11 -16 1 -57 -5 -93 -14 -73 -18 -135 -24 -325 -31
-71 -3 -142 -8 -157 -12 -23 -4 -28 -2 -29 13 -1 28 -7 73 -19 138 -6 33 -12
74 -15 90 -6 38 -11 62 -24 105 -6 19 -16 73 -22 120 -6 47 -15 90 -20 95 -4
6 -10 53 -13 105 -2 52 -6 105 -9 117 -12 48 -11 201 1 216 12 14 43 24 98 31
11 1 24 5 30 8 5 4 33 5 62 4 29 -2 55 1 58 6 3 5 12 7 19 4 8 -3 15 0 17 6 2
6 25 11 51 12 26 0 47 3 47 6 0 3 12 7 28 8 15 1 51 6 81 12 29 5 57 7 62 4 5
-3 15 -1 24 3 19 11 145 16 146 6z m189 -255 c42 -50 80 -104 80 -114 0 -4 17
-30 38 -58 39 -52 66 -96 60 -99 -2 -1 -14 -8 -26 -15 -13 -7 -54 -24 -92 -36
l-69 -24 -1 52 c-3 92 -18 244 -26 257 -9 15 -15 79 -7 79 5 0 24 -19 43 -42z"/>
<path d="M1495 2851 c-3 -5 -29 -17 -58 -27 -28 -9 -59 -23 -68 -30 -8 -8 -20
-14 -26 -14 -6 0 -13 -7 -17 -15 -3 -8 -10 -15 -16 -15 -16 0 -59 -52 -60 -72
0 -9 -4 -19 -9 -22 -16 -10 -51 -161 -58 -247 -12 -157 -3 -205 52 -288 13
-19 22 -38 20 -42 -3 -4 11 -21 31 -39 l37 -32 -16 -34 c-9 -19 -23 -34 -32
-34 -8 0 -15 -7 -15 -16 0 -16 -10 -28 -82 -104 -20 -22 -39 -48 -43 -60 -3
-11 -12 -26 -20 -33 -20 -21 -72 -118 -85 -162 -7 -22 -16 -44 -20 -50 -10
-12 -49 -123 -55 -155 -2 -13 -11 -30 -18 -39 -46 -54 -115 -375 -84 -387 8
-3 13 -34 14 -88 2 -76 0 -84 -17 -89 -11 -3 -20 -2 -20 3 0 4 -14 14 -32 21
-34 14 -98 66 -98 80 0 4 -11 20 -25 35 -14 15 -25 33 -25 40 0 7 -11 39 -25
70 -14 31 -25 65 -25 74 0 10 -5 20 -11 22 -5 2 -11 10 -13 18 -2 8 -5 22 -8
30 -14 36 -28 195 -28 320 -2 195 -6 216 -52 250 -17 13 -50 25 -73 27 -37 5
-44 2 -68 -26 -15 -18 -32 -51 -38 -74 -6 -23 -14 -46 -19 -52 -21 -27 -40
-164 -39 -285 0 -114 2 -140 10 -140 4 0 10 -21 14 -47 4 -27 10 -52 13 -58 4
-5 8 -21 10 -35 1 -14 12 -50 24 -80 11 -30 21 -70 22 -87 0 -18 3 -33 6 -33
3 0 16 -27 30 -60 33 -80 133 -185 212 -223 31 -16 59 -36 62 -45 3 -10 23
-26 43 -37 21 -11 47 -29 59 -41 12 -12 36 -25 55 -30 19 -4 37 -9 42 -10 4
-1 11 -2 16 -3 10 -1 19 -26 41 -113 15 -58 49 -96 121 -137 42 -24 68 -31
107 -31 30 0 52 -5 52 -11 0 -5 4 -7 10 -4 5 3 20 -1 32 -9 26 -18 69 -21 85
-5 11 11 43 18 103 23 19 2 42 6 51 10 9 4 40 3 68 -2 32 -6 54 -6 57 0 3 5
22 7 43 4 20 -3 63 -8 96 -12 33 -3 63 -8 67 -11 4 -2 20 3 36 11 16 8 42 12
58 10 16 -3 38 -5 49 -4 11 0 34 0 51 0 23 0 44 13 85 50 33 31 61 48 72 46 9
-2 17 -1 17 4 0 4 39 6 88 3 142 -9 185 -6 232 12 59 22 80 42 80 75 0 34 -27
100 -40 100 -6 0 -10 7 -10 15 0 8 -6 15 -14 15 -7 0 -25 10 -40 21 -41 33
-148 63 -213 60 -18 0 -33 4 -33 9 0 6 -9 10 -21 10 -20 0 -21 4 -18 118 2 64
0 131 -3 147 -3 17 -9 47 -13 67 -4 21 -11 38 -16 38 -5 0 -9 6 -9 14 0 31
-68 126 -89 126 -6 0 -11 5 -11 11 0 5 -13 15 -29 20 -16 6 -32 17 -35 25 -3
8 -13 14 -21 14 -9 0 -13 5 -9 11 3 6 8 40 9 76 2 76 14 94 41 61 11 -13 33
-32 49 -42 37 -24 91 -75 113 -108 9 -14 34 -50 55 -81 45 -69 82 -107 105
-108 62 -5 107 4 124 26 10 13 28 27 39 30 20 7 21 13 17 89 -4 70 -18 119
-39 136 -4 3 -10 19 -13 37 -4 17 -14 37 -22 43 -7 7 -19 30 -25 53 -6 22 -29
65 -51 95 -32 43 -37 56 -27 63 15 10 28 12 47 10 6 -1 12 3 12 9 0 5 20 10
44 10 25 0 47 4 51 9 3 6 13 10 23 10 62 -1 215 39 272 70 9 5 31 12 50 16 19
4 46 19 59 34 50 56 72 90 72 110 -1 12 -1 30 -2 40 0 19 -55 75 -96 98 -21
12 -34 12 -158 -4 -33 -4 -65 -7 -71 -8 -6 0 -23 -6 -38 -13 -78 -37 -96 -41
-204 -52 -52 -6 -100 -14 -106 -19 -6 -5 -27 -12 -46 -16 -19 -4 -45 -14 -58
-23 -18 -12 -28 -12 -48 -3 -14 6 -35 11 -48 11 -18 0 -27 9 -40 43 -20 54
-20 66 2 65 41 0 145 24 159 37 8 8 20 15 26 15 12 0 32 10 100 48 21 12 44
22 52 22 8 0 15 4 15 10 0 5 8 17 19 27 10 10 35 42 55 72 28 42 36 63 34 92
-1 20 3 44 10 51 19 23 60 142 54 157 -13 37 -117 110 -146 103 -4 -2 -14 2
-21 8 -7 6 -17 10 -21 9 -5 -2 -35 6 -68 15 -43 13 -78 17 -132 13 -82 -6 -90
-1 -117 66 -9 20 -21 37 -27 37 -6 0 -8 4 -5 10 7 12 -12 50 -34 67 -37 30
-200 101 -244 107 -81 12 -246 16 -252 7z m55 -101 c19 12 67 13 74 1 3 -5 20
-7 38 -4 18 2 53 -2 78 -8 55 -14 170 -69 170 -80 0 -5 7 -9 15 -9 8 0 15 -5
15 -11 0 -6 6 -9 13 -6 10 3 12 -7 11 -42 -1 -25 3 -51 8 -58 5 -7 7 -17 3
-23 -3 -5 0 -10 8 -10 8 0 17 -9 20 -20 6 -25 50 -42 97 -39 20 2 40 0 45 -3
6 -3 42 -4 80 -3 86 3 120 -7 107 -32 -5 -10 -12 -36 -15 -58 -5 -31 -2 -46
16 -72 12 -18 27 -33 32 -33 16 0 11 -61 -8 -97 -17 -33 -71 -69 -94 -65 -7 2
-13 -2 -13 -7 0 -12 -72 -51 -94 -51 -8 0 -16 -5 -18 -12 -3 -8 -38 -13 -106
-14 -128 -3 -162 -19 -162 -76 0 -25 5 -38 14 -38 17 0 66 -94 66 -126 0 -13
5 -24 12 -24 6 0 8 -3 5 -7 -6 -6 54 -53 68 -53 4 0 22 -7 41 -16 19 -9 44
-14 57 -11 29 6 114 36 152 53 33 14 113 28 160 27 17 0 35 3 41 8 6 5 18 7
26 4 9 -4 31 3 51 14 19 11 57 23 83 27 27 3 58 8 69 11 60 13 92 12 110 -1
20 -14 20 -15 -1 -43 -12 -15 -34 -32 -50 -37 -41 -13 -47 -15 -64 -25 -28
-17 -165 -51 -245 -61 -101 -13 -203 -38 -233 -57 -13 -8 -33 -13 -45 -11 -12
2 -27 -4 -34 -12 -9 -11 -15 -12 -23 -4 -9 9 -19 9 -41 1 -34 -13 -38 -22 -30
-67 7 -40 19 -45 122 -49 31 -1 114 -76 123 -111 10 -35 34 -96 64 -160 31
-65 38 -106 21 -126 -14 -18 -59 -19 -59 -1 0 7 -9 23 -20 35 -11 12 -20 25
-20 29 0 5 -11 20 -24 34 -13 14 -31 40 -40 58 -10 18 -24 35 -32 38 -7 3 -39
29 -69 59 -30 30 -60 54 -66 54 -6 0 -9 7 -6 14 6 14 -26 33 -45 28 -5 -1 -8
2 -8 7 0 10 -39 25 -55 21 -5 -1 -17 -3 -25 -3 -24 0 -51 -29 -49 -51 1 -12
-2 -32 -7 -46 -6 -14 -9 -56 -9 -95 1 -38 -1 -74 -4 -80 -3 -5 -6 -12 -7 -15
-3 -18 -21 -46 -45 -73 -16 -17 -29 -35 -29 -39 0 -13 -28 -9 -62 10 -18 10
-42 18 -53 17 -11 0 -33 4 -50 8 -32 9 -45 11 -142 22 -54 5 -65 3 -83 -15
-15 -15 -19 -27 -14 -48 4 -15 7 -28 8 -29 1 -2 71 -13 121 -19 22 -3 60 -9
85 -15 25 -5 56 -11 69 -14 13 -2 31 -11 41 -20 9 -8 25 -15 36 -15 22 -1 70
-37 60 -47 -3 -3 1 -14 10 -24 11 -12 17 -48 21 -128 l6 -110 -32 -38 c-17
-21 -36 -42 -40 -47 -39 -38 -58 -49 -85 -52 -17 -1 -33 -4 -36 -5 -3 -1 -9
-1 -13 0 -5 1 -27 -5 -50 -13 -31 -10 -56 -12 -96 -5 -69 11 -100 3 -107 -26
-16 -63 23 -88 130 -86 80 2 103 4 111 13 4 3 20 2 38 -3 17 -5 60 -6 96 -4
174 13 220 8 267 -30 l29 -24 -25 -23 c-25 -24 -26 -24 -245 -20 -231 4 -272
4 -475 1 -143 -3 -238 17 -247 51 -3 11 -9 17 -14 14 -5 -2 -11 5 -13 18 -25
115 -41 174 -50 180 -6 4 -11 13 -11 19 0 15 -64 22 -80 9 -12 -10 -82 30 -98
57 -4 7 -14 13 -21 13 -7 0 -25 11 -40 25 -15 14 -38 28 -51 31 -14 3 -25 9
-25 13 0 4 -15 15 -32 26 -47 27 -106 84 -114 109 -4 12 -11 24 -15 27 -8 4
-35 93 -43 135 -1 7 -8 19 -15 28 -8 9 -15 37 -16 64 -1 26 -4 48 -5 50 -1 1
-3 5 -4 10 -7 35 -31 109 -38 119 -5 6 -8 57 -7 113 1 87 7 130 23 185 1 6 8
30 15 54 12 41 39 83 42 64 1 -4 3 -95 5 -201 2 -107 7 -199 12 -205 5 -7 10
-26 10 -44 0 -17 6 -41 12 -52 6 -12 9 -21 6 -21 -3 0 1 -15 8 -33 7 -17 11
-38 9 -45 -3 -7 1 -10 9 -7 10 4 19 -11 32 -52 18 -58 73 -165 88 -171 4 -2 8
-8 8 -14 0 -23 129 -115 143 -102 3 3 16 -2 29 -10 14 -9 28 -13 31 -9 4 3 7
1 7 -5 0 -8 11 -10 31 -7 17 3 37 1 45 -6 7 -6 26 -8 43 -4 39 8 57 53 33 86
-9 13 -16 48 -18 88 -2 36 -6 84 -10 106 -18 90 1 227 45 328 11 26 20 50 20
54 0 3 3 9 8 12 5 3 20 39 32 79 13 39 27 72 31 72 5 0 11 15 15 33 11 55 74
170 120 221 25 26 45 52 45 57 0 11 79 89 91 89 5 0 9 3 9 8 0 4 15 25 33 46
33 37 36 38 79 32 63 -10 140 25 196 89 44 50 62 97 68 180 2 28 6 75 9 105 7
75 -8 157 -31 175 -41 31 -84 9 -83 -42 1 -15 2 -71 4 -123 3 -131 -20 -211
-73 -243 -53 -34 -77 -37 -133 -21 -57 17 -94 53 -140 138 -26 49 -33 73 -33
121 -1 90 13 200 30 237 31 66 50 100 57 99 8 -1 13 3 60 44 15 14 36 25 45
25 9 0 26 7 36 15 12 9 22 11 26 6 3 -6 11 -6 20 -1z m910 -364 c0 -20 -23
-56 -35 -56 -14 0 -14 3 0 30 13 25 35 41 35 26z m-518 -1419 c7 -8 18 -12 24
-10 14 5 64 -60 64 -81 0 -9 4 -16 8 -16 26 0 36 -61 37 -222 l1 -166 29 -30
c29 -29 125 -60 146 -47 5 3 28 1 51 -6 24 -6 48 -12 53 -13 6 -1 32 -13 59
-26 47 -24 48 -25 26 -39 -29 -19 -68 -23 -94 -8 -12 7 -34 13 -51 14 -16 1
-63 3 -104 5 -65 4 -76 7 -84 26 -6 12 -18 22 -28 22 -10 0 -21 5 -24 10 -4 6
-10 8 -15 5 -5 -3 -11 -1 -15 5 -3 5 -15 10 -26 10 -10 0 -19 4 -19 10 0 5
-16 8 -35 6 -19 -1 -40 1 -46 5 -7 4 -25 3 -41 -1 -32 -10 -31 -7 11 50 50 68
54 81 57 192 1 59 -2 110 -7 114 -5 3 -7 9 -4 14 3 5 -1 20 -10 33 -9 14 -18
35 -20 47 -2 12 -9 28 -16 36 -8 10 -8 14 0 14 6 0 11 4 11 10 0 12 32 50 42
50 3 0 13 -6 20 -13z"/>
<path d="M1844 2467 c-31 -27 -29 -57 6 -95 16 -17 27 -21 48 -16 35 9 33 6
39 52 4 29 1 45 -13 61 -24 27 -46 27 -80 -2z"/>
</g>
</svg>
