<?xml version="1.0" standalone="no"?>
<!DOCTYPE svg PUBLIC "-//W3C//DTD SVG 20010904//EN"
 "http://www.w3.org/TR/2001/REC-SVG-20010904/DTD/svg10.dtd">
<svg version="1.0" xmlns="http://www.w3.org/2000/svg"
 width="505.000000pt" height="465.000000pt" viewBox="0 0 505.000000 465.000000"
 preserveAspectRatio="xMidYMid meet">
<metadata>
Created by potrace 1.16, written by Peter Selinger 2001-2019
</metadata>
<g transform="translate(0.000000,465.000000) scale(0.100000,-0.100000)"
fill="#000000" stroke="none">
<path d="M2916 4529 c-20 -10 -41 -19 -47 -19 -12 0 -82 -51 -88 -64 -2 -5
-11 -16 -20 -26 -9 -9 -23 -28 -31 -42 -8 -14 -28 -45 -45 -69 -16 -24 -30
-51 -32 -60 -1 -8 -18 -41 -36 -72 -19 -31 -44 -84 -57 -117 -12 -33 -26 -60
-30 -60 -4 0 -10 -10 -13 -22 -8 -34 -36 -110 -47 -130 -6 -10 -10 -27 -10
-39 0 -11 -4 -29 -10 -39 -5 -10 -12 -35 -15 -56 -6 -52 -17 -84 -59 -179 -40
-90 -49 -95 -156 -94 -48 1 -77 -2 -165 -16 -11 -1 -40 -7 -65 -13 -72 -16
-276 10 -340 43 -55 28 -198 7 -240 -35 -14 -15 -149 -65 -250 -94 -25 -7 -74
-32 -110 -54 -36 -23 -74 -46 -85 -51 -20 -9 -89 -80 -135 -141 -25 -33 -50
-75 -84 -146 -54 -111 -80 -161 -92 -175 -8 -8 -14 -21 -14 -27 0 -7 -11 -30
-25 -52 -14 -22 -33 -59 -42 -82 -9 -24 -24 -54 -33 -68 -10 -14 -21 -36 -25
-50 -4 -14 -11 -29 -15 -35 -10 -14 -41 -114 -47 -150 -2 -16 -11 -39 -18 -51
-7 -11 -19 -41 -25 -65 -7 -24 -15 -46 -19 -49 -9 -6 -41 -75 -41 -88 0 -11
-29 -108 -40 -137 -5 -11 -16 -76 -25 -145 -9 -69 -22 -141 -30 -160 -11 -30
-22 -143 -15 -160 1 -3 3 -21 5 -41 1 -20 7 -45 13 -55 19 -38 9 -318 -15
-374 -3 -8 -7 -27 -9 -41 -5 -56 -59 -197 -96 -251 -40 -61 -46 -84 -26 -111
23 -30 59 -27 90 7 15 17 28 38 28 47 0 9 8 27 18 40 10 13 26 44 34 69 9 25
25 71 37 102 11 32 21 68 21 80 0 13 7 48 15 78 16 58 25 153 25 260 -1 73 -3
90 -25 175 -8 33 -12 74 -10 90 3 17 7 41 9 55 2 14 9 43 14 65 19 73 31 129
37 175 3 25 10 61 15 80 5 19 15 60 23 90 15 56 43 123 62 150 13 17 45 115
45 136 0 8 11 36 24 63 13 27 26 61 30 76 4 14 20 55 36 91 17 35 30 69 30 74
0 6 5 10 10 10 6 0 10 8 10 18 0 10 25 59 55 110 30 51 55 97 55 101 0 16 41
100 56 115 8 9 18 28 20 43 3 15 8 30 12 33 4 3 27 30 50 60 30 38 70 71 129
108 48 28 94 52 104 52 10 0 21 5 24 10 4 6 12 10 18 9 7 -1 25 3 40 9 16 7
34 12 42 12 7 0 15 4 17 10 2 5 20 10 41 12 20 1 37 5 37 8 0 3 15 11 32 18
18 7 47 19 63 27 53 24 91 27 143 10 l51 -17 -67 -35 c-37 -20 -80 -43 -97
-51 -16 -8 -42 -25 -57 -37 -15 -13 -47 -32 -71 -44 -25 -12 -67 -42 -93 -66
-26 -25 -51 -45 -56 -45 -4 0 -22 -16 -40 -37 -18 -20 -46 -48 -62 -62 -77
-68 -83 -88 -37 -120 41 -29 55 -26 84 17 54 80 183 188 282 237 22 10 52 27
67 37 14 10 36 18 47 18 12 0 21 3 21 8 0 4 27 22 60 40 33 18 62 37 65 43 4
5 16 9 29 9 12 0 26 4 32 10 5 5 25 11 44 14 19 3 71 17 115 31 49 16 113 28
164 31 47 3 92 9 100 13 9 3 35 4 59 1 l43 -5 -21 -40 c-11 -21 -20 -45 -20
-52 0 -18 -13 -16 -43 7 -32 25 -62 25 -87 0 -11 -11 -26 -17 -35 -14 -9 4
-15 0 -15 -10 0 -9 -15 -20 -40 -27 -22 -7 -40 -16 -40 -21 0 -4 -3 -7 -7 -6
-5 1 -18 -3 -31 -10 -12 -7 -28 -10 -34 -6 -8 5 -9 2 -5 -9 5 -13 -1 -18 -21
-22 -15 -4 -34 -10 -42 -15 -8 -5 -35 -19 -59 -30 -42 -19 -88 -55 -191 -149
-25 -22 -49 -41 -55 -41 -15 0 -68 -64 -95 -117 -14 -26 -28 -50 -32 -53 -4
-3 -6 -17 -5 -31 6 -69 107 -82 107 -15 0 24 28 72 56 98 11 10 37 34 60 55
108 101 187 158 231 169 31 8 90 39 113 59 8 7 29 17 45 20 17 4 35 13 40 19
6 7 25 18 43 25 25 11 38 11 61 1 l29 -11 -24 -65 c-13 -35 -25 -68 -28 -73
-3 -4 -8 -22 -11 -40 -3 -18 -9 -40 -14 -49 -19 -38 -41 -93 -41 -104 0 -6
-14 -40 -30 -75 -17 -34 -30 -68 -30 -74 0 -13 -26 -65 -73 -147 -21 -35 -37
-70 -37 -77 0 -17 27 -38 51 -40 21 -2 62 32 55 44 -7 10 18 59 66 131 19 30
39 66 42 80 4 14 11 34 16 45 5 11 20 52 34 92 14 40 30 80 35 90 11 21 48
131 62 187 5 22 17 53 26 70 27 52 30 61 38 94 3 18 10 32 15 32 4 0 8 11 8
23 0 27 30 97 42 97 4 0 13 27 19 61 7 33 21 81 33 107 38 88 41 97 40 104 -1
4 5 26 14 50 8 24 22 66 29 93 22 79 51 159 81 224 23 50 32 60 48 56 25 -5
187 -18 234 -19 26 -1 44 9 83 44 27 25 49 52 49 60 0 8 9 29 20 45 11 17 20
42 20 56 0 15 6 39 14 54 l15 28 6 -24 c9 -39 -2 -251 -15 -284 -7 -16 -14
-41 -16 -55 -14 -88 -53 -211 -72 -223 -10 -7 -12 -31 -8 -98 2 -49 1 -103 -4
-119 -5 -16 -10 -49 -11 -72 -1 -24 -4 -46 -6 -51 -3 -4 -6 -34 -8 -66 -1 -32
-10 -74 -18 -92 -8 -19 -21 -52 -27 -74 -20 -65 -59 -143 -90 -178 -21 -25
-31 -48 -35 -88 -4 -30 -8 -68 -10 -86 -2 -18 -16 -72 -31 -120 -15 -48 -29
-101 -31 -117 -2 -16 -10 -37 -18 -46 -11 -12 -17 -46 -20 -106 -3 -49 -6 -96
-7 -104 -3 -33 3 -47 27 -60 14 -7 25 -17 25 -22 0 -32 101 -78 186 -85 69 -6
142 8 220 43 28 12 60 24 70 26 10 2 21 5 24 9 8 8 71 36 110 47 19 6 62 18
95 28 33 10 69 19 80 19 50 4 120 17 137 26 11 6 43 10 71 9 29 -1 57 -1 62 0
21 4 192 0 235 -5 25 -4 65 -17 90 -31 25 -13 57 -29 71 -36 31 -14 66 -85 52
-107 -8 -13 -53 -25 -178 -46 -16 -3 -59 -7 -94 -10 -35 -2 -67 -8 -70 -14 -3
-5 -20 -13 -36 -17 -75 -19 -131 -94 -139 -187 -3 -40 -1 -61 9 -71 12 -11 10
-15 -9 -24 -13 -6 -45 -14 -70 -17 -26 -4 -69 -18 -96 -31 -26 -13 -60 -26
-74 -30 -14 -3 -29 -10 -31 -15 -3 -4 -12 -6 -20 -2 -8 3 -15 1 -15 -5 0 -6
-15 -13 -32 -17 -46 -9 -185 -64 -282 -111 -16 -8 -35 -14 -42 -14 -7 0 -14
-3 -16 -7 -5 -13 -251 -133 -270 -133 -10 0 -18 -4 -18 -9 0 -9 -41 -27 -48
-22 -2 1 -11 -6 -20 -17 -9 -11 -31 -28 -48 -38 -17 -11 -50 -41 -73 -69 -24
-27 -73 -80 -109 -117 -37 -37 -87 -93 -112 -124 -25 -31 -75 -88 -112 -125
-38 -37 -68 -72 -68 -77 0 -15 -72 -86 -107 -107 -18 -11 -33 -22 -33 -26 0
-12 -91 -75 -165 -114 -38 -20 -74 -40 -80 -44 -5 -4 -29 -13 -52 -21 -24 -7
-43 -18 -43 -24 0 -12 -11 -15 -70 -19 -16 -1 -30 -6 -30 -10 0 -7 -61 -38
-80 -42 -27 -5 -122 -64 -150 -94 -171 -181 -184 -201 -155 -244 9 -14 24 -27
33 -29 24 -5 69 24 97 63 14 19 33 45 42 58 30 42 60 71 72 71 6 0 11 4 11 8
0 5 16 17 35 28 19 10 35 22 35 26 0 5 11 8 24 8 14 0 28 5 31 10 4 6 14 10
23 9 18 -3 41 6 138 52 33 16 66 29 73 29 7 0 30 14 51 30 21 17 41 30 45 30
5 0 23 11 41 25 18 14 37 25 42 25 5 0 17 9 28 21 10 12 36 30 57 40 20 11 37
23 37 27 0 4 22 25 50 47 27 22 50 43 50 47 0 5 8 17 18 28 9 11 33 38 52 61
19 22 74 81 123 131 48 50 87 95 87 100 0 16 230 239 240 233 6 -3 10 1 10 9
0 9 6 16 14 16 15 0 112 46 136 66 8 6 36 19 63 29 26 10 47 21 47 25 0 4 21
15 48 25 26 10 49 21 52 25 3 3 32 19 65 34 33 16 80 39 105 51 25 12 70 28
100 35 30 7 79 24 108 37 29 14 58 26 65 27 7 2 23 8 37 14 59 25 198 62 235
62 22 0 49 6 60 13 19 13 65 25 190 48 79 15 137 49 210 124 79 81 105 136
105 221 0 53 -31 139 -60 166 -11 10 -20 24 -20 31 0 19 -61 80 -95 96 -41 18
-115 40 -115 34 0 -3 -7 1 -16 8 -23 19 -145 24 -309 13 -90 -6 -105 -8 -105
-14 0 -4 -6 -7 -12 -7 -52 -4 -129 -14 -160 -22 -21 -5 -38 -6 -38 -2 0 3 11
51 24 106 22 91 28 122 42 235 3 19 7 43 10 52 28 90 24 208 -7 208 -5 0 -9 5
-9 11 0 6 -13 40 -30 76 -16 35 -30 69 -30 74 0 5 -5 9 -10 9 -6 0 -16 12 -23
28 -6 15 -19 33 -28 39 -9 7 -27 32 -39 55 -12 24 -28 47 -36 51 -8 4 -14 13
-14 18 0 33 -123 79 -158 60 -11 -6 -22 -7 -26 -4 -3 3 -6 1 -6 -5 0 -6 -6 -9
-14 -6 -8 3 -13 11 -11 17 2 7 6 57 10 112 6 98 20 170 37 189 4 6 8 22 8 36
0 14 9 43 20 65 11 22 20 56 20 76 0 20 7 56 16 80 8 24 14 62 14 84 -1 22 -1
45 0 50 3 19 -1 155 -6 182 -7 43 -35 113 -44 113 -5 0 -17 16 -26 36 -10 20
-26 39 -36 42 -10 2 -18 8 -18 13 0 5 -9 9 -20 9 -11 0 -20 3 -20 8 0 17 -108
10 -144 -9z m128 -120 c30 -26 33 -39 10 -39 -23 0 -49 -30 -50 -59 -2 -73 -6
-89 -26 -116 -60 -76 -73 -80 -194 -60 -77 13 -76 11 -45 58 16 23 32 53 36
67 10 32 52 83 76 92 11 4 19 13 19 20 0 8 16 22 35 32 19 11 35 23 35 27 0
17 79 0 104 -22z m207 -1120 c19 -22 42 -49 51 -59 64 -71 94 -133 90 -183 -1
-11 2 -16 10 -11 7 5 8 3 4 -5 -9 -14 12 -71 25 -71 5 0 9 -5 9 -11 0 -6 6
-17 14 -25 16 -15 13 -55 -7 -129 -13 -46 -18 -71 -20 -102 -1 -13 -5 -23 -8
-23 -4 0 -6 -17 -7 -37 0 -21 -8 -56 -18 -78 -10 -22 -16 -48 -15 -58 1 -9 -7
-34 -17 -55 -11 -20 -23 -44 -25 -53 -3 -10 -23 -22 -44 -29 -21 -6 -66 -25
-101 -41 -34 -16 -75 -32 -90 -35 -15 -4 -36 -13 -47 -20 -11 -8 -28 -14 -38
-14 -18 0 -17 1 2 25 18 23 19 37 15 146 -4 104 -2 125 16 164 11 24 20 60 20
80 0 33 4 37 48 56 93 42 97 45 97 80 0 26 -6 36 -32 50 -31 18 -31 17 -60
-11 -15 -16 -32 -30 -36 -30 -4 0 -20 -9 -35 -20 -16 -12 -51 -22 -88 -26 -69
-7 -65 -14 -50 81 4 28 19 67 32 87 13 21 24 44 24 52 0 8 5 18 10 21 11 7 50
88 50 104 0 6 5 11 11 11 6 0 9 6 6 13 -2 6 1 26 8 42 6 17 17 54 24 82 12 49
15 52 37 47 15 -4 24 -2 24 6 0 6 3 9 8 7 4 -3 16 -1 27 4 34 13 41 10 76 -32z
m-1004 -121 c-3 -8 -6 -5 -6 6 -1 11 2 17 5 13 3 -3 4 -12 1 -19z m697 -512
c20 8 20 -4 1 -50 -10 -25 -16 -79 -18 -176 -2 -140 -2 -141 23 -160 l25 -20
-35 6 c-57 9 -90 25 -90 43 0 9 -6 23 -12 30 -7 6 -13 15 -14 19 0 4 -4 15 -9
25 -10 25 1 114 18 141 8 11 20 46 28 76 16 66 28 81 51 69 9 -5 24 -6 32 -3z
m1330 -614 c-4 -18 -10 -32 -15 -32 -5 0 -9 -4 -9 -9 0 -34 -126 -122 -180
-127 -73 -7 -110 -13 -119 -18 -6 -4 -30 -9 -53 -11 -42 -5 -43 -4 -45 28 -2
17 -3 37 -3 42 -2 19 6 43 19 58 26 32 171 59 171 33 0 -6 5 -5 12 2 7 7 24
12 38 12 14 0 30 4 36 8 5 5 29 14 54 21 25 7 56 16 70 20 32 10 31 10 24 -27z"/>
<path d="M1610 4486 c-14 -8 -38 -20 -55 -27 -27 -12 -65 -36 -147 -91 -15
-10 -32 -18 -39 -18 -6 0 -23 -9 -39 -20 -15 -11 -30 -17 -33 -13 -4 3 -11 -7
-17 -23 -22 -56 14 -114 69 -114 16 0 32 -4 35 -8 3 -5 23 -7 45 -6 23 1 41
-2 41 -6 0 -4 15 -11 33 -14 19 -3 42 -13 53 -21 37 -29 101 -53 129 -47 19 3
31 15 41 38 21 51 18 71 -13 80 -27 7 -27 7 12 15 35 8 190 6 470 -6 72 -3 93
-1 107 12 35 31 13 83 -37 89 -16 1 -50 5 -75 8 -25 4 -94 9 -155 12 -98 5
-157 6 -355 0 -30 0 -57 3 -60 7 -4 6 59 48 77 52 1 0 4 14 7 31 5 24 0 37
-19 58 -27 29 -39 31 -75 12z"/>
<path d="M4072 4420 c-44 -27 -41 -65 6 -96 41 -28 30 -32 -93 -33 -49 0 -108
-1 -130 -1 -22 0 -110 1 -195 3 -159 4 -209 -4 -211 -33 0 -8 -2 -27 -4 -41
-4 -33 22 -46 85 -42 42 3 164 5 310 5 36 0 97 -1 135 -1 134 0 124 3 118 -36
-11 -69 62 -92 142 -45 17 10 53 26 80 35 28 10 55 22 60 26 6 4 33 10 60 14
83 13 107 44 83 108 -9 22 -17 27 -44 27 -19 0 -34 4 -34 8 0 7 -84 54 -100
57 -3 0 -10 3 -15 7 -6 3 -30 9 -55 13 -24 4 -53 12 -65 17 -11 6 -31 12 -45
13 -14 1 -32 5 -40 8 -8 4 -30 -2 -48 -13z"/>
</g>
</svg>
