<?xml version="1.0" standalone="no"?>
<!DOCTYPE svg PUBLIC "-//W3C//DTD SVG 20010904//EN"
 "http://www.w3.org/TR/2001/REC-SVG-20010904/DTD/svg10.dtd">
<svg version="1.0" xmlns="http://www.w3.org/2000/svg"
 width="507.000000pt" height="447.000000pt" viewBox="0 0 507.000000 447.000000"
 preserveAspectRatio="xMidYMid meet">
<metadata>
Created by potrace 1.16, written by Peter Selinger 2001-2019
</metadata>
<g transform="translate(0.000000,447.000000) scale(0.100000,-0.100000)"
fill="#000000" stroke="none">
<path d="M2635 4419 c-11 -4 -39 -8 -62 -8 -23 -1 -53 -5 -66 -10 -14 -6 -54
-13 -89 -16 -103 -10 -194 -25 -213 -36 -5 -4 -38 -12 -72 -20 -35 -7 -63 -17
-63 -21 0 -4 -7 -8 -15 -8 -8 0 -29 -9 -46 -19 -17 -11 -37 -17 -44 -15 -6 3
-17 -2 -24 -10 -7 -8 -29 -20 -49 -27 -20 -7 -50 -22 -65 -35 -16 -13 -35 -24
-42 -24 -8 0 -16 -9 -20 -19 -3 -10 -18 -22 -32 -26 -30 -7 -54 -28 -227 -200
-68 -67 -143 -153 -171 -195 -27 -41 -58 -84 -68 -95 -10 -11 -26 -36 -35 -55
-9 -19 -18 -37 -21 -40 -11 -9 -41 -68 -41 -79 0 -5 -11 -27 -25 -47 -14 -21
-23 -44 -21 -51 3 -7 2 -13 -2 -13 -7 0 -35 -56 -38 -75 0 -5 -2 -17 -3 -25
-1 -10 -14 -2 -38 23 -41 44 -210 130 -258 131 -16 1 -33 6 -37 11 -5 6 -8 6
-8 -1 0 -6 -11 -11 -24 -11 -51 0 -133 -63 -165 -126 -8 -15 -18 -27 -23 -27
-4 0 -8 -9 -8 -20 0 -11 -4 -20 -9 -20 -5 0 -12 -16 -15 -35 -4 -19 -11 -35
-15 -35 -5 0 -14 -24 -21 -52 -6 -29 -15 -64 -20 -78 -5 -14 -12 -45 -15 -70
-3 -25 -7 -52 -8 -60 -6 -43 24 -258 43 -305 4 -11 14 -40 21 -65 8 -25 42
-85 77 -135 34 -49 68 -102 75 -117 6 -16 15 -28 19 -28 4 0 8 -6 8 -14 0 -8
6 -21 13 -28 7 -7 24 -29 37 -48 14 -19 38 -50 55 -68 16 -19 42 -52 57 -74
15 -22 39 -51 53 -64 16 -15 29 -42 36 -76 6 -29 20 -72 31 -96 11 -23 22 -60
25 -82 3 -22 10 -40 15 -40 5 0 8 -6 6 -12 -1 -7 5 -26 14 -43 8 -16 18 -42
21 -56 7 -26 6 -26 -52 -27 -32 0 -75 -8 -94 -16 -20 -8 -60 -16 -89 -17 -29
-1 -64 -6 -78 -12 -14 -5 -42 -11 -63 -13 -21 -2 -59 -11 -84 -19 -25 -9 -66
-19 -90 -22 -53 -7 -73 -36 -57 -81 5 -15 12 -25 14 -23 3 2 15 -1 28 -8 12
-6 22 -8 22 -4 0 11 103 41 165 48 28 3 64 10 80 15 17 5 53 12 80 14 28 3 62
9 77 15 14 5 39 9 54 9 16 0 63 5 104 11 170 26 652 33 666 10 3 -5 10 -7 15
-4 5 4 14 3 21 -1 7 -4 21 -9 32 -10 12 -1 53 -5 91 -9 39 -3 95 -12 125 -20
30 -7 75 -16 100 -20 25 -4 50 -12 57 -17 7 -5 17 -6 24 -2 6 4 21 8 33 9 34
4 36 5 34 12 -1 5 3 18 10 30 7 12 8 24 3 27 -20 13 1 71 46 127 47 58 49 59
98 59 28 0 86 3 130 5 44 3 179 7 300 10 121 2 244 6 274 9 29 3 58 3 64 -1 5
-3 46 -5 91 -3 169 6 206 6 206 -2 0 -4 6 -8 14 -8 16 0 41 -88 39 -137 -2
-38 -42 -78 -87 -89 -16 -3 -45 -13 -65 -22 -20 -9 -38 -16 -41 -17 -3 -1 -12
-5 -21 -9 -9 -4 -36 -8 -60 -9 -24 -1 -46 -5 -49 -8 -10 -12 -186 -32 -290
-34 -58 -1 -150 -5 -205 -10 -55 -5 -110 -7 -122 -6 -13 1 -47 -2 -75 -8 -29
-6 -81 -13 -115 -15 -74 -5 -88 -12 -112 -56 l-18 -34 -134 0 c-165 -1 -548
13 -621 22 -105 14 -373 4 -513 -19 -146 -24 -167 -31 -255 -74 -47 -23 -123
-55 -170 -70 -47 -16 -112 -41 -146 -57 -33 -15 -65 -28 -72 -28 -19 0 -52
-42 -52 -68 0 -38 25 -55 70 -49 22 3 47 12 55 21 9 9 27 19 41 22 13 3 24 10
24 15 0 5 3 8 7 7 5 0 31 9 58 21 28 12 73 32 100 43 28 12 73 32 102 45 28
13 61 23 72 23 12 0 21 4 21 8 0 5 6 9 13 9 6 0 32 6 57 12 41 11 239 41 267
41 7 0 20 -16 28 -36 8 -21 23 -42 32 -49 9 -7 17 -22 18 -33 1 -12 8 -29 17
-39 8 -10 21 -35 28 -55 6 -21 15 -38 20 -38 5 0 12 -10 15 -21 4 -12 21 -36
39 -53 34 -35 44 -49 113 -151 50 -75 151 -185 169 -185 6 0 18 -7 25 -17 8
-9 30 -23 49 -32 19 -9 50 -27 68 -41 32 -24 82 -41 172 -60 41 -9 68 -19 112
-41 9 -4 27 -6 39 -4 12 3 27 1 33 -4 9 -8 264 -24 350 -22 16 0 34 -3 40 -8
6 -5 22 -7 36 -6 14 1 33 -2 43 -7 21 -11 45 -17 100 -25 20 -3 37 -10 37 -14
0 -5 24 -9 53 -8 28 0 75 -4 102 -10 54 -11 233 -16 330 -8 33 2 84 12 114 21
30 9 66 16 81 16 14 0 34 6 45 14 11 7 46 16 78 19 33 3 86 19 124 36 36 17
72 31 79 31 15 0 106 40 114 50 3 3 23 19 45 36 22 16 45 34 50 40 6 5 28 23
49 39 64 46 141 127 172 179 51 85 103 180 120 218 9 21 20 38 26 38 5 0 6 5
3 10 -4 6 5 35 19 66 14 30 28 71 32 92 4 20 10 42 14 47 8 11 20 56 26 100 3
17 9 41 14 55 6 14 11 34 13 45 2 11 7 27 10 35 4 8 8 38 11 65 10 108 19 170
26 180 4 6 11 33 14 60 9 63 15 95 26 120 19 46 30 135 28 215 -3 78 -1 84 18
90 50 13 89 61 162 199 75 144 101 199 120 256 6 17 22 61 36 99 14 38 28 85
31 104 3 19 11 65 19 101 7 36 13 122 12 191 -1 105 -4 132 -22 170 -12 25
-25 56 -29 70 -13 46 -49 100 -65 100 -9 0 -22 6 -28 12 -37 37 -219 23 -296
-23 -44 -25 -49 -22 -74 47 -9 27 -22 56 -27 64 -25 39 -65 125 -65 139 0 9
-25 48 -55 86 -30 39 -59 80 -65 93 -5 12 -14 22 -20 22 -5 0 -10 6 -10 13 0
7 -16 31 -35 53 -19 21 -35 42 -35 46 0 5 -4 7 -8 5 -9 -2 -37 22 -105 89 -23
23 -78 66 -122 95 -44 30 -82 56 -85 59 -6 7 -100 53 -165 81 -27 11 -70 31
-95 44 -25 12 -76 33 -115 45 -38 13 -79 29 -90 36 -11 7 -45 15 -75 17 -30 2
-86 13 -125 25 -89 27 -196 50 -260 57 -90 10 -250 13 -270 4z m270 -117 c17
-1 45 -7 62 -13 18 -6 43 -9 55 -8 13 1 36 -3 51 -10 16 -6 50 -16 75 -22 26
-6 55 -15 64 -20 10 -5 34 -9 53 -9 47 0 138 -32 262 -91 57 -27 109 -49 118
-49 8 0 15 -4 15 -10 0 -5 3 -9 8 -8 4 0 16 -3 27 -7 28 -12 162 -102 170
-115 3 -5 14 -10 22 -10 9 0 40 -24 67 -53 28 -30 64 -63 80 -75 16 -12 52
-52 80 -89 28 -38 71 -92 94 -122 24 -30 46 -67 49 -83 3 -15 9 -28 14 -28 5
0 9 -8 9 -19 0 -10 7 -24 15 -31 8 -7 15 -20 15 -29 0 -9 5 -22 12 -29 7 -7 8
-12 4 -12 -5 0 -3 -6 3 -14 6 -8 25 -42 42 -77 30 -62 45 -156 74 -469 10
-108 14 -141 20 -150 3 -4 7 -68 10 -141 3 -74 7 -163 9 -199 3 -36 1 -114 -4
-175 -5 -60 -11 -159 -13 -220 -2 -60 -11 -139 -20 -175 -31 -128 -68 -303
-73 -349 -3 -25 -7 -59 -8 -76 -2 -16 -11 -52 -19 -80 -9 -27 -30 -99 -48
-160 -17 -60 -38 -121 -45 -135 -7 -14 -24 -50 -38 -80 -14 -30 -34 -71 -44
-90 -11 -19 -25 -46 -31 -60 -7 -14 -18 -36 -25 -49 -21 -36 -139 -161 -152
-161 -6 0 -22 -13 -35 -29 -13 -15 -35 -34 -48 -41 -14 -7 -34 -21 -45 -32
-27 -25 -66 -46 -97 -51 -13 -2 -46 -14 -73 -26 -52 -23 -127 -43 -135 -36 -2
3 -10 0 -16 -5 -15 -13 -106 -40 -115 -35 -4 2 -31 -3 -61 -11 -65 -18 -261
-25 -344 -13 -33 4 -90 10 -127 13 -37 3 -72 7 -78 11 -5 3 -38 11 -71 16 -34
5 -71 15 -83 22 -25 14 -23 14 -167 22 -126 6 -221 13 -229 16 -3 1 -18 2 -35
3 -42 3 -128 17 -140 24 -5 3 -19 7 -31 8 -12 1 -51 14 -86 28 -36 14 -69 26
-75 26 -6 0 -16 7 -23 15 -7 9 -36 27 -64 40 -68 33 -200 163 -212 210 -3 13
-12 26 -19 29 -8 3 -21 19 -31 37 -9 18 -29 43 -45 56 -16 14 -27 29 -23 34 3
5 0 9 -5 9 -6 0 -11 7 -11 15 0 8 -4 15 -10 15 -5 0 -10 6 -10 14 0 8 -5 16
-11 18 -5 2 -11 11 -13 20 -1 10 -5 21 -9 24 -4 4 -7 18 -7 30 0 13 -11 34
-25 48 -35 35 -31 45 18 41 23 -2 68 -4 99 -4 54 -1 58 -3 73 -32 9 -17 14
-33 11 -36 -3 -4 1 -11 10 -17 8 -6 16 -18 18 -26 5 -31 18 -60 26 -60 5 0 12
-9 15 -20 6 -20 50 -70 61 -70 3 0 27 -18 53 -40 26 -22 52 -40 58 -40 7 0 15
-9 18 -20 3 -11 12 -20 20 -20 7 0 20 -6 27 -13 19 -18 91 -52 106 -49 6 2 12
-4 12 -13 0 -8 5 -15 11 -15 7 0 17 -7 23 -15 11 -15 95 -39 181 -51 22 -3 57
-9 79 -14 21 -5 45 -6 52 -3 8 3 20 1 27 -5 7 -6 63 -8 137 -6 356 9 600 15
640 14 148 -1 170 1 216 21 38 16 222 74 299 93 48 12 65 19 65 26 0 4 22 16
49 26 66 23 213 153 243 215 55 113 98 212 98 226 0 9 11 40 25 68 13 29 29
72 35 96 6 24 13 52 15 61 27 100 35 160 40 324 5 120 3 169 -6 180 -6 8 -9
23 -6 34 3 11 1 23 -4 26 -5 3 -9 17 -9 32 0 31 -85 204 -121 247 -22 27 -118
130 -136 147 -49 45 -260 188 -277 188 -5 0 -20 9 -36 20 -15 11 -30 17 -34
13 -3 -3 -6 -1 -6 5 0 6 -15 13 -32 17 -18 3 -62 16 -98 27 -56 17 -124 35
-205 52 -11 3 -39 7 -63 10 -24 3 -48 8 -53 12 -5 3 -31 5 -57 5 -26 0 -71 7
-101 15 -29 8 -74 15 -100 14 -25 0 -89 -2 -141 -3 -52 -1 -98 2 -102 7 -4 6
-12 5 -20 -2 -8 -6 -31 -11 -50 -10 -21 1 -43 -5 -52 -15 -18 -17 -132 -44
-221 -51 -22 -2 -75 -7 -119 -11 -62 -6 -80 -5 -87 6 -6 9 -12 10 -16 4 -5 -5
-33 -18 -63 -28 -78 -25 -200 -89 -200 -104 0 -7 -9 -13 -20 -13 -28 0 -88
-44 -124 -90 -16 -22 -36 -40 -43 -40 -7 0 -13 -3 -13 -7 0 -5 -19 -28 -41
-52 -22 -24 -43 -57 -46 -72 -3 -16 -11 -29 -18 -29 -6 0 -19 -17 -28 -37 -19
-46 -49 -97 -59 -101 -5 -2 -8 -19 -8 -37 0 -19 -4 -36 -9 -39 -8 -5 -11 -17
-26 -101 -8 -45 16 -246 34 -280 8 -16 15 -32 16 -35 0 -3 4 -10 8 -17 10 -16
-15 -22 -109 -27 -43 -2 -98 -7 -121 -11 l-42 -7 -11 43 c-6 24 -22 67 -35 96
-29 61 -80 200 -96 263 -27 106 -27 465 -1 553 6 17 13 64 16 102 4 39 8 84
10 100 2 17 7 59 11 95 13 124 57 287 106 398 10 23 28 61 38 85 11 23 22 53
26 67 4 14 13 32 21 40 13 16 45 96 41 105 -1 2 6 14 15 25 10 11 18 22 18 24
0 9 109 168 150 218 24 29 73 83 109 119 36 36 76 77 87 90 32 35 62 58 68 52
3 -4 6 -1 6 5 0 7 7 12 15 12 8 0 15 4 15 8 0 13 91 77 165 115 158 82 266
121 397 142 53 9 83 19 90 28 4 7 11 7 20 0 12 -11 33 -10 168 1 30 3 98 8
150 12 52 3 97 8 99 10 2 2 9 0 15 -4 6 -5 25 -9 41 -10z m-2096 -1009 c3 -5
35 -21 71 -36 40 -17 74 -39 90 -59 14 -18 33 -40 43 -50 14 -15 15 -22 6 -40
-15 -28 -47 -154 -59 -233 -5 -33 -11 -69 -13 -80 -11 -51 -17 -97 -32 -265
-3 -25 -9 -68 -15 -97 -6 -28 -12 -115 -13 -192 -1 -78 -5 -141 -9 -141 -5 0
-8 6 -8 13 0 6 -16 29 -35 50 -19 21 -35 42 -35 46 0 4 -11 20 -25 35 -14 15
-25 31 -25 37 0 5 -4 9 -8 9 -5 0 -15 12 -23 28 -7 15 -38 65 -69 112 -63 98
-81 133 -86 174 -2 16 -8 34 -13 40 -13 16 -24 129 -22 225 1 77 8 114 32 179
5 13 9 32 9 42 0 11 5 20 11 20 5 0 21 26 35 57 35 78 90 128 145 131 23 2 45
-1 48 -5z m3984 -78 c9 -4 17 -13 17 -20 0 -7 4 -15 8 -17 4 -1 18 -30 30 -64
31 -87 30 -263 -2 -384 -3 -8 -5 -15 -6 -15 -1 0 -3 -15 -6 -32 -2 -18 -15
-61 -29 -95 -14 -34 -25 -67 -25 -73 0 -6 -8 -20 -17 -31 -10 -10 -20 -30 -21
-43 -5 -31 -139 -297 -147 -289 -2 2 -5 112 -8 246 -2 133 -7 246 -11 249 -3
4 -6 25 -6 47 -1 23 -5 60 -9 84 -6 29 -5 42 3 42 7 0 8 3 1 8 -6 4 -11 21
-12 37 0 17 -3 46 -6 65 -6 33 -17 134 -21 191 -2 14 -5 30 -9 35 -7 12 83 58
138 70 39 9 102 4 138 -11z m-1968 -637 c21 -62 20 -222 -2 -258 l-17 -29
-115 4 c-64 1 -119 3 -123 4 -12 2 -26 72 -32 167 -5 74 -3 94 9 104 9 7 57
14 113 17 53 3 99 7 101 9 2 2 17 4 32 4 19 0 29 -7 34 -22z m171 2 c108 -17
105 -16 98 -44 -3 -13 -1 -27 5 -30 25 -16 7 -121 -32 -179 -17 -27 -57 -38
-57 -16 0 6 -6 9 -14 6 -16 -7 -66 39 -66 59 0 8 -6 14 -14 14 -9 0 -14 16
-15 58 -1 31 -3 78 -4 105 -1 31 2 46 9 43 6 -2 46 -10 90 -16z m-550 -28 c22
-14 35 -163 14 -170 -5 -2 -10 -12 -10 -22 0 -32 -28 -44 -93 -41 -34 1 -87 4
-117 5 -60 2 -113 25 -130 55 -12 24 -13 101 -1 120 5 7 15 11 22 9 8 -3 21
-2 29 2 8 5 51 11 95 14 80 6 151 19 162 30 8 8 16 7 29 -2z m864 -32 c10 -5
29 -10 42 -10 13 0 28 -4 34 -9 5 -5 25 -13 44 -18 34 -9 35 -11 33 -54 -3
-66 -18 -136 -32 -153 -14 -16 -21 -15 -96 19 -65 30 -86 37 -108 40 -11 1
-23 8 -27 15 -10 16 -4 74 11 112 6 16 9 39 7 53 -5 24 -3 25 34 20 22 -3 48
-9 58 -15z m-1280 -96 c0 -32 -5 -45 -22 -57 -13 -8 -40 -31 -62 -51 -21 -20
-41 -34 -45 -31 -4 2 -30 -3 -57 -11 -88 -27 -92 -27 -109 6 -9 16 -12 30 -7
30 4 0 15 13 24 28 9 15 29 34 45 42 15 8 34 21 42 28 21 20 93 56 136 67 48
12 55 6 55 -51z m1537 15 c6 -6 17 -11 25 -13 8 -1 46 -22 84 -46 38 -25 74
-47 79 -49 33 -13 16 -46 -44 -83 -71 -44 -129 -26 -155 48 -9 26 -13 50 -11
55 3 4 1 10 -3 13 -5 3 -8 16 -7 28 1 13 3 31 4 41 1 19 12 22 28 6z m-1454
-166 c37 -20 70 -29 117 -31 36 -2 86 -6 112 -9 31 -3 65 1 99 12 44 15 54 16
63 4 16 -20 77 -40 123 -39 21 0 70 -2 108 -5 85 -5 127 11 145 56 13 30 14
30 27 13 8 -11 17 -19 21 -20 4 0 24 -8 45 -18 72 -32 91 -31 120 4 15 17 31
39 37 48 9 15 11 16 22 1 17 -20 52 -39 74 -39 10 0 36 -9 58 -19 75 -36 145
-61 159 -55 7 2 21 18 31 34 21 37 32 38 40 5 8 -32 76 -68 134 -70 23 -1 42
1 42 4 0 4 17 13 37 20 20 8 47 24 60 37 50 50 58 49 116 -8 88 -89 141 -172
177 -278 19 -57 22 -85 22 -235 -1 -179 -6 -209 -63 -405 -38 -131 -97 -280
-110 -280 -4 0 -17 15 -28 34 -14 22 -31 36 -52 40 -78 15 -188 -4 -197 -36
-2 -10 -8 -18 -12 -18 -5 0 -11 -19 -15 -41 l-7 -42 -26 34 c-55 72 -99 108
-122 102 -12 -3 -24 -13 -27 -22 -7 -20 -52 -61 -68 -61 -16 0 -57 -58 -65
-94 -7 -29 -8 -27 -15 22 -4 29 -12 55 -16 58 -5 3 -9 12 -9 20 0 9 -6 21 -12
27 -16 15 -144 21 -153 7 -3 -5 -21 -10 -40 -10 -19 0 -37 -5 -40 -10 -3 -6
-14 -10 -23 -10 -11 0 -18 -8 -19 -21 -1 -12 -6 -26 -11 -31 -4 -4 -5 -33 -2
-63 7 -67 -6 -74 -16 -7 -15 105 -33 124 -119 126 -35 1 -67 4 -70 8 -4 3 -21
2 -38 -4 -31 -9 -70 -18 -94 -20 -6 -1 -14 -12 -18 -25 -3 -12 -10 -23 -15
-23 -6 0 -10 -10 -10 -22 0 -20 -1 -20 -19 -4 -10 9 -28 18 -40 21 -11 2 -40
15 -62 29 -49 28 -69 24 -132 -31 -20 -18 -39 -33 -41 -33 -2 0 -20 15 -40 33
-62 57 -80 63 -124 43 -20 -10 -47 -20 -60 -22 -50 -9 -146 -73 -167 -110 -12
-21 -26 -39 -32 -41 -13 -5 -133 93 -133 107 0 6 -6 10 -12 10 -7 1 -23 22
-35 48 -40 86 -48 79 79 76 300 -7 463 -15 466 -23 2 -5 18 -5 37 -1 19 4 36
5 39 3 3 -3 11 7 18 23 7 16 18 35 25 42 7 7 13 17 13 21 0 25 198 46 535 56
61 2 139 9 175 15 36 6 81 13 100 15 59 5 184 37 235 59 17 8 49 19 73 25 27
8 56 26 80 51 20 22 43 40 49 40 18 0 45 57 41 88 -2 15 -10 35 -19 45 -9 10
-20 43 -24 73 -3 29 -10 56 -15 59 -5 3 -14 23 -20 43 -8 31 -18 41 -50 56
-48 21 -47 30 8 146 49 103 58 171 24 189 -28 15 -143 28 -200 24 -30 -2 -79
1 -110 8 -64 14 -90 18 -179 25 -35 3 -63 10 -63 14 0 17 -46 16 -91 -1 -34
-13 -65 -16 -120 -13 -102 6 -111 6 -118 -3 -16 -23 -56 -29 -83 -14 -23 14
-31 14 -60 2 -35 -15 -166 -21 -208 -11 -28 7 -76 -13 -89 -38 -10 -19 -8 -92
2 -109 4 -6 9 -28 13 -49 3 -20 12 -47 20 -59 8 -12 14 -32 13 -46 0 -13 2
-40 6 -60 6 -33 5 -37 -17 -42 -15 -4 -29 -19 -38 -42 -7 -19 -17 -35 -21 -35
-4 0 -12 -12 -18 -27 -6 -16 -16 -37 -23 -48 -7 -11 -22 -35 -33 -52 -21 -34
-57 -43 -93 -24 -22 11 -78 20 -167 26 -38 3 -88 10 -110 15 -49 12 -157 24
-206 23 -30 -1 -36 2 -32 17 3 9 -7 40 -21 68 -14 28 -26 58 -26 67 0 8 -4 15
-10 15 -6 0 -8 40 -6 103 2 78 9 119 29 177 14 41 31 76 36 78 6 2 11 12 11
23 0 11 14 33 30 49 17 16 30 34 30 39 0 5 13 24 30 42 26 29 30 31 36 14 15
-37 39 -52 89 -52 27 0 59 6 70 13 12 8 24 12 27 9 9 -9 111 40 132 64 11 11
25 21 33 21 7 0 13 5 13 10 0 16 17 12 73 -17z m891 -209 c21 -13 23 -19 15
-46 -5 -18 -12 -91 -15 -164 -7 -130 -7 -132 -31 -130 -31 1 -35 20 -28 108 4
40 8 105 10 143 3 65 11 105 21 105 3 0 15 -7 28 -16z m-234 -31 c3 -3 6 -69
6 -148 1 -79 5 -148 9 -155 5 -8 -13 -11 -66 -10 -41 1 -77 1 -81 1 -13 -1
-23 4 -21 10 1 3 -7 35 -17 70 -26 84 -28 234 -4 225 9 -3 22 -6 29 -6 9 0 16
-16 19 -42 28 -229 33 -248 61 -248 21 0 23 20 11 120 -7 59 -8 115 -3 148 8
48 11 52 30 46 12 -3 24 -9 27 -11z m121 -45 c1 -35 0 -76 -2 -93 -2 -16 -3
-63 -2 -102 1 -66 0 -73 -17 -73 -36 0 -43 35 -36 179 5 87 12 138 19 143 29
19 37 8 38 -54z m262 35 c4 -2 5 -14 1 -27 -3 -12 -7 -47 -9 -77 -8 -92 -23
-168 -38 -186 -5 -7 -18 -13 -29 -13 -18 0 -19 6 -17 88 2 48 9 112 17 142 8
30 14 63 15 72 1 13 7 16 27 11 14 -3 28 -8 33 -10z m-780 -9 c21 5 23 2 24
-37 2 -85 7 -127 15 -127 4 0 7 -3 6 -7 0 -5 1 -15 5 -23 37 -97 35 -110 -13
-110 -38 0 -39 1 -45 38 -9 54 -36 174 -45 197 -18 45 -19 57 -7 70 8 9 16 10
24 3 7 -6 23 -8 36 -4z m108 -2 c-7 -2 -18 1 -23 6 -8 8 -4 9 13 5 13 -4 18
-8 10 -11z m33 -68 c2 -38 13 -94 24 -124 31 -85 36 -103 23 -96 -6 4 -11 2
-11 -3 0 -6 -11 -11 -25 -11 -21 0 -25 5 -25 33 0 17 -5 50 -10 72 -21 86 -22
124 -6 147 9 12 16 31 16 42 0 47 10 3 14 -60z m763 54 c-4 -13 -9 -54 -12
-93 -4 -38 -13 -94 -21 -122 -12 -42 -20 -54 -40 -59 -14 -4 -27 -5 -29 -2 -2
2 1 24 7 48 11 48 14 65 22 119 12 78 36 131 60 131 14 0 17 -5 13 -22z m115
1 c-2 -8 -5 -30 -7 -49 -1 -19 -7 -46 -12 -60 -20 -49 -33 -97 -33 -122 0 -25
23 -44 40 -33 13 8 45 101 66 193 17 72 22 82 39 80 25 -4 24 -44 -1 -83 -9
-15 -28 -59 -41 -98 -31 -92 -49 -109 -104 -101 -40 7 -41 7 -36 43 10 69 17
106 24 126 4 11 6 26 5 32 -2 7 5 24 13 37 9 14 14 29 11 35 -7 10 13 21 29
16 6 -1 8 -9 7 -16z m463 -1035 c31 -34 31 -45 0 -83 -26 -30 -146 -111 -165
-111 -12 0 -13 5 -10 100 3 109 9 116 108 119 35 1 48 -4 67 -25z m-305 -63
c0 -6 3 -11 8 -11 16 0 56 -122 48 -148 -5 -16 -51 -35 -111 -46 -11 -2 -47
-13 -80 -25 -32 -12 -63 -21 -67 -21 -10 0 2 112 14 127 5 6 8 22 7 35 -5 60
1 74 41 97 22 12 48 33 57 45 l18 23 32 -32 c18 -18 33 -38 33 -44z m-330 27
c5 -13 18 -84 30 -158 12 -74 24 -138 26 -141 1 -3 -59 -5 -134 -5 l-137 1 1
30 c1 36 12 94 21 109 4 6 7 40 8 76 1 76 7 90 40 90 13 0 27 5 30 10 3 6 29
10 56 10 42 0 51 -3 59 -22z m-349 -17 c4 -3 12 -28 18 -56 7 -27 17 -70 23
-95 5 -25 9 -56 8 -70 -1 -14 -3 -36 -4 -50 l-2 -25 -135 0 -135 0 -3 90 c-1
49 -4 101 -5 115 -3 37 29 83 66 96 33 11 157 7 169 -5z m-676 -19 c56 -47 71
-123 40 -198 -8 -20 -12 -40 -9 -45 7 -12 -21 -11 -90 3 -32 6 -60 17 -63 25
-3 7 -11 13 -17 13 -18 0 -66 24 -66 33 0 4 -7 7 -15 7 -36 0 -7 83 36 100 15
7 30 18 32 25 3 7 21 15 39 19 19 3 43 13 54 21 25 19 35 18 59 -3z m311 -29
c20 -13 30 -45 38 -121 1 -13 7 -27 12 -30 5 -4 10 -28 12 -53 l3 -46 -53 -6
c-29 -3 -73 -2 -98 2 -25 4 -57 6 -71 6 -24 -2 -27 2 -32 39 -3 23 -1 70 5
106 11 63 14 68 61 102 52 39 62 39 123 1z"/>
</g>
</svg>
