<?xml version="1.0" standalone="no"?>
<!DOCTYPE svg PUBLIC "-//W3C//DTD SVG 20010904//EN"
 "http://www.w3.org/TR/2001/REC-SVG-20010904/DTD/svg10.dtd">
<svg version="1.0" xmlns="http://www.w3.org/2000/svg"
 width="401.000000pt" height="447.000000pt" viewBox="0 0 401.000000 447.000000"
 preserveAspectRatio="xMidYMid meet">
<metadata>
Created by potrace 1.16, written by Peter Selinger 2001-2019
</metadata>
<g transform="translate(0.000000,447.000000) scale(0.100000,-0.100000)"
fill="#000000" stroke="none">
<path d="M3490 4112 c-45 -6 -170 -45 -170 -53 0 -4 -9 -11 -21 -14 -29 -10
-193 -176 -235 -239 -53 -80 -114 -265 -114 -346 0 -125 29 -234 81 -308 9
-13 38 -37 65 -54 27 -17 52 -35 55 -40 3 -5 10 -8 15 -6 26 10 4 -100 -44
-210 -15 -36 -18 -36 -97 -17 -11 3 -49 10 -85 16 -36 6 -74 19 -85 29 -16 15
-32 17 -90 14 -38 -3 -83 -8 -100 -13 -32 -8 -159 -5 -215 5 -19 4 -46 6 -60
5 -30 -2 -97 45 -106 75 -3 11 -20 29 -37 39 -18 10 -45 30 -62 46 -16 15 -64
53 -105 83 -41 30 -79 59 -85 63 -5 5 -37 29 -70 55 -33 25 -73 60 -90 78 -16
17 -42 38 -56 45 -23 13 -29 12 -48 -6 -11 -11 -20 -28 -18 -37 3 -19 95 -107
144 -139 35 -22 40 -26 83 -60 19 -15 42 -32 51 -38 38 -24 126 -95 146 -119
13 -14 29 -26 37 -26 7 0 21 -10 29 -22 8 -13 38 -47 65 -77 l51 -54 210 -1
c133 -1 211 -5 212 -11 2 -13 2 -9 -5 -87 -4 -37 -13 -86 -21 -108 -8 -22 -14
-43 -14 -45 0 -18 -22 -33 -64 -42 l-49 -11 -46 45 c-41 39 -152 113 -169 113
-9 0 -117 74 -121 83 -2 4 -10 7 -17 7 -8 0 -54 26 -102 57 -108 70 -108 70
-150 112 -18 18 -50 41 -71 51 l-37 19 -23 -26 c-33 -39 -19 -70 48 -105 50
-25 108 -70 120 -93 7 -14 18 -21 27 -18 7 3 21 -1 31 -9 19 -16 98 -63 155
-91 20 -11 37 -22 37 -26 0 -3 35 -26 79 -50 43 -24 106 -70 140 -102 35 -32
71 -59 80 -59 10 0 35 7 54 15 20 8 39 15 42 15 13 0 -1 -65 -32 -150 -3 -8
-7 -22 -8 -30 -1 -8 -9 -40 -17 -70 -9 -30 -19 -73 -23 -95 -4 -22 -11 -45
-16 -51 -5 -7 -9 -16 -8 -20 1 -5 1 -11 -1 -14 -1 -3 -3 -16 -6 -30 -14 -84
-60 -247 -68 -243 -5 4 -6 -1 -3 -12 4 -9 2 -24 -4 -31 -6 -7 -8 -18 -5 -23 4
-5 -2 -36 -14 -67 -11 -31 -17 -67 -14 -79 3 -11 -5 -48 -18 -81 -12 -32 -23
-61 -23 -64 -1 -3 -4 -12 -8 -20 -3 -8 -13 -40 -22 -70 -9 -30 -23 -68 -30
-85 -7 -16 -17 -42 -20 -58 -4 -15 -10 -27 -14 -27 -4 0 -13 -15 -18 -32 -6
-18 -30 -76 -53 -128 -23 -52 -42 -108 -41 -125 0 -59 10 -138 20 -164 15 -41
30 -154 37 -292 7 -142 11 -135 -71 -138 -22 -1 -53 -5 -69 -9 -15 -4 -53 -5
-84 -2 -89 8 -109 3 -121 -31 -15 -44 14 -59 122 -60 47 0 90 1 94 4 4 3 36 8
70 11 33 3 73 10 88 16 15 6 31 8 35 5 18 -11 31 37 26 88 -7 64 -15 144 -21
217 -3 30 -7 72 -11 94 -7 44 -9 61 -23 173 -10 82 -3 131 22 178 6 11 12 25
13 30 1 6 19 48 39 95 20 47 49 121 65 165 16 44 41 112 55 150 15 39 34 94
43 123 l15 53 81 -6 c45 -2 88 -5 96 -6 30 -2 147 -31 238 -60 51 -16 101 -29
112 -29 11 0 20 -4 20 -9 0 -4 19 -12 43 -17 40 -9 42 -11 39 -44 -1 -19 -10
-55 -18 -80 -9 -25 -18 -58 -21 -75 -3 -16 -10 -39 -16 -50 -6 -11 -12 -22
-12 -25 -2 -15 -29 -86 -35 -95 -4 -5 -8 -17 -8 -25 -1 -21 -24 -82 -43 -110
-23 -36 -29 -81 -14 -104 7 -12 19 -46 26 -76 7 -30 18 -60 24 -65 7 -6 22
-42 35 -80 12 -39 27 -83 33 -100 6 -16 13 -34 14 -40 1 -5 13 -41 28 -78 14
-37 25 -76 25 -87 0 -27 -29 -31 -333 -39 -10 -1 -22 -13 -28 -28 -8 -22 -6
-30 10 -46 20 -20 57 -23 186 -12 28 2 82 6 120 8 39 3 89 10 113 15 29 7 42
7 42 -1 0 -21 12 2 16 32 4 21 -3 44 -19 73 -13 24 -37 81 -52 128 -15 47 -33
96 -40 110 -7 14 -22 56 -34 95 -13 38 -29 82 -37 97 -15 30 -37 120 -36 152
1 10 10 37 21 60 11 24 23 60 26 82 4 21 13 48 20 59 9 16 46 113 50 135 8 41
21 83 35 115 25 55 34 87 31 107 -1 9 7 48 19 85 12 37 24 84 26 103 3 19 7
44 9 55 24 131 37 194 50 238 8 29 26 124 40 212 13 88 29 174 35 190 5 17 23
91 40 166 17 74 38 142 46 151 15 14 14 19 -1 52 -16 34 -35 45 -75 45 -34 -1
-290 68 -290 78 0 7 48 133 65 168 7 17 17 40 20 53 6 22 10 23 82 19 99 -5
167 9 230 50 61 39 183 157 206 199 89 164 122 297 120 485 -1 75 -19 135 -50
167 -6 7 -22 30 -34 52 -13 22 -29 40 -36 40 -8 0 -17 9 -21 21 -5 11 -11 20
-15 20 -20 -2 -28 0 -23 7 23 37 -117 70 -234 54z m170 -102 c11 -13 20 -29
20 -37 0 -7 4 -13 9 -13 12 0 81 -72 81 -85 0 -5 11 -20 24 -32 22 -22 24 -30
24 -148 1 -76 -4 -142 -12 -169 -17 -54 -78 -190 -88 -194 -5 -2 -8 -9 -8 -16
0 -18 -148 -155 -195 -179 -34 -18 -58 -21 -150 -22 -102 0 -114 2 -167 29
-76 38 -111 78 -136 157 -37 111 -20 278 40 399 7 14 15 27 19 30 3 3 11 19
18 37 19 46 181 199 239 225 69 30 139 45 205 43 46 -2 62 -7 77 -25z m-780
-1251 c0 -5 4 -8 8 -5 11 7 182 -31 212 -48 14 -7 39 -16 55 -19 17 -3 44 -11
60 -18 34 -14 45 -16 98 -25 50 -8 42 -25 -19 -40 -27 -6 -62 -17 -79 -24 -29
-12 -145 -26 -295 -35 -41 -3 -89 -7 -106 -10 l-31 -5 11 42 c6 24 14 48 18
53 3 6 9 33 13 60 4 28 9 58 12 68 5 18 43 24 43 6z m541 -261 c-6 -24 -13
-59 -16 -78 -3 -19 -17 -80 -30 -135 -13 -55 -27 -131 -30 -168 -4 -37 -11
-82 -17 -100 -5 -18 -12 -48 -14 -67 -3 -19 -11 -62 -19 -95 -7 -33 -23 -101
-35 -151 -12 -50 -23 -106 -25 -125 -2 -19 -10 -50 -19 -71 -17 -41 -27 -41
-103 -7 -23 10 -60 22 -83 25 -22 4 -43 11 -46 15 -3 5 -18 9 -34 9 -16 0 -47
6 -67 14 -64 23 -186 47 -246 47 -31 1 -61 6 -66 13 -6 7 6 76 35 196 25 102
51 217 58 255 7 39 20 86 29 105 9 19 18 49 20 65 3 17 10 50 17 75 11 41 15
59 19 98 2 21 51 34 166 43 196 16 279 26 345 43 142 37 165 42 169 39 2 -1
-1 -22 -8 -45z"/>
<path d="M313 3923 c-7 -2 -13 -20 -13 -39 0 -29 4 -34 28 -39 15 -3 41 -12
57 -19 17 -7 48 -19 70 -26 22 -7 54 -23 72 -36 17 -13 34 -24 38 -24 6 0 19
-10 49 -37 8 -7 25 -15 38 -18 20 -5 30 -1 47 21 11 15 21 32 21 38 0 13 -51
46 -70 46 -6 0 -29 15 -50 33 -56 47 -250 115 -287 100z"/>
<path d="M1147 3773 c-166 -30 -314 -151 -376 -306 -28 -67 -33 -132 -21 -240
10 -82 27 -123 73 -170 15 -16 27 -33 27 -38 0 -17 110 -119 135 -125 14 -3
25 -10 25 -14 0 -21 120 -41 246 -42 54 0 69 4 130 41 38 23 78 49 89 59 34
29 113 128 126 156 7 14 15 26 19 26 19 0 42 110 44 206 1 98 0 102 -38 175
-45 87 -107 149 -190 191 -32 16 -68 39 -81 52 -15 15 -32 21 -56 20 -19 -1
-45 4 -59 10 -19 9 -42 9 -93 -1z m198 -133 c82 -39 175 -111 175 -134 0 -7 8
-21 18 -32 31 -33 41 -79 37 -173 -2 -75 -7 -98 -28 -133 -32 -54 -146 -178
-163 -178 -8 0 -14 -3 -14 -8 0 -4 -23 -18 -52 -31 -45 -21 -62 -23 -132 -18
-45 3 -94 12 -110 20 -16 9 -33 14 -37 12 -4 -3 -12 2 -19 10 -7 8 -16 15 -20
15 -12 0 -82 73 -116 121 -39 56 -56 124 -55 221 0 76 16 123 57 169 8 8 14
19 14 23 0 5 21 28 46 52 50 48 114 84 150 84 13 0 26 5 29 10 3 6 36 10 73
10 57 0 78 -6 147 -40z"/>
<path d="M102 3734 c-7 -8 -12 -24 -10 -36 3 -25 58 -46 138 -54 114 -11 141
-15 167 -29 15 -8 34 -15 41 -15 7 0 29 -11 50 -24 20 -12 48 -27 62 -31 14
-4 32 -14 41 -21 14 -12 18 -12 32 3 8 10 19 30 22 46 7 25 4 29 -31 43 -22 8
-70 30 -109 48 -99 47 -129 60 -138 58 -11 -3 -224 17 -239 23 -7 2 -19 -2
-26 -11z"/>
</g>
</svg>
