<?xml version="1.0" standalone="no"?>
<!DOCTYPE svg PUBLIC "-//W3C//DTD SVG 20010904//EN"
 "http://www.w3.org/TR/2001/REC-SVG-20010904/DTD/svg10.dtd">
<svg version="1.0" xmlns="http://www.w3.org/2000/svg"
 width="537.000000pt" height="435.000000pt" viewBox="0 0 537.000000 435.000000"
 preserveAspectRatio="xMidYMid meet">
<metadata>
Created by potrace 1.16, written by Peter Selinger 2001-2019
</metadata>
<g transform="translate(0.000000,435.000000) scale(0.100000,-0.100000)"
fill="#000000" stroke="none">
<path d="M3040 4193 c-58 -7 -168 -15 -245 -18 -187 -6 -261 -12 -379 -30
-100 -16 -157 -22 -251 -30 -27 -2 -70 -10 -95 -18 -60 -20 -126 -30 -176 -28
-22 1 -53 -3 -69 -9 -16 -6 -74 -15 -129 -20 -56 -6 -130 -19 -166 -30 -36
-11 -100 -21 -143 -23 -43 -2 -81 -8 -85 -14 -10 -16 -67 -27 -152 -27 -41 -1
-100 -9 -130 -18 -50 -15 -168 -32 -305 -44 -27 -2 -70 -9 -95 -14 -60 -13
-123 -16 -138 -6 -6 4 -32 -2 -58 -13 -25 -11 -68 -23 -95 -27 -48 -6 -89 -31
-89 -53 0 -6 -4 -11 -8 -11 -4 0 -15 -12 -23 -27 -20 -35 -13 -64 32 -133 18
-28 34 -59 35 -68 2 -9 13 -57 24 -107 42 -176 52 -219 56 -239 6 -28 31 -179
49 -296 8 -52 21 -120 29 -150 8 -30 17 -93 21 -140 7 -97 7 -98 29 -241 9
-59 17 -119 18 -133 1 -14 5 -26 9 -26 17 0 35 -99 44 -245 3 -49 11 -98 19
-110 7 -11 24 -65 39 -120 65 -254 89 -353 93 -390 7 -57 8 -63 32 -139 12
-37 22 -78 22 -90 0 -12 6 -30 14 -41 16 -24 24 -60 32 -134 6 -66 41 -198 59
-227 7 -11 18 -47 24 -79 6 -33 16 -64 21 -69 6 -6 10 -18 10 -28 0 -44 23
-118 36 -118 9 0 14 -11 14 -30 0 -24 5 -30 23 -32 28 -2 37 -1 62 6 84 23
238 48 290 47 11 0 70 8 130 18 61 11 137 22 170 25 103 9 259 27 266 31 6 4
29 9 131 26 35 5 74 12 88 14 14 2 50 7 81 9 31 3 77 15 103 26 27 11 70 20
97 20 28 0 59 5 70 11 11 5 57 12 102 15 129 7 258 21 302 33 22 6 69 13 104
16 35 3 71 10 80 14 9 5 39 14 66 19 28 6 80 17 116 25 80 19 119 25 184 32
28 3 70 12 95 20 60 18 183 45 208 45 30 0 52 11 52 25 0 8 9 17 20 20 13 4
20 15 20 31 0 34 -39 48 -77 29 -15 -8 -37 -15 -48 -15 -11 0 -51 -10 -90 -21
-38 -12 -81 -22 -95 -24 -14 -1 -36 -5 -50 -9 -14 -4 -54 -11 -90 -15 -36 -5
-85 -15 -110 -21 -25 -6 -58 -12 -75 -12 -16 0 -37 -4 -46 -9 -9 -5 -31 -11
-50 -14 -19 -3 -52 -11 -74 -17 -22 -5 -74 -14 -115 -18 -41 -5 -88 -13 -105
-18 -16 -6 -83 -13 -147 -17 -64 -3 -142 -12 -173 -20 -31 -8 -68 -15 -83 -15
-15 0 -72 -11 -127 -24 -55 -13 -118 -24 -140 -24 -22 0 -60 -7 -85 -15 -25
-8 -66 -18 -91 -20 -26 -3 -64 -10 -85 -16 -22 -5 -93 -12 -159 -15 -119 -6
-136 -8 -165 -18 -26 -10 -241 -41 -370 -53 -36 -4 -84 -11 -107 -16 -44 -9
-84 -2 -63 11 9 6 7 19 -8 54 -12 25 -23 63 -27 83 -6 40 -48 176 -72 232 -7
18 -18 67 -23 107 -5 41 -14 83 -20 94 -6 11 -17 54 -26 97 -9 43 -22 89 -29
103 -7 14 -15 49 -19 78 -3 29 -19 106 -36 170 -16 64 -38 156 -49 203 -12 48
-33 127 -47 175 -14 49 -30 127 -34 174 -4 47 -17 123 -30 170 -32 124 -55
265 -64 401 -3 42 -12 103 -21 134 -8 32 -22 105 -30 164 -9 58 -22 138 -30
176 -8 39 -17 95 -20 125 -3 30 -10 69 -15 85 -5 17 -12 53 -15 80 -6 50 -28
134 -67 252 -11 34 -17 67 -13 73 13 21 115 51 225 65 30 4 64 9 75 11 11 2
63 8 115 13 52 6 118 17 145 25 28 8 73 17 100 21 78 10 107 15 145 25 20 5
45 8 57 6 21 -4 121 11 228 34 81 17 239 42 385 60 47 5 96 12 110 15 14 3 39
7 55 9 17 2 68 11 115 20 47 9 119 20 160 25 41 6 89 12 105 15 38 8 179 20
225 21 19 0 38 4 41 8 3 5 93 10 200 12 107 3 232 7 279 10 77 5 88 3 108 -15
12 -12 22 -28 22 -38 0 -9 32 -82 71 -162 38 -80 88 -181 109 -225 21 -44 50
-116 65 -160 14 -44 35 -97 45 -118 11 -22 20 -46 20 -54 0 -8 11 -42 24 -76
14 -34 27 -77 30 -95 4 -29 30 -82 40 -82 18 0 65 24 60 31 -3 5 -7 17 -9 26
-19 83 -33 131 -43 148 -13 24 -56 128 -83 205 -10 30 -23 64 -28 75 -34 77
-111 269 -111 279 0 4 -11 22 -24 39 -22 29 -44 76 -82 180 -21 55 -49 108
-71 134 -22 25 -21 25 -183 6z"/>
<path d="M1328 3379 c-10 -5 -18 -21 -18 -35 0 -14 -7 -36 -16 -49 -8 -13 -17
-48 -19 -77 -6 -76 -15 -169 -20 -198 -2 -14 -8 -50 -13 -80 -6 -30 -8 -77 -7
-105 3 -48 7 -307 6 -333 -3 -40 -40 48 -57 133 -2 11 -7 35 -10 53 -3 17 -10
32 -16 32 -5 0 -7 4 -3 9 3 5 1 12 -4 15 -11 7 -41 104 -41 131 0 10 -11 43
-24 74 -13 31 -30 90 -39 131 -24 117 -62 243 -82 273 -21 33 -44 34 -94 5
-39 -22 -72 -64 -86 -108 -4 -14 -11 -27 -14 -30 -4 -3 -12 -30 -18 -60 -8
-43 -8 -71 3 -125 7 -38 14 -99 15 -135 1 -43 8 -74 19 -90 18 -27 70 -151 70
-169 0 -13 17 -46 43 -81 30 -41 162 -175 196 -199 17 -12 34 -33 37 -47 5
-17 13 -24 31 -24 15 0 36 -11 50 -26 20 -22 24 -35 22 -78 -3 -53 7 -113 21
-131 5 -6 11 -55 15 -110 4 -55 15 -132 26 -171 24 -89 24 -92 -4 -66 -13 12
-38 27 -57 33 -19 7 -46 20 -60 29 -14 10 -36 21 -50 25 -14 4 -35 16 -48 26
-13 10 -36 20 -52 24 -18 4 -38 20 -54 46 -15 21 -32 40 -39 40 -49 6 -52 4
-70 -51 -20 -58 -18 -141 4 -182 6 -11 13 -32 15 -46 5 -26 11 -41 73 -172 38
-79 192 -286 252 -338 24 -21 85 -64 134 -97 50 -33 92 -63 93 -67 2 -5 17 -8
33 -8 16 0 29 -4 29 -8 0 -5 22 -14 49 -22 41 -11 52 -19 61 -44 30 -78 46
-101 74 -104 46 -6 50 10 31 108 -3 14 -14 32 -26 41 -21 15 -21 18 -5 40 9
13 16 34 16 46 0 12 20 65 45 116 25 52 45 99 45 105 0 6 14 33 30 59 17 26
30 52 30 58 0 6 13 37 30 70 16 33 30 70 30 82 0 12 7 43 16 69 8 25 16 59 16
75 1 16 4 29 7 29 3 0 42 -11 86 -25 44 -14 87 -25 96 -25 9 0 27 -8 40 -18
36 -28 73 -34 121 -18 24 8 86 17 138 20 52 4 111 8 130 11 43 5 120 17 140
21 27 6 143 14 265 19 66 2 138 7 161 10 25 4 58 0 87 -10 33 -11 52 -13 72
-5 35 13 32 15 40 -22 4 -18 17 -69 31 -114 21 -71 30 -87 78 -134 30 -29 62
-57 70 -62 9 -5 16 -15 16 -22 0 -8 7 -16 15 -20 8 -3 15 -10 15 -16 0 -6 8
-23 18 -38 11 -15 30 -44 43 -64 13 -20 34 -40 46 -43 13 -3 23 -10 23 -15 0
-6 5 -10 10 -10 6 0 29 -12 53 -27 23 -14 43 -26 44 -25 2 1 18 -5 37 -13 20
-8 45 -15 56 -15 11 0 20 -4 20 -8 0 -5 16 -16 35 -25 19 -9 35 -20 35 -25 0
-5 8 -17 18 -28 28 -31 52 -72 52 -89 0 -9 7 -18 15 -21 9 -4 15 -19 15 -39 0
-30 16 -77 39 -115 5 -8 19 -35 29 -60 19 -41 24 -59 37 -129 2 -12 9 -29 16
-37 6 -8 9 -27 6 -44 -5 -23 -1 -35 19 -55 41 -41 68 -34 92 25 l21 50 -23 27
c-32 39 -42 61 -50 112 -4 24 -16 56 -26 71 -11 16 -20 34 -20 41 0 7 -14 37
-31 68 -20 35 -32 72 -34 98 -1 28 -11 56 -28 80 -14 21 -38 61 -52 88 -15 30
-39 59 -58 70 -41 25 -185 84 -190 79 -2 -3 -10 2 -17 11 -7 8 -21 15 -30 15
-10 0 -20 3 -22 8 -1 4 -16 14 -31 22 -28 15 -36 26 -72 105 -26 56 -63 105
-81 105 -7 0 -14 4 -14 9 0 4 -11 20 -24 34 -32 35 -89 154 -82 173 3 8 -1 17
-9 20 -18 7 -26 45 -25 119 2 101 0 128 -10 140 -7 8 -7 22 -2 36 12 33 13 94
2 124 -7 18 -17 25 -36 25 -26 0 -63 -31 -65 -54 0 -6 -1 -35 -2 -64 -1 -47
-5 -58 -34 -87 -48 -48 -102 -51 -208 -12 -73 27 -101 117 -47 153 31 21 42
24 98 27 49 2 74 25 74 66 0 22 7 35 25 47 14 9 25 23 25 31 0 8 11 28 25 45
14 16 25 35 25 43 0 18 75 84 102 89 123 25 209 28 234 8 49 -40 114 -150 134
-228 47 -176 116 -347 146 -358 8 -3 14 -15 14 -26 0 -11 3 -20 8 -20 4 0 13
-13 20 -28 12 -27 94 -77 117 -71 6 1 18 -1 27 -5 31 -14 52 -2 63 36 5 20 12
39 15 41 3 3 66 8 140 12 222 11 241 13 349 30 66 11 124 14 158 10 41 -5 53
-3 53 7 0 9 13 14 36 15 20 1 41 6 46 11 6 6 17 8 24 5 8 -3 14 -1 14 5 0 5
10 12 23 16 13 3 32 22 44 43 26 46 40 128 24 137 -6 4 -11 16 -11 27 0 47
-98 108 -165 102 -172 -15 -294 -21 -550 -28 -256 -7 -281 -7 -356 4 -48 6
-60 4 -80 -12 -27 -22 -27 -53 -1 -78 17 -15 52 -16 197 -4 33 3 195 7 361 10
l301 4 -9 -57 c-4 -31 -5 -70 -2 -86 6 -28 5 -28 -27 -24 -19 3 -45 0 -59 -7
-14 -7 -56 -15 -95 -18 -38 -4 -88 -9 -110 -11 -22 -2 -89 -7 -150 -11 -60 -4
-140 -10 -177 -14 -105 -11 -133 -5 -154 35 -10 19 -22 34 -26 34 -18 0 -83
162 -108 270 -7 30 -17 66 -23 80 -5 14 -11 32 -12 41 -1 8 -19 41 -41 73 -21
32 -43 65 -49 74 -5 9 -16 21 -22 25 -7 4 -13 14 -13 21 0 8 -15 17 -32 21
-54 13 -189 15 -246 4 -60 -12 -138 -52 -152 -79 -5 -10 -18 -26 -27 -36 -10
-10 -19 -20 -19 -23 -7 -29 -18 -51 -25 -51 -5 0 -15 -12 -21 -27 -15 -36 -58
-83 -75 -83 -8 0 -16 -7 -19 -15 -4 -8 -15 -15 -26 -15 -12 0 -41 -21 -67 -46
-25 -26 -61 -55 -78 -65 -32 -18 -33 -18 -33 1 0 10 7 23 16 28 9 5 15 12 14
16 -3 12 193 226 206 226 3 0 26 21 52 48 142 143 230 203 337 228 133 31 191
26 339 -30 38 -14 76 -26 84 -26 8 0 31 -10 51 -22 20 -13 38 -23 41 -24 15
-3 49 -20 75 -39 17 -12 50 -32 75 -44 25 -12 74 -37 109 -55 67 -36 90 -37
109 -5 26 41 -19 99 -76 99 -10 0 -29 10 -42 22 -13 12 -30 23 -38 24 -7 2
-22 10 -31 18 -10 9 -25 16 -34 16 -9 0 -17 4 -17 8 0 9 -109 65 -150 77 -13
5 -56 22 -95 40 -62 28 -91 39 -145 52 -8 2 -60 4 -115 5 -87 1 -111 -3 -180
-27 -44 -16 -89 -28 -101 -27 -11 1 -30 -8 -42 -19 -12 -11 -22 -15 -22 -10 0
5 14 22 30 38 17 15 40 43 51 61 12 18 33 39 48 46 15 8 33 26 41 40 7 14 22
26 32 26 11 0 33 7 50 16 25 13 52 15 145 10 63 -3 135 -12 161 -21 26 -8 83
-27 127 -41 83 -27 150 -63 286 -155 30 -20 69 -51 87 -68 18 -17 37 -31 43
-31 5 0 9 -6 9 -12 1 -7 14 -24 30 -38 17 -13 30 -31 30 -38 0 -8 13 -27 29
-43 35 -33 64 -29 84 10 16 32 9 55 -24 92 -13 14 -30 37 -38 52 -8 15 -21 29
-30 32 -20 7 -81 62 -81 73 0 5 -16 16 -35 25 -19 9 -35 20 -35 25 0 5 -23 19
-50 32 -27 13 -50 26 -50 30 0 4 -22 17 -50 29 -27 12 -50 26 -50 31 0 4 -12
10 -27 13 -33 7 -71 33 -61 42 6 6 49 -3 128 -27 19 -6 44 -19 55 -29 11 -10
47 -30 80 -45 33 -15 69 -34 80 -44 11 -9 35 -26 54 -36 45 -25 62 -42 86 -89
11 -22 39 -62 63 -90 60 -70 62 -73 62 -84 0 -16 42 -51 62 -51 19 0 38 28 31
48 -3 6 0 12 6 12 18 0 12 48 -7 62 -16 11 -82 119 -82 133 0 3 0 10 0 16 0 6
-7 9 -15 5 -8 -3 -15 -2 -15 3 0 17 -76 87 -112 104 -21 10 -38 20 -38 23 0 5
37 0 60 -8 39 -15 111 -30 116 -25 4 3 26 -12 49 -34 37 -35 48 -53 57 -96 1
-5 6 -13 12 -19 6 -6 27 -30 46 -54 57 -70 83 -100 127 -147 24 -24 48 -55 55
-67 7 -13 25 -41 40 -62 15 -22 28 -48 30 -59 2 -11 10 -25 19 -32 45 -34 77
-173 59 -257 -6 -28 -15 -85 -21 -126 -5 -41 -15 -109 -23 -150 -7 -41 -12
-78 -10 -81 2 -3 -3 -47 -11 -98 -7 -50 -12 -102 -10 -114 3 -12 7 -45 10 -72
6 -65 11 -89 30 -155 9 -30 18 -90 19 -132 3 -88 20 -118 66 -118 24 0 29 5
39 45 9 34 9 51 0 67 -6 11 -13 42 -15 67 -2 25 -11 78 -20 116 -29 123 -24
368 12 570 23 135 31 212 28 290 -3 91 -47 231 -83 265 -25 24 -44 50 -58 80
-4 8 -20 25 -35 38 -15 13 -28 28 -28 34 0 6 -18 29 -40 52 -68 70 -99 112
-120 159 -11 26 -25 49 -30 52 -6 4 -19 23 -30 44 -11 23 -31 43 -49 51 -17 7
-31 16 -31 21 0 4 -8 7 -17 7 -10 0 -31 5 -48 12 -33 14 -68 18 -200 23 -49 1
-101 9 -113 16 -13 7 -34 10 -47 7 -14 -4 -30 1 -45 14 -13 11 -27 20 -32 20
-14 0 -22 2 -48 12 -29 11 -107 27 -165 35 -22 3 -46 8 -53 12 -12 7 -46 3
-172 -20 -30 -5 -64 -11 -75 -13 -11 -2 -28 -7 -38 -11 -10 -4 -20 -5 -23 -3
-2 3 -39 -3 -82 -13 -42 -9 -80 -15 -85 -12 -11 6 -98 -77 -214 -204 -58 -65
-62 -70 -75 -98 -6 -14 -15 -25 -20 -25 -4 0 -8 -7 -8 -16 0 -17 -93 -114
-110 -114 -16 0 -42 -61 -36 -83 4 -17 -12 -38 -72 -98 -42 -42 -84 -85 -93
-95 -9 -10 -25 -26 -35 -35 -23 -20 -54 -57 -54 -65 0 -3 -11 -19 -25 -36 -26
-31 -32 -62 -15 -73 8 -5 8 -11 0 -20 -11 -13 -67 -13 -145 0 -36 7 -30 7
-136 2 -48 -3 -92 -8 -99 -12 -6 -4 -42 -9 -78 -12 -69 -4 -172 -30 -172 -43
0 -7 -52 -18 -122 -26 -31 -3 -41 1 -54 20 -14 23 -14 27 6 66 11 23 18 49 15
60 -10 32 -17 84 -18 142 -2 68 -20 93 -61 82 -30 -7 -45 -46 -27 -68 15 -18
21 -123 10 -154 -6 -14 -5 -31 2 -43 7 -14 7 -36 -1 -74 -12 -58 -12 -58 -100
-70 -109 -14 -200 -50 -200 -79 0 -6 -20 -31 -45 -56 -24 -25 -44 -51 -45 -57
0 -7 -4 -13 -8 -13 -5 0 -15 -11 -22 -25 -7 -14 -16 -25 -20 -25 -7 0 -30 83
-30 110 0 11 -9 39 -20 63 -11 24 -21 74 -24 117 -8 110 -17 164 -30 172 -11
7 -15 131 -16 573 -1 261 19 447 61 576 27 84 28 119 6 147 -11 14 -16 15 -39
1z m-404 -139 c3 -22 11 -40 16 -40 6 0 10 -11 10 -25 0 -15 6 -38 14 -53 8
-16 18 -48 21 -72 9 -56 9 -59 24 -95 23 -59 30 -81 36 -115 4 -19 22 -75 40
-125 44 -119 95 -283 95 -302 0 -19 -48 19 -156 125 -81 79 -114 127 -114 164
0 11 -13 44 -30 74 -53 97 -74 312 -41 423 11 37 47 81 66 81 7 0 15 -18 19
-40z m3091 -310 c18 -8 18 -9 -5 -9 -14 0 -34 4 -45 9 -18 8 -18 9 5 9 14 0
34 -4 45 -9z m909 -859 c22 -9 42 -41 59 -93 9 -25 -14 -46 -62 -57 -57 -12
-75 3 -67 57 3 20 5 45 6 54 0 14 25 48 35 48 2 0 15 -4 29 -9z m-2029 -211
c10 -16 113 -70 133 -70 6 0 13 -4 16 -9 3 -4 -31 -7 -75 -5 -53 1 -92 -2
-114 -12 -20 -8 -36 -10 -40 -5 -3 6 -21 3 -42 -5 -20 -9 -57 -16 -81 -16 -25
0 -57 -4 -71 -10 -14 -5 -79 -10 -143 -9 -65 0 -129 -4 -144 -9 -22 -9 -25 -8
-21 5 4 8 -1 18 -10 23 -17 10 -30 132 -14 132 5 0 11 8 13 17 2 9 14 18 28
19 84 11 173 16 230 13 108 -4 202 -2 255 8 50 9 50 9 60 -22 6 -16 15 -37 20
-45z m-703 -61 c2 -37 1 -66 -2 -64 -3 2 -32 4 -65 6 -33 2 -62 7 -65 11 -3 4
-24 10 -45 14 -48 8 -55 9 -75 17 -8 3 -28 8 -44 12 -39 8 -32 11 41 18 34 4
87 13 117 22 31 9 60 14 64 11 5 -3 17 0 27 8 35 25 43 16 47 -55z m-1215 -11
c21 -12 55 -35 77 -50 21 -15 42 -25 47 -23 16 11 145 -68 191 -116 25 -27 53
-49 61 -49 9 0 20 -24 32 -66 10 -37 30 -88 44 -113 14 -25 36 -86 48 -135 12
-49 30 -100 40 -115 10 -14 23 -38 30 -54 12 -26 11 -27 -15 -21 -49 10 -106
35 -167 72 -68 41 -145 100 -145 113 0 4 -12 20 -26 36 -64 68 -134 170 -177
257 -26 52 -47 101 -47 109 0 9 -6 22 -14 30 -14 13 -34 147 -23 147 3 0 23
-10 44 -22z m2330 -3 c-7 -16 -47 -22 -47 -7 0 9 42 32 49 26 2 -2 1 -10 -2
-19z m-1587 -56 c39 -8 74 -13 127 -18 16 -1 8 -109 -14 -171 -8 -25 -16 -50
-17 -56 -1 -6 -15 -37 -31 -70 -16 -32 -31 -68 -35 -79 -4 -11 -25 -57 -48
-102 -23 -46 -42 -89 -42 -95 0 -7 -9 -26 -19 -42 l-19 -29 -30 66 c-17 37
-36 84 -43 104 -6 21 -27 79 -45 128 -19 50 -33 92 -32 95 1 3 -4 16 -11 28
-11 21 -10 26 7 38 12 8 31 35 44 61 13 26 42 67 66 92 23 25 42 48 42 52 0
10 50 9 100 -2z"/>
</g>
</svg>
