<?xml version="1.0" standalone="no"?>
<!DOCTYPE svg PUBLIC "-//W3C//DTD SVG 20010904//EN"
 "http://www.w3.org/TR/2001/REC-SVG-20010904/DTD/svg10.dtd">
<svg version="1.0" xmlns="http://www.w3.org/2000/svg"
 width="377.000000pt" height="503.000000pt" viewBox="0 0 377.000000 503.000000"
 preserveAspectRatio="xMidYMid meet">
<metadata>
Created by potrace 1.16, written by Peter Selinger 2001-2019
</metadata>
<g transform="translate(0.000000,503.000000) scale(0.100000,-0.100000)"
fill="#000000" stroke="none">
<path d="M1075 4911 c-3 -2 -5 -13 -5 -23 0 -10 -18 -50 -40 -89 -22 -39 -40
-73 -40 -75 0 -2 -12 -22 -26 -44 -29 -43 -114 -246 -114 -270 0 -9 -4 -20 -9
-26 -13 -13 -41 -136 -46 -197 -2 -29 -15 -98 -29 -155 -50 -208 -80 -409 -79
-521 1 -90 9 -107 53 -113 20 -2 28 4 42 32 10 19 18 47 18 63 0 15 4 35 9 45
21 41 30 70 37 112 3 25 9 50 13 55 4 6 13 26 20 45 7 19 45 108 83 196 62
143 73 162 92 159 11 -2 54 -9 94 -14 40 -6 125 -27 190 -48 64 -20 120 -36
123 -35 11 2 171 -44 224 -65 58 -23 154 -48 173 -45 6 2 12 -1 12 -6 0 -12
165 -66 195 -63 2 0 26 -9 52 -20 27 -11 89 -34 138 -51 50 -17 90 -31 91 -32
2 -3 -15 -192 -20 -221 -3 -16 -8 -70 -11 -120 -6 -102 -13 -177 -21 -218 -3
-16 -7 -38 -8 -50 -2 -12 -8 -44 -14 -72 -7 -27 -13 -61 -15 -75 -11 -72 -21
-111 -28 -116 -5 -3 -9 -16 -9 -28 0 -19 -7 -25 -36 -30 -37 -8 -150 -51 -221
-86 -23 -11 -49 -20 -58 -20 -18 0 -58 -25 -93 -57 -26 -24 -81 -34 -207 -36
l-80 -2 -3 71 c-3 55 0 73 12 83 9 8 16 11 16 8 0 -3 15 -1 33 3 17 5 47 12
64 15 49 8 149 62 175 94 13 15 39 47 58 70 44 54 90 139 90 169 0 12 4 22 8
22 11 0 38 121 50 220 15 125 -2 212 -63 322 -5 10 -18 21 -27 24 -10 3 -18
11 -18 17 -1 12 -83 67 -101 67 -5 0 -9 4 -9 9 0 8 -37 24 -52 22 -5 -1 -8 2
-8 7 0 4 -11 8 -25 8 -14 1 -33 5 -43 9 -16 7 -83 17 -107 17 -18 -1 -95 -32
-123 -50 -30 -19 -57 -41 -111 -89 -20 -18 -42 -33 -49 -33 -7 0 -18 -11 -24
-25 -6 -14 -17 -25 -25 -25 -7 0 -13 -6 -13 -14 0 -7 -7 -20 -16 -27 -9 -7
-20 -22 -25 -34 -5 -11 -13 -27 -18 -35 -19 -30 -54 -112 -63 -148 -5 -20 -14
-53 -19 -72 -19 -62 -26 -171 -13 -192 5 -7 10 -24 12 -38 7 -62 54 -161 92
-195 11 -10 20 -24 20 -32 0 -8 4 -12 9 -8 5 3 13 0 17 -6 9 -15 65 -39 134
-59 l55 -15 0 -79 c0 -90 -6 -96 -85 -90 -351 26 -370 23 -350 -45 5 -19 12
-58 15 -86 2 -29 11 -81 19 -116 17 -75 30 -203 28 -273 -1 -27 5 -81 13 -120
8 -39 19 -113 25 -165 6 -51 13 -98 16 -103 3 -5 7 -41 9 -81 6 -107 23 -255
30 -267 4 -6 14 -8 23 -6 28 9 40 -5 86 -101 45 -93 56 -108 114 -164 17 -18
32 -39 32 -48 0 -14 -19 -78 -38 -131 -3 -8 -6 -19 -7 -25 -3 -31 -29 -143
-38 -159 -5 -10 -11 -31 -13 -46 -3 -15 -24 -83 -49 -151 -24 -68 -51 -146
-61 -174 -9 -27 -26 -68 -36 -91 -11 -22 -20 -47 -21 -55 -2 -8 -6 -20 -10
-26 -12 -19 15 -48 43 -47 14 0 29 -2 34 -4 6 -3 35 -4 65 -3 31 2 98 4 149 5
94 2 117 11 105 42 -2 6 0 15 6 19 18 11 12 44 -10 56 -15 8 -46 9 -98 4 -72
-8 -151 -8 -158 -1 -3 3 18 59 42 111 21 45 95 275 102 315 5 36 42 177 69
265 38 127 37 143 -23 202 -53 52 -86 100 -106 151 -21 52 -21 56 -2 49 8 -4
46 0 85 7 38 8 116 14 173 15 136 1 216 7 251 21 16 6 30 9 30 8 6 -9 68 -142
89 -188 13 -30 41 -79 61 -109 20 -29 36 -55 36 -57 0 -6 41 -64 57 -82 34
-36 24 -134 -35 -332 -14 -47 -27 -94 -28 -105 -8 -46 -22 -104 -41 -165 -12
-36 -28 -94 -38 -130 -9 -36 -21 -80 -27 -99 -7 -25 -7 -39 3 -57 16 -30 46
-31 125 -3 32 11 84 22 114 24 30 2 68 8 83 14 16 6 50 11 77 11 52 0 80 17
80 50 0 10 3 25 6 33 3 10 -3 21 -18 30 -22 14 -98 11 -193 -8 -16 -4 -39 -8
-50 -9 -11 -2 -27 -6 -35 -9 -32 -12 -70 -14 -70 -4 0 14 30 118 40 137 7 16
22 80 38 165 8 45 29 130 67 270 25 94 32 133 27 164 -2 17 -8 31 -13 31 -5 0
-9 5 -9 10 0 6 -16 34 -35 63 -19 28 -35 57 -35 64 0 7 -5 13 -12 13 -6 0 -8
3 -5 6 3 4 -14 32 -38 63 -25 32 -45 64 -45 72 0 8 -6 23 -13 34 -8 11 -26 53
-41 93 -15 39 -32 72 -37 72 -6 0 -8 4 -5 8 18 30 -4 313 -33 431 -5 20 -9 43
-9 51 -1 19 -12 108 -18 140 -10 54 -22 275 -16 281 9 8 167 47 219 54 21 3
45 8 53 11 8 3 29 8 47 10 18 2 67 19 110 38 43 19 134 55 202 81 68 26 146
60 173 76 27 16 54 29 59 29 6 0 24 8 39 17 27 16 28 19 26 82 -2 36 -8 84
-14 106 -6 22 -13 58 -17 80 -3 22 -8 48 -11 58 -3 10 -7 33 -9 50 -2 18 -10
67 -19 109 -8 42 -18 108 -20 145 -6 80 -15 143 -21 153 -3 4 -7 32 -10 61 -3
30 -8 69 -11 87 -5 33 -5 34 28 29 33 -5 107 -32 185 -69 49 -22 104 -32 118
-21 6 4 18 20 28 35 16 26 16 27 -12 51 -18 14 -54 29 -92 36 -35 7 -94 23
-131 36 -38 13 -68 22 -68 19 0 -2 -12 2 -27 9 -16 8 -52 20 -81 27 -28 6 -55
16 -58 21 -3 5 -10 7 -15 4 -10 -7 -52 5 -144 41 -50 19 -135 46 -155 48 -6 1
-77 30 -115 47 -11 5 -29 11 -40 14 -11 2 -36 9 -55 14 -19 5 -64 18 -100 27
-36 10 -68 21 -71 26 -3 5 -37 18 -75 28 -38 11 -89 26 -114 34 -41 14 -70 23
-205 58 -22 6 -47 13 -55 16 -29 10 -36 12 -142 40 -59 15 -110 31 -114 35 -4
4 -23 7 -43 7 -20 0 -31 4 -25 8 6 4 14 17 18 30 4 12 12 22 17 22 6 0 8 4 5
8 -6 11 54 106 83 131 11 10 21 23 21 28 0 5 23 37 50 71 28 34 50 66 50 71 0
5 15 29 33 53 18 24 36 51 40 61 3 9 11 17 17 17 7 0 9 24 7 68 -4 73 1 67
-87 105 -64 28 -259 55 -275 38z m142 -127 c24 -3 48 -12 54 -20 6 -7 16 -11
22 -9 7 3 18 1 25 -3 17 -11 -27 -109 -67 -149 -15 -15 -37 -44 -49 -63 -12
-20 -31 -47 -42 -60 -11 -13 -31 -40 -42 -60 -12 -19 -27 -38 -34 -42 -6 -4
-15 -19 -18 -33 -4 -14 -22 -47 -40 -73 -39 -54 -79 -126 -132 -232 -20 -41
-40 -83 -45 -92 -5 -10 -9 -25 -9 -35 0 -9 -2 -14 -5 -11 -8 8 15 160 29 193
8 17 16 55 19 85 3 30 11 78 17 105 7 28 13 57 14 65 3 24 28 94 37 105 5 5 9
17 9 27 0 10 4 18 9 18 5 0 15 17 21 38 12 37 69 153 81 162 3 3 14 21 25 40
30 56 36 62 58 56 12 -3 40 -8 63 -12z m428 -1055 c4 -5 18 -9 32 -9 40 0 143
-48 178 -84 46 -46 55 -66 71 -140 12 -61 13 -87 5 -124 -6 -26 -12 -69 -15
-97 -6 -77 -76 -230 -135 -298 -86 -97 -281 -137 -425 -87 -102 35 -179 150
-180 270 0 29 23 178 32 200 3 8 6 17 7 20 3 9 26 65 38 93 7 15 15 27 19 27
5 0 8 5 8 11 0 16 131 140 141 133 5 -3 14 7 21 21 19 41 82 74 145 74 29 0
55 -5 58 -10z m906 -66 l46 -16 -15 -27 c-14 -24 -14 -36 1 -121 9 -52 19
-105 22 -119 3 -14 8 -65 11 -115 3 -49 13 -124 23 -165 28 -112 50 -211 55
-250 3 -19 8 -53 11 -75 l5 -40 -68 -34 c-38 -19 -74 -31 -79 -28 -6 4 -22 -2
-35 -13 -14 -11 -28 -16 -32 -13 -3 3 -6 1 -6 -6 0 -7 -6 -11 -12 -9 -13 5
-89 -23 -176 -63 -24 -11 -57 -21 -73 -22 -16 -1 -29 -6 -29 -11 0 -4 -9 -6
-19 -3 -11 3 -29 -1 -39 -9 -17 -12 -59 -24 -140 -39 -9 -2 -17 -4 -17 -5 0
-1 -13 -3 -29 -5 -16 -2 -36 -7 -45 -11 -35 -14 -71 -12 -71 5 0 9 -3 26 -6
37 -5 17 0 24 26 32 17 6 44 20 59 32 16 11 36 20 45 20 9 0 16 5 16 10 0 6 5
10 10 10 6 0 43 15 83 34 95 45 106 49 146 53 47 6 78 29 84 61 3 15 15 61 27
102 12 41 21 82 21 90 0 8 5 40 11 70 6 30 10 67 9 81 -1 14 5 57 14 94 8 38
18 109 21 159 3 50 8 94 11 98 6 11 14 83 14 126 0 19 5 46 11 60 11 26 14 35
17 48 1 6 23 1 92 -23z m-1171 -1188 c118 0 125 -1 126 -20 2 -45 5 -50 31
-62 23 -11 33 -9 84 18 31 17 66 39 78 50 11 10 22 19 24 19 3 0 7 -18 11 -39
3 -22 11 -41 17 -43 17 -6 30 -74 40 -213 5 -71 11 -141 13 -155 2 -14 9 -61
15 -105 6 -44 16 -111 21 -150 22 -148 31 -277 20 -296 -4 -5 -37 -11 -76 -13
-38 -3 -123 -8 -189 -12 -66 -5 -130 -7 -143 -6 -12 2 -39 -2 -60 -7 -33 -9
-109 -14 -154 -9 -11 1 -18 10 -19 22 -2 58 -15 185 -23 226 -2 14 -7 52 -11
85 -4 33 -10 65 -13 70 -4 6 -8 28 -9 50 -2 22 -5 54 -8 70 -3 17 -10 80 -16
140 -5 61 -17 170 -25 243 -8 73 -12 137 -8 143 5 8 28 9 78 3 39 -5 127 -9
196 -9z"/>
</g>
</svg>
