<?xml version="1.0" standalone="no"?>
<!DOCTYPE svg PUBLIC "-//W3C//DTD SVG 20010904//EN"
 "http://www.w3.org/TR/2001/REC-SVG-20010904/DTD/svg10.dtd">
<svg version="1.0" xmlns="http://www.w3.org/2000/svg"
 width="447.000000pt" height="419.000000pt" viewBox="0 0 447.000000 419.000000"
 preserveAspectRatio="xMidYMid meet">
<metadata>
Created by potrace 1.16, written by Peter Selinger 2001-2019
</metadata>
<g transform="translate(0.000000,419.000000) scale(0.100000,-0.100000)"
fill="#000000" stroke="none">
<path d="M1945 3974 c-33 -7 -80 -20 -104 -28 -24 -9 -52 -16 -62 -16 -19 0
-127 -53 -172 -85 -78 -55 -184 -141 -202 -163 -11 -14 -32 -40 -47 -58 -16
-17 -28 -35 -28 -39 0 -4 -16 -23 -35 -42 -19 -19 -40 -53 -47 -76 -6 -23 -22
-55 -34 -72 -11 -16 -27 -51 -35 -77 -7 -27 -17 -48 -22 -48 -4 0 -6 -4 -3 -8
3 -5 -1 -26 -9 -49 -8 -22 -16 -64 -19 -94 -3 -30 -10 -71 -15 -93 -5 -21 -8
-44 -6 -50 2 -6 6 -58 9 -116 5 -103 12 -155 22 -172 3 -5 8 -41 10 -81 3 -40
7 -79 10 -87 4 -8 8 -31 11 -50 2 -19 13 -62 23 -95 11 -33 27 -91 35 -128 17
-73 56 -163 83 -193 53 -57 96 -135 112 -203 12 -50 10 -184 -3 -197 -3 -4
-19 3 -35 15 l-30 21 -28 -22 c-16 -13 -47 -42 -69 -66 -22 -23 -65 -69 -95
-100 -75 -78 -431 -512 -439 -535 -2 -6 -17 -25 -33 -42 -15 -16 -43 -60 -61
-97 -17 -38 -35 -68 -39 -68 -5 0 -8 -6 -8 -12 -1 -7 -9 -31 -20 -53 -11 -22
-19 -45 -20 -52 0 -6 -8 -26 -17 -45 -9 -18 -20 -40 -24 -49 -10 -22 -33 -100
-35 -121 -1 -10 -6 -24 -12 -31 -11 -13 -36 -103 -67 -242 -8 -33 -21 -77 -30
-98 -8 -21 -13 -42 -10 -47 9 -15 75 -12 79 3 15 48 68 259 70 279 3 25 47
157 71 213 8 17 23 55 35 85 35 92 92 202 135 263 22 32 45 68 52 80 7 12 30
43 53 68 23 25 64 77 93 115 29 39 65 83 80 99 16 17 41 48 55 70 15 22 65 79
112 127 47 48 96 98 109 112 12 14 27 24 32 21 4 -3 17 3 28 14 18 18 22 18
70 4 28 -8 51 -18 51 -22 0 -4 8 -7 18 -8 9 0 58 -13 107 -27 50 -14 113 -26
140 -26 28 1 68 -3 89 -9 22 -5 43 -8 47 -5 4 2 20 -1 36 -7 15 -6 80 -13 143
-15 157 -4 226 -11 250 -24 11 -6 24 -8 29 -5 12 7 51 -47 51 -69 0 -9 6 -16
13 -16 8 0 22 -9 33 -21 10 -12 46 -35 79 -51 33 -17 69 -40 80 -52 11 -11 33
-29 48 -39 15 -10 25 -22 22 -27 -3 -5 -1 -11 4 -15 10 -6 7 -207 -4 -276 -4
-22 -2 -40 4 -44 6 -3 11 -35 11 -70 0 -35 4 -74 9 -87 4 -13 12 -86 16 -163
4 -77 12 -149 18 -160 6 -11 12 -36 13 -55 1 -19 7 -48 13 -63 15 -38 15 -37
-18 -37 -16 0 -42 -5 -58 -11 -19 -7 -29 -7 -31 0 -2 7 -11 7 -25 -1 -12 -7
-58 -13 -102 -14 -44 -1 -108 -5 -142 -8 -42 -3 -63 -1 -63 6 0 7 -4 7 -12 0
-7 -5 -36 -13 -65 -17 -67 -9 -88 -24 -79 -58 6 -24 9 -25 54 -20 26 3 79 4
117 4 39 -1 85 3 103 8 25 8 32 7 32 -4 0 -8 -4 -16 -10 -20 -19 -12 3 -35 34
-35 31 0 63 31 51 50 -3 4 12 11 32 14 57 9 126 17 146 17 49 -1 73 -4 77 -12
3 -4 17 -3 30 4 31 15 49 71 32 98 -7 10 -12 25 -12 33 0 15 27 30 47 27 6 -1
14 3 18 9 3 5 17 10 30 10 37 0 131 27 178 50 24 12 62 39 87 61 24 21 49 39
56 39 7 0 16 9 19 20 3 11 13 20 21 20 8 0 14 7 14 15 0 14 15 36 50 74 29 31
48 89 70 202 12 63 25 130 28 149 4 19 7 133 6 253 0 119 3 217 7 217 5 0 6
17 4 38 -5 50 -6 424 -1 482 2 25 5 72 7 105 1 33 6 62 10 65 4 3 9 19 12 35
12 79 30 115 75 150 45 35 112 125 112 150 0 8 5 17 10 20 6 3 10 16 10 27 0
12 6 29 14 37 14 17 46 110 46 135 0 14 29 16 241 16 l241 0 -56 -63 c-64 -70
-72 -110 -25 -115 21 -3 39 12 104 85 50 56 88 90 104 93 19 4 27 12 29 32 3
24 -12 40 -125 133 -98 81 -134 105 -153 103 -19 -2 -26 -10 -28 -29 -3 -22
10 -37 78 -92 l82 -67 -237 0 -236 0 6 38 c7 39 12 72 20 111 2 13 11 34 20
47 14 22 14 25 -3 42 -18 18 -18 19 15 41 53 34 61 62 34 120 -13 27 -36 55
-52 65 -16 9 -29 23 -29 30 0 8 -7 16 -15 20 -8 3 -15 15 -15 26 0 11 -7 23
-15 26 -8 3 -17 14 -20 23 -4 14 -13 16 -58 11 -28 -4 -60 -10 -69 -14 -11 -5
-24 0 -37 13 -11 11 -36 27 -55 35 -32 13 -39 13 -75 -5 -48 -23 -70 -24 -77
-5 -9 24 -103 31 -149 12 -24 -10 -41 -13 -45 -7 -5 10 -75 21 -150 24 -33 2
-35 4 -42 47 -4 25 -12 54 -17 65 -5 11 -21 45 -34 75 -14 30 -37 67 -51 82
-14 15 -26 31 -26 37 0 15 -80 80 -125 102 -22 11 -71 31 -109 45 -38 13 -76
30 -85 38 -9 7 -26 17 -38 20 -11 4 -24 14 -27 22 -3 8 -10 13 -15 10 -5 -3
-31 1 -57 9 -27 8 -60 15 -73 15 -13 0 -38 8 -55 19 -39 23 -185 62 -223 59
-15 -1 -55 -8 -88 -14z m85 -79 c14 -2 25 -4 25 -5 0 -1 11 -3 25 -5 14 -2 43
-8 65 -13 22 -6 50 -13 63 -16 47 -11 102 -40 108 -58 7 -23 62 -25 71 -3 5
13 8 14 22 2 9 -7 34 -22 56 -32 22 -11 42 -22 45 -25 3 -3 32 -14 65 -24 76
-23 120 -49 170 -101 94 -97 112 -130 154 -291 12 -44 13 -244 2 -409 -10
-160 5 -224 68 -294 17 -19 34 -50 37 -68 6 -32 3 -38 -47 -83 -30 -27 -75
-56 -101 -65 -39 -14 -50 -23 -67 -60 -22 -46 -28 -119 -12 -144 10 -16 -6
-61 -22 -61 -6 0 -18 -7 -28 -16 -13 -11 -37 -16 -89 -15 -39 0 -76 4 -83 8
-6 4 -18 8 -27 8 -8 1 -30 5 -47 9 -60 14 -89 -50 -35 -78 30 -15 136 -30 197
-27 21 1 56 -1 77 -4 l38 -7 -3 -81 c-5 -89 6 -74 -114 -169 -54 -42 -66 -47
-140 -58 -61 -8 -97 -8 -145 1 -34 7 -97 14 -139 16 -60 4 -78 1 -89 -12 -11
-13 -11 -20 0 -40 11 -20 21 -25 51 -25 65 0 69 -5 69 -77 l0 -64 -57 7 c-32
3 -101 7 -154 9 -52 1 -101 5 -108 9 -7 5 -31 10 -54 11 -125 10 -228 25 -277
40 -30 9 -68 19 -83 22 -21 4 -27 10 -22 22 4 9 9 54 12 101 6 99 -20 206 -67
275 -116 172 -136 209 -146 280 -3 17 -13 57 -24 90 -18 59 -33 139 -45 245
-4 30 -13 87 -20 125 -23 114 -20 330 6 425 24 86 45 147 61 175 9 17 31 61
49 98 18 37 37 71 43 75 6 4 29 30 50 57 48 60 102 114 147 146 19 13 43 31
53 41 11 10 24 18 29 18 5 0 17 8 26 18 20 21 97 56 171 76 30 8 71 19 90 24
19 6 44 8 55 5 11 -3 31 -6 45 -8z m1078 -642 c12 -4 3 -9 -28 -14 -25 -4 -54
-9 -65 -11 -12 -2 -21 3 -23 14 -5 23 66 30 116 11z m201 -15 c9 -15 10 -23 3
-26 -6 -2 -8 -10 -5 -18 6 -17 -10 -18 -38 -3 -15 7 -24 7 -35 -2 -11 -9 -14
-7 -14 14 0 44 10 57 44 57 21 0 35 -7 45 -22z m201 -10 c28 -30 26 -35 -18
-42 -21 -3 -48 -15 -61 -27 -28 -26 -45 -14 -35 25 7 30 48 66 75 66 10 0 27
-10 39 -22z m183 -38 c5 -19 -10 -30 -43 -30 -24 0 -30 10 -20 36 10 27 56 22
63 -6z m-568 -34 c47 -34 4 -156 -49 -140 -12 4 -24 11 -27 16 -3 5 -15 11
-25 12 -25 4 -29 37 -9 76 24 46 74 62 110 36z m420 -46 c3 -5 14 -10 25 -10
33 0 32 -29 -3 -50 -36 -22 -50 -24 -76 -10 -22 11 -17 60 5 60 8 0 14 5 14
10 0 6 6 10 14 10 8 0 18 -4 21 -10z m-221 -10 c18 -6 26 -17 26 -34 0 -29
-17 -44 -58 -52 -28 -6 -33 -3 -42 22 -15 38 -9 57 20 65 14 4 26 7 27 8 1 1
13 -3 27 -9z m464 -40 c12 -33 11 -35 -35 -45 -42 -9 -73 2 -73 25 0 28 28 50
65 50 28 0 35 -5 43 -30z m-337 -81 c39 -20 51 -21 104 -12 53 9 61 8 73 -8
17 -25 79 -41 104 -28 18 9 19 8 13 -11 -4 -12 -8 -32 -9 -43 -2 -12 -9 -59
-16 -104 l-14 -83 -173 0 c-160 0 -174 -1 -193 -20 -16 -16 -18 -25 -10 -40
10 -19 22 -20 185 -20 l174 0 -15 -42 c-8 -22 -12 -43 -9 -46 2 -3 -4 -21 -14
-41 -25 -48 -51 -107 -51 -118 -1 -16 -46 -58 -83 -78 -21 -11 -49 -32 -63
-47 -22 -25 -49 -34 -94 -30 -8 1 -54 2 -102 3 -64 0 -93 5 -110 17 -48 35
-95 56 -156 68 -8 1 -15 4 -15 6 -1 2 -8 14 -15 27 -13 22 -10 27 46 80 81 76
92 100 76 161 -7 27 -32 77 -56 110 l-43 62 0 104 c0 106 7 142 23 116 15 -23
66 -31 108 -16 21 7 40 18 42 24 6 16 21 12 57 -15 26 -20 41 -25 71 -21 22 2
40 5 42 7 1 1 5 2 10 4 26 7 42 19 47 36 8 24 11 24 66 -2z m-531 -728 c0 -5
-6 -11 -13 -14 -23 -9 -9 -66 17 -73 30 -7 55 -78 62 -174 9 -137 5 -199 -25
-365 -24 -128 -45 -198 -67 -216 -8 -6 -11 -16 -8 -21 10 -16 -77 -281 -121
-373 l-25 -50 2 113 c2 133 -4 144 -61 119 -2 -1 -5 9 -6 22 -2 24 -59 80 -82
81 -7 0 -13 5 -13 10 0 6 -8 10 -18 10 -27 0 -100 58 -118 94 -17 33 -87 106
-102 106 -5 0 -10 25 -11 56 l-2 55 93 -2 c53 -1 109 3 130 10 21 7 42 10 48
6 5 -3 10 -2 10 4 0 5 10 13 22 17 13 4 40 23 61 43 21 20 42 36 46 36 14 0
67 49 81 75 14 26 21 223 9 242 -4 6 2 26 12 45 27 48 34 105 17 138 -11 20
-12 33 -4 50 l10 22 28 -29 c15 -16 28 -33 28 -37z m137 -58 c21 -10 42 -24
46 -30 4 -7 14 -13 21 -13 8 0 26 -6 41 -14 19 -10 35 -12 52 -5 15 6 31 5 42
-1 10 -5 21 -7 24 -4 3 3 35 6 71 7 l67 2 -6 -30 c-4 -16 -11 -42 -17 -58 -6
-15 -8 -41 -4 -57 3 -17 2 -30 -2 -30 -4 0 -7 -174 -8 -387 -1 -565 -3 -693
-9 -703 -3 -4 -7 -31 -10 -61 -3 -29 -10 -58 -15 -64 -5 -6 -10 -30 -11 -53
-2 -23 -7 -42 -11 -42 -4 0 -7 -4 -5 -9 3 -11 -55 -111 -65 -111 -4 0 -8 -5
-8 -11 0 -6 -15 -24 -32 -39 -18 -16 -44 -39 -58 -51 -73 -64 -161 -102 -265
-115 -22 -3 -52 -9 -67 -14 -28 -9 -38 1 -38 40 0 10 -4 20 -9 22 -5 2 -12 64
-16 138 -6 123 -11 187 -15 200 -10 29 3 134 20 171 30 62 57 112 69 126 6 7
11 17 11 23 0 5 9 29 19 53 11 23 41 105 66 182 26 77 51 145 56 151 5 6 6 14
3 17 -4 4 1 18 10 31 9 14 16 36 16 48 0 13 11 82 24 153 13 72 24 137 24 145
0 8 1 40 1 70 3 122 -15 243 -45 302 -23 44 -21 46 33 21z"/>
<path d="M2079 3130 c-92 -11 -183 -101 -198 -196 -8 -51 -6 -66 12 -108 11
-26 20 -54 20 -62 0 -7 3 -11 7 -9 9 5 40 -32 33 -39 -4 -3 -1 -6 5 -6 6 0 14
-17 17 -37 3 -21 13 -63 21 -94 7 -30 14 -69 14 -85 0 -21 8 -36 28 -51 34
-25 30 -23 79 -32 35 -7 46 -4 68 14 23 18 26 26 21 52 -5 22 -14 32 -32 36
-16 3 -24 0 -24 -9 0 -17 -31 -18 -52 -1 -15 12 -27 57 -34 129 -5 65 -21 104
-61 159 -47 64 -67 99 -56 99 4 0 8 15 9 33 1 53 44 109 97 128 26 9 49 14 52
11 3 -3 5 -24 5 -48 0 -30 5 -44 18 -49 37 -17 53 -15 61 6 9 26 -7 119 -21
119 -5 0 -7 4 -4 9 12 19 -38 37 -85 31z"/>
<path d="M2694 2983 c-12 -2 -26 -15 -32 -27 -9 -20 -7 -27 14 -47 20 -19 27
-21 49 -11 15 7 25 20 25 32 0 24 -17 61 -28 59 -4 -1 -17 -4 -28 -6z"/>
</g>
</svg>
