<?xml version="1.0" standalone="no"?>
<!DOCTYPE svg PUBLIC "-//W3C//DTD SVG 20010904//EN"
 "http://www.w3.org/TR/2001/REC-SVG-20010904/DTD/svg10.dtd">
<svg version="1.0" xmlns="http://www.w3.org/2000/svg"
 width="523.000000pt" height="167.000000pt" viewBox="0 0 523.000000 167.000000"
 preserveAspectRatio="xMidYMid meet">
<metadata>
Created by potrace 1.16, written by Peter Selinger 2001-2019
</metadata>
<g transform="translate(0.000000,167.000000) scale(0.100000,-0.100000)"
fill="#000000" stroke="none">
<path d="M4285 1306 c-90 -13 -164 -30 -194 -46 -9 -4 -45 -23 -81 -41 -36
-18 -84 -45 -108 -61 -44 -30 -192 -172 -192 -185 0 -3 -7 -15 -17 -25 -19
-21 -36 -50 -59 -98 -9 -19 -26 -41 -37 -50 -22 -15 -97 -21 -97 -7 0 4 -8 7
-19 7 -16 0 -18 7 -15 57 5 71 30 161 66 238 33 70 34 85 10 111 -17 18 -31
19 -218 17 -109 -2 -217 -7 -239 -12 -85 -19 -804 -32 -937 -18 -27 3 -48 1
-48 -4 0 -5 -9 -9 -19 -9 -15 0 -25 -15 -42 -60 -12 -33 -26 -60 -30 -60 -5 0
-9 -4 -9 -10 0 -5 -13 -39 -30 -75 -16 -36 -30 -70 -30 -77 0 -20 -73 0 -157
44 -46 23 -83 46 -83 50 0 5 -8 8 -17 8 -19 0 -85 40 -68 40 12 1 -53 31 -74
34 -8 2 -19 10 -26 19 -7 9 -20 17 -29 17 -9 0 -16 4 -16 8 0 11 -150 82 -172
82 -26 0 -48 -11 -48 -25 0 -7 -10 -19 -22 -28 -35 -22 -118 -106 -163 -162
-22 -27 -60 -68 -85 -90 -25 -22 -67 -61 -95 -86 -27 -26 -59 -49 -71 -53 -11
-3 -30 -20 -42 -36 -12 -16 -36 -37 -54 -46 -17 -9 -41 -25 -52 -36 -12 -11
-39 -33 -61 -49 -22 -16 -51 -45 -65 -64 -24 -33 -50 -46 -50 -25 0 6 -5 10
-10 10 -6 0 -36 25 -66 55 -31 30 -58 55 -60 55 -2 0 -23 18 -45 40 -23 22
-46 40 -51 40 -15 0 -68 -57 -68 -73 0 -22 49 -77 68 -77 18 0 152 -122 152
-138 0 -10 -266 -8 -322 3 -45 9 -74 0 -80 -23 -7 -26 9 -62 27 -62 8 0 15 -4
15 -9 0 -5 12 -7 28 -5 36 6 439 5 477 -2 82 -13 582 -19 670 -7 28 4 52 6 55
6 124 -20 414 -23 725 -6 l180 9 46 -46 c25 -25 68 -62 95 -82 50 -39 61 -48
80 -70 24 -27 55 -48 72 -48 19 1 62 33 62 47 0 14 62 79 88 92 12 7 22 18 22
26 0 8 17 27 38 42 20 15 38 31 40 35 2 3 17 2 33 -4 16 -5 46 -7 67 -3 71 12
204 20 224 12 11 -4 49 0 84 8 38 9 81 12 107 8 23 -3 87 -7 142 -8 55 -1 138
-5 185 -8 47 -4 117 -8 155 -11 39 -2 111 -9 160 -15 50 -6 119 -14 155 -16
36 -2 99 -7 140 -11 82 -8 205 -10 315 -4 39 2 120 0 180 -4 61 -4 115 -7 120
-7 10 -1 70 0 163 1 28 1 57 -2 64 -6 42 -26 97 4 98 52 0 41 -31 62 -96 64
-97 2 -330 3 -471 3 -73 -1 -133 2 -133 6 0 4 24 18 53 31 28 12 61 31 72 40
11 9 48 34 81 54 34 21 78 53 99 71 20 19 44 37 53 40 17 6 72 78 72 94 0 5 3
11 8 13 29 13 87 151 85 203 -3 48 -17 105 -33 133 -11 18 -20 38 -20 43 0 15
-32 52 -96 109 -96 87 -318 133 -509 106z m257 -101 c47 -6 149 -48 189 -79
29 -22 80 -119 89 -170 12 -72 8 -110 -16 -143 -12 -16 -24 -38 -28 -50 -8
-26 -40 -63 -55 -63 -6 0 -11 -4 -11 -8 0 -4 -23 -26 -52 -47 -53 -41 -69 -51
-125 -80 -18 -10 -33 -21 -33 -26 0 -5 -7 -9 -16 -9 -9 0 -22 -6 -28 -14 -17
-22 -193 -92 -278 -111 -74 -16 -135 -16 -250 0 -50 7 -149 53 -170 79 -10 12
-22 26 -27 32 -45 54 -64 151 -39 197 6 12 13 33 14 46 2 13 15 42 31 65 15
22 33 52 39 66 11 24 110 130 150 160 49 37 113 80 118 80 4 0 28 10 54 21 26
12 62 28 81 37 19 8 60 17 90 19 31 3 57 6 59 8 5 4 154 -3 214 -10z m-1212
-85 c0 -13 -10 -26 -65 -84 -22 -24 -49 -54 -61 -67 -11 -13 -51 -51 -89 -84
-38 -33 -77 -69 -86 -80 -10 -11 -40 -45 -67 -75 -27 -30 -62 -73 -79 -95 -57
-77 -169 -197 -199 -212 -11 -6 -86 -11 -169 -12 -82 -1 -179 -4 -215 -7 l-65
-5 -73 70 c-40 39 -92 79 -115 90 -74 33 -80 42 -68 87 6 21 22 85 36 142 14
57 39 131 56 165 17 34 38 77 47 94 9 18 23 35 31 38 8 3 139 6 291 6 162 0
293 5 316 11 21 6 94 10 160 10 67 -1 141 2 165 6 74 13 249 15 249 2z m-1970
-64 c0 7 152 -75 160 -86 3 -4 39 -22 80 -40 41 -18 93 -44 115 -58 22 -14 74
-40 116 -57 l75 -31 -14 -44 c-8 -25 -16 -47 -18 -49 -2 -2 -17 8 -34 22 -36
31 -73 44 -78 28 -2 -6 -10 -11 -17 -11 -7 0 -16 -17 -20 -37 -7 -40 -11 -35
74 -97 43 -32 46 -53 15 -103 -8 -13 -17 -43 -21 -68 l-6 -45 -131 -1 c-72 -1
-133 -1 -136 -1 -3 0 -39 3 -80 7 -41 4 -156 6 -255 4 -312 -5 -581 4 -597 19
-9 9 125 152 143 152 7 0 22 9 34 20 23 23 97 83 146 120 28 21 213 204 292
289 12 13 42 39 67 57 42 30 47 32 68 18 12 -8 22 -12 22 -8z m2030 -46 c0
-13 -29 -165 -42 -220 -6 -25 -12 -60 -15 -79 -2 -19 -10 -49 -18 -65 -7 -17
-16 -53 -20 -81 -4 -27 -14 -55 -23 -62 -10 -7 -12 -13 -6 -13 6 0 9 -13 6
-30 -3 -24 -9 -30 -31 -31 -14 0 -48 -2 -76 -4 -27 -3 -118 -7 -202 -9 l-152
-4 34 36 c18 21 42 47 52 58 10 12 38 46 63 74 25 29 54 64 65 78 20 26 42 47
234 236 61 60 111 113 111 117 0 5 5 9 10 9 6 0 10 -4 10 -10z m180 -359 c-1
-20 1 -46 5 -58 4 -12 7 -25 6 -28 0 -2 17 -38 39 -79 l39 -75 -72 5 c-40 3
-97 6 -128 6 -70 0 -85 8 -70 36 6 11 11 38 11 59 0 20 10 68 23 106 l22 68
63 -2 63 -2 -1 -36z m-1566 -177 c30 -14 62 -34 71 -44 16 -18 14 -19 -37 -25
-76 -10 -124 -4 -119 15 2 8 6 30 9 48 2 17 8 32 13 32 5 0 33 -12 63 -26z
m552 -167 c-2 -16 -77 -107 -89 -107 -17 0 -137 99 -137 113 0 2 51 5 114 6
89 1 114 -2 112 -12z"/>
</g>
</svg>
