<?xml version="1.0" standalone="no"?>
<!DOCTYPE svg PUBLIC "-//W3C//DTD SVG 20010904//EN"
 "http://www.w3.org/TR/2001/REC-SVG-20010904/DTD/svg10.dtd">
<svg version="1.0" xmlns="http://www.w3.org/2000/svg"
 width="469.000000pt" height="459.000000pt" viewBox="0 0 469.000000 459.000000"
 preserveAspectRatio="xMidYMid meet">
<metadata>
Created by potrace 1.16, written by Peter Selinger 2001-2019
</metadata>
<g transform="translate(0.000000,459.000000) scale(0.100000,-0.100000)"
fill="#000000" stroke="none">
<path d="M3340 4321 c-19 -4 -44 -12 -55 -18 -11 -5 -30 -15 -42 -21 -13 -7
-28 -12 -34 -12 -7 0 -17 -8 -24 -17 -10 -14 -17 -15 -37 -6 -22 10 -29 6 -77
-40 -29 -28 -62 -67 -72 -87 -29 -55 -42 -145 -36 -250 4 -87 8 -101 45 -172
23 -42 64 -100 92 -128 27 -29 50 -56 50 -61 0 -5 7 -9 15 -9 8 0 15 -5 15
-10 0 -6 8 -13 18 -16 32 -11 107 -49 110 -57 2 -4 8 -4 14 -1 5 4 20 2 31 -4
73 -35 273 -43 333 -14 31 14 33 14 68 -21 20 -20 36 -40 36 -46 0 -5 9 -11
20 -14 53 -14 -14 -46 -141 -66 -72 -12 -105 -31 -181 -103 -10 -10 -20 -18
-23 -18 -6 0 -24 -14 -53 -41 -9 -8 -39 -26 -67 -38 -27 -13 -70 -37 -95 -55
-61 -43 -126 -64 -151 -48 -10 7 -26 12 -34 12 -9 0 -27 11 -40 24 -13 13 -26
22 -28 19 -10 -9 -182 99 -190 120 -3 7 -1 37 4 67 11 69 3 148 -17 167 -9 9
-26 39 -38 67 -13 28 -33 58 -45 66 -11 8 -21 20 -21 28 0 7 -8 16 -17 19 -10
4 -37 19 -61 34 -67 43 -117 30 -204 -51 -30 -27 -48 -95 -48 -182 0 -52 20
-88 83 -150 15 -15 27 -33 27 -39 0 -7 3 -9 7 -6 3 4 11 3 17 -2 25 -20 84
-49 136 -66 30 -10 62 -24 71 -31 8 -8 23 -14 32 -14 9 0 26 -11 39 -24 21
-21 154 -96 172 -96 4 0 17 -11 29 -24 24 -25 92 -58 101 -48 3 3 6 0 6 -6 0
-6 7 -9 15 -6 8 3 28 1 45 -5 27 -9 33 -7 60 19 17 17 36 30 41 30 6 0 42 20
79 45 37 25 71 45 75 45 3 0 26 14 50 30 24 17 49 30 56 30 7 0 20 7 29 15 16
15 18 11 24 -52 4 -37 16 -108 27 -158 11 -49 25 -111 30 -137 6 -26 8 -52 4
-58 -4 -6 -53 -34 -110 -61 -57 -28 -112 -59 -122 -69 -11 -9 -35 -23 -55 -29
-20 -7 -42 -19 -48 -27 -7 -7 -23 -14 -36 -14 -13 0 -24 -4 -24 -9 0 -5 -19
-16 -42 -26 -24 -9 -53 -26 -65 -37 l-22 -21 -33 27 c-18 14 -38 30 -43 34
-12 10 -117 34 -160 37 -78 6 -255 -78 -255 -121 0 -7 -5 -14 -11 -16 -6 -2
-20 -28 -30 -58 -33 -91 -13 -178 56 -244 20 -20 49 -39 63 -42 15 -4 37 -13
50 -20 12 -8 22 -12 22 -9 0 3 9 1 21 -5 26 -14 68 1 119 42 19 15 42 28 51
28 10 0 19 4 21 9 2 5 21 29 43 53 65 68 98 116 101 145 3 27 27 53 50 53 6 0
14 6 17 14 3 8 23 20 44 26 21 7 40 16 43 20 3 4 34 20 69 34 34 15 72 36 84
47 11 10 25 19 31 19 5 0 17 6 25 14 9 7 51 32 93 54 90 46 95 44 103 -39 3
-30 15 -78 27 -107 11 -29 18 -55 15 -59 -4 -3 -2 -14 4 -24 5 -11 12 -47 15
-81 2 -35 8 -96 13 -137 5 -40 8 -81 6 -90 -1 -9 1 -20 5 -26 4 -5 15 -44 25
-85 l17 -75 -44 -69 c-39 -63 -103 -136 -153 -177 -11 -9 -45 -44 -75 -79 -30
-35 -62 -71 -70 -79 -8 -9 -26 -32 -39 -51 -14 -19 -46 -55 -72 -80 -40 -38
-46 -49 -42 -74 6 -30 -9 -108 -36 -191 -8 -27 -16 -54 -17 -60 0 -5 -6 -21
-11 -35 -6 -14 -8 -30 -6 -37 2 -6 -3 -25 -11 -42 -9 -16 -16 -38 -16 -48 0
-10 -9 -36 -20 -57 -10 -21 -26 -72 -34 -112 -9 -41 -22 -87 -30 -103 -9 -16
-13 -31 -10 -33 2 -3 -2 -21 -11 -41 -12 -29 -23 -38 -62 -49 -51 -15 -91 -16
-112 -4 -17 11 -62 -2 -78 -22 -7 -9 -13 -33 -13 -52 0 -54 47 -76 125 -57
113 27 208 58 224 73 7 7 15 36 17 64 3 29 9 61 15 72 6 11 12 30 14 42 2 11
9 37 15 56 6 19 13 49 15 66 2 17 12 51 23 75 24 54 30 73 38 124 3 22 13 58
21 80 8 22 26 85 40 140 29 113 46 151 79 178 13 10 24 24 24 30 0 7 18 32 40
56 22 25 40 48 40 52 0 5 51 60 113 122 61 63 129 136 149 162 43 54 74 73
171 104 37 12 91 32 120 45 46 21 132 39 302 61 28 4 56 12 63 17 6 6 12 7 12
3 0 -10 -59 -183 -71 -210 -5 -11 -20 -49 -32 -85 -26 -75 -86 -190 -98 -190
-5 0 -9 -5 -9 -12 0 -6 -9 -22 -21 -34 -11 -12 -21 -29 -23 -37 -1 -8 -7 -21
-13 -29 -8 -9 -9 -28 -3 -58 5 -25 9 -65 11 -90 1 -25 6 -50 11 -56 4 -6 10
-28 13 -50 5 -33 20 -95 32 -129 2 -5 9 -35 16 -65 7 -30 17 -64 23 -75 6 -11
19 -45 28 -75 10 -30 20 -62 23 -70 3 -8 8 -24 10 -35 2 -11 12 -44 23 -73 11
-29 20 -55 20 -57 0 -3 -22 -5 -48 -5 -27 0 -52 -3 -56 -7 -9 -9 -38 -13 -121
-18 -38 -1 -73 -4 -77 -4 -21 -3 -48 -44 -48 -73 1 -38 17 -62 45 -66 11 -2
23 -8 26 -14 6 -10 47 8 60 26 11 14 180 46 248 46 83 0 103 15 89 68 -5 20
-16 62 -23 94 -7 31 -16 62 -20 68 -4 7 -11 26 -16 44 -22 89 -42 153 -52 171
-6 11 -12 25 -13 30 -2 6 -12 42 -24 80 -12 39 -28 93 -37 120 -15 50 -21 208
-10 275 3 21 17 45 36 62 17 15 42 55 57 90 14 35 30 68 35 73 4 6 10 25 13
42 4 17 14 51 24 75 10 23 24 63 31 88 7 25 19 58 27 73 8 16 14 33 14 38 0 4
11 33 25 63 33 73 31 138 -5 142 -5 1 -14 2 -19 3 -8 1 -25 56 -23 72 1 4 -3
22 -9 40 -15 52 -56 267 -64 334 -9 80 -10 88 -18 105 -15 36 -36 130 -43 190
-4 36 -9 76 -11 90 -3 14 -6 54 -9 90 -2 36 -9 79 -14 95 -5 17 -12 48 -15 70
-10 69 -52 259 -65 293 -6 17 -17 33 -23 34 -34 4 -43 4 -52 -2 -5 -4 -23 -7
-40 -8 -34 -2 -144 -27 -226 -51 l-55 -17 4 24 c7 35 -28 102 -54 102 -20 0
-54 28 -54 44 0 4 6 14 13 21 29 33 35 43 46 76 15 45 18 129 8 198 -9 66 -36
162 -48 176 -5 5 -9 17 -9 26 0 9 -7 22 -15 29 -9 7 -13 15 -11 18 5 5 -39 67
-73 104 -9 9 -27 33 -41 52 -14 20 -42 44 -62 53 -21 9 -38 20 -38 24 0 8 -88
43 -145 58 -44 12 -53 12 -105 2z m158 -137 c17 -8 34 -19 37 -25 4 -5 16 -9
28 -9 12 0 32 -13 44 -28 12 -15 34 -40 49 -57 14 -16 37 -53 50 -82 13 -28
29 -55 34 -58 6 -3 10 -12 10 -20 0 -8 5 -26 12 -42 6 -15 12 -42 13 -59 1
-17 4 -35 6 -40 3 -5 5 -30 4 -56 -3 -61 -48 -151 -84 -168 -14 -7 -33 -16
-42 -20 -40 -20 -137 -32 -180 -22 -97 23 -174 45 -179 52 -3 4 -27 18 -53 30
-29 14 -54 34 -63 52 -8 16 -18 26 -23 24 -4 -3 -15 9 -24 27 -10 18 -31 56
-48 86 -25 44 -30 65 -31 120 -1 139 40 238 102 245 14 1 32 6 40 9 8 4 24 8
35 10 28 5 76 24 105 42 30 19 110 13 158 -11z m667 -922 c-17 -12 -75 -99
-75 -112 0 -7 -14 -30 -31 -51 -17 -22 -41 -58 -53 -82 -11 -23 -40 -70 -64
-104 -23 -34 -42 -67 -42 -72 0 -6 -5 -11 -12 -11 -6 0 -8 -3 -5 -6 11 -11
-55 -86 -88 -100 -17 -7 -37 -20 -45 -28 -23 -29 -40 -19 -40 24 0 22 0 42 -1
45 -1 5 -31 130 -47 200 -20 82 -21 136 -3 143 9 3 26 16 38 29 16 17 33 23
62 23 22 0 57 9 78 19 21 11 57 22 80 25 24 3 62 14 86 25 24 11 67 23 95 27
29 4 55 11 58 16 3 5 9 7 12 3 4 -3 2 -9 -3 -13z m108 -169 c3 -5 9 -34 12
-64 3 -30 10 -70 15 -89 5 -19 11 -57 14 -85 3 -27 10 -64 15 -82 5 -17 7 -34
4 -37 -3 -3 0 -36 7 -73 7 -37 14 -77 15 -88 2 -11 12 -48 24 -83 12 -35 24
-91 26 -125 3 -34 9 -80 14 -101 6 -22 7 -44 5 -48 -3 -5 0 -23 6 -42 6 -18
13 -44 15 -57 3 -13 10 -46 16 -74 18 -82 12 -98 -46 -111 -27 -7 -66 -17 -85
-23 -19 -6 -48 -11 -65 -11 -38 0 -182 -35 -198 -48 -15 -13 -135 -52 -157
-52 -22 0 -57 140 -65 255 -3 44 -9 95 -14 115 -5 19 -13 60 -16 90 -4 30 -11
63 -16 72 -12 22 -39 154 -41 196 -1 17 -6 32 -12 32 -6 1 2 8 18 17 16 8 39
24 50 34 11 11 25 19 31 19 31 0 67 30 91 75 15 28 38 64 51 81 13 17 23 38
23 47 0 10 4 17 9 17 5 0 16 17 24 39 9 21 23 41 32 44 8 4 20 18 25 32 5 13
31 57 57 96 26 39 53 80 60 92 34 61 38 61 44 4 3 -30 9 -59 12 -64z m-1276
-895 c-3 -8 -6 -5 -6 6 -1 11 2 17 5 13 3 -3 4 -12 1 -19z"/>
<path d="M1388 4203 c-10 -3 -18 -13 -18 -23 0 -10 -16 -28 -35 -40 -20 -12
-41 -27 -48 -33 -6 -7 -32 -27 -57 -46 -61 -47 -149 -161 -189 -246 -19 -38
-34 -74 -35 -80 -2 -5 -12 -30 -23 -55 -47 -101 -66 -173 -70 -273 -3 -75 0
-112 13 -151 22 -68 77 -134 131 -158 24 -10 43 -24 43 -30 0 -6 -11 -35 -26
-65 l-25 -54 -47 6 c-26 4 -72 13 -102 22 -30 8 -62 16 -71 18 -9 2 -34 8 -55
14 -89 25 -121 11 -144 -64 -19 -63 -46 -118 -74 -147 -14 -15 -26 -29 -26
-32 0 -3 -18 -24 -40 -48 -21 -24 -45 -54 -52 -68 -7 -14 -15 -27 -18 -30 -3
-3 -25 -36 -49 -73 -24 -37 -54 -76 -67 -86 -21 -17 -44 -59 -44 -81 0 -21 51
-58 96 -69 134 -35 134 -35 111 -119 -9 -31 -18 -73 -21 -92 -2 -19 -9 -55
-15 -80 -35 -157 -42 -195 -42 -241 0 -59 3 -71 21 -85 12 -10 12 -16 1 -37
-12 -23 -11 -83 3 -105 3 -5 8 -45 10 -88 3 -44 7 -97 10 -119 3 -22 8 -60 11
-84 3 -24 10 -50 16 -57 6 -7 10 -30 8 -51 -1 -21 2 -51 6 -68 12 -43 9 -192
-4 -242 -7 -24 -14 -73 -17 -110 -3 -38 -9 -72 -12 -78 -4 -5 -7 -12 -7 -15
-4 -32 -20 -97 -37 -145 -25 -75 -65 -223 -79 -293 -9 -49 -9 -54 12 -71 24
-19 84 -19 123 1 10 6 73 12 139 14 140 5 160 14 153 72 -3 19 -6 35 -8 36
-47 30 -57 34 -60 25 -2 -6 -39 -13 -83 -15 -44 -3 -97 -11 -118 -19 -20 -8
-40 -15 -42 -15 -8 0 5 50 21 87 8 18 14 39 12 45 -1 7 1 24 6 38 55 184 73
253 81 316 2 16 11 63 20 104 27 122 33 164 25 180 -4 8 -10 35 -14 60 -14
106 -24 167 -29 185 -4 11 -9 45 -11 75 -2 31 -7 67 -10 80 -8 34 -17 113 -20
180 -2 30 -6 65 -10 77 -7 21 -4 22 21 18 15 -2 49 -6 75 -9 26 -3 64 -15 85
-26 21 -11 54 -20 73 -20 52 0 126 -23 210 -64 41 -20 83 -36 92 -36 11 0 18
-7 18 -18 0 -10 6 -26 13 -37 16 -23 47 -116 47 -139 0 -8 8 -30 18 -48 38
-67 46 -83 47 -88 0 -3 14 -25 31 -50 17 -25 37 -63 45 -85 7 -22 17 -44 21
-49 16 -19 7 -92 -22 -201 -16 -60 -30 -122 -30 -137 0 -15 -4 -29 -9 -32 -5
-3 -12 -23 -16 -43 -4 -21 -15 -51 -25 -68 -9 -16 -23 -47 -29 -67 -7 -20 -23
-59 -37 -85 -13 -26 -24 -52 -24 -57 0 -5 -10 -25 -22 -45 -24 -37 -25 -76 -3
-97 7 -8 54 -15 121 -19 60 -3 127 -8 149 -10 85 -10 119 -7 132 11 20 27 15
66 -11 99 -21 26 -27 28 -47 18 -13 -5 -49 -9 -79 -8 -30 1 -74 3 -97 4 -35 1
-43 4 -43 20 0 11 4 22 9 25 11 7 71 133 71 149 0 7 12 35 25 62 24 47 30 66
39 140 2 17 10 50 19 75 8 25 18 59 22 77 3 17 15 48 26 69 23 45 24 82 5 121
-8 15 -37 76 -65 135 -28 59 -55 110 -61 113 -23 14 -68 123 -75 180 -1 6 -4
17 -7 25 -20 55 -26 83 -23 102 1 13 8 66 15 118 7 52 16 100 20 105 5 6 11
22 14 35 46 205 48 210 77 206 33 -3 110 -54 108 -70 -1 -6 3 -24 9 -39 7 -16
12 -32 12 -37 0 -19 56 -74 90 -88 65 -27 247 -21 285 10 5 4 21 16 34 27 14
10 25 27 27 37 1 10 5 42 9 70 8 68 -10 111 -66 156 -91 73 -173 97 -254 75
-22 -6 -43 -10 -47 -9 -4 1 -15 -9 -25 -22 -22 -27 -59 -41 -76 -29 -7 5 -31
15 -54 23 -39 12 -42 15 -37 44 3 17 12 51 20 76 7 25 15 55 17 67 2 12 6 26
10 29 4 4 7 18 7 30 0 13 4 33 9 46 20 52 54 162 70 224 l16 65 35 -23 c19
-13 60 -61 91 -107 31 -46 61 -86 66 -90 5 -3 16 -21 24 -38 8 -18 17 -33 20
-33 4 0 12 -13 19 -29 6 -16 20 -37 31 -47 10 -9 19 -27 19 -39 0 -22 28 -55
47 -55 6 0 13 -4 15 -9 2 -5 18 -6 36 -4 25 4 32 10 32 27 0 12 25 53 55 91
30 38 55 72 55 76 0 4 23 31 51 61 28 29 57 65 65 81 13 25 18 27 54 21 31 -5
55 0 107 22 38 15 78 37 91 48 12 11 22 17 22 13 0 -3 16 9 35 29 32 31 72 97
83 134 7 23 6 132 -1 158 -9 32 -66 81 -108 92 -60 17 -192 -19 -206 -56 -3
-7 -13 -16 -24 -19 -10 -4 -19 -13 -19 -21 0 -8 -4 -14 -10 -14 -15 0 -80
-118 -91 -168 -7 -33 -7 -60 1 -94 11 -43 10 -51 -11 -88 -12 -22 -26 -40 -31
-40 -4 0 -26 -26 -49 -57 -23 -32 -55 -72 -72 -90 -28 -30 -32 -31 -56 -18
-15 7 -33 26 -41 42 -20 37 -55 88 -107 152 -24 29 -43 57 -43 62 0 6 -10 20
-22 33 -77 80 -98 107 -98 128 0 13 -9 29 -20 36 -11 7 -20 18 -20 26 0 14
-47 20 -55 7 -4 -7 -89 1 -187 17 -25 5 -55 5 -67 1 -28 -11 -33 13 -17 76
l13 50 64 1 c107 2 186 22 240 60 27 19 51 34 54 34 8 0 87 73 131 120 97 104
145 209 183 400 18 92 26 153 20 166 -4 12 -6 30 -5 40 2 11 -3 31 -10 45 -7
15 -11 29 -9 31 3 3 -4 13 -15 23 -11 10 -20 22 -20 26 0 5 -8 18 -17 30 -49
59 -85 86 -168 125 -75 35 -103 43 -165 47 -41 2 -83 2 -92 0z m131 -118 c43
-9 132 -55 138 -72 3 -7 11 -13 18 -13 21 0 105 -122 106 -155 2 -56 -2 -100
-13 -155 -14 -66 -12 -58 -26 -93 -7 -16 -12 -37 -12 -47 0 -20 -44 -112 -63
-132 -7 -7 -20 -25 -29 -40 -10 -14 -52 -55 -95 -89 -43 -35 -79 -67 -81 -71
-2 -5 -9 -8 -15 -8 -7 0 -25 -7 -42 -16 -36 -20 -198 -22 -245 -4 -3 1 -9 3
-15 4 -94 20 -140 113 -124 251 10 89 17 112 55 190 18 40 34 80 34 89 0 9 5
16 10 16 6 0 10 6 10 13 0 60 137 224 247 296 43 28 85 49 93 47 8 -3 30 -8
49 -11z m-624 -1210 c159 -36 252 -54 285 -54 19 0 51 -5 70 -11 19 -5 53 -10
75 -10 67 0 70 -6 49 -101 -9 -46 -23 -92 -30 -103 -7 -10 -10 -25 -7 -33 3
-8 -1 -31 -10 -51 -9 -20 -33 -106 -54 -190 l-38 -152 -35 1 c-19 1 -53 12
-75 24 -22 13 -59 29 -82 35 -24 7 -43 16 -43 20 0 8 -67 37 -107 45 -18 4
-33 10 -33 13 0 4 -12 8 -27 9 -26 1 -183 30 -210 38 -8 3 -6 20 7 62 10 32
20 76 22 98 3 22 13 58 22 80 10 22 20 71 23 108 3 37 10 70 14 73 5 3 9 18 9
34 0 16 11 42 27 60 29 35 20 34 148 5z m-319 -251 c-3 -9 -16 -64 -27 -123
-12 -58 -27 -112 -33 -119 -9 -10 -21 -9 -56 5 -25 9 -47 18 -48 19 -4 3 50
84 103 154 18 25 34 50 34 57 1 9 13 18 30 22 2 1 0 -6 -3 -15z m189 -404 c44
-12 85 -25 90 -28 6 -4 15 -7 20 -7 6 0 48 -19 95 -41 93 -46 170 -74 200 -74
28 0 31 -11 14 -71 -8 -30 -16 -71 -18 -92 -2 -21 -9 -43 -15 -50 -9 -11 -28
-93 -46 -199 -8 -48 -5 -49 -200 42 -22 11 -62 22 -90 25 -27 4 -75 15 -105
25 -45 15 -131 28 -199 30 -11 0 -12 15 -7 78 8 85 39 258 63 340 l15 53 51
-4 c29 -3 88 -15 132 -27z"/>
</g>
</svg>
