<?xml version="1.0" standalone="no"?>
<!DOCTYPE svg PUBLIC "-//W3C//DTD SVG 20010904//EN"
 "http://www.w3.org/TR/2001/REC-SVG-20010904/DTD/svg10.dtd">
<svg version="1.0" xmlns="http://www.w3.org/2000/svg"
 width="393.000000pt" height="485.000000pt" viewBox="0 0 393.000000 485.000000"
 preserveAspectRatio="xMidYMid meet">
<metadata>
Created by potrace 1.16, written by Peter Selinger 2001-2019
</metadata>
<g transform="translate(0.000000,485.000000) scale(0.100000,-0.100000)"
fill="#000000" stroke="none">
<path d="M2066 4820 c-16 -5 -43 -8 -60 -5 -17 2 -62 -3 -99 -11 -38 -8 -88
-14 -112 -14 -24 0 -67 -5 -95 -11 -39 -8 -54 -8 -65 1 -12 10 -15 10 -15 0 0
-9 -3 -10 -14 -1 -18 16 -74 3 -91 -21 -7 -11 -17 -18 -22 -15 -5 3 -21 0 -35
-7 -14 -7 -67 -21 -119 -31 -52 -10 -113 -23 -136 -31 -32 -9 -43 -10 -47 -1
-3 9 -5 8 -5 0 -1 -7 -11 -13 -24 -13 -24 0 -178 -33 -212 -45 -115 -42 -385
-208 -385 -236 0 -4 -16 -23 -35 -43 -34 -36 -135 -194 -135 -213 0 -6 -6 -16
-14 -22 -8 -7 -18 -26 -21 -42 -4 -16 -17 -49 -31 -74 -13 -25 -21 -45 -19
-45 2 0 0 -11 -5 -25 -10 -25 -29 -133 -35 -190 -1 -16 -8 -61 -15 -98 -10
-55 -10 -83 1 -145 7 -42 14 -120 16 -172 2 -87 15 -196 27 -245 3 -11 12 -47
20 -80 8 -33 22 -76 30 -96 8 -20 24 -77 35 -125 11 -49 31 -110 45 -136 14
-26 27 -58 29 -70 2 -13 13 -45 25 -72 12 -27 22 -52 22 -56 0 -5 4 -10 8 -12
5 -1 26 -38 47 -81 21 -42 53 -92 70 -110 17 -17 49 -54 70 -82 43 -55 77 -89
115 -113 14 -9 52 -45 84 -80 33 -35 77 -72 97 -83 20 -10 39 -22 41 -27 5
-12 115 -92 128 -92 5 0 10 -5 10 -11 0 -5 4 -8 9 -5 4 3 43 -12 86 -34 43
-22 87 -40 97 -40 11 0 31 -6 46 -14 15 -7 49 -17 75 -20 26 -4 64 -14 84 -22
19 -9 41 -13 48 -10 7 2 21 -2 32 -9 10 -7 26 -13 34 -13 50 3 68 -15 28 -27
-17 -6 -20 -13 -16 -38 2 -18 -4 -49 -15 -73 -23 -54 -12 -118 26 -151 15 -13
26 -33 26 -47 0 -31 38 -107 59 -121 9 -5 23 -10 31 -12 8 -1 16 -7 18 -13 3
-7 13 -3 28 11 12 12 29 19 37 16 8 -3 20 0 26 6 7 7 11 7 11 1 0 -6 13 -31
30 -55 16 -24 30 -52 30 -61 0 -21 46 -125 59 -132 5 -3 12 -17 15 -32 7 -27
14 -37 57 -82 76 -78 152 -121 261 -146 62 -14 84 -15 118 -6 29 8 45 8 54 1
7 -6 15 -8 18 -6 3 3 13 -6 22 -20 9 -14 13 -25 10 -25 -4 0 1 -9 10 -19 10
-11 15 -25 11 -31 -4 -6 0 -19 8 -28 12 -15 43 -107 76 -228 6 -23 14 -70 17
-105 3 -35 10 -72 15 -81 5 -10 6 -18 2 -18 -14 -1 41 -40 56 -40 21 0 51 40
51 69 -1 18 -26 156 -29 156 -1 0 -15 50 -32 119 -22 91 -24 97 -53 153 -9 17
-16 37 -16 44 0 36 -37 98 -76 128 -42 32 -44 32 -166 35 -121 2 -148 9 -186
44 -7 6 -16 12 -20 12 -12 0 -78 65 -85 83 -3 9 -11 17 -16 17 -5 0 -13 10
-16 23 -4 12 -18 36 -31 54 -13 17 -24 35 -24 38 0 3 -22 52 -49 108 -26 56
-54 119 -60 139 -7 21 -17 40 -22 43 -5 4 -9 15 -9 25 0 22 -37 36 -68 26 -22
-7 -36 -55 -21 -73 7 -8 3 -16 -13 -27 -32 -23 -34 -21 -47 29 -8 30 -21 52
-42 67 -28 21 -31 27 -26 67 3 25 12 50 21 56 9 7 16 17 16 23 0 5 10 10 23 9
12 0 38 3 57 7 39 8 50 1 139 -86 45 -43 57 -67 103 -189 5 -15 19 -31 31 -36
24 -11 66 0 68 17 1 5 2 16 3 23 2 6 -8 32 -20 57 -13 25 -35 70 -49 100 -18
36 -57 84 -112 139 -89 87 -101 93 -165 76 -27 -7 -27 -7 -15 26 7 19 24 46
40 61 15 15 27 31 27 37 0 5 17 16 38 24 31 13 63 15 123 8 9 -1 67 -50 100
-84 14 -16 43 -68 64 -115 20 -48 41 -95 46 -104 5 -10 6 -24 3 -31 -3 -8 1
-21 8 -28 8 -8 17 -22 21 -31 8 -21 45 -23 70 -4 18 14 23 61 7 71 -5 3 -10
19 -10 35 0 16 -4 31 -9 34 -5 3 -12 18 -16 33 -3 16 -15 37 -25 48 -10 11
-33 47 -49 80 -43 82 -52 97 -79 120 -82 70 -93 82 -86 98 3 9 12 18 20 18 8
1 20 2 27 3 23 4 85 -39 119 -84 54 -71 142 -246 143 -285 0 -25 50 -115 67
-121 26 -8 55 4 61 25 2 10 -13 60 -34 111 -22 51 -39 99 -39 107 0 8 -11 25
-24 38 -13 13 -27 39 -31 57 -4 18 -14 44 -23 58 -9 14 -17 41 -17 60 -1 19
-8 51 -17 70 -20 45 -42 139 -34 147 3 3 -1 18 -9 33 -13 25 -33 92 -39 130
-1 9 -5 20 -8 25 -3 6 -9 28 -13 50 -5 22 -9 42 -10 45 -11 35 -19 134 -16
193 1 31 21 38 21 7 0 -11 7 -23 15 -26 8 -4 15 -12 15 -19 0 -7 8 -16 18 -20
42 -17 126 -35 141 -30 12 3 22 -9 39 -46 12 -28 22 -56 22 -62 0 -7 12 -34
26 -62 14 -27 36 -84 50 -125 13 -41 29 -84 34 -95 5 -11 21 -67 36 -125 24
-96 47 -157 63 -170 11 -9 31 -60 31 -79 0 -11 8 -36 18 -57 40 -87 57 -99
100 -68 29 20 30 90 3 136 -11 17 -18 35 -15 40 3 4 0 8 -5 8 -6 0 -11 5 -11
12 0 6 -6 19 -14 27 -7 9 -30 48 -51 87 -36 69 -37 73 -21 95 9 13 16 33 16
44 0 11 8 46 18 79 16 55 18 57 29 35 17 -36 26 -61 30 -88 2 -14 13 -37 24
-53 18 -25 26 -28 79 -28 64 0 62 2 76 -75 4 -22 14 -56 22 -75 9 -19 17 -55
19 -80 6 -74 8 -84 16 -97 4 -7 10 -36 12 -65 6 -76 25 -149 41 -155 8 -3 14
-20 14 -42 0 -20 6 -46 14 -57 17 -23 14 -211 -3 -257 -27 -71 -9 -197 42
-292 11 -22 20 -41 18 -43 -3 -3 27 -85 64 -172 13 -30 26 -67 29 -83 3 -15
12 -42 21 -60 9 -17 19 -53 22 -78 6 -52 45 -104 70 -95 8 3 18 6 22 6 4 0 13
15 19 34 13 36 13 37 -29 133 -11 24 -19 47 -19 52 0 10 -81 233 -104 286 -61
142 -68 164 -62 202 4 21 8 50 8 65 1 16 5 28 8 28 14 0 16 241 1 268 -7 13
-16 49 -21 80 -6 31 -19 69 -29 83 -11 15 -20 35 -20 45 0 11 -9 69 -21 129
-12 61 -24 128 -27 150 -3 22 -11 51 -18 65 -7 14 -16 43 -20 65 -4 22 -10 45
-14 50 -4 6 -16 39 -25 75 -20 75 -30 104 -64 179 l-24 55 30 100 c35 121 53
190 57 232 1 17 5 49 9 70 3 21 8 80 12 129 10 150 14 197 23 275 4 41 7 100
5 130 -7 145 -16 248 -24 275 -5 17 -11 65 -14 107 -6 82 -33 232 -47 259 -4
9 -11 29 -13 45 -3 16 -17 63 -31 104 -14 41 -28 89 -31 105 -3 17 -21 60 -39
96 -18 36 -36 79 -39 96 -4 17 -18 46 -32 64 -14 19 -36 55 -50 81 -27 53 -86
112 -242 239 -17 14 -138 69 -152 69 -6 0 -27 8 -48 17 -20 9 -44 18 -52 19
-8 1 -31 5 -50 8 -19 3 -59 10 -89 16 -29 5 -54 10 -55 9 0 0 -14 -5 -30 -9z
m109 -116 c59 -6 81 -12 170 -46 99 -37 161 -71 200 -108 114 -109 147 -147
170 -193 15 -28 33 -59 41 -68 8 -8 14 -20 14 -25 0 -10 31 -82 50 -116 6 -10
10 -25 10 -33 0 -8 4 -23 9 -33 6 -9 13 -30 17 -47 4 -16 8 -32 9 -35 0 -3 6
-21 12 -40 49 -158 67 -242 93 -440 10 -78 31 -271 33 -295 0 -20 -14 -202
-23 -285 -5 -47 -12 -125 -15 -175 -3 -49 -7 -101 -10 -115 -16 -82 -29 -134
-53 -205 -27 -78 -27 -79 -62 -80 -19 -1 -40 -3 -47 -3 -16 -3 -113 -200 -107
-217 4 -8 1 -15 -5 -15 -13 0 -30 39 -38 85 -2 17 -16 53 -29 81 -14 28 -27
63 -30 78 -2 15 -11 38 -19 50 -8 12 -28 60 -45 106 -39 108 -68 156 -124 208
-51 47 -62 50 -138 37 -27 -4 -42 -14 -53 -33 l-14 -27 -1 46 c0 39 4 48 30
67 21 16 30 31 30 50 0 41 -12 52 -66 61 -27 5 -85 16 -129 24 -44 8 -109 15
-145 16 -36 1 -76 3 -90 4 -21 2 -101 -17 -255 -59 -11 -3 -29 -6 -40 -8 -37
-5 -130 -38 -146 -52 -8 -8 -34 -14 -56 -14 -24 0 -50 -7 -64 -19 -13 -10 -38
-21 -55 -25 -44 -10 -67 -37 -58 -70 3 -15 14 -31 24 -36 20 -11 84 6 118 31
13 10 29 16 36 13 10 -4 42 8 151 55 11 5 47 15 80 21 33 7 70 14 83 17 17 4
22 1 22 -16 0 -11 4 -21 9 -21 5 0 11 -8 14 -17 4 -10 18 -49 33 -88 14 -38
31 -99 37 -135 6 -36 14 -67 17 -70 4 -3 10 -18 14 -35 14 -64 31 -115 37
-115 4 0 12 -13 19 -30 7 -17 17 -30 22 -30 6 0 24 -10 41 -22 17 -12 40 -24
52 -25 11 -2 31 -8 45 -13 23 -10 31 -6 80 40 30 27 57 50 60 50 8 0 30 -62
30 -83 0 -8 5 -28 12 -44 6 -15 13 -37 15 -48 2 -11 10 -40 17 -65 19 -59 29
-130 16 -110 -12 19 -117 18 -164 -1 -36 -15 -51 -31 -72 -77 -8 -18 -22 -35
-32 -38 -66 -22 -144 -60 -160 -79 -11 -12 -25 -39 -32 -59 -9 -29 -15 -35
-25 -26 -8 6 -35 13 -62 15 -71 6 -111 13 -134 26 -11 6 -23 8 -26 6 -2 -3
-19 -1 -36 4 -18 6 -52 12 -77 15 -25 3 -58 13 -75 22 -74 38 -145 72 -153 72
-4 0 -29 18 -54 39 -26 21 -69 51 -95 66 -27 16 -75 55 -108 89 -33 34 -85 84
-115 113 -97 90 -164 172 -207 251 -57 103 -89 171 -97 205 -4 15 -18 52 -31
82 -14 30 -31 87 -39 127 -8 40 -27 107 -42 148 -43 119 -62 219 -63 342 -1
62 -7 139 -13 171 -18 98 22 363 73 485 10 23 16 42 13 42 -3 0 4 13 15 29 12
16 29 47 39 68 23 51 72 123 84 123 5 0 6 5 3 10 -3 6 -1 10 4 10 6 0 11 5 11
12 0 14 118 128 132 128 5 0 14 5 21 10 44 38 152 101 192 111 16 4 50 15 75
25 49 18 68 22 145 29 28 3 65 10 82 16 18 6 37 8 43 4 5 -3 10 -1 10 5 0 7 6
10 14 7 7 -3 18 -1 23 4 6 6 34 12 63 15 29 2 58 8 64 12 6 5 22 9 35 10 13 0
32 9 43 19 15 14 33 17 84 15 36 -2 79 1 97 7 18 5 68 12 112 16 200 14 225
17 252 25 15 5 42 6 58 3 17 -2 48 -6 70 -9z m-308 -1853 c7 -9 13 -25 13 -35
0 -11 6 -27 13 -35 7 -9 26 -49 42 -90 23 -61 28 -90 27 -155 -1 -94 4 -116
23 -116 8 0 23 -17 34 -38 19 -38 19 -38 0 -50 -27 -17 -69 -4 -100 31 -24 27
-59 123 -59 161 0 8 -4 16 -10 18 -5 2 -12 24 -15 51 -2 26 -8 55 -13 65 -5 9
-13 35 -17 56 -3 22 -13 49 -21 60 -8 11 -14 32 -14 47 0 16 -7 30 -17 35 -14
6 -8 9 22 14 49 7 76 1 92 -19z m160 1 c12 -7 33 -12 47 -12 20 0 26 -5 26
-21 0 -11 5 -29 10 -39 9 -17 6 -20 -17 -26 -56 -12 -62 -15 -68 -35 -9 -29
-23 -23 -30 14 -4 17 -13 51 -21 75 -8 24 -12 47 -10 51 7 11 37 7 63 -7z
m303 -185 c27 -21 70 -83 70 -100 0 -23 -39 -18 -67 8 -25 23 -48 105 -29 105
6 0 18 -6 26 -13z m548 -428 c18 -17 32 -38 32 -46 0 -7 9 -32 21 -54 11 -22
19 -50 17 -62 -4 -28 -38 -36 -38 -9 0 11 -7 25 -15 32 -8 7 -15 25 -15 41 0
29 -2 35 -34 97 -22 41 -9 41 32 1z"/>
<path d="M2290 3846 c-12 -23 -91 -76 -130 -88 -14 -4 -64 -10 -112 -12 -98
-5 -170 11 -200 44 -25 27 -46 25 -60 -5 -6 -14 -15 -25 -20 -25 -13 0 -3 -38
17 -60 10 -11 24 -20 32 -20 7 0 13 -5 13 -11 0 -6 6 -9 13 -6 6 2 34 -2 61
-9 61 -16 298 -3 323 18 9 7 41 27 72 45 31 18 52 33 46 33 -5 0 -2 5 8 11 31
18 36 49 13 74 -31 32 -61 37 -76 11z"/>
<path d="M1291 3761 c-13 -3 -33 -24 -45 -46 -25 -43 -90 -88 -170 -116 -69
-24 -184 -18 -232 12 -31 19 -39 20 -60 8 -21 -11 -24 -18 -18 -43 7 -33 35
-66 57 -66 7 0 18 -5 24 -11 6 -6 36 -11 67 -12 31 -1 56 -6 56 -12 0 -6 3 -5
8 1 4 6 32 14 62 18 49 5 116 30 130 47 3 4 16 10 30 14 21 6 101 64 120 86 3
3 12 8 21 11 50 19 2 123 -50 109z"/>
<path d="M1712 3373 c-6 -2 -10 -8 -7 -12 2 -5 -8 -8 -23 -9 -15 0 -44 -3 -64
-6 -26 -4 -45 -2 -61 8 -35 24 -65 17 -73 -17 -5 -24 -1 -35 22 -57 35 -34 45
-36 159 -26 58 5 96 13 108 24 45 40 -4 118 -61 95z"/>
</g>
</svg>
