<?xml version="1.0" standalone="no"?>
<!DOCTYPE svg PUBLIC "-//W3C//DTD SVG 20010904//EN"
 "http://www.w3.org/TR/2001/REC-SVG-20010904/DTD/svg10.dtd">
<svg version="1.0" xmlns="http://www.w3.org/2000/svg"
 width="505.000000pt" height="521.000000pt" viewBox="0 0 505.000000 521.000000"
 preserveAspectRatio="xMidYMid meet">
<metadata>
Created by potrace 1.16, written by Peter Selinger 2001-2019
</metadata>
<g transform="translate(0.000000,521.000000) scale(0.100000,-0.100000)"
fill="#000000" stroke="none">
<path d="M775 5144 c-78 -19 -164 -51 -224 -85 -67 -38 -153 -98 -164 -116 -4
-7 -26 -34 -48 -60 -70 -82 -74 -87 -104 -138 -99 -169 -121 -256 -119 -475 1
-163 48 -325 140 -477 45 -75 202 -224 274 -261 36 -18 71 -32 78 -32 6 0 12
-3 12 -8 0 -9 82 -39 172 -62 79 -21 259 -26 338 -10 116 24 284 94 343 143
14 12 40 33 58 47 17 14 35 27 38 30 4 3 38 43 76 90 38 47 71 87 75 90 3 3
14 25 24 50 10 25 28 68 41 95 25 56 51 162 61 245 12 111 -24 363 -59 408 -5
7 -7 15 -4 19 4 3 -2 18 -12 32 -10 14 -26 44 -35 66 -9 21 -20 42 -24 45 -4
3 -20 23 -37 45 -46 62 -47 64 -94 113 -24 25 -67 62 -95 81 -28 19 -57 41
-64 48 -7 7 -18 13 -24 13 -5 0 -24 6 -41 14 -66 29 -114 43 -157 45 -25 2
-53 7 -63 13 -25 13 -300 7 -362 -8z m380 -93 c81 -18 131 -36 145 -51 16 -18
68 -48 73 -43 6 5 88 -53 149 -106 48 -42 136 -164 158 -221 12 -30 25 -59 30
-65 4 -5 11 -28 15 -50 4 -22 12 -46 18 -53 7 -8 11 -69 11 -150 0 -185 -19
-259 -113 -443 -26 -50 -65 -93 -171 -189 -51 -46 -176 -117 -220 -125 -3 0
-21 -6 -40 -12 -95 -29 -152 -36 -272 -30 -124 6 -212 27 -308 74 -59 30 -193
125 -219 156 -43 51 -85 108 -101 136 -8 14 -27 46 -41 71 -15 25 -30 61 -34
80 -4 19 -12 40 -17 47 -5 7 -15 73 -21 147 -10 119 -9 147 7 228 10 51 22
104 28 118 79 187 203 332 358 418 55 31 188 77 245 85 64 10 234 -2 320 -22z"/>
<path d="M916 4911 c-10 -11 -16 -24 -13 -28 3 -5 9 -45 12 -88 4 -44 9 -91
12 -105 15 -90 7 -267 -12 -263 -35 7 -95 -101 -95 -170 0 -64 17 -86 88 -115
l64 -25 41 23 c64 35 97 70 97 102 0 23 4 28 24 28 35 0 77 18 104 43 13 12
26 21 28 19 9 -7 63 10 74 23 7 8 27 17 46 21 39 7 51 20 54 54 3 36 -9 68
-28 72 -21 6 -82 -19 -82 -32 0 -6 -11 -10 -24 -10 -13 0 -29 -7 -36 -15 -7
-8 -19 -15 -28 -15 -8 0 -24 -7 -33 -16 -10 -9 -35 -18 -56 -19 -20 -1 -42 -9
-47 -17 -8 -13 -14 -11 -41 16 l-32 31 -7 155 c-3 85 -9 180 -12 210 -2 30 -6
69 -8 85 -1 17 -6 36 -10 43 -11 19 -61 14 -80 -7z m87 -615 c4 -6 6 -20 5
-31 -2 -15 -11 -20 -33 -21 -39 -1 -63 20 -58 50 5 22 9 24 42 19 20 -4 39
-11 44 -17z"/>
<path d="M3394 3469 c-11 -4 -37 -8 -58 -8 -30 -1 -50 -10 -85 -38 -72 -59
-141 -132 -141 -148 0 -9 -6 -18 -14 -21 -22 -8 -48 -80 -97 -267 -10 -39 -8
-165 3 -183 3 -5 6 -20 6 -34 0 -14 13 -48 30 -75 16 -28 33 -60 36 -72 8 -25
56 -63 80 -63 9 0 16 -4 16 -8 0 -5 14 -8 30 -7 17 1 33 -1 35 -5 2 -3 -3 -38
-11 -76 -19 -84 -19 -83 -10 -111 7 -22 6 -22 -56 -17 -35 2 -81 6 -103 9 -22
2 -47 -2 -57 -9 -16 -12 -27 -63 -16 -81 4 -8 1 -668 -3 -725 -1 -8 -6 -20
-10 -26 -13 -16 -4 -115 11 -124 15 -10 73 -1 78 11 2 4 15 4 30 0 15 -4 52
-6 82 -5 30 2 118 3 195 3 171 -1 166 -1 190 0 54 3 98 -2 190 -21 55 -11 115
-23 134 -27 27 -5 36 -12 43 -36 8 -27 2 -160 -9 -210 -2 -11 -8 -69 -13 -130
-6 -60 -12 -121 -15 -135 -3 -14 -7 -45 -10 -70 -3 -25 -7 -58 -10 -75 -3 -16
-10 -61 -15 -100 -5 -38 -14 -95 -20 -125 -12 -67 -4 -117 21 -131 11 -5 52
-14 92 -19 104 -13 244 -37 257 -45 6 -4 22 1 35 9 18 12 25 25 25 49 -1 65
-3 66 -270 91 -19 2 -42 6 -50 10 -22 9 -24 64 -6 139 20 84 26 121 32 192 8
99 13 150 14 150 1 0 3 20 5 45 2 25 6 63 10 85 14 96 20 279 12 340 -3 17 -5
35 -6 42 0 6 -24 13 -53 16 -52 4 -158 36 -158 48 0 3 24 16 53 28 28 13 90
40 135 62 46 21 85 39 87 39 9 0 35 -73 35 -98 0 -17 4 -33 9 -37 5 -3 12 -20
16 -38 4 -17 18 -55 31 -83 13 -28 28 -71 33 -95 6 -24 17 -60 25 -80 8 -20
18 -52 21 -70 3 -18 10 -38 14 -44 11 -14 21 -51 27 -105 8 -71 32 -127 57
-134 21 -5 87 30 87 47 0 4 7 7 15 7 8 0 15 4 15 9 0 5 17 15 38 22 20 7 46
18 57 24 11 7 31 16 43 20 13 4 32 14 41 23 16 15 16 21 3 60 -12 37 -17 42
-40 37 -14 -2 -37 -15 -51 -29 -14 -13 -45 -30 -68 -37 -24 -7 -43 -16 -43
-21 0 -4 -5 -8 -11 -8 -6 0 -18 -7 -26 -16 -19 -18 -33 -4 -33 33 0 12 -4 24
-9 27 -5 3 -12 22 -16 42 -3 21 -22 84 -41 141 -19 56 -34 111 -34 121 0 9
-10 37 -21 62 -11 25 -22 52 -24 60 -16 71 -68 260 -77 278 -15 29 -39 28 -68
-3 -13 -14 -31 -25 -41 -25 -10 0 -21 -4 -24 -10 -8 -13 -107 -60 -127 -60 -8
0 -29 -11 -48 -25 -19 -14 -40 -25 -47 -25 -8 0 -41 -14 -74 -31 -60 -30 -116
-36 -112 -12 2 7 4 36 5 63 2 45 5 51 28 57 14 3 30 9 35 12 6 4 25 8 44 10
19 2 49 13 65 26 18 14 52 26 79 29 27 4 61 13 77 21 16 8 45 15 64 15 19 0
46 4 60 10 22 8 26 16 26 49 0 30 -5 42 -24 54 -27 18 -54 14 -109 -15 -25
-13 -48 -18 -67 -14 -16 3 -32 1 -35 -4 -3 -6 -14 -10 -23 -10 -9 -1 -33 -14
-52 -30 -25 -22 -45 -30 -73 -30 -21 0 -47 -5 -59 -11 -11 -6 -23 -8 -26 -4
-14 14 -11 268 5 390 21 158 15 175 -55 167 -49 -6 -162 -7 -248 -3 l-51 3 22
24 c22 24 30 54 39 142 4 51 7 54 66 72 25 8 60 29 77 47 18 18 37 33 43 33 6
0 9 4 6 9 -3 5 1 12 10 15 8 3 22 22 30 41 8 19 18 35 23 35 20 0 61 134 66
215 10 164 7 230 -11 320 -7 31 -54 106 -89 140 -48 47 -111 70 -151 54z m62
-120 c36 -13 65 -57 94 -144 19 -58 22 -81 17 -159 -12 -180 -80 -312 -195
-375 -36 -19 -54 -22 -100 -19 -82 6 -124 30 -147 80 -10 23 -18 48 -18 55 0
7 -4 13 -9 13 -4 0 -8 10 -8 23 -2 95 1 149 11 192 16 74 68 197 92 221 12 12
39 40 60 63 34 37 52 45 95 44 6 -1 12 3 12 8 0 12 61 11 96 -2z m-289 -1111
c15 -6 64 -15 108 -20 44 -5 96 -10 115 -12 19 -3 58 -5 87 -5 l52 -1 -4 -47
c-6 -63 -8 -135 -5 -148 1 -5 2 -46 1 -90 l-1 -80 -30 35 c-17 19 -35 34 -41
32 -6 -1 -8 2 -5 7 3 5 -4 22 -16 37 -29 39 -156 164 -166 164 -22 0 -42 -29
-44 -64 -2 -31 2 -42 21 -55 107 -73 221 -221 221 -286 0 -27 7 -39 31 -57 29
-22 30 -26 25 -71 -10 -71 -24 -96 -55 -95 -14 0 -60 -3 -101 -7 -41 -3 -97
-8 -125 -11 -27 -2 -66 -3 -85 -2 -19 1 -51 2 -71 2 l-36 0 1 61 c1 33 5 66
10 73 4 8 1 23 -8 38 -10 14 -12 23 -5 22 16 -4 19 22 24 227 3 99 6 212 8
250 1 39 -1 78 -5 87 -7 14 -2 17 29 21 21 2 39 4 40 5 1 1 14 -3 30 -10z"/>
<path d="M2275 3457 c-81 -23 -156 -78 -211 -152 -16 -22 -36 -45 -45 -52 -9
-7 -22 -27 -29 -45 -7 -18 -19 -40 -26 -48 -7 -8 -15 -26 -17 -40 -3 -14 -10
-38 -16 -53 -16 -41 -13 -163 5 -227 8 -30 16 -59 18 -65 11 -46 77 -128 130
-161 29 -18 36 -21 89 -31 23 -5 27 -10 27 -42 1 -20 3 -68 5 -107 l3 -72 -51
4 c-29 3 -72 7 -97 11 -25 3 -49 6 -53 5 -4 -1 -17 3 -28 9 -23 12 -79 -5 -79
-24 0 -6 -9 -20 -19 -31 -18 -19 -19 -28 -11 -94 6 -45 6 -101 0 -150 -10 -75
-21 -218 -24 -297 -1 -35 -4 -40 -26 -43 -14 -2 -34 -7 -45 -12 -11 -6 -31
-12 -45 -14 -14 -3 -25 -5 -25 -6 0 -2 -25 -9 -60 -16 -16 -3 -37 -8 -45 -11
-30 -12 -120 -15 -120 -4 0 25 -48 -40 -53 -72 -5 -32 -3 -37 21 -45 29 -10
92 -5 92 8 0 13 54 28 75 20 13 -5 37 2 70 20 28 15 73 31 100 34 l50 6 -3
-59 c-2 -33 -9 -65 -16 -71 -17 -13 -167 -52 -182 -46 -7 3 -43 0 -81 -5 -37
-5 -84 -12 -103 -14 -19 -3 -53 -10 -75 -16 -22 -6 -68 -12 -102 -13 -70 -3
-117 -27 -109 -54 3 -9 8 -55 11 -102 3 -47 10 -132 16 -190 13 -128 16 -197
24 -456 l6 -200 -23 -11 c-31 -15 -110 -33 -120 -27 -4 3 -18 -2 -30 -10 -13
-8 -41 -17 -63 -20 -22 -2 -40 -5 -40 -6 0 -2 -23 -5 -103 -13 -51 -5 -69 -21
-74 -62 -2 -20 -11 -34 -28 -42 l-25 -11 30 -2 c94 -6 215 3 237 16 20 13 238
65 271 66 33 0 40 5 56 37 18 33 19 91 2 91 -3 0 -7 60 -8 133 0 72 -3 166 -6
207 -6 85 -19 383 -21 479 -1 63 -1 64 29 73 17 5 54 11 82 13 29 2 62 9 72
15 11 5 37 11 59 13 21 2 43 6 48 9 5 3 35 6 66 7 32 0 66 4 75 10 10 5 39 12
66 16 39 6 47 5 47 -9 0 -20 49 -21 105 -2 22 8 82 14 133 15 51 0 97 3 102 6
8 5 42 -1 170 -33 36 -9 71 -16 78 -15 6 0 30 1 52 2 33 1 42 6 50 25 5 13 13
27 18 30 6 3 8 92 5 218 -5 257 -4 508 2 540 9 45 7 113 -4 141 -11 29 -53 38
-68 15 -12 -21 -12 -628 1 -628 7 0 8 -3 1 -8 -14 -9 -17 -140 -4 -164 7 -12
6 -18 -2 -18 -7 0 -9 -9 -5 -24 8 -34 -29 -55 -60 -34 -6 4 -25 8 -42 10 -18
1 -32 5 -32 8 0 7 16 6 -295 21 -5 0 -27 -3 -47 -7 -56 -10 -71 7 -62 70 4 28
7 60 7 72 0 11 4 21 11 21 62 4 168 17 196 24 31 8 38 16 62 76 15 38 30 82
34 98 4 17 17 53 29 80 12 28 20 55 18 61 -2 5 12 28 30 50 42 49 49 68 37 99
-13 33 -33 40 -70 25 -21 -9 -30 -19 -30 -36 0 -12 -4 -25 -9 -28 -10 -6 -41
-97 -41 -120 0 -8 -4 -16 -9 -18 -6 -2 -12 -15 -15 -30 -2 -14 -12 -38 -21
-52 -10 -14 -14 -26 -11 -26 4 0 0 -10 -8 -22 -9 -12 -16 -30 -16 -40 0 -23
-25 -35 -104 -52 -76 -16 -91 -10 -82 32 4 16 9 72 11 123 2 52 8 123 15 158
6 35 11 80 10 100 -1 20 -2 50 -1 68 l1 31 107 -4 c58 -2 112 -9 119 -15 7 -6
17 -9 21 -6 4 2 44 1 88 -3 44 -4 84 -3 89 2 6 4 18 8 27 8 18 0 29 19 29 49
0 26 -38 41 -129 51 -2 0 -1 12 2 27 3 15 -1 46 -8 69 -14 48 -7 103 15 115 8
4 37 18 64 30 51 23 55 27 116 95 84 93 100 134 115 289 3 33 7 69 9 79 2 17
-8 101 -19 156 -14 70 -19 87 -34 110 -24 38 -100 110 -116 110 -8 0 -17 5
-20 10 -3 6 -26 10 -51 10 -24 0 -44 5 -44 10 0 12 -13 11 -65 -3z m116 -119
c22 -12 39 -25 39 -30 0 -4 7 -8 14 -8 23 0 74 -60 80 -94 24 -134 12 -282
-30 -366 -36 -72 -92 -140 -115 -140 -11 0 -19 -4 -19 -8 0 -5 -20 -13 -45
-19 -34 -8 -58 -7 -101 4 -63 16 -67 19 -131 82 -61 61 -75 99 -75 198 1 77 4
89 41 165 23 46 59 103 81 127 22 25 40 47 40 51 0 13 122 57 164 59 10 1 36
-9 57 -21z"/>
<path d="M2633 2465 c-12 -9 -14 -26 -10 -86 3 -40 5 -101 5 -134 0 -33 0
-215 1 -405 2 -509 2 -498 -9 -505 -13 -8 -13 -51 -1 -74 10 -17 -10 -18 -400
-15 -266 1 -433 6 -477 14 -89 16 -109 7 -109 -49 0 -34 4 -41 28 -52 20 -8
33 -8 42 -1 7 6 77 8 182 6 273 -6 344 -6 355 1 5 3 10 1 10 -4 0 -6 7 -11 15
-11 8 0 15 -8 15 -17 0 -10 14 -27 30 -38 17 -11 33 -30 36 -42 3 -12 14 -29
25 -39 10 -9 19 -27 19 -38 0 -12 11 -35 25 -51 35 -41 115 -168 115 -181 0
-7 7 -15 16 -18 8 -3 12 -10 9 -16 -3 -5 -2 -10 4 -10 5 0 13 -9 16 -21 4 -11
20 -33 36 -49 25 -24 28 -30 16 -42 -10 -9 -16 -53 -20 -143 -4 -72 -7 -131
-7 -132 0 -1 -74 -2 -165 -1 -157 2 -166 1 -187 -19 -17 -17 -19 -25 -10 -36
7 -8 9 -16 6 -20 -3 -3 -1 -14 5 -25 8 -16 18 -19 48 -15 83 11 560 6 567 -6
6 -10 62 -8 94 3 21 7 23 13 18 53 -2 25 -9 50 -14 55 -15 15 -79 27 -90 16
-7 -7 -27 -7 -59 0 -26 5 -63 8 -81 5 l-34 -6 7 94 c5 82 7 193 3 239 -3 43 2
59 18 53 12 -4 15 -2 12 8 -6 15 32 74 64 99 10 9 20 25 21 37 0 11 6 19 12
17 10 -4 62 84 58 98 -2 4 1 8 5 8 5 0 18 17 30 39 12 21 29 44 37 51 8 7 12
16 9 21 -3 5 2 9 10 9 9 0 17 5 17 10 1 6 2 14 3 19 2 18 12 20 86 20 103 0
210 -8 243 -19 21 -7 29 -6 34 5 3 8 10 12 16 8 7 -4 75 -8 153 -9 77 -1 150
-4 161 -8 27 -9 53 22 55 66 2 50 -8 59 -60 58 -26 0 -56 -1 -67 -1 -11 0
-103 0 -205 0 -102 0 -205 0 -230 0 -97 -1 -220 0 -326 2 -61 1 -115 -1 -121
-4 -6 -4 -14 4 -17 17 -7 30 -9 668 -1 831 16 381 17 380 -42 387 -19 2 -41
-1 -50 -7z m185 -1314 l104 -1 -26 -31 c-14 -17 -24 -35 -20 -40 3 -5 1 -9 -4
-9 -5 0 -18 -17 -27 -37 -10 -21 -21 -40 -25 -43 -3 -3 -23 -33 -44 -67 -21
-35 -41 -63 -45 -63 -4 0 -13 -11 -19 -25 -6 -14 -18 -25 -27 -25 -8 0 -15 -5
-15 -11 0 -6 -6 -17 -14 -24 -12 -12 -18 -10 -42 19 -16 19 -34 42 -41 53 -7
10 -29 43 -49 73 -20 30 -40 65 -45 78 -5 12 -15 25 -24 28 -8 3 -13 10 -10
14 6 10 -15 60 -25 60 -12 0 -30 48 -19 52 5 2 78 2 161 1 84 0 200 -2 256 -2z"/>
</g>
</svg>
