<?xml version="1.0" standalone="no"?>
<!DOCTYPE svg PUBLIC "-//W3C//DTD SVG 20010904//EN"
 "http://www.w3.org/TR/2001/REC-SVG-20010904/DTD/svg10.dtd">
<svg version="1.0" xmlns="http://www.w3.org/2000/svg"
 width="529.000000pt" height="351.000000pt" viewBox="0 0 529.000000 351.000000"
 preserveAspectRatio="xMidYMid meet">
<metadata>
Created by potrace 1.16, written by Peter Selinger 2001-2019
</metadata>
<g transform="translate(0.000000,351.000000) scale(0.100000,-0.100000)"
fill="#000000" stroke="none">
<path d="M4702 3155 c-12 -9 -40 -15 -64 -15 -83 2 -154 -12 -228 -47 -112
-51 -139 -66 -160 -85 -11 -10 -26 -18 -35 -18 -8 0 -15 -4 -15 -10 0 -5 -12
-16 -27 -24 -16 -8 -46 -32 -68 -53 -22 -21 -52 -47 -66 -58 -24 -19 -129
-169 -129 -184 0 -4 -9 -16 -20 -26 -11 -10 -18 -20 -15 -23 2 -2 -6 -19 -18
-36 -36 -49 -46 -76 -61 -154 -8 -40 -19 -78 -25 -86 -7 -8 -44 -22 -84 -31
-40 -10 -76 -21 -82 -25 -5 -4 -23 -6 -40 -5 -27 2 -34 10 -78 101 -27 54 -53
101 -57 104 -4 3 -19 31 -33 63 -14 31 -32 58 -39 58 -24 2 -53 -3 -63 -11 -5
-4 -59 -17 -120 -29 -60 -12 -121 -24 -135 -26 -72 -15 -171 -25 -180 -20 -6
3 -10 2 -10 -3 0 -9 -63 -19 -170 -28 -108 -9 -210 -28 -395 -75 -147 -38
-331 -81 -355 -84 -8 -1 -26 -5 -40 -9 -47 -13 -284 -55 -339 -60 -67 -7 -78
-70 -22 -125 16 -15 32 -39 36 -52 4 -13 16 -33 26 -45 11 -11 21 -34 23 -50
2 -17 13 -47 25 -67 11 -20 19 -37 17 -37 -6 0 6 -36 39 -125 14 -38 28 -84
30 -102 3 -17 10 -44 15 -58 6 -15 8 -31 5 -36 -3 -5 -1 -17 4 -27 8 -15 4
-26 -19 -53 -16 -19 -29 -39 -30 -45 0 -6 -52 -63 -115 -127 -63 -63 -115
-117 -115 -120 0 -9 -72 -77 -81 -77 -5 0 -9 -4 -9 -9 0 -15 -162 -171 -179
-172 -23 -1 -41 -5 -88 -22 -22 -9 -44 -13 -47 -10 -3 4 -6 2 -6 -3 0 -5 -15
-10 -34 -11 -19 0 -54 -10 -78 -21 -24 -11 -63 -26 -88 -33 -25 -6 -76 -26
-115 -45 -38 -18 -90 -38 -114 -44 -25 -7 -65 -22 -90 -33 -25 -12 -62 -22
-81 -22 -36 0 -70 -28 -70 -57 0 -17 49 -141 59 -148 3 -3 15 -22 26 -42 11
-21 23 -38 26 -38 4 0 10 -15 14 -32 12 -61 25 -78 62 -78 20 0 41 8 53 20 24
24 27 82 5 100 -8 7 -15 20 -15 29 0 18 -29 54 -54 68 -8 5 -22 24 -30 43
l-14 35 41 17 c23 9 83 33 132 52 50 19 104 41 120 49 17 9 57 23 90 33 33 9
69 20 80 24 137 48 202 63 265 62 43 0 80 19 80 41 0 12 96 136 128 165 14 12
22 22 18 22 -4 0 10 15 30 32 58 51 139 140 137 149 -2 5 1 9 7 9 11 0 110 96
110 107 0 15 69 53 85 47 8 -3 15 -1 15 6 0 6 8 9 18 6 10 -4 53 3 96 14 43
12 104 23 135 26 31 2 68 9 83 15 24 10 31 7 68 -28 23 -21 47 -44 54 -51 6
-8 22 -25 35 -38 23 -23 23 -27 12 -67 -7 -23 -30 -67 -50 -97 -21 -30 -55
-89 -75 -130 -43 -85 -67 -129 -116 -215 -20 -33 -42 -73 -50 -90 -8 -16 -17
-32 -20 -35 -3 -3 -11 -16 -18 -30 -7 -14 -21 -38 -32 -55 -11 -16 -23 -37
-26 -47 -3 -9 -14 -18 -24 -21 -13 -3 -17 -12 -14 -37 5 -45 35 -63 103 -65
31 -1 90 -4 131 -8 41 -4 113 -9 159 -12 47 -3 87 -8 91 -10 4 -2 18 -6 33 -9
20 -3 32 2 47 21 30 38 24 93 -9 93 -10 0 -20 3 -24 6 -3 3 -59 7 -124 9 -198
5 -279 18 -243 40 6 4 24 35 40 70 16 35 35 69 42 77 7 8 42 72 78 143 35 72
69 135 75 142 22 27 31 39 43 63 7 14 23 43 37 65 27 42 45 81 45 94 0 5 9 19
19 33 30 38 32 124 4 135 -34 12 -104 76 -95 85 10 10 86 21 217 33 39 3 77 8
85 10 14 4 71 9 200 20 25 2 105 6 178 9 l132 7 0 -64 c0 -35 -3 -67 -7 -70
-7 -7 -10 -35 -17 -127 -2 -30 -6 -66 -10 -80 -16 -67 -16 -82 -1 -136 9 -33
26 -94 37 -138 11 -43 30 -95 41 -114 12 -20 22 -41 22 -47 0 -18 49 -130 62
-143 11 -11 19 -66 14 -95 -1 -5 9 -17 21 -27 21 -17 38 -18 183 -14 147 4
161 6 178 25 9 12 17 34 17 50 0 36 -28 52 -78 43 -48 -8 -197 -8 -211 0 -6 4
-11 15 -11 25 0 18 -16 63 -46 128 -8 17 -14 37 -14 45 0 7 -11 30 -25 50 -14
20 -25 44 -25 52 0 8 -4 18 -10 21 -5 3 -10 16 -10 28 0 12 -7 40 -15 63 -17
50 -26 142 -14 150 5 3 9 43 9 89 0 46 5 108 11 137 7 29 12 77 13 107 1 60
-8 54 106 65 58 5 82 10 170 30 14 3 51 11 83 17 32 5 70 15 83 21 35 16 52
-5 58 -67 2 -28 5 -50 6 -50 2 0 4 -10 5 -22 1 -12 10 -38 19 -57 9 -20 23
-53 32 -73 9 -21 20 -46 25 -56 6 -10 19 -53 30 -95 27 -100 25 -95 32 -112 6
-14 15 -74 16 -113 1 -12 20 -27 56 -43 30 -14 55 -29 55 -34 0 -4 10 -10 23
-14 12 -3 34 -18 49 -33 158 -160 323 -343 323 -357 0 -35 48 -53 145 -54 47
0 99 -3 115 -6 17 -4 53 -9 81 -13 46 -5 53 -3 68 18 22 32 20 72 -4 94 -16
15 -41 18 -144 20 -113 3 -127 5 -165 29 -22 15 -41 30 -41 34 0 4 -26 35 -57
68 -32 33 -73 77 -90 97 -18 21 -34 36 -36 35 -2 -2 -19 15 -38 37 -19 22 -47
51 -63 64 -15 14 -34 31 -41 38 -8 7 -21 13 -29 13 -9 0 -16 4 -16 8 0 4 -14
16 -30 25 -37 22 -55 56 -64 119 -4 26 -13 54 -20 61 -7 7 -16 30 -20 52 -4
22 -18 63 -31 90 -51 111 -80 209 -81 280 -1 39 -2 76 -3 83 0 7 -16 20 -34
28 -24 12 -42 33 -62 73 -16 31 -44 77 -62 104 -18 26 -33 51 -33 57 0 5 -9
15 -20 22 -11 7 -20 17 -20 23 0 6 -18 35 -40 64 -48 63 -44 72 35 93 28 7 53
16 56 21 3 4 10 7 15 6 5 -1 17 1 27 5 24 11 67 -1 74 -22 4 -9 16 -25 27 -34
12 -10 26 -22 32 -27 27 -22 119 -65 148 -68 71 -9 184 -7 226 3 73 18 75 19
80 24 9 9 44 29 75 44 17 7 39 23 51 34 18 17 60 47 123 87 8 6 24 21 35 35
11 14 46 49 78 79 32 30 58 60 58 67 0 7 4 14 10 16 10 3 51 73 76 131 9 20
20 37 25 37 5 0 9 7 9 16 0 9 6 28 14 42 56 106 68 208 32 277 -9 17 -16 34
-16 39 0 21 -109 119 -158 142 -62 28 -53 27 -80 9z m77 -134 c12 -10 21 -23
21 -30 0 -6 5 -11 10 -11 6 0 10 -7 10 -15 0 -8 6 -15 13 -15 8 0 14 -6 15
-12 1 -7 5 -29 10 -48 9 -37 -2 -110 -19 -121 -6 -3 -9 -10 -7 -15 3 -9 -20
-62 -43 -104 -5 -8 -13 -24 -18 -35 -5 -11 -25 -43 -44 -71 -20 -29 -33 -55
-30 -58 4 -3 -1 -6 -10 -6 -9 0 -35 -24 -59 -54 -24 -30 -47 -55 -51 -55 -9
-1 -26 -14 -63 -48 -14 -13 -38 -30 -54 -38 -17 -9 -30 -20 -30 -25 0 -6 -6
-10 -14 -10 -7 0 -24 -8 -37 -19 -13 -10 -58 -29 -98 -41 -68 -20 -81 -21
-155 -10 -91 13 -108 21 -151 63 -35 35 -53 68 -61 110 -2 17 -7 34 -9 38 -7
11 44 159 60 176 8 8 20 24 27 36 6 12 26 40 45 63 18 23 33 45 33 50 1 15 66
80 99 100 17 10 31 24 31 31 0 8 11 19 25 25 14 6 25 15 25 20 0 4 7 8 15 8 8
0 15 5 15 10 0 6 5 10 10 10 6 0 27 10 48 23 110 68 201 93 344 95 60 1 81 -3
97 -17z m-1486 -618 c-2 -38 -8 -81 -14 -98 -6 -16 -13 -60 -15 -97 -4 -69 -5
-74 -23 -198 -6 -41 -13 -104 -16 -140 -6 -89 -16 -152 -26 -171 -8 -16 -48
-22 -219 -35 -30 -2 -91 -7 -135 -11 -44 -3 -103 -7 -130 -8 -28 0 -56 -4 -63
-8 -7 -5 -12 -3 -12 4 0 8 -4 8 -12 2 -15 -12 -78 -21 -193 -29 -44 -2 -99
-10 -123 -16 -42 -11 -44 -10 -70 23 -40 49 -142 149 -153 149 -10 0 -69 57
-69 66 0 3 -21 24 -47 47 -26 23 -76 70 -111 105 -36 34 -68 62 -73 62 -5 0
-9 5 -9 10 0 6 -10 21 -22 34 -40 41 -60 68 -54 73 5 6 219 53 331 73 33 6 92
20 130 31 39 12 97 28 130 36 33 9 67 18 75 21 8 3 29 7 45 9 17 2 50 10 75
17 39 13 211 33 233 28 4 -1 7 1 7 5 0 5 19 8 43 9 23 0 94 8 157 16 63 9 122
16 130 16 8 0 35 5 60 12 63 16 110 25 145 28 l31 2 -3 -67z m147 -211 c10
-23 26 -50 35 -59 9 -9 28 -35 42 -57 14 -23 52 -78 84 -123 33 -44 59 -86 59
-92 0 -7 11 -24 25 -39 27 -29 33 -61 13 -64 -21 -2 -32 -5 -48 -10 -36 -14
-178 -38 -205 -35 -16 2 -41 -3 -55 -10 -14 -7 -38 -13 -54 -13 -27 0 -28 1
-21 38 9 46 11 59 19 157 4 44 9 103 12 130 4 28 7 61 9 75 4 35 15 118 21
160 l6 34 19 -24 c11 -14 28 -44 39 -68z m-1627 -313 c10 -8 34 -29 54 -46 20
-18 40 -33 44 -33 5 0 9 -6 9 -13 0 -21 51 -77 100 -110 54 -36 98 -76 111
-99 8 -14 -1 -19 -64 -33 -101 -23 -191 -29 -205 -13 -9 11 -17 45 -37 163 -6
30 -21 87 -32 115 -3 8 -8 23 -10 33 -2 11 -10 28 -18 40 -24 35 -19 54 8 30
12 -11 30 -26 40 -34z"/>
</g>
</svg>
