<?xml version="1.0" standalone="no"?>
<!DOCTYPE svg PUBLIC "-//W3C//DTD SVG 20010904//EN"
 "http://www.w3.org/TR/2001/REC-SVG-20010904/DTD/svg10.dtd">
<svg version="1.0" xmlns="http://www.w3.org/2000/svg"
 width="447.000000pt" height="463.000000pt" viewBox="0 0 447.000000 463.000000"
 preserveAspectRatio="xMidYMid meet">
<metadata>
Created by potrace 1.16, written by Peter Selinger 2001-2019
</metadata>
<g transform="translate(0.000000,463.000000) scale(0.100000,-0.100000)"
fill="#000000" stroke="none">
<path d="M3924 4409 c-30 -11 -33 -26 -28 -143 l4 -106 -28 -6 c-15 -3 -38
-10 -52 -14 -26 -9 -54 -13 -81 -11 -13 1 -15 10 -11 50 4 41 1 50 -18 64 -14
10 -30 12 -48 8 -26 -7 -27 -10 -28 -77 0 -38 6 -94 14 -124 8 -30 15 -66 16
-80 2 -14 4 -30 4 -37 3 -18 60 -27 78 -12 15 12 16 46 3 88 -3 9 17 21 61 37
36 13 70 23 77 24 12 0 16 -171 14 -560 0 -80 -1 -249 -1 -377 -1 -250 2 -239
-54 -250 -10 -2 -39 -19 -65 -37 -25 -19 -66 -39 -91 -46 -25 -7 -49 -15 -55
-20 -9 -7 -62 -21 -82 -22 -5 0 -20 -9 -34 -19 -15 -10 -35 -20 -45 -22 -11
-1 -24 -5 -29 -9 -6 -3 -34 -15 -63 -26 -61 -24 -76 -21 -172 32 -36 20 -81
43 -100 52 -110 51 -142 64 -157 64 -19 0 -135 58 -144 72 -13 20 -169 54
-169 38 0 -6 -4 -10 -10 -10 -5 0 -10 7 -10 15 0 24 -143 20 -199 -5 -24 -11
-51 -20 -61 -20 -10 0 -23 -7 -30 -15 -7 -8 -28 -17 -49 -21 -20 -3 -55 -12
-79 -20 -23 -8 -49 -14 -56 -14 -15 0 -43 167 -30 180 5 4 36 17 69 29 49 18
74 36 133 97 39 41 72 78 72 81 0 3 10 22 22 42 12 19 23 40 24 46 1 5 9 36
19 68 12 42 15 80 11 145 -9 155 -23 246 -45 287 -11 21 -21 47 -21 56 0 10
-11 30 -24 46 -13 15 -30 42 -39 58 -8 17 -29 45 -46 64 -17 19 -31 38 -31 42
0 4 -8 9 -18 13 -9 3 -39 20 -66 36 -46 29 -129 54 -140 42 -3 -3 -18 -6 -33
-7 -53 -5 -108 -25 -137 -50 -16 -14 -46 -30 -68 -35 -21 -6 -38 -15 -38 -20
0 -5 -17 -36 -37 -67 -44 -68 -65 -112 -58 -123 3 -4 -1 -23 -9 -41 -23 -58
-29 -259 -9 -301 6 -12 18 -54 27 -91 8 -38 25 -80 36 -94 11 -14 20 -29 20
-34 0 -4 9 -28 20 -53 11 -26 19 -49 19 -52 -1 -8 72 -96 104 -126 28 -26 65
-42 111 -50 11 -2 21 -10 23 -18 1 -8 9 -42 16 -75 8 -33 11 -79 8 -104 -6
-43 -8 -44 -58 -61 -29 -9 -58 -22 -65 -27 -7 -6 -47 -21 -88 -34 -41 -12 -77
-26 -80 -29 -3 -3 -22 -14 -42 -23 -21 -10 -38 -22 -38 -27 0 -6 -3 -10 -7
-10 -11 0 -38 64 -58 135 -33 117 -83 258 -109 305 -8 14 -17 41 -21 60 -4 19
-11 40 -15 45 -7 9 -26 59 -61 155 -32 90 -33 91 -187 168 -81 40 -177 92
-214 114 l-66 42 81 52 c45 29 99 62 120 74 20 11 37 25 37 31 0 6 4 8 9 5 5
-3 19 2 30 12 18 14 20 23 15 50 -4 19 -13 36 -20 39 -16 6 -72 -20 -104 -50
-48 -43 -106 -86 -136 -99 -16 -7 -38 -21 -48 -30 -11 -10 -27 -18 -36 -18 -9
0 -21 -5 -27 -11 -7 -7 -17 -7 -29 -1 -38 20 -102 34 -123 27 -25 -8 -29 -26
-16 -78 6 -22 3 -28 -16 -36 -13 -5 -53 -25 -88 -45 -35 -20 -64 -35 -65 -34
-1 2 -9 17 -19 33 -10 17 -25 44 -33 62 -7 18 -23 37 -34 43 -11 6 -20 19 -20
29 0 26 -29 49 -39 32 -4 -6 -12 -11 -17 -10 -5 1 -22 -3 -37 -9 -16 -7 -33
-12 -38 -12 -5 0 -9 -4 -9 -9 0 -5 -11 -11 -24 -15 -36 -9 -98 -71 -112 -112
-11 -31 -10 -40 3 -61 9 -13 19 -41 24 -61 9 -41 29 -131 33 -147 1 -5 14 -35
29 -66 15 -31 27 -59 27 -63 0 -5 9 -20 19 -35 17 -23 26 -27 53 -23 18 3 38
10 45 17 6 7 35 15 64 19 29 4 65 14 80 22 15 7 37 14 47 14 28 0 72 38 72 63
0 12 -14 49 -30 82 -45 90 -52 120 -32 138 20 18 150 86 209 110 l42 17 98
-53 c54 -29 107 -58 118 -65 42 -24 148 -72 159 -72 6 0 27 -13 46 -28 19 -16
45 -34 57 -40 12 -7 24 -25 28 -42 4 -16 11 -33 16 -36 13 -7 29 -49 36 -88 3
-16 11 -39 18 -50 7 -12 20 -43 30 -71 10 -27 25 -68 35 -90 9 -22 28 -76 40
-120 13 -44 26 -84 30 -90 4 -5 13 -44 20 -85 8 -41 19 -84 26 -95 7 -11 12
-34 12 -51 -1 -17 3 -37 8 -45 5 -8 9 -20 10 -27 2 -8 10 -22 18 -31 9 -10 16
-24 16 -32 0 -34 48 -143 137 -312 12 -23 31 -66 43 -96 11 -29 29 -72 39 -95
21 -48 59 -154 90 -247 12 -37 31 -84 41 -105 14 -27 17 -41 9 -50 -6 -8 -9
-34 -6 -61 3 -27 8 -100 11 -163 4 -63 9 -144 13 -180 8 -86 8 -119 1 -156 -6
-35 -35 -84 -49 -84 -5 0 -9 -8 -9 -19 0 -10 -7 -24 -15 -31 -8 -7 -15 -19
-15 -26 0 -8 -4 -14 -9 -14 -5 0 -12 -13 -16 -30 -4 -16 -11 -33 -17 -36 -11
-7 -108 -208 -108 -224 0 -6 -4 -18 -10 -28 -14 -25 -50 -110 -50 -117 0 -4
-9 -14 -19 -23 -11 -10 -21 -35 -24 -59 -8 -70 -7 -71 288 -77 79 -2 150 1
162 7 26 12 38 37 18 37 -11 0 -13 8 -9 28 8 41 -16 58 -64 44 -39 -11 -198
-9 -244 3 -27 7 -27 8 -13 36 8 15 15 37 15 47 0 11 14 48 31 82 17 34 37 79
44 99 7 20 25 56 39 81 14 25 33 59 42 75 9 17 20 32 23 35 3 3 13 18 21 35 8
16 32 47 53 68 l39 39 -6 66 c-3 37 -8 103 -12 147 -3 44 -8 83 -10 86 -4 7
-5 206 -1 249 1 14 9 30 18 37 14 10 126 37 204 47 73 11 171 32 186 41 6 4
28 9 49 11 21 2 65 12 97 23 32 11 81 22 108 25 28 3 66 8 85 12 29 5 33 4 23
-7 -7 -7 -13 -17 -13 -21 0 -4 6 -8 13 -8 18 0 75 -73 83 -106 4 -16 10 -31
13 -34 8 -6 61 -88 61 -94 0 -2 18 -23 40 -47 22 -24 40 -49 40 -56 0 -7 8
-17 18 -22 10 -5 29 -33 42 -63 13 -29 33 -65 43 -80 16 -25 17 -30 4 -55 -9
-16 -21 -55 -27 -88 -7 -33 -19 -73 -26 -90 -20 -43 -62 -212 -67 -265 -5 -50
-38 -182 -48 -190 -6 -5 -39 -109 -43 -136 -1 -7 -7 -19 -14 -27 -12 -14 -11
-81 1 -94 7 -6 26 -6 129 0 38 2 92 -1 120 -5 74 -13 106 -11 123 6 17 17 20
66 4 66 -6 0 -9 6 -6 14 8 20 -21 56 -44 56 -11 0 -27 -7 -36 -16 -12 -12 -32
-14 -95 -10 -44 2 -82 6 -84 9 -2 2 5 24 15 48 11 25 25 76 30 115 5 38 16 94
24 124 9 30 20 78 25 105 25 124 43 191 67 242 63 131 77 223 40 253 -8 7 -15
18 -15 25 0 7 -7 16 -15 19 -9 3 -27 31 -41 61 -14 30 -29 55 -34 55 -5 0 -28
28 -51 63 -23 34 -50 71 -60 82 -21 24 -69 111 -69 127 0 10 -53 83 -74 103
-14 12 -66 172 -66 201 0 12 -9 43 -19 70 -23 60 -81 277 -81 304 0 11 -11 63
-25 117 -33 126 -32 122 -44 161 -5 18 -10 35 -10 37 1 31 -16 123 -23 132 -5
7 -12 40 -15 74 l-6 62 61 -6 c37 -3 68 -12 78 -21 20 -21 80 -51 119 -60 17
-4 46 -14 65 -23 78 -34 145 -67 150 -72 6 -7 32 -22 91 -52 21 -12 47 -32 57
-46 30 -42 71 -39 121 7 24 22 49 40 57 40 8 0 33 9 54 20 22 11 40 17 40 13
0 -5 4 -3 8 2 4 6 30 18 57 27 152 51 180 62 183 70 2 4 9 8 15 8 6 0 19 7 29
17 13 12 18 13 18 3 0 -10 5 -9 18 3 22 20 38 22 44 5 2 -7 2 -438 1 -958 -2
-520 -3 -981 -2 -1025 3 -152 3 -201 -3 -397 -7 -211 -5 -222 41 -213 45 9 48
18 44 147 -5 169 -5 237 -4 693 0 220 -1 708 -2 1085 -2 537 1 688 11 698 17
19 16 112 -1 112 -12 0 -13 101 -9 603 2 331 3 620 2 642 -3 69 -4 109 -1 160
2 28 2 60 2 71 -1 24 -27 35 -57 23z m-1700 -414 c67 -66 134 -187 143 -255 2
-19 6 -46 9 -60 21 -108 11 -212 -30 -307 -12 -29 -44 -80 -72 -114 -82 -101
-211 -146 -310 -109 -28 11 -86 66 -111 106 -7 10 -24 36 -37 56 -14 20 -32
62 -42 92 -10 31 -22 56 -26 56 -5 0 -7 3 -4 8 2 4 -2 32 -10 62 -8 30 -15 80
-15 110 -1 68 19 212 37 263 14 38 48 76 70 77 7 0 14 7 17 15 12 30 131 71
227 78 41 2 107 -31 154 -78z m-1875 -383 c6 -11 23 -33 38 -50 16 -19 44 -77
66 -139 54 -153 54 -148 20 -161 -60 -23 -133 -34 -146 -23 -22 18 -66 114
-70 151 -2 19 -9 45 -15 56 -6 11 -11 29 -10 40 0 10 -3 33 -7 50 -6 26 -3 33
27 56 55 42 82 47 97 20z m2220 -867 c10 -38 23 -88 27 -110 4 -22 8 -44 10
-50 1 -5 8 -39 15 -75 7 -36 18 -68 24 -72 5 -4 7 -8 3 -8 -4 0 -2 -15 3 -32
13 -41 16 -58 30 -133 5 -33 12 -71 15 -85 3 -14 7 -38 9 -55 3 -16 16 -66 30
-109 14 -43 25 -91 25 -107 0 -15 4 -30 9 -33 4 -3 11 -25 15 -48 3 -24 8 -57
11 -74 6 -30 5 -30 -67 -52 -70 -20 -148 -38 -363 -81 -207 -41 -263 -50 -283
-44 -27 7 -46 37 -73 110 -11 32 -23 65 -27 73 -3 8 -7 22 -8 30 -1 8 -21 57
-43 109 -23 52 -41 99 -41 105 0 5 -6 17 -13 25 -7 9 -20 36 -27 60 -8 24 -19
45 -25 47 -7 3 -12 10 -12 17 0 7 -12 31 -26 54 -15 24 -27 53 -27 66 0 13 -4
27 -9 33 -17 17 -70 185 -64 201 4 11 -4 24 -22 39 -16 13 -26 27 -22 31 5 4
12 1 16 -6 13 -20 59 -16 85 8 12 11 60 35 107 52 46 18 112 42 146 55 34 12
77 29 95 37 18 9 44 17 58 20 14 3 63 17 110 31 162 51 210 63 210 56 0 -11
49 1 57 13 8 13 15 -3 42 -98z"/>
<path d="M910 3153 c-8 -3 -25 -9 -37 -15 -13 -7 -48 -9 -88 -5 -39 4 -65 2
-65 -3 0 -6 -7 -10 -15 -10 -10 0 -15 -10 -15 -32 0 -38 8 -52 32 -61 28 -10
11 -31 -50 -62 -31 -15 -74 -41 -94 -57 -20 -16 -62 -40 -93 -53 -31 -14 -65
-33 -75 -43 -11 -10 -49 -33 -86 -52 -36 -19 -75 -39 -85 -45 -23 -12 -24 -36
-2 -78 31 -62 64 -65 121 -12 38 35 106 84 177 127 33 21 72 48 88 61 15 14
41 30 57 37 17 7 30 16 30 21 0 5 5 9 10 9 6 0 29 12 51 27 34 22 42 24 50 12
5 -8 9 -20 9 -26 0 -7 5 -13 10 -13 6 0 10 -11 10 -24 0 -16 11 -32 29 -45 30
-22 51 -27 51 -13 0 4 10 12 22 17 20 9 26 27 46 139 25 136 22 167 -17 180
-9 3 -25 10 -36 14 -11 5 -27 7 -35 5z"/>
</g>
</svg>
