<?xml version="1.0" standalone="no"?>
<!DOCTYPE svg PUBLIC "-//W3C//DTD SVG 20010904//EN"
 "http://www.w3.org/TR/2001/REC-SVG-20010904/DTD/svg10.dtd">
<svg version="1.0" xmlns="http://www.w3.org/2000/svg"
 width="491.000000pt" height="449.000000pt" viewBox="0 0 491.000000 449.000000"
 preserveAspectRatio="xMidYMid meet">
<metadata>
Created by potrace 1.16, written by Peter Selinger 2001-2019
</metadata>
<g transform="translate(0.000000,449.000000) scale(0.100000,-0.100000)"
fill="#000000" stroke="none">
<path d="M3314 4037 c-30 -30 -63 -77 -79 -112 -15 -33 -35 -78 -46 -101 -10
-22 -19 -50 -19 -61 0 -11 -7 -34 -15 -49 -8 -16 -15 -39 -15 -51 0 -13 -6
-40 -14 -60 -8 -21 -24 -74 -36 -118 -50 -186 -51 -188 -134 -309 -40 -59
-151 -176 -167 -176 -5 0 -11 11 -15 25 -3 14 -10 25 -15 25 -5 0 -3 12 3 26
16 34 -2 46 -59 41 -23 -3 -44 0 -45 4 -4 12 -108 17 -108 5 0 -4 -17 -5 -37
-1 -21 4 -61 7 -90 6 -58 -1 -57 -2 -68 87 -5 35 -3 52 4 52 6 0 13 0 16 0 34
-1 205 119 205 143 0 6 9 20 19 31 11 12 31 55 44 96 21 63 24 85 17 136 -4
33 -12 69 -18 80 -5 10 -11 24 -12 29 -15 66 -109 185 -147 185 -4 0 -21 8
-38 17 -36 19 -169 23 -187 5 -7 -7 -20 -12 -29 -12 -9 0 -19 -7 -23 -15 -3
-8 -14 -15 -25 -15 -11 0 -21 -4 -23 -8 -1 -5 -25 -34 -52 -65 -69 -78 -86
-128 -93 -264 -4 -81 -3 -113 6 -113 6 0 11 -6 11 -14 0 -7 11 -25 25 -40 14
-15 25 -29 25 -32 0 -14 108 -105 130 -110 47 -11 52 -14 47 -33 -5 -20 5 -83
18 -113 8 -20 -15 -25 -149 -33 -121 -7 -172 -21 -196 -54 -31 -45 -33 -74
-12 -198 27 -157 30 -182 43 -363 15 -225 21 -287 34 -350 3 -14 8 -43 10 -65
3 -22 8 -48 11 -57 7 -22 -26 -25 -136 -15 -178 18 -193 11 -185 -84 3 -48
-24 -241 -48 -335 -8 -33 -21 -94 -27 -136 -14 -85 -17 -89 -87 -86 -49 3 -63
-7 -68 -50 -4 -34 17 -59 50 -59 32 0 164 26 183 36 46 25 64 71 27 71 -17 0
-11 93 10 180 8 30 17 80 20 110 3 30 13 80 21 111 7 31 14 73 14 93 0 41 -9
39 145 36 74 -1 104 -5 117 -17 17 -16 77 -13 158 7 40 10 77 18 135 29 22 5
53 12 70 16 28 8 29 7 13 -9 -10 -9 -23 -25 -30 -34 -7 -9 -27 -26 -43 -38
-17 -11 -55 -38 -85 -59 -30 -21 -62 -44 -70 -51 -57 -51 -93 -76 -131 -92
-24 -11 -50 -26 -57 -35 -8 -10 -14 -62 -18 -153 -2 -77 -5 -156 -7 -178 l-2
-38 -68 -3 c-77 -3 -98 -16 -103 -63 -5 -41 34 -68 77 -53 16 6 35 8 42 6 7
-2 38 -6 69 -9 56 -5 57 -4 67 26 6 17 13 81 16 142 10 197 13 248 17 250 62
45 187 144 198 157 8 10 28 25 43 33 30 15 57 35 166 127 36 30 96 77 134 103
46 33 69 56 73 74 3 15 10 36 15 47 24 54 31 150 32 467 1 153 3 278 5 278 3
0 69 -73 99 -109 11 -14 40 -48 62 -76 23 -27 44 -59 47 -71 5 -19 -59 -191
-75 -204 -14 -11 -31 -63 -31 -95 0 -36 20 -55 59 -55 23 0 39 27 66 110 10
30 21 57 24 60 4 3 19 41 35 85 30 83 36 132 19 144 -6 3 -13 15 -17 26 -6 19
-27 45 -114 140 -20 21 -54 62 -75 90 -37 49 -37 50 -15 53 14 2 34 18 48 40
14 20 51 64 83 96 31 33 57 67 57 75 1 14 2 14 10 0 5 -9 11 -25 13 -35 6 -33
35 -79 79 -125 51 -54 135 -112 149 -103 13 8 -38 -92 -68 -133 -12 -17 -23
-37 -23 -43 0 -6 -11 -27 -24 -48 -19 -31 -34 -63 -41 -92 -10 -36 -135 -289
-146 -296 -5 -3 -9 -14 -9 -25 0 -11 -9 -29 -20 -41 -11 -12 -20 -27 -20 -34
0 -7 -11 -25 -25 -40 -14 -15 -25 -32 -25 -39 0 -6 -12 -25 -26 -41 -14 -16
-34 -45 -45 -64 -11 -19 -34 -54 -52 -77 -18 -23 -54 -72 -82 -109 -27 -37
-62 -80 -77 -97 -16 -16 -28 -32 -28 -36 0 -3 -21 -28 -46 -56 -52 -58 -51
-57 -91 -115 -17 -25 -41 -57 -54 -71 -13 -14 -33 -38 -44 -53 -31 -44 -76
-100 -83 -106 -4 -3 -27 -30 -52 -60 -25 -29 -54 -64 -65 -77 -29 -33 -167
-170 -226 -223 -27 -25 -67 -61 -88 -80 -58 -52 -69 -60 -84 -60 -8 0 -20 -7
-28 -16 -7 -8 -25 -22 -41 -30 -16 -8 -26 -19 -23 -24 3 -5 1 -19 -6 -31 -6
-13 -11 -63 -10 -123 1 -65 -3 -108 -11 -122 -44 -73 -81 -124 -90 -124 -5 0
-24 -11 -41 -23 -76 -57 -230 -90 -349 -76 -34 4 -65 6 -69 3 -13 -8 -148 24
-190 45 -37 19 -193 142 -233 184 -20 21 -67 95 -70 109 -2 7 -6 22 -10 33
-15 38 -15 45 -6 69 5 14 28 33 57 47 26 12 50 25 53 28 3 4 21 19 40 35 103
84 280 253 280 268 0 4 6 8 14 8 7 0 40 30 72 68 32 37 94 101 136 144 43 42
78 81 78 87 0 5 10 21 23 35 12 13 40 45 62 71 22 25 67 74 100 108 112 117
173 234 129 251 -37 14 -64 6 -75 -21 -6 -15 -13 -30 -17 -33 -4 -3 -14 -19
-24 -35 -9 -17 -56 -72 -105 -122 -48 -51 -102 -109 -120 -130 -169 -199 -438
-483 -458 -483 -6 0 -28 -20 -49 -45 -22 -25 -46 -45 -53 -45 -7 0 -13 -5 -13
-11 0 -5 -17 -17 -37 -26 -21 -8 -44 -23 -53 -32 -24 -26 -78 -61 -93 -61 -35
0 -66 -119 -46 -177 7 -21 14 -44 15 -51 3 -19 62 -120 82 -140 9 -10 26 -29
37 -43 11 -13 43 -42 70 -64 28 -22 52 -42 55 -46 13 -17 102 -79 114 -79 7 0
27 -7 44 -15 49 -25 180 -46 287 -47 88 -1 141 6 235 28 14 4 48 7 75 8 66 3
87 10 190 57 28 12 61 27 75 33 13 6 32 19 42 28 10 10 25 18 33 18 8 0 36 14
62 30 26 17 54 30 63 30 9 0 25 9 35 20 10 11 22 20 27 20 4 0 16 8 26 17 10
10 29 25 42 33 70 44 242 222 347 357 12 15 39 49 61 76 21 26 47 64 58 85 50
92 78 139 100 169 13 17 24 34 24 37 0 6 80 127 90 136 3 3 16 25 29 50 13 25
40 68 60 95 20 28 43 62 50 77 8 15 22 36 31 45 9 10 36 51 61 91 24 40 51 83
59 96 8 12 34 51 57 87 23 35 52 75 63 89 38 46 96 125 115 158 20 33 35 41
35 20 1 -41 13 -131 25 -183 8 -33 19 -103 25 -155 23 -187 97 -556 136 -670
8 -25 17 -54 20 -65 8 -30 10 -39 17 -55 6 -16 33 -111 47 -170 5 -19 15 -53
24 -75 8 -22 15 -51 16 -64 0 -26 5 -43 44 -159 14 -40 23 -79 20 -86 -6 -17
38 -46 70 -46 47 0 56 60 18 118 -8 12 -11 22 -8 22 4 0 0 12 -7 28 -8 15 -20
51 -27 80 -6 28 -16 55 -21 58 -17 10 -10 44 10 44 10 0 38 7 62 15 44 16 226
28 233 16 2 -3 41 -4 86 -1 72 4 83 3 100 -15 20 -23 80 -158 80 -184 0 -9 15
-41 32 -71 18 -30 33 -64 35 -75 2 -11 12 -28 23 -37 17 -13 26 -15 50 -6 50
17 39 69 -46 214 -29 50 -27 64 8 42 28 -17 123 -24 133 -9 3 6 21 11 38 11
18 0 46 8 63 19 17 10 41 22 54 26 13 4 35 18 48 30 l25 23 -17 68 c-9 38 -21
90 -26 116 -5 26 -14 57 -21 70 -7 13 -12 25 -11 28 1 6 -23 98 -42 155 -7 22
-18 56 -23 75 -6 19 -18 60 -27 90 -20 67 -75 294 -81 335 -3 17 -7 46 -10 65
-3 19 -10 66 -15 104 -6 37 -12 71 -14 75 -2 3 -7 31 -10 61 -8 71 -14 102
-32 174 -9 33 -13 68 -11 78 3 10 1 20 -3 23 -9 6 -18 65 -25 180 -3 44 -8 97
-11 119 -10 66 -14 100 -14 126 0 14 -4 66 -10 115 -6 50 -13 142 -15 205 -9
251 -23 469 -30 481 -5 6 -9 46 -11 88 -12 300 -22 334 -116 381 -43 21 -48
22 -63 6 -9 -9 -23 -16 -31 -16 -8 0 -17 -7 -20 -15 -4 -8 -11 -15 -17 -15
-11 0 -73 -68 -77 -85 -3 -12 -39 -65 -58 -84 -8 -8 -30 -48 -48 -90 -19 -41
-38 -78 -42 -81 -12 -8 -46 -64 -48 -78 -4 -23 -54 -93 -72 -99 -9 -4 -37 -27
-62 -51 -25 -24 -58 -53 -75 -63 -16 -10 -26 -19 -22 -19 4 0 -2 -10 -14 -22
-12 -13 -38 -45 -59 -73 -20 -27 -47 -59 -60 -70 -12 -11 -31 -37 -41 -57 -22
-44 -30 -47 -44 -15 -6 12 -20 23 -32 25 -28 4 -105 78 -128 122 -21 40 -30
182 -15 227 5 16 11 46 13 68 2 22 23 96 47 165 24 68 43 137 42 152 0 15 3
28 7 28 4 0 15 22 25 49 9 27 26 57 37 67 10 9 19 22 19 29 0 41 94 74 107 38
14 -38 68 -49 91 -19 13 15 25 86 15 86 -5 0 -20 11 -34 24 -39 36 -64 46
-111 46 -38 -1 -48 -6 -94 -53z m-911 -140 c11 -1 43 -22 72 -47 42 -36 57
-57 75 -108 40 -111 18 -196 -74 -288 -72 -71 -100 -79 -190 -53 -67 19 -74
24 -121 84 -63 80 -69 106 -51 194 17 79 63 152 109 172 15 6 27 15 27 20 0
13 92 39 115 33 11 -3 28 -6 38 -7z m1762 -132 c0 -11 4 -23 8 -26 5 -3 13
-66 18 -140 9 -140 17 -208 25 -221 3 -4 7 -61 9 -126 2 -64 6 -149 9 -187 3
-39 8 -122 11 -185 8 -144 13 -204 25 -305 13 -114 19 -171 26 -245 3 -36 10
-81 14 -100 5 -19 14 -64 19 -100 6 -36 13 -81 16 -100 18 -103 48 -279 66
-383 10 -66 24 -128 30 -139 6 -10 14 -40 18 -66 14 -81 61 -252 107 -388 13
-39 24 -79 24 -90 0 -10 12 -57 25 -103 14 -47 25 -92 25 -101 0 -24 -87 -57
-170 -65 -55 -5 -81 -13 -97 -28 -13 -11 -26 -17 -30 -13 -13 12 -43 100 -43
124 0 12 -4 22 -8 22 -5 0 -19 35 -31 78 -13 42 -35 99 -48 126 -14 27 -27 72
-29 99 -3 28 -8 56 -12 61 -4 6 -7 13 -7 16 -3 21 -19 77 -25 90 -15 28 -46
162 -55 234 -1 12 -12 49 -24 83 -11 34 -21 75 -21 91 0 16 -7 49 -16 73 -25
68 -34 107 -49 199 -7 47 -18 103 -24 125 -6 22 -16 69 -22 105 -5 36 -12 74
-14 85 -2 11 -8 33 -14 49 -7 16 -14 59 -17 95 -2 36 -12 111 -20 166 -8 55
-17 118 -20 140 -2 22 -6 50 -9 62 -3 12 -8 68 -11 125 -6 112 -8 126 -18 178
-4 19 -9 51 -11 70 -2 19 -6 60 -10 91 -5 41 -4 59 6 70 14 15 28 39 77 134
14 28 42 75 61 105 20 30 45 72 56 92 11 20 42 62 69 93 43 48 54 56 80 53 23
-2 31 -8 31 -23z m-477 -597 c-3 -18 13 -130 28 -190 4 -20 -4 -49 -34 -112
-45 -94 -161 -308 -171 -316 -7 -6 -15 -19 -62 -100 -35 -60 -109 -172 -119
-180 -3 -3 -42 -52 -85 -110 -43 -58 -83 -106 -87 -108 -4 -2 -8 -9 -8 -16 0
-7 -11 -23 -25 -36 -14 -13 -25 -28 -25 -32 0 -5 -7 -16 -15 -24 -8 -9 -72
-102 -141 -207 -70 -106 -142 -212 -161 -237 -18 -25 -34 -49 -34 -55 0 -5 -9
-19 -19 -30 -10 -11 -30 -42 -45 -70 -14 -27 -34 -59 -43 -70 -9 -11 -24 -34
-32 -50 -8 -17 -23 -38 -32 -49 -9 -10 -24 -33 -33 -50 -8 -17 -26 -49 -39
-71 -14 -22 -34 -57 -46 -79 -11 -21 -26 -44 -33 -51 -7 -6 -23 -27 -37 -46
-14 -18 -39 -48 -57 -66 -17 -17 -34 -41 -38 -53 -7 -22 -222 -240 -236 -240
-9 0 -30 -16 -74 -56 -20 -19 -85 -53 -210 -110 -16 -8 -38 -20 -47 -26 -26
-18 -30 -6 -14 40 8 23 15 49 16 59 1 10 4 65 8 122 l7 105 49 26 c26 15 78
56 115 90 36 35 89 82 116 104 57 44 141 129 200 201 22 27 54 63 70 80 17 18
66 78 110 135 44 56 90 114 102 128 13 15 23 33 23 40 0 7 11 17 25 22 14 5
25 14 25 20 0 5 6 18 14 27 67 82 155 195 173 220 96 135 143 205 143 214 0 6
6 16 13 23 31 33 57 67 57 75 0 12 63 115 73 119 4 2 7 9 7 15 0 7 16 35 35
63 20 28 38 62 40 74 3 13 9 27 15 30 6 4 10 11 8 16 -1 5 3 19 10 31 6 12 13
30 15 40 8 43 145 306 182 347 6 6 16 22 23 36 7 14 21 40 32 58 11 17 17 32
14 32 -5 0 101 134 136 171 27 30 102 89 111 89 6 0 9 -6 7 -12z m-1012 -151
c11 -10 5 -714 -6 -781 -13 -79 -37 -125 -69 -132 -88 -19 -180 -41 -281 -67
-185 -49 -207 -47 -216 14 -3 19 -9 48 -15 64 -6 17 -13 50 -15 75 -3 25 -12
88 -20 140 -9 52 -17 136 -20 185 -8 161 -25 329 -40 386 -19 75 -18 75 14 87
45 17 77 23 232 41 68 8 426 -2 436 -12z m-671 -337 c3 -5 1 -10 -4 -10 -6 0
-11 5 -11 10 0 6 2 10 4 10 3 0 8 -4 11 -10z m1756 -39 c1 -33 7 -77 13 -107
7 -30 6 -31 -20 -26 -15 3 -29 0 -34 -8 -4 -6 -34 -18 -66 -25 -33 -7 -68 -16
-79 -20 -19 -8 -19 -7 -4 11 15 17 67 107 93 161 12 24 24 29 69 29 18 1 27
-5 28 -15z m58 -376 c37 -161 37 -152 -12 -153 -48 -1 -126 -10 -136 -16 -3
-2 -31 -7 -61 -11 -30 -3 -62 -8 -70 -10 -8 -2 -40 -6 -72 -9 l-56 -6 -1 79
c-1 70 2 82 27 118 15 21 32 48 38 58 10 18 61 31 204 50 19 2 51 8 70 13 42
10 40 13 69 -113z m61 -312 c15 -76 46 -213 55 -238 6 -19 1 -20 -103 -21
-112 -1 -210 -10 -324 -28 -34 -5 -38 -4 -39 17 0 12 -2 36 -5 52 -22 168 -24
178 -29 195 -4 13 9 18 67 28 40 7 96 14 123 17 28 3 73 10 100 15 46 9 83 15
127 19 13 1 19 -13 28 -56z m51 -378 c5 -4 9 -1 9 4 0 6 6 11 13 11 14 0 60
-146 84 -271 l10 -46 -41 0 c-23 -1 -90 -7 -150 -16 -60 -8 -152 -14 -205 -13
-87 1 -96 3 -99 21 -2 11 -9 36 -16 55 -8 19 -17 67 -21 105 -4 39 -11 78 -16
87 -16 30 0 48 45 49 22 0 68 6 101 14 58 12 265 12 286 0z m163 -467 c24 -88
32 -115 56 -183 14 -38 19 -65 13 -74 -7 -10 -47 -14 -178 -17 -94 -2 -201 -6
-238 -8 -70 -4 -76 -1 -86 46 -1 4 -8 23 -16 42 -8 20 -15 46 -15 60 0 13 -8
44 -18 68 -11 24 -22 55 -26 71 l-6 27 137 0 c76 -1 161 3 188 9 28 5 72 9 99
10 27 0 51 3 54 6 13 13 21 1 36 -57z"/>
</g>
</svg>
