<?xml version="1.0" standalone="no"?>
<!DOCTYPE svg PUBLIC "-//W3C//DTD SVG 20010904//EN"
 "http://www.w3.org/TR/2001/REC-SVG-20010904/DTD/svg10.dtd">
<svg version="1.0" xmlns="http://www.w3.org/2000/svg"
 width="435.000000pt" height="441.000000pt" viewBox="0 0 435.000000 441.000000"
 preserveAspectRatio="xMidYMid meet">
<metadata>
Created by potrace 1.16, written by Peter Selinger 2001-2019
</metadata>
<g transform="translate(0.000000,441.000000) scale(0.100000,-0.100000)"
fill="#000000" stroke="none">
<path d="M3660 4140 c0 -6 -8 -10 -18 -10 -10 0 -22 -3 -26 -7 -8 -9 -18 -10
-208 -32 -87 -10 -164 -24 -173 -31 -8 -7 -15 -26 -15 -41 0 -38 30 -50 108
-44 82 7 162 8 168 3 6 -7 -113 -68 -133 -68 -8 0 -36 -11 -62 -24 -66 -34
-112 -53 -146 -62 -16 -4 -39 -13 -50 -20 -11 -8 -34 -14 -52 -14 -17 0 -35
-4 -38 -10 -3 -5 -15 -10 -25 -10 -10 0 -20 -4 -22 -9 -1 -6 -34 -15 -73 -21
-38 -6 -79 -14 -90 -19 -44 -20 -90 -31 -129 -31 -23 0 -66 -9 -96 -19 -30
-11 -66 -21 -80 -23 -14 -1 -27 -6 -30 -9 -3 -4 -57 -10 -120 -13 -63 -4 -168
-11 -233 -17 -64 -5 -121 -8 -125 -5 -4 2 -64 7 -132 11 -69 3 -138 9 -155 12
-16 4 -40 6 -51 4 -12 -1 -49 5 -83 14 -66 17 -147 33 -200 41 -57 7 -235 45
-241 50 -2 3 19 2 47 -2 51 -6 52 -6 59 22 4 16 11 35 17 42 6 8 6 12 -1 12
-5 0 -15 13 -22 30 -14 35 -46 56 -80 54 -14 -1 -59 -11 -100 -22 -41 -11
-100 -23 -130 -25 -30 -3 -63 -8 -73 -12 -10 -5 -17 -3 -17 5 0 10 -4 9 -16
-1 -11 -9 -18 -9 -22 -2 -10 16 -56 -27 -60 -55 -2 -14 9 -38 27 -61 17 -21
31 -42 31 -46 0 -15 35 -81 57 -109 13 -15 30 -43 37 -60 7 -17 31 -52 52 -77
21 -26 44 -54 49 -63 16 -26 62 -30 86 -7 12 11 18 24 15 29 -3 6 -1 12 5 14
17 6 -6 47 -42 76 -16 13 -41 43 -55 68 -14 24 -31 44 -37 44 -6 0 -8 3 -4 6
3 4 -6 22 -20 41 -14 18 -24 35 -22 37 2 2 33 -2 69 -10 122 -27 159 -33 222
-40 35 -4 74 -11 87 -16 14 -5 54 -11 90 -14 36 -3 68 -9 71 -13 3 -4 21 -11
40 -14 19 -3 46 -9 60 -12 14 -4 39 -8 55 -10 17 -2 46 -6 65 -9 45 -7 264
-19 355 -19 126 -1 379 15 435 28 30 6 64 10 75 9 11 -2 29 0 40 5 42 19 92
33 139 38 27 3 83 16 123 29 41 13 88 24 106 24 18 0 54 11 81 25 27 14 57 25
66 25 44 0 250 85 265 110 3 5 22 10 40 10 19 0 43 7 54 17 11 9 33 22 49 29
28 11 29 11 24 -9 -3 -12 -16 -35 -29 -50 -12 -16 -23 -32 -23 -37 0 -4 -8
-10 -19 -13 -24 -6 -34 -57 -14 -79 34 -38 113 -23 113 22 0 10 7 25 15 34 8
8 15 18 15 22 0 4 6 15 13 23 7 9 19 34 26 56 25 78 63 146 97 173 33 26 41
52 28 86 -3 9 -15 16 -25 16 -11 0 -22 6 -25 14 -7 17 -34 30 -34 16z"/>
<path d="M2095 3202 c-27 -8 -68 -27 -90 -43 -22 -15 -59 -33 -82 -40 -24 -7
-43 -16 -43 -20 0 -4 -13 -10 -30 -14 -17 -4 -30 -13 -30 -21 0 -8 -8 -18 -17
-21 -31 -12 -96 -62 -159 -123 -45 -45 -72 -83 -109 -157 -27 -54 -51 -100
-54 -103 -3 -3 -15 -21 -25 -40 -27 -50 -54 -84 -108 -141 -27 -28 -48 -54
-48 -59 0 -5 -12 -16 -27 -24 -16 -8 -43 -29 -61 -45 -19 -17 -43 -33 -54 -37
-12 -3 -31 -17 -43 -30 -12 -13 -29 -24 -37 -24 -9 0 -21 -6 -27 -13 -6 -8
-29 -20 -51 -27 -22 -7 -45 -19 -51 -27 -6 -7 -17 -13 -23 -13 -7 0 -28 -8
-47 -18 -19 -10 -62 -24 -95 -31 -32 -7 -86 -19 -119 -27 -86 -20 -111 -24
-192 -31 -62 -5 -72 -9 -82 -29 -7 -16 -7 -32 0 -53 10 -27 15 -30 42 -26 49
7 90 16 98 21 4 2 50 11 101 18 159 24 358 88 358 116 0 6 13 10 28 10 25 0
177 84 209 116 7 7 29 22 50 35 37 22 113 97 113 112 0 4 4 7 10 7 8 0 29 20
108 105 6 8 12 18 12 24 0 6 5 11 10 11 6 0 10 6 10 14 0 8 6 21 14 28 7 8 26
41 41 74 16 32 31 61 34 64 3 3 15 23 26 45 24 48 125 149 190 190 76 48 138
83 173 99 18 9 39 22 47 29 19 19 93 29 131 18 17 -5 50 -5 73 -1 54 10 161 4
174 -9 6 -6 19 -11 29 -11 10 0 18 -5 18 -11 0 -5 4 -8 8 -5 5 3 24 -8 43 -25
19 -16 37 -29 41 -29 3 0 32 -24 64 -53 58 -55 64 -77 19 -77 -27 0 -169 -84
-237 -141 -26 -22 -49 -35 -53 -29 -3 5 -18 10 -32 10 -15 0 -34 7 -43 15 -20
18 -104 35 -175 35 -58 0 -84 -19 -81 -58 3 -32 21 -46 58 -43 68 4 84 4 116
-4 18 -4 35 -12 38 -16 3 -5 12 -9 21 -9 34 0 160 -72 207 -118 l50 -48 38 20
c29 16 38 27 38 47 0 26 -27 59 -48 59 -7 0 -12 5 -12 10 0 6 -6 10 -12 10 -7
0 -24 9 -36 18 l-24 18 27 18 c26 17 57 41 79 62 6 6 45 23 86 38 41 16 84 32
95 37 78 33 203 21 238 -23 10 -13 29 -34 41 -48 55 -63 82 -139 55 -155 -6
-4 -8 -13 -5 -20 6 -17 -14 -59 -66 -136 -21 -32 -38 -61 -38 -64 0 -8 -122
-149 -132 -153 -5 -2 -8 -10 -8 -17 0 -8 -9 -16 -20 -20 -10 -3 -33 -24 -51
-46 -36 -46 -34 -83 6 -101 23 -10 30 -6 92 53 76 73 166 181 236 285 44 65
50 71 75 65 15 -3 34 -10 42 -16 15 -10 51 -72 50 -87 0 -5 9 -31 19 -59 11
-28 17 -57 14 -65 -3 -8 0 -14 7 -14 9 0 11 -14 7 -52 -12 -102 -18 -130 -32
-144 -8 -8 -22 -28 -31 -44 -10 -15 -28 -34 -41 -41 -13 -7 -23 -16 -23 -21 0
-4 -4 -8 -9 -8 -6 0 -57 -46 -115 -102 -173 -170 -216 -208 -231 -208 -8 0
-15 -4 -15 -9 0 -5 -13 -11 -30 -15 -36 -7 -41 -40 -10 -76 16 -18 26 -21 54
-16 19 4 39 13 46 21 7 8 18 15 25 15 6 0 28 17 48 38 19 20 48 48 64 61 15
13 71 64 123 113 109 103 116 104 141 12 13 -50 13 -62 2 -85 -15 -31 -237
-259 -251 -259 -6 0 -12 -7 -15 -14 -3 -8 -24 -20 -46 -26 -21 -6 -52 -17 -68
-25 -15 -8 -36 -15 -45 -15 -10 0 -18 -4 -18 -8 0 -5 -6 -9 -12 -10 -88 -11
-156 -26 -170 -39 -30 -27 -23 -70 13 -92 20 -12 38 -17 48 -11 24 11 85 30
101 30 8 0 34 9 59 21 55 24 129 59 153 70 9 5 20 5 23 0 7 -12 -5 -41 -16
-41 -5 0 -9 -4 -9 -10 0 -11 -15 -30 -59 -76 -39 -41 -72 -64 -93 -65 -19 -2
-35 -5 -43 -9 -3 -1 -8 -3 -12 -4 -204 -46 -689 -64 -848 -31 -44 9 -105 21
-135 26 -30 6 -59 14 -65 20 -5 5 -16 9 -25 9 -8 0 -48 14 -88 32 l-72 32 -33
-31 c-40 -38 -117 -56 -199 -47 -40 5 -62 3 -73 -6 -8 -7 -34 -12 -57 -12 -23
1 -53 -6 -67 -13 -15 -8 -53 -23 -86 -34 -33 -11 -89 -35 -125 -53 -36 -18
-96 -46 -133 -62 -37 -16 -67 -33 -67 -38 0 -5 -4 -7 -9 -4 -4 3 -36 -8 -71
-25 -46 -22 -71 -29 -101 -25 -34 4 -42 0 -69 -30 -46 -53 -37 -106 21 -118
23 -4 38 -1 51 10 10 10 18 14 18 10 0 -4 13 2 29 13 16 12 34 21 40 21 10 0
198 96 216 110 6 5 13 9 18 9 4 0 20 7 35 14 15 8 44 20 65 26 20 7 37 16 37
20 0 4 6 8 13 8 7 0 57 17 111 38 l97 39 72 -25 c60 -20 81 -34 137 -90 36
-36 90 -85 120 -110 30 -24 66 -54 79 -66 13 -13 29 -23 35 -23 6 0 31 -14 55
-30 24 -17 53 -30 63 -30 10 0 28 -9 40 -20 11 -10 35 -22 52 -25 17 -4 40
-13 51 -19 11 -7 45 -19 75 -26 30 -7 72 -19 93 -26 21 -8 43 -12 48 -8 5 3
15 1 22 -4 7 -5 57 -10 112 -10 75 0 106 4 128 16 22 14 31 14 47 4 11 -6 28
-12 39 -12 10 0 36 -16 57 -35 59 -53 96 -67 182 -68 91 -1 159 9 187 27 11 7
33 13 50 12 18 -1 39 8 54 22 13 12 31 22 39 22 14 0 102 37 144 60 10 6 24
10 31 10 7 0 22 10 34 22 53 55 83 92 83 102 0 6 6 23 14 38 8 15 17 40 21 57
4 17 11 33 16 36 5 4 9 16 9 29 0 13 9 33 20 46 11 13 20 32 20 42 0 10 8 31
17 45 18 28 19 83 1 94 -6 4 -2 12 10 18 32 17 132 172 132 203 0 5 8 20 17
35 19 28 23 74 9 85 -6 4 -6 12 1 20 14 18 25 146 12 153 -5 4 -7 10 -4 15 3
4 -2 24 -10 44 -8 20 -15 38 -15 41 1 70 -16 98 -67 111 -15 4 -39 18 -53 31
-13 12 -28 23 -31 23 -8 0 -79 69 -79 77 0 4 -10 17 -22 30 -15 16 -19 27 -12
31 20 13 34 50 33 84 -1 18 1 74 4 123 3 50 1 98 -4 107 -5 9 -10 28 -11 42
-1 15 -6 26 -11 26 -4 0 -5 5 -2 10 3 6 2 10 -4 10 -6 0 -13 11 -17 25 -3 14
-18 49 -33 77 -19 38 -36 56 -66 70 -22 11 -47 23 -55 27 -11 6 -15 28 -16 83
-2 72 -12 108 -41 136 -7 7 -13 19 -13 25 0 7 -25 38 -56 70 -45 47 -67 61
-120 79 -57 18 -74 20 -125 12 l-59 -10 0 31 c0 33 -11 44 -120 116 -30 20
-65 46 -77 58 -12 11 -26 21 -31 21 -5 0 -20 9 -34 19 -33 27 -124 41 -248 40
-58 0 -114 1 -125 4 -11 2 -42 -3 -70 -11z m1399 -1545 c16 -15 32 -27 37 -27
12 0 39 -60 39 -87 0 -12 4 -23 8 -23 4 0 9 -18 10 -40 2 -34 0 -40 -17 -40
-12 0 -43 -13 -69 -30 -27 -16 -52 -30 -56 -30 -4 0 -32 -16 -62 -35 -30 -19
-60 -35 -67 -35 -7 0 -17 -4 -22 -9 -13 -11 -98 -32 -104 -25 -3 3 0 14 7 24
7 11 12 33 12 49 0 22 15 44 63 93 83 86 102 110 121 150 18 38 27 108 14 108
-4 0 -8 9 -8 21 0 23 7 18 94 -64z m47 -398 c-12 -22 -21 -44 -21 -50 0 -17
-51 -79 -66 -79 -7 0 -18 -8 -23 -17 -6 -10 -11 -14 -11 -9 0 5 -8 2 -17 -6
-10 -9 -36 -21 -58 -28 -22 -7 -51 -19 -63 -27 -13 -8 -26 -12 -29 -10 -7 8
-115 -63 -131 -85 -7 -10 -20 -18 -28 -18 -8 0 -14 -4 -14 -10 0 -5 -6 -10
-14 -10 -7 0 -19 -6 -25 -14 -13 -15 -61 -28 -61 -15 0 4 -13 7 -28 7 -29 -1
-131 29 -146 42 -4 5 14 12 40 15 54 8 110 29 134 49 8 7 31 19 50 25 34 11
80 64 80 93 1 27 28 48 61 48 53 0 356 131 376 163 18 29 13 -27 -6 -64z
m-1963 -281 c8 -8 40 -13 75 -14 34 0 87 -8 117 -16 54 -16 162 -34 270 -45
30 -3 60 -9 65 -12 6 -4 31 -6 58 -5 38 3 52 -1 73 -21 15 -14 34 -25 43 -25
22 0 160 -69 183 -92 10 -10 18 -22 18 -28 0 -5 4 -10 8 -10 5 0 13 -19 18
-43 11 -47 6 -56 -50 -91 -18 -12 -26 -13 -21 -5 6 11 5 12 -6 2 -7 -7 -23
-13 -35 -13 -13 0 -25 -4 -29 -9 -6 -10 -51 -6 -125 10 -50 12 -115 21 -142
21 -10 -1 -18 3 -18 7 0 5 -21 14 -47 22 -27 7 -79 29 -118 49 -38 20 -72 36
-75 37 -14 1 -56 16 -60 22 -3 3 -25 20 -50 36 -25 17 -60 44 -79 62 -18 18
-41 35 -51 38 -9 3 -22 17 -28 30 -7 14 -19 28 -27 31 -8 4 -15 12 -15 20 0 7
-8 17 -17 23 -16 9 -16 11 7 20 34 13 44 13 58 -1z m1807 -50 c-42 -136 -88
-258 -97 -258 -5 0 -8 -8 -8 -17 0 -16 -16 -29 -90 -71 -14 -8 -54 -25 -90
-39 -36 -13 -72 -31 -80 -38 -17 -15 -150 -52 -218 -60 -32 -4 -44 -1 -48 10
-4 8 -10 12 -15 9 -10 -6 -69 26 -69 38 0 4 -7 5 -15 2 -8 -4 -15 -2 -15 3 0
6 -12 15 -27 22 -17 8 -23 15 -16 19 12 8 26 62 25 95 0 9 4 17 9 17 6 0 3 10
-5 22 -9 12 -16 33 -16 46 0 32 -95 125 -143 141 -44 15 -49 31 -9 31 15 1 52
3 83 6 48 5 59 3 70 -14 18 -25 46 -38 89 -41 34 -2 189 -48 258 -77 45 -19
69 -18 99 6 14 11 32 20 39 20 8 0 14 4 14 9 0 5 8 12 18 15 10 4 36 22 58 42
43 39 77 59 144 85 68 26 70 25 55 -23z"/>
</g>
</svg>
