<?xml version="1.0" standalone="no"?>
<!DOCTYPE svg PUBLIC "-//W3C//DTD SVG 20010904//EN"
 "http://www.w3.org/TR/2001/REC-SVG-20010904/DTD/svg10.dtd">
<svg version="1.0" xmlns="http://www.w3.org/2000/svg"
 width="345.000000pt" height="427.000000pt" viewBox="0 0 345.000000 427.000000"
 preserveAspectRatio="xMidYMid meet">
<metadata>
Created by potrace 1.16, written by Peter Selinger 2001-2019
</metadata>
<g transform="translate(0.000000,427.000000) scale(0.100000,-0.100000)"
fill="#000000" stroke="none">
<path d="M2016 4071 c-9 -14 -117 -44 -159 -44 -22 0 -78 -13 -124 -28 -47
-16 -98 -29 -114 -29 -29 0 -35 -2 -97 -34 -17 -10 -36 -15 -41 -11 -5 3 -12
1 -16 -5 -3 -5 -16 -10 -28 -10 -12 0 -35 -7 -50 -15 -15 -8 -45 -17 -65 -21
-20 -3 -91 -33 -158 -65 -67 -32 -128 -59 -136 -59 -8 0 -36 -14 -64 -32 -27
-18 -51 -32 -54 -33 -5 0 -180 -88 -220 -110 -62 -35 -222 -192 -250 -246 -10
-19 -26 -41 -34 -48 -9 -8 -16 -18 -16 -23 0 -5 -11 -24 -24 -41 -13 -18 -26
-43 -29 -57 -4 -14 -18 -37 -32 -52 -14 -15 -25 -33 -26 -40 0 -7 -13 -35 -29
-63 -49 -83 -62 -115 -67 -159 -2 -16 -10 -40 -18 -52 -8 -13 -15 -42 -15 -65
0 -22 -6 -55 -14 -72 -30 -68 -45 -117 -50 -158 -5 -42 -19 -222 -18 -244 1
-37 11 -116 20 -150 6 -22 13 -62 15 -90 3 -27 10 -61 15 -75 5 -14 10 -28 10
-33 4 -70 101 -290 178 -402 11 -16 25 -42 32 -57 15 -36 82 -109 93 -102 5 3
9 -1 9 -8 0 -14 31 -54 88 -111 33 -34 80 -70 162 -124 14 -9 44 -29 67 -45
23 -15 48 -28 56 -28 7 0 29 -7 47 -17 19 -9 55 -18 82 -21 54 -5 163 15 181
33 7 6 17 10 23 8 5 -2 21 8 34 22 13 14 29 25 36 25 7 0 18 8 23 18 17 31
101 63 181 67 14 1 39 2 57 3 57 3 153 115 153 178 0 34 14 37 73 18 l53 -16
70 33 c38 18 71 36 74 40 3 3 14 9 26 13 11 3 30 15 42 26 l22 20 24 -37 c13
-21 52 -68 87 -104 57 -59 69 -67 109 -71 55 -5 123 6 128 21 2 6 12 11 22 11
10 0 20 7 24 15 3 8 12 15 20 15 16 0 68 61 74 88 2 9 5 98 6 197 3 214 12
245 99 345 7 8 24 30 36 48 17 24 30 32 46 30 24 -3 55 17 55 36 0 6 12 20 27
31 15 11 38 31 52 44 14 13 37 31 51 39 75 48 191 155 246 227 41 52 154 240
154 254 0 6 4 11 8 11 6 0 33 73 37 100 1 3 11 27 23 54 42 93 54 174 41 286
-12 101 -15 113 -49 186 -18 38 -33 75 -34 82 -1 7 -8 18 -14 24 -7 7 -12 22
-12 34 0 12 -7 27 -15 34 -8 6 -17 21 -21 33 -8 27 -78 123 -115 159 -15 14
-31 32 -36 40 -4 7 -30 31 -58 53 -27 21 -57 47 -66 57 -9 10 -20 18 -24 18
-14 0 -80 34 -90 47 -9 11 -94 35 -112 31 -12 -2 -81 30 -87 41 -3 5 -30 12
-59 16 -28 4 -77 15 -107 25 -67 23 -126 32 -205 35 -33 0 -65 4 -70 7 -6 3
-29 4 -52 3 -24 -2 -40 1 -38 6 3 5 -7 11 -22 15 -15 3 -33 7 -40 9 -7 2 -15
0 -17 -4z m104 -95 c19 -2 83 -15 141 -29 59 -14 131 -29 160 -33 30 -3 75
-15 101 -26 27 -12 61 -18 78 -16 16 2 31 2 32 -2 2 -3 28 -18 58 -33 30 -15
66 -33 80 -41 14 -8 36 -19 50 -25 79 -35 131 -74 187 -142 35 -41 63 -79 63
-86 0 -6 8 -18 18 -25 39 -29 143 -233 162 -318 29 -129 31 -152 20 -228 -7
-42 -21 -94 -32 -116 -11 -21 -21 -46 -23 -56 -2 -10 -15 -42 -29 -71 -14 -30
-26 -58 -27 -64 -2 -13 -81 -138 -90 -145 -4 -3 -18 -21 -32 -40 -54 -81 -110
-138 -172 -178 -22 -14 -62 -44 -90 -67 -27 -24 -77 -57 -110 -75 -59 -33
-175 -143 -175 -167 0 -7 -4 -13 -8 -13 -5 0 -18 -19 -30 -43 -48 -96 -52
-121 -52 -308 0 -171 -1 -180 -22 -205 -28 -31 -80 -54 -127 -56 -29 -1 -42 7
-92 60 -68 72 -124 182 -113 222 4 14 8 32 8 40 1 8 11 19 24 25 12 5 22 13
22 17 0 5 6 8 14 8 19 0 29 46 16 70 -13 24 -28 25 -79 3 -41 -18 -69 -54 -77
-101 -3 -15 -9 -31 -15 -36 -5 -6 -9 -28 -9 -50 0 -42 -7 -50 -82 -91 -10 -5
-18 -13 -18 -17 0 -5 -6 -8 -14 -8 -7 0 -19 -7 -26 -15 -7 -8 -19 -15 -27 -15
-8 0 -21 -6 -29 -14 -12 -12 -19 -12 -54 5 -22 11 -40 26 -40 34 0 8 -10 25
-22 39 -13 13 -30 34 -38 47 -31 46 -50 60 -73 53 -31 -9 -37 -16 -44 -57 -4
-27 0 -43 16 -65 11 -17 21 -36 21 -44 1 -7 7 -31 15 -52 13 -37 12 -43 -11
-92 -16 -35 -33 -55 -52 -62 -22 -9 -122 -20 -194 -22 -9 0 -38 -21 -65 -47
-60 -58 -130 -103 -159 -103 -13 0 -25 -4 -28 -9 -5 -8 -42 -6 -91 3 -11 3
-28 5 -37 5 -9 1 -23 7 -30 14 -7 6 -22 14 -33 15 -11 2 -33 14 -50 26 -16 13
-54 35 -84 50 -29 15 -64 38 -76 50 -13 13 -30 26 -39 29 -9 4 -16 10 -16 15
0 11 -35 53 -100 121 -25 26 -56 69 -70 96 -14 27 -44 78 -66 112 -51 78 -128
271 -148 373 -41 209 -48 270 -41 363 8 108 25 190 64 307 16 47 38 119 50
160 24 81 33 101 106 230 27 47 53 94 59 105 76 136 194 269 300 335 38 24 80
54 93 66 28 26 84 54 107 54 9 0 19 7 23 16 4 10 8 12 13 5 4 -8 14 -6 31 7
13 10 49 30 79 45 72 33 320 117 348 117 12 0 22 6 22 13 0 13 73 40 134 51
16 3 32 9 35 13 9 12 113 43 144 43 14 0 28 4 31 9 7 11 52 20 145 27 41 3 84
10 95 14 12 5 30 6 41 4 11 -3 36 -6 55 -8z"/>
<path d="M1540 3123 c-14 -2 -32 -6 -40 -9 -8 -3 -15 -5 -15 -4 0 1 -25 -14
-55 -34 -30 -20 -58 -36 -62 -36 -4 0 -16 -20 -27 -45 -11 -25 -27 -48 -35
-51 -9 -3 -16 -11 -16 -17 0 -5 -11 -25 -25 -43 -14 -18 -25 -37 -25 -41 0
-14 -51 -73 -63 -73 -5 0 -20 -10 -32 -22 -12 -13 -35 -32 -51 -43 -52 -36
-100 -89 -119 -133 -26 -61 -10 -123 45 -173 49 -44 134 -74 150 -53 7 7 9 18
5 24 -3 5 1 10 9 10 22 0 21 46 -1 55 -10 5 -29 10 -42 12 -79 13 -108 67 -68
128 12 19 33 39 48 45 14 6 36 21 50 33 13 12 37 28 52 36 25 14 117 147 117
171 0 6 4 10 10 10 5 0 22 19 38 43 16 23 42 54 56 69 25 25 94 64 107 61 3
-1 28 -3 55 -4 27 -2 54 -8 60 -13 6 -6 28 -24 48 -40 44 -35 47 -64 7 -79
-58 -22 -64 -71 -13 -105 19 -13 25 -10 71 33 45 42 50 52 57 101 6 50 4 56
-20 79 -14 13 -26 27 -26 30 0 18 -75 67 -110 72 -54 7 -116 9 -140 6z"/>
<path d="M2133 2590 c-23 -9 -42 -68 -25 -79 9 -6 24 -44 27 -71 4 -37 17 -80
25 -80 4 0 11 -11 14 -25 3 -13 19 -38 34 -54 15 -16 37 -41 50 -55 13 -14 27
-24 32 -23 5 1 24 -13 44 -31 27 -25 40 -31 60 -26 35 9 54 33 35 45 -12 8
-12 10 1 19 20 13 1 44 -29 48 -12 2 -25 10 -28 18 -3 8 -12 14 -19 14 -13 0
-74 57 -111 103 -7 8 -15 38 -19 66 -4 28 -10 51 -15 51 -5 0 -9 7 -9 15 0 20
-28 75 -38 74 -4 0 -17 -4 -29 -9z"/>
<path d="M2602 1548 c-19 -19 -15 -71 8 -91 22 -19 25 -33 10 -42 -5 -3 -10
-14 -10 -24 0 -9 -8 -26 -18 -37 -75 -82 -102 -178 -63 -220 10 -11 22 -30 25
-41 9 -29 34 -49 46 -37 16 16 18 58 4 93 -8 18 -14 43 -14 55 0 21 51 93 77
109 7 4 13 17 13 28 0 12 9 34 21 50 38 53 2 149 -61 164 -14 3 -30 1 -38 -7z"/>
<path d="M2284 1025 c-48 -27 -83 -63 -91 -93 -4 -18 -10 -21 -26 -16 -12 4
-27 13 -35 20 -7 8 -17 12 -22 9 -4 -3 -13 2 -20 10 -7 8 -16 13 -20 10 -5 -3
-18 -1 -31 3 -52 20 -175 -20 -250 -80 -41 -33 -62 -135 -37 -181 14 -27 57
-65 81 -73 15 -5 11 -13 -28 -53 -68 -70 -84 -102 -87 -169 -2 -56 0 -62 40
-109 39 -47 88 -73 112 -58 4 2 36 7 71 10 35 4 66 10 69 14 13 18 71 52 80
46 5 -3 10 -16 10 -28 1 -26 21 -52 73 -90 59 -44 96 -56 182 -55 73 1 85 4
131 33 28 18 66 49 85 68 35 36 69 113 69 155 0 24 0 24 85 23 90 -2 170 25
206 70 38 48 46 74 44 134 -2 42 -7 54 -36 78 -31 27 -64 44 -128 68 -22 9
-22 11 -7 32 28 38 66 116 66 133 0 10 -5 32 -12 50 -21 59 -91 68 -168 21
-19 -12 -62 -34 -94 -50 -33 -15 -65 -35 -72 -45 -12 -15 -13 -15 -14 -1 0 9
-9 24 -20 34 -11 10 -20 23 -20 29 0 15 -35 45 -67 57 -30 11 -94 8 -119 -6z
m493 -91 c7 -20 -33 -107 -64 -136 -25 -23 -85 -48 -118 -48 -11 1 -31 10 -44
21 -22 18 -23 22 -11 45 8 13 30 36 49 51 20 15 38 30 41 33 9 11 104 49 123
50 10 0 20 -7 24 -16z m-393 -13 c10 -11 23 -39 31 -63 l13 -44 -30 2 c-16 1
-32 4 -34 7 -3 3 -18 2 -33 -3 -37 -10 -47 -3 -54 43 -5 30 -2 41 15 57 27 25
70 26 92 1z m-304 -64 c62 -29 112 -77 98 -94 -6 -7 -14 -11 -18 -8 -4 3 -22
-9 -40 -25 -18 -16 -35 -28 -40 -25 -4 2 -56 7 -116 10 -89 4 -112 9 -128 24
-16 16 -17 24 -8 51 14 38 49 69 80 70 12 0 22 5 22 10 0 18 103 9 150 -13z
m283 -142 c39 -4 63 -2 73 6 11 9 17 9 29 -1 8 -6 18 -9 24 -6 10 7 21 -16 21
-47 0 -29 -61 -80 -108 -90 -20 -5 -74 -11 -120 -13 -67 -4 -89 -1 -112 13
-17 9 -30 23 -30 31 0 18 64 77 100 92 17 7 30 17 30 22 0 5 8 7 18 4 9 -2 43
-7 75 -11z m450 -36 c12 -7 26 -18 30 -25 4 -8 14 -14 22 -14 27 0 38 -38 21
-74 -18 -39 -68 -57 -166 -61 -52 -2 -76 2 -122 23 l-56 26 17 26 c10 14 21
33 24 42 5 15 56 44 107 61 28 10 101 7 123 -4z m-773 -90 c0 -24 28 -79 49
-95 12 -9 9 -19 -17 -57 -37 -53 -75 -82 -117 -90 -16 -3 -46 -8 -65 -12 -30
-6 -39 -2 -65 23 -26 26 -30 36 -27 70 3 34 12 47 56 85 80 69 126 97 157 97
23 0 29 -5 29 -21z m449 -91 c-3 -20 12 -48 25 -48 7 0 22 -10 34 -23 21 -23
21 -24 5 -68 -33 -88 -96 -132 -193 -135 -71 -2 -117 15 -158 58 -30 32 -34
123 -8 163 16 25 22 26 84 24 73 -2 157 12 175 30 15 15 38 14 36 -1z"/>
</g>
</svg>
