<?xml version="1.0" standalone="no"?>
<!DOCTYPE svg PUBLIC "-//W3C//DTD SVG 20010904//EN"
 "http://www.w3.org/TR/2001/REC-SVG-20010904/DTD/svg10.dtd">
<svg version="1.0" xmlns="http://www.w3.org/2000/svg"
 width="505.000000pt" height="469.000000pt" viewBox="0 0 505.000000 469.000000"
 preserveAspectRatio="xMidYMid meet">
<metadata>
Created by potrace 1.16, written by Peter Selinger 2001-2019
</metadata>
<g transform="translate(0.000000,469.000000) scale(0.100000,-0.100000)"
fill="#000000" stroke="none">
<path d="M2250 4558 c-118 -33 -142 -42 -176 -71 -22 -18 -65 -52 -96 -75 -31
-24 -74 -65 -94 -90 -21 -26 -43 -51 -49 -57 -7 -5 -19 -23 -28 -40 -9 -16
-26 -41 -39 -55 -25 -27 -52 -90 -99 -234 -24 -75 -28 -100 -24 -165 6 -99 9
-115 44 -186 34 -67 51 -93 99 -143 l32 -34 -17 -62 c-22 -80 -51 -129 -71
-121 -30 11 -108 27 -204 41 -54 7 -116 23 -139 35 -28 14 -51 19 -68 14 -14
-3 -40 -6 -58 -5 -35 1 -83 -41 -83 -72 0 -10 -4 -18 -9 -18 -9 0 -142 -256
-156 -300 -4 -14 -18 -39 -31 -55 -26 -34 -44 -76 -51 -120 -3 -16 -13 -46
-23 -65 -34 -63 -67 -144 -84 -205 -10 -33 -23 -69 -30 -80 -22 -37 -76 -191
-123 -350 -1 -5 -13 -46 -27 -90 -21 -72 -22 -84 -10 -125 7 -25 16 -74 19
-110 3 -36 11 -83 17 -105 6 -22 12 -49 13 -60 2 -11 7 -38 13 -60 6 -22 13
-62 16 -90 11 -90 17 -129 30 -175 17 -62 13 -86 -30 -177 -70 -149 -92 -198
-105 -235 -7 -21 -17 -38 -21 -38 -4 0 -8 -7 -8 -15 0 -8 -11 -38 -23 -67 -13
-29 -32 -78 -42 -108 -23 -67 -38 -103 -69 -154 -25 -43 -24 -66 4 -91 21 -19
28 -19 140 -10 47 4 96 7 110 5 14 -1 35 -3 48 -4 12 0 22 -3 22 -6 0 -5 114
-6 162 -2 27 3 40 38 32 87 -7 53 -30 64 -83 42 -28 -12 -40 -12 -65 -2 -20 7
-67 10 -129 8 l-98 -3 5 32 c5 32 73 203 121 303 33 69 55 122 55 130 0 4 25
58 55 120 30 62 55 121 55 131 0 10 -9 36 -19 58 -11 23 -29 108 -41 191 -12
83 -27 175 -35 205 -17 74 -26 150 -17 150 4 0 23 -5 42 -11 46 -13 55 -16
120 -34 30 -8 62 -18 70 -21 8 -4 22 -8 30 -9 8 -2 56 -13 105 -25 78 -19 100
-26 125 -35 3 -1 20 -6 38 -10 17 -4 32 -12 32 -18 0 -5 11 -25 25 -43 14 -18
25 -35 25 -38 0 -6 24 -36 48 -61 6 -8 12 -18 12 -24 0 -6 5 -11 10 -11 6 0
10 -5 10 -10 0 -6 9 -20 20 -32 10 -11 26 -35 35 -52 8 -17 33 -60 55 -95 22
-35 43 -73 46 -86 6 -23 -16 -104 -44 -165 -9 -19 -17 -42 -18 -50 -2 -14 -19
-62 -63 -180 -12 -30 -30 -89 -41 -130 -24 -86 -78 -222 -92 -231 -13 -8 -13
-88 0 -101 5 -5 55 -9 112 -9 57 0 109 -3 114 -7 6 -3 17 -7 26 -8 8 -2 31 -5
49 -8 48 -8 71 15 71 69 0 25 -6 48 -14 54 -14 12 -80 19 -177 20 l-47 1 19
60 c10 33 29 84 42 113 13 28 30 79 37 112 7 33 17 65 21 70 4 6 24 64 43 130
20 66 40 129 45 140 5 11 17 47 27 79 17 57 17 60 -2 92 -10 18 -37 63 -59
101 -21 37 -48 77 -58 88 -10 11 -27 38 -37 60 -10 22 -32 56 -49 75 -17 19
-31 40 -31 45 0 6 -9 18 -20 28 -11 9 -20 26 -20 36 0 21 112 246 136 272 8 9
11 18 8 21 -7 7 17 54 65 128 19 30 36 56 37 58 3 5 144 -70 144 -77 0 -4 18
-13 40 -20 22 -6 40 -17 40 -23 0 -6 3 -8 7 -5 3 4 12 2 19 -4 14 -11 54 -34
139 -77 28 -14 63 -36 78 -49 16 -13 35 -23 43 -23 8 0 14 -4 14 -9 0 -6 19
-13 43 -16 45 -7 62 -24 102 -99 35 -66 49 -89 63 -104 6 -7 12 -19 12 -27 0
-7 3 -15 8 -17 8 -3 62 -84 62 -93 0 -4 13 -26 30 -50 16 -24 30 -48 30 -53 0
-5 9 -17 20 -27 11 -10 20 -23 20 -28 0 -6 6 -18 14 -26 8 -9 29 -54 46 -101
18 -47 41 -105 52 -130 11 -25 27 -61 35 -80 8 -19 19 -43 24 -52 5 -10 9 -23
9 -29 0 -6 15 -41 33 -77 19 -37 37 -80 41 -96 6 -24 4 -28 -10 -22 -9 3 -33
2 -53 -4 -37 -10 -194 -14 -242 -6 -33 5 -160 -29 -171 -46 -4 -7 -8 -21 -9
-30 -2 -23 -3 -27 -18 -63 -7 -16 -14 -40 -15 -52 -1 -12 -8 -29 -15 -37 -7
-8 -12 -34 -13 -57 -1 -78 71 -103 117 -41 11 14 21 37 22 50 4 54 26 137 39
150 8 8 33 13 57 13 94 -1 100 -10 66 -100 -24 -67 -22 -82 16 -107 48 -32
105 16 105 90 0 23 30 108 41 116 4 3 37 4 74 4 70 -2 96 -14 78 -36 -6 -7
-11 -26 -11 -43 0 -16 -5 -31 -11 -33 -18 -6 -13 -77 7 -95 25 -23 75 -21 97
3 9 10 19 38 20 62 2 24 5 50 7 58 3 8 8 31 12 51 7 33 10 35 49 38 22 1 44 4
49 7 12 8 49 -6 43 -15 -2 -5 -7 -54 -10 -109 -5 -112 3 -132 53 -132 53 0 70
37 73 156 2 86 5 89 78 76 34 -6 68 -9 76 -5 21 7 19 -21 -5 -86 l-21 -53 27
-35 c22 -29 31 -34 53 -28 40 10 62 38 67 85 2 24 11 71 19 105 8 34 11 73 8
86 -12 43 -71 76 -88 49 -8 -13 -73 -13 -155 1 -79 13 -284 18 -322 8 -31 -8
-29 -12 -97 131 -23 47 -52 105 -65 130 -13 25 -29 63 -36 85 -7 22 -20 58
-30 80 -35 77 -70 166 -70 177 0 6 -19 40 -43 77 -63 96 -147 231 -147 236 0
2 -21 34 -47 72 -25 37 -55 90 -67 118 -11 27 -26 56 -33 63 -18 19 -16 31 4
28 28 -4 44 20 53 82 5 31 16 89 25 127 8 39 17 93 20 120 8 99 14 141 25 175
11 37 38 184 47 258 4 38 2 45 -27 72 -18 17 -39 30 -47 30 -8 0 -38 20 -65
45 -28 25 -56 45 -64 45 -7 0 -21 12 -31 28 -10 15 -35 45 -55 67 -21 22 -38
45 -38 51 0 7 -7 14 -15 18 -8 3 -15 12 -15 21 0 8 -9 15 -20 15 -11 0 -20 3
-20 8 0 8 -35 24 -92 42 -21 6 -41 18 -45 25 -5 8 -22 16 -38 19 -17 2 -31 5
-32 6 -2 2 -6 3 -10 5 -5 1 -21 7 -36 13 -16 7 -32 12 -36 12 -5 0 -14 6 -20
14 -9 11 -6 26 14 67 14 29 25 61 25 70 0 27 18 32 53 16 40 -18 140 -14 220
7 142 39 258 128 355 271 19 28 37 52 40 55 4 3 31 77 61 164 52 156 53 162
47 240 -4 45 -7 101 -7 126 -1 41 -43 150 -58 150 -3 0 -12 12 -19 28 -27 58
-164 140 -259 155 -23 4 -47 9 -55 11 -7 2 -29 0 -48 -6z m170 -154 c31 -15
69 -45 85 -66 17 -21 35 -44 40 -51 12 -13 32 -81 34 -112 4 -60 2 -163 -2
-185 -3 -14 -22 -70 -41 -125 -20 -55 -36 -101 -36 -101 -1 -14 -129 -164
-152 -178 -18 -11 -35 -23 -38 -26 -3 -3 -29 -20 -58 -38 -111 -68 -299 -62
-384 12 -16 13 -28 28 -28 34 0 5 -6 12 -13 15 -7 2 -26 31 -42 63 -28 54 -30
67 -29 161 0 101 5 121 53 223 29 60 137 213 191 271 21 22 97 64 143 79 25 8
39 19 43 35 5 20 13 24 52 27 68 4 120 -6 182 -38z m-1020 -1221 c14 -2 34 -8
45 -13 11 -5 40 -11 65 -14 69 -9 101 -15 150 -31 25 -8 82 -22 128 -30 46 -9
110 -29 142 -46 33 -17 64 -28 69 -25 5 3 19 -2 32 -13 l22 -18 -36 -74 c-36
-72 -57 -109 -67 -119 -3 -3 -12 -18 -20 -35 -8 -16 -27 -48 -41 -70 -14 -22
-31 -55 -39 -72 -7 -18 -15 -33 -19 -33 -3 0 -17 -21 -30 -47 -14 -27 -30 -55
-37 -63 -7 -8 -24 -37 -39 -64 -15 -28 -32 -55 -37 -60 -5 -6 -15 -20 -22 -30
-12 -18 -14 -18 -63 8 -78 43 -131 98 -136 143 -11 93 -35 275 -56 413 -12 82
-43 219 -66 289 -6 21 -5 23 11 16 11 -4 30 -10 44 -12z m-136 -127 c10 -29
16 -60 14 -67 -3 -8 -1 -27 4 -44 13 -41 46 -236 54 -315 3 -36 10 -72 14 -80
4 -8 6 -52 4 -97 -1 -46 1 -83 4 -83 4 0 30 -20 57 -45 28 -24 55 -45 61 -45
6 0 24 -10 40 -22 15 -13 43 -30 60 -38 l33 -15 -19 -35 c-11 -19 -22 -42 -25
-50 -4 -8 -15 -31 -26 -50 -11 -19 -30 -55 -42 -80 -12 -25 -24 -47 -27 -50
-5 -5 -75 -137 -94 -177 -9 -17 -18 -21 -46 -18 -50 6 -242 54 -255 65 -6 5
-23 10 -37 12 -15 2 -30 7 -34 11 -4 4 -17 7 -29 7 -12 0 -25 3 -29 7 -4 4
-33 15 -64 24 -47 14 -117 38 -130 45 -6 4 68 270 93 338 14 37 36 89 50 115
13 27 29 70 36 97 6 27 31 90 56 139 24 50 55 121 69 159 13 38 30 76 38 85 7
9 26 45 42 81 15 36 37 79 48 95 12 17 22 32 22 35 18 66 35 65 58 -4z m906
-137 c0 -14 110 -129 124 -129 6 0 35 -22 64 -49 29 -27 66 -55 82 -63 35 -15
37 -34 16 -118 -7 -30 -14 -75 -15 -99 -1 -24 -6 -51 -11 -60 -4 -9 -11 -48
-15 -85 -4 -38 -11 -82 -15 -97 -5 -15 -6 -30 -3 -33 3 -3 0 -19 -7 -36 -7
-16 -12 -41 -12 -53 0 -29 -37 -78 -45 -59 -2 7 -11 19 -19 26 -8 8 -14 19
-14 25 0 6 -5 11 -11 11 -6 0 -9 7 -5 15 3 8 1 15 -4 15 -4 0 -11 14 -15 30
-5 21 -13 30 -26 30 -11 0 -17 5 -14 10 10 16 -38 11 -64 -6 -18 -13 -22 -23
-18 -48 7 -41 11 -59 18 -71 11 -18 20 -67 12 -62 -4 2 -28 14 -53 26 -25 12
-65 33 -90 47 -25 14 -87 48 -138 75 -50 27 -101 55 -112 61 -23 15 -26 50 -6
67 8 7 27 36 42 64 15 29 44 78 65 110 22 32 39 63 39 68 0 5 5 9 11 9 5 0 7
5 4 10 -3 6 -2 10 3 10 5 0 18 19 28 42 10 24 37 70 59 103 22 33 60 97 85
143 42 76 60 98 60 71z"/>
<path d="M2110 944 c0 -6 -10 -9 -23 -7 -15 3 -40 -8 -74 -31 -33 -23 -58 -33
-71 -29 -12 3 -28 -1 -36 -9 -17 -17 -24 -67 -12 -87 7 -11 3 -13 -19 -7 -18
5 -40 2 -59 -8 -17 -8 -42 -17 -56 -20 -60 -14 -81 -105 -39 -172 20 -33 25
-36 59 -31 35 4 36 4 32 -26 -3 -21 0 -33 12 -39 9 -5 14 -13 11 -17 -2 -5 9
-14 25 -21 17 -7 30 -16 30 -20 0 -11 79 6 132 29 33 14 47 26 50 43 2 13 10
24 18 24 8 1 20 2 26 3 28 3 133 84 138 107 9 34 -27 78 -77 95 -32 11 -43 10
-73 -4 -19 -9 -43 -17 -54 -17 -13 0 -22 -9 -26 -26 -5 -20 -11 -24 -28 -20
-12 3 -34 -1 -50 -9 -38 -20 -46 -18 -18 5 13 10 22 20 21 22 -7 9 11 49 20
43 24 -14 104 9 161 46 92 59 102 117 28 155 -18 9 -36 22 -40 28 -6 8 -8 8
-8 0z m-5 -86 c14 -6 25 -15 25 -19 0 -21 -135 -65 -146 -47 -8 13 21 43 59
62 39 19 31 18 62 4z m-240 -185 c-20 -32 -55 -62 -72 -63 -16 0 -27 40 -14
53 6 6 21 12 33 14 13 2 25 8 26 13 2 6 13 10 24 10 20 0 20 -1 3 -27z m293
-29 c22 -15 23 -17 5 -29 -10 -6 -30 -14 -45 -17 -25 -5 -28 -2 -28 23 0 25 5
30 40 38 3 0 16 -6 28 -15z m-154 -86 c20 -28 5 -55 -37 -66 -23 -6 -38 -5
-54 6 -30 19 -29 31 5 59 34 28 67 29 86 1z"/>
<path d="M4255 638 c-88 -48 -99 -168 -18 -199 44 -17 170 -20 182 -5 6 7 31
21 56 31 31 11 45 22 45 35 0 10 5 22 10 25 6 3 10 19 10 34 0 22 -9 32 -42
51 -50 28 -52 29 -96 17 -25 -6 -40 -4 -57 7 -28 19 -62 20 -90 4z m30 -78
c-10 -16 46 -24 80 -11 43 15 70 14 85 -4 11 -14 7 -19 -12 -16 -5 0 -8 -3 -8
-8 0 -32 -137 -38 -168 -7 -17 17 -7 56 14 56 8 0 12 -4 9 -10z"/>
<path d="M3837 505 c-27 -7 -57 -21 -68 -31 -37 -33 -18 -131 32 -163 11 -6
40 -14 65 -18 39 -5 56 -1 104 23 49 24 60 35 69 66 13 43 1 77 -41 114 -28
25 -92 29 -161 9z m119 -80 c15 -14 25 -27 23 -28 -40 -29 -63 -37 -91 -32
-37 7 -83 44 -70 57 7 7 55 19 104 27 4 1 19 -10 34 -24z"/>
<path d="M4576 425 c-51 -13 -72 -32 -82 -72 -9 -33 48 -100 94 -112 119 -31
119 -31 166 5 50 38 86 101 75 131 -8 21 -81 63 -102 59 -7 -2 -29 -6 -51 -11
-23 -5 -41 -4 -45 2 -4 7 -23 6 -55 -2z m180 -77 c9 -14 -42 -52 -76 -55 -14
-2 -38 2 -53 8 l-28 12 33 23 c36 25 111 33 124 12z"/>
<path d="M3313 273 c-12 -2 -36 -18 -52 -36 -17 -17 -31 -27 -31 -23 0 4 -13
-2 -29 -13 -58 -42 -40 -115 36 -139 39 -13 167 2 199 23 31 20 76 116 62 133
-29 34 -135 66 -185 55z m81 -83 c25 -9 35 -33 18 -44 -17 -10 -103 -17 -132
-11 -32 7 -32 25 -1 25 10 0 21 9 24 20 6 22 47 27 91 10z"/>
</g>
</svg>
