<?xml version="1.0" standalone="no"?>
<!DOCTYPE svg PUBLIC "-//W3C//DTD SVG 20010904//EN"
 "http://www.w3.org/TR/2001/REC-SVG-20010904/DTD/svg10.dtd">
<svg version="1.0" xmlns="http://www.w3.org/2000/svg"
 width="491.000000pt" height="445.000000pt" viewBox="0 0 491.000000 445.000000"
 preserveAspectRatio="xMidYMid meet">
<metadata>
Created by potrace 1.16, written by Peter Selinger 2001-2019
</metadata>
<g transform="translate(0.000000,445.000000) scale(0.100000,-0.100000)"
fill="#000000" stroke="none">
<path d="M3015 4221 c-6 -5 -64 -25 -130 -46 -66 -20 -138 -42 -160 -50 -22
-7 -83 -23 -135 -36 -99 -23 -200 -56 -285 -94 -81 -36 -407 -152 -450 -160
-11 -2 -31 -7 -45 -10 -14 -4 -58 -13 -99 -21 -40 -7 -84 -20 -97 -29 -13 -8
-30 -15 -38 -15 -9 0 -35 -11 -60 -25 -25 -14 -54 -25 -65 -25 -39 0 -52 -61
-19 -84 30 -21 60 -20 89 2 37 28 176 78 254 92 76 13 150 34 205 57 19 8 44
18 55 23 11 4 47 15 80 25 33 9 74 23 90 30 53 23 65 25 65 11 0 -21 42 -52
95 -71 28 -10 55 -22 60 -25 6 -4 21 -10 35 -13 39 -10 150 -109 173 -156 15
-30 5 -74 -29 -127 -10 -15 -19 -32 -19 -38 0 -6 -10 -30 -22 -53 -22 -40 -24
-41 -63 -36 -40 6 -55 2 -165 -45 -68 -29 -158 -89 -215 -142 -87 -82 -128
-118 -175 -155 -27 -22 -52 -42 -55 -45 -10 -11 -75 -55 -106 -72 -17 -9 -56
-40 -85 -68 -70 -67 -120 -96 -210 -121 -41 -11 -105 -31 -144 -44 -38 -13
-104 -34 -145 -45 -114 -33 -190 -67 -198 -90 -3 -8 -17 -29 -31 -47 -14 -18
-37 -47 -51 -65 -14 -18 -53 -61 -87 -95 -35 -34 -63 -67 -63 -74 0 -6 -9 -23
-19 -38 -20 -27 -69 -139 -148 -336 -24 -60 -54 -130 -67 -155 -62 -121 -102
-188 -130 -220 -17 -20 -42 -50 -56 -68 -14 -17 -29 -32 -33 -32 -22 0 -77
-81 -77 -114 0 -33 40 -61 72 -51 26 9 48 29 48 44 0 11 32 51 80 100 40 41
82 101 117 166 62 117 140 281 153 323 7 23 17 42 22 42 4 0 8 9 8 19 0 11 5
23 10 26 6 4 8 10 5 15 -3 4 2 13 10 20 8 7 15 21 15 32 0 50 81 179 167 267
40 41 73 78 73 82 0 15 79 101 106 115 16 9 51 20 79 26 27 6 93 27 145 48 52
21 115 40 140 43 74 9 180 49 180 69 0 4 12 14 28 22 15 8 50 37 78 64 47 46
182 141 201 142 4 1 22 19 38 40 17 21 32 39 35 40 3 0 33 25 65 55 33 30 62
55 65 55 3 0 18 -18 33 -40 39 -55 71 -54 157 4 79 54 108 71 138 80 18 6 22
4 22 -16 0 -13 5 -29 12 -36 9 -9 8 -15 -4 -24 -9 -7 -24 -42 -34 -78 -9 -36
-21 -70 -25 -75 -4 -6 -24 -42 -43 -80 -39 -78 -129 -178 -218 -245 -32 -23
-58 -46 -58 -51 0 -5 -7 -9 -15 -9 -8 0 -15 -4 -15 -9 0 -5 -10 -13 -22 -16
-13 -4 -32 -15 -43 -25 -11 -9 -43 -29 -71 -44 -27 -15 -63 -39 -80 -53 -16
-14 -38 -32 -49 -42 -12 -9 -28 -32 -38 -52 -9 -20 -24 -42 -33 -50 -20 -17
-46 -73 -50 -111 -5 -36 -33 -118 -50 -145 -8 -12 -14 -29 -14 -38 0 -8 -4
-15 -9 -15 -5 0 -11 -8 -14 -17 -3 -10 -18 -49 -32 -88 -14 -38 -28 -79 -30
-90 -15 -85 -15 -91 18 -143 18 -29 42 -55 55 -58 12 -3 22 -10 22 -14 0 -12
105 -51 160 -60 86 -15 196 27 272 102 27 26 53 48 59 48 5 0 16 15 24 33 7
17 24 42 37 54 44 41 138 180 138 203 0 9 18 35 40 58 25 25 40 51 40 66 0 14
5 28 11 31 6 4 8 13 5 20 -2 7 0 30 5 51 6 22 11 46 13 54 4 26 16 40 36 40
25 0 31 -21 15 -56 -7 -16 -23 -71 -35 -122 -20 -83 -21 -98 -9 -134 14 -45
75 -112 95 -104 14 5 12 -69 -5 -119 -5 -16 -22 -70 -37 -120 -15 -49 -36 -99
-47 -110 -10 -11 -27 -35 -38 -52 -12 -18 -27 -33 -35 -33 -8 0 -29 -14 -46
-31 -18 -17 -44 -37 -58 -46 -15 -8 -35 -28 -45 -43 -11 -16 -23 -26 -27 -24
-4 3 -8 1 -8 -4 0 -6 -11 -13 -24 -16 -14 -3 -28 -15 -31 -26 -3 -11 -11 -20
-17 -20 -5 0 -33 -12 -62 -26 -28 -14 -81 -37 -118 -50 -62 -23 -76 -24 -185
-18 -96 5 -129 3 -175 -11 -32 -9 -58 -20 -58 -23 0 -4 -17 -16 -37 -27 -20
-11 -63 -45 -94 -75 -97 -94 -218 -188 -308 -240 -14 -8 -28 -18 -31 -21 -10
-13 -108 -69 -120 -69 -7 0 -20 -8 -29 -18 -9 -9 -28 -23 -44 -30 -33 -14 -52
-55 -36 -80 6 -10 27 -23 45 -28 19 -6 32 -9 29 -6 -3 3 4 10 15 16 25 14 163
109 170 116 11 13 99 70 108 70 5 0 15 7 22 15 7 9 27 22 44 30 17 8 54 37 82
63 27 27 69 59 92 72 23 13 42 28 42 32 0 18 37 47 102 81 l67 35 135 -1 c75
-1 138 2 142 5 3 4 12 4 18 2 7 -3 18 2 25 10 7 9 29 18 50 22 20 4 61 20 91
37 30 17 72 39 93 50 21 11 44 28 50 38 7 11 16 19 22 19 5 0 31 20 57 44 26
24 56 47 67 51 12 3 21 10 21 15 0 5 10 12 22 16 21 6 48 27 48 37 0 2 20 35
45 73 25 38 51 87 57 109 7 22 18 50 26 63 9 13 12 34 9 52 -4 16 -2 32 3 35
13 8 40 137 40 190 0 26 5 56 11 67 6 12 13 35 15 52 2 17 8 61 13 98 10 79 6
129 -12 140 -6 5 -24 11 -39 15 -16 3 -28 11 -28 17 0 6 -9 19 -20 29 -11 9
-20 23 -20 31 0 18 -54 45 -95 48 -28 2 -65 27 -65 45 0 13 -44 65 -109 127
-23 22 -41 43 -41 48 0 4 14 20 32 35 97 84 118 112 193 264 31 63 61 122 66
131 12 23 12 75 -1 83 -6 4 -2 15 10 27 17 19 24 78 9 78 -4 0 -9 18 -13 40
-3 22 -12 40 -19 40 -7 0 -8 3 -2 8 9 6 34 55 70 137 7 17 25 56 39 88 14 32
39 76 56 97 16 21 30 40 30 43 0 14 91 164 191 314 37 55 108 204 115 241 5
22 1 35 -15 51 -22 22 -60 28 -76 12z m-37 -128 c-44 -92 -73 -145 -89 -161
-10 -12 -19 -26 -19 -32 0 -6 -17 -29 -38 -53 -22 -23 -55 -71 -75 -106 l-35
-64 -29 29 c-26 28 -56 52 -142 116 -20 15 -49 30 -66 33 -34 8 -115 52 -115
63 1 18 161 65 295 87 21 4 53 14 70 23 16 9 75 28 130 43 113 31 118 32 113
22z m-700 -1673 c9 0 51 -40 92 -89 11 -13 17 -28 14 -32 -3 -5 0 -9 5 -9 18
0 13 -21 -13 -54 -18 -24 -22 -40 -19 -73 6 -63 -21 -161 -68 -244 -23 -40
-47 -78 -54 -84 -6 -5 -24 -30 -40 -55 -68 -105 -104 -121 -205 -89 -105 33
-185 51 -227 50 -45 0 -52 8 -30 31 8 7 12 19 9 26 -2 7 3 21 11 30 15 18 81
176 92 225 4 15 10 27 14 27 19 0 116 -40 138 -56 34 -25 51 -79 40 -124 -6
-25 -4 -45 7 -71 13 -31 19 -36 48 -35 46 1 57 30 53 135 -2 47 -6 94 -10 103
-10 25 28 42 107 47 22 1 49 52 41 79 -6 24 -56 45 -70 31 -6 -6 -41 -23 -79
-38 -65 -26 -72 -27 -118 -15 -27 7 -58 22 -70 33 -12 12 -28 21 -35 21 -20 0
46 77 95 110 25 16 47 30 50 30 7 0 107 71 143 103 l35 30 17 -22 c9 -11 21
-21 27 -21z m-468 -785 c47 -8 162 -43 179 -54 10 -6 3 -12 -24 -21 -70 -23
-177 3 -242 59 -40 34 -29 36 87 16z"/>
<path d="M3624 3612 c-19 -6 -60 -49 -255 -268 -35 -38 -321 -308 -430 -405
-90 -80 -115 -100 -186 -148 -52 -35 -63 -48 -63 -71 0 -26 31 -76 57 -93 6
-4 18 -14 25 -21 8 -7 28 -21 45 -30 18 -9 44 -27 59 -41 15 -14 31 -25 37
-25 5 0 37 -13 71 -29 33 -16 77 -32 96 -35 143 -23 197 -24 237 -3 15 8 40
20 54 27 51 24 149 138 149 174 0 12 4 26 9 31 6 6 21 45 35 87 26 81 26 95
-10 212 -6 16 -2 18 28 12 89 -16 169 -17 203 0 19 9 35 20 35 25 0 5 5 9 12
9 14 0 84 76 105 115 11 20 16 58 17 115 1 77 -2 92 -32 155 -28 58 -47 81
-108 133 -46 38 -84 62 -99 62 -13 0 -27 5 -30 10 -7 11 -28 12 -61 2z m56
-112 c0 -5 5 -10 10 -10 18 0 91 -50 97 -67 4 -10 14 -25 22 -35 9 -10 15 -21
13 -24 -2 -3 4 -17 13 -31 49 -74 9 -204 -77 -249 -72 -37 -279 21 -397 113
-2 1 20 25 49 53 29 27 51 50 47 50 -3 0 14 19 37 43 23 23 51 54 63 69 24 32
101 98 114 98 5 0 9 -4 9 -10z m-384 -393 c3 -8 31 -30 62 -51 134 -87 156
-218 64 -391 -8 -16 -18 -32 -22 -35 -3 -3 -19 -22 -34 -42 -42 -56 -108 -74
-216 -60 -46 5 -85 14 -89 19 -3 4 -25 15 -49 23 -63 22 -171 109 -172 138 0
12 4 22 9 22 4 0 24 15 43 33 19 17 63 57 98 87 66 56 168 152 243 227 45 46
55 50 63 30z"/>
<path d="M3920 3449 c0 -5 5 -7 10 -4 6 3 10 8 10 11 0 2 -4 4 -10 4 -5 0 -10
-5 -10 -11z"/>
<path d="M4038 2605 c-2 -2 -28 -6 -58 -10 -56 -6 -119 -32 -155 -65 -11 -9
-40 -29 -65 -44 -73 -44 -134 -97 -186 -161 -26 -33 -56 -69 -67 -80 -82 -88
-136 -329 -108 -479 20 -106 84 -213 139 -230 11 -4 23 -13 26 -21 6 -17 69
-46 111 -50 17 -2 61 -15 99 -29 69 -26 228 -44 253 -28 5 4 9 27 9 52 -1 39
-5 46 -29 58 -22 11 -35 11 -55 3 -28 -12 -41 -10 -189 23 -64 14 -113 38
-113 57 0 6 -3 8 -7 6 -18 -10 -89 40 -109 77 -25 43 -47 141 -46 196 2 80 24
198 44 235 43 79 177 230 243 273 47 31 55 36 131 82 l59 34 135 0 c109 0 143
-4 175 -19 22 -10 42 -18 45 -17 3 0 14 -12 24 -27 10 -15 31 -35 47 -44 26
-14 29 -22 29 -64 0 -82 35 -108 91 -70 24 16 26 21 18 60 -16 82 -29 111 -66
145 -99 91 -194 129 -334 136 -48 3 -89 3 -91 1z"/>
</g>
</svg>
