<?xml version="1.0" standalone="no"?>
<!DOCTYPE svg PUBLIC "-//W3C//DTD SVG 20010904//EN"
 "http://www.w3.org/TR/2001/REC-SVG-20010904/DTD/svg10.dtd">
<svg version="1.0" xmlns="http://www.w3.org/2000/svg"
 width="407.000000pt" height="443.000000pt" viewBox="0 0 407.000000 443.000000"
 preserveAspectRatio="xMidYMid meet">
<metadata>
Created by potrace 1.16, written by Peter Selinger 2001-2019
</metadata>
<g transform="translate(0.000000,443.000000) scale(0.100000,-0.100000)"
fill="#000000" stroke="none">
<path d="M1297 4416 c-15 -12 -17 -27 -12 -136 l6 -122 -38 6 c-131 19 -133
19 -152 -3 -22 -25 -19 -68 6 -87 10 -7 34 -14 53 -16 19 -1 44 -3 55 -4 11
-1 34 -2 51 -3 31 -1 31 -1 24 -43 -5 -24 -5 -45 -1 -48 3 -3 6 -104 6 -225
-1 -121 1 -227 3 -236 5 -24 46 -43 77 -35 l26 7 -6 278 c-7 317 -14 292 80
280 28 -3 52 -2 53 2 2 5 12 9 23 9 11 0 21 9 25 24 9 37 -31 101 -58 91 -21
-8 -119 -11 -123 -5 -2 4 -7 59 -10 124 -3 65 -10 126 -15 137 -12 22 -47 24
-73 5z"/>
<path d="M3355 3899 c-16 -4 -50 -13 -75 -19 -25 -6 -52 -18 -61 -26 -14 -12
-19 -12 -45 1 -31 15 -81 15 -92 -1 -4 -5 -25 -18 -47 -29 -61 -30 -124 -80
-182 -143 l-53 -57 3 55 c3 58 -17 120 -39 120 -6 0 -17 7 -24 15 -7 8 -23 15
-37 15 -13 0 -33 5 -44 10 -26 14 -85 -17 -131 -69 -20 -23 -39 -41 -42 -41
-9 0 -95 -88 -216 -220 -168 -183 -178 -192 -219 -189 -36 3 -102 -7 -131 -19
-8 -3 -36 -7 -62 -8 -34 -2 -70 -14 -123 -43 -41 -22 -82 -38 -90 -35 -8 4
-15 2 -15 -4 0 -6 -25 -23 -56 -39 -31 -15 -66 -39 -80 -53 -38 -40 -114 -138
-114 -147 0 -5 -11 -25 -24 -44 -14 -20 -28 -48 -32 -63 -3 -14 -10 -26 -14
-26 -8 0 -40 -89 -40 -110 0 -6 -9 -21 -21 -33 -12 -12 -33 -37 -48 -56 -14
-19 -35 -44 -46 -56 -51 -54 -99 -119 -132 -182 -19 -37 -45 -81 -57 -98 -23
-32 -64 -159 -70 -222 -4 -38 -22 -160 -32 -218 -2 -16 -13 -66 -24 -110 -10
-44 -28 -150 -40 -235 -11 -85 -25 -159 -30 -165 -6 -7 -7 -14 -4 -17 3 -4 -6
-30 -19 -60 -14 -29 -28 -64 -32 -78 -4 -14 -15 -38 -25 -55 -27 -47 -72 -127
-88 -160 -9 -16 -35 -54 -60 -82 -24 -29 -41 -53 -37 -53 4 0 -5 -14 -19 -31
-14 -17 -26 -34 -26 -37 0 -4 -27 -35 -59 -70 -60 -64 -66 -84 -38 -120 13
-17 69 -8 82 13 6 9 43 58 82 108 40 51 73 96 73 100 0 4 17 31 39 60 21 29
53 79 71 112 18 33 41 72 52 87 10 15 25 46 33 70 8 24 19 52 24 63 31 66 55
164 76 312 14 92 29 184 34 203 38 139 48 186 56 255 4 27 8 52 10 55 2 4 7
37 11 75 17 179 232 475 470 646 79 57 167 111 214 130 14 6 42 19 62 30 49
25 53 24 29 -7 -12 -15 -21 -32 -21 -39 0 -7 -9 -23 -19 -37 -11 -13 -44 -72
-74 -130 -55 -110 -129 -213 -159 -223 -19 -7 -25 -25 -8 -25 5 0 7 -7 3 -15
-6 -16 22 -55 40 -55 17 0 147 155 147 177 0 4 14 27 30 51 16 24 37 64 47 90
9 26 22 52 28 59 30 36 35 43 35 50 0 5 16 32 35 61 20 28 33 52 29 52 -3 0 7
17 23 38 16 20 39 55 52 76 22 39 71 99 144 178 20 22 37 41 37 42 0 0 47 49
105 108 58 59 105 113 105 120 0 8 12 22 27 33 36 28 137 120 199 183 l53 52
36 -17 37 -18 -5 -55 c-2 -31 -14 -78 -25 -106 -11 -27 -41 -105 -68 -173 -27
-68 -53 -129 -59 -135 -18 -18 -66 -106 -59 -106 4 0 -2 -8 -13 -17 -19 -17
-33 -43 -39 -71 -1 -8 -9 -19 -16 -25 -19 -16 -53 -70 -50 -79 1 -5 -3 -8 -8
-8 -6 0 -10 -7 -10 -15 0 -9 -11 -27 -24 -39 -12 -13 -26 -31 -29 -40 -4 -9
-14 -16 -22 -16 -9 0 -14 -4 -10 -9 3 -5 0 -13 -6 -16 -5 -4 -8 -13 -5 -21 3
-8 -16 -38 -45 -70 -64 -70 -75 -98 -53 -131 12 -20 21 -23 42 -18 15 4 30 12
34 18 3 7 34 48 67 92 34 44 72 96 85 115 13 19 31 41 40 49 9 7 16 21 17 30
0 9 11 36 24 61 13 25 28 54 33 65 5 11 19 29 31 39 11 11 21 26 21 35 0 8 20
44 44 80 24 37 50 83 57 105 8 21 26 46 40 57 15 10 32 33 40 51 7 18 19 39
26 46 7 7 13 19 13 26 0 7 13 26 30 42 16 16 30 35 30 42 0 6 4 12 9 12 5 0
12 8 15 18 5 15 43 58 88 99 7 7 18 18 24 25 24 27 59 52 76 53 10 1 30 12 44
24 23 20 28 21 41 8 13 -13 14 -23 4 -64 -6 -26 -13 -58 -16 -70 -13 -73 -89
-263 -107 -271 -5 -2 -8 -13 -8 -24 0 -21 -155 -348 -170 -358 -4 -3 -19 -25
-35 -49 -15 -25 -36 -54 -46 -65 -11 -11 -19 -24 -19 -29 0 -5 -12 -21 -28
-35 -48 -46 -106 -123 -109 -145 -2 -12 -30 -47 -63 -78 -33 -31 -60 -63 -60
-71 0 -7 -2 -22 -5 -33 -7 -26 37 -59 65 -50 11 4 29 24 40 45 11 21 35 55 55
75 19 21 35 44 35 51 0 8 6 14 13 14 8 0 19 11 25 25 13 28 22 40 63 84 15 15
43 52 62 82 19 30 44 64 56 76 11 12 37 55 56 95 20 40 44 88 55 106 11 18 20
36 21 40 2 10 18 51 34 87 8 17 19 47 27 69 8 23 22 42 35 47 13 5 23 14 23
21 0 7 13 27 29 44 16 16 32 40 35 52 4 12 13 22 20 22 6 0 27 15 46 33 44 40
143 76 168 60 11 -7 16 -22 15 -44 -4 -83 -29 -190 -59 -254 -17 -38 -48 -108
-69 -155 -20 -47 -40 -87 -43 -90 -11 -8 -32 -49 -32 -60 0 -6 -8 -20 -18 -31
-11 -11 -24 -37 -31 -58 -6 -21 -18 -44 -26 -51 -8 -7 -15 -18 -15 -26 0 -17
-44 -99 -74 -138 -13 -17 -26 -40 -29 -51 -4 -11 -18 -32 -31 -46 -13 -14 -31
-40 -40 -57 -9 -18 -21 -32 -26 -32 -6 0 -9 -3 -9 -7 6 -36 -7 -66 -45 -109
-42 -46 -63 -95 -50 -116 3 -5 17 -14 31 -19 21 -8 30 -6 51 13 13 13 31 37
39 53 31 65 45 85 64 95 10 6 19 19 19 28 0 10 11 33 25 52 14 19 25 37 25 41
0 5 13 27 29 51 34 52 131 241 131 257 0 6 4 11 9 11 5 0 12 12 15 26 4 14 26
58 50 97 23 40 46 80 49 90 4 9 10 16 14 15 4 -1 19 2 32 6 16 6 28 3 39 -8
22 -22 26 -129 6 -181 -8 -22 -16 -53 -18 -70 -1 -16 -10 -44 -19 -61 -8 -16
-27 -62 -40 -101 -14 -39 -32 -86 -40 -104 -8 -19 -40 -97 -72 -174 -32 -77
-62 -141 -66 -143 -5 -2 -9 -12 -9 -23 0 -10 -4 -19 -10 -19 -5 0 -10 -6 -10
-14 0 -8 -7 -22 -16 -30 -8 -9 -12 -16 -7 -16 4 0 4 -4 -2 -8 -5 -4 -23 -35
-40 -70 -16 -35 -34 -67 -40 -70 -7 -4 -18 -20 -27 -37 -95 -188 -178 -326
-228 -380 -15 -16 -31 -37 -36 -46 -9 -18 -101 -124 -144 -168 -48 -49 -117
-104 -156 -125 -21 -12 -57 -33 -79 -47 -22 -15 -51 -30 -65 -34 -14 -4 -29
-11 -35 -15 -5 -4 -22 -10 -38 -14 -36 -8 -121 -64 -172 -111 -22 -20 -50 -44
-62 -52 -13 -8 -23 -20 -23 -25 0 -5 -15 -26 -32 -45 -18 -20 -46 -50 -61 -67
-16 -17 -56 -60 -90 -96 -34 -36 -87 -94 -117 -129 -30 -35 -65 -73 -78 -85
-13 -11 -33 -36 -44 -54 -21 -34 -21 -34 -1 -60 11 -15 31 -28 44 -30 25 -3
43 16 192 191 17 21 48 56 67 77 19 21 62 68 95 106 165 187 239 244 390 303
33 13 69 32 81 43 11 10 23 16 26 13 2 -3 13 4 23 15 10 11 22 20 27 20 5 0
21 11 36 25 15 14 30 25 33 25 4 0 24 17 45 38 22 20 53 49 69 64 40 36 63 63
111 123 21 27 51 62 66 78 15 16 30 38 33 48 4 11 11 19 16 19 6 0 8 4 5 9 -3
5 1 15 10 22 8 7 24 29 35 48 10 20 30 54 44 76 14 22 30 51 36 65 6 14 16 32
23 40 7 8 19 31 26 50 8 19 21 45 29 56 32 43 42 60 76 124 49 93 90 178 110
230 10 25 28 68 40 95 12 28 28 70 36 95 7 25 16 47 19 50 15 13 88 217 129
362 21 75 23 197 3 220 -6 8 -9 17 -6 20 3 3 -12 20 -33 37 -30 26 -44 31 -70
27 -28 -4 -31 -2 -24 12 17 33 59 137 67 167 11 43 11 45 13 48 2 1 4 16 6 32
11 88 17 114 29 124 21 18 104 25 120 12 27 -22 40 -129 35 -276 0 -11 -9 -57
-20 -102 -10 -45 -19 -95 -19 -112 0 -16 -4 -32 -9 -35 -5 -4 -12 -25 -16 -49
-4 -23 -25 -94 -47 -157 -21 -63 -40 -122 -43 -130 -12 -47 -58 -179 -70 -200
-7 -14 -21 -56 -29 -93 -9 -37 -20 -75 -25 -84 -5 -10 -13 -31 -17 -48 -10
-39 -9 -36 -18 -65 -4 -14 -16 -44 -27 -68 -11 -24 -22 -57 -26 -73 -3 -16
-10 -32 -14 -35 -5 -3 -9 -12 -9 -20 0 -14 -21 -66 -56 -138 -8 -16 -14 -33
-14 -39 0 -5 -6 -23 -14 -40 -8 -18 -20 -47 -27 -64 -8 -18 -17 -33 -21 -33
-5 0 -8 -6 -8 -14 0 -21 -92 -198 -122 -234 -8 -9 -20 -29 -28 -44 -7 -16 -17
-28 -22 -28 -4 0 -8 -6 -8 -13 0 -8 -11 -24 -25 -37 -13 -12 -22 -26 -19 -31
11 -18 -163 -168 -261 -224 -27 -16 -52 -32 -55 -35 -3 -4 -30 -14 -60 -24
-30 -10 -75 -27 -100 -38 -25 -11 -56 -26 -70 -32 -34 -14 -104 -88 -153 -161
-23 -33 -49 -69 -59 -79 -10 -11 -18 -23 -18 -27 0 -7 -91 -133 -158 -218 -15
-19 -65 -77 -111 -128 -82 -92 -83 -94 -71 -124 7 -17 24 -35 38 -40 20 -8 30
-4 61 23 20 17 52 52 71 77 19 25 40 52 47 59 7 7 13 17 13 21 0 4 10 19 21
32 12 13 40 49 63 79 22 30 44 57 47 60 3 3 18 23 32 46 14 22 31 47 39 55 7
8 19 26 25 41 7 16 30 47 51 70 22 24 44 52 50 64 14 27 106 75 206 109 68 23
202 102 251 148 7 6 35 30 61 52 76 63 143 139 144 163 0 6 4 12 8 12 5 0 19
19 32 43 13 23 26 44 30 47 21 17 82 134 150 285 12 28 33 75 47 105 36 80 40
91 54 133 7 20 17 37 22 37 4 0 6 4 2 9 -3 6 13 59 35 118 23 59 50 137 62
173 11 36 36 98 55 138 19 39 33 80 31 90 -2 9 2 22 9 27 7 6 15 25 18 44 3
19 10 42 16 52 5 11 7 19 4 19 -2 0 4 21 14 48 10 26 22 65 26 87 4 22 10 45
14 50 4 6 16 39 25 75 9 36 21 74 26 85 5 11 11 34 14 50 2 17 9 48 15 70 18
73 30 139 36 200 4 33 8 76 11 95 6 47 -20 199 -40 239 -9 17 -23 31 -30 31
-8 0 -16 8 -18 18 -3 10 -14 20 -24 21 -40 5 -90 5 -121 -2 l-32 -6 5 62 c7
84 -19 164 -61 188 -35 20 -108 28 -150 18z m81 -107 c24 -15 37 -101 20 -124
-13 -15 -74 -38 -104 -38 -28 0 -136 -68 -157 -100 -11 -17 -15 -19 -10 -6 3
11 13 43 21 70 9 28 20 59 25 68 5 10 10 35 11 56 1 43 20 56 93 68 22 3 42 8
44 10 7 7 45 4 57 -4z m-1446 -578 c0 -3 -17 -26 -38 -52 -21 -26 -44 -59 -52
-74 -7 -15 -23 -38 -34 -50 -17 -18 -21 -20 -24 -7 -3 18 -47 15 -72 -6 -19
-15 -219 -115 -231 -115 -8 0 -35 -20 -64 -47 -8 -7 -18 -13 -23 -13 -5 0 -15
-7 -22 -15 -23 -28 -23 -7 1 32 13 21 26 40 30 43 3 3 9 15 13 28 9 26 107
132 123 132 6 0 13 4 15 8 2 6 59 33 156 73 12 5 32 13 45 18 28 12 129 36
140 33 4 -1 7 3 7 8 0 6 7 10 15 10 8 0 15 -3 15 -6z"/>
</g>
</svg>
