<?xml version="1.0" standalone="no"?>
<!DOCTYPE svg PUBLIC "-//W3C//DTD SVG 20010904//EN"
 "http://www.w3.org/TR/2001/REC-SVG-20010904/DTD/svg10.dtd">
<svg version="1.0" xmlns="http://www.w3.org/2000/svg"
 width="563.000000pt" height="523.000000pt" viewBox="0 0 563.000000 523.000000"
 preserveAspectRatio="xMidYMid meet">
<metadata>
Created by potrace 1.16, written by Peter Selinger 2001-2019
</metadata>
<g transform="translate(0.000000,523.000000) scale(0.100000,-0.100000)"
fill="#000000" stroke="none">
<path d="M4393 5018 c-35 -60 -59 -90 -120 -154 -24 -25 -43 -48 -43 -52 0 -4
-24 -33 -52 -65 -29 -31 -69 -76 -88 -98 -19 -23 -52 -60 -72 -82 -41 -44 -45
-56 -25 -90 19 -35 29 -38 82 -32 l50 6 -25 -27 c-49 -53 -85 -83 -96 -79 -7
2 -10 -4 -7 -13 2 -11 -13 -33 -42 -60 -25 -24 -48 -54 -51 -67 -3 -13 -11
-26 -18 -28 -17 -7 -13 -44 7 -67 15 -18 19 -18 56 -5 22 8 43 11 45 6 3 -4
-8 -32 -24 -62 -53 -100 -80 -161 -80 -180 0 -10 10 -27 21 -38 20 -18 22 -19
39 -3 9 9 30 37 47 62 17 25 43 56 57 69 15 14 37 44 51 67 14 23 36 51 49 62
14 10 35 38 47 61 18 36 20 46 9 66 -12 22 -34 25 -78 10 -7 -2 -24 0 -39 6
l-27 10 62 62 c128 128 167 177 170 215 5 48 -19 68 -54 46 -23 -16 -23 -16
-14 18 6 18 19 45 30 60 11 15 20 30 20 32 0 3 30 56 68 118 37 62 70 121 74
131 4 9 12 17 17 17 5 0 13 10 17 22 3 12 13 28 20 36 20 19 17 50 -5 62 -34
18 -46 11 -78 -42z"/>
<path d="M498 4902 c-9 -2 -18 -11 -21 -20 -4 -21 31 -95 42 -87 9 5 29 -21
61 -77 8 -15 33 -57 55 -93 22 -37 47 -79 56 -93 17 -29 102 -188 127 -237 8
-16 22 -38 30 -47 8 -10 12 -18 7 -18 -4 0 4 -9 18 -20 38 -30 64 -25 88 15
12 19 25 35 30 35 5 0 9 7 9 15 0 23 22 65 34 65 18 0 40 -30 107 -145 34 -58
75 -119 91 -137 15 -17 28 -36 28 -40 0 -5 16 -26 35 -46 19 -20 38 -45 41
-54 3 -10 11 -18 17 -18 7 0 22 -3 34 -6 18 -5 23 0 34 35 10 35 14 39 31 30
31 -17 118 -111 164 -179 24 -36 76 -98 114 -139 39 -41 70 -80 70 -87 0 -20
59 -64 76 -57 45 17 30 66 -69 228 -20 33 -37 64 -37 68 0 4 -9 17 -20 29 -11
12 -20 28 -20 35 0 14 -40 93 -90 178 -16 28 -37 65 -46 83 -21 41 -94 120
-114 123 -30 5 -70 -13 -70 -31 0 -10 -7 -20 -15 -24 -9 -3 -19 -15 -23 -27
-8 -20 -16 -15 -95 67 -48 48 -110 126 -138 171 -59 95 -65 101 -106 109 -28
6 -33 3 -48 -30 -20 -42 -27 -44 -48 -13 -9 13 -37 47 -64 74 -65 68 -223 293
-206 293 4 0 -8 11 -27 24 -19 12 -42 21 -52 18 -10 -2 -18 0 -18 6 0 13 -49
29 -72 24z"/>
<path d="M2794 4845 c-9 -13 -22 -64 -30 -112 -14 -94 -17 -110 -33 -160 -5
-17 -7 -34 -3 -37 3 -3 0 -6 -6 -6 -6 0 -9 -6 -7 -13 3 -7 0 -35 -6 -62 -24
-111 -35 -181 -31 -197 4 -16 43 -36 72 -37 8 0 36 -1 61 -2 25 -1 56 4 69 11
l23 12 -6 -103 c-9 -172 -15 -223 -28 -254 -7 -16 -14 -37 -17 -45 -7 -26 -7
-110 1 -110 4 0 7 -6 7 -14 0 -17 47 -27 59 -12 5 6 17 47 25 91 9 44 21 94
27 111 5 17 12 40 14 50 6 26 33 104 45 129 5 11 14 42 20 70 6 27 17 56 25
65 12 14 18 54 16 108 -2 36 -37 64 -72 57 -21 -5 -29 -3 -29 7 0 10 -2 10 -8
1 -4 -7 -21 -12 -37 -12 -17 1 -40 -2 -52 -6 -22 -7 -23 -5 -24 46 0 30 -2 70
-4 89 -3 19 -5 103 -6 185 -1 83 -7 156 -12 163 -15 19 -35 14 -53 -13z m3
-477 c-3 -8 -6 -5 -6 6 -1 11 2 17 5 13 3 -3 4 -12 1 -19z"/>
<path d="M5300 4047 c-22 -11 -51 -17 -77 -15 -24 2 -43 0 -43 -3 0 -3 -15 -6
-32 -6 -110 -2 -311 -13 -333 -19 -14 -3 -32 -18 -39 -32 -12 -22 -11 -28 7
-49 11 -12 27 -23 34 -23 7 0 13 -5 13 -11 0 -6 23 -33 52 -60 32 -31 48 -53
42 -59 -9 -8 -54 -21 -139 -40 -22 -5 -60 -15 -85 -24 -70 -23 -190 -55 -190
-50 0 5 -157 -77 -195 -102 -42 -27 -27 -84 22 -86 10 -1 44 11 75 26 58 27
238 79 238 69 0 -3 6 -1 13 5 21 17 184 61 270 72 136 18 207 52 207 100 0 11
-13 33 -30 51 -28 31 -28 33 -11 46 11 7 27 14 38 16 10 1 29 10 43 19 14 8
58 28 98 43 39 16 72 32 72 37 0 5 4 7 8 4 5 -3 22 7 39 22 26 22 30 32 26 59
-5 30 -7 32 -47 30 -22 -1 -57 -10 -76 -20z"/>
<path d="M3522 3718 c-6 -6 -50 -17 -99 -25 -48 -8 -115 -25 -148 -38 -69 -26
-161 -49 -291 -71 -16 -3 -43 -9 -60 -15 -17 -5 -49 -9 -70 -8 -22 0 -70 -2
-109 -6 -38 -3 -86 -6 -106 -5 -20 0 -48 -4 -62 -9 -16 -6 -29 -7 -32 -1 -3 5
-24 2 -48 -6 -26 -10 -72 -15 -122 -15 -86 2 -221 -19 -270 -40 -50 -22 -129
-75 -173 -116 -38 -35 -127 -188 -135 -231 -2 -9 -9 -35 -15 -57 -14 -51 -24
-190 -25 -330 0 -113 13 -192 68 -400 14 -55 28 -109 30 -120 3 -11 7 -29 10
-40 33 -131 66 -338 75 -465 6 -85 14 -198 19 -250 10 -122 11 -520 1 -630 -4
-47 -11 -197 -15 -335 -7 -271 -5 -282 51 -437 7 -20 41 -27 130 -25 62 2 75
6 105 31 76 64 132 163 143 252 2 16 9 55 16 87 l13 58 34 -71 c63 -132 132
-204 208 -216 36 -5 44 -2 76 28 65 59 77 97 85 263 7 167 12 244 19 315 9
102 33 248 45 270 6 11 9 20 6 20 -12 0 57 185 74 200 9 7 24 43 22 53 -1 4 2
7 7 7 5 0 11 10 15 23 8 33 69 89 89 81 16 -6 127 -137 127 -150 0 -3 11 -19
25 -36 14 -16 34 -62 46 -101 12 -40 30 -90 39 -112 10 -22 21 -56 24 -75 3
-19 11 -53 17 -75 6 -22 14 -56 18 -75 5 -19 11 -42 14 -50 3 -8 8 -52 11 -98
3 -46 8 -88 12 -93 5 -9 8 -191 4 -214 -1 -5 -2 -52 -1 -102 l1 -93 46 -45
c44 -42 60 -50 92 -46 6 1 12 -2 12 -7 0 -10 36 -9 46 0 3 4 12 4 20 1 23 -9
89 42 113 87 32 62 79 208 99 310 6 30 21 102 33 160 11 58 25 130 29 162 4
31 10 60 13 65 3 5 10 45 16 89 7 44 14 91 16 105 21 105 24 457 6 579 -6 36
-13 82 -16 104 -3 21 -7 41 -9 45 -2 3 -7 64 -11 136 -3 71 -9 146 -11 165
-11 78 -10 188 2 233 7 26 11 47 9 47 -4 0 21 79 39 121 15 36 23 76 51 254 8
50 20 122 26 160 21 122 11 427 -16 515 -7 25 -24 84 -36 132 -29 110 -55 140
-146 168 -36 11 -75 18 -85 14 -23 -7 -188 -11 -194 -5 -9 9 -32 9 -42 -1z
m356 -126 c34 -24 65 -117 91 -265 11 -67 13 -349 2 -422 -25 -166 -55 -307
-76 -348 -8 -16 -15 -36 -15 -44 0 -7 -5 -13 -10 -13 -6 0 -10 -12 -9 -27 1
-16 -6 -73 -16 -128 -17 -98 -17 -157 1 -365 5 -58 23 -217 29 -260 36 -246
44 -433 24 -533 -6 -29 -10 -70 -10 -91 1 -22 -3 -60 -8 -85 -19 -84 -41 -197
-46 -232 -12 -88 -58 -287 -109 -469 -19 -66 -61 -128 -101 -147 -30 -14 -38
-15 -72 -2 -38 15 -40 18 -43 79 -10 195 -26 390 -33 410 -3 8 -8 42 -12 75
-5 61 -12 93 -38 180 -8 28 -18 70 -21 95 -4 25 -13 54 -21 66 -7 11 -24 56
-38 100 -29 95 -59 164 -70 164 -4 0 -5 5 -2 10 3 6 2 10 -3 10 -5 0 -26 26
-48 57 -82 120 -182 185 -289 188 -33 1 -66 4 -74 6 -7 2 -34 -20 -58 -51 -25
-30 -56 -67 -69 -82 -13 -15 -24 -33 -24 -40 0 -6 -24 -52 -54 -102 -30 -50
-56 -100 -58 -111 -1 -11 -6 -22 -10 -25 -16 -12 -123 -254 -153 -345 -78
-239 -115 -363 -121 -408 -3 -26 -10 -47 -14 -47 -4 0 -8 -15 -8 -32 0 -41
-18 -88 -33 -88 -6 0 -9 -7 -5 -15 3 -9 0 -15 -9 -15 -8 0 -15 -9 -15 -19 0
-43 -100 -100 -157 -89 -30 5 -54 96 -54 207 -1 159 8 438 19 571 12 144 7
466 -9 553 -5 32 -9 98 -8 147 1 48 -1 92 -4 97 -3 5 -7 45 -8 88 -1 44 -13
130 -26 190 -12 61 -23 121 -23 135 0 13 -6 42 -14 65 -64 183 -133 585 -108
629 2 4 5 33 5 64 0 31 3 68 7 84 5 15 10 49 11 75 11 173 177 366 326 379 21
2 58 8 83 13 25 5 77 7 115 5 39 -3 95 -6 125 -8 70 -4 228 -53 258 -79 12
-12 22 -15 22 -9 0 9 5 9 18 3 24 -13 54 -24 72 -26 8 -1 35 -7 60 -14 123
-36 290 2 324 74 14 28 14 37 2 65 -10 25 -14 29 -19 15 -4 -9 -11 -14 -16
-10 -5 3 -16 -4 -24 -15 -24 -35 -75 -49 -165 -44 -91 4 -231 36 -242 55 -4 6
-12 9 -18 5 -6 -3 -13 -2 -17 3 -6 11 27 17 140 26 44 3 99 13 123 20 23 8 63
17 88 19 25 3 75 16 112 30 137 51 233 68 312 56 8 -1 29 1 45 4 17 4 59 9 95
12 36 3 66 7 68 8 8 8 110 -17 130 -32z m-898 -2109 c0 -3 -9 -17 -19 -32 -22
-31 -111 -201 -111 -213 0 -5 -9 -27 -19 -51 -10 -23 -24 -64 -31 -92 -6 -27
-16 -61 -20 -75 -5 -14 -11 -47 -14 -75 -11 -92 -18 -150 -23 -170 -5 -23 -12
-152 -16 -301 -2 -65 -8 -108 -16 -118 -7 -8 -10 -19 -7 -25 7 -11 -49 -61
-68 -61 -28 0 -136 140 -136 176 0 8 -7 25 -15 38 -9 13 -17 39 -18 57 -1 19
-8 40 -15 48 -8 8 -11 21 -9 30 23 75 104 305 119 339 10 23 22 42 27 42 5 0
11 17 15 38 3 22 14 50 24 63 10 13 24 39 30 57 6 18 26 54 43 80 18 26 41 63
52 82 48 86 117 160 155 166 8 2 16 4 18 7 6 5 54 -4 54 -10z"/>
<path d="M573 3283 c-4 -9 -7 -44 -7 -78 l-1 -60 -80 0 c-44 0 -148 8 -231 19
-128 17 -156 18 -182 7 -38 -16 -39 -25 -9 -55 16 -16 52 -29 132 -46 60 -12
141 -36 180 -52 177 -74 276 -101 290 -78 4 6 7 49 7 96 1 92 1 92 63 64 51
-22 154 -60 195 -70 25 -6 72 -29 106 -51 33 -21 64 -39 68 -39 4 0 22 -6 39
-14 51 -23 86 -26 91 -7 8 31 5 121 -5 126 -18 12 -10 45 11 45 11 0 20 -3 20
-7 0 -5 16 -8 36 -7 20 1 57 -3 82 -8 26 -5 70 -11 97 -13 28 -1 63 -8 78 -14
46 -18 64 -14 75 18 10 27 8 30 -26 44 -21 9 -52 18 -70 21 -19 3 -57 18 -85
32 -66 34 -295 114 -324 114 -33 0 -66 -35 -54 -58 12 -21 41 -125 37 -130 -3
-3 -123 48 -156 67 -9 5 -31 12 -50 16 -19 4 -46 15 -60 25 -41 28 -193 97
-228 103 -25 5 -34 3 -39 -10z"/>
<path d="M4067 2733 c-16 -15 -5 -44 22 -58 16 -8 58 -47 93 -86 35 -39 99
-108 143 -153 44 -44 91 -95 105 -113 48 -62 115 -44 104 27 -4 23 -1 47 7 61
7 13 15 39 18 57 l6 33 42 -36 c23 -19 59 -45 81 -58 40 -23 98 -67 163 -124
20 -18 41 -33 46 -33 5 0 18 -8 29 -19 19 -17 21 -17 41 -1 12 9 24 35 28 58
3 23 15 52 26 66 10 13 19 33 19 44 0 20 0 20 51 2 28 -11 61 -25 72 -33 12
-7 43 -19 69 -25 26 -7 69 -25 95 -40 26 -15 74 -39 106 -51 47 -19 63 -22 83
-13 35 16 33 63 -3 80 -15 6 -31 12 -36 12 -5 0 -35 16 -67 35 -32 19 -65 35
-74 35 -18 0 -21 2 -136 76 -41 26 -104 59 -139 71 -58 22 -65 22 -81 8 -10
-9 -26 -37 -35 -63 -10 -26 -19 -48 -20 -50 -3 -4 -118 68 -125 78 -9 13 -95
72 -125 86 -73 36 -105 55 -105 63 0 14 -43 0 -67 -22 -15 -13 -23 -32 -23
-53 0 -42 -15 -51 -43 -27 -12 10 -38 27 -57 36 -76 38 -90 49 -107 78 -15 26
-23 30 -49 26 -21 -4 -42 1 -63 14 -31 19 -81 25 -94 12z"/>
<path d="M1720 1959 c-25 -5 -65 -15 -90 -21 -25 -7 -51 -11 -58 -10 -8 2 -22
-4 -32 -13 -9 -8 -50 -22 -90 -31 -40 -8 -98 -24 -129 -35 -31 -11 -78 -27
-106 -34 -116 -31 -132 -37 -144 -56 -16 -27 -7 -50 26 -72 16 -9 44 -27 63
-39 19 -12 61 -42 93 -66 l59 -45 -94 -47 c-51 -26 -113 -59 -138 -74 -25 -14
-52 -28 -60 -32 -8 -3 -53 -21 -100 -39 -86 -34 -141 -56 -150 -61 -3 -1 -15
-5 -27 -9 -50 -16 -33 -86 25 -98 27 -6 151 -111 142 -120 -8 -8 -213 -117
-220 -117 -3 0 -15 -8 -26 -17 -10 -10 -44 -31 -74 -46 -51 -26 -110 -60 -220
-126 -25 -15 -71 -38 -102 -51 -46 -19 -58 -29 -63 -51 -11 -48 10 -59 70 -37
27 10 59 23 70 28 18 8 61 22 75 25 20 4 63 21 107 42 29 14 69 29 90 35 106
27 130 35 158 49 17 9 57 24 90 33 33 10 78 26 100 36 22 11 51 22 65 25 14 3
43 18 65 34 30 20 41 35 43 58 3 31 -24 64 -127 150 l-33 29 72 54 c40 30 85
62 101 71 16 9 48 32 70 50 23 19 49 38 60 43 10 5 21 17 24 26 3 9 23 25 45
35 23 11 40 25 40 35 0 9 7 25 15 36 23 31 18 47 -31 96 l-46 46 43 23 c24 13
49 24 54 25 6 1 47 23 93 48 45 25 84 46 86 46 2 0 37 20 77 45 40 25 79 45
86 45 7 0 13 6 13 14 0 8 5 16 11 18 12 4 -5 59 -18 57 -5 -1 -28 -5 -53 -10z"/>
</g>
</svg>
