<?xml version="1.0" standalone="no"?>
<!DOCTYPE svg PUBLIC "-//W3C//DTD SVG 20010904//EN"
 "http://www.w3.org/TR/2001/REC-SVG-20010904/DTD/svg10.dtd">
<svg version="1.0" xmlns="http://www.w3.org/2000/svg"
 width="287.000000pt" height="497.000000pt" viewBox="0 0 287.000000 497.000000"
 preserveAspectRatio="xMidYMid meet">
<metadata>
Created by potrace 1.16, written by Peter Selinger 2001-2019
</metadata>
<g transform="translate(0.000000,497.000000) scale(0.100000,-0.100000)"
fill="#000000" stroke="none">
<path d="M1725 4859 c-110 -11 -272 -81 -345 -147 -25 -23 -48 -42 -52 -42 -5
0 -8 -7 -8 -15 0 -8 -9 -20 -20 -27 -11 -7 -20 -16 -20 -19 0 -3 -20 -36 -44
-73 -58 -88 -105 -209 -110 -282 -3 -32 -8 -87 -12 -121 -4 -38 -3 -63 3 -63
5 0 8 -13 5 -30 -9 -65 40 -194 113 -297 35 -48 103 -96 163 -114 48 -14 49
-19 28 -119 -20 -97 -32 -117 -75 -126 -20 -4 -39 -7 -42 -6 -52 10 -123 11
-134 2 -9 -8 -55 -10 -137 -8 -68 1 -129 -1 -137 -6 -9 -6 -12 -5 -7 2 8 13
-30 36 -49 28 -24 -9 -44 -49 -50 -101 -7 -66 -11 -77 -56 -168 -22 -43 -39
-82 -39 -87 0 -5 -24 -51 -53 -102 -29 -51 -62 -113 -72 -138 -11 -25 -29 -62
-42 -82 -13 -21 -23 -42 -23 -47 0 -5 -7 -14 -15 -21 -14 -12 -93 -122 -120
-168 -28 -46 -69 -108 -75 -112 -11 -7 -18 -83 -9 -100 4 -8 16 -35 26 -60 11
-25 41 -88 66 -140 26 -52 47 -99 47 -104 0 -5 11 -34 24 -65 60 -140 89 -219
93 -251 2 -19 13 -59 24 -89 11 -30 18 -60 15 -67 -2 -6 5 -20 17 -31 26 -23
86 -31 88 -11 5 50 2 84 -7 93 -9 8 -47 98 -49 115 0 3 -5 12 -10 20 -5 8 -10
21 -11 30 -5 34 -13 60 -32 96 -11 22 -20 43 -20 47 -1 4 -10 27 -21 50 -10
23 -29 69 -41 102 -12 33 -28 73 -36 88 -8 16 -14 36 -14 46 0 9 -7 26 -15 38
-9 12 -15 26 -14 30 1 4 -3 21 -9 36 -17 40 -15 93 4 130 9 18 20 34 24 37 4
3 15 20 25 39 9 19 21 39 26 45 37 44 102 161 214 384 48 94 88 172 89 172 9
0 -12 -388 -23 -409 -16 -32 -42 -213 -29 -205 4 3 8 12 8 21 0 9 3 14 6 10 9
-9 -5 -59 -15 -53 -4 3 -8 -32 -9 -77 0 -45 -7 -111 -16 -147 -34 -143 -29
-330 12 -420 14 -33 27 -82 36 -139 5 -36 37 -130 62 -187 30 -67 55 -140 59
-175 3 -24 35 -127 67 -214 22 -62 11 -113 -57 -250 -59 -122 -112 -233 -148
-315 -79 -181 -113 -249 -137 -268 -18 -15 -21 -24 -15 -50 8 -37 -7 -35 235
-37 91 -1 176 -4 190 -8 89 -24 290 -27 252 -3 -7 4 -10 11 -8 15 3 4 -6 14
-19 21 -17 9 -23 19 -20 30 5 14 -3 17 -51 19 -32 1 -76 6 -98 11 -23 6 -108
13 -191 16 -82 4 -151 8 -153 9 -2 1 11 32 28 69 16 37 30 69 30 72 0 3 8 18
18 32 16 23 65 136 67 152 2 15 51 110 57 110 5 0 8 9 8 20 0 10 14 42 30 70
17 28 37 66 45 83 8 18 19 39 24 47 33 55 35 69 17 127 -9 32 -21 76 -26 98
-5 22 -14 54 -21 70 -15 35 -13 32 -24 69 -4 17 -21 54 -37 84 -15 30 -28 63
-28 73 0 11 -6 22 -12 24 -7 3 -14 17 -15 31 -1 23 -9 44 -44 116 -5 10 -9 35
-10 55 0 21 -9 76 -20 123 -32 134 -32 139 -18 156 7 9 22 14 36 11 12 -2 24
1 26 7 3 8 18 7 53 -3 27 -7 74 -15 104 -17 30 -2 66 -6 79 -9 13 -3 27 -1 31
5 8 13 119 14 183 2 50 -10 146 -9 207 2 32 5 38 3 65 -34 17 -21 35 -39 40
-40 6 0 18 -8 27 -17 33 -36 66 -63 78 -63 6 0 23 -13 37 -30 13 -16 29 -30
33 -30 5 0 22 -12 37 -26 15 -15 46 -38 68 -52 22 -14 44 -31 48 -38 4 -8 13
-14 19 -14 15 0 91 -70 100 -91 10 -26 -7 -83 -56 -184 -23 -49 -53 -111 -65
-137 -12 -27 -27 -48 -32 -48 -5 0 -9 -6 -9 -14 0 -8 -16 -38 -36 -67 -20 -30
-42 -65 -48 -79 -21 -48 -71 -119 -84 -120 -7 0 -16 -8 -19 -18 -4 -9 -15 -26
-25 -36 -10 -11 -18 -22 -18 -25 0 -6 34 -48 74 -91 13 -14 39 -55 57 -91 44
-84 119 -186 142 -192 30 -9 44 2 50 39 5 29 1 39 -22 62 -15 15 -36 42 -46
60 -11 17 -23 32 -27 32 -4 0 -8 6 -8 14 0 7 -16 34 -35 60 -20 25 -33 46 -30
46 3 0 -3 10 -15 22 -23 25 -25 34 -9 43 5 4 15 17 20 28 5 12 18 36 28 52 10
17 16 33 14 37 -2 5 0 8 6 8 5 0 24 29 41 65 17 36 49 93 71 126 50 74 90 159
82 172 -3 6 -1 7 5 3 7 -4 16 4 23 21 7 15 22 51 35 78 43 96 54 128 54 159 0
39 -7 48 -50 68 -19 9 -44 25 -55 35 -11 10 -36 29 -55 43 -19 13 -46 35 -60
48 -13 13 -38 31 -55 39 -16 9 -36 24 -43 34 -7 11 -17 19 -22 19 -14 0 -142
90 -172 121 -15 15 -32 45 -38 67 -8 33 -7 47 9 86 19 43 40 111 41 129 0 4
10 28 23 55 13 26 29 67 36 92 6 25 18 65 26 90 7 25 16 61 20 80 4 19 10 40
13 45 4 6 7 15 9 20 11 50 56 212 72 260 17 50 20 55 21 30 1 -16 3 -43 4 -60
10 -100 4 -558 -8 -590 -5 -16 4 -32 43 -72 28 -29 52 -53 55 -53 2 0 25 -20
50 -45 26 -25 50 -45 54 -45 11 -1 112 -96 112 -106 0 -5 16 -20 35 -32 51
-35 173 -162 157 -162 -4 0 2 -6 12 -12 15 -8 21 -8 24 0 2 7 9 12 16 12 7 0
12 19 14 53 l2 52 -60 49 c-33 28 -60 53 -60 58 0 4 -4 8 -10 8 -5 0 -18 8
-28 18 -47 45 -100 90 -132 112 -19 13 -48 38 -65 55 -16 17 -41 40 -55 50
-14 11 -36 37 -48 58 -19 34 -22 51 -20 130 3 88 -7 211 -18 229 -3 4 -2 8 3
8 9 0 6 162 -10 410 0 8 3 71 8 140 11 167 8 221 -11 240 -10 10 -231 23 -381
23 l-103 0 1 26 c0 14 10 60 23 101 l22 75 44 10 c60 14 98 34 138 70 19 16
40 34 48 38 8 4 14 14 14 22 0 8 5 17 11 21 8 4 9 -1 4 -15 -6 -21 -5 -21 17
-9 35 20 156 139 180 178 36 59 77 140 70 140 -4 0 -2 4 3 8 9 6 55 137 71
202 13 51 3 193 -17 249 -10 30 -19 63 -19 72 0 32 -109 158 -196 226 -49 39
-99 51 -179 42z m83 -96 c28 -16 66 -42 84 -59 51 -47 168 -173 169 -181 1 -5
4 -19 6 -33 3 -14 5 -70 5 -125 1 -83 -2 -107 -19 -140 -12 -22 -23 -54 -26
-71 -12 -76 -115 -235 -199 -305 -61 -52 -152 -109 -173 -109 -7 0 -17 -5 -20
-10 -4 -6 -12 -10 -18 -8 -7 1 -41 -1 -77 -6 -53 -6 -77 -3 -130 14 -35 11
-75 27 -87 36 -13 8 -28 12 -34 8 -7 -4 -9 0 -5 12 6 22 -35 74 -59 74 -8 0
-15 8 -14 18 0 10 3 12 6 5 2 -7 9 -13 13 -13 5 0 3 15 -5 34 -8 18 -16 46
-19 62 -3 16 -10 30 -16 32 -5 2 -10 8 -10 13 0 6 5 7 11 3 6 -3 3 6 -7 22
-11 15 -13 25 -6 21 7 -5 12 -3 12 7 0 9 -5 16 -11 16 -5 0 -7 5 -3 12 4 6 8
36 9 67 3 59 5 69 36 194 22 89 59 149 153 248 58 61 168 135 226 153 139 43
143 44 208 9z m-311 -35 c-3 -8 -6 -5 -6 6 -1 11 2 17 5 13 3 -3 4 -12 1 -19z
m306 -1430 c40 -6 75 -16 79 -22 19 -27 7 -140 -23 -230 -17 -50 -33 -102 -35
-115 -3 -13 -11 -51 -19 -85 -18 -75 -18 -79 -2 -71 6 4 5 1 -4 -7 -8 -7 -21
-31 -27 -53 -36 -129 -82 -275 -97 -310 -10 -22 -16 -40 -15 -40 1 0 -5 -18
-14 -39 -9 -21 -19 -53 -21 -70 -3 -17 -17 -53 -30 -79 -14 -27 -25 -56 -25
-65 0 -10 -7 -30 -15 -46 -8 -15 -15 -34 -15 -41 0 -27 -77 -36 -253 -30 -390
14 -489 22 -499 38 -8 12 -12 61 -8 110 1 18 -5 34 -17 43 -14 11 -14 13 -2 8
25 -8 32 45 31 221 0 22 5 65 10 95 6 30 12 73 14 95 1 22 5 51 8 65 7 29 15
132 21 280 3 58 7 114 9 126 2 11 7 47 11 79 9 79 25 124 47 131 27 8 502 9
516 0 6 -4 12 -3 12 3 0 5 8 8 18 6 10 -2 25 1 33 6 20 13 228 11 312 -3z
m-179 -1134 c3 -8 2 -12 -4 -9 -6 3 -10 10 -10 16 0 14 7 11 14 -7z"/>
</g>
</svg>
