<?xml version="1.0" standalone="no"?>
<!DOCTYPE svg PUBLIC "-//W3C//DTD SVG 20010904//EN"
 "http://www.w3.org/TR/2001/REC-SVG-20010904/DTD/svg10.dtd">
<svg version="1.0" xmlns="http://www.w3.org/2000/svg"
 width="505.000000pt" height="429.000000pt" viewBox="0 0 505.000000 429.000000"
 preserveAspectRatio="xMidYMid meet">
<metadata>
Created by potrace 1.16, written by Peter Selinger 2001-2019
</metadata>
<g transform="translate(0.000000,429.000000) scale(0.100000,-0.100000)"
fill="#000000" stroke="none">
<path d="M458 4003 c6 -2 18 -2 25 0 6 3 1 5 -13 5 -14 0 -19 -2 -12 -5z"/>
<path d="M4343 3900 c-13 -5 -56 -9 -95 -9 -40 0 -90 -6 -111 -14 -46 -17
-127 -82 -127 -102 0 -8 -4 -15 -9 -15 -14 0 -59 -100 -74 -165 -36 -152 -39
-175 -35 -285 3 -113 4 -117 47 -203 41 -82 47 -89 97 -114 40 -19 54 -32 54
-47 0 -21 -19 -81 -31 -101 -4 -5 -10 -26 -14 -45 -10 -46 -22 -60 -48 -54
-12 2 -60 6 -107 9 -47 3 -100 8 -119 11 -92 15 -111 15 -117 -1 -3 -8 -14
-15 -23 -15 -22 0 -42 -14 -44 -31 -2 -8 -6 -20 -10 -26 -5 -7 -5 -13 -1 -13
4 0 -4 -13 -19 -28 -15 -16 -24 -31 -20 -35 3 -4 2 -7 -4 -7 -10 0 -69 -54
-104 -96 -20 -24 -57 -54 -66 -54 -4 0 -25 -19 -48 -42 -40 -42 -81 -78 -90
-78 -9 0 -95 -62 -102 -74 -10 -16 -104 -68 -111 -61 -5 5 -42 156 -46 191 -1
11 -6 26 -11 34 -9 14 -16 51 -70 355 -15 83 -36 175 -47 205 -27 75 -36 111
-53 205 -7 44 -21 114 -30 155 -9 41 -20 100 -25 130 -13 75 -12 73 -45 179
-18 54 -36 96 -45 98 -8 3 -30 12 -48 20 -18 8 -38 10 -45 6 -6 -4 -39 -8 -72
-9 -86 -2 -361 -13 -490 -20 -60 -3 -153 -7 -205 -9 -168 -6 -372 -15 -470
-21 -198 -12 -304 -15 -628 -19 -240 -2 -337 -7 -347 -15 -8 -7 -15 -9 -15 -5
0 4 -7 2 -15 -5 -21 -18 -19 -42 10 -96 14 -26 25 -56 25 -67 0 -11 16 -51 36
-90 20 -39 37 -78 39 -86 2 -9 11 -41 19 -71 13 -49 24 -81 79 -225 9 -22 24
-71 35 -110 11 -38 34 -119 52 -180 18 -60 34 -122 35 -136 2 -15 6 -37 9 -50
9 -34 36 -128 47 -165 5 -17 9 -39 9 -50 0 -11 4 -24 8 -30 5 -5 17 -36 26
-69 10 -33 31 -100 47 -149 16 -50 25 -92 21 -95 -5 -3 -9 -13 -10 -21 -5 -92
-20 -175 -37 -210 -7 -14 -15 -39 -18 -55 -9 -53 -30 -129 -42 -155 -7 -14
-18 -58 -25 -99 -7 -40 -23 -98 -36 -128 -13 -29 -24 -61 -24 -71 0 -9 -13
-60 -30 -112 -16 -52 -36 -119 -45 -148 -9 -29 -27 -77 -40 -106 -13 -29 -29
-75 -35 -102 -14 -61 -59 -212 -112 -368 -22 -66 -41 -129 -42 -140 -2 -12 -9
-31 -16 -42 -8 -13 -10 -29 -5 -40 4 -11 7 -27 6 -36 -1 -9 7 -22 18 -28 38
-20 68 31 85 140 6 40 18 86 39 150 28 83 47 155 53 200 4 25 10 50 14 55 7
10 64 174 65 187 0 3 3 10 8 14 4 4 7 14 7 22 0 9 11 43 25 78 14 34 38 113
54 175 16 63 37 134 45 158 9 24 28 92 42 150 14 58 30 111 35 116 4 6 19 53
33 105 13 52 29 106 34 120 9 24 9 24 20 -10 23 -68 64 -266 63 -301 -2 -54
21 -69 89 -58 30 5 73 12 95 14 72 10 99 15 145 30 25 7 67 16 93 20 l48 6 -5
-128 c-7 -147 -13 -217 -26 -288 -5 -27 -11 -70 -14 -95 -2 -25 -16 -106 -30
-179 -15 -74 -28 -153 -31 -175 -8 -93 -18 -152 -28 -171 -5 -10 -11 -60 -13
-110 -2 -49 -7 -115 -10 -146 -6 -50 -4 -59 15 -78 19 -19 50 -22 69 -6 6 5
14 118 16 253 2 81 6 161 10 177 17 80 36 185 40 225 2 25 12 79 21 120 16 74
19 95 30 197 2 28 7 57 9 65 3 7 7 54 10 103 9 132 13 161 31 228 2 4 3 14 4
22 0 8 11 15 24 15 12 0 43 7 69 14 54 17 295 61 383 71 33 4 94 15 137 26 87
22 98 23 98 10 0 -6 15 -43 34 -83 65 -140 106 -252 106 -289 0 -19 31 -82 43
-87 4 -2 5 -8 1 -13 -3 -5 0 -9 6 -9 6 0 9 -4 6 -8 -6 -10 8 -54 59 -197 20
-54 38 -115 41 -135 3 -19 13 -53 23 -75 28 -59 79 -198 84 -226 3 -13 8 -42
12 -64 4 -22 18 -62 31 -89 13 -27 27 -65 30 -85 4 -19 17 -46 30 -60 22 -24
23 -24 49 -7 22 14 25 23 21 49 -5 32 -39 119 -74 192 -11 22 -27 69 -36 105
-18 72 -48 156 -74 204 -9 17 -15 34 -14 38 1 4 -5 26 -14 50 -14 38 -40 128
-49 168 -2 8 -22 67 -45 130 -52 145 -64 183 -79 245 -7 27 -18 63 -25 80 -44
102 -56 133 -61 161 -6 30 -4 32 27 37 147 22 599 119 676 144 51 17 53 19 48
47 -3 16 -2 34 3 40 6 7 1 36 -14 79 -25 71 -24 93 3 102 10 2 30 16 46 30 16
14 35 25 42 25 7 0 14 3 16 8 2 4 21 20 43 37 22 16 45 33 50 37 6 4 35 26 65
48 30 22 77 59 103 82 26 23 57 48 68 56 11 8 36 29 54 47 l33 34 -4 -72 c-2
-40 -8 -92 -14 -117 -5 -25 -12 -81 -14 -125 -14 -217 -26 -367 -30 -374 -3
-4 -7 -36 -10 -71 -2 -35 -11 -77 -19 -94 -9 -17 -20 -58 -25 -91 -9 -53 -26
-112 -53 -180 -5 -11 -15 -43 -22 -71 -27 -93 -131 -324 -169 -373 -26 -34
-23 -69 16 -168 61 -157 130 -387 141 -468 6 -50 6 -50 -27 -64 -18 -7 -40
-15 -48 -17 -39 -8 -106 -28 -115 -34 -5 -3 -21 -5 -35 -4 -14 1 -39 -5 -57
-13 -28 -13 -31 -18 -28 -53 4 -56 11 -62 59 -55 48 8 146 39 196 62 19 9 65
18 102 21 61 4 68 7 68 26 0 11 4 27 9 34 5 9 -3 44 -21 95 -17 45 -34 102
-39 127 -5 25 -16 65 -24 90 -75 229 -108 338 -108 356 1 12 17 57 38 100 20
44 39 92 42 109 3 16 12 42 20 58 7 15 10 27 6 27 -5 0 -3 4 3 8 7 4 30 61 53
127 85 249 82 245 157 253 80 9 292 8 444 -2 69 -5 135 -8 147 -7 29 1 41 -39
25 -83 -6 -17 -14 -47 -17 -66 -3 -19 -7 -42 -9 -50 -1 -8 -8 -33 -14 -55 -6
-22 -19 -77 -27 -122 -9 -45 -27 -111 -40 -147 -13 -35 -22 -66 -19 -69 3 -3
-1 -16 -10 -29 -20 -31 -6 -88 35 -139 16 -20 29 -42 29 -49 0 -7 15 -42 34
-79 19 -36 51 -102 72 -146 21 -44 43 -83 47 -86 5 -4 22 -35 37 -70 l28 -63
-51 -18 c-28 -10 -61 -18 -73 -18 -20 0 -80 -21 -161 -55 -18 -8 -40 -26 -49
-40 -16 -24 -15 -27 7 -59 20 -30 27 -33 57 -30 19 3 42 13 51 24 9 11 25 21
36 23 20 4 40 11 84 28 18 7 26 7 32 -3 7 -10 12 -11 29 -1 11 7 27 13 35 13
8 0 15 4 15 10 0 5 19 14 43 21 57 15 63 22 65 70 1 29 -5 50 -22 72 -22 29
-59 95 -61 107 -1 11 -71 148 -97 191 -15 25 -28 51 -28 57 0 5 -22 57 -50
114 -52 107 -56 125 -41 174 17 55 31 109 47 184 9 41 29 125 44 185 43 169
54 239 41 263 -7 13 -8 29 -2 44 9 24 24 119 20 128 -1 3 3 15 9 26 6 12 18
57 26 100 30 158 55 251 121 449 13 39 29 97 35 130 7 33 16 66 20 74 8 14 16
4 117 -149 31 -47 82 -113 114 -147 49 -52 57 -67 53 -90 -3 -15 -9 -57 -14
-93 -13 -96 -26 -158 -48 -230 -30 -96 -63 -220 -68 -260 -3 -19 -9 -46 -14
-60 -6 -14 -12 -41 -14 -60 -3 -19 -14 -70 -25 -112 -27 -101 -27 -122 4 -142
24 -16 26 -15 46 3 13 12 19 26 16 35 -4 9 -3 16 2 16 5 0 12 23 15 52 4 29
16 85 27 124 11 40 22 87 24 105 9 68 25 139 38 171 8 18 18 56 22 83 5 28 9
52 10 55 1 3 5 23 9 45 17 89 48 221 56 236 11 22 15 109 6 136 -4 12 -15 24
-24 27 -50 16 -212 225 -276 355 -27 56 -61 64 -310 68 -115 1 -211 5 -214 7
-9 9 20 106 39 130 10 13 19 33 19 44 0 16 9 20 53 25 58 6 109 25 101 38 -3
5 2 6 10 3 8 -3 23 3 33 14 75 79 98 108 119 151 13 27 28 52 34 56 5 3 10 17
10 31 0 14 9 43 21 66 11 22 22 49 24 60 25 128 26 334 2 389 -18 44 -81 115
-116 133 -37 19 -102 27 -128 16z m-33 -111 c19 2 46 4 60 5 28 3 80 -23 115
-58 24 -25 61 -170 51 -204 -3 -9 -7 -33 -10 -52 -12 -79 -38 -160 -78 -238
-46 -92 -73 -132 -92 -132 -6 0 -18 -9 -26 -20 -8 -11 -28 -22 -45 -25 -63
-11 -106 -12 -111 -4 -3 5 -18 9 -34 9 -21 0 -44 14 -80 47 -55 51 -76 100
-86 207 -6 62 12 213 27 222 5 3 7 10 3 15 -3 5 -1 15 4 22 5 7 15 30 22 52
18 56 64 105 129 138 42 21 63 26 86 21 17 -4 46 -6 65 -5z m-1842 -95 c26 -3
42 -10 42 -19 0 -9 10 -12 38 -8 l38 5 32 -73 c32 -75 48 -139 102 -419 17
-85 34 -164 39 -175 14 -33 77 -319 87 -390 3 -22 7 -49 8 -60 19 -108 30
-155 41 -181 7 -17 15 -49 18 -70 3 -22 11 -61 16 -87 10 -41 9 -50 -6 -66
-32 -32 -77 -58 -122 -72 -43 -13 -44 -13 -67 17 -13 16 -24 35 -24 42 0 7
-16 43 -35 79 -19 36 -35 70 -35 75 0 5 -13 29 -30 53 -38 55 -39 77 -2 43 42
-39 59 -41 98 -10 38 30 42 46 16 82 -13 20 -26 26 -61 27 -24 1 -53 9 -65 16
-11 8 -41 17 -66 21 -24 4 -49 11 -55 16 -6 5 -27 11 -46 14 -114 14 -169 35
-169 65 0 10 -11 30 -25 43 -54 55 -310 53 -360 -2 -25 -27 -82 -126 -88 -153
-4 -13 -27 -43 -52 -66 -59 -54 -87 -53 -97 4 -7 39 8 171 22 190 4 6 11 26
15 45 3 19 15 53 25 75 70 155 76 270 18 344 -25 33 -42 34 -99 8 -42 -19 -54
-33 -98 -107 -28 -47 -54 -90 -58 -95 -4 -6 -17 -28 -28 -50 -33 -67 -133
-159 -188 -174 -51 -15 -77 -5 -77 28 0 29 32 154 66 256 42 128 52 234 27
284 -27 54 -47 72 -89 81 -49 11 -156 -10 -195 -39 -15 -12 -32 -21 -37 -21
-28 0 -187 -146 -202 -186 -10 -26 13 -64 39 -64 10 0 27 12 36 28 10 15 30
38 44 52 14 14 38 41 54 59 15 18 27 29 27 25 0 -4 8 0 18 8 25 21 128 43 182
39 24 -2 48 -65 51 -141 2 -24 -20 -98 -43 -150 -6 -14 -14 -34 -19 -45 -12
-29 -40 -168 -34 -173 3 -3 0 -11 -6 -18 -7 -8 -8 -29 -4 -53 9 -53 59 -88
104 -73 16 6 32 8 34 5 3 -2 19 3 36 11 16 9 38 16 49 16 30 0 145 137 198
237 14 26 34 62 45 78 10 17 22 36 25 43 3 6 12 12 20 12 8 0 14 3 14 8 0 13
42 34 51 25 29 -29 12 -164 -31 -243 -10 -20 -21 -47 -24 -60 -3 -14 -12 -50
-20 -80 -32 -110 -38 -154 -32 -207 10 -87 43 -133 93 -133 40 0 136 61 171
109 39 53 62 58 118 25 27 -16 49 -27 49 -26 0 2 13 -1 28 -7 37 -14 54 -14
114 4 35 10 62 27 86 54 l35 39 69 -5 c70 -6 103 -16 103 -34 0 -11 47 -86 73
-113 9 -11 17 -24 17 -28 0 -5 17 -35 39 -67 21 -32 62 -107 91 -166 28 -59
60 -117 71 -128 19 -21 27 -20 79 12 8 5 35 17 60 27 25 10 56 26 69 36 30 23
50 23 49 1 0 -10 3 -32 7 -48 6 -29 4 -32 -44 -59 -28 -15 -72 -31 -98 -36
-88 -15 -237 -48 -317 -69 -44 -12 -98 -23 -120 -25 -50 -4 -97 -16 -111 -27
-6 -4 -28 -10 -50 -12 -49 -6 -97 -14 -195 -33 -41 -9 -102 -17 -135 -20 -33
-3 -78 -9 -100 -14 -52 -12 -133 -29 -165 -34 -14 -3 -50 -10 -80 -16 -30 -7
-73 -14 -94 -16 -22 -2 -42 -8 -45 -12 -3 -5 -38 -9 -77 -9 -38 -1 -95 -9
-125 -18 -30 -9 -87 -18 -126 -20 -72 -4 -73 -4 -73 20 0 14 -11 43 -25 64
-14 21 -27 48 -30 59 -2 12 -7 27 -10 32 -3 5 -12 45 -20 87 -15 92 -15 92
-54 208 -16 50 -34 108 -39 130 -11 46 -48 156 -67 200 -7 17 -16 52 -20 79
-3 27 -12 64 -20 83 -8 18 -14 36 -14 38 2 19 -14 86 -22 91 -5 3 -9 18 -9 33
0 16 -7 47 -15 70 -8 23 -15 45 -15 49 0 4 -5 23 -10 42 -5 19 -11 47 -14 62
-6 33 -22 86 -47 153 -10 28 -28 80 -39 117 -11 37 -32 91 -45 120 -14 29 -25
64 -25 78 -1 14 -13 51 -29 83 -24 52 -45 174 -26 155 4 -4 19 -2 34 4 14 5
98 12 186 13 88 2 192 7 230 10 39 3 138 8 220 10 83 3 157 7 165 10 8 2 94 7
190 10 96 3 189 8 205 10 30 5 219 12 413 16 56 1 117 5 135 9 34 7 193 4 265
-6z m1542 -1054 c69 -5 186 -7 260 -4 150 6 216 0 223 -21 3 -7 -1 -37 -9 -67
-9 -29 -17 -67 -19 -83 -4 -42 -18 -92 -64 -226 -16 -48 -34 -120 -41 -160 -7
-41 -16 -79 -21 -85 -5 -7 -16 -34 -24 -60 -24 -84 -65 -229 -65 -231 0 -2 0
-9 0 -17 0 -19 -37 -31 -54 -17 -7 6 -24 7 -42 2 -16 -4 -45 -4 -64 0 -52 12
-365 23 -386 14 -11 -5 -43 -9 -72 -9 l-53 -2 6 41 c3 22 11 87 19 145 8 58
15 130 15 160 1 30 6 105 12 165 6 61 14 155 20 210 5 55 15 134 21 175 l13
75 65 5 c70 6 73 6 260 -10z m-1890 -39 c0 -5 9 -11 20 -14 29 -7 27 -59 -4
-92 -32 -34 -89 -36 -143 -5 -73 41 -89 89 -35 109 34 12 162 14 162 2z"/>
</g>
</svg>
