<?xml version="1.0" standalone="no"?>
<!DOCTYPE svg PUBLIC "-//W3C//DTD SVG 20010904//EN"
 "http://www.w3.org/TR/2001/REC-SVG-20010904/DTD/svg10.dtd">
<svg version="1.0" xmlns="http://www.w3.org/2000/svg"
 width="493.000000pt" height="409.000000pt" viewBox="0 0 493.000000 409.000000"
 preserveAspectRatio="xMidYMid meet">
<metadata>
Created by potrace 1.16, written by Peter Selinger 2001-2019
</metadata>
<g transform="translate(0.000000,409.000000) scale(0.100000,-0.100000)"
fill="#000000" stroke="none">
<path d="M3040 3909 c-30 -4 -120 -10 -200 -12 -80 -3 -170 -11 -200 -17 -57
-11 -137 -37 -156 -52 -6 -4 -42 -19 -80 -34 -38 -14 -71 -29 -74 -33 -3 -4
-21 -18 -40 -31 -35 -23 -44 -31 -113 -95 -21 -19 -43 -35 -48 -35 -5 0 -9 -6
-9 -13 0 -7 -11 -24 -25 -39 -14 -15 -25 -29 -25 -32 0 -3 -10 -20 -23 -39
-20 -30 -26 -33 -48 -24 -13 5 -33 9 -44 8 -11 -1 -63 12 -115 30 -52 17 -113
33 -135 36 -22 2 -45 9 -53 15 -7 6 -57 10 -120 10 -137 -1 -191 -7 -222 -24
-42 -22 -143 -94 -173 -122 -15 -14 -32 -26 -38 -26 -5 0 -9 -7 -9 -15 0 -9
-21 -37 -48 -63 -26 -26 -56 -60 -67 -76 -11 -15 -26 -34 -33 -41 -6 -8 -12
-17 -12 -21 0 -4 -9 -17 -19 -28 -11 -12 -34 -48 -52 -81 -18 -33 -48 -81 -66
-107 -18 -26 -33 -50 -33 -52 0 -8 -61 -97 -99 -146 -39 -49 -161 -170 -172
-170 -4 0 -14 -6 -21 -13 -43 -42 -169 -118 -213 -127 -70 -16 -92 -29 -98
-56 -2 -13 -1 -24 4 -24 4 0 11 -10 14 -21 6 -19 12 -21 54 -16 58 7 201 72
251 115 8 6 42 33 74 60 84 67 245 250 246 280 0 6 4 12 8 12 5 0 13 10 19 23
6 12 26 43 45 68 20 25 41 62 47 82 7 21 16 37 19 37 4 0 15 17 25 38 10 20
31 52 47 71 17 18 30 38 30 43 0 4 11 14 25 20 14 6 25 17 25 25 0 48 158 126
280 138 118 11 713 -2 1010 -21 93 -6 120 -16 120 -43 0 -17 -29 -51 -43 -51
-3 0 -18 -5 -34 -12 -34 -14 -36 -14 -153 -29 -52 -6 -129 -11 -170 -11 -159
3 -178 3 -186 0 -5 -1 -19 3 -31 10 -13 7 -23 9 -23 4 0 -5 -19 -13 -42 -18
-41 -8 -43 -11 -46 -46 -2 -26 1 -38 10 -38 7 0 19 -9 26 -21 12 -18 19 -20
75 -13 34 4 82 7 107 7 75 -1 204 -24 221 -39 8 -8 19 -14 23 -14 19 0 37 -31
30 -52 -13 -44 -44 -60 -102 -56 -29 3 -55 1 -58 -3 -5 -9 -113 -34 -133 -30
-7 1 -43 -7 -80 -18 -52 -16 -70 -26 -79 -46 -15 -33 -16 -30 11 -57 21 -22
58 -30 73 -15 4 4 28 4 54 1 31 -4 64 0 94 10 26 9 51 14 56 11 5 -3 17 -2 27
3 64 33 70 34 99 21 20 -10 28 -21 27 -37 0 -12 -1 -30 -2 -40 -1 -22 -35 -63
-73 -87 -21 -13 -53 -17 -140 -19 -62 -1 -124 -5 -138 -10 -14 -4 -38 -10 -53
-13 -37 -7 -87 -70 -66 -84 8 -5 17 -9 22 -9 4 0 7 -6 7 -13 0 -18 219 -12
264 8 10 4 30 4 45 -1 19 -7 27 -18 32 -46 10 -63 -17 -81 -157 -102 -54 -8
-106 -15 -114 -15 -8 0 -34 -1 -58 -3 -24 -2 -46 0 -49 5 -3 4 -10 2 -16 -7
-20 -25 -154 -55 -257 -56 -100 -2 -134 -2 -147 2 -18 5 -91 -15 -128 -35 -57
-32 -61 -34 -143 -117 -41 -41 -78 -75 -83 -75 -7 0 -24 -13 -82 -60 -7 -5
-30 -23 -52 -40 -22 -16 -46 -35 -54 -43 -19 -18 -87 -61 -103 -64 -7 -2 -21
-10 -31 -19 -10 -9 -44 -25 -75 -34 -31 -10 -60 -23 -64 -29 -4 -6 -37 -11
-73 -12 -36 -1 -71 -6 -77 -12 -6 -6 -12 -27 -15 -46 -5 -50 20 -75 67 -64 53
13 54 13 65 20 6 3 30 11 55 18 81 22 206 88 286 152 44 34 112 84 152 110 40
26 111 86 159 134 114 114 105 111 321 118 l142 4 -31 -29 -31 -29 7 -93 c8
-118 34 -414 39 -449 6 -39 -17 -36 -45 5 -13 17 -43 51 -66 75 -24 24 -52 62
-62 85 -44 99 -70 177 -82 245 -13 77 -29 96 -71 90 -40 -6 -43 -29 -19 -150
12 -62 28 -122 34 -133 7 -11 24 -48 37 -83 16 -40 43 -82 75 -116 27 -30 73
-79 101 -109 55 -59 81 -77 112 -77 15 0 24 -14 38 -58 10 -31 19 -61 20 -67
1 -13 30 -108 66 -220 38 -113 115 -263 162 -312 20 -21 36 -41 36 -45 0 -5 8
-16 18 -26 9 -11 24 -28 33 -38 8 -10 28 -28 43 -39 35 -26 63 -49 102 -85 50
-47 259 -150 288 -142 4 2 14 -2 20 -7 7 -6 21 -12 32 -14 10 -2 29 -9 42 -15
12 -7 22 -10 22 -8 0 3 21 -4 48 -15 94 -41 163 -58 269 -65 137 -9 155 -9
228 6 33 6 103 14 155 17 90 4 203 26 280 54 19 6 42 14 50 17 8 3 20 7 25 7
17 3 47 15 110 45 33 15 70 31 82 35 13 3 29 12 35 18 7 7 33 25 58 39 57 35
187 159 225 217 17 25 45 61 62 80 18 20 33 43 33 52 0 9 8 27 18 40 31 41 69
132 88 214 1 6 11 44 23 86 21 77 33 233 33 413 -1 87 0 90 39 148 21 33 39
63 39 68 0 5 6 15 13 22 16 17 57 76 57 81 0 3 25 49 56 103 61 107 92 182
131 313 21 73 23 96 18 170 -10 135 -55 215 -144 261 -58 29 -114 24 -200 -19
-36 -17 -66 -29 -68 -27 -2 2 -10 34 -18 72 -37 178 -114 413 -178 544 -29 58
-54 107 -57 110 -13 12 -46 69 -67 113 -27 58 -126 177 -168 202 -28 17 -85
48 -130 72 -24 13 -189 68 -265 88 -48 13 -118 20 -280 28 -25 2 -70 -1 -100
-4z m252 -130 c9 -5 23 -6 31 -3 18 6 97 -13 97 -25 0 -4 15 -8 33 -8 41 0 80
-10 126 -30 20 -9 41 -17 47 -18 6 -2 33 -15 60 -29 27 -14 52 -26 57 -26 24
0 108 -93 157 -174 14 -23 39 -62 56 -86 17 -25 39 -67 49 -95 10 -27 24 -57
31 -66 8 -8 14 -22 14 -30 0 -8 6 -24 14 -35 8 -11 22 -44 31 -74 9 -30 21
-64 26 -75 15 -35 67 -247 78 -320 11 -75 22 -176 26 -240 1 -22 6 -96 10
-165 4 -69 9 -134 12 -145 14 -62 22 -758 9 -860 -4 -33 -14 -80 -23 -105 -8
-25 -17 -58 -20 -75 -3 -16 -9 -32 -14 -33 -5 -2 -7 -7 -4 -12 7 -11 -31 -116
-55 -149 -11 -16 -20 -32 -20 -36 0 -3 -28 -43 -62 -88 -73 -97 -191 -217
-213 -217 -8 0 -15 -4 -15 -9 0 -17 -99 -69 -220 -114 -137 -51 -242 -77 -335
-83 -33 -2 -94 -9 -135 -16 -41 -6 -136 -11 -210 -10 -144 1 -184 9 -370 72
-214 72 -286 107 -364 171 -23 20 -56 46 -104 84 -28 22 -57 51 -64 65 -15 29
-18 33 -61 81 -18 20 -37 47 -43 60 -6 13 -25 53 -42 89 -40 85 -64 153 -96
275 -14 55 -35 129 -46 165 -22 74 -39 170 -45 250 -2 30 -7 86 -11 123 -11
114 -12 208 -4 282 5 52 3 75 -7 91 -13 20 -11 21 39 32 29 6 79 11 111 11 32
0 65 5 73 12 8 6 24 13 37 15 12 1 53 10 91 18 38 8 73 13 77 10 4 -2 10 0 14
6 3 5 14 10 23 10 30 0 89 62 105 112 15 41 15 53 2 103 l-15 56 35 30 c19 17
44 47 56 66 22 36 26 79 19 233 -1 19 5 49 14 65 9 17 16 38 16 48 0 24 -49
107 -63 108 -25 1 36 19 73 21 22 2 40 6 40 11 0 4 11 7 24 7 14 0 28 5 31 10
3 6 13 10 20 10 16 0 45 21 79 57 38 39 43 48 39 78 -7 59 -24 91 -67 123
l-43 32 -138 0 c-76 0 -155 5 -176 11 -49 15 -46 22 48 120 18 19 44 43 58 54
15 11 34 27 43 35 10 9 42 26 72 39 30 13 69 30 87 37 17 8 38 14 46 14 9 0
18 4 21 9 12 19 156 42 311 50 173 9 390 4 417 -10z m-1742 -335 c0 -2 -21 -3
-47 -3 -41 1 -44 2 -18 8 28 7 65 4 65 -5z m-117 -1 c-13 -2 -33 -2 -45 0 -13
2 -3 4 22 4 25 0 35 -2 23 -4z m3121 -819 c37 -27 68 -98 74 -171 7 -91 -42
-238 -128 -383 -5 -8 -21 -41 -36 -72 -14 -32 -30 -58 -35 -58 -5 0 -9 -5 -9
-12 0 -14 -48 -78 -59 -78 -5 0 -10 57 -10 128 -1 70 -4 143 -6 162 -2 19 -6
78 -10 130 -3 52 -9 137 -13 187 -4 51 -5 100 -2 108 3 9 35 31 70 50 72 39
118 42 164 9z"/>
<path d="M3330 3213 c-8 -3 -44 -20 -80 -36 -72 -34 -98 -36 -277 -22 l-103 8
-104 -52 c-57 -28 -111 -51 -120 -51 -22 0 -20 -33 2 -53 23 -21 39 -20 77 3
66 41 123 69 129 63 3 -4 6 -2 6 4 0 20 28 22 112 7 182 -32 176 -33 304 27
33 16 67 29 76 29 8 0 32 -13 54 -30 46 -35 73 -37 132 -10 64 29 81 94 18 70
-44 -16 -69 -12 -119 20 -46 29 -75 35 -107 23z"/>
<path d="M3681 2950 c-18 -23 -41 -40 -52 -40 -11 0 -27 -7 -35 -15 -22 -22
-53 -19 -130 14 -38 16 -99 32 -135 36 -70 7 -93 -1 -198 -67 -41 -26 -161
-36 -223 -19 -43 12 -73 16 -199 28 -63 5 -68 4 -120 -30 -92 -61 -94 -63 -81
-92 15 -32 44 -32 74 -1 13 13 37 31 55 41 28 16 38 17 83 7 28 -7 66 -12 84
-12 18 0 54 -7 79 -16 74 -25 196 -16 272 21 33 15 71 36 84 47 18 13 34 16
65 12 47 -7 136 -33 151 -45 24 -18 114 -22 155 -5 72 29 151 122 137 160 -10
26 -32 18 -66 -24z"/>
<path d="M3555 2521 c-91 -24 -152 -64 -196 -129 -45 -66 -58 -111 -55 -184 4
-80 6 -87 34 -118 12 -13 22 -30 22 -36 0 -22 92 -56 164 -61 84 -5 135 11
218 71 46 34 62 53 87 108 26 57 30 75 24 115 -3 26 -9 50 -13 53 -3 3 -11 24
-18 47 -23 78 -73 117 -163 127 -19 2 -43 6 -54 9 -11 3 -33 2 -50 -2z m25
-111 c0 -5 -9 -9 -20 -7 -31 5 -36 17 -7 17 15 0 27 -4 27 -10z m176 -116 c6
-44 3 -56 -21 -92 -15 -23 -41 -52 -59 -65 -27 -21 -47 -29 -116 -44 -38 -8
-101 9 -130 37 -27 25 -30 34 -30 90 0 52 15 106 37 130 2 3 13 -6 23 -20 17
-23 26 -25 89 -24 81 1 146 25 155 58 l5 21 21 -21 c13 -12 23 -39 26 -70z"/>
<path d="M2565 2428 c-38 -5 -80 -14 -92 -20 -12 -6 -33 -10 -47 -10 -79 0
-142 -186 -104 -310 18 -60 92 -120 168 -137 60 -14 142 -10 164 8 6 4 22 11
36 15 31 8 57 30 95 80 28 37 30 45 30 125 -1 140 -18 187 -80 228 -42 28 -83
33 -170 21z m-26 -195 c20 -3 42 -10 49 -16 8 -6 12 -6 12 2 0 6 7 11 15 11 9
0 33 9 54 20 l39 19 6 -22 c39 -146 -96 -252 -233 -183 -30 16 -57 38 -66 56
-17 33 -20 112 -5 140 9 18 11 18 51 -2 23 -11 58 -22 78 -25z"/>
<path d="M2800 1777 c-30 -15 -39 -67 -16 -87 9 -7 16 -19 16 -27 0 -8 4 -12
9 -9 5 3 14 -1 21 -9 7 -8 19 -15 27 -15 7 0 24 -7 36 -14 50 -33 228 -41 272
-12 13 9 35 16 47 16 37 0 50 15 50 56 0 49 -4 75 -10 70 -2 -3 -15 -1 -29 5
-20 8 -29 4 -60 -26 -20 -19 -46 -36 -57 -36 -59 -3 -142 3 -150 11 -6 6 -18
10 -28 10 -9 0 -28 10 -40 23 -58 55 -62 57 -88 44z"/>
<path d="M3305 1077 c-55 -4 -116 -10 -135 -13 -33 -5 -293 -16 -335 -15 -63
3 -275 21 -302 27 -28 5 -33 3 -48 -25 -18 -35 -9 -63 26 -82 24 -13 610 -17
674 -4 22 4 129 8 238 9 178 1 199 3 208 19 6 9 7 23 3 29 -5 7 -8 23 -8 37
-1 24 -1 24 -111 25 -60 1 -155 -3 -210 -7z"/>
</g>
</svg>
