<?xml version="1.0" standalone="no"?>
<!DOCTYPE svg PUBLIC "-//W3C//DTD SVG 20010904//EN"
 "http://www.w3.org/TR/2001/REC-SVG-20010904/DTD/svg10.dtd">
<svg version="1.0" xmlns="http://www.w3.org/2000/svg"
 width="517.000000pt" height="477.000000pt" viewBox="0 0 517.000000 477.000000"
 preserveAspectRatio="xMidYMid meet">
<metadata>
Created by potrace 1.16, written by Peter Selinger 2001-2019
</metadata>
<g transform="translate(0.000000,477.000000) scale(0.100000,-0.100000)"
fill="#000000" stroke="none">
<path d="M827 4483 c-18 -18 -5 -54 26 -73 28 -17 116 -48 154 -54 7 -1 16 -5
19 -9 4 -4 18 -7 31 -7 13 0 31 -4 41 -9 9 -5 38 -15 64 -21 26 -7 49 -18 52
-26 3 -8 13 -14 22 -14 10 0 32 -11 50 -25 18 -14 39 -25 46 -25 21 0 80 -78
123 -165 50 -99 60 -130 85 -275 10 -63 23 -128 28 -145 5 -16 10 -73 11 -124
1 -52 7 -101 12 -108 6 -6 8 -17 5 -22 -4 -6 5 -59 19 -120 14 -60 25 -121 25
-135 0 -57 50 -165 78 -166 6 0 12 -3 12 -7 0 -12 46 -63 56 -63 5 -1 19 -9
32 -19 17 -15 22 -30 22 -70 0 -40 -4 -51 -16 -51 -8 0 -13 -4 -10 -9 5 -7 -8
-15 -87 -52 -16 -7 -36 -31 -50 -58 -12 -25 -26 -49 -31 -53 -5 -3 -6 -40 -2
-84 4 -59 12 -87 31 -116 14 -21 25 -41 25 -45 0 -4 11 -17 23 -28 13 -11 29
-29 35 -40 9 -18 5 -22 -36 -40 -26 -10 -56 -27 -66 -37 -11 -10 -25 -18 -30
-18 -14 0 -64 -48 -91 -86 -11 -15 -28 -36 -38 -46 -41 -43 -60 -165 -34 -225
16 -40 78 -120 97 -127 8 -3 28 -15 43 -28 26 -21 37 -22 142 -21 124 3 129 0
97 -49 -21 -31 -69 -78 -82 -78 -5 0 -17 -11 -28 -25 -11 -14 -24 -25 -29 -25
-24 0 -103 -118 -95 -142 1 -5 -2 -8 -7 -8 -5 0 -9 -12 -9 -27 0 -16 -5 -41
-11 -56 -6 -16 -11 -42 -11 -59 0 -16 -6 -44 -14 -61 -48 -110 -69 -152 -101
-197 -19 -27 -35 -54 -35 -60 0 -6 -11 -16 -25 -22 -14 -6 -25 -15 -25 -20 0
-11 -10 -24 -75 -95 -42 -46 -71 -65 -183 -119 -73 -36 -139 -64 -145 -63 -11
2 -24 -2 -72 -21 -11 -4 -43 -3 -70 2 -28 5 -59 10 -70 11 -11 1 -23 7 -27 12
-5 6 -8 5 -8 -2 0 -7 -7 -13 -15 -13 -25 0 -46 -54 -34 -88 9 -28 16 -31 63
-37 29 -4 84 -4 122 -1 70 5 216 48 244 71 8 7 40 20 70 30 30 9 60 23 65 30
6 6 24 19 42 28 17 9 40 28 51 42 11 14 25 25 31 25 6 0 11 4 11 10 0 5 25 35
55 67 30 32 55 64 55 70 0 7 9 18 21 25 22 13 120 202 157 301 12 30 23 77 26
104 3 26 10 63 15 81 11 37 48 72 68 65 7 -3 13 1 13 8 1 18 35 59 49 59 6 0
11 6 11 14 0 8 22 38 50 66 31 32 54 66 61 93 7 23 16 46 20 51 16 19 -39 107
-86 136 -38 23 -55 25 -55 7 0 -10 -15 -14 -55 -13 -36 1 -56 -3 -60 -12 -8
-21 -75 13 -117 59 -37 42 -53 87 -37 103 5 6 9 20 9 32 0 13 6 29 13 36 7 7
22 26 34 41 30 38 93 88 104 81 5 -3 9 0 9 5 0 6 3 10 8 9 4 -1 21 4 37 11 17
7 40 14 52 14 13 1 23 5 23 10 0 4 5 7 11 7 7 0 22 12 34 26 27 32 21 70 -17
106 -13 13 -43 48 -66 78 -23 30 -47 62 -54 70 -15 17 -19 45 -12 83 4 20 26
43 78 82 40 30 87 73 105 96 29 36 32 45 26 77 -4 21 -9 51 -10 67 -6 55 -22
80 -89 135 -36 30 -66 61 -66 68 0 6 -4 12 -10 12 -5 0 -10 9 -10 19 0 11 -6
26 -12 33 -13 13 -16 24 -22 94 -2 23 -6 46 -10 52 -4 6 -9 30 -11 54 -7 66
-15 120 -20 128 -2 3 -7 33 -10 66 -3 32 -11 97 -17 144 -6 47 -12 94 -13 106
-1 11 -4 24 -7 30 -2 5 -6 32 -7 59 -1 28 -8 66 -16 85 -7 19 -26 69 -42 110
-15 41 -33 81 -40 88 -7 7 -13 19 -13 26 0 29 -120 153 -167 172 -17 8 -34 18
-37 23 -3 5 -32 19 -63 31 -32 12 -73 29 -92 37 -40 18 -122 38 -236 59 -91
16 -99 17 -108 7z"/>
<path d="M1390 3032 c-19 -9 -37 -26 -38 -37 -5 -28 -49 -76 -93 -103 -22 -13
-39 -27 -39 -33 0 -5 -6 -9 -14 -9 -8 0 -16 -5 -18 -12 -2 -6 -13 -12 -24 -13
-11 0 -36 -10 -55 -21 -45 -27 -92 -34 -271 -40 -99 -3 -148 -1 -148 6 0 5
-13 -2 -30 -17 -32 -28 -38 -58 -18 -86 14 -18 73 -22 233 -14 39 1 75 -1 82
-6 6 -4 14 -3 18 3 3 5 15 10 25 10 19 0 133 33 175 50 11 5 29 11 41 14 11 4
29 14 40 24 10 9 35 30 54 46 19 15 63 55 98 88 54 52 62 65 64 99 1 28 -4 43
-18 54 -23 17 -21 17 -64 -3z"/>
<path d="M3180 2168 c-53 -6 -229 -19 -280 -20 -14 0 -41 3 -60 7 -52 11 -139
7 -360 -14 -127 -13 -221 -18 -383 -21 -95 -2 -111 -5 -128 -23 -10 -12 -19
-31 -19 -44 0 -36 38 -54 116 -53 38 0 83 0 99 -1 17 -1 46 1 65 4 86 12 143
17 250 22 63 2 126 7 140 10 42 9 143 16 195 14 100 -5 351 1 402 10 29 4 55
6 58 3 3 -3 15 -6 27 -8 52 -6 83 -14 86 -23 2 -6 10 -7 20 -2 9 5 29 14 45
20 21 8 27 17 27 39 0 40 -29 62 -86 68 -27 2 -74 8 -104 12 -30 4 -80 4 -110
0z"/>
<path d="M4594 2110 c-21 -16 -47 -30 -57 -30 -10 0 -28 -5 -39 -11 -22 -12
-91 -13 -163 -4 -150 19 -187 13 -269 -48 -45 -33 -68 -82 -65 -137 0 -14 -2
-53 -6 -87 -7 -58 -6 -66 19 -103 15 -22 31 -38 35 -35 5 2 20 -4 34 -15 14
-11 32 -20 41 -20 9 0 16 -4 16 -10 0 -14 -23 -64 -34 -71 -5 -4 -7 -21 -4
-38 4 -31 4 -31 -38 -31 -24 0 -45 4 -48 9 -5 7 -87 51 -106 56 -3 1 -13 5
-24 10 -14 6 -23 2 -36 -15 -12 -16 -19 -19 -25 -11 -5 9 -11 8 -20 -6 -13
-19 -15 -194 -2 -223 24 -57 38 -120 40 -192 4 -93 25 -154 57 -166 20 -8 27
-39 32 -147 1 -35 -19 -92 -47 -130 -12 -16 -28 -47 -35 -67 -24 -66 15 -138
75 -138 9 0 15 -10 15 -25 0 -28 -20 -75 -32 -75 -4 0 -8 -5 -8 -10 0 -6 -8
-29 -18 -53 -38 -87 -42 -108 -27 -136 23 -44 80 -92 116 -97 19 -3 55 -11 81
-19 25 -7 49 -11 52 -8 3 3 65 6 138 8 128 2 171 8 268 42 74 25 110 46 134
78 34 44 37 62 38 212 0 177 -18 289 -74 448 -14 39 -28 97 -33 130 -4 32 -9
68 -12 80 -9 39 -5 193 7 214 6 12 8 26 5 31 -3 6 -2 10 3 10 13 0 26 98 26
198 1 63 -3 85 -14 92 -16 10 -57 3 -77 -13 -7 -5 -13 -6 -13 -1 0 4 -5 3 -12
-4 -7 -7 -24 -12 -39 -12 -25 0 -84 -19 -120 -39 -9 -5 -42 -12 -75 -16 -32
-3 -70 -8 -84 -11 -17 -3 -21 -2 -11 5 7 5 11 13 8 18 -3 5 1 23 9 39 9 16 17
45 18 64 3 30 7 35 32 38 16 2 34 8 40 13 6 5 18 7 26 4 18 -7 37 14 47 51 7
29 73 74 112 77 10 1 19 5 19 9 0 4 6 8 14 8 23 0 125 99 147 142 11 22 26 73
33 113 11 63 11 75 -1 80 -23 8 -27 7 -69 -25z m6 -98 c0 -20 -86 -122 -103
-122 -6 0 -18 -7 -28 -16 -9 -8 -28 -16 -42 -18 -14 -1 -36 -9 -49 -18 -12 -8
-33 -18 -45 -22 -13 -4 -23 -11 -23 -15 0 -17 -67 -80 -91 -86 -24 -6 -27 -4
-33 34 -8 51 -36 70 -66 44 -24 -21 -26 -41 -5 -49 14 -6 22 -44 9 -44 -4 0
-22 9 -41 21 -31 20 -33 24 -28 61 4 23 14 52 23 66 15 23 15 25 -1 37 -9 7
-17 17 -17 22 0 11 74 82 88 84 25 5 119 5 126 1 6 -3 52 -7 104 -9 90 -4 165
11 197 39 15 13 25 9 25 -10z m-663 -582 c34 -21 67 -32 111 -36 34 -4 62 -12
62 -18 0 -7 3 -7 8 1 4 6 39 14 79 18 39 3 97 12 128 20 31 8 67 15 80 15 13
0 27 5 30 10 4 6 11 8 16 4 5 -3 17 0 25 7 13 10 17 10 25 -2 5 -8 6 -21 3
-29 -17 -47 -24 -125 -26 -295 l-3 -190 34 -100 c19 -55 37 -102 41 -105 7 -5
30 -81 35 -115 1 -11 6 -28 10 -38 14 -33 11 -270 -4 -304 -7 -18 -16 -32 -20
-31 -3 0 -8 -1 -11 -2 -6 -2 -14 -4 -106 -29 -39 -11 -88 -22 -110 -25 -21 -4
-57 -11 -79 -17 -22 -6 -78 -12 -125 -13 -47 0 -91 -5 -98 -9 -16 -11 -72 1
-72 15 0 6 -3 8 -7 5 -3 -4 -12 -2 -19 4 -11 9 -11 14 1 25 10 11 12 21 5 39
-6 15 -6 27 1 30 19 13 59 105 63 149 3 35 12 54 35 77 17 17 31 38 31 48 0 9
5 22 11 28 5 5 13 35 16 65 l5 55 -28 -1 c-23 -1 -30 -6 -32 -26 -2 -14 -8
-29 -13 -35 -5 -5 -9 -16 -9 -25 0 -23 -37 -63 -50 -55 -6 4 -17 2 -24 -4 -18
-15 -46 -3 -46 18 0 9 13 35 29 57 17 22 37 61 46 87 16 48 22 149 11 185 -5
14 -1 24 11 31 10 6 14 11 9 11 -5 0 -3 6 4 14 33 41 59 211 37 252 l-14 26
-22 -27 c-13 -17 -21 -40 -20 -59 2 -40 -17 -110 -35 -125 -33 -28 -58 14 -56
95 1 52 -13 126 -38 197 -18 51 -19 64 -9 107 6 28 15 50 19 50 4 0 28 -13 55
-30z"/>
<path d="M3067 1983 c-3 -3 -88 -5 -189 -5 -105 -1 -188 -5 -195 -10 -8 -6
-36 -8 -70 -3 -32 4 -78 6 -103 5 -25 -2 -52 -2 -60 -1 -8 0 -107 2 -220 4
-199 2 -206 2 -226 -19 -27 -27 -22 -75 9 -89 12 -6 38 -8 57 -5 19 3 118 4
220 3 319 -6 370 -5 565 2 105 5 202 8 218 9 15 1 27 5 27 9 0 5 10 5 23 1 12
-4 31 -8 42 -10 27 -4 63 -12 84 -19 29 -9 70 12 77 39 4 16 -1 36 -12 55 -15
26 -25 31 -59 32 -22 1 -72 3 -111 5 -39 2 -74 1 -77 -3z"/>
<path d="M3550 1891 c-8 -5 -39 -12 -67 -16 -29 -4 -56 -11 -59 -16 -3 -5 -9
-7 -14 -4 -5 3 -30 0 -57 -6 -86 -20 -274 -33 -478 -32 -38 1 -86 1 -105 0
-19 0 -55 1 -80 2 -25 1 -107 -1 -183 -4 -89 -5 -141 -4 -150 3 -11 10 -70 17
-92 12 -26 -7 -121 -4 -126 3 -9 13 -58 -35 -60 -58 -3 -38 1 -44 39 -54 52
-14 122 -20 127 -10 3 4 31 5 63 2 31 -4 118 -5 192 -5 74 1 144 1 155 1 127
-5 487 -2 511 4 17 4 57 9 90 11 32 3 102 12 154 21 52 8 114 17 138 18 50 3
71 21 79 69 5 33 2 38 -25 52 -36 18 -32 18 -52 7z"/>
</g>
</svg>
