<?xml version="1.0" standalone="no"?>
<!DOCTYPE svg PUBLIC "-//W3C//DTD SVG 20010904//EN"
 "http://www.w3.org/TR/2001/REC-SVG-20010904/DTD/svg10.dtd">
<svg version="1.0" xmlns="http://www.w3.org/2000/svg"
 width="541.000000pt" height="469.000000pt" viewBox="0 0 541.000000 469.000000"
 preserveAspectRatio="xMidYMid meet">
<metadata>
Created by potrace 1.16, written by Peter Selinger 2001-2019
</metadata>
<g transform="translate(0.000000,469.000000) scale(0.100000,-0.100000)"
fill="#000000" stroke="none">
<path d="M4355 4419 c-68 -12 -97 -20 -119 -31 -53 -29 -108 -79 -152 -140
-26 -38 -52 -68 -56 -68 -4 0 -8 -5 -8 -10 0 -6 -7 -27 -16 -48 -10 -20 -18
-43 -20 -51 -1 -8 -9 -28 -17 -45 -23 -47 -52 -241 -51 -331 2 -80 24 -186 49
-235 7 -14 25 -32 39 -39 l26 -14 -21 -41 c-12 -23 -25 -48 -30 -56 -28 -49
-42 -89 -41 -122 1 -29 -3 -38 -16 -39 -9 -1 -35 -3 -57 -4 -22 -1 -63 -5 -92
-9 -44 -7 -53 -5 -62 11 -6 10 -11 12 -11 6 0 -14 -80 -58 -80 -45 0 13 -47 2
-60 -13 -15 -18 -16 -66 -2 -90 5 -11 13 -51 17 -90 4 -38 9 -77 11 -85 1 -8
10 -47 18 -87 9 -40 15 -99 15 -132 -1 -33 1 -63 4 -68 6 -9 9 -27 27 -178 5
-44 14 -100 20 -125 5 -25 14 -90 20 -145 36 -356 37 -393 26 -680 -6 -140
-28 -265 -46 -265 -4 0 -11 -15 -14 -34 -4 -19 -18 -50 -31 -70 -14 -20 -25
-41 -25 -46 0 -5 -6 -15 -12 -22 -11 -12 -41 -66 -96 -173 -9 -16 -18 -32 -22
-35 -15 -12 -51 -70 -43 -70 4 0 1 -6 -7 -13 -9 -7 -23 -30 -33 -53 -10 -22
-30 -49 -43 -59 -29 -21 -58 -71 -49 -84 3 -5 0 -11 -7 -13 -8 -3 -4 -12 10
-26 12 -12 21 -25 20 -28 -2 -4 15 -7 37 -8 22 -1 55 -10 74 -20 18 -10 44
-16 57 -13 13 2 24 1 24 -4 0 -4 17 -11 38 -15 47 -8 112 -34 112 -44 0 -17
66 -8 87 12 31 29 33 98 3 98 -12 0 -20 7 -20 16 0 13 -3 14 -15 4 -8 -6 -20
-8 -27 -4 -7 5 -17 9 -23 11 -82 19 -212 56 -218 62 -4 4 7 30 25 57 18 27 42
68 52 92 10 23 22 42 26 42 4 0 31 45 61 100 30 55 57 100 62 100 4 0 7 8 7
18 0 10 17 47 39 83 21 35 41 77 45 93 4 16 18 42 31 58 23 27 24 35 25 186 1
86 4 175 6 197 3 22 6 55 8 73 1 18 7 37 12 42 5 5 54 12 108 15 54 3 106 10
116 15 9 5 36 8 61 8 47 -1 99 5 164 21 22 5 51 12 65 14 14 3 38 10 54 16 16
7 36 11 45 10 9 -1 23 0 31 3 8 3 40 13 70 23 30 10 81 35 114 56 32 22 62 39
66 39 4 0 38 20 74 45 37 25 71 45 76 45 12 0 22 -108 15 -160 -11 -76 -13
-83 -24 -145 -7 -33 -14 -78 -17 -100 -3 -22 -12 -78 -21 -125 -8 -47 -17
-104 -19 -127 -2 -24 -13 -80 -23 -125 -19 -82 -19 -83 0 -104 17 -18 142 -74
167 -74 5 0 45 -11 87 -25 43 -14 85 -23 94 -19 9 4 20 6 26 5 5 -2 7 0 3 4
-3 4 -2 20 3 37 9 35 -3 68 -26 68 -8 0 -15 5 -15 11 0 5 -4 8 -9 5 -5 -3 -26
1 -46 10 -21 8 -48 13 -60 10 -12 -3 -25 -3 -29 1 -4 4 -14 8 -24 9 -9 2 -18
8 -20 13 -2 6 -13 11 -24 11 -19 0 -20 4 -14 53 4 28 10 81 12 117 2 36 7 72
11 80 3 8 7 23 8 33 2 9 3 18 5 20 3 4 10 43 15 92 2 28 15 106 29 175 21 109
23 136 15 215 -13 129 -19 157 -35 151 -7 -3 -16 -1 -19 4 -8 14 -49 12 -62
-1 -6 -6 -20 -16 -32 -23 -11 -6 -52 -31 -91 -56 -142 -90 -227 -136 -236
-127 -10 9 -6 431 4 435 5 1 13 -2 17 -7 3 -6 16 -11 29 -11 12 0 26 -3 30 -7
3 -4 14 -8 23 -9 32 -5 68 -16 98 -29 50 -23 105 -34 126 -26 11 4 20 10 19
14 -1 4 2 21 5 38 6 26 3 36 -16 53 -13 11 -35 22 -49 23 -28 2 -168 34 -245
56 l-50 14 -2 114 c-1 102 -5 166 -17 322 -2 26 -1 47 2 47 4 0 21 -20 39 -43
18 -23 49 -60 69 -82 34 -37 70 -101 66 -117 -4 -16 41 -29 81 -25 45 5 63 11
114 33 26 12 106 32 206 52 4 1 8 2 10 3 1 0 22 6 47 12 53 14 72 48 52 93
-12 25 -16 26 -59 19 -25 -4 -53 -10 -62 -15 -9 -4 -45 -15 -81 -24 -80 -21
-79 -20 -113 -34 -16 -7 -45 -15 -67 -18 -40 -7 -53 4 -137 105 -11 14 -39 48
-62 75 -35 43 -61 87 -93 161 -20 44 -65 62 -163 66 -26 2 -236 -11 -283 -17
l-53 -6 17 43 c10 24 30 63 46 87 15 24 28 49 28 57 0 10 13 9 63 -6 108 -32
208 -10 320 72 41 30 147 172 147 197 0 4 8 26 19 48 29 62 79 214 87 269 25
165 -13 316 -99 390 -99 85 -210 128 -292 114z m93 -118 c47 -14 141 -83 163
-120 35 -57 43 -149 24 -263 -9 -57 -23 -111 -31 -122 -8 -11 -14 -27 -14 -36
0 -19 -80 -182 -95 -192 -5 -4 -40 22 -77 59 -45 45 -71 64 -82 60 -28 -11
-18 -31 49 -97 36 -35 65 -70 65 -77 0 -12 -69 -63 -105 -77 -36 -14 -125 -18
-125 -6 0 6 -4 8 -10 5 -26 -16 -160 86 -160 123 0 11 -5 22 -11 24 -20 7 -27
157 -12 252 7 50 18 95 24 102 5 6 9 16 8 20 -1 5 0 16 3 24 3 8 13 40 22 70
9 30 29 74 45 98 45 68 130 152 155 152 11 0 27 4 35 9 16 10 84 7 129 -8z
m-62 -1244 c2 -2 12 -137 20 -282 4 -55 10 -107 13 -115 5 -12 7 -191 2 -209
-1 -2 -12 4 -26 13 -14 9 -25 14 -25 12 0 -7 -132 44 -148 56 -7 6 -15 8 -18
5 -14 -14 -69 37 -118 109 -29 44 -72 100 -97 125 -184 191 -222 239 -205 257
4 4 33 8 64 9 108 4 267 15 322 22 48 6 211 4 216 -2z m-695 -109 c7 -13 17
-28 23 -34 6 -7 46 -49 90 -95 43 -46 95 -102 116 -124 42 -45 103 -132 125
-179 16 -34 76 -73 94 -62 6 4 11 3 11 -2 0 -5 18 -14 40 -21 22 -6 84 -30
138 -51 l97 -39 0 -231 c0 -194 -2 -232 -15 -240 -8 -6 -21 -8 -27 -5 -7 2
-13 0 -13 -5 0 -6 -3 -9 -7 -8 -5 1 -40 -8 -79 -20 -40 -12 -98 -22 -132 -22
-34 0 -81 -7 -104 -14 -25 -9 -70 -14 -108 -12 -36 2 -73 -1 -82 -6 -28 -13
-48 17 -49 75 -3 120 -21 287 -42 402 -22 114 -23 116 -41 265 -30 238 -37
293 -50 373 -13 77 -7 97 15 55z"/>
<path d="M4459 3904 c-17 -21 0 -49 32 -49 27 0 37 28 19 50 -16 19 -34 19
-51 -1z"/>
<path d="M1647 4324 c-4 -4 -35 -9 -69 -10 -99 -5 -116 -12 -197 -71 -72 -53
-149 -155 -179 -238 -6 -16 -22 -60 -36 -97 -14 -36 -28 -83 -31 -105 -20
-143 -7 -391 22 -447 10 -17 16 -34 15 -38 -1 -5 2 -8 6 -8 5 0 23 -22 41 -50
18 -27 38 -50 44 -50 7 0 23 -9 35 -18 l24 -18 -29 -86 c-25 -75 -31 -85 -46
-77 -22 13 -122 39 -146 39 -10 0 -32 7 -47 15 -16 8 -40 15 -55 15 -14 0 -29
4 -35 9 -5 5 -27 11 -49 13 -33 2 -44 -2 -63 -24 -14 -17 -25 -44 -27 -70 -4
-38 -15 -105 -45 -273 -16 -85 -37 -170 -48 -190 -10 -19 -38 -127 -49 -187
-3 -16 -8 -28 -12 -28 -4 0 -7 -10 -9 -22 -1 -13 -11 -59 -22 -102 -11 -44
-20 -86 -20 -95 0 -32 -21 -89 -40 -111 -11 -13 -18 -30 -16 -39 3 -9 8 -32
11 -52 4 -22 23 -54 51 -85 24 -27 44 -54 44 -59 0 -6 9 -16 19 -22 11 -7 39
-40 62 -74 23 -34 49 -69 58 -79 58 -62 91 -106 96 -130 3 -16 13 -34 21 -41
8 -6 14 -16 14 -21 0 -6 11 -23 25 -40 14 -16 25 -38 25 -47 0 -27 -60 -167
-95 -221 -5 -8 -10 -21 -12 -29 -3 -24 -84 -184 -109 -218 -13 -17 -24 -40
-24 -51 0 -10 -18 -52 -39 -93 -22 -42 -49 -99 -60 -128 -12 -28 -30 -62 -41
-73 -11 -12 -20 -26 -20 -30 0 -5 -4 -7 -9 -4 -5 3 -12 -2 -17 -12 -9 -22 -11
-72 -2 -72 4 0 14 -8 24 -18 10 -9 29 -17 43 -17 14 0 32 -4 39 -8 6 -5 12 -5
12 0 0 4 4 3 8 -3 6 -9 46 -38 152 -109 19 -13 44 -32 55 -43 13 -12 36 -19
63 -20 37 -2 44 2 54 24 9 20 9 32 -1 57 -7 18 -13 40 -13 49 0 9 -10 24 -23
32 -22 15 -24 14 -30 -4 -8 -25 -20 -25 -46 -1 -11 10 -40 29 -64 41 -25 13
-45 27 -45 32 0 4 -4 7 -9 5 -5 -1 -22 10 -39 25 -17 14 -33 23 -37 20 -9 -8
-6 -1 22 58 12 25 33 70 47 100 14 30 30 62 35 70 5 8 18 35 28 60 11 25 43
92 70 150 28 58 66 139 86 180 19 41 53 115 76 163 22 48 41 98 41 110 0 12
-11 34 -25 49 -14 15 -25 32 -25 37 0 5 -8 16 -18 23 -9 7 -26 31 -37 52 -34
67 -49 93 -65 108 -18 18 -89 100 -125 143 -14 17 -32 44 -40 61 -8 17 -21 37
-30 44 -25 21 -17 29 17 19 18 -5 45 -9 59 -9 15 0 60 -11 100 -25 41 -14 83
-27 93 -30 11 -2 22 -8 25 -13 3 -4 26 -14 51 -22 25 -7 50 -16 55 -19 6 -3
16 -6 24 -8 8 -1 28 -8 45 -17 50 -24 97 -42 156 -61 30 -10 64 -24 75 -31 11
-8 29 -14 41 -14 15 0 26 -10 35 -32 9 -22 14 -27 18 -16 5 14 12 13 61 -2 30
-10 100 -41 155 -69 55 -28 105 -51 113 -51 16 0 10 -93 -7 -114 -6 -7 -13
-31 -16 -52 -2 -22 -18 -74 -34 -117 -17 -43 -31 -86 -31 -96 0 -10 -11 -35
-25 -55 -14 -20 -28 -48 -31 -61 -3 -14 -10 -25 -15 -25 -5 0 -9 -4 -9 -10 0
-10 -43 -111 -60 -142 -6 -10 -10 -26 -10 -35 0 -28 26 -94 33 -86 4 3 7 0 7
-7 0 -7 3 -11 6 -7 3 3 16 -3 28 -14 23 -22 80 -49 102 -49 8 0 33 -12 57 -27
49 -31 102 -37 135 -15 19 12 22 20 16 46 -9 44 -22 56 -60 56 -19 0 -52 11
-74 25 -22 14 -48 25 -59 25 -11 0 -32 11 -48 24 l-28 24 33 78 c18 44 32 85
32 92 0 6 4 12 8 12 5 0 17 19 28 43 10 23 21 44 24 47 6 6 9 19 21 78 5 23
13 51 19 62 6 10 12 32 14 47 2 15 15 62 29 103 31 95 48 169 44 194 -4 24 -6
25 -122 71 -90 36 -148 63 -195 90 -14 8 -36 15 -50 15 -14 0 -34 7 -44 15
-10 8 -23 12 -27 9 -14 -8 -10 16 12 86 11 36 35 124 54 195 41 160 65 225 83
225 7 0 25 -6 40 -13 15 -8 43 -14 62 -16 19 -1 37 -5 40 -9 5 -7 54 -14 100
-14 14 0 63 1 110 2 89 1 135 -2 185 -14 40 -10 75 22 75 68 0 44 -31 61 -95
52 -31 -5 -51 -3 -61 5 -10 8 -31 9 -83 1 -87 -13 -157 -10 -243 11 -87 20
-111 34 -103 55 4 9 13 46 22 82 8 36 23 94 34 130 10 36 20 80 21 98 1 17 6
32 11 32 5 0 35 -19 68 -41 54 -38 80 -69 118 -138 8 -14 19 -29 25 -33 7 -5
7 -8 1 -9 -5 0 1 -4 15 -8 15 -4 39 -2 60 7 19 8 49 16 65 17 17 2 48 6 70 9
22 4 49 8 60 9 11 1 22 5 25 9 3 3 41 14 85 23 44 9 87 18 95 20 8 2 41 15 74
29 32 14 67 26 78 26 25 0 90 28 100 43 15 23 8 66 -14 87 -16 15 -24 17 -29
8 -5 -7 -11 -9 -15 -5 -4 4 -14 1 -23 -6 -21 -18 -156 -73 -201 -82 -19 -4
-68 -18 -108 -31 -40 -14 -89 -26 -110 -29 -20 -2 -65 -7 -99 -10 -61 -7 -62
-7 -92 26 -17 18 -31 36 -31 40 0 4 -44 42 -99 85 -54 43 -97 83 -95 89 2 5
-4 20 -14 33 -13 17 -54 34 -152 63 -74 22 -155 43 -180 46 -24 2 -57 11 -72
19 -15 8 -34 14 -42 14 -29 0 4 108 42 136 9 6 44 10 83 8 38 -2 71 1 74 6 4
6 14 10 24 10 18 0 103 42 129 62 6 6 12 8 12 6 0 -12 83 75 122 129 50 67
123 243 133 317 3 27 8 53 11 58 26 42 6 321 -28 396 -25 54 -121 149 -159
157 -16 4 -29 11 -29 16 0 6 -6 9 -12 7 -7 -1 -24 4 -38 12 -14 7 -38 13 -54
12 -16 -2 -32 2 -36 8 -3 6 -9 7 -13 4z m25 -121 c15 -7 31 -14 35 -14 5 -1
13 -3 18 -4 6 -2 22 -6 38 -9 15 -4 27 -13 27 -21 0 -8 8 -15 17 -15 18 0 53
-28 53 -42 0 -5 11 -21 25 -36 16 -17 25 -39 26 -62 0 -19 2 -44 4 -55 16 -88
16 -171 0 -238 -10 -39 -20 -79 -23 -87 -8 -22 -8 -23 -17 -55 -12 -46 -55
-127 -65 -123 -5 2 -43 32 -85 67 -72 60 -105 72 -105 38 0 -8 38 -48 85 -88
l85 -73 -37 -38 c-20 -21 -43 -38 -50 -38 -7 0 -13 -4 -13 -10 0 -11 -48 -38
-100 -57 -48 -18 -160 -7 -180 17 -3 3 -27 17 -54 30 -26 14 -51 32 -54 40 -3
8 -17 30 -31 49 -34 45 -36 58 -36 271 0 162 2 190 19 225 11 22 20 42 20 45
1 3 10 28 20 55 21 55 55 104 101 147 17 15 39 36 50 46 44 41 66 49 133 49
37 0 79 -6 94 -14z m-545 -1268 c13 -1 26 -5 30 -8 3 -4 14 -7 24 -7 9 0 19
-5 21 -11 2 -6 42 -15 88 -20 46 -5 94 -16 106 -24 12 -8 46 -17 75 -21 30 -4
60 -11 67 -17 6 -5 12 -6 12 -2 0 4 6 2 13 -4 8 -6 17 -8 20 -4 4 3 13 1 21
-6 8 -6 22 -14 32 -16 11 -3 35 -8 54 -13 31 -7 35 -11 32 -38 -5 -61 -11 -91
-31 -157 -11 -37 -20 -71 -20 -75 0 -32 -16 -114 -28 -144 -14 -36 -17 -38
-52 -33 -20 2 -70 7 -113 10 -72 6 -77 8 -83 33 -9 37 -85 192 -95 192 -4 0
-18 19 -29 43 -34 66 -47 87 -63 100 -8 7 -34 39 -59 72 -24 33 -50 66 -57 74
-7 7 -22 31 -33 52 l-20 39 33 -6 c18 -4 43 -8 55 -9z m-202 -14 c3 -5 1 -12
-5 -16 -5 -3 -10 1 -10 9 0 18 6 21 15 7z m1 -51 c8 0 14 5 14 10 0 15 47 -21
54 -40 5 -17 38 -72 47 -80 12 -11 129 -169 129 -175 0 -3 21 -38 47 -78 42
-64 83 -159 83 -192 0 -6 12 -22 26 -36 22 -21 40 -25 147 -34 139 -11 133 -4
93 -110 -15 -38 -33 -101 -42 -140 -9 -38 -27 -107 -42 -153 -22 -70 -29 -82
-47 -79 -11 1 -26 6 -32 10 -7 5 -21 10 -30 12 -29 6 -137 46 -148 55 -5 4
-28 13 -50 20 -22 7 -50 19 -62 27 -12 8 -23 14 -25 12 -2 -1 -32 7 -68 19
-36 11 -117 32 -180 46 -142 33 -147 35 -132 73 7 15 14 53 17 83 6 56 33 171
64 275 36 115 54 180 56 195 1 8 4 24 8 35 3 11 9 35 12 53 3 18 12 60 19 93
17 72 16 63 17 97 0 15 3 21 6 15 2 -7 11 -13 19 -13z"/>
<path d="M1670 3855 c-19 -21 -22 -30 -14 -43 16 -24 42 -27 65 -6 22 20 25
44 7 62 -18 18 -32 15 -58 -13z"/>
<path d="M2324 3716 c-3 -9 -3 -36 0 -61 16 -104 -17 -179 -112 -256 -51 -42
-63 -71 -32 -77 20 -3 124 84 156 131 32 48 48 136 37 212 -6 45 -12 61 -26
63 -9 2 -20 -4 -23 -12z"/>
<path d="M2488 3685 c-3 -3 -3 -54 0 -113 5 -105 4 -108 -22 -139 -15 -17 -58
-55 -96 -83 -69 -51 -84 -75 -55 -86 26 -10 183 115 211 168 14 28 18 164 5
223 -6 27 -29 44 -43 30z"/>
<path d="M2667 3604 c-4 -4 -4 -37 -1 -74 8 -83 -4 -109 -87 -182 -45 -39 -61
-60 -56 -71 10 -28 29 -20 95 39 95 85 114 136 94 249 -7 37 -28 56 -45 39z"/>
</g>
</svg>
