<?xml version="1.0" standalone="no"?>
<!DOCTYPE svg PUBLIC "-//W3C//DTD SVG 20010904//EN"
 "http://www.w3.org/TR/2001/REC-SVG-20010904/DTD/svg10.dtd">
<svg version="1.0" xmlns="http://www.w3.org/2000/svg"
 width="553.000000pt" height="551.000000pt" viewBox="0 0 553.000000 551.000000"
 preserveAspectRatio="xMidYMid meet">
<metadata>
Created by potrace 1.16, written by Peter Selinger 2001-2019
</metadata>
<g transform="translate(0.000000,551.000000) scale(0.100000,-0.100000)"
fill="#000000" stroke="none">
<path d="M3538 5372 c-9 -9 -18 -46 -21 -82 -4 -36 -9 -76 -12 -90 -3 -14 -8
-44 -10 -67 -3 -23 -9 -61 -14 -85 -5 -24 -19 -108 -30 -188 -11 -80 -22 -158
-24 -175 -3 -16 -9 -55 -15 -85 -6 -30 -16 -90 -23 -133 -10 -68 -13 -75 -23
-55 -12 24 -51 34 -75 19 -22 -14 -16 -139 14 -280 8 -40 15 -87 15 -105 0
-20 8 -40 19 -50 17 -16 23 -16 48 -4 15 7 29 22 31 33 6 35 63 179 78 196 8
8 14 20 14 26 0 6 16 34 35 63 39 58 41 65 20 86 -8 8 -12 21 -9 28 8 21 -26
28 -53 10 -14 -8 -26 -14 -28 -12 -2 2 7 59 20 128 13 69 27 163 31 210 3 47
11 96 16 109 5 13 11 40 13 60 6 44 32 205 45 282 12 65 13 130 2 145 -4 6
-17 16 -28 22 -17 9 -24 8 -36 -6z"/>
<path d="M1706 4413 c-2 -2 -25 -5 -52 -7 -46 -3 -81 -13 -129 -36 -25 -12
-110 -42 -243 -86 -57 -18 -127 -47 -155 -63 -29 -16 -95 -52 -147 -81 -52
-29 -124 -78 -160 -110 -36 -31 -84 -69 -107 -83 -26 -17 -51 -44 -64 -69 -19
-37 -71 -112 -89 -128 -12 -10 -102 -151 -127 -198 -14 -26 -28 -49 -32 -52
-31 -24 -108 -165 -164 -300 -8 -19 -24 -55 -34 -80 -11 -25 -24 -54 -28 -65
-4 -11 -11 -65 -16 -120 -4 -55 -11 -116 -15 -135 -8 -37 -8 -124 -1 -175 2
-16 7 -52 11 -80 9 -66 37 -177 48 -191 5 -7 15 -38 24 -70 8 -33 21 -68 28
-79 7 -11 21 -45 31 -75 19 -56 72 -175 100 -220 8 -14 26 -50 40 -80 14 -30
37 -75 52 -99 30 -50 223 -251 241 -251 7 0 12 -4 12 -10 0 -5 6 -10 13 -10 7
0 35 -23 62 -51 28 -28 68 -63 90 -77 22 -14 60 -42 85 -63 48 -41 154 -84
180 -74 8 4 0 -8 -18 -26 -19 -18 -44 -54 -58 -80 -13 -26 -28 -50 -34 -54 -5
-3 -25 -29 -44 -58 -20 -29 -49 -68 -66 -87 -16 -19 -30 -38 -30 -41 0 -4 -13
-22 -30 -40 -16 -19 -30 -40 -30 -46 0 -7 -4 -13 -10 -13 -5 0 -10 -5 -10 -12
0 -6 -6 -19 -14 -27 -18 -21 -56 -89 -56 -101 0 -6 -11 -33 -25 -62 -14 -28
-25 -64 -25 -79 0 -70 93 -268 160 -341 30 -32 90 -67 127 -74 21 -4 43 -10
48 -15 17 -13 124 -30 185 -31 96 0 260 40 260 64 0 4 6 8 14 8 23 0 64 57 81
113 9 29 18 97 21 152 5 132 11 172 30 200 9 13 13 29 9 35 -3 5 -2 10 2 10 5
0 27 24 48 52 22 29 47 60 55 68 8 8 28 30 43 49 16 19 39 43 53 53 22 18 25
18 40 4 8 -9 30 -16 48 -16 19 0 49 -11 69 -24 19 -13 46 -27 58 -31 13 -5 38
-19 55 -32 26 -20 46 -24 125 -28 99 -4 194 -19 213 -33 11 -8 56 -23 131 -42
52 -13 131 -13 175 0 19 6 69 13 110 15 41 3 79 10 84 15 6 6 22 10 37 10 15
0 31 5 34 10 3 6 20 10 37 10 42 0 204 114 291 204 37 39 67 73 67 76 0 3 19
26 43 51 54 60 143 186 218 308 8 14 39 80 68 146 78 176 128 283 174 370 79
148 167 380 183 481 3 21 10 47 15 56 15 28 24 380 11 430 -6 23 -14 65 -17
92 -3 27 -8 53 -11 58 -3 4 -10 35 -15 69 -5 34 -21 89 -34 122 -26 63 -92
167 -107 167 -4 0 -8 7 -8 15 0 8 -12 21 -28 29 -15 8 -36 24 -47 36 -24 27
-67 50 -93 50 -11 0 -22 6 -24 13 -10 27 4 428 17 503 6 35 4 44 -15 62 -18
17 -27 19 -51 10 -16 -5 -29 -14 -29 -19 0 -5 -8 -9 -19 -9 -11 0 -25 -13 -34
-32 -9 -18 -28 -46 -43 -63 -14 -16 -42 -49 -61 -72 -35 -43 -63 -55 -63 -29
0 8 -15 17 -37 21 -47 8 -110 40 -143 71 -14 12 -47 32 -75 44 -27 12 -68 30
-90 40 -42 20 -228 90 -239 90 -12 0 -116 73 -116 81 0 5 -9 9 -20 9 -10 0
-23 6 -27 13 -8 13 -76 47 -94 47 -5 0 -38 13 -72 28 -74 34 -102 44 -182 67
-33 9 -85 25 -115 36 -76 28 -125 38 -192 39 -31 0 -79 5 -105 10 -26 6 -75
12 -108 15 -33 2 -75 6 -93 8 -18 2 -34 2 -36 0z m204 -107 c8 -3 53 -7 100
-10 102 -7 134 -13 169 -31 15 -7 51 -20 81 -28 30 -9 74 -23 98 -31 24 -9 51
-18 60 -19 9 -2 42 -14 72 -28 30 -14 69 -29 85 -33 33 -8 142 -71 165 -96 22
-22 112 -65 210 -98 121 -42 232 -94 271 -126 18 -16 63 -42 99 -60 89 -43 93
-48 65 -78 -12 -13 -51 -63 -86 -110 -92 -122 -282 -362 -449 -566 -80 -97
-162 -202 -182 -232 -20 -30 -67 -87 -105 -126 -37 -39 -96 -106 -131 -148
-35 -42 -69 -75 -77 -74 -7 2 -33 -22 -57 -53 -123 -160 -160 -200 -176 -192
-10 4 -51 8 -93 8 -63 -1 -84 -5 -132 -29 -31 -16 -57 -35 -57 -41 0 -7 -11
-24 -25 -39 -14 -15 -25 -31 -25 -37 0 -5 -4 -9 -9 -9 -5 0 -11 -8 -15 -17 -8
-24 -26 -51 -58 -88 -16 -16 -28 -35 -28 -40 0 -6 -7 -20 -15 -30 -8 -11 -42
-58 -75 -105 -33 -47 -78 -105 -100 -130 -22 -25 -40 -48 -40 -51 0 -6 -20
-32 -65 -84 -64 -75 -162 -203 -175 -229 l-15 -30 -3 27 c-3 23 -8 27 -36 27
-33 0 -91 17 -111 31 -5 5 -29 24 -51 43 -23 20 -46 36 -52 36 -6 0 -51 38
-100 85 -49 47 -93 85 -98 85 -4 0 -28 20 -53 45 -25 25 -64 62 -86 83 -52 48
-99 115 -121 172 -9 25 -29 63 -43 85 -27 42 -44 79 -81 180 -12 33 -33 83
-46 111 -13 28 -27 66 -30 85 -4 19 -14 47 -22 63 -21 43 -31 80 -47 176 -18
102 -19 185 -4 339 10 117 15 136 55 226 12 28 34 82 49 120 15 39 45 96 66
129 22 32 39 61 39 65 0 3 11 18 25 33 14 15 41 55 60 90 20 35 56 90 80 123
25 33 60 83 79 110 37 54 78 94 141 140 22 16 58 46 80 67 22 21 71 55 110 75
38 20 93 51 120 68 28 17 70 39 95 49 25 10 59 24 75 31 39 17 191 65 206 65
6 0 25 7 42 15 18 8 48 16 67 18 44 6 290 0 310 -7z m1747 -473 c-5 -8 -21
-194 -19 -228 1 -19 1 -71 0 -248 0 -42 -5 -80 -10 -83 -7 -4 -6 -9 0 -13 12
-7 -13 -138 -29 -155 -5 -6 -9 -20 -9 -33 0 -13 -6 -24 -12 -24 -7 -1 -29 -3
-48 -5 -58 -4 -107 -25 -118 -49 -6 -12 -7 -26 -3 -31 4 -5 15 -34 23 -66 l16
-56 -93 -46 c-78 -38 -93 -49 -98 -73 -3 -16 0 -31 8 -38 8 -5 15 -19 17 -30
2 -16 -14 -28 -87 -65 -85 -42 -90 -47 -93 -79 -3 -24 1 -37 13 -44 13 -7 4
-16 -50 -48 -37 -21 -71 -39 -76 -39 -13 0 -31 -51 -26 -72 4 -13 -4 -20 -32
-28 -101 -32 -118 -51 -109 -125 4 -38 -1 -40 -74 -35 -16 1 -28 -3 -28 -8 0
-5 -8 -9 -17 -8 -14 1 -19 -8 -21 -46 -3 -40 -6 -47 -30 -54 -15 -4 -31 -6
-35 -6 -15 4 -47 -19 -47 -32 0 -8 -7 -16 -15 -19 -11 -5 -12 -12 -4 -36 12
-33 3 -48 -50 -83 -32 -22 -51 -23 -51 -3 0 8 -6 15 -13 15 -7 0 -51 39 -98
88 -46 48 -100 99 -119 113 l-35 26 35 45 c26 34 41 45 62 45 26 0 67 35 68
59 0 10 52 77 159 205 29 35 70 84 90 108 20 24 57 67 82 95 25 28 56 67 69
86 13 19 27 37 30 40 3 3 32 40 64 83 33 42 99 123 148 180 49 56 98 119 110
140 12 20 25 37 30 37 4 0 8 6 8 13 0 7 16 28 35 47 19 19 35 39 35 43 0 5 31
45 68 90 38 45 79 98 92 117 66 96 268 340 282 340 5 0 7 -3 5 -7z m140 -499
c7 -7 13 -17 13 -23 0 -6 6 -11 13 -11 21 0 92 -72 123 -125 46 -76 71 -149
94 -270 11 -60 23 -121 26 -135 6 -28 6 -316 -1 -370 -5 -43 -34 -156 -48
-190 -5 -14 -11 -32 -12 -40 -6 -40 -148 -364 -181 -416 -21 -32 -64 -133 -64
-151 0 -7 -4 -13 -10 -13 -5 0 -10 -8 -10 -18 0 -21 -98 -217 -144 -287 -18
-27 -39 -60 -47 -71 -95 -144 -260 -325 -352 -385 -43 -29 -85 -59 -93 -67
-17 -17 -104 -39 -229 -58 -22 -3 -58 -9 -81 -13 -67 -13 -191 -13 -199 -2 -3
6 -18 11 -32 11 -15 0 -65 19 -112 42 -67 32 -102 58 -159 115 -39 40 -72 80
-72 88 0 8 -4 15 -9 15 -12 0 -39 59 -42 95 -2 17 5 42 15 57 10 15 15 31 13
35 -3 5 3 20 14 33 l19 25 26 -30 c14 -16 31 -43 38 -60 7 -16 31 -50 54 -75
22 -25 60 -69 84 -99 32 -39 55 -57 88 -68 24 -9 62 -30 85 -47 55 -44 83 -61
130 -76 50 -17 70 -15 119 8 28 14 48 17 66 12 15 -4 33 -4 41 0 8 5 28 9 44
11 17 2 35 6 40 10 6 3 37 21 70 39 33 18 78 48 99 67 22 18 42 33 46 33 3 0
14 15 25 32 10 18 24 39 29 46 6 7 16 18 21 25 66 80 90 117 127 193 24 49 52
111 62 138 10 26 35 80 56 120 112 214 160 313 160 333 0 8 15 44 34 81 38 75
90 194 101 232 4 14 13 39 20 55 24 56 43 120 65 214 20 85 21 110 16 275 -4
99 -9 193 -12 208 -3 15 -7 49 -8 75 -2 27 -10 63 -20 80 -9 18 -16 39 -16 48
0 23 -51 128 -69 143 -16 13 -52 30 -61 29 -3 0 -14 5 -26 11 -16 8 -21 21
-21 52 0 36 2 40 21 34 11 -4 26 -12 33 -20z m10 -175 c19 -16 45 -70 49 -103
2 -16 11 -43 20 -60 9 -17 18 -65 21 -106 9 -154 10 -178 18 -290 6 -92 5
-126 -8 -170 -8 -30 -18 -75 -22 -100 -3 -25 -17 -67 -30 -95 -13 -27 -37 -90
-54 -140 -35 -102 -43 -121 -77 -188 -13 -26 -24 -52 -24 -57 0 -6 -18 -47
-39 -93 -21 -45 -42 -89 -45 -97 -3 -8 -21 -42 -39 -75 -48 -89 -99 -189 -145
-287 -51 -106 -126 -212 -212 -298 -87 -88 -155 -125 -261 -144 -46 -9 -104
-22 -129 -29 -39 -12 -49 -12 -80 2 -37 17 -97 56 -141 92 -14 11 -32 22 -40
23 -51 10 -70 23 -105 69 -21 29 -41 54 -44 57 -25 24 -72 96 -94 143 -15 31
-32 57 -37 57 -6 0 -2 14 8 30 9 17 21 30 25 30 9 0 89 147 119 220 12 30 33
71 46 90 13 19 23 42 23 50 0 9 21 33 48 55 26 22 49 43 50 47 2 4 12 8 23 8
33 0 62 38 55 72 -4 19 -2 27 5 23 6 -4 25 -4 43 -1 38 7 56 37 56 91 0 34 1
35 43 36 47 1 76 5 84 13 3 3 5 34 4 69 -1 74 1 75 84 84 80 9 87 16 83 81
l-3 57 79 38 78 38 -4 51 c-5 50 -5 50 31 65 20 9 49 25 66 37 16 11 35 20 42
18 16 -3 28 77 14 91 -28 28 10 62 122 106 22 9 27 17 28 48 1 21 0 43 -1 48
-1 6 -4 27 -7 47 l-5 36 35 -8 c81 -18 97 1 139 167 l23 91 34 -14 c19 -8 40
-19 48 -25z m-1773 -1119 c3 -23 10 -38 15 -35 22 13 51 -142 66 -355 3 -41 8
-86 10 -100 7 -36 17 -140 16 -172 -1 -26 17 -52 41 -61 8 -3 0 -17 -23 -40
-20 -20 -35 -37 -33 -39 2 -2 -22 -26 -52 -53 -31 -28 -69 -62 -84 -76 -28
-25 -29 -26 -34 -5 -3 12 -13 84 -21 161 -9 77 -23 172 -30 210 -13 63 -19
135 -29 331 -2 34 -10 76 -19 92 -14 28 -13 33 7 61 32 46 32 46 52 -49 9 -44
14 -82 29 -210 8 -69 17 -141 19 -160 10 -69 20 -206 19 -257 0 -29 3 -53 8
-53 5 0 9 -6 9 -14 0 -25 28 -40 54 -28 25 11 44 72 29 95 -4 6 -15 80 -24
162 -30 268 -59 509 -68 565 -10 61 -8 70 18 70 14 0 20 -10 25 -40z m195
-200 c10 -36 20 -91 20 -123 4 -146 10 -197 30 -218 19 -21 19 -21 -7 -64 -15
-24 -30 -40 -34 -37 -3 4 -9 36 -13 72 -4 35 -9 68 -11 72 -3 4 -11 79 -19
165 -8 87 -17 176 -21 197 l-6 39 21 -20 c11 -10 29 -48 40 -83z m-433 -85 c2
-51 12 -164 20 -245 3 -25 11 -76 19 -115 12 -63 15 -106 20 -265 3 -69 3 -70
36 -84 l31 -13 -26 -27 c-15 -14 -31 -26 -37 -26 -6 0 -8 -4 -4 -9 3 -5 1 -12
-5 -16 -6 -4 -10 10 -10 37 0 24 -5 61 -10 83 -11 44 -17 89 -25 180 -3 33 -8
85 -11 115 -6 69 -12 162 -19 314 -3 65 -8 123 -11 127 -3 5 -2 14 2 20 11 19
28 -21 30 -76z m590 -52 c-3 -39 -17 -83 -26 -83 -14 0 -20 30 -20 95 l0 64
24 -24 c16 -16 24 -34 22 -52z m-692 -88 c4 -27 9 -93 11 -145 6 -99 21 -279
32 -365 4 -27 7 -79 8 -115 0 -36 7 -76 14 -89 12 -22 11 -26 -8 -42 -11 -9
-21 -22 -21 -28 0 -6 -4 -11 -10 -11 -5 0 -9 3 -8 8 1 4 -1 27 -5 52 -4 25
-10 83 -12 130 -3 47 -10 117 -15 155 -11 72 -12 138 -11 385 1 143 12 172 25
65z m-105 -252 c1 -109 6 -227 12 -263 6 -36 11 -110 11 -165 1 -102 13 -146
44 -163 13 -7 9 -13 -21 -36 -20 -16 -39 -25 -42 -22 -3 3 -14 75 -24 160 -10
85 -25 192 -35 238 -9 46 -18 126 -19 178 -2 52 -4 115 -6 140 -2 38 3 53 31
92 18 26 37 45 41 43 4 -3 8 -94 8 -202z m-153 -100 c2 -54 13 -136 24 -183
10 -47 24 -164 30 -260 12 -204 12 -204 27 -222 9 -10 8 -29 -1 -75 -7 -34
-11 -99 -9 -147 2 -49 -1 -104 -8 -128 l-12 -43 -7 31 c-4 17 -10 36 -14 42
-3 6 -9 71 -12 144 -2 73 -9 183 -15 243 -6 61 -12 162 -15 226 -6 170 -12
261 -19 289 -3 14 -9 53 -12 88 -5 51 -3 66 12 82 10 11 20 18 22 16 3 -2 6
-48 9 -103z m-107 -95 c6 -29 16 -141 22 -248 5 -107 12 -211 13 -230 2 -19 6
-107 10 -195 4 -88 9 -189 13 -225 11 -115 3 -140 -43 -140 -18 0 -21 6 -22
47 0 61 -18 229 -32 313 -5 36 -12 157 -15 270 -3 113 -10 244 -16 292 l-12
86 29 41 c16 22 32 41 36 41 4 0 11 -24 17 -52z m767 -154 c6 -49 47 -113 119
-188 17 -18 39 -42 50 -54 l19 -23 -28 10 c-15 6 -40 11 -55 11 -15 0 -78 25
-139 55 -62 30 -116 55 -122 55 -17 0 -11 17 18 47 15 16 49 53 76 81 27 29
51 51 53 48 2 -2 6 -21 9 -42z m-901 -190 c8 -121 16 -264 19 -319 3 -55 8
-135 12 -177 4 -45 2 -89 -4 -107 -8 -22 -7 -34 3 -48 24 -31 19 -53 -12 -52
-51 2 -68 12 -70 44 -1 17 -4 62 -7 100 -3 39 -6 70 -7 70 -5 0 -11 219 -10
360 2 184 -1 205 -29 205 -20 0 -20 1 -3 28 39 60 86 123 90 119 2 -3 10 -103
18 -223z m-155 -1 c0 -10 3 -99 5 -198 3 -99 5 -187 5 -195 1 -8 1 -75 1 -147
l-1 -133 -26 10 c-43 17 -67 37 -54 45 8 5 10 20 5 44 -6 37 -27 319 -25 356
0 11 2 40 5 65 2 25 4 55 4 66 1 21 58 102 73 103 4 1 7 -7 8 -16z m-149 -215
c-1 -24 2 -98 5 -166 8 -151 -2 -172 -42 -86 -39 83 -38 149 1 232 16 34 31
62 33 62 2 0 3 -19 3 -42z"/>
<path d="M3778 2929 c-28 -16 -23 -57 8 -71 23 -11 28 -10 40 7 18 25 15 44
-11 61 -14 9 -25 10 -37 3z"/>
<path d="M3630 2675 c-11 -21 -11 -29 0 -50 8 -14 16 -21 20 -16 3 6 11 6 20
1 18 -11 40 6 40 32 0 57 -55 79 -80 33z"/>
<path d="M3408 2467 c-18 -14 -14 -66 6 -68 6 0 19 -2 29 -4 21 -4 47 20 47
44 0 37 -47 54 -82 28z"/>
<path d="M3720 2446 c-20 -25 -8 -61 22 -64 31 -4 63 34 52 62 -8 20 -57 21
-74 2z"/>
<path d="M3412 2228 c-21 -21 -11 -95 10 -82 6 4 14 0 19 -7 7 -11 9 -11 9 2
0 9 7 22 15 29 19 16 19 35 -1 54 -19 19 -36 20 -52 4z"/>
<path d="M3140 2105 c-21 -25 -8 -60 24 -63 35 -4 46 6 51 45 3 28 1 30 -30
31 -18 1 -38 -5 -45 -13z"/>
<path d="M3547 1993 c-13 -12 -7 -64 7 -69 21 -8 56 14 56 34 0 32 -43 56 -63
35z"/>
<path d="M3174 1848 c-13 -21 -4 -49 23 -74 32 -29 35 -29 51 -3 11 17 10 25
-5 52 -20 34 -56 47 -69 25z"/>
<path d="M2882 1817 c-6 -7 -13 -25 -16 -40 -4 -23 0 -28 21 -33 18 -5 30 -2
38 10 7 9 17 16 23 16 15 0 4 31 -16 48 -20 15 -37 15 -50 -1z"/>
<path d="M3300 1675 c-21 -25 -8 -50 28 -53 30 -3 32 -1 32 26 0 40 -36 56
-60 27z"/>
<path d="M2947 1613 c-4 -3 -7 -19 -7 -34 0 -36 24 -50 62 -37 23 8 27 14 22
32 -3 11 -11 27 -16 34 -11 13 -50 17 -61 5z"/>
<path d="M2571 1592 c-13 -25 -3 -60 20 -67 23 -8 65 19 72 46 10 36 -74 54
-92 21z"/>
<path d="M2699 1457 c-6 -14 -9 -37 -5 -52 5 -21 12 -26 33 -23 40 5 52 32 27
65 -28 37 -42 39 -55 10z"/>
<path d="M3275 1440 c-18 -20 -18 -21 2 -41 17 -17 24 -19 42 -10 24 13 44 47
36 61 -11 17 -61 11 -80 -10z"/>
<path d="M3020 1406 c-18 -35 -6 -76 23 -76 17 0 28 10 40 35 l17 35 -30 15
c-37 19 -34 19 -50 -9z"/>
<path d="M2426 1337 c-11 -42 -6 -55 25 -66 36 -12 59 -1 59 29 0 20 -15 35
-52 49 -23 8 -27 7 -32 -12z"/>
<path d="M2668 1203 c-31 -5 -45 -36 -33 -73 13 -42 85 -3 80 44 -4 34 -5 36
-12 35 -5 -1 -20 -4 -35 -6z"/>
<path d="M3073 1072 c-33 -5 -45 -25 -33 -56 7 -20 16 -26 40 -26 27 0 30 3
30 33 0 41 -9 53 -37 49z"/>
<path d="M4886 2475 c-3 -8 -13 -15 -22 -15 -9 0 -53 -12 -98 -27 -60 -19 -93
-37 -127 -68 -25 -24 -63 -54 -85 -69 -94 -63 -123 -88 -195 -172 -57 -67 -69
-81 -104 -131 -17 -24 -36 -43 -43 -43 -7 0 -10 -4 -7 -10 3 -5 -8 -25 -24
-42 -17 -18 -60 -82 -96 -143 -36 -60 -74 -121 -85 -135 -41 -50 -80 -115 -80
-132 0 -10 -4 -18 -10 -18 -5 0 -10 -6 -10 -12 0 -7 -11 -26 -25 -42 -14 -16
-25 -35 -25 -41 0 -7 -11 -24 -26 -40 -14 -15 -23 -29 -21 -32 3 -2 -15 -40
-39 -85 -24 -44 -46 -90 -50 -102 -9 -29 -63 -127 -82 -148 -8 -10 -11 -18 -6
-18 5 0 4 -4 -1 -8 -14 -9 -61 -116 -80 -179 -9 -30 -15 -96 -16 -173 -1 -138
1 -145 84 -306 33 -65 51 -88 88 -114 26 -18 57 -41 70 -53 27 -25 88 -30 208
-17 111 12 144 18 211 36 30 9 71 19 91 24 75 19 205 83 273 134 142 107 222
180 268 245 25 36 64 89 87 118 42 54 104 153 95 153 -3 0 9 20 26 44 16 25
30 47 30 50 0 13 63 143 77 159 9 9 13 17 10 17 -4 0 3 21 14 48 34 77 87 251
145 472 38 149 48 328 28 530 -5 47 -16 81 -40 125 -58 104 -95 132 -223 175
-36 12 -73 26 -83 31 -11 6 -28 12 -39 14 -12 2 -29 7 -39 10 -11 3 -20 0 -24
-10z m-23 -99 c6 -15 47 -29 47 -15 0 23 41 5 76 -35 60 -68 94 -129 94 -170
0 -20 7 -50 15 -65 8 -16 13 -30 11 -32 -2 -2 -7 -67 -10 -144 -7 -165 -13
-216 -33 -270 -8 -22 -14 -49 -14 -60 0 -11 -6 -44 -15 -73 -8 -29 -12 -57 -9
-61 2 -5 -2 -28 -11 -52 -9 -24 -18 -57 -20 -74 -3 -16 -14 -54 -25 -83 -10
-28 -19 -54 -19 -57 0 -6 -95 -210 -110 -237 -6 -10 -10 -23 -10 -30 0 -7 -13
-32 -28 -55 -15 -23 -40 -63 -55 -88 -16 -25 -35 -45 -42 -45 -8 0 -12 -6 -10
-13 3 -6 -12 -31 -32 -54 -21 -23 -76 -84 -123 -137 -47 -53 -94 -99 -105
-102 -11 -4 -39 -21 -61 -40 -51 -41 -124 -80 -178 -96 -23 -7 -43 -15 -46
-20 -3 -4 -21 -9 -40 -12 -19 -3 -50 -9 -67 -15 -18 -5 -33 -7 -33 -4 0 3 -6
0 -14 -6 -8 -7 -37 -13 -65 -14 -30 -1 -53 -7 -55 -15 -8 -19 -56 -15 -56 6 0
13 -2 14 -9 4 -7 -11 -11 -11 -23 1 -7 8 -23 17 -33 21 -28 10 -79 84 -119
169 -46 100 -47 111 -36 244 10 116 11 120 71 243 34 69 67 132 74 140 7 8 18
33 25 55 15 45 91 194 148 288 53 88 58 97 83 142 11 22 42 69 69 105 26 36
66 98 90 138 23 40 50 78 60 85 9 7 36 40 58 73 23 34 60 81 82 104 22 23 40
46 40 50 0 7 58 67 117 121 15 15 46 38 68 53 22 15 58 44 80 65 27 26 61 45
105 59 78 25 86 26 93 8z m274 -66 c36 -22 87 -87 109 -139 19 -46 30 -248 20
-376 -7 -83 -40 -233 -92 -405 -50 -169 -53 -178 -94 -265 -21 -44 -45 -100
-54 -124 -10 -25 -25 -56 -35 -70 -10 -14 -23 -40 -28 -56 -11 -32 -121 -203
-170 -265 -48 -60 -129 -135 -199 -185 -37 -27 -75 -56 -84 -64 -20 -19 -51
-38 -110 -68 -61 -30 -73 -29 -25 4 22 14 42 30 45 33 3 4 24 17 47 29 23 11
53 37 67 57 13 20 60 75 103 122 43 47 97 112 121 144 23 32 47 56 52 53 6 -4
10 4 10 17 0 14 15 49 33 79 18 30 33 58 34 62 1 4 28 63 61 130 33 67 69 156
82 197 12 41 26 82 30 91 13 26 31 97 37 148 3 25 9 54 14 63 5 9 9 36 9 60 0
24 7 64 14 90 21 69 42 408 27 436 -5 10 -11 40 -14 69 -2 29 -13 67 -24 85
-25 43 -34 68 -25 68 4 0 21 -9 39 -20z"/>
<path d="M4740 2174 c-14 -7 -25 -18 -24 -24 1 -5 2 -19 3 -29 1 -23 30 -34
65 -25 33 8 36 51 6 77 -11 9 -21 17 -23 16 -1 -1 -13 -7 -27 -15z"/>
<path d="M4450 1975 c-16 -19 -5 -63 18 -67 9 -2 29 -2 45 0 22 4 27 9 27 31
0 15 -5 32 -12 39 -17 17 -63 15 -78 -3z"/>
<path d="M4821 1907 c-18 -22 -9 -77 12 -77 34 0 57 20 57 49 0 39 -45 57 -69
28z"/>
<path d="M4502 1728 c-19 -19 -14 -45 14 -63 22 -14 28 -15 35 -4 5 8 9 10 10
4 0 -5 4 -1 8 10 17 42 -37 83 -67 53z"/>
<path d="M4742 1448 c-17 -17 -15 -49 6 -64 26 -20 38 -17 52 16 10 24 10 33
0 45 -15 18 -42 19 -58 3z"/>
<path d="M4223 1419 c-14 -14 2 -55 25 -64 23 -9 56 28 47 54 -7 23 -52 30
-72 10z"/>
<path d="M4459 1172 c-50 -6 -37 -82 13 -82 24 0 48 33 42 57 -7 25 -18 30
-55 25z"/>
<path d="M4147 1132 c-40 -5 -53 -36 -26 -63 l21 -21 26 25 c32 33 22 64 -21
59z"/>
<path d="M4556 1017 c-12 -47 -7 -67 17 -67 24 0 56 26 55 45 -1 11 -24 28
-50 38 -11 4 -18 -1 -22 -16z"/>
<path d="M3806 744 c-11 -42 26 -69 63 -45 9 6 11 18 6 40 -5 26 -11 31 -35
31 -22 0 -29 -6 -34 -26z"/>
<path d="M4134 734 c-18 -26 -17 -27 6 -46 23 -19 24 -19 49 7 21 20 24 29 15
43 -18 28 -51 27 -70 -4z"/>
<path d="M3866 515 c-19 -20 -30 -55 -19 -65 24 -23 49 -19 66 9 25 43 22 71
-7 71 -14 0 -31 -7 -40 -15z"/>
</g>
</svg>
