<?xml version="1.0" standalone="no"?>
<!DOCTYPE svg PUBLIC "-//W3C//DTD SVG 20010904//EN"
 "http://www.w3.org/TR/2001/REC-SVG-20010904/DTD/svg10.dtd">
<svg version="1.0" xmlns="http://www.w3.org/2000/svg"
 width="431.000000pt" height="415.000000pt" viewBox="0 0 431.000000 415.000000"
 preserveAspectRatio="xMidYMid meet">
<metadata>
Created by potrace 1.16, written by Peter Selinger 2001-2019
</metadata>
<g transform="translate(0.000000,415.000000) scale(0.100000,-0.100000)"
fill="#000000" stroke="none">
<path d="M3687 3960 c-15 -8 -27 -20 -27 -27 0 -7 -16 -20 -35 -29 -19 -9 -35
-20 -35 -25 0 -5 -6 -9 -14 -9 -8 0 -22 -8 -32 -17 -10 -10 -26 -22 -35 -28
-10 -5 -37 -22 -59 -37 -57 -39 -105 -69 -185 -117 -89 -52 -109 -65 -115 -71
-8 -8 -60 -38 -110 -62 -25 -13 -47 -26 -50 -29 -3 -3 -50 -29 -105 -58 -55
-29 -102 -56 -105 -60 -3 -3 -25 -15 -50 -25 -25 -10 -53 -22 -62 -27 -10 -5
-22 -9 -28 -9 -6 0 -40 -18 -76 -40 -36 -22 -72 -40 -78 -40 -16 0 -156 -90
-156 -100 0 -19 -73 -31 -185 -31 -66 1 -147 1 -180 1 -65 0 -139 -7 -196 -19
-20 -5 -114 -6 -210 -2 -184 6 -268 5 -334 -2 -76 -9 -140 -9 -275 -1 -74 4
-155 6 -180 5 -25 -1 -88 -3 -140 -5 -168 -7 -212 -7 -224 3 -26 22 -106 -12
-106 -45 0 -7 -9 -16 -20 -19 -11 -3 -21 -14 -21 -23 -3 -31 -7 -66 -14 -117
-11 -82 -5 -933 10 -1440 3 -99 5 -211 4 -250 -1 -65 0 -351 2 -385 0 -8 -3
-51 -7 -95 -10 -100 -10 -281 -1 -318 6 -20 15 -29 37 -34 17 -3 30 -10 30
-15 0 -5 -4 -7 -9 -4 -11 7 -23 -37 -15 -57 13 -35 48 -40 276 -39 237 1 713
2 763 1 110 0 686 11 759 15 49 3 94 2 100 -2 17 -10 66 -11 66 0 0 5 4 7 9 4
5 -4 11 -2 13 2 4 11 102 91 143 118 17 10 69 47 117 81 48 35 94 63 102 63 8
0 17 4 20 9 3 5 17 12 31 15 13 3 44 19 67 34 75 47 82 52 108 63 13 5 27 14
30 18 10 15 167 118 217 143 29 14 49 28 46 32 -4 3 -1 6 6 6 7 0 44 26 84 57
40 32 74 59 77 59 33 9 50 18 50 25 0 5 6 9 14 9 7 0 19 7 26 15 7 8 16 12 21
9 5 -3 9 -1 9 5 0 5 8 12 19 16 10 3 33 19 50 36 18 17 51 39 74 49 54 25 113
59 155 88 17 13 32 20 32 16 0 -4 7 1 15 12 8 10 15 13 15 7 0 -9 11 -11 33
-9 17 3 35 5 38 5 28 3 32 153 15 631 -2 52 -7 209 -10 349 -4 140 -9 258 -12
263 -3 4 -7 68 -9 141 -2 72 -8 155 -14 183 -5 28 -10 131 -11 228 -1 97 -1
182 -2 189 0 6 3 68 6 137 3 69 1 215 -5 325 -10 189 -12 202 -36 237 -22 32
-31 37 -57 35 -18 -1 -44 -9 -59 -17z m33 -177 c10 -30 14 -136 16 -473 2
-239 8 -468 14 -508 5 -40 13 -137 16 -215 3 -78 7 -173 9 -212 2 -38 6 -191
9 -340 4 -148 8 -346 10 -439 4 -167 4 -169 -20 -193 -13 -13 -24 -28 -24 -33
0 -6 -19 -22 -42 -36 -24 -15 -62 -40 -86 -55 -23 -16 -54 -32 -67 -35 -14 -3
-25 -10 -25 -15 0 -5 -16 -17 -35 -26 -19 -9 -35 -20 -35 -25 0 -4 -7 -8 -15
-8 -8 0 -23 -9 -32 -20 -10 -11 -22 -20 -27 -20 -5 0 -19 -8 -30 -18 -12 -10
-37 -25 -56 -32 -19 -7 -55 -29 -79 -49 -57 -47 -130 -101 -135 -101 -3 0 -24
-13 -48 -30 -24 -16 -65 -46 -93 -65 -27 -19 -56 -35 -62 -35 -7 0 -13 -4 -13
-10 0 -5 -6 -10 -14 -10 -7 0 -24 -8 -37 -19 -13 -10 -41 -28 -62 -40 -20 -11
-53 -30 -72 -41 -19 -11 -35 -17 -35 -14 0 3 -13 -4 -29 -15 -16 -12 -34 -21
-39 -21 -6 0 -12 -3 -14 -7 -1 -5 -30 -26 -63 -47 -33 -21 -79 -52 -103 -67
-23 -16 -47 -29 -52 -29 -5 0 -15 -10 -22 -22 -11 -21 -13 -18 -20 37 -6 55
-2 537 7 765 3 52 6 295 9 540 3 245 7 447 10 449 3 2 32 8 63 13 32 5 69 11
83 13 68 11 215 17 263 11 53 -7 54 -8 43 -31 -8 -17 -15 -21 -27 -15 -16 9
-54 -10 -71 -34 -14 -20 -8 -55 12 -74 17 -16 37 -19 113 -20 50 -1 93 -5 95
-10 2 -6 147 11 147 18 0 1 14 3 30 5 100 13 121 18 147 43 39 37 33 66 -27
127 -27 28 -61 68 -75 88 -14 20 -31 37 -38 37 -7 0 -21 19 -32 42 -10 24 -19
39 -19 35 -1 -8 -25 9 -89 63 -32 27 -78 26 -96 -2 -22 -34 -9 -72 40 -123 24
-24 44 -46 44 -47 0 -2 -31 -2 -70 0 -38 2 -70 7 -70 11 0 7 -9 8 -60 11 -42
2 -163 -10 -203 -21 -21 -5 -61 -10 -90 -10 -29 1 -65 0 -81 -2 -36 -3 -37 3
-38 153 0 63 -3 133 -8 155 -5 22 -5 60 -1 85 4 25 3 61 -2 80 -4 19 -9 46
-11 60 -2 14 -6 41 -10 60 -7 34 -6 36 54 69 33 19 60 39 60 43 0 4 4 8 9 8 5
0 35 18 68 40 64 42 195 110 214 110 16 0 125 55 179 90 25 16 79 47 120 67
41 21 77 41 80 44 3 3 21 14 40 24 19 9 49 27 65 39 17 12 46 28 65 36 19 8
57 33 84 56 27 23 69 50 93 59 39 15 158 87 189 114 7 5 15 7 18 4 3 -4 6 -1
6 5 0 7 6 12 14 12 7 0 19 7 26 15 18 22 25 19 40 -22z m-1646 -788 c54 -2
102 -7 107 -12 5 -5 11 -26 14 -48 3 -22 8 -47 12 -55 10 -28 21 -537 12 -543
-2 -2 -40 -13 -84 -26 -112 -31 -241 -93 -414 -199 -51 -31 -111 -67 -132 -79
-22 -12 -56 -35 -77 -52 -21 -16 -50 -35 -65 -42 -15 -7 -27 -16 -27 -20 0 -5
-14 -16 -30 -24 -65 -34 -145 -139 -152 -200 -7 -57 8 -92 40 -98 34 -7 58 18
68 69 4 26 19 51 45 76 22 21 39 42 39 48 0 5 5 10 10 10 6 0 20 9 32 20 12
11 28 20 35 20 7 0 13 4 13 9 0 5 20 21 45 35 25 15 45 31 45 37 0 6 4 8 9 5
5 -3 20 3 34 14 14 11 28 20 32 20 4 0 15 8 24 18 17 20 65 50 169 104 34 18
62 36 62 40 0 5 11 8 24 8 13 0 34 8 47 19 13 10 40 22 59 26 19 4 44 14 55
21 11 7 38 16 60 19 l41 7 1 -59 c1 -32 2 -67 2 -78 1 -11 1 -56 1 -100 1 -44
2 -100 4 -125 2 -25 1 -49 -3 -55 -3 -5 -7 -57 -8 -115 -7 -471 -12 -630 -18
-639 -5 -10 -18 -417 -15 -496 5 -129 3 -153 -17 -159 -51 -15 -515 -29 -833
-25 -238 3 -320 3 -507 0 -106 -2 -196 0 -202 3 -5 4 -12 2 -15 -3 -4 -6 -205
-7 -264 -1 -1 0 5 11 13 24 17 25 17 56 1 68 -16 11 -17 233 -2 277 7 21 10
45 6 52 -7 13 -17 527 -25 1354 -2 215 -5 455 -6 535 -1 92 3 161 11 190 7 25
12 55 12 68 1 32 27 43 108 41 53 -1 70 -5 70 -16 0 -18 41 -34 57 -21 7 6 13
19 13 30 0 14 5 18 15 15 8 -4 17 -1 21 4 4 7 10 7 16 1 6 -6 21 -7 42 -1 31
10 155 4 263 -11 60 -8 194 -5 273 6 54 8 255 8 290 0 41 -9 178 -15 185 -8 3
4 18 7 33 8 54 4 125 14 131 20 3 3 26 2 51 -1 25 -4 89 -9 144 -10z"/>
</g>
</svg>
