<?xml version="1.0" standalone="no"?>
<!DOCTYPE svg PUBLIC "-//W3C//DTD SVG 20010904//EN"
 "http://www.w3.org/TR/2001/REC-SVG-20010904/DTD/svg10.dtd">
<svg version="1.0" xmlns="http://www.w3.org/2000/svg"
 width="511.000000pt" height="441.000000pt" viewBox="0 0 511.000000 441.000000"
 preserveAspectRatio="xMidYMid meet">
<metadata>
Created by potrace 1.16, written by Peter Selinger 2001-2019
</metadata>
<g transform="translate(0.000000,441.000000) scale(0.100000,-0.100000)"
fill="#000000" stroke="none">
<path d="M3080 4029 c0 -3 -27 -14 -60 -25 -33 -10 -60 -22 -60 -25 0 -4 -12
-10 -26 -13 -68 -18 -137 -132 -150 -247 -2 -26 -10 -80 -17 -120 -11 -69 -8
-221 6 -275 27 -108 56 -179 85 -217 81 -101 276 -221 362 -222 22 0 26 -5 32
-50 7 -53 0 -135 -11 -135 -32 0 -227 42 -238 52 -21 17 -52 17 -103 0 -50
-17 -70 -33 -70 -56 0 -9 -4 -16 -9 -16 -5 0 -12 -8 -15 -17 -7 -22 -82 -103
-96 -103 -5 0 -10 -6 -10 -13 0 -7 -23 -30 -50 -52 -51 -41 -122 -63 -271 -84
-30 -5 -71 -15 -90 -23 -61 -26 -139 -49 -148 -44 -16 10 -105 201 -103 219 2
9 -1 17 -7 17 -5 0 -15 16 -22 35 -7 19 -16 35 -20 35 -4 0 -14 17 -22 38 -8
20 -25 47 -36 59 -12 12 -21 27 -21 33 0 5 -3 10 -8 10 -4 0 -16 17 -27 38
-22 42 -112 132 -132 132 -7 0 -13 7 -13 15 0 8 -7 15 -15 15 -8 0 -15 5 -15
11 0 5 -4 8 -9 4 -5 -3 -15 1 -23 8 -7 8 -18 16 -23 18 -14 6 -128 82 -140 94
-15 14 -45 80 -45 97 0 8 -9 25 -20 38 -11 13 -20 29 -20 37 0 13 -8 23 -56
77 -13 15 -24 30 -24 34 -1 10 -96 82 -109 82 -6 0 -11 4 -11 8 0 11 -73 52
-91 52 -30 -1 -52 -29 -54 -72 -2 -24 1 -48 6 -53 11 -15 5 -133 -9 -147 -7
-7 -30 -3 -79 15 -62 24 -148 41 -198 40 -55 -1 -70 -35 -40 -92 12 -25 25
-71 40 -144 7 -30 6 -97 -1 -174 -6 -62 -10 -75 -31 -88 -78 -52 -165 -147
-224 -245 -27 -46 -49 -91 -49 -101 0 -10 -4 -20 -9 -23 -8 -5 -45 -143 -57
-216 -9 -49 -31 -116 -55 -162 -5 -10 -29 -57 -54 -106 -24 -49 -51 -95 -59
-101 -8 -6 -24 -37 -36 -69 -12 -31 -30 -73 -38 -92 -9 -19 -17 -42 -18 -50
-1 -8 -4 -34 -7 -57 -3 -23 -1 -57 5 -75 5 -18 12 -51 14 -73 3 -22 12 -45 20
-51 7 -6 14 -14 14 -18 0 -3 19 -44 41 -90 37 -74 47 -87 96 -116 94 -57 210
-65 288 -21 40 23 56 41 80 88 17 33 38 70 48 83 9 14 17 30 17 38 0 23 63 78
125 110 33 17 73 42 89 56 16 14 35 26 43 26 7 0 13 4 13 9 0 5 10 13 23 17
12 4 24 10 27 13 3 4 18 17 34 29 l29 23 29 -31 c15 -17 28 -35 28 -41 0 -5 5
-9 10 -9 12 0 210 -193 210 -205 0 -4 10 -22 23 -39 13 -17 31 -51 41 -75 10
-25 26 -57 37 -72 10 -15 19 -31 19 -37 0 -5 6 -15 14 -21 22 -18 37 -129 30
-222 -4 -46 -6 -93 -5 -104 1 -35 -38 -283 -53 -330 -5 -16 -15 -77 -21 -125
-3 -25 -11 -65 -19 -89 -11 -39 -11 -49 3 -73 13 -24 22 -28 50 -26 26 2 38
10 51 33 9 17 15 37 13 46 -4 14 1 60 22 191 2 15 9 45 15 66 10 39 25 140 36
252 3 30 8 78 10 105 17 163 -2 272 -65 385 -28 49 -51 93 -51 98 0 5 -16 31
-35 58 -19 27 -35 54 -35 60 0 6 -10 20 -23 32 -12 11 -26 26 -32 31 -5 6 -26
25 -45 44 -19 18 -42 42 -51 53 -9 10 -34 35 -55 55 -50 47 -68 69 -54 69 5 0
10 7 10 16 0 8 18 34 40 56 22 23 40 44 40 47 0 3 14 22 31 41 45 51 62 96 49
135 -12 36 -65 63 -74 38 -3 -7 -14 -13 -23 -11 -10 2 -17 -2 -15 -10 1 -6 -2
-12 -8 -12 -5 0 -10 -12 -10 -27 0 -26 -38 -93 -52 -93 -5 0 -8 -5 -8 -11 0
-24 -200 -219 -225 -219 -3 0 -25 -13 -48 -29 -41 -28 -75 -48 -146 -87 -51
-28 -90 -64 -120 -109 -32 -50 -60 -106 -61 -122 0 -7 -3 -13 -7 -13 -5 0 -16
-14 -25 -30 -21 -36 -75 -63 -100 -49 -9 5 -24 9 -34 9 -9 0 -36 10 -60 22
-33 16 -46 30 -55 57 -6 20 -25 67 -41 105 -16 37 -32 80 -34 94 -3 14 -8 30
-12 36 -11 18 -1 79 19 120 10 22 19 45 19 52 0 7 10 28 23 46 54 80 199 389
203 431 1 23 10 69 19 102 9 33 20 74 25 90 8 31 24 70 39 95 5 8 17 32 27 53
11 21 27 47 36 57 10 11 18 24 18 30 0 5 4 10 8 10 5 0 26 16 48 36 21 19 65
54 97 76 31 23 57 45 57 50 0 5 5 8 12 6 6 -2 38 22 71 54 33 32 65 58 72 58
7 0 18 7 25 15 7 8 16 12 21 10 10 -7 28 25 28 51 1 32 30 178 41 199 5 11 11
55 12 97 l3 77 25 -27 c14 -15 36 -36 50 -47 25 -20 85 -127 95 -168 9 -42 24
-112 25 -117 0 -11 70 -42 82 -37 8 2 32 -8 53 -24 51 -37 76 -53 151 -102 94
-60 192 -208 298 -447 45 -104 100 -212 149 -292 29 -48 141 -208 161 -230 9
-10 16 -20 16 -23 0 -3 9 -16 21 -28 12 -12 33 -38 47 -57 36 -47 134 -140
149 -140 7 0 16 -6 20 -14 4 -8 25 -24 46 -36 20 -12 37 -26 37 -31 0 -4 7 -6
15 -3 8 4 15 1 15 -4 0 -13 69 -34 82 -26 4 3 11 -2 14 -10 3 -9 15 -16 25
-16 19 0 23 -8 20 -45 -2 -18 34 -64 49 -64 3 0 28 -10 55 -22 28 -13 58 -24
69 -26 10 -2 33 -10 50 -18 17 -7 60 -17 96 -20 36 -3 79 -8 95 -11 65 -11
193 -21 243 -19 28 1 52 -1 52 -4 0 -13 -87 -111 -125 -141 -22 -17 -49 -41
-60 -53 -11 -12 -42 -40 -70 -62 -27 -22 -56 -45 -63 -52 -7 -7 -17 -13 -22
-13 -5 0 -16 -7 -24 -16 -22 -22 -20 -76 4 -102 11 -12 20 -30 20 -41 0 -11 5
-23 11 -26 5 -4 21 -30 35 -58 31 -66 83 -160 92 -167 4 -3 13 -18 21 -35 8
-16 21 -46 30 -65 9 -19 19 -37 22 -40 3 -3 18 -32 33 -65 15 -33 34 -67 42
-76 14 -15 12 -19 -18 -37 -18 -11 -59 -28 -91 -37 -71 -20 -95 -44 -89 -85 5
-34 39 -65 56 -51 6 5 27 12 46 16 19 4 42 14 52 22 9 8 22 16 30 17 7 1 29
11 48 21 19 10 42 19 50 20 8 1 23 2 32 3 9 1 21 14 26 30 7 22 3 39 -26 97
-20 39 -38 72 -41 75 -3 3 -19 32 -36 65 -16 33 -32 62 -35 65 -3 3 -20 35
-39 72 -18 38 -37 68 -42 68 -5 0 -9 11 -9 24 0 13 -6 29 -14 35 -13 11 -49
81 -82 158 -14 32 -13 34 18 60 18 16 53 48 78 73 26 25 75 71 111 103 35 32
80 80 99 107 19 27 41 50 48 50 6 0 12 11 12 24 0 27 36 44 100 48 19 1 40 4
45 7 6 3 12 6 15 6 43 6 69 37 50 60 -6 7 -7 15 -3 18 7 4 118 10 168 9 73 -2
275 -2 282 0 4 1 23 -6 41 -15 17 -10 32 -15 32 -12 0 11 64 -30 97 -62 18
-17 35 -43 39 -57 3 -14 10 -26 15 -26 5 0 9 -4 9 -9 0 -5 8 -26 17 -47 19
-45 19 -46 29 -134 8 -67 8 -155 -1 -225 -2 -22 -7 -83 -10 -135 -3 -52 -8
-120 -12 -150 -4 -30 -8 -59 -8 -65 -1 -5 -9 -43 -19 -83 -10 -40 -16 -75 -13
-78 3 -3 0 -26 -7 -52 -15 -62 -10 -87 20 -101 57 -26 83 -1 90 85 7 95 13
134 34 234 5 25 14 110 20 190 6 80 13 163 15 185 6 58 7 146 2 175 -2 14 -7
52 -11 85 l-7 60 41 -45 c23 -25 58 -61 76 -81 19 -19 34 -39 34 -43 0 -5 11
-31 25 -59 15 -29 30 -82 35 -124 5 -41 13 -79 17 -86 9 -16 12 -392 2 -408
-11 -19 21 -69 46 -70 34 -2 47 2 68 22 20 18 20 23 10 85 -7 37 -12 115 -12
175 1 99 -5 177 -17 254 -6 38 -23 158 -24 166 0 3 -8 14 -18 25 -10 10 -24
35 -32 55 -16 38 -71 110 -129 167 -33 33 -119 82 -143 82 -7 0 -40 33 -73 74
-58 72 -135 133 -185 149 -24 7 -104 19 -125 19 -5 -1 -86 -4 -180 -7 -93 -3
-190 -3 -214 0 l-43 7 7 81 c4 45 9 100 11 122 1 22 10 128 18 235 9 107 16
206 16 220 0 25 -9 360 -10 371 0 3 -8 15 -18 27 -16 18 -28 21 -80 18 -35 -2
-65 -6 -69 -10 -3 -3 -14 1 -24 10 -15 14 -89 36 -159 49 -14 2 -38 8 -55 13
-16 5 -35 7 -41 5 -6 -2 -23 1 -38 6 -25 10 -26 13 -21 68 11 107 16 145 22
140 3 -3 26 8 53 24 26 16 51 29 56 29 16 0 101 85 108 108 4 12 11 22 15 22
4 0 16 26 26 58 11 31 22 62 26 67 4 6 11 39 15 75 4 36 10 75 15 86 4 12 5
25 1 29 -4 4 -8 19 -8 33 -3 68 -19 145 -41 202 -4 8 -7 17 -8 20 -26 74 -65
147 -99 183 -20 21 -36 42 -36 47 0 5 -12 16 -27 24 -16 8 -37 23 -48 33 -31
28 -151 83 -182 83 -10 0 -23 4 -28 9 -11 10 -135 19 -135 10z m90 -122 c0 4
5 2 12 -5 7 -7 26 -12 43 -12 27 0 57 -14 173 -76 17 -10 32 -26 32 -36 0 -9
8 -22 18 -27 19 -10 86 -138 103 -196 21 -67 28 -162 18 -216 -6 -30 -10 -65
-10 -79 2 -100 -115 -233 -225 -258 -68 -15 -173 12 -272 70 -72 41 -169 178
-179 251 -14 100 -13 276 2 347 9 41 19 87 22 102 6 34 58 89 104 114 42 22
107 33 137 22 12 -4 22 -4 22 -1z m-2203 -723 c12 -8 29 -14 37 -14 33 0 50
-86 22 -112 -8 -7 -37 -33 -65 -57 -28 -24 -48 -48 -45 -53 3 -4 0 -8 -5 -8
-11 0 -14 16 -12 60 4 90 2 129 -8 148 -6 11 -11 30 -11 42 0 19 4 21 33 15
17 -4 42 -13 54 -21z m2078 -560 c52 -4 86 -9 163 -27 34 -9 62 -12 62 -9 0 3
5 1 10 -4 6 -6 31 -9 55 -6 25 2 45 0 45 -5 0 -4 12 -9 28 -9 25 -1 116 -22
205 -47 43 -12 55 -24 33 -33 -8 -3 -40 -30 -71 -60 -30 -30 -59 -54 -64 -54
-4 0 -19 -10 -33 -22 -13 -13 -60 -54 -104 -93 -43 -38 -86 -76 -95 -85 -95
-91 -110 -98 -204 -89 -44 4 -90 8 -101 8 -15 1 -24 10 -29 29 -10 41 -7 456
4 485 10 26 29 38 46 29 5 -3 27 -7 50 -8z m-209 -276 c-3 -101 -5 -192 -5
-204 -1 -20 -6 -20 -143 -19 -79 0 -163 -3 -186 -7 -24 -4 -74 -8 -110 -9
-132 -2 -124 -5 -160 60 l-32 59 53 25 c44 21 148 52 207 62 8 1 22 5 31 9 8
4 35 8 60 10 24 2 52 7 62 11 10 4 33 5 52 2 31 -5 35 -3 35 17 0 29 33 72 71
91 16 9 29 21 29 27 0 9 28 45 37 47 2 1 1 -81 -1 -181z m921 -6 c5 -100 3
-298 -3 -337 -10 -76 -25 -275 -31 -422 -6 -162 -6 -163 -29 -164 -13 -1 -27
-2 -31 -3 -87 -23 -314 -23 -463 0 -14 2 -50 6 -80 10 -30 3 -59 9 -65 13 -5
4 -30 13 -55 21 -57 17 -72 35 -64 76 3 18 1 35 -5 38 -5 4 -7 14 -4 23 4 9 7
51 8 92 5 328 3 303 28 295 12 -4 54 -8 92 -9 39 -1 80 -7 92 -13 41 -22 61
-13 142 66 175 170 243 232 252 232 5 0 17 8 27 18 81 77 174 153 181 146 3
-3 6 -39 8 -82z m-985 -333 c67 0 70 -4 62 -94 -2 -33 -6 -109 -7 -168 -2 -91
-4 -107 -17 -104 -9 2 -22 -3 -29 -11 -13 -13 -16 -13 -26 1 -6 9 -30 23 -53
32 -23 10 -42 21 -42 26 0 5 -9 9 -19 9 -11 0 -22 9 -26 20 -3 11 -9 19 -13
19 -19 -3 -31 3 -58 30 -99 97 -194 220 -172 222 52 5 84 7 162 12 49 4 91 9
94 12 3 2 24 2 46 -1 23 -3 67 -5 98 -5z"/>
<path d="M890 2611 c-76 -35 -94 -97 -36 -125 40 -19 47 -20 44 -4 -2 6 16 24
40 40 29 20 42 36 42 52 0 43 -41 60 -90 37z"/>
<path d="M388 1688 c-51 -80 -53 -188 -3 -188 33 0 56 35 59 89 1 30 7 56 13
58 13 5 5 45 -11 55 -20 14 -44 8 -58 -14z"/>
</g>
</svg>
