<?xml version="1.0" standalone="no"?>
<!DOCTYPE svg PUBLIC "-//W3C//DTD SVG 20010904//EN"
 "http://www.w3.org/TR/2001/REC-SVG-20010904/DTD/svg10.dtd">
<svg version="1.0" xmlns="http://www.w3.org/2000/svg"
 width="441.000000pt" height="443.000000pt" viewBox="0 0 441.000000 443.000000"
 preserveAspectRatio="xMidYMid meet">
<metadata>
Created by potrace 1.16, written by Peter Selinger 2001-2019
</metadata>
<g transform="translate(0.000000,443.000000) scale(0.100000,-0.100000)"
fill="#000000" stroke="none">
<path d="M2565 4095 c-16 -7 -50 -21 -75 -31 -25 -10 -50 -24 -56 -31 -6 -7
-16 -13 -22 -13 -6 0 -15 -7 -19 -15 -5 -8 -28 -34 -51 -59 -23 -24 -50 -62
-60 -83 -27 -60 -53 -93 -71 -93 -10 0 -32 -11 -51 -25 -19 -14 -39 -25 -46
-25 -21 0 -102 69 -125 107 -42 69 -111 117 -188 129 -47 8 -85 -11 -97 -48
-4 -13 -23 -48 -42 -78 -33 -50 -36 -62 -39 -136 -1 -48 4 -108 13 -145 16
-64 43 -129 55 -129 3 0 17 -21 30 -47 13 -27 36 -66 51 -88 27 -39 48 -125
31 -125 -5 0 -17 -15 -27 -32 -19 -34 -92 -108 -107 -108 -11 0 -79 -85 -79
-99 0 -6 -4 -11 -9 -11 -9 0 -26 -72 -24 -100 8 -82 46 -168 90 -198 13 -9 43
-36 65 -59 27 -28 53 -45 77 -49 35 -7 61 -24 61 -41 0 -4 9 -19 20 -33 20
-26 27 -60 12 -60 -5 0 -22 -11 -38 -25 -16 -14 -43 -32 -61 -40 -18 -9 -35
-20 -38 -24 -8 -14 -26 -8 -103 32 -75 40 -93 41 -157 9 -43 -21 -132 -99
-265 -233 -123 -124 -140 -143 -140 -157 0 -5 -8 -16 -17 -23 -15 -13 -122
-170 -133 -196 -3 -7 -35 -43 -71 -80 -36 -38 -72 -80 -79 -93 -7 -13 -42 -55
-79 -92 -36 -38 -68 -74 -70 -80 -4 -13 -17 -28 -83 -98 -28 -30 -65 -75 -82
-100 -18 -25 -44 -58 -59 -74 -15 -16 -27 -35 -27 -43 0 -8 -10 -24 -23 -36
-13 -12 -26 -29 -29 -37 -3 -8 -21 -35 -39 -60 -18 -25 -34 -49 -35 -55 -16
-73 -25 -108 -37 -153 -22 -75 -12 -190 21 -262 14 -30 32 -61 39 -68 7 -7 18
-21 25 -30 41 -54 212 -162 256 -162 7 0 11 -3 9 -7 -3 -5 10 -9 29 -9 19 -1
55 -3 80 -4 37 -1 57 5 107 36 66 40 86 59 118 111 11 18 24 33 28 33 4 0 7 8
8 18 4 44 15 111 25 155 10 45 25 64 239 276 126 125 229 233 229 239 0 7 4
12 9 12 14 0 175 165 183 188 1 4 19 24 39 45 21 20 59 63 86 94 26 32 56 66
66 77 9 11 17 23 17 27 0 4 14 22 32 40 17 19 44 53 59 77 15 23 38 54 53 68
31 31 66 102 66 133 0 22 2 22 88 17 76 -4 134 2 195 20 10 3 16 2 15 -3 -4
-15 15 -58 31 -70 10 -7 22 -8 32 -2 20 10 37 -21 74 -136 35 -112 94 -174
168 -180 38 -3 45 0 90 46 26 27 51 49 55 49 4 0 18 10 32 23 14 13 35 26 48
29 26 7 54 -24 142 -157 54 -81 79 -107 92 -99 5 3 8 0 8 -5 0 -6 8 -11 18
-11 10 0 23 -5 30 -12 7 -7 12 -8 12 -4 0 5 6 3 13 -3 8 -6 49 -16 91 -22 144
-22 217 12 251 116 9 28 22 61 29 75 8 14 17 41 21 60 10 52 81 193 113 226
36 37 95 76 151 98 40 16 94 51 132 86 30 28 48 65 63 128 13 55 13 67 0 98
-8 19 -12 39 -9 43 2 5 -2 14 -10 21 -8 7 -15 18 -15 25 0 7 -7 18 -15 25 -8
6 -14 15 -13 18 3 15 -41 113 -55 123 -11 8 -40 183 -38 231 1 21 17 65 37
103 20 37 42 93 48 126 13 62 9 77 -51 179 -29 50 -118 137 -164 160 -21 11
-39 25 -39 31 0 6 -4 8 -9 4 -5 -3 -12 -1 -16 5 -3 5 -17 10 -30 10 -13 0 -27
5 -30 10 -3 6 -15 10 -25 10 -10 0 -25 7 -34 15 -8 8 -19 15 -25 15 -14 0 -14
17 3 65 8 22 16 56 19 75 18 113 31 177 57 282 32 129 31 174 -4 188 -27 10
-49 -2 -94 -52 -45 -50 -101 -103 -197 -183 -68 -58 -71 -58 -98 -31 -23 23
-40 55 -67 126 -16 40 -26 50 -56 50 -12 0 -28 10 -36 22 -14 21 -17 21 -64 8
-61 -16 -104 -37 -127 -61 -26 -28 -78 -24 -100 7 -11 14 -20 31 -21 37 -2 7
-8 30 -14 52 -6 22 -14 56 -17 76 -4 27 -19 49 -55 83 -53 50 -60 52 -105 31z
m78 -84 c15 -16 27 -37 27 -48 0 -17 15 -69 45 -153 16 -45 49 -68 106 -75 37
-4 53 0 80 18 37 25 102 57 116 57 4 0 27 -10 51 -22 28 -15 42 -30 42 -43 0
-11 9 -31 20 -45 11 -14 20 -33 20 -42 0 -10 4 -18 9 -18 5 0 16 -12 26 -26
17 -26 17 -27 -26 -63 -24 -20 -97 -91 -164 -157 -66 -67 -149 -145 -185 -174
-36 -29 -117 -105 -181 -169 -127 -128 -270 -257 -531 -481 -23 -19 -64 -56
-91 -81 l-51 -47 -20 27 c-46 58 -86 91 -112 91 -16 0 -39 13 -61 35 -19 19
-37 35 -39 35 -12 0 -77 77 -89 107 -19 46 -19 78 1 138 18 53 38 76 82 99 30
16 63 52 121 131 31 43 33 52 29 106 -3 46 -11 68 -38 105 -18 26 -33 53 -33
60 0 8 -3 14 -7 14 -4 0 -24 26 -44 57 -47 73 -84 226 -62 261 4 6 5 16 2 20
-3 5 6 27 20 51 13 24 24 48 24 55 1 42 59 64 117 45 29 -9 103 -84 103 -103
0 -15 76 -76 126 -101 l52 -26 48 30 c26 17 53 31 60 31 19 0 73 61 96 109 38
82 89 140 143 165 105 48 120 55 130 55 6 1 22 -12 38 -28z m873 -283 c-8 -28
-33 -150 -48 -238 -6 -36 -21 -93 -34 -128 -13 -34 -24 -78 -24 -98 0 -19 -5
-44 -11 -56 -6 -11 -13 -30 -15 -43 -2 -12 -11 -36 -19 -51 -8 -16 -15 -38
-15 -49 0 -11 -7 -31 -16 -44 -9 -12 -34 -58 -55 -101 -21 -43 -43 -81 -48
-85 -6 -3 -11 -13 -11 -22 0 -8 -20 -44 -45 -79 -25 -34 -45 -66 -45 -69 0 -4
-12 -19 -27 -35 -16 -15 -44 -49 -63 -75 -19 -26 -46 -60 -60 -76 -39 -43 -50
-58 -50 -63 0 -10 -101 -106 -111 -106 -5 0 -9 -6 -9 -14 0 -22 -188 -206
-210 -206 -5 0 -26 -16 -47 -35 -21 -19 -41 -35 -45 -35 -4 0 -31 -11 -60 -24
-74 -33 -91 -39 -105 -37 -7 1 -13 -2 -13 -7 0 -22 -216 -39 -237 -18 -3 3
-12 1 -18 -4 -7 -6 -33 -12 -58 -15 -39 -4 -49 -1 -74 23 -37 36 -93 105 -138
170 l-35 52 27 30 c14 16 32 30 39 30 7 0 14 3 16 8 2 4 26 25 53 46 28 22 55
46 62 54 6 7 25 24 42 37 33 24 200 175 264 239 21 21 59 54 85 73 26 20 58
47 72 62 14 14 70 67 125 116 55 50 131 122 170 161 38 39 113 109 165 155 97
85 118 105 180 175 45 49 116 114 127 114 4 1 30 31 58 67 27 36 62 71 77 77
33 14 88 58 136 109 40 42 57 47 48 15z m34 -504 c53 -8 112 -29 155 -56 49
-31 155 -134 155 -151 0 -5 10 -22 21 -39 12 -16 22 -41 22 -54 0 -32 -30 -99
-62 -143 -23 -31 -26 -43 -26 -130 0 -149 21 -255 55 -276 5 -3 14 -25 20 -48
7 -23 22 -58 35 -77 31 -46 49 -120 40 -167 -5 -28 -21 -52 -62 -90 -30 -29
-62 -53 -71 -53 -10 0 -39 -14 -67 -30 -27 -16 -63 -36 -80 -46 -28 -15 -115
-135 -131 -180 -4 -10 -17 -41 -29 -69 -12 -27 -30 -78 -40 -112 -10 -36 -22
-60 -28 -56 -6 4 -8 0 -5 -9 4 -8 -2 -29 -11 -45 -23 -38 -79 -55 -141 -43
-25 4 -48 6 -51 4 -4 -2 -22 4 -40 13 -19 9 -44 18 -56 19 -30 3 -75 49 -113
117 -18 31 -40 63 -50 70 -9 6 -24 26 -34 44 -20 40 -40 51 -91 51 -41 0 -41
0 -140 -96 -28 -27 -61 -51 -74 -55 -36 -9 -86 34 -107 91 -17 51 -25 71 -43
115 -6 15 -11 35 -11 43 0 8 -11 27 -25 42 -14 15 -25 33 -25 40 0 8 -6 12
-13 9 -8 -3 -20 -1 -27 3 -9 6 1 12 31 20 24 7 51 19 61 27 9 8 22 16 30 17
29 6 68 26 68 35 0 5 8 12 19 16 10 3 30 16 44 29 15 14 37 31 49 40 45 30
228 201 228 212 0 3 12 21 28 39 97 114 112 134 196 250 36 50 70 95 76 102 5
7 10 15 10 18 0 3 13 23 29 43 16 20 39 61 51 90 12 28 26 52 31 52 7 0 77
135 86 165 1 6 11 35 22 65 11 30 20 63 21 73 0 9 4 25 9 35 5 9 12 25 15 35
4 11 11 15 18 11 7 -5 19 -9 28 -10z m-1962 -1001 c36 -23 42 -32 42 -70 0
-22 6 -36 20 -43 12 -6 40 -38 64 -70 24 -33 46 -56 50 -53 3 4 6 0 6 -8 0 -8
21 -36 47 -62 32 -34 46 -57 46 -76 0 -20 9 -34 29 -47 15 -10 28 -23 28 -29
-1 -17 -24 -52 -65 -97 -22 -24 -53 -63 -69 -87 -17 -23 -37 -48 -46 -54 -9
-7 -23 -23 -30 -37 -11 -21 -64 -85 -169 -202 -18 -20 -34 -40 -35 -45 0 -4
-16 -21 -35 -38 -19 -16 -53 -50 -75 -74 -56 -59 -262 -266 -377 -377 -52 -50
-102 -102 -113 -114 -30 -37 -53 -101 -60 -161 -3 -31 -11 -70 -18 -85 -14
-33 -73 -92 -105 -104 -25 -10 -131 -1 -139 11 -3 5 -18 9 -34 9 -19 0 -35 9
-48 25 -11 14 -23 25 -27 25 -17 0 -106 74 -123 103 -19 30 -36 97 -45 180 -5
40 17 143 36 166 6 7 12 20 13 28 2 9 16 35 33 59 17 23 31 47 31 52 0 6 6 17
12 24 7 7 40 47 72 88 33 41 67 82 76 92 10 9 28 33 41 54 13 21 30 46 39 54
31 33 60 70 60 77 0 4 22 28 48 53 41 39 84 91 150 180 7 10 38 44 67 76 30
33 55 64 55 71 0 6 15 29 33 52 55 69 97 130 97 141 0 12 177 185 232 227 21
15 40 36 43 45 7 19 71 56 98 57 10 1 30 -7 45 -16z"/>
<path d="M3139 3308 c-13 -5 -42 -28 -65 -51 -41 -42 -198 -197 -222 -220 -7
-6 -37 -35 -65 -63 -29 -28 -74 -65 -102 -82 -27 -17 -79 -63 -115 -103 -36
-39 -103 -108 -148 -154 -66 -64 -83 -88 -80 -106 5 -38 43 -37 76 3 56 68
268 288 277 288 14 0 135 99 174 143 40 44 86 87 93 87 4 0 8 8 8 18 1 9 33
42 72 72 39 30 77 61 84 67 7 7 23 17 36 22 19 7 24 17 25 48 2 42 -5 47 -48
31z"/>
<path d="M1365 1770 c-45 -17 -69 -58 -73 -123 -4 -56 -2 -65 22 -88 26 -26
98 -54 129 -50 9 1 17 -3 17 -10 0 -8 4 -8 16 2 9 7 26 15 37 16 28 4 51 34
77 99 l21 50 -20 47 c-13 30 -29 51 -45 57 -29 11 -152 11 -181 0z m109 -86
c18 -7 21 -36 6 -64 -8 -15 -15 -17 -33 -11 -24 9 -31 11 -47 11 -11 0 -13 30
-4 54 6 16 48 21 78 10z"/>
<path d="M760 1015 c-14 -8 -33 -12 -42 -9 -25 7 -85 -24 -108 -56 -13 -19
-21 -48 -23 -84 -2 -52 0 -58 28 -81 33 -27 106 -55 142 -55 21 0 42 8 83 32
8 5 23 11 33 14 9 4 17 15 17 26 0 11 5 29 12 41 34 61 5 147 -58 173 -41 17
-52 17 -84 -1z m51 -138 c-6 -15 -16 -28 -23 -28 -7 -1 -26 -3 -43 -5 -31 -3
-55 10 -55 32 0 8 7 14 15 14 8 0 32 9 52 20 31 16 40 18 51 7 9 -10 10 -20 3
-40z"/>
</g>
</svg>
