<?xml version="1.0" standalone="no"?>
<!DOCTYPE svg PUBLIC "-//W3C//DTD SVG 20010904//EN"
 "http://www.w3.org/TR/2001/REC-SVG-20010904/DTD/svg10.dtd">
<svg version="1.0" xmlns="http://www.w3.org/2000/svg"
 width="543.000000pt" height="487.000000pt" viewBox="0 0 543.000000 487.000000"
 preserveAspectRatio="xMidYMid meet">
<metadata>
Created by potrace 1.16, written by Peter Selinger 2001-2019
</metadata>
<g transform="translate(0.000000,487.000000) scale(0.100000,-0.100000)"
fill="#000000" stroke="none">
<path d="M4810 4563 c-115 -14 -302 -53 -310 -64 -3 -4 -32 -15 -64 -24 -128
-37 -223 -90 -321 -179 -27 -25 -56 -46 -62 -46 -7 0 -13 -4 -13 -8 0 -4 -13
-16 -30 -25 -16 -10 -30 -24 -30 -31 0 -7 -13 -22 -29 -33 -31 -23 -63 -78
-81 -139 -18 -63 -41 -148 -45 -166 -5 -21 -33 -66 -63 -98 -13 -14 -30 -42
-39 -62 -8 -21 -19 -38 -23 -38 -5 0 -11 -9 -15 -19 -3 -11 -20 -35 -38 -55
-54 -59 -67 -76 -59 -76 4 0 2 -4 -3 -8 -6 -4 -26 -27 -45 -52 -19 -25 -40
-49 -45 -55 -6 -5 -42 -46 -81 -90 -38 -44 -77 -89 -88 -100 -37 -40 -49 -66
-51 -111 -1 -40 3 -50 34 -82 20 -21 45 -38 56 -40 11 -2 40 -15 64 -29 l44
-25 -6 -82 c-4 -44 -3 -87 2 -94 9 -15 102 -42 143 -42 15 0 30 -5 33 -11 4
-6 13 -8 21 -5 7 3 16 1 19 -5 4 -5 10 -7 15 -4 5 3 11 1 14 -4 4 -5 26 -19
50 -30 24 -12 54 -31 67 -42 13 -12 36 -31 50 -43 14 -12 37 -50 51 -85 22
-54 24 -69 16 -114 -10 -59 -48 -143 -90 -202 -29 -40 -73 -66 -118 -71 -60
-6 -160 -28 -160 -35 0 -4 -8 -10 -17 -14 -10 -3 -26 -17 -36 -31 -18 -24 -18
-26 -2 -45 15 -16 17 -31 11 -98 -4 -57 -2 -91 8 -120 15 -46 8 -106 -18 -146
-13 -19 -15 -37 -10 -75 6 -43 13 -56 59 -99 29 -27 57 -50 62 -52 5 -2 51
-30 104 -61 92 -56 161 -80 259 -92 108 -14 130 -19 150 -38 19 -17 21 -27 16
-61 -4 -23 -9 -62 -12 -87 -5 -46 -48 -150 -67 -162 -13 -8 -70 2 -77 13 -7 9
-60 5 -60 -4 0 -4 -9 -24 -20 -44 -11 -21 -20 -42 -20 -48 0 -5 -19 -48 -41
-95 -25 -51 -45 -111 -51 -150 -5 -36 -14 -74 -19 -85 -4 -11 -37 -108 -73
-215 -71 -213 -72 -230 -13 -230 25 0 36 7 49 30 9 16 13 32 9 35 -5 2 16 78
45 167 30 90 54 170 54 178 0 9 4 20 9 25 6 6 14 37 20 71 5 34 30 104 58 163
l48 103 50 -6 c28 -2 64 -8 80 -13 42 -12 586 -7 665 6 36 6 92 15 125 20 84
13 172 39 209 62 17 10 39 19 49 19 10 0 20 7 23 15 4 8 13 15 20 15 21 0 88
35 103 54 8 9 21 16 31 16 20 0 43 45 35 70 -6 19 -61 44 -76 34 -5 -3 -9 -12
-9 -19 0 -16 -87 -84 -106 -85 -7 0 -43 -16 -80 -35 -38 -19 -76 -35 -84 -35
-8 0 -40 -9 -70 -20 -30 -11 -78 -19 -106 -20 -28 0 -74 -7 -103 -16 -33 -9
-64 -13 -80 -8 -14 4 -30 6 -36 5 -38 -9 -200 -11 -225 -3 -16 6 -32 7 -34 3
-3 -4 -15 -7 -28 -5 -13 1 -53 3 -89 3 l-65 1 18 88 c10 48 20 103 22 122 2
19 7 54 11 78 l8 43 51 -2 c70 -2 144 10 190 32 21 10 43 16 47 13 5 -3 9 -1
9 4 0 12 49 28 92 31 9 0 24 8 32 17 9 8 20 12 26 9 19 -11 11 61 -8 78 -24
22 -29 21 -82 -7 -51 -27 -162 -72 -201 -81 -33 -8 -178 -13 -177 -6 1 4 -2
14 -6 23 -7 14 -24 17 -114 17 -135 0 -245 26 -316 75 -28 19 -64 40 -81 48
-16 7 -51 34 -77 61 -47 47 -49 52 -28 102 19 44 30 146 18 155 -9 7 -13 215
-4 228 9 14 102 35 131 29 14 -2 30 2 36 9 6 8 20 14 30 14 10 0 31 12 47 27
37 35 102 128 102 147 0 8 12 38 28 67 23 46 27 66 27 134 0 70 -5 89 -33 147
-24 50 -44 75 -75 97 -24 16 -49 36 -56 45 -8 9 -21 16 -30 16 -9 0 -40 16
-69 36 -56 38 -61 39 -161 54 -35 5 -65 11 -67 13 -3 2 0 16 6 31 13 35 13
126 0 126 -5 0 -10 7 -10 15 0 8 -6 15 -13 15 -7 0 -23 9 -34 19 -12 11 -24
17 -27 13 -4 -3 -10 -1 -15 6 -4 6 -25 18 -46 26 -37 12 -40 16 -38 47 1 21
10 41 25 54 13 11 30 33 38 49 8 16 22 31 31 33 8 3 23 16 31 31 9 15 32 43
50 62 19 19 48 53 64 75 16 22 35 46 42 53 6 8 26 35 44 60 18 26 36 52 40 57
5 6 20 24 33 40 14 17 25 35 25 41 0 6 14 29 32 52 l32 41 53 -50 c29 -27 67
-57 85 -65 18 -8 48 -23 66 -34 18 -11 36 -19 40 -18 16 4 152 -33 180 -49 32
-19 39 -39 48 -136 6 -73 10 -80 58 -115 34 -25 55 -32 90 -32 48 0 54 -7 35
-41 -6 -11 -12 -28 -14 -37 -1 -9 -15 -60 -29 -112 -26 -96 -34 -202 -16 -230
7 -11 29 -15 87 -15 59 -1 85 -6 107 -20 37 -25 53 -27 60 -8 3 8 10 12 15 9
4 -3 11 14 14 38 12 88 48 121 114 104 39 -10 103 -73 103 -101 0 -63 -15
-100 -57 -145 -24 -26 -46 -57 -49 -68 -7 -29 1 -97 20 -159 27 -90 30 -139
11 -176 -24 -46 -83 -102 -100 -95 -8 3 -17 1 -20 -5 -4 -5 -11 -7 -16 -3 -12
7 -49 -24 -49 -42 0 -21 45 -61 67 -59 18 1 37 11 128 68 11 6 23 16 26 21 9
11 29 -1 29 -18 0 -7 9 -21 19 -30 11 -10 22 -30 26 -44 16 -63 60 -140 95
-163 77 -53 126 -79 148 -79 12 0 22 -3 22 -7 0 -5 17 -9 38 -11 32 -2 41 2
52 23 18 33 0 74 -32 76 -55 4 -64 5 -90 13 -16 4 -28 12 -28 17 0 5 -7 9 -16
9 -8 0 -12 5 -9 10 3 6 -1 10 -9 10 -18 0 -96 99 -96 122 0 8 -14 41 -30 71
-17 31 -29 62 -28 69 2 7 -7 14 -19 16 -25 4 -30 17 -12 28 6 3 9 15 6 25 -3
11 -2 19 3 19 4 0 1 28 -7 63 -8 34 -17 78 -20 97 -3 19 -10 41 -15 47 -16 19
0 80 25 100 13 10 31 33 40 52 23 45 32 160 17 205 -11 33 -75 106 -93 106 -5
0 -20 9 -33 19 -14 11 -33 17 -44 14 -11 -3 -20 -1 -20 4 0 5 -10 9 -22 7 -13
-1 -33 -3 -45 -3 -13 -1 -22 -4 -20 -9 1 -4 -15 -25 -36 -46 -21 -21 -42 -49
-47 -62 -9 -22 -14 -24 -65 -21 -30 2 -60 8 -65 13 -11 11 8 113 28 150 6 12
13 31 15 45 2 13 12 50 21 82 10 32 15 69 12 82 -9 34 -65 65 -118 65 -58 0
-74 18 -83 95 -4 33 -9 75 -11 94 -7 53 -70 92 -197 122 -150 36 -247 97 -268
170 -13 41 2 139 28 189 7 14 13 29 13 33 0 18 118 145 150 162 14 7 52 39 85
70 55 52 124 93 185 110 14 4 30 11 35 15 6 5 37 16 70 25 33 9 82 23 110 31
27 8 77 17 110 20 33 3 85 9 115 13 30 5 71 6 90 4 48 -6 76 22 59 60 -15 33
-40 36 -169 20z"/>
<path d="M3417 4339 c6 -6 27 -14 48 -19 48 -11 32 5 -19 19 -27 7 -36 7 -29
0z"/>
<path d="M3857 3369 c-12 -7 -17 -21 -15 -45 1 -19 5 -34 8 -34 4 0 12 -11 18
-25 6 -13 23 -27 37 -31 14 -3 25 -11 25 -17 0 -6 2 -8 6 -5 3 3 21 2 40 -2
18 -4 34 -5 34 -1 0 4 11 13 25 19 14 6 25 16 25 22 0 6 9 20 20 32 20 21 18
31 -13 72 -12 16 -17 17 -38 6 -31 -17 -49 -36 -49 -51 0 -17 -28 9 -46 43
-15 30 -44 36 -77 17z"/>
<path d="M1950 2574 c-30 -8 -77 -21 -105 -29 -27 -8 -74 -16 -102 -17 -29 -2
-53 -5 -53 -8 0 -3 -8 -6 -17 -6 -88 -4 -264 -57 -365 -112 -60 -33 -68 -30
-68 24 0 32 -33 51 -100 58 -30 3 -95 10 -145 16 -49 6 -139 15 -200 20 -60 6
-166 17 -235 26 -184 22 -383 33 -398 21 -20 -16 -14 -60 12 -79 21 -15 34
-16 111 -7 48 5 97 7 108 3 26 -8 124 -23 192 -29 70 -6 166 -16 190 -21 11
-2 54 -6 95 -10 41 -3 79 -8 83 -11 5 -3 47 -7 95 -10 47 -2 92 -9 98 -14 8
-7 10 -37 7 -97 -7 -131 -2 -227 14 -298 9 -38 8 -112 -2 -160 -4 -17 -21 -25
-87 -42 -81 -20 -120 -28 -203 -39 -22 -3 -47 -9 -56 -14 -9 -5 -43 -11 -75
-15 -33 -3 -72 -10 -89 -15 -16 -6 -48 -12 -70 -15 -52 -7 -198 -42 -233 -55
-43 -17 -174 -50 -212 -54 -58 -5 -84 -62 -44 -96 11 -9 30 -7 83 10 38 12 79
24 91 26 12 2 27 9 34 14 6 5 23 12 36 15 50 10 145 38 162 47 9 5 44 11 77
14 33 2 77 9 98 14 21 6 79 18 128 26 50 9 124 23 165 32 41 9 117 23 168 33
92 16 112 27 112 62 0 12 14 19 50 27 27 6 76 20 107 31 32 11 87 27 123 35
36 9 90 26 121 40 32 14 79 26 112 27 31 2 57 6 57 10 0 4 51 7 113 6 145 -1
327 33 367 67 8 8 27 16 42 20 15 4 29 14 32 22 4 8 12 13 19 10 6 -2 26 13
42 34 38 48 75 62 185 71 19 1 37 5 40 9 6 8 39 15 185 35 167 24 156 26 171
-27 14 -47 59 -100 104 -124 43 -22 163 -44 210 -38 61 7 233 121 223 148 -2
6 18 34 44 62 52 56 56 67 32 104 -9 13 -15 32 -13 41 3 20 -50 59 -123 93
-17 8 -35 20 -38 26 -4 6 -24 9 -44 8 -20 -2 -42 0 -48 4 -6 4 -51 5 -98 2
-103 -6 -150 -29 -219 -106 l-44 -49 -109 -5 c-59 -2 -149 -7 -199 -11 -67 -4
-93 -3 -99 6 -4 7 -10 8 -14 3 -3 -5 -37 -5 -77 0 -64 8 -75 13 -105 44 -90
94 -132 133 -144 133 -8 0 -16 4 -19 9 -5 8 -61 21 -116 27 -14 1 -45 5 -70 7
-25 3 -70 -1 -100 -9z m173 -86 c65 -10 152 -58 162 -89 4 -10 11 -19 16 -19
21 0 7 -18 -23 -31 -18 -7 -38 -20 -44 -28 -6 -8 -16 -11 -23 -7 -9 6 -7 12 6
23 16 13 16 13 -6 3 -24 -12 -43 0 -113 73 -22 24 -32 28 -57 22 -39 -8 -42
-14 -31 -56 7 -24 23 -43 55 -64 24 -16 45 -33 45 -37 1 -25 -147 -18 -190 10
-30 19 -45 37 -66 78 -12 25 -20 31 -37 26 -71 -17 -60 -66 39 -169 25 -27 38
-32 70 -31 21 1 46 -2 55 -6 23 -10 172 10 211 29 18 9 56 29 83 45 52 31 99
38 111 18 4 -6 2 -14 -4 -16 -8 -2 -9 -9 -3 -20 13 -25 2 -77 -19 -87 -10 -6
-47 -25 -81 -42 -34 -18 -65 -30 -70 -27 -5 3 -9 1 -9 -3 0 -17 -141 -37 -286
-39 -175 -3 -212 -8 -275 -40 -40 -20 -96 -37 -297 -91 -47 -13 -54 -13 -69 3
-9 9 -18 35 -20 58 -2 22 -7 59 -12 81 -21 99 -11 214 20 222 10 3 19 9 19 13
0 5 12 13 28 19 15 6 34 15 42 20 70 41 203 79 415 116 44 7 118 22 165 33 98
22 114 22 193 10z m1278 -48 c26 0 143 -80 132 -91 -5 -5 -22 -5 -38 -1 -17 4
-73 6 -125 3 -112 -5 -262 -2 -269 4 -8 9 76 83 100 88 13 3 60 4 104 1 44 -2
87 -4 96 -4z"/>
</g>
</svg>
