<?xml version="1.0" standalone="no"?>
<!DOCTYPE svg PUBLIC "-//W3C//DTD SVG 20010904//EN"
 "http://www.w3.org/TR/2001/REC-SVG-20010904/DTD/svg10.dtd">
<svg version="1.0" xmlns="http://www.w3.org/2000/svg"
 width="527.000000pt" height="457.000000pt" viewBox="0 0 527.000000 457.000000"
 preserveAspectRatio="xMidYMid meet">
<metadata>
Created by potrace 1.16, written by Peter Selinger 2001-2019
</metadata>
<g transform="translate(0.000000,457.000000) scale(0.100000,-0.100000)"
fill="#000000" stroke="none">
<path d="M4950 4339 c-19 -16 -51 -43 -70 -60 -53 -46 -112 -89 -121 -89 -5 0
-42 -32 -81 -70 -92 -89 -190 -139 -307 -155 -24 -4 -60 -13 -80 -20 -20 -8
-54 -16 -76 -19 -39 -5 -99 -30 -122 -50 -6 -6 -37 -29 -69 -51 -31 -22 -72
-52 -89 -67 -18 -16 -37 -28 -43 -28 -5 0 -33 -15 -60 -34 -43 -29 -61 -34
-125 -39 -41 -2 -80 -7 -85 -11 -6 -3 -12 -2 -14 4 -4 14 -160 -64 -230 -116
-93 -68 -158 -147 -158 -191 0 -8 -7 -38 -15 -66 -9 -29 -20 -65 -25 -82 -15
-50 -23 -153 -21 -253 1 -35 5 -45 21 -49 20 -5 26 -23 13 -37 -14 -14 -30
-84 -23 -97 4 -8 13 -40 20 -71 6 -32 16 -58 21 -58 5 0 9 -6 9 -14 0 -7 17
-26 38 -42 20 -15 40 -33 44 -40 4 -6 28 -17 53 -24 43 -12 45 -14 45 -50 0
-59 76 -156 132 -167 16 -3 28 -9 28 -13 0 -5 8 -6 18 -4 9 3 35 1 56 -3 30
-7 41 -15 46 -34 9 -30 59 -82 101 -103 17 -9 65 -23 107 -31 41 -9 82 -20 92
-25 10 -5 20 -7 23 -3 8 8 37 -23 37 -40 0 -7 15 -27 33 -43 32 -29 33 -29
163 -30 72 -1 136 -4 142 -8 6 -3 32 -1 58 6 36 10 54 22 76 52 31 43 80 140
85 171 7 38 9 120 3 160 -5 32 -2 45 13 60 67 69 153 214 163 275 27 162 45
216 78 226 34 11 75 44 175 144 155 155 186 203 160 252 -15 27 -26 22 -59
-24 -52 -74 -74 -101 -99 -123 -13 -11 -54 -48 -90 -82 -36 -35 -78 -68 -93
-75 -16 -7 -28 -16 -28 -20 0 -5 -6 -8 -14 -8 -16 0 -46 -42 -46 -65 0 -8 -4
-15 -9 -15 -5 0 -13 -33 -19 -72 -13 -90 -33 -168 -43 -168 -4 0 -10 -13 -14
-29 -8 -37 -54 -102 -114 -161 -35 -34 -67 -54 -133 -78 -48 -18 -97 -33 -110
-34 -77 -1 -96 -20 -71 -71 12 -24 19 -28 51 -26 20 2 42 5 47 9 6 3 45 21 88
39 75 33 78 33 93 15 16 -21 12 -116 -5 -122 -6 -2 -7 -10 -4 -18 3 -8 0 -14
-6 -14 -6 0 -10 -3 -9 -7 3 -14 -29 -78 -46 -92 -12 -10 -38 -13 -89 -11 -94
4 -123 4 -175 0 -53 -4 -82 22 -101 93 -8 26 -17 47 -21 47 -16 0 -17 54 -3
107 14 54 34 93 60 121 7 7 13 18 13 23 0 10 64 102 93 134 20 22 21 94 2 107
-28 20 -52 8 -64 -33 -7 -23 -38 -82 -69 -130 -72 -112 -101 -168 -101 -196
-1 -12 -11 -31 -22 -42 -18 -17 -21 -27 -15 -62 6 -39 6 -41 -16 -36 -13 3
-41 9 -63 13 -52 9 -88 28 -120 61 -36 39 -36 138 0 215 14 29 25 59 25 65 0
7 14 42 30 78 33 72 40 135 15 135 -8 0 -18 1 -22 1 -11 2 -41 -53 -42 -77 -1
-11 -4 -24 -8 -27 -3 -4 -16 -38 -29 -77 -12 -38 -29 -76 -38 -85 -11 -11 -16
-34 -16 -72 l0 -55 -51 6 c-66 8 -100 26 -138 75 -34 42 -34 66 -5 121 7 14
21 51 29 82 9 31 29 73 45 94 17 20 30 40 30 44 0 8 60 48 93 62 22 10 22 20
-3 41 -33 28 -70 21 -117 -24 -24 -22 -43 -46 -43 -54 0 -8 -4 -15 -10 -15 -5
0 -10 -6 -10 -13 0 -8 -8 -22 -19 -31 -10 -9 -21 -34 -24 -56 -5 -41 -34 -89
-54 -90 -16 0 -75 33 -107 61 -28 24 -49 78 -48 119 0 15 17 53 36 86 20 32
36 66 36 75 0 9 8 27 18 40 10 13 26 43 36 67 11 23 22 42 27 42 4 0 15 25 24
55 10 30 21 55 25 55 11 0 -1 54 -14 62 -33 22 -49 4 -63 -66 -2 -11 -8 -25
-15 -33 -14 -17 -39 -62 -75 -135 -15 -32 -31 -58 -35 -58 -5 0 -7 3 -6 8 1 4
-4 19 -10 33 -11 27 -8 70 8 124 5 17 12 46 15 65 3 19 10 39 16 45 5 5 9 19
9 32 0 37 30 100 64 136 32 34 158 114 211 134 45 17 105 25 105 14 0 -5 -18
-24 -40 -41 -39 -31 -48 -56 -34 -94 11 -29 38 -17 102 45 39 39 68 59 77 55
9 -3 15 0 15 9 0 15 49 65 63 65 8 0 68 42 100 71 9 9 30 22 45 30 32 17 37
20 82 57 66 55 88 63 330 127 58 15 113 32 123 37 10 5 27 11 39 13 17 4 48
24 106 70 7 5 30 27 50 47 20 20 62 53 92 74 30 20 90 66 133 102 62 53 77 70
77 93 0 45 -28 52 -70 18z"/>
<path d="M444 4295 c-4 -8 -3 -30 0 -49 5 -26 15 -38 43 -51 20 -10 69 -50
108 -89 103 -103 219 -206 257 -230 18 -11 38 -26 43 -32 6 -7 30 -23 55 -35
25 -12 61 -35 81 -51 20 -15 42 -28 48 -28 5 0 25 -6 43 -14 42 -18 127 -46
153 -50 32 -4 349 -78 415 -96 66 -18 145 -29 257 -35 116 -7 215 -27 221 -45
2 -5 9 -10 16 -10 7 0 24 -12 38 -27 14 -16 40 -39 57 -53 101 -80 119 -184
117 -675 -1 -181 -4 -335 -8 -341 -4 -6 -10 -30 -14 -52 -10 -66 -41 -92 -140
-118 -30 -8 -56 -14 -58 -14 -2 0 -3 51 -4 113 -1 167 -25 238 -71 208 -16
-10 -24 -70 -11 -86 13 -17 6 -317 -9 -347 -14 -27 -15 -27 -138 -44 l-53 -7
5 79 c3 44 8 109 11 146 3 42 1 69 -6 73 -6 3 -8 10 -5 16 9 14 -28 109 -42
109 -7 0 -20 -12 -29 -26 -15 -22 -16 -32 -5 -74 14 -55 8 -260 -9 -305 -6
-14 -10 -39 -10 -55 0 -31 -28 -99 -45 -113 -8 -6 -77 -4 -95 3 -3 1 -13 2
-22 1 -26 -3 -79 40 -73 59 5 16 10 84 20 277 5 93 -3 132 -30 159 -12 13 -17
12 -35 -6 -12 -12 -19 -28 -16 -37 8 -19 8 -171 1 -288 -6 -108 -25 -150 -96
-220 -43 -42 -54 -48 -88 -47 -22 1 -51 6 -66 12 -14 5 -35 10 -46 10 -26 0
-138 72 -168 108 -22 27 -65 131 -57 139 2 2 35 -12 74 -32 39 -19 75 -35 79
-35 5 1 18 9 30 19 20 16 21 26 18 96 -2 43 0 88 4 99 12 31 4 42 -28 40 -47
-3 -52 -11 -49 -76 3 -72 -4 -78 -58 -47 -22 12 -50 28 -64 35 -86 45 -165
112 -201 171 -78 128 -115 250 -118 393 -2 103 -8 131 -35 159 -14 15 -26 30
-26 34 0 5 -28 36 -62 70 -81 82 -151 166 -179 216 -29 52 -54 54 -68 4 -9
-32 -7 -40 15 -67 14 -17 52 -64 85 -104 32 -41 56 -79 53 -84 -4 -6 -1 -9 7
-6 7 2 22 -6 34 -18 11 -13 35 -39 53 -59 47 -52 54 -75 62 -200 7 -103 26
-185 57 -245 7 -14 13 -30 13 -36 0 -6 14 -30 30 -52 17 -23 30 -44 30 -47 0
-17 101 -135 116 -135 2 0 16 -7 29 -16 20 -13 22 -19 13 -38 -8 -18 -5 -32
11 -65 12 -23 19 -46 16 -50 -2 -5 2 -11 10 -15 8 -3 15 -17 15 -31 0 -14 4
-25 9 -25 5 0 14 -13 21 -29 6 -16 18 -32 26 -35 8 -3 14 -12 14 -21 0 -8 3
-14 8 -14 17 3 29 -2 48 -19 21 -19 76 -56 84 -57 3 0 10 -3 15 -6 10 -6 69
-19 112 -24 12 -2 26 -6 31 -9 32 -19 170 71 193 126 13 32 25 35 49 13 18
-16 134 -45 182 -45 26 0 100 53 96 68 -1 4 4 24 12 44 13 36 48 57 71 42 5
-3 15 -1 22 4 7 6 23 10 37 10 26 1 56 5 109 17 36 8 57 41 67 105 6 35 10 41
27 36 10 -2 46 3 78 13 32 10 60 17 63 14 2 -3 13 4 24 14 10 10 33 29 51 43
17 14 31 32 31 40 1 8 8 33 16 55 9 22 18 51 20 65 7 37 7 646 0 705 -22 184
-28 221 -42 263 -20 59 -31 74 -101 148 -116 123 -158 140 -358 148 -66 3
-134 10 -151 16 -17 6 -35 10 -40 8 -11 -3 -62 7 -194 38 -58 13 -145 34 -195
45 -49 12 -97 24 -105 27 -8 3 -19 6 -25 6 -31 5 -125 41 -160 61 -22 14 -56
32 -75 42 -56 29 -120 73 -120 81 0 5 -12 15 -27 22 -16 8 -55 39 -88 70 -33
30 -78 71 -100 91 -22 19 -56 53 -75 75 -46 50 -119 104 -142 104 -10 0 -21
-7 -24 -15z"/>
<path d="M3908 1799 c-15 -8 -17 -24 -13 -122 2 -61 8 -133 13 -159 5 -25 6
-66 2 -90 -3 -24 -1 -102 5 -174 9 -107 12 -331 6 -484 l-1 -35 -21 43 c-25
49 -46 54 -83 17 -23 -23 -24 -26 -12 -72 7 -26 30 -87 50 -136 20 -48 36 -96
36 -106 0 -11 5 -21 10 -23 6 -2 13 -28 15 -58 7 -72 13 -90 31 -90 8 0 17 -7
20 -15 4 -11 13 -13 28 -9 27 9 29 12 71 124 20 52 41 106 47 120 26 63 61
179 65 217 5 39 2 44 -27 62 -40 24 -77 12 -86 -28 -3 -14 -12 -46 -19 -71
-13 -44 -13 -42 -14 70 -2 189 -10 548 -16 655 -3 55 -8 152 -11 215 -3 67
-11 124 -19 135 -14 23 -51 29 -77 14z"/>
<path d="M1608 1570 c-17 -10 -18 -53 -21 -807 -1 -139 -4 -170 -14 -161 -7 6
-13 16 -13 23 0 27 -41 65 -70 65 -24 0 -30 -6 -40 -34 -7 -23 -8 -41 -1 -53
38 -70 111 -245 117 -278 11 -63 41 -115 66 -115 26 0 68 45 68 72 0 10 0 20
1 23 0 2 22 50 50 105 27 55 49 107 49 114 0 8 6 19 13 25 19 15 19 72 0 93
-36 39 -111 0 -115 -59 -1 -15 -4 1 -8 37 -5 58 -4 329 2 465 2 64 -11 443
-18 473 -5 24 -35 29 -66 12z"/>
</g>
</svg>
