<?xml version="1.0" standalone="no"?>
<!DOCTYPE svg PUBLIC "-//W3C//DTD SVG 20010904//EN"
 "http://www.w3.org/TR/2001/REC-SVG-20010904/DTD/svg10.dtd">
<svg version="1.0" xmlns="http://www.w3.org/2000/svg"
 width="531.000000pt" height="453.000000pt" viewBox="0 0 531.000000 453.000000"
 preserveAspectRatio="xMidYMid meet">
<metadata>
Created by potrace 1.16, written by Peter Selinger 2001-2019
</metadata>
<g transform="translate(0.000000,453.000000) scale(0.100000,-0.100000)"
fill="#000000" stroke="none">
<path d="M4225 4361 c-11 -5 -38 -14 -60 -21 -59 -19 -117 -67 -171 -142 -27
-37 -52 -67 -56 -68 -5 0 -8 -5 -8 -12 0 -6 -8 -30 -19 -52 -45 -100 -56 -139
-76 -261 -2 -11 -6 -36 -10 -55 -8 -40 -8 -161 1 -205 12 -62 59 -182 69 -177
3 1 12 -1 21 -6 14 -8 13 -13 -5 -45 -11 -21 -21 -39 -21 -42 0 -3 -12 -29
-26 -58 -15 -28 -26 -67 -26 -84 1 -25 -3 -33 -16 -34 -100 -4 -131 -7 -150
-13 -15 -5 -32 -2 -47 8 -14 9 -25 12 -25 6 0 -12 -43 -31 -85 -36 -52 -7 -64
-14 -67 -42 -2 -15 2 -40 8 -57 7 -16 15 -57 19 -90 12 -103 13 -108 29 -182
9 -40 15 -98 15 -130 0 -32 3 -68 6 -80 11 -49 13 -61 20 -143 4 -47 9 -87 10
-90 13 -21 43 -266 50 -405 4 -78 14 -217 19 -255 2 -14 -2 -63 -8 -110 -6
-47 -10 -125 -9 -175 1 -97 -5 -127 -47 -220 -15 -33 -30 -67 -34 -75 -3 -8
-16 -31 -28 -50 -39 -64 -89 -155 -109 -198 -11 -23 -23 -42 -27 -42 -8 0 -46
-60 -47 -73 0 -4 -5 -11 -11 -15 -6 -4 -15 -18 -19 -32 -4 -14 -30 -49 -56
-78 -27 -30 -50 -61 -50 -70 -2 -31 3 -47 17 -55 8 -5 12 -12 9 -16 -2 -5 12
-9 33 -9 20 -1 56 -10 80 -22 24 -12 51 -20 60 -19 9 2 31 -5 49 -14 18 -9 41
-17 52 -17 24 0 71 -20 71 -30 0 -4 13 -10 30 -12 39 -6 76 27 85 75 7 33 5
38 -19 47 -14 5 -26 15 -26 21 0 8 -4 8 -14 0 -8 -7 -17 -8 -20 -3 -5 8 -58
23 -86 24 -3 0 -16 5 -30 10 -14 5 -36 12 -50 14 -47 9 -92 26 -84 33 5 3 17
22 28 41 46 86 70 127 91 156 13 16 40 61 60 100 20 38 43 74 51 80 8 7 14 16
12 20 -1 5 16 43 39 84 23 41 44 87 48 101 3 14 17 37 30 51 23 25 23 30 24
207 0 100 2 185 5 189 2 4 7 25 10 46 4 22 11 45 16 51 5 6 48 12 101 14 51 1
100 6 109 11 10 5 40 9 66 8 63 -2 142 8 175 20 14 6 41 11 60 13 19 2 44 10
57 17 12 8 31 12 42 9 11 -3 23 -1 26 4 3 5 17 9 32 9 30 0 173 67 185 87 4 7
14 13 20 13 7 0 44 20 82 45 79 51 95 54 95 23 0 -13 2 -42 3 -64 2 -23 -2
-73 -8 -110 -7 -38 -20 -114 -29 -169 -10 -55 -19 -111 -22 -125 -3 -14 -7
-41 -9 -60 -3 -19 -7 -46 -10 -60 -2 -14 -7 -45 -10 -70 -4 -25 -13 -72 -21
-104 -9 -33 -13 -69 -10 -82 6 -23 70 -59 146 -82 19 -6 73 -23 118 -37 48
-15 91 -23 100 -19 10 4 21 6 25 5 5 -1 6 3 3 8 -4 5 -2 20 3 33 11 28 -3 68
-24 68 -8 0 -15 4 -15 9 0 6 -8 9 -17 9 -10 0 -31 5 -48 12 -16 7 -40 12 -52
11 -12 -1 -42 7 -67 19 -42 19 -53 34 -46 65 1 6 8 59 16 119 7 60 18 123 23
140 6 17 13 54 15 81 3 28 12 84 21 125 26 120 36 191 31 208 -3 10 -6 46 -7
82 -4 100 -15 125 -61 140 -33 12 -40 11 -51 -2 -6 -9 -30 -24 -52 -34 -22
-10 -42 -21 -45 -24 -6 -9 -108 -72 -140 -88 -14 -7 -39 -21 -56 -31 -18 -11
-42 -21 -54 -23 l-22 -3 1 215 c0 118 1 217 1 219 0 2 6 -1 13 -7 6 -6 50 -22
97 -36 47 -14 111 -34 142 -45 51 -18 97 -19 99 -2 0 3 2 24 5 47 7 55 -10 69
-109 81 -20 3 -40 9 -43 14 -3 5 -22 9 -42 9 -20 0 -50 7 -65 15 -15 8 -43 17
-62 21 -27 5 -35 11 -36 28 -1 11 -2 71 -4 131 -1 61 -5 161 -9 224 l-7 114
63 -77 c35 -43 73 -95 84 -116 12 -22 25 -36 28 -32 4 3 5 0 2 -8 -19 -50 54
-57 171 -17 48 16 122 35 163 43 148 25 168 32 179 65 23 68 -31 103 -105 68
-22 -10 -56 -19 -75 -19 -19 0 -40 -5 -45 -10 -6 -6 -25 -12 -42 -13 -18 -1
-32 -5 -32 -8 0 -3 -17 -11 -37 -17 -79 -23 -83 -23 -116 15 -18 19 -43 47
-57 63 -14 15 -37 44 -50 64 -14 20 -28 36 -32 36 -5 0 -8 6 -8 14 0 8 -6 16
-12 19 -16 6 -58 83 -58 106 0 10 -13 30 -30 46 -45 44 -110 49 -378 29 l-92
-7 14 39 c20 55 44 100 61 114 8 7 15 19 15 27 0 8 4 12 9 8 9 -5 87 -23 125
-29 32 -4 113 12 153 30 133 63 199 155 308 429 10 24 10 26 27 95 7 31 12
104 12 166 -1 98 -5 119 -28 170 -25 55 -93 134 -115 134 -5 0 -16 8 -23 18
-34 45 -208 87 -263 63z m138 -120 c15 -6 41 -21 59 -33 97 -70 128 -125 128
-229 0 -56 -26 -214 -38 -234 -4 -5 -7 -16 -8 -23 -1 -7 -25 -57 -52 -110 -53
-105 -110 -190 -128 -191 -6 -1 -23 -11 -38 -22 -19 -15 -47 -23 -89 -26 -53
-5 -70 -1 -119 22 -31 15 -59 33 -62 41 -3 8 -11 14 -19 14 -14 0 -50 71 -64
130 -17 66 2 272 27 305 4 6 13 35 19 65 17 82 56 152 122 222 44 46 70 66
102 74 47 13 118 11 160 -5z m-77 -1244 c3 -2 7 -33 9 -68 2 -35 9 -122 15
-194 15 -179 18 -335 8 -335 -4 0 -16 4 -26 9 -9 5 -35 14 -57 21 -22 7 -58
21 -80 30 -22 10 -53 22 -70 27 -23 7 -46 32 -94 103 -35 52 -81 109 -102 125
-21 17 -38 36 -39 43 0 7 -24 36 -52 66 -98 98 -127 140 -107 152 7 4 55 8
108 9 104 3 274 15 279 20 5 5 203 -3 208 -8z m-686 -108 c0 -5 8 -17 18 -27
9 -11 46 -51 82 -91 36 -39 91 -98 123 -131 31 -32 57 -63 57 -68 0 -5 14 -26
30 -47 17 -21 30 -46 30 -56 0 -11 5 -19 10 -19 6 0 10 -6 10 -13 0 -11 43
-36 73 -41 6 -1 28 -9 48 -18 20 -9 47 -19 60 -23 13 -4 49 -19 79 -33 30 -14
61 -27 68 -28 43 -8 42 -4 42 -227 -1 -214 -9 -266 -39 -259 -6 1 -24 -4 -39
-11 -45 -23 -152 -45 -240 -51 -45 -3 -91 -10 -101 -15 -11 -6 -30 -7 -48 -2
-16 5 -51 5 -78 1 -34 -6 -54 -4 -62 3 -7 7 -14 55 -17 117 -6 132 -18 231
-44 390 -26 152 -29 177 -43 310 -5 58 -17 143 -25 190 -9 47 -18 107 -20 134
-4 43 -3 48 11 36 8 -7 15 -16 15 -21z"/>
<path d="M1425 4289 c-11 -4 -31 -10 -45 -13 -67 -14 -191 -124 -244 -216 -53
-92 -56 -98 -56 -114 0 -7 -11 -39 -26 -71 -24 -55 -37 -159 -38 -295 0 -80
16 -205 31 -239 9 -20 15 -39 15 -43 -1 -5 2 -8 7 -8 5 0 24 -25 42 -55 18
-30 39 -55 46 -55 8 0 24 -7 37 -16 l24 -15 -24 -59 c-13 -33 -24 -68 -24 -79
0 -30 -9 -30 -85 -5 -38 13 -82 24 -97 24 -15 0 -29 4 -32 9 -4 5 -25 12 -49
16 -23 4 -49 11 -58 16 -9 4 -33 9 -54 11 -63 5 -81 -32 -105 -214 -5 -38 -11
-72 -14 -76 -3 -5 -8 -31 -11 -58 -4 -27 -9 -58 -13 -69 -8 -25 -7 -23 -17
-70 -4 -22 -14 -52 -21 -66 -7 -14 -20 -55 -28 -90 -9 -35 -25 -98 -36 -139
-12 -41 -32 -124 -46 -184 -16 -73 -31 -118 -45 -132 -20 -21 -20 -26 -9 -75
10 -39 29 -73 74 -128 34 -42 64 -78 67 -81 3 -3 26 -34 51 -70 26 -36 60 -78
76 -95 24 -25 84 -126 126 -212 6 -13 14 -23 19 -23 19 0 -9 -79 -65 -185 -29
-53 -30 -56 -78 -160 -23 -49 -52 -104 -65 -120 -12 -17 -26 -45 -30 -64 -4
-18 -22 -59 -40 -90 -18 -31 -43 -81 -56 -111 -26 -62 -67 -122 -79 -115 -9 5
-22 -29 -24 -60 -2 -31 51 -75 89 -73 26 1 50 -12 114 -60 45 -34 92 -67 104
-73 12 -6 29 -19 37 -29 26 -32 101 -30 119 3 10 20 10 30 -3 61 -9 21 -14 42
-11 46 7 11 -23 40 -40 40 -8 0 -18 -8 -23 -17 -9 -15 -11 -15 -26 0 -9 8 -25
19 -36 22 -11 3 -20 11 -20 16 0 5 -4 9 -10 9 -5 0 -40 21 -77 47 l-69 46 28
56 c15 31 33 71 40 89 7 17 15 32 18 32 5 0 23 34 49 90 6 14 15 32 20 40 5 8
17 35 27 60 10 25 21 47 25 50 3 3 18 32 33 65 40 87 156 317 172 340 18 26
18 70 -1 89 -8 8 -15 19 -15 25 0 6 -4 11 -9 11 -5 0 -12 9 -16 19 -3 11 -14
22 -23 25 -10 3 -23 18 -30 33 -31 72 -66 123 -132 192 -40 42 -110 139 -110
152 0 8 -9 20 -20 27 -32 20 -23 31 18 21 130 -29 180 -42 207 -53 104 -44
136 -57 187 -75 32 -11 66 -25 75 -30 10 -5 61 -26 113 -46 52 -20 99 -41 105
-46 5 -5 19 -9 31 -9 12 0 29 -11 38 -24 11 -17 23 -24 38 -21 29 6 92 -16
157 -55 73 -42 127 -66 156 -69 18 -1 15 -53 -8 -126 -8 -27 -23 -77 -32 -110
-10 -33 -21 -64 -25 -70 -4 -5 -15 -36 -24 -68 -9 -32 -26 -67 -36 -77 -11
-11 -20 -22 -19 -25 1 -13 -26 -75 -33 -75 -4 0 -8 -5 -8 -10 0 -6 -9 -30 -20
-52 -11 -23 -20 -48 -20 -55 0 -7 -4 -13 -10 -13 -14 0 -13 -45 2 -73 6 -12
14 -28 18 -36 9 -20 120 -81 146 -81 12 0 27 -7 34 -15 7 -8 18 -15 25 -15 7
0 18 -7 25 -15 26 -31 140 -9 140 27 0 5 -7 25 -16 44 -14 30 -21 34 -56 34
-27 0 -50 8 -72 25 -18 14 -42 25 -54 25 -11 0 -33 10 -47 23 l-27 22 20 55
c36 97 47 125 53 130 15 14 62 118 64 145 2 17 10 48 19 69 9 21 16 49 16 62
0 12 4 25 9 28 5 3 15 30 21 58 7 29 17 62 23 72 5 11 12 36 14 55 3 20 9 43
13 52 17 31 -12 61 -81 84 -36 12 -74 27 -85 33 -10 6 -44 22 -74 37 -30 14
-66 32 -80 40 -14 8 -37 15 -51 15 -15 0 -32 7 -39 15 -7 9 -19 14 -27 11 -18
-7 -17 9 11 94 14 41 38 127 54 190 17 63 35 127 41 143 6 15 15 38 21 52 9
24 10 24 51 10 23 -8 54 -15 69 -15 14 0 30 -3 34 -7 18 -18 94 -28 156 -20
94 12 131 9 240 -18 36 -9 70 21 76 66 4 30 1 39 -19 52 -15 10 -36 14 -53 11
-32 -6 -37 -6 -111 2 -28 3 -81 1 -118 -4 -52 -9 -74 -8 -107 4 -23 8 -43 12
-45 10 -2 -2 -32 6 -66 18 -42 15 -61 27 -59 37 2 7 13 48 23 89 11 41 21 84
23 95 9 45 38 160 41 163 1 2 28 -14 58 -36 55 -38 111 -102 142 -161 8 -17
21 -31 28 -32 6 0 20 -2 29 -4 9 -2 29 4 45 12 15 8 28 14 28 13 0 -6 129 14
180 27 33 8 80 19 105 23 55 11 89 21 159 49 30 12 60 20 67 17 7 -3 16 -1 18
3 3 5 19 11 35 14 38 8 62 50 50 87 -10 27 -49 59 -49 39 0 -6 -6 -9 -14 -6
-7 3 -19 0 -25 -6 -7 -7 -15 -12 -19 -13 -8 -1 -33 -11 -90 -36 -38 -17 -158
-52 -222 -65 -14 -2 -32 -7 -40 -10 -25 -10 -42 -12 -125 -19 l-80 -7 -33 34
c-17 18 -32 36 -32 40 0 4 -30 31 -67 60 -105 82 -121 99 -128 130 -5 21 -14
31 -33 36 -15 3 -29 9 -32 12 -8 10 -146 50 -230 68 -41 9 -89 22 -107 29 -17
8 -38 14 -47 14 -32 0 -16 78 26 123 21 23 30 25 87 22 35 -2 75 1 89 7 15 6
43 17 62 25 85 35 137 74 202 154 45 56 68 97 97 174 12 33 27 68 33 79 10 18
18 58 40 197 14 93 -4 278 -34 346 -24 55 -133 163 -165 163 -13 0 -23 3 -23
8 0 11 -71 34 -105 33 -16 0 -32 4 -35 10 -4 6 -15 6 -30 1 -13 -5 -38 -6 -55
-2 -17 4 -39 3 -50 -1z m89 -102 c3 3 31 -4 63 -15 32 -11 70 -23 86 -26 15
-4 27 -13 27 -20 0 -8 10 -16 22 -18 13 -2 29 -15 36 -30 7 -16 17 -28 23 -28
5 0 9 -6 9 -14 0 -8 6 -16 13 -19 13 -5 25 -93 31 -227 5 -100 -63 -308 -134
-413 -31 -47 -119 -127 -139 -127 -6 0 -11 -4 -11 -10 0 -14 -77 -32 -138 -32
-43 0 -63 6 -111 36 -33 20 -63 36 -69 36 -5 0 -29 32 -53 71 l-43 72 1 187
c1 168 3 192 23 241 12 30 32 78 44 108 15 39 41 74 93 125 91 90 96 94 128
100 15 3 29 7 32 10 2 2 17 0 33 -4 16 -4 31 -6 34 -3z m-485 -1285 c22 2 42
-4 55 -17 8 -9 41 -18 73 -21 70 -7 130 -21 138 -34 3 -5 31 -12 63 -16 31 -3
62 -10 67 -15 6 -4 22 -9 35 -11 14 -2 35 -9 46 -16 12 -6 40 -14 63 -18 44
-7 44 -7 41 -70 -2 -51 -4 -62 -19 -99 -7 -16 -21 -75 -31 -130 -9 -55 -23
-111 -29 -125 -12 -25 -13 -25 -99 -18 -48 4 -96 9 -107 12 -11 2 -23 5 -27 5
-5 1 -8 7 -8 15 0 8 -6 27 -14 43 -8 15 -26 53 -40 83 -14 30 -37 68 -51 84
-14 16 -25 35 -25 43 0 15 -1 17 -52 78 -19 22 -47 58 -63 80 -16 22 -36 48
-45 57 -8 9 -28 39 -42 67 l-27 50 46 -14 c25 -8 49 -14 52 -13z m-219 -6 c0
-3 -4 -8 -10 -11 -5 -3 -10 -1 -10 4 0 6 5 11 10 11 6 0 10 -2 10 -4z m41 -49
c8 -7 18 -19 21 -27 7 -20 151 -212 172 -229 9 -7 16 -20 16 -28 0 -8 22 -47
49 -86 30 -45 56 -98 66 -137 10 -36 29 -77 43 -92 22 -24 33 -27 121 -33 135
-9 154 -13 146 -33 -30 -72 -58 -157 -70 -212 -12 -51 -63 -224 -71 -238 -3
-5 -129 40 -192 69 -35 16 -66 29 -70 29 -4 0 -38 13 -77 29 -91 38 -146 54
-285 86 -131 30 -149 41 -129 76 7 13 14 42 15 64 4 58 22 135 60 256 28 91
47 159 71 254 3 11 9 40 13 65 5 25 14 68 20 95 6 28 13 60 15 72 4 18 16 27
45 32 3 0 12 -5 21 -12z"/>
</g>
</svg>
