<?xml version="1.0" standalone="no"?>
<!DOCTYPE svg PUBLIC "-//W3C//DTD SVG 20010904//EN"
 "http://www.w3.org/TR/2001/REC-SVG-20010904/DTD/svg10.dtd">
<svg version="1.0" xmlns="http://www.w3.org/2000/svg"
 width="477.000000pt" height="509.000000pt" viewBox="0 0 477.000000 509.000000"
 preserveAspectRatio="xMidYMid meet">
<metadata>
Created by potrace 1.16, written by Peter Selinger 2001-2019
</metadata>
<g transform="translate(0.000000,509.000000) scale(0.100000,-0.100000)"
fill="#000000" stroke="none">
<path d="M2150 5055 c-29 -19 -58 -35 -65 -35 -6 0 -24 -11 -40 -25 -15 -14
-39 -28 -54 -31 -15 -3 -33 -15 -40 -25 -10 -17 -8 -25 9 -49 12 -17 24 -30
28 -31 4 0 36 -2 72 -5 80 -5 197 -32 227 -51 40 -26 103 15 103 67 0 25 4 30
25 30 56 0 233 -34 265 -51 19 -10 55 -28 80 -39 24 -12 47 -25 50 -30 3 -5
19 -16 35 -24 16 -8 29 -23 30 -33 14 -134 9 -162 -30 -199 -19 -18 -35 -37
-35 -42 0 -5 -6 -15 -14 -22 -21 -17 -5 -53 25 -56 24 -2 99 41 99 57 0 5 6 9
14 9 15 0 32 37 40 84 16 92 17 119 7 167 -14 63 -43 99 -121 149 -60 39 -92
54 -160 77 -25 8 -52 17 -60 20 -8 3 -18 6 -22 5 -3 -1 -32 5 -65 14 -32 8
-103 16 -159 17 -92 2 -100 4 -90 19 7 12 6 24 -4 42 -21 40 -83 36 -150 -9z"/>
<path d="M2062 4784 c-118 -35 -162 -78 -156 -154 1 -19 5 -142 9 -272 l7
-238 -29 5 c-15 3 -37 7 -48 8 -11 1 -24 5 -30 9 -5 3 -25 9 -43 13 -46 10
-162 76 -174 100 -6 11 -17 26 -25 33 -7 7 -13 32 -13 55 0 35 8 52 45 100 25
31 49 57 54 57 5 0 11 12 14 26 10 53 -52 73 -93 29 -13 -14 -28 -25 -34 -25
-13 0 -71 -85 -86 -126 -18 -48 -14 -116 10 -163 48 -91 210 -191 340 -208 22
-3 40 -9 40 -13 0 -10 -26 -20 -51 -20 -10 0 -19 -4 -19 -10 0 -5 -13 -10 -28
-10 -16 0 -37 -7 -48 -15 -10 -8 -25 -15 -33 -15 -29 0 -244 -114 -331 -175
-27 -19 -52 -35 -55 -35 -3 0 -45 -25 -93 -56 -48 -31 -98 -64 -112 -72 -14
-9 -28 -17 -32 -17 -4 0 -33 -19 -65 -43 -32 -23 -105 -72 -163 -108 -58 -36
-106 -70 -108 -75 -2 -5 -10 -9 -18 -9 -8 0 -14 -7 -14 -15 0 -9 -8 -19 -19
-23 -20 -7 -99 -79 -116 -104 -41 -61 -51 -75 -66 -93 -31 -36 -57 -99 -63
-151 -7 -59 14 -97 59 -108 26 -7 26 -7 19 -86 l-6 -79 40 -41 c41 -40 55 -45
124 -41 29 2 39 -2 44 -16 25 -79 58 -108 144 -127 38 -9 79 -16 90 -16 12 0
42 -21 71 -50 27 -27 58 -50 69 -50 10 0 22 -4 25 -10 3 -5 16 -9 28 -9 12 1
49 -2 82 -6 92 -11 221 29 340 105 17 11 44 26 60 34 17 8 50 33 75 56 25 23
57 51 72 63 16 12 31 36 34 54 4 19 14 35 25 38 10 4 19 11 19 16 0 5 7 9 15
9 9 0 15 9 15 21 0 28 -31 65 -51 61 -18 -3 -129 -104 -129 -118 0 -16 -129
-124 -147 -124 -6 0 -16 -6 -22 -14 -16 -19 -81 -53 -159 -83 -95 -35 -222
-25 -269 23 -10 10 1 18 60 40 110 41 212 91 248 121 29 25 57 42 119 75 14 7
34 21 44 30 11 10 28 18 38 18 10 0 23 11 29 24 12 25 20 27 169 43 36 3 76 7
90 7 l24 1 3 -310 c1 -244 -1 -326 -13 -385 -9 -41 -16 -86 -17 -99 -1 -13
-19 -41 -39 -62 -21 -22 -36 -39 -32 -39 4 0 -43 -67 -56 -80 -13 -12 -128
-188 -148 -227 -25 -49 -48 -134 -58 -213 -11 -91 -13 -209 -3 -215 5 -4 9
-15 9 -26 0 -10 5 -19 11 -19 5 0 7 -5 3 -11 -4 -7 -28 -9 -68 -5 -33 3 -141
6 -238 7 -166 1 -248 10 -328 38 -14 5 -59 19 -100 32 -58 18 -85 32 -118 66
-38 37 -43 47 -41 80 5 67 17 80 158 176 47 32 96 60 110 64 14 3 31 9 36 13
21 16 152 69 182 75 17 3 74 22 126 44 52 21 112 42 133 46 22 4 44 11 50 16
6 5 49 14 95 20 108 14 171 41 188 80 10 23 10 33 1 44 -16 20 -55 19 -85 -1
-13 -9 -46 -17 -72 -19 -50 -3 -54 -4 -143 -28 -57 -16 -190 -61 -225 -77 -11
-5 -31 -12 -45 -15 -43 -12 -253 -95 -310 -123 -30 -15 -69 -37 -86 -49 -17
-13 -36 -23 -41 -23 -6 0 -13 -7 -17 -15 -3 -8 -11 -15 -18 -15 -16 0 -87 -66
-109 -100 -25 -40 -48 -110 -59 -180 -14 -85 -12 -124 6 -207 9 -37 18 -79 21
-93 17 -81 52 -166 138 -338 53 -106 102 -198 109 -205 6 -7 17 -23 24 -37 7
-14 26 -45 42 -70 16 -25 41 -67 55 -94 14 -27 37 -62 50 -78 14 -16 25 -33
25 -37 0 -10 60 -30 75 -25 7 3 11 13 8 23 -2 10 5 33 16 52 23 38 18 53 -20
62 -23 6 -40 28 -112 152 -19 34 -62 100 -67 105 -7 7 -38 65 -82 155 -22 44
-43 87 -48 95 -29 50 -72 143 -88 195 -25 74 -55 211 -50 224 1 6 32 -4 68
-21 65 -31 78 -37 135 -56 36 -12 105 -27 123 -25 6 0 12 -3 12 -7 0 -13 103
-21 350 -25 129 -3 249 -7 265 -9 17 -3 68 -7 115 -10 47 -4 108 -9 135 -13
51 -7 107 -7 300 -2 87 2 136 9 235 36 69 18 166 43 215 54 377 87 473 121
683 245 l42 26 -21 -54 c-12 -29 -26 -70 -31 -92 -5 -21 -13 -46 -18 -56 -5
-9 -11 -28 -14 -41 -13 -74 -50 -197 -64 -219 -9 -14 -24 -41 -33 -61 -9 -20
-22 -40 -28 -43 -6 -4 -21 -26 -32 -49 -12 -22 -28 -47 -35 -55 -8 -7 -14 -17
-14 -22 0 -5 -19 -37 -42 -70 -24 -33 -48 -69 -54 -80 -6 -11 -29 -40 -52 -65
-22 -25 -39 -45 -36 -45 3 0 -27 -38 -67 -85 -39 -47 -75 -85 -80 -85 -4 0
-11 -17 -15 -37 -6 -30 -3 -39 15 -54 35 -29 71 -14 102 42 8 15 58 81 112
148 53 66 97 123 97 126 0 3 39 65 86 138 120 183 184 299 184 332 0 9 4 23 9
33 10 18 49 150 70 236 6 26 20 67 30 90 10 22 26 75 36 116 10 41 21 82 25
91 12 23 1 139 -17 173 -15 31 -108 145 -128 158 -6 3 -26 20 -45 37 -19 16
-38 27 -42 25 -4 -3 -19 3 -33 12 -44 28 -225 61 -365 66 -8 0 -53 6 -100 13
-47 7 -88 11 -92 9 -4 -2 -55 -7 -115 -10 -118 -7 -133 -14 -133 -66 0 -28 34
-73 48 -64 9 6 153 27 212 32 25 1 74 -2 110 -7 36 -6 97 -12 135 -14 39 -1
84 -5 100 -8 17 -4 51 -10 76 -15 59 -11 164 -70 208 -116 19 -20 32 -36 28
-36 -3 0 5 -12 18 -26 46 -50 23 -123 -66 -213 -24 -24 -163 -101 -183 -101
-5 0 -17 -6 -25 -14 -17 -14 -115 -47 -241 -81 -3 -1 -23 -7 -45 -13 -22 -7
-57 -12 -77 -12 -20 0 -39 -4 -42 -9 -3 -5 -23 -12 -43 -16 -21 -3 -56 -12
-78 -20 -22 -7 -54 -16 -70 -19 l-30 -7 -1 148 c-1 146 -18 275 -43 321 -6 12
-9 22 -6 22 4 0 -7 24 -24 53 -16 28 -39 79 -52 112 -12 33 -26 65 -30 71 -5
6 -11 112 -14 235 -3 123 -8 249 -10 279 -2 30 -7 108 -11 173 l-7 118 24 -5
c13 -3 94 -20 179 -37 85 -17 157 -32 160 -33 10 -6 246 23 320 39 41 9 91 19
110 22 19 3 37 9 40 12 9 12 131 71 146 71 8 0 14 5 14 10 0 6 7 10 15 10 8 0
15 3 15 8 0 4 16 25 35 47 19 22 35 42 35 46 0 3 16 13 36 22 36 18 40 20 87
62 15 14 35 25 43 25 7 0 14 4 14 9 0 5 8 11 18 15 20 6 76 38 94 54 7 5 36
13 63 17 28 4 56 12 63 18 33 26 794 -6 829 -35 10 -8 21 -1 48 27 30 33 39
64 24 79 -13 14 -436 50 -564 49 -94 -1 -290 -13 -315 -19 -14 -4 -36 -8 -50
-10 -14 -1 -34 -5 -45 -7 -28 -5 -196 -87 -217 -105 -10 -8 -18 -12 -18 -8 0
7 -18 -6 -77 -54 -7 -6 -17 -10 -22 -10 -5 0 -16 -8 -23 -18 -7 -11 -24 -24
-37 -31 -12 -7 -45 -34 -71 -61 -26 -26 -59 -54 -73 -61 -82 -44 -138 -68
-187 -78 -30 -7 -73 -16 -95 -21 -44 -10 -198 -29 -230 -29 -11 0 -31 5 -45 9
-14 5 -38 11 -55 14 -26 4 -168 29 -228 40 -12 3 -30 5 -39 5 -15 1 -17 10
-15 56 2 54 3 55 35 61 67 13 148 -7 224 -53 21 -13 41 -22 45 -21 5 0 17 -2
28 -6 57 -22 77 -26 155 -36 92 -11 176 -1 227 25 16 8 34 15 41 15 7 0 15 14
19 30 3 17 9 30 14 30 5 0 9 9 9 20 0 31 -45 44 -84 25 -79 -41 -215 -47 -300
-14 -28 11 -56 27 -63 36 -7 9 -20 13 -33 10 -11 -3 -23 -1 -26 4 -3 5 -10 7
-15 4 -5 -4 -9 -1 -9 4 0 6 6 11 14 11 7 0 21 11 30 24 12 20 13 31 5 55 -6
17 -15 28 -20 25 -5 -3 -9 0 -9 6 0 13 -43 3 -48 -12 -9 -22 -171 -83 -247
-93 -22 -2 -60 -9 -85 -14 -103 -23 -218 -43 -265 -46 -27 -2 -74 -8 -104 -14
-122 -25 -364 1 -406 42 -9 9 -23 17 -30 17 -18 0 -46 57 -38 78 8 24 75 92
90 92 7 0 21 4 31 10 9 5 53 19 97 30 97 25 93 24 127 38 15 6 45 12 65 14 21
1 41 6 44 11 4 5 19 10 35 12 16 1 45 9 64 17 41 18 69 28 204 75 55 19 111
43 124 54 14 10 43 24 65 30 22 6 53 24 69 40 16 16 36 29 44 29 15 0 20 56 6
76 -14 21 -49 25 -66 8 -10 -9 -20 -14 -23 -11 -3 4 -7 88 -9 187 l-3 181 122
-5 c67 -3 145 -10 172 -15 28 -6 63 -13 79 -16 16 -3 38 -12 49 -20 10 -7 25
-11 32 -9 7 3 16 1 20 -5 3 -6 17 -11 30 -11 13 0 26 -4 29 -9 5 -7 63 -23 86
-23 3 0 14 -5 25 -11 11 -6 28 -12 37 -14 10 -2 53 -12 95 -24 125 -34 164
-38 449 -43 122 -2 241 0 265 5 24 5 60 12 79 15 19 3 44 10 55 14 11 5 43 16
70 24 81 24 236 87 298 122 16 9 40 17 54 19 14 1 29 9 34 16 5 8 9 11 9 7 0
-6 93 46 138 77 12 9 20 20 17 25 -3 5 0 19 7 30 9 14 10 23 2 28 -6 4 -13 15
-17 25 -3 9 -13 17 -22 17 -21 0 -75 -28 -75 -39 0 -10 -180 -101 -200 -101
-8 0 -21 -6 -29 -13 -9 -8 -32 -19 -51 -27 -19 -7 -58 -23 -86 -35 -43 -20
-148 -53 -274 -86 -42 -11 -504 -15 -575 -5 -27 4 -59 11 -70 16 -20 8 -112
28 -172 37 -18 3 -33 9 -33 14 0 5 -11 9 -24 9 -14 0 -31 7 -39 15 -8 8 -25
16 -38 19 -13 2 -42 12 -64 22 -22 9 -51 18 -65 19 -14 2 -70 12 -126 22 -56
11 -116 19 -135 17 -34 -4 -34 -3 6 9 22 7 62 23 88 36 47 22 49 22 62 4 8
-10 15 -21 15 -25 0 -16 41 -7 57 12 10 11 23 20 29 20 16 0 26 26 30 75 2 22
6 51 10 65 14 50 14 61 -2 85 -20 31 -41 31 -102 4 -26 -12 -82 -27 -124 -32
-55 -7 -78 -15 -78 -24 0 -8 -5 -11 -11 -8 -7 5 -9 -6 -7 -31 2 -29 9 -42 28
-51 14 -7 23 -13 20 -13 -3 0 -36 -11 -74 -25 -88 -32 -97 -32 -95 3 1 35 -10
405 -15 496 -4 70 -13 86 -50 86 -11 0 -16 3 -13 6 3 4 0 16 -8 27 -17 24 -56
28 -113 11z m-134 -1099 c-2 -163 -7 -258 -14 -265 -11 -11 -29 -16 -94 -27
-19 -3 -40 -10 -47 -15 -7 -5 -38 -16 -70 -24 -32 -8 -65 -16 -74 -18 -9 -3
-36 -14 -59 -26 -23 -12 -70 -26 -104 -31 -75 -12 -110 -28 -175 -79 -70 -55
-112 -138 -101 -198 4 -23 15 -51 25 -62 16 -18 15 -20 -38 -44 -29 -14 -58
-26 -62 -26 -5 0 -16 -6 -24 -14 -17 -15 -105 -66 -118 -68 -5 -1 -21 -7 -38
-14 -16 -7 -48 -15 -70 -19 -22 -4 -53 -14 -68 -22 -39 -20 -157 -33 -184 -20
-18 8 -23 19 -23 47 0 65 11 100 31 100 44 0 176 53 225 90 29 22 57 40 63 40
5 0 11 7 15 15 3 8 14 15 24 15 10 0 29 11 42 25 13 14 28 25 33 25 13 0 140
84 213 142 34 26 65 48 69 48 3 0 13 7 21 15 9 8 25 15 36 15 25 0 68 44 68
70 0 29 -46 49 -80 34 -8 -4 -19 -8 -23 -8 -4 -1 -11 -6 -15 -11 -4 -6 -41
-29 -83 -50 -42 -22 -102 -64 -134 -92 -32 -29 -62 -53 -66 -53 -10 0 -216
-135 -244 -159 -37 -33 -85 -50 -181 -62 -52 -6 -97 -9 -100 -6 -20 20 65 156
164 262 32 34 109 98 126 104 6 2 46 28 88 58 43 30 80 54 83 53 3 0 11 4 18
10 54 44 79 61 122 85 70 38 179 108 187 120 4 5 8 6 8 2 0 -5 13 1 29 12 16
12 33 21 39 21 5 0 27 14 48 31 22 17 71 47 109 66 39 20 72 38 75 42 9 10 73
38 107 45 18 4 35 12 38 17 4 5 16 9 29 9 12 0 26 3 30 7 6 7 100 40 119 42 4
1 7 -114 5 -254z m262 -149 c0 -2 -7 -9 -15 -16 -12 -10 -15 -10 -15 4 0 9 7
16 15 16 8 0 15 -2 15 -4z m-800 -691 c30 -7 66 -17 78 -22 23 -9 23 -10 -20
-39 -23 -16 -48 -34 -55 -40 -16 -15 -259 -135 -270 -133 -4 1 -28 -7 -53 -18
-108 -48 -280 -29 -280 31 0 10 71 49 90 50 43 0 109 21 144 45 25 17 48 31
52 31 14 0 169 74 172 82 2 5 9 8 17 8 7 0 18 7 25 15 7 9 20 13 29 10 9 -4
41 -12 71 -20z m503 -980 c-3 -9 -8 -14 -10 -11 -3 3 -2 9 2 15 9 16 15 13 8
-4z m-41 -57 c-12 -12 -24 -20 -27 -17 -2 3 5 16 16 28 12 12 24 20 27 16 3
-3 -4 -15 -16 -27z m-202 -653 c11 -13 7 -15 -26 -15 -39 0 -39 0 -14 14 14 8
26 14 26 15 1 1 7 -6 14 -14z m504 -10 l26 -24 -56 0 c-44 1 -54 4 -50 16 3 8
6 19 6 24 0 18 48 8 74 -16z m136 -5 c-8 -5 -24 -10 -35 -10 -17 0 -17 2 -5
10 8 5 24 10 35 10 17 0 17 -2 5 -10z"/>
</g>
</svg>
