<?xml version="1.0" standalone="no"?>
<!DOCTYPE svg PUBLIC "-//W3C//DTD SVG 20010904//EN"
 "http://www.w3.org/TR/2001/REC-SVG-20010904/DTD/svg10.dtd">
<svg version="1.0" xmlns="http://www.w3.org/2000/svg"
 width="527.000000pt" height="409.000000pt" viewBox="0 0 527.000000 409.000000"
 preserveAspectRatio="xMidYMid meet">
<metadata>
Created by potrace 1.16, written by Peter Selinger 2001-2019
</metadata>
<g transform="translate(0.000000,409.000000) scale(0.100000,-0.100000)"
fill="#000000" stroke="none">
<path d="M1623 4011 c-21 -9 -49 -26 -61 -38 -12 -13 -28 -23 -34 -23 -7 0
-24 -16 -37 -35 -13 -19 -27 -33 -31 -30 -8 5 -74 -44 -116 -84 -12 -12 -26
-21 -31 -21 -5 0 -18 -9 -28 -20 -10 -11 -28 -20 -39 -20 -12 0 -38 -11 -58
-25 -20 -14 -41 -25 -46 -25 -5 0 -17 -11 -26 -25 -9 -14 -23 -25 -30 -25 -30
0 -132 -87 -156 -133 -14 -26 -30 -47 -35 -47 -16 0 -43 -60 -54 -120 -6 -30
-14 -68 -19 -85 -5 -16 -6 -41 -2 -55 11 -37 44 -183 45 -195 1 -19 63 -120
93 -150 16 -16 44 -41 62 -55 18 -14 39 -31 46 -37 7 -7 18 -13 25 -13 7 0 20
-7 30 -16 28 -25 154 -30 225 -9 92 28 156 62 207 110 26 24 47 46 47 49 0 3
17 21 38 40 109 102 125 116 132 116 4 0 23 16 43 35 20 19 39 35 43 35 3 0
21 16 39 36 19 20 38 33 44 29 6 -3 11 0 12 7 0 7 19 29 43 48 23 19 55 55 71
80 28 42 29 50 29 155 0 60 -6 135 -13 165 -23 93 -84 206 -142 263 -22 21
-39 42 -39 47 0 16 -150 79 -195 83 -24 2 -61 -4 -82 -12z m152 -129 c43 -18
76 -42 70 -51 -1 -3 12 -17 31 -31 18 -14 34 -31 34 -38 0 -14 26 -66 46 -92
21 -27 41 -265 24 -285 -5 -7 -7 -14 -4 -17 7 -7 -71 -88 -85 -88 -6 0 -11 -5
-11 -10 0 -6 -7 -13 -16 -17 -10 -3 -29 -18 -43 -33 -14 -14 -48 -44 -76 -65
-27 -22 -65 -55 -83 -73 -33 -33 -59 -35 -44 -4 9 19 8 104 -3 172 -10 63 -62
194 -85 215 -11 10 -20 24 -20 31 0 15 -94 113 -130 136 -14 9 -35 17 -45 20
-17 3 -14 7 15 25 20 12 49 33 65 47 17 14 33 26 38 26 4 0 7 7 7 16 0 9 9 18
20 21 11 3 20 9 20 14 0 5 6 9 14 9 7 0 30 14 51 30 40 32 64 38 66 18 0 -7 5
-1 10 14 15 41 54 44 134 10z m-438 -358 c23 -16 47 -40 55 -54 7 -14 27 -43
45 -66 18 -23 34 -53 35 -68 1 -14 6 -26 10 -26 4 0 12 -19 19 -42 13 -50 6
-245 -10 -261 -6 -6 -11 -18 -11 -27 0 -32 -31 -79 -60 -92 -17 -7 -30 -16
-30 -19 0 -4 -29 -15 -65 -24 -113 -31 -190 -6 -283 92 -60 64 -92 117 -92
151 0 15 -7 45 -14 67 -21 59 -13 140 23 218 16 37 37 70 45 73 8 3 18 14 21
25 4 10 12 19 19 19 8 0 19 7 26 15 7 8 16 12 21 9 5 -3 9 0 9 5 0 6 6 11 14
11 7 0 19 7 26 15 9 10 30 13 83 11 61 -2 79 -7 114 -32z"/>
<path d="M1125 3351 c-6 -5 -17 -11 -25 -13 -32 -7 -50 -44 -46 -94 15 -202
98 -285 224 -228 42 19 77 93 67 139 -4 17 -9 44 -11 62 -6 48 -53 113 -86
120 -16 3 -28 9 -28 14 0 12 -83 11 -95 0z m99 -106 c28 -21 36 -139 10 -149
-9 -4 -25 -4 -34 -1 -19 6 -50 76 -50 112 0 12 -5 25 -10 28 -18 11 0 25 33
25 18 0 41 -7 51 -15z"/>
<path d="M490 2541 c-26 -6 -59 -32 -117 -90 -31 -32 -119 -198 -110 -208 3
-2 1 -19 -3 -37 -12 -53 6 -228 28 -277 11 -24 27 -61 35 -81 15 -35 144 -178
161 -178 4 0 33 -18 63 -40 31 -22 62 -40 69 -40 7 0 19 -6 26 -13 16 -16 81
-47 100 -47 7 0 21 -7 31 -14 10 -8 27 -11 38 -9 33 9 39 -14 39 -137 0 -170
18 -250 56 -250 8 0 14 -5 14 -11 0 -5 4 -8 8 -5 5 3 24 -5 43 -17 19 -12 45
-24 59 -26 14 -2 27 -7 30 -11 11 -18 182 -64 274 -75 16 -2 38 -8 50 -13 48
-22 86 -36 184 -68 57 -18 110 -38 117 -44 8 -7 18 -9 23 -6 5 3 20 -1 34 -8
46 -24 100 -24 191 0 80 20 157 58 157 77 0 4 4 7 10 7 22 0 130 125 130 149
0 15 42 13 125 -5 39 -8 84 -18 102 -21 31 -5 31 -6 29 -56 -2 -28 -7 -52 -12
-54 -5 -2 -9 -39 -9 -83 0 -67 3 -81 20 -95 29 -22 140 -73 175 -80 25 -5 50
-18 50 -26 0 -6 6 -7 13 -2 6 4 64 8 127 9 130 1 298 27 349 53 29 15 37 26
51 79 10 35 20 65 23 68 3 3 18 5 33 4 53 -1 338 0 394 2 30 1 82 -2 115 -6
79 -11 94 -11 129 -1 24 7 28 5 23 -8 -3 -8 -3 -18 1 -22 4 -4 8 -11 8 -16 1
-5 3 -11 4 -14 1 -3 3 -8 4 -12 4 -21 92 -143 103 -143 7 0 13 -4 13 -10 0 -5
7 -10 16 -10 8 0 12 -4 9 -10 -3 -5 2 -10 12 -10 9 0 27 -11 38 -24 34 -39
230 -58 330 -31 33 9 65 15 70 13 6 -2 10 -21 11 -43 1 -116 0 -113 44 -113
22 0 40 3 40 9 0 5 8 9 18 9 10 0 23 5 29 11 8 8 17 1 32 -30 12 -22 19 -41
16 -41 -10 0 26 -74 45 -92 23 -22 24 -22 66 -2 32 15 35 20 31 56 -2 22 -9
43 -16 47 -7 4 -11 12 -10 17 2 5 -7 28 -19 51 -12 23 -22 46 -22 50 0 4 22
23 50 42 27 19 47 38 44 42 -3 5 1 12 9 15 20 7 16 28 -11 57 -17 18 -42 27
-92 36 -38 6 -76 8 -84 5 -10 -4 -16 -1 -16 10 0 11 -5 13 -17 9 -12 -5 -9 2
9 20 30 30 68 122 75 182 3 22 10 45 15 52 5 7 7 17 3 22 -5 10 -12 54 -20
141 -2 19 -4 36 -6 38 -1 1 -2 5 -3 10 -16 60 -29 92 -41 102 -8 7 -15 19 -15
26 0 8 -7 14 -15 14 -8 0 -15 6 -15 13 0 21 -70 71 -120 87 -45 14 -126 15
-145 1 -5 -4 -30 -13 -55 -21 -25 -7 -63 -21 -86 -31 -22 -11 -48 -19 -57 -19
-9 0 -19 -5 -22 -11 -4 -5 -17 -15 -28 -20 -12 -5 -53 -29 -92 -52 l-70 -43
-2 75 c-3 93 -14 122 -56 146 -18 10 -39 26 -47 35 -8 10 -25 20 -37 24 -13 4
-23 10 -23 14 0 4 -17 7 -37 6 -21 -1 -45 2 -55 7 -9 5 -19 5 -22 1 -3 -5 -42
-7 -87 -6 -45 1 -103 -4 -128 -11 -50 -15 -166 -30 -193 -26 -10 1 -18 -3 -18
-8 0 -6 -8 -11 -19 -11 -15 0 -19 8 -19 47 -2 96 -6 101 -97 138 -40 17 -146
20 -260 9 -27 -2 -68 -6 -91 -8 -23 -2 -52 -10 -65 -19 -13 -8 -39 -18 -56
-22 -18 -4 -35 -11 -39 -16 -3 -5 -23 -17 -45 -26 -21 -8 -39 -18 -39 -22 0
-3 -11 -18 -24 -33 -14 -14 -27 -43 -30 -64 -3 -22 -10 -66 -15 -99 -6 -33
-12 -82 -16 -109 -3 -27 -6 -51 -8 -52 -9 -10 -61 -11 -94 -2 -36 9 -59 12
-127 16 -22 2 -27 5 -21 20 12 30 18 75 16 122 -2 63 -4 68 -33 130 -14 30
-33 76 -43 103 -12 33 -23 47 -36 47 -11 0 -19 4 -19 9 0 19 -88 50 -131 46
-24 -2 -48 0 -54 4 -5 5 -17 9 -25 9 -28 2 -116 38 -143 58 -14 12 -39 26 -54
31 -15 6 -44 16 -63 22 -113 40 -281 78 -331 75 -30 -2 -95 -6 -145 -8 -67 -2
-96 -8 -110 -20 -75 -66 -144 -140 -173 -185 -28 -43 -38 -51 -55 -46 -12 4
-48 14 -81 22 -33 9 -67 21 -75 28 -8 7 -35 23 -59 35 -24 12 -53 31 -65 42
-12 10 -35 28 -51 38 -49 30 -145 158 -145 192 0 11 -4 27 -9 37 -6 10 -13 52
-16 95 -6 86 10 164 44 207 10 13 19 28 19 32 2 12 56 67 67 67 5 0 24 13 42
30 23 22 30 35 26 52 -5 20 -37 60 -45 57 -2 -1 -14 -4 -28 -8z m732 -800 c31
-10 42 -9 70 5 43 23 131 20 191 -5 25 -11 48 -17 51 -14 3 3 13 2 23 -2 10
-5 25 -9 33 -11 26 -5 90 -37 90 -45 0 -4 8 -5 18 -2 10 2 28 -5 40 -15 12
-11 36 -25 52 -32 17 -7 30 -15 30 -19 0 -3 -17 -17 -36 -31 -93 -66 -188
-197 -198 -275 -22 -162 -25 -216 -16 -240 14 -38 13 -48 -7 -40 -88 36 -240
79 -368 105 -22 4 -53 14 -70 22 -16 8 -53 25 -82 39 -69 32 -78 55 -77 194 1
138 14 191 59 252 48 63 137 143 150 133 6 -4 27 -13 47 -19z m862 -193 c15
-16 46 -77 46 -92 0 -6 9 -28 19 -48 21 -37 22 -43 21 -118 -1 -62 -11 -70
-78 -64 -93 10 -135 5 -159 -18 -12 -11 -29 -18 -37 -15 -29 11 -17 37 27 56
32 14 43 24 44 42 2 27 -14 52 -39 62 -16 6 -76 -19 -109 -45 -22 -18 -41 -56
-34 -68 3 -6 1 -10 -4 -10 -18 0 -13 -34 12 -83 38 -74 42 -77 104 -73 32 3
59 10 64 18 9 14 159 20 159 6 0 -3 -30 -33 -66 -66 -45 -41 -79 -62 -103 -67
-20 -4 -42 -12 -49 -17 -7 -6 -33 -10 -58 -10 -37 2 -50 8 -82 40 -66 66 -90
104 -93 147 -3 58 29 189 57 231 13 19 24 39 24 44 0 6 5 10 10 10 6 0 20 12
33 26 26 31 127 98 135 90 3 -3 11 -1 19 6 9 8 17 8 24 1 11 -11 59 5 59 20 0
12 40 8 54 -5z m1079 -13 c13 -6 17 -20 19 -69 1 -33 1 -70 1 -81 -1 -11 -2
-36 -3 -55 -1 -19 0 -60 3 -90 3 -30 1 -62 -4 -72 -5 -10 -11 -75 -13 -145 -5
-177 -10 -197 -50 -211 -18 -7 -44 -12 -58 -12 -15 0 -28 -5 -30 -11 -5 -15
-303 -19 -333 -5 -11 5 -24 10 -30 11 -5 1 -30 10 -54 20 -43 19 -43 19 -37
59 3 23 11 86 16 140 6 55 13 103 16 108 6 10 12 59 19 148 2 39 8 76 12 83 4
7 8 14 8 17 6 43 19 80 29 80 7 0 21 9 30 19 10 11 24 17 31 15 7 -3 16 -1 19
5 17 27 218 57 245 37 11 -8 13 -8 8 1 -4 6 -1 14 5 16 16 7 127 1 151 -8z
m710 -159 c20 -9 38 -21 38 -26 3 -19 4 -25 11 -35 3 -5 7 -44 7 -85 1 -41 4
-87 6 -102 3 -26 -14 -90 -28 -104 -4 -4 -7 -17 -7 -30 0 -29 -16 -34 -76 -23
-27 6 -116 7 -199 3 -177 -7 -275 -5 -305 6 -3 1 -14 3 -25 4 -18 1 -20 9 -21
81 -1 44 3 91 8 105 5 14 9 45 9 70 -1 76 8 99 37 106 15 3 34 8 42 12 20 8
43 11 125 16 38 3 71 9 73 14 5 17 262 7 305 -12z m697 -89 c33 -16 100 -86
105 -111 14 -64 32 -174 30 -186 -1 -8 -6 -42 -10 -74 -4 -34 -17 -75 -30 -96
-25 -39 -88 -110 -99 -110 -3 0 -24 -11 -45 -24 -41 -26 -93 -37 -178 -38 -42
-1 -64 6 -110 34 -32 18 -62 43 -68 53 -5 11 -16 20 -24 20 -7 0 -27 24 -44
54 -26 46 -31 65 -31 125 -1 117 34 198 103 233 19 10 42 24 49 31 7 6 21 12
29 12 9 0 24 6 32 13 9 7 41 24 71 37 30 13 59 27 63 31 14 11 131 8 157 -4z"/>
</g>
</svg>
