<?xml version="1.0" standalone="no"?>
<!DOCTYPE svg PUBLIC "-//W3C//DTD SVG 20010904//EN"
 "http://www.w3.org/TR/2001/REC-SVG-20010904/DTD/svg10.dtd">
<svg version="1.0" xmlns="http://www.w3.org/2000/svg"
 width="519.000000pt" height="461.000000pt" viewBox="0 0 519.000000 461.000000"
 preserveAspectRatio="xMidYMid meet">
<metadata>
Created by potrace 1.16, written by Peter Selinger 2001-2019
</metadata>
<g transform="translate(0.000000,461.000000) scale(0.100000,-0.100000)"
fill="#000000" stroke="none">
<path d="M260 4311 c0 -5 -12 -12 -26 -15 -17 -5 -24 -12 -20 -21 3 -8 1 -17
-4 -20 -5 -3 -4 -19 2 -38 7 -20 12 -169 13 -392 2 -198 5 -389 8 -425 3 -36
8 -148 12 -250 3 -102 8 -205 10 -230 5 -51 14 -385 19 -750 2 -135 6 -265 10
-290 4 -25 8 -232 8 -460 0 -556 0 -572 -11 -622 -5 -23 -13 -82 -17 -130 l-7
-88 47 -44 46 -45 82 2 c46 1 234 -2 418 -6 474 -10 1397 -11 1990 -2 278 4
553 8 612 9 117 1 147 13 149 58 0 13 2 43 4 68 3 25 7 137 9 250 3 113 6 234
7 270 2 88 -12 120 -50 120 -16 0 -33 -6 -38 -12 -4 -7 -8 -125 -9 -263 -2
-298 -10 -382 -34 -395 -10 -5 -89 -12 -175 -15 -86 -3 -161 -7 -165 -10 -5
-3 -26 -2 -47 1 -21 4 -42 6 -48 5 -56 -9 -218 -17 -290 -13 -147 8 -206 7
-710 -8 -115 -4 -1404 18 -1435 24 -14 3 -70 7 -124 10 -55 3 -103 9 -109 15
-5 5 -6 33 -3 63 9 79 9 87 2 168 -3 41 -8 212 -11 380 -4 285 -11 514 -21
655 -2 33 -6 166 -9 295 -3 129 -7 300 -10 380 -4 80 -8 206 -10 280 -2 74 -7
200 -11 280 -12 238 -10 1088 1 1099 8 8 37 7 95 -3 47 -7 126 -14 175 -15 50
-1 114 -6 143 -12 28 -6 109 -12 180 -14 296 -9 434 -20 462 -35 10 -6 36 -9
57 -9 21 1 81 -3 133 -9 52 -7 122 -11 155 -11 33 0 134 -6 225 -15 188 -17
269 -23 460 -36 74 -4 144 -10 155 -13 36 -8 129 -20 185 -22 30 -2 87 -6 125
-9 95 -8 217 -17 235 -17 8 0 38 -5 65 -9 50 -9 178 -25 290 -36 64 -6 123
-21 142 -36 7 -5 16 -8 20 -5 8 5 9 -66 3 -188 -5 -95 -2 -113 21 -125 57 -31
90 18 84 125 -2 33 -4 99 -4 147 0 48 -5 89 -11 93 -5 3 -10 15 -10 26 0 11
-7 22 -15 24 -8 3 -23 8 -32 12 -26 9 -46 13 -63 13 -119 -4 -230 3 -250 15
-16 10 -87 19 -133 17 -26 -2 -66 2 -88 8 -22 6 -95 13 -162 16 -161 7 -221
11 -287 18 -30 3 -91 8 -135 11 -44 3 -111 10 -150 15 -38 6 -128 13 -200 15
-182 7 -297 16 -317 27 -10 4 -75 9 -145 10 -71 1 -146 5 -168 10 -22 6 -67
11 -100 14 -33 2 -103 8 -155 13 -99 10 -378 30 -515 36 -44 3 -98 7 -120 9
-22 3 -64 8 -94 11 -29 3 -56 7 -60 9 -3 2 -37 7 -76 11 -38 4 -88 13 -110 21
-47 16 -65 18 -65 5z"/>
<path d="M3290 4230 c0 -5 4 -10 9 -10 6 0 13 5 16 10 3 6 -1 10 -9 10 -9 0
-16 -4 -16 -10z"/>
<path d="M698 3972 c-33 -4 -30 22 -30 -277 0 -115 2 -232 6 -260 3 -27 9 -79
12 -115 3 -36 11 -92 19 -125 7 -33 16 -89 20 -125 4 -35 8 -67 11 -71 2 -4 8
-33 14 -66 13 -78 36 -189 50 -238 7 -22 20 -78 31 -125 11 -47 23 -94 28
-105 11 -24 51 -157 51 -168 0 -4 16 -48 35 -97 19 -49 35 -99 35 -110 0 -33
30 -70 56 -70 13 0 24 3 25 8 7 46 4 94 -6 127 -7 22 -14 89 -14 149 -1 61 -4
113 -7 118 -12 19 -19 389 -8 453 2 17 4 75 4 131 -1 61 4 116 13 141 7 21 15
68 16 104 1 35 9 95 17 132 8 38 14 96 15 130 1 54 2 58 10 32 5 -16 9 -68 8
-115 -2 -47 0 -98 4 -115 3 -16 9 -48 12 -70 3 -22 7 -47 10 -55 5 -17 15 -81
29 -190 4 -25 11 -54 16 -65 5 -11 18 -60 29 -110 17 -77 56 -202 78 -255 4
-8 7 -19 8 -25 0 -5 3 -14 7 -20 3 -5 13 -32 21 -60 17 -56 72 -200 87 -227 6
-10 10 -29 10 -42 0 -14 6 -31 13 -38 7 -7 16 -21 20 -31 5 -14 13 -17 29 -12
43 13 51 28 38 71 -12 43 -42 363 -34 375 2 5 7 86 9 181 6 186 12 258 23 258
4 -1 19 -20 34 -43 32 -51 106 -137 118 -137 5 0 22 -12 38 -27 46 -43 85 -69
112 -78 14 -4 28 -12 31 -18 4 -5 18 -9 33 -9 14 0 26 -4 26 -9 0 -5 17 -16
38 -25 71 -30 228 -14 329 34 33 15 39 14 88 -18 62 -40 117 -62 125 -50 4 7
10 8 13 3 3 -5 30 -8 59 -6 130 8 277 10 286 4 5 -3 12 -33 15 -66 17 -182 58
-375 87 -411 7 -8 10 -14 6 -14 -11 0 42 -94 71 -125 15 -17 48 -44 72 -60 24
-17 66 -49 92 -72 26 -24 51 -43 57 -43 14 0 55 -57 87 -120 15 -30 41 -69 58
-86 18 -17 50 -55 72 -83 22 -29 52 -65 67 -81 15 -17 25 -30 21 -30 -7 0 68
-94 79 -98 5 -2 8 -8 8 -14 0 -6 13 -27 29 -47 15 -20 35 -52 43 -71 9 -19 23
-53 33 -75 10 -22 25 -48 34 -59 9 -10 15 -21 15 -25 -1 -3 2 -16 7 -29 5 -13
9 -30 9 -38 0 -8 3 -14 8 -14 4 0 16 -27 26 -61 11 -33 26 -68 33 -77 7 -9 13
-27 13 -40 0 -13 9 -41 19 -62 10 -22 24 -63 31 -92 7 -29 16 -57 20 -63 11
-14 70 -194 67 -204 -4 -15 43 -71 59 -71 8 0 19 11 24 25 5 14 14 25 19 25
12 0 -7 72 -22 81 -13 9 -36 71 -48 129 -5 25 -17 65 -28 90 -11 25 -27 70
-36 100 -9 30 -24 63 -32 73 -9 9 -13 17 -8 17 4 0 3 6 -3 13 -6 6 -14 30 -18
51 -4 22 -25 78 -46 125 -22 47 -48 106 -59 131 -28 63 -63 133 -72 145 -4 5
-30 43 -57 84 -26 41 -64 91 -82 110 -19 20 -50 59 -68 86 -19 28 -38 55 -42
60 -38 50 -56 75 -72 107 -10 20 -27 46 -37 57 -11 11 -19 25 -19 31 0 15 -89
109 -120 125 -14 8 -38 26 -55 40 -16 15 -42 33 -56 40 -31 16 -89 87 -111
135 -57 123 -76 221 -85 446 -5 138 -3 170 11 215 20 59 66 119 122 157 30 20
41 23 55 13 10 -6 27 -11 38 -11 26 0 50 -76 66 -210 10 -87 22 -126 46 -151
13 -14 38 -42 54 -63 17 -20 44 -44 60 -53 17 -9 32 -19 35 -22 3 -3 30 -18
60 -32 48 -23 59 -34 79 -78 22 -46 28 -51 57 -51 35 0 55 17 35 30 -9 5 -9
13 0 34 12 26 10 29 -47 84 -32 32 -70 65 -84 74 -28 18 -28 18 65 -2 28 -6
89 -15 135 -21 47 -5 99 -12 115 -14 17 -2 53 -6 80 -8 53 -5 160 -18 185 -22
8 -2 53 -10 100 -19 47 -8 103 -17 126 -20 22 -2 56 -7 75 -11 19 -3 59 -8 89
-9 30 -2 74 -9 96 -16 40 -12 42 -14 47 -64 7 -71 -7 -197 -26 -235 -9 -18
-13 -39 -10 -47 3 -7 0 -14 -7 -14 -6 0 -9 -4 -5 -9 3 -6 -4 -36 -16 -68 -11
-32 -21 -64 -22 -70 0 -7 -3 -13 -6 -13 -18 0 -55 -138 -42 -155 5 -5 14 -28
21 -49 7 -22 23 -58 36 -80 13 -23 30 -54 38 -71 8 -16 23 -41 34 -55 21 -26
94 -177 107 -217 3 -13 10 -23 14 -23 7 0 22 -48 20 -63 0 -1 13 -31 29 -67
30 -65 61 -149 67 -182 5 -25 36 -54 65 -61 31 -7 62 29 55 64 -6 30 -34 90
-52 111 -8 9 -16 22 -17 30 -6 34 -52 145 -87 210 -5 10 -9 25 -9 33 0 8 -4
15 -10 15 -5 0 -10 8 -10 17 0 9 -6 24 -14 32 -14 15 -70 118 -142 263 -19 36
-34 80 -34 97 0 17 15 61 34 98 35 70 65 168 72 238 3 22 9 62 14 88 6 26 10
85 10 131 0 45 2 85 5 88 3 2 33 1 67 -4 131 -18 269 -21 295 -7 36 19 65 81
54 112 -6 14 -7 27 -4 30 3 3 -9 19 -26 36 -22 21 -47 33 -86 40 -30 6 -65 17
-77 25 -13 7 -48 17 -79 20 -62 8 -170 39 -170 49 4 44 -1 58 -24 67 -22 8
-24 12 -13 34 8 20 8 29 -2 41 -8 9 -28 44 -46 78 -19 34 -43 80 -55 102 -58
108 -130 202 -196 255 -97 79 -176 127 -225 140 -24 7 -49 17 -55 22 -7 6 -23
8 -35 5 -16 -5 -42 7 -93 42 -38 26 -84 53 -101 60 -35 14 -121 14 -260 2 -7
-1 -14 -10 -17 -22 -5 -17 -10 -19 -29 -12 -33 12 -264 7 -318 -7 -25 -6 -56
-14 -70 -17 -14 -2 -32 -7 -40 -10 -8 -4 -18 -6 -21 -5 -12 2 -99 -88 -99
-102 0 -14 -48 -26 -134 -32 -27 -2 -56 -10 -65 -18 -9 -8 -28 -18 -43 -21
-16 -4 -28 -11 -28 -16 0 -5 -6 -9 -14 -9 -20 0 -62 -59 -88 -124 -21 -50 -26
-56 -53 -57 -16 0 -58 -3 -93 -5 -60 -4 -64 -3 -88 25 -32 38 -99 75 -161 90
-54 13 -174 18 -190 8 -12 -8 -148 -22 -213 -22 -73 0 -135 12 -182 36 -48 24
-104 68 -101 79 3 10 -75 32 -87 25 -5 -3 -23 -25 -39 -49 -29 -42 -29 -43
-35 -232 -4 -104 -7 -278 -8 -386 -1 -109 -5 -194 -9 -190 -17 20 -144 400
-154 462 -4 25 -16 83 -27 130 -24 102 -25 106 -37 242 -5 58 -12 111 -16 117
-11 18 -6 351 7 418 9 52 9 66 -5 96 -18 37 -38 50 -62 41 -8 -4 -15 -7 -16
-8 0 0 -6 -35 -14 -76 -7 -41 -18 -95 -25 -120 -6 -25 -15 -72 -20 -105 -5
-33 -21 -125 -35 -205 -15 -80 -26 -176 -26 -215 0 -38 -4 -110 -9 -160 -11
-98 -16 -448 -7 -533 3 -29 2 -65 -2 -78 -5 -21 -11 -11 -33 58 -37 114 -137
556 -136 598 1 8 -6 65 -15 125 -41 278 -51 550 -24 615 11 25 12 39 2 66 -15
44 -23 51 -57 46z m3182 -544 c39 -10 62 -23 117 -68 7 -6 17 -10 23 -10 14 0
61 -42 139 -124 56 -58 150 -199 169 -253 5 -15 15 -27 22 -25 7 1 18 -5 26
-15 8 -11 13 -13 14 -5 0 6 9 12 19 12 42 0 28 62 -27 120 -13 14 -47 59 -76
100 -30 41 -65 88 -80 103 -14 15 -26 30 -26 32 0 9 55 -20 63 -32 4 -7 13
-13 20 -13 16 0 127 -103 127 -118 0 -6 12 -25 28 -41 54 -59 47 -45 103 -201
11 -30 24 -59 29 -64 6 -6 10 -19 10 -31 0 -11 6 -29 14 -40 7 -11 16 -30 20
-41 6 -20 5 -21 -36 -12 -24 4 -74 13 -113 18 -38 4 -83 13 -98 19 -16 6 -43
11 -60 11 -18 1 -50 8 -72 16 -22 8 -74 17 -115 20 -41 3 -89 10 -106 15 -18
5 -51 12 -75 15 -23 3 -50 9 -60 15 -10 5 -33 9 -51 9 -34 0 -171 23 -198 33
-8 3 -37 8 -63 11 -27 3 -55 10 -61 15 -7 6 -15 8 -18 5 -3 -3 -23 2 -44 12
-44 19 -67 25 -104 27 -21 2 -28 10 -41 55 -25 79 -42 98 -96 111 -26 7 -59
18 -72 25 -23 13 -28 10 -98 -63 -41 -42 -71 -67 -67 -57 6 16 4 18 -10 13
-13 -5 -17 -3 -13 7 5 11 -14 16 -98 21 -116 8 -113 5 -68 80 19 31 36 44 76
58 81 29 135 38 227 36 47 -1 103 3 125 9 83 22 171 25 206 8 18 -9 37 -16 44
-16 6 0 36 -25 67 -55 53 -53 98 -131 98 -173 0 -28 24 -44 54 -36 17 4 26 13
27 28 3 62 -5 106 -26 153 -13 28 -20 54 -17 58 4 4 2 5 -5 3 -7 -2 -32 17
-55 42 -53 56 -117 100 -145 100 -12 0 -24 4 -27 8 -6 10 -87 7 -162 -7 -87
-16 -87 -12 0 15 94 28 252 37 326 18 66 -17 129 -51 170 -91 170 -166 201
-200 229 -250 9 -15 22 -32 29 -36 7 -4 19 -24 26 -42 19 -44 72 -78 98 -64
11 6 22 17 25 25 6 16 -35 79 -99 153 -21 24 -38 47 -38 51 0 9 -122 142 -169
184 -19 17 -51 47 -71 68 -35 34 -36 37 -17 45 31 14 58 14 107 1z m-2265
-288 c22 -11 45 -19 51 -20 6 0 31 -10 55 -22 25 -13 51 -24 58 -26 45 -10
261 4 348 22 65 14 116 10 171 -15 37 -16 40 -29 13 -53 -27 -24 -51 -99 -51
-158 0 -26 -4 -48 -10 -48 -5 0 -10 -7 -10 -15 0 -8 -7 -15 -16 -15 -8 0 -25
-6 -37 -12 -38 -22 -106 -35 -160 -32 -90 5 -240 79 -322 159 -43 41 -127 183
-138 233 -6 27 -3 27 48 2z m1163 -170 c39 0 122 -31 122 -46 0 -8 -9 -41 -21
-73 -11 -33 -19 -66 -18 -73 4 -31 -2 -82 -9 -72 -12 19 -84 35 -99 23 -7 -7
-69 -12 -150 -12 -185 -2 -219 16 -238 130 -9 58 21 109 71 119 18 3 40 4 48
1 8 -3 27 -2 43 3 15 5 73 7 128 5 55 -3 110 -5 123 -5z m662 -150 c58 -18
222 -52 265 -56 42 -3 118 -16 195 -33 25 -5 47 -8 51 -6 6 4 113 -13 244 -38
39 -8 90 -15 114 -16 24 -1 52 -6 61 -11 10 -5 32 -11 51 -13 19 -3 81 -15
139 -27 58 -12 129 -23 157 -25 29 -1 58 -7 65 -12 7 -6 54 -18 103 -28 85
-16 195 -58 195 -75 0 -4 -7 -14 -17 -21 -22 -19 -197 -15 -278 6 -33 9 -80
18 -105 20 -25 2 -67 6 -95 9 -27 4 -81 8 -120 11 -38 2 -119 14 -180 26 -145
28 -134 26 -184 34 -24 4 -55 8 -70 10 -238 25 -360 45 -484 79 -70 19 -124
21 -130 4 -3 -9 -12 -4 -26 12 -27 31 -64 100 -58 107 3 2 1 18 -3 34 l-9 30
42 -6 c23 -2 58 -9 77 -15z"/>
</g>
</svg>
