<?xml version="1.0" standalone="no"?>
<!DOCTYPE svg PUBLIC "-//W3C//DTD SVG 20010904//EN"
 "http://www.w3.org/TR/2001/REC-SVG-20010904/DTD/svg10.dtd">
<svg version="1.0" xmlns="http://www.w3.org/2000/svg"
 width="505.000000pt" height="457.000000pt" viewBox="0 0 505.000000 457.000000"
 preserveAspectRatio="xMidYMid meet">
<metadata>
Created by potrace 1.16, written by Peter Selinger 2001-2019
</metadata>
<g transform="translate(0.000000,457.000000) scale(0.100000,-0.100000)"
fill="#000000" stroke="none">
<path d="M3440 4440 c0 -5 -6 -10 -14 -10 -18 0 -30 -65 -21 -122 7 -49 11
-87 20 -208 4 -47 11 -103 16 -125 6 -22 12 -49 14 -60 2 -11 13 -47 25 -80
12 -33 23 -67 24 -75 1 -8 7 -24 13 -35 6 -11 14 -33 18 -50 5 -16 9 -32 10
-35 1 -3 9 -22 18 -44 9 -21 17 -41 17 -45 0 -4 9 -18 19 -31 11 -14 43 -56
70 -93 41 -56 164 -167 186 -167 12 0 125 -133 125 -148 0 -6 6 -12 13 -15 7
-2 24 -36 37 -73 22 -61 25 -85 25 -209 0 -109 -4 -148 -16 -175 -41 -87 -57
-127 -64 -160 -7 -35 -59 -138 -98 -195 -26 -38 -124 -135 -136 -135 -5 0 -36
-20 -70 -45 -34 -25 -61 -43 -61 -41 0 5 -40 -27 -77 -61 -13 -13 -28 -23 -33
-23 -6 0 -10 -4 -10 -10 0 -5 -5 -10 -12 -10 -6 0 -18 -6 -27 -14 -9 -8 -43
-39 -76 -68 -33 -30 -75 -60 -92 -67 -18 -8 -33 -20 -33 -28 0 -11 -18 -13
-102 -8 -57 3 -130 12 -163 20 -33 8 -82 17 -110 21 -51 6 -175 60 -175 75 0
5 -7 9 -16 9 -9 0 -30 7 -47 16 -18 9 -39 20 -47 24 -8 3 -23 21 -32 40 -9 18
-21 37 -27 43 -7 7 -1 25 16 56 15 25 30 48 33 51 3 3 11 16 18 30 7 14 26 43
42 65 16 22 46 74 67 115 20 41 46 89 58 105 28 40 80 176 97 253 10 48 11 87
5 160 -5 53 -12 99 -16 102 -4 3 -8 20 -9 39 -2 19 -9 48 -17 65 -7 17 -19 50
-24 72 -6 23 -18 48 -27 55 -8 7 -24 29 -34 50 -11 20 -26 43 -33 51 -8 8 -21
27 -30 43 -8 17 -33 48 -54 70 -22 22 -54 72 -73 110 -18 39 -37 72 -40 75 -4
3 -10 21 -13 40 -3 19 -12 60 -22 90 -9 30 -20 71 -25 90 -5 19 -14 54 -19 78
-24 93 -22 256 4 393 8 41 -12 69 -47 69 -23 0 -57 -34 -60 -59 -2 -23 -3 -31
-12 -76 -11 -54 -14 -222 -5 -260 4 -16 13 -66 19 -110 7 -44 17 -86 22 -92 6
-7 7 -13 3 -13 -4 0 -2 -6 4 -14 6 -7 12 -26 13 -42 1 -16 5 -33 8 -39 4 -5
10 -25 14 -44 5 -31 43 -119 56 -131 3 -3 16 -25 28 -50 13 -25 38 -63 57 -83
19 -21 35 -43 35 -48 0 -6 6 -17 13 -24 29 -33 68 -91 67 -100 -1 -4 8 -14 18
-23 20 -18 73 -164 79 -216 13 -117 14 -155 3 -214 -17 -104 -44 -173 -99
-257 -15 -22 -38 -62 -51 -88 -44 -86 -51 -97 -61 -97 -5 0 -9 -5 -9 -11 0 -7
-16 -32 -36 -56 l-37 -44 -18 40 c-29 65 -87 128 -140 150 -26 12 -54 21 -61
21 -19 0 -128 -53 -128 -62 0 -8 -17 -30 -57 -74 -13 -14 -23 -31 -23 -39 0
-15 -42 -65 -94 -113 -17 -15 -41 -38 -56 -52 -14 -14 -45 -38 -70 -54 -25
-16 -49 -35 -53 -42 -4 -8 -40 -33 -80 -56 -40 -23 -85 -51 -102 -63 -49 -33
-68 -44 -105 -61 -19 -9 -48 -23 -65 -31 -16 -8 -50 -22 -75 -30 -25 -9 -75
-31 -112 -49 -38 -19 -68 -31 -68 -27 0 5 -4 3 -8 -3 -11 -18 -102 -60 -157
-73 -27 -7 -85 -32 -127 -56 -43 -25 -84 -45 -92 -45 -7 0 -19 -7 -26 -15 -7
-8 -17 -15 -22 -15 -8 0 -74 -45 -88 -60 -3 -3 -34 -25 -70 -49 -69 -47 -147
-127 -166 -170 -14 -30 -49 -124 -49 -131 0 -3 -4 -10 -8 -17 -9 -14 -20 -209
-18 -333 1 -106 29 -168 109 -246 69 -68 152 -107 269 -129 99 -18 323 -25
431 -14 37 4 117 10 177 13 117 6 257 22 315 35 19 4 45 7 58 6 12 -1 22 1 22
5 0 8 139 30 170 27 14 -2 30 -1 35 2 22 12 55 11 55 -1 1 -9 4 -8 13 3 7 9
23 18 37 21 14 4 54 15 90 26 69 20 337 37 495 31 44 -2 151 -3 239 -2 l158 1
-4 -48 c-3 -26 0 -53 6 -61 17 -23 60 -38 78 -28 18 10 147 12 423 6 110 -2
211 0 224 5 13 4 50 10 83 13 61 4 74 7 193 49 125 43 169 61 185 74 8 7 31
23 50 35 44 28 87 106 94 172 7 67 17 129 22 136 2 4 0 20 -5 35 -8 27 -31
145 -37 189 -3 24 -60 163 -74 180 -17 21 -38 166 -35 245 4 96 13 198 20 230
27 121 29 385 3 404 -8 6 -19 26 -23 45 -4 18 -24 50 -46 72 -35 35 -45 41
-66 38 -3 0 -10 6 -15 15 -5 9 -13 16 -18 16 -5 0 -20 4 -34 10 -25 9 -25 10
-9 29 9 11 18 27 19 36 2 15 15 47 45 110 5 11 27 74 49 139 62 183 62 312 0
502 -12 33 -29 70 -40 82 -11 12 -20 24 -20 28 0 23 -163 197 -175 186 -3 -3
-5 0 -5 6 0 7 -6 12 -13 12 -7 0 -19 9 -27 20 -8 11 -20 20 -27 20 -7 0 -13 4
-13 8 0 4 -17 27 -38 50 -50 54 -142 236 -142 278 0 13 -3 24 -7 24 -12 0 -51
127 -60 190 -2 19 -8 44 -13 55 -11 26 -30 310 -23 353 3 20 1 32 -6 32 -6 0
-11 7 -11 15 0 10 -10 15 -30 15 -16 0 -30 -4 -30 -10z m-1225 -2210 c-8 -13
1 -13 25 0 32 17 16 -54 -26 -113 -53 -74 -108 -134 -170 -184 -21 -17 -59
-51 -84 -75 -39 -37 -122 -98 -134 -98 -2 0 -18 -12 -35 -27 -17 -16 -54 -38
-83 -49 l-52 -21 -23 23 c-13 13 -23 25 -23 28 0 2 26 19 58 37 31 18 100 66
153 106 52 40 98 73 102 73 17 0 207 206 207 224 0 9 76 86 85 86 3 0 3 -4 0
-10z m135 -160 c-5 -10 -10 -27 -10 -36 0 -10 -9 -27 -19 -39 -95 -99 -195
-195 -239 -229 -30 -23 -72 -56 -95 -74 -52 -41 -169 -98 -220 -107 -29 -6
-42 -3 -57 10 -15 14 -17 21 -9 32 6 7 15 13 20 13 14 0 142 85 158 104 8 10
35 32 60 49 25 17 70 55 98 84 29 29 59 53 66 53 16 0 109 105 132 150 10 19
32 51 49 71 l31 35 23 -48 c16 -37 20 -54 12 -68z m1580 91 c0 -5 18 -12 39
-16 22 -4 45 -13 52 -21 6 -8 17 -14 24 -14 19 0 42 -32 48 -68 6 -30 2 -38
-48 -87 -56 -57 -204 -138 -276 -151 -19 -4 -38 -10 -44 -14 -13 -10 -75 -18
-205 -26 l-105 -6 36 33 c69 66 161 143 192 162 18 11 34 23 35 28 2 5 10 9
18 9 8 0 14 4 14 9 0 5 26 26 58 45 31 20 77 56 102 81 44 44 60 54 60 36z
m-1539 -212 c-22 -42 -38 -62 -113 -139 -27 -27 -48 -52 -48 -57 0 -4 -16 -22
-36 -38 -20 -17 -62 -54 -93 -83 -31 -29 -76 -62 -101 -74 -25 -11 -47 -24
-50 -29 -3 -5 -24 -7 -45 -5 -22 2 -53 4 -69 5 -35 1 -26 12 24 31 33 12 89
51 210 143 27 20 53 37 57 37 7 0 53 42 79 72 6 7 22 22 35 33 13 12 38 38 54
60 17 21 37 44 45 51 72 61 85 60 51 -7z m73 -84 c-9 -19 -20 -35 -25 -35 -5
0 -9 -5 -9 -11 0 -11 -75 -89 -85 -89 -5 0 -18 -10 -48 -36 -21 -18 -110 -64
-116 -59 -6 6 65 75 78 75 5 0 11 4 13 10 4 12 90 111 147 168 37 37 46 41 53
28 6 -10 3 -28 -8 -51z m1656 -45 c0 -27 -3 -30 -29 -30 -24 0 -46 -16 -105
-75 -41 -41 -79 -75 -84 -75 -13 0 -22 -39 -11 -46 5 -3 35 17 67 44 31 27 67
53 79 56 12 4 32 20 43 37 29 40 38 36 30 -13 -10 -60 -20 -79 -38 -76 -9 2
-17 -1 -17 -7 0 -5 -24 -38 -53 -73 -29 -35 -61 -80 -71 -100 -11 -20 -31 -47
-45 -59 -14 -12 -29 -35 -32 -50 -4 -15 -23 -62 -41 -103 -19 -41 -38 -84 -43
-95 -10 -24 -78 -173 -91 -197 -5 -10 -9 -23 -9 -29 0 -6 -6 -25 -14 -42 -33
-78 -56 -141 -56 -159 0 -11 -9 -40 -20 -66 -11 -26 -18 -56 -17 -66 2 -16 -5
-20 -42 -22 l-44 -3 7 70 c7 77 22 155 37 182 7 14 5 17 -14 17 -20 0 -25 -8
-37 -52 -7 -29 -15 -64 -16 -78 -2 -14 -8 -53 -15 -87 -9 -53 -15 -63 -33 -64
-11 -1 -39 -4 -61 -6 -145 -13 -529 -21 -750 -15 -33 1 -101 0 -151 -4 -91 -5
-91 -5 -90 18 1 13 -4 34 -10 47 -7 13 -11 32 -9 42 2 11 0 19 -4 19 -4 0 -8
6 -9 13 -8 121 -9 178 -1 182 5 4 32 6 60 7 55 0 63 8 60 61 -1 18 -3 104 -5
192 -1 88 -3 168 -4 177 -3 30 -43 31 -105 3 -42 -18 -59 -22 -61 -13 -12 45
-31 102 -54 157 -17 43 -23 66 -15 68 65 22 343 248 343 279 0 36 61 41 94 8
9 -8 16 -12 16 -8 0 3 6 2 13 -4 32 -26 89 -51 143 -62 32 -7 66 -15 74 -17 8
-3 22 -7 30 -8 8 -2 26 -6 40 -10 32 -8 72 -12 190 -20 52 -4 98 -9 101 -11
17 -10 416 -2 459 9 8 2 41 9 73 17 31 7 57 17 57 22 0 4 8 8 18 8 10 0 27 7
38 15 10 8 25 15 33 15 8 0 47 20 89 45 41 25 81 45 88 45 8 0 14 5 14 10 0 6
2 10 5 10 3 0 5 -13 5 -30z m-2610 -189 c0 -10 29 -44 67 -77 37 -32 77 -68
89 -79 23 -23 112 -55 150 -55 47 0 73 -46 103 -182 l19 -88 -34 -6 c-21 -4
-40 -2 -48 5 -11 10 -20 6 -40 -16 -16 -17 -24 -34 -20 -43 6 -15 13 -65 19
-135 14 -189 19 -226 28 -232 17 -10 70 -9 109 4 l37 12 7 -47 c4 -27 2 -64
-5 -90 -6 -24 -9 -48 -6 -53 4 -5 -2 -10 -12 -11 -35 -3 -48 -5 -98 -11 -155
-22 -401 -32 -410 -17 -4 6 -8 72 -9 148 -2 75 -8 150 -14 165 -7 16 -12 40
-12 55 0 15 -7 36 -15 46 -8 11 -15 39 -15 62 0 26 -6 49 -16 59 -9 8 -18 35
-21 58 -7 50 -9 53 -93 147 -102 114 -121 130 -222 185 -22 12 -23 22 -3 22 9
0 57 20 108 45 51 25 112 55 137 66 25 10 77 33 115 50 84 36 105 39 105 13z
m650 -26 c-7 -9 -15 -13 -17 -11 -7 7 7 26 19 26 6 0 6 -6 -2 -15z m1924 -92
c-4 -42 -12 -71 -20 -76 -8 -5 -28 -36 -45 -70 -18 -34 -35 -64 -38 -67 -8 -6
-41 -74 -41 -84 0 -4 -16 -29 -35 -57 -19 -28 -44 -83 -56 -122 -11 -40 -27
-81 -34 -92 -7 -12 -23 -57 -35 -100 -12 -44 -28 -91 -36 -105 -7 -14 -18 -51
-24 -83 -12 -61 -29 -78 -74 -75 -21 2 -24 6 -20 28 27 162 38 211 55 247 10
24 19 49 19 57 0 16 19 64 62 156 16 36 43 94 60 130 44 95 97 199 108 213 6
7 24 28 40 47 16 19 30 39 30 43 0 15 59 66 87 76 2 1 0 -29 -3 -66z m-1929
-85 c24 -40 65 -146 65 -170 0 -18 -5 -20 -90 -38 -30 -6 -76 -20 -102 -30
-27 -10 -50 -15 -53 -11 -2 4 -14 50 -25 102 -11 52 -23 102 -26 112 -4 14 1
17 29 17 18 0 37 3 41 8 7 6 108 38 131 41 6 0 20 -14 30 -31z m-1185 -17 c0
-5 20 -14 45 -21 25 -7 45 -16 45 -20 0 -4 17 -15 38 -26 38 -20 54 -34 125
-118 23 -27 51 -59 63 -71 14 -14 23 -39 26 -73 3 -33 13 -61 25 -75 18 -19
44 -116 45 -167 0 -8 9 -46 19 -83 11 -42 15 -77 10 -90 -7 -20 -10 -46 -15
-127 -1 -32 -13 -40 -57 -40 -33 0 -37 3 -43 31 -3 17 -6 55 -6 83 0 58 -11
82 -33 73 -12 -4 -16 -22 -16 -77 0 -106 -4 -112 -59 -108 -40 3 -47 6 -45 23
2 11 -4 81 -12 155 -8 74 -16 149 -18 165 -1 17 -13 51 -25 77 -13 25 -25 59
-28 75 -3 15 -12 37 -19 48 -8 11 -27 38 -43 60 -15 22 -31 48 -35 58 -6 16
-98 67 -122 67 -6 0 -18 9 -27 19 -13 15 -25 18 -56 14 -49 -7 -64 11 -31 35
13 9 28 16 32 14 4 -1 31 -5 60 -8 62 -6 122 -33 122 -54 0 -23 37 -18 45 6
10 25 5 33 -38 63 -32 23 -50 29 -86 30 -16 1 -16 3 -5 17 26 32 119 67 119
45z m3121 -116 c0 -27 4 -59 8 -70 6 -14 2 -24 -16 -38 -12 -10 -23 -26 -23
-34 0 -9 -11 -35 -24 -57 -12 -23 -36 -74 -51 -113 -16 -40 -32 -73 -37 -73
-4 0 -8 -8 -8 -17 0 -10 -9 -32 -19 -49 -16 -26 -33 -75 -37 -109 0 -5 -6 -21
-11 -35 -6 -14 -14 -40 -18 -57 -3 -18 -10 -33 -15 -33 -4 0 -22 -3 -39 -6
l-31 -6 4 58 c2 33 13 82 24 109 10 28 25 75 32 105 7 30 26 82 42 115 15 33
28 67 28 76 0 9 18 48 40 85 22 38 40 74 40 81 0 7 4 13 8 13 5 0 17 18 27 40
10 22 21 40 25 40 4 0 13 11 20 25 18 34 29 15 31 -50z m-1705 -202 c1 -83 5
-156 8 -161 7 -12 -63 -42 -82 -34 -10 3 -13 24 -11 76 1 42 -4 95 -14 131
-10 32 -17 68 -17 80 0 23 63 64 95 62 19 -2 20 -10 21 -154z m-1660 127 c11
0 34 -11 50 -25 16 -14 37 -25 47 -25 18 0 79 -37 85 -51 1 -3 16 -21 32 -39
17 -19 30 -37 30 -42 0 -4 7 -8 15 -8 8 0 15 -6 15 -14 0 -7 7 -27 15 -42 8
-16 15 -36 15 -44 0 -9 4 -20 9 -25 11 -13 38 -141 46 -223 3 -36 1 -87 -5
-119 l-12 -55 -101 6 c-56 3 -113 8 -127 10 -14 3 -45 8 -70 11 -47 7 -144 33
-170 45 -8 4 -33 16 -54 26 -57 28 -90 96 -105 220 -5 38 -5 76 -1 84 4 8 10
34 14 57 6 48 53 145 90 187 14 16 26 27 26 23 0 -3 14 8 30 25 27 26 36 30
68 24 20 -3 46 -6 58 -6z m1504 -80 c0 -37 -4 -50 -15 -50 -34 0 -54 -94 -25
-117 8 -7 27 -13 43 -13 22 0 27 -5 29 -25 0 -14 1 -29 2 -34 1 -14 -119 -75
-177 -91 -41 -11 -50 -11 -58 1 -14 23 -10 49 11 76 27 34 26 92 -1 127 -11
14 -25 24 -30 21 -11 -8 -16 81 -4 93 7 8 115 41 148 45 21 3 41 8 44 11 4 3
12 6 20 6 9 0 13 -15 13 -50z m1913 -32 c25 -56 26 -66 11 -79 -8 -6 -12 -20
-9 -30 6 -18 -3 -39 -82 -194 -23 -44 -44 -96 -47 -116 -8 -43 -19 -54 -65
-63 l-34 -6 6 81 c5 55 14 95 30 127 14 26 35 72 48 102 13 30 31 67 41 81 10
15 22 38 28 53 5 15 15 24 21 21 6 -4 9 -1 8 6 -3 18 11 49 22 49 4 0 15 -15
22 -32z m-2180 -45 c5 -30 2 -45 -9 -54 -17 -14 -13 -61 11 -114 7 -16 16 -47
20 -67 5 -35 4 -38 -17 -39 -13 0 -38 -2 -55 -3 -20 -2 -33 1 -33 8 0 6 -5 40
-10 76 -5 36 -10 96 -11 134 l-2 70 49 16 c27 9 50 16 50 16 1 -1 4 -20 7 -43z
m2246 -115 c-1 -7 1 -25 5 -41 5 -15 5 -48 1 -72 -5 -37 -17 -56 -59 -100 -64
-66 -81 -70 -73 -17 4 37 22 78 82 190 27 48 49 69 44 40z m-1941 -125 c-2
-17 10 -208 17 -263 l4 -26 -97 3 c-53 2 -107 3 -119 3 -17 0 -23 7 -27 33
-11 71 -15 173 -8 184 5 7 31 17 60 23 29 5 73 21 99 35 56 29 74 31 71 8z
m1952 -203 c0 -5 -4 -10 -10 -10 -5 0 -10 -5 -10 -10 0 -17 -59 -69 -85 -76
-14 -3 -25 -10 -25 -14 0 -9 -87 -43 -115 -45 -11 -1 -27 -4 -35 -8 -8 -4 -33
-11 -55 -16 -22 -6 -59 -15 -83 -21 -23 -5 -95 -10 -160 -10 -301 0 -542 6
-542 13 0 4 24 8 53 9 143 4 190 7 282 18 101 12 180 11 202 -3 6 -4 15 -3 18
3 4 6 21 10 38 9 18 0 50 2 72 6 22 3 58 8 80 10 47 4 102 18 130 32 11 6 40
19 65 28 84 33 127 55 145 75 20 22 35 26 35 10z m-3656 -148 c8 -13 111 -39
201 -51 44 -6 96 -14 115 -17 19 -3 130 -6 247 -7 188 -2 239 -5 185 -13 -32
-5 -186 -17 -242 -19 -30 -1 -84 -3 -120 -5 -61 -2 -152 5 -210 17 -14 3 -33
5 -42 6 -10 1 -18 5 -18 9 0 4 -13 8 -28 8 -27 0 -112 55 -112 72 0 11 17 10
24 0z m849 -79 c-13 -2 -33 -2 -45 0 -13 2 -3 4 22 4 25 0 35 -2 23 -4z"/>
<path d="M3758 1481 c-10 -9 -28 -37 -41 -62 -13 -25 -30 -55 -38 -67 -10 -16
-11 -24 -2 -33 15 -15 24 -8 48 38 10 21 34 57 52 80 18 23 33 46 33 52 0 17
-33 12 -52 -8z"/>
<path d="M3612 1218 c-22 -28 -42 -80 -57 -144 -9 -38 -18 -79 -22 -91 -3 -13
-1 -23 4 -23 10 0 44 71 63 135 7 22 21 52 32 67 15 22 17 32 8 48 -13 24 -14
24 -28 8z"/>
<path d="M1068 1213 c-2 -10 16 -48 39 -85 24 -36 43 -73 43 -81 0 -9 8 -14
18 -13 29 4 26 52 -6 104 -16 27 -33 58 -36 70 -9 27 -53 31 -58 5z"/>
<path d="M1203 983 c-15 -6 -18 -89 -3 -98 6 -3 10 -28 10 -56 0 -52 15 -64
40 -34 12 14 10 51 -4 120 -3 11 -5 25 -5 31 -2 18 -26 42 -38 37z"/>
<path d="M4780 3732 c0 -7 -6 -12 -12 -12 -22 -1 -48 -47 -48 -87 1 -80 -14
-161 -40 -218 -10 -22 -21 -60 -25 -85 -4 -25 -13 -56 -20 -70 -6 -14 -17 -52
-24 -85 -21 -98 -53 -229 -60 -240 -3 -5 -7 -21 -9 -35 -2 -13 -7 -29 -11 -35
-5 -5 -12 -25 -16 -42 -9 -44 -21 -42 -30 4 -9 49 -32 93 -49 93 -7 0 -27 -3
-44 -6 -39 -8 -50 -54 -26 -103 9 -18 20 -65 25 -104 5 -40 13 -99 19 -132 5
-33 10 -75 10 -93 0 -55 62 -91 102 -59 8 6 28 29 43 50 15 20 48 59 74 86 69
73 91 100 103 126 6 14 19 27 29 30 34 11 38 89 6 107 -13 7 -35 4 -79 -11
-34 -12 -63 -19 -66 -17 -8 9 10 66 20 66 6 0 9 2 6 5 -3 3 4 36 15 73 10 37
24 91 30 120 6 28 14 52 19 52 5 0 8 17 7 38 -2 34 28 150 66 253 9 24 20 58
25 74 5 17 21 63 35 104 23 63 25 78 14 102 -10 25 -28 36 -43 27 -2 -2 -13 6
-25 16 -12 11 -21 14 -21 8z"/>
<path d="M3415 3147 c-41 -24 -41 -43 -1 -102 14 -21 27 -43 27 -49 1 -6 3
-24 5 -40 4 -39 -22 -100 -40 -93 -27 10 -36 -54 -12 -85 20 -27 81 -24 111 7
14 13 25 30 25 38 0 7 5 18 11 24 17 17 11 148 -8 206 -19 53 -62 107 -85 106
-7 0 -22 -6 -33 -12z"/>
</g>
</svg>
