<?xml version="1.0" standalone="no"?>
<!DOCTYPE svg PUBLIC "-//W3C//DTD SVG 20010904//EN"
 "http://www.w3.org/TR/2001/REC-SVG-20010904/DTD/svg10.dtd">
<svg version="1.0" xmlns="http://www.w3.org/2000/svg"
 width="433.000000pt" height="479.000000pt" viewBox="0 0 433.000000 479.000000"
 preserveAspectRatio="xMidYMid meet">
<metadata>
Created by potrace 1.16, written by Peter Selinger 2001-2019
</metadata>
<g transform="translate(0.000000,479.000000) scale(0.100000,-0.100000)"
fill="#000000" stroke="none">
<path d="M1265 4468 c-16 -5 -52 -17 -80 -28 -27 -10 -82 -28 -122 -40 -73
-22 -123 -44 -178 -80 -16 -11 -41 -25 -55 -30 -13 -6 -27 -14 -30 -18 -3 -4
-25 -21 -50 -37 -25 -17 -46 -33 -48 -37 -2 -5 -10 -8 -17 -8 -7 0 -15 -4 -17
-9 -4 -11 -54 -75 -85 -108 -13 -13 -23 -29 -23 -36 0 -6 -15 -27 -34 -47 -35
-35 -86 -122 -86 -145 0 -7 -7 -26 -15 -41 -8 -16 -15 -37 -15 -46 0 -10 -5
-18 -11 -18 -6 0 -9 -6 -6 -12 2 -7 -2 -30 -9 -51 -8 -21 -13 -41 -12 -45 1
-4 -1 -23 -5 -42 -28 -161 -39 -303 -32 -410 3 -63 10 -133 15 -155 45 -221
60 -300 71 -360 25 -144 72 -318 110 -403 10 -23 19 -49 19 -56 0 -8 4 -16 8
-18 8 -3 102 -207 102 -221 0 -14 43 -102 64 -132 12 -16 29 -46 38 -65 9 -19
39 -82 66 -140 46 -96 129 -299 147 -360 4 -14 15 -33 24 -44 9 -10 15 -20 14
-22 -1 -2 -1 -9 2 -16 2 -7 13 -42 24 -77 12 -35 26 -70 32 -77 6 -8 9 -14 5
-14 -3 0 4 -17 17 -38 13 -20 31 -57 41 -82 9 -25 25 -59 34 -76 9 -17 29 -53
43 -80 39 -75 134 -216 173 -256 58 -59 118 -105 171 -127 28 -12 59 -27 70
-33 56 -32 81 -40 148 -45 72 -5 179 15 201 37 5 5 16 10 23 10 44 0 253 179
299 257 14 23 31 47 39 53 8 7 21 33 29 59 18 61 58 154 69 162 4 3 7 10 6 15
-1 5 1 20 5 34 12 44 -8 78 -50 86 -21 4 -44 3 -52 -2 -8 -5 -25 -47 -39 -94
-13 -46 -28 -89 -33 -95 -4 -5 -13 -29 -19 -52 -7 -24 -16 -43 -20 -43 -5 0
-12 -12 -15 -26 -9 -36 -191 -211 -227 -219 -16 -4 -33 -14 -38 -23 -22 -39
-194 -49 -271 -15 -152 67 -209 113 -287 229 -21 32 -50 76 -65 98 -31 46 -63
109 -73 146 -4 14 -13 32 -20 40 -7 8 -25 44 -40 80 -15 36 -38 85 -51 110
-13 25 -24 49 -24 55 0 11 -53 150 -119 309 -23 55 -41 104 -41 109 0 11 -96
202 -139 277 -40 69 -76 148 -99 214 -9 28 -20 53 -23 56 -6 5 -54 106 -69
145 -4 11 -19 47 -33 80 -28 69 -84 301 -79 327 1 4 -10 65 -24 135 -56 283
-64 332 -64 424 0 53 5 121 10 150 6 30 13 70 15 89 7 55 12 71 33 132 11 31
18 59 15 61 -2 3 7 31 21 62 15 31 24 60 21 64 -5 8 51 88 93 132 13 13 33 37
45 52 59 76 157 164 200 180 9 3 17 11 17 16 0 5 12 14 28 20 26 10 39 18 93
53 14 10 29 15 31 12 5 -5 54 12 123 41 78 33 114 39 235 38 138 -1 266 -16
314 -37 17 -7 63 -25 101 -40 72 -27 101 -47 191 -130 29 -26 63 -55 76 -64
13 -8 43 -34 67 -56 43 -41 52 -50 97 -100 13 -14 27 -26 32 -26 5 0 17 18 27
41 15 32 16 44 7 57 -7 10 -15 24 -19 32 -9 20 -82 90 -93 90 -5 0 -16 14 -25
30 -9 17 -20 30 -26 30 -11 0 -22 8 -87 66 -86 76 -189 135 -289 165 -51 16
-98 31 -104 34 -25 16 -368 27 -414 13z"/>
<path d="M1436 4203 c-3 -4 -25 -7 -49 -8 -44 -2 -157 -49 -157 -66 0 -5 -11
-7 -25 -3 -16 4 -25 2 -25 -5 0 -6 -8 -15 -17 -18 -52 -20 -139 -100 -228
-209 -16 -20 -36 -43 -42 -50 -7 -7 -13 -17 -13 -23 0 -6 -4 -11 -10 -11 -5 0
-10 -9 -10 -20 0 -10 -6 -23 -13 -27 -7 -4 -21 -33 -31 -63 -10 -30 -22 -59
-26 -65 -4 -5 -13 -39 -19 -75 -7 -36 -17 -76 -23 -90 -16 -37 -18 -44 -25
-172 -13 -247 58 -600 138 -686 10 -12 19 -26 19 -32 0 -5 4 -10 8 -10 5 0 35
-26 68 -58 32 -32 74 -64 92 -71 17 -7 32 -18 32 -23 0 -5 8 -8 18 -7 22 2
102 -31 102 -43 0 -5 5 -6 11 -2 13 8 65 -40 87 -81 27 -52 39 -123 30 -189
-4 -33 -10 -124 -13 -201 -6 -154 9 -266 42 -306 10 -12 30 -36 46 -54 15 -18
27 -37 27 -42 0 -10 25 -45 57 -79 12 -13 24 -33 28 -44 3 -11 12 -20 19 -20
7 0 24 -12 37 -28 33 -38 119 -102 146 -108 13 -4 23 -9 23 -13 0 -8 24 -11
95 -12 78 -1 104 7 139 44 40 42 101 164 116 232 7 28 15 59 20 70 10 23 18
69 26 146 3 30 6 56 7 59 5 19 -29 182 -40 191 -7 6 -13 18 -13 25 0 8 -4 14
-10 14 -5 0 -10 6 -10 13 0 8 -16 28 -35 46 -19 17 -35 36 -35 41 0 6 -3 9 -7
8 -14 -3 -53 13 -53 22 0 5 -15 12 -32 15 -18 3 -42 8 -53 10 -11 2 -33 4 -50
5 -24 1 -39 13 -74 56 -37 46 -47 67 -56 122 -10 61 -9 71 9 110 11 23 24 42
28 42 4 0 16 8 27 19 21 21 108 56 161 64 19 3 52 11 73 17 22 6 45 9 54 6 8
-3 21 1 30 9 8 8 18 13 22 10 5 -2 18 5 30 16 12 12 25 19 27 16 16 -15 102
103 111 153 6 32 13 118 14 176 1 106 -60 243 -149 331 -47 48 -57 50 -90 25
-31 -24 -21 -67 26 -119 37 -40 78 -113 88 -155 3 -13 6 -65 6 -117 0 -71 -4
-97 -15 -109 -15 -14 -26 -6 -115 86 -54 56 -105 114 -112 129 -8 16 -34 56
-57 89 -24 34 -43 67 -43 73 0 6 -13 39 -29 73 -32 67 -120 333 -128 383 -15
99 -72 151 -116 107 -19 -19 -20 -24 -8 -64 8 -24 22 -70 32 -103 9 -33 21
-76 24 -95 4 -19 16 -55 27 -80 11 -24 29 -76 40 -114 10 -38 27 -81 37 -95
10 -14 24 -44 32 -66 12 -36 45 -92 60 -105 4 -3 20 -32 37 -66 21 -41 52 -80
96 -120 36 -32 66 -64 66 -69 0 -6 14 -19 30 -28 49 -29 35 -61 -31 -72 -19
-3 -48 -8 -66 -11 -29 -6 -33 -3 -39 22 -4 16 -20 45 -36 64 -16 19 -32 40
-36 45 -123 166 -197 233 -332 301 -97 48 -126 57 -232 68 -45 5 -69 -17 -61
-56 7 -38 20 -45 88 -52 58 -5 182 -55 216 -88 8 -7 27 -22 44 -32 46 -30 101
-84 132 -129 15 -23 31 -43 35 -45 4 -2 15 -20 25 -40 9 -20 23 -45 31 -54 8
-10 11 -18 6 -18 -5 0 -3 -4 4 -9 10 -6 2 -14 -29 -30 -23 -12 -56 -38 -73
-58 -17 -20 -41 -47 -53 -61 -13 -14 -23 -30 -24 -36 0 -6 -2 -20 -4 -31 -17
-113 24 -261 90 -321 48 -43 115 -80 137 -76 26 6 158 -58 158 -76 0 -8 8 -16
19 -19 10 -2 23 -14 29 -26 14 -29 33 -115 33 -147 0 -44 -12 -134 -21 -165
-5 -16 -17 -61 -26 -100 -9 -38 -22 -76 -28 -84 -5 -7 -15 -22 -21 -34 -17
-35 -66 -55 -130 -53 -56 2 -59 3 -99 49 -22 26 -46 47 -52 47 -6 0 -19 10
-30 23 -100 117 -164 204 -164 223 0 6 -5 15 -12 22 -6 6 -13 22 -14 34 -18
129 -19 177 -9 251 20 135 10 308 -21 383 -5 12 -24 34 -41 49 -18 15 -33 33
-33 40 0 7 -11 16 -24 19 -14 3 -31 12 -38 19 -7 7 -38 21 -68 31 -85 26 -119
46 -185 108 -65 61 -129 168 -140 235 -4 21 -11 52 -16 68 -4 17 -9 53 -10 80
-1 28 -5 64 -10 80 -13 47 -18 205 -8 260 20 104 33 156 41 161 5 3 5 10 2 16
-6 9 24 116 36 128 3 3 6 12 8 20 3 17 24 62 32 70 3 3 16 20 28 37 22 32 66
82 128 149 17 19 36 34 42 34 6 0 27 14 45 30 19 17 41 30 49 30 8 0 19 5 25
11 5 5 53 23 105 39 100 30 134 29 188 0 14 -8 30 -15 35 -16 6 -2 19 -5 31
-7 47 -11 93 -38 154 -91 36 -32 69 -65 74 -74 11 -22 53 -62 64 -62 5 0 15
-7 22 -15 17 -21 45 0 60 46 11 31 11 41 0 54 -7 8 -9 15 -6 15 9 0 -34 38
-78 70 -20 14 -36 31 -36 38 0 6 -7 12 -15 12 -7 0 -18 6 -22 13 -4 8 -15 17
-23 20 -8 4 -28 16 -45 27 -35 23 -116 64 -130 65 -5 0 -19 6 -30 12 -17 9
-85 23 -120 25 -5 0 -20 4 -31 9 -12 4 -25 5 -28 2z"/>
<path d="M3555 3814 c-11 -8 -25 -12 -32 -10 -7 3 -13 2 -13 -2 0 -7 -71 -29
-112 -36 -7 -1 -18 -4 -23 -8 -6 -4 -69 -18 -140 -32 -72 -15 -152 -31 -178
-36 -27 -6 -63 -10 -81 -10 -56 0 -73 -38 -36 -80 11 -13 20 -27 20 -32 0 -4
11 -8 25 -8 18 0 28 -7 36 -26 5 -15 8 -28 7 -29 -9 -8 -230 -56 -320 -71
-156 -25 -208 -66 -139 -111 32 -20 111 -90 111 -98 0 -3 -7 -5 -16 -5 -9 0
-31 -9 -48 -19 -17 -11 -53 -25 -81 -31 -27 -7 -80 -24 -117 -38 -55 -22 -68
-31 -68 -49 0 -34 33 -47 85 -34 24 6 68 11 97 11 29 0 71 5 93 11 22 5 71 12
109 15 97 8 116 17 116 54 0 16 -4 30 -10 30 -5 0 -10 8 -10 18 0 18 -48 72
-65 72 -10 0 -66 62 -61 68 3 2 31 6 63 8 32 2 85 8 118 13 33 5 119 12 190
15 72 2 138 7 148 11 29 12 19 42 -33 95 -49 50 -60 70 -39 70 6 0 51 20 100
44 130 65 276 126 302 126 28 0 63 35 72 72 6 24 3 29 -20 38 -31 12 -26 13
-50 -6z"/>
<path d="M3920 2831 c-30 -4 -173 -8 -318 -10 -282 -3 -320 -9 -299 -47 6 -10
13 -21 17 -24 10 -8 60 -98 60 -108 0 -5 -10 -8 -22 -6 -58 8 -185 27 -202 30
-11 2 -69 6 -130 10 -61 3 -113 6 -116 7 -3 0 -20 -3 -38 -7 l-33 -8 3 -71 3
-72 -35 -1 c-19 0 -66 -6 -105 -12 -38 -6 -122 -14 -185 -17 -103 -5 -117 -9
-137 -29 -11 -13 -18 -28 -15 -33 13 -20 158 -44 292 -48 74 -2 171 -7 216
-11 57 -5 83 -3 88 5 4 6 15 11 25 11 17 0 18 3 5 43 -8 23 -19 51 -24 62 -16
36 -22 65 -12 65 21 0 250 -49 273 -59 26 -11 164 -41 219 -47 19 -2 45 -6 58
-9 20 -5 22 -2 22 33 0 21 -5 43 -11 49 -7 7 -13 23 -14 37 -2 14 -10 39 -18
55 l-15 30 57 11 c31 6 69 15 85 21 16 5 57 9 90 9 34 0 66 4 72 10 5 5 29 11
52 13 24 3 45 7 49 11 3 3 32 6 63 6 73 0 110 17 110 50 0 52 -31 64 -130 51z"/>
<path d="M3412 2024 c-7 -7 -12 -23 -12 -36 0 -13 -7 -36 -15 -52 -12 -23 -13
-36 -3 -67 12 -42 7 -56 -14 -43 -7 5 -24 10 -38 12 -14 1 -72 25 -130 51 -58
27 -126 56 -152 66 -26 9 -50 21 -53 26 -7 10 -55 12 -79 3 -10 -4 -16 -18
-16 -36 0 -16 -7 -36 -14 -44 -13 -13 -13 -20 0 -57 8 -23 16 -54 18 -69 5
-41 -10 -40 -249 16 -60 14 -111 30 -113 34 -1 5 -13 7 -26 5 -13 -3 -27 0
-30 6 -4 6 -17 11 -29 11 -12 0 -35 7 -50 15 -42 22 -95 29 -112 15 -24 -20
17 -89 53 -90 8 0 77 -32 155 -71 78 -38 169 -79 202 -91 33 -11 67 -26 75
-32 8 -7 38 -23 65 -36 28 -13 58 -27 67 -32 10 -4 29 -8 42 -8 34 0 71 60 61
98 -4 15 -9 46 -10 70 -2 23 -6 58 -9 77 -8 42 0 44 60 10 25 -14 49 -25 54
-25 5 0 42 -15 82 -34 40 -18 84 -37 98 -41 14 -4 30 -11 35 -15 26 -20 136
-50 159 -44 23 5 26 11 26 48 0 23 -7 66 -16 95 -8 29 -13 55 -10 58 3 3 30
-7 60 -23 99 -52 280 -141 338 -167 52 -23 145 -81 158 -97 13 -18 51 -17 62
0 6 10 18 16 25 13 16 -6 16 -4 3 33 -7 21 -24 36 -60 52 -28 13 -50 27 -50
31 0 5 -14 14 -30 21 -17 7 -38 22 -48 34 -9 11 -39 32 -67 44 -27 13 -72 41
-100 62 -27 21 -75 50 -105 65 -30 15 -86 54 -125 85 -73 60 -113 76 -133 54z"/>
</g>
</svg>
