<?xml version="1.0" standalone="no"?>
<!DOCTYPE svg PUBLIC "-//W3C//DTD SVG 20010904//EN"
 "http://www.w3.org/TR/2001/REC-SVG-20010904/DTD/svg10.dtd">
<svg version="1.0" xmlns="http://www.w3.org/2000/svg"
 width="357.000000pt" height="453.000000pt" viewBox="0 0 357.000000 453.000000"
 preserveAspectRatio="xMidYMid meet">
<metadata>
Created by potrace 1.16, written by Peter Selinger 2001-2019
</metadata>
<g transform="translate(0.000000,453.000000) scale(0.100000,-0.100000)"
fill="#000000" stroke="none">
<path d="M1976 4433 c-2 -2 -19 -6 -39 -8 -43 -6 -162 -65 -197 -99 -23 -22
-54 -57 -116 -131 -13 -16 -27 -40 -30 -52 -4 -13 -10 -23 -15 -23 -5 0 -9 -8
-9 -18 0 -10 -6 -27 -14 -38 -8 -11 -17 -37 -21 -57 -4 -20 -17 -49 -29 -64
-20 -26 -21 -38 -20 -208 1 -166 3 -187 28 -270 15 -49 34 -97 42 -106 8 -8
14 -18 14 -20 0 -13 91 -99 105 -99 8 0 15 -4 15 -10 0 -5 5 -10 10 -10 6 0
30 -9 52 -20 23 -11 48 -20 55 -20 7 0 15 -11 19 -24 7 -28 -13 -133 -26 -141
-21 -13 -480 -26 -480 -13 0 13 -64 -2 -95 -23 -23 -16 -31 -28 -27 -41 4 -17
-13 -65 -29 -78 -13 -12 -109 -154 -109 -162 0 -6 -13 -28 -30 -51 -16 -23
-38 -67 -50 -98 -13 -37 -28 -60 -44 -67 -14 -6 -26 -22 -29 -40 -6 -31 -30
-47 -50 -35 -7 4 -21 8 -32 9 -27 2 -205 53 -232 66 -26 13 -93 4 -105 -14 -4
-7 -7 -24 -6 -38 2 -14 -4 -30 -12 -37 -13 -10 -13 -18 2 -70 22 -79 60 -177
70 -181 5 -2 6 -7 3 -12 -3 -4 2 -27 11 -51 9 -24 18 -66 20 -94 2 -27 5 -65
8 -82 2 -20 -1 -34 -8 -34 -6 -1 -21 -3 -32 -4 -32 -3 -124 -79 -124 -102 0
-3 -6 -14 -14 -22 -10 -11 -16 -51 -19 -136 -4 -115 -4 -120 22 -160 14 -22
32 -46 38 -53 7 -7 13 -19 13 -26 0 -18 60 -70 108 -95 30 -16 53 -20 73 -16
l29 7 1 -64 c0 -35 2 -79 5 -98 8 -59 10 -333 2 -369 -9 -46 6 -81 42 -94 17
-6 30 -17 30 -24 0 -17 34 -30 113 -43 34 -5 67 -15 72 -22 6 -7 87 -51 180
-97 253 -124 309 -153 315 -161 3 -4 20 -11 38 -15 17 -3 32 -11 32 -16 0 -5
9 -9 19 -9 11 0 23 -4 26 -10 3 -5 37 -25 76 -44 57 -28 75 -33 99 -26 17 5
30 6 31 2 0 -4 4 3 9 15 9 23 98 70 175 93 22 6 72 26 110 45 39 18 103 43
144 56 40 13 80 29 87 37 8 7 14 10 14 7 0 -4 16 2 36 14 19 12 42 21 51 21 9
0 14 3 10 6 -7 8 12 28 34 36 9 4 19 19 22 35 2 15 15 53 27 83 12 30 25 71
29 91 4 20 17 56 29 80 25 53 42 114 42 152 0 17 5 27 15 27 9 0 15 9 15 24 0
14 7 32 16 41 9 9 18 30 19 47 2 17 8 34 15 38 7 4 10 12 6 18 -3 5 9 12 27
15 18 3 63 19 99 36 61 29 71 39 127 120 33 48 68 108 77 132 9 24 21 48 26
53 11 13 10 148 -1 178 -13 34 -71 88 -95 88 -31 0 -47 14 -43 36 10 55 34
119 77 209 60 124 120 271 120 294 0 9 5 22 10 27 20 20 23 92 4 124 -18 29
-47 40 -58 21 -5 -8 -49 -21 -86 -26 -8 -1 -26 -6 -40 -10 -42 -15 -80 5 -80
39 0 9 -6 16 -14 16 -16 0 -33 18 -38 40 -2 8 -21 41 -43 74 -66 96 -105 160
-105 173 0 6 -3 13 -8 15 -18 8 -73 89 -78 117 -4 17 -11 34 -15 37 -5 3 -9
15 -9 28 0 14 -13 32 -32 46 -38 28 -72 30 -264 15 -71 -5 -166 -9 -211 -7
l-83 4 6 56 c4 31 9 60 13 64 3 4 22 9 41 12 77 11 156 38 184 64 35 32 52 47
97 87 35 31 89 98 89 111 0 4 6 15 14 23 18 21 63 128 69 166 8 50 28 119 39
132 6 7 11 68 11 136 1 107 -2 135 -28 222 -28 96 -46 132 -90 176 -67 67
-122 109 -142 109 -12 0 -45 9 -73 20 -44 17 -164 33 -174 23z m0 -115 c8 -7
21 -19 29 -25 18 -17 22 -16 28 7 5 21 44 28 63 12 5 -5 28 -14 51 -22 24 -7
40 -17 36 -23 -4 -6 0 -8 10 -4 10 3 17 2 17 -3 0 -6 5 -10 12 -10 19 0 97
-88 104 -118 4 -15 13 -38 21 -50 8 -13 12 -26 9 -29 -2 -3 0 -17 6 -32 5 -14
12 -70 14 -124 3 -85 0 -107 -21 -162 -13 -35 -21 -66 -18 -68 2 -3 -2 -20
-10 -39 -27 -63 -39 -93 -37 -96 3 -6 -33 -57 -88 -124 -73 -88 -147 -129
-249 -135 -77 -5 -146 12 -195 47 -15 11 -32 20 -38 20 -5 0 -10 4 -10 9 0 5
-9 13 -20 16 -17 6 -67 91 -74 128 -2 7 -10 37 -19 67 -23 79 -10 333 21 403
12 26 21 50 21 52 0 13 65 125 72 125 5 0 9 6 9 14 0 45 163 168 233 175 4 1
15 -5 23 -11z m421 -1402 c9 -9 9 -167 0 -266 -4 -41 -9 -109 -12 -152 -3 -42
-11 -98 -18 -125 -13 -51 -15 -98 -4 -123 5 -11 -7 -22 -43 -39 -28 -14 -50
-28 -50 -32 0 -4 -12 -12 -27 -18 -16 -6 -44 -20 -63 -30 -19 -11 -51 -26 -70
-35 -52 -25 -124 -68 -135 -81 -13 -15 -71 -55 -80 -55 -4 0 -26 19 -48 43
-23 23 -58 51 -77 60 -19 10 -44 24 -55 30 -98 58 -134 76 -155 81 -20 3 -173
79 -189 92 -2 2 8 13 22 25 21 16 27 29 27 59 0 21 -4 41 -9 44 -8 6 -23 60
-37 136 -16 84 -35 171 -43 192 -5 12 -12 55 -16 95 l-7 71 74 6 c40 3 109 5
153 5 138 -3 235 3 235 15 0 7 3 6 8 -1 6 -9 24 -11 58 -7 146 17 547 25 561
10z m-1168 -238 c1 -16 5 -28 10 -28 18 0 28 -59 47 -275 3 -33 7 -66 9 -72 5
-16 9 -17 -58 6 -32 11 -57 18 -57 16 0 -2 -24 5 -52 16 -29 10 -60 19 -68 19
-9 0 -25 7 -36 15 -18 14 -18 16 -2 28 9 7 20 25 23 40 4 15 11 30 16 33 5 3
9 12 9 21 0 25 69 160 98 191 7 8 21 26 30 40 l16 25 7 -24 c4 -13 7 -36 8
-51z m1301 32 c0 -10 4 -20 9 -22 26 -10 161 -240 161 -275 0 -7 5 -13 10 -13
6 0 10 -4 10 -10 0 -5 -5 -10 -11 -10 -10 0 -120 -46 -183 -76 -60 -29 -59
-35 -31 209 2 15 5 69 6 120 1 51 4 95 6 100 7 13 23 -3 23 -23z m-1839 -369
c41 -11 104 -25 141 -31 37 -5 80 -16 95 -22 16 -7 33 -13 38 -13 6 -1 23 -7
39 -14 16 -6 77 -23 135 -38 58 -14 115 -32 126 -39 11 -8 26 -14 34 -14 19 0
102 -40 119 -57 7 -7 18 -13 24 -13 24 0 217 -104 253 -136 21 -18 41 -31 45
-29 4 3 29 -14 55 -37 l47 -41 -6 -106 c-3 -58 -8 -128 -11 -156 -2 -27 -7
-104 -9 -170 -6 -153 -22 -297 -41 -383 -8 -37 -17 -76 -18 -87 -2 -11 -7 -27
-10 -35 -9 -25 -17 -81 -23 -155 -3 -38 -8 -81 -11 -95 -3 -14 -7 -29 -8 -35
-2 -5 -7 -28 -13 -50 -6 -22 -13 -69 -17 -105 -3 -36 -11 -87 -17 -113 -10
-46 -12 -48 -38 -42 -15 3 -56 22 -91 40 -105 57 -228 115 -244 115 -8 0 -38
18 -67 40 -29 22 -59 40 -67 40 -8 0 -52 21 -98 46 -65 35 -183 85 -200 85 -2
0 -16 2 -33 5 -30 6 -30 7 -30 78 0 39 -3 130 -7 201 -3 72 -6 174 -5 228 1
93 2 100 28 125 26 26 70 109 66 125 -1 4 2 7 7 7 15 0 23 52 22 145 -2 86 -4
93 -39 147 -28 44 -49 63 -89 83 -60 30 -64 34 -68 78 -2 18 -8 46 -14 62 -5
17 -22 75 -37 130 -15 55 -37 121 -50 147 -12 25 -20 48 -18 51 3 2 0 16 -5
31 -10 23 -8 26 12 26 13 0 57 -9 98 -19z m2276 -31 c-1 -11 -4 -20 -7 -20 -3
0 -6 -9 -7 -20 -1 -10 -24 -67 -52 -126 -28 -58 -51 -108 -51 -110 0 -2 -16
-36 -36 -76 -40 -83 -64 -145 -64 -171 0 -10 -8 -20 -17 -24 -39 -13 -144 -63
-159 -75 -17 -15 -52 -51 -84 -88 -24 -27 -51 -86 -48 -104 1 -6 -2 -29 -7
-51 -4 -22 -9 -49 -11 -60 -4 -24 68 -148 100 -172 24 -18 23 -30 -7 -103 -6
-14 -12 -34 -14 -45 -2 -11 -9 -36 -17 -55 -14 -37 -31 -110 -28 -122 1 -5 -2
-8 -6 -8 -4 0 -8 -8 -9 -17 -1 -10 -11 -40 -23 -67 -11 -27 -25 -69 -30 -93
-6 -24 -21 -61 -34 -81 -13 -20 -24 -41 -25 -47 -3 -14 -42 -34 -68 -35 -13 0
-23 -4 -23 -9 0 -5 -22 -17 -50 -26 -27 -9 -50 -21 -50 -26 0 -5 -12 -12 -27
-15 -16 -4 -64 -24 -108 -44 -44 -21 -105 -45 -135 -55 -30 -10 -68 -24 -83
-32 -33 -17 -43 -12 -29 14 5 10 12 69 16 132 3 62 9 117 11 121 9 14 16 72
20 145 1 39 8 93 14 120 7 28 14 61 17 75 2 14 11 59 18 100 24 124 31 190 40
390 4 74 9 149 13 165 3 17 7 48 9 70 1 22 8 71 15 108 10 57 19 75 48 105 57
58 114 102 141 109 14 3 30 9 35 13 6 4 33 20 60 35 28 16 68 39 90 51 46 27
105 55 248 118 32 14 60 26 62 26 3 0 25 9 49 20 24 12 56 22 72 23 16 1 31 4
34 7 10 11 131 42 187 49 6 0 11 -8 10 -19z m-2326 -561 c14 -12 31 -18 43
-15 11 3 26 0 33 -6 7 -6 13 -7 13 -2 0 4 11 -3 25 -16 14 -13 25 -29 25 -37
0 -7 4 -13 8 -13 15 0 11 -123 -5 -160 -8 -19 -21 -50 -29 -67 -9 -22 -21 -33
-34 -33 -11 0 -20 -4 -20 -10 0 -22 -42 -33 -82 -21 -32 10 -46 24 -84 83
l-46 71 5 91 c4 87 5 91 37 118 18 15 45 29 59 31 14 2 26 5 27 6 1 0 12 -8
25 -20z m2256 -97 c14 -9 34 -90 23 -97 -4 -2 -10 -22 -13 -42 -6 -37 -71
-142 -119 -193 -28 -30 -82 -60 -109 -60 -71 0 -173 133 -141 184 3 6 8 20 9
30 2 10 15 40 29 66 31 58 83 90 137 86 20 -2 37 1 37 6 0 5 10 8 23 7 12 -1
29 1 37 4 49 18 69 20 87 9z"/>
</g>
</svg>
