<?xml version="1.0" standalone="no"?>
<!DOCTYPE svg PUBLIC "-//W3C//DTD SVG 20010904//EN"
 "http://www.w3.org/TR/2001/REC-SVG-20010904/DTD/svg10.dtd">
<svg version="1.0" xmlns="http://www.w3.org/2000/svg"
 width="527.000000pt" height="497.000000pt" viewBox="0 0 527.000000 497.000000"
 preserveAspectRatio="xMidYMid meet">
<metadata>
Created by potrace 1.16, written by Peter Selinger 2001-2019
</metadata>
<g transform="translate(0.000000,497.000000) scale(0.100000,-0.100000)"
fill="#000000" stroke="none">
<path d="M1470 4897 c-14 -5 -36 -26 -49 -47 -13 -21 -72 -88 -130 -148 -58
-60 -173 -180 -256 -267 -230 -243 -326 -344 -375 -395 -168 -174 -204 -210
-212 -210 -4 0 -8 -5 -8 -11 0 -7 -38 -51 -84 -98 -82 -84 -165 -172 -197
-208 -9 -10 -27 -27 -40 -39 -36 -31 -89 -97 -89 -110 0 -6 -7 -17 -15 -24
-10 -8 -15 -30 -15 -61 0 -42 3 -49 20 -49 11 0 20 -3 20 -7 0 -8 63 -8 268 1
l112 5 1 -42 c2 -53 7 -283 14 -647 3 -157 6 -515 7 -797 1 -282 4 -517 7
-522 23 -37 106 -27 113 13 6 29 1 254 -6 282 -3 11 -8 177 -11 370 -2 192 -7
489 -10 659 -9 522 -8 629 5 682 22 87 -3 122 -85 116 -60 -3 -286 -5 -290 -1
-2 1 13 22 33 44 20 23 60 67 87 99 61 71 115 125 126 125 4 0 11 10 15 23 4
12 32 49 64 82 32 33 87 91 123 128 36 38 123 129 194 204 183 195 211 223
223 223 5 0 10 3 10 8 0 7 48 60 213 236 192 205 252 266 259 266 9 0 39 -30
108 -110 30 -34 62 -70 71 -79 9 -9 33 -36 54 -61 49 -60 127 -149 195 -221
30 -32 66 -74 80 -93 14 -20 31 -36 38 -36 6 0 12 -3 12 -7 0 -8 33 -48 83
-103 13 -14 47 -54 77 -90 63 -74 85 -99 169 -190 34 -36 61 -69 61 -73 0 -4
13 -20 28 -35 16 -15 55 -60 88 -101 32 -41 78 -94 102 -117 43 -43 93 -109
87 -116 -2 -2 -50 -2 -107 -1 -79 1 -112 -2 -140 -15 -39 -18 -64 -57 -54 -89
9 -33 15 -116 22 -297 3 -98 7 -187 9 -196 2 -9 6 -109 9 -221 7 -213 11 -332
22 -559 3 -74 7 -257 8 -406 2 -303 3 -305 69 -302 48 2 62 34 53 120 -3 35
-9 108 -12 163 -3 55 -8 118 -9 140 -2 22 -6 128 -10 235 -3 107 -7 213 -10
235 -2 22 -7 132 -11 245 -3 113 -9 255 -13 315 -4 61 -7 200 -6 310 l0 200
115 1 c74 1 118 -3 123 -10 4 -7 10 -8 15 -1 4 6 13 10 20 11 6 1 21 2 31 3
24 1 32 25 33 94 1 50 -1 54 -58 114 -32 33 -81 87 -109 118 -27 31 -66 73
-85 94 -67 72 -505 566 -530 598 -6 7 -42 48 -82 92 -135 147 -183 203 -192
222 -5 10 -15 19 -23 19 -7 0 -13 4 -13 8 0 4 -16 25 -35 45 -19 20 -35 41
-35 46 0 5 -3 11 -7 13 -11 4 -105 117 -126 151 -10 15 -24 27 -32 27 -8 0
-15 5 -15 10 0 7 -6 7 -19 0 -16 -8 -23 -6 -33 7 -16 21 -25 23 -58 10z"/>
<path d="M4497 4099 c-111 -16 -247 -75 -319 -138 -25 -23 -50 -41 -55 -41 -8
0 -56 -73 -66 -102 -4 -10 -10 -18 -15 -18 -5 0 -13 -15 -17 -32 -10 -45 -11
-46 -27 -103 -18 -63 -22 -193 -8 -265 6 -30 13 -75 16 -98 9 -84 71 -176 144
-216 19 -10 37 -21 40 -25 3 -3 22 -15 43 -25 27 -14 36 -24 31 -35 -8 -21
-11 -45 -13 -105 l-1 -48 -102 5 c-57 3 -127 11 -156 17 -29 7 -61 8 -70 4 -9
-4 -21 -6 -26 -5 -4 1 -14 -3 -21 -9 -9 -7 -19 -4 -38 10 -14 11 -30 20 -36
20 -15 0 -78 41 -121 79 -19 17 -53 40 -76 51 -22 11 -47 33 -55 48 -8 15 -17
30 -21 33 -11 7 -29 145 -34 249 -2 46 -9 99 -14 116 -17 52 -21 85 -12 98 4
6 14 36 21 66 8 30 18 61 24 68 17 22 17 118 0 154 -9 18 -19 35 -22 38 -3 3
-13 19 -23 35 -9 17 -32 39 -53 51 -31 18 -42 20 -78 11 -55 -13 -107 -36
-108 -47 -2 -16 -4 -22 -28 -97 l-22 -72 23 -52 c21 -50 115 -159 137 -159 5
0 15 -26 21 -57 7 -32 16 -63 21 -69 6 -7 12 -63 14 -125 2 -67 12 -147 24
-194 38 -155 50 -180 81 -170 9 3 23 -1 30 -10 7 -8 21 -15 32 -15 10 0 30
-11 44 -25 14 -14 27 -25 30 -25 3 0 17 -11 32 -25 15 -14 45 -34 67 -46 22
-11 54 -32 72 -47 27 -23 32 -35 33 -72 0 -25 -2 -61 -4 -80 -3 -19 -8 -71
-11 -115 -9 -134 -17 -220 -22 -229 -3 -4 -7 -40 -8 -80 -1 -39 -5 -82 -9 -96
-3 -14 -10 -72 -16 -130 -5 -58 -11 -116 -14 -130 -12 -68 -28 -232 -23 -245
7 -16 -21 -84 -66 -159 -16 -28 -52 -94 -80 -146 -42 -81 -86 -152 -106 -170
-4 -3 -13 -21 -22 -41 -14 -29 -15 -42 -5 -80 6 -24 15 -50 20 -57 4 -7 9 -23
11 -35 6 -42 56 -262 75 -332 57 -209 67 -250 64 -253 -3 -5 -39 -9 -129 -17
-108 -9 -154 -33 -154 -80 0 -11 6 -28 14 -39 12 -16 22 -18 67 -12 29 4 87
11 128 16 41 4 92 12 114 18 21 6 45 8 52 5 20 -8 42 14 49 48 5 21 0 42 -14
70 -12 22 -23 52 -25 67 -2 15 -8 38 -13 52 -6 14 -16 50 -23 80 -7 30 -16 60
-20 65 -5 6 -15 42 -24 80 -34 151 -57 262 -65 314 -9 58 -7 65 84 226 15 28
55 102 87 165 33 63 65 125 71 137 7 13 15 23 20 23 4 0 7 8 7 18 0 16 10 18
123 15 67 -1 137 -4 155 -6 17 -3 32 -1 32 2 0 8 257 12 282 5 15 -4 6 -26
-57 -149 -97 -189 -93 -182 -147 -237 -27 -27 -48 -55 -48 -63 0 -8 -4 -15
-10 -15 -25 0 -5 -45 45 -105 30 -35 55 -68 55 -73 0 -5 12 -22 28 -38 15 -16
43 -50 63 -74 20 -25 51 -61 68 -80 17 -19 31 -39 31 -45 0 -5 9 -18 21 -30
25 -24 109 -153 109 -166 0 -6 11 -22 24 -36 14 -15 23 -30 20 -35 -3 -4 0 -8
5 -8 10 0 41 -62 41 -82 0 -5 -9 -6 -20 -3 -11 4 -20 2 -20 -4 0 -7 -28 -10
-77 -7 -87 3 -103 0 -103 -20 0 -7 -6 -17 -14 -21 -23 -13 -8 -71 23 -87 21
-11 76 -15 76 -6 0 2 9 4 20 6 11 2 38 7 59 13 22 5 43 8 47 5 4 -2 10 0 14 6
3 5 24 8 45 6 22 -2 40 0 40 5 0 5 6 9 13 9 7 0 22 7 33 16 l21 17 -21 51
c-12 28 -34 73 -49 100 -15 27 -27 50 -27 52 0 1 -20 32 -45 68 -25 37 -45 69
-45 72 0 2 -5 10 -11 17 -5 7 -30 44 -54 82 -51 81 -51 81 -99 120 -20 16 -36
34 -36 39 0 7 -61 87 -140 183 -15 18 -13 24 30 91 22 33 40 66 40 72 0 5 4
10 8 10 5 0 24 30 44 68 50 93 80 149 110 202 14 25 24 55 23 68 -1 12 4 22
11 22 20 0 43 52 37 83 -3 15 4 69 15 120 20 88 34 182 47 312 15 147 34 288
51 368 8 38 14 82 14 98 0 16 3 29 8 29 4 -1 27 -45 52 -98 48 -105 75 -162
109 -230 13 -24 23 -52 24 -63 1 -10 4 -19 7 -19 14 0 1 -72 -40 -225 -23 -88
-48 -186 -55 -217 -7 -32 -20 -69 -29 -83 -9 -14 -14 -25 -11 -25 4 0 -1 -12
-9 -27 -8 -16 -21 -48 -29 -73 -27 -80 -44 -122 -53 -129 -13 -9 -32 -51 -39
-89 -5 -25 -3 -32 10 -32 8 0 18 -7 21 -15 8 -19 33 -19 57 -1 10 8 36 68 58
133 22 65 56 150 74 188 19 39 36 81 38 95 10 51 60 215 69 228 6 6 8 12 5 12
-3 0 3 30 14 68 11 37 26 89 33 116 14 48 11 86 -5 86 -5 0 -9 7 -9 15 0 9
-34 83 -75 164 -41 82 -75 152 -75 155 0 4 -11 24 -25 46 -14 22 -25 46 -25
54 0 7 -7 27 -15 42 -8 16 -15 37 -15 46 0 9 -4 20 -10 23 -5 3 -10 15 -10 26
0 10 -5 19 -11 19 -7 0 -18 8 -25 18 -11 14 -15 15 -23 3 -8 -12 -12 -11 -27
4 -10 10 -20 13 -21 8 -3 -7 -19 -7 -46 -1 -23 5 -53 10 -67 12 -14 2 -45 7
-70 11 -61 11 -79 13 -118 14 l-34 1 6 73 c3 39 5 73 6 75 0 2 4 1 9 -3 5 -3
12 -1 16 5 4 6 10 8 14 5 5 -2 35 0 69 5 61 10 182 70 229 113 12 11 32 25 44
31 24 12 141 215 155 269 1 4 3 9 4 12 4 9 6 19 14 70 4 28 10 66 13 85 12 74
1 234 -16 245 -5 2 -12 17 -16 32 -7 31 -82 146 -98 152 -6 2 -22 16 -36 30
-29 30 -142 72 -187 70 -16 -1 -55 -5 -87 -10z m156 -123 c9 -1 23 -8 29 -14
7 -7 17 -12 23 -12 14 -1 55 -36 55 -48 0 -6 3 -12 8 -14 12 -5 49 -81 57
-118 18 -82 5 -256 -25 -325 -77 -179 -120 -234 -224 -287 -101 -51 -137 -58
-210 -43 -67 14 -126 39 -126 54 0 5 -17 17 -37 26 -62 30 -69 43 -101 215
-12 63 -15 110 -10 140 21 130 29 164 47 206 24 53 111 141 150 151 14 3 38
16 53 29 19 15 47 25 85 29 32 3 74 10 93 15 19 5 53 6 75 3 22 -3 48 -6 58
-7z m-1339 -199 c4 -22 3 -37 -1 -34 -5 3 -10 23 -11 43 -4 47 3 42 12 -9z
m801 -1032 c28 -2 106 -7 175 -9 69 -3 161 -12 205 -21 44 -9 95 -18 113 -20
18 -1 36 -5 39 -8 5 -5 5 -47 1 -149 0 -16 -5 -28 -10 -28 -5 0 -7 -3 -5 -7 3
-5 -4 -57 -14 -118 -23 -135 -25 -149 -34 -255 -4 -47 -16 -137 -26 -200 -28
-161 -31 -183 -32 -202 -1 -10 -4 -18 -8 -18 -4 0 -9 -11 -13 -23 l-6 -24
-326 1 -325 1 4 80 c6 101 25 266 37 325 11 51 14 84 30 290 6 80 13 163 16
185 3 22 8 69 12 105 10 90 26 112 77 105 22 -3 63 -8 90 -10z"/>
<path d="M923 3336 c-7 -8 -13 -20 -13 -25 0 -5 -9 -13 -20 -16 -29 -9 -38
-33 -35 -95 8 -140 16 -418 20 -655 2 -143 7 -397 11 -565 10 -458 10 -673 2
-692 -5 -9 -2 -28 7 -45 8 -15 15 -24 15 -19 0 5 8 2 19 -8 31 -28 94 15 85
59 -8 38 -13 130 -19 340 -4 116 -7 212 -7 215 -1 21 4 21 15 0 23 -44 62
-155 59 -167 -2 -7 4 -13 13 -13 8 0 15 -4 15 -10 0 -14 43 -12 62 3 30 24 37
49 22 79 -8 15 -19 28 -24 28 -6 0 -10 11 -10 24 0 14 -4 28 -10 31 -5 3 -10
14 -10 24 0 10 -7 24 -15 31 -8 7 -15 22 -15 34 0 12 -7 31 -15 43 -9 12 -22
40 -29 61 -13 35 -12 42 6 70 11 18 26 32 34 32 8 0 14 3 14 8 0 10 77 92 87
92 4 0 8 -89 8 -197 1 -181 3 -228 20 -333 3 -19 7 -71 10 -115 5 -82 9 -116
20 -194 l7 -44 -28 6 c-51 10 -85 -3 -99 -37 -13 -29 -12 -33 12 -58 26 -27
34 -28 108 -9 22 6 49 8 60 5 29 -7 66 30 61 61 -3 14 -7 29 -11 35 -5 9 -21
85 -30 150 -2 14 -6 83 -9 153 -6 147 -11 140 100 151 32 3 75 9 96 14 35 9
36 9 41 -22 11 -64 14 -387 5 -449 -5 -33 -3 -39 21 -52 29 -15 201 -17 201
-3 0 5 11 6 24 2 23 -5 35 11 40 56 3 35 -66 77 -106 64 -44 -15 -68 -11 -68
11 0 11 -3 100 -7 198 -4 133 -3 187 7 217 9 26 10 44 3 52 -6 8 -9 89 -9 196
1 200 5 214 56 187 94 -50 129 -63 150 -58 13 3 48 30 77 60 53 53 72 59 71
25 0 -9 3 -125 6 -257 4 -132 9 -334 11 -450 4 -230 9 -274 34 -276 75 -5 86
11 86 131 0 55 -3 100 -6 100 -3 0 -9 80 -13 178 -4 97 -9 215 -11 262 -2 47
-5 162 -7 255 l-3 170 65 1 c36 0 77 4 91 8 30 8 63 43 74 75 3 12 10 21 15
21 5 0 7 6 4 13 -3 8 -1 25 5 38 19 51 -56 149 -113 149 -8 0 -27 -5 -43 -11
-15 -6 -29 -9 -30 -7 -2 5 -48 -64 -56 -84 -11 -31 -27 -19 -26 20 1 20 -2
184 -5 364 -4 238 -9 333 -18 348 -15 24 1 23 -323 20 -137 0 -275 0 -305 1
-30 1 -64 1 -75 1 -251 -3 -335 -2 -382 3 -45 4 -61 2 -70 -9z m602 -117 c6 0
100 -1 210 -1 110 0 210 0 223 0 21 0 22 -4 23 -74 1 -41 2 -86 4 -101 6 -85
15 -270 21 -425 5 -155 4 -179 -11 -202 -10 -14 -21 -26 -26 -26 -5 0 -18 -8
-28 -17 -53 -49 -81 -63 -120 -63 -16 0 -36 6 -43 13 -17 16 -56 34 -88 41
-67 14 -91 22 -91 31 1 6 16 32 33 60 56 84 69 130 68 233 0 105 -16 150 -79
215 -51 52 -108 73 -158 57 -121 -40 -181 -91 -196 -165 -3 -17 -11 -52 -17
-80 -12 -56 -16 -162 -7 -172 4 -3 7 -14 7 -23 0 -29 52 -121 74 -130 20 -8
20 -9 -4 -10 -14 -1 -48 -3 -77 -3 -39 -2 -57 -7 -72 -24 -12 -12 -21 -25 -21
-28 0 -7 -7 -15 -97 -112 l-72 -78 -2 135 c-1 74 -3 169 -4 210 -8 235 -13
680 -8 712 l6 38 271 -5 c149 -3 276 -5 281 -6z m22 -386 c43 -55 46 -64 45
-146 0 -94 -22 -154 -73 -203 -22 -21 -40 -29 -69 -29 -52 0 -85 32 -100 97
-26 105 -8 189 53 263 38 44 40 46 84 40 26 -3 52 -12 60 -22z m713 -281 c0
-40 -20 -63 -47 -56 -29 8 -29 22 0 56 29 36 47 35 47 0z m-140 -28 c0 -8 -4
-14 -8 -14 -4 0 -8 9 -8 19 0 11 4 17 8 15 4 -3 8 -12 8 -20z m-598 -249 l48
-7 -4 -172 c-3 -94 -5 -177 -5 -183 -1 -7 -14 -13 -30 -13 -17 0 -33 -5 -36
-10 -4 -6 -14 -10 -23 -9 -10 1 -24 -1 -32 -4 -8 -3 -43 -7 -78 -9 l-62 -4 -1
100 c-2 146 2 300 7 305 15 16 133 19 216 6z"/>
<path d="M3000 2137 c-33 -26 -83 -53 -125 -67 -78 -26 -107 -51 -103 -88 4
-35 67 -67 191 -97 9 -2 24 -11 33 -19 8 -9 26 -16 40 -16 13 0 24 -4 24 -10
0 -13 33 -13 64 1 34 16 43 109 10 109 -8 0 -14 4 -14 9 0 5 26 8 58 7 31 -1
64 1 72 5 15 7 91 17 183 23 172 13 185 16 197 47 10 24 10 33 -4 54 -19 29
-60 42 -81 25 -13 -11 -35 -15 -130 -24 -22 -2 -72 -9 -111 -16 -40 -6 -99
-12 -132 -13 -53 -2 -59 0 -51 14 4 9 6 19 2 22 -3 4 0 13 7 22 11 14 7 19
-12 16 -5 0 -8 3 -8 7 0 7 -43 32 -53 32 -1 0 -27 -20 -57 -43z"/>
</g>
</svg>
