<?xml version="1.0" standalone="no"?>
<!DOCTYPE svg PUBLIC "-//W3C//DTD SVG 20010904//EN"
 "http://www.w3.org/TR/2001/REC-SVG-20010904/DTD/svg10.dtd">
<svg version="1.0" xmlns="http://www.w3.org/2000/svg"
 width="265.000000pt" height="449.000000pt" viewBox="0 0 265.000000 449.000000"
 preserveAspectRatio="xMidYMid meet">
<metadata>
Created by potrace 1.16, written by Peter Selinger 2001-2019
</metadata>
<g transform="translate(0.000000,449.000000) scale(0.100000,-0.100000)"
fill="#000000" stroke="none">
<path d="M1265 4287 c-22 -7 -44 -15 -50 -18 -5 -4 -24 -10 -41 -13 -16 -4
-48 -22 -70 -41 -21 -19 -46 -37 -54 -40 -8 -3 -28 -25 -43 -49 -15 -24 -34
-49 -42 -56 -13 -11 -64 -109 -70 -134 -1 -6 -5 -18 -8 -26 -21 -52 -47 -144
-44 -154 2 -6 1 -18 -3 -26 -20 -38 -29 -172 -20 -300 3 -51 27 -138 41 -150
3 -3 17 -23 32 -44 25 -38 98 -96 120 -96 9 0 5 -116 -5 -125 -3 -4 -148 -8
-158 -5 -28 9 -67 10 -229 6 -144 -3 -143 -2 -143 -105 -1 -106 12 -364 19
-374 6 -9 5 -267 -1 -332 -3 -22 -7 -96 -11 -165 -3 -69 -8 -136 -10 -150 -43
-297 -47 -367 -27 -465 25 -128 92 -359 127 -440 38 -90 52 -166 36 -200 -13
-28 -27 -71 -41 -128 -7 -26 -17 -50 -21 -53 -5 -3 -9 -13 -9 -23 0 -9 -11
-39 -24 -67 -22 -46 -50 -133 -76 -234 -7 -25 -16 -53 -21 -62 -5 -10 -9 -23
-9 -29 0 -6 -8 -23 -19 -37 -24 -35 -26 -95 -3 -115 14 -13 26 -14 52 -7 62
16 183 32 275 36 50 3 96 7 102 9 7 2 13 18 13 34 0 16 5 33 10 36 18 11 11
30 -17 46 -29 16 -63 15 -63 -3 0 -5 -6 -8 -13 -5 -8 3 -52 -3 -100 -13 -47
-9 -91 -14 -97 -10 -6 4 -23 5 -37 2 -20 -4 -25 -2 -21 10 3 8 29 87 57 176
29 89 65 192 81 228 17 36 30 74 30 85 0 10 9 42 20 72 23 60 50 160 50 182 0
8 -9 24 -20 35 -11 11 -20 29 -20 41 0 11 -15 53 -34 93 -19 40 -38 90 -41
111 -4 22 -11 47 -16 55 -4 9 -10 36 -14 60 -4 25 -13 70 -21 100 -8 30 -17
74 -20 96 l-5 42 194 0 c130 0 201 4 216 12 20 10 27 7 66 -29 24 -22 61 -45
84 -51 30 -8 41 -16 41 -30 0 -10 -4 -22 -10 -25 -5 -3 -10 -19 -10 -36 0 -16
-4 -29 -8 -29 -4 0 -8 -8 -9 -17 -1 -10 -7 -43 -15 -73 -17 -67 -6 -133 38
-220 33 -65 52 -83 124 -117 127 -61 170 -150 139 -293 -5 -25 -12 -58 -15
-75 -3 -16 -11 -55 -19 -85 -16 -67 -32 -148 -41 -215 -4 -27 -13 -67 -21 -87
-14 -35 -14 -39 7 -69 13 -17 25 -27 29 -22 3 4 31 16 61 26 47 16 77 18 185
14 72 -3 137 -8 146 -12 25 -9 42 37 23 64 -14 19 -13 21 1 21 12 0 15 7 13
28 -3 26 -6 27 -53 26 -82 -2 -248 -14 -272 -19 -19 -4 -23 -1 -23 18 0 31 28
243 39 292 12 56 51 197 57 207 3 4 36 8 74 8 48 0 73 5 84 15 8 8 19 15 25
15 5 0 22 11 37 25 15 14 33 25 41 25 8 0 49 10 90 22 64 19 79 27 99 57 13
20 26 52 29 71 3 19 12 55 19 80 8 25 13 58 12 73 -1 25 5 30 68 57 38 16 79
38 90 48 12 11 29 22 38 25 10 3 43 44 73 90 l56 85 6 96 c6 92 5 97 -21 136
-30 46 -29 49 32 114 23 24 42 49 42 53 0 5 13 27 29 49 48 66 60 237 22 312
-12 23 -25 42 -30 42 -5 0 -16 6 -23 13 -7 6 -35 23 -61 37 -42 22 -48 29 -47
55 1 17 1 32 0 35 -3 9 -9 44 -12 70 -1 14 -18 45 -36 70 -27 36 -40 45 -65
46 -18 1 -45 7 -62 13 -16 7 -43 15 -60 18 -19 4 -59 36 -115 92 -47 47 -101
97 -120 111 -19 14 -48 37 -66 53 -17 15 -36 27 -42 27 -6 0 -12 3 -14 8 -1 4
-29 27 -62 52 -32 24 -60 50 -63 56 -3 9 -61 11 -229 8 -124 -2 -229 -6 -234
-9 -14 -9 -12 39 2 70 7 16 20 26 37 27 53 4 66 5 81 11 8 3 32 8 54 11 21 3
52 17 70 31 17 14 45 35 61 47 17 11 44 39 60 62 50 66 135 242 155 319 11 40
27 97 36 127 22 77 19 198 -6 300 -12 46 -25 89 -28 95 -4 5 -8 18 -9 28 -5
29 -33 77 -45 77 -6 0 -16 7 -22 15 -6 8 -21 17 -34 20 -12 2 -35 13 -50 23
-34 25 -151 35 -207 19z m127 -108 c11 -12 34 -23 55 -26 68 -9 110 -68 137
-194 21 -97 14 -189 -23 -301 -11 -35 -22 -74 -24 -88 -1 -14 -10 -36 -19 -50
-9 -14 -37 -60 -62 -103 -78 -134 -109 -164 -198 -192 l-76 -24 -74 20 c-60
17 -80 27 -111 62 -71 76 -91 144 -84 279 14 255 83 451 196 551 32 28 136 81
176 89 42 9 90 -1 107 -23z m-542 -1266 c91 -4 139 -11 148 -20 16 -15 45 -17
70 -4 23 12 200 27 282 23 l65 -3 -7 -162 c-4 -89 -9 -171 -12 -181 -7 -28 11
-56 37 -56 12 -1 -14 -15 -58 -33 -107 -43 -122 -65 -123 -182 -1 -47 -4 -90
-7 -95 -3 -5 -15 0 -25 10 -11 11 -31 20 -45 20 -15 0 -40 7 -57 16 -17 9 -51
22 -77 30 -25 8 -53 20 -61 27 -26 22 -75 90 -101 141 -39 78 -43 86 -51 86
-4 0 -22 28 -40 61 -71 134 -116 224 -113 227 2 2 -3 22 -11 44 -22 63 -19 72
18 64 18 -3 93 -9 168 -13z m712 -51 c7 -10 20 -21 28 -25 23 -10 52 -30 74
-50 12 -11 40 -32 63 -48 22 -16 54 -41 70 -56 16 -16 40 -37 54 -48 l24 -19
-35 -9 c-19 -5 -53 -15 -75 -23 -23 -8 -47 -14 -54 -14 -16 0 -50 -40 -51 -59
0 -9 -6 -11 -17 -6 -14 6 -82 8 -122 3 -3 0 -18 0 -32 1 -22 1 -26 5 -21 26 2
14 10 25 17 25 9 0 13 17 14 53 1 68 11 216 17 245 5 27 28 29 46 4z m-930
-212 c34 -63 77 -130 99 -154 11 -11 19 -25 19 -32 0 -7 6 -19 13 -26 15 -16
68 -112 105 -190 23 -49 30 -56 52 -53 14 1 61 -10 105 -24 96 -32 91 -31 113
-31 15 -1 15 -2 -3 -15 -47 -35 -85 -75 -85 -90 0 -8 -4 -15 -8 -15 -19 0 -57
-92 -77 -185 -4 -21 -13 -106 -14 -138 -1 -10 -5 -15 -11 -12 -5 3 -38 -1 -72
-9 -67 -17 -69 -17 -221 -17 -64 1 -96 4 -92 11 3 5 1 10 -5 10 -8 0 -10 16
-6 53 13 121 25 235 30 277 8 68 15 169 22 335 5 112 3 173 -9 240 -8 50 -12
110 -9 135 l5 45 12 -35 c7 -19 23 -55 37 -80z m1306 -133 c13 -21 23 -27 42
-25 19 2 24 8 23 26 -3 21 -1 22 20 11 12 -7 24 -12 27 -13 3 0 14 -10 24 -24
15 -19 25 -23 51 -18 58 11 89 -41 81 -135 -6 -66 -1 -73 86 -112 113 -52 133
-94 103 -221 -17 -72 -82 -176 -110 -176 -8 0 -15 -4 -15 -10 0 -5 -6 -10 -14
-10 -8 0 -30 -15 -49 -32 -28 -26 -35 -40 -33 -68 1 -32 4 -35 32 -38 42 -4
65 -32 71 -86 11 -91 -3 -131 -69 -201 -33 -36 -65 -65 -70 -65 -5 0 -33 -11
-63 -25 -35 -17 -62 -24 -78 -20 -14 4 -34 2 -46 -4 -19 -11 -21 -20 -19 -119
1 -114 -6 -142 -44 -183 -19 -20 -34 -26 -71 -26 -38 -1 -52 -6 -72 -27 -13
-14 -31 -26 -39 -26 -8 0 -16 -4 -18 -8 -1 -4 -31 -17 -64 -29 -53 -17 -66
-18 -91 -8 -17 7 -33 20 -36 29 -4 9 -13 16 -22 16 -8 0 -15 3 -15 8 0 23 -49
64 -87 73 -52 11 -143 65 -143 85 0 8 -4 14 -10 14 -19 0 -52 84 -55 139 -2
45 4 72 29 136 43 106 47 131 27 170 -16 32 -42 46 -108 60 -34 7 -55 37 -68
95 -4 17 -13 30 -22 30 -12 0 -12 2 1 16 15 14 21 45 18 84 -1 8 1 22 5 30 9
21 9 20 18 65 24 120 132 223 197 189 14 -7 42 -14 62 -16 21 -1 39 -6 42 -10
3 -4 11 -5 19 -1 9 3 15 -1 15 -9 0 -9 17 -20 40 -27 22 -6 40 -16 40 -20 0
-12 28 -23 71 -28 30 -3 36 -1 36 14 0 47 4 64 13 58 16 -10 23 21 10 44 -7
15 -19 21 -38 19 -34 -2 -93 11 -109 24 -7 6 -13 7 -13 3 0 -4 -7 -2 -15 5 -8
7 -15 10 -15 7 0 -4 -21 5 -47 19 -29 15 -48 32 -50 45 -6 37 24 169 43 190
27 30 80 41 164 32 74 -8 75 -8 93 -45 29 -60 87 -42 87 26 0 18 12 50 27 74
23 36 33 42 77 50 82 15 105 11 124 -21z"/>
</g>
</svg>
