<?xml version="1.0" standalone="no"?>
<!DOCTYPE svg PUBLIC "-//W3C//DTD SVG 20010904//EN"
 "http://www.w3.org/TR/2001/REC-SVG-20010904/DTD/svg10.dtd">
<svg version="1.0" xmlns="http://www.w3.org/2000/svg"
 width="323.000000pt" height="431.000000pt" viewBox="0 0 323.000000 431.000000"
 preserveAspectRatio="xMidYMid meet">
<metadata>
Created by potrace 1.16, written by Peter Selinger 2001-2019
</metadata>
<g transform="translate(0.000000,431.000000) scale(0.100000,-0.100000)"
fill="#000000" stroke="none">
<path d="M1430 4079 c-19 -10 -42 -19 -52 -19 -20 0 -80 -35 -115 -67 -13 -13
-27 -23 -30 -23 -11 0 -93 -94 -93 -107 0 -6 -8 -18 -17 -25 -10 -7 -25 -27
-34 -43 -8 -17 -25 -48 -36 -70 -38 -73 -83 -190 -89 -235 -2 -14 -6 -38 -9
-55 -23 -126 -15 -200 38 -387 12 -45 91 -127 152 -158 42 -22 43 -23 38 -64
-3 -22 -6 -46 -6 -53 0 -7 -5 -14 -11 -16 -19 -7 -200 13 -219 23 -10 6 -21 9
-25 6 -4 -2 -29 0 -57 5 -27 5 -77 11 -110 14 -78 7 -92 -4 -99 -78 -2 -31 -7
-61 -11 -67 -7 -11 -34 -223 -40 -315 -9 -128 -24 -255 -39 -311 -8 -33 -22
-108 -31 -169 -9 -60 -21 -137 -26 -170 -18 -106 -20 -129 -19 -180 2 -76 2
-421 0 -500 -3 -127 -25 -214 -79 -322 -28 -56 -51 -108 -51 -116 0 -8 -7 -20
-15 -27 -17 -14 -61 -99 -95 -184 -13 -33 -50 -103 -81 -155 -46 -78 -56 -102
-52 -126 3 -16 11 -33 17 -37 18 -12 141 3 236 28 30 8 100 16 155 18 55 1
108 7 117 12 16 8 16 12 3 37 -12 24 -12 27 1 27 10 0 14 8 12 23 -4 26 -37
34 -77 18 -14 -6 -46 -13 -71 -15 -25 -2 -74 -8 -110 -14 -36 -6 -72 -10 -80
-10 -8 1 -30 -2 -47 -6 -40 -9 -41 -2 -8 46 14 20 25 41 25 46 0 5 9 21 21 36
11 14 18 26 16 26 -3 0 5 21 19 47 17 35 20 49 11 55 -9 6 -9 8 0 8 7 0 24 26
39 57 15 32 51 99 81 150 93 157 94 162 99 443 2 135 9 270 15 300 l11 55 166
-1 c177 -1 355 -12 407 -25 6 -1 21 0 35 4 14 3 48 8 77 12 l51 5 7 -32 c4
-18 16 -49 26 -68 11 -19 19 -45 19 -58 0 -13 6 -38 14 -55 23 -51 65 -211 67
-253 1 -22 -6 -73 -15 -114 -10 -41 -19 -113 -21 -160 -4 -98 -14 -181 -25
-195 -4 -5 -10 -30 -14 -55 -4 -25 -11 -72 -16 -105 -34 -217 -34 -214 -19
-231 11 -13 23 -15 69 -9 30 4 84 9 120 12 36 2 72 4 80 5 8 0 31 0 50 -1 157
-6 248 -1 260 14 11 13 10 18 -6 30 -18 13 -18 15 -2 27 27 20 7 42 -39 40
-21 -1 -120 -2 -220 -3 -101 -1 -183 -5 -183 -10 0 -5 -9 -9 -19 -9 -23 0 -30
23 -20 65 4 17 10 52 14 79 3 27 8 53 11 57 2 5 7 31 10 60 3 29 9 59 14 69 5
9 11 50 15 91 11 139 16 184 32 254 8 39 18 77 21 85 10 29 13 60 5 60 -13 0
-41 60 -51 110 -6 25 -18 72 -27 105 -9 33 -26 96 -37 140 -11 44 -23 87 -26
95 -3 8 -4 21 -3 28 1 7 -5 15 -13 18 -15 6 -15 20 -1 94 5 30 12 78 14 103 1
12 35 8 56 -7 11 -7 38 -19 60 -26 22 -7 46 -17 54 -23 15 -12 22 -14 105 -22
33 -3 73 -14 91 -25 18 -11 42 -20 53 -20 11 0 40 -8 64 -18 24 -11 49 -17 56
-15 6 3 12 0 12 -5 0 -5 21 -15 47 -22 60 -15 71 -24 79 -66 3 -19 10 -34 15
-34 5 0 9 -6 9 -13 0 -7 11 -35 24 -63 13 -27 27 -71 30 -97 6 -48 10 -54 86
-137 14 -15 43 -33 65 -40 22 -7 54 -19 71 -26 30 -13 47 -12 132 7 117 26
184 95 224 229 7 25 12 51 10 57 -3 13 10 17 36 14 34 -5 202 115 202 143 0 7
11 18 24 25 22 12 41 55 39 88 0 7 3 13 7 13 15 0 0 82 -20 110 l-21 29 21 41
c17 34 20 54 17 131 -2 50 -9 95 -16 102 -6 6 -11 30 -11 54 0 62 -53 106 -88
71 -9 -9 -16 -8 -29 4 -32 29 -115 55 -148 46 -16 -4 -48 -12 -71 -18 -33 -8
-48 -21 -84 -70 -24 -33 -47 -60 -50 -60 -4 0 -31 4 -60 10 -45 9 -62 7 -119
-12 -36 -13 -69 -27 -72 -31 -4 -5 -15 -6 -26 -3 -10 3 -54 7 -97 8 -53 1 -89
7 -114 19 -32 17 -75 27 -183 44 -22 3 -39 12 -43 23 -3 9 -10 24 -15 32 -10
14 -83 209 -82 217 0 2 -7 20 -16 40 -9 21 -22 63 -30 93 -8 30 -18 73 -24 95
-6 21 -17 54 -26 73 -13 27 -21 33 -40 29 -14 -3 -23 1 -23 9 0 16 -45 22
-202 28 -64 2 -123 8 -130 13 -11 6 -12 15 -4 43 9 29 16 35 41 36 103 5 168
32 240 101 78 75 172 203 158 216 -3 4 2 9 11 13 9 3 13 10 10 15 -3 5 8 44
25 87 54 141 76 246 85 415 9 180 -82 338 -220 381 -33 10 -67 22 -76 27 -29
14 -80 9 -118 -12z m40 -92 c0 -8 7 -14 15 -14 8 0 15 5 15 10 0 19 92 0 115
-24 12 -13 32 -31 44 -39 11 -8 21 -20 21 -27 0 -6 8 -14 19 -18 34 -11 56
-89 57 -210 0 -60 -3 -117 -6 -125 -14 -28 -30 -86 -30 -106 0 -10 -14 -57
-30 -104 -51 -143 -76 -194 -118 -240 -15 -16 -32 -35 -38 -42 -24 -28 -116
-93 -139 -100 -13 -3 -54 -2 -91 2 -53 7 -78 16 -123 47 -31 21 -61 45 -68 53
-17 20 -43 101 -49 147 -3 21 -8 52 -13 68 -4 17 -9 67 -10 112 -3 114 26 197
128 378 22 38 61 89 112 146 25 28 152 99 176 99 7 0 13 -6 13 -13z m-510
-1313 c47 -2 112 -8 145 -14 33 -6 89 -12 125 -15 36 -2 111 -7 168 -11 56 -4
105 -10 107 -14 3 -5 -2 -24 -10 -44 -8 -20 -15 -66 -15 -105 0 -39 -4 -80 -9
-93 -8 -20 -18 -76 -37 -203 -3 -16 -11 -57 -19 -90 -8 -33 -17 -78 -20 -100
-20 -137 -27 -152 -57 -121 -8 8 -28 17 -44 19 -16 3 -38 9 -49 13 -23 9 -64
54 -65 71 0 6 -15 16 -33 22 -29 10 -38 22 -66 86 -19 41 -37 75 -41 75 -4 0
-22 37 -39 83 -18 45 -43 104 -57 130 -13 27 -24 57 -24 66 0 9 -4 21 -8 27
-5 5 -19 36 -32 69 -13 33 -34 79 -47 103 -27 50 -22 67 16 57 14 -4 64 -9
111 -11z m-194 -120 c4 -16 15 -45 24 -64 33 -66 68 -145 110 -245 23 -55 57
-129 76 -164 20 -35 37 -76 39 -90 6 -43 16 -61 36 -61 12 0 27 -17 44 -50 27
-52 47 -66 115 -77 19 -4 44 -12 55 -19 11 -7 36 -15 56 -19 l36 -7 -9 -41
c-5 -22 -12 -45 -15 -50 -3 -6 -7 -28 -8 -51 -2 -40 -18 -85 -33 -87 -44 -8
-71 -10 -157 -9 -146 0 -465 9 -501 13 -63 7 -66 25 -33 181 11 54 18 100 15
103 -3 4 -2 11 3 17 4 6 16 70 25 141 9 72 21 149 26 173 6 23 10 65 10 93 0
29 4 79 10 113 41 251 42 256 56 242 7 -8 16 -27 20 -42z m848 17 c9 -16 25
-66 37 -112 12 -46 25 -88 29 -94 4 -5 15 -34 23 -63 9 -29 23 -65 31 -80 27
-47 46 -103 46 -132 0 -46 10 -60 40 -60 16 0 31 -4 34 -9 3 -4 38 -11 78 -14
40 -4 109 -16 153 -27 44 -11 99 -21 122 -21 23 0 47 -7 54 -15 6 -8 9 -14 6
-14 -3 0 -1 -16 3 -35 9 -40 5 -46 -60 -85 -34 -20 -48 -39 -78 -102 -29 -62
-41 -78 -58 -78 -12 0 -24 6 -27 14 -3 8 -14 15 -24 15 -38 -1 -96 12 -115 25
-11 8 -27 12 -34 9 -8 -3 -14 0 -14 6 0 7 -25 11 -67 11 -48 0 -77 5 -98 19
-17 10 -54 20 -82 23 -38 4 -62 13 -92 37 -23 18 -41 30 -41 26 0 -4 -6 -2
-14 5 -10 7 -13 23 -10 43 12 89 25 167 34 207 6 25 12 56 14 70 2 14 6 32 9
40 10 27 35 164 42 224 6 63 34 196 41 196 2 0 10 -13 18 -29z m1201 -441 c8
0 30 -13 48 -30 19 -16 40 -30 47 -30 20 0 41 -28 56 -77 9 -27 18 -55 21 -63
15 -38 -6 -80 -41 -81 -29 0 -67 -50 -59 -77 3 -12 12 -22 21 -22 17 0 92 -77
92 -94 0 -55 -44 -113 -123 -163 -66 -42 -100 -47 -144 -23 -48 26 -48 26 -73
-10 -21 -29 -21 -32 -5 -57 30 -45 34 -77 16 -129 -21 -64 -28 -74 -75 -110
-36 -26 -47 -29 -115 -29 -61 1 -84 5 -118 25 -24 13 -43 27 -43 31 0 5 -11
20 -24 34 -23 25 -26 65 -5 65 16 0 31 51 19 65 -5 6 -7 15 -3 18 3 4 -3 7
-15 7 -27 0 -59 34 -84 87 -15 34 -16 46 -7 62 10 15 9 25 -3 52 -18 35 -14
51 29 122 24 39 46 45 75 23 16 -11 23 -9 52 17 34 30 34 31 19 61 -24 47 -21
105 8 127 13 10 20 19 14 19 -5 0 4 7 20 16 65 35 137 21 166 -33 14 -27 31
-29 53 -8 8 8 19 15 25 15 18 0 21 16 9 48 -11 28 -9 35 10 61 12 17 22 34 22
39 0 13 74 52 88 47 8 -3 20 -5 27 -5z"/>
</g>
</svg>
