<?xml version="1.0" standalone="no"?>
<!DOCTYPE svg PUBLIC "-//W3C//DTD SVG 20010904//EN"
 "http://www.w3.org/TR/2001/REC-SVG-20010904/DTD/svg10.dtd">
<svg version="1.0" xmlns="http://www.w3.org/2000/svg"
 width="505.000000pt" height="475.000000pt" viewBox="0 0 505.000000 475.000000"
 preserveAspectRatio="xMidYMid meet">
<metadata>
Created by potrace 1.16, written by Peter Selinger 2001-2019
</metadata>
<g transform="translate(0.000000,475.000000) scale(0.100000,-0.100000)"
fill="#000000" stroke="none">
<path d="M3892 4577 c-26 -28 -52 -88 -52 -122 0 -30 39 -68 78 -75 27 -5 27
-6 28 -90 0 -47 -4 -96 -9 -110 -5 -14 -10 -34 -12 -45 -8 -58 -28 -151 -34
-160 -4 -5 -16 -35 -28 -65 -11 -30 -26 -69 -32 -86 -10 -26 -16 -30 -41 -26
-20 3 -38 -3 -56 -17 -36 -28 -91 -121 -86 -145 2 -11 0 -16 -7 -12 -5 4 -13
22 -17 41 -3 19 -12 39 -20 46 -8 6 -14 21 -14 33 0 17 -52 175 -86 261 -10
26 -55 88 -71 98 -7 4 -13 15 -13 22 0 8 -4 15 -10 15 -5 0 -10 10 -10 22 0
12 -3 19 -6 15 -8 -7 -42 26 -79 76 -30 41 -61 60 -139 86 -44 15 -57 16 -120
4 -120 -22 -155 -61 -161 -178 -2 -44 -6 -87 -9 -95 -4 -9 -28 -26 -54 -38
-26 -13 -74 -48 -107 -78 -59 -55 -59 -56 -63 -120 -5 -67 6 -106 41 -158 24
-34 16 -42 -58 -51 -49 -6 -215 -79 -215 -94 0 -4 -11 -13 -23 -18 -39 -18
-81 -116 -85 -198 -3 -77 11 -117 43 -123 10 -3 24 -10 31 -17 7 -6 38 -15 69
-19 32 -3 65 -10 74 -15 24 -13 207 -22 233 -12 13 5 48 11 78 15 30 3 82 10
115 15 33 6 87 13 120 16 33 4 68 9 78 11 9 3 17 2 17 -1 0 -4 -51 -58 -113
-120 -73 -72 -122 -131 -137 -162 -46 -94 -43 -235 6 -300 13 -17 24 -35 24
-40 1 -17 50 -63 88 -83 22 -11 62 -23 90 -27 112 -13 207 61 311 242 10 19
11 18 8 -5 -1 -14 -6 -31 -11 -39 -5 -8 -9 -71 -8 -140 1 -118 2 -129 28 -176
28 -49 60 -84 78 -85 5 0 18 -7 28 -17 29 -26 155 -30 195 -6 44 27 119 114
120 141 1 12 11 35 22 51 12 16 21 44 21 62 0 33 0 33 15 12 8 -12 32 -32 52
-44 21 -13 40 -25 43 -28 20 -23 184 -28 218 -8 6 5 12 5 12 2 0 -19 98 50
115 80 10 19 22 35 27 35 4 0 8 8 8 18 0 9 7 25 15 35 7 11 11 25 9 32 -8 19
7 25 72 30 31 2 62 9 68 15 5 5 17 10 26 10 27 0 96 86 106 133 18 83 7 223
-21 253 -5 6 -21 26 -35 44 -42 57 -102 113 -164 155 -66 44 -102 60 -191 82
-33 9 -82 21 -110 29 -71 18 -159 28 -237 25 -63 -1 -68 0 -68 19 0 11 8 23
18 26 89 28 136 89 122 162 -4 23 -3 42 1 42 5 0 9 6 9 13 1 13 79 66 120 81
14 5 32 14 40 21 49 39 284 131 355 140 32 3 62 8 65 10 4 2 28 -7 55 -20 80
-41 120 -31 148 37 16 39 13 73 -10 99 -11 14 -26 16 -71 12 -31 -3 -63 -12
-71 -20 -8 -8 -22 -12 -32 -10 -11 3 -19 1 -19 -3 0 -5 -26 -14 -57 -20 -60
-12 -155 -42 -209 -66 -118 -52 -171 -77 -184 -88 -22 -20 -171 -96 -187 -96
-7 0 -13 6 -13 13 0 13 -24 29 -61 40 -11 4 -15 14 -14 30 4 38 15 67 26 67 5
0 9 8 9 19 0 10 7 36 16 57 9 20 20 60 25 88 28 152 39 238 39 303 0 40 5 75
11 78 25 16 -29 147 -68 164 -33 15 -36 14 -61 -12z m54 -92 c10 -26 0 -37
-20 -22 -11 8 -16 19 -12 25 10 16 26 15 32 -3z m-715 -296 c17 -15 43 -46 59
-70 16 -24 43 -62 59 -84 17 -22 34 -47 37 -55 4 -8 12 -21 18 -28 14 -19 131
-384 123 -386 -1 -1 -11 -7 -22 -14 -11 -7 -28 -15 -37 -18 -10 -4 -18 -11
-18 -17 0 -21 -54 -67 -79 -67 -40 0 -217 60 -366 125 -27 12 -58 25 -67 28
-10 4 -18 11 -18 17 0 5 -6 10 -13 10 -24 0 -112 97 -112 124 0 6 -6 15 -12
19 -18 11 -16 62 2 81 8 8 15 19 15 25 0 6 6 11 14 11 8 0 16 3 18 8 5 13 91
72 105 72 13 0 42 48 49 83 3 12 5 50 5 84 0 77 18 96 98 103 61 6 89 -4 142
-51z m1534 -239 c-3 -5 -13 -10 -21 -10 -8 0 -14 5 -14 10 0 6 9 10 21 10 11
0 17 -4 14 -10z m-902 -271 c31 -13 60 -66 55 -101 -5 -34 -61 -51 -107 -32
-46 19 -46 19 -46 68 0 67 34 90 98 65z m-1058 -158 c32 13 42 10 66 -16 13
-13 34 -25 47 -25 12 0 30 -4 40 -9 28 -14 77 -33 77 -29 0 1 15 -8 34 -21 18
-13 49 -26 68 -28 20 -2 48 -10 64 -18 15 -8 34 -15 42 -15 8 0 34 -9 58 -20
l44 -20 -58 0 c-59 0 -145 -16 -160 -30 -5 -4 -24 -4 -42 0 -19 4 -36 6 -38 4
-5 -6 -109 -24 -167 -31 -25 -2 -67 -11 -93 -18 -33 -10 -71 -12 -115 -8 -99
8 -101 9 -108 16 -4 4 -19 7 -33 7 -41 1 -111 36 -111 57 0 25 37 94 64 118
68 62 227 113 276 90 15 -8 33 -9 45 -4z m904 -53 c20 -13 41 -23 46 -23 6 0
12 -18 15 -40 3 -22 9 -45 13 -52 17 -27 -42 -80 -98 -89 -11 -1 -37 -5 -57
-9 -57 -9 -114 27 -127 82 -6 23 -11 44 -11 46 0 18 75 83 106 93 57 18 73 16
113 -8z m377 -186 c18 -9 86 -26 149 -37 17 -3 39 -7 51 -9 34 -7 117 -48 151
-75 18 -14 43 -35 57 -46 14 -11 29 -29 32 -40 9 -26 44 -75 72 -100 23 -22
29 -69 16 -134 -8 -37 -50 -85 -69 -77 -7 2 -15 1 -17 -3 -2 -5 -31 -11 -66
-14 -45 -3 -68 -10 -81 -24 -24 -25 -42 -59 -47 -90 -18 -99 -157 -156 -249
-102 -22 13 -43 28 -47 34 -4 7 -27 33 -51 60 -45 48 -98 141 -103 179 -1 12
-7 41 -13 66 -5 25 -23 107 -38 183 l-29 139 31 31 c18 18 34 37 36 44 2 7 21
13 42 15 21 1 40 5 43 9 6 10 108 3 130 -9z m-640 -91 c-3 -4 14 -14 37 -21
53 -17 51 -15 37 -39 -6 -12 -13 -38 -16 -57 -4 -36 -49 -147 -86 -213 -51
-91 -73 -126 -80 -129 -5 -2 -18 -22 -29 -45 -23 -45 -26 -47 -87 -95 -42 -33
-42 -33 -89 -19 -38 11 -55 24 -81 60 -68 95 -54 218 36 300 25 23 76 72 112
109 36 37 82 74 103 83 20 8 46 26 59 39 21 22 42 32 76 35 7 0 11 -3 8 -8z
m249 -90 c-3 -5 -1 -12 4 -16 9 -5 16 -32 62 -255 19 -93 36 -139 70 -190 9
-14 15 -34 14 -45 -13 -100 -45 -182 -94 -235 -32 -35 -58 -40 -128 -25 -36 8
-49 20 -55 50 -1 11 -7 23 -13 27 -12 8 -7 211 5 244 5 12 14 60 20 106 6 45
17 92 24 103 12 18 33 75 41 108 1 7 6 27 10 45 4 18 12 35 16 38 5 3 9 16 9
30 0 13 5 24 11 24 5 0 8 -4 4 -9z"/>
<path d="M3082 4154 c-12 -8 -22 -23 -22 -32 0 -10 -6 -26 -14 -37 -17 -27
-29 -75 -17 -75 5 0 12 -13 16 -29 5 -23 17 -34 57 -51 l50 -21 53 25 c29 15
56 34 59 44 22 61 24 76 15 100 -13 36 -57 72 -85 72 -13 0 -26 5 -29 10 -9
15 -58 12 -83 -6z m33 -84 c-9 -14 38 -13 53 2 9 9 16 7 32 -7 33 -30 25 -53
-21 -67 -38 -11 -43 -10 -59 10 -10 11 -20 18 -24 15 -8 -8 -8 5 0 35 4 12 11
22 16 22 5 0 6 -4 3 -10z"/>
<path d="M4361 3093 c-8 -3 -31 -22 -52 -42 -26 -26 -38 -48 -43 -78 -3 -24
-2 -43 3 -43 5 0 11 -12 14 -28 8 -40 46 -77 99 -97 52 -19 63 -16 114 33 87
83 77 149 -36 231 -41 30 -68 36 -99 24z m49 -91 c19 -10 47 -29 62 -43 l27
-25 -29 -32 c-28 -31 -60 -43 -60 -22 0 6 -3 9 -7 8 -20 -6 -53 26 -63 60 -9
33 -8 39 11 55 25 21 18 21 59 -1z"/>
<path d="M2820 2482 c-58 -30 -95 -50 -120 -64 -8 -4 -45 -23 -82 -40 -65 -32
-88 -57 -88 -97 0 -24 18 -38 55 -43 l29 -3 -48 -55 c-27 -30 -74 -84 -106
-120 -166 -187 -179 -205 -170 -240 13 -52 90 -57 106 -6 4 12 26 41 50 66
113 119 153 164 148 172 -3 4 -1 8 5 8 14 0 66 51 81 80 l12 22 22 -21 c12
-12 30 -21 40 -21 26 0 81 43 83 65 5 55 61 212 85 240 18 20 8 62 -17 73 -32
15 -20 17 -85 -16z"/>
<path d="M1793 1805 c-17 -20 -23 -44 -29 -110 -5 -64 -10 -85 -21 -85 -8 0
-12 3 -10 8 3 4 8 42 12 84 7 72 6 77 -15 88 -32 17 -41 -1 -39 -75 3 -128 4
-125 -62 -184 l-60 -54 -32 30 c-46 42 -79 61 -118 65 l-34 4 1 97 c2 104 -5
117 -42 76 -16 -18 -19 -35 -17 -100 1 -44 -2 -79 -6 -79 -4 0 -15 6 -25 13
-15 11 -17 23 -12 78 3 35 6 80 8 99 3 29 0 35 -17 35 -16 0 -23 -12 -35 -63
-12 -50 -18 -60 -28 -50 -6 6 -12 21 -12 33 0 11 -4 26 -9 34 -11 18 -48 6
-56 -19 -6 -20 18 -89 38 -105 7 -6 22 -25 35 -43 16 -23 19 -32 9 -32 -8 0
-34 -18 -59 -40 -25 -21 -48 -36 -52 -33 -3 3 -6 1 -6 -5 0 -12 -26 -10 -129
6 -38 6 -46 11 -53 37 -8 26 -7 48 7 141 1 11 -3 30 -9 42 -10 20 -14 21 -30
9 -16 -12 -19 -28 -19 -108 0 -52 1 -102 4 -113 3 -12 -3 -21 -18 -27 -21 -8
-23 -5 -24 24 -1 18 -3 39 -4 47 -1 8 -3 21 -4 28 -2 18 -39 15 -49 -5 -6 -12
-5 -35 3 -65 8 -34 9 -49 1 -52 -6 -2 -3 -5 7 -5 24 -1 22 -10 -23 -79 -38
-59 -41 -62 -80 -62 -55 0 -97 -19 -148 -68 l-43 -41 -28 30 c-16 16 -39 54
-52 85 -21 47 -27 54 -49 52 -20 -3 -26 -9 -28 -37 -2 -19 1 -37 5 -40 5 -3
26 -32 47 -64 23 -35 47 -59 62 -63 13 -3 24 -7 24 -8 0 -1 -13 -30 -30 -64
-16 -34 -30 -66 -30 -70 -1 -7 -71 -45 -75 -40 -1 2 -17 33 -34 70 -34 71 -56
92 -82 77 -16 -8 -15 -56 0 -69 10 -8 71 -111 71 -120 0 -4 -6 -10 -14 -13
-15 -6 -81 64 -126 134 -14 21 -33 39 -42 39 -19 0 -23 -5 -32 -42 -5 -24 3
-36 69 -104 64 -66 86 -94 72 -94 -12 0 -78 38 -110 63 -48 37 -69 31 -65 -20
3 -35 7 -39 75 -73 50 -25 69 -40 64 -48 -20 -33 8 -163 41 -190 12 -9 29 -25
39 -34 20 -19 116 -65 151 -72 88 -19 164 -14 234 15 16 7 32 13 36 13 8 1 68
93 68 104 0 4 27 8 60 8 41 1 75 8 104 24 45 23 146 112 146 129 0 14 29 17
95 10 37 -5 65 -3 72 3 7 6 13 7 13 2 0 -5 4 -4 8 1 4 6 26 20 50 33 l42 23
29 -20 c19 -14 45 -21 75 -21 25 0 46 -4 46 -9 0 -5 16 -12 35 -15 25 -5 55 0
107 19 l73 25 30 -35 c17 -19 37 -35 46 -35 8 0 19 -4 25 -8 15 -13 75 -30
130 -37 44 -6 59 -3 103 19 49 25 52 26 77 10 38 -26 167 -53 223 -48 46 4 49
3 59 -23 13 -38 110 -133 136 -133 12 0 41 -9 64 -20 30 -13 70 -21 125 -22
75 -3 86 0 132 26 61 36 111 83 124 117 17 46 24 200 11 249 -7 25 -14 58 -16
74 -2 16 -8 32 -12 35 -5 3 -13 17 -17 31 -16 55 -103 108 -218 134 -16 4 -25
11 -21 17 3 6 2 21 -4 32 -22 44 -52 116 -52 124 0 4 -13 20 -29 36 -16 15
-35 41 -43 57 -7 17 -16 30 -19 30 -12 0 19 109 40 143 25 41 28 77 5 77 -33
0 -78 -75 -90 -151 -6 -34 -10 -39 -41 -45 -19 -4 -36 -4 -39 -1 -6 6 25 121
47 174 17 42 3 60 -29 37 -34 -24 -54 -71 -54 -133 0 -67 -9 -87 -42 -93 -19
-4 -26 0 -30 17 -7 26 17 101 39 125 18 19 16 67 -2 74 -13 5 -39 -26 -67 -81
-9 -18 -16 -56 -16 -85 l0 -54 -57 -37 c-31 -20 -57 -36 -57 -35 -1 2 -10 21
-21 43 -10 22 -19 42 -20 45 -18 64 -88 133 -152 149 -43 11 -45 13 -40 44 7
47 14 73 26 96 6 11 11 33 11 50 0 26 -4 31 -23 31 -20 0 -25 -11 -48 -92 -25
-92 -25 -92 -58 -94 l-33 -2 6 42 c11 64 12 70 20 88 9 21 5 50 -9 54 -5 2
-20 -8 -32 -21z m87 -283 c0 -5 19 -12 42 -15 24 -3 48 -13 55 -24 8 -10 20
-26 28 -35 26 -31 55 -101 55 -134 0 -43 35 -87 64 -78 11 4 24 12 28 18 4 6
21 9 37 8 23 -3 34 3 47 23 23 36 64 51 160 59 l81 6 27 -34 c14 -19 26 -39
26 -44 0 -6 6 -12 14 -15 8 -3 17 -19 21 -36 4 -17 11 -33 16 -36 22 -14 2
-76 -33 -103 -9 -7 -24 -19 -32 -27 -8 -8 -18 -15 -22 -15 -21 0 -82 -80 -93
-123 -8 -26 -18 -50 -23 -53 -4 -3 -6 -10 -2 -15 3 -5 3 -22 -1 -38 -8 -38
-46 -45 -133 -26 -83 19 -105 48 -115 145 -9 79 -32 110 -70 93 -33 -15 -49
-93 -30 -148 15 -43 12 -48 -32 -62 -92 -31 -233 64 -270 181 -19 59 -38 78
-71 70 -42 -11 -46 -40 -19 -131 6 -17 1 -25 -25 -38 -31 -16 -46 -16 -135 0
-5 1 -18 3 -27 3 -25 3 -118 92 -112 107 3 7 -2 25 -11 38 -14 22 -20 24 -47
16 -18 -5 -35 -14 -40 -21 -12 -20 -9 -66 7 -98 14 -28 14 -30 -7 -42 -61 -34
-199 -21 -213 21 -10 30 -60 78 -86 84 -33 8 -62 -21 -65 -64 -2 -25 4 -34 27
-47 16 -10 29 -22 29 -28 0 -7 7 -14 15 -18 20 -7 19 -39 -2 -59 -71 -67 -90
-77 -140 -74 -17 1 -23 7 -23 25 0 14 -5 42 -12 63 -10 36 -14 39 -49 39 -46
0 -53 -10 -51 -75 1 -50 -10 -100 -30 -142 -13 -26 -75 -53 -124 -53 -44 0
-163 37 -187 59 -40 34 -51 95 -26 144 14 28 60 77 71 77 5 0 19 9 31 20 12
12 33 23 47 26 79 18 102 48 94 122 -3 25 0 45 9 53 7 8 21 31 30 51 20 42 54
63 105 66 28 2 34 -2 49 -33 9 -19 22 -35 29 -35 7 0 19 -3 27 -6 40 -15 76
78 42 106 -19 16 -19 34 0 50 8 7 13 16 10 20 -3 4 11 24 31 45 l35 37 67 -7
c58 -6 71 -11 100 -40 19 -19 31 -39 28 -44 -4 -5 3 -12 14 -16 11 -3 20 -13
20 -21 0 -8 9 -14 20 -14 11 0 20 -4 20 -9 0 -21 41 3 46 28 3 14 7 35 9 45 2
11 -8 34 -24 53 l-28 34 28 30 c15 16 29 29 31 28 2 -1 14 4 28 12 35 19 70
21 70 3 0 -16 16 -19 25 -4 3 6 19 10 34 10 31 0 65 -34 95 -92 12 -25 26 -38
39 -38 29 0 84 37 130 87 59 64 130 109 177 111 22 2 40 -1 40 -6z m898 -498
c12 -4 22 -11 22 -16 0 -5 11 -19 25 -32 16 -15 23 -31 20 -44 -2 -12 9 -47
25 -78 34 -68 31 -87 -9 -71 -16 6 -36 7 -45 4 -20 -8 -39 -53 -31 -76 8 -25
59 -50 79 -39 30 17 2 -25 -37 -54 -42 -33 -125 -44 -171 -24 -17 8 -46 20
-63 27 -18 8 -33 17 -33 21 0 5 -7 8 -16 8 -20 0 -47 67 -40 100 3 16 -1 36
-10 49 -14 19 -14 26 1 64 23 60 92 135 140 152 42 15 105 19 143 9z"/>
<path d="M2699 949 c-30 -46 -29 -57 1 -83 26 -21 33 -23 59 -13 25 9 30 17
34 56 3 25 4 48 2 49 -2 2 -21 6 -42 9 -33 4 -42 2 -54 -18z"/>
<path d="M963 1662 c-14 -9 -9 -104 7 -146 9 -25 35 -36 42 -16 2 5 1 45 -2
87 -5 79 -16 95 -47 75z"/>
<path d="M525 1478 c-25 -22 -26 -24 -11 -53 9 -17 16 -36 16 -42 0 -18 32
-53 47 -53 7 0 13 10 12 23 -1 31 -23 134 -31 142 -3 3 -18 -4 -33 -17z"/>
<path d="M390 1435 c-12 -23 -10 -29 23 -78 20 -29 37 -57 37 -61 0 -4 5 -12
10 -19 6 -7 19 -23 29 -37 16 -20 22 -22 32 -13 17 17 -1 76 -49 166 -39 72
-60 83 -82 42z"/>
</g>
</svg>
