<?xml version="1.0" standalone="no"?>
<!DOCTYPE svg PUBLIC "-//W3C//DTD SVG 20010904//EN"
 "http://www.w3.org/TR/2001/REC-SVG-20010904/DTD/svg10.dtd">
<svg version="1.0" xmlns="http://www.w3.org/2000/svg"
 width="369.000000pt" height="441.000000pt" viewBox="0 0 369.000000 441.000000"
 preserveAspectRatio="xMidYMid meet">
<metadata>
Created by potrace 1.16, written by Peter Selinger 2001-2019
</metadata>
<g transform="translate(0.000000,441.000000) scale(0.100000,-0.100000)"
fill="#000000" stroke="none">
<path d="M3111 4387 c-7 -12 -13 -39 -13 -57 -1 -19 -11 -58 -24 -87 -13 -28
-24 -56 -24 -62 0 -12 -35 -127 -56 -184 -8 -20 -14 -48 -14 -61 0 -13 -11
-48 -24 -78 -13 -30 -28 -77 -32 -104 -6 -42 -21 -80 -63 -164 -4 -8 -14 -39
-21 -68 -6 -29 -23 -83 -36 -120 -14 -37 -27 -74 -29 -82 -2 -8 -20 -54 -40
-102 -19 -48 -35 -94 -35 -102 0 -8 -5 -18 -10 -21 -6 -4 -8 -10 -5 -15 3 -5
-1 -28 -10 -52 -8 -24 -15 -51 -15 -60 0 -26 -27 -105 -61 -176 -16 -35 -29
-67 -29 -72 0 -22 -38 -125 -76 -204 -7 -15 -16 -43 -20 -62 -3 -19 -10 -34
-16 -34 -5 0 -7 -4 -3 -9 3 -5 1 -12 -5 -16 -5 -3 -10 -14 -10 -23 0 -10 -9
-35 -20 -57 -11 -22 -20 -45 -20 -52 0 -17 -94 -18 -139 -2 -24 8 -31 16 -26
28 61 150 65 216 17 227 -15 3 -40 10 -57 14 -41 12 -86 20 -175 30 -41 5 -91
12 -110 15 l-36 7 17 82 c26 127 21 121 85 124 70 4 167 49 228 106 54 52 106
152 119 231 5 33 10 105 11 160 1 90 -2 106 -27 159 -15 32 -39 71 -55 86 -36
36 -138 110 -152 110 -6 0 -22 8 -37 17 -33 22 -161 27 -181 7 -7 -8 -24 -14
-37 -14 -13 0 -27 -5 -30 -11 -4 -6 -13 -8 -21 -5 -24 9 -99 -88 -128 -164
-14 -39 -26 -80 -26 -90 0 -10 -4 -21 -9 -24 -5 -3 -12 -36 -16 -74 -8 -85 16
-202 56 -272 5 -8 15 -30 23 -47 16 -35 77 -103 92 -103 17 0 47 -42 35 -49
-6 -4 -19 -45 -29 -92 -9 -46 -21 -90 -25 -97 -11 -17 -183 -5 -214 15 -18 12
-26 12 -60 -2 -21 -9 -58 -18 -83 -20 -25 -2 -74 -6 -110 -9 -36 -3 -136 -8
-222 -11 l-157 -6 14 49 c9 28 17 63 19 78 6 51 17 87 48 163 16 40 33 94 38
120 4 25 24 89 43 142 19 53 40 120 47 150 7 30 25 83 41 119 15 36 29 83 32
105 8 62 37 173 66 250 14 38 26 74 27 80 0 5 5 21 11 35 6 14 21 59 33 100
12 41 26 86 30 100 5 14 11 43 15 64 4 21 12 44 19 51 7 7 13 32 14 56 2 36
-2 47 -22 61 -22 16 -25 16 -57 0 -29 -15 -35 -25 -47 -77 -7 -33 -17 -78 -23
-100 -6 -22 -13 -52 -16 -67 -3 -16 -9 -28 -13 -28 -4 0 -7 -6 -7 -12 2 -18
-23 -129 -33 -147 -12 -22 -22 -52 -27 -75 -2 -11 -8 -25 -13 -31 -6 -7 -13
-32 -16 -56 -3 -24 -13 -62 -21 -84 -8 -22 -19 -68 -23 -102 -5 -34 -14 -70
-19 -80 -33 -59 -54 -129 -78 -260 -3 -18 -12 -38 -19 -44 -8 -6 -14 -19 -14
-28 0 -9 -7 -29 -16 -46 -9 -16 -17 -49 -20 -72 -2 -24 -8 -51 -13 -60 -22
-44 -40 -94 -47 -129 -5 -22 -9 -41 -9 -44 -1 -3 -5 -23 -10 -45 -4 -22 -12
-46 -18 -52 -5 -7 -7 -13 -3 -13 9 0 -23 -73 -36 -81 -6 -4 -27 -5 -47 -2 -20
3 -54 0 -75 -5 -24 -7 -47 -7 -62 -2 -13 5 -24 6 -24 1 0 -5 -21 -12 -47 -15
-76 -11 -109 -25 -121 -51 -6 -13 -7 -27 -3 -30 5 -2 12 -17 16 -32 6 -24 65
-102 118 -155 9 -10 17 -24 17 -32 0 -7 7 -19 15 -26 9 -7 14 -15 11 -17 -6
-6 58 -70 67 -66 14 8 7 -53 -10 -77 -10 -14 -19 -29 -20 -35 -25 -120 -26
-120 -112 -133 -119 -19 -194 -23 -202 -11 -8 14 -77 -20 -81 -40 -6 -27 21
-91 57 -138 19 -25 35 -49 35 -53 0 -4 18 -27 41 -51 22 -24 48 -56 57 -71 9
-16 20 -28 24 -28 5 0 35 -18 68 -41 63 -43 110 -92 110 -115 0 -12 13 -17 71
-28 8 -2 42 0 75 5 32 4 81 10 109 14 27 3 56 12 64 18 11 9 15 9 19 -1 2 -8
8 -10 15 -4 25 19 96 23 127 7 17 -9 35 -13 40 -10 17 11 133 -17 190 -45 30
-15 68 -30 83 -34 15 -3 27 -11 27 -16 0 -6 6 -10 14 -10 8 0 22 -7 30 -16 15
-14 15 -18 -1 -47 -10 -18 -23 -39 -30 -48 -7 -9 -27 -45 -44 -80 -17 -35 -51
-94 -75 -130 -24 -37 -44 -69 -44 -72 0 -8 -106 -168 -144 -219 -20 -25 -36
-49 -36 -53 0 -10 -27 -35 -38 -35 -12 0 -31 -66 -25 -89 6 -25 44 -41 95 -41
43 0 116 -18 132 -32 6 -4 17 -8 26 -8 9 0 36 -9 60 -21 46 -22 90 -31 90 -19
0 4 8 10 19 13 34 9 31 59 -8 137 -11 21 -36 24 -54 5 -15 -14 -24 -13 -101
14 -46 16 -87 27 -90 24 -3 -4 -6 -2 -6 4 0 5 15 30 34 54 30 39 51 72 90 144
12 22 64 93 83 113 7 7 13 20 13 28 0 8 5 14 10 14 6 0 10 6 10 13 0 7 13 34
30 60 16 26 32 57 35 70 3 12 31 56 62 97 31 41 59 86 63 101 10 35 -13 91
-34 83 -9 -3 -16 -1 -16 5 0 5 -19 16 -42 22 -24 7 -47 18 -53 24 -5 7 -12 12
-15 12 -3 -1 -14 4 -25 11 l-20 11 20 2 c32 2 57 7 105 20 25 6 61 11 80 11
95 -1 151 -6 156 -14 7 -11 241 -128 257 -128 6 0 22 -8 35 -18 27 -21 29 -12
-49 -179 -22 -45 -39 -85 -39 -89 0 -10 -72 -157 -85 -174 -6 -8 -18 -31 -25
-50 -7 -19 -22 -47 -32 -62 -10 -14 -18 -34 -18 -45 0 -10 -7 -27 -15 -37 -8
-11 -15 -28 -15 -38 0 -10 -3 -18 -8 -18 -4 0 -18 -20 -31 -45 -13 -25 -28
-45 -32 -45 -5 0 -9 -7 -9 -16 0 -8 -7 -22 -15 -30 -8 -9 -15 -28 -15 -44 0
-37 41 -63 101 -66 25 -1 55 -7 67 -13 12 -6 22 -9 22 -7 0 3 21 -4 46 -15 26
-11 59 -21 73 -22 15 -2 32 -7 39 -11 7 -4 24 5 43 24 25 25 30 36 24 58 -4
15 -8 28 -9 30 -2 1 -31 7 -65 13 -33 5 -73 14 -88 20 -16 6 -30 10 -32 9 -2
-1 -7 3 -10 9 -4 6 -19 12 -34 13 -33 3 -33 7 -4 44 12 16 21 30 19 32 -2 1 8
26 21 55 14 29 41 88 61 132 21 44 42 89 48 100 33 59 76 154 83 184 4 19 20
54 36 79 16 25 29 53 29 62 0 8 6 24 14 35 18 27 38 91 40 129 2 26 -4 35 -41
59 -24 15 -49 27 -55 27 -7 0 -28 9 -46 20 -18 11 -38 20 -45 20 -17 0 -73 47
-66 54 4 4 36 8 73 9 36 1 66 5 66 9 0 5 24 7 53 7 29 -1 63 2 75 5 12 4 30 3
40 -3 12 -7 22 -7 29 0 11 11 74 22 116 21 15 -1 27 4 27 9 0 7 10 9 23 5 20
-5 24 0 34 34 9 35 8 44 -12 70 -12 16 -35 40 -51 52 -37 29 -104 100 -104
110 0 4 4 8 9 8 5 0 12 15 15 32 11 55 13 62 25 91 6 15 14 40 17 55 3 15 8
34 11 42 4 8 7 17 8 20 1 3 4 12 8 20 3 8 11 33 18 55 6 22 15 45 19 50 4 6
11 26 15 45 4 19 18 53 30 75 13 22 26 54 29 70 7 39 33 110 50 138 8 12 17
38 21 57 4 19 18 59 31 89 13 29 26 63 29 75 2 11 17 55 33 96 16 41 40 113
52 160 12 47 40 137 62 200 58 168 128 384 128 393 0 4 14 36 30 69 17 34 42
102 56 152 14 50 29 100 34 111 5 11 18 54 30 95 44 158 64 217 93 272 25 49
28 62 20 95 -8 36 -11 38 -54 41 -39 3 -47 0 -58 -21z m-1111 -833 c29 -8 83
-37 121 -62 65 -45 69 -50 90 -116 26 -84 22 -170 -16 -279 -20 -59 -34 -80
-77 -120 -64 -59 -83 -67 -157 -67 -55 0 -61 3 -100 40 -22 22 -45 40 -50 40
-8 0 -63 112 -68 140 -22 120 -18 202 12 267 14 30 25 61 25 68 0 8 3 15 8 17
4 2 14 14 23 27 10 17 35 31 75 42 32 10 59 18 60 18 0 1 24 -6 54 -15z m-425
-1055 c48 5 66 5 134 -3 83 -9 85 -9 92 -20 4 -5 31 -10 60 -12 30 -2 88 -8
129 -14 41 -6 86 -12 100 -14 55 -6 70 -16 66 -44 -1 -15 -9 -38 -16 -51 -7
-13 -20 -51 -30 -85 -10 -34 -25 -77 -34 -96 -8 -19 -32 -78 -52 -130 -20 -52
-52 -128 -71 -169 -20 -41 -39 -86 -44 -100 -4 -14 -23 -66 -42 -116 l-34 -90
-109 -1 c-60 -1 -140 -7 -179 -14 -38 -7 -92 -14 -120 -16 -86 -6 -139 -13
-162 -20 -15 -4 -23 -2 -23 6 0 10 -3 10 -15 0 -12 -10 -15 -9 -15 6 0 11 5
35 10 54 5 19 20 79 34 133 14 54 32 108 41 120 8 12 15 32 15 45 0 13 13 62
29 110 16 48 37 114 46 147 9 33 21 71 27 85 5 14 18 61 28 105 20 91 50 176
65 187 6 4 17 5 25 1 8 -3 29 -5 45 -4z m-191 -23 c-4 -12 -15 -39 -25 -60
-11 -22 -19 -45 -19 -51 0 -11 -54 -201 -67 -235 -6 -15 -7 -20 -18 -77 l-6
-32 -88 1 c-49 0 -97 -4 -109 -11 -35 -19 -111 -30 -115 -17 -3 8 -9 7 -20 -2
-9 -8 -20 -11 -25 -8 -6 3 -23 1 -38 -4 -16 -5 -46 -11 -66 -13 -21 -2 -41 -7
-45 -10 -27 -28 -25 42 3 74 8 8 14 22 14 31 0 8 12 46 26 84 14 38 27 82 29
97 2 15 18 68 35 117 16 49 30 96 30 105 0 9 9 15 23 16 12 0 96 2 186 4 90 2
165 5 166 7 2 2 33 3 69 4 63 1 66 0 60 -20z m-612 -15 c4 -1 2 -16 -4 -33 -6
-18 -18 -61 -27 -95 l-16 -63 -33 31 c-18 17 -44 50 -59 72 -14 23 -32 48 -41
54 -22 18 -11 24 53 28 32 2 59 6 61 7 2 3 37 2 66 -1z m1521 -323 c52 -11 55
-19 32 -75 -8 -19 -15 -42 -15 -50 0 -8 -9 -27 -19 -41 -10 -15 -19 -31 -20
-37 -5 -43 -12 -45 -46 -10 -19 18 -37 45 -41 60 -3 14 -15 30 -26 36 -21 11
-19 21 13 95 19 46 17 45 122 22z m-1090 -245 c-3 -10 -10 -23 -15 -30 -6 -7
-7 -17 -3 -22 3 -6 0 -23 -8 -38 -8 -15 -25 -71 -38 -123 -13 -52 -27 -96 -31
-98 -5 -2 -8 -14 -8 -26 0 -38 -27 -64 -77 -74 -26 -6 -51 -8 -55 -6 -4 3 -24
-2 -45 -11 -20 -9 -69 -17 -108 -18 -70 -2 -70 -2 -114 40 -24 24 -52 45 -62
48 -11 4 -19 13 -19 21 0 9 -5 12 -11 8 -16 -9 -5 63 15 101 9 17 16 39 16 50
0 11 9 31 20 45 11 14 20 31 20 37 0 21 58 44 115 45 30 1 55 4 55 8 0 4 6 7
13 8 37 3 182 34 194 41 9 4 46 9 84 10 62 2 68 0 62 -16z m919 -35 c11 -13
28 -32 37 -43 9 -11 33 -31 53 -45 20 -13 41 -35 47 -47 6 -12 26 -33 46 -45
19 -13 35 -25 35 -28 0 -13 -70 -32 -135 -36 -38 -3 -86 -7 -105 -10 -19 -3
-58 -8 -87 -10 -59 -4 -57 -10 -17 81 10 22 18 45 20 50 5 28 68 155 77 155 5
0 19 -10 29 -22z m-1558 -66 c-6 -4 -22 -40 -34 -80 l-23 -74 -28 30 c-29 31
-69 91 -69 104 0 4 10 7 23 7 28 -1 110 11 116 17 2 2 9 4 15 4 8 0 8 -3 0 -8z"/>
</g>
</svg>
