<?xml version="1.0" standalone="no"?>
<!DOCTYPE svg PUBLIC "-//W3C//DTD SVG 20010904//EN"
 "http://www.w3.org/TR/2001/REC-SVG-20010904/DTD/svg10.dtd">
<svg version="1.0" xmlns="http://www.w3.org/2000/svg"
 width="497.000000pt" height="301.000000pt" viewBox="0 0 497.000000 301.000000"
 preserveAspectRatio="xMidYMid meet">
<metadata>
Created by potrace 1.16, written by Peter Selinger 2001-2019
</metadata>
<g transform="translate(0.000000,301.000000) scale(0.100000,-0.100000)"
fill="#000000" stroke="none">
<path d="M3716 2630 c-79 -44 -143 -91 -202 -150 -33 -34 -74 -68 -90 -77 -46
-25 -110 -34 -162 -23 -26 5 -63 11 -82 13 -41 5 -120 27 -136 38 -6 5 -42 16
-80 24 -38 9 -78 22 -89 29 -11 7 -54 23 -95 35 -41 13 -85 27 -98 32 -12 5
-79 15 -148 24 -95 11 -138 12 -176 4 -27 -6 -52 -8 -55 -5 -4 3 -12 1 -19 -4
-6 -6 -16 -10 -20 -9 -5 1 -16 0 -24 -4 -37 -14 -96 -31 -102 -29 -4 1 -26 -8
-48 -19 -22 -12 -56 -25 -75 -30 -19 -5 -50 -13 -67 -18 -18 -4 -55 -20 -81
-35 -49 -28 -87 -42 -207 -75 -36 -10 -117 -37 -180 -60 -63 -22 -130 -41
-148 -41 -18 0 -49 -7 -70 -16 -53 -23 -66 -25 -274 -30 -124 -3 -195 -1 -208
6 -11 6 -66 12 -123 14 -114 4 -192 13 -222 26 -22 9 -121 40 -128 40 -3 0
-17 -16 -32 -36 -19 -25 -29 -51 -30 -79 -2 -24 -16 -68 -33 -101 -37 -72 -63
-162 -55 -192 3 -12 15 -24 27 -27 208 -46 531 -60 916 -39 63 4 168 8 232 9
65 1 123 6 130 11 25 18 93 37 130 36 56 -3 96 45 75 89 -15 28 -54 38 -63 15
-3 -9 -12 -16 -19 -16 -6 0 -25 -7 -41 -14 -53 -27 -148 -47 -214 -45 -36 1
-105 -3 -155 -9 -49 -6 -154 -13 -232 -16 -78 -2 -146 -7 -152 -11 -6 -3 -11
-2 -11 2 0 5 -55 9 -123 10 -67 0 -142 3 -167 7 -25 4 -65 8 -90 10 -25 1 -69
8 -98 15 -43 11 -52 16 -46 30 3 9 10 34 14 56 5 22 20 65 34 95 14 30 26 63
26 73 0 25 26 32 53 15 36 -24 184 -36 522 -42 221 -4 361 9 440 40 22 9 49
17 60 19 11 2 40 10 65 18 85 30 195 66 310 101 63 20 137 47 164 61 27 14 55
25 62 25 6 0 66 18 133 40 66 22 132 40 146 40 14 0 25 4 25 8 0 13 239 14
280 2 19 -6 68 -17 109 -25 42 -8 84 -23 95 -34 12 -10 46 -24 76 -31 30 -7
75 -20 100 -30 67 -26 114 -40 136 -40 10 0 42 -9 70 -19 28 -11 81 -21 120
-22 114 -4 173 17 227 79 56 64 108 108 187 159 54 35 57 35 158 35 110 -1
183 -19 214 -53 9 -11 23 -19 31 -19 23 0 107 -79 100 -95 -3 -9 6 -21 26 -32
17 -10 34 -26 37 -35 4 -15 18 -18 78 -18 113 0 233 -12 211 -21 -11 -4 -37
-8 -57 -8 -20 -1 -49 -6 -65 -12 -15 -6 -57 -13 -93 -15 -70 -4 -103 -26 -93
-63 3 -11 -3 -24 -15 -32 -11 -8 -22 -28 -26 -44 -7 -34 -70 -105 -92 -105 -8
0 -18 -8 -21 -17 -10 -25 -37 -49 -89 -78 -49 -27 -134 -62 -169 -68 -11 -2
-28 -7 -37 -11 -26 -12 -117 0 -136 17 -25 21 -72 28 -79 11 -3 -8 -11 -14
-19 -14 -10 0 -14 -13 -14 -43 0 -45 -28 -107 -85 -186 -57 -81 -86 -110 -139
-140 -29 -16 -60 -36 -68 -44 -33 -33 -147 -80 -250 -101 -61 -13 -167 -6
-221 16 -32 12 -31 24 14 105 16 29 29 65 29 80 0 16 4 33 9 39 5 5 14 27 21
49 13 40 132 167 192 204 15 10 41 35 58 57 16 21 33 44 38 49 22 27 20 45 -5
65 -43 33 -41 34 -154 -95 -29 -33 -64 -72 -78 -86 -69 -69 -110 -122 -121
-156 -7 -21 -16 -43 -21 -49 -5 -6 -14 -35 -20 -64 -6 -30 -22 -70 -34 -90
-12 -19 -28 -52 -35 -74 -7 -21 -33 -59 -60 -85 -134 -131 -159 -154 -210
-186 -30 -19 -60 -35 -66 -35 -7 0 -14 -3 -16 -7 -6 -15 -144 -76 -231 -103
-16 -5 -35 -14 -42 -20 -7 -6 -44 -14 -82 -17 l-68 -5 34 26 c19 14 38 26 42
26 5 0 60 51 122 114 63 62 132 126 153 142 70 51 95 83 92 112 -5 40 -39 40
-91 0 -23 -18 -46 -38 -52 -45 -5 -6 -40 -32 -77 -56 -52 -35 -83 -48 -135
-56 -61 -11 -183 -19 -183 -14 0 2 15 11 34 20 49 25 149 107 223 183 51 51
63 70 63 96 0 31 -31 64 -60 64 -14 0 -41 -26 -34 -32 6 -7 -35 -33 -66 -43
-14 -4 -38 -13 -55 -20 -93 -39 -188 -65 -256 -68 -79 -4 -173 16 -167 35 3 7
32 21 65 33 72 26 80 31 190 127 158 135 284 268 310 328 40 89 64 131 110
195 43 58 107 105 143 105 24 0 53 35 46 57 -17 52 -78 44 -164 -22 -45 -34
-111 -111 -138 -160 -6 -11 -24 -45 -41 -75 -16 -30 -33 -67 -37 -82 -3 -15
-31 -52 -61 -83 -30 -30 -55 -57 -55 -60 0 -9 -153 -145 -163 -145 -3 0 -23
-16 -44 -36 -21 -20 -51 -42 -68 -50 -16 -8 -37 -18 -45 -24 -8 -5 -40 -21
-70 -35 -30 -15 -58 -32 -62 -38 -3 -6 -17 -12 -30 -14 -46 -6 -99 -27 -107
-42 -12 -22 5 -61 26 -62 103 -4 212 -15 244 -25 29 -8 281 25 305 41 13 8 30
15 39 15 9 0 34 9 56 21 58 29 68 19 15 -15 -25 -16 -65 -47 -88 -69 -24 -22
-63 -48 -88 -59 -25 -11 -63 -28 -85 -38 -22 -9 -55 -23 -72 -30 -33 -12 -39
-24 -27 -54 10 -26 283 -22 370 5 36 11 69 18 72 14 21 -21 -176 -161 -219
-155 -27 4 -37 0 -53 -25 -22 -33 -9 -57 46 -84 32 -15 57 -19 96 -16 93 7
146 17 170 31 12 8 22 12 22 8 0 -3 11 1 25 10 14 9 25 14 25 11 0 -3 22 6 50
20 27 14 55 25 62 25 45 0 275 154 367 246 51 51 78 71 85 64 5 -5 20 -10 32
-10 37 0 54 -11 54 -34 0 -15 17 -32 58 -57 220 -139 337 -181 497 -180 170 1
215 15 215 66 0 24 -22 49 -33 38 -4 -3 -7 -1 -7 5 0 6 -12 13 -27 15 -16 2
17 5 73 6 84 1 104 4 117 19 33 37 7 86 -40 77 -29 -5 -54 6 -85 37 -23 23
-16 38 10 21 10 -6 38 -9 63 -7 24 3 64 6 88 8 28 3 56 13 74 28 26 21 27 25
17 56 -7 17 -18 32 -26 32 -8 0 -14 4 -14 9 0 5 -10 9 -23 8 -31 0 -108 52
-168 112 -41 41 -49 55 -43 74 4 12 10 24 15 27 5 3 24 35 43 70 l34 65 89 1
c48 0 97 4 108 9 11 4 42 17 70 27 27 11 54 23 60 28 5 4 27 13 49 20 45 14
111 57 159 103 18 18 47 44 63 59 16 14 44 47 63 73 29 39 33 50 23 66 -15 24
1 33 88 48 36 6 112 20 170 31 58 11 128 20 155 20 58 0 72 7 75 35 7 64 -3
70 -150 79 -58 3 -121 10 -140 16 -19 5 -63 10 -97 10 -70 0 -110 14 -119 42
-3 10 -38 45 -77 79 -93 77 -82 70 -157 106 -60 29 -78 32 -195 38 -121 6
-133 5 -169 -15z m-191 -1172 c25 -24 67 -59 95 -78 27 -19 50 -37 50 -40 0
-16 -176 7 -206 27 -31 20 -54 3 -54 -39 0 -31 17 -51 91 -106 l44 -34 -65 7
c-36 4 -75 7 -87 7 -13 0 -23 4 -23 8 0 5 -8 6 -19 3 -10 -3 -22 0 -25 6 -11
18 -62 13 -80 -8 -34 -38 -9 -68 86 -102 26 -10 57 -24 70 -33 22 -16 19 -16
-57 -13 -90 4 -243 46 -283 77 -13 11 -29 20 -33 20 -9 0 -89 76 -89 85 0 3
13 5 28 5 42 0 168 34 237 64 84 37 115 55 151 91 41 39 61 55 72 55 5 0 17 9
27 20 10 11 20 20 22 20 2 0 24 -19 48 -42z"/>
<path d="M4307 1756 c-10 -8 -23 -30 -28 -50 -5 -20 -21 -48 -34 -62 -13 -14
-25 -29 -27 -33 -2 -4 -20 -20 -41 -35 -34 -26 -37 -32 -35 -73 2 -52 22 -69
62 -53 15 5 25 13 24 17 -4 12 44 73 53 67 5 -3 6 -60 3 -127 -3 -67 -4 -144
-3 -172 5 -83 4 -116 -5 -225 -4 -58 -7 -117 -7 -132 2 -42 -18 -43 -54 -4
-35 38 -73 47 -95 21 -20 -24 0 -76 52 -135 48 -54 88 -120 88 -147 0 -7 12
-18 26 -23 30 -12 58 0 75 33 21 41 83 132 126 184 42 51 52 76 33 88 -5 3 -7
12 -4 20 4 8 -6 20 -24 29 -36 19 -45 11 -92 -79 -17 -33 -40 -69 -51 -80
l-21 -20 6 50 c4 28 9 68 12 90 5 37 14 424 13 598 0 42 4 77 8 77 10 0 69
-88 77 -115 8 -29 42 -48 65 -35 20 10 37 73 24 93 -32 54 -175 235 -188 241
-20 7 -16 8 -38 -8z"/>
<path d="M988 1674 c-16 -8 -29 -19 -29 -24 -1 -6 -2 -13 -4 -17 -1 -5 -5 -21
-10 -38 -4 -16 -16 -38 -26 -48 -11 -10 -19 -21 -19 -25 0 -4 -18 -27 -40 -52
-34 -38 -39 -50 -34 -75 14 -68 57 -68 93 1 13 24 27 44 30 44 8 0 14 -252 12
-482 l-1 -68 -20 20 c-11 11 -20 25 -20 30 0 6 -11 28 -25 50 -20 32 -31 40
-55 40 -28 0 -30 -3 -30 -37 0 -41 30 -109 73 -165 15 -19 27 -38 27 -42 0 -4
11 -22 24 -39 14 -18 29 -44 35 -60 7 -19 18 -27 35 -27 26 0 40 13 51 50 4
14 20 52 35 85 15 33 31 69 36 80 4 11 8 22 9 25 2 3 6 15 10 28 4 12 11 22
15 22 11 0 20 42 12 54 -4 6 -7 20 -7 31 0 17 -7 20 -39 20 -37 0 -38 -2 -42
-35 -2 -28 -39 -130 -47 -130 -1 0 -2 93 -2 207 -1 115 -4 232 -7 262 -4 30
-5 58 -2 62 11 19 34 -6 45 -51 14 -55 39 -73 76 -56 27 13 38 37 22 47 -6 4
-8 12 -4 19 4 7 -2 24 -14 40 -53 73 -72 119 -70 176 2 49 -1 59 -22 75 -29
22 -36 23 -71 3z"/>
</g>
</svg>
