<?xml version="1.0" standalone="no"?>
<!DOCTYPE svg PUBLIC "-//W3C//DTD SVG 20010904//EN"
 "http://www.w3.org/TR/2001/REC-SVG-20010904/DTD/svg10.dtd">
<svg version="1.0" xmlns="http://www.w3.org/2000/svg"
 width="471.000000pt" height="481.000000pt" viewBox="0 0 471.000000 481.000000"
 preserveAspectRatio="xMidYMid meet">
<metadata>
Created by potrace 1.16, written by Peter Selinger 2001-2019
</metadata>
<g transform="translate(0.000000,481.000000) scale(0.100000,-0.100000)"
fill="#000000" stroke="none">
<path d="M3553 4556 c-21 -20 -75 -48 -155 -79 -68 -27 -134 -54 -148 -61 -14
-7 -55 -21 -92 -30 -37 -10 -72 -24 -78 -32 -20 -23 0 -54 53 -81 93 -47 90
-54 -36 -85 -132 -34 -144 -36 -226 -49 -36 -5 -84 -19 -108 -31 -35 -17 -43
-27 -43 -49 0 -15 7 -29 15 -33 11 -4 14 -13 9 -31 -8 -31 10 -55 42 -55 38 0
29 -23 -33 -92 -81 -87 -128 -126 -173 -143 -24 -9 -42 -44 -35 -66 9 -27 51
-36 74 -15 10 9 26 16 37 16 11 0 29 8 40 18 11 9 85 50 164 90 226 115 220
110 220 140 0 35 -14 57 -30 47 -7 -4 -25 2 -41 14 -15 11 -32 21 -37 21 -5 0
-15 6 -21 13 -9 11 10 20 102 45 61 18 144 39 182 47 39 9 75 17 80 19 6 1 28
8 50 14 61 18 68 25 60 61 -4 17 -11 31 -17 31 -12 0 -78 30 -95 43 -19 14 19
61 69 85 24 11 74 47 112 81 38 34 75 61 82 61 8 0 14 5 14 10 0 6 6 10 14 10
14 0 66 44 66 57 -1 20 -19 34 -51 37 -27 2 -41 -4 -66 -28z"/>
<path d="M1716 4451 c-10 -11 -15 -27 -12 -38 3 -10 7 -32 9 -48 5 -38 51
-153 90 -225 17 -30 36 -66 44 -80 20 -38 44 -64 83 -90 19 -13 37 -27 40 -30
15 -16 131 -118 154 -135 71 -53 121 -104 138 -140 34 -70 43 -85 50 -85 5 0
8 -8 8 -19 0 -22 26 -88 38 -95 5 -3 15 -27 22 -53 7 -27 23 -72 36 -101 13
-29 24 -70 24 -91 0 -21 9 -67 19 -102 18 -61 22 -87 38 -254 3 -38 6 -225 6
-415 l0 -345 -37 -155 c-20 -85 -38 -162 -40 -170 -2 -8 -6 -22 -9 -30 -3 -8
-10 -40 -16 -70 -6 -30 -20 -93 -31 -140 -11 -47 -22 -107 -25 -135 -3 -27
-10 -61 -14 -75 -31 -85 -36 -182 -16 -270 19 -80 60 -172 93 -208 7 -7 10
-18 6 -23 -3 -5 2 -12 10 -15 9 -3 16 -12 16 -20 0 -8 5 -14 12 -14 6 0 9 -3
5 -6 -3 -3 4 -29 17 -58 28 -64 81 -233 96 -307 6 -30 8 -74 6 -97 -8 -56 24
-88 62 -63 11 6 12 26 8 81 -3 40 -9 76 -12 82 -3 5 -10 33 -14 61 -5 29 -22
90 -39 137 -16 46 -28 86 -26 88 2 2 -5 12 -16 23 -10 10 -19 31 -19 47 0 15
-11 44 -25 64 -14 20 -25 40 -25 43 0 4 -16 31 -35 60 -62 92 -78 251 -40 371
8 22 17 67 20 100 4 32 11 75 16 94 6 19 14 60 19 90 10 60 12 72 30 140 6 25
14 59 17 75 2 17 7 37 10 45 8 19 7 18 32 129 12 52 24 135 27 185 9 147 5
675 -5 714 -5 21 -13 73 -17 117 -4 44 -15 104 -25 133 -10 30 -21 77 -25 105
-3 29 -14 73 -24 98 -11 25 -24 68 -30 94 -6 26 -19 60 -29 74 -10 14 -20 31
-21 36 -5 21 -22 62 -42 100 -11 22 -31 61 -44 87 -29 57 -147 178 -174 178
-5 0 -34 26 -67 58 -32 32 -82 75 -110 96 -29 21 -53 41 -53 45 0 5 -11 25
-25 45 -14 20 -28 49 -31 64 -4 15 -12 34 -18 42 -26 36 -37 64 -45 126 -9 61
-23 94 -41 94 -4 0 -15 -9 -24 -19z"/>
<path d="M746 4444 c-20 -19 -20 -20 -1 -117 31 -160 15 -491 -26 -531 -5 -6
-9 -18 -9 -28 0 -31 -71 -168 -119 -229 -12 -14 -70 -82 -131 -149 -61 -68
-119 -144 -131 -169 -11 -25 -29 -64 -39 -86 -35 -76 -37 -91 -34 -202 3 -129
10 -191 30 -283 8 -36 16 -74 19 -85 10 -46 66 -239 74 -254 5 -8 7 -38 4 -67
-4 -36 -1 -61 10 -84 17 -33 23 -62 32 -140 10 -101 16 -158 20 -205 2 -27 10
-84 18 -125 9 -41 16 -113 17 -160 0 -47 5 -112 10 -145 5 -33 10 -98 11 -145
1 -47 5 -89 9 -95 5 -5 8 -21 8 -35 -1 -57 34 -287 52 -345 5 -16 11 -44 13
-62 3 -17 8 -36 11 -42 9 -15 27 -110 31 -167 2 -29 8 -61 14 -72 6 -11 8 -28
5 -37 -4 -9 -2 -20 3 -24 10 -5 -9 -82 -58 -242 -14 -44 -7 -59 27 -59 20 0
29 9 45 45 11 24 24 68 29 97 5 29 13 69 16 88 11 53 4 186 -11 210 -4 6 -4
22 -1 35 4 14 -8 72 -28 142 -43 152 -57 210 -60 253 -1 19 -8 64 -15 100 -24
129 -32 180 -37 257 -3 43 -9 108 -15 145 -5 37 -9 102 -9 145 -1 43 -5 98
-11 123 -5 25 -14 83 -19 130 -5 47 -12 99 -15 115 -3 17 -7 53 -9 80 -6 70
-17 127 -30 150 -6 11 -11 49 -12 85 0 62 -12 118 -56 273 -11 37 -21 77 -23
90 -1 12 -5 36 -9 52 -20 106 -24 139 -25 245 -2 108 0 124 23 175 15 30 26
58 26 62 0 11 70 112 83 120 7 4 26 26 42 48 16 22 41 52 55 66 93 94 222 303
235 379 3 19 14 46 23 60 15 22 17 56 17 272 0 137 -3 248 -7 248 -5 0 -8 13
-8 29 0 69 -30 99 -64 65z"/>
<path d="M4110 3778 c0 -5 -6 -8 -12 -8 -7 0 -26 -7 -42 -15 -26 -14 -165 -42
-316 -65 -30 -5 -77 -13 -103 -19 -27 -6 -52 -9 -57 -6 -16 10 -60 -26 -60
-49 0 -12 14 -35 30 -51 35 -34 27 -45 -35 -45 -22 0 -74 -9 -115 -19 -53 -14
-94 -18 -141 -14 -66 5 -66 5 -93 -29 -31 -42 -33 -69 -6 -93 11 -10 20 -22
20 -27 0 -13 -39 -25 -105 -31 -104 -11 -149 -19 -170 -33 -11 -8 -27 -14 -36
-14 -30 0 -107 -38 -118 -58 -7 -14 -7 -24 2 -37 14 -18 35 -19 177 -10 36 3
150 7 254 9 l190 5 14 26 c12 24 11 29 -5 47 -10 11 -17 22 -15 24 6 10 1 24
-8 24 -11 0 -80 63 -80 72 0 3 100 4 223 2 122 -1 232 1 245 6 29 12 28 41 -4
92 l-27 42 23 18 c12 10 45 25 73 33 28 8 60 21 72 29 12 8 49 23 81 34 32 11
85 31 116 46 60 27 96 42 113 46 39 8 49 66 13 75 -31 7 -98 2 -98 -7z"/>
<path d="M1681 3344 c-23 -30 -15 -58 19 -69 11 -3 20 -12 20 -20 0 -7 11 -22
24 -32 13 -10 26 -29 30 -41 4 -12 13 -28 19 -34 22 -23 67 -106 67 -125 0
-10 9 -29 20 -43 11 -14 20 -36 20 -50 0 -14 9 -54 20 -89 11 -35 19 -75 19
-90 -2 -24 7 -98 16 -131 12 -46 19 -257 18 -488 -2 -259 7 -370 34 -405 14
-16 14 -73 1 -106 -6 -14 -13 -35 -15 -45 -2 -11 -10 -27 -17 -35 -12 -14 -57
-105 -91 -186 -6 -16 -20 -48 -30 -70 -10 -22 -17 -47 -16 -57 1 -9 -3 -19 -9
-23 -5 -3 -10 -19 -10 -34 0 -15 -15 -58 -34 -97 -18 -38 -37 -80 -41 -94 -7
-25 -25 -70 -50 -122 -7 -15 -17 -42 -20 -60 -4 -18 -16 -49 -26 -69 -10 -20
-15 -39 -12 -43 4 -3 1 -6 -5 -6 -7 0 -12 -11 -12 -23 0 -13 -3 -27 -6 -30 -8
-7 -69 -180 -86 -240 -6 -23 -7 -42 -2 -47 16 -16 56 -16 65 0 9 17 55 167 74
245 21 83 117 338 173 459 15 32 27 62 27 65 2 19 51 154 76 208 16 34 29 65
29 68 0 3 16 32 36 63 80 124 97 204 65 307 -10 33 -22 74 -26 90 -5 17 -9
165 -10 330 -2 217 -7 334 -19 424 -9 68 -19 142 -21 165 -2 23 -8 59 -14 81
-33 130 -38 155 -33 160 3 3 0 5 -6 5 -5 0 -18 21 -28 48 -22 60 -89 177 -128
223 -17 20 -40 48 -51 62 -25 33 -29 33 -54 1z"/>
<path d="M1049 3203 c-5 -16 -12 -35 -15 -43 -52 -136 -78 -506 -42 -575 6
-11 11 -21 10 -22 -1 -2 -2 -4 -1 -5 0 -2 2 -14 5 -28 8 -47 54 -255 74 -331
11 -42 20 -92 20 -111 0 -19 5 -39 10 -44 6 -6 13 -24 15 -40 7 -45 10 -58 17
-69 3 -5 11 -37 17 -70 7 -33 16 -69 20 -80 35 -85 47 -156 46 -255 -2 -111
-11 -189 -26 -230 -5 -14 -10 -34 -12 -45 -2 -11 -7 -27 -10 -35 -3 -8 -8 -40
-11 -71 -3 -31 -16 -90 -29 -130 -14 -41 -30 -108 -37 -149 -6 -41 -18 -97
-26 -125 -8 -27 -18 -75 -23 -105 -5 -30 -21 -107 -35 -170 -26 -113 -26 -114
-7 -133 14 -14 27 -18 45 -13 15 4 25 10 22 14 -8 13 42 310 69 411 14 51 25
113 25 137 0 25 9 70 20 102 11 31 25 91 31 132 5 41 18 107 29 145 16 62 26
113 36 194 7 62 5 200 -4 231 -6 19 -16 55 -22 80 -7 25 -15 54 -20 65 -10 28
-50 161 -55 184 -2 11 -8 29 -14 40 -6 11 -13 33 -15 48 -7 58 -19 108 -27
119 -5 6 -13 40 -18 76 -5 36 -13 74 -19 84 -5 11 -14 60 -21 109 -7 50 -17
100 -22 113 -19 47 -3 375 20 427 9 20 31 96 30 105 0 3 6 18 15 34 18 35 7
56 -30 56 -18 0 -27 -8 -35 -27z"/>
<path d="M3676 2898 c-3 -14 4 -47 20 -85 36 -83 29 -98 -39 -89 -28 4 -83 11
-122 16 -84 10 -271 38 -301 45 -16 4 -24 -2 -33 -23 -10 -25 -7 -115 5 -134
3 -4 -46 -9 -108 -9 -154 -2 -215 -6 -237 -19 -11 -5 -28 -10 -39 -10 -11 0
-22 -6 -25 -13 -6 -16 3 -67 12 -67 11 -1 146 -20 176 -25 17 -3 59 -10 95
-16 36 -6 76 -15 90 -20 35 -11 142 -29 160 -26 9 1 26 13 38 25 17 17 21 27
13 36 -6 7 -8 16 -4 19 3 4 1 12 -4 19 -6 7 -14 33 -18 57 -6 39 -5 42 11 38
11 -3 60 -15 109 -27 84 -19 197 -58 238 -81 9 -5 44 -12 76 -15 58 -7 59 -6
75 24 17 32 11 66 -21 125 -25 47 -14 54 83 56 48 1 91 4 96 7 8 5 143 6 278
2 l84 -3 10 33 c16 58 -29 81 -169 87 -28 1 -59 6 -70 12 -11 6 -36 13 -55 17
-19 3 -46 9 -60 12 -14 3 -41 7 -60 10 -19 3 -77 14 -129 24 -128 27 -167 26
-175 -2z m-189 -234 c-3 -3 -12 -4 -19 -1 -8 3 -5 6 6 6 11 1 17 -2 13 -5z"/>
<path d="M3838 2114 c-5 -4 -20 -9 -34 -10 -31 -3 -33 -5 -37 -30 -1 -10 -6
-24 -9 -30 -8 -12 -6 -28 11 -81 11 -39 11 -38 -31 -15 -18 11 -58 25 -88 32
-30 7 -62 18 -70 25 -16 12 -94 43 -127 49 -11 2 -43 11 -71 19 -50 15 -51 15
-58 -5 -3 -12 -6 -52 -6 -90 0 -64 -1 -68 -22 -68 -12 0 -27 5 -32 10 -6 6
-44 17 -85 24 -41 8 -110 23 -154 34 -123 30 -171 34 -190 16 -27 -27 -11 -64
27 -64 10 0 18 -4 18 -10 0 -5 3 -9 8 -8 15 4 114 -23 150 -41 20 -10 60 -23
87 -29 28 -6 79 -26 115 -45 96 -49 175 -74 193 -59 18 15 30 82 17 97 -5 6
-7 28 -3 48 7 44 11 44 113 -9 35 -19 68 -34 72 -34 11 0 102 -42 108 -50 9
-11 94 -42 127 -46 28 -4 35 0 48 27 11 20 13 35 7 42 -5 7 -13 27 -17 45 l-7
34 114 -7 c104 -6 183 -22 313 -62 28 -8 69 -17 93 -20 41 -5 43 -4 58 33 13
31 13 41 3 61 -7 12 -19 23 -28 24 -39 1 -75 9 -80 16 -3 4 -22 9 -41 11 -36
2 -58 7 -175 41 -38 11 -99 27 -135 37 -36 9 -77 25 -91 35 -15 10 -38 21 -52
25 -14 3 -27 13 -29 21 -2 8 -6 11 -10 7z"/>
<path d="M2628 1273 c-24 -4 -28 -9 -28 -36 0 -41 8 -51 45 -55 17 -2 50 -12
74 -23 24 -10 49 -19 55 -19 6 0 29 -10 51 -21 22 -12 67 -30 100 -41 79 -26
120 -43 239 -102 83 -40 104 -47 125 -39 25 9 26 11 23 82 l-3 73 28 -6 c15
-4 40 -15 54 -26 14 -10 64 -37 110 -60 46 -23 91 -45 99 -49 44 -22 116 -64
120 -71 11 -15 58 -20 69 -6 16 19 41 106 34 122 -7 19 21 18 93 -4 32 -11 84
-25 114 -32 66 -15 170 -59 170 -72 0 -5 4 -7 9 -4 4 3 17 -1 27 -9 43 -32 76
-7 65 50 -5 24 -12 31 -35 33 -15 2 -42 12 -59 23 -18 10 -50 28 -72 39 -22
11 -54 33 -71 49 -17 16 -48 38 -70 50 -63 34 -165 104 -195 133 -15 15 -66
15 -81 0 -11 -11 -18 -51 -22 -124 -2 -29 -4 -56 -5 -59 -2 -12 -79 8 -107 28
-16 12 -85 50 -154 86 -69 36 -126 72 -128 79 -2 10 -14 13 -38 10 -36 -4 -55
-26 -52 -59 0 -10 0 -35 0 -57 -2 -35 -4 -38 -24 -31 -13 4 -48 13 -80 20 -31
7 -62 17 -70 21 -7 5 -19 9 -27 11 -8 1 -28 8 -45 17 -42 20 -66 28 -98 32
-14 2 -61 15 -105 29 -78 25 -84 26 -135 18z"/>
</g>
</svg>
