<?xml version="1.0" standalone="no"?>
<!DOCTYPE svg PUBLIC "-//W3C//DTD SVG 20010904//EN"
 "http://www.w3.org/TR/2001/REC-SVG-20010904/DTD/svg10.dtd">
<svg version="1.0" xmlns="http://www.w3.org/2000/svg"
 width="529.000000pt" height="493.000000pt" viewBox="0 0 529.000000 493.000000"
 preserveAspectRatio="xMidYMid meet">
<metadata>
Created by potrace 1.16, written by Peter Selinger 2001-2019
</metadata>
<g transform="translate(0.000000,493.000000) scale(0.100000,-0.100000)"
fill="#000000" stroke="none">
<path d="M4160 4917 c-14 -6 -61 -28 -105 -48 -44 -20 -98 -42 -120 -49 -22
-7 -45 -16 -50 -21 -10 -8 -92 -29 -125 -33 -9 -1 -22 -6 -29 -10 -8 -5 -27
-9 -42 -8 -16 0 -29 -3 -29 -7 0 -10 -99 -23 -200 -27 -180 -6 -319 -14 -336
-20 -10 -3 -33 -12 -50 -20 -16 -7 -47 -14 -68 -16 -20 -1 -39 -6 -42 -10 -3
-4 -11 -5 -19 -1 -8 3 -15 1 -15 -5 0 -5 -15 -13 -32 -16 -18 -3 -45 -12 -59
-20 -14 -7 -52 -21 -85 -32 -70 -22 -126 -52 -174 -94 -19 -17 -55 -40 -80
-51 -96 -42 -140 -64 -140 -71 0 -3 -16 -15 -35 -27 -19 -11 -35 -25 -35 -30
0 -6 -11 -22 -25 -37 -14 -15 -25 -33 -25 -40 0 -18 -60 -85 -70 -79 -4 3 -18
-28 -31 -68 -13 -39 -27 -77 -31 -83 -5 -6 -10 -34 -12 -61 -2 -27 -8 -58 -14
-69 -14 -26 -24 -135 -13 -148 4 -6 11 -21 13 -33 6 -24 2 -25 -94 -38 -26 -3
-58 -15 -72 -26 -14 -11 -30 -17 -36 -14 -5 3 -10 2 -10 -3 0 -5 -19 -14 -42
-21 -24 -7 -65 -23 -93 -36 -27 -12 -75 -31 -105 -41 -30 -10 -57 -22 -60 -25
-7 -9 -159 -59 -179 -59 -10 0 -21 -3 -25 -7 -4 -5 -11 -8 -14 -9 -34 -4 -200
-69 -320 -124 -23 -11 -50 -20 -59 -20 -8 0 -30 -9 -47 -19 -17 -10 -65 -29
-106 -41 -41 -12 -82 -26 -90 -31 -27 -16 -65 -31 -85 -33 -11 -1 -39 -12 -61
-24 -23 -11 -62 -26 -88 -33 -25 -6 -46 -15 -46 -19 0 -4 -22 -18 -49 -31 -37
-17 -50 -29 -53 -48 -6 -43 2 -61 30 -68 38 -9 72 -33 72 -50 0 -8 4 -12 9 -9
5 3 14 -1 21 -9 7 -8 20 -15 29 -15 9 0 43 -14 76 -30 33 -16 68 -30 78 -30 9
0 39 -11 66 -25 50 -27 63 -30 143 -39 63 -7 98 -16 98 -26 0 -4 19 -4 43 0
23 5 69 10 102 11 33 1 72 6 88 10 27 8 113 21 154 24 13 1 26 5 30 8 3 4 18
7 33 7 14 0 30 4 36 8 5 5 47 24 94 42 46 18 105 45 131 60 25 15 57 31 70 35
13 4 38 16 55 26 17 11 39 19 48 19 9 0 16 5 16 10 0 6 5 10 11 10 6 0 26 12
45 26 19 15 34 23 34 19 0 -4 11 0 24 9 14 8 40 24 59 35 70 39 81 46 93 57 6
6 26 23 44 37 28 24 32 34 34 80 2 67 9 77 57 77 36 0 46 -7 104 -67 63 -65
65 -66 122 -69 95 -5 197 -15 201 -19 2 -2 15 1 29 6 25 9 98 -9 129 -32 5 -5
19 -6 30 -4 10 2 35 7 54 10 43 6 120 21 138 26 8 2 27 16 44 32 29 26 58 36
58 19 0 -12 120 2 129 16 4 6 21 12 39 14 17 1 34 8 36 15 3 7 10 13 15 13 9
0 80 69 159 154 18 20 31 40 28 45 -3 5 1 11 9 15 8 3 15 14 15 25 0 11 11 41
25 67 36 68 60 148 50 170 -5 11 -10 36 -11 57 -2 32 2 41 33 65 51 39 83 71
83 83 0 6 4 8 8 5 5 -3 16 8 26 25 9 16 21 29 27 29 5 0 9 6 9 14 0 23 57 51
195 96 72 23 141 48 155 55 39 20 104 39 119 36 8 -1 24 2 35 8 21 11 79 35
251 106 50 20 106 45 127 56 20 11 49 21 65 22 43 5 68 25 80 64 9 30 8 37
-11 56 -29 30 -98 24 -119 -10 -4 -7 -14 -13 -21 -13 -8 0 -40 -16 -72 -35
-32 -19 -67 -35 -78 -35 -12 -1 -43 -14 -71 -31 -27 -16 -59 -33 -70 -38 -60
-26 -105 -42 -150 -52 -58 -12 -74 -18 -135 -48 -24 -13 -65 -27 -90 -32 -61
-13 -63 -13 -77 -22 -7 -5 -13 -6 -13 -3 0 7 -89 -21 -132 -41 -37 -18 -78
-66 -100 -115 -7 -16 -16 -28 -20 -28 -5 0 -22 -13 -40 -30 -17 -16 -37 -30
-44 -30 -7 0 -14 -5 -16 -12 -2 -6 -13 -12 -24 -13 -25 -2 -74 -26 -74 -35 0
-4 -24 -19 -53 -33 -29 -13 -59 -32 -66 -41 -7 -9 -20 -16 -28 -16 -7 0 -16
-7 -19 -15 -4 -8 -10 -15 -15 -15 -5 0 -27 -11 -48 -24 -21 -14 -42 -22 -45
-19 -3 4 -6 1 -6 -5 0 -7 -5 -12 -11 -12 -10 0 -22 -10 -79 -62 -10 -9 -29
-19 -42 -23 -12 -4 -34 -16 -48 -25 -33 -23 -98 -50 -121 -50 -11 0 -19 -5
-19 -11 0 -5 -5 -7 -10 -4 -6 4 -16 3 -23 -2 -7 -5 -25 -8 -42 -6 -59 6 -87 2
-112 -14 -20 -13 -26 -14 -33 -4 -6 11 -8 11 -12 1 -4 -14 -136 -22 -144 -9
-2 4 21 15 51 24 30 10 55 21 55 26 0 5 18 13 40 19 58 16 73 35 67 87 -3 26
0 43 6 43 18 0 -1 95 -25 132 -23 33 -28 35 -74 34 -31 -1 -63 -10 -84 -23
-19 -12 -47 -25 -63 -28 -15 -4 -30 -11 -33 -16 -3 -5 -18 -9 -33 -9 -15 0
-32 -5 -39 -12 -9 -9 -12 -9 -12 0 0 7 10 22 23 33 79 72 102 89 116 90 9 0
30 9 46 19 52 33 104 60 116 60 6 0 24 11 40 25 16 13 35 22 42 19 7 -2 22 4
34 15 12 11 34 23 50 27 15 4 69 27 120 51 51 24 97 43 103 43 5 0 10 4 10 9
0 5 14 14 30 20 17 5 30 14 30 19 0 5 10 9 23 9 24 0 28 1 130 45 38 16 84 32
102 35 40 6 67 52 45 78 -14 17 -75 21 -65 5 3 -5 -3 -10 -15 -10 -12 0 -40
-8 -63 -18 -23 -10 -62 -26 -87 -36 -25 -10 -64 -26 -88 -37 -23 -10 -47 -19
-52 -19 -6 0 -32 -16 -59 -35 -26 -19 -55 -35 -62 -35 -8 0 -28 -8 -44 -18
-17 -11 -55 -27 -85 -37 -30 -10 -62 -24 -71 -31 -8 -8 -21 -14 -27 -14 -6 0
-51 -23 -99 -51 -48 -28 -92 -52 -98 -53 -65 -15 -220 -139 -230 -184 -5 -23
-18 -34 -67 -56 -59 -27 -62 -28 -75 -10 -13 18 -12 71 3 134 3 14 10 48 15
76 13 74 37 125 72 156 17 15 38 40 47 56 54 103 83 132 177 179 51 24 101 52
112 61 43 37 59 48 106 72 46 23 65 30 93 32 6 1 12 5 12 9 0 9 135 59 175 64
17 2 32 4 35 5 3 1 13 2 22 1 9 -1 31 5 47 14 17 8 31 13 31 9 0 -4 6 -2 13 3
15 13 135 14 143 2 3 -5 10 -9 15 -9 6 0 7 5 4 10 -7 11 1 12 105 16 132 5
195 15 315 50 28 9 62 16 78 18 15 1 30 6 34 9 3 4 17 7 29 7 13 0 25 4 29 9
3 6 38 20 78 32 39 12 102 37 140 56 37 19 72 31 77 28 6 -3 10 -1 10 5 0 6
12 15 26 21 32 12 74 49 74 67 0 16 -105 15 -140 -1z m-1479 -1129 c9 -7 23
-34 33 -59 15 -41 15 -49 1 -75 -8 -16 -27 -39 -42 -50 -37 -27 -93 -56 -93
-48 0 4 -6 1 -14 -5 -22 -19 -69 -16 -107 5 -19 10 -37 23 -40 27 -3 5 -10 8
-15 8 -14 -2 -17 79 -4 95 14 16 104 60 141 68 14 3 36 15 49 26 26 23 69 26
91 8z m891 -66 c-3 -49 -26 -108 -48 -120 -16 -9 -22 -28 -23 -75 -1 -18 -13
-40 -32 -59 -17 -17 -35 -42 -40 -55 -5 -13 -20 -28 -34 -35 -14 -6 -25 -15
-25 -20 0 -4 -7 -8 -15 -8 -8 0 -15 -3 -15 -7 0 -9 -48 -33 -67 -33 -7 0 -3
10 10 24 28 30 41 57 57 116 6 25 16 53 21 62 10 20 15 131 6 146 -6 9 70 52
93 52 5 0 10 4 10 9 0 11 82 52 95 47 6 -2 9 -21 7 -44z m-1288 -128 c9 -45
71 -107 132 -130 61 -23 56 -41 -9 -34 -10 1 -24 -3 -30 -8 -7 -5 -34 -13 -62
-16 -90 -12 -110 -15 -131 -21 -18 -6 -24 3 -50 79 -28 84 -28 86 -9 100 11 8
23 12 27 10 5 -3 8 0 8 5 0 6 6 11 13 11 6 1 30 9 52 20 53 25 52 26 59 -16z
m964 -117 c-13 -38 -35 -81 -50 -95 -15 -15 -28 -31 -28 -35 0 -10 -56 -67
-65 -67 -3 0 -23 -11 -43 -25 -20 -14 -49 -25 -65 -25 -16 0 -37 -5 -48 -11
-11 -5 -30 -9 -42 -7 -20 3 -19 5 11 23 30 18 122 140 122 161 0 5 7 22 15 38
9 16 13 31 10 34 -11 11 61 52 92 52 18 0 33 4 33 9 0 4 17 20 38 33 36 25 37
25 40 5 2 -11 -7 -52 -20 -90z m-1256 26 c10 -9 18 -22 18 -30 0 -7 5 -13 10
-13 6 0 10 -13 10 -30 0 -16 9 -45 20 -65 11 -20 20 -44 20 -55 0 -10 4 -21 9
-24 5 -3 11 -25 13 -48 3 -34 0 -47 -16 -60 -12 -10 -26 -17 -33 -18 -6 0 -18
-7 -27 -15 -16 -16 -108 -65 -123 -65 -5 0 -24 -13 -43 -30 -19 -16 -43 -29
-53 -30 -10 0 -27 -8 -38 -19 -11 -10 -34 -21 -50 -25 -16 -3 -59 -24 -96 -46
-37 -22 -71 -40 -77 -40 -5 0 -37 -11 -70 -24 -60 -24 -152 -45 -229 -52 -20
-1 -41 -6 -47 -9 -11 -7 -153 -20 -195 -18 -69 3 -194 33 -239 57 -27 14 -57
26 -67 26 -11 0 -19 5 -19 10 0 6 -13 10 -29 10 -17 0 -33 5 -36 10 -4 6 -26
20 -51 31 -58 28 -58 51 -1 73 23 9 49 16 58 16 8 0 19 4 24 8 21 18 349 142
383 144 6 1 12 5 12 10 0 5 4 7 8 4 4 -2 21 1 37 9 17 7 46 20 65 28 19 8 55
24 80 35 50 23 171 61 210 67 14 2 38 8 53 14 16 6 33 9 38 5 5 -3 9 -1 9 4 0
5 19 15 43 22 23 7 60 21 82 31 22 10 52 21 68 25 15 3 30 10 32 15 3 4 12 6
20 2 8 -3 15 -1 15 5 0 8 56 28 113 39 10 2 25 10 33 18 20 19 33 19 56 -2z
m939 -114 c-12 -15 -21 -31 -21 -34 0 -14 -90 -86 -125 -99 -39 -16 -85 -24
-90 -16 -3 4 -31 6 -64 4 -49 -2 -64 1 -91 21 -17 13 -38 21 -46 18 -8 -3 -14
-1 -14 5 0 5 -9 12 -20 15 -35 9 -11 36 47 53 30 9 57 22 59 29 4 9 26 13 67
13 66 1 75 2 122 21 17 7 58 13 93 13 34 1 62 4 62 9 0 4 8 9 18 11 25 5 27
-30 3 -63z"/>
<path d="M1795 3407 c-11 -6 -32 -19 -48 -30 -15 -10 -32 -15 -37 -12 -5 3
-11 1 -14 -4 -5 -7 -47 -17 -91 -21 -5 -1 -17 -7 -25 -14 -8 -8 -33 -20 -55
-27 -22 -7 -44 -17 -50 -21 -5 -4 -17 -8 -27 -8 -27 0 -78 -28 -78 -43 0 -24
18 -39 48 -41 18 -1 33 3 36 11 3 7 18 13 34 13 15 0 32 4 38 10 5 5 26 11 47
12 20 2 37 8 37 14 0 7 15 14 33 17 51 8 142 36 144 44 2 5 21 7 43 5 47 -5
70 10 70 44 0 50 -58 78 -105 51z"/>
<path d="M4773 2658 c-13 -6 -23 -15 -23 -20 0 -4 -9 -8 -19 -8 -11 0 -23 -5
-26 -10 -4 -6 -11 -8 -16 -5 -5 4 -12 0 -15 -8 -5 -15 -40 -31 -58 -28 -5 1
-13 -3 -17 -10 -4 -7 -24 -13 -46 -15 -21 -1 -68 -6 -105 -10 -47 -5 -72 -3
-82 5 -8 7 -17 8 -20 3 -10 -16 -133 -34 -188 -28 -62 7 -191 38 -198 47 -3 4
-21 7 -40 7 -19 0 -62 5 -95 11 -84 17 -108 20 -162 22 -54 2 -176 -17 -204
-31 -10 -6 -31 -10 -48 -10 -16 0 -33 -5 -36 -10 -4 -6 -10 -8 -15 -5 -4 3
-10 -2 -14 -10 -3 -8 -13 -15 -22 -15 -10 0 -24 -7 -33 -16 -38 -36 -125 -94
-156 -103 -19 -5 -47 -18 -62 -28 -15 -11 -55 -27 -88 -37 -59 -18 -94 -32
-227 -95 -37 -17 -72 -31 -76 -31 -5 0 -20 -9 -34 -19 -13 -11 -38 -23 -54
-27 -61 -14 -171 -76 -184 -102 -15 -30 -20 -102 -8 -102 5 0 8 -9 8 -20 0
-11 5 -20 12 -20 6 0 8 -3 5 -7 -4 -3 -2 -12 5 -20 9 -11 6 -17 -12 -30 -39
-28 -174 -93 -192 -93 -9 0 -18 -3 -20 -7 -5 -11 -92 -53 -111 -53 -8 0 -38
-11 -65 -25 -27 -13 -64 -25 -83 -27 -29 -1 -69 -26 -70 -43 0 -8 -59 -128
-92 -186 -51 -91 -113 -169 -134 -169 -6 0 -14 -8 -17 -18 -4 -10 -20 -29 -36
-43 -17 -13 -52 -44 -79 -69 -26 -25 -60 -53 -75 -63 -29 -20 -35 -57 -10 -77
13 -12 37 -13 134 -8 8 0 20 4 25 8 13 10 87 24 100 20 8 -3 186 -8 320 -9 51
0 125 8 138 16 9 4 29 25 46 47 17 21 31 36 31 32 0 -4 14 6 31 23 17 17 35
31 40 31 6 0 27 11 47 25 20 14 45 25 54 25 10 0 18 5 18 11 0 6 7 9 15 6 8
-4 17 -2 20 3 4 6 15 10 26 10 10 0 19 5 19 10 0 6 12 10 26 10 14 0 32 7 41
15 8 8 19 13 24 9 5 -3 31 2 58 11 49 16 85 25 111 28 8 1 31 18 50 37 62 63
130 80 130 33 0 -7 5 -13 10 -13 6 0 15 -11 20 -25 5 -13 23 -31 40 -40 16 -8
30 -20 30 -26 0 -6 9 -9 20 -6 11 3 23 1 26 -4 5 -9 222 0 244 11 12 6 44 -3
57 -16 8 -8 19 -12 24 -9 5 4 9 2 9 -3 0 -17 81 -53 130 -59 29 -3 68 1 102
11 31 9 69 16 84 16 15 0 35 6 43 14 31 26 82 36 155 30 61 -6 78 -3 114 15
23 12 42 18 42 15 0 -4 8 0 18 9 9 8 23 17 31 19 7 2 24 13 38 24 18 16 36 22
76 22 38 -1 65 7 100 26 55 30 120 76 126 90 2 5 18 25 35 45 68 79 90 121 88
173 0 15 4 30 9 33 5 4 9 15 9 26 0 10 5 19 10 19 6 0 10 6 10 13 0 27 194
107 214 87 6 -6 14 -4 20 6 7 8 26 16 44 16 18 1 35 5 38 9 2 4 25 11 50 15
75 11 106 62 63 105 -19 19 -25 20 -62 9 -23 -7 -51 -13 -62 -15 -11 -1 -27
-5 -35 -9 -8 -3 -28 -8 -45 -9 -16 -2 -50 -10 -75 -17 -25 -8 -50 -13 -55 -12
-15 3 -86 -34 -79 -41 3 -2 -7 -8 -22 -11 -35 -9 -74 -35 -74 -51 0 -7 -11
-29 -25 -49 -14 -21 -23 -41 -20 -46 3 -4 1 -10 -5 -12 -5 -1 -12 -30 -15 -63
-6 -58 -9 -63 -73 -127 -37 -37 -71 -67 -76 -68 -12 0 0 40 35 115 44 96 47
128 16 159 -24 24 -67 27 -67 5 0 -5 -6 -9 -14 -9 -18 0 -26 -22 -26 -74 0
-23 -8 -52 -17 -66 -10 -14 -17 -27 -16 -30 0 -3 -16 -30 -36 -60 -40 -61
-109 -130 -129 -130 -8 0 -26 -8 -40 -18 -37 -26 -57 -32 -72 -22 -9 6 -6 12
14 25 14 10 26 24 26 31 0 8 5 14 10 14 6 0 10 6 8 13 -2 6 10 29 25 49 50 65
67 158 33 180 -22 15 -55 8 -61 -12 -3 -11 -11 -20 -16 -20 -5 0 -9 -6 -9 -14
0 -7 -6 -19 -14 -26 -8 -6 -12 -19 -9 -27 4 -9 0 -21 -9 -27 -8 -6 -21 -23
-29 -37 -32 -60 -70 -108 -106 -136 -49 -39 -120 -75 -141 -72 -9 1 -35 -3
-57 -9 -50 -14 -117 -11 -123 6 -2 6 1 12 7 12 27 0 137 113 162 165 10 22 23
47 28 55 5 8 24 46 43 83 l33 68 -28 25 c-20 17 -35 23 -50 18 -31 -9 -47 -24
-47 -42 0 -8 -16 -48 -35 -88 -19 -40 -35 -76 -35 -81 0 -9 -31 -42 -69 -73
-46 -38 -166 -84 -207 -80 -10 1 -21 1 -24 0 -56 -21 -163 -24 -202 -6 -27 14
-77 82 -66 91 16 11 75 35 89 35 10 0 21 5 24 10 3 6 17 10 31 10 13 0 24 4
24 10 0 13 52 60 66 60 6 0 17 6 23 14 13 16 61 27 61 15 0 -30 91 34 96 67 1
9 12 23 23 31 12 8 21 22 21 31 1 9 7 28 15 42 12 22 11 27 -2 42 -14 15 -13
22 3 64 17 45 17 47 -1 60 -25 18 -59 18 -75 -1 -7 -8 -21 -15 -31 -15 -11 0
-19 -4 -19 -9 0 -5 -12 -11 -27 -14 -16 -3 -38 -15 -51 -27 -17 -16 -39 -23
-84 -26 -37 -2 -68 -10 -79 -20 -9 -8 -26 -14 -36 -13 -10 2 -29 -1 -43 -6
-49 -16 -252 -22 -337 -9 -23 3 -49 15 -59 25 -9 10 -23 19 -31 19 -7 0 -29
14 -49 32 -33 30 -34 33 -17 46 12 8 31 11 55 7 51 -9 133 22 170 63 25 29 28
40 24 78 -2 24 -7 48 -10 53 -8 12 16 31 45 36 13 3 38 12 56 20 19 9 43 17
53 18 11 1 20 4 20 7 0 7 48 27 85 36 17 4 35 10 40 14 6 4 48 27 95 51 47 24
99 56 115 72 34 32 71 54 106 61 13 3 49 13 79 22 54 16 143 20 245 11 28 -2
50 -5 50 -7 0 -1 14 -4 30 -6 72 -10 105 -17 105 -23 0 -3 10 -7 23 -7 12 -1
60 -10 107 -19 94 -20 225 -22 355 -4 44 5 112 13 150 15 40 4 81 13 95 22 35
24 93 51 107 52 7 0 31 8 53 17 44 19 60 49 53 99 -4 27 -9 30 -41 32 -21 0
-47 -4 -59 -10z m-2016 -564 c10 -3 -27 -55 -44 -63 -13 -6 -23 -15 -23 -20 0
-12 -42 -19 -66 -11 -10 4 -31 1 -46 -6 -20 -10 -34 -11 -53 -4 -42 16 -28 42
35 65 30 11 78 32 105 47 47 25 51 25 70 10 11 -9 21 -17 22 -18z m633 -305
c0 -16 -4 -29 -9 -29 -4 0 -20 -11 -35 -25 -15 -14 -36 -25 -47 -25 -10 0 -19
-3 -19 -8 0 -8 -79 -46 -120 -58 -14 -4 -36 -15 -49 -25 -13 -11 -30 -19 -37
-19 -8 0 -33 -9 -57 -20 -23 -11 -62 -26 -87 -35 -24 -9 -51 -22 -60 -30 -27
-24 -113 -65 -137 -65 -13 0 -23 -4 -23 -9 0 -10 -62 -40 -125 -61 -22 -7 -43
-17 -46 -21 -3 -5 -32 -16 -65 -25 -32 -8 -60 -19 -62 -24 -2 -6 -10 -10 -18
-10 -8 0 -53 -20 -101 -45 -47 -25 -91 -45 -97 -44 -25 3 -36 -2 -36 -16 0
-26 -42 -90 -53 -79 -2 3 3 30 13 60 13 42 29 67 68 104 29 27 52 53 52 58 0
5 -10 18 -22 29 -24 22 -41 22 -168 -7 -107 -24 -116 -25 -102 -7 8 9 24 19
35 23 12 4 31 17 42 29 11 12 32 25 48 29 15 3 27 12 27 20 0 7 6 19 14 25 13
11 14 20 4 61 -3 16 -36 34 -83 46 -26 6 -27 8 -10 13 11 4 42 17 68 29 27 12
60 22 73 22 15 0 24 6 24 16 0 8 4 13 9 10 5 -3 21 4 35 15 15 12 38 22 51 23
14 0 25 3 25 6 0 8 72 34 86 32 6 -1 17 5 24 13 7 8 18 15 24 15 7 0 23 10 35
22 21 19 27 20 60 8 20 -7 56 -25 80 -41 25 -16 54 -29 66 -29 12 0 36 -5 54
-11 24 -9 52 -8 114 1 45 8 96 13 112 12 17 0 59 4 95 9 36 5 88 11 115 13 82
6 145 18 145 27 0 5 6 9 14 9 7 0 19 7 26 15 17 20 30 9 30 -26z m-1337 -266
c30 -8 18 -27 -56 -86 -40 -31 -94 -80 -122 -107 -27 -28 -54 -50 -59 -50 -5
0 -23 -10 -40 -23 -45 -34 -56 -39 -56 -28 0 6 7 11 15 11 8 0 30 21 49 48 20
26 42 54 51 63 8 9 15 20 15 25 0 15 42 88 60 104 9 8 19 23 23 32 9 25 54 29
120 11z m87 -214 c-8 -14 -17 -18 -34 -13 -27 6 -60 -21 -52 -42 4 -10 -3 -14
-24 -14 -17 0 -49 -9 -73 -20 -23 -11 -55 -21 -72 -22 -16 -1 -34 -5 -40 -8
-10 -7 -74 -26 -112 -34 -34 -6 -28 7 10 23 17 8 38 21 45 28 36 36 103 71
157 82 33 7 78 19 100 26 45 16 86 23 98 17 4 -2 2 -12 -3 -23z m-80 -146 c-5
-20 -7 -41 -4 -45 10 -16 -40 -26 -54 -11 -7 7 -18 10 -24 7 -13 -8 -209 -14
-221 -7 -11 7 78 43 108 43 11 1 52 12 90 25 39 13 80 24 91 24 20 1 21 -2 14
-36z"/>
<path d="M1176 1800 c-22 -11 -60 -23 -85 -26 -25 -3 -91 -23 -146 -44 -55
-21 -120 -44 -144 -51 -24 -7 -49 -18 -55 -24 -6 -6 -36 -23 -66 -39 -60 -31
-100 -63 -100 -81 0 -6 -9 -18 -20 -28 -11 -9 -20 -24 -20 -32 0 -8 -4 -15
-10 -15 -5 0 -10 -9 -10 -20 0 -11 -4 -20 -10 -20 -5 0 -10 -15 -10 -34 0 -73
105 -107 195 -64 88 42 120 66 183 136 143 160 237 242 298 260 32 9 48 21 60
43 16 33 13 59 -8 59 -7 -1 -31 -10 -52 -20z m-266 -239 c-124 -124 -170 -164
-213 -184 -31 -14 -64 -24 -74 -22 -10 2 -20 4 -23 4 -26 5 -29 19 -10 56 11
22 20 45 20 53 0 33 79 117 120 127 14 4 32 13 41 21 9 8 45 23 80 33 35 11
93 31 129 45 36 14 70 25 76 25 6 1 -60 -70 -146 -158z"/>
<path d="M1054 1200 c-12 -5 -31 -20 -42 -35 -25 -32 -101 -85 -122 -85 -9 0
-20 -4 -25 -9 -20 -18 -172 -61 -215 -61 -25 0 -65 6 -90 14 -25 7 -49 15 -55
16 -5 1 -21 7 -35 12 -17 7 -35 6 -56 -1 -17 -6 -42 -11 -57 -11 -15 0 -27 -4
-27 -8 0 -5 -11 -15 -25 -22 -16 -8 -25 -22 -25 -36 0 -24 54 -94 72 -94 5 0
30 -16 54 -35 30 -22 62 -36 92 -41 26 -4 64 -13 86 -20 39 -14 73 -11 114 9
17 8 28 8 41 0 22 -14 68 -6 103 18 14 11 30 19 35 19 52 0 228 272 221 342
-3 35 -13 41 -44 28z m-80 -187 c-16 -26 -31 -50 -34 -53 -3 -3 -20 -24 -39
-47 -18 -24 -39 -43 -46 -43 -7 0 -18 -7 -25 -15 -9 -11 -29 -15 -69 -14 -32
1 -73 -3 -93 -10 -27 -9 -42 -9 -64 0 -16 7 -42 14 -59 15 -59 6 -95 15 -95
23 0 5 -23 24 -51 41 -56 37 -62 65 -19 88 28 15 79 11 183 -14 54 -14 78 -15
125 -6 123 23 180 40 242 73 76 40 84 32 44 -38z"/>
<path d="M1321 758 c-18 -21 -40 -38 -47 -38 -8 0 -14 -7 -14 -15 0 -8 -4 -15
-9 -15 -5 0 -24 -26 -42 -57 -18 -32 -48 -72 -66 -90 -18 -17 -33 -35 -33 -40
0 -4 -10 -19 -22 -33 -25 -27 -42 -66 -64 -149 -14 -48 -14 -57 3 -96 19 -46
56 -75 95 -75 16 0 33 14 53 42 54 76 61 92 64 148 1 30 9 73 17 95 7 22 14
47 14 56 0 8 10 26 23 39 12 14 21 26 19 28 -3 3 9 23 58 97 37 57 44 65 57
65 19 0 28 47 12 62 -8 7 -30 13 -49 14 -28 0 -41 -7 -69 -38z m-18 -116 c-36
-45 -67 -102 -89 -162 -14 -41 -20 -65 -39 -170 -3 -19 -10 -36 -16 -38 -5 -2
-9 -9 -9 -16 0 -7 -9 -21 -20 -31 -15 -14 -23 -15 -34 -6 -37 31 -23 152 25
213 16 20 29 44 29 52 0 9 4 16 9 16 4 0 29 31 55 69 45 68 103 127 114 116 3
-3 -8 -22 -25 -43z"/>
</g>
</svg>
