<?xml version="1.0" standalone="no"?>
<!DOCTYPE svg PUBLIC "-//W3C//DTD SVG 20010904//EN"
 "http://www.w3.org/TR/2001/REC-SVG-20010904/DTD/svg10.dtd">
<svg version="1.0" xmlns="http://www.w3.org/2000/svg"
 width="305.000000pt" height="483.000000pt" viewBox="0 0 305.000000 483.000000"
 preserveAspectRatio="xMidYMid meet">
<metadata>
Created by potrace 1.16, written by Peter Selinger 2001-2019
</metadata>
<g transform="translate(0.000000,483.000000) scale(0.100000,-0.100000)"
fill="#000000" stroke="none">
<path d="M2024 4643 c-22 -8 -45 -15 -52 -17 -7 -1 -18 -8 -24 -14 -7 -7 -16
-12 -21 -12 -20 0 -108 -80 -163 -149 -32 -40 -67 -83 -77 -94 -10 -11 -20
-32 -24 -46 -3 -14 -9 -30 -13 -36 -18 -24 -31 -117 -25 -172 10 -82 21 -127
57 -214 l30 -76 -26 -83 c-14 -46 -26 -89 -26 -95 0 -38 -46 -38 -293 1 -44 6
-51 5 -70 -18 -12 -14 -28 -23 -35 -20 -8 2 -44 -16 -80 -41 -37 -25 -78 -48
-92 -52 -14 -4 -54 -27 -88 -52 -35 -24 -87 -55 -115 -69 -29 -15 -65 -36 -82
-48 -16 -12 -56 -37 -88 -55 -31 -18 -63 -38 -70 -44 -6 -7 -32 -25 -57 -41
-25 -16 -71 -49 -102 -73 -31 -24 -79 -54 -107 -68 -27 -14 -60 -34 -73 -45
-13 -10 -39 -32 -59 -49 -19 -16 -47 -33 -61 -36 -15 -4 -34 -15 -43 -25 -15
-16 -15 -22 -3 -47 15 -32 66 -62 77 -45 11 18 279 13 321 -5 21 -9 73 -17
130 -18 97 -3 125 -7 157 -22 19 -10 37 -9 93 1 33 7 36 5 60 -34 14 -22 25
-44 25 -48 1 -4 15 -36 33 -71 18 -34 32 -69 32 -77 0 -8 -11 -47 -25 -86 -14
-39 -25 -80 -25 -90 0 -10 -7 -21 -16 -25 -11 -4 -13 -13 -9 -34 5 -21 2 -31
-8 -35 -24 -9 -26 -26 -11 -83 10 -40 11 -65 3 -99 -5 -25 -12 -73 -15 -106
-5 -57 -46 -282 -58 -316 -3 -8 -7 -31 -10 -50 -3 -19 -12 -66 -21 -105 -9
-38 -20 -101 -24 -140 -5 -38 -17 -90 -28 -115 -12 -25 -28 -65 -38 -90 -9
-25 -23 -61 -32 -80 -8 -19 -18 -44 -23 -55 -4 -11 -23 -56 -43 -100 -20 -44
-44 -105 -54 -135 -10 -30 -21 -57 -24 -60 -3 -3 -13 -30 -23 -60 -25 -84 -68
-190 -76 -190 -12 0 -30 -53 -26 -75 3 -11 5 -23 5 -27 1 -3 14 -9 30 -13 20
-4 39 1 66 16 34 20 50 22 212 23 l174 1 -5 29 c-3 16 -6 40 -6 55 0 21 -7 29
-31 38 -18 7 -35 10 -40 8 -12 -8 -125 -23 -217 -29 -61 -4 -63 1 -34 86 11
29 25 71 31 93 7 22 25 65 39 95 14 30 28 64 32 75 3 11 17 41 29 67 13 26 23
50 24 55 0 4 12 31 27 58 15 28 37 79 50 115 25 73 64 146 92 173 15 15 17 26
11 55 -14 66 -1 302 17 302 4 0 8 23 9 51 1 45 8 84 28 164 2 11 8 52 13 90 4
39 10 77 13 85 3 8 8 44 11 80 6 76 20 92 103 116 53 16 54 15 74 -7 11 -13
23 -36 26 -51 3 -16 9 -28 12 -28 4 0 15 -19 25 -42 16 -40 22 -52 46 -95 5
-10 32 -66 60 -125 27 -59 55 -110 60 -113 6 -4 8 -11 4 -16 -3 -6 2 -19 12
-30 17 -19 17 -21 0 -54 -10 -18 -17 -35 -16 -37 2 -2 -2 -13 -8 -25 -14 -25
0 -121 24 -165 8 -14 14 -33 14 -40 0 -8 12 -21 28 -28 15 -8 34 -19 42 -26 8
-6 36 -14 63 -17 35 -3 54 -12 72 -31 14 -15 25 -31 25 -35 0 -5 7 -14 15 -21
8 -7 15 -20 15 -30 0 -10 7 -24 16 -31 9 -8 26 -34 37 -59 12 -25 23 -48 25
-51 1 -4 -13 -10 -32 -13 -18 -4 -40 -14 -47 -22 -7 -9 -38 -28 -68 -44 -31
-16 -68 -40 -83 -54 -15 -14 -34 -26 -41 -26 -8 0 -20 -7 -28 -16 -8 -10 -23
-14 -41 -12 -15 3 -28 1 -28 -4 0 -4 -7 -8 -15 -8 -16 0 -17 -1 -20 -45 -1
-20 8 -42 27 -66 15 -20 28 -41 28 -47 0 -6 3 -12 8 -14 9 -4 82 -115 82 -126
0 -5 9 -18 20 -30 11 -12 21 -25 22 -29 2 -17 22 -53 28 -53 4 0 10 -18 13
-39 3 -22 12 -54 21 -72 9 -18 16 -36 16 -41 0 -5 8 -18 19 -29 16 -18 27 -19
96 -14 43 3 88 11 99 17 25 14 65 12 171 -7 44 -8 110 -17 146 -19 68 -6 99
-13 99 -25 0 -6 78 -8 101 -2 6 1 15 45 24 116 5 43 18 210 15 210 -1 0 3 13
9 28 6 15 16 67 22 115 6 48 12 101 15 118 3 20 -1 36 -11 44 -18 15 -68 119
-86 179 -7 24 -19 45 -26 48 -18 7 -39 49 -47 96 -6 33 -5 37 13 37 20 0 34
14 37 38 2 8 -3 11 -12 8 -8 -3 -14 1 -14 8 0 8 5 16 11 18 7 2 9 13 5 26 -6
18 -15 22 -48 22 -23 0 -55 9 -73 20 -17 11 -40 21 -51 23 -10 2 -38 9 -61 16
-39 11 -42 14 -37 39 2 15 18 95 34 177 27 143 46 291 42 345 0 14 -2 41 -3
60 -2 38 -26 62 -66 66 -19 2 -87 45 -103 65 -3 4 -33 23 -68 44 -35 20 -62
42 -59 48 2 7 27 86 56 177 29 91 58 176 64 190 6 14 11 30 12 35 2 24 30 102
43 123 12 19 13 33 4 75 -6 29 -14 79 -17 112 -10 91 -13 114 -25 195 -14 93
-11 147 9 182 18 32 5 116 -19 129 -18 9 -135 46 -170 54 -106 23 -120 29
-113 50 4 11 8 38 9 60 5 91 9 95 75 58 30 -17 80 -40 113 -53 55 -22 62 -23
140 -11 109 17 197 75 262 171 24 36 44 73 44 82 0 8 6 21 14 27 8 7 20 35 26
64 7 29 18 63 25 77 13 26 30 209 28 293 -2 48 -37 135 -70 172 -32 36 -80 64
-112 67 -17 1 -31 5 -31 9 0 26 -180 43 -236 22z m145 -83 c35 -19 108 -50
116 -50 22 0 80 -58 98 -98 17 -39 19 -59 14 -136 -8 -109 -14 -147 -33 -204
-18 -54 -64 -146 -75 -150 -5 -2 -9 -9 -9 -16 0 -14 -73 -96 -85 -96 -5 0 -16
-6 -24 -13 -32 -27 -156 -53 -167 -36 -3 5 -15 9 -26 9 -58 0 -212 121 -223
177 -4 15 -11 37 -17 47 -18 34 -43 143 -40 181 2 26 14 71 23 81 5 6 6 14 2
17 -3 4 -1 7 5 7 7 0 12 7 12 17 0 9 12 32 27 52 48 63 180 190 209 202 66 27
151 31 193 9z m-362 -132 c-3 -8 -6 -5 -6 6 -1 11 2 17 5 13 3 -3 4 -12 1 -19z
m-293 -914 c44 -2 84 -9 90 -14 6 -5 36 -9 66 -9 30 0 75 -7 99 -15 24 -9 52
-16 62 -16 11 0 27 -4 37 -9 9 -5 25 -12 35 -15 17 -5 17 -7 3 -22 -9 -8 -16
-17 -16 -18 0 -14 26 -72 34 -78 11 -7 -27 -215 -45 -250 -5 -9 -9 -33 -9 -53
0 -19 -7 -51 -15 -71 -8 -19 -19 -63 -25 -97 -7 -34 -18 -75 -26 -92 -7 -16
-18 -54 -24 -83 -5 -30 -12 -58 -15 -63 -8 -12 -14 -41 -24 -120 -5 -36 -14
-75 -20 -86 -11 -21 -73 -39 -92 -28 -5 4 -35 8 -65 10 -31 2 -73 6 -93 10
-23 4 -71 0 -116 -10 -43 -9 -84 -14 -92 -11 -7 3 -23 25 -35 49 -13 24 -36
69 -53 100 l-29 57 21 77 c11 43 27 103 36 133 8 30 25 102 37 160 12 58 26
112 30 120 5 8 17 65 29 125 11 61 28 144 36 185 9 41 18 85 20 98 3 29 34 53
60 46 11 -3 56 -7 99 -10z m-248 -69 c-3 -17 -8 -38 -11 -46 -3 -8 -12 -55
-19 -104 -8 -50 -17 -101 -21 -115 -3 -14 -8 -45 -11 -70 -3 -25 -11 -67 -19
-95 -7 -27 -16 -68 -20 -90 -3 -22 -18 -93 -32 -158 l-26 -117 -28 51 c-16 28
-37 75 -48 105 -18 50 -18 59 -5 89 34 83 0 184 -75 222 -41 21 -46 21 -80 7
-43 -18 -75 -47 -104 -94 -23 -38 -29 -57 -31 -110 -1 -32 -4 -35 -31 -36 -16
-1 -45 -4 -64 -7 -19 -3 -56 1 -82 9 -26 8 -60 16 -75 19 -101 17 -140 22
-146 18 -5 -2 -8 3 -8 12 0 9 4 14 9 10 5 -3 13 -1 16 5 4 6 27 20 52 32 25
12 59 36 77 54 17 18 55 44 83 58 28 15 53 30 55 34 8 18 96 81 123 88 17 4
45 22 62 41 18 18 39 33 47 33 9 0 29 14 46 30 17 17 35 30 41 30 6 0 25 11
43 25 18 14 36 25 41 25 4 0 36 14 71 31 36 16 73 32 84 34 11 2 27 8 36 13 9
5 25 7 36 4 15 -4 18 -11 14 -37z m702 -423 c8 -67 8 -209 0 -225 -5 -10 -10
-28 -12 -40 -1 -12 -5 -29 -8 -37 -4 -8 -27 -81 -53 -163 -57 -183 -78 -232
-92 -215 -12 15 22 202 62 343 26 94 59 232 77 323 11 55 20 60 26 14z m-829
-602 c4 -3 14 -17 23 -31 l17 -27 -37 -8 c-20 -4 -42 -8 -48 -9 -6 -2 -5 19 5
56 12 46 17 55 25 41 5 -9 12 -19 15 -22z m381 -130 c36 -6 81 -11 100 -11 60
-3 110 -19 110 -35 0 -9 9 -18 21 -21 16 -4 19 -11 14 -27 -4 -11 -9 -37 -12
-56 -3 -19 -9 -39 -13 -45 -4 -5 -13 -28 -20 -50 -7 -22 -18 -53 -25 -70 -8
-16 -21 -57 -30 -90 -9 -33 -26 -76 -36 -97 -20 -39 -39 -50 -39 -23 0 22 -60
125 -73 125 -6 0 -8 3 -4 6 5 5 -23 65 -61 129 -6 11 -24 47 -40 80 -16 33
-40 81 -54 106 -41 76 -41 78 -5 87 34 10 63 8 167 -8z m390 -153 c30 -14 64
-34 76 -45 11 -11 35 -27 52 -36 18 -9 32 -21 32 -26 0 -5 6 -7 14 -4 11 4 17
-4 21 -28 8 -45 -3 -185 -18 -228 -3 -8 -10 -49 -17 -90 -7 -41 -19 -94 -26
-118 -8 -23 -14 -49 -14 -56 0 -7 -7 -28 -17 -46 -15 -32 -15 -35 3 -69 14
-25 27 -36 49 -38 17 -2 52 -11 78 -19 l49 -16 -30 -28 c-33 -30 -166 -102
-174 -94 -3 2 -11 -2 -18 -11 -7 -8 -20 -15 -30 -15 -38 0 -172 229 -141 242
4 2 18 18 31 37 19 28 24 48 25 108 1 40 -2 73 -6 73 -5 0 -13 17 -20 38 -10
36 -52 72 -84 72 -7 0 -15 9 -18 20 -6 24 21 150 33 150 4 0 8 10 8 23 0 12 7
47 16 77 12 42 13 56 3 62 -8 5 -7 8 5 8 10 0 23 17 34 44 10 24 21 43 24 42
3 -2 30 -15 60 -29z m-173 -475 c7 -4 18 -20 27 -36 13 -25 12 -33 -2 -75 -20
-54 -33 -67 -86 -82 -54 -15 -93 3 -116 53 -20 45 -15 85 16 121 18 20 31 24
86 25 35 0 69 -3 75 -6z m518 -491 c6 -26 45 -111 55 -121 3 -3 27 -48 55
-100 l49 -95 -1 -105 c-2 -94 -18 -213 -45 -325 l-9 -40 -178 1 c-98 0 -183 4
-190 9 -8 4 -17 2 -22 -6 -8 -12 -11 -11 -20 4 -8 13 -23 17 -67 17 -31 0 -67
3 -79 6 -22 6 -54 51 -68 95 -4 13 -16 35 -26 48 -11 13 -19 30 -19 37 0 7
-12 30 -26 51 -35 52 -94 169 -94 188 0 8 6 15 13 15 15 0 54 38 49 48 -1 3 4
7 12 8 9 1 29 12 45 23 16 12 32 21 36 21 3 0 13 6 20 13 34 29 45 37 55 37 6
0 18 4 28 10 9 5 40 20 67 33 28 14 70 36 95 49 41 23 81 44 135 71 11 6 31
16 44 23 13 7 36 12 52 12 21 -1 29 -7 34 -27z"/>
</g>
</svg>
