<?xml version="1.0" standalone="no"?>
<!DOCTYPE svg PUBLIC "-//W3C//DTD SVG 20010904//EN"
 "http://www.w3.org/TR/2001/REC-SVG-20010904/DTD/svg10.dtd">
<svg version="1.0" xmlns="http://www.w3.org/2000/svg"
 width="481.000000pt" height="441.000000pt" viewBox="0 0 481.000000 441.000000"
 preserveAspectRatio="xMidYMid meet">
<metadata>
Created by potrace 1.16, written by Peter Selinger 2001-2019
</metadata>
<g transform="translate(0.000000,441.000000) scale(0.100000,-0.100000)"
fill="#000000" stroke="none">
<path d="M3617 4296 c-20 -6 -48 -23 -62 -36 -14 -14 -38 -38 -55 -55 -66 -64
-148 -212 -171 -308 -5 -21 -10 -86 -11 -145 -1 -129 34 -291 79 -354 30 -44
95 -93 136 -103 14 -4 31 -13 36 -19 7 -9 29 -11 66 -8 50 4 58 2 79 -21 18
-19 25 -41 29 -84 3 -32 8 -70 12 -85 8 -29 4 -30 -140 -43 -33 -3 -76 -9 -95
-15 -19 -5 -58 -10 -86 -10 -60 0 -84 -19 -78 -64 2 -19 -5 -41 -19 -60 -12
-17 -34 -53 -48 -81 -14 -27 -30 -59 -36 -70 -6 -11 -23 -45 -38 -75 -33 -67
-76 -110 -110 -110 -14 0 -42 -7 -63 -16 -20 -8 -55 -14 -77 -13 -22 2 -49 -3
-61 -9 -12 -6 -70 -13 -130 -16 -131 -6 -151 -11 -158 -42 -13 -50 32 -82 85
-61 13 5 58 13 99 17 144 15 230 29 250 40 11 6 28 10 38 8 9 -1 32 3 49 11
18 7 39 11 47 8 16 -7 76 58 76 81 0 7 11 28 25 46 14 18 25 42 25 54 0 11 3
23 8 26 4 2 23 34 42 71 33 64 35 65 42 39 7 -26 13 -70 23 -171 2 -24 9 -53
16 -64 6 -12 15 -61 20 -108 4 -47 11 -98 15 -112 5 -24 3 -28 -28 -34 -18 -4
-44 -13 -58 -20 -30 -15 -103 -48 -110 -50 -3 -1 -22 -9 -44 -18 -21 -9 -44
-17 -50 -17 -6 0 -24 -7 -39 -15 -16 -8 -42 -16 -58 -17 -16 -1 -29 -6 -29
-10 0 -4 -12 -13 -27 -20 -38 -19 -49 -41 -35 -72 17 -37 78 -37 117 0 16 15
74 43 130 64 55 21 123 50 149 64 74 39 82 36 90 -31 4 -32 9 -71 11 -88 2
-16 7 -79 11 -140 3 -60 9 -119 11 -130 12 -48 0 -109 -38 -192 -22 -49 -52
-115 -67 -148 -15 -33 -53 -112 -84 -177 -56 -113 -57 -117 -44 -150 8 -18 16
-53 19 -78 5 -44 23 -106 37 -125 9 -11 25 -76 22 -87 -1 -4 9 -33 23 -64 14
-31 25 -67 25 -79 0 -12 7 -42 16 -66 9 -24 17 -48 18 -54 2 -5 8 -23 14 -38
7 -16 12 -34 12 -41 0 -8 7 -30 16 -51 8 -20 14 -39 12 -41 -2 -2 -20 -5 -38
-8 -19 -2 -54 -9 -78 -15 -24 -7 -58 -14 -75 -17 -18 -3 -42 -7 -53 -9 -45 -7
-64 -24 -64 -60 0 -22 6 -38 18 -44 9 -5 20 -11 23 -13 3 -1 13 3 22 11 10 7
17 10 17 6 0 -4 10 -1 23 7 25 17 50 22 287 53 19 2 36 4 36 5 1 0 4 10 7 21
4 14 -6 45 -24 81 -17 33 -39 90 -51 126 -11 37 -26 79 -34 94 -8 15 -16 44
-19 65 -8 60 -14 84 -23 97 -15 18 -79 256 -87 318 -6 56 -4 61 68 220 41 90
94 208 117 263 23 55 46 104 51 109 4 5 25 11 46 13 21 2 58 10 83 17 141 44
192 56 255 62 39 3 86 10 105 15 79 20 95 7 68 -58 -6 -15 -12 -34 -14 -42 -1
-7 -7 -18 -13 -24 -6 -6 -11 -19 -11 -29 0 -10 -4 -18 -10 -18 -5 0 -10 -6
-10 -13 0 -7 -11 -37 -25 -65 -14 -29 -25 -56 -25 -60 0 -11 -60 -127 -92
-177 -13 -22 -27 -50 -31 -63 -5 -23 26 -156 42 -177 5 -5 16 -37 26 -70 10
-33 30 -87 45 -120 27 -59 71 -201 75 -240 1 -11 16 -50 33 -87 50 -111 52
-104 -20 -116 -104 -18 -160 -31 -174 -43 -7 -6 -19 -9 -26 -7 -16 6 -68 -48
-68 -70 1 -26 25 -52 49 -52 20 0 86 26 143 56 36 19 161 42 184 33 29 -10 67
25 66 59 0 16 -12 53 -25 83 -14 30 -25 56 -24 59 0 3 -11 26 -26 51 -15 26
-29 65 -31 88 -2 22 -8 46 -14 53 -12 15 -43 130 -37 136 2 2 -5 13 -16 25
-10 11 -19 28 -19 37 0 9 -4 20 -9 25 -5 6 -19 46 -30 89 -11 43 -24 82 -30
85 -12 8 -21 111 -10 111 5 0 8 3 7 7 -2 10 30 78 53 113 8 14 27 54 41 90 15
36 36 88 49 115 12 28 23 55 24 61 2 6 18 42 36 80 30 65 32 75 31 169 -1 55
-5 125 -8 155 -3 30 -5 60 -5 65 6 116 6 249 -1 320 -11 129 -17 607 -7 626 5
10 3 23 -6 36 -8 11 -12 23 -9 26 3 3 -6 13 -20 22 -22 15 -31 15 -56 5 -16
-7 -39 -10 -49 -7 -11 3 -21 2 -23 -2 -4 -9 -129 -70 -155 -76 -10 -2 -34 -9
-53 -14 -19 -6 -36 -11 -37 -11 -2 0 -3 8 -3 18 0 10 -7 28 -16 40 -14 21 -27
162 -14 159 8 -2 124 75 132 87 3 6 17 23 30 38 13 15 42 65 64 110 45 90 54
139 59 333 2 70 -2 112 -12 140 -8 22 -17 52 -20 68 -3 15 -9 27 -14 27 -5 0
-9 5 -9 10 0 10 -76 112 -82 110 -9 -4 -56 21 -75 39 -13 12 -23 19 -23 16 0
-3 -10 0 -22 6 -29 16 -134 39 -173 38 -16 -1 -47 -6 -68 -13z m208 -128 c106
-45 116 -50 148 -89 60 -71 79 -238 46 -409 -11 -59 -56 -155 -97 -207 -24
-30 -93 -71 -137 -82 -44 -11 -181 -4 -219 11 -56 22 -126 90 -126 123 0 14
-7 42 -16 63 -26 59 -31 248 -9 319 26 87 82 180 137 232 28 25 58 54 67 64
23 25 115 14 206 -25z m318 -1130 c-2 -18 -10 -37 -17 -43 -7 -5 -15 -23 -19
-40 -8 -43 -16 -59 -125 -270 -64 -123 -107 -194 -121 -201 -12 -6 -23 -15
-24 -20 -1 -5 -36 -21 -77 -35 -41 -15 -95 -36 -120 -48 -25 -11 -52 -21 -60
-21 -22 0 -40 55 -40 121 -1 30 -7 81 -16 114 -19 76 -21 87 -29 160 -3 33
-13 82 -21 109 -8 27 -13 50 -11 51 36 16 97 29 192 40 28 4 67 10 89 15 21 5
45 6 52 3 8 -3 28 0 46 7 18 6 56 15 83 20 28 4 75 19 105 33 108 48 120 49
113 5z m43 -335 c2 -97 8 -190 13 -207 12 -38 11 -406 -1 -406 -5 0 -4 -8 1
-18 10 -18 8 -108 -2 -118 -10 -11 -82 -25 -194 -39 -61 -7 -127 -20 -145 -29
-18 -8 -50 -17 -72 -19 -21 -3 -41 -9 -45 -14 -10 -16 -51 -23 -97 -16 l-42 5
-6 57 c-3 31 -10 113 -15 184 -6 70 -13 132 -16 137 -13 22 8 49 48 64 23 8
91 33 152 56 60 22 115 38 122 36 13 -5 63 35 63 50 0 4 8 17 18 28 10 12 24
39 31 61 13 38 111 243 151 315 11 19 20 41 20 49 0 8 3 11 6 8 4 -4 8 -86 10
-184z"/>
<path d="M4112 4060 c0 -14 2 -19 5 -12 2 6 2 18 0 25 -3 6 -5 1 -5 -13z"/>
<path d="M1390 3410 c-8 -5 -31 -10 -50 -10 -20 0 -50 -10 -70 -24 -19 -13
-56 -33 -81 -44 -25 -12 -52 -28 -59 -37 -7 -8 -20 -15 -29 -15 -24 0 -139
-150 -146 -190 0 -3 -6 -21 -13 -40 -16 -50 -21 -82 -26 -194 -3 -54 -1 -106
4 -116 5 -9 10 -35 11 -56 2 -39 28 -131 55 -190 12 -28 87 -114 99 -114 3 0
17 -10 31 -22 14 -13 31 -23 37 -24 7 0 26 -6 42 -13 17 -7 49 -16 73 -20 24
-5 51 -18 62 -31 19 -22 19 -38 5 -110 -2 -8 -4 -20 -4 -26 -1 -15 -71 -40
-148 -54 -34 -6 -84 -17 -110 -25 -26 -8 -76 -18 -109 -21 -50 -5 -64 -11 -71
-28 -10 -22 -10 -32 -1 -56 6 -15 27 -218 29 -275 1 -16 5 -32 9 -35 4 -3 10
-23 14 -45 3 -22 10 -65 16 -95 5 -30 11 -154 12 -275 l1 -220 34 -85 c19 -46
36 -98 37 -115 2 -16 18 -61 36 -100 39 -84 100 -225 97 -225 -1 -1 -22 -3
-47 -5 -25 -3 -55 -7 -68 -9 -29 -6 -127 45 -163 85 -14 16 -31 29 -37 29 -5
0 -16 14 -24 30 -7 17 -18 30 -25 30 -7 0 -20 9 -30 19 -10 11 -44 33 -77 50
-32 17 -72 43 -89 57 -51 42 -71 46 -122 21 -25 -12 -45 -26 -45 -32 0 -5 -61
-70 -134 -143 -103 -102 -134 -139 -130 -155 6 -32 18 -39 68 -40 46 -2 46 -2
46 31 0 20 6 35 15 38 8 4 15 11 15 17 0 14 189 197 202 197 14 0 68 -31 92
-52 11 -10 26 -18 33 -18 7 0 13 -4 13 -10 0 -5 7 -7 15 -4 8 4 15 1 15 -7 0
-7 3 -9 6 -6 4 4 16 -3 26 -16 49 -56 79 -87 86 -87 4 -1 25 -17 47 -36 22
-19 32 -32 22 -29 -10 4 -17 2 -17 -4 0 -6 -5 -11 -12 -11 -6 0 -19 -7 -27
-15 -9 -8 -32 -16 -51 -18 -43 -5 -90 -26 -91 -41 -3 -27 4 -61 15 -80 7 -12
14 -39 15 -60 4 -52 17 -65 58 -54 45 12 55 60 28 131 -5 11 -2 17 8 17 8 0
25 8 38 18 26 20 60 31 126 39 39 5 46 2 79 -31 20 -20 38 -36 41 -36 2 0 16
-13 31 -28 26 -28 36 -31 184 -58 21 -4 31 1 43 19 17 27 11 51 -24 97 -11 14
-22 40 -26 58 l-7 32 44 -1 c24 0 84 4 133 11 50 6 111 13 136 14 25 2 50 6
55 9 5 3 32 6 59 8 28 1 55 5 60 8 6 3 15 7 20 8 56 14 78 21 70 22 -5 1 -4 5
4 10 12 8 13 22 2 93 -7 45 -12 97 -12 113 0 184 -8 375 -16 390 -15 30 -15
447 0 442 7 -2 35 2 62 10 28 7 86 17 130 22 101 12 135 25 135 50 0 11 -4 23
-10 26 -5 3 -10 14 -10 25 0 16 -4 17 -37 8 -21 -5 -65 -12 -97 -14 -32 -2
-80 -10 -106 -19 -77 -26 -80 -22 -81 124 -1 69 -3 175 -5 235 l-4 110 63 -62
c60 -60 187 -152 209 -152 6 0 18 -8 27 -17 34 -38 73 -23 166 60 11 10 36 27
55 37 19 10 51 33 70 49 19 17 39 31 43 31 12 0 127 122 143 152 7 15 22 29
32 32 23 8 45 47 40 72 -2 10 -16 23 -32 29 -25 9 -31 6 -58 -25 -119 -140
-202 -218 -279 -260 -15 -8 -43 -29 -62 -47 -40 -36 -51 -40 -88 -30 -74 19
-256 171 -274 227 -4 11 -14 21 -23 21 -39 4 -48 6 -62 12 -8 4 -46 -2 -85
-14 -69 -21 -105 -29 -218 -48 -31 -6 -62 -13 -67 -16 -6 -4 -10 20 -10 62 l0
68 72 29 c39 17 86 43 104 58 112 99 200 347 191 543 -4 94 -37 224 -76 302
-12 23 -21 47 -21 53 0 5 -3 10 -7 10 -5 0 -24 15 -43 33 -34 32 -114 70 -175
83 -16 3 -37 8 -45 10 -8 2 -22 -1 -30 -6z m-44 -121 c8 -7 14 -6 19 1 4 6 29
8 66 5 46 -4 73 -13 116 -41 30 -19 57 -44 60 -55 3 -10 9 -19 14 -19 14 0 48
-85 70 -172 18 -74 19 -90 8 -172 -6 -50 -17 -104 -25 -121 -7 -16 -16 -46
-20 -65 -3 -19 -17 -55 -30 -80 -24 -47 -121 -156 -131 -147 -2 3 -24 -3 -47
-12 -23 -10 -63 -19 -90 -19 -52 -1 -160 30 -187 54 -8 8 -20 14 -25 14 -19 0
-87 88 -105 134 -45 120 -56 357 -19 427 6 10 8 19 5 19 -4 0 -3 6 2 13 4 6 8
14 9 17 5 28 31 68 69 106 25 26 45 44 45 40 0 -4 11 4 25 18 13 13 40 29 60
36 19 6 35 15 35 19 0 12 62 11 76 0z m404 -1232 c0 -39 2 -156 4 -259 l4
-186 -32 -5 c-17 -3 -62 -14 -101 -26 -38 -11 -82 -21 -96 -21 -50 0 -130 51
-169 110 -8 12 -34 33 -57 47 -24 14 -51 38 -60 53 -9 16 -28 34 -41 42 -14 7
-43 36 -64 63 -21 28 -45 57 -53 66 -14 14 -11 17 24 27 21 7 54 12 73 12 19
0 38 4 44 8 9 8 29 15 134 42 25 7 56 20 70 30 14 9 45 20 70 24 111 15 173
28 210 43 14 6 28 9 32 7 3 -2 7 -37 8 -77z m-708 -209 c18 -22 57 -64 86 -92
28 -29 52 -57 52 -64 0 -7 7 -12 15 -12 8 0 20 -9 27 -20 7 -11 18 -20 24 -20
13 0 74 -65 74 -80 0 -5 7 -10 15 -10 7 0 18 -6 22 -14 4 -8 24 -27 44 -43 33
-26 44 -29 100 -27 35 1 91 10 124 19 106 30 125 33 130 24 9 -13 6 -362 -2
-370 -5 -4 -27 -10 -51 -13 -24 -3 -60 -10 -80 -15 -20 -6 -60 -12 -88 -14
-28 -2 -55 -6 -60 -9 -10 -6 -63 -15 -138 -24 -28 -3 -54 -7 -58 -10 -16 -10
-191 -13 -209 -3 -14 7 -18 18 -14 44 5 46 6 107 0 245 -6 142 -7 151 -39 332
-27 155 -32 218 -17 218 6 0 25 -19 43 -42z m730 -828 c1 -8 2 -49 3 -90 3
-120 15 -334 21 -351 5 -19 -21 -26 -121 -35 -33 -2 -80 -9 -105 -14 -25 -5
-63 -11 -85 -13 -22 -2 -46 -6 -53 -11 -7 -4 -20 -5 -30 -2 -9 3 -34 1 -55 -3
-62 -15 -90 -2 -104 49 -7 24 -17 48 -23 54 -5 5 -10 16 -10 22 0 7 -16 47
-35 89 -20 43 -39 91 -42 109 -3 17 -9 36 -13 41 -4 6 -11 25 -15 43 -8 38 -6
39 85 46 36 2 88 9 116 15 28 5 71 12 95 15 92 12 109 15 116 19 5 3 28 6 53
8 25 1 49 5 55 8 5 3 30 7 55 9 25 2 47 5 48 7 10 10 42 -1 44 -15z m-572
-640 c12 0 19 -9 22 -28 5 -36 -16 -36 -54 0 -27 25 -27 44 0 33 7 -3 22 -5
32 -5z"/>
</g>
</svg>
