<?xml version="1.0" standalone="no"?>
<!DOCTYPE svg PUBLIC "-//W3C//DTD SVG 20010904//EN"
 "http://www.w3.org/TR/2001/REC-SVG-20010904/DTD/svg10.dtd">
<svg version="1.0" xmlns="http://www.w3.org/2000/svg"
 width="371.000000pt" height="395.000000pt" viewBox="0 0 371.000000 395.000000"
 preserveAspectRatio="xMidYMid meet">
<metadata>
Created by potrace 1.16, written by Peter Selinger 2001-2019
</metadata>
<g transform="translate(0.000000,395.000000) scale(0.100000,-0.100000)"
fill="#000000" stroke="none">
<path d="M1624 3864 c-23 -7 -52 -17 -64 -24 -26 -14 -76 -121 -85 -182 -3
-24 -8 -52 -10 -63 -2 -11 -4 -37 -4 -58 l-1 -38 -35 67 c-20 38 -43 77 -53
87 -20 23 -89 57 -114 57 -21 0 -83 -53 -102 -88 -32 -58 -38 -81 -50 -180 -9
-82 -14 -100 -24 -90 -6 6 -12 17 -12 23 -1 5 -14 25 -29 43 -58 67 -162 47
-228 -43 -42 -57 -74 -207 -76 -350 -2 -92 8 -288 18 -346 2 -13 6 -51 9 -84
4 -33 11 -91 16 -130 14 -105 18 -156 30 -325 6 -85 15 -182 21 -215 6 -33 15
-134 19 -225 11 -216 33 -391 63 -515 14 -55 34 -139 45 -187 28 -121 150
-367 236 -474 75 -94 124 -137 223 -193 142 -80 208 -97 596 -146 90 -12 235
34 325 103 23 18 58 40 76 50 39 21 48 29 107 102 24 30 57 89 74 130 16 41
36 81 43 89 22 22 52 99 52 131 0 15 7 33 14 40 14 11 43 77 50 110 2 8 6 22
9 30 3 8 8 40 11 70 3 30 9 69 12 85 16 85 35 396 29 485 -11 179 -6 381 15
555 11 99 23 207 26 240 5 64 -14 222 -28 231 -4 3 -8 13 -8 22 0 9 -14 32
-31 50 -23 24 -38 32 -65 32 -31 0 -38 -5 -80 -72 -25 -39 -52 -90 -59 -112
-36 -109 -55 -157 -90 -221 -21 -38 -53 -101 -72 -139 -36 -73 -47 -77 -49
-18 -2 63 -16 224 -24 277 -4 27 -5 91 -2 140 12 205 -3 596 -26 655 -3 8 -7
26 -8 40 -6 54 -37 188 -55 235 -10 28 -19 59 -19 69 0 22 -40 96 -52 96 -4 0
-8 6 -8 14 0 21 -47 55 -87 62 -19 4 -53 1 -74 -5 -45 -14 -128 -67 -136 -87
-6 -16 -23 -19 -23 -4 0 22 -95 173 -118 188 -30 20 -66 21 -118 6z m88 -83
c6 -1 26 -33 69 -109 11 -18 19 -39 19 -46 0 -7 8 -40 19 -72 10 -33 22 -82
25 -109 4 -28 8 -61 11 -75 15 -84 44 -468 50 -685 7 -203 15 -236 57 -233 27
2 33 14 30 58 -4 51 -13 151 -17 185 -4 32 -16 248 -17 315 0 8 -7 83 -16 165
-9 83 -16 214 -16 291 -1 139 -1 142 24 163 65 57 146 68 179 24 12 -16 25
-33 30 -39 9 -10 26 -67 62 -194 21 -76 38 -179 44 -270 4 -52 9 -98 12 -103
10 -18 13 -262 4 -383 -7 -84 -7 -162 -1 -216 9 -76 12 -189 9 -293 -2 -43 19
-171 51 -322 11 -51 20 -107 20 -125 0 -50 46 -88 67 -55 4 6 11 102 14 212 4
110 8 207 11 215 7 26 70 153 102 205 33 53 76 151 76 173 0 17 64 140 89 171
l19 25 20 -34 c12 -18 24 -58 28 -87 8 -70 -4 -251 -23 -333 -13 -52 -16 -149
-19 -480 -1 -228 -5 -426 -8 -440 -6 -22 -13 -72 -31 -195 -2 -16 -9 -54 -14
-84 -6 -29 -11 -69 -11 -87 0 -20 -8 -41 -19 -51 -10 -10 -24 -35 -29 -56 -6
-21 -24 -59 -41 -85 -16 -26 -37 -63 -45 -82 -26 -62 -105 -164 -169 -218 -52
-45 -164 -108 -242 -137 -35 -13 -173 -17 -207 -6 -18 5 -64 13 -103 17 -38 3
-73 8 -76 9 -3 2 -28 7 -55 11 -81 11 -85 12 -190 64 -122 62 -198 124 -274
225 -48 64 -74 108 -150 254 -32 61 -64 162 -75 236 -3 22 -12 60 -20 85 -35
112 -54 274 -71 594 -2 54 -7 102 -9 106 -3 4 -11 90 -20 191 -8 101 -19 229
-25 284 -20 188 -31 280 -40 350 -5 39 -11 140 -14 225 -5 201 15 339 60 402
28 40 33 43 74 43 43 0 46 -2 81 -55 55 -81 76 -202 84 -492 1 -42 5 -91 9
-110 3 -18 8 -60 11 -93 6 -63 32 -161 49 -183 5 -7 20 -12 34 -10 20 2 25 9
27 36 2 19 -4 41 -15 55 -9 12 -21 37 -24 55 -4 17 -12 32 -17 32 -6 0 -8 4
-5 9 3 5 -1 32 -10 61 -16 54 -11 69 22 70 6 0 9 12 8 28 -39 338 -40 618 -3
742 6 20 23 51 39 70 25 31 30 33 61 24 28 -8 39 -20 66 -72 68 -136 94 -221
108 -353 3 -31 7 -65 9 -75 2 -11 7 -62 10 -114 4 -52 9 -111 11 -130 12 -97
24 -253 24 -314 0 -70 16 -106 47 -106 29 0 37 40 25 125 -7 44 -11 85 -10 90
2 6 0 35 -4 65 -5 30 -10 87 -13 125 -2 39 -6 84 -9 100 -2 17 -9 82 -15 145
-13 147 -19 201 -24 223 -2 9 0 17 5 17 12 0 11 40 -2 79 -9 25 -7 57 6 144
20 130 25 146 61 186 25 29 58 40 99 35 11 -1 23 -3 27 -3z"/>
</g>
</svg>
