<?xml version="1.0" standalone="no"?>
<!DOCTYPE svg PUBLIC "-//W3C//DTD SVG 20010904//EN"
 "http://www.w3.org/TR/2001/REC-SVG-20010904/DTD/svg10.dtd">
<svg version="1.0" xmlns="http://www.w3.org/2000/svg"
 width="529.000000pt" height="485.000000pt" viewBox="0 0 529.000000 485.000000"
 preserveAspectRatio="xMidYMid meet">
<metadata>
Created by potrace 1.16, written by Peter Selinger 2001-2019
</metadata>
<g transform="translate(0.000000,485.000000) scale(0.100000,-0.100000)"
fill="#000000" stroke="none">
<path d="M2292 4680 c-40 -4 -80 -11 -89 -15 -10 -3 -47 -10 -83 -14 -36 -5
-97 -21 -135 -35 -39 -15 -101 -39 -140 -53 -38 -15 -82 -35 -97 -45 -14 -10
-29 -18 -33 -18 -12 0 -169 -117 -190 -142 -100 -118 -126 -200 -90 -280 8
-18 19 -52 25 -74 10 -41 32 -67 135 -159 22 -20 56 -45 75 -55 32 -17 231
-89 305 -111 17 -4 116 -10 220 -12 160 -4 204 -1 280 15 50 11 103 21 120 23
16 2 48 12 70 21 104 44 131 56 145 65 8 5 22 12 30 16 68 30 203 152 221 200
29 78 -7 172 -101 263 -79 76 -206 113 -355 104 -49 -3 -118 -6 -152 -8 l-61
-3 19 36 c24 45 24 46 -3 71 -38 35 -52 27 -118 -69 -19 -28 -39 -51 -44 -51
-13 0 -96 -92 -96 -107 0 -21 23 -63 34 -64 67 -3 139 -13 174 -25 23 -8 48
-14 55 -14 7 0 23 -9 36 -19 21 -16 26 -16 57 -2 41 19 56 65 27 86 -19 14
-103 41 -115 37 -5 -1 -8 2 -8 8 0 6 6 11 13 11 6 1 26 4 42 6 17 3 84 6 150
7 96 1 132 -3 179 -19 105 -36 183 -128 169 -200 -7 -33 -65 -105 -95 -117
-11 -4 -39 -21 -63 -38 -24 -16 -46 -30 -48 -30 -2 0 -26 -10 -53 -22 -27 -13
-53 -23 -59 -24 -5 0 -18 -4 -27 -7 -26 -10 -52 -18 -58 -19 -3 0 -13 -4 -22
-9 -37 -20 -266 -27 -451 -15 -60 4 -107 14 -152 31 -35 14 -73 28 -84 30 -11
2 -29 8 -40 14 -11 6 -29 11 -41 11 -76 0 -250 201 -250 288 0 34 62 132 117
184 33 32 78 59 198 122 88 45 249 97 360 116 142 23 170 25 250 16 33 -4 106
-8 163 -10 91 -4 103 -2 112 14 13 25 3 49 -24 54 -211 39 -304 47 -404 36z"/>
<path d="M3910 4284 c0 -20 -12 -69 -26 -108 -14 -39 -23 -82 -21 -94 3 -13 0
-39 -6 -57 -8 -28 -13 -32 -27 -25 -11 6 -25 4 -41 -4 -13 -7 -28 -14 -34 -15
-24 -8 -44 -29 -61 -64 -10 -20 -21 -37 -26 -37 -4 0 -8 -22 -8 -49 0 -56 7
-61 76 -61 41 0 49 5 104 60 33 32 60 63 61 67 0 4 2 28 4 53 7 90 22 221 27
226 3 3 21 -4 39 -14 29 -16 58 -19 122 -13 4 1 7 11 7 24 0 19 -6 22 -43 24
-45 3 -77 29 -77 65 0 33 -19 58 -45 58 -22 0 -25 -4 -25 -36z m-66 -353 c12
-1 -21 -50 -56 -82 -31 -28 -68 -29 -68 -2 0 22 28 71 47 82 10 6 29 9 43 7
14 -3 29 -5 34 -5z"/>
<path d="M547 3936 c-27 -41 -51 -129 -50 -186 1 -30 2 -80 2 -110 1 -41 -3
-57 -15 -65 -9 -5 -38 -25 -65 -42 -26 -18 -54 -34 -61 -35 -7 -2 -27 -25 -45
-51 l-31 -49 16 -43 c11 -31 23 -46 41 -51 14 -4 29 -7 32 -6 4 1 19 3 34 6
39 7 104 54 121 88 8 15 22 28 32 28 13 0 14 2 3 9 -10 6 -11 20 -6 52 4 24 6
85 5 136 -1 103 -9 93 85 108 22 4 46 11 53 17 17 15 15 48 -3 48 -8 0 -15 -4
-15 -9 0 -5 -8 -11 -17 -13 -18 -4 -103 9 -110 16 -3 2 1 23 7 46 10 39 13 41
28 27 24 -22 93 -36 122 -25 37 14 60 38 60 64 0 26 -19 26 -44 1 -28 -27 -58
-20 -97 23 -42 46 -60 50 -82 16z m-50 -459 c-6 -70 -35 -106 -98 -121 -21 -5
-28 -1 -38 20 -21 46 -8 62 104 126 17 9 31 17 33 18 1 0 1 -19 -1 -43z"/>
<path d="M3315 3476 c-3 -9 -8 -24 -12 -33 -3 -10 -7 -25 -9 -33 -23 -129 -29
-158 -41 -175 -7 -11 -13 -28 -13 -38 0 -16 -22 -68 -90 -212 -24 -52 -55
-138 -52 -147 1 -4 -9 -24 -23 -44 -14 -20 -30 -54 -35 -75 -6 -23 -17 -39
-25 -39 -8 0 -37 -10 -63 -23 -26 -13 -69 -29 -95 -36 -26 -8 -52 -20 -58 -27
-6 -8 -17 -14 -23 -14 -7 0 -52 -25 -102 -56 -98 -62 -124 -71 -237 -78 -85
-6 -97 1 -89 55 4 24 9 29 33 29 16 0 37 4 47 9 144 70 167 91 233 208 35 62
52 149 55 288 l3 129 -45 86 c-29 57 -54 92 -76 106 -52 33 -157 62 -228 63
-86 2 -192 -28 -205 -57 -5 -12 -18 -25 -28 -28 -52 -16 -147 -156 -147 -216
0 -13 -4 -28 -9 -34 -28 -28 -37 -249 -14 -322 9 -29 20 -52 25 -52 4 0 8 -9
8 -19 0 -45 144 -151 207 -151 28 0 39 -22 41 -82 2 -47 1 -48 -28 -48 -33 0
-113 -20 -205 -51 -49 -16 -70 -19 -92 -12 -15 6 -55 9 -88 7 -33 -1 -64 1
-70 5 -9 7 -204 61 -219 61 -8 0 -55 94 -72 143 -8 22 -31 65 -52 94 -20 30
-44 66 -52 81 -27 47 -62 106 -87 143 -23 35 -23 37 -6 67 17 29 17 32 1 48
-14 14 -21 15 -46 5 -16 -7 -36 -12 -43 -11 -30 5 -40 -1 -50 -27 -12 -32 7
-72 52 -110 15 -13 45 -59 68 -104 37 -72 76 -135 92 -149 3 -3 12 -23 21 -45
9 -22 28 -66 42 -97 14 -31 26 -65 26 -75 0 -36 24 -53 90 -64 36 -6 106 -23
155 -39 65 -20 114 -28 175 -29 47 -1 88 -5 91 -9 4 -4 23 -86 44 -182 32
-148 38 -195 39 -305 l1 -130 -35 -50 c-19 -27 -45 -71 -57 -97 -12 -27 -27
-48 -32 -48 -6 0 -37 -39 -68 -87 -32 -49 -61 -89 -65 -91 -5 -2 -8 -10 -8
-17 0 -7 -7 -26 -15 -41 -8 -16 -15 -37 -15 -46 0 -10 -4 -18 -8 -18 -4 0 -21
-38 -37 -84 -28 -80 -28 -86 -12 -103 14 -16 29 -18 102 -16 47 1 89 4 93 7
19 11 173 18 185 8 9 -8 11 -30 7 -80 -4 -38 -6 -102 -4 -143 3 -92 -3 -127
-25 -132 -14 -4 -14 -5 2 -6 12 -1 18 -10 19 -31 1 -16 3 -42 5 -57 17 -146
17 -142 -8 -151 -13 -5 -54 -12 -91 -16 -51 -5 -83 -15 -135 -45 -37 -21 -78
-42 -91 -45 -42 -14 -50 -95 -10 -108 21 -7 79 12 113 37 16 12 41 28 54 35
38 19 171 50 219 50 24 0 49 6 56 13 12 12 13 65 1 222 -17 213 -13 462 7 481
2 1 52 5 112 9 61 3 114 8 118 11 5 3 26 3 48 -1 40 -7 41 -8 57 -85 2 -8 7
-72 13 -142 6 -70 17 -164 26 -210 9 -46 16 -87 16 -93 -5 -72 -4 -78 19 -97
31 -25 66 -39 109 -45 19 -3 39 -9 45 -14 5 -5 19 -9 31 -9 13 0 25 -4 28 -9
3 -4 27 -14 53 -21 27 -7 54 -18 61 -24 22 -16 75 -8 95 15 39 47 11 94 -58
98 -22 1 -43 7 -47 14 -4 7 -8 9 -8 5 0 -4 -19 -1 -42 7 -24 7 -76 23 -115 35
l-73 23 0 41 c0 22 -7 63 -15 90 -8 27 -17 101 -21 165 -3 64 -7 130 -10 146
-2 17 -7 51 -11 78 -7 54 -19 48 127 54 41 1 104 4 138 6 103 6 105 29 22 197
-33 67 -71 152 -84 188 -13 37 -35 92 -49 122 -77 172 -90 256 -86 572 1 128
-1 250 -6 271 -9 43 -11 41 95 110 58 38 237 107 278 107 28 0 72 41 72 67 0
15 15 58 34 97 39 83 68 156 61 156 -3 0 1 10 10 23 8 13 13 26 10 29 -3 3 1
11 10 18 8 7 15 21 15 32 0 10 9 36 20 58 50 99 124 352 117 401 -3 20 -11 25
-41 27 -26 2 -38 -1 -41 -12z m-830 -179 c48 -14 94 -57 120 -112 31 -63 32
-228 4 -314 -30 -91 -59 -133 -124 -181 -75 -55 -102 -63 -191 -57 -133 11
-218 77 -241 188 -17 84 -10 170 21 270 23 76 33 93 76 133 27 25 58 46 68 46
10 0 29 11 42 25 12 13 26 23 29 20 4 -2 12 0 19 4 13 8 116 -5 177 -22z m96
-991 c6 -23 10 -81 9 -131 -8 -264 5 -519 28 -548 5 -7 15 -30 21 -52 7 -22
15 -47 18 -55 4 -8 7 -17 8 -20 0 -3 13 -30 28 -60 15 -30 30 -67 32 -82 3
-16 18 -54 34 -85 51 -102 73 -155 66 -161 -4 -4 -57 -7 -119 -8 -62 -1 -117
-4 -122 -7 -6 -3 -52 -7 -104 -8 -52 -1 -120 -6 -150 -10 -30 -5 -91 -10 -135
-13 -44 -2 -149 -12 -233 -21 -84 -10 -155 -15 -158 -13 -14 15 68 179 157
311 54 82 99 152 99 157 0 5 20 34 44 64 25 30 43 56 41 58 -2 2 -11 82 -19
178 -9 96 -22 202 -30 235 -15 63 -32 148 -40 202 -5 29 -2 33 27 42 48 14
125 30 187 37 30 3 70 11 90 17 19 7 74 12 123 13 l87 0 11 -40z"/>
<path d="M2872 3344 c-8 -17 -8 -25 3 -34 15 -12 48 -127 43 -149 -2 -8 5 -17
15 -19 17 -4 19 2 21 90 1 15 7 33 14 39 14 15 16 39 2 39 -5 0 -7 -6 -4 -14
3 -8 1 -17 -5 -20 -5 -4 -16 14 -23 41 -11 37 -18 48 -35 49 -13 1 -25 -8 -31
-22z"/>
<path d="M3447 3343 c-2 -5 -4 -44 -4 -88 -1 -44 -8 -109 -17 -143 -19 -76
-20 -82 -3 -82 23 0 72 152 80 248 3 43 1 55 -14 62 -21 12 -36 13 -42 3z"/>
<path d="M2779 3288 c-6 -28 -5 -43 6 -66 14 -26 23 -78 24 -134 1 -31 30 -40
32 -10 1 9 3 28 5 42 13 99 -3 162 -44 168 -12 2 -22 2 -23 0z"/>
<path d="M3556 3223 c-3 -10 -5 -41 -5 -68 1 -46 -4 -91 -17 -137 -3 -11 0
-18 8 -18 21 0 61 113 62 178 1 51 -1 57 -21 60 -14 2 -23 -3 -27 -15z"/>
<path d="M4099 3236 c-4 -16 -7 -26 -9 -28 -5 -7 -11 -45 -11 -66 1 -13 -8
-43 -19 -67 -17 -38 -25 -83 -29 -161 -1 -17 -10 -23 -38 -29 -21 -4 -60 -18
-86 -33 -84 -45 -122 -158 -69 -204 21 -19 60 -29 67 -17 3 4 20 8 38 7 24 0
42 9 73 39 52 50 77 131 75 248 -1 44 2 75 6 69 15 -20 54 -35 75 -28 11 3 38
18 59 33 30 20 38 31 34 48 -4 17 2 26 25 38 18 9 30 23 30 35 0 24 1 24 -36
5 -34 -17 -70 -11 -78 13 -16 49 -54 97 -79 100 -15 2 -28 1 -28 -2z m122
-176 c21 0 21 -1 5 -19 -34 -38 -55 -33 -80 18 -30 63 -22 78 19 35 18 -19 43
-34 56 -34z m-195 -255 c-18 -70 -42 -100 -88 -109 -15 -2 -31 -7 -35 -9 -5
-3 -13 5 -19 18 -24 51 49 124 125 125 20 0 22 -4 17 -25z"/>
<path d="M788 2873 c-18 -5 -29 -33 -25 -68 1 -11 -4 -72 -12 -136 l-14 -116
-28 0 c-15 0 -38 -7 -51 -17 -13 -9 -37 -27 -55 -40 -51 -37 -80 -78 -86 -120
-7 -50 7 -80 48 -102 29 -15 39 -16 74 -5 56 16 146 107 156 158 5 21 10 45
12 53 7 22 6 39 -2 102 -4 31 -4 77 -1 102 l7 46 21 -20 c25 -23 55 -25 81 -5
26 19 18 50 -13 50 -21 0 -29 9 -49 63 -14 34 -29 61 -35 61 -6 -1 -19 -3 -28
-6z m-53 -393 c23 -26 12 -53 -50 -119 -50 -54 -74 -57 -102 -15 -22 35 -4 71
60 116 61 43 68 45 92 18z"/>
<path d="M4763 2818 c-9 -18 -16 -36 -15 -40 2 -8 -16 -164 -23 -193 -3 -14
-18 -25 -47 -33 -71 -21 -178 -132 -178 -185 0 -7 9 -23 20 -35 28 -30 76 -28
122 3 20 14 40 25 43 25 3 0 11 5 18 10 7 6 21 18 33 28 27 22 45 79 44 134
-2 60 11 194 21 209 6 10 12 9 26 -7 10 -11 29 -28 42 -37 21 -14 27 -14 52
-1 26 13 69 78 69 104 0 23 -36 7 -51 -22 -8 -17 -20 -33 -25 -35 -6 -2 -28
21 -50 51 -47 66 -75 73 -101 24z m-43 -337 c0 -22 -8 -36 -32 -53 -18 -12
-40 -30 -48 -39 -22 -25 -56 -33 -63 -15 -7 17 2 56 13 56 4 0 20 12 36 28 27
25 68 50 87 51 4 1 7 -12 7 -28z"/>
<path d="M1128 2737 c-15 -12 -15 -16 2 -63 21 -60 46 -101 80 -131 51 -46 60
-20 18 53 -17 32 -37 78 -44 103 -12 48 -28 59 -56 38z"/>
<path d="M3445 2670 c-3 -5 -1 -10 4 -10 6 0 11 5 11 10 0 6 -2 10 -4 10 -3 0
-8 -4 -11 -10z"/>
<path d="M1035 2601 c-10 -33 35 -113 75 -133 72 -35 95 -13 36 34 -20 16 -40
45 -48 70 -16 48 -51 65 -63 29z"/>
<path d="M3397 1533 c-16 -15 -6 -53 19 -69 28 -19 59 -74 80 -145 16 -53 38
-69 54 -38 26 47 -82 259 -131 259 -8 0 -19 -3 -22 -7z"/>
<path d="M3002 1438 c-15 -15 -16 -58 -2 -58 22 0 69 -85 99 -180 26 -78 36
-100 51 -100 28 0 42 54 19 77 -6 6 -21 40 -34 76 -27 79 -80 174 -104 187
-12 6 -22 5 -29 -2z"/>
<path d="M3192 1428 c-14 -14 -16 -68 -3 -68 15 0 64 -72 87 -129 26 -63 34
-69 57 -43 16 17 14 24 -28 107 -25 49 -49 91 -54 95 -4 3 -13 15 -20 28 -13
25 -22 27 -39 10z"/>
<path d="M1643 1373 c-4 -10 -17 -32 -30 -49 -13 -17 -31 -55 -42 -85 -28 -81
-54 -132 -76 -151 -20 -17 -20 -17 2 -39 23 -24 53 -20 53 7 0 31 81 217 111
253 34 42 36 56 9 71 -16 9 -22 7 -27 -7z"/>
<path d="M1157 1358 c-43 -40 -83 -166 -63 -194 11 -14 16 -15 35 -4 19 9 22
18 18 43 -5 34 28 112 57 136 9 8 16 20 16 27 0 22 -36 17 -63 -8z"/>
<path d="M1438 1363 c-22 -26 -36 -55 -69 -146 -32 -89 -37 -142 -14 -151 20
-7 45 31 45 70 0 45 22 112 54 162 27 43 31 72 10 79 -6 2 -17 -4 -26 -14z"/>
</g>
</svg>
