<?xml version="1.0" standalone="no"?>
<!DOCTYPE svg PUBLIC "-//W3C//DTD SVG 20010904//EN"
 "http://www.w3.org/TR/2001/REC-SVG-20010904/DTD/svg10.dtd">
<svg version="1.0" xmlns="http://www.w3.org/2000/svg"
 width="481.000000pt" height="437.000000pt" viewBox="0 0 481.000000 437.000000"
 preserveAspectRatio="xMidYMid meet">
<metadata>
Created by potrace 1.16, written by Peter Selinger 2001-2019
</metadata>
<g transform="translate(0.000000,437.000000) scale(0.100000,-0.100000)"
fill="#000000" stroke="none">
<path d="M2273 4263 c-3 -8 -13 -13 -22 -12 -25 4 -101 -12 -101 -21 0 -7 -17
-11 -85 -23 -11 -2 -31 -10 -45 -17 -14 -8 -47 -16 -75 -18 -85 -6 -268 -58
-285 -81 -3 -3 -18 -15 -33 -24 -36 -23 -65 -47 -86 -69 -21 -24 -40 -22 -61
5 -20 25 -140 85 -186 93 -15 3 -32 8 -37 11 -5 3 -24 7 -41 9 -17 2 -42 5
-56 7 -14 2 -74 0 -134 -5 -86 -6 -122 -14 -176 -38 -38 -17 -74 -30 -80 -30
-7 0 -32 -17 -56 -39 -24 -21 -72 -55 -106 -75 -42 -24 -68 -47 -77 -68 -8
-17 -26 -45 -40 -62 -15 -17 -42 -60 -60 -96 -19 -36 -40 -72 -47 -80 -7 -8
-25 -51 -40 -95 -22 -64 -27 -99 -28 -175 -1 -147 6 -220 27 -275 10 -27 18
-52 18 -55 -2 -10 22 -75 30 -85 5 -5 9 -16 9 -24 0 -8 17 -37 39 -65 21 -28
47 -64 57 -81 10 -16 21 -32 25 -35 4 -3 19 -14 33 -25 15 -11 43 -35 61 -52
19 -18 41 -33 50 -33 8 0 15 -5 15 -11 0 -5 5 -7 11 -3 6 3 14 1 18 -5 4 -6
25 -13 47 -15 79 -6 92 -14 97 -59 12 -108 37 -214 67 -291 29 -77 52 -145 52
-161 0 -5 3 -14 7 -20 4 -5 18 -43 31 -82 12 -40 26 -73 31 -73 5 0 26 -24 48
-54 22 -29 57 -64 78 -77 21 -13 44 -29 51 -36 12 -12 68 -44 74 -43 11 1 68
-26 68 -32 0 -4 8 -8 19 -8 10 0 29 -8 42 -19 13 -10 49 -27 79 -38 53 -19
107 -73 95 -93 -3 -4 5 -18 18 -31 12 -13 36 -42 52 -64 16 -21 38 -48 50 -60
24 -24 85 -58 85 -48 0 5 6 1 13 -7 7 -8 28 -24 48 -35 56 -31 124 -77 127
-86 2 -5 8 -9 13 -9 14 0 131 -81 146 -101 6 -8 30 -21 53 -28 54 -16 100 -67
117 -128 15 -52 35 -169 57 -328 18 -133 17 -117 20 -227 3 -106 13 -128 55
-127 50 1 57 10 56 69 -3 89 -17 233 -26 258 -5 12 -11 51 -15 85 -3 34 -8 76
-11 92 -3 17 -7 53 -8 81 -2 29 -9 69 -16 90 -7 22 -14 41 -14 44 -11 41 -58
129 -67 124 -4 -3 -8 1 -8 8 0 14 -76 63 -97 63 -7 0 -18 6 -25 13 -6 6 -18
12 -25 12 -7 0 -13 4 -13 10 0 5 -14 17 -32 26 -18 9 -38 22 -45 28 -32 29
-43 36 -52 36 -5 0 -16 6 -23 13 -13 13 -39 28 -147 83 -70 36 -161 125 -161
158 0 8 -6 16 -12 18 -7 3 -1 12 16 23 22 14 29 16 36 6 8 -14 128 -11 180 4
14 4 35 7 48 6 27 -1 87 23 106 42 26 25 28 55 7 74 -18 15 -21 29 -21 88 0
39 -5 76 -11 82 -6 6 -12 40 -14 77 -6 91 -32 263 -57 371 -11 50 -23 105 -25
123 -3 18 -9 35 -14 38 -5 3 -9 13 -9 23 0 10 -15 53 -34 97 -19 43 -37 105
-40 137 -3 32 -8 62 -11 67 -3 4 4 29 14 54 22 51 47 63 106 52 61 -12 95 -59
146 -208 58 -168 67 -191 97 -256 16 -35 25 -70 24 -100 0 -35 6 -55 23 -78
13 -17 22 -34 19 -37 -3 -3 -1 -20 4 -39 6 -18 16 -52 22 -75 12 -47 34 -60
73 -42 35 16 41 57 16 114 -11 25 -17 50 -14 55 3 5 -3 26 -14 47 -10 21 -24
65 -30 96 -11 58 -17 74 -76 203 -19 39 -40 93 -48 120 -9 27 -25 81 -37 121
-12 39 -30 80 -40 91 -18 19 -17 72 0 72 5 0 12 9 15 21 4 11 16 25 28 30 12
5 33 16 47 24 64 37 150 -11 150 -84 0 -10 6 -24 14 -30 8 -7 17 -24 21 -39 4
-15 13 -34 21 -43 15 -17 34 -81 54 -184 6 -33 24 -96 40 -140 28 -81 41 -134
46 -190 4 -51 16 -94 28 -104 8 -7 23 -5 47 7 33 16 34 19 34 72 0 30 -4 58
-9 61 -4 4 -10 17 -11 30 -4 32 -24 107 -35 128 -26 50 -90 283 -90 326 0 14
-4 25 -8 25 -11 0 -42 66 -42 90 0 35 28 39 82 11 53 -27 76 -54 97 -111 8
-19 24 -57 37 -85 44 -94 92 -240 104 -315 7 -41 17 -81 22 -88 6 -7 18 -27
28 -45 21 -39 51 -46 79 -18 28 28 26 49 -8 123 -16 35 -33 81 -37 103 -3 22
-10 45 -14 50 -4 6 -7 17 -7 25 0 8 -9 35 -21 60 -16 35 -52 142 -52 156 0 4
63 24 75 24 6 0 43 -48 82 -107 79 -122 103 -165 103 -188 0 -8 4 -15 8 -15 5
0 9 -6 9 -12 1 -20 24 -110 36 -138 14 -33 17 -48 20 -96 2 -33 11 -49 45 -82
23 -23 42 -50 42 -62 0 -11 5 -20 11 -20 6 0 8 -7 5 -16 -7 -19 15 -74 37 -93
10 -7 17 -23 17 -35 0 -12 5 -27 10 -32 16 -16 20 -65 20 -244 0 -167 -5 -226
-21 -236 -5 -3 -9 -14 -9 -25 0 -10 -4 -19 -10 -19 -5 0 -10 -9 -10 -19 0 -11
-5 -23 -10 -26 -6 -4 -8 -9 -6 -13 2 -4 -7 -27 -20 -52 -12 -25 -23 -41 -24
-35 0 5 -6 0 -14 -11 -13 -18 -27 -82 -39 -173 -5 -33 29 -170 47 -190 8 -9
16 -27 19 -41 10 -66 32 -150 38 -150 8 0 22 -103 32 -242 3 -35 10 -52 28
-67 27 -23 66 -20 87 6 14 20 16 65 3 78 -6 6 -13 26 -16 45 -3 19 -10 59 -15
89 -5 29 -7 57 -4 62 3 5 1 9 -5 9 -6 0 -13 17 -16 38 -4 20 -11 48 -17 62
-14 32 -15 34 -27 100 -5 30 -19 82 -30 114 -15 41 -20 75 -17 107 6 61 16 99
26 99 4 0 13 14 19 30 5 17 15 30 21 30 6 0 8 5 4 11 -3 6 -1 23 6 37 7 15 16
36 20 47 4 11 18 42 31 68 20 42 23 63 23 175 0 70 0 147 -2 172 -1 25 -2 59
-1 75 0 59 -12 150 -22 153 -13 5 -11 32 2 32 12 0 69 60 69 72 0 4 17 24 38
45 66 68 102 112 102 126 0 7 4 17 9 23 4 5 16 32 26 59 9 28 20 57 23 65 6
18 11 38 17 65 2 11 6 31 10 45 17 67 29 188 36 345 3 61 -13 300 -20 314 -6
10 -8 21 -5 24 3 3 1 29 -5 59 -6 29 -12 62 -14 73 -8 48 -29 105 -37 105 -6
0 -10 10 -10 23 0 13 -5 28 -11 34 -6 6 -16 20 -23 31 -28 47 -72 101 -83 102
-7 0 -13 9 -13 20 0 11 -3 20 -7 20 -9 0 -33 49 -33 67 0 7 -4 13 -9 13 -5 0
-12 8 -15 18 -3 9 -26 33 -51 52 -24 19 -44 39 -45 43 0 10 -82 87 -92 87 -5
0 -8 7 -8 15 0 8 -6 15 -14 15 -8 0 -54 30 -102 66 -56 42 -110 74 -147 86
-33 11 -69 25 -81 33 -12 7 -30 11 -40 9 -11 -1 -24 0 -29 3 -6 3 -24 7 -41 8
-17 1 -56 8 -86 15 -32 7 -134 13 -243 15 -154 2 -190 -1 -194 -12z m437 -118
c25 -4 53 -12 64 -17 10 -6 41 -12 69 -14 27 -2 55 -8 61 -12 6 -5 27 -15 46
-22 63 -23 182 -104 249 -167 35 -35 67 -63 69 -63 14 0 102 -109 108 -132 3
-16 10 -28 15 -28 5 0 15 -15 23 -32 7 -18 27 -46 44 -63 17 -16 32 -35 32
-41 0 -6 7 -17 15 -24 20 -17 65 -107 65 -130 0 -10 4 -22 10 -25 5 -3 9 -16
9 -28 0 -12 7 -58 15 -102 8 -44 14 -113 12 -152 -2 -41 1 -73 6 -73 6 0 7
-37 5 -87 -3 -49 -6 -104 -7 -123 -4 -82 -20 -200 -29 -217 -5 -10 -16 -46
-25 -81 -27 -106 -69 -181 -130 -231 -10 -9 -27 -24 -38 -33 -10 -10 -22 -18
-28 -18 -5 0 -10 -9 -10 -20 0 -11 -4 -20 -10 -20 -12 0 -80 135 -80 159 0 11
-6 21 -14 24 -8 3 -17 21 -21 39 -3 18 -14 51 -24 73 -10 22 -24 60 -32 85 -7
25 -16 49 -21 55 -4 5 -8 17 -8 27 0 10 -4 18 -8 18 -5 0 -9 6 -9 13 0 17 -92
176 -116 200 -10 10 -23 32 -29 47 -10 29 -75 70 -112 70 -17 0 -66 -27 -77
-43 -11 -16 -44 -2 -47 20 -2 12 -10 27 -18 33 -8 7 -14 19 -14 27 0 17 -24
43 -39 43 -5 0 -14 8 -19 17 -6 9 -25 19 -43 21 -114 14 -125 14 -138 -2 -19
-22 -26 -20 -63 18 -21 21 -53 40 -86 49 -48 15 -57 15 -105 -1 -28 -9 -65
-29 -82 -44 -16 -16 -37 -30 -45 -33 -8 -3 -25 -28 -37 -56 -20 -45 -24 -49
-42 -39 -31 16 -113 14 -147 -3 -31 -16 -84 -77 -84 -96 0 -6 -4 -11 -8 -11
-5 0 -9 -23 -11 -52 -1 -28 -5 -56 -7 -60 -3 -5 1 -23 9 -41 9 -18 17 -54 18
-82 2 -27 11 -67 21 -87 10 -20 18 -43 18 -50 0 -8 7 -24 16 -36 8 -12 13 -22
9 -22 -3 0 1 -13 10 -30 8 -16 15 -38 15 -50 0 -11 5 -20 10 -20 6 0 10 -6 9
-12 -1 -7 1 -24 4 -38 4 -14 9 -36 11 -50 3 -14 12 -60 20 -102 8 -42 14 -97
11 -122 -2 -26 1 -46 6 -46 6 0 9 -6 7 -12 -2 -12 7 -80 19 -143 6 -31 6 -36
-1 -95 -2 -19 -4 -41 -5 -47 -1 -7 -8 -13 -17 -13 -8 0 -37 -7 -65 -16 -31
-10 -59 -14 -77 -9 -15 4 -58 8 -96 10 -55 1 -72 5 -83 21 -13 18 -15 18 -27
2 -17 -23 -44 -23 -81 2 -16 11 -39 25 -50 32 -11 7 -22 15 -25 18 -10 10
-139 70 -150 70 -6 0 -17 6 -24 13 -7 6 -25 21 -40 32 -44 32 -86 78 -86 95 0
6 -3 10 -8 10 -12 0 -41 60 -61 130 -23 78 -40 126 -56 160 -7 14 -10 30 -8
37 2 6 -1 14 -6 18 -6 3 -11 16 -11 29 0 12 -5 27 -12 34 -6 6 -13 33 -15 59
-1 27 -6 62 -9 78 -13 65 -19 168 -18 330 0 152 3 176 23 230 19 50 38 119 55
194 1 8 8 17 14 19 7 2 12 13 12 23 0 20 36 98 81 175 63 106 176 233 232 259
20 9 37 21 37 26 0 5 7 9 15 9 8 0 26 12 40 26 l26 25 19 -43 c10 -24 22 -47
26 -51 13 -13 44 -138 50 -197 2 -30 9 -71 14 -90 13 -45 13 -90 0 -90 -5 0
-10 11 -10 23 0 35 -29 87 -48 87 -66 -1 -80 -27 -62 -116 7 -33 13 -68 15
-79 1 -11 5 -29 8 -40 7 -22 17 -87 22 -147 4 -44 24 -68 63 -74 22 -4 35 3
64 33 62 64 128 140 159 183 16 22 36 43 44 47 8 3 15 11 15 18 0 7 4 15 9 17
19 6 12 105 -8 109 -52 11 -91 -1 -91 -26 0 -8 -4 -15 -10 -15 -5 0 -10 -7
-10 -16 0 -22 -40 -85 -50 -79 -4 2 -5 24 -3 47 8 84 9 148 2 148 -4 0 -11 30
-15 68 -3 37 -11 78 -16 92 -5 14 -11 33 -13 43 -7 33 -30 92 -57 146 -26 51
-27 56 -11 73 9 10 20 18 25 18 5 0 19 10 31 23 28 29 151 89 191 93 17 2 49
8 71 13 22 5 94 21 160 36 66 15 131 31 145 37 29 12 75 17 183 22 43 2 80 6
82 8 7 7 186 1 235 -7z m-1506 -146 c22 -6 48 -14 56 -17 8 -3 22 -6 30 -7 20
-3 109 -45 115 -55 7 -11 -43 -50 -62 -50 -8 0 -21 -6 -28 -12 -8 -7 -30 -26
-50 -43 -56 -46 -95 -84 -95 -93 0 -4 -9 -13 -21 -20 -12 -7 -19 -16 -16 -19
3 -2 -1 -12 -9 -21 -36 -42 -84 -113 -84 -126 0 -8 -7 -22 -16 -30 -22 -22
-64 -103 -64 -124 0 -9 -6 -29 -14 -43 -7 -14 -21 -52 -31 -85 -9 -32 -21 -68
-25 -79 -45 -107 -54 -161 -53 -317 l0 -158 -28 0 c-35 0 -139 46 -139 62 0 6
-2 9 -5 6 -11 -10 -114 107 -128 145 -3 9 -14 17 -22 17 -9 0 -14 4 -10 9 3 5
-2 16 -10 24 -8 9 -15 25 -15 37 0 11 -7 34 -15 50 -9 17 -17 45 -18 63 -2 18
-6 37 -9 42 -18 31 -26 172 -13 250 11 68 27 125 36 125 5 0 9 8 9 18 0 9 7
28 15 42 8 14 21 42 31 63 9 20 19 37 23 37 5 0 13 11 19 25 7 14 17 31 22 38
44 52 60 73 60 79 0 4 12 14 28 22 15 8 36 23 48 33 29 26 121 73 142 73 10 0
22 4 28 8 37 33 239 52 318 31z m383 -681 c-3 -8 -6 -5 -6 6 -1 11 2 17 5 13
3 -3 4 -12 1 -19z"/>
</g>
</svg>
