<?xml version="1.0" standalone="no"?>
<!DOCTYPE svg PUBLIC "-//W3C//DTD SVG 20010904//EN"
 "http://www.w3.org/TR/2001/REC-SVG-20010904/DTD/svg10.dtd">
<svg version="1.0" xmlns="http://www.w3.org/2000/svg"
 width="529.000000pt" height="461.000000pt" viewBox="0 0 529.000000 461.000000"
 preserveAspectRatio="xMidYMid meet">
<metadata>
Created by potrace 1.16, written by Peter Selinger 2001-2019
</metadata>
<g transform="translate(0.000000,461.000000) scale(0.100000,-0.100000)"
fill="#000000" stroke="none">
<path d="M4950 4308 c-14 -11 -47 -41 -75 -67 -68 -65 -158 -138 -228 -185
-31 -21 -57 -41 -57 -45 0 -4 -12 -14 -27 -23 -16 -10 -62 -48 -102 -87 -41
-38 -86 -76 -100 -83 -15 -7 -44 -28 -66 -48 -46 -39 -149 -114 -240 -173 -33
-22 -62 -42 -65 -46 -3 -3 -36 -27 -75 -53 -38 -26 -87 -63 -107 -83 -21 -20
-43 -38 -50 -39 -7 -1 -17 -4 -23 -8 -5 -3 -49 -9 -96 -12 -47 -4 -101 -11
-120 -16 -19 -6 -50 -10 -70 -10 -19 0 -44 -7 -55 -15 -10 -8 -28 -15 -39 -15
-11 0 -45 -13 -75 -28 -211 -110 -223 -119 -278 -191 -13 -17 -29 -31 -37 -31
-16 0 -39 -54 -32 -79 4 -17 -5 -19 -116 -25 -87 -5 -124 -11 -131 -22 -9 -12
-16 -9 -43 16 -18 17 -35 30 -39 30 -4 0 -15 7 -24 15 -25 23 -143 44 -194 34
-67 -12 -134 -54 -149 -91 -3 -10 -12 -18 -19 -19 -7 0 -32 -2 -56 -3 -23 -2
-45 0 -47 4 -2 3 -35 6 -72 5 -67 -1 -136 -19 -268 -71 -33 -13 -72 -26 -87
-30 -25 -5 -35 -16 -36 -38 0 -5 -4 -12 -9 -15 -16 -12 -40 -56 -47 -88 -5
-22 -2 -45 12 -75 18 -39 28 -52 79 -99 26 -24 73 -27 186 -13 151 18 204 30
292 69 67 29 82 32 95 21 8 -7 30 -19 47 -27 23 -10 33 -21 33 -36 0 -12 4
-24 8 -27 12 -7 15 -117 4 -147 -6 -14 -5 -37 0 -57 12 -44 3 -83 -17 -76 -8
4 -15 2 -15 -2 0 -13 -80 -53 -115 -58 -16 -3 -42 -7 -57 -10 -16 -3 -39 -8
-53 -10 -14 -3 -33 -7 -43 -10 -9 -3 -66 -8 -127 -11 -102 -4 -193 -15 -255
-30 -14 -3 -41 -9 -60 -12 -19 -3 -39 -9 -45 -13 -5 -4 -31 -13 -58 -20 -26
-7 -50 -17 -53 -21 -3 -5 -14 -9 -25 -9 -10 0 -19 -7 -19 -15 0 -8 -4 -15 -10
-15 -5 0 -10 -7 -10 -16 0 -8 -7 -22 -15 -30 -8 -9 -18 -27 -21 -42 -3 -15
-12 -40 -19 -57 -15 -33 -12 -139 4 -159 13 -16 7 -74 -13 -111 -20 -37 -21
-117 -2 -153 37 -70 121 -106 271 -114 127 -7 238 57 273 159 9 26 7 39 -11
75 -23 46 -32 57 -62 74 -11 6 -20 22 -20 35 0 35 51 55 202 80 215 35 217 35
239 8 35 -44 96 -90 111 -85 8 3 11 1 8 -4 -3 -6 1 -13 10 -17 10 -3 29 -17
42 -29 26 -24 80 -44 121 -44 76 0 262 58 262 82 0 4 7 8 15 8 8 0 15 5 15 10
0 6 6 10 14 10 17 0 86 62 86 78 0 27 50 60 102 67 67 8 89 15 84 23 -5 8 -8
8 219 14 l170 5 0 26 c-1 16 5 27 12 27 17 0 17 34 1 48 -7 5 -33 8 -58 6 -25
-2 -103 -8 -175 -13 -114 -8 -197 -23 -285 -49 -14 -5 -39 -5 -57 -1 -51 10
-92 -23 -93 -76 0 -16 -6 -37 -13 -45 -19 -24 -73 -60 -109 -72 -18 -6 -40
-17 -49 -24 -22 -20 -129 -33 -159 -20 -31 14 -114 68 -118 79 -2 4 -8 7 -13
7 -15 0 -70 53 -85 83 -14 27 -15 27 -92 22 -92 -7 -138 -13 -161 -19 -9 -3
-32 -7 -51 -10 -163 -20 -259 -57 -284 -111 -19 -38 -40 -49 -67 -34 -15 7
-29 7 -51 0 -17 -6 -48 -11 -69 -11 -32 0 -41 5 -54 30 -32 62 -8 187 45 235
8 8 72 30 140 50 99 28 147 37 231 40 100 4 291 29 311 41 5 3 15 0 23 -6 8
-7 20 -8 27 -4 7 5 19 9 27 10 7 2 23 11 35 22 88 79 306 131 397 95 21 -8 43
-13 50 -12 18 3 83 -26 101 -44 8 -8 34 -23 60 -34 48 -22 74 -20 193 12 104
28 171 34 238 21 33 -6 37 -5 39 14 0 11 1 26 2 33 1 6 7 16 14 20 6 4 12 16
12 27 0 30 -79 38 -168 17 -12 -3 -27 -9 -33 -12 -5 -4 -20 -9 -32 -11 -12 -2
-44 -8 -72 -13 -104 -21 -129 -22 -155 -7 -14 8 -35 20 -47 25 -13 6 -23 15
-23 21 0 5 -8 10 -17 10 -10 0 -26 7 -36 14 -10 8 -27 12 -37 9 -12 -3 -20 0
-20 7 0 6 -10 10 -22 9 -31 -3 -98 11 -98 21 0 4 7 11 16 14 11 4 14 13 10 29
-3 12 -11 53 -16 91 -10 68 -10 69 17 92 16 13 36 27 45 30 9 3 20 14 23 25 7
22 21 23 95 9 61 -12 85 -27 71 -44 -17 -21 3 -66 23 -53 2 1 18 -13 35 -30
17 -18 35 -33 40 -33 5 0 11 -4 13 -9 6 -17 156 -32 201 -20 29 8 42 8 45 0 2
-5 12 -21 23 -35 18 -23 28 -26 79 -26 59 0 77 -9 99 -48 8 -14 24 -17 101
-15 54 1 97 7 106 14 12 9 20 9 39 -1 36 -19 173 -7 270 25 44 15 82 30 85 33
3 4 39 33 80 64 41 31 87 69 101 84 33 36 69 102 69 129 0 11 7 29 15 39 8 11
15 31 15 45 0 14 7 46 15 69 33 94 52 118 137 175 46 31 101 72 123 92 22 20
56 44 75 54 33 18 66 43 100 75 26 24 176 139 236 181 76 53 95 72 88 89 -3 8
-1 17 4 20 16 10 1 56 -18 56 -19 0 -100 -55 -100 -68 0 -5 -12 -15 -27 -23
-16 -8 -40 -25 -55 -39 -15 -14 -43 -36 -63 -50 -20 -14 -52 -38 -70 -53 -59
-49 -338 -256 -344 -255 -34 7 -143 -118 -163 -186 -7 -23 -17 -44 -23 -48 -5
-4 -7 -8 -4 -8 4 0 -2 -37 -13 -82 -14 -63 -27 -92 -56 -127 -65 -80 -97 -107
-118 -98 -4 1 -10 -8 -15 -20 -7 -20 -81 -55 -146 -68 -26 -5 -26 -5 -8 7 39
25 165 157 165 173 0 9 11 26 24 38 28 26 31 40 21 85 -7 30 -11 33 -33 27
-29 -7 -40 -19 -78 -90 -15 -27 -36 -56 -46 -63 -10 -7 -15 -18 -12 -24 4 -6
3 -8 -3 -5 -5 3 -25 -8 -44 -24 -43 -38 -224 -129 -253 -128 -16 1 -17 2 -3 6
9 2 17 9 17 15 0 6 2 9 5 6 3 -3 20 9 38 26 18 17 42 38 53 47 12 9 27 25 35
36 8 10 24 26 37 35 25 17 82 101 82 122 0 22 -36 57 -53 50 -8 -3 -28 -24
-44 -47 -29 -43 -152 -167 -165 -167 -4 0 -19 -11 -34 -25 -15 -14 -35 -25
-45 -25 -11 0 -19 -4 -19 -8 0 -12 -81 -32 -122 -30 -55 2 -55 33 -1 76 23 17
44 32 47 32 2 0 31 27 63 61 32 33 77 80 101 105 23 24 40 44 37 44 -3 0 -1
10 6 21 16 31 -6 72 -35 63 -12 -3 -66 -52 -122 -109 -102 -104 -233 -205
-265 -205 -10 0 -21 -4 -24 -10 -8 -13 -124 -13 -164 1 -42 15 -40 40 7 71 56
38 349 337 375 383 15 28 -1 52 -36 53 -27 1 -41 -9 -94 -64 l-62 -66 -38 17
c-81 36 -118 47 -160 50 -26 1 -44 15 -20 15 9 0 17 4 17 9 0 4 11 20 25 35
13 15 29 35 34 44 5 10 22 24 38 32 15 8 45 25 66 38 76 46 112 64 135 68 14
3 42 14 63 25 22 10 63 22 91 25 29 2 67 7 83 10 17 3 59 7 95 10 72 7 147 42
209 99 46 43 87 75 96 75 10 0 86 55 117 84 15 14 32 26 38 26 5 0 10 4 10 8
0 5 10 14 23 19 54 26 279 203 417 329 67 61 135 114 146 114 5 0 25 15 45 33
20 18 58 50 85 72 51 40 164 154 164 165 0 4 -10 16 -22 28 l-23 20 -25 -20z
m-2481 -1389 c17 -6 31 -15 31 -20 0 -5 6 -9 14 -9 26 0 76 -35 76 -52 0 -34
67 -51 90 -23 7 9 15 13 18 11 2 -3 21 2 41 10 58 25 392 20 376 -6 -3 -4 1
-8 8 -7 28 1 47 -4 47 -11 0 -5 -24 -32 -52 -61 -101 -100 -86 -92 -169 -87
-74 4 -199 29 -231 47 -31 16 -54 10 -68 -18 -7 -16 -12 -38 -11 -51 5 -46
-60 -69 -147 -52 -61 11 -152 48 -152 62 0 13 -26 38 -39 38 -6 0 -11 4 -11
10 0 9 -30 2 -40 -10 -14 -17 -84 -52 -113 -57 -17 -2 -52 -14 -76 -25 -27
-13 -78 -24 -130 -29 -47 -4 -103 -11 -123 -15 -53 -9 -94 12 -113 58 -18 47
-8 79 34 104 17 10 31 23 31 28 0 5 3 7 6 4 3 -3 31 5 63 18 93 37 206 47 373
30 l67 -6 17 36 c19 39 45 59 102 80 46 16 43 16 81 3z m51 -453 c9 -13 16
-52 18 -102 l3 -81 -28 -7 c-15 -4 -35 -9 -43 -11 -13 -4 -15 12 -12 116 3
118 3 120 25 113 12 -4 29 -16 37 -28z m-840 -927 c19 -10 48 -23 65 -29 20
-8 25 -14 17 -19 -7 -4 -33 2 -60 14 -27 13 -63 21 -85 20 -21 -1 -40 2 -42 6
-3 4 -17 3 -33 -1 -79 -24 -136 -39 -139 -36 -2 2 -1 10 2 18 8 20 48 38 88
39 18 0 41 4 52 8 28 11 93 1 135 -20z m-16 -126 c18 -5 18 -6 3 -18 -12 -9
-30 -10 -60 -4 -23 4 -63 8 -89 9 -48 0 -72 14 -41 24 20 5 158 -2 187 -11z"/>
<path d="M1430 1176 c-6 -20 -9 -40 -6 -45 4 -5 -3 -47 -14 -93 -25 -106 -26
-141 -2 -136 11 2 19 16 24 43 9 60 18 96 33 140 7 22 15 58 16 80 4 35 1 40
-18 43 -16 2 -24 -4 -33 -32z"/>
<path d="M1824 1174 c-4 -15 2 -43 14 -72 11 -26 23 -66 27 -89 4 -24 11 -45
16 -49 5 -3 7 -10 4 -15 -4 -5 3 -9 15 -9 19 0 21 4 16 38 -4 20 -9 57 -11 81
-3 24 -11 53 -17 64 -6 12 -11 30 -12 40 -1 11 -11 23 -23 28 -19 7 -24 4 -29
-17z"/>
<path d="M1970 1185 c-6 -8 -14 -33 -17 -55 -5 -36 -3 -42 15 -47 17 -4 20
-11 16 -32 -4 -19 6 -47 35 -101 22 -41 41 -87 41 -102 0 -15 10 -43 21 -63
12 -20 25 -50 28 -67 5 -23 18 -38 46 -54 66 -38 101 -28 128 38 30 71 -19
195 -89 224 -19 8 -38 22 -41 32 -4 9 -16 26 -27 38 -40 39 -66 74 -66 89 0 8
-10 27 -22 41 -13 14 -24 31 -24 37 -1 7 -2 18 -3 25 -1 17 -26 15 -41 -3z
m226 -347 c11 -16 25 -28 32 -28 8 0 12 -16 12 -45 0 -51 -13 -62 -57 -48 -21
7 -28 17 -31 43 -2 18 -12 49 -23 69 -10 20 -19 43 -19 52 0 15 3 15 34 0 18
-9 42 -28 52 -43z"/>
<path d="M1653 1173 c-16 -3 -26 -15 -33 -44 -6 -22 -8 -43 -6 -48 3 -5 -3
-44 -13 -87 -11 -44 -23 -106 -26 -139 -7 -58 -6 -62 26 -101 39 -46 44 -48
81 -26 54 32 65 106 33 222 -10 36 -19 93 -20 127 -1 35 -8 69 -14 76 -6 8 -8
17 -4 20 3 4 4 6 2 6 -2 -1 -14 -4 -26 -6z m12 -232 c2 -22 9 -55 15 -73 11
-29 10 -39 -5 -68 l-17 -33 -19 24 c-21 28 -23 61 -8 127 20 88 28 94 34 23z"/>
<path d="M1238 1143 c-12 -3 -21 -22 -28 -61 -7 -31 -21 -76 -31 -99 -10 -23
-19 -45 -19 -49 0 -3 -27 -51 -61 -107 -53 -88 -60 -107 -63 -159 -3 -67 9
-89 59 -106 27 -8 35 -6 67 22 41 35 71 108 67 166 -1 19 3 54 10 77 6 24 11
64 10 90 -2 57 6 124 21 173 5 19 10 38 10 41 0 10 -22 16 -42 12z m-53 -305
c-2 -13 -7 -48 -9 -78 -3 -30 -10 -69 -16 -86 -12 -33 -51 -61 -70 -49 -21 13
0 97 44 167 42 69 60 85 51 46z"/>
<path d="M1835 787 c-38 -23 -45 -40 -39 -94 4 -31 1 -74 -7 -105 -7 -29 -12
-56 -12 -59 1 -3 4 -24 7 -47 5 -46 20 -72 57 -100 40 -31 55 -32 80 -6 33 35
38 118 10 164 -11 19 -21 49 -21 67 0 17 -4 43 -10 57 -5 14 -10 43 -11 63 -3
74 -12 85 -54 60z m48 -274 c15 -29 16 -83 0 -83 -39 0 -65 91 -41 146 l11 29
6 -30 c3 -16 14 -45 24 -62z"/>
<path d="M1992 753 c-10 -20 -5 -43 12 -58 7 -5 22 -46 35 -90 36 -125 48
-150 66 -135 20 16 19 39 -4 92 -10 24 -21 71 -24 105 -3 44 -10 66 -26 82
-26 26 -47 27 -59 4z"/>
<path d="M1346 730 c-10 -24 -11 -40 -3 -60 8 -20 5 -40 -11 -88 -17 -52 -18
-63 -6 -73 11 -9 15 -8 19 2 2 8 14 39 25 70 36 98 14 237 -24 149z"/>
<path d="M4708 525 c-26 -7 -49 -11 -51 -8 -7 6 -147 -85 -181 -118 -16 -16
-39 -32 -50 -35 -12 -3 -40 -15 -63 -26 -24 -11 -58 -22 -75 -25 -18 -3 -41
-9 -50 -14 -11 -6 -34 -5 -60 0 -42 10 -148 61 -178 87 -9 7 -40 19 -70 25
-30 6 -59 18 -63 25 -4 8 -17 14 -27 14 -10 0 -22 5 -25 11 -10 16 -159 1
-217 -22 -65 -25 -166 -77 -198 -101 -33 -24 -188 -37 -242 -19 -19 6 -44 13
-54 15 -10 3 -53 16 -94 31 -41 14 -82 27 -90 28 -8 1 -41 15 -72 30 -32 15
-61 26 -65 25 -12 -2 -83 13 -130 28 -36 11 -48 11 -82 -1 -22 -7 -53 -16 -70
-18 -16 -3 -58 -22 -93 -44 -66 -40 -84 -54 -151 -117 -57 -52 -90 -65 -167
-62 -67 3 -203 39 -230 61 -8 7 -43 26 -77 42 -46 21 -67 27 -80 20 -10 -6
-15 -6 -11 -2 14 15 -95 48 -159 49 -35 1 -63 4 -63 8 0 12 -66 0 -128 -23
-31 -12 -68 -24 -82 -27 -14 -3 -49 -18 -78 -34 -29 -15 -57 -28 -63 -28 -6 0
-39 -13 -73 -29 -89 -41 -113 -48 -194 -50 -71 -2 -167 14 -187 31 -5 4 -17 8
-27 8 -47 0 -143 74 -207 158 -16 22 -32 32 -50 32 -23 0 -69 -19 -47 -20 5 0
4 -6 -2 -13 -18 -21 11 -68 73 -122 32 -27 64 -56 72 -64 24 -23 83 -61 95
-61 15 0 73 -19 117 -38 25 -10 63 -13 150 -10 103 4 125 8 199 37 45 19 82
37 82 42 0 4 14 10 31 14 16 4 57 18 89 31 33 13 68 26 77 28 10 1 25 6 33 9
46 17 79 23 110 21 19 -2 58 -5 85 -7 28 -3 73 -12 100 -22 51 -17 226 -102
235 -114 7 -9 25 -12 145 -27 163 -19 202 -7 317 98 66 61 78 70 126 97 86 46
212 37 387 -30 44 -16 91 -32 103 -35 13 -3 43 -11 65 -20 23 -8 53 -17 67
-20 14 -3 43 -10 65 -16 74 -19 237 -7 270 21 31 26 66 46 118 65 26 10 47 21
47 25 0 23 133 34 210 18 51 -11 140 -48 140 -58 0 -4 12 -12 28 -18 26 -10
62 -31 72 -41 11 -11 107 -40 135 -40 56 -1 110 7 140 20 17 7 39 16 50 20 63
24 86 37 158 88 43 31 95 66 115 77 42 23 97 31 107 16 3 -6 15 -11 27 -11 11
0 33 -9 49 -20 l28 -21 43 21 c23 11 48 20 55 20 7 0 13 9 13 20 0 22 -67 89
-90 90 -8 1 -31 7 -50 14 -19 7 -42 16 -50 19 -8 3 -36 -1 -62 -8z"/>
</g>
</svg>
