<?xml version="1.0" standalone="no"?>
<!DOCTYPE svg PUBLIC "-//W3C//DTD SVG 20010904//EN"
 "http://www.w3.org/TR/2001/REC-SVG-20010904/DTD/svg10.dtd">
<svg version="1.0" xmlns="http://www.w3.org/2000/svg"
 width="537.000000pt" height="465.000000pt" viewBox="0 0 537.000000 465.000000"
 preserveAspectRatio="xMidYMid meet">
<metadata>
Created by potrace 1.16, written by Peter Selinger 2001-2019
</metadata>
<g transform="translate(0.000000,465.000000) scale(0.100000,-0.100000)"
fill="#000000" stroke="none">
<path d="M1350 4461 c-14 -5 -49 -16 -79 -25 -103 -31 -211 -138 -273 -268
-16 -35 -34 -65 -39 -69 -13 -7 -52 -172 -52 -214 0 -47 6 -65 41 -135 39 -74
89 -127 150 -154 51 -23 53 -37 18 -146 l-24 -75 -84 -1 c-45 0 -117 4 -158 8
-101 11 -117 11 -138 3 -9 -5 -23 -9 -31 -11 -25 -5 -61 -47 -59 -69 1 -12 -8
-35 -20 -52 -12 -17 -22 -36 -22 -42 0 -6 -4 -11 -9 -11 -5 0 -13 -9 -16 -20
-4 -12 -28 -49 -54 -83 -26 -34 -51 -71 -55 -82 -7 -18 -154 -244 -166 -255
-3 -3 -16 -22 -30 -42 -14 -21 -28 -38 -31 -38 -4 0 -9 -10 -13 -22 -3 -13
-19 -32 -35 -43 -41 -27 -51 -53 -34 -92 18 -44 61 -218 67 -273 3 -25 9 -79
15 -120 6 -41 9 -142 8 -223 -3 -145 -3 -149 20 -167 33 -25 61 -16 56 18 -4
21 -2 24 6 12 16 -23 14 86 -3 135 -8 26 -12 79 -11 150 2 109 -29 341 -55
409 -17 46 -12 91 14 119 14 15 33 40 42 57 10 16 22 30 26 30 4 0 8 6 8 13 0
7 11 24 24 38 13 15 37 51 51 80 15 30 30 56 34 59 8 7 28 39 43 70 7 14 21
31 30 38 10 7 18 22 18 32 0 10 8 25 18 32 10 7 31 30 46 51 16 21 30 36 31
35 3 -3 -11 -213 -19 -293 -3 -27 -12 -83 -20 -125 -8 -41 -20 -129 -26 -195
-24 -265 -31 -309 -73 -425 -40 -115 -44 -151 -18 -187 11 -15 22 -40 25 -55
3 -15 7 -32 10 -37 4 -5 11 -33 17 -63 6 -29 12 -63 15 -76 2 -12 13 -46 24
-75 10 -29 22 -70 25 -92 4 -22 20 -91 36 -153 16 -62 30 -128 31 -145 1 -18
4 -36 7 -42 25 -45 -4 -144 -76 -258 -56 -89 -121 -208 -144 -261 -12 -31 -26
-56 -31 -56 -4 0 -8 -6 -8 -12 0 -17 -38 -92 -81 -158 -80 -125 -89 -140 -89
-158 0 -10 9 -28 19 -39 l20 -21 78 20 c43 11 96 24 118 30 48 13 128 16 170
6 19 -4 37 -2 49 7 17 13 18 16 3 38 -8 13 -17 34 -19 48 -3 25 -3 25 -78 19
-14 -1 -65 -9 -113 -17 -48 -9 -90 -13 -93 -10 -3 3 4 22 16 44 63 114 130
252 130 266 0 5 9 21 19 36 11 15 23 39 26 53 4 15 13 29 21 32 8 3 14 12 14
19 0 8 9 22 20 32 11 10 20 24 20 32 0 7 4 13 8 13 4 0 14 17 21 38 8 20 17
39 20 42 33 27 88 210 64 210 -5 0 -10 6 -10 13 0 6 -9 41 -20 77 -23 75 -45
158 -47 182 -1 9 -7 22 -12 30 -5 7 -11 27 -13 43 -1 17 -9 49 -17 73 -8 23
-14 51 -14 62 0 11 -9 42 -20 70 -20 52 -27 83 -30 135 -3 47 -1 51 23 52 95
2 303 20 315 27 4 2 23 7 42 10 19 3 46 9 60 12 14 4 58 9 97 11 72 4 73 4 84
-24 6 -15 13 -44 16 -63 7 -45 56 -193 84 -256 12 -27 32 -71 44 -99 13 -27
27 -66 33 -85 5 -19 24 -67 40 -106 27 -62 30 -75 21 -115 -11 -51 -36 -113
-60 -149 -9 -14 -34 -63 -55 -110 -21 -47 -45 -96 -54 -110 -9 -14 -27 -54
-40 -90 -13 -36 -27 -69 -32 -75 -4 -5 -8 -15 -8 -23 0 -8 -15 -46 -34 -85
-18 -40 -39 -90 -46 -112 -12 -37 -30 -74 -61 -123 -11 -18 -11 -24 4 -40 9
-10 14 -21 11 -24 -16 -17 216 -27 393 -18 79 4 91 14 65 51 -11 16 -12 24 -4
27 21 7 13 28 -14 41 -19 8 -30 8 -39 1 -16 -13 -230 -23 -267 -13 -27 8 -27
9 -13 35 7 16 26 63 40 105 36 105 91 244 127 323 51 108 148 302 169 337 22
35 24 120 3 116 -7 -1 -17 19 -25 45 -7 26 -18 56 -25 67 -7 11 -20 47 -30 80
-9 33 -39 108 -65 166 -27 58 -49 114 -49 123 0 9 -7 31 -16 47 -10 20 -18 75
-23 152 -7 107 -5 127 12 171 10 28 23 78 29 111 11 66 15 89 18 93 2 1 3 5 4
10 1 4 11 39 23 77 12 39 25 88 28 110 10 56 33 143 41 157 5 7 3 8 -7 3 -11
-7 -12 -6 -2 6 15 19 56 168 90 334 15 72 31 132 35 133 4 2 8 10 8 18 0 23
25 5 113 -80 43 -42 95 -88 115 -103 53 -38 192 -175 192 -189 0 -18 42 -25
81 -14 19 5 51 11 71 14 21 2 41 7 46 10 5 3 47 8 93 12 46 3 102 10 124 16
132 31 165 37 206 38 25 0 78 11 117 24 40 14 72 23 72 21 0 -10 -101 -154
-123 -175 -15 -14 -27 -30 -27 -35 0 -6 -17 -28 -38 -50 -22 -22 -51 -59 -66
-82 -14 -24 -30 -43 -35 -43 -5 0 -11 -9 -14 -21 -3 -11 -14 -23 -24 -26 -29
-8 -66 -61 -57 -81 4 -9 8 -21 8 -25 2 -12 29 -27 51 -26 13 0 33 20 58 57 41
63 109 159 129 182 57 65 206 272 262 364 11 17 59 92 107 166 48 74 102 159
121 188 19 29 40 51 48 50 26 -4 58 21 80 61 12 21 31 44 43 52 29 20 387 375
388 385 1 11 234 215 265 232 29 15 31 42 6 72 -23 29 -65 21 -84 -14 -21 -39
-378 -399 -453 -456 -18 -14 -18 -14 -5 6 8 11 47 60 87 110 40 49 112 143
162 209 49 66 107 135 130 153 32 26 41 40 41 64 0 33 -23 57 -54 58 -11 0
-17 -3 -13 -6 3 -3 -12 -29 -34 -56 -21 -27 -39 -54 -39 -58 0 -5 -6 -15 -14
-23 -8 -8 -32 -42 -54 -75 -21 -33 -64 -89 -94 -124 -30 -35 -65 -81 -78 -103
-14 -22 -30 -46 -37 -53 -23 -24 -14 2 17 48 31 46 51 86 89 174 30 70 101
175 156 229 l46 47 -18 25 c-23 31 -55 32 -77 3 -38 -52 -142 -230 -152 -261
-4 -11 -17 -41 -30 -65 -13 -25 -24 -50 -24 -56 0 -14 -60 -89 -66 -83 -9 8
17 102 42 150 13 27 24 54 24 61 0 6 18 47 40 90 22 43 40 85 40 93 0 22 -39
73 -55 73 -23 0 -42 -41 -48 -100 -5 -53 -50 -204 -67 -225 -5 -6 -11 -22 -14
-35 -25 -117 -92 -326 -107 -336 -5 -3 -9 -14 -9 -25 0 -11 -13 -33 -29 -49
-16 -16 -27 -31 -24 -33 6 -6 -64 -135 -94 -172 -35 -44 -37 -47 -53 -80 -8
-16 -43 -73 -78 -125 -73 -110 -91 -122 -218 -146 -49 -9 -152 -31 -229 -49
-77 -19 -176 -36 -220 -39 -44 -4 -115 -14 -158 -23 -68 -14 -80 -14 -88 -2
-4 8 -13 14 -18 14 -5 0 -47 34 -93 76 -45 42 -110 101 -143 131 -94 84 -167
164 -181 197 -7 17 -9 31 -4 31 16 0 10 34 -10 58 -17 21 -21 22 -52 9 -23 -9
-45 -11 -72 -5 -22 5 -42 5 -45 1 -10 -14 -231 -11 -231 3 0 12 49 146 56 153
3 3 36 6 74 7 82 2 153 19 195 47 91 62 197 213 227 327 25 90 39 157 40 183
1 15 4 27 8 27 11 0 -1 130 -14 155 -33 64 -131 141 -199 159 -46 11 -200 16
-227 7z m251 -105 c20 -14 40 -35 44 -46 4 -12 9 -19 12 -16 9 9 37 -26 50
-63 13 -36 10 -95 -7 -156 -28 -100 -35 -121 -40 -125 -3 -3 -11 -23 -19 -45
-38 -107 -127 -200 -231 -240 -65 -25 -80 -27 -149 -21 -146 13 -235 84 -270
214 -14 50 6 155 43 229 15 28 26 54 26 57 0 4 11 19 25 34 14 15 25 31 25 37
0 22 97 111 145 135 65 31 121 40 224 35 69 -4 91 -9 122 -29z m-100 -1074 c3
-32 -3 -86 -12 -110 -5 -14 -12 -41 -15 -61 -3 -20 -20 -94 -38 -166 -18 -71
-41 -164 -50 -205 -10 -41 -22 -84 -26 -95 -5 -11 -16 -56 -26 -100 -9 -44
-31 -132 -49 -195 -19 -63 -39 -144 -46 -180 -7 -36 -20 -76 -31 -89 -10 -13
-18 -21 -18 -17 0 4 -6 4 -12 -1 -15 -9 -21 -10 -113 -22 -38 -5 -81 -12 -95
-15 -59 -14 -178 -34 -220 -37 -70 -6 -189 -3 -197 4 -3 4 4 37 17 74 33 100
49 172 50 223 0 25 7 97 16 160 8 63 17 131 19 150 3 19 7 53 10 75 3 22 9 55
14 72 5 18 13 101 16 185 4 84 12 173 17 198 9 44 14 82 17 127 1 21 5 22 124
21 67 0 146 2 176 6 33 4 58 3 66 -4 21 -17 53 -20 59 -5 6 18 34 21 204 22
126 1 142 0 143 -15z m-84 -589 c-3 -10 -5 -4 -5 12 0 17 2 24 5 18 2 -7 2
-21 0 -30z"/>
<path d="M4955 3632 c-16 -11 -36 -25 -42 -34 -18 -21 -13 -85 9 -104 19 -18
25 -40 7 -29 -6 4 -55 7 -110 6 -54 -1 -99 1 -99 4 0 3 7 17 16 30 41 63 -68
167 -125 118 -12 -9 -21 -23 -21 -30 0 -9 -7 -10 -25 -3 -16 6 -34 6 -51 0
-23 -9 -25 -14 -22 -63 l3 -52 -33 -2 c-18 -1 -50 -4 -72 -7 l-40 -5 6 42 c5
34 2 47 -16 69 -24 32 -89 52 -134 43 -64 -12 -100 -71 -70 -114 9 -12 13 -25
9 -29 -4 -4 -102 -7 -218 -7 -257 0 -263 -2 -253 -79 22 -173 26 -220 25 -297
-1 -48 4 -96 10 -108 9 -16 10 -76 1 -76 -1 0 -3 -7 -5 -16 -7 -38 7 -41 176
-39 90 1 198 1 239 0 41 -1 80 -1 85 -1 6 0 105 3 220 6 208 6 280 9 570 21
101 5 181 2 248 -6 85 -12 100 -11 108 1 13 21 11 55 -5 68 -16 14 -27 14
-221 13 -77 -1 -147 -1 -155 -1 -8 0 -51 -2 -95 -5 -44 -2 -125 -7 -180 -11
-55 -3 -116 -7 -135 -9 -19 -1 -61 0 -93 4 -32 3 -60 3 -62 -1 -3 -3 -71 -4
-152 -2 -82 2 -177 4 -213 4 -174 -2 -201 -2 -209 4 -5 3 -13 20 -16 38 -4 17
-11 37 -17 44 -13 16 -18 123 -7 152 6 15 6 28 -1 36 -11 13 -22 174 -12 176
9 2 646 11 697 11 22 -1 114 -1 205 -1 359 1 449 1 540 -2 113 -3 140 4 140
34 0 20 -40 68 -40 49 0 -4 -4 -1 -9 7 -8 12 -17 13 -48 4 -21 -6 -75 -11
-120 -12 l-81 0 30 31 c26 26 29 36 24 67 -11 72 -93 104 -161 63z m65 -72 c0
-5 -6 -10 -14 -10 -8 0 -18 5 -21 10 -3 6 3 10 14 10 12 0 21 -4 21 -10z
m-366 -9 c17 -7 17 -8 2 -24 -10 -9 -24 -17 -32 -17 -8 0 -14 -5 -14 -12 0 -8
-6 -7 -16 4 -22 22 -10 58 19 57 12 0 30 -4 41 -8z m-400 -28 c-14 -10 -19
-10 -25 -1 -10 15 9 28 29 20 12 -4 12 -7 -4 -19z"/>
<path d="M4848 3283 c-34 -5 -88 -60 -88 -90 0 -13 -5 -23 -10 -23 -13 0 -5
-47 10 -66 17 -20 74 -28 112 -15 57 19 94 98 72 156 -6 13 -57 48 -66 44 -2
-1 -15 -4 -30 -6z m52 -73 c0 -12 -41 -50 -54 -50 -19 0 -41 19 -32 27 7 8 63
31 79 32 4 1 7 -3 7 -9z"/>
<path d="M4440 3222 c-80 -39 -100 -56 -100 -86 0 -36 41 -76 77 -76 33 0 87
33 112 69 45 62 -18 127 -89 93z"/>
<path d="M4972 2810 c-17 -27 -15 -56 5 -80 21 -25 28 -25 51 -2 20 20 22 48
4 80 -16 27 -43 29 -60 2z"/>
<path d="M4463 2648 c-13 -21 -10 -62 5 -74 28 -21 65 -11 73 18 12 46 -54 93
-78 56z"/>
<path d="M4972 2509 c-17 -7 -22 -15 -20 -39 5 -64 77 -82 89 -22 10 49 -23
78 -69 61z"/>
<path d="M4542 2388 c-24 -24 -5 -98 25 -98 16 0 43 35 43 57 0 20 -29 53 -46
53 -6 0 -15 -5 -22 -12z"/>
<path d="M4963 2258 c-38 -18 -35 -84 4 -99 42 -15 72 61 37 95 -8 9 -16 16
-17 15 -1 0 -12 -5 -24 -11z"/>
<path d="M4418 1987 c-17 -28 -12 -59 11 -74 24 -15 61 -5 60 16 -4 64 -46 98
-71 58z"/>
</g>
</svg>
