<?xml version="1.0" standalone="no"?>
<!DOCTYPE svg PUBLIC "-//W3C//DTD SVG 20010904//EN"
 "http://www.w3.org/TR/2001/REC-SVG-20010904/DTD/svg10.dtd">
<svg version="1.0" xmlns="http://www.w3.org/2000/svg"
 width="431.000000pt" height="473.000000pt" viewBox="0 0 431.000000 473.000000"
 preserveAspectRatio="xMidYMid meet">
<metadata>
Created by potrace 1.16, written by Peter Selinger 2001-2019
</metadata>
<g transform="translate(0.000000,473.000000) scale(0.100000,-0.100000)"
fill="#000000" stroke="none">
<path d="M1862 4295 c-9 -5 -35 -10 -58 -10 -22 -1 -55 -7 -72 -14 -26 -11
-32 -19 -32 -45 1 -41 17 -60 62 -75 21 -7 41 -17 44 -23 4 -5 22 -16 40 -24
19 -8 34 -19 34 -24 0 -6 5 -10 11 -10 6 0 47 -22 93 -49 45 -27 93 -52 106
-56 25 -8 34 -15 81 -57 16 -16 33 -28 37 -28 21 0 112 -94 123 -127 6 -20 27
-62 45 -94 19 -31 38 -69 44 -84 10 -27 10 -27 -21 -21 -17 3 -42 6 -55 6 -19
0 -26 9 -41 58 -10 31 -28 72 -40 90 -21 32 -63 133 -63 152 0 16 -39 31 -64
24 -26 -6 -40 -45 -26 -73 30 -62 50 -111 50 -125 0 -9 5 -16 10 -16 6 0 10
-6 10 -13 0 -7 9 -23 21 -36 26 -28 21 -34 -24 -26 -31 6 -41 16 -79 79 -23
39 -52 85 -65 102 -13 17 -23 36 -23 42 0 7 -4 12 -9 12 -11 0 -21 25 -27 64
-6 49 -38 59 -71 24 -36 -40 -36 -61 0 -114 19 -27 37 -59 41 -72 4 -12 12
-22 17 -22 5 0 9 -7 9 -15 0 -17 -34 -13 -122 16 -32 11 -86 19 -120 19 -39 1
-70 6 -82 15 -16 12 -23 12 -56 -5 -38 -19 -60 -52 -41 -58 6 -2 9 -8 6 -12
-7 -11 15 -52 33 -63 6 -4 35 -41 62 -82 62 -93 82 -113 150 -155 30 -19 56
-38 58 -42 2 -4 39 -19 83 -33 44 -14 100 -34 124 -45 24 -11 51 -20 59 -20
21 0 24 -9 30 -81 2 -35 9 -77 15 -92 6 -16 11 -50 11 -76 l0 -48 -77 2 c-43
2 -82 0 -87 -3 -5 -3 -49 -5 -97 -4 -89 1 -135 -10 -354 -82 -187 -63 -275
-97 -275 -108 0 -5 -5 -8 -10 -8 -6 0 -20 -8 -31 -18 -10 -11 -32 -25 -47 -32
-29 -15 -188 -173 -231 -230 -14 -19 -28 -37 -32 -40 -3 -3 -11 -21 -19 -40
-8 -19 -24 -49 -37 -66 -13 -17 -23 -34 -23 -38 0 -5 -13 -28 -30 -53 -16 -24
-30 -48 -30 -53 0 -6 -8 -19 -17 -29 -9 -11 -18 -28 -19 -37 -1 -9 -14 -50
-28 -93 -13 -42 -27 -89 -30 -106 -2 -16 -11 -52 -19 -80 -8 -27 -18 -83 -21
-124 -4 -41 -11 -80 -17 -88 -8 -9 -8 -13 -1 -13 6 0 9 -10 6 -22 -3 -13 -7
-54 -10 -93 -3 -38 -9 -74 -14 -81 -6 -6 -8 -13 -5 -15 2 -3 7 -46 9 -97 l5
-92 -25 0 c-51 0 -120 -24 -148 -52 -17 -15 -34 -28 -38 -28 -5 0 -6 -4 -3
-10 3 -5 2 -10 -3 -10 -6 0 -23 -21 -38 -47 -15 -27 -30 -50 -34 -53 -8 -6 -9
-15 -14 -95 -4 -65 18 -170 40 -196 8 -8 14 -20 14 -26 0 -6 19 -33 43 -59 23
-27 51 -62 61 -79 11 -16 38 -52 61 -80 43 -52 115 -176 115 -199 0 -7 15 -21
33 -31 26 -14 38 -15 54 -7 39 21 38 109 -2 140 -12 10 -32 36 -43 59 -12 23
-40 62 -62 88 -22 25 -40 52 -40 60 0 7 -3 15 -7 17 -13 5 -133 156 -133 166
0 5 -7 24 -16 42 -24 47 -21 129 6 184 30 63 95 118 134 114 26 -3 33 -10 51
-58 19 -49 24 -55 50 -56 17 -1 39 5 51 12 21 14 23 35 9 124 -6 35 -13 153
-16 245 0 28 2 70 5 95 6 54 15 142 22 230 7 82 10 101 18 121 4 9 6 20 4 25
-1 5 5 32 14 59 9 28 19 64 21 81 3 17 12 47 20 65 9 19 23 50 31 69 9 19 29
55 46 80 16 25 35 56 42 70 7 14 15 27 18 30 3 3 11 17 18 31 12 23 29 45 72
96 5 7 10 17 10 23 0 6 5 8 10 5 6 -3 10 0 10 7 1 13 65 88 76 88 3 0 31 22
62 50 30 27 76 59 101 71 127 58 149 68 183 78 20 7 47 14 59 16 11 2 26 8 33
13 6 5 28 13 50 16 21 4 46 11 55 16 52 27 221 49 221 29 0 -5 9 -9 20 -9 14
0 18 5 13 17 -5 13 -3 15 13 8 10 -5 39 -10 64 -10 97 -4 140 -9 140 -17 0 -4
6 -5 14 -2 33 13 131 -64 123 -96 -2 -9 2 -21 9 -28 7 -7 12 -30 10 -57 -1
-25 1 -45 6 -45 5 0 7 -4 4 -8 -3 -5 -6 -38 -6 -73 -1 -35 -8 -86 -15 -114 -8
-27 -17 -71 -20 -97 -3 -26 -10 -50 -16 -53 -5 -4 -9 -16 -9 -27 0 -12 -13
-48 -29 -82 -15 -34 -36 -83 -46 -111 -10 -27 -27 -62 -37 -77 -10 -14 -18
-31 -18 -37 0 -16 -82 -96 -118 -115 -17 -9 -32 -21 -32 -26 0 -6 -6 -10 -14
-10 -8 0 -16 -3 -18 -8 -6 -15 -94 -79 -143 -104 -75 -38 -233 -104 -292 -121
-28 -9 -60 -20 -70 -25 -10 -5 -34 -12 -53 -15 -44 -6 -117 -35 -206 -81 -37
-20 -76 -36 -87 -36 -17 0 -102 -50 -180 -107 -55 -40 -148 -182 -159 -245
-10 -52 -3 -69 32 -88 26 -14 57 18 66 65 12 67 31 100 93 164 32 33 62 61 65
61 3 0 25 13 48 30 22 16 47 30 55 30 7 0 21 4 31 9 22 11 96 45 142 65 19 8
64 22 100 31 36 9 70 20 75 25 6 4 45 17 88 29 69 19 140 46 189 72 10 5 26 9
36 9 11 0 30 10 43 23 14 12 44 31 67 41 23 10 56 32 74 47 17 16 35 29 38 29
4 0 18 9 31 20 12 12 39 31 59 42 46 29 74 62 106 125 34 67 50 73 64 24 5
-21 19 -48 30 -61 11 -13 20 -27 20 -32 0 -16 77 -111 152 -188 64 -66 264
-211 358 -260 13 -7 31 -19 38 -27 7 -7 21 -13 30 -13 10 0 34 -11 54 -25 20
-14 41 -25 47 -25 5 0 14 -6 18 -13 4 -7 24 -19 43 -27 19 -8 37 -17 40 -20 3
-4 34 -25 70 -48 36 -23 70 -46 77 -52 7 -5 14 -10 17 -10 14 0 96 -63 96 -73
0 -9 24 -12 83 -10 45 1 85 2 90 2 4 1 7 7 7 15 0 20 68 50 115 52 32 1 46 -4
72 -29 18 -16 30 -34 27 -39 -3 -4 -1 -8 4 -8 18 0 18 -94 0 -165 -22 -84 -91
-249 -133 -315 -9 -15 -15 -34 -17 -57 -1 -7 -5 -13 -8 -13 -4 0 -10 -26 -14
-58 -4 -32 -12 -67 -19 -78 -17 -26 -14 -77 7 -108 13 -21 22 -25 44 -20 41
10 50 21 55 67 7 58 14 101 26 142 5 19 6 35 3 35 -4 0 -2 4 4 8 14 10 44 71
44 92 0 9 4 20 9 25 9 10 54 123 64 160 3 11 16 49 30 85 30 80 33 174 9 245
-19 55 -99 144 -132 146 -76 5 -108 3 -130 -8 -34 -18 -50 -16 -51 5 -1 9 -3
109 -4 222 -5 317 -29 533 -71 627 -8 17 -14 35 -14 40 0 6 -9 18 -20 28 -11
10 -17 21 -15 26 7 11 -44 128 -77 173 -15 22 -28 46 -28 53 0 7 -4 13 -10 13
-5 0 -10 7 -10 15 0 9 -18 34 -40 57 -21 23 -37 45 -34 50 3 4 2 8 -3 8 -4 0
-23 26 -42 58 -31 52 -115 132 -139 132 -5 0 -28 14 -50 30 -23 17 -42 28 -42
24 0 -3 -13 4 -28 15 -16 11 -51 25 -78 32 -27 6 -58 16 -68 22 -29 14 -145
37 -160 31 -18 -7 -28 11 -32 55 -2 20 -5 59 -8 86 -2 28 -7 88 -11 135 -3 47
-8 95 -11 108 -3 16 0 22 12 22 9 0 42 15 73 33 122 70 108 68 148 30 19 -19
33 -36 30 -39 -9 -9 103 -134 120 -134 5 0 16 -11 23 -25 7 -14 19 -25 25 -25
22 0 64 -56 75 -100 6 -25 10 -69 8 -98 -2 -28 0 -52 4 -52 4 0 8 -11 8 -25 0
-45 41 -128 84 -172 24 -23 46 -40 49 -37 3 3 25 -5 49 -18 48 -25 50 -25 131
-31 31 -2 57 0 57 5 0 5 5 6 10 3 6 -3 10 -2 10 2 0 5 15 15 34 21 39 14 65
59 70 123 3 30 -4 56 -25 98 -16 31 -29 59 -29 64 0 4 -8 15 -17 26 -46 48
-80 88 -95 113 -10 14 -27 30 -40 34 -12 3 -45 20 -72 37 -46 28 -66 43 -147
113 -45 39 -139 143 -139 154 0 5 -4 10 -9 10 -5 0 -13 10 -17 23 -4 12 -12
25 -18 29 -6 4 -7 10 -4 13 4 4 12 4 18 0 7 -4 44 -9 84 -11 91 -5 96 -6 193
-28 50 -11 80 -23 76 -29 -4 -6 0 -8 10 -4 11 4 20 -1 28 -14 5 -11 16 -18 22
-16 13 4 37 -16 37 -32 0 -6 22 -32 48 -58 27 -27 59 -64 72 -83 54 -79 134
-144 172 -139 13 2 29 0 35 -4 27 -17 82 5 123 49 22 24 43 44 46 44 3 0 16 8
27 18 26 20 30 40 29 148 -1 70 -4 87 -26 119 -15 21 -26 41 -26 46 0 22 -143
77 -210 81 -8 0 -19 4 -25 8 -5 5 -29 5 -53 0 -23 -4 -45 -4 -47 1 -3 4 -27 6
-53 3 -99 -9 -272 -6 -286 5 -7 6 -40 16 -72 22 -58 10 -156 40 -194 59 -11 6
-29 15 -41 21 -11 5 -43 12 -71 14 -37 2 -54 9 -64 24 -9 12 -13 21 -10 21 3
0 -4 19 -14 43 -11 23 -20 52 -20 65 0 12 -4 22 -8 22 -5 0 -17 18 -27 40 -10
22 -21 40 -24 40 -3 0 -22 23 -41 52 -44 65 -78 100 -91 93 -5 -4 -9 1 -9 9 0
8 -6 19 -13 23 -7 4 -21 19 -30 33 -9 13 -17 21 -17 16 0 -5 -9 3 -21 18 -11
14 -28 26 -37 26 -9 1 -48 21 -87 45 -107 67 -190 104 -264 116 -76 12 -234 9
-259 -6z m766 -746 c9 -14 5 -17 -31 -17 -49 -1 -73 17 -83 62 -3 17 -11 37
-18 45 -6 8 19 -6 56 -30 36 -24 71 -51 76 -60z m-508 -189 c0 -5 -5 -10 -11
-10 -5 0 -7 5 -4 10 3 6 8 10 11 10 2 0 4 -4 4 -10z m1697 -98 c39 -35 63 -70
63 -90 0 -5 -14 -27 -31 -48 -26 -33 -35 -38 -62 -35 -56 6 -105 42 -143 107
-13 22 -35 51 -49 64 -42 40 -33 49 53 52 95 4 118 -3 169 -50z m-1427 38 c0
-5 -4 -10 -10 -10 -5 0 -10 5 -10 10 0 6 5 10 10 10 6 0 10 -4 10 -10z m-93
-104 c4 -3 23 -133 27 -189 3 -32 9 -64 13 -70 13 -16 10 -49 -3 -54 -25 -8
-53 32 -55 77 -2 52 -15 117 -36 178 -12 34 -12 46 -3 58 10 12 42 12 57 0z
m179 2 c4 -6 8 -31 10 -55 1 -24 5 -60 9 -80 12 -68 11 -252 -2 -257 -7 -3
-15 -1 -18 5 -4 5 -11 7 -16 4 -10 -7 -10 -5 -11 82 0 32 -4 64 -9 73 -14 24
-39 122 -34 130 2 4 0 22 -5 39 -12 42 -4 59 28 64 15 2 30 5 34 6 4 0 10 -4
14 -11z m884 -317 c10 -9 26 -23 36 -31 37 -30 87 -115 92 -156 4 -41 3 -42
-29 -50 -41 -9 -101 -6 -113 7 -6 5 -16 9 -24 9 -23 0 -88 52 -100 80 -10 22
-32 119 -32 141 0 20 149 20 170 0z m-645 -191 c3 -5 13 -6 24 -3 10 3 33 -3
51 -12 17 -9 40 -18 50 -20 30 -6 110 -45 110 -54 0 -5 8 -12 18 -15 46 -17
172 -131 172 -157 0 -5 29 -52 65 -104 70 -102 166 -292 169 -331 0 -13 4 -24
9 -24 4 0 7 -6 7 -12 0 -7 7 -25 14 -40 10 -19 11 -30 4 -34 -7 -4 -6 -9 1
-13 12 -8 13 -14 25 -86 15 -92 18 -141 20 -365 3 -257 0 -310 -19 -310 -23 0
-156 73 -174 96 -11 13 -24 24 -30 24 -6 0 -34 16 -62 36 -28 19 -72 45 -97
55 -26 11 -50 26 -54 32 -4 7 -8 9 -8 5 0 -12 -125 58 -219 122 -51 36 -104
71 -117 78 -52 29 -264 256 -264 284 0 14 -70 152 -81 159 -11 6 12 81 43 143
11 22 22 54 24 70 3 17 6 40 9 51 2 11 5 25 5 30 1 6 6 19 13 30 7 11 12 43
12 70 0 28 4 53 9 57 13 9 18 116 7 173 -5 26 -7 54 -4 60 5 14 260 18 268 5z"/>
<path d="M2918 1007 c-13 -6 -34 -9 -47 -8 -13 2 -21 -1 -18 -6 3 -4 -5 -9
-16 -9 -38 -2 -139 -34 -186 -59 -25 -13 -55 -26 -66 -29 -21 -6 -55 -54 -55
-78 0 -7 12 -21 28 -30 31 -18 58 -10 101 30 13 12 32 22 42 22 10 0 20 4 23
9 3 4 28 11 55 15 28 4 53 11 56 16 3 6 19 10 35 10 16 0 32 5 35 10 4 7 12 7
25 0 13 -7 20 -6 23 3 3 9 7 9 20 -2 9 -7 23 -11 32 -8 8 4 17 2 20 -3 3 -5
12 -7 20 -4 8 4 18 -1 21 -10 3 -9 13 -16 20 -16 8 0 17 -7 20 -15 5 -11 10
-13 19 -5 9 8 17 6 28 -5 9 -9 29 -14 50 -13 34 3 34 3 36 54 1 49 -1 53 -32
67 -17 8 -49 18 -69 21 -21 4 -38 10 -38 14 0 8 -89 32 -132 36 -14 1 -37 -2
-50 -7z"/>
<path d="M1323 999 c-13 -5 -23 -6 -23 -2 0 3 -11 -6 -26 -22 -30 -32 -28 -66
4 -80 12 -5 22 -13 22 -18 0 -4 10 -1 23 7 32 20 203 28 243 11 11 -4 31 -7
47 -6 29 3 164 -35 185 -52 6 -5 12 -6 12 -2 0 5 8 1 18 -8 13 -12 28 -15 55
-10 34 5 37 8 37 38 0 68 -10 92 -39 93 -15 0 -64 10 -108 21 -45 12 -94 22
-110 23 -15 1 -32 4 -38 7 -17 9 -278 9 -302 0z"/>
<path d="M2758 722 c-77 -21 -108 -48 -100 -88 8 -43 43 -51 107 -25 75 31 90
26 88 -27 -1 -34 3 -47 28 -72 29 -28 32 -29 58 -16 36 19 53 40 51 63 -5 48
0 63 23 63 13 0 32 -6 43 -14 13 -10 23 -11 31 -4 9 7 13 7 13 -1 0 -19 42
-12 64 12 19 21 24 39 16 60 -1 4 -3 13 -4 19 -1 17 -120 38 -246 43 -80 4
-121 0 -172 -13z"/>
<path d="M1540 723 c-48 -9 -165 -45 -176 -54 -18 -15 -22 -54 -8 -67 27 -25
64 -33 80 -17 17 17 83 37 96 29 5 -3 7 -11 5 -17 -2 -7 1 -23 9 -37 7 -14 15
-33 18 -42 6 -20 46 -33 79 -24 27 6 51 57 45 95 -4 26 -2 28 14 17 10 -6 18
-14 18 -19 0 -4 4 -6 9 -2 5 3 16 -2 25 -10 16 -16 61 -14 78 3 5 5 10 24 10
41 1 33 -17 55 -64 80 -16 8 -28 18 -28 23 0 5 -8 4 -19 -1 -10 -6 -20 -8 -23
-6 -7 7 -140 14 -168 8z"/>
</g>
</svg>
