<?xml version="1.0" standalone="no"?>
<!DOCTYPE svg PUBLIC "-//W3C//DTD SVG 20010904//EN"
 "http://www.w3.org/TR/2001/REC-SVG-20010904/DTD/svg10.dtd">
<svg version="1.0" xmlns="http://www.w3.org/2000/svg"
 width="555.000000pt" height="461.000000pt" viewBox="0 0 555.000000 461.000000"
 preserveAspectRatio="xMidYMid meet">
<metadata>
Created by potrace 1.16, written by Peter Selinger 2001-2019
</metadata>
<g transform="translate(0.000000,461.000000) scale(0.100000,-0.100000)"
fill="#000000" stroke="none">
<path d="M635 4520 c-3 -4 -16 -11 -30 -14 -14 -4 -34 -14 -45 -24 -12 -9 -24
-17 -28 -17 -9 0 -55 -33 -90 -64 -15 -13 -37 -30 -49 -38 -13 -9 -23 -23 -23
-32 0 -9 -16 -41 -35 -71 -19 -30 -33 -61 -30 -70 2 -8 6 -33 9 -55 6 -59 17
-95 27 -95 5 0 9 -11 9 -24 0 -60 56 -138 109 -151 13 -3 37 -15 52 -26 15
-10 43 -19 62 -19 19 0 40 -7 47 -15 11 -13 15 -13 41 1 26 13 29 20 30 67 1
61 5 113 13 179 3 25 7 112 9 192 1 80 4 146 7 146 3 0 5 23 4 50 0 38 -5 54
-20 64 -25 17 -63 26 -69 16z m-21 -290 c-3 -69 -7 -143 -10 -165 -3 -22 -7
-51 -8 -65 -2 -14 -4 -30 -4 -37 -3 -19 -37 -25 -66 -12 -14 7 -26 16 -26 20
0 4 -9 10 -20 14 -21 7 -64 129 -62 175 2 31 32 100 44 100 4 0 8 6 8 13 1 19
134 106 142 93 4 -6 5 -67 2 -136z"/>
<path d="M798 4158 c0 -7 -2 -20 -2 -28 -2 -20 41 -49 65 -43 10 3 19 9 19 14
0 4 21 2 48 -6 26 -7 64 -16 86 -20 80 -14 142 -51 223 -133 87 -90 106 -112
98 -112 -3 0 3 -9 14 -21 18 -20 36 -67 28 -75 -2 -2 -41 -5 -87 -6 -85 -2
-109 -12 -119 -49 -4 -16 -4 -15 3 -89 7 -60 14 -560 22 -1474 2 -319 6 -581
7 -583 8 -8 -2 -288 -11 -291 -12 -4 -118 -101 -177 -162 -96 -100 -122 -131
-170 -201 -27 -41 -54 -77 -60 -81 -5 -4 -6 -8 -1 -8 5 0 3 -6 -3 -14 -9 -11
-8 -15 5 -20 18 -7 34 0 34 15 0 6 34 49 75 97 42 48 78 97 81 110 4 13 14 22
25 22 10 0 18 4 17 9 -3 10 113 127 152 154 37 26 42 21 35 -33 -5 -38 -3 -56
9 -75 9 -13 16 -38 16 -55 0 -43 32 -73 68 -63 26 8 619 7 1422 -2 212 -2 504
-4 650 -5 146 0 306 -1 355 -2 228 -4 219 -5 230 20 5 12 19 25 30 28 42 13
53 32 44 75 -5 22 -9 66 -9 97 1 79 -8 363 -14 447 -3 39 -8 189 -12 335 -3
146 -7 300 -8 343 l-2 77 50 1 c48 2 81 1 239 -5 50 -2 67 0 67 10 0 7 7 17
16 22 9 5 14 14 10 20 -5 8 -64 10 -191 7 -101 -3 -186 -1 -188 3 -8 12 -18
226 -22 478 -3 133 -8 306 -11 385 -4 79 -6 169 -4 199 5 97 5 228 0 233 -8 8
-89 15 -96 8 -19 -19 -2235 -4 -2267 16 -4 3 -37 5 -72 4 l-64 0 -40 72 c-22
40 -48 79 -58 89 -10 9 -36 34 -57 57 -22 23 -43 41 -48 41 -4 0 -8 6 -8 14 0
30 -111 103 -185 122 -5 1 -45 11 -87 23 -88 24 -167 28 -170 9z m1387 -543
c77 -3 349 -8 605 -10 256 -3 510 -8 565 -12 90 -5 113 -6 158 -3 6 0 73 -1
147 -4 74 -2 147 -5 162 -5 26 -1 27 -3 27 -63 2 -122 11 -404 16 -478 2 -41
7 -185 10 -320 4 -135 8 -260 9 -277 l3 -33 -51 0 c-28 0 -62 6 -76 13 -18 10
-38 10 -73 3 -33 -6 -65 -5 -99 2 -27 7 -87 12 -132 12 -46 0 -111 3 -145 6
-64 7 -64 11 -1 40 21 10 70 56 70 67 0 12 -26 37 -39 37 -6 0 -11 -7 -11 -15
0 -8 -4 -15 -8 -15 -5 0 -18 -9 -30 -20 -34 -32 -114 -80 -134 -80 -22 0 -34
-41 -19 -68 6 -11 32 -31 58 -44 74 -37 153 -92 153 -106 0 -10 5 -10 20 -2
11 6 19 14 17 18 -1 4 2 8 7 9 5 0 14 9 19 18 10 19 -11 38 -43 41 -8 1 -38
17 -66 36 l-50 34 115 -2 c64 -1 139 -6 166 -11 28 -5 68 -6 91 -3 35 5 170
-4 231 -16 12 -2 24 -12 27 -22 2 -9 7 -136 11 -282 3 -146 8 -368 11 -495 11
-408 10 -500 -3 -498 -6 2 -14 -6 -18 -16 -5 -17 -20 -17 -243 -14 -130 2
-250 2 -267 1 -59 -6 -1117 -2 -1510 5 -220 4 -431 7 -469 7 l-68 0 4 30 c3
16 1 30 -3 30 -4 0 -7 35 -6 78 l0 79 62 42 c35 23 73 51 86 62 29 25 79 52
85 46 3 -2 -10 -17 -29 -33 -26 -23 -32 -35 -27 -54 10 -42 80 -36 80 7 0 14
78 125 92 131 12 5 10 32 -2 32 -5 0 -10 7 -10 16 0 13 -8 15 -35 12 -19 -2
-36 -1 -37 3 -2 4 -24 10 -49 13 -26 3 -54 8 -62 12 -21 7 -50 -35 -36 -52 11
-14 66 -29 88 -25 23 4 3 -16 -31 -30 -18 -7 -40 -20 -49 -29 -10 -8 -24 -20
-32 -26 -15 -13 -95 -64 -99 -64 -2 0 -4 73 -6 163 -2 89 -5 174 -7 188 -15
120 -26 1911 -12 1925 13 14 145 14 155 1 13 -19 42 -100 37 -105 -3 -3 -24 1
-47 8 -24 8 -51 12 -60 11 -10 -1 -18 3 -18 10 0 9 -4 8 -15 -1 -25 -21 -1
-44 79 -74 42 -16 76 -33 76 -38 0 -4 14 -8 31 -8 24 0 32 6 40 29 6 17 19 47
30 67 24 47 24 65 2 57 -12 -5 -15 -2 -10 10 3 9 1 19 -4 23 -15 9 -50 -28
-52 -54 -1 -20 -16 -32 -18 -14 0 4 -2 14 -5 22 -2 8 -7 29 -10 47 l-6 31 274
-4 c150 -2 336 -6 413 -9z"/>
<path d="M3220 3479 c-19 -6 -57 -12 -83 -15 -26 -3 -59 -9 -72 -14 -27 -10
-44 -55 -27 -72 6 -6 7 -21 2 -37 -4 -15 -6 -107 -4 -205 3 -165 2 -178 -16
-196 -14 -14 -16 -20 -6 -20 8 0 17 -11 20 -24 7 -29 49 -41 98 -28 18 4 75 8
125 8 51 -1 93 2 93 5 0 3 56 4 124 2 151 -4 156 -1 157 90 0 34 2 98 4 142 7
136 5 228 -5 240 -5 7 -7 14 -5 17 9 9 15 52 9 70 -9 29 -34 33 -259 41 -66 3
-136 1 -155 -4z"/>
<path d="M1735 3459 c-4 -5 -11 -7 -16 -4 -9 6 -71 -32 -77 -47 -2 -4 -10 -8
-18 -8 -21 0 -53 -31 -69 -65 -34 -78 -54 -172 -43 -211 8 -28 10 -42 24 -131
4 -24 11 -43 15 -43 5 0 8 -3 8 -7 -4 -23 6 -38 51 -83 28 -27 70 -59 94 -70
24 -11 56 -33 72 -49 26 -28 29 -29 55 -16 32 17 35 24 38 95 1 30 9 95 16
143 8 49 14 92 13 95 0 4 1 9 2 12 8 15 12 164 9 295 0 6 2 20 4 31 6 23 -19
68 -32 59 -5 -2 -23 0 -42 5 -20 6 -37 6 -42 1 -6 -6 -19 -6 -33 -1 -14 6 -26
5 -29 -1z"/>
<path d="M2553 2681 c-154 -77 -244 -260 -212 -431 27 -148 111 -232 244 -246
95 -9 101 -9 184 21 29 11 63 30 75 42 11 13 26 23 32 23 11 0 31 33 36 60 2
8 12 22 23 31 28 24 34 164 10 229 -9 25 -18 55 -20 67 -4 27 -36 83 -48 83
-4 0 -6 4 -3 9 7 11 -63 81 -81 81 -7 0 -13 7 -13 16 0 8 -5 12 -10 9 -6 -4
-16 -2 -23 3 -7 5 -32 9 -57 9 -26 0 -55 5 -65 10 -15 8 -32 4 -72 -16z"/>
<path d="M3409 2031 c-14 -5 -52 -7 -85 -6 -32 1 -75 -4 -96 -11 -20 -7 -44
-11 -54 -10 -10 2 -30 -3 -45 -11 -30 -15 -33 -39 -11 -80 7 -12 12 -39 12
-60 0 -21 6 -47 14 -58 14 -21 16 -26 16 -51 0 -8 4 -13 9 -10 5 3 14 0 20 -7
11 -14 45 -16 57 -5 13 14 34 -6 40 -37 11 -60 -30 -99 -115 -109 -23 -2 -48
-9 -55 -16 -17 -13 -36 -86 -36 -135 0 -20 -5 -45 -10 -56 -8 -14 -7 -27 5
-48 20 -40 30 -45 100 -47 33 0 89 -2 125 -3 36 -1 89 0 118 3 30 3 62 1 72
-4 22 -12 66 4 74 27 3 7 1 37 -5 65 -7 31 -9 82 -4 127 13 142 1 447 -20 517
-9 29 -71 41 -126 25z"/>
<path d="M1998 1851 c-16 -9 -28 -23 -28 -32 0 -9 -14 -48 -31 -85 -17 -38
-42 -96 -57 -129 -14 -33 -32 -67 -39 -76 -7 -8 -13 -21 -13 -27 0 -11 -28
-72 -61 -134 -13 -25 -11 -64 4 -75 17 -13 104 -32 147 -33 19 0 64 -3 100 -6
36 -3 101 -7 145 -7 44 -1 86 -6 93 -10 7 -5 12 -3 12 4 0 6 8 9 18 7 10 -3
27 1 37 8 26 19 14 79 -30 145 -19 29 -37 65 -40 80 -3 15 -13 30 -21 33 -8 3
-14 15 -14 26 0 11 -4 20 -9 20 -4 0 -16 21 -26 48 -10 26 -24 55 -32 64 -8 9
-25 47 -37 85 -12 37 -26 76 -32 86 -14 24 -52 27 -86 8z"/>
<path d="M4780 2770 c-8 -5 -26 -10 -40 -10 -14 0 -40 -8 -57 -17 -44 -24
-123 -99 -123 -117 0 -8 -3 -16 -7 -18 -5 -1 -17 -21 -28 -43 -11 -22 -23 -42
-27 -45 -10 -8 -32 -139 -30 -185 1 -22 8 -65 17 -95 8 -30 17 -60 18 -66 2
-7 8 -18 14 -25 6 -8 12 -18 13 -24 3 -15 58 -75 69 -75 5 0 21 -13 34 -30 14
-16 34 -30 44 -30 11 0 23 -4 28 -9 10 -9 92 -31 135 -35 13 -2 36 3 50 11 14
7 40 16 58 19 19 4 36 13 39 20 3 8 11 14 19 14 8 0 33 20 56 44 53 54 71 76
63 76 -4 0 2 15 13 33 11 17 23 55 27 82 5 28 10 57 12 65 7 30 -19 186 -36
220 -10 19 -27 53 -37 74 -19 39 -34 58 -66 84 -23 18 -119 52 -130 46 -5 -3
-16 4 -26 15 -19 24 -79 36 -102 21z m72 -129 c9 -11 36 -23 62 -26 53 -8 87
-44 125 -130 23 -52 37 -205 19 -205 -5 0 -7 -4 -3 -10 11 -17 -23 -77 -74
-131 -28 -29 -51 -50 -51 -46 0 4 -16 0 -36 -8 -48 -20 -83 -19 -146 5 -41 15
-62 32 -96 74 -23 31 -48 72 -55 93 -21 60 -13 213 12 233 3 3 15 23 26 45 25
50 60 86 105 107 48 23 92 22 112 -1z"/>
<path d="M550 714 c-68 -63 -94 -95 -98 -119 -2 -11 -21 -51 -43 -88 -21 -38
-39 -71 -39 -73 0 -2 -15 -27 -34 -56 -18 -29 -36 -63 -40 -75 -4 -11 -13 -24
-21 -27 -8 -3 -15 -12 -15 -20 0 -8 -13 -27 -30 -43 -34 -31 -39 -75 -14 -108
13 -17 26 -19 112 -18 83 2 117 5 142 13 14 5 122 5 173 -1 31 -3 60 -3 63 0
3 3 48 6 100 7 80 1 97 4 109 20 18 26 13 60 -16 92 -38 41 -79 99 -79 111 0
11 -4 20 -33 76 -8 17 -22 44 -31 60 -38 75 -66 140 -66 156 0 9 -7 22 -15 29
-8 6 -17 22 -21 33 -14 44 -72 61 -104 31z m74 -206 c19 -32 40 -73 46 -93 6
-19 16 -35 21 -35 5 0 9 -7 9 -15 0 -9 16 -45 35 -81 19 -35 35 -67 35 -70 0
-3 -35 -5 -77 -4 -43 1 -135 -1 -205 -5 -88 -5 -128 -4 -128 3 0 6 5 14 10 17
6 3 10 13 10 22 0 9 24 55 54 102 30 47 70 116 89 152 50 96 49 95 59 78 5 -8
24 -40 42 -71z"/>
</g>
</svg>
