<?xml version="1.0" standalone="no"?>
<!DOCTYPE svg PUBLIC "-//W3C//DTD SVG 20010904//EN"
 "http://www.w3.org/TR/2001/REC-SVG-20010904/DTD/svg10.dtd">
<svg version="1.0" xmlns="http://www.w3.org/2000/svg"
 width="469.000000pt" height="453.000000pt" viewBox="0 0 469.000000 453.000000"
 preserveAspectRatio="xMidYMid meet">
<metadata>
Created by potrace 1.16, written by Peter Selinger 2001-2019
</metadata>
<g transform="translate(0.000000,453.000000) scale(0.100000,-0.100000)"
fill="#000000" stroke="none">
<path d="M2330 4448 c-19 -5 -50 -12 -67 -15 -18 -3 -33 -9 -33 -15 0 -5 -4
-7 -9 -3 -5 3 -12 1 -16 -5 -3 -5 -14 -10 -24 -10 -20 0 -124 -50 -129 -62 -2
-4 -9 -8 -16 -8 -6 0 -26 -13 -44 -30 -18 -16 -37 -30 -41 -30 -4 0 -24 -17
-43 -37 -49 -52 -107 -105 -144 -131 -18 -12 -47 -45 -65 -74 -18 -29 -48 -77
-68 -107 -67 -101 -102 -178 -161 -358 -14 -40 -26 -73 -27 -73 -7 0 -58 35
-65 44 -13 19 -111 19 -154 -1 -118 -53 -169 -148 -144 -268 6 -27 13 -63 16
-80 3 -16 11 -33 17 -37 7 -4 8 -8 2 -8 -7 0 -7 -3 0 -8 11 -8 75 -100 75
-108 0 -4 50 -53 93 -90 6 -6 23 -26 37 -44 14 -18 30 -38 36 -44 24 -25 64
-105 68 -137 3 -19 10 -54 16 -79 6 -25 15 -61 19 -80 4 -19 35 -89 69 -155
34 -66 62 -125 62 -132 0 -7 5 -13 10 -13 6 0 10 -4 10 -9 0 -12 77 -128 102
-155 20 -22 24 -51 8 -61 -6 -4 1 -16 17 -28 15 -12 32 -27 36 -34 4 -7 15
-13 22 -13 8 0 15 -7 15 -15 0 -8 4 -15 9 -15 5 0 12 -12 16 -27 3 -16 16 -38
27 -50 l20 -22 -33 -20 c-19 -12 -36 -22 -39 -23 -3 -2 -15 -16 -28 -32 -12
-16 -22 -26 -22 -23 0 4 -22 -15 -49 -42 -51 -50 -77 -88 -73 -108 1 -6 -2
-14 -8 -18 -5 -3 -10 -16 -10 -29 0 -12 -5 -27 -11 -33 -7 -7 -14 -33 -16 -59
-2 -27 -8 -53 -13 -59 -9 -11 -31 -88 -32 -115 0 -8 -4 -19 -8 -25 -4 -5 -11
-32 -15 -59 -8 -55 -18 -78 -55 -117 -14 -15 -41 -47 -60 -72 -19 -25 -43 -48
-53 -50 -10 -3 -16 -10 -15 -15 2 -5 -15 -24 -37 -43 -22 -19 -79 -72 -126
-119 -47 -47 -95 -92 -108 -100 -13 -8 -29 -21 -37 -28 -7 -6 -18 -12 -24 -12
-6 0 -9 -4 -6 -9 6 -9 -22 -26 -37 -22 -4 0 -10 -6 -13 -14 -3 -8 -10 -13 -14
-10 -12 8 -40 -35 -40 -61 0 -57 81 -88 120 -47 11 12 20 24 20 27 0 10 96
101 133 126 20 14 37 30 37 35 0 6 13 17 29 27 16 9 38 29 48 45 10 15 29 37
42 47 13 11 38 35 55 54 17 19 66 69 108 110 43 42 78 80 78 85 0 5 6 15 14
22 7 8 26 60 41 117 15 57 36 129 47 161 10 32 16 62 14 66 -5 7 9 57 36 132
17 45 60 109 74 109 5 0 23 18 40 39 16 22 33 37 38 34 4 -3 12 1 17 8 10 16
10 16 14 -89 4 -70 14 -89 63 -109 18 -7 32 -21 32 -31 1 -21 23 -52 38 -52 6
0 17 -8 24 -18 33 -44 127 -63 308 -61 324 2 315 1 470 67 160 68 190 97 164
159 -17 42 1 45 38 6 52 -56 58 -73 45 -128 -14 -60 -45 -113 -69 -121 -10 -3
-18 -9 -18 -14 0 -4 -22 -22 -50 -39 -27 -17 -50 -35 -50 -41 0 -5 -9 -10 -19
-10 -11 0 -23 -5 -26 -10 -3 -5 -14 -10 -24 -10 -10 0 -24 -7 -31 -15 -7 -9
-20 -15 -29 -14 -34 4 -101 -41 -101 -68 0 -30 32 -63 62 -63 28 0 97 32 126
58 7 6 20 12 29 12 9 0 26 11 39 25 13 14 30 25 39 25 8 0 15 4 15 9 0 9 29
23 40 19 3 -1 19 11 35 26 45 42 64 50 71 31 4 -9 1 -28 -6 -43 -8 -15 -13
-31 -12 -35 2 -5 -7 -21 -18 -37 -11 -15 -20 -31 -20 -34 0 -12 -88 -96 -100
-96 -7 0 -10 -3 -7 -7 8 -7 -48 -50 -77 -59 -12 -3 -50 -17 -86 -31 -36 -14
-75 -27 -88 -29 -32 -3 -49 -20 -54 -53 -3 -24 1 -32 25 -46 25 -15 34 -16 75
-4 45 12 142 59 227 109 22 13 61 46 88 73 l47 49 0 -57 c0 -72 -23 -106 -158
-240 -52 -52 -83 -65 -162 -71 -60 -4 -117 -17 -142 -32 -21 -12 -26 -21 -23
-46 2 -16 12 -34 22 -40 21 -12 83 -15 83 -3 0 4 17 7 38 7 21 0 62 6 92 14
30 8 59 12 64 9 5 -4 6 -1 3 4 -4 6 7 16 23 23 17 7 30 15 30 19 0 3 16 18 35
34 68 54 12 -38 -74 -122 -64 -62 -191 -127 -191 -98 0 9 -2 9 -8 1 -4 -7 -27
-18 -52 -27 -48 -16 -167 -16 -420 -1 -158 10 -183 9 -305 -11 -55 -9 -111
-17 -125 -18 -14 -2 -29 -5 -35 -9 -21 -13 -111 -35 -135 -33 -14 1 -28 -2
-31 -8 -9 -13 -81 -25 -105 -17 -23 9 -69 -13 -78 -35 -10 -27 -6 -59 9 -79
19 -25 62 -24 144 3 35 12 74 21 86 21 13 0 25 4 27 9 2 5 28 12 58 15 66 7
103 16 111 28 3 5 21 11 40 14 19 3 48 7 64 10 40 6 229 6 285 0 165 -18 199
-19 357 -12 23 1 48 7 55 13 15 12 90 38 101 35 4 -1 10 4 13 11 3 9 15 12 31
9 14 -3 28 -1 32 4 3 5 20 16 38 24 30 14 133 104 133 116 0 3 12 18 28 33 37
37 62 69 62 81 0 6 4 10 9 10 11 0 21 70 23 153 1 32 5 60 10 63 17 11 36 73
38 125 5 112 1 137 -20 144 -23 7 -25 18 -7 37 6 7 13 19 15 26 1 7 8 33 14
56 9 36 8 56 -5 112 -10 38 -21 70 -25 72 -5 1 -5 27 -2 58 3 30 2 58 -3 61
-5 3 -7 18 -5 34 3 16 1 29 -4 29 -4 0 -8 6 -8 13 0 20 -70 88 -157 152 -11 8
-10 23 7 90 28 107 38 131 64 148 12 8 43 46 68 84 25 38 57 80 71 93 41 42
60 77 45 83 -8 3 -9 6 -1 6 15 1 108 194 136 282 17 54 27 71 45 75 12 4 35
23 50 43 15 20 30 38 35 39 4 2 5 7 2 12 -2 4 4 15 15 25 11 10 20 23 20 30 0
7 14 26 30 43 17 18 30 34 30 38 0 3 14 25 30 48 91 126 140 255 139 361 -1
70 -9 89 -52 134 -44 46 -95 65 -135 50 -15 -6 -29 -11 -32 -12 -3 -1 -21 -9
-40 -18 -19 -10 -36 -17 -37 -16 0 1 -4 25 -7 52 -3 28 -13 77 -22 110 -8 33
-19 86 -25 117 -5 32 -15 74 -24 94 -8 19 -14 38 -13 42 1 4 -4 20 -10 35 -7
16 -12 32 -12 37 0 17 -34 80 -42 80 -5 0 -6 5 -3 10 3 6 1 10 -4 10 -6 0 -11
6 -12 13 0 6 -11 32 -24 57 -13 25 -31 61 -40 80 -9 19 -29 49 -45 65 -142
147 -193 195 -210 195 -11 0 -20 5 -20 11 0 5 -4 7 -10 4 -5 -3 -22 3 -37 15
-16 11 -43 22 -60 24 -18 3 -37 7 -42 10 -43 27 -437 45 -511 24z m174 -107
c11 -9 16 -9 21 0 10 15 260 0 288 -18 13 -8 19 -9 59 -11 15 -1 33 -9 41 -17
8 -7 26 -17 40 -20 49 -13 238 -221 253 -279 3 -14 10 -26 15 -26 5 0 9 -6 9
-12 0 -16 42 -101 53 -109 5 -3 8 -8 7 -10 -1 -2 2 -15 8 -29 29 -78 44 -130
48 -169 4 -40 27 -136 54 -221 6 -19 10 -60 10 -90 0 -30 -1 -107 0 -170 0
-64 -3 -127 -6 -140 -2 -14 -6 -55 -8 -91 -2 -37 -6 -71 -9 -76 -3 -5 -8 -27
-11 -48 -7 -52 -54 -231 -72 -272 -8 -18 -20 -48 -28 -65 -51 -120 -80 -178
-87 -178 -5 0 -9 -6 -9 -14 0 -8 -18 -38 -39 -67 -22 -30 -50 -68 -63 -86 -13
-17 -37 -41 -55 -53 -17 -12 -36 -35 -42 -51 -5 -16 -16 -29 -23 -29 -8 0 -28
-16 -47 -35 -18 -19 -37 -35 -42 -35 -5 0 -30 -15 -56 -33 -52 -36 -122 -60
-218 -75 -94 -15 -119 -13 -235 14 -14 4 -50 9 -80 13 -33 4 -84 22 -130 45
-91 46 -163 88 -170 97 -3 4 -27 24 -55 44 -119 90 -191 185 -296 395 -72 144
-93 209 -86 261 3 24 0 50 -8 67 -34 67 -47 291 -31 502 5 52 10 98 13 103 2
4 6 19 9 33 3 14 11 51 19 82 8 31 15 63 15 72 0 8 6 26 13 40 7 14 21 48 31
75 27 75 72 159 137 258 32 49 59 93 59 98 0 5 4 9 8 9 5 0 40 29 78 65 38 35
72 64 75 65 4 0 22 14 40 30 19 17 48 38 64 47 17 9 48 28 70 43 22 15 61 33
85 40 25 7 54 16 65 20 20 8 56 18 105 27 13 2 26 6 28 7 6 6 72 -12 86 -23z
m-1134 -916 c29 -19 51 -64 45 -92 -8 -45 -19 -201 -19 -291 l-1 -83 -48 48
c-26 26 -62 62 -79 78 -40 39 -77 120 -91 199 -10 61 -10 64 18 102 36 51 88
75 130 60 17 -6 37 -15 45 -21z m2317 -137 c18 -16 23 -32 23 -67 0 -56 -29
-164 -52 -190 -9 -10 -24 -35 -33 -55 -10 -20 -21 -36 -26 -36 -5 0 -9 -7 -9
-15 0 -8 -4 -15 -10 -15 -5 0 -10 -6 -10 -13 0 -8 -9 -22 -20 -32 -11 -10 -31
-38 -45 -62 -15 -24 -31 -41 -37 -37 -7 4 -7 9 0 13 17 10 34 156 36 316 2 83
6 157 10 163 4 7 18 12 32 12 13 0 24 3 24 8 0 11 41 29 69 31 14 0 35 -9 48
-21z m-1667 -1463 c22 -14 59 -32 82 -41 24 -9 59 -24 79 -35 20 -10 45 -19
56 -19 11 0 23 -3 27 -7 4 -4 21 -8 39 -9 18 -1 68 -7 112 -13 132 -19 199
-15 289 15 103 34 163 62 200 94 25 22 28 23 21 5 -5 -11 -8 -30 -8 -42 1 -13
-2 -23 -6 -23 -4 0 -9 -24 -10 -52 -1 -29 -3 -72 -4 -94 -4 -66 -38 -92 -176
-134 -59 -18 -99 -23 -205 -23 -200 -1 -356 14 -356 34 0 5 -7 9 -15 9 -8 0
-15 4 -15 10 0 5 -7 7 -15 4 -8 -4 -15 -2 -15 3 0 17 -44 31 -69 21 -20 -7
-22 -6 -12 6 7 8 10 25 7 38 -3 12 -8 37 -10 53 -11 72 -35 191 -41 208 -9 23
-2 22 45 -8z"/>
<path d="M2035 3465 c-3 -8 -7 -22 -10 -31 -3 -8 6 -26 19 -39 30 -30 19 -41
-45 -48 -67 -7 -89 -21 -89 -60 0 -43 12 -58 41 -53 13 3 27 5 32 5 4 1 7 8 7
16 0 8 3 16 8 16 17 3 69 10 87 12 11 1 23 6 27 11 10 15 43 -25 40 -49 -2
-12 6 -32 16 -45 l20 -24 41 18 c22 11 41 20 41 21 0 1 -7 22 -15 45 -8 24
-13 45 -10 48 3 3 5 1 5 -5 0 -13 57 -37 83 -35 23 1 37 19 37 47 0 32 -15 47
-50 51 -18 2 -39 9 -46 15 -7 6 -29 11 -49 12 -19 1 -35 6 -35 11 0 6 -5 4
-10 -4 -9 -13 -14 -10 -35 15 -14 17 -25 33 -25 36 0 8 -48 29 -66 29 -8 0
-17 -7 -19 -15z"/>
<path d="M2956 3405 c-9 -9 -32 -19 -51 -22 -19 -3 -35 -9 -35 -13 0 -4 -26
-9 -58 -12 -40 -3 -69 -11 -91 -27 -18 -13 -35 -21 -38 -17 -8 8 -39 -35 -46
-64 -5 -20 -1 -27 19 -37 32 -15 74 -7 92 18 13 19 49 28 37 10 -3 -5 -1 -12
5 -16 6 -4 8 -11 4 -16 -3 -6 2 -19 11 -29 16 -18 20 -18 46 -4 16 8 29 18 29
22 0 4 11 19 25 34 29 31 69 30 97 -2 9 -11 21 -20 27 -20 6 0 11 -4 11 -9 0
-19 59 11 67 32 16 48 -9 85 -70 108 -30 10 -34 16 -33 43 1 35 -23 46 -48 21z"/>
<path d="M2302 2831 c-6 -3 -15 -18 -21 -33 -8 -21 -6 -31 10 -50 18 -20 29
-23 100 -23 43 0 79 -3 79 -7 0 -19 38 -5 56 20 17 23 19 32 10 62 -13 42 -23
45 -101 29 -45 -9 -70 -9 -92 -2 -17 6 -35 8 -41 4z"/>
<path d="M2500 2650 c-6 -12 -17 -16 -35 -12 -16 3 -33 -2 -45 -13 -16 -15
-22 -16 -35 -5 -13 11 -26 11 -63 2 -26 -6 -63 -14 -82 -18 -19 -3 -41 -10
-50 -15 -8 -4 -40 -12 -71 -18 -33 -6 -80 -24 -110 -43 -30 -19 -65 -39 -79
-46 -40 -20 -67 -70 -68 -128 -2 -53 20 -94 50 -94 8 0 19 -5 25 -11 6 -6 31
-10 55 -9 91 6 222 0 232 -10 6 -6 12 -41 13 -78 4 -79 7 -99 16 -108 4 -4 7
-13 7 -21 0 -51 120 -153 180 -153 50 0 117 51 165 123 23 35 55 127 55 157 0
15 6 35 14 45 13 18 16 18 33 4 28 -23 227 -25 262 -3 23 15 44 40 46 54 1 3
8 19 17 35 8 17 18 57 22 91 6 57 5 63 -23 98 -16 20 -31 40 -33 44 -2 4 -33
22 -70 41 -38 19 -68 37 -68 41 0 4 -17 11 -37 15 -21 4 -42 10 -48 15 -19 14
-119 33 -193 35 -60 2 -74 -1 -82 -15z m158 -98 c28 -4 32 -8 32 -34 0 -19 -4
-27 -12 -22 -7 5 -8 3 -3 -5 4 -8 -2 -35 -15 -65 -13 -28 -30 -67 -38 -86 -9
-19 -17 -44 -18 -55 -1 -11 -5 -29 -8 -40 -3 -11 -12 -49 -21 -84 -9 -36 -21
-71 -27 -78 -6 -7 -18 -28 -28 -45 -22 -42 -64 -73 -82 -62 -7 5 -19 9 -27 10
-15 3 -40 27 -64 65 -20 30 -31 180 -15 214 6 13 7 32 3 42 -14 33 -12 96 4
113 9 9 17 22 18 30 1 8 8 31 14 51 12 34 15 35 83 46 76 12 89 10 64 -10 -14
-10 -29 -59 -42 -132 -1 -11 -6 -27 -9 -35 -3 -8 -8 -44 -12 -80 -3 -36 -11
-90 -17 -121 -14 -71 -7 -95 24 -78 31 16 38 30 27 50 -5 11 -5 28 2 47 5 16
9 33 8 38 -5 19 14 120 28 151 8 18 12 37 9 42 -4 6 -3 18 2 28 6 10 14 29 20
43 32 82 32 82 50 74 9 -4 32 -9 50 -12z"/>
<path d="M1296 2241 c-12 -13 -15 -27 -11 -42 4 -12 8 -27 9 -33 15 -78 30
-133 38 -143 6 -7 8 -22 5 -33 -3 -11 -2 -20 3 -20 4 0 15 -32 25 -72 19 -81
34 -118 47 -118 4 0 8 -10 8 -23 0 -47 47 -63 72 -25 14 21 13 25 -8 53 -21
28 -65 159 -77 230 -3 17 -11 45 -17 63 -7 18 -10 45 -7 59 8 44 -29 123 -59
123 -6 0 -19 -9 -28 -19z"/>
<path d="M3525 2200 c-11 -5 -17 -9 -14 -9 14 -2 -13 -95 -51 -175 -22 -47
-40 -89 -40 -94 0 -5 -18 -24 -40 -42 -22 -18 -40 -39 -40 -46 0 -6 -7 -15
-16 -18 -11 -4 -14 -17 -12 -43 3 -35 6 -38 35 -41 29 -3 37 4 92 74 34 42 61
83 61 90 0 7 5 25 11 41 6 15 9 29 7 30 -2 1 6 12 18 25 48 54 76 181 45 205
-18 14 -28 15 -56 3z"/>
<path d="M1034 2178 c-14 -23 -14 -73 0 -108 8 -20 17 -53 20 -74 4 -22 14
-65 23 -95 9 -31 18 -58 18 -61 5 -17 19 -49 31 -72 8 -14 14 -32 14 -39 0
-26 53 -119 68 -119 16 0 62 45 62 60 0 5 -13 31 -28 57 -28 47 -52 107 -75
188 -7 22 -15 45 -19 51 -4 7 -12 45 -18 85 -6 40 -15 76 -21 79 -5 4 -9 11
-8 16 6 32 -3 44 -30 44 -17 0 -33 -5 -37 -12z"/>
<path d="M3790 2127 c-34 -15 -34 -14 -36 -45 -2 -15 -10 -58 -18 -97 -9 -38
-16 -78 -16 -88 0 -20 -48 -93 -90 -138 -62 -66 -72 -80 -76 -107 -6 -37 14
-54 54 -46 24 5 34 14 44 40 7 19 18 34 25 34 7 0 13 5 13 11 0 5 18 36 39 68
34 49 66 131 112 277 22 72 -1 112 -51 91z"/>
<path d="M806 2025 c-27 -25 -27 -27 -21 -117 3 -50 7 -94 9 -97 2 -3 7 -32
10 -63 3 -32 10 -68 15 -81 6 -16 6 -28 -1 -35 -7 -7 4 -17 38 -32 l48 -22 18
22 c19 23 22 100 4 100 -4 0 -6 7 -2 15 3 8 1 15 -5 15 -6 0 -7 5 -4 10 3 6 2
10 -4 10 -6 0 -8 7 -5 15 4 8 1 22 -6 30 -7 8 -12 53 -13 112 -1 54 -7 103
-12 108 -35 35 -41 36 -69 10z"/>
<path d="M3996 1913 c-4 -16 -8 -39 -11 -53 -18 -97 -45 -161 -80 -188 -48
-38 -42 -112 9 -112 21 1 56 21 56 34 0 4 16 31 35 61 49 77 79 174 70 228 -8
45 -18 57 -52 57 -15 0 -23 -8 -27 -27z"/>
</g>
</svg>
