<?xml version="1.0" standalone="no"?>
<!DOCTYPE svg PUBLIC "-//W3C//DTD SVG 20010904//EN"
 "http://www.w3.org/TR/2001/REC-SVG-20010904/DTD/svg10.dtd">
<svg version="1.0" xmlns="http://www.w3.org/2000/svg"
 width="459.000000pt" height="409.000000pt" viewBox="0 0 459.000000 409.000000"
 preserveAspectRatio="xMidYMid meet">
<metadata>
Created by potrace 1.16, written by Peter Selinger 2001-2019
</metadata>
<g transform="translate(0.000000,409.000000) scale(0.100000,-0.100000)"
fill="#000000" stroke="none">
<path d="M3070 3560 c-14 -4 -35 -5 -47 -3 -11 3 -30 0 -40 -5 -10 -6 -37 -13
-59 -16 -23 -4 -54 -10 -70 -14 -32 -9 -64 -5 -64 7 0 10 -63 -1 -100 -17 -14
-6 -64 -23 -112 -38 -49 -15 -93 -33 -99 -40 -6 -8 -15 -14 -20 -14 -5 0 -31
-16 -58 -35 -26 -19 -53 -35 -59 -35 -6 0 -12 -3 -14 -7 -4 -11 -67 -43 -84
-43 -8 0 -14 -5 -14 -12 0 -6 -3 -8 -7 -5 -3 4 -16 -2 -27 -12 -12 -11 -25
-21 -31 -22 -34 -7 -45 -12 -45 -19 0 -20 -96 -49 -215 -64 -71 -9 -141 -20
-155 -23 -14 -3 -54 -9 -90 -13 -36 -4 -78 -11 -95 -15 -41 -10 -95 -13 -275
-19 -403 -14 -586 -15 -617 -5 -58 19 -114 -33 -85 -79 7 -10 44 -10 183 -1
96 6 275 12 399 14 259 3 319 8 527 41 84 13 169 24 190 24 47 0 228 33 266
49 16 6 57 31 92 56 34 25 67 45 71 45 5 0 25 11 45 24 46 31 97 60 184 104
53 27 85 36 130 38 33 1 78 8 100 14 142 40 384 65 399 41 4 -6 18 -11 31 -11
31 0 132 -52 174 -90 18 -16 38 -30 42 -30 5 0 9 -7 9 -15 0 -8 5 -15 11 -15
15 0 103 -94 141 -150 9 -14 39 -49 67 -79 56 -59 86 -135 76 -193 -19 -112
-26 -143 -39 -157 -8 -9 -17 -32 -21 -53 -4 -20 -14 -45 -23 -55 -10 -10 -29
-35 -44 -55 -37 -48 -79 -69 -118 -58 -17 5 -33 8 -37 8 -3 -1 -16 9 -29 21
l-22 22 28 78 c16 43 27 81 24 84 -3 3 6 25 20 50 16 27 26 57 24 76 -2 29 -5
31 -40 31 -44 0 -57 -18 -51 -72 2 -20 -1 -39 -6 -43 -6 -3 -11 -13 -11 -21 0
-18 -59 -139 -98 -200 -27 -44 -62 -70 -103 -78 -13 -2 -32 -7 -41 -11 -10 -4
-30 1 -46 10 -30 18 -59 55 -43 55 5 0 12 17 16 38 4 20 13 51 20 67 30 71 68
212 63 237 -2 7 -14 16 -28 20 -39 12 -65 -21 -62 -79 1 -25 -2 -51 -7 -57 -4
-6 -11 -27 -15 -46 -3 -19 -18 -59 -32 -87 -14 -29 -23 -57 -19 -63 3 -5 1
-10 -5 -10 -6 0 -15 -12 -21 -27 -13 -38 -64 -70 -121 -76 -84 -8 -102 29 -61
121 15 31 28 66 30 77 2 11 7 29 12 40 19 41 31 92 36 161 6 67 5 73 -16 88
-21 15 -25 14 -45 -5 -19 -18 -22 -29 -19 -75 3 -39 -2 -68 -15 -100 -11 -25
-20 -56 -20 -68 0 -36 -59 -142 -109 -196 -39 -42 -54 -50 -99 -58 -60 -11
-108 5 -149 50 -18 20 -30 61 -23 78 10 22 6 61 -9 76 -9 11 -17 21 -17 24 0
3 -4 12 -10 22 -13 23 -58 12 -74 -17 -11 -21 -48 -42 -85 -50 -5 -1 -12 -3
-15 -4 -3 -2 -30 -4 -60 -5 -30 -1 -65 -8 -77 -14 -23 -13 -202 -34 -215 -26
-4 2 -9 0 -12 -4 -3 -5 -17 -7 -30 -5 -14 3 -49 -1 -78 -8 -29 -7 -66 -13 -83
-15 -107 -8 -168 -15 -177 -20 -5 -4 -44 -9 -86 -11 -43 -3 -93 -12 -112 -20
-19 -8 -62 -17 -95 -20 -33 -3 -68 -10 -77 -15 -10 -4 -67 -9 -128 -9 l-110 0
-15 -30 c-22 -42 -5 -71 38 -68 18 2 37 6 42 10 6 4 44 10 85 14 41 3 101 13
133 21 32 8 76 14 97 14 20 0 57 7 81 15 24 9 87 21 139 26 52 6 111 12 130
14 19 2 51 7 70 11 19 3 67 8 105 11 81 5 90 6 250 26 66 8 123 13 127 11 4
-2 26 0 50 5 24 6 55 12 70 15 15 2 31 7 36 10 7 4 13 -7 43 -84 25 -64 86
-119 142 -126 99 -12 157 2 207 51 30 29 40 34 46 23 5 -8 23 -25 41 -38 45
-33 138 -24 212 20 l53 31 53 -26 c79 -37 159 -29 205 20 13 14 28 25 33 25 6
0 18 7 28 16 16 15 22 13 76 -15 72 -39 112 -44 156 -23 37 18 107 77 107 89
0 4 18 27 39 50 22 23 44 57 50 76 11 33 31 45 86 52 21 2 61 29 88 58 21 24
27 40 27 77 0 25 4 50 9 56 5 5 11 34 14 64 4 54 -3 90 -26 140 -17 35 -105
117 -133 124 -14 4 -49 22 -79 41 -30 19 -58 35 -63 35 -11 0 -92 59 -122 90
-14 14 -43 39 -65 55 -22 17 -44 35 -50 41 -18 18 -85 65 -85 59 0 -4 -17 2
-37 13 -77 39 -180 58 -233 42z m660 -435 c11 -13 10 -14 -4 -9 -9 3 -16 10
-16 15 0 13 6 11 20 -6z m73 -58 c47 -63 60 -97 52 -146 -3 -25 -9 -66 -12
-91 -2 -24 -12 -53 -20 -65 -15 -20 -15 -20 -8 0 9 25 12 125 3 125 -3 0 -9
27 -13 60 -4 33 -18 82 -31 108 -28 56 -28 53 -10 46 8 -3 26 -20 39 -37z"/>
<path d="M4295 3414 c-6 -2 -10 -20 -9 -40 1 -19 -6 -70 -16 -112 -10 -42 -24
-122 -30 -177 -19 -166 -60 -337 -136 -567 -37 -112 -83 -214 -83 -187 -1 9
-10 24 -20 33 -22 20 -109 30 -131 16 -17 -10 -18 -56 -5 -175 4 -38 8 -116 9
-172 1 -97 2 -104 27 -129 35 -34 75 -38 113 -11 17 11 34 26 38 32 4 5 13 10
20 10 7 1 12 6 11 12 -1 5 9 16 23 24 14 7 32 26 40 41 8 15 19 28 24 28 6 0
27 18 49 40 21 22 41 37 45 33 3 -3 6 1 6 11 0 9 4 15 8 12 10 -6 43 30 58 64
7 16 8 34 2 49 -9 25 -48 79 -48 66 0 -4 -6 -2 -13 4 -8 6 -16 8 -19 5 -4 -3
-20 -8 -37 -10 -30 -5 -31 -4 -27 21 3 15 11 37 19 49 8 12 18 37 22 56 4 19
11 40 15 45 5 6 15 37 24 70 8 33 27 103 41 155 41 147 57 220 61 285 7 131
12 351 7 376 -7 35 -54 58 -88 43z"/>
<path d="M2522 2847 c-14 -17 -31 -92 -32 -139 0 -20 -4 -40 -10 -43 -5 -3
-10 -17 -10 -30 0 -13 -5 -36 -12 -50 -10 -21 -9 -29 5 -43 16 -15 20 -15 44
-2 28 16 37 38 46 116 8 66 15 94 25 108 5 6 13 21 17 34 13 43 -46 82 -73 49z"/>
<path d="M430 2759 c0 -5 -4 -8 -9 -5 -15 9 -53 -32 -52 -56 4 -127 32 -314
71 -483 16 -66 36 -154 45 -195 9 -41 25 -106 35 -145 11 -38 22 -81 24 -95
11 -55 23 -97 34 -117 16 -29 15 -33 -5 -33 -20 0 -60 -39 -63 -60 -8 -55 -4
-60 130 -171 84 -70 124 -119 144 -176 7 -21 18 -38 25 -38 6 0 15 -5 19 -11
11 -18 57 -10 95 16 19 13 34 28 31 31 -2 4 0 10 6 14 16 10 12 66 -10 123
-11 29 -20 70 -20 93 0 22 -4 48 -9 57 -5 10 -3 41 5 77 21 101 4 142 -66 158
-37 9 -86 -23 -93 -62 -8 -37 -27 -42 -27 -7 0 13 -5 26 -11 28 -6 2 -20 39
-30 83 -11 44 -34 134 -51 200 -16 66 -31 131 -32 145 -1 14 -7 41 -13 60 -39
126 -55 241 -57 414 l-1 129 -35 18 c-38 21 -80 25 -80 8z"/>
<path d="M3270 2148 c-1 -14 -34 -58 -45 -58 -3 0 -18 -13 -32 -30 -13 -16
-33 -30 -44 -30 -10 0 -38 -19 -61 -42 -48 -48 -147 -118 -165 -118 -7 0 -17
-9 -23 -20 -6 -11 -30 -28 -53 -39 -23 -11 -52 -29 -64 -41 -13 -11 -23 -17
-23 -13 0 4 -5 2 -12 -5 -7 -7 -19 -12 -28 -12 -8 0 -21 -9 -28 -20 -7 -11
-18 -20 -25 -21 -6 0 -34 -11 -62 -24 -43 -20 -61 -23 -125 -18 -41 2 -83 10
-95 16 -23 13 -18 11 -114 32 -41 9 -83 23 -94 30 -10 7 -27 11 -37 8 -10 -3
-39 8 -65 23 -31 18 -65 28 -99 30 -28 2 -72 6 -98 9 -61 7 -87 -5 -191 -90
-26 -22 -87 -127 -87 -151 0 -8 -6 -22 -12 -30 -27 -32 -82 -83 -86 -79 -2 2
-15 -6 -29 -19 -18 -17 -26 -39 -33 -84 -9 -66 -4 -98 30 -170 12 -24 19 -49
17 -55 -3 -7 7 -24 21 -39 18 -19 26 -40 27 -70 2 -24 8 -56 14 -73 7 -16 10
-37 8 -47 -3 -10 -1 -20 4 -23 4 -3 6 -11 3 -18 -7 -20 42 -57 94 -69 41 -9
48 -14 50 -36 1 -14 6 -30 11 -36 5 -6 10 -14 11 -18 8 -34 17 -47 53 -76 29
-24 49 -33 67 -30 23 3 26 1 22 -18 -2 -13 4 -30 15 -41 10 -11 29 -34 43 -51
35 -44 92 -82 132 -89 81 -14 286 0 368 25 71 22 135 39 192 51 49 11 168 62
168 73 0 4 6 8 13 8 8 0 33 15 57 32 24 18 51 38 61 44 35 21 139 124 139 138
0 3 19 33 43 68 24 35 52 88 62 118 11 30 22 60 26 65 8 12 24 77 21 88 -3 10
23 37 35 37 18 0 205 100 242 129 22 18 63 48 92 68 29 19 67 51 86 69 18 19
40 34 47 34 20 0 59 37 51 49 -3 6 0 11 8 11 8 0 18 7 21 17 7 18 -21 49 -44
47 -34 -2 -40 -4 -40 -14 0 -17 -111 -120 -129 -120 -5 0 -11 -4 -13 -8 -3 -8
-95 -72 -103 -72 -3 0 -26 -15 -52 -34 -49 -34 -196 -106 -218 -106 -28 0 -73
-76 -73 -125 0 -11 -6 -40 -12 -65 -12 -46 -19 -77 -23 -96 -2 -6 -15 -26 -30
-43 -15 -18 -27 -39 -27 -46 0 -8 -9 -17 -20 -20 -11 -3 -20 -10 -20 -16 0
-11 -32 -49 -41 -49 -10 0 -53 -37 -91 -77 -17 -18 -37 -33 -45 -33 -7 0 -13
-4 -13 -10 0 -5 -8 -10 -19 -10 -10 0 -29 -9 -43 -19 -13 -11 -41 -22 -61 -26
-20 -4 -37 -11 -37 -16 0 -14 -43 -28 -99 -31 -28 -2 -51 -6 -51 -10 0 -11
-71 -31 -130 -35 -30 -3 -102 -5 -159 -6 -93 -2 -107 0 -134 20 -53 39 -91 83
-81 93 6 6 45 14 88 20 42 5 81 12 86 15 4 3 29 7 55 10 53 5 77 19 68 41 -3
8 1 14 11 14 22 0 21 37 -2 49 -19 10 -74 3 -83 -11 -3 -5 -34 -13 -68 -18
-33 -5 -77 -14 -97 -20 -22 -7 -65 -10 -112 -7 -69 5 -79 9 -100 34 -22 28
-37 61 -30 68 2 2 44 9 93 15 50 6 110 18 135 26 25 8 57 14 72 14 39 0 58 10
58 31 0 10 6 18 13 17 14 -3 11 30 -5 49 -11 14 -44 9 -93 -13 -72 -32 -230
-52 -367 -46 -30 2 -40 8 -52 30 -8 16 -15 47 -14 69 0 22 -5 50 -11 62 -11
20 -8 23 44 46 30 14 61 25 68 25 7 0 34 11 61 25 27 14 57 25 65 25 9 0 31 9
49 20 18 11 44 20 58 20 31 0 56 23 48 45 -4 10 -2 15 7 13 8 -2 14 3 13 10
-1 6 -2 19 -2 27 -1 10 -13 15 -31 15 -16 0 -34 -7 -41 -15 -7 -8 -18 -15 -25
-15 -7 0 -36 -16 -65 -35 -29 -19 -63 -35 -77 -35 -23 0 -45 -6 -163 -45 -59
-19 -88 -6 -81 38 1 4 -8 27 -18 51 -36 79 -17 118 94 191 28 18 68 38 90 44
22 7 49 16 60 21 69 29 204 42 440 42 248 -1 367 13 417 49 15 10 34 19 42 19
8 0 18 5 21 10 3 6 50 35 103 66 86 50 136 82 222 141 14 10 32 25 40 33 15
16 154 122 200 152 78 52 106 98 78 126 -16 16 -78 16 -78 0z m-1305 -446 c22
-5 54 -17 70 -26 17 -9 39 -16 50 -16 22 0 91 -22 101 -32 3 -4 -11 -4 -33 -2
-21 2 -42 5 -48 5 -5 1 -53 -2 -105 -5 -93 -7 -133 -14 -215 -41 -22 -7 -52
-16 -67 -19 l-27 -6 15 37 c16 40 81 106 95 97 5 -3 9 0 9 7 0 6 8 9 20 6 11
-3 20 -2 20 2 0 10 63 6 115 -7z"/>
</g>
</svg>
