<?xml version="1.0" standalone="no"?>
<!DOCTYPE svg PUBLIC "-//W3C//DTD SVG 20010904//EN"
 "http://www.w3.org/TR/2001/REC-SVG-20010904/DTD/svg10.dtd">
<svg version="1.0" xmlns="http://www.w3.org/2000/svg"
 width="501.000000pt" height="361.000000pt" viewBox="0 0 501.000000 361.000000"
 preserveAspectRatio="xMidYMid meet">
<metadata>
Created by potrace 1.16, written by Peter Selinger 2001-2019
</metadata>
<g transform="translate(0.000000,361.000000) scale(0.100000,-0.100000)"
fill="#000000" stroke="none">
<path d="M1955 3461 c-40 -7 -89 -33 -130 -69 -20 -17 -105 -143 -105 -154 0
-4 -16 -34 -36 -67 -19 -33 -37 -66 -38 -73 -7 -44 -18 -47 -191 -45 -49 1
-178 0 -285 -1 -379 -3 -725 1 -760 11 -32 9 -129 -35 -131 -60 -1 -10 0 -31
1 -48 4 -37 5 -379 1 -455 -2 -30 -3 -107 -3 -170 0 -63 -1 -269 -2 -457 -3
-280 -1 -343 10 -347 8 -3 14 -12 14 -21 0 -19 5 -19 101 1 60 12 95 14 149 7
39 -5 73 -6 76 -1 3 4 10 8 16 8 7 0 8 -13 4 -37 -3 -21 -9 -69 -11 -107 -3
-38 -7 -72 -10 -74 -9 -9 25 -61 52 -80 40 -28 80 -35 119 -20 33 12 42 25 74
107 21 52 18 150 -4 184 l-18 27 73 0 c41 0 203 2 361 4 229 3 291 1 305 -10
10 -7 26 -14 36 -14 18 0 21 -24 18 -142 -2 -44 4 -69 22 -105 14 -27 33 -65
43 -85 10 -21 33 -54 52 -74 29 -32 37 -36 68 -31 19 3 46 15 61 26 14 12 31
21 38 21 7 0 33 -24 57 -52 58 -68 116 -92 172 -73 33 12 47 24 77 68 11 16
29 -3 29 -31 0 -15 9 -41 19 -58 26 -43 97 -54 159 -24 24 12 45 27 49 35 8
22 26 18 53 -10 13 -14 30 -25 39 -25 8 0 32 -12 53 -26 29 -21 43 -25 65 -18
43 11 46 11 77 -4 69 -34 223 21 263 93 12 22 32 52 45 67 29 35 73 199 77
286 1 21 44 13 111 -23 35 -19 70 -35 76 -35 7 0 14 -4 16 -8 2 -4 21 -19 43
-32 22 -14 63 -45 91 -70 63 -56 119 -99 159 -124 16 -10 32 -22 35 -26 4 -6
121 -88 174 -123 11 -6 26 -20 35 -30 9 -10 39 -35 66 -55 28 -20 54 -42 58
-49 4 -7 31 -28 60 -47 29 -19 86 -67 127 -105 41 -39 77 -71 81 -71 4 0 31
-20 60 -45 29 -25 58 -45 63 -45 6 0 31 -20 56 -45 25 -24 50 -44 57 -45 6 0
63 -49 127 -110 63 -60 119 -110 124 -110 18 0 52 42 52 65 0 19 -8 28 -34 39
-19 8 -56 37 -83 66 -26 29 -74 70 -105 91 -32 22 -58 44 -58 49 0 6 -7 10
-15 10 -8 0 -15 5 -15 10 0 6 -19 23 -42 38 -64 40 -157 110 -210 156 -110 96
-205 175 -313 261 -20 17 -49 40 -64 51 -14 12 -59 43 -100 69 -41 27 -82 54
-90 61 -9 7 -45 35 -81 63 -36 28 -90 70 -120 94 -89 70 -199 132 -275 157
-22 7 -46 17 -52 23 -7 5 -13 6 -13 2 0 -4 -11 0 -25 9 -13 9 -33 16 -44 16
-11 0 -23 5 -26 10 -4 6 -10 8 -14 6 -4 -3 -13 -1 -21 4 -7 5 -32 2 -59 -6
-96 -30 -140 -28 -211 6 -36 18 -69 38 -73 46 -4 8 -15 14 -23 14 -9 0 -28 8
-42 18 -37 25 -193 102 -208 102 -7 0 -19 6 -26 13 -18 16 -77 47 -90 47 -6 0
-27 13 -47 29 -20 15 -45 31 -56 35 -28 8 -85 62 -85 79 0 28 45 40 122 33 40
-4 87 -8 104 -9 18 -2 38 -8 45 -13 23 -19 66 -25 95 -14 56 22 90 21 127 0
25 -15 49 -20 79 -18 40 3 43 5 46 34 3 33 -20 61 -56 67 -12 2 -25 6 -28 10
-4 4 -18 7 -31 7 -32 0 -87 29 -218 115 -60 40 -120 76 -133 80 -13 4 -38 19
-55 35 -18 15 -52 37 -77 49 -25 11 -56 31 -70 44 -14 12 -47 40 -75 62 -74
59 -135 118 -129 126 18 30 474 -194 467 -229 -4 -17 46 -23 75 -10 14 7 29
24 32 38 6 26 12 22 -115 81 -27 12 -66 32 -85 44 -19 12 -69 41 -110 65 -150
87 -280 201 -280 247 0 21 1 21 63 7 34 -8 64 -19 65 -24 2 -6 8 -10 13 -10 6
0 29 -9 51 -20 23 -11 47 -20 53 -20 6 0 20 -8 31 -17 10 -10 48 -33 84 -51
116 -58 170 -88 196 -111 39 -34 65 -41 91 -23 13 8 23 22 23 32 0 17 -39 73
-40 57 0 -4 -10 -2 -22 5 -13 7 -25 13 -28 13 -18 2 -100 39 -100 45 0 3 -17
14 -37 24 -50 23 -130 74 -169 105 -17 15 -42 35 -55 46 -32 26 -89 93 -89
104 0 29 254 -69 331 -127 13 -10 46 -29 72 -42 27 -14 59 -35 70 -47 12 -13
25 -23 30 -23 4 0 29 -11 56 -24 44 -21 52 -22 80 -10 56 24 32 59 -61 90 -26
8 -48 20 -48 25 0 5 -5 9 -11 9 -6 0 -29 13 -52 29 -23 15 -71 43 -106 62 -58
31 -131 97 -131 118 0 21 58 22 101 2 57 -25 82 -35 92 -33 4 1 7 -2 7 -8 0
-5 9 -10 19 -10 11 0 23 -4 26 -10 3 -5 15 -10 25 -10 10 0 20 -3 22 -7 2 -5
25 -19 52 -33 27 -14 53 -33 60 -42 6 -10 16 -18 22 -18 15 0 134 -77 163
-106 13 -13 27 -21 31 -19 5 3 17 -6 28 -20 11 -14 24 -25 30 -25 5 0 15 -7
22 -15 7 -8 16 -12 21 -10 4 3 18 -4 29 -15 24 -24 150 -103 150 -94 0 4 9 -5
20 -19 11 -14 43 -36 70 -48 28 -12 50 -26 50 -31 0 -4 3 -7 8 -6 12 4 52 -26
52 -39 0 -7 4 -13 9 -13 5 0 12 -9 16 -19 3 -11 19 -34 34 -50 34 -37 86 -136
101 -194 6 -23 21 -63 33 -90 18 -41 26 -49 61 -58 42 -11 108 -47 114 -61 2
-4 10 -8 17 -8 17 0 284 -136 306 -156 8 -8 21 -14 27 -14 6 0 44 -22 84 -48
40 -27 91 -57 113 -67 22 -10 53 -27 69 -39 29 -21 156 -86 426 -221 74 -37
138 -72 142 -78 4 -7 8 -9 8 -4 0 4 22 -9 50 -28 27 -19 57 -35 65 -35 8 0 15
-4 15 -10 0 -5 5 -10 10 -10 6 0 10 20 10 44 l0 44 -87 50 c-49 27 -99 53
-112 57 -12 4 -39 18 -58 30 -18 13 -51 29 -71 36 -20 6 -43 16 -49 22 -7 5
-13 7 -13 3 0 -3 -8 2 -18 12 -18 18 -79 50 -184 96 -32 13 -78 39 -103 56
-25 17 -65 40 -88 51 -49 23 -76 40 -143 91 -27 21 -55 38 -63 38 -12 0 -74
31 -174 88 -20 12 -40 22 -45 23 -4 0 -41 18 -82 40 -116 60 -190 138 -190
200 0 20 -62 142 -83 163 -7 7 -21 30 -32 51 -11 22 -31 49 -44 60 -13 11 -33
29 -45 41 -11 11 -43 34 -70 49 l-49 29 26 9 c15 5 28 14 28 20 1 7 3 41 4 77
2 36 7 78 12 95 6 19 5 48 -3 81 -18 80 -35 107 -71 116 -37 10 -50 28 -59 86
-4 28 -13 43 -25 47 -10 3 -35 26 -56 51 -21 24 -43 44 -50 44 -6 0 -15 12
-21 28 -22 63 -86 102 -165 102 -47 0 -58 -4 -75 -25 -19 -24 -52 -34 -52 -16
0 12 -113 121 -126 121 -30 0 -78 -60 -98 -122 -7 -23 -33 -13 -40 15 -3 12
-22 40 -42 62 -19 22 -49 61 -66 87 -23 36 -41 51 -67 58 -66 18 -86 13 -107
-25 -10 -19 -22 -35 -26 -35 -5 0 -8 -7 -8 -16 0 -24 -26 0 -34 31 -4 14 -11
25 -17 25 -6 0 -22 14 -36 30 -13 17 -28 29 -31 29 -4 -1 -25 -4 -47 -8z m35
-111 c18 -16 37 -30 40 -30 4 0 12 -11 19 -24 13 -24 50 -46 76 -46 7 0 27 25
44 55 18 31 38 58 46 62 20 7 65 -5 65 -18 0 -14 79 -129 89 -129 4 0 14 -16
21 -36 17 -41 53 -74 83 -74 24 0 63 43 71 79 3 14 10 33 15 41 9 13 13 12 26
-7 9 -13 22 -23 30 -23 8 0 19 -9 25 -19 28 -53 86 -67 137 -34 59 39 93 23
214 -99 76 -77 89 -95 89 -123 0 -19 7 -40 15 -49 8 -8 15 -17 15 -21 0 -10
27 -35 38 -35 18 0 50 -46 56 -82 4 -21 2 -57 -5 -80 -16 -57 -21 -87 -22
-120 0 -30 -3 -29 -54 8 -17 13 -34 24 -38 24 -3 0 -11 5 -18 10 -7 6 -46 32
-87 58 -42 26 -87 55 -100 65 -74 53 -99 69 -140 88 -25 12 -47 25 -50 28 -12
14 -79 59 -130 86 -30 16 -61 35 -68 42 -7 7 -22 13 -32 13 -10 0 -22 5 -25
10 -3 6 -15 10 -25 10 -10 0 -40 9 -67 21 -70 30 -165 33 -201 6 -37 -29 -43
-39 -39 -64 5 -28 1 -28 -39 -4 -74 45 -151 35 -172 -22 -14 -38 -16 -77 -4
-77 4 0 13 -10 20 -21 13 -21 12 -21 -30 -16 -24 3 -50 8 -59 12 -10 4 -28 -4
-48 -20 -55 -47 -37 -101 68 -202 l24 -23 -35 0 c-25 0 -42 -8 -63 -30 -29
-30 -29 -30 -12 -66 10 -19 34 -51 55 -69 79 -72 137 -118 161 -128 14 -6 44
-25 66 -43 22 -17 51 -35 65 -39 43 -13 122 -59 157 -90 19 -17 50 -40 71 -50
20 -11 46 -28 57 -38 11 -10 33 -26 49 -34 24 -13 27 -17 14 -24 -10 -5 -27
-3 -45 6 -19 10 -74 17 -148 21 l-118 5 -52 -32 c-30 -18 -59 -46 -70 -65
l-19 -35 35 -34 c42 -41 140 -115 152 -115 4 0 18 -9 30 -20 12 -12 33 -23 47
-26 14 -3 36 -11 50 -19 63 -36 145 -75 157 -75 14 0 116 -69 121 -82 2 -5 12
-8 22 -8 10 0 20 -3 22 -7 5 -12 84 -53 101 -53 9 0 31 -8 49 -19 26 -15 49
-18 108 -15 85 4 124 9 139 19 6 3 11 1 11 -4 0 -6 7 -11 16 -11 12 0 15 -6
11 -22 -4 -12 -1 -28 5 -35 6 -7 7 -13 3 -13 -4 0 -2 -6 4 -14 10 -11 5 -35
-21 -113 -47 -141 -80 -186 -162 -222 -56 -24 -81 -26 -115 -7 -14 8 -41 11
-67 8 -38 -4 -45 -2 -54 20 -6 13 -21 25 -32 25 -11 1 -30 10 -42 21 -24 20
-70 42 -91 42 -7 0 -20 -6 -27 -13 -48 -45 -83 -67 -109 -67 -30 0 -32 4 -29
57 1 32 -25 69 -52 74 -29 6 -80 -14 -95 -37 -9 -14 -29 -32 -45 -40 -36 -19
-51 -11 -115 59 -64 72 -84 82 -131 66 -20 -7 -46 -18 -57 -25 -29 -18 -52 5
-97 96 -33 67 -36 80 -32 135 4 54 9 92 14 105 1 3 2 8 1 12 0 3 6 28 14 55
20 64 19 86 -5 116 -12 15 -20 40 -20 64 0 30 -6 43 -29 63 -22 18 -31 37 -35
70 -3 25 -9 56 -12 70 -9 38 -8 80 4 104 15 29 52 159 52 181 0 10 -6 26 -13
34 -8 9 -19 41 -26 71 -8 39 -20 64 -41 84 -24 22 -30 36 -30 69 0 23 -7 73
-15 112 -20 93 -19 106 10 187 14 39 24 75 23 82 -1 6 15 47 36 91 37 79 56
121 90 199 21 48 100 152 126 166 11 6 31 22 46 35 35 32 53 31 94 -5z m-631
-381 c91 -7 178 -13 194 -14 20 0 26 -4 21 -15 -4 -8 -12 -35 -19 -60 -7 -25
-22 -61 -33 -80 -31 -53 -36 -99 -18 -170 9 -34 16 -93 16 -131 0 -70 11 -99
53 -141 9 -10 17 -29 17 -42 0 -13 9 -44 20 -69 22 -50 20 -81 -12 -132 -10
-16 -18 -38 -18 -47 0 -10 -4 -18 -10 -18 -12 0 -14 -93 -2 -104 4 -4 7 -11 8
-14 1 -9 14 -81 20 -109 2 -12 15 -35 29 -51 17 -21 25 -42 25 -69 0 -22 7
-48 15 -59 8 -10 15 -22 15 -25 0 -13 -627 -18 -741 -5 -45 5 -69 4 -74 -3 -3
-6 -12 -11 -19 -11 -9 0 -15 22 -20 69 -7 81 -31 130 -63 132 -13 1 -28 2 -35
3 -11 1 -15 -12 -23 -79 -2 -16 -4 -32 -5 -35 -1 -3 -3 -9 -4 -15 -4 -23 -19
-81 -23 -88 -2 -4 -11 0 -19 8 -11 11 -35 14 -102 11 -48 -2 -98 1 -111 6 -17
6 -30 4 -46 -6 -22 -14 -24 -13 -33 12 -6 15 -11 110 -12 212 -1 102 -2 203
-2 225 0 22 2 204 5 405 6 345 14 470 31 487 10 10 21 10 366 18 157 4 286 7
287 8 8 9 187 6 322 -4z m-581 -1437 c6 -34 18 -69 27 -78 19 -19 19 -45 0
-108 -17 -55 -31 -76 -48 -71 -7 2 -25 6 -41 10 -26 5 -28 9 -22 43 3 20 9 66
14 102 11 78 43 183 53 173 4 -5 11 -36 17 -71z"/>
<path d="M634 2648 c-3 -12 -8 -52 -9 -89 -2 -37 -6 -73 -10 -79 -3 -6 -8 -22
-11 -36 -3 -14 -11 -36 -19 -48 -18 -27 -34 -137 -28 -191 6 -58 22 -84 65
-106 32 -16 42 -17 74 -6 66 21 103 122 82 222 -4 17 -10 64 -14 105 -4 41 -9
78 -10 83 -1 4 -2 19 -3 33 -1 17 -8 28 -21 31 -16 4 -20 14 -20 44 0 28 -5
41 -19 49 -30 16 -49 12 -57 -12z m86 -366 c11 -44 5 -67 -28 -104 -17 -20
-57 -24 -68 -6 -19 30 -2 124 48 268 l22 65 8 -90 c4 -49 12 -109 18 -133z"/>
<path d="M1126 2478 c-21 -110 -32 -147 -63 -220 -35 -81 -36 -87 -37 -208 0
-164 3 -173 66 -209 l52 -30 23 25 c15 16 23 38 24 62 0 20 3 55 7 77 7 37 4
74 -13 165 -11 60 -14 145 -5 160 5 8 4 26 -4 44 -7 17 -11 55 -9 85 3 37 0
57 -9 62 -21 14 -27 11 -32 -13z m19 -499 c-7 -49 -15 -69 -30 -69 -15 0 -20
16 -28 80 -5 38 10 177 20 194 9 14 42 -167 38 -205z"/>
</g>
</svg>
