<?xml version="1.0" standalone="no"?>
<!DOCTYPE svg PUBLIC "-//W3C//DTD SVG 20010904//EN"
 "http://www.w3.org/TR/2001/REC-SVG-20010904/DTD/svg10.dtd">
<svg version="1.0" xmlns="http://www.w3.org/2000/svg"
 width="551.000000pt" height="477.000000pt" viewBox="0 0 551.000000 477.000000"
 preserveAspectRatio="xMidYMid meet">
<metadata>
Created by potrace 1.16, written by Peter Selinger 2001-2019
</metadata>
<g transform="translate(0.000000,477.000000) scale(0.100000,-0.100000)"
fill="#000000" stroke="none">
<path d="M163 4620 c-12 -5 -24 -21 -28 -39 -6 -27 -1 -35 44 -77 49 -45 50
-48 35 -66 -10 -10 -22 -18 -27 -18 -5 0 -20 -11 -33 -25 -13 -14 -34 -25 -47
-25 -25 0 -37 -16 -37 -51 0 -19 50 -79 66 -79 5 0 29 -18 54 -40 25 -22 48
-40 52 -40 3 0 16 -16 28 -35 12 -19 26 -35 31 -35 11 0 31 -15 57 -42 9 -10
22 -18 30 -18 7 0 11 -4 8 -8 -3 -5 6 -16 19 -26 14 -10 22 -22 20 -26 -3 -4
2 -11 11 -14 8 -3 12 -11 9 -16 -4 -6 -2 -16 3 -23 6 -7 11 -15 11 -19 1 -5 1
-9 2 -10 0 -2 3 -32 5 -68 3 -36 10 -87 16 -115 6 -27 12 -57 13 -65 1 -8 5
-23 9 -32 4 -9 9 -25 11 -35 2 -10 4 -19 5 -20 2 -2 3 -6 4 -10 1 -5 10 -25
19 -47 9 -21 17 -40 17 -42 0 -6 63 -107 80 -128 43 -54 147 -164 155 -166 3
0 20 -15 38 -33 35 -34 116 -102 151 -127 12 -8 38 -30 59 -50 21 -19 46 -39
55 -44 9 -5 34 -27 55 -48 21 -21 40 -38 43 -38 2 0 13 -9 24 -20 11 -11 27
-20 35 -20 18 0 85 61 85 78 0 6 4 12 8 14 4 2 23 22 42 46 18 23 39 42 45 42
6 0 42 -30 80 -66 38 -36 82 -73 97 -82 16 -9 28 -22 28 -29 0 -7 5 -13 11
-13 12 0 120 -76 159 -112 67 -61 183 -150 201 -153 11 -2 36 7 56 21 20 13
42 24 49 24 8 0 14 5 14 11 0 6 13 23 29 38 33 31 33 69 -1 92 -12 8 -45 33
-74 57 -30 23 -57 42 -60 42 -4 0 -16 9 -28 20 -48 47 -92 84 -194 165 -59 47
-126 103 -150 123 -24 20 -50 41 -57 45 -11 6 2 27 53 91 37 46 74 88 83 94
12 8 27 2 65 -24 27 -19 76 -53 109 -75 33 -23 64 -47 68 -55 4 -8 24 -21 42
-28 19 -8 40 -20 47 -26 46 -38 66 -54 91 -68 15 -9 27 -25 27 -35 0 -10 4
-16 9 -13 4 3 19 -6 31 -19 13 -14 29 -25 35 -25 6 0 23 -12 37 -27 58 -63 99
-75 121 -37 11 20 49 54 59 54 4 0 8 7 8 15 0 9 7 26 15 39 22 33 11 52 -56
88 -32 18 -59 36 -59 40 0 5 -7 8 -15 8 -8 0 -15 6 -15 13 0 6 -23 28 -51 47
-28 19 -63 47 -77 61 -27 27 -127 115 -177 157 -15 12 -31 22 -36 22 -5 0 -30
20 -54 45 -50 52 -50 63 2 113 21 19 33 39 29 47 -3 8 -1 15 5 15 6 0 8 4 4 9
-3 5 -1 12 4 16 14 8 3 31 -30 65 -16 16 -29 27 -29 25 0 -2 -13 9 -29 23 -16
15 -50 47 -77 72 -27 25 -71 64 -99 85 -27 22 -64 55 -83 73 -18 17 -36 32
-40 32 -4 0 -28 19 -54 43 -82 73 -120 102 -147 111 -14 5 -39 19 -56 31 -16
12 -48 25 -70 29 -22 4 -58 19 -81 32 -56 33 -98 44 -165 45 -51 1 -77 -5
-209 -46 -42 -13 -91 -10 -165 8 -11 3 -26 6 -32 6 -7 1 -13 8 -13 17 0 8 -13
20 -30 25 -16 6 -30 15 -30 20 0 5 -6 9 -14 9 -11 0 -163 115 -186 140 -13 15
-79 50 -93 50 -9 0 -20 6 -24 14 -8 14 -46 36 -60 35 -4 0 -18 -4 -30 -9z
m439 -852 c-9 -9 -12 -7 -12 12 0 19 3 21 12 12 9 -9 9 -15 0 -24z m43 -178
c3 -5 1 -10 -4 -10 -6 0 -11 5 -11 10 0 6 2 10 4 10 3 0 8 -4 11 -10z"/>
<path d="M2910 3552 c-26 -21 -27 -28 -17 -367 4 -126 9 -358 12 -515 3 -157
8 -381 11 -499 l7 -214 -42 7 c-23 3 -83 20 -134 37 -113 38 -101 33 -294 119
-60 27 -63 40 -4 20 35 -11 42 -11 68 8 35 25 39 57 10 91 -20 23 -29 26 -97
27 -101 2 -208 13 -250 26 -54 17 -96 16 -120 -2 -21 -16 -22 -20 -10 -54 9
-27 27 -48 71 -78 32 -23 59 -46 59 -50 0 -4 37 -44 81 -88 73 -72 85 -80 116
-78 37 2 42 6 48 39 7 33 10 33 69 0 31 -17 67 -31 81 -31 14 0 25 -4 25 -9 0
-5 14 -11 31 -15 17 -3 45 -13 62 -21 18 -8 52 -19 77 -24 67 -14 134 -33 142
-40 8 -7 17 -409 33 -1411 2 -135 4 -248 4 -251 1 -12 48 -19 80 -13 17 4 28
10 26 15 -3 4 -1 10 5 14 6 4 8 10 5 15 -3 4 -7 59 -10 122 -2 62 -6 145 -9
183 -3 39 -8 198 -11 355 -3 157 -8 435 -11 618 l-6 333 48 -6 c27 -4 67 -8
89 -10 136 -13 144 -16 181 -60 18 -23 34 -46 34 -51 1 -15 50 -46 85 -54 25
-6 35 -4 39 7 5 12 11 11 35 -6 28 -20 45 -22 393 -26 413 -6 425 -6 494 -4
29 0 61 -4 73 -10 11 -7 21 -8 21 -4 0 8 43 8 200 3 105 -4 137 6 131 43 0 4
3 7 9 7 5 0 10 8 10 19 0 10 7 32 15 47 8 16 15 37 15 46 0 9 5 20 10 23 6 3
10 15 10 26 0 11 7 30 14 42 8 12 15 40 15 62 0 22 4 74 10 115 11 73 25 279
24 350 0 80 -25 222 -49 286 -14 38 -30 85 -34 104 -20 78 -64 155 -122 211
-32 31 -58 61 -58 67 0 5 -13 15 -30 21 -16 5 -30 15 -30 21 0 6 -4 8 -10 5
-22 -13 -568 -19 -912 -9 -156 4 -208 2 -208 -6 0 -7 -7 -10 -15 -6 -8 3 -15
1 -15 -4 0 -6 -4 -10 -8 -10 -16 0 -135 -115 -159 -154 -28 -43 -70 -149 -78
-196 -3 -17 -13 -52 -22 -78 -9 -26 -17 -63 -19 -82 -17 -193 -25 -461 -14
-475 5 -6 11 -25 15 -42 3 -18 9 -43 14 -56 6 -14 7 -28 4 -31 -4 -3 -2 -6 4
-6 6 0 13 -7 17 -15 4 -12 -3 -14 -42 -10 -26 3 -76 7 -111 10 -35 3 -67 8
-72 10 -4 3 -8 114 -9 247 -1 134 -3 331 -5 438 -4 194 -8 778 -6 835 1 25 3
27 12 13 5 -10 16 -18 24 -18 7 0 15 -4 17 -10 2 -5 17 -6 38 -1 38 8 1490 5
1785 -4 94 -2 204 -5 246 -6 l77 0 5 -37 c2 -20 5 -145 6 -277 1 -132 4 -447
6 -700 3 -253 8 -863 11 -1355 3 -492 7 -904 9 -915 6 -25 45 -44 73 -34 27
10 36 41 33 124 -1 39 -4 120 -6 180 -2 61 -6 337 -9 615 -4 278 -9 735 -12
1015 -6 546 -8 1228 -4 1388 3 114 -7 132 -70 121 -40 -7 -138 -13 -225 -14
-55 -1 -1490 10 -1829 14 -145 1 -149 1 -167 -23 -13 -16 -19 -19 -19 -9 0 19
-32 48 -52 48 -9 0 -26 -8 -38 -18z m1651 -584 c31 -3 61 -13 90 -33 64 -44
89 -67 89 -82 0 -7 3 -13 8 -13 9 0 32 -49 32 -69 0 -9 7 -29 16 -46 25 -47
55 -146 59 -195 3 -25 7 -65 11 -90 6 -48 5 -214 -2 -265 -2 -16 -7 -68 -10
-115 -6 -87 -50 -248 -82 -302 -9 -16 -28 -32 -42 -36 -56 -15 -1068 -3 -1157
14 -19 4 -39 1 -47 -5 -18 -15 -39 10 -34 41 2 18 10 24 38 26 19 2 41 8 47
14 17 14 16 50 -1 74 -13 16 -27 19 -111 19 l-97 0 -36 85 c-35 84 -36 87 -38
240 -1 137 16 346 31 370 3 5 16 52 30 104 15 61 34 109 52 133 45 61 106 121
133 131 22 9 894 8 1021 0z"/>
<path d="M4439 2863 c-6 -7 -18 -13 -25 -13 -8 0 -14 -3 -14 -8 0 -4 -10 -12
-22 -17 -30 -14 -40 -59 -29 -130 13 -78 15 -230 7 -485 -2 -80 0 -120 9 -132
6 -10 15 -15 18 -12 3 4 13 -1 22 -10 13 -13 29 -15 83 -10 36 4 71 12 77 18
14 14 26 56 16 56 -10 0 -4 234 7 290 5 26 5 55 2 65 -4 11 -4 27 -1 35 4 8 9
64 10 125 1 60 5 114 8 119 4 5 7 24 8 42 2 24 -3 34 -19 42 -66 32 -142 44
-157 25z m81 -143 c0 -5 -2 -10 -4 -10 -3 0 -8 5 -11 10 -3 6 -1 10 4 10 6 0
11 -4 11 -10z"/>
<path d="M3689 2849 c-13 -10 -31 -19 -40 -19 -8 0 -26 -11 -38 -24 -19 -20
-22 -34 -21 -87 1 -56 -8 -364 -11 -364 -1 0 -3 -61 -4 -135 -2 -75 -5 -140
-6 -145 -1 -6 4 -24 10 -42 10 -25 19 -32 39 -32 15 0 46 -3 70 -6 38 -4 47
-2 71 23 15 15 26 33 23 40 -3 11 9 16 24 10 14 -6 34 52 26 74 -13 36 -6 353
12 568 3 42 -12 75 -51 112 -44 42 -74 50 -104 27z"/>
<path d="M4015 2088 c-27 -11 -59 -23 -70 -28 -23 -9 -45 -71 -40 -113 5 -42
31 -89 62 -114 15 -12 31 -22 35 -23 4 -1 22 -5 40 -11 34 -9 91 3 114 25 7 6
23 19 38 30 30 22 45 78 26 101 -7 8 -10 26 -8 40 3 14 2 25 -2 25 -4 0 -10
10 -13 23 -4 13 -21 28 -44 38 -65 28 -86 29 -138 7z"/>
<path d="M3944 1332 c-6 -4 -26 -31 -45 -61 -40 -67 -53 -140 -32 -191 8 -19
13 -36 12 -38 0 -2 4 -16 11 -31 14 -34 49 -52 110 -57 50 -4 158 14 166 27 3
5 12 9 21 9 46 0 127 174 92 196 -6 3 -9 13 -8 22 3 30 -1 38 -28 69 -33 36
-65 46 -155 47 -36 1 -70 4 -74 9 -9 9 -56 9 -70 -1z m132 -121 c-16 -31 -102
-121 -116 -121 -12 0 -19 50 -8 56 5 3 7 12 4 19 -3 8 4 17 17 21 12 4 33 15
47 24 14 10 34 20 45 23 11 2 21 5 23 6 1 0 -4 -12 -12 -28z m118 -33 c-16
-74 -28 -96 -64 -117 -21 -11 -49 -21 -63 -21 -24 0 -19 7 51 80 42 43 78 79
79 80 0 0 -1 -10 -3 -22z"/>
<path d="M3501 606 c-11 -5 -25 -23 -31 -41 -6 -18 -20 -41 -32 -51 -11 -11
-29 -38 -40 -61 -10 -23 -23 -45 -28 -48 -12 -7 -50 -88 -50 -107 0 -7 -9 -31
-18 -53 -24 -52 -11 -82 38 -91 22 -5 35 -3 38 5 2 6 10 11 17 11 8 0 13 14
13 40 1 65 101 245 157 281 21 13 454 15 750 4 72 -3 169 -5 218 -6 76 -1 87
-4 87 -19 0 -11 14 -24 40 -34 37 -14 45 -25 81 -102 22 -47 42 -101 45 -120
6 -53 33 -82 71 -81 29 2 34 6 39 35 3 17 10 32 15 32 5 0 5 8 -1 17 -5 10
-23 53 -41 95 -45 112 -87 186 -120 210 -16 12 -29 29 -29 38 0 22 -84 63
-111 55 -20 -7 -643 -8 -940 -2 -81 1 -156 -1 -168 -7z"/>
</g>
</svg>
