<?xml version="1.0" standalone="no"?>
<!DOCTYPE svg PUBLIC "-//W3C//DTD SVG 20010904//EN"
 "http://www.w3.org/TR/2001/REC-SVG-20010904/DTD/svg10.dtd">
<svg version="1.0" xmlns="http://www.w3.org/2000/svg"
 width="499.000000pt" height="409.000000pt" viewBox="0 0 499.000000 409.000000"
 preserveAspectRatio="xMidYMid meet">
<metadata>
Created by potrace 1.16, written by Peter Selinger 2001-2019
</metadata>
<g transform="translate(0.000000,409.000000) scale(0.100000,-0.100000)"
fill="#000000" stroke="none">
<path d="M3680 3715 c-94 -43 -105 -51 -102 -67 2 -14 -26 -15 -260 -12 -145
2 -308 6 -363 8 -180 10 -607 11 -740 3 -71 -5 -197 -10 -280 -12 -148 -4
-151 -3 -190 23 -35 22 -51 26 -125 26 -100 1 -140 -8 -140 -31 0 -13 -8 -15
-57 -9 -32 4 -125 9 -208 10 -82 2 -150 4 -150 5 0 1 -56 4 -125 7 -68 2 -138
8 -155 12 -16 5 -48 8 -70 8 -36 -1 -40 -4 -49 -34 -19 -66 -21 -66 509 -77
116 -3 230 -7 255 -10 25 -2 96 -7 159 -10 116 -5 146 -14 123 -37 -7 -7 -12
-26 -12 -43 0 -20 -3 -26 -9 -16 -6 9 -44 14 -142 17 -437 13 -596 21 -608 28
-5 4 -12 2 -15 -3 -3 -5 -66 -7 -141 -6 -113 3 -135 1 -135 -11 0 -8 -5 -22
-11 -32 -9 -15 -8 -24 5 -44 15 -24 21 -25 49 -17 36 11 525 21 605 12 40 -4
52 -9 52 -22 0 -10 9 -27 20 -39 17 -18 24 -20 46 -10 15 7 27 23 31 39 5 26
9 28 67 31 95 5 148 -1 136 -15 -6 -7 -29 -37 -52 -67 -24 -30 -45 -57 -48
-60 -3 -3 -7 -45 -9 -95 -5 -159 -5 -159 -108 -209 -43 -21 -105 -58 -138 -82
-33 -24 -77 -52 -97 -61 -21 -9 -38 -20 -38 -25 0 -4 -6 -8 -12 -8 -7 0 -38
-15 -68 -33 -53 -32 -171 -81 -255 -107 -22 -7 -80 -30 -130 -50 -49 -21 -115
-47 -146 -59 -64 -25 -129 -75 -130 -99 0 -9 -16 -44 -34 -77 -19 -33 -43 -79
-55 -102 -11 -23 -25 -45 -30 -48 -6 -3 -10 -15 -10 -26 0 -10 -4 -19 -9 -19
-5 0 -13 -9 -16 -21 -7 -21 -65 -120 -76 -129 -3 -3 -23 -37 -43 -77 -29 -55
-36 -79 -31 -101 9 -41 156 -188 258 -257 20 -14 37 -29 37 -33 0 -4 14 -16
31 -26 18 -10 39 -26 48 -35 37 -37 75 -61 95 -61 14 0 40 22 76 66 30 36 63
73 72 82 10 9 18 21 18 27 0 5 15 21 32 35 18 14 46 37 62 53 17 15 32 23 34
18 2 -6 -6 -43 -16 -83 -11 -40 -23 -102 -27 -138 -4 -36 -9 -81 -11 -100 -2
-19 -9 -57 -15 -85 -6 -27 -12 -97 -13 -155 -2 -58 -8 -121 -14 -140 -6 -19
-16 -97 -22 -173 -6 -76 -16 -172 -22 -212 -10 -67 -9 -78 8 -117 19 -42 89
-128 105 -128 4 0 20 -11 34 -24 26 -24 107 -56 144 -56 11 0 22 -4 25 -8 12
-20 131 -43 261 -50 179 -9 286 -1 416 33 57 15 136 33 175 40 95 18 128 34
198 93 32 28 63 50 68 49 6 -1 19 10 29 24 18 23 19 32 10 90 -25 158 -33 528
-12 618 5 24 7 49 5 56 -3 7 -7 100 -9 206 -3 163 -8 244 -15 244 0 0 -2 21
-3 48 -2 26 0 47 3 47 8 0 141 -130 186 -183 48 -56 77 -66 102 -35 26 34 77
82 206 198 85 77 184 194 216 258 20 39 39 69 43 66 12 -13 -3 80 -16 95 -8 9
-17 24 -20 34 -4 9 -11 17 -17 17 -5 0 -10 6 -10 13 0 7 -13 26 -30 42 -16 16
-30 34 -30 41 0 7 -3 14 -7 16 -9 3 -59 78 -85 126 -10 17 -27 42 -39 55 -11
12 -26 29 -34 38 -8 9 -15 18 -15 22 0 3 -14 19 -30 36 -24 23 -42 31 -86 36
-31 3 -60 7 -63 9 -7 4 -71 13 -177 25 -39 5 -79 13 -90 19 -11 6 -49 18 -84
27 -36 9 -69 20 -75 25 -5 5 -30 11 -55 14 -52 6 -128 32 -150 50 -8 8 -39 25
-68 40 -30 14 -74 46 -99 69 -39 38 -44 47 -35 64 6 11 8 29 5 41 -9 37 17
183 42 231 13 26 35 59 49 75 14 16 26 33 26 38 0 8 135 6 585 -8 110 -3 261
-7 335 -9 74 -3 214 -7 310 -11 96 -3 241 -6 323 -5 l147 1 1 -28 c1 -15 1
-30 1 -33 -1 -4 15 -9 35 -12 35 -6 75 6 71 21 -1 4 3 17 10 29 9 17 19 21 49
18 21 -2 65 -4 98 -5 50 -2 55 -3 29 -9 -17 -5 -47 -21 -67 -37 -39 -31 -38
-20 -21 -144 8 -61 10 -341 2 -337 -3 1 -16 -10 -28 -25 -12 -16 -30 -28 -41
-28 -10 0 -27 -8 -37 -17 -10 -10 -44 -31 -77 -48 -33 -16 -111 -64 -173 -105
-62 -41 -122 -79 -133 -85 -10 -5 -19 -13 -19 -17 0 -5 -5 -8 -11 -8 -13 0
-99 -89 -100 -104 0 -6 -3 -24 -5 -40 -3 -16 -1 -32 3 -35 4 -3 13 -15 19 -25
17 -31 76 -58 134 -62 19 -2 85 -7 145 -12 135 -11 417 -7 585 7 69 7 175 11
236 10 135 -2 274 32 274 68 0 7 5 13 10 13 14 0 12 81 -3 106 -16 28 -53 58
-156 126 -14 10 -35 18 -47 18 -11 0 -29 9 -41 19 -11 11 -39 29 -61 40 -23
11 -45 27 -49 34 -4 6 -24 20 -43 29 -101 48 -187 92 -201 104 -8 8 -20 14
-26 14 -5 0 -22 10 -36 23 -26 22 -26 23 -30 202 -2 99 0 188 5 197 4 9 25 25
46 35 45 21 89 51 122 81 17 16 31 21 45 16 11 -4 139 -8 285 -10 145 -2 285
-8 311 -13 25 -6 59 -7 75 -2 25 7 29 12 27 41 -1 18 -6 35 -11 39 -9 6 -564
7 -587 1 -5 -1 -31 -2 -57 -1 l-48 1 11 28 c6 15 8 49 4 75 l-6 49 73 -5 c40
-3 145 -10 233 -16 88 -5 204 -16 258 -22 84 -11 100 -10 108 2 9 14 5 67 -7
78 -3 3 -51 7 -107 8 -200 3 -282 6 -289 10 -4 2 -77 5 -162 8 -137 4 -157 6
-175 24 -11 11 -17 22 -13 25 3 3 0 6 -7 6 -7 0 -9 5 -6 10 3 6 -1 10 -9 10
-9 0 -24 8 -34 18 -10 9 -23 18 -28 19 -5 1 -21 4 -34 7 -16 4 -45 -3 -80 -19z
m83 -92 c-7 -2 -19 -2 -25 0 -7 3 -2 5 12 5 14 0 19 -2 13 -5z m-903 -47 c63
-3 241 -7 395 -10 154 -3 323 -7 375 -10 52 -3 125 -6 163 -7 37 -1 68 -6 68
-11 2 -13 5 -22 13 -46 5 -14 3 -35 -4 -53 l-12 -29 -447 6 c-488 7 -500 7
-551 17 -19 4 -132 9 -250 12 -301 6 -576 14 -706 21 l-111 6 13 36 c11 34 16
37 51 38 21 1 70 4 108 7 358 32 548 37 895 23z m-1290 -688 c5 -13 9 -19 9
-13 1 5 8 -1 17 -13 8 -12 19 -22 24 -22 5 0 48 -23 94 -50 47 -28 95 -54 107
-58 20 -8 19 -11 -23 -45 -25 -20 -52 -37 -61 -37 -9 0 -19 -5 -22 -11 -4 -5
-32 -22 -63 -37 -51 -24 -68 -27 -162 -27 -93 1 -110 4 -150 25 -25 14 -47 27
-50 30 -3 3 -22 16 -42 30 -43 29 -46 36 -17 43 11 3 23 15 26 26 3 11 28 35
57 53 28 18 53 36 54 40 2 5 8 8 13 8 5 0 28 12 51 28 35 23 92 47 121 51 4 1
12 -9 17 -21z m2182 -178 c26 0 322 -158 338 -181 3 -4 47 -28 98 -54 100 -51
169 -106 157 -126 -15 -24 -83 -42 -168 -45 -48 -2 -93 -6 -98 -10 -6 -3 -43
-5 -82 -3 -40 2 -105 -1 -145 -5 -62 -7 -246 -9 -491 -6 -30 0 -59 4 -65 7
-11 7 -16 8 -81 16 -58 7 -95 18 -95 29 0 15 50 59 60 53 6 -3 10 0 10 8 0 17
82 92 124 114 16 8 38 23 48 33 11 10 48 33 81 51 34 18 64 35 67 39 3 4 23
13 45 20 22 7 49 19 60 26 59 37 100 53 109 44 6 -6 18 -10 28 -10z m-2637
-59 c-4 -14 7 -25 52 -50 72 -39 93 -53 111 -68 7 -7 22 -13 32 -13 10 0 21
-4 24 -9 8 -13 91 -27 171 -31 91 -4 151 18 305 109 89 53 98 56 157 55 47 -1
63 2 63 12 0 16 31 19 46 4 14 -14 132 -50 165 -50 39 0 165 -19 214 -33 61
-17 123 -65 165 -127 8 -12 29 -41 46 -64 17 -22 37 -53 45 -67 20 -38 70
-111 86 -127 7 -7 13 -19 13 -27 0 -7 6 -15 12 -17 7 -3 11 -18 10 -36 -2 -31
-8 -40 -64 -107 -16 -18 -28 -35 -28 -38 0 -3 -15 -21 -32 -41 -18 -19 -38
-41 -44 -48 -6 -7 -42 -40 -79 -73 -38 -33 -88 -80 -112 -104 l-42 -44 -78 78
c-43 43 -94 89 -113 103 -19 14 -47 38 -61 53 -18 19 -33 26 -48 22 -35 -9
-44 -29 -37 -81 4 -26 9 -58 11 -72 10 -69 19 -313 17 -450 -4 -289 -4 -585 1
-682 5 -108 7 -104 -80 -162 -45 -30 -219 -91 -286 -101 -23 -4 -69 -15 -101
-26 -71 -23 -315 -34 -386 -17 -25 5 -62 10 -83 9 -22 0 -62 10 -93 24 -30 14
-68 25 -85 25 -37 0 -117 60 -171 128 -21 25 -24 97 -8 183 11 60 28 255 40
454 4 72 13 150 19 175 6 25 13 68 16 95 7 65 33 204 52 280 19 73 12 151 -16
178 -25 25 -47 17 -64 -25 -8 -18 -35 -55 -60 -83 -26 -27 -47 -53 -47 -57 0
-5 -4 -8 -8 -8 -10 0 -172 -161 -172 -171 0 -4 -4 -10 -8 -13 -8 -5 -32 14
-102 78 -19 17 -50 38 -68 45 -18 8 -40 24 -50 35 -9 12 -37 37 -61 54 -25 18
-53 45 -63 60 -10 15 -23 35 -30 44 -13 18 2 54 67 163 13 22 35 64 49 94 14
29 41 79 60 110 18 31 46 81 62 111 16 30 37 62 46 71 10 9 18 21 18 27 0 15
236 123 299 137 9 2 57 21 106 43 212 91 209 90 200 63z"/>
</g>
</svg>
