<?xml version="1.0" standalone="no"?>
<!DOCTYPE svg PUBLIC "-//W3C//DTD SVG 20010904//EN"
 "http://www.w3.org/TR/2001/REC-SVG-20010904/DTD/svg10.dtd">
<svg version="1.0" xmlns="http://www.w3.org/2000/svg"
 width="517.000000pt" height="469.000000pt" viewBox="0 0 517.000000 469.000000"
 preserveAspectRatio="xMidYMid meet">
<metadata>
Created by potrace 1.16, written by Peter Selinger 2001-2019
</metadata>
<g transform="translate(0.000000,469.000000) scale(0.100000,-0.100000)"
fill="#000000" stroke="none">
<path d="M4365 4431 c-3 -5 -29 -7 -59 -4 -115 12 -318 -60 -416 -148 -24 -22
-46 -39 -50 -39 -14 0 -100 -95 -100 -111 0 -10 -4 -19 -8 -21 -16 -6 -94
-129 -115 -181 -12 -29 -24 -54 -28 -57 -8 -6 -47 -135 -60 -200 -5 -24 -11
-102 -14 -172 -5 -114 -3 -137 19 -215 14 -49 28 -107 31 -130 4 -24 11 -45
16 -49 5 -3 9 -12 9 -21 0 -32 84 -203 130 -264 33 -43 101 -109 113 -109 3 0
32 -15 64 -34 33 -19 72 -38 89 -42 16 -4 36 -12 44 -19 26 -22 129 -42 231
-46 40 -1 132 28 226 72 34 16 64 29 68 29 7 0 88 53 95 62 3 4 15 11 27 15
25 10 113 90 113 103 0 6 4 10 8 10 5 0 18 18 30 39 13 22 31 43 42 46 11 4
20 13 20 21 0 8 5 14 11 14 5 0 7 5 4 11 -4 5 0 18 8 27 9 9 16 20 16 25 0 4
9 28 21 54 24 54 48 123 54 155 2 13 11 43 19 68 19 59 38 161 39 211 0 21 5
39 11 39 8 0 8 3 0 11 -7 7 -8 22 -4 38 4 14 6 81 5 147 -2 104 -6 132 -28
186 -14 36 -26 74 -26 86 0 12 -4 22 -9 22 -5 0 -18 21 -30 48 -29 65 -41 83
-81 133 -69 86 -148 159 -174 159 -14 0 -27 4 -30 8 -2 4 -22 9 -44 10 -22 2
-53 7 -71 12 -20 5 -33 5 -37 -2 -3 -5 -14 -8 -24 -5 -10 2 -23 1 -30 -3 -7
-4 -35 -1 -64 6 -28 8 -52 14 -53 14 -1 0 -4 -4 -8 -9z m133 -117 c41 -2 92
-9 115 -15 23 -7 53 -13 66 -15 13 -1 27 -7 30 -12 3 -5 16 -14 29 -21 12 -6
22 -17 22 -24 0 -7 14 -21 30 -32 17 -11 32 -27 35 -36 3 -8 13 -24 23 -35 19
-21 46 -76 87 -174 22 -51 28 -85 31 -158 2 -51 5 -96 7 -100 3 -4 3 -16 1
-27 -5 -22 -11 -81 -18 -169 -3 -33 -12 -80 -20 -105 -8 -26 -24 -80 -36 -121
-44 -147 -115 -268 -209 -362 -33 -32 -64 -58 -70 -58 -6 0 -11 -4 -11 -10 0
-5 -6 -10 -14 -10 -8 0 -16 -3 -18 -7 -1 -5 -19 -16 -38 -25 -50 -25 -94 -52
-98 -60 -2 -5 -10 -8 -18 -8 -8 0 -29 -7 -47 -16 -38 -20 -173 -37 -196 -24
-9 4 -37 11 -61 15 -126 19 -284 123 -343 225 -51 88 -96 181 -102 213 -4 17
-12 43 -18 57 -5 14 -12 42 -14 63 -2 21 -10 55 -18 77 -24 67 -9 325 23 405
5 11 21 45 35 75 15 30 27 61 27 67 0 7 10 29 22 50 103 178 278 330 431 374
49 14 84 17 162 12 55 -3 133 -7 173 -9z"/>
<path d="M4305 4190 c-23 -5 -91 -44 -134 -76 -2 -2 -5 -38 -8 -81 -3 -68 -1
-83 19 -118 13 -22 34 -44 46 -50 21 -9 23 -15 17 -50 -9 -58 -18 -62 -72 -36
l-48 23 -14 -21 c-7 -12 -19 -21 -27 -21 -8 0 -11 -6 -8 -15 4 -8 1 -15 -5
-15 -6 0 -11 -9 -11 -20 0 -31 -58 -140 -93 -177 -17 -18 -39 -33 -49 -33 -21
0 -24 -30 -8 -76 5 -16 11 -56 14 -89 6 -89 14 -103 50 -89 19 7 22 64 5 81
-21 21 -10 171 14 185 8 4 32 37 53 73 54 93 67 93 60 1 -4 -41 -10 -86 -16
-100 -5 -14 -7 -58 -5 -98 2 -40 -1 -95 -7 -123 -5 -27 -10 -57 -10 -65 -1 -8
-5 -17 -9 -20 -4 -3 -11 -28 -15 -55 -3 -28 -11 -53 -16 -56 -6 -4 -8 -19 -4
-34 7 -26 9 -27 54 -20 26 3 55 9 66 12 10 3 16 1 13 -4 -4 -6 1 -33 10 -62
15 -46 15 -53 2 -67 -17 -16 -30 -17 -92 -10 -29 4 -39 1 -44 -11 -12 -30 11
-48 58 -45 24 2 57 -2 74 -8 26 -10 32 -9 47 10 14 18 17 38 15 115 l-3 93 46
4 c25 3 48 3 53 1 4 -2 7 -55 7 -117 0 -62 3 -116 6 -119 4 -3 16 -1 28 5 11
7 41 15 66 18 25 3 45 10 45 15 0 6 4 15 8 21 13 21 -20 36 -62 29 -21 -3 -41
-3 -44 2 -2 4 0 37 6 72 l10 63 58 -5 c70 -6 78 5 49 69 -10 25 -22 62 -26 82
-3 20 -15 67 -26 103 l-21 66 23 31 c19 26 21 34 10 47 -7 8 -14 28 -17 43 -6
43 8 202 18 202 5 0 9 -6 9 -14 0 -7 7 -20 16 -27 9 -8 25 -33 35 -56 10 -24
22 -43 26 -43 9 0 32 -47 37 -76 5 -26 -11 -150 -25 -201 -9 -34 -9 -46 1 -58
14 -17 35 -21 25 -5 -3 6 1 13 10 16 11 5 14 15 10 38 -3 17 1 67 10 111 9 44
18 87 19 95 1 9 6 21 10 28 5 9 2 15 -10 18 -22 6 -103 130 -128 196 -24 62
-65 101 -95 90 -38 -14 -75 -3 -89 26 -15 33 -15 54 1 50 29 -6 96 38 116 77
21 40 26 115 9 115 -5 0 -8 6 -7 13 3 28 -2 44 -29 73 -41 46 -72 61 -107 54z
m49 -57 c38 -17 52 -44 59 -110 5 -39 2 -46 -30 -78 -40 -40 -41 -40 -88 -21
-25 11 -35 11 -38 3 -3 -8 -12 -5 -27 9 -16 16 -22 34 -22 69 -1 41 3 52 25
70 15 11 27 30 27 42 0 20 13 29 47 32 7 0 28 -6 47 -16z m42 -417 c2 -6 5
-73 7 -148 l2 -137 -50 0 c-27 0 -66 4 -85 9 -19 4 -56 11 -82 15 l-47 6 4
112 c2 62 4 113 5 115 2 1 3 5 4 10 5 26 20 31 82 26 35 -3 71 -1 80 4 19 11
74 3 80 -12z m-90 -317 c25 -7 48 -18 51 -25 3 -8 9 -11 14 -8 5 3 9 4 9 2 0
-2 11 -34 25 -72 14 -38 27 -83 30 -100 2 -17 9 -49 14 -71 6 -22 9 -40 8 -41
-1 0 -36 2 -77 6 -41 4 -84 6 -95 4 -11 -1 -49 -7 -85 -13 -103 -17 -120 -15
-114 12 2 12 9 51 14 87 11 77 31 153 43 161 5 3 9 20 9 37 1 32 1 32 55 32
30 0 75 -5 99 -11z"/>
<path d="M3222 3397 c-34 -10 -50 -23 -82 -67 -70 -98 -74 -107 -86 -237 -8
-73 10 -181 36 -231 11 -20 20 -41 20 -47 0 -39 178 -145 244 -145 31 0 85 19
117 41 34 24 69 142 69 233 0 78 -19 217 -31 231 -5 5 -9 16 -9 25 -1 21 -100
159 -131 182 -33 25 -92 30 -147 15z m136 -57 c18 -11 36 -28 39 -38 4 -9 12
-22 17 -29 6 -7 16 -18 22 -26 12 -14 37 -93 55 -175 14 -65 5 -177 -20 -252
-15 -43 -26 -59 -54 -75 -33 -18 -41 -18 -108 -7 -40 7 -80 19 -88 28 -9 8
-28 24 -43 35 -16 11 -28 27 -28 35 0 8 -4 14 -8 14 -5 0 -9 6 -10 13 0 6 -10
38 -22 70 -17 49 -20 74 -16 160 5 120 9 132 59 186 26 28 42 38 55 34 9 -3
14 -3 10 2 -8 8 9 29 32 38 31 12 76 6 108 -13z"/>
<path d="M3192 3276 c-7 -16 -8 -26 -1 -26 12 0 22 25 17 41 -2 6 -9 0 -16
-15z"/>
<path d="M1330 2969 c-19 -5 -60 -11 -90 -13 -30 -3 -89 -12 -130 -20 -41 -9
-109 -24 -150 -33 -41 -9 -82 -22 -91 -30 -8 -7 -20 -13 -25 -13 -5 0 -32 -17
-59 -38 -28 -20 -61 -43 -75 -50 -14 -8 -50 -43 -80 -79 -30 -36 -62 -73 -71
-82 -27 -28 -76 -95 -98 -133 -11 -21 -30 -55 -42 -75 -12 -21 -24 -42 -28
-48 -29 -39 -119 -320 -133 -414 -5 -37 -17 -97 -25 -136 -31 -137 -14 -413
38 -625 37 -149 116 -375 144 -410 7 -8 29 -46 50 -84 41 -77 48 -86 88 -124
16 -15 72 -69 125 -120 53 -52 122 -111 152 -132 57 -39 208 -95 283 -106 23
-3 49 -8 57 -11 8 -3 42 -7 75 -9 33 -2 76 -6 95 -7 19 -2 49 0 66 3 18 4 38
4 44 0 7 -4 33 2 59 15 25 13 63 26 84 30 20 4 37 11 37 17 0 5 4 7 9 4 5 -4
11 -3 13 1 1 5 21 17 43 28 46 23 177 125 220 171 70 75 105 115 105 120 0 3
14 19 31 37 16 18 39 48 49 67 10 19 27 40 37 46 10 6 30 33 43 60 13 27 35
65 47 84 25 40 97 208 123 290 28 87 38 156 45 295 4 72 9 166 12 210 5 68 7
290 3 290 -1 0 -4 14 -6 30 -3 17 -9 44 -15 61 -5 17 -9 44 -8 60 2 45 -78
319 -98 333 -4 3 -10 17 -11 30 -3 22 -8 30 -38 64 -5 7 -20 33 -32 58 -25 52
-133 155 -215 206 -29 18 -57 37 -64 43 -7 5 -19 10 -27 10 -8 0 -16 4 -18 8
-4 10 -146 79 -213 104 -27 10 -57 15 -67 12 -10 -3 -18 -2 -18 3 0 12 -208
13 -250 2z m253 -115 c37 -4 67 -11 67 -16 0 -5 4 -6 10 -3 10 6 154 -57 180
-79 8 -7 26 -16 40 -19 14 -4 42 -22 62 -42 20 -19 41 -35 46 -35 16 0 100
-96 128 -146 15 -27 32 -56 39 -64 15 -19 55 -106 55 -120 0 -6 4 -18 9 -28
19 -38 42 -123 63 -237 20 -104 23 -149 21 -343 -1 -123 -4 -231 -8 -240 -4
-9 -9 -33 -11 -52 -7 -73 -16 -166 -17 -182 -1 -10 -5 -18 -9 -18 -4 0 -8 -10
-8 -21 0 -12 -15 -56 -33 -98 -19 -42 -49 -111 -67 -153 -17 -42 -39 -79 -47
-82 -8 -3 -12 -10 -8 -15 3 -5 1 -12 -4 -15 -5 -3 -18 -24 -30 -47 -25 -47
-24 -46 -93 -123 -89 -99 -236 -244 -262 -258 -115 -62 -166 -87 -166 -82 0 4
-6 1 -14 -5 -8 -7 -22 -13 -33 -15 -10 -2 -36 -9 -58 -15 -65 -17 -237 -6
-350 22 -106 26 -155 45 -155 59 0 4 -5 8 -10 8 -39 0 -330 258 -330 292 0 10
-4 18 -9 18 -5 0 -14 15 -22 33 -7 17 -27 55 -45 83 -39 58 -78 145 -88 191
-4 18 -12 35 -17 38 -5 4 -9 16 -9 27 0 12 -4 35 -9 52 -56 186 -91 487 -70
601 4 22 13 78 19 125 12 81 60 255 80 292 6 10 10 25 10 34 0 9 7 30 15 47 8
18 23 55 34 83 56 145 262 382 397 457 74 41 198 77 284 82 107 6 235 17 237
19 4 4 106 -2 186 -10z"/>
<path d="M1000 2136 c0 -9 -8 -16 -18 -16 -31 0 -93 -69 -126 -139 -26 -58
-33 -243 -11 -316 12 -42 71 -145 77 -137 3 4 48 -13 79 -28 9 -5 42 -7 73 -7
55 2 59 4 104 52 26 28 47 52 48 55 0 3 6 21 13 40 8 19 15 51 16 70 18 224
18 210 -12 294 -38 107 -73 137 -172 144 -61 4 -71 2 -71 -12z m30 -110 c0
-63 29 -138 66 -173 23 -21 51 -28 97 -25 22 2 23 -36 2 -103 -8 -27 -12 -51
-10 -54 3 -2 -5 -15 -17 -28 -12 -13 -18 -23 -14 -23 4 0 -4 -12 -17 -26 -55
-59 -183 -34 -220 44 -45 96 -55 223 -24 327 13 46 18 51 72 88 58 39 65 36
65 -27z m140 13 c0 -5 -4 -9 -10 -9 -5 0 -10 7 -10 16 0 8 5 12 10 9 6 -3 10
-10 10 -16z m-73 -71 c-2 -13 -4 -3 -4 22 0 25 2 35 4 23 2 -13 2 -33 0 -45z"/>
<path d="M1721 2118 c-23 -11 -41 -24 -41 -28 0 -5 -9 -12 -21 -15 -11 -4 -18
-13 -15 -20 2 -7 -4 -30 -13 -51 -21 -44 -50 -144 -54 -189 -5 -42 10 -113 34
-164 11 -24 18 -45 15 -48 -10 -11 42 -57 92 -80 41 -20 61 -24 94 -19 51 8
133 74 154 124 12 31 24 113 27 192 1 38 -24 134 -38 145 -7 6 -12 22 -12 36
0 37 -40 86 -87 109 -61 29 -90 31 -135 8z m33 -70 c-8 -40 -7 -83 4 -123 9
-33 74 -85 110 -88 12 -1 22 -5 22 -9 0 -4 10 -8 21 -8 20 0 21 -4 16 -68 -6
-80 -38 -142 -87 -167 -46 -24 -113 -11 -145 27 -14 16 -25 34 -25 39 0 6 -10
31 -21 57 -46 100 -29 197 59 335 31 48 57 50 46 5z"/>
<path d="M1272 1271 c-20 -12 -25 -61 -7 -61 8 0 15 -4 15 -9 0 -5 30 -18 68
-30 66 -21 67 -21 120 -3 65 23 65 24 57 61 -8 37 -31 40 -65 11 -28 -24 -90
-21 -129 7 -41 30 -46 32 -59 24z"/>
<path d="M1429 875 c-2 -2 -49 -6 -104 -9 -55 -3 -131 -12 -170 -20 -64 -14
-197 -41 -252 -52 -16 -3 -23 -12 -23 -27 0 -23 35 -53 44 -38 6 8 17 11 96
26 19 3 49 10 65 15 17 4 62 14 100 20 39 7 84 16 100 20 30 6 47 6 196 -3 86
-6 130 -25 208 -91 21 -17 37 -24 39 -17 2 6 10 11 17 11 7 0 15 6 18 14 7 17
-19 56 -37 56 -8 0 -19 7 -26 16 -25 29 -168 79 -202 70 -11 -2 -30 -1 -43 4
-13 5 -25 7 -26 5z"/>
<path d="M2563 2865 c-18 -18 -33 -38 -33 -44 0 -7 -8 -23 -17 -37 -16 -25
-17 -60 -9 -195 1 -15 15 -52 31 -83 31 -59 55 -75 150 -96 89 -20 170 20 194
95 18 57 22 125 10 162 -15 48 -62 116 -117 171 -40 40 -51 45 -91 46 -25 0
-53 -3 -63 -7 -11 -6 -17 -4 -20 6 -2 11 -12 6 -35 -18z m157 -42 c14 -9 33
-26 42 -37 10 -12 22 -26 27 -32 5 -6 21 -35 36 -64 22 -43 26 -62 22 -101
-11 -103 -90 -150 -195 -115 -85 28 -101 59 -108 199 -5 82 -3 89 21 122 22
29 34 35 73 38 26 2 49 4 52 5 3 1 17 -6 30 -15z"/>
</g>
</svg>
