<?xml version="1.0" standalone="no"?>
<!DOCTYPE svg PUBLIC "-//W3C//DTD SVG 20010904//EN"
 "http://www.w3.org/TR/2001/REC-SVG-20010904/DTD/svg10.dtd">
<svg version="1.0" xmlns="http://www.w3.org/2000/svg"
 width="523.000000pt" height="437.000000pt" viewBox="0 0 523.000000 437.000000"
 preserveAspectRatio="xMidYMid meet">
<metadata>
Created by potrace 1.16, written by Peter Selinger 2001-2019
</metadata>
<g transform="translate(0.000000,437.000000) scale(0.100000,-0.100000)"
fill="#000000" stroke="none">
<path d="M4650 4233 c-19 -18 -38 -33 -41 -33 -7 0 -83 -65 -132 -112 -16 -16
-33 -28 -37 -28 -25 0 -252 -253 -296 -329 -12 -20 -31 -52 -42 -71 l-22 -35
0 32 c0 37 -22 54 -64 49 -46 -5 -51 -18 -52 -144 0 -64 -3 -127 -8 -139 -5
-17 1 -30 28 -60 l35 -38 36 20 c21 11 40 25 42 32 3 7 9 13 14 13 5 0 18 9
29 20 11 11 31 20 45 20 14 0 25 6 25 13 0 8 24 24 53 38 45 21 52 28 55 56 7
70 -47 96 -109 52 -63 -45 -12 51 105 196 90 112 112 135 176 185 25 19 59 47
75 61 17 15 54 47 83 73 29 25 61 46 70 46 28 0 42 21 42 61 0 34 -3 37 -38
46 -35 9 -40 7 -72 -24z"/>
<path d="M622 4150 c-12 -12 -22 -25 -22 -30 0 -23 24 -57 48 -68 15 -6 53
-38 84 -69 77 -78 79 -81 121 -136 20 -26 42 -54 49 -62 7 -7 29 -36 48 -64
19 -28 52 -74 73 -103 39 -54 37 -68 -10 -68 -17 0 -23 -8 -28 -40 -7 -40 -6
-40 70 -112 153 -144 196 -192 222 -244 16 -33 83 -61 117 -48 31 12 38 51 16
93 -10 21 -21 62 -23 90 -2 29 -9 57 -16 64 -6 6 -11 25 -11 42 0 17 -9 51
-21 74 -11 24 -21 56 -21 72 -1 21 -12 39 -36 60 -30 27 -36 29 -51 16 -9 -8
-22 -12 -28 -10 -7 3 -13 0 -13 -6 0 -21 -16 -11 -35 22 -10 17 -38 58 -62 89
-24 31 -43 60 -43 64 0 4 -17 26 -37 49 -21 23 -63 73 -93 111 -30 37 -68 82
-83 98 -16 17 -32 35 -35 41 -15 22 -122 95 -140 95 -10 0 -28 -9 -40 -20z"/>
<path d="M1830 3159 c-44 -13 -114 -30 -140 -33 -35 -5 -54 -10 -60 -17 -13
-15 -133 -69 -154 -69 -16 0 -23 -5 -22 -16 0 -9 -14 -24 -31 -34 -18 -9 -56
-37 -85 -62 -29 -24 -64 -51 -76 -60 -13 -9 -54 -45 -90 -80 -37 -36 -80 -73
-97 -84 -16 -10 -43 -31 -60 -46 -16 -15 -35 -28 -41 -28 -6 0 -17 -6 -23 -13
-18 -22 -161 -89 -176 -83 -8 3 -17 1 -21 -5 -3 -6 -12 -8 -20 -5 -7 3 -16 1
-20 -5 -3 -6 -12 -8 -19 -5 -8 3 -15 1 -17 -4 -3 -9 -157 -42 -253 -55 -27 -3
-66 -9 -85 -12 -19 -3 -42 -6 -50 -5 -67 1 -114 -35 -102 -81 6 -24 56 -49 84
-42 13 3 37 7 53 9 17 3 51 11 77 20 25 8 49 12 51 9 3 -3 21 0 39 6 18 6 51
13 73 15 44 5 95 15 105 21 4 2 22 7 40 10 81 14 194 59 250 98 13 9 31 17 39
17 8 0 21 7 30 15 51 46 61 55 66 55 2 0 20 15 39 33 19 17 42 39 53 47 56 45
143 120 177 153 22 20 45 37 51 37 5 0 30 16 54 35 24 19 50 35 58 35 15 0 94
40 103 52 3 3 19 9 35 13 17 4 44 13 60 20 17 7 44 15 60 16 17 2 35 7 40 11
15 10 154 2 188 -11 15 -6 27 -8 27 -5 0 9 55 -24 82 -50 15 -14 31 -26 37
-26 5 0 22 -16 38 -35 15 -20 45 -54 66 -76 20 -23 37 -44 37 -47 0 -3 8 -15
19 -26 28 -31 111 -154 111 -164 0 -5 25 -50 55 -100 30 -50 55 -94 55 -96 0
-3 22 -39 49 -80 56 -86 69 -141 46 -186 -9 -17 -17 -30 -19 -30 -12 0 -156
156 -156 168 0 4 -16 23 -35 42 -19 19 -35 39 -35 45 0 6 -10 17 -21 25 -44
30 -88 86 -151 194 -32 54 -50 64 -84 45 -21 -11 -25 -19 -21 -49 5 -45 33
-99 63 -123 13 -10 24 -23 24 -29 0 -17 72 -118 84 -118 15 0 34 -21 141 -158
5 -7 33 -37 61 -65 64 -65 76 -86 67 -129 -14 -75 -73 -111 -99 -60 -6 12 -14
19 -17 15 -4 -3 -7 -1 -7 5 0 6 -15 27 -32 46 -18 19 -50 53 -70 75 -20 23
-41 41 -47 41 -5 0 -27 21 -48 47 -46 58 -57 70 -136 154 -34 36 -81 87 -105
112 -23 26 -50 47 -60 47 -19 0 -47 -15 -48 -27 0 -4 -4 -16 -8 -25 -6 -12 0
-27 15 -46 13 -15 27 -27 30 -27 4 0 35 -31 70 -70 34 -38 73 -78 86 -88 13
-10 37 -39 55 -65 17 -25 46 -58 63 -73 17 -15 53 -51 81 -79 27 -28 59 -61
71 -73 26 -26 35 -78 21 -119 -8 -23 -16 -28 -42 -28 -21 0 -37 7 -46 21 -20
28 -99 107 -149 149 -22 19 -41 40 -41 47 0 6 -21 29 -47 50 -27 21 -64 56
-83 77 -19 22 -41 44 -48 50 -8 6 -27 23 -43 39 -15 15 -32 27 -36 27 -3 0
-17 9 -29 21 -31 29 -90 18 -99 -18 -5 -21 2 -34 37 -70 24 -25 57 -50 73 -58
17 -7 38 -21 48 -31 83 -90 311 -314 318 -314 5 0 9 -5 9 -12 0 -6 8 -20 17
-30 26 -29 6 -52 -53 -59 -27 -3 -53 -3 -59 0 -11 7 -18 8 -43 10 -10 0 -27 9
-38 19 -26 22 -53 39 -81 52 -13 5 -23 13 -23 18 0 4 -18 27 -40 50 -22 22
-40 46 -40 51 0 6 -6 8 -13 5 -13 -4 -70 53 -108 107 -8 12 -24 22 -35 22 -10
0 -24 4 -31 9 -13 11 -53 -19 -53 -39 0 -7 -4 -13 -10 -13 -5 0 -10 -6 -10
-13 0 -8 -23 -18 -59 -25 -32 -7 -64 -18 -70 -25 -6 -8 -32 -13 -68 -12 -32 1
-71 -2 -87 -7 -16 -4 -34 -5 -39 -1 -6 4 -32 7 -59 8 -26 1 -50 4 -53 7 -9 9
-74 -9 -93 -24 -37 -32 -98 -41 -216 -35 -63 4 -126 11 -141 17 -14 5 -39 10
-54 10 -15 0 -31 4 -37 10 -8 8 -49 17 -124 25 -14 2 -37 8 -51 13 -15 6 -36
8 -47 5 -11 -2 -23 0 -26 5 -7 12 -60 0 -82 -19 -15 -13 -18 -56 -5 -77 4 -8
32 -15 64 -17 31 -2 61 -6 65 -9 5 -3 39 -8 77 -11 37 -4 87 -14 109 -22 40
-14 160 -32 242 -37 22 -2 46 -6 52 -10 7 -4 12 -3 12 1 0 5 18 7 40 5 39 -4
150 24 161 40 7 11 51 12 134 5 33 -2 64 -2 69 1 5 3 52 7 104 8 62 3 101 9
111 18 9 7 33 19 53 25 20 7 38 17 40 22 2 6 23 13 47 16 29 4 42 2 38 -4 -4
-6 18 -28 48 -49 30 -22 54 -42 55 -45 0 -9 67 -79 75 -79 3 0 11 -5 18 -10
72 -60 195 -109 277 -110 67 -1 150 21 150 40 0 5 6 10 14 10 8 0 16 10 18 22
2 15 13 25 33 31 17 5 43 26 59 48 17 21 36 39 43 39 7 0 10 6 7 13 -3 8 0 25
5 39 7 19 21 28 58 37 47 12 93 50 93 78 0 7 5 13 10 13 6 0 10 12 10 26 0 46
23 105 47 121 13 8 23 25 23 36 0 11 12 49 26 85 14 35 23 71 20 79 -4 9 -2
21 4 28 7 9 1 24 -23 55 -47 62 -77 113 -77 132 0 9 -10 25 -23 35 -12 10 -40
49 -61 88 l-38 69 21 17 c12 10 21 21 21 27 0 5 9 17 20 27 32 29 81 126 85
168 3 21 8 43 12 50 12 19 5 108 -11 132 -16 24 -90 42 -110 27 -16 -14 -194
-33 -305 -34 -56 0 -67 3 -93 28 -37 34 -99 67 -159 82 -59 15 -168 21 -199
11z m777 -233 c-2 -20 -7 -39 -10 -43 -4 -3 -7 -13 -7 -22 0 -9 -11 -29 -25
-45 -13 -16 -27 -36 -30 -45 -6 -21 -48 -47 -53 -33 -2 6 -13 21 -25 35 -29
32 -46 53 -82 102 -16 22 -34 43 -39 46 -5 4 1 10 13 14 13 4 25 5 27 2 2 -2
30 1 61 7 31 6 83 13 115 14 l59 3 -4 -35z"/>
<path d="M3818 3100 c-16 -5 -28 -6 -28 -3 0 3 -7 0 -15 -7 -8 -7 -15 -9 -15
-5 0 4 -20 -9 -44 -29 -24 -20 -49 -36 -56 -36 -6 0 -8 -4 -5 -10 3 -6 -5 -10
-19 -10 -13 0 -26 -4 -28 -9 -3 -9 -115 -14 -213 -9 -58 3 -72 -1 -96 -24 -24
-23 -43 -90 -35 -122 7 -30 63 -96 80 -96 7 0 21 -9 31 -20 10 -11 24 -20 32
-20 7 0 13 -4 13 -10 0 -5 7 -10 15 -10 15 0 14 -5 -16 -60 -45 -80 -69 -119
-91 -144 -10 -11 -18 -24 -18 -28 0 -5 -30 -40 -67 -78 -92 -94 -113 -119
-113 -136 0 -8 -4 -14 -9 -14 -18 0 -30 -93 -19 -140 2 -8 17 -29 33 -46 17
-16 41 -44 55 -61 14 -16 31 -32 38 -34 9 -3 9 -12 0 -40 -6 -20 -8 -47 -5
-60 10 -38 83 -109 105 -101 7 2 12 -1 12 -8 0 -6 3 -9 8 -7 4 3 17 1 30 -4
15 -6 22 -17 22 -35 0 -33 30 -84 50 -84 8 0 29 -8 45 -18 18 -11 55 -19 92
-20 55 -3 66 0 88 22 13 13 27 21 30 16 16 -26 103 -53 177 -54 49 -2 61 2 89
26 17 15 38 28 45 28 8 0 14 5 14 11 0 13 62 93 93 121 11 10 24 15 29 12 6
-4 7 2 3 15 -5 15 -2 21 9 21 9 0 16 6 16 13 0 6 17 26 37 42 20 17 45 38 54
47 21 20 54 25 294 43 22 1 58 10 80 20 53 23 112 37 155 37 47 0 112 -12 127
-24 18 -15 144 -1 158 18 11 16 12 56 1 101 -7 24 -9 25 -54 17 -43 -8 -103
-9 -209 -4 -51 2 -150 -19 -181 -38 -28 -18 -47 -21 -222 -28 -109 -5 -140
-10 -162 -25 -14 -11 -29 -19 -33 -19 -4 0 -20 -11 -37 -25 -16 -14 -35 -25
-42 -25 -7 0 -25 -19 -42 -41 -16 -23 -43 -58 -59 -78 -17 -20 -43 -53 -58
-73 -15 -20 -37 -40 -49 -44 -13 -3 -31 -13 -40 -21 -20 -18 -72 -11 -99 13
-14 13 -15 20 -5 47 6 18 16 38 23 45 6 6 15 22 19 34 4 13 20 35 35 49 16 15
29 31 29 37 0 5 7 12 15 16 8 3 14 9 13 13 -3 12 24 63 33 63 17 0 71 134 73
179 1 41 -2 46 -27 55 -39 14 -59 -1 -79 -62 -9 -29 -25 -64 -36 -79 -11 -16
-23 -39 -27 -53 -4 -14 -29 -51 -56 -82 -27 -31 -49 -59 -49 -63 0 -4 -16 -34
-36 -66 -21 -33 -38 -73 -39 -89 -4 -74 -4 -73 -20 -60 -9 8 -41 12 -77 12
-79 -1 -99 21 -59 65 11 12 30 42 42 68 12 25 34 58 49 73 14 15 43 54 64 87
21 33 60 83 85 110 52 55 111 181 111 235 0 43 -24 66 -58 54 -20 -7 -31 -24
-52 -84 -32 -92 -58 -137 -82 -143 -10 -3 -25 -20 -33 -39 -8 -18 -30 -50 -49
-71 -20 -21 -36 -42 -36 -47 0 -5 -10 -17 -23 -27 -13 -10 -24 -20 -24 -23 0
-3 -17 -31 -37 -63 -26 -41 -41 -55 -49 -49 -7 5 -27 10 -45 10 -37 1 -62 17
-62 39 0 17 31 73 41 73 11 0 101 93 141 148 21 28 43 52 49 52 6 0 8 4 5 8
-3 5 14 33 36 63 39 50 95 146 136 229 9 19 20 36 24 38 14 6 -14 60 -36 70
-21 9 -27 7 -50 -19 -14 -16 -26 -38 -26 -49 0 -44 -112 -215 -210 -320 -8 -8
-21 -28 -29 -43 -8 -15 -18 -27 -22 -27 -4 0 -24 -18 -45 -40 -36 -37 -39 -39
-46 -20 -4 11 -14 20 -23 20 -8 0 -15 3 -15 8 0 4 -12 20 -26 35 -17 19 -23
32 -16 40 5 7 12 25 16 41 4 15 12 34 19 42 7 7 17 20 23 27 7 8 23 22 36 33
27 22 140 182 184 261 16 29 32 53 37 53 4 0 7 8 7 18 0 10 8 27 18 38 9 10
18 27 20 37 2 10 13 35 24 55 12 20 27 48 34 63 8 14 25 36 39 49 14 13 25 27
25 31 0 11 49 59 60 59 6 0 10 7 10 16 0 8 4 13 8 10 4 -2 22 2 40 11 32 16
122 11 122 -6 0 -5 19 -11 42 -15 23 -4 47 -11 53 -15 5 -5 37 -24 70 -41 33
-18 71 -43 86 -56 14 -13 30 -24 36 -24 6 0 20 -11 31 -25 11 -13 21 -22 24
-20 2 3 20 -9 38 -25 18 -16 42 -32 52 -36 10 -3 18 -10 18 -15 0 -5 6 -9 13
-9 8 0 22 -9 32 -20 10 -11 23 -20 29 -20 6 0 16 -8 23 -19 11 -17 70 -38 138
-47 17 -3 53 -10 80 -16 28 -6 104 -12 170 -13 66 -1 132 -7 147 -13 42 -17
86 -4 104 31 13 24 14 34 4 52 -12 22 -75 49 -92 39 -8 -5 -98 -14 -160 -15
-49 -2 -207 20 -238 33 -68 27 -134 65 -147 86 -9 12 -19 22 -23 22 -10 0
-105 64 -126 84 -8 9 -21 16 -28 16 -7 0 -22 10 -33 23 -44 46 -85 75 -120 83
-6 1 -22 11 -34 23 -13 12 -30 21 -39 21 -9 0 -21 5 -27 11 -5 5 -28 12 -49
15 -21 3 -52 11 -68 19 -32 16 -85 18 -128 5z m-286 -225 c27 3 27 3 10 -20
-31 -42 -127 -42 -161 -1 -22 26 -5 33 61 25 35 -4 75 -6 90 -4z"/>
<path d="M2828 1185 c-4 -4 -24 -9 -45 -12 -49 -6 -129 -50 -152 -82 -10 -15
-21 -40 -25 -56 -4 -17 -16 -46 -27 -64 -20 -32 -21 -33 -77 -27 -116 12 -168
4 -237 -36 -16 -10 -41 -24 -55 -32 -112 -64 -192 -223 -155 -308 18 -42 51
-72 90 -83 17 -5 33 -9 38 -10 4 -2 10 -4 15 -5 4 -1 14 -2 24 -1 9 1 19 -3
23 -9 3 -5 14 -10 24 -10 10 0 26 -9 36 -20 17 -19 17 -22 -3 -90 -20 -65 -20
-73 -6 -120 8 -27 19 -50 25 -50 5 0 21 -12 34 -28 21 -25 29 -27 93 -26 82 2
149 29 235 93 61 46 90 50 142 21 19 -11 35 -17 35 -14 0 4 6 2 13 -4 7 -7 51
-10 107 -8 75 3 103 8 133 25 64 36 87 53 87 64 0 18 60 134 76 148 8 6 36 11
62 10 148 -7 171 -4 205 26 18 15 45 53 61 83 24 48 27 68 29 160 2 121 -10
157 -70 202 -32 25 -42 27 -104 23 -38 -2 -83 -11 -101 -19 -17 -9 -39 -16
-48 -16 -23 0 -35 31 -18 45 20 16 20 52 -2 100 -11 24 -20 48 -20 52 0 5 -24
20 -52 34 -50 24 -57 25 -120 14 -68 -11 -151 -1 -167 21 -7 11 -94 18 -103 9z
m103 -117 c30 -12 62 -31 71 -42 17 -21 17 -21 65 -3 81 31 100 32 109 5 4
-12 6 -58 5 -101 -3 -94 10 -121 66 -132 47 -10 56 -9 118 20 28 12 69 26 92
30 36 6 44 4 50 -12 3 -10 11 -21 16 -25 6 -3 10 -26 10 -50 -1 -122 -28 -197
-70 -199 -13 -1 -29 -2 -35 -3 -7 -1 -24 2 -38 7 -60 21 -200 -27 -200 -70 0
-7 -3 -13 -7 -13 -5 0 -13 -10 -19 -23 -6 -12 -23 -45 -37 -73 -33 -65 -51
-75 -153 -77 -52 -2 -67 2 -102 26 -51 36 -97 41 -150 17 -23 -11 -42 -17 -42
-14 0 3 -10 -4 -22 -16 -12 -11 -25 -20 -28 -20 -4 0 -20 -11 -36 -25 -16 -14
-53 -34 -82 -45 l-54 -20 -33 20 c-29 18 -33 25 -28 53 3 17 10 38 16 45 6 7
10 39 10 70 0 91 -49 152 -123 152 -16 0 -31 4 -34 9 -4 5 -24 12 -45 16 -52
9 -70 30 -64 77 3 25 18 51 44 80 21 24 39 40 39 36 0 -5 9 1 20 12 11 11 26
20 34 20 8 0 17 7 20 16 4 9 9 14 13 11 3 -4 12 -2 20 4 16 14 111 21 148 10
18 -4 46 -1 78 10 60 20 106 71 127 139 16 49 36 69 90 87 52 17 81 15 141 -9z"/>
</g>
</svg>
