<?xml version="1.0" standalone="no"?>
<!DOCTYPE svg PUBLIC "-//W3C//DTD SVG 20010904//EN"
 "http://www.w3.org/TR/2001/REC-SVG-20010904/DTD/svg10.dtd">
<svg version="1.0" xmlns="http://www.w3.org/2000/svg"
 width="539.000000pt" height="435.000000pt" viewBox="0 0 539.000000 435.000000"
 preserveAspectRatio="xMidYMid meet">
<metadata>
Created by potrace 1.16, written by Peter Selinger 2001-2019
</metadata>
<g transform="translate(0.000000,435.000000) scale(0.100000,-0.100000)"
fill="#000000" stroke="none">
<path d="M1724 4106 c-16 -12 -19 -28 -20 -103 -1 -48 -2 -104 -2 -123 -2 -43
6 -70 19 -70 5 0 12 8 15 18 3 9 10 26 15 37 12 27 30 109 36 168 4 40 1 52
-16 68 -24 23 -22 23 -47 5z"/>
<path d="M1166 4073 c-12 -31 -5 -66 26 -121 18 -31 38 -63 45 -70 7 -7 13
-16 13 -20 0 -4 7 -15 15 -26 12 -16 16 -16 27 -5 21 21 11 83 -26 168 -29 66
-37 76 -64 82 -22 4 -32 2 -36 -8z"/>
<path d="M2285 3986 c-8 -12 -17 -34 -20 -51 -4 -16 -10 -39 -15 -50 -30 -73
-34 -99 -16 -114 23 -20 53 -4 69 37 9 20 27 50 41 66 30 34 36 96 10 117 -24
20 -54 18 -69 -5z"/>
<path d="M647 3834 c-12 -23 -12 -31 0 -54 13 -28 31 -47 45 -49 24 -4 39 -18
74 -66 34 -48 74 -72 74 -46 0 24 -51 155 -67 174 -52 59 -62 67 -86 67 -18 0
-31 -8 -40 -26z"/>
<path d="M2741 3603 c-7 -3 -34 -27 -60 -53 -25 -26 -56 -51 -69 -55 -15 -4
-21 -12 -18 -22 3 -8 6 -18 6 -22 0 -19 75 -9 134 18 74 34 90 56 78 103 -8
33 -36 45 -71 31z"/>
<path d="M1650 3569 c-25 -4 -69 -8 -98 -8 -29 -1 -60 -5 -70 -11 -26 -14
-191 -58 -247 -65 -57 -7 -147 -40 -187 -67 -14 -10 -30 -18 -35 -18 -18 0
-243 -235 -243 -254 0 -4 -15 -27 -34 -52 -19 -25 -38 -58 -41 -75 -4 -16 -10
-29 -15 -29 -4 0 -13 -14 -20 -31 -7 -17 -20 -37 -28 -46 -11 -10 -12 -17 -4
-22 8 -5 7 -20 -4 -56 -19 -61 -12 -260 10 -303 15 -30 80 -237 92 -292 12
-63 53 -133 135 -235 44 -55 84 -109 89 -121 4 -11 19 -33 33 -50 13 -16 39
-53 56 -83 29 -49 32 -62 37 -163 2 -59 5 -112 5 -116 1 -4 1 -9 0 -12 -4 -10
-22 -408 -22 -465 1 -11 8 -45 16 -75 9 -30 17 -60 18 -65 1 -6 15 -27 30 -46
15 -20 27 -40 27 -45 0 -5 28 -28 61 -52 34 -24 59 -46 56 -49 -3 -2 1 -23 9
-45 15 -44 56 -86 89 -92 11 -2 41 -8 68 -14 129 -26 206 7 264 114 18 33 32
67 33 76 0 15 40 48 40 33 0 -4 12 3 26 14 15 12 31 21 36 21 21 0 88 85 88
111 0 7 6 20 14 28 8 10 17 50 20 101 4 47 9 102 12 122 5 34 7 84 18 433 2
91 0 145 -7 153 -8 10 -3 19 19 38 81 70 105 98 143 167 32 60 80 129 94 135
4 2 7 8 7 13 0 6 11 34 24 62 13 29 33 73 45 100 35 78 89 292 101 399 11 97
11 228 0 228 -3 0 -6 17 -6 38 -3 83 -19 135 -90 307 -24 58 -48 100 -68 117
-17 15 -27 27 -23 28 20 1 -103 90 -124 90 -7 0 -33 9 -58 21 -77 35 -104 46
-146 59 -22 7 -46 18 -54 24 -13 10 -113 35 -136 34 -5 0 -30 -4 -55 -9z m175
-127 c41 -21 115 -54 195 -87 84 -35 158 -86 174 -120 9 -18 23 -35 31 -39 8
-3 15 -13 15 -22 0 -17 35 -88 58 -115 7 -9 12 -20 11 -25 -2 -5 2 -34 9 -64
14 -68 21 -263 11 -310 -8 -37 -21 -123 -22 -152 -1 -10 -5 -18 -9 -18 -4 0
-8 -8 -8 -17 -1 -73 -149 -397 -227 -498 -51 -66 -86 -105 -93 -105 -5 0 -21
-11 -34 -25 -19 -19 -30 -23 -43 -17 -24 12 -49 3 -107 -37 -28 -20 -47 -28
-44 -19 4 8 9 41 13 74 4 32 12 70 17 84 6 14 18 57 28 95 10 39 28 106 40
150 12 44 26 98 30 120 11 58 35 140 70 247 33 99 37 110 50 173 5 22 18 64
30 93 23 60 22 130 -4 144 -21 12 -56 -7 -56 -30 0 -9 -6 -28 -13 -42 -54
-102 -90 -166 -98 -174 -10 -11 -10 -10 -13 122 -2 68 -6 86 -22 103 -13 12
-27 17 -37 13 -19 -7 -85 -118 -90 -152 -8 -51 -17 -30 -14 34 3 60 0 72 -20
91 -27 28 -63 29 -85 4 -21 -25 -49 -84 -58 -124 l-7 -32 -7 30 c-4 17 -10 37
-14 45 -3 8 -6 20 -7 25 -9 74 -46 116 -84 95 -30 -16 -54 -109 -54 -212 0
-82 -1 -86 -19 -75 -10 7 -21 21 -24 32 -4 11 -12 27 -19 35 -14 17 -45 126
-45 158 0 33 -22 72 -40 72 -35 0 -53 -36 -53 -105 0 -35 6 -71 12 -79 7 -8
12 -38 12 -68 0 -30 7 -63 16 -77 9 -15 19 -67 25 -140 5 -64 13 -125 18 -136
10 -21 41 -180 38 -193 -1 -4 4 -25 10 -47 13 -48 23 -113 27 -180 2 -27 4
-52 5 -55 1 -3 2 -30 2 -60 1 -30 7 -64 14 -75 21 -30 17 -35 -26 -35 -22 0
-40 4 -40 10 0 5 -7 7 -15 4 -8 -4 -22 -1 -29 6 -11 8 -20 9 -35 0 -17 -8 -21
-8 -21 3 0 8 -11 22 -25 31 -14 9 -25 22 -25 28 0 6 -17 34 -38 62 -21 28 -50
71 -65 96 -15 25 -39 59 -54 75 -67 73 -149 193 -139 203 3 3 1 10 -4 17 -5 6
-12 31 -15 55 -3 24 -10 49 -14 54 -5 6 -17 38 -26 71 -9 33 -20 69 -25 80
-24 55 -32 106 -33 194 0 75 4 108 21 152 23 59 96 187 116 204 7 6 24 30 39
55 30 51 141 170 159 170 7 0 23 11 37 24 27 24 232 96 276 96 12 0 52 9 88
20 35 11 89 22 118 25 29 3 55 8 58 11 4 4 47 4 96 2 66 -4 102 -11 130 -26z
m-381 -694 c9 -39 16 -77 16 -85 0 -8 7 -30 16 -49 12 -24 23 -34 40 -34 33 0
44 28 44 107 -1 69 19 144 39 151 7 2 11 -10 11 -31 0 -18 7 -56 15 -83 8 -27
15 -70 15 -95 0 -27 6 -51 14 -58 22 -18 56 17 62 64 3 22 15 75 26 119 25 91
34 83 37 -33 2 -78 21 -131 47 -131 17 0 64 44 64 60 0 6 7 19 16 28 15 15 16
13 9 -19 -4 -19 -15 -52 -25 -74 -9 -22 -20 -53 -24 -70 -8 -38 -51 -177 -82
-273 -14 -39 -27 -91 -30 -115 -4 -23 -12 -53 -19 -67 -12 -22 -28 -90 -54
-220 -4 -19 -12 -44 -18 -55 -6 -11 -8 -25 -6 -32 2 -6 -5 -17 -16 -23 -27
-14 -152 -24 -206 -15 -40 6 -43 8 -36 28 12 31 11 40 -4 57 -14 16 -39 123
-50 220 -4 30 -18 107 -32 170 -28 127 -29 133 -37 205 -3 28 -10 74 -15 102
-6 29 -13 76 -16 105 -4 29 -10 58 -15 64 -5 6 -12 28 -16 50 l-6 39 36 -47
c20 -26 36 -51 36 -57 0 -14 48 -61 64 -61 6 0 21 6 31 14 17 12 19 25 17 92
-1 44 0 97 4 118 6 36 8 38 19 22 7 -9 20 -49 29 -88z m381 -1117 c-33 -65
-101 -157 -156 -208 -146 -139 -132 -130 -251 -167 -107 -33 -160 -42 -235
-38 -36 2 -48 32 -13 32 10 0 29 4 42 9 13 5 62 21 109 36 56 17 100 37 125
59 22 18 55 42 75 54 19 12 57 49 84 82 26 33 52 60 57 60 13 0 67 63 68 80 0
21 49 48 87 49 l32 1 -24 -49z m-475 -21 l35 -1 -24 -19 c-13 -11 -30 -20 -38
-20 -8 0 -30 -7 -48 -16 -18 -8 -50 -14 -71 -12 -37 3 -39 5 -42 40 l-3 38 78
-5 c43 -2 94 -5 113 -5z m230 -7 c0 -13 -164 -163 -177 -163 -7 0 -13 -4 -13
-10 0 -5 -8 -10 -18 -10 -10 0 -22 -4 -27 -9 -15 -13 -119 -41 -154 -41 -28 0
-31 3 -31 30 0 28 3 30 38 30 56 0 134 24 199 61 64 36 156 99 161 111 5 10
22 10 22 1z m316 -65 c-3 -29 -5 -53 -6 -53 -1 0 -3 -7 -5 -15 -11 -45 -39
-105 -69 -153 -34 -53 -130 -147 -151 -147 -5 0 -28 -16 -50 -35 -21 -20 -60
-42 -86 -49 -25 -8 -61 -22 -79 -31 -39 -20 -129 -36 -227 -41 l-72 -3 2 47 2
47 55 3 c119 7 368 90 397 132 8 11 18 20 24 20 12 0 159 150 159 162 0 5 17
30 38 56 22 26 45 62 52 80 7 17 14 32 17 32 2 0 2 -24 -1 -52z m0 -280 c-4
-13 -8 -28 -10 -35 -1 -7 -5 -16 -9 -19 -4 -4 -7 -15 -7 -25 0 -10 -9 -24 -20
-32 -11 -8 -17 -16 -14 -20 8 -7 -67 -107 -81 -107 -6 0 -24 -12 -41 -28 -64
-60 -244 -129 -357 -136 -66 -4 -137 9 -137 26 0 4 -10 8 -22 8 -12 0 -19 2
-16 5 4 4 43 10 133 21 22 2 59 8 82 12 47 10 176 63 181 74 2 5 8 8 14 8 6 0
27 14 48 30 21 17 43 30 49 30 7 0 14 7 17 15 4 8 11 15 16 15 15 0 124 113
142 148 19 37 42 44 32 10z m-36 -287 c-20 -69 -60 -108 -145 -138 -108 -39
-175 -39 -81 0 23 10 53 27 64 37 12 11 25 20 29 20 8 0 28 16 108 84 17 14
31 26 32 26 1 0 -2 -13 -7 -29z m-280 -165 c0 -2 -7 -7 -16 -10 -8 -3 -12 -2
-9 4 6 10 25 14 25 6z m40 -114 c0 -4 -12 -22 -27 -39 -28 -31 -96 -52 -108
-33 -3 5 -12 7 -20 3 -8 -3 -23 -2 -32 2 -20 9 -30 11 -55 13 -11 1 -18 10
-18 22 0 17 7 20 48 21 51 1 93 7 101 14 8 8 111 5 111 -3z"/>
<path d="M376 3487 c-26 -19 -14 -93 17 -103 12 -4 27 -14 34 -23 9 -12 12
-12 13 -3 0 10 10 12 38 8 114 -17 132 -17 138 -1 7 17 -22 55 -41 55 -6 0
-46 18 -89 40 -87 45 -86 45 -110 27z"/>
<path d="M2759 2930 c-28 -23 -32 -32 -24 -46 11 -17 23 -20 136 -28 75 -6
100 5 104 47 5 41 -20 54 -106 55 -70 0 -79 -2 -110 -28z"/>
<path d="M213 2855 c-15 -10 -20 -22 -16 -37 11 -43 33 -58 87 -58 58 0 126
16 126 30 0 6 9 10 19 10 11 0 27 7 36 17 15 15 15 17 1 25 -8 5 -55 10 -103
12 -48 2 -97 7 -108 10 -11 4 -29 0 -42 -9z"/>
<path d="M4680 2761 c-25 -4 -292 -6 -595 -5 -519 1 -552 0 -588 -18 l-37 -18
6 -68 c3 -37 8 -70 10 -74 6 -9 11 -72 19 -208 3 -58 10 -134 14 -170 5 -36 6
-69 4 -73 -3 -4 -7 -126 -9 -270 -2 -144 -6 -320 -10 -392 -3 -71 -6 -139 -5
-150 2 -80 -1 -220 -4 -226 -3 -3 -5 -65 -6 -137 -1 -129 0 -132 27 -166 l28
-35 170 5 c255 6 367 13 406 24 74 21 771 10 1010 -16 103 -12 137 -9 159 10
14 13 19 27 16 50 -24 180 -35 885 -20 1311 15 432 21 555 30 563 2 3 -3 18
-12 33 -14 24 -25 29 -58 30 -22 1 -43 1 -47 0 -16 -2 -278 -1 -368 2 -52 2
-115 1 -140 -2z m-455 -72 c70 7 725 4 770 -3 17 -3 70 -8 118 -12 73 -6 90
-10 98 -27 8 -13 9 -110 4 -306 -14 -547 -15 -647 -15 -906 0 -143 -1 -282 -1
-310 -1 -27 0 -54 0 -60 5 -44 5 -198 0 -201 -5 -3 -85 -13 -124 -16 -5 0
-109 2 -230 6 -121 3 -283 8 -360 10 -77 2 -183 0 -235 -4 -52 -5 -133 -13
-180 -17 -88 -8 -411 -7 -466 2 -26 5 -33 11 -38 38 -8 48 -8 432 0 677 14
388 11 689 -11 1038 -4 59 -3 63 21 72 13 5 82 9 152 9 216 -2 369 3 382 11 7
5 23 5 34 1 12 -4 48 -5 81 -2z"/>
<path d="M4273 2491 c-36 -13 -44 -21 -49 -49 -4 -18 -4 -48 -1 -66 5 -30 2
-34 -30 -45 -23 -9 -56 -11 -98 -6 -74 8 -142 -13 -131 -41 3 -8 1 -24 -4 -35
-7 -12 -7 -25 -1 -36 5 -10 12 -45 15 -77 4 -32 9 -63 12 -67 9 -15 11 -496 2
-560 -5 -35 -10 -93 -12 -129 -2 -36 -7 -84 -11 -108 -6 -35 -5 -42 9 -42 9 0
16 -4 16 -10 0 -5 6 -10 14 -10 8 0 21 -8 28 -18 11 -15 32 -18 153 -19 245
-2 289 -3 357 -14 73 -11 68 -13 134 47 l33 30 -2 340 c-1 302 3 396 28 646 2
20 6 41 9 47 3 5 3 11 -1 13 -5 1 -15 16 -23 32 -15 30 -54 42 -76 25 -7 -5
-25 -9 -40 -8 -16 2 -39 -1 -51 -5 -21 -7 -23 -4 -24 26 -4 94 -6 109 -19 123
-19 17 -180 36 -180 21 0 -8 -3 -8 -8 -1 -5 7 -21 6 -49 -4z m380 -350 c-2
-53 -5 -150 -8 -216 -2 -66 -6 -223 -8 -350 -3 -126 -8 -241 -11 -255 -12 -43
-53 -64 -134 -70 -39 -3 -72 -2 -72 1 0 4 -19 5 -42 2 -24 -2 -78 0 -120 4
-50 6 -79 6 -81 -1 -2 -6 -11 -6 -23 -1 -10 4 -34 9 -52 10 -18 1 -36 6 -40 9
-3 4 -6 51 -6 104 1 53 3 196 4 317 1 121 2 276 1 345 -2 157 0 169 19 174 8
3 48 4 88 4 l73 -1 -2 -91 c-2 -161 17 -183 135 -159 49 10 77 11 97 4 44 -15
61 8 59 78 -5 135 -3 147 32 162 17 7 40 12 50 12 10 -1 18 2 18 6 0 4 6 8 13
8 10 0 12 -22 10 -96z"/>
<path d="M2668 2394 c-21 -21 -6 -53 39 -83 45 -30 83 -37 130 -25 46 12 30
93 -19 91 -13 0 -36 3 -53 7 -64 15 -90 17 -97 10z"/>
<path d="M3128 2372 c-34 -3 -39 -7 -38 -28 1 -3 -8 -13 -19 -22 -12 -11 -21
-34 -24 -67 -6 -56 -28 -135 -39 -135 -3 0 -10 -15 -13 -32 -4 -18 -15 -44
-24 -58 -27 -41 -41 -79 -41 -113 1 -41 59 -84 91 -67 33 18 41 3 34 -64 -24
-223 -27 -272 -16 -314 10 -35 9 -47 -5 -74 -10 -20 -20 -72 -25 -128 -4 -52
-10 -111 -13 -131 -7 -42 22 -81 57 -78 12 0 24 0 27 -1 24 -9 56 -4 72 12 28
28 30 54 13 125 -17 66 -15 217 2 248 6 10 5 36 -1 65 -7 35 -6 68 2 112 7 35
13 88 14 119 2 70 13 101 35 98 37 -3 63 1 63 12 0 6 7 17 15 25 16 17 20 69
6 78 -10 6 -53 93 -58 116 -15 78 -25 192 -17 200 6 6 8 25 6 43 -5 40 -46 64
-104 59z"/>
<path d="M415 2219 c-92 -30 -166 -63 -174 -76 -12 -22 -2 -51 20 -58 25 -8
79 3 79 16 0 6 14 15 30 20 17 6 30 15 30 19 0 5 20 18 44 30 37 18 56 36 56
56 0 7 -54 3 -85 -7z"/>
<path d="M2443 1958 c-18 -17 -19 -25 -11 -44 6 -13 17 -24 24 -24 7 0 14 -3
16 -7 7 -17 96 -40 115 -30 27 14 43 38 43 63 0 26 -6 31 -41 38 -13 2 -36 7
-51 10 -16 3 -38 8 -51 11 -15 3 -31 -3 -44 -17z"/>
<path d="M635 1795 c-148 -62 -187 -96 -166 -141 9 -21 16 -23 43 -19 37 7
106 49 114 70 3 7 23 26 45 41 38 26 51 58 27 66 -7 2 -35 -5 -63 -17z"/>
</g>
</svg>
