<?xml version="1.0" standalone="no"?>
<!DOCTYPE svg PUBLIC "-//W3C//DTD SVG 20010904//EN"
 "http://www.w3.org/TR/2001/REC-SVG-20010904/DTD/svg10.dtd">
<svg version="1.0" xmlns="http://www.w3.org/2000/svg"
 width="393.000000pt" height="399.000000pt" viewBox="0 0 393.000000 399.000000"
 preserveAspectRatio="xMidYMid meet">
<metadata>
Created by potrace 1.16, written by Peter Selinger 2001-2019
</metadata>
<g transform="translate(0.000000,399.000000) scale(0.100000,-0.100000)"
fill="#000000" stroke="none">
<path d="M2375 3971 c-36 -23 -287 -90 -358 -96 -16 -1 -35 -9 -43 -17 -14
-14 -14 -19 0 -47 14 -27 20 -30 44 -25 15 4 32 10 37 14 11 8 114 41 187 60
59 15 74 11 51 -15 -79 -86 -140 -155 -153 -171 -8 -10 -30 -38 -49 -62 -18
-23 -61 -68 -94 -100 -33 -31 -68 -65 -78 -74 -21 -20 -15 -54 13 -69 16 -9
25 -3 58 33 21 24 65 72 97 108 32 36 99 114 148 174 95 114 201 223 216 219
11 -3 23 62 14 76 -10 17 -57 13 -90 -8z"/>
<path d="M2990 3745 c-99 -36 -114 -49 -104 -89 7 -30 34 -34 74 -11 31 18 61
19 96 3 24 -11 26 -16 21 -60 -17 -137 -93 -180 -391 -219 -89 -12 -188 -30
-221 -41 -33 -11 -73 -23 -90 -25 -58 -11 -63 -65 -10 -111 l35 -31 -33 -23
c-17 -12 -39 -30 -47 -39 -8 -9 -46 -37 -85 -62 -38 -25 -81 -54 -94 -66 -13
-12 -29 -21 -34 -21 -6 0 -31 -18 -57 -39 -25 -21 -62 -47 -80 -57 -58 -32
-193 -116 -230 -145 -19 -14 -48 -34 -65 -43 -16 -9 -55 -32 -85 -51 -104 -65
-300 -149 -300 -128 0 3 -8 -1 -17 -9 -27 -22 -135 -50 -263 -68 -90 -12 -310
-88 -310 -107 0 -7 -4 -13 -10 -13 -5 0 -10 -6 -10 -14 0 -8 -3 -16 -7 -18
-13 -5 -86 -109 -112 -158 -13 -25 -30 -52 -37 -61 -8 -8 -14 -19 -14 -24 0
-5 -13 -36 -29 -69 -51 -109 -85 -195 -111 -286 -45 -159 -136 -379 -193 -465
-22 -33 -59 -79 -83 -101 -48 -45 -56 -79 -24 -89 24 -8 80 31 108 73 9 15 27
38 39 52 13 14 23 29 23 35 0 6 12 27 26 48 14 21 36 67 50 103 13 35 40 96
59 134 19 38 35 77 35 85 0 20 50 194 61 215 23 42 59 129 59 142 0 8 13 35
30 61 16 26 30 52 30 57 0 5 6 15 12 22 7 7 24 34 37 60 34 64 135 159 196
185 28 11 113 33 190 48 77 15 178 40 225 57 47 16 100 33 117 38 54 13 255
120 296 157 21 19 60 43 85 54 26 11 61 33 77 49 17 16 47 36 67 44 20 9 39
20 43 26 3 6 41 31 83 56 42 25 113 72 157 104 106 78 156 105 165 90 17 -27
190 -35 190 -9 0 5 7 9 15 9 8 0 31 15 50 33 20 17 48 42 61 55 14 12 32 22
40 22 7 0 14 5 14 10 0 6 7 10 15 10 15 0 19 -25 16 -95 -6 -108 -62 -247
-129 -321 -20 -22 -48 -53 -62 -69 -26 -31 -88 -87 -153 -140 -20 -16 -50 -42
-67 -57 -16 -16 -33 -28 -37 -28 -5 0 -39 -29 -76 -65 -38 -36 -80 -73 -93
-82 -13 -8 -24 -21 -24 -28 0 -8 -9 -17 -21 -20 -11 -4 -25 -19 -30 -33 -5
-15 -35 -46 -67 -69 -70 -51 -122 -100 -143 -133 -17 -26 -34 -93 -44 -169
-10 -69 -43 -148 -65 -154 -19 -5 -50 -65 -50 -96 0 -10 -10 -27 -22 -39 -13
-12 -34 -33 -48 -47 -13 -14 -30 -25 -36 -25 -15 0 -24 -23 -24 -59 0 -25 8
-32 77 -64 81 -37 179 -62 205 -52 20 8 92 -17 205 -71 101 -48 112 -49 193
-10 60 28 65 34 67 84 4 63 73 155 103 137 4 -3 14 10 21 28 15 37 51 71 94
89 16 6 32 15 35 20 12 16 103 56 116 51 8 -3 14 0 14 6 0 6 5 11 10 11 18 0
11 -39 -20 -112 -16 -38 -30 -78 -30 -87 0 -21 50 -71 71 -71 25 0 27 -9 13
-56 -7 -24 -11 -44 -9 -44 8 0 -67 -201 -89 -238 -50 -85 -90 -131 -130 -148
-22 -10 -52 -26 -66 -35 -22 -15 -170 -62 -240 -76 -14 -3 -56 -14 -95 -25
-100 -29 -168 -32 -245 -9 -217 63 -300 68 -415 23 -44 -18 -88 -32 -98 -32
-16 0 -41 -13 -132 -67 -11 -7 -27 -15 -35 -18 -8 -4 -52 -24 -96 -46 -45 -21
-84 -39 -86 -39 -3 0 -23 -7 -44 -17 -22 -9 -50 -17 -64 -19 -42 -5 -70 -26
-67 -48 7 -51 37 -59 103 -27 21 10 83 37 136 61 53 23 102 48 109 56 6 8 17
14 23 14 6 0 48 18 92 41 85 42 250 89 319 89 37 0 82 -8 245 -46 87 -19 175
-19 230 1 41 15 82 25 272 68 32 8 66 20 75 29 10 8 52 31 94 50 68 32 82 43
123 101 50 69 106 184 106 216 0 10 7 36 16 57 16 38 38 109 89 296 14 49 27
117 29 152 4 55 2 67 -15 82 -11 10 -28 20 -37 22 -29 6 -84 2 -103 -8 -10 -6
-28 -10 -40 -10 -19 0 -69 -13 -104 -27 -23 -9 -52 -31 -89 -66 -21 -21 -40
-36 -42 -35 -1 2 2 93 7 202 9 170 9 203 -4 230 -8 17 -20 42 -27 56 -17 37
-113 112 -171 135 -28 11 -51 25 -50 30 1 14 50 65 62 65 5 0 22 12 38 28 15
15 40 36 56 47 16 11 41 30 56 43 15 12 32 22 39 22 6 0 9 4 6 9 -3 5 13 24
35 42 232 190 354 439 320 648 -13 80 -36 105 -115 130 -60 19 -61 19 -22 20
53 1 164 20 199 33 15 6 39 12 52 14 42 4 135 57 170 96 59 64 81 183 48 253
-13 28 -26 38 -57 46 -23 6 -45 15 -51 19 -5 5 -26 2 -45 -5z m-397 -479 c-63
-42 -141 -57 -150 -29 -4 11 86 36 142 39 24 2 25 1 8 -10z m47 -91 c0 -9 -7
-18 -15 -21 -8 -4 -15 -11 -15 -16 0 -15 -51 -67 -80 -82 -38 -20 -87 -27
-116 -16 l-25 10 30 26 c31 26 195 114 212 114 5 0 9 -7 9 -15z m-427 -1034
c79 -36 115 -69 152 -139 25 -48 27 -60 22 -125 -3 -40 -8 -127 -12 -194 -3
-67 -10 -134 -15 -148 -13 -33 -50 -85 -77 -107 -12 -10 -27 -35 -33 -54 -12
-35 -26 -57 -62 -96 -20 -20 -48 -23 -76 -9 -110 58 -198 91 -246 91 -46 0
-206 46 -206 59 0 20 94 86 138 97 10 2 44 11 77 20 51 14 70 15 133 5 95 -16
103 -10 95 70 -4 42 -1 70 11 99 14 36 14 41 1 46 -10 4 -14 13 -9 28 11 38
48 111 66 131 11 11 14 21 8 23 -5 2 -10 9 -10 17 0 11 -58 30 -66 22 -2 -2
-6 -21 -8 -42 -3 -22 -15 -58 -26 -80 -11 -21 -20 -47 -20 -57 0 -13 -8 -18
-29 -18 -37 0 -91 58 -91 98 0 35 -14 57 -30 47 -29 -18 2 48 37 78 67 59 198
166 205 166 3 1 36 -12 71 -28z m-304 -374 c32 -36 72 -57 106 -57 27 0 30
-11 19 -68 -6 -30 -7 -31 -56 -25 -33 4 -68 0 -109 -12 -32 -10 -62 -15 -66
-12 -3 4 1 24 10 44 9 21 23 65 32 98 23 86 26 94 32 75 3 -8 17 -28 32 -43z
m893 -172 c-2 -22 -10 -61 -17 -87 -8 -27 -11 -48 -7 -48 4 0 -6 -7 -22 -15
-50 -27 -58 -8 -26 66 15 36 31 80 35 98 5 22 12 31 23 29 13 -3 16 -12 14
-43z"/>
<path d="M3586 3222 c-10 -9 -158 -51 -182 -52 -28 0 -42 -19 -39 -50 2 -35
39 -37 127 -6 88 32 110 32 144 3 22 -19 25 -28 20 -54 -13 -57 -112 -123
-185 -123 -19 0 -32 -7 -41 -26 -17 -31 -5 -55 31 -65 88 -23 129 -71 129
-149 0 -55 -15 -89 -63 -138 -70 -72 -183 -101 -263 -67 -34 14 -103 80 -104
98 0 5 -9 21 -19 36 -11 15 -23 42 -28 61 -6 24 -17 38 -35 44 -71 25 -78 -35
-15 -129 23 -35 53 -81 65 -102 25 -41 56 -62 131 -88 61 -21 110 -19 188 10
55 19 79 36 124 83 68 73 91 126 90 209 -1 51 -7 74 -32 118 -17 30 -36 55
-42 55 -7 1 2 7 19 14 38 17 124 119 125 149 4 85 -20 126 -92 155 -26 11 -50
18 -53 14z"/>
</g>
</svg>
