<?xml version="1.0" standalone="no"?>
<!DOCTYPE svg PUBLIC "-//W3C//DTD SVG 20010904//EN"
 "http://www.w3.org/TR/2001/REC-SVG-20010904/DTD/svg10.dtd">
<svg version="1.0" xmlns="http://www.w3.org/2000/svg"
 width="489.000000pt" height="353.000000pt" viewBox="0 0 489.000000 353.000000"
 preserveAspectRatio="xMidYMid meet">
<metadata>
Created by potrace 1.16, written by Peter Selinger 2001-2019
</metadata>
<g transform="translate(0.000000,353.000000) scale(0.100000,-0.100000)"
fill="#000000" stroke="none">
<path d="M2990 3473 c-21 -8 -30 -24 -30 -54 0 -25 5 -28 98 -51 l97 -24 -130
2 c-71 1 -143 7 -158 13 -42 16 -87 -9 -87 -49 0 -18 7 -33 18 -38 9 -5 68 -8
130 -6 61 1 115 -2 118 -7 5 -9 -15 -13 -48 -11 -10 1 -18 -5 -18 -13 0 -8 -6
-18 -13 -22 -20 -12 -29 -44 -16 -59 16 -19 69 -9 139 27 76 39 176 79 197 79
28 1 54 26 57 54 4 28 -6 40 -44 51 -14 4 -57 23 -96 41 -39 19 -78 34 -86 34
-9 0 -21 6 -28 14 -6 8 -17 13 -25 10 -7 -3 -16 -1 -20 5 -7 12 -30 13 -55 4z"/>
<path d="M1493 3362 c-28 -30 -29 -43 -5 -62 12 -11 45 -15 117 -16 376 -4
342 -7 348 23 8 42 -29 60 -120 57 -42 -1 -81 0 -86 3 -5 3 -50 7 -100 9 -51
2 -101 6 -112 8 -13 3 -28 -5 -42 -22z"/>
<path d="M2168 3373 c-22 -6 -32 -37 -19 -61 12 -23 65 -36 91 -22 9 5 20 7
22 4 3 -2 50 -7 104 -9 122 -6 134 -7 134 -17 0 -5 14 -2 30 7 35 18 39 48 11
82 -16 19 -24 21 -49 14 -17 -5 -32 -8 -34 -6 -5 6 -271 13 -290 8z"/>
<path d="M4585 3000 c-45 -17 -233 -25 -560 -21 -55 1 -107 1 -115 1 -31 -2
-228 8 -305 15 -79 7 -81 7 -94 -18 -13 -24 -11 -69 5 -140 3 -12 7 -29 8 -37
4 -24 19 -54 30 -62 6 -4 30 -8 53 -8 23 0 66 -11 95 -24 29 -13 73 -26 97
-30 46 -7 101 -32 114 -53 4 -7 13 -13 19 -13 25 0 108 -46 119 -66 9 -17 6
-49 -12 -153 -23 -126 -26 -133 -53 -149 -17 -9 -40 -27 -52 -39 -12 -13 -29
-23 -38 -23 -9 0 -16 -4 -16 -10 0 -5 -7 -10 -15 -10 -8 0 -15 -4 -15 -9 0
-10 -104 -61 -125 -61 -8 0 -25 -10 -39 -22 -26 -23 -26 -25 -32 -213 -4 -104
-10 -200 -15 -211 -14 -38 0 -61 49 -79 26 -10 74 -30 107 -45 33 -14 80 -35
105 -45 25 -11 60 -32 78 -47 18 -15 43 -28 55 -28 14 0 38 -16 60 -39 42 -44
42 -45 -46 -86 -32 -15 -66 -35 -75 -45 -9 -10 -47 -34 -84 -53 -37 -19 -78
-47 -91 -61 -13 -14 -29 -26 -36 -26 -6 0 -11 -5 -11 -11 0 -6 -13 -24 -29
-40 -17 -16 -38 -39 -48 -52 -10 -12 -35 -31 -56 -42 -35 -19 -37 -22 -32 -55
3 -19 8 -51 11 -70 3 -19 7 -108 9 -198 5 -190 18 -237 64 -228 134 26 306 36
663 40 273 3 287 4 313 24 20 16 32 19 50 12 28 -11 45 5 45 41 0 125 -9 373
-14 396 -4 15 -9 127 -12 248 -5 226 -6 240 -23 530 -6 94 -10 298 -9 455 1
157 -2 344 -7 415 -4 72 -9 198 -9 280 -1 83 -5 156 -9 163 -9 14 -42 15 -72
2z m-130 -89 c100 -1 100 -1 112 -28 12 -30 20 -105 28 -283 3 -63 8 -151 11
-195 6 -88 7 -106 5 -435 -1 -234 5 -414 15 -440 3 -8 7 -130 10 -270 2 -140
7 -309 10 -375 3 -66 6 -124 5 -130 0 -5 -3 -50 -7 -100 -3 -49 -11 -95 -17
-102 -20 -21 -188 -33 -496 -37 -163 -3 -324 -7 -357 -11 -40 -5 -64 -4 -68 3
-4 6 -9 90 -12 186 -5 169 -5 175 15 188 12 7 21 20 21 29 0 18 118 149 134
149 6 0 29 16 51 35 22 19 45 35 51 35 6 0 34 18 63 41 36 28 62 41 89 43 67
5 81 14 93 59 19 71 20 107 4 130 -8 12 -15 28 -15 37 0 11 -12 15 -44 16 -41
1 -114 30 -206 83 -19 11 -70 36 -112 56 -42 20 -82 42 -88 50 -15 19 -20 232
-6 294 7 33 19 56 32 64 26 15 126 80 179 116 22 15 63 38 90 51 82 39 106 60
94 82 -14 26 -18 146 -7 183 5 17 12 45 15 63 2 18 11 45 18 59 21 39 -6 69
-70 78 -32 5 -78 22 -135 51 -36 17 -87 39 -115 48 -48 16 -147 54 -211 81
-20 9 -33 22 -36 39 -10 49 -2 51 194 54 101 1 192 3 203 5 11 1 97 1 190 0
94 -1 215 -2 270 -2z"/>
<path d="M1543 2943 c-8 -13 -22 -23 -29 -23 -13 0 -19 -14 -14 -35 14 -58 16
-127 9 -348 -4 -122 -8 -150 -22 -165 -15 -15 -43 -17 -205 -19 -211 -3 -269
-7 -295 -18 -10 -4 -33 -8 -50 -9 -18 -1 -38 -5 -45 -10 -7 -4 -28 -10 -45
-13 -18 -3 -38 -10 -45 -15 -12 -11 -142 -80 -217 -117 -22 -11 -49 -29 -59
-40 -11 -12 -25 -21 -33 -21 -7 0 -13 -4 -13 -8 0 -10 -115 -92 -130 -92 -5 0
-10 -4 -10 -8 0 -9 -77 -29 -145 -37 -22 -2 -41 -4 -42 -5 -2 0 -3 -7 -3 -15
0 -8 -4 -15 -10 -15 -16 0 -12 -46 5 -60 12 -10 26 -10 73 3 99 26 206 68 232
91 94 84 296 198 467 265 98 37 427 51 553 23 l35 -8 -3 -79 c-2 -44 -4 -81
-6 -82 -12 -12 -240 -19 -274 -8 -14 4 -25 -2 -38 -22 -31 -47 -8 -85 47 -78
68 8 336 25 399 25 36 0 142 2 235 4 240 6 385 -16 450 -68 41 -33 27 -60 -47
-96 -54 -26 -74 -30 -182 -34 -67 -3 -128 -7 -136 -10 -21 -7 -91 -18 -115
-19 -45 0 -246 -18 -329 -28 -75 -10 -93 -16 -117 -40 -16 -16 -29 -30 -29
-32 0 -2 9 -14 20 -27 20 -23 25 -23 145 -6 72 10 155 17 255 21 63 2 131 9
150 15 54 17 201 42 242 41 52 -2 198 -58 231 -89 15 -14 27 -35 27 -46 0 -28
-56 -63 -133 -82 -34 -9 -69 -20 -77 -24 -23 -12 -147 -18 -223 -11 -37 4 -70
4 -73 1 -3 -2 -38 -5 -77 -6 -40 -1 -130 -9 -201 -19 -107 -14 -133 -21 -148
-39 -18 -23 -15 -54 8 -72 9 -7 29 -9 57 -4 23 4 69 8 102 9 33 1 110 8 170
16 297 39 369 36 418 -18 15 -17 27 -35 27 -41 0 -28 -43 -78 -78 -92 -20 -8
-53 -23 -72 -33 -27 -15 -58 -19 -135 -20 -157 -3 -315 -10 -323 -15 -4 -2
-50 -7 -102 -11 -64 -4 -99 -11 -106 -21 -6 -8 -16 -14 -22 -14 -15 0 -20 -31
-9 -63 9 -26 13 -28 41 -23 17 4 62 8 101 11 38 3 92 13 120 22 34 12 81 17
145 17 105 -1 159 -14 177 -44 11 -16 9 -22 -9 -40 -12 -11 -26 -20 -32 -20
-5 0 -37 -11 -70 -24 -34 -13 -88 -26 -121 -30 -88 -8 -186 -26 -205 -36 -10
-5 -20 -7 -23 -4 -3 3 -40 -2 -83 -11 -44 -9 -128 -18 -189 -20 -60 -2 -141
-6 -180 -8 -67 -5 -209 11 -250 27 -35 14 -99 49 -117 63 -17 16 -67 45 -108
65 -14 7 -27 15 -30 18 -28 32 -196 120 -217 113 -6 -2 -14 0 -17 6 -4 6 -18
6 -36 1 -16 -5 -32 -5 -34 -2 -2 4 -30 5 -62 2 -47 -4 -60 -10 -77 -31 -15
-22 -17 -33 -10 -55 11 -32 11 -32 147 -21 39 2 77 1 85 -3 9 -5 43 -21 76
-36 33 -15 71 -35 84 -45 13 -11 32 -19 42 -19 9 0 19 -3 21 -8 2 -4 26 -22
53 -39 28 -18 59 -40 70 -50 18 -17 116 -52 208 -74 49 -12 177 -17 202 -9 11
4 67 10 125 14 58 4 130 10 160 14 47 7 56 6 57 -7 0 -9 2 -66 3 -128 2 -89 7
-119 22 -144 14 -23 22 -28 32 -20 7 6 16 7 20 3 4 -4 49 -7 99 -8 140 -1 619
-2 647 -1 14 0 52 -1 85 -2 33 -2 168 -2 299 -2 131 1 268 -2 303 -5 56 -6 68
-4 94 15 16 12 34 19 39 16 23 -14 34 43 31 165 -2 157 9 197 62 215 21 7 46
21 55 32 9 10 50 45 91 78 41 33 106 90 145 127 39 36 82 75 96 86 23 19 23
21 11 60 -9 25 -11 59 -8 85 7 49 -3 64 -59 86 -18 7 -56 35 -85 62 -30 27
-57 49 -61 49 -3 0 -19 11 -35 24 -15 13 -44 32 -63 42 -41 22 -129 82 -148
101 -24 23 -32 73 -22 137 22 146 32 176 55 176 8 0 15 4 15 8 0 5 28 21 63
36 34 15 70 32 79 37 10 5 27 9 37 9 11 0 22 4 25 9 5 8 52 19 116 27 33 4 84
15 87 18 9 9 19 305 14 438 -1 59 -21 74 -112 89 -62 9 -203 53 -224 69 -15
12 -86 30 -136 34 -44 5 -69 25 -69 57 0 10 4 20 9 24 19 11 6 51 -29 83 l-35
33 -90 -7 c-147 -11 -1103 -19 -1210 -10 -27 2 -62 7 -77 11 -60 15 -89 12
-105 -12z m1239 -74 c99 1 188 -1 199 -4 18 -6 20 -15 18 -63 -2 -71 7 -92 37
-92 13 0 24 -4 24 -8 0 -5 6 -9 13 -10 98 -9 164 -26 322 -82 33 -12 76 -25
96 -29 62 -13 59 -3 59 -185 1 -77 -17 -171 -35 -186 -6 -5 -26 -11 -45 -13
-19 -2 -66 -18 -105 -35 -38 -17 -82 -34 -97 -37 -16 -4 -28 -10 -28 -14 0 -6
-67 -33 -90 -37 -12 -1 -66 -30 -76 -39 -6 -6 -11 -42 -11 -80 1 -39 -2 -95
-6 -125 -15 -124 -8 -228 14 -214 5 3 9 1 9 -5 0 -6 11 -13 25 -17 14 -3 25
-10 25 -15 0 -5 9 -9 21 -9 11 0 33 -9 47 -21 15 -11 62 -41 105 -66 42 -25
77 -49 77 -53 0 -4 31 -34 70 -67 70 -59 82 -80 55 -103 -8 -7 -13 -15 -10
-19 2 -4 -34 -46 -80 -94 -46 -47 -91 -98 -100 -114 -19 -30 -176 -133 -205
-133 -31 0 -53 -35 -46 -72 12 -57 11 -251 -1 -274 -7 -11 -29 -26 -51 -32
-47 -14 -138 -16 -147 -3 -3 5 -18 6 -33 3 -15 -4 -128 -6 -252 -5 -189 2
-417 1 -570 -1 -19 0 -69 3 -110 7 -41 3 -104 7 -140 8 -36 1 -69 5 -75 8 -5
3 -30 7 -55 9 -24 1 -48 6 -53 11 -14 14 -16 62 -5 143 l11 77 76 16 c42 9 96
21 121 26 25 5 61 11 80 14 52 6 153 41 199 67 57 33 92 104 61 123 -5 3 -10
15 -10 25 0 10 -6 21 -12 23 -8 4 -7 6 4 6 9 1 59 20 110 44 71 34 99 52 118
80 14 20 28 37 31 37 10 0 23 51 20 75 -2 11 -9 27 -17 36 -8 8 -14 19 -14 23
0 11 -22 31 -45 40 -16 7 -6 12 46 25 69 18 99 33 145 76 24 22 27 32 25 76
-2 56 -43 128 -73 129 -9 0 -20 5 -23 10 -3 6 -15 10 -26 10 -10 0 -19 4 -19
9 0 5 -12 12 -27 16 l-28 7 36 18 c50 26 74 66 71 115 -1 22 -7 42 -12 43 -6
2 -10 12 -10 22 0 10 -9 22 -20 25 -11 3 -20 10 -20 15 0 5 -21 15 -47 23
-167 52 -158 51 -373 48 -331 -5 -332 -5 -343 16 -17 29 -22 122 -21 363 1
202 9 374 20 391 2 4 111 7 241 7 263 0 725 11 732 17 2 3 8 2 14 -2 6 -3 91
-5 189 -4z"/>
</g>
</svg>
