<?xml version="1.0" standalone="no"?>
<!DOCTYPE svg PUBLIC "-//W3C//DTD SVG 20010904//EN"
 "http://www.w3.org/TR/2001/REC-SVG-20010904/DTD/svg10.dtd">
<svg version="1.0" xmlns="http://www.w3.org/2000/svg"
 width="503.000000pt" height="475.000000pt" viewBox="0 0 503.000000 475.000000"
 preserveAspectRatio="xMidYMid meet">
<metadata>
Created by potrace 1.16, written by Peter Selinger 2001-2019
</metadata>
<g transform="translate(0.000000,475.000000) scale(0.100000,-0.100000)"
fill="#000000" stroke="none">
<path d="M4265 4668 c-11 -5 -42 -37 -70 -69 -27 -33 -55 -66 -62 -73 -16 -18
-31 -85 -38 -166 -13 -160 -18 -190 -29 -190 -6 0 -27 11 -47 24 -27 19 -47
24 -78 22 -49 -4 -65 -20 -86 -91 -30 -105 8 -388 70 -520 8 -16 25 -59 39
-94 16 -43 32 -68 45 -73 26 -9 26 -30 2 -110 -10 -35 -24 -85 -30 -113 -6
-27 -20 -90 -32 -140 -11 -49 -23 -100 -25 -113 -3 -13 -18 -58 -35 -100 -17
-42 -44 -128 -59 -190 l-29 -113 -78 -75 c-43 -42 -94 -82 -113 -90 -19 -8
-40 -21 -45 -28 -6 -7 -51 -39 -100 -71 -50 -32 -103 -73 -118 -91 -16 -19
-33 -34 -38 -34 -5 0 -31 -17 -58 -37 -56 -42 -108 -70 -195 -104 -55 -21 -72
-22 -240 -20 -99 1 -184 5 -189 8 -6 3 -23 7 -38 8 -79 5 -76 3 -75 36 1 29 4
32 36 35 19 2 44 5 55 7 102 24 155 44 213 81 72 47 162 129 162 148 0 6 11
26 25 44 14 18 25 36 25 39 0 4 7 23 16 43 58 133 66 176 70 375 2 127 -1 157
-18 208 -11 32 -24 59 -29 59 -5 0 -9 9 -9 21 0 27 -15 54 -59 109 -19 24 -30
41 -23 36 6 -4 12 -2 12 3 0 6 -4 11 -10 11 -5 0 -10 5 -10 11 0 16 -69 78
-144 128 -37 25 -84 57 -104 70 -19 13 -56 25 -81 28 -25 3 -52 8 -58 12 -12
6 -139 -1 -246 -14 -63 -8 -175 -62 -183 -88 -3 -10 -8 -16 -11 -13 -6 6 -83
-84 -83 -96 0 -7 -21 -36 -47 -63 -7 -8 -13 -19 -13 -26 0 -16 -18 -73 -36
-117 -8 -18 -17 -50 -20 -70 -3 -20 -8 -40 -11 -44 -11 -19 -14 -63 -15 -199
-1 -159 7 -207 53 -306 16 -34 34 -75 40 -90 27 -72 140 -213 170 -213 5 0 28
-12 50 -26 22 -14 69 -32 105 -41 51 -13 64 -20 64 -35 0 -11 5 -28 10 -38 6
-10 6 -21 2 -24 -5 -3 -98 -7 -208 -11 -158 -4 -209 -3 -247 9 -42 12 -49 12
-54 0 -3 -8 -10 -14 -17 -14 -12 0 -46 -35 -46 -48 0 -4 -41 -45 -91 -92 -50
-47 -121 -114 -157 -150 -75 -73 -157 -143 -175 -149 -7 -2 -19 -11 -27 -20
-16 -17 -167 -61 -235 -69 -22 -2 -45 -8 -50 -12 -6 -5 -28 -11 -50 -14 -22
-3 -62 -12 -90 -21 -57 -18 -260 -62 -350 -76 -33 -5 -61 -14 -63 -19 -2 -6
-22 -10 -43 -10 -48 0 -80 -15 -73 -34 3 -7 -2 -19 -11 -26 -8 -7 -15 -21 -15
-31 0 -10 -4 -20 -8 -23 -5 -3 -9 -99 -10 -213 -2 -398 -15 -734 -31 -803 -8
-35 -6 -43 15 -66 21 -22 27 -24 40 -13 9 7 29 12 45 11 18 -1 29 3 30 10 0 7
2 231 3 498 2 267 6 503 10 525 l8 40 161 3 c297 6 427 11 461 17 18 4 36 3
39 -3 4 -5 26 -6 51 -2 24 4 73 3 108 -1 35 -4 101 -5 148 -3 47 3 92 5 100 5
8 1 53 -2 100 -5 47 -3 357 -8 690 -11 333 -3 664 -7 735 -10 72 -2 195 -7
275 -10 80 -3 237 -5 350 -4 227 1 285 1 315 -1 11 -1 83 2 160 5 174 9 208
10 317 6 l87 -4 6 -38 c10 -59 7 -787 -3 -849 -8 -43 -7 -59 5 -77 18 -27 43
-30 44 -5 0 13 2 12 9 -5 11 -26 32 -30 49 -9 12 15 17 337 6 356 -5 7 -5 474
-1 629 1 37 -3 46 -19 50 -11 4 -20 15 -20 26 0 22 21 22 -1105 28 l-465 2 1
25 c4 96 -20 565 -31 598 -2 6 0 12 5 12 18 0 176 112 365 260 50 39 109 80
131 93 59 31 119 75 171 125 43 40 55 47 78 42 17 -3 35 33 35 69 0 20 9 55
19 78 11 23 17 44 14 46 -3 3 7 38 21 79 14 40 39 120 56 177 16 57 35 110 41
117 6 7 8 17 5 22 -3 5 -1 24 5 43 5 19 12 46 14 62 2 15 11 53 19 85 8 31 18
70 21 85 5 23 10 27 26 22 13 -4 28 0 40 11 11 10 35 27 54 38 31 19 120 141
138 189 3 9 11 17 17 17 5 0 10 7 10 15 0 8 8 23 18 33 9 10 18 24 20 32 1 7
13 26 26 44 66 86 106 213 109 340 2 113 -9 140 -70 170 -29 14 -31 18 -24 43
11 37 30 160 37 246 5 62 3 71 -17 93 -18 19 -33 24 -71 24 -32 0 -48 -4 -48
-12 0 -7 -6 -4 -12 7 -9 16 -48 57 -52 54 -1 0 -10 -5 -21 -11z m11 -140 c-10
-33 -13 -47 -21 -98 -4 -25 -15 -81 -26 -124 -13 -56 -15 -84 -8 -97 10 -20
27 -24 45 -11 24 16 74 182 74 245 0 34 33 97 50 97 19 0 21 -25 10 -106 -19
-129 -22 -144 -30 -144 -4 0 -12 -32 -18 -71 -6 -39 -18 -79 -27 -89 -23 -26
-8 -82 26 -91 25 -6 59 14 59 36 0 22 28 39 43 26 14 -11 12 -116 -3 -136 -4
-5 -13 -32 -20 -60 -7 -27 -21 -61 -29 -75 -9 -14 -23 -37 -30 -51 -7 -15 -24
-38 -37 -52 -13 -14 -40 -55 -60 -91 -20 -36 -40 -66 -45 -66 -5 0 -9 -4 -9
-9 0 -5 -10 -25 -22 -44 -16 -25 -35 -38 -62 -45 -41 -11 -66 -7 -66 11 0 6
-17 45 -39 86 -45 88 -75 176 -66 191 3 5 2 10 -3 10 -19 0 -29 58 -36 190 -4
95 6 170 24 170 21 0 80 -74 80 -99 0 -16 14 -29 30 -28 3 0 14 -4 25 -10 15
-8 25 -8 36 0 15 12 20 41 35 212 3 39 10 89 14 113 4 24 6 52 3 61 -5 20 20
87 42 110 8 9 23 26 35 39 11 12 23 22 26 22 4 0 3 -10 0 -22z m-1679 -1109
c12 0 25 -4 28 -9 3 -6 14 -10 24 -10 34 0 177 -87 250 -153 37 -33 105 -172
124 -256 21 -91 15 -278 -12 -365 -11 -37 -23 -78 -25 -90 -7 -41 -80 -166
-119 -205 -21 -22 -53 -45 -70 -52 -18 -7 -34 -16 -37 -20 -3 -4 -33 -19 -67
-33 -113 -47 -295 -36 -417 26 -107 55 -221 237 -270 432 -21 82 -15 225 13
339 21 88 133 271 190 312 16 11 39 28 52 37 36 26 194 56 259 50 30 -2 65 -4
77 -3z m-137 -1498 c8 0 38 0 65 0 28 -1 140 -1 251 -1 236 0 229 3 238 -105
4 -38 8 -86 11 -105 3 -19 7 -120 9 -225 l5 -190 -232 2 c-960 6 -904 3 -878
52 7 12 7 22 2 26 -5 3 -8 33 -5 68 5 74 15 369 14 414 -1 55 17 63 147 62 63
0 117 1 119 3 2 3 57 3 121 2 65 -2 125 -3 133 -3z m-595 -188 c-11 -202 -26
-358 -35 -367 -5 -5 -5 -19 0 -32 l10 -24 -88 -1 c-48 -1 -166 -1 -262 -1
-615 3 -635 4 -605 13 46 15 169 44 290 68 61 12 129 26 153 32 23 5 52 9 65
9 20 0 87 47 87 62 0 7 64 69 145 142 22 19 46 36 53 36 6 0 12 6 12 13 0 12
113 127 125 127 4 0 13 7 21 15 31 31 35 17 29 -92z"/>
<path d="M2252 3097 c-6 -7 -30 -19 -52 -26 -36 -11 -40 -15 -40 -45 0 -20 8
-40 20 -51 19 -17 21 -17 54 9 48 36 121 37 159 2 41 -38 63 -41 83 -12 29 45
-2 99 -65 111 -11 2 -25 7 -31 10 -5 3 -34 8 -63 11 -39 4 -57 2 -65 -9z"/>
<path d="M2690 3071 c-34 -11 -79 -53 -81 -77 -7 -71 19 -89 63 -47 26 25 36
28 90 26 38 -2 77 -11 105 -24 50 -24 58 -20 67 33 6 32 3 39 -21 56 -48 34
-163 51 -223 33z"/>
<path d="M2292 2918 c-17 -17 -15 -74 4 -92 18 -18 60 -21 70 -5 11 19 6 92
-8 100 -19 13 -52 11 -66 -3z"/>
<path d="M2703 2858 c-39 -42 1 -114 51 -95 31 12 15 117 -18 117 -7 0 -22
-10 -33 -22z"/>
<path d="M2412 2692 c-22 -14 -21 -48 2 -77 20 -25 29 -28 88 -29 73 -1 111
20 106 58 -3 18 -11 21 -51 22 -26 1 -58 9 -72 18 -27 17 -53 20 -73 8z"/>
<path d="M2212 2492 c-9 -19 -8 -30 3 -51 17 -34 83 -81 113 -81 12 0 22 -4
22 -9 0 -11 142 -34 204 -32 28 0 56 7 65 16 10 8 32 15 51 16 33 2 101 34
108 51 2 4 10 8 18 8 16 0 18 18 4 54 -12 32 -49 35 -75 6 -10 -11 -21 -17
-25 -15 -8 5 -68 -16 -102 -35 -29 -16 -177 -2 -208 20 -15 11 -30 17 -33 14
-6 -7 -45 12 -72 36 -34 29 -59 30 -73 2z"/>
</g>
</svg>
