<?xml version="1.0" standalone="no"?>
<!DOCTYPE svg PUBLIC "-//W3C//DTD SVG 20010904//EN"
 "http://www.w3.org/TR/2001/REC-SVG-20010904/DTD/svg10.dtd">
<svg version="1.0" xmlns="http://www.w3.org/2000/svg"
 width="509.000000pt" height="443.000000pt" viewBox="0 0 509.000000 443.000000"
 preserveAspectRatio="xMidYMid meet">
<metadata>
Created by potrace 1.16, written by Peter Selinger 2001-2019
</metadata>
<g transform="translate(0.000000,443.000000) scale(0.100000,-0.100000)"
fill="#000000" stroke="none">
<path d="M2325 4062 c-11 -2 -24 -8 -29 -13 -6 -5 -17 -9 -27 -9 -9 0 -32 -14
-50 -31 -19 -16 -44 -37 -56 -46 -24 -16 -103 -126 -103 -143 0 -5 -4 -10 -9
-10 -5 0 -21 -30 -36 -67 -24 -60 -27 -82 -28 -193 -2 -158 6 -206 49 -297 29
-60 43 -78 80 -99 24 -14 44 -29 44 -33 0 -11 91 -74 109 -76 42 -5 71 -19 77
-37 19 -61 8 -168 -17 -153 -6 4 -45 2 -87 -4 -82 -12 -153 -19 -214 -20 -31
-1 -41 -7 -65 -42 -15 -22 -63 -83 -105 -134 -43 -52 -78 -96 -78 -98 0 -14
-86 -130 -100 -135 -10 -4 -29 -20 -43 -37 -13 -16 -53 -45 -88 -63 -35 -18
-71 -37 -79 -41 -64 -35 -100 -51 -113 -51 -8 0 -20 -7 -27 -15 -7 -8 -21 -15
-32 -15 -10 0 -38 -10 -61 -21 -23 -12 -44 -21 -47 -21 -3 1 -13 -1 -22 -4
-12 -4 -16 -14 -14 -39 2 -34 2 -34 -50 -41 -29 -3 -72 -4 -96 0 -23 3 -151 8
-283 11 -132 4 -251 10 -265 14 -43 14 -81 4 -110 -29 l-27 -31 2 -139 c2 -76
6 -144 10 -150 4 -6 15 -10 24 -8 10 2 26 -4 36 -12 11 -9 33 -13 64 -10 95 7
240 5 250 -5 5 -5 12 -47 15 -93 3 -46 8 -87 11 -92 4 -6 2 -10 -2 -10 -5 0
-9 -224 -9 -497 0 -274 -3 -557 -7 -630 -5 -103 -4 -132 6 -136 8 -3 45 -3 83
0 84 7 107 6 254 0 143 -7 156 -4 165 36 7 36 7 34 -1 173 l-6 100 39 11 c21
6 65 14 98 17 53 6 1262 10 1955 8 135 0 268 1 295 2 28 2 59 0 70 -4 11 -4
30 -4 43 1 23 9 23 8 17 -44 -3 -28 -7 -87 -9 -130 -4 -69 -2 -81 16 -99 18
-18 28 -19 82 -13 111 13 130 14 212 15 44 0 88 -2 96 -5 9 -4 19 -2 23 4 3 6
14 11 25 11 10 0 20 6 22 13 9 24 -1 198 -12 212 -24 29 -25 54 -17 505 5 296
10 423 23 547 l5 53 131 -2 c114 -2 131 0 139 15 6 9 7 22 4 27 -3 6 5 10 19
10 26 0 30 7 27 45 -1 11 -1 35 -2 53 0 18 -3 42 -8 55 -6 15 -4 38 6 65 16
49 10 63 -41 89 -16 9 -36 22 -44 29 -9 9 -19 11 -30 5 -27 -14 -1163 -28
-1445 -18 -75 3 -79 4 -93 32 -15 29 -20 121 -15 285 1 41 0 156 -1 255 l-3
179 80 64 c44 35 88 70 98 78 10 8 32 22 50 32 28 15 103 67 117 82 15 16 80
60 87 60 5 0 22 14 39 31 16 18 47 40 69 50 51 24 78 45 72 56 -2 4 10 37 28
73 19 36 44 88 58 115 13 28 32 59 43 70 10 10 37 47 59 81 22 34 61 89 87
123 l47 60 -16 40 c-9 22 -21 42 -28 45 -17 6 -63 -36 -58 -51 3 -7 -14 -36
-36 -66 -23 -30 -41 -58 -41 -64 0 -6 -16 -30 -35 -54 -19 -24 -35 -48 -35
-53 0 -5 -11 -23 -24 -40 -12 -17 -38 -60 -56 -96 -47 -90 -146 -209 -176
-210 -7 0 -33 -19 -59 -42 -26 -24 -70 -56 -99 -71 -28 -16 -73 -46 -101 -66
-27 -20 -68 -50 -90 -66 -22 -16 -46 -35 -53 -42 -7 -7 -26 -13 -42 -13 -16 0
-30 -3 -32 -7 -10 -25 -77 -56 -136 -64 -110 -16 -145 -19 -180 -13 l-33 6 2
82 c2 101 7 126 25 126 8 0 33 9 56 21 22 11 48 22 57 24 9 2 34 19 56 39 21
20 43 36 47 36 4 0 8 6 8 13 0 8 11 24 26 37 87 83 134 382 83 537 -11 34 -29
73 -40 87 -10 13 -19 27 -19 31 0 26 -143 129 -203 147 -23 7 -47 18 -52 26
-10 12 -125 22 -170 14z m125 -113 c0 -5 3 -8 8 -7 23 6 73 -17 102 -47 19
-19 40 -35 47 -35 8 0 16 -7 19 -15 4 -8 14 -15 23 -15 29 -1 68 -44 84 -93
16 -48 17 -166 3 -232 -4 -16 -11 -48 -16 -70 -20 -86 -101 -200 -170 -238
-95 -52 -190 -65 -265 -35 -71 29 -158 109 -183 168 -8 19 -19 38 -25 42 -17
10 -16 252 1 303 30 87 55 127 121 192 91 87 114 99 190 95 34 -2 61 -8 61
-13z m30 -1204 c69 -3 154 -2 190 3 36 5 66 9 67 8 4 -4 14 -256 15 -362 0
-76 -4 -109 -17 -134 -14 -27 -15 -37 -5 -61 7 -16 16 -29 21 -29 5 0 8 -28 7
-62 l-2 -63 -320 3 c-271 2 -323 5 -332 17 -15 20 -27 93 -18 107 4 7 7 93 6
192 0 100 2 224 5 277 l6 96 46 11 c25 5 82 9 126 7 44 -2 136 -7 205 -10z
m-477 -147 c-5 -122 -15 -393 -15 -418 0 -14 6 -44 13 -67 7 -23 10 -45 6 -49
-6 -6 -301 -5 -422 1 -27 2 -115 4 -195 5 -80 1 -138 4 -130 7 48 16 153 65
160 75 3 3 17 9 32 13 14 4 50 22 79 41 29 19 57 34 62 34 5 0 21 9 36 19 15
11 42 23 60 28 26 7 40 20 64 63 62 111 216 308 242 309 6 1 9 -25 8 -61z
m-683 -603 c234 -3 472 -8 530 -10 111 -4 1233 -14 2058 -19 409 -2 495 -4
502 -16 11 -17 1 -150 -12 -167 -5 -7 -22 -12 -36 -12 -15 0 -62 0 -106 0 -43
0 -81 0 -85 1 -36 4 -59 -5 -65 -24 -3 -13 -8 -302 -11 -643 -4 -524 -8 -684
-18 -691 -1 -1 -52 -4 -114 -7 l-112 -6 -10 37 c-5 20 -10 66 -10 102 -1 57 1
68 24 93 24 25 25 30 13 57 -7 17 -18 30 -25 30 -7 0 -18 9 -25 20 -16 25 -29
25 -76 1 -56 -29 -107 -40 -215 -45 -54 -3 -102 -8 -107 -11 -5 -3 -18 0 -28
6 -12 7 -27 9 -38 4 -31 -13 -1947 -16 -2047 -4 -76 10 -88 10 -102 -5 -9 -9
-24 -16 -33 -16 -26 0 -54 -57 -41 -81 6 -12 9 -63 7 -122 l-3 -102 -41 -1
c-22 0 -46 -4 -52 -8 -11 -7 -220 -1 -228 6 -3 4 -6 115 -4 183 0 11 -1 215
-2 453 -3 357 7 688 21 737 9 32 -12 52 -67 63 -31 7 -64 11 -72 10 -18 -3
-181 10 -226 18 l-31 6 3 76 c2 42 3 80 4 84 0 15 98 15 880 3z m2850 -619 c0
-11 -19 -15 -25 -6 -3 5 1 10 9 10 9 0 16 -2 16 -4z"/>
<path d="M3841 3797 c-14 -14 -14 -44 0 -53 21 -12 730 -10 740 2 13 16 1 44
-20 45 -9 1 -71 1 -138 0 -68 -1 -123 2 -123 6 0 5 -21 7 -47 5 -75 -6 -189
-5 -300 0 -66 4 -105 2 -112 -5z"/>
<path d="M3867 3655 c-37 -36 12 -62 126 -66 69 -2 346 -3 451 -1 33 1 65 -3
72 -9 6 -5 16 -9 20 -7 5 1 18 -3 29 -9 20 -11 65 -1 65 14 -1 14 -28 44 -42
47 -7 2 -25 8 -39 14 -28 11 -148 8 -278 -8 -40 -4 -85 -6 -100 -3 -14 3 -46
5 -71 5 -41 1 -122 15 -191 33 -18 4 -31 1 -42 -10z"/>
<path d="M3863 3483 c-17 -6 -17 -48 0 -61 15 -13 65 -16 127 -7 55 8 50 8
130 -6 36 -6 115 -8 175 -6 61 3 148 2 195 -2 100 -8 120 -5 120 20 0 37 -30
45 -146 37 -179 -12 -527 2 -565 22 -10 6 -19 10 -21 9 -2 0 -9 -3 -15 -6z"/>
<path d="M3853 3293 c-21 -8 -15 -43 7 -43 11 0 20 -7 20 -15 0 -10 9 -13 33
-9 45 7 247 5 258 -2 6 -3 89 -6 185 -5 145 0 174 -3 174 -15 0 -8 -9 -14 -20
-14 -11 0 -20 -4 -20 -10 0 -14 7 -13 51 7 20 9 42 26 48 39 8 19 6 25 -17 40
-14 9 -31 17 -37 16 -16 -2 -167 -13 -200 -14 -66 -2 -332 14 -370 22 -43 10
-92 12 -112 3z"/>
<path d="M3848 3133 c-12 -3 -18 -14 -18 -33 0 -37 12 -40 210 -45 91 -3 178
-8 194 -11 22 -5 27 -3 20 7 -6 11 -5 12 7 2 8 -7 58 -11 129 -12 63 0 131 -2
150 -3 29 -3 36 1 38 18 5 34 -22 47 -91 44 -89 -5 -338 -2 -435 4 -75 6 -129
14 -172 29 -8 2 -23 3 -32 0z"/>
<path d="M3831 2951 c-26 -17 -20 -40 12 -55 24 -10 89 -14 247 -14 206 -2
313 -6 391 -18 44 -6 70 14 61 48 -9 39 -50 51 -78 23 -13 -12 -37 -14 -132
-10 -64 3 -190 7 -279 9 -89 3 -170 9 -182 15 -24 13 -22 13 -40 2z"/>
<path d="M393 2853 c-20 -7 -16 -61 5 -71 16 -7 536 -7 627 1 22 2 64 -3 93
-11 48 -14 54 -13 71 2 11 10 18 24 17 33 -5 33 -39 38 -213 31 -204 -9 -432
-10 -446 -1 -5 3 -34 5 -63 4 -32 -1 -54 3 -54 9 0 10 -16 12 -37 3z"/>
<path d="M4471 2757 c-11 -11 -294 -15 -521 -7 -114 4 -135 3 -137 -10 -8 -44
-4 -45 379 -45 l363 0 0 30 c0 26 -4 30 -37 36 -21 3 -42 1 -47 -4z"/>
<path d="M387 2698 c-18 -10 -11 -48 9 -48 8 0 14 -5 14 -11 0 -6 9 -9 20 -6
11 3 23 1 26 -5 4 -5 13 -4 22 5 14 11 34 12 107 5 50 -5 207 -10 350 -11
l260 -2 3 32 c3 27 -1 33 -20 38 -24 5 -46 3 -63 -6 -38 -21 -504 -13 -591 10
-46 12 -115 12 -137 -1z"/>
<path d="M3846 2624 c-21 -21 -20 -29 6 -53 13 -13 26 -17 32 -12 6 5 20 5 31
1 10 -3 39 -3 64 2 25 4 59 6 76 3 16 -2 121 -7 231 -10 111 -2 208 -7 216
-10 23 -9 42 20 28 44 -12 23 -52 37 -71 26 -17 -11 -225 -12 -288 -1 -38 6
-55 5 -61 -3 -5 -9 -14 -9 -36 -1 -16 6 -49 10 -74 9 -25 -1 -53 2 -62 6 -9 4
-21 4 -27 1 -5 -4 -12 -2 -16 4 -9 15 -31 12 -49 -6z"/>
<path d="M453 2533 c-55 -11 -28 -83 31 -84 17 0 42 0 56 -1 14 -1 126 3 250
7 124 5 259 9 300 9 59 1 75 4 78 17 3 15 -31 63 -39 55 -8 -8 -250 -19 -438
-20 -147 -1 -195 2 -199 12 -2 6 -7 11 -10 11 -4 -1 -17 -4 -29 -6z"/>
<path d="M4448 2475 c-13 -14 -585 -28 -593 -15 -10 17 -51 11 -70 -10 -10
-11 -16 -22 -14 -23 38 -30 51 -32 234 -30 103 0 208 4 234 8 41 7 133 7 217
1 40 -3 74 10 74 28 0 27 -64 59 -82 41z"/>
<path d="M1098 2378 c-8 -24 -352 -47 -419 -28 -19 6 -63 11 -99 11 -36 0 -69
4 -75 7 -5 4 -22 7 -37 8 -25 2 -28 -2 -28 -31 0 -39 15 -53 55 -50 17 2 91 2
165 2 213 -2 412 2 454 7 44 6 66 21 66 44 0 32 -73 59 -82 30z"/>
<path d="M4380 2298 c-63 -10 -486 -13 -530 -3 -68 15 -97 -30 -39 -59 17 -9
36 -13 42 -9 19 12 539 20 610 9 46 -6 58 11 33 49 -18 27 -27 28 -116 13z"/>
<path d="M866 2213 c-11 -12 -338 -19 -356 -8 -17 10 -50 -15 -50 -38 0 -41
27 -47 143 -32 107 14 423 15 446 1 6 -4 27 -2 47 4 30 10 35 16 32 38 -4 34
-46 51 -80 34 -23 -12 -127 -10 -159 2 -8 4 -18 3 -23 -1z"/>
<path d="M3771 2198 c-6 -10 -11 -27 -11 -39 0 -16 5 -20 19 -16 12 3 18 0 15
-7 -3 -8 52 -11 203 -11 233 0 348 -4 420 -15 26 -4 56 -4 66 1 19 11 23 44 6
55 -7 4 -66 8 -133 10 -439 11 -497 14 -534 27 -36 12 -40 12 -51 -5z"/>
</g>
</svg>
