<?xml version="1.0" standalone="no"?>
<!DOCTYPE svg PUBLIC "-//W3C//DTD SVG 20010904//EN"
 "http://www.w3.org/TR/2001/REC-SVG-20010904/DTD/svg10.dtd">
<svg version="1.0" xmlns="http://www.w3.org/2000/svg"
 width="485.000000pt" height="487.000000pt" viewBox="0 0 485.000000 487.000000"
 preserveAspectRatio="xMidYMid meet">
<metadata>
Created by potrace 1.16, written by Peter Selinger 2001-2019
</metadata>
<g transform="translate(0.000000,487.000000) scale(0.100000,-0.100000)"
fill="#000000" stroke="none">
<path d="M4265 4689 c-27 -3 -259 -6 -514 -7 -314 -1 -468 -5 -476 -12 -13
-11 -13 -46 0 -175 17 -182 21 -417 15 -928 -1 -131 -1 -239 1 -241 2 -3 222
-7 487 -10 266 -3 488 -8 493 -12 5 -3 9 -1 9 4 0 6 27 5 65 -3 62 -11 65 -11
72 9 10 31 5 204 -12 386 -2 30 -7 100 -10 155 -8 133 -15 223 -20 260 -6 37
-7 303 -2 445 l3 105 -30 15 c-21 10 -46 13 -81 9z m40 -92 c2 -7 7 -127 10
-267 4 -140 8 -275 10 -300 2 -25 6 -97 10 -160 4 -63 8 -133 11 -155 3 -22 7
-102 11 -177 l6 -137 -36 -6 c-19 -4 -140 -4 -268 -1 -129 3 -338 6 -464 6
-209 1 -231 3 -232 18 0 9 -4 35 -8 57 -9 49 -9 47 -1 225 9 218 6 481 -8 620
-4 36 -8 106 -10 157 -6 147 -58 133 495 132 352 0 471 -3 474 -12z"/>
<path d="M3788 4222 c-14 -9 -35 -29 -46 -43 -28 -34 -55 -123 -50 -158 4 -25
-1 -32 -34 -51 -21 -12 -42 -19 -47 -15 -5 3 -12 1 -16 -5 -10 -16 -22 -12
-28 10 -4 14 -13 20 -34 20 -39 0 -49 -9 -61 -53 -8 -29 -7 -44 6 -70 15 -31
72 -95 72 -82 0 4 11 0 24 -8 18 -12 50 -16 123 -16 54 0 116 -1 138 -2 22 -1
45 -1 50 0 104 11 175 23 195 33 32 16 51 35 48 45 -2 4 2 8 7 8 6 0 10 -18 9
-39 -1 -49 -35 -79 -111 -102 -28 -8 -63 -24 -76 -35 -14 -10 -31 -19 -39 -19
-20 0 -59 -46 -55 -67 8 -54 51 -58 90 -9 19 23 45 39 80 51 128 41 175 89
188 193 6 42 -5 81 -28 106 -23 25 -26 36 -24 83 2 40 -3 62 -19 88 -23 37
-65 65 -98 65 -10 0 -23 5 -29 11 -8 8 -13 8 -17 0 -12 -19 -32 -12 -46 14
-31 59 -119 82 -172 47z m76 -72 c24 -9 36 -30 18 -30 -5 0 -30 -20 -56 -45
-27 -25 -52 -45 -56 -45 -20 0 -17 45 5 80 31 50 47 56 89 40z m210 -101 c19
-15 26 -30 26 -55 0 -19 -4 -34 -8 -34 -4 0 -9 -12 -10 -27 -1 -15 -7 -30 -13
-34 -6 -3 -10 -9 -10 -13 3 -20 -1 -26 -18 -26 -11 0 -22 -4 -25 -9 -7 -11
-186 -25 -291 -23 -78 2 -135 16 -135 33 0 5 12 11 28 15 42 10 102 37 102 46
0 5 6 8 13 7 21 -4 45 12 99 62 29 27 56 49 60 49 15 0 17 1 45 15 41 22 105
19 137 -6z"/>
<path d="M3838 3943 c-20 -8 -39 -21 -42 -29 -8 -20 39 -63 63 -57 21 5 35 52
23 82 -7 18 -9 18 -44 4z"/>
<path d="M845 4402 c-1 -2 -135 -5 -296 -8 -179 -3 -305 -9 -322 -16 -25 -10
-27 -14 -21 -42 4 -17 7 -35 6 -41 -13 -171 -12 -276 2 -330 11 -41 18 -125
22 -270 5 -154 10 -214 20 -224 11 -12 84 -14 447 -13 293 1 446 -3 471 -10
52 -16 85 0 85 44 0 37 -19 346 -24 393 -2 17 -6 98 -10 180 -4 83 -9 153 -11
156 -2 4 -4 38 -5 77 -1 63 -4 73 -26 87 -26 17 -43 19 -148 16 -38 -1 -96 0
-128 1 -32 2 -60 2 -62 0z m153 -114 c115 -2 122 -3 123 -22 0 -12 2 -30 5
-41 2 -11 7 -96 10 -190 2 -93 7 -183 9 -200 2 -16 6 -73 10 -125 3 -52 8
-105 10 -116 6 -25 37 -24 -477 -28 l-348 -3 -1 26 c0 14 -2 37 -4 51 -1 14
-6 68 -10 120 -4 52 -8 97 -10 100 -2 3 -4 32 -6 65 -1 33 -6 71 -11 84 -10
29 -12 150 -3 224 7 56 7 56 44 59 36 3 425 1 659 -4z"/>
<path d="M598 4105 c-27 -34 -37 -59 -43 -101 -6 -51 -12 -61 -61 -109 -59
-59 -65 -81 -37 -139 15 -33 19 -35 57 -31 51 5 68 9 82 17 9 6 142 2 172 -4
4 -1 24 2 44 6 35 8 50 21 109 94 14 18 27 15 34 -8 4 -13 -3 -39 -19 -70 -33
-63 -33 -99 -1 -134 26 -28 63 -31 57 -5 -15 62 -14 82 10 127 51 95 40 164
-28 176 -21 4 -40 18 -55 41 -13 18 -33 36 -43 39 -11 3 -17 8 -13 12 3 4 2
16 -4 26 -9 18 -19 20 -70 16 -51 -4 -59 -2 -59 13 0 23 -44 67 -74 75 -18 4
-29 -4 -58 -41z m61 -84 c9 -16 7 -20 -13 -23 -24 -5 -28 5 -13 30 11 16 15
15 26 -7z m138 -47 c38 -7 65 -59 57 -104 -8 -37 -47 -50 -149 -50 -66 0 -68
1 -47 16 23 16 31 67 11 79 -10 7 66 63 87 64 6 1 25 -2 41 -5z m-189 -91 c-1
-10 2 -27 5 -38 6 -17 0 -22 -33 -33 -51 -15 -60 -15 -60 2 0 14 68 86 82 86
4 0 6 -8 6 -17z"/>
<path d="M2385 4126 c-9 -14 -14 -30 -10 -36 3 -5 1 -10 -5 -10 -6 0 -8 -4 -5
-10 3 -5 0 -11 -7 -11 -61 -6 -168 -9 -443 -13 -176 -2 -328 -7 -337 -11 -12
-5 -18 -18 -18 -40 0 -45 14 -49 190 -46 80 1 150 2 155 2 6 0 123 0 262 -1
l252 -1 -6 -30 c-4 -22 0 -36 16 -53 26 -28 41 -27 121 6 47 19 113 37 121 32
4 -2 11 1 14 7 4 5 21 9 39 8 38 -2 64 8 93 36 47 46 28 99 -40 108 -19 2 -61
17 -93 32 -32 15 -70 27 -84 27 -14 0 -29 3 -35 6 -5 3 -23 7 -40 8 -16 1 -51
5 -77 9 -42 6 -48 5 -63 -19z"/>
<path d="M3352 3206 c-26 -14 -32 -29 -26 -61 3 -16 7 -77 9 -135 2 -58 8
-177 14 -265 23 -351 27 -493 23 -819 -3 -166 -1 -181 17 -199 19 -19 19 -19
39 1 20 20 21 20 38 1 10 -11 22 -18 28 -16 6 2 21 0 34 -4 12 -5 22 -5 22 0
0 5 19 9 43 9 180 0 613 2 712 3 32 1 180 -13 186 -17 15 -9 30 37 25 79 -3
23 -8 89 -11 147 -7 155 -16 295 -20 327 -16 129 -24 696 -12 826 8 87 8 87
-15 87 -13 0 -29 9 -35 19 -11 18 -29 19 -385 19 -205 1 -440 2 -521 4 -82 2
-156 -1 -165 -6z m1000 -82 l46 -6 1 -187 c1 -102 3 -215 6 -251 3 -36 7 -137
10 -225 3 -88 7 -178 9 -200 3 -38 10 -158 21 -373 l5 -92 -362 7 c-453 8
-574 9 -618 3 l-35 -5 1 115 c1 63 3 151 5 195 3 76 -7 333 -16 420 -9 83 -21
456 -17 552 l2 52 448 0 c246 1 468 -2 494 -5z"/>
<path d="M4253 3000 c-3 -11 -10 -20 -15 -20 -5 0 -6 -5 -3 -10 4 -6 -10 -43
-30 -83 -44 -86 -52 -96 -51 -63 1 14 5 28 8 32 12 11 -38 52 -65 52 -49 0
-45 -61 8 -114 l35 -35 -27 -34 c-28 -35 -40 -35 -46 0 -6 38 -21 53 -47 48
-23 -4 -25 -8 -22 -44 2 -21 8 -39 12 -39 4 0 13 -13 20 -29 9 -22 9 -33 0
-47 -10 -16 -24 -19 -93 -18 -46 0 -96 -6 -114 -13 -44 -18 -50 -17 -57 12 -5
18 1 36 19 63 26 39 33 86 13 98 -6 4 -25 -8 -44 -30 -34 -39 -35 -38 -49 14
-1 3 -5 12 -9 22 -7 15 37 98 57 106 10 5 9 30 -4 54 -10 19 -12 19 -45 -16
-19 -20 -36 -36 -39 -36 -6 0 -35 69 -32 78 3 9 -40 52 -51 52 -5 0 -16 -8
-26 -18 -15 -18 -15 -22 9 -66 22 -41 22 -45 6 -37 -22 12 -51 -14 -51 -47 0
-24 35 -52 66 -52 25 0 47 -24 62 -67 12 -37 7 -46 -20 -32 -31 17 -68 3 -68
-25 0 -30 27 -52 69 -54 48 -3 71 -19 78 -52 3 -16 11 -34 18 -40 11 -9 6 -25
-23 -83 -36 -73 -61 -196 -62 -310 0 -57 28 -117 64 -137 14 -7 26 -18 26 -25
0 -6 8 -11 18 -12 9 -1 44 -9 77 -19 61 -17 127 -20 179 -8 61 14 109 77 146
189 33 99 34 270 2 338 -12 26 -22 51 -22 56 0 5 -11 16 -25 25 -14 9 -25 23
-25 31 0 20 40 45 71 45 47 0 105 90 67 102 -7 3 -19 -1 -26 -9 -23 -23 -37
-14 -15 10 11 12 23 31 27 41 5 15 9 17 18 8 27 -27 108 -7 108 26 0 16 -41
42 -66 42 -16 0 1 54 28 89 23 30 23 80 1 97 -25 19 -34 17 -40 -6z m-251
-499 c13 -18 18 -21 41 -21 44 0 81 -143 65 -248 -14 -92 -15 -95 -40 -152
-30 -67 -61 -90 -125 -91 -135 -3 -226 45 -235 126 -10 84 29 295 54 295 4 0
8 6 8 13 1 24 55 76 90 86 62 17 127 13 142 -8z"/>
<path d="M3972 2388 c-6 -6 -12 -24 -12 -39 0 -21 6 -28 26 -32 20 -3 28 1 37
20 18 41 -21 81 -51 51z"/>
<path d="M3784 2363 c-20 -20 -17 -39 8 -57 42 -30 73 -13 73 39 0 27 -3 30
-33 31 -19 1 -40 -5 -48 -13z"/>
<path d="M3908 2273 c-24 -4 -28 -9 -28 -38 0 -19 6 -35 14 -38 21 -8 54 3 60
20 7 17 -3 64 -13 62 -3 -1 -18 -4 -33 -6z"/>
<path d="M3978 2165 c-13 -14 -30 -25 -38 -25 -9 0 -21 -5 -28 -12 -9 -9 -20
-9 -49 1 -34 13 -38 12 -55 -8 -22 -28 -7 -56 40 -73 17 -7 32 -17 32 -23 0
-6 3 -7 8 0 4 6 18 15 32 21 89 40 92 43 104 100 9 42 -15 52 -46 19z"/>
<path d="M264 2923 c-19 -21 -24 -37 -25 -82 0 -31 -3 -72 -5 -91 -9 -71 -9
-248 0 -345 5 -55 10 -196 11 -314 2 -207 3 -215 24 -232 12 -10 28 -16 35
-13 7 3 16 -3 20 -13 5 -13 9 -14 15 -5 6 10 96 13 417 13 225 1 433 -2 462
-5 62 -6 92 8 92 41 0 13 5 23 11 23 5 0 7 5 3 11 -7 12 -9 61 -18 489 -6 283
-17 405 -40 462 -7 18 -11 38 -9 45 2 6 -9 19 -26 27 -32 17 -61 21 -61 8 0
-8 -846 -6 -868 3 -7 3 -24 -7 -38 -22z m924 -102 c2 0 1 -9 -3 -20 -3 -10 -1
-30 5 -45 12 -32 17 -136 25 -518 l7 -278 -124 -1 c-67 0 -264 -2 -435 -5
-298 -5 -313 -4 -314 13 -1 10 -2 79 -4 153 -2 74 -7 178 -12 230 -9 110 -10
439 0 463 6 16 39 17 429 13 233 -2 424 -4 426 -5z"/>
<path d="M1020 2751 c-6 -23 -16 -41 -22 -41 -6 0 -8 3 -5 7 10 10 -24 43 -44
43 -26 0 -35 -53 -14 -96 18 -38 13 -69 -14 -84 -16 -8 -20 -5 -24 19 -5 22
-11 27 -29 25 -13 -1 -28 -3 -34 -3 -18 -2 -6 -69 16 -91 25 -25 25 -29 -5
-64 -14 -16 -25 -32 -25 -35 0 -3 -21 -6 -47 -6 -34 0 -57 -7 -81 -24 -35 -25
-39 -24 -56 11 -10 19 -8 31 13 71 22 44 23 49 9 64 -15 14 -18 13 -40 -12
-50 -59 -50 -59 -63 -34 -14 25 0 69 36 121 24 34 24 55 -1 63 -14 4 -27 -3
-49 -27 l-30 -33 -15 36 c-19 45 -35 52 -65 30 -17 -13 -21 -23 -16 -44 4 -15
11 -27 15 -27 4 0 10 -11 12 -25 4 -19 1 -25 -11 -25 -23 0 -41 -20 -41 -46 0
-28 17 -40 59 -43 43 -2 47 -6 28 -26 -27 -26 -3 -70 44 -80 16 -4 42 -18 58
-32 l30 -26 -21 -29 c-16 -24 -20 -44 -20 -110 0 -74 2 -82 28 -109 16 -17 40
-32 54 -36 14 -3 31 -10 38 -16 29 -23 175 4 210 40 7 7 17 13 21 13 13 0 33
53 38 105 3 28 9 58 14 67 6 10 5 19 -1 23 -5 3 -10 17 -10 31 0 31 -16 63
-43 87 -17 15 -19 21 -8 44 9 20 15 23 23 15 7 -7 33 -12 59 -12 42 0 51 4 73
32 32 41 19 63 -34 54 -58 -9 -69 6 -38 51 43 63 84 137 91 163 7 30 -1 45
-30 54 -19 6 -23 2 -33 -33z m-236 -408 c4 -5 11 -8 14 -8 4 -1 24 -4 44 -8
54 -11 66 -34 57 -108 -8 -69 -21 -85 -86 -113 -49 -22 -119 -16 -154 13 -50
40 -11 174 61 213 38 20 53 22 64 11z"/>
<path d="M821 2301 c-6 -11 -11 -33 -11 -49 0 -24 5 -31 25 -35 47 -8 61 62
18 90 -19 13 -23 12 -32 -6z"/>
<path d="M710 2280 c-21 -5 -25 -12 -25 -45 0 -34 3 -39 27 -42 22 -3 27 1 33
25 9 44 -5 69 -35 62z"/>
<path d="M780 2195 c-24 -26 -23 -54 2 -72 33 -25 70 13 60 63 -6 32 -36 36
-62 9z"/>
<path d="M1052 2618 c-31 -31 6 -80 52 -71 68 13 85 39 44 67 -27 19 -79 21
-96 4z"/>
<path d="M2510 2521 c-14 -4 -31 -20 -40 -37 -17 -34 -5 -32 -175 -32 -55 0
-116 0 -135 -1 -19 0 -145 -1 -278 -1 -256 -1 -268 -3 -272 -46 -4 -33 -1 -42
17 -49 10 -3 206 -6 436 -6 l419 1 -7 -30 c-4 -17 -2 -30 3 -30 5 0 12 -8 15
-19 7 -27 50 -31 98 -10 23 11 49 19 59 19 10 0 37 7 61 16 24 8 52 17 61 19
9 2 25 8 35 13 10 6 34 12 53 16 19 3 36 10 38 15 2 6 10 11 17 11 18 0 25 35
14 75 -11 39 -6 37 -114 40 -44 1 -107 9 -140 18 -73 20 -132 27 -165 18z"/>
<path d="M4370 1590 c-30 -3 -255 -5 -499 -3 -245 3 -455 2 -467 -1 -22 -6
-52 -67 -45 -91 1 -5 5 -55 7 -110 3 -101 14 -290 20 -355 2 -19 3 -89 3 -155
0 -66 0 -131 0 -145 2 -99 -2 -448 -6 -507 -3 -42 0 -80 7 -92 13 -25 45 -28
58 -6 7 13 12 12 31 -9 19 -20 27 -23 54 -15 44 13 990 10 998 -3 4 -6 12 -1
19 11 9 17 9 39 0 94 -7 40 -14 106 -16 147 -1 41 -8 143 -14 225 -6 83 -12
333 -13 556 -3 433 -3 430 -54 457 -12 7 -23 11 -25 11 -2 -1 -28 -5 -58 -9z
m10 -84 c14 -1 30 -4 36 -4 20 -3 25 -78 30 -397 2 -171 6 -346 9 -390 13
-257 16 -318 21 -390 3 -44 6 -93 7 -110 l2 -30 -310 1 c-170 0 -397 2 -504 4
-180 4 -194 3 -207 -15 -13 -17 -14 -15 -15 21 -1 21 0 44 2 49 4 16 -1 822
-6 900 -10 149 -16 348 -11 362 5 12 72 13 463 8 252 -3 469 -7 483 -9z"/>
<path d="M3740 1220 c-82 -11 -120 -46 -145 -135 -26 -89 -22 -198 9 -235 7
-8 19 -30 26 -48 7 -18 20 -38 30 -45 11 -8 16 -24 15 -52 -2 -22 2 -51 7 -65
5 -14 10 -27 10 -30 0 -3 13 -23 29 -45 52 -70 155 -132 240 -142 39 -5 57 0
108 26 80 40 102 63 144 147 39 79 62 168 55 213 -4 26 -1 31 16 32 13 0 36
20 60 52 34 44 40 59 41 107 4 120 -38 189 -131 215 -66 19 -113 16 -159 -8
-36 -18 -95 -83 -95 -104 0 -20 -40 -8 -60 18 -42 56 -59 70 -105 87 -35 13
-64 16 -95 12z m88 -90 c41 -20 70 -55 56 -68 -4 -4 -9 -1 -11 6 -3 6 -11 12
-19 12 -8 0 -14 4 -14 9 0 15 -39 23 -75 17 -45 -9 -98 -88 -90 -135 3 -17 1
-31 -4 -31 -14 0 -2 -36 21 -60 19 -20 19 -50 -1 -50 -17 0 -45 93 -46 150 0
70 38 151 75 161 43 12 65 10 108 -11z m422 10 c49 -14 72 -50 72 -112 -1 -28
-6 -56 -11 -61 -8 -8 -11 2 -11 32 0 45 -32 111 -53 111 -6 0 -19 7 -29 17
-16 14 -22 14 -46 3 -28 -14 -78 -23 -68 -13 30 31 88 40 146 23z m-36 -106
c9 -8 14 -19 11 -24 -3 -5 0 -10 7 -12 7 -3 9 -11 4 -24 -6 -14 -10 -16 -14
-5 -2 8 -16 24 -30 36 -14 12 -22 27 -18 33 10 16 22 15 40 -4z m-414 -14 c12
-8 10 -14 -15 -42 -16 -18 -33 -37 -37 -42 -5 -6 -8 4 -8 21 0 17 7 38 15 46
8 8 11 17 8 21 -10 10 20 7 37 -4z m338 -55 c82 -72 87 -205 14 -340 -20 -37
-44 -61 -90 -91 -61 -40 -65 -41 -109 -32 -49 11 -148 65 -174 95 -30 35 -42
81 -35 139 14 122 114 265 187 268 16 1 29 4 29 9 0 4 7 7 15 7 8 0 15 -6 15
-12 0 -9 2 -10 8 -2 20 32 75 16 140 -41z"/>
<path d="M4061 861 c-35 -9 -41 -81 -7 -94 32 -12 52 3 54 42 3 44 -12 61 -47
52z"/>
<path d="M3830 815 c-15 -18 -5 -64 16 -72 25 -9 58 30 50 61 -7 30 -45 36
-66 11z"/>
<path d="M3970 716 c0 -7 -7 -16 -15 -20 -16 -6 -21 -56 -5 -56 5 0 7 -6 4
-14 -5 -14 32 -30 48 -20 15 9 29 55 23 74 -8 25 -55 56 -55 36z"/>
<path d="M276 1475 c-11 -9 -14 -40 -13 -155 1 -80 -4 -248 -11 -375 -9 -161
-10 -240 -2 -265 5 -19 10 -58 10 -85 0 -30 6 -60 16 -73 14 -20 21 -22 60
-16 55 8 698 12 737 4 15 -3 61 -3 102 0 47 3 75 1 75 -5 0 -5 4 -4 9 3 7 11
15 11 45 -2 35 -14 38 -14 57 5 19 19 19 28 13 237 -4 119 -8 315 -8 434 -1
120 -4 218 -8 218 -4 0 -7 9 -5 21 1 13 -6 26 -18 33 -11 6 -23 15 -26 19 -9
13 -1016 14 -1033 2z m981 -108 c11 -11 12 -53 19 -417 l5 -325 -459 -4 c-528
-4 -477 -14 -482 99 -5 107 4 406 15 500 1 14 3 54 4 90 l1 65 444 0 c245 0
448 -4 453 -8z"/>
<path d="M955 1221 c-6 -5 -21 -11 -34 -13 -15 -2 -31 -15 -41 -33 -12 -22
-25 -31 -48 -33 -18 -2 -32 1 -32 7 0 6 -7 11 -15 11 -8 0 -15 5 -15 11 0 17
-71 41 -104 36 -58 -10 -68 -13 -102 -41 -32 -25 -34 -30 -28 -69 12 -87 43
-147 76 -147 5 0 8 -17 7 -37 -9 -159 108 -237 283 -189 15 4 29 14 32 23 3 8
10 11 16 8 5 -3 10 -1 10 5 0 6 6 18 14 26 18 17 46 112 48 159 1 21 6 35 14
35 7 0 24 16 37 35 24 35 24 37 10 98 -17 72 -53 117 -93 117 -14 0 -30 -4
-35 -9z m-260 -93 c30 -13 31 -19 7 -39 -11 -9 -25 -26 -34 -37 -23 -33 -58
-19 -58 24 0 26 6 37 28 48 33 19 26 18 57 4z m323 -33 l3 -40 -34 35 c-36 36
-33 53 8 48 16 -2 21 -12 23 -43z m-140 -39 c23 0 42 -4 42 -8 0 -3 9 -10 21
-13 18 -6 20 -14 17 -67 -1 -33 -6 -62 -10 -64 -5 -3 -8 -15 -8 -28 0 -34 -10
-37 -34 -10 -19 21 -24 23 -46 11 -30 -15 -39 -76 -11 -78 9 -1 -4 -5 -29 -9
-63 -10 -107 10 -127 58 -29 65 -11 128 51 185 33 30 46 36 66 31 14 -4 44 -7
68 -8z"/>
<path d="M869 1028 c0 -2 -3 -18 -6 -36 -5 -39 10 -62 42 -62 32 0 45 53 19
81 -14 15 -51 27 -55 17z"/>
<path d="M761 986 c-15 -17 -4 -66 16 -73 8 -3 24 4 36 15 19 19 19 24 7 47
-15 28 -41 33 -59 11z"/>
<path d="M2529 1169 c-15 -15 -19 -28 -14 -50 l7 -29 -69 -1 c-37 -1 -88 -3
-113 -4 -41 -3 -133 -3 -305 -3 -33 0 -73 -1 -90 -2 -16 -2 -77 -2 -135 -1
-127 3 -155 -5 -164 -50 -5 -26 -2 -35 11 -43 11 -6 181 -9 440 -8 389 2 448
-1 414 -22 -4 -3 -7 -16 -6 -28 1 -13 3 -31 4 -40 0 -10 7 -18 15 -18 7 0 19
-6 25 -14 11 -13 15 -12 32 5 23 23 51 35 103 43 94 15 252 61 267 77 9 11 14
30 11 47 -3 22 -13 32 -50 49 -26 12 -67 24 -92 28 -25 4 -49 10 -55 13 -5 3
-22 7 -38 9 -42 5 -117 40 -117 55 0 9 -3 9 -10 -2 -7 -12 -12 -12 -22 -2 -17
17 -25 15 -49 -9z"/>
</g>
</svg>
