<?xml version="1.0" standalone="no"?>
<!DOCTYPE svg PUBLIC "-//W3C//DTD SVG 20010904//EN"
 "http://www.w3.org/TR/2001/REC-SVG-20010904/DTD/svg10.dtd">
<svg version="1.0" xmlns="http://www.w3.org/2000/svg"
 width="417.000000pt" height="407.000000pt" viewBox="0 0 417.000000 407.000000"
 preserveAspectRatio="xMidYMid meet">
<metadata>
Created by potrace 1.16, written by Peter Selinger 2001-2019
</metadata>
<g transform="translate(0.000000,407.000000) scale(0.100000,-0.100000)"
fill="#000000" stroke="none">
<path d="M2456 3883 c-4 -5 -29 -8 -54 -9 -115 -2 -199 -8 -221 -16 -13 -5
-46 -11 -73 -13 -27 -2 -64 -8 -81 -14 -18 -5 -39 -9 -47 -10 -54 -1 -147 -10
-160 -14 -8 -3 -46 -11 -83 -17 -72 -11 -118 -29 -182 -70 -22 -14 -52 -31
-66 -39 -14 -7 -49 -35 -77 -62 -28 -27 -54 -49 -57 -49 -23 0 -187 -158 -179
-172 3 -4 -1 -8 -8 -8 -7 0 -27 -12 -43 -28 -17 -15 -39 -32 -49 -37 -10 -6
-29 -31 -43 -55 -14 -25 -34 -54 -44 -66 -10 -11 -19 -25 -19 -31 0 -6 -16
-35 -36 -64 -42 -63 -84 -143 -84 -161 0 -7 -12 -35 -25 -63 -14 -27 -25 -56
-25 -63 0 -7 -8 -29 -19 -50 -10 -20 -24 -67 -30 -103 -17 -91 -22 -96 -58
-65 -17 14 -41 26 -54 26 -43 -1 -137 -27 -161 -45 -57 -44 -104 -147 -102
-225 1 -67 16 -145 31 -162 8 -9 12 -22 8 -28 -4 -6 -2 -16 3 -23 19 -24 51
-184 52 -266 1 -47 6 -93 11 -103 5 -10 7 -18 4 -18 -3 0 1 -16 9 -35 8 -19
12 -35 9 -35 -10 0 30 -55 51 -70 27 -19 88 -50 99 -50 13 0 37 27 37 41 0 36
19 -15 29 -78 6 -39 16 -84 22 -100 6 -15 12 -44 14 -64 2 -20 10 -57 19 -83
9 -26 16 -55 16 -66 0 -10 4 -21 9 -24 4 -3 11 -19 14 -35 6 -27 22 -68 65
-161 8 -19 16 -38 16 -42 1 -4 9 -16 18 -27 9 -11 24 -33 32 -49 15 -30 111
-139 155 -177 13 -11 41 -37 62 -58 22 -22 44 -35 51 -31 6 4 8 3 5 -3 -8 -12
11 -31 83 -84 62 -46 122 -79 143 -79 8 0 28 -7 46 -16 18 -9 43 -14 56 -12
16 4 22 1 18 -9 -3 -7 1 -13 10 -13 9 0 71 -16 139 -36 68 -20 140 -36 161
-37 24 -1 37 -6 37 -16 0 -11 16 -13 88 -8 48 2 98 9 112 15 14 5 27 10 30 10
17 2 125 55 137 68 9 8 22 13 30 10 8 -3 31 3 51 14 20 11 55 27 77 36 22 9
49 20 60 24 11 5 31 12 45 15 33 9 254 118 258 127 2 5 9 8 16 8 7 0 35 20 62
45 27 24 67 53 89 64 22 11 62 40 88 65 27 25 52 46 55 46 4 0 30 28 57 62 28
33 69 82 92 107 40 43 123 190 123 217 0 6 11 31 24 55 13 24 30 64 37 89 7
25 13 47 14 50 1 3 5 19 9 35 4 17 13 53 21 80 8 28 19 76 26 108 12 55 13 57
44 57 62 0 100 67 111 195 3 39 9 88 14 110 5 22 7 61 5 85 -5 43 3 70 58 215
33 87 42 133 41 210 -2 124 -8 138 -67 168 -64 33 -147 39 -175 14 -26 -24
-32 -21 -32 12 0 17 -5 33 -11 36 -5 4 -8 12 -6 18 2 7 0 21 -6 32 -6 11 -12
27 -13 35 -1 8 -9 35 -17 60 -8 25 -20 68 -27 95 -10 46 -61 189 -80 225 -5 8
-24 47 -44 85 -20 39 -46 83 -59 97 -12 15 -35 43 -51 63 -15 19 -33 35 -38
35 -6 0 -28 15 -48 33 -21 17 -54 43 -75 57 -20 14 -57 40 -82 59 -26 18 -60
39 -77 46 -17 7 -42 22 -56 33 -14 10 -38 22 -54 26 -17 4 -43 16 -58 28 -16
11 -64 31 -107 44 -43 13 -90 33 -104 44 -28 22 -31 23 -41 13z m35 -111 c8
-9 42 -26 74 -36 33 -10 76 -27 95 -36 19 -10 46 -21 60 -25 14 -4 32 -13 40
-20 8 -7 40 -26 70 -42 82 -44 172 -105 210 -140 18 -17 49 -41 69 -54 75 -47
141 -147 223 -339 18 -43 40 -123 53 -200 3 -19 11 -40 16 -47 19 -22 49 -137
49 -186 0 -27 5 -57 10 -67 6 -11 12 -54 13 -97 2 -43 6 -83 9 -88 13 -24 16
-291 4 -400 -3 -33 -8 -80 -11 -105 -2 -25 -14 -88 -26 -140 -11 -52 -22 -106
-24 -120 -7 -52 -73 -249 -104 -309 -10 -20 -23 -47 -28 -61 -37 -93 -87 -173
-153 -242 -128 -135 -166 -171 -214 -199 -47 -28 -56 -38 -57 -64 -1 -17 -3
-22 -6 -12 -6 23 -12 22 -44 -9 -14 -14 -33 -26 -40 -27 -8 -2 -45 -20 -84
-41 -38 -21 -77 -39 -86 -41 -9 -2 -38 -14 -65 -28 -61 -30 -194 -86 -220 -92
-10 -2 -37 -13 -59 -24 -21 -12 -49 -21 -60 -21 -12 0 -26 -5 -33 -12 -7 -7
-12 -9 -12 -6 0 4 -30 -5 -67 -20 -71 -28 -90 -32 -111 -19 -7 5 -21 5 -33 2
-11 -4 -27 -1 -36 7 -12 9 -17 10 -20 2 -3 -9 -14 -9 -41 1 -77 26 -118 38
-140 41 -13 1 -67 17 -120 34 -192 63 -284 116 -371 212 -18 21 -37 38 -41 38
-10 0 -70 52 -70 61 0 4 -25 33 -55 65 -51 52 -121 170 -140 234 -4 14 -17 45
-28 70 -40 90 -91 305 -111 470 -4 34 -32 150 -43 180 -4 8 -8 40 -10 70 -2
30 -8 70 -13 89 -17 61 -3 229 27 341 14 55 19 79 27 125 2 14 9 32 15 39 6 7
15 33 20 57 10 43 45 148 96 284 14 39 30 81 34 95 19 58 106 210 142 249 22
23 39 47 39 54 0 24 88 107 259 244 19 16 41 36 50 46 9 10 32 27 52 37 19 10
41 26 48 34 8 9 45 34 85 55 76 43 211 76 338 84 37 2 73 9 80 14 7 6 47 14
88 18 41 4 79 9 83 12 5 3 65 6 133 8 69 1 128 5 131 9 10 10 17 7 34 -12z
m1184 -1166 c28 -19 49 -85 41 -130 -14 -74 -13 -70 -72 -227 -25 -65 -33
-101 -32 -150 0 -35 -5 -88 -11 -118 -6 -29 -11 -71 -11 -92 0 -26 -8 -47 -24
-66 l-25 -28 4 45 c2 25 5 45 5 45 5 0 10 52 15 128 2 49 6 91 8 95 4 6 -5
125 -17 247 -2 22 -7 85 -11 141 -7 99 -7 102 16 118 28 20 77 16 114 -8z
m-3018 -98 c37 -36 38 -43 19 -118 -34 -134 -52 -331 -37 -417 6 -32 13 -71
16 -88 2 -16 7 -54 11 -83 3 -29 11 -73 19 -98 12 -40 6 -60 -10 -34 -4 6 -12
9 -18 8 -29 -5 -76 33 -88 72 -7 22 -15 40 -20 40 -4 0 -8 57 -8 126 -2 107
-5 135 -26 191 -14 36 -25 74 -25 84 0 9 -10 38 -23 63 -20 39 -22 54 -16 110
7 75 33 125 75 145 16 8 36 18 44 22 29 15 54 9 87 -23z"/>
<path d="M2670 2765 c-14 -8 -41 -14 -60 -15 -34 0 -152 -51 -258 -111 -18
-10 -36 -18 -40 -18 -33 5 -57 -29 -48 -67 10 -37 54 -32 122 16 32 22 65 40
74 40 9 0 34 13 56 30 30 23 49 30 87 30 27 0 58 5 70 12 30 16 69 19 84 7 6
-6 17 -8 24 -4 6 4 21 3 32 -3 42 -19 82 -32 110 -34 15 -1 27 -6 27 -11 0 -4
18 -16 40 -26 22 -10 58 -40 81 -69 57 -70 73 -69 84 2 6 33 2 40 -54 96 -33
33 -66 60 -73 60 -7 0 -22 7 -32 15 -11 8 -32 15 -48 15 -15 0 -49 8 -75 19
-68 26 -171 35 -203 16z"/>
<path d="M1884 2726 c-8 -20 -50 -35 -109 -40 -31 -3 -81 -20 -132 -45 -45
-23 -95 -41 -110 -41 -15 0 -50 -7 -78 -16 -27 -9 -60 -16 -71 -15 -12 0 -29
-8 -39 -19 -15 -17 -16 -24 -7 -45 16 -34 39 -41 72 -22 15 9 52 22 81 28 56
12 169 63 181 83 4 6 8 8 8 5 0 -4 19 -1 43 6 28 8 51 9 69 3 20 -7 38 -5 73
11 25 11 52 18 59 15 14 -5 46 20 46 36 0 5 -5 12 -11 16 -8 4 -8 9 -1 13 18
11 -3 32 -37 36 -21 3 -34 -1 -37 -9z"/>
<path d="M1497 2327 c-55 -55 -177 -201 -177 -212 0 -5 -11 -32 -25 -59 -32
-63 -33 -126 -3 -166 12 -17 27 -30 34 -30 6 0 17 -7 24 -15 21 -26 100 7 100
42 0 7 4 13 8 13 15 0 34 66 42 145 10 93 13 108 34 158 8 20 12 37 9 37 -3 0
9 16 26 35 17 20 31 40 31 45 0 50 -56 55 -103 7z m-17 -138 c0 -6 -4 -19 -10
-29 -5 -10 -12 -37 -15 -61 -16 -129 -36 -179 -72 -179 -39 0 -59 32 -53 84 7
64 150 240 150 185z"/>
<path d="M2851 2331 c-20 -13 -16 -87 9 -206 6 -27 10 -70 10 -95 0 -25 1 -63
3 -86 7 -99 116 -182 164 -124 10 12 28 33 41 46 33 37 32 55 -7 169 -16 47
-40 93 -57 111 -16 16 -36 40 -44 53 -8 13 -25 36 -37 51 -13 15 -23 36 -23
47 0 35 -30 52 -59 34z m83 -197 c4 -14 20 -33 36 -42 28 -16 50 -60 50 -102
0 -9 5 -21 11 -27 19 -19 6 -76 -20 -89 -21 -11 -28 -9 -60 23 l-36 35 0 114
c0 111 6 140 19 88z"/>
<path d="M1925 1850 c-13 -25 -12 -30 12 -68 31 -48 53 -55 119 -42 94 18 117
39 107 94 -6 29 -33 35 -53 11 -18 -22 -93 -20 -114 4 -29 32 -55 33 -71 1z"/>
<path d="M1281 1595 c-11 -19 -31 -39 -44 -44 -31 -12 -62 -52 -78 -98 -6 -20
-25 -48 -40 -63 -36 -33 -69 -123 -75 -207 -4 -51 -1 -65 11 -69 8 -4 15 -11
15 -18 0 -14 94 -66 120 -66 12 0 32 16 48 39 28 38 28 41 19 108 -11 80 -10
204 3 253 15 60 43 135 52 138 11 5 10 62 -1 62 -5 0 -18 -16 -30 -35z m-78
-197 c-13 -49 -12 -165 2 -239 3 -13 -2 -27 -13 -35 -23 -18 -24 -18 -59 14
-30 26 -31 30 -26 87 3 33 9 68 14 77 5 9 9 28 9 43 0 14 4 24 9 21 8 -6 36
43 32 57 -1 5 3 6 9 2 5 -3 13 1 16 9 3 9 9 16 14 16 4 0 1 -24 -7 -52z"/>
<path d="M2957 1533 c-4 -3 -7 -15 -7 -25 0 -11 -7 -18 -19 -18 -24 0 -31 -19
-37 -104 -4 -65 -10 -98 -36 -188 -6 -21 -7 -56 -3 -85 4 -26 9 -61 11 -77 6
-46 44 -73 99 -72 39 1 48 5 59 26 7 14 20 39 29 56 9 17 15 33 12 35 -2 3 -6
17 -9 32 -2 14 -8 32 -12 39 -24 38 -53 190 -52 273 0 50 0 96 -1 103 -1 13
-23 17 -34 5z m-7 -292 c0 -11 11 -51 25 -88 29 -82 25 -113 -16 -113 -25 0
-28 4 -35 45 -8 54 4 175 17 175 5 0 9 -9 9 -19z"/>
<path d="M2040 1319 c-19 -6 -55 -12 -80 -15 -25 -3 -61 -10 -80 -17 -19 -6
-37 -12 -40 -12 -3 -1 -21 -9 -40 -17 -19 -9 -57 -18 -83 -21 -26 -3 -53 -9
-60 -15 -18 -14 -82 -33 -117 -34 -36 -1 -56 -35 -45 -76 5 -22 10 -23 43 -17
20 3 66 19 101 36 35 16 80 29 101 29 21 0 43 7 50 15 7 8 20 15 28 15 9 0 34
6 57 14 68 23 175 38 280 37 99 0 110 -2 253 -52 30 -11 63 -19 74 -19 11 0
32 -8 46 -19 15 -10 44 -26 66 -36 37 -18 39 -18 52 0 15 20 9 39 -9 28 -7 -3
-3 4 8 16 19 22 19 23 0 37 -10 8 -28 14 -39 14 -12 0 -30 7 -40 15 -11 8 -30
15 -42 15 -13 0 -38 9 -58 20 -19 12 -53 23 -76 26 -24 3 -49 12 -57 20 -10
10 -38 14 -92 14 -43 0 -98 2 -122 4 -24 3 -60 0 -79 -5z"/>
</g>
</svg>
