<?xml version="1.0" standalone="no"?>
<!DOCTYPE svg PUBLIC "-//W3C//DTD SVG 20010904//EN"
 "http://www.w3.org/TR/2001/REC-SVG-20010904/DTD/svg10.dtd">
<svg version="1.0" xmlns="http://www.w3.org/2000/svg"
 width="527.000000pt" height="461.000000pt" viewBox="0 0 527.000000 461.000000"
 preserveAspectRatio="xMidYMid meet">
<metadata>
Created by potrace 1.16, written by Peter Selinger 2001-2019
</metadata>
<g transform="translate(0.000000,461.000000) scale(0.100000,-0.100000)"
fill="#000000" stroke="none">
<path d="M3764 4320 c-21 -21 -412 -220 -433 -220 -9 0 -32 -10 -51 -21 -19
-12 -64 -33 -100 -46 -36 -13 -83 -32 -105 -42 -22 -10 -58 -24 -80 -31 -69
-22 -180 -67 -278 -114 -53 -26 -99 -46 -102 -46 -3 0 -36 -14 -73 -31 -88
-41 -102 -47 -132 -54 -54 -14 -312 -114 -324 -126 -6 -5 -17 -9 -26 -9 -31 0
-43 -37 -28 -93 7 -29 20 -57 29 -64 9 -7 24 -40 33 -75 10 -35 23 -79 30 -98
8 -19 33 -104 56 -189 23 -85 51 -169 61 -188 10 -18 19 -40 19 -48 0 -8 4
-15 8 -15 7 0 33 -81 57 -180 11 -41 19 -67 25 -75 12 -18 59 -161 76 -231 8
-38 20 -74 26 -81 15 -18 42 -16 61 5 14 16 14 22 -3 72 -10 30 -26 69 -34 85
-9 17 -16 38 -16 48 0 11 -6 31 -14 45 -31 58 -56 119 -62 152 -3 19 -14 56
-25 82 -10 26 -19 57 -19 71 0 13 -13 50 -30 82 -16 32 -30 66 -30 75 0 9 -4
20 -8 26 -5 5 -15 29 -22 54 -8 25 -17 50 -21 55 -4 6 -10 27 -13 48 -3 20 -9
54 -12 75 -3 20 -11 46 -17 57 -16 29 -48 156 -41 166 7 12 51 0 89 -23 17
-10 40 -18 53 -18 27 0 81 -26 102 -49 19 -21 41 -81 34 -93 -3 -5 1 -17 10
-27 9 -10 18 -31 21 -47 2 -16 22 -81 45 -144 22 -63 46 -131 51 -150 6 -19
19 -53 30 -76 10 -22 19 -52 19 -67 0 -15 4 -27 8 -27 11 0 36 -70 28 -78 -3
-3 2 -15 13 -26 10 -12 21 -42 24 -68 7 -47 40 -159 56 -189 5 -8 16 -44 25
-80 9 -35 32 -104 50 -154 19 -49 37 -98 40 -107 3 -10 15 -18 26 -18 11 0 24
-8 27 -17 8 -22 28 -43 40 -43 10 0 135 53 227 95 32 15 83 33 114 41 30 8 76
25 102 38 26 13 72 31 103 40 31 9 77 27 104 40 26 14 62 27 78 31 47 10 143
44 225 80 155 68 196 84 245 96 28 7 97 32 153 56 57 24 110 43 118 43 7 0 42
11 76 24 35 14 84 32 111 40 26 9 66 22 90 30 23 8 58 17 78 20 51 9 79 39 79
84 0 21 -4 42 -9 48 -10 10 -100 275 -124 364 -24 88 -76 269 -97 340 -11 36
-24 83 -29 105 -20 89 -102 375 -126 440 -15 39 -33 91 -41 118 -9 26 -20 47
-25 47 -5 0 -9 13 -9 29 0 31 -26 49 -44 31 -13 -13 -71 -13 -116 0 -38 11
-179 42 -299 65 -41 8 -77 19 -81 25 -9 15 -64 23 -76 10z m216 -117 c41 -8
89 -19 105 -24 17 -4 44 -11 60 -15 29 -6 29 -7 -25 -26 -30 -12 -93 -36 -140
-55 -47 -19 -150 -57 -230 -84 -80 -28 -154 -56 -165 -63 -11 -7 -38 -19 -60
-26 -22 -7 -53 -23 -70 -36 -16 -12 -95 -50 -175 -84 -80 -35 -179 -79 -220
-100 -41 -21 -90 -41 -109 -45 -18 -4 -63 -19 -100 -34 -36 -15 -104 -40 -151
-56 -47 -15 -124 -43 -171 -61 -48 -19 -96 -34 -107 -34 -31 0 -143 30 -167
45 -11 7 -35 16 -52 20 -18 4 -33 10 -33 15 0 4 33 20 73 35 39 15 110 42 157
60 47 18 114 43 150 56 36 13 79 33 97 45 17 12 69 36 115 54 46 18 101 41
123 51 69 30 149 59 165 59 8 0 60 21 115 46 55 25 120 52 145 61 25 8 108 46
186 84 78 37 153 71 167 74 15 4 29 15 32 25 3 11 25 23 58 31 55 15 77 14
227 -18z m337 -113 c3 -10 16 -26 29 -35 13 -8 24 -23 24 -33 0 -10 6 -26 13
-37 7 -11 19 -40 26 -65 7 -25 19 -58 26 -75 8 -16 20 -55 28 -85 25 -95 98
-356 112 -400 3 -8 11 -42 19 -75 8 -33 24 -91 35 -130 12 -38 28 -92 36 -120
7 -27 19 -63 25 -80 7 -16 14 -45 16 -63 2 -18 13 -56 24 -85 28 -74 26 -89
-18 -108 -93 -42 -489 -190 -595 -223 -65 -21 -161 -59 -215 -86 -53 -26 -122
-53 -152 -60 -30 -7 -84 -26 -120 -43 -36 -16 -92 -37 -125 -47 -33 -10 -82
-28 -110 -40 -27 -12 -59 -25 -70 -30 -11 -5 -51 -19 -90 -31 -38 -12 -88 -30
-110 -40 -94 -42 -166 -69 -184 -69 -14 0 -21 9 -26 32 -4 18 -18 48 -30 68
-21 31 -81 195 -88 239 -2 9 -8 25 -14 36 -14 27 -50 141 -58 187 -4 20 -18
58 -31 84 -13 26 -24 53 -24 61 0 7 -4 21 -9 31 -4 9 -16 40 -25 67 -70 202
-98 280 -110 303 -7 15 -19 62 -26 105 -7 42 -17 77 -21 77 -5 0 -9 15 -9 33
0 30 5 35 58 61 31 16 104 44 162 63 58 19 137 47 175 63 39 15 89 33 111 39
23 6 100 40 170 75 71 34 147 69 169 76 22 7 58 23 81 36 23 13 61 31 85 40
24 10 55 25 69 34 25 18 109 49 255 97 44 14 105 36 135 48 96 40 164 65 200
72 19 3 59 16 90 29 69 28 81 29 87 4z"/>
<path d="M2532 2123 c-11 -10 -24 -37 -30 -61 -14 -59 5 -65 57 -15 42 39 53
76 25 87 -24 9 -30 8 -52 -11z"/>
<path d="M2653 2063 c-7 -2 -13 -20 -13 -39 0 -31 3 -34 28 -34 36 0 52 16 52
52 0 24 -4 28 -27 27 -16 0 -34 -3 -40 -6z"/>
<path d="M2783 2003 c-32 -12 -2 -83 35 -83 24 0 36 27 26 64 -6 25 -29 33
-61 19z"/>
<path d="M2542 1931 c-8 -4 -12 -19 -10 -32 4 -33 46 -37 77 -8 23 21 23 23 5
36 -20 15 -53 17 -72 4z"/>
<path d="M2333 1909 c-13 -13 -6 -39 15 -56 11 -10 21 -9 43 3 31 16 36 33 17
52 -15 15 -60 16 -75 1z"/>
<path d="M2713 1838 c-16 -22 -15 -74 1 -87 20 -16 46 -7 46 15 0 10 7 26 16
36 14 14 14 20 4 33 -15 18 -54 20 -67 3z"/>
<path d="M2405 1736 c-20 -30 -10 -53 27 -61 16 -4 30 -5 31 -3 1 1 12 15 25
29 32 36 21 59 -29 59 -29 0 -42 -6 -54 -24z"/>
<path d="M2192 1687 c-6 -7 -9 -23 -6 -35 11 -40 60 -38 94 4 12 14 12 18 -5
30 -24 18 -69 18 -83 1z"/>
<path d="M2367 1572 c-35 -36 -34 -52 2 -52 32 0 61 30 61 62 0 27 -33 22 -63
-10z"/>
<path d="M2618 1588 c-10 -8 -18 -32 -20 -63 -3 -45 -1 -50 18 -53 18 -3 25 6
39 42 10 25 24 51 31 57 8 6 11 15 8 20 -8 13 -58 11 -76 -3z"/>
<path d="M2085 1501 c-3 -5 -7 -28 -9 -50 -4 -37 -2 -41 18 -41 22 0 66 47 66
70 0 6 -12 15 -26 20 -32 12 -41 12 -49 1z"/>
<path d="M2325 1460 c-38 -25 -44 -45 -29 -89 14 -43 41 -53 48 -19 3 13 7 35
10 51 3 15 9 38 12 52 8 30 -1 31 -41 5z"/>
<path d="M2545 1408 c-24 -22 -25 -24 -10 -52 11 -21 13 -37 6 -61 -5 -18 -8
-51 -7 -73 2 -36 -1 -41 -31 -53 -38 -15 -41 -30 -13 -84 18 -34 18 -41 5 -55
-24 -27 -19 -69 10 -82 30 -13 36 -8 53 44 9 26 10 43 3 57 -15 27 -16 73 -3
97 6 12 9 24 6 27 -3 2 2 32 10 65 9 33 17 72 19 88 2 16 11 41 21 56 10 15
15 32 11 38 -11 17 -53 11 -80 -12z"/>
<path d="M2018 1313 c-22 -6 -29 -26 -18 -61 8 -31 -2 -52 -26 -52 -13 0 -24
-31 -24 -67 0 -29 35 -49 54 -31 22 23 36 56 42 100 4 23 17 57 30 74 13 17
21 34 17 37 -7 8 -48 7 -75 0z"/>
<path d="M2265 1264 c-14 -15 -25 -34 -25 -43 0 -10 -5 -22 -10 -27 -7 -7 -4
-16 9 -28 25 -22 55 -14 47 12 -4 11 4 34 19 56 14 20 25 41 25 46 0 20 -42 9
-65 -16z"/>
<path d="M2208 1088 c-38 -52 -39 -54 -17 -82 23 -29 45 -32 74 -10 16 12 18
18 7 34 -6 11 -12 36 -12 55 0 45 -20 46 -52 3z"/>
<path d="M1684 978 c-18 -29 -14 -48 12 -54 29 -8 46 9 42 41 -3 23 -42 33
-54 13z"/>
<path d="M1528 859 c-21 -11 -38 -24 -38 -29 0 -5 -10 -12 -22 -16 -49 -14
-74 -56 -42 -68 22 -9 52 10 108 66 55 55 52 77 -6 47z"/>
<path d="M2674 834 c-10 -41 7 -78 37 -82 33 -4 41 19 24 68 -15 46 -51 54
-61 14z"/>
<path d="M2788 733 c-21 -5 -24 -43 -6 -61 7 -7 8 -12 3 -12 -4 0 0 -9 10 -20
10 -11 22 -20 27 -20 11 0 32 51 29 70 -3 17 -31 51 -40 49 -3 -1 -14 -3 -23
-6z"/>
<path d="M4150 687 c-5 -5 -607 -18 -998 -22 -251 -2 -271 -5 -257 -43 3 -7
-6 -17 -20 -22 -21 -8 -25 -16 -25 -48 0 -38 14 -62 36 -62 13 0 47 77 39 90
-3 4 32 11 77 15 93 7 1160 23 1308 19 52 -2 252 -5 443 -8 192 -3 356 -10
364 -15 9 -4 24 -6 34 -4 23 6 46 70 31 85 -7 7 -73 10 -179 8 -270 -4 -394
-3 -628 4 -121 4 -222 6 -225 3z"/>
<path d="M1343 633 c-4 -10 -12 -22 -20 -26 -16 -10 -17 -39 -1 -55 16 -16 35
-15 35 1 0 6 3 31 7 55 5 29 4 42 -3 42 -7 0 -15 -8 -18 -17z"/>
<path d="M1030 585 c-100 -13 -406 -13 -606 0 -126 9 -159 4 -167 -25 -9 -35
24 -48 95 -38 35 5 88 7 118 3 30 -3 189 -6 355 -7 165 0 308 -4 317 -9 13 -7
23 -2 42 17 23 25 23 29 9 51 -17 26 -25 27 -163 8z"/>
<path d="M1200 491 c-12 -23 10 -51 40 -51 20 0 54 45 45 60 -11 18 -74 11
-85 -9z"/>
<path d="M2896 474 c-10 -25 -7 -82 5 -89 5 -4 21 -4 33 -1 27 7 42 56 26 87
-13 23 -55 25 -64 3z"/>
<path d="M1160 401 c-13 -26 -13 -54 2 -69 22 -22 44 -13 57 25 12 33 12 38
-5 50 -25 18 -42 16 -54 -6z"/>
<path d="M2913 348 c-13 -29 3 -68 27 -68 15 0 60 39 60 52 0 4 -7 14 -16 22
-23 23 -59 20 -71 -6z"/>
<path d="M1254 262 c-30 -47 39 -94 78 -53 l20 22 -23 25 c-26 28 -60 31 -75
6z"/>
<path d="M2876 255 c-8 -8 -18 -15 -23 -15 -4 0 -20 -6 -34 -14 -14 -7 -43
-16 -63 -20 -20 -4 -39 -13 -42 -20 -4 -11 -12 -11 -35 -3 -22 9 -36 8 -61 -2
-18 -8 -57 -16 -86 -18 -45 -4 -53 -8 -58 -28 -9 -36 4 -48 40 -40 17 4 48 6
68 6 20 0 40 4 43 9 3 6 17 10 29 10 13 0 29 7 36 15 9 11 16 12 31 2 15 -9
23 -9 38 0 10 6 34 15 54 18 47 9 121 47 125 64 9 44 -31 67 -62 36z"/>
<path d="M1488 188 c-3 -7 -2 -23 3 -35 6 -17 16 -23 39 -23 29 0 31 2 28 33
-3 28 -7 32 -34 35 -19 2 -33 -2 -36 -10z"/>
<path d="M1687 153 c-12 -12 -7 -50 8 -63 16 -13 51 -6 58 13 9 24 -12 57 -36
57 -13 0 -27 -3 -30 -7z"/>
<path d="M2325 136 c-19 -18 -25 -31 -20 -45 6 -21 35 -30 35 -11 0 6 7 10 15
10 19 0 55 36 55 55 0 24 -55 18 -85 -9z"/>
<path d="M2104 127 c-20 -18 -25 -29 -20 -45 8 -22 22 -25 66 -13 39 11 34 81
-6 81 -7 0 -25 -10 -40 -23z"/>
<path d="M1929 126 c-27 -13 -37 -50 -19 -71 10 -12 18 -12 50 5 26 14 38 26
37 39 -2 28 -38 42 -68 27z"/>
</g>
</svg>
