<?xml version="1.0" standalone="no"?>
<!DOCTYPE svg PUBLIC "-//W3C//DTD SVG 20010904//EN"
 "http://www.w3.org/TR/2001/REC-SVG-20010904/DTD/svg10.dtd">
<svg version="1.0" xmlns="http://www.w3.org/2000/svg"
 width="517.000000pt" height="469.000000pt" viewBox="0 0 517.000000 469.000000"
 preserveAspectRatio="xMidYMid meet">
<metadata>
Created by potrace 1.16, written by Peter Selinger 2001-2019
</metadata>
<g transform="translate(0.000000,469.000000) scale(0.100000,-0.100000)"
fill="#000000" stroke="none">
<path d="M1839 4548 c-51 -47 -53 -54 -26 -84 14 -15 31 -38 39 -53 15 -29
198 -210 230 -227 12 -6 41 -36 66 -65 24 -30 50 -56 57 -59 20 -8 109 -86
213 -187 52 -51 99 -93 104 -93 4 0 8 -8 8 -17 0 -9 2 -14 5 -11 3 2 35 -24
73 -59 37 -34 70 -63 75 -63 4 0 7 -3 7 -8 0 -7 -44 -31 -120 -66 -19 -8 -71
-36 -115 -61 -44 -26 -98 -55 -120 -66 -22 -11 -53 -29 -70 -39 -16 -11 -41
-26 -55 -33 -14 -6 -33 -19 -42 -27 -16 -16 -16 -16 26 -110 13 -29 37 -54 57
-58 7 -2 17 -9 21 -15 8 -13 12 -14 59 -16 25 -1 33 -7 45 -37 8 -20 13 -41
11 -48 -3 -6 -25 -19 -50 -29 l-45 -18 -47 47 c-45 46 -83 124 -70 144 3 6 1
10 -5 10 -6 0 -16 14 -21 30 -6 17 -17 30 -23 30 -7 0 -17 24 -23 58 -10 51
-9 62 10 102 17 34 28 45 48 47 21 1 27 -4 35 -30 9 -33 29 -43 53 -28 13 8
13 16 0 58 -13 44 -19 49 -59 62 -52 17 -81 5 -117 -47 -26 -39 -41 -149 -24
-180 6 -11 11 -31 11 -45 0 -13 12 -34 26 -48 28 -26 56 -73 49 -81 -3 -3 0
-20 7 -39 13 -39 125 -159 149 -159 9 0 41 9 72 19 l56 20 0 -87 c-1 -125 1
-123 -67 -116 -31 4 -68 13 -81 21 -21 13 -25 13 -39 -1 -14 -14 -14 -26 -3
-108 24 -175 24 -188 10 -188 -8 0 -40 18 -71 39 -50 34 -63 38 -97 34 -48 -7
-55 9 -46 95 14 130 14 129 41 124 14 -2 36 1 49 8 13 7 30 10 38 7 8 -3 23 0
33 7 16 12 16 17 -1 87 -11 44 -29 84 -42 98 -13 13 -23 27 -23 31 0 3 -11 13
-25 20 -14 8 -28 24 -32 38 -3 13 -19 38 -35 55 -64 68 -75 90 -82 156 -5 51
-3 66 10 75 19 15 4 62 -23 69 -51 14 -89 -6 -114 -61 -12 -26 -25 -54 -29
-63 -9 -18 -5 -74 11 -163 9 -50 58 -159 79 -176 4 -3 19 -29 35 -57 15 -29
32 -53 37 -53 4 0 8 -6 8 -14 0 -8 5 -16 11 -18 6 -2 9 -23 7 -48 l-3 -45 -24
45 c-12 24 -34 57 -47 73 -13 16 -24 34 -24 41 0 7 -11 26 -25 42 -14 16 -25
32 -25 37 0 4 -12 31 -26 60 -14 28 -31 84 -39 122 -28 143 -62 189 -134 178
-31 -5 -89 -33 -68 -33 4 0 1 -13 -8 -29 -16 -32 -11 -86 11 -111 7 -8 15 -26
17 -40 3 -14 12 -38 21 -55 9 -16 16 -42 16 -57 0 -15 5 -30 10 -33 17 -11 12
-57 -6 -53 -16 3 -32 27 -59 88 -8 19 -22 46 -29 60 -8 14 -25 46 -37 72 -22
44 -60 71 -67 48 -2 -6 -11 -10 -20 -10 -23 -1 -56 -30 -76 -68 -20 -39 -20
-62 -1 -98 8 -16 15 -37 15 -47 0 -23 37 -105 61 -136 11 -13 19 -37 19 -52 0
-16 9 -46 20 -66 11 -21 20 -45 20 -55 0 -9 10 -28 23 -41 12 -14 35 -39 50
-57 24 -27 33 -30 60 -24 42 9 63 23 78 52 17 31 15 89 -5 111 -9 10 -17 31
-18 47 -1 16 -5 31 -9 34 -4 3 -10 34 -14 69 -9 76 7 77 25 2 6 -28 18 -55 26
-62 8 -6 12 -20 9 -30 -4 -11 0 -19 12 -23 10 -3 27 -21 39 -39 16 -25 32 -35
69 -43 45 -10 57 -9 133 12 24 7 26 4 30 -46 l3 -51 -28 17 c-15 10 -38 26
-49 37 -12 10 -25 14 -28 9 -3 -5 -18 -7 -33 -4 -16 2 -25 1 -21 -3 4 -4 3
-18 -3 -31 -5 -16 -5 -50 1 -92 17 -105 17 -112 14 -112 -2 0 -25 5 -52 10
-38 9 -58 21 -94 59 -49 52 -72 63 -106 50 -28 -11 -31 -59 -4 -66 14 -3 17
-12 14 -37 -2 -19 3 -47 12 -65 9 -17 20 -61 23 -97 6 -60 5 -64 -13 -57 -10
3 -22 11 -25 16 -4 5 -17 10 -30 11 -18 1 -31 15 -55 62 -45 88 -51 121 -25
143 15 13 21 30 21 60 0 22 -4 41 -8 41 -5 0 -15 19 -22 42 -7 25 -27 56 -46
73 -20 18 -56 74 -89 142 -51 104 -55 117 -49 161 5 37 3 51 -10 61 -14 12
-19 10 -37 -10 -30 -34 -22 -110 17 -175 17 -27 36 -65 44 -84 8 -19 22 -43
31 -53 9 -10 27 -38 39 -62 13 -25 28 -45 35 -45 14 0 35 -42 35 -70 0 -16 -4
-17 -31 -10 -17 5 -34 9 -38 8 -37 -4 -53 5 -68 40 -8 20 -23 48 -33 62 -10
14 -21 41 -25 60 -4 19 -11 40 -16 45 -19 25 -39 172 -27 204 10 29 2 75 -17
91 -10 8 -18 4 -34 -16 -20 -25 -21 -37 -17 -122 3 -51 9 -99 14 -105 25 -32
17 -87 -13 -87 -3 0 -63 -37 -133 -83 -70 -46 -152 -96 -182 -111 -30 -16 -62
-32 -70 -37 -8 -5 -23 -12 -32 -15 -10 -4 -18 -11 -18 -17 0 -6 -3 -7 -7 -4
-3 4 -31 -7 -61 -24 l-55 -31 -26 21 c-79 63 -175 80 -232 41 -97 -66 -119
-104 -126 -212 -5 -65 -3 -85 13 -116 20 -39 91 -112 110 -112 6 0 17 -6 23
-14 27 -33 181 -61 196 -36 3 6 15 10 25 10 10 0 25 6 32 12 8 7 23 18 33 24
39 22 73 85 73 137 1 54 14 70 95 112 26 14 47 30 47 35 0 6 12 16 28 23 15 6
29 14 32 17 6 6 43 27 100 56 25 13 65 42 90 64 25 22 50 40 56 40 7 0 15 7
18 16 3 8 10 13 15 9 12 -7 51 33 51 52 0 22 18 14 24 -11 8 -32 54 -86 72
-86 13 0 14 -17 11 -100 -2 -55 -2 -102 1 -105 3 -3 7 -63 8 -133 1 -70 5
-235 9 -367 12 -419 16 -678 18 -1122 1 -237 4 -433 7 -435 33 -22 46 -24 84
-10 40 14 102 24 141 23 11 -1 54 6 95 14 65 13 198 21 280 16 14 0 140 0 280
1 464 4 969 -2 1017 -12 27 -5 66 -12 88 -14 22 -3 72 -10 110 -17 71 -12 225
-15 345 -7 36 3 94 1 130 -4 129 -19 128 -19 144 14 10 20 12 37 6 52 -13 36
-31 240 -30 345 2 138 -10 387 -21 448 -6 28 -12 96 -14 150 -2 54 -6 121 -10
148 -3 28 -8 104 -10 170 -3 66 -7 156 -9 200 -3 44 -7 166 -11 270 -3 105 -7
237 -10 295 -3 88 -1 110 14 135 12 21 15 39 10 57 -8 29 -3 38 19 38 8 0 30
7 49 17 28 13 36 14 43 3 4 -7 6 -20 3 -28 -7 -16 31 -53 101 -97 25 -16 48
-37 52 -47 3 -10 11 -18 18 -18 7 0 23 -11 36 -25 13 -14 28 -25 33 -25 14 0
185 -143 191 -160 3 -8 8 -39 11 -67 10 -99 40 -143 104 -150 110 -12 147 -7
195 25 26 18 51 32 57 32 5 0 9 4 9 9 0 4 12 21 26 37 15 16 35 39 46 50 11
12 20 28 22 35 1 8 5 19 9 26 4 6 3 14 -3 18 -5 3 -10 20 -10 36 0 34 -20 68
-73 124 l-38 40 -102 1 c-97 0 -104 2 -131 28 -17 15 -44 33 -61 41 -16 8 -41
25 -55 38 -14 12 -37 28 -52 34 -16 7 -28 17 -28 23 0 5 -6 10 -12 10 -7 0
-25 10 -40 23 -58 48 -92 72 -111 80 -11 4 -35 15 -54 24 l-34 16 31 32 c51
53 66 144 30 185 -11 13 -20 26 -20 30 0 14 -88 32 -119 25 -21 -4 -31 -3 -31
5 0 14 -41 3 -52 -14 -4 -6 -8 -26 -8 -44 0 -47 -27 -135 -48 -158 -10 -10
-38 -35 -61 -54 -72 -58 -96 -82 -93 -92 1 -5 -7 -12 -18 -15 -18 -5 -20 -11
-14 -37 3 -17 11 -37 16 -43 7 -9 7 -13 -1 -13 -7 0 -24 -9 -39 -19 -15 -10
-46 -22 -68 -25 -49 -7 -54 1 -54 102 0 56 2 63 24 73 31 15 41 50 19 67 -14
10 -3 12 63 14 95 1 96 1 111 11 17 11 83 130 83 150 0 8 6 22 13 29 41 40 57
119 35 173 -6 17 -27 46 -45 65 -18 19 -33 37 -33 41 0 4 -9 9 -20 12 -11 3
-20 1 -20 -4 0 -5 -21 -8 -47 -6 -38 3 -47 7 -45 20 2 9 -2 17 -8 17 -5 0 -10
8 -10 18 0 10 -13 29 -30 44 -17 14 -30 24 -30 21 0 -3 -15 6 -32 19 -77 57
-93 45 -94 -72 -2 -122 -30 -172 -144 -255 -36 -26 -73 -60 -83 -76 -11 -16
-23 -29 -28 -29 -6 0 -6 -8 0 -19 6 -10 7 -21 4 -25 -3 -3 -2 -6 4 -6 6 0 13
-8 16 -18 6 -27 113 -36 187 -16 30 9 60 16 65 17 6 2 16 7 24 11 8 5 1 -7
-15 -27 -16 -20 -33 -37 -39 -37 -16 0 -16 -62 0 -80 13 -15 13 -18 -7 -28
-13 -7 -56 -23 -95 -36 l-73 -25 0 80 c0 83 -9 106 -43 106 -25 0 -32 -41 -14
-79 14 -30 17 -102 4 -114 -3 -4 -28 -11 -54 -16 -26 -6 -65 -13 -85 -18 -29
-5 -38 -4 -39 6 -1 8 -3 19 -4 24 -1 6 -3 43 -4 83 -2 85 -9 102 -43 94 -24
-6 -25 -8 -16 -69 4 -35 11 -70 14 -78 10 -25 13 -70 6 -71 -4 0 -41 -2 -82
-4 -41 -3 -88 -6 -105 -7 l-30 -3 -3 60 c-1 33 1 80 6 105 l8 45 40 -3 c23 -2
65 6 95 17 30 11 79 19 112 19 74 0 157 20 164 39 3 9 -5 25 -20 39 -29 26
-38 30 -35 13 3 -11 -49 -35 -57 -28 -2 2 -5 31 -6 64 l-3 60 50 6 c163 22
208 70 224 235 5 49 14 121 21 160 11 65 11 73 -7 98 -15 21 -25 25 -49 21
-28 -5 -98 -46 -90 -53 2 -2 -8 -25 -21 -52 -13 -26 -24 -65 -24 -85 0 -32 -7
-45 -42 -77 -63 -58 -115 -77 -192 -73 -47 2 -68 0 -77 -11 -6 -7 -15 -11 -21
-8 -5 3 -15 0 -23 -6 -8 -6 -19 -9 -25 -5 -5 3 -10 2 -10 -4 0 -20 -53 -39
-85 -29 -16 4 -41 6 -54 2 -55 -12 -131 -14 -152 -4 -12 7 -37 12 -55 12 -19
0 -40 6 -47 12 -27 27 -76 5 -77 -34 0 -21 51 -50 86 -50 57 0 91 -21 113 -69
20 -44 31 -124 20 -136 -4 -3 -17 -2 -30 3 -13 5 -39 5 -59 1 -19 -4 -61 -5
-92 -2 -56 6 -58 7 -52 32 3 14 6 51 6 81 0 34 6 62 15 72 14 15 12 19 -12 42
-15 14 -24 29 -21 34 8 13 -25 116 -40 125 -11 6 -8 14 15 33 16 13 32 24 36
24 8 0 79 53 83 63 2 4 8 7 13 7 5 0 46 28 92 63 45 34 104 75 131 90 l48 27
50 -48 c27 -26 68 -67 91 -91 23 -24 67 -63 98 -86 49 -38 60 -43 95 -38 54 6
111 34 122 59 8 16 3 36 -21 87 -18 37 -38 67 -45 67 -7 0 -16 8 -19 18 -8 21
-31 42 -110 99 -35 25 -63 51 -63 58 0 12 60 55 128 92 37 20 143 84 199 120
29 18 55 33 58 33 3 0 15 9 27 20 12 11 28 20 35 20 7 0 13 4 13 9 0 5 8 11
18 15 20 6 50 25 70 44 7 6 20 12 28 12 8 0 14 4 14 9 0 7 100 80 125 90 5 2
15 9 21 15 6 6 20 17 30 23 11 7 35 24 54 37 19 14 48 32 63 41 24 14 61 49
92 88 16 20 15 41 -3 64 -21 28 -62 30 -191 8 -37 -6 -91 -46 -91 -67 0 -6 -9
-8 -21 -5 -15 4 -32 -5 -62 -34 -68 -65 -140 -119 -167 -126 -40 -10 -148 -71
-250 -141 -52 -37 -97 -69 -100 -73 -3 -3 -30 -17 -60 -30 -64 -27 -146 -73
-167 -94 -22 -23 -36 -18 -74 21 -18 20 -53 49 -76 64 -35 23 -188 156 -257
226 -12 11 -43 38 -71 60 -27 21 -54 45 -59 53 -5 8 -25 28 -44 45 -20 17 -72
67 -116 112 -90 90 -200 184 -215 184 -6 0 -17 14 -26 30 -13 25 -21 30 -54
30 -25 0 -46 -7 -62 -22z m1627 -1230 c-16 -78 -27 -157 -24 -183 5 -60 -22
-125 -51 -125 -6 0 -11 -4 -11 -9 0 -4 -11 -6 -24 -4 -13 3 -27 0 -30 -6 -10
-16 -88 -13 -112 4 -12 8 -24 11 -28 8 -3 -3 -6 -1 -6 5 0 11 5 13 25 12 3 -1
12 6 21 14 8 8 41 31 73 51 49 30 61 44 80 91 13 30 21 61 18 68 -3 8 5 27 19
43 13 15 24 34 24 41 0 6 7 12 15 12 11 0 14 -7 11 -22z m-1566 -54 c2 -68 5
-80 27 -104 13 -14 23 -28 23 -32 0 -5 5 -8 11 -8 16 0 39 -26 39 -44 0 -9 3
-16 8 -16 4 0 13 -13 20 -30 7 -16 21 -32 32 -35 23 -7 73 -82 67 -100 -3 -7
0 -18 6 -24 8 -8 6 -11 -9 -11 -11 0 -25 -5 -31 -11 -36 -36 -122 43 -188 174
-66 132 -86 247 -49 288 17 18 18 18 30 1 7 -10 13 -32 14 -48z m-223 -2 c6
-4 11 -22 11 -41 -1 -18 4 -36 11 -41 7 -4 11 -9 9 -11 -4 -5 20 -83 37 -124
7 -16 21 -50 31 -74 10 -24 31 -59 46 -79 15 -19 28 -43 28 -53 0 -11 6 -19
13 -19 7 0 23 -19 35 -42 l21 -43 -27 -8 c-15 -4 -44 -6 -65 -5 -30 2 -42 8
-55 30 -9 15 -21 28 -26 28 -5 0 -6 3 -3 7 4 3 -2 20 -12 37 -10 17 -21 45
-25 61 -13 63 -49 191 -61 220 -7 17 -20 47 -29 69 -28 65 10 120 61 88z
m2059 -139 c4 -15 0 -45 -10 -72 -9 -25 -16 -55 -16 -67 0 -27 -39 -103 -67
-131 -14 -14 -37 -23 -63 -25 -22 -2 -40 -6 -40 -10 0 -5 -25 -8 -55 -8 -66 0
-65 12 3 61 26 18 53 39 60 46 7 7 21 18 31 25 9 7 34 43 54 80 29 52 37 77
37 118 l0 51 30 -21 c16 -12 33 -33 36 -47z m-2272 -25 c9 -17 16 -36 16 -43
0 -7 13 -30 30 -53 16 -22 32 -54 36 -69 3 -15 12 -37 19 -48 7 -11 15 -43 19
-70 12 -85 13 -89 30 -129 21 -49 20 -53 -5 -67 -18 -9 -26 -6 -55 22 -19 18
-34 41 -34 51 0 10 -7 30 -16 43 -9 14 -20 44 -26 67 -5 24 -20 59 -34 79 -21
31 -64 154 -64 185 0 14 46 64 59 64 5 0 17 -14 25 -32z m2353 -20 c-3 -7 -5
-2 -5 12 0 14 2 19 5 13 2 -7 2 -19 0 -25z m-2 -35 c-1 -10 -10 -46 -19 -80
-9 -34 -16 -66 -15 -70 4 -21 -4 -33 -37 -58 -19 -15 -37 -25 -40 -23 -2 3 11
36 30 74 19 38 37 85 40 105 3 20 8 43 12 52 8 23 34 22 29 0z m85 10 c0 -5
13 -17 29 -28 17 -10 34 -30 40 -42 14 -30 3 -83 -17 -83 -8 0 -12 -3 -9 -7 4
-3 1 -16 -7 -27 -7 -12 -16 -35 -20 -51 -4 -17 -17 -42 -29 -57 -19 -23 -32
-27 -99 -32 -63 -4 -76 -3 -72 8 3 8 20 20 37 27 18 7 37 18 42 24 15 14 46
83 50 109 2 11 10 39 19 61 8 22 15 55 16 73 0 17 5 32 10 32 6 0 10 -3 10 -7z
m-799 -95 c3 -5 8 -9 10 -8 2 1 16 -3 31 -9 27 -10 32 -23 43 -114 3 -26 0
-37 -8 -35 -7 1 -38 -8 -70 -20 -32 -12 -61 -22 -65 -22 -9 0 -14 41 -15 138
-1 54 2 75 13 82 16 10 51 3 61 -12z m-120 -119 c2 -35 7 -69 11 -75 10 -13
-74 -27 -175 -28 -67 -1 -64 -6 -71 121 l-5 91 57 6 c31 3 77 5 101 5 24 1 47
3 50 7 10 10 29 -64 32 -127z m1216 -8 c62 -3 70 -72 16 -130 -21 -22 -43 -46
-49 -53 -44 -50 -95 -86 -135 -92 -24 -4 -48 -11 -55 -17 -12 -10 -54 -21 -54
-14 0 11 59 63 77 69 27 9 86 100 107 167 9 30 19 59 21 65 2 6 14 10 27 8 12
-1 33 -3 45 -3z m-1702 -136 c17 -2 40 -4 51 -4 24 -1 29 -19 40 -127 6 -59
23 -92 43 -80 7 5 9 42 5 108 l-5 100 28 -8 c15 -4 67 -8 115 -8 47 -1 89 -4
92 -7 4 -3 11 -44 16 -90 6 -46 13 -90 15 -98 4 -10 -1 -11 -22 -5 -16 5 -57
7 -93 4 -61 -4 -104 -4 -242 0 -32 1 -60 6 -64 11 -3 5 -16 6 -29 3 -13 -3
-31 -2 -41 4 -11 6 -31 5 -60 -4 -24 -7 -45 -10 -48 -6 -2 4 -4 32 -4 62 0 30
-3 68 -7 85 -3 16 -4 39 -1 51 6 21 10 22 93 18 49 -3 102 -7 118 -9z m-559
-176 c27 -13 71 -22 102 -23 54 -1 55 -2 57 -31 1 -16 5 -46 9 -65 14 -71 13
-73 -24 -82 -47 -11 -149 -1 -177 18 -21 13 -23 22 -23 109 0 52 2 95 4 95 2
0 25 -10 52 -21z m1668 7 c-3 -8 1 -27 9 -43 17 -33 24 -83 14 -100 -7 -12
-110 -49 -160 -57 -46 -8 -58 1 -52 43 3 20 7 51 9 70 3 33 6 35 73 56 39 13
79 28 89 34 24 14 24 14 18 -3z m-240 -137 c4 -39 6 -73 4 -75 -2 -1 -19 -3
-38 -3 -19 1 -54 1 -77 1 -23 0 -67 -8 -98 -17 -30 -10 -58 -15 -61 -12 -9 9
-16 89 -9 114 4 16 12 22 28 22 26 -2 219 30 226 36 13 14 19 -2 25 -66z
m-1070 40 c34 0 76 -2 94 -5 32 -6 32 -7 32 -65 0 -57 -1 -59 -27 -60 -16 -1
-32 0 -38 1 -5 1 -35 2 -65 2 -30 -1 -71 4 -92 10 -32 9 -37 15 -40 47 -1 20
-2 47 0 59 3 22 7 23 40 17 19 -4 63 -6 96 -6z m354 -24 c65 0 82 -3 82 -15 0
-33 32 -96 50 -97 23 -2 29 22 20 81 l-7 47 26 -7 c27 -7 145 -7 171 1 12 4
19 -11 31 -70 16 -75 16 -75 -5 -75 -12 0 -27 4 -34 9 -8 5 -29 3 -51 -5 -38
-13 -53 -13 -304 -11 -161 2 -170 7 -157 80 5 23 9 43 9 45 1 1 1 9 1 17 0 11
8 13 43 7 23 -4 79 -7 125 -7z m-900 -56 c49 -10 76 -23 115 -55 16 -13 39
-27 52 -30 19 -5 26 -16 35 -56 6 -28 9 -53 7 -55 -6 -6 -179 -7 -225 -1 -23
3 -46 8 -50 12 -4 4 -7 52 -7 107 0 84 2 98 15 93 8 -4 34 -10 58 -15z m2122
1 c0 -11 -6 -20 -12 -20 -7 0 -26 -13 -41 -29 -26 -27 -56 -38 -117 -46 -14
-2 -37 -6 -51 -10 -20 -5 -27 -3 -31 12 -3 10 -9 26 -13 36 -6 14 -1 17 30 17
34 0 92 14 180 45 53 18 55 18 55 -5z m-327 -92 c-3 -18 -9 -40 -14 -48 -8
-18 -121 -50 -173 -50 -35 0 -47 12 -25 26 6 3 8 16 5 29 -7 28 7 35 84 42 30
3 71 12 90 19 19 7 36 13 37 13 1 1 0 -14 -4 -31z m-1321 -14 c34 -6 37 -10
51 -58 8 -28 14 -51 13 -51 0 -1 -63 1 -138 3 l-138 4 0 54 c0 47 3 54 23 59
45 10 73 10 112 3 22 -5 56 -11 77 -14z m1028 -8 c0 -14 4 -35 9 -48 10 -26
19 -25 -199 -31 l-85 -2 -3 28 c-3 25 -1 27 36 27 22 0 68 9 103 19 125 38
139 39 139 7z m634 -123 c5 -105 4 -133 -6 -134 -7 0 -31 -1 -53 -2 l-40 -2
-3 68 c-2 55 0 67 13 67 8 0 16 7 16 15 1 8 2 23 3 32 1 10 -9 20 -24 24 l-25
6 30 14 c17 7 41 21 54 31 13 10 25 17 26 16 2 -2 6 -63 9 -135z m-1461 109
c17 -15 82 -25 157 -26 64 -1 65 -2 68 -29 3 -26 1 -28 -26 -24 -16 3 -74 -3
-128 -13 -55 -9 -112 -17 -129 -16 -29 1 -30 3 -33 55 -2 36 1 57 10 63 15 10
64 4 81 -10z m477 -16 c0 -2 7 -20 15 -40 l15 -36 -117 6 c-65 4 -119 8 -121
9 -2 2 0 14 3 28 6 23 11 26 45 23 20 -1 57 0 81 4 55 9 79 11 79 6z m807 -40
c-3 -6 1 -25 9 -43 7 -17 14 -58 15 -90 l3 -58 -45 -7 c-76 -13 -143 -31 -161
-42 -9 -5 -19 -8 -22 -5 -2 2 -6 49 -8 104 l-3 99 35 8 c19 5 46 11 59 13 13
2 27 7 30 12 19 27 97 35 88 9z m-2212 -13 c35 -17 35 -17 36 -87 2 -102 6
-137 18 -169 6 -16 11 -30 11 -31 0 -7 -91 -28 -96 -23 -6 5 -12 327 -7 327 1
0 18 -8 38 -17z m123 -42 c27 -15 55 -24 81 -27 30 -4 28 0 35 -64 3 -30 9
-72 12 -92 5 -33 3 -38 -19 -43 -14 -4 -34 -2 -45 4 -15 8 -29 8 -48 1 -15 -6
-31 -7 -35 -3 -12 13 -16 233 -4 233 3 0 13 -4 23 -9z m1653 -20 c4 -1 9 -10
12 -21 6 -25 27 -26 34 -1 3 13 17 20 50 25 26 3 48 5 50 3 8 -8 44 -169 39
-174 -13 -13 -100 -26 -210 -30 l-119 -5 7 84 c4 45 8 93 9 105 2 20 6 21 62
18 33 -2 63 -4 66 -4z m-2679 -23 c-7 -7 -12 -8 -12 -2 0 14 12 26 19 19 2 -3
-1 -11 -7 -17z m1390 -6 c16 -13 18 -13 24 2 5 12 19 16 59 16 l53 0 12 -67
c6 -38 18 -84 25 -104 l14 -36 -51 -6 c-76 -9 -219 -2 -253 13 -16 7 -40 12
-53 11 -22 -2 -22 -1 -18 84 3 48 7 90 10 92 8 8 119 19 141 14 11 -2 28 -11
37 -19z m308 -8 c14 -4 51 -8 83 -8 l57 -1 2 -52 c1 -29 2 -63 2 -75 1 -18 -7
-23 -57 -33 -32 -6 -86 -13 -120 -14 -59 -2 -62 -1 -63 21 0 13 -4 56 -7 96
-4 41 -5 77 -2 82 4 7 52 0 105 -16z m330 12 c19 -3 49 -2 66 3 17 5 36 6 40
2 18 -12 35 -66 41 -127 6 -60 5 -63 -19 -69 -13 -3 -63 -4 -112 -1 -66 4 -93
9 -108 23 -11 10 -22 17 -24 16 -24 -15 -28 74 -6 128 16 39 22 40 122 25z
m458 -28 c2 -24 5 -63 7 -88 3 -25 1 -50 -3 -57 -4 -7 -40 -17 -79 -23 -61
-10 -81 -9 -133 6 l-61 17 5 36 c8 49 9 92 2 119 -5 21 -2 22 27 17 18 -3 50
-2 72 3 22 6 67 10 101 11 l60 1 2 -42z m822 -188 c4 -89 0 -131 -10 -125 -7
4 -10 45 -9 102 1 95 15 111 19 23z m-118 47 c25 0 27 -3 33 -56 3 -31 10 -73
15 -94 10 -48 9 -48 -112 -50 l-93 -2 2 55 c0 30 4 70 8 89 6 24 4 36 -6 42
-10 6 -3 9 21 10 19 0 44 4 55 9 11 5 27 6 35 2 8 -3 27 -5 42 -5z m-227 -69
c3 -18 9 -55 14 -83 5 -27 8 -52 6 -54 -2 -2 -18 -5 -35 -7 -18 -2 -36 -7 -42
-10 -16 -10 -140 -29 -165 -26 -17 3 -22 11 -25 50 -6 71 11 132 36 133 12 0
30 3 41 6 11 4 44 7 72 8 29 0 56 4 59 8 16 16 33 5 39 -25z m-994 -6 c41 -18
47 -25 62 -72 18 -54 22 -110 10 -110 -123 -4 -209 -9 -252 -15 l-53 -8 5 102
c3 57 7 104 9 106 7 7 125 23 148 20 14 -2 46 -12 71 -23z m-931 -66 c0 -46 3
-91 6 -100 5 -14 -5 -16 -79 -16 -97 0 -97 0 -97 84 l0 52 58 27 c115 52 112
53 112 -47z m220 69 c14 -8 35 -14 48 -15 15 0 22 -6 22 -19 0 -10 6 -34 14
-53 9 -21 12 -46 7 -68 l-7 -35 -104 -1 c-162 -1 -153 -7 -146 94 3 47 9 89
13 93 21 20 120 23 153 4z m1391 -13 c-5 -10 -6 -24 -2 -32 10 -19 34 -141 28
-146 -2 -2 -57 -7 -123 -10 -65 -3 -125 -8 -133 -10 -11 -3 -13 13 -9 90 2 53
7 98 11 102 7 8 114 20 195 23 38 1 42 -1 33 -17z m-967 -29 c3 -21 8 -69 11
-107 l7 -69 -47 7 c-26 3 -90 6 -142 6 -87 0 -94 1 -102 22 -4 12 -5 37 -1 55
5 18 4 33 -1 33 -5 0 -8 18 -7 40 1 21 4 37 7 35 4 -2 22 0 41 5 19 4 78 8
132 9 l96 1 6 -37z m516 22 c7 -4 15 -2 20 4 8 14 96 -3 117 -23 7 -6 15 -48
19 -94 l6 -82 -35 0 c-20 0 -37 5 -39 11 -3 10 -101 22 -165 21 -20 0 -23 6
-24 37 -1 20 -3 57 -5 83 -3 38 -1 47 13 51 24 6 77 2 93 -8z m1119 -210 c12
-36 16 -163 6 -174 -3 -2 -10 1 -17 6 -7 6 -22 9 -33 6 -64 -13 -103 -14 -110
-3 -4 7 -8 55 -9 106 l-1 93 50 3 c100 6 99 6 114 -37z m-225 -52 c4 -43 9
-90 12 -105 5 -26 3 -28 -28 -27 -18 0 -42 4 -53 8 -11 5 -27 5 -36 0 -15 -7
-136 4 -146 14 -2 3 -5 39 -6 81 -2 70 0 77 18 81 11 2 37 8 59 12 21 4 69 9
106 11 l68 2 6 -77z m-886 16 c33 -11 35 -15 51 -103 l9 -48 -178 3 c-141 3
-176 7 -168 17 7 8 7 12 -1 12 -7 0 -11 24 -11 65 l0 66 85 -3 c46 -1 87 1 91
5 8 7 77 -1 122 -14z m565 -50 c9 -40 15 -74 13 -76 -6 -6 -209 -21 -218 -16
-12 6 -9 111 2 118 6 4 8 10 5 15 -3 4 32 12 78 18 45 5 87 10 92 11 6 0 18
-31 28 -70z m-1817 0 c3 -24 5 -54 5 -66 0 -13 3 -23 8 -23 5 0 11 -11 14 -25
4 -25 3 -26 -47 -22 l-51 4 -3 91 -3 91 28 3 c37 5 42 -1 49 -53z m221 39 c7
-78 22 -179 27 -187 4 -6 -6 -8 -26 -5 -18 3 -60 8 -94 11 -33 3 -61 11 -62
17 -11 69 -12 147 -3 165 10 18 20 21 84 21 67 0 72 -1 74 -22z m300 9 l42 2
0 -68 c0 -38 3 -80 7 -95 5 -23 3 -26 -20 -26 -14 0 -63 -8 -108 -19 -117 -26
-136 -24 -145 14 -4 16 -7 70 -7 118 l-1 89 95 -8 c52 -5 114 -8 137 -7z m367
-5 c5 -8 11 -36 22 -103 l6 -36 -72 -7 c-40 -4 -84 -12 -99 -18 -14 -5 -50
-12 -78 -15 l-53 -4 0 68 c0 37 3 79 7 92 6 22 10 23 57 18 28 -3 71 -2 96 3
63 11 108 11 114 2z m654 -14 c-3 -7 1 -35 7 -63 l12 -50 -76 -2 c-42 -1 -92
-4 -111 -7 l-35 -5 3 64 c4 73 -5 68 130 73 56 2 73 0 70 -10z m302 -188 c13
-24 30 -26 30 -4 0 12 6 15 23 10 12 -3 39 -6 59 -6 40 0 44 -8 52 -100 2 -19
7 -42 10 -51 6 -13 -2 -17 -40 -23 -63 -8 -159 -8 -168 1 -4 4 -23 6 -42 4
l-35 -3 4 88 c3 95 5 97 67 102 20 2 32 -4 40 -18z m-386 -12 c3 -13 7 -47 10
-77 5 -53 27 -91 52 -91 9 0 11 22 7 95 l-6 95 71 0 c81 0 74 10 92 -114 6
-38 9 -70 7 -72 -2 -2 -23 -6 -48 -8 -24 -3 -60 -8 -79 -10 -19 -3 -73 -8
-120 -11 -47 -3 -96 -7 -110 -9 -14 -3 -51 -8 -82 -12 -54 -6 -57 -6 -51 14 3
11 -2 31 -11 44 -9 12 -17 18 -18 13 0 -6 -4 22 -8 60 -3 39 -4 76 -2 82 3 9
35 13 114 12 61 0 113 2 116 5 3 3 18 6 33 6 22 0 30 -6 33 -22z m786 -7 c0
-15 5 -54 12 -85 14 -73 9 -77 -102 -74 l-85 3 -3 83 c-2 61 0 82 10 83 18 1
72 10 75 12 1 1 22 3 47 4 44 1 46 0 46 -26z m-1140 -43 c8 -35 15 -70 15 -79
1 -9 5 -21 9 -28 4 -6 5 -19 2 -29 -5 -15 -22 -17 -173 -15 l-168 2 1 74 c1
93 9 125 32 129 9 2 74 5 143 6 l126 3 13 -63z m1255 50 c22 -10 25 -17 25
-62 0 -28 3 -60 6 -72 3 -13 1 -21 -8 -21 -7 -1 -28 -4 -46 -8 l-34 -8 6 84
c3 46 5 87 6 92 0 10 15 9 45 -5z m-1632 -31 c3 -7 5 -49 6 -92 l1 -80 -102
-2 c-57 -1 -122 -5 -145 -8 -39 -6 -43 -4 -49 20 -3 14 -3 42 2 63 10 45 11
54 13 69 1 13 45 22 140 28 35 2 65 6 67 8 10 9 63 5 67 -6z m-626 -40 c4 -23
7 -51 8 -62 0 -11 6 -26 13 -33 6 -7 12 -17 12 -22 0 -8 -77 -24 -115 -25 -5
0 -12 -3 -15 -7 -3 -3 -21 -8 -40 -10 l-35 -3 -1 96 -2 96 41 1 c22 1 41 3 43
4 1 2 21 4 43 5 41 2 41 1 48 -40z m198 16 c39 -3 73 -11 77 -17 4 -6 8 -39 8
-73 l0 -62 -27 6 c-16 4 -63 6 -105 5 -67 -1 -78 1 -79 16 -1 9 -3 45 -5 79
l-3 62 32 -5 c18 -2 64 -7 102 -11z m2093 -180 c-1 -31 11 -133 17 -143 9 -15
-66 -37 -134 -39 -56 -2 -71 0 -65 10 4 7 7 50 6 96 0 54 3 81 9 77 6 -3 40
-7 76 -8 53 -1 67 2 74 17 14 24 18 21 17 -10z m-638 -20 c-1 -16 -1 -30 0
-33 1 -3 3 -18 5 -35 11 -80 16 -98 31 -110 15 -10 10 -13 -31 -18 -71 -10
-167 -8 -160 2 3 5 2 12 -2 14 -5 3 -7 34 -7 69 3 123 0 114 47 125 23 6 59
11 80 12 36 1 38 -1 37 -26z m211 25 c0 -2 3 -41 5 -88 3 -47 9 -89 15 -94 14
-15 11 -25 -8 -25 -10 -1 -49 -4 -88 -7 l-70 -6 0 79 c1 43 4 88 9 101 5 15 3
22 -6 23 -7 1 3 5 22 8 40 8 120 13 121 9z m169 -13 c-6 -7 -4 -19 5 -32 8
-11 19 -41 24 -65 6 -25 13 -52 17 -61 5 -13 0 -16 -23 -13 -15 2 -49 -2 -75
-8 l-46 -12 -4 35 c-1 20 -1 66 0 103 l4 67 54 -1 c39 -1 51 -5 44 -13z
m-1880 -94 l0 -81 -64 0 c-35 0 -77 -3 -93 -6 l-30 -6 -6 74 c-2 40 -4 74 -2
76 4 5 93 17 147 20 l48 3 0 -80z m1282 -18 c9 -54 14 -101 12 -105 -9 -14
-51 -9 -64 7 -7 8 -19 15 -27 15 -7 0 -16 -7 -19 -15 -4 -10 -20 -15 -43 -15
-35 0 -39 3 -50 38 -7 20 -13 65 -14 99 -3 72 -7 69 118 72 l71 1 16 -97z
m-971 60 c2 -29 2 -51 0 -109 l-1 -47 -97 7 c-54 3 -109 8 -123 10 -14 2 -29
5 -33 5 -7 1 -1 118 8 147 2 6 47 10 124 10 118 -1 121 -2 122 -23z m260 -71
c13 -82 13 -92 -1 -86 -8 3 -59 9 -112 11 l-97 6 5 51 c3 28 7 65 10 81 l4 30
88 0 89 0 14 -93z m214 33 c12 -33 19 -72 17 -86 -4 -25 -7 -26 -85 -32 -45
-3 -84 -4 -86 -1 -7 7 -5 127 2 157 7 27 9 28 70 25 l62 -3 20 -60z m221 36
c3 -9 8 -25 10 -36 5 -30 21 -87 29 -108 6 -15 4 -17 -16 -12 -26 6 -105 13
-156 14 l-32 1 4 68 c1 37 3 72 4 78 1 8 27 12 76 11 58 0 76 -4 81 -16z
m-1261 -53 c4 -24 9 -53 11 -64 3 -18 -2 -23 -29 -27 -17 -3 -35 -2 -40 2 -9
9 -12 105 -3 120 4 6 18 11 31 11 20 0 24 -7 30 -42z m2423 -385 c0 -72 4
-177 7 -232 7 -98 7 -101 -14 -101 -20 0 -20 3 -15 103 2 56 1 123 -4 150 -6
27 -6 50 -1 53 17 10 9 53 -11 59 -11 3 -23 4 -27 2 -5 -3 -10 47 -11 110 -3
100 -2 115 11 110 8 -3 23 0 34 8 17 13 18 9 24 -58 4 -40 7 -131 7 -204z
m-2051 223 c8 -8 10 -16 24 -136 6 -52 13 -97 15 -99 15 -15 27 31 31 122 7
123 -1 117 134 117 l86 0 0 -32 c1 -65 11 -173 18 -195 9 -27 2 -28 -51 -10
-33 11 -54 11 -129 0 -49 -7 -109 -18 -132 -23 -71 -16 -149 -23 -188 -16
l-37 7 6 102 c9 161 15 185 40 189 27 4 174 -16 183 -26z m1903 -9 c0 -23 7
-69 15 -100 23 -88 23 -89 -32 -84 -74 8 -103 18 -104 36 -1 9 -3 32 -6 51 -2
19 -1 59 2 88 l6 52 60 0 59 0 0 -43z m-2181 16 c0 -10 3 -74 6 -142 l6 -124
-40 6 c-22 3 -48 12 -56 21 -9 9 -27 19 -41 22 -22 6 -24 11 -25 73 0 36 -1
81 -2 99 -2 29 1 33 31 38 19 4 44 2 58 -4 20 -10 25 -8 34 8 13 25 29 26 29
3z m1076 -7 c7 -2 15 -38 19 -86 4 -45 13 -95 21 -110 l15 -29 -53 -6 c-28 -4
-79 -5 -112 -3 l-60 3 1 35 c1 31 12 192 13 197 3 9 133 8 156 -1z m895 -6
c13 -26 30 -85 34 -117 1 -16 6 -35 10 -42 5 -8 -8 -11 -46 -10 -48 0 -148 15
-122 18 17 2 26 32 14 46 -14 17 -10 107 4 118 19 13 98 3 106 -13z m-1210 0
l78 0 8 -32 c11 -51 11 -188 -1 -189 -5 0 -57 -1 -115 -2 l-105 -1 0 118 0
117 29 -5 c16 -3 64 -6 106 -6z m536 -13 c36 6 38 1 49 -110 5 -46 13 -71 24
-78 11 -7 -10 -8 -74 -4 -49 3 -104 1 -121 -4 l-31 -9 4 87 c6 134 3 129 65
120 29 -3 67 -4 84 -2z m499 -29 c4 -24 14 -58 21 -77 19 -45 13 -48 -94 -50
-47 -1 -89 -4 -94 -7 -15 -9 -13 92 3 144 l11 32 73 0 73 0 7 -42z m-230 -25
c3 -32 8 -70 10 -85 5 -33 -6 -37 -103 -42 -70 -4 -70 -3 -76 25 -3 15 -3 58
1 94 l6 65 78 0 78 0 6 -57z m321 -169 l29 -5 0 -150 c0 -93 -4 -149 -10 -149
-5 0 -48 5 -94 12 l-83 11 8 116 c4 64 8 128 8 144 1 26 3 27 57 27 31 0 69
-3 85 -6z m-211 -56 c11 -92 12 -217 2 -211 -6 3 -34 5 -62 4 l-53 -1 0 130
-1 130 54 0 54 0 6 -52z m392 39 c10 -10 23 -129 22 -198 -1 -42 2 -82 5 -88
5 -7 -3 -11 -21 -12 -53 -2 -98 3 -106 11 -8 7 2 144 19 259 6 43 6 43 41 38
20 -4 37 -8 40 -10z m-573 -64 c4 -36 13 -91 20 -122 l13 -57 -249 -2 -249 -2
2 73 c1 39 6 86 11 104 9 34 10 34 139 48 l57 6 0 -58 c0 -99 1 -109 23 -131
30 -33 39 -19 32 53 -4 47 -3 65 6 65 7 0 10 4 6 9 -3 5 -1 13 5 16 6 4 8 15
5 26 -6 17 -1 19 37 20 24 1 53 4 66 7 64 18 69 15 76 -55z m718 48 c9 -1 17
-9 17 -18 0 -10 4 -36 10 -58 6 -22 11 -75 11 -117 0 -74 -1 -78 -22 -79 -13
-1 -38 -3 -57 -5 l-34 -2 7 90 c3 50 6 114 6 143 0 48 2 51 23 49 12 -1 30 -3
39 -3z m-1781 -20 c-15 -9 -11 -97 8 -174 l9 -37 -99 2 c-56 2 -100 7 -100 13
-6 36 -5 155 0 164 4 6 45 17 91 25 106 17 108 18 91 7z m289 -6 c0 -8 -4 -15
-9 -15 -12 0 -2 -87 15 -134 8 -21 14 -40 12 -41 -2 -2 -62 -5 -135 -7 -91 -3
-130 -1 -127 6 2 6 5 38 8 71 3 33 8 74 12 91 6 30 8 31 52 29 26 -1 70 1 97
5 28 4 56 8 63 9 6 0 12 -6 12 -14z m-846 -3 c4 -8 7 -24 21 -169 l7 -63 -34
0 -33 0 3 120 c3 94 6 120 17 120 8 0 16 -4 19 -8z m1053 -2 l52 0 3 -95 c3
-110 1 -113 -89 -100 -26 4 -63 7 -80 6 -37 -2 -36 -6 -37 127 l-1 73 50 -5
c28 -3 73 -5 102 -6z m-883 -30 c27 -6 66 -10 87 -8 21 1 40 0 43 -3 2 -2 8
-39 13 -81 l9 -78 -52 0 c-29 0 -65 -5 -81 -11 -15 -6 -47 -12 -69 -14 l-42
-3 -1 99 c-2 107 2 123 27 115 10 -3 39 -10 66 -16z"/>
</g>
</svg>
