<?xml version="1.0" standalone="no"?>
<!DOCTYPE svg PUBLIC "-//W3C//DTD SVG 20010904//EN"
 "http://www.w3.org/TR/2001/REC-SVG-20010904/DTD/svg10.dtd">
<svg version="1.0" xmlns="http://www.w3.org/2000/svg"
 width="509.000000pt" height="333.000000pt" viewBox="0 0 509.000000 333.000000"
 preserveAspectRatio="xMidYMid meet">
<metadata>
Created by potrace 1.16, written by Peter Selinger 2001-2019
</metadata>
<g transform="translate(0.000000,333.000000) scale(0.100000,-0.100000)"
fill="#000000" stroke="none">
<path d="M4798 2615 c-2 -3 -18 -6 -34 -8 -16 -1 -51 -16 -79 -32 -57 -34
-153 -75 -175 -75 -9 0 -20 -4 -25 -8 -6 -5 -32 -17 -60 -27 -27 -10 -57 -24
-66 -31 -8 -8 -18 -14 -22 -14 -3 0 -29 -13 -57 -30 -28 -16 -57 -30 -65 -30
-8 0 -15 -4 -15 -10 0 -5 -6 -10 -12 -10 -7 0 -26 -7 -41 -15 -15 -8 -43 -17
-62 -21 -19 -3 -35 -10 -35 -14 0 -4 -21 -15 -47 -25 -27 -10 -65 -29 -85 -42
-21 -12 -44 -23 -53 -23 -8 0 -15 -5 -15 -11 0 -9 -108 -64 -140 -71 -8 -2
-17 -5 -20 -8 -3 -3 -43 -25 -90 -49 -47 -25 -87 -48 -90 -52 -3 -4 -30 -19
-61 -34 -31 -14 -65 -34 -75 -43 -11 -10 -27 -16 -37 -14 -9 2 -20 -4 -23 -12
-3 -9 -11 -16 -16 -16 -14 0 -138 -83 -138 -92 0 -16 -38 -7 -145 36 -161 64
-236 101 -291 145 -15 12 -31 21 -37 21 -6 0 -19 8 -29 17 -18 16 -18 18 11
47 30 32 98 158 107 198 3 13 7 43 10 68 3 25 7 51 10 59 6 19 -33 98 -54 107
-51 22 -105 12 -148 -28 -24 -21 -153 -73 -210 -84 -21 -4 -58 -16 -82 -26
-25 -12 -50 -17 -60 -12 -9 4 -24 6 -33 5 -9 -1 -52 10 -95 24 -62 20 -100 26
-180 27 -57 0 -110 -4 -122 -11 -11 -6 -30 -11 -41 -11 -12 0 -21 -4 -21 -9 0
-5 -9 -13 -20 -16 -20 -6 -144 -124 -186 -176 -29 -35 -55 -118 -49 -151 3
-16 4 -28 3 -28 -2 0 -48 -16 -103 -36 -55 -19 -120 -42 -144 -50 -24 -9 -69
-29 -99 -46 -34 -18 -93 -37 -148 -48 -50 -9 -97 -21 -103 -25 -7 -3 -42 -11
-78 -16 -37 -5 -71 -13 -77 -17 -6 -5 -24 -9 -41 -10 -16 -1 -46 -5 -65 -8
-55 -10 -320 -22 -378 -18 -58 5 -69 -5 -58 -50 7 -27 4 -26 166 -10 75 8 89
8 145 3 29 -2 114 11 205 33 25 5 72 12 105 15 33 3 74 11 90 19 17 7 67 20
112 28 45 9 90 20 100 25 45 22 102 44 148 56 28 8 81 27 118 44 38 17 77 31
86 31 10 0 42 13 72 29 30 16 75 32 101 35 29 4 60 17 77 32 16 13 33 24 38
23 23 -4 33 3 33 25 0 27 19 32 146 42 54 5 78 2 102 -10 17 -9 40 -16 51 -16
36 0 99 -66 109 -113 5 -23 6 -49 2 -57 -4 -8 -11 -42 -15 -74 -4 -33 -13 -65
-20 -72 -7 -8 -12 -30 -11 -50 1 -30 -4 -41 -31 -61 -44 -33 -104 -64 -114
-57 -5 3 -9 0 -9 -6 0 -6 -8 -9 -17 -6 -24 6 -62 -43 -70 -88 -5 -32 -3 -36
23 -42 29 -7 110 -43 250 -110 71 -34 161 -66 222 -79 17 -4 32 -10 32 -15 0
-7 38 -15 120 -26 19 -3 63 -11 98 -19 80 -19 134 -19 196 0 76 23 109 20 288
-30 77 -22 88 -31 88 -74 0 -28 -7 -45 -27 -65 -28 -28 -85 -59 -109 -59 -8 0
-14 -4 -14 -9 0 -5 -4 -7 -8 -4 -5 3 -21 -2 -36 -10 -16 -7 -45 -14 -66 -14
-21 0 -51 -7 -66 -15 -33 -17 -129 -19 -219 -6 -33 6 -78 12 -99 16 -21 3 -49
8 -61 11 -32 8 -66 -25 -55 -53 6 -14 18 -23 32 -23 48 -1 144 -8 168 -13 83
-17 161 -16 222 3 35 11 74 20 87 20 13 0 45 8 72 17 132 47 17 -61 -155 -146
-179 -88 -183 -88 -391 -86 -184 2 -235 8 -235 29 0 6 -13 20 -30 29 -29 18
-30 18 -64 -8 -28 -22 -33 -31 -27 -48 4 -12 18 -26 29 -32 12 -5 22 -13 22
-18 0 -5 8 -6 18 -3 9 3 35 -1 57 -8 27 -10 73 -13 145 -11 215 8 252 7 265
-7 3 -3 -20 -29 -52 -58 -54 -50 -151 -103 -204 -114 -13 -2 -43 -9 -66 -14
-34 -8 -58 -5 -125 13 -156 43 -190 54 -232 73 -23 11 -62 25 -86 32 -25 7
-57 19 -73 28 -21 13 -32 14 -45 6 -45 -29 -12 -73 70 -93 29 -8 76 -24 103
-37 28 -12 68 -26 90 -30 22 -4 56 -14 75 -22 19 -8 49 -16 65 -19 17 -2 45
-9 64 -15 l34 -11 -29 -15 c-81 -43 -420 7 -674 100 -56 21 -70 27 -124 57
-62 35 -81 45 -86 46 -13 3 -66 28 -186 85 -214 102 -268 116 -489 130 -230
14 -440 37 -467 51 -12 7 -18 7 -14 1 3 -5 -1 -15 -9 -22 -17 -14 -19 -38 -5
-60 6 -11 28 -15 72 -16 137 -2 526 -25 578 -34 77 -13 190 -59 295 -119 71
-40 81 -45 98 -48 17 -3 169 -71 217 -98 59 -32 203 -76 345 -105 55 -11 111
-25 125 -30 49 -18 278 -27 324 -13 10 3 51 26 90 51 80 53 84 54 109 33 29
-24 186 -20 269 7 37 12 74 22 83 22 8 0 15 5 15 10 0 6 9 10 21 10 48 0 158
163 159 236 1 110 11 143 55 173 20 13 63 61 97 105 33 45 69 85 79 90 11 5
27 31 36 57 10 26 21 45 26 42 5 -3 6 5 2 18 -11 41 -38 99 -45 99 -4 0 -12
11 -18 24 -9 21 -6 28 28 61 l39 38 148 2 c156 2 178 4 258 29 28 9 91 27 140
41 124 36 203 63 246 86 20 10 42 19 48 19 10 0 45 14 149 61 23 10 44 19 47
19 3 0 19 7 36 16 18 9 53 22 80 30 27 8 49 18 49 22 0 5 19 16 43 26 138 60
314 146 336 164 9 7 32 23 51 35 44 29 65 65 56 101 -11 44 -42 51 -133 31
-43 -9 -82 -20 -88 -24 -15 -11 -95 -38 -134 -46 -18 -4 -54 -16 -80 -28 -25
-12 -62 -22 -81 -23 -19 -1 -91 -15 -160 -32 -69 -16 -155 -35 -192 -42 -38
-7 -68 -15 -68 -19 0 -3 -20 -7 -45 -9 -25 -1 -63 -9 -86 -17 -73 -26 -88 -18
-33 16 153 98 245 162 270 186 75 72 160 143 172 143 7 0 10 5 7 10 -3 6 -1
10 4 10 6 0 45 34 87 75 42 41 80 75 84 75 5 0 28 18 52 39 118 107 159 141
168 141 6 0 10 6 10 13 0 18 58 69 71 62 15 -10 8 66 -8 83 -12 13 -26 16 -35
7z m-211 -198 c-21 -18 -79 -71 -128 -120 -50 -48 -113 -105 -142 -127 -29
-22 -77 -61 -107 -86 -30 -25 -64 -53 -75 -61 -10 -9 -87 -62 -170 -118 -143
-95 -222 -141 -237 -137 -3 1 -12 -5 -18 -13 -7 -8 -17 -15 -22 -15 -5 0 -24
-10 -41 -23 -18 -12 -43 -24 -57 -26 -14 -2 -37 -12 -52 -23 -16 -11 -28 -17
-28 -13 0 11 -87 -54 -113 -85 -32 -37 -40 -38 -26 -3 12 32 -4 78 -32 93 -27
15 -76 12 -83 -5 -3 -8 -11 -15 -19 -15 -19 0 -47 -54 -47 -92 0 -61 73 -104
120 -71 27 19 25 15 -29 -62 -19 -27 -38 -51 -43 -53 -4 -2 -8 -9 -8 -16 0
-19 -77 -96 -92 -92 -7 3 -38 10 -69 16 l-57 11 11 32 c20 64 49 132 62 147 7
8 16 25 20 38 4 13 22 50 41 83 19 34 34 67 34 75 0 8 5 14 11 14 5 0 7 5 4
10 -3 6 -1 10 5 10 6 0 8 4 5 10 -9 15 43 59 87 72 21 6 38 15 38 20 0 4 4 8
10 8 5 0 79 38 163 84 85 46 164 87 175 90 12 4 54 25 94 48 40 22 106 58 147
80 41 22 85 47 98 58 13 10 46 26 73 36 28 10 50 21 50 25 0 4 21 15 48 25 46
17 341 159 392 189 43 25 47 16 7 -18z m-1888 4 c17 -11 18 -61 2 -138 -16
-81 -51 -147 -94 -178 l-38 -27 -39 31 c-21 17 -42 31 -46 31 -4 0 -29 22 -56
50 -26 27 -62 57 -78 65 -32 17 -40 35 -15 35 8 0 15 5 15 11 0 7 15 10 40 7
22 -2 40 0 40 4 0 10 71 42 93 41 9 0 17 3 17 7 0 4 12 10 28 13 15 3 40 18
56 32 31 26 51 31 75 16z m-589 -153 c19 -7 64 -30 99 -50 34 -21 65 -38 68
-38 12 0 73 -54 73 -65 0 -7 7 -15 15 -19 8 -3 15 -12 15 -20 0 -17 44 -56
144 -124 43 -30 81 -62 83 -73 6 -21 5 -21 51 -25 19 -1 42 -10 53 -20 10 -9
19 -14 19 -10 0 4 10 0 22 -8 12 -9 30 -16 39 -16 9 0 20 -7 23 -16 3 -8 10
-13 15 -10 4 3 36 -8 70 -24 34 -17 68 -30 76 -30 9 0 18 -7 21 -15 4 -8 16
-15 28 -15 36 0 47 -13 40 -48 -4 -18 -11 -35 -15 -38 -5 -3 -9 -13 -9 -23 0
-13 -10 -20 -37 -24 -20 -4 -40 -3 -43 1 -6 9 -19 10 -160 17 -123 7 -197 19
-239 41 -14 8 -38 14 -53 14 -51 0 -137 -29 -165 -55 -32 -30 -134 -81 -178
-91 -41 -8 -61 -7 -101 6 -44 15 -35 29 43 65 30 14 56 32 59 39 3 7 23 22 45
32 43 21 60 55 41 85 -9 14 -8 28 3 59 8 22 17 85 19 140 5 92 3 101 -20 135
-13 20 -24 40 -24 45 0 14 -80 58 -130 70 -118 30 -168 33 -230 14 -38 -12
-62 -26 -66 -37 -4 -12 -12 -16 -24 -12 -12 4 -34 -6 -63 -28 -42 -32 -94 -54
-104 -44 -2 3 18 38 46 78 53 79 86 102 191 139 63 22 200 21 260 -2z m2675
-422 c-362 -176 -449 -216 -464 -216 -8 0 -65 -24 -177 -75 -29 -13 -74 -28
-100 -34 -27 -5 -69 -17 -94 -26 -25 -10 -58 -21 -75 -25 -16 -5 -61 -18 -100
-30 -38 -11 -90 -23 -115 -26 -25 -3 -63 -10 -85 -16 -49 -13 -150 -11 -176 2
-19 11 -19 11 1 50 14 28 34 45 72 65 29 14 70 36 91 49 21 13 75 31 120 41
45 10 93 24 107 30 14 7 53 15 87 18 35 4 90 16 124 27 55 19 127 34 294 62
88 14 87 14 123 22 19 4 43 10 55 12 71 12 204 46 230 59 16 8 40 15 51 15 12
0 28 5 36 10 8 5 22 10 30 10 8 0 -7 -11 -35 -24z m-1491 -297 c-22 -24 -34
-24 -34 0 0 11 10 27 23 36 20 14 22 14 25 0 2 -9 -4 -25 -14 -36z m-692 -68
c150 -20 265 -31 326 -32 34 -1 62 -4 62 -6 0 -2 -6 -16 -14 -31 -25 -49 -237
-138 -316 -134 -33 2 -164 39 -291 83 -30 10 -64 19 -74 19 -15 0 -14 3 6 18
13 10 35 23 49 29 14 6 48 22 75 36 57 29 76 31 177 18z m328 -185 c0 -3 -4
-8 -10 -11 -5 -3 -10 -1 -10 4 0 6 5 11 10 11 6 0 10 -2 10 -4z m-3 -670 c-3
-30 -13 -69 -22 -87 -40 -78 -144 -139 -239 -139 -61 0 -70 9 -30 30 14 8 54
45 89 82 35 38 78 73 94 79 17 6 32 17 32 25 1 8 2 19 3 25 1 12 44 38 65 39
11 0 13 -12 8 -54z"/>
</g>
</svg>
