<?xml version="1.0" standalone="no"?>
<!DOCTYPE svg PUBLIC "-//W3C//DTD SVG 20010904//EN"
 "http://www.w3.org/TR/2001/REC-SVG-20010904/DTD/svg10.dtd">
<svg version="1.0" xmlns="http://www.w3.org/2000/svg"
 width="463.000000pt" height="455.000000pt" viewBox="0 0 463.000000 455.000000"
 preserveAspectRatio="xMidYMid meet">
<metadata>
Created by potrace 1.16, written by Peter Selinger 2001-2019
</metadata>
<g transform="translate(0.000000,455.000000) scale(0.100000,-0.100000)"
fill="#000000" stroke="none">
<path d="M2968 4180 c-14 -15 -15 -25 -7 -49 9 -25 17 -31 52 -36 55 -8 133
-39 233 -91 112 -58 117 -61 219 -133 169 -120 335 -270 405 -367 19 -26 43
-55 53 -63 9 -9 17 -20 17 -26 0 -6 15 -27 33 -47 99 -113 189 -292 273 -548
25 -75 69 -287 77 -367 5 -46 5 -45 -63 -58 -82 -15 -88 -28 -43 -98 15 -23
30 -64 34 -92 4 -27 15 -84 24 -125 9 -41 18 -88 18 -103 1 -19 11 -34 29 -44
25 -16 27 -15 52 13 14 16 23 35 21 41 -5 16 13 116 27 152 6 14 12 33 14 41
2 14 37 116 55 165 24 66 18 77 -49 77 -55 -1 -52 -6 -67 103 -21 151 -76 351
-135 495 -34 83 -103 221 -131 262 -11 14 -19 29 -19 32 0 8 -51 87 -67 104
-7 7 -28 36 -47 65 -58 87 -383 407 -414 407 -6 0 -12 4 -14 8 -11 30 -382
240 -453 258 -16 4 -39 13 -50 20 -39 23 -60 25 -77 4z"/>
<path d="M1579 4126 c-16 -8 -31 -9 -45 -3 -15 6 -32 4 -56 -7 -19 -9 -50 -16
-69 -15 -19 1 -71 -1 -117 -6 -116 -10 -137 -37 -87 -110 l24 -37 -32 -26
c-18 -15 -43 -37 -57 -49 -14 -13 -30 -23 -36 -23 -11 0 -182 -171 -250 -250
-22 -25 -41 -47 -44 -50 -3 -3 -21 -25 -40 -50 -19 -25 -38 -46 -42 -48 -5 -2
-8 -10 -8 -17 0 -7 -3 -15 -7 -17 -18 -7 -173 -272 -189 -320 -4 -13 -19 -50
-35 -83 -25 -55 -49 -130 -95 -290 -9 -33 -18 -67 -19 -75 -1 -8 -8 -58 -16
-110 -9 -59 -14 -175 -13 -305 0 -230 12 -321 66 -520 16 -60 35 -129 41 -153
11 -41 20 -48 51 -36 23 9 20 30 -14 131 -33 97 -54 178 -70 275 -5 35 -13 74
-16 88 -13 48 -10 413 3 458 7 24 15 63 17 85 12 113 27 189 51 257 14 41 33
96 41 122 8 27 25 67 38 90 13 24 42 79 65 123 22 44 46 89 53 100 73 115 183
259 248 326 19 19 63 64 97 100 35 35 83 80 107 99 25 19 55 42 66 51 11 9 34
22 51 29 29 12 32 11 59 -21 16 -18 27 -35 25 -37 -4 -5 20 -32 29 -32 13 0
184 181 195 206 6 16 27 40 46 54 64 47 50 130 -16 96z"/>
<path d="M2268 3799 c-95 -10 -197 -34 -313 -75 -56 -18 -108 -34 -118 -34 -9
0 -17 -4 -17 -10 0 -5 -5 -10 -10 -10 -6 0 -33 -11 -60 -25 -28 -14 -72 -36
-99 -49 -26 -14 -64 -40 -84 -59 -20 -19 -38 -32 -40 -31 -7 7 -174 -141 -237
-210 -115 -126 -244 -329 -281 -445 -7 -20 -20 -54 -30 -76 -19 -43 -66 -201
-73 -250 -24 -165 -28 -223 -23 -345 8 -175 28 -287 78 -435 99 -294 247 -516
466 -700 32 -27 66 -57 76 -67 10 -10 31 -25 47 -33 16 -8 46 -27 67 -41 115
-79 354 -174 531 -211 162 -34 409 -39 562 -10 245 45 522 171 709 322 110 89
282 291 356 420 16 28 35 56 42 63 7 7 13 19 13 26 0 7 17 51 39 97 21 46 41
96 44 110 4 14 14 43 24 65 10 21 18 44 18 49 1 6 4 30 8 55 4 25 10 72 13
104 3 33 8 69 11 80 7 30 6 228 -2 310 -8 82 -33 218 -48 256 -3 8 -8 29 -12
45 -17 78 -122 296 -197 408 -62 92 -152 202 -209 254 -19 17 -56 51 -84 77
-27 25 -58 48 -67 52 -10 3 -18 9 -18 13 0 5 -35 31 -78 59 -206 132 -448 220
-678 247 -82 10 -254 12 -326 4z m441 -265 c47 -8 105 -22 127 -29 87 -29 244
-95 271 -113 15 -11 48 -31 73 -46 95 -57 153 -107 274 -237 48 -52 196 -266
196 -284 0 -3 13 -33 29 -67 70 -152 101 -283 108 -463 7 -190 -10 -304 -78
-522 -25 -77 -87 -199 -145 -280 -24 -34 -44 -66 -44 -71 0 -15 -107 -132
-179 -195 -168 -147 -396 -261 -601 -301 -320 -61 -645 -17 -908 125 -156 83
-345 250 -457 400 -62 85 -132 218 -141 269 -4 19 -13 40 -21 46 -7 7 -16 36
-20 65 -3 30 -9 59 -13 64 -20 27 -50 225 -50 330 0 170 72 475 135 571 8 13
15 28 15 34 0 13 68 122 81 131 5 3 24 28 42 56 37 59 98 126 148 164 18 15
54 46 79 69 191 178 587 315 879 304 63 -2 153 -11 200 -20z m-866 -60 c-27
-20 -39 -17 -17 5 10 10 23 16 27 14 5 -3 0 -11 -10 -19z m2074 -1506 c-3 -8
-6 -5 -6 6 -1 11 2 17 5 13 3 -3 4 -12 1 -19z m-2613 -494 c3 -8 2 -12 -4 -9
-6 3 -10 10 -10 16 0 14 7 11 14 -7z m2071 -304 c-3 -5 -12 -10 -18 -10 -7 0
-6 4 3 10 19 12 23 12 15 0z m-1897 -86 c14 -15 14 -16 -3 -13 -10 2 -20 10
-23 17 -5 17 6 15 26 -4z m367 -94 c3 -6 -1 -7 -9 -4 -18 7 -21 14 -7 14 6 0
13 -4 16 -10z m692 -276 c-3 -3 -12 -4 -19 -1 -8 3 -5 6 6 6 11 1 17 -2 13 -5z"/>
<path d="M883 935 c-13 -14 -23 -53 -14 -57 9 -5 52 -87 57 -111 2 -12 12 -61
21 -109 15 -76 20 -88 40 -93 29 -7 60 9 95 49 l26 30 99 -66 c231 -154 432
-245 678 -306 157 -39 197 -46 407 -62 76 -6 141 -9 145 -7 5 3 51 8 103 11
186 12 397 66 624 158 72 30 306 150 306 158 0 5 51 47 114 94 63 48 117 93
120 102 3 8 -3 22 -14 31 -10 9 -17 20 -14 25 3 4 -6 8 -20 8 -15 0 -27 -7
-30 -18 -7 -20 -131 -129 -176 -153 -16 -9 -44 -27 -62 -41 -38 -28 -224 -124
-313 -161 -118 -49 -219 -78 -358 -103 -314 -55 -634 -38 -923 50 -120 37
-137 44 -344 138 -75 34 -174 95 -242 149 l-47 37 29 34 c49 55 48 97 -1 98
-8 0 -33 13 -55 30 -21 16 -45 30 -52 30 -7 0 -32 10 -55 22 -23 12 -44 22
-47 23 -3 0 -12 5 -20 10 -20 13 -65 13 -77 0z"/>
</g>
</svg>
