<?xml version="1.0" standalone="no"?>
<!DOCTYPE svg PUBLIC "-//W3C//DTD SVG 20010904//EN"
 "http://www.w3.org/TR/2001/REC-SVG-20010904/DTD/svg10.dtd">
<svg version="1.0" xmlns="http://www.w3.org/2000/svg"
 width="441.000000pt" height="487.000000pt" viewBox="0 0 441.000000 487.000000"
 preserveAspectRatio="xMidYMid meet">
<metadata>
Created by potrace 1.16, written by Peter Selinger 2001-2019
</metadata>
<g transform="translate(0.000000,487.000000) scale(0.100000,-0.100000)"
fill="#000000" stroke="none">
<path d="M2677 4720 c-26 -8 -103 -66 -160 -123 -16 -15 -48 -40 -71 -56 l-43
-30 -24 23 c-24 22 -74 48 -117 61 -35 10 -112 14 -117 5 -3 -4 -15 -8 -27 -8
-27 0 -108 -33 -108 -44 0 -5 -7 -8 -15 -8 -21 0 -64 -46 -72 -78 -9 -37 -41
-108 -56 -124 -6 -8 -17 -22 -23 -33 -6 -10 -44 -37 -85 -58 -89 -46 -118 -73
-149 -133 -50 -102 -16 -268 67 -323 33 -21 46 -23 157 -22 134 1 160 -6 185
-54 16 -32 77 -77 121 -90 14 -4 44 -18 67 -31 74 -40 170 -19 235 53 18 20
58 63 89 95 53 55 58 57 85 48 16 -6 56 -36 89 -66 33 -30 80 -65 105 -76 43
-19 51 -19 160 -8 114 13 115 13 158 53 23 23 42 47 42 54 0 7 4 13 9 13 5 0
16 30 25 66 28 112 59 157 164 244 23 19 53 51 66 71 22 32 24 45 20 105 -7
118 -20 157 -77 220 -29 32 -60 65 -69 73 -21 18 -106 51 -134 51 -31 0 -100
-36 -163 -86 -31 -24 -59 -44 -62 -44 -10 0 -31 53 -36 90 -7 59 -45 123 -83
142 -70 34 -109 42 -153 28z m122 -134 c6 -7 13 -31 15 -52 10 -90 50 -154
109 -173 52 -18 74 -10 137 50 72 68 124 88 154 58 6 -5 18 -9 28 -9 10 0 18
-3 18 -7 0 -5 17 -26 38 -48 43 -47 64 -104 52 -145 -5 -16 -6 -38 -3 -49 3
-13 -4 -28 -21 -43 -59 -52 -175 -172 -171 -176 2 -3 -2 -17 -9 -31 -8 -14
-24 -55 -36 -91 -38 -113 -58 -130 -153 -130 -105 -1 -133 11 -222 94 -36 33
-70 56 -85 58 -78 5 -170 -14 -170 -36 0 -13 -60 -86 -114 -139 -57 -56 -61
-56 -165 -4 -51 25 -72 43 -102 87 -33 49 -43 56 -86 65 -26 6 -92 10 -146 9
-130 -2 -143 5 -160 82 -8 33 -12 74 -9 92 5 37 50 85 96 103 38 15 116 67
134 88 7 9 24 41 38 71 14 30 29 63 35 72 5 10 9 22 9 28 0 26 75 75 133 87
93 19 137 2 184 -73 31 -49 52 -60 83 -44 11 6 20 7 20 3 0 -4 6 3 13 17 7 14
27 34 46 45 18 11 52 38 74 60 44 42 71 61 99 71 10 3 16 10 13 14 -6 10 15
27 40 32 22 4 67 -15 84 -36z"/>
<path d="M2240 3467 c0 -9 -9 -21 -20 -27 -15 -8 -18 -17 -13 -43 7 -40 13
-128 13 -182 -2 -101 -1 -229 2 -330 l3 -110 -121 -1 c-67 -1 -127 -4 -133 -8
-6 -4 -50 -6 -98 -6 -48 1 -99 1 -113 1 -14 -1 -108 -2 -210 -4 -319 -5 -422
-24 -468 -89 -8 -11 -37 -43 -65 -73 -29 -30 -73 -76 -98 -102 -25 -26 -64
-64 -87 -84 -23 -20 -42 -39 -42 -43 0 -4 -138 -149 -208 -218 -47 -47 -93
-84 -97 -80 -3 3 -5 0 -5 -6 0 -7 -5 -11 -12 -10 -7 2 -15 -11 -18 -30 -5 -36
-82 -122 -108 -122 -8 0 -12 -6 -9 -15 4 -8 1 -17 -4 -21 -6 -3 -8 -16 -5 -28
3 -11 6 -61 7 -111 1 -49 8 -111 15 -137 7 -27 15 -83 19 -126 3 -42 11 -97
17 -122 6 -26 12 -181 14 -365 1 -176 5 -412 8 -525 10 -334 -3 -314 204 -317
81 -1 167 -4 192 -7 63 -7 59 -7 120 -1 30 3 114 7 185 9 72 2 144 6 160 9 17
4 59 9 95 12 36 3 90 8 120 12 64 7 58 7 476 1 177 -3 326 -8 333 -12 6 -4 11
-2 11 4 0 8 9 10 28 5 15 -4 61 -6 102 -4 113 4 128 4 220 -5 95 -10 237 -11
318 -3 36 4 62 14 83 31 17 15 27 26 24 26 -4 0 -2 6 4 14 6 8 11 18 9 22 -3
14 31 74 77 135 48 63 70 100 67 112 -1 4 2 7 8 7 10 0 56 59 135 175 26 39
68 96 94 127 25 32 46 62 46 67 0 6 23 39 51 74 28 35 59 79 70 97 10 19 26
41 34 50 50 55 61 67 78 83 10 9 23 17 28 17 5 0 16 10 23 23 11 17 14 60 13
187 -1 91 -4 192 -8 225 -3 33 -7 96 -9 140 -2 44 -7 114 -9 155 -16 225 -25
748 -14 797 7 29 3 37 -27 67 -31 31 -37 34 -87 30 -29 -2 -66 -6 -83 -9 -16
-2 -73 -7 -125 -10 -52 -3 -106 -8 -119 -11 -23 -5 -192 -4 -411 1 -169 5
-440 5 -512 0 -65 -4 -68 -3 -74 21 -4 14 -4 38 -1 54 4 16 2 32 -3 35 -5 3
-9 106 -9 238 1 295 0 311 -26 315 -11 2 -28 11 -37 20 -16 14 -18 14 -18 -1z
m1370 -778 c0 -4 -10 -13 -22 -22 -13 -8 -50 -40 -83 -72 -33 -31 -89 -82
-124 -113 -35 -31 -117 -110 -182 -174 -65 -65 -123 -118 -128 -118 -6 0 -11
-5 -11 -11 0 -6 -19 -29 -43 -52 -75 -74 -157 -147 -157 -140 0 3 -8 -1 -17
-9 -43 -36 -198 -49 -713 -63 -215 -6 -342 -12 -400 -20 -19 -2 -128 -7 -243
-10 l-208 -5 -10 27 c-9 24 -12 196 -5 268 2 17 -1 35 -6 42 -11 14 -21 290
-13 365 7 55 7 56 43 63 21 4 172 9 337 10 165 2 370 6 455 10 l155 6 2 -58
c2 -32 4 -93 7 -136 3 -68 2 -78 -13 -75 -9 2 -16 10 -16 17 0 8 -19 21 -43
29 -41 13 -43 13 -62 -10 -11 -12 -19 -32 -20 -43 0 -18 22 -59 39 -75 27 -23
121 -161 121 -176 0 -20 40 -44 73 -44 18 0 60 42 63 64 6 35 59 128 98 171
57 63 59 86 8 109 -50 23 -93 18 -108 -12 -29 -58 -34 -48 -35 64 0 60 -2 125
-4 145 l-4 37 65 2 c128 6 408 5 629 -2 123 -4 298 0 385 9 100 10 190 11 190
2z m47 -146 c0 -32 4 -78 8 -103 3 -25 8 -126 11 -225 8 -337 12 -423 19 -434
3 -6 8 -112 10 -234 3 -196 1 -224 -13 -238 -37 -35 -62 -70 -58 -78 3 -5 -4
-17 -15 -27 -11 -10 -28 -37 -39 -61 -18 -41 -77 -124 -92 -131 -5 -2 -8 -12
-8 -23 0 -10 -4 -19 -9 -19 -5 0 -19 -16 -32 -36 -12 -20 -29 -43 -38 -52 -23
-24 -71 -89 -72 -99 0 -4 -22 -37 -49 -73 -27 -36 -77 -105 -111 -155 -34 -49
-66 -91 -71 -93 -4 -2 -8 -8 -8 -14 0 -17 -52 -78 -62 -72 -5 3 -7 13 -4 21 4
8 1 33 -4 55 -13 45 -13 46 -34 253 -9 83 -18 164 -21 180 -5 28 -14 360 -17
615 -1 63 0 170 2 237 2 67 1 126 -3 129 -18 19 6 49 181 223 103 103 206 207
228 231 23 25 64 63 90 85 44 36 70 61 137 133 12 12 26 22 32 22 6 0 16 9 23
20 7 11 14 20 15 20 2 0 4 -26 4 -57z m-2511 -10 c-2 -27 1 -84 6 -128 12
-104 11 -431 -1 -472 -7 -23 -6 -35 2 -40 19 -12 -41 -22 -76 -12 -18 5 -48 6
-67 2 -19 -3 -98 -7 -175 -9 -77 -2 -160 -8 -185 -13 -25 -5 -67 -13 -95 -16
-27 -3 -65 -9 -82 -12 -62 -10 -55 -1 185 243 28 29 52 57 52 61 0 10 72 73
82 73 5 0 8 5 8 11 0 14 331 359 345 359 2 0 2 -21 1 -47z m1691 -720 c-3 -22
0 -44 6 -52 8 -9 13 -71 14 -180 7 -499 13 -736 22 -826 6 -55 16 -154 22
-220 12 -139 18 -199 23 -238 3 -26 2 -27 -53 -29 -76 -2 -105 -2 -346 6 -282
10 -396 9 -442 -3 -36 -9 -81 -8 -130 4 -25 6 -451 6 -533 0 -30 -2 -89 -10
-130 -17 -96 -16 -602 -17 -731 -1 l-37 4 -6 71 c-7 66 -12 249 -21 733 -4
198 -8 271 -19 343 -3 20 -8 64 -12 97 -3 33 -10 78 -16 100 -6 22 -10 53 -10
68 1 51 13 57 147 72 28 3 73 10 102 16 28 5 80 9 115 9 35 -1 191 1 348 5
157 3 350 7 430 8 80 1 151 6 157 10 7 4 102 9 212 11 110 2 204 7 209 10 6 3
68 6 139 6 70 -1 135 -1 143 -1 8 1 67 3 130 6 63 2 136 5 161 6 26 1 53 5 60
10 8 5 22 9 32 9 16 0 18 -6 14 -37z"/>
</g>
</svg>
