<?xml version="1.0" standalone="no"?>
<!DOCTYPE svg PUBLIC "-//W3C//DTD SVG 20010904//EN"
 "http://www.w3.org/TR/2001/REC-SVG-20010904/DTD/svg10.dtd">
<svg version="1.0" xmlns="http://www.w3.org/2000/svg"
 width="435.000000pt" height="469.000000pt" viewBox="0 0 435.000000 469.000000"
 preserveAspectRatio="xMidYMid meet">
<metadata>
Created by potrace 1.16, written by Peter Selinger 2001-2019
</metadata>
<g transform="translate(0.000000,469.000000) scale(0.100000,-0.100000)"
fill="#000000" stroke="none">
<path d="M1739 4085 c-5 -4 -13 -5 -144 -26 -38 -6 -84 -18 -102 -25 -17 -8
-34 -14 -38 -14 -4 0 -22 -13 -40 -29 -18 -16 -37 -30 -42 -32 -11 -5 -63 -86
-63 -99 0 -5 -4 -10 -9 -10 -11 0 -50 -99 -58 -145 -22 -127 0 -237 82 -409
18 -39 40 -87 48 -106 9 -19 30 -59 47 -88 28 -48 29 -53 13 -59 -18 -6 -28
-14 -90 -70 -75 -67 -93 -85 -93 -98 0 -7 -4 -15 -8 -17 -40 -17 -124 -240
-137 -368 -4 -36 -11 -70 -15 -75 -13 -16 -7 -379 6 -396 7 -8 14 -33 18 -57
3 -24 12 -57 20 -75 7 -18 21 -48 30 -69 9 -20 16 -39 16 -43 0 -11 67 -108
100 -143 16 -18 30 -37 30 -43 0 -5 7 -9 15 -9 8 0 20 -9 27 -20 7 -11 19 -20
26 -20 8 0 26 -8 40 -19 15 -10 43 -22 62 -26 19 -4 41 -11 50 -16 8 -5 41
-16 72 -24 32 -9 60 -21 63 -26 4 -5 21 -9 38 -9 50 0 55 -8 52 -85 -2 -58 1
-74 17 -91 18 -20 18 -22 1 -26 -50 -13 -425 1 -573 22 -36 5 -73 8 -83 8 -25
-2 -77 -64 -77 -93 0 -14 -5 -25 -10 -25 -6 0 -9 -4 -8 -8 6 -16 -85 -181
-135 -248 -29 -38 -65 -96 -82 -128 -16 -32 -38 -73 -50 -90 -11 -17 -46 -74
-77 -126 -31 -52 -70 -110 -87 -128 -17 -18 -31 -36 -31 -38 0 -16 -66 -94
-79 -94 -10 0 -12 -3 -5 -8 6 -4 14 -20 18 -37 9 -35 21 -45 57 -45 27 0 63
32 73 66 4 12 15 29 26 39 11 10 20 22 20 27 0 5 18 35 40 68 22 32 54 88 71
123 17 36 39 74 50 85 10 12 19 24 19 27 0 4 11 21 24 38 13 18 32 52 42 77 9
25 30 63 45 85 16 22 45 64 65 93 20 29 39 50 42 48 2 -3 3 -22 3 -43 -1 -21
-3 -198 -6 -393 -2 -195 -4 -371 -4 -390 -1 -55 4 -69 28 -86 20 -14 25 -14
56 0 l34 16 -5 233 c-3 127 -5 237 -5 242 -1 21 12 423 16 480 2 33 4 71 4 84
l1 24 103 -6 c56 -4 120 -10 142 -13 60 -10 289 -7 380 6 44 6 105 13 135 16
46 4 141 18 335 49 77 13 139 16 171 10 33 -6 35 -8 33 -43 -1 -20 1 -53 4
-72 4 -19 9 -67 12 -106 3 -39 10 -86 16 -105 5 -19 12 -72 15 -119 3 -47 10
-137 15 -200 6 -63 13 -169 16 -235 4 -97 9 -125 25 -147 22 -31 43 -35 75
-13 19 13 38 75 23 75 -3 0 -7 17 -8 38 -4 65 -20 226 -26 252 -2 14 -7 68
-10 120 -11 193 -17 256 -26 280 -5 14 -11 73 -14 131 -3 58 -7 112 -10 120
-13 41 -15 69 -6 69 10 0 37 23 115 95 59 56 149 137 219 200 120 107 246 231
246 244 0 6 42 54 93 106 50 53 108 114 127 136 19 22 63 61 97 86 72 51 81
63 75 102 -3 19 -17 35 -50 56 -56 36 -206 185 -245 243 -39 59 -59 82 -74 82
-7 0 -13 5 -13 11 0 11 -10 25 -80 114 -22 27 -40 53 -40 58 0 9 -9 21 -60 77
-59 65 -80 91 -80 101 0 5 -8 18 -17 28 -31 34 -38 45 -53 81 -8 19 -18 38
-23 41 -4 3 -10 20 -13 37 -4 26 3 41 41 87 25 31 53 68 62 83 9 15 26 43 39
62 16 25 22 46 19 75 -9 104 -27 145 -87 204 -66 66 -98 93 -111 95 -6 2 -25
8 -40 15 -16 6 -48 16 -73 22 -32 8 -44 16 -44 30 0 11 -4 19 -10 19 -5 0 -10
9 -10 20 0 35 -32 88 -87 146 -13 13 -23 27 -23 31 0 4 -17 19 -38 33 -31 20
-49 25 -107 24 -73 0 -141 -25 -223 -80 l-33 -23 -35 19 c-19 11 -34 16 -34
12 -1 -4 -10 4 -20 17 -11 13 -20 19 -20 15 0 -5 -4 -3 -9 5 -5 7 -29 16 -55
18 -25 3 -46 9 -46 13 0 4 -25 8 -56 9 -31 1 -60 4 -64 6 -4 2 -9 3 -11 0z
m114 -120 c26 -4 47 -11 47 -16 0 -5 10 -9 23 -9 13 0 31 -6 42 -13 17 -13 16
-15 -16 -38 -57 -42 -158 -80 -218 -83 -13 -1 -33 -13 -44 -29 -20 -26 -21
-29 -5 -60 16 -29 29 -71 60 -192 13 -52 37 -107 52 -120 6 -5 29 -45 50 -87
22 -43 43 -78 47 -78 4 0 41 -31 82 -70 41 -38 80 -70 86 -70 6 0 11 -5 11
-10 0 -6 10 -14 23 -19 13 -5 36 -20 53 -33 16 -14 45 -33 64 -44 19 -10 48
-29 63 -41 16 -13 34 -23 41 -23 7 0 23 -11 36 -25 25 -27 55 -33 64 -12 4 6
4 2 2 -10 -4 -21 25 -63 44 -63 6 0 10 -7 10 -17 0 -14 2 -14 20 2 11 10 20
14 20 10 0 -4 9 0 19 9 11 10 25 40 31 67 7 27 17 49 24 49 6 0 26 22 44 49
17 27 44 58 59 69 l28 20 23 -57 c13 -31 29 -65 34 -76 14 -25 19 -163 7 -170
-4 -3 -13 -24 -19 -46 -12 -43 -65 -119 -105 -151 -13 -10 -54 -30 -92 -44
-59 -22 -78 -25 -138 -20 -124 11 -172 24 -290 80 -38 18 -81 38 -95 45 -42
19 -104 59 -115 73 -5 7 -28 26 -50 42 -22 16 -44 34 -50 40 -5 7 -28 25 -50
41 -42 32 -148 136 -178 176 -29 39 -127 207 -127 218 0 6 -4 11 -10 11 -5 0
-10 4 -10 9 0 5 -5 22 -12 38 -6 15 -12 34 -14 42 -1 8 -7 17 -13 20 -5 3 -13
20 -17 36 -4 17 -10 35 -14 40 -7 9 -21 58 -26 90 -1 6 -3 12 -4 15 -1 3 -3
34 -5 70 -6 114 38 227 110 285 45 35 84 57 94 50 4 -2 21 4 37 13 17 11 48
17 77 17 26 -1 47 2 47 6 0 8 74 5 143 -6z m560 -18 c51 -36 91 -113 105 -207
7 -47 14 -93 15 -102 1 -10 4 -18 8 -18 4 0 9 -12 12 -27 3 -16 18 -39 32 -53
14 -14 37 -37 51 -51 20 -21 31 -25 56 -20 65 13 63 63 -7 133 -25 25 -45 51
-45 57 0 21 82 1 111 -28 9 -9 35 -32 58 -51 22 -19 41 -40 41 -46 0 -7 5 -14
10 -16 6 -2 12 -26 13 -53 2 -43 -3 -57 -33 -99 -19 -28 -51 -67 -71 -88 -20
-21 -53 -56 -72 -77 -20 -22 -46 -45 -58 -51 -32 -18 -89 -71 -89 -85 0 -6
-13 -24 -29 -39 -27 -26 -29 -26 -34 -7 -4 15 -13 21 -35 21 -16 0 -37 9 -47
20 -10 11 -27 20 -37 20 -11 0 -52 33 -93 73 -40 39 -100 98 -134 130 -51 49
-60 62 -56 85 5 31 -20 76 -40 68 -17 -6 -38 18 -65 79 -20 45 -50 132 -56
161 -1 6 -5 26 -9 43 -5 24 -3 31 8 31 8 0 38 16 66 35 28 19 54 35 58 35 5 0
21 11 37 25 16 14 35 25 43 25 7 0 13 4 13 9 0 5 10 13 23 16 12 4 32 16 43
27 28 25 133 59 159 51 11 -3 33 -15 48 -26z m-553 -238 c0 -6 6 -25 14 -42 8
-18 22 -54 32 -82 10 -27 26 -65 36 -84 10 -20 18 -40 18 -47 0 -6 7 -18 16
-25 29 -24 33 -52 11 -80 -11 -15 -28 -30 -38 -32 -12 -3 -19 -14 -19 -28 0
-21 -1 -21 -24 6 -13 15 -30 45 -37 67 -7 23 -27 61 -43 86 -18 28 -37 76 -48
126 -24 110 -23 115 15 131 39 17 67 19 67 4z m200 -419 c26 -26 25 -46 -4
-65 -17 -11 -22 -22 -19 -38 5 -18 0 -15 -25 13 -31 37 -31 51 1 88 25 27 22
27 47 2z m108 -104 c15 -8 39 -27 53 -42 15 -16 40 -40 58 -54 17 -14 31 -29
31 -34 0 -12 32 -35 49 -36 17 0 85 -59 87 -75 1 -7 -2 -18 -6 -25 -5 -8 -20
2 -50 34 -32 34 -50 46 -72 46 -16 0 -31 6 -34 14 -3 8 -20 20 -37 27 -40 15
-157 90 -157 100 0 20 25 59 37 59 8 0 26 -6 41 -14z m-643 -246 c3 -11 11
-20 16 -20 5 0 14 -11 19 -24 5 -14 22 -33 37 -43 29 -19 60 -45 122 -103 21
-19 55 -48 75 -65 21 -16 49 -40 62 -52 14 -13 29 -23 34 -23 6 0 10 -4 10
-10 0 -5 5 -10 11 -10 6 0 25 -11 42 -24 18 -13 68 -41 112 -61 44 -20 82 -40
85 -43 7 -10 67 -30 109 -37 19 -3 39 -9 45 -13 6 -4 25 -7 41 -7 25 0 30 -4
28 -22 -2 -13 6 -39 17 -58 34 -61 24 -205 -25 -352 -9 -29 -20 -53 -24 -53
-4 0 -8 -11 -9 -25 -3 -42 -63 -141 -131 -218 -32 -35 -126 -108 -137 -106 -5
1 -22 -3 -39 -10 -16 -7 -41 -14 -55 -16 -14 -2 -25 -4 -25 -5 0 -13 -195 -14
-208 -1 -6 6 -23 11 -38 11 -44 0 -231 66 -267 95 -30 24 -131 128 -130 134 3
12 -14 51 -22 51 -5 0 -12 10 -15 23 -4 12 -13 36 -21 52 -28 62 -51 155 -50
199 0 25 -3 46 -7 46 -9 0 -2 264 7 278 2 4 7 28 10 52 9 82 77 269 109 301 8
8 22 29 31 47 9 18 23 32 31 32 7 0 22 10 32 23 24 30 85 77 100 77 6 0 15 -9
18 -20z m1379 -182 c-4 -6 -3 -8 3 -5 13 8 62 -46 106 -118 20 -33 59 -84 87
-113 27 -29 53 -64 56 -77 3 -14 11 -25 18 -25 6 0 29 -21 51 -47 48 -56 95
-99 105 -96 4 1 12 -8 19 -20 7 -12 25 -31 42 -43 l29 -21 -20 -23 c-11 -13
-20 -19 -20 -15 0 5 -9 -1 -20 -13 -12 -12 -24 -22 -28 -22 -4 0 -22 -22 -40
-50 -18 -27 -37 -50 -42 -50 -6 0 -10 -7 -10 -15 0 -8 -11 -17 -25 -21 -14 -3
-25 -12 -25 -18 0 -7 -14 -25 -31 -42 -17 -16 -49 -55 -70 -86 -22 -32 -43
-58 -47 -58 -4 0 -41 -33 -83 -72 -41 -40 -104 -98 -138 -128 -34 -30 -80 -74
-103 -97 -22 -23 -65 -59 -94 -79 -30 -21 -54 -41 -54 -44 0 -7 -30 -20 -53
-24 -5 0 -15 -9 -22 -19 -10 -14 -26 -18 -72 -17 -49 1 -129 -7 -243 -24 -14
-2 -43 -9 -65 -15 -22 -5 -74 -13 -115 -16 -41 -2 -90 -7 -108 -11 -33 -5 -33
-5 -19 18 8 13 12 32 10 43 -3 11 -6 41 -7 68 -1 40 1 47 17 47 10 0 27 5 37
10 11 6 44 11 75 13 30 1 55 5 55 8 0 4 12 10 26 13 14 4 35 15 46 26 11 10
35 26 52 34 17 8 45 30 62 48 82 86 104 111 104 119 0 5 3 9 8 9 17 0 53 78
103 220 12 36 28 81 35 100 7 19 16 63 19 98 4 35 10 76 15 92 4 16 5 45 0 64
-4 20 -6 36 -3 36 2 0 1 5 -3 11 -4 7 -7 29 -8 50 -1 35 1 38 39 49 95 29 172
66 161 78 -3 3 11 15 31 28 45 27 143 188 143 235 0 18 4 28 10 24 6 -4 7 -11
4 -17z"/>
<path d="M1530 2510 c-66 -7 -100 -16 -100 -29 0 -4 -11 -13 -25 -19 -29 -13
-35 -61 -11 -81 11 -10 21 -6 48 17 42 37 75 43 146 25 31 -8 66 -17 78 -20
16 -4 24 2 34 26 7 17 9 42 6 56 -6 23 -10 25 -40 19 -19 -3 -42 -2 -52 3 -11
5 -48 6 -84 3z"/>
<path d="M2065 2450 c-92 -21 -180 -80 -173 -116 3 -20 37 -32 47 -17 13 19
67 51 96 57 36 8 92 -13 117 -43 11 -12 24 -18 37 -14 23 6 27 23 9 41 -9 9
-8 12 5 12 21 0 21 9 -1 35 -28 34 -92 55 -137 45z"/>
<path d="M1540 2402 c0 -7 -11 -14 -24 -18 -15 -3 -26 -15 -28 -29 -6 -30 1
-41 33 -54 21 -7 29 -6 42 10 22 26 21 51 -3 79 -11 13 -20 18 -20 12z"/>
<path d="M2071 2331 c-7 -5 -14 -20 -14 -35 -1 -14 -5 -26 -9 -26 -5 0 -8 -4
-8 -9 0 -14 57 -19 77 -7 18 11 25 58 10 73 -11 11 -41 13 -56 4z"/>
<path d="M1701 2046 c-14 -16 -1 -55 24 -76 11 -9 41 -16 72 -16 30 -1 57 -4
60 -7 9 -10 43 17 43 35 0 9 5 20 10 23 33 20 -32 51 -74 35 -38 -14 -65 -13
-82 5 -19 19 -38 19 -53 1z"/>
<path d="M2130 1872 c-1 -11 -72 -85 -116 -119 -56 -44 -88 -55 -159 -55 -117
0 -188 27 -275 102 -42 36 -75 39 -84 8 -4 -18 4 -33 35 -64 78 -80 190 -122
335 -126 70 -2 85 1 132 27 28 15 73 50 100 77 26 26 52 48 59 48 20 0 34 35
20 49 -9 9 -9 14 0 19 7 4 8 13 4 20 -8 14 -51 25 -51 14z"/>
<path d="M3860 3981 c-14 -28 -13 -41 8 -64 17 -19 16 -20 -43 -12 -81 10
-189 8 -320 -4 -135 -12 -220 -30 -350 -71 -55 -17 -108 -34 -118 -37 -16 -5
-47 -51 -47 -69 0 -11 62 3 135 30 87 33 90 34 205 56 160 30 368 43 440 27
19 -4 57 -9 83 -11 27 -2 51 -6 54 -9 2 -3 -5 -15 -17 -27 -13 -13 -23 -36
-24 -54 -1 -25 3 -32 22 -34 13 -2 35 5 50 15 43 29 82 43 119 43 19 0 41 7
49 15 8 8 24 21 35 28 17 12 18 17 7 39 -7 13 -15 25 -18 25 -31 8 -70 30
-139 77 -87 60 -114 67 -131 37z"/>
</g>
</svg>
