<?xml version="1.0" standalone="no"?>
<!DOCTYPE svg PUBLIC "-//W3C//DTD SVG 20010904//EN"
 "http://www.w3.org/TR/2001/REC-SVG-20010904/DTD/svg10.dtd">
<svg version="1.0" xmlns="http://www.w3.org/2000/svg"
 width="517.000000pt" height="493.000000pt" viewBox="0 0 517.000000 493.000000"
 preserveAspectRatio="xMidYMid meet">
<metadata>
Created by potrace 1.16, written by Peter Selinger 2001-2019
</metadata>
<g transform="translate(0.000000,493.000000) scale(0.100000,-0.100000)"
fill="#000000" stroke="none">
<path d="M3770 4754 c-8 -2 -62 -8 -120 -14 -133 -12 -195 -23 -213 -39 -8 -6
-19 -11 -23 -9 -12 3 -104 -41 -134 -64 -14 -10 -44 -31 -67 -46 -39 -26 -150
-118 -183 -153 -8 -9 -36 -39 -61 -65 -26 -27 -63 -74 -83 -104 -20 -30 -39
-59 -43 -65 -5 -5 -13 -21 -19 -35 -6 -14 -23 -50 -37 -80 -14 -30 -31 -69
-37 -87 -10 -27 -14 -30 -26 -19 -25 25 -78 28 -125 7 -24 -11 -51 -26 -59
-33 -23 -19 -70 -107 -70 -132 0 -11 -7 -34 -16 -51 -9 -16 -18 -48 -20 -70
-2 -22 -5 -47 -7 -55 -2 -14 11 -219 17 -270 2 -14 6 -36 11 -49 4 -13 8 -63
9 -110 2 -96 14 -128 52 -137 24 -6 25 -9 17 -48 -11 -56 -6 -366 8 -448 6
-37 9 -69 7 -71 -1 -2 2 -10 9 -18 6 -8 16 -41 22 -73 6 -33 21 -78 32 -100
12 -23 23 -52 25 -66 7 -39 45 -130 55 -130 5 0 9 -7 9 -15 0 -8 8 -23 18 -33
9 -9 23 -28 29 -42 19 -37 35 -60 68 -97 64 -70 75 -84 75 -92 0 -8 21 -27 90
-81 24 -19 53 -43 62 -52 10 -10 23 -18 29 -18 6 0 17 -6 25 -14 7 -8 37 -22
66 -31 29 -9 60 -19 68 -23 8 -3 26 -7 39 -8 13 -2 29 -8 35 -14 5 -5 21 -10
36 -10 14 0 47 -7 74 -15 28 -8 57 -13 65 -10 9 3 42 0 75 -5 46 -7 64 -6 86
5 15 8 47 18 71 21 24 4 68 22 99 41 30 18 63 33 72 33 9 0 18 3 20 8 5 11 82
70 97 74 45 11 349 355 443 502 8 12 34 76 37 91 1 6 9 20 17 33 8 12 12 22 9
22 -2 0 9 21 25 47 17 26 30 53 30 60 0 7 8 13 18 13 9 0 28 14 42 30 14 17
38 45 54 63 15 17 46 56 67 85 22 28 43 52 47 52 4 0 18 17 32 38 13 20 41 55
60 77 36 40 110 180 110 207 0 8 12 48 26 89 28 80 36 191 16 211 -7 7 -12 22
-12 33 0 47 -113 112 -158 92 -40 -18 -52 5 -47 96 2 46 -3 109 -10 142 -7 33
-16 90 -20 127 -4 37 -10 70 -14 72 -4 3 -8 21 -9 40 -4 53 -56 206 -79 232
-12 13 -24 36 -27 51 -7 27 -73 163 -85 173 -10 8 -30 43 -46 78 -9 17 -19 32
-24 32 -5 0 -37 27 -71 60 -34 33 -67 60 -75 60 -7 0 -18 7 -25 15 -7 8 -18
15 -25 15 -7 0 -15 7 -19 15 -3 8 -16 15 -28 15 -13 0 -32 6 -43 14 -13 8 -45
14 -85 13 -65 0 -259 10 -315 18 -16 2 -37 1 -45 -1z m275 -89 c17 -4 35 -11
40 -15 6 -3 29 -12 53 -20 26 -8 42 -19 42 -29 0 -12 2 -13 8 -3 9 14 42 6 42
-10 0 -5 4 -7 10 -3 11 7 96 -53 92 -66 -1 -5 7 -9 18 -9 11 0 20 -4 20 -9 0
-5 16 -19 35 -32 19 -13 35 -30 35 -36 0 -7 5 -13 10 -13 6 0 10 -6 10 -14 0
-7 6 -18 13 -24 18 -15 123 -229 157 -322 7 -19 17 -39 20 -45 7 -9 21 -85 25
-130 1 -11 7 -42 13 -70 25 -113 33 -287 17 -423 -22 -196 -144 -631 -232
-822 -57 -125 -63 -140 -63 -155 0 -8 -3 -15 -8 -15 -4 0 -18 -20 -32 -45 -14
-25 -28 -45 -32 -45 -5 0 -8 -9 -8 -20 0 -11 -4 -20 -8 -20 -4 0 -26 -28 -47
-62 -22 -33 -66 -89 -97 -122 -32 -34 -66 -73 -75 -88 -10 -16 -20 -28 -24
-28 -11 0 -109 -99 -109 -110 0 -5 -7 -10 -15 -10 -8 0 -28 -14 -45 -31 -17
-18 -35 -29 -44 -26 -8 3 -16 2 -18 -2 -7 -18 -119 -80 -164 -90 -119 -29
-126 -29 -233 -10 -115 21 -131 25 -176 44 -16 7 -57 23 -91 34 -37 14 -79 39
-106 64 -25 23 -49 43 -52 44 -14 6 -102 111 -206 245 -11 14 -20 32 -20 39 0
7 -7 20 -16 30 -8 9 -16 29 -18 45 -2 15 -8 30 -15 32 -6 2 -11 11 -11 20 0
10 -12 41 -25 71 -14 30 -26 65 -27 78 -1 12 -5 23 -8 23 -3 0 -7 12 -8 26 -1
14 -9 46 -17 71 -20 58 -35 363 -21 433 3 19 11 58 16 85 5 28 12 79 14 115 4
64 12 111 22 140 9 26 25 113 30 165 2 28 14 82 25 120 12 39 22 77 23 85 5
32 20 77 42 122 13 26 24 56 24 67 0 11 5 23 10 26 6 3 10 16 10 29 0 12 5 27
10 32 6 6 12 19 14 30 9 46 88 194 131 244 107 125 256 270 278 270 8 0 22 9
32 20 45 49 257 110 440 125 44 4 82 9 84 11 7 6 171 -3 206 -11z m-1362 -798
c17 -12 16 -16 -3 -77 -33 -101 -59 -202 -70 -277 -6 -37 -12 -75 -14 -83 -1
-8 -6 -39 -11 -68 -4 -29 -10 -50 -14 -47 -16 16 -36 195 -30 270 8 99 36 220
55 239 8 8 14 18 14 23 0 29 44 42 73 20z m2243 -529 c15 -33 16 -48 7 -96
-20 -103 -32 -140 -77 -229 -41 -80 -63 -110 -164 -222 l-32 -36 15 44 c8 24
13 46 10 49 -2 2 1 14 7 26 7 11 13 26 13 31 1 6 4 17 7 25 3 8 18 68 34 133
15 64 30 117 34 117 3 0 7 28 8 63 2 34 4 71 7 82 2 11 4 25 4 32 1 14 24 21
73 20 33 0 38 -4 54 -39z"/>
<path d="M3190 3771 c-53 -5 -71 -11 -95 -33 -16 -16 -38 -28 -47 -28 -21 0
-36 -46 -20 -62 12 -12 65 17 96 51 16 18 29 20 97 17 52 -2 86 -8 104 -20 15
-10 35 -19 46 -21 29 -6 78 -48 78 -67 1 -25 43 -23 59 2 11 19 8 25 -30 60
-37 35 -145 89 -203 102 -11 3 -49 2 -85 -1z"/>
<path d="M3896 3596 c-82 -30 -102 -45 -105 -78 -2 -18 40 -12 90 13 92 45
133 52 213 35 63 -13 74 -19 118 -67 26 -29 48 -60 48 -70 0 -31 12 -49 31
-49 13 0 19 7 19 23 0 16 3 18 9 8 20 -32 17 9 -4 54 -27 58 -65 100 -97 111
-13 3 -25 9 -28 13 -17 20 -63 34 -129 37 -67 3 -87 -1 -165 -30z"/>
<path d="M3231 3558 c-8 -12 -16 -38 -18 -58 -11 -87 -9 -105 11 -127 23 -27
28 -28 72 -7 28 13 37 26 49 68 14 49 14 55 -4 97 -18 41 -24 45 -58 47 -30 2
-41 -2 -52 -20z"/>
<path d="M4050 3452 c-33 -5 -104 -77 -96 -98 3 -9 6 -25 6 -35 0 -24 57 -79
82 -79 21 0 48 37 48 67 0 13 9 39 19 59 11 20 17 41 15 48 -9 21 -49 42 -74
38z"/>
<path d="M3376 2914 c-9 -8 -16 -19 -16 -24 0 -16 51 -41 97 -47 27 -3 53 -10
59 -14 16 -13 63 -7 77 10 9 11 9 15 0 18 -9 3 -10 10 -3 23 9 17 5 18 -58 18
-41 0 -81 6 -104 16 -33 14 -38 14 -52 0z"/>
<path d="M3345 2511 c-3 -6 -26 -10 -51 -9 -25 2 -48 -2 -52 -8 -4 -6 -33 -16
-66 -22 -80 -16 -166 -66 -166 -97 0 -13 -5 -25 -12 -27 -19 -7 0 -58 25 -67
12 -5 47 -35 78 -67 110 -116 101 -112 271 -120 96 -4 97 -3 172 35 83 43 121
71 154 118 19 27 21 37 13 73 -5 23 -11 43 -13 44 -1 2 -34 17 -71 35 -37 17
-70 38 -73 45 -13 35 -193 92 -209 67z m71 -60 c80 -21 93 -27 112 -53 10 -13
79 -59 109 -72 1 -1 4 -12 7 -26 5 -19 -1 -33 -29 -63 -19 -21 -50 -45 -67
-53 -18 -9 -46 -23 -63 -31 -17 -9 -62 -18 -103 -20 -99 -5 -159 15 -209 71
-79 87 -99 111 -102 121 -2 6 -11 15 -20 22 -9 6 -14 13 -11 15 54 40 98 58
175 73 50 9 97 21 105 26 19 11 14 12 96 -10z"/>
<path d="M2196 4056 c-27 -28 -43 -37 -59 -32 -11 3 -41 -4 -65 -14 -25 -11
-52 -20 -61 -20 -9 0 -32 -8 -51 -18 -19 -11 -41 -17 -47 -15 -7 3 -29 -5 -48
-17 -34 -21 -89 -51 -167 -91 -38 -19 -188 -158 -188 -173 0 -5 -11 -19 -24
-31 -14 -13 -30 -42 -36 -65 -6 -24 -18 -53 -25 -64 -7 -12 -17 -38 -20 -58
-4 -21 -13 -42 -21 -49 -8 -6 -14 -19 -14 -28 0 -9 -9 -27 -20 -41 -13 -18
-16 -28 -8 -37 8 -10 6 -13 -8 -12 -39 4 -75 -1 -70 -10 3 -4 -16 -15 -42 -24
-26 -9 -72 -25 -102 -36 -35 -13 -93 -21 -160 -24 -66 -4 -117 -11 -135 -21
-36 -18 -67 -30 -77 -28 -3 1 -44 -21 -90 -48 -45 -28 -89 -50 -95 -50 -7 0
-15 0 -18 0 -3 0 -19 -8 -37 -18 -29 -17 -35 -17 -63 -3 -16 8 -32 17 -35 20
-6 8 -13 9 -95 15 -39 2 -85 12 -104 22 -31 15 -37 16 -60 3 -19 -11 -27 -24
-29 -52 -3 -36 5 -44 41 -38 4 0 7 -3 7 -9 0 -5 11 -10 24 -10 14 0 28 -4 31
-10 3 -5 17 -9 30 -8 21 2 39 -4 95 -32 8 -4 28 -6 44 -4 21 2 29 -2 33 -17 3
-10 14 -19 25 -19 11 0 28 -4 38 -10 15 -8 19 -5 24 14 4 17 23 33 59 51 73
36 121 66 125 76 2 5 13 9 25 9 12 0 44 13 71 29 27 16 55 27 63 24 7 -3 13
-1 13 3 0 5 31 10 68 10 81 2 229 31 257 50 11 8 28 14 38 14 10 0 29 7 42 16
30 20 31 13 4 -62 -18 -51 -25 -112 -18 -164 1 -8 0 -22 -2 -30 -2 -9 2 -14
10 -12 7 1 28 -9 47 -23 19 -14 34 -24 34 -21 0 3 24 -6 53 -18 70 -31 214
-32 262 -1 40 26 45 34 45 73 0 17 5 32 11 32 6 0 9 -9 6 -20 -3 -11 -1 -23 4
-26 5 -3 9 -14 9 -24 0 -10 10 -22 21 -25 18 -6 21 -13 16 -47 -3 -23 -19 -59
-35 -82 l-30 -40 -168 0 c-181 1 -194 -3 -194 -50 0 -39 30 -48 158 -47 63 0
120 -3 126 -8 6 -4 26 -13 44 -19 26 -9 32 -8 32 3 0 7 9 17 20 20 12 4 30 16
42 28 20 21 20 21 13 2 -4 -11 -11 -35 -17 -52 -5 -18 -13 -33 -18 -33 -6 0
-10 -7 -10 -15 0 -8 -7 -15 -15 -15 -8 0 -15 -7 -15 -15 0 -8 -12 -17 -27 -21
-16 -3 -36 -8 -45 -11 -10 -2 -30 -7 -45 -9 -15 -3 -32 -9 -39 -15 -16 -13
-103 1 -140 23 -51 30 -108 5 -100 -45 2 -17 37 -60 43 -53 2 2 25 -3 51 -10
26 -8 70 -14 98 -13 28 1 56 -1 62 -5 7 -4 12 -2 12 4 0 8 9 10 26 6 17 -5 23
-3 19 4 -3 5 -5 10 -3 11 2 0 23 2 48 5 l45 4 -35 -30 c-19 -16 -48 -43 -65
-59 -37 -36 -124 -54 -229 -47 -40 2 -78 1 -85 -3 -6 -4 -13 -23 -14 -42 -2
-31 1 -35 38 -47 40 -14 117 -11 218 6 51 10 51 11 2 -44 -23 -25 -74 -43
-140 -49 -79 -8 -140 4 -173 35 -11 11 -25 20 -30 20 -5 0 -19 9 -32 20 -14
12 -38 20 -59 20 -20 0 -56 7 -81 16 -25 9 -65 17 -90 19 -25 1 -61 8 -80 16
-31 12 -50 27 -111 84 -9 8 -20 15 -25 15 -5 0 -18 13 -28 29 -18 26 -26 29
-73 30 -30 0 -58 3 -63 6 -6 3 -10 2 -10 -3 0 -6 -15 -10 -33 -10 -17 0 -58
-8 -90 -17 -33 -9 -76 -15 -98 -13 -21 2 -39 0 -39 -5 0 -5 -8 -7 -17 -4 -10
2 -30 -3 -45 -10 -22 -11 -27 -19 -24 -41 7 -56 15 -63 67 -60 27 2 49 6 49
11 0 4 12 7 26 7 14 0 34 4 44 10 22 12 77 21 149 26 57 4 118 -17 128 -43 3
-7 10 -13 15 -13 9 0 28 -14 85 -60 7 -6 14 -10 17 -10 2 0 26 -10 53 -21 28
-12 69 -21 98 -21 28 0 53 -4 56 -9 3 -5 29 -15 57 -21 51 -13 52 -13 48 -48
-7 -56 -8 -251 -2 -295 3 -22 8 -62 11 -90 3 -27 13 -76 20 -108 8 -32 15 -65
15 -74 0 -8 9 -28 21 -44 11 -16 18 -36 15 -44 -2 -7 0 -15 5 -17 5 -2 16 -23
25 -47 21 -63 113 -197 181 -266 32 -33 67 -74 77 -91 l18 -31 -38 -79 c-32
-65 -39 -90 -39 -139 0 -41 -5 -65 -16 -76 -9 -9 -31 -46 -49 -83 -35 -73 -49
-176 -28 -220 8 -18 5 -34 -12 -72 -45 -100 -49 -110 -53 -144 -3 -19 -8 -45
-12 -57 -7 -21 -4 -23 33 -23 41 0 62 13 41 25 -26 16 20 195 50 195 3 0 22
-13 41 -28 19 -16 43 -32 53 -35 23 -8 93 26 107 52 13 26 13 68 -1 77 -6 3
-50 7 -97 8 -81 2 -88 3 -99 26 -7 14 -13 39 -13 56 0 43 27 125 51 153 l20
24 33 -32 c32 -31 90 -49 101 -30 4 5 14 9 24 9 25 0 54 35 47 57 -6 18 -138
79 -163 77 -33 -4 -3 149 40 208 l20 27 27 -19 c15 -11 30 -17 33 -14 3 3 12
2 19 -2 20 -13 46 -16 153 -17 90 -2 106 1 155 25 110 53 153 70 186 73 37 3
94 26 94 37 0 5 9 8 19 8 22 0 71 41 71 59 0 6 5 11 11 11 5 0 7 4 4 10 -3 5
0 10 7 10 17 1 56 86 79 172 29 115 10 397 -29 429 -11 8 -34 38 -51 65 -19
32 -46 58 -73 73 -24 13 -50 30 -59 37 -8 8 -35 16 -60 18 -24 3 -46 6 -49 6
-14 5 -66 -3 -76 -11 -6 -5 -14 -6 -17 -2 -4 3 -13 0 -21 -6 -8 -7 -19 -10
-24 -7 -5 3 -22 -6 -36 -19 -15 -14 -31 -23 -36 -20 -5 3 -21 -11 -37 -30 -34
-43 -112 -102 -148 -111 -15 -4 -29 -12 -32 -20 -2 -7 -17 -12 -32 -12 -19 1
-34 11 -50 35 -23 36 -72 231 -62 248 10 18 10 39 -1 46 -14 9 -1 29 18 29 19
0 93 48 119 77 11 13 26 23 33 23 7 0 11 4 7 10 -3 5 1 25 9 45 11 25 12 43 6
59 -7 20 -4 27 18 43 47 32 80 73 93 111 6 20 15 42 20 48 5 6 8 27 7 48 -1
21 3 41 9 44 6 4 16 25 23 47 7 22 17 45 22 52 5 6 6 33 3 60 -10 68 -12 163
-4 163 4 0 5 24 2 53 -2 28 -4 65 -4 80 1 17 -3 26 -9 22 -5 -3 -22 12 -37 34
-16 22 -40 45 -56 52 -25 10 -27 15 -21 48 13 78 21 86 76 71 74 -22 166 -26
318 -16 224 15 232 22 232 199 0 127 -6 209 -15 224 -3 5 -8 38 -12 73 -3 36
-17 97 -31 137 -13 39 -24 78 -24 87 0 9 -4 16 -8 16 -5 0 -17 19 -27 43 -19
41 -21 47 -24 66 0 5 -10 13 -22 16 -20 7 -20 8 6 35 43 45 25 59 -19 16z
m-52 -169 c16 -15 41 -59 42 -72 2 -23 28 -95 34 -95 9 0 20 -41 25 -90 2 -19
7 -53 12 -75 5 -22 9 -85 8 -140 -3 -156 -3 -157 -22 -153 -20 4 -32 51 -37
143 -4 77 -44 377 -58 433 -6 23 -15 42 -19 42 -5 0 -9 5 -9 10 0 14 9 13 24
-3z m-164 -38 c-19 -17 -45 -37 -57 -46 -23 -15 -31 -33 -15 -33 5 0 32 18 61
40 41 30 56 36 65 27 32 -34 45 -70 50 -138 3 -41 12 -101 19 -134 16 -72 13
-290 -4 -311 -16 -19 -227 -9 -289 13 -26 10 -84 2 -101 -13 -9 -8 -22 -40
-29 -72 -7 -31 -21 -88 -32 -127 -11 -38 -21 -78 -23 -89 -8 -36 -24 -44 -83
-41 -31 1 -57 3 -57 5 0 1 -13 4 -30 6 -16 3 -37 12 -46 20 -8 8 -21 14 -27
14 -28 0 -35 53 -15 115 7 22 9 30 16 60 4 18 23 72 60 170 6 16 15 36 21 43
6 7 16 18 21 25 6 7 12 29 14 49 3 42 55 158 71 158 5 0 10 6 10 13 0 16 24
43 69 77 18 14 38 30 45 35 6 6 19 15 28 20 9 6 38 25 64 44 53 37 84 51 129
58 17 2 44 13 60 24 43 27 45 23 5 -12z m-707 -1894 c26 -8 62 -12 78 -8 26 5
30 3 29 -13 -1 -10 -1 -21 0 -24 4 -12 10 -49 14 -95 8 -78 22 -137 37 -146 8
-5 11 -9 7 -9 -10 0 59 -135 79 -156 21 -20 83 -10 131 22 34 23 79 33 68 15
-16 -25 -24 -216 -11 -271 3 -14 9 -41 12 -60 3 -19 15 -55 27 -80 55 -112 67
-127 130 -162 35 -19 25 -27 -37 -31 -20 -2 -39 -6 -43 -10 -11 -11 -44 -8
-44 4 0 7 -5 8 -12 3 -15 -11 -24 -10 -91 1 -38 6 -45 10 -33 19 8 6 17 21 20
33 9 29 -28 42 -54 18 -20 -18 -23 -16 -155 126 -8 9 -15 21 -15 27 0 6 -9 16
-20 22 -11 6 -20 17 -20 25 0 8 -3 15 -7 15 -5 0 -13 10 -19 23 -6 12 -20 40
-32 62 -50 94 -87 186 -98 239 -17 82 -27 189 -28 299 -1 145 -5 140 87 112z
m740 -218 c6 -15 -1 -58 -42 -267 -16 -85 -31 -168 -33 -185 l-3 -30 -16 30
c-24 48 -11 216 26 335 8 25 17 60 20 79 3 19 8 38 11 43 8 12 31 10 37 -5z
m87 11 c14 -75 8 -171 -25 -348 -2 -14 -6 -45 -9 -70 -11 -91 -17 -125 -22
-142 -2 -9 0 -19 5 -22 18 -12 28 19 36 119 12 133 28 239 40 269 8 18 17 60
21 94 4 36 11 62 18 62 18 0 57 -30 51 -40 -3 -4 1 -10 7 -13 10 -3 10 -9 -1
-29 -7 -14 -10 -34 -7 -45 6 -17 -2 -91 -20 -198 -3 -16 -9 -64 -13 -105 -8
-78 -34 -146 -62 -163 -12 -8 -27 -6 -52 6 -19 9 -40 17 -46 17 -6 0 -11 4
-11 9 0 5 -13 23 -30 39 -16 17 -28 36 -26 44 3 7 7 38 10 68 6 71 26 164 67
323 27 102 37 127 51 127 10 0 18 -1 18 -2z m-177 -45 c3 -5 -4 -66 -14 -138
-10 -71 -19 -150 -19 -175 l-1 -45 -16 30 c-9 17 -19 32 -22 35 -6 5 -10 64
-10 145 0 22 7 50 15 62 7 12 14 30 14 39 0 30 42 66 53 47z m365 -194 c9 -81
9 -211 0 -267 -7 -44 -45 -119 -71 -140 -35 -29 -58 17 -33 67 7 14 14 56 15
93 1 36 11 102 23 145 11 43 25 102 31 131 13 66 26 55 35 -29z m-448 -269 c3
-3 16 -26 29 -52 13 -27 28 -48 33 -48 4 0 8 -5 8 -10 0 -6 14 -24 30 -40 34
-33 36 -40 15 -40 -22 0 -78 30 -71 37 3 4 -3 12 -14 20 -11 8 -20 23 -20 33
0 10 -7 25 -15 33 -15 15 -35 86 -34 122 0 14 5 10 17 -15 9 -19 19 -37 22
-40z m-314 -685 c16 -8 22 -15 13 -15 -8 0 -24 7 -35 15 -25 19 -14 19 22 0z
m-36 -330 c-7 -9 -16 -12 -19 -7 -3 5 -13 12 -21 15 -8 3 0 6 19 6 29 1 32 -1
21 -14z"/>
</g>
</svg>
