<?xml version="1.0" standalone="no"?>
<!DOCTYPE svg PUBLIC "-//W3C//DTD SVG 20010904//EN"
 "http://www.w3.org/TR/2001/REC-SVG-20010904/DTD/svg10.dtd">
<svg version="1.0" xmlns="http://www.w3.org/2000/svg"
 width="497.000000pt" height="447.000000pt" viewBox="0 0 497.000000 447.000000"
 preserveAspectRatio="xMidYMid meet">
<metadata>
Created by potrace 1.16, written by Peter Selinger 2001-2019
</metadata>
<g transform="translate(0.000000,447.000000) scale(0.100000,-0.100000)"
fill="#000000" stroke="none">
<path d="M2183 4405 c-37 -21 -60 -41 -103 -92 -26 -31 -30 -64 -15 -134 8
-39 15 -78 15 -87 0 -20 -88 -56 -105 -43 -21 17 -92 34 -130 32 -59 -4 -132
-47 -201 -120 -50 -51 -64 -74 -74 -116 -22 -91 5 -201 50 -209 8 -1 25 -7 36
-14 13 -7 58 -11 110 -10 109 2 127 -4 155 -48 32 -53 90 -78 160 -70 54 5
200 50 247 75 32 17 58 13 115 -15 51 -26 54 -27 127 -14 41 6 87 18 101 26
31 16 94 20 129 10 14 -5 53 -21 88 -37 41 -19 87 -31 132 -35 97 -8 154 13
239 86 91 78 116 133 115 250 -1 103 -15 138 -80 202 -66 66 -103 81 -205 86
-80 4 -88 6 -98 29 -6 13 -11 28 -11 33 0 5 -15 34 -34 63 -51 79 -88 89 -241
62 -25 -5 -38 1 -79 40 -27 25 -60 48 -73 51 -30 8 -140 -14 -171 -34 -20 -13
-24 -13 -35 0 -19 22 -62 47 -94 52 -19 4 -42 -3 -70 -19z m87 -72 c14 -9 27
-20 30 -23 3 -3 18 -16 34 -28 21 -16 33 -19 46 -12 10 6 29 10 42 10 13 0 29
5 35 11 7 7 27 13 47 15 30 2 40 -3 70 -37 20 -21 36 -46 36 -55 0 -8 4 -13 9
-9 6 3 14 -1 18 -10 8 -13 13 -13 47 4 46 24 123 41 145 33 34 -13 58 -49 72
-107 8 -36 22 -68 36 -81 20 -19 29 -20 90 -12 44 5 69 4 71 -2 2 -6 8 -8 13
-4 5 3 9 0 9 -6 0 -8 9 -10 23 -6 18 4 32 -4 64 -37 59 -62 73 -87 73 -132 0
-52 -41 -139 -76 -162 -16 -10 -41 -31 -56 -48 -25 -28 -30 -30 -93 -28 -65 2
-212 43 -244 67 -23 18 -127 10 -165 -12 -58 -34 -117 -36 -178 -6 -54 26
-120 33 -141 16 -7 -6 -65 -27 -130 -47 -147 -46 -172 -44 -212 20 -17 27 -40
48 -58 55 -33 11 -135 12 -182 1 -19 -5 -42 -2 -62 7 -38 18 -47 61 -25 124
16 49 117 152 153 157 48 8 112 3 119 -9 10 -15 67 -23 75 -10 3 6 16 10 28
10 12 0 40 9 62 19 31 14 45 28 57 59 13 35 14 44 2 60 -7 11 -11 21 -9 23 2
3 0 23 -6 46 -11 53 0 86 48 129 42 39 49 40 83 17z"/>
<path d="M4757 3224 c-1 -1 -254 -5 -562 -9 -308 -4 -618 -9 -690 -10 -71 -2
-323 -6 -560 -9 -236 -4 -502 -9 -590 -11 -88 -3 -288 -7 -445 -10 -157 -3
-406 -7 -555 -10 -148 -3 -459 -8 -690 -10 -231 -3 -430 -8 -443 -11 -18 -5
-22 -12 -18 -38 6 -53 24 -86 53 -97 20 -8 140 -9 393 -4 201 3 559 8 796 10
237 2 507 7 600 10 93 3 331 8 529 10 198 3 470 7 605 10 135 2 454 7 710 10
256 2 467 5 470 5 3 1 41 1 85 0 44 0 140 -1 213 -2 72 0 132 -5 132 -9 0 -9
21 -4 58 14 23 11 30 41 11 53 -8 5 -8 8 0 14 16 9 3 40 -17 40 -12 0 -13 3
-5 11 18 18 -18 50 -51 47 -15 -1 -28 -3 -29 -4z"/>
<path d="M1592 2787 c-38 -20 -81 -65 -82 -84 0 -14 -19 -17 -92 -14 -26 1
-57 -3 -70 -10 -34 -18 -128 -111 -128 -126 0 -8 -7 -16 -15 -20 -17 -6 -45
-64 -45 -92 0 -9 -31 -45 -69 -80 -72 -65 -103 -117 -137 -223 -9 -29 -20 -57
-24 -63 -15 -20 -34 -91 -35 -130 -1 -22 -7 -80 -12 -130 -6 -49 -9 -227 -8
-395 2 -295 3 -308 29 -415 16 -60 29 -117 30 -125 1 -8 8 -28 14 -43 7 -16
12 -33 12 -39 0 -25 62 -140 95 -177 20 -22 64 -58 98 -79 74 -47 94 -68 108
-113 20 -64 36 -168 34 -225 -2 -45 2 -61 18 -80 24 -28 36 -29 62 -10 15 11
18 25 16 77 -4 125 -49 319 -73 319 -5 0 -8 6 -8 13 0 19 -74 85 -113 102 -45
19 -103 78 -125 128 -24 54 -80 248 -86 302 -3 22 -8 51 -11 65 -5 22 -5 84
-1 230 0 25 -3 115 -7 200 -9 157 1 312 24 415 38 163 145 380 125 254 -16
-105 -34 -334 -35 -458 -1 -74 -7 -143 -12 -153 -23 -43 39 -65 79 -28 21 19
22 30 23 168 2 241 12 364 40 507 36 181 59 232 135 307 27 26 79 46 91 34 6
-6 -26 -146 -37 -161 -5 -5 -11 -26 -14 -45 -43 -241 -47 -274 -57 -599 -2
-56 14 -81 50 -81 37 1 40 13 46 213 3 108 10 208 15 221 5 13 7 26 4 28 -2 3
1 29 7 59 6 30 13 65 15 79 15 78 47 199 59 227 8 17 15 34 15 37 0 11 43 69
77 104 42 44 78 37 89 -16 4 -21 8 -39 9 -42 0 -3 4 -22 8 -43 5 -21 12 -35
18 -32 12 8 12 -38 -1 -51 -16 -16 -73 -309 -96 -489 -2 -22 -9 -69 -14 -105
-13 -92 -15 -122 -6 -147 8 -26 32 -33 64 -19 17 7 22 17 22 46 0 20 4 61 9
91 5 30 12 80 15 112 3 32 8 62 11 66 2 5 9 50 15 101 20 179 31 229 65 307
44 99 83 151 121 163 40 13 46 11 49 -24 2 -13 6 -33 10 -45 3 -11 1 -46 -5
-78 -7 -32 -13 -65 -15 -73 -1 -8 -5 -22 -8 -30 -27 -76 -40 -161 -43 -290
-16 -548 -17 -675 -8 -770 4 -41 7 -80 6 -86 -3 -17 25 -37 53 -37 14 0 42 15
63 34 21 19 49 41 62 49 13 8 31 22 40 30 9 8 36 26 60 39 25 13 54 32 66 42
11 11 24 19 30 19 5 0 20 9 34 20 24 18 25 22 27 167 1 158 14 216 55 260 32
34 42 29 60 -29 9 -29 26 -77 37 -107 11 -29 19 -56 19 -60 -3 -10 14 -105 20
-116 12 -19 10 -103 -4 -175 -18 -91 -33 -134 -97 -270 -41 -89 -148 -255
-182 -285 -25 -22 -87 -110 -105 -150 -16 -36 -20 -67 -21 -181 0 -77 -6 -193
-13 -259 -10 -105 -10 -124 4 -147 15 -28 34 -34 59 -19 17 11 37 180 45 386
6 168 16 200 81 270 20 22 55 67 77 100 23 33 45 62 50 63 4 2 8 8 8 13 0 5
16 33 35 63 19 30 35 61 35 69 0 7 5 18 11 24 30 30 92 208 109 313 23 145 22
163 -20 308 -6 17 -14 47 -18 65 -5 18 -16 48 -25 67 -8 19 -19 46 -22 60 -4
14 -17 46 -29 73 -19 42 -24 47 -54 47 -75 0 -152 -67 -185 -163 -14 -40 -18
-82 -17 -178 0 -118 -1 -127 -23 -146 -29 -28 -226 -143 -243 -143 -4 0 -3 64
2 143 4 78 7 151 6 162 -3 64 -1 188 4 235 7 65 8 105 4 180 -3 69 16 207 36
263 17 45 20 60 30 147 6 61 -10 183 -26 188 -5 2 -10 12 -10 23 0 24 -45 53
-84 56 -42 3 -86 -19 -129 -63 l-36 -37 -6 29 c-3 16 -13 40 -21 54 -8 14 -18
32 -20 41 -8 24 -65 50 -104 47 -18 -1 -49 -11 -68 -21z"/>
<path d="M3607 2770 c-14 -11 -29 -20 -34 -20 -5 0 -19 -10 -30 -22 -58 -63
-74 -71 -137 -65 -60 5 -101 -5 -122 -32 -7 -9 -10 -20 -8 -26 2 -5 5 -35 8
-65 8 -96 54 -299 90 -399 51 -138 65 -471 27 -637 -12 -55 -25 -114 -29 -133
-6 -32 -32 -57 -32 -31 0 21 -69 119 -121 171 l-52 52 15 62 c20 83 15 216 -9
275 -29 73 -55 99 -107 109 -25 5 -46 5 -46 1 0 -4 -9 -11 -20 -16 -14 -6 -30
-36 -49 -89 -15 -44 -39 -105 -53 -135 -45 -96 -59 -155 -60 -245 0 -47 4 -91
10 -98 6 -7 18 -38 26 -68 36 -132 86 -261 137 -349 4 -8 23 -41 41 -73 18
-31 36 -57 39 -57 15 0 109 -99 109 -114 0 -9 3 -16 8 -16 10 0 32 -52 38 -91
22 -156 32 -281 23 -311 -15 -52 -9 -130 13 -151 23 -22 74 -15 80 11 7 26
-10 362 -21 412 -5 25 -12 62 -16 82 -3 20 -12 50 -20 65 -8 15 -15 34 -15 41
0 6 -6 12 -14 12 -8 0 -17 8 -21 19 -7 22 -72 91 -85 91 -6 0 -10 4 -10 8 0 5
-8 17 -19 28 -10 11 -26 38 -36 60 -10 21 -25 47 -33 57 -8 9 -11 17 -6 17 5
0 4 4 -2 8 -19 13 -84 177 -88 221 -1 9 -12 49 -25 89 -32 101 -23 192 29 307
12 28 33 74 46 103 13 28 30 52 37 52 7 0 20 -15 28 -32 19 -42 16 -129 -9
-225 -19 -69 -19 -123 -2 -123 10 0 128 -116 153 -150 9 -13 17 -32 17 -42 0
-10 5 -18 12 -18 6 0 9 -3 5 -6 -13 -13 59 -84 85 -84 17 0 44 23 90 79 13 16
29 76 44 171 4 25 9 52 10 60 22 116 26 205 15 328 -15 162 -20 212 -25 232
-8 41 -54 195 -66 225 -5 11 -11 40 -14 65 -8 64 -11 73 -20 89 -5 7 -11 37
-13 66 l-5 53 39 -8 c58 -13 83 -22 83 -30 0 -4 11 -18 25 -32 26 -26 57 -115
100 -292 22 -89 28 -134 29 -250 1 -78 5 -147 9 -153 9 -15 46 -17 66 -4 11 7
13 38 8 167 -6 151 -9 178 -24 249 -3 17 -7 37 -8 45 -2 21 -34 131 -45 155
-4 11 -11 35 -14 53 -5 29 -37 82 -73 120 -10 11 -6 20 25 48 43 40 54 41 81
13 18 -20 30 -52 66 -179 30 -108 39 -136 46 -145 4 -5 10 -28 14 -50 4 -22
14 -56 23 -75 16 -35 25 -92 41 -253 9 -99 21 -119 65 -110 l29 6 -6 91 c-3
50 -8 102 -11 116 -4 14 -11 52 -16 85 -5 33 -18 85 -29 115 -11 30 -29 93
-41 140 -12 47 -32 116 -46 153 -13 38 -24 71 -24 75 0 4 22 8 49 10 42 2 54
-2 91 -30 67 -51 124 -184 150 -348 5 -36 17 -101 25 -145 8 -44 17 -122 19
-173 4 -102 3 -97 32 -106 67 -20 72 61 22 357 -10 65 -18 128 -16 140 3 20 5
20 43 -15 38 -34 75 -110 75 -152 0 -9 4 -16 9 -16 8 0 21 -43 26 -85 1 -11 5
-29 9 -40 18 -47 25 -72 30 -102 2 -17 7 -36 9 -41 18 -27 47 -171 46 -224 -1
-115 -49 -466 -74 -533 -8 -22 -14 -55 -15 -72 0 -18 -5 -33 -11 -33 -5 0 -8
-4 -5 -8 3 -5 -4 -38 -14 -73 -11 -35 -20 -66 -21 -69 0 -3 -7 -19 -14 -36 -7
-17 -16 -40 -19 -52 -4 -12 -12 -22 -17 -22 -5 0 -9 -6 -9 -13 0 -8 -11 -19
-25 -25 -14 -6 -25 -18 -25 -26 0 -7 -6 -19 -14 -25 -8 -7 -18 -31 -21 -54 -4
-23 -11 -49 -15 -57 -4 -8 -11 -44 -15 -80 -4 -36 -9 -68 -11 -72 -2 -3 -7
-44 -10 -91 -6 -80 -5 -86 15 -97 28 -14 79 -4 85 18 2 9 7 67 11 127 7 126
21 218 38 248 7 12 24 35 39 52 16 16 28 36 28 43 0 6 5 12 10 12 20 0 88 193
80 226 -1 4 3 10 9 13 6 4 12 25 15 46 2 22 15 85 29 140 14 55 28 127 32 160
14 116 16 130 26 168 9 35 13 222 5 257 -1 8 -6 26 -9 40 -4 14 -8 36 -10 50
-2 14 -9 38 -16 54 -6 16 -13 36 -14 45 -2 9 -8 25 -14 37 -7 11 -10 29 -9 40
2 10 -3 32 -11 48 -8 15 -17 40 -19 55 -7 40 -24 104 -33 126 -22 53 -57 121
-68 133 -7 7 -18 21 -25 30 -17 22 -94 72 -119 77 -28 6 -39 14 -39 30 0 27
-51 120 -86 158 -60 64 -97 80 -193 79 -81 0 -84 1 -121 34 -43 39 -58 41 -93
14z"/>
</g>
</svg>
