<?xml version="1.0" standalone="no"?>
<!DOCTYPE svg PUBLIC "-//W3C//DTD SVG 20010904//EN"
 "http://www.w3.org/TR/2001/REC-SVG-20010904/DTD/svg10.dtd">
<svg version="1.0" xmlns="http://www.w3.org/2000/svg"
 width="525.000000pt" height="529.000000pt" viewBox="0 0 525.000000 529.000000"
 preserveAspectRatio="xMidYMid meet">
<metadata>
Created by potrace 1.16, written by Peter Selinger 2001-2019
</metadata>
<g transform="translate(0.000000,529.000000) scale(0.100000,-0.100000)"
fill="#000000" stroke="none">
<path d="M4178 4979 c-7 -4 -56 -22 -108 -40 -52 -18 -102 -38 -110 -44 -8 -7
-29 -20 -46 -28 -27 -14 -80 -53 -140 -104 -50 -43 -155 -260 -159 -327 -4
-77 23 -159 70 -214 11 -13 27 -32 36 -42 22 -27 158 -70 202 -65 169 22 215
34 277 74 35 23 68 41 74 41 13 0 50 38 91 95 17 22 34 43 38 46 5 3 8 9 8 13
-1 9 9 36 36 96 14 32 29 92 35 145 9 78 8 96 -7 142 -10 29 -22 53 -27 53 -5
0 -7 4 -4 8 7 11 -78 82 -98 82 -8 0 -22 8 -32 18 -10 9 -21 17 -25 17 -5 0
-14 7 -21 16 -14 19 -70 29 -90 18z m85 -144 c26 -4 50 -11 52 -16 3 -4 12 -6
19 -3 7 3 27 -7 45 -21 30 -26 31 -29 31 -110 0 -71 -4 -93 -30 -150 -16 -37
-30 -73 -30 -81 0 -8 -4 -14 -10 -14 -5 0 -10 -6 -10 -12 0 -19 -113 -123
-149 -138 -17 -7 -31 -16 -31 -21 0 -5 -6 -9 -14 -9 -7 0 -42 -9 -77 -21 -74
-23 -186 -24 -234 -1 -110 52 -151 204 -88 322 74 140 143 209 249 249 33 13
66 26 74 31 17 9 129 6 203 -5z"/>
<path d="M4055 4729 c-16 -10 -36 -18 -42 -18 -7 -1 -21 -9 -32 -18 -10 -10
-31 -30 -47 -44 -44 -40 -51 -52 -59 -98 -8 -48 3 -76 45 -122 39 -41 64 -51
123 -44 87 10 189 95 205 172 10 46 6 83 -9 83 -5 0 -9 7 -9 16 0 8 -4 12 -10
9 -5 -3 -10 -1 -10 5 0 7 -7 10 -15 6 -10 -3 -15 1 -15 12 -1 50 -71 73 -125
41z m103 -128 c31 -19 -39 -99 -92 -106 -11 -1 -25 -4 -31 -5 -17 -6 -64 22
-70 41 -8 25 24 72 45 66 9 -2 35 -1 56 3 55 11 77 11 92 1z"/>
<path d="M2720 4304 c-16 -5 -23 -16 -59 -91 -22 -47 -72 -103 -90 -103 -7 0
-9 -4 -6 -10 3 -5 2 -10 -3 -10 -11 0 -30 -44 -33 -75 -1 -11 3 -33 10 -50 14
-34 70 -87 83 -79 10 6 107 -14 123 -26 6 -4 27 -10 49 -13 21 -3 46 -12 55
-20 19 -17 49 -19 78 -5 38 19 52 82 28 127 -15 31 -15 31 12 32 16 1 35 2 45
3 9 1 19 4 23 7 3 4 34 5 68 2 34 -3 69 -5 77 -5 30 1 116 -21 156 -40 22 -10
48 -18 57 -18 17 0 88 -30 97 -41 3 -3 32 -14 65 -24 68 -21 132 -66 141 -99
7 -28 77 -72 111 -69 35 3 53 22 62 65 9 37 -4 70 -44 119 -33 40 -125 109
-139 103 -7 -3 -69 24 -138 59 -117 61 -188 91 -240 101 -13 2 -43 10 -68 16
-26 8 -117 13 -220 14 l-175 1 2 25 c7 84 -45 126 -127 104z"/>
<path d="M1290 4090 c-113 -16 -249 -130 -300 -250 -34 -82 -40 -228 -11 -290
29 -63 64 -97 129 -127 61 -28 152 -33 220 -14 17 5 32 7 32 5 0 -3 32 12 71
32 70 37 136 104 123 125 -3 5 1 9 8 9 8 0 27 28 43 63 16 34 32 64 36 67 38
30 38 119 -1 196 -33 67 -56 95 -100 120 -16 10 -30 22 -30 26 0 4 -13 8 -29
8 -16 0 -37 7 -46 16 -19 20 -72 25 -145 14z m159 -107 c40 -7 123 -86 119
-112 -1 -9 1 -22 6 -29 28 -45 -16 -161 -96 -254 -40 -46 -58 -58 -91 -64 -23
-4 -47 -7 -54 -6 -6 2 -14 -2 -18 -8 -12 -20 -117 -11 -172 14 -55 26 -79 58
-99 131 -21 77 19 180 100 257 50 48 57 52 101 71 39 17 107 17 204 0z"/>
<path d="M1340 3870 c-8 -5 -23 -10 -32 -10 -10 0 -41 -22 -69 -50 -80 -78
-79 -151 4 -200 18 -11 37 -20 42 -20 6 -1 16 -6 22 -12 18 -15 112 21 131 49
8 13 20 23 27 23 29 0 36 111 9 141 -10 11 -19 27 -20 36 -2 9 -9 22 -17 30
-17 18 -77 26 -97 13z m46 -104 c22 -23 16 -53 -15 -75 -32 -23 -64 -18 -91
13 -16 20 -5 35 45 60 37 20 43 20 61 2z"/>
<path d="M2382 3835 c-35 -12 -73 -32 -86 -44 -12 -11 -27 -21 -34 -21 -29 0
-33 -42 -28 -328 3 -158 8 -424 12 -592 l5 -306 -33 -11 c-18 -7 -67 -17 -108
-22 -41 -6 -86 -13 -100 -16 -14 -3 -41 -8 -60 -11 -50 -10 -175 -101 -284
-210 -41 -40 -124 -94 -211 -136 -38 -19 -92 -47 -120 -63 -56 -32 -244 -216
-261 -255 -6 -14 -23 -50 -37 -81 -15 -31 -27 -70 -27 -86 0 -35 -40 -83 -69
-83 -26 0 -148 -85 -163 -113 -6 -12 -14 -24 -17 -27 -12 -10 -61 -90 -61 -99
0 -6 -6 -14 -14 -18 -8 -4 -31 -39 -52 -78 l-39 -70 1 -165 c0 -164 0 -166 38
-275 83 -243 176 -331 446 -420 47 -16 90 -32 96 -36 11 -9 277 -99 309 -105
11 -2 40 -8 65 -13 52 -12 91 -19 175 -31 33 -4 114 -18 180 -29 87 -16 161
-21 271 -21 84 0 158 2 165 4 8 3 43 7 79 10 36 3 108 17 160 32 52 14 131 36
175 48 44 11 82 23 85 26 10 10 56 29 110 47 58 20 140 62 140 73 0 4 30 20
68 35 49 21 84 45 131 92 35 34 68 63 73 63 4 0 8 6 8 13 0 7 8 19 18 28 9 8
44 55 76 104 32 50 68 103 78 118 49 72 116 225 127 292 14 84 8 283 -11 344
-13 43 -51 92 -96 123 -22 15 -23 18 -11 59 17 63 12 127 -15 211 -20 61 -32
80 -73 115 -26 24 -52 43 -56 43 -13 0 -101 62 -146 102 -22 21 -41 46 -41 57
0 10 -7 21 -15 25 -8 3 -25 27 -37 53 -26 56 -86 143 -99 143 -13 0 -99 85
-99 97 0 13 -23 23 -53 23 -16 0 -18 3 -9 9 10 6 8 10 -10 16 -12 4 -29 6 -37
5 -7 -1 -10 3 -7 9 4 6 -12 15 -36 22 -24 7 -47 14 -53 16 -5 1 -35 7 -65 13
-30 6 -64 12 -75 15 -22 5 -23 28 -10 400 3 88 8 295 11 460 3 169 10 301 15
303 17 7 10 72 -8 79 -10 4 -20 9 -23 13 -3 3 -22 16 -43 28 -48 28 -102 27
-185 -3z m135 -102 c-3 -15 1 -47 9 -72 15 -47 19 -308 9 -566 -3 -66 -7 -205
-10 -310 -10 -356 -13 -430 -24 -520 -13 -111 -24 -148 -50 -176 -16 -18 -26
-20 -57 -14 -75 14 -71 -19 -72 588 -1 298 -4 605 -6 682 -8 206 -7 286 2 319
10 37 115 96 169 96 33 0 35 -2 30 -27z m229 -1304 c29 -6 78 -25 109 -44 32
-19 60 -35 64 -35 11 -1 71 -59 71 -70 0 -5 5 -10 12 -10 16 0 78 -61 78 -76
0 -7 9 -29 21 -48 12 -20 18 -36 14 -36 -4 0 -3 -6 3 -12 6 -8 9 -56 7 -114
-3 -92 -6 -108 -38 -176 -33 -69 -105 -154 -154 -182 -10 -5 -29 -20 -42 -32
-14 -13 -38 -28 -53 -35 -15 -6 -28 -15 -28 -18 0 -12 -84 -51 -114 -53 -14
-1 -26 -5 -26 -9 0 -6 -43 -17 -100 -25 -54 -8 -277 -3 -334 7 -34 5 -86 12
-116 14 -55 3 -66 5 -106 18 -11 4 -41 9 -65 11 -25 2 -70 18 -104 36 -33 18
-73 40 -90 48 -16 8 -48 39 -70 69 -22 30 -44 60 -50 67 -12 15 -29 41 -52 81
-17 30 -23 131 -11 185 16 72 99 172 259 314 57 51 153 96 204 96 22 0 56 4
75 9 19 5 55 11 80 14 l45 4 -2 -86 c-1 -47 -4 -120 -6 -162 -5 -90 10 -141
51 -180 60 -56 178 -54 240 4 33 31 51 75 57 137 3 30 7 73 9 95 2 22 7 74 11
115 4 41 11 80 17 87 9 12 37 10 134 -8z m-1247 -395 c-8 -9 -19 -47 -24 -83
-9 -55 -7 -77 8 -131 28 -102 33 -116 56 -141 28 -31 41 -48 41 -54 0 -5 6
-12 67 -77 37 -41 122 -108 136 -108 6 0 18 -6 26 -13 15 -13 101 -37 148 -43
11 -1 29 -5 40 -8 10 -3 36 -6 58 -7 22 -1 67 -8 100 -15 33 -8 94 -14 135
-14 41 0 80 -4 86 -8 16 -10 197 3 264 20 65 15 196 78 261 125 26 18 49 33
53 33 3 0 33 26 67 58 118 110 177 220 196 365 3 21 8 36 12 35 3 -2 18 -10
34 -17 15 -8 27 -18 27 -22 0 -11 49 -59 60 -59 5 0 24 -16 41 -35 18 -19 34
-33 37 -30 3 2 13 -10 22 -28 22 -41 27 -170 7 -200 -7 -12 -14 -37 -15 -56
-2 -19 -14 -55 -28 -81 -14 -25 -26 -57 -27 -70 -1 -17 -33 -57 -98 -121 -107
-107 -161 -147 -231 -174 -27 -10 -48 -21 -48 -24 0 -22 -126 -62 -265 -85
-49 -8 -101 -17 -115 -21 -84 -20 -602 -28 -700 -10 -14 2 -52 7 -85 10 -32 4
-66 10 -75 14 -8 4 -49 16 -90 25 -41 10 -95 24 -120 31 -25 8 -72 22 -105 31
-33 10 -64 20 -70 24 -5 4 -32 15 -60 25 -51 19 -165 116 -165 141 0 7 -4 14
-9 16 -5 2 -24 50 -42 108 -49 157 -43 250 23 398 23 51 166 195 223 224 22
11 60 31 85 44 54 29 80 32 59 8z m-495 -634 c36 -186 121 -317 252 -388 40
-22 95 -47 121 -55 89 -30 208 -65 243 -72 19 -4 54 -13 76 -20 23 -8 64 -16
90 -19 27 -3 71 -9 98 -12 165 -21 518 -30 610 -15 41 7 103 14 138 16 35 2
70 5 78 8 33 12 76 21 100 22 35 2 128 31 175 55 21 11 48 20 59 20 33 0 128
52 176 96 75 71 117 104 129 104 6 0 11 5 11 11 0 6 25 39 55 72 45 51 57 73
68 122 12 50 17 59 33 57 58 -10 84 -83 78 -220 -4 -97 -24 -172 -64 -232 -9
-14 -23 -41 -30 -60 -8 -19 -29 -55 -48 -79 -18 -24 -42 -62 -54 -85 -26 -51
-45 -75 -113 -148 -53 -55 -134 -118 -154 -118 -5 0 -18 -11 -29 -25 -11 -14
-27 -25 -35 -25 -9 0 -18 -4 -22 -9 -3 -5 -22 -15 -43 -22 -20 -6 -44 -18 -53
-25 -9 -8 -68 -32 -132 -54 -118 -41 -145 -48 -184 -49 -12 -1 -28 -7 -35 -14
-19 -18 -113 -40 -138 -32 -12 4 -28 1 -36 -6 -10 -8 -58 -14 -137 -16 -67 -2
-133 -4 -147 -4 -56 -2 -257 20 -283 30 -16 6 -51 11 -78 11 -28 0 -80 6 -117
14 -37 8 -85 18 -107 22 -45 8 -43 7 -110 27 -27 8 -74 22 -103 30 -29 9 -59
20 -67 27 -7 6 -21 13 -31 15 -65 16 -204 70 -289 113 -116 59 -198 161 -238
297 -10 33 -25 75 -33 93 -16 38 -19 159 -4 246 7 45 23 80 70 153 33 52 60
96 60 99 0 23 102 101 150 114 26 7 31 -1 44 -70z"/>
<path d="M4310 3808 c-19 -5 -75 -16 -125 -23 -49 -7 -105 -18 -123 -24 -58
-17 -195 -91 -243 -129 -25 -20 -70 -57 -100 -81 -29 -24 -65 -62 -78 -85 -13
-22 -34 -52 -47 -67 -13 -14 -24 -30 -24 -36 0 -6 -7 -16 -16 -24 -25 -21 -71
-130 -84 -199 -21 -117 6 -273 63 -365 54 -86 80 -105 262 -191 35 -17 62 -19
225 -17 161 1 192 4 240 22 30 12 62 21 70 21 9 0 32 11 52 25 20 14 46 25 56
25 30 0 98 54 201 157 140 141 210 246 211 315 0 9 11 37 24 62 13 24 26 59
28 77 7 45 -8 197 -21 213 -6 7 -8 16 -5 19 8 7 -39 102 -66 135 -10 12 -36
30 -57 38 -21 9 -53 32 -72 51 -18 19 -36 32 -39 29 -3 -3 -33 9 -67 28 -55
30 -68 33 -145 33 -47 0 -101 -4 -120 -9z m175 -94 c48 -7 145 -57 183 -94 15
-14 39 -34 55 -43 15 -10 27 -24 27 -32 0 -7 6 -20 13 -27 61 -61 77 -204 36
-323 -12 -36 -26 -68 -30 -71 -4 -2 -6 -10 -3 -17 8 -21 -116 -155 -212 -229
-16 -13 -31 -26 -32 -31 -8 -17 -126 -90 -190 -116 -104 -43 -105 -44 -142
-48 -81 -8 -278 -8 -320 0 -53 10 -176 71 -205 102 -45 48 -75 96 -99 156 -53
134 -39 214 60 362 70 105 174 218 232 252 17 11 32 22 32 26 0 4 38 25 85 48
97 46 202 70 294 67 49 -1 68 3 84 17 16 13 31 17 57 12 19 -3 53 -8 75 -11z"/>
<path d="M4168 3526 c-39 -8 -79 -28 -125 -59 -95 -67 -103 -73 -103 -84 0 -5
-9 -18 -20 -28 -11 -10 -20 -24 -20 -31 0 -7 -6 -19 -14 -26 -38 -39 -36 -174
4 -246 32 -56 66 -68 195 -67 114 1 164 15 192 55 6 9 32 29 57 45 25 16 46
33 46 37 0 5 11 25 24 46 18 27 25 56 29 111 5 65 3 80 -18 120 -28 55 -47 68
-113 77 -37 5 -49 10 -45 20 3 8 0 14 -6 14 -6 0 -11 7 -11 15 0 17 3 17 -72
1z m170 -147 c23 -14 29 -41 24 -105 -3 -31 -13 -51 -37 -76 -47 -51 -117 -96
-164 -107 -44 -10 -146 -4 -172 10 -44 23 -59 130 -24 169 10 11 15 20 12 20
-3 0 11 18 32 41 28 31 51 44 92 55 65 16 206 12 237 -7z"/>
</g>
</svg>
