<?xml version="1.0" standalone="no"?>
<!DOCTYPE svg PUBLIC "-//W3C//DTD SVG 20010904//EN"
 "http://www.w3.org/TR/2001/REC-SVG-20010904/DTD/svg10.dtd">
<svg version="1.0" xmlns="http://www.w3.org/2000/svg"
 width="481.000000pt" height="403.000000pt" viewBox="0 0 481.000000 403.000000"
 preserveAspectRatio="xMidYMid meet">
<metadata>
Created by potrace 1.16, written by Peter Selinger 2001-2019
</metadata>
<g transform="translate(0.000000,403.000000) scale(0.100000,-0.100000)"
fill="#000000" stroke="none">
<path d="M2235 3782 c-123 -26 -201 -83 -225 -162 -7 -25 -29 -60 -47 -77 -18
-19 -33 -43 -33 -56 0 -13 -4 -27 -9 -32 -5 -6 -11 -27 -14 -48 -4 -32 -2 -38
17 -43 14 -3 30 -21 40 -45 10 -21 21 -39 26 -39 8 0 41 -63 44 -87 1 -8 7
-18 12 -21 5 -4 17 -23 27 -42 42 -83 105 -189 116 -200 10 -9 31 -49 31 -60
0 -10 10 -23 63 -82 28 -33 34 -53 17 -63 -6 -4 -8 -11 -5 -16 4 -5 0 -9 -8
-9 -8 0 -26 -11 -40 -24 -22 -21 -26 -30 -20 -58 9 -44 42 -118 53 -118 4 0
11 -13 15 -30 4 -16 11 -33 16 -36 6 -3 14 -16 19 -27 6 -12 20 -38 32 -58 54
-87 88 -147 88 -157 0 -18 72 -162 81 -162 5 0 9 -6 9 -12 0 -7 20 -53 45
-102 25 -48 45 -95 45 -102 0 -8 7 -17 15 -20 8 -4 15 -14 15 -23 0 -9 14 -38
30 -66 16 -27 30 -58 30 -67 0 -9 6 -21 13 -25 7 -4 23 -25 37 -45 14 -21 28
-38 33 -38 4 0 12 -11 17 -25 5 -14 18 -29 27 -32 10 -4 24 -13 32 -21 8 -7
39 -32 70 -55 31 -22 58 -44 59 -49 2 -4 10 -8 18 -8 8 0 14 -4 14 -10 0 -5 6
-10 13 -10 18 0 67 -24 67 -32 0 -5 6 -8 14 -8 15 0 126 -101 126 -116 1 -5
25 -27 55 -49 30 -22 55 -43 55 -47 0 -4 14 -30 30 -58 17 -28 28 -55 26 -59
-3 -4 8 -22 24 -39 34 -38 79 -43 110 -12 19 19 19 21 3 57 -33 71 -139 228
-179 263 -22 19 -53 52 -68 73 -16 20 -34 37 -41 37 -7 0 -25 14 -38 30 -14
17 -33 30 -41 30 -9 0 -16 5 -16 10 0 6 -10 10 -23 10 -13 0 -28 5 -34 11 -6
6 -17 11 -24 12 -12 2 -36 20 -83 62 -6 6 -31 23 -56 39 -44 29 -67 53 -68 69
0 5 -12 22 -27 37 -28 29 -51 69 -105 180 -40 81 -90 162 -107 173 -7 4 -13
12 -13 18 0 18 -170 353 -189 372 -6 6 -11 19 -11 29 0 10 -4 18 -9 18 -5 0
-14 15 -21 33 -7 17 -24 46 -37 64 -12 17 -23 41 -23 52 0 12 -6 21 -12 21 -7
0 -5 5 5 11 9 5 17 15 17 22 0 13 76 57 98 57 42 0 108 -63 141 -135 16 -33
49 -84 75 -114 25 -30 46 -61 46 -68 0 -7 4 -13 9 -13 5 0 11 -8 15 -17 3 -10
21 -45 39 -78 19 -33 46 -82 61 -110 16 -27 32 -54 36 -60 4 -5 13 -29 19 -53
16 -56 49 -79 88 -60 15 7 29 23 31 34 3 21 -79 189 -119 246 -11 14 -19 31
-19 37 0 6 -4 11 -8 11 -4 0 -19 22 -33 50 -13 27 -27 50 -31 50 -4 0 -15 14
-24 32 -16 31 -25 43 -54 76 -24 28 -65 95 -79 129 -15 37 -83 103 -131 128
-19 10 -42 14 -59 10 -23 -5 -35 0 -62 27 -33 32 -119 157 -119 172 0 4 -11
19 -25 34 -14 15 -30 43 -35 63 -6 20 -17 42 -26 50 -14 12 -54 85 -54 100 0
4 -25 44 -55 90 -30 46 -55 91 -55 101 0 10 15 34 33 53 31 34 34 35 70 25 26
-8 62 -36 118 -92 44 -44 78 -82 75 -85 -2 -3 11 -18 30 -35 19 -17 34 -34 34
-39 0 -5 12 -22 28 -37 46 -47 70 -79 92 -122 11 -22 24 -40 29 -40 5 0 11 -8
15 -17 3 -10 16 -35 28 -55 13 -20 38 -61 55 -91 18 -29 44 -66 58 -82 26 -27
47 -67 49 -92 1 -17 51 -53 74 -53 20 0 35 13 45 42 7 21 -48 133 -86 174 -15
16 -27 35 -27 42 0 12 -36 70 -51 82 -6 5 -55 83 -121 194 -26 44 -102 134
-199 237 -20 21 -47 54 -60 74 -13 19 -30 35 -36 35 -7 0 -13 4 -13 9 0 5 -8
11 -17 15 -10 3 -31 14 -48 25 -16 11 -38 20 -47 20 -34 2 -17 20 37 40 31 12
67 21 81 21 30 0 78 -24 96 -47 7 -10 26 -25 42 -33 16 -8 31 -21 34 -30 3 -8
20 -29 38 -47 18 -17 40 -49 50 -70 10 -21 22 -42 27 -48 14 -17 55 -88 78
-135 21 -43 113 -173 153 -215 10 -11 28 -40 40 -63 36 -74 41 -82 48 -82 5 0
8 -6 8 -13 0 -7 12 -32 27 -55 21 -31 34 -42 53 -42 57 1 78 55 42 108 -10 15
-24 41 -31 59 -7 17 -21 39 -32 49 -10 9 -19 22 -19 29 0 7 -9 20 -20 30 -11
10 -20 23 -20 29 0 17 -54 92 -106 149 -26 29 -56 72 -67 97 -11 25 -30 60
-44 78 -13 17 -21 32 -17 32 3 0 -5 15 -20 34 -14 19 -26 38 -26 41 0 4 -7 13
-15 21 -16 16 -20 44 -7 44 25 0 222 -170 222 -192 0 -9 14 -28 60 -85 6 -7
10 -17 10 -23 0 -5 5 -10 10 -10 6 0 10 -7 10 -15 0 -8 5 -15 10 -15 6 0 10
-7 10 -15 0 -8 9 -23 20 -32 11 -10 20 -25 20 -34 0 -8 3 -19 8 -23 4 -4 7
-11 7 -15 0 -4 21 -29 48 -55 26 -26 47 -53 47 -61 0 -7 6 -18 14 -24 8 -7 17
-27 20 -45 7 -37 23 -55 55 -61 25 -5 59 22 63 50 5 35 -61 161 -122 233 -11
13 -20 30 -20 37 0 7 -6 15 -14 18 -7 3 -35 41 -62 84 -27 43 -57 87 -67 98
-10 11 -26 34 -37 53 -20 32 -20 32 0 22 11 -6 25 -8 30 -5 9 6 49 -10 60 -24
3 -3 21 -14 40 -24 97 -49 118 -70 181 -179 28 -47 59 -94 70 -104 10 -9 19
-22 19 -29 0 -6 6 -23 12 -37 13 -26 34 -38 71 -38 22 0 41 -19 92 -90 49 -68
62 -88 75 -119 6 -13 22 -37 35 -53 14 -16 25 -36 25 -44 0 -8 11 -25 24 -37
13 -12 31 -49 41 -82 10 -33 23 -67 30 -75 7 -8 16 -26 20 -40 4 -14 13 -32
20 -40 13 -17 52 -147 59 -200 6 -39 22 -129 32 -175 9 -42 13 -105 19 -300 3
-93 10 -182 16 -197 6 -15 8 -32 4 -38 -4 -6 0 -22 9 -35 9 -13 16 -31 16 -38
0 -8 15 -33 33 -57 35 -47 78 -120 71 -120 -3 0 9 -20 26 -44 16 -25 30 -49
30 -54 0 -5 7 -15 15 -22 8 -7 15 -25 15 -40 0 -16 3 -30 8 -32 12 -5 62 -107
62 -128 0 -10 16 -45 35 -77 19 -32 35 -63 35 -68 0 -6 8 -26 19 -45 10 -19
26 -58 35 -86 14 -44 21 -53 48 -58 48 -9 56 -8 68 15 20 36 20 61 0 89 -11
16 -20 33 -20 39 0 6 -10 27 -21 48 -12 21 -33 58 -46 83 -13 25 -28 52 -33
60 -14 23 -130 268 -130 274 0 8 -53 119 -62 131 -32 41 -91 140 -103 174 -9
27 -14 81 -14 159 0 64 0 119 -1 122 -3 9 -9 105 -13 213 -3 64 -10 113 -17
122 -7 8 -13 32 -15 53 -1 21 -7 47 -13 59 -7 12 -12 30 -12 40 0 17 -39 137
-52 158 -3 6 -9 25 -13 43 -3 17 -10 32 -14 32 -7 0 -54 97 -66 140 -4 14 -18
38 -31 53 -13 16 -27 40 -31 55 -3 14 -14 35 -24 46 -10 10 -25 33 -34 50 -27
53 -109 169 -152 214 -7 7 -13 18 -13 23 0 6 -4 7 -10 4 -10 -6 -24 7 -93 86
-50 57 -117 158 -117 175 0 8 -3 14 -8 14 -4 0 -25 17 -47 39 -43 41 -147 101
-176 101 -9 0 -19 5 -21 11 -5 14 -166 41 -205 34 -25 -4 -34 -2 -42 14 -6 11
-27 25 -46 32 -19 7 -35 16 -35 20 0 5 -26 16 -57 25 -32 9 -67 20 -78 25 -27
12 -65 14 -92 5 -16 -5 -25 -2 -33 14 -6 11 -16 20 -23 20 -7 0 -24 6 -39 14
-26 14 -73 17 -113 8z"/>
<path d="M1512 3068 c-33 -33 6 -116 49 -103 41 13 16 -7 -43 -35 -35 -17 -83
-45 -108 -64 -25 -19 -48 -35 -52 -35 -14 -2 -128 -92 -128 -102 0 -11 -25
-39 -34 -39 -10 0 -6 48 6 75 10 22 9 29 -10 47 -26 26 -81 27 -96 1 -5 -10
-11 -41 -12 -69 -1 -28 -4 -80 -8 -117 -6 -53 -4 -70 9 -91 10 -14 22 -23 31
-19 8 3 20 0 28 -6 7 -6 16 -7 20 -3 22 22 83 27 160 14 l81 -14 22 27 c27 31
29 47 6 81 -15 24 -20 25 -75 19 -32 -4 -58 -4 -58 0 0 51 180 183 306 225 35
12 66 26 69 31 4 5 13 9 21 9 11 0 9 -10 -11 -44 -25 -43 -25 -45 -8 -80 13
-29 22 -36 45 -36 33 0 68 31 68 60 0 11 4 20 8 20 5 0 19 34 31 75 13 40 27
75 32 77 16 5 -7 63 -29 73 -12 5 -22 13 -22 17 0 5 -9 8 -20 8 -11 0 -20 -4
-20 -10 0 -14 -30 -12 -97 5 -69 18 -145 19 -161 3z"/>
<path d="M374 2796 c-11 -27 -11 -51 -2 -78 8 -22 16 -28 38 -28 16 0 35 -6
42 -12 21 -20 46 -34 138 -79 47 -23 87 -45 90 -48 3 -4 28 -21 55 -39 28 -18
61 -40 75 -50 35 -24 150 -143 184 -191 17 -23 33 -41 38 -41 4 0 8 -5 8 -10
0 -6 18 -33 39 -60 21 -27 68 -97 103 -155 80 -135 75 -126 126 -231 24 -49
47 -96 52 -104 24 -43 80 -196 115 -315 14 -49 37 -121 50 -160 35 -107 75
-288 82 -373 3 -43 9 -81 14 -86 5 -6 9 -36 9 -67 0 -58 10 -79 48 -97 50 -24
88 15 76 78 -3 19 -7 49 -9 65 -7 76 -17 130 -25 140 -4 5 -13 44 -19 85 -12
78 -44 200 -88 330 -13 41 -37 123 -53 181 -15 59 -34 119 -43 135 -22 42 -85
179 -107 233 -23 59 -38 85 -76 141 -18 25 -48 76 -69 114 -52 97 -231 342
-258 354 -4 2 -13 10 -20 17 -76 83 -99 105 -106 105 -4 0 -17 10 -29 23 -11
12 -38 31 -59 42 -21 11 -50 29 -65 41 -15 12 -41 25 -58 29 -16 4 -32 11 -35
16 -4 5 -14 9 -24 9 -10 0 -24 7 -31 15 -19 22 -150 85 -177 85 -13 0 -26 -6
-29 -14z"/>
<path d="M2163 2308 c-18 -5 -33 -12 -33 -17 0 -15 -68 -50 -118 -62 -53 -13
-72 -31 -72 -70 0 -38 34 -57 85 -48 47 8 53 5 31 -16 -9 -9 -16 -22 -16 -29
0 -20 -89 -97 -151 -131 -30 -16 -79 -38 -109 -47 l-55 -17 33 28 c22 20 32
37 32 58 0 54 -75 70 -101 21 -11 -20 -66 -48 -104 -53 -54 -6 -85 -18 -98
-38 -13 -19 -12 -26 2 -52 40 -74 104 -120 231 -164 61 -22 84 -16 107 29 15
30 -2 70 -31 70 -20 1 -20 1 -3 11 10 6 24 8 32 5 8 -3 15 -2 17 2 3 7 22 18
128 74 56 29 117 89 148 143 l17 30 3 -26 c3 -29 38 -53 68 -47 30 5 43 47 44
138 2 182 -17 227 -87 208z"/>
</g>
</svg>
