<?xml version="1.0" standalone="no"?>
<!DOCTYPE svg PUBLIC "-//W3C//DTD SVG 20010904//EN"
 "http://www.w3.org/TR/2001/REC-SVG-20010904/DTD/svg10.dtd">
<svg version="1.0" xmlns="http://www.w3.org/2000/svg"
 width="507.000000pt" height="427.000000pt" viewBox="0 0 507.000000 427.000000"
 preserveAspectRatio="xMidYMid meet">
<metadata>
Created by potrace 1.16, written by Peter Selinger 2001-2019
</metadata>
<g transform="translate(0.000000,427.000000) scale(0.100000,-0.100000)"
fill="#000000" stroke="none">
<path d="M1435 3853 c-80 -5 -185 -26 -196 -39 -6 -8 -18 -14 -26 -14 -7 0
-16 -6 -19 -14 -3 -8 -20 -20 -37 -27 -37 -14 -52 -29 -126 -119 -30 -36 -61
-72 -70 -80 -9 -8 -21 -26 -27 -40 -7 -14 -24 -51 -39 -83 -15 -32 -29 -72
-31 -90 -3 -18 -7 -38 -10 -45 -14 -42 -23 -231 -12 -238 4 -3 8 -14 8 -24 0
-10 14 -43 31 -72 30 -53 98 -106 166 -131 13 -5 23 -13 23 -18 0 -11 -70
-174 -87 -203 -11 -19 -13 -19 -63 -3 -29 9 -62 17 -74 17 -11 0 -41 6 -66 14
-25 8 -71 20 -103 27 -37 8 -62 19 -68 31 -6 11 -18 16 -32 14 -12 -3 -25 -5
-29 -5 -16 -2 -37 -99 -42 -191 -1 -25 -7 -56 -13 -70 -6 -14 -16 -50 -23 -80
-7 -30 -21 -73 -32 -95 -12 -22 -24 -47 -28 -56 -5 -9 -23 -58 -41 -110 -17
-52 -38 -106 -45 -120 -21 -42 -96 -342 -91 -366 2 -13 1 -23 -2 -23 -11 0
-12 -54 -1 -77 5 -13 15 -35 21 -50 6 -16 18 -40 25 -55 8 -14 14 -31 14 -36
0 -6 5 -23 12 -39 6 -15 12 -33 13 -38 2 -6 12 -33 24 -60 12 -28 28 -63 35
-80 7 -16 20 -46 29 -65 37 -83 46 -107 53 -140 3 -19 13 -44 20 -55 18 -25
18 -68 1 -103 -8 -15 -20 -49 -26 -77 -12 -48 -38 -115 -86 -220 -12 -27 -30
-72 -40 -100 -10 -27 -26 -61 -36 -75 -9 -14 -19 -40 -22 -57 -7 -46 -48 -123
-74 -141 -27 -17 -31 -63 -7 -86 18 -18 26 -19 74 -7 48 13 126 21 249 27 58
3 110 9 116 14 10 8 12 96 2 106 -2 2 -21 -6 -43 -18 -21 -12 -57 -23 -79 -24
-22 -1 -82 -5 -134 -9 l-93 -7 7 23 c4 13 13 33 20 44 6 11 20 45 30 75 10 30
23 66 30 80 19 35 45 97 45 104 0 3 11 29 24 58 13 29 31 73 39 98 34 98 48
132 76 183 16 28 32 66 36 84 6 32 4 38 -37 83 -10 11 -20 32 -24 47 -4 16
-18 49 -31 76 -13 26 -20 47 -16 47 4 0 0 6 -8 12 -9 7 -32 54 -51 103 -34 84
-108 302 -108 316 0 9 187 -27 235 -45 22 -8 51 -15 65 -16 14 0 63 -14 110
-31 47 -17 93 -33 102 -36 10 -3 28 -22 40 -42 12 -20 28 -40 35 -44 28 -17
87 -121 136 -237 6 -14 21 -38 32 -55 12 -16 36 -55 53 -86 40 -70 41 -112 7
-240 -14 -51 -30 -119 -35 -149 -12 -73 -44 -217 -70 -309 -11 -41 -21 -87
-22 -103 -1 -15 -8 -28 -15 -28 -18 0 -26 -41 -14 -73 13 -32 20 -33 73 -6 48
25 159 49 247 55 36 2 68 8 71 14 3 6 6 29 6 53 -1 39 -3 42 -31 45 -17 2 -33
-2 -40 -10 -5 -8 -50 -22 -100 -32 -49 -10 -101 -20 -114 -23 -22 -5 -23 -4
-17 23 4 16 13 62 21 103 8 40 18 78 23 85 5 6 14 36 20 66 6 30 13 68 17 84
3 16 12 56 19 90 21 96 37 157 56 216 10 30 21 73 25 96 5 35 3 42 -17 52 -13
7 -32 31 -43 54 -11 23 -24 47 -30 53 -11 12 -29 44 -88 155 -22 41 -45 82
-51 90 -7 8 -25 41 -40 72 l-28 56 23 62 c12 33 26 63 30 66 5 3 9 14 9 25 0
10 5 19 10 19 6 0 10 7 10 15 0 18 2 18 43 1 18 -7 52 -33 77 -58 25 -24 61
-54 81 -66 45 -27 99 -89 99 -114 0 -14 8 -18 39 -18 38 0 64 23 38 34 -7 2
-4 5 6 5 9 1 17 5 17 11 0 18 -115 125 -189 175 -24 16 -59 46 -79 67 -19 20
-45 39 -58 42 -13 4 -24 13 -24 21 0 16 29 87 57 140 9 17 45 89 80 160 114
229 165 325 173 325 7 0 25 -46 51 -127 11 -35 35 -92 55 -129 19 -36 41 -89
48 -117 26 -100 48 -172 66 -224 11 -28 20 -70 22 -92 2 -45 28 -71 70 -71 28
0 141 -23 148 -30 3 -3 14 -6 25 -6 11 -1 45 -12 75 -24 30 -12 75 -25 99 -30
23 -4 46 -12 50 -18 6 -10 31 -15 65 -13 14 1 17 6 12 26 -4 14 -2 25 4 25 8
0 16 49 8 51 -2 0 -23 2 -48 6 -25 3 -83 16 -130 30 -97 28 -226 62 -255 67
-11 2 -23 4 -27 5 -16 3 -43 73 -80 211 -21 80 -54 177 -73 217 -18 39 -39 91
-45 115 -7 23 -21 70 -32 103 -12 36 -18 73 -14 93 4 30 2 33 -25 39 -16 3
-29 11 -29 19 0 14 -30 26 -75 30 -131 10 -205 27 -205 46 0 6 -6 5 -14 -1
-22 -19 -80 13 -68 37 5 9 19 40 32 67 13 28 36 69 52 92 27 39 32 42 71 41
23 -1 86 9 139 21 83 19 107 30 169 74 39 29 83 60 97 69 38 25 65 57 103 123
56 99 67 126 88 221 36 159 24 341 -27 398 -10 12 -26 33 -35 49 -11 16 -26
27 -40 27 -12 0 -49 14 -82 32 -60 31 -97 37 -200 31z m161 -114 c19 -11 34
-26 34 -33 0 -22 45 -56 70 -54 36 4 61 -72 60 -182 -1 -109 -10 -143 -70
-266 -44 -89 -59 -109 -122 -164 -40 -34 -81 -66 -93 -70 -47 -19 -61 -24 -75
-26 -8 -2 -33 -9 -55 -16 -23 -7 -82 -12 -137 -11 -81 1 -105 6 -152 28 -31
15 -56 33 -56 41 0 8 -4 13 -10 11 -5 -1 -23 18 -39 43 -29 42 -30 48 -28 140
2 52 9 113 16 135 37 108 65 172 93 214 40 60 154 171 175 171 9 0 24 6 32 14
15 13 120 41 186 50 59 7 137 -4 171 -25z m-911 -1169 c22 -5 51 -11 65 -13
14 -3 43 -8 65 -12 22 -4 49 -14 60 -21 11 -8 32 -14 48 -14 20 0 30 -6 34
-20 4 -16 13 -19 57 -18 28 1 104 -11 168 -25 65 -15 125 -24 133 -21 8 4 15
1 15 -5 0 -6 -4 -11 -9 -11 -5 0 -15 -17 -22 -37 -6 -20 -20 -45 -30 -56 -9
-10 -20 -30 -23 -43 -9 -35 -110 -246 -193 -403 -13 -25 -23 -50 -23 -56 0 -7
-6 -18 -14 -24 -11 -9 -24 -3 -62 30 -44 38 -193 119 -220 119 -6 0 -14 21
-17 48 -3 26 -15 69 -26 95 -14 32 -21 70 -21 111 0 35 -7 85 -15 112 -8 27
-17 81 -20 119 -3 39 -8 89 -10 113 -5 46 -4 47 60 32z m-102 -195 c3 -33 10
-73 16 -87 6 -15 10 -67 9 -115 -1 -48 4 -104 11 -124 20 -62 24 -83 22 -125
-1 -49 10 -60 64 -67 75 -10 185 -58 185 -80 0 -13 37 -45 60 -52 24 -8 32
-31 17 -48 -18 -20 -37 -55 -37 -70 0 -8 -9 -22 -20 -32 -11 -10 -20 -24 -20
-31 0 -26 -48 -26 -122 -1 -40 14 -100 31 -133 37 -77 15 -177 46 -235 73 -25
11 -53 20 -62 20 -29 -3 -25 27 29 202 8 28 23 73 33 100 11 28 31 84 46 125
14 41 42 115 61 163 19 49 37 100 39 114 5 27 24 67 29 61 1 -1 5 -30 8 -63z"/>
<path d="M3312 3613 c-100 -101 -186 -182 -192 -178 -5 3 -10 2 -10 -3 0 -4
-26 -35 -57 -68 -32 -33 -65 -69 -74 -80 -9 -10 -35 -36 -58 -57 -22 -20 -41
-41 -41 -45 0 -4 -17 -18 -36 -32 -34 -24 -66 -50 -109 -88 -11 -10 -44 -33
-72 -52 -29 -18 -54 -39 -54 -47 -2 -22 -4 -27 -12 -41 -10 -14 -10 -273 -1
-296 3 -9 7 -96 9 -193 3 -197 13 -499 18 -524 8 -44 53 -63 77 -34 7 8 10 15
7 15 -3 0 -1 15 3 34 4 19 4 38 -1 43 -4 4 -11 31 -14 58 -3 28 -10 73 -15
100 -6 28 -9 77 -8 110 1 33 -1 162 -5 287 -4 125 -3 229 2 232 5 3 9 23 9 43
0 21 1 45 1 54 1 14 27 16 229 16 196 -1 407 10 572 28 25 2 92 7 150 9 58 3
137 7 175 10 39 3 113 8 165 11 52 2 115 7 140 10 25 3 92 7 150 9 58 3 139
10 180 15 114 15 195 22 302 26 54 2 102 6 107 9 15 10 5 58 -15 73 -12 9 -30
11 -49 7 -16 -4 -59 -8 -95 -9 -36 -2 -77 -8 -92 -14 -15 -6 -72 -13 -125 -16
-122 -7 -205 -15 -217 -22 -12 -8 -210 -23 -366 -28 -74 -3 -151 -8 -170 -11
-19 -4 -69 -8 -110 -10 -41 -2 -95 -6 -120 -9 -102 -15 -611 -21 -685 -9 -16
3 -40 5 -53 5 -24 -1 -23 6 7 41 9 10 20 18 26 18 6 0 25 15 41 33 16 17 67
65 112 106 45 41 82 80 82 87 0 6 7 14 15 18 8 3 20 16 26 29 6 13 21 30 34
38 31 19 139 116 178 159 106 117 212 211 254 224 25 8 41 62 24 79 -33 33
-54 18 -239 -170z"/>
<path d="M4770 2809 c-14 -6 -57 -9 -96 -8 -39 1 -75 0 -80 -3 -5 -3 -46 -5
-92 -4 -45 0 -82 -2 -82 -6 0 -4 -30 -7 -67 -7 -38 -1 -81 -4 -98 -7 -16 -4
-93 -7 -170 -8 -77 -1 -142 -3 -145 -5 -3 -1 -104 -4 -225 -6 -121 -3 -278 -7
-350 -9 -239 -9 -488 -6 -500 6 -4 3 -19 -1 -35 -10 -20 -12 -28 -23 -25 -37
12 -62 18 -101 16 -108 -1 -5 3 -34 9 -65 9 -51 14 -452 7 -592 -3 -53 16
-110 36 -110 26 0 47 22 41 44 -3 13 -1 27 5 31 6 3 8 11 4 18 -8 13 -10 76
-17 448 -3 208 -2 276 7 277 7 0 57 3 112 6 55 3 127 8 160 11 33 3 150 8 260
10 110 3 228 7 261 10 34 2 160 7 280 10 121 3 253 8 294 12 99 8 150 11 375
16 105 3 198 8 208 12 22 9 22 47 -1 68 -21 19 -54 21 -92 6z"/>
<path d="M3940 2616 c-76 -50 -95 -74 -115 -151 -13 -50 -12 -61 2 -108 9 -29
28 -67 42 -85 31 -42 34 -68 13 -109 -20 -41 -8 -86 26 -91 14 -2 22 2 22 12
0 8 7 19 16 24 16 9 25 42 27 97 2 55 -8 89 -34 118 -25 27 -49 86 -49 120 0
46 65 105 131 121 19 4 28 13 31 33 10 76 -18 81 -112 19z"/>
<path d="M3684 2556 c-47 -21 -80 -56 -117 -129 -30 -58 -34 -73 -26 -105 4
-20 6 -38 4 -41 -2 -2 14 -17 36 -33 50 -36 64 -69 51 -125 -8 -36 -6 -45 9
-59 21 -19 49 -12 49 11 0 9 4 14 9 11 13 -9 21 19 21 75 0 51 -27 113 -60
136 -17 12 -50 67 -50 83 0 17 79 90 98 90 15 0 21 9 27 36 9 51 -8 68 -51 50z"/>
<path d="M4328 2009 c-67 -26 -124 -33 -278 -32 -74 0 -144 -3 -156 -7 -14 -6
-40 -3 -70 6 -26 8 -71 14 -98 13 -80 -2 -130 -2 -286 -1 -128 0 -171 -1 -242
-7 -10 0 -18 -7 -18 -14 0 -8 -7 -29 -16 -47 -16 -31 -16 -34 0 -45 9 -7 16
-18 16 -25 0 -19 68 -77 121 -104 26 -12 62 -32 81 -44 19 -12 63 -29 98 -38
35 -9 74 -23 86 -30 35 -23 284 -28 392 -8 91 17 183 47 205 67 6 7 30 21 52
32 64 32 167 144 197 214 19 43 23 61 13 61 -7 0 -18 7 -25 15 -15 18 -12 18
-72 -6z m-283 -93 c121 -2 230 0 243 5 12 5 22 5 22 0 0 -15 -82 -101 -96
-101 -9 0 -12 -4 -9 -10 3 -5 -1 -10 -9 -10 -9 0 -16 -4 -16 -10 0 -5 -7 -10
-15 -10 -8 0 -24 -8 -35 -17 -43 -37 -162 -75 -245 -79 -44 -2 -80 -4 -80 -5
0 -1 -10 -3 -22 -4 -13 -1 -23 1 -23 4 0 3 -19 5 -43 3 -56 -5 -210 32 -256
61 -20 12 -54 30 -75 40 -22 10 -59 38 -84 64 l-45 46 34 14 c18 7 39 11 46 9
7 -3 13 -1 13 3 0 5 105 7 238 5 130 -2 336 -6 457 -8z"/>
<path d="M2585 1797 c-38 -4 -106 -15 -150 -23 -44 -9 -100 -18 -125 -20 -55
-6 -94 -32 -98 -67 -2 -14 -10 -31 -18 -37 -18 -16 -18 -39 1 -46 17 -7 14
-78 -4 -112 -6 -11 -11 -34 -11 -50 0 -16 -3 -32 -7 -35 -13 -13 -38 -102 -35
-124 4 -26 51 -45 212 -82 206 -48 481 -41 614 14 17 7 57 39 88 70 86 85 89
151 13 232 -19 20 -35 40 -35 44 0 3 -21 7 -46 7 -25 1 -52 6 -59 12 -8 6 -26
15 -41 19 l-28 7 37 18 c43 20 70 56 65 87 -5 34 -67 78 -118 85 -77 9 -182
10 -255 1z m220 -91 c22 -10 41 -17 43 -17 1 1 2 -2 3 -6 1 -10 -105 -54 -153
-63 -22 -4 -39 -3 -41 3 -4 14 -46 -14 -53 -35 -3 -10 -2 -27 1 -38 6 -19 14
-21 103 -20 84 1 202 -15 252 -35 8 -3 25 -21 37 -39 17 -27 21 -43 16 -73 -7
-42 -29 -83 -46 -83 -6 0 -18 -7 -27 -15 -49 -44 -399 -59 -545 -22 -153 38
-169 52 -149 129 8 29 14 62 14 75 0 31 51 185 67 201 7 7 21 15 30 17 10 2
42 11 72 19 30 8 81 15 113 15 33 0 63 2 66 6 12 12 157 -2 197 -19z"/>
<path d="M4786 1393 c-4 -4 -44 -11 -89 -15 -45 -4 -104 -10 -132 -13 -49 -4
-342 -17 -378 -17 -10 1 -28 -3 -40 -7 -12 -5 -49 -5 -82 0 -39 5 -90 3 -150
-6 -49 -7 -94 -10 -100 -6 -5 4 -145 7 -309 5 -315 -3 -316 -3 -316 -49 0 -45
4 -46 140 -20 80 16 258 15 456 0 22 -2 69 2 105 9 40 7 79 9 104 4 21 -5 53
-6 70 -2 16 3 122 8 235 9 294 5 498 13 510 20 6 4 8 11 5 16 -4 5 5 9 19 9
19 0 26 5 26 19 0 36 -51 66 -74 44z"/>
<path d="M2728 1101 c-10 -10 -18 -22 -18 -28 0 -5 -27 -34 -60 -64 -33 -29
-60 -59 -60 -65 0 -6 -20 -31 -45 -55 -25 -24 -45 -50 -45 -57 0 -7 -7 -15
-15 -18 -8 -3 -17 -15 -20 -25 -5 -13 -12 -18 -24 -14 -11 3 -25 -3 -36 -15
-10 -11 -15 -20 -10 -20 4 0 3 -6 -3 -12 -6 -8 -7 -39 -3 -78 4 -42 2 -81 -6
-109 -10 -35 -10 -49 0 -70 14 -30 6 -29 287 -17 208 10 207 10 255 7 54 -3
827 7 990 13 340 13 827 19 928 13 60 -4 84 38 37 66 -21 13 -35 14 -61 7 -30
-9 -73 -11 -159 -8 -14 1 -43 0 -65 -1 -22 -1 -89 -2 -148 -1 -60 0 -112 -2
-117 -5 -8 -5 -158 -10 -630 -22 -285 -6 -430 -7 -870 -2 l-355 4 0 40 c1 37
3 40 30 42 50 2 299 11 510 18 110 3 211 8 225 10 46 9 1398 20 1593 14 26 -1
50 1 53 4 12 12 11 43 -3 59 -12 13 -21 14 -46 7 -41 -12 -295 -18 -1014 -23
-315 -3 -576 -7 -581 -10 -7 -4 -491 -20 -532 -18 -8 1 -42 2 -75 2 -82 2
-145 10 -145 18 0 4 27 41 60 82 33 41 60 80 60 87 0 11 22 38 89 108 10 11
37 35 60 54 49 42 61 69 35 88 -24 17 -45 16 -66 -6z"/>
</g>
</svg>
