<?xml version="1.0" standalone="no"?>
<!DOCTYPE svg PUBLIC "-//W3C//DTD SVG 20010904//EN"
 "http://www.w3.org/TR/2001/REC-SVG-20010904/DTD/svg10.dtd">
<svg version="1.0" xmlns="http://www.w3.org/2000/svg"
 width="497.000000pt" height="463.000000pt" viewBox="0 0 497.000000 463.000000"
 preserveAspectRatio="xMidYMid meet">
<metadata>
Created by potrace 1.16, written by Peter Selinger 2001-2019
</metadata>
<g transform="translate(0.000000,463.000000) scale(0.100000,-0.100000)"
fill="#000000" stroke="none">
<path d="M299 4401 c-30 -23 -39 -81 -13 -81 9 0 32 -16 51 -35 19 -19 40 -35
47 -35 6 0 37 -22 70 -49 32 -27 79 -57 105 -67 25 -9 62 -29 81 -43 19 -15
58 -37 87 -50 29 -13 54 -30 57 -37 3 -8 11 -14 19 -14 7 0 22 -8 33 -18 20
-19 116 -76 124 -75 3 1 13 -3 23 -9 43 -23 199 -37 220 -20 14 12 246 14 262
3 6 -4 28 -13 51 -19 26 -7 45 -21 54 -37 7 -14 18 -25 23 -25 5 0 28 -19 51
-43 l42 -42 -23 -45 c-13 -24 -27 -47 -31 -50 -9 -7 -28 -65 -36 -112 -5 -26
-1 -47 12 -72 18 -33 95 -116 107 -116 7 0 27 -15 61 -47 14 -13 28 -23 33
-23 4 0 20 -18 37 -40 16 -22 39 -52 52 -66 12 -14 31 -43 43 -65 11 -22 30
-44 43 -49 13 -4 26 -16 30 -25 3 -9 10 -13 16 -10 5 3 10 1 10 -5 0 -12 39
-71 55 -82 5 -4 14 -3 19 2 6 6 21 10 33 10 23 0 71 25 84 44 4 5 10 -5 14
-23 12 -55 -14 -179 -34 -167 -12 8 -41 -4 -41 -16 0 -37 -84 -59 -115 -31
-11 10 -29 25 -41 33 -50 35 -144 123 -144 136 0 7 -12 19 -27 26 -15 7 -32
23 -38 34 -6 12 -34 47 -62 78 -51 55 -75 66 -117 50 -21 -8 -21 -67 -1 -84 8
-7 15 -19 15 -26 0 -8 6 -14 13 -14 16 -1 57 -35 57 -49 0 -6 4 -11 9 -11 5 0
12 -8 15 -18 4 -11 24 -36 46 -58 22 -21 40 -45 40 -52 0 -7 5 -10 10 -7 6 3
13 -1 16 -9 3 -9 10 -16 16 -16 5 0 26 -16 46 -35 20 -19 42 -35 48 -35 6 0
17 -7 24 -15 10 -13 10 -19 -4 -33 -9 -10 -16 -23 -16 -29 0 -14 -45 -33 -78
-33 -15 0 -38 7 -52 15 -14 8 -34 18 -46 24 -11 5 -77 65 -145 133 -145 144
-166 156 -204 126 -21 -16 -25 -26 -20 -47 6 -27 70 -93 79 -83 3 3 6 0 6 -6
0 -7 27 -38 60 -69 33 -32 60 -62 60 -68 0 -5 23 -25 50 -44 28 -18 50 -38 50
-43 0 -5 4 -7 9 -3 16 9 23 -15 10 -32 -8 -9 -30 -26 -50 -39 -38 -23 -80 -24
-124 -2 -26 14 -163 157 -170 178 -3 8 -19 24 -36 34 -30 18 -32 18 -50 0 -23
-24 -32 -71 -14 -81 7 -5 23 -26 36 -47 13 -22 49 -65 80 -96 l57 -57 -24 -12
c-38 -17 -101 -14 -108 5 -4 9 -13 14 -21 10 -8 -3 -15 -1 -15 4 0 6 -6 10
-14 10 -19 0 -88 32 -109 50 -71 61 -109 104 -118 130 -6 16 -15 30 -19 30 -8
0 -22 39 -25 70 -1 8 -5 26 -8 40 -4 14 -9 48 -11 75 -2 28 -6 57 -9 65 -3 8
-8 34 -10 58 -6 51 -38 132 -52 132 -6 0 -16 13 -23 29 -12 27 -115 141 -128
141 -3 0 -32 18 -65 40 -32 23 -59 38 -59 35 0 -3 -49 20 -110 51 -61 32 -110
61 -110 66 0 4 -7 8 -15 8 -8 0 -15 4 -15 9 0 5 -9 13 -20 16 -11 3 -20 12
-20 20 0 7 -11 16 -24 19 -14 3 -31 12 -38 19 -20 21 -103 67 -119 67 -24 0
-40 -16 -45 -44 -6 -33 7 -51 55 -76 20 -10 45 -27 56 -37 12 -10 50 -38 85
-62 36 -25 67 -48 68 -53 2 -4 10 -8 18 -8 8 0 14 -4 14 -8 0 -5 19 -15 43
-22 42 -14 159 -79 165 -92 2 -5 10 -8 17 -8 8 0 18 -6 22 -12 4 -7 24 -24 43
-37 19 -14 41 -33 48 -43 8 -10 26 -31 40 -45 28 -28 66 -102 57 -111 -3 -3
-1 -10 4 -16 5 -6 12 -54 15 -106 3 -52 13 -120 21 -150 10 -37 11 -56 4 -59
-25 -8 -60 -48 -63 -71 -1 -14 -6 -37 -10 -53 -5 -15 -4 -33 1 -40 5 -6 18
-34 28 -62 28 -75 78 -145 106 -145 5 0 9 -6 9 -14 0 -8 9 -18 20 -21 11 -3
20 -11 20 -16 0 -5 6 -9 13 -9 6 0 31 -18 55 -39 23 -21 61 -46 85 -56 40 -16
149 -67 192 -89 62 -31 96 -46 112 -50 40 -9 63 -19 63 -27 0 -5 7 -9 16 -9
16 0 75 -23 104 -41 75 -45 103 -55 185 -65 54 -7 53 -7 114 5 75 15 101 14
101 -4 0 -9 7 -30 16 -46 14 -29 18 -30 57 -24 23 4 50 11 60 17 12 6 17 5 19
-4 0 -7 2 -17 2 -23 1 -5 5 -16 9 -22 5 -7 6 -13 3 -13 -3 0 2 -9 11 -20 22
-26 53 -25 87 1 15 12 29 20 30 18 2 -2 7 -30 10 -62 11 -88 12 -90 65 -84 25
3 55 8 67 12 19 6 21 2 22 -36 2 -46 18 -73 39 -65 8 4 13 -3 14 -17 0 -12 2
-83 5 -157 3 -74 6 -180 8 -235 2 -55 6 -134 10 -175 3 -41 9 -183 12 -315 9
-339 11 -361 37 -377 12 -8 29 -13 37 -12 8 0 22 2 31 2 9 1 20 13 23 26 l6
24 37 -19 c20 -10 42 -19 48 -19 14 -1 105 -86 105 -99 0 -6 19 -11 45 -11 39
0 47 4 55 24 5 13 14 27 19 31 6 3 11 22 11 41 0 40 3 41 40 14 20 -14 37 -19
55 -14 14 3 31 1 39 -5 22 -18 68 -20 85 -4 10 10 14 34 14 72 -3 123 -13 359
-18 416 -3 33 -8 141 -10 240 -3 99 -8 186 -10 193 -2 6 1 12 8 12 7 0 23 3
36 7 22 6 23 4 17 -20 -3 -15 -2 -27 3 -27 5 0 13 -10 16 -21 6 -17 13 -20 39
-16 17 3 38 8 47 12 13 5 18 -2 23 -27 12 -67 67 -104 116 -78 15 8 19 5 25
-27 4 -22 20 -50 39 -69 31 -31 36 -33 67 -24 48 14 47 14 58 -28 17 -60 32
-76 69 -68 17 4 36 14 43 22 10 12 14 10 25 -12 8 -14 14 -35 14 -45 0 -11 7
-31 16 -44 13 -20 20 -23 34 -15 34 18 50 12 50 -19 0 -16 3 -36 6 -45 8 -21
48 -21 69 0 21 22 28 13 15 -21 -6 -15 -8 -36 -5 -46 8 -23 52 -36 68 -20 16
16 37 14 37 -4 0 -8 6 -15 13 -16 44 -4 54 -3 68 3 9 4 27 27 39 50 12 24 39
60 59 80 63 64 81 86 81 96 0 6 8 17 18 24 9 7 25 24 33 38 9 14 29 39 45 56
16 17 46 53 66 80 21 27 47 59 59 71 18 18 21 29 17 71 -4 42 -12 58 -47 95
-23 24 -49 54 -58 68 -9 13 -23 28 -30 32 -7 4 -20 20 -28 35 -8 15 -35 49
-60 76 -24 27 -57 68 -72 90 -16 23 -36 50 -45 60 -10 11 -18 24 -18 28 0 5
-25 33 -55 63 -30 31 -55 61 -55 68 0 7 -9 19 -20 27 -11 8 -20 18 -20 23 0
13 -50 76 -105 131 -28 28 -67 71 -87 96 -32 41 -104 117 -221 238 -23 24 -63
61 -88 81 -26 21 -62 56 -80 77 -37 43 -44 50 -150 144 -40 36 -98 89 -128
117 -31 29 -59 53 -62 53 -4 0 -31 24 -62 53 -62 58 -69 64 -112 91 -16 11
-36 26 -43 33 -8 7 -22 18 -33 23 -10 6 -19 17 -19 24 0 8 -6 16 -14 19 -11 4
-12 16 -5 53 5 26 7 56 5 68 -6 32 -16 76 -28 126 -11 43 -56 109 -106 157
-13 12 -22 28 -20 35 3 7 -8 24 -23 39 -15 14 -30 36 -34 48 -3 11 -10 21 -15
21 -8 0 -32 21 -135 119 -27 27 -66 59 -85 71 -19 13 -44 32 -55 41 -63 54
-142 127 -160 148 -43 51 -168 171 -173 167 -2 -3 -17 1 -31 9 -41 21 -138 22
-197 2 -28 -10 -68 -33 -89 -52 -20 -19 -41 -35 -45 -35 -14 0 -121 78 -136
99 -8 11 -20 21 -26 21 -6 0 -21 11 -34 25 -14 16 -34 25 -52 25 -16 0 -45 7
-64 15 -41 17 -82 18 -203 4 -181 -19 -212 -16 -290 26 -38 20 -77 44 -86 51
-8 8 -20 14 -25 14 -5 0 -17 8 -25 18 -22 23 -63 57 -67 53 -5 -5 -92 34 -92
42 0 8 -50 31 -62 29 -5 -1 -8 2 -8 7 0 5 -13 12 -29 16 -16 3 -37 15 -47 27
-11 11 -41 35 -69 53 -27 18 -61 43 -75 56 -13 13 -29 23 -33 21 -5 -1 -15 2
-22 8 -9 7 -19 5 -36 -9z m1789 -637 c18 -9 77 -61 130 -115 53 -55 102 -105
109 -112 7 -7 31 -25 53 -42 55 -41 132 -102 148 -117 64 -65 142 -150 142
-157 0 -5 9 -11 20 -14 12 -3 20 -14 20 -27 0 -13 22 -43 55 -76 30 -30 51
-54 48 -54 -3 0 1 -8 9 -17 17 -21 30 -49 33 -78 6 -38 6 -120 2 -140 -11 -45
-20 -65 -29 -65 -5 0 -7 -4 -4 -8 8 -13 -16 -93 -33 -114 -48 -56 -133 -135
-184 -170 -32 -22 -70 -53 -84 -69 -15 -16 -29 -29 -33 -29 -13 0 -130 -121
-130 -134 0 -8 -6 -16 -14 -19 -7 -3 -21 -29 -30 -59 -25 -77 -42 -110 -68
-135 -13 -12 -31 -33 -41 -47 -18 -26 -167 -106 -197 -106 -9 0 -20 -3 -23 -7
-13 -12 -146 -22 -153 -11 -3 5 -9 6 -14 3 -10 -6 -72 27 -102 55 -12 11 -30
20 -39 20 -10 0 -46 13 -81 30 -84 38 -119 52 -142 57 -11 2 -27 10 -35 17 -9
8 -27 17 -41 21 -25 8 -152 68 -180 86 -8 5 -36 21 -62 37 -26 15 -48 32 -48
37 0 6 -21 26 -47 45 -45 34 -83 97 -89 147 -3 30 29 40 54 16 77 -73 127
-115 148 -123 13 -5 24 -14 24 -19 0 -5 9 -13 20 -16 11 -3 20 -13 20 -21 0
-18 46 -37 71 -29 11 4 19 2 19 -3 0 -6 14 -7 34 -2 19 4 37 5 40 3 3 -3 19 0
37 6 22 7 36 8 44 1 9 -8 14 -6 18 4 3 8 19 17 35 21 16 3 35 17 42 30 11 21
16 22 39 13 14 -6 39 -10 55 -9 16 1 33 -4 37 -11 5 -8 11 -4 19 13 7 14 38
45 71 69 32 23 59 49 59 56 0 8 5 14 10 14 6 0 10 6 10 13 0 8 16 12 43 12 34
0 56 9 100 39 32 22 55 41 52 44 -2 2 2 11 10 19 10 9 13 24 9 40 -6 21 -4 25
8 21 8 -3 34 -2 59 4 41 9 66 12 111 16 10 1 17 5 16 10 -3 11 27 64 51 89 20
21 27 52 36 167 3 38 0 67 -9 85 -10 18 -11 32 -5 44 7 12 6 15 -4 11 -7 -2
-19 6 -26 20 -12 22 -28 31 -55 34 -5 0 -12 5 -15 11 -9 14 -71 -17 -71 -35 0
-22 -50 -6 -82 25 -15 14 -28 29 -28 32 0 4 -16 24 -35 45 -19 21 -37 46 -41
56 -3 10 -12 18 -20 18 -8 0 -14 7 -14 15 0 8 -4 15 -10 15 -5 0 -7 6 -4 14 3
8 -2 17 -14 20 -10 4 -28 15 -40 26 -12 11 -38 32 -59 46 -21 14 -57 44 -81
66 -41 38 -43 42 -36 82 3 22 18 56 32 76 41 54 88 105 101 108 7 1 25 16 40
33 16 17 34 32 42 33 8 2 25 8 39 14 31 13 86 8 128 -14z m900 -1135 c12 -8
22 -19 22 -26 0 -6 10 -15 22 -19 12 -3 28 -12 35 -18 6 -6 38 -33 70 -61 31
-27 78 -70 104 -95 26 -25 78 -72 115 -105 59 -52 273 -257 352 -337 119 -120
201 -208 222 -238 13 -19 50 -61 82 -92 32 -31 58 -59 58 -62 0 -14 115 -164
136 -178 13 -9 194 -244 194 -253 0 -3 14 -20 31 -38 17 -17 55 -67 85 -111
l55 -79 -26 -31 c-14 -17 -44 -56 -67 -86 -22 -30 -54 -67 -69 -82 -16 -15
-29 -29 -29 -32 0 -2 -21 -27 -47 -54 -27 -27 -59 -63 -72 -80 -13 -18 -30
-32 -37 -32 -8 0 -14 -9 -14 -21 0 -29 -35 -21 -36 9 -2 33 -20 47 -62 47 -34
0 -37 2 -40 31 -2 26 -9 33 -30 37 -15 3 -35 1 -45 -5 -10 -5 -20 -8 -21 -6
-1 2 -14 28 -30 59 -30 62 -56 76 -100 54 -21 -11 -25 -10 -35 12 -6 13 -11
32 -11 41 0 41 -66 58 -101 26 -16 -15 -19 -14 -33 15 -9 16 -16 37 -16 45 0
8 -10 25 -22 36 -18 17 -32 21 -65 17 -35 -4 -43 -1 -53 19 -7 12 -10 29 -7
37 9 25 -29 51 -76 51 -36 1 -43 4 -48 26 -18 75 -31 85 -85 64 -37 -16 -35
-23 -39 126 -3 133 -13 274 -21 311 -5 25 -9 27 -72 29 -261 10 -338 4 -464
-36 -25 -9 -52 -14 -60 -13 -31 4 -48 -2 -48 -17 0 -24 -18 -7 -25 25 -8 39
-43 47 -90 21 -39 -22 -40 -22 -49 45 -8 58 -37 79 -98 71 -48 -7 -48 -7 -48
22 0 35 -17 51 -64 62 -27 6 -36 4 -41 -8 -3 -8 -8 -12 -12 -9 -3 4 -13 2 -20
-5 -12 -10 -14 -5 -11 26 3 36 6 40 53 57 70 27 147 111 196 215 22 45 39 89
39 98 0 9 7 16 15 16 8 0 15 7 15 15 0 14 30 45 160 164 25 23 65 53 90 67 25
14 59 43 75 64 17 22 38 42 48 45 9 4 17 11 17 17 0 6 13 23 29 37 16 15 34
45 41 69 11 42 12 43 33 29 12 -8 32 -20 45 -28z m-80 -1165 c40 -8 55 -45 50
-121 -4 -51 -29 -170 -46 -213 -9 -25 -9 -28 -11 -72 -1 -24 -5 -38 -9 -32 -4
5 -18 18 -32 27 l-25 17 0 200 c0 224 -5 210 73 194z m235 -62 c3 -32 3 -95 1
-142 -2 -47 -4 -110 -5 -140 -1 -40 -7 -63 -23 -85 -12 -16 -30 -55 -39 -85
-16 -53 -38 -180 -32 -190 2 -3 6 -31 9 -62 6 -50 5 -57 -9 -52 -9 4 -15 19
-16 43 0 20 -3 47 -5 61 -3 14 -9 48 -14 75 -13 76 -25 116 -46 160 -17 34
-19 52 -13 117 4 43 14 94 24 114 9 19 19 65 21 102 3 36 7 69 9 72 3 4 0 22
-5 39 -9 32 -9 32 25 30 19 -2 36 -1 39 2 3 3 21 3 39 1 34 -4 34 -5 40 -60z
m-397 23 c-5 -20 -2 -26 19 -31 26 -6 35 -24 13 -24 -10 0 -10 -2 -1 -8 15 -9
18 -85 10 -213 -7 -106 0 -123 61 -150 29 -13 30 -15 41 -118 6 -59 13 -143
15 -187 7 -125 42 -184 84 -142 21 21 22 3 6 -78 -23 -113 -20 -200 9 -271 28
-68 26 -119 -6 -154 l-22 -23 -8 31 c-6 19 -18 34 -31 37 -12 3 -40 21 -63 41
-23 19 -48 35 -57 35 -21 0 -66 47 -66 69 0 10 -7 24 -15 31 -10 9 -16 29 -15
59 0 25 -1 127 -4 226 -2 99 -2 175 0 168 3 -6 25 -32 49 -57 44 -44 44 -45
39 -103 -10 -116 -3 -193 18 -220 6 -7 13 -11 17 -9 5 3 6 101 2 288 -1 31 -9
45 -47 81 -43 41 -46 48 -60 132 -9 48 -14 114 -12 147 3 50 1 58 -14 58 -12
0 -18 8 -18 23 -1 12 -3 88 -7 170 -3 81 -3 157 1 170 4 18 28 35 65 46 2 1 0
-10 -3 -24z m401 -472 c0 -21 3 -96 7 -168 4 -71 11 -238 16 -370 10 -280 5
-305 -55 -253 -13 11 -22 25 -19 30 3 5 1 15 -5 22 -7 8 -11 18 -10 22 7 40
-16 45 -33 9 -17 -38 -28 -12 -28 65 0 73 42 315 53 304 14 -14 27 47 18 86
-9 40 -8 70 4 130 9 48 10 51 23 83 7 16 12 39 12 53 0 13 4 24 8 24 5 0 9
-17 9 -37z m-182 -99 c19 -81 23 -240 7 -256 -19 -19 -30 25 -31 126 -1 55 -6
122 -12 149 -11 61 -12 57 5 57 8 0 20 -28 31 -76z"/>
<path d="M2554 2848 c-33 -8 -69 -64 -66 -100 0 -10 -4 -18 -9 -18 -13 0 -2
-59 14 -75 21 -20 74 -28 112 -15 41 13 88 83 83 122 -8 59 -75 102 -134 86z"/>
<path d="M1923 2148 c-58 -43 -65 -87 -25 -137 56 -69 127 -72 184 -9 30 34
33 53 18 109 -8 30 -18 40 -50 53 -58 23 -81 20 -127 -16z"/>
<path d="M2935 310 c-5 -8 -19 -10 -41 -5 -37 6 -39 4 -24 -26 14 -25 61 -25
77 -1 6 11 8 24 3 31 -6 10 -9 10 -15 1z"/>
<path d="M3344 3082 c-10 -8 -13 -72 -2 -72 3 0 18 -39 33 -87 15 -49 31 -97
36 -108 6 -12 11 -27 13 -35 6 -37 19 -59 42 -74 23 -16 25 -16 34 9 13 35 14
33 -15 116 -13 40 -22 75 -19 78 2 3 23 -14 47 -37 234 -229 294 -285 306
-288 13 -2 47 -31 116 -99 17 -16 49 -43 71 -59 21 -17 48 -40 59 -53 11 -13
26 -23 32 -23 7 0 20 -13 30 -30 9 -16 20 -30 23 -30 3 0 26 -18 50 -41 26
-23 36 -38 25 -34 -24 8 -44 12 -106 21 -37 5 -47 3 -52 -10 -15 -39 36 -73
126 -82 28 -4 76 -15 105 -25 64 -23 92 -24 92 -4 0 8 5 15 10 15 15 0 12 26
-4 39 -8 6 -16 24 -19 39 -3 15 -13 56 -22 92 -9 36 -18 74 -21 85 -6 31 -18
45 -44 50 -12 2 -25 7 -28 10 -3 2 -11 0 -18 -6 -11 -9 -9 -20 7 -61 11 -28
19 -62 17 -76 -3 -23 -5 -22 -53 25 -27 26 -89 81 -137 122 -49 40 -88 76 -88
80 0 3 -17 17 -37 31 -20 14 -51 39 -70 57 -18 18 -37 33 -41 33 -11 0 -232
219 -232 230 0 6 -6 10 -12 10 -12 0 -85 70 -101 96 -7 12 52 11 126 -2 35 -6
37 -5 37 21 0 34 -36 67 -81 71 -87 9 -226 12 -235 6z"/>
</g>
</svg>
