<?xml version="1.0" standalone="no"?>
<!DOCTYPE svg PUBLIC "-//W3C//DTD SVG 20010904//EN"
 "http://www.w3.org/TR/2001/REC-SVG-20010904/DTD/svg10.dtd">
<svg version="1.0" xmlns="http://www.w3.org/2000/svg"
 width="539.000000pt" height="401.000000pt" viewBox="0 0 539.000000 401.000000"
 preserveAspectRatio="xMidYMid meet">
<metadata>
Created by potrace 1.16, written by Peter Selinger 2001-2019
</metadata>
<g transform="translate(0.000000,401.000000) scale(0.100000,-0.100000)"
fill="#000000" stroke="none">
<path d="M2829 3465 c-3 -2 -20 -7 -38 -10 -91 -16 -148 -76 -138 -142 8 -45
59 -124 105 -163 21 -17 46 -39 57 -49 46 -43 284 -149 299 -133 3 3 6 0 6 -6
0 -7 7 -12 15 -12 9 0 27 -11 41 -24 23 -20 24 -24 9 -30 -9 -3 -21 -4 -26 0
-5 3 -9 2 -9 -3 0 -4 -147 -9 -328 -10 -180 -1 -388 -4 -462 -8 -262 -13 -285
-14 -335 -19 -56 -7 -155 -43 -155 -58 0 -5 -11 -19 -25 -31 -39 -35 -39 -71
0 -111 51 -52 167 -102 218 -93 10 2 53 -3 95 -10 42 -7 136 -18 207 -23 72
-5 152 -14 178 -20 26 -5 78 -10 115 -11 37 0 90 -7 117 -14 43 -11 -7 -12
-345 -8 -217 3 -398 7 -402 10 -13 7 -210 -17 -265 -33 -31 -9 -61 -25 -72
-40 -22 -28 -36 -101 -27 -137 11 -46 65 -101 123 -125 31 -13 61 -29 68 -35
8 -9 57 -10 186 -5 147 7 518 3 584 -5 11 -1 30 -8 42 -15 13 -7 42 -12 65
-11 88 3 134 -1 118 -10 -8 -6 -18 -8 -22 -5 -4 3 -17 0 -29 -7 -13 -6 -84
-13 -168 -15 -80 -3 -167 -6 -194 -8 -26 -2 -49 0 -52 4 -3 4 -28 5 -57 2 -29
-2 -69 -4 -88 -2 -51 3 -69 2 -130 -5 -30 -4 -71 -8 -90 -9 -42 -3 -120 -26
-120 -36 0 -4 -9 -10 -19 -13 -31 -8 -39 -87 -15 -146 28 -67 80 -90 259 -116
17 -2 127 -7 245 -10 118 -3 247 -8 285 -9 39 -2 93 0 121 4 28 3 59 3 69 0
30 -11 -30 -28 -115 -34 -85 -5 -224 -22 -261 -31 -13 -3 -44 -8 -69 -11 -25
-2 -54 -6 -65 -8 -11 -2 -27 -4 -35 -5 -20 -1 -93 -68 -109 -99 -20 -37 -5
-76 37 -100 50 -28 266 -53 374 -43 43 3 85 4 95 0 10 -3 28 -3 40 2 12 4 82
8 155 8 73 1 156 3 183 6 l50 5 -27 -17 c-16 -10 -28 -21 -28 -25 0 -5 -7 -8
-15 -8 -16 0 -29 -37 -23 -67 2 -11 14 -19 31 -21 29 -4 56 19 134 111 29 33
39 38 85 42 29 2 89 9 133 15 44 6 107 13 140 15 33 3 71 7 85 11 44 11 294
54 339 58 24 2 48 9 54 15 6 6 19 11 28 11 10 0 40 11 67 25 28 14 55 25 61
25 5 0 25 12 43 28 40 33 67 51 91 58 9 4 17 10 17 15 0 5 14 16 31 24 16 9
47 31 67 49 47 42 65 46 235 52 98 4 147 10 161 20 11 8 30 14 42 14 11 0 23
3 26 6 12 11 -6 45 -34 65 -27 20 -30 20 -47 5 -11 -10 -35 -17 -57 -17 -188
2 -317 -19 -331 -54 -3 -8 -10 -15 -17 -15 -6 0 -23 -11 -37 -23 -13 -13 -44
-37 -67 -52 -23 -15 -42 -30 -42 -34 0 -3 -19 -15 -43 -26 -23 -11 -44 -23
-47 -26 -8 -10 -131 -59 -150 -59 -9 0 -20 -4 -25 -9 -6 -5 -39 -11 -75 -14
-36 -3 -72 -8 -80 -11 -8 -3 -33 -7 -55 -10 -22 -2 -51 -9 -65 -14 -14 -5 -49
-12 -79 -16 -29 -4 -58 -9 -63 -12 -5 -3 -30 -7 -56 -9 -26 -2 -75 -7 -109
-10 -64 -7 -83 4 -45 24 12 6 19 22 20 43 2 67 -43 78 -84 21 -53 -73 -105
-113 -149 -114 -22 0 -47 -2 -55 -4 -9 -1 -97 -5 -195 -9 -99 -3 -218 -9 -265
-12 -79 -5 -317 17 -341 31 -36 23 41 56 156 66 55 5 116 14 135 19 19 5 65
10 103 11 37 1 91 8 120 15 28 7 64 15 78 18 14 3 42 22 62 41 66 64 42 128
-56 145 -24 5 -49 4 -59 -1 -18 -10 -165 -11 -515 -5 -106 2 -193 -1 -193 -5
0 -5 -8 -5 -17 0 -10 5 -51 19 -92 32 -53 17 -76 29 -83 45 -35 75 57 94 477
100 475 6 483 7 528 95 46 91 34 110 -72 114 -37 2 -78 8 -90 14 -11 7 -72 14
-133 16 -147 6 -559 6 -570 -1 -10 -7 -136 -6 -171 1 -57 11 -130 45 -146 67
-46 65 -29 94 72 118 66 16 119 17 473 14 411 -3 531 3 601 31 55 22 63 57 23
97 -16 15 -36 29 -44 29 -9 1 -28 3 -43 5 -67 7 -244 24 -308 29 -38 3 -113
10 -165 15 -52 6 -136 14 -185 18 -50 5 -95 11 -101 14 -6 4 -33 10 -60 13
-27 4 -53 11 -59 16 -5 5 -19 9 -31 9 -23 0 -37 21 -28 44 11 29 114 55 244
61 69 3 159 10 200 15 41 6 138 9 215 8 77 -1 221 0 320 1 113 2 190 -1 208
-8 16 -6 57 -11 93 -11 61 0 67 -2 97 -34 18 -18 50 -46 72 -62 22 -15 54 -42
70 -59 40 -42 61 -49 83 -27 9 9 25 16 35 14 10 -2 17 3 17 12 0 24 -22 66
-35 66 -11 0 -39 21 -91 67 -13 13 -33 27 -44 33 -11 6 -20 17 -20 25 0 8 -4
15 -9 15 -6 0 -16 11 -23 24 -7 13 -23 42 -36 65 -12 22 -20 41 -18 41 3 0 -6
12 -20 27 -25 27 -94 63 -121 63 -8 0 -49 12 -91 26 -72 25 -166 79 -221 128
-36 32 -81 97 -81 116 0 23 51 31 116 19 27 -5 132 -11 234 -13 191 -3 224 -8
416 -62 94 -27 125 -48 184 -124 79 -102 172 -196 221 -220 19 -10 42 -26 49
-35 18 -21 94 -60 147 -74 44 -12 263 -33 324 -31 20 0 70 -8 110 -19 66 -18
77 -18 103 -6 22 11 38 12 73 4 87 -19 145 23 115 84 -14 28 -16 28 -71 22
-57 -7 -99 -7 -271 0 -99 4 -125 7 -249 25 -68 9 -126 30 -176 62 -83 54 -153
105 -168 122 -40 46 -55 64 -109 132 -72 90 -108 121 -161 134 -23 6 -62 18
-87 26 -25 8 -81 20 -125 25 -44 6 -89 12 -100 14 -11 1 -51 8 -90 13 -38 6
-104 11 -145 10 -98 -1 -228 10 -250 22 -9 5 -19 7 -21 5z"/>
<path d="M463 2956 c-29 -7 -68 -25 -87 -39 -19 -15 -39 -27 -44 -27 -12 0
-102 -88 -119 -115 -47 -77 -65 -158 -66 -290 -1 -81 3 -98 33 -170 28 -67 46
-93 109 -155 70 -69 82 -77 146 -95 98 -26 251 -19 330 15 11 5 45 20 75 33
39 17 74 44 119 92 68 73 86 106 102 188 15 78 22 254 10 261 -6 4 -8 13 -4
22 3 8 -2 23 -11 33 -9 10 -14 25 -10 35 3 9 1 16 -5 16 -6 0 -19 17 -30 38
-21 42 -107 107 -193 147 -48 22 -65 25 -178 24 -69 0 -148 -6 -177 -13z m272
-72 c38 -10 90 -39 120 -66 16 -16 33 -28 36 -28 4 0 14 -16 23 -35 9 -19 24
-35 33 -35 9 0 14 -3 10 -6 -3 -3 1 -25 9 -47 8 -23 17 -84 19 -136 3 -82 1
-102 -20 -153 -13 -32 -30 -64 -37 -72 -7 -8 -22 -26 -32 -40 -10 -14 -25 -26
-32 -26 -8 0 -14 -3 -14 -8 0 -4 -26 -22 -57 -39 -53 -29 -175 -61 -213 -56
-71 10 -134 24 -139 30 -3 5 -23 21 -43 36 -85 63 -125 124 -153 232 -18 68
-13 139 15 235 18 60 25 70 87 120 79 64 97 73 178 92 57 13 166 14 210 2z"/>
<path d="M1081 2274 c-12 -19 -21 -39 -21 -43 0 -13 -54 -67 -90 -88 -19 -12
-44 -30 -55 -40 -11 -10 -31 -23 -45 -29 -65 -30 -97 -43 -125 -49 -16 -4 -36
-14 -43 -23 -8 -11 -37 -17 -95 -21 -89 -6 -117 -19 -117 -55 0 -34 12 -42 65
-39 84 4 129 14 160 38 17 12 46 26 65 30 46 9 127 55 217 121 40 30 77 54 83
54 5 0 10 3 10 8 0 4 18 27 40 52 45 50 53 93 21 110 -33 17 -48 12 -70 -26z"/>
<path d="M1131 2077 c-14 -6 -33 -28 -43 -47 -27 -50 -103 -114 -161 -136 -18
-7 -55 -21 -83 -32 -28 -12 -61 -18 -73 -15 -32 8 -71 -22 -71 -56 0 -40 22
-55 67 -46 21 4 49 13 63 20 14 7 39 17 55 22 l30 9 2 -140 c1 -76 -2 -147 -7
-156 -12 -22 26 -68 42 -52 7 7 17 7 29 -1 35 -22 43 3 35 101 -6 65 13 52 55
-38 6 -14 15 -32 19 -40 7 -14 52 -22 77 -13 19 7 28 65 11 74 -8 4 -28 27
-44 51 -16 24 -31 45 -34 48 -12 11 -41 62 -38 65 2 2 34 -21 71 -51 56 -45
74 -55 100 -52 29 3 32 7 35 39 3 35 1 36 -56 62 -32 15 -70 37 -84 50 -14 13
-40 29 -57 37 -18 7 -40 24 -48 37 -15 23 -15 26 8 47 13 12 40 32 59 45 88
60 119 120 86 164 -16 20 -14 20 -45 4z"/>
<path d="M3644 1978 c-12 -5 -31 -27 -43 -49 -31 -54 -92 -120 -109 -117 -7 2
-23 -14 -35 -34 -21 -36 -21 -37 -3 -57 25 -28 42 -26 69 6 30 36 90 93 97 93
4 0 13 11 20 25 7 14 20 25 27 25 18 0 45 64 36 87 -6 17 -23 33 -33 32 -3 0
-15 -5 -26 -11z"/>
<path d="M1233 1344 c-8 -22 14 -83 42 -114 12 -14 43 -60 69 -102 38 -61 53
-78 77 -83 32 -7 59 7 59 32 0 7 -21 39 -46 71 -46 57 -104 154 -104 173 0 36
-84 55 -97 23z"/>
<path d="M2863 1133 c-7 -2 -13 -10 -13 -17 0 -7 -27 -38 -59 -69 -33 -32 -61
-61 -63 -65 -2 -4 -22 -23 -44 -41 -59 -46 -67 -106 -16 -114 30 -4 239 201
258 253 18 50 -11 74 -63 53z"/>
<path d="M1525 920 c-18 -20 -13 -40 22 -86 13 -17 23 -34 23 -38 0 -5 9 -20
19 -35 11 -15 23 -39 26 -54 4 -14 13 -31 21 -38 8 -6 14 -19 14 -29 0 -11 14
-21 39 -30 44 -14 61 -8 61 22 0 22 -30 78 -42 78 -4 0 -8 4 -8 9 0 5 -18 38
-40 74 -21 36 -42 77 -46 91 -11 45 -62 66 -89 36z"/>
<path d="M2425 663 c-21 -29 -42 -53 -47 -53 -5 0 -14 -11 -20 -25 -6 -14 -17
-25 -25 -25 -7 0 -13 -4 -13 -10 0 -5 -6 -10 -14 -10 -26 0 -36 -66 -14 -88
21 -21 52 -12 83 24 43 51 109 117 134 134 26 18 34 40 26 73 -5 19 -14 26
-39 29 -30 3 -37 -1 -71 -49z"/>
<path d="M1803 453 c-23 -9 -14 -40 37 -117 27 -42 61 -98 75 -124 53 -99 74
-127 98 -136 33 -12 57 6 57 42 0 18 19 44 69 92 79 77 95 120 55 147 -29 18
-53 14 -68 -12 -16 -28 -66 -87 -66 -78 -1 4 -11 -5 -24 -21 l-24 -29 -27 44
c-15 24 -40 58 -55 74 -15 17 -33 48 -40 70 -7 22 -18 43 -24 47 -12 9 -44 9
-63 1z"/>
</g>
</svg>
