<?xml version="1.0" standalone="no"?>
<!DOCTYPE svg PUBLIC "-//W3C//DTD SVG 20010904//EN"
 "http://www.w3.org/TR/2001/REC-SVG-20010904/DTD/svg10.dtd">
<svg version="1.0" xmlns="http://www.w3.org/2000/svg"
 width="497.000000pt" height="495.000000pt" viewBox="0 0 497.000000 495.000000"
 preserveAspectRatio="xMidYMid meet">
<metadata>
Created by potrace 1.16, written by Peter Selinger 2001-2019
</metadata>
<g transform="translate(0.000000,495.000000) scale(0.100000,-0.100000)"
fill="#000000" stroke="none">
<path d="M984 4694 c-25 -24 -31 -49 -14 -59 6 -3 10 -22 10 -41 0 -19 5 -34
11 -34 7 0 49 -36 95 -80 46 -44 87 -80 92 -80 5 0 37 -37 72 -82 36 -46 77
-96 93 -113 15 -16 35 -43 44 -60 9 -16 26 -41 39 -54 13 -13 24 -29 24 -36 0
-6 -20 -32 -45 -56 -50 -49 -51 -53 -30 -97 19 -36 27 -40 132 -52 74 -8 153
-34 153 -51 0 -4 7 -10 16 -13 19 -7 44 10 44 31 0 8 7 22 16 30 17 17 16 26
-10 128 -8 33 -23 94 -34 136 -23 91 -25 95 -58 102 -20 4 -33 -4 -64 -36 -45
-49 -54 -46 -102 46 -18 33 -50 78 -73 101 -43 44 -95 110 -95 121 0 8 -28 46
-71 95 -34 40 -92 127 -102 153 -3 9 -17 17 -29 18 -13 0 -38 2 -57 4 -25 2
-40 -3 -57 -21z"/>
<path d="M2550 4445 c-30 -19 -59 -42 -65 -52 -5 -10 -19 -28 -30 -39 -36 -38
-53 -62 -60 -85 -4 -13 -18 -48 -31 -77 -26 -57 -32 -117 -21 -221 7 -72 44
-136 121 -212 l43 -41 -11 -46 c-18 -78 -14 -76 -167 -57 -34 5 -49 3 -58 -9
-7 -9 -18 -13 -24 -9 -6 4 -8 0 -4 -10 3 -9 2 -19 -3 -22 -6 -4 -10 -1 -10 5
0 6 -15 0 -33 -14 -19 -15 -39 -26 -46 -26 -6 0 -24 -8 -39 -19 -15 -10 -38
-26 -52 -35 -14 -9 -41 -27 -61 -40 -36 -25 -180 -79 -187 -71 -2 2 -11 -3
-20 -11 -8 -9 -23 -13 -33 -11 -26 7 -46 -46 -29 -78 14 -26 19 -26 97 12 28
13 57 25 65 27 7 1 18 4 23 7 6 4 33 14 61 23 28 9 68 32 89 51 37 32 107 65
150 68 18 2 21 -8 32 -98 7 -55 15 -224 18 -375 3 -151 7 -293 9 -315 3 -52
27 -126 37 -119 5 3 9 -15 9 -40 0 -41 2 -45 30 -51 16 -4 33 -12 37 -18 5 -7
46 -41 92 -75 78 -59 98 -71 175 -101 24 -10 28 -16 23 -39 -3 -15 -21 -55
-40 -89 -20 -34 -38 -72 -42 -85 -12 -40 -116 -248 -124 -248 -4 0 -18 -21
-30 -46 -16 -32 -21 -55 -17 -77 l6 -32 -36 40 c-19 22 -87 93 -150 157 -111
113 -114 118 -97 136 10 10 27 30 38 46 38 54 165 178 178 174 6 -2 30 -32 52
-66 45 -69 67 -82 96 -56 25 23 24 50 -4 77 -13 12 -39 45 -57 72 -18 28 -61
77 -94 111 -37 37 -87 104 -126 170 -35 60 -82 127 -103 149 -21 22 -51 55
-65 74 -39 51 -110 127 -166 180 -101 94 -212 214 -229 247 -21 40 -37 49 -72
40 -40 -10 -32 -47 23 -113 27 -32 56 -64 66 -72 15 -13 15 -15 0 -40 -10 -14
-26 -34 -36 -45 -10 -11 -20 -27 -23 -35 -3 -9 -20 -24 -38 -34 -38 -21 -74
-52 -106 -93 l-22 -28 -32 39 c-18 21 -47 62 -65 89 -33 51 -60 70 -87 60 -16
-7 -22 -74 -6 -74 5 0 20 -17 32 -37 13 -21 29 -44 36 -51 7 -8 25 -30 40 -50
15 -21 54 -66 88 -102 33 -36 83 -92 110 -124 28 -31 60 -69 73 -83 12 -14 22
-29 22 -32 0 -3 19 -27 43 -52 23 -25 56 -63 72 -84 17 -21 51 -63 78 -92 26
-29 47 -57 47 -62 0 -5 33 -43 73 -84 111 -117 303 -320 391 -413 73 -78 122
-154 108 -168 -3 -3 0 -6 7 -6 7 0 33 -17 59 -38 72 -59 253 -139 342 -153 89
-14 258 -6 380 17 84 16 170 49 170 65 0 5 9 9 19 9 11 0 22 4 26 9 3 5 18 12
33 16 43 9 124 81 149 132 13 26 29 53 36 62 7 9 19 39 26 66 10 43 9 57 -4
87 -15 38 -71 88 -97 88 -8 0 -18 3 -21 7 -11 11 -170 6 -218 -7 -48 -13 -280
-131 -274 -140 2 -3 -8 -6 -21 -6 -28 -2 -55 -14 -206 -90 -94 -48 -114 -54
-168 -54 -41 0 -73 6 -100 20 -22 11 -46 20 -55 20 -16 0 -125 108 -125 123 0
5 4 6 9 3 16 -10 59 34 71 72 7 20 25 62 40 92 15 30 51 105 80 165 29 61 63
126 75 145 22 36 68 150 63 156 -19 19 -86 56 -120 66 -23 7 -49 18 -58 26 -8
7 -26 22 -40 33 l-25 19 30 -7 c34 -9 264 -7 273 1 12 13 30 5 36 -16 4 -15
24 -31 57 -47 28 -13 53 -30 56 -37 3 -7 -4 -30 -15 -51 -11 -21 -29 -65 -40
-98 -51 -150 -91 -258 -115 -307 -14 -29 -32 -69 -40 -89 -8 -20 -24 -45 -34
-55 -24 -23 -23 -62 2 -91 15 -17 22 -19 40 -11 26 12 38 34 54 103 7 28 19
63 27 79 8 16 14 33 14 38 0 5 12 35 26 66 14 31 28 72 31 89 3 18 12 38 19
44 8 6 14 17 14 25 0 29 84 217 108 240 17 17 26 64 12 64 -5 0 -10 7 -10 16
0 11 -6 15 -20 11 -21 -5 -110 45 -110 63 0 5 -16 10 -35 10 -38 0 -44 13 -21
43 12 15 11 31 -5 105 -16 74 -19 127 -19 352 1 318 -4 429 -21 495 -15 61
-45 112 -67 119 -41 13 -169 26 -196 20 -26 -6 -28 -4 -21 12 5 11 9 34 10 52
l2 33 69 2 c60 2 78 7 129 37 123 73 214 200 245 345 13 58 4 159 -15 175 -8
6 -17 25 -20 42 -4 16 -14 38 -24 47 -9 9 -25 28 -36 42 -44 56 -126 87 -245
93 -71 4 -78 2 -130 -29z m235 -66 c5 -5 16 -9 25 -9 28 0 101 -68 125 -117
44 -87 27 -197 -50 -313 -45 -68 -54 -77 -121 -123 -104 -70 -211 -51 -293 53
-53 67 -64 106 -59 204 10 157 105 297 212 311 21 2 42 7 45 11 8 8 104 -5
116 -17z m-160 -863 c72 -7 122 -25 138 -49 35 -54 39 -107 41 -517 1 -223 5
-413 10 -422 6 -14 0 -19 -31 -27 -66 -17 -159 -22 -204 -11 -24 6 -66 15 -94
20 -27 5 -69 16 -91 25 -40 15 -41 17 -40 58 0 23 -3 58 -7 77 -4 19 -10 141
-13 270 -5 232 -18 450 -29 502 -4 20 1 32 16 47 12 11 19 23 16 28 -6 9 205
8 288 -1z m-796 -652 c28 -22 39 -33 103 -106 26 -29 75 -84 110 -122 67 -73
114 -136 101 -136 -4 0 -3 -4 2 -8 19 -14 61 -77 84 -127 13 -27 34 -60 47
-72 13 -12 24 -26 24 -31 0 -5 -18 -26 -40 -46 -22 -20 -40 -40 -40 -44 0 -5
-33 -41 -74 -80 l-74 -72 -47 49 c-27 28 -55 61 -64 75 -9 13 -32 42 -52 63
-19 21 -48 56 -64 78 -16 22 -54 69 -85 105 -30 36 -75 90 -99 120 -54 67 -76
92 -120 136 -26 25 -30 34 -18 34 9 0 17 5 17 10 0 6 8 10 18 10 14 0 15 2 2
10 -12 8 2 26 75 95 50 47 95 83 102 81 6 -3 14 5 17 17 l5 21 23 -21 c13 -11
34 -29 47 -39z m1784 -1176 c88 -34 30 -192 -99 -271 -50 -31 -137 -69 -179
-79 -265 -62 -465 -55 -574 19 -19 13 -38 23 -44 23 -25 0 4 11 44 16 24 3 73
22 109 42 36 20 119 62 185 93 66 31 164 79 218 107 54 28 117 55 140 60 51
11 162 5 200 -10z"/>
<path d="M262 4108 c-13 -17 -12 -65 2 -76 6 -5 22 -12 36 -15 35 -8 98 -74
139 -144 19 -32 41 -68 48 -81 20 -33 55 -26 59 11 2 21 -6 37 -32 63 -19 20
-34 44 -34 54 0 10 -18 42 -41 70 -91 115 -148 153 -177 118z"/>
<path d="M705 3636 c-32 -17 -19 -44 52 -115 58 -57 89 -103 85 -123 -3 -12
35 -28 51 -22 15 5 30 54 18 54 -4 0 -23 28 -44 63 -39 66 -102 140 -127 148
-8 3 -24 1 -35 -5z"/>
<path d="M1019 3253 c-29 -7 -29 -41 -1 -76 15 -17 30 -34 34 -37 3 -3 8 -11
10 -19 2 -8 20 -32 40 -55 31 -34 40 -39 55 -30 23 14 28 57 9 74 -9 7 -16 18
-16 24 0 7 -10 21 -23 32 -12 11 -31 31 -42 44 -28 35 -47 47 -66 43z"/>
<path d="M3090 1060 c-20 -5 -26 -13 -28 -42 -3 -33 0 -37 30 -47 33 -11 85
-52 104 -81 5 -8 19 -23 31 -34 19 -16 25 -17 52 -5 16 7 32 21 34 31 5 19
-21 48 -44 48 -8 0 -46 31 -84 68 -59 56 -75 67 -95 62z"/>
<path d="M3392 749 c-12 -12 -22 -29 -22 -36 0 -18 30 -65 51 -80 10 -7 31
-35 48 -63 25 -40 35 -49 53 -46 13 3 26 5 29 5 4 1 10 8 13 17 4 10 -6 31
-26 55 -64 75 -88 107 -88 115 0 5 -9 20 -19 33 l-18 23 -21 -23z"/>
<path d="M3657 453 c-16 -15 -5 -57 25 -104 18 -27 36 -49 40 -49 5 0 8 -6 8
-13 0 -20 38 -38 65 -31 38 9 31 40 -20 95 -25 26 -45 54 -45 62 0 29 -54 59
-73 40z"/>
</g>
</svg>
