<?xml version="1.0" standalone="no"?>
<!DOCTYPE svg PUBLIC "-//W3C//DTD SVG 20010904//EN"
 "http://www.w3.org/TR/2001/REC-SVG-20010904/DTD/svg10.dtd">
<svg version="1.0" xmlns="http://www.w3.org/2000/svg"
 width="561.000000pt" height="557.000000pt" viewBox="0 0 561.000000 557.000000"
 preserveAspectRatio="xMidYMid meet">
<metadata>
Created by potrace 1.16, written by Peter Selinger 2001-2019
</metadata>
<g transform="translate(0.000000,557.000000) scale(0.100000,-0.100000)"
fill="#000000" stroke="none">
<path d="M4784 5227 c-19 -23 -33 -53 -32 -73 0 -10 -3 -32 -7 -49 -5 -24 0
-38 24 -72 17 -24 28 -43 24 -43 -14 0 -31 -54 -32 -100 -1 -25 -5 -60 -11
-79 -7 -25 -6 -39 4 -53 12 -16 12 -29 0 -81 -8 -33 -20 -67 -26 -74 -6 -7
-10 -37 -9 -65 0 -29 -4 -70 -10 -92 -6 -23 -12 -48 -14 -56 -1 -8 -17 -24
-36 -35 -57 -33 -99 -68 -99 -82 0 -24 -29 -14 -163 57 -72 39 -142 73 -154
76 -12 3 -27 12 -34 20 -13 16 -45 19 -54 4 -3 -5 -16 -10 -28 -10 -12 0 -44
-11 -72 -23 -27 -13 -56 -22 -62 -20 -7 3 -13 0 -13 -6 0 -13 -40 -30 -76 -33
-13 -1 -24 -5 -24 -8 0 -3 -24 -14 -52 -24 -29 -11 -60 -24 -68 -31 -8 -7 -32
-18 -52 -24 -20 -7 -42 -19 -48 -27 -7 -7 -20 -14 -30 -14 -10 0 -41 -16 -70
-35 -29 -19 -64 -38 -79 -42 -14 -3 -42 -14 -61 -23 -19 -10 -64 -27 -100 -39
-36 -12 -84 -35 -107 -52 -24 -16 -52 -32 -62 -34 -11 -2 -39 -14 -63 -28 -24
-13 -60 -29 -81 -36 -20 -7 -43 -18 -50 -24 -7 -7 -22 -17 -32 -23 -11 -7 -20
-21 -19 -33 0 -11 -3 -21 -7 -21 -4 0 -17 -16 -29 -36 -20 -31 -22 -44 -17
-110 l6 -74 -66 0 c-61 0 -98 8 -213 47 -25 9 -65 19 -90 23 -71 13 -132 29
-167 45 -17 8 -49 15 -71 15 -35 0 -41 -4 -53 -32 -8 -18 -12 -37 -11 -43 6
-18 12 -330 7 -355 -4 -18 -12 -25 -30 -26 -14 -1 -25 3 -25 8 0 6 -6 6 -14
-1 -8 -7 -25 -13 -38 -15 -13 -1 -36 -9 -53 -16 -16 -7 -33 -13 -37 -12 -5 1
-8 -4 -8 -12 0 -8 -5 -16 -12 -18 -17 -6 -15 -136 2 -168 14 -24 16 -30 19
-48 3 -21 81 -87 127 -108 l50 -24 -3 -97 c-2 -54 -7 -109 -13 -123 -5 -14 -8
-46 -8 -71 1 -25 -1 -50 -4 -55 -2 -5 -5 -22 -6 -39 -1 -16 -6 -33 -11 -38 -5
-5 -4 -18 2 -31 8 -16 17 -21 37 -18 18 2 36 -5 57 -22 17 -14 35 -26 41 -26
6 0 12 -4 14 -8 2 -5 27 -25 56 -45 29 -20 70 -49 90 -66 20 -16 57 -35 82
-42 48 -14 65 -23 212 -112 l95 -57 0 -153 c1 -83 3 -175 6 -203 3 -29 1 -69
-4 -90 -6 -22 -13 -111 -15 -199 -6 -187 -6 -165 1 -285 13 -244 17 -348 17
-510 0 -96 5 -183 10 -192 5 -10 18 -17 31 -15 43 4 49 27 49 201 1 90 -2 167
-5 172 -2 5 -5 34 -4 64 0 30 -3 97 -7 149 -10 112 -10 404 -1 551 4 58 7 175
8 262 1 86 5 159 9 163 3 3 27 -1 52 -9 62 -21 81 -20 106 6 14 15 20 36 20
67 0 42 3 47 33 62 51 25 74 82 82 207 2 35 6 66 9 70 3 3 2 10 -3 16 -5 6
-11 25 -14 41 -11 65 -37 105 -70 105 -17 0 -19 5 -14 34 3 19 2 37 -1 41 -9
8 -11 65 -3 65 3 0 6 60 6 132 0 73 3 144 7 158 5 14 24 36 43 50 36 26 70 83
60 100 -3 6 -3 16 2 23 4 6 8 15 9 20 1 4 3 10 4 15 1 4 1 22 0 39 -1 18 4 48
11 67 11 29 10 38 -4 60 -9 14 -17 32 -17 39 0 20 -30 44 -64 53 l-29 7 6 77
c6 75 6 77 -19 89 -14 6 -45 11 -69 11 -50 0 -99 16 -90 29 3 5 1 12 -5 16 -6
3 -10 18 -9 33 0 15 -1 36 -3 47 -2 15 3 21 25 23 15 2 27 -1 27 -5 0 -5 18
-9 40 -10 40 -2 156 -33 217 -59 18 -7 60 -20 95 -29 35 -9 79 -27 98 -39 19
-13 47 -26 62 -29 15 -4 73 -29 130 -56 153 -72 199 -92 241 -107 21 -7 59
-25 85 -39 26 -14 85 -43 132 -65 47 -22 92 -44 100 -49 42 -25 150 -71 189
-80 24 -5 47 -14 50 -19 3 -5 15 -11 26 -13 17 -4 21 -16 28 -89 8 -82 11
-197 7 -310 -1 -30 -1 -57 0 -60 1 -3 4 -117 6 -255 2 -137 6 -320 9 -405 9
-224 9 -369 2 -590 -14 -392 -18 -550 -21 -808 -3 -253 -3 -263 16 -277 16
-10 26 -11 44 -3 13 6 24 14 25 17 0 3 2 202 3 441 2 239 7 523 10 630 4 107
7 260 5 340 -1 80 -2 234 -3 342 0 109 -4 198 -7 198 -3 0 -6 154 -7 343 0
189 -3 359 -7 379 -6 33 -5 36 32 55 105 56 227 113 242 113 6 0 28 16 50 35
21 19 43 35 49 35 6 0 13 8 16 18 4 11 19 25 34 32 15 8 38 24 52 36 30 26
139 84 159 84 16 0 54 45 62 75 4 12 1 28 -5 37 -15 20 -72 15 -99 -10 -12
-11 -49 -35 -82 -53 -58 -32 -164 -109 -215 -156 -23 -22 -87 -55 -220 -116
-44 -20 -59 -22 -75 -13 -11 6 -24 11 -30 12 -39 2 -117 28 -167 55 -10 5 -24
9 -32 9 -9 0 -38 14 -66 30 -28 17 -55 30 -60 30 -8 0 -49 19 -205 97 -38 19
-99 46 -135 59 -36 14 -79 33 -96 43 -41 24 -197 91 -212 91 -7 0 -12 5 -12
10 0 6 -4 10 -10 10 -5 0 -38 14 -72 30 -34 17 -68 30 -75 30 -8 0 -46 14 -85
30 -39 17 -73 28 -75 26 -3 -2 -30 5 -61 16 -32 11 -82 26 -112 32 -30 7 -54
16 -54 21 2 13 165 95 189 95 3 0 21 11 38 24 18 13 102 52 187 85 85 34 160
67 167 72 18 16 144 79 157 79 6 0 34 12 61 25 28 14 55 25 61 25 5 0 29 9 52
20 22 11 46 20 53 20 7 0 41 14 76 30 88 42 157 37 270 -19 44 -22 87 -46 94
-53 17 -17 58 -35 129 -58 30 -10 74 -28 97 -39 23 -12 47 -21 53 -21 6 0 39
-13 73 -28 34 -16 82 -35 107 -42 25 -8 63 -25 85 -37 53 -32 162 -83 175 -83
5 0 10 -4 10 -9 0 -5 15 -12 34 -15 19 -4 45 -15 57 -25 41 -31 60 -33 80 -10
11 12 19 29 19 38 -1 20 -24 51 -39 51 -6 0 -11 3 -11 6 0 7 60 94 75 110 9
10 22 37 56 119 14 36 23 70 21 83 -2 6 2 12 8 12 7 0 10 6 7 13 -2 6 0 22 4
34 5 13 11 44 13 70 3 27 7 68 10 93 3 25 8 83 11 130 3 47 8 99 10 115 8 60
6 252 -4 297 -6 25 -10 67 -9 93 3 52 -9 65 -58 65 -28 0 -32 -4 -38 -34 -4
-19 -1 -56 6 -83 8 -30 13 -106 12 -203 -1 -132 -10 -344 -15 -360 -1 -3 -3
-18 -5 -35 -9 -110 -41 -232 -81 -308 -28 -54 -106 -167 -115 -167 -5 0 -28 9
-50 20 -23 11 -49 20 -57 21 -9 0 -29 9 -46 19 -61 39 -102 58 -177 83 -42 14
-89 32 -105 40 -15 8 -44 17 -64 21 -21 4 -42 13 -49 21 -9 11 -4 19 27 39 30
20 50 25 93 24 30 0 64 -6 75 -12 11 -6 31 -12 44 -13 25 -2 60 -14 118 -39
17 -8 35 -14 41 -14 5 0 20 -11 33 -24 23 -23 25 -24 51 -8 34 20 46 65 23 88
-14 15 -163 71 -250 94 -41 12 -103 35 -110 42 -3 3 -3 17 0 31 5 18 16 27 38
32 58 13 118 17 130 7 7 -4 28 -9 47 -10 41 -3 130 -32 130 -44 0 -14 51 -9
66 6 8 8 14 23 14 34 0 25 -52 70 -88 77 -15 3 -43 10 -62 15 -55 13 -161 24
-204 21 l-39 -3 6 47 c10 72 28 100 60 98 15 -1 27 1 27 5 0 21 204 6 235 -18
23 -17 60 -19 77 -3 23 21 23 69 0 82 -56 30 -297 58 -329 38 -4 -3 -20 -3
-35 0 -26 5 -28 7 -21 47 3 22 10 44 16 47 5 4 5 9 -2 14 -9 5 -9 11 0 22 11
12 36 14 146 9 73 -3 141 -9 150 -14 10 -5 24 -7 31 -5 7 3 24 -3 38 -12 37
-24 71 -13 82 28 5 17 5 34 0 35 -4 2 -8 9 -8 16 0 21 -137 42 -390 58 -41 3
-45 6 -54 36 -6 21 -6 44 1 65 11 36 -1 77 -23 77 -7 0 -18 2 -26 5 -7 2 -18
-1 -24 -8z m-2379 -1637 c50 -12 110 -28 135 -36 97 -30 157 -44 210 -48 30
-2 55 -5 55 -6 0 0 16 -3 35 -4 19 -2 64 -7 100 -11 36 -4 74 -8 85 -9 15 -1
21 -9 23 -31 2 -24 -3 -34 -27 -50 -16 -10 -28 -22 -25 -26 2 -4 -1 -9 -6 -11
-14 -4 -19 -77 -21 -253 l0 -140 32 -29 32 -28 0 -122 c-1 -206 -8 -269 -31
-281 -60 -32 -84 -82 -85 -180 -1 -109 19 -198 57 -254 26 -38 33 -61 17 -61
-5 0 -14 7 -21 15 -7 8 -18 15 -25 15 -7 0 -18 7 -26 16 -7 9 -33 25 -58 37
-25 11 -48 23 -51 26 -10 12 -70 51 -77 51 -4 0 -35 18 -68 40 -33 22 -65 40
-73 40 -30 0 -178 88 -259 155 -90 74 -100 89 -98 148 1 28 4 63 8 77 7 27 15
183 23 410 2 80 6 174 8 210 2 36 4 134 5 218 1 141 2 153 19 148 9 -3 58 -15
107 -26z m751 -305 c16 -24 15 -99 -1 -125 -4 -6 -8 -29 -9 -52 -3 -32 -10
-46 -37 -67 -18 -14 -38 -26 -44 -26 -12 0 -20 158 -11 234 5 39 12 48 46 54
14 2 28 5 32 6 4 0 15 -10 24 -24z m-996 -105 c26 0 36 -29 29 -91 -3 -35 -4
-78 -3 -96 4 -28 2 -31 -19 -26 -24 7 -84 67 -93 96 -3 9 -10 17 -15 17 -5 0
-9 17 -9 39 0 36 2 39 35 45 19 4 35 12 35 18 0 5 7 7 16 4 9 -3 19 -6 24 -6z
m953 -807 c7 -16 12 -44 11 -63 -2 -19 -3 -51 -4 -72 0 -20 -7 -53 -16 -73
-13 -33 -18 -36 -42 -30 -33 8 -39 17 -52 78 -22 103 -11 174 29 180 54 8 61
7 74 -20z"/>
<path d="M3357 3420 c-20 -4 -40 -10 -43 -13 -4 -3 -7 -61 -7 -129 -1 -68 -5
-126 -10 -129 -6 -4 -6 -12 -1 -20 5 -8 10 -27 11 -44 6 -85 1 -572 -6 -720
-5 -93 -9 -190 -9 -215 1 -25 -3 -72 -7 -105 -10 -76 -10 -104 -2 -135 7 -28
63 -63 93 -59 18 2 71 -19 104 -41 8 -6 49 -26 90 -45 41 -19 82 -39 90 -44
33 -20 231 -111 243 -111 6 0 23 -9 36 -19 14 -10 31 -17 38 -14 7 3 13 1 13
-3 0 -5 15 -15 33 -22 17 -8 42 -18 53 -24 21 -10 73 9 99 36 6 6 11 68 12
146 1 74 4 171 7 215 9 128 3 531 -8 542 -2 3 1 24 8 46 6 23 10 53 8 67 -7
46 -6 445 1 472 9 36 -21 64 -93 85 -63 18 -173 63 -243 99 -26 13 -56 24 -66
24 -11 0 -21 4 -23 8 -4 11 -130 72 -149 72 -8 0 -19 4 -24 9 -6 4 -32 17 -60
27 -27 10 -59 23 -70 30 -28 17 -74 22 -118 14z m138 -121 c33 -11 83 -31 112
-45 28 -13 58 -24 67 -24 8 0 16 -3 18 -7 2 -5 23 -17 48 -29 25 -11 79 -37
120 -57 41 -20 80 -37 87 -37 6 0 24 -6 40 -14 15 -7 49 -23 74 -35 l46 -22 4
-202 c2 -111 2 -229 2 -262 -4 -127 -3 -315 0 -442 2 -89 0 -133 -7 -133 -6 0
-5 -4 3 -9 8 -5 10 -14 6 -21 -4 -7 -9 -60 -10 -119 -2 -98 -13 -211 -21 -211
-4 0 -56 22 -142 61 -35 16 -69 29 -75 29 -7 0 -84 36 -171 80 -87 44 -162 80
-167 80 -6 0 -31 14 -56 31 -24 17 -57 34 -71 38 -30 8 -29 -12 -18 261 6 135
18 775 16 800 -2 18 -8 132 -9 175 -2 98 -1 104 21 119 12 9 23 16 23 16 0 0
28 -9 60 -21z"/>
<path d="M3540 3030 c-6 -11 -8 -42 -4 -75 5 -38 3 -55 -5 -55 -6 0 -11 -6
-11 -14 0 -8 -9 -33 -20 -57 -15 -34 -18 -57 -13 -99 4 -44 1 -63 -14 -90 -13
-24 -18 -49 -16 -80 1 -25 4 -79 6 -120 2 -41 8 -84 14 -95 9 -18 24 -113 24
-157 0 -10 4 -18 10 -18 12 0 12 -53 -1 -66 -6 -6 -10 -42 -8 -84 l3 -73 35
-2 c19 -2 43 1 52 6 23 12 23 55 1 67 -15 9 -16 18 -5 100 7 49 12 112 12 141
0 28 4 51 8 51 8 0 53 -74 52 -85 0 -3 8 -13 18 -23 12 -12 23 -48 31 -105 16
-110 39 -137 85 -102 18 14 18 16 -3 102 -11 48 -21 96 -21 106 0 11 -9 31
-20 47 -19 27 -19 27 0 45 11 10 34 40 51 66 17 27 35 49 39 49 10 0 28 46 35
90 8 43 13 49 19 19 2 -13 9 -47 15 -75 8 -40 7 -65 -6 -115 -8 -35 -16 -72
-17 -81 -1 -10 -5 -21 -9 -24 -18 -18 -6 -102 23 -157 42 -81 40 -92 -25 -148
-33 -27 -39 -41 -30 -70 9 -28 75 -26 101 4 32 35 54 75 54 96 0 11 4 21 10
23 18 6 17 72 -2 100 -10 14 -18 29 -18 33 0 3 -7 13 -15 22 -12 11 -14 28
-10 66 3 28 8 54 10 57 8 12 19 103 18 145 -1 37 -18 179 -27 215 -12 52 -20
77 -29 88 -5 6 -7 12 -4 12 4 0 -6 24 -21 53 -23 45 -32 52 -59 55 -46 5 -61
-29 -39 -83 13 -31 14 -45 5 -72 -6 -18 -8 -49 -6 -68 4 -25 1 -35 -9 -35 -8
0 -14 9 -14 20 0 10 -8 24 -19 29 -10 6 -24 24 -31 41 -7 16 -16 30 -21 30
-14 0 -61 108 -58 133 2 12 -3 33 -11 47 -7 14 -16 59 -18 102 -4 67 -7 77
-26 82 -37 10 -55 6 -66 -14z m55 -313 c4 -17 16 -39 68 -122 6 -11 19 -27 27
-35 9 -8 28 -38 42 -66 l27 -51 -25 -37 c-30 -44 -60 -48 -74 -8 -16 42 -34
76 -45 84 -10 7 -11 11 -14 41 0 7 -17 19 -36 27 -40 16 -41 21 -20 80 8 23
15 68 15 100 0 66 12 86 23 38 4 -18 9 -41 12 -51z"/>
<path d="M1288 2834 c-4 -4 -24 -8 -45 -10 -21 -2 -77 -15 -125 -29 -47 -14
-103 -26 -122 -27 -24 -2 -38 -9 -42 -20 -3 -10 -9 -18 -14 -18 -15 0 -40 -57
-40 -90 0 -18 9 -45 21 -61 20 -28 20 -34 9 -142 -6 -61 -16 -134 -22 -162 -6
-27 -12 -56 -13 -65 -2 -25 -17 -74 -25 -85 -5 -5 -10 -23 -12 -39 -1 -16 -10
-33 -18 -37 -61 -33 -153 -73 -195 -84 -133 -35 -163 -52 -247 -140 -59 -61
-92 -125 -86 -165 3 -17 1 -30 -2 -30 -4 0 -5 -11 -2 -25 6 -35 -5 -71 -30
-95 -12 -11 -18 -20 -12 -20 5 0 -5 -9 -23 -19 -17 -11 -40 -17 -50 -15 -31 9
-57 -29 -49 -72 7 -35 8 -36 44 -30 57 10 149 58 156 81 3 11 15 30 26 43 11
12 18 22 15 22 -2 0 2 18 11 39 10 26 14 58 11 95 -3 39 -1 59 9 67 8 6 14 17
14 24 0 17 74 81 124 107 22 11 62 27 90 34 53 15 90 30 116 45 8 5 31 16 50
25 19 9 53 24 75 35 22 10 83 32 135 48 52 16 133 43 180 59 l85 30 8 -30 c7
-27 4 -35 -30 -67 -67 -64 -186 -141 -220 -141 -4 0 -35 -14 -68 -31 -33 -18
-73 -38 -90 -47 -56 -28 -94 -62 -89 -77 4 -8 2 -15 -4 -15 -5 0 -7 -11 -4
-25 2 -15 0 -25 -7 -25 -7 0 -11 -6 -10 -13 3 -18 -29 -85 -45 -94 -14 -8 -46
-60 -46 -76 0 -10 51 -31 70 -28 8 1 29 18 45 37 l30 34 -3 -176 c-1 -97 -6
-183 -11 -192 -5 -10 -7 -46 -6 -82 2 -36 4 -73 4 -82 1 -21 56 -47 126 -58
49 -8 48 -9 -15 -5 -73 4 -76 5 -180 41 -110 38 -135 38 -161 -1 -12 -17 -34
-37 -48 -43 -15 -6 -35 -19 -46 -27 -45 -35 -132 -86 -175 -102 -25 -9 -47
-20 -50 -24 -7 -10 -92 -29 -102 -23 -4 3 -8 0 -8 -5 0 -6 -6 -11 -14 -11 -20
0 -26 -36 -9 -59 8 -13 25 -21 41 -21 31 0 120 26 136 39 6 5 34 18 61 28 28
11 77 37 109 59 33 21 66 44 75 49 9 6 23 18 32 28 9 9 20 17 24 17 5 0 16 7
25 15 16 15 60 10 60 -7 0 -5 4 -7 8 -4 4 2 33 -3 63 -13 30 -10 79 -22 109
-25 104 -13 110 -15 110 -42 0 -14 9 -44 20 -66 11 -23 20 -54 20 -68 0 -37
54 -118 87 -131 57 -22 97 -22 117 0 11 12 26 21 35 21 20 1 61 34 61 50 0 6
9 19 20 28 12 10 23 32 26 50 3 18 16 69 30 115 81 267 73 251 124 250 48 -1
138 46 177 91 13 14 27 26 33 26 5 0 10 8 10 18 0 10 7 27 15 38 9 12 14 43
15 86 0 36 3 68 8 70 4 2 29 31 55 65 46 62 48 68 47 152 0 13 -5 30 -11 37
-11 14 4 54 20 54 11 0 24 69 26 140 1 39 -3 59 -15 73 -14 15 -15 23 -6 43 6
13 14 24 19 24 4 0 7 6 7 14 0 8 5 16 11 18 7 2 7 12 1 28 -5 14 -11 30 -13
35 -4 16 -23 32 -46 39 -12 4 -29 18 -38 33 -15 22 -22 25 -55 20 -41 -5 -42
-4 -20 48 18 41 61 204 66 246 2 24 9 55 14 69 19 51 27 150 16 187 -12 39
-51 72 -106 91 -37 12 -249 34 -261 26 -4 -2 -9 -16 -12 -31 -3 -16 -13 -55
-22 -88 -9 -33 -19 -76 -21 -97 -2 -20 -9 -49 -15 -65 -7 -15 -11 -36 -10 -45
1 -10 -7 -38 -18 -64 -12 -26 -21 -53 -21 -61 0 -8 -4 -12 -9 -8 -9 5 -7 49 4
100 19 89 16 72 30 235 7 78 6 87 -15 113 -14 18 -31 27 -50 27 -16 0 -30 5
-32 11 -2 5 -7 7 -10 3z m22 -109 c0 -8 -7 -15 -15 -15 -8 0 -15 -4 -15 -8 0
-12 -116 -46 -129 -38 -6 4 -11 3 -11 -3 0 -6 -7 -8 -15 -5 -8 4 -23 3 -32 -2
-33 -14 -64 -13 -70 3 -7 18 13 33 45 33 12 0 22 4 22 8 0 4 18 9 40 10 21 2
50 8 63 15 36 19 117 20 117 2z m403 -30 c26 -7 43 -19 45 -30 6 -29 -29 -82
-67 -102 l-36 -19 -53 51 c-47 47 -52 55 -46 83 6 31 7 32 61 31 30 -1 74 -7
96 -14z m-415 -127 c1 -18 -5 -54 -13 -80 -8 -29 -10 -50 -4 -53 5 -4 4 -15
-3 -28 -6 -12 -11 -47 -10 -77 1 -32 -6 -73 -16 -99 -16 -41 -21 -45 -82 -63
-36 -11 -67 -24 -70 -28 -4 -6 -105 -30 -127 -30 -2 0 -1 15 2 33 3 17 7 49 9
71 2 21 8 41 12 45 5 3 10 44 11 89 3 109 17 201 32 203 3 0 13 2 22 4 8 1 40
6 70 9 30 4 74 13 99 21 64 20 67 19 68 -17z m265 -68 c31 -41 38 -57 36 -88
-2 -20 -7 -43 -13 -51 -10 -13 -35 -110 -41 -156 -7 -61 -18 -105 -26 -105 -6
0 -7 -4 -4 -10 3 -5 2 -10 -3 -10 -5 0 -7 -13 -4 -29 3 -26 0 -30 -32 -41 -19
-6 -46 -25 -60 -41 -14 -16 -29 -29 -35 -29 -5 0 -13 -9 -16 -20 -7 -23 -14
-24 -37 -7 -15 12 -12 18 32 66 45 48 48 56 46 99 -2 26 -4 52 -6 57 -5 14 11
89 20 95 5 3 10 19 13 35 3 17 19 73 36 125 17 52 31 106 31 120 0 26 7 40 19
40 3 -1 23 -23 44 -50z m175 -80 c-4 -33 -15 -74 -23 -90 -9 -17 -12 -30 -8
-30 4 0 2 -5 -5 -12 -7 -7 -12 -19 -12 -28 0 -18 -29 -82 -41 -90 -4 -3 -9
-21 -11 -39 -2 -19 -9 -37 -17 -39 -8 -3 -11 0 -7 7 4 6 11 41 15 79 10 80 35
174 55 205 15 22 16 25 16 51 0 15 26 46 39 46 4 0 4 -27 -1 -60z m79 -388
c-3 -4 -1 -16 3 -27 12 -33 -18 -70 -84 -104 -131 -66 -278 -93 -293 -54 -8
21 63 84 85 75 10 -3 13 -1 8 6 -4 7 -1 12 8 12 9 0 16 5 16 10 0 6 9 10 20
10 11 0 20 3 20 8 0 4 20 16 45 27 25 11 45 23 45 27 0 8 26 12 88 15 24 2 41
-1 39 -5z m-623 -284 c-2 -46 -7 -99 -11 -118 -4 -19 -8 -64 -9 -100 -1 -36
-3 -65 -4 -65 -1 0 -3 -29 -5 -65 -2 -36 -7 -108 -11 -160 -4 -52 -7 -98 -6
-102 1 -5 -2 -8 -7 -8 -5 0 -5 -15 -1 -36 5 -20 6 -42 3 -49 -7 -20 -95 -40
-158 -36 -16 2 -42 3 -56 4 -25 2 -27 6 -34 60 -3 31 -3 62 1 68 3 6 8 74 10
152 2 78 6 165 9 192 3 28 8 86 10 130 2 44 4 83 5 86 1 20 167 97 194 90 5
-1 12 2 15 7 7 10 42 31 53 32 3 0 4 -37 2 -82z m168 -42 c-9 -17 -21 -34 -26
-37 -13 -10 -11 -120 2 -128 15 -9 27 -61 13 -61 -6 0 -10 -3 -10 -7 1 -5 0
-10 -1 -13 -7 -19 -12 -52 -13 -92 -1 -36 4 -53 20 -70 21 -23 21 -24 4 -79
-17 -52 -17 -57 -1 -87 10 -17 23 -38 30 -46 6 -9 8 -21 4 -28 -5 -7 -9 -19
-10 -28 -8 -45 -25 -112 -32 -128 -5 -9 -17 -50 -27 -89 -11 -40 -23 -73 -27
-73 -5 0 -23 7 -41 17 -18 9 -46 16 -64 15 -18 -1 -35 3 -38 8 -3 6 -17 10
-31 10 -17 0 -24 5 -24 20 0 23 20 70 37 88 7 7 13 19 13 27 0 7 13 18 29 23
49 17 53 35 66 252 3 47 8 108 10 135 3 28 6 61 7 75 1 14 5 75 10 135 5 61
10 126 11 145 2 21 12 45 24 57 11 11 24 36 28 54 l7 32 24 -48 c22 -47 22
-50 6 -79z m460 84 c-6 -50 -8 -56 -28 -90 -34 -58 -217 -140 -311 -140 -65 0
-83 22 -58 73 32 67 57 88 125 104 36 8 75 16 88 16 12 1 22 5 22 10 0 4 6 7
13 7 6 0 35 11 62 25 63 31 91 30 87 -5z m-37 -262 c-7 -32 -40 -77 -80 -108
-33 -25 -146 -60 -213 -65 -73 -6 -82 3 -62 66 14 42 17 44 111 54 30 3 79 17
108 30 29 14 57 22 62 19 5 -3 9 0 9 6 0 11 34 28 58 29 10 1 12 -8 7 -31z
m-113 -267 c-2 -25 -48 -85 -72 -95 -8 -3 -26 -13 -40 -21 -28 -17 -90 -20
-90 -5 0 6 -7 10 -15 10 -8 0 -16 6 -16 13 -5 52 16 97 45 95 25 -1 137 20
145 27 3 3 14 5 26 3 14 -2 19 -9 17 -27z m-467 -587 c22 -9 50 -33 44 -38 -2
-2 -19 -10 -38 -19 -47 -23 -82 -22 -88 3 -3 11 -9 20 -14 20 -10 0 -13 43 -4
52 6 6 70 -5 100 -18z"/>
<path d="M3319 1152 c-14 -9 -42 -33 -63 -53 -37 -37 -37 -37 -30 -100 3 -35
8 -67 10 -71 3 -4 -2 -24 -9 -46 -8 -21 -11 -47 -7 -58 10 -28 21 -214 12
-214 -12 0 -7 -134 6 -157 15 -27 45 -30 70 -5 15 15 17 35 14 172 -8 354 -7
394 15 385 8 -3 19 -5 24 -5 5 0 9 -8 9 -17 0 -10 7 -31 15 -46 10 -20 15 -60
14 -135 0 -59 2 -161 5 -227 2 -66 5 -137 5 -157 1 -32 5 -39 26 -44 37 -9 65
19 64 65 0 20 2 47 5 60 3 14 1 30 -4 36 -8 9 -16 153 -10 180 1 6 1 15 0 20
-2 6 -4 54 -6 108 l-3 97 32 0 c39 0 37 18 40 -315 2 -231 3 -252 21 -272 24
-28 52 -29 66 -4 6 12 9 116 7 278 l-2 258 30 -3 c58 -5 80 -13 65 -22 -13 -8
-16 -45 -19 -275 -2 -126 7 -275 17 -288 17 -20 49 -11 69 19 12 20 14 43 9
122 -7 120 -8 206 0 297 3 39 5 78 5 88 0 15 5 17 32 12 18 -4 36 -11 41 -16
6 -5 18 -9 28 -9 16 0 17 -3 6 -22 -7 -13 -11 -27 -9 -33 5 -16 1 -347 -4
-356 -3 -4 -7 -35 -9 -68 l-3 -61 34 -6 c60 -11 62 -4 67 236 3 184 11 280 21
280 2 0 16 -7 31 -15 16 -8 36 -15 45 -15 9 0 24 -9 34 -20 14 -16 16 -30 11
-87 -8 -85 -9 -110 -7 -148 2 -59 -9 -221 -18 -251 -19 -65 42 -111 84 -64 16
17 17 26 8 65 -6 28 -7 47 0 54 5 5 11 96 14 203 3 106 5 208 6 225 1 38 -21
83 -39 83 -7 0 -19 6 -26 13 -7 6 -20 13 -28 15 -8 1 -42 14 -75 27 -33 13
-80 29 -105 36 -25 6 -50 15 -56 20 -9 8 -88 30 -174 48 -44 10 -106 29 -145
46 -16 7 -57 23 -90 35 -33 12 -70 26 -81 30 -17 7 -20 15 -17 34 10 51 -30
70 -78 38z"/>
</g>
</svg>
