<?xml version="1.0" standalone="no"?>
<!DOCTYPE svg PUBLIC "-//W3C//DTD SVG 20010904//EN"
 "http://www.w3.org/TR/2001/REC-SVG-20010904/DTD/svg10.dtd">
<svg version="1.0" xmlns="http://www.w3.org/2000/svg"
 width="509.000000pt" height="421.000000pt" viewBox="0 0 509.000000 421.000000"
 preserveAspectRatio="xMidYMid meet">
<metadata>
Created by potrace 1.16, written by Peter Selinger 2001-2019
</metadata>
<g transform="translate(0.000000,421.000000) scale(0.100000,-0.100000)"
fill="#000000" stroke="none">
<path d="M2520 4003 c-72 -10 -219 -69 -245 -99 -5 -6 -28 -24 -50 -40 -79
-57 -115 -113 -165 -254 -18 -51 -23 -85 -23 -156 1 -88 2 -94 38 -150 21 -32
45 -64 54 -71 14 -10 12 -16 -15 -50 -16 -21 -40 -54 -51 -73 -12 -19 -35 -48
-52 -64 l-31 -30 -67 22 c-38 11 -94 28 -125 37 -39 10 -59 21 -63 35 -6 19
-21 26 -65 35 -20 4 -39 15 -85 49 -18 13 -65 -19 -65 -44 0 -10 -5 -22 -10
-25 -6 -4 -8 -10 -5 -14 6 -10 -29 -80 -71 -141 -17 -25 -36 -60 -44 -78 -7
-19 -18 -39 -24 -46 -18 -19 -35 -49 -52 -86 -8 -19 -23 -51 -33 -70 -11 -19
-22 -50 -26 -67 -3 -18 -11 -33 -16 -33 -5 0 -9 -7 -9 -15 0 -9 -18 -48 -41
-88 -23 -40 -43 -81 -45 -92 -2 -11 -42 -96 -88 -190 -134 -268 -137 -280 -97
-410 12 -38 31 -99 41 -135 10 -36 30 -96 44 -135 13 -38 32 -97 41 -130 9
-33 21 -70 26 -83 16 -41 10 -87 -17 -123 -14 -19 -40 -63 -58 -99 -19 -36
-46 -87 -61 -115 -15 -27 -58 -108 -95 -180 -94 -180 -92 -177 -116 -210 -12
-17 -34 -55 -50 -85 -16 -30 -32 -59 -36 -65 -5 -5 -23 -32 -40 -60 -18 -27
-38 -54 -45 -58 -7 -4 -13 -14 -13 -21 0 -8 -6 -19 -13 -25 -20 -16 -9 -69 18
-87 20 -13 27 -12 70 6 26 11 79 25 118 31 40 6 97 17 127 24 30 8 75 12 100
10 64 -7 83 1 75 32 -4 16 1 36 15 58 l21 34 -25 7 c-15 3 -43 3 -64 -1 -20
-5 -47 -7 -59 -6 -13 1 -23 -2 -23 -6 0 -11 -118 -42 -178 -48 -23 -2 -42 -2
-42 0 0 7 51 98 70 125 10 14 40 68 68 120 28 52 71 133 96 179 25 47 46 90
46 97 0 7 5 16 11 19 5 4 22 32 37 63 14 32 29 59 33 62 3 3 14 21 24 40 30
61 79 129 98 135 9 4 17 15 17 26 0 25 0 24 10 58 5 19 4 33 -4 42 -12 14 -99
269 -95 279 1 3 -3 16 -10 28 -7 13 -15 35 -17 49 -3 14 -11 55 -20 92 -8 36
-16 75 -19 87 -4 17 0 20 23 18 15 -2 36 -5 47 -8 11 -3 47 -12 80 -20 60 -14
175 -50 270 -83 86 -29 176 -75 183 -92 4 -9 16 -16 27 -16 11 0 25 -11 31
-24 7 -13 16 -26 21 -30 5 -3 19 -26 32 -50 12 -24 46 -80 75 -125 64 -98 122
-210 130 -251 6 -31 -8 -92 -42 -182 -11 -29 -23 -72 -27 -95 -4 -24 -16 -63
-26 -87 -10 -24 -19 -51 -19 -61 0 -9 -12 -45 -26 -81 -15 -35 -33 -88 -40
-117 -15 -58 -101 -242 -113 -242 -9 0 11 -85 23 -97 8 -9 37 -11 266 -19 103
-3 152 -1 168 7 24 13 30 44 10 52 -10 4 -10 6 0 6 6 1 12 12 12 26 0 34 -31
44 -100 34 -92 -13 -213 -10 -234 6 -17 13 -17 16 -2 46 9 18 16 39 16 49 0 9
4 20 9 25 13 14 63 157 57 163 -3 3 1 17 8 31 8 14 26 67 41 116 15 50 46 153
71 230 24 77 44 155 44 173 0 18 5 43 11 54 9 16 7 26 -10 49 -12 15 -21 32
-21 37 0 5 -7 15 -16 23 -8 7 -26 34 -39 60 -13 26 -30 53 -37 60 -18 18 -45
65 -103 174 -26 50 -53 94 -60 99 -16 12 4 68 42 125 13 19 23 40 23 47 0 7
14 33 30 57 17 25 30 49 30 54 0 6 9 18 20 28 11 10 20 21 20 26 0 4 18 36 40
70 22 35 43 72 46 82 9 25 20 21 34 -12 6 -16 23 -40 37 -52 22 -21 35 -24
121 -26 56 0 122 -8 157 -18 33 -9 78 -21 100 -25 165 -33 247 -56 376 -106
57 -22 66 -29 61 -47 -3 -11 -13 -28 -24 -39 -10 -10 -18 -26 -19 -35 0 -10
-3 -27 -5 -38 -14 -58 11 -289 36 -336 9 -15 5 -21 -17 -33 -16 -8 -36 -23
-45 -33 -19 -20 -29 -29 -75 -61 -18 -13 -33 -31 -33 -41 0 -9 -9 -27 -20 -38
-10 -12 -40 -61 -65 -111 -40 -78 -45 -94 -39 -131 8 -48 42 -103 113 -181 28
-30 51 -58 51 -62 0 -5 7 -8 16 -8 12 0 14 -5 8 -17 -5 -10 -9 -43 -8 -75 0
-45 5 -63 28 -92 15 -20 32 -36 39 -36 21 0 39 -38 27 -60 -15 -29 -1 -129 25
-175 39 -68 78 -95 165 -116 182 -42 148 -42 385 -3 17 3 63 21 104 40 40 20
90 36 110 37 43 1 131 -22 131 -34 0 -5 8 -9 19 -9 10 0 37 -7 60 -14 62 -23
119 -28 199 -21 48 4 80 13 91 23 9 10 41 29 71 44 66 32 85 52 95 98 12 60
41 95 107 130 35 18 73 42 84 54 12 11 39 37 61 57 39 37 76 90 128 184 33 59
46 190 26 246 -19 52 -41 138 -41 160 0 10 15 41 33 67 100 143 117 172 132
227 10 33 22 70 28 83 6 12 10 90 10 180 0 133 -4 166 -21 215 -35 97 -87 156
-191 213 l-55 31 2 79 c5 117 -10 171 -60 217 -22 20 -44 37 -49 37 -4 0 -15
7 -24 17 -20 19 -129 39 -240 44 -153 6 -170 5 -197 -2 -14 -4 -29 -5 -32 -1
-7 6 -135 15 -231 16 -67 1 -135 -17 -180 -48 -16 -12 -32 -21 -35 -21 -21 -3
-50 -19 -50 -28 0 -7 -9 -18 -20 -25 -11 -6 -27 -27 -35 -45 -40 -83 -47 -90
-106 -101 -21 -4 -42 -13 -49 -21 -18 -22 -37 -19 -84 13 -22 15 -57 35 -76
44 -19 9 -46 31 -60 47 -14 17 -30 31 -36 31 -7 0 -14 7 -18 15 -3 8 -12 15
-21 15 -8 0 -15 5 -15 10 0 6 -5 10 -10 10 -6 0 -30 14 -53 30 -23 17 -69 49
-102 70 -97 64 -173 117 -197 139 -12 12 -25 21 -30 21 -12 0 -108 92 -108
104 -1 19 -46 45 -73 42 -14 -2 -28 2 -31 9 -2 7 -31 15 -64 18 -34 3 -71 12
-84 21 -12 9 -33 16 -45 16 -23 0 -131 34 -141 44 -5 6 45 77 96 136 l33 39
45 -14 c58 -17 202 -9 258 14 22 10 53 21 67 24 83 21 273 189 323 287 38 75
54 166 45 265 -3 44 -5 83 -2 87 11 20 -59 118 -84 118 -8 0 -30 8 -51 19 -44
22 -241 44 -312 34z m140 -99 c19 -3 52 -17 72 -31 24 -16 45 -23 59 -20 24 7
93 -57 85 -79 -3 -7 -2 -16 3 -18 4 -3 6 -37 4 -77 -4 -92 -43 -174 -115 -247
-61 -60 -162 -134 -172 -125 -3 4 -6 2 -6 -4 0 -11 -74 -41 -100 -41 -8 0 -44
-1 -80 -2 -69 -2 -150 14 -150 30 0 6 -3 9 -7 9 -34 -5 -84 41 -108 98 -54
128 46 363 185 435 14 7 27 15 30 19 10 11 114 51 153 58 40 8 72 7 147 -5z
m-870 -936 c52 -16 113 -34 135 -40 22 -6 47 -16 55 -23 8 -7 31 -15 50 -18
55 -8 149 -32 223 -57 l67 -22 -22 -36 c-12 -21 -50 -80 -85 -133 -35 -53 -63
-99 -63 -102 0 -13 -93 -157 -101 -157 -5 0 -27 24 -49 53 -22 28 -61 77 -86
107 -44 53 -70 92 -181 274 -67 110 -74 123 -79 153 -3 15 -7 30 -10 35 -7 10
18 5 146 -34z m-248 -5 c10 -9 18 -21 18 -26 0 -12 71 -155 105 -212 13 -22
27 -47 31 -55 4 -8 41 -60 82 -115 40 -55 81 -110 90 -123 36 -49 58 -77 94
-117 35 -39 36 -41 21 -70 -9 -17 -19 -32 -22 -35 -4 -3 -15 -23 -25 -44 -10
-22 -26 -48 -36 -58 -9 -10 -32 -48 -51 -83 -19 -36 -37 -65 -41 -65 -5 0 -8
-4 -8 -9 0 -5 -16 -32 -35 -61 -19 -29 -35 -57 -35 -64 0 -6 -9 -22 -19 -35
-14 -19 -21 -21 -37 -13 -38 21 -100 40 -154 47 -30 4 -59 11 -65 15 -5 4 -30
14 -55 21 -25 7 -50 17 -57 22 -17 13 -202 67 -229 67 -12 0 -32 8 -44 18 -21
17 -22 21 -10 58 7 21 26 67 41 101 16 34 29 65 29 68 0 13 54 120 62 123 4 2
8 10 8 17 0 7 23 59 50 114 28 55 50 104 50 108 0 9 35 86 60 135 11 20 20 43
20 50 0 7 18 41 39 74 21 34 42 70 45 81 4 11 15 28 26 38 11 10 20 24 20 32
0 17 10 17 32 -4z m951 -237 c15 -14 31 -26 35 -26 4 0 23 -14 42 -31 19 -18
51 -42 72 -55 20 -13 39 -28 43 -34 3 -6 21 -17 38 -25 41 -19 142 -92 243
-176 43 -36 93 -74 109 -85 17 -10 36 -24 43 -31 7 -7 17 -13 21 -13 4 0 21
-11 37 -25 16 -14 34 -25 41 -25 6 0 15 -5 19 -12 4 -6 3 -8 -3 -5 -6 4 -18
-4 -27 -18 -9 -14 -23 -25 -31 -25 -8 0 -24 -10 -37 -23 -13 -13 -47 -43 -76
-66 -59 -49 -51 -49 -187 -1 -95 33 -113 39 -158 47 -15 3 -30 9 -33 14 -3 5
-17 9 -32 9 -15 0 -72 12 -127 26 -146 37 -165 42 -215 47 -101 12 -117 18
-146 58 -16 21 -32 39 -36 39 -20 0 -3 43 47 120 30 47 55 88 55 92 0 7 69
119 87 143 5 6 28 40 53 77 l44 66 26 -18 c14 -10 38 -30 53 -44z m1443 -251
c31 -8 62 -19 69 -25 6 -5 15 -7 18 -4 3 4 22 -1 42 -10 33 -16 75 -14 75 3 0
19 54 28 159 25 63 -2 119 -8 125 -14 5 -5 18 -10 27 -10 10 0 19 -3 21 -7 2
-5 19 -16 39 -26 20 -11 43 -30 50 -44 16 -31 14 -99 -5 -150 -34 -90 -25
-123 33 -123 37 0 118 -44 158 -85 35 -37 75 -116 93 -184 7 -28 10 -85 7
-151 -5 -100 -8 -113 -46 -191 -26 -53 -67 -113 -111 -164 -42 -48 -71 -90
-72 -105 -3 -46 3 -105 13 -114 5 -6 9 -17 9 -25 0 -9 12 -38 26 -66 22 -42
25 -58 19 -105 -6 -55 -45 -145 -77 -180 -10 -11 -18 -22 -18 -24 0 -7 -29
-42 -55 -68 -23 -22 -123 -71 -184 -89 -48 -14 -47 -13 -56 -87 -9 -86 -21
-102 -114 -147 -66 -33 -172 -37 -236 -10 -65 28 -89 38 -100 41 -5 2 -30 10
-55 19 -61 23 -127 12 -225 -35 -47 -22 -115 -45 -165 -55 -47 -9 -92 -18
-100 -20 -8 -1 -37 1 -65 7 -27 5 -63 11 -79 13 -124 15 -186 103 -146 204 11
28 15 51 10 51 -6 0 -6 9 -1 23 12 31 4 42 -44 57 -47 16 -78 47 -70 69 4 9 9
27 11 41 2 14 6 34 9 46 3 16 -12 38 -59 87 -74 76 -130 145 -139 168 -12 35
69 166 155 249 20 19 61 51 92 70 51 33 74 69 44 71 -7 0 -3 4 10 9 32 13 30
65 -3 92 -14 11 -25 27 -25 37 0 9 -5 22 -10 27 -6 6 -12 60 -13 121 -2 106
-1 110 27 147 33 44 43 43 143 -5 34 -16 67 -29 72 -29 6 0 20 -9 30 -19 19
-19 22 -19 50 -5 31 16 34 24 33 93 0 39 -9 50 -47 57 -15 3 -37 9 -47 15 -10
6 -27 7 -37 4 -27 -8 -72 11 -65 29 3 8 36 34 72 57 64 41 102 72 102 84 0 7
77 77 98 89 9 5 30 10 47 12 67 4 84 14 91 53 9 48 19 67 66 121 76 87 196
118 324 85z"/>
</g>
</svg>
