<?xml version="1.0" standalone="no"?>
<!DOCTYPE svg PUBLIC "-//W3C//DTD SVG 20010904//EN"
 "http://www.w3.org/TR/2001/REC-SVG-20010904/DTD/svg10.dtd">
<svg version="1.0" xmlns="http://www.w3.org/2000/svg"
 width="491.000000pt" height="465.000000pt" viewBox="0 0 491.000000 465.000000"
 preserveAspectRatio="xMidYMid meet">
<metadata>
Created by potrace 1.16, written by Peter Selinger 2001-2019
</metadata>
<g transform="translate(0.000000,465.000000) scale(0.100000,-0.100000)"
fill="#000000" stroke="none">
<path d="M1395 4594 c-44 -8 -110 -25 -147 -39 -38 -13 -68 -22 -68 -18 0 3
-8 -1 -17 -9 -10 -8 -38 -26 -63 -39 -25 -13 -47 -26 -50 -29 -3 -3 -16 -13
-30 -21 -27 -18 -62 -46 -117 -95 -19 -17 -46 -37 -61 -45 -15 -7 -40 -22 -57
-34 -16 -11 -43 -27 -59 -35 -15 -8 -38 -25 -50 -38 -11 -13 -34 -39 -51 -57
-16 -18 -37 -43 -45 -55 -8 -12 -29 -41 -45 -64 -29 -38 -42 -57 -88 -125 -23
-35 -43 -79 -59 -129 -7 -23 -16 -42 -20 -42 -3 0 -10 -25 -14 -56 -7 -61 -37
-129 -87 -202 -18 -26 -43 -83 -55 -127 -20 -70 -22 -94 -17 -190 4 -61 9
-119 12 -130 3 -11 7 -29 9 -40 8 -64 31 -130 79 -230 30 -62 55 -118 55 -124
0 -6 20 -57 45 -113 25 -56 45 -106 45 -111 0 -5 33 -77 74 -161 76 -156 103
-222 137 -336 11 -36 27 -78 35 -93 9 -16 13 -31 10 -34 -3 -4 -1 -12 5 -19 5
-7 17 -68 24 -136 22 -188 19 -181 65 -201 30 -13 40 -23 40 -40 0 -41 -22
-90 -74 -162 -27 -38 -66 -99 -86 -135 -50 -90 -64 -114 -70 -120 -3 -3 -10
-16 -17 -30 -6 -14 -29 -63 -51 -110 -22 -47 -49 -107 -61 -135 -12 -27 -26
-59 -31 -70 -5 -11 -14 -37 -20 -58 -7 -22 -18 -51 -26 -65 -8 -15 -14 -34
-14 -43 0 -9 -3 -19 -8 -23 -4 -4 -7 -11 -8 -14 0 -4 -3 -14 -6 -22 -13 -35
-49 -146 -52 -160 -1 -8 -6 -24 -11 -34 -5 -11 -9 -38 -9 -59 -1 -35 2 -41 26
-48 37 -10 66 13 73 59 4 20 15 67 26 104 11 38 19 69 19 70 -1 6 68 204 85
243 22 53 35 82 87 195 25 52 53 116 63 142 9 26 32 64 50 85 18 21 42 58 55
82 12 25 29 51 37 59 7 8 35 46 61 86 35 53 48 84 52 121 4 45 8 51 35 59 17
5 37 11 45 14 8 3 23 6 32 7 31 4 143 64 173 94 17 16 40 45 53 63 13 18 42
59 65 90 85 116 102 173 113 373 10 184 8 195 -40 195 -19 0 -38 -6 -44 -12
-5 -7 -13 -74 -16 -148 -7 -173 -5 -158 -18 -210 -15 -59 -55 -139 -73 -147
-8 -3 -15 -11 -15 -17 0 -7 -11 -23 -24 -35 -14 -13 -29 -35 -36 -50 -12 -30
-103 -82 -175 -100 -45 -12 -144 -11 -151 0 -2 4 -7 27 -10 51 -12 87 -34 175
-69 278 -37 107 -41 119 -44 132 -1 4 -15 33 -31 64 -17 31 -30 62 -30 70 0
16 -56 135 -87 187 -13 20 -21 37 -18 37 3 0 -2 17 -11 37 -9 21 -17 43 -18
48 -1 6 -13 30 -26 55 -26 49 -40 82 -71 174 -12 33 -43 105 -71 160 -61 122
-77 191 -80 350 -3 138 8 178 72 280 39 62 73 143 85 206 4 19 10 40 14 45 4
6 22 49 41 97 24 66 51 110 106 180 110 140 158 191 200 213 22 10 63 34 92
52 29 18 55 33 59 33 3 0 19 16 36 36 17 19 51 47 76 61 25 15 61 37 79 50 17
13 32 21 32 18 0 -3 17 3 38 13 77 39 242 77 291 66 24 -5 50 -15 112 -44 33
-15 68 -47 97 -87 23 -34 28 -48 13 -39 -13 8 -24 -23 -23 -69 0 -22 -3 -53
-8 -70 -5 -16 -12 -48 -14 -70 -3 -22 -9 -56 -14 -75 -10 -39 -89 -197 -103
-206 -5 -3 -15 -20 -23 -37 -7 -18 -23 -41 -34 -53 -10 -11 -25 -37 -33 -57
-7 -20 -17 -37 -21 -37 -4 0 -8 -5 -8 -11 0 -6 -16 -34 -35 -63 -19 -29 -35
-60 -35 -69 0 -9 -7 -38 -16 -64 -40 -116 -17 -237 62 -321 72 -77 75 -82 69
-103 -4 -11 -17 -27 -31 -35 -22 -15 -27 -14 -71 7 -41 21 -62 24 -143 22
-116 -1 -158 -7 -173 -22 -6 -6 -15 -11 -19 -11 -16 0 -50 -36 -69 -72 -18
-36 -19 -48 -4 -108 4 -14 7 -34 8 -45 2 -24 11 -36 62 -89 38 -39 82 -75 115
-96 8 -5 11 -10 6 -10 -5 0 -2 -7 5 -16 16 -19 34 -51 49 -83 6 -13 19 -36 30
-51 11 -15 17 -30 13 -34 -3 -3 -1 -6 5 -6 7 0 11 -4 10 -9 -5 -17 43 -70 79
-88 46 -21 153 -24 177 -4 9 8 31 21 49 31 26 14 33 25 38 59 3 24 1 45 -4 48
-19 11 -87 20 -87 12 0 -21 -3 -25 -31 -42 -21 -14 -39 -17 -66 -12 -53 9 -63
19 -107 110 -59 119 -102 175 -188 241 -66 51 -90 104 -70 149 16 34 52 47
145 51 86 4 122 -7 172 -48 26 -22 47 -27 87 -19 4 0 9 9 12 19 4 9 31 43 61
75 30 32 55 67 55 77 0 26 -48 100 -102 159 -24 26 -50 66 -57 88 -21 62 -9
155 28 231 17 34 31 64 31 67 0 2 14 24 30 48 17 25 30 48 30 51 0 9 19 31 48
58 12 12 22 28 22 35 0 13 19 53 30 63 12 10 80 157 80 171 0 8 7 27 15 42 8
16 15 45 17 65 1 20 8 47 16 59 7 12 11 31 7 42 -3 10 -2 22 3 25 8 5 101 -26
175 -58 45 -20 157 -132 157 -157 0 -10 4 -20 9 -23 12 -8 33 -121 35 -196 2
-61 27 -130 47 -130 4 0 10 -8 13 -18 3 -9 14 -22 25 -27 98 -52 119 -66 149
-98 62 -66 186 -182 205 -192 31 -16 26 -81 -8 -111 -13 -12 -21 -25 -18 -28
4 -3 -1 -6 -11 -6 -9 0 -19 -8 -23 -17 -3 -10 -15 -26 -25 -36 -25 -24 -19
-101 10 -149 12 -19 24 -52 28 -74 7 -43 20 -64 40 -64 8 0 14 -4 14 -9 0 -5
9 -11 21 -14 26 -7 17 -26 -44 -87 -54 -55 -87 -80 -103 -80 -6 0 -15 -11 -18
-25 -4 -14 -10 -23 -15 -21 -5 3 -11 -3 -14 -13 -2 -10 -36 -36 -76 -57 -46
-25 -71 -45 -71 -56 0 -10 5 -18 10 -18 6 0 10 -6 10 -14 0 -16 21 -26 56 -26
13 0 80 27 149 60 69 33 127 60 129 60 3 0 26 10 53 22 26 12 51 21 56 20 4
-1 7 3 7 9 0 5 5 7 10 4 6 -3 10 -15 10 -26 0 -10 -4 -19 -10 -19 -5 0 -10 -8
-10 -17 0 -9 -9 -27 -21 -39 -30 -32 -40 -86 -24 -137 11 -38 51 -115 65 -127
3 -3 11 -21 16 -40 9 -31 7 -44 -22 -105 -18 -39 -46 -85 -63 -103 -17 -18
-31 -36 -31 -39 0 -6 -13 -21 -89 -101 -23 -24 -41 -47 -41 -52 0 -19 -84
-112 -137 -152 -59 -44 -79 -60 -115 -90 -11 -10 -29 -20 -39 -23 -11 -4 -19
-13 -19 -21 0 -12 -19 -18 -57 -17 -7 1 -13 -5 -13 -12 0 -7 -7 -18 -15 -25
-9 -7 -14 -19 -11 -27 6 -14 -3 -15 -184 -17 -58 -1 -111 -5 -118 -10 -7 -4
-27 -7 -45 -6 -17 1 -34 1 -37 0 -6 -3 -33 -6 -100 -10 -57 -4 -150 9 -150 21
0 5 -8 9 -18 9 -10 0 -45 19 -76 41 -51 36 -61 40 -82 30 -41 -18 -32 -60 24
-102 113 -86 194 -105 390 -89 75 6 244 13 374 15 l238 4 17 -32 c9 -18 17
-35 18 -39 0 -3 3 -10 8 -14 4 -4 7 -18 7 -30 0 -13 8 -28 18 -33 10 -6 12
-11 4 -11 -7 0 -10 -5 -7 -10 4 -6 8 -23 11 -38 3 -15 16 -51 30 -80 15 -29
28 -70 30 -90 2 -25 12 -45 29 -60 33 -28 53 -28 76 -1 23 26 18 48 -27 138
-19 36 -34 73 -34 81 0 9 -4 20 -9 25 -6 6 -12 21 -14 35 -8 42 -29 113 -43
147 -8 17 -14 36 -14 42 0 10 -9 22 -57 73 -9 10 -23 17 -32 16 -9 -1 -24 0
-35 0 -15 2 -16 5 -6 17 7 8 16 15 20 15 10 0 64 46 98 83 14 15 30 27 36 27
7 0 29 21 51 46 22 26 48 54 57 64 9 10 13 21 10 25 -4 4 1 11 11 16 9 6 17
15 17 22 0 7 36 50 80 97 43 47 79 91 80 98 0 6 4 12 8 12 4 0 21 26 37 58 17
31 33 59 36 62 20 18 42 115 31 137 -5 10 -22 45 -38 78 -16 33 -35 64 -41 68
-22 13 -16 80 8 97 24 17 47 63 52 103 4 31 7 32 62 18 22 -6 59 -15 83 -21
38 -10 42 -13 30 -27 -7 -9 -13 -23 -13 -32 0 -9 -4 -22 -9 -29 -5 -9 -1 -18
10 -27 13 -9 19 -27 20 -62 1 -26 4 -57 7 -68 10 -38 26 -100 38 -147 7 -27
16 -48 21 -48 4 0 8 -7 8 -15 0 -7 6 -18 13 -22 6 -4 25 -26 42 -47 29 -40 33
-73 19 -140 -3 -12 -6 -40 -8 -62 -4 -53 -9 -60 -43 -67 -16 -3 -37 -8 -48
-10 -11 -3 -27 -6 -36 -6 -30 -2 -51 -27 -55 -67 -8 -97 -14 -124 -44 -193
-18 -41 -34 -90 -36 -110 -3 -19 -9 -38 -13 -41 -5 -3 -10 -25 -12 -50 -1 -25
-6 -49 -10 -55 -4 -5 -10 -25 -14 -44 -4 -18 -16 -48 -26 -65 -10 -18 -22 -57
-25 -87 -3 -30 -8 -57 -9 -60 -2 -3 -7 -34 -11 -70 -4 -35 -10 -74 -15 -86 -5
-13 -6 -23 -3 -23 4 0 2 -6 -3 -13 -6 -6 -18 -48 -27 -92 -9 -44 -22 -93 -27
-110 -6 -16 -17 -52 -26 -79 -17 -55 -45 -104 -51 -88 -2 6 -10 8 -18 5 -8 -3
-14 0 -14 6 0 6 -6 11 -14 11 -26 0 -90 42 -139 92 -27 26 -62 55 -79 64 -17
9 -43 27 -57 41 -31 29 -97 63 -123 63 -10 0 -18 4 -18 9 0 5 -10 13 -23 17
-67 20 -207 98 -250 138 -53 51 -66 55 -90 28 -23 -26 -21 -56 6 -81 44 -41
122 -101 130 -101 5 0 20 -9 34 -20 14 -11 29 -18 33 -15 4 3 13 -2 20 -10 7
-8 19 -15 27 -15 48 0 209 -90 287 -161 88 -79 101 -90 129 -107 15 -9 27 -20
27 -24 0 -4 6 -8 14 -8 7 0 28 -10 47 -23 34 -23 93 -28 132 -12 23 10 74 130
91 215 25 127 49 226 55 230 13 9 32 92 30 128 -2 21 2 46 8 57 6 11 13 42 16
68 4 26 15 69 25 95 22 55 51 146 57 182 3 14 8 41 12 60 4 19 7 37 8 40 2 22
30 70 40 70 7 0 51 -7 97 -15 77 -13 119 -16 228 -14 19 1 51 1 70 1 19 1 55
-6 80 -15 85 -30 151 -39 228 -29 76 9 95 1 76 -30 -5 -7 -9 -26 -10 -43 -3
-75 -17 -176 -25 -181 -5 -3 -7 -9 -4 -15 6 -9 -7 -98 -26 -179 -34 -147 -39
-170 -44 -220 -17 -162 -30 -243 -41 -262 -3 -4 -7 -31 -10 -60 -3 -29 -9 -78
-14 -108 -6 -30 -12 -68 -15 -85 -2 -16 -8 -43 -11 -60 -18 -76 -4 -104 51
-105 40 0 54 25 51 91 -2 30 1 62 6 71 4 9 10 52 12 95 3 43 7 97 10 121 3 23
8 59 11 80 2 20 9 52 14 70 5 18 10 35 10 37 1 3 1 6 2 8 0 1 2 32 4 68 2 37
11 93 19 125 8 33 18 73 21 89 8 38 13 60 15 60 1 0 3 16 5 35 2 19 6 49 10
65 16 83 25 148 21 153 -3 3 -1 11 4 18 13 14 19 44 21 94 2 55 21 152 36 180
18 36 16 53 -10 84 -18 21 -29 26 -49 21 l-25 -6 2 123 c1 110 4 124 21 132
20 10 84 98 84 116 0 6 11 28 25 48 14 20 25 44 25 54 0 9 4 19 9 22 4 3 11
25 15 48 15 103 19 118 27 118 5 0 9 9 9 20 0 23 32 45 80 55 19 4 43 15 54
24 22 19 46 72 46 102 0 12 7 27 15 33 8 6 17 27 20 46 3 19 14 62 24 95 70
227 97 374 96 525 -1 69 -5 150 -9 180 -3 30 -9 73 -12 96 -14 117 -72 194
-144 194 -16 0 -30 4 -30 9 0 5 -33 9 -72 10 -86 3 -492 2 -528 0 -14 -1 -45
-1 -70 1 -25 1 -65 0 -90 -4 -25 -3 -103 -8 -175 -11 -71 -3 -170 -9 -220 -14
-49 -5 -93 -7 -97 -4 -5 2 -8 -1 -8 -6 0 -6 -10 -11 -21 -11 -26 0 -48 -26
-49 -57 0 -12 -16 -57 -37 -99 -20 -42 -36 -90 -37 -106 -1 -15 -3 -28 -6 -28
-3 0 -6 -8 -6 -17 -2 -37 -13 -99 -22 -123 -5 -14 -7 -30 -5 -37 2 -7 0 -20
-6 -30 -5 -11 -13 -57 -16 -103 -4 -47 -12 -94 -18 -105 -6 -11 -10 -21 -9
-22 1 -2 1 -11 1 -20 -1 -10 -4 -3 -8 16 -5 27 -13 36 -46 49 -43 16 -77 51
-81 79 -1 10 -8 32 -15 50 -12 30 -11 34 11 56 61 59 94 120 105 198 6 42 4
48 -19 66 -14 12 -26 24 -26 28 0 10 -21 28 -60 52 -33 20 -137 123 -124 123
3 0 -11 15 -30 33 -57 51 -65 57 -76 57 -5 0 -10 5 -10 10 0 6 -8 10 -19 10
-10 0 -36 19 -58 43 -39 42 -40 45 -47 137 -4 52 -12 100 -17 106 -6 7 -12 25
-15 41 -3 15 -13 39 -22 53 -9 14 -23 36 -30 50 -38 71 -136 153 -204 170 -72
19 -158 55 -154 65 11 30 -86 164 -139 191 -37 19 -121 50 -157 58 -14 3 -32
8 -40 10 -7 2 -49 -2 -93 -10z m2600 -1050 c276 -6 261 -3 293 -38 50 -53 58
-91 67 -286 6 -119 1 -183 -19 -288 -7 -31 -31 -53 -51 -46 -9 4 -20 3 -24 -3
-11 -17 -105 -41 -137 -36 l-32 5 -4 91 c-4 98 -5 101 -91 172 -17 15 -107
-16 -107 -37 0 -4 -4 -8 -9 -8 -5 0 -11 18 -15 40 -7 47 -20 73 -56 113 -20
23 -30 26 -54 21 -43 -9 -80 -40 -106 -87 -30 -53 -41 -60 -58 -36 -30 43 -96
8 -137 -72 -14 -28 -25 -56 -25 -62 0 -7 -7 -24 -14 -40 -8 -15 -13 -36 -11
-47 7 -35 -16 -143 -28 -131 -10 10 -147 6 -197 -6 -14 -3 -57 -7 -96 -9 l-71
-2 18 36 c11 20 21 52 25 71 3 20 12 56 21 81 8 25 19 61 23 80 4 19 19 74 33
121 33 110 68 281 70 340 l2 47 100 6 c55 4 194 9 310 12 115 3 211 7 214 10
3 2 12 2 20 -2 9 -4 75 -8 146 -10z m-890 -107 c-4 -23 -9 -55 -12 -72 -2 -16
-13 -61 -23 -100 -10 -38 -21 -90 -25 -115 -4 -25 -21 -83 -37 -130 -16 -47
-31 -104 -34 -128 -5 -41 -55 -133 -87 -160 -25 -21 -29 30 -13 163 26 215 68
412 117 552 21 59 23 62 58 65 49 4 66 -19 56 -75z m677 -349 c18 -59 14 -237
-7 -378 -9 -63 -17 -137 -16 -165 0 -27 -8 -81 -18 -119 -24 -92 -17 -130 26
-134 38 -4 50 14 52 73 0 22 5 56 11 75 5 19 10 62 10 95 0 54 11 150 25 215
3 14 8 56 11 95 3 38 11 74 18 80 7 5 23 27 37 47 27 43 31 44 50 21 10 -12
14 -54 15 -162 1 -118 -2 -155 -17 -200 -11 -30 -19 -67 -19 -83 0 -16 -7 -45
-16 -66 -21 -49 -44 -123 -44 -143 0 -8 6 -23 13 -33 12 -17 16 -17 51 -2 30
12 37 20 33 35 -2 10 8 58 24 105 16 48 31 105 33 128 5 41 12 56 21 46 3 -3
1 -27 -5 -54 -6 -27 -14 -78 -17 -114 -3 -36 -12 -90 -20 -120 -8 -30 -19 -73
-23 -95 -16 -76 -36 -136 -51 -153 -8 -9 -21 -33 -28 -52 -15 -37 -74 -101
-104 -113 -9 -3 -17 -12 -18 -19 0 -7 -1 -61 -2 -120 -1 -58 -5 -110 -9 -114
-4 -4 -4 -12 1 -18 6 -7 3 -19 -9 -33 -15 -19 -22 -21 -46 -13 -16 5 -51 11
-79 13 -27 2 -68 12 -90 22 -51 23 -42 21 -102 30 -29 4 -53 11 -53 15 0 5
-24 16 -52 25 -63 20 -82 39 -67 67 5 10 7 23 4 28 -3 6 -3 10 2 10 4 0 9 17
9 38 1 20 5 62 9 94 11 82 1 116 -49 170 -25 26 -51 59 -60 75 -16 31 -30 96
-28 128 0 10 -3 24 -9 31 -13 16 -23 174 -10 174 5 0 12 -4 15 -9 3 -4 19 -11
35 -14 32 -7 94 -61 83 -72 -4 -4 -7 -10 -8 -13 0 -4 -4 -15 -8 -25 -21 -45
18 -84 71 -71 23 6 26 14 38 85 3 21 12 42 19 48 8 7 17 35 21 64 7 53 10 69
21 110 5 22 21 127 30 200 2 20 8 56 13 79 6 23 8 46 5 50 -3 4 -1 8 3 8 5 0
14 14 20 30 14 38 42 40 45 3 4 -80 4 -109 -3 -118 -4 -5 -6 -41 -5 -80 1 -38
-3 -88 -9 -110 -6 -22 -10 -71 -9 -109 0 -38 -3 -84 -7 -102 -30 -116 -30
-108 -7 -125 22 -17 61 -14 79 7 12 14 17 54 23 184 6 113 16 190 24 190 4 0
8 35 9 78 5 176 10 218 27 252 42 81 69 90 88 28z m-1012 -328 c0 -30 -4 -40
-16 -40 -9 0 -27 -9 -41 -20 -15 -11 -29 -17 -32 -14 -3 4 3 11 13 18 23 13
60 54 62 67 1 5 2 14 3 19 3 27 11 5 11 -30z m1537 27 c-11 -28 -39 -117 -58
-182 -27 -95 -61 -159 -85 -163 -20 -3 -20 -1 -7 75 14 79 12 172 -6 231 -5
18 -7 30 -3 28 4 -2 17 1 30 8 31 17 135 19 129 3z m-922 -79 c-6 -54 -9 -65
-26 -105 -11 -28 -17 -31 -39 -26 -40 9 -100 37 -100 46 0 4 -11 5 -24 1 -14
-3 -35 2 -55 14 -18 11 -41 18 -51 15 -10 -3 -21 0 -24 6 -4 6 -24 11 -44 11
-33 1 -35 2 -17 12 19 12 67 16 240 22 77 2 125 16 125 36 0 6 5 10 10 10 7 0
9 -16 5 -42z m-180 -1059 c4 -6 13 -8 21 -5 7 3 38 -6 69 -19 31 -14 61 -25
68 -25 7 0 31 -8 53 -19 81 -38 225 -75 377 -96 56 -7 54 -20 -5 -29 -63 -9
-71 -9 -98 -4 -14 3 -45 9 -69 13 -25 4 -60 16 -80 27 -26 15 -43 18 -70 12
-106 -21 -318 -1 -352 33 -14 14 -2 89 18 108 17 17 59 20 68 4z"/>
<path d="M2005 3950 c-3 -5 -14 -10 -24 -10 -10 0 -29 -12 -43 -27 -14 -16
-56 -50 -92 -76 -36 -26 -74 -60 -83 -75 -10 -15 -20 -29 -23 -32 -34 -33 -33
-66 4 -79 22 -9 46 8 46 32 0 20 88 117 106 117 8 0 14 5 14 10 0 6 6 10 13
10 8 0 22 9 32 20 11 12 31 20 51 20 44 0 73 38 56 75 -12 25 -45 34 -57 15z"/>
<path d="M1960 3733 c-54 -54 -110 -106 -125 -116 -16 -12 -25 -27 -24 -40 1
-12 -1 -30 -5 -39 -4 -9 -6 -27 -4 -40 2 -19 9 -23 33 -22 17 1 64 3 105 4 41
2 87 10 103 17 15 7 42 13 60 12 17 -1 42 1 55 5 31 10 30 58 -2 79 -13 9 -26
28 -29 44 -3 15 -11 46 -17 68 -7 22 -13 58 -14 80 -2 67 -26 58 -136 -52z
m75 -33 c3 -5 2 -10 -4 -10 -5 0 -17 -3 -27 -7 -16 -6 -17 -5 -4 10 17 19 26
21 35 7z m-51 -52 c-11 -17 -11 -26 -3 -65 6 -27 4 -33 -10 -34 -9 -1 -33 -2
-54 -3 -21 -2 -40 1 -43 5 -6 11 104 125 112 116 3 -3 2 -12 -2 -19z"/>
</g>
</svg>
