<?xml version="1.0" standalone="no"?>
<!DOCTYPE svg PUBLIC "-//W3C//DTD SVG 20010904//EN"
 "http://www.w3.org/TR/2001/REC-SVG-20010904/DTD/svg10.dtd">
<svg version="1.0" xmlns="http://www.w3.org/2000/svg"
 width="323.000000pt" height="441.000000pt" viewBox="0 0 323.000000 441.000000"
 preserveAspectRatio="xMidYMid meet">
<metadata>
Created by potrace 1.16, written by Peter Selinger 2001-2019
</metadata>
<g transform="translate(0.000000,441.000000) scale(0.100000,-0.100000)"
fill="#000000" stroke="none">
<path d="M1667 4154 c-3 -3 -25 -7 -49 -9 -68 -6 -100 -16 -188 -58 -61 -30
-200 -131 -200 -146 0 -4 -8 -16 -17 -27 -26 -28 -73 -99 -73 -109 0 -5 -6
-16 -14 -24 -32 -38 -106 -195 -115 -247 -14 -72 -14 -188 -1 -228 5 -17 16
-52 24 -79 16 -51 80 -143 107 -152 30 -10 61 -46 53 -64 -24 -58 -44 -118
-44 -134 0 -10 -4 -16 -9 -13 -5 3 -12 -1 -15 -10 -5 -12 -21 -14 -98 -10 -51
3 -104 7 -117 10 -13 3 -29 0 -35 -7 -19 -18 -26 -59 -14 -74 8 -9 7 -13 -2
-13 -13 0 -5 -51 10 -60 5 -3 11 -41 14 -84 4 -43 9 -83 12 -88 4 -6 8 -27 11
-47 2 -20 9 -52 14 -71 5 -19 9 -56 9 -82 0 -41 4 -49 28 -63 17 -10 20 -14 7
-10 -19 5 -20 0 -18 -88 1 -50 7 -132 13 -182 6 -49 7 -135 4 -190 -7 -103 -8
-192 -3 -280 3 -48 5 -52 41 -67 35 -15 39 -15 55 0 14 15 37 17 152 15 99 -2
137 1 143 10 6 9 8 9 8 0 0 -16 49 -17 105 -2 49 12 158 12 245 -2 36 -5 79
-11 95 -13 17 -2 30 -5 30 -6 0 -2 20 -5 100 -14 33 -4 76 -11 95 -16 19 -5
78 -20 130 -33 82 -20 97 -27 108 -51 15 -30 31 -126 37 -226 18 -293 23 -545
12 -601 -8 -41 21 -68 99 -90 78 -22 85 -23 246 -40 108 -11 119 -11 137 5 18
17 18 56 0 56 -5 0 -9 6 -9 14 0 8 -8 17 -17 20 -21 6 -149 16 -215 18 -27 0
-48 4 -48 9 0 5 -11 9 -25 9 -13 0 -36 5 -50 12 -21 9 -25 18 -25 47 2 58 -9
381 -15 436 -3 28 -9 115 -15 195 -9 130 -30 233 -53 256 -4 4 -27 9 -53 11
-26 2 -55 8 -64 13 -10 5 -44 13 -76 17 -51 6 -55 7 -31 14 30 8 200 -15 229
-31 10 -6 29 -10 42 -10 56 0 65 -35 71 -260 3 -80 7 -233 10 -339 4 -176 7
-197 25 -218 11 -13 32 -24 47 -24 16 -1 37 -3 48 -5 11 -1 67 -5 125 -8 58
-4 116 -11 130 -16 14 -5 51 -14 83 -18 71 -11 85 3 66 71 -13 48 -22 56 -58
52 -14 -2 -64 1 -111 5 -47 5 -119 11 -160 15 -86 7 -99 17 -101 79 -1 23 -3
75 -5 116 -2 41 -6 172 -8 290 -7 302 -15 340 -66 340 -14 0 -59 9 -100 21
-41 11 -91 22 -110 25 -19 2 -48 7 -65 10 -16 4 -48 8 -70 9 -199 13 -257 18
-300 26 -53 11 -148 49 -153 62 -2 4 -10 7 -17 7 -16 0 -25 35 -18 72 4 20 10
27 22 24 9 -3 30 -8 46 -12 17 -3 68 -16 115 -29 47 -13 128 -31 180 -40 121
-20 192 -37 206 -47 7 -5 20 -1 33 9 19 16 21 22 12 46 -6 16 -9 32 -6 37 8
13 -12 22 -58 26 -23 2 -73 9 -112 14 -38 6 -93 14 -121 18 -29 4 -58 13 -65
19 -8 6 -34 13 -59 16 -25 3 -72 12 -105 20 -33 9 -69 17 -79 19 -18 3 -20 13
-23 123 -2 66 -5 133 -8 148 -2 15 -1 25 4 22 5 -3 12 -23 16 -45 4 -22 10
-42 15 -45 4 -3 6 -13 3 -23 -6 -24 9 -30 248 -112 31 -10 86 -24 123 -30 37
-6 91 -17 119 -25 61 -17 71 -19 161 -40 38 -9 81 -21 94 -26 21 -8 30 -5 53
18 31 31 37 53 14 53 -8 0 -15 7 -15 15 0 16 -6 17 -115 36 -38 6 -79 15 -90
19 -24 10 -69 21 -111 26 -17 2 -92 19 -165 38 -152 39 -264 92 -272 129 -24
109 -67 321 -72 357 -4 24 -9 49 -13 55 -3 5 -7 35 -8 65 -2 86 -23 173 -40
166 -7 -3 -16 -2 -18 3 -3 4 -56 6 -118 4 -137 -4 -142 -4 -200 6 -15 2 -8 26
27 94 19 37 35 71 35 75 0 4 25 5 55 4 62 -4 151 14 178 36 9 8 17 12 17 8 0
-4 17 10 38 31 20 22 53 50 72 64 44 30 116 102 155 154 17 22 32 42 35 45 30
28 87 135 117 215 33 91 36 109 37 210 1 91 -3 122 -22 178 -13 37 -28 67 -32
67 -5 0 -16 13 -25 28 -22 37 -69 67 -130 82 -27 6 -57 14 -65 17 -26 10 -47
13 -53 7z m104 -125 c86 -34 136 -75 150 -122 14 -44 20 -209 9 -222 -5 -7
-11 -21 -13 -33 -2 -12 -6 -25 -10 -28 -4 -4 -7 -14 -7 -23 0 -14 -19 -53 -88
-185 -21 -40 -187 -211 -240 -247 -23 -16 -55 -32 -70 -35 -15 -4 -33 -11 -40
-17 -16 -13 -174 -16 -224 -5 -74 17 -126 86 -153 205 -29 125 -16 225 46 347
23 44 44 83 48 86 3 3 12 17 20 32 44 85 206 225 311 269 63 26 161 18 261
-22z m-633 -1284 c230 -9 326 -15 349 -21 29 -8 31 -20 38 -294 6 -218 12
-347 19 -440 2 -25 -1 -48 -6 -51 -6 -4 -46 6 -91 22 -82 27 -117 55 -117 90
0 10 -8 23 -17 28 -11 6 -13 11 -5 11 10 0 10 5 2 20 -6 10 -9 23 -8 27 1 4
-2 28 -5 53 -4 25 -9 79 -12 120 -3 42 -7 86 -10 100 -3 13 -5 57 -6 97 -1 56
3 78 15 92 17 19 13 50 -8 52 -6 0 -19 2 -29 4 -10 2 -32 -1 -48 -7 -25 -8
-28 -14 -24 -36 3 -15 12 -88 20 -162 17 -151 29 -242 51 -378 9 -51 14 -98
11 -105 -2 -6 -1 -21 3 -32 8 -21 41 -33 219 -83 l65 -18 1 -120 c1 -66 5
-125 9 -132 7 -12 -32 -34 -46 -25 -4 2 -22 -4 -39 -13 -27 -14 -58 -15 -218
-11 -161 5 -187 8 -198 23 -11 16 -18 53 -14 77 1 4 -3 16 -8 26 -6 10 -6 22
-1 27 5 5 6 55 3 112 -5 84 -9 102 -22 103 -13 1 -12 2 2 6 17 4 18 13 12 91
-4 48 -9 100 -11 117 -2 16 -8 81 -14 145 -7 63 -14 118 -17 123 -2 4 -6 33
-9 65 -2 31 -11 102 -20 158 -16 95 -16 102 1 128 10 16 24 25 32 22 7 -3 75
-8 151 -11z m557 -1165 c37 -14 44 -19 25 -19 -38 -1 -68 9 -74 25 -7 17 -11
18 49 -6z m374 -65 c3 -4 -16 -4 -43 -1 -26 2 -51 8 -55 11 -3 4 16 4 43 1 26
-2 51 -8 55 -11z"/>
<path d="M526 2938 c-16 -15 -18 -41 -17 -275 1 -256 7 -624 11 -653 2 -8 -2
-58 -9 -110 -6 -52 -13 -203 -16 -335 -3 -132 -9 -266 -14 -297 -6 -50 -5 -58
8 -58 13 0 13 -2 3 -9 -10 -6 -15 -38 -17 -107 -1 -55 -8 -112 -14 -127 -6
-15 -10 -38 -10 -50 1 -30 -5 -56 -42 -167 -17 -52 -33 -113 -36 -135 -3 -22
-11 -69 -19 -105 -15 -69 -17 -73 -28 -105 -5 -11 -10 -27 -13 -35 -2 -8 -5
-16 -5 -17 -1 -2 -6 -36 -13 -78 -11 -70 -10 -75 8 -81 10 -3 21 -3 24 0 4 3
12 1 19 -5 7 -6 39 -13 71 -16 32 -3 69 -11 83 -18 14 -7 30 -11 35 -9 6 1 32
5 58 9 53 7 61 18 71 96 3 24 10 74 16 111 5 38 10 107 11 155 2 96 23 267 44
353 7 30 16 78 20 105 9 64 33 115 59 125 41 15 139 23 421 35 55 2 150 7 210
11 161 11 251 9 272 -4 31 -20 45 -161 47 -492 3 -334 7 -383 32 -373 8 3 14
1 14 -4 0 -12 53 -8 100 6 19 6 47 11 61 11 33 0 115 36 122 53 2 7 -1 41 -8
77 -7 36 -15 88 -18 117 -3 29 -8 56 -11 61 -16 26 -34 267 -40 534 -2 89 -8
163 -13 170 -6 7 -12 22 -14 32 -6 29 -87 55 -144 46 -25 -4 -49 -2 -54 3 -15
15 -484 9 -510 -7 -4 -3 -32 -8 -62 -11 -29 -4 -56 -10 -59 -15 -3 -4 -61 -9
-130 -9 -68 -1 -126 -3 -128 -6 -2 -2 -30 6 -63 17 -68 23 -67 20 -78 164 -6
73 -7 666 -1 804 0 8 -2 78 -5 155 -3 77 -5 201 -6 275 -1 137 -11 199 -32
201 -7 1 -48 2 -93 3 -63 1 -85 -3 -98 -16z m142 -156 c0 -31 4 -127 9 -212 7
-128 9 -428 5 -675 -1 -27 0 -166 2 -307 3 -217 6 -259 19 -272 9 -9 23 -16
32 -16 9 0 31 -6 48 -14 41 -18 101 -29 157 -29 154 0 270 8 305 20 63 23 283
34 410 22 61 -6 127 -11 149 -10 64 3 101 -15 120 -57 13 -29 17 -69 18 -187
1 -167 9 -265 38 -436 11 -63 19 -142 18 -174 l-3 -58 -45 -13 c-43 -13 -90
-18 -90 -10 0 2 -7 43 -16 92 -16 89 -18 210 -9 439 2 68 0 137 -6 159 -6 22
-12 58 -14 81 -3 52 -20 85 -43 85 -10 0 -23 5 -29 11 -16 16 -476 1 -466 -15
5 -8 3 -8 -8 0 -13 11 -181 10 -199 -1 -3 -2 -30 2 -59 10 -45 12 -59 12 -104
-1 -29 -9 -72 -19 -97 -23 -25 -4 -52 -11 -60 -16 -8 -5 -19 -10 -25 -10 -5 0
-10 -7 -11 -15 0 -8 -6 -28 -13 -44 -6 -16 -14 -64 -17 -105 -3 -42 -8 -87
-11 -101 -3 -14 -8 -40 -9 -59 -2 -19 -10 -61 -17 -95 -19 -80 -22 -163 -5
-184 7 -9 8 -13 2 -9 -8 4 -13 -18 -18 -71 -11 -130 -28 -231 -40 -241 -13
-10 -106 -19 -100 -10 2 4 -21 10 -51 14 -38 4 -58 12 -65 24 -5 10 -8 20 -5
22 2 3 6 23 9 47 3 23 8 47 11 52 7 11 10 23 25 105 6 33 18 80 27 105 9 25
19 63 22 85 4 22 12 49 18 60 6 11 8 25 6 31 -2 6 5 43 16 83 11 39 18 71 15
71 -3 0 0 9 6 20 6 10 12 45 15 77 2 32 5 58 6 58 0 0 3 45 5 100 2 55 6 136
9 180 7 116 5 189 -5 198 -4 5 -2 20 5 34 7 14 11 35 9 47 -9 41 -4 271 7 303
6 20 8 71 5 125 -8 126 -8 637 0 721 6 64 11 72 42 68 6 -1 12 4 12 11 1 7 9
3 20 -10 13 -16 18 -38 18 -80z"/>
</g>
</svg>
