<?xml version="1.0" standalone="no"?>
<!DOCTYPE svg PUBLIC "-//W3C//DTD SVG 20010904//EN"
 "http://www.w3.org/TR/2001/REC-SVG-20010904/DTD/svg10.dtd">
<svg version="1.0" xmlns="http://www.w3.org/2000/svg"
 width="499.000000pt" height="429.000000pt" viewBox="0 0 499.000000 429.000000"
 preserveAspectRatio="xMidYMid meet">
<metadata>
Created by potrace 1.16, written by Peter Selinger 2001-2019
</metadata>
<g transform="translate(0.000000,429.000000) scale(0.100000,-0.100000)"
fill="#000000" stroke="none">
<path d="M2006 4103 c-3 -3 -33 -5 -67 -5 -35 -1 -79 -7 -99 -16 -19 -8 -66
-22 -105 -32 -126 -31 -198 -73 -301 -176 -52 -51 -57 -54 -74 -39 -33 30 -79
36 -124 16 -64 -29 -104 -77 -109 -133 -3 -26 -9 -52 -12 -59 -9 -13 16 -129
27 -129 4 0 8 -15 8 -32 1 -18 9 -56 18 -84 17 -48 17 -53 0 -100 -39 -112 -6
-387 57 -470 14 -18 25 -35 25 -38 0 -7 23 -36 81 -99 30 -31 75 -65 125 -91
87 -45 84 -38 71 -145 -4 -30 -14 -62 -23 -72 -9 -10 -13 -23 -8 -30 5 -9 -2
-10 -32 -5 -44 7 -105 14 -179 20 -83 7 -196 26 -249 41 -69 21 -91 19 -110
-10 -12 -18 -14 -36 -10 -65 6 -35 2 -47 -30 -95 -20 -30 -36 -57 -36 -59 0
-3 -12 -18 -26 -33 -77 -83 -151 -172 -168 -203 -10 -19 -31 -51 -46 -70 -24
-31 -52 -69 -123 -165 -12 -16 -39 -47 -59 -68 -43 -45 -51 -95 -21 -137 10
-14 17 -27 17 -30 -2 -7 16 -52 27 -70 5 -8 19 -35 30 -60 11 -25 24 -53 29
-62 9 -15 1 -17 -83 -17 -51 -1 -107 -3 -126 -6 -19 -2 -51 -1 -71 4 -31 7
-40 5 -58 -14 -24 -25 -29 -70 -9 -89 9 -9 64 -13 207 -13 188 -1 195 -2 212
-23 10 -12 18 -28 18 -36 0 -8 4 -14 10 -14 5 0 13 -12 16 -27 4 -16 9 -32 13
-38 3 -5 6 -12 7 -15 0 -3 10 -25 21 -50 11 -25 23 -66 27 -92 9 -61 28 -80
75 -76 44 3 62 23 56 63 -3 17 -7 45 -9 64 -3 19 -12 38 -20 43 -9 5 -16 16
-16 23 0 8 -4 15 -8 15 -5 0 -16 25 -26 55 -9 30 -21 57 -26 60 -6 4 -10 16
-10 29 l0 23 283 -3 c155 -2 341 -4 412 -5 72 0 135 0 140 1 27 6 672 -1 681
-8 15 -9 24 -61 30 -172 3 -47 7 -114 9 -150 2 -36 6 -117 9 -180 4 -63 9
-164 12 -225 4 -60 7 -155 8 -210 1 -55 5 -105 8 -110 4 -6 3 -17 -1 -24 -11
-17 -1 -53 18 -68 36 -28 117 -7 106 27 -3 10 -8 59 -10 109 -2 50 -6 94 -8
98 -3 5 -8 82 -11 173 -6 152 -13 268 -22 330 -5 35 -19 294 -19 355 l0 50 80
-3 c109 -4 121 0 129 44 6 31 4 39 -20 59 -27 23 -28 24 -275 21 -136 -2 -253
0 -259 4 -6 4 -8 22 -5 46 3 21 7 53 9 69 2 17 9 55 15 85 6 30 21 120 31 198
11 79 23 148 26 154 4 6 9 36 11 67 2 31 7 63 10 71 7 17 9 27 12 55 1 11 13
-8 27 -45 14 -36 33 -83 43 -105 10 -22 24 -67 31 -100 7 -33 21 -86 31 -118
10 -31 16 -64 13 -71 -9 -23 222 -236 255 -236 6 0 33 -22 62 -50 29 -27 56
-50 60 -50 5 0 15 -13 23 -28 19 -36 62 -60 78 -44 16 16 39 15 37 0 -4 -33 3
-46 29 -54 38 -10 54 -6 79 21 38 43 1 101 -63 97 -19 -2 -34 1 -33 5 4 19
-27 74 -45 79 -23 7 -23 8 -120 91 -8 7 -33 22 -56 34 -23 12 -64 44 -91 70
-28 27 -55 49 -60 49 -5 0 -10 5 -10 10 -1 6 -2 14 -3 20 0 5 -8 18 -17 29
-10 10 -20 29 -23 42 -20 71 -52 173 -78 244 -16 44 -31 87 -33 95 -2 8 -4 16
-5 18 -2 1 -3 5 -4 10 -1 4 -13 32 -27 62 -48 101 -59 128 -59 143 0 26 -34
77 -52 77 -9 0 -18 5 -20 11 -4 12 -45 15 -283 25 -199 7 -185 4 -185 38 0 16
5 58 11 93 10 55 13 61 28 53 26 -13 155 -3 246 21 44 11 86 21 93 23 7 1 18
8 24 14 7 7 18 12 25 12 7 0 13 5 13 11 0 5 4 7 10 4 5 -3 20 5 32 18 84 91
113 125 136 161 14 23 33 50 43 61 25 30 67 110 76 146 7 27 14 32 43 36 18 2
83 28 144 57 106 52 112 57 135 104 19 41 23 59 17 98 -3 26 -13 58 -21 71 -9
13 -12 23 -9 23 4 0 -6 11 -22 25 -30 26 -113 49 -140 38 -15 -6 -16 1 -9 63
17 154 1 242 -56 316 -16 20 -29 41 -29 45 0 13 -132 144 -155 154 -11 5 -27
13 -35 17 -45 26 -64 33 -103 38 -70 9 -106 11 -111 7z m94 -120 c14 -3 29 -5
33 -4 33 7 206 -165 239 -238 18 -39 19 -58 15 -185 -4 -101 -11 -161 -26
-211 -12 -38 -28 -95 -37 -125 -14 -49 -71 -181 -94 -220 -67 -110 -86 -139
-107 -160 -13 -14 -33 -37 -44 -52 -41 -56 -185 -122 -281 -130 -16 -1 -28 -6
-28 -11 0 -5 -12 -6 -27 -3 -16 3 -50 8 -76 11 -151 18 -366 202 -382 327 -2
15 -9 45 -15 68 -17 62 -11 205 12 285 11 39 24 90 30 115 14 60 54 150 67
150 6 0 11 9 11 20 0 17 31 73 60 107 5 7 10 17 10 23 0 5 5 10 10 10 6 0 10
7 10 15 0 8 3 15 8 15 4 0 32 23 62 51 30 28 78 62 106 75 51 24 192 64 226
64 10 0 18 4 18 8 0 9 161 5 200 -5z m-792 -248 c10 -21 6 -35 -26 -95 -38
-73 -48 -74 -56 -9 -6 62 30 144 59 133 7 -3 17 -16 23 -29z m1266 -391 c33
-32 7 -124 -35 -124 -11 0 -19 -4 -19 -10 0 -9 -90 -53 -97 -47 -2 2 1 17 6
33 5 16 17 57 26 91 11 38 24 64 34 66 35 10 70 6 85 -9z m-1500 -1033 c3 -4
49 -11 103 -15 54 -4 114 -11 133 -16 84 -21 182 -29 425 -34 174 -3 272 -12
261 -23 -3 -3 3 -14 14 -23 18 -15 19 -26 15 -96 -3 -44 -10 -103 -16 -133 -6
-30 -13 -64 -14 -75 -2 -12 -11 -57 -19 -101 -9 -44 -20 -114 -26 -155 -17
-135 -38 -234 -49 -238 -6 -2 -8 -8 -5 -13 3 -5 0 -32 -7 -60 -9 -36 -19 -51
-33 -54 -12 -3 -237 -4 -501 -2 l-480 2 3 25 c1 14 4 51 7 83 3 32 9 66 14 75
5 9 12 55 16 102 4 47 9 89 12 93 3 5 7 35 8 67 2 31 10 70 18 86 16 32 29
104 32 174 5 129 20 241 37 288 18 48 39 65 52 43z m-188 -278 c-3 -21 -8 -72
-11 -113 -4 -41 -17 -122 -30 -180 -12 -58 -30 -143 -40 -190 -9 -47 -21 -105
-27 -130 -6 -25 -12 -67 -12 -93 l0 -48 -51 2 c-71 2 -82 6 -90 37 -4 15 -13
34 -20 42 -20 22 -55 107 -47 115 4 3 2 9 -4 13 -5 4 -17 26 -26 50 -13 33
-14 45 -4 55 6 6 23 32 37 57 14 25 53 80 87 121 34 42 62 81 62 87 0 6 6 15
13 19 8 4 25 27 39 51 29 50 108 142 121 142 5 0 6 -17 3 -37z"/>
<path d="M1836 3782 c-3 -5 -23 -9 -44 -9 -37 1 -102 -21 -102 -35 0 -3 -6
-13 -12 -20 -48 -52 -61 -82 -79 -192 -12 -77 1 -103 69 -138 57 -29 68 -28
158 13 48 22 60 35 103 112 28 48 33 68 33 125 1 110 -13 143 -61 141 -14 -1
-33 1 -42 5 -10 4 -20 3 -23 -2z m40 -116 c5 -22 -1 -95 -10 -103 -2 -3 -21 0
-41 7 -45 15 -81 2 -120 -42 -15 -16 -29 -27 -32 -24 -6 6 25 92 45 123 7 12
19 20 27 17 7 -3 16 -1 20 5 3 6 15 11 26 11 10 0 19 5 19 11 0 5 4 8 9 5 5
-3 11 1 15 9 7 20 35 8 42 -19z"/>
<path d="M2162 3656 c-13 -8 -29 -19 -35 -25 -6 -6 -18 -11 -27 -11 -24 0 -75
-49 -93 -90 -34 -76 -29 -116 24 -200 5 -8 12 -23 15 -32 8 -22 75 -48 109
-42 53 9 95 33 105 59 5 14 14 25 20 25 5 0 10 5 10 10 0 6 8 23 18 37 18 28
43 171 33 188 -3 6 -6 15 -7 22 -4 22 -33 57 -51 60 -54 11 -101 11 -121 -1z
m88 -96 c7 -13 7 -33 1 -62 -6 -24 -10 -44 -10 -45 -1 -2 -1 -10 -1 -18 0 -22
-17 -18 -23 5 -4 17 -11 19 -39 13 -18 -3 -34 -10 -36 -14 -2 -4 -11 -17 -22
-29 -19 -22 -21 -21 -46 27 -7 11 -8 25 -4 30 4 4 10 17 12 28 4 22 101 83
135 84 13 1 27 -8 33 -19z"/>
<path d="M1775 3232 c-49 -26 -95 -65 -95 -79 0 -4 -18 -24 -41 -45 -61 -57
-95 -189 -69 -267 25 -75 132 -116 235 -90 22 6 52 13 67 16 16 3 47 24 70 47
47 46 81 86 73 86 -3 0 4 22 15 50 33 84 20 188 -30 243 -61 67 -146 82 -225
39z m131 -109 c32 -35 40 -68 26 -119 -27 -100 -71 -138 -171 -147 -48 -4 -56
-2 -77 20 -13 14 -24 30 -24 34 0 31 38 109 65 135 18 17 35 42 37 55 2 18 13
26 43 35 60 18 74 17 101 -13z"/>
<path d="M2755 2200 c-3 -5 -14 -10 -24 -10 -45 0 -73 -92 -31 -103 11 -3 20
-1 20 4 0 6 18 27 41 47 28 27 38 43 33 55 -7 19 -29 23 -39 7z"/>
<path d="M3006 2152 c-3 -5 -32 -17 -66 -27 -88 -27 -142 -91 -110 -130 16
-19 46 -4 62 30 6 14 20 28 32 31 33 10 116 74 116 90 0 15 -25 19 -34 6z"/>
<path d="M3557 2120 c-14 -11 -30 -20 -35 -20 -16 0 -104 -43 -137 -66 -16
-12 -68 -44 -115 -72 -47 -28 -101 -66 -120 -86 -19 -19 -41 -36 -47 -36 -7 0
-13 -4 -13 -10 0 -5 -6 -10 -14 -10 -8 0 -16 -7 -19 -14 -3 -8 -21 -23 -39
-32 -18 -9 -56 -34 -85 -56 -54 -39 -55 -44 -30 -96 8 -16 8 -25 -1 -34 -19
-19 -14 -49 23 -125 19 -40 35 -75 35 -78 0 -3 11 -18 25 -33 14 -15 25 -39
25 -54 0 -16 5 -28 10 -28 6 0 10 -7 10 -15 0 -17 30 -35 59 -35 11 0 37 10
58 22 74 42 107 58 125 58 9 0 19 4 23 9 3 5 20 13 38 17 40 8 117 45 117 56
0 4 17 10 38 14 20 4 42 10 47 14 26 19 126 69 180 90 75 29 98 50 96 87 -1
15 -3 62 -5 103 -2 54 -11 91 -30 133 -14 32 -26 64 -26 71 0 8 -7 27 -15 42
-8 16 -15 36 -15 46 0 29 -57 145 -75 152 -30 11 -62 6 -88 -14z m77 -225 c20
-60 37 -114 39 -120 1 -5 5 -14 9 -20 3 -5 9 -37 13 -71 7 -65 2 -75 -45 -89
-14 -4 -47 -18 -74 -31 -28 -13 -54 -24 -59 -24 -6 0 -15 -7 -21 -15 -6 -9
-23 -18 -38 -20 -15 -3 -51 -18 -80 -34 -29 -16 -68 -32 -85 -36 -18 -3 -35
-11 -38 -16 -4 -5 -15 -9 -25 -9 -11 0 -42 -14 -71 -31 -36 -21 -55 -27 -62
-20 -6 6 -8 11 -3 11 4 0 -10 33 -32 73 -22 39 -43 87 -46 105 -4 17 -12 32
-17 32 -32 0 14 62 67 90 15 8 39 26 53 40 15 14 46 41 70 60 25 19 55 47 68
61 13 15 53 41 89 59 35 18 64 36 64 40 0 12 173 90 181 81 4 -3 23 -55 43
-116z"/>
<path d="M3128 2061 c-133 -73 -196 -129 -183 -163 10 -25 38 -14 85 33 25 24
79 67 119 94 71 48 88 68 59 72 -7 1 -43 -15 -80 -36z"/>
<path d="M3987 1912 c-10 -10 -17 -25 -17 -34 0 -21 39 -53 82 -69 21 -7 40
-21 44 -31 4 -13 12 -16 35 -11 24 5 29 2 29 -14 0 -11 13 -32 30 -48 16 -15
27 -32 24 -37 -3 -5 1 -17 9 -26 9 -9 20 -29 26 -45 6 -15 17 -27 24 -27 8 0
26 -9 40 -20 l26 -20 25 22 c20 19 25 33 27 78 4 94 0 109 -28 133 -14 12 -35
32 -46 45 -12 12 -26 22 -32 22 -7 0 -20 9 -30 20 -10 11 -24 20 -32 20 -7 0
-13 6 -13 14 0 9 -19 19 -47 26 -92 22 -105 23 -114 9 -6 -11 -11 -11 -21 -1
-16 16 -22 15 -41 -6z m326 -179 c34 -25 38 -31 32 -58 -4 -16 -7 -38 -7 -47
1 -10 -6 -18 -13 -18 -16 0 -55 39 -55 55 0 16 -24 65 -32 65 -7 0 -38 58 -38
71 0 9 44 -18 113 -68z"/>
<path d="M3934 1675 c-41 -17 -49 -40 -21 -60 12 -8 27 -15 33 -15 12 0 40
-65 50 -120 4 -19 16 -54 27 -77 11 -25 17 -53 13 -66 -5 -23 10 -53 45 -88
31 -31 54 -39 89 -29 48 14 58 26 59 73 1 61 -44 189 -65 188 -5 -1 -13 11
-17 27 -15 50 -30 72 -49 72 -10 0 -39 19 -63 43 -68 68 -66 67 -101 52z m161
-194 c3 -16 19 -43 35 -61 45 -50 54 -131 17 -138 -29 -6 -59 28 -56 63 2 17
0 36 -5 43 -4 7 -5 19 -2 27 3 8 1 15 -3 15 -11 0 -42 86 -34 94 12 11 42 -15
48 -43z"/>
<path d="M4325 1136 c-43 -15 -46 -23 -41 -98 4 -47 2 -68 -7 -71 -8 -4 -8 -8
-2 -14 6 -4 10 -57 10 -119 0 -83 4 -115 15 -129 8 -9 19 -27 25 -39 15 -31
67 -34 95 -4 12 13 26 34 32 48 15 38 21 120 10 144 -15 32 -47 110 -48 116 0
3 -7 19 -14 35 -7 17 -14 50 -16 75 -2 25 -3 48 -3 51 -2 13 -27 15 -56 5z
m47 -224 c33 -72 43 -126 29 -161 -8 -17 -17 -31 -21 -31 -10 0 -39 28 -41 38
-9 61 -3 192 9 192 4 0 15 -17 24 -38z"/>
</g>
</svg>
