<?xml version="1.0" standalone="no"?>
<!DOCTYPE svg PUBLIC "-//W3C//DTD SVG 20010904//EN"
 "http://www.w3.org/TR/2001/REC-SVG-20010904/DTD/svg10.dtd">
<svg version="1.0" xmlns="http://www.w3.org/2000/svg"
 width="435.000000pt" height="413.000000pt" viewBox="0 0 435.000000 413.000000"
 preserveAspectRatio="xMidYMid meet">
<metadata>
Created by potrace 1.16, written by Peter Selinger 2001-2019
</metadata>
<g transform="translate(0.000000,413.000000) scale(0.100000,-0.100000)"
fill="#000000" stroke="none">
<path d="M3814 3950 c-25 -25 -105 -30 -564 -32 -650 -3 -1065 2 -1187 15 -44
5 -63 3 -63 -4 0 -7 -11 -22 -24 -34 -23 -21 -24 -26 -21 -151 1 -71 6 -140
10 -154 6 -22 2 -27 -27 -38 -18 -6 -46 -23 -61 -36 -16 -14 -32 -26 -36 -28
-14 -6 -81 -116 -96 -158 -19 -55 -19 -155 1 -289 19 -132 64 -229 143 -310
65 -67 64 -61 61 -376 -6 -466 -10 -513 -55 -585 -23 -35 -41 -45 -210 -110
-33 -13 -76 -33 -95 -45 -19 -12 -46 -26 -60 -30 -14 -4 -32 -13 -40 -21 -9
-7 -31 -20 -50 -29 -38 -18 -86 -41 -110 -54 -8 -4 -20 -18 -26 -31 -10 -18
-8 -28 8 -56 11 -19 24 -37 30 -40 17 -10 56 17 66 46 7 18 27 35 68 55 33 16
70 37 83 47 13 10 32 18 42 18 9 0 27 12 38 26 12 15 21 24 21 20 0 -3 17 1
38 10 20 9 65 24 100 34 34 10 76 26 94 34 17 9 36 16 42 16 12 0 13 -321 1
-340 -3 -5 -8 -135 -10 -287 -3 -153 -7 -295 -11 -316 -5 -31 -2 -40 18 -57
30 -25 68 -26 75 -2 3 15 15 18 59 20 41 1 54 -2 54 -13 0 -8 1 -18 2 -22 7
-25 15 -128 11 -139 -3 -7 -31 -19 -64 -25 -32 -6 -59 -15 -59 -18 0 -4 -8 -7
-17 -7 -10 -1 -45 -9 -78 -19 -33 -9 -81 -22 -107 -29 -55 -13 -88 -47 -68
-71 7 -8 10 -24 7 -35 -8 -30 49 -43 83 -20 22 15 76 33 105 35 6 0 16 4 23 9
7 4 28 10 45 13 18 3 37 9 43 14 6 5 13 7 16 4 8 -8 108 25 108 35 0 5 11 12
24 16 25 6 43 37 40 69 -2 11 -7 58 -13 104 -6 46 -8 88 -5 93 6 9 586 2 719
-8 91 -7 160 -15 165 -20 4 -5 8 -105 11 -326 l1 -78 41 -11 c37 -10 43 -9 58
10 10 12 21 21 26 21 12 0 121 85 182 141 24 22 53 44 65 51 11 6 40 26 63 44
23 19 44 34 48 34 4 0 30 15 58 34 29 19 77 47 107 62 30 14 69 37 87 50 17
13 36 24 42 24 19 0 41 31 33 48 -4 9 -7 33 -6 52 13 385 16 566 16 930 1 498
-6 740 -25 960 -9 108 -13 317 -12 692 1 380 -2 536 -9 535 -6 -1 -10 4 -8 12
6 26 -43 42 -64 21z m-1354 -109 c231 2 327 2 430 -1 109 -2 568 -3 685 0 88
2 111 -4 50 -13 -41 -5 -69 -19 -144 -72 -36 -25 -71 -45 -78 -45 -15 0 -96
-44 -138 -75 -16 -13 -46 -31 -65 -40 -19 -10 -37 -21 -40 -25 -3 -3 -23 -13
-45 -22 -28 -11 -41 -22 -43 -39 -2 -13 -11 -28 -20 -35 -19 -14 -27 -136 -12
-209 5 -27 12 -97 15 -154 3 -57 8 -108 11 -112 2 -4 7 -53 9 -108 3 -55 8
-139 11 -187 l7 -86 -22 12 c-13 6 -34 9 -47 6 -13 -4 -33 -2 -43 4 -11 5 -36
12 -56 15 -72 9 -160 28 -172 37 -8 6 -15 3 -23 -11 -6 -12 -20 -21 -30 -21
-11 0 -20 -3 -20 -7 0 -10 -49 -33 -70 -33 -9 0 -40 -11 -68 -25 -29 -14 -60
-25 -70 -25 -10 0 -23 -5 -30 -12 -7 -7 -12 -10 -13 -8 -13 75 -10 88 24 114
18 14 40 38 47 53 8 16 31 58 52 94 36 64 49 118 51 214 1 52 -21 185 -33 200
-5 6 -12 26 -15 45 -12 66 -63 155 -131 225 -36 39 -69 70 -73 71 -3 0 -19 7
-36 14 -16 7 -37 15 -45 17 -25 7 -122 6 -171 -1 -41 -6 -47 -5 -45 11 0 10 6
21 11 25 6 5 6 8 -1 8 -15 0 -26 96 -18 154 l7 46 78 -5 c43 -2 89 0 101 5 13
5 30 6 38 4 8 -3 94 -4 190 -3z m1366 -143 c-15 -225 -4 -833 21 -1178 20
-283 5 -1366 -23 -1605 -14 -122 -17 -141 -27 -153 -15 -19 -103 -75 -177
-113 -69 -35 -229 -145 -295 -204 -60 -53 -115 -89 -122 -81 -4 4 -8 69 -9
145 -1 76 -5 165 -8 197 -11 100 -15 173 -21 339 -2 88 -8 239 -12 335 -10
218 -10 381 0 530 12 200 22 666 14 690 -3 8 -8 77 -11 153 -3 77 -8 142 -11
146 -2 4 -7 57 -9 117 -3 60 -8 156 -12 213 -4 71 -2 119 7 150 14 50 14 50
79 101 25 19 50 38 55 42 62 50 115 83 178 113 41 19 87 47 101 60 15 14 47
30 71 35 43 10 79 23 160 61 22 10 44 19 49 19 5 0 6 -48 2 -112z m-1616 -213
c116 -16 185 -54 227 -125 60 -100 93 -353 59 -454 -18 -52 -54 -113 -83 -138
-16 -14 -86 -50 -103 -53 -3 0 -9 -3 -15 -6 -25 -16 -101 -20 -165 -9 -39 6
-70 15 -70 19 0 3 -16 15 -36 26 -48 26 -136 122 -163 179 -35 75 -53 171 -48
256 5 95 7 99 44 157 64 98 118 131 221 137 25 2 48 8 50 15 2 6 11 10 20 7
10 -2 37 -7 62 -11z m-46 -900 c39 -1 76 2 81 6 6 4 24 10 41 13 31 7 33 5 49
-38 10 -25 15 -51 12 -58 -6 -16 -150 -70 -194 -73 -42 -2 -43 -4 -49 -61 -8
-93 -11 -102 -48 -189 -8 -16 -20 -51 -28 -78 -13 -44 -14 -29 -11 185 1 128
4 249 7 268 2 19 5 40 5 47 1 8 11 7 33 -4 18 -10 61 -17 102 -18z m814 -34
c18 -1 50 -7 72 -13 l40 -13 1 -60 c2 -170 -7 -494 -16 -527 -7 -27 -25 -39
-25 -17 0 6 -13 28 -28 48 -33 42 -102 184 -142 291 -16 41 -40 100 -54 130
-14 30 -26 71 -26 90 0 19 -4 49 -9 67 -12 41 1 44 89 21 36 -9 80 -17 98 -17z
m-274 -33 c2 -7 10 -35 19 -63 9 -27 19 -71 23 -97 3 -26 12 -53 20 -59 8 -6
14 -20 14 -29 0 -10 3 -20 8 -22 4 -1 18 -30 31 -63 23 -58 128 -278 155 -322
7 -13 20 -31 28 -40 33 -38 28 -59 -16 -79 -22 -10 -43 -19 -46 -20 -3 0 -39
-17 -80 -36 -41 -20 -91 -39 -110 -43 -50 -10 -102 -27 -125 -42 -11 -7 -26
-13 -34 -13 -8 0 -43 -12 -79 -26 -35 -14 -66 -24 -68 -21 -2 2 -8 24 -12 48
-5 24 -16 60 -25 79 -16 36 -48 141 -87 290 -12 47 -34 119 -47 160 -14 41
-27 95 -30 120 -12 98 -15 91 67 132 41 21 85 38 96 38 12 0 33 9 47 20 14 11
29 20 34 20 4 0 24 8 43 19 19 10 50 22 68 25 17 4 32 12 32 17 0 6 3 8 8 6 4
-3 16 -1 27 4 29 11 35 11 39 -3z m-526 -360 c6 -13 18 -50 27 -83 9 -33 20
-69 25 -80 5 -11 11 -33 14 -50 6 -34 19 -85 34 -130 5 -16 14 -48 20 -70 6
-22 25 -84 42 -138 17 -53 30 -103 29 -110 -1 -6 0 -19 4 -27 12 -33 14 -75 5
-99 -34 -84 -64 -140 -117 -220 -33 -50 -71 -114 -86 -143 -15 -29 -35 -62
-46 -74 -10 -11 -19 -26 -19 -32 0 -7 -4 -12 -9 -12 -4 0 -5 -19 0 -43 15 -76
14 -77 -38 -73 l-48 3 -6 149 c-3 82 -4 192 -2 244 2 52 5 228 6 390 3 253 6
300 20 327 9 18 17 41 17 51 0 11 9 31 20 45 11 14 21 34 23 46 2 11 6 24 10
27 4 4 7 18 7 31 0 13 4 23 10 23 5 0 12 16 16 35 7 40 25 45 42 13z m883
-510 c0 -13 3 -32 5 -43 2 -11 7 -159 9 -330 3 -170 7 -355 10 -411 l4 -101
-55 2 c-30 1 -57 -1 -59 -6 -3 -4 -99 -6 -213 -3 -114 3 -282 5 -373 5 l-166
-1 -11 61 c-12 65 -6 93 25 122 11 9 26 36 33 58 8 23 27 54 42 69 15 16 28
33 28 38 0 5 14 26 30 47 17 21 30 44 30 51 0 7 7 19 15 27 8 8 32 48 53 88
30 57 38 82 35 106 -5 31 -2 34 38 53 24 11 53 20 64 20 12 0 25 4 30 9 10 9
117 44 168 55 15 4 74 29 130 56 56 27 108 49 115 49 6 1 12 -9 13 -21z"/>
<path d="M3351 2146 c-17 -17 -31 -37 -31 -44 0 -7 -4 -12 -9 -12 -11 0 -27
-47 -36 -105 -5 -35 -2 -45 25 -74 16 -19 30 -38 30 -41 0 -30 123 -25 146 5
6 8 14 15 18 15 3 0 14 8 24 18 62 62 40 187 -42 243 -54 36 -86 35 -125 -5z
m109 -114 c0 -34 -51 -88 -74 -79 -26 10 -20 67 10 99 21 21 31 25 45 17 12
-6 19 -21 19 -37z"/>
<path d="M639 2284 c-5 -7 -25 -15 -44 -18 -19 -4 -35 -11 -35 -15 0 -12 -53
-23 -167 -37 -35 -4 -63 -11 -63 -16 0 -5 -6 -8 -13 -7 -47 8 -62 -50 -30
-122 12 -28 24 -40 45 -44 15 -4 26 -11 22 -16 -3 -5 2 -9 12 -9 9 0 32 -9 50
-20 18 -12 41 -23 51 -25 57 -11 121 -41 145 -66 15 -16 32 -29 37 -29 6 0 11
-5 11 -10 0 -6 3 -9 8 -9 4 1 9 1 12 -1 3 -1 23 -2 45 -4 100 -5 133 66 68
148 -17 21 -27 26 -45 21 -19 -6 -21 -5 -11 6 14 14 66 15 333 5 156 -6 201
-11 313 -35 26 -6 62 -12 80 -14 17 -3 39 -7 47 -10 53 -19 71 -17 96 10 33
36 29 78 -11 116 -26 24 -35 27 -70 22 -21 -3 -44 -10 -50 -14 -12 -10 -95 -6
-330 14 -38 3 -101 8 -140 10 -174 11 -225 19 -208 36 17 17 -3 112 -28 128
-25 18 -117 21 -130 5z"/>
</g>
</svg>
