<?xml version="1.0" standalone="no"?>
<!DOCTYPE svg PUBLIC "-//W3C//DTD SVG 20010904//EN"
 "http://www.w3.org/TR/2001/REC-SVG-20010904/DTD/svg10.dtd">
<svg version="1.0" xmlns="http://www.w3.org/2000/svg"
 width="525.000000pt" height="439.000000pt" viewBox="0 0 525.000000 439.000000"
 preserveAspectRatio="xMidYMid meet">
<metadata>
Created by potrace 1.16, written by Peter Selinger 2001-2019
</metadata>
<g transform="translate(0.000000,439.000000) scale(0.100000,-0.100000)"
fill="#000000" stroke="none">
<path d="M2785 3972 c-2 -2 -51 -5 -109 -7 -59 -2 -111 -7 -116 -10 -8 -5 -94
-10 -325 -20 -55 -2 -134 -7 -175 -10 -41 -3 -147 -7 -234 -9 -150 -2 -160 -4
-177 -24 -11 -14 -16 -34 -14 -53 3 -18 0 -39 -5 -49 -6 -11 -5 -21 3 -29 7
-7 13 -38 14 -69 1 -31 4 -77 7 -102 9 -86 18 -266 23 -445 2 -99 6 -234 9
-300 5 -161 5 -181 -2 -247 -4 -40 -2 -58 5 -58 8 0 9 -6 2 -17 -8 -16 -8 -53
1 -95 2 -11 -51 -13 -297 -12 -165 1 -345 3 -401 5 -55 1 -106 -1 -112 -5 -8
-4 -10 -25 -6 -59 13 -116 15 -148 19 -287 3 -80 10 -172 16 -204 6 -32 10
-84 10 -114 0 -30 4 -64 9 -76 4 -12 11 -64 15 -116 3 -52 8 -110 10 -127 l3
-33 -82 0 c-82 -1 -382 2 -467 4 -47 1 -79 -18 -79 -47 0 -9 -5 -17 -11 -19
-12 -4 -29 -74 -20 -83 3 -4 6 -19 7 -33 1 -15 2 -56 3 -92 1 -36 7 -89 13
-118 5 -29 11 -106 12 -170 1 -64 5 -123 9 -129 5 -7 7 -55 7 -105 -1 -51 1
-104 5 -118 4 -14 9 -64 11 -112 3 -68 1 -90 -11 -102 -43 -43 28 -120 90 -96
13 5 32 9 42 8 10 0 54 3 98 7 49 4 95 3 117 -3 21 -6 38 -7 38 -4 0 7 1 7
550 -3 311 -5 698 -7 1090 -3 52 0 118 0 145 -1 28 -1 91 -2 140 -2 50 0 164
-2 255 -5 91 -3 176 -5 190 -6 14 0 151 1 305 1 492 1 949 -7 985 -16 29 -8
38 -6 54 8 17 17 18 25 8 106 -5 49 -11 119 -12 156 -1 37 -3 78 -6 90 -2 12
-6 71 -9 130 -3 60 -7 112 -9 115 -5 9 -16 95 -21 164 -6 93 -16 162 -26 195
-6 18 -8 37 -5 42 4 5 1 11 -6 13 -8 3 -12 26 -13 64 0 47 -5 64 -23 84 -12
14 -21 32 -19 41 7 27 -50 54 -118 55 -130 2 -195 8 -195 15 0 5 -10 5 -22 0
-13 -5 -61 -9 -107 -10 -46 -1 -88 -4 -92 -7 -14 -8 -54 20 -57 41 -2 11 -5
31 -8 45 -2 14 -6 43 -8 66 -1 22 -5 45 -8 50 -3 5 -8 38 -12 74 -4 36 -11 79
-16 95 -14 48 -22 130 -25 273 -3 110 -6 137 -21 153 -9 10 -13 19 -7 19 12 0
86 74 86 86 1 5 17 25 37 44 20 19 40 43 44 53 3 11 15 21 27 24 13 4 17 8 9
13 -8 5 -7 12 5 23 9 9 14 21 11 26 -5 8 22 22 71 36 13 3 62 8 110 10 49 2
88 5 88 6 0 3 225 19 335 24 47 2 108 7 135 11 28 4 82 8 120 9 41 2 92 12
122 24 28 11 69 22 90 25 21 3 47 8 58 10 11 2 23 5 27 5 14 2 58 56 58 72 0
9 -9 28 -20 42 -20 25 -22 26 -66 12 -25 -7 -55 -20 -68 -28 -59 -39 -193 -64
-381 -72 -76 -4 -144 -9 -149 -13 -6 -3 -76 -7 -156 -8 -80 -2 -145 -3 -145
-4 0 0 -103 -7 -203 -14 -23 -1 -112 -79 -112 -97 0 -5 -7 -9 -16 -9 -8 0 -12
-5 -9 -10 7 -12 -23 -56 -79 -115 -20 -20 -38 -46 -42 -57 -3 -11 -8 -18 -10
-15 -3 2 -19 -9 -35 -24 -17 -16 -38 -29 -45 -29 -8 0 -17 -7 -20 -15 -4 -8
-12 -15 -20 -15 -8 0 -14 -4 -14 -8 0 -8 -21 -21 -139 -87 -24 -14 -35 -27
-34 -40 1 -14 -17 -33 -53 -60 -30 -22 -64 -48 -76 -57 -12 -10 -29 -18 -39
-18 -10 0 -22 -8 -28 -17 -5 -10 -13 -15 -16 -11 -4 4 -33 -6 -64 -22 -44 -23
-74 -30 -141 -34 -47 -4 -98 -9 -115 -12 -16 -3 -43 -5 -60 -4 -16 1 -37 2
-45 2 -17 1 -40 17 -40 28 0 6 146 81 218 111 17 8 32 17 32 21 0 5 5 8 10 8
6 0 24 13 39 29 16 16 31 27 34 25 2 -3 23 17 46 43 29 35 39 54 34 68 -15 49
-80 61 -107 20 -9 -13 -16 -33 -16 -45 0 -13 -7 -20 -18 -20 -10 0 -27 -8 -38
-18 -11 -9 -37 -26 -59 -37 -22 -11 -42 -22 -45 -25 -8 -9 -71 -36 -115 -50
-22 -7 -46 -18 -54 -24 -25 -19 -225 -25 -258 -7 -47 25 -31 74 28 85 21 3 42
13 49 21 7 8 24 15 37 15 28 0 163 59 163 72 0 4 7 8 15 8 15 0 52 27 91 68
12 12 28 22 36 22 8 0 23 9 33 20 10 11 26 20 34 19 22 -3 52 11 46 21 -3 5
-1 11 5 15 32 20 -8 85 -53 85 -22 0 -77 -31 -77 -43 0 -13 -22 -30 -62 -49
-21 -10 -38 -22 -38 -28 0 -5 -5 -10 -10 -10 -6 0 -21 -9 -33 -20 -12 -12 -33
-23 -47 -26 -14 -3 -43 -13 -65 -23 -125 -59 -156 -74 -161 -82 -3 -5 -9 -7
-13 -5 -4 3 -34 -3 -67 -13 -70 -22 -111 -22 -142 0 -31 22 -33 78 -4 107 12
12 22 26 22 30 0 14 58 42 74 36 9 -3 16 -1 16 5 0 6 9 11 20 11 11 0 19 3 19
8 -5 27 4 42 29 48 15 4 38 12 52 19 120 58 194 89 206 85 3 -1 19 10 34 25
21 20 36 26 55 23 14 -3 28 -1 31 3 3 5 14 9 25 9 11 0 24 11 31 25 6 14 15
25 19 25 13 0 6 39 -8 44 -7 3 -13 11 -13 19 0 9 -11 12 -37 9 -21 -3 -40 -7
-43 -11 -8 -10 -164 -86 -172 -83 -5 1 -8 -3 -8 -8 0 -6 -7 -10 -15 -10 -8 0
-30 -9 -50 -20 -19 -11 -39 -19 -43 -18 -10 2 -84 -32 -102 -47 -58 -49 -248
-36 -266 18 -15 41 8 76 51 77 11 1 38 12 60 25 22 14 51 30 65 37 14 7 27 15
30 18 18 19 72 50 87 50 10 0 27 7 37 15 11 8 28 15 38 15 10 0 18 4 18 8 0 9
71 47 83 44 4 -1 18 8 30 20 13 13 43 32 68 42 67 29 121 55 154 76 61 39 91
50 145 55 30 2 69 9 85 13 18 6 40 5 55 0 16 -6 26 -5 28 1 3 8 10 8 23 1 10
-6 29 -8 43 -6 13 2 44 -6 68 -18 51 -26 63 -24 100 16 l27 29 -25 24 c-14 14
-34 25 -44 25 -11 0 -20 5 -20 10 0 6 -26 10 -59 10 -37 0 -63 5 -68 13 -4 6
-10 51 -13 99 l-5 87 32 6 c40 7 119 -13 185 -46 10 -5 29 -9 43 -9 14 0 39
-7 55 -15 27 -14 36 -13 137 20 59 19 116 35 125 35 9 0 20 5 23 10 3 6 12 10
20 10 8 0 26 5 42 12 15 6 37 12 48 13 11 0 26 4 33 9 7 4 16 6 18 3 3 -3 21
-1 40 4 55 16 94 21 176 24 43 2 87 7 100 11 13 4 54 8 93 10 38 2 122 6 185
9 208 11 310 12 310 5 0 -4 26 -2 58 5 32 6 69 10 82 9 14 -2 42 5 63 13 37
16 38 18 32 52 -6 35 -32 63 -64 68 -9 1 -35 -5 -59 -12 -41 -14 -85 -18 -337
-30 -60 -3 -132 -8 -160 -11 -27 -4 -77 -8 -110 -10 -33 -2 -96 -6 -140 -10
-44 -4 -117 -7 -162 -7 -46 0 -83 -5 -83 -10 0 -5 -11 -7 -25 -5 -14 3 -29 0
-33 -6 -7 -12 -108 -47 -147 -52 -11 -1 -21 -3 -22 -4 -2 -2 -6 -3 -10 -5 -5
-1 -15 -5 -23 -9 -37 -16 -169 -42 -182 -36 -7 5 -24 7 -38 6 -14 -1 -45 9
-70 22 -28 14 -46 19 -48 12 -3 -7 -8 -8 -16 -1 -7 6 -30 13 -52 16 -21 4 -47
8 -56 11 -10 3 -18 1 -18 -4 0 -16 -49 -1 -54 17 -2 9 -5 68 -5 131 -2 103 -5
186 -14 303 -2 26 -11 45 -30 63 -15 13 -27 28 -27 32 0 7 -138 10 -145 4z
m51 -108 c49 -7 57 -50 58 -319 1 -126 5 -236 9 -242 5 -8 3 -13 -4 -13 -9 0
-9 -3 0 -14 6 -8 11 -18 10 -22 -1 -5 0 -13 1 -19 5 -25 0 -109 -7 -116 -4 -4
-33 -9 -63 -12 -71 -7 -101 -14 -135 -31 -15 -8 -33 -12 -40 -10 -6 3 -18 -2
-25 -11 -7 -8 -19 -15 -26 -15 -8 0 -14 -4 -14 -9 0 -5 -60 -39 -132 -76 -159
-80 -171 -87 -192 -104 -9 -7 -16 -10 -16 -6 0 4 -6 2 -13 -4 -8 -6 -30 -12
-50 -13 -20 -2 -37 -5 -37 -8 0 -3 -21 -16 -47 -30 -27 -14 -54 -30 -61 -37
-8 -7 -17 -11 -22 -8 -4 3 -10 -2 -14 -10 -3 -8 -12 -15 -21 -15 -8 0 -15 -4
-15 -9 0 -5 -8 -11 -17 -15 -31 -10 -85 -46 -104 -69 -10 -12 -28 -33 -38 -47
l-20 -25 -2 40 c0 22 -2 101 -4 175 -2 74 -6 151 -9 170 -3 19 -6 110 -7 202
0 93 -5 170 -10 174 -5 3 -6 10 -2 16 7 13 6 215 -2 228 -9 15 -16 215 -7 228
6 8 42 14 108 17 54 3 123 7 152 11 35 4 52 2 52 -5 0 -9 5 -9 20 -1 27 14 62
18 206 25 192 8 395 23 401 29 5 5 108 5 139 0z m-1001 -1364 c14 -22 25 -47
25 -56 0 -10 6 -14 14 -11 8 3 17 -1 20 -9 4 -11 -5 -14 -45 -14 -49 0 -49 0
-43 27 8 32 8 38 1 76 -8 37 -2 34 28 -13z m-383 -181 c131 -2 238 -6 238 -9
0 -3 42 -6 92 -6 150 -2 173 -6 173 -29 0 -11 -8 -30 -18 -41 -16 -19 -16 -22
-3 -27 9 -4 16 -17 16 -29 0 -27 55 -98 76 -98 8 0 14 -4 14 -8 0 -14 79 -34
108 -28 24 6 29 1 47 -36 22 -48 59 -85 93 -94 25 -7 26 -8 11 -35 -7 -14 -7
-30 0 -52 6 -18 13 -78 15 -135 3 -57 9 -108 12 -114 7 -11 9 -166 2 -173 -5
-5 -228 -16 -301 -15 -34 1 -263 2 -509 3 -245 1 -449 4 -451 7 -3 3 -8 34
-11 70 -3 36 -10 103 -15 148 -6 46 -10 87 -9 90 1 4 -3 23 -9 42 -7 19 -11
60 -11 90 0 49 -2 104 -17 394 -2 44 -2 82 0 85 3 6 31 6 457 0z m2083 -254
c4 -49 9 -117 12 -150 5 -72 8 -97 23 -195 7 -41 13 -103 15 -137 2 -35 7 -68
11 -75 4 -6 8 -31 10 -55 2 -34 -1 -43 -14 -43 -10 0 -69 -3 -132 -6 -119 -7
-128 -7 -170 -5 -14 1 -210 0 -436 -3 l-411 -4 0 47 c0 25 -6 93 -13 151 -7
58 -13 141 -14 185 -2 44 -9 91 -16 104 -12 24 -12 24 34 19 31 -4 53 -13 66
-28 11 -13 20 -26 20 -29 0 -4 27 -17 59 -30 61 -24 84 -25 304 -6 63 6 256
71 283 96 11 10 28 19 37 19 9 0 17 4 17 9 0 5 9 13 20 16 11 4 35 20 52 36
18 16 38 29 45 29 7 0 13 4 13 9 0 5 11 12 24 15 14 3 27 14 31 24 6 20 85 82
104 82 6 0 11 5 11 12 0 6 2 9 4 7 2 -2 7 -44 11 -94z m-2556 -784 c7 -11 13
-11 39 1 28 15 156 16 567 9 34 -1 30 25 40 -249 3 -83 10 -173 14 -199 5 -25
6 -56 2 -67 -5 -11 0 -44 11 -79 10 -33 18 -71 18 -86 0 -14 4 -64 9 -111 5
-47 10 -116 10 -153 l1 -68 -347 6 c-192 3 -460 6 -596 7 -189 2 -250 5 -259
15 -6 7 -7 13 -4 13 4 0 1 10 -5 22 -16 30 -28 197 -14 202 5 3 3 5 -5 5 -13
1 -16 19 -17 109 -1 113 -9 290 -17 382 -3 30 -7 99 -10 152 -4 84 -2 97 12
101 9 2 135 4 280 3 212 -1 264 -4 271 -15z m1226 8 c138 0 338 0 445 0 272 2
303 2 317 -7 6 -4 14 -41 18 -82 3 -41 8 -97 11 -125 3 -27 7 -81 9 -120 3
-38 7 -82 10 -97 4 -15 8 -78 11 -140 3 -62 7 -129 10 -148 3 -19 7 -90 9
-157 2 -67 6 -126 10 -132 4 -8 -29 -11 -107 -13 -62 0 -120 -1 -128 0 -13 1
-947 12 -1007 12 -22 0 -23 3 -23 98 0 53 -5 126 -11 162 -6 36 -12 85 -14
110 -2 25 -8 57 -14 72 -18 47 -35 514 -19 524 5 3 3 14 -2 24 -10 18 -5 19
92 22 57 2 110 2 118 1 8 -1 128 -3 265 -4z m1245 -4 c41 -2 111 -6 156 -10
60 -4 89 -2 116 9 29 13 76 15 254 11 121 -2 226 -4 235 -4 10 -1 19 -12 22
-28 3 -16 11 -53 17 -83 15 -75 15 -74 22 -86 4 -6 12 -31 17 -56 10 -41 14
-79 25 -228 2 -25 7 -56 10 -69 3 -13 8 -69 11 -125 3 -55 9 -155 14 -221 10
-137 8 -142 -60 -139 -24 2 -105 3 -179 3 -74 0 -151 1 -170 2 -41 2 -31 2
-185 1 -116 -1 -588 8 -592 12 -1 1 -5 66 -9 146 -3 80 -8 148 -10 152 -6 10
-17 151 -18 233 -1 39 -4 72 -7 75 -3 3 -9 57 -12 120 -4 63 -9 154 -12 202
l-5 87 62 3 c63 3 159 1 298 -7z"/>
</g>
</svg>
