<?xml version="1.0" standalone="no"?>
<!DOCTYPE svg PUBLIC "-//W3C//DTD SVG 20010904//EN"
 "http://www.w3.org/TR/2001/REC-SVG-20010904/DTD/svg10.dtd">
<svg version="1.0" xmlns="http://www.w3.org/2000/svg"
 width="475.000000pt" height="483.000000pt" viewBox="0 0 475.000000 483.000000"
 preserveAspectRatio="xMidYMid meet">
<metadata>
Created by potrace 1.16, written by Peter Selinger 2001-2019
</metadata>
<g transform="translate(0.000000,483.000000) scale(0.100000,-0.100000)"
fill="#000000" stroke="none">
<path d="M2545 4467 c-94 -19 -122 -26 -150 -38 -16 -7 -38 -14 -48 -16 -32
-6 -128 -53 -162 -78 -17 -14 -37 -25 -43 -25 -7 0 -12 -4 -12 -8 0 -4 -30
-40 -67 -78 -63 -65 -133 -153 -133 -167 0 -3 -21 -48 -46 -101 -25 -52 -47
-107 -49 -123 -2 -15 -11 -50 -20 -78 -9 -27 -19 -75 -22 -105 -3 -30 -8 -56
-12 -57 -13 -6 -3 -164 14 -228 8 -31 54 -107 68 -113 4 -2 7 -8 7 -14 0 -18
115 -117 170 -146 62 -33 73 -59 45 -111 -8 -17 -16 -34 -16 -38 0 -5 -6 -15
-14 -23 -7 -8 -16 -25 -19 -38 -6 -18 -12 -21 -34 -15 -15 4 -83 7 -152 6 -71
0 -157 5 -198 13 -41 8 -95 14 -120 15 -26 0 -56 4 -67 8 -44 18 -68 -5 -129
-123 -32 -62 -73 -129 -92 -149 -19 -19 -34 -40 -34 -45 0 -5 -32 -49 -70 -98
-39 -49 -76 -101 -83 -116 -6 -16 -15 -28 -19 -28 -5 0 -8 -7 -8 -15 0 -7 -6
-18 -14 -22 -8 -4 -24 -26 -37 -48 -13 -22 -31 -47 -40 -56 -19 -19 -35 -92
-24 -109 5 -8 -92 -10 -334 -8 -315 3 -342 2 -347 -14 -3 -10 0 -27 6 -38 10
-19 19 -20 138 -19 70 0 236 0 368 0 l241 -1 49 -52 c27 -28 86 -90 131 -137
89 -94 123 -134 123 -148 0 -5 9 -15 21 -23 30 -22 129 -147 129 -163 0 -16
-21 -27 -51 -27 -11 0 -31 -11 -44 -24 -13 -14 -34 -27 -45 -31 -21 -7 -28
-35 -8 -35 6 0 9 -3 5 -6 -3 -4 7 -26 24 -50 30 -44 127 -271 179 -422 16 -45
38 -99 49 -120 18 -34 42 -101 76 -212 38 -123 81 -236 92 -243 7 -4 13 -15
13 -23 0 -23 46 -39 73 -27 26 13 66 26 127 43 25 7 56 16 70 20 14 5 45 13
70 19 25 5 77 18 115 27 48 12 113 18 210 18 130 1 142 -1 172 -21 17 -13 34
-23 37 -23 3 0 29 -16 56 -35 28 -20 64 -38 80 -42 17 -3 30 -9 30 -13 0 -3 6
-7 13 -7 6 0 30 -5 53 -10 36 -9 42 -8 53 9 15 23 111 67 221 100 126 38 173
47 302 57 111 8 123 7 194 -15 42 -14 85 -29 97 -35 32 -18 89 -78 82 -89 -3
-6 1 -10 10 -10 8 0 18 -6 21 -14 9 -23 45 -14 58 13 8 19 8 25 -2 29 -6 2
-12 10 -12 18 0 8 -13 42 -30 75 -16 33 -34 78 -40 100 -6 21 -14 39 -18 39
-4 0 -8 13 -9 29 -1 15 -13 54 -27 86 -15 32 -26 64 -26 71 0 8 -4 22 -10 32
-5 9 -16 35 -24 57 -8 22 -24 65 -36 95 -23 60 -25 65 -40 130 -6 25 -17 59
-24 75 -7 17 -19 57 -26 90 -11 53 -18 65 -59 98 -94 78 -105 85 -137 91 -37
7 -55 25 -58 60 -4 28 -39 75 -78 102 -16 11 -28 23 -28 27 0 12 -81 117 -90
117 -5 0 -21 25 -35 55 -15 30 -40 67 -54 82 -15 16 -38 45 -51 66 -12 21 -30
46 -40 55 -23 23 -31 49 -17 55 7 2 183 2 392 1 361 -3 866 -6 893 -5 6 1 12
9 12 19 0 10 -6 26 -12 34 -12 15 -75 17 -638 22 -344 3 -642 5 -664 5 -33 1
-38 4 -33 20 3 11 -1 28 -8 38 -7 10 -13 23 -14 28 0 6 -4 26 -8 45 -4 19 -7
40 -8 45 -3 30 -28 132 -36 141 -5 6 -10 19 -12 30 -2 10 -7 26 -10 34 -9 23
-49 144 -51 155 -1 6 -5 16 -10 23 -4 7 -10 23 -12 35 -9 60 -25 121 -36 145
l-13 26 -200 2 c-110 0 -216 4 -236 8 -38 8 -40 16 -22 66 4 8 5 20 4 27 -1 6
3 14 9 18 5 3 10 18 10 32 0 24 2 25 33 18 17 -4 42 -8 55 -9 12 -1 22 -4 22
-8 0 -11 70 2 135 24 90 32 146 62 188 102 21 20 47 41 57 46 11 6 34 43 53
83 19 40 41 79 49 87 8 8 22 35 30 60 9 25 28 75 42 112 13 37 28 89 31 115 4
26 16 82 26 123 14 52 18 94 15 135 -3 33 -8 107 -11 165 -8 151 -60 285 -117
305 -10 4 -18 10 -18 14 0 5 -27 27 -59 50 -66 46 -124 61 -186 48z m68 -118
c20 -5 37 -14 37 -18 0 -5 11 -12 25 -15 14 -4 25 -11 25 -16 0 -6 5 -10 11
-10 40 0 131 -185 108 -221 -4 -7 -3 -22 3 -32 8 -15 21 -166 19 -222 0 -5
-12 -53 -25 -105 -14 -52 -27 -107 -28 -122 -1 -16 -6 -28 -10 -28 -4 0 -8 -5
-8 -11 0 -12 -23 -67 -47 -114 -58 -114 -90 -163 -121 -192 -21 -17 -46 -41
-57 -51 -11 -11 -47 -32 -80 -47 -69 -33 -154 -39 -220 -17 -124 41 -275 134
-275 168 0 7 -3 14 -7 16 -12 5 -52 65 -64 95 -18 46 -22 159 -9 246 11 71 82
283 110 327 5 8 27 45 50 82 23 36 75 97 116 135 41 38 74 68 74 67 0 -2 27
12 59 31 74 41 101 50 110 36 5 -7 15 -6 34 4 46 24 115 30 170 14z m-923
-1570 c14 -4 86 -11 160 -14 74 -3 153 -8 175 -10 63 -7 300 -18 410 -18 55 0
102 -4 105 -9 4 -4 2 -43 -2 -85 -11 -104 -18 -179 -23 -228 -2 -22 -6 -51 -9
-65 -11 -48 -17 -85 -22 -140 -3 -30 -7 -61 -9 -68 -3 -7 6 -24 20 -38 l25
-25 -478 6 c-262 3 -517 8 -567 10 -49 3 -94 5 -98 5 -5 0 -6 4 -3 8 3 5 7 45
10 88 3 44 9 92 15 106 5 15 10 35 10 45 0 56 13 166 26 221 9 34 13 66 10 71
-5 9 1 42 20 129 6 23 8 24 103 21 53 -1 108 -6 122 -10z m-374 -239 c0 -11
-3 -20 -6 -20 -3 0 -6 -30 -7 -68 -2 -85 -14 -182 -22 -182 -3 0 -7 -15 -8
-32 -1 -18 -2 -58 -4 -89 l-3 -57 -102 -1 c-91 -2 -105 0 -123 18 -18 18 -19
25 -9 52 10 29 18 42 53 83 15 17 33 47 52 84 9 17 20 32 25 32 4 0 15 14 24
32 9 18 30 43 45 57 16 14 29 31 29 37 0 7 7 14 15 18 8 3 15 11 15 19 0 10
18 37 25 37 0 0 1 -9 1 -20z m1346 -125 c13 -25 24 -67 29 -110 1 -5 5 -20 10
-32 8 -21 20 -109 23 -163 1 -24 -1 -25 -77 -28 l-78 -3 12 23 c7 13 14 41 15
63 2 34 15 169 19 200 1 6 5 39 10 75 7 55 10 60 15 35 4 -16 14 -43 22 -60z
m-477 -399 l560 -6 32 -37 c18 -21 32 -43 33 -50 0 -7 8 -20 18 -30 10 -10 31
-38 47 -62 17 -24 42 -57 57 -73 15 -16 30 -38 33 -49 4 -10 17 -31 29 -47 13
-15 32 -43 42 -62 11 -20 25 -42 32 -50 55 -65 70 -85 67 -89 -2 -2 -20 4 -39
13 -24 11 -51 15 -92 11 -176 -14 -284 -29 -326 -46 -26 -10 -52 -19 -59 -19
-7 0 -20 -6 -28 -14 -24 -21 -170 -68 -191 -61 -10 3 -34 17 -54 30 -19 13
-56 31 -82 40 -26 8 -56 22 -67 30 -11 8 -45 22 -76 30 -31 9 -75 23 -98 32
-31 11 -93 14 -248 15 l-205 0 -20 25 c-11 14 -20 32 -20 40 0 8 -7 28 -16 44
-12 24 -18 28 -29 19 -11 -9 -18 -7 -32 10 -10 12 -39 44 -65 72 -27 28 -48
53 -48 57 0 4 -18 25 -40 47 -22 21 -51 50 -63 63 -12 14 -41 46 -64 72 -24
25 -43 48 -43 50 0 5 277 3 1055 -5z m-105 -605 c52 -18 99 -36 106 -42 6 -5
29 -15 50 -22 61 -19 172 -89 184 -117 7 -14 19 -45 27 -70 8 -25 23 -63 33
-85 23 -52 40 -112 32 -119 -3 -3 -1 -6 4 -6 10 0 53 -94 58 -124 1 -9 5 -19
9 -22 4 -4 7 -22 7 -40 0 -37 64 -203 119 -308 59 -113 39 -117 -100 -21 -28
19 -70 40 -92 46 -44 12 -238 5 -312 -10 -116 -25 -155 -35 -210 -53 -66 -22
-163 -47 -182 -48 -7 0 -13 9 -13 20 0 26 -19 26 -28 -1 -7 -18 -11 -14 -30
28 -24 54 -49 123 -61 168 -4 17 -17 48 -28 70 -11 22 -29 67 -39 100 -10 33
-23 67 -30 75 -6 8 -24 49 -38 90 -15 41 -38 100 -52 130 -34 73 -48 110 -74
200 -12 41 -24 82 -27 90 -13 32 -10 41 15 54 26 13 52 20 114 31 15 3 37 9
50 14 13 5 111 8 218 6 189 -3 198 -4 290 -34z m1015 -19 c17 -6 57 -18 90
-28 135 -39 188 -68 257 -138 40 -41 60 -70 64 -95 4 -19 18 -59 30 -88 13
-29 26 -63 28 -75 8 -36 47 -149 69 -198 11 -25 30 -76 43 -115 12 -38 35
-107 52 -152 16 -46 25 -83 20 -83 -5 0 -35 13 -66 29 -55 29 -192 54 -246 46
-11 -2 -58 -6 -104 -10 -46 -3 -122 -18 -170 -32 -48 -14 -96 -27 -107 -29
-11 -2 -36 -10 -55 -18 -34 -14 -70 -28 -80 -31 -3 -1 -22 -10 -43 -20 -42
-21 -75 -12 -69 20 2 9 -4 25 -13 35 -8 9 -18 28 -20 40 -3 13 -9 26 -14 29
-10 6 -102 198 -116 241 -5 14 -9 34 -10 45 -3 34 -26 107 -50 160 -12 28 -37
97 -55 155 -18 58 -37 114 -41 125 -24 56 -18 66 61 101 149 64 168 70 280 84
150 18 215 19 265 2z"/>
<path d="M1755 1330 c-3 -5 -17 -10 -30 -10 -40 0 -55 -11 -55 -40 0 -37 15
-41 72 -16 42 17 51 18 86 7 22 -8 59 -11 83 -9 30 3 58 -1 86 -13 40 -18 45
-18 132 -1 99 19 131 41 107 74 -10 13 -19 14 -56 6 -25 -5 -58 -12 -75 -15
-16 -3 -35 -9 -40 -13 -6 -5 -34 0 -62 10 -41 14 -61 16 -87 9 -26 -7 -44 -6
-72 6 -42 17 -80 20 -89 5z"/>
<path d="M1857 1188 c-32 -16 -77 -33 -99 -35 -30 -5 -42 -12 -49 -30 -13 -36
-5 -41 43 -29 38 10 69 25 151 73 23 13 37 9 37 -11 0 -18 40 -44 62 -40 10 1
30 11 47 23 24 18 30 19 41 7 6 -8 26 -18 43 -22 18 -3 37 -11 44 -16 30 -24
55 43 27 73 -14 16 -18 16 -31 4 -20 -20 -39 -19 -72 6 l-29 21 -37 -25 c-42
-28 -56 -27 -80 9 -20 30 -27 30 -98 -8z"/>
<path d="M2100 1043 c-8 -4 -21 -13 -29 -20 -9 -10 -23 -12 -40 -8 -78 20
-117 17 -180 -15 -56 -28 -62 -34 -59 -58 5 -42 40 -41 84 2 40 39 88 47 139
24 21 -10 33 -7 78 16 l53 28 36 -21 c32 -19 41 -21 81 -10 53 13 65 32 35 54
-19 13 -24 13 -38 0 -21 -19 -64 -19 -80 0 -12 15 -52 19 -80 8z"/>
<path d="M2171 923 c-37 -13 -50 -14 -78 -4 -43 16 -99 -1 -109 -31 -8 -26 22
-54 41 -38 8 6 35 8 66 4 39 -4 65 -2 93 10 57 24 88 20 122 -14 27 -28 54
-39 54 -22 0 4 3 16 6 28 4 16 -4 28 -37 53 -49 35 -87 39 -158 14z"/>
<path d="M2223 790 c-51 -10 -98 -22 -104 -26 -7 -4 -33 -9 -58 -11 -25 -2
-59 -7 -76 -12 -16 -4 -57 -7 -90 -6 -93 2 -107 -21 -55 -93 33 -46 60 -105
60 -133 0 -9 7 -25 16 -33 16 -17 37 -11 66 17 43 41 73 57 110 57 21 0 49 7
61 14 30 20 130 22 199 4 77 -20 86 -10 63 69 -29 99 -62 168 -82 170 -10 1
-60 -7 -110 -17z m117 -82 c7 -18 15 -43 17 -56 3 -20 1 -22 -24 -15 -48 13
-155 7 -190 -10 -18 -10 -48 -17 -68 -17 -41 0 -82 -19 -108 -50 -23 -27 -31
-21 -47 35 -7 25 -17 45 -21 45 -5 0 -9 4 -9 9 0 5 19 12 43 16 23 4 58 14 77
22 19 7 50 14 70 15 19 0 43 5 53 10 10 5 49 12 85 15 37 3 69 7 71 9 15 14
41 0 51 -28z"/>
<path d="M3087 1333 c-2 -1 -30 -4 -64 -7 -34 -3 -65 -6 -70 -7 -4 -1 -21 1
-36 6 -17 4 -38 3 -50 -3 -12 -6 -40 -14 -62 -17 -60 -10 -127 -53 -123 -79 4
-31 31 -31 68 1 24 20 46 28 79 30 25 1 46 3 46 3 0 1 53 4 117 6 74 3 125 1
138 -6 14 -7 20 -7 20 0 0 5 7 10 15 10 8 0 15 -4 15 -10 0 -5 12 -13 28 -16
15 -4 33 -11 40 -17 9 -7 18 -5 31 7 34 31 0 91 -46 81 -12 -3 -25 -1 -28 5
-4 6 -12 7 -22 1 -17 -9 -53 -4 -53 8 0 6 -38 10 -43 4z"/>
<path d="M2970 1193 c-19 -9 -53 -17 -75 -19 -72 -5 -140 -29 -143 -51 -5 -31
39 -38 82 -13 24 13 51 19 85 17 36 -1 54 3 69 16 20 18 21 18 32 -2 6 -12 19
-21 29 -21 19 0 51 30 51 48 0 18 -20 25 -35 12 -10 -9 -15 -7 -20 9 -7 25
-27 25 -75 4z"/>
<path d="M3094 1105 c-24 -11 -39 -12 -68 -3 -31 10 -43 8 -84 -10 -26 -12
-69 -24 -97 -27 -27 -3 -54 -10 -61 -15 -6 -6 -13 -8 -16 -5 -2 3 -11 -6 -18
-20 -19 -36 -1 -53 37 -35 16 7 37 15 48 17 36 6 120 34 141 48 16 10 24 11
32 3 14 -14 69 -13 106 2 21 7 28 7 32 -4 3 -8 21 -17 41 -21 19 -3 43 -11 53
-17 10 -6 24 -9 31 -6 18 7 35 5 32 -4 -4 -10 24 -29 51 -34 19 -3 29 2 42 20
19 29 10 50 -18 43 -13 -4 -28 3 -44 20 -19 21 -28 23 -50 16 -34 -11 -103 5
-128 30 -20 20 -21 20 -62 2z"/>
<path d="M3174 936 c-18 -8 -35 -19 -38 -25 -4 -6 -24 -9 -46 -7 -28 3 -43 -1
-55 -14 -16 -18 -15 -19 23 -29 42 -12 62 -8 102 19 39 26 76 32 90 15 10 -12
24 -14 57 -9 37 5 46 3 63 -17 23 -28 26 -49 6 -49 -14 0 -26 -21 -26 -46 0
-8 8 -14 18 -14 10 0 27 -7 38 -15 16 -11 29 -12 56 -4 30 8 35 13 30 34 -4
22 -8 24 -42 20 -29 -3 -40 -1 -45 12 -3 10 -3 14 1 10 15 -15 44 37 44 80 0
35 -3 43 -18 43 -10 0 -24 -6 -30 -12 -10 -10 -14 -10 -21 0 -6 10 -22 11 -58
6 -33 -4 -53 -2 -57 5 -10 15 -54 13 -92 -3z"/>
<path d="M3078 835 c-20 -7 -66 -31 -102 -52 -68 -40 -93 -72 -73 -92 13 -13
34 -15 39 -3 2 4 27 26 55 48 65 52 112 62 156 36 37 -21 72 -19 82 6 7 18
-22 45 -37 36 -12 -7 -68 15 -68 27 0 11 -7 11 -52 -6z"/>
<path d="M3299 794 c-10 -13 -10 -17 2 -24 17 -11 45 13 35 29 -10 15 -21 14
-37 -5z"/>
<path d="M3125 681 c-22 -10 -46 -25 -54 -35 -10 -12 -23 -15 -47 -10 -46 8
-94 -21 -94 -57 0 -41 49 -48 50 -6 0 4 20 7 44 7 35 0 49 5 63 23 28 36 60
50 67 32 4 -11 14 -14 31 -10 14 3 36 7 50 10 14 3 25 9 25 13 -1 19 -21 34
-46 34 -16 0 -34 4 -39 8 -6 5 -28 1 -50 -9z"/>
<path d="M3367 683 c-16 -15 -4 -34 30 -48 21 -9 45 -25 55 -35 11 -12 32 -20
49 -20 26 0 30 3 27 22 -6 39 -137 106 -161 81z"/>
</g>
</svg>
