<?xml version="1.0" standalone="no"?>
<!DOCTYPE svg PUBLIC "-//W3C//DTD SVG 20010904//EN"
 "http://www.w3.org/TR/2001/REC-SVG-20010904/DTD/svg10.dtd">
<svg version="1.0" xmlns="http://www.w3.org/2000/svg"
 width="497.000000pt" height="431.000000pt" viewBox="0 0 497.000000 431.000000"
 preserveAspectRatio="xMidYMid meet">
<metadata>
Created by potrace 1.16, written by Peter Selinger 2001-2019
</metadata>
<g transform="translate(0.000000,431.000000) scale(0.100000,-0.100000)"
fill="#000000" stroke="none">
<path d="M1141 4141 c-8 -5 -20 -7 -27 -4 -12 4 -100 -31 -154 -62 -14 -8 -38
-21 -55 -29 -16 -8 -41 -26 -54 -40 -14 -14 -29 -26 -34 -26 -14 0 -211 -206
-252 -264 -11 -16 -31 -43 -45 -60 -31 -39 -46 -62 -64 -103 -8 -18 -26 -48
-40 -66 -15 -19 -26 -40 -26 -48 -1 -8 -16 -41 -35 -74 -19 -33 -40 -71 -45
-85 -6 -14 -24 -52 -41 -86 -16 -33 -29 -68 -29 -78 0 -9 -5 -27 -12 -39 -6
-12 -13 -29 -14 -37 -7 -58 -18 -97 -34 -129 -18 -34 -22 -55 -35 -163 -3 -24
-8 -63 -11 -88 -22 -154 -12 -512 17 -587 6 -15 10 -28 9 -28 -1 0 2 -13 6
-29 10 -42 78 -171 114 -215 16 -22 30 -43 30 -48 0 -6 9 -18 21 -29 11 -10
26 -32 33 -49 7 -16 30 -46 51 -65 21 -19 58 -54 82 -77 25 -24 51 -43 59 -43
8 0 14 -4 14 -8 0 -11 119 -66 127 -58 3 3 12 1 19 -4 6 -6 36 -13 65 -16 30
-3 71 -12 93 -20 22 -9 81 -16 141 -17 111 -2 112 -3 74 -57 -25 -37 -92 -142
-105 -166 -27 -49 -79 -124 -87 -124 -4 0 -6 -4 -3 -9 7 -10 -19 -77 -31 -83
-11 -4 -63 -110 -63 -127 0 -8 -6 -22 -13 -30 -7 -9 -19 -34 -26 -56 -14 -39
-49 -97 -63 -103 -5 -2 -8 -9 -8 -17 0 -7 -7 -18 -15 -25 -16 -13 -10 -59 9
-72 31 -21 53 -8 79 49 14 32 51 105 82 163 31 58 72 137 91 175 41 81 36 72
97 163 26 39 47 74 47 78 0 4 6 15 14 23 8 9 31 47 51 85 20 38 46 79 57 90
25 28 94 169 109 226 7 25 11 63 10 85 -3 56 -41 216 -50 210 -7 -4 -10 20
-15 130 -1 22 2 60 7 85 5 25 10 52 11 60 1 9 6 22 11 30 14 22 46 111 50 140
9 61 20 151 29 255 10 100 28 198 42 231 17 39 45 65 51 46 3 -6 8 -10 13 -7
24 15 64 -239 40 -255 -11 -8 -21 -102 -10 -95 6 3 10 -3 10 -14 0 -12 6 -21
14 -21 7 0 16 -14 20 -32 9 -44 23 -58 61 -58 43 0 83 34 115 97 14 26 28 50
31 53 4 3 9 14 13 26 3 11 15 30 25 41 19 20 55 82 56 95 0 4 8 17 18 28 9 11
17 27 17 35 0 8 5 15 10 15 6 0 10 5 10 12 0 6 9 21 19 32 11 12 34 49 51 84
17 35 38 66 46 69 7 3 14 9 14 15 0 17 30 40 45 35 18 -7 13 -100 -9 -177 -9
-30 -19 -66 -22 -80 -3 -13 -9 -29 -13 -35 -4 -5 -21 -45 -36 -88 -15 -43 -35
-83 -44 -90 -21 -16 -43 -75 -42 -111 2 -35 27 -57 56 -46 21 7 96 129 88 143
-2 4 0 7 5 7 5 0 12 10 15 23 8 34 96 288 113 323 15 34 59 53 78 34 14 -14
12 -186 -3 -204 -6 -7 -23 -50 -37 -95 -14 -45 -32 -94 -40 -109 -8 -15 -14
-33 -14 -39 0 -7 -4 -13 -10 -13 -5 0 -10 -5 -10 -10 0 -6 -9 -20 -20 -32 -24
-26 -26 -55 -5 -78 24 -27 58 -13 89 36 15 24 32 44 37 44 5 0 8 3 7 8 -3 15
15 82 22 82 7 0 15 22 26 65 1 6 13 44 27 85 14 41 28 87 31 102 4 15 15 32
26 38 17 9 20 6 26 -26 15 -80 2 -204 -26 -250 -11 -17 -20 -40 -20 -50 0 -24
-49 -110 -84 -147 -14 -15 -26 -32 -26 -36 0 -4 -9 -16 -20 -26 -41 -37 -17
-100 34 -87 29 7 43 19 61 53 8 16 22 43 31 59 8 17 19 30 24 30 10 0 60 84
60 102 1 7 9 31 20 53 l19 40 11 -29 c6 -16 10 -47 9 -70 -2 -41 -60 -208 -81
-233 -6 -8 -8 -16 -5 -19 3 -4 -5 -23 -18 -43 -14 -19 -25 -39 -25 -43 0 -5
-14 -22 -30 -40 -17 -17 -30 -34 -30 -38 0 -5 -25 -43 -55 -86 -82 -119 -125
-184 -122 -187 4 -4 -90 -119 -131 -160 -20 -20 -46 -40 -57 -43 -25 -8 -55
-39 -55 -56 0 -18 -48 -68 -65 -68 -8 0 -15 -4 -15 -8 0 -4 -24 -33 -52 -63
-29 -30 -66 -82 -83 -115 -16 -32 -36 -65 -43 -73 -13 -13 -31 -52 -36 -76 -1
-5 -19 -44 -40 -85 -35 -70 -75 -162 -80 -185 -1 -5 -13 -32 -25 -60 -43 -96
-51 -116 -51 -133 0 -10 -7 -27 -15 -38 -22 -28 -55 -104 -55 -125 0 -11 -15
-36 -34 -56 -54 -61 -58 -105 -9 -118 42 -10 59 3 91 68 48 97 93 200 98 224
2 11 15 45 29 75 14 29 25 63 25 76 0 12 4 22 8 22 5 0 15 19 22 43 8 23 22
58 32 77 10 19 18 42 18 51 0 9 7 22 15 29 8 7 15 21 15 31 0 11 5 19 10 19 6
0 10 9 10 19 0 11 4 23 10 26 5 3 10 12 10 20 0 12 31 65 57 100 5 6 17 23 27
40 11 16 28 38 38 49 10 11 18 23 18 28 0 4 6 8 13 8 6 0 21 14 32 30 11 16
27 30 35 30 17 1 60 34 60 47 0 11 81 79 92 75 4 -1 8 2 8 8 0 9 16 32 45 64
17 18 75 106 75 114 0 4 14 20 30 36 16 16 32 37 35 47 4 11 11 19 16 19 5 0
8 3 7 8 -2 4 19 41 46 82 27 41 53 85 59 97 6 13 13 23 16 23 4 0 15 16 25 35
11 19 23 35 28 35 4 0 8 8 8 19 0 10 8 29 18 42 10 13 24 40 32 59 7 19 19 42
27 51 7 8 13 25 13 37 0 12 5 22 12 22 6 0 9 3 5 6 -3 3 3 25 13 48 18 42 23
176 8 201 -3 6 -9 26 -13 45 -7 35 -42 83 -55 75 -4 -2 -7 35 -6 83 0 72 -4
94 -23 129 -23 43 -71 70 -104 57 -12 -4 -17 3 -22 28 -7 38 -69 113 -85 103
-6 -4 -11 7 -12 24 -1 17 -3 43 -4 59 -2 15 -6 58 -10 97 -3 38 -9 77 -14 85
-4 8 -11 37 -15 65 -4 27 -13 62 -21 76 -7 14 -21 56 -30 93 -10 41 -32 90
-55 124 -22 31 -39 61 -39 65 0 15 -63 87 -76 87 -12 0 -30 46 -25 65 2 5 -1
6 -5 2 -5 -4 -22 5 -39 22 -62 61 -84 79 -89 74 -3 -3 -9 3 -13 13 -10 28 -61
70 -113 93 -62 27 -84 34 -93 32 -4 -1 -15 5 -23 14 -9 8 -24 15 -34 15 -10 0
-21 4 -24 9 -3 5 -20 11 -38 14 -18 3 -44 8 -58 11 -67 18 -288 30 -309 17z
m179 -95 c41 -3 98 -12 125 -21 28 -8 58 -15 68 -15 10 0 30 -9 46 -20 15 -12
37 -22 49 -23 12 -1 22 -4 22 -8 0 -4 12 -10 28 -14 31 -7 33 -9 172 -148 127
-127 146 -148 155 -175 3 -12 11 -22 16 -22 5 0 9 -7 9 -15 0 -8 5 -15 10 -15
6 0 10 -7 10 -15 0 -8 4 -15 8 -15 11 0 31 -38 37 -67 2 -12 8 -30 14 -41 6
-11 7 -22 3 -26 -3 -4 -2 -10 3 -14 14 -10 37 -71 41 -111 2 -19 8 -49 15 -68
6 -18 12 -68 14 -111 2 -64 1 -72 -8 -49 -6 15 -18 27 -27 27 -9 0 -21 5 -28
12 -9 9 -21 8 -51 -2 -22 -7 -39 -16 -37 -19 2 -3 -16 -22 -40 -41 -23 -19
-43 -39 -43 -43 -1 -4 -12 -20 -26 -35 -14 -15 -25 -34 -25 -44 0 -23 -92
-177 -107 -178 -7 0 -10 -7 -6 -16 3 -9 1 -19 -5 -23 -5 -3 -29 -42 -52 -86
-23 -44 -49 -92 -57 -107 -15 -29 -32 -37 -34 -15 -1 6 -2 25 -3 40 -2 15 0
29 3 32 14 8 -9 201 -31 255 -23 58 -63 110 -85 110 -7 0 -13 4 -13 8 0 20
-121 -11 -145 -38 -8 -9 -22 -48 -31 -86 -9 -38 -21 -79 -26 -91 -6 -12 -8
-33 -4 -48 4 -14 3 -31 -1 -38 -4 -7 -8 -25 -9 -42 -2 -34 -20 -164 -37 -272
-6 -40 -15 -73 -19 -73 -4 0 -8 -8 -8 -18 0 -10 -7 -28 -16 -40 -9 -13 -13
-26 -10 -29 3 -3 0 -13 -7 -21 -8 -10 -13 -58 -14 -137 -2 -106 1 -132 22
-196 13 -40 22 -76 19 -80 -2 -4 1 -9 7 -11 15 -5 15 -134 0 -152 -7 -8 -19
-37 -29 -66 -19 -59 -33 -65 -45 -21 -10 41 -22 45 -54 22 -29 -20 -120 -34
-129 -20 -3 5 -13 9 -22 9 -9 0 -28 6 -42 13 -14 7 -47 14 -75 16 -51 3 -138
25 -165 42 -8 5 -25 13 -38 19 -40 17 -186 173 -230 246 -23 39 -50 79 -61 90
-10 11 -22 31 -26 45 -4 13 -15 39 -26 56 -33 59 -48 142 -55 303 -2 52 -5
100 -5 105 -2 16 12 195 17 218 6 26 13 78 19 127 5 41 7 49 24 110 7 25 16
61 21 80 4 19 13 55 20 80 6 25 14 56 17 70 5 24 139 302 202 419 16 30 43 70
60 90 205 241 286 323 353 357 95 48 182 80 228 82 24 2 46 5 48 7 2 2 9 2 15
0 7 -2 46 -6 87 -9z"/>
<path d="M1720 3214 c-30 -8 -57 -19 -58 -24 -2 -6 -8 -7 -14 -4 -10 7 -32
-14 -63 -61 -25 -38 -27 -62 -6 -71 34 -16 53 -10 77 21 33 43 109 64 162 44
13 -5 22 -5 22 1 0 6 6 10 14 10 22 0 38 71 19 83 -23 14 -104 15 -153 1z"/>
<path d="M1768 3054 c-47 -25 -50 -86 -6 -103 51 -19 93 53 57 98 -20 25 -17
24 -51 5z"/>
<path d="M933 3029 c-42 -12 -113 -95 -135 -156 -18 -54 -24 -216 -9 -257 6
-13 12 -43 15 -65 12 -110 94 -174 214 -169 67 3 84 13 89 54 5 35 -40 78 -66
64 -36 -19 -88 -12 -116 15 -14 14 -26 31 -27 38 0 7 -3 23 -5 37 -26 185 -16
271 36 328 46 50 75 48 83 -8 4 -33 46 -39 72 -11 14 15 15 24 7 40 -6 11 -11
29 -11 40 0 11 -13 29 -29 40 -31 22 -66 25 -118 10z"/>
<path d="M3732 3914 c4 -5 -40 -9 -98 -10 -99 -1 -109 -3 -206 -44 -78 -33
-114 -55 -150 -91 -26 -26 -51 -49 -55 -51 -15 -6 -105 -109 -100 -114 2 -3
-9 -19 -24 -35 -16 -17 -29 -35 -29 -41 0 -5 -12 -26 -27 -45 -16 -20 -26 -37
-24 -37 7 -2 -11 -50 -24 -66 -7 -8 -20 -35 -28 -60 -9 -25 -23 -62 -32 -83
-14 -34 -22 -79 -24 -139 -1 -14 -7 -16 -28 -12 -41 8 -91 -18 -130 -67 l-35
-44 5 -108 c2 -59 9 -113 15 -120 5 -6 13 -27 17 -46 7 -33 42 -101 57 -111
12 -9 78 -142 73 -150 -2 -4 6 -12 19 -18 19 -8 24 -20 29 -64 7 -67 35 -188
46 -202 10 -12 61 -162 61 -179 0 -5 13 -32 30 -58 16 -27 27 -49 25 -49 -9 0
104 -151 144 -193 20 -21 74 -64 121 -94 47 -31 87 -59 90 -63 8 -9 109 -70
118 -70 4 0 20 -7 36 -15 52 -27 151 -33 267 -16 86 13 121 21 133 29 6 3 17
8 24 9 28 7 40 11 93 35 31 14 61 33 65 41 5 8 29 23 54 34 46 20 225 189 271
255 13 18 26 35 29 38 3 3 17 21 30 40 26 37 58 70 70 70 4 0 23 30 42 68 19
37 43 83 53 102 10 19 20 44 22 54 2 11 7 24 12 30 5 6 12 25 15 43 4 17 13
37 21 43 11 9 28 65 24 80 -1 3 8 24 19 46 12 23 19 44 16 47 -3 2 3 40 14 83
15 62 18 109 16 219 -2 77 -4 147 -4 155 -1 8 1 28 4 43 3 16 0 41 -6 55 -11
27 -12 36 -21 130 -7 68 -61 210 -88 232 -4 3 -9 15 -13 27 -4 12 -19 37 -34
56 -49 64 -67 90 -65 98 1 3 -19 27 -45 52 -26 24 -59 58 -74 73 -31 34 -55
54 -63 54 -4 0 -13 6 -20 13 -31 27 -41 33 -63 34 -12 1 -29 8 -37 16 -8 8
-36 18 -62 21 -26 4 -61 11 -78 16 -16 5 -52 11 -80 14 -27 3 -79 7 -115 11
-36 3 -85 10 -110 15 -76 15 -193 24 -188 14z m23 -104 c63 2 89 0 104 -6 9
-4 27 -8 41 -9 83 -8 157 -18 170 -24 8 -4 29 -6 45 -5 17 1 66 -5 110 -13 44
-9 85 -16 91 -17 7 -1 18 -6 25 -12 8 -5 35 -20 60 -33 25 -12 52 -32 60 -43
8 -12 36 -43 64 -70 27 -26 45 -48 40 -48 -5 0 -2 -6 6 -12 19 -15 105 -137
138 -193 37 -64 63 -137 65 -185 1 -25 5 -50 8 -56 10 -15 13 -98 4 -112 -4
-7 -4 -12 1 -12 12 0 14 -272 2 -337 -13 -70 -44 -175 -66 -223 -9 -19 -16
-39 -15 -43 1 -4 -7 -27 -17 -50 -11 -24 -23 -55 -26 -70 -4 -15 -11 -27 -15
-27 -4 0 -13 -20 -20 -44 -15 -53 -34 -83 -92 -144 -24 -26 -66 -76 -93 -112
-28 -36 -61 -75 -75 -87 -15 -12 -53 -48 -87 -81 -86 -86 -235 -174 -315 -187
-24 -4 -47 -11 -53 -15 -5 -4 -17 -8 -25 -8 -8 -1 -59 -4 -112 -8 -74 -5 -98
-4 -98 5 0 7 -5 9 -10 6 -13 -8 -180 73 -180 86 0 5 -6 9 -14 9 -8 0 -16 3
-18 8 -1 4 -29 25 -61 46 -63 43 -232 216 -211 216 3 0 -1 12 -9 28 -32 59
-89 197 -92 222 0 3 -6 15 -13 28 -8 13 -20 53 -28 90 -20 90 -22 101 -28 120
-3 9 -15 85 -27 167 -21 147 -28 342 -14 365 4 7 9 39 11 73 7 126 42 263 85
327 9 14 19 37 22 51 4 14 18 41 31 60 14 19 44 64 67 101 22 38 56 81 74 97
18 16 38 38 44 50 7 11 18 21 26 21 7 0 15 4 17 8 5 13 61 49 88 57 14 4 27
11 30 16 12 18 115 36 189 32 42 -2 85 -3 96 -3z m-882 -821 c22 -10 24 -15
16 -44 -5 -18 -11 -55 -13 -82 -2 -26 -5 -52 -7 -58 -4 -12 10 -130 18 -153 4
-12 -3 -9 -19 8 -14 14 -24 27 -23 30 4 7 -30 139 -38 146 -14 14 -7 103 11
133 19 35 21 35 55 20z"/>
<path d="M3523 3110 c-29 -3 -60 -13 -72 -24 -12 -11 -31 -24 -43 -30 -11 -6
-24 -18 -28 -26 -58 -118 -73 -316 -30 -386 50 -79 164 -116 237 -74 38 21
103 105 103 132 0 8 5 19 11 25 14 14 16 227 2 245 -6 7 -13 24 -17 38 -8 33
-33 61 -76 86 -28 16 -46 19 -87 14z m80 -80 c32 -26 53 -96 56 -188 2 -62 -2
-81 -28 -134 -45 -94 -98 -116 -182 -74 -35 18 -81 76 -60 76 6 0 15 -9 21
-20 13 -25 37 -15 81 33 25 29 28 39 29 99 0 68 -4 76 -40 83 -11 2 -27 11
-36 20 -9 8 -19 13 -24 10 -15 -9 -21 12 -11 38 7 18 16 24 28 21 12 -3 23 5
35 26 15 26 22 30 61 30 29 0 53 -7 70 -20z"/>
<path d="M4190 3046 c-70 -20 -153 -141 -166 -241 -2 -16 -6 -48 -10 -70 -10
-57 -10 -115 -1 -115 4 0 6 -3 5 -7 -6 -30 54 -90 109 -109 46 -16 138 -4 191
26 84 47 139 196 128 340 -9 104 -36 157 -89 171 -55 15 -125 17 -167 5z m133
-75 c52 -26 57 -36 58 -121 3 -142 -37 -231 -118 -264 -97 -40 -188 3 -187 89
2 105 26 207 45 188 8 -8 7 -17 -1 -32 -6 -12 -12 -46 -13 -76 -2 -43 2 -58
21 -77 12 -14 29 -25 38 -25 35 0 84 106 84 181 0 34 -52 63 -85 48 -29 -13
-49 0 -41 26 10 29 63 72 89 72 12 0 29 5 37 10 8 5 17 9 20 7 3 -1 26 -13 53
-26z"/>
<path d="M3653 2308 c-44 -21 -23 -73 39 -97 26 -10 41 -11 123 -10 39 1 65
25 65 59 0 35 -20 43 -64 25 -51 -21 -81 -19 -112 10 -15 14 -27 25 -28 24 -1
0 -11 -5 -23 -11z"/>
<path d="M3786 2085 c-9 -10 -24 -14 -35 -10 -37 11 -67 -5 -89 -48 -63 -129
-64 -133 -58 -209 8 -105 9 -111 26 -132 55 -68 55 -68 105 -72 95 -6 132 15
193 111 32 51 48 132 30 151 -12 11 -59 -26 -56 -44 4 -25 -26 -82 -66 -125
-32 -35 -38 -38 -78 -33 -23 3 -44 10 -46 16 -2 6 -9 16 -16 23 -49 49 -59
130 -28 212 20 51 51 97 62 90 5 -3 11 -1 15 5 4 6 13 5 25 -2 15 -10 23 -9
38 5 22 20 67 15 76 -9 5 -12 10 -13 26 -4 17 9 20 19 18 48 l-3 37 -61 3
c-46 2 -66 -1 -78 -13z"/>
<path d="M2625 2774 c-11 -9 -28 -21 -38 -28 -10 -8 -15 -20 -11 -29 7 -19 44
-33 53 -21 3 5 23 17 44 26 28 14 37 24 37 43 0 22 -3 23 -24 15 -13 -5 -27
-5 -32 0 -5 5 -18 2 -29 -6z"/>
<path d="M2646 2657 c-23 -23 -25 -31 -16 -42 17 -21 54 -19 74 4 18 20 11 55
-10 47 -7 -3 -14 0 -17 7 -2 7 -15 0 -31 -16z"/>
<path d="M2673 2516 c-32 -25 -28 -62 7 -58 13 1 28 9 33 17 4 8 17 15 27 15
11 0 20 5 20 10 0 6 -4 10 -10 10 -5 0 -7 6 -4 14 8 21 -44 15 -73 -8z"/>
</g>
</svg>
