<?xml version="1.0" standalone="no"?>
<!DOCTYPE svg PUBLIC "-//W3C//DTD SVG 20010904//EN"
 "http://www.w3.org/TR/2001/REC-SVG-20010904/DTD/svg10.dtd">
<svg version="1.0" xmlns="http://www.w3.org/2000/svg"
 width="527.000000pt" height="449.000000pt" viewBox="0 0 527.000000 449.000000"
 preserveAspectRatio="xMidYMid meet">
<metadata>
Created by potrace 1.16, written by Peter Selinger 2001-2019
</metadata>
<g transform="translate(0.000000,449.000000) scale(0.100000,-0.100000)"
fill="#000000" stroke="none">
<path d="M1314 4284 c-8 -3 -9 -17 -2 -47 5 -23 10 -78 11 -122 1 -67 -3 -88
-23 -130 -30 -60 -59 -77 -123 -72 -41 4 -55 11 -86 43 -53 54 -59 70 -50 117
5 28 17 49 38 66 30 25 41 51 21 51 -5 0 -10 6 -10 14 0 8 -7 16 -15 20 -17 6
-45 -2 -45 -14 0 -4 -14 -13 -31 -21 -32 -13 -35 -18 -88 -149 -62 -150 -53
-139 -99 -113 -52 30 -78 -2 -50 -62 12 -26 28 -34 83 -39 25 -2 34 -11 53
-50 21 -42 22 -51 10 -83 -17 -48 -55 -70 -114 -67 -26 2 -51 7 -57 13 -5 5
-16 40 -24 78 -19 90 -19 91 -33 146 -7 26 -21 64 -31 85 -11 20 -19 46 -19
59 0 12 -5 25 -10 28 -6 4 -8 10 -5 14 9 16 -53 98 -88 114 -49 23 -80 21
-107 -8 -21 -22 -22 -31 -18 -108 4 -77 7 -89 43 -143 50 -76 116 -164 177
-234 43 -51 48 -61 54 -123 5 -48 3 -71 -6 -82 -7 -8 -9 -15 -4 -15 4 0 -1 -7
-12 -15 -24 -18 -77 -19 -112 -1 -38 20 -78 66 -86 98 -7 31 -67 68 -109 68
-29 0 -84 -26 -115 -54 -61 -54 -84 -174 -48 -245 9 -16 16 -37 16 -45 0 -8
22 -42 50 -75 60 -72 102 -91 150 -66 50 26 63 71 57 197 l-5 107 56 -39 c44
-29 65 -38 92 -36 104 8 134 45 131 161 l-2 60 49 -3 c27 -2 70 3 98 11 43 12
52 20 73 61 23 45 24 51 12 108 -6 32 -20 74 -30 92 -19 33 -19 33 16 136 18
58 37 107 40 110 3 3 3 -18 0 -47 l-5 -52 63 -62 c80 -78 87 -82 147 -80 126
2 189 103 192 304 1 75 -3 111 -11 115 -6 4 -11 12 -10 17 2 11 -31 17 -49 9z
m-787 -191 c29 -26 63 -106 63 -149 0 -9 9 -31 19 -48 19 -30 56 -165 47 -173
-2 -2 -21 17 -42 43 -22 26 -53 63 -70 83 -54 63 -85 121 -91 171 -12 98 15
125 74 73z m-197 -578 c0 -8 17 -30 38 -49 l37 -34 0 -115 c0 -99 -3 -118 -19
-136 -26 -29 -37 -27 -82 17 -62 61 -89 133 -82 218 4 44 10 57 33 76 48 38
75 46 75 23z"/>
<path d="M1389 3663 c-10 -17 -15 -42 -12 -63 6 -49 -25 -85 -71 -82 -29 2
-35 -1 -40 -24 -6 -22 -2 -32 21 -50 15 -13 31 -23 34 -24 17 -1 99 -216 99
-260 0 -28 -16 -50 -37 -50 -16 0 -61 49 -70 75 -21 67 -85 125 -137 125 -31
0 -96 -60 -96 -88 0 -20 -1 -20 -24 3 -48 48 -75 9 -52 -77 13 -52 13 -59 -7
-114 -37 -99 -60 -122 -87 -89 -23 28 -120 12 -120 -19 0 -9 -6 -13 -14 -10
-21 8 -73 -51 -81 -94 -27 -133 17 -318 90 -372 61 -46 107 -64 156 -61 17 1
62 42 86 77 15 23 20 117 9 174 -3 19 -8 53 -10 76 -2 22 -13 59 -24 81 l-21
41 33 83 c18 46 37 93 41 104 6 19 8 18 29 -8 13 -16 32 -55 42 -88 11 -32 22
-59 25 -59 4 0 12 -21 19 -47 13 -45 55 -113 89 -140 8 -7 12 -13 8 -13 -11 0
9 -35 49 -87 19 -25 34 -51 34 -58 0 -7 4 -15 8 -17 9 -3 62 -111 62 -126 0
-21 33 -71 50 -77 27 -8 43 3 37 26 -3 10 -1 22 5 25 5 4 1 15 -10 28 -10 11
-47 78 -82 149 -34 70 -66 127 -71 127 -5 0 -9 4 -9 10 0 5 -26 55 -57 111
-122 213 -131 236 -138 342 -3 46 0 70 11 85 28 40 56 26 98 -47 12 -23 41
-61 65 -86 36 -38 48 -45 80 -45 45 0 56 11 66 65 14 75 15 100 6 120 -20 40
-43 101 -47 125 -3 13 -14 41 -26 61 l-20 36 28 43 c17 26 30 37 33 29 2 -8
12 -25 23 -39 10 -14 26 -35 36 -48 9 -13 24 -31 32 -40 8 -10 26 -33 40 -52
13 -19 32 -41 41 -47 22 -16 57 -84 64 -123 7 -38 34 -107 54 -139 9 -14 16
-29 17 -35 0 -6 2 -20 2 -32 1 -11 11 -30 22 -42 12 -12 18 -22 15 -22 -4 0 0
-7 9 -15 8 -8 18 -15 23 -15 5 0 31 -19 58 -43 28 -23 63 -51 80 -61 31 -21
137 -104 145 -116 3 -4 23 -18 45 -32 22 -14 59 -43 81 -64 41 -40 46 -63 19
-94 -24 -28 -43 -102 -34 -134 4 -17 8 -105 8 -196 0 -141 2 -197 10 -267 0
-6 31 -40 67 -75 59 -55 126 -122 339 -339 36 -36 70 -61 97 -69 24 -8 68 -27
99 -42 31 -15 71 -31 88 -34 17 -4 31 -10 31 -14 0 -4 21 -13 48 -21 26 -7 73
-25 104 -41 31 -15 61 -28 66 -28 13 0 82 -77 82 -92 0 -13 95 -108 109 -108
5 0 11 -7 15 -15 3 -8 10 -15 16 -15 7 0 35 -15 63 -34 29 -19 64 -39 80 -45
15 -6 27 -17 27 -26 0 -8 9 -15 20 -15 11 0 20 -7 20 -15 0 -8 7 -15 15 -15 8
0 15 -6 15 -13 0 -7 9 -20 20 -30 11 -9 20 -24 20 -32 0 -8 5 -15 10 -15 6 0
10 -4 10 -10 0 -9 10 -23 45 -64 6 -6 17 -23 25 -38 8 -14 41 -64 73 -111 31
-47 57 -89 57 -93 0 -4 9 -14 19 -23 11 -9 33 -45 51 -79 52 -102 119 -127
141 -52 10 34 9 40 -10 61 -11 12 -21 27 -21 31 0 7 -50 76 -90 125 -6 7 -20
30 -32 50 -12 21 -27 45 -34 53 -6 8 -22 33 -34 55 -18 33 -92 137 -110 155
-3 3 -11 16 -19 30 -31 55 -94 132 -114 139 -12 5 -30 18 -41 30 -10 11 -22
18 -26 16 -4 -3 -10 2 -14 10 -3 8 -17 15 -31 15 -14 0 -25 5 -25 12 0 6 -3 8
-6 5 -17 -17 -192 150 -214 203 -10 24 -81 70 -107 70 -19 0 -93 34 -93 42 0
5 -13 8 -30 8 -16 0 -56 13 -88 30 -32 16 -67 31 -78 33 -10 1 -44 14 -74 29
-30 14 -64 28 -75 32 -12 3 -29 21 -40 38 -10 18 -75 88 -144 156 -69 67 -140
136 -156 152 -17 17 -35 30 -41 30 -17 0 -25 67 -32 250 -8 230 -5 271 16 292
7 7 12 17 12 23 0 13 36 45 51 45 5 0 7 5 4 10 -3 6 -1 10 4 10 6 0 11 5 11
12 0 13 12 26 164 179 60 60 111 107 114 104 3 -2 11 0 18 5 14 12 49 -37 64
-91 15 -52 23 -189 12 -213 -22 -48 -32 -78 -32 -96 0 -10 -6 -25 -12 -32 -23
-24 -50 -79 -53 -106 -1 -14 -13 -36 -26 -47 -27 -24 -31 -34 -35 -87 -2 -29
1 -38 17 -43 10 -4 19 -11 19 -16 0 -5 6 -9 13 -9 7 0 23 -9 35 -20 12 -11 27
-20 35 -20 7 0 44 -16 83 -35 38 -19 72 -35 76 -35 4 0 17 -8 28 -17 11 -10
23 -17 25 -15 3 1 19 -14 36 -33 17 -19 39 -35 48 -35 9 0 25 -14 35 -30 24
-42 56 -70 79 -70 11 0 35 11 53 25 30 23 32 28 21 48 -21 38 -44 67 -49 61
-3 -2 -34 23 -69 56 -99 94 -108 101 -163 120 -47 16 -185 77 -195 86 -6 6 30
44 42 44 9 0 157 -97 167 -110 3 -3 28 -22 55 -41 28 -18 52 -36 55 -40 3 -3
23 -18 45 -34 22 -16 50 -38 62 -49 31 -30 44 -39 76 -56 16 -8 40 -25 53 -37
14 -13 28 -23 32 -23 4 0 15 -8 24 -17 22 -24 46 -43 53 -43 3 0 41 -25 84
-55 43 -30 94 -61 112 -69 19 -8 64 -37 101 -64 87 -66 178 -127 201 -135 9
-3 17 -11 17 -17 0 -5 9 -10 20 -10 11 0 20 -7 20 -15 0 -8 20 -23 45 -34 74
-32 113 -13 219 109 31 36 38 89 18 141 -12 31 -60 89 -74 89 -6 0 -37 18 -70
40 -33 22 -64 40 -69 40 -5 0 -9 5 -9 10 0 6 -6 10 -14 10 -8 0 -41 21 -73 47
-32 27 -83 61 -114 76 -31 15 -66 37 -77 48 -12 10 -25 19 -30 19 -5 0 -17 9
-28 21 -10 12 -50 39 -89 62 -38 22 -80 53 -93 69 -13 15 -29 28 -36 28 -20 0
-96 58 -96 73 0 7 -16 19 -35 26 -20 7 -43 23 -51 37 -9 13 -21 24 -28 24 -29
1 -55 36 -58 77 -2 24 -9 45 -15 48 -7 2 -13 11 -13 20 0 15 -48 94 -83 138
-15 19 -134 39 -179 30 -24 -5 -26 -1 -33 44 -11 73 -34 133 -70 183 -28 38
-31 46 -17 48 195 23 338 15 359 -22 4 -7 18 -18 29 -24 12 -6 29 -26 37 -45
9 -18 28 -39 42 -47 14 -7 25 -21 25 -30 0 -9 10 -28 22 -41 39 -42 92 -121
114 -169 9 -19 22 -42 29 -50 7 -8 18 -32 26 -52 15 -44 55 -64 93 -46 43 19
39 53 -17 147 -28 47 -57 92 -65 100 -7 7 -21 30 -32 51 -11 21 -25 44 -33 51
-7 8 -23 29 -36 47 -13 18 -36 47 -52 64 -15 17 -33 44 -40 60 -6 15 -17 28
-24 28 -19 0 -101 77 -92 86 4 4 47 8 96 8 76 0 92 -3 116 -22 32 -25 81 -92
119 -163 14 -26 32 -49 40 -52 9 -4 14 -12 11 -19 -3 -7 22 -49 55 -93 39 -52
60 -90 60 -107 0 -16 4 -28 9 -28 5 0 17 -8 27 -17 26 -27 63 -27 85 -2 20 24
26 69 8 69 -5 0 -7 5 -4 10 3 6 2 10 -3 10 -9 0 -97 126 -136 195 -9 17 -30
48 -46 70 -16 22 -29 45 -30 51 0 20 41 24 79 8 48 -20 76 -48 112 -111 17
-29 36 -56 43 -60 7 -5 23 -30 35 -58 12 -27 27 -58 32 -67 5 -10 9 -25 9 -33
0 -8 5 -15 10 -15 6 0 10 -9 10 -20 0 -11 5 -20 10 -20 6 0 9 -3 9 -7 -4 -22
2 -43 10 -38 5 3 12 1 16 -5 10 -16 57 -12 75 8 14 14 15 24 7 52 -5 19 -13
39 -18 45 -5 5 -9 18 -9 28 0 11 -6 25 -13 31 -19 16 -77 123 -70 129 8 8 75
-63 93 -99 8 -16 25 -42 37 -57 13 -16 26 -41 29 -55 11 -49 45 -145 66 -186
5 -10 13 -39 18 -65 16 -88 33 -166 40 -186 13 -32 21 -65 34 -145 16 -90 43
-198 56 -222 6 -10 10 -24 10 -31 0 -8 8 -29 17 -47 9 -19 16 -46 16 -62 0
-15 5 -28 10 -28 5 0 7 -18 5 -40 -3 -38 -1 -42 58 -93 33 -28 66 -63 73 -77
14 -31 67 -90 81 -90 5 0 10 -4 10 -8 0 -5 8 -17 18 -28 10 -10 38 -48 62 -84
62 -92 124 -174 133 -178 4 -2 7 -12 7 -23 0 -10 5 -19 10 -19 6 0 10 -4 10
-10 0 -11 53 -82 94 -126 14 -16 26 -34 26 -41 0 -21 58 -15 90 9 17 12 30 30
30 41 0 19 -52 74 -104 110 -14 10 -26 26 -26 37 0 10 -4 20 -8 22 -5 2 -36
41 -70 88 -34 47 -69 96 -79 109 -32 42 -53 75 -64 101 -5 14 -28 39 -49 55
-22 17 -54 53 -72 80 -18 28 -46 62 -62 77 -28 26 -66 105 -66 139 0 8 -9 34
-21 58 -11 23 -19 50 -17 59 1 9 -2 24 -7 32 -5 8 -10 20 -11 25 -1 6 -10 37
-20 70 -10 33 -18 74 -19 90 -1 17 -8 44 -15 60 -7 17 -12 47 -12 68 1 20 -3
37 -9 37 -5 0 -9 8 -9 18 -1 9 -8 35 -16 57 -9 22 -20 64 -24 94 -8 48 -56
188 -81 233 -5 10 -9 27 -9 37 0 21 -37 90 -57 106 -7 6 -17 21 -23 35 -29 70
-96 150 -125 150 -8 0 -16 4 -19 9 -12 18 -98 41 -112 30 -10 -8 -19 -4 -38
18 -14 15 -26 31 -26 34 0 3 -28 20 -62 37 -50 24 -76 30 -123 30 -77 -1 -122
9 -137 31 -29 39 -67 53 -155 57 -93 4 -168 -10 -249 -46 -43 -20 -90 -32
-126 -31 -9 0 -19 -7 -22 -15 -4 -9 -19 -14 -48 -13 -24 1 -65 -4 -93 -11 -27
-6 -63 -14 -80 -17 -16 -3 -38 -9 -47 -14 -9 -5 -36 -9 -59 -9 -30 0 -50 -6
-65 -21 l-23 -22 -88 70 c-48 38 -104 78 -123 88 -19 11 -48 34 -65 50 -58 59
-142 125 -159 125 -9 0 -16 5 -16 10 0 6 -9 10 -20 10 -11 0 -23 6 -26 14 -3
8 -12 12 -20 9 -8 -3 -20 -1 -27 4 -25 19 -187 60 -259 66 -65 5 -108 31 -155
95 -27 36 -35 46 -61 77 -7 8 -16 35 -21 60 -17 88 -62 121 -92 68z m575 -425
c27 -2 37 -28 12 -28 -8 0 -19 -13 -25 -30 -5 -16 -15 -30 -21 -30 -6 0 -9 -4
-6 -9 3 -4 -8 -26 -24 -47 -16 -21 -30 -44 -30 -50 0 -13 -43 -44 -60 -44 -5
0 -10 6 -10 13 0 6 -7 25 -15 40 -13 25 -12 31 6 66 11 21 37 52 59 69 21 18
41 41 45 52 5 16 10 18 25 10 10 -6 30 -11 44 -12z m258 -164 c46 -38 85 -71
88 -74 3 -3 28 -22 55 -41 28 -18 52 -37 55 -40 3 -3 20 -14 38 -24 17 -11 35
-27 38 -37 3 -10 9 -18 14 -18 11 0 40 -29 40 -41 0 -5 -7 -9 -15 -9 -14 0
-19 -12 -16 -32 1 -8 -13 -11 -25 -5 -3 1 -11 -8 -17 -20 -21 -38 -137 -153
-155 -153 -20 0 -82 36 -82 48 0 5 -6 9 -12 9 -22 0 -144 88 -232 166 -11 9
-25 17 -30 17 -15 1 -67 49 -87 81 -16 24 -16 27 2 50 11 13 44 61 74 106 31
45 70 93 87 106 l31 25 33 -23 c18 -12 70 -53 116 -91z m-1317 -194 c10 -16
-22 -42 -43 -36 -24 8 -30 42 -9 49 15 5 46 -3 52 -13z m-125 -63 c0 -24 40
-57 68 -57 15 0 42 9 60 20 l33 20 25 -57 c22 -50 25 -69 22 -138 -3 -72 -6
-83 -32 -112 -16 -18 -38 -33 -49 -33 -29 0 -103 46 -124 78 -48 70 -62 190
-32 269 9 25 29 32 29 10z m2146 -325 c-10 -9 15 -32 34 -32 10 0 27 -10 37
-23 10 -12 30 -30 45 -39 35 -23 83 -68 72 -68 -5 0 11 -11 36 -23 60 -31 112
-68 150 -106 17 -17 37 -31 43 -31 7 0 25 -14 41 -30 16 -16 37 -32 47 -35 11
-4 19 -11 19 -16 0 -5 5 -9 10 -9 6 0 16 -5 23 -11 7 -5 48 -33 92 -61 44 -28
96 -65 115 -83 32 -29 152 -105 167 -105 3 0 30 -18 59 -40 30 -22 70 -51 90
-65 20 -14 32 -25 27 -25 -5 0 -29 -17 -53 -39 -37 -33 -43 -45 -47 -87 -3
-27 -9 -53 -13 -58 -11 -11 -102 38 -162 87 -27 21 -71 50 -100 64 -76 37
-248 142 -286 174 -18 16 -36 29 -41 29 -4 0 -19 10 -33 23 -13 12 -49 41 -79
64 -29 23 -67 53 -84 68 -24 22 -168 122 -243 170 -9 6 -25 18 -36 28 -11 9
-23 17 -28 17 -15 0 -8 59 8 68 9 5 15 11 13 13 -4 7 23 83 39 106 7 13 14 38
14 57 0 26 4 33 14 29 8 -3 12 -8 10 -11z m124 -12 c0 -5 -2 -10 -4 -10 -3 0
-8 5 -11 10 -3 6 -1 10 4 10 6 0 11 -4 11 -10z m1074 -865 c8 -8 26 -19 41
-25 16 -6 32 -24 41 -46 18 -42 10 -58 -56 -124 l-38 -38 -48 12 c-53 13 -60
26 -70 126 -5 50 5 68 51 93 38 20 60 21 79 2z"/>
</g>
</svg>
