<?xml version="1.0" standalone="no"?>
<!DOCTYPE svg PUBLIC "-//W3C//DTD SVG 20010904//EN"
 "http://www.w3.org/TR/2001/REC-SVG-20010904/DTD/svg10.dtd">
<svg version="1.0" xmlns="http://www.w3.org/2000/svg"
 width="291.000000pt" height="503.000000pt" viewBox="0 0 291.000000 503.000000"
 preserveAspectRatio="xMidYMid meet">
<metadata>
Created by potrace 1.16, written by Peter Selinger 2001-2019
</metadata>
<g transform="translate(0.000000,503.000000) scale(0.100000,-0.100000)"
fill="#000000" stroke="none">
<path d="M1328 4866 c-111 -38 -157 -66 -225 -140 -74 -80 -95 -111 -115 -163
-10 -26 -23 -57 -28 -68 -22 -47 -33 -117 -36 -220 -3 -94 0 -122 21 -190 13
-44 26 -96 28 -115 7 -58 48 -136 122 -229 74 -94 116 -124 190 -136 96 -15
91 -12 88 -53 -2 -20 -4 -58 -6 -84 -2 -26 -6 -51 -10 -54 -3 -4 -50 -6 -104
-6 -54 0 -123 -4 -153 -8 -30 -5 -86 -11 -125 -15 -92 -7 -192 -22 -205 -30
-5 -3 -10 -13 -10 -21 0 -8 -9 -22 -20 -31 -11 -10 -20 -28 -20 -42 0 -13 -8
-38 -19 -55 -10 -17 -22 -42 -26 -56 -10 -34 -37 -95 -101 -225 -57 -115 -68
-134 -96 -174 -10 -13 -18 -31 -18 -39 0 -26 -116 -255 -145 -286 -18 -19 -27
-40 -26 -60 0 -29 7 -68 11 -73 2 -2 3 -6 4 -10 1 -5 8 -26 14 -48 15 -52 49
-191 68 -280 18 -80 31 -132 51 -193 7 -24 11 -47 9 -50 -2 -4 5 -34 16 -67
11 -33 22 -89 24 -124 5 -77 7 -81 45 -81 23 0 32 6 40 28 15 35 21 152 9 152
-10 0 -65 175 -75 240 -1 8 -12 50 -24 92 -12 43 -24 87 -26 98 -2 12 -7 31
-11 42 -3 11 -16 70 -28 131 -27 130 -22 171 28 246 18 26 52 97 76 157 24 60
53 123 64 139 24 33 90 166 101 203 15 51 23 14 23 -121 0 -78 3 -182 7 -230
3 -48 8 -158 10 -245 5 -273 32 -473 67 -504 17 -15 18 -20 6 -32 -11 -10 -13
-28 -8 -72 14 -119 12 -262 -5 -328 -9 -36 -14 -69 -12 -73 5 -8 -25 -169 -37
-199 -3 -8 -10 -64 -16 -125 -12 -118 -13 -112 45 -254 25 -60 81 -235 89
-280 2 -11 16 -73 31 -138 14 -66 25 -120 23 -120 -2 -1 -16 -9 -33 -18 -16
-9 -55 -24 -85 -34 -30 -10 -66 -24 -80 -31 -39 -21 -144 -54 -169 -54 -27 0
-87 -34 -94 -54 -3 -8 -3 -24 0 -35 8 -32 73 -28 148 9 33 16 69 30 80 30 11
0 40 11 64 25 23 14 51 25 61 25 10 0 55 16 100 35 45 19 88 35 95 35 8 0 17
10 21 23 10 30 12 77 4 77 -13 0 -38 74 -51 145 -12 72 -38 158 -116 395 -39
117 -45 146 -44 216 0 45 8 112 17 150 9 38 20 98 24 134 5 36 11 76 14 88 15
69 26 397 14 431 -7 18 -5 22 6 18 19 -8 125 -26 151 -27 184 -5 515 1 550 10
6 1 30 2 54 1 l43 -1 -5 -42 c-3 -24 -7 -54 -10 -68 -3 -14 -13 -70 -21 -125
-15 -97 -28 -164 -41 -215 -4 -14 -8 -43 -11 -65 -2 -22 -13 -71 -24 -108 -20
-66 -20 -137 0 -162 4 -5 11 -26 15 -45 4 -19 13 -44 20 -55 17 -28 51 -167
60 -245 3 -36 15 -101 25 -145 18 -72 25 -121 36 -239 5 -60 -56 -153 -106
-160 -14 -1 -27 -11 -28 -21 -2 -10 -24 -37 -48 -60 -24 -24 -44 -53 -44 -64
0 -19 6 -21 59 -21 53 0 60 3 76 27 10 15 40 50 67 77 26 28 48 55 48 60 0 4
20 27 44 50 40 39 66 101 44 108 -4 2 -11 23 -14 48 -3 25 -12 72 -21 105 -8
33 -19 83 -23 110 -4 28 -11 61 -15 75 -10 38 -16 72 -19 105 -4 47 -16 94
-41 172 -13 40 -31 105 -39 146 -14 65 -14 80 0 142 8 39 19 97 24 130 5 33
16 107 25 165 9 58 18 121 20 140 1 19 12 61 23 93 14 39 21 87 23 147 1 48 5
111 10 139 4 28 10 76 14 107 3 32 8 62 11 66 7 11 25 177 29 263 2 33 8 92
14 130 10 67 28 218 36 301 8 85 15 151 22 189 4 22 6 46 4 53 -1 6 2 12 6 12
4 0 19 -35 31 -78 27 -87 28 -90 147 -346 51 -109 52 -93 -25 -496 -11 -58
-23 -123 -26 -145 -2 -22 -11 -65 -19 -95 -16 -63 -19 -76 -41 -180 -8 -41
-19 -89 -25 -106 -13 -44 -11 -90 5 -103 7 -6 26 -8 44 -5 32 6 44 27 47 79 4
72 17 148 49 290 9 39 19 84 22 100 3 17 16 89 29 160 13 72 37 189 53 262 26
119 31 189 13 203 -11 8 -91 180 -91 195 0 8 -4 16 -8 19 -16 10 -82 154 -82
179 0 4 -7 21 -15 37 -8 16 -17 42 -19 57 -4 29 -23 115 -32 146 -3 9 -12 17
-20 17 -8 0 -14 6 -14 14 0 25 -21 30 -140 32 -145 3 -330 13 -339 18 -9 6 -7
122 3 163 5 20 16 33 30 36 29 7 87 28 111 40 11 6 43 21 70 35 74 36 167 138
197 214 14 35 36 88 48 118 12 30 26 78 30 105 7 45 15 81 20 95 7 19 -4 154
-16 197 -8 28 -14 69 -14 90 1 21 -2 49 -7 63 -13 40 -63 130 -71 130 -4 0
-16 15 -26 34 -35 65 -176 166 -213 152 -7 -3 -14 -2 -17 2 -2 4 -46 8 -98 9
-81 1 -105 -3 -190 -31z m199 -51 c19 -8 50 -15 67 -15 34 0 85 -28 137 -75
40 -36 89 -99 89 -114 0 -6 4 -11 8 -11 27 0 62 -177 62 -314 0 -81 -11 -129
-58 -261 -47 -133 -99 -206 -174 -251 -33 -19 -63 -34 -69 -34 -5 0 -17 -4
-27 -9 -139 -75 -257 -69 -347 17 -90 87 -128 153 -158 273 -51 205 -58 239
-52 248 3 5 6 34 6 63 2 112 66 251 157 343 83 85 98 94 197 127 95 31 114 33
162 13z m173 -1499 c71 -5 130 -13 137 -19 8 -9 9 -31 3 -82 -20 -159 -29
-244 -35 -310 -3 -38 -8 -90 -12 -115 -3 -25 -5 -52 -5 -60 0 -8 -6 -58 -14
-110 -8 -52 -16 -126 -18 -165 -2 -38 -12 -117 -21 -175 -18 -111 -34 -231
-33 -240 3 -19 -17 -91 -27 -100 -7 -6 -48 -12 -91 -15 -43 -2 -101 -7 -129
-10 -85 -9 -179 -14 -187 -9 -4 3 -67 7 -140 9 -72 2 -134 8 -137 12 -3 4 -26
10 -50 12 -82 6 -105 41 -116 179 -3 31 -7 77 -10 102 -3 25 -8 124 -11 220
-4 141 -11 292 -15 365 0 6 2 71 5 146 5 140 22 267 37 283 5 6 9 20 9 32 0
19 8 24 53 33 28 5 59 10 67 11 8 0 47 4 85 8 88 9 490 7 655 -2z"/>
</g>
</svg>
