<?xml version="1.0" standalone="no"?>
<!DOCTYPE svg PUBLIC "-//W3C//DTD SVG 20010904//EN"
 "http://www.w3.org/TR/2001/REC-SVG-20010904/DTD/svg10.dtd">
<svg version="1.0" xmlns="http://www.w3.org/2000/svg"
 width="449.000000pt" height="393.000000pt" viewBox="0 0 449.000000 393.000000"
 preserveAspectRatio="xMidYMid meet">
<metadata>
Created by potrace 1.16, written by Peter Selinger 2001-2019
</metadata>
<g transform="translate(0.000000,393.000000) scale(0.100000,-0.100000)"
fill="#000000" stroke="none">
<path d="M2435 3662 c-11 -2 -27 -6 -35 -9 -8 -3 -44 -8 -80 -10 -36 -2 -96
-7 -135 -12 -101 -11 -409 -2 -435 14 -5 3 -40 6 -79 7 -84 2 -144 -21 -160
-61 -26 -68 -30 -103 -16 -132 8 -15 15 -33 15 -40 0 -22 130 -139 161 -146
16 -3 32 -10 35 -14 3 -5 19 -9 37 -9 24 0 28 -3 19 -12 -6 -6 -64 -15 -134
-19 -68 -5 -145 -11 -173 -15 -52 -7 -61 -7 -235 -5 -153 2 -377 -8 -435 -18
-27 -5 -69 -10 -93 -10 -52 -1 -156 -42 -189 -75 -22 -22 -24 -31 -19 -71 4
-26 12 -55 19 -66 14 -22 144 -79 181 -79 14 0 45 -6 68 -14 24 -8 108 -20
188 -26 159 -11 163 -12 335 -30 66 -8 130 -13 143 -13 12 1 22 -3 22 -8 0 -5
12 -9 28 -9 49 0 59 -16 21 -34 -79 -37 -319 -55 -589 -45 -96 4 -193 5 -215
3 -22 -3 -78 -9 -125 -14 -86 -9 -184 -34 -251 -63 -54 -24 -66 -61 -43 -133
17 -55 19 -57 81 -86 130 -60 196 -73 403 -83 52 -2 140 -9 195 -15 55 -6 156
-12 224 -14 168 -6 226 -13 260 -31 39 -20 46 -32 24 -43 -42 -22 -152 -27
-348 -17 -114 5 -468 17 -495 16 -14 -1 -57 -17 -96 -36 -61 -29 -74 -40 -87
-72 -29 -74 -6 -132 67 -169 45 -22 272 -47 306 -34 3 1 8 2 12 1 4 0 38 -3
75 -6 37 -3 86 -8 108 -11 77 -10 111 -12 235 -19 69 -4 136 -8 150 -10 14 -1
36 -3 50 -4 53 -4 -6 -19 -120 -30 -63 -6 -131 -14 -150 -17 -19 -3 -73 -7
-120 -10 -47 -3 -89 -10 -95 -15 -5 -5 -20 -9 -35 -9 -28 -1 -62 -25 -73 -53
-9 -24 17 -86 40 -94 10 -3 25 -11 33 -18 8 -7 31 -15 50 -19 19 -3 57 -10 85
-16 96 -20 350 -29 615 -21 36 0 112 1 170 1 58 0 131 3 163 6 l57 6 0 -41 c0
-22 -5 -61 -12 -86 -11 -41 -10 -46 10 -68 16 -17 30 -23 47 -19 14 2 22 8 20
12 -3 5 -1 11 3 14 5 3 6 22 2 43 -3 21 -3 47 1 58 4 11 10 36 14 56 6 40 7
40 120 54 57 7 180 34 210 46 36 14 223 69 252 74 64 10 200 50 217 64 6 6 25
12 41 15 17 3 43 8 59 11 87 17 226 111 282 190 23 32 50 60 60 63 33 8 238
11 249 4 12 -9 150 -8 225 1 105 13 240 27 247 26 20 -3 33 2 31 13 -2 7 7 14
18 16 12 2 24 12 27 23 8 29 -32 46 -70 30 -35 -14 -182 -30 -338 -37 -86 -4
-140 -1 -191 9 -119 26 -255 5 -295 -44 -13 -17 -34 -41 -46 -54 -12 -14 -24
-33 -28 -44 -3 -11 -19 -26 -35 -33 -17 -7 -30 -16 -30 -20 0 -5 -8 -8 -18 -8
-10 0 -36 -13 -58 -30 -21 -16 -47 -30 -56 -30 -10 0 -18 -4 -18 -10 0 -5 -5
-10 -11 -10 -5 0 -35 -11 -65 -25 -30 -14 -87 -32 -127 -40 -85 -18 -269 -71
-314 -91 -28 -13 -276 -53 -326 -54 -17 0 -18 6 -12 58 7 62 -3 85 -43 97 -28
8 -34 -7 -36 -93 l-1 -67 -50 -3 c-28 -2 -82 1 -122 6 -40 4 -81 4 -95 -1 -27
-10 -105 -15 -323 -22 -116 -3 -192 0 -275 12 -63 8 -126 17 -140 18 -14 1
-35 7 -47 13 -12 7 -31 12 -43 12 -15 0 -20 5 -18 18 3 18 90 40 193 48 144
11 267 30 413 61 12 3 31 16 41 29 10 13 24 24 31 24 7 0 9 8 4 23 -10 33 -25
49 -41 42 -8 -2 -23 -1 -33 5 -10 5 -73 11 -141 14 -68 2 -164 9 -214 15 -49
6 -202 13 -340 16 -137 2 -267 9 -288 14 -73 18 -99 69 -56 110 41 38 109 46
339 42 618 -10 633 -9 698 47 39 33 40 59 7 112 -31 49 -46 57 -115 59 -30 1
-84 4 -120 6 -36 2 -136 7 -223 9 -87 3 -163 8 -168 12 -6 3 -61 8 -122 11
-197 7 -210 9 -317 42 -125 38 -132 41 -147 71 -16 32 -8 45 40 64 114 42 157
48 422 52 352 6 535 14 565 24 14 5 53 11 87 14 83 7 138 35 153 80 15 48 1
73 -48 81 -20 4 -48 10 -62 15 -26 9 -176 30 -245 35 -62 4 -252 24 -341 35
-43 6 -98 13 -121 16 -23 3 -79 16 -125 28 -68 18 -85 26 -98 49 -14 26 -14
28 15 51 36 30 86 43 185 51 41 3 89 8 105 10 17 2 149 7 295 10 146 4 326 8
400 10 188 4 250 18 302 68 20 19 32 21 56 8 9 -5 84 -11 167 -15 128 -5 154
-9 177 -26 15 -11 30 -20 34 -20 9 0 124 -112 124 -122 0 -5 12 -21 26 -36 14
-15 32 -38 40 -52 17 -28 57 -55 116 -80 21 -8 43 -21 50 -28 17 -17 45 -15
56 4 5 8 17 17 28 18 15 2 18 10 16 32 -2 16 -5 30 -6 31 -1 1 -22 5 -46 8
-24 3 -47 11 -51 17 -4 6 -15 13 -23 14 -25 4 -89 63 -106 98 -21 44 -39 65
-134 155 -26 25 -52 46 -59 47 -7 1 -32 7 -57 14 -25 7 -92 12 -150 12 -108
-1 -250 18 -331 43 -26 8 -52 15 -59 15 -7 0 -20 8 -29 18 -9 9 -29 24 -44 31
-39 21 -71 77 -68 120 1 19 7 38 12 42 18 10 113 10 171 -2 67 -13 268 -12
373 1 241 31 587 39 652 16 60 -22 118 -53 133 -71 8 -9 30 -25 49 -35 20 -10
48 -32 64 -49 15 -17 34 -31 42 -31 8 0 15 -4 15 -8 0 -10 62 -47 74 -44 4 2
13 -2 20 -7 14 -11 145 -58 201 -72 22 -5 49 -13 60 -19 11 -5 38 -11 60 -14
22 -3 51 -8 65 -11 38 -8 397 -15 415 -9 18 7 20 34 3 56 -11 13 -42 18 -160
23 -81 3 -158 8 -170 11 -13 3 -43 5 -68 5 -91 -2 -396 108 -460 164 -14 13
-44 32 -68 44 -24 12 -45 28 -48 36 -5 12 -39 34 -149 95 -45 24 -176 41 -310
38 -66 -1 -129 -4 -140 -6z"/>
<path d="M2065 2326 c-16 -12 -17 -22 -11 -92 4 -43 7 -111 6 -149 -1 -61 2
-74 20 -90 12 -11 25 -18 29 -17 3 2 14 8 25 14 17 9 18 18 11 106 -4 54 -9
118 -10 143 -2 42 -28 99 -44 99 -4 0 -15 -6 -26 -14z"/>
<path d="M2005 1220 c-12 -13 -15 -43 -15 -138 0 -67 -3 -122 -7 -122 -5 0
-30 20 -58 45 -27 24 -56 42 -63 40 -8 -3 -18 -5 -23 -5 -5 0 -13 -10 -18 -22
-9 -25 5 -78 20 -78 6 0 20 -11 32 -24 72 -78 88 -99 97 -121 5 -14 21 -30 34
-36 21 -10 28 -8 55 22 17 19 31 39 31 44 2 21 67 84 95 91 17 4 41 17 54 30
19 19 22 30 17 58 -7 35 -21 46 -61 46 -16 0 -25 -7 -29 -25 -4 -14 -10 -25
-15 -25 -4 0 -26 -17 -47 -37 l-39 -37 -3 34 c-2 19 4 77 13 128 13 68 14 100
7 117 -13 29 -56 38 -77 15z"/>
<path d="M1450 851 c-19 -5 -26 -16 -30 -42 -4 -19 -10 -41 -15 -49 -5 -8 -10
-19 -11 -25 -2 -22 -38 -95 -46 -95 -5 0 -7 -4 -4 -9 3 -5 -1 -14 -9 -21 -8
-7 -15 -20 -15 -29 0 -10 -20 -47 -45 -84 -25 -37 -45 -71 -45 -76 0 -5 -6
-14 -14 -21 -8 -6 -27 -44 -42 -83 -16 -40 -42 -94 -58 -122 -40 -64 -41 -106
-4 -119 36 -13 52 2 68 62 22 78 82 197 146 289 23 32 46 75 53 95 7 20 19 42
27 48 7 7 14 18 14 25 0 15 47 102 67 127 11 12 22 14 41 8 15 -4 47 -13 72
-20 25 -6 63 -20 85 -30 49 -22 213 -70 239 -70 31 0 139 -21 162 -32 12 -6
48 -12 80 -13 33 -2 93 -8 134 -14 41 -6 104 -15 139 -19 41 -5 68 -14 76 -25
8 -11 26 -17 49 -17 20 0 50 -7 67 -15 16 -9 33 -13 38 -11 8 5 69 -11 80 -20
2 -2 -2 -10 -9 -19 -7 -8 -10 -15 -6 -15 4 0 0 -10 -8 -23 -8 -12 -22 -47 -30
-77 -29 -107 -53 -153 -103 -204 -9 -9 21 -65 37 -69 23 -6 80 42 80 68 0 10
8 36 19 59 25 55 42 105 48 138 3 15 11 33 19 39 8 6 14 17 14 25 0 7 13 28
29 46 28 33 35 48 32 78 -1 21 -53 51 -70 41 -14 -9 -68 1 -117 20 -16 6 -38
12 -49 14 -11 2 -33 8 -50 14 -59 20 -158 43 -208 47 -29 2 -68 7 -87 10 -19
4 -48 6 -65 5 -16 -1 -48 5 -71 12 -22 8 -52 13 -66 10 -14 -3 -43 4 -65 14
-22 11 -52 18 -66 16 -15 -2 -37 1 -48 8 -12 6 -54 19 -93 30 -100 25 -191 59
-260 97 -62 34 -66 34 -106 23z"/>
</g>
</svg>
