<?xml version="1.0" standalone="no"?>
<!DOCTYPE svg PUBLIC "-//W3C//DTD SVG 20010904//EN"
 "http://www.w3.org/TR/2001/REC-SVG-20010904/DTD/svg10.dtd">
<svg version="1.0" xmlns="http://www.w3.org/2000/svg"
 width="551.000000pt" height="491.000000pt" viewBox="0 0 551.000000 491.000000"
 preserveAspectRatio="xMidYMid meet">
<metadata>
Created by potrace 1.16, written by Peter Selinger 2001-2019
</metadata>
<g transform="translate(0.000000,491.000000) scale(0.100000,-0.100000)"
fill="#000000" stroke="none">
<path d="M3269 4757 c-21 -14 -36 -33 -39 -51 -5 -26 -6 -28 -19 -13 -7 10
-21 17 -31 17 -22 0 -76 -62 -92 -106 -10 -28 -19 -34 -70 -49 -36 -10 -61
-23 -64 -33 -3 -9 -9 -26 -14 -37 -14 -35 -23 -60 -24 -67 -1 -4 -7 -13 -13
-19 -7 -7 -13 -23 -13 -36 0 -12 -5 -34 -12 -48 -8 -19 -8 -34 1 -62 7 -21 13
-45 14 -53 2 -8 5 -19 9 -25 3 -5 9 -31 13 -57 4 -27 12 -48 18 -48 6 0 8 -3
4 -6 -7 -8 2 -20 83 -106 71 -75 165 -129 250 -143 25 -4 50 -11 56 -16 13
-10 150 -13 229 -4 62 7 98 20 150 55 17 11 39 24 50 29 22 10 145 139 143
150 -3 14 15 61 23 61 5 0 9 8 9 18 1 9 9 42 20 72 11 30 19 69 20 86 0 26 5
34 33 44 17 6 48 18 67 26 19 7 51 16 70 20 46 8 50 9 85 23 17 7 59 14 95 15
80 4 239 21 388 42 63 9 134 13 160 10 26 -4 101 -8 167 -11 66 -2 130 -4 143
-4 12 -1 22 -6 22 -11 0 -5 21 -2 46 8 41 15 47 21 50 49 3 25 -2 36 -22 52
-16 12 -24 28 -23 43 4 48 -1 56 -48 71 -41 13 -57 13 -110 2 -74 -15 -260
-19 -295 -6 -18 7 -33 5 -52 -5 -15 -7 -30 -13 -34 -13 -4 1 -9 0 -12 -1 -18
-7 -52 -12 -95 -15 -27 -2 -61 -7 -75 -12 -14 -6 -54 -9 -90 -8 -39 2 -76 -3
-92 -11 -14 -8 -48 -14 -75 -14 -26 1 -59 -2 -73 -4 -115 -22 -172 -38 -217
-60 -29 -14 -57 -26 -62 -26 -5 0 -11 -3 -13 -7 -1 -5 -17 -16 -35 -25 l-32
-16 -6 46 c-4 26 -8 58 -11 71 -2 14 -14 35 -28 47 -13 13 -26 28 -28 34 -4
12 -30 14 -70 4 -19 -4 -28 -2 -28 5 0 16 -62 41 -100 41 -16 0 -29 3 -29 8 4
26 -5 43 -31 57 -38 20 -69 19 -92 -2 -16 -14 -18 -14 -18 0 0 48 -75 62 -131
24z m88 -77 c-3 -42 -1 -63 9 -70 10 -9 16 -5 28 19 9 16 16 37 16 45 0 34 72
43 92 12 13 -19 9 -63 -7 -76 -8 -7 -15 -23 -15 -36 0 -19 5 -24 24 -24 28 0
48 21 50 53 1 19 6 22 36 19 19 -2 37 -6 40 -8 2 -3 -4 -33 -13 -68 -22 -81
-21 -86 3 -86 20 0 23 5 50 78 18 48 43 58 79 31 33 -24 46 -70 36 -130 -11
-67 -21 -69 -318 -75 -178 -4 -276 -2 -307 6 -25 6 -76 18 -115 27 -77 17 -87
25 -78 63 8 35 20 47 51 52 15 3 33 7 41 9 10 3 17 -9 24 -33 6 -26 15 -38 27
-38 28 0 42 23 26 46 -20 29 -12 107 15 143 13 17 24 31 25 31 1 0 14 -18 28
-41 26 -38 28 -40 46 -24 13 12 16 23 11 43 -13 46 23 91 73 92 l28 0 -5 -60z
m1780 -136 c-3 -3 -12 -4 -19 -1 -8 3 -5 6 6 6 11 1 17 -2 13 -5z m-1281 -290
c-3 -31 -10 -62 -15 -68 -5 -6 -12 -26 -16 -43 -3 -18 -11 -33 -16 -33 -5 0
-9 -9 -9 -21 0 -12 -26 -47 -63 -84 -73 -73 -121 -92 -252 -102 -64 -4 -98 -1
-170 17 -49 12 -108 31 -129 42 -42 22 -145 125 -146 146 0 6 -4 12 -8 12 -5
0 -9 14 -10 31 0 18 -6 37 -11 42 -6 6 -11 31 -11 55 l0 43 38 -6 c20 -3 65
-10 100 -16 41 -7 158 -9 330 -6 237 5 273 8 317 26 76 30 78 30 71 -35z"/>
<path d="M3990 3340 c-41 -5 -92 -11 -112 -14 -20 -3 -39 -2 -43 4 -4 6 -15 6
-31 0 -14 -6 -49 -10 -77 -10 -56 0 -175 -21 -219 -39 -16 -6 -28 -9 -28 -6 0
5 -118 -30 -165 -50 -22 -9 -64 -28 -93 -41 -29 -13 -62 -24 -73 -24 -11 0
-22 -6 -25 -13 -3 -8 -40 -31 -82 -53 -42 -21 -79 -41 -82 -44 -3 -3 -25 -14
-50 -25 -88 -38 -170 -93 -181 -122 -2 -5 -25 -24 -51 -41 -58 -40 -64 -51
-71 -124 l-6 -57 39 -22 c22 -13 46 -37 55 -56 9 -18 20 -31 25 -28 4 3 13 -7
19 -23 11 -27 22 -47 76 -137 40 -66 57 -104 50 -116 -4 -5 -1 -9 4 -9 6 0 10
-3 9 -7 -1 -5 3 -17 9 -29 13 -22 49 -166 58 -229 3 -22 12 -76 19 -120 17
-95 28 -175 31 -230 2 -22 5 -56 9 -75 13 -80 22 -473 10 -491 -2 -4 -1 -10 4
-13 7 -4 7 -103 2 -381 -1 -34 -5 -67 -9 -73 -11 -18 5 -111 28 -164 25 -59
65 -96 147 -137 38 -19 71 -38 74 -41 17 -24 163 -74 248 -85 49 -7 122 -29
122 -37 0 -5 4 -6 10 -3 5 3 19 1 31 -6 12 -6 64 -12 117 -14 66 -2 97 -7 103
-16 6 -9 9 -10 9 -2 0 8 41 11 153 9 83 -2 161 0 172 4 20 8 154 23 188 22 9
0 17 3 17 7 0 4 41 20 91 36 50 16 97 34 103 40 6 6 16 12 21 13 6 0 12 9 14
18 2 10 21 41 42 70 22 28 42 62 44 75 3 12 9 25 14 28 5 3 18 56 30 118 27
152 21 331 -14 403 -7 14 -15 40 -18 57 -6 29 -3 35 24 48 17 9 36 14 42 12 7
-2 19 -1 28 4 23 12 170 41 176 35 3 -2 13 4 24 15 11 11 24 17 29 14 5 -3 11
-1 15 5 3 5 14 10 24 10 9 0 41 11 70 26 29 14 58 23 64 21 7 -2 31 16 55 40
39 41 47 54 43 77 -1 4 3 13 8 20 5 6 9 39 9 73 0 56 3 81 19 178 11 70 15
164 15 380 1 236 -6 345 -25 380 -6 11 -11 27 -12 35 0 8 -6 14 -12 13 -7 -2
-13 2 -13 9 0 6 -7 18 -15 27 -8 9 -27 30 -42 48 -20 23 -45 36 -88 48 -33 9
-64 15 -70 15 -76 -7 -216 -6 -221 1 -3 5 -11 6 -17 2 -15 -9 -95 -14 -125 -8
-22 5 -22 6 -20 178 1 94 0 183 -4 197 -13 50 -28 80 -48 92 -12 8 -20 23 -20
41 0 17 -11 41 -27 59 -57 62 -85 88 -93 88 -5 0 -15 6 -22 13 -18 18 -110 61
-125 59 -6 -2 -14 2 -18 8 -3 5 -21 10 -40 10 -19 0 -46 5 -61 10 -15 6 -50
13 -78 15 -28 2 -71 6 -96 9 -25 2 -79 0 -120 -4z m173 -119 c13 -5 30 -5 37
-1 8 5 21 5 30 0 9 -5 41 -12 71 -16 30 -4 79 -19 109 -35 51 -26 134 -91 136
-107 0 -4 6 -20 13 -37 21 -49 20 -60 -3 -101 -14 -26 -38 -48 -74 -67 -112
-61 -353 -105 -464 -86 -22 4 -39 2 -41 -4 -5 -15 -363 -10 -462 6 -16 3 -86
8 -155 12 -68 4 -127 8 -131 11 -7 4 -75 12 -174 20 -33 3 -94 8 -135 12 l-75
7 58 38 c31 21 57 44 57 52 0 7 14 19 30 27 17 7 30 16 30 19 0 3 19 12 43 19
23 8 58 24 77 37 19 13 38 23 43 23 4 0 20 9 36 21 15 11 34 22 42 23 34 7 75
19 84 26 17 12 118 49 165 60 106 26 141 31 255 36 66 3 145 9 175 13 68 9
190 4 223 -8z m481 -473 c-3 -4 -6 -40 -8 -81 -1 -40 -6 -78 -10 -85 -4 -6 -9
-33 -13 -60 -5 -47 -5 -49 28 -64 26 -12 51 -14 104 -9 76 7 138 6 172 -2 13
-3 25 -2 27 2 3 4 22 5 43 1 21 -3 56 -2 77 2 29 7 50 5 78 -7 21 -8 47 -15
58 -15 12 0 26 -13 36 -32 9 -18 23 -40 30 -49 8 -9 17 -31 19 -50 3 -19 9
-59 13 -89 15 -108 0 -547 -23 -650 -4 -18 -8 -55 -10 -83 -4 -61 -11 -95 -25
-122 -11 -20 -75 -55 -101 -55 -8 0 -19 -4 -25 -9 -5 -5 -34 -16 -64 -26 -30
-9 -62 -19 -70 -22 -20 -8 -18 -8 -80 -21 -30 -6 -75 -14 -98 -16 -24 -3 -50
-10 -57 -16 -7 -6 -17 -10 -21 -9 -5 1 -26 1 -48 0 -29 -1 -37 -4 -33 -16 4
-8 2 -17 -3 -20 -17 -11 -11 -59 20 -148 39 -109 48 -215 29 -339 -7 -51 -12
-96 -11 -100 1 -5 -3 -8 -8 -8 -6 0 -10 -6 -8 -12 8 -44 -57 -147 -94 -148
-10 0 -18 -4 -18 -8 0 -5 -11 -15 -25 -22 -14 -7 -23 -16 -20 -19 9 -8 -118
-52 -133 -46 -8 3 -20 1 -27 -5 -6 -5 -43 -14 -81 -19 -85 -12 -404 -12 -404
0 0 5 -11 4 -24 -3 -14 -6 -33 -7 -43 -3 -10 5 -22 7 -28 6 -8 -2 -131 25
-165 37 -16 5 -27 8 -80 17 -96 16 -204 60 -257 105 -7 5 -16 10 -21 10 -9 0
-23 11 -84 65 -31 28 -44 92 -33 163 4 26 9 58 10 72 1 14 6 60 10 103 5 48 4
82 -3 90 -5 6 -10 53 -9 102 0 111 -13 428 -19 437 -2 3 0 18 6 32 5 14 5 28
1 31 -5 3 -9 30 -10 60 0 31 -2 59 -5 63 -2 4 -7 36 -10 72 -4 36 -9 77 -12
90 -2 14 -7 41 -9 60 -20 145 -30 201 -61 315 -20 72 -40 134 -45 140 -5 5 -9
16 -9 25 0 8 -11 38 -25 65 -13 28 -25 56 -25 63 0 6 -3 12 -7 12 -5 0 -19 23
-33 51 -14 28 -46 78 -72 110 -27 33 -48 61 -48 64 0 7 164 -5 215 -15 22 -4
47 -8 55 -8 8 -1 44 -1 80 -2 35 -1 69 -4 74 -7 5 -4 50 -8 100 -11 186 -9
203 -10 240 -16 44 -7 245 -21 296 -20 49 1 256 14 310 20 25 2 74 7 110 10
66 5 126 20 146 36 7 4 28 9 48 10 20 1 41 7 47 15 6 7 17 13 23 13 19 0 120
54 131 70 7 12 11 6 16 -25 4 -22 5 -43 3 -47z"/>
<path d="M3840 2564 c-11 -12 -10 -22 0 -54 7 -22 10 -43 6 -47 -4 -4 -27 -8
-52 -8 -44 -1 -90 -26 -80 -44 6 -8 62 -6 114 5 30 6 33 4 46 -27 8 -19 17
-64 20 -101 3 -36 10 -78 16 -93 15 -39 14 -40 -43 -39 -29 1 -76 -4 -103 -10
-27 -7 -67 -11 -89 -9 -22 3 -92 6 -155 8 -63 1 -133 5 -155 9 -65 10 -198 47
-227 62 -34 18 -38 18 -38 -5 0 -26 8 -30 105 -52 175 -38 387 -50 605 -34 52
4 91 2 100 -4 12 -8 15 -31 14 -106 -1 -52 -4 -98 -7 -101 -3 -3 -33 -7 -68
-9 -71 -5 -92 -17 -59 -35 15 -8 34 -9 68 -1 51 11 66 6 69 -24 11 -99 17
-281 14 -397 l-1 -58 -33 0 c-42 0 -70 -20 -61 -43 5 -14 14 -16 43 -11 20 4
40 7 45 8 6 0 13 -17 17 -39 11 -56 11 -195 0 -195 -5 0 -11 -9 -14 -20 -3
-13 1 -21 14 -25 19 -6 21 -21 21 -150 0 -100 2 -96 -42 -93 -48 2 -70 -14
-53 -40 6 -9 19 -15 29 -13 54 12 68 7 75 -29 7 -32 5 -159 -3 -239 -4 -46 25
-67 64 -47 16 8 44 12 66 10 43 -5 77 20 70 53 -3 15 -12 18 -56 15 -60 -3
-60 -4 -66 88 -3 36 -8 87 -12 113 l-7 48 29 -7 c46 -11 47 -10 60 15 19 38 7
54 -35 47 -49 -7 -57 1 -60 59 -2 59 -10 123 -17 148 -5 16 -1 17 30 12 32 -7
36 -5 42 20 8 32 -7 45 -44 39 -34 -7 -39 4 -36 87 1 39 -2 84 -6 99 -6 22 -4
30 8 35 8 3 20 1 26 -5 11 -11 46 -13 70 -4 10 4 16 18 16 36 0 28 -2 30 -27
22 -16 -4 -43 -8 -62 -8 -44 -1 -49 17 -43 136 4 86 5 87 33 93 16 4 29 11 29
16 0 6 5 7 10 4 15 -9 80 17 80 31 0 7 -5 16 -12 20 -15 10 -90 12 -103 4 -5
-4 -19 -9 -30 -12 -20 -5 -21 -1 -20 61 0 36 -2 82 -6 102 -6 36 -5 37 25 35
17 0 36 -6 41 -12 16 -18 75 11 75 37 0 20 -4 21 -62 15 -74 -7 -88 -1 -84 39
2 17 4 64 5 106 l1 75 44 3 c53 2 72 6 108 20 14 5 45 8 69 6 29 -3 52 1 73
14 31 18 80 34 206 66 76 19 103 36 94 59 -7 20 -64 22 -64 3 0 -16 -66 -45
-101 -45 -14 0 -41 -7 -60 -16 -19 -9 -44 -18 -54 -20 -11 -3 -40 -12 -64 -20
-24 -9 -47 -14 -51 -11 -4 3 -41 -4 -81 -15 -104 -28 -125 -26 -134 8 -5 15
-9 57 -11 94 -1 37 -8 76 -13 87 -6 11 -11 30 -11 42 0 17 4 20 23 16 79 -20
76 -21 83 8 8 33 -10 48 -46 40 -62 -15 -75 -12 -75 20 -1 66 -39 111 -65 79z"/>
<path d="M4063 2517 c-11 -17 -10 -61 1 -69 5 -3 10 -35 10 -69 1 -52 4 -64
18 -67 16 -3 18 6 15 102 -2 90 -4 105 -19 109 -10 3 -21 0 -25 -6z"/>
<path d="M4149 2479 c-20 -20 -20 -21 -2 -41 10 -12 18 -35 18 -57 0 -25 4
-36 15 -36 8 0 16 9 18 20 1 11 5 39 8 63 4 27 2 48 -6 57 -17 20 -26 19 -51
-6z"/>
<path d="M5085 2320 c-106 -21 -343 -32 -383 -18 -15 5 -36 3 -57 -6 -30 -13
-36 -21 -42 -58 -4 -24 -6 -47 -4 -53 2 -5 4 -17 5 -25 1 -8 5 -31 9 -50 3
-19 9 -62 12 -95 3 -33 9 -89 14 -124 7 -56 7 -197 1 -461 -3 -99 -2 -102 12
-98 7 3 18 -1 25 -8 8 -8 24 -9 47 -4 19 4 37 5 40 2 4 -3 6 0 6 7 0 7 5 9 10
6 6 -3 10 -1 10 6 0 7 3 10 6 7 7 -7 115 21 132 34 6 6 12 7 12 3 0 -4 7 -2
15 5 14 12 46 16 143 19 23 0 42 6 42 12 0 6 10 25 23 42 16 23 22 48 24 87 4
147 11 248 18 259 7 12 7 105 1 370 -3 156 -9 163 -121 141z m16 -134 c0 -12
3 -50 6 -86 11 -134 3 -314 -22 -514 -6 -53 -19 -63 -90 -70 -33 -3 -61 -11
-63 -16 -2 -6 -9 -10 -16 -10 -7 0 -30 -8 -52 -19 -21 -10 -55 -21 -76 -24
l-36 -5 -5 51 c-2 29 -3 106 -1 172 2 66 -3 165 -11 220 -19 139 -29 285 -19
286 5 0 41 3 79 5 39 2 117 10 175 17 135 17 130 17 131 -7z"/>
<path d="M1551 3235 c-34 -17 -79 -51 -102 -75 -44 -49 -89 -128 -82 -146 4
-11 -14 -15 -137 -30 -25 -3 -144 -4 -265 -3 -455 6 -678 3 -727 -9 -23 -6
-41 -58 -27 -83 7 -14 21 -19 52 -20 23 -1 47 0 52 1 43 10 107 12 375 11 168
-1 356 -3 418 -3 61 0 130 2 152 6 36 6 43 3 71 -26 17 -18 38 -46 46 -63 9
-16 29 -42 44 -58 33 -31 136 -80 151 -71 5 3 14 1 21 -4 25 -19 129 -17 158
4 28 19 75 41 102 48 42 10 68 40 127 148 11 21 20 51 20 67 0 28 -22 61 -40
61 -5 0 -9 15 -8 34 1 18 -6 44 -15 57 -10 13 -17 31 -17 41 0 23 -68 118 -85
118 -7 0 -15 6 -18 14 -5 12 -27 14 -105 13 -89 -1 -105 -4 -161 -32z m235
-31 c19 -9 42 -31 51 -48 9 -17 19 -33 23 -36 9 -7 41 -102 36 -107 -2 -3 -57
-6 -123 -8 -65 -3 -152 -7 -193 -10 -41 -2 -85 -5 -97 -5 -12 0 -24 -4 -27 -9
-3 -4 -17 -6 -31 -4 -20 4 -23 8 -15 23 6 10 10 28 10 40 0 21 34 76 60 96 8
7 21 9 29 6 10 -4 13 -1 9 9 -4 11 8 22 41 37 74 34 174 41 227 16z m44 -382
c0 -9 -98 -52 -115 -51 -6 0 17 13 50 29 71 34 65 32 65 22z"/>
</g>
</svg>
