<?xml version="1.0" standalone="no"?>
<!DOCTYPE svg PUBLIC "-//W3C//DTD SVG 20010904//EN"
 "http://www.w3.org/TR/2001/REC-SVG-20010904/DTD/svg10.dtd">
<svg version="1.0" xmlns="http://www.w3.org/2000/svg"
 width="543.000000pt" height="497.000000pt" viewBox="0 0 543.000000 497.000000"
 preserveAspectRatio="xMidYMid meet">
<metadata>
Created by potrace 1.16, written by Peter Selinger 2001-2019
</metadata>
<g transform="translate(0.000000,497.000000) scale(0.100000,-0.100000)"
fill="#000000" stroke="none">
<path d="M877 4848 c-8 -18 -10 -34 -5 -36 4 -2 8 -12 8 -22 0 -14 11 -22 39
-30 22 -6 54 -24 71 -40 18 -16 49 -40 71 -52 21 -12 39 -27 39 -35 0 -7 14
-19 30 -28 17 -9 30 -21 30 -27 0 -6 3 -8 6 -5 4 4 22 -6 40 -21 86 -72 111
-88 153 -98 76 -19 152 -33 219 -38 34 -3 67 -8 72 -11 12 -8 183 -36 250 -41
118 -10 155 -15 224 -35 39 -12 93 -27 119 -35 27 -7 62 -20 79 -28 16 -9 46
-18 67 -22 94 -17 195 -51 296 -101 61 -30 115 -58 120 -63 6 -4 34 -13 63
-21 28 -7 52 -16 52 -21 0 -4 6 -8 14 -8 7 0 25 -9 40 -21 14 -11 26 -18 26
-15 0 9 154 -87 163 -101 4 -7 13 -13 19 -13 9 0 57 -47 106 -105 7 -8 30 -55
50 -103 20 -48 42 -93 49 -100 7 -7 15 -23 17 -35 3 -12 8 -35 11 -52 19 -87
17 -113 -17 -182 -20 -42 -34 -61 -36 -50 -2 9 -8 14 -14 11 -7 -5 -9 0 -6 14
4 14 1 25 -9 30 -8 5 -14 11 -12 13 4 6 -54 93 -65 98 -4 2 -16 13 -25 24 -83
103 -126 145 -152 149 -19 2 -24 -3 -31 -32 -9 -46 -3 -65 32 -90 33 -23 130
-142 130 -159 0 -6 4 -11 9 -11 12 0 61 -76 61 -96 0 -9 9 -27 20 -41 11 -14
18 -29 15 -33 -2 -4 0 -22 6 -41 13 -44 13 -173 -1 -177 -5 -2 -10 -10 -10
-17 0 -8 -11 -26 -25 -41 -14 -15 -25 -31 -25 -35 0 -5 -4 -9 -10 -9 -5 0 -10
4 -10 10 0 11 -80 126 -109 157 -12 12 -21 26 -21 30 0 10 -91 93 -102 93 -4
0 -8 7 -8 15 0 8 -9 24 -21 36 -22 22 -50 19 -82 -10 -36 -31 -1 -121 47 -121
12 0 32 -12 45 -25 13 -14 27 -25 31 -25 4 0 19 -17 32 -37 12 -20 35 -55 50
-77 15 -23 41 -69 58 -104 35 -71 35 -106 1 -202 -11 -30 -17 -58 -15 -62 3
-4 -8 -15 -23 -25 -15 -10 -30 -20 -33 -23 -25 -26 -50 -29 -92 -10 -24 11
-51 20 -60 20 -9 0 -32 14 -50 30 -18 17 -38 30 -44 30 -7 0 -14 4 -16 8 -5
15 -161 137 -196 155 -18 9 -38 14 -45 12 -7 -2 -24 -6 -39 -9 -45 -10 -50
-35 -21 -96 14 -30 41 -70 60 -90 18 -19 43 -50 56 -67 12 -18 26 -33 30 -33
12 0 37 -27 37 -39 0 -6 4 -11 8 -11 5 0 14 -11 20 -25 6 -14 18 -25 27 -25 8
0 15 -4 15 -10 0 -5 4 -10 9 -10 19 0 181 -152 181 -169 0 -6 18 -29 40 -51
22 -22 40 -47 40 -55 0 -8 4 -15 8 -15 8 0 54 -64 97 -135 11 -19 34 -49 50
-67 40 -45 75 -95 75 -107 0 -5 3 -11 8 -13 10 -4 44 -55 69 -103 53 -101 73
-199 53 -260 -9 -26 -21 -39 -48 -51 -116 -49 -184 -21 -382 155 -25 22 -50
41 -56 41 -6 0 -18 7 -25 16 -7 9 -36 31 -65 49 -29 18 -72 54 -98 79 -25 25
-49 46 -52 46 -7 0 -129 123 -204 206 -19 22 -80 80 -135 129 -55 50 -169 160
-255 246 -85 85 -180 175 -210 199 -53 42 -77 63 -146 127 -17 15 -47 41 -68
56 -39 30 -50 28 -82 -12 -12 -15 -7 -61 7 -61 5 0 9 -7 9 -15 0 -8 11 -17 25
-21 14 -3 25 -10 25 -15 0 -4 24 -34 53 -66 93 -102 152 -183 193 -266 15 -29
33 -59 40 -68 15 -17 99 -212 116 -268 5 -19 8 -75 6 -124 -3 -85 -4 -90 -33
-113 -20 -16 -38 -23 -52 -19 -13 3 -23 1 -23 -3 0 -22 -139 10 -160 37 -3 3
-25 20 -50 36 -25 17 -49 34 -55 38 -45 36 -131 97 -138 97 -4 0 -37 24 -72
53 -36 30 -99 71 -141 93 -74 38 -137 93 -232 204 -23 27 -97 160 -180 328
-78 155 -151 292 -162 304 -11 12 -20 24 -20 28 0 3 -20 32 -45 65 -25 33 -45
65 -45 71 0 6 -7 18 -16 25 -9 7 -31 36 -49 64 -18 27 -60 79 -94 115 -33 36
-61 68 -61 72 0 4 -14 15 -30 25 -17 9 -30 21 -30 26 0 9 -32 50 -70 90 -8 9
-35 33 -59 55 -40 35 -42 40 -30 59 16 26 -2 53 -35 53 -12 0 -32 7 -44 16
-47 33 -97 -11 -69 -60 6 -12 10 -24 9 -28 -1 -5 5 -8 13 -8 8 0 15 -3 15 -7
0 -11 68 -91 112 -133 20 -19 78 -73 127 -120 50 -46 91 -89 91 -95 0 -5 20
-32 45 -60 25 -27 45 -53 45 -56 0 -4 12 -20 28 -36 15 -17 34 -43 42 -59 8
-16 32 -54 53 -84 22 -30 48 -70 59 -87 11 -18 24 -33 29 -33 5 0 9 -5 9 -12
0 -9 12 -37 60 -138 4 -8 24 -46 45 -85 45 -83 105 -203 105 -211 0 -4 11 -20
25 -38 32 -39 34 -42 68 -92 55 -81 272 -264 313 -264 7 0 14 -3 16 -8 2 -4
28 -25 58 -46 30 -22 86 -64 124 -95 196 -160 262 -198 360 -207 61 -5 80 -3
117 14 115 54 147 144 111 312 -7 30 -14 64 -16 75 -2 11 -9 33 -15 48 -6 16
-11 39 -11 51 0 13 -9 34 -20 47 -30 37 -35 44 -38 58 -4 20 -26 64 -72 149
-40 73 -36 83 10 27 14 -16 37 -42 52 -57 16 -14 28 -31 28 -37 0 -6 4 -11 9
-11 14 0 61 -45 61 -57 0 -6 21 -28 48 -49 26 -21 138 -131 249 -244 111 -113
207 -209 213 -215 6 -5 33 -32 58 -58 43 -45 169 -137 187 -137 4 0 19 -12 34
-27 29 -29 66 -60 97 -80 11 -7 50 -34 88 -59 72 -47 154 -76 196 -68 14 2 43
7 65 10 169 27 206 231 83 464 -27 52 -64 113 -81 135 -17 22 -35 45 -39 50
-4 6 -21 26 -38 46 -16 20 -30 40 -30 43 0 10 -89 136 -135 191 -22 26 -49 58
-60 71 -68 82 -83 98 -109 122 -26 25 -79 75 -228 221 -32 30 -58 59 -58 64 0
10 94 -67 113 -92 18 -25 123 -86 192 -112 66 -25 124 -26 169 -3 23 11 32 12
45 1 14 -10 14 -10 3 4 -13 17 -8 32 30 89 31 47 71 182 70 243 0 42 3 57 14
57 8 0 14 4 14 8 0 5 9 18 19 29 11 11 34 51 52 89 28 59 33 80 33 144 0 76
-4 101 -16 110 -4 3 16 39 44 80 65 98 81 135 79 190 -3 81 -24 189 -45 228
-22 43 -46 102 -46 113 0 5 -5 15 -10 22 -6 7 -27 37 -47 67 -20 30 -47 66
-60 80 -13 14 -23 28 -23 32 0 5 -6 8 -14 8 -7 0 -21 11 -30 25 -9 14 -21 25
-27 25 -6 0 -30 16 -53 35 -59 48 -290 165 -327 165 -9 0 -22 7 -29 15 -7 8
-19 15 -28 15 -8 0 -29 9 -47 20 -31 19 -133 59 -165 64 -8 1 -41 12 -73 24
-32 12 -69 22 -83 22 -13 0 -32 4 -42 9 -41 21 -311 102 -355 106 -26 2 -55 6
-65 9 -9 3 -44 8 -77 11 -58 4 -91 10 -235 40 -36 8 -96 16 -135 19 -113 8
-224 58 -306 138 -8 7 -30 25 -49 38 -19 13 -41 30 -48 37 -7 7 -32 28 -57 48
-24 20 -47 46 -51 58 -9 30 -22 37 -71 37 -39 0 -44 -3 -56 -32z m1043 -2568
c0 -5 -2 -10 -4 -10 -3 0 -8 5 -11 10 -3 6 -1 10 4 10 6 0 11 -4 11 -10z"/>
<path d="M3372 2185 c-6 -14 -15 -25 -20 -25 -5 0 49 -58 120 -130 70 -71 128
-136 128 -145 0 -8 6 -15 13 -16 6 0 38 -33 70 -72 32 -40 80 -99 108 -132 79
-94 80 -98 22 -92 -53 5 -72 -4 -92 -40 -17 -33 18 -65 75 -68 48 -4 79 -9
172 -32 51 -12 69 -13 92 -3 23 10 29 17 25 34 -24 103 -38 178 -40 217 -3 55
-12 76 -28 60 -7 -7 -16 -1 -29 20 -18 29 -20 30 -41 16 -16 -11 -23 -26 -25
-61 -2 -25 1 -46 6 -46 6 0 15 -14 21 -31 10 -29 9 -30 -6 -18 -9 8 -57 61
-106 119 -50 58 -93 107 -97 110 -4 3 -20 23 -36 45 -32 45 -78 96 -171 191
-35 35 -63 68 -63 73 0 9 -65 51 -79 51 -4 0 -13 -11 -19 -25z"/>
<path d="M3781 1251 c-21 -14 -29 -41 -11 -41 5 0 7 -7 4 -15 -4 -8 1 -17 10
-21 13 -5 16 -22 16 -93 0 -47 -4 -91 -8 -97 -5 -8 -76 -11 -242 -9 -129 1
-239 3 -245 5 -24 6 -131 -1 -145 -9 -12 -8 -14 -59 -11 -338 3 -319 4 -456 3
-518 0 -16 -1 -37 -1 -46 0 -8 14 -20 30 -27 66 -24 78 6 66 168 -12 173 -10
615 3 640 6 11 23 23 38 27 15 5 164 7 332 5 168 -2 496 -5 730 -7 724 -6 860
-10 871 -26 5 -8 9 -30 10 -49 2 -55 5 -74 11 -90 7 -16 17 -216 24 -474 5
-176 12 -195 62 -178 l27 9 1 169 c1 93 -2 209 -6 259 -5 49 -11 142 -14 205
-3 63 -8 135 -11 160 -6 41 -33 130 -41 130 -1 0 -14 -4 -28 -10 -18 -6 -26
-6 -26 1 0 7 -17 8 -52 4 -29 -4 -141 -8 -250 -9 l-198 -2 -1 40 c-1 23 -2 77
-4 121 -1 44 -7 92 -14 106 l-13 27 -448 -2 c-362 -1 -453 -4 -469 -15z"/>
</g>
</svg>
