<?xml version="1.0" standalone="no"?>
<!DOCTYPE svg PUBLIC "-//W3C//DTD SVG 20010904//EN"
 "http://www.w3.org/TR/2001/REC-SVG-20010904/DTD/svg10.dtd">
<svg version="1.0" xmlns="http://www.w3.org/2000/svg"
 width="557.000000pt" height="423.000000pt" viewBox="0 0 557.000000 423.000000"
 preserveAspectRatio="xMidYMid meet">
<metadata>
Created by potrace 1.16, written by Peter Selinger 2001-2019
</metadata>
<g transform="translate(0.000000,423.000000) scale(0.100000,-0.100000)"
fill="#000000" stroke="none">
<path d="M2938 3789 c-35 -37 -39 -57 -29 -132 5 -39 12 -187 16 -327 3 -140
8 -289 11 -330 2 -41 7 -183 9 -315 3 -132 7 -342 9 -467 l5 -228 -52 -2 c-81
-2 -126 -5 -207 -13 -41 -3 -113 -8 -158 -10 -46 -2 -86 -6 -90 -9 -3 -3 -13
-6 -22 -6 -26 0 -35 -69 -12 -86 9 -7 20 -10 24 -8 3 2 57 6 120 9 62 2 176 9
253 13 77 5 141 9 141 8 5 -4 15 -693 14 -901 -1 -137 0 -268 1 -290 5 -78 3
-221 -5 -285 -19 -162 -19 -157 5 -199 18 -34 27 -40 47 -36 28 5 48 29 55 65
6 29 2 545 -6 845 -19 660 -21 794 -14 801 3 4 37 8 74 10 37 2 89 6 116 9 50
7 54 4 37 -39 -7 -19 -4 -34 13 -65 12 -23 27 -41 34 -41 25 0 63 20 63 34 0
9 7 12 20 9 14 -4 20 0 20 11 0 9 7 16 15 16 8 0 15 -4 15 -10 0 -16 78 -124
118 -163 22 -21 47 -38 58 -38 10 1 26 1 34 1 8 0 33 0 55 -1 22 0 195 0 385
0 324 2 575 -5 592 -15 3 -2 9 0 13 6 3 5 18 10 33 11 21 0 37 14 75 65 27 36
57 89 67 117 10 29 28 75 39 103 24 63 30 104 37 272 4 84 2 142 -4 160 -6 15
-13 50 -16 77 -3 28 -12 70 -21 94 -8 24 -15 52 -15 63 0 11 -8 43 -17 70 -21
58 -72 108 -157 152 -31 16 -56 33 -56 38 0 4 -6 8 -12 8 -7 1 -35 16 -62 34
-42 29 -53 33 -80 25 -38 -11 -39 -11 -31 1 8 13 -1 13 -25 0 -14 -8 -227 -14
-300 -8 -48 3 -458 -16 -475 -22 -20 -7 -86 -68 -103 -94 -4 -6 -16 -16 -27
-22 -31 -17 -135 -213 -135 -254 0 -10 -5 -31 -11 -47 -6 -15 -12 -98 -15
-183 -4 -173 1 -164 -78 -134 -41 16 -74 11 -92 -14 -13 -17 -10 -65 4 -70 5
-1 18 -9 28 -16 17 -13 15 -15 -26 -20 -25 -3 -77 -8 -116 -10 -62 -5 -72 -3
-76 12 -2 9 -5 121 -6 247 -1 127 -4 334 -7 460 -2 127 -7 361 -9 520 -3 160
-7 327 -9 372 l-4 81 571 -4 c314 -2 641 -4 726 -4 85 1 232 0 325 0 94 -1
286 -1 428 -1 l257 0 1 -132 c5 -754 10 -1165 13 -1232 5 -92 18 -1265 16
-1460 -1 -71 -1 -137 -1 -145 1 -53 0 -271 -2 -415 -4 -211 3 -234 65 -235 35
0 47 23 43 85 -2 28 -6 138 -10 245 -10 331 -12 377 -19 389 -4 6 -4 11 1 11
11 0 14 193 3 200 -5 3 -4 26 0 52 5 26 5 59 0 76 -4 17 -7 51 -6 77 1 25 -1
48 -5 51 -4 2 -4 18 1 34 5 18 5 30 -1 30 -5 0 -9 9 -9 20 0 11 5 20 10 20 14
0 12 37 -2 43 -10 4 -10 6 0 6 6 1 12 13 12 29 0 21 -2 24 -10 12 -8 -12 -10
-10 -10 8 0 13 4 20 10 17 6 -4 10 36 9 112 0 75 -4 111 -9 98 -7 -16 -9 -13
-9 18 -1 20 3 37 8 37 11 0 7 443 -5 630 -8 121 -8 1007 0 1194 4 92 8 111 25
127 22 21 19 45 -7 67 -12 9 -12 12 -3 12 10 0 11 3 2 14 -7 8 -26 12 -54 10
-131 -11 -2335 -2 -2402 10 -11 1 -28 -5 -37 -15z m1359 -1011 c234 -2 289 -8
324 -33 8 -6 39 -23 69 -38 93 -47 131 -90 136 -152 1 -16 10 -70 19 -120 29
-156 33 -192 29 -272 -10 -173 -55 -324 -119 -398 -26 -29 -75 -46 -75 -25 0
7 -6 8 -19 0 -13 -7 -22 -7 -26 0 -7 12 -45 14 -45 2 0 -4 -33 -9 -72 -9 -150
-3 -519 -5 -696 -3 l-182 1 -54 82 c-60 90 -59 94 15 102 50 5 65 18 73 66 9
53 -9 65 -129 86 -16 2 -34 9 -40 14 -6 6 -10 73 -9 162 0 163 11 222 60 322
38 76 50 95 57 88 4 -3 7 -2 7 4 0 13 55 73 67 73 6 0 21 11 35 25 24 23 31
25 169 27 79 2 147 2 151 0 3 -1 118 -3 255 -4z m1128 -1798 c3 -5 1 -10 -4
-10 -6 0 -11 5 -11 10 0 6 2 10 4 10 3 0 8 -4 11 -10z"/>
<path d="M4472 2681 c-19 -15 -21 -26 -22 -136 -2 -144 -2 -122 0 -220 1 -44
-3 -93 -9 -108 -16 -41 -14 -45 21 -67 29 -17 35 -18 54 -5 18 11 23 11 35 0
14 -14 31 -18 62 -16 16 1 17 18 15 252 -2 264 -6 289 -49 289 -11 0 -35 6
-53 14 -29 12 -35 12 -54 -3z"/>
<path d="M3810 2645 c-7 -8 -24 -15 -39 -15 -14 0 -33 -6 -42 -13 -19 -14 -34
-73 -21 -81 5 -3 9 -43 10 -88 2 -175 7 -287 15 -294 4 -4 34 -9 67 -10 51 -2
63 1 80 18 21 23 23 45 20 263 -2 87 -3 124 -9 196 0 9 -12 21 -26 27 -34 15
-40 15 -55 -3z"/>
<path d="M4139 2046 c-15 -7 -38 -11 -52 -9 -22 4 -28 -1 -45 -35 -18 -38 -18
-42 -3 -85 9 -25 28 -60 43 -77 26 -31 30 -33 93 -31 82 2 129 20 149 60 22
42 20 53 -15 97 -59 74 -124 105 -170 80z"/>
<path d="M2208 3069 c-7 -8 -30 -26 -51 -38 -21 -13 -43 -28 -50 -34 -7 -7
-35 -27 -62 -46 -28 -19 -66 -48 -85 -66 -19 -18 -71 -56 -115 -85 -44 -29
-91 -61 -104 -71 -37 -30 -56 -23 -100 36 -23 30 -67 71 -99 91 -31 20 -58 41
-60 45 -8 20 -69 9 -92 -16 -13 -14 -29 -25 -35 -25 -6 0 -20 -7 -30 -15 -11
-8 -54 -37 -95 -64 -80 -53 -251 -220 -293 -286 -13 -22 -38 -54 -54 -72 -18
-20 -38 -62 -53 -110 -13 -43 -26 -80 -29 -83 -27 -23 -60 -179 -60 -284 0
-80 13 -143 42 -204 l21 -42 -22 -15 c-11 -9 -27 -21 -34 -28 -7 -7 -29 -23
-48 -37 -19 -13 -51 -37 -71 -54 -20 -17 -49 -40 -64 -51 -16 -11 -43 -32 -60
-46 -16 -14 -48 -36 -70 -49 -22 -13 -44 -29 -50 -35 -5 -7 -47 -35 -92 -64
-45 -28 -93 -61 -105 -74 -13 -12 -41 -35 -62 -52 -81 -62 -97 -78 -92 -91 3
-8 1 -14 -4 -14 -20 0 -9 -31 15 -42 14 -6 25 -18 25 -26 0 -9 7 -23 16 -33
12 -13 13 -22 5 -38 -18 -32 -13 -62 10 -68 15 -4 19 -11 15 -28 -4 -14 2 -29
15 -43 18 -20 22 -21 48 -8 16 9 59 43 96 78 37 35 74 67 82 71 8 5 33 27 56
50 23 23 56 49 72 57 26 12 150 103 165 120 3 3 23 17 45 30 66 40 124 84 125
96 0 6 12 17 28 24 15 8 38 24 52 36 32 29 77 47 85 34 10 -17 32 -11 63 15
24 20 36 24 62 19 17 -4 34 -13 37 -20 5 -14 174 -83 220 -90 15 -2 88 -7 162
-10 136 -6 226 4 283 33 15 7 36 13 48 13 11 0 20 4 20 9 0 5 8 12 18 15 23 9
61 31 75 45 6 6 19 11 29 11 10 0 18 4 18 9 0 5 30 29 68 52 60 39 191 170
201 202 2 6 10 19 17 28 8 9 17 33 20 55 4 33 0 46 -25 82 -17 23 -31 47 -31
53 0 6 -7 17 -15 25 -8 9 -15 22 -15 30 0 24 238 251 338 323 23 17 42 36 42
41 0 6 6 10 13 10 7 0 23 14 37 31 14 17 38 45 53 63 41 46 44 70 13 107 -14
17 -26 35 -26 41 0 20 -43 48 -74 48 -24 0 -46 -14 -101 -66 -38 -37 -95 -82
-125 -102 -30 -19 -76 -52 -101 -74 -26 -21 -50 -38 -53 -38 -9 0 -136 -102
-159 -128 -18 -20 -19 -20 -71 34 -30 29 -73 85 -96 124 l-43 71 24 27 c85 96
347 332 369 332 11 0 87 75 100 99 14 27 1 56 -52 115 -34 38 -51 49 -75 50
-17 1 -37 -6 -45 -15z m-1003 -439 c-3 -5 -12 -10 -18 -10 -7 0 -6 4 3 10 19
12 23 12 15 0z m30 -1018 c-3 -3 -11 0 -18 7 -9 10 -8 11 6 5 10 -3 15 -9 12
-12z"/>
<path d="M4160 1259 c0 -5 -5 -7 -10 -4 -29 18 -71 -94 -66 -175 6 -91 64
-160 132 -155 38 2 119 48 138 78 8 12 17 45 21 72 12 96 -39 165 -125 170
-14 0 -32 5 -40 10 -22 14 -50 16 -50 4z m98 -98 c16 -10 -16 -21 -60 -21 -20
0 -26 4 -22 15 7 16 60 20 82 6z m35 -90 c-7 -26 -32 -48 -65 -56 -21 -5 -29
-2 -38 14 -9 18 -8 21 12 21 13 0 37 9 53 19 39 25 44 25 38 2z"/>
<path d="M4687 616 c-2 -6 -199 -11 -541 -13 -531 -2 -578 -5 -560 -34 3 -5
-8 -17 -25 -27 -17 -9 -31 -20 -31 -24 0 -11 -61 -98 -68 -98 -4 0 -13 -15
-21 -32 -7 -18 -20 -46 -27 -62 -8 -16 -14 -33 -14 -37 0 -4 -5 -20 -11 -36
-20 -50 -18 -77 8 -97 22 -16 28 -17 50 -5 13 7 27 25 30 41 3 15 9 28 13 28
3 0 7 13 7 30 0 32 31 110 45 110 4 0 8 5 8 11 0 14 65 79 79 79 5 0 14 8 20
18 9 16 42 17 478 17 545 -1 574 -2 581 -27 2 -10 27 -28 53 -40 44 -18 104
-76 108 -103 5 -31 14 -63 23 -85 5 -14 12 -38 14 -54 6 -50 56 -72 87 -38 22
24 27 92 8 114 -8 9 -16 23 -17 30 -7 37 -46 124 -69 154 -14 19 -51 50 -81
69 -29 19 -54 39 -54 45 0 5 -8 10 -17 10 -14 0 -15 2 -4 9 10 7 11 13 2 30
-7 12 -16 19 -22 16 -5 -4 -9 -2 -9 2 0 12 -39 11 -43 -1z"/>
</g>
</svg>
