<?xml version="1.0" standalone="no"?>
<!DOCTYPE svg PUBLIC "-//W3C//DTD SVG 20010904//EN"
 "http://www.w3.org/TR/2001/REC-SVG-20010904/DTD/svg10.dtd">
<svg version="1.0" xmlns="http://www.w3.org/2000/svg"
 width="457.000000pt" height="441.000000pt" viewBox="0 0 457.000000 441.000000"
 preserveAspectRatio="xMidYMid meet">
<metadata>
Created by potrace 1.16, written by Peter Selinger 2001-2019
</metadata>
<g transform="translate(0.000000,441.000000) scale(0.100000,-0.100000)"
fill="#000000" stroke="none">
<path d="M2430 4094 c-14 -14 -56 -52 -95 -82 -38 -31 -108 -93 -155 -138 -79
-77 -235 -204 -249 -204 -3 0 -31 -23 -61 -51 -121 -113 -211 -189 -224 -189
-8 0 -17 11 -20 25 -3 13 -40 57 -81 98 -41 40 -75 81 -75 90 0 9 -7 17 -15
17 -8 0 -15 6 -15 14 0 17 -87 96 -106 96 -7 0 -14 3 -16 8 -8 17 -87 70 -130
87 -27 10 -48 21 -48 25 0 16 -247 129 -315 145 -38 9 -89 21 -113 27 -48 12
-324 15 -389 3 -48 -8 -60 -28 -42 -69 14 -31 -1 -29 224 -28 169 1 186 -1
275 -27 108 -32 185 -63 250 -102 25 -14 64 -35 87 -45 24 -10 43 -24 43 -31
0 -7 6 -10 15 -7 8 4 15 2 15 -4 0 -5 17 -18 37 -28 55 -28 123 -77 123 -91 0
-6 14 -23 30 -36 17 -14 30 -29 30 -34 0 -5 38 -49 83 -98 l84 -89 -60 -56
c-34 -30 -72 -68 -86 -83 -26 -29 -193 -147 -208 -147 -4 0 -30 -20 -58 -45
-27 -25 -63 -55 -79 -68 -15 -12 -43 -34 -61 -49 -18 -16 -37 -28 -43 -28 -5
0 -29 -20 -53 -45 -24 -25 -47 -45 -51 -45 -3 0 -19 -12 -35 -27 -42 -40 -61
-54 -128 -95 -54 -33 -115 -101 -115 -129 0 -10 19 -46 36 -69 7 -8 32 -53 56
-100 25 -47 59 -112 77 -144 17 -32 32 -70 33 -82 1 -13 6 -24 10 -24 4 0 8
-7 8 -16 0 -8 9 -32 19 -52 11 -20 36 -71 56 -112 20 -41 43 -82 50 -90 14
-16 58 -101 101 -195 15 -33 40 -79 55 -101 16 -23 26 -44 23 -46 -2 -3 2 -11
11 -18 8 -7 15 -19 15 -26 0 -8 4 -14 8 -14 5 0 15 -12 23 -27 7 -16 23 -41
35 -58 12 -16 27 -47 33 -67 7 -20 16 -38 20 -40 4 -2 22 -32 39 -69 17 -36
51 -95 76 -132 25 -37 51 -77 58 -91 43 -78 68 -127 68 -131 0 -3 15 -30 35
-60 19 -31 35 -58 35 -61 0 -3 13 -24 29 -47 41 -60 86 -153 105 -216 9 -29
21 -60 27 -67 6 -8 9 -14 6 -14 -7 0 91 -189 109 -210 7 -8 16 -31 21 -50 9
-35 9 -35 73 -38 35 -2 66 1 69 5 3 5 40 19 81 32 41 13 89 28 105 33 17 5 84
14 150 19 66 5 149 11 185 14 36 3 103 12 150 20 47 8 173 25 280 36 107 12
229 25 270 30 41 5 95 11 120 13 151 16 169 19 395 60 79 14 139 21 155 16 32
-9 65 12 78 50 12 36 4 59 -23 66 -20 5 -40 28 -32 37 5 6 -34 51 -53 61 -21
10 -56 66 -79 125 -6 14 -15 33 -20 41 -6 8 -20 39 -33 68 -13 28 -27 52 -33
52 -5 0 -3 5 5 10 10 6 11 10 3 10 -7 0 -13 6 -13 13 0 6 -10 28 -22 47 -12
19 -23 44 -25 55 -2 10 -7 22 -11 25 -5 3 -16 25 -26 49 -20 51 -19 52 74 98
50 24 97 55 140 91 8 7 35 27 60 45 58 42 61 64 14 113 -20 22 -48 62 -61 89
-13 28 -39 77 -58 110 -19 33 -43 76 -52 95 -10 19 -21 37 -24 40 -3 3 -11 21
-19 40 -7 19 -19 42 -27 51 -7 8 -13 22 -13 30 0 8 -9 28 -20 44 -11 17 -20
38 -20 48 0 10 -7 20 -15 23 -8 4 -15 14 -15 24 0 11 -5 22 -11 25 -6 4 -32
53 -59 108 -27 56 -57 118 -68 137 -11 19 -36 71 -56 115 -55 118 -137 278
-152 296 -8 8 -14 18 -14 22 0 3 -13 29 -30 57 -16 28 -30 60 -30 70 0 11 -4
20 -8 20 -5 0 -23 30 -41 68 -19 37 -43 77 -54 90 -11 12 -17 22 -13 22 4 0
-2 9 -12 20 -10 11 -25 38 -32 60 -7 22 -16 40 -21 40 -4 0 -10 12 -14 28 -3
15 -13 34 -20 42 -7 8 -14 18 -14 23 -1 16 -61 126 -77 142 -9 9 -18 28 -20
42 -1 14 -9 30 -16 34 -7 5 -9 9 -5 9 4 0 -5 19 -21 43 -26 38 -76 137 -148
292 -15 33 -28 62 -29 65 0 3 -15 33 -33 67 -17 34 -32 69 -32 78 0 22 -51 72
-81 80 -19 5 -30 0 -49 -21z m93 -192 c24 -48 51 -100 60 -117 27 -49 67 -138
67 -150 0 -7 9 -22 20 -35 11 -13 20 -31 20 -40 0 -10 7 -23 15 -30 8 -7 15
-18 15 -25 0 -8 3 -15 8 -17 4 -1 32 -52 62 -113 30 -60 57 -112 60 -115 3 -3
17 -27 31 -55 73 -142 144 -274 163 -305 37 -61 66 -113 102 -185 20 -38 49
-92 65 -120 43 -75 93 -185 129 -282 7 -18 17 -33 23 -33 6 0 7 -3 4 -7 -4 -3
-2 -12 3 -18 6 -7 33 -57 61 -111 28 -55 55 -104 59 -109 5 -6 12 -24 16 -40
4 -17 10 -34 14 -40 4 -5 15 -32 25 -60 10 -27 30 -68 45 -90 14 -22 32 -56
40 -75 7 -19 25 -53 40 -75 14 -22 35 -60 45 -85 11 -25 32 -67 47 -95 32 -57
50 -97 46 -99 -2 -1 -30 -24 -62 -51 -33 -28 -81 -63 -107 -80 -27 -16 -92
-60 -146 -96 -54 -36 -126 -83 -161 -105 -35 -21 -75 -47 -90 -56 -15 -10 -43
-26 -62 -35 -19 -10 -37 -20 -40 -23 -3 -3 -22 -14 -43 -24 -21 -11 -50 -31
-65 -46 -15 -14 -63 -48 -107 -75 -44 -27 -93 -59 -108 -72 -16 -13 -41 -26
-55 -29 -15 -4 -48 -22 -73 -40 -26 -19 -51 -34 -56 -34 -6 0 -22 -11 -37 -25
-15 -14 -31 -25 -37 -25 -5 0 -17 -4 -27 -9 -9 -5 -35 -17 -57 -27 -22 -11
-69 -37 -105 -58 -36 -21 -81 -46 -100 -55 -19 -9 -68 -36 -107 -59 -85 -50
-95 -48 -133 24 -14 26 -33 56 -42 66 -10 10 -18 22 -18 27 0 5 -25 51 -55
102 -30 51 -55 97 -55 102 0 4 -14 28 -31 53 -17 25 -46 77 -66 117 -19 40
-42 79 -50 89 -8 9 -15 22 -16 30 -2 7 -19 43 -40 80 -20 36 -37 71 -37 76 0
14 -115 237 -140 272 -11 15 -24 40 -30 54 -5 15 -24 47 -40 71 -17 24 -30 48
-30 53 0 5 -7 15 -15 22 -8 6 -14 15 -13 18 1 9 -14 45 -21 52 -3 3 -23 39
-45 80 -42 83 -60 114 -126 216 -24 38 -45 73 -45 77 0 4 -6 11 -13 16 -8 5
-14 12 -14 17 0 14 -80 177 -96 197 -9 9 -12 20 -9 23 3 4 -5 21 -18 39 -14
17 -25 35 -25 38 0 6 -36 88 -86 193 -39 82 -35 91 62 169 47 38 88 74 92 80
4 6 36 33 72 60 36 28 70 55 75 61 13 15 113 84 121 84 4 0 12 6 18 13 6 8 63
53 126 100 129 96 150 115 166 142 18 33 50 30 70 -4 10 -17 22 -31 27 -31 4
0 6 -4 3 -9 -3 -4 3 -19 14 -31 11 -13 20 -27 20 -32 0 -5 11 -24 25 -42 14
-18 25 -40 25 -49 0 -8 3 -17 8 -19 12 -5 55 -98 49 -105 -4 -3 -22 6 -41 21
-19 14 -42 26 -52 26 -21 0 -43 -28 -44 -56 0 -26 59 -103 79 -103 18 -1 157
-143 165 -169 4 -11 20 -25 36 -32 25 -10 34 -10 54 3 23 16 24 19 20 132 -1
64 -8 122 -13 129 -6 7 -8 15 -6 18 3 3 6 26 7 52 0 25 4 49 9 52 5 3 9 16 9
29 0 28 -30 52 -77 61 -26 5 -34 2 -47 -19 -14 -20 -15 -29 -5 -51 13 -28 8
-43 -11 -31 -6 4 -27 41 -47 83 -45 94 -101 190 -125 216 -38 41 -34 55 33
118 35 32 77 69 92 81 15 12 47 40 71 62 24 22 53 47 64 55 11 8 57 42 101 74
45 32 81 62 81 67 0 8 182 164 245 211 21 15 42 25 46 22 5 -3 28 -44 52 -92z
m1039 -2909 c17 -38 32 -73 33 -79 0 -6 5 -18 12 -25 24 -30 50 -86 57 -120 3
-21 15 -48 25 -60 10 -13 24 -41 32 -62 7 -21 20 -46 29 -55 9 -9 25 -33 36
-52 10 -19 25 -41 33 -49 12 -13 10 -16 -15 -23 -16 -5 -65 -13 -109 -19 -44
-5 -93 -14 -110 -19 -16 -5 -48 -11 -70 -15 -22 -3 -54 -8 -71 -11 -17 -3 -62
-7 -100 -9 -38 -1 -118 -10 -179 -18 -103 -15 -165 -22 -260 -31 -123 -12
-238 -27 -248 -33 -5 -3 -69 -10 -141 -14 -72 -4 -171 -15 -220 -23 -49 -9
-92 -14 -94 -11 -7 6 -12 3 78 49 150 77 219 115 230 126 9 9 117 60 127 60 6
0 13 6 16 13 2 7 22 21 43 32 22 11 89 51 149 90 147 93 146 93 181 109 17 7
43 25 58 39 57 51 68 59 100 72 18 8 38 21 46 29 7 9 18 16 25 16 7 0 37 18
66 40 30 22 57 40 61 40 13 0 108 63 108 71 0 5 9 9 20 9 15 0 28 -17 52 -67z"/>
</g>
</svg>
