<?xml version="1.0" standalone="no"?>
<!DOCTYPE svg PUBLIC "-//W3C//DTD SVG 20010904//EN"
 "http://www.w3.org/TR/2001/REC-SVG-20010904/DTD/svg10.dtd">
<svg version="1.0" xmlns="http://www.w3.org/2000/svg"
 width="425.000000pt" height="419.000000pt" viewBox="0 0 425.000000 419.000000"
 preserveAspectRatio="xMidYMid meet">
<metadata>
Created by potrace 1.16, written by Peter Selinger 2001-2019
</metadata>
<g transform="translate(0.000000,419.000000) scale(0.100000,-0.100000)"
fill="#000000" stroke="none">
<path d="M1820 3920 c-14 -4 -43 -9 -65 -9 -22 -1 -71 -10 -110 -21 -131 -36
-190 -54 -195 -59 -3 -3 -30 -19 -60 -35 -30 -15 -100 -52 -155 -82 -55 -30
-107 -57 -116 -61 -36 -17 -168 -138 -204 -188 -11 -15 -26 -33 -32 -40 -7 -8
-13 -18 -13 -23 0 -6 -3 -12 -7 -14 -44 -19 -161 -254 -237 -473 -13 -38 -41
-118 -62 -176 l-37 -107 -90 -11 c-50 -7 -103 -19 -118 -28 -59 -35 -137 -153
-158 -238 -7 -27 -17 -55 -22 -62 -16 -18 6 -153 32 -205 5 -10 9 -23 9 -29 0
-6 9 -23 20 -39 11 -15 17 -30 13 -34 -3 -3 1 -6 9 -6 9 0 21 -14 27 -30 5
-17 30 -56 54 -88 24 -31 47 -66 51 -78 3 -11 25 -36 47 -55 39 -32 89 -99 93
-123 3 -20 20 -41 46 -57 15 -10 30 -34 38 -60 8 -24 29 -78 49 -119 19 -41
46 -109 60 -150 14 -41 36 -93 49 -116 13 -22 24 -46 24 -52 0 -11 18 -36 48
-67 6 -8 12 -18 12 -24 0 -6 4 -11 8 -11 4 0 16 -15 27 -33 26 -44 292 -307
310 -307 8 0 15 -4 15 -9 0 -5 14 -14 30 -21 17 -7 30 -16 30 -19 0 -8 45 -33
190 -106 106 -54 186 -85 218 -85 9 0 37 -7 61 -16 79 -27 203 -46 271 -41 74
5 138 23 260 74 47 19 91 35 98 36 6 0 12 4 12 7 0 4 12 14 28 22 118 60 161
94 280 221 29 32 57 57 61 57 5 0 21 19 36 43 15 23 45 59 66 80 22 21 39 40
39 43 0 3 11 17 25 32 14 15 25 33 25 40 0 12 49 83 70 102 23 21 91 188 170
415 12 36 26 54 49 67 29 17 179 141 191 159 3 5 21 15 40 23 19 8 31 15 26
16 -11 0 56 60 67 60 4 0 19 24 33 53 14 28 29 59 34 67 21 34 62 134 67 166
3 19 9 34 12 34 9 0 8 228 -1 256 -5 16 -55 99 -75 124 -2 2 -32 7 -65 10 -48
5 -69 2 -97 -12 -19 -10 -41 -18 -47 -18 -7 0 -15 -6 -17 -12 -12 -30 -22 16
-25 114 -2 60 -15 163 -32 248 -16 80 -31 163 -35 186 -10 65 -81 241 -119
297 -102 148 -127 175 -236 255 -30 22 -63 47 -72 56 -10 9 -25 16 -33 16 -8
0 -15 5 -15 10 0 6 -8 14 -17 17 -20 7 -95 54 -103 64 -8 10 -54 34 -70 36
-143 19 -259 53 -322 95 -14 10 -33 16 -41 12 -8 -3 -21 1 -29 9 -21 21 -73
30 -158 28 -91 -3 -91 -3 -160 3 -30 2 -66 1 -80 -4z m87 -113 c8 -5 45 -6 90
-2 123 11 127 11 148 -2 11 -7 29 -13 40 -13 11 0 37 -9 58 -20 20 -11 46 -20
57 -20 11 0 20 -4 20 -8 0 -14 97 -42 176 -52 73 -9 151 -42 161 -66 3 -8 11
-14 19 -14 8 0 23 -9 34 -20 11 -11 34 -26 52 -34 18 -8 49 -28 68 -45 57 -50
64 -55 94 -71 28 -14 116 -121 116 -140 0 -6 4 -10 8 -10 13 0 72 -104 72
-127 0 -12 4 -24 9 -27 13 -8 59 -171 76 -271 38 -220 49 -398 34 -530 -4 -38
-10 -97 -14 -130 -7 -78 -20 -142 -45 -235 -11 -41 -22 -91 -24 -111 -2 -20
-12 -63 -22 -95 -10 -33 -18 -61 -19 -64 -3 -16 -28 -88 -35 -105 -5 -11 -16
-44 -24 -73 -8 -28 -22 -62 -30 -74 -9 -12 -16 -32 -16 -45 0 -12 -5 -25 -10
-28 -6 -4 -8 -11 -5 -16 4 -5 1 -9 -4 -9 -6 0 -11 -6 -11 -13 0 -33 -66 -177
-117 -255 -31 -48 -59 -89 -62 -92 -4 -3 -13 -18 -20 -33 -8 -15 -71 -83 -140
-150 -173 -169 -181 -178 -181 -188 0 -5 -9 -9 -19 -9 -11 0 -32 -11 -47 -25
-15 -14 -39 -28 -53 -32 -14 -3 -33 -11 -41 -18 -19 -16 -149 -75 -165 -75 -6
0 -25 -7 -41 -15 -60 -29 -337 -15 -388 20 -11 8 -31 15 -44 15 -21 0 -69 18
-102 39 -16 10 -124 61 -150 70 -24 9 -136 82 -191 124 -26 20 -51 37 -54 37
-14 0 -217 213 -268 281 -31 42 -57 79 -57 83 0 7 -35 88 -55 126 -7 14 -20
50 -30 80 -10 30 -24 64 -31 75 -8 11 -14 28 -14 38 0 10 -12 41 -26 69 -25
49 -29 62 -39 125 -3 23 -10 58 -14 71 -1 1 0 3 1 5 1 1 -5 13 -12 27 -7 13
-15 49 -18 80 -2 30 -7 62 -12 70 -8 18 -5 440 5 490 3 19 8 51 10 70 8 71 25
176 34 207 5 17 7 34 4 36 -2 3 5 26 16 51 52 114 59 133 66 166 4 19 11 41
15 50 20 43 40 90 55 135 27 78 124 233 200 321 6 7 17 20 26 30 29 35 94 89
134 114 22 13 49 32 59 42 11 10 25 18 32 18 14 0 116 57 124 70 9 13 84 48
130 60 25 6 54 17 65 25 18 11 78 25 125 30 9 0 21 5 29 9 7 5 41 11 75 13 33
3 63 7 64 9 5 4 34 -7 49 -19z m-1391 -1280 c3 -3 1 -30 -6 -59 -19 -85 -24
-261 -16 -540 2 -71 0 -128 -3 -128 -18 0 -91 94 -91 117 0 3 -13 18 -29 32
-41 36 -110 172 -130 256 l-17 70 29 72 c45 110 128 191 182 177 18 -4 26 -3
22 3 -7 11 48 11 59 0z m3009 -115 c6 -4 21 -24 33 -45 19 -34 22 -48 17 -116
-3 -42 -9 -90 -14 -106 -4 -17 -6 -35 -4 -42 2 -6 -1 -14 -6 -18 -6 -3 -11
-15 -11 -25 0 -11 -13 -41 -30 -67 -16 -26 -30 -52 -30 -58 0 -16 -78 -95
-127 -129 -23 -15 -58 -43 -77 -62 -34 -33 -56 -43 -56 -26 0 5 8 33 19 63 10
31 22 80 25 110 4 30 14 74 21 99 18 56 44 205 51 285 6 69 16 83 89 120 51
25 81 31 100 17z"/>
<path d="M1676 3015 c-15 -12 -17 -19 -8 -43 7 -21 7 -33 -1 -41 -8 -8 -8 -11
1 -11 16 0 7 -39 -25 -108 -28 -61 -48 -83 -67 -76 -10 4 -11 16 -6 46 7 36 5
164 -2 199 -4 19 -39 38 -57 32 -41 -14 -53 -70 -27 -121 14 -28 14 -31 -3
-102 -6 -25 -11 -59 -11 -75 0 -26 -6 -33 -33 -43 -18 -7 -36 -12 -40 -12 -12
0 -8 29 10 68 9 20 15 43 14 50 -1 6 2 12 8 12 5 0 7 9 4 20 -3 11 -10 20 -15
20 -5 0 -6 9 -3 20 4 12 1 27 -5 35 -6 8 -9 18 -6 23 2 4 -10 8 -29 9 -28 1
-35 -4 -46 -29 -9 -22 -9 -38 -1 -66 12 -42 -1 -110 -31 -155 -9 -15 -14 -27
-10 -27 5 0 1 -5 -7 -10 -12 -8 -13 -13 -3 -29 10 -15 9 -22 -5 -34 -9 -8 -27
-17 -39 -20 -21 -5 -22 -2 -18 42 10 97 14 187 9 202 -2 9 -16 21 -29 27 -41
19 -62 -10 -61 -84 1 -32 -5 -93 -13 -134 -7 -41 -13 -86 -13 -99 0 -13 -14
-37 -30 -55 -51 -53 -95 -110 -102 -132 -13 -41 46 -72 76 -40 11 11 16 11 33
0 15 -10 31 -11 62 -4 47 11 167 21 230 20 56 -1 209 18 253 31 66 20 136 69
148 103 23 64 -6 197 -53 246 -27 28 -27 34 4 135 12 37 21 73 21 80 0 8 5 26
12 42 29 72 -29 131 -86 88z m-35 -412 c29 -35 45 -91 40 -144 0 -10 -23 -25
-57 -38 -67 -25 -67 -25 -55 -3 17 32 16 98 -3 141 -11 22 -23 41 -28 41 -4 0
-8 5 -8 10 0 18 94 12 111 -7z m-307 -163 c-1 -28 -4 -53 -7 -56 -8 -8 -146
-8 -154 0 -8 8 42 53 68 61 11 4 19 11 19 16 0 5 9 9 19 9 11 0 23 5 26 10 16
26 30 7 29 -40z"/>
<path d="M2093 2530 c-12 -5 -24 -18 -28 -30 -6 -20 13 -80 26 -80 4 0 14 -11
23 -25 16 -24 16 -30 -9 -100 -19 -55 -23 -83 -18 -105 7 -27 10 -28 32 -17
15 7 31 32 43 65 22 58 48 80 70 58 8 -7 24 -16 36 -20 24 -8 41 -56 37 -100
-3 -25 -1 -27 28 -24 23 2 33 9 35 23 8 54 23 73 53 71 23 -2 33 -11 49 -41
11 -22 20 -53 20 -70 0 -42 11 -54 37 -44 21 8 34 50 38 125 2 40 12 54 36 54
29 0 68 -47 75 -89 5 -26 22 -35 48 -23 22 10 24 15 19 64 -2 29 -8 55 -14 56
-23 9 -5 44 39 77 50 39 64 61 56 92 -9 34 -40 45 -78 29 -18 -8 -37 -19 -40
-25 -4 -6 -17 -11 -29 -12 -12 0 -16 -3 -9 -6 17 -7 15 -23 -3 -23 -8 0 -15
-3 -15 -8 0 -9 -49 -31 -87 -39 -39 -8 -171 -8 -216 0 -39 7 -77 26 -77 39 0
5 -6 8 -12 8 -17 1 -58 35 -58 49 0 5 -8 15 -17 20 -10 6 -14 11 -10 11 4 0
-4 11 -19 25 -30 27 -30 28 -61 15z"/>
<path d="M1700 1670 c-38 -38 -22 -80 43 -108 59 -25 173 -5 187 32 22 60 22
66 0 66 -12 0 -19 4 -16 9 8 13 -26 19 -52 10 -12 -5 -22 -13 -22 -19 0 -17
-51 -11 -77 10 -14 11 -30 20 -34 20 -5 0 -18 -9 -29 -20z"/>
<path d="M2503 1628 c-16 -18 -47 -46 -67 -63 -20 -16 -58 -48 -84 -70 -110
-93 -200 -145 -253 -145 -12 0 -53 -11 -91 -25 -43 -15 -95 -26 -132 -27 -90
-2 -250 19 -315 42 -31 10 -75 24 -97 30 -36 9 -199 108 -214 129 -3 4 -20 14
-38 22 -17 8 -32 17 -32 21 0 5 -13 8 -30 8 -60 0 -77 -79 -32 -152 12 -19 22
-44 22 -55 0 -11 3 -23 7 -27 4 -3 8 -16 10 -27 2 -11 12 -37 23 -59 11 -22
20 -44 20 -50 0 -15 13 -30 100 -119 70 -71 179 -171 188 -171 2 0 20 -13 40
-29 48 -37 89 -50 187 -57 146 -10 216 -2 299 35 33 16 76 34 95 41 19 8 50
31 69 52 19 21 42 38 51 38 10 0 27 11 39 25 12 14 26 25 31 25 5 0 25 24 45
54 20 30 39 56 43 58 12 5 63 75 63 86 0 6 3 12 8 14 26 11 142 317 142 374 0
24 -14 38 -46 48 -15 5 -28 -2 -51 -26z m-59 -207 c3 -5 -1 -14 -9 -21 -8 -7
-15 -17 -15 -22 0 -24 -64 -138 -100 -178 -22 -24 -40 -48 -40 -52 0 -14 -77
-86 -99 -93 -12 -3 -21 -11 -21 -16 0 -5 -5 -9 -12 -9 -7 0 -24 -12 -39 -26
-86 -83 -210 -113 -380 -95 -110 12 -141 24 -181 70 -15 17 -46 40 -68 51 -23
11 -46 32 -52 45 -6 14 -19 27 -30 30 -23 8 -108 112 -108 133 0 8 -6 23 -14
31 -7 9 -18 34 -23 57 l-10 40 91 -46 c50 -26 107 -50 126 -54 19 -4 51 -13
70 -21 123 -47 347 -60 456 -26 69 21 82 24 161 40 23 4 62 21 88 37 26 16 61
36 79 45 17 9 40 26 50 38 11 12 25 21 31 21 7 0 15 7 19 15 6 17 22 20 30 6z"/>
</g>
</svg>
