<?xml version="1.0" standalone="no"?>
<!DOCTYPE svg PUBLIC "-//W3C//DTD SVG 20010904//EN"
 "http://www.w3.org/TR/2001/REC-SVG-20010904/DTD/svg10.dtd">
<svg version="1.0" xmlns="http://www.w3.org/2000/svg"
 width="477.000000pt" height="409.000000pt" viewBox="0 0 477.000000 409.000000"
 preserveAspectRatio="xMidYMid meet">
<metadata>
Created by potrace 1.16, written by Peter Selinger 2001-2019
</metadata>
<g transform="translate(0.000000,409.000000) scale(0.100000,-0.100000)"
fill="#000000" stroke="none">
<path d="M1220 4000 c0 -5 -12 -13 -27 -16 -16 -4 -39 -14 -53 -24 -14 -9 -41
-23 -60 -30 -19 -8 -37 -16 -40 -19 -10 -12 -76 -40 -125 -55 -38 -11 -67 -30
-124 -85 -40 -39 -78 -71 -82 -71 -15 0 -45 -35 -52 -59 -4 -15 4 -31 26 -55
72 -76 267 -335 267 -355 0 -5 6 -14 13 -18 7 -4 20 -19 28 -33 9 -14 30 -38
46 -55 17 -16 56 -68 88 -115 32 -47 82 -116 111 -155 29 -38 69 -91 88 -117
l35 -46 -35 -27 c-19 -15 -42 -34 -52 -44 -9 -9 -48 -37 -87 -61 -38 -24 -92
-59 -120 -77 -27 -19 -85 -57 -127 -85 -43 -28 -78 -55 -78 -60 0 -4 -6 -8
-13 -8 -10 0 -153 -102 -167 -120 -3 -3 -23 -17 -45 -30 -22 -13 -67 -46 -100
-72 -33 -26 -65 -48 -72 -48 -7 0 -13 -4 -13 -10 0 -5 -11 -15 -24 -22 -13 -7
-42 -29 -63 -48 -21 -19 -68 -59 -104 -88 -47 -38 -69 -63 -73 -83 -8 -40 0
-54 32 -57 23 -2 43 12 105 73 42 41 80 74 84 73 4 -2 18 6 30 17 13 11 39 34
59 50 20 17 42 36 49 43 8 6 19 12 25 12 7 0 35 19 63 43 29 23 64 49 79 56
15 8 36 21 46 30 35 32 98 78 130 96 17 11 32 23 32 27 0 4 6 8 13 8 7 0 22 8
33 18 10 10 42 31 69 46 28 16 52 32 55 36 10 12 99 70 109 70 5 0 16 6 23 13
7 7 36 27 64 45 28 18 64 44 80 57 40 34 66 32 89 -7 10 -18 24 -38 29 -44 39
-38 164 -212 172 -236 5 -17 -5 -32 -49 -72 -66 -61 -179 -148 -247 -191 -26
-16 -79 -53 -116 -82 -163 -124 -201 -151 -244 -174 -25 -13 -46 -27 -48 -31
-2 -5 -9 -8 -17 -8 -7 0 -17 -6 -24 -13 -6 -7 -51 -37 -100 -67 -50 -29 -99
-61 -110 -71 -11 -11 -23 -19 -26 -19 -3 0 -54 -39 -113 -86 -131 -105 -144
-127 -94 -156 33 -19 39 -17 93 33 54 50 280 214 346 251 102 58 127 74 147
91 11 9 23 17 27 17 3 0 24 14 45 31 22 17 49 35 62 40 13 5 20 13 17 19 -3 5
-1 10 4 10 11 0 39 21 78 58 13 12 29 22 34 22 10 0 68 37 79 50 3 3 23 17 45
30 22 13 49 32 60 42 34 30 62 53 91 74 23 16 50 38 115 91 13 11 23 3 70 -60
30 -39 57 -73 62 -75 4 -2 7 -8 7 -14 0 -6 15 -32 34 -57 18 -26 41 -64 51
-84 9 -20 21 -37 26 -37 5 0 9 -7 9 -15 0 -8 4 -15 10 -15 10 0 55 -80 52 -92
-1 -5 2 -8 6 -8 15 0 74 -93 63 -99 -13 -9 23 -41 45 -41 8 0 25 -5 36 -11 16
-9 23 -8 29 2 5 8 9 11 9 6 0 -4 14 -1 30 8 17 9 30 14 30 11 0 -2 21 1 48 8
26 7 85 13 132 15 49 1 124 13 179 27 51 13 106 24 123 24 16 0 34 5 41 10 7
6 35 31 62 56 28 25 60 49 73 54 13 6 20 14 17 20 -3 5 5 12 18 15 13 4 32 18
43 32 40 54 113 149 128 165 9 10 16 22 16 27 0 4 13 19 28 32 15 13 39 40 52
59 34 48 75 90 89 90 6 0 11 8 11 18 0 10 5 23 10 28 7 7 4 19 -10 37 -12 15
-18 31 -15 37 3 5 0 10 -7 10 -7 0 -21 10 -31 23 -53 67 -77 101 -77 111 0 6
-12 24 -26 39 -20 21 -24 34 -19 54 5 20 3 24 -9 20 -16 -6 -78 55 -119 118
-14 22 -56 74 -94 116 -37 42 -76 89 -85 105 -10 16 -37 52 -60 80 -24 28 -50
61 -58 74 -8 12 -21 29 -29 37 -18 19 -99 124 -137 179 -17 25 -48 63 -69 86
-20 23 -45 54 -53 68 -9 14 -19 27 -23 30 -3 3 -23 32 -45 64 -73 111 -82 122
-108 139 -14 9 -32 17 -41 17 -8 0 -15 6 -15 13 0 29 -47 59 -97 61 -49 3
-297 75 -343 100 -14 8 -45 17 -70 21 -25 4 -54 9 -65 12 -65 15 -112 23 -125
21 -8 -1 -24 3 -35 9 -11 6 -40 14 -64 18 -24 4 -59 14 -78 21 -40 17 -123 26
-123 14z m169 -131 c41 -12 100 -23 130 -25 31 -2 72 -7 91 -11 19 -4 40 -7
45 -8 20 -2 61 -18 120 -45 60 -27 81 -35 188 -65 31 -9 57 -18 57 -20 0 -2
-18 -14 -40 -26 -22 -13 -40 -26 -40 -31 0 -4 -7 -8 -15 -8 -8 0 -15 -4 -15
-10 0 -5 -5 -10 -11 -10 -6 0 -16 -6 -22 -12 -16 -17 -22 -78 -7 -78 6 0 8 -5
4 -12 -5 -8 -11 -6 -19 5 -7 10 -17 17 -22 17 -6 0 -40 14 -76 30 -37 17 -74
30 -84 30 -10 0 -35 6 -58 14 -22 8 -74 24 -115 36 -41 12 -102 32 -135 43
-33 12 -64 21 -69 19 -4 -1 -13 1 -20 6 -6 5 -36 17 -66 27 -30 10 -60 21 -65
26 -6 4 -30 11 -53 15 -23 4 -42 9 -42 13 0 3 21 17 48 31 26 13 63 34 83 46
59 37 86 37 208 3z m-392 -170 c23 -11 48 -19 56 -19 7 0 17 -3 21 -7 3 -4 12
-8 19 -9 96 -17 171 -40 272 -85 22 -10 85 -30 140 -44 55 -14 107 -28 115
-32 8 -3 21 -5 28 -4 6 1 12 -3 12 -9 0 -5 7 -10 16 -10 8 0 12 -4 9 -10 -3
-5 3 -10 14 -10 12 0 21 -3 21 -7 0 -5 16 -9 36 -11 23 -1 46 -11 59 -25 43
-44 185 -215 185 -222 0 -4 18 -34 40 -66 22 -32 40 -63 40 -69 0 -5 4 -10 9
-10 5 0 21 -20 35 -45 15 -25 31 -45 36 -45 6 0 10 -7 10 -15 0 -8 9 -20 20
-27 11 -7 20 -20 20 -29 0 -9 9 -24 19 -33 11 -10 25 -31 31 -47 7 -16 16 -29
20 -29 4 0 23 -24 43 -52 20 -29 55 -80 77 -113 23 -33 51 -70 63 -82 31 -31
47 -51 47 -58 0 -8 57 -81 96 -125 18 -19 51 -70 73 -112 l40 -77 -56 -43
c-54 -42 -137 -111 -300 -249 -44 -38 -85 -69 -91 -69 -5 0 -30 -18 -56 -41
-56 -50 -55 -50 -134 71 -30 47 -68 100 -84 118 -15 18 -28 39 -28 47 0 8 -3
15 -8 15 -6 0 -46 55 -87 118 -18 29 -24 37 -53 72 -16 19 -53 71 -82 115 -29
44 -64 92 -78 107 -25 27 -84 108 -166 228 -25 36 -61 82 -80 104 -20 21 -36
42 -36 47 0 5 -4 9 -10 9 -5 0 -10 7 -10 15 0 8 -4 15 -9 15 -5 0 -14 13 -21
29 -6 16 -22 39 -36 52 -13 12 -24 28 -24 36 0 7 -4 13 -10 13 -5 0 -10 6 -10
13 0 7 -9 22 -19 34 -11 11 -40 50 -65 86 -24 37 -59 80 -75 96 -17 17 -31 35
-31 41 0 5 -9 19 -19 29 -11 11 -41 50 -66 88 -79 116 -95 137 -115 154 -10 9
-17 19 -15 21 3 3 -9 20 -25 38 -17 19 -30 39 -30 45 0 12 44 55 95 92 32 24
43 23 112 -8z m1233 -101 c25 -24 61 -65 80 -93 18 -27 36 -52 39 -55 4 -3 19
-23 36 -45 37 -50 39 -53 70 -91 31 -40 32 -51 1 -31 -32 22 -118 17 -146 -8
-11 -10 -34 -18 -51 -18 -26 0 -33 -6 -51 -44 -16 -34 -18 -49 -11 -66 12 -26
33 -110 29 -115 -2 -1 -23 29 -47 69 -24 39 -56 85 -71 103 -48 56 -95 123
-112 157 -9 19 -34 53 -57 76 -22 24 -37 47 -34 53 4 6 10 8 15 5 5 -3 16 2
25 11 25 26 76 61 115 80 19 10 46 26 59 36 36 28 62 22 111 -24z m225 -436
c55 -53 144 -186 158 -239 9 -36 9 -49 -3 -71 -17 -29 -66 -44 -114 -35 -65
13 -158 146 -187 267 -12 48 -11 50 12 65 13 9 30 24 39 33 24 26 52 20 95
-20z m350 -312 c51 -69 68 -90 125 -150 19 -21 55 -72 80 -114 25 -41 51 -76
58 -76 6 0 12 -9 12 -20 0 -11 6 -20 13 -20 8 0 26 -24 41 -54 15 -30 36 -62
47 -71 25 -24 17 -33 -30 -33 -22 0 -50 -6 -63 -14 -13 -7 -25 -13 -28 -13
-21 -4 -50 -18 -50 -24 0 -4 -13 -8 -29 -9 -15 0 -43 -10 -62 -21 -19 -12 -43
-21 -54 -21 -12 0 -26 -5 -33 -12 -9 -9 -13 -7 -18 8 -4 10 -10 21 -13 24 -3
3 -13 17 -21 31 -44 75 -59 97 -105 153 -43 51 -102 128 -170 221 -8 11 -26
34 -40 52 l-26 32 55 -6 c64 -7 154 18 184 51 37 40 66 156 42 171 -5 3 -10
13 -10 21 0 17 17 -2 95 -106z m365 -640 c0 -3 -16 -23 -35 -45 -19 -22 -35
-43 -35 -47 0 -5 -7 -8 -15 -8 -8 0 -15 -5 -15 -11 0 -14 -90 -149 -99 -149
-4 0 -26 -17 -49 -37 -57 -51 -85 -73 -93 -73 -4 0 -10 -8 -13 -18 -6 -17 -18
-23 -121 -57 -27 -9 -66 -23 -85 -30 -45 -18 -230 -31 -230 -17 0 6 4 12 9 14
11 3 101 81 176 151 29 26 57 47 63 47 7 0 12 4 12 9 0 4 17 20 38 33 20 14
50 37 66 51 16 14 41 31 55 39 14 7 32 21 39 30 9 12 21 16 41 12 18 -4 33 0
44 10 8 9 19 16 23 16 4 0 15 6 23 14 9 8 27 17 41 19 28 4 63 18 70 27 16 19
90 36 90 20z"/>
<path d="M3147 1861 c-24 -42 -22 -52 24 -96 41 -40 73 -96 109 -188 l19 -48
-28 6 c-19 4 -33 0 -49 -15 -26 -24 -27 -33 -8 -53 11 -11 12 -17 3 -26 -8 -8
-6 -11 8 -11 11 0 31 -9 45 -20 14 -11 38 -20 53 -20 15 0 38 -6 50 -14 53
-35 129 -21 140 26 3 13 6 60 6 105 1 45 2 86 3 90 3 16 -26 63 -39 63 -7 0
-13 4 -13 9 0 18 -61 -21 -70 -45 -5 -13 -13 -24 -17 -24 -5 0 -27 42 -51 93
-43 92 -125 197 -154 197 -8 0 -21 -13 -31 -29z"/>
<path d="M3270 1285 c-36 -5 -79 -18 -97 -28 -18 -9 -38 -17 -46 -17 -8 0 -20
-7 -27 -15 -7 -8 -20 -15 -29 -15 -9 0 -31 -22 -49 -49 l-34 -49 16 -54 c16
-56 19 -58 134 -120 29 -15 60 -28 68 -28 8 0 22 -4 32 -9 9 -5 25 -12 34 -15
9 -3 16 -14 15 -24 -1 -17 -8 -19 -62 -16 -33 1 -121 -2 -196 -8 -99 -8 -142
-7 -157 1 -16 9 -24 8 -36 -5 -9 -8 -20 -13 -25 -10 -12 8 -55 -35 -72 -72 -7
-18 -17 -32 -20 -32 -3 0 -22 -24 -41 -52 -19 -29 -57 -78 -85 -108 -27 -30
-57 -66 -66 -80 -9 -13 -39 -47 -65 -75 -27 -27 -62 -68 -78 -90 -43 -59 -54
-72 -109 -130 -71 -74 -74 -80 -68 -106 17 -64 64 -52 128 31 22 29 56 69 75
89 20 20 66 74 104 121 109 137 129 161 165 199 19 20 63 74 98 121 36 47 72
86 81 87 163 15 256 18 378 11 l62 -3 5 -40 c3 -22 2 -41 -2 -43 -10 -3 -3
-41 11 -59 18 -23 111 -64 158 -70 44 -5 56 -2 113 32 52 30 66 44 71 68 6 32
-7 57 -30 57 -19 0 -18 15 2 31 18 15 73 16 359 5 99 -3 192 -6 208 -7 15 0
27 -4 27 -10 0 -6 8 -6 21 1 11 7 22 10 25 8 6 -7 -19 -82 -36 -108 -23 -34
-50 -95 -50 -112 0 -7 -9 -24 -20 -38 -11 -14 -20 -31 -20 -38 0 -8 -9 -27
-21 -43 -11 -16 -47 -81 -79 -145 -58 -113 -59 -117 -46 -149 10 -24 20 -33
35 -32 12 1 21 4 21 8 0 4 9 9 20 12 11 3 25 18 30 34 11 29 33 78 75 168 13
28 27 64 31 80 4 16 16 38 27 50 10 11 28 40 39 65 11 25 29 61 39 81 10 20
19 46 19 57 0 11 6 22 14 25 15 6 50 112 41 126 -3 5 0 11 7 13 7 3 9 14 4 31
-3 15 -11 25 -16 22 -5 -3 -11 -1 -14 4 -4 5 -27 4 -57 -4 -49 -13 -57 -13
-109 -1 -29 7 -98 18 -120 18 -8 0 -40 -4 -70 -9 -31 -5 -82 -8 -115 -5 -33 2
-113 4 -177 4 l-118 1 0 28 c0 23 5 29 21 29 25 0 72 37 117 92 28 36 32 48
32 102 0 64 -9 84 -57 132 -17 17 -44 29 -82 36 -31 5 -79 19 -108 30 -61 23
-161 28 -253 13z m200 -95 c11 -6 20 -8 20 -4 0 3 11 -1 25 -10 13 -9 36 -16
51 -16 32 0 89 -33 99 -58 17 -40 12 -62 -20 -99 l-33 -38 -113 0 c-110 0
-181 11 -280 41 -54 17 -122 75 -117 101 4 22 116 80 178 92 54 11 163 6 190
-9z m25 -330 c3 -5 6 -46 6 -92 1 -102 6 -126 27 -131 12 -3 8 -6 -11 -12 -18
-5 -44 -3 -69 6 -33 11 -38 16 -34 35 3 12 1 35 -4 51 -6 16 -12 57 -13 91
l-2 62 48 -2 c26 0 50 -4 52 -8z"/>
</g>
</svg>
