<?xml version="1.0" standalone="no"?>
<!DOCTYPE svg PUBLIC "-//W3C//DTD SVG 20010904//EN"
 "http://www.w3.org/TR/2001/REC-SVG-20010904/DTD/svg10.dtd">
<svg version="1.0" xmlns="http://www.w3.org/2000/svg"
 width="519.000000pt" height="431.000000pt" viewBox="0 0 519.000000 431.000000"
 preserveAspectRatio="xMidYMid meet">
<metadata>
Created by potrace 1.16, written by Peter Selinger 2001-2019
</metadata>
<g transform="translate(0.000000,431.000000) scale(0.100000,-0.100000)"
fill="#000000" stroke="none">
<path d="M1911 4198 c-43 -21 -136 -111 -173 -165 -35 -53 -78 -152 -114 -260
-32 -100 -35 -114 -28 -183 4 -41 8 -84 9 -95 1 -11 7 -30 13 -42 7 -12 12
-29 12 -38 0 -9 11 -31 25 -49 27 -35 24 -44 -20 -60 -16 -6 -17 -9 -5 -17 11
-8 12 -12 3 -16 -7 -2 -13 -10 -13 -16 0 -30 -80 -167 -98 -167 -8 0 -10 -8
-6 -25 4 -15 2 -25 -5 -25 -6 0 -11 4 -11 8 0 10 -100 8 -210 -3 -85 -8 -144
-31 -136 -51 5 -14 -30 -84 -42 -84 -11 0 -75 -62 -107 -104 -55 -73 -87 -106
-116 -123 -16 -10 -29 -21 -29 -25 0 -8 -41 -57 -74 -89 -15 -14 -18 -27 -13
-61 10 -73 27 -171 37 -213 15 -61 19 -154 8 -193 -16 -56 20 -113 65 -105 45
9 60 45 52 127 -14 160 -17 183 -30 229 -8 26 -17 73 -20 105 -6 55 -5 58 32
101 21 25 60 65 87 90 55 53 63 61 112 119 37 43 61 55 49 25 -10 -26 -22 -99
-30 -173 -3 -36 -8 -76 -10 -90 -2 -14 -6 -41 -9 -60 -2 -19 -12 -62 -21 -95
-9 -33 -16 -81 -16 -108 0 -26 -6 -62 -14 -81 -8 -18 -12 -36 -9 -38 2 -3 0
-17 -6 -32 -5 -15 -12 -42 -14 -59 -2 -18 -16 -78 -31 -134 -35 -135 -34 -181
2 -265 17 -38 33 -65 36 -61 4 3 7 -1 7 -9 0 -9 7 -21 15 -28 8 -7 12 -16 10
-21 -3 -4 1 -24 9 -43 8 -19 11 -37 8 -41 -4 -3 -2 -9 4 -13 18 -12 60 -105
62 -138 l2 -31 -117 -2 c-65 -1 -131 -4 -148 -6 -16 -3 -66 -8 -110 -10 -87
-6 -102 -8 -125 -18 -25 -11 -99 -18 -206 -22 -111 -3 -133 -10 -154 -49 -21
-41 -1 -76 45 -76 19 0 35 3 35 8 0 4 42 7 93 7 50 0 110 6 132 13 22 7 56 12
75 11 20 -2 42 1 49 6 40 24 409 37 436 15 9 -8 14 -7 18 3 5 14 7 14 232 2
184 -9 262 -17 298 -31 20 -8 46 -14 57 -14 12 0 26 -13 36 -32 10 -18 24 -38
32 -44 20 -14 28 -120 23 -294 -2 -36 0 -99 3 -140 4 -41 7 -114 9 -162 2 -80
0 -88 -22 -107 -14 -12 -34 -23 -45 -26 -176 -37 -213 -38 -242 -11 -12 11
-24 30 -26 41 -6 40 -66 100 -126 127 -47 21 -143 31 -208 22 -36 -5 -45 -12
-60 -42 -11 -21 -23 -40 -29 -44 -5 -4 -7 -8 -2 -8 4 0 1 -13 -7 -29 -9 -16
-12 -31 -9 -35 4 -3 -3 -6 -15 -6 -11 0 -23 -4 -27 -9 -7 -12 -277 -1 -342 13
-17 4 -50 2 -73 -4 -23 -6 -107 -13 -187 -14 -138 -3 -146 -5 -168 -27 -20
-22 -21 -26 -8 -51 7 -15 25 -31 39 -34 30 -8 187 2 287 17 38 6 79 8 90 4 12
-3 107 -8 211 -11 l190 -5 14 -29 c15 -30 42 -62 80 -92 25 -20 97 -39 118
-31 8 3 14 0 14 -6 0 -24 118 9 185 51 11 7 22 14 24 16 2 1 5 12 6 25 2 19 8
22 51 23 27 1 51 2 54 3 3 2 14 4 25 6 64 11 136 31 167 46 10 5 23 9 29 9 6
0 26 7 44 16 33 15 75 83 89 145 6 29 46 52 67 39 8 -6 16 -4 21 3 6 9 8 9 8
0 0 -8 6 -8 25 0 30 15 39 50 26 108 -18 78 -16 84 37 104 26 10 55 25 65 33
10 9 23 17 30 18 7 2 22 6 33 9 17 5 23 2 27 -17 9 -36 31 -219 29 -248 0 -14
-1 -37 -2 -53 -2 -47 9 -65 45 -71 19 -4 37 -7 40 -7 2 0 24 -7 47 -15 24 -9
55 -16 71 -16 17 1 27 -5 27 -14 0 -8 4 -13 9 -9 5 3 12 1 16 -5 9 -15 48 -12
71 5 10 8 27 15 38 15 16 0 17 5 12 32 -7 38 -42 74 -71 75 -11 0 -40 7 -65
16 -25 9 -63 21 -86 26 l-41 11 -7 80 c-8 101 -33 267 -42 281 -3 6 10 24 30
41 20 16 36 34 36 40 0 5 13 22 28 36 36 35 162 293 162 333 0 11 9 39 20 61
11 23 20 50 20 60 0 9 9 33 20 53 11 20 20 42 20 50 0 8 4 15 9 15 5 0 15 24
21 53 7 28 19 61 26 72 8 11 14 29 14 40 0 11 6 32 14 46 7 14 16 39 20 55 4
16 22 50 39 76 34 50 30 49 112 29 45 -11 118 -5 123 9 2 6 10 10 18 10 8 0
14 5 14 10 0 18 28 11 54 -14 15 -13 26 -26 26 -30 0 -4 12 -18 28 -31 15 -12
36 -40 47 -61 11 -21 26 -45 33 -54 57 -67 88 -112 107 -155 13 -28 30 -57 39
-64 9 -7 16 -19 16 -25 0 -6 10 -22 23 -36 12 -14 36 -45 53 -70 77 -115 94
-141 94 -146 0 -7 89 -144 105 -160 50 -54 152 -198 177 -250 12 -24 26 -44
31 -44 14 0 36 -32 37 -52 0 -9 5 -18 11 -20 5 -2 11 -11 13 -20 1 -9 10 -26
19 -36 17 -18 16 -20 -23 -46 -22 -14 -40 -30 -40 -35 0 -5 -10 -11 -23 -15
-12 -3 -32 -14 -44 -25 -23 -22 -81 -58 -150 -93 -26 -13 -48 -34 -57 -52 -16
-35 -14 -155 3 -198 9 -25 16 -28 53 -28 24 0 62 9 84 19 50 23 85 31 142 33
23 1 42 5 42 10 0 4 11 8 24 8 22 0 71 13 111 30 11 5 49 18 85 30 36 12 70
25 75 30 6 4 29 11 53 15 23 4 66 16 95 27 52 20 104 35 142 43 41 9 121 39
136 52 8 7 19 13 23 13 4 0 28 10 54 22 26 13 52 23 57 23 6 1 25 9 43 18 24
13 32 14 32 5 1 -7 7 -2 15 12 8 14 15 21 15 15 1 -24 20 23 20 50 0 23 -11
40 -47 72 -26 24 -55 43 -64 43 -9 0 -24 9 -34 20 -9 10 -20 19 -24 18 -3 -1
-19 5 -36 12 -16 7 -75 17 -130 22 -55 6 -104 14 -109 19 -15 14 -52 11 -121
-12 l-65 -21 -39 39 c-22 21 -65 50 -95 63 -34 15 -56 31 -56 41 0 9 -9 24
-20 34 -11 10 -20 22 -20 27 0 5 -11 21 -25 36 -14 15 -34 36 -44 47 -10 11
-35 52 -56 90 -21 39 -41 72 -44 75 -4 3 -13 21 -21 40 -8 19 -16 37 -20 40
-11 10 -59 88 -79 131 -12 24 -31 58 -41 74 -11 17 -28 47 -38 67 -10 21 -30
46 -43 57 -14 11 -42 48 -64 83 -21 35 -46 72 -56 83 -19 22 -35 49 -103 172
-43 77 -133 183 -156 183 -5 0 -10 5 -10 10 0 6 -10 15 -22 20 -13 6 -36 18
-53 28 -16 10 -40 16 -53 14 -12 -2 -22 -1 -20 4 3 14 -13 54 -22 54 -5 0 -11
8 -14 18 -11 33 -71 87 -111 100 -52 17 -163 21 -195 8 -14 -5 -33 -16 -42
-24 -16 -13 -18 -13 -18 1 0 10 -6 17 -14 17 -8 0 -16 6 -19 14 -4 11 -14 12
-45 5 -58 -13 -87 -13 -197 -1 -55 6 -131 14 -170 17 -115 9 -123 13 -150 78
-12 32 -26 69 -29 83 -10 38 -87 217 -101 234 -7 8 -19 34 -26 58 -7 23 -16
42 -20 42 -4 0 -10 8 -13 18 -3 10 -25 39 -49 64 l-42 46 -85 0 c-147 1 -250
4 -250 9 0 2 16 38 37 81 43 91 82 154 93 147 8 -5 87 -15 130 -17 78 -3 195
34 260 81 39 28 54 45 92 106 7 11 25 39 40 62 92 144 112 357 48 498 -11 24
-20 49 -20 54 0 6 -4 11 -8 11 -5 0 -23 20 -40 44 -40 55 -80 76 -157 83 -33
3 -70 12 -82 19 -31 20 -61 17 -112 -8z m29 -107 c0 -14 31 -18 62 -10 15 4
30 4 32 0 3 -3 22 -6 44 -4 31 1 47 -4 67 -23 14 -13 30 -24 34 -24 12 0 32
-26 35 -43 1 -8 8 -22 15 -31 7 -9 10 -16 6 -16 -5 0 0 -9 10 -20 10 -11 14
-20 9 -20 -5 0 -4 -4 3 -8 6 -4 14 -32 16 -62 7 -94 -44 -235 -124 -345 -57
-79 -58 -79 -185 -115 -23 -7 -61 -10 -85 -7 -24 3 -52 6 -61 6 -26 1 -77 50
-94 90 -40 93 -29 286 22 398 54 118 194 287 194 234z m-390 -1161 c58 -7 150
-14 205 -16 55 -1 103 -3 107 -3 10 -1 -6 -155 -25 -246 -6 -25 -15 -116 -23
-225 -3 -47 -8 -88 -10 -91 -2 -3 -6 -35 -9 -70 -3 -35 -9 -77 -14 -94 -5 -16
-13 -57 -17 -90 -8 -61 -11 -76 -13 -85 -1 -3 -4 -30 -6 -61 -2 -30 -13 -82
-23 -115 -10 -32 -17 -72 -15 -87 1 -21 -4 -31 -23 -39 -16 -7 -28 -8 -32 -2
-4 5 -51 10 -105 11 -54 2 -119 9 -145 17 -26 8 -76 22 -112 32 -36 9 -69 20
-75 23 -5 3 -26 6 -45 6 -92 3 -92 2 -64 109 33 120 55 233 69 341 7 61 19
128 25 150 20 70 42 198 45 260 4 89 33 255 48 270 25 24 89 25 257 5z m430
-102 c0 -7 12 -35 26 -63 50 -95 74 -145 74 -154 0 -5 4 -11 9 -13 5 -1 11
-16 14 -33 6 -37 34 -114 46 -129 6 -6 12 -23 14 -36 9 -55 29 -84 62 -87 60
-6 213 -25 235 -29 36 -7 73 -11 185 -19 55 -3 106 -11 112 -17 9 -7 13 -7 13
2 0 8 3 10 7 7 3 -4 -1 -15 -9 -24 -14 -16 -28 -59 -29 -88 -1 -5 4 -24 9 -42
9 -29 7 -37 -29 -84 -22 -29 -45 -57 -52 -61 -6 -4 -9 -8 -5 -8 4 0 -6 -26
-22 -58 -15 -31 -31 -75 -35 -97 -4 -22 -13 -50 -21 -62 -7 -11 -15 -32 -18
-45 -4 -24 -18 -62 -41 -113 -7 -16 -15 -39 -18 -50 -12 -44 -106 -288 -114
-294 -4 -3 -9 -18 -10 -33 -2 -27 -32 -82 -40 -74 -5 4 -21 65 -27 101 -8 47
-52 118 -68 109 -4 -3 -8 0 -8 5 0 6 -7 11 -15 11 -9 0 -27 11 -41 25 -14 14
-31 25 -38 25 -8 0 -28 14 -46 30 -18 17 -36 30 -41 30 -10 0 -118 100 -180
168 -8 9 -28 27 -43 40 -17 15 -25 29 -22 40 3 10 8 40 11 67 3 28 17 131 32
230 14 99 27 189 28 201 1 11 4 24 7 30 3 5 4 16 3 25 -2 8 4 49 12 90 8 41
16 97 18 124 6 81 16 188 21 220 8 57 15 110 15 128 0 19 19 24 19 5z m1058
-568 c2 -5 8 -8 13 -4 5 3 9 0 9 -6 0 -6 6 -10 13 -8 13 3 57 -31 57 -45 0 -5
9 -20 20 -34 12 -15 18 -34 15 -47 -3 -11 -7 -35 -8 -52 -5 -47 -42 -102 -73
-110 -28 -7 -114 27 -114 46 0 5 -13 16 -30 25 -24 13 -30 22 -30 50 0 22 -7
39 -20 48 -43 30 -17 116 44 141 34 14 99 12 104 -4z m294 -222 c67 -53 115
-110 140 -163 13 -27 26 -51 31 -53 4 -2 7 -10 7 -18 0 -8 3 -14 8 -14 4 0 13
-13 20 -28 6 -16 20 -37 30 -48 18 -22 33 -42 60 -88 9 -16 42 -63 73 -105 31
-42 72 -106 92 -143 42 -79 119 -211 127 -218 3 -3 12 -20 20 -38 7 -19 18
-39 25 -45 6 -7 25 -37 43 -68 18 -31 39 -62 47 -69 8 -7 15 -19 15 -26 0 -8
4 -14 9 -14 15 0 22 -33 9 -42 -19 -12 -28 -10 -28 6 0 8 -4 16 -8 18 -6 2
-33 34 -115 138 -7 8 -29 36 -50 61 -20 25 -37 51 -37 56 0 6 -6 13 -13 16 -7
2 -24 27 -37 53 -14 27 -28 51 -32 52 -5 2 -8 10 -8 18 0 8 -4 14 -10 14 -5 0
-17 16 -26 36 -10 20 -28 47 -41 60 -13 13 -23 30 -23 39 0 8 -4 15 -9 15 -5
0 -13 10 -17 22 -3 12 -15 31 -26 42 -11 12 -35 49 -55 84 -19 34 -40 68 -47
75 -6 7 -40 56 -75 110 -35 53 -67 97 -71 97 -5 0 -22 22 -40 50 -17 27 -41
52 -52 56 -15 4 -18 11 -13 27 4 12 7 32 7 45 0 31 22 28 70 -10z m-502 -78
c0 -5 5 -9 11 -7 23 5 18 -20 -15 -70 -19 -29 -49 -96 -67 -150 -17 -54 -40
-116 -50 -138 -10 -22 -24 -61 -31 -87 -6 -27 -16 -48 -21 -48 -5 0 -7 -6 -4
-14 3 -8 -3 -24 -14 -37 -10 -12 -19 -30 -19 -39 0 -10 -7 -33 -15 -53 -8 -19
-12 -37 -9 -39 2 -3 -11 -36 -29 -74 -19 -38 -48 -99 -65 -136 -36 -79 -78
-138 -99 -138 -8 0 -12 -4 -9 -8 11 -17 -139 -143 -160 -135 -8 3 -14 1 -14
-5 0 -9 -69 -42 -88 -42 -5 0 -9 22 -11 50 -2 47 0 50 26 56 97 21 221 118
260 202 9 20 27 48 40 61 13 13 23 31 23 40 0 24 33 111 42 111 4 0 8 6 8 14
0 8 9 36 21 63 12 26 23 62 26 78 2 17 10 39 17 50 8 11 28 67 46 125 17 58
38 117 46 132 8 14 14 32 14 40 1 20 62 132 94 172 29 36 46 45 46 26z m-1623
-292 c19 -1 36 -5 39 -10 3 -4 16 -8 30 -8 14 0 33 -4 42 -9 24 -13 73 -21
182 -31 120 -10 178 -18 190 -25 6 -4 10 -2 10 2 0 5 15 7 33 5 23 -3 39 -13
52 -33 11 -16 26 -29 33 -29 6 0 12 -7 12 -15 0 -8 7 -15 15 -15 8 0 15 -4 15
-8 0 -5 18 -21 40 -38 22 -16 40 -35 40 -41 0 -7 5 -13 10 -13 6 0 21 -10 34
-22 13 -13 30 -24 37 -26 23 -6 79 -43 79 -53 0 -5 6 -9 13 -9 8 0 19 -11 25
-25 6 -14 18 -25 25 -25 30 0 49 -36 62 -120 1 -8 5 -22 8 -30 3 -8 5 -22 5
-30 -1 -8 2 -25 6 -37 5 -15 3 -23 -4 -23 -6 0 -19 -8 -30 -18 -19 -18 -88
-47 -95 -40 -2 2 -5 15 -7 30 -6 46 -22 55 -87 50 -66 -5 -64 -8 -75 76 -2 19
-11 39 -18 45 -8 7 -22 24 -31 39 -14 23 -66 46 -89 40 -5 -1 -8 2 -8 7 0 12
-46 24 -100 26 -72 3 -270 15 -333 20 -59 5 -92 24 -85 47 3 7 -4 19 -14 28
-10 8 -19 24 -21 35 -2 11 -10 34 -16 50 -7 17 -23 58 -37 93 -13 35 -31 77
-40 95 -37 70 -36 67 -7 56 14 -5 41 -10 60 -11z m801 -804 c2 -10 5 -68 7
-129 1 -60 6 -124 9 -142 7 -34 -5 -51 -22 -30 -5 6 -12 30 -16 52 -10 70 -19
244 -12 261 8 20 28 14 34 -12z m2197 -120 c9 3 26 -1 39 -9 12 -8 25 -13 28
-10 3 3 11 -1 18 -9 15 -19 0 -36 -49 -53 -27 -10 -37 -10 -42 -1 -4 7 -5 16
-2 22 4 5 -1 7 -10 3 -13 -5 -19 2 -25 26 -11 38 -5 52 14 36 7 -6 21 -9 29
-5z m435 -99 c78 -9 170 -29 170 -35 0 -4 16 -11 35 -14 19 -4 37 -11 40 -16
6 -10 -94 -63 -140 -74 -16 -4 -43 -14 -60 -21 -42 -18 -187 -68 -205 -70 -8
-1 -26 -6 -40 -12 -14 -6 -52 -16 -85 -24 -33 -7 -69 -18 -80 -26 -11 -7 -28
-13 -37 -13 -10 0 -26 -4 -36 -9 -46 -24 -233 -70 -309 -77 -31 -2 -32 -1 -29
28 4 30 19 48 43 48 6 0 13 3 15 8 5 12 69 54 75 48 3 -2 16 8 30 25 14 16 29
29 35 29 5 0 21 9 35 20 14 11 32 20 39 20 7 0 32 13 56 29 24 16 54 32 68 36
14 4 41 18 60 30 19 12 53 28 75 35 22 7 54 19 70 25 62 26 52 25 175 10z
m-3258 -285 c49 -29 69 -65 64 -109 -3 -22 0 -41 5 -43 16 -5 -14 -38 -41 -44
-78 -20 -116 -16 -168 16 l-51 31 5 55 c2 30 8 64 14 74 6 11 8 20 4 20 -3 0
-1 7 6 15 16 19 123 9 162 -15z"/>
</g>
</svg>
