<?xml version="1.0" standalone="no"?>
<!DOCTYPE svg PUBLIC "-//W3C//DTD SVG 20010904//EN"
 "http://www.w3.org/TR/2001/REC-SVG-20010904/DTD/svg10.dtd">
<svg version="1.0" xmlns="http://www.w3.org/2000/svg"
 width="569.000000pt" height="467.000000pt" viewBox="0 0 569.000000 467.000000"
 preserveAspectRatio="xMidYMid meet">
<metadata>
Created by potrace 1.16, written by Peter Selinger 2001-2019
</metadata>
<g transform="translate(0.000000,467.000000) scale(0.100000,-0.100000)"
fill="#000000" stroke="none">
<path d="M1455 4476 c-19 -14 -28 -53 -15 -71 3 -5 13 -26 20 -45 8 -19 29
-56 47 -81 33 -46 82 -155 109 -242 8 -26 23 -62 33 -80 17 -28 24 -71 36
-212 2 -22 7 -68 11 -101 9 -79 -2 -145 -26 -172 -11 -12 -20 -25 -20 -29 0
-11 -40 -36 -47 -29 -3 2 -16 0 -30 -5 -19 -7 -32 -6 -49 6 -13 8 -35 15 -49
15 -24 0 -25 2 -24 53 2 66 -7 106 -37 162 -13 25 -23 56 -22 69 2 25 -17 70
-39 94 -7 7 -13 20 -13 29 0 8 -6 29 -13 46 -8 18 -22 57 -32 87 -10 30 -27
74 -37 96 -11 23 -20 51 -21 63 -3 46 -69 36 -84 -13 -9 -28 -7 -36 8 -47 10
-7 16 -16 13 -21 -3 -4 -2 -8 3 -8 4 0 16 -20 26 -45 11 -25 23 -45 28 -45 5
0 9 -10 9 -22 0 -11 12 -46 26 -77 55 -120 62 -137 69 -176 4 -22 10 -44 14
-50 18 -27 29 -88 29 -173 1 -73 -2 -94 -14 -99 -8 -3 -13 -11 -12 -18 2 -7
-14 -25 -35 -39 -39 -27 -81 -34 -92 -16 -9 15 -31 12 -48 -5 -22 -21 -7 -67
27 -83 23 -12 35 -11 84 4 31 10 64 23 72 30 61 52 79 73 85 97 6 22 10 25 21
16 22 -18 141 -21 178 -4 52 23 114 93 108 122 -2 7 2 22 8 33 l11 21 42 -23
c23 -13 48 -29 56 -36 8 -8 47 -29 88 -48 41 -20 96 -51 122 -70 27 -19 53
-34 58 -34 5 0 27 -17 49 -39 21 -21 50 -41 64 -44 14 -3 34 -21 44 -39 11
-18 24 -37 30 -41 7 -6 5 -7 -5 -4 -11 4 -25 -9 -44 -39 -15 -24 -32 -44 -36
-44 -5 0 -9 -7 -9 -15 0 -8 -20 -46 -44 -83 -24 -37 -52 -92 -61 -122 -20 -61
-50 -146 -71 -200 -8 -19 -19 -66 -25 -105 -5 -38 -12 -83 -14 -98 -3 -15 -9
-36 -14 -45 -12 -22 -22 -90 -26 -162 -1 -30 -8 -87 -15 -127 -12 -66 -16 -73
-44 -85 -17 -7 -47 -26 -66 -44 -19 -17 -69 -50 -110 -74 -41 -24 -85 -52 -97
-63 -12 -11 -37 -21 -55 -23 -34 -4 -65 -14 -133 -44 -22 -10 -51 -21 -63 -25
-26 -8 -214 -114 -222 -125 -5 -7 -60 -24 -71 -22 -3 0 -29 -17 -57 -39 -29
-21 -55 -39 -58 -39 -4 0 -21 -12 -40 -27 -18 -16 -45 -37 -59 -48 -15 -11
-32 -25 -38 -30 -19 -17 -87 -57 -87 -52 0 6 -46 -32 -104 -86 -23 -21 -53
-45 -67 -54 -29 -17 -99 -117 -99 -140 0 -7 -6 -24 -14 -36 -15 -22 -29 -70
-49 -165 -8 -39 -7 -75 2 -140 6 -48 13 -101 15 -118 4 -29 22 -73 35 -84 3
-3 22 -25 41 -50 19 -25 44 -52 55 -61 11 -10 40 -35 64 -58 51 -48 105 -77
157 -87 21 -4 45 -13 52 -21 7 -7 20 -13 28 -13 8 0 25 -6 37 -14 12 -8 46
-19 76 -25 30 -6 59 -15 65 -20 6 -5 37 -11 69 -15 32 -3 72 -13 89 -22 16 -8
62 -20 101 -26 106 -15 777 -29 777 -17 0 6 21 12 95 26 11 2 54 6 95 8 124 7
203 16 234 26 16 5 57 9 92 9 61 0 179 24 199 40 6 5 35 18 65 29 99 38 216
93 260 122 14 9 56 29 94 44 39 15 87 38 107 51 21 13 49 26 63 30 14 3 26 9
26 13 0 4 24 18 53 30 68 29 89 39 107 50 31 18 126 53 155 57 17 2 39 8 50
13 11 5 43 17 70 26 28 10 59 21 70 26 11 4 40 15 65 23 25 8 88 31 140 51 52
20 133 48 180 62 46 14 105 39 131 54 25 16 55 29 66 29 10 0 28 7 39 15 10 8
26 15 35 15 9 0 24 9 34 20 9 10 34 28 54 38 66 35 170 132 207 194 37 61 46
104 40 182 -5 71 -9 89 -26 131 -4 11 -13 34 -20 51 -10 29 -15 163 -10 354 4
205 -1 459 -9 486 -6 16 -12 45 -14 64 -6 44 -17 80 -26 80 -4 0 -15 14 -25
30 -30 51 -122 138 -154 145 -16 3 -38 15 -48 26 -9 10 -22 19 -28 19 -5 0
-27 12 -48 27 l-39 26 -217 1 c-188 1 -221 -1 -243 -16 -15 -9 -44 -20 -65
-24 -21 -4 -51 -15 -67 -26 -29 -21 -148 -62 -207 -71 -144 -24 -310 -67 -480
-124 -25 -8 -67 -19 -95 -23 -27 -5 -78 -17 -112 -26 -34 -10 -64 -16 -67 -13
-3 2 -6 28 -7 57 -2 29 -6 55 -11 58 -4 3 -8 33 -8 67 0 34 -7 83 -14 109 -18
57 -75 166 -105 199 -12 13 -29 32 -38 41 -10 11 -24 16 -39 12 -31 -8 -44 18
-32 66 8 29 6 46 -5 71 -8 19 -23 57 -34 84 -21 54 -39 64 -87 45 -26 -9 -28
-14 -23 -53 3 -23 10 -60 17 -82 6 -22 11 -48 11 -58 0 -22 28 -57 46 -57 17
0 16 -9 -2 -43 -14 -27 -13 -31 8 -60 31 -42 85 -208 89 -272 2 -27 6 -52 9
-55 4 -3 9 -30 12 -60 4 -30 9 -76 13 -101 7 -49 6 -49 -61 -64 -5 -2 -37 -19
-71 -38 -33 -20 -67 -37 -74 -39 -8 -2 -19 -6 -25 -11 -5 -4 -30 -22 -54 -40
-82 -61 -268 -164 -277 -154 -15 15 2 317 20 345 3 5 7 19 10 33 21 97 29 125
37 133 5 6 9 16 9 22 0 19 77 181 89 189 6 3 11 17 11 29 0 13 10 36 23 52 12
16 21 29 19 29 -2 0 1 13 7 28 6 16 11 32 11 37 0 4 7 10 15 14 10 3 15 -1 15
-12 0 -23 36 -62 56 -62 8 0 19 11 26 25 6 13 15 22 20 19 13 -8 -16 151 -38
211 -17 44 -67 95 -94 95 -14 0 -35 8 -46 18 -10 9 -32 28 -49 40 -16 13 -46
38 -65 56 -19 18 -56 45 -83 60 -26 15 -47 31 -47 34 0 4 -21 18 -47 32 -27
13 -50 27 -53 31 -3 3 -20 14 -38 23 -38 20 -36 27 6 32 46 5 75 20 115 60 51
50 69 87 72 148 8 146 -85 241 -270 277 -38 7 -81 20 -94 28 -16 10 -49 16
-93 16 -54 0 -68 3 -68 15 0 8 -7 28 -15 44 -8 15 -15 33 -15 38 0 5 -16 44
-37 86 -20 43 -41 88 -47 102 -18 41 -32 47 -61 26z m322 -415 c10 -5 58 -18
107 -30 73 -17 98 -28 134 -59 45 -37 49 -45 59 -111 7 -40 -15 -111 -34 -111
-7 0 -13 -5 -13 -10 0 -13 -41 -29 -91 -35 -21 -3 -48 -9 -61 -13 -20 -7 -38
-7 -105 0 -12 1 -15 11 -28 103 -12 88 -25 152 -38 190 -8 22 -17 53 -21 68
-7 29 -7 29 33 23 22 -3 48 -10 58 -15z m1013 -1336 c0 -5 -5 -3 -10 5 -5 8
-10 20 -10 25 0 6 5 3 10 -5 5 -8 10 -19 10 -25z m1697 -21 c16 -11 56 -35 90
-53 34 -19 65 -42 68 -51 3 -10 16 -25 29 -34 13 -8 35 -36 49 -61 21 -36 25
-56 23 -98 -7 -111 -36 -163 -131 -232 -22 -17 -42 -32 -45 -35 -18 -19 -297
-146 -375 -170 -22 -7 -44 -16 -50 -20 -8 -7 -99 -24 -115 -22 -3 0 -13 -4
-23 -9 -9 -6 -45 -14 -80 -19 -34 -4 -98 -15 -142 -23 -44 -8 -112 -17 -152
-20 -39 -3 -77 -8 -83 -12 -6 -4 -47 -7 -91 -6 -45 1 -93 -5 -112 -12 -31 -13
-93 -14 -390 -7 -66 1 -115 5 -110 9 12 8 30 81 37 146 3 28 7 59 9 70 6 27
24 249 26 327 1 23 7 27 51 38 28 7 53 16 56 21 3 5 12 9 21 9 9 0 44 11 77
24 34 14 81 27 106 31 24 4 60 14 80 23 19 9 40 16 45 17 6 1 23 7 39 14 36
14 109 31 159 36 20 3 58 11 83 20 24 8 52 15 60 15 20 0 106 27 168 52 66 27
138 48 146 43 4 -2 20 0 36 4 16 5 116 8 221 7 176 -2 195 -4 220 -22z m-1679
-60 c-4 -3 -2 -19 2 -35 5 -17 5 -29 -1 -29 -5 0 -9 9 -9 19 0 11 -3 26 -6 35
-4 10 -1 16 7 16 7 0 10 -3 7 -6z m9 -106 c-3 -7 -5 -2 -5 12 0 14 2 19 5 13
2 -7 2 -19 0 -25z m-103 -330 c-14 -138 -17 -154 -34 -218 -7 -25 -13 -53 -12
-62 0 -10 -3 -20 -9 -23 -5 -4 -9 -15 -9 -26 0 -23 6 -23 -72 -3 -111 28 -175
79 -180 141 -5 73 2 102 32 131 17 17 30 35 30 40 0 9 156 92 175 93 6 0 26
11 45 24 19 13 37 24 40 24 3 1 0 -54 -6 -121z m2056 -80 c0 -29 0 -84 0 -123
0 -104 -16 -369 -26 -430 -3 -22 -6 -47 -6 -55 2 -66 -42 -165 -97 -221 -9 -9
-40 -44 -69 -77 -45 -51 -70 -68 -166 -116 -63 -30 -120 -57 -127 -58 -8 -2
-37 -15 -67 -30 -29 -16 -58 -28 -65 -28 -7 0 -35 -11 -63 -24 -27 -14 -78
-33 -114 -44 -36 -11 -95 -34 -132 -51 -37 -17 -71 -30 -75 -29 -5 1 -25 -4
-46 -11 -21 -7 -44 -10 -52 -7 -8 3 -15 1 -15 -4 0 -6 -11 -10 -24 -10 -14 0
-37 -10 -53 -23 -34 -28 -180 -100 -247 -122 -27 -8 -72 -26 -100 -40 -28 -13
-87 -34 -131 -46 -44 -13 -92 -31 -107 -42 -16 -10 -32 -16 -37 -13 -5 3 -28
-5 -52 -17 -24 -13 -57 -27 -73 -31 -15 -4 -47 -15 -70 -26 -62 -28 -155 -58
-206 -65 -25 -4 -54 -9 -65 -12 -11 -2 -41 -6 -67 -8 -25 -2 -63 -7 -84 -11
-21 -4 -72 -8 -113 -9 -42 -1 -125 -9 -186 -18 -117 -17 -635 -33 -635 -20 0
5 -15 9 -33 10 -48 3 -178 33 -209 49 -14 8 -37 14 -50 14 -12 1 -34 7 -48 15
-14 8 -40 14 -58 15 -29 0 -69 15 -82 31 -3 3 -24 18 -48 33 -24 15 -45 33
-49 41 -3 8 -11 15 -18 15 -12 0 -105 101 -105 114 0 3 -11 22 -25 42 -35 52
-45 98 -46 215 0 74 3 104 13 110 7 5 9 9 5 9 -4 0 -2 10 5 23 7 12 11 26 10
30 -1 5 48 58 110 117 166 160 177 171 201 184 12 6 41 24 64 39 24 15 51 27
60 27 10 0 43 13 73 29 118 62 136 70 167 76 30 6 33 5 33 -19 0 -13 -4 -27
-9 -30 -8 -6 -9 -13 -13 -91 -2 -53 21 -185 33 -185 5 0 9 -7 9 -15 0 -8 3
-15 8 -15 4 0 13 -15 21 -32 14 -33 74 -98 91 -98 5 0 15 -8 22 -18 30 -41
199 -125 216 -107 3 3 10 0 17 -5 6 -5 54 -15 106 -22 113 -16 246 -8 344 19
73 20 175 67 175 82 0 4 19 16 41 27 23 10 47 23 53 29 6 5 27 18 47 28 19 10
48 29 64 43 15 13 31 24 34 24 7 0 61 49 155 139 62 60 109 115 173 205 47 65
59 81 81 107 12 15 22 32 22 38 0 6 4 11 10 11 5 0 16 14 25 30 l16 30 92 -3
c54 -3 100 0 112 7 20 11 165 25 310 31 44 1 114 10 155 18 41 8 125 20 185
27 61 6 124 16 140 21 199 69 262 93 312 120 32 18 81 44 108 58 28 14 52 28
55 31 3 3 29 21 57 39 29 18 67 51 84 72 17 21 35 39 40 39 6 0 10 -24 9 -52z
m-2449 -185 c15 -28 -14 -77 -76 -128 -25 -20 -68 -60 -95 -88 l-51 -52 -134
0 c-115 0 -135 2 -135 15 0 22 20 40 46 40 27 0 51 27 37 41 -18 18 -63 20
-97 4 -25 -12 -37 -27 -51 -67 -21 -58 -21 -59 -11 -110 5 -28 4 -38 -6 -38
-20 0 -38 -48 -28 -73 4 -12 45 -60 89 -106 57 -59 82 -94 87 -117 3 -19 3
-34 -1 -34 -4 0 -28 21 -53 48 -25 26 -50 46 -55 44 -5 -2 -7 4 -4 12 4 9 -4
23 -18 35 -14 10 -25 22 -25 27 0 18 -45 54 -67 54 -30 0 -38 -21 -25 -60 9
-24 8 -30 -2 -30 -38 0 -57 81 -32 135 12 25 26 37 46 42 31 6 44 25 35 54
-15 45 -114 1 -145 -64 -31 -62 -19 -150 24 -186 17 -15 77 -21 97 -10 11 6
21 4 29 -6 7 -8 19 -15 27 -15 8 0 11 -4 8 -10 -3 -5 -3 -10 2 -10 16 -1 123
-109 123 -124 0 -28 39 -57 85 -63 100 -12 238 94 191 146 -20 22 -20 33 1
137 l16 84 109 0 c99 0 108 2 108 19 0 17 -9 19 -82 20 -45 1 -83 3 -84 4 -2
2 177 156 269 231 59 48 61 48 99 37 43 -13 43 -18 11 -89 -11 -22 -19 -29
-27 -23 -7 5 -24 4 -45 -3 -27 -8 -37 -19 -43 -44 -5 -20 -5 -40 2 -51 14 -28
14 -28 -30 -35 -25 -4 -40 -12 -40 -21 0 -18 11 -25 47 -27 63 -4 71 -45 16
-83 -21 -14 -49 -25 -64 -25 -30 0 -90 27 -102 47 -13 22 -47 15 -59 -12 -10
-23 -8 -29 38 -71 47 -43 51 -45 99 -40 28 2 65 12 83 21 50 26 101 79 108
114 4 17 13 32 20 32 8 1 19 3 24 4 6 1 18 3 28 4 19 1 103 78 129 118 12 18
13 26 4 37 -9 11 -8 22 5 50 10 19 21 33 26 30 4 -3 8 2 8 12 0 14 9 16 77 9
42 -4 85 -10 95 -14 17 -6 16 -8 -5 -31 -13 -14 -26 -32 -29 -40 -8 -21 -138
-187 -180 -230 -19 -19 -68 -64 -109 -100 -41 -36 -80 -70 -87 -77 -6 -6 -21
-15 -32 -18 -11 -3 -20 -10 -20 -14 0 -4 -12 -13 -27 -20 -16 -7 -66 -38 -111
-68 -83 -55 -184 -99 -252 -110 -63 -10 -224 -4 -297 11 -40 9 -79 13 -86 10
-15 -5 -147 78 -160 102 -4 8 -13 14 -20 14 -7 1 -25 19 -42 41 -16 22 -35 45
-42 53 -6 7 -18 51 -25 97 -23 135 -4 184 123 313 28 28 57 58 64 66 8 8 60
44 117 79 57 35 124 82 150 104 50 40 54 39 61 -14 6 -57 57 -78 92 -38 16 16
26 19 58 14 60 -11 83 31 52 91 -20 39 -19 73 3 80 9 3 26 11 37 17 11 6 36
19 55 29 l35 18 3 -67 c1 -38 7 -78 13 -90z m105 -106 c8 -8 -57 -90 -105
-132 -19 -16 -49 -46 -65 -65 -17 -19 -48 -53 -70 -75 -36 -37 -39 -38 -46
-20 -14 39 -20 75 -13 73 5 -1 25 1 45 5 27 6 36 12 31 23 -3 9 -13 12 -27 8
-31 -9 67 80 137 123 31 20 57 40 57 44 0 5 7 9 16 9 8 0 13 4 10 9 -7 10 20
9 30 -2z m-423 -217 c23 0 22 -23 -3 -45 -13 -12 -20 -14 -20 -5 0 9 -9 11
-30 7 -16 -4 -30 -3 -30 1 0 4 -3 18 -7 31 -6 23 -5 24 33 18 21 -4 47 -7 57
-7z m67 -145 c9 -5 10 -40 5 -131 -5 -89 -3 -124 5 -124 17 0 1 -20 -23 -29
-73 -27 -72 -27 -95 57 -28 106 -35 155 -27 201 l6 39 59 -3 c32 -1 63 -6 70
-10z m-202 -26 c2 -23 2 -23 -13 -5 -18 24 -20 39 -2 34 6 -3 13 -15 15 -29z
m2926 -207 c-25 -43 -54 -78 -54 -66 0 11 58 94 66 94 3 0 -2 -13 -12 -28z
m-4239 -505 c10 -48 14 -82 8 -88 -9 -9 -26 63 -38 161 -7 63 9 24 30 -73z
m161 -264 c41 -40 70 -73 65 -73 -22 0 -178 143 -204 187 -4 6 -4 18 -1 27 5
12 13 6 37 -26 16 -24 63 -76 103 -115z m114 -93 c8 -5 11 -10 5 -10 -5 0 -17
5 -25 10 -8 5 -10 10 -5 10 6 0 17 -5 25 -10z"/>
<path d="M4324 4222 c-27 -22 -84 -97 -84 -109 0 -26 -37 -39 -105 -37 -95 3
-297 -46 -385 -93 -69 -37 -130 -88 -130 -110 0 -7 -4 -13 -10 -13 -9 0 -32
-65 -36 -107 -2 -13 2 -23 7 -23 6 0 8 -8 5 -17 -8 -25 1 -35 64 -71 51 -29
53 -31 25 -31 -35 1 -150 -17 -164 -25 -5 -4 -29 -9 -53 -12 -24 -3 -66 -12
-94 -20 -29 -8 -56 -14 -60 -12 -9 3 -89 -24 -129 -43 -11 -5 -29 -11 -40 -14
-25 -5 -133 -50 -142 -59 -3 -3 -15 -6 -25 -6 -20 0 -74 -32 -158 -96 -30 -22
-70 -49 -88 -58 -25 -13 -33 -23 -29 -36 3 -11 1 -20 -3 -22 -5 -2 -6 -25 -3
-51 10 -82 64 -84 163 -6 19 15 87 55 149 89 63 34 145 79 182 100 36 22 87
44 112 50 25 5 69 19 96 30 28 11 66 21 83 22 18 1 38 5 44 10 6 4 41 10 78
12 37 3 81 9 99 15 18 6 61 12 96 14 53 3 68 8 84 28 19 23 19 23 12 -67 -13
-160 32 -252 137 -282 69 -20 108 -26 176 -27 59 0 63 -1 76 -30 22 -46 46
-69 103 -100 54 -29 56 -29 178 -13 11 2 29 11 39 20 18 16 20 16 39 -23 11
-23 43 -58 74 -81 44 -34 63 -42 108 -45 34 -2 55 0 55 7 0 5 8 10 18 10 10 0
23 5 30 12 9 9 12 9 12 -3 0 -16 18 -37 66 -79 25 -21 39 -25 94 -25 89 1 141
18 191 65 43 40 89 119 89 153 0 10 5 27 11 39 6 11 12 36 14 57 2 20 6 44 10
53 4 9 4 22 0 28 -3 5 -2 10 3 10 5 0 14 28 21 63 6 34 18 90 27 125 8 35 12
67 8 73 -3 5 -1 15 5 22 5 7 9 26 9 43 -1 17 6 46 16 64 9 18 16 39 16 46 0 7
11 26 25 42 14 17 25 37 25 45 0 20 39 87 50 87 15 0 21 39 10 60 -17 31 -55
25 -81 -12 -13 -18 -35 -46 -50 -62 -24 -26 -33 -56 -41 -133 -1 -7 -5 -13
-10 -13 -4 0 -8 -15 -8 -34 0 -19 -4 -37 -9 -40 -5 -3 -9 -16 -9 -28 -1 -23
-3 -36 -42 -203 -12 -49 -27 -121 -34 -160 -15 -75 -59 -204 -74 -214 -4 -3
-11 -14 -15 -23 -9 -26 -46 -46 -113 -61 -58 -14 -61 -14 -86 8 -14 12 -29 33
-33 46 -9 26 -8 175 0 189 3 5 8 30 10 57 5 43 13 101 19 128 1 6 6 16 10 24
5 8 10 24 12 35 1 12 9 62 18 111 19 110 15 135 -25 135 -37 0 -45 -20 -47
-124 -1 -43 -8 -92 -16 -110 -20 -46 -46 -159 -60 -266 -1 -14 -7 -41 -11 -60
-5 -19 -8 -43 -6 -53 3 -24 -26 -46 -61 -47 -41 0 -113 35 -136 67 -16 23 -20
41 -17 89 5 105 18 209 26 219 4 6 10 29 13 50 2 22 5 40 6 40 1 0 3 18 6 40
2 22 8 51 13 65 17 47 50 165 55 192 3 15 7 31 10 36 2 4 -3 18 -13 30 -13 19
-23 22 -44 16 -23 -5 -27 -11 -24 -33 3 -15 -4 -53 -14 -86 -11 -33 -28 -105
-40 -160 -11 -55 -32 -147 -46 -205 -14 -58 -27 -127 -28 -155 -1 -27 -3 -53
-4 -57 -2 -11 -141 -30 -175 -24 -18 3 -44 19 -59 34 -32 33 -60 99 -50 115 4
7 9 23 10 37 5 50 39 176 56 208 10 18 15 37 12 42 -3 6 -1 10 4 10 6 0 10 3
9 8 -4 9 32 104 43 116 5 6 9 20 9 33 0 13 5 32 10 43 6 11 15 29 20 40 6 11
10 25 10 32 0 6 11 28 24 47 37 55 40 86 12 99 -19 9 -28 7 -45 -9 -11 -11
-21 -25 -21 -30 0 -6 -9 -23 -19 -38 -17 -24 -35 -76 -62 -183 -5 -20 -20 -54
-34 -74 -14 -20 -25 -49 -25 -65 0 -15 -5 -31 -10 -34 -6 -4 -8 -11 -5 -16 4
-5 2 -9 -2 -9 -5 0 -15 -28 -22 -61 -7 -34 -18 -71 -26 -83 -7 -11 -15 -38
-18 -59 -3 -21 -8 -41 -12 -45 -20 -20 -208 7 -251 36 -23 15 -49 94 -45 137
1 6 3 33 4 60 2 28 10 64 17 80 8 17 14 35 15 40 0 6 10 28 23 48 12 21 22 42
22 48 0 5 4 9 8 9 4 0 24 27 43 60 18 33 37 60 40 60 4 0 26 32 50 71 24 39
54 83 65 98 12 14 24 36 28 49 4 12 36 52 70 87 58 58 62 66 52 87 -14 29 -45
33 -72 10z m-176 -255 c-18 -34 -51 -80 -70 -98 -10 -9 -18 -21 -18 -26 0 -6
-10 -21 -21 -34 -19 -21 -58 -80 -96 -144 -6 -11 -17 -19 -24 -17 -8 2 -22 4
-31 5 -10 1 -18 5 -18 9 0 4 -7 5 -15 2 -8 -3 -28 1 -44 9 -17 8 -50 18 -73
22 -55 10 -102 41 -92 64 4 9 6 24 6 34 0 9 3 17 9 17 5 0 9 6 9 13 0 13 81
88 104 96 6 2 28 12 49 21 20 10 70 24 110 30 39 7 80 15 89 19 9 3 44 4 77 3
59 -4 60 -4 49 -25z"/>
<path d="M823 4076 l-22 -23 38 -94 c22 -52 52 -123 69 -159 16 -36 35 -90 42
-120 7 -30 19 -64 26 -75 23 -38 76 -208 71 -231 -2 -13 -1 -24 2 -24 10 0 11
-74 0 -106 -19 -60 -93 -105 -164 -99 -16 1 -37 3 -46 4 -13 1 -16 9 -12 44 3
23 0 62 -7 87 -6 25 -13 59 -15 75 -1 17 -10 53 -20 81 -9 28 -17 57 -18 65
-2 8 -5 19 -8 24 -3 6 -12 33 -18 60 -7 28 -19 64 -26 80 -7 17 -23 62 -36
100 -12 39 -27 73 -33 77 -6 4 -7 8 -3 8 5 0 -5 14 -22 30 -27 27 -33 29 -51
18 -11 -7 -20 -18 -20 -25 0 -27 60 -188 92 -247 5 -10 12 -44 15 -75 3 -31
12 -67 19 -81 44 -85 75 -210 65 -266 -10 -53 -17 -63 -56 -80 -44 -18 -91 -4
-160 47 -58 44 -65 55 -70 112 -3 20 -8 45 -14 55 -12 24 -52 169 -57 212 -6
43 -51 177 -70 207 -8 12 -14 29 -14 36 0 8 -8 22 -19 31 -10 9 -21 30 -25 46
-3 19 -16 35 -35 45 -37 19 -34 19 -59 -4 -23 -20 -29 -41 -11 -41 5 0 7 -5 4
-11 -4 -5 4 -20 17 -32 13 -12 41 -58 62 -102 52 -108 53 -110 67 -190 6 -38
15 -74 19 -80 5 -5 14 -38 20 -72 7 -35 16 -63 19 -63 4 0 13 -27 19 -59 7
-33 18 -70 25 -83 25 -46 42 -68 52 -68 6 0 29 -13 51 -29 55 -41 143 -54 201
-30 22 10 43 15 46 12 3 -2 11 5 17 18 l12 22 19 -24 c16 -22 25 -24 87 -23
76 1 185 42 196 72 3 10 15 33 26 52 11 19 20 47 20 62 0 16 4 28 9 28 5 0 4
19 0 43 -5 23 -11 53 -13 67 -12 72 -40 177 -50 189 -6 8 -10 16 -8 18 1 2 -5
17 -13 34 -9 17 -27 63 -40 102 -39 116 -74 208 -100 265 -14 29 -25 61 -25
72 0 11 -9 24 -19 30 -25 13 -22 14 -48 -14z"/>
</g>
</svg>
