<?xml version="1.0" standalone="no"?>
<!DOCTYPE svg PUBLIC "-//W3C//DTD SVG 20010904//EN"
 "http://www.w3.org/TR/2001/REC-SVG-20010904/DTD/svg10.dtd">
<svg version="1.0" xmlns="http://www.w3.org/2000/svg"
 width="557.000000pt" height="487.000000pt" viewBox="0 0 557.000000 487.000000"
 preserveAspectRatio="xMidYMid meet">
<metadata>
Created by potrace 1.16, written by Peter Selinger 2001-2019
</metadata>
<g transform="translate(0.000000,487.000000) scale(0.100000,-0.100000)"
fill="#000000" stroke="none">
<path d="M1376 4613 c-1 -2 -67 -5 -147 -8 -79 -3 -166 -8 -194 -11 -27 -2
-84 -7 -125 -10 -41 -3 -88 -12 -104 -20 -16 -8 -43 -14 -60 -14 -17 0 -49 -5
-71 -10 -22 -6 -71 -13 -110 -16 -38 -3 -74 -9 -80 -12 -11 -7 -27 -10 -62
-14 -13 -1 -23 -6 -23 -11 0 -4 -4 -5 -10 -2 -5 3 -24 -2 -41 -11 -22 -11 -47
-15 -76 -11 -32 3 -43 1 -43 -9 0 -8 -4 -14 -8 -14 -5 0 -13 -16 -19 -35 -10
-33 -9 -36 18 -56 29 -20 31 -20 65 -4 19 9 44 17 54 18 11 1 20 5 20 10 0 4
4 6 9 2 5 -3 12 -1 15 4 5 7 51 20 71 21 3 0 18 6 35 15 16 8 42 15 58 15 15
0 36 6 47 13 11 9 29 11 49 7 18 -3 58 1 96 11 79 21 208 39 272 38 26 0 71 4
100 10 54 12 78 11 111 -4 9 -4 23 -3 30 3 16 13 339 6 432 -9 39 -6 77 -11
85 -11 26 0 105 -25 148 -47 23 -12 42 -19 42 -16 0 3 19 -15 43 -40 24 -25
49 -45 55 -45 7 0 12 -7 12 -15 0 -8 4 -15 9 -15 13 0 52 -70 46 -81 -8 -12
-58 -11 -92 2 -30 12 -79 15 -343 24 -204 7 -232 9 -246 18 -16 9 -63 -15 -70
-36 -3 -9 0 -31 8 -48 l13 -31 105 7 c58 3 112 6 120 5 8 0 69 -2 135 -4 166
-4 306 -28 398 -66 43 -18 77 -35 77 -39 0 -4 11 -13 25 -19 14 -6 25 -18 25
-27 0 -8 7 -15 15 -15 8 0 15 -5 15 -11 0 -5 5 -7 12 -3 6 4 8 3 5 -3 -4 -6 7
-28 23 -49 16 -21 30 -44 30 -51 0 -17 -81 -27 -125 -14 -25 7 -119 9 -255 6
-337 -7 -386 -10 -402 -26 -20 -20 -20 -55 0 -72 22 -19 82 -32 82 -18 0 6 3
10 8 9 4 -1 54 2 112 7 187 14 415 7 535 -19 44 -9 89 -18 100 -19 37 -6 80
-32 80 -47 -1 -8 9 -29 21 -45 19 -27 22 -42 20 -122 -2 -89 -3 -93 -31 -115
-16 -13 -32 -22 -35 -21 -3 0 -14 -4 -25 -10 -11 -5 -29 -12 -40 -13 -48 -7
-80 -16 -106 -29 -15 -8 -39 -15 -52 -15 -12 0 -28 -5 -35 -12 -7 -7 -12 -8
-12 -4 0 5 -6 4 -13 -3 -8 -6 -35 -12 -60 -14 -37 -3 -47 -1 -47 11 0 11 -3
12 -13 3 -8 -6 -16 -8 -19 -6 -7 7 -58 -16 -59 -27 -1 -4 -2 -14 -3 -20 -1 -7
-8 -18 -16 -25 -12 -10 -13 -12 -1 -13 8 0 29 -11 47 -25 19 -14 49 -26 71
-27 21 -2 41 -7 44 -11 3 -4 14 -8 25 -8 105 3 335 12 359 15 17 2 36 -2 44
-8 11 -8 15 -8 18 2 3 6 8 10 12 8 3 -2 34 -1 69 3 38 5 66 3 72 -3 7 -7 10
-6 10 1 0 18 101 37 185 35 219 -5 465 -21 497 -34 15 -6 72 -11 127 -13 54
-1 105 -6 111 -10 7 -5 42 -7 77 -6 35 1 69 -1 76 -6 6 -4 37 -8 67 -9 177 -7
281 -17 322 -30 26 -9 52 -13 57 -10 5 4 22 1 38 -5 15 -6 28 -9 29 -7 0 2 9
-5 19 -16 20 -19 35 -101 27 -141 -2 -15 -20 -32 -48 -47 -24 -12 -44 -26 -44
-30 0 -5 -6 -8 -13 -8 -7 0 -31 -9 -52 -21 -41 -21 -151 -49 -195 -49 -13 0
-63 -9 -110 -19 -131 -30 -199 -43 -265 -51 -33 -4 -100 -13 -150 -20 -49 -6
-100 -11 -112 -11 -13 0 -23 -3 -23 -8 0 -5 -15 -9 -32 -9 -18 0 -64 -2 -103
-6 -38 -3 -131 -11 -205 -17 -191 -15 -255 -22 -255 -28 0 -3 -67 -2 -160 0
-27 0 -88 6 -134 13 -84 12 -239 4 -291 -14 -3 -1 -77 -1 -165 0 -88 1 -167 2
-175 2 -54 0 -109 -10 -136 -24 -17 -10 -34 -15 -36 -12 -3 3 -43 7 -89 10
-81 5 -85 4 -107 -20 -19 -23 -20 -29 -10 -48 20 -34 50 -61 57 -52 9 13 26
16 114 22 54 3 77 1 77 -7 0 -6 12 -11 28 -11 124 3 217 -3 236 -15 11 -7 43
-17 69 -20 26 -4 79 -24 117 -44 37 -20 92 -49 121 -65 30 -15 65 -40 79 -55
15 -14 39 -35 55 -47 21 -15 26 -24 19 -35 -5 -7 -9 -22 -10 -31 -1 -10 -3
-20 -4 -23 -1 -3 -3 -10 -4 -17 -1 -14 -43 -26 -116 -32 -30 -3 -68 -7 -85
-10 -16 -2 -77 -10 -135 -16 -58 -7 -121 -16 -140 -20 -19 -5 -55 -9 -80 -10
-25 0 -79 -1 -120 -1 -293 -4 -460 -2 -486 8 -16 6 -49 16 -74 23 -25 7 -62
19 -82 26 -21 7 -52 16 -70 19 -18 4 -42 12 -53 18 -11 7 -45 19 -75 26 -30 8
-67 22 -82 32 -14 11 -33 19 -41 19 -9 0 -18 4 -21 9 -3 5 -18 12 -33 16 -36
9 -91 34 -125 57 -14 10 -33 18 -42 18 -9 0 -16 5 -16 10 0 6 -6 10 -14 10
-17 0 -138 60 -147 73 -3 4 -10 7 -15 6 -14 -4 -134 52 -134 62 0 5 -5 9 -12
9 -6 0 -21 8 -32 19 -28 25 -81 34 -96 16 -34 -41 -15 -102 39 -125 17 -7 31
-17 31 -23 0 -6 3 -8 6 -4 7 7 54 -15 99 -47 16 -11 54 -29 85 -39 61 -20 111
-43 151 -69 14 -10 29 -15 31 -12 3 3 25 -6 49 -19 24 -14 55 -28 69 -32 22
-7 64 -24 165 -70 31 -14 196 -66 228 -72 10 -2 31 -10 47 -18 16 -8 40 -15
53 -15 14 0 44 -7 68 -16 76 -27 213 -33 479 -21 244 12 353 21 390 32 34 10
218 32 255 31 22 -1 54 2 70 7 17 5 36 9 43 10 6 0 12 4 12 9 0 4 6 8 14 8 17
0 66 56 66 74 0 8 8 24 18 37 11 13 21 34 24 46 7 25 -24 81 -50 90 -9 3 -40
30 -68 59 -28 30 -56 54 -62 54 -7 0 -12 5 -12 10 0 6 -5 10 -11 10 -5 0 -27
11 -47 25 -20 14 -58 32 -84 41 -27 8 -48 20 -48 25 0 6 -4 8 -9 4 -5 -3 -12
-1 -15 4 -15 24 258 31 276 6 5 -6 8 -5 8 2 0 9 34 11 143 6 92 -3 161 -1 197
6 51 11 89 14 310 25 111 6 258 24 290 35 14 5 54 12 90 16 36 3 102 13 147
21 46 8 87 13 93 9 5 -3 17 -1 27 4 33 18 58 23 123 25 36 1 74 7 85 13 11 6
40 13 65 17 207 30 333 77 408 152 24 24 47 44 51 44 4 0 6 12 5 28 0 15 3 30
9 33 6 4 6 15 2 25 -5 11 -9 34 -10 51 -1 18 -5 36 -8 40 -4 3 -7 15 -7 25 0
10 -7 21 -15 24 -8 4 -15 13 -15 20 0 35 -32 63 -78 70 -26 3 -53 11 -59 16
-7 6 -13 7 -13 3 0 -4 -7 -2 -15 5 -8 6 -18 10 -22 7 -4 -2 -55 -1 -113 4 -58
5 -179 13 -270 19 -91 5 -194 12 -230 15 -36 3 -97 7 -135 9 -39 3 -98 11
-132 20 -33 9 -83 16 -109 16 -27 0 -67 5 -88 10 -24 5 -47 5 -57 0 -10 -6
-30 -6 -50 0 -42 12 -215 15 -294 5 -33 -4 -73 -9 -90 -10 -16 0 -37 -4 -45
-8 -8 -3 -45 -8 -81 -10 -37 -2 -71 -7 -78 -11 -6 -4 -11 -1 -11 8 0 15 11 20
37 17 6 -1 18 7 25 18 8 11 26 25 41 30 31 12 60 52 60 86 0 13 6 26 14 29 12
5 12 8 -1 22 -9 8 -14 19 -11 24 3 5 0 12 -6 15 -7 5 -4 12 9 21 16 11 19 23
16 61 -2 30 1 50 9 56 7 5 4 6 -10 2 -19 -5 -25 0 -39 32 -20 45 -21 48 -23
71 0 9 -23 29 -52 45 -47 27 -64 50 -74 100 -9 41 -31 94 -52 123 -13 17 -23
36 -23 42 0 7 -4 12 -8 12 -5 0 -24 15 -44 33 -39 36 -65 55 -90 63 -17 6 -19
15 -22 82 -1 9 -7 21 -13 25 -7 4 -13 16 -13 25 0 9 -9 28 -20 42 -11 14 -20
31 -20 38 0 7 -7 15 -15 18 -8 4 -15 12 -15 20 0 8 -9 14 -21 14 -15 0 -19 5
-15 15 3 8 2 15 -3 15 -4 0 -21 11 -37 26 -36 31 -88 54 -132 59 -18 2 -44 11
-58 20 -14 9 -32 14 -39 11 -8 -3 -38 -1 -67 5 -98 18 -402 42 -412 32z m1099
-1353 c-27 -12 -35 -12 -35 0 0 6 12 10 28 9 24 0 25 -1 7 -9z"/>
<path d="M4625 2838 c-36 -13 -66 -38 -60 -49 3 -4 -2 -34 -11 -66 -9 -32 -18
-68 -21 -80 -3 -13 -9 -23 -14 -23 -5 0 -9 -11 -9 -24 0 -14 -5 -28 -10 -31
-6 -4 -8 -11 -4 -16 3 -5 -2 -23 -10 -41 -22 -43 -20 -63 9 -86 30 -24 58 -19
75 14 7 13 16 21 20 19 8 -5 4 -310 -6 -390 -12 -99 -9 -123 14 -146 28 -25
57 -18 76 19 13 26 16 77 20 358 l1 122 27 -19 c34 -24 65 -24 78 0 15 30 12
107 -5 125 -15 15 -95 245 -95 273 0 7 -4 13 -9 13 -5 0 -11 9 -14 20 -6 22
-9 23 -52 8z"/>
<path d="M4320 1781 c0 -6 -30 -10 -66 -10 -69 0 -108 -19 -97 -47 3 -8 1 -14
-3 -14 -10 0 -9 -55 1 -185 31 -418 35 -562 19 -705 -4 -36 -6 -80 -5 -97 1
-31 -9 -39 -41 -34 -32 5 -157 11 -221 11 -75 1 -128 -15 -149 -45 -11 -14
-12 -349 -2 -409 2 -15 0 -34 -6 -41 -8 -9 -8 -15 0 -20 12 -8 13 -55 1 -55
-6 0 -6 -12 -1 -28 4 -16 4 -36 -2 -45 -5 -11 -5 -17 0 -17 6 0 9 -8 8 -17 -1
-15 9 -19 48 -21 29 -2 52 1 56 8 4 6 5 62 2 123 -12 295 -12 435 1 444 24 20
71 23 295 23 351 -2 1007 -15 1007 -20 0 -1 30 -2 67 -3 36 -1 69 -5 73 -9 4
-4 13 -4 21 -1 11 4 14 -6 16 -38 4 -107 15 -264 18 -264 1 0 3 -19 5 -41 1
-23 6 -47 10 -55 10 -15 15 -53 18 -119 l2 -45 60 0 60 0 -1 35 c-1 19 -7 60
-13 90 -6 30 -12 64 -14 75 -1 11 -5 25 -9 30 -6 10 -17 119 -23 230 -3 73
-14 134 -32 183 -12 33 -22 44 -47 50 -18 5 -40 5 -53 -1 -12 -5 -38 -6 -60
-2 -21 5 -42 7 -48 5 -13 -4 -139 0 -143 5 -5 4 -11 58 -16 125 -2 25 -4 139
-6 255 -1 116 -6 229 -11 253 -5 24 -11 121 -13 216 -4 186 -10 211 -56 221
-14 3 -68 3 -120 0 -191 -11 -447 -8 -455 5 -8 13 -75 13 -75 1z"/>
</g>
</svg>
