<?xml version="1.0" standalone="no"?>
<!DOCTYPE svg PUBLIC "-//W3C//DTD SVG 20010904//EN"
 "http://www.w3.org/TR/2001/REC-SVG-20010904/DTD/svg10.dtd">
<svg version="1.0" xmlns="http://www.w3.org/2000/svg"
 width="459.000000pt" height="463.000000pt" viewBox="0 0 459.000000 463.000000"
 preserveAspectRatio="xMidYMid meet">
<metadata>
Created by potrace 1.16, written by Peter Selinger 2001-2019
</metadata>
<g transform="translate(0.000000,463.000000) scale(0.100000,-0.100000)"
fill="#000000" stroke="none">
<path d="M1425 4506 c-112 -27 -195 -90 -242 -184 -24 -49 -62 -106 -88 -133
-8 -9 -15 -21 -15 -27 0 -7 -6 -12 -14 -12 -32 0 -30 -44 2 -52 15 -4 17 -19
15 -114 -1 -60 3 -127 9 -149 6 -22 12 -49 13 -60 9 -64 143 -244 195 -260 24
-7 30 -53 25 -187 -3 -74 -9 -116 -18 -127 -8 -9 -23 -36 -34 -61 -12 -25 -34
-61 -49 -81 -16 -20 -36 -47 -44 -59 -8 -13 -27 -36 -43 -52 -15 -16 -27 -32
-27 -36 0 -4 -20 -27 -44 -52 -25 -25 -84 -90 -132 -145 -48 -55 -107 -119
-132 -143 -42 -41 -63 -84 -55 -109 4 -12 116 -98 243 -188 30 -21 63 -47 73
-57 10 -10 32 -25 49 -34 33 -17 47 -27 82 -60 23 -20 23 -22 9 -100 -7 -43
-16 -86 -19 -94 -4 -8 -8 -28 -10 -45 -3 -31 -20 -95 -57 -220 -11 -38 -21
-77 -22 -85 -4 -29 -16 -75 -25 -91 -5 -9 -11 -34 -15 -55 -13 -84 -29 -154
-36 -154 -3 0 -9 -16 -12 -37 -5 -31 -51 -138 -78 -183 -5 -8 -29 -54 -53
-102 -24 -48 -55 -101 -70 -118 -23 -27 -27 -38 -26 -65 0 -3 -8 -14 -17 -25
-21 -22 -130 -217 -135 -240 -2 -8 -13 -25 -25 -37 -13 -12 -23 -25 -23 -28 0
-4 -8 -19 -18 -33 -9 -15 -17 -34 -16 -42 1 -8 2 -21 3 -27 0 -7 7 -13 15 -13
8 0 17 -7 20 -16 4 -9 13 -13 23 -10 10 3 90 8 177 11 113 3 162 9 168 17 12
19 10 48 -4 48 -9 0 -9 3 0 12 17 17 -3 44 -39 52 -17 3 -36 3 -42 -1 -5 -3
-45 -8 -89 -9 -70 -3 -78 -2 -78 15 0 10 8 29 19 42 10 13 22 35 26 49 4 14
13 32 20 40 20 24 185 326 185 338 0 7 5 12 10 12 6 0 10 7 10 16 0 9 10 30
23 47 12 18 33 52 46 77 73 141 79 156 84 225 4 70 39 224 57 257 6 10 10 27
10 37 0 11 8 44 19 73 10 29 24 74 31 101 7 26 15 47 19 47 9 0 56 -147 81
-250 12 -47 24 -92 27 -100 3 -8 5 -20 4 -26 0 -6 10 -37 24 -68 14 -31 25
-65 25 -74 0 -10 11 -47 25 -83 14 -35 27 -73 29 -84 2 -11 7 -27 11 -36 3 -9
-8 -72 -26 -140 -17 -68 -35 -144 -39 -169 -5 -25 -15 -63 -23 -85 -9 -22 -18
-57 -20 -78 -3 -20 -9 -43 -15 -50 -5 -6 -24 -55 -43 -107 -18 -52 -41 -106
-51 -120 -38 -53 20 -125 73 -91 13 8 57 12 122 12 100 0 116 5 117 37 0 6 -7
12 -15 12 -8 0 -15 5 -15 10 0 6 5 10 10 10 6 0 10 11 10 25 0 31 -37 42 -90
26 -20 -6 -50 -11 -65 -11 -22 0 -26 3 -20 18 3 9 9 31 12 47 3 17 16 54 29
83 22 50 43 141 49 207 2 17 12 55 24 85 11 30 21 66 21 80 0 15 4 30 9 35 15
16 37 107 40 163 2 40 -2 59 -15 73 -19 21 -45 87 -74 184 -10 33 -27 85 -39
115 -12 30 -24 73 -27 95 -5 38 -36 162 -54 215 -4 14 -16 59 -25 100 -23 105
-25 110 -39 110 -10 0 -11 7 -2 35 6 20 16 33 23 31 6 -3 19 1 29 9 16 11 16
15 4 30 -9 10 -10 19 -4 23 26 17 23 42 -6 59 l-30 17 6 86 c3 47 10 128 16
180 6 52 12 129 14 172 3 66 10 123 14 123 0 0 3 54 6 120 3 66 7 121 9 123 2
2 24 -30 50 -70 26 -40 62 -86 80 -103 18 -16 52 -58 75 -92 23 -35 46 -65 50
-68 5 -3 7 -11 5 -18 -8 -21 8 -33 75 -51 36 -10 92 -27 125 -38 33 -11 67
-21 75 -22 8 -1 35 -8 60 -15 25 -8 86 -19 135 -26 50 -7 108 -20 130 -28 36
-14 40 -13 52 2 17 22 16 31 -4 31 -17 1 -17 1 0 14 26 20 21 52 -10 64 -16 6
-71 16 -123 22 -52 6 -113 16 -135 21 -22 6 -56 13 -75 16 -19 2 -44 8 -55 13
-11 4 -49 18 -85 30 -58 20 -110 59 -110 83 0 11 -26 37 -32 32 -2 -2 -15 13
-28 33 -14 20 -51 69 -83 109 -54 68 -107 162 -107 192 0 8 -6 11 -15 7 -43
-16 -46 5 -30 189 1 17 3 62 4 101 l1 71 48 13 c99 27 166 78 219 168 14 23
33 47 42 52 10 5 28 42 41 82 13 40 27 77 32 82 15 18 8 184 -12 288 -15 78
-27 113 -50 144 -16 23 -30 46 -30 51 -1 9 -67 83 -76 83 -2 0 -14 9 -26 20
-12 11 -29 20 -38 20 -9 0 -20 4 -25 9 -18 16 -60 19 -110 7z m113 -115 c40
-20 92 -68 92 -83 0 -5 11 -24 25 -42 14 -18 30 -57 36 -87 6 -30 13 -65 16
-79 13 -56 -1 -194 -22 -226 -7 -12 -17 -37 -20 -57 -5 -24 -24 -55 -56 -89
-109 -119 -104 -115 -172 -121 -65 -6 -123 11 -134 40 -3 7 -10 13 -17 13 -14
0 -102 171 -112 220 -14 64 -2 245 17 265 5 5 9 18 9 28 0 10 9 21 19 24 12 3
21 17 26 39 7 42 95 136 146 158 47 21 103 20 147 -3z m-243 -1473 c-5 -72 -9
-127 -21 -263 -3 -38 -12 -126 -20 -195 -8 -69 -14 -144 -14 -167 0 -23 -4
-44 -9 -47 -5 -3 -35 12 -68 34 -32 22 -89 61 -126 85 -79 53 -79 53 -132 99
l-40 35 47 48 c56 59 68 72 137 154 30 35 62 71 70 80 31 32 51 59 51 69 0 6
4 10 10 10 5 0 24 19 41 43 55 77 64 87 71 87 4 0 5 -33 3 -72z"/>
<path d="M3520 3929 c-158 -26 -189 -33 -184 -41 3 -4 0 -8 -7 -8 -6 0 -9 -8
-6 -20 3 -11 1 -18 -4 -14 -14 9 -10 -20 6 -43 17 -24 34 -24 126 2 46 13 47
13 52 -11 2 -13 1 -24 -2 -24 -11 0 -3 -100 8 -114 13 -15 -3 -24 -94 -57 -33
-12 -72 -30 -87 -40 -14 -11 -30 -19 -35 -19 -4 0 -56 -50 -115 -112 -89 -93
-106 -116 -102 -135 4 -13 2 -23 -4 -23 -7 0 -8 -9 -2 -27 4 -16 11 -109 14
-208 9 -256 15 -370 27 -448 5 -38 7 -72 5 -76 -8 -12 13 -421 33 -652 16
-176 18 -169 -60 -175 -35 -2 -127 -9 -204 -14 -77 -5 -171 -14 -210 -19 -38
-5 -117 -10 -175 -12 l-105 -4 3 32 c2 24 -1 33 -17 38 -12 3 -21 11 -21 16 0
13 -62 68 -78 69 -7 0 -11 4 -8 9 3 5 -6 11 -19 14 -52 9 -59 -67 -11 -117 75
-81 78 -73 -27 -74 -52 -1 -123 -6 -159 -11 -35 -6 -86 -11 -113 -10 -28 0
-61 -2 -74 -5 -38 -8 -183 -9 -212 -2 -18 5 -31 3 -42 -8 -8 -9 -21 -16 -28
-16 -8 0 -10 -13 -5 -47 4 -27 9 -61 11 -78 16 -123 62 -256 106 -314 11 -13
19 -32 19 -42 0 -11 4 -19 8 -19 5 0 26 -25 46 -55 21 -30 59 -71 84 -92 26
-21 67 -59 92 -84 25 -25 57 -54 71 -63 20 -13 25 -22 21 -46 -2 -17 -9 -30
-15 -30 -6 0 -7 -3 -4 -7 4 -3 -8 -34 -27 -67 -46 -83 -82 -148 -125 -231 -20
-38 -44 -78 -53 -89 -22 -24 -22 -54 -2 -81 12 -17 26 -19 102 -19 48 1 114 8
148 17 63 17 203 17 654 0 294 -11 470 -8 470 9 0 4 15 8 34 8 49 0 55 13 47
110 -6 83 6 190 21 190 4 0 20 -19 34 -42 15 -24 43 -63 63 -88 20 -25 39 -49
43 -55 14 -19 83 -91 99 -103 13 -10 25 -9 59 3 23 8 77 18 119 21 41 3 80 8
85 11 5 4 73 8 150 9 167 4 262 11 277 20 11 7 11 12 -12 274 -16 193 -19 213
-34 285 -23 107 -38 240 -31 277 3 18 31 66 61 105 30 40 65 91 77 114 11 23
37 56 56 75 34 33 35 35 28 90 -3 31 -10 64 -15 73 -4 9 -9 68 -10 131 -1 63
-4 133 -7 155 -3 22 -7 65 -10 95 -4 47 -10 106 -19 185 -2 11 -6 70 -9 130
-4 61 -11 124 -16 140 -10 36 -20 101 -25 173 -2 29 -7 56 -10 61 -3 5 -7 60
-10 123 -2 62 -12 149 -21 193 -9 44 -18 122 -20 173 -2 51 -8 102 -14 112 -5
10 -10 34 -10 52 0 43 -91 177 -152 223 -40 30 -222 107 -246 104 -4 -1 -41
-1 -83 0 l-75 1 -10 75 -9 75 25 0 c14 0 31 -5 38 -12 14 -14 69 -13 88 3 21
18 18 49 -6 49 -11 0 -20 7 -20 15 0 8 5 15 10 15 17 0 11 29 -7 38 -10 5 -43
10 -73 11 -30 1 -62 3 -70 5 -8 2 -35 0 -60 -5z m276 -378 c5 -5 32 -16 59
-25 72 -23 155 -88 184 -144 26 -51 45 -132 55 -230 4 -35 10 -71 15 -80 23
-45 40 -139 46 -256 4 -71 9 -139 12 -150 7 -32 33 -239 31 -251 -1 -5 1 -26
5 -45 3 -19 9 -59 12 -89 3 -30 8 -64 10 -75 15 -64 28 -224 31 -386 2 -102 8
-209 14 -238 12 -65 12 -64 -92 -199 -43 -56 -78 -106 -78 -110 0 -5 -13 -24
-28 -43 -50 -63 -59 -83 -51 -113 4 -15 5 -27 3 -27 -3 0 4 -9 14 -20 17 -19
34 -85 48 -195 4 -27 9 -59 11 -70 7 -30 11 -87 17 -222 4 -67 9 -129 12 -137
5 -12 -2 -18 -25 -22 -17 -4 -31 -10 -31 -15 0 -4 -53 -6 -117 -5 -68 2 -148
-2 -188 -9 -158 -29 -169 -30 -196 -18 -27 13 -59 46 -123 128 -22 28 -58 69
-80 92 -23 23 -54 61 -71 83 -61 83 -105 120 -105 89 0 -5 -5 -7 -10 -4 -15 9
-35 -16 -38 -47 -1 -15 5 -44 14 -65 17 -41 27 -253 13 -291 -14 -38 -182 -47
-489 -27 -373 24 -476 22 -617 -11 -50 -12 -99 -13 -143 -4 -3 0 3 5 13 11 9
5 17 15 17 21 0 6 6 19 14 27 8 9 53 93 101 186 48 94 94 177 102 187 9 10 11
18 4 22 -6 4 -7 15 -1 30 7 19 4 25 -20 39 -15 10 -33 17 -39 17 -7 0 -23 10
-36 22 -13 13 -55 50 -94 82 -39 33 -71 63 -71 68 0 4 -7 8 -15 8 -8 0 -15 4
-15 9 0 5 -8 17 -17 27 -10 9 -27 32 -38 49 -11 18 -32 50 -46 71 -49 74 -99
256 -75 271 6 4 40 8 76 9 36 1 65 3 65 4 0 1 20 3 45 4 25 2 86 6 135 10 50
4 142 9 205 11 63 3 142 7 175 10 33 3 85 7 115 10 30 2 91 9 135 15 44 5 132
13 195 16 63 3 158 10 210 15 52 6 112 8 132 6 33 -5 39 -2 52 23 8 17 12 48
10 77 -2 26 -5 84 -8 128 -3 44 -7 109 -11 145 -10 117 -17 223 -20 345 -2 66
-6 136 -10 155 -3 19 -8 80 -9 135 -2 55 -6 141 -9 190 -7 86 -11 152 -22 368
-5 88 -3 102 17 138 12 21 32 46 45 54 13 9 23 22 23 31 0 17 49 63 68 64 7 0
15 6 18 14 8 22 129 80 184 90 8 1 22 5 30 9 42 17 229 24 246 8z"/>
<path d="M1520 2100 c-8 -15 -8 -20 1 -20 8 0 8 -5 -1 -16 -20 -23 5 -42 75
-55 33 -6 70 -15 82 -21 25 -12 90 -3 95 14 8 24 -5 69 -23 79 -11 5 -48 13
-84 16 -36 3 -68 10 -71 14 -10 18 -63 9 -74 -11z"/>
<path d="M1898 1989 c-14 -15 -20 -83 -7 -92 2 -2 29 -9 59 -17 30 -7 60 -18
67 -24 31 -28 41 -34 59 -38 27 -5 40 17 36 60 -4 36 -7 39 -85 75 -45 21 -89
42 -97 46 -9 4 -22 0 -32 -10z"/>
</g>
</svg>
