<?xml version="1.0" standalone="no"?>
<!DOCTYPE svg PUBLIC "-//W3C//DTD SVG 20010904//EN"
 "http://www.w3.org/TR/2001/REC-SVG-20010904/DTD/svg10.dtd">
<svg version="1.0" xmlns="http://www.w3.org/2000/svg"
 width="549.000000pt" height="455.000000pt" viewBox="0 0 549.000000 455.000000"
 preserveAspectRatio="xMidYMid meet">
<metadata>
Created by potrace 1.16, written by Peter Selinger 2001-2019
</metadata>
<g transform="translate(0.000000,455.000000) scale(0.100000,-0.100000)"
fill="#000000" stroke="none">
<path d="M2725 4208 c-30 -33 -55 -65 -55 -71 0 -7 -14 -28 -30 -47 -17 -19
-42 -53 -57 -75 -15 -22 -35 -49 -45 -60 -32 -36 -68 -83 -68 -89 0 -6 -27
-38 -75 -90 -45 -48 -78 -87 -105 -126 -13 -19 -32 -41 -42 -48 -22 -16 -96
-83 -155 -140 -24 -23 -61 -54 -81 -67 -38 -26 -104 -75 -135 -100 -9 -8 -22
-15 -27 -15 -6 0 -10 -9 -10 -19 0 -23 -19 -32 -42 -20 -14 8 -18 3 -25 -28
-4 -21 -5 -42 -3 -48 4 -10 7 -110 8 -290 1 -49 1 -97 1 -105 0 -8 3 -62 6
-120 10 -177 11 -300 4 -300 -4 0 -4 -12 0 -27 6 -22 7 -111 2 -144 -1 -3 -26
-2 -57 1 -30 3 -57 2 -60 -2 -3 -5 -10 -6 -15 -3 -15 10 -38 -21 -32 -43 5
-22 -61 -93 -237 -254 -47 -43 -121 -113 -166 -155 -45 -43 -121 -114 -169
-158 -49 -44 -103 -95 -122 -114 -18 -19 -33 -31 -33 -27 0 3 -8 -2 -18 -11
-10 -10 -30 -27 -45 -38 -15 -11 -34 -30 -43 -43 -13 -20 -13 -25 1 -52 9 -17
21 -30 28 -31 120 -4 116 -3 123 -46 6 -36 -36 -83 -74 -83 -30 0 -103 20
-116 32 -16 13 -66 9 -82 -6 -8 -8 -14 -22 -14 -31 0 -9 -8 -19 -19 -22 -10
-3 -36 -29 -57 -59 -22 -29 -45 -54 -51 -54 -7 0 -13 -6 -13 -12 -1 -21 -160
-199 -171 -192 -4 2 -18 -18 -31 -45 -13 -28 -29 -50 -35 -51 -7 0 -24 -9 -37
-21 -22 -20 -24 -28 -17 -95 1 -6 28 -10 67 -9 72 1 326 -46 348 -64 7 -6 21
-8 30 -5 20 8 62 -2 281 -65 39 -12 102 -25 141 -31 40 -5 82 -14 95 -19 23
-8 69 -14 204 -27 101 -9 226 -31 305 -53 41 -12 92 -21 113 -21 21 0 46 -4
56 -10 10 -5 43 -11 73 -13 30 -2 64 -9 75 -15 11 -6 31 -9 43 -7 12 2 55 -2
95 -10 40 -7 117 -17 171 -20 55 -4 102 -9 105 -11 3 -2 43 -4 88 -5 45 -2 84
-6 86 -10 11 -17 135 2 135 20 0 10 81 134 95 146 11 9 22 27 72 110 7 11 17
30 22 41 5 12 14 23 18 25 5 2 39 49 76 104 158 235 186 270 215 268 35 -1
115 -13 123 -19 4 -2 26 -6 49 -9 23 -3 50 -10 60 -15 10 -6 32 -10 49 -10 16
0 40 -4 53 -9 13 -5 63 -11 111 -15 48 -4 107 -11 130 -16 62 -13 183 -46 195
-54 6 -3 13 -2 17 3 4 7 15 7 31 1 14 -6 46 -13 70 -15 25 -3 55 -10 68 -15
12 -4 28 -5 35 -1 6 4 33 4 59 -1 156 -29 169 -31 234 -25 57 5 67 12 99 72
53 101 55 104 132 197 31 38 65 81 74 95 9 14 34 43 55 65 21 22 38 44 38 48
0 5 12 22 26 37 14 15 53 67 85 114 33 47 68 94 79 104 11 10 20 22 20 27 0
12 66 114 90 141 11 11 26 33 32 49 7 15 16 28 21 28 4 0 19 24 32 52 14 29
39 73 55 98 25 39 28 51 21 82 -6 24 -5 38 1 40 12 4 12 5 3 448 -10 437 -10
860 -1 1000 4 63 8 165 9 226 1 65 7 117 13 125 7 8 9 29 7 47 -4 26 -8 30
-19 21 -8 -6 -14 -7 -14 -2 0 6 -28 13 -62 17 -66 6 -83 9 -108 19 -25 9 -131
21 -193 22 -31 0 -57 3 -57 8 0 4 -12 7 -28 7 -15 0 -67 14 -115 30 -49 17
-92 28 -97 25 -4 -3 -37 4 -73 15 -36 11 -94 23 -129 26 -35 2 -85 11 -113 19
-58 16 -138 31 -210 40 -49 6 -136 23 -340 66 -55 12 -143 30 -195 39 -125 24
-188 37 -225 48 -25 8 -90 12 -237 16 -16 1 -28 4 -28 9 0 4 -11 7 -24 7 -14
0 -66 9 -118 20 -51 11 -113 25 -138 30 -86 19 -105 13 -165 -52z m295 -77
c55 -20 169 -39 240 -41 41 0 82 -3 90 -5 8 -3 60 -12 115 -20 55 -8 132 -22
170 -30 39 -9 97 -20 129 -26 33 -5 77 -14 98 -20 59 -15 540 -109 564 -109
11 0 24 -4 30 -9 5 -5 36 -11 69 -14 57 -5 166 -30 188 -44 5 -3 26 -7 46 -9
20 -2 47 -6 61 -8 14 -3 39 -7 55 -10 17 -3 47 -12 67 -20 20 -9 50 -14 66
-12 49 5 191 -18 229 -37 l23 -13 -35 -34 c-19 -19 -35 -38 -35 -42 0 -10 -1
-11 -70 -92 -27 -33 -50 -63 -50 -67 0 -4 -6 -14 -13 -21 -7 -7 -23 -30 -36
-52 -13 -21 -45 -62 -71 -92 -25 -29 -57 -73 -69 -97 -13 -25 -39 -61 -58 -81
-19 -20 -33 -36 -30 -36 10 0 -58 -75 -142 -157 -47 -46 -88 -83 -93 -83 -4 0
-8 -7 -8 -15 0 -9 -7 -18 -15 -21 -8 -4 -15 -12 -15 -20 0 -9 -11 -14 -33 -14
-34 0 -134 26 -152 40 -5 4 -46 11 -90 14 -44 4 -96 10 -115 13 -19 3 -47 5
-62 6 -16 1 -28 5 -28 10 0 4 -3 6 -8 3 -4 -2 -25 -1 -47 4 -22 5 -76 15 -120
24 -44 9 -82 21 -84 27 -2 8 -5 8 -10 1 -5 -8 -26 -7 -71 3 -36 8 -92 17 -125
20 -108 9 -129 12 -178 24 -26 6 -98 13 -160 16 -141 6 -208 13 -221 24 -20
16 -81 30 -151 35 -38 2 -149 18 -245 34 -159 27 -226 37 -345 49 -133 13
-187 24 -247 52 -45 20 -66 34 -62 43 3 7 53 51 111 98 58 47 124 105 147 129
43 46 59 61 117 114 19 17 46 50 59 72 14 22 53 68 87 102 35 34 63 65 63 68
0 3 10 16 21 28 31 32 59 79 59 100 0 9 7 17 15 17 8 0 15 4 15 9 0 5 15 24
33 43 17 19 51 59 73 89 l41 56 94 -3 c52 -2 105 -8 119 -13z m2265 -653 c-5
-96 -13 -371 -15 -493 -1 -38 2 -131 5 -205 11 -236 8 -759 -3 -773 -8 -9 -8
-26 -1 -57 9 -39 7 -51 -12 -92 -12 -27 -26 -48 -31 -48 -4 0 -8 -6 -8 -13 0
-12 -25 -55 -97 -166 -15 -24 -41 -68 -58 -96 -33 -59 -67 -106 -105 -145 -27
-28 -42 -48 -97 -130 -21 -30 -51 -71 -68 -91 -51 -60 -83 -101 -148 -186 -50
-67 -63 -79 -65 -62 -2 12 0 24 5 28 5 3 10 21 11 40 2 25 -1 32 -11 28 -10
-4 -14 4 -15 26 -1 18 -6 46 -10 62 -5 17 -6 41 -2 55 4 14 5 36 3 50 -20 141
-23 682 -5 925 7 88 14 214 17 280 3 66 8 152 11 190 3 39 7 81 8 93 0 13 11
32 24 42 12 10 22 22 22 27 0 4 41 51 91 103 49 52 111 122 137 155 25 33 49
62 52 65 3 3 28 39 55 80 28 41 61 87 75 102 14 14 30 35 37 45 69 103 94 137
142 190 31 34 57 62 58 63 2 0 0 -42 -2 -92z m-3382 -376 c23 -1 76 -17 123
-38 30 -13 76 -26 102 -29 66 -7 178 -16 237 -19 28 -1 61 -5 75 -8 14 -4 61
-12 105 -19 44 -6 88 -16 99 -22 10 -5 35 -11 55 -12 131 -12 242 -28 302 -45
38 -10 69 -16 69 -12 0 3 5 1 12 -6 8 -8 45 -12 101 -12 58 0 86 -4 82 -10 -4
-7 3 -9 22 -5 41 10 98 6 177 -11 39 -8 94 -17 121 -20 28 -2 68 -9 90 -14 22
-5 54 -12 70 -16 17 -4 44 -8 60 -10 17 -3 53 -10 80 -18 80 -22 116 -29 175
-32 124 -7 132 -10 149 -42 14 -26 18 -28 29 -16 17 18 176 9 209 -12 12 -7
29 -11 37 -8 13 5 14 1 5 -25 -6 -18 -9 -45 -5 -61 3 -16 1 -32 -5 -36 -7 -4
-8 -21 -5 -43 10 -57 10 -57 1 -221 -9 -188 -11 -213 -21 -315 -15 -153 -2
-1067 16 -1073 17 -6 12 -79 -7 -86 -16 -7 -97 -1 -163 11 -19 3 -41 5 -49 4
-28 -5 -267 31 -330 50 -35 11 -96 22 -135 25 -39 3 -91 10 -116 16 -25 5 -61
12 -80 15 -19 2 -51 9 -70 14 -19 6 -60 14 -90 19 -46 8 -86 16 -97 19 -2 1
-6 1 -9 0 -7 -1 -24 22 -24 32 0 4 16 30 35 58 19 28 35 55 35 60 0 5 6 11 13
14 8 3 27 29 42 59 59 109 67 124 93 165 35 54 123 167 134 171 4 2 8 11 8 20
0 9 11 28 25 42 14 14 31 46 38 71 12 39 12 50 0 72 -7 15 -20 27 -28 27 -8 0
-15 4 -15 8 0 5 -21 8 -47 7 -50 -2 -107 10 -248 54 -111 35 -312 83 -465 111
-63 11 -133 25 -155 30 -22 6 -60 12 -84 15 -104 11 -258 37 -281 47 -14 7
-41 12 -60 13 -51 2 -131 14 -143 22 -5 3 -26 8 -46 10 -20 2 -56 11 -81 19
-25 9 -72 21 -105 28 l-60 12 -2 44 c-5 152 -14 367 -19 440 -7 99 -7 107 -4
140 4 32 -8 251 -16 309 -6 40 -5 42 12 33 11 -6 22 -10 27 -10z m-96 -1043
c110 -14 118 -16 139 -27 27 -13 85 -33 114 -39 14 -2 34 -8 45 -13 11 -4 55
-14 98 -21 47 -7 81 -18 84 -25 3 -8 -9 -39 -26 -69 -22 -38 -29 -63 -25 -79
8 -32 24 -39 110 -50 23 -3 61 -10 85 -16 24 -6 51 -12 59 -14 14 -3 75 -9
245 -22 62 -4 165 -32 165 -43 0 -13 55 -6 72 9 9 8 27 40 41 71 14 31 33 62
43 68 17 9 17 12 4 21 -12 8 -10 10 10 10 21 0 43 -6 130 -38 8 -3 24 -4 35
-3 12 1 81 -18 155 -43 172 -57 200 -68 200 -79 0 -20 -43 -68 -56 -63 -11 4
-11 2 -2 -14 10 -16 9 -23 -8 -42 -41 -46 -194 -296 -194 -317 0 -4 -24 -39
-53 -78 -29 -39 -61 -87 -72 -107 -11 -20 -26 -36 -33 -36 -22 0 -46 -31 -50
-63 -2 -17 -12 -42 -23 -56 -66 -85 -128 -171 -149 -206 -13 -22 -27 -42 -31
-45 -3 -3 -21 -29 -39 -58 -17 -28 -36 -52 -41 -52 -5 0 -9 -5 -9 -11 0 -10
-66 -111 -99 -152 -59 -73 -52 -69 -129 -70 -40 -1 -72 1 -72 4 0 3 -6 6 -12
6 -160 4 -336 17 -344 24 -7 5 -24 8 -38 5 -14 -3 -28 -1 -31 4 -3 5 -13 8
-23 8 -29 -1 -126 14 -150 23 -13 5 -27 7 -32 4 -4 -3 -30 2 -56 10 -27 8 -59
15 -71 15 -13 0 -23 3 -23 8 0 4 -16 7 -35 6 -19 -1 -74 7 -122 18 -49 10
-119 21 -158 23 -38 3 -97 10 -130 16 -33 7 -71 13 -85 15 -27 4 -81 12 -116
18 -11 1 -27 7 -34 11 -7 4 -36 10 -64 12 -27 2 -64 10 -81 18 -53 23 -97 35
-132 35 -18 0 -59 9 -91 21 -31 11 -70 22 -87 24 -57 9 -188 50 -192 62 -2 6
21 36 52 66 30 31 55 59 55 62 0 4 14 20 30 37 17 16 30 33 30 37 0 4 17 25
37 47 21 22 53 57 72 78 28 32 38 37 60 31 14 -3 34 -7 43 -9 10 -1 20 -5 24
-8 3 -4 17 -3 31 3 13 5 37 9 53 9 32 0 124 76 136 113 20 61 -18 187 -57 187
-10 0 -21 5 -24 10 -3 6 1 10 9 10 9 0 16 7 16 15 0 9 13 24 30 33 16 9 30 20
30 23 0 8 58 69 66 69 3 0 31 26 63 58 31 31 109 107 173 167 184 174 270 259
313 309 45 52 37 50 142 35z m723 -153 c111 -12 150 -18 225 -31 44 -8 98 -18
120 -21 22 -3 43 -8 48 -11 10 -6 9 -33 -2 -33 -5 0 -9 -6 -8 -12 1 -44 -1
-45 -65 -37 -35 5 -107 11 -162 14 -54 3 -103 8 -109 12 -6 4 -20 8 -31 9 -33
3 -160 36 -169 45 -5 4 0 16 12 28 12 12 21 27 21 34 0 12 30 13 120 3z"/>
<path d="M2815 2449 c-42 -12 -60 -38 -60 -89 l0 -45 -45 4 c-25 1 -49 6 -55
9 -16 10 -34 13 -124 23 -46 4 -98 13 -116 19 -54 18 -77 22 -145 27 -79 5
-117 -7 -126 -42 -5 -19 -12 -25 -24 -22 -13 3 -18 -1 -18 -17 1 -11 -5 -36
-13 -54 -12 -28 -12 -34 0 -41 7 -5 11 -14 7 -19 -4 -7 11 -16 36 -23 24 -6
50 -14 58 -17 8 -3 26 -7 40 -8 14 -2 41 -6 60 -10 19 -4 44 -9 54 -11 11 -2
25 -8 32 -14 7 -6 18 -8 24 -4 5 3 10 2 10 -3 0 -5 31 -14 70 -21 38 -7 72
-16 75 -20 2 -4 50 -13 107 -20 57 -7 117 -14 133 -17 17 -3 49 -7 71 -9 23
-3 53 -9 68 -15 15 -5 47 -10 72 -10 25 0 57 -6 72 -14 15 -7 48 -16 75 -19
26 -4 68 -13 95 -21 26 -9 67 -17 92 -20 25 -2 74 -12 110 -21 36 -9 76 -19
90 -21 14 -3 77 -14 140 -26 63 -11 133 -27 155 -35 22 -9 78 -18 125 -21 47
-3 98 -11 115 -18 28 -11 32 -10 57 19 16 17 28 33 28 36 1 3 3 45 6 93 l6 88
-27 10 c-15 6 -30 8 -35 5 -5 -3 -28 1 -52 9 -24 8 -69 18 -100 21 -31 3 -69
10 -83 15 -15 6 -37 10 -50 10 -13 0 -36 6 -52 14 -15 8 -71 22 -124 32 -95
17 -95 17 -91 44 2 15 -2 38 -8 51 -10 17 -10 24 -1 27 6 2 11 9 11 15 0 23
-45 42 -100 43 -30 0 -95 9 -145 19 -49 10 -100 18 -112 19 -12 0 -24 4 -28 8
-4 4 -13 4 -21 1 -8 -3 -14 0 -14 6 0 6 -6 8 -13 6 -13 -6 -59 3 -166 30 -67
16 -95 31 -86 46 6 9 -20 8 -60 -2z m171 -150 c87 -23 179 -42 294 -60 41 -7
77 -15 80 -18 3 -3 11 -6 18 -7 6 -1 21 -2 32 -2 22 -2 28 -31 8 -33 -32 -4
-77 3 -128 18 -30 9 -75 18 -100 20 -40 4 -184 36 -282 63 -39 11 -53 40 -20
40 11 0 54 -9 98 -21z m-133 -116 c-7 -2 -19 -2 -25 0 -7 3 -2 5 12 5 14 0 19
-2 13 -5z m882 -202 c17 -4 64 -9 105 -10 41 -1 79 -6 85 -11 5 -4 36 -11 68
-15 54 -7 81 -25 63 -42 -9 -10 -155 -6 -169 4 -22 17 -175 53 -225 53 -42 0
-57 14 -38 33 13 12 23 14 49 5 17 -5 46 -13 62 -17z"/>
<path d="M2172 1499 c-13 -5 -37 -10 -55 -11 -18 -1 -36 -5 -42 -9 -5 -4 -13
-8 -17 -8 -41 -6 -68 -15 -68 -22 0 -5 -10 -14 -23 -20 -58 -26 -112 -241 -67
-269 7 -4 10 -12 7 -17 -8 -13 34 -67 87 -111 24 -20 112 -62 129 -62 8 0 20
-7 27 -15 8 -10 17 -12 24 -6 6 5 31 9 56 8 25 0 68 4 95 8 28 5 55 9 61 9 6
1 35 12 65 26 60 28 116 78 124 112 20 89 22 113 13 146 -9 32 -34 79 -48 92
-3 3 -16 19 -28 36 -27 39 -81 66 -142 69 -46 3 -90 19 -90 33 0 4 -16 9 -37
10 -20 2 -39 4 -42 6 -3 2 -16 0 -29 -5z m77 -115 c21 -8 45 -14 52 -13 8 2
37 -3 65 -10 38 -9 54 -19 63 -37 6 -13 18 -27 26 -30 8 -4 15 -14 15 -24 0
-11 5 -22 10 -25 13 -8 13 -30 -1 -78 -7 -27 -21 -44 -52 -64 -55 -34 -97 -44
-186 -43 -58 1 -83 6 -120 26 -62 34 -72 42 -103 91 -25 39 -27 45 -18 98 9
54 33 90 52 79 5 -3 8 0 8 5 0 6 8 11 18 11 10 0 22 4 28 9 8 9 39 15 86 20
10 0 35 -6 57 -15z"/>
<path d="M2230 1288 c0 -6 -3 -9 -6 -5 -11 10 -41 -35 -39 -57 1 -12 3 -26 4
-32 1 -16 38 -24 71 -17 17 3 33 16 41 32 20 42 19 52 -9 63 -15 5 -35 14 -44
19 -12 6 -18 5 -18 -3z"/>
<path d="M1105 2283 c-16 -19 -108 -115 -203 -212 -95 -97 -187 -193 -203
-213 -16 -20 -39 -40 -49 -43 -11 -4 -20 -13 -20 -21 0 -8 -4 -14 -10 -14 -5
0 -10 -4 -10 -9 0 -11 -64 -81 -74 -81 -4 0 -4 5 -1 10 13 21 -6 70 -29 76
-46 11 -72 -10 -89 -73 -10 -33 -31 -86 -48 -119 -17 -32 -38 -72 -47 -89 -8
-16 -20 -37 -27 -45 -24 -29 -23 -57 1 -83 24 -26 53 -27 84 -2 17 13 52 29
61 27 4 -1 15 8 24 18 10 11 29 20 42 20 12 0 23 4 23 9 0 5 13 12 30 16 16 4
32 11 35 16 4 5 39 25 80 45 69 34 73 37 77 73 3 38 -18 74 -45 77 -36 3 -37
4 -19 25 35 44 129 147 217 236 50 51 127 131 173 178 45 47 86 85 90 85 4 0
17 15 30 34 27 39 18 79 -20 89 -36 10 -41 8 -73 -30z"/>
</g>
</svg>
