<?xml version="1.0" standalone="no"?>
<!DOCTYPE svg PUBLIC "-//W3C//DTD SVG 20010904//EN"
 "http://www.w3.org/TR/2001/REC-SVG-20010904/DTD/svg10.dtd">
<svg version="1.0" xmlns="http://www.w3.org/2000/svg"
 width="361.000000pt" height="447.000000pt" viewBox="0 0 361.000000 447.000000"
 preserveAspectRatio="xMidYMid meet">
<metadata>
Created by potrace 1.16, written by Peter Selinger 2001-2019
</metadata>
<g transform="translate(0.000000,447.000000) scale(0.100000,-0.100000)"
fill="#000000" stroke="none">
<path d="M2016 4263 c-26 -11 -40 -13 -45 -5 -6 10 -98 -22 -111 -39 -3 -3
-20 -14 -37 -23 -51 -26 -109 -83 -178 -176 -103 -139 -156 -260 -200 -455 -8
-38 -22 -215 -19 -247 11 -127 21 -163 63 -232 32 -52 47 -66 100 -92 34 -18
62 -35 61 -40 -1 -5 4 -10 11 -13 7 -2 9 1 5 8 -4 6 -2 11 3 11 18 0 12 -31
-14 -88 -14 -30 -25 -61 -25 -69 0 -12 -9 -14 -47 -9 -27 4 -79 8 -116 11 -70
4 -132 15 -221 41 -26 8 -55 14 -63 14 -22 0 -38 -22 -39 -52 -1 -16 -17 -70
-36 -120 -19 -51 -41 -111 -48 -132 -7 -22 -27 -63 -45 -90 -18 -28 -36 -70
-40 -93 -4 -24 -11 -43 -16 -43 -5 0 -9 -7 -9 -15 0 -8 -4 -15 -8 -15 -22 0
-112 -187 -112 -232 0 -10 -4 -18 -8 -18 -9 0 -42 -64 -42 -80 0 -6 -9 -30
-21 -54 -11 -25 -21 -51 -23 -58 -1 -7 -4 -17 -8 -23 -3 -5 -18 -41 -33 -80
-61 -159 -58 -145 -36 -200 7 -16 12 -31 12 -33 -1 -1 6 -16 14 -32 9 -17 13
-30 9 -30 -4 0 -2 -6 5 -13 6 -8 18 -67 27 -133 8 -65 21 -159 28 -207 13 -83
12 -91 -6 -129 -11 -23 -21 -55 -23 -72 -1 -17 -12 -53 -25 -81 -31 -69 -36
-83 -55 -140 -10 -27 -23 -63 -30 -80 -50 -114 -68 -149 -80 -162 -8 -8 -16
-22 -16 -31 -1 -9 -2 -24 -3 -32 -1 -17 80 -98 139 -138 22 -15 56 -41 75 -59
47 -44 84 -44 106 -2 9 19 12 34 6 38 -5 3 -12 19 -16 35 -9 35 -31 58 -59 61
-12 1 -27 3 -34 4 -6 0 -32 21 -57 45 -45 45 -50 62 -27 102 19 35 70 164 64
164 -3 0 0 6 6 13 6 8 8 17 4 20 -3 4 -1 7 5 7 7 0 12 7 12 15 0 8 8 34 19 58
10 23 24 62 32 87 7 25 21 59 30 76 9 17 20 45 24 62 3 18 11 34 16 37 13 9
11 59 -5 102 -8 21 -19 72 -25 113 -5 41 -13 89 -16 105 -16 76 -31 185 -25
185 4 0 38 -11 76 -24 38 -13 87 -27 109 -31 22 -4 46 -12 53 -18 7 -5 15 -7
18 -4 3 3 20 1 37 -5 18 -5 52 -11 77 -13 65 -5 141 -20 255 -50 55 -15 107
-28 115 -29 8 -2 18 -18 22 -37 3 -19 14 -61 23 -94 9 -33 20 -87 24 -120 5
-33 21 -105 35 -160 15 -55 29 -111 32 -125 3 -13 9 -29 13 -35 16 -20 38
-114 34 -146 -2 -19 -5 -52 -7 -74 -3 -33 -13 -78 -32 -140 -2 -5 -8 -28 -13
-50 -10 -42 -22 -80 -53 -157 -36 -91 -18 -130 58 -123 21 3 103 7 181 11 132
7 143 9 149 28 4 12 2 22 -5 24 -9 3 -9 7 -1 17 9 10 6 19 -10 35 -18 18 -28
21 -54 15 -32 -8 -70 -12 -164 -18 -53 -3 -53 -3 -47 22 4 14 9 37 12 51 2 13
8 29 13 35 5 6 12 31 16 55 4 25 11 53 16 62 5 10 11 39 13 64 3 25 10 76 16
113 18 104 18 154 -1 168 -9 6 -24 38 -35 70 -10 32 -22 70 -27 85 -6 15 -10
30 -9 32 0 3 -6 24 -14 47 -13 36 -43 179 -50 236 -7 57 -19 111 -30 144 -8
20 -10 41 -5 45 4 5 18 43 30 84 12 41 28 89 36 107 8 17 14 36 14 43 0 6 17
64 39 128 21 64 42 132 46 150 7 36 15 38 74 17 22 -8 41 -12 41 -8 0 3 11 -2
25 -11 13 -9 33 -16 44 -16 25 0 173 -53 256 -92 14 -6 42 -12 63 -12 22 -1
46 -9 59 -21 13 -11 49 -27 80 -36 56 -15 58 -17 57 -50 -1 -58 -14 -189 -24
-238 -9 -45 -18 -117 -25 -196 -2 -22 -8 -55 -14 -73 -5 -18 -10 -36 -11 -40
-1 -4 -13 -14 -28 -22 -15 -8 -28 -18 -30 -22 -2 -5 -10 -8 -17 -8 -12 0 -43
-32 -73 -76 -65 -97 -101 -157 -110 -183 -12 -35 -8 -71 10 -82 9 -6 9 -17 -2
-48 -9 -30 -10 -44 -2 -54 6 -7 9 -37 7 -68 -2 -29 -7 -115 -10 -189 -6 -122
-12 -200 -19 -285 -2 -24 2 -33 26 -44 32 -16 58 -2 58 30 0 11 3 19 8 19 4 0
7 75 7 167 0 93 4 209 9 258 11 113 11 114 3 148 -7 26 -6 27 31 27 l38 0 -2
-157 c-1 -87 -4 -169 -8 -183 -4 -14 -9 -65 -12 -115 -2 -50 -6 -95 -9 -102
-8 -23 25 -73 48 -73 51 1 55 15 54 170 -1 167 12 370 24 385 4 6 4 17 -1 25
-15 23 -12 30 14 30 22 0 26 -6 32 -46 4 -26 1 -83 -5 -128 -16 -101 -25 -324
-17 -381 8 -52 40 -73 75 -49 21 15 21 21 18 167 -3 84 0 184 4 222 5 39 12
98 15 132 4 34 10 60 14 58 15 -9 22 -98 25 -323 2 -164 7 -237 15 -247 13
-16 65 -21 74 -7 10 16 8 141 -8 492 -4 81 -3 83 10 47 7 -20 14 -82 15 -136
1 -55 5 -119 10 -143 19 -101 25 -159 17 -164 -4 -3 -2 -17 6 -32 8 -15 17
-34 19 -43 7 -21 55 -30 80 -15 19 12 19 50 -3 121 -18 61 -31 147 -36 232 -5
113 -10 169 -18 213 -3 19 -8 94 -10 167 -4 101 -9 142 -24 175 -10 24 -22 51
-25 60 -9 25 -84 76 -131 90 -23 6 -42 12 -43 13 -2 1 1 26 6 56 6 30 12 95
16 144 3 50 10 119 15 155 5 36 12 99 15 140 6 92 31 293 51 415 8 50 23 146
34 215 10 69 30 181 44 250 14 69 33 169 41 223 8 53 16 101 19 106 3 5 8 46
11 92 3 46 7 98 10 114 2 17 7 84 10 151 4 66 13 149 21 185 38 163 38 169 16
192 -18 17 -25 19 -45 10 -21 -10 -26 -25 -45 -125 -24 -130 -32 -187 -37
-278 -13 -241 -17 -288 -25 -315 -5 -16 -14 -61 -20 -100 -5 -38 -14 -88 -19
-110 -6 -22 -12 -51 -15 -65 -4 -21 -11 -25 -44 -26 -22 0 -45 -6 -53 -12 -40
-35 -67 -57 -99 -81 -19 -14 -37 -29 -40 -32 -3 -4 -32 -23 -64 -44 l-59 -38
-18 24 c-10 13 -19 29 -19 34 0 6 -8 18 -17 27 -10 8 -34 35 -53 58 -19 23
-45 54 -58 69 -13 14 -30 38 -37 53 -18 33 -62 68 -86 68 -10 0 -38 6 -61 13
-41 13 -104 28 -175 42 l-31 6 20 62 c11 34 23 65 27 69 3 4 37 8 75 9 75 3
188 32 222 58 12 9 32 23 44 31 30 20 89 83 111 119 9 16 22 32 28 35 6 4 32
50 58 104 26 53 62 123 80 155 18 32 40 85 48 116 8 32 21 76 30 100 16 46 24
261 11 321 -29 140 -61 195 -134 231 -26 13 -50 28 -53 32 -3 5 -9 8 -13 7 -3
0 -30 7 -59 16 -77 24 -164 27 -211 7z m114 -91 c36 -5 97 -23 135 -39 62 -26
72 -34 92 -73 30 -63 37 -107 35 -245 0 -97 -5 -131 -21 -173 -12 -29 -21 -61
-21 -70 0 -10 -18 -52 -40 -95 -21 -43 -40 -81 -41 -85 0 -4 -13 -27 -27 -52
-13 -25 -36 -65 -50 -89 -13 -24 -46 -65 -73 -90 -27 -26 -49 -52 -49 -58 0
-32 -141 -77 -208 -67 -20 3 -32 1 -32 -6 0 -6 -5 -8 -12 -4 -7 4 -21 9 -33
10 -39 5 -118 25 -138 35 -41 23 -115 135 -116 179 0 8 -3 46 -7 84 -10 104
12 255 52 356 19 46 34 90 34 98 0 25 124 212 175 263 28 28 86 70 130 94 85
47 80 46 215 27z m-737 -1459 c51 -2 106 -8 122 -13 17 -5 56 -9 89 -9 32 -1
86 -5 120 -11 33 -5 79 -12 101 -15 74 -11 107 -25 100 -44 -24 -59 -105 -302
-105 -315 0 -8 -6 -30 -14 -48 -8 -18 -19 -51 -25 -73 -6 -22 -13 -49 -16 -61
-4 -16 -11 -20 -30 -16 -14 2 -28 8 -31 13 -3 5 -16 9 -29 9 -42 0 -136 42
-145 65 -11 28 -47 111 -70 160 -10 22 -30 67 -44 100 -13 33 -49 108 -79 167
-30 59 -50 105 -45 102 5 -3 51 -8 101 -11z m-174 -74 c44 -72 97 -171 106
-200 4 -13 20 -51 36 -84 15 -33 30 -74 34 -92 3 -18 14 -47 24 -65 11 -18 22
-45 25 -61 11 -63 12 -64 109 -86 158 -37 168 -41 161 -65 -13 -46 -76 -243
-102 -316 -10 -30 -31 -94 -46 -142 -15 -48 -31 -90 -36 -93 -5 -3 -35 4 -67
15 -32 12 -69 23 -83 26 -14 3 -45 11 -70 19 -25 8 -74 16 -110 19 -36 3 -87
10 -115 16 -67 14 -218 61 -229 71 -6 5 -21 9 -35 9 -38 1 -65 24 -58 52 3 13
8 33 10 44 3 12 15 41 27 65 11 24 32 76 45 115 13 39 42 110 65 158 22 48 40
91 40 96 0 5 14 32 30 60 17 28 30 54 30 57 0 3 10 20 23 37 27 36 41 66 38
84 -1 6 3 12 9 12 6 0 10 6 9 13 -2 6 14 46 34 87 20 41 44 96 53 123 9 26 20
47 23 47 3 0 12 -10 20 -21z m847 -124 c21 -27 51 -63 67 -79 15 -16 27 -34
27 -41 0 -6 18 -36 40 -66 36 -48 44 -53 73 -51 18 2 37 9 42 16 6 8 34 26 64
42 29 16 63 39 76 51 32 33 138 103 154 103 10 0 12 -8 7 -32 -4 -18 -9 -40
-10 -48 -3 -12 -11 -73 -22 -155 0 -5 -4 -21 -7 -35 -4 -14 -9 -36 -11 -50 -3
-14 -5 -25 -6 -25 -1 0 -3 -13 -4 -30 -7 -71 -17 -134 -30 -190 -8 -33 -12
-63 -10 -67 3 -4 -17 0 -43 10 -26 9 -49 20 -51 25 -2 4 -21 7 -43 7 -21 0
-63 11 -93 25 -30 14 -67 25 -81 25 -14 0 -47 9 -73 19 -26 11 -87 31 -137 46
-147 44 -155 46 -155 51 0 2 13 42 30 89 16 47 29 88 29 90 -1 13 14 71 21 80
4 6 19 51 35 100 36 117 54 160 64 149 4 -5 25 -31 47 -59z m513 -1467 c72
-44 82 -65 94 -195 6 -66 7 -66 -145 -53 -74 6 -148 13 -164 15 -16 3 -44 7
-63 10 -42 6 -45 8 -32 32 5 10 12 25 16 33 25 63 91 139 140 161 54 25 110
24 154 -3z"/>
</g>
</svg>
