<?xml version="1.0" standalone="no"?>
<!DOCTYPE svg PUBLIC "-//W3C//DTD SVG 20010904//EN"
 "http://www.w3.org/TR/2001/REC-SVG-20010904/DTD/svg10.dtd">
<svg version="1.0" xmlns="http://www.w3.org/2000/svg"
 width="557.000000pt" height="467.000000pt" viewBox="0 0 557.000000 467.000000"
 preserveAspectRatio="xMidYMid meet">
<metadata>
Created by potrace 1.16, written by Peter Selinger 2001-2019
</metadata>
<g transform="translate(0.000000,467.000000) scale(0.100000,-0.100000)"
fill="#000000" stroke="none">
<path d="M3860 4488 c-11 -18 -20 -38 -20 -45 0 -6 -6 -18 -13 -25 -6 -7 -30
-48 -51 -90 -22 -43 -43 -78 -47 -78 -6 0 -72 -126 -69 -132 1 -2 -15 -30 -34
-62 -20 -33 -36 -65 -36 -72 0 -6 -13 -35 -29 -65 -15 -30 -34 -72 -41 -94 -7
-22 -16 -44 -20 -50 -5 -5 -10 -23 -13 -40 -7 -38 -27 -96 -40 -112 -6 -9 -6
-13 3 -13 9 0 10 -3 1 -13 -6 -8 -8 -17 -4 -20 3 -4 1 -12 -5 -19 -14 -18 -92
-252 -92 -277 0 -12 -4 -21 -8 -21 -4 0 -9 -11 -10 -25 -1 -14 -13 -53 -27
-86 -15 -34 -24 -63 -22 -65 2 -3 -2 -30 -10 -62 -8 -31 -25 -104 -39 -162
-38 -164 -37 -162 -132 -241 -48 -40 -91 -78 -97 -83 -14 -16 -83 -67 -130
-97 -22 -14 -52 -37 -66 -50 -39 -36 -70 -53 -333 -179 -83 -39 -175 -80 -205
-90 -85 -29 -171 -66 -184 -79 -6 -6 -18 -11 -27 -11 -9 0 -20 -4 -26 -10 -11
-11 -152 -65 -231 -88 -29 -8 -53 -19 -53 -24 0 -4 -7 -8 -16 -8 -9 0 -35 -9
-58 -21 -22 -12 -54 -28 -71 -36 -16 -9 -52 -27 -80 -41 -27 -14 -55 -25 -62
-25 -7 0 -13 -5 -13 -10 0 -6 -3 -8 -6 -5 -3 3 -43 -7 -89 -23 -84 -29 -84
-29 -156 -14 -41 8 -77 11 -83 6 -12 -9 -6 -9 -317 -14 -119 -3 -221 -7 -227
-11 -6 -3 -13 0 -15 6 -3 8 -6 6 -6 -4 -1 -10 -5 -18 -11 -18 -5 0 -10 -5 -10
-12 0 -6 -7 -20 -17 -30 -9 -10 -11 -18 -5 -18 6 0 13 -8 17 -19 9 -29 42 -38
99 -28 28 5 59 13 70 19 10 5 60 8 112 7 51 -2 96 0 100 4 10 10 58 9 70 -2 5
-4 34 -6 64 -2 59 7 140 5 233 -5 34 -3 57 -2 57 4 0 8 81 45 105 47 30 3 96
28 118 45 14 11 36 21 49 22 12 2 28 8 33 14 15 18 116 70 150 78 16 4 48 16
72 27 23 10 46 19 51 19 13 0 126 46 218 90 45 21 91 41 103 45 11 3 21 10 21
14 0 4 14 8 31 9 27 2 163 63 362 163 31 16 58 28 60 26 5 -4 153 92 171 112
11 12 23 21 27 21 8 0 36 20 64 48 8 6 18 12 23 12 6 0 37 26 71 58 79 75 111
102 119 102 11 1 82 69 82 78 0 5 11 15 25 22 15 8 25 22 25 36 0 13 5 26 11
30 6 3 8 16 5 29 -3 13 -1 47 5 76 6 30 12 69 14 88 2 18 16 68 30 112 14 43
25 87 25 97 0 10 9 45 21 78 11 32 29 93 40 134 20 80 32 114 57 170 9 19 16
42 17 50 2 18 52 184 65 215 49 115 64 145 71 145 5 0 9 9 9 19 0 20 127 276
182 366 17 28 45 77 62 111 29 55 31 63 18 82 -22 33 -59 28 -82 -10z"/>
<path d="M2456 4298 c-14 -23 -12 -61 10 -213 11 -74 14 -311 6 -430 -10 -151
-3 -192 35 -201 31 -8 109 29 140 66 11 13 14 13 23 0 5 -8 10 -24 10 -35 1
-11 3 -45 5 -75 3 -30 7 -111 10 -180 3 -69 7 -147 9 -175 2 -27 -3 -69 -10
-93 -12 -41 -11 -47 18 -103 17 -32 33 -60 37 -60 41 -9 54 -3 85 33 19 22 36
36 39 31 3 -4 7 -30 8 -56 2 -34 -1 -51 -11 -57 -10 -6 -11 -10 -3 -10 7 0 10
-7 6 -16 -3 -9 0 -20 8 -25 8 -4 14 -14 15 -21 3 -32 5 -37 27 -44 36 -13 42
-12 62 2 13 10 19 25 18 52 -1 20 -2 94 -3 164 l-1 126 -33 16 c-18 9 -39 22
-46 31 -18 22 -31 19 -62 -17 -15 -18 -29 -28 -29 -23 -7 48 -8 78 -7 130 0
33 1 102 2 152 0 51 4 93 7 93 9 0 4 269 -5 302 -4 15 -18 34 -31 42 -19 12
-26 13 -48 1 -14 -7 -28 -11 -31 -7 -3 3 -6 1 -6 -5 0 -6 -16 -20 -35 -31
l-34 -21 -6 32 c-3 18 -8 46 -11 62 -3 17 -8 48 -10 70 -2 22 -7 51 -11 65 -4
14 -7 46 -8 71 -1 26 -5 51 -8 55 -4 8 -12 65 -32 236 -9 78 -66 116 -99 66z"/>
<path d="M5026 3969 c-8 -10 -12 -20 -9 -23 4 -3 1 -6 -4 -6 -6 0 -14 -18 -18
-40 -4 -22 -12 -46 -18 -53 -12 -12 -15 -24 -22 -80 -2 -15 -8 -33 -13 -40 -6
-7 -13 -30 -17 -52 -13 -66 -60 -182 -101 -245 -13 -19 -33 -62 -45 -95 -12
-33 -25 -62 -28 -65 -4 -3 -24 -39 -45 -80 -21 -41 -46 -83 -55 -94 -9 -10
-15 -21 -15 -25 3 -12 -10 -36 -47 -89 -21 -30 -41 -66 -44 -81 -3 -16 -14
-37 -23 -47 -16 -18 -35 -52 -120 -219 -20 -38 -39 -72 -42 -75 -3 -3 -12 -21
-20 -40 -8 -19 -16 -37 -19 -40 -11 -10 -33 -53 -36 -72 -3 -11 -11 -25 -19
-32 -8 -6 -22 -35 -32 -64 -10 -32 -26 -60 -40 -69 -13 -8 -24 -22 -24 -29 0
-8 -6 -14 -12 -14 -7 0 -26 -29 -41 -63 -25 -56 -27 -69 -21 -132 l6 -70 -43
-47 c-56 -61 -122 -95 -197 -103 -82 -8 -104 -13 -116 -25 -5 -5 -18 -10 -28
-10 -10 0 -48 -14 -85 -30 -36 -17 -74 -30 -84 -30 -9 0 -19 -3 -21 -7 -1 -5
-21 -17 -43 -29 -58 -30 -155 -83 -194 -107 -19 -12 -43 -22 -54 -22 -10 -1
-23 -8 -28 -16 -5 -8 -9 -10 -9 -6 0 5 -12 0 -27 -11 -24 -16 -56 -31 -73 -34
-3 -1 -22 -12 -42 -24 -21 -13 -42 -24 -48 -24 -6 0 -18 -4 -28 -9 -9 -5 -48
-20 -87 -34 -38 -13 -108 -38 -155 -55 -47 -17 -112 -38 -145 -47 -33 -9 -68
-20 -77 -25 -17 -10 -63 -22 -143 -40 -22 -5 -59 -9 -82 -10 -23 0 -43 -4 -45
-10 -1 -5 -43 -14 -93 -20 -49 -5 -113 -18 -142 -29 -28 -10 -54 -17 -57 -14
-2 2 -16 -3 -29 -12 -14 -9 -39 -17 -56 -17 -17 -1 -31 -4 -31 -8 0 -7 -48
-22 -80 -25 -59 -5 -114 -20 -136 -37 -14 -11 -27 -18 -30 -16 -7 7 -89 -81
-184 -197 -75 -91 -145 -165 -155 -165 -3 0 -14 -8 -24 -17 -40 -34 -128 -76
-231 -111 -87 -29 -121 -35 -197 -36 -73 -2 -96 -6 -112 -20 -24 -22 -143 -39
-178 -25 -20 7 -28 4 -48 -19 -55 -62 -17 -99 91 -87 37 4 77 13 88 21 12 7
64 16 121 19 55 4 119 11 142 16 93 20 223 70 279 107 32 21 75 45 94 52 39
15 144 111 165 150 8 14 27 40 44 58 16 17 28 32 26 32 -4 0 130 125 158 147
18 14 67 24 127 26 25 1 51 8 58 15 7 6 20 12 29 12 8 0 29 6 46 14 39 18 237
76 275 81 15 2 58 7 95 11 37 4 70 11 73 15 2 4 11 6 19 2 9 -3 21 -1 28 5 11
9 33 15 102 28 16 3 41 12 55 18 25 13 188 65 224 72 11 2 24 8 30 14 5 5 22
10 36 10 14 0 31 5 37 11 6 6 30 15 54 20 24 6 76 26 116 45 40 18 77 34 83
34 5 0 10 4 10 8 0 8 64 43 88 48 7 1 33 12 58 23 24 12 47 21 51 21 5 0 20
11 35 25 15 14 41 28 58 31 16 4 28 9 26 13 -3 4 24 17 59 30 35 12 69 29 76
37 6 8 27 14 45 14 19 0 34 4 34 9 0 4 21 14 48 20 26 7 63 16 82 21 19 5 52
11 74 14 82 11 195 88 266 182 41 54 41 55 39 137 -2 92 13 131 76 201 19 22
35 45 35 52 0 16 111 233 139 273 12 16 21 34 21 40 0 7 16 42 36 79 21 37 53
96 72 132 19 36 40 72 47 80 7 8 25 41 39 73 14 32 36 72 48 89 35 48 250 471
281 553 24 62 67 208 67 226 0 9 11 28 25 43 23 25 31 47 25 71 -1 6 -2 17 -2
25 2 47 -8 61 -43 58 -19 -1 -41 -10 -49 -19z"/>
<path d="M1570 3940 c-8 -5 -11 -10 -5 -10 5 0 4 -5 -3 -12 -11 -11 0 -41 39
-108 5 -8 13 -25 19 -38 19 -44 51 -108 75 -152 14 -25 25 -50 25 -56 0 -6 7
-17 15 -24 8 -7 15 -19 15 -26 0 -20 52 -134 61 -134 8 0 42 -101 54 -160 20
-94 64 -116 122 -61 31 29 122 86 127 80 1 -2 12 -24 24 -49 11 -25 50 -108
87 -185 36 -77 76 -160 87 -185 11 -25 28 -63 39 -85 10 -22 19 -45 19 -52 0
-6 18 -49 39 -95 22 -46 43 -96 46 -111 4 -15 10 -26 13 -23 3 3 11 1 18 -4
18 -16 37 -8 60 25 20 27 20 33 8 55 -12 22 -51 132 -101 283 -9 26 -20 47
-25 47 -4 0 -6 11 -2 24 3 13 -1 37 -10 54 -8 16 -18 43 -21 60 -3 17 -16 53
-30 80 -14 28 -25 57 -25 66 0 13 -30 119 -48 166 -7 19 -7 18 -16 58 -4 18
-12 29 -17 26 -6 -3 -16 -1 -24 6 -9 7 -15 8 -20 0 -3 -5 -19 -10 -34 -10 -15
0 -31 -3 -34 -7 -11 -10 -57 -13 -57 -3 0 5 -6 7 -13 5 -7 -3 -30 18 -52 46
-22 29 -47 60 -57 70 -9 9 -39 47 -68 84 -29 37 -69 84 -90 105 -20 20 -46 56
-56 79 -10 22 -21 41 -24 41 -3 0 -14 19 -24 43 -33 76 -93 115 -136 87z"/>
<path d="M752 3428 c-30 -38 -14 -63 99 -158 89 -75 147 -130 278 -262 169
-170 192 -195 228 -249 32 -49 79 -96 106 -105 27 -9 53 20 67 74 13 50 38
112 45 112 3 0 17 -19 32 -42 14 -24 49 -65 77 -93 28 -27 67 -70 86 -95 19
-24 54 -62 78 -84 23 -22 42 -44 42 -48 0 -9 31 -47 70 -88 14 -14 38 -45 55
-70 16 -25 51 -66 76 -91 39 -38 52 -45 76 -42 21 4 32 13 40 34 6 16 7 29 2
29 -5 0 -9 6 -9 13 0 12 -17 46 -96 197 -16 30 -44 71 -61 90 -18 19 -40 49
-50 67 -9 17 -24 34 -34 36 -9 3 -35 31 -57 63 -22 33 -59 79 -81 104 -23 25
-47 59 -55 75 -8 17 -23 39 -34 51 -11 11 -23 30 -26 42 -7 22 -63 62 -88 62
-8 0 -25 -11 -38 -25 -13 -14 -31 -25 -41 -25 -10 0 -26 -13 -36 -30 -9 -16
-24 -30 -31 -30 -8 0 -33 19 -56 43 -22 23 -57 52 -76 64 -20 12 -46 33 -59
47 -14 14 -28 26 -33 26 -9 0 -37 24 -96 81 -34 32 -116 96 -117 90 0 -8 -85
52 -85 60 0 5 -5 9 -12 9 -6 0 -25 10 -42 23 -27 20 -110 57 -128 57 -3 0 -10
-6 -16 -12z"/>
<path d="M3170 2182 c0 -6 -10 -12 -22 -15 -93 -23 -123 -32 -195 -59 -46 -17
-83 -35 -83 -39 0 -7 -47 -22 -52 -17 -2 2 -17 -7 -35 -20 -17 -12 -36 -22
-43 -22 -7 0 -24 -8 -38 -18 -15 -10 -52 -26 -82 -37 -30 -10 -81 -34 -113
-52 -32 -18 -62 -33 -65 -33 -4 0 -22 -13 -41 -29 -28 -23 -33 -33 -28 -53 12
-46 42 -41 136 20 47 31 104 61 127 67 l40 11 -1 -31 c-3 -40 -31 -105 -46
-105 -7 0 -10 -3 -6 -6 3 -4 -9 -36 -28 -72 -40 -75 -41 -83 -12 -137 27 -48
62 -68 91 -53 64 34 115 115 85 133 -6 4 -7 14 -4 24 15 36 14 56 -2 74 -16
17 -16 19 -1 28 14 8 15 15 7 38 -8 22 -6 35 10 62 10 19 22 53 26 77 4 27 13
46 23 49 10 3 45 19 80 34 35 16 77 31 93 34 17 3 38 10 47 15 23 12 108 37
156 46 21 4 47 15 58 26 18 18 18 19 -1 39 -11 12 -24 18 -30 15 -6 -4 -20 -2
-31 4 -11 6 -20 7 -20 2z"/>
<path d="M3675 1477 c-24 -18 -17 -50 29 -148 31 -64 50 -99 103 -194 6 -11
21 -42 32 -70 12 -27 26 -57 31 -65 6 -8 15 -27 21 -42 6 -16 17 -28 25 -28 8
0 14 -4 14 -10 0 -13 63 0 73 16 4 7 20 15 36 19 29 6 64 45 81 90 5 14 15 25
21 25 13 0 80 -68 119 -120 14 -18 54 -64 90 -101 36 -37 73 -79 83 -94 10
-14 46 -48 80 -76 34 -29 70 -65 81 -81 15 -24 25 -29 50 -26 50 5 61 21 46
73 -7 25 -16 45 -19 45 -4 0 -15 15 -25 33 -25 42 -108 171 -116 177 -3 3 -32
44 -63 92 -32 48 -64 91 -71 95 -7 5 -21 23 -31 41 -11 17 -22 32 -26 32 -4 0
-25 24 -48 54 -50 65 -65 72 -100 49 -14 -10 -31 -16 -37 -15 -6 1 -23 -11
-37 -28 -15 -16 -24 -30 -20 -30 5 0 0 -5 -9 -11 -10 -5 -18 -16 -18 -23 0
-13 -23 -28 -44 -30 -10 -1 -116 106 -116 117 0 9 -73 111 -82 115 -5 2 -8 10
-8 17 0 7 -4 15 -8 17 -4 2 -18 18 -31 36 -12 18 -27 30 -32 27 -5 -4 -9 1 -9
9 0 10 -6 13 -15 10 -8 -4 -15 -1 -15 5 0 15 -12 14 -35 -2z"/>
<path d="M3338 1233 c-31 -16 -32 -21 -17 -78 6 -22 10 -48 10 -57 0 -10 4
-18 8 -18 4 0 8 -21 9 -47 5 -111 26 -287 37 -315 10 -25 81 -24 109 0 12 10
37 25 56 33 33 15 36 15 55 -6 11 -11 21 -28 23 -36 2 -7 8 -15 13 -17 5 -2
17 -23 28 -46 10 -24 34 -65 52 -93 40 -59 63 -98 104 -173 26 -47 35 -54 55
-52 31 5 60 30 59 51 0 9 -9 30 -20 46 -10 17 -21 37 -25 45 -3 8 -10 23 -15
33 -21 40 -29 56 -72 147 -24 52 -55 127 -67 165 -12 39 -29 77 -36 86 -8 8
-14 20 -14 26 0 6 -7 14 -16 17 -24 9 -54 7 -54 -4 0 -5 -5 -10 -12 -10 -6 0
-22 -10 -35 -22 -13 -12 -24 -20 -26 -17 -2 2 -15 29 -29 59 -24 50 -30 64
-38 95 -2 6 -9 25 -17 43 -7 17 -10 32 -7 32 4 0 2 6 -3 13 -6 6 -13 24 -16
38 -6 25 -53 80 -66 78 -3 -1 -18 -8 -33 -16z"/>
<path d="M435 1159 c-56 -7 -107 -28 -100 -40 3 -4 1 -10 -4 -14 -7 -4 -6 -14
1 -29 12 -28 62 -40 79 -19 6 7 18 13 27 13 11 0 112 51 131 67 3 2 -1 9 -8
16 -13 13 -51 15 -126 6z"/>
<path d="M2900 1132 c-25 -9 -37 -33 -33 -71 2 -20 5 -98 8 -174 2 -76 6 -141
9 -146 3 -4 1 -45 -4 -89 -15 -134 16 -177 94 -133 20 12 49 21 65 21 16 0 45
7 66 16 20 8 39 13 41 11 2 -2 6 -37 9 -78 9 -116 15 -171 21 -181 3 -5 8 -53
10 -106 2 -53 4 -99 5 -102 0 -3 0 -20 -1 -38 -2 -43 15 -62 56 -62 27 0 36 5
44 24 11 29 21 220 24 459 l3 178 -35 31 c-31 26 -41 30 -79 25 -24 -2 -61
-16 -83 -31 -22 -14 -41 -24 -41 -21 -4 17 -7 26 -9 33 -1 4 -2 10 -2 13 1 3
-8 39 -18 80 -11 41 -20 84 -20 97 0 12 -4 22 -9 22 -4 0 -11 26 -15 57 -12
103 -62 180 -106 165z"/>
<path d="M554 935 c-21 -7 -52 -18 -69 -25 -16 -7 -39 -15 -49 -17 -33 -6 -57
-40 -54 -76 1 -27 8 -37 31 -47 25 -11 32 -11 41 1 6 8 32 28 58 44 26 16 44
33 42 37 -3 4 1 8 9 8 8 0 26 9 40 20 14 11 32 20 40 20 8 0 17 11 19 25 5 23
2 25 -31 23 -21 0 -55 -7 -77 -13z"/>
<path d="M705 730 c-23 -10 -146 -46 -188 -55 -19 -4 -27 -11 -24 -19 3 -8 1
-18 -4 -23 -7 -7 -1 -21 16 -41 24 -29 27 -30 53 -17 15 7 49 24 76 36 26 13
50 29 53 36 3 6 18 15 35 18 67 15 96 76 36 74 -18 0 -42 -4 -53 -9z"/>
</g>
</svg>
