<?xml version="1.0" standalone="no"?>
<!DOCTYPE svg PUBLIC "-//W3C//DTD SVG 20010904//EN"
 "http://www.w3.org/TR/2001/REC-SVG-20010904/DTD/svg10.dtd">
<svg version="1.0" xmlns="http://www.w3.org/2000/svg"
 width="529.000000pt" height="467.000000pt" viewBox="0 0 529.000000 467.000000"
 preserveAspectRatio="xMidYMid meet">
<metadata>
Created by potrace 1.16, written by Peter Selinger 2001-2019
</metadata>
<g transform="translate(0.000000,467.000000) scale(0.100000,-0.100000)"
fill="#000000" stroke="none">
<path d="M4115 4467 c-11 -6 -20 -21 -19 -32 0 -11 -8 -36 -18 -55 -10 -19
-18 -43 -18 -52 0 -10 -4 -18 -8 -18 -5 0 -15 -26 -22 -57 -7 -32 -21 -76 -31
-98 -10 -22 -24 -76 -32 -120 -34 -181 -40 -211 -43 -235 -9 -70 -18 -315 -17
-465 1 -164 3 -192 24 -300 5 -27 10 -59 10 -70 -1 -11 4 -42 9 -70 5 -27 12
-68 15 -90 11 -102 17 -135 23 -135 4 0 8 -18 10 -39 1 -21 11 -64 22 -95 10
-31 16 -56 13 -56 -3 0 -1 -6 4 -12 5 -7 11 -33 12 -57 1 -25 4 -48 7 -53 3
-4 1 -8 -5 -8 -5 0 -8 -16 -7 -35 2 -19 -3 -47 -10 -61 -8 -14 -14 -31 -14
-36 0 -6 -11 -21 -25 -34 -14 -13 -25 -28 -25 -34 0 -15 -61 -70 -77 -70 -7 0
-13 -4 -13 -10 0 -16 -88 -70 -147 -91 -30 -10 -61 -25 -67 -32 -6 -8 -31 -19
-56 -26 -25 -7 -59 -19 -76 -26 -18 -8 -48 -17 -68 -20 -20 -4 -36 -11 -36
-15 0 -4 -16 -11 -35 -14 -19 -4 -40 -12 -47 -19 -7 -7 -26 -13 -43 -15 -16
-2 -32 -8 -33 -13 -2 -5 -8 -7 -13 -3 -5 3 -9 0 -9 -5 0 -6 -7 -11 -15 -11 -8
0 -15 -5 -15 -11 0 -5 -5 -7 -10 -4 -13 8 -160 -65 -160 -79 0 -5 -3 -7 -6 -4
-3 4 -20 -3 -39 -15 -18 -12 -46 -30 -61 -39 -56 -34 -69 -43 -77 -55 -4 -7
-13 -13 -18 -13 -10 0 -70 -41 -96 -67 -7 -6 -22 -9 -33 -6 -11 3 -20 0 -20
-6 0 -13 -40 -6 -84 15 -16 8 -33 11 -39 7 -5 -3 -7 -2 -4 4 8 13 -27 44 -86
73 -26 13 -52 29 -58 37 -6 7 -17 13 -23 13 -12 0 -77 65 -86 87 -15 34 -104
113 -139 123 -38 10 -131 96 -131 121 0 8 4 8 13 1 6 -6 24 -8 40 -5 21 4 41
26 84 90 32 47 63 88 70 90 7 3 13 11 13 18 0 9 137 161 207 228 50 48 130
117 136 117 4 0 7 6 7 14 0 8 8 17 18 20 9 3 48 35 87 71 38 36 75 65 82 65 7
0 13 4 13 9 0 5 17 26 37 46 20 20 42 47 49 59 10 20 18 100 16 161 -2 61 -13
162 -19 175 -7 17 -9 27 -17 90 -3 25 -10 70 -16 100 -7 30 -13 69 -15 85 -2
17 -11 66 -20 110 -10 44 -19 95 -21 113 -2 18 -6 37 -9 42 -4 6 -8 82 -11
170 -2 89 -11 192 -18 231 -13 67 -14 233 -2 326 7 55 -12 68 -69 49 -18 -6
-20 -17 -23 -109 -2 -86 9 -224 24 -302 2 -11 7 -94 10 -185 6 -198 6 -190 13
-190 3 0 7 -18 8 -39 1 -22 10 -73 18 -113 9 -40 18 -100 21 -133 3 -33 7 -67
11 -75 6 -16 8 -29 17 -118 4 -30 10 -70 14 -90 4 -20 7 -84 7 -143 -1 -125
-9 -142 -104 -221 -12 -10 -23 -18 -25 -18 -3 0 -18 -12 -34 -27 -17 -16 -46
-43 -65 -60 -19 -18 -39 -33 -43 -33 -3 0 -60 -54 -125 -120 -65 -66 -124
-120 -131 -120 -6 0 -9 -2 -6 -5 2 -3 -21 -32 -53 -65 -32 -33 -65 -73 -74
-90 -8 -16 -19 -30 -23 -30 -4 0 -22 -22 -40 -50 -34 -53 -56 -57 -72 -15 -11
29 -68 51 -76 30 -5 -11 -10 -12 -25 -2 -17 10 -24 7 -57 -29 l-37 -41 -35 28
c-19 16 -39 29 -44 29 -5 0 -28 8 -50 18 -78 35 -194 62 -269 62 -41 0 -76 -3
-80 -6 -3 -4 -46 -8 -94 -9 -105 -4 -102 -4 -180 -21 -54 -12 -93 -28 -227
-89 -90 -41 -172 -57 -279 -57 -93 0 -110 -3 -125 -19 -21 -22 -156 -48 -287
-55 -49 -3 -94 -9 -99 -14 -17 -17 -8 -89 15 -122 l22 -31 116 7 c172 10 170
10 251 1 41 -5 100 -7 130 -6 30 1 87 4 125 5 73 3 262 46 305 70 31 17 88 35
126 41 16 2 56 13 89 25 154 54 291 72 326 43 8 -6 30 -13 49 -15 31 -3 35 -7
36 -31 1 -26 -1 -28 -25 -21 -71 20 -123 -10 -131 -76 -4 -37 -10 -45 -45 -63
-69 -36 -74 -37 -81 -26 -10 17 -129 5 -149 -14 -8 -9 -15 -24 -15 -34 0 -27
-38 -47 -95 -50 -71 -3 -100 -9 -185 -33 -41 -12 -82 -23 -90 -24 -30 -4 -135
-40 -140 -48 -4 -4 -33 -17 -65 -28 -96 -33 -172 -93 -233 -185 -15 -22 -32
-44 -38 -50 -7 -5 -17 -27 -24 -47 -6 -21 -16 -40 -21 -43 -28 -18 -76 -194
-78 -285 -1 -51 17 -138 39 -190 10 -25 21 -58 25 -73 8 -41 114 -140 172
-162 26 -10 57 -24 68 -31 18 -11 126 -21 270 -25 92 -3 350 12 380 21 17 6
59 12 95 14 36 2 94 8 129 14 52 9 213 15 366 14 17 0 41 0 55 0 14 0 93 2
175 4 83 2 184 2 225 -2 l75 -6 -25 -20 c-54 -43 -172 -89 -270 -104 -184 -29
-357 -36 -370 -14 -5 8 -9 5 -13 -9 -3 -12 -12 -21 -20 -21 -9 0 -28 -5 -44
-11 -15 -6 -28 -9 -28 -8 0 1 -10 -3 -22 -10 -13 -6 -84 -14 -165 -17 -79 -2
-158 -10 -175 -16 -49 -18 -53 -57 -13 -130 28 -52 39 -62 61 -60 25 3 58 12
81 21 15 5 98 12 185 14 121 4 168 9 198 22 22 10 49 21 60 26 11 4 67 11 125
14 58 4 130 13 160 21 30 8 77 17 104 19 27 3 54 9 60 13 6 4 43 19 81 32 39
13 76 30 83 37 7 7 39 30 70 50 31 21 81 62 110 91 29 28 57 52 63 52 5 0 12
7 16 16 4 11 8 12 13 4 8 -13 34 -15 70 -5 14 4 39 8 56 9 17 2 37 7 45 12 7
4 104 9 214 11 110 2 220 5 245 8 25 2 70 7 100 9 30 3 70 8 87 12 29 6 34 4
43 -22 19 -52 21 -59 20 -62 0 -1 9 -20 21 -42 l23 -40 155 0 c86 0 199 7 251
14 52 8 122 17 155 20 33 3 105 10 160 15 55 5 183 10 284 11 196 1 246 11
248 46 2 48 2 202 -1 232 -1 18 -8 38 -14 44 -8 8 -7 18 3 38 8 15 12 38 10
51 -3 13 -7 80 -10 149 -7 170 -13 236 -25 295 -5 28 -12 77 -15 110 -4 33 -8
67 -11 75 -4 18 -24 191 -30 270 -11 147 -28 202 -82 256 -47 47 -113 104
-120 104 -4 0 -24 9 -46 20 -41 23 -75 21 -153 -5 -24 -8 -48 -15 -53 -15 -5
0 -50 -29 -99 -65 -50 -36 -95 -65 -100 -65 -6 0 -15 -9 -21 -20 -6 -11 -15
-18 -19 -15 -5 2 -24 -9 -42 -25 -19 -16 -46 -35 -61 -41 -16 -6 -28 -17 -28
-25 0 -8 -6 -11 -15 -8 -13 5 -131 -64 -196 -115 -14 -11 -39 -23 -55 -27 -26
-6 -92 -40 -104 -54 -14 -15 -141 -69 -177 -75 -24 -4 -46 -12 -50 -18 -15
-23 -195 -90 -273 -102 -25 -4 -54 -9 -65 -12 -48 -11 -130 6 -130 27 0 7 9
18 20 24 34 19 169 105 182 116 7 5 15 10 19 10 4 0 15 7 23 14 25 23 213 116
233 116 10 0 18 3 18 8 0 7 51 27 98 39 12 3 22 9 22 14 0 5 6 6 14 3 8 -3 35
4 60 16 25 11 61 23 79 27 17 3 39 11 47 18 8 7 33 18 55 24 74 23 95 33 96
50 0 9 3 11 5 5 5 -13 108 38 121 60 5 7 23 21 41 32 39 22 132 131 132 154 0
9 4 20 9 26 6 5 12 23 16 39 10 55 15 248 6 259 -5 6 -16 43 -24 81 -9 39 -23
90 -31 114 -9 24 -13 47 -10 53 3 5 1 15 -5 22 -6 7 -15 57 -21 112 -6 54 -15
113 -20 129 -16 57 -30 191 -32 315 -2 120 8 377 17 430 2 14 7 48 10 75 3 28
11 70 17 95 5 25 12 57 14 71 2 15 10 46 19 70 8 24 15 51 15 59 0 8 11 44 24
80 51 141 89 261 83 266 -10 11 -56 11 -72 1z m-1195 -1531 c0 -2 -7 -7 -16
-10 -8 -3 -12 -2 -9 4 6 10 25 14 25 6z m-283 -363 c-3 -10 -5 -2 -5 17 0 19
2 27 5 18 2 -10 2 -26 0 -35z m-1082 -469 c11 -8 31 -14 45 -14 14 0 36 -7 50
-15 14 -7 43 -23 65 -34 22 -11 48 -28 58 -39 15 -17 16 -21 3 -31 -23 -19
-50 -20 -63 -1 -7 10 -27 17 -49 18 -20 1 -42 7 -50 13 -14 12 -165 15 -183 4
-11 -6 -15 -7 -86 -19 -41 -7 -54 -11 -240 -70 -229 -73 -323 -93 -437 -95
-96 -1 -108 1 -118 18 -12 24 -3 51 18 51 8 0 12 3 9 7 -13 13 16 33 49 33 18
0 45 5 60 10 15 6 43 13 63 16 20 3 41 9 46 14 6 4 21 11 35 15 14 4 72 28
129 52 130 57 191 69 367 78 76 4 140 8 141 9 7 7 70 -8 88 -20z m400 -104 c3
-6 -1 -7 -9 -4 -18 7 -21 14 -7 14 6 0 13 -4 16 -10z m2395 6 c0 -7 -85 -63
-124 -81 -19 -9 -38 -26 -41 -36 -4 -11 -10 -17 -14 -15 -4 3 -32 -16 -62 -43
-30 -27 -77 -58 -104 -70 -73 -32 -159 -75 -165 -82 -10 -10 -193 -129 -199
-129 -4 0 -21 -13 -38 -30 -27 -26 -150 -83 -171 -78 -4 0 -14 -2 -22 -5 -20
-8 -102 -31 -115 -32 -5 0 -21 -8 -35 -17 -26 -18 -106 -22 -116 -7 -3 5 7 9
22 9 28 0 147 35 174 51 39 22 179 85 222 99 21 6 46 22 57 35 10 14 21 21 25
18 3 -4 19 3 35 15 15 11 45 27 65 36 19 8 46 25 59 38 32 32 73 58 92 58 8 0
15 7 15 16 0 8 4 13 9 10 11 -7 71 22 71 34 0 5 10 12 22 16 12 4 51 29 86 55
35 27 69 49 75 49 7 0 23 10 37 23 25 22 75 47 138 66 1 1 2 -1 2 -3z m-2468
-18 c-11 -14 0 -52 18 -63 6 -4 26 -9 43 -12 54 -7 183 -154 187 -210 0 -2 -6
-3 -12 -3 -7 -1 -26 -11 -42 -24 -28 -23 -30 -23 -48 -6 -19 18 -68 16 -68 -2
0 -6 -7 -8 -15 -4 -8 3 -15 2 -15 -3 0 -13 -52 -33 -59 -23 -18 29 -61 80 -99
118 l-44 42 21 21 c12 12 21 27 21 34 0 6 19 30 41 52 23 22 46 52 51 68 6 15
15 27 20 27 7 0 7 -4 0 -12z m-1575 -114 c-3 -3 -12 -4 -19 -1 -8 3 -5 6 6 6
11 1 17 -2 13 -5z m-84 -11 c-7 -2 -19 -2 -25 0 -7 3 -2 5 12 5 14 0 19 -2 13
-5z m4386 -25 c-2 -7 3 -31 9 -53 6 -22 14 -71 17 -108 7 -73 -2 -97 -37 -97
-10 0 -28 -8 -39 -18 -10 -10 -50 -34 -87 -52 -37 -19 -69 -36 -72 -39 -3 -3
-21 -14 -40 -25 -19 -10 -55 -35 -80 -55 -25 -20 -58 -46 -75 -58 -79 -56
-282 -278 -316 -346 -12 -23 -27 -49 -34 -57 -8 -8 -26 -51 -40 -95 -15 -44
-32 -89 -38 -100 -5 -10 -10 -31 -9 -46 1 -27 0 -27 -59 -24 -32 2 -59 1 -59
-3 0 -4 -57 -7 -127 -7 -188 -1 -462 -8 -510 -13 -29 -3 -41 -8 -36 -16 4 -6
0 -6 -9 2 -14 11 -49 15 -238 25 -34 2 -35 3 -36 47 -9 287 -12 314 -40 380
-47 108 -102 196 -139 221 -19 13 -35 27 -35 30 0 3 -10 17 -22 31 -73 80 -96
108 -127 151 -18 27 -31 51 -28 54 4 3 21 -4 39 -15 18 -11 66 -40 107 -64 40
-24 82 -48 91 -53 10 -6 24 -16 32 -23 8 -6 18 -9 21 -5 4 3 16 -2 27 -12 20
-18 81 -35 135 -38 17 -1 33 -7 38 -14 9 -15 102 -42 164 -47 26 -3 82 -8 123
-12 127 -12 381 -1 500 20 14 3 43 7 65 10 22 3 76 15 120 26 44 11 87 22 95
24 61 15 167 51 178 59 7 5 15 7 19 4 3 -4 18 0 32 8 14 7 68 30 120 51 106
42 181 81 181 95 0 5 6 9 14 9 11 0 70 58 112 112 30 38 63 96 69 121 7 26 28
40 24 15z m-2977 -78 c29 -22 56 -40 60 -40 23 0 179 -206 178 -235 0 -5 -6
-1 -12 10 -6 11 -26 37 -45 58 -18 20 -33 41 -33 46 0 5 -17 20 -37 32 -41 25
-173 148 -173 161 0 13 8 9 62 -32z m-35 -111 c14 -16 50 -46 79 -64 53 -34
69 -50 38 -38 -9 3 -20 0 -24 -7 -5 -7 -31 -13 -65 -14 -47 -1 -59 3 -69 18
-6 11 -28 37 -49 59 -21 22 -37 41 -35 42 7 7 74 33 86 34 7 1 25 -13 39 -30z
m-257 -10 c0 -4 15 -12 33 -18 39 -13 157 -141 157 -170 0 -6 5 -11 10 -11 6
0 10 -8 10 -19 0 -10 6 -24 14 -30 8 -6 16 -23 19 -36 3 -20 -1 -27 -17 -31
-35 -8 -70 11 -91 52 -11 22 -22 41 -25 44 -4 3 -16 21 -27 40 -12 19 -32 45
-45 57 -74 70 -110 112 -104 121 7 12 66 13 66 1z m840 -12 c8 -7 17 -21 18
-32 5 -26 48 -109 66 -127 8 -8 38 -44 66 -79 29 -35 83 -95 120 -134 52 -54
79 -92 113 -165 49 -102 52 -122 63 -331 5 -106 3 -132 -12 -165 -9 -21 -18
-45 -20 -52 -11 -54 -235 -233 -354 -282 -36 -15 -94 -29 -130 -33 -36 -3 -81
-12 -100 -20 -19 -8 -78 -17 -130 -20 -52 -3 -121 -9 -152 -13 -55 -6 -58 -6
-58 15 0 30 26 37 165 45 157 10 171 12 280 40 129 34 200 72 260 141 52 60
75 98 75 121 0 8 12 33 27 57 29 44 74 172 65 182 -3 3 -1 5 4 5 5 0 10 39 12
88 3 79 1 93 -26 152 -16 36 -41 79 -55 96 -15 18 -27 39 -27 47 0 8 -14 30
-30 48 -17 19 -40 51 -50 71 -11 21 -29 48 -41 60 -50 55 -109 138 -123 173
-15 36 -18 37 -52 32 -69 -11 -84 15 -35 64 33 32 39 34 61 16z m-164 -59 c-4
-31 -2 -46 11 -60 9 -10 11 -18 5 -18 -6 0 -13 4 -16 9 -10 16 -56 -1 -62 -23
-8 -35 -1 -51 26 -56 35 -7 49 -50 26 -84 -21 -33 -51 -33 -103 1 -35 22 -40
30 -32 45 6 10 14 16 19 13 16 -10 19 11 4 39 -18 36 -18 39 4 27 15 -8 23 -5
40 18 13 19 17 32 11 42 -17 26 -9 44 29 65 20 12 39 22 40 23 2 1 1 -18 -2
-41z m-730 -63 l39 -34 -61 -1 c-55 0 -62 2 -72 25 -10 22 -9 25 8 25 10 0 22
5 25 10 10 16 19 12 61 -25z m3366 -10 c3 -14 1 -25 -3 -25 -5 0 -8 -5 -6 -12
1 -6 -30 -22 -70 -35 -76 -26 -99 -54 -65 -79 24 -19 36 -17 92 11 27 14 53
25 59 25 5 0 12 -26 16 -57 3 -32 8 -71 11 -88 24 -167 32 -412 14 -445 -6
-11 -26 -19 -56 -23 -26 -2 -49 -9 -53 -14 -3 -5 -33 -15 -66 -22 -33 -7 -80
-17 -105 -23 -25 -6 -117 -12 -205 -14 -154 -2 -334 -12 -346 -20 -17 -10 -7
99 15 157 39 106 98 196 209 314 32 35 63 69 70 77 31 38 274 215 302 220 11
1 22 6 25 9 10 12 125 68 141 69 10 0 19 -10 21 -25z m-3657 -5 c3 -5 2 -10
-4 -10 -5 0 -13 5 -16 10 -3 6 -2 10 4 10 5 0 13 -4 16 -10z m796 -37 c7 -18
4 -28 -12 -44 -40 -40 -5 -103 82 -147 84 -42 140 -38 186 14 18 20 34 46 35
58 4 52 3 73 -4 96 -8 23 -7 24 6 6 10 -13 22 -17 39 -12 18 4 32 -3 64 -37
22 -23 53 -61 67 -84 14 -24 30 -43 34 -43 4 0 18 -18 32 -40 13 -22 28 -40
32 -40 4 0 8 -6 8 -14 0 -8 16 -38 36 -67 84 -125 111 -205 93 -274 -5 -22
-11 -47 -12 -55 -7 -45 -32 -121 -47 -140 l-17 -23 -22 22 c-24 24 -33 25 -81
10 -59 -17 -72 -19 -162 -23 -48 -2 -90 -6 -95 -9 -4 -2 -37 -8 -73 -11 -36
-4 -78 -9 -95 -11 -50 -8 -307 -14 -350 -8 l-41 5 -1 72 c-1 75 -17 198 -27
214 -3 5 -8 27 -12 48 -3 22 -12 58 -20 82 -8 23 -14 53 -14 66 0 13 -9 52
-21 87 -12 35 -21 70 -22 77 0 6 -4 12 -9 12 -4 0 -8 9 -8 20 0 10 -13 39 -29
62 l-30 43 25 3 c14 2 28 10 31 18 10 25 21 15 49 -46 23 -51 35 -64 69 -79
46 -20 112 -16 152 9 33 21 39 78 14 131 -12 23 -19 44 -17 46 1 2 23 5 47 8
69 6 89 15 81 33 -5 15 -4 15 12 2 10 -8 22 -25 27 -37z m2184 32 c-35 -16
-55 -19 -55 -7 0 14 7 17 47 19 l38 2 -30 -14z m-3101 -19 c-3 -7 7 -21 21
-30 49 -32 136 -131 172 -196 20 -36 45 -81 56 -100 21 -38 55 -130 63 -170 5
-21 25 -114 29 -130 1 -3 5 -12 8 -20 13 -32 46 -184 41 -192 -3 -4 1 -9 8 -9
7 -1 -5 -5 -27 -8 -46 -7 -97 -2 -90 9 2 4 -5 16 -15 28 -23 24 -57 18 -75
-14 -5 -10 -11 -21 -12 -23 -1 -2 -54 -5 -117 -6 -63 -2 -119 -6 -124 -9 -23
-14 -133 -15 -197 -2 -37 8 -73 12 -80 10 -6 -3 -27 6 -46 18 -19 13 -46 29
-62 35 -15 7 -26 16 -25 20 1 5 -11 33 -26 63 -23 45 -29 69 -31 134 -1 44 4
102 10 130 19 78 87 206 144 266 28 30 51 57 51 61 0 4 9 11 20 14 11 3 20 11
20 16 0 5 5 9 11 9 6 0 50 18 97 40 47 22 87 38 90 35 3 -3 0 -5 -6 -5 -26 0
-11 -53 28 -97 22 -25 40 -49 40 -53 0 -13 32 -21 44 -11 7 6 13 28 14 50 2
31 -2 43 -21 58 -13 10 -26 26 -30 36 -4 11 -17 21 -28 24 -20 6 -20 7 7 19
38 16 44 17 38 0z m2912 -25 c-3 -5 -16 -11 -28 -14 -22 -6 -22 -5 -4 8 22 17
40 20 32 6z m-571 -31 c-3 -5 -12 -10 -18 -10 -7 0 -6 4 3 10 19 12 23 12 15
0z m450 0 c-28 -12 -47 -12 -40 0 3 6 18 10 33 9 24 0 25 -1 7 -9z m-814 -33
c-10 -9 -11 -8 -5 6 3 10 9 15 12 12 3 -3 0 -11 -7 -18z m1857 -732 c2 -9 0
-15 -5 -12 -5 3 -41 -1 -79 -9 -38 -9 -85 -17 -104 -19 -19 -1 -53 -5 -75 -9
-26 -5 -35 -4 -25 2 8 5 33 13 55 17 22 4 45 11 52 17 7 5 16 7 20 5 5 -3 38
3 73 13 74 21 84 20 88 -5z m-3362 -30 c19 -14 19 -14 -2 -15 -12 0 -24 7 -28
15 -7 19 5 19 30 0z m2998 -24 c11 -1 17 -3 15 -5 -4 -5 -69 -10 -269 -21 -52
-3 -97 -10 -98 -15 -2 -6 -9 -7 -15 -3 -6 4 -78 8 -159 9 -82 0 -151 4 -155 8
-3 3 14 6 38 7 124 1 430 18 436 23 2 2 127 0 207 -3z m53 3 c-3 -3 -12 -4
-19 -1 -8 3 -5 6 6 6 11 1 17 -2 13 -5z m-754 -31 c-7 -2 -19 -2 -25 0 -7 3
-2 5 12 5 14 0 19 -2 13 -5z m1061 -39 c21 -21 20 -24 -6 -23 -77 2 -214 -3
-280 -9 -42 -4 -85 -5 -95 -1 -12 5 -5 8 23 8 22 1 43 4 47 7 3 4 39 8 79 10
40 2 93 8 118 13 70 13 97 12 114 -5z m-783 -21 c-12 -20 -14 -14 -5 12 4 9 9
14 11 11 3 -2 0 -13 -6 -23z m-2881 1 c0 -8 -10 -14 -22 -15 -13 0 -65 -2
-115 -4 -51 -2 -93 0 -93 4 0 8 120 25 193 28 26 1 37 -2 37 -13z m3190 -14
c0 -5 -5 -10 -11 -10 -5 0 -7 5 -4 10 3 6 8 10 11 10 2 0 4 -4 4 -10z m67 4
c-3 -3 -12 -4 -19 -1 -8 3 -5 6 6 6 11 1 17 -2 13 -5z m-152 -18 c-33 -7 -64
-10 -70 -7 -12 7 46 18 95 19 26 0 19 -3 -25 -12z m-118 -10 c20 -20 -313 -35
-372 -17 -25 8 -19 10 40 11 114 3 186 8 190 11 5 6 136 1 142 -5z m-2517
-335 c-24 -7 -100 -3 -109 5 -2 2 27 4 65 3 46 -1 61 -3 44 -8z"/>
<path d="M4420 1332 c-53 -47 -88 -73 -105 -78 -29 -8 -57 -50 -50 -74 10 -33
56 -26 95 15 19 19 38 35 42 35 4 0 19 10 33 22 24 21 35 68 16 68 -5 0 -11 6
-13 13 -2 10 -6 10 -18 -1z"/>
<path d="M4169 1112 c-68 -77 -79 -92 -79 -110 0 -47 61 -58 79 -14 7 16 28
45 47 65 45 46 51 91 13 95 -19 2 -34 -6 -60 -36z"/>
<path d="M4065 930 c-11 -4 -33 -34 -50 -67 -16 -32 -33 -59 -37 -61 -12 -6
-9 -47 4 -60 7 -7 18 -12 26 -12 17 0 63 35 56 43 -6 6 21 64 41 87 26 30 20
81 -8 79 -7 0 -21 -4 -32 -9z"/>
<path d="M958 1236 c-17 -6 -28 -17 -28 -28 0 -18 19 -67 39 -98 5 -8 15 -29
21 -47 7 -17 19 -34 27 -37 18 -7 56 18 59 40 2 16 -72 171 -85 177 -3 2 -18
-1 -33 -7z"/>
<path d="M1037 907 c-9 -24 23 -161 40 -175 15 -10 21 -8 40 14 27 32 28 43 8
108 -8 26 -12 52 -9 57 3 5 -13 9 -34 9 -23 0 -42 -5 -45 -13z"/>
<path d="M4579 3961 c-12 -10 -24 -27 -25 -37 -8 -62 -15 -87 -42 -145 -16
-35 -33 -75 -37 -89 -4 -14 -19 -49 -33 -79 -20 -44 -23 -58 -13 -73 6 -10 9
-23 6 -28 -6 -10 12 -23 36 -27 23 -3 32 11 53 82 10 33 25 71 32 85 13 24 14
23 12 -21 -1 -25 2 -51 6 -58 5 -7 7 -49 6 -94 -1 -45 -1 -89 -1 -97 1 -36 -1
-169 -4 -220 -15 -249 -15 -264 0 -287 9 -13 25 -23 39 -23 33 0 46 38 45 140
0 47 1 166 4 265 2 99 1 237 -2 308 -7 143 4 151 34 24 23 -94 37 -117 76
-117 27 0 30 3 28 28 -2 15 0 33 4 39 4 7 -4 37 -18 68 -14 31 -25 61 -25 68
0 7 -11 40 -24 73 -12 33 -26 78 -30 100 -4 21 -20 55 -34 74 -48 64 -59 69
-93 41z"/>
<path d="M3570 3072 c-11 -12 -15 -39 -15 -92 0 -62 4 -81 23 -107 12 -17 22
-35 22 -40 0 -4 -5 -1 -10 7 -16 24 -12 -6 9 -69 18 -56 19 -78 7 -148 -5 -29
-17 -51 -37 -67 -16 -14 -29 -27 -29 -31 0 -3 -9 -16 -20 -27 -13 -15 -17 -25
-10 -32 5 -5 10 -15 10 -20 0 -6 -7 0 -16 12 -12 17 -19 20 -33 12 -10 -5 -42
-8 -71 -7 -58 2 -81 -15 -73 -57 6 -28 40 -46 89 -46 55 0 157 51 189 96 16
22 39 50 51 64 25 29 33 55 40 126 6 59 -2 109 -45 255 -17 59 -33 122 -36
140 -10 54 -19 60 -45 31z"/>
</g>
</svg>
