<?xml version="1.0" standalone="no"?>
<!DOCTYPE svg PUBLIC "-//W3C//DTD SVG 20010904//EN"
 "http://www.w3.org/TR/2001/REC-SVG-20010904/DTD/svg10.dtd">
<svg version="1.0" xmlns="http://www.w3.org/2000/svg"
 width="469.000000pt" height="415.000000pt" viewBox="0 0 469.000000 415.000000"
 preserveAspectRatio="xMidYMid meet">
<metadata>
Created by potrace 1.16, written by Peter Selinger 2001-2019
</metadata>
<g transform="translate(0.000000,415.000000) scale(0.100000,-0.100000)"
fill="#000000" stroke="none">
<path d="M2470 4030 c-66 -11 -162 -39 -186 -55 -12 -7 -39 -30 -60 -51 -21
-21 -64 -59 -94 -85 -77 -66 -170 -157 -170 -166 0 -5 -16 -26 -35 -46 -33
-35 -115 -159 -115 -174 0 -3 -15 -38 -34 -77 -38 -80 -60 -190 -51 -250 11
-65 51 -118 113 -150 l33 -17 -46 -59 c-25 -32 -45 -61 -45 -63 0 -3 -13 -19
-29 -35 -29 -28 -31 -29 -49 -12 -10 9 -29 23 -43 30 -46 25 -156 125 -167
152 -14 37 -36 44 -81 28 -20 -8 -58 -15 -86 -16 -169 -8 -244 -17 -280 -33
-22 -10 -167 -52 -190 -55 -26 -4 -48 -38 -108 -161 -32 -66 -76 -154 -97
-195 l-39 -75 -63 -19 c-35 -10 -66 -23 -70 -29 -3 -6 -22 5 -45 27 -21 20
-58 49 -83 64 -25 14 -47 29 -50 32 -12 14 -105 70 -115 70 -20 0 -37 -27 -33
-51 3 -21 59 -70 122 -105 16 -9 47 -33 68 -53 22 -20 45 -39 52 -43 9 -5 12
-28 11 -70 -2 -48 2 -69 17 -91 37 -53 137 -74 199 -41 37 18 36 19 88 -29
l41 -37 -25 -49 c-36 -73 -61 -177 -60 -256 1 -69 12 -243 20 -320 3 -22 8
-125 11 -230 6 -201 0 -252 -44 -349 -24 -52 -72 -179 -72 -190 0 -8 -46 -116
-90 -211 -15 -33 -27 -70 -27 -81 2 -21 100 -134 116 -134 5 0 28 -21 52 -47
66 -73 80 -82 108 -71 18 6 21 12 13 20 -8 8 -6 17 5 35 13 19 14 29 5 48 -7
14 -15 25 -20 25 -5 0 -18 8 -30 17 -11 10 -37 32 -58 48 -20 17 -49 43 -64
59 l-28 29 34 70 c18 38 35 72 38 75 4 3 6 15 6 27 0 11 4 25 9 30 5 6 19 46
32 90 12 44 27 83 33 87 6 4 7 10 4 13 -4 4 2 24 14 46 42 82 66 168 62 227
-2 31 -6 109 -9 172 -3 63 -7 140 -10 170 -12 168 -16 330 -6 330 10 0 77 -65
170 -163 23 -25 62 -74 85 -109 33 -51 46 -63 66 -62 27 1 46 -16 28 -27 -8
-5 -4 -21 10 -53 12 -25 22 -49 22 -54 0 -4 14 -30 32 -58 17 -27 63 -112 101
-189 38 -77 72 -142 76 -145 3 -3 17 -27 31 -55 14 -27 29 -53 33 -56 14 -10
-46 -301 -76 -369 -13 -28 -59 -195 -64 -230 -3 -19 -10 -40 -15 -47 -11 -14
1 -65 19 -78 8 -6 83 -10 175 -10 l162 0 7 34 c4 19 3 45 -2 58 -9 23 -10 24
-134 20 -69 -1 -127 -1 -130 1 -2 2 3 23 12 45 8 23 16 49 18 57 2 8 4 15 6
15 1 0 3 9 5 20 6 35 32 138 57 225 32 110 45 171 52 245 5 50 3 63 -12 80
-10 11 -26 36 -35 55 -10 19 -22 42 -26 50 -5 8 -17 31 -27 50 -92 182 -136
262 -152 280 -11 11 -27 44 -37 75 -18 59 -45 86 -78 77 -20 -5 -19 -2 8 34
16 21 53 63 83 92 46 45 56 51 70 40 9 -7 40 -32 69 -57 28 -24 52 -40 52 -35
1 5 8 0 18 -11 21 -25 112 -99 112 -92 0 3 13 -7 28 -21 63 -60 182 -152 196
-152 13 0 14 -39 2 -58 -11 -19 75 -95 130 -114 65 -24 108 -28 150 -15 31 9
38 7 82 -23 26 -19 53 -40 60 -47 7 -7 38 -29 68 -49 30 -20 67 -49 82 -63 15
-14 47 -39 72 -56 25 -16 50 -34 56 -40 6 -5 23 -19 37 -30 17 -12 27 -29 27
-45 0 -63 40 -147 101 -211 32 -34 59 -69 59 -77 0 -40 -74 -135 -92 -117 -3
3 -42 -14 -88 -36 -62 -31 -100 -43 -146 -47 -73 -5 -91 -25 -67 -73 12 -24
19 -27 46 -24 18 3 57 7 87 11 30 3 66 14 80 24 34 24 161 83 133 62 -12 -9
-31 -24 -42 -32 -28 -22 -35 -55 -15 -74 18 -19 56 -17 82 5 10 7 43 31 75 53
31 21 57 44 57 52 0 7 6 17 14 21 22 12 56 100 56 143 0 21 4 41 9 44 6 4 6
18 0 36 -5 17 -13 44 -18 60 -5 17 -5 30 -1 30 5 0 11 -8 15 -19 3 -10 19 -29
36 -42 31 -23 61 -77 64 -114 10 -111 11 -107 -39 -145 -59 -43 -64 -59 -30
-88 36 -31 68 -23 116 30 39 44 52 87 49 158 -4 59 -45 168 -78 203 l-27 27
34 -6 c44 -8 115 -48 156 -88 56 -54 61 -192 9 -230 -16 -12 -18 -19 -10 -52
7 -29 16 -40 32 -42 35 -5 61 15 90 71 25 50 30 98 18 162 -2 11 -4 30 -4 42
-1 12 -7 28 -13 35 -7 7 -14 20 -16 28 -3 14 -32 43 -97 98 -40 34 -94 59
-143 67 -33 5 -49 16 -76 48 -18 23 -37 52 -40 64 -4 12 -17 25 -29 29 -12 4
-28 16 -36 26 -15 22 -126 78 -153 78 -28 0 -102 -31 -116 -49 -10 -13 -16
-13 -30 -3 -9 7 -25 15 -34 18 -10 4 -20 14 -23 25 -3 10 -15 21 -26 24 -11 4
-49 29 -84 56 -35 27 -67 49 -70 49 -6 0 -18 9 -54 40 -31 27 -111 80 -120 80
-15 0 -18 23 -8 69 14 65 -11 108 -71 123 -30 7 -46 18 -52 33 -5 13 -14 26
-19 30 -6 3 -11 21 -11 40 0 19 -4 37 -10 40 -5 3 -10 18 -10 33 0 15 -10 52
-22 82 -15 38 -22 78 -22 131 -1 75 4 92 59 199 15 28 39 111 37 123 -1 4 2 7
7 7 5 0 11 12 14 28 3 15 11 41 18 57 13 32 14 36 22 75 18 85 27 137 33 192
4 35 11 66 16 69 18 11 4 63 -19 75 -13 6 -31 18 -41 27 -10 10 -22 17 -26 17
-4 0 -19 9 -34 20 -29 22 -93 57 -160 89 -39 19 -41 22 -30 41 7 11 16 20 21
20 4 0 6 4 3 9 -3 4 5 18 19 31 13 12 29 35 35 51 7 16 18 29 25 29 6 0 16 10
22 22 10 22 14 23 114 20 68 -2 131 2 184 13 81 16 234 83 264 115 123 132
204 230 205 246 0 5 8 16 18 24 11 8 20 22 22 30 3 19 22 63 48 112 10 21 21
52 23 70 2 18 9 55 16 82 22 90 -32 277 -98 345 -41 41 -76 61 -105 61 -16 0
-28 3 -28 8 0 9 -83 11 -140 2z m170 -119 c72 -38 120 -134 120 -242 0 -51
-43 -195 -66 -220 -8 -8 -14 -21 -14 -28 0 -13 -64 -115 -87 -139 -7 -7 -13
-17 -13 -20 0 -4 -29 -37 -64 -73 -72 -74 -197 -143 -278 -154 -26 -3 -66 -9
-90 -13 -24 -5 -77 -5 -118 -1 -41 4 -85 8 -97 8 -26 1 -98 62 -118 101 -13
26 -14 84 -1 131 14 51 61 165 73 177 7 7 13 17 13 22 0 26 154 226 205 264
19 15 33 32 29 37 -3 5 -2 9 3 7 13 -3 73 34 105 65 84 80 312 125 398 78z
m-1324 -1073 c-20 -29 -48 -70 -63 -91 -16 -22 -32 -47 -38 -56 -5 -9 -25 -32
-43 -50 -19 -18 -35 -38 -36 -44 -1 -7 -26 -37 -55 -67 -29 -30 -81 -93 -114
-140 -34 -47 -69 -92 -77 -101 -8 -8 -33 -37 -55 -62 -22 -26 -42 -47 -45 -47
-3 0 -22 16 -43 36 -35 33 -38 40 -36 88 3 89 0 106 -17 106 -17 0 -13 22 15
77 155 304 162 314 228 331 26 7 61 19 78 27 43 20 166 41 258 44 l78 2 -35
-53z m171 -16 c53 -47 128 -101 176 -125 20 -11 37 -23 37 -27 0 -5 42 -30 93
-56 50 -26 109 -56 130 -67 20 -10 37 -22 37 -26 0 -4 -40 -49 -90 -100 -49
-51 -90 -99 -90 -107 0 -8 -6 -14 -14 -14 -7 0 -27 -15 -43 -34 -16 -19 -78
-85 -138 -148 -59 -62 -125 -136 -146 -165 -21 -28 -47 -58 -57 -65 -10 -7
-27 -26 -37 -41 -10 -16 -31 -41 -46 -58 l-27 -29 -44 38 c-24 21 -52 44 -62
52 -9 8 -25 22 -34 30 -10 8 -51 44 -92 79 -41 35 -76 68 -78 73 -2 4 -9 8
-16 8 -6 0 -28 16 -49 36 l-37 36 22 32 c13 17 32 40 43 52 34 36 59 67 91
115 41 63 92 127 132 164 17 17 32 36 32 42 0 5 9 18 20 28 11 10 20 23 20 29
0 6 28 41 63 77 34 37 82 99 107 138 24 39 47 71 50 71 3 0 24 -17 47 -38z
m536 -455 c-7 -28 -13 -62 -13 -75 0 -40 -68 -267 -96 -321 -8 -14 -14 -31
-14 -37 0 -6 -8 -22 -19 -35 -10 -13 -21 -35 -24 -49 -3 -14 -12 -44 -21 -67
-19 -51 -12 -105 32 -263 48 -170 47 -155 3 -179 l-40 -20 -30 27 c-17 15 -41
35 -53 44 -41 30 -153 122 -158 129 -3 3 -18 13 -35 22 -16 8 -46 29 -65 46
-19 17 -56 45 -82 63 -26 18 -50 39 -53 47 -3 8 12 35 33 60 21 25 44 56 51
69 6 12 17 22 24 22 7 0 19 11 28 25 8 15 58 70 110 124 52 55 128 136 169
181 41 45 115 123 163 173 97 100 113 102 90 14z m-1415 -27 c5 0 14 -11 20
-24 9 -20 6 -28 -19 -55 -23 -26 -35 -31 -59 -28 -29 5 -94 47 -71 47 6 0 11
7 11 15 0 8 5 15 10 15 6 0 10 9 10 21 0 11 4 18 9 14 6 -3 13 1 18 9 13 22
47 24 55 4 4 -10 11 -18 16 -18z m290 -372 c39 -35 92 -81 118 -103 45 -38
136 -118 178 -156 22 -21 15 -33 -58 -99 -36 -33 -50 -41 -54 -30 -9 27 -180
204 -266 275 l-49 40 12 54 c11 54 25 81 41 81 5 0 40 -28 78 -62z m1060 -711
c15 -8 41 -12 59 -10 40 3 45 -4 31 -51 l-12 -38 -58 4 c-46 3 -64 10 -82 29
-21 22 -21 25 -7 51 18 31 30 34 69 15z m817 -487 c16 -9 38 -33 49 -53 10
-19 28 -38 40 -41 20 -6 20 -7 -9 -31 -16 -13 -45 -32 -65 -42 -19 -10 -36
-21 -38 -25 -8 -18 -39 -6 -65 24 -40 45 -47 61 -47 112 0 77 55 100 135 56z
m26 -398 c-7 -23 -15 -41 -16 -40 -2 2 1 30 6 62 4 33 5 64 3 68 -3 5 -2 17 2
26 15 33 20 -71 5 -116z m-21 -56 c0 -3 -4 -8 -10 -11 -5 -3 -10 -1 -10 4 0 6
5 11 10 11 6 0 10 -2 10 -4z m-40 -42 c-8 -8 -23 -20 -34 -26 -18 -10 -17 -7
4 15 27 28 51 38 30 11z"/>
<path d="M3720 2104 c-120 -18 -175 -31 -235 -58 -79 -35 -130 -78 -121 -102
4 -9 1 -23 -6 -31 -6 -8 -12 -35 -12 -61 -1 -26 -5 -52 -8 -58 -4 -6 -3 -27 3
-48 10 -36 9 -37 -54 -100 -76 -76 -125 -158 -133 -223 -5 -43 -3 -50 23 -74
30 -28 105 -53 155 -51 16 0 48 13 69 28 22 15 41 25 43 23 2 -2 6 -17 9 -34
3 -16 10 -42 15 -56 6 -15 10 -40 10 -55 -3 -93 17 -109 132 -107 106 2 341
13 397 19 29 3 55 4 57 2 3 -2 12 6 20 17 9 13 11 25 5 37 -5 10 -5 19 0 23 5
3 13 31 16 63 4 31 9 68 12 82 3 14 4 34 4 46 0 12 6 54 13 95 8 40 13 76 10
80 -2 4 0 19 6 34 7 20 7 31 -1 41 -8 10 -8 14 0 14 6 0 11 16 11 35 0 20 7
70 16 111 15 73 12 114 -7 114 -5 0 -9 4 -9 10 0 13 -88 102 -120 122 -32 19
-117 45 -194 58 -59 10 -78 11 -126 4z m212 -119 c50 -16 118 -64 118 -84 0
-5 -119 -54 -162 -66 -5 -2 -9 -3 -10 -5 -21 -16 -237 -17 -322 -1 -39 8 -77
22 -87 32 -26 26 -23 60 5 81 20 15 134 48 206 61 56 9 198 -1 252 -18z m138
-380 c-7 -55 -15 -104 -18 -109 -7 -12 -12 -51 -12 -91 1 -16 -7 -65 -17 -107
-15 -66 -20 -78 -38 -78 -11 0 -60 -3 -110 -7 -117 -8 -302 -10 -310 -2 -3 4
-8 28 -10 55 -3 27 -11 65 -17 84 -17 51 -18 60 -3 60 7 0 27 16 44 35 17 20
31 34 31 31 0 -10 56 53 70 79 8 16 19 27 24 26 8 -3 26 17 26 30 0 8 -36 49
-43 49 -9 0 -57 -46 -57 -56 0 -4 -28 -34 -62 -66 l-63 -59 -13 48 c-7 26 -20
64 -28 83 -8 19 -17 53 -19 75 -3 22 -8 48 -11 58 -6 20 -1 21 46 6 54 -16
216 -37 258 -34 35 3 121 17 186 30 17 3 50 14 75 25 77 31 76 32 79 -19 2
-25 -2 -91 -8 -146z m-664 -76 c12 -41 20 -79 17 -85 -2 -6 -24 -26 -49 -44
-35 -25 -51 -30 -72 -25 -15 4 -38 9 -52 12 -13 2 -26 6 -29 8 -2 3 8 29 23
59 30 61 113 159 130 153 6 -2 21 -37 32 -78z"/>
</g>
</svg>
