<?xml version="1.0" standalone="no"?>
<!DOCTYPE svg PUBLIC "-//W3C//DTD SVG 20010904//EN"
 "http://www.w3.org/TR/2001/REC-SVG-20010904/DTD/svg10.dtd">
<svg version="1.0" xmlns="http://www.w3.org/2000/svg"
 width="561.000000pt" height="457.000000pt" viewBox="0 0 561.000000 457.000000"
 preserveAspectRatio="xMidYMid meet">
<metadata>
Created by potrace 1.16, written by Peter Selinger 2001-2019
</metadata>
<g transform="translate(0.000000,457.000000) scale(0.100000,-0.100000)"
fill="#000000" stroke="none">
<path d="M348 4415 c-39 -21 -43 -49 -16 -94 46 -77 115 -176 133 -191 9 -8
32 -44 50 -81 17 -36 62 -109 98 -161 37 -53 67 -101 67 -106 0 -6 25 -48 55
-93 30 -45 55 -84 55 -86 0 -2 23 -40 52 -85 57 -89 57 -87 -17 -113 -16 -6
-29 -17 -27 -23 1 -7 -2 -22 -8 -32 -13 -24 -3 -70 16 -70 7 0 16 -11 20 -25
3 -14 12 -25 19 -25 8 0 22 -11 33 -25 11 -14 48 -46 83 -71 34 -26 73 -59 87
-75 13 -16 28 -27 33 -23 5 3 9 -2 9 -10 0 -9 6 -16 13 -16 7 0 18 -9 25 -20
7 -12 17 -18 22 -15 6 3 10 -1 10 -9 0 -9 15 -19 39 -26 39 -10 71 -5 71 11 0
5 10 9 23 10 12 0 16 3 9 6 -10 4 -9 8 4 17 21 16 22 100 1 147 -26 60 -40
123 -42 183 -1 42 -6 62 -18 71 -9 6 -14 14 -11 17 7 7 -17 58 -28 58 -4 0 -8
11 -8 23 0 13 -9 32 -19 41 -22 20 -83 25 -89 8 -2 -7 -12 -12 -22 -12 -11 0
-24 -8 -29 -17 -10 -17 -10 -17 -11 0 0 9 -4 17 -8 17 -11 0 -62 71 -93 130
-34 63 -76 127 -89 135 -5 3 -10 13 -10 21 0 12 -65 111 -100 151 -5 7 -22 34
-36 60 -15 26 -35 59 -46 72 -10 13 -18 32 -18 42 0 11 -4 19 -10 19 -5 0 -10
7 -10 15 0 8 -18 33 -40 56 -22 23 -37 45 -35 50 3 4 1 10 -5 14 -5 3 -10 14
-10 23 0 24 -69 98 -103 111 -35 14 -36 13 -69 -4z"/>
<path d="M2186 3208 c3 -4 -8 -8 -24 -8 -23 0 -31 -5 -36 -25 -5 -20 -11 -24
-34 -20 -61 12 -78 12 -89 3 -7 -6 -25 -6 -49 1 -63 17 -157 7 -200 -23 -21
-14 -42 -26 -47 -26 -7 0 -48 -28 -100 -70 -39 -31 -114 -109 -167 -175 -46
-56 -91 -91 -130 -100 -32 -7 -131 -18 -150 -16 -14 1 -55 -9 -93 -24 -37 -14
-76 -25 -88 -25 -11 0 -22 -7 -25 -15 -4 -8 -11 -15 -16 -15 -14 0 -127 -92
-163 -132 -17 -19 -39 -55 -50 -79 -10 -24 -27 -56 -37 -71 -25 -36 -48 -104
-48 -139 0 -16 -4 -29 -10 -29 -5 0 -10 -24 -10 -52 0 -52 -35 -158 -52 -158
-4 0 -8 -6 -8 -13 0 -21 -28 -72 -50 -92 -11 -10 -20 -22 -20 -26 0 -5 -20
-42 -45 -81 -48 -76 -64 -122 -70 -193 -2 -23 -11 -64 -20 -91 -23 -69 -36
-140 -36 -206 0 -32 -5 -60 -10 -64 -5 -3 -8 -8 -5 -12 2 -4 7 -63 11 -132 10
-191 28 -256 94 -347 16 -22 38 -58 48 -79 33 -65 64 -118 76 -129 7 -5 32
-35 57 -65 69 -85 182 -171 216 -166 10 2 38 -1 62 -5 25 -5 61 -5 85 1 52 12
185 -19 262 -62 85 -46 195 -98 211 -98 7 0 14 -3 14 -8 0 -4 24 -16 53 -27
74 -27 218 -29 305 -4 62 18 250 105 263 122 13 17 168 -14 194 -39 8 -8 15
-11 15 -6 0 12 41 3 140 -30 65 -22 164 -41 210 -40 8 0 62 12 120 26 58 15
157 33 220 41 168 22 291 77 344 154 32 46 66 126 66 154 0 12 11 44 25 70 26
48 35 60 88 122 15 18 27 38 27 44 0 12 174 190 240 247 48 40 88 96 94 128 3
15 17 48 33 74 57 97 60 104 53 142 -8 44 -4 187 6 209 13 27 14 49 19 246 3
105 6 197 6 205 1 17 -37 247 -49 297 -9 41 -66 121 -94 133 -13 6 -30 14 -38
19 -41 23 -113 51 -134 51 -14 0 -26 5 -28 11 -2 6 -28 13 -57 15 -30 2 -64
11 -77 19 -13 8 -31 15 -40 15 -10 0 -14 5 -11 15 4 8 2 17 -2 20 -5 2 -8 30
-6 61 3 78 -50 233 -97 280 -18 18 -38 34 -43 34 -6 0 -24 16 -40 35 -17 19
-34 35 -39 35 -5 0 -14 7 -21 17 -15 21 -81 29 -210 27 -122 -2 -162 -2 -197
0 -23 1 -75 35 -113 72 -6 6 -21 9 -33 7 -15 -2 -21 1 -17 8 4 6 -2 13 -14 16
-12 3 -21 10 -21 15 0 6 -9 8 -20 5 -11 -3 -20 -2 -20 3 0 4 -17 11 -37 15
-52 11 -323 13 -317 3z"/>
<path d="M5210 1873 c-25 -3 -45 -15 -67 -41 -18 -20 -33 -41 -33 -46 0 -5
-17 -24 -37 -42 -32 -28 -42 -32 -73 -27 -106 17 -137 18 -182 2 -63 -21 -123
-64 -149 -106 -19 -30 -21 -44 -16 -107 l6 -72 -64 -38 c-76 -44 -95 -75 -102
-166 -5 -57 -2 -73 21 -117 14 -28 38 -60 53 -70 27 -19 137 -44 165 -39 7 2
31 6 53 11 22 4 54 18 72 31 17 13 35 24 40 24 5 0 32 -25 60 -55 46 -49 57
-55 95 -56 67 -3 163 28 178 57 7 13 20 26 29 29 30 9 85 111 110 201 7 27 21
48 39 59 29 19 71 65 72 78 0 5 6 15 14 22 35 36 27 184 -13 224 -13 13 -17
29 -14 55 3 31 -1 42 -29 69 -18 18 -41 44 -51 59 -30 47 -98 71 -177 61z m86
-91 c19 -14 47 -102 35 -115 -15 -19 -2 -55 22 -63 12 -4 38 -24 59 -46 32
-34 36 -43 31 -71 -12 -64 -76 -137 -118 -137 -8 0 -15 -9 -15 -20 0 -11 -5
-20 -11 -20 -6 0 -9 -10 -8 -22 2 -13 -2 -33 -9 -45 -7 -12 -12 -29 -12 -37 0
-27 -53 -93 -87 -110 -18 -9 -33 -20 -33 -25 0 -5 -21 -14 -46 -19 -45 -10
-47 -9 -85 26 -21 21 -39 42 -39 49 0 31 -75 36 -110 8 -42 -33 -110 -55 -156
-49 -92 11 -134 55 -134 138 0 58 19 87 73 116 26 14 58 42 72 62 22 33 24 44
19 92 -9 73 7 110 54 129 58 22 109 29 133 17 36 -20 119 -32 119 -18 0 4 6 8
14 8 16 0 78 61 103 101 28 46 96 74 129 51z"/>
</g>
</svg>
