<?xml version="1.0" standalone="no"?>
<!DOCTYPE svg PUBLIC "-//W3C//DTD SVG 20010904//EN"
 "http://www.w3.org/TR/2001/REC-SVG-20010904/DTD/svg10.dtd">
<svg version="1.0" xmlns="http://www.w3.org/2000/svg"
 width="407.000000pt" height="397.000000pt" viewBox="0 0 407.000000 397.000000"
 preserveAspectRatio="xMidYMid meet">
<metadata>
Created by potrace 1.16, written by Peter Selinger 2001-2019
</metadata>
<g transform="translate(0.000000,397.000000) scale(0.100000,-0.100000)"
fill="#000000" stroke="none">
<path d="M1979 3856 c-2 -3 -34 -6 -69 -7 -67 -2 -184 -17 -210 -26 -8 -4 -24
-8 -35 -10 -46 -8 -266 -78 -310 -98 -16 -8 -61 -27 -98 -44 -37 -16 -88 -44
-113 -61 -25 -16 -48 -30 -51 -30 -3 0 -34 -20 -70 -45 -35 -25 -66 -45 -69
-45 -3 0 -15 -11 -28 -23 -13 -13 -45 -41 -72 -63 -40 -33 -66 -58 -149 -148
-97 -104 -234 -312 -302 -456 -68 -144 -141 -380 -158 -510 -26 -200 -28 -395
-5 -535 6 -38 13 -83 15 -100 6 -57 71 -281 102 -355 33 -80 136 -286 155
-310 11 -14 48 -65 84 -115 147 -204 401 -420 629 -533 95 -47 216 -103 230
-107 6 -1 17 -5 25 -8 23 -9 181 -48 213 -53 15 -1 32 -6 37 -9 5 -3 29 -8 52
-11 24 -2 48 -6 55 -9 6 -2 72 -7 145 -11 155 -7 142 -7 148 -4 3 1 30 4 60 6
72 5 248 34 280 46 14 5 40 11 58 14 112 14 468 178 556 255 24 22 50 39 57
39 7 0 9 3 5 7 -3 4 2 12 13 17 10 6 50 39 88 73 102 92 115 103 125 103 4 0
8 5 8 11 0 7 12 24 28 39 15 14 47 50 72 79 25 29 50 58 56 65 7 7 23 35 37
62 14 27 37 67 53 89 49 72 143 265 165 338 12 40 26 78 31 85 6 6 8 12 5 12
-4 0 0 18 8 41 16 44 64 263 65 294 12 369 5 469 -41 655 -27 108 -108 336
-139 390 -8 14 -15 30 -15 35 -2 19 -19 50 -38 70 -11 11 -49 65 -85 120 -78
118 -66 103 -173 212 -100 102 -160 157 -200 180 -16 10 -29 20 -29 24 0 3
-11 11 -25 17 -14 6 -25 18 -25 27 0 8 -6 15 -14 15 -8 0 -22 7 -30 16 -9 8
-16 12 -16 7 0 -4 -4 -3 -8 2 -8 11 -312 165 -325 165 -4 0 -27 9 -50 19 -51
23 -224 66 -327 80 -79 12 -373 24 -381 17z m336 -185 c224 -46 215 -43 215
-65 0 -30 11 -42 43 -50 20 -5 27 -3 27 8 0 8 5 18 10 21 14 8 107 -27 195
-74 116 -62 114 -61 108 -96 -7 -42 18 -53 69 -31 19 9 61 -16 120 -72 32 -30
35 -37 22 -49 -19 -19 -18 -48 2 -68 23 -22 38 -14 44 23 l5 32 38 -40 c20
-22 32 -40 27 -40 -6 0 -16 -13 -21 -30 -9 -26 -14 -28 -31 -19 -24 13 -49 -5
-41 -29 10 -28 35 -42 75 -42 38 0 47 -11 29 -39 -5 -7 -14 -11 -20 -7 -6 4
-20 -4 -32 -18 -12 -13 -27 -22 -34 -20 -18 7 -38 -22 -30 -46 8 -25 30 -25
82 0 23 11 49 17 57 14 10 -4 19 3 27 19 10 23 13 24 27 11 23 -23 47 -13 47
20 0 40 -29 58 -49 31 -15 -20 -15 -20 -16 0 0 11 -9 26 -20 33 -27 17 -26 42
3 42 l22 0 -25 20 c-14 10 -21 22 -17 27 5 4 15 0 22 -11 8 -10 27 -32 42 -50
33 -36 122 -159 142 -196 42 -78 81 -160 81 -169 0 -6 -7 -11 -15 -11 -10 0
-15 -10 -15 -34 0 -44 25 -55 43 -20 13 25 14 24 44 -53 41 -106 47 -133 29
-133 -18 0 -26 -20 -15 -41 7 -13 0 -23 -26 -43 -41 -31 -46 -56 -12 -56 25 0
49 22 60 53 32 88 77 -188 71 -431 -2 -68 -7 -129 -12 -135 -5 -7 -8 -22 -7
-34 1 -18 -4 -23 -21 -23 -13 0 -26 -5 -29 -11 -4 -5 -19 -8 -33 -5 -40 9 -57
-8 -53 -51 1 -18 31 -16 53 3 13 13 21 14 32 5 7 -6 21 -9 30 -5 30 11 17 -18
-25 -56 -27 -25 -39 -42 -34 -51 6 -9 10 -7 16 9 17 45 43 15 30 -35 -5 -17
-14 -28 -25 -28 -37 0 -56 -66 -24 -86 9 -6 -11 -64 -52 -154 -10 -23 -30 -46
-44 -53 -22 -10 -26 -18 -26 -51 l0 -40 -25 24 c-30 31 -51 32 -59 3 -9 -37
-7 -58 7 -58 23 0 7 -71 -26 -120 -27 -38 -32 -42 -37 -25 -6 25 -27 30 -46
11 -18 -19 -18 -50 1 -66 9 -7 13 -15 10 -18 -2 -3 -14 7 -26 22 -17 21 -24
24 -35 15 -10 -8 -14 -8 -14 0 0 14 -39 39 -72 45 -24 4 -26 2 -23 -23 3 -25
1 -27 -26 -23 -23 3 -27 7 -19 17 8 10 8 15 0 20 -8 5 -6 11 6 20 20 14 13 45
-10 45 -8 0 -17 14 -21 31 -4 17 -13 33 -20 35 -19 8 -52 -12 -59 -34 -9 -28
21 -92 43 -92 10 0 25 -7 32 -16 12 -15 10 -16 -18 -10 -43 10 -76 -8 -67 -36
4 -15 2 -19 -7 -16 -8 3 -14 16 -14 30 -1 14 -6 32 -13 40 -6 8 -10 17 -7 20
9 9 -43 50 -54 43 -14 -8 -51 -80 -51 -97 1 -22 48 -68 64 -62 9 3 17 -2 20
-14 9 -27 41 -33 93 -19 30 8 43 16 43 28 0 10 5 21 11 25 9 5 10 -6 5 -38 -8
-50 1 -63 53 -78 22 -6 33 -5 42 6 6 8 19 14 28 14 10 -1 1 -14 -27 -40 -24
-22 -47 -39 -50 -38 -18 5 -52 -15 -52 -31 0 -9 -14 -28 -32 -41 -28 -21 -32
-21 -43 -7 -6 9 -24 21 -38 26 -20 8 -27 18 -27 36 0 23 3 25 23 19 12 -3 27
-11 34 -16 7 -5 17 -7 23 -3 12 7 14 45 2 45 -4 0 -12 10 -17 22 -6 13 -17 21
-25 18 -8 -2 -43 -4 -76 -4 -60 1 -62 0 -77 -33 -12 -27 -12 -33 -2 -29 16 6
28 -20 19 -46 -9 -30 13 -49 41 -36 32 14 54 -3 53 -42 -1 -26 -11 -33 -117
-87 -172 -87 -312 -137 -471 -166 -99 -19 -108 -18 -137 11 -23 23 -25 23 -44
6 -10 -9 -19 -23 -19 -31 0 -10 -22 -13 -97 -13 -54 0 -122 3 -151 7 -48 5
-51 7 -38 22 25 27 6 43 -35 29 -19 -6 -38 -17 -44 -24 -8 -10 -29 -7 -98 11
-125 33 -150 44 -136 61 6 8 19 14 29 14 38 0 30 23 -18 49 -18 10 -26 10 -38
0 -24 -20 -28 -2 -5 27 11 15 21 22 21 15 0 -15 30 -14 31 2 3 26 -3 38 -27
63 -25 24 -27 25 -46 8 -13 -13 -17 -26 -13 -41 3 -15 0 -30 -10 -39 -17 -18
-12 -48 13 -73 31 -32 -11 -21 -115 29 -110 52 -222 119 -223 133 0 4 10 7 23
7 22 0 47 16 47 31 0 12 -89 51 -101 44 -6 -4 -9 -20 -5 -36 8 -40 7 -40 -64
20 -142 119 -163 141 -140 141 7 0 23 9 37 20 14 11 30 17 36 13 7 -4 8 0 4
11 -4 10 -7 22 -7 27 0 5 -13 9 -29 9 -20 0 -37 -9 -55 -30 l-25 -31 -28 32
c-15 18 -43 48 -61 68 -39 42 -138 188 -168 246 l-20 41 33 -4 c36 -5 54 18
36 46 -15 24 -30 25 -53 2 -17 -17 -23 -18 -34 -8 -7 7 -15 22 -18 33 -3 11
-9 28 -13 38 -5 13 -2 17 14 17 12 0 24 7 28 17 8 20 -34 56 -58 50 -18 -5
-34 17 -30 41 1 8 -3 20 -10 29 -10 12 -10 16 1 23 12 7 12 12 -2 27 -8 10
-13 24 -10 32 2 8 -3 20 -12 26 -9 7 -19 26 -22 43 -6 28 -3 33 20 42 40 15
35 47 -9 56 -32 6 -35 9 -35 39 0 18 -3 40 -6 48 -4 11 4 17 25 22 41 9 42 42
2 56 -32 11 -47 44 -25 53 8 3 14 12 14 19 0 24 67 77 97 77 l28 0 -24 19
c-23 17 -23 19 -7 42 21 31 20 49 -2 49 -43 0 -63 -36 -47 -87 5 -16 3 -23 -6
-23 -7 0 -26 -12 -42 -27 l-29 -28 6 55 c3 30 6 62 6 71 0 11 12 19 33 23 19
3 42 12 52 20 28 20 4 47 -39 43 l-31 -2 3 55 c3 81 9 100 28 93 9 -3 19 -1
23 4 3 5 15 15 26 21 11 6 14 12 7 12 -9 0 -9 6 3 24 14 21 14 24 0 36 -13 11
-19 10 -35 -5 -11 -10 -22 -16 -24 -14 -2 2 4 29 13 59 15 47 18 52 25 33 11
-33 54 -31 62 2 4 16 13 25 23 24 45 -4 54 11 24 43 -22 24 -58 23 -83 -4 -36
-39 -19 19 46 160 34 73 54 100 54 72 0 -5 14 -10 30 -10 26 0 29 3 22 18 -12
22 -1 51 32 81 34 32 35 54 2 41 -21 -8 -17 2 31 70 31 44 61 80 67 79 6 0 6
-3 -1 -6 -7 -2 -13 -15 -13 -29 0 -28 41 -44 65 -24 17 14 20 46 5 55 -5 3 4
19 21 35 30 27 30 28 10 35 -11 3 -26 3 -33 -1 -7 -4 16 23 52 60 65 67 218
192 249 203 9 4 27 15 41 25 24 19 24 19 32 -1 11 -31 49 -26 77 9 13 17 33
30 46 30 12 0 32 9 45 20 12 11 31 22 42 26 15 4 18 12 14 29 -5 21 1 25 81
50 52 17 88 24 90 18 2 -6 10 -18 17 -28 12 -17 15 -17 37 -2 13 10 41 17 62
17 25 0 39 5 42 15 15 46 18 51 22 28 3 -13 8 -23 12 -23 4 0 5 -15 3 -34 -4
-33 -4 -34 -78 -46 -83 -14 -101 -27 -80 -55 12 -17 17 -18 40 -7 15 7 36 12
46 12 11 0 20 4 20 9 0 5 16 12 36 16 23 4 38 13 41 24 5 21 88 35 140 25 40
-8 58 14 42 50 -7 14 -16 26 -20 26 -4 0 -14 3 -22 6 -10 3 -18 -2 -22 -15 -5
-17 -14 -21 -48 -20 -41 1 -42 1 -15 13 27 12 27 12 7 26 -19 14 -18 15 23 21
63 9 325 2 383 -10z m-982 -168 c-3 -13 -16 -19 -46 -20 l-42 -2 40 18 c51 25
54 25 48 4z m1627 -2602 c0 -5 -7 -11 -15 -15 -8 -3 -15 -1 -15 3 0 5 -3 17
-7 26 -5 15 -3 16 15 6 12 -7 22 -16 22 -20z m250 -1 c19 6 36 10 37 10 2 0 3
-16 3 -35 0 -21 5 -35 12 -35 9 0 9 -3 1 -11 -8 -8 -18 -6 -36 6 -25 16 -27
16 -43 -4 -17 -19 -19 -19 -36 -4 -24 21 -23 33 3 33 18 0 19 3 9 15 -6 8 -9
19 -5 26 5 8 9 8 14 0 5 -7 17 -8 41 -1z"/>
<path d="M2110 3642 c-30 -14 -35 -22 -32 -46 2 -16 -2 -32 -8 -36 -18 -11
-19 -48 -2 -63 19 -16 92 -22 92 -7 0 6 6 10 13 10 23 0 90 77 83 95 -5 14 -9
15 -21 5 -12 -10 -21 -10 -45 0 -16 7 -29 15 -28 19 2 18 -3 41 -9 41 -5 0
-24 -8 -43 -18z m45 -82 c-3 -5 -12 -10 -20 -10 -8 0 -17 5 -20 10 -4 6 5 10
20 10 15 0 24 -4 20 -10z"/>
<path d="M2284 3639 c-17 -28 2 -119 26 -119 5 0 12 16 16 36 5 28 14 39 38
50 24 10 26 13 11 14 -12 0 -25 4 -30 9 -18 16 -53 22 -61 10z"/>
<path d="M2416 3595 c-17 -15 -27 -34 -25 -48 1 -12 -1 -30 -6 -39 -4 -10 -4
-26 0 -35 4 -10 9 -31 10 -46 3 -28 2 -29 -34 -22 -20 3 -50 15 -67 24 -30 18
-31 18 -47 -2 -21 -27 -21 -29 4 -61 12 -15 17 -26 12 -25 -24 4 -32 -4 -31
-31 1 -28 21 -50 41 -47 4 1 16 -13 28 -31 19 -33 21 -33 42 -18 23 17 29 20
61 30 19 7 19 7 0 20 -10 7 -30 16 -44 19 -31 8 -78 49 -62 55 7 2 12 15 12
28 0 13 4 24 9 24 5 0 16 3 25 6 13 5 16 -1 16 -25 0 -36 14 -39 66 -15 33 16
35 16 57 -8 17 -18 21 -33 19 -68 -3 -46 23 -100 34 -72 3 6 12 12 20 12 8 0
14 5 14 10 0 6 7 10 15 10 17 0 20 -16 4 -26 -6 -3 -8 -17 -5 -30 6 -21 3 -24
-23 -24 -29 0 -57 -21 -44 -34 4 -4 -1 -4 -11 0 -13 5 -23 1 -32 -11 -11 -15
-11 -22 2 -46 15 -31 44 -39 44 -14 0 8 7 15 15 15 8 0 15 5 15 10 0 6 6 10
13 10 21 0 57 39 51 55 -4 10 0 15 15 15 12 0 21 6 20 13 -4 31 2 68 10 63 5
-3 20 3 34 14 32 25 37 25 37 0 0 -21 33 -28 59 -11 19 12 6 58 -19 66 -11 3
-20 14 -20 24 0 30 -25 45 -44 26 -9 -9 -16 -23 -16 -31 0 -8 -8 -14 -18 -14
-11 0 -24 -10 -30 -22 -6 -13 -11 -17 -11 -10 -1 6 -10 12 -20 12 -22 0 -58
43 -41 48 5 2 10 11 10 21 0 24 -72 42 -111 28 -24 -9 -32 -8 -46 6 -15 15
-15 17 -1 17 24 0 43 29 40 61 -2 18 4 35 18 49 11 11 18 25 15 30 -4 6 -1 10
5 10 6 0 10 10 8 23 -2 14 -10 22 -23 22 -11 0 -25 3 -31 7 -6 4 -24 -4 -38
-17z"/>
<path d="M1570 3546 c0 -16 -5 -24 -12 -21 -22 7 -50 -21 -46 -47 2 -17 10
-24 33 -26 32 -4 58 20 48 44 -3 9 0 12 9 9 7 -3 21 0 31 7 15 11 16 16 5 30
-7 9 -25 20 -40 24 -25 5 -28 3 -28 -20z"/>
<path d="M2624 3556 c-23 -17 -12 -66 15 -66 25 0 41 22 35 47 -8 28 -27 35
-50 19z"/>
<path d="M1900 3530 c0 -15 -9 -22 -30 -26 -16 -4 -30 -10 -30 -14 0 -4 -11
-11 -24 -14 -27 -7 -38 -27 -25 -47 7 -12 13 -11 40 4 38 21 55 22 63 2 7 -20
30 -19 51 1 11 12 13 20 6 27 -16 16 -13 27 8 27 10 0 24 7 31 15 18 22 -10
45 -54 45 -29 0 -36 -4 -36 -20z"/>
<path d="M2536 3485 c-14 -37 -7 -55 22 -55 37 0 50 11 47 40 -1 20 -8 26 -32
28 -21 2 -32 -2 -37 -13z"/>
<path d="M2743 3481 c-3 -11 -17 -21 -33 -25 -24 -4 -27 -9 -22 -28 7 -28 34
-50 46 -38 5 5 15 6 22 3 18 -7 44 15 44 37 0 13 6 16 26 12 19 -3 25 -1 20 7
-4 6 -12 11 -17 11 -15 0 -39 26 -32 34 4 3 -6 6 -21 6 -19 0 -29 -6 -33 -19z"/>
<path d="M1406 3428 c-9 -12 -16 -30 -16 -38 0 -11 -11 -17 -37 -18 -52 -4
-69 -35 -37 -66 11 -12 20 -13 34 -6 23 13 43 13 35 1 -3 -5 4 -26 16 -46 18
-31 26 -35 47 -30 17 4 31 0 46 -14 12 -12 37 -24 56 -28 l35 -6 -17 25 -17
26 42 10 c49 13 94 41 65 42 -10 0 -18 5 -18 11 0 7 -15 10 -40 7 -22 -2 -42
1 -44 7 -2 5 -12 0 -23 -12 -11 -13 -27 -23 -36 -23 -8 0 -18 -6 -21 -12 -3
-7 -3 -3 0 10 3 12 1 22 -5 22 -6 0 -11 6 -11 14 0 15 -45 30 -60 21 -5 -3
-11 -1 -15 5 -3 5 -1 10 5 10 6 0 8 5 5 10 -3 6 0 10 8 10 8 0 25 8 38 19 18
14 30 17 53 10 45 -13 55 -10 23 7 -16 9 -25 20 -21 26 5 7 2 9 -7 6 -8 -3
-23 0 -34 8 -25 19 -31 18 -49 -8z"/>
<path d="M1630 3426 c-14 -14 -12 -53 3 -59 22 -8 65 4 71 20 8 19 -1 33 -20
33 -8 0 -14 4 -14 8 0 12 -27 11 -40 -2z"/>
<path d="M2115 3411 c-7 -23 3 -50 18 -47 48 8 87 29 87 47 0 16 -7 19 -49 19
-40 0 -51 -4 -56 -19z"/>
<path d="M1170 3391 c-15 -29 -12 -51 8 -51 15 0 42 40 42 62 0 16 -40 7 -50
-11z"/>
<path d="M1818 3384 c-12 -25 -12 -25 -20 -5 -9 25 -40 27 -59 5 -18 -21 1
-49 32 -48 86 5 141 33 118 61 -19 23 -58 16 -71 -13z"/>
<path d="M1996 3394 c-5 -14 17 -64 28 -64 2 0 20 7 40 15 50 21 49 50 -1 59
-55 9 -60 8 -67 -10z"/>
<path d="M2834 3345 c-9 -14 -15 -27 -13 -28 2 -2 16 -8 31 -15 22 -9 30 -8
43 4 22 23 19 51 -7 58 -34 9 -36 8 -54 -19z"/>
<path d="M2995 3352 c-13 -9 -35 -49 -35 -62 0 -5 6 -7 14 -4 8 3 25 -2 39
-11 24 -15 25 -15 37 14 19 48 -18 91 -55 63z"/>
<path d="M1921 3341 c-18 -12 -10 -67 9 -62 8 2 30 6 48 9 28 4 33 2 30 -14
-4 -27 32 -29 78 -5 21 12 33 21 26 21 -10 0 -10 4 0 20 18 29 -4 50 -29 27
-24 -21 -73 -39 -73 -27 0 6 -8 10 -18 10 -10 0 -27 6 -38 14 -11 8 -26 11
-33 7z"/>
<path d="M1072 3264 c-19 -14 -12 -48 12 -52 10 -2 29 2 42 9 13 7 27 10 30 6
11 -10 13 -87 3 -87 -5 0 -8 -12 -6 -27 5 -36 36 -41 81 -14 49 31 61 48 46
66 -17 21 -3 35 36 35 19 0 34 3 34 6 0 11 -29 34 -43 34 -8 0 -17 9 -20 20
-6 22 -37 28 -37 7 0 -8 -9 -25 -21 -38 -12 -14 -19 -33 -16 -46 2 -13 1 -23
-3 -23 -4 0 -10 12 -13 28 -4 19 -1 32 12 42 16 14 16 17 3 30 -19 17 -118 20
-140 4z"/>
<path d="M1733 3265 c-11 -8 -12 -17 -3 -39 9 -24 14 -27 36 -22 15 4 42 17
61 30 l34 23 -28 12 c-32 13 -79 11 -100 -4z"/>
<path d="M2925 3229 c-7 -22 -16 -24 -33 -7 -13 13 -42 -6 -42 -28 0 -10 -9
-12 -31 -7 -34 7 -49 -6 -49 -44 0 -25 19 -30 52 -12 13 7 18 7 14 1 -8 -14
13 -59 30 -66 8 -3 18 3 24 14 13 24 13 60 0 60 -5 0 -10 3 -10 8 0 4 25 5 55
4 41 -3 55 0 55 9 0 8 7 4 15 -8 8 -12 21 -20 27 -19 7 2 35 6 62 11 l50 8
-41 16 c-22 9 -47 22 -56 29 -9 8 -20 11 -25 8 -5 -3 -20 2 -33 12 -39 30 -57
33 -64 11z"/>
<path d="M1973 3228 c-22 -29 -21 -57 3 -72 14 -10 25 -12 29 -6 3 6 1 10 -5
10 -8 0 -10 13 -5 40 7 40 -3 52 -22 28z"/>
<path d="M1840 3215 c-19 -7 -39 -19 -44 -27 -12 -20 -1 -48 20 -48 10 0 25
-6 33 -14 30 -26 59 -28 81 -6 24 24 22 41 -7 55 -18 10 -19 12 -5 33 14 21
13 22 -14 21 -16 -1 -45 -7 -64 -14z"/>
<path d="M2110 3201 c0 -34 25 -48 49 -28 9 8 25 17 36 22 18 6 16 9 -15 20
-57 22 -70 19 -70 -14z"/>
<path d="M982 3168 c-31 -31 -5 -68 41 -59 42 9 48 41 10 59 -33 15 -36 15
-51 0z"/>
<path d="M1390 3129 c-22 -28 -40 -57 -40 -65 0 -9 -4 -13 -9 -10 -11 7 -21
-18 -21 -55 0 -36 44 -64 60 -38 5 8 7 22 4 31 -5 18 27 34 59 29 9 -1 17 2
17 8 0 15 -39 33 -61 28 -11 -3 -19 0 -19 6 1 24 28 47 57 47 16 0 33 4 39 9
5 5 20 12 33 16 l23 7 -23 -32 c-24 -31 -24 -32 -5 -46 29 -21 56 -18 56 7 0
11 5 17 10 14 22 -14 71 -13 97 0 20 11 28 23 29 46 2 33 -18 48 -39 31 -11
-10 -53 -14 -130 -13 -15 0 -37 7 -49 16 -34 23 -44 19 -88 -36z"/>
<path d="M2383 3170 c-25 -10 -26 -13 -17 -47 8 -28 28 -29 61 -3 14 11 22 20
17 20 -4 0 -3 5 4 12 7 7 12 16 12 20 0 11 -49 9 -77 -2z"/>
<path d="M2688 3151 c-9 -10 -22 -21 -29 -23 -11 -4 -10 -12 5 -42 11 -20 25
-36 32 -36 7 0 19 -3 28 -6 10 -4 20 5 31 26 15 29 15 34 1 55 -25 38 -50 47
-68 26z"/>
<path d="M1998 3127 c-49 -19 -33 -89 17 -79 17 3 24 11 24 26 0 11 1 30 3 40
4 23 -9 27 -44 13z"/>
<path d="M2220 3112 c-25 -8 -51 -16 -57 -18 -7 -2 -13 -17 -13 -34 0 -16 -4
-30 -10 -30 -19 0 -10 -49 11 -61 27 -14 42 0 42 39 0 23 8 33 33 47 44 24 76
54 69 66 -8 12 -19 10 -75 -9z"/>
<path d="M2941 3109 c-22 -24 -27 -54 -12 -78 6 -10 23 -12 60 -9 28 3 54 1
57 -3 15 -24 74 8 74 39 0 18 -69 15 -76 -2 -9 -22 -77 12 -71 35 9 33 -9 43
-32 18z"/>
<path d="M1085 3103 c-11 -2 -30 -6 -42 -9 -16 -3 -23 -12 -23 -29 0 -13 5
-27 10 -30 8 -5 7 -11 -1 -21 -6 -8 -9 -22 -6 -33 3 -14 0 -17 -14 -14 -22 6
-25 -16 -8 -48 8 -16 13 -18 25 -8 8 6 14 20 14 30 0 11 5 19 11 19 6 0 23 13
38 29 21 23 25 34 18 47 -7 13 -5 21 8 30 17 12 15 45 -2 43 -4 -1 -17 -3 -28
-6z"/>
<path d="M932 3058 c-20 -20 -15 -58 7 -58 20 0 31 18 31 51 0 21 -20 25 -38
7z"/>
<path d="M2365 3043 c-31 -8 -44 -33 -32 -60 14 -31 32 -29 66 9 42 47 28 66
-34 51z"/>
<path d="M1828 3026 c-10 -10 -20 -11 -31 -4 -14 7 -19 4 -26 -14 -15 -40 -3
-51 48 -43 25 4 48 10 51 14 3 5 15 13 28 20 19 10 21 15 11 27 -15 18 -63 18
-81 0z"/>
<path d="M1600 3011 c0 -50 21 -61 75 -41 24 9 25 11 11 26 -9 9 -14 20 -11
25 4 5 -12 9 -34 9 -34 0 -41 -3 -41 -19z"/>
<path d="M2601 3013 c-9 -15 -12 -15 -20 -4 -13 21 -24 -5 -11 -29 6 -11 19
-20 30 -20 10 0 22 -5 25 -11 5 -7 -8 -9 -37 -7 -40 3 -43 1 -46 -24 -2 -18 3
-31 17 -39 17 -11 18 -14 4 -24 -21 -15 -2 -52 30 -60 17 -5 22 -13 21 -33 -1
-15 3 -35 8 -45 7 -14 5 -22 -7 -31 -14 -10 -15 -17 -7 -33 14 -25 48 -35 61
-19 10 12 10 41 -1 51 -12 12 5 55 22 55 10 0 23 7 30 15 7 8 19 15 26 15 8 0
14 7 14 16 0 8 -4 13 -9 9 -6 -3 -7 9 -4 30 4 28 2 35 -10 35 -9 0 -23 -10
-32 -22 -8 -13 -16 -23 -18 -22 -34 15 -87 46 -92 54 -3 5 3 10 13 10 11 0 25
7 32 15 7 8 22 15 34 15 11 0 31 3 44 6 l23 7 -23 13 c-13 8 -31 17 -40 20
-20 7 -24 29 -7 39 6 4 -1 13 -16 21 -35 18 -42 18 -54 -3z"/>
<path d="M2725 3010 c-10 -32 33 -72 61 -58 18 10 18 9 3 -7 -15 -15 -15 -20
-2 -46 16 -33 42 -37 66 -11 27 30 10 102 -25 102 -10 0 -17 4 -13 9 7 12 -2
18 -47 26 -32 6 -37 4 -43 -15z"/>
<path d="M2473 3002 c-13 -2 -23 -9 -23 -17 0 -7 -3 -20 -6 -29 -10 -26 23
-30 56 -6 48 34 34 62 -27 52z"/>
<path d="M852 2985 c-26 -11 -33 -20 -30 -37 2 -13 -3 -28 -11 -34 -9 -7 -12
-20 -8 -36 9 -35 54 -27 64 11 3 14 15 39 26 54 17 24 17 31 6 42 -12 11 -19
11 -47 0z"/>
<path d="M1484 2975 c-5 -19 -11 -24 -25 -20 -26 9 -46 -34 -30 -64 12 -21 89
-67 98 -58 2 3 0 14 -6 25 -8 15 -6 24 11 42 17 18 19 26 10 41 -7 10 -12 25
-12 33 0 11 -20 26 -36 26 -2 0 -6 -11 -10 -25z"/>
<path d="M1236 2983 c-3 -4 -16 -8 -28 -10 -34 -5 -56 -35 -47 -61 10 -27 24
-28 74 -2 22 11 45 18 51 16 13 -5 27 35 16 45 -12 11 -59 19 -66 12z"/>
<path d="M2018 2972 c-35 -21 -41 -37 -22 -57 14 -13 18 -13 39 3 27 19 40 46
30 62 -8 13 -14 12 -47 -8z"/>
<path d="M2238 2978 c-9 -7 -18 -22 -20 -33 -2 -15 3 -21 22 -23 32 -4 58 32
39 54 -14 17 -21 17 -41 2z"/>
<path d="M2880 2956 c0 -23 4 -26 35 -26 32 0 41 -8 36 -34 -1 -5 4 -13 11
-17 18 -12 5 -20 -36 -23 -72 -6 -145 -101 -103 -133 10 -8 44 -9 77 -4 2 1
-5 8 -17 16 -19 13 -21 19 -11 40 8 19 16 23 34 19 13 -3 35 2 53 12 30 18 32
18 52 -2 l20 -21 -28 -18 c-15 -10 -39 -31 -53 -46 -22 -24 -32 -27 -67 -24
-49 5 -67 -11 -57 -49 7 -30 29 -33 62 -10 21 14 22 14 22 -10 0 -26 22 -36
34 -17 4 5 24 12 46 16 46 8 62 24 31 32 -12 3 -21 10 -21 15 0 6 7 8 14 5 8
-3 37 -2 65 2 l49 8 -15 -24 c-8 -12 -11 -23 -7 -23 5 0 2 -4 -5 -9 -12 -8 -9
-11 12 -16 37 -10 67 17 65 59 -1 24 -6 31 -22 32 -73 4 -100 25 -62 49 14 10
26 23 26 30 0 8 9 17 20 20 20 6 38 50 26 62 -3 3 -20 2 -38 -3 -24 -7 -34
-16 -37 -34 -3 -26 -17 -40 -40 -40 -22 0 -9 100 15 117 16 12 17 15 4 23 -8
5 -24 10 -35 10 -11 0 -32 6 -47 14 -14 8 -45 17 -67 21 -39 6 -41 6 -41 -19z"/>
<path d="M1760 2904 c0 -23 5 -33 20 -37 11 -3 20 -2 20 2 0 4 12 8 26 9 27 2
56 29 50 47 -1 6 -28 10 -59 10 l-57 1 0 -32z"/>
<path d="M2469 2915 c-30 -16 -45 -63 -22 -72 8 -3 26 0 41 7 15 7 22 15 15
17 -10 3 -10 9 0 23 17 28 -2 42 -34 25z"/>
<path d="M1942 2908 c-7 -7 -12 -25 -12 -40 0 -22 4 -28 23 -28 53 1 70 38 28
63 -21 12 -31 13 -39 5z"/>
<path d="M2074 2898 c-7 -23 3 -38 21 -32 8 4 18 -1 21 -10 8 -21 16 -20 42 4
19 18 20 24 9 40 -16 26 -84 24 -93 -2z"/>
<path d="M2337 2903 c-12 -11 -7 -40 8 -53 11 -9 25 -10 47 -4 29 9 30 10 15
26 -10 9 -17 21 -17 27 0 12 -43 15 -53 4z"/>
<path d="M968 2892 c-23 -3 -28 -8 -28 -33 0 -35 25 -39 58 -9 36 34 25 49
-30 42z"/>
<path d="M3317 2878 c-31 -17 -14 -68 23 -68 26 0 52 24 45 41 -9 23 -48 39
-68 27z"/>
<path d="M3407 2883 c-14 -13 -6 -50 13 -68 24 -22 29 -55 5 -35 -12 10 -18
10 -30 0 -8 -7 -15 -9 -15 -5 0 4 -7 2 -15 -5 -32 -26 -6 -90 30 -76 18 7 19
2 3 -27 -6 -12 -14 -41 -16 -64 -3 -37 -1 -43 16 -43 13 0 24 12 35 38 14 34
15 35 16 10 1 -17 8 -29 21 -33 11 -3 20 -11 20 -16 0 -6 9 -7 20 -4 13 4 22
1 26 -9 8 -20 43 -21 50 -1 4 8 3 27 0 41 -5 20 -11 24 -29 18 -12 -4 -25 -12
-29 -18 -5 -6 -8 -2 -8 10 0 12 -11 33 -24 47 -13 14 -21 28 -18 31 9 10 -29
45 -44 39 -15 -6 -19 14 -6 34 5 8 13 9 22 3 23 -15 67 -12 73 4 3 8 -9 30
-29 50 -19 19 -34 44 -34 54 0 25 -37 42 -53 25z"/>
<path d="M1076 2843 c-8 -30 5 -43 47 -43 32 0 37 28 9 53 -27 25 -49 21 -56
-10z"/>
<path d="M1597 2850 c-7 -29 15 -54 41 -46 12 4 22 15 22 25 0 39 -53 57 -63
21z"/>
<path d="M2233 2855 c-28 -31 -9 -55 42 -55 20 0 23 -5 21 -32 -1 -27 3 -34
21 -36 17 -3 24 3 29 22 7 28 -9 56 -32 56 -7 0 -26 13 -41 29 -24 25 -30 28
-40 16z"/>
<path d="M1242 2837 c-8 -9 -7 -21 3 -41 19 -36 19 -35 -5 -29 -22 6 -53 -24
-43 -40 18 -29 93 -30 93 -1 0 8 6 14 13 15 6 0 2 5 -10 11 -20 10 -21 12 -7
23 15 10 15 14 0 43 -18 35 -28 39 -44 19z"/>
<path d="M3227 2833 c-4 -3 -7 -21 -7 -40 0 -28 4 -33 23 -33 30 0 59 22 55
40 -5 26 -56 49 -71 33z"/>
<path d="M2086 2823 c-25 -4 -28 -8 -22 -34 3 -16 2 -29 -3 -29 -16 0 -19 -40
-5 -54 21 -22 77 8 69 35 -5 13 1 25 16 38 14 11 20 24 16 34 -6 17 -15 18
-71 10z"/>
<path d="M2466 2812 c-12 -11 -6 -53 8 -58 21 -8 58 15 54 33 -3 17 -52 36
-62 25z"/>
<path d="M1336 2795 c-4 -10 1 -15 16 -15 17 0 18 2 8 15 -7 8 -14 15 -15 15
-2 0 -5 -7 -9 -15z"/>
<path d="M1672 2783 c2 -22 10 -29 36 -34 30 -6 32 -5 32 21 0 20 -6 29 -22
34 -42 11 -49 7 -46 -21z"/>
<path d="M1813 2791 c-39 -14 -43 -19 -43 -48 0 -26 4 -31 21 -30 25 2 89 60
89 80 0 17 -14 17 -67 -2z"/>
<path d="M1394 2787 c-7 -8 -8 -22 -3 -35 6 -16 4 -24 -9 -31 -13 -8 -15 -15
-7 -38 9 -23 17 -29 48 -31 37 -3 51 11 22 22 -21 8 -19 32 5 56 22 22 27 60
8 60 -7 0 -22 2 -33 5 -11 3 -25 -1 -31 -8z"/>
<path d="M615 2760 c-19 -21 -19 -46 0 -54 8 -3 15 -12 15 -20 0 -17 27 -29
35 -16 4 6 18 10 33 10 19 0 23 -3 15 -11 -6 -6 -9 -17 -6 -24 2 -8 -4 -18
-15 -24 -29 -16 -35 -49 -9 -57 15 -5 26 0 38 15 9 11 25 21 33 21 24 0 66 30
66 46 0 8 -14 17 -30 21 -41 8 -45 18 -15 41 14 11 25 28 25 37 0 15 -7 17
-52 11 -36 -5 -53 -3 -59 5 -11 18 -58 17 -74 -1z"/>
<path d="M1093 2766 c-7 -6 -19 -17 -28 -24 -8 -7 -15 -21 -15 -30 0 -25 49
-51 83 -45 30 6 36 20 12 29 -9 4 -15 19 -15 39 0 35 -17 50 -37 31z"/>
<path d="M836 2734 c-5 -25 -3 -43 8 -60 19 -29 46 -22 46 12 0 13 5 24 10 24
14 0 13 33 -2 48 -7 7 -22 12 -34 12 -17 0 -23 -8 -28 -36z"/>
<path d="M1536 2757 c-12 -9 -17 -23 -14 -42 2 -26 7 -29 28 -27 31 5 30 3 37
46 5 31 3 36 -14 36 -10 0 -27 -6 -37 -13z"/>
<path d="M2177 2763 c-13 -3 -17 -11 -14 -24 3 -11 0 -19 -8 -19 -16 0 -25
-22 -25 -60 0 -35 22 -45 41 -19 8 11 33 29 57 39 42 19 58 37 23 25 -16 -5
-20 0 -23 27 -3 33 -15 41 -51 31z"/>
<path d="M2397 2738 c-9 -35 10 -59 44 -56 37 3 44 11 24 28 -8 7 -15 18 -15
25 0 12 -21 25 -40 25 -4 0 -10 -10 -13 -22z"/>
<path d="M1930 2720 c0 -11 -5 -20 -12 -20 -18 0 12 -26 39 -35 18 -5 25 -1
32 18 6 14 15 28 21 32 18 11 -8 25 -47 25 -26 0 -33 -4 -33 -20z"/>
<path d="M3270 2720 c0 -6 -13 -16 -30 -21 -33 -12 -37 -25 -16 -54 11 -15 26
-19 71 -19 37 0 59 4 65 13 13 21 1 41 -25 41 -17 0 -25 7 -27 22 -3 23 -38
39 -38 18z"/>
<path d="M2517 2696 c-10 -26 14 -77 41 -87 40 -15 47 3 20 52 -26 46 -51 61
-61 35z"/>
<path d="M982 2683 c-48 -5 -61 -22 -43 -56 6 -12 13 -33 16 -46 5 -25 23 -51
36 -51 6 0 21 31 24 50 0 3 4 10 8 17 4 6 1 13 -5 16 -7 2 -1 8 15 12 25 7 39
25 18 25 -5 0 -8 7 -7 16 1 20 -5 22 -62 17z"/>
<path d="M1564 2670 c-12 -5 -25 -13 -29 -19 -3 -6 -17 -8 -30 -5 -15 4 -26 0
-32 -9 -4 -9 -32 -22 -62 -29 -61 -15 -82 -37 -62 -62 17 -20 54 -12 88 20 21
19 33 23 63 18 29 -5 38 -2 43 10 4 9 12 16 20 16 18 0 57 38 57 55 0 16 -23
18 -56 5z"/>
<path d="M1668 2653 c-45 -30 -52 -70 -15 -75 41 -6 101 88 62 98 -5 2 -27 -9
-47 -23z"/>
<path d="M1773 2674 c-16 -7 -17 -50 -3 -59 16 -10 62 24 58 43 -3 17 -32 25
-55 16z"/>
<path d="M2196 2641 c-9 -10 -14 -25 -10 -35 3 -9 2 -16 -4 -16 -6 0 -12 4
-14 9 -1 5 -21 10 -43 12 -22 1 -46 7 -52 12 -17 12 -43 -9 -43 -34 0 -32 24
-39 93 -28 31 5 37 3 37 -11 0 -29 31 -33 57 -8 l24 23 -22 18 -22 18 29 -5
c36 -7 49 2 58 37 6 26 5 27 -32 27 -25 0 -45 -7 -56 -19z"/>
<path d="M2737 2641 c-10 -4 -17 -11 -15 -16 2 -6 -10 -12 -27 -15 -32 -5 -43
-32 -25 -60 8 -13 13 -13 38 2 20 12 29 13 29 5 0 -7 3 -24 6 -38 6 -23 3 -27
-22 -32 -29 -6 -45 -34 -31 -56 5 -9 25 -6 76 10 38 12 73 26 79 31 5 5 -5 20
-28 39 -41 34 -50 65 -16 56 31 -8 37 22 8 45 -39 30 -53 36 -72 29z"/>
<path d="M2405 2616 c-41 -18 -67 -49 -59 -70 4 -9 20 -24 37 -32 24 -13 31
-14 38 -2 5 7 7 23 4 35 -3 15 2 26 15 36 16 11 17 16 7 30 -10 14 -16 14 -42
3z"/>
<path d="M1233 2599 c-15 -15 -5 -39 17 -39 19 0 34 25 24 41 -7 12 -28 11
-41 -2z"/>
<path d="M1924 2599 c-4 -7 -22 -9 -50 -4 l-44 6 3 -45 c2 -24 8 -51 14 -58 8
-10 7 -18 -4 -33 -14 -20 -15 -20 -37 8 -12 15 -26 27 -31 27 -6 0 -21 14 -35
30 -20 24 -33 30 -63 30 -30 0 -39 -5 -46 -22 -7 -18 -4 -28 17 -45 14 -13 31
-23 38 -23 7 0 20 -7 28 -15 11 -12 21 -13 34 -6 11 6 24 6 33 0 7 -5 24 -9
36 -9 12 0 23 -4 25 -9 2 -5 21 -11 43 -13 37 -3 40 -1 40 21 0 13 6 26 13 28
6 3 12 0 12 -5 0 -16 30 -23 52 -11 15 8 22 8 28 0 5 -9 13 -9 33 0 21 10 33
10 53 0 32 -14 42 -7 26 19 -7 11 -12 29 -12 40 0 11 -3 20 -7 21 -5 0 -17 2
-28 4 -10 2 -25 -1 -31 -6 -19 -16 -156 -21 -151 -6 2 7 9 11 15 10 21 -5 62
16 62 31 0 20 -56 50 -66 35z"/>
<path d="M1104 2590 c-28 -11 -34 -22 -27 -48 7 -28 37 -28 94 -2 30 13 37 20
23 20 -12 0 -25 7 -28 16 -4 9 -9 14 -13 11 -3 -4 -11 -3 -17 2 -6 5 -21 5
-32 1z"/>
<path d="M2975 2587 c-10 -8 -15 -19 -12 -24 4 -6 -3 -10 -15 -9 -15 1 -24 -7
-31 -29 -6 -16 -21 -38 -34 -48 -18 -15 -21 -22 -13 -38 6 -10 8 -19 5 -19 -8
0 24 -60 33 -61 4 0 19 -3 35 -5 20 -3 27 -1 27 11 0 9 12 18 30 22 31 6 41
30 16 39 -8 3 -30 1 -49 -4 -31 -9 -36 -8 -40 10 -7 27 13 58 37 58 14 0 17 6
14 25 -4 18 -1 25 11 25 9 0 27 9 41 20 21 17 23 21 10 30 -21 14 -43 12 -65
-3z"/>
<path d="M3278 2565 c-53 -14 -83 -38 -72 -57 6 -10 4 -10 -7 -2 -29 23 -58
23 -81 -1 -22 -22 -26 -22 -62 -10 -21 7 -44 11 -51 9 -19 -8 -25 -42 -9 -55
16 -13 78 -6 99 11 9 7 15 8 15 2 0 -5 12 -13 26 -16 20 -5 32 -2 46 13 10 12
27 21 38 21 26 0 51 11 45 20 -3 4 7 11 21 14 27 7 58 -9 49 -25 -9 -14 34
-50 53 -45 42 11 120 17 126 8 3 -5 -5 -7 -18 -5 -29 6 -40 -10 -32 -43 5 -19
13 -24 36 -24 29 0 33 5 33 42 0 10 3 16 7 13 4 -2 21 1 37 7 l30 11 -27 24
c-28 23 -64 30 -74 14 -3 -5 -29 -4 -58 1 -93 15 -96 17 -91 36 2 10 -4 25
-14 33 -15 14 -25 14 -65 4z"/>
<path d="M917 2564 c-12 -12 -8 -69 6 -83 10 -10 7 -17 -14 -34 -27 -23 -28
-51 -3 -61 8 -3 22 2 32 12 9 9 30 23 45 29 36 17 39 68 4 84 -13 6 -27 20
-32 32 -11 22 -27 32 -38 21z"/>
<path d="M796 2544 c-7 -19 19 -54 41 -54 10 0 13 10 11 33 -2 24 -8 33 -24
35 -13 2 -24 -4 -28 -14z"/>
<path d="M2558 2538 c-13 -13 -18 -13 -21 -3 -8 18 -55 7 -68 -16 -8 -15 -4
-27 17 -54 36 -47 54 -46 54 5 0 37 2 40 19 30 11 -5 27 -10 35 -10 21 0 56
39 49 56 -7 18 -64 13 -85 -8z"/>
<path d="M653 2533 c-7 -2 -13 -11 -13 -19 0 -8 -7 -14 -15 -14 -17 0 -20 -36
-6 -59 13 -20 61 -6 61 18 0 10 10 25 22 33 41 27 0 61 -49 41z"/>
<path d="M1454 2508 c-9 -28 15 -48 49 -41 36 7 54 38 30 51 -32 17 -72 11
-79 -10z"/>
<path d="M1111 2499 c-46 -9 -61 -21 -61 -51 0 -23 19 -23 70 -1 30 13 40 23
40 40 0 13 -1 23 -2 22 -2 -1 -23 -5 -47 -10z"/>
<path d="M1248 2484 c-47 -24 -54 -36 -42 -68 8 -20 48 -21 64 -1 7 8 17 15
23 15 5 0 2 -8 -7 -19 -9 -10 -18 -28 -19 -39 0 -11 -11 -25 -23 -31 -27 -12
-22 -44 9 -59 38 -18 67 -24 67 -13 0 6 -4 11 -10 11 -5 0 -9 11 -8 25 2 23 6
25 50 25 38 0 48 4 53 20 10 31 -11 49 -51 44 -24 -3 -34 0 -34 10 0 7 -7 19
-15 26 -13 10 -13 15 -1 32 14 19 12 49 -3 48 -3 -1 -27 -12 -53 -26z"/>
<path d="M2195 2491 c-13 -22 6 -51 33 -52 84 -4 155 -3 164 2 21 13 -1 36
-39 43 -74 14 -151 17 -158 7z"/>
<path d="M792 2442 c-3 -8 -1 -28 5 -43 10 -26 9 -28 -19 -34 -24 -6 -29 -11
-26 -33 2 -16 10 -28 20 -30 25 -5 62 33 55 57 -3 12 0 18 7 15 22 -8 36 12
30 43 -5 25 -12 32 -36 35 -20 3 -32 0 -36 -10z"/>
<path d="M1477 2445 c-21 -15 -16 -47 10 -77 12 -13 19 -15 34 -5 14 9 15 14
6 25 -9 11 -6 14 13 12 73 -6 79 9 17 39 -51 25 -56 25 -80 6z"/>
<path d="M2572 2433 c-30 -6 -46 -37 -32 -63 10 -19 11 -19 57 5 25 14 52 25
59 25 23 0 16 27 -8 34 -24 6 -39 6 -76 -1z"/>
<path d="M3183 2433 c-7 -3 -13 -11 -13 -19 0 -11 -12 -14 -48 -13 -58 3 -72
-4 -72 -36 0 -28 3 -30 53 -39 35 -7 38 -5 33 12 -8 24 20 38 40 21 8 -6 32
-12 54 -13 50 -3 57 18 18 55 -31 30 -48 38 -65 32z"/>
<path d="M1127 2402 c-22 -24 -21 -35 3 -57 16 -14 23 -16 32 -7 10 10 10 17
0 32 -7 11 -8 20 -3 20 5 0 11 7 15 15 8 22 -27 19 -47 -3z"/>
<path d="M2287 2405 c-30 -22 -18 -55 26 -70 30 -10 37 -10 37 0 0 8 -7 21
-15 29 -9 9 -15 23 -13 32 4 22 -13 27 -35 9z"/>
<path d="M1911 2387 c-58 -30 -52 -78 11 -82 35 -2 36 0 42 37 10 59 -4 70
-53 45z"/>
<path d="M2748 2388 c-26 -20 -32 -55 -11 -61 10 -2 27 -8 37 -13 16 -6 18 -4
13 9 -5 14 0 17 28 17 31 0 35 3 35 25 0 21 -5 25 -29 25 -16 0 -35 2 -43 5
-7 3 -21 0 -30 -7z"/>
<path d="M1023 2358 c-25 -47 -22 -61 15 -79 37 -17 85 -14 103 7 17 20 2 34
-37 34 -30 0 -33 2 -25 18 11 21 -3 52 -24 52 -8 0 -22 -15 -32 -32z"/>
<path d="M2391 2368 c-13 -35 -3 -51 28 -44 14 3 41 9 59 12 17 4 32 13 32 20
0 17 -7 20 -63 28 -43 7 -48 5 -56 -16z"/>
<path d="M1595 2370 c-3 -5 -13 -10 -21 -10 -9 0 -22 -7 -31 -16 -12 -12 -13
-20 -5 -40 11 -24 27 -31 34 -16 2 4 18 18 36 31 36 25 44 61 13 61 -11 0 -23
-4 -26 -10z"/>
<path d="M1805 2370 c-3 -5 -26 -10 -50 -10 -44 0 -55 -10 -55 -50 0 -23 5
-26 54 -35 36 -7 38 -6 31 14 -7 23 -2 26 25 11 31 -17 51 -2 44 33 -7 40 -34
61 -49 37z"/>
<path d="M2116 2358 c-19 -27 -20 -50 -4 -66 9 -9 6 -12 -13 -12 -30 0 -49
-17 -49 -43 0 -16 5 -19 31 -13 54 11 84 30 83 54 0 18 5 22 31 22 30 0 55 15
55 32 0 4 -8 8 -18 8 -9 0 -34 9 -55 20 -45 25 -43 25 -61 -2z"/>
<path d="M2033 2362 c-27 -4 -32 -42 -8 -62 24 -20 65 6 65 41 0 28 -2 29 -57
21z"/>
<path d="M3356 2351 c-38 -42 -6 -82 49 -61 14 5 31 7 36 4 6 -3 16 0 25 6 12
11 11 16 -10 35 -34 31 -80 39 -100 16z"/>
<path d="M630 2346 c-5 -5 -10 -21 -11 -35 0 -15 -3 -20 -6 -13 -2 7 -22 12
-44 12 -32 0 -41 -4 -48 -22 -15 -39 9 -54 58 -38 23 7 38 18 35 24 -3 6 1 3
9 -6 29 -36 77 -14 53 24 -8 13 -6 22 7 36 17 19 17 20 -12 24 -17 2 -35 0
-41 -6z"/>
<path d="M921 2341 c-20 -15 -22 -21 -12 -39 22 -41 66 -25 69 26 3 38 -18 43
-57 13z"/>
<path d="M3508 2353 c-12 -3 -18 -14 -18 -34 0 -21 5 -29 18 -29 26 1 52 25
52 49 0 21 -13 24 -52 14z"/>
<path d="M3178 2323 c-20 -5 -31 -33 -22 -56 6 -16 63 -41 72 -32 3 2 -1 11
-8 20 -7 8 -10 25 -6 39 6 25 -6 35 -36 29z"/>
<path d="M2886 2297 c-15 -15 -33 -27 -41 -27 -14 0 -25 -29 -23 -63 1 -19 40
-33 58 -22 6 4 10 19 8 33 -3 24 0 27 22 24 34 -5 35 -7 15 -48 -21 -45 -9
-56 50 -47 51 7 62 17 44 39 -11 13 -11 18 -2 21 22 8 -4 41 -37 48 -16 4 -30
10 -30 13 0 4 -9 18 -19 31 l-19 24 -26 -26z"/>
<path d="M1626 2295 c4 -8 12 -15 20 -15 8 0 14 7 14 15 0 8 -9 15 -20 15 -13
0 -18 -5 -14 -15z"/>
<path d="M2584 2296 c-7 -7 -10 -25 -7 -40 5 -22 9 -25 27 -20 26 8 37 23 34
49 -3 24 -38 31 -54 11z"/>
<path d="M3622 2298 c-7 -7 -12 -18 -12 -24 0 -21 -17 -25 -46 -9 -22 11 -30
12 -36 2 -14 -21 -9 -37 12 -37 16 0 20 -7 20 -31 l0 -31 -35 27 c-30 22 -38
25 -51 14 -9 -7 -14 -23 -11 -36 2 -12 0 -20 -4 -17 -14 8 -46 -14 -52 -35 -8
-34 7 -43 72 -42 75 1 88 7 63 29 -14 14 -16 21 -7 37 11 21 27 28 60 27 21
-1 58 32 47 42 -3 4 1 4 11 0 14 -5 17 0 17 39 0 32 -5 47 -16 51 -20 8 -18 8
-32 -6z"/>
<path d="M1442 2288 c-20 -20 -14 -57 14 -74 22 -15 27 -15 35 -3 5 8 7 20 4
27 -3 8 -5 20 -5 27 0 21 -34 37 -48 23z"/>
<path d="M1967 2287 c-25 -10 -28 -15 -25 -52 2 -33 0 -40 -15 -40 -26 0 -40
-30 -27 -55 8 -14 21 -20 45 -20 40 0 41 2 19 35 -16 25 -16 25 17 25 47 0 64
-14 61 -47 -3 -35 14 -56 56 -71 l33 -11 -7 34 c-5 30 -3 35 12 35 12 0 2 11
-28 30 -27 17 -57 30 -68 30 -28 0 -45 46 -29 76 11 21 6 45 -9 43 -4 -1 -20
-6 -35 -12z"/>
<path d="M980 2280 c-7 -4 -10 -15 -7 -24 3 -8 2 -18 -3 -21 -6 -4 -10 -1 -10
5 0 17 -42 7 -54 -13 -16 -26 24 -57 73 -56 20 0 30 3 24 6 -21 8 -15 21 20
45 l34 23 -32 21 c-19 13 -38 18 -45 14z"/>
<path d="M2404 2280 c-20 -8 -40 -52 -30 -68 2 -4 28 -7 58 -7 52 0 53 0 53
30 0 25 -4 30 -25 30 -14 0 -27 5 -30 11 -3 7 -13 9 -26 4z"/>
<path d="M1822 2260 c-7 -11 -12 -26 -12 -34 0 -8 -13 -17 -28 -21 -21 -4 -33
-16 -45 -44 -9 -21 -17 -43 -17 -49 0 -16 39 -25 54 -13 8 7 34 9 60 7 27 -3
44 -1 41 5 -4 5 -12 9 -20 9 -13 0 -26 23 -30 53 -1 13 6 17 31 17 32 0 33 1
27 38 -3 20 -8 39 -10 41 -11 13 -40 8 -51 -9z"/>
<path d="M3402 2237 c-21 -20 -23 -20 -56 -4 -35 16 -35 16 -66 -13 -36 -34
-34 -60 6 -78 35 -16 37 -15 32 13 -5 22 -2 25 24 25 16 0 27 4 23 9 -3 5 -1
12 4 15 5 4 13 -3 16 -14 10 -30 46 -22 58 12 6 21 5 32 -6 42 -12 13 -17 12
-35 -7z"/>
<path d="M1291 2236 c-6 -7 -30 -17 -53 -20 -34 -6 -45 -4 -56 11 -17 24 -46
6 -47 -30 -2 -20 5 -30 27 -39 15 -7 28 -20 28 -29 0 -25 12 -30 36 -14 22 14
23 14 17 -2 -4 -10 -13 -28 -21 -40 -17 -27 -17 -34 0 -44 20 -13 56 -11 61 4
3 9 9 8 22 -4 13 -13 21 -14 41 -5 13 6 24 16 24 23 0 16 -40 43 -63 43 -14 0
-17 4 -12 18 9 22 9 32 0 55 -7 16 -4 18 16 15 19 -2 25 2 27 20 3 22 -13 52
-28 52 -4 0 -13 -6 -19 -14z m-11 -80 c0 -2 -7 -7 -16 -10 -8 -3 -12 -2 -9 4
6 10 25 14 25 6z"/>
<path d="M1580 2209 c-9 -22 -10 -36 -3 -47 17 -28 32 -24 49 12 14 29 15 38
4 51 -19 23 -36 18 -50 -16z"/>
<path d="M2201 2223 c-42 -34 1 -90 45 -58 10 7 25 10 34 8 19 -5 33 27 20 46
-13 22 -74 24 -99 4z"/>
<path d="M759 2207 c-22 -40 30 -63 78 -34 31 18 37 26 31 45 -2 4 -25 7 -51
7 -37 0 -51 -5 -58 -18z"/>
<path d="M2716 2223 c-17 -17 -36 -77 -27 -86 11 -11 66 17 75 39 14 37 -22
72 -48 47z"/>
<path d="M2561 2193 c-17 -18 -4 -53 20 -53 37 0 89 28 83 44 -3 9 -14 17 -23
17 -57 5 -69 4 -80 -8z"/>
<path d="M604 2185 c-4 -8 -3 -26 0 -39 5 -19 11 -24 27 -21 30 6 32 9 24 44
-7 34 -41 44 -51 16z"/>
<path d="M3137 2194 c-13 -14 -6 -59 13 -84 11 -14 20 -30 20 -37 0 -15 59
-57 68 -49 3 4 0 11 -7 15 -9 6 -10 11 -2 15 6 4 16 4 21 1 6 -4 10 6 10 24 0
26 -4 31 -34 37 -31 5 -35 10 -38 43 -2 27 -8 37 -23 39 -12 2 -24 0 -28 -4z"/>
<path d="M1043 2183 c-7 -2 -13 -11 -13 -19 0 -9 -4 -13 -9 -10 -5 3 -16 -5
-25 -19 -17 -26 -21 -61 -8 -69 15 -9 53 6 48 19 -2 6 0 18 4 25 7 11 13 9 28
-9 17 -22 21 -23 54 -12 20 7 39 18 41 25 6 15 -11 36 -28 36 -7 0 -20 9 -30
20 -18 19 -37 24 -62 13z"/>
<path d="M3633 2158 c-33 -41 -16 -112 32 -134 35 -17 52 5 30 39 -11 17 -13
27 -6 32 13 7 14 35 3 51 -12 19 -48 26 -59 12z"/>
<path d="M2842 2143 c-10 -10 -27 -23 -38 -29 -31 -18 -39 -56 -19 -87 14 -22
20 -25 31 -16 8 6 14 18 14 25 0 8 7 14 16 14 11 0 14 6 9 21 -5 15 -3 20 6
17 7 -2 16 -15 19 -28 4 -18 15 -26 38 -31 40 -8 41 -9 44 -43 1 -15 10 -34
19 -42 14 -13 19 -13 30 -1 8 7 20 12 26 10 8 -3 2 -13 -14 -27 -22 -20 -24
-25 -14 -45 8 -13 18 -20 27 -17 8 3 24 2 36 -3 18 -7 10 -12 -50 -30 -79 -24
-76 -24 -134 33 -36 36 -25 52 28 37 49 -14 53 -8 14 21 -18 12 -38 34 -45 48
-22 42 -104 35 -87 -8 3 -9 16 -27 29 -40 24 -24 31 -38 13 -27 -5 3 -15 -5
-21 -19 -15 -32 -2 -50 49 -67 39 -13 79 -36 75 -44 -7 -12 -2 -21 17 -32 16
-10 18 -10 14 1 -4 10 10 14 62 15 70 1 94 15 70 39 -7 7 -22 14 -34 15 -40 3
-10 17 37 17 48 0 48 0 49 35 1 19 -3 35 -9 35 -6 0 -6 6 0 18 12 22 -3 42
-31 42 -24 0 -34 -27 -20 -51 7 -11 8 -20 2 -24 -6 -3 -10 0 -10 7 0 7 -7 25
-14 41 -12 23 -13 27 -1 27 7 0 17 10 20 22 6 16 1 26 -16 39 -30 23 -39 24
-39 3 0 -10 -8 -6 -25 13 -21 24 -26 26 -35 13 -9 -13 -11 -13 -20 0 -14 22
-13 26 15 38 14 6 25 19 25 28 0 14 -8 16 -50 10 -45 -6 -50 -5 -50 13 0 10
-7 22 -16 25 -22 8 -22 8 -42 -11z"/>
<path d="M1407 2123 c-12 -11 -8 -50 6 -61 7 -6 18 -7 26 -2 8 4 26 6 40 4 14
-2 34 -5 45 -6 25 -4 43 40 19 49 -8 3 -23 1 -32 -4 -13 -8 -23 -6 -40 8 -23
19 -52 25 -64 12z"/>
<path d="M3062 2118 c-19 -19 -14 -51 14 -82 21 -24 28 -27 35 -15 11 17 9 79
-4 97 -12 15 -30 15 -45 0z"/>
<path d="M1618 2103 c-17 -20 -16 -52 2 -63 15 -9 57 29 62 55 4 27 -42 33
-64 8z"/>
<path d="M2293 2113 c-7 -3 -13 -12 -13 -20 0 -11 -7 -14 -24 -9 -20 5 -25 1
-30 -21 -11 -41 7 -50 67 -30 76 24 157 27 179 5 16 -16 16 -18 2 -26 -25 -14
-13 -47 16 -45 14 1 49 -5 78 -14 62 -17 76 -12 39 17 -14 11 -29 29 -32 40
-5 14 -16 20 -38 21 -18 0 -26 3 -19 6 17 7 15 24 -8 53 -19 24 -21 24 -34 7
-13 -17 -20 -17 -78 -7 -34 6 -70 15 -78 19 -8 4 -21 6 -27 4z"/>
<path d="M2648 2083 c-2 -33 2 -55 18 -89 18 -37 44 -46 44 -14 0 12 7 20 17
20 15 0 15 1 -1 18 -11 13 -14 28 -10 50 6 31 6 32 -30 32 -27 0 -36 -4 -38
-17z"/>
<path d="M899 2066 c-40 -21 -91 -25 -107 -10 -17 18 -56 18 -71 0 -9 -11 -8
-22 5 -49 10 -20 22 -38 29 -41 6 -2 36 3 66 11 30 9 66 15 81 15 20 -1 26 3
21 14 -3 8 3 21 13 29 17 12 17 15 4 29 -13 13 -19 14 -41 2z"/>
<path d="M3563 2055 c-18 -20 -16 -33 7 -45 14 -7 20 -7 20 0 0 5 7 10 16 10
10 0 14 7 12 23 -4 26 -37 34 -55 12z"/>
<path d="M3301 2051 c-15 -9 -7 -86 10 -97 22 -13 69 8 84 38 22 46 20 57 -14
52 -16 -3 -32 0 -36 6 -8 12 -25 13 -44 1z"/>
<path d="M3463 2036 c-41 -21 -53 -45 -35 -72 10 -16 58 -11 54 5 -2 8 6 20
18 28 11 8 20 25 20 39 0 28 -1 28 -57 0z"/>
<path d="M1030 2035 c-6 -8 -9 -19 -6 -24 4 -5 2 -12 -4 -16 -13 -8 -13 -42 0
-50 15 -9 84 28 88 48 5 23 -25 57 -48 57 -10 0 -23 -7 -30 -15z"/>
<path d="M595 2010 c-5 -25 -12 -30 -35 -30 -31 0 -55 -23 -46 -45 3 -8 17
-15 30 -15 23 0 25 -3 16 -25 -6 -16 -6 -27 2 -31 18 -12 68 -14 68 -4 0 6 -4
10 -10 10 -17 0 -11 25 9 37 16 10 19 21 16 57 -2 25 1 49 7 52 6 4 5 10 -3
15 -28 17 -47 9 -54 -21z"/>
<path d="M1893 2033 c-14 -5 -17 -51 -5 -69 8 -12 92 -18 92 -6 0 11 -60 82
-68 81 -4 0 -13 -3 -19 -6z"/>
<path d="M3142 2018 c-22 -22 -14 -56 19 -72 21 -10 29 -11 26 -3 -2 7 4 21
14 32 10 11 15 26 11 32 -11 18 -56 25 -70 11z"/>
<path d="M1575 2006 c-21 -15 -10 -70 12 -62 8 3 26 6 39 6 34 0 31 31 -5 52
-24 13 -33 14 -46 4z"/>
<path d="M1796 2005 c-19 -49 -2 -64 49 -45 39 15 31 54 -11 58 -22 2 -33 -2
-38 -13z"/>
<path d="M2080 2011 c-45 -9 -60 -18 -60 -37 0 -8 -7 -14 -15 -14 -8 0 -15 -7
-15 -17 0 -9 -3 -13 -7 -10 -11 11 -33 -14 -33 -38 0 -13 6 -25 13 -28 18 -7
67 3 67 14 0 5 6 9 13 9 8 0 22 18 33 40 11 23 30 44 47 51 31 13 34 24 11 33
-9 3 -16 5 -17 5 -1 -1 -18 -4 -37 -8z"/>
<path d="M1208 1990 c-30 -18 2 -77 36 -64 23 9 22 74 -1 74 -10 0 -25 -5 -35
-10z"/>
<path d="M2347 1964 c-13 -26 -15 -40 -7 -55 14 -24 40 -25 47 0 3 11 13 21
24 24 18 5 19 6 2 36 -23 40 -44 39 -66 -5z"/>
<path d="M1394 1965 c-5 -19 -13 -25 -33 -25 -39 0 -53 -14 -49 -46 4 -34 31
-40 62 -15 11 10 38 16 69 16 41 0 52 4 55 17 2 11 -6 22 -22 29 -14 7 -26 18
-26 25 0 11 -21 24 -41 24 -5 0 -11 -11 -15 -25z"/>
<path d="M3648 1969 c-35 -20 -13 -108 24 -94 21 8 33 72 17 91 -13 16 -18 17
-41 3z"/>
<path d="M2230 1960 c-8 -5 -24 -7 -36 -4 -24 6 -47 -17 -42 -43 2 -10 10 -18
18 -18 8 0 20 -3 25 -7 12 -6 112 5 121 15 12 12 -5 37 -26 37 -11 0 -23 7
-26 15 -7 17 -13 18 -34 5z"/>
<path d="M947 1926 c-15 -22 -15 -25 1 -39 16 -14 82 -29 82 -18 0 10 -53 81
-60 81 -4 0 -15 -11 -23 -24z"/>
<path d="M3209 1912 c-29 -28 -40 -45 -35 -57 5 -13 9 -15 20 -6 16 14 46 4
46 -14 0 -8 -10 -15 -22 -17 -36 -5 -35 -43 2 -80 28 -27 33 -29 41 -16 13 23
52 11 46 -13 -3 -10 0 -24 7 -32 9 -12 18 -12 59 0 68 20 60 53 -13 53 -31 0
-34 6 -45 83 -6 46 -5 48 13 38 24 -13 62 -3 62 16 0 12 2 12 16 -1 14 -15 14
-17 0 -32 -33 -32 -11 -73 37 -66 25 4 28 8 22 31 -3 14 -13 31 -21 37 -12 10
-11 13 10 18 19 5 23 11 18 28 -9 38 -31 47 -56 22 -15 -14 -17 -14 -32 0 -21
22 -29 20 -52 -11 -20 -28 -42 -25 -42 6 0 10 -9 26 -19 35 -19 17 -21 16 -62
-22z"/>
<path d="M3490 1936 c-15 -15 -12 -53 3 -59 24 -9 97 30 97 51 0 17 -7 19 -45
18 -25 0 -50 -5 -55 -10z"/>
<path d="M1657 1913 c-3 -16 -4 -29 -3 -30 2 -2 23 -9 49 -17 41 -12 46 -12
52 3 4 10 -4 25 -25 43 -40 36 -66 36 -73 1z"/>
<path d="M2656 1919 c-11 -16 -12 -27 -5 -41 12 -22 12 -22 50 -3 16 9 37 14
46 13 10 -2 19 4 21 14 2 11 -6 18 -30 23 -18 3 -40 9 -50 11 -9 3 -23 -4 -32
-17z"/>
<path d="M1090 1892 c0 -28 32 -58 50 -47 16 10 11 26 -16 51 -32 30 -34 30
-34 -4z"/>
<path d="M837 1896 c-3 -8 -19 -17 -36 -21 -18 -4 -31 -13 -31 -21 0 -11 -8
-13 -34 -9 -19 4 -43 2 -55 -4 -18 -10 -19 -15 -9 -36 6 -14 19 -25 29 -25 11
0 16 -5 13 -14 -8 -20 25 -48 47 -41 22 7 26 -10 4 -19 -17 -6 -20 -52 -4 -61
18 -12 61 4 55 21 -3 9 1 17 12 21 21 7 52 33 52 44 0 4 -13 10 -30 14 -16 4
-30 13 -30 20 0 8 -15 17 -35 21 -19 3 -35 11 -35 16 0 6 11 7 25 4 18 -5 33
1 60 25 38 33 43 50 21 68 -10 9 -15 8 -19 -3z"/>
<path d="M1574 1883 c-4 -10 -6 -23 -6 -28 1 -6 -12 -15 -30 -20 -41 -13 -58
-60 -25 -69 14 -3 29 2 42 14 12 11 25 20 29 20 18 0 41 36 41 67 0 27 -4 33
-21 33 -12 0 -25 -8 -30 -17z"/>
<path d="M2538 1894 c-14 -14 -9 -54 7 -54 17 0 20 -16 4 -25 -12 -8 17 -45
35 -45 28 1 38 17 26 40 -11 20 -9 25 11 41 16 12 21 21 14 28 -13 13 -88 25
-97 15z"/>
<path d="M2104 1852 c-15 -23 -6 -82 12 -82 8 0 17 7 20 15 4 8 12 15 20 15
18 0 18 20 -2 48 -18 27 -35 28 -50 4z"/>
<path d="M2226 1854 c-16 -41 7 -77 32 -52 14 14 43 2 36 -15 -7 -19 15 -27
44 -16 36 14 28 45 -15 60 -21 6 -42 18 -46 25 -11 19 -43 18 -51 -2z"/>
<path d="M1215 1846 c-16 -6 -33 -15 -37 -21 -13 -17 -9 -45 7 -45 8 0 15 -9
15 -20 0 -24 48 -40 60 -20 10 16 2 40 -13 40 -6 0 3 13 21 30 50 45 24 62
-53 36z"/>
<path d="M945 1836 c-12 -8 -16 -19 -12 -31 6 -14 15 -16 55 -10 53 8 67 17
59 39 -8 20 -76 22 -102 2z"/>
<path d="M2741 1824 c-30 -35 -20 -64 22 -65 18 0 54 -2 81 -5 l50 -5 -29 28
c-37 34 -87 73 -95 73 -4 0 -16 -12 -29 -26z"/>
<path d="M3584 1836 c-17 -18 -22 -64 -10 -81 16 -22 44 0 52 42 5 24 2 33
-12 41 -13 7 -22 6 -30 -2z"/>
<path d="M1645 1826 c-16 -11 -16 -16 -4 -42 17 -36 48 -44 56 -15 3 12 10 21
15 21 13 0 -10 28 -32 40 -11 6 -23 5 -35 -4z"/>
<path d="M505 1820 c-3 -5 -17 -10 -29 -10 -32 0 -53 -26 -39 -48 12 -20 74
-23 81 -4 2 6 -3 12 -12 12 -20 0 -20 5 0 35 9 14 14 25 11 25 -3 0 -9 -4 -12
-10z"/>
<path d="M1804 1805 c-18 -26 -18 -41 2 -49 26 -10 54 -7 54 7 0 7 9 18 20 25
11 7 20 19 20 27 0 24 -78 16 -96 -10z"/>
<path d="M2411 1812 c-7 -14 -6 -25 5 -40 16 -23 44 -30 44 -11 0 7 10 9 25 7
34 -7 42 8 13 23 -13 7 -27 18 -31 25 -12 20 -45 17 -56 -4z"/>
<path d="M1950 1787 c-8 -7 -14 -22 -12 -33 3 -19 10 -22 60 -23 l57 0 -27 16
c-15 9 -29 25 -31 35 -6 21 -25 23 -47 5z"/>
<path d="M1026 1781 c-9 -14 4 -41 20 -41 8 0 14 5 14 10 0 6 8 10 17 10 10 0
13 3 8 9 -16 15 -53 22 -59 12z"/>
<path d="M2648 1766 c-11 -8 -18 -27 -18 -48 0 -29 5 -37 39 -56 21 -12 46
-22 54 -22 26 0 29 18 8 37 -15 12 -17 19 -8 25 9 6 9 10 -1 20 -6 6 -12 20
-12 30 0 10 -4 18 -9 18 -5 0 -15 2 -23 5 -7 2 -21 -2 -30 -9z"/>
<path d="M578 1758 c-9 -7 -19 -23 -23 -35 -5 -19 -3 -23 18 -23 27 0 72 43
62 59 -8 15 -38 14 -57 -1z"/>
<path d="M1360 1731 c0 -37 11 -45 44 -30 17 8 26 20 26 36 0 20 -5 23 -35 23
-32 0 -35 -2 -35 -29z"/>
<path d="M3110 1742 c-15 -17 -21 -54 -14 -84 3 -11 20 -18 55 -23 29 -4 49
-12 48 -18 -5 -27 14 -87 27 -87 8 0 14 6 14 13 1 8 4 7 13 -3 7 -8 27 -23 46
-33 33 -17 33 -17 52 7 15 19 27 24 59 22 21 -1 42 -5 46 -8 3 -4 12 -4 20 -1
10 4 12 0 8 -11 -12 -31 4 -61 39 -71 26 -8 36 -8 46 2 7 7 9 18 6 23 -3 5 -1
19 5 30 11 20 -3 30 -15 10 -11 -17 -24 -11 -31 15 -3 13 -11 23 -18 22 -6 -1
-10 8 -9 20 2 15 -5 27 -20 35 -25 13 -66 17 -73 6 -3 -4 -17 -3 -32 3 -22 9
-29 7 -43 -10 -11 -13 -23 -18 -38 -14 -15 4 -27 -1 -37 -13 -13 -17 -13 -17
-3 7 15 35 -4 73 -32 66 -23 -6 -34 9 -31 45 2 19 -2 28 -12 28 -9 0 -20 9
-26 20 -13 24 -30 25 -50 2z"/>
<path d="M2762 1733 c-19 -37 22 -69 54 -42 18 15 18 24 -2 43 -20 21 -41 20
-52 -1z"/>
<path d="M1688 1733 c-17 -4 -25 -42 -13 -55 3 -2 28 2 55 11 35 11 50 20 48
31 -3 15 -55 23 -90 13z"/>
<path d="M3482 1728 c-16 -16 -15 -58 1 -58 7 0 20 -9 30 -20 18 -21 42 -26
52 -11 7 12 -46 101 -60 101 -6 0 -16 -5 -23 -12z"/>
<path d="M1836 1711 c-15 -17 -15 -20 -2 -34 22 -22 86 -31 102 -15 17 17 8
30 -38 51 -44 21 -41 21 -62 -2z"/>
<path d="M2268 1716 c-26 -19 -12 -50 28 -62 19 -6 34 -8 34 -4 0 4 11 11 24
14 33 8 24 42 -12 49 -15 2 -34 7 -42 10 -8 4 -23 1 -32 -7z"/>
<path d="M1513 1704 c-8 -21 7 -45 35 -55 16 -6 22 -5 22 6 0 8 7 15 16 15 10
0 6 8 -14 25 -35 29 -50 31 -59 9z"/>
<path d="M2864 1695 c-13 -20 -14 -28 -4 -40 7 -8 19 -15 26 -15 8 0 14 -7 14
-15 0 -10 10 -15 27 -15 15 0 38 -11 52 -24 32 -29 73 -44 70 -24 -1 7 1 25 5
40 13 45 -64 126 -80 84 -7 -18 -42 -9 -55 15 -14 26 -35 24 -55 -6z"/>
<path d="M1195 1660 c-8 -24 -3 -24 -105 -4 -68 13 -84 13 -91 2 -21 -33 9
-75 41 -58 13 7 21 7 25 0 3 -5 28 -10 55 -10 36 0 52 5 59 18 8 13 12 14 19
4 11 -16 62 -6 62 12 0 19 -30 56 -45 56 -7 0 -17 -9 -20 -20z"/>
<path d="M2503 1673 c-7 -3 -13 -13 -13 -24 0 -10 -6 -19 -14 -19 -21 0 -36
-24 -29 -48 3 -15 22 -30 53 -43 27 -12 64 -38 83 -58 32 -35 33 -38 16 -49
-28 -18 -20 -49 14 -56 18 -4 31 -14 34 -26 7 -25 27 -21 32 6 2 10 9 22 16
26 13 8 9 48 -5 48 -11 0 -52 41 -77 75 -27 39 -21 87 11 83 18 -3 21 2 22 39
0 34 -4 43 -20 47 -23 6 -46 -10 -46 -30 0 -21 -18 -17 -25 5 -6 20 -31 31
-52 24z m27 -83 c0 -5 -2 -10 -4 -10 -3 0 -8 5 -11 10 -3 6 -1 10 4 10 6 0 11
-4 11 -10z"/>
<path d="M893 1663 c-20 -8 -15 -41 8 -54 30 -16 46 2 31 36 -12 25 -17 28
-39 18z"/>
<path d="M1693 1655 c-18 -20 -16 -43 6 -54 23 -13 51 14 51 47 0 26 -37 30
-57 7z"/>
<path d="M510 1639 c-15 -27 -2 -41 54 -58 32 -9 46 -19 46 -31 0 -13 6 -16
28 -12 69 12 72 72 4 72 -25 0 -46 8 -66 25 -35 30 -52 31 -66 4z"/>
<path d="M2074 1634 c-7 -29 11 -48 36 -37 8 3 33 9 55 12 32 5 41 11 43 29 3
21 0 22 -62 22 -62 0 -66 -1 -72 -26z"/>
<path d="M1827 1636 c-8 -8 -13 -25 -12 -38 1 -13 3 -31 4 -40 3 -42 47 -7 66
51 11 37 -29 55 -58 27z"/>
<path d="M1951 1636 c-17 -21 -5 -39 40 -58 39 -16 40 -16 34 0 -7 15 -11 35
-14 65 -2 12 -48 8 -60 -7z"/>
<path d="M2832 1610 c-12 -12 -22 -26 -22 -33 0 -6 -7 -1 -16 11 -20 28 -48
28 -61 0 -15 -34 -5 -48 33 -48 30 0 34 -3 34 -25 0 -14 5 -25 10 -25 6 0 1
-9 -10 -20 -11 -11 -20 -25 -20 -30 0 -11 102 -61 110 -54 2 3 -2 9 -10 14
-12 8 -10 10 8 10 19 0 22 4 17 20 -4 12 -2 27 4 34 15 18 -14 76 -39 76 -13
0 -17 5 -13 20 3 11 12 20 19 20 17 0 17 5 4 31 -13 24 -21 24 -48 -1z"/>
<path d="M1357 1608 c-18 -6 -27 -16 -25 -26 4 -22 38 -29 38 -8 0 9 6 17 13
17 6 1 17 2 22 4 6 1 23 3 39 3 16 1 27 4 24 7 -10 10 -85 13 -111 3z"/>
<path d="M1570 1590 c-54 -8 -91 -22 -93 -35 -1 -5 -11 -11 -22 -13 -32 -4
-48 -45 -21 -55 7 -3 35 -8 62 -12 l49 -7 -25 24 c-14 12 -24 22 -22 21 8 -3
128 50 134 60 7 12 1 28 -10 26 -4 -1 -27 -5 -52 -9z"/>
<path d="M2183 1580 c-21 -32 -6 -51 39 -48 35 2 39 4 36 27 -2 15 -9 25 -15
24 -7 -2 -13 2 -13 7 0 18 -35 11 -47 -10z"/>
<path d="M2332 1592 c-7 -5 -14 -22 -15 -38 -2 -22 2 -29 16 -28 10 1 19 -7
23 -22 7 -27 44 -34 44 -9 0 8 4 15 8 15 17 0 21 -12 10 -30 -9 -14 -9 -22 0
-33 10 -12 8 -16 -10 -20 -13 -4 -29 0 -38 8 -33 30 -78 6 -65 -35 6 -18 2
-20 -39 -20 -28 0 -51 -6 -61 -16 -15 -15 -18 -15 -45 11 -25 24 -32 26 -45
15 -19 -16 -16 -66 3 -62 7 1 21 -2 31 -7 12 -7 22 -6 29 1 8 8 15 8 24 1 23
-18 57 -22 51 -7 -4 11 5 14 34 14 41 0 89 27 66 36 -18 8 -16 24 1 24 8 0 18
-9 21 -20 3 -11 13 -20 21 -20 17 0 18 12 3 27 -8 8 -6 14 7 21 34 18 84 24
98 13 10 -8 16 -8 25 3 14 16 1 32 -54 66 -36 22 -44 35 -23 42 6 2 -2 17 -20
36 -33 34 -52 41 -52 20 0 -7 -5 -5 -11 5 -11 19 -18 21 -37 9z"/>
<path d="M2647 1583 c-2 -4 -8 -22 -12 -40 -5 -27 -2 -37 19 -58 25 -25 50
-32 60 -16 3 4 -7 28 -23 52 -15 24 -28 48 -28 52 -2 14 -11 19 -16 10z"/>
<path d="M1247 1573 c-4 -3 -7 -19 -7 -35 0 -25 3 -28 35 -28 46 0 58 25 24
51 -25 20 -41 23 -52 12z"/>
<path d="M1027 1563 c-9 -9 -8 -35 2 -51 7 -12 26 -19 56 -21 6 -1 15 -11 20
-23 6 -13 19 -23 30 -24 38 -2 39 -4 17 -20 -27 -19 -28 -41 -3 -49 13 -4 18
-12 14 -21 -9 -23 26 -55 47 -44 22 12 33 60 14 60 -20 0 -17 13 6 33 19 16
18 53 -1 41 -14 -8 -59 23 -59 41 0 16 -34 38 -44 28 -3 -3 -6 1 -6 11 0 9
-10 20 -22 25 -47 17 -65 21 -71 14z"/>
<path d="M3073 1554 c-21 -9 -15 -40 10 -57 18 -13 20 -18 11 -34 -7 -11 -10
-31 -7 -46 5 -23 10 -27 40 -27 58 0 88 53 37 66 l-25 6 31 22 c22 15 30 28
28 46 -2 16 -8 24 -18 21 -22 -5 -52 -4 -75 2 -11 3 -26 4 -32 1z"/>
<path d="M2041 1540 c-22 -13 -24 -50 -3 -50 32 0 61 12 67 27 7 19 7 19 -25
26 -14 3 -32 2 -39 -3z"/>
<path d="M740 1515 c0 -27 9 -32 28 -13 18 18 14 38 -8 38 -15 0 -20 -7 -20
-25z"/>
<path d="M1789 1524 c-13 -15 -3 -54 14 -55 79 -5 88 -3 70 15 -5 4 -9 12 -9
17 -1 5 -2 13 -3 18 -2 15 -60 19 -72 5z"/>
<path d="M530 1506 c0 -14 4 -27 10 -31 5 -3 7 -11 4 -18 -2 -7 2 -21 10 -32
12 -16 18 -18 37 -8 13 7 34 15 47 18 22 6 31 25 12 25 -6 0 -10 8 -8 17 3 19
-52 52 -89 53 -18 0 -23 -6 -23 -24z"/>
<path d="M2965 1517 c-27 -20 -13 -67 20 -67 13 0 27 -4 30 -10 13 -20 20 -9
22 34 1 35 -2 44 -13 39 -8 -3 -14 0 -14 6 0 15 -22 14 -45 -2z"/>
<path d="M1304 1485 c-8 -32 -5 -34 39 -42 70 -11 85 21 24 52 -42 21 -56 19
-63 -10z"/>
<path d="M2112 1498 c-16 -16 -15 -43 3 -61 14 -15 99 -17 112 -3 4 3 1 6 -5
6 -6 0 -28 16 -48 35 -39 39 -45 40 -62 23z"/>
<path d="M3261 1491 c-27 -7 -43 -40 -29 -58 15 -18 69 -17 62 1 -3 7 2 16 10
19 17 7 12 33 -7 40 -7 2 -23 1 -36 -2z"/>
<path d="M1666 1459 c-13 -26 -13 -59 1 -59 33 0 75 66 51 82 -23 14 -36 9
-52 -23z"/>
<path d="M3361 1476 c-15 -18 -4 -44 21 -52 20 -6 20 -6 -1 -21 -12 -8 -21
-25 -21 -38 0 -19 7 -24 40 -30 22 -4 40 -12 40 -18 0 -8 3 -8 11 0 18 18 6
67 -18 78 -34 15 -28 25 16 25 53 0 58 13 13 35 -20 10 -45 22 -54 26 -24 12
-34 11 -47 -5z"/>
<path d="M680 1470 c0 -5 7 -10 15 -10 8 0 15 5 15 10 0 6 -7 10 -15 10 -8 0
-15 -4 -15 -10z"/>
<path d="M845 1475 c-5 -2 -27 -6 -47 -10 -34 -5 -38 -9 -38 -35 0 -27 3 -30
30 -30 17 0 30 4 30 9 0 5 12 13 28 19 17 6 28 17 29 31 2 20 -8 24 -32 16z"/>
<path d="M941 1472 c-6 -2 -11 -21 -11 -42 0 -42 20 -57 55 -43 14 5 17 3 13
-9 -11 -28 6 -40 38 -26 28 12 43 56 18 51 -6 -1 -10 7 -10 17 1 11 -3 19 -9
19 -5 0 -12 9 -17 20 -7 20 -39 26 -77 13z"/>
<path d="M1884 1453 c-19 -30 -9 -46 22 -39 14 4 24 2 24 -4 0 -5 14 -10 30
-10 17 0 30 5 30 11 0 7 12 9 35 5 41 -8 42 -4 15 34 -19 27 -25 29 -81 27
-50 -1 -62 -5 -75 -24z"/>
<path d="M1570 1441 c-14 -27 -13 -48 3 -58 8 -4 16 -15 19 -24 7 -19 68 -31
85 -17 10 8 8 17 -10 39 -12 15 -27 28 -33 28 -7 1 -15 12 -18 26 -8 30 -31
33 -46 6z"/>
<path d="M3504 1411 c-26 -29 -23 -98 5 -117 34 -24 52 -11 48 35 -3 33 0 41
17 45 21 6 21 6 1 22 -43 33 -54 35 -71 15z"/>
<path d="M1460 1396 c-3 -2 -33 -6 -68 -9 -34 -2 -65 -7 -68 -10 -3 -3 -8 -24
-11 -46 -5 -38 -4 -41 18 -42 13 0 47 -8 75 -17 54 -18 63 -42 15 -42 -15 0
-36 -9 -46 -20 -15 -17 -15 -21 -3 -34 8 -8 28 -16 44 -18 24 -2 28 0 26 15
-5 26 27 48 51 35 19 -10 47 5 47 25 0 17 -43 48 -65 45 -11 -1 -39 9 -63 22
l-43 24 63 22 c37 12 63 26 63 35 0 13 -26 24 -35 15z"/>
<path d="M1883 1373 c-7 -15 -12 -28 -10 -29 4 -4 32 -6 65 -5 59 2 29 61 -31
61 -7 0 -18 -12 -24 -27z"/>
<path d="M848 1372 c-8 -28 16 -55 41 -47 21 6 36 38 26 55 -11 18 -62 12 -67
-8z"/>
<path d="M2772 1378 c-18 -18 -15 -53 6 -71 21 -19 32 -13 32 16 0 17 5 18 35
13 42 -8 44 0 8 31 -29 25 -62 30 -81 11z"/>
<path d="M3045 1369 c-16 -5 -45 -10 -64 -12 -36 -2 -63 -29 -46 -46 6 -5 33
-13 60 -16 41 -6 48 -5 38 6 -17 17 -16 29 2 29 8 0 15 -4 15 -9 0 -16 25 -19
44 -5 13 9 17 20 12 38 -7 28 -14 30 -61 15z"/>
<path d="M3285 1370 c-3 -6 -17 -7 -30 -4 -16 4 -26 0 -33 -12 -6 -10 -25 -23
-44 -29 -22 -8 -34 -19 -36 -33 -5 -31 22 -38 55 -14 25 18 29 19 60 4 18 -9
33 -20 33 -24 0 -5 -5 -6 -11 -3 -6 4 -16 -1 -23 -10 -11 -15 -22 -17 -69 -11
-41 5 -57 12 -57 23 0 12 -9 14 -47 10 -27 -3 -49 -6 -49 -6 -10 -5 -9 -44 1
-58 12 -15 17 -16 34 -5 27 16 30 15 24 -7 -10 -38 66 -50 92 -15 8 11 15 16
15 12 0 -4 11 -3 25 2 16 6 25 6 25 0 0 -16 40 -12 57 5 9 10 12 22 8 33 -14
33 -14 74 0 68 20 -7 35 17 28 45 -9 35 -43 53 -58 29z"/>
<path d="M750 1359 c0 -5 -8 -9 -17 -8 -52 5 -72 -15 -53 -51 8 -15 16 -17 40
-10 17 5 32 5 35 -1 8 -12 75 -12 75 1 0 5 -9 14 -20 20 -11 6 -18 14 -16 19
3 4 -4 15 -15 24 -22 20 -29 21 -29 6z"/>
<path d="M1768 1362 c-16 -2 -28 -7 -28 -12 0 -5 -3 -16 -6 -24 -4 -12 4 -20
30 -31 44 -18 46 -19 46 0 0 7 7 18 17 23 9 5 14 16 10 24 -6 18 -31 25 -69
20z"/>
<path d="M2005 1362 c-27 -6 -39 -30 -38 -76 2 -50 38 -89 85 -90 18 -1 39 -5
46 -9 16 -11 35 1 28 18 -6 17 24 29 37 16 7 -7 7 -15 0 -23 -7 -8 -7 -22 -2
-36 7 -18 15 -22 44 -20 42 3 45 18 10 52 -23 23 -23 25 -6 31 11 3 22 12 25
20 4 11 -2 15 -24 15 -45 0 -82 18 -120 59 -38 41 -55 50 -85 43z m55 -90 c0
-14 -11 -21 -26 -15 -21 8 -17 23 6 23 11 0 20 -4 20 -8z"/>
<path d="M2502 1358 c-17 -17 -15 -48 3 -54 12 -5 13 -10 5 -19 -15 -18 6 -51
41 -65 19 -8 25 -17 22 -30 -3 -10 1 -21 7 -25 8 -5 5 -12 -12 -24 -43 -30
-32 -63 25 -73 31 -6 48 15 28 35 -22 22 -13 37 19 31 23 -5 30 -3 30 10 0 9
-3 16 -7 16 -5 0 -13 11 -20 25 -6 14 -7 25 -2 25 21 0 6 29 -21 40 -16 7 -35
19 -42 28 -11 13 -10 14 10 8 28 -9 28 1 0 25 -15 11 -18 18 -9 19 11 0 11 3
1 14 -6 8 -18 12 -26 9 -8 -3 -20 0 -27 6 -10 8 -17 7 -25 -1z"/>
<path d="M1610 1303 c-22 -6 -50 -47 -40 -62 6 -10 12 -11 30 -1 21 11 89 7
126 -7 26 -10 14 12 -19 34 -39 27 -77 41 -97 36z"/>
<path d="M2843 1285 c4 -8 2 -17 -4 -21 -11 -6 -2 -46 13 -55 5 -3 23 -3 40 0
36 7 45 34 22 69 -17 26 -80 33 -71 7z"/>
<path d="M907 1278 c-2 -7 3 -23 11 -35 10 -17 22 -22 45 -19 41 4 44 19 11
45 -30 24 -60 27 -67 9z"/>
<path d="M1036 1271 c-20 -22 -14 -61 10 -61 8 0 14 -7 14 -16 0 -24 25 -45
38 -32 9 9 17 7 31 -6 14 -13 28 -16 50 -11 40 9 46 5 46 -25 1 -37 31 -37 50
0 9 17 15 41 13 53 -3 19 -10 22 -55 25 -29 2 -53 6 -53 10 0 4 -20 14 -45 21
-37 11 -45 17 -45 37 0 30 -29 32 -54 5z m94 -81 c0 -5 -4 -10 -10 -10 -5 0
-10 5 -10 10 0 6 5 10 10 10 6 0 10 -4 10 -10z"/>
<path d="M703 1273 c-16 -6 -17 -45 -1 -61 17 -17 58 -15 58 2 0 47 -25 73
-57 59z"/>
<path d="M1846 1265 c-9 -9 -16 -20 -16 -24 0 -17 27 -40 53 -47 27 -6 35 3
18 22 -5 5 -11 20 -13 33 -4 31 -21 37 -42 16z"/>
<path d="M2325 1263 c-21 -48 -10 -60 39 -43 36 12 54 45 29 54 -29 11 -61 6
-68 -11z"/>
<path d="M3368 1255 c-8 -18 -8 -28 1 -39 13 -16 22 -15 69 6 l32 14 -30 22
c-38 29 -58 28 -72 -3z"/>
<path d="M2688 1259 c-10 -5 -18 -18 -18 -27 0 -21 40 -48 49 -34 4 6 19 13
35 16 37 7 48 18 40 39 -7 19 -77 23 -106 6z"/>
<path d="M854 1242 c-6 -9 -9 -31 -7 -49 5 -29 3 -31 -36 -38 -22 -4 -43 -11
-47 -16 -3 -5 -14 -9 -24 -9 -22 0 -50 -25 -50 -45 0 -21 31 -27 50 -10 10 9
21 15 26 14 5 -1 20 2 34 8 14 6 42 18 63 26 35 15 52 47 25 47 -8 0 -7 6 4
16 13 13 13 21 5 45 -13 33 -27 37 -43 11z"/>
<path d="M2435 1194 c-26 -27 -14 -48 33 -58 23 -5 45 -6 48 -3 11 11 -36 77
-56 77 -5 0 -16 -7 -25 -16z"/>
<path d="M2306 1184 c-9 -8 -17 -25 -17 -37 -3 -53 -7 -66 -27 -87 -17 -18
-26 -21 -54 -14 -18 4 -36 7 -40 6 -5 -1 -8 4 -8 12 0 8 -7 16 -15 20 -8 3
-15 13 -15 23 0 22 -34 45 -55 37 -19 -8 -20 -53 0 -60 8 -4 12 -10 9 -15 -2
-5 0 -18 6 -30 9 -15 19 -20 36 -16 18 3 24 0 24 -13 0 -26 69 -38 86 -15 8
11 14 13 19 5 8 -14 108 -7 113 8 1 5 19 8 40 5 44 -6 92 11 92 31 0 8 -14 25
-31 38 -17 13 -54 44 -81 71 -54 52 -60 54 -82 31z m81 -102 c9 -5 7 -13 -5
-29 -15 -19 -20 -20 -40 -9 -22 12 -23 14 -7 29 18 18 33 21 52 9z"/>
<path d="M1552 1178 c-16 -21 5 -58 44 -74 76 -32 91 -4 28 49 -50 41 -57 43
-72 25z"/>
<path d="M995 1166 c-43 -24 -50 -66 -11 -66 24 0 66 41 66 64 0 16 -30 17
-55 2z"/>
<path d="M1942 1172 c-7 -2 -12 -14 -12 -27 0 -24 -1 -24 -28 -8 -16 9 -36 14
-45 10 -23 -9 -22 -53 2 -78 21 -23 41 -18 41 9 0 12 9 17 30 17 21 0 29 -4
25 -13 -3 -8 -5 -17 -5 -22 0 -4 -8 -6 -18 -3 -12 3 -22 -3 -28 -18 -10 -21
-10 -21 -41 10 -34 34 -67 40 -77 15 -17 -44 37 -77 127 -75 34 1 57 -3 57
-10 0 -6 8 -8 18 -5 21 7 38 -4 41 -24 0 -8 4 -32 7 -52 4 -26 2 -38 -6 -38
-23 0 -4 -44 27 -61 l32 -18 -3 37 c-5 49 9 76 46 90 40 15 31 37 -15 36 -31
-1 -36 2 -34 20 2 17 -3 21 -23 20 -19 -1 -25 4 -26 20 0 12 -4 33 -8 49 -7
23 -6 26 8 21 21 -8 20 2 -5 37 -11 16 -17 29 -13 29 3 0 1 6 -5 14 -13 15
-49 25 -69 18z"/>
<path d="M2752 1158 c-7 -7 -12 -17 -12 -23 0 -6 -13 -16 -30 -22 -35 -13 -38
-35 -10 -70 15 -19 17 -30 10 -43 -7 -14 -6 -23 5 -34 9 -9 11 -17 5 -21 -13
-8 -13 -42 -1 -50 5 -3 21 0 35 6 24 11 31 30 27 67 -1 6 10 17 24 24 14 6 25
20 25 30 0 16 -5 18 -40 13 -43 -6 -49 -1 -25 26 18 19 25 100 10 106 -6 2
-16 -2 -23 -9z"/>
<path d="M2976 1158 c-17 -10 -21 -35 -7 -56 6 -11 16 -9 50 9 23 12 40 26 38
32 -5 16 -61 26 -81 15z"/>
<path d="M1722 1134 c-14 -10 -15 -15 -4 -36 14 -25 62 -37 62 -15 0 7 9 18
20 25 11 6 17 18 14 25 -6 17 -69 18 -92 1z"/>
<path d="M2842 1123 c-7 -11 -6 -25 1 -40 9 -21 17 -24 56 -21 24 2 46 8 48
14 4 11 -68 64 -86 64 -6 0 -14 -8 -19 -17z"/>
<path d="M3190 1120 c0 -11 -3 -19 -7 -19 -22 4 -31 -4 -36 -28 -7 -36 19 -87
39 -79 9 3 18 6 20 6 2 0 4 23 4 50 0 50 0 50 33 50 l32 1 -39 19 c-48 24 -46
24 -46 0z"/>
<path d="M1315 1102 c-8 -20 13 -42 40 -42 27 0 49 24 42 44 -7 18 -75 17 -82
-2z"/>
<path d="M1478 1109 c-37 -21 5 -79 58 -79 19 0 30 30 14 40 -7 4 -8 9 -2 11
6 2 -4 11 -22 20 -21 11 -38 14 -48 8z"/>
<path d="M1030 1081 c0 -33 19 -45 52 -31 13 5 19 9 15 9 -5 1 -1 8 8 17 21
21 5 34 -42 34 -30 0 -33 -3 -33 -29z"/>
<path d="M3325 1090 c-12 -37 13 -78 30 -50 3 6 17 10 30 10 36 0 38 14 5 38
-36 27 -57 28 -65 2z"/>
<path d="M880 1086 c-7 -9 -10 -24 -8 -34 4 -15 0 -17 -23 -14 -24 3 -29 0
-35 -22 -4 -16 -1 -32 6 -41 15 -18 79 -20 82 -2 0 6 2 17 2 23 1 6 17 25 36
43 29 26 32 33 20 41 -8 5 -20 10 -27 10 -6 0 -18 2 -26 5 -7 3 -20 -1 -27 -9z"/>
<path d="M1155 1074 c-15 -12 -17 -18 -7 -39 6 -14 16 -25 21 -25 5 0 11 -9
14 -20 4 -16 12 -20 41 -18 21 2 36 8 36 16 0 6 -5 12 -11 12 -8 0 -8 4 -1 13
7 8 4 19 -11 38 -27 32 -58 41 -82 23z"/>
<path d="M1577 1032 c-10 -10 -14 -22 -10 -26 4 -4 1 -11 -7 -16 -11 -7 -12
-14 -4 -27 19 -31 33 -25 56 22 19 40 20 47 8 55 -21 13 -25 13 -43 -8z"/>
<path d="M1692 1028 c-16 -16 -15 -53 1 -66 14 -12 71 -2 74 13 1 6 4 17 8 27
6 16 3 18 -55 34 -9 2 -21 -1 -28 -8z"/>
<path d="M1031 1022 c-6 -2 -11 -10 -11 -18 0 -10 -8 -13 -29 -9 -19 3 -31 0
-34 -9 -8 -20 3 -56 17 -57 22 -2 51 3 71 14 11 6 30 10 42 8 48 -5 80 33 49
58 -14 12 -84 20 -105 13z"/>
<path d="M1350 1011 c-8 -6 -18 -7 -22 -5 -4 3 -8 0 -8 -5 0 -6 -6 -11 -14
-11 -38 0 -21 -54 20 -64 15 -4 42 -18 60 -32 18 -14 38 -23 43 -20 5 4 14 -1
19 -9 6 -12 21 -15 63 -13 70 4 71 23 4 49 -60 23 -50 22 -70 3 -9 -9 -19 -14
-22 -10 -3 3 6 17 20 30 15 14 27 30 27 35 0 14 -32 29 -48 24 -8 -3 -16 4
-19 16 -6 22 -28 27 -53 12z m54 -76 l6 -40 -15 28 c-9 15 -20 27 -25 27 -17
0 -11 18 8 22 21 5 18 10 26 -37z"/>
<path d="M2495 995 c-109 -30 -126 -51 -69 -88 19 -12 37 -31 40 -42 7 -27 44
-31 44 -4 0 10 5 19 11 19 7 0 9 9 5 24 -5 21 -3 23 16 18 14 -3 19 -1 14 6
-4 6 -2 21 4 33 7 11 9 23 6 26 -6 6 -56 12 -71 8z m-10 -65 c-3 -5 -12 -10
-18 -10 -7 0 -6 4 3 10 19 12 23 12 15 0z"/>
<path d="M2295 956 c-18 -12 -74 -30 -100 -31 -43 -2 -49 -77 -10 -119 13 -14
31 -26 40 -26 17 0 21 35 5 45 -25 15 -7 24 21 10 17 -9 38 -14 47 -10 12 5 9
10 -16 28 -17 12 -32 28 -32 34 0 7 18 22 40 33 22 11 40 27 40 35 0 19 -10
19 -35 1z"/>
<path d="M1169 943 c-7 -51 -5 -65 13 -88 29 -37 50 -18 42 39 -4 22 -7 42 -8
42 -6 7 -46 13 -47 7z"/>
<path d="M2623 943 c-20 -7 -15 -51 6 -63 32 -17 71 -13 71 8 -1 39 -43 69
-77 55z"/>
<path d="M1797 933 c-13 -12 -7 -40 13 -63 11 -13 20 -29 20 -36 0 -7 9 -18
19 -24 16 -8 23 -6 35 11 l14 21 34 -24 c42 -29 49 -39 43 -59 -3 -9 -3 -23 0
-31 9 -22 42 -11 49 15 6 23 -11 50 -25 41 -5 -3 -9 2 -9 11 0 8 -7 18 -15 21
-9 4 -15 11 -14 18 4 34 -3 43 -46 53 -35 8 -49 7 -64 -4 -19 -12 -20 -11 -27
22 -6 34 -14 42 -27 28z"/>
<path d="M2320 891 c-15 -30 -13 -38 24 -72 30 -26 34 -36 29 -64 -6 -37 7
-48 69 -60 27 -5 38 -13 42 -31 4 -14 10 -22 15 -20 14 9 36 -25 33 -50 -6
-41 48 -96 61 -61 8 22 -6 81 -25 101 -22 24 -23 36 -3 36 8 0 15 9 15 20 0
16 -7 20 -37 21 -54 2 -55 2 -82 21 -35 25 -23 29 21 8 26 -13 40 -15 45 -7 3
6 1 13 -5 15 -7 2 -19 10 -27 19 -8 8 -15 11 -15 7 0 -4 -11 3 -25 16 -14 13
-25 34 -25 47 0 13 -6 23 -12 22 -27 -3 -35 2 -46 26 -14 30 -37 32 -52 6z"/>
<path d="M1600 869 c-46 -43 -14 -68 52 -41 25 10 27 14 17 36 -17 37 -33 38
-69 5z"/>
<path d="M2755 880 c-19 -21 -10 -46 18 -53 12 -2 31 -8 41 -12 16 -7 18 -5
13 9 -5 13 -1 19 13 23 37 10 19 37 -28 44 -32 4 -46 1 -57 -11z"/>
<path d="M1059 849 c-25 -25 -21 -50 10 -66 14 -6 25 -21 26 -33 2 -27 21 -40
60 -40 22 0 33 7 42 25 10 23 9 25 -28 36 -25 8 -38 18 -37 28 3 35 -3 51 -17
51 -8 0 -15 5 -15 10 0 16 -19 11 -41 -11z"/>
<path d="M2513 842 c-15 -24 -7 -58 15 -66 10 -3 25 -11 34 -18 21 -15 35 -4
20 15 -17 20 -4 28 38 21 36 -6 37 -5 33 20 -7 33 -10 35 -75 42 -45 4 -55 2
-65 -14z"/>
<path d="M1255 824 c-9 -9 -14 -23 -11 -31 3 -8 6 -17 6 -19 0 -2 23 -4 51 -4
27 0 48 4 45 9 -3 5 1 14 9 21 12 10 13 16 4 26 -16 19 -84 18 -104 -2z"/>
<path d="M1478 806 c-3 -14 -2 -29 1 -35 10 -15 59 -31 97 -31 27 0 34 4 34
20 0 11 -6 20 -14 20 -8 0 -28 11 -44 25 -39 32 -68 33 -74 1z"/>
<path d="M2716 814 c-11 -30 -6 -44 24 -59 43 -22 50 -19 43 18 -10 48 -54 76
-67 41z"/>
<path d="M2940 805 c-11 -13 -10 -14 4 -9 9 3 16 10 16 15 0 13 -6 11 -20 -6z"/>
<path d="M1377 786 c-15 -14 -27 -33 -27 -43 0 -25 16 -47 28 -39 14 8 43 -4
36 -15 -11 -19 7 -46 31 -46 19 0 25 5 27 23 0 13 1 29 2 36 1 7 -10 15 -23
18 -17 4 -25 13 -27 32 -1 15 -7 34 -11 43 -8 14 -13 13 -36 -9z"/>
<path d="M1721 778 c-5 -13 -6 -29 -4 -35 5 -12 16 -14 70 -17 24 -1 24 42 -1
60 -30 20 -55 17 -65 -8z"/>
<path d="M2156 773 c-12 -32 -6 -53 18 -59 30 -7 46 1 46 25 0 34 -53 63 -64
34z"/>
<path d="M2263 751 c-13 -20 -7 -55 7 -46 4 3 19 -4 33 -15 40 -32 57 -27 37
11 -6 11 -7 19 -1 19 5 0 7 9 4 20 -3 11 -13 20 -23 20 -10 0 -24 2 -32 5 -7
3 -19 -4 -25 -14z"/>
<path d="M2616 722 c-17 -33 -2 -52 39 -52 15 0 23 -4 20 -10 -3 -6 1 -7 9 -4
13 5 13 11 -4 44 -25 50 -46 57 -64 22z"/>
<path d="M1600 697 c-33 -15 -40 -26 -40 -64 0 -32 2 -33 39 -33 22 0 43 -4
46 -10 3 -5 16 -10 28 -10 21 1 22 1 3 15 -11 8 -16 18 -12 22 3 4 17 -4 30
-18 13 -14 50 -33 85 -44 60 -18 79 -17 66 4 -10 17 -125 91 -140 91 -8 0 -24
14 -37 30 -24 33 -31 34 -68 17z"/>
<path d="M1760 684 c-6 -14 -10 -29 -10 -34 0 -14 60 -30 92 -23 22 4 33 2 40
-10 5 -10 15 -17 22 -17 8 0 27 -7 42 -15 21 -11 24 -15 11 -15 -12 0 -16 -4
-10 -12 4 -7 8 -19 10 -27 4 -27 32 -47 51 -35 34 22 26 53 -27 104 -31 30
-49 54 -45 63 7 20 -23 29 -47 14 -16 -10 -26 -8 -59 11 -50 28 -58 28 -70 -4z"/>
<path d="M2122 688 c-29 -29 4 -59 58 -52 14 1 28 3 33 3 19 2 3 28 -29 44
-41 20 -46 21 -62 5z"/>
<path d="M2038 673 c-27 -17 -40 -44 -29 -60 3 -5 30 -20 58 -34 29 -13 53
-31 53 -39 0 -8 19 -23 43 -32 47 -20 77 -23 77 -8 0 6 -4 10 -10 10 -5 0 -9
9 -7 21 1 12 -5 24 -13 29 -8 4 -25 12 -36 18 -16 8 -25 7 -33 -1 -16 -16 -30
1 -44 58 -14 56 -22 61 -59 38z"/>
<path d="M1335 650 c-4 -7 -19 -10 -35 -6 -20 3 -30 1 -34 -10 -11 -28 -6 -40
22 -55 33 -18 86 -14 78 7 -3 8 -1 14 4 14 17 0 11 26 -9 44 -14 12 -21 14
-26 6z"/>
<path d="M2267 632 c-10 -10 -17 -31 -17 -46 0 -22 6 -28 31 -33 21 -4 27 -9
20 -16 -20 -20 -11 -53 24 -86 19 -18 35 -41 35 -51 0 -10 4 -21 9 -24 15 -9
111 26 111 40 0 17 -43 46 -89 59 -28 8 -35 16 -33 31 1 11 -6 29 -17 38 -11
10 -18 23 -15 27 3 5 0 9 -5 9 -6 0 -11 5 -11 10 0 6 8 10 18 10 10 0 13 3 6
8 -6 4 -13 15 -17 25 -8 22 -30 22 -50 -1z"/>
<path d="M2393 633 c-7 -2 -13 -13 -13 -23 0 -21 10 -29 60 -48 50 -18 52 -18
56 -6 6 15 -56 84 -75 83 -9 0 -22 -3 -28 -6z"/>
<path d="M1401 591 c-17 -11 -7 -61 12 -61 7 0 23 7 35 16 l23 16 -25 19 c-28
22 -27 22 -45 10z"/>
<path d="M2743 581 c-18 -11 -22 -40 -9 -54 19 -18 79 -10 106 15 12 11 18 24
13 28 -11 10 -99 19 -110 11z"/>
<path d="M1668 554 c-15 -8 -30 -25 -34 -38 -6 -24 19 -86 35 -86 5 0 12 -11
15 -24 8 -31 40 -39 61 -16 25 28 0 68 -39 61 -45 -8 -57 40 -18 74 34 30 20
50 -20 29z"/>
<path d="M2656 551 c-26 -29 -7 -68 34 -69 24 -1 30 3 26 14 -3 9 -6 24 -6 34
0 30 -34 43 -54 21z"/>
<path d="M1732 508 c2 -25 9 -35 30 -42 34 -12 46 -2 30 24 -9 16 -9 20 0 20
19 0 -25 29 -45 30 -15 0 -18 -7 -15 -32z"/>
<path d="M1931 510 c-8 -4 -19 -6 -25 -4 -18 7 -38 -50 -27 -79 13 -34 27 -41
50 -25 18 13 21 18 21 38 0 6 5 10 11 10 5 0 8 -4 4 -10 -3 -5 5 -29 17 -54
20 -39 27 -45 54 -46 39 0 80 30 71 53 -3 9 -13 14 -25 10 -14 -3 -30 6 -53
31 -18 20 -38 36 -46 36 -7 0 -13 6 -13 14 0 20 -23 36 -39 26z"/>
<path d="M2475 500 c-26 -28 -5 -58 37 -55 92 7 135 58 53 62 -22 1 -48 4 -57
7 -9 2 -24 -4 -33 -14z"/>
<path d="M2134 455 c-4 -14 -5 -27 -3 -29 10 -8 89 -56 93 -56 12 0 -6 45 -29
76 -31 40 -52 43 -61 9z"/>
</g>
</svg>
