<?xml version="1.0" standalone="no"?>
<!DOCTYPE svg PUBLIC "-//W3C//DTD SVG 20010904//EN"
 "http://www.w3.org/TR/2001/REC-SVG-20010904/DTD/svg10.dtd">
<svg version="1.0" xmlns="http://www.w3.org/2000/svg"
 width="84.000000pt" height="129.000000pt" viewBox="0 0 84.000000 129.000000"
 preserveAspectRatio="xMidYMid meet">
<metadata>
Created by potrace 1.16, written by Peter Selinger 2001-2019
</metadata>
<g transform="translate(0.000000,129.000000) scale(0.100000,-0.100000)"
fill="#000000" stroke="none">
<path d="M410 1250 c-41 -3 -91 -13 -110 -22 -51 -23 -125 -101 -167 -177 -31
-54 -38 -76 -37 -121 1 -77 30 -191 74 -285 30 -65 53 -95 119 -160 85 -83 92
-98 110 -207 25 -149 90 -228 188 -228 31 0 47 9 86 43 44 40 61 77 36 77 -7
0 -31 -18 -55 -40 -56 -52 -107 -55 -152 -11 -32 33 -71 139 -77 213 -5 64
-15 79 -117 185 -55 57 -96 109 -108 138 -32 75 -70 220 -70 268 0 105 116
251 225 282 124 36 311 -23 363 -116 19 -32 42 -39 42 -12 0 24 -46 81 -89
107 -31 20 -178 79 -184 74 -1 -1 -36 -4 -77 -8z"/>
<path d="M345 1126 c-89 -46 -129 -135 -126 -276 2 -103 46 -196 136 -289 66
-68 82 -98 116 -206 22 -72 56 -113 99 -121 17 -4 33 -11 36 -16 9 -14 34 11
27 28 -3 8 -14 14 -25 14 -24 0 -59 18 -75 39 -7 9 -22 48 -34 86 -31 103 -53
140 -120 203 -116 108 -154 238 -113 384 31 108 126 162 247 139 66 -13 95
-28 140 -69 20 -20 30 -23 39 -14 15 15 -3 36 -69 79 -46 29 -63 34 -140 39
-81 5 -92 4 -138 -20z"/>
<path d="M620 905 c0 -4 6 -18 14 -34 19 -36 10 -47 -46 -53 -59 -7 -75 -19
-89 -71 -14 -54 7 -110 69 -178 45 -50 47 -56 52 -123 4 -54 9 -71 20 -71 12
0 15 15 15 77 l-1 76 -46 49 c-54 59 -78 101 -78 141 0 45 20 63 76 69 27 3
55 10 62 16 28 22 1 107 -34 107 -8 0 -14 -2 -14 -5z"/>
</g>
</svg>
