<?xml version="1.0" standalone="no"?>
<!DOCTYPE svg PUBLIC "-//W3C//DTD SVG 20010904//EN"
 "http://www.w3.org/TR/2001/REC-SVG-20010904/DTD/svg10.dtd">
<svg version="1.0" xmlns="http://www.w3.org/2000/svg"
 width="511.000000pt" height="437.000000pt" viewBox="0 0 511.000000 437.000000"
 preserveAspectRatio="xMidYMid meet">
<metadata>
Created by potrace 1.16, written by Peter Selinger 2001-2019
</metadata>
<g transform="translate(0.000000,437.000000) scale(0.100000,-0.100000)"
fill="#000000" stroke="none">
<path d="M591 4137 c-11 -13 -21 -29 -21 -35 0 -7 -4 -12 -10 -12 -22 0 -9
-52 19 -78 16 -15 52 -48 80 -74 28 -26 51 -45 51 -42 0 3 18 -13 39 -35 22
-23 42 -41 45 -41 3 0 38 -32 78 -70 122 -117 132 -126 151 -133 9 -4 17 -11
17 -16 0 -5 37 -39 83 -74 45 -36 94 -77 109 -91 15 -14 29 -26 30 -26 2 0 40
-36 85 -79 45 -44 96 -87 112 -97 17 -10 31 -22 31 -26 0 -6 54 -60 106 -105
102 -87 134 -116 169 -150 22 -21 75 -69 118 -108 l78 -69 -23 -17 c-13 -10
-37 -20 -55 -24 -18 -3 -53 -15 -79 -26 -25 -12 -56 -23 -68 -24 -39 -6 -103
-34 -147 -63 -24 -16 -62 -35 -84 -42 -22 -7 -56 -21 -75 -33 -54 -31 -143
-77 -151 -77 -4 0 -36 -17 -70 -38 -35 -22 -82 -47 -104 -56 -22 -10 -55 -24
-73 -32 -18 -8 -60 -23 -94 -35 -34 -11 -93 -38 -132 -59 -65 -35 -105 -50
-178 -65 -32 -6 -46 -42 -28 -75 10 -19 16 -21 67 -14 52 6 85 19 198 76 22
11 47 22 55 23 8 2 16 4 18 5 1 2 6 3 10 4 4 0 26 8 47 18 22 9 65 26 95 38
30 13 57 25 60 29 10 12 68 41 83 41 9 0 22 6 29 13 7 6 47 29 88 49 41 21 82
42 90 47 8 5 35 18 60 29 165 75 200 90 243 102 26 8 47 18 47 22 0 4 10 8 23
8 13 0 27 4 33 8 5 4 36 16 69 26 33 10 74 25 92 32 50 22 65 17 133 -46 79
-74 177 -160 182 -160 2 0 34 -29 72 -65 37 -36 72 -65 76 -65 4 0 11 -7 14
-16 5 -12 1 -14 -17 -8 -49 16 -206 -1 -322 -36 -33 -10 -96 -28 -140 -40 -44
-12 -87 -25 -95 -28 -8 -3 -19 -6 -25 -7 -5 0 -17 -4 -25 -7 -23 -9 -103 -29
-120 -30 -8 0 -21 -5 -28 -11 -7 -6 -25 -11 -40 -12 -15 -2 -65 -10 -112 -18
-268 -50 -501 -70 -685 -57 -33 2 -71 1 -84 -3 -26 -7 -190 15 -212 28 -4 3
-41 8 -80 11 -56 3 -76 1 -89 -11 -36 -33 1 -94 78 -131 19 -9 50 -31 70 -50
20 -19 42 -34 48 -34 7 0 25 -12 42 -27 38 -36 157 -143 199 -180 35 -30 107
-69 188 -101 56 -23 186 -39 206 -26 22 13 52 13 81 -1 17 -8 30 -9 36 -3 6 6
26 2 55 -11 25 -12 53 -21 61 -21 9 0 16 -5 16 -10 0 -6 3 -9 8 -9 4 1 18 1
32 0 23 -1 21 -5 -30 -52 -30 -28 -66 -60 -80 -71 -14 -11 -69 -60 -123 -110
-53 -50 -110 -100 -125 -111 -29 -23 -100 -88 -194 -178 -32 -31 -58 -54 -58
-52 0 2 -17 -12 -37 -32 -21 -20 -84 -75 -140 -122 -57 -48 -105 -95 -109
-105 -9 -29 22 -68 54 -68 16 0 33 -5 38 -10 27 -27 54 -19 108 33 29 29 81
77 115 107 34 30 101 93 149 139 48 46 112 102 142 125 50 37 112 91 180 156
14 14 55 50 90 80 36 30 67 58 68 62 2 5 8 8 14 8 5 0 27 17 47 37 21 21 55
53 77 71 l39 32 155 -5 c85 -3 220 -8 300 -11 80 -3 168 -6 195 -6 89 -2 299
11 355 21 30 6 64 11 75 11 126 4 193 8 202 13 5 3 29 4 54 1 24 -3 65 -4 92
-3 26 1 83 2 127 3 44 1 80 4 80 9 0 20 50 2 90 -33 25 -22 67 -59 93 -82 27
-24 61 -54 76 -68 15 -14 62 -56 105 -95 104 -93 210 -190 261 -241 22 -23 46
-43 52 -45 13 -5 99 -84 105 -96 1 -4 21 -23 43 -42 66 -56 205 -192 205 -201
0 -5 9 -11 19 -15 11 -3 45 -31 75 -62 63 -62 78 -64 132 -16 35 32 60 73 44
73 -5 0 -10 6 -10 13 -1 13 -34 57 -44 57 -8 0 -134 97 -167 130 -15 14 -59
54 -99 90 -39 36 -87 80 -107 98 -19 17 -40 29 -45 25 -6 -3 -8 -1 -5 4 4 6
-6 19 -21 29 -15 9 -40 30 -56 46 -17 15 -33 28 -38 28 -4 0 -8 6 -8 13 0 7
-26 35 -57 62 -31 28 -75 67 -97 87 -23 21 -46 38 -52 38 -6 0 -42 30 -80 66
-38 37 -93 90 -122 118 l-53 51 33 6 c18 3 43 11 55 17 12 7 31 12 42 12 12 0
29 4 39 9 9 5 49 16 87 25 39 9 93 28 120 40 28 13 64 27 80 32 17 4 32 8 35
9 3 1 25 11 50 22 25 12 62 29 82 37 20 9 40 21 43 25 3 5 33 28 68 52 34 23
64 45 67 49 3 4 14 10 25 14 25 8 73 52 107 97 18 23 27 50 30 83 3 42 0 53
-23 77 -15 16 -32 29 -38 29 -6 0 -11 5 -11 11 0 5 -14 15 -30 20 -17 6 -30
18 -30 26 0 11 -7 14 -25 9 -14 -4 -41 0 -62 10 -21 8 -48 18 -61 20 -13 3
-40 15 -60 27 -20 13 -59 31 -87 41 -27 11 -57 24 -65 31 -8 7 -28 20 -45 28
-16 9 -42 27 -57 41 -15 14 -64 45 -110 68 -46 23 -99 53 -118 66 -19 13 -45
28 -57 33 -13 5 -23 13 -23 19 0 6 -4 9 -9 6 -5 -3 -31 12 -57 33 -27 21 -65
45 -84 54 -19 8 -45 24 -58 36 -12 12 -31 24 -42 26 -10 2 -30 11 -43 20 -13
8 -44 19 -68 23 l-44 8 38 26 c32 21 181 156 300 271 16 15 31 27 34 27 3 0
13 8 22 18 9 9 36 33 61 52 25 19 71 59 103 89 32 30 69 62 83 71 14 10 53 44
87 77 34 33 84 77 111 97 27 20 61 49 75 64 35 35 89 82 96 82 16 0 89 88 90
108 1 29 -26 62 -51 62 -11 0 -34 14 -53 30 -35 31 -51 37 -51 20 0 -5 -4 -9
-9 -7 -10 2 -51 -41 -51 -55 0 -4 -4 -8 -9 -8 -9 0 -58 -40 -121 -100 -20 -19
-64 -60 -97 -90 -33 -30 -86 -79 -118 -109 -32 -29 -103 -93 -159 -141 -55
-48 -110 -98 -122 -111 -11 -13 -62 -60 -112 -103 -51 -44 -92 -84 -92 -88 0
-4 -4 -8 -9 -8 -5 0 -50 -39 -98 -87 -49 -49 -101 -97 -115 -109 -86 -69 -105
-80 -143 -83 -42 -3 -123 -44 -188 -94 -37 -28 -39 -29 -53 -11 -8 11 -19 29
-24 40 -5 12 -29 31 -53 43 -25 12 -48 28 -51 36 -3 8 -11 15 -19 15 -7 0 -33
10 -58 22 -43 22 -58 23 -266 31 -39 1 -67 -3 -75 -11 -17 -17 -69 -15 -98 4
-14 10 -45 36 -70 60 -72 68 -102 95 -175 159 -72 63 -148 132 -221 200 -23
22 -70 65 -104 95 -108 96 -261 236 -332 303 -27 26 -54 47 -58 47 -4 0 -36
29 -71 65 -34 36 -66 65 -70 65 -4 0 -53 44 -107 98 -176 171 -199 191 -263
219 -3 1 -16 -8 -28 -20z m1882 -1416 c84 -31 132 -65 158 -111 12 -22 26 -40
31 -40 5 0 13 -11 18 -25 6 -17 17 -25 32 -25 24 0 13 -13 -84 -99 l-27 -24
-49 39 c-27 22 -60 46 -72 54 -13 8 -28 21 -34 29 -25 30 -77 80 -153 146 -45
39 -77 72 -72 75 5 4 50 5 101 4 66 -1 110 -8 151 -23z m766 -57 c11 7 141
-33 141 -43 0 -5 10 -12 23 -16 12 -4 24 -8 27 -9 25 -9 77 -41 83 -52 4 -8
12 -14 17 -14 14 0 111 -60 140 -87 14 -13 31 -23 38 -23 33 0 155 -74 267
-163 29 -23 72 -45 128 -66 15 -6 27 -15 27 -21 0 -5 8 -10 18 -10 9 -1 32 -9
51 -19 28 -15 31 -19 15 -23 -55 -14 -269 6 -454 42 -30 6 -73 13 -95 16 -62
8 -195 34 -251 50 -28 8 -60 17 -70 19 -58 13 -140 38 -149 45 -5 4 -26 11
-45 16 -19 4 -37 8 -40 9 -61 17 -236 27 -259 16 -82 -41 -104 -51 -108 -47
-3 3 57 56 105 91 8 6 36 31 62 58 27 26 51 47 54 47 3 0 16 10 29 23 13 12
45 40 71 62 26 22 63 57 83 77 31 31 39 35 60 27 14 -5 28 -7 32 -5z m-223
-446 c7 -5 26 -10 43 -11 31 -2 39 -11 21 -22 -16 -10 -11 -41 10 -60 11 -10
20 -14 21 -9 0 5 7 -25 15 -66 28 -147 28 -155 -3 -125 -8 8 -19 13 -24 10 -5
-4 -9 0 -9 8 0 14 -63 69 -92 80 -10 3 -18 13 -18 21 0 8 -15 25 -32 37 -57
39 -142 122 -119 116 12 -3 21 -1 21 3 0 9 34 23 62 25 10 1 20 4 23 7 7 7 68
-3 81 -14z m-719 -83 c-107 -101 -170 -155 -175 -150 -3 2 1 38 8 79 7 41 9
79 6 85 -7 11 -6 12 30 16 12 1 28 6 35 11 15 9 87 20 132 19 27 0 25 -3 -36
-60z m317 8 c6 -15 17 -103 20 -167 1 -16 7 -31 14 -34 30 -10 6 -17 -66 -19
-42 -2 -106 -4 -140 -6 -35 -1 -66 1 -69 6 -2 4 -9 5 -14 2 -21 -13 -7 9 24
37 17 16 71 68 119 114 48 46 92 84 97 84 5 0 12 -7 15 -17z m701 -3 c105 -19
160 -37 161 -51 0 -8 2 -16 3 -19 2 -3 5 -18 7 -35 3 -16 9 -42 14 -57 8 -26
7 -28 -33 -39 -23 -6 -58 -13 -77 -15 -66 -7 -125 -15 -150 -20 l-25 -5 2 128
c2 71 3 129 3 131 0 2 8 1 18 -2 9 -3 44 -10 77 -16z m-1276 -110 l0 -100 -27
-2 c-15 -1 -38 -1 -52 0 -14 1 -55 2 -92 2 l-68 0 -1 40 c-1 22 -2 52 -3 66
-1 34 6 37 134 67 58 14 106 25 107 26 1 1 2 -44 2 -99z m766 -2 c22 -21 60
-55 84 -76 l44 -39 -59 9 c-33 6 -87 9 -121 9 -52 -1 -62 1 -57 14 4 8 10 15
14 15 4 0 8 12 7 28 0 15 1 46 2 70 l1 43 23 -18 c12 -10 40 -35 62 -55z m900
26 c79 -9 131 -15 140 -15 6 -1 16 -6 24 -12 10 -9 -1 -15 -55 -29 -38 -9
-100 -20 -138 -24 -81 -8 -95 2 -88 61 l4 37 42 -7 c22 -4 55 -9 71 -11z
m-2000 -67 c7 -37 7 -38 -21 -33 -16 2 -56 7 -89 11 -145 16 -176 30 -90 40
33 4 87 13 120 20 33 6 63 9 67 6 3 -3 10 -23 13 -44z m2759 44 c7 -10 -25
-71 -36 -71 -3 0 -30 -23 -60 -51 -29 -27 -66 -57 -83 -66 -16 -9 -45 -27 -64
-42 -18 -14 -39 -26 -47 -27 -7 -1 -25 -12 -40 -23 -15 -12 -33 -21 -41 -21
-8 0 -27 -7 -43 -15 -16 -8 -37 -17 -47 -18 -10 -2 -25 -7 -33 -10 -8 -3 -40
-13 -70 -22 -30 -9 -68 -21 -85 -26 -16 -6 -46 -15 -65 -19 -19 -5 -53 -14
-75 -20 -136 -37 -141 -37 -180 4 -18 20 -36 36 -40 36 -7 0 -24 14 -69 58
-19 17 -38 32 -43 32 -5 0 -24 16 -43 35 -36 37 -33 42 26 50 16 2 29 4 29 5
0 1 16 3 35 6 19 2 49 7 65 10 17 3 66 10 110 15 44 6 95 14 114 19 19 5 38 7
42 5 4 -3 32 1 62 9 30 8 74 16 98 17 24 2 54 9 67 17 13 8 43 15 67 15 26 0
50 6 56 13 6 8 18 14 25 14 8 0 14 9 14 19 0 20 -3 20 214 36 38 3 74 1 80 -4
8 -7 17 -4 26 9 16 22 26 25 34 11z m-3479 -85 c50 -1 96 -6 103 -10 9 -5 134
-18 192 -18 8 0 33 -4 55 -9 73 -15 100 -19 140 -24 40 -5 76 -12 220 -39 44
-9 89 -15 100 -15 11 1 48 -2 81 -6 l62 -8 -52 -44 c-28 -24 -73 -64 -101 -88
-138 -120 -157 -134 -174 -125 -9 5 -61 26 -116 46 -55 20 -102 39 -105 43
-12 14 -107 16 -144 2 -31 -12 -166 -4 -202 12 -47 20 -183 111 -184 122 0 6
-21 28 -46 50 -26 22 -51 45 -58 50 -6 6 -27 22 -46 35 l-35 25 40 7 c22 3 72
4 110 1 39 -3 111 -6 160 -7z m1777 -117 c57 -1 108 -5 114 -10 16 -13 116
-19 137 -8 22 12 30 8 118 -73 112 -103 195 -182 182 -174 -7 4 -13 3 -13 -3
0 -13 -122 -17 -310 -10 -25 1 -54 -1 -65 -4 -23 -7 -139 -19 -200 -21 -22 0
-43 -5 -47 -10 -11 -15 -778 -9 -793 6 -6 6 41 58 52 58 5 0 27 19 49 43 21
23 66 65 98 92 33 28 72 62 88 78 29 27 60 34 138 27 41 -4 112 -4 155 -1 17
1 57 2 90 1 36 -1 61 3 63 10 2 6 12 8 22 5 10 -3 65 -6 122 -6z"/>
</g>
</svg>
