<?xml version="1.0" standalone="no"?>
<!DOCTYPE svg PUBLIC "-//W3C//DTD SVG 20010904//EN"
 "http://www.w3.org/TR/2001/REC-SVG-20010904/DTD/svg10.dtd">
<svg version="1.0" xmlns="http://www.w3.org/2000/svg"
 width="465.000000pt" height="455.000000pt" viewBox="0 0 465.000000 455.000000"
 preserveAspectRatio="xMidYMid meet">
<metadata>
Created by potrace 1.16, written by Peter Selinger 2001-2019
</metadata>
<g transform="translate(0.000000,455.000000) scale(0.100000,-0.100000)"
fill="#000000" stroke="none">
<path d="M4196 4349 c-27 -4 -110 -10 -185 -14 -75 -3 -153 -10 -173 -16 -20
-5 -40 -9 -45 -7 -18 4 -83 -22 -173 -71 -52 -28 -109 -57 -125 -64 -17 -8
-38 -21 -46 -30 -9 -8 -24 -17 -34 -19 -10 -2 -28 -12 -40 -23 -12 -11 -45
-40 -74 -65 -76 -65 -79 -68 -138 -147 -29 -39 -58 -75 -64 -78 -12 -8 -49
-89 -55 -124 -3 -13 -11 -30 -19 -38 -8 -8 -15 -17 -16 -21 -3 -28 -10 -51
-28 -86 -11 -23 -24 -57 -30 -77 -9 -27 -20 -38 -49 -49 -20 -8 -41 -13 -46
-12 -4 2 -14 -3 -22 -9 -31 -26 -128 17 -205 91 -43 42 -67 59 -74 52 -3 -3
-2 5 3 18 7 20 5 28 -14 42 -12 10 -26 18 -30 18 -4 0 -15 7 -24 15 -10 9 -30
19 -46 22 -41 9 -134 5 -147 -5 -18 -14 -57 -21 -57 -11 0 5 -11 9 -25 9 -14
0 -25 4 -25 9 0 12 -134 12 -210 -1 -38 -7 -78 -21 -97 -35 -17 -13 -36 -23
-41 -23 -6 0 -12 -5 -14 -11 -3 -9 -13 -9 -38 -1 -83 28 -220 9 -310 -41 -95
-53 -220 -157 -220 -183 0 -6 -11 -20 -25 -30 -14 -10 -25 -23 -25 -29 0 -6
-14 -16 -31 -24 -19 -8 -44 -35 -67 -73 -20 -33 -41 -65 -47 -72 -5 -6 -16
-23 -24 -38 -8 -16 -18 -28 -23 -28 -4 0 -8 -6 -8 -13 0 -7 -9 -23 -19 -34
-11 -12 -18 -23 -15 -26 7 -7 -23 -77 -33 -77 -4 0 -14 -13 -20 -28 -15 -32
-130 -152 -147 -152 -6 0 -16 -8 -22 -17 -7 -10 -33 -29 -60 -43 -27 -14 -52
-30 -57 -37 -11 -18 -131 -99 -174 -118 -147 -65 -159 -78 -131 -140 15 -33
57 -33 106 0 20 14 41 25 47 25 5 0 21 12 34 25 13 14 31 25 40 25 10 0 32 13
51 30 18 16 42 32 52 36 10 3 18 10 18 15 0 5 6 9 14 9 8 0 23 10 33 23 10 12
36 31 58 42 22 11 59 39 84 63 25 23 51 42 58 42 8 0 12 4 9 8 -3 5 10 23 29
40 19 16 35 35 35 41 0 5 9 16 20 24 11 8 23 28 26 46 4 17 11 34 15 37 5 3 9
13 9 22 0 9 13 37 29 61 17 25 28 48 25 53 -3 4 2 11 10 14 9 3 16 12 16 20 0
8 4 14 9 14 5 0 14 12 20 28 13 30 50 72 105 116 19 16 33 33 30 38 -3 5 3 12
15 15 11 3 18 9 15 14 -6 11 37 53 90 89 21 14 50 35 66 48 16 13 37 25 47 26
10 2 36 8 58 14 83 21 97 23 91 13 -3 -5 -27 -19 -52 -31 -25 -13 -67 -40 -92
-62 -26 -21 -53 -43 -60 -49 -9 -7 -11 -21 -6 -42 8 -39 4 -36 41 -43 22 -4
34 -1 44 11 35 41 94 95 105 95 6 0 17 7 24 15 7 8 20 15 30 15 10 0 21 7 24
16 3 8 10 13 14 10 5 -3 18 4 30 14 12 11 24 20 27 20 10 0 90 54 105 71 17
19 55 30 124 35 41 3 46 2 36 -11 -6 -8 -22 -17 -33 -21 -26 -8 -125 -74 -161
-107 -54 -50 -77 -67 -88 -67 -12 0 -78 -65 -78 -77 0 -4 7 -16 15 -27 17 -23
74 -15 108 15 21 18 103 88 158 135 20 16 99 58 174 93 6 2 4 -3 -4 -12 -7
-10 -18 -17 -23 -17 -10 0 -98 -80 -98 -89 0 -11 -145 -161 -156 -161 -16 0
-80 -63 -88 -85 -4 -16 1 -25 24 -39 43 -25 81 -14 123 37 74 90 230 257 235
252 2 -2 11 2 19 10 8 8 24 15 36 15 12 0 34 7 49 14 16 8 49 18 75 22 44 7
61 8 112 5 18 -1 67 -35 126 -87 17 -14 38 -32 49 -38 17 -12 17 -14 2 -42
-23 -43 -52 -74 -69 -74 -8 0 -43 14 -77 31 -118 58 -199 40 -256 -58 -10 -18
-25 -33 -33 -33 -8 0 -11 -3 -8 -7 4 -3 1 -13 -7 -22 -7 -9 -21 -41 -30 -71
-25 -81 -36 -92 -76 -80 -23 7 -38 6 -47 -2 -55 -45 -28 -89 70 -113 37 -10
67 -21 67 -26 0 -5 13 -9 29 -9 17 0 32 -4 35 -9 4 -5 24 -12 46 -16 22 -4 42
-11 46 -16 3 -5 18 -9 35 -9 16 0 29 -5 29 -12 0 -10 3 -9 9 1 7 11 12 11 32
0 13 -7 45 -13 71 -14 43 0 48 2 48 23 0 12 5 22 11 22 6 0 33 18 59 40 101
85 223 110 289 61 l24 -18 -47 -43 c-25 -23 -46 -48 -46 -56 0 -7 -10 -20 -22
-28 -12 -9 -19 -16 -14 -16 4 0 -9 -19 -28 -42 -20 -23 -36 -46 -36 -51 0 -8
-98 -125 -141 -169 -14 -13 -44 -19 -141 -24 -67 -3 -126 -8 -129 -10 -4 -2
-20 0 -35 5 -16 5 -67 14 -114 21 -47 6 -100 16 -118 22 -18 5 -43 11 -55 13
-12 1 -49 11 -82 22 -65 22 -139 23 -215 3 -25 -6 -53 -13 -64 -15 -10 -3 -23
-8 -30 -13 -6 -6 -27 -13 -46 -17 -42 -9 -70 -26 -70 -42 0 -6 -20 -22 -44
-35 -24 -13 -83 -49 -132 -82 -49 -32 -100 -64 -114 -70 -14 -6 -28 -14 -31
-19 -3 -4 -10 -7 -15 -5 -5 1 -28 -10 -51 -25 -23 -15 -60 -35 -83 -44 -22
-10 -40 -21 -40 -25 0 -5 -9 -8 -21 -8 -11 0 -54 -16 -94 -35 -66 -31 -93 -40
-185 -59 -52 -11 -130 -42 -146 -57 -15 -15 -15 -19 2 -43 15 -25 21 -27 58
-21 62 10 301 78 304 87 2 4 11 8 20 8 10 0 31 9 47 20 17 11 40 20 53 20 12
0 22 4 22 9 0 5 8 11 18 15 9 3 24 10 32 15 8 5 42 22 75 38 33 15 62 30 65
34 3 3 25 16 50 30 25 13 61 36 81 51 20 16 40 28 43 28 9 0 137 86 157 105 9
8 22 15 30 15 8 0 19 4 25 9 5 5 35 16 67 25 79 23 121 19 297 -29 132 -36
191 -46 300 -51 142 -5 207 -11 219 -18 6 -4 11 -3 11 3 0 5 24 15 53 21 47 9
60 18 108 72 30 34 69 77 87 96 17 19 32 37 32 41 0 3 15 21 34 39 l34 33 0
-76 c0 -42 3 -79 6 -82 3 -3 -2 -19 -10 -35 -22 -42 -11 -92 26 -118 19 -14
50 -22 97 -25 77 -5 166 -31 202 -57 13 -10 29 -18 36 -18 7 0 15 -7 19 -15 6
-16 -15 -21 -28 -8 -12 12 -244 12 -282 0 -49 -15 -49 -47 -3 -142 18 -36 32
-87 37 -128 8 -60 5 -79 -16 -145 -14 -42 -29 -80 -34 -83 -5 -3 -9 -10 -9
-15 0 -5 -3 -23 -8 -40 -10 -38 -1 -96 23 -141 9 -18 15 -35 14 -37 -7 -11 52
-61 100 -83 28 -14 52 -28 52 -32 0 -13 73 -49 123 -61 26 -7 47 -16 47 -21 0
-5 7 -6 15 -3 8 4 21 2 28 -4 6 -5 28 -12 47 -15 19 -3 67 -13 105 -22 39 -9
81 -19 95 -20 23 -4 89 -16 100 -20 60 -20 169 -77 209 -111 20 -17 40 -31 45
-30 5 0 17 -14 27 -33 10 -18 26 -43 37 -55 10 -11 29 -48 41 -81 13 -33 27
-67 32 -75 5 -8 12 -23 15 -32 8 -24 37 -31 68 -17 38 18 38 53 0 144 -37 87
-53 116 -87 152 -17 18 -27 33 -22 33 11 0 -35 43 -91 85 -21 16 -45 35 -52
42 -7 7 -22 13 -33 13 -10 0 -19 4 -19 8 0 12 -48 29 -180 64 -47 13 -89 26
-95 30 -5 3 -27 6 -47 6 -20 0 -65 9 -100 20 -61 20 -140 43 -165 48 -23 4
-73 29 -73 36 0 3 -13 9 -30 13 -16 4 -30 11 -30 16 0 5 -16 19 -35 31 -19 13
-35 28 -35 33 0 6 -9 21 -19 34 -14 19 -17 31 -10 48 5 13 8 27 7 31 -1 4 4
20 10 35 7 16 12 33 12 38 0 5 6 12 14 15 8 3 15 13 15 22 1 9 4 59 7 110 7
103 -8 206 -34 235 -15 17 -13 17 49 11 35 -3 67 -8 71 -10 4 -2 9 0 12 5 9
14 91 -11 171 -52 141 -71 144 -72 174 -54 14 8 27 25 29 37 4 25 -16 80 -29
80 -5 0 -9 7 -9 15 0 8 -4 15 -10 15 -5 0 -16 13 -25 30 -9 17 -22 30 -30 30
-7 0 -20 8 -27 18 -19 27 -183 132 -239 153 -27 11 -61 19 -75 19 -14 0 -34 5
-45 11 -11 6 -34 11 -50 11 -33 1 -45 13 -32 31 6 7 9 88 9 180 l-1 169 36 29
c28 22 35 35 34 58 -2 36 -68 121 -94 121 -9 0 -22 5 -29 12 -17 17 -161 18
-195 1 -54 -27 -92 14 -69 75 5 15 16 47 23 72 10 32 30 60 67 96 46 44 61 53
105 59 29 4 61 9 72 10 10 2 24 0 30 -5 16 -13 55 33 55 64 0 14 5 37 12 53 6
15 12 33 14 38 19 75 105 258 156 333 16 23 42 52 58 64 16 12 27 25 24 30 -3
4 1 8 8 8 8 0 22 14 31 30 10 17 24 30 31 30 7 0 42 22 77 49 126 96 316 191
381 190 24 -1 55 4 71 10 15 6 113 13 219 16 105 3 194 8 198 10 14 9 153 -34
182 -55 21 -15 37 -20 54 -16 46 12 68 116 25 116 -9 0 -26 7 -37 15 -12 8
-24 12 -26 10 -3 -3 -25 2 -49 11 -25 9 -81 16 -129 17 -47 1 -87 4 -90 7 -3
3 -27 3 -54 -1z m-1806 -780 c13 -9 12 -10 -2 -5 -10 3 -18 1 -18 -4 0 -6 -6
-10 -14 -10 -8 0 -27 -5 -43 -12 -15 -6 -47 -17 -71 -23 -72 -20 -44 7 39 37
85 31 89 31 109 17z m123 -419 l72 -35 1 -66 c1 -37 4 -78 8 -92 5 -21 1 -27
-23 -37 -16 -6 -32 -18 -35 -26 -7 -17 -86 -20 -86 -2 0 6 -3 9 -6 5 -4 -3
-13 0 -21 8 -11 11 -18 12 -32 4 -24 -16 -141 28 -141 53 0 9 5 20 10 23 6 3
15 25 21 49 6 23 21 55 35 71 13 15 24 32 24 36 0 5 10 17 22 29 30 27 64 23
151 -20z"/>
<path d="M3367 3682 c-24 -27 -21 -59 8 -78 14 -9 28 -14 31 -11 9 9 143 -42
189 -71 22 -15 49 -36 60 -48 34 -36 65 -74 65 -79 0 -3 9 -16 21 -28 11 -12
30 -41 41 -64 13 -28 27 -43 39 -43 10 0 19 -5 19 -10 0 -6 11 0 25 14 29 29
34 86 10 106 -8 7 -15 18 -15 24 0 6 -20 34 -45 61 -24 28 -47 58 -50 68 -4 9
-10 17 -14 17 -5 0 -28 18 -51 41 -33 33 -106 76 -140 84 -3 1 -26 5 -53 9
-26 5 -50 12 -53 17 -10 16 -70 10 -87 -9z"/>
<path d="M3415 3449 c-19 -9 -59 -81 -58 -104 0 -5 6 -24 12 -42 39 -102 156
8 129 121 -7 31 -47 42 -83 25z"/>
<path d="M2473 2133 c-11 -16 -24 -39 -31 -53 -6 -14 -16 -32 -22 -40 -23 -34
-33 -80 -36 -158 -3 -68 0 -90 16 -120 11 -20 20 -42 20 -49 0 -14 16 -46 36
-73 15 -20 25 -63 30 -133 4 -48 0 -68 -21 -112 -14 -30 -30 -57 -35 -60 -9
-6 -36 -59 -72 -144 -13 -30 -13 -46 0 -125 7 -50 20 -98 27 -106 19 -21 34
-127 24 -163 -5 -18 -4 -37 2 -49 9 -17 17 -19 47 -13 21 4 39 9 42 12 3 2 5
46 5 96 0 77 -5 105 -29 170 -23 62 -27 86 -22 124 8 58 27 115 43 128 7 6 29
42 50 80 35 67 37 74 34 155 -4 129 -5 133 -24 152 -10 10 -20 32 -24 48 -3
17 -9 30 -13 30 -13 0 -47 104 -49 152 -1 26 3 55 8 65 5 10 12 30 15 44 3 14
19 41 36 60 35 40 37 62 10 89 -27 27 -45 25 -67 -7z"/>
<path d="M1862 2023 c-16 -32 -46 -85 -66 -118 -20 -33 -41 -76 -46 -95 -5
-19 -13 -51 -17 -70 -10 -36 8 -162 25 -184 5 -6 13 -22 17 -36 4 -14 17 -38
29 -55 43 -57 74 -120 81 -162 7 -43 -8 -104 -32 -134 -7 -8 -13 -19 -13 -24
0 -4 -14 -38 -31 -74 -48 -102 -60 -151 -55 -234 2 -41 8 -82 13 -91 6 -11 5
-54 -4 -118 -14 -112 -10 -128 37 -128 33 0 49 17 62 67 12 48 14 167 3 213
-10 42 -10 137 -1 165 4 11 25 56 47 100 21 44 39 85 39 91 0 6 7 24 15 40 8
17 15 44 17 62 1 18 5 32 9 32 8 0 0 40 -12 55 -4 6 -13 32 -20 58 -6 27 -18
51 -25 54 -7 2 -16 18 -19 34 -4 17 -18 42 -31 56 -13 14 -24 34 -24 44 0 9
-5 19 -12 21 -17 6 -17 150 0 200 7 22 22 50 32 61 11 11 17 23 15 27 -3 4 4
15 15 25 11 10 20 25 20 34 0 9 9 27 20 41 28 36 27 86 -2 94 -46 12 -56 6
-86 -51z"/>
<path d="M2147 2018 c-37 -58 -75 -141 -71 -153 3 -7 1 -16 -5 -19 -6 -4 -13
-29 -17 -57 -4 -27 -10 -52 -14 -54 -7 -5 8 -88 28 -152 6 -18 8 -33 5 -33 -3
0 6 -9 21 -21 14 -11 26 -27 26 -35 0 -8 4 -14 8 -14 16 0 46 -82 44 -118 -2
-19 -26 -82 -54 -140 -49 -100 -51 -110 -54 -198 -4 -98 13 -171 47 -209 17
-20 19 -31 17 -162 -1 -72 61 -101 98 -46 15 24 16 38 8 118 -6 50 -17 104
-26 120 -8 17 -24 46 -34 65 -18 35 -22 139 -6 164 3 6 8 22 10 34 1 13 14 41
26 61 30 47 56 122 63 182 7 58 -15 121 -70 203 -52 77 -61 121 -46 211 6 38
14 75 17 80 4 6 7 15 9 20 1 6 9 29 17 52 29 79 -10 161 -47 101z"/>
</g>
</svg>
