<?xml version="1.0" standalone="no"?>
<!DOCTYPE svg PUBLIC "-//W3C//DTD SVG 20010904//EN"
 "http://www.w3.org/TR/2001/REC-SVG-20010904/DTD/svg10.dtd">
<svg version="1.0" xmlns="http://www.w3.org/2000/svg"
 width="371.000000pt" height="421.000000pt" viewBox="0 0 371.000000 421.000000"
 preserveAspectRatio="xMidYMid meet">
<metadata>
Created by potrace 1.16, written by Peter Selinger 2001-2019
</metadata>
<g transform="translate(0.000000,421.000000) scale(0.100000,-0.100000)"
fill="#000000" stroke="none">
<path d="M868 4023 c-16 -19 -2 -43 26 -43 43 0 173 -139 224 -240 24 -47 47
-89 51 -95 7 -9 28 -75 63 -200 l14 -49 -70 -73 c-38 -40 -74 -73 -80 -73 -19
1 -63 44 -71 69 -15 49 -206 218 -255 226 -3 0 -19 6 -36 13 -19 8 -38 10 -53
4 -22 -8 -22 -9 -4 -29 10 -12 41 -33 69 -47 27 -14 84 -59 125 -100 83 -83
91 -94 118 -152 11 -23 24 -45 29 -48 7 -4 6 -16 -4 -34 -7 -15 -14 -32 -14
-39 0 -15 -68 -129 -86 -144 -8 -6 -14 -17 -14 -23 0 -16 -74 -168 -120 -246
-22 -38 -39 -79 -38 -96 0 -16 -5 -42 -12 -59 l-12 -30 -24 28 c-13 16 -29 25
-34 22 -6 -3 -10 -2 -10 3 0 16 -97 35 -144 28 -24 -4 -52 -16 -61 -26 -10
-11 -23 -20 -30 -20 -23 0 -83 -154 -65 -165 5 -3 8 -38 8 -78 -1 -39 2 -99 6
-132 3 -33 8 -86 11 -118 3 -32 10 -77 16 -100 6 -23 13 -100 14 -172 4 -177
6 -183 85 -261 23 -24 97 -62 148 -78 15 -5 22 -16 23 -34 3 -68 7 -90 22
-126 9 -21 17 -43 17 -48 0 -5 9 -28 20 -52 10 -24 28 -76 39 -118 33 -122 29
-114 136 -263 27 -38 60 -80 73 -94 12 -13 22 -27 22 -32 0 -13 259 -265 269
-262 4 0 24 -12 45 -28 22 -16 45 -29 50 -29 6 0 22 -9 36 -20 14 -11 33 -20
43 -20 9 0 17 -4 17 -9 0 -23 328 -82 450 -81 67 1 151 17 188 36 15 8 32 14
37 14 6 0 55 18 110 40 78 32 113 52 160 95 33 30 62 55 65 55 3 0 20 14 39
30 18 17 37 30 42 30 4 0 61 53 127 118 109 107 177 190 177 218 0 6 17 25 38
44 21 18 47 53 59 79 11 25 29 64 39 85 11 22 19 47 19 56 0 9 9 25 19 34 11
10 21 28 23 40 3 20 48 38 48 18 0 -12 100 -6 113 7 6 6 18 11 27 11 15 0 55
38 55 53 0 4 9 18 21 30 18 19 58 91 59 107 1 3 15 35 32 72 29 62 58 143 68
193 3 11 23 77 44 147 22 70 43 150 47 178 4 28 12 57 19 63 6 7 11 21 9 32
-9 60 -17 89 -28 99 -62 56 -68 60 -98 58 -17 -1 -41 4 -53 12 -20 13 -29 13
-76 1 -30 -8 -56 -10 -59 -5 -3 5 -16 60 -28 122 -27 129 -50 218 -63 234 -8
9 -22 66 -49 193 -6 24 -19 58 -30 76 -11 18 -20 37 -20 43 0 11 -42 84 -89
155 l-25 38 27 25 c15 14 27 21 27 17 1 -4 15 8 33 28 26 30 236 179 252 179
11 0 95 63 95 71 0 12 -47 12 -55 0 -3 -5 -22 -15 -43 -22 -46 -15 -126 -60
-223 -126 -25 -17 -65 -42 -89 -55 -23 -12 -52 -28 -63 -35 -18 -10 -26 -7
-56 20 l-36 32 28 25 c33 30 38 35 105 85 28 21 52 42 52 46 0 4 10 9 23 13
13 3 37 18 53 33 16 15 31 28 34 28 13 1 70 31 70 36 0 4 14 9 30 13 17 3 30
10 30 16 0 21 -29 21 -73 1 -25 -12 -53 -21 -62 -21 -18 0 -87 -37 -150 -80
-22 -15 -53 -34 -70 -43 -16 -8 -46 -29 -65 -46 -19 -17 -40 -35 -47 -41 -7
-5 -17 -10 -23 -10 -12 0 -83 50 -88 63 -2 4 -10 7 -18 7 -8 0 -14 4 -14 10 0
10 -84 52 -130 65 -21 6 -171 77 -220 104 -8 5 -28 14 -45 21 -16 7 -37 16
-47 21 -9 4 -30 4 -47 -1 -26 -7 -33 -5 -41 10 -7 12 -27 20 -62 25 -29 4 -60
9 -69 10 -14 3 -76 -4 -186 -20 -62 -9 -278 -91 -334 -126 -25 -16 -51 -29
-58 -29 -6 0 -30 -9 -51 -20 -22 -11 -40 -16 -40 -10 0 5 -11 33 -24 62 -25
56 -38 87 -41 103 -11 48 -116 224 -167 280 -16 17 -28 33 -28 37 0 12 -99 80
-109 74 -5 -3 -14 1 -21 8 -14 17 -47 17 -62 -1z m1247 -478 c-6 -11 -11 -27
-10 -35 1 -8 3 -21 3 -27 3 -18 31 -16 38 2 7 17 74 21 74 4 0 -5 4 -8 9 -4 5
3 15 0 23 -7 7 -7 38 -24 68 -37 30 -13 87 -39 125 -57 39 -17 81 -35 95 -39
28 -9 125 -68 134 -83 6 -9 -24 -38 -85 -84 -69 -50 -169 -155 -169 -176 0
-26 25 -52 51 -52 11 0 59 39 112 93 161 160 164 162 192 147 27 -14 37 -32
27 -47 -9 -14 -85 -61 -153 -94 -67 -34 -80 -65 -45 -106 22 -25 22 -25 57 -8
19 10 50 31 69 46 34 27 82 57 128 81 29 14 38 4 92 -100 19 -37 37 -69 40
-72 14 -14 40 -80 45 -115 4 -22 13 -58 20 -80 7 -22 19 -60 26 -85 7 -25 16
-50 20 -55 5 -6 12 -35 18 -65 5 -30 19 -100 31 -155 20 -89 21 -117 15 -245
-9 -193 -8 -183 -49 -355 -52 -215 -67 -266 -90 -305 -11 -19 -19 -36 -18 -38
2 -1 -8 -26 -21 -55 -14 -29 -30 -69 -38 -90 -7 -20 -16 -37 -20 -37 -4 0 -10
-12 -14 -27 -3 -15 -10 -30 -14 -33 -3 -3 -21 -35 -39 -71 -17 -36 -45 -81
-61 -100 -17 -19 -40 -51 -53 -73 -13 -21 -31 -47 -40 -57 -10 -11 -17 -21
-15 -23 5 -10 -174 -186 -190 -186 -4 0 -44 -34 -88 -75 -44 -41 -83 -75 -87
-75 -4 0 -24 -12 -45 -26 -69 -47 -219 -103 -298 -111 -27 -3 -57 -9 -65 -13
-9 -5 -38 -4 -65 1 -28 5 -75 12 -105 15 -124 12 -240 43 -308 81 -37 20 -69
38 -72 38 -7 0 -35 23 -83 68 -21 20 -41 37 -43 37 -12 0 -164 147 -164 159 0
4 -22 33 -49 64 -92 105 -178 266 -197 370 -3 15 -12 43 -20 62 -8 19 -15 38
-15 42 0 5 -5 14 -11 21 -6 6 -7 12 -3 12 4 0 3 6 -3 13 -11 14 -21 73 -23
132 -1 22 -5 63 -10 90 -10 54 -19 401 -11 409 2 3 6 39 8 80 1 42 7 99 13
128 5 29 15 87 21 128 6 41 20 116 31 167 11 51 22 98 23 105 5 30 38 118 44
118 4 0 15 19 26 43 10 23 22 49 27 57 17 32 69 139 69 144 0 2 16 32 36 65
34 56 54 70 54 36 0 -24 49 -65 78 -65 42 0 55 30 32 71 -10 19 -29 53 -41 77
l-23 43 72 71 c61 60 72 68 78 52 3 -11 17 -49 31 -86 22 -56 30 -68 49 -68
33 0 54 10 54 26 0 8 4 14 9 14 4 0 6 11 3 25 -2 14 -7 25 -11 25 -18 0 -68
137 -55 150 28 26 260 134 342 159 146 45 177 50 303 48 113 -2 116 -3 104
-22z m-1525 -1061 c22 -9 40 -20 40 -26 0 -5 15 -24 34 -41 33 -32 33 -32 25
-92 -5 -33 -11 -71 -15 -85 -27 -111 -39 -290 -36 -512 3 -179 4 -178 -72
-135 -52 29 -80 78 -83 147 -8 137 -12 202 -22 305 -6 61 -13 163 -16 228 -5
135 8 187 54 211 35 19 44 19 91 0z m2845 -308 c46 -19 53 -52 31 -135 -10
-37 -19 -75 -20 -86 -2 -11 -15 -61 -30 -111 -14 -50 -28 -101 -31 -113 -2
-12 -11 -36 -20 -53 -8 -17 -15 -39 -15 -49 0 -9 -9 -39 -21 -66 -11 -26 -23
-57 -25 -67 -8 -43 -108 -186 -130 -186 -4 0 -37 19 -62 36 -2 1 5 29 16 61
33 93 60 194 67 246 3 26 10 57 15 70 18 43 40 144 45 214 3 39 8 81 10 93 2
11 5 47 6 80 2 55 4 60 25 60 13 0 26 5 29 10 9 15 70 12 110 -4z"/>
<path d="M1537 2484 c-16 -19 -35 -34 -42 -34 -7 0 -15 -4 -17 -8 -1 -5 -41
-31 -88 -57 -47 -26 -110 -65 -140 -85 -30 -21 -64 -40 -75 -44 -11 -3 -26
-18 -32 -33 -11 -23 -10 -29 13 -50 31 -28 44 -29 72 -3 12 11 25 20 29 20 5
0 16 8 25 18 34 36 66 62 89 71 14 5 62 34 108 65 l85 56 29 -27 c16 -16 57
-64 90 -108 34 -44 65 -81 69 -83 4 -2 8 -14 8 -26 0 -12 9 -32 20 -44 22 -23
50 -29 50 -11 0 5 4 8 9 4 13 -7 31 27 31 57 0 30 -26 71 -90 138 -29 30 -77
90 -107 133 -31 43 -60 76 -67 74 -6 -2 -18 -1 -26 3 -10 5 -24 -4 -43 -26z"/>
<path d="M2580 2442 c-8 -3 -53 -44 -100 -92 -87 -88 -167 -150 -194 -150 -17
0 -30 -37 -24 -67 2 -10 18 -23 38 -29 l35 -12 114 114 c63 63 118 114 123
114 16 0 68 -63 100 -120 61 -108 97 -150 128 -150 36 0 60 24 60 59 0 29 -27
61 -51 61 -8 0 -23 19 -33 43 -10 23 -29 56 -42 74 -13 17 -24 35 -24 40 0 4
-11 20 -25 35 -14 15 -25 30 -25 33 0 10 -34 41 -50 47 -8 3 -22 3 -30 0z"/>
<path d="M1471 2168 c-45 -22 -77 -50 -98 -86 -14 -23 -8 -95 8 -100 5 -2 9
-10 9 -17 0 -17 61 -45 99 -45 39 0 96 49 111 96 10 29 9 44 -6 87 -32 92 -49
102 -123 65z"/>
<path d="M2458 2063 c-8 -10 -23 -41 -33 -70 -18 -50 -18 -53 -1 -92 34 -74
141 -69 182 10 25 50 15 138 -20 161 -23 16 -112 9 -128 -9z"/>
<path d="M1815 1590 c-10 -17 -3 -210 8 -210 4 0 7 -9 7 -20 0 -28 51 -76 91
-84 61 -12 93 -7 117 19 13 14 29 25 37 25 17 0 86 80 79 91 -2 4 6 15 20 24
14 9 24 24 24 33 0 9 2 24 6 33 4 9 -2 26 -14 42 -17 22 -27 26 -48 20 -15 -3
-31 -13 -36 -21 -4 -8 -17 -23 -27 -33 -11 -11 -14 -19 -9 -19 19 0 10 -23
-26 -66 -26 -32 -42 -44 -62 -44 -40 1 -65 24 -60 55 3 14 2 25 -1 25 -3 0 -6
17 -5 37 2 53 -30 103 -66 103 -16 0 -32 -4 -35 -10z"/>
<path d="M1405 1535 c-3 -8 -7 -21 -9 -29 -5 -15 26 -47 59 -63 38 -18 171 1
185 26 16 30 -2 39 -79 37 -66 -1 -75 1 -88 22 -18 25 -61 30 -68 7z"/>
<path d="M2327 1413 c-42 -21 -33 -53 23 -80 57 -29 92 -29 158 2 79 37 64 82
-18 55 -35 -12 -43 -11 -87 13 -45 23 -51 24 -76 10z"/>
<path d="M1249 1247 c-23 -11 -25 -15 -17 -44 5 -18 13 -33 18 -33 4 0 14 -17
21 -37 6 -21 15 -40 18 -43 8 -6 46 -90 47 -105 1 -5 8 -27 18 -47 9 -21 16
-42 16 -47 0 -6 6 -14 14 -18 15 -9 41 -54 38 -65 -1 -5 4 -8 12 -8 7 0 31
-21 52 -47 61 -77 132 -133 168 -133 6 0 22 -6 36 -13 54 -28 221 -19 315 16
59 22 165 109 247 203 9 10 23 25 30 32 99 102 130 132 137 132 14 0 41 64 35
86 -5 20 -46 44 -74 44 -8 0 -26 -13 -40 -30 -14 -16 -30 -30 -36 -30 -6 0
-26 -17 -46 -37 -53 -58 -89 -88 -133 -112 -22 -12 -55 -31 -73 -42 -24 -16
-55 -22 -122 -26 -111 -6 -209 14 -308 62 -39 19 -74 35 -78 35 -4 0 -19 13
-34 28 -15 16 -35 32 -44 35 -20 8 -34 42 -32 78 1 16 -2 25 -9 23 -15 -6 -36
19 -70 81 -15 28 -30 53 -33 56 -15 14 -48 17 -73 6z m399 -471 c56 -29 160
-48 246 -44 47 2 82 0 78 -3 -26 -24 -165 -39 -227 -25 -62 14 -82 22 -105 43
-13 12 -28 23 -32 23 -5 0 -8 5 -8 10 0 14 16 13 48 -4z"/>
</g>
</svg>
