<?xml version="1.0" standalone="no"?>
<!DOCTYPE svg PUBLIC "-//W3C//DTD SVG 20010904//EN"
 "http://www.w3.org/TR/2001/REC-SVG-20010904/DTD/svg10.dtd">
<svg version="1.0" xmlns="http://www.w3.org/2000/svg"
 width="469.000000pt" height="457.000000pt" viewBox="0 0 469.000000 457.000000"
 preserveAspectRatio="xMidYMid meet">
<metadata>
Created by potrace 1.16, written by Peter Selinger 2001-2019
</metadata>
<g transform="translate(0.000000,457.000000) scale(0.100000,-0.100000)"
fill="#000000" stroke="none">
<path d="M1990 4331 c-8 -5 -62 -14 -120 -20 -58 -5 -123 -17 -145 -25 -61
-22 -165 -75 -165 -84 0 -4 -18 -15 -41 -25 -22 -10 -50 -28 -62 -41 -12 -14
-47 -52 -77 -87 -30 -34 -59 -67 -65 -73 -33 -37 -156 -289 -188 -386 -14 -41
-30 -100 -37 -130 -7 -30 -27 -111 -45 -180 -46 -172 -59 -281 -51 -415 9
-139 23 -206 69 -322 21 -51 37 -98 37 -103 0 -6 16 -36 35 -66 19 -30 35 -58
35 -63 0 -5 20 -33 45 -62 32 -37 43 -59 39 -72 -4 -13 4 -29 24 -51 33 -34
43 -72 42 -161 -2 -108 -29 -184 -77 -216 -99 -66 -118 -72 -303 -100 -36 -5
-80 -14 -97 -18 -24 -7 -33 -6 -33 2 0 7 -5 4 -11 -5 -5 -10 -18 -18 -29 -18
-25 0 -98 -32 -177 -78 -35 -20 -74 -42 -86 -49 -31 -17 -147 -124 -147 -135
0 -5 -16 -26 -36 -46 -31 -32 -114 -187 -114 -212 0 -5 -10 -16 -22 -24 -12
-9 -17 -16 -10 -16 7 0 11 -4 7 -9 -3 -5 0 -21 6 -35 10 -20 20 -26 44 -26 36
0 30 -8 91 132 55 129 232 313 320 334 16 4 40 14 54 23 32 22 78 42 110 48
14 3 30 6 35 7 23 6 83 16 120 20 74 8 154 25 175 36 11 6 20 8 20 5 0 -4 13
3 29 14 16 12 33 21 39 21 5 0 15 7 22 15 7 8 21 15 31 15 11 0 36 17 57 38
58 58 80 152 83 345 0 26 2 47 4 47 1 0 45 -17 96 -37 90 -36 99 -38 209 -37
63 0 131 5 150 11 19 6 48 14 64 18 l28 6 -7 -73 c-5 -40 -8 -77 -7 -83 0 -5
1 -32 3 -58 1 -26 6 -50 11 -53 4 -3 8 -14 8 -24 0 -28 42 -89 62 -90 9 0 20
-5 24 -11 4 -6 21 -9 43 -5 20 3 56 8 81 11 44 5 78 10 130 19 14 2 43 9 65
16 22 6 90 14 152 16 90 4 114 1 126 -11 9 -8 20 -15 26 -15 14 0 80 -41 149
-93 49 -37 192 -96 234 -97 10 0 41 -11 70 -25 61 -28 121 -44 193 -51 28 -2
75 -7 105 -11 59 -7 189 -5 202 3 4 3 16 -1 27 -8 15 -9 23 -9 36 2 9 7 28 14
41 15 14 0 28 5 32 11 4 5 14 9 22 9 8 0 17 2 20 5 3 3 28 23 57 43 58 42 133
130 133 157 0 9 7 31 16 48 23 47 29 278 10 362 -8 36 -17 88 -20 115 -3 28
-17 71 -30 96 -13 26 -27 62 -31 80 -4 19 -11 39 -15 44 -4 6 -17 42 -30 80
-12 39 -30 84 -39 100 -9 17 -22 50 -29 75 -7 25 -22 72 -33 105 -35 103 -61
187 -84 275 -19 75 -38 123 -55 140 -8 8 -29 43 -42 70 -18 38 -15 218 5 260
9 19 18 47 19 63 1 15 6 27 10 27 4 0 8 9 8 21 0 11 5 29 11 40 12 23 15 86 5
116 -4 12 -14 23 -24 25 -34 8 -52 -4 -62 -41 -10 -39 -56 -101 -74 -101 -6 0
-17 -13 -24 -28 -16 -37 -58 -59 -65 -33 -15 57 65 231 143 310 115 115 177
151 276 158 80 6 131 -9 177 -53 48 -45 62 -74 75 -152 22 -124 -27 -263 -139
-402 -20 -25 -44 -67 -53 -95 -10 -27 -22 -57 -26 -66 -5 -9 -6 -19 -3 -22 3
-3 7 -27 9 -53 2 -25 8 -52 12 -58 5 -6 15 -36 22 -66 13 -61 32 -110 41 -110
3 0 6 -6 6 -12 0 -7 10 -34 21 -60 12 -26 22 -49 22 -53 0 -3 23 -54 51 -113
28 -59 58 -125 66 -147 18 -47 31 -79 68 -160 42 -94 43 -98 50 -139 3 -21 11
-46 16 -55 9 -16 52 -168 69 -246 32 -143 80 -307 100 -345 13 -25 30 -63 38
-85 7 -22 17 -49 22 -60 22 -52 20 -155 -4 -155 -23 0 -34 -50 -29 -124 5 -68
4 -75 -15 -85 -11 -6 -23 -7 -26 -2 -5 8 -63 25 -77 23 -47 -7 -137 -38 -156
-54 -20 -16 -204 -55 -303 -64 -31 -3 -84 -11 -119 -18 -81 -17 -586 -15 -647
2 -50 14 -91 12 -106 -5 -6 -7 -16 -13 -22 -13 -7 0 -26 -16 -42 -36 -16 -20
-34 -41 -39 -48 -55 -62 -118 -266 -130 -422 -2 -30 -6 -58 -8 -62 -7 -11 -19
-159 -20 -227 0 -33 -4 -66 -10 -72 -6 -9 -6 -13 2 -13 6 0 11 -11 11 -24 0
-39 33 -54 68 -33 6 5 12 19 12 33 0 13 3 24 8 24 4 0 6 51 4 112 -2 62 1 136
6 163 6 28 18 93 27 145 9 52 23 115 30 140 7 25 18 63 24 85 6 22 26 58 46
79 19 22 35 42 35 46 0 3 18 14 40 24 30 13 47 15 77 8 89 -22 539 -15 733 12
19 3 55 8 80 11 25 3 65 11 90 16 25 6 63 13 84 16 22 3 60 14 85 26 100 44
184 48 264 13 18 -9 50 21 62 57 4 9 14 17 23 17 14 0 14 2 3 9 -8 5 -10 14
-6 22 5 7 8 42 8 78 0 41 5 70 13 78 22 22 33 81 30 152 -3 61 -30 140 -78
226 -7 11 -16 29 -22 40 -6 11 -15 27 -21 35 -5 8 -10 21 -12 30 -8 51 -32
149 -42 174 -6 16 -14 46 -16 68 -3 21 -12 58 -20 81 -8 23 -15 52 -15 64 0
22 -80 271 -105 328 -7 17 -30 73 -50 125 -21 52 -50 122 -65 155 -16 33 -40
87 -55 120 -65 146 -121 346 -111 398 8 45 17 67 27 67 5 0 9 4 9 9 0 6 12 29
28 53 56 88 76 128 117 228 28 68 34 162 19 268 -12 91 -99 209 -168 232 -73
23 -225 43 -239 32 -7 -5 -26 -13 -42 -16 -17 -4 -43 -19 -57 -35 -15 -16 -42
-35 -61 -44 -48 -23 -182 -169 -186 -202 0 -5 -8 -18 -16 -28 -8 -9 -15 -24
-15 -32 0 -7 -4 -16 -9 -19 -7 -5 -17 -45 -21 -88 -1 -4 -8 -30 -16 -57 -19
-66 -15 -106 16 -142 19 -23 34 -30 63 -31 22 -1 42 3 45 8 9 12 62 46 62 40
0 -3 -5 -17 -10 -31 -13 -33 -23 -275 -12 -275 4 0 14 -21 22 -47 7 -27 21
-53 29 -60 9 -7 12 -13 7 -13 -4 0 -2 -10 6 -22 21 -33 47 -104 54 -144 3 -19
12 -46 20 -62 7 -15 14 -33 14 -40 0 -7 4 -20 9 -30 14 -26 68 -173 77 -207 4
-16 17 -50 29 -75 13 -25 30 -70 40 -100 10 -30 21 -59 25 -65 15 -19 79 -220
86 -270 4 -27 8 -59 10 -70 10 -60 6 -216 -6 -263 -20 -76 -100 -163 -176
-192 -31 -11 -59 -18 -64 -15 -5 3 -10 -1 -12 -7 -4 -10 -48 -13 -179 -13
-148 0 -188 3 -269 23 -52 13 -99 27 -105 32 -5 4 -27 10 -48 14 -36 7 -157
59 -202 88 -11 7 -35 25 -53 40 -18 16 -39 28 -47 28 -8 0 -15 4 -15 8 0 13
-65 37 -135 52 -67 14 -166 14 -235 -1 -25 -6 -58 -12 -75 -15 -16 -2 -64 -13
-105 -23 -88 -21 -118 -16 -141 25 -32 58 -40 124 -22 200 8 38 17 81 20 96 3
17 15 31 33 38 30 13 110 92 110 109 0 6 4 11 8 11 5 0 21 18 38 40 16 22 40
54 54 71 26 32 86 174 69 163 -5 -3 -9 0 -9 5 0 6 3 11 8 11 12 0 40 70 58
145 9 39 21 78 25 87 15 28 27 106 34 223 4 61 8 111 10 113 1 2 -3 34 -11 71
-7 38 -16 102 -19 142 -7 76 -92 396 -122 459 -9 19 -24 51 -33 70 -10 19 -21
46 -25 60 -4 14 -13 32 -19 40 -7 8 -30 56 -51 105 -22 50 -42 92 -45 95 -3 3
-18 25 -32 50 -30 52 -63 85 -95 95 -13 3 -23 11 -23 17 0 10 -29 37 -40 37
-3 0 -12 -4 -20 -8z m24 -151 c27 0 45 -12 59 -38 7 -11 27 -41 45 -67 17 -25
32 -49 32 -52 0 -13 46 -100 67 -126 13 -16 23 -37 23 -48 0 -11 11 -37 25
-59 23 -36 85 -217 128 -370 19 -68 39 -253 41 -385 2 -81 -3 -121 -26 -210
-15 -60 -28 -119 -28 -130 0 -11 -32 -85 -72 -165 -69 -137 -79 -151 -170
-242 -106 -105 -135 -125 -206 -138 -26 -5 -67 -14 -92 -20 -128 -32 -280 -5
-405 73 -91 57 -135 91 -135 106 0 6 -4 11 -10 11 -5 0 -10 5 -10 10 0 6 -15
32 -33 58 -33 47 -52 85 -77 152 -7 19 -23 58 -35 85 -13 28 -26 73 -29 100
-4 28 -11 75 -17 105 -12 59 -6 229 11 308 6 26 20 79 31 117 11 39 27 95 35
125 9 30 20 73 26 95 31 113 89 263 118 305 42 60 100 152 100 159 0 23 176
176 245 214 56 31 160 63 210 66 28 2 51 4 53 6 2 2 20 -8 39 -21 20 -13 45
-24 57 -24z"/>
<path d="M1575 2680 c-33 -4 -81 -15 -107 -23 -27 -8 -48 -12 -48 -9 -1 18
-20 -26 -20 -44 0 -41 21 -46 105 -24 91 24 186 36 212 25 10 -4 27 -9 39 -10
11 -2 41 -15 67 -29 39 -22 50 -24 71 -15 32 15 42 55 20 80 -9 10 -19 18 -23
17 -3 -1 -18 4 -34 10 -64 27 -181 36 -282 22z"/>
</g>
</svg>
