<?xml version="1.0" standalone="no"?>
<!DOCTYPE svg PUBLIC "-//W3C//DTD SVG 20010904//EN"
 "http://www.w3.org/TR/2001/REC-SVG-20010904/DTD/svg10.dtd">
<svg version="1.0" xmlns="http://www.w3.org/2000/svg"
 width="463.000000pt" height="427.000000pt" viewBox="0 0 463.000000 427.000000"
 preserveAspectRatio="xMidYMid meet">
<metadata>
Created by potrace 1.16, written by Peter Selinger 2001-2019
</metadata>
<g transform="translate(0.000000,427.000000) scale(0.100000,-0.100000)"
fill="#000000" stroke="none">
<path d="M2239 4212 c-11 -17 -17 -18 -42 -9 -19 6 -67 7 -131 2 -55 -4 -119
-9 -141 -10 -172 -12 -287 -33 -309 -55 -5 -5 -16 -10 -23 -10 -7 0 -30 -11
-51 -24 -20 -12 -48 -27 -62 -31 -14 -4 -39 -18 -56 -31 -17 -13 -35 -24 -40
-24 -16 0 -130 -103 -341 -307 -63 -60 -113 -124 -113 -143 0 -6 -4 -10 -8
-10 -5 0 -15 -12 -23 -27 -8 -16 -16 -30 -20 -33 -3 -3 -25 -52 -48 -110 -24
-58 -47 -107 -52 -110 -5 -3 -10 -15 -12 -27 -2 -12 -10 -36 -19 -55 -21 -43
-58 -191 -74 -297 -7 -46 -15 -90 -18 -98 -22 -57 -25 -605 -3 -640 3 -4 10
-42 16 -83 15 -100 14 -98 35 -155 24 -64 143 -305 162 -326 8 -8 14 -20 14
-26 0 -6 5 -13 10 -15 23 -7 -254 -291 -304 -312 -20 -8 -36 -19 -36 -24 0 -5
-16 -30 -35 -55 -41 -53 -42 -65 -15 -95 28 -30 64 -28 90 6 35 45 371 382
381 382 5 0 9 -4 9 -9 0 -11 116 -127 147 -148 12 -8 19 -21 16 -29 -3 -8 -1
-14 5 -14 6 0 12 6 15 13 2 6 8 9 12 4 5 -4 2 -19 -6 -34 -12 -23 -119 -170
-149 -206 -6 -7 -33 -46 -60 -87 -27 -41 -61 -88 -77 -105 -15 -16 -26 -30
-23 -30 5 0 -15 -24 -72 -88 -41 -46 -46 -71 -22 -105 15 -22 64 -31 64 -12 0
6 6 10 13 10 14 0 36 24 55 61 12 23 49 69 95 119 24 26 72 103 103 163 16 32
48 76 71 97 22 21 39 41 37 43 -3 3 9 20 26 38 16 19 33 42 36 51 7 24 31 23
39 -2 3 -11 14 -20 24 -20 10 0 31 -11 46 -24 15 -13 40 -30 54 -37 14 -6 46
-22 71 -34 45 -23 113 -40 138 -36 10 2 11 -3 5 -16 -10 -20 -10 -27 1 -130 4
-40 6 -75 5 -77 -2 -2 5 -13 15 -25 11 -12 16 -21 11 -21 -7 0 44 -67 87 -114
10 -11 18 -23 18 -28 0 -4 7 -8 15 -8 8 0 19 -9 25 -20 6 -11 15 -20 21 -20 5
0 22 -13 38 -29 26 -27 45 -40 118 -79 16 -9 22 -19 18 -29 -4 -13 -3 -14 10
-3 28 23 17 -14 -18 -61 -18 -24 -47 -69 -65 -99 -33 -59 -73 -100 -97 -100
-11 0 -12 -5 -5 -25 6 -16 6 -25 0 -25 -6 0 -5 -8 2 -19 7 -11 14 -19 17 -19
4 1 14 -2 24 -7 24 -10 75 13 83 39 4 11 19 39 33 61 15 22 35 57 46 78 11 20
23 37 27 37 5 0 8 5 8 11 0 7 6 17 14 23 8 6 29 38 47 71 66 122 82 150 88
155 3 3 7 15 8 27 4 38 37 103 52 103 11 0 12 3 4 11 -11 11 -10 14 30 109 6
14 12 35 13 47 2 11 12 43 23 70 10 26 27 75 36 108 9 33 23 78 31 100 7 22
18 67 24 100 5 33 14 80 20 105 5 25 12 86 16 135 3 50 8 92 10 94 2 2 -1 9
-6 16 -7 8 -2 19 15 35 14 13 25 28 25 34 0 6 12 24 28 41 15 16 32 43 37 59
11 31 35 48 35 23 0 -7 11 -27 25 -43 14 -16 28 -37 31 -46 2 -9 25 -28 49
-43 25 -14 45 -30 45 -35 0 -6 6 -10 13 -10 13 0 58 -41 97 -86 14 -17 17
-116 6 -204 -13 -105 -17 -125 -26 -134 -6 -6 -10 -24 -10 -40 0 -41 -29 -197
-41 -218 -5 -10 -9 -26 -9 -35 0 -10 -6 -30 -14 -45 -11 -20 -11 -28 -3 -32 8
-3 9 -7 2 -13 -13 -10 -15 -22 -40 -188 -7 -47 -33 -189 -42 -225 -9 -38 -10
-43 -16 -75 -9 -47 -34 -131 -44 -149 -5 -9 -7 -30 -5 -46 3 -22 11 -30 31
-35 47 -10 79 9 86 52 4 21 13 70 21 108 8 39 17 84 20 100 9 55 38 150 49
161 5 6 28 13 50 17 22 4 47 14 55 24 9 10 22 19 30 21 20 5 68 51 75 73 3 10
24 26 45 36 22 10 42 26 46 37 3 10 30 42 58 70 29 28 68 76 87 106 20 30 48
75 63 98 31 50 57 117 49 126 -4 3 -2 6 4 6 18 0 34 60 39 149 3 46 10 95 15
108 5 14 7 62 4 107 -5 69 -3 87 14 121 12 21 21 45 21 51 0 7 5 25 11 41 6
15 13 46 15 68 2 22 10 78 19 125 15 84 27 163 28 188 1 18 13 15 34 -10 10
-13 46 -38 81 -55 69 -37 92 -55 212 -165 10 -9 42 -32 72 -51 29 -19 67 -46
83 -60 17 -15 55 -48 85 -74 30 -27 67 -58 81 -71 25 -22 29 -22 62 -9 19 8
37 19 41 25 7 12 -22 72 -36 72 -6 0 -21 10 -34 22 -42 41 -78 73 -95 83 -77
46 -226 156 -279 205 -36 33 -73 63 -82 66 -10 3 -18 10 -18 15 0 5 -7 9 -16
9 -17 0 -120 70 -161 109 -19 18 -21 28 -16 93 3 40 7 75 9 77 3 3 13 -4 69
-54 22 -20 63 -47 90 -61 88 -45 118 -65 179 -117 11 -10 34 -28 50 -40 15
-12 39 -34 53 -48 44 -48 94 -41 98 14 2 20 -37 63 -133 147 -36 32 -139 100
-151 100 -5 0 -11 3 -13 8 -1 4 -25 18 -51 31 -26 13 -65 42 -86 63 -21 21
-42 38 -46 38 -3 0 -13 6 -21 14 -7 8 -18 16 -23 18 -5 1 -13 54 -16 117 -3
63 -8 117 -9 120 -2 3 -7 48 -10 100 -4 52 -11 112 -16 135 -5 23 -11 55 -14
71 -11 61 -15 73 -24 91 -6 11 -18 42 -27 69 -9 28 -20 59 -25 70 -5 11 -11
49 -14 84 -3 35 -10 69 -15 75 -5 6 -23 51 -40 100 -17 49 -38 100 -48 114
-10 13 -25 35 -34 48 -8 13 -25 32 -37 42 -12 11 -22 23 -22 27 0 9 -77 98
-134 155 -69 69 -132 117 -170 130 -22 7 -53 21 -70 31 -31 18 -99 37 -166 45
-19 3 -60 13 -90 23 -30 11 -100 26 -155 36 -147 24 -169 31 -180 57 -13 30
-50 35 -66 10z m-3 -120 c17 -8 79 -22 124 -27 23 -2 103 -20 225 -50 61 -15
126 -29 145 -31 52 -7 200 -64 238 -92 18 -13 52 -42 75 -63 23 -21 45 -39 49
-39 4 0 9 -9 13 -20 3 -11 20 -34 37 -52 16 -18 38 -42 48 -53 40 -43 109
-159 130 -218 12 -34 26 -70 31 -79 5 -10 9 -26 9 -36 0 -10 5 -23 11 -29 6
-6 11 -32 11 -57 -1 -25 3 -46 8 -46 5 0 7 -6 4 -14 -3 -8 4 -36 16 -63 12
-26 28 -77 36 -113 8 -36 17 -74 19 -85 8 -32 14 -77 20 -130 5 -48 7 -68 20
-217 4 -38 3 -68 -1 -68 -16 0 -94 42 -94 51 0 5 -5 9 -10 9 -6 0 -29 9 -53
19 -37 17 -88 32 -168 48 -29 5 -59 -18 -59 -47 0 -39 32 -61 95 -67 56 -4
193 -56 235 -88 8 -7 23 -15 33 -18 17 -6 21 -28 20 -112 -1 -70 0 -69 -32
-46 -16 12 -34 21 -40 21 -6 0 -43 15 -82 34 -59 28 -75 32 -90 23 -11 -7 -19
-19 -19 -27 0 -21 45 -82 53 -73 4 3 15 -1 24 -10 10 -8 30 -19 46 -22 15 -4
30 -11 33 -16 3 -5 14 -9 25 -9 10 0 19 -4 19 -8 0 -5 11 -15 25 -22 24 -13
35 -57 18 -74 -4 -3 -8 -37 -9 -74 -2 -37 -8 -81 -14 -97 -7 -17 -14 -50 -17
-75 -2 -24 -5 -46 -7 -47 -2 -2 -13 22 -24 52 -12 31 -34 71 -48 90 -15 19
-24 35 -20 35 7 0 -61 100 -78 115 -18 15 -54 77 -58 100 -3 20 -18 42 -50 76
-10 11 -30 41 -45 69 -15 27 -30 50 -35 50 -4 0 -5 6 -2 13 2 7 -4 22 -16 32
-11 10 -20 26 -20 37 0 10 -4 18 -9 18 -4 0 -13 31 -20 69 -6 38 -24 105 -41
148 -16 42 -30 83 -30 89 0 7 -4 14 -8 16 -4 2 -30 34 -58 73 -61 87 -73 99
-104 104 -14 1 -33 7 -43 12 -9 6 -22 7 -27 4 -5 -3 -16 5 -25 19 -19 29 -58
41 -85 26 -26 -14 -20 -42 32 -140 37 -69 40 -80 35 -133 -3 -38 -12 -65 -24
-77 -10 -11 -24 -26 -31 -35 -11 -13 -17 -13 -35 -3 -27 15 -69 17 -79 3 -5
-6 -8 -3 -8 6 0 9 -6 19 -14 22 -8 3 -27 28 -42 56 -31 55 -40 59 -101 53 -29
-3 -43 -9 -43 -19 0 -7 -11 -25 -25 -38 -13 -14 -22 -25 -19 -25 3 0 -2 -7
-10 -16 -9 -8 -16 -23 -16 -33 0 -10 -11 -35 -25 -55 -14 -20 -25 -39 -25 -41
0 -2 -5 -16 -12 -32 -7 -15 -13 -32 -14 -38 -1 -5 -3 -12 -4 -15 -4 -11 -8
-58 -10 -120 -2 -36 -7 -76 -13 -90 -5 -14 -11 -40 -13 -58 -3 -18 -13 -49
-23 -70 -11 -20 -29 -58 -40 -84 -12 -27 -25 -48 -30 -48 -5 0 -19 -21 -30
-46 -12 -25 -34 -65 -49 -88 -14 -22 -35 -59 -45 -81 -10 -22 -29 -54 -43 -72
-13 -17 -24 -36 -24 -41 0 -6 -4 -12 -10 -14 -19 -6 -75 -170 -85 -249 -4 -30
-9 -58 -12 -62 -3 -5 -7 -23 -9 -40 -3 -18 -8 -39 -11 -47 -3 -8 -7 -31 -9
-50 -4 -40 -26 -60 -65 -60 -40 0 -117 37 -150 72 -9 10 -21 18 -27 18 -6 0
-17 6 -24 13 -7 7 -25 20 -41 30 l-27 18 23 32 c14 18 29 46 34 62 6 17 28 49
49 71 56 60 88 97 106 122 46 66 134 161 197 212 59 48 81 72 76 80 -3 5 2 10
10 14 27 10 17 43 -17 57 -51 21 -57 20 -91 -18 -83 -91 -108 -114 -117 -108
-6 3 -10 0 -10 -7 0 -8 -9 -20 -20 -28 -11 -8 -20 -20 -20 -26 0 -14 -87 -104
-101 -104 -5 0 -9 -7 -9 -15 0 -8 -4 -15 -9 -15 -4 0 -20 -17 -34 -37 -13 -21
-45 -60 -70 -87 -29 -31 -47 -61 -50 -83 -3 -19 -11 -41 -18 -49 -15 -18 -45
-18 -53 1 -3 8 -12 15 -19 15 -16 0 -147 124 -147 139 0 15 114 126 205 201
44 36 85 70 90 77 20 23 148 113 162 113 7 0 26 12 41 27 39 40 137 113 150
113 7 0 12 4 12 9 0 9 50 42 105 70 17 9 35 20 41 26 6 5 27 19 47 30 20 10
44 34 54 53 18 33 18 34 -6 53 -33 27 -80 21 -111 -13 -13 -15 -32 -28 -42
-28 -9 0 -20 -4 -23 -10 -3 -5 -30 -26 -60 -46 -30 -20 -55 -40 -55 -44 0 -5
-9 -12 -20 -15 -11 -3 -46 -28 -77 -55 -32 -27 -87 -64 -123 -82 -36 -18 -71
-41 -78 -50 -7 -10 -20 -18 -28 -18 -8 0 -14 -4 -14 -10 0 -5 -19 -22 -43 -39
-41 -28 -99 -80 -232 -212 -62 -61 -75 -69 -75 -46 0 8 -8 21 -18 30 -15 14
-106 187 -132 252 -55 137 -93 346 -92 515 0 69 16 286 27 370 10 72 26 166
36 205 6 22 14 61 19 86 9 47 21 74 53 118 9 13 17 30 17 37 0 7 4 23 9 36 5
13 9 26 9 31 1 4 8 20 15 35 8 15 21 41 28 57 18 39 79 136 97 154 7 8 20 24
29 37 8 13 22 24 29 24 8 0 14 3 14 8 0 12 52 66 93 96 20 16 37 35 37 42 0 8
6 14 14 14 8 0 18 9 21 20 3 11 9 20 13 20 4 0 18 10 32 23 74 66 139 117 151
117 8 0 25 9 39 20 14 11 33 20 43 20 17 0 75 27 87 40 5 6 64 25 120 38 19 4
67 9 107 11 39 1 84 6 100 11 36 11 245 5 269 -8z m594 -1348 c0 -7 4 -14 8
-16 12 -4 60 -135 67 -183 11 -74 44 -167 66 -185 4 -3 18 -28 33 -56 14 -28
35 -60 46 -72 11 -12 20 -24 20 -27 0 -5 39 -64 50 -75 3 -3 12 -18 20 -35 8
-16 17 -32 20 -35 15 -13 91 -135 106 -170 10 -22 21 -40 26 -40 4 0 8 -9 8
-20 0 -11 3 -20 8 -20 11 0 30 -48 47 -121 16 -73 27 -268 15 -284 -4 -5 -10
-46 -12 -90 -3 -44 -12 -96 -21 -115 -9 -19 -33 -75 -53 -125 -21 -49 -41 -92
-44 -95 -4 -3 -17 -25 -30 -50 -12 -25 -41 -62 -63 -83 -38 -34 -42 -35 -48
-18 -4 10 -3 36 1 57 9 37 5 273 -5 339 -5 36 -23 93 -62 201 -28 75 -84 164
-105 164 -4 0 -8 3 -7 8 2 15 -14 52 -22 52 -5 0 -17 8 -27 18 -10 9 -29 24
-41 32 -36 24 -71 58 -71 70 0 5 -4 10 -9 10 -5 0 -12 10 -16 23 -4 12 -9 28
-11 35 -2 6 -6 20 -8 30 -3 9 -5 19 -7 22 -1 3 -3 10 -4 15 -1 6 -7 23 -13 38
-7 15 -11 45 -10 66 1 26 -6 48 -20 66 -12 15 -22 24 -22 20 0 -4 -6 -3 -13 3
-9 8 -20 7 -39 -2 -15 -8 -30 -11 -34 -8 -4 4 -5 0 -1 -10 3 -9 3 -19 -1 -23
-4 -4 -8 -23 -8 -43 -3 -88 -16 -165 -30 -188 -9 -13 -13 -24 -9 -24 3 0 -3
-13 -14 -29 -12 -16 -21 -34 -21 -40 0 -6 -7 -11 -15 -11 -8 0 -15 -6 -15 -13
0 -18 -52 -67 -71 -67 -8 0 -20 -9 -27 -20 -7 -11 -18 -20 -26 -20 -7 0 -21
-9 -31 -20 -10 -11 -26 -20 -35 -20 -10 0 -20 -7 -24 -15 -3 -8 -13 -15 -21
-15 -10 0 -13 -5 -9 -12 4 -6 0 -16 -8 -22 -28 -21 -167 -266 -150 -266 4 0 2
-4 -3 -8 -16 -11 -33 -53 -40 -97 -8 -54 -9 -58 -19 -73 -12 -20 -8 -210 6
-235 7 -12 13 -33 14 -47 2 -42 16 -100 24 -100 4 0 8 -22 8 -49 2 -60 -10
-61 -69 -8 -22 20 -44 37 -49 37 -5 0 -11 8 -14 18 -3 9 -22 28 -41 41 -19 13
-35 27 -35 32 0 5 -7 9 -16 9 -8 0 -12 5 -9 10 4 6 3 16 -2 23 -14 18 -35 96
-40 147 -14 148 -8 219 33 353 13 43 24 92 24 109 0 34 16 97 36 143 7 17 17
42 22 56 6 14 36 66 68 115 32 49 58 97 59 107 1 9 11 27 22 40 25 28 88 135
98 165 3 12 10 22 15 22 23 0 88 228 92 323 1 38 6 71 10 73 5 3 8 12 8 19 0
8 20 51 45 96 25 45 45 88 45 95 0 8 5 14 10 14 6 0 10 -4 10 -9 0 -16 61 -71
78 -71 9 0 27 -16 40 -35 20 -31 25 -34 43 -24 19 10 20 8 14 -13 -3 -13 -3
-18 2 -11 4 6 26 15 48 19 22 4 46 13 53 21 7 7 19 13 26 13 7 0 18 11 24 25
6 14 18 25 25 25 23 0 59 99 61 168 l1 64 33 -38 c17 -20 32 -43 32 -50z
m-443 -1304 c-3 -51 -11 -90 -22 -106 -9 -14 -15 -37 -12 -50 2 -14 0 -27 -5
-30 -5 -3 -7 -13 -4 -21 3 -8 0 -29 -8 -46 -8 -18 -18 -56 -21 -84 -4 -29 -10
-53 -15 -53 -4 0 -10 -18 -14 -40 -3 -22 -17 -64 -30 -92 -31 -69 -40 -91 -38
-100 1 -4 -16 -46 -38 -92 -22 -46 -40 -90 -41 -97 0 -17 -27 64 -34 106 -3
17 -11 48 -17 70 -11 42 -20 130 -19 178 2 54 33 163 67 235 19 41 34 76 34
78 0 6 85 133 102 154 11 12 103 67 117 69 2 1 1 -35 -2 -79z m619 -267 c14
-102 5 -293 -16 -331 -4 -9 -14 -38 -21 -64 -6 -27 -15 -48 -20 -48 -4 0 -12
-15 -19 -34 -6 -19 -19 -36 -31 -39 -11 -3 -18 -10 -17 -15 2 -6 -1 -12 -7
-13 -12 -5 -7 69 7 94 5 10 7 21 4 24 -3 3 -1 14 5 24 5 10 11 31 14 46 13 78
18 99 27 109 4 7 10 34 13 60 2 27 11 90 19 139 9 50 16 93 16 98 0 4 4 7 9 7
5 0 13 -26 17 -57z"/>
<path d="M3055 3256 c-38 -17 -96 -25 -215 -32 -110 -6 -132 -14 -148 -57 -10
-27 -9 -34 8 -51 18 -19 23 -19 87 -6 37 8 84 15 103 16 227 16 263 30 249 92
-11 52 -31 61 -84 38z"/>
<path d="M2041 3139 c-13 -5 -38 -16 -55 -24 -17 -7 -58 -16 -91 -19 -33 -4
-77 -10 -97 -15 -22 -5 -36 -5 -32 0 6 10 -9 12 -19 2 -4 -3 -33 -8 -64 -10
-32 -3 -64 -10 -71 -17 -23 -23 -22 -53 5 -76 23 -20 33 -21 92 -17 107 9 222
25 285 41 33 8 65 12 72 9 17 -6 54 36 54 61 0 41 -45 78 -79 65z"/>
<path d="M1005 3059 c-59 -10 -106 -42 -145 -96 -47 -65 -69 -112 -70 -148 0
-17 -5 -46 -10 -65 -6 -19 -11 -105 -11 -190 -1 -173 17 -272 58 -326 12 -17
23 -35 23 -40 0 -5 21 -31 45 -57 25 -27 45 -51 45 -55 0 -4 23 -20 51 -37 28
-16 56 -34 62 -40 7 -5 25 -11 41 -12 16 -1 36 -9 45 -17 11 -10 21 -12 34 -5
12 7 17 6 17 -2 0 -7 8 -5 20 6 46 42 14 98 -65 116 -31 7 -66 21 -78 32 -12
10 -31 27 -42 36 -41 35 -96 99 -99 113 -1 8 -9 27 -19 41 -22 34 -46 188 -40
257 3 30 4 62 4 70 -7 96 32 233 73 262 6 4 7 8 2 8 -22 0 39 43 65 46 32 4
46 -15 69 -93 12 -41 15 -43 50 -43 30 0 39 5 49 26 12 28 0 83 -26 115 -7 8
-13 20 -13 26 0 15 -58 63 -75 63 -7 0 -15 4 -17 8 -1 4 -21 5 -43 1z"/>
<path d="M1928 2543 c-10 -2 -18 -8 -18 -13 0 -4 -8 -10 -17 -13 -56 -18 -175
-75 -197 -94 -43 -38 -71 -52 -104 -55 -18 -1 -32 -8 -32 -15 0 -7 -18 -18
-40 -24 -54 -16 -72 -38 -64 -77 6 -31 37 -72 54 -72 5 0 28 17 52 38 24 20
84 57 133 82 50 24 92 47 95 50 9 10 137 70 149 70 15 0 63 29 79 49 22 26 13
46 -25 61 -49 19 -45 18 -65 13z"/>
</g>
</svg>
