<?xml version="1.0" standalone="no"?>
<!DOCTYPE svg PUBLIC "-//W3C//DTD SVG 20010904//EN"
 "http://www.w3.org/TR/2001/REC-SVG-20010904/DTD/svg10.dtd">
<svg version="1.0" xmlns="http://www.w3.org/2000/svg"
 width="481.000000pt" height="463.000000pt" viewBox="0 0 481.000000 463.000000"
 preserveAspectRatio="xMidYMid meet">
<metadata>
Created by potrace 1.16, written by Peter Selinger 2001-2019
</metadata>
<g transform="translate(0.000000,463.000000) scale(0.100000,-0.100000)"
fill="#000000" stroke="none">
<path d="M2590 4415 c-241 -39 -453 -134 -567 -256 -119 -127 -142 -155 -162
-195 -13 -25 -43 -75 -67 -112 -24 -37 -44 -73 -44 -79 0 -7 -4 -13 -10 -13
-5 0 -13 -18 -16 -40 -4 -22 -10 -38 -14 -35 -4 2 -13 -14 -20 -36 -12 -34
-17 -40 -37 -36 -13 2 -23 0 -23 -4 0 -5 -6 -9 -14 -9 -7 0 -19 -6 -25 -14
-10 -12 -61 -26 -111 -32 -8 0 -32 -9 -52 -18 -37 -16 -101 -35 -205 -61 -29
-7 -76 -27 -106 -44 -30 -17 -60 -31 -67 -31 -28 0 -48 -46 -80 -177 -18 -76
-41 -167 -52 -203 -23 -75 -22 -71 -47 -170 -46 -178 -62 -236 -67 -250 -3 -8
-5 -16 -6 -17 0 -2 -8 -33 -18 -70 -10 -38 -32 -122 -49 -188 -17 -66 -36
-128 -41 -137 -6 -10 -10 -28 -10 -42 0 -13 -7 -40 -15 -60 -9 -20 -22 -64
-30 -99 -7 -34 -18 -78 -24 -97 -5 -19 -25 -96 -44 -170 -20 -74 -42 -151 -50
-170 -8 -19 -30 -95 -48 -168 -18 -72 -36 -132 -40 -132 -5 0 -6 -6 -3 -13 2
-7 -3 -31 -12 -53 -18 -40 -19 -72 -4 -88 5 -5 6 -14 4 -21 -3 -7 3 -15 13
-18 22 -8 48 -25 81 -54 14 -13 49 -35 78 -50 30 -15 54 -31 54 -35 0 -4 5 -8
11 -8 6 0 41 -22 78 -49 36 -26 131 -92 211 -145 266 -177 586 -406 644 -460
35 -34 43 -37 103 -38 36 0 68 4 71 9 9 13 75 54 159 98 37 20 75 40 83 45 8
5 74 37 145 71 72 35 170 85 218 112 49 27 94 50 100 51 12 2 52 22 167 84
141 75 175 92 210 103 19 7 52 23 72 36 21 12 40 23 43 23 10 0 300 144 305
151 3 4 43 26 90 49 47 23 114 56 150 75 137 71 210 105 210 97 0 -4 5 1 11
11 5 9 16 17 23 17 8 0 65 26 127 58 137 69 190 92 212 92 9 0 20 6 24 12 11
18 149 89 157 81 3 -3 6 -1 6 6 0 8 7 11 15 7 8 -3 21 1 29 9 8 8 20 15 26 15
6 0 22 7 35 16 19 13 25 25 25 54 0 21 -7 43 -15 50 -8 7 -15 22 -15 34 0 11
-12 53 -26 91 -27 75 -68 226 -78 287 -5 30 -40 198 -51 243 -1 6 -6 29 -10
53 -4 23 -11 42 -16 42 -5 0 -9 14 -9 30 0 17 -6 45 -14 63 -7 18 -16 58 -20
90 -4 31 -12 59 -17 62 -5 4 -9 19 -9 35 0 27 -16 98 -71 315 -12 44 -22 89
-24 100 -2 11 -11 45 -20 75 -10 30 -18 73 -20 96 -1 22 -7 56 -13 75 -20 65
-35 124 -39 159 -2 19 -6 49 -9 65 -3 17 -8 48 -10 70 -3 25 -13 48 -28 61
-18 16 -21 25 -14 38 9 17 2 72 -10 80 -4 2 -32 7 -62 11 -30 5 -62 9 -70 10
-8 1 -42 10 -75 20 -66 21 -64 20 -118 29 -21 3 -47 11 -57 16 -10 6 -30 10
-44 10 -14 0 -28 5 -31 10 -3 6 -19 10 -36 10 -16 0 -29 4 -29 9 0 5 -9 7 -20
4 -15 -4 -21 1 -26 23 -4 16 -16 44 -26 63 -11 18 -17 36 -14 38 13 14 -83
161 -117 180 -12 6 -22 19 -22 28 0 11 -33 34 -95 66 -81 42 -110 51 -200 64
-58 9 -114 18 -125 20 -11 2 -58 -3 -105 -10z m175 -116 c44 -6 91 -13 104
-16 30 -5 124 -52 133 -67 4 -6 8 -7 8 -2 0 16 71 -57 86 -89 7 -16 18 -37 22
-45 42 -72 79 -170 78 -209 -1 -13 -9 -29 -19 -35 -10 -6 -34 -26 -54 -43 -29
-28 -42 -33 -82 -33 -45 0 -51 3 -84 42 -20 24 -33 46 -28 51 10 10 2 55 -10
63 -5 3 -9 16 -9 30 0 13 -4 24 -9 24 -5 0 -12 13 -16 29 -8 36 -58 92 -100
113 -41 21 -147 38 -231 38 -98 0 -232 -43 -240 -77 -4 -16 -11 -22 -21 -19
-25 10 -154 -135 -203 -229 -17 -33 -37 -67 -44 -75 -10 -12 -39 -90 -53 -145
-1 -5 -14 -48 -28 -95 -33 -105 -45 -148 -49 -179 -4 -26 -33 -54 -47 -45 -5
3 -9 1 -9 -4 0 -11 -49 -34 -59 -28 -4 3 -27 7 -51 10 -44 5 -64 21 -55 43 2
7 0 15 -4 18 -16 9 66 270 96 306 7 8 13 18 13 21 0 3 8 23 17 44 9 22 17 41
18 44 0 3 14 25 30 50 16 25 45 70 64 100 19 30 41 61 48 68 7 7 13 16 13 20
0 4 33 41 73 84 58 62 91 86 169 127 53 28 104 51 112 51 8 0 30 8 48 19 18
10 78 26 133 36 55 9 104 18 110 19 10 3 17 2 130 -15z m-57 -278 c13 -7 32
-20 42 -29 18 -15 18 -16 2 -27 -9 -7 -89 -33 -177 -60 -88 -26 -164 -51 -170
-55 -5 -4 -37 -15 -70 -24 -33 -10 -67 -20 -75 -23 -8 -3 -20 -7 -26 -8 -6 -2
-21 -6 -33 -10 -11 -3 -21 -4 -21 0 0 31 159 198 220 230 41 22 55 24 165 22
76 -2 129 -7 143 -16z m642 -226 c44 -7 91 -25 108 -42 7 -7 25 -16 38 -19 14
-4 48 -19 76 -34 l50 -28 -36 -12 c-20 -6 -36 -16 -36 -21 0 -5 -4 -9 -9 -9
-11 0 -130 -57 -216 -104 -33 -18 -105 -56 -160 -84 -55 -29 -106 -57 -113
-63 -8 -6 -24 -12 -38 -13 -13 0 -24 -3 -24 -6 0 -5 -76 -45 -130 -69 -14 -6
-47 -24 -75 -39 -125 -69 -237 -122 -258 -122 -8 0 -17 -4 -19 -9 -7 -19 -239
-137 -260 -133 -5 1 -8 -2 -8 -6 0 -5 -26 -18 -57 -31 -32 -12 -77 -31 -101
-42 -23 -10 -48 -19 -54 -19 -6 0 -16 -7 -22 -15 -10 -14 -15 -14 -46 -1 -19
8 -50 26 -69 40 -19 14 -40 26 -47 26 -7 0 -19 6 -26 13 -7 7 -24 18 -38 24
-14 7 -52 28 -85 47 -33 20 -67 38 -75 42 -14 5 -29 13 -75 38 -11 6 -24 17
-30 24 -11 13 -35 28 -95 60 -19 10 -64 37 -99 60 -35 23 -68 42 -73 42 -4 0
-8 3 -8 8 0 6 110 45 127 44 4 0 15 5 23 13 8 7 31 16 50 20 19 4 66 16 103
27 67 20 92 19 69 -4 -7 -7 -12 -21 -12 -33 0 -11 -8 -32 -17 -45 -10 -14 -17
-26 -16 -28 10 -11 32 -62 28 -62 -2 0 3 -9 13 -21 24 -29 63 -47 114 -55 23
-3 53 -7 65 -9 47 -7 173 42 173 67 0 5 4 7 9 3 18 -10 53 38 48 68 -2 15 0
27 5 27 5 0 7 4 3 10 -5 9 28 167 42 200 7 16 10 27 12 47 1 10 144 63 172 63
6 0 25 6 42 14 18 7 52 19 77 27 25 7 50 16 55 20 8 5 167 53 215 64 8 2 30 9
49 14 19 6 38 8 42 5 5 -3 9 -2 9 3 0 4 16 13 35 19 32 10 36 9 50 -13 9 -12
13 -23 9 -23 -4 0 6 -10 22 -22 16 -13 41 -35 56 -50 15 -16 31 -28 35 -29 15
-1 41 -7 61 -13 28 -9 109 11 143 35 24 17 35 18 63 11 27 -8 36 -7 40 4 3 7
11 11 18 9 9 -4 14 8 15 41 2 56 11 84 21 67 4 -7 23 -15 42 -18z m419 -225
c5 -25 16 -79 24 -120 13 -66 39 -197 52 -270 2 -14 11 -56 19 -95 8 -38 19
-101 26 -140 13 -85 20 -118 58 -315 40 -205 72 -382 77 -422 3 -28 8 -50 24
-110 1 -4 4 -13 6 -20 7 -20 76 -430 73 -433 -14 -9 -105 -59 -153 -84 -33
-18 -67 -35 -75 -40 -28 -15 -85 -43 -125 -63 -22 -11 -49 -25 -60 -31 -86
-46 -301 -147 -315 -147 -6 0 -10 -4 -10 -10 0 -5 -5 -10 -11 -10 -10 0 -76
-30 -206 -94 -24 -12 -43 -24 -43 -28 0 -5 -7 -8 -15 -8 -8 0 -43 -16 -79 -35
-35 -19 -83 -42 -107 -51 -24 -10 -46 -21 -49 -24 -3 -4 -41 -21 -85 -39 -43
-17 -82 -35 -85 -39 -5 -8 -32 -21 -150 -73 -120 -55 -354 -170 -370 -184 -8
-7 -37 -20 -64 -29 -27 -9 -61 -25 -75 -34 -14 -10 -51 -26 -81 -37 -30 -10
-66 -25 -80 -32 -14 -7 -31 -13 -37 -13 -7 0 -13 -4 -13 -10 0 -5 -9 -10 -19
-10 -11 0 -26 -7 -35 -15 -18 -18 -56 -20 -56 -2 1 12 25 274 35 370 2 27 7
52 9 56 3 4 8 44 11 87 3 43 8 90 10 104 2 14 11 91 20 171 8 81 17 153 19
160 3 8 7 48 10 91 4 42 11 111 17 155 10 75 14 116 23 233 3 30 5 55 6 55 4
0 8 39 15 117 3 46 10 99 15 118 5 19 11 62 15 95 4 33 10 89 14 125 5 36 6
71 3 79 -3 7 -1 16 5 20 11 7 36 147 36 203 1 43 19 55 49 34 17 -12 28 -9
101 30 45 24 101 54 125 66 23 12 42 28 42 35 0 7 7 13 17 13 18 0 115 45 155
72 14 10 30 18 36 18 8 0 58 26 167 87 11 7 55 28 98 49 42 21 77 41 77 46 0
4 7 8 15 8 16 0 87 31 95 42 8 10 112 49 118 44 2 -3 17 3 32 14 16 11 31 20
34 20 4 0 28 15 55 33 26 19 75 44 107 57 33 13 73 33 90 46 17 13 34 21 37
18 3 -3 23 6 46 20 22 14 43 26 46 26 12 0 121 54 150 74 17 12 33 21 37 21 3
0 10 3 14 8 12 12 23 -6 33 -53z m-2586 -362 c40 -21 62 -32 92 -47 17 -8 39
-23 49 -33 11 -10 29 -21 40 -24 12 -4 23 -10 26 -13 7 -9 58 -42 100 -64 19
-11 49 -30 67 -43 17 -13 34 -24 37 -24 4 0 39 -21 79 -47 86 -55 129 -82 180
-112 20 -13 35 -26 33 -30 -3 -4 -7 -58 -11 -121 -3 -62 -8 -116 -10 -119 -1
-3 -6 -37 -9 -76 -6 -62 -13 -118 -21 -165 -1 -8 -6 -44 -9 -80 -4 -36 -11
-96 -16 -135 -5 -38 -12 -95 -15 -125 -2 -30 -7 -71 -10 -90 -2 -19 -11 -93
-19 -165 -17 -148 -34 -284 -41 -335 -3 -19 -10 -82 -15 -140 -4 -58 -11 -112
-14 -120 -2 -8 -7 -40 -11 -70 -12 -118 -16 -151 -40 -339 -14 -107 -27 -196
-29 -199 -6 -6 -115 57 -141 80 -11 11 -40 31 -65 45 -24 15 -49 30 -55 35
-39 33 -239 178 -246 178 -5 0 -47 29 -93 65 -46 36 -88 65 -93 65 -4 0 -34
22 -66 49 -32 27 -71 55 -85 62 -15 8 -32 19 -38 24 -7 6 -35 28 -63 50 -45
35 -57 56 -52 88 1 4 3 22 5 40 3 18 5 32 6 32 1 0 3 11 6 24 2 14 9 30 14 36
6 7 12 25 14 41 2 16 11 54 20 84 9 30 23 86 31 123 8 38 20 77 25 87 6 10 10
29 10 42 1 13 8 41 16 63 9 22 17 51 19 65 4 33 45 192 53 205 3 5 7 16 8 25
1 8 21 87 44 175 23 88 43 167 45 175 2 8 15 58 30 110 15 52 29 106 31 120 8
43 27 105 37 117 5 7 6 16 3 21 -3 5 11 62 30 128 32 110 74 263 74 271 0 7
21 3 43 -9z"/>
<path d="M2660 2441 c-26 -7 -31 -15 -76 -116 -15 -33 -30 -62 -34 -65 -5 -3
-16 -25 -26 -50 -10 -25 -30 -65 -44 -90 -15 -25 -27 -49 -27 -53 -1 -5 -4
-12 -8 -15 -3 -4 -4 29 -2 73 6 105 -7 168 -38 185 -20 11 -26 10 -43 -6 -24
-23 -36 -60 -23 -68 6 -4 7 -37 3 -84 -3 -42 -6 -95 -5 -117 4 -347 3 -391
-13 -555 -9 -81 -5 -141 8 -157 6 -7 25 -13 44 -13 38 0 56 24 54 68 -3 51 4
392 9 456 1 14 46 -31 78 -78 29 -41 90 -104 163 -165 22 -19 40 -41 40 -50 1
-20 41 -50 77 -56 19 -4 36 1 51 14 22 19 22 22 8 55 -8 19 -38 57 -67 83
-111 103 -128 120 -179 188 -29 39 -58 75 -64 80 -33 29 -37 42 -22 71 7 16
26 54 40 84 14 30 34 69 44 85 10 17 24 46 32 65 7 19 22 46 32 59 10 13 18
30 18 38 0 8 9 28 21 44 19 27 19 30 3 64 -9 19 -19 35 -23 34 -3 -1 -17 -4
-31 -8z"/>
<path d="M3186 2428 c-75 -12 -216 -99 -216 -134 0 -12 -7 -27 -15 -34 -8 -7
-15 -18 -15 -26 0 -7 -6 -19 -12 -26 -35 -36 -60 -152 -53 -238 6 -67 33 -156
51 -171 8 -6 14 -18 14 -25 0 -8 5 -14 10 -14 6 0 10 -6 10 -13 0 -13 40 -37
95 -58 17 -6 68 -13 113 -15 72 -4 90 -2 125 16 51 27 58 36 104 129 36 75 56
139 75 244 10 50 9 60 -7 77 -25 27 -49 25 -98 -9 -23 -15 -53 -31 -67 -35
-14 -4 -34 -11 -45 -16 -11 -5 -36 -11 -55 -14 -39 -7 -60 -38 -60 -88 0 -20
5 -28 18 -28 10 0 22 -4 28 -10 12 -12 84 6 84 20 0 6 8 10 17 10 9 0 25 7 35
17 17 15 18 14 18 -17 0 -40 -59 -170 -77 -170 -7 0 -13 -5 -13 -10 0 -14
-148 -6 -183 11 -37 17 -67 68 -73 126 -3 26 -6 63 -8 82 -5 49 20 148 44 173
11 12 20 27 20 34 0 7 12 22 26 33 15 12 23 21 19 21 -4 0 -2 7 5 15 7 8 21
15 31 15 9 0 25 7 34 16 14 14 30 16 98 11 45 -4 88 -3 96 2 7 5 15 25 16 44
3 33 0 37 -33 50 -43 16 -74 17 -156 5z"/>
</g>
</svg>
