<?xml version="1.0" standalone="no"?>
<!DOCTYPE svg PUBLIC "-//W3C//DTD SVG 20010904//EN"
 "http://www.w3.org/TR/2001/REC-SVG-20010904/DTD/svg10.dtd">
<svg version="1.0" xmlns="http://www.w3.org/2000/svg"
 width="467.000000pt" height="377.000000pt" viewBox="0 0 467.000000 377.000000"
 preserveAspectRatio="xMidYMid meet">
<metadata>
Created by potrace 1.16, written by Peter Selinger 2001-2019
</metadata>
<g transform="translate(0.000000,377.000000) scale(0.100000,-0.100000)"
fill="#000000" stroke="none">
<path d="M607 3542 c-46 -2 -64 -9 -88 -29 -18 -16 -27 -33 -24 -42 7 -18 -15
-161 -25 -161 -7 0 -15 -54 -26 -167 -4 -43 -2 -55 16 -73 11 -11 25 -18 30
-15 6 4 19 -15 30 -42 11 -26 24 -55 30 -63 15 -23 45 -94 42 -102 -1 -4 9
-24 23 -44 14 -20 25 -42 25 -48 0 -6 10 -31 21 -56 12 -25 28 -61 37 -80 8
-19 18 -42 23 -50 5 -8 12 -22 15 -30 3 -8 39 -82 79 -165 39 -82 80 -172 90
-200 10 -27 25 -58 33 -67 12 -14 23 -49 36 -106 1 -8 7 -17 13 -20 6 -4 14
-18 18 -32 4 -14 19 -42 31 -62 13 -21 24 -39 24 -42 0 -2 17 -42 39 -88 21
-45 42 -94 46 -108 4 -14 13 -32 20 -40 6 -8 23 -35 36 -60 13 -25 27 -47 30
-50 4 -3 17 -30 29 -60 12 -30 40 -91 61 -134 22 -44 39 -85 39 -93 0 -7 5
-13 10 -13 6 0 10 -5 10 -10 0 -6 14 -40 30 -75 17 -35 30 -68 30 -74 0 -5 3
-11 8 -13 16 -7 108 -190 162 -323 18 -44 37 -84 41 -89 5 -6 9 -23 9 -38 0
-15 4 -28 8 -28 5 0 15 -19 21 -42 11 -36 60 -148 92 -210 5 -10 9 -23 9 -29
0 -17 43 -48 68 -49 12 0 22 4 22 9 0 16 58 33 112 33 29 0 179 -3 333 -6 154
-4 298 -7 320 -7 22 1 99 0 170 0 146 -1 173 0 335 6 103 4 438 15 515 17 17
1 64 -2 105 -6 106 -10 309 -9 418 1 51 5 97 6 103 3 17 -11 67 2 75 19 3 9 8
36 10 61 2 25 7 81 13 125 8 65 7 84 -5 102 -8 12 -14 34 -14 47 0 14 -11 49
-24 78 -41 89 -56 126 -56 137 0 6 -3 11 -8 11 -8 0 -20 26 -56 120 -22 58
-61 139 -94 195 -6 11 -29 58 -51 105 -21 47 -67 135 -103 195 -35 61 -76 142
-92 180 -33 80 -153 314 -258 503 -39 71 -188 366 -215 428 -12 27 -42 93 -67
147 -25 54 -46 100 -46 103 0 3 -16 39 -35 80 -19 41 -35 79 -35 84 0 6 -4 10
-8 10 -5 0 -21 28 -36 63 -15 34 -34 76 -43 92 -8 17 -40 75 -69 131 -29 55
-63 131 -75 168 -26 80 -44 94 -102 76 -22 -6 -83 -13 -134 -15 -51 -2 -97 -6
-102 -9 -23 -15 -140 -20 -441 -20 -179 -1 -361 2 -405 6 -106 10 -443 12
-477 3 -14 -4 -59 -2 -100 4 -40 6 -137 13 -215 15 -79 3 -147 8 -153 11 -15
9 -192 21 -263 17z m247 -117 c40 -8 118 -15 172 -15 134 1 523 -8 664 -15
278 -13 826 -13 913 -1 110 17 245 20 279 7 16 -6 34 -26 44 -48 10 -21 28
-52 41 -69 13 -17 23 -35 23 -41 0 -14 31 -77 42 -84 4 -3 38 -64 74 -135 37
-71 77 -150 90 -175 13 -26 24 -54 24 -62 0 -8 7 -20 15 -27 8 -6 14 -15 13
-18 -3 -10 14 -56 21 -62 4 -3 18 -33 30 -67 13 -35 27 -63 32 -63 5 0 8 -3 7
-7 -4 -15 25 -87 55 -137 41 -69 137 -262 137 -275 0 -6 4 -11 9 -11 5 0 14
-12 20 -27 12 -32 82 -162 129 -241 18 -29 32 -55 32 -57 0 -3 16 -38 35 -79
19 -41 35 -78 35 -81 0 -4 11 -31 25 -61 14 -30 25 -59 25 -64 0 -6 4 -10 9
-10 5 0 14 -12 20 -27 14 -36 45 -90 64 -111 22 -25 126 -251 131 -284 1 -9 8
-22 16 -30 13 -13 57 -102 80 -163 5 -11 18 -40 29 -65 11 -25 24 -61 27 -80
4 -19 13 -47 21 -62 7 -16 10 -29 6 -29 -32 -6 -70 -5 -78 2 -6 4 -30 6 -53 5
-23 -2 -45 1 -48 5 -5 9 -14 8 -104 -7 -25 -4 -49 -7 -54 -5 -14 3 -239 1
-551 -5 -148 -3 -308 -5 -355 -3 -116 3 -166 2 -225 -6 -29 -4 -100 0 -170 10
-66 8 -205 20 -310 26 -104 6 -221 13 -260 17 l-69 7 -24 60 c-28 70 -74 168
-83 175 -3 3 -13 21 -22 40 -41 92 -81 173 -127 259 -27 52 -50 100 -50 107 0
7 -11 26 -25 42 -14 17 -25 37 -25 47 0 27 -143 312 -199 395 -20 30 -33 59
-57 125 -9 28 -30 78 -46 112 -16 35 -29 66 -29 70 0 5 -10 22 -23 38 -26 36
-50 86 -47 99 1 5 -5 16 -13 25 -8 9 -26 43 -41 76 -15 33 -31 62 -35 65 -4 3
-11 16 -15 30 -4 14 -52 116 -106 226 -55 111 -99 205 -99 209 0 4 -6 21 -14
38 -7 18 -19 48 -26 67 -12 32 -114 241 -180 370 -15 30 -26 58 -24 61 7 13
126 9 198 -6z m-220 -150 c14 -30 25 -56 23 -58 -1 -1 8 -13 21 -27 12 -13 22
-30 22 -38 0 -7 20 -55 44 -106 24 -50 60 -132 80 -182 20 -51 71 -161 114
-245 43 -85 96 -194 117 -244 21 -49 44 -97 51 -106 8 -8 14 -21 14 -27 0 -7
4 -12 9 -12 5 0 12 -12 16 -27 3 -15 26 -69 51 -120 24 -51 44 -95 44 -98 0
-2 14 -33 30 -67 17 -34 30 -67 30 -74 0 -7 6 -19 13 -26 7 -7 21 -33 32 -58
11 -25 32 -67 47 -93 16 -27 35 -63 43 -80 8 -18 19 -39 24 -47 25 -38 61
-123 55 -131 -3 -5 0 -9 6 -9 6 0 29 -39 51 -87 22 -49 44 -95 49 -103 26 -43
102 -194 120 -241 12 -30 38 -88 59 -129 21 -41 47 -97 57 -124 17 -45 17 -49
1 -61 -24 -17 -21 -28 5 -20 18 6 20 4 13 -11 -4 -11 -15 -54 -23 -96 -9 -43
-19 -78 -22 -78 -4 0 -15 19 -25 43 -10 23 -27 62 -38 87 -19 44 -55 143 -60
167 -2 7 -6 15 -9 18 -5 5 -20 35 -91 185 -12 25 -25 46 -29 48 -5 2 -8 9 -8
16 0 7 -18 41 -40 75 -22 34 -44 80 -49 102 -5 22 -16 48 -25 58 -9 10 -16 20
-16 24 0 3 -17 37 -37 74 -20 37 -47 95 -59 129 -11 33 -36 83 -54 109 -43 62
-100 180 -100 205 0 11 -3 20 -7 20 -9 0 -33 49 -33 67 0 7 -3 13 -8 13 -4 0
-18 24 -31 53 -13 28 -36 77 -51 107 -15 30 -33 73 -40 95 -7 22 -16 45 -20
50 -4 6 -14 29 -21 53 -6 23 -16 42 -20 42 -4 0 -11 10 -15 23 -8 25 -109 244
-124 267 -18 28 -61 124 -67 149 -3 14 -10 32 -16 39 -5 6 -7 12 -4 12 3 0
-15 35 -39 77 -24 43 -44 85 -44 93 0 9 -4 20 -9 25 -4 6 -16 35 -27 65 -10
30 -22 59 -26 65 -4 5 -8 17 -8 27 0 10 -3 18 -7 18 -11 0 -13 89 -3 95 5 3
12 26 16 50 3 25 10 43 14 40 4 -3 19 -29 34 -60z m1397 -2704 c17 12 321 3
424 -13 60 -9 704 -23 805 -17 19 1 103 1 185 1 83 0 164 0 180 1 51 2 323 -2
490 -7 88 -3 163 -6 167 -6 8 0 2 -54 -13 -111 -8 -33 -11 -35 -45 -31 -20 3
-53 -1 -74 -8 -26 -8 -43 -9 -56 -2 -14 7 -31 5 -62 -7 -35 -14 -57 -16 -110
-9 -37 5 -100 6 -139 4 -40 -2 -75 0 -79 5 -3 5 -11 6 -17 2 -6 -4 -75 -8
-152 -9 -77 -2 -167 -6 -200 -10 -33 -5 -145 -7 -250 -7 -104 1 -226 2 -270 1
-218 -1 -433 1 -493 6 -37 4 -134 8 -216 11 -82 3 -152 7 -155 10 -2 3 1 33 8
68 8 34 16 79 18 99 4 32 8 36 22 28 11 -5 23 -5 32 1z"/>
<path d="M1285 3290 c-29 -57 -75 -100 -106 -100 -22 0 -35 9 -59 45 -48 69
-63 73 -108 28 -72 -74 -87 -97 -84 -125 3 -22 9 -28 27 -28 20 0 34 21 39 61
1 4 12 16 26 27 l25 20 46 -49 c36 -39 52 -49 78 -49 32 0 91 24 91 38 1 4 14
22 29 40 l29 33 47 -45 c39 -39 53 -46 86 -46 32 0 48 8 86 43 26 24 48 37 50
30 11 -30 68 -106 87 -113 25 -10 55 7 109 62 21 21 43 38 50 38 7 -1 21 -15
32 -32 13 -21 30 -33 49 -35 30 -4 102 28 122 55 10 14 16 12 50 -16 32 -27
47 -32 89 -32 28 0 77 7 108 15 32 8 78 15 102 15 35 0 47 5 56 21 8 17 8 23
-2 30 -7 4 -18 5 -24 1 -5 -3 -19 -8 -30 -9 -11 -2 -51 -9 -90 -16 -99 -18
-141 -9 -184 42 -43 50 -65 52 -86 8 -21 -45 -77 -67 -106 -41 -10 9 -19 23
-19 30 0 17 -39 44 -63 44 -10 0 -43 -27 -74 -59 -30 -33 -61 -57 -68 -55 -7
3 -30 39 -51 80 -20 41 -39 74 -41 74 -16 0 -42 -23 -47 -42 -6 -24 -74 -78
-98 -78 -16 0 -78 63 -97 98 -18 33 -57 29 -76 -8z"/>
<path d="M2362 3068 c-7 -7 -12 -18 -12 -25 0 -13 -29 -58 -81 -125 -35 -45
-49 -58 -62 -58 -15 0 -29 56 -29 112 0 60 -13 83 -41 72 -9 -3 -19 -22 -23
-42 -15 -97 -58 -172 -96 -172 -10 0 -18 3 -18 8 -1 25 -40 146 -54 167 -35
53 -86 23 -135 -82 -16 -32 -40 -72 -55 -87 -30 -34 -31 -39 -11 -56 25 -21
60 3 89 61 14 29 26 60 26 69 0 9 8 24 19 34 24 22 34 9 55 -74 33 -129 86
-134 173 -15 20 26 22 28 23 9 0 -11 11 -31 24 -43 40 -38 79 -18 167 86 l36
43 11 -38 c14 -45 44 -64 82 -50 14 5 51 35 84 66 34 33 60 52 63 45 12 -32
48 -64 83 -73 95 -26 228 88 192 163 -10 21 -11 21 -17 -10 -10 -45 -46 -74
-99 -80 -53 -6 -96 15 -96 47 0 11 -4 20 -9 20 -5 0 -11 9 -14 20 -8 29 -45
26 -57 -5 -11 -30 -63 -89 -103 -117 -25 -18 -30 -19 -44 -6 -8 8 -17 39 -19
69 -3 30 -7 60 -9 67 -5 15 -27 16 -43 0z"/>
<path d="M1290 3018 c-1 -20 -58 -131 -72 -140 -17 -10 -65 -10 -72 1 -3 5 1
14 9 21 17 14 10 36 -14 43 -16 4 -57 -29 -75 -60 -4 -8 6 -25 24 -43 24 -23
40 -30 72 -30 35 0 47 6 82 43 22 23 46 51 53 62 11 19 12 19 12 -6 1 -14 11
-41 24 -60 20 -29 29 -34 61 -33 59 2 116 68 116 134 0 27 -3 31 -22 28 -23
-3 -24 -6 -27 -56 -1 -20 -9 -31 -31 -41 -37 -16 -56 -4 -65 42 -18 87 -28
107 -52 107 -12 0 -23 -6 -23 -12z"/>
<path d="M1880 2703 c-8 -2 -26 -23 -39 -46 -25 -44 -80 -107 -93 -107 -4 0
-10 12 -14 28 -22 97 -25 103 -46 100 -22 -3 -27 -9 -53 -69 -18 -42 -71 -99
-91 -99 -20 0 -33 18 -68 90 -26 54 -35 65 -56 65 -34 0 -40 -47 -11 -86 12
-16 21 -32 21 -37 0 -5 14 -28 30 -50 24 -34 36 -42 61 -42 50 0 77 19 122 84
l26 40 16 -37 c9 -21 26 -43 40 -49 20 -9 28 -7 52 13 16 13 38 37 48 53 25
37 41 43 49 18 4 -10 20 -32 37 -50 37 -38 53 -34 120 33 l47 48 39 -41 c47
-49 98 -63 148 -39 30 14 54 51 42 63 -3 3 -29 5 -59 5 -63 0 -63 1 -107 57
-18 23 -37 42 -43 42 -9 0 -32 -22 -91 -88 -16 -18 -34 -32 -41 -32 -11 0 -48
69 -67 125 -2 6 -11 9 -19 8z"/>
<path d="M2968 2600 c-21 -21 -52 -46 -69 -55 -29 -15 -32 -15 -45 2 -7 10
-18 33 -24 51 -9 25 -17 32 -37 32 -16 0 -27 -7 -30 -20 -3 -11 -10 -20 -16
-20 -6 0 -7 -3 -4 -7 8 -7 -11 -33 -23 -33 -5 0 -17 16 -29 35 -25 44 -67 49
-77 11 -3 -14 -3 -29 0 -34 3 -5 -19 -12 -50 -16 -58 -7 -111 9 -106 32 3 15
-32 16 -59 2 -27 -15 -23 -41 9 -65 29 -21 76 -23 196 -9 49 6 60 4 68 -10 15
-26 63 -20 88 11 22 29 23 28 51 -19 5 -10 21 -18 36 -18 25 0 85 37 111 69
10 12 18 13 42 4 45 -17 52 -3 41 90 -2 19 -40 3 -73 -33z"/>
<path d="M1864 2273 c-22 -32 -43 -60 -48 -62 -6 -2 -20 -15 -33 -27 -13 -13
-30 -24 -37 -24 -16 0 -34 42 -38 90 -6 71 -60 46 -140 -65 -34 -47 -35 -68
-4 -89 27 -17 43 -7 38 25 -3 19 36 89 49 89 5 0 9 -7 9 -15 0 -25 28 -73 50
-85 29 -15 69 9 126 75 46 53 72 71 61 41 -3 -7 0 -19 6 -25 6 -6 7 -11 2 -11
-4 0 0 -9 10 -20 32 -35 72 -26 131 30 29 28 59 50 67 50 7 0 21 -16 30 -35 9
-20 28 -40 41 -45 30 -11 88 4 128 33 l28 21 22 -21 c31 -27 134 -39 142 -16
8 20 -7 38 -47 53 -18 7 -44 27 -59 44 l-27 31 -38 -20 c-21 -11 -48 -30 -61
-43 -29 -30 -60 -25 -81 13 -31 57 -29 56 -69 39 -20 -8 -55 -33 -77 -54 -39
-38 -77 -51 -90 -30 -3 5 -9 32 -12 60 -8 68 -30 66 -79 -7z"/>
<path d="M2696 2282 c-10 -16 3 -150 16 -171 16 -27 57 -39 68 -20 6 8 1 17
-13 24 -20 10 -22 18 -19 79 3 68 -7 96 -34 96 -7 0 -15 -4 -18 -8z"/>
<path d="M2960 2208 c-26 -44 -26 -53 8 -107 1 -3 12 6 23 18 19 20 23 21 38
7 21 -19 95 -46 128 -46 18 0 25 7 30 30 3 17 9 30 14 30 5 0 9 9 9 20 0 24
-25 26 -38 4 -14 -25 -55 -11 -106 36 -53 49 -80 51 -106 8z"/>
<path d="M2230 1986 c0 -22 -40 -106 -50 -106 -6 0 -10 -6 -10 -12 0 -7 -11
-26 -25 -42 -36 -42 -65 -31 -94 38 -13 31 -31 58 -41 61 -28 9 -57 -14 -69
-57 -7 -21 -16 -38 -20 -38 -10 0 -35 -60 -31 -75 1 -5 3 -17 4 -24 2 -8 10
-20 20 -25 20 -13 36 6 36 46 0 27 29 88 43 88 4 0 14 -18 23 -39 20 -50 60
-69 103 -51 26 10 89 78 105 113 4 8 8 7 13 -3 3 -8 21 -30 39 -47 39 -40 80
-43 121 -10 15 13 40 31 56 40 31 20 36 47 8 47 -10 0 -35 -11 -55 -25 -20
-14 -45 -25 -55 -25 -25 0 -61 42 -61 72 0 60 -12 88 -36 88 -14 0 -24 -6 -24
-14z"/>
<path d="M3077 1934 c-35 -39 -113 -97 -137 -101 -34 -6 -56 9 -85 57 -34 58
-67 68 -87 25 -7 -16 -27 -30 -59 -40 -57 -19 -77 -12 -109 40 -30 48 -62 46
-68 -5 -2 -17 9 -37 32 -62 42 -46 67 -48 151 -13 66 27 85 30 85 14 0 -29 67
-69 117 -69 38 0 106 36 143 75 13 14 27 25 32 25 4 0 15 -18 24 -40 21 -52
61 -80 113 -80 49 0 109 23 117 44 4 11 12 13 29 6 20 -8 25 -5 39 25 20 42
20 64 0 72 -20 7 -83 -26 -96 -52 -15 -28 -28 -35 -69 -35 -41 0 -73 28 -85
75 -9 36 -33 75 -46 75 -5 0 -24 -16 -41 -36z"/>
<path d="M2190 1536 c-5 -13 -12 -25 -17 -27 -4 -2 -19 -25 -32 -51 -13 -26
-34 -56 -46 -68 l-22 -21 -12 45 c-10 42 -33 76 -50 76 -26 0 -111 -49 -111
-64 0 -4 -9 -20 -21 -35 -26 -35 -22 -75 8 -79 16 -2 26 5 39 30 18 34 54 78
66 78 3 0 14 -20 23 -44 17 -44 53 -74 74 -62 15 10 91 122 91 135 0 6 5 11
10 11 6 0 10 -6 10 -13 0 -8 9 -22 20 -32 11 -10 20 -27 20 -38 0 -11 3 -17 6
-14 4 4 19 -1 34 -9 24 -15 29 -15 56 -1 16 8 48 34 69 56 22 23 43 41 48 41
4 0 13 -20 19 -45 12 -45 40 -85 58 -85 8 0 49 39 119 113 l26 28 15 -21 c37
-52 73 -90 90 -95 30 -10 87 23 112 64 30 50 58 67 58 37 0 -28 40 -83 74
-101 30 -16 37 -17 67 -4 19 7 45 25 59 39 27 28 71 60 81 60 4 0 12 -13 19
-29 32 -77 97 -94 189 -48 30 15 71 27 92 27 33 0 37 3 43 30 8 44 8 44 -19
51 -17 5 -34 -1 -62 -21 -48 -35 -104 -53 -136 -44 -30 7 -57 43 -62 82 -1 15
-3 31 -4 35 -2 12 -45 -3 -54 -19 -4 -8 -13 -14 -18 -14 -6 0 -35 -20 -63 -45
-82 -70 -115 -60 -154 45 -25 69 -47 75 -88 26 -16 -20 -42 -52 -57 -71 -16
-19 -34 -35 -41 -35 -17 0 -47 35 -80 93 -15 26 -33 47 -40 47 -8 0 -32 -25
-55 -55 -23 -30 -53 -65 -68 -79 l-26 -25 -13 24 c-7 13 -15 36 -19 52 -10 46
-30 66 -59 59 -15 -3 -26 -13 -26 -22 0 -8 -7 -17 -15 -20 -8 -4 -15 -12 -15
-19 0 -13 -58 -55 -76 -55 -14 0 -59 42 -72 67 -7 12 -12 35 -12 52 0 24 -4
31 -20 31 -12 0 -24 -10 -30 -24z"/>
<path d="M2935 1318 c-43 -30 -159 -164 -166 -192 -17 -61 42 -56 60 6 8 26
32 58 68 94 31 30 60 54 64 54 5 0 6 -19 2 -42 -5 -41 -6 -68 -4 -130 1 -32
25 -58 53 -58 25 0 100 59 158 126 25 28 48 49 53 47 4 -2 7 -16 7 -31 0 -40
35 -92 62 -92 27 0 75 30 98 60 23 31 42 17 78 -55 38 -77 56 -82 101 -27 48
56 46 53 56 105 7 31 -20 18 -45 -23 -14 -22 -29 -40 -35 -40 -5 0 -23 28 -40
62 -21 45 -38 65 -57 72 -24 8 -31 4 -81 -49 -49 -51 -58 -56 -70 -43 -10 9
-16 41 -19 89 -3 68 -5 74 -26 77 -15 2 -22 -2 -22 -12 0 -9 -3 -16 -8 -16 -4
0 -16 -17 -27 -37 -11 -21 -27 -45 -35 -54 -8 -8 -21 -24 -28 -35 -7 -10 -16
-23 -20 -29 -11 -15 -71 -45 -92 -45 -26 0 -31 44 -13 123 25 112 0 145 -72
95z"/>
<path d="M2277 1274 c-12 -13 -8 -41 9 -55 10 -8 52 -16 95 -20 53 -4 84 -11
97 -22 10 -9 26 -17 35 -17 9 0 17 -4 17 -10 0 -5 11 -12 25 -16 14 -3 25 -10
25 -15 0 -14 36 -11 47 4 7 8 6 24 -3 47 -7 19 -13 29 -13 22 -1 -10 -9 -7
-30 7 -16 12 -38 21 -49 21 -11 0 -25 7 -32 15 -12 14 -39 21 -115 29 -22 2
-54 7 -70 11 -17 3 -33 3 -38 -1z"/>
<path d="M2226 1028 c-57 -99 -82 -208 -44 -196 12 4 14 7 46 78 l20 45 6 -40
c10 -61 28 -90 58 -93 28 -3 55 18 111 86 l27 34 0 -40 c0 -71 10 -102 36
-108 32 -8 64 14 102 71 28 43 31 45 41 26 6 -11 11 -35 11 -53 0 -19 7 -44
16 -56 12 -18 19 -20 35 -12 19 11 26 46 10 52 -5 2 -11 31 -14 66 -5 66 -27
112 -53 112 -19 0 -49 -36 -84 -99 -14 -25 -30 -46 -35 -46 -6 0 -11 23 -13
50 -4 95 -11 115 -36 115 -17 0 -29 -12 -46 -46 -13 -25 -39 -59 -58 -76 -42
-36 -47 -31 -56 62 -3 36 -8 75 -12 88 -10 36 -40 27 -68 -20z"/>
<path d="M3264 1052 c-6 -4 -23 -30 -38 -57 -32 -63 -106 -137 -124 -126 -7 4
-14 21 -16 37 -2 16 -4 32 -5 37 -2 13 -39 7 -56 -9 -11 -12 -13 -20 -6 -27 6
-6 11 -19 11 -29 0 -22 51 -78 71 -78 14 0 45 28 93 83 l25 29 6 -36 c13 -68
55 -81 108 -32 25 23 26 24 43 5 24 -27 40 -24 147 25 53 25 113 48 133 52
l37 7 -7 -45 c-5 -36 -3 -49 10 -62 16 -16 18 -15 45 10 16 15 26 30 24 34 -2
4 -7 31 -10 61 -3 29 -9 57 -15 63 -11 11 -147 -27 -198 -56 -18 -10 -39 -18
-47 -18 -8 0 -15 -5 -15 -11 0 -6 -12 -9 -27 -7 -24 2 -28 8 -29 33 -1 68 -35
74 -65 11 -11 -25 -32 -52 -45 -61 -22 -14 -25 -14 -31 0 -3 9 -1 47 6 85 6
38 11 74 11 79 0 13 -20 14 -36 3z"/>
</g>
</svg>
