<?xml version="1.0" standalone="no"?>
<!DOCTYPE svg PUBLIC "-//W3C//DTD SVG 20010904//EN"
 "http://www.w3.org/TR/2001/REC-SVG-20010904/DTD/svg10.dtd">
<svg version="1.0" xmlns="http://www.w3.org/2000/svg"
 width="515.000000pt" height="403.000000pt" viewBox="0 0 515.000000 403.000000"
 preserveAspectRatio="xMidYMid meet">
<metadata>
Created by potrace 1.16, written by Peter Selinger 2001-2019
</metadata>
<g transform="translate(0.000000,403.000000) scale(0.100000,-0.100000)"
fill="#000000" stroke="none">
<path d="M2195 3631 c-11 -5 -24 -6 -28 -4 -4 3 -14 -1 -22 -7 -8 -6 -19 -9
-25 -5 -5 3 -10 -1 -10 -9 0 -9 -9 -16 -20 -16 -11 0 -20 -4 -20 -10 0 -5 -5
-10 -11 -10 -19 0 -149 -114 -149 -130 0 -6 -3 -10 -8 -10 -16 0 -65 -149 -64
-194 1 -47 23 -124 38 -137 8 -6 14 -18 14 -26 0 -15 7 -25 64 -86 64 -68 202
-103 326 -82 19 3 46 7 59 8 23 2 73 40 138 106 34 34 62 81 69 115 2 11 7 22
11 25 21 16 11 139 -20 240 -9 33 -15 43 -44 76 -7 7 -13 19 -13 25 0 6 -4 8
-10 5 -5 -3 -10 -1 -10 5 0 15 -29 44 -37 37 -3 -3 -16 5 -30 17 -14 13 -44
29 -67 35 -22 7 -54 19 -69 27 -32 16 -34 16 -62 5z"/>
<path d="M3719 3636 c-3 -3 -20 -8 -39 -11 -19 -3 -37 -9 -40 -13 -3 -4 -12
-8 -20 -10 -8 -2 -22 -10 -31 -18 -8 -8 -23 -14 -32 -14 -9 0 -49 -33 -89 -73
-91 -90 -126 -165 -123 -267 3 -71 22 -145 45 -173 8 -10 25 -31 38 -45 12
-15 25 -35 28 -44 3 -9 11 -15 19 -12 8 3 12 -1 12 -13 -1 -11 5 -18 15 -18 9
0 20 -4 24 -8 4 -4 17 -7 29 -7 11 0 25 -4 30 -9 6 -5 42 -11 81 -14 58 -4 85
0 140 18 38 13 72 21 76 18 5 -2 8 1 8 6 0 6 7 11 15 11 8 0 15 3 15 8 0 4 14
15 30 24 17 9 30 24 30 33 0 8 7 15 15 15 9 0 18 8 21 18 6 19 24 61 45 106
20 41 15 246 -5 246 -4 0 -6 8 -4 18 3 10 -1 27 -8 37 -8 10 -14 16 -14 12 0
-4 -9 2 -20 13 -11 11 -20 23 -20 27 0 17 -53 61 -68 56 -10 -4 -13 -2 -8 5 4
7 -3 14 -19 18 -14 3 -25 10 -25 16 0 5 -4 6 -10 3 -5 -3 -10 -2 -10 3 0 5
-27 16 -60 25 -67 19 -65 19 -71 13z"/>
<path d="M735 3603 c-11 -2 -29 -8 -40 -13 -11 -5 -41 -18 -66 -29 -29 -13
-64 -41 -95 -76 -47 -56 -88 -115 -79 -115 3 0 -2 -17 -11 -37 -20 -49 -25
-95 -18 -166 5 -45 15 -71 46 -118 85 -126 225 -170 412 -128 81 18 171 111
207 216 28 78 24 201 -8 272 -13 28 -28 51 -33 51 -6 0 -10 5 -10 11 0 31
-112 108 -180 124 -34 8 -101 12 -125 8z"/>
<path d="M1450 2419 c-14 -6 -40 -8 -58 -5 -32 5 -121 -20 -133 -38 -4 -5 -11
-6 -16 -3 -12 8 -127 -108 -153 -153 -53 -93 -59 -115 -55 -186 6 -98 34 -163
99 -230 12 -12 36 -38 55 -58 19 -20 40 -36 47 -36 8 0 14 -4 14 -9 0 -5 17
-12 37 -16 21 -4 42 -10 48 -13 5 -3 45 -7 87 -8 69 -3 84 1 140 28 35 18 67
31 71 30 4 -1 10 5 13 13 4 8 12 15 18 15 14 0 68 64 81 95 52 126 63 182 46
228 -5 13 -12 40 -15 59 -7 42 -26 88 -37 88 -4 0 -11 10 -15 23 -7 21 -40 57
-54 57 -14 0 -48 36 -67 70 -12 21 -27 35 -39 35 -10 0 -21 3 -24 7 -10 14
-65 18 -90 7z"/>
<path d="M2920 2382 c0 -7 -54 -33 -75 -36 -5 0 -20 -11 -33 -24 -12 -12 -27
-20 -32 -17 -6 4 -10 0 -10 -7 0 -15 -35 -48 -50 -48 -5 0 -27 -38 -49 -84
-36 -73 -41 -93 -42 -158 -1 -50 4 -85 15 -105 8 -17 13 -33 10 -35 -2 -3 2
-11 11 -18 8 -7 15 -17 15 -22 0 -23 160 -157 197 -166 142 -31 150 -31 245
18 156 78 158 80 224 238 17 41 20 88 9 143 -3 13 -7 38 -10 54 -12 67 -17 85
-26 85 -5 0 -8 3 -6 8 1 4 -8 18 -20 32 -13 13 -23 26 -23 29 0 3 -21 20 -45
36 -25 17 -45 33 -45 37 0 4 -6 5 -14 2 -8 -3 -17 0 -21 5 -3 6 -10 9 -15 6
-5 -3 -14 3 -20 14 -9 18 -19 20 -74 17 -36 -2 -69 -7 -75 -10 -5 -4 -12 -2
-16 4 -7 12 -25 13 -25 2z"/>
<path d="M4488 2369 c-2 -6 -16 -11 -31 -11 -17 0 -40 -14 -66 -38 -22 -21
-56 -51 -76 -66 -48 -37 -100 -119 -113 -179 -14 -66 -5 -158 18 -201 11 -19
20 -41 20 -50 0 -8 7 -17 15 -20 8 -4 15 -10 15 -15 0 -8 30 -38 73 -75 8 -6
23 -15 35 -18 12 -4 22 -11 22 -15 0 -5 19 -16 43 -25 55 -21 205 -16 242 8
13 9 33 16 43 16 10 0 22 3 26 8 4 4 11 7 15 7 4 0 25 17 47 37 21 21 42 38
47 38 4 0 7 9 7 19 0 11 4 21 8 23 4 2 20 39 33 83 37 114 32 175 -23 283 -24
46 -52 89 -63 94 -11 6 -22 14 -25 17 -8 10 -83 57 -102 64 -10 3 -18 10 -18
15 0 12 -93 10 -103 -3 -6 -7 -10 -6 -14 3 -6 15 -70 16 -75 1z"/>
<path d="M3692 1219 c-12 -4 -29 -6 -37 -3 -8 4 -15 1 -15 -5 0 -6 -3 -10 -7
-9 -5 0 -16 -2 -25 -5 -46 -17 -54 -20 -66 -23 -24 -5 -131 -124 -167 -186
-32 -55 -36 -68 -36 -132 0 -91 31 -210 62 -239 13 -12 33 -33 44 -47 11 -14
43 -34 70 -44 28 -10 57 -20 65 -23 8 -4 21 -5 28 -4 6 1 27 -2 45 -7 30 -9
58 -6 162 13 11 2 31 6 45 9 14 3 52 34 85 68 115 121 130 155 129 305 0 103
-2 114 -26 145 -34 44 -77 87 -117 118 -18 14 -40 32 -50 40 -38 35 -137 50
-189 29z"/>
<path d="M2138 1194 c-4 -3 -12 -7 -20 -9 -34 -8 -58 -18 -58 -24 0 -4 -9 -7
-19 -8 -10 -1 -50 -32 -89 -70 -100 -98 -127 -163 -126 -301 0 -61 5 -106 11
-110 5 -4 17 -21 26 -39 9 -17 22 -37 30 -45 7 -7 23 -27 35 -44 12 -17 36
-37 54 -44 66 -24 74 -28 113 -45 62 -27 128 -43 150 -35 11 4 23 6 28 3 4 -2
19 5 33 16 15 12 33 21 40 21 8 0 46 33 86 74 82 82 113 146 123 251 7 69 -12
182 -35 206 -8 9 -29 33 -46 55 -53 66 -87 95 -116 101 -15 3 -28 9 -28 14 0
5 -6 6 -14 3 -8 -3 -17 0 -21 5 -3 6 -11 9 -16 6 -5 -4 -9 -1 -9 6 0 6 -8 9
-19 6 -10 -2 -25 -1 -32 3 -7 5 -23 4 -36 -1 -14 -5 -23 -5 -23 1 0 11 -13 13
-22 4z"/>
<path d="M590 1178 c0 -5 -5 -6 -11 -3 -5 4 -26 -1 -46 -10 -19 -10 -42 -18
-50 -19 -8 -1 -18 -7 -21 -12 -4 -6 -28 -24 -53 -42 -44 -29 -110 -102 -135
-147 -6 -12 -15 -36 -19 -55 -10 -44 -14 -180 -5 -180 3 0 12 -17 19 -37 8
-21 19 -43 25 -49 6 -6 31 -37 56 -67 25 -31 62 -64 83 -74 20 -9 37 -20 37
-25 0 -4 3 -7 8 -6 12 2 66 -14 79 -25 22 -17 171 1 199 24 8 6 14 9 14 5 0
-16 139 82 140 98 0 5 11 24 25 42 14 18 25 37 25 43 0 6 6 11 14 11 18 0 23
28 20 130 -2 87 -4 96 -32 165 -27 69 -96 155 -124 155 -10 0 -18 5 -18 12 0
6 -3 9 -6 5 -3 -3 -15 3 -26 13 -11 10 -26 16 -33 14 -7 -3 -15 2 -18 10 -4 9
-13 16 -22 16 -8 0 -15 3 -15 8 0 4 -25 7 -55 8 -30 1 -55 -3 -55 -8z"/>
</g>
</svg>
