<?xml version="1.0" standalone="no"?>
<!DOCTYPE svg PUBLIC "-//W3C//DTD SVG 20010904//EN"
 "http://www.w3.org/TR/2001/REC-SVG-20010904/DTD/svg10.dtd">
<svg version="1.0" xmlns="http://www.w3.org/2000/svg"
 width="547.000000pt" height="431.000000pt" viewBox="0 0 547.000000 431.000000"
 preserveAspectRatio="xMidYMid meet">
<metadata>
Created by potrace 1.16, written by Peter Selinger 2001-2019
</metadata>
<g transform="translate(0.000000,431.000000) scale(0.100000,-0.100000)"
fill="#000000" stroke="none">
<path d="M2217 4145 c-23 -19 -55 -45 -72 -59 -58 -49 -120 -96 -128 -96 -9 0
-123 -77 -145 -97 -7 -7 -17 -13 -21 -13 -4 0 -16 -8 -27 -17 -10 -10 -41 -34
-67 -53 -27 -19 -70 -51 -96 -70 -53 -40 -73 -53 -116 -76 -60 -33 -192 -125
-285 -199 -52 -41 -110 -87 -128 -101 -18 -14 -30 -29 -27 -35 4 -5 1 -9 -5
-9 -28 0 -45 -34 -46 -94 -3 -139 -15 -325 -24 -376 -5 -30 -11 -78 -14 -107
-3 -28 -13 -69 -21 -90 -14 -35 -21 -40 -81 -57 -82 -24 -159 -61 -202 -98
-18 -15 -37 -28 -43 -28 -5 0 -15 -4 -22 -10 -7 -5 -38 -30 -69 -55 -32 -26
-58 -50 -58 -56 0 -5 -5 -9 -11 -9 -25 0 -118 -114 -158 -192 -38 -74 -43 -94
-51 -183 -4 -55 -7 -111 -5 -125 4 -36 16 -70 24 -70 4 0 25 -16 47 -35 21
-19 45 -35 52 -35 7 0 15 -6 18 -14 3 -8 12 -12 20 -9 7 3 17 -2 20 -11 3 -9
13 -16 21 -16 8 0 27 -8 41 -18 15 -10 35 -22 45 -25 9 -4 17 -17 17 -29 0
-13 3 -32 6 -43 7 -30 -72 -125 -105 -125 -6 0 -22 -16 -37 -35 -14 -19 -32
-35 -38 -35 -6 0 -16 -8 -22 -18 -15 -24 -34 -120 -30 -152 2 -14 4 -33 5 -42
2 -38 128 -96 201 -93 61 3 140 17 146 26 3 5 10 7 15 3 5 -3 15 -1 22 4 7 6
56 9 111 7 116 -3 135 -15 143 -88 5 -40 2 -48 -23 -69 -15 -12 -35 -30 -44
-38 -8 -8 -31 -27 -50 -41 -32 -24 -86 -76 -162 -157 -15 -15 -34 -46 -42 -68
-8 -21 -20 -52 -27 -69 -7 -16 -11 -36 -10 -42 1 -7 -2 -13 -7 -13 -19 0 10
-98 37 -124 33 -31 140 -96 159 -96 8 0 26 -8 40 -19 36 -25 92 -37 92 -20 0
8 5 5 13 -5 12 -17 25 -18 128 -13 139 7 209 19 315 52 88 27 145 36 264 39
41 1 80 5 86 9 19 11 217 48 236 43 9 -2 19 1 21 8 2 6 27 12 58 12 49 1 257
14 269 17 5 1 102 -9 180 -19 19 -2 59 -10 88 -18 28 -8 52 -11 52 -6 0 7 36
1 120 -20 61 -16 60 -16 105 -25 22 -4 54 -16 71 -26 18 -9 51 -20 75 -23 49
-6 67 -10 90 -20 9 -4 28 -8 42 -10 14 -1 32 -8 40 -14 8 -7 32 -14 53 -17 51
-6 107 -14 169 -25 47 -8 119 -7 175 3 135 25 221 87 245 178 19 70 19 115 -1
174 -17 48 -84 125 -110 125 -7 0 -18 8 -23 18 -6 11 -35 38 -66 61 -62 47
-70 74 -32 114 55 58 102 71 157 42 17 -9 30 -13 30 -11 0 3 15 -5 34 -18 43
-29 115 -53 182 -60 28 -3 64 -10 80 -16 44 -17 126 -24 277 -23 164 2 231 14
314 55 49 24 70 42 94 79 17 27 34 49 38 49 15 0 41 129 35 176 -7 57 -23 104
-35 104 -5 0 -8 3 -8 8 3 19 -3 33 -33 66 -17 20 -40 36 -50 36 -10 0 -18 4
-18 8 0 5 -27 23 -59 41 -32 19 -65 44 -72 57 -7 13 -16 24 -21 24 -5 0 -13
12 -19 27 -14 38 11 99 59 144 31 30 53 39 137 58 55 13 119 28 142 33 31 8
48 20 67 47 14 20 26 47 26 58 0 12 5 25 11 29 16 10 2 100 -23 152 -22 42
-62 74 -155 122 -26 13 -40 26 -37 35 5 13 139 82 269 139 105 46 141 134 91
220 -15 26 -31 46 -36 46 -5 0 -25 14 -44 30 -19 17 -48 32 -64 34 -16 3 -43
11 -58 19 -16 8 -59 17 -96 20 -38 4 -76 11 -87 16 -11 6 -75 16 -143 22 -67
6 -130 13 -138 17 -8 3 -18 5 -22 4 -4 -1 -20 3 -35 10 -15 6 -35 12 -43 14
-8 2 -19 9 -25 17 -5 8 -20 17 -33 21 -29 10 -38 48 -21 99 14 43 16 48 18 68
0 7 17 -5 36 -25 27 -28 41 -37 62 -34 23 2 29 10 36 43 4 22 5 58 2 80 -3 22
-8 65 -11 96 -5 64 -74 248 -109 289 -7 8 -16 26 -20 40 -4 14 -18 39 -31 57
-25 33 -30 58 -16 67 8 5 9 50 2 66 -1 3 -2 8 -1 13 1 6 -31 23 -59 32 -92 28
-187 59 -195 63 -13 8 -27 11 -110 22 -38 5 -97 17 -130 26 -33 8 -103 25
-155 37 -52 11 -97 24 -100 27 -13 16 -147 46 -250 56 -30 3 -56 9 -58 14 -2
4 -49 22 -105 40 -56 17 -109 35 -117 39 -9 5 -39 12 -68 16 -29 4 -55 11 -58
16 -3 5 -9 7 -13 5 -4 -3 -23 -1 -42 4 -31 8 -153 27 -239 36 -73 8 -253 58
-279 78 -24 18 -41 15 -84 -19z m159 -111 c7 3 16 1 19 -3 2 -5 26 -12 52 -16
27 -3 116 -20 198 -37 83 -16 161 -32 175 -34 72 -14 238 -60 300 -84 53 -20
67 -24 136 -34 17 -3 66 -14 110 -26 43 -12 115 -31 159 -42 44 -11 107 -28
140 -39 80 -25 146 -39 196 -41 22 -1 42 -5 45 -10 3 -4 13 -8 22 -8 9 0 29
-6 44 -14 15 -8 40 -17 57 -21 17 -4 31 -10 31 -14 0 -5 20 -14 45 -21 25 -7
45 -18 45 -25 0 -12 -28 -52 -115 -161 -22 -29 -50 -65 -63 -81 -12 -17 -37
-45 -56 -64 -19 -18 -33 -36 -31 -40 3 -3 -12 -22 -33 -42 -20 -19 -59 -63
-87 -97 -27 -34 -79 -92 -115 -129 -36 -37 -96 -102 -135 -146 -38 -43 -104
-115 -145 -160 -41 -44 -90 -99 -109 -122 l-34 -41 -31 31 c-61 61 -106 96
-111 87 -6 -9 -21 -6 -60 10 -25 11 -102 28 -180 41 -33 5 -69 14 -80 19 -39
18 -141 48 -197 59 -31 5 -125 33 -210 61 -84 29 -157 53 -163 54 -5 2 -22 8
-36 14 -14 5 -39 13 -55 16 -45 8 -152 44 -229 77 -38 16 -75 29 -81 29 -6 0
-25 7 -43 16 -17 9 -46 18 -64 21 -18 3 -40 9 -49 14 -9 5 -24 9 -33 9 -9 0
-30 10 -47 21 -16 12 -57 33 -91 48 -93 40 -197 97 -244 134 l-41 33 27 30
c16 16 48 45 71 64 24 19 63 52 86 72 24 20 53 39 64 43 18 6 131 79 164 106
16 14 74 50 131 83 42 25 104 69 155 109 8 7 33 26 55 42 22 16 42 32 45 35
14 15 182 130 189 130 5 0 11 4 13 10 2 5 27 18 57 29 42 14 61 17 88 9 19 -5
41 -7 49 -4z m1852 -571 c-1 -5 28 -69 64 -143 37 -74 69 -153 73 -175 l6 -40
-19 23 c-20 22 -47 27 -87 16 -18 -4 -20 -12 -17 -62 2 -31 -4 -91 -13 -132
-9 -41 -17 -79 -18 -85 -2 -5 -6 -16 -11 -23 -4 -8 -7 -50 -5 -95 5 -162 6
-159 -30 -197 -52 -56 -66 -73 -81 -104 -8 -16 -32 -47 -52 -70 -21 -23 -38
-44 -38 -48 0 -3 -20 -27 -45 -52 -25 -26 -45 -51 -45 -57 0 -6 -4 -7 -10 -4
-5 3 -10 1 -10 -6 0 -7 -11 -24 -24 -38 -67 -71 -84 -90 -87 -98 -9 -21 -111
-92 -124 -86 -8 3 -15 8 -16 12 -1 6 -3 21 -14 77 -3 17 -8 53 -10 79 -6 57
-9 62 -31 44 -14 -12 -15 -27 -9 -109 8 -113 31 -174 72 -192 15 -7 30 -15 33
-19 3 -3 20 -12 38 -20 18 -8 30 -19 27 -26 -2 -7 11 -28 30 -46 31 -30 33
-36 26 -69 -11 -47 -19 -58 -39 -58 -10 0 -27 -7 -40 -15 -16 -12 -27 -13 -41
-5 -11 5 -28 10 -38 10 -10 1 -35 15 -55 33 -28 23 -39 42 -42 69 -3 21 -9 46
-15 56 -5 10 -13 68 -17 128 -5 86 -3 126 11 187 9 42 21 79 26 82 14 9 -2 35
-22 35 -36 0 -58 -78 -64 -225 -3 -64 3 -131 21 -239 5 -28 4 -37 -4 -32 -7 4
-12 2 -12 -3 0 -6 -4 -11 -9 -11 -4 0 -30 -21 -57 -47 -100 -96 -132 -122
-198 -159 -77 -42 -86 -39 -86 31 0 22 -7 62 -15 89 -8 26 -13 51 -11 55 3 4
7 56 11 117 5 104 22 199 52 292 7 23 13 49 13 57 0 17 35 81 59 110 9 11 30
47 46 80 16 33 61 98 100 144 38 46 76 92 84 103 8 10 39 45 68 76 30 31 62
69 71 85 9 15 21 27 27 27 5 0 28 23 50 50 22 27 77 89 122 137 46 48 83 94
83 101 0 6 4 12 8 12 7 0 100 109 159 186 12 16 47 56 78 89 31 33 64 70 72
83 14 21 36 31 31 15z m-2915 -392 c43 -23 99 -49 125 -57 26 -9 59 -25 74
-35 33 -24 102 -49 133 -49 13 0 56 -14 96 -31 74 -30 212 -80 279 -100 19 -6
71 -23 115 -39 44 -15 100 -34 125 -41 25 -7 49 -16 55 -21 5 -4 16 -8 24 -8
8 0 35 -10 59 -21 24 -12 58 -23 76 -25 35 -4 108 -25 211 -60 39 -13 105 -30
147 -39 42 -8 87 -19 100 -24 13 -5 48 -16 78 -25 38 -11 72 -31 109 -65 48
-43 53 -52 48 -79 -3 -17 -20 -53 -37 -80 -16 -27 -30 -56 -30 -64 0 -8 -4
-18 -8 -23 -8 -10 -22 -58 -56 -205 -15 -64 -27 -213 -26 -320 1 -30 1 -64 1
-74 0 -11 4 -27 9 -37 13 -23 -16 -55 -34 -39 -16 13 -149 56 -201 65 -22 4
-72 16 -111 27 l-72 21 6 41 c5 45 37 133 56 156 6 8 13 27 14 41 3 21 -2 27
-23 31 -29 6 -41 -9 -50 -63 -3 -18 -14 -47 -24 -64 -11 -16 -21 -50 -25 -75
-3 -25 -9 -74 -13 -111 -9 -69 -57 -179 -79 -179 -10 0 -26 48 -23 74 0 5 -6
13 -15 18 -9 5 -14 13 -11 19 4 5 2 9 -3 9 -5 0 -10 40 -11 88 -2 68 3 101 18
140 17 44 18 52 5 62 -12 10 -21 6 -51 -21 -84 -78 -103 -100 -103 -119 0 -10
-5 -22 -11 -26 -7 -4 -9 -27 -5 -68 4 -33 9 -84 12 -113 6 -61 -5 -87 -49
-113 -46 -28 -95 -27 -102 3 -10 38 17 137 37 137 13 0 9 166 -4 197 -36 87
-48 197 -33 304 8 62 -49 65 -61 3 -4 -24 -12 -34 -25 -34 -12 0 -19 -7 -19
-19 0 -10 -8 -29 -19 -42 -19 -25 -77 -145 -86 -179 -9 -36 -32 -93 -50 -125
-12 -22 -25 -53 -29 -69 -7 -30 -47 -84 -73 -99 -8 -5 -36 -4 -64 3 l-49 12 0
43 c0 29 8 53 24 76 66 92 115 184 127 239 7 33 16 60 19 60 3 0 6 10 7 23 2
25 23 97 33 112 10 14 -17 75 -34 75 -23 0 -36 -25 -30 -58 3 -16 -1 -59 -9
-94 -8 -34 -21 -87 -27 -116 -11 -50 -102 -202 -146 -247 -15 -15 -18 -31 -16
-84 3 -73 15 -91 64 -91 16 0 31 -6 34 -14 11 -29 110 15 152 69 11 14 28 50
38 78 9 29 25 68 35 87 11 19 22 49 25 67 3 18 12 37 19 43 8 6 12 17 9 24 -2
6 15 42 39 79 l43 68 17 -73 c10 -40 17 -81 17 -91 0 -10 7 -31 15 -46 25 -49
22 -150 -7 -212 -32 -68 -36 -139 -10 -162 28 -25 104 -33 124 -13 9 9 21 16
26 16 12 0 82 71 83 84 3 57 2 102 -4 163 -7 62 -5 77 13 112 11 23 24 41 28
41 4 0 7 -37 5 -82 -1 -63 3 -91 18 -125 11 -24 23 -43 28 -43 5 0 8 -8 8 -17
-1 -26 14 -86 25 -100 6 -7 8 -20 4 -28 -3 -9 1 -18 11 -22 18 -7 57 33 47 49
-3 5 0 17 8 26 8 9 30 48 49 85 l34 68 45 -7 c25 -4 53 -7 63 -6 9 0 17 -3 17
-9 0 -5 3 -8 8 -7 40 9 299 -76 335 -110 27 -26 50 -28 67 -7 7 8 21 15 32 15
10 0 54 26 96 58 42 33 97 71 122 87 24 15 68 50 96 77 45 43 56 48 80 42 16
-4 36 -16 45 -26 9 -10 37 -24 62 -32 59 -18 104 -4 155 47 30 30 37 45 42 93
6 52 4 58 -22 82 -15 15 -33 39 -39 54 -6 15 -15 28 -20 28 -32 0 23 70 211
270 55 58 112 123 128 145 16 22 39 49 51 59 11 11 21 25 21 33 0 7 5 13 10
13 6 0 10 6 10 13 0 6 26 39 57 72 56 58 57 62 55 111 -1 38 2 54 13 58 8 3
15 2 15 -3 0 -13 77 -25 225 -35 81 -6 179 -21 196 -31 4 -3 25 -8 46 -10 95
-12 233 -51 233 -67 0 -5 6 -8 13 -8 6 0 18 -14 26 -31 12 -28 12 -32 -13 -58
-14 -15 -47 -32 -72 -39 -26 -7 -59 -22 -74 -32 -16 -11 -31 -20 -35 -20 -15
0 -100 -45 -117 -63 -10 -9 -22 -17 -27 -17 -5 0 -18 -22 -30 -49 l-21 -50 23
-35 c12 -19 38 -43 57 -53 19 -10 39 -24 43 -30 4 -7 15 -13 23 -13 27 0 65
-32 79 -68 21 -49 19 -87 -8 -117 -21 -25 -41 -31 -166 -50 -83 -13 -126 -27
-143 -48 -11 -12 -29 -33 -40 -46 -36 -42 -82 -144 -81 -181 0 -43 22 -88 62
-127 32 -32 122 -93 137 -93 12 0 73 -64 104 -109 34 -49 31 -123 -6 -192 -28
-51 -84 -99 -115 -99 -8 0 -19 -3 -23 -7 -14 -14 -150 -34 -236 -35 -78 -1
-270 25 -294 39 -6 4 -24 8 -41 10 -58 5 -136 34 -232 87 -13 7 -53 12 -90 11
-54 -1 -76 -6 -108 -27 -44 -28 -87 -71 -91 -91 -2 -6 -10 -31 -19 -55 -8 -23
-12 -54 -9 -67 7 -27 66 -85 110 -108 50 -26 163 -140 173 -174 22 -75 -44
-171 -135 -198 -58 -17 -156 -18 -223 -4 -20 5 -70 14 -111 20 -41 7 -91 20
-110 30 -32 15 -98 30 -155 34 -11 1 -31 6 -45 12 -109 48 -98 45 -250 63 -47
5 -121 17 -165 27 -149 32 -504 19 -715 -26 -52 -11 -133 -22 -180 -26 -111
-8 -195 -22 -305 -52 -107 -29 -109 -29 -205 -42 -129 -16 -227 0 -353 59 -93
44 -114 98 -72 184 42 88 42 87 163 195 39 35 82 69 94 75 33 16 78 112 78
165 0 79 -64 170 -125 179 -11 1 -65 3 -120 4 -85 1 -111 -3 -174 -25 -90 -33
-108 -33 -172 -6 -47 21 -49 23 -49 63 0 37 5 46 57 93 32 29 63 53 70 53 6 0
23 15 39 32 65 78 83 181 46 269 -10 26 -74 69 -122 84 -14 4 -27 11 -30 15
-3 3 -33 19 -67 34 -88 41 -96 63 -74 209 14 95 87 209 175 272 15 11 49 39
74 62 26 24 50 43 54 43 4 0 34 18 68 41 64 43 139 82 178 94 24 7 24 6 18
-47 -5 -54 -13 -89 -47 -222 -10 -38 -16 -72 -14 -77 3 -4 1 -10 -5 -14 -5 -3
-10 -19 -10 -35 0 -33 27 -51 155 -102 39 -16 133 -60 210 -98 77 -38 156 -72
176 -74 19 -3 74 -25 121 -50 51 -27 99 -46 118 -46 29 0 32 3 28 24 -3 14 -1
31 3 38 10 16 -27 58 -52 58 -10 0 -30 7 -46 15 -15 8 -62 26 -103 41 -72 26
-108 41 -215 89 -27 12 -57 25 -65 29 -8 3 -22 10 -30 15 -8 5 -51 26 -95 47
-85 39 -97 50 -90 74 2 8 7 29 9 45 3 17 10 44 14 60 5 17 8 39 6 49 -1 11 1
27 6 35 8 16 16 57 25 136 3 24 12 65 20 91 8 26 12 51 9 56 -3 4 2 23 11 41
8 18 17 67 19 109 2 41 6 80 9 85 3 5 8 63 12 128 3 65 8 128 11 141 l6 22 41
-27 c23 -16 77 -47 120 -70z"/>
<path d="M2424 3855 c-4 -8 -3 -30 0 -49 l6 -33 -52 -6 c-54 -7 -70 -19 -66
-52 4 -25 33 -31 65 -14 17 9 26 10 34 2 6 -6 17 -9 25 -6 7 2 26 -6 43 -18
32 -23 42 -45 17 -36 -7 3 -36 0 -62 -7 -39 -10 -50 -17 -52 -35 -6 -38 11
-46 64 -31 41 12 50 11 80 -5 33 -18 47 -54 22 -56 -7 0 -30 -1 -52 -2 -46 -2
-68 -26 -47 -51 15 -18 57 -21 97 -5 41 15 70 4 83 -33 6 -17 8 -34 5 -37 -8
-9 -164 -27 -196 -23 -24 3 -28 8 -28 37 0 53 -7 64 -38 56 -24 -7 -27 -12
-26 -49 1 -40 0 -41 -30 -35 -26 5 -70 33 -52 33 3 0 -1 18 -9 40 -8 22 -15
44 -16 48 -8 33 -30 39 -54 12 -13 -15 -13 -22 1 -70 13 -44 13 -54 2 -61 -16
-11 -70 -1 -80 15 -7 9 -12 56 -10 77 2 11 -46 32 -61 26 -16 -6 -21 -66 -6
-83 7 -8 0 -14 -23 -19 -18 -4 -37 -8 -43 -8 -20 1 -55 15 -55 23 0 8 -62 40
-78 40 -17 0 -19 -43 -4 -71 8 -14 28 -31 45 -37 l32 -12 -49 -44 c-35 -33
-47 -50 -44 -68 6 -44 42 -34 100 27 29 31 57 63 61 71 8 14 53 19 80 8 12 -4
6 -14 -24 -41 -45 -41 -52 -78 -17 -89 18 -5 30 1 59 35 42 47 78 47 70 -1 0
-4 7 -12 17 -17 29 -15 76 12 108 63 28 44 31 46 64 40 42 -7 160 -6 214 2
l38 6 -23 -31 c-15 -20 -29 -29 -40 -26 -9 3 -29 1 -44 -5 -23 -9 -26 -14 -20
-38 4 -15 11 -30 17 -33 19 -12 -39 -42 -67 -35 -14 4 -25 11 -25 16 0 11 -40
13 -64 4 -22 -9 -20 -51 3 -64 11 -5 33 -7 50 -4 18 4 31 2 31 -4 0 -9 -16
-19 -38 -23 -4 -1 -18 -6 -32 -11 -14 -6 -47 -12 -74 -13 -59 -4 -80 -28 -56
-65 8 -12 18 -12 80 7 l71 20 -2 -52 c-2 -39 2 -58 15 -70 27 -28 46 -12 46
40 0 25 4 45 9 45 14 0 22 31 11 45 -7 8 -4 17 11 31 17 16 22 16 29 4 6 -8
10 -27 10 -42 0 -15 5 -30 10 -33 6 -4 8 -11 5 -16 -4 -5 7 -9 24 -9 25 0 30
5 36 31 5 20 3 34 -4 39 -7 3 -14 24 -18 46 -3 21 -12 46 -19 55 -12 14 -11
18 6 34 24 22 45 9 55 -33 7 -32 43 -60 50 -40 16 49 22 87 14 90 -5 2 -12 17
-15 33 -3 16 -10 32 -16 36 -17 11 21 59 47 59 26 0 58 -27 50 -41 -4 -5 -1
-9 4 -9 6 0 11 -4 11 -10 0 -5 12 -35 26 -65 14 -31 24 -64 22 -73 -2 -9 -19
-27 -38 -40 -45 -30 -60 -89 -26 -102 13 -5 22 -3 25 4 4 14 73 86 81 86 4 0
14 -16 24 -36 16 -34 16 -38 0 -62 -10 -15 -26 -33 -35 -42 -28 -23 -35 -66
-12 -74 18 -7 38 10 76 65 l15 21 22 -20 c20 -18 21 -26 14 -101 -6 -77 -6
-81 12 -74 29 11 44 29 44 54 0 12 5 39 12 61 9 32 15 38 32 34 12 -3 44 -2
73 2 52 7 52 7 40 32 -10 19 -21 25 -49 27 -21 1 -51 9 -67 17 -16 9 -36 14
-43 11 -7 -3 -18 3 -24 13 -11 16 -7 20 27 29 27 7 39 7 39 0 0 -23 23 12 26
40 l3 29 -84 -2 c-71 -2 -86 1 -101 17 -16 18 -15 19 21 35 21 8 57 19 79 23
23 3 41 12 40 19 -4 43 -1 42 -76 36 -40 -4 -81 -10 -90 -15 -23 -12 -28 -11
-28 4 0 18 -24 67 -32 67 -5 0 -8 5 -8 11 0 7 14 8 41 4 22 -4 69 -7 105 -7
80 -1 120 -18 129 -57 3 -17 16 -33 31 -40 34 -15 32 -17 40 34 3 25 12 45 18
45 14 0 32 -31 40 -72 8 -35 44 -48 63 -22 7 10 11 25 8 32 -3 8 -8 25 -11 39
-6 21 -3 24 12 21 11 -2 19 -8 19 -13 0 -6 4 -16 8 -22 5 -7 6 -17 3 -22 -3
-4 8 -23 24 -41 25 -28 32 -31 45 -20 17 14 20 53 5 80 -10 19 3 39 14 21 3
-5 14 -7 25 -4 14 3 22 -5 35 -36 9 -23 23 -41 31 -41 8 0 15 -4 15 -10 0 -20
20 -9 34 19 13 25 13 30 1 35 -8 3 -19 24 -25 47 -10 38 -9 45 9 68 12 14 26
36 33 49 6 12 17 22 25 22 14 0 17 18 7 44 -8 20 -31 10 -79 -36 -21 -21 -46
-38 -53 -38 -8 0 -20 -7 -27 -16 -11 -16 -80 -31 -73 -16 2 4 14 25 28 47 14
22 25 42 25 45 1 11 40 70 47 70 4 0 8 11 8 25 0 35 -24 32 -51 -7 -12 -18
-43 -58 -69 -88 -25 -30 -49 -62 -52 -71 -5 -14 -24 -16 -113 -17 -111 -1
-148 9 -137 37 10 28 54 81 67 81 7 0 12 12 11 28 -1 26 -8 30 -46 21 -8 -2
-18 -12 -22 -22 -14 -33 -38 -31 -76 5 -48 45 -63 50 -92 28 -18 -14 -21 -23
-16 -44 5 -21 11 -26 25 -21 12 4 24 -1 33 -12 7 -10 25 -18 41 -17 15 1 27
-3 27 -7 0 -5 -4 -9 -10 -9 -5 0 -10 -9 -10 -20 0 -38 -58 -45 -162 -21 -61
15 -75 36 -42 63 24 20 46 41 88 87 52 57 92 77 121 61 12 -7 49 -13 81 -13
53 -2 59 0 62 20 2 17 -5 24 -33 34 -32 12 -33 14 -15 21 11 4 27 5 36 1 8 -3
33 0 55 7 36 12 40 17 37 43 -2 23 -8 31 -25 32 -12 1 -24 -4 -27 -10 -5 -13
-63 -8 -72 6 -3 5 -16 9 -30 9 -20 0 -24 5 -25 30 -3 52 -4 55 -16 68 -6 6
-21 12 -32 12 -30 0 -37 -42 -17 -111 9 -32 16 -60 16 -61 0 -2 -11 -3 -24 -3
-21 0 -23 4 -25 54 -2 65 -19 106 -45 106 -30 0 -42 -29 -28 -67 6 -18 14 -58
18 -88 5 -46 3 -59 -14 -79 l-19 -25 -1 70 c0 38 -1 75 -1 81 -1 18 -50 12
-56 -8 -3 -8 -7 -36 -10 -61 -4 -39 -1 -47 23 -68 l28 -24 -46 -43 c-46 -43
-60 -51 -60 -33 0 6 -12 28 -26 50 -29 44 -27 65 12 117 14 18 27 46 30 63 6
27 4 30 -17 30 -34 0 -44 -10 -60 -52 -15 -44 -21 -46 -38 -14 -12 21 -9 32
30 104 35 65 41 83 32 93 -21 21 -66 -1 -77 -36 -24 -82 -26 -85 -45 -67 -9
10 -18 33 -19 52 -4 54 -53 94 -68 55z m-234 -538 c0 -2 -13 -13 -29 -25 -24
-18 -29 -18 -27 -5 3 17 56 45 56 30z m47 -3 c-3 -3 -12 -4 -19 -1 -8 3 -5 6
6 6 11 1 17 -2 13 -5z"/>
<path d="M3174 3470 c-22 -24 -46 -40 -60 -40 -20 0 -33 -15 -40 -48 -3 -14
26 -32 50 -32 35 0 127 125 111 151 -11 16 -24 10 -61 -31z"/>
<path d="M3877 2973 c-11 -10 -8 -52 5 -72 9 -16 7 -41 -12 -128 -30 -138 -31
-208 -3 -254 54 -87 152 -56 153 49 0 43 -19 121 -37 149 -14 21 -17 82 -9
168 4 41 -14 75 -41 75 -7 0 -13 5 -13 10 0 11 -33 14 -43 3z m76 -336 c28
-67 24 -114 -9 -109 -50 9 -65 72 -42 173 12 50 13 51 19 24 4 -17 18 -56 32
-88z"/>
<path d="M1410 2761 c-5 -11 -10 -31 -10 -45 0 -14 -22 -70 -49 -123 -76 -151
-80 -183 -36 -281 37 -81 83 -89 159 -28 l29 23 -2 158 c-1 87 -4 161 -6 165
-3 4 4 25 14 46 23 48 13 79 -24 70 -17 -4 -24 -1 -28 14 -7 25 -33 26 -47 1z
m37 -238 c2 -59 4 -117 4 -128 -1 -11 -1 -29 -1 -39 -1 -16 -34 -56 -46 -56
-14 0 -37 16 -45 33 -18 33 -29 78 -17 71 6 -4 8 1 3 15 -8 26 19 110 43 137
10 10 24 34 31 52 8 18 16 30 19 28 2 -3 6 -54 9 -113z"/>
</g>
</svg>
