<?xml version="1.0" standalone="no"?>
<!DOCTYPE svg PUBLIC "-//W3C//DTD SVG 20010904//EN"
 "http://www.w3.org/TR/2001/REC-SVG-20010904/DTD/svg10.dtd">
<svg version="1.0" xmlns="http://www.w3.org/2000/svg"
 width="521.000000pt" height="451.000000pt" viewBox="0 0 521.000000 451.000000"
 preserveAspectRatio="xMidYMid meet">
<metadata>
Created by potrace 1.16, written by Peter Selinger 2001-2019
</metadata>
<g transform="translate(0.000000,451.000000) scale(0.100000,-0.100000)"
fill="#000000" stroke="none">
<path d="M3020 4377 c-13 -10 -15 -82 -16 -532 0 -286 -1 -538 -1 -560 -1 -22
-1 -188 0 -368 2 -268 5 -329 16 -336 18 -11 10 -68 -18 -124 -11 -22 -18 -44
-15 -49 3 -4 1 -8 -4 -8 -5 0 -9 -6 -10 -12 0 -7 -4 -33 -10 -58 -7 -38 -5
-57 16 -115 16 -46 21 -70 13 -73 -6 -2 -11 -9 -11 -17 0 -23 -58 -136 -97
-192 -13 -17 -23 -36 -23 -41 0 -18 -16 -22 -50 -12 -23 7 -44 5 -74 -5 -22
-8 -52 -15 -66 -15 -40 0 -70 -11 -70 -25 0 -7 -6 -15 -14 -18 -22 -9 -29 -55
-11 -73 18 -19 15 9 25 -229 10 -222 16 -304 30 -384 6 -30 8 -56 5 -59 -2 -3
0 -13 6 -23 5 -11 6 -19 1 -19 -5 0 -7 -12 -4 -26 3 -15 0 -56 -6 -93 -7 -36
-19 -113 -28 -170 -8 -57 -18 -110 -21 -117 -3 -7 -21 -16 -41 -19 -21 -3 -73
-13 -117 -21 -44 -8 -93 -16 -110 -18 -16 -3 -41 -7 -55 -10 -55 -12 -76 -17
-105 -21 -45 -7 -88 -14 -210 -35 -60 -11 -123 -22 -140 -25 -16 -2 -52 -8
-80 -11 -63 -9 -62 -8 -110 -22 -22 -6 -58 -14 -80 -17 -22 -3 -78 -13 -125
-20 -47 -8 -101 -17 -120 -19 -20 -3 -47 -7 -60 -10 -14 -3 -41 -8 -60 -11
-38 -5 -81 -13 -120 -20 -56 -12 -75 -15 -148 -25 -42 -6 -104 -17 -137 -25
-107 -26 -216 -46 -278 -51 -33 -2 -63 -7 -67 -9 -9 -6 -89 -17 -114 -17 -32
1 -55 -17 -58 -45 -3 -32 24 -63 50 -58 100 20 191 37 257 48 44 8 163 30 265
50 102 19 289 52 415 72 127 21 295 50 375 65 80 16 181 34 225 40 44 7 89 14
100 16 11 1 52 8 90 14 86 13 216 36 310 55 39 7 94 19 123 24 30 6 64 11 78
11 21 0 23 -2 13 -26 -12 -33 13 -79 38 -70 8 3 20 6 26 6 16 0 37 66 25 78
-10 10 16 35 40 38 10 1 53 9 97 18 44 9 81 16 83 16 1 0 2 -13 2 -29 0 -29
18 -41 62 -41 17 0 32 33 37 83 1 4 21 7 45 7 25 0 48 5 51 10 10 17 43 11 57
-9 9 -12 14 -46 13 -90 0 -39 3 -71 8 -71 4 0 7 -11 7 -25 0 -17 8 -29 25 -37
21 -10 28 -8 45 12 23 27 23 26 10 105 -7 43 -7 61 2 66 23 15 45 -10 50 -55
4 -36 14 -53 49 -88 24 -24 47 -42 52 -40 5 1 15 -2 22 -8 12 -10 45 -16 125
-24 28 -3 79 13 98 31 7 7 17 25 23 40 9 27 12 28 61 24 36 -2 62 2 85 14 29
16 39 16 90 5 32 -7 69 -14 83 -16 88 -14 202 -35 245 -45 28 -7 64 -14 80
-15 17 -2 53 -9 80 -15 28 -6 64 -12 80 -15 29 -3 86 -15 175 -35 25 -6 61
-13 80 -15 19 -2 77 -13 128 -25 105 -24 137 -19 148 26 6 25 -20 70 -35 61
-3 -2 -28 0 -56 5 -27 5 -66 11 -85 13 -59 6 -154 27 -167 38 -6 5 -17 8 -25
6 -19 -3 -220 30 -308 52 -41 11 -103 22 -137 26 -35 4 -63 9 -63 13 0 3 -15
7 -32 8 -53 3 -122 15 -140 24 -9 5 -23 6 -31 3 -8 -3 -18 -1 -22 5 -3 6 -21
11 -40 11 -22 0 -43 9 -61 25 -15 14 -31 25 -36 25 -5 0 -6 4 -3 10 3 6 3 10
-2 10 -4 0 -7 44 -6 97 1 54 -2 102 -6 108 -8 9 -22 58 -21 70 0 3 -6 18 -15
35 -8 16 -15 39 -15 52 0 14 -25 54 -60 97 -33 41 -60 77 -60 82 0 9 -112 105
-129 110 -7 3 -9 16 -5 36 6 29 8 31 46 28 22 -1 45 -8 51 -14 24 -24 107 -8
107 20 0 10 5 21 11 25 15 9 6 129 -11 149 -7 8 -21 15 -31 15 -12 0 -26 13
-36 36 -13 25 -22 34 -35 31 -10 -3 -18 -1 -18 5 0 5 -5 6 -11 2 -12 -7 -8 16
21 131 5 22 7 92 5 155 -6 124 -7 140 -17 156 -4 5 17 35 46 65 67 70 88 107
126 226 35 109 36 165 4 250 -24 63 -56 97 -104 112 -22 6 -40 16 -40 22 0 5
-13 7 -30 4 -16 -3 -30 -1 -30 4 0 6 -30 9 -72 7 -57 -2 -89 -10 -143 -36 -38
-18 -72 -35 -75 -39 -3 -3 -20 -16 -38 -29 -30 -21 -33 -22 -40 -5 -8 21 -7
1630 2 1677 10 54 -44 95 -84 63z m404 -1706 c3 -4 27 -14 53 -21 67 -19 98
-45 119 -99 10 -25 17 -49 16 -53 -1 -4 -2 -31 -3 -60 -1 -29 -10 -71 -19 -93
-10 -22 -21 -52 -24 -67 -4 -16 -11 -28 -16 -28 -6 0 -10 -6 -10 -13 0 -7 -13
-26 -29 -41 -24 -23 -31 -25 -42 -14 -22 22 -81 46 -127 52 -34 4 -46 2 -62
-14 -32 -32 -26 -57 18 -69 20 -6 47 -11 59 -11 36 0 37 -20 1 -22 -93 -5
-148 3 -209 31 -58 26 -65 34 -87 106 -14 44 -17 69 -11 102 12 61 46 136 59
128 6 -4 17 8 25 27 18 41 40 67 85 99 65 48 189 84 204 60z m-307 -611 c49
-25 141 -39 224 -34 l67 4 7 -37 c5 -21 10 -51 12 -68 2 -16 6 -48 9 -70 5
-41 -18 -151 -36 -169 -6 -6 -13 -1 -19 15 -5 13 -22 38 -38 54 -16 17 -34 42
-41 58 -16 38 -56 37 -77 -3 -19 -37 -20 -32 18 -77 17 -22 43 -60 57 -86 14
-26 30 -47 35 -47 6 0 18 -8 27 -17 25 -27 45 -42 71 -54 19 -8 22 -16 19 -45
-3 -20 -10 -34 -18 -34 -8 0 -14 5 -14 10 0 6 -7 10 -15 10 -9 0 -30 7 -47 16
-17 9 -67 22 -112 30 -44 8 -84 20 -88 27 -4 6 -8 8 -8 3 0 -18 -40 28 -60 70
-31 64 -47 171 -27 185 16 11 11 60 -8 77 -15 16 -18 15 -45 -17 -16 -18 -31
-50 -35 -70 -7 -41 -3 -161 5 -161 3 0 14 -19 25 -43 19 -40 49 -80 88 -117
13 -13 95 -35 167 -45 3 0 20 -7 39 -14 l33 -14 -6 -61 c-14 -120 -13 -127 6
-120 10 3 26 -4 37 -15 12 -12 26 -21 32 -21 11 0 55 -32 55 -40 1 -3 15 -21
33 -40 70 -76 123 -181 112 -224 -1 -5 4 -16 12 -25 21 -24 27 -60 28 -173 1
-71 6 -109 16 -125 12 -18 12 -25 2 -36 -11 -11 -18 -8 -47 19 l-35 33 8 78
c11 113 8 161 -15 208 -11 23 -20 44 -20 48 0 15 -202 210 -236 227 -34 18
-38 18 -60 2 -13 -9 -21 -23 -19 -29 2 -7 0 -13 -5 -13 -28 0 -4 -28 41 -49
43 -19 203 -161 182 -161 -3 0 1 -8 9 -17 27 -31 45 -77 43 -113 -1 -19 -5
-80 -9 -136 l-8 -101 27 -21 c15 -12 34 -22 41 -22 20 0 17 -10 -8 -32 -41
-36 -135 -8 -175 51 -28 41 -29 50 -6 47 20 -3 45 37 37 59 -3 7 -16 20 -28
28 -20 13 -21 20 -16 76 3 34 3 61 -1 61 -4 0 -10 12 -14 27 -4 16 -23 48 -43
73 -54 66 -184 189 -207 196 -11 4 -32 15 -47 26 -16 11 -28 16 -28 13 0 -4
-15 2 -32 13 -18 11 -43 23 -56 27 -33 10 -132 110 -132 134 0 10 -5 21 -11
23 -11 4 -14 83 -5 133 3 17 17 71 31 120 14 50 27 95 29 100 21 74 30 97 56
138 16 26 30 52 30 57 0 5 8 24 18 42 10 18 34 60 52 93 45 82 61 105 71 105
5 0 25 -9 46 -20z m-318 -287 c3 -2 -2 -16 -11 -31 -13 -24 -28 -68 -33 -97
-3 -20 -17 -71 -25 -90 -12 -29 -34 -127 -32 -147 0 -10 -3 -18 -9 -18 -5 0
-9 69 -10 163 -1 89 -4 173 -8 187 -7 23 -4 26 38 36 41 10 78 9 90 -3z m761
-348 c0 -7 -7 -15 -15 -19 -11 -4 -15 2 -15 26 0 26 2 29 15 18 8 -7 15 -18
15 -25z m-764 -294 l58 -53 -58 6 c-32 3 -61 7 -63 10 -11 10 -16 99 -6 95 6
-2 37 -28 69 -58z m76 -155 c8 5 13 -43 9 -76 -1 -8 -3 -60 -5 -116 -1 -55 -5
-105 -9 -111 -4 -6 -27 -14 -53 -18 -25 -3 -53 -8 -62 -10 -10 -2 -32 -7 -51
-11 l-34 -7 6 34 c4 19 9 59 13 89 8 64 9 70 17 90 3 8 8 38 11 67 3 29 10 61
15 72 10 17 14 18 73 6 34 -8 66 -11 70 -9z m126 -171 c-3 -99 -6 -120 -18
-120 -12 0 -15 16 -15 83 0 46 3 86 6 88 3 2 5 26 5 54 -1 44 1 48 12 33 9
-12 12 -52 10 -138z m119 -20 c4 -72 2 -88 -8 -78 -8 8 -14 49 -15 115 -3 130
16 99 23 -37z m135 -15 c12 -23 18 -50 16 -80 -3 -42 -5 -45 -28 -42 -14 2
-26 5 -27 6 -1 1 -4 36 -6 79 -4 65 -2 77 11 75 8 -2 23 -19 34 -38z"/>
<path d="M3520 2457 c-19 -10 -25 -21 -26 -47 0 -19 4 -38 9 -41 16 -11 67 12
67 30 0 9 5 22 12 29 9 9 8 12 -5 12 -9 0 -20 7 -24 15 -7 12 -13 12 -33 2z"/>
</g>
</svg>
