<?xml version="1.0" standalone="no"?>
<!DOCTYPE svg PUBLIC "-//W3C//DTD SVG 20010904//EN"
 "http://www.w3.org/TR/2001/REC-SVG-20010904/DTD/svg10.dtd">
<svg version="1.0" xmlns="http://www.w3.org/2000/svg"
 width="247.000000pt" height="465.000000pt" viewBox="0 0 247.000000 465.000000"
 preserveAspectRatio="xMidYMid meet">
<metadata>
Created by potrace 1.16, written by Peter Selinger 2001-2019
</metadata>
<g transform="translate(0.000000,465.000000) scale(0.100000,-0.100000)"
fill="#000000" stroke="none">
<path d="M947 4530 c-21 -10 -54 -24 -72 -30 -33 -11 -105 -73 -105 -90 0 -4
-16 -31 -35 -59 -19 -29 -42 -78 -51 -109 -9 -31 -20 -66 -25 -77 -11 -27 -27
-116 -34 -190 -4 -33 -9 -73 -11 -89 -12 -72 47 -253 102 -317 13 -14 8 -20
-37 -50 -29 -19 -68 -43 -87 -54 -48 -27 -82 -56 -77 -65 3 -4 -9 -13 -26 -21
-38 -15 -79 -94 -79 -151 0 -20 -5 -40 -10 -43 -6 -3 -8 -25 -5 -48 3 -23 5
-67 5 -97 -4 -356 -9 -524 -19 -570 -6 -30 -12 -100 -12 -155 1 -145 4 -175
20 -175 8 0 11 -6 7 -15 -3 -8 -2 -15 3 -15 5 0 12 -16 15 -36 4 -19 16 -44
27 -55 10 -10 19 -28 19 -39 0 -30 26 -76 47 -84 34 -11 117 -62 124 -77 41
-78 44 -118 34 -439 -4 -132 -7 -532 -4 -610 0 -14 -2 -87 -6 -163 -6 -121 -9
-141 -27 -163 -12 -13 -29 -24 -39 -24 -10 0 -19 -5 -21 -10 -2 -6 -18 -13
-35 -15 -18 -2 -43 -10 -55 -17 -13 -7 -26 -12 -30 -13 -17 -1 -108 -79 -114
-98 -10 -30 -12 -77 -3 -77 3 0 23 -16 44 -35 38 -34 93 -51 155 -47 14 1 84
4 155 7 327 13 312 12 352 36 21 13 40 27 41 31 7 16 31 7 61 -23 26 -25 91
-56 111 -52 3 1 61 4 130 7 153 7 281 28 312 52 73 56 90 121 47 186 -13 21
-32 38 -41 38 -10 0 -18 5 -18 10 0 6 -10 10 -22 10 -13 0 -35 6 -50 14 -15 8
-40 17 -57 21 -17 4 -34 12 -38 18 -4 7 -8 61 -9 120 -1 59 -5 120 -9 135 -4
15 -8 52 -10 82 -4 59 -30 169 -45 184 -5 5 -5 19 1 33 5 14 7 28 4 33 -9 15
-16 72 -21 180 -2 58 -7 112 -10 120 -3 8 -8 51 -10 95 -3 44 -7 87 -11 95 -3
8 -7 47 -9 85 -2 39 -4 83 -5 99 -1 17 5 34 15 42 9 6 16 16 15 20 -4 26 5 43
46 84 54 53 122 140 154 194 24 42 34 85 31 126 -3 38 -2 72 5 245 12 266 7
578 -10 605 -9 14 -16 49 -20 95 -2 22 -11 65 -20 95 -9 30 -17 69 -18 85 0
17 -3 32 -6 35 -3 3 -16 26 -29 52 -12 26 -33 56 -45 67 -12 11 -48 45 -80 75
l-58 55 22 48 c12 26 34 75 49 108 24 52 48 183 48 255 0 13 10 89 14 108 3
16 -16 110 -32 158 -10 28 -31 70 -46 94 -16 24 -34 52 -41 64 -14 24 -122 85
-173 98 -19 4 -75 10 -125 12 -74 4 -97 1 -128 -14z m279 -121 c43 -20 84 -56
88 -75 0 -5 11 -19 23 -32 54 -59 77 -230 47 -358 -6 -29 -9 -55 -6 -58 3 -3
-1 -6 -9 -6 -11 0 -11 -2 1 -10 10 -6 11 -10 3 -10 -7 0 -13 -11 -13 -25 0
-14 -4 -25 -10 -25 -5 0 -10 -8 -10 -17 0 -25 -42 -105 -81 -155 -61 -78 -111
-117 -161 -124 -85 -14 -101 -12 -164 22 -110 60 -186 143 -200 220 -3 21 -10
44 -14 49 -14 19 -18 80 -8 135 5 30 11 80 14 110 4 52 12 85 38 155 6 17 11
35 11 40 5 58 112 167 185 187 14 4 69 5 122 3 76 -2 108 -8 144 -26z m110
-928 c79 -54 111 -90 132 -149 30 -83 51 -161 56 -210 3 -24 11 -62 17 -85 13
-46 14 -58 25 -232 8 -139 8 -130 -1 -260 -5 -84 -6 -127 -3 -210 1 -5 -4 -28
-11 -51 -9 -34 -17 -43 -48 -53 -21 -7 -51 -11 -68 -8 l-30 4 3 69 c10 256 12
298 17 302 2 3 0 13 -6 23 -5 11 -6 19 -2 19 4 0 8 62 9 138 1 75 4 168 8 206
4 45 2 80 -6 102 -11 30 -28 46 -28 26 0 -4 -13 -13 -30 -19 l-30 -11 0 -114
c-1 -119 -5 -243 -16 -523 -6 -145 -9 -420 -5 -520 3 -101 -10 -143 -47 -151
-15 -3 -40 -11 -57 -17 -54 -21 -368 -8 -391 16 -4 4 -15 7 -24 7 -30 0 -72
40 -66 63 3 11 0 29 -5 39 -18 33 -28 142 -34 353 -2 88 -4 162 -5 165 -3 10
1 216 4 255 3 22 5 119 5 215 0 96 0 186 1 199 0 26 -25 61 -45 61 -6 0 -22
-10 -34 -21 -22 -21 -23 -26 -16 -108 7 -90 7 -100 0 -296 -5 -119 -5 -323 -2
-442 2 -52 0 -62 -13 -59 -8 3 -41 7 -73 11 -47 5 -60 11 -66 28 -5 12 -7 25
-5 28 2 4 11 71 20 150 17 154 26 656 12 675 -4 6 1 41 12 77 10 37 17 67 14
67 -13 0 29 60 53 75 15 10 33 24 38 31 15 20 74 60 137 93 31 17 59 35 63 40
3 6 39 -8 83 -32 75 -40 80 -42 172 -42 l96 0 54 40 c30 21 59 45 63 52 12 19
24 16 73 -16z m207 -1359 c-10 -26 -33 -62 -71 -109 -34 -43 -62 -56 -62 -29
0 7 -3 33 -6 57 -9 68 18 92 108 96 31 2 36 -1 31 -15z m-997 -27 c19 -14 39
-22 48 -19 14 5 16 -4 16 -60 0 -36 -2 -66 -5 -66 -21 0 -65 34 -66 50 -2 31
-3 33 -27 71 -12 20 -22 39 -22 43 0 13 25 5 56 -19z m272 -430 c59 -18 345
-26 426 -12 31 6 46 5 42 -1 -3 -6 -1 -12 4 -14 6 -2 12 -37 14 -79 1 -41 7
-82 12 -90 5 -8 9 -36 10 -64 2 -93 14 -310 18 -330 2 -11 9 -42 16 -69 6 -27
11 -64 12 -82 1 -19 5 -34 8 -34 4 0 11 -21 15 -47 5 -27 10 -55 12 -63 4 -17
13 -270 10 -271 -1 0 -38 -4 -82 -9 -92 -10 -121 -15 -152 -25 -19 -6 -23 -3
-25 16 -1 13 -2 40 -4 59 -1 19 -5 58 -8 85 -4 28 -9 95 -12 150 -3 55 -10
132 -15 170 -6 39 -12 138 -14 220 -8 242 -13 298 -32 313 -38 28 -72 7 -72
-44 0 -54 8 -239 13 -299 3 -33 8 -98 11 -144 3 -46 8 -88 12 -95 4 -6 8 -63
9 -126 1 -63 6 -137 10 -165 11 -75 12 -109 2 -122 -5 -6 -8 -20 -6 -30 2 -15
-6 -19 -52 -24 -65 -8 -201 -2 -233 10 -19 7 -22 17 -25 72 -2 35 -2 78 0 94
3 37 3 240 0 320 -2 33 0 191 3 350 3 160 6 299 5 310 0 23 10 85 14 85 1 0
26 -7 54 -15z m646 -1286 c7 -11 26 -21 42 -23 34 -6 120 -36 148 -52 23 -14
15 -43 -16 -63 -26 -16 -226 -28 -375 -22 -48 2 -79 36 -87 96 -7 49 -7 50 26
65 20 9 66 15 116 16 45 1 85 4 88 7 10 9 44 -5 58 -24z m-543 -44 c127 -2
149 -6 149 -28 -1 -22 -77 -65 -135 -77 -48 -10 -225 -19 -422 -21 -60 -1 -94
21 -73 46 20 24 74 54 109 60 19 3 39 9 45 12 5 4 33 6 60 5 28 -2 58 2 66 8
8 6 29 8 45 4 17 -4 87 -8 156 -9z"/>
</g>
</svg>
