<?xml version="1.0" standalone="no"?>
<!DOCTYPE svg PUBLIC "-//W3C//DTD SVG 20010904//EN"
 "http://www.w3.org/TR/2001/REC-SVG-20010904/DTD/svg10.dtd">
<svg version="1.0" xmlns="http://www.w3.org/2000/svg"
 width="399.000000pt" height="371.000000pt" viewBox="0 0 399.000000 371.000000"
 preserveAspectRatio="xMidYMid meet">
<metadata>
Created by potrace 1.16, written by Peter Selinger 2001-2019
</metadata>
<g transform="translate(0.000000,371.000000) scale(0.100000,-0.100000)"
fill="#000000" stroke="none">
<path d="M2578 3594 c-47 -6 -99 -15 -115 -19 -15 -5 -31 -8 -35 -7 -4 1 -46
-16 -93 -37 -46 -22 -95 -43 -107 -47 -12 -3 -28 -13 -36 -20 -7 -8 -18 -12
-23 -9 -5 4 -9 2 -9 -4 0 -5 -24 -21 -54 -35 -30 -14 -58 -31 -61 -36 -4 -6
-25 -20 -48 -31 -51 -26 -57 -34 -57 -81 0 -21 -4 -38 -8 -38 -4 0 -9 -51 -10
-112 -1 -62 -3 -120 -5 -128 -12 -50 -18 -92 -22 -145 -2 -33 -6 -76 -9 -96
-7 -46 15 -69 74 -75 23 -3 58 -10 78 -17 47 -15 50 -36 22 -137 -12 -41 -26
-100 -31 -130 -6 -30 -13 -59 -17 -65 -5 -5 -9 -25 -11 -42 -2 -26 4 -39 29
-62 31 -28 31 -29 16 -59 -9 -17 -16 -37 -16 -44 0 -7 -7 -25 -14 -40 -34 -65
-27 -227 12 -275 9 -11 36 -45 60 -73 39 -48 42 -56 36 -94 -3 -22 -12 -55
-19 -73 -8 -18 -12 -33 -10 -33 2 0 -3 -16 -11 -35 -15 -36 -23 -193 -11 -212
3 -5 11 -48 17 -95 9 -79 9 -89 -13 -148 -13 -34 -31 -67 -40 -72 -10 -5 -17
-16 -17 -23 0 -8 -4 -15 -9 -15 -5 0 -9 -15 -9 -34 0 -41 6 -45 113 -61 75
-12 144 -32 155 -46 3 -3 22 -26 42 -50 20 -24 47 -60 60 -79 28 -41 91 -80
131 -80 15 0 49 10 75 21 111 50 129 58 162 72 19 8 49 28 66 44 17 17 35 32
40 34 17 8 110 134 134 184 14 28 33 62 42 76 20 30 18 64 -4 99 -9 14 -26 50
-37 80 -12 30 -25 62 -31 71 -7 13 -4 18 11 22 11 3 26 22 35 44 42 104 70
151 108 179 96 71 172 129 181 139 6 6 39 36 74 66 94 79 102 87 162 169 101
139 156 244 194 375 10 33 26 87 36 119 18 56 37 148 44 206 1 14 3 25 5 25
14 0 12 248 -3 285 -3 8 -13 38 -21 65 -36 112 -187 220 -306 218 -30 0 -62 3
-70 7 -10 5 -24 2 -40 -11 -14 -10 -33 -19 -43 -19 -10 0 -16 -4 -13 -9 4 -5
-7 -12 -24 -16 -16 -4 -34 -14 -39 -23 -9 -17 -71 -26 -71 -11 0 5 -1 12 -2
17 -12 52 -30 131 -33 147 -2 11 -6 36 -10 55 -4 19 -7 43 -7 53 0 9 -4 17 -9
17 -5 0 -22 21 -39 48 -36 58 -78 98 -124 117 -19 8 -37 19 -41 25 -3 5 -16
10 -28 10 -12 0 -35 7 -50 15 -15 8 -25 10 -23 6 5 -8 -19 -7 -114 2 -14 2
-64 -2 -112 -9z m222 -105 c69 -14 160 -54 160 -72 0 -7 9 -20 20 -30 11 -9
20 -25 20 -35 0 -10 3 -22 7 -26 12 -12 18 -97 9 -143 -6 -28 -31 -77 -69
-133 -31 -44 -87 -107 -87 -96 0 6 -23 -11 -79 -61 -43 -37 -142 -93 -165 -93
-9 0 -21 -9 -28 -20 -7 -11 -20 -20 -28 -21 -8 0 -28 -8 -45 -18 -33 -19 -55
-79 -34 -91 9 -6 10 -27 5 -76 -4 -38 -9 -85 -10 -104 -9 -87 -31 -166 -69
-237 -21 -40 -31 -51 -44 -46 -12 5 -15 2 -11 -9 4 -9 1 -21 -5 -27 -8 -8 -6
-11 7 -11 9 0 14 -5 11 -10 -12 -19 22 -57 56 -64 41 -8 72 -42 63 -70 -4 -12
-10 -35 -14 -53 -8 -35 -70 -150 -107 -200 -14 -18 -23 -41 -21 -55 5 -35 44
-82 63 -74 13 5 58 -27 50 -36 -1 -1 -5 -23 -8 -48 -7 -66 -17 -111 -32 -145
-7 -16 -16 -61 -19 -99 -4 -38 -8 -71 -10 -73 -5 -5 -56 19 -56 27 0 8 -10 10
-90 15 l-65 3 -6 35 c-8 50 -3 175 8 189 17 23 42 133 47 211 1 18 -3 43 -11
57 -7 14 -13 31 -13 38 0 6 -7 12 -15 12 -8 0 -15 4 -15 9 0 5 -9 11 -19 14
-25 6 -51 47 -62 96 -10 47 8 127 51 220 38 80 38 114 3 147 -23 21 -27 32
-24 72 2 26 7 55 12 64 20 36 53 266 43 293 -3 7 -20 17 -37 20 -18 3 -59 13
-93 21 l-60 16 2 81 c1 45 7 98 13 117 6 19 11 66 11 105 1 98 13 145 48 175
88 75 93 79 215 136 53 26 97 51 97 55 0 5 8 9 18 9 9 0 37 7 61 15 24 9 64
18 90 21 25 3 47 6 48 7 7 8 169 4 213 -4z m754 -438 c36 -19 95 -76 118 -112
28 -44 48 -130 49 -209 0 -78 -23 -235 -46 -305 -7 -22 -20 -67 -29 -100 -9
-33 -21 -69 -26 -80 -66 -152 -142 -279 -208 -345 -20 -20 -44 -46 -52 -56 -9
-11 -35 -35 -59 -54 -24 -19 -58 -48 -75 -63 -17 -16 -51 -42 -75 -59 -36 -25
-43 -28 -37 -12 4 10 13 39 19 64 11 42 39 79 62 80 6 0 21 15 35 32 14 17 39
45 55 62 17 17 44 52 60 76 17 24 37 52 47 61 36 37 87 130 103 185 51 185 60
256 49 382 -6 68 -9 76 -48 118 -23 25 -55 51 -70 60 -40 20 -123 28 -176 15
-24 -5 -45 -9 -46 -8 -1 1 -6 41 -11 89 l-9 87 28 21 c15 11 31 20 37 20 5 0
11 7 15 15 3 8 16 15 28 15 13 0 32 7 42 15 11 8 30 15 42 15 13 0 25 4 28 9
9 14 117 1 150 -18z m-464 -88 c7 -54 14 -163 15 -243 2 -80 6 -170 10 -200
13 -99 3 -460 -14 -529 -5 -20 -14 -65 -20 -101 -11 -66 -38 -166 -67 -250
-44 -126 -65 -175 -74 -178 -5 -2 -10 -10 -10 -17 0 -8 -8 -21 -17 -31 -19
-18 -20 -22 -29 -74 -7 -35 -55 -106 -83 -124 -9 -5 -33 -27 -56 -48 -22 -22
-73 -55 -114 -74 -119 -57 -117 -57 -131 -25 -15 38 -21 235 -8 291 6 25 17
60 24 78 8 18 14 42 14 53 0 11 6 22 14 25 9 4 13 22 12 62 -1 56 -2 57 -40
77 -22 12 -44 28 -49 36 -11 18 -11 19 34 99 17 30 33 66 35 80 3 14 12 35 20
48 8 12 12 22 9 22 -3 0 0 10 6 22 7 13 16 38 20 56 7 32 4 37 -44 83 -28 27
-55 49 -59 49 -14 0 -9 24 16 70 13 25 26 59 29 75 3 17 11 46 16 65 14 43 25
144 26 228 l0 62 53 25 c29 14 55 25 57 25 2 0 31 19 64 43 140 100 213 161
240 200 16 23 41 54 55 69 14 15 26 32 26 38 0 5 2 10 4 10 2 0 9 -44 16 -97z
m316 -291 c44 -33 57 -81 51 -189 -6 -92 -12 -127 -35 -198 -16 -50 -45 -108
-73 -145 -14 -19 -43 -59 -63 -88 -43 -62 -86 -112 -96 -112 -4 0 -4 21 0 48
19 119 28 509 14 634 l-6 57 38 6 c22 4 44 8 49 10 23 7 100 -8 121 -23z
m-1098 -1532 c2 -6 9 -10 16 -10 17 0 56 -55 56 -78 0 -10 -4 -22 -9 -27 -17
-19 -20 -60 -6 -79 8 -10 12 -23 9 -27 -3 -5 1 -9 9 -9 18 0 25 -33 19 -84
l-4 -38 -42 44 c-34 37 -56 48 -133 73 -97 31 -103 38 -79 83 23 44 44 95 52
127 4 17 9 34 11 38 6 11 97 -1 101 -13z m597 -12 c4 -13 8 -28 10 -34 2 -6 6
-21 10 -33 7 -23 -32 -113 -64 -148 -10 -10 -26 -33 -36 -51 -11 -17 -27 -35
-37 -38 -10 -3 -26 -16 -37 -30 -10 -13 -24 -24 -31 -24 -6 0 -30 -10 -53 -23
-51 -28 -114 -47 -154 -47 l-31 0 0 119 0 119 26 5 c51 10 60 13 73 23 8 6 32
18 54 28 43 18 42 18 103 59 23 15 46 27 51 27 5 0 13 9 16 20 3 11 14 20 23
20 9 0 26 7 36 15 27 20 32 19 41 -7z"/>
<path d="M999 3136 c-2 -2 -26 -6 -54 -9 -98 -8 -316 -72 -410 -120 -42 -22
-148 -97 -153 -109 -2 -5 -9 -8 -15 -8 -39 -1 -190 -208 -215 -294 -14 -50 -8
-219 10 -270 9 -28 17 -63 18 -78 0 -15 7 -44 16 -65 9 -21 21 -47 25 -58 9
-21 87 -250 90 -263 10 -45 45 -130 71 -173 15 -25 28 -49 28 -52 0 -8 46
-113 69 -157 10 -19 22 -46 26 -60 4 -14 32 -63 62 -109 66 -100 78 -116 121
-156 17 -17 32 -35 32 -38 0 -13 104 -117 144 -144 52 -36 55 -38 90 -66 28
-22 29 -28 27 -85 -1 -33 -4 -78 -7 -99 -2 -21 -6 -60 -8 -88 -3 -27 -8 -75
-11 -105 -6 -52 -4 -58 27 -98 19 -24 50 -52 69 -64 19 -11 37 -25 40 -30 3
-5 46 -18 95 -29 49 -11 110 -24 137 -30 73 -17 212 -12 322 11 55 11 123 23
150 26 28 3 86 20 130 36 217 81 222 83 206 102 -5 6 -5 20 -1 31 5 15 0 26
-19 42 -14 13 -29 23 -33 23 -3 0 -24 15 -46 33 -22 17 -50 39 -62 47 -12 8
-28 20 -34 25 -67 60 -120 97 -143 99 -15 2 -29 8 -29 15 -1 6 -2 15 -3 20 0
5 -10 12 -21 16 -21 7 -93 145 -105 204 -11 53 -7 143 8 157 22 23 3 58 -67
126 -67 64 -73 73 -66 97 74 236 73 253 -10 296 -33 17 -130 112 -130 128 0 4
10 24 23 45 13 20 31 60 41 87 11 28 22 55 26 60 22 29 84 296 78 335 -5 37
-60 50 -96 23 -15 -11 -49 -25 -77 -32 -27 -7 -64 -21 -81 -31 -51 -29 -56
-17 -55 125 1 70 4 132 7 137 3 5 -1 19 -9 32 -11 17 -29 25 -64 30 -75 10
-75 9 -57 116 8 52 17 106 19 120 3 14 8 50 11 80 2 30 7 63 10 72 13 44 12
60 -6 78 -17 17 -24 18 -45 8 -14 -6 -28 -23 -31 -37 -3 -14 -7 -33 -9 -41 -2
-8 -7 -46 -10 -85 -4 -38 -13 -99 -21 -135 -44 -200 -43 -219 9 -238 18 -7 41
-12 50 -12 9 0 26 -9 36 -19 18 -18 19 -31 16 -119 -3 -55 -9 -111 -14 -124
-6 -16 -6 -29 0 -35 7 -7 -12 -16 -53 -28 -51 -14 -105 -18 -273 -19 l-210 -1
-77 33 c-164 71 -258 173 -258 281 0 28 4 59 9 69 18 33 41 90 41 100 0 15 75
89 162 160 43 34 80 62 83 62 5 0 129 55 156 70 9 5 34 12 55 15 22 4 72 16
113 26 41 10 93 19 116 19 43 0 65 15 79 54 8 24 -10 46 -39 46 -12 0 -24 -2
-26 -4z m440 -923 c-2 -16 -7 -33 -11 -39 -4 -5 -24 -59 -44 -120 -20 -60 -42
-120 -49 -134 -19 -36 -50 -70 -65 -70 -8 0 -11 -9 -8 -25 3 -13 1 -22 -3 -19
-5 3 -8 -4 -6 -15 4 -27 67 -111 83 -111 6 0 18 -10 27 -23 8 -12 35 -36 61
-52 25 -16 46 -36 46 -44 -1 -28 -20 -105 -35 -136 -19 -42 -17 -119 3 -139
113 -104 122 -114 122 -137 0 -14 -5 -30 -10 -35 -29 -29 -4 -177 47 -277 13
-27 22 -52 19 -55 -10 -9 -187 -6 -194 4 -4 5 -34 20 -67 32 -33 13 -71 29
-85 35 -14 6 -27 11 -30 11 -3 1 -21 11 -41 24 -20 12 -41 22 -47 22 -9 0 -86
43 -133 74 -73 49 -162 124 -204 172 -27 31 -57 64 -66 73 -54 54 -146 206
-169 277 -7 21 -43 98 -80 170 -37 73 -72 147 -76 165 -12 50 -15 60 -44 124
-9 22 -22 58 -28 80 -5 22 -17 58 -25 80 -8 22 -17 53 -21 69 l-7 29 33 -20
c152 -90 213 -106 403 -105 164 0 264 11 395 43 47 12 94 23 105 24 11 2 56
19 100 39 99 43 107 44 104 9z m-186 -1466 c3 2 20 -5 38 -16 80 -46 156 -61
297 -59 118 3 135 1 146 -14 7 -10 20 -18 28 -18 8 0 33 -14 56 -31 23 -17 42
-28 42 -24 0 3 25 -14 56 -39 31 -26 60 -46 65 -46 24 0 5 -20 -28 -30 -21 -6
-52 -18 -70 -26 -17 -8 -42 -14 -55 -14 -12 0 -41 -7 -64 -15 -23 -7 -63 -16
-90 -19 -27 -3 -87 -11 -134 -17 -145 -19 -316 6 -392 57 -28 19 -53 34 -57
34 -14 0 -31 42 -32 77 -2 36 19 244 27 270 2 7 32 -4 83 -31 44 -24 82 -42
84 -39z"/>
</g>
</svg>
