<?xml version="1.0" standalone="no"?>
<!DOCTYPE svg PUBLIC "-//W3C//DTD SVG 20010904//EN"
 "http://www.w3.org/TR/2001/REC-SVG-20010904/DTD/svg10.dtd">
<svg version="1.0" xmlns="http://www.w3.org/2000/svg"
 width="517.000000pt" height="417.000000pt" viewBox="0 0 517.000000 417.000000"
 preserveAspectRatio="xMidYMid meet">
<metadata>
Created by potrace 1.16, written by Peter Selinger 2001-2019
</metadata>
<g transform="translate(0.000000,417.000000) scale(0.100000,-0.100000)"
fill="#000000" stroke="none">
<path d="M3865 3778 c-27 -15 -8 -122 41 -235 8 -17 14 -37 14 -45 0 -8 4 -18
9 -23 10 -11 33 -94 61 -225 10 -47 24 -105 30 -130 20 -79 22 -84 26 -120 3
-19 15 -75 29 -125 13 -49 31 -126 40 -170 10 -44 28 -118 42 -165 43 -149 53
-191 48 -200 -3 -5 -1 -11 5 -15 5 -3 10 -11 10 -18 0 -6 -8 0 -17 13 -24 35
-33 40 -76 40 -29 0 -44 -6 -62 -27 -13 -16 -24 -35 -25 -43 0 -37 30 -93 71
-134 61 -60 68 -70 101 -140 17 -33 48 -87 69 -118 21 -32 39 -62 39 -66 0
-18 56 -69 83 -76 67 -16 107 68 107 229 0 22 7 76 16 120 8 44 15 88 15 97 0
10 5 20 10 23 5 4 7 11 4 16 -4 5 -1 9 5 9 6 0 8 5 5 10 -3 6 -2 10 4 10 10 0
30 55 28 80 0 9 3 28 7 43 4 16 2 27 -4 27 -5 0 -10 8 -10 18 0 11 -9 27 -20
37 -11 10 -20 15 -20 10 0 -4 -6 -3 -12 2 -19 15 -90 6 -100 -12 -5 -8 -15
-15 -22 -15 -16 0 -27 -22 -32 -63 -2 -16 -7 -33 -10 -39 -12 -20 -35 41 -36
97 0 11 -4 29 -8 40 -17 42 -23 61 -27 80 -2 10 -8 22 -14 26 -6 3 -12 21 -14
40 -1 19 -7 46 -13 61 -6 14 -13 44 -16 65 -9 59 -18 97 -27 108 -4 6 -11 33
-15 60 -3 28 -9 52 -13 55 -3 3 -7 16 -9 30 -2 14 -10 57 -19 95 -8 39 -16 79
-17 90 0 11 -5 26 -9 33 -5 6 -5 12 -1 12 4 0 0 8 -10 18 -16 18 -59 182 -60
232 0 14 -7 30 -14 35 -16 13 -51 110 -52 143 0 13 -14 43 -31 67 -32 45 -64
55 -104 33z"/>
<path d="M1727 3719 c-61 -9 -237 -99 -237 -121 0 -5 -5 -8 -11 -8 -6 0 -17
-6 -24 -12 -30 -27 -43 -36 -71 -51 -16 -9 -40 -26 -54 -39 -42 -39 -110 -90
-110 -83 0 4 -19 -19 -43 -51 -47 -64 -153 -164 -175 -164 -22 -1 -287 -206
-305 -236 -4 -8 -12 -14 -17 -14 -8 0 -29 -21 -107 -105 -7 -8 -13 -17 -13
-21 0 -4 -18 -26 -40 -50 -21 -23 -42 -55 -46 -71 -4 -15 -13 -37 -20 -48 -21
-34 -55 -125 -80 -220 -35 -128 -54 -324 -60 -590 -2 -126 -6 -239 -9 -250 -2
-12 -7 -62 -11 -113 -4 -73 -2 -104 12 -147 15 -50 24 -61 88 -108 39 -28 90
-62 114 -75 48 -26 58 -34 144 -111 33 -30 67 -69 75 -85 9 -17 25 -39 36 -49
11 -9 17 -17 13 -17 -4 0 0 -7 8 -15 9 -9 21 -24 28 -33 7 -10 31 -29 53 -42
34 -21 56 -26 149 -30 l110 -5 32 -62 c43 -83 62 -107 142 -176 44 -39 103
-76 170 -108 56 -27 105 -49 109 -49 4 0 16 -9 27 -19 58 -54 295 -114 451
-115 110 -1 110 -1 170 35 33 21 69 47 80 58 93 100 103 108 185 148 45 22 91
36 149 43 46 6 107 20 135 32 28 11 56 21 61 22 6 1 37 8 70 15 74 16 126 53
222 158 107 116 116 128 152 198 18 36 39 70 47 76 32 27 94 197 94 261 0 55
37 182 76 266 19 40 41 109 50 153 8 44 20 92 26 107 7 15 17 56 24 92 6 36
21 106 34 155 43 175 59 272 50 295 -1 3 -3 19 -5 35 -1 17 -4 31 -5 33 -1 1
-3 6 -4 11 0 5 -5 13 -9 18 -5 4 -15 23 -23 41 -7 18 -18 31 -22 28 -5 -3 -22
6 -38 19 -16 14 -37 28 -46 31 -10 3 -18 10 -18 15 0 5 -7 9 -16 9 -20 0 -85
45 -151 104 -28 25 -56 46 -62 46 -6 0 -11 7 -11 16 0 9 -11 25 -25 36 -40 31
-59 75 -46 107 20 51 29 146 21 226 -5 44 -9 85 -9 91 -1 18 -82 105 -92 98
-5 -3 -9 2 -9 10 0 18 -48 49 -130 86 -30 14 -56 28 -58 33 -2 4 -10 7 -18 7
-12 0 -110 49 -139 69 -5 4 -42 20 -82 35 -69 26 -131 30 -195 10 -87 -26
-140 -25 -218 5 -38 14 -79 35 -92 46 -28 25 -100 53 -150 59 -20 2 -57 13
-83 25 -73 32 -138 41 -218 30z m149 -99 c141 -36 216 -63 249 -91 11 -9 31
-19 45 -22 14 -4 34 -14 45 -24 38 -36 136 -54 176 -33 17 10 86 27 132 34 42
6 130 -13 151 -33 12 -12 28 -21 34 -21 7 0 12 -4 12 -10 0 -5 9 -10 20 -10
11 0 20 -4 20 -10 0 -5 15 -13 33 -19 112 -33 230 -88 263 -121 10 -11 31 -32
46 -47 20 -21 30 -45 37 -91 10 -61 9 -66 -20 -117 -28 -50 -29 -56 -20 -111
16 -103 26 -117 169 -244 88 -79 86 -77 146 -106 30 -14 76 -45 102 -69 56
-50 78 -113 77 -215 0 -53 -7 -105 -13 -105 -1 0 -3 -16 -5 -36 -2 -21 -11
-54 -19 -74 -9 -21 -16 -47 -16 -59 0 -12 -7 -46 -15 -76 -9 -30 -17 -66 -18
-80 -7 -58 -43 -182 -78 -271 -41 -103 -50 -133 -79 -278 -11 -51 -23 -98 -28
-105 -5 -6 -12 -23 -16 -38 -3 -16 -33 -73 -66 -127 -33 -55 -60 -103 -60
-106 0 -14 -177 -183 -215 -206 -22 -14 -60 -31 -85 -39 -25 -7 -51 -18 -57
-23 -7 -5 -13 -7 -13 -4 0 3 -15 0 -33 -8 -18 -7 -57 -16 -87 -19 -129 -12
-234 -43 -278 -84 -20 -17 -50 -42 -66 -55 -17 -12 -50 -41 -72 -64 -23 -23
-55 -45 -70 -49 -16 -4 -35 -14 -43 -21 -7 -8 -20 -12 -27 -9 -8 3 -14 2 -14
-2 0 -9 -116 -7 -160 1 -14 3 -61 15 -105 27 -44 12 -98 27 -120 32 -22 5 -47
16 -56 24 -9 8 -73 44 -143 79 -71 36 -137 71 -147 79 -33 23 -112 129 -154
205 -41 76 -86 114 -108 92 -6 -6 -42 -11 -80 -11 -92 0 -121 18 -287 183 -75
73 -162 151 -195 172 -98 62 -173 128 -187 165 -10 27 -14 172 -4 188 3 5 8
128 11 273 3 146 11 311 19 369 8 58 17 123 20 146 13 105 91 288 166 389 44
60 223 235 239 235 4 0 29 20 55 44 25 24 81 65 124 90 42 25 87 56 99 68 13
13 60 62 105 109 46 47 102 98 126 113 23 14 42 30 42 36 0 5 11 15 25 22 13
7 64 40 112 74 126 88 158 101 269 113 6 0 46 -8 90 -19z"/>
<path d="M4679 1663 c-20 -3 -31 -16 -49 -55 -22 -48 -24 -50 -54 -43 -17 4
-51 11 -76 15 -24 4 -46 13 -48 19 -2 6 -14 8 -27 5 -12 -3 -26 -1 -29 5 -4 6
-36 11 -73 11 l-65 0 -66 -71 c-37 -38 -71 -85 -76 -102 -15 -55 -18 -154 -6
-177 9 -17 7 -26 -14 -51 -14 -16 -28 -46 -32 -67 -3 -20 -10 -53 -15 -72 -5
-21 -5 -36 1 -40 5 -3 12 -23 15 -45 8 -64 24 -100 59 -134 33 -32 36 -33 92
-26 57 7 77 13 124 40 16 9 28 11 36 4 6 -5 19 -7 28 -3 11 4 16 1 16 -10 0
-9 8 -16 20 -16 11 0 23 -7 26 -15 4 -8 10 -15 15 -15 5 0 34 -12 66 -26 52
-24 64 -26 141 -20 54 4 93 12 110 23 49 32 67 43 87 52 33 15 52 44 60 91 4
25 12 51 17 58 6 7 8 32 6 55 -5 46 5 69 35 80 9 3 17 11 17 17 0 5 7 10 15
10 34 0 85 85 85 141 0 28 -38 120 -62 149 -18 22 -123 70 -152 70 -13 0 -29
7 -36 15 -7 9 -19 14 -27 11 -8 -4 -13 3 -13 18 0 13 -7 29 -15 36 -8 7 -15
21 -15 31 0 10 -4 20 -8 23 -14 8 -85 14 -113 9z"/>
</g>
</svg>
