<?xml version="1.0" standalone="no"?>
<!DOCTYPE svg PUBLIC "-//W3C//DTD SVG 20010904//EN"
 "http://www.w3.org/TR/2001/REC-SVG-20010904/DTD/svg10.dtd">
<svg version="1.0" xmlns="http://www.w3.org/2000/svg"
 width="495.000000pt" height="425.000000pt" viewBox="0 0 495.000000 425.000000"
 preserveAspectRatio="xMidYMid meet">
<metadata>
Created by potrace 1.16, written by Peter Selinger 2001-2019
</metadata>
<g transform="translate(0.000000,425.000000) scale(0.100000,-0.100000)"
fill="#000000" stroke="none">
<path d="M3540 4061 c-13 -11 -28 -17 -32 -15 -4 3 -8 -4 -8 -15 0 -11 -4 -23
-10 -26 -5 -3 -9 -23 -8 -43 1 -20 0 -59 0 -85 l-2 -48 -72 1 c-40 1 -255 -1
-478 -4 -223 -4 -567 -9 -765 -11 -198 -3 -447 -7 -553 -9 l-193 -4 -10 26
c-6 15 -13 48 -16 75 -3 26 -9 47 -13 47 -4 0 -10 9 -13 21 -5 20 -10 21 -79
14 -60 -6 -77 -12 -96 -33 -21 -22 -23 -31 -17 -79 3 -29 11 -53 17 -53 6 0 9
-3 5 -6 -9 -10 -635 -13 -776 -5 -115 7 -126 6 -147 -12 -23 -20 -26 -59 -5
-80 7 -7 97 -10 293 -9 559 3 608 3 617 -3 18 -10 41 -114 51 -222 6 -60 15
-142 21 -183 9 -71 12 -217 4 -230 -4 -6 -13 -113 -20 -243 -3 -57 -12 -105
-24 -133 -11 -24 -18 -44 -15 -44 3 0 0 -9 -6 -20 -6 -11 -15 -48 -20 -83 -5
-34 -11 -80 -15 -102 -6 -46 -43 -189 -56 -223 -5 -13 -9 -33 -9 -46 0 -12
-16 -69 -36 -127 -45 -131 -48 -143 -78 -264 -14 -55 -35 -134 -47 -175 -11
-41 -25 -93 -30 -115 -5 -22 -16 -54 -24 -72 -8 -17 -15 -51 -15 -76 0 -25 -6
-57 -14 -71 -34 -66 10 -95 117 -78 141 23 237 25 342 7 55 -9 106 -20 115
-25 8 -5 43 -15 76 -24 33 -8 75 -23 92 -32 18 -9 38 -17 45 -18 7 -1 34 -12
61 -24 27 -12 52 -22 57 -22 4 0 14 -6 21 -13 27 -26 246 -116 333 -138 199
-48 401 -26 835 91 19 5 73 12 120 14 47 3 99 10 116 15 17 5 86 8 153 7 82
-2 121 1 121 8 0 8 3 7 8 0 4 -7 32 -15 62 -18 30 -4 67 -9 83 -11 15 -3 54
-7 87 -9 32 -1 65 -8 74 -15 9 -7 16 -8 20 -2 4 5 15 8 26 6 15 -3 25 6 39 33
17 33 17 39 4 59 -8 12 -16 39 -18 60 -10 115 -18 189 -21 194 -2 4 -7 31 -10
60 -4 29 -17 81 -30 116 -13 34 -26 90 -29 125 -4 35 -19 128 -35 208 -35 182
-48 266 -55 355 -3 39 -8 88 -11 109 -9 60 -13 137 -19 436 -3 151 -6 284 -7
295 -3 30 11 223 22 285 5 30 11 88 15 129 3 41 8 78 11 82 10 17 24 116 25
173 0 18 13 18 298 14 321 -4 316 -5 330 49 8 29 -24 73 -52 73 -8 0 -17 5
-19 11 -3 8 -14 7 -35 -5 -27 -13 -71 -16 -272 -17 -132 0 -245 2 -250 5 -12
8 -3 78 12 104 5 6 4 12 -1 12 -5 0 -12 9 -15 19 -2 10 -21 27 -41 36 -20 9
-34 21 -31 25 6 10 -22 40 -38 40 -7 0 -23 -9 -37 -19z m-142 -329 c32 -3 21
-15 -46 -53 -31 -18 -58 -36 -60 -41 -2 -4 -10 -8 -17 -8 -26 0 -164 -83 -225
-136 -102 -87 -224 -152 -350 -186 -91 -25 -380 -32 -401 -10 -7 6 -19 12 -26
12 -15 0 -156 89 -161 101 -2 5 -8 9 -14 9 -5 0 -22 9 -36 20 -15 11 -36 27
-47 35 -11 9 -56 45 -100 81 -44 36 -93 72 -110 81 -16 8 -40 25 -53 36 -12
11 -22 17 -22 13 0 -5 -7 -3 -15 4 -8 7 -15 15 -15 19 0 6 507 14 615 9 26 -1
890 14 892 15 2 2 159 1 191 -1z m-1884 -77 c27 -8 54 -18 60 -23 6 -4 29 -14
51 -21 22 -8 52 -22 67 -32 14 -11 33 -19 40 -19 19 0 126 -91 127 -107 1 -7
6 -13 12 -13 6 0 29 -14 51 -32 61 -48 98 -73 158 -110 60 -36 66 -40 131 -80
52 -32 140 -46 272 -43 111 3 303 42 392 80 43 19 128 74 133 87 2 5 23 18 45
30 23 11 44 24 47 27 9 12 104 78 145 102 75 43 160 89 165 89 3 0 6 -10 7
-22 3 -39 28 -53 94 -52 l61 0 -7 -60 c-3 -34 -8 -76 -11 -93 -15 -99 -21
-191 -17 -303 2 -69 3 -168 2 -220 -3 -233 2 -382 15 -440 3 -14 8 -69 11
-123 3 -54 10 -133 15 -175 6 -42 13 -102 16 -132 3 -30 10 -62 15 -71 4 -9 6
-19 3 -22 -3 -3 -1 -14 5 -24 9 -18 12 -40 26 -173 9 -82 38 -220 46 -220 5 0
9 -11 9 -24 0 -12 4 -36 9 -52 5 -16 12 -65 15 -109 3 -44 7 -87 8 -95 0 -8 0
-28 0 -43 -2 -27 -4 -28 -34 -21 -18 4 -51 6 -73 6 -22 -1 -72 4 -111 11 -67
12 -96 11 -434 -8 -79 -4 -196 -28 -370 -75 -179 -49 -254 -61 -402 -61 -167
0 -306 44 -538 172 -26 15 -192 76 -265 99 -38 12 -88 27 -110 35 -22 7 -69
16 -105 19 -95 9 -294 11 -307 3 -15 -9 -21 21 -12 53 3 14 12 50 19 80 7 30
19 75 27 100 9 25 19 63 24 85 8 41 32 137 52 213 6 23 14 42 17 42 3 0 7 10
8 23 1 13 13 57 27 98 36 101 55 169 55 197 0 13 9 54 19 90 30 105 51 207 51
245 0 20 11 66 24 104 22 62 31 119 51 353 18 203 13 321 -22 518 -5 29 -3 32
20 32 14 0 29 5 32 11 4 6 12 8 19 6 6 -2 25 4 41 13 25 14 30 23 30 53 0 21
0 37 0 37 0 0 22 -7 49 -15z"/>
<path d="M3290 3386 c-16 -12 -30 -27 -30 -33 0 -7 -12 -19 -27 -27 -16 -8
-39 -25 -53 -38 -55 -51 -228 -148 -265 -148 -11 0 -33 -7 -49 -15 -15 -8 -81
-22 -145 -31 -64 -9 -138 -20 -165 -24 -27 -4 -61 -6 -75 -4 -14 2 -60 4 -101
5 -121 3 -271 47 -336 98 -32 25 -96 28 -118 5 -19 -18 -19 -16 -6 -49 5 -14
20 -30 32 -35 13 -6 30 -14 38 -20 36 -22 139 -68 144 -63 3 3 11 1 18 -4 33
-26 183 -46 343 -45 56 0 190 14 204 21 13 7 75 21 116 26 11 1 50 11 110 26
22 6 59 20 82 30 23 10 47 19 54 19 16 0 99 49 99 59 0 4 16 15 35 24 19 9 35
20 35 25 0 4 27 26 60 47 33 21 60 42 60 47 0 4 7 8 15 8 8 0 16 3 16 8 16 92
-26 133 -91 88z"/>
<path d="M1138 1013 c-16 -4 -18 -19 -19 -136 0 -73 -2 -141 -4 -152 -1 -11
-5 -36 -8 -55 -3 -19 -14 -51 -24 -70 -12 -23 -19 -63 -21 -120 -4 -82 -3 -86
25 -117 40 -44 68 -56 114 -48 33 6 47 16 77 56 20 27 39 49 43 49 12 0 22
120 11 133 -6 6 -12 21 -14 32 -3 19 -10 31 -35 60 -7 7 -13 22 -13 33 0 10
-3 22 -7 26 -5 4 -8 11 -9 14 0 4 -4 34 -9 67 -5 33 -8 66 -7 73 2 6 -2 12 -8
12 -5 0 -10 14 -10 30 0 67 -41 122 -82 113z m74 -425 c10 -12 21 -33 24 -47
3 -14 7 -32 10 -39 2 -7 -4 -30 -12 -52 -16 -40 -41 -51 -70 -32 -21 13 -20
94 1 144 11 27 22 48 24 48 2 0 12 -10 23 -22z"/>
<path d="M3495 853 c-4 -16 -9 -64 -11 -108 -6 -100 -22 -231 -34 -270 -20
-68 -24 -112 -16 -215 5 -66 16 -99 36 -105 9 -3 25 -14 35 -25 33 -37 103
-19 150 38 26 31 28 41 28 115 0 95 -4 115 -32 180 -22 51 -43 154 -46 222 -1
22 -7 53 -13 68 -7 16 -12 46 -12 67 0 29 -5 42 -19 50 -35 18 -58 12 -66 -17z
m75 -455 c8 -24 16 -47 18 -52 11 -20 6 -110 -6 -123 -29 -28 -54 -1 -55 59 0
61 13 158 22 158 4 0 14 -19 21 -42z"/>
<path d="M2583 800 c-31 -13 -44 -41 -29 -62 16 -23 12 -127 -9 -198 -21 -75
-36 -187 -29 -219 16 -67 39 -104 78 -122 30 -13 46 -15 65 -7 39 14 71 48 93
95 18 40 18 46 2 115 -9 40 -24 91 -34 113 -21 44 -28 81 -36 168 -5 63 -38
127 -64 126 -8 0 -25 -4 -37 -9z m87 -432 c0 -15 -6 -33 -13 -40 -8 -7 -12
-19 -9 -26 5 -16 -14 -16 -25 1 -12 18 -12 56 -1 117 l11 55 18 -40 c10 -22
19 -52 19 -67z"/>
<path d="M1686 665 c-11 -8 -17 -17 -14 -21 4 -3 2 -19 -2 -35 -5 -18 -5 -29
1 -29 14 0 1 -81 -22 -145 -17 -48 -29 -97 -35 -140 -1 -11 -7 -39 -12 -63
-20 -86 43 -182 119 -182 25 0 99 37 99 50 0 5 8 11 18 14 11 4 19 17 20 37 1
16 3 33 4 37 7 34 -36 246 -57 275 -8 12 -15 36 -15 54 0 48 -23 125 -42 145
-22 22 -37 22 -62 3z m59 -304 c2 -11 6 -25 10 -30 5 -9 15 -70 19 -116 3 -31
-11 -52 -37 -57 -40 -8 -52 17 -39 82 7 31 12 66 12 77 0 26 19 78 26 71 2 -3
6 -15 9 -27z"/>
</g>
</svg>
