<?xml version="1.0" standalone="no"?>
<!DOCTYPE svg PUBLIC "-//W3C//DTD SVG 20010904//EN"
 "http://www.w3.org/TR/2001/REC-SVG-20010904/DTD/svg10.dtd">
<svg version="1.0" xmlns="http://www.w3.org/2000/svg"
 width="561.000000pt" height="490.000000pt" viewBox="0 0 561.000000 490.000000"
 preserveAspectRatio="xMidYMid meet">
<metadata>
Created by potrace 1.16, written by Peter Selinger 2001-2019
</metadata>
<g transform="translate(0.000000,490.000000) scale(0.100000,-0.100000)"
fill="#000000" stroke="none">
<path d="M5170 4575 c-25 -14 -49 -26 -53 -27 -4 -2 -10 -19 -13 -38 -11 -72
-116 -252 -159 -272 -23 -10 -30 -24 -26 -55 1 -9 -6 -10 -30 -1 -27 9 -39 7
-95 -22 -56 -28 -77 -33 -157 -36 -97 -3 -257 -28 -287 -44 -10 -6 -30 -10
-43 -10 -13 0 -36 -9 -50 -20 -14 -11 -28 -20 -32 -20 -4 0 -34 -18 -67 -40
-33 -22 -64 -40 -69 -40 -4 0 -15 -10 -24 -22 -8 -13 -31 -35 -50 -49 -19 -14
-51 -50 -71 -80 -21 -29 -46 -63 -57 -74 -24 -25 -57 -93 -57 -116 0 -10 -4
-20 -8 -23 -28 -17 -45 -253 -24 -331 44 -164 57 -205 76 -240 11 -22 24 -42
27 -45 4 -3 18 -22 32 -43 30 -44 105 -107 127 -107 9 0 25 -7 36 -15 12 -8
23 -12 26 -10 3 3 26 -1 53 -9 29 -9 72 -13 109 -11 34 3 101 7 150 9 68 4
100 11 140 30 29 14 61 27 73 29 19 3 80 51 179 142 18 17 58 71 90 120 31 50
61 92 65 93 5 2 9 14 9 27 0 13 4 26 9 30 9 5 18 48 25 115 1 14 5 31 9 37 4
6 11 37 16 70 16 93 22 117 37 129 16 13 55 97 63 138 5 23 14 32 38 38 17 4
36 15 43 23 16 19 67 19 100 0 52 -30 76 -37 115 -36 22 1 42 6 43 11 2 6 10
10 17 10 8 0 17 9 20 20 3 11 11 20 16 20 6 0 8 4 5 9 -4 5 -1 11 6 13 6 2 12
24 12 48 1 39 -2 46 -29 60 -16 8 -32 16 -34 17 -2 1 8 16 23 33 29 36 32 62
12 112 -19 45 -57 65 -91 50 -14 -7 -35 -12 -47 -12 -19 0 -20 1 -4 23 9 12
19 30 23 40 3 9 9 17 14 17 15 0 30 78 23 120 -9 57 -38 68 -79 31 -16 -16
-47 -38 -67 -50 -44 -26 -44 -24 -23 64 41 170 0 231 -115 170z m54 -143 c-3
-37 -7 -92 -8 -122 -1 -49 1 -55 26 -69 26 -15 29 -14 87 27 33 23 63 42 66
42 4 0 -3 -13 -14 -29 -12 -16 -21 -32 -21 -35 0 -4 -8 -19 -17 -33 -10 -15
-28 -49 -39 -77 -17 -39 -20 -55 -11 -73 13 -29 30 -29 92 2 93 45 109 25 50
-61 -31 -45 -34 -55 -25 -79 6 -15 23 -32 40 -38 17 -6 29 -16 27 -22 -5 -13
-76 -8 -94 7 -8 7 -20 13 -27 15 -6 1 -30 8 -53 15 -34 10 -47 9 -70 -2 -15
-7 -31 -13 -35 -12 -5 1 -8 -2 -8 -8 0 -5 -7 -10 -15 -10 -10 0 -15 10 -15 28
0 34 -63 136 -107 173 -17 14 -45 32 -63 39 -31 13 -32 14 -13 29 32 26 94
122 129 201 9 19 25 47 35 62 11 14 19 32 19 39 0 17 51 70 62 63 4 -3 5 -35
2 -72z m-326 -355 c14 -11 16 -77 2 -77 -5 0 -10 3 -10 8 0 4 -18 15 -40 25
-61 26 -53 73 10 60 14 -3 31 -10 38 -16z m-463 -48 c-5 -7 4 -9 26 -4 19 3
82 9 140 12 102 5 106 4 125 -18 11 -13 42 -35 69 -48 71 -35 113 -67 130
-102 9 -16 22 -29 31 -29 8 0 18 -8 21 -17 4 -10 11 -21 17 -25 11 -7 16 -39
16 -98 0 -19 6 -38 13 -43 8 -6 6 -7 -7 -3 -16 5 -18 2 -13 -26 2 -18 -4 -60
-14 -93 -10 -33 -21 -90 -24 -128 -4 -44 -16 -85 -34 -120 -16 -28 -31 -63
-34 -77 -3 -14 -15 -35 -26 -46 -10 -12 -26 -34 -34 -50 -23 -44 -125 -144
-147 -144 -5 0 -10 -4 -10 -8 0 -5 -19 -17 -42 -27 -24 -11 -54 -27 -68 -36
-14 -9 -43 -20 -65 -24 -54 -11 -281 -12 -325 -2 -46 10 -160 67 -160 79 0 5
-9 17 -20 26 -25 22 -100 156 -100 180 0 10 -4 22 -9 27 -15 15 -39 184 -35
245 2 30 8 66 13 80 5 14 17 51 27 83 9 32 24 63 33 70 18 14 39 44 47 70 4 9
10 17 15 17 4 0 28 19 52 43 94 91 167 147 218 170 87 39 109 47 128 47 10 0
24 7 31 15 14 17 24 20 15 4z m593 -43 c11 -14 28 -39 37 -55 8 -17 20 -31 25
-31 6 0 10 -18 10 -41 0 -23 7 -47 15 -56 14 -14 14 -17 -2 -35 -18 -20 -18
-19 -24 12 -4 18 -16 45 -28 60 -11 16 -22 34 -23 41 -2 7 -11 22 -20 33 -10
10 -15 22 -13 26 2 4 0 21 -5 39 -10 37 -1 40 28 7z"/>
<path d="M4680 3900 c-24 -33 -45 -60 -46 -60 -1 0 -30 7 -64 16 -38 10 -77
13 -99 9 -59 -11 -118 -51 -147 -101 -37 -64 -32 -150 14 -225 18 -28 31 -57
28 -63 -2 -6 -40 -60 -84 -120 l-80 -108 -21 40 c-24 47 -26 91 -7 144 15 42
13 44 -42 72 l-33 17 -19 -43 c-42 -96 -32 -191 29 -275 l30 -41 -40 -53 c-21
-29 -39 -56 -39 -60 0 -5 16 -20 36 -35 l36 -28 19 25 c11 13 27 36 36 52 10
15 21 27 25 27 4 0 34 -14 66 -31 178 -93 373 -2 374 175 1 62 -29 126 -97
209 l-46 56 72 98 c39 54 75 98 81 98 6 0 25 -17 42 -38 27 -34 31 -46 30 -95
0 -32 -4 -66 -8 -77 -6 -17 0 -25 35 -44 41 -23 42 -23 56 -5 22 30 36 96 29
141 -8 58 -37 113 -87 164 l-41 42 42 60 43 60 -24 19 c-53 41 -53 41 -99 -22z
m-112 -145 c3 -3 -96 -143 -119 -169 -15 -16 -50 56 -45 92 6 41 22 61 61 78
25 12 91 11 103 -1z m-91 -392 c45 -56 63 -97 63 -141 0 -33 -6 -45 -35 -71
-30 -26 -44 -31 -83 -30 -56 0 -138 37 -136 61 2 17 144 218 155 218 3 0 19
-17 36 -37z"/>
<path d="M2818 4485 c-2 -2 -28 -5 -58 -8 -137 -15 -177 -28 -275 -90 -82 -51
-185 -140 -185 -158 0 -10 -6 -24 -12 -31 -29 -31 -84 -142 -104 -207 -10 -35
-31 -191 -27 -211 0 -3 4 -50 8 -105 3 -55 15 -130 26 -167 19 -64 23 -128 8
-128 -4 0 -15 -26 -24 -57 -34 -117 3 -183 101 -179 l44 1 0 -56 c0 -62 15
-103 45 -119 14 -7 22 -23 23 -43 5 -79 14 -107 43 -132 l30 -24 -28 -6 c-15
-3 -44 -10 -63 -15 -19 -5 -65 -11 -101 -13 -45 -3 -82 -13 -115 -30 -27 -14
-65 -32 -84 -41 -61 -27 -131 -89 -166 -146 -28 -47 -119 -280 -109 -280 2 0
-1 -15 -6 -32 -6 -18 -16 -64 -24 -103 -7 -38 -22 -101 -33 -140 -11 -38 -24
-101 -27 -140 -4 -38 -11 -80 -16 -93 -10 -27 -13 -206 -4 -282 26 -223 146
-385 299 -406 24 -4 49 -10 56 -14 9 -5 13 -92 15 -331 2 -178 7 -337 10 -354
7 -37 64 -155 74 -155 4 0 16 -9 28 -19 37 -35 85 -53 142 -54 57 0 161 28
161 44 0 10 50 33 64 30 5 -1 19 8 32 20 23 21 44 19 44 -5 0 -8 16 -13 42
-14 24 -1 58 -7 76 -13 19 -6 47 -12 64 -13 17 -1 34 -10 40 -19 6 -12 22 -17
48 -17 22 0 40 -4 40 -10 0 -5 9 -10 19 -10 11 0 22 -4 26 -9 3 -5 29 -17 58
-27 66 -22 162 -20 270 5 74 18 110 23 245 36 23 2 47 7 53 10 5 4 33 9 62 12
29 3 60 12 70 21 9 8 17 11 17 6 0 -5 4 -4 8 1 4 6 31 26 59 45 29 19 53 38
53 42 0 4 16 22 35 39 19 17 39 47 45 65 7 19 15 34 18 34 9 0 33 55 59 135
11 33 28 85 38 115 13 39 20 93 22 190 2 74 4 155 5 180 1 25 -1 88 -5 140
-10 152 -21 424 -18 435 11 37 -2 478 -20 650 -6 61 -10 129 -10 152 2 49 -38
195 -50 187 -5 -3 -9 2 -9 10 0 9 -12 23 -27 33 -16 10 -32 23 -38 30 -15 19
-125 43 -191 42 -82 -1 -127 6 -218 35 -75 25 -147 61 -154 78 -2 5 -8 5 -14
2 -5 -4 -23 3 -39 15 -15 11 -33 21 -39 21 -20 0 -10 27 23 62 43 46 128 217
162 328 10 30 21 60 25 65 5 6 11 28 15 50 4 22 16 83 26 135 29 136 34 288
14 381 -9 40 -21 92 -25 114 -12 57 -64 165 -94 197 -14 15 -26 33 -26 41 0
14 -13 29 -69 77 -32 28 -40 32 -57 29 -4 0 -10 3 -13 8 -17 23 -151 102 -184
108 -20 4 -35 11 -32 15 8 14 -64 33 -132 35 -34 1 -64 1 -65 0z m82 -106 c25
-6 55 -12 68 -13 12 -1 28 -8 34 -14 7 -7 15 -12 20 -12 4 0 24 -12 45 -26 21
-14 62 -37 91 -51 28 -13 52 -29 52 -34 0 -5 9 -9 21 -9 12 0 23 -8 26 -20 3
-10 16 -26 28 -34 28 -19 85 -98 85 -119 0 -9 6 -28 14 -44 14 -29 24 -52 47
-111 19 -51 16 -294 -5 -366 -9 -31 -14 -61 -11 -65 2 -5 -2 -25 -10 -45 -8
-19 -15 -47 -15 -60 0 -14 -11 -46 -25 -72 -14 -26 -25 -52 -25 -59 0 -20 -79
-181 -95 -195 -8 -7 -15 -18 -15 -25 0 -22 -104 -119 -177 -166 -130 -85 -187
-104 -308 -103 -49 0 -81 6 -105 19 -19 11 -39 19 -45 20 -5 0 -11 9 -13 20
-4 22 -30 55 -44 55 -16 0 -51 43 -54 66 -2 19 4 23 44 29 100 15 206 52 224
79 21 30 1 106 -28 106 -17 0 -44 -23 -44 -38 0 -14 -120 -45 -165 -43 -57 3
-78 28 -82 95 -6 107 -37 137 -123 120 -54 -11 -57 -9 -36 21 7 11 14 27 15
35 0 8 5 42 9 75 7 47 5 75 -10 130 -11 39 -24 93 -29 120 -17 91 -9 328 12
341 5 3 9 12 9 21 0 9 6 24 14 32 7 9 28 43 45 76 48 91 87 128 207 196 19 10
50 28 70 39 19 11 39 18 44 15 4 -3 20 -1 34 5 17 6 27 6 32 -1 4 -6 10 -7 17
0 25 20 93 24 157 10z m313 -1641 c51 -26 213 -95 272 -116 43 -15 111 -25
180 -27 92 -2 162 -15 184 -36 11 -11 24 -19 29 -19 15 0 39 -42 56 -96 15
-48 24 -124 30 -251 2 -33 6 -65 9 -70 8 -13 11 -387 4 -568 -1 -44 1 -134 6
-200 4 -66 9 -230 11 -364 3 -251 -4 -327 -37 -405 -10 -21 -17 -47 -17 -57 0
-11 -4 -19 -9 -19 -5 0 -12 -11 -15 -25 -18 -72 -133 -215 -173 -215 -7 0 -22
-9 -32 -19 -11 -11 -36 -21 -58 -22 -21 -2 -43 -7 -50 -12 -7 -5 -61 -15 -120
-22 -59 -7 -160 -21 -223 -30 -63 -8 -133 -13 -155 -10 -22 4 -53 9 -70 11
-16 3 -37 12 -46 20 -8 7 -21 14 -27 14 -7 0 -12 6 -13 13 0 9 -2 9 -5 0 -5
-11 -50 1 -95 27 -9 5 -34 12 -55 15 -53 10 -126 34 -145 48 -16 12 -34 62
-30 85 1 6 -3 12 -9 12 -6 0 -9 3 -7 8 3 4 -2 45 -9 92 -8 47 -11 103 -8 125
8 49 7 346 -1 396 -4 20 -15 46 -25 57 -16 17 -17 21 -5 26 8 3 15 1 15 -4 0
-17 106 -90 153 -106 25 -8 51 -22 58 -30 6 -8 19 -14 29 -14 15 0 51 -13 145
-50 83 -34 161 -46 238 -38 37 3 73 11 80 16 7 5 27 12 45 15 55 11 175 75
220 118 38 37 102 120 102 133 0 3 10 21 22 42 44 75 95 252 105 364 3 36 11
76 18 90 7 14 16 84 20 155 8 146 11 184 19 270 7 70 -9 211 -25 231 -15 19
-54 18 -70 -2 -14 -17 -13 -98 2 -126 5 -9 9 -49 9 -90 0 -40 0 -81 0 -90 0
-32 0 -42 -4 -108 -11 -169 -16 -221 -22 -231 -6 -11 -9 -23 -22 -114 -4 -33
-13 -69 -19 -80 -6 -11 -14 -42 -18 -70 -4 -27 -13 -57 -20 -65 -7 -8 -18 -32
-24 -52 -7 -20 -18 -41 -25 -47 -7 -6 -21 -29 -31 -51 -10 -22 -23 -40 -30
-40 -6 0 -16 -10 -22 -23 -6 -12 -28 -31 -49 -41 -22 -11 -46 -23 -54 -27
-150 -85 -250 -98 -364 -50 -25 11 -62 23 -83 26 -49 8 -141 43 -175 67 -14
10 -30 18 -35 18 -4 0 -21 11 -38 24 l-30 24 29 31 c17 17 35 31 41 31 21 0
334 300 355 340 7 14 22 34 32 45 27 28 120 153 143 192 15 26 17 38 9 60 -12
34 -51 38 -68 8 -37 -65 -98 -153 -120 -173 -14 -12 -26 -29 -26 -37 0 -8 -4
-15 -9 -15 -5 0 -11 -9 -14 -19 -2 -10 -15 -24 -27 -31 -21 -11 -22 -10 -16
17 6 24 2 31 -21 45 -19 11 -34 13 -44 7 -11 -5 -31 -3 -57 8 -43 17 -46 22
-57 129 -12 117 -40 261 -61 320 -35 94 -35 98 5 174 63 119 93 170 100 170 4
0 17 20 28 44 18 36 19 47 9 67 -10 20 -18 24 -51 21 -119 -8 -152 -6 -188 11
-34 17 -40 17 -61 3 -25 -16 -44 -78 -26 -84 5 -2 7 -8 4 -14 -7 -11 14 -96
28 -114 4 -6 17 -38 28 -71 21 -66 20 -152 -3 -213 -3 -8 -13 -37 -22 -65 -58
-169 -112 -304 -130 -321 -7 -7 -16 -9 -21 -5 -5 4 -29 16 -53 25 -39 15 -46
15 -67 1 -13 -8 -31 -15 -40 -15 -14 0 -15 7 -9 48 4 26 9 111 11 190 2 78 6
163 9 189 5 45 -12 83 -38 83 -13 0 -47 -40 -47 -54 0 -6 -1 -106 -4 -222 -4
-225 -7 -241 -56 -262 -61 -28 -144 -176 -110 -197 17 -11 49 5 56 27 7 24 61
80 94 98 21 11 22 11 15 -21 -4 -18 -16 -50 -27 -71 -13 -24 -18 -47 -14 -63
12 -46 64 -24 81 35 11 36 42 96 59 112 11 12 27 13 83 6 37 -5 72 -13 77 -18
5 -5 17 -5 27 1 11 6 34 6 61 0 47 -10 178 -26 191 -23 4 1 18 -3 30 -10 12
-7 36 -13 52 -14 67 -5 115 -17 115 -30 0 -8 -5 -14 -11 -14 -6 0 -61 -52
-124 -115 -62 -63 -119 -115 -126 -115 -7 0 -22 -9 -33 -19 -50 -47 -186 -93
-314 -107 -26 -2 -63 -7 -82 -10 -70 -10 -226 -13 -263 -4 -71 16 -129 60
-174 134 -23 38 -42 72 -41 75 1 3 -6 31 -15 61 -9 30 -16 71 -16 90 0 19 0
78 -1 131 0 53 6 124 14 159 8 35 13 67 10 72 -3 4 8 54 24 110 16 57 32 125
36 152 3 27 13 63 21 79 8 17 15 41 15 55 0 13 6 38 14 55 7 18 25 60 40 95
24 58 35 77 61 103 48 48 92 80 123 90 20 6 44 18 53 26 10 8 49 15 105 18 49
3 118 14 154 25 83 26 98 25 125 -4 17 -19 40 -26 109 -36 48 -7 99 -9 114 -6
15 4 36 7 47 7 23 0 179 52 198 66 6 5 28 17 48 26 20 9 47 28 60 42 15 14 25
19 27 12 1 -7 26 -24 55 -39z m-728 -1668 c-3 -5 -1 -28 5 -51 12 -42 16 -235
10 -404 -2 -61 2 -107 12 -145 43 -147 40 -166 -26 -200 -22 -12 -53 -28 -69
-36 -43 -24 -128 -27 -156 -6 -37 28 -86 76 -81 79 3 1 -3 12 -13 23 -10 12
-15 25 -12 30 3 5 1 11 -5 15 -6 4 -11 75 -11 188 -1 100 -2 223 -3 272 -1 73
2 96 18 124 15 26 17 37 8 52 -6 10 -8 20 -4 22 13 8 96 20 122 19 14 -2 54 4
90 11 78 17 122 19 115 7z"/>
<path d="M2425 3776 c-91 -30 -113 -44 -111 -69 2 -13 6 -29 10 -35 8 -14 47
-16 62 -4 5 4 26 14 47 21 32 11 39 10 54 -4 21 -21 81 -15 112 11 26 23 27
36 1 59 -15 14 -23 15 -34 6 -11 -9 -22 -8 -52 9 -44 23 -37 23 -89 6z"/>
<path d="M2419 3620 c-14 -15 -15 -22 -3 -56 8 -22 14 -40 14 -41 0 -2 9 -3
19 -3 28 0 51 27 51 60 0 53 -48 77 -81 40z"/>
<path d="M1275 3802 c-11 -8 -28 -36 -62 -102 -23 -47 -46 -80 -55 -80 -3 0
-13 21 -23 48 -10 26 -24 56 -31 67 -18 27 -70 32 -78 8 -11 -37 -3 -313 10
-339 18 -34 18 -76 0 -154 -31 -132 -21 -158 75 -186 79 -24 125 -49 156 -89
29 -36 63 -47 63 -20 0 9 7 18 15 22 18 6 45 54 45 80 0 42 133 276 235 413
44 60 55 112 31 143 -19 25 -94 28 -108 4 -5 -10 -14 -15 -19 -11 -6 4 -6 11
1 19 6 8 13 27 15 44 3 23 -2 33 -20 45 -40 26 -67 22 -123 -19 -44 -31 -53
-35 -51 -19 4 27 -10 85 -27 112 -15 22 -31 27 -49 14z m-6 -194 c-6 -26 -9
-64 -7 -85 4 -50 38 -58 74 -16 13 15 24 31 24 35 0 13 80 91 87 85 3 -4 1
-12 -4 -19 -6 -7 -16 -37 -24 -65 -11 -47 -11 -57 4 -88 9 -19 20 -35 25 -35
13 0 37 23 55 52 9 15 26 32 38 38 20 11 20 11 4 -19 -14 -27 -52 -89 -72
-116 -5 -6 -9 -17 -11 -25 -2 -8 -8 -16 -13 -18 -5 -2 -9 -8 -9 -13 0 -5 -15
-30 -34 -56 -18 -27 -41 -70 -51 -96 -10 -26 -22 -50 -26 -53 -5 -3 -9 -13 -9
-24 0 -28 -27 -32 -54 -7 -13 12 -57 36 -98 52 l-73 31 1 44 c1 25 3 74 4 110
1 36 -2 85 -8 110 -5 25 -7 65 -3 90 6 42 7 44 19 23 9 -15 22 -23 41 -23 32
0 56 24 96 93 15 26 29 47 31 45 1 -2 -2 -24 -7 -50z"/>
<path d="M963 3088 c-13 -6 -23 -20 -23 -32 0 -17 -12 -24 -63 -40 -34 -10
-93 -24 -132 -31 -116 -21 -290 -119 -350 -197 -32 -41 -91 -115 -102 -125 -6
-7 -26 -50 -43 -95 -17 -46 -38 -98 -47 -117 -22 -50 -27 -98 -24 -276 2 -130
6 -168 21 -200 10 -22 23 -51 29 -65 33 -74 111 -174 175 -225 38 -30 73 -55
78 -55 4 0 37 -13 71 -30 74 -35 151 -40 234 -15 28 8 62 16 77 17 14 1 26 6
26 10 0 3 10 10 21 13 35 11 139 86 191 138 27 26 53 47 58 47 26 0 158 165
184 230 9 25 25 59 35 76 10 16 21 48 25 69 4 22 17 58 27 80 13 25 24 80 30
150 12 122 8 198 -15 265 -8 25 -17 59 -21 77 -3 17 -20 51 -36 73 -25 35 -35
41 -55 36 -19 -5 -33 3 -73 41 -76 76 -150 137 -179 149 -15 7 -40 18 -57 25
-16 7 -32 14 -35 15 -3 2 -15 -2 -27 -8z m107 -128 c14 -7 43 -28 64 -47 22
-18 44 -33 49 -33 5 0 26 -13 47 -30 21 -16 43 -30 49 -30 6 0 11 -6 11 -13 0
-7 13 -28 28 -47 46 -56 75 -160 73 -262 -2 -141 -30 -248 -104 -398 -18 -36
-31 -68 -30 -72 4 -10 -196 -208 -210 -208 -3 0 -18 -11 -33 -25 -15 -14 -31
-25 -35 -25 -5 0 -29 -16 -55 -35 -25 -19 -56 -35 -69 -35 -13 0 -26 -4 -29
-9 -5 -7 -25 -12 -114 -25 -62 -9 -191 38 -248 90 -17 16 -45 40 -62 54 -17
14 -31 31 -32 38 0 6 -4 12 -9 12 -5 0 -12 8 -16 19 -3 10 -16 31 -29 46 -40
47 -59 134 -63 294 -2 113 0 150 12 174 8 17 15 39 15 49 0 11 23 65 52 121
69 134 158 227 270 280 42 21 80 42 83 47 3 6 23 10 44 10 20 0 43 6 50 13 11
10 12 9 6 -2 -6 -11 -2 -12 21 -6 50 13 109 23 113 19 5 -5 41 42 41 53 0 13
78 1 110 -17z"/>
<path d="M1030 2780 c-24 -33 -45 -60 -46 -60 -1 0 -30 7 -64 16 -38 10 -77
13 -99 9 -59 -11 -118 -51 -147 -101 -37 -64 -32 -150 14 -225 18 -28 31 -57
28 -63 -2 -6 -40 -60 -84 -120 l-80 -108 -21 40 c-24 47 -26 91 -7 144 15 42
13 44 -42 72 l-33 17 -19 -43 c-42 -96 -32 -191 29 -275 l30 -41 -40 -53 c-21
-29 -39 -56 -39 -60 0 -5 16 -20 36 -35 l36 -28 19 25 c11 13 27 36 36 52 10
15 21 27 25 27 4 0 34 -14 66 -31 178 -93 373 -2 374 175 1 62 -29 126 -97
209 l-46 56 72 98 c39 54 75 98 81 98 6 0 25 -17 42 -38 27 -34 31 -46 30 -95
0 -32 -4 -66 -8 -77 -6 -17 0 -25 35 -44 41 -23 42 -23 56 -5 22 30 36 96 29
141 -8 58 -37 113 -87 164 l-41 42 42 60 43 60 -24 19 c-53 41 -53 41 -99 -22z
m-112 -145 c3 -3 -96 -143 -119 -169 -15 -16 -50 56 -45 92 6 41 22 61 61 78
25 12 91 11 103 -1z m-91 -392 c45 -56 63 -97 63 -141 0 -33 -6 -45 -35 -71
-30 -26 -44 -31 -83 -30 -56 0 -138 37 -136 61 2 17 144 218 155 218 3 0 19
-17 36 -37z"/>
<path d="M4937 2508 c-19 -18 -44 -59 -57 -92 -21 -53 -25 -57 -37 -40 -7 10
-13 23 -13 29 0 21 -37 55 -58 55 -14 0 -23 -8 -26 -22 -3 -13 -8 -36 -11 -53
-3 -16 -9 -43 -12 -60 -13 -68 -45 -73 -63 -10 -13 46 -40 71 -65 61 -13 -5
-18 -22 -30 -103 -8 -51 -22 -54 -70 -17 -19 14 -52 28 -73 31 -36 5 -40 3
-61 -33 -32 -54 -24 -107 23 -152 20 -18 36 -40 36 -47 0 -8 14 -37 30 -63 17
-27 30 -54 30 -59 0 -6 9 -31 20 -57 19 -41 19 -48 6 -68 -14 -22 -24 -61 -30
-118 -3 -25 -41 -101 -76 -150 -10 -14 -23 -53 -29 -85 -13 -75 -17 -258 -7
-305 14 -65 57 -195 81 -240 12 -25 28 -62 34 -82 8 -24 28 -49 54 -70 23 -18
49 -40 58 -50 9 -10 21 -18 28 -18 6 0 11 -4 11 -9 0 -20 89 -43 171 -44 97
-1 232 18 269 38 14 7 39 21 56 29 85 45 155 140 192 261 21 70 19 362 -3 424
-8 24 -15 53 -15 65 0 12 -9 46 -21 76 -11 30 -23 64 -26 75 -3 11 -12 27 -19
35 -7 8 -13 18 -13 23 -1 7 -36 66 -80 130 -14 21 -30 46 -36 55 -13 21 -37
39 -89 67 -34 18 -41 27 -40 51 6 153 17 281 30 339 8 39 18 83 21 98 7 38
-16 116 -38 128 -16 8 -26 3 -52 -23z m11 -158 c-5 -25 -15 -63 -21 -85 -11
-44 -12 -55 -15 -136 -2 -49 -5 -59 -29 -74 -15 -10 -47 -20 -71 -23 -28 -3
-71 -21 -116 -48 -39 -23 -87 -45 -106 -49 -33 -6 -36 -4 -53 32 -9 21 -27 55
-38 75 -12 21 -27 59 -35 84 l-13 45 32 -6 c17 -4 47 -12 65 -18 31 -11 36
-10 53 12 10 13 19 30 19 39 0 13 2 13 18 -1 10 -10 29 -17 41 -17 28 0 81 52
81 79 0 11 5 32 12 46 l12 26 20 -26 c12 -13 32 -26 46 -27 25 -3 34 9 76 106
22 51 37 29 22 -34z m-68 -399 c0 -5 -21 -23 -47 -40 -46 -31 -94 -39 -121
-22 -20 12 52 54 108 62 25 3 48 7 53 8 4 0 7 -3 7 -8z m30 -106 c7 -9 29 -15
55 -15 25 0 48 -6 55 -14 6 -8 17 -13 25 -10 7 3 16 1 20 -5 4 -7 0 -8 -11 -4
-13 5 -15 3 -9 -7 18 -29 40 -50 52 -50 7 0 13 -7 13 -15 0 -8 5 -15 11 -15 5
0 7 -5 3 -11 -3 -6 11 -36 32 -66 21 -31 39 -62 40 -70 1 -8 11 -33 22 -56 27
-60 36 -139 36 -322 -1 -191 -22 -283 -80 -347 -19 -21 -34 -42 -34 -47 0 -5
-21 -17 -47 -26 -27 -10 -57 -21 -68 -26 -68 -31 -233 -38 -314 -13 -42 12
-67 29 -116 79 -41 42 -65 75 -70 97 -4 18 -13 44 -21 58 -26 48 -76 262 -69
295 3 11 7 49 10 85 5 73 25 153 49 201 9 18 16 39 16 47 0 9 3 12 7 9 3 -4
15 7 25 23 23 38 23 46 1 29 -16 -13 -17 -12 -4 3 7 10 17 15 22 12 5 -3 9 0
9 7 0 8 4 8 13 1 16 -14 46 3 100 55 36 35 78 62 180 120 28 16 32 16 47 -2z
m-200 -39 c0 -2 -8 -10 -17 -17 -16 -13 -17 -12 -4 4 13 16 21 21 21 13z m-85
-16 c20 -1 20 -1 1 -12 -20 -11 -76 -21 -76 -14 0 22 16 37 34 32 11 -3 30 -6
41 -6z m35 -44 c0 -2 -7 -7 -16 -10 -8 -3 -12 -2 -9 4 6 10 25 14 25 6z m530
-51 c19 -19 32 -35 29 -35 -3 0 -20 16 -39 35 -19 19 -32 35 -29 35 3 0 20
-16 39 -35z"/>
<path d="M4751 1741 c-11 -7 -12 -21 -4 -70 5 -34 6 -61 2 -61 -4 0 -28 -12
-53 -27 -60 -37 -101 -115 -93 -175 9 -65 54 -118 118 -139 30 -10 62 -18 71
-18 12 -1 19 -16 27 -53 21 -106 33 -189 28 -194 -19 -19 -122 53 -129 91 -3
17 -10 20 -48 17 -24 -2 -46 -4 -48 -6 -1 -2 5 -23 14 -47 27 -71 85 -116 177
-140 39 -9 47 -15 51 -40 20 -100 15 -95 75 -83 23 5 30 11 27 23 -3 9 -8 35
-11 59 -6 36 -4 42 11 42 29 0 106 31 141 56 63 47 99 136 81 202 -23 82 -99
133 -230 153 l-75 11 -12 68 c-6 38 -11 85 -11 104 0 33 2 36 30 36 50 0 98
-26 121 -65 19 -32 25 -35 65 -35 37 0 44 3 44 20 0 28 -43 94 -77 118 -30 21
-113 42 -167 42 -33 0 -34 1 -42 58 -9 54 -11 57 -39 60 -16 1 -36 -2 -44 -7z
m31 -267 c7 -41 10 -134 4 -134 -25 0 -67 28 -81 54 -16 29 -17 38 -5 65 13
33 48 63 65 58 5 -2 13 -21 17 -43z m230 -253 c64 -10 90 -41 84 -99 -4 -51
-23 -74 -82 -101 -71 -34 -84 -30 -84 27 -1 26 -7 77 -14 115 l-13 67 31 -1
c17 0 52 -4 78 -8z"/>
</g>
</svg>
