<?xml version="1.0" standalone="no"?>
<!DOCTYPE svg PUBLIC "-//W3C//DTD SVG 20010904//EN"
 "http://www.w3.org/TR/2001/REC-SVG-20010904/DTD/svg10.dtd">
<svg version="1.0" xmlns="http://www.w3.org/2000/svg"
 width="509.000000pt" height="485.000000pt" viewBox="0 0 509.000000 485.000000"
 preserveAspectRatio="xMidYMid meet">
<metadata>
Created by potrace 1.16, written by Peter Selinger 2001-2019
</metadata>
<g transform="translate(0.000000,485.000000) scale(0.100000,-0.100000)"
fill="#000000" stroke="none">
<path d="M4432 4743 c-5 -10 -12 -31 -16 -47 -4 -15 -15 -47 -25 -70 -18 -40
-41 -113 -48 -149 -2 -10 -10 -31 -18 -47 -8 -16 -15 -38 -15 -49 0 -11 -7
-32 -15 -48 -25 -49 -62 -137 -70 -168 -11 -39 -9 -33 -34 -89 -20 -45 -23
-48 -39 -33 -12 11 -27 14 -51 8 -42 -8 -49 -27 -49 -133 -1 -115 -13 -291
-22 -308 -5 -9 -2 -29 5 -48 12 -28 19 -32 52 -32 38 0 38 1 83 88 24 48 57
100 72 115 15 16 28 33 28 37 0 5 22 33 49 62 62 66 77 121 41 150 -14 11 -30
16 -39 12 -46 -19 -54 -18 -48 7 6 30 30 92 37 99 3 3 12 25 19 50 7 25 25 72
40 105 15 33 47 121 70 195 24 74 49 147 57 162 8 14 14 31 14 38 0 6 7 18 15
26 10 10 13 25 9 42 -10 40 -12 42 -54 42 -27 0 -42 -5 -48 -17z"/>
<path d="M3280 4303 c-63 -10 -151 -37 -161 -49 -6 -8 -17 -14 -25 -14 -7 0
-24 -11 -38 -25 -14 -14 -28 -25 -31 -25 -9 0 -45 -39 -45 -49 0 -5 -7 -11
-15 -14 -16 -7 -45 -69 -45 -98 0 -10 -5 -30 -12 -46 -6 -15 -10 -32 -9 -37 1
-4 -3 -14 -9 -21 -15 -17 -30 -152 -25 -216 3 -30 7 -85 10 -124 9 -110 10
-113 18 -121 4 -4 7 -17 7 -29 0 -12 11 -38 24 -58 13 -19 27 -43 30 -53 3
-11 16 -30 28 -44 13 -14 29 -36 36 -50 18 -32 111 -100 187 -137 51 -24 73
-28 142 -28 45 0 80 -1 78 -3 -2 -2 6 -24 17 -49 11 -24 18 -46 16 -47 -15
-10 -122 -29 -164 -28 -39 0 -60 -5 -79 -20 -14 -11 -40 -22 -58 -25 -95 -16
-549 -3 -555 16 -2 6 -10 11 -17 11 -7 0 -16 15 -19 34 -4 19 -14 40 -23 47
-9 8 -22 29 -30 47 -7 17 -18 32 -23 32 -6 0 -10 8 -10 18 0 9 -7 36 -15 60
-9 24 -17 51 -18 60 -4 22 -39 115 -46 122 -9 8 -31 49 -42 77 -8 22 -7 25 10
20 10 -2 25 -1 32 4 9 5 10 9 3 9 -7 0 -12 12 -11 28 1 80 -4 98 -46 154 -38
52 -47 59 -93 68 -65 14 -119 -5 -164 -58 -42 -48 -82 -131 -74 -154 7 -22 86
-78 117 -83 12 -2 44 -6 71 -10 37 -5 56 -14 77 -38 16 -17 29 -38 29 -47 0
-8 8 -31 18 -50 10 -19 27 -60 37 -90 10 -30 23 -68 30 -85 7 -16 18 -41 23
-55 57 -136 109 -221 145 -237 13 -6 45 -9 72 -7 64 5 136 5 315 -1 80 -3 155
-5 168 -5 12 0 22 -6 22 -14 0 -7 6 -19 14 -25 9 -7 16 -47 20 -119 4 -59 11
-120 16 -137 4 -16 10 -51 13 -77 l4 -47 -56 -21 c-31 -12 -79 -32 -107 -46
-28 -13 -66 -27 -85 -30 -19 -4 -46 -13 -61 -21 -16 -7 -28 -11 -28 -9 0 3
-21 -4 -47 -15 -27 -11 -57 -24 -68 -29 -31 -13 -115 -38 -169 -50 -53 -12
-101 -52 -92 -77 3 -8 6 -18 6 -22 0 -21 51 -31 95 -19 25 7 45 15 45 19 0 4
15 10 33 14 17 3 46 12 62 20 17 7 44 18 60 25 17 7 38 16 47 21 10 5 27 9 39
9 20 0 69 18 113 42 10 5 30 12 45 14 14 3 30 9 36 15 5 5 15 9 23 9 7 0 38
11 68 25 57 26 79 31 69 16 -3 -5 -1 -12 4 -15 10 -7 19 -50 27 -126 4 -30 20
-120 36 -200 43 -208 42 -193 11 -231 -68 -84 -208 -225 -244 -246 -34 -20
-43 -63 -24 -109 8 -19 14 -37 15 -39 0 -3 0 -6 1 -7 2 -9 7 -39 12 -78 13
-103 66 -316 122 -490 13 -41 27 -91 30 -110 3 -19 10 -45 16 -57 5 -13 13
-33 18 -45 11 -27 34 -139 29 -142 -22 -14 -66 -22 -128 -21 -84 1 -110 -14
-110 -64 0 -50 35 -62 140 -48 74 11 185 41 209 57 21 15 21 16 6 65 -9 28
-23 75 -30 105 -7 30 -21 75 -30 100 -10 25 -27 81 -40 125 -12 44 -27 90 -33
101 -6 12 -18 56 -27 99 -9 42 -29 116 -44 163 -16 48 -32 125 -36 172 -4 47
-11 90 -16 96 -9 11 7 84 19 84 4 0 21 15 39 33 147 151 203 212 203 220 0 5
9 22 21 38 11 16 17 33 14 39 -8 12 49 13 90 1 42 -12 166 9 325 55 30 9 78
20 107 24 29 5 66 15 82 23 l31 15 -17 -31 c-8 -18 -30 -46 -48 -63 -61 -60
-192 -230 -197 -255 -2 -14 1 -31 9 -37 7 -7 14 -24 14 -37 2 -32 3 -38 10
-50 3 -5 7 -37 8 -69 1 -33 4 -63 7 -68 8 -13 15 -50 19 -103 2 -27 4 -50 5
-50 2 0 10 -37 15 -75 3 -19 10 -58 15 -85 6 -28 11 -68 12 -90 0 -22 4 -47 9
-55 4 -9 10 -37 13 -63 3 -26 10 -56 15 -65 5 -10 12 -38 15 -63 3 -24 12 -60
20 -80 14 -33 13 -36 -6 -48 -30 -19 -92 -39 -140 -46 -49 -7 -84 -27 -85 -47
0 -7 -4 -20 -7 -29 -10 -22 29 -62 62 -64 15 -1 48 9 73 22 26 13 54 23 62 23
8 0 39 11 68 25 39 18 56 21 66 13 9 -7 13 -7 13 1 0 6 7 11 15 11 22 0 19 68
-5 131 -12 28 -21 67 -22 85 -1 19 -5 34 -9 34 -7 0 -30 86 -35 130 -1 14 -3
25 -4 25 -1 0 -4 16 -6 35 -3 19 -18 100 -34 180 -15 80 -28 159 -29 175 0 17
-8 71 -17 120 -30 167 -30 197 0 244 15 23 43 59 64 80 40 41 88 98 124 146
13 17 38 46 57 65 50 53 63 84 58 143 -2 29 -7 59 -10 67 -19 48 -57 173 -57
189 0 10 -6 34 -14 52 -8 19 -16 49 -19 66 -6 35 -48 195 -74 278 -9 28 -17
59 -19 70 -10 55 -24 113 -33 138 -6 16 -11 41 -11 57 0 16 -9 49 -20 75 -11
26 -20 54 -20 64 0 9 -6 26 -14 37 -12 16 -25 19 -85 16 -43 -1 -92 -11 -124
-23 -115 -46 -181 -61 -201 -45 -20 16 -47 129 -32 136 29 13 116 73 116 79 0
7 11 23 50 68 5 7 10 17 10 23 0 5 3 10 8 10 12 0 40 79 57 160 9 41 18 122
20 180 4 96 2 113 -26 200 -17 52 -35 102 -40 110 -100 168 -101 169 -164 242
-26 29 -82 70 -119 86 -31 14 -125 22 -166 15z m158 -133 c17 -11 32 -24 32
-29 0 -5 9 -13 21 -16 11 -4 26 -19 32 -33 7 -14 24 -40 39 -56 15 -17 35 -45
43 -62 8 -18 20 -34 26 -36 6 -2 15 -21 19 -43 5 -22 16 -65 26 -95 12 -41 16
-85 15 -175 -2 -66 -5 -124 -9 -129 -3 -6 -7 -20 -8 -32 -3 -32 -52 -124 -87
-163 -63 -73 -170 -127 -243 -124 -56 2 -124 25 -124 42 0 6 -7 11 -15 11 -21
0 -94 52 -95 68 0 6 6 12 14 12 8 0 24 15 35 34 21 33 63 56 102 56 11 0 19
-4 19 -8 0 -10 61 -35 80 -32 22 3 31 15 39 52 6 27 3 36 -15 51 -12 9 -29 17
-37 17 -9 0 -19 5 -22 10 -3 6 -33 10 -66 10 -72 0 -121 -22 -172 -79 -39 -43
-57 -51 -57 -25 0 9 -8 28 -19 42 -35 51 -42 90 -46 272 -3 145 7 195 48 238
15 16 22 37 23 70 1 42 5 50 35 70 19 13 44 33 56 44 12 11 34 22 48 23 14 2
31 8 38 13 18 15 45 20 122 21 54 1 78 -4 103 -19z m-1176 -600 c29 -29 29
-32 14 -49 -14 -15 -30 -19 -76 -17 -33 1 -62 4 -65 7 -12 12 15 58 42 73 40
22 51 20 85 -14z m1541 -644 c3 -7 -23 -48 -60 -92 -35 -44 -67 -86 -71 -94
-3 -8 -21 -37 -41 -65 -19 -27 -44 -63 -55 -80 -12 -16 -34 -41 -50 -55 -59
-52 -96 -92 -96 -106 0 -8 -8 -14 -19 -14 -10 0 -32 -7 -47 -15 -50 -26 -62
-20 -68 33 -4 26 -11 74 -17 107 -6 33 -13 100 -15 148 -3 49 -5 92 -6 95 -4
35 3 42 45 42 23 0 74 7 112 15 39 9 95 20 125 26 133 24 165 32 204 49 51 23
53 23 59 6z m137 -98 c7 -40 19 -91 27 -113 7 -22 14 -56 15 -75 0 -19 5 -41
11 -48 12 -15 64 -211 76 -282 4 -25 15 -61 24 -80 9 -19 18 -51 20 -70 2 -19
6 -42 9 -50 3 -8 11 -37 17 -65 12 -48 11 -51 -13 -71 -31 -28 -241 -93 -356
-111 -19 -3 -41 -10 -48 -16 -13 -10 -189 -17 -259 -10 -38 5 -42 8 -48 39 -3
19 -9 34 -13 34 -4 0 -8 12 -8 28 -1 15 -5 38 -9 52 -4 14 -9 43 -11 65 -2 22
-7 56 -10 75 -4 19 -6 42 -5 52 1 9 -5 33 -14 53 -8 21 -15 41 -15 45 0 12 50
30 88 30 44 1 74 23 90 69 7 19 27 49 44 67 18 18 42 44 53 58 11 15 25 32 30
39 6 6 21 29 34 50 12 20 26 37 31 37 4 0 13 14 20 30 7 17 28 46 46 64 19 19
34 39 34 45 0 6 4 11 9 11 5 0 28 27 52 60 24 33 49 60 56 60 6 0 16 -31 23
-72z"/>
<path d="M3068 3758 c-24 -24 -23 -53 2 -78 25 -25 42 -25 64 -1 25 28 27 57
5 77 -26 23 -50 24 -71 2z"/>
<path d="M1075 3868 c-16 -4 -49 -10 -72 -12 -23 -2 -59 -13 -78 -25 -20 -11
-39 -21 -42 -21 -7 0 -73 -70 -73 -77 0 -3 -9 -16 -20 -30 -11 -14 -29 -55
-40 -91 -12 -37 -24 -69 -29 -72 -10 -6 -21 -106 -22 -190 -1 -77 9 -166 25
-225 8 -27 16 -64 19 -81 3 -18 27 -76 53 -129 51 -108 122 -189 174 -200 17
-4 30 -10 30 -14 0 -4 19 -13 43 -20 23 -7 56 -18 72 -25 22 -10 54 -11 125
-5 77 7 96 6 103 -6 4 -8 13 -20 20 -27 6 -8 22 -28 34 -45 l22 -31 -47 -23
c-25 -13 -55 -32 -66 -41 -11 -10 -28 -18 -39 -18 -11 0 -52 -33 -93 -72 -41
-40 -89 -82 -108 -93 -114 -67 -147 -85 -156 -85 -5 0 -10 -4 -10 -8 0 -5 -12
-15 -27 -23 -16 -8 -35 -21 -44 -31 -8 -9 -62 -44 -120 -78 -163 -97 -185
-111 -270 -177 -44 -34 -114 -79 -155 -99 -79 -39 -88 -47 -98 -81 -10 -32 27
-64 62 -53 29 8 89 39 108 55 6 6 22 17 34 25 13 8 53 39 89 69 36 29 79 60
95 68 16 8 40 26 54 38 14 13 36 29 51 37 14 7 29 17 33 22 3 5 13 11 21 12
18 2 242 149 252 163 3 6 17 11 31 11 13 0 24 3 24 8 0 4 21 16 48 27 26 10
54 28 64 40 9 11 19 17 22 14 12 -11 -51 -79 -134 -146 -82 -65 -410 -390
-410 -405 0 -5 -5 -8 -10 -8 -21 0 -51 -37 -44 -53 4 -12 1 -17 -12 -17 -16 0
-15 -4 8 -26 28 -29 88 -41 88 -18 0 8 4 14 8 14 5 0 18 17 30 38 23 39 323
350 380 392 18 14 59 48 90 77 64 58 78 63 87 31 4 -13 17 -36 30 -53 12 -16
27 -46 33 -65 7 -19 22 -46 34 -60 13 -14 39 -57 58 -95 19 -39 47 -83 63
-100 29 -30 87 -139 87 -162 0 -7 5 -13 10 -13 6 0 10 -6 10 -14 0 -8 15 -36
34 -63 18 -27 44 -69 56 -93 13 -25 31 -51 42 -58 32 -23 11 -30 -49 -16 -89
20 -136 25 -293 30 -96 3 -147 9 -153 17 -7 9 -10 9 -14 0 -2 -7 -11 -13 -19
-13 -8 0 -14 -4 -14 -10 0 -5 -7 -10 -15 -10 -8 0 -15 -3 -16 -7 0 -5 -2 -16
-4 -26 -2 -9 3 -24 11 -31 8 -8 14 -23 14 -33 0 -11 4 -23 8 -29 14 -15 51
-145 55 -189 2 -22 7 -47 12 -55 5 -8 10 -19 10 -25 1 -5 7 -30 14 -54 7 -23
10 -46 7 -49 -3 -3 -1 -11 4 -17 9 -11 39 -143 42 -185 0 -8 5 -20 9 -26 5 -6
8 -26 7 -45 0 -19 4 -44 10 -56 9 -16 9 -23 -1 -31 -20 -16 -156 -58 -247 -76
-84 -17 -151 -33 -180 -44 -8 -3 -18 -6 -22 -6 -3 -1 -18 -11 -33 -24 -27 -24
-27 -33 -2 -94 15 -36 54 -37 91 -3 15 14 31 23 35 21 4 -3 21 3 37 13 16 10
54 24 84 31 30 7 71 18 90 25 19 7 69 23 110 35 41 13 80 26 85 29 6 3 16 6
24 8 7 1 17 5 21 10 11 12 21 73 12 73 -5 0 -14 37 -20 83 -6 45 -14 93 -18
107 -10 42 -21 92 -34 150 -14 69 -15 71 -23 95 -3 11 -8 37 -11 57 -9 59 -24
119 -41 168 -9 25 -18 53 -20 63 -2 10 -7 28 -11 39 -6 20 -3 20 118 14 67 -3
134 -8 148 -10 14 -2 79 -13 145 -25 66 -11 132 -23 147 -27 21 -5 32 -1 50
18 44 45 127 92 305 173 35 16 63 32 63 36 0 4 12 10 27 14 25 6 144 91 151
108 2 4 18 15 34 23 l31 16 -6 -53 c-7 -54 -16 -82 -77 -234 -18 -44 -35 -89
-40 -100 -4 -11 -23 -59 -41 -108 -19 -48 -39 -87 -46 -87 -7 0 -14 -6 -14
-12 -5 -49 -10 -70 -23 -97 -30 -57 -10 -111 42 -111 12 0 47 -12 79 -26 32
-14 67 -29 78 -34 82 -34 135 -61 135 -69 0 -4 18 -11 40 -15 22 -3 40 -11 40
-16 0 -6 7 -10 15 -10 14 0 53 -18 65 -30 3 -3 13 -6 24 -8 35 -6 86 -46 86
-68 0 -11 -3 -24 -7 -28 -5 -4 -8 -11 -8 -14 -2 -23 -51 -132 -80 -178 -19
-30 -35 -58 -35 -63 0 -4 -9 -16 -21 -27 -49 -45 -49 -105 1 -122 35 -13 65 5
75 45 3 16 23 55 44 88 21 33 41 73 45 90 4 16 25 65 46 110 45 96 58 156 36
174 -8 7 -58 34 -111 61 -53 27 -102 53 -108 58 -7 5 -38 19 -69 32 -32 12
-58 28 -58 36 0 8 -6 11 -15 8 -8 -4 -15 -1 -15 5 0 6 -9 11 -20 11 -11 0 -38
11 -60 25 -22 14 -46 25 -54 25 -12 0 -77 25 -95 37 -2 1 1 8 7 15 5 7 15 33
22 58 12 46 18 62 65 164 15 33 36 87 47 120 11 34 29 78 39 98 11 21 17 38
14 38 -2 0 0 12 6 27 42 111 68 265 49 288 -6 8 -9 18 -6 23 3 5 -8 24 -24 43
-16 19 -29 38 -30 42 0 4 -8 17 -19 28 -10 11 -27 37 -37 57 -11 20 -31 52
-46 70 -32 38 -62 92 -51 92 5 0 3 4 -2 8 -12 8 -41 51 -66 98 -10 17 -43 70
-76 118 -32 48 -78 121 -103 161 -25 41 -54 84 -66 97 -26 29 -105 144 -122
178 -22 44 -46 67 -74 74 -16 3 -28 2 -28 -3 0 -5 -15 -12 -33 -15 -19 -3 -51
-22 -73 -41 -38 -34 -187 -115 -211 -115 -7 0 -13 4 -13 8 0 5 -16 26 -35 48
-41 45 -42 50 -15 57 11 3 23 13 26 24 4 10 17 29 31 43 44 47 74 102 79 148
3 26 7 49 10 53 17 28 -2 323 -26 409 -12 41 -21 85 -21 96 0 12 -10 41 -24
65 -13 24 -38 69 -54 99 -72 136 -276 243 -396 208z m130 -111 c36 -6 184
-121 185 -143 0 -6 6 -17 14 -23 8 -7 17 -27 20 -46 4 -19 11 -35 15 -35 5 0
11 -10 14 -22 3 -13 13 -52 22 -87 8 -36 13 -71 11 -78 -3 -7 -1 -15 4 -18 5
-3 8 -79 7 -173 -3 -149 -5 -171 -25 -207 -41 -77 -100 -126 -177 -151 -51
-15 -67 -16 -138 -6 -44 6 -88 19 -97 27 -9 8 -22 15 -28 15 -28 0 -90 51
-125 102 -78 113 -117 264 -119 465 -1 98 1 126 14 140 8 10 26 43 40 73 14
30 45 77 69 103 38 41 54 51 112 66 51 13 81 15 115 9 26 -4 56 -9 67 -11z
m641 -1115 c15 -10 74 -99 74 -110 0 -6 3 -12 8 -14 21 -9 159 -205 155 -219
-1 -4 9 -17 22 -29 14 -13 25 -27 25 -32 0 -5 11 -21 24 -35 14 -15 27 -37 31
-50 3 -14 31 -64 63 -113 57 -87 88 -137 107 -172 5 -10 13 -18 17 -18 5 0 8
-5 8 -11 0 -6 17 -37 39 -69 l38 -58 -34 -31 c-18 -17 -37 -31 -41 -31 -5 0
-18 -13 -30 -30 -13 -16 -27 -30 -32 -30 -5 0 -41 -20 -80 -45 -39 -25 -75
-45 -80 -45 -6 0 -27 -11 -48 -23 -20 -13 -43 -22 -49 -20 -7 3 -13 0 -13 -6
0 -6 -7 -11 -15 -11 -15 0 -135 -61 -162 -82 -8 -7 -27 5 -60 38 -26 25 -47
50 -46 55 2 5 -2 9 -7 9 -6 0 -15 11 -20 24 -5 13 -24 44 -42 68 -18 24 -46
75 -61 113 -44 108 -50 118 -79 143 -16 13 -28 30 -28 38 0 8 -4 14 -10 14 -8
0 -60 100 -60 115 0 3 -12 22 -28 44 -15 21 -36 58 -47 82 -11 24 -22 46 -25
49 -3 3 -15 27 -28 54 l-23 49 23 26 c13 14 40 42 60 62 23 22 39 50 43 72 6
32 24 48 55 52 3 0 19 10 35 21 17 12 59 36 95 54 36 18 72 38 80 45 19 17
112 64 125 65 6 0 15 -4 21 -8z"/>
<path d="M896 3385 c-34 -31 -33 -47 5 -79 35 -30 38 -30 61 -13 30 23 32 60
4 90 -31 33 -36 33 -70 2z"/>
<path d="M991 3073 c-8 -3 -29 -19 -47 -35 l-32 -30 18 -53 c10 -29 23 -62 29
-73 14 -26 68 -59 108 -65 26 -4 36 1 63 31 29 33 32 41 27 84 -6 51 -27 79
-85 113 -17 11 -32 23 -32 27 0 9 -28 9 -49 1z"/>
</g>
</svg>
