<?xml version="1.0" standalone="no"?>
<!DOCTYPE svg PUBLIC "-//W3C//DTD SVG 20010904//EN"
 "http://www.w3.org/TR/2001/REC-SVG-20010904/DTD/svg10.dtd">
<svg version="1.0" xmlns="http://www.w3.org/2000/svg"
 width="459.000000pt" height="443.000000pt" viewBox="0 0 459.000000 443.000000"
 preserveAspectRatio="xMidYMid meet">
<metadata>
Created by potrace 1.16, written by Peter Selinger 2001-2019
</metadata>
<g transform="translate(0.000000,443.000000) scale(0.100000,-0.100000)"
fill="#000000" stroke="none">
<path d="M2436 4423 c-1 -1 -33 -3 -71 -4 -39 -1 -74 -5 -80 -9 -5 -4 -32 -10
-60 -12 -48 -4 -125 -27 -245 -71 -30 -11 -62 -21 -70 -22 -8 -1 -28 -7 -43
-14 -16 -6 -31 -11 -34 -11 -3 0 -42 -21 -87 -46 -74 -42 -147 -106 -287 -249
-21 -22 -54 -69 -72 -105 -17 -36 -35 -67 -40 -68 -4 -2 -5 -8 -1 -13 3 -5 1
-9 -4 -9 -11 0 -32 -45 -32 -68 0 -15 -30 -81 -54 -121 -5 -8 -10 -29 -12 -48
-2 -19 -10 -48 -19 -65 -8 -17 -15 -35 -15 -40 0 -5 -11 -33 -25 -62 -31 -65
-60 -174 -85 -322 -10 -60 -24 -123 -31 -140 -7 -16 -11 -37 -10 -46 1 -9 -3
-36 -10 -60 -7 -24 -13 -56 -14 -73 -1 -16 -3 -32 -4 -35 -4 -8 -11 -43 -14
-70 -2 -14 -8 -34 -13 -45 -9 -18 -10 -32 -5 -76 1 -16 83 -79 104 -79 7 0 28
-10 47 -22 70 -42 101 -58 115 -58 9 0 23 -4 33 -9 51 -25 92 -40 132 -49 25
-6 66 -16 92 -21 26 -6 65 -11 88 -11 44 0 44 0 134 -101 21 -24 58 -55 81
-70 34 -21 42 -33 43 -55 0 -16 5 -30 11 -32 6 -2 11 -10 11 -17 0 -7 7 -26
15 -41 17 -32 19 -54 7 -54 -18 0 -163 -136 -154 -145 3 -3 -3 -8 -14 -11 -10
-3 -28 -17 -39 -31 -11 -14 -32 -37 -47 -52 -33 -34 -103 -167 -112 -213 -9
-47 -43 -73 -161 -123 -68 -28 -109 -47 -125 -56 -8 -5 -26 -14 -39 -19 -111
-48 -203 -104 -284 -172 -18 -15 -35 -28 -39 -28 -5 0 -8 -7 -8 -15 0 -8 -6
-15 -13 -15 -6 0 -18 -13 -25 -28 -6 -16 -20 -37 -31 -48 -10 -11 -30 -39 -44
-61 -14 -22 -31 -46 -39 -54 -7 -8 -14 -21 -16 -29 -2 -8 -19 -46 -37 -85 -30
-62 -75 -173 -82 -200 -17 -74 -50 -181 -55 -186 -4 -3 -12 -29 -18 -59 -6
-30 -14 -56 -19 -59 -4 -4 -11 -19 -15 -36 -20 -86 -12 -105 44 -105 29 0 40
4 40 15 0 8 4 15 8 15 5 0 9 6 10 13 0 6 8 31 16 54 9 23 13 48 10 56 -8 21
46 211 86 302 9 22 25 60 35 85 9 25 21 52 26 60 4 8 18 35 30 60 12 25 35 61
49 80 15 19 37 55 50 79 26 52 72 97 160 155 61 40 227 132 295 164 17 7 38
17 47 23 10 5 24 9 31 9 8 0 35 11 61 25 30 16 46 20 47 12 2 -52 9 -116 14
-137 8 -28 19 -93 34 -189 9 -61 47 -151 63 -151 5 0 8 -5 8 -10 0 -6 9 -21
21 -33 12 -12 32 -40 46 -62 14 -22 43 -66 65 -98 66 -99 142 -240 143 -267 0
-23 84 -19 113 5 12 11 22 25 22 32 0 7 6 13 13 13 7 0 13 10 14 21 1 12 12
32 24 45 11 12 18 27 15 32 -3 6 -3 12 1 14 5 1 19 25 33 53 14 27 44 75 67
105 23 31 54 80 68 108 14 28 41 71 59 96 19 24 39 53 46 65 6 13 40 59 76
104 89 113 101 127 111 127 11 0 73 -54 73 -64 0 -6 62 -89 80 -106 7 -6 41
-59 56 -85 6 -11 26 -47 44 -80 18 -33 38 -67 45 -75 6 -8 26 -44 43 -80 51
-104 70 -121 119 -105 13 4 23 18 27 38 3 18 8 43 11 57 3 14 9 26 15 28 5 2
10 10 10 18 0 8 4 14 8 14 4 0 13 12 19 28 36 81 201 327 264 391 8 9 23 32
32 52 9 20 23 42 32 49 8 7 15 21 15 32 0 17 5 19 33 13 17 -4 54 -20 80 -36
27 -16 59 -32 73 -35 13 -3 27 -10 30 -15 3 -5 13 -9 23 -9 9 0 23 -6 29 -12
7 -7 16 -13 20 -13 20 -2 52 -18 52 -26 0 -5 9 -9 20 -9 11 0 20 -7 20 -16 0
-8 4 -13 9 -10 25 16 181 -150 181 -193 0 -16 22 -54 38 -64 6 -4 12 -15 12
-22 0 -8 4 -15 9 -15 8 0 12 -16 27 -90 2 -8 14 -62 28 -120 14 -58 28 -121
31 -140 4 -19 11 -57 15 -85 5 -27 16 -88 25 -134 8 -45 12 -88 9 -93 -4 -5
-2 -20 4 -31 6 -12 13 -30 16 -39 5 -18 48 -24 80 -12 24 9 31 69 13 112 -8
20 -19 66 -25 102 -44 270 -131 598 -173 649 -11 13 -18 30 -15 38 3 7 1 13
-4 13 -5 0 -11 9 -15 19 -3 10 -16 30 -29 42 -13 13 -41 45 -64 71 -22 26 -43
44 -46 41 -3 -4 -6 -1 -6 4 0 12 -84 68 -133 90 -16 7 -40 22 -54 33 -14 11
-33 20 -42 20 -18 0 -124 51 -129 63 -2 4 -8 7 -14 7 -5 0 -25 7 -44 16 -33
16 -35 19 -33 68 3 55 -15 107 -63 189 -15 26 -28 51 -28 56 0 4 -16 22 -35
40 -19 17 -35 35 -35 39 0 10 -73 66 -140 107 -30 19 -60 38 -66 44 -19 16
-73 41 -89 41 -33 0 -6 103 37 139 42 35 56 50 106 109 39 45 46 50 59 37 17
-17 32 -18 82 -6 46 12 152 31 205 37 22 3 45 9 51 13 9 8 54 18 93 23 8 1 26
13 42 28 16 15 32 25 35 22 3 -3 5 -1 5 5 0 6 10 13 23 17 12 3 24 6 27 8 11
4 30 27 30 36 0 5 10 13 22 19 15 6 21 19 22 41 1 18 -2 32 -5 32 -7 0 -82
222 -85 250 -1 8 -9 35 -17 60 -8 25 -18 58 -21 74 -4 15 -15 40 -24 54 -9 14
-17 30 -17 36 -2 21 -16 71 -26 89 -14 26 -45 114 -64 182 -9 33 -25 78 -35
100 -10 22 -20 54 -23 70 -3 17 -10 42 -16 58 -6 15 -9 27 -7 27 9 0 -36 126
-50 141 -9 10 -17 23 -19 31 -8 36 -18 58 -25 58 -5 0 -6 9 -3 20 3 12 -1 26
-9 33 -8 7 -25 37 -38 67 -14 30 -33 61 -42 68 -10 7 -18 19 -18 26 0 6 -8 22
-17 34 -26 33 -172 182 -178 182 -3 0 -31 19 -62 43 -30 23 -71 50 -89 60 -19
9 -34 21 -34 25 0 4 -17 14 -37 21 -21 7 -47 16 -58 20 -120 47 -226 69 -353
73 -63 2 -115 2 -116 1z m240 -112 c22 -5 68 -17 104 -26 85 -21 130 -37 130
-47 0 -4 11 -8 25 -8 15 0 25 -6 25 -15 0 -8 10 -20 23 -26 12 -7 24 -15 27
-18 3 -3 31 -25 63 -49 31 -23 57 -47 57 -52 0 -6 6 -10 13 -10 7 0 19 -8 28
-17 8 -10 36 -36 60 -59 25 -23 51 -55 58 -73 8 -17 17 -31 22 -31 5 0 9 -5 9
-11 0 -7 16 -45 35 -85 19 -40 35 -77 35 -83 0 -6 4 -11 8 -11 4 0 14 -21 21
-47 7 -27 20 -58 27 -70 8 -13 11 -23 8 -23 -4 0 1 -9 11 -20 10 -11 14 -20 9
-20 -5 0 -3 -4 3 -8 7 -4 15 -25 17 -46 3 -21 9 -43 14 -50 5 -6 9 -18 10 -26
0 -20 21 -77 43 -121 11 -20 19 -44 19 -54 0 -15 31 -100 51 -137 5 -10 9 -27
9 -38 0 -11 5 -20 10 -20 6 0 9 -3 8 -7 -2 -10 13 -64 21 -78 3 -5 7 -19 8
-30 2 -11 8 -24 13 -29 6 -6 10 -20 10 -32 0 -12 7 -35 15 -50 8 -16 15 -36
15 -44 0 -8 12 -46 25 -85 14 -38 28 -94 31 -122 5 -48 4 -53 -14 -53 -11 0
-22 -3 -24 -7 -15 -34 -172 -102 -235 -103 -18 0 -55 -5 -83 -11 -28 -6 -59
-7 -68 -3 -9 4 -20 6 -24 6 -11 -3 -10 16 1 22 4 3 18 34 30 68 12 35 31 81
41 104 11 23 22 61 25 85 2 24 9 78 15 119 17 113 -3 404 -35 500 -8 25 -17
61 -19 80 -10 70 -31 175 -39 187 -4 6 -3 15 3 18 8 5 8 11 1 19 -6 7 -17 37
-24 67 -13 49 -27 87 -60 161 -23 54 -99 44 -111 -14 -7 -35 -34 -48 -51 -25
-7 10 -17 17 -23 17 -6 0 -14 10 -17 23 -4 12 -18 46 -31 75 -13 28 -25 71
-28 95 -6 67 -25 104 -58 111 -20 4 -34 0 -47 -13 -11 -11 -17 -22 -14 -25 20
-19 -69 -155 -162 -249 -104 -104 -309 -221 -445 -253 -41 -10 -79 -21 -85
-25 -5 -4 -39 -12 -75 -19 -36 -6 -73 -16 -84 -22 -25 -13 -232 -22 -281 -11
-41 9 -54 28 -39 61 4 9 8 22 8 27 1 6 6 19 13 30 9 16 8 28 -2 53 -11 26 -20
32 -44 32 -16 0 -33 -6 -38 -12 -16 -26 -56 -145 -69 -204 -2 -12 -11 -38 -20
-59 -8 -20 -13 -40 -10 -43 3 -3 2 -10 -4 -16 -5 -7 -13 -30 -19 -51 -5 -22
-19 -70 -29 -107 -11 -37 -17 -70 -14 -73 3 -3 1 -5 -4 -5 -5 0 -10 -19 -10
-42 -1 -89 -8 -184 -15 -216 -4 -17 -3 -35 2 -38 5 -3 8 -15 8 -27 -3 -57 38
-228 79 -333 l20 -50 -56 7 c-95 11 -257 72 -352 132 -65 41 -67 43 -63 77 3
19 7 42 10 50 4 8 5 21 4 28 -1 6 2 12 6 12 4 0 8 10 9 23 1 12 5 40 9 62 4
22 9 54 11 70 2 17 10 66 19 110 9 44 18 103 20 131 3 28 14 79 25 115 11 35
20 72 20 82 0 9 5 17 10 17 6 0 10 7 10 15 0 8 4 23 9 33 11 20 33 87 51 152
6 25 19 61 28 80 9 19 16 37 17 40 3 9 25 65 42 105 79 184 309 416 450 454
21 6 47 17 59 25 12 8 53 24 92 35 40 11 76 22 81 25 5 3 26 8 47 12 22 3 44
9 49 14 6 4 42 11 80 14 39 4 99 10 135 14 83 9 216 6 266 -7z m302 -520 c17
-38 50 -87 72 -110 22 -22 40 -37 40 -34 0 3 17 -12 39 -35 21 -22 57 -50 80
-61 22 -12 41 -26 41 -32 0 -6 4 -8 9 -4 18 10 22 -5 42 -145 6 -41 14 -82 19
-90 4 -9 11 -36 15 -60 4 -25 11 -52 16 -61 4 -9 11 -47 13 -85 17 -223 17
-240 2 -304 -9 -36 -16 -84 -16 -108 0 -27 -12 -69 -34 -115 -18 -39 -41 -91
-51 -114 -10 -24 -21 -43 -24 -43 -4 0 -20 -22 -36 -50 -37 -64 -210 -220
-243 -220 -4 0 -25 -9 -47 -20 -22 -11 -47 -20 -57 -20 -10 0 -18 -4 -18 -8 0
-9 -21 -21 -80 -45 -72 -30 -97 -36 -160 -40 -76 -4 -300 17 -326 31 -19 10
-41 18 -57 21 -4 0 -20 7 -35 15 -15 7 -63 26 -107 41 -104 35 -179 77 -234
131 -24 24 -49 44 -54 44 -6 0 -8 3 -4 6 3 3 -10 22 -29 42 -19 19 -34 43 -34
53 0 10 -5 21 -11 25 -13 7 -79 143 -79 161 0 6 -5 24 -11 40 -6 15 -13 48
-16 72 -2 24 -8 52 -13 61 -12 22 -12 197 0 275 8 51 26 137 45 208 3 9 7 25
9 35 2 9 11 33 20 54 17 40 35 47 119 47 26 0 51 2 55 5 5 3 25 1 46 -4 29 -6
68 -2 154 16 123 26 316 79 344 95 10 5 26 9 35 9 18 0 34 8 108 50 22 12 67
37 101 55 33 18 74 41 90 51 49 31 153 135 185 186 17 26 34 48 38 48 4 0 22
-31 39 -69z m213 -62 c11 -5 17 -14 14 -20 -4 -5 -1 -9 6 -9 7 0 9 -3 6 -7
-10 -9 -57 18 -57 34 0 16 5 16 31 2z m-1105 -1759 c7 0 29 -8 51 -19 118 -57
223 -79 376 -80 140 0 188 11 370 89 48 21 87 36 87 34 0 -1 -6 -31 -14 -66
-8 -35 -15 -97 -15 -138 -1 -42 -7 -77 -13 -81 -7 -4 -4 -9 8 -12 17 -4 17 -6
-3 -12 -13 -4 -23 -15 -23 -25 0 -9 -29 -45 -65 -78 -36 -34 -65 -65 -65 -68
0 -3 -49 -55 -109 -116 -119 -120 -130 -124 -178 -72 -12 13 -26 24 -31 24 -9
0 -69 48 -106 85 -30 29 -109 85 -121 85 -6 0 -22 12 -37 28 -43 45 -86 82
-95 82 -12 0 -93 78 -93 90 0 5 4 12 10 15 13 8 5 147 -13 212 -8 29 -12 54
-10 57 2 2 20 -5 41 -15 20 -11 42 -19 48 -19z m1094 -178 c86 -59 150 -113
150 -127 0 -6 12 -21 26 -34 14 -13 23 -30 20 -38 -3 -7 0 -13 7 -13 31 0 66
-200 39 -220 -4 -3 -18 -30 -32 -60 -25 -56 -61 -111 -106 -165 -14 -16 -58
-79 -98 -140 -40 -60 -85 -128 -100 -150 -15 -22 -36 -59 -47 -83 -11 -23 -24
-40 -28 -38 -10 6 -40 67 -39 80 0 5 -4 12 -9 15 -10 8 -28 38 -70 121 -33 64
-45 82 -110 162 -18 22 -41 53 -50 69 -10 16 -22 29 -29 29 -6 0 -19 9 -29 20
-17 19 -17 21 1 42 32 37 219 221 266 260 23 20 54 46 66 57 33 28 43 81 36
188 l-7 91 34 -7 c19 -4 68 -31 109 -59z m-1264 -55 c-5 -30 -2 -52 8 -71 17
-33 96 -126 107 -126 8 0 71 -39 94 -58 6 -4 36 -25 67 -46 32 -21 73 -52 91
-69 18 -18 58 -50 90 -72 31 -22 57 -45 57 -50 0 -6 9 -16 20 -23 24 -14 27
-60 5 -68 -8 -4 -15 -11 -15 -18 0 -6 -12 -24 -27 -41 -27 -29 -45 -54 -59
-85 -4 -8 -23 -37 -43 -65 -20 -27 -47 -70 -60 -95 -27 -49 -81 -132 -91 -140
-4 -3 -17 -25 -30 -49 -12 -24 -30 -53 -40 -63 -10 -11 -21 -32 -25 -46 -3
-14 -20 -43 -37 -65 l-31 -39 -41 74 c-23 41 -57 97 -77 124 -19 27 -47 69
-62 94 -15 25 -40 61 -57 80 -17 19 -40 52 -51 72 -19 38 -48 150 -57 223 -2
22 -8 45 -12 50 -4 6 -7 73 -6 150 2 146 8 171 59 229 9 11 17 24 17 30 0 9
198 206 207 206 3 0 2 -19 -1 -43z"/>
<path d="M2774 3341 c-70 -25 -101 -48 -106 -76 -5 -25 17 -55 41 -55 12 0 63
20 101 39 30 16 116 5 140 -17 28 -26 71 -37 81 -21 4 7 5 17 3 21 -3 4 0 8 5
8 6 0 9 10 7 23 -3 12 -5 31 -5 41 -1 11 -4 17 -7 13 -3 -3 -26 5 -51 19 -56
30 -135 32 -209 5z"/>
<path d="M2030 3275 c-39 -22 -70 -35 -84 -35 -17 0 -41 -31 -41 -50 0 -8 6
-24 12 -34 10 -17 15 -18 59 -7 27 7 52 18 56 24 4 7 29 12 56 12 37 0 58 -7
88 -27 47 -33 65 -35 87 -10 11 12 14 26 8 52 -7 35 -20 44 -116 75 -41 14
-101 14 -125 0z"/>
<path d="M2813 3140 c-35 -14 -32 -71 5 -92 58 -33 99 28 53 80 -20 24 -25 25
-58 12z"/>
<path d="M2051 3091 c-14 -9 -20 -75 -9 -86 3 -3 23 -9 43 -12 27 -4 36 -3 31
5 -4 6 -1 20 5 31 10 15 9 24 -4 45 -18 27 -41 33 -66 17z"/>
<path d="M2490 2810 c0 -5 -9 -10 -19 -10 -10 0 -21 -7 -25 -15 -6 -18 -57
-20 -73 -4 -16 16 -73 -8 -73 -30 0 -10 14 -30 31 -47 25 -24 38 -29 77 -28
76 3 96 8 120 32 28 30 28 61 -2 90 -26 24 -36 28 -36 12z"/>
<path d="M2862 2512 c-36 -38 -86 -72 -106 -72 -9 0 -16 -5 -16 -10 0 -13 -48
-33 -74 -32 -11 1 -28 -4 -38 -9 -73 -39 -296 -38 -393 1 -11 5 -32 11 -46 14
-31 7 -109 73 -109 92 0 24 -68 20 -86 -4 -22 -30 -9 -58 63 -127 56 -53 284
-114 402 -106 14 0 28 -5 33 -11 4 -7 8 -8 8 -3 0 6 21 11 47 13 26 2 52 7 58
12 6 5 33 14 60 20 28 6 66 18 85 26 99 45 159 76 170 89 7 8 21 15 32 15 10
0 16 5 13 10 -3 6 -3 10 2 10 4 0 8 14 8 32 0 24 -7 36 -30 50 -40 24 -52 23
-83 -10z"/>
</g>
</svg>
