<?xml version="1.0" standalone="no"?>
<!DOCTYPE svg PUBLIC "-//W3C//DTD SVG 20010904//EN"
 "http://www.w3.org/TR/2001/REC-SVG-20010904/DTD/svg10.dtd">
<svg version="1.0" xmlns="http://www.w3.org/2000/svg"
 width="397.000000pt" height="369.000000pt" viewBox="0 0 397.000000 369.000000"
 preserveAspectRatio="xMidYMid meet">
<metadata>
Created by potrace 1.16, written by Peter Selinger 2001-2019
</metadata>
<g transform="translate(0.000000,369.000000) scale(0.100000,-0.100000)"
fill="#000000" stroke="none">
<path d="M2240 3493 c-8 -4 -19 -12 -25 -19 -5 -7 -32 -14 -60 -15 -27 -1 -81
-8 -120 -15 -38 -7 -73 -11 -76 -8 -4 2 -10 0 -13 -5 -3 -4 -25 -11 -48 -15
-66 -10 -251 -69 -270 -86 -9 -9 -34 -22 -55 -29 -21 -8 -51 -24 -68 -36 -16
-13 -46 -30 -65 -40 -42 -21 -130 -86 -130 -96 0 -4 -22 -30 -49 -58 -27 -28
-71 -86 -97 -128 -26 -43 -53 -88 -61 -100 -7 -13 -14 -25 -14 -28 0 -2 -16
-34 -35 -70 -19 -37 -34 -75 -34 -86 0 -11 -7 -31 -16 -45 -9 -13 -22 -50 -30
-82 -20 -86 -37 -142 -45 -142 -4 0 -12 12 -18 28 -27 65 -140 87 -231 45 -38
-18 -133 -103 -115 -103 3 0 -1 -12 -9 -27 -19 -39 -16 -235 6 -283 45 -101
74 -157 90 -179 10 -13 18 -31 18 -40 0 -9 9 -22 20 -29 11 -7 20 -17 20 -23
0 -5 5 -15 10 -22 47 -56 60 -74 60 -85 0 -7 7 -15 15 -18 13 -6 31 -41 27
-56 -1 -4 7 -10 18 -13 11 -4 20 -11 20 -17 0 -5 6 -8 13 -5 10 4 14 -5 15
-29 2 -49 41 -280 52 -310 6 -14 21 -49 34 -77 12 -29 29 -70 36 -92 7 -22 34
-81 61 -131 49 -92 115 -165 286 -320 71 -65 179 -144 196 -144 5 0 17 -8 26
-18 9 -10 32 -26 51 -35 19 -10 49 -26 65 -36 17 -10 48 -23 70 -30 22 -7 47
-15 55 -18 31 -12 58 -13 205 -14 83 0 170 5 195 10 25 6 61 13 80 15 19 3 36
10 38 15 2 6 13 11 24 11 72 0 344 122 415 187 21 19 63 53 93 76 57 43 125
111 195 192 22 26 64 72 93 103 28 31 52 60 52 65 0 4 13 27 28 50 28 42 58
107 55 118 -1 3 18 16 42 28 24 12 46 30 49 39 3 10 14 23 23 30 10 6 51 35
92 64 40 29 83 58 94 65 23 13 117 114 117 125 0 4 16 28 35 53 19 25 37 61
41 80 3 20 10 38 15 41 5 2 6 31 4 62 -12 134 -43 202 -93 202 -15 1 -38 7
-51 14 -14 8 -30 12 -36 9 -23 -8 -34 25 -44 138 -5 63 -14 126 -20 141 -5 14
-12 62 -16 106 -3 45 -15 107 -26 139 -11 32 -22 69 -25 83 -3 14 -8 34 -11
45 -4 11 -7 25 -8 30 -1 6 -4 17 -7 25 -4 8 -13 35 -21 60 -9 25 -34 88 -55
139 -38 90 -65 127 -83 115 -5 -3 -6 1 -4 9 3 7 -11 31 -32 54 -21 22 -45 50
-53 62 -8 11 -20 21 -27 21 -7 0 -18 9 -25 20 -7 11 -16 20 -19 20 -3 0 -21
14 -40 30 -72 64 -127 101 -204 139 -122 59 -158 74 -179 72 -11 -2 -16 2 -12
8 4 7 1 8 -8 5 -9 -3 -24 -3 -33 1 -10 5 -24 9 -32 11 -12 2 -34 8 -71 19 -3
1 -35 11 -72 23 -48 15 -75 19 -96 13 -16 -5 -49 -5 -73 0 -50 9 -68 10 -89 2z
m200 -118 c47 -4 93 -12 103 -17 10 -5 26 -11 35 -13 50 -11 172 -49 207 -65
22 -10 53 -22 68 -26 16 -3 34 -15 40 -25 7 -11 17 -19 22 -19 9 0 53 -34 180
-138 6 -5 19 -21 30 -35 11 -15 23 -27 28 -27 4 0 18 -11 30 -24 12 -14 37
-41 55 -61 18 -21 31 -43 28 -51 -3 -8 -1 -14 5 -14 5 0 14 -11 19 -24 5 -13
25 -57 44 -99 20 -41 36 -82 36 -91 0 -8 4 -25 9 -38 18 -47 41 -131 37 -136
-3 -2 2 -18 10 -34 15 -28 18 -47 29 -148 2 -25 7 -57 10 -71 11 -49 25 -205
26 -287 0 -19 -7 -55 -15 -80 -9 -26 -22 -87 -31 -137 -8 -49 -20 -94 -25 -99
-6 -6 -10 -18 -10 -28 0 -10 -4 -18 -8 -18 -5 0 -9 -6 -10 -12 -1 -23 -72
-202 -103 -262 -17 -33 -47 -81 -66 -107 -20 -28 -31 -54 -27 -60 4 -8 3 -9
-4 -5 -7 4 -19 -9 -32 -34 -11 -22 -25 -40 -30 -40 -6 0 -10 -5 -10 -10 0 -32
-259 -310 -288 -310 -6 0 -12 -6 -15 -14 -8 -19 -142 -117 -192 -140 -22 -10
-47 -24 -55 -31 -8 -6 -35 -17 -60 -24 -25 -7 -67 -24 -95 -36 -108 -51 -214
-68 -420 -69 -162 -1 -181 5 -370 117 -16 9 -42 22 -57 28 -16 6 -28 15 -28
20 0 5 -15 16 -32 25 -18 9 -51 37 -73 62 -22 24 -53 56 -68 71 -93 86 -157
154 -157 165 0 8 -7 16 -15 20 -8 3 -15 12 -15 20 0 8 -6 21 -14 28 -17 17
-66 113 -66 129 0 10 -16 50 -66 166 -8 17 -14 41 -14 53 0 11 -9 65 -20 118
-31 153 -38 296 -27 502 15 264 34 390 68 453 6 10 23 71 40 136 24 97 40 136
84 209 30 49 57 101 60 115 4 14 19 39 33 55 15 17 41 47 57 68 51 65 116 121
197 169 43 26 83 43 89 39 8 -4 9 -3 5 4 -4 8 4 16 21 23 15 5 48 20 73 33 25
12 68 29 95 36 28 7 55 17 61 22 6 4 20 7 30 6 18 -2 55 4 209 39 70 16 96 20
148 25 15 1 27 6 27 10 0 4 19 6 43 4 23 -2 80 -7 127 -11z m-1621 -1006 c11
-12 28 -46 37 -75 10 -33 22 -54 31 -54 11 0 13 -9 9 -37 -3 -21 -8 -69 -11
-108 -3 -38 -8 -97 -11 -130 -2 -33 -5 -95 -5 -139 l0 -78 -24 22 c-14 13 -22
26 -20 31 3 4 1 10 -4 14 -15 8 -103 126 -105 139 -1 6 -15 40 -32 76 -39 81
-46 128 -35 219 10 78 28 102 95 128 44 17 53 16 75 -8z m2873 -541 c20 -37
15 -127 -11 -185 -13 -29 -26 -53 -30 -53 -3 0 -19 -23 -36 -50 -16 -28 -33
-50 -37 -50 -4 0 -30 -20 -58 -45 -47 -42 -90 -71 -90 -61 0 2 9 25 20 50 11
26 19 47 18 49 -3 7 18 56 38 87 12 19 25 58 29 85 14 108 16 121 27 152 13
35 23 40 80 42 29 1 40 -4 50 -21z"/>
<path d="M2388 2469 c-2 -6 -46 -17 -99 -25 -52 -7 -122 -25 -155 -38 -67 -27
-136 -42 -239 -51 -38 -4 -78 -11 -88 -17 -11 -5 -28 -8 -38 -5 -10 3 -19 0
-19 -5 0 -6 -12 -8 -30 -5 -54 11 -84 -45 -48 -90 14 -18 78 -16 134 3 25 8
52 13 59 10 8 -3 15 0 17 6 3 7 35 11 81 12 42 1 77 4 77 8 0 7 41 23 53 20 4
-1 7 3 7 8 0 6 6 10 13 10 8 0 39 8 69 18 71 24 84 19 57 -21 -12 -18 -29 -37
-36 -44 -19 -15 -30 -93 -14 -93 6 0 11 -6 11 -13 0 -26 117 -8 188 29 15 8
37 14 49 14 12 0 42 9 68 20 25 11 57 22 69 24 13 2 37 11 53 19 15 8 49 18
73 21 25 3 72 10 105 16 33 7 69 12 80 11 10 0 25 5 31 10 7 6 35 11 63 12 34
1 51 6 51 15 0 7 5 10 11 7 19 -12 50 27 48 60 -4 46 -24 64 -67 59 -73 -8
-106 -16 -159 -39 -29 -13 -80 -29 -111 -35 -31 -5 -89 -22 -127 -36 -39 -15
-101 -34 -140 -44 -38 -10 -83 -23 -98 -29 -41 -16 -44 -14 -19 12 83 83 97
112 67 139 -37 33 -44 37 -47 27z"/>
<path d="M1441 2084 c-24 -31 -26 -43 -8 -50 10 -3 13 -28 13 -87 -1 -108 27
-160 103 -197 28 -14 51 -29 51 -33 0 -5 5 -5 10 -2 6 3 10 1 10 -5 0 -14 120
-6 168 11 18 6 61 39 95 72 58 57 62 63 60 104 -1 41 0 43 26 43 42 0 79 33
74 64 -10 50 -69 66 -109 30 -14 -13 -33 -25 -42 -25 -77 -6 -164 -4 -168 3
-3 4 -9 6 -14 3 -12 -8 -110 15 -110 26 0 5 -5 9 -12 9 -7 0 -28 11 -47 24
-58 39 -76 41 -100 10z m119 -138 c6 -8 21 -16 33 -18 19 -3 20 -4 6 -17 -18
-18 -13 -60 10 -78 9 -7 11 -13 5 -13 -26 0 -70 59 -79 109 -6 33 5 40 25 17z
m269 -41 c5 -3 12 1 14 7 4 9 6 8 6 -2 3 -50 -72 -110 -136 -110 -30 0 -32 2
-23 20 5 11 14 28 19 38 4 9 5 27 0 39 -7 20 -6 21 52 17 33 -2 64 -6 68 -9z
m-159 -101 c0 -8 -4 -12 -10 -9 -5 3 -10 10 -10 16 0 5 5 9 10 9 6 0 10 -7 10
-16z"/>
<path d="M3040 2071 c-14 -4 -41 -14 -60 -23 -58 -27 -210 -38 -353 -28 -51 4
-75 -19 -61 -57 5 -15 18 -29 29 -31 30 -6 35 -14 41 -73 3 -32 11 -57 20 -62
7 -4 14 -16 14 -26 0 -20 44 -70 84 -96 18 -12 38 -15 74 -11 61 7 75 12 137
52 46 29 52 37 68 95 10 35 18 73 17 84 0 11 -2 31 -3 44 -2 19 5 26 28 34 17
5 33 15 37 21 13 19 9 54 -8 70 -16 17 -24 18 -64 7z m-100 -144 c0 -7 -6 -19
-12 -26 -9 -10 -10 -12 -1 -7 7 4 17 -2 23 -14 15 -27 -9 -72 -53 -99 -49 -30
-127 -27 -127 5 0 8 -4 14 -9 14 -5 0 -12 17 -16 38 -4 20 -11 43 -17 50 -12
14 -12 13 22 18 14 1 39 6 55 9 l30 7 -25 -18 c-53 -39 -54 -42 -22 -74 18
-18 41 -30 56 -30 45 0 62 64 26 100 -11 11 -20 21 -20 23 0 1 14 4 32 5 18 2
34 5 37 7 9 10 21 5 21 -8z"/>
<path d="M2005 1630 c-3 -6 -10 -8 -15 -5 -15 9 -18 -19 -9 -85 12 -91 16
-103 39 -130 11 -13 20 -20 20 -17 0 4 19 -2 43 -11 23 -10 47 -17 52 -17 24
4 74 19 118 38 38 16 49 26 54 48 8 41 8 41 -33 58 -36 14 -38 13 -59 -10 -54
-60 -137 -31 -142 51 -4 52 -51 108 -68 80z"/>
<path d="M2758 1268 c-15 -5 -30 -18 -33 -28 -6 -17 -78 -60 -102 -60 -6 0
-15 -6 -21 -13 -6 -7 -26 -14 -44 -15 -18 -1 -46 -7 -63 -12 -124 -38 -150
-42 -204 -36 -66 7 -82 10 -141 27 -25 7 -55 14 -68 15 -12 2 -37 5 -55 8
-119 21 -242 25 -321 10 -44 -9 -88 -18 -96 -21 -8 -4 -26 -8 -39 -10 -13 -2
-30 -10 -37 -18 -15 -15 -53 -29 -60 -23 -8 8 -94 -78 -94 -94 0 -8 -9 -22
-19 -29 -11 -8 -28 -44 -39 -80 -18 -62 -18 -68 -3 -88 22 -29 49 -29 112 -3
15 6 44 14 65 17 54 10 154 43 171 56 9 8 57 10 161 6 164 -7 177 -8 194 -25
7 -7 22 -12 35 -12 13 0 23 -5 23 -11 0 -5 5 -7 11 -4 5 4 18 1 27 -7 64 -53
203 -76 303 -51 54 13 181 71 187 85 2 5 8 8 14 8 32 0 174 207 163 238 -2 6
-1 12 4 12 15 0 63 109 56 129 -8 26 -53 40 -87 29z m-85 -198 c-3 -11 -16
-31 -29 -45 -13 -14 -24 -29 -24 -33 -1 -15 -26 -39 -49 -47 -24 -7 -24 -7
-18 41 7 51 33 84 67 84 10 0 23 7 30 15 16 19 30 11 23 -15z m-939 -12 c-1
-13 -3 -33 -3 -44 -1 -17 -12 -25 -50 -38 -64 -21 -85 -21 -77 0 3 9 6 23 6
32 0 30 17 44 66 58 27 7 52 13 55 13 3 1 5 -9 3 -21z m162 -7 c-2 -14 -5 -39
-5 -56 -1 -17 -4 -25 -9 -18 -4 7 -27 10 -60 8 -58 -3 -62 3 -41 64 11 30 13
31 65 30 52 -2 54 -3 50 -28z m124 2 c8 -4 26 -8 40 -10 13 -2 27 -9 31 -15 7
-10 5 -86 -2 -93 -6 -5 -75 18 -85 28 -4 4 -20 7 -35 7 -18 0 -28 6 -32 20 -3
11 -1 20 3 20 5 0 11 13 15 29 6 29 17 31 65 14z m-459 -66 c-6 -40 -23 -54
-88 -75 -26 -8 -30 -7 -26 4 3 8 9 14 14 14 5 0 9 5 9 11 0 18 88 96 96 86 1
-1 -1 -19 -5 -40z m957 -13 c4 -63 -8 -77 -81 -97 -75 -21 -99 -20 -88 2 5 9
13 45 17 78 7 69 11 72 104 69 l45 -1 3 -51z m-258 32 c29 -1 37 -6 46 -31 6
-16 10 -48 9 -70 -2 -40 -2 -40 -40 -37 -20 2 -58 11 -84 20 -46 18 -46 18
-47 67 -1 28 1 54 3 58 3 4 21 5 41 1 21 -4 53 -8 72 -8z"/>
</g>
</svg>
