<?xml version="1.0" standalone="no"?>
<!DOCTYPE svg PUBLIC "-//W3C//DTD SVG 20010904//EN"
 "http://www.w3.org/TR/2001/REC-SVG-20010904/DTD/svg10.dtd">
<svg version="1.0" xmlns="http://www.w3.org/2000/svg"
 width="487.000000pt" height="411.000000pt" viewBox="0 0 487.000000 411.000000"
 preserveAspectRatio="xMidYMid meet">
<metadata>
Created by potrace 1.16, written by Peter Selinger 2001-2019
</metadata>
<g transform="translate(0.000000,411.000000) scale(0.100000,-0.100000)"
fill="#000000" stroke="none">
<path d="M3656 3869 c-11 -11 -29 -19 -40 -19 -12 0 -26 -4 -32 -8 -14 -9 -38
-107 -31 -131 4 -17 -4 -20 -69 -26 -40 -4 -126 -6 -191 -5 -65 0 -493 -2
-951 -4 l-832 -5 0 39 c0 22 -4 40 -9 40 -5 0 -11 10 -13 23 -2 17 -10 22 -33
23 -17 0 -36 3 -42 7 -15 9 -132 17 -159 11 -23 -6 -23 -5 -30 -86 l-6 -57
-89 -3 c-49 -2 -89 -1 -89 2 0 3 -37 4 -82 3 -46 -2 -238 -5 -427 -8 -189 -2
-347 -8 -351 -12 -4 -4 -10 -20 -14 -34 -14 -61 16 -62 867 -47 103 2 187 -1
187 -5 0 -17 -63 -137 -72 -137 -5 0 -6 -5 -3 -10 3 -6 -3 -22 -13 -38 -11
-15 -21 -31 -21 -37 -1 -5 -10 -28 -21 -50 -25 -55 -29 -67 -57 -170 -51 -185
-58 -252 -58 -534 0 -134 -4 -211 -10 -211 -7 0 -7 -3 0 -8 6 -4 10 -27 10
-52 1 -44 9 -92 18 -107 5 -8 13 -81 22 -208 10 -133 16 -199 21 -206 2 -4 4
-81 5 -170 1 -164 -12 -349 -30 -423 -6 -22 -8 -43 -5 -48 3 -4 -2 -29 -10
-55 -8 -27 -23 -77 -32 -113 -18 -70 -54 -162 -65 -170 -4 -3 -14 -21 -23 -40
-8 -19 -20 -42 -25 -50 -5 -8 -29 -55 -52 -104 -33 -66 -64 -110 -119 -168
-75 -80 -93 -110 -79 -138 4 -8 10 -23 13 -32 4 -12 16 -17 48 -16 23 0 49 4
58 9 42 22 101 26 410 24 184 -2 360 1 390 5 30 5 118 13 194 19 77 6 143 15
146 21 4 6 32 15 64 20 56 9 93 19 169 46 20 8 48 14 62 14 13 0 27 4 30 10 3
5 28 12 55 16 27 4 48 9 46 13 -3 3 12 7 32 8 21 0 71 15 112 33 70 30 169 65
215 77 80 20 108 25 165 30 121 10 345 11 395 2 28 -6 59 -11 70 -12 35 -4
229 -70 245 -83 9 -8 40 -18 70 -25 30 -6 59 -14 63 -19 14 -13 58 2 73 26 14
20 14 28 -1 70 -9 26 -18 75 -21 108 -3 34 -9 77 -14 96 -5 19 -11 85 -14 145
-2 61 -7 117 -10 125 -4 8 -8 89 -9 180 -3 133 0 178 14 230 9 36 18 90 18
120 1 64 4 87 14 96 4 4 7 21 7 38 0 17 11 53 25 80 14 27 25 59 25 70 0 12 9
45 20 73 11 29 22 68 24 86 2 19 14 55 25 80 12 25 21 52 21 59 0 8 4 18 9 24
5 5 14 29 19 54 6 25 24 99 42 165 17 66 34 131 37 145 13 53 6 292 -14 485
-2 22 -3 56 -3 76 0 29 -9 78 -34 184 -2 6 -8 21 -13 35 -6 14 -14 41 -18 60
-4 19 -16 45 -27 57 -13 14 -22 41 -25 80 l-5 58 342 2 c189 2 345 5 347 7 11
11 14 109 4 115 -6 4 -37 4 -69 1 -31 -4 -169 -8 -307 -8 -137 -1 -262 -4
-277 -8 -31 -6 -30 -9 -32 101 -1 66 -9 75 -61 75 -24 0 -54 4 -67 9 -17 6
-28 4 -42 -10z m-153 -292 c52 4 57 3 57 -16 0 -11 -10 -27 -22 -36 -75 -54
-136 -87 -160 -87 -15 -1 -33 -7 -39 -15 -6 -7 -18 -13 -25 -13 -8 0 -14 -4
-14 -8 0 -4 -21 -13 -47 -20 -27 -7 -68 -19 -93 -27 -25 -8 -83 -21 -130 -29
-47 -8 -116 -22 -155 -31 -61 -14 -176 -23 -325 -27 -108 -3 -244 8 -345 26
-16 4 -59 11 -95 17 -36 7 -69 14 -75 18 -5 3 -12 6 -15 7 -28 5 -69 17 -85
25 -12 6 -27 11 -35 13 -8 1 -37 10 -65 21 -43 16 -69 32 -122 75 -6 5 -29 19
-50 31 -73 41 -104 61 -99 67 3 3 415 5 916 5 501 -1 913 3 915 8 3 4 16 5 28
0 12 -4 48 -6 80 -4z m-1970 -123 c4 -7 21 -15 37 -19 17 -4 30 -11 30 -16 0
-5 7 -9 15 -9 7 0 18 -6 22 -13 4 -7 25 -23 46 -36 20 -12 37 -29 37 -37 0 -8
6 -11 15 -8 13 5 70 -16 128 -47 10 -5 22 -7 27 -4 4 3 19 1 32 -4 12 -5 28
-10 33 -11 6 -1 17 -6 25 -10 8 -4 33 -11 55 -14 22 -4 67 -11 100 -17 33 -6
75 -11 94 -10 18 0 41 -4 51 -9 18 -9 292 -24 355 -20 17 2 45 3 63 3 17 0 32
3 32 7 0 4 13 5 29 2 16 -2 60 1 97 8 38 6 83 14 99 16 17 3 59 14 95 24 36
11 76 21 90 23 14 2 38 9 53 15 16 7 35 12 43 12 8 0 22 4 32 9 9 5 44 17 77
27 33 11 62 22 65 25 3 3 13 8 23 12 10 4 16 11 13 16 -7 10 48 25 86 23 18
-1 35 8 57 34 l32 35 57 -12 c59 -12 72 -21 72 -53 0 -11 7 -27 16 -37 8 -9
17 -23 18 -31 3 -12 19 -53 35 -88 4 -8 8 -37 9 -65 2 -27 7 -73 13 -101 5
-28 8 -62 6 -75 -3 -13 -1 -48 4 -78 8 -50 23 -246 21 -281 -1 -33 -7 -60 -12
-60 -3 0 -7 -14 -8 -31 -1 -17 -7 -40 -12 -50 -6 -10 -19 -60 -30 -111 -24
-119 -44 -193 -64 -241 -9 -21 -14 -42 -11 -47 3 -5 -1 -23 -10 -41 -9 -17
-14 -37 -11 -45 3 -8 1 -14 -4 -14 -6 0 -10 -9 -10 -21 0 -11 -5 -30 -12 -42
-7 -12 -13 -31 -15 -41 -2 -11 -8 -25 -14 -32 -5 -6 -9 -16 -8 -20 1 -5 -3
-22 -10 -38 -6 -16 -15 -50 -18 -75 -3 -25 -10 -55 -16 -65 -5 -11 -11 -49
-14 -85 -2 -37 -12 -111 -22 -166 -10 -55 -18 -109 -16 -120 16 -142 18 -184
12 -260 -2 -27 0 -61 5 -74 5 -13 11 -58 13 -100 3 -42 7 -94 10 -116 3 -22 7
-62 10 -88 4 -46 3 -48 -18 -41 -12 4 -24 10 -27 14 -9 13 -45 22 -99 25 -29
2 -61 11 -70 19 -23 20 -83 34 -181 41 -47 3 -112 8 -145 12 -71 7 -54 7 -185
-6 -97 -10 -122 -13 -175 -26 -11 -2 -47 -11 -80 -19 -58 -13 -87 -23 -150
-51 -37 -16 -108 -43 -115 -43 -6 0 -65 -10 -100 -17 -32 -6 -142 -45 -155
-54 -5 -5 -39 -14 -75 -21 -36 -7 -84 -22 -108 -31 -41 -18 -100 -26 -222 -30
-30 -2 -71 -9 -90 -17 -41 -17 -336 -21 -364 -5 -11 6 -36 7 -64 1 -26 -4 -85
-5 -132 -2 -95 7 -196 6 -252 -2 -21 -3 -38 -2 -38 2 0 4 18 26 40 50 21 23
42 55 46 71 4 15 17 42 30 58 26 34 84 160 84 181 0 8 4 14 8 14 10 0 34 54
53 115 6 22 15 49 20 60 17 45 30 96 33 132 2 21 5 45 9 53 14 36 26 89 33
140 10 74 11 567 2 605 -4 16 -10 81 -13 145 -3 63 -8 123 -11 134 -4 10 -7
35 -9 55 -2 20 -8 49 -15 66 -6 17 -11 79 -10 145 2 230 8 436 15 470 3 19 8
44 10 55 2 11 4 20 5 20 1 0 3 9 5 19 11 58 39 162 46 171 4 6 10 22 12 36 7
37 59 148 100 212 37 57 37 57 86 57 27 0 62 -5 76 -10 20 -7 34 -7 53 3 29
14 52 11 65 -9z"/>
</g>
</svg>
