<?xml version="1.0" standalone="no"?>
<!DOCTYPE svg PUBLIC "-//W3C//DTD SVG 20010904//EN"
 "http://www.w3.org/TR/2001/REC-SVG-20010904/DTD/svg10.dtd">
<svg version="1.0" xmlns="http://www.w3.org/2000/svg"
 width="565.000000pt" height="475.000000pt" viewBox="0 0 565.000000 475.000000"
 preserveAspectRatio="xMidYMid meet">
<metadata>
Created by potrace 1.16, written by Peter Selinger 2001-2019
</metadata>
<g transform="translate(0.000000,475.000000) scale(0.100000,-0.100000)"
fill="#000000" stroke="none">
<path d="M3736 4508 c-15 -29 -15 -33 -1 -40 8 -5 15 -16 15 -23 0 -8 4 -15
10 -15 5 0 22 -19 37 -42 16 -24 41 -56 56 -73 15 -16 35 -42 43 -57 8 -15 23
-32 34 -38 11 -6 20 -15 20 -21 0 -6 9 -23 20 -37 11 -15 46 -61 78 -102 31
-41 62 -82 67 -91 33 -53 115 -167 129 -178 9 -7 16 -18 16 -23 0 -9 39 -65
105 -151 23 -29 58 -76 80 -106 l39 -54 -40 27 c-58 39 -65 41 -93 25 -18 -10
-27 -25 -29 -46 -3 -34 22 -73 48 -73 18 0 140 -88 140 -101 0 -5 6 -9 14 -9
8 0 21 -6 28 -13 7 -7 36 -29 63 -49 28 -20 57 -48 65 -62 7 -14 21 -26 31
-26 10 0 22 -7 26 -14 7 -12 17 -13 53 -5 50 11 62 23 50 53 -4 12 -11 44 -15
71 -9 65 -51 223 -63 238 -5 7 -10 19 -10 27 -1 25 -7 44 -22 70 -8 14 -14 28
-15 32 0 3 -3 10 -7 14 -5 4 -8 14 -8 22 0 8 -11 30 -26 49 -34 45 -77 46
-100 2 -9 -18 -12 -34 -7 -38 8 -6 12 -131 3 -131 -3 0 -27 30 -55 66 -27 36
-58 73 -67 82 -10 9 -18 20 -18 25 0 4 -11 20 -25 35 -14 15 -25 33 -25 40 0
7 -12 25 -27 40 -27 26 -47 53 -88 122 -11 18 -38 56 -60 84 -22 28 -51 67
-65 86 -13 19 -41 56 -62 81 -21 25 -38 50 -38 57 0 6 -6 15 -14 19 -8 4 -50
60 -95 123 -44 63 -87 125 -96 138 -11 15 -26 22 -50 22 -28 0 -36 -5 -49 -32z"/>
<path d="M5061 2899 c-107 -58 -227 -167 -277 -252 -64 -109 -91 -226 -87
-381 2 -56 7 -74 28 -101 14 -19 25 -36 25 -39 0 -3 15 -21 33 -39 30 -32 84
-61 117 -63 46 -3 52 -14 44 -78 -4 -33 -8 -69 -8 -79 0 -17 -7 -18 -88 -12
-53 4 -111 1 -147 -6 -52 -10 -61 -15 -70 -40 -5 -16 -16 -29 -24 -29 -8 0
-17 -6 -20 -14 -6 -14 -84 -56 -105 -56 -7 0 -12 -3 -13 -7 0 -5 -2 -35 -5
-68 -5 -68 -29 -220 -45 -280 l-11 -39 -20 27 c-11 15 -24 25 -28 22 -5 -3
-11 -1 -15 5 -3 5 -14 10 -25 10 -23 0 -30 19 -30 85 0 30 -4 65 -10 80 -13
33 -31 149 -32 199 0 29 -7 46 -26 63 -14 12 -29 23 -33 23 -5 0 -9 8 -9 18 0
29 -21 42 -69 42 -26 0 -69 3 -97 6 l-51 6 10 39 c5 22 14 39 19 39 5 0 6 5 3
10 -3 6 4 10 17 10 24 0 50 16 136 85 50 40 134 154 131 177 -2 21 13 58 23
58 6 0 8 11 6 25 -3 14 -2 25 2 25 8 0 29 68 50 158 9 40 9 64 1 100 -7 26
-11 51 -11 56 1 5 -2 12 -7 15 -4 3 -16 23 -27 43 -11 22 -40 50 -73 72 -45
29 -66 36 -121 40 -37 2 -78 8 -91 13 -37 15 -112 -27 -188 -105 -94 -95 -128
-152 -188 -313 -21 -55 -3 -205 30 -253 8 -11 15 -29 15 -38 0 -23 116 -136
144 -140 17 -2 21 -9 19 -38 -1 -19 -6 -48 -12 -64 l-11 -28 -75 5 c-42 3 -80
9 -85 12 -12 7 -50 -14 -68 -37 -7 -10 -19 -18 -27 -18 -8 0 -31 -9 -51 -21
-20 -11 -43 -18 -51 -15 -32 13 -138 -55 -119 -75 10 -11 15 -158 6 -164 -6
-4 -8 -10 -6 -14 3 -4 -4 -56 -14 -116 -11 -60 -20 -113 -20 -119 0 -6 -8 1
-17 14 -10 14 -29 38 -43 53 -14 16 -26 36 -27 45 -8 61 -23 123 -33 137 -4 6
-10 28 -13 50 -23 187 -30 220 -51 238 -30 27 -60 37 -103 33 -46 -4 -84 11
-79 33 8 42 21 51 102 77 77 25 89 32 127 78 23 28 56 65 74 82 17 18 30 34
27 37 -3 3 0 16 7 29 7 12 14 29 15 35 4 21 29 73 35 73 6 0 17 55 23 115 2
17 4 32 6 35 1 3 2 9 1 14 -1 4 3 22 8 40 16 49 15 186 -1 186 -4 0 -8 6 -8
13 0 21 -44 67 -68 72 -30 5 -43 15 -37 26 12 18 -25 40 -71 43 -52 4 -122
-11 -145 -30 -8 -8 -20 -14 -25 -14 -5 0 -23 -13 -40 -29 -17 -16 -45 -36 -62
-45 -18 -9 -40 -29 -49 -43 -10 -15 -33 -42 -50 -60 -18 -18 -33 -36 -33 -41
0 -5 -11 -22 -25 -38 -14 -16 -25 -35 -25 -42 0 -7 -4 -20 -9 -30 -5 -9 -12
-24 -15 -32 -3 -8 -10 -22 -15 -30 -5 -8 -19 -48 -31 -87 -25 -82 -22 -140 11
-209 25 -54 84 -112 136 -136 35 -15 41 -22 37 -43 -2 -13 0 -27 6 -30 5 -3
10 -15 10 -26 0 -15 -7 -19 -27 -18 -33 0 -174 -10 -219 -17 -17 -2 -39 -12
-50 -22 -26 -24 -146 -82 -170 -82 -30 0 -43 -32 -45 -109 -1 -39 -5 -71 -10
-71 -9 0 -21 -54 -24 -109 -4 -62 -2 -60 -38 -47 -66 23 -93 51 -112 118 -21
76 -34 167 -25 173 13 8 -2 100 -18 113 -26 20 -122 40 -199 41 -20 1 -23 6
-23 40 l0 38 60 6 c33 4 78 16 100 27 21 11 44 20 50 20 14 0 80 49 100 74 8
10 25 30 38 43 65 69 106 227 104 396 -1 101 -8 124 -54 172 -10 11 -26 29
-36 41 -31 37 -98 63 -171 68 -38 2 -75 7 -81 11 -17 10 -68 -13 -130 -59 -63
-46 -95 -81 -129 -140 -13 -22 -27 -43 -30 -46 -4 -3 -24 -43 -44 -90 -31 -72
-36 -98 -39 -170 -3 -101 3 -170 14 -170 4 0 8 -5 8 -11 0 -22 73 -107 107
-126 32 -17 34 -21 29 -58 -3 -22 -5 -46 -5 -53 -1 -10 -18 -13 -68 -11 -38 1
-75 6 -83 10 -19 9 -80 -15 -80 -32 0 -6 -7 -8 -16 -5 -17 6 -54 -19 -54 -36
0 -10 -54 -59 -113 -101 -23 -17 -46 -36 -50 -44 -4 -7 -13 -13 -20 -13 -29
-1 -55 -65 -64 -160 -2 -25 -8 -47 -13 -48 -6 -2 -8 -8 -5 -12 9 -15 -6 -60
-20 -60 -21 0 -66 46 -70 71 -10 78 -25 153 -34 162 -14 18 -43 126 -46 172
-3 56 -13 83 -33 89 -9 2 -55 7 -102 11 -47 4 -89 10 -95 14 -5 5 -28 12 -50
16 -55 10 -57 12 -40 51 14 34 15 37 15 52 0 4 35 8 79 9 77 3 140 21 168 49
8 8 20 14 27 14 28 0 117 106 172 205 6 11 21 37 33 59 25 45 55 151 46 166
-3 6 -1 10 6 10 19 0 5 110 -20 150 -11 19 -21 41 -21 48 0 23 -78 98 -132
127 -64 35 -162 44 -227 22 -24 -9 -49 -13 -55 -11 -7 3 -30 -3 -52 -13 -21
-9 -42 -16 -46 -15 -5 1 -7 -1 -6 -6 1 -4 -28 -36 -64 -72 -44 -45 -75 -87
-97 -135 -50 -106 -61 -137 -66 -195 -1 -14 -5 -48 -9 -75 -14 -101 -14 -110
5 -142 11 -17 26 -34 34 -37 8 -3 15 -13 15 -21 0 -9 5 -13 10 -10 6 4 26 -6
44 -22 18 -15 40 -32 49 -38 14 -8 15 -17 6 -55 -15 -65 -36 -93 -62 -85 -37
11 -41 12 -72 20 -16 4 -42 14 -58 22 -21 11 -32 11 -49 2 -33 -18 -40 -27
-82 -108 -21 -41 -54 -89 -73 -107 -19 -19 -63 -77 -99 -131 -72 -108 -73
-116 -50 -254 8 -46 16 -106 17 -134 3 -73 13 -87 57 -83 l37 3 -2 85 c-1 47
-8 124 -14 172 -11 82 -11 87 9 113 12 15 22 33 22 39 0 6 11 23 24 37 13 14
29 35 35 47 18 34 31 17 25 -36 -2 -26 -6 -83 -9 -127 -2 -44 -8 -102 -14
-130 -6 -27 -9 -55 -7 -62 3 -6 1 -13 -4 -15 -5 -2 -11 -46 -14 -98 -3 -78 -1
-100 14 -125 9 -16 20 -50 24 -75 10 -68 35 -138 67 -186 28 -41 60 -106 65
-131 1 -7 -11 -43 -26 -80 -16 -38 -31 -79 -33 -93 -3 -14 -10 -38 -17 -55 -6
-16 -13 -37 -15 -45 -2 -8 -8 -30 -14 -48 -5 -18 -10 -36 -11 -40 0 -4 -6 -25
-12 -47 -7 -22 -13 -44 -14 -50 -5 -26 -17 -55 -23 -55 -4 0 -8 -15 -9 -33 -5
-69 65 -90 206 -62 47 10 101 14 122 11 28 -4 42 -1 60 14 20 17 21 22 10 55
-7 20 -19 39 -27 42 -8 3 -69 -3 -136 -14 -67 -11 -124 -18 -126 -17 -3 2 5
25 37 114 3 8 6 24 8 35 4 25 24 94 34 120 40 102 65 157 72 161 4 3 8 16 8
30 0 13 5 32 11 42 9 14 5 28 -17 67 -15 28 -32 59 -38 70 -6 11 -13 22 -16
25 -18 18 -54 110 -65 165 l-12 65 61 -4 c34 -2 102 -1 151 3 50 4 114 4 143
0 49 -7 58 -13 118 -76 83 -87 109 -139 100 -208 -3 -27 -8 -72 -12 -100 -3
-27 -10 -57 -15 -66 -4 -9 -6 -19 -3 -22 3 -3 2 -12 -2 -19 -5 -7 -9 -20 -11
-28 -3 -25 -24 -132 -34 -177 -5 -23 -9 -62 -9 -87 0 -30 -5 -46 -14 -48 -25
-5 10 -75 42 -84 15 -4 31 -6 35 -6 4 1 17 -2 27 -8 11 -6 37 -13 57 -15 21
-3 61 -7 88 -11 28 -3 52 -10 54 -16 7 -19 61 45 61 72 0 47 -26 60 -116 57
-54 -1 -89 3 -107 12 -26 14 -27 18 -23 70 2 31 7 67 11 81 3 14 8 45 10 70 2
25 7 59 10 75 4 17 8 35 9 40 1 6 4 15 8 20 6 11 23 125 19 139 -1 4 2 13 7
20 14 17 24 103 14 110 -5 3 -22 32 -38 63 -15 32 -38 66 -51 76 -13 10 -23
25 -23 32 0 7 -11 22 -25 33 -24 19 -24 20 -5 25 15 4 20 14 20 40 0 20 4 38
8 41 5 3 9 24 10 48 1 23 4 50 7 59 13 38 17 67 21 129 4 84 13 132 23 126 4
-3 13 -41 21 -86 16 -96 36 -123 113 -149 l52 -18 0 -82 c0 -70 3 -85 19 -97
49 -35 91 -3 81 62 -3 23 -3 54 1 68 5 21 9 24 25 16 23 -13 59 15 59 45 0 29
-25 62 -53 69 -22 5 -24 10 -20 58 5 61 32 158 44 158 4 0 11 9 14 20 5 17
143 120 160 120 3 0 1 -9 -5 -19 -5 -11 -10 -55 -10 -98 0 -43 -6 -100 -13
-128 -8 -27 -15 -77 -16 -110 -1 -33 -9 -91 -17 -130 -23 -103 -26 -271 -7
-315 9 -19 17 -41 19 -49 1 -7 12 -35 23 -62 12 -26 21 -56 21 -66 0 -11 4
-23 8 -29 5 -5 16 -28 25 -51 16 -41 16 -43 -19 -150 -43 -129 -72 -231 -84
-296 -5 -26 -16 -62 -24 -79 -21 -41 -20 -55 4 -76 17 -14 41 -17 139 -17 69
0 124 -5 132 -11 32 -25 49 -24 63 4 21 41 18 82 -8 92 -11 5 -66 14 -122 21
l-101 12 18 71 c36 147 84 287 113 327 18 27 12 77 -18 143 -13 28 -29 76 -36
106 -7 30 -16 60 -20 65 -4 6 -11 24 -14 41 l-7 31 63 8 c35 4 120 9 190 11
117 4 128 2 128 -14 0 -10 6 -27 14 -38 15 -20 55 -174 58 -221 1 -7 5 -13 9
-13 4 0 1 -12 -7 -27 -7 -16 -14 -35 -14 -43 0 -8 -7 -28 -15 -44 -9 -16 -17
-45 -18 -65 -2 -20 -8 -45 -14 -56 -15 -28 -46 -169 -50 -236 -5 -67 -5 -67
127 -75 47 -2 105 -9 129 -15 63 -14 97 1 104 48 11 64 0 71 -110 71 -54 1
-107 3 -118 6 -11 2 -23 5 -27 5 -4 1 -1 20 5 43 7 24 12 50 12 58 -1 8 5 27
12 42 7 15 13 38 13 52 0 14 5 28 10 31 6 3 10 16 10 29 0 12 4 26 9 32 4 5
16 32 26 59 9 28 20 57 23 65 6 19 2 72 -7 85 -16 21 -55 189 -48 206 1 4 -6
16 -17 28 -16 17 -18 31 -13 88 3 38 8 79 12 93 11 43 13 93 5 116 -5 12 -4
41 2 65 17 74 13 71 55 52 150 -66 154 -69 143 -117 -11 -44 -21 -66 -30 -66
-17 0 -5 -79 15 -97 39 -35 85 -16 85 37 0 62 17 96 53 107 18 5 31 15 29 21
-1 7 2 12 8 12 5 0 10 15 10 33 0 26 -6 37 -26 47 -23 13 -25 18 -20 54 4 22
9 71 12 110 3 39 9 75 13 81 5 5 11 26 15 46 5 28 14 39 41 52 40 19 59 22 50
8 -3 -5 -7 -22 -9 -38 -2 -15 -11 -57 -20 -92 -10 -35 -19 -102 -22 -149 -2
-47 -12 -119 -20 -160 -17 -85 -20 -217 -6 -278 16 -70 -25 -258 -54 -247 -11
4 -10 -1 2 -26 8 -17 13 -35 9 -40 -3 -5 1 -13 9 -18 25 -14 55 -86 71 -168 8
-44 19 -99 24 -122 7 -37 5 -47 -18 -80 -14 -21 -32 -44 -38 -51 -7 -7 -13
-28 -13 -45 0 -26 6 -35 30 -45 40 -18 83 -2 76 29 0 3 10 19 24 36 41 51 60
77 61 83 4 33 2 80 -3 80 -4 0 -12 19 -18 43 -6 23 -14 49 -19 57 -5 9 -12 36
-16 60 -4 25 -10 50 -13 55 -4 6 -8 18 -9 28 -2 10 -10 32 -19 48 -11 22 -12
34 -5 43 6 7 8 15 5 18 -3 3 2 47 10 99 8 51 13 96 10 101 -3 4 5 8 18 9 13 0
34 2 48 4 21 3 106 4 266 2 l31 -1 -9 -40 c-6 -23 -11 -50 -13 -61 -1 -11 -14
-53 -29 -94 -14 -40 -24 -77 -21 -81 2 -4 6 -27 9 -52 2 -25 10 -56 17 -69 18
-31 38 -107 39 -141 0 -16 5 -28 11 -28 6 0 9 -9 6 -20 -3 -11 -1 -18 4 -14
15 9 10 -13 -6 -26 -9 -7 -13 -15 -11 -17 3 -3 -17 -27 -43 -53 -54 -55 -64
-78 -47 -112 9 -18 20 -23 51 -23 32 0 42 5 52 25 7 14 17 24 23 23 9 -3 14
12 8 20 -3 3 31 44 80 94 33 35 42 50 38 71 -2 15 -5 33 -5 41 -1 8 -4 11 -8
8 -9 -9 -69 111 -81 165 -6 24 -15 60 -20 80 -7 26 -6 42 3 55 6 10 13 25 14
33 5 52 15 96 23 101 5 4 16 44 23 90 7 46 18 98 24 115 7 17 13 67 15 110 6
128 17 277 22 302 8 41 27 12 21 -35 -7 -62 0 -79 36 -94 40 -16 127 -105 127
-128 0 -25 32 -51 61 -51 14 0 30 -5 37 -12 8 -8 15 -8 25 0 12 10 14 -3 13
-83 -1 -82 1 -96 17 -101 9 -3 17 -11 17 -17 0 -7 6 -24 14 -39 8 -15 17 -40
21 -57 4 -17 11 -31 15 -31 30 0 17 -145 -19 -220 -9 -20 -28 -69 -40 -110
-13 -41 -30 -80 -38 -86 -8 -7 -16 -27 -19 -46 -5 -27 -1 -40 17 -60 32 -33
98 -75 132 -83 15 -4 27 -10 27 -14 0 -9 46 -31 64 -31 14 0 36 41 36 69 0 23
-29 55 -55 59 -11 2 -27 9 -35 16 -8 7 -27 17 -42 24 -16 6 -28 16 -28 22 0
10 21 51 30 60 6 5 32 86 35 105 1 6 4 17 7 25 21 59 58 193 64 231 5 37 3 47
-10 52 -9 4 -16 16 -16 27 0 11 -4 20 -9 20 -5 0 -14 14 -20 30 -5 17 -7 30
-4 30 3 0 0 7 -7 15 -7 8 -9 15 -5 15 4 0 2 7 -5 15 -11 13 1 15 101 16 187 3
243 6 267 13 21 7 22 5 16 -21 -16 -72 -36 -129 -55 -162 -19 -31 -22 -54 -24
-161 -1 -69 -6 -163 -10 -210 -11 -112 -10 -173 4 -178 6 -2 9 -8 5 -13 -3 -5
6 -9 19 -9 25 0 75 -21 117 -50 64 -45 103 -61 130 -55 24 5 29 12 32 46 5 51
-4 65 -50 79 -20 7 -51 23 -69 36 -17 13 -38 24 -46 24 -18 0 -41 26 -34 37 3
5 8 65 12 133 4 69 10 129 15 134 4 4 4 22 -1 39 -13 46 -11 91 5 124 13 25
54 165 59 203 2 8 6 21 11 28 4 7 5 16 2 19 -3 3 -1 12 5 19 6 8 9 19 6 26 -2
7 -1 40 4 73 16 115 31 271 34 346 2 42 6 91 11 110 l8 34 13 -55 c16 -62 17
-69 27 -197 6 -67 13 -97 26 -111 11 -11 16 -23 12 -27 -4 -5 2 -3 12 2 22 12
76 -2 76 -19 0 -12 42 1 52 16 20 30 14 -9 -13 -84 -54 -154 -53 -150 -31
-179 26 -36 73 -36 84 -1 4 14 19 63 34 110 23 76 31 105 38 147 1 7 5 16 9
19 4 4 7 18 7 30 0 12 5 35 12 51 6 15 12 33 13 38 2 6 7 28 13 50 6 22 14 71
18 108 6 63 22 97 45 97 6 0 8 -4 5 -9 -3 -5 -8 -44 -11 -87 -11 -161 -15
-200 -25 -234 -5 -19 -10 -55 -11 -80 0 -25 -4 -54 -8 -64 -4 -11 -5 -36 -1
-56 4 -20 3 -45 0 -56 -4 -10 -3 -22 2 -25 5 -3 10 -17 11 -30 1 -13 6 -29 12
-36 28 -33 34 -42 49 -70 8 -17 22 -38 30 -46 9 -8 17 -21 18 -28 2 -8 9 -20
16 -27 14 -15 16 -63 4 -78 -5 -5 -24 -47 -42 -94 -18 -47 -38 -91 -43 -98 -5
-6 -7 -12 -3 -12 8 0 -21 -56 -47 -91 -15 -21 -18 -35 -12 -68 4 -25 12 -41
21 -41 7 0 35 -13 61 -29 27 -16 59 -31 73 -34 14 -4 38 -18 54 -32 16 -14 35
-25 43 -25 7 0 16 -6 19 -13 7 -18 65 -20 88 -2 15 11 18 23 13 55 -6 50 -8
52 -47 56 -17 2 -58 20 -91 39 -33 19 -66 35 -73 35 -21 0 -37 26 -29 46 3 11
14 30 22 44 9 13 21 42 27 65 10 36 52 150 85 233 9 22 10 35 3 40 -5 4 -18
25 -28 47 -11 22 -31 56 -46 75 -47 61 -47 63 -4 56 52 -8 364 -10 387 -2 39
14 47 15 47 6 0 -5 15 -16 33 -24 62 -28 96 -76 76 -107 -5 -8 -9 -22 -9 -32
0 -10 -9 -38 -20 -62 -20 -44 -96 -261 -105 -300 -3 -11 -9 -21 -15 -23 -24
-8 -1 -114 24 -110 20 3 68 -22 109 -57 22 -19 43 -32 48 -30 4 3 10 1 14 -5
9 -15 52 -12 69 6 36 35 7 101 -52 119 -12 3 -19 11 -16 17 4 6 2 8 -3 5 -13
-8 -77 49 -69 61 3 5 7 19 9 33 3 13 19 70 37 127 21 69 36 102 46 102 9 0 13
4 10 8 -3 5 6 46 20 92 28 97 30 135 9 144 -8 3 -15 12 -15 20 0 9 -11 18 -25
22 -14 3 -25 10 -25 14 0 4 -16 18 -36 31 l-36 24 6 130 c10 198 16 268 25
300 l9 30 2 -35 c3 -37 6 -57 16 -105 4 -16 8 -49 9 -72 3 -54 31 -90 75 -97
83 -13 136 -27 145 -39 22 -26 49 -34 80 -24 30 9 31 12 29 55 -3 50 -7 54
-68 72 -152 44 -143 39 -165 99 -11 31 -25 103 -31 159 -6 57 -16 115 -21 129
-5 14 -11 53 -13 87 -3 49 -8 63 -26 75 -22 15 -28 15 -188 19 l-94 2 7 31 c4
18 8 58 8 91 l1 58 73 36 c41 20 73 41 73 49 0 8 4 15 9 15 11 0 81 64 81 74
0 3 14 25 30 48 17 22 30 47 30 53 0 7 7 18 15 25 29 24 49 84 60 175 10 83
18 120 27 133 6 6 6 12 1 12 -5 0 -10 15 -11 33 -2 17 -9 55 -16 84 -8 28 -11
54 -8 57 3 3 -1 6 -8 6 -7 0 -10 3 -7 6 18 19 -93 80 -118 66 -20 -12 -97 -9
-109 4 -23 22 -78 24 -115 3z m-4011 -104 c52 -12 97 -55 135 -127 24 -47 35
-78 30 -92 -3 -11 -13 -46 -21 -76 -8 -30 -23 -74 -34 -97 -11 -24 -20 -47
-20 -53 0 -5 -4 -10 -9 -10 -5 0 -14 -13 -20 -29 -7 -15 -23 -34 -37 -41 -13
-8 -24 -17 -24 -22 0 -30 -105 -94 -176 -107 -59 -11 -102 1 -159 44 -25 19
-48 35 -52 35 -9 0 -68 64 -70 78 -2 6 2 47 8 89 6 43 12 87 14 98 3 31 46
125 57 125 5 0 7 4 4 9 -10 15 73 108 88 99 3 -2 13 7 21 20 9 12 22 22 28 22
7 0 26 7 42 16 55 30 120 36 195 19z m4120 4 c25 -6 66 -10 92 -11 46 0 56 -8
63 -48 0 -3 7 -16 14 -29 8 -14 11 -39 7 -65 -3 -22 -10 -81 -16 -130 -6 -53
-16 -96 -25 -106 -8 -9 -15 -22 -15 -28 0 -7 -13 -26 -30 -44 -16 -17 -30 -36
-30 -43 0 -6 -13 -27 -30 -45 -16 -18 -30 -37 -30 -41 0 -4 -29 -26 -65 -48
-62 -40 -117 -53 -130 -31 -3 5 -25 7 -49 4 -40 -6 -46 -4 -77 30 -45 50 -65
106 -48 139 6 11 6 17 -1 17 -11 0 -6 51 12 125 9 42 58 166 68 175 3 3 13 17
23 32 20 32 142 133 178 147 31 13 35 13 89 0z m-1973 -39 c31 -16 61 -30 68
-30 36 0 53 -94 34 -181 -6 -24 -15 -68 -19 -98 -5 -29 -19 -71 -30 -93 -11
-21 -20 -45 -20 -53 0 -8 -4 -15 -10 -15 -5 0 -10 -11 -10 -25 0 -14 -4 -25
-10 -25 -5 0 -10 -7 -10 -16 0 -9 -9 -18 -20 -21 -10 -3 -22 -14 -25 -24 -4
-11 -16 -24 -28 -31 -12 -6 -28 -19 -34 -28 -16 -23 -71 -29 -156 -19 -83 10
-132 44 -135 93 0 5 -5 12 -12 16 -21 13 -15 121 10 175 12 28 31 68 41 91 11
22 19 45 19 51 0 37 238 258 283 262 4 1 33 -12 64 -29z m884 4 c17 -8 33 -13
36 -11 12 13 66 -19 104 -60 l42 -45 -6 -77 c-4 -42 -8 -83 -10 -91 -6 -28
-18 -65 -29 -90 -6 -14 -16 -38 -23 -55 -50 -118 -59 -131 -154 -200 -37 -27
-106 -34 -153 -16 -78 30 -142 157 -135 269 1 31 6 63 11 70 4 6 9 21 11 32 5
25 67 130 77 130 5 0 8 5 8 11 0 18 121 131 149 139 37 12 39 12 72 -6z
m-1973 -49 c28 -14 55 -25 61 -25 6 0 11 -4 11 -10 0 -5 7 -10 16 -10 27 0 71
-53 74 -90 9 -106 -2 -226 -26 -277 -31 -67 -83 -141 -111 -161 -73 -50 -119
-65 -186 -60 -66 6 -141 39 -151 68 -3 8 -15 31 -27 50 -18 30 -20 44 -15 110
8 101 9 105 48 181 36 69 40 75 101 140 20 22 37 45 37 50 0 9 95 59 112 59 3
0 29 -11 56 -25z m-1543 -850 c33 -7 73 -18 88 -24 15 -6 38 -10 50 -9 12 0
40 -4 62 -10 22 -5 69 -13 105 -17 36 -3 72 -10 79 -15 33 -20 28 -114 -13
-265 -9 -33 -16 -80 -16 -105 0 -25 -9 -85 -20 -135 -11 -49 -20 -91 -20 -91
0 -1 -13 -7 -29 -14 -16 -6 -62 -11 -102 -10 -41 1 -136 1 -212 0 -143 0 -162
3 -153 26 3 7 2 15 -3 18 -10 7 -6 50 13 126 9 36 18 110 20 165 2 55 9 122
16 149 6 27 8 62 5 77 -3 15 -1 30 4 34 6 3 11 24 11 46 0 52 16 83 38 73 9
-4 44 -12 77 -19z m2430 -65 c46 -17 49 -54 26 -310 -23 -254 -23 -250 -30
-250 -3 0 -7 -21 -8 -48 -3 -88 -8 -114 -27 -127 -25 -19 -375 -13 -387 6 -8
14 -3 194 6 209 3 5 8 32 11 62 9 85 13 120 18 166 6 51 53 215 72 254 8 15
24 30 37 32 129 26 225 28 282 6z m-991 -17 c33 -10 39 -27 39 -113 0 -83 -4
-124 -24 -250 -10 -63 -18 -146 -17 -185 0 -93 -11 -154 -31 -164 -9 -5 -77
-12 -151 -15 -74 -4 -158 -9 -187 -12 -49 -5 -53 -4 -59 20 -3 14 -1 63 5 108
7 46 16 126 21 179 5 52 14 107 19 122 6 15 8 27 6 27 -2 0 0 12 6 27 6 15 11
59 11 98 0 38 3 75 7 80 3 6 6 12 6 15 1 3 4 21 8 41 l7 36 153 -3 c83 -2 165
-7 181 -11z m2044 11 c25 -7 29 -36 11 -81 -13 -30 -13 -32 -23 -203 -4 -63
-8 -124 -10 -135 -2 -11 -7 -45 -10 -75 -4 -30 -11 -82 -17 -115 -10 -60 -11
-61 -59 -83 -46 -21 -60 -22 -221 -19 -108 3 -174 8 -178 15 -10 16 -5 115 6
137 14 28 32 105 43 184 13 91 40 212 53 236 6 11 12 27 12 35 3 25 17 60 25
60 4 0 12 11 18 25 l12 25 157 0 c87 0 168 -3 181 -6z m895 -40 c56 -2 125 -7
152 -11 28 -4 59 -8 70 -8 59 -4 58 -3 50 -42 -4 -21 -9 -56 -11 -78 -2 -22
-8 -53 -14 -70 -10 -33 -18 -96 -25 -195 -12 -190 -17 -225 -30 -236 -8 -6
-11 -14 -7 -18 18 -18 -41 -28 -176 -28 -157 0 -281 15 -294 35 -9 14 -1 153
18 312 26 215 42 295 60 295 7 0 11 8 9 19 -4 22 14 32 43 24 11 -2 23 0 27 6
3 6 11 9 16 5 6 -3 56 -8 112 -10z m-1398 -86 c-6 -47 -15 -89 -45 -208 -10
-40 -24 -136 -20 -146 1 -4 -4 -10 -10 -14 -7 -4 -12 -19 -12 -34 0 -30 -5
-32 -36 -10 -18 13 -21 19 -11 30 6 8 9 17 6 21 -4 3 -3 11 2 17 11 13 50 249
54 321 2 42 6 52 27 62 48 22 52 18 45 -39z"/>
</g>
</svg>
