<?xml version="1.0" standalone="no"?>
<!DOCTYPE svg PUBLIC "-//W3C//DTD SVG 20010904//EN"
 "http://www.w3.org/TR/2001/REC-SVG-20010904/DTD/svg10.dtd">
<svg version="1.0" xmlns="http://www.w3.org/2000/svg"
 width="331.000000pt" height="441.000000pt" viewBox="0 0 331.000000 441.000000"
 preserveAspectRatio="xMidYMid meet">
<metadata>
Created by potrace 1.16, written by Peter Selinger 2001-2019
</metadata>
<g transform="translate(0.000000,441.000000) scale(0.100000,-0.100000)"
fill="#000000" stroke="none">
<path d="M619 4316 c-3 -3 -36 -10 -74 -16 -38 -6 -84 -20 -101 -31 -17 -10
-38 -19 -46 -19 -16 0 -78 -77 -78 -97 0 -7 -9 -29 -21 -49 -18 -32 -20 -51
-17 -141 2 -56 6 -103 9 -103 3 0 16 -41 28 -92 13 -50 29 -101 36 -112 12
-18 25 -68 27 -101 0 -5 9 -21 19 -34 11 -13 19 -29 19 -36 0 -7 8 -23 18 -36
11 -13 27 -46 37 -73 10 -26 24 -53 30 -60 6 -6 29 -45 52 -86 22 -41 50 -91
62 -110 32 -53 91 -175 91 -188 0 -7 4 -12 9 -12 5 0 36 -53 69 -117 33 -65
71 -138 85 -163 78 -138 203 -380 212 -410 7 -25 26 -70 49 -120 6 -14 17 -30
25 -36 10 -8 11 -13 3 -18 -7 -4 -12 -16 -12 -27 0 -22 0 -22 -37 -8 -20 8
-43 7 -85 -1 -68 -15 -100 -45 -153 -145 -36 -68 -37 -72 -30 -145 4 -50 16
-98 37 -145 34 -78 117 -194 172 -240 20 -16 36 -36 36 -43 0 -7 4 -10 10 -7
6 3 10 -4 11 -17 2 -116 70 -321 141 -427 60 -89 57 -85 143 -181 39 -43 75
-78 81 -79 7 -1 14 -7 17 -15 3 -8 21 -22 40 -31 19 -9 45 -26 58 -38 67 -63
201 -93 394 -90 141 3 181 7 217 21 14 6 55 14 90 18 34 3 77 12 93 19 17 7
56 22 87 33 61 21 217 128 218 149 0 7 4 12 9 10 26 -7 221 187 221 221 0 6 4
12 8 14 4 1 23 28 41 58 19 30 37 57 42 60 10 7 69 132 69 148 0 6 3 12 8 12
7 0 42 73 42 89 0 4 15 50 34 102 50 135 59 228 42 429 -4 52 -9 115 -11 140
-1 25 -8 65 -15 90 -6 25 -16 70 -21 100 -6 30 -14 64 -19 75 -4 11 -11 29
-14 40 -3 11 -14 47 -25 79 -12 33 -19 61 -17 63 6 6 -41 102 -88 183 -35 61
-140 180 -159 180 -8 0 -30 16 -50 38 -7 7 -32 32 -56 55 -24 23 -94 93 -155
155 -61 62 -170 172 -241 245 -72 73 -148 144 -171 160 -22 15 -49 35 -60 45
-27 25 -104 76 -137 90 -29 13 -157 105 -192 139 -11 11 -34 28 -50 39 -38 24
-42 27 -90 69 -22 18 -67 47 -100 63 -33 17 -76 44 -95 61 -40 36 -116 81
-136 81 -8 0 -14 5 -14 10 0 6 -5 10 -11 10 -6 0 -31 17 -57 39 -26 21 -63 47
-82 56 -42 22 -61 40 -52 50 4 5 -1 5 -10 2 -10 -4 -18 -3 -18 1 0 4 -20 16
-45 27 -26 10 -69 33 -98 52 -28 18 -59 33 -68 33 -9 0 -52 11 -95 25 -73 23
-125 31 -135 21z m146 -141 c39 -10 86 -30 105 -45 19 -14 53 -34 75 -44 22
-9 47 -21 55 -26 8 -6 24 -14 35 -19 11 -5 37 -25 59 -45 21 -20 42 -36 47
-36 5 0 9 -4 9 -10 0 -5 6 -10 14 -10 8 0 21 -6 28 -13 7 -6 38 -23 68 -37 30
-14 57 -28 60 -31 3 -3 14 -9 25 -13 11 -3 36 -20 55 -36 19 -16 40 -34 46
-39 6 -5 35 -21 64 -36 28 -14 66 -41 83 -58 17 -18 34 -31 38 -30 4 1 13 -4
19 -12 7 -8 18 -15 25 -15 7 0 23 -13 36 -28 27 -32 101 -85 169 -121 25 -13
52 -30 61 -37 8 -8 20 -14 25 -14 5 0 23 -12 40 -27 17 -16 57 -46 90 -68 32
-22 85 -67 117 -100 32 -33 99 -101 148 -152 86 -88 109 -123 72 -108 -42 17
-78 24 -131 27 -31 1 -60 6 -63 11 -3 4 -20 9 -38 9 -17 1 -34 4 -36 8 -5 8
-40 5 -140 -14 -94 -18 -195 -52 -246 -84 -20 -12 -41 -22 -48 -22 -6 0 -11
-4 -11 -10 0 -5 -26 -23 -57 -39 -129 -65 -324 -336 -410 -568 -15 -40 -30
-73 -33 -73 -7 0 -22 28 -41 80 -7 19 -23 49 -36 66 -13 17 -23 38 -23 47 0 9
-5 19 -11 22 -5 4 -8 12 -6 18 2 6 0 16 -5 22 -44 55 -58 76 -76 116 -12 25
-22 50 -22 55 0 5 -14 26 -31 47 -16 20 -46 69 -65 109 -19 40 -48 96 -64 123
-35 61 -90 169 -90 179 0 4 -14 27 -31 52 -17 25 -39 64 -51 87 -26 56 -67
128 -82 147 -17 21 -44 80 -50 111 -3 14 -15 36 -26 49 -11 13 -20 30 -20 39
0 9 -6 26 -14 37 -8 11 -17 42 -21 69 -4 28 -12 53 -18 57 -6 3 -11 17 -13 30
-1 13 -7 50 -14 83 -19 99 -21 147 -10 196 11 44 50 99 71 99 6 0 30 9 55 20
24 12 48 19 52 16 5 -3 13 -1 19 2 21 13 96 7 168 -13z m1435 -1268 c0 -6 3
-7 6 -4 4 3 16 1 28 -5 11 -6 35 -11 53 -10 18 1 33 -2 33 -7 0 -10 24 -21 60
-27 14 -3 36 -9 50 -14 14 -6 39 -12 55 -13 30 -4 83 -32 97 -51 4 -6 10 -8
13 -4 7 6 33 -13 85 -63 15 -14 41 -31 59 -38 17 -8 29 -16 27 -19 -6 -6 85
-82 99 -82 15 0 87 -125 78 -134 -4 -3 -2 -6 4 -6 12 0 35 -46 40 -80 2 -14
17 -63 33 -110 27 -76 46 -148 56 -205 4 -27 13 -72 25 -123 9 -40 13 -296 6
-387 -3 -35 -15 -72 -60 -175 -5 -14 -12 -33 -14 -43 -3 -19 -53 -122 -92
-193 -12 -21 -111 -170 -128 -192 -74 -96 -109 -130 -218 -213 -94 -71 -131
-93 -151 -85 -8 3 -17 0 -20 -8 -3 -7 -22 -18 -42 -24 -99 -30 -148 -42 -178
-42 -18 0 -45 -5 -61 -11 -43 -16 -208 -19 -302 -4 -141 21 -230 72 -364 209
-38 38 -86 92 -107 120 -47 65 -109 188 -120 241 -5 22 -15 69 -23 105 -27
122 -39 360 -23 485 26 204 30 241 28 253 -2 6 5 29 14 50 20 45 28 66 45 112
7 19 27 67 46 107 18 39 33 76 33 83 0 6 18 44 39 84 57 107 62 115 104 169
20 27 37 53 37 58 0 5 7 9 15 9 8 0 15 6 15 13 0 13 76 95 106 114 11 7 46 26
79 44 33 17 71 40 85 50 14 11 59 28 100 40 41 11 78 24 82 27 12 12 168 10
168 -1z m-1095 -997 c15 -12 16 -24 9 -80 -4 -36 -8 -88 -9 -115 -1 -28 -6
-95 -10 -150 l-7 -99 -19 25 c-72 90 -110 168 -115 234 -3 40 15 125 27 125 5
0 9 6 9 13 0 21 61 66 86 63 6 -1 20 -8 29 -16z"/>
<path d="M1005 3672 c-16 -9 -37 -25 -46 -34 -9 -10 -21 -18 -27 -18 -14 0
-25 -39 -20 -71 5 -36 59 -38 99 -5 38 32 67 40 101 27 53 -20 35 -90 -36
-144 -23 -17 -58 -59 -79 -95 -36 -60 -39 -69 -40 -151 -2 -108 6 -120 78
-112 13 1 38 58 31 70 -3 5 1 15 10 22 14 12 14 14 0 24 -13 10 -13 18 -5 51
14 47 76 130 105 138 28 8 74 101 74 151 -1 75 -47 144 -100 151 -8 1 -37 4
-65 7 -37 5 -57 2 -80 -11z"/>
<path d="M1005 2943 c-26 -7 -35 -21 -35 -59 0 -44 49 -88 84 -74 29 11 45 37
50 80 3 25 -2 32 -27 45 -31 15 -38 16 -72 8z"/>
<path d="M1920 2194 c-14 -35 -13 -42 8 -48 9 -4 32 -20 51 -36 36 -32 45 -34
186 -31 93 1 105 7 105 47 0 34 -24 48 -52 30 -23 -14 -57 -19 -133 -17 -33 1
-50 9 -85 41 -52 47 -67 49 -80 14z"/>
<path d="M2744 2205 c-7 -6 -15 -21 -18 -33 -7 -20 -95 -62 -130 -62 -8 0 -16
-9 -19 -20 -21 -79 190 -12 240 76 10 18 8 23 -10 32 -39 18 -52 20 -63 7z"/>
<path d="M2804 2040 c-42 -6 -94 -33 -94 -49 0 -5 -13 -14 -28 -20 -50 -21
-82 -148 -63 -243 21 -100 104 -151 200 -122 52 15 71 31 71 58 0 12 4 26 10
32 5 5 19 48 31 94 24 95 21 153 -11 205 -24 39 -60 53 -116 45z m46 -70 c17
0 33 -62 27 -113 -9 -84 -28 -156 -44 -173 -24 -24 -102 -10 -129 23 -31 39
-32 173 -1 173 7 0 19 15 28 33 16 33 74 71 97 62 8 -3 17 -5 22 -5z"/>
<path d="M2769 1879 c-10 -9 -20 -36 -23 -59 -4 -33 -1 -46 14 -62 l20 -21 20
23 c11 13 20 30 21 39 3 39 -4 67 -19 81 -15 14 -19 14 -33 -1z"/>
<path d="M2073 2029 c-18 -5 -33 -14 -33 -20 0 -6 -5 -7 -10 -4 -17 11 -87
-36 -104 -69 -9 -17 -25 -63 -37 -103 -18 -64 -19 -80 -9 -145 6 -39 16 -79
23 -87 7 -8 41 -27 76 -44 47 -21 73 -27 97 -23 46 9 90 33 113 62 10 13 24
24 31 24 6 0 9 4 5 10 -3 5 3 28 14 52 41 93 46 126 32 204 -8 42 -21 66 -53
104 -46 54 -71 60 -145 39z m77 -69 c0 -5 7 -10 15 -10 40 0 61 -150 32 -230
-17 -48 -37 -83 -44 -76 -3 3 -12 -1 -20 -9 -25 -26 -64 -29 -118 -10 -48 16
-54 21 -65 59 -18 58 -15 107 10 164 24 55 52 86 71 80 7 -2 23 6 37 19 25 23
82 32 82 13z"/>
<path d="M2091 1836 c-43 -24 -35 -116 10 -116 39 0 66 89 37 118 -15 15 -17
15 -47 -2z"/>
<path d="M2550 1416 c-6 -8 -22 -17 -35 -20 -24 -6 -35 -26 -15 -26 15 0 31
-48 24 -74 -3 -14 -18 -27 -40 -35 -36 -13 -45 -10 -81 22 -13 11 -23 16 -23
11 0 -5 -4 -3 -8 4 -5 7 -16 10 -25 6 -31 -12 -28 -74 4 -74 11 0 19 -5 19
-10 0 -22 60 -38 104 -27 45 11 106 61 106 88 0 9 6 21 13 27 19 16 12 81 -11
102 -17 16 -22 17 -32 6z"/>
<path d="M1927 1018 c-12 -6 -17 -19 -15 -36 4 -38 134 -104 248 -128 113 -23
269 -24 335 -1 60 21 119 49 123 60 2 4 12 7 22 7 25 0 43 35 36 66 -7 28 -53
34 -63 9 -3 -9 -28 -27 -56 -41 -88 -45 -198 -65 -277 -50 -19 3 -46 8 -60 10
-36 6 -83 17 -100 23 -8 4 -17 7 -20 7 -3 1 -28 12 -55 26 -52 26 -77 45 -70
52 9 9 -31 6 -48 -4z"/>
</g>
</svg>
