<?xml version="1.0" standalone="no"?>
<!DOCTYPE svg PUBLIC "-//W3C//DTD SVG 20010904//EN"
 "http://www.w3.org/TR/2001/REC-SVG-20010904/DTD/svg10.dtd">
<svg version="1.0" xmlns="http://www.w3.org/2000/svg"
 width="451.000000pt" height="371.000000pt" viewBox="0 0 451.000000 371.000000"
 preserveAspectRatio="xMidYMid meet">
<metadata>
Created by potrace 1.16, written by Peter Selinger 2001-2019
</metadata>
<g transform="translate(0.000000,371.000000) scale(0.100000,-0.100000)"
fill="#000000" stroke="none">
<path d="M4151 3381 c-23 -12 -29 -20 -20 -23 12 -4 12 -8 -1 -24 -22 -28 -40
-62 -40 -76 0 -6 -18 -33 -40 -59 -22 -26 -49 -63 -61 -83 -11 -20 -25 -36
-29 -36 -5 0 -23 -22 -41 -49 -19 -30 -44 -55 -63 -62 -17 -7 -37 -19 -44 -26
-8 -7 -17 -11 -22 -8 -4 3 -10 -1 -13 -9 -17 -44 -201 -90 -302 -75 -63 9 -76
14 -193 73 -40 20 -80 36 -87 36 -8 0 -15 4 -15 9 0 5 -17 16 -37 26 -57 25
-97 47 -104 57 -3 5 -13 10 -21 12 -9 1 -22 7 -29 13 -8 6 -39 19 -69 28 -30
10 -64 22 -75 26 -45 18 -135 47 -135 43 0 -2 -12 1 -27 8 -16 6 -59 10 -97 9
-38 0 -75 4 -83 10 -10 9 -13 8 -13 -5 0 -9 -5 -16 -11 -16 -5 0 -7 -4 -4 -10
3 -5 2 -10 -4 -10 -5 0 -6 -11 -2 -27 5 -19 14 -27 25 -25 34 6 138 -29 203
-68 76 -46 76 -46 -57 -73 -86 -18 -80 -17 -221 -17 -130 0 -281 33 -424 93
-33 14 -84 28 -113 32 -29 3 -64 10 -78 15 -27 11 -84 -10 -84 -31 0 -18 20
-49 32 -49 6 0 19 -6 27 -14 9 -8 27 -17 41 -20 57 -11 216 -72 227 -86 6 -8
27 -33 47 -54 19 -22 33 -43 30 -47 -2 -4 -23 -10 -47 -14 -54 -9 -76 -13
-107 -20 -14 -3 -36 -7 -49 -10 -12 -2 -28 -8 -35 -13 -6 -5 -37 -10 -68 -11
-31 -1 -71 -6 -90 -12 -68 -21 -118 -20 -198 0 -44 12 -119 24 -167 27 -49 3
-106 10 -128 16 -22 5 -74 17 -115 25 -41 9 -109 29 -150 44 -41 16 -97 33
-123 39 -27 6 -65 17 -84 25 -20 8 -65 20 -101 26 -37 5 -71 14 -77 18 -5 4
-32 16 -60 25 -184 65 -208 75 -293 114 -61 28 -114 -25 -62 -61 24 -17 32
-44 30 -107 -1 -48 -1 -47 0 -116 1 -25 -1 -48 -4 -51 -3 -3 2 -22 10 -42 8
-20 14 -37 14 -39 -1 -1 1 -19 4 -40 4 -20 8 -50 10 -67 9 -71 51 -205 84
-270 20 -38 58 -92 84 -120 26 -27 48 -53 48 -57 0 -17 78 -93 150 -146 41
-31 91 -71 110 -89 19 -18 52 -38 72 -43 21 -6 68 -24 105 -41 38 -17 109 -46
158 -65 50 -19 99 -39 110 -43 73 -32 335 -68 388 -53 20 6 37 9 37 6 0 -6
-74 -37 -83 -35 -4 0 -21 -6 -38 -14 -24 -13 -30 -22 -27 -42 2 -21 11 -29 37
-36 22 -5 43 -5 58 2 13 6 79 16 146 23 76 7 135 18 158 29 20 10 60 21 88 25
29 4 59 13 66 21 33 32 228 104 243 89 4 -4 -10 -22 -30 -40 -34 -31 -36 -34
-22 -54 13 -19 22 -21 84 -17 39 3 80 9 92 14 13 4 39 7 58 5 71 -5 384 84
410 116 3 4 14 9 25 12 59 17 135 58 172 92 24 21 51 44 62 50 11 6 33 21 50
34 l30 23 -6 -34 c-7 -48 16 -65 65 -48 34 12 52 25 116 89 l23 22 13 -30 c7
-17 20 -30 30 -30 28 0 77 29 104 60 14 17 31 30 40 30 8 0 18 9 21 20 4 11
24 34 46 52 21 17 39 36 39 41 0 6 7 18 16 28 8 9 17 36 19 59 2 23 11 52 19
65 9 13 18 38 21 57 3 18 13 43 21 55 7 12 14 29 14 36 0 8 10 29 23 48 13 19
29 57 36 84 46 170 59 198 137 280 88 94 149 170 184 230 14 24 44 67 66 97
55 72 84 130 84 171 0 28 -7 38 -45 65 -53 37 -50 37 -94 13z m56 -89 c20 -13
-30 -109 -89 -173 -16 -16 -28 -36 -28 -43 0 -7 -12 -26 -26 -41 -14 -15 -40
-48 -58 -74 -39 -57 -80 -101 -94 -101 -5 0 -12 -6 -15 -14 -3 -7 -15 -16 -26
-19 -17 -4 -19 -2 -12 11 5 10 23 30 41 47 17 16 45 52 62 80 18 27 57 82 88
120 59 74 130 185 130 204 0 13 10 14 27 3z m-1392 -214 c17 -8 44 -18 60 -22
34 -8 97 -36 105 -47 3 -3 28 -18 55 -32 28 -14 67 -37 88 -51 21 -14 42 -26
48 -26 5 0 46 -18 92 -41 184 -91 244 -97 436 -48 19 4 36 7 38 6 8 -8 -201
-206 -229 -217 -18 -8 -36 -18 -40 -24 -7 -11 -243 -10 -261 1 -6 4 -26 8 -44
10 -102 11 -306 81 -371 128 -51 36 -72 39 -72 9 0 -28 88 -90 148 -106 123
-31 154 -39 222 -57 82 -22 115 -28 233 -37 43 -4 73 -10 67 -14 -7 -4 -20 -5
-30 -3 -10 3 -40 -5 -68 -17 -28 -12 -57 -20 -64 -17 -7 2 -22 0 -33 -6 -11
-6 -42 -11 -70 -12 -27 -1 -52 -3 -55 -5 -3 -1 -9 -2 -14 -1 -4 1 -14 -3 -20
-8 -9 -7 -24 -7 -47 0 -19 5 -56 9 -84 8 -27 -1 -63 4 -80 11 -16 6 -55 14
-85 17 -30 3 -66 11 -80 18 -14 7 -44 15 -68 19 -48 7 -131 46 -151 70 -14 16
-40 22 -42 9 0 -5 -2 -16 -4 -25 -7 -39 114 -95 260 -120 61 -10 130 -25 155
-32 92 -29 338 -23 401 9 15 8 30 11 33 7 2 -4 -10 -14 -27 -21 -18 -7 -50
-21 -72 -31 -22 -10 -49 -21 -60 -24 -39 -10 -242 -6 -355 8 -45 6 -163 20
-172 20 -3 1 -10 4 -14 9 -4 4 -14 7 -22 7 -9 0 -23 6 -31 13 -20 17 -89 37
-126 37 -15 0 -40 9 -56 21 -16 11 -29 17 -29 14 0 -4 -7 1 -16 9 -18 19 -45
21 -61 5 -16 -16 -5 -39 19 -39 12 0 31 -11 44 -25 15 -17 35 -25 59 -26 19
-1 38 -2 43 -3 4 -1 26 -6 50 -10 23 -4 48 -13 55 -19 17 -17 140 -46 221 -53
38 -3 80 -10 93 -15 14 -5 48 -9 76 -10 29 -1 63 -4 77 -9 24 -7 24 -8 5 -15
-11 -4 -45 -19 -75 -33 -30 -13 -89 -30 -130 -38 -41 -7 -120 -25 -175 -40
-86 -23 -120 -27 -240 -27 -108 0 -148 3 -175 16 -19 8 -55 22 -80 30 -178 59
-249 95 -310 158 -14 14 -29 28 -35 30 -5 2 -27 15 -48 28 -27 17 -36 28 -32
41 7 22 -9 33 -35 25 -45 -14 -12 -83 56 -118 17 -9 47 -31 67 -49 81 -75 118
-97 212 -124 33 -9 71 -23 85 -30 14 -7 43 -19 65 -27 l40 -15 -75 0 c-41 0
-79 4 -85 8 -8 6 -40 16 -85 25 -3 0 -20 10 -38 22 -19 11 -55 27 -80 34 -26
7 -75 32 -110 56 -35 24 -68 43 -74 43 -26 0 -99 44 -152 90 -32 28 -60 50
-64 50 -7 0 -42 34 -96 93 -22 23 -29 26 -46 17 -11 -6 -20 -15 -20 -21 0 -17
78 -90 158 -148 39 -29 72 -56 72 -61 0 -4 26 -18 58 -31 71 -29 120 -56 152
-85 14 -12 54 -30 90 -39 58 -14 90 -35 90 -56 0 -11 -188 -2 -304 15 -60 9
-127 16 -148 16 -22 0 -38 5 -38 11 0 16 -31 38 -53 39 -9 0 -23 11 -29 25 -7
16 -19 25 -33 25 -28 0 -87 20 -100 35 -5 6 -17 24 -25 40 -10 19 -35 40 -70
57 -40 19 -62 39 -80 69 -19 31 -41 50 -90 75 -94 49 -100 54 -100 91 0 35
-31 73 -60 73 -9 0 -25 7 -36 15 -26 20 -39 19 -41 -4 -2 -24 11 -35 58 -50
33 -11 36 -14 35 -52 -1 -45 -1 -46 79 -80 72 -31 123 -74 127 -107 2 -22 14
-32 60 -54 44 -21 62 -37 77 -66 19 -37 42 -52 123 -82 16 -5 28 -14 28 -19 0
-5 -12 -3 -27 5 -16 7 -37 14 -48 14 -59 1 -227 77 -265 121 -3 3 -17 6 -32 6
-16 1 -34 1 -42 2 -28 2 -73 50 -85 91 -10 35 -19 44 -66 65 -29 14 -55 29
-57 35 -1 5 -13 7 -26 3 -39 -10 -25 -51 27 -78 32 -18 49 -36 66 -71 19 -40
33 -53 84 -78 111 -57 179 -95 186 -106 3 -5 18 -10 32 -10 13 0 37 -7 51 -15
15 -8 52 -21 82 -29 30 -8 79 -21 108 -29 29 -9 87 -18 130 -22 42 -3 102 -13
133 -21 31 -8 76 -14 100 -14 30 -1 39 -3 29 -9 -17 -10 -181 -33 -225 -32
-16 1 -55 -4 -85 -10 -53 -11 -159 -13 -191 -4 -8 3 -24 -2 -35 -10 -18 -14
-18 -15 -1 -29 10 -8 40 -15 65 -16 113 -2 141 -2 150 4 5 3 40 8 78 11 37 4
89 11 114 16 25 6 77 12 115 15 73 6 131 19 153 37 7 5 81 11 165 14 335 9
373 11 387 17 25 10 223 47 227 42 3 -3 -9 -12 -26 -21 -17 -8 -31 -20 -31
-25 0 -6 -4 -10 -9 -10 -6 0 -40 -21 -77 -46 -86 -59 -149 -94 -168 -94 -8 0
-21 -8 -28 -19 -7 -10 -38 -27 -68 -37 -62 -22 -92 -47 -84 -69 8 -20 26 -19
55 4 13 10 41 24 62 32 21 7 46 20 55 29 9 9 43 26 75 39 31 13 57 30 57 37 0
8 5 14 11 14 6 0 29 13 52 28 23 15 54 33 70 40 15 6 56 34 92 62 46 35 72 49
85 45 10 -3 21 -1 25 5 3 6 10 8 14 6 4 -3 25 -1 47 4 21 5 59 11 83 15 23 3
55 11 70 17 14 6 29 10 34 10 4 -1 24 5 45 14 59 27 222 81 222 75 0 -4 -9
-12 -20 -19 -11 -7 -20 -21 -20 -31 0 -12 -15 -29 -37 -42 -40 -24 -73 -56
-73 -70 0 -11 -56 -41 -100 -54 -25 -7 -39 -20 -50 -43 -11 -24 -25 -34 -55
-42 -103 -27 -155 -54 -155 -82 0 -12 28 -10 32 3 2 6 16 12 31 12 15 1 27 5
27 10 0 4 9 7 20 7 28 0 89 32 120 62 14 14 45 32 70 42 25 10 65 36 91 59 25
23 60 53 77 67 18 14 39 37 47 52 8 15 24 30 35 33 31 10 70 50 70 72 0 14 21
29 79 56 44 21 81 41 83 45 2 4 32 22 68 41 71 37 190 118 190 129 0 4 23 32
50 62 l49 55 -24 -74 c-13 -40 -29 -79 -36 -87 -6 -8 -9 -14 -6 -14 3 0 -8
-27 -24 -60 -15 -32 -31 -72 -35 -87 -4 -15 -17 -51 -30 -80 -13 -28 -21 -61
-19 -72 2 -10 -3 -22 -11 -25 -8 -3 -14 -12 -14 -21 0 -8 -4 -15 -8 -15 -5 0
-14 -11 -20 -25 -6 -14 -17 -25 -24 -25 -7 0 -26 -11 -42 -25 -40 -35 -60 -32
-36 5 5 9 5 19 -2 27 -6 7 -7 13 -3 13 4 0 2 7 -5 15 -19 22 -27 19 -53 -22
-27 -43 -176 -197 -183 -190 -3 2 2 17 10 33 40 81 45 101 31 120 -12 17 -16
17 -40 4 -15 -8 -33 -27 -41 -42 -8 -15 -18 -28 -23 -28 -5 0 -29 -19 -53 -42
-24 -24 -70 -61 -102 -83 -32 -22 -64 -46 -72 -54 -8 -7 -18 -11 -21 -7 -3 3
-31 -8 -62 -24 -108 -57 -164 -77 -266 -94 -11 -2 -38 -9 -60 -15 -22 -6 -82
-14 -134 -17 -89 -6 -94 -5 -86 12 9 22 9 26 -1 79 -10 60 -19 66 -62 48 -20
-8 -40 -19 -43 -24 -8 -13 -179 -99 -196 -99 -7 0 -13 -4 -13 -8 0 -5 -19 -14
-42 -21 -24 -7 -65 -19 -93 -27 -27 -8 -61 -16 -75 -18 -14 -2 -44 -9 -68 -15
-24 -7 -52 -9 -64 -5 -18 5 -16 9 23 35 24 16 46 36 50 46 9 24 -8 56 -24 46
-7 -4 -52 -12 -102 -19 -80 -10 -105 -9 -229 12 -76 13 -161 32 -190 43 -28
11 -82 32 -121 47 -38 15 -92 37 -120 49 -27 13 -77 34 -111 48 -33 13 -71 33
-84 43 -12 10 -43 36 -67 56 -24 21 -47 38 -51 38 -12 0 -96 83 -127 125 -16
22 -41 51 -56 65 -24 23 -74 93 -99 139 -5 11 -12 37 -15 58 -3 21 -12 56 -20
79 -9 22 -18 63 -20 90 -3 27 -8 69 -12 94 -6 47 -7 79 -3 218 2 80 3 84 24
78 11 -4 53 -15 93 -26 39 -10 89 -28 110 -38 21 -11 65 -25 98 -32 146 -29
312 -77 359 -103 12 -6 59 -19 106 -28 47 -10 103 -24 126 -33 22 -8 90 -17
150 -21 60 -3 129 -11 154 -18 66 -17 364 -15 375 3 3 5 38 13 78 20 39 6 95
15 122 20 28 5 82 14 120 20 39 7 76 14 83 16 17 5 12 60 -5 56 -7 -1 -13 2
-13 8 0 5 -7 10 -16 10 -17 0 -118 99 -110 108 3 2 33 -3 68 -11 91 -23 244
-39 297 -32 25 4 60 8 76 10 103 12 137 20 198 41 38 13 72 22 76 20 4 -3 27
1 52 8 31 9 44 19 44 31 0 18 -7 23 -60 45 -16 7 -38 16 -47 21 -10 5 -28 9
-40 9 -13 0 -32 8 -43 16 -19 15 -19 15 10 12 17 -2 44 -11 60 -20z m999 -310
c-4 -13 -16 -29 -27 -37 -11 -8 -27 -23 -36 -33 -25 -29 -90 -102 -100 -111
-30 -29 -50 -45 -84 -64 -29 -18 -37 -19 -37 -8 0 8 9 15 20 15 11 0 24 8 27
18 6 15 231 242 240 242 3 0 1 -10 -3 -22z m-294 -266 c0 -10 -123 -83 -167
-99 -49 -18 -40 -7 18 23 28 14 69 39 92 55 40 29 57 35 57 21z m-55 -492 c3
-5 1 -10 -4 -10 -6 0 -11 5 -11 10 0 6 2 10 4 10 3 0 8 -4 11 -10z m-1180
-360 c3 -5 1 -10 -4 -10 -6 0 -11 5 -11 10 0 6 2 10 4 10 3 0 8 -4 11 -10z"/>
<path d="M3356 1369 c-11 -7 -33 -15 -50 -19 -17 -5 -62 -20 -101 -35 -186
-71 -446 -135 -477 -118 -4 2 -26 -1 -50 -7 -24 -5 -88 -15 -143 -20 -55 -6
-127 -15 -160 -21 -33 -6 -164 -10 -291 -10 -182 1 -256 5 -345 21 -63 10
-152 22 -199 25 -47 4 -105 13 -130 20 -25 7 -64 17 -87 20 -23 4 -73 17 -110
30 -38 14 -69 20 -71 15 -2 -6 -12 -10 -22 -10 -21 0 -33 -36 -19 -61 5 -11
22 -22 37 -25 15 -4 32 -9 37 -13 6 -3 15 -7 20 -8 6 -1 37 -12 70 -23 55 -19
149 -36 250 -46 22 -2 69 -8 105 -13 157 -24 267 -32 446 -33 105 0 197 3 204
7 7 4 54 8 104 9 50 1 96 5 101 8 6 4 42 9 80 12 73 7 167 18 297 36 42 6 116
24 163 41 48 16 90 29 95 29 4 0 25 8 46 17 67 29 168 64 199 70 48 8 85 43
82 78 -2 26 -6 30 -32 32 -16 2 -39 -2 -49 -8z"/>
<path d="M2917 988 c-15 -11 -27 -17 -27 -13 0 4 -11 0 -25 -9 -13 -9 -31 -16
-38 -16 -8 0 -20 -7 -27 -15 -7 -8 -16 -12 -22 -9 -5 3 -14 2 -21 -3 -18 -14
-88 -33 -159 -43 -35 -4 -83 -13 -108 -20 -25 -6 -63 -14 -85 -16 -76 -10
-374 -12 -422 -2 -26 5 -61 11 -78 13 -65 7 -153 15 -219 19 -37 2 -71 8 -75
13 -12 17 -44 8 -64 -19 -16 -21 -18 -30 -9 -41 7 -8 9 -16 6 -19 -12 -13 69
-30 186 -38 69 -6 141 -12 160 -15 177 -26 510 -16 640 20 30 9 71 15 90 14
19 -1 42 1 50 4 8 3 41 13 72 21 31 9 64 23 72 31 8 9 19 15 23 14 24 -4 53 3
66 16 8 8 17 12 20 9 10 -10 63 25 77 51 27 51 -33 90 -83 53z"/>
<path d="M2654 594 c-27 -13 -56 -23 -64 -24 -9 0 -26 -7 -38 -16 -27 -19
-164 -29 -382 -29 -125 0 -182 5 -298 27 -134 25 -144 26 -162 10 -25 -21 -26
-56 -1 -81 14 -14 34 -19 90 -19 39 -1 77 -4 83 -8 13 -8 21 -10 143 -23 73
-8 150 -7 335 3 102 5 226 29 280 53 19 9 48 18 64 20 51 6 90 59 60 84 -8 6
-12 14 -10 18 10 15 -55 6 -100 -15z"/>
<path d="M1720 312 c-27 -30 -19 -60 20 -79 48 -23 128 -28 265 -18 22 2 54 3
70 4 25 1 33 7 42 32 12 30 8 58 -10 70 -4 3 -30 1 -55 -4 -66 -15 -209 -14
-261 0 -54 16 -53 16 -71 -5z"/>
</g>
</svg>
