<?xml version="1.0" standalone="no"?>
<!DOCTYPE svg PUBLIC "-//W3C//DTD SVG 20010904//EN"
 "http://www.w3.org/TR/2001/REC-SVG-20010904/DTD/svg10.dtd">
<svg version="1.0" xmlns="http://www.w3.org/2000/svg"
 width="451.000000pt" height="391.000000pt" viewBox="0 0 451.000000 391.000000"
 preserveAspectRatio="xMidYMid meet">
<metadata>
Created by potrace 1.16, written by Peter Selinger 2001-2019
</metadata>
<g transform="translate(0.000000,391.000000) scale(0.100000,-0.100000)"
fill="#000000" stroke="none">
<path d="M452 3690 c-9 -12 -17 -35 -17 -53 -1 -18 -4 -41 -8 -52 -5 -14 1
-30 21 -53 15 -17 30 -32 34 -32 7 0 52 -38 142 -120 34 -30 83 -73 110 -95
26 -22 58 -50 70 -61 11 -12 49 -45 83 -73 35 -28 80 -68 101 -89 21 -20 67
-62 102 -92 36 -30 85 -74 110 -97 50 -46 63 -57 140 -123 69 -59 226 -198
315 -280 109 -100 153 -139 245 -219 47 -41 123 -108 169 -150 46 -42 96 -87
110 -100 14 -13 35 -29 46 -37 19 -13 15 -18 -64 -92 -46 -42 -92 -81 -102
-87 -9 -5 -52 -42 -96 -81 -95 -87 -189 -169 -234 -207 -19 -15 -68 -58 -109
-96 -153 -140 -262 -237 -293 -259 -18 -13 -70 -57 -117 -99 -47 -41 -116
-103 -155 -137 -38 -33 -90 -80 -116 -103 -25 -24 -48 -43 -51 -43 -3 0 -23
-16 -44 -36 -22 -20 -70 -61 -109 -92 -101 -81 -125 -107 -125 -136 0 -18 6
-25 23 -28 15 -2 23 -11 25 -29 2 -15 13 -31 25 -38 31 -17 90 14 150 78 26
28 49 51 51 51 2 0 24 19 50 43 25 23 78 71 118 107 39 36 83 76 97 90 25 24
46 42 170 149 30 25 84 73 121 106 37 33 97 87 135 120 38 33 83 74 101 90 42
39 122 108 205 178 36 30 93 81 127 114 67 65 99 89 113 85 5 -1 9 4 9 10 0
11 78 85 125 120 6 4 30 26 55 48 25 22 50 40 56 40 5 0 23 -13 39 -30 16 -16
33 -30 38 -30 6 0 15 -6 21 -14 6 -7 59 -56 117 -107 58 -52 156 -138 217
-193 61 -54 126 -109 144 -122 18 -14 74 -64 124 -112 50 -48 127 -118 170
-156 44 -38 108 -96 144 -130 110 -102 244 -222 325 -291 118 -100 291 -265
279 -265 -5 0 11 -13 36 -29 45 -28 45 -28 63 -8 9 11 17 26 17 34 0 8 4 12 8
9 16 -10 52 25 52 49 0 33 -17 75 -31 75 -6 0 -46 30 -89 68 -43 37 -115 99
-161 137 -45 39 -91 80 -103 93 -11 12 -46 41 -76 65 -30 23 -62 49 -70 57 -8
9 -49 44 -90 79 -72 60 -220 194 -303 274 -22 20 -41 37 -43 37 -7 0 -67 53
-109 96 -22 23 -48 45 -57 50 -9 5 -43 34 -75 64 -32 30 -78 71 -103 90 -25
19 -54 44 -65 55 -11 12 -45 41 -75 66 -67 54 -61 49 -153 132 l-74 69 41 37
c22 21 52 46 65 57 88 70 301 261 301 270 0 8 22 29 55 50 46 29 96 72 284
243 45 42 95 85 109 96 14 11 49 44 77 73 29 28 57 52 64 52 6 0 11 7 11 15 0
8 7 15 15 15 8 0 40 25 70 55 30 30 68 62 84 71 16 10 34 27 41 38 6 12 25 31
43 43 18 12 68 56 111 98 43 41 81 73 84 71 2 -3 14 5 26 17 29 28 21 64 -23
107 -52 53 -69 46 -201 -81 -21 -20 -53 -47 -71 -59 -17 -13 -64 -55 -104 -94
-89 -89 -156 -146 -172 -146 -6 0 -14 -9 -18 -19 -3 -11 -22 -32 -43 -47 -40
-31 -87 -72 -106 -92 -6 -7 -17 -18 -24 -25 -8 -7 -29 -26 -47 -43 -18 -17
-48 -42 -66 -55 -19 -13 -56 -44 -83 -69 -71 -65 -68 -63 -100 -88 -36 -28
-135 -113 -195 -169 -25 -23 -48 -43 -51 -43 -3 0 -43 -37 -90 -81 -47 -45
-101 -93 -120 -108 -19 -14 -48 -38 -63 -54 l-28 -28 -42 30 c-23 16 -63 49
-89 73 -26 24 -75 68 -109 98 -34 30 -77 69 -95 86 -18 17 -50 46 -71 64 -21
18 -69 61 -108 95 -38 34 -117 104 -175 155 -58 51 -109 97 -115 104 -5 6 -53
47 -105 91 -52 44 -121 105 -155 136 -90 84 -111 103 -136 119 -12 8 -49 42
-83 76 -34 34 -101 96 -151 139 -118 102 -261 232 -353 323 -41 39 -80 72 -88
72 -8 0 -22 -9 -32 -20z"/>
<path d="M935 2434 c-50 -12 -121 -36 -158 -53 -38 -17 -75 -31 -81 -31 -14 0
-109 -68 -114 -82 -2 -5 -10 -15 -18 -22 -8 -8 -14 -19 -14 -25 0 -6 -3 -11
-8 -11 -4 0 -16 -16 -26 -35 -11 -19 -21 -33 -24 -30 -3 2 -12 -9 -21 -25 -9
-16 -32 -56 -51 -87 -19 -32 -44 -78 -55 -103 -12 -25 -34 -51 -49 -59 -14 -8
-29 -24 -32 -36 -6 -26 29 -91 66 -120 13 -11 33 -28 42 -37 10 -10 23 -18 29
-18 6 0 21 -13 34 -28 13 -15 46 -38 74 -52 28 -13 51 -27 51 -32 0 -5 4 -7 8
-4 5 3 26 0 48 -6 21 -7 42 -13 47 -14 4 -1 9 -2 10 -3 2 0 53 -4 113 -7 156
-9 271 -7 334 6 68 15 210 61 230 75 22 16 61 33 93 39 15 4 35 16 45 27 9 11
34 29 54 40 20 10 41 25 45 32 4 7 22 21 38 31 54 34 111 104 150 181 20 42
44 82 52 90 8 8 17 30 20 49 5 30 2 35 -25 47 -17 7 -33 23 -36 35 -5 19 -104
94 -125 94 -10 0 -93 42 -101 51 -3 3 -25 15 -50 26 -237 107 -429 138 -595
97z m190 -85 c50 -6 106 -12 125 -13 19 -1 60 -14 90 -28 30 -15 74 -31 96
-37 23 -6 53 -20 67 -31 14 -11 30 -20 36 -20 7 0 14 -7 17 -15 4 -8 10 -12
15 -9 6 3 15 1 22 -4 7 -5 28 -15 48 -21 20 -6 45 -21 55 -32 19 -21 19 -21
-26 -15 -96 12 -156 25 -183 39 -24 12 -66 14 -245 10 -318 -6 -351 -8 -417
-30 -33 -11 -75 -24 -94 -28 -18 -4 -53 -20 -77 -36 -24 -16 -64 -42 -89 -59
-25 -16 -48 -30 -50 -30 -11 0 -3 18 18 40 12 14 21 26 19 28 -2 2 8 12 22 23
13 10 27 33 31 49 6 29 36 56 49 43 3 -3 6 1 6 11 0 26 25 47 109 89 67 34 91
43 137 51 7 1 18 7 25 13 12 10 41 17 89 21 8 1 56 -3 105 -9z m238 -266 c4
-3 3 -11 -3 -17 -6 -8 -4 -21 5 -36 47 -83 49 -123 11 -203 -28 -58 -70 -107
-93 -107 -6 0 -18 -6 -25 -12 -27 -27 -86 -41 -167 -42 -80 -1 -89 1 -143 33
-32 19 -59 41 -59 48 -2 15 -4 23 -12 43 -39 101 -46 200 -17 235 8 10 8 15
-1 20 -21 14 20 27 99 32 43 3 79 7 81 9 7 7 317 4 324 -3z m204 -34 c13 -5
53 -9 89 -9 35 0 64 -2 64 -5 0 -12 -24 -55 -31 -55 -4 0 -13 -17 -20 -37 -13
-40 -35 -65 -91 -103 -18 -13 -46 -35 -63 -50 -16 -14 -43 -35 -60 -45 l-30
-18 18 27 c10 15 20 36 22 46 2 11 11 34 19 52 18 38 16 149 -3 172 -6 7 -9
20 -5 29 6 16 43 14 91 -4z m-818 -101 c1 -75 22 -173 40 -191 6 -6 11 -21 11
-32 0 -26 66 -101 99 -113 16 -6 -14 -8 -83 -6 -60 2 -113 7 -120 12 -6 5 -26
12 -44 15 -60 12 -178 97 -211 152 l-19 32 32 25 c17 13 54 37 81 53 28 16 59
36 70 45 21 19 126 80 136 80 4 0 7 -33 8 -72z"/>
<path d="M3541 2409 c-17 -4 -70 -5 -118 -4 -56 1 -98 -3 -115 -12 -15 -7 -38
-13 -52 -13 -13 0 -26 -5 -28 -11 -2 -6 -16 -11 -31 -11 -15 0 -27 -4 -27 -8
0 -5 -29 -23 -64 -40 -35 -18 -74 -42 -88 -54 -13 -11 -39 -29 -58 -40 -19
-10 -40 -25 -47 -33 -6 -8 -16 -12 -22 -9 -10 7 -17 -10 -26 -64 -3 -19 -10
-58 -17 -86 -9 -43 -8 -57 5 -83 8 -17 18 -44 22 -61 4 -16 11 -30 16 -30 5 0
9 -5 9 -11 0 -15 61 -101 117 -165 19 -22 109 -84 121 -84 5 0 65 -29 135 -64
70 -35 127 -63 127 -61 0 3 52 -9 95 -21 46 -14 188 -3 233 17 24 11 50 18 56
16 7 -3 26 1 42 8 16 7 72 25 124 40 52 14 99 30 104 36 6 5 17 9 26 9 9 0 36
18 61 40 24 22 47 40 52 40 4 0 9 0 12 0 10 -1 60 50 60 60 0 5 24 34 53 63
28 30 52 61 52 69 0 8 5 19 11 25 7 7 4 16 -13 29 -23 19 -75 111 -70 126 1 4
-2 8 -6 8 -5 0 -14 12 -21 28 -20 42 -77 125 -103 148 -63 55 -169 118 -233
139 -33 10 -65 22 -70 26 -6 5 -38 11 -70 14 -33 3 -75 10 -93 16 -39 13 -119
17 -161 8z m142 -112 c158 -19 294 -62 328 -104 6 -7 19 -13 28 -13 10 0 31
-15 47 -33 42 -48 114 -153 114 -167 0 -6 7 -18 15 -26 32 -32 12 -31 -55 2
-38 19 -77 37 -87 39 -35 6 -103 37 -103 46 0 5 -6 9 -14 9 -7 0 -26 7 -42 14
-15 8 -32 13 -36 10 -5 -3 -17 3 -26 13 -28 31 -65 53 -90 53 -12 0 -45 12
-73 26 -28 14 -76 28 -107 32 -86 9 -262 6 -307 -6 -22 -6 -66 -12 -97 -13
-32 -1 -58 -5 -58 -8 0 -3 -21 -17 -47 -31 -27 -13 -59 -32 -72 -42 -13 -10
-26 -16 -28 -14 -7 7 17 46 28 46 5 0 20 10 32 23 12 12 31 27 42 34 80 49
127 73 139 73 7 0 31 7 52 16 22 9 62 20 89 24 51 7 260 5 328 -3z m-123 -192
c71 -10 203 -56 228 -80 13 -12 24 -29 26 -37 1 -8 10 -27 19 -41 13 -20 16
-40 12 -76 -5 -54 -31 -128 -52 -149 -7 -7 -13 -18 -13 -23 0 -5 -12 -12 -27
-15 -16 -4 -35 -16 -44 -26 -10 -11 -41 -23 -75 -29 -33 -5 -74 -13 -91 -16
-18 -3 -38 -1 -45 4 -7 5 -29 10 -48 12 -69 5 -169 147 -157 222 15 103 67
217 116 255 14 11 67 10 151 -1z m-299 -40 c-17 -20 -29 -40 -26 -45 3 -5 1
-11 -4 -14 -5 -3 -7 -15 -4 -25 3 -10 -2 -30 -11 -43 -38 -58 -25 -192 26
-257 25 -33 23 -49 -4 -24 -13 12 -40 28 -60 37 -44 17 -108 64 -108 78 0 5
-6 16 -12 23 -30 33 -38 45 -38 54 0 5 -4 11 -8 13 -4 2 -18 20 -31 41 l-23
38 25 27 c15 15 48 38 74 52 26 14 54 31 62 38 23 22 63 36 109 38 24 1 46 5
49 8 4 3 8 4 11 1 3 -2 -10 -20 -27 -40z m777 -145 c11 0 25 -7 32 -15 7 -8
19 -15 27 -15 8 0 28 -11 45 -25 16 -14 40 -25 53 -25 34 0 38 -15 10 -36 -14
-10 -25 -24 -25 -31 0 -12 -132 -103 -150 -103 -6 0 -10 -4 -10 -9 0 -5 -12
-13 -27 -19 -30 -12 -156 -42 -160 -38 -1 1 11 19 28 39 28 34 69 114 76 147
10 53 16 99 17 126 1 31 1 31 33 17 18 -7 41 -13 51 -13z"/>
</g>
</svg>
