<?xml version="1.0" standalone="no"?>
<!DOCTYPE svg PUBLIC "-//W3C//DTD SVG 20010904//EN"
 "http://www.w3.org/TR/2001/REC-SVG-20010904/DTD/svg10.dtd">
<svg version="1.0" xmlns="http://www.w3.org/2000/svg"
 width="487.000000pt" height="387.000000pt" viewBox="0 0 487.000000 387.000000"
 preserveAspectRatio="xMidYMid meet">
<metadata>
Created by potrace 1.16, written by Peter Selinger 2001-2019
</metadata>
<g transform="translate(0.000000,387.000000) scale(0.100000,-0.100000)"
fill="#000000" stroke="none">
<path d="M3880 3550 c-54 -45 -341 -137 -485 -154 -22 -3 -58 -10 -80 -15 -63
-15 -463 -32 -471 -19 -2 3 -35 5 -72 3 -37 -1 -74 1 -82 5 -8 4 -42 11 -75
14 -33 3 -117 14 -187 24 -85 13 -143 16 -180 11 -29 -4 -76 -8 -104 -8 -28
-1 -54 -4 -58 -8 -4 -5 -11 -8 -14 -8 -4 -1 -29 -11 -56 -23 -27 -12 -55 -22
-63 -22 -26 0 -117 -50 -157 -85 -21 -19 -41 -35 -45 -35 -19 0 -182 -174
-225 -240 -16 -25 -37 -57 -48 -72 -10 -15 -18 -31 -18 -35 -1 -4 -14 -19 -30
-33 -17 -13 -30 -28 -30 -32 0 -4 -20 -34 -45 -67 -25 -32 -45 -62 -45 -67 0
-4 -21 -30 -47 -59 -62 -67 -78 -87 -118 -149 -18 -28 -46 -63 -61 -77 -16
-14 -38 -37 -49 -52 -11 -15 -23 -27 -26 -27 -4 0 -24 -17 -45 -38 -67 -64
-175 -157 -193 -163 -9 -4 -23 -14 -30 -23 -7 -9 -19 -16 -27 -16 -22 0 -11
-69 15 -96 22 -23 22 -26 7 -43 -15 -17 -44 -98 -52 -151 -3 -14 -9 -48 -15
-77 -15 -75 -26 -288 -23 -443 2 -145 21 -218 66 -268 12 -12 18 -22 14 -22
-5 0 -3 -6 3 -14 8 -9 11 -41 10 -79 -1 -35 1 -68 4 -74 4 -6 -18 -21 -51 -36
-32 -14 -66 -32 -75 -41 -9 -9 -19 -17 -22 -16 -26 1 -35 -2 -35 -15 0 -10
-10 -15 -27 -15 -16 0 -40 -6 -54 -14 -14 -7 -37 -16 -52 -20 -14 -3 -58 -39
-98 -78 -67 -68 -71 -74 -65 -107 3 -20 10 -37 16 -39 5 -2 10 -9 10 -16 0
-18 89 -47 156 -51 71 -4 108 -12 154 -33 38 -18 214 -22 430 -10 58 4 125 2
150 -3 235 -48 535 -86 555 -69 16 13 129 25 152 15 10 -4 106 -8 213 -9 151
-2 202 1 227 12 18 7 38 10 45 6 7 -4 10 -4 6 1 -9 9 57 45 92 50 14 2 43 7
65 13 22 5 65 7 95 5 30 -3 93 2 139 11 45 9 87 14 91 11 5 -3 21 0 36 5 15 6
49 13 75 15 58 5 168 30 230 52 54 19 71 41 63 81 -12 61 -153 77 -521 59
l-123 -5 -27 28 c-37 37 -55 60 -47 60 3 0 -4 9 -17 20 -13 10 -20 19 -15 20
6 0 -3 10 -20 23 -16 12 -30 29 -32 37 -4 16 -48 69 -70 83 -7 5 -29 42 -48
83 -20 41 -40 74 -45 74 -5 0 -9 41 -9 91 0 79 3 96 26 135 16 27 24 54 22 68
-4 18 1 27 19 35 12 6 23 17 23 26 0 8 11 17 24 21 14 3 35 21 48 40 13 19 30
36 39 39 9 3 35 32 56 65 39 57 40 58 56 39 10 -11 17 -24 17 -29 0 -5 7 -7
15 -4 8 4 15 1 15 -5 0 -15 106 -13 143 2 15 7 27 15 27 19 0 5 7 8 15 8 8 0
19 9 25 20 6 11 17 20 25 20 8 0 15 6 15 14 0 7 18 32 40 54 22 22 40 42 40
46 0 3 19 26 43 50 52 55 85 97 109 142 20 39 53 74 68 74 6 0 10 7 10 15 0
19 49 95 61 95 5 0 9 5 9 11 0 16 100 144 151 194 22 22 47 51 55 65 14 23 22
25 92 27 67 1 129 2 182 1 36 0 290 22 335 30 28 5 70 18 94 30 30 15 63 22
99 22 37 0 71 8 106 24 28 13 78 30 111 36 141 28 222 92 186 149 -11 17 -81
26 -81 11 0 -6 -4 -8 -10 -5 -5 3 -10 2 -10 -4 0 -19 -47 -41 -111 -52 -35 -6
-73 -17 -85 -24 -11 -7 -59 -21 -105 -30 -46 -9 -104 -23 -129 -31 -57 -18
-146 -34 -230 -41 -36 -2 -80 -9 -99 -13 -19 -5 -39 -6 -44 -3 -12 7 -345 5
-412 -2 -52 -6 -127 -26 -139 -36 -6 -5 -16 -9 -24 -9 -17 0 -142 -89 -148
-105 -3 -7 -20 -21 -38 -30 -19 -10 -41 -31 -51 -47 -9 -16 -28 -40 -42 -54
-33 -33 -103 -126 -103 -136 0 -5 -6 -8 -14 -8 -7 0 -16 -9 -19 -21 -3 -11
-15 -23 -26 -26 -11 -3 -23 -13 -26 -23 -3 -10 -16 -29 -29 -43 -21 -23 -34
-45 -95 -161 -14 -27 -43 -67 -63 -88 -21 -22 -38 -43 -38 -46 0 -11 -50 -62
-60 -62 -6 0 -10 -5 -10 -11 0 -15 -36 -60 -43 -53 -3 3 -8 -4 -12 -15 -3 -12
-12 -21 -18 -21 -14 0 -83 -64 -89 -81 -3 -9 -17 -5 -45 11 -34 19 -40 26 -34
43 4 11 4 40 1 65 -7 44 -4 77 10 97 4 6 15 42 24 80 10 39 20 77 23 85 4 8 5
19 4 24 -1 4 3 14 9 21 6 7 17 35 26 64 16 55 28 79 117 226 31 53 57 100 57
106 0 5 4 9 9 9 4 0 19 25 32 55 13 30 27 55 31 55 5 0 8 7 8 15 0 7 6 18 13
22 7 4 23 25 36 46 13 21 28 43 35 50 24 24 56 85 56 105 0 41 -75 64 -90 28
-5 -11 -26 -46 -47 -77 -77 -113 -113 -170 -113 -175 0 -3 -22 -40 -50 -83
-27 -43 -50 -82 -50 -86 0 -4 -26 -49 -57 -99 -32 -49 -58 -96 -59 -103 -1 -7
-13 -36 -27 -65 -27 -57 -52 -132 -63 -188 -3 -19 -15 -51 -25 -71 -16 -33
-25 -99 -18 -139 5 -31 -1 -61 -11 -55 -12 7 -58 -19 -75 -42 -10 -14 -72 -32
-108 -33 -13 0 -18 6 -16 23 4 29 -8 47 -32 47 -10 0 -20 6 -20 13 -14 119 13
252 75 375 13 26 23 62 22 80 0 17 2 32 5 32 4 0 15 23 25 50 10 27 21 50 25
50 4 0 10 11 13 24 3 14 12 31 19 38 12 13 22 32 75 128 13 25 28 50 33 56 5
6 6 14 2 17 -3 4 -1 7 5 7 7 0 11 3 11 8 -4 16 23 72 32 66 5 -3 9 -2 9 3 0 4
16 26 36 48 20 22 45 59 57 81 21 41 80 115 143 180 33 35 64 79 64 91 0 5
-14 17 -30 27 l-31 18 -52 -55 c-29 -29 -63 -69 -77 -87 -14 -18 -46 -56 -72
-83 -28 -30 -48 -59 -48 -73 0 -12 -4 -24 -9 -26 -21 -8 -111 -134 -127 -179
-10 -27 -21 -49 -24 -49 -4 0 -16 -20 -28 -44 -12 -24 -29 -49 -37 -56 -8 -7
-15 -18 -15 -24 0 -7 -11 -23 -24 -35 -13 -13 -27 -38 -31 -57 -3 -19 -17 -56
-31 -83 -13 -27 -22 -55 -19 -63 3 -7 -6 -36 -20 -63 -14 -28 -25 -56 -25 -62
0 -7 -7 -13 -15 -13 -8 0 -15 -4 -15 -10 0 -5 -7 -10 -15 -10 -8 0 -12 -6 -9
-14 3 -7 -3 -21 -12 -30 -22 -22 -52 -67 -92 -138 -33 -57 -97 -118 -125 -118
-8 0 -25 8 -38 19 -22 17 -22 21 -11 72 6 30 14 76 17 103 3 27 12 61 20 77 8
15 15 37 15 48 0 11 4 23 10 26 5 3 10 15 10 26 0 11 5 30 12 42 6 12 13 29
14 37 14 77 47 160 70 173 8 5 12 12 9 18 -4 5 1 19 9 31 9 12 16 31 16 41 0
9 7 20 15 23 8 4 15 17 15 30 0 14 6 27 14 30 8 3 16 17 19 32 3 15 21 48 40
73 19 24 44 62 56 84 11 21 24 41 29 44 5 3 15 18 23 32 30 57 244 289 266
289 7 0 13 5 13 12 0 7 12 22 26 34 24 21 25 24 10 52 -15 29 -34 42 -62 42
-8 0 -14 -4 -14 -10 0 -12 -40 -54 -40 -42 0 4 -8 -7 -16 -25 -9 -17 -30 -38
-47 -47 -30 -14 -127 -106 -127 -120 0 -9 -19 -31 -58 -69 -18 -17 -42 -51
-53 -76 -11 -25 -23 -48 -27 -51 -4 -3 -23 -29 -41 -57 -22 -36 -40 -53 -54
-53 -11 0 -18 -2 -15 -5 5 -5 -100 -114 -111 -116 -3 0 -33 -32 -65 -71 -33
-39 -68 -73 -78 -76 -10 -2 -18 -9 -18 -14 0 -26 -112 -112 -195 -151 -47 -22
-159 -33 -189 -19 -12 6 -36 16 -54 24 -17 7 -32 16 -32 20 0 5 -9 8 -20 8
-11 0 -20 3 -20 6 0 12 21 44 30 44 23 0 280 256 335 335 27 39 52 72 55 75 3
3 19 23 35 45 16 22 39 49 51 60 36 35 104 126 104 140 0 7 13 24 29 37 16 14
31 33 35 44 3 10 20 35 37 54 17 19 39 51 49 70 18 34 186 211 246 258 43 35
155 84 244 109 96 27 126 30 196 21 38 -5 89 -10 114 -13 46 -4 108 -11 190
-21 25 -3 58 -8 75 -9 16 -2 46 -6 65 -9 90 -13 385 -6 530 14 47 6 101 14
120 16 178 22 498 135 578 203 27 24 29 57 3 71 -31 16 -54 11 -91 -20z m-520
-1194 c0 -2 -21 -25 -47 -52 -27 -28 -61 -67 -78 -87 -16 -21 -35 -44 -41 -50
-5 -7 -19 -28 -30 -47 -10 -19 -25 -41 -31 -48 -7 -7 -13 -17 -13 -22 0 -5 -6
-15 -13 -22 -16 -17 -67 -96 -67 -104 0 -12 -48 -63 -54 -57 -3 4 -6 1 -6 -6
0 -12 -33 -51 -117 -136 -29 -30 -53 -58 -53 -64 0 -6 -7 -11 -16 -11 -8 0
-13 -3 -10 -8 2 -4 -7 -12 -20 -19 -24 -11 -41 -2 -30 16 7 10 -52 24 -66 15
-13 -8 8 32 36 71 13 17 25 38 29 48 3 9 13 17 22 17 8 0 15 7 15 15 0 8 5 15
10 15 6 0 10 7 10 15 0 8 9 15 20 15 15 0 20 7 20 28 0 20 14 43 50 80 28 29
50 54 50 57 0 6 28 41 58 72 12 13 22 28 22 33 0 5 6 13 13 17 7 4 26 27 43
50 16 24 33 43 37 43 4 0 31 19 60 41 50 40 81 57 121 65 11 2 24 8 30 14 9 9
46 15 46 6z m-1876 -271 c-9 -14 -18 -40 -19 -57 -2 -17 -7 -33 -11 -37 -5 -3
-10 -17 -12 -31 -5 -43 -54 -195 -65 -202 -5 -3 -11 -19 -13 -35 -7 -74 -17
-139 -25 -161 -14 -37 0 -101 27 -119 13 -8 24 -21 24 -28 0 -7 10 -16 23 -20
12 -4 29 -9 37 -12 8 -3 30 -6 48 -7 23 -1 31 -5 27 -15 -14 -36 -17 -207 -6
-297 14 -111 45 -237 65 -266 15 -20 75 -92 119 -141 15 -16 25 -32 23 -34 -2
-2 -23 1 -47 7 -46 13 -113 19 -249 24 -47 2 -105 8 -130 14 -25 7 -60 12 -77
12 -25 0 -36 6 -47 28 -18 33 -63 82 -76 82 -9 0 -41 43 -86 117 -12 20 -25
53 -28 74 -5 28 -13 41 -33 51 -21 10 -30 23 -35 53 -5 22 -11 54 -16 70 -14
57 -5 314 13 371 9 30 18 59 19 66 1 7 24 58 50 113 27 55 52 111 56 125 5 21
15 26 54 32 70 10 206 67 243 102 18 17 61 59 94 94 64 64 84 74 53 27z m599
-750 c-3 -9 -8 -14 -10 -11 -3 3 -2 9 2 15 9 16 15 13 8 -4z m-283 -130 c0 -8
-4 -15 -10 -15 -5 0 -7 7 -4 15 4 8 8 15 10 15 2 0 4 -7 4 -15z"/>
</g>
</svg>
