<?xml version="1.0" standalone="no"?>
<!DOCTYPE svg PUBLIC "-//W3C//DTD SVG 20010904//EN"
 "http://www.w3.org/TR/2001/REC-SVG-20010904/DTD/svg10.dtd">
<svg version="1.0" xmlns="http://www.w3.org/2000/svg"
 width="509.000000pt" height="459.000000pt" viewBox="0 0 509.000000 459.000000"
 preserveAspectRatio="xMidYMid meet">
<metadata>
Created by potrace 1.16, written by Peter Selinger 2001-2019
</metadata>
<g transform="translate(0.000000,459.000000) scale(0.100000,-0.100000)"
fill="#000000" stroke="none">
<path d="M1500 4497 c-42 -26 -117 -103 -126 -129 -3 -10 -10 -18 -15 -18 -5
0 -9 -5 -9 -10 0 -13 -20 -53 -79 -165 -69 -128 -88 -167 -108 -217 -10 -27
-21 -48 -25 -48 -5 0 -8 -5 -8 -11 0 -6 -26 -63 -57 -127 -70 -141 -79 -160
-93 -192 -10 -25 -50 -58 -50 -41 0 4 5 33 11 62 18 85 20 342 3 373 -7 15
-21 53 -30 86 -9 33 -20 60 -23 60 -4 0 -24 24 -45 54 -39 53 -39 53 -85 48
-87 -9 -139 -64 -154 -167 -11 -72 -84 -295 -96 -295 -4 0 -13 -21 -20 -47 -8
-27 -29 -80 -47 -120 -19 -40 -34 -75 -34 -77 0 -3 -5 -17 -12 -33 -21 -51
-60 -192 -74 -268 -3 -16 -8 -37 -11 -45 -3 -8 -7 -36 -10 -61 -2 -25 -7 -58
-11 -74 -10 -35 11 -200 34 -267 8 -25 17 -57 19 -70 11 -58 16 -108 20 -171
2 -37 6 -71 8 -75 11 -19 -1 -188 -27 -397 -21 -163 -25 -184 -42 -216 -8 -16
-26 -73 -40 -127 -13 -53 -35 -124 -48 -157 -13 -33 -36 -94 -52 -135 -39
-106 -92 -230 -115 -266 -23 -38 -25 -80 -3 -88 21 -8 20 -8 38 10 9 8 16 11
16 5 0 -6 4 -11 9 -11 7 0 100 204 105 234 2 6 12 31 23 56 32 71 83 201 98
250 61 202 95 339 104 415 6 50 13 106 15 125 11 83 20 196 18 210 -2 8 -5 76
-7 150 -3 89 -9 148 -19 172 -8 19 -13 38 -9 41 3 4 2 14 -3 24 -4 10 -9 25
-10 33 -1 8 -7 38 -12 65 -24 117 -24 177 -2 285 27 127 23 108 52 230 6 25
19 60 29 77 10 18 20 43 22 55 1 13 20 59 41 102 21 43 39 84 41 90 1 6 11 31
22 56 11 25 32 92 48 150 26 101 51 160 67 160 4 0 8 9 8 20 0 38 34 22 63
-30 16 -28 26 -50 22 -50 -3 0 2 -11 11 -25 13 -19 16 -48 16 -127 -1 -57 -1
-122 -2 -146 0 -24 -3 -48 -6 -54 -4 -5 -8 -33 -10 -61 -3 -28 -9 -56 -14 -62
-6 -7 -8 -20 -4 -29 3 -9 2 -16 -3 -16 -6 0 -10 -12 -10 -27 0 -16 -2 -41 -6
-57 -4 -17 -1 -36 9 -50 8 -13 12 -25 10 -27 -4 -4 40 -4 87 0 9 0 17 8 17 16
0 13 78 118 105 140 23 19 75 112 95 169 20 60 59 136 70 136 3 0 6 9 7 19 1
11 14 46 30 78 15 32 27 64 26 71 0 6 3 12 9 12 5 0 23 30 40 68 18 37 35 69
38 72 4 3 17 28 30 55 13 28 31 58 40 67 8 9 29 43 45 75 30 58 65 104 65 87
0 -5 5 -1 11 9 12 20 47 23 55 4 18 -47 5 -121 -36 -212 -10 -22 -27 -65 -38
-95 -11 -31 -29 -74 -40 -95 -11 -22 -28 -58 -37 -80 -39 -92 -45 -105 -53
-105 -4 0 -8 -8 -9 -17 -2 -33 -8 -48 -29 -78 -29 -41 -37 -81 -24 -121 12
-35 21 -39 109 -48 41 -4 81 17 101 55 8 15 27 47 42 71 15 24 29 53 31 63 9
46 20 75 29 75 5 0 7 4 4 9 -3 5 5 25 19 45 14 20 25 39 25 41 0 2 23 39 50
81 28 42 50 81 50 86 0 5 11 24 25 42 14 18 25 39 25 46 0 7 15 31 33 54 18
23 39 54 47 70 18 35 88 70 107 54 20 -16 13 -94 -14 -168 -12 -36 -23 -70
-23 -77 0 -6 -9 -32 -20 -57 -11 -26 -18 -48 -17 -50 1 -2 -5 -12 -15 -22 -14
-17 -49 -90 -46 -97 1 -1 -10 -20 -24 -42 -26 -42 -98 -213 -98 -236 -1 -8 -7
-32 -15 -54 -13 -37 -13 -42 8 -72 12 -18 30 -33 39 -33 9 0 18 -4 20 -10 2
-6 15 -4 32 5 15 8 34 15 41 15 6 0 23 21 38 48 14 26 43 66 64 89 24 27 45
63 56 101 11 33 30 70 43 83 13 12 24 30 24 39 0 9 15 32 33 51 18 19 45 59
61 89 15 30 36 63 45 74 9 10 15 20 13 22 -3 5 28 54 47 74 11 11 15 12 19 2
2 -7 10 -19 18 -26 12 -13 12 -23 -1 -78 -19 -79 -40 -150 -53 -174 -6 -11
-18 -47 -28 -81 -9 -35 -21 -63 -26 -63 -4 0 -8 -8 -8 -17 0 -10 -16 -47 -34
-83 -59 -112 -96 -189 -96 -197 0 -5 -9 -26 -20 -48 -11 -22 -20 -54 -20 -73
0 -66 87 -109 127 -62 10 11 23 20 30 20 7 0 13 4 13 9 0 5 9 13 20 16 11 3
20 12 20 18 0 7 27 42 60 77 33 36 60 70 60 76 0 15 60 74 75 74 7 0 31 21 55
48 l42 47 -7 -35 c-4 -19 -14 -47 -21 -62 -8 -15 -14 -34 -14 -43 0 -8 -4 -15
-10 -15 -5 0 -10 -9 -10 -19 0 -11 -4 -23 -10 -26 -5 -3 -16 -20 -24 -38 -8
-18 -25 -57 -39 -87 -13 -30 -28 -66 -32 -79 -4 -14 -16 -38 -26 -55 -11 -17
-19 -39 -19 -48 0 -9 -7 -24 -16 -32 -8 -9 -13 -16 -9 -16 3 0 -1 -12 -9 -27
-26 -49 -56 -119 -56 -131 0 -6 -10 -28 -21 -49 -12 -21 -33 -60 -47 -88 -30
-59 -60 -103 -86 -127 -10 -10 -16 -18 -12 -18 4 0 -1 -15 -12 -32 -11 -18
-39 -71 -63 -118 -23 -47 -55 -97 -71 -111 -15 -14 -28 -29 -28 -33 0 -15 -53
-85 -61 -80 -5 3 -9 -2 -9 -10 0 -9 -4 -16 -10 -16 -5 0 -16 -12 -24 -28 -17
-33 -81 -102 -95 -102 -6 0 -18 -8 -28 -18 -10 -11 -33 -27 -52 -38 -18 -10
-52 -36 -75 -57 -22 -20 -45 -37 -49 -37 -4 0 -27 -9 -49 -20 -23 -11 -50 -20
-59 -20 -10 0 -24 -6 -31 -12 -7 -7 -29 -21 -49 -31 -19 -10 -41 -26 -47 -35
-6 -9 -23 -33 -37 -52 -14 -19 -32 -51 -40 -70 -25 -55 -50 -105 -55 -110 -23
-23 -81 -190 -124 -355 -52 -201 -63 -241 -75 -263 -6 -12 -16 -41 -21 -64
-19 -90 -23 -103 -31 -108 -4 -3 -9 -17 -11 -32 -2 -15 -7 -30 -11 -34 -4 -4
-7 -16 -7 -26 0 -10 -4 -18 -8 -18 -5 0 -19 -32 -32 -71 -14 -40 -37 -91 -52
-115 -39 -62 -45 -106 -18 -132 39 -36 93 -6 111 62 6 22 20 61 31 86 31 71
36 82 49 125 6 22 20 56 29 75 10 19 28 69 39 110 12 41 25 82 30 90 4 8 14
40 21 70 7 30 16 65 21 78 5 13 9 34 9 47 0 13 4 26 9 29 5 3 12 23 15 43 4
21 14 61 23 88 31 97 72 214 82 232 5 10 20 39 32 66 12 26 26 47 31 47 4 0 8
6 8 13 0 21 37 82 71 116 17 18 61 43 98 57 84 32 163 81 234 146 17 16 36 28
42 28 27 0 202 194 250 278 11 17 25 32 32 32 7 0 13 5 13 12 0 6 11 25 24 42
13 17 26 41 30 54 4 12 11 22 16 22 4 0 11 16 14 35 4 19 11 35 16 35 6 0 10
5 10 10 0 6 20 41 44 78 24 37 65 108 91 157 66 124 66 122 127 265 11 25 24
53 29 62 5 10 9 25 9 33 0 8 3 15 8 15 9 0 32 49 32 71 0 9 13 42 30 73 16 31
29 60 29 64 0 4 15 36 32 72 69 143 67 136 85 274 6 44 4 50 -21 72 -16 13
-36 24 -46 24 -20 0 -138 -93 -165 -130 -10 -14 -53 -58 -95 -97 -43 -40 -76
-73 -73 -73 2 0 -6 -12 -18 -26 -13 -14 -24 -21 -26 -16 -3 10 36 99 62 142
25 41 66 133 66 148 0 8 6 28 14 45 32 71 88 255 93 307 5 48 1 62 -26 113
-18 31 -29 57 -25 57 4 0 -2 9 -14 20 -29 27 -89 26 -123 -3 -45 -38 -85 -98
-140 -207 -13 -25 -29 -49 -36 -53 -7 -5 -11 -12 -8 -17 3 -5 -2 -19 -12 -30
-10 -12 -28 -34 -40 -48 -13 -15 -23 -31 -23 -36 0 -5 -6 -17 -13 -25 -7 -9
-19 -34 -26 -56 -13 -40 -51 -103 -83 -139 -16 -18 -17 -18 -11 5 3 13 14 35
23 49 9 14 22 40 29 59 6 19 17 42 24 50 17 20 117 244 117 261 0 8 12 42 26
78 30 76 31 80 39 178 5 69 3 80 -17 111 -13 18 -34 36 -48 39 -14 3 -36 9
-50 13 -19 6 -41 -1 -90 -26 -65 -33 -90 -60 -133 -145 -11 -21 -23 -38 -27
-38 -4 0 -26 -35 -48 -77 -51 -100 -66 -127 -141 -247 -39 -62 -64 -114 -68
-140 -6 -43 -56 -126 -75 -126 -9 0 -9 3 0 12 7 7 12 19 12 29 0 9 8 27 19 40
10 13 24 42 31 64 6 22 26 69 42 105 17 36 41 88 53 115 13 28 29 69 36 92 6
23 19 50 29 60 9 10 17 21 18 26 1 4 2 8 3 10 18 67 16 227 -4 227 -4 0 -5 5
-1 11 3 6 -11 26 -32 45 -46 40 -91 44 -144 11z"/>
<path d="M4129 3656 c-2 -2 -17 -7 -34 -9 -80 -15 -175 -52 -175 -69 0 -5 -6
-8 -12 -8 -7 0 -35 -32 -63 -71 -27 -39 -63 -82 -79 -96 -16 -13 -30 -36 -32
-51 -1 -15 -8 -28 -13 -30 -6 -2 -11 -11 -11 -19 0 -9 -12 -41 -26 -72 -14
-31 -32 -69 -39 -86 -8 -16 -21 -52 -29 -80 -15 -53 -44 -116 -57 -125 -4 -3
-9 -12 -11 -20 -5 -21 -61 -76 -96 -94 -19 -10 -56 -16 -104 -16 -130 1 -288
-6 -323 -13 -32 -7 -67 -23 -107 -50 -21 -15 -45 -27 -54 -29 -32 -6 -82 -63
-102 -118 -11 -30 -30 -77 -42 -105 -20 -43 -22 -67 -22 -182 0 -73 3 -137 7
-144 14 -22 6 -228 -11 -288 -17 -62 -37 -81 -90 -85 -58 -5 -150 -29 -198
-52 -28 -13 -58 -24 -67 -24 -9 0 -19 -6 -22 -13 -3 -7 -37 -29 -76 -48 -39
-19 -71 -39 -71 -46 0 -6 -8 -14 -18 -17 -20 -7 -61 -76 -68 -115 -3 -13 -11
-35 -18 -50 -7 -14 -16 -38 -19 -52 -4 -14 -16 -36 -27 -49 -11 -13 -20 -31
-20 -41 0 -10 -10 -46 -23 -81 -44 -125 -11 -363 62 -446 9 -10 25 -33 35 -52
11 -19 30 -50 42 -69 29 -43 192 -166 242 -182 20 -6 42 -15 47 -19 12 -9 213
-59 280 -70 27 -4 60 -4 72 1 13 5 60 13 105 19 46 5 115 22 153 36 39 14 88
31 110 37 22 5 45 14 51 19 7 5 47 11 90 13 44 2 113 10 155 16 l77 12 98 -47
c55 -27 106 -52 114 -57 77 -48 128 -61 290 -76 162 -14 202 -11 250 21 25 16
49 36 53 43 5 7 29 23 55 35 26 12 58 31 72 43 49 43 126 90 170 104 81 24
125 48 177 95 88 79 113 146 129 332 6 72 4 84 -12 101 -11 10 -20 30 -22 43
-2 14 -29 70 -60 125 -104 183 -129 297 -104 480 20 148 24 163 73 246 15 25
32 70 38 100 22 98 41 292 35 359 -10 135 -14 164 -28 204 -10 30 -13 88 -11
221 3 163 1 189 -22 280 -24 97 -59 185 -74 185 -4 0 -16 15 -28 33 -11 17
-29 44 -39 59 -20 30 -124 103 -192 135 -85 39 -185 66 -256 69 -39 2 -73 2
-75 0z m91 -113 c0 -5 19 -9 43 -10 56 -2 145 -34 202 -72 25 -17 49 -31 53
-31 13 0 82 -66 82 -78 0 -7 5 -12 10 -12 6 0 10 -5 10 -10 0 -6 16 -33 35
-61 26 -36 37 -64 41 -101 3 -28 8 -56 11 -61 7 -11 17 -204 15 -295 0 -35 -5
-69 -11 -76 -10 -12 -9 -47 2 -76 14 -37 35 -128 36 -155 0 -16 2 -56 4 -87 1
-32 -1 -58 -5 -58 -4 0 -8 -19 -8 -42 -1 -98 -20 -183 -59 -258 -53 -104 -74
-198 -86 -381 -3 -60 10 -173 25 -204 5 -11 19 -49 30 -85 24 -76 58 -146 82
-171 20 -22 58 -104 65 -144 7 -43 8 -62 1 -135 -8 -76 -14 -98 -39 -125 -10
-11 -29 -32 -41 -46 -13 -15 -58 -41 -103 -59 -44 -17 -90 -38 -103 -46 -12
-8 -26 -13 -30 -10 -4 2 -38 -22 -76 -54 -38 -33 -89 -69 -115 -81 -25 -12
-64 -34 -86 -50 -46 -33 -69 -35 -230 -21 -97 9 -159 24 -175 42 -10 12 -97
50 -113 50 -9 0 -17 5 -17 10 0 6 -4 10 -10 10 -5 0 -29 13 -52 30 -45 31 -82
37 -168 26 -25 -3 -82 -8 -128 -11 -148 -11 -174 -16 -255 -56 -73 -36 -123
-49 -201 -54 -33 -2 -79 -7 -101 -11 -48 -8 -45 -8 -115 1 -30 5 -62 8 -70 8
-8 0 -19 3 -25 7 -5 4 -35 13 -65 20 -61 14 -217 99 -258 140 -38 39 -46 50
-61 90 -8 19 -29 55 -48 79 -18 24 -33 55 -33 68 0 14 -4 33 -10 43 -5 10 -10
58 -11 107 -2 82 10 141 39 200 48 97 82 173 87 196 9 45 68 108 119 128 17 7
54 28 83 46 29 18 60 34 70 36 10 1 25 7 33 12 19 12 33 15 90 20 25 3 72 12
105 21 53 14 62 20 77 52 43 95 55 162 53 302 -1 74 -5 167 -10 206 -18 161
51 342 140 371 11 3 35 17 53 31 25 19 50 27 103 31 39 4 73 3 79 -3 6 -6 14
-5 23 2 9 8 55 11 128 11 154 -2 178 6 259 82 26 25 91 126 94 145 1 7 7 18
13 26 11 12 17 34 40 125 3 12 14 31 24 42 11 12 17 21 15 21 -3 0 3 23 14 50
11 28 20 60 20 71 0 11 7 22 15 26 9 3 25 23 35 44 11 21 30 49 42 62 13 14
36 41 52 61 15 20 33 36 40 36 6 0 38 11 71 25 57 23 155 34 155 18z"/>
</g>
</svg>
