<?xml version="1.0" standalone="no"?>
<!DOCTYPE svg PUBLIC "-//W3C//DTD SVG 20010904//EN"
 "http://www.w3.org/TR/2001/REC-SVG-20010904/DTD/svg10.dtd">
<svg version="1.0" xmlns="http://www.w3.org/2000/svg"
 width="523.000000pt" height="459.000000pt" viewBox="0 0 523.000000 459.000000"
 preserveAspectRatio="xMidYMid meet">
<metadata>
Created by potrace 1.16, written by Peter Selinger 2001-2019
</metadata>
<g transform="translate(0.000000,459.000000) scale(0.100000,-0.100000)"
fill="#000000" stroke="none">
<path d="M1003 4400 c-13 -5 -23 -13 -24 -17 -1 -16 -1 -821 0 -898 1 -59 3
-953 2 -1030 -5 -475 -12 -972 -16 -1110 -4 -99 -7 -184 -7 -190 0 -5 2 -79 5
-163 3 -83 1 -154 -3 -157 -7 -5 -6 -178 3 -252 2 -18 0 -33 -4 -33 -4 0 -8
-37 -8 -82 0 -46 -3 -102 -7 -125 -6 -40 -4 -43 22 -54 16 -6 37 -15 46 -20
10 -5 33 -9 52 -9 30 0 36 4 50 41 9 22 13 46 9 52 -12 20 -15 366 -7 792 8
419 9 450 17 462 4 6 4 14 -1 17 -5 3 -7 103 -6 223 2 120 5 484 8 808 2 325
7 739 11 920 3 182 8 430 10 552 2 123 6 227 9 231 3 5 -2 18 -10 30 -13 18
-25 22 -72 21 -31 0 -67 -4 -79 -9z"/>
<path d="M1730 4371 c-25 -21 -32 -33 -24 -40 7 -8 9 -282 7 -882 -2 -578 1
-877 8 -890 7 -13 6 -19 -1 -19 -7 0 -10 -169 -10 -552 1 -697 -5 -1384 -14
-1553 -4 -72 -3 -136 2 -143 5 -7 26 -15 48 -18 21 -3 43 -9 48 -14 6 -6 15
-10 21 -10 16 0 55 35 55 48 0 6 6 13 13 15 6 3 7 6 2 6 -8 1 -10 129 -7 404
2 221 3 416 3 432 0 17 -1 35 -1 40 0 6 2 125 5 265 3 140 7 537 9 882 3 345
8 689 11 765 7 175 7 517 -1 537 -3 8 -2 21 3 28 4 7 9 123 10 258 4 358 4
360 16 360 6 0 -2 14 -18 30 -16 17 -39 30 -53 30 -13 0 -37 11 -54 25 -16 14
-33 25 -37 25 -4 0 -22 -13 -41 -29z"/>
<path d="M4227 4376 c-3 -8 -19 -17 -35 -21 -17 -3 -34 -14 -38 -23 -4 -9 -9
-881 -10 -1937 -2 -1056 -4 -1956 -6 -2000 -4 -101 6 -114 81 -113 87 0 88 1
85 226 -1 112 3 192 8 192 5 0 7 4 3 9 -6 10 -7 874 -1 1151 5 225 7 394 6
400 -3 21 -1 469 3 652 3 126 2 230 -3 233 -4 3 -4 22 1 42 4 21 5 39 1 40 -4
2 -5 51 -2 110 3 60 4 151 2 203 -1 52 -3 109 -2 125 0 17 2 167 5 335 2 168
7 315 10 327 8 34 -22 63 -66 63 -22 0 -39 -6 -42 -14z"/>
<path d="M2682 4369 c-13 -5 -35 -6 -48 -3 -13 4 -37 1 -53 -6 l-29 -12 -1
-166 c-2 -225 -11 -3593 -11 -3755 1 -148 8 -169 54 -160 17 3 38 9 46 14 8 4
22 3 32 -2 13 -7 21 -3 35 17 19 29 17 -106 28 2174 2 437 4 858 5 935 0 77 1
199 1 270 0 72 0 182 0 245 0 63 -1 122 -1 130 -1 8 1 75 4 149 4 127 3 135
-17 156 -18 18 -27 21 -45 14z m-37 -2789 c3 -5 1 -10 -4 -10 -6 0 -11 5 -11
10 0 6 2 10 4 10 3 0 8 -4 11 -10z m-8 -432 c-3 -8 -6 -5 -6 6 -1 11 2 17 5
13 3 -3 4 -12 1 -19z"/>
<path d="M4927 4357 c2 -4 0 -14 -7 -22 -14 -17 -16 -203 -6 -1035 4 -349 9
-761 10 -915 2 -154 4 -422 5 -595 0 -173 1 -371 2 -440 0 -69 1 -132 0 -140
-4 -347 -3 -889 3 -898 4 -7 11 -10 16 -7 5 3 12 1 15 -5 5 -8 11 -8 21 0 7 7
19 10 26 7 7 -2 26 3 41 12 30 17 42 51 40 111 -2 39 -15 2975 -15 3240 1 91
2 182 5 202 2 20 -2 63 -10 94 -9 34 -12 71 -8 93 7 34 16 173 16 234 0 43
-49 79 -77 56 -9 -7 -14 -8 -14 -1 0 5 -15 12 -34 14 -19 2 -32 0 -29 -5z"/>
<path d="M3332 4353 c-28 -6 -43 -42 -34 -80 9 -35 7 -986 -2 -1001 -3 -6 -2
-13 2 -16 5 -3 8 -58 6 -123 -1 -65 -2 -192 -2 -283 1 -345 -3 -2124 -5 -2322
-1 -115 -6 -208 -10 -208 -4 0 0 -11 10 -25 21 -29 49 -32 75 -8 13 11 22 14
26 7 12 -18 50 -22 70 -8 19 13 20 29 21 496 1 266 3 609 6 763 5 270 15 1484
19 2308 1 219 -1 400 -6 403 -4 3 -8 15 -8 27 -1 32 -22 62 -45 64 -65 8 -103
10 -123 6z"/>
<path d="M290 4322 c-20 -9 -22 -22 -21 -117 9 -836 11 -1257 13 -2363 2 -723
-1 -1371 -6 -1440 -8 -117 -7 -127 10 -139 18 -13 63 -12 116 3 26 7 36 53 29
131 -6 68 -6 726 2 2271 2 387 0 705 -4 708 -5 3 -6 28 -3 57 4 29 8 138 9
242 2 105 4 195 5 200 1 6 -2 53 -5 105 -4 52 -7 100 -7 105 1 6 3 44 6 85 3
59 1 79 -12 93 -8 9 -19 17 -23 17 -4 0 -19 11 -33 25 -25 25 -47 30 -76 17z"/>
</g>
</svg>
