<?xml version="1.0" standalone="no"?>
<!DOCTYPE svg PUBLIC "-//W3C//DTD SVG 20010904//EN"
 "http://www.w3.org/TR/2001/REC-SVG-20010904/DTD/svg10.dtd">
<svg version="1.0" xmlns="http://www.w3.org/2000/svg"
 width="525.000000pt" height="353.000000pt" viewBox="0 0 525.000000 353.000000"
 preserveAspectRatio="xMidYMid meet">
<metadata>
Created by potrace 1.16, written by Peter Selinger 2001-2019
</metadata>
<g transform="translate(0.000000,353.000000) scale(0.100000,-0.100000)"
fill="#000000" stroke="none">
<path d="M2382 3445 c-7 -8 -15 -28 -18 -44 -5 -25 -2 -31 22 -43 34 -17 74
-12 74 8 0 8 5 14 11 14 16 0 1 51 -19 67 -22 16 -54 16 -70 -2z"/>
<path d="M2303 3227 c-14 -17 -18 -29 -11 -46 13 -36 35 -52 61 -46 38 10 60
13 92 15 17 0 39 7 49 15 17 13 18 18 6 40 -26 48 -161 63 -197 22z"/>
<path d="M2317 3093 c-4 -3 -29 -8 -56 -9 -27 -1 -59 -7 -70 -14 -25 -13 -28
-55 -6 -84 13 -18 20 -18 84 -8 38 7 103 12 143 13 112 0 152 10 156 36 3 17
-3 24 -25 28 -15 3 -45 10 -65 16 -20 5 -60 10 -90 10 -29 1 -56 6 -59 10 -3
5 -8 6 -12 2z"/>
<path d="M2377 2916 c-10 -8 -15 -20 -11 -29 3 -8 1 -18 -4 -21 -6 -3 -8 -38
-6 -78 7 -127 12 -968 5 -968 -9 0 -45 59 -69 113 -19 43 -24 47 -52 45 -48
-4 -67 -60 -35 -102 8 -11 15 -27 15 -37 0 -9 23 -45 50 -79 28 -34 50 -68 50
-75 0 -7 7 -15 15 -19 8 -3 12 -12 9 -21 -3 -8 -2 -15 4 -15 5 0 12 -8 14 -18
5 -17 -5 -18 -136 -18 -78 -1 -168 -2 -201 -3 -33 -1 -172 0 -310 3 -137 4
-471 8 -742 10 -302 3 -499 9 -511 15 -24 13 -42 10 -86 -14 -28 -15 -35 -24
-31 -43 2 -13 9 -30 15 -37 6 -7 10 -60 9 -131 -1 -133 10 -462 16 -481 2 -7
7 -63 10 -125 4 -62 9 -142 12 -178 10 -135 11 -215 2 -226 -5 -6 -6 -25 -3
-43 7 -33 29 -44 83 -44 14 0 465 3 1001 7 536 4 1045 9 1130 11 272 7 1663 6
1710 -2 63 -10 108 -9 122 5 12 12 12 50 1 202 -6 91 -10 357 -6 450 1 25 2
92 2 150 1 58 3 116 6 130 3 14 7 76 10 139 3 62 7 117 10 121 3 5 0 12 -6 16
-8 5 -8 9 2 14 9 6 4 16 -19 39 l-30 31 -169 2 c-92 1 -179 1 -193 1 -79 -3
-303 -4 -491 -2 -118 1 -220 -1 -226 -4 -7 -4 -15 -3 -18 3 -6 10 -56 8 -85
-3 -28 -11 -100 -15 -106 -6 -8 14 -82 11 -87 -3 -3 -10 -9 -10 -26 0 -11 6
-29 12 -38 11 -16 0 -15 -2 2 -9 15 -7 10 -9 -22 -9 -24 -1 -43 4 -43 9 0 6
-19 9 -42 9 l-43 -2 35 -7 c30 -6 26 -8 -30 -10 -36 -2 -90 -2 -120 -2 -30 1
-99 1 -152 2 -54 0 -98 4 -98 9 0 5 13 36 30 69 17 34 30 69 30 80 0 10 8 28
18 40 45 54 52 63 52 70 0 5 11 19 25 32 31 29 29 61 -8 100 l-28 29 -33 -20
c-22 -13 -37 -31 -44 -58 -7 -21 -19 -44 -27 -51 -13 -11 -15 -5 -16 46 -1 53
0 91 2 119 1 6 -2 73 -6 150 -4 77 -7 149 -7 160 0 11 0 61 1 110 0 50 0 128
0 175 -1 100 6 208 16 233 5 11 2 17 -8 17 -8 0 -17 7 -21 15 -7 18 -45 19
-69 1z m-162 -1401 c382 -4 1747 -18 1873 -19 28 -1 52 -4 52 -7 0 -3 21 -3
48 1 39 5 123 6 162 1 6 -1 8 -72 5 -203 -5 -186 -5 -665 -1 -799 l2 -56 -376
-1 c-466 -1 -918 -10 -930 -17 -5 -3 -11 -1 -15 5 -4 6 -10 8 -14 6 -11 -7
-1293 -19 -1891 -17 -278 0 -528 1 -556 1 -40 0 -53 4 -59 18 -4 9 -9 75 -11
147 -2 72 -9 180 -15 240 -16 171 -20 255 -22 464 -2 148 1 195 10 198 8 3 11
14 7 30 l-7 25 659 -6 c363 -4 848 -9 1079 -11z"/>
<path d="M2118 1450 c-21 -13 -23 -38 -6 -76 l12 -26 101 7 c55 5 142 8 193 8
50 0 92 2 92 6 0 4 29 6 64 6 78 -1 108 8 99 30 -4 12 -13 15 -29 11 -13 -4
-24 -2 -24 3 0 18 -107 32 -295 37 -130 3 -196 2 -207 -6z"/>
<path d="M2249 1289 c-21 -8 -58 -57 -47 -63 2 -1 15 -10 30 -19 23 -14 42
-15 158 -7 172 12 202 18 198 39 -2 9 -18 19 -38 23 -19 3 -53 11 -75 17 -60
15 -196 21 -226 10z"/>
<path d="M2343 1148 c-6 -7 -13 -25 -16 -39 -5 -20 -2 -28 16 -38 31 -16 67
-18 105 -4 24 9 32 18 32 37 0 30 -21 43 -82 51 -31 4 -48 2 -55 -7z"/>
<path d="M2783 1603 c9 -2 23 -2 30 0 6 3 -1 5 -18 5 -16 0 -22 -2 -12 -5z"/>
</g>
</svg>
