<?xml version="1.0" standalone="no"?>
<!DOCTYPE svg PUBLIC "-//W3C//DTD SVG 20010904//EN"
 "http://www.w3.org/TR/2001/REC-SVG-20010904/DTD/svg10.dtd">
<svg version="1.0" xmlns="http://www.w3.org/2000/svg"
 width="461.000000pt" height="479.000000pt" viewBox="0 0 461.000000 479.000000"
 preserveAspectRatio="xMidYMid meet">
<metadata>
Created by potrace 1.16, written by Peter Selinger 2001-2019
</metadata>
<g transform="translate(0.000000,479.000000) scale(0.100000,-0.100000)"
fill="#000000" stroke="none">
<path d="M2474 4765 c-129 -23 -270 -74 -289 -105 -3 -5 -21 -17 -40 -26 -18
-8 -63 -43 -99 -77 -53 -50 -74 -81 -114 -162 -27 -55 -57 -127 -67 -160 -10
-33 -23 -78 -30 -101 -8 -25 -11 -85 -9 -160 3 -121 16 -185 64 -304 37 -94
40 -86 -41 -123 -41 -19 -89 -40 -106 -47 -18 -7 -33 -16 -33 -21 0 -5 -3 -8
-7 -7 -5 1 -18 -3 -30 -10 -12 -6 -30 -13 -40 -15 -10 -2 -36 -14 -58 -28 -22
-15 -69 -36 -105 -49 -62 -21 -164 -72 -184 -91 -6 -5 -18 -9 -27 -9 -9 0 -19
-6 -22 -13 -3 -7 -23 -19 -46 -27 -23 -7 -46 -19 -52 -27 -6 -7 -20 -13 -29
-13 -10 0 -20 -5 -22 -10 -2 -6 -17 -12 -33 -14 -16 -2 -31 -8 -33 -15 -2 -6
-8 -11 -14 -11 -14 0 -46 -37 -53 -61 -4 -13 3 -30 19 -50 14 -17 26 -36 26
-44 0 -7 -19 -29 -42 -50 -24 -21 -60 -53 -81 -71 -20 -19 -49 -37 -62 -40
-14 -3 -25 -10 -25 -14 0 -11 -127 -93 -147 -96 -8 -2 -25 -12 -37 -23 -12
-12 -28 -21 -34 -21 -7 0 -12 -4 -12 -10 0 -5 -6 -10 -14 -10 -15 0 -146 -103
-158 -123 -14 -26 -47 -143 -44 -162 1 -11 8 -33 14 -48 7 -16 12 -30 12 -32
0 -19 126 -191 178 -243 12 -12 22 -25 22 -29 0 -5 18 -21 39 -37 22 -16 50
-51 66 -82 15 -30 31 -54 36 -54 5 0 9 -8 9 -17 0 -10 9 -29 20 -43 11 -14 20
-29 20 -34 0 -19 74 -116 92 -122 17 -5 19 -15 17 -85 -2 -75 0 -84 40 -164
23 -47 47 -85 52 -85 6 0 23 -8 37 -18 29 -19 49 -21 70 -8 7 4 16 6 19 3 3
-3 20 3 39 14 19 10 38 19 43 19 5 0 11 -21 15 -46 3 -25 13 -62 23 -81 19
-40 94 -159 118 -186 14 -16 14 -24 -9 -87 -14 -39 -24 -70 -22 -70 2 0 -2
-20 -9 -44 -8 -24 -11 -46 -8 -49 2 -3 0 -14 -6 -25 -6 -11 -13 -38 -16 -61
-3 -23 -14 -62 -25 -86 -11 -24 -20 -51 -20 -59 0 -8 -5 -27 -12 -43 -6 -15
-12 -32 -13 -38 -2 -5 -12 -39 -24 -74 -11 -35 -21 -73 -21 -83 0 -11 -5 -28
-11 -40 -17 -32 6 -78 40 -78 51 1 90 51 84 108 -3 33 26 152 47 191 6 12 8
26 5 32 -4 5 -2 15 3 22 13 16 59 171 68 227 3 25 9 50 12 55 4 6 7 15 7 20 4
51 35 82 35 34 0 -10 3 -18 8 -17 11 2 59 -20 66 -31 3 -5 21 -13 39 -16 17
-4 37 -12 44 -17 18 -14 63 -20 63 -8 0 6 4 9 9 6 4 -3 21 20 37 52 15 31 32
58 36 60 4 2 8 14 8 27 0 13 7 30 15 39 8 8 15 19 15 24 0 5 7 15 15 22 8 7
15 23 15 36 0 13 4 24 10 24 5 0 12 23 16 50 4 28 10 50 14 50 4 0 8 10 8 23
0 12 5 42 12 67 18 75 21 92 25 160 6 105 17 215 21 219 6 7 159 1 221 -9 109
-18 408 -14 488 6 45 11 116 18 203 20 129 2 132 2 133 -19 1 -12 3 -47 4 -77
1 -30 5 -66 8 -80 4 -14 8 -43 11 -65 12 -104 35 -190 64 -242 7 -12 12 -29
12 -38 0 -16 64 -152 99 -210 15 -26 24 -30 68 -32 50 -2 53 -1 113 56 35 32
76 66 92 75 l29 18 -2 -44 c-1 -23 4 -68 10 -98 6 -30 15 -91 21 -135 14 -116
31 -217 40 -240 15 -41 40 -161 42 -203 1 -24 5 -45 10 -48 4 -3 8 -16 8 -30
0 -34 24 -56 65 -61 29 -3 34 0 43 27 11 30 2 117 -17 170 -5 14 -14 45 -21
70 -7 25 -19 64 -26 88 -8 24 -16 64 -19 90 -6 57 -22 159 -37 227 -6 28 -12
97 -14 155 -6 145 3 172 40 134 25 -24 102 -32 171 -16 51 12 66 21 111 68 52
54 52 55 59 132 8 100 14 132 26 132 5 0 9 11 9 25 0 14 5 25 10 25 6 0 10 8
10 18 0 10 9 24 20 32 11 8 15 17 10 20 -5 3 3 24 18 47 15 23 38 61 52 84 14
23 30 47 35 53 6 6 16 22 23 37 7 14 26 39 43 57 16 17 29 33 29 36 0 3 34 39
76 81 96 94 127 150 128 228 1 41 -4 61 -14 67 -8 5 -11 10 -6 10 5 0 4 6 -2
13 -6 7 -14 32 -18 55 -4 23 -10 45 -15 48 -4 2 -6 11 -3 19 5 12 -31 91 -47
105 -3 3 -13 19 -22 35 -9 17 -29 45 -46 62 -16 18 -32 42 -36 52 -3 11 -32
47 -63 79 -31 32 -73 76 -92 98 -20 21 -57 56 -83 78 -26 21 -47 45 -47 52 0
8 -5 14 -11 14 -5 0 -8 3 -6 8 3 4 -10 18 -28 32 -19 14 -36 33 -38 42 -3 10
-16 22 -29 27 -18 7 -23 16 -22 37 1 31 -21 84 -35 84 -5 0 -40 26 -78 58 -74
62 -133 102 -152 102 -6 0 -46 22 -89 50 -42 27 -83 50 -89 50 -16 0 -156 89
-165 105 -11 18 -65 38 -84 31 -11 -4 -15 -2 -12 6 64 181 91 323 90 483 0 72
-2 137 -5 145 -2 8 -9 35 -15 60 -6 25 -19 63 -28 85 -10 22 -17 43 -16 48 1
4 -2 7 -7 7 -5 0 -12 8 -15 18 -3 9 -18 31 -33 48 -76 85 -92 101 -123 127
-19 15 -39 27 -45 27 -6 0 -18 9 -28 20 -10 12 -21 18 -26 16 -5 -3 -14 1 -21
9 -7 8 -19 15 -26 15 -8 0 -14 5 -14 11 0 5 -5 7 -11 4 -5 -4 -18 0 -27 8 -21
18 -98 58 -103 53 -9 -9 -69 -13 -69 -5 0 11 -6 11 -96 -6z m109 -102 c-3 -13
34 -27 58 -22 22 4 54 -9 124 -52 36 -21 69 -39 73 -39 5 0 23 -12 40 -27 17
-16 49 -44 71 -63 64 -54 139 -212 141 -295 2 -49 -10 -277 -14 -284 -3 -4 -7
-27 -11 -51 -4 -25 -11 -50 -16 -56 -5 -7 -9 -16 -8 -20 1 -5 -3 -22 -10 -39
-14 -32 -22 -62 -23 -82 -1 -7 -5 -13 -9 -13 -4 0 -10 -12 -14 -27 -18 -74
-146 -214 -222 -244 -93 -37 -204 -44 -362 -24 -49 6 -135 34 -163 53 -48 32
-196 181 -203 204 -7 24 -14 40 -60 142 -43 94 -53 151 -51 276 2 86 8 134 25
190 24 79 84 212 110 243 62 73 158 151 222 180 31 13 142 48 194 60 39 10
110 3 108 -10z m565 -1215 c2 -5 10 -8 18 -8 8 0 14 -4 14 -10 0 -5 5 -10 11
-10 7 0 36 -16 65 -35 29 -19 56 -35 61 -35 11 0 87 -40 93 -50 3 -4 25 -18
50 -30 71 -36 123 -71 185 -124 37 -32 39 -35 26 -62 -7 -16 -14 -31 -14 -34
-1 -2 -15 -18 -30 -35 -15 -16 -40 -48 -55 -70 -15 -22 -32 -43 -37 -47 -6 -4
-33 -38 -60 -77 -26 -39 -54 -71 -61 -71 -7 0 -28 6 -46 14 -93 39 -188 46
-216 16 -17 -18 -18 -34 -16 -148 2 -70 6 -154 10 -187 12 -118 14 -152 18
-335 2 -127 8 -196 17 -220 8 -19 13 -42 13 -50 -1 -8 -2 -29 -3 -45 -1 -29
-3 -30 -41 -28 -22 1 -42 -2 -45 -8 -4 -5 -22 -9 -41 -9 -19 0 -43 -6 -54 -12
-17 -11 -22 -10 -30 2 -5 8 -10 10 -10 4 0 -10 -113 -10 -205 0 -16 2 -35 0
-40 -5 -11 -8 -55 -20 -91 -23 -11 -1 -25 -5 -31 -9 -6 -4 -22 -7 -34 -7 -13
-1 -102 -2 -196 -4 -95 -2 -173 -1 -173 3 0 3 -28 7 -63 7 -156 3 -365 13
-399 20 -30 5 -38 11 -38 28 0 12 -7 32 -16 44 -8 12 -14 32 -13 45 2 12 1 27
-3 32 -20 34 -27 342 -12 580 12 198 10 257 -7 268 -26 16 -108 -11 -122 -40
-5 -12 -17 -23 -26 -23 -9 0 -63 -15 -121 -34 -58 -18 -110 -31 -117 -29 -6 2
-14 16 -18 31 -4 15 -9 34 -11 42 -18 73 -46 157 -57 174 -7 11 -21 44 -31 71
-10 28 -27 58 -38 67 -11 10 -18 24 -15 32 3 8 1 17 -6 19 -21 7 14 38 75 67
32 15 73 38 90 52 39 28 229 123 241 120 13 -4 241 101 327 150 8 4 26 14 40
20 14 7 27 16 30 19 3 4 20 13 39 21 l34 14 105 -103 c136 -133 146 -139 312
-177 8 -2 65 -7 125 -11 109 -6 123 -5 250 29 55 15 165 79 165 96 0 3 11 13
25 20 14 7 25 19 25 27 0 7 6 13 13 13 6 0 20 17 30 38 9 20 24 50 33 65 l15
28 42 -33 c23 -18 44 -36 45 -40z m658 -525 c34 -38 73 -78 86 -90 79 -73 198
-194 198 -201 0 -4 10 -19 23 -32 47 -51 147 -194 147 -212 0 -10 4 -18 9 -18
4 0 11 -24 14 -53 4 -29 18 -80 31 -112 23 -56 23 -62 8 -90 -16 -32 -62 -85
-74 -85 -4 0 -25 -18 -47 -40 -22 -22 -44 -40 -50 -40 -6 0 -11 -4 -11 -10 0
-5 -24 -43 -52 -85 -29 -41 -78 -113 -108 -160 -30 -47 -58 -85 -62 -85 -5 0
-8 -9 -8 -21 0 -11 -4 -18 -8 -15 -12 7 -45 -62 -48 -99 -2 -16 -6 -67 -9
-112 -4 -46 -11 -83 -16 -83 -6 0 -8 -4 -5 -9 16 -26 -64 -71 -125 -71 -29 0
-49 18 -32 29 6 3 18 23 27 43 19 39 15 87 -8 111 -6 6 -16 28 -22 47 -10 33
-12 35 -54 34 -24 -1 -46 -6 -48 -13 -2 -6 -12 -11 -23 -11 -10 0 -19 -4 -19
-10 0 -13 -37 -13 -45 -1 -3 5 -1 12 5 16 5 3 10 15 10 25 0 21 28 60 44 60
18 0 57 53 54 74 -1 13 5 31 15 40 9 10 17 22 17 27 0 6 4 8 9 4 6 -3 13 0 18
7 4 7 21 19 36 27 26 14 106 101 92 101 -4 0 0 7 7 15 30 33 38 45 38 54 0 5
6 16 13 23 6 7 28 35 47 61 19 27 42 57 52 67 9 10 14 21 11 24 -3 3 2 8 11
12 9 3 16 13 16 20 0 8 6 17 14 20 11 4 12 12 3 40 -6 19 -16 34 -23 34 -7 0
-16 9 -19 21 -8 24 -76 141 -87 149 -4 3 -9 19 -12 35 -3 17 -12 35 -21 41 -8
6 -15 16 -15 22 0 6 -13 26 -28 44 -16 18 -35 48 -43 66 -8 17 -18 32 -22 32
-12 0 -30 20 -45 51 -21 40 -100 121 -112 114 -5 -3 -10 -3 -10 0 0 10 56 88
77 107 25 23 49 52 45 55 -5 6 53 73 62 73 5 0 37 -30 72 -67z m-2714 -135
c40 -101 40 -105 -15 -163 -20 -21 -41 -64 -39 -77 1 -5 -4 -8 -12 -8 -8 0
-21 -6 -28 -12 -7 -7 -31 -28 -53 -47 -22 -19 -40 -39 -40 -43 0 -5 -7 -13
-15 -18 -8 -5 -11 -10 -6 -10 5 0 2 -8 -7 -18 -24 -27 -17 -116 15 -178 14
-27 31 -62 39 -79 8 -16 22 -39 32 -49 9 -11 17 -28 17 -37 0 -10 5 -21 10
-24 6 -3 10 -15 10 -26 0 -10 5 -19 11 -19 5 0 7 -4 4 -10 -3 -5 -2 -10 4 -10
6 0 18 -26 27 -57 9 -32 23 -68 31 -80 19 -29 53 -141 53 -175 0 -15 7 -33 16
-40 8 -7 24 -21 35 -30 10 -10 25 -18 33 -18 21 0 12 -34 -10 -40 -42 -11 -83
-45 -89 -72 -4 -15 -10 -28 -15 -28 -4 0 -6 -9 -3 -20 4 -15 -2 -22 -23 -30
-24 -10 -31 -8 -52 16 -15 15 -26 40 -26 58 -1 17 -5 37 -9 44 -5 6 -5 17 -2
22 3 6 3 16 -2 23 -4 6 -8 33 -8 59 0 29 -7 54 -18 66 -9 10 -17 24 -17 30 0
7 -4 12 -10 12 -13 0 -61 54 -80 90 -84 156 -153 254 -204 292 -25 18 -52 49
-60 68 -8 19 -31 48 -50 63 -53 41 -115 184 -87 201 6 4 11 16 11 27 0 27 108
129 136 129 3 0 23 14 44 30 21 17 47 30 58 30 11 0 37 16 58 35 22 19 43 35
47 35 4 0 17 9 29 20 12 11 28 20 35 20 7 0 13 5 13 10 0 6 4 10 9 10 5 0 23
14 41 30 18 17 38 30 46 30 8 0 14 5 14 10 0 14 38 50 53 50 7 0 29 -42 49
-92z m2215 -109 c15 -7 52 -22 81 -35 66 -30 76 -30 100 0 l18 24 33 -25 c18
-14 44 -44 58 -67 14 -22 32 -45 39 -49 8 -4 31 -33 52 -64 20 -31 40 -61 44
-67 4 -6 21 -38 36 -71 16 -33 47 -95 70 -137 l40 -77 -29 -28 c-16 -15 -29
-33 -29 -39 0 -6 -17 -31 -39 -55 -21 -24 -46 -60 -56 -79 -10 -19 -31 -45
-46 -59 -16 -14 -29 -31 -29 -37 0 -6 -13 -17 -29 -23 -15 -7 -34 -24 -40 -37
-6 -14 -25 -30 -41 -36 -20 -6 -32 -19 -37 -36 -7 -28 -7 -29 -53 -83 -16 -20
-30 -42 -30 -48 0 -8 -5 -9 -19 -2 -22 12 -63 79 -56 91 3 5 0 10 -6 12 -6 2
-11 23 -12 46 -1 28 -7 44 -17 47 -12 4 -16 25 -18 92 -1 49 -5 106 -7 128 -9
74 -14 150 -15 225 -1 41 -10 136 -20 210 -11 79 -17 163 -14 200 3 36 6 71 6
78 2 15 28 16 65 1z m-1742 -117 c-14 -78 -20 -396 -11 -564 4 -65 2 -88 -7
-88 -9 0 -8 -3 1 -9 9 -5 12 -22 9 -52 -5 -45 11 -119 26 -119 5 0 -5 -13 -21
-30 -21 -20 -28 -36 -25 -50 3 -11 0 -20 -6 -20 -5 0 -8 -7 -5 -15 4 -8 -1
-26 -10 -40 -9 -14 -13 -25 -9 -25 5 0 -7 -10 -25 -21 l-32 -21 -26 23 c-62
57 -94 90 -94 98 0 5 -9 11 -20 14 -11 3 -20 12 -20 20 0 8 -11 18 -25 21 -15
4 -30 18 -37 34 -6 15 -26 60 -45 100 -18 40 -43 103 -54 140 -12 37 -26 69
-31 70 -4 2 -8 10 -8 18 0 8 -18 44 -40 81 -22 36 -42 74 -43 83 -2 9 -11 29
-21 44 -43 66 -22 120 80 207 22 19 42 43 68 84 19 28 19 29 27 7 5 -12 6 -28
3 -36 -3 -8 0 -17 6 -21 15 -9 93 -14 105 -7 6 4 15 7 21 8 34 5 156 49 204
73 30 15 58 26 62 24 4 -2 5 -16 3 -31z m1653 -929 c2 -13 8 -23 13 -23 5 0 9
-8 9 -18 0 -11 9 -27 20 -37 11 -10 25 -33 32 -51 7 -19 16 -34 21 -34 4 0 7
-8 6 -17 -1 -10 2 -26 6 -37 7 -17 -10 -40 -25 -31 -3 2 -36 6 -74 9 -38 4
-76 12 -85 19 -12 9 -13 9 -7 0 5 -9 -1 -13 -23 -13 -16 0 -33 5 -37 12 -4 7
-9 61 -10 120 -2 107 -2 108 21 108 13 0 26 4 30 10 3 5 27 8 53 7 40 -2 47
-5 50 -24z m-1448 -17 c21 -1 25 -5 23 -31 -2 -17 -5 -66 -9 -110 -3 -44 -6
-85 -6 -91 -1 -10 -53 -1 -135 24 -41 13 -75 37 -66 46 4 3 8 14 9 23 6 39 29
103 38 103 5 0 6 3 3 6 -3 4 -2 15 4 26 9 17 17 19 62 12 29 -4 63 -8 77 -8z
m-395 -190 c22 -11 54 -29 70 -41 35 -25 186 -91 230 -100 17 -4 43 -11 58
-17 27 -10 27 -13 22 -66 -2 -30 -14 -74 -25 -97 -11 -23 -20 -47 -20 -53 0
-7 -4 -12 -8 -12 -4 0 -16 -23 -27 -51 -23 -59 -51 -91 -86 -96 -28 -4 -68 14
-88 41 -8 11 -24 29 -35 40 -29 28 -96 118 -96 128 0 5 -9 19 -21 31 -17 18
-38 57 -41 77 -1 3 -7 10 -14 15 -12 9 -25 84 -25 140 1 11 -11 30 -25 41
l-26 21 28 7 c15 4 35 17 43 28 14 21 15 21 30 2 9 -10 34 -28 56 -38z m2218
-102 c9 -4 17 -9 17 -13 0 -10 -110 -122 -150 -153 -19 -14 -55 -45 -80 -68
-24 -23 -57 -48 -72 -56 -15 -8 -31 -21 -36 -30 -16 -28 -63 -7 -80 37 -8 22
-18 39 -22 39 -4 0 -13 21 -20 48 -6 26 -16 56 -20 67 -5 11 -11 32 -14 47 -3
14 -8 32 -11 40 -6 16 42 17 155 4 68 -8 200 12 264 40 17 7 36 11 41 9 6 -3
18 -8 28 -11z"/>
<path d="M2249 4311 c-76 -18 -99 -34 -99 -67 0 -45 39 -61 77 -32 6 5 14 5
16 1 3 -5 31 -8 63 -7 77 2 100 31 74 98 -11 29 -31 30 -131 7z"/>
<path d="M2777 4294 c-1 -2 -25 -6 -52 -9 -108 -14 -188 -99 -118 -126 22 -8
36 -6 74 11 48 23 77 23 162 2 32 -9 39 -7 47 8 28 52 -9 108 -74 113 -20 2
-37 2 -39 1z"/>
<path d="M2282 4163 c-7 -3 -19 -18 -28 -35 -15 -28 -14 -31 6 -53 23 -25 67
-30 87 -9 7 7 13 27 13 45 0 45 -36 69 -78 52z"/>
<path d="M2742 4147 c-27 -29 -29 -84 -4 -103 25 -19 60 -17 72 5 14 27 13 91
-2 91 -6 0 -19 7 -28 15 -15 13 -19 13 -38 -8z"/>
<path d="M2510 3889 c0 -5 -12 -6 -27 -3 -32 5 -76 -15 -81 -37 -5 -25 30 -55
68 -57 19 -2 44 -4 55 -6 28 -4 65 14 66 33 2 29 -3 56 -12 65 -12 13 -69 17
-69 5z"/>
<path d="M2530 3709 c-14 -3 -40 -4 -58 -1 -23 3 -47 -3 -82 -22 -27 -15 -51
-26 -53 -24 -2 2 -30 -15 -63 -37 -49 -33 -60 -46 -62 -72 -3 -23 2 -34 17
-42 31 -17 47 -13 82 18 37 34 140 76 168 68 11 -3 22 0 24 7 3 8 21 5 63 -8
75 -24 104 -42 104 -64 0 -23 52 -51 84 -45 38 8 53 66 26 101 -43 54 -205
133 -250 121z"/>
<path d="M2486 753 c-2 -2 -21 -6 -42 -8 -112 -13 -136 -18 -148 -30 -8 -8
-16 -12 -18 -10 -2 2 -5 -12 -5 -32 -1 -20 -10 -57 -21 -82 -17 -39 -30 -69
-37 -91 -1 -3 -7 -18 -13 -33 -7 -16 -12 -31 -12 -34 0 -3 -11 -21 -25 -39
-14 -18 -25 -39 -25 -47 0 -9 -9 -26 -20 -39 -11 -12 -31 -39 -43 -58 -13 -19
-29 -34 -34 -33 -6 1 -10 -11 -9 -29 2 -31 35 -68 61 -68 21 0 50 33 84 100
18 36 42 76 52 89 11 13 19 29 19 35 0 12 51 118 67 138 6 7 13 27 17 43 12
51 40 105 53 100 7 -2 15 0 18 5 4 6 25 10 48 10 36 0 45 -4 59 -28 10 -16 20
-42 22 -59 3 -16 17 -60 31 -97 14 -36 25 -75 25 -85 0 -10 9 -38 19 -62 11
-24 17 -47 15 -51 -3 -4 2 -18 10 -30 9 -12 16 -30 16 -40 0 -35 34 -89 60
-95 14 -3 30 -9 36 -14 14 -11 43 24 50 60 4 18 0 33 -10 44 -9 8 -16 20 -16
26 0 6 -4 11 -10 11 -5 0 -7 7 -3 15 3 10 1 15 -7 13 -8 -2 -18 15 -25 42 -6
25 -17 54 -23 65 -6 11 -21 56 -32 100 -23 87 -37 135 -53 178 -6 18 -6 31 1
40 7 8 6 23 -2 46 -11 34 -12 34 -69 36 -31 1 -59 0 -61 -2z"/>
</g>
</svg>
