<?xml version="1.0" standalone="no"?>
<!DOCTYPE svg PUBLIC "-//W3C//DTD SVG 20010904//EN"
 "http://www.w3.org/TR/2001/REC-SVG-20010904/DTD/svg10.dtd">
<svg version="1.0" xmlns="http://www.w3.org/2000/svg"
 width="373.000000pt" height="363.000000pt" viewBox="0 0 373.000000 363.000000"
 preserveAspectRatio="xMidYMid meet">
<metadata>
Created by potrace 1.16, written by Peter Selinger 2001-2019
</metadata>
<g transform="translate(0.000000,363.000000) scale(0.100000,-0.100000)"
fill="#000000" stroke="none">
<path d="M1815 3514 c-38 -7 -92 -16 -120 -19 -27 -3 -61 -7 -75 -10 -14 -3
-53 -9 -86 -14 -34 -5 -71 -14 -82 -20 -12 -6 -28 -11 -38 -11 -21 0 -166 -69
-176 -84 -4 -6 -8 -7 -8 -3 0 5 -14 -2 -31 -14 -18 -12 -55 -34 -83 -47 -28
-14 -66 -38 -84 -54 -18 -15 -39 -28 -46 -28 -8 0 -17 -11 -20 -25 -3 -13 -26
-46 -51 -72 -25 -26 -69 -84 -98 -128 -52 -80 -102 -149 -124 -173 -6 -6 -14
-21 -18 -31 -3 -10 -26 -54 -50 -97 -25 -43 -45 -86 -45 -94 0 -9 -6 -25 -14
-35 -13 -18 -15 -19 -33 -3 -27 24 -92 29 -133 10 -19 -8 -55 -33 -80 -54 -25
-22 -51 -44 -58 -49 -33 -27 -14 -283 35 -444 31 -103 33 -117 37 -260 4 -167
37 -238 115 -250 77 -13 81 -14 81 -40 0 -14 9 -53 20 -87 11 -35 26 -88 34
-118 7 -30 33 -107 56 -170 23 -63 44 -124 47 -135 4 -11 17 -37 30 -57 12
-21 23 -45 23 -53 0 -16 18 -56 29 -65 12 -10 51 -70 51 -78 0 -9 127 -133
232 -227 233 -207 416 -267 818 -267 111 0 255 21 311 46 19 8 60 22 92 32 31
9 57 21 57 26 0 5 4 7 9 3 5 -3 16 2 24 10 9 8 22 15 31 15 8 0 21 6 28 13 20
18 48 34 88 52 19 9 51 31 70 49 19 18 51 43 70 56 38 25 111 97 148 145 13
17 43 50 66 75 57 60 183 230 226 305 19 33 42 74 52 90 10 17 34 65 55 107
l36 77 46 -4 c55 -6 98 9 107 39 4 11 10 23 13 26 13 10 50 147 51 190 3 137
40 283 109 430 11 25 21 52 21 61 0 9 7 30 15 45 17 33 19 83 6 134 -5 19 -12
46 -15 60 -6 28 -60 91 -91 107 -41 20 -94 15 -131 -13 -19 -15 -37 -24 -40
-21 -5 5 -31 157 -49 282 -13 90 -91 287 -140 351 -14 18 -25 37 -25 43 0 6
-4 11 -10 11 -5 0 -10 6 -10 14 0 22 -182 188 -236 216 -27 13 -51 27 -54 30
-3 3 -27 14 -55 25 -27 10 -66 25 -85 34 -19 8 -37 15 -40 16 -3 0 -19 8 -37
18 -48 26 -135 59 -163 61 -14 2 -32 6 -40 9 -8 4 -42 11 -75 16 -33 6 -71 12
-85 15 -123 23 -312 28 -405 10z m343 -118 c30 -19 54 -26 80 -25 21 2 44 -1
52 -6 8 -5 17 -2 25 8 11 16 18 15 89 -3 43 -11 104 -33 136 -49 32 -16 61
-27 64 -24 3 4 14 -1 23 -9 10 -9 48 -29 84 -46 143 -64 302 -196 358 -296 11
-18 24 -42 30 -52 12 -21 50 -111 50 -119 1 -3 8 -19 16 -35 8 -16 15 -31 14
-32 -2 -2 3 -13 10 -26 7 -12 14 -35 15 -50 2 -15 9 -46 15 -68 14 -51 18 -80
31 -218 6 -59 12 -111 14 -115 17 -27 22 -424 6 -476 -5 -16 -16 -68 -26 -115
-17 -88 -63 -239 -91 -300 -61 -134 -87 -185 -94 -188 -5 -2 -9 -8 -9 -12 0
-13 -140 -220 -170 -251 -14 -15 -36 -39 -49 -55 -83 -100 -128 -151 -144
-163 -10 -7 -32 -26 -48 -42 -16 -16 -33 -29 -37 -29 -4 0 -20 -14 -36 -31
-16 -17 -46 -41 -66 -54 -20 -13 -43 -30 -51 -38 -8 -8 -26 -18 -39 -22 -14
-4 -39 -18 -55 -31 -17 -13 -96 -47 -175 -75 l-145 -53 -190 0 c-215 -1 -312
7 -380 30 -26 8 -56 17 -67 19 -11 2 -41 16 -66 31 -26 14 -66 37 -89 49 -23
13 -61 41 -85 63 -24 22 -65 57 -92 78 -46 35 -83 72 -180 179 -39 43 -89 131
-100 179 -4 16 -23 63 -43 104 -19 41 -37 88 -40 104 -2 17 -15 62 -28 102
-24 76 -66 258 -84 366 -6 36 -14 81 -17 100 -10 60 -21 291 -18 370 7 165 25
259 69 372 20 51 46 118 57 148 12 30 32 73 45 96 12 22 21 43 18 46 -3 3 1
11 10 18 8 7 15 18 15 25 0 7 25 39 54 71 30 32 63 73 73 91 10 18 21 33 25
33 4 0 18 17 32 38 13 20 49 66 81 102 52 58 72 72 190 130 73 36 145 70 161
77 16 7 51 21 78 33 27 11 72 23 100 26 28 4 62 8 76 10 31 5 164 23 245 33
33 4 98 6 145 6 74 -2 91 -5 128 -29z m-1675 -925 c4 -1 7 -7 7 -15 0 -7 10
-16 21 -19 23 -6 23 -5 -3 -112 -11 -46 -30 -194 -31 -245 -1 -59 12 -353 17
-390 3 -19 8 -52 12 -72 7 -43 8 -43 -39 -23 -42 17 -50 37 -52 125 -3 140
-36 332 -71 416 -10 23 -15 67 -15 121 0 104 9 152 30 177 21 24 71 46 96 41
11 -2 23 -4 28 -4z m3006 -192 c23 -28 40 -88 36 -127 -4 -41 -53 -198 -73
-235 -42 -75 -72 -199 -76 -312 -4 -117 -8 -134 -38 -177 -20 -29 -34 -34 -57
-19 -11 7 -9 23 13 92 29 89 40 153 56 314 6 55 12 109 13 120 2 11 0 30 -5
42 -4 12 -4 25 1 27 4 3 4 31 -1 63 -5 32 -7 69 -5 83 3 14 1 33 -4 42 -12 22
3 53 43 90 35 31 70 30 97 -3z"/>
<path d="M1045 2546 c-14 -64 -11 -80 20 -95 17 -7 46 -26 65 -41 19 -14 64
-37 100 -49 36 -12 92 -36 124 -53 68 -35 114 -39 199 -14 51 15 74 36 62 56
-3 5 -47 8 -98 7 -81 -1 -97 1 -137 23 -25 14 -46 28 -48 33 -2 4 -10 7 -18 7
-31 0 -104 43 -155 92 -60 57 -106 71 -114 34z"/>
<path d="M2895 2490 c-9 -15 -85 -54 -120 -61 -16 -4 -57 -15 -90 -25 -80 -24
-161 -24 -291 2 -56 11 -97 -50 -62 -93 11 -14 71 -15 106 -2 12 5 22 5 22 0
0 -12 97 -19 135 -10 79 19 209 62 235 78 46 28 111 92 107 104 -5 16 -33 21
-42 7z"/>
<path d="M1110 2218 c-28 -44 -9 -79 71 -128 41 -25 55 -28 113 -26 57 2 70 6
96 31 29 27 41 65 21 65 -5 0 -22 -5 -38 -11 -65 -25 -159 5 -185 58 -17 37
-58 42 -78 11z"/>
<path d="M2706 2125 c-8 -8 -19 -15 -24 -15 -6 0 -12 -5 -14 -12 -2 -6 -25
-13 -50 -15 -42 -4 -46 -2 -52 21 -6 24 -9 25 -54 20 -26 -4 -52 -12 -58 -19
-13 -17 -6 -85 10 -85 6 0 22 -6 36 -13 14 -7 51 -14 83 -15 l58 -3 61 60 c41
40 59 65 55 75 -8 20 -31 20 -51 1z"/>
<path d="M2537 1862 c-16 -2 -37 -12 -48 -23 -10 -10 -26 -19 -34 -19 -8 0
-15 -4 -15 -9 0 -5 -9 -11 -20 -14 -11 -3 -23 -14 -27 -25 -5 -11 -23 -37 -41
-58 -52 -61 -139 -180 -157 -213 -8 -17 -24 -35 -35 -41 -11 -6 -20 -16 -20
-23 0 -7 -13 -25 -28 -42 -15 -16 -34 -39 -42 -51 -31 -44 -133 -154 -144
-154 -14 -1 -52 -32 -57 -48 -9 -27 -217 -23 -309 5 -8 2 -17 4 -20 5 -7 0
-80 28 -105 39 -11 5 -45 15 -75 23 -137 35 -240 87 -240 122 0 7 -21 37 -47
68 -54 62 -88 73 -99 32 -8 -35 3 -62 37 -86 16 -12 29 -29 29 -39 0 -25 65
-89 98 -97 26 -6 46 -15 112 -50 17 -8 48 -17 69 -19 22 -2 79 -20 128 -40 48
-20 108 -41 133 -47 50 -11 477 -22 500 -12 8 4 25 8 36 10 12 1 39 5 60 9 22
3 55 9 74 11 19 3 72 14 116 24 45 11 89 20 98 20 16 0 95 38 106 51 3 3 28
14 57 23 29 10 76 37 105 60 29 24 64 47 78 51 14 4 38 18 53 31 16 13 33 24
37 24 5 0 15 18 21 40 10 34 10 43 -2 55 -21 20 -69 8 -79 -21 -5 -13 -15 -24
-22 -25 -7 0 -40 -20 -73 -45 -33 -24 -86 -57 -117 -73 -63 -33 -64 -30 -18
50 15 25 33 63 40 85 7 21 21 51 31 66 11 14 19 31 19 37 0 6 6 30 14 53 8 24
17 78 21 121 7 83 -1 108 -48 150 -23 20 -22 20 -66 7 -19 -5 -39 -6 -45 -2
-6 4 -24 6 -39 4z m96 -93 c12 -7 25 -17 29 -23 11 -16 9 -75 -3 -120 -11 -39
-77 -190 -102 -232 -42 -72 -56 -92 -94 -131 -24 -24 -43 -48 -43 -53 0 -8
-23 -21 -47 -26 -59 -12 -93 -14 -93 -6 0 5 14 28 30 50 17 23 30 45 30 50 0
4 23 36 50 70 28 35 63 89 79 122 16 32 38 72 50 88 39 55 19 124 -27 95 -19
-11 -73 -115 -90 -170 -6 -21 -27 -54 -45 -74 -19 -21 -45 -54 -57 -75 -62
-101 -185 -199 -262 -207 -46 -4 -47 -4 -36 17 6 11 32 41 56 66 25 25 60 68
77 95 18 28 49 68 68 90 20 22 43 54 51 70 9 17 37 58 63 91 26 34 64 82 83
106 19 25 49 53 65 63 95 58 126 66 168 44z"/>
<path d="M1722 1793 c-7 -3 -17 -16 -22 -29 -24 -61 59 -117 164 -113 84 4
152 43 126 74 -8 10 -26 12 -64 8 -60 -6 -120 9 -138 36 -15 20 -46 32 -66 24z"/>
</g>
</svg>
