<?xml version="1.0" standalone="no"?>
<!DOCTYPE svg PUBLIC "-//W3C//DTD SVG 20010904//EN"
 "http://www.w3.org/TR/2001/REC-SVG-20010904/DTD/svg10.dtd">
<svg version="1.0" xmlns="http://www.w3.org/2000/svg"
 width="515.000000pt" height="489.000000pt" viewBox="0 0 515.000000 489.000000"
 preserveAspectRatio="xMidYMid meet">
<metadata>
Created by potrace 1.16, written by Peter Selinger 2001-2019
</metadata>
<g transform="translate(0.000000,489.000000) scale(0.100000,-0.100000)"
fill="#000000" stroke="none">
<path d="M983 4825 c-30 -13 -31 -16 -28 -57 2 -24 11 -63 20 -88 9 -25 27
-81 40 -125 13 -44 35 -115 49 -157 14 -43 30 -102 34 -133 13 -83 57 -120
100 -85 26 22 23 79 -9 160 -12 30 -39 120 -61 200 -64 235 -70 254 -84 278
-17 26 -18 26 -61 7z"/>
<path d="M1598 4739 c-23 -13 -23 -46 1 -107 11 -27 22 -70 25 -96 3 -26 10
-54 15 -64 4 -9 12 -35 16 -57 4 -22 10 -44 15 -50 4 -5 10 -26 14 -45 4 -19
17 -42 29 -51 22 -16 26 -16 65 2 l42 19 -15 33 c-21 47 -65 186 -74 232 -13
65 -44 169 -54 183 -11 14 -55 15 -79 1z"/>
<path d="M251 4686 c-27 -29 -25 -40 25 -122 60 -98 70 -118 78 -149 4 -16 14
-37 21 -45 7 -8 27 -55 45 -105 37 -107 53 -127 94 -123 43 4 63 46 45 91 -7
18 -19 38 -26 45 -7 7 -16 25 -19 40 -4 15 -14 43 -24 62 -9 19 -29 60 -43 90
-15 30 -27 60 -27 67 0 6 -4 13 -8 15 -5 2 -23 30 -42 63 -55 99 -79 113 -119
71z"/>
<path d="M2325 4689 c-16 -10 -25 -19 -20 -19 6 0 10 -17 11 -38 1 -20 6 -65
11 -100 5 -34 9 -107 8 -161 l-1 -99 34 -16 c32 -16 36 -16 52 -1 18 16 36 76
32 105 -1 8 -4 29 -7 45 -2 17 -7 83 -11 147 -6 95 -11 121 -26 138 -23 25
-44 24 -83 -1z"/>
<path d="M3214 4689 c-13 -14 -19 -38 -21 -76 -1 -31 -7 -79 -12 -107 -6 -28
-12 -62 -15 -76 -2 -14 -12 -52 -21 -85 -10 -33 -17 -62 -16 -64 2 -2 -3 -7
-9 -11 -16 -10 31 -60 57 -60 11 0 28 9 38 20 10 11 24 20 32 20 10 0 12 6 8
22 -10 28 -8 95 2 110 4 7 8 15 8 18 1 3 5 32 9 65 4 33 14 75 22 94 8 18 14
55 14 81 0 40 -3 48 -25 58 -36 17 -49 15 -71 -9z"/>
<path d="M4003 4381 c-24 -15 -32 -27 -31 -48 1 -46 -116 -303 -138 -303 -7 0
-15 -21 -19 -50 -8 -61 4 -80 50 -80 32 0 35 4 79 95 25 52 46 100 46 107 0 7
8 27 18 43 27 44 82 181 82 202 0 18 -32 53 -48 53 -4 0 -21 -9 -39 -19z"/>
<path d="M3165 3832 c-2 -2 -19 -6 -37 -8 -18 -2 -48 -6 -66 -9 -53 -10 -412
-6 -477 4 -33 6 -139 8 -235 5 -96 -3 -200 -4 -230 -3 -153 5 -802 3 -1160 -5
-440 -9 -483 -9 -580 0 -58 5 -68 3 -85 -16 -25 -27 -27 -46 -10 -86 10 -24
12 -73 9 -195 -6 -229 -8 -253 -17 -260 -13 -9 3 -59 19 -59 7 0 23 -13 36
-30 12 -16 28 -30 35 -30 8 0 12 -4 9 -8 -3 -5 14 -38 37 -73 23 -36 64 -110
90 -164 27 -55 55 -111 62 -125 8 -14 24 -43 36 -65 12 -22 38 -65 59 -96 36
-53 56 -89 135 -238 49 -93 106 -191 135 -235 15 -22 35 -57 44 -76 9 -19 31
-60 49 -90 18 -30 41 -75 52 -100 10 -25 29 -61 41 -80 12 -19 33 -60 45 -90
13 -30 36 -74 51 -96 15 -23 28 -47 28 -52 0 -6 6 -17 12 -24 7 -8 20 -27 29
-43 97 -185 199 -399 199 -420 0 -8 5 -15 10 -15 6 0 10 -5 10 -11 0 -6 23
-57 51 -112 51 -102 62 -121 132 -236 20 -34 37 -69 37 -77 0 -7 5 -14 12 -14
6 0 9 -3 5 -6 -3 -3 -2 -11 4 -18 21 -25 61 -91 80 -132 15 -31 28 -44 47 -48
27 -6 64 -2 82 9 16 10 119 17 235 15 341 -5 646 1 890 16 170 10 719 21 785
15 50 -4 236 7 295 19 50 9 167 7 215 -4 30 -7 117 -8 145 -2 11 2 32 5 48 5
17 1 27 6 27 16 0 8 5 15 10 15 6 0 10 -7 10 -15 0 -8 1 -15 3 -16 51 -10 89
-8 109 5 14 9 28 13 31 10 4 -4 13 -1 21 5 10 8 16 9 21 1 7 -11 76 -14 74 -2
-1 4 0 12 2 17 5 19 4 105 -2 105 -3 0 -9 32 -12 71 -6 77 -37 153 -68 170
-18 9 -27 23 -74 115 -11 21 -23 44 -28 49 -4 6 -32 60 -63 120 -31 61 -62
117 -69 125 -8 8 -32 51 -55 95 -22 44 -49 94 -60 110 -11 17 -26 44 -35 60
-8 17 -24 44 -35 60 -11 17 -28 46 -37 65 -9 19 -22 42 -28 50 -6 8 -22 40
-35 70 -14 30 -41 80 -61 110 -20 30 -49 82 -64 115 -67 149 -126 265 -134
265 -5 0 -14 15 -22 33 -7 17 -16 34 -19 37 -3 3 -25 46 -48 95 -24 50 -54
113 -69 140 -14 28 -36 71 -49 97 -13 26 -38 71 -57 100 -43 69 -157 301 -157
320 0 7 -5 19 -10 24 -16 16 -251 474 -256 499 -1 6 -12 39 -23 74 -12 35 -20
70 -17 77 3 8 -4 30 -15 49 -19 31 -25 35 -60 33 -21 -1 -41 -3 -44 -6z m-955
-106 c224 -1 406 -7 420 -12 24 -10 172 -11 419 -3 l124 4 27 -65 c15 -36 39
-91 53 -122 15 -32 33 -72 41 -90 9 -18 33 -64 55 -103 36 -63 120 -230 247
-490 49 -101 106 -207 115 -215 6 -5 5 -4 104 -200 38 -74 80 -153 94 -175 14
-22 40 -69 59 -105 19 -36 37 -69 41 -75 4 -5 20 -41 36 -80 32 -78 63 -136
110 -210 36 -55 46 -75 99 -185 39 -81 54 -106 74 -129 8 -8 18 -24 23 -35 5
-12 19 -37 30 -56 12 -19 22 -39 23 -45 1 -5 13 -28 27 -50 32 -49 107 -193
137 -260 12 -27 35 -75 52 -105 16 -30 29 -58 30 -62 0 -10 -79 -9 -105 1 -11
5 -33 4 -49 0 -20 -6 -32 -5 -37 2 -4 7 -12 8 -20 3 -8 -5 -38 -11 -66 -14
-41 -5 -53 -3 -53 8 0 7 -4 11 -9 7 -5 -3 -12 -1 -15 4 -3 5 -21 4 -41 -3 -23
-8 -53 -10 -83 -6 -26 4 -56 6 -67 4 -68 -11 -186 -23 -206 -19 -88 13 -188
19 -274 15 -92 -4 -196 -4 -560 0 -71 1 -345 -1 -607 -4 -362 -4 -479 -2 -486
7 -5 7 -27 46 -49 87 -22 41 -58 109 -80 150 -48 88 -61 114 -99 195 -38 83
-56 120 -97 195 -18 36 -58 110 -87 165 -29 55 -60 108 -68 118 -8 9 -12 17
-7 17 4 0 3 6 -3 13 -6 7 -24 37 -40 67 -16 30 -41 75 -56 100 -14 25 -29 52
-32 60 -4 8 -14 23 -22 33 -8 9 -12 17 -9 17 8 0 -101 210 -158 305 -23 39
-57 97 -75 130 -18 33 -36 62 -39 65 -14 10 -52 70 -45 70 4 0 -1 9 -10 19
-15 16 -116 214 -116 226 0 3 -15 24 -32 49 -29 37 -68 101 -73 116 -14 41
-29 70 -36 70 -5 0 -9 5 -9 11 0 6 -35 72 -79 147 -43 76 -110 199 -149 274
l-72 137 43 5 c107 13 228 18 392 14 57 -1 750 14 752 16 2 2 47 1 101 -1 53
-2 275 -5 492 -7z m-1769 -242 c46 -90 59 -115 116 -210 40 -69 95 -169 149
-274 15 -30 30 -57 33 -60 4 -3 17 -26 31 -52 13 -27 28 -48 32 -48 5 0 8 -6
8 -13 0 -7 9 -30 20 -52 11 -22 20 -44 20 -51 0 -6 31 -58 69 -115 37 -57 86
-136 107 -175 21 -40 58 -106 81 -147 23 -41 67 -121 96 -178 48 -92 109 -206
141 -264 6 -10 17 -25 24 -33 6 -7 12 -22 12 -33 0 -10 4 -19 10 -19 5 0 28
-39 50 -87 23 -47 49 -98 59 -112 11 -14 37 -62 59 -106 35 -70 59 -120 144
-303 11 -23 23 -42 27 -42 4 0 8 -6 8 -12 0 -7 21 -50 48 -96 38 -66 49 -93
49 -131 1 -31 7 -54 19 -65 14 -14 17 -30 13 -84 -2 -37 -5 -75 -5 -86 -1 -15
-4 -16 -16 -6 -8 7 -15 17 -15 23 0 6 -11 22 -24 36 -13 15 -42 62 -66 106
-23 44 -50 89 -59 100 -10 11 -35 56 -56 100 -38 80 -44 95 -85 190 -12 28
-26 58 -31 68 -5 9 -42 81 -82 160 -41 78 -102 190 -136 250 -34 59 -69 122
-77 140 -8 17 -28 55 -44 82 -16 28 -49 91 -75 140 -55 109 -84 157 -113 188
-12 13 -19 26 -15 30 3 4 -2 16 -12 27 -20 22 -115 209 -115 227 0 6 -6 18
-13 25 -7 7 -21 29 -31 48 -49 94 -74 136 -107 180 -14 19 -45 73 -69 120 -23
47 -49 91 -58 98 -9 6 -13 12 -9 12 7 0 -67 145 -86 169 -12 14 -31 46 -44 71
-4 8 -13 21 -21 29 -8 8 -11 22 -7 35 4 12 7 28 7 36 -1 8 -3 68 -5 133 -2 64
-2 115 0 113 2 -2 22 -39 44 -82z m2989 -2722 c80 0 188 0 240 -2 52 -1 181
-4 285 -5 166 -3 229 -6 370 -16 17 -1 50 -1 75 0 25 1 64 0 88 -3 27 -4 42
-2 42 6 0 7 4 7 13 0 7 -6 28 -7 57 -2 47 9 97 4 106 -11 2 -4 11 -6 19 -3 18
7 31 -21 34 -76 2 -25 5 -48 7 -52 8 -13 -17 -20 -31 -8 -12 10 -18 10 -30 0
-8 -7 -33 -12 -55 -12 -23 1 -38 -3 -35 -9 9 -14 -12 -11 -46 7 -20 10 -35 12
-42 6 -10 -8 -82 -10 -97 -2 -3 1 -15 1 -27 0 -13 -1 -30 6 -39 14 -19 20 -41
20 -60 1 -10 -10 -35 -15 -72 -15 -32 0 -73 -5 -92 -11 -19 -6 -91 -14 -160
-16 -159 -6 -152 -6 -241 2 -49 5 -83 4 -96 -3 -11 -6 -23 -8 -27 -5 -3 4 -23
6 -44 5 -20 -1 -111 -4 -202 -7 -91 -3 -190 -7 -220 -10 -30 -2 -127 -6 -215
-9 -88 -2 -178 -7 -200 -10 -82 -12 -756 1 -769 14 -11 11 -11 65 -1 130 3 25
8 53 9 62 1 10 4 20 7 22 6 6 329 15 679 18 157 1 317 5 355 8 39 3 115 2 170
-2 55 -4 165 -6 245 -6z"/>
<path d="M4398 3776 c-8 -7 -20 -33 -28 -57 -19 -64 -97 -222 -136 -279 -38
-56 -43 -90 -15 -107 35 -22 97 5 108 46 3 13 19 48 34 77 16 30 26 54 22 54
-3 0 3 10 15 23 18 19 48 78 77 152 15 37 14 66 -3 86 -19 22 -55 25 -74 5z"/>
<path d="M4734 3109 c-3 -6 -14 -9 -23 -6 -18 4 -28 -12 -79 -126 -20 -44
-117 -179 -168 -234 -21 -23 -23 -63 -3 -63 5 0 9 -7 9 -15 0 -17 41 -20 70
-5 11 6 26 25 35 44 9 18 25 43 35 54 11 12 20 25 20 30 0 5 9 17 21 28 28 25
109 157 125 204 9 27 11 47 5 63 -11 27 -37 42 -47 26z"/>
<path d="M4960 2363 c-14 -9 -28 -22 -33 -29 -4 -7 -32 -39 -63 -71 -30 -32
-71 -75 -91 -95 -19 -20 -40 -36 -46 -34 -7 1 -9 1 -5 -1 4 -2 4 -11 1 -19 -3
-8 -2 -29 1 -48 10 -55 77 -60 109 -8 18 30 75 98 154 182 51 53 64 88 45 116
-13 21 -47 24 -72 7z"/>
</g>
</svg>
