<?xml version="1.0" standalone="no"?>
<!DOCTYPE svg PUBLIC "-//W3C//DTD SVG 20010904//EN"
 "http://www.w3.org/TR/2001/REC-SVG-20010904/DTD/svg10.dtd">
<svg version="1.0" xmlns="http://www.w3.org/2000/svg"
 width="499.000000pt" height="453.000000pt" viewBox="0 0 499.000000 453.000000"
 preserveAspectRatio="xMidYMid meet">
<metadata>
Created by potrace 1.16, written by Peter Selinger 2001-2019
</metadata>
<g transform="translate(0.000000,453.000000) scale(0.100000,-0.100000)"
fill="#000000" stroke="none">
<path d="M1180 4315 c-7 -8 -29 -22 -49 -31 -20 -9 -46 -21 -58 -27 -13 -6
-26 -7 -30 -4 -3 4 -14 0 -24 -9 -15 -13 -31 -20 -60 -23 -3 -1 -20 -14 -37
-31 -18 -16 -36 -30 -41 -30 -4 0 -46 -37 -93 -83 -82 -81 -121 -137 -148
-207 -7 -19 -21 -54 -32 -76 -10 -23 -21 -52 -23 -64 -2 -13 -9 -37 -14 -54
-5 -17 -12 -58 -16 -91 -3 -33 -11 -78 -17 -100 -6 -22 -13 -47 -15 -55 -9
-35 -3 -144 11 -230 19 -108 54 -217 97 -302 5 -10 9 -24 9 -32 0 -8 3 -16 8
-18 4 -1 23 -23 42 -48 19 -25 39 -50 45 -55 16 -16 97 -68 138 -88 20 -11 37
-23 37 -28 0 -5 8 -9 18 -9 10 0 22 -4 27 -9 9 -8 67 -29 105 -39 8 -2 49 -6
90 -9 60 -4 90 -1 150 17 88 26 206 87 270 138 66 53 170 162 170 178 0 8 4
14 9 14 5 0 16 12 24 28 8 15 28 53 45 85 17 31 31 60 31 62 1 21 18 68 39
110 28 54 55 215 55 320 1 133 -6 223 -18 275 -8 30 -17 75 -20 100 -8 58 -78
204 -107 224 -12 9 -18 16 -13 16 5 0 -16 25 -48 55 -31 30 -63 55 -70 55 -6
0 -25 7 -41 15 -15 8 -38 17 -50 20 -126 28 -151 33 -157 30 -3 -2 -28 2 -55
9 -74 19 -168 20 -184 1z m120 -99 c36 -8 68 -12 72 -10 4 3 33 -2 65 -10 32
-7 77 -17 101 -20 87 -13 182 -82 222 -163 8 -15 23 -38 34 -50 11 -13 16 -23
12 -23 -5 0 -4 -6 2 -12 9 -12 22 -68 37 -158 12 -75 15 -270 5 -329 -5 -33
-14 -87 -20 -119 -5 -32 -26 -91 -45 -130 -19 -40 -41 -88 -50 -108 -22 -54
-99 -166 -146 -213 -63 -63 -166 -127 -260 -161 -171 -64 -296 -39 -497 97
-92 62 -191 262 -209 423 -3 25 -9 52 -14 62 -13 25 -11 57 12 181 51 279 93
381 213 522 67 80 152 149 226 187 104 52 135 56 240 34z"/>
<path d="M1140 3664 c-73 -37 -103 -44 -206 -48 -39 -2 -76 -6 -82 -10 -13 -8
-8 -62 9 -82 13 -16 80 -19 96 -3 5 5 50 16 99 24 116 18 133 24 172 53 36 27
40 52 15 82 -22 25 -24 25 -103 -16z"/>
<path d="M1452 3618 c-21 -21 -14 -80 16 -123 66 -96 134 -141 170 -113 15 13
16 78 2 78 -31 0 -140 134 -132 163 3 12 -43 8 -56 -5z"/>
<path d="M808 3432 c-16 -3 -58 -79 -58 -105 0 -16 -51 -121 -61 -125 -12 -5
16 -81 38 -103 24 -25 54 -21 92 11 28 24 40 80 36 164 -2 32 0 69 5 81 11 28
-26 83 -52 77z m-9 -224 c1 -9 -4 -29 -9 -43 -9 -23 -13 -25 -25 -15 -20 16
-19 45 2 81 15 26 19 27 25 12 3 -10 7 -26 7 -35z"/>
<path d="M1122 3357 c-13 -16 -10 -55 8 -83 13 -21 110 -53 142 -46 9 2 21 16
26 32 13 35 1 47 -54 56 -21 3 -50 17 -63 30 -27 27 -43 30 -59 11z"/>
<path d="M1521 3261 c-12 -16 -21 -36 -21 -45 0 -9 -4 -16 -9 -16 -9 0 -78
-150 -74 -161 1 -4 4 -18 7 -33 6 -36 14 -46 44 -57 56 -22 101 30 107 124 2
34 5 69 8 77 2 8 7 33 12 55 4 22 12 46 18 53 7 8 5 12 -7 12 -9 0 -16 5 -16
10 0 23 -49 9 -69 -19z m3 -168 c-7 -49 -13 -89 -13 -90 -1 -2 -8 -3 -16 -3
-26 0 -30 50 -7 94 12 23 22 46 22 52 0 8 19 34 25 34 1 0 -4 -39 -11 -87z"/>
<path d="M1063 3034 c-10 -7 -25 -14 -34 -14 -9 0 -24 -9 -34 -20 -10 -11 -24
-20 -31 -20 -7 0 -24 -5 -38 -12 -24 -10 -24 -12 -8 -24 14 -11 15 -16 5 -33
-16 -25 -7 -31 44 -27 40 3 73 23 73 45 0 6 8 11 18 12 9 0 28 3 42 5 52 8
104 6 108 -5 2 -6 8 -11 14 -11 11 0 38 -25 38 -36 0 -4 11 -22 26 -41 26 -34
51 -42 72 -21 17 17 15 74 -3 92 -8 8 -15 17 -15 20 0 13 -52 55 -96 76 -57
28 -154 35 -181 14z"/>
<path d="M3855 4268 c-3 -13 -5 -54 -4 -93 1 -111 -24 -255 -45 -255 -7 0 -76
72 -76 79 0 4 -11 13 -25 19 -15 7 -25 8 -25 2 0 -6 -6 -10 -14 -10 -20 0 -24
-39 -8 -79 8 -19 15 -42 17 -50 2 -9 13 -47 24 -85 l19 -69 -29 -53 c-48 -89
-53 -98 -74 -115 -11 -10 -38 -34 -60 -54 l-39 -37 -18 79 c-10 43 -20 83 -21
88 -2 6 -7 26 -11 45 -8 35 -58 152 -77 180 -5 8 -17 28 -27 44 -55 92 -58 94
-111 87 -16 -2 -19 -54 -5 -77 48 -73 47 -233 -2 -379 -7 -22 -22 -78 -34
-124 -12 -46 -30 -107 -41 -135 -11 -28 -24 -69 -28 -91 -50 -232 -50 -293 -1
-410 28 -68 45 -92 116 -163 74 -73 83 -86 73 -103 -10 -19 -159 -122 -197
-137 -34 -13 -60 -46 -97 -120 -20 -42 -41 -85 -46 -94 -14 -27 -11 -68 5 -68
18 0 139 -61 148 -75 4 -5 6 -14 5 -20 -2 -5 7 -18 20 -28 14 -12 23 -29 23
-47 0 -16 5 -32 10 -35 6 -4 8 -10 5 -15 -3 -5 3 -18 14 -29 17 -17 31 -20 83
-17 52 3 78 11 153 51 49 27 103 51 120 55 19 4 31 13 34 25 3 18 21 64 55
137 l12 28 22 -20 c12 -12 22 -25 22 -30 0 -5 6 -7 13 -4 9 3 13 -3 12 -18 -1
-13 9 -43 22 -68 22 -40 28 -72 33 -182 1 -24 222 -32 295 -11 35 10 78 6 70
-8 -4 -5 -1 -9 4 -9 6 0 11 5 11 11 0 6 6 9 14 6 7 -3 24 1 36 10 16 11 21 24
19 52 -3 59 0 69 19 66 9 -1 28 2 42 8 14 5 41 11 60 13 87 7 132 12 135 16 2
2 7 40 10 83 17 253 17 235 -2 241 -10 3 -25 10 -33 15 -8 5 -21 12 -28 15 -7
4 -52 44 -100 91 -89 87 -184 165 -214 176 -20 7 -48 -22 -48 -50 0 -21 39
-63 58 -63 6 0 49 -36 94 -81 46 -45 92 -87 102 -95 17 -11 17 -15 5 -30 -8
-10 -38 -32 -66 -51 -29 -18 -53 -40 -53 -48 0 -35 -19 -6 -81 123 -105 218
-122 272 -88 272 13 0 102 69 118 93 8 11 34 41 57 66 63 67 100 127 130 206
14 39 32 84 40 102 38 84 66 195 75 297 12 123 8 168 -22 283 -12 43 -24 92
-28 108 -12 47 -48 110 -86 152 -19 21 -38 46 -41 55 -7 23 -37 31 -67 17
l-25 -11 1 -157 c1 -205 -12 -303 -59 -441 -33 -95 -40 -111 -70 -145 -13 -15
-24 -31 -24 -34 -1 -13 -148 -171 -160 -171 -10 0 -3 27 12 46 11 14 78 224
78 244 0 8 7 33 15 55 8 22 14 57 15 78 0 21 10 68 22 105 17 54 22 92 22 202
1 91 -3 145 -12 166 -8 18 -15 52 -16 75 -2 24 -6 51 -9 59 -3 8 -11 41 -17
73 -10 52 -32 105 -75 187 -19 35 -72 41 -80 8z m92 -238 c1 -29 24 -195 32
-230 9 -41 15 -190 7 -190 -6 0 -31 54 -40 85 -3 11 -19 34 -34 51 -28 31 -62
92 -62 112 0 5 10 12 23 16 19 4 25 17 37 68 8 35 13 78 12 96 -1 27 1 30 12
20 7 -7 13 -20 13 -28z m-141 -272 c9 -18 23 -38 30 -46 8 -7 14 -19 14 -27 0
-7 4 -15 8 -17 24 -9 100 -227 87 -248 -3 -5 -8 -29 -11 -52 -5 -41 -33 -140
-57 -203 -6 -16 -12 -34 -12 -40 0 -32 -52 -144 -77 -167 -27 -24 -28 -29 -19
-69 5 -23 15 -45 21 -49 15 -9 52 -1 62 13 4 7 12 6 23 -3 14 -11 24 -4 83 58
139 147 162 173 162 183 0 6 11 20 25 31 34 26 57 75 88 183 41 142 59 242 62
350 1 55 3 101 4 103 0 2 13 -10 27 -27 19 -23 35 -67 58 -161 29 -117 31
-139 24 -207 -12 -110 -106 -398 -156 -478 -23 -37 -73 -104 -97 -131 -5 -6
-19 -23 -30 -37 -11 -15 -26 -27 -33 -27 -7 0 -15 -7 -18 -15 -4 -8 -12 -15
-20 -15 -7 0 -20 -10 -28 -22 -14 -20 -18 -21 -56 -8 -54 18 -70 2 -76 -73 -4
-62 2 -71 59 -81 28 -5 37 -12 37 -27 0 -11 18 -57 40 -104 22 -47 40 -89 40
-95 0 -5 4 -10 9 -10 5 0 12 -12 16 -27 3 -15 10 -30 15 -33 4 -3 11 -20 15
-37 7 -37 17 -34 -112 -37 -34 -1 -65 -4 -67 -7 -3 -3 -3 -22 1 -42 7 -47 29
-54 131 -38 42 7 90 14 105 16 20 4 26 1 20 -8 -14 -21 -33 -81 -33 -104 0
-27 -4 -30 -87 -51 -75 -19 -78 -19 -143 -9 -36 6 -46 12 -47 27 -1 11 3 20 9
20 6 0 9 3 5 6 -3 3 1 25 10 47 24 67 25 95 4 107 -19 10 -44 67 -40 92 1 7
-3 26 -9 41 -7 16 -19 52 -28 80 -65 211 -78 232 -118 191 -23 -23 -20 -1 4
26 23 26 28 95 7 103 -23 9 -50 -21 -52 -57 -1 -20 -10 -47 -19 -60 -9 -14
-16 -30 -16 -36 0 -5 -3 -10 -7 -10 -5 0 -16 -14 -25 -31 -11 -18 -13 -27 -5
-24 6 4 5 1 -4 -7 -8 -7 -33 -51 -54 -98 -22 -47 -44 -88 -50 -92 -5 -4 -6 -8
-2 -8 4 0 -2 -11 -15 -24 -18 -18 -38 -25 -88 -30 -36 -3 -76 -8 -90 -12 -17
-4 -21 -3 -12 4 14 10 33 39 51 80 6 12 15 22 20 22 5 0 14 15 21 33 7 17 21
41 30 52 18 20 29 41 73 130 13 28 38 67 56 87 45 52 40 113 -10 106 -16 -2
-30 -15 -41 -39 -17 -36 -18 -37 -51 -25 -41 14 -180 137 -208 184 -44 75 -74
197 -59 238 6 15 13 52 15 83 9 99 24 164 48 213 13 27 20 51 15 54 -5 3 -2
14 6 23 9 10 13 21 9 24 -3 4 -1 7 5 7 7 0 12 10 12 23 0 12 11 62 24 112 14
49 22 93 20 97 -3 4 2 18 10 30 9 12 16 34 17 48 0 15 3 19 6 10 3 -8 12 -19
19 -23 8 -4 14 -20 14 -36 0 -15 7 -52 16 -82 13 -43 15 -78 10 -169 -11 -202
-17 -294 -22 -330 -5 -46 10 -98 56 -196 27 -57 45 -83 61 -87 25 -7 45 9 46
38 3 102 8 142 18 155 20 24 95 151 95 161 0 5 5 9 10 9 6 0 10 6 10 14 0 8 3
16 8 18 4 2 29 53 55 114 45 104 47 116 46 190 -1 43 1 93 5 109 4 20 0 50
-14 89 -19 55 -26 106 -15 106 2 0 12 -14 21 -32z m-68 -265 c0 -43 -7 -93
-15 -111 -19 -45 -71 -154 -82 -172 -69 -108 -131 -214 -131 -223 0 -7 -4 -7
-12 2 -13 12 -15 172 -4 246 3 17 5 53 5 80 1 44 5 53 29 67 15 9 49 37 75 63
27 25 56 51 66 58 9 6 24 24 34 40 28 44 37 32 35 -50z m-307 -1017 c-7 -8
-13 -22 -15 -32 -8 -35 -24 -70 -40 -83 -9 -7 -13 -17 -10 -22 3 -5 -2 -12
-10 -15 -9 -3 -16 -12 -16 -20 0 -8 -4 -14 -9 -14 -5 0 -13 -9 -16 -20 -9 -27
-20 -25 -77 12 l-50 31 69 43 c37 24 73 48 79 53 7 5 15 7 18 4 3 -4 6 -1 6 7
0 7 15 25 33 41 33 30 58 40 38 15z m287 -101 c-7 -5 -27 -44 -43 -85 -16 -41
-32 -79 -35 -85 -4 -5 -12 -26 -19 -45 -12 -35 -52 -100 -61 -100 -10 0 -10
44 -1 65 5 11 23 50 40 86 17 36 31 71 31 78 0 7 6 25 14 39 7 15 21 45 31 67
l17 40 20 -25 c16 -20 17 -26 6 -35z m50 -110 c1 -19 10 -53 21 -76 28 -57 14
-83 -20 -37 -46 63 -53 84 -39 117 17 42 36 39 38 -4z m-600 -45 c17 -11 32
-24 32 -30 0 -5 6 -10 14 -10 23 0 25 -12 9 -52 -17 -42 -32 -48 -51 -18 -7
11 -22 20 -35 20 -12 0 -32 7 -44 15 l-22 16 20 39 c24 46 31 48 77 20z m1269
-99 l-2 -90 -45 -5 c-25 -3 -64 -5 -87 -5 -34 1 -40 4 -35 18 3 9 11 19 18 24
7 4 11 14 8 22 -3 8 6 21 23 31 15 10 39 30 53 45 19 20 55 46 66 49 1 0 1
-40 1 -89z m-948 -92 c6 -18 11 -35 11 -40 0 -10 -118 -75 -152 -83 -37 -8
-81 3 -74 19 2 7 1 16 -3 21 -13 14 -31 75 -26 84 3 5 19 3 35 -3 24 -9 35 -9
53 3 23 14 74 27 119 29 21 1 28 -5 37 -30z"/>
<path d="M1845 1740 c-87 -17 -163 -43 -175 -58 -12 -18 -81 -51 -95 -46 -8 4
-29 -10 -52 -34 -21 -21 -62 -55 -92 -76 -29 -20 -70 -53 -90 -74 -28 -28 -44
-37 -66 -36 -17 1 -34 -2 -40 -6 -23 -18 -54 -13 -120 19 -76 37 -110 44 -225
44 -77 1 -165 -21 -207 -52 -12 -9 -29 -33 -38 -54 -17 -42 -28 -58 -64 -90
-13 -12 -31 -30 -40 -39 -8 -10 -18 -18 -22 -18 -4 0 -21 -12 -38 -27 -27 -24
-31 -34 -31 -82 0 -70 16 -125 54 -181 42 -63 76 -97 108 -111 15 -6 28 -14
28 -18 0 -19 242 -20 265 -1 25 20 140 12 155 -11 7 -10 80 -21 137 -20 44 0
89 -28 95 -59 2 -8 11 -23 22 -32 15 -15 16 -20 6 -33 -10 -12 -9 -15 5 -15
12 0 15 -5 11 -16 -3 -9 -6 -18 -6 -20 0 -3 -4 -2 -10 1 -5 3 -10 0 -10 -8 0
-8 -21 -36 -47 -64 -88 -90 -104 -112 -127 -169 -25 -62 -22 -114 12 -164 9
-14 16 -28 15 -31 -4 -12 77 -42 115 -44 71 -2 229 60 254 101 4 6 30 35 58
63 27 28 50 55 50 59 0 5 12 15 26 22 14 8 33 26 42 42 22 38 56 49 147 47 44
-2 103 0 130 4 28 3 91 9 140 12 50 4 113 11 140 18 64 15 191 9 232 -10 17
-8 33 -23 36 -34 3 -11 11 -18 18 -17 6 2 22 -13 35 -32 32 -48 74 -90 91 -90
8 0 26 -9 40 -20 14 -11 31 -20 37 -20 7 0 30 -9 51 -21 73 -37 131 -16 227
84 69 70 69 85 -1 165 -25 29 -56 67 -69 85 -13 18 -34 44 -48 58 -21 22 -22
28 -11 37 8 7 16 9 19 6 4 -3 20 2 37 10 16 9 45 16 63 16 48 0 155 36 181 61
12 11 39 29 59 40 58 30 82 95 44 121 -6 4 -23 8 -38 8 -38 0 -127 24 -179 49
-24 11 -41 20 -37 21 12 0 -14 63 -36 89 -38 43 -83 85 -132 126 -78 65 -108
99 -123 141 -18 52 -65 110 -175 217 -109 104 -146 128 -248 157 -108 29 -364
35 -493 10z m439 -68 c21 -5 32 -17 37 -36 4 -15 14 -34 21 -43 20 -24 45
-143 40 -191 -3 -29 -10 -46 -24 -53 -11 -6 -28 -19 -39 -30 -30 -30 -64 -34
-97 -10 -30 21 -35 46 -34 151 0 14 -5 34 -11 45 -6 11 -12 28 -14 38 -2 10
-21 45 -42 77 -33 49 -37 60 -23 63 25 6 153 -1 186 -11z m-346 -8 c100 -44
119 -63 160 -164 14 -34 13 -90 -1 -90 -7 0 -6 -4 3 -10 8 -5 12 -10 8 -11
-12 -2 -22 -5 -38 -12 -8 -3 -27 -8 -43 -11 -15 -4 -50 -20 -77 -37 l-50 -31
-39 34 c-21 18 -41 43 -45 56 -4 12 -11 22 -16 22 -6 0 -10 11 -10 24 0 14 -4
28 -10 31 -5 3 -10 15 -10 25 0 11 -22 41 -49 68 -27 27 -46 53 -43 58 11 15
67 36 135 49 84 17 84 17 125 -1z m556 -103 l40 -41 -26 -27 c-14 -16 -28 -40
-32 -55 -10 -42 -26 -33 -28 15 -3 62 -5 80 -11 97 -3 8 -7 27 -10 42 -3 22
-1 26 12 18 9 -4 34 -27 55 -49z m-832 -58 c25 -27 41 -55 51 -95 l15 -57 -72
-28 c-39 -15 -76 -27 -83 -28 -6 0 -20 -10 -31 -23 l-20 -22 -18 28 c-28 43
-82 102 -94 102 -5 0 -10 9 -10 19 0 13 26 38 78 74 116 81 132 84 184 30z
m975 -80 c47 -54 71 -103 70 -145 -1 -27 6 -44 26 -64 18 -18 27 -37 27 -58 0
-17 4 -46 10 -65 l10 -34 -28 26 c-16 15 -38 27 -50 27 -17 0 -28 12 -46 53
-21 49 -113 147 -138 147 -22 0 9 84 46 128 26 30 33 28 73 -15z m-1642 -28
c47 -10 148 -61 174 -89 14 -14 35 -26 48 -26 15 0 27 -9 35 -25 6 -14 15 -25
19 -25 24 0 69 -141 69 -214 0 -143 -94 -189 -285 -138 -86 23 -99 23 -190 -3
-63 -18 -167 -15 -173 5 -2 5 -10 10 -18 10 -8 0 -14 5 -14 11 0 5 -4 8 -9 5
-10 -7 -71 47 -71 62 0 5 33 18 73 27 39 10 84 24 99 31 32 17 45 51 27 69
-14 13 -34 12 -119 -9 -126 -32 -142 -29 -138 27 2 19 14 37 38 55 66 51 113
104 145 165 15 29 29 40 60 48 22 6 49 15 60 20 20 9 113 5 170 -6z m384 -101
c22 -20 47 -47 54 -60 6 -13 25 -41 40 -63 44 -61 61 -240 25 -262 -7 -5 -9
-11 -5 -15 4 -4 -1 -13 -11 -20 -9 -7 -12 -14 -7 -14 6 0 11 -17 12 -39 4 -90
91 -176 186 -185 31 -2 62 -8 69 -12 7 -5 125 -7 263 -6 262 1 295 5 485 57
66 18 88 21 99 12 12 -9 13 -9 7 1 -5 8 -1 12 13 12 11 0 23 5 26 10 3 6 16
10 29 10 45 0 161 42 184 67 20 22 22 34 22 126 0 74 -6 120 -20 166 -11 35
-19 66 -17 68 2 2 34 -25 71 -60 49 -48 66 -71 66 -91 0 -27 -37 -116 -49
-116 -3 0 -7 -21 -9 -46 -5 -80 -51 -121 -139 -123 -42 -1 -109 -39 -195 -112
-38 -33 -50 -35 -183 -26 -27 2 -60 0 -72 -4 -12 -4 -52 -11 -90 -14 -37 -3
-115 -11 -173 -17 -233 -26 -443 -8 -533 46 -49 28 -137 120 -137 142 0 8 -11
26 -25 40 -14 14 -23 30 -20 35 4 5 -1 9 -11 9 -13 0 -10 5 10 21 45 36 75
107 77 187 2 63 -3 82 -41 174 -24 57 -50 111 -58 121 -29 33 13 19 57 -19z
m445 -66 c25 -77 32 -169 15 -207 -12 -27 -20 -32 -61 -37 -27 -4 -48 -9 -48
-13 0 -3 -15 -13 -32 -21 -18 -7 -54 -34 -80 -58 -46 -43 -47 -43 -38 -16 16
48 19 175 5 229 -27 102 -27 105 -7 105 10 0 23 5 29 11 14 14 143 58 174 58
23 1 28 -6 43 -51z m308 43 c47 -18 97 -81 109 -138 13 -67 9 -79 -33 -88 -18
-4 -46 -17 -63 -29 -16 -11 -32 -21 -35 -21 -10 0 -55 -49 -83 -90 l-27 -40
-12 33 c-7 17 -15 32 -19 32 -4 0 -21 12 -37 27 -26 22 -29 30 -20 46 5 10 11
60 12 110 2 88 3 91 34 116 50 43 125 61 174 42z m340 -23 c12 -7 29 -20 38
-29 10 -9 21 -18 26 -20 20 -9 54 -70 54 -99 0 -22 -11 -42 -40 -72 -21 -23
-51 -66 -65 -97 l-27 -55 -39 62 c-22 35 -54 71 -70 81 -31 19 -31 20 -32 109
-1 85 0 92 23 111 29 24 98 28 132 9z m253 -274 c19 -26 35 -51 35 -57 0 -6 7
-18 16 -28 13 -14 13 -20 2 -38 -7 -11 -17 -20 -23 -19 -5 1 -26 -5 -45 -13
-44 -19 -211 -61 -217 -55 -3 3 4 22 15 43 11 21 27 56 36 78 21 49 77 115 83
97 3 -8 12 -4 25 13 11 14 23 25 28 25 5 0 25 -21 45 -46z m-462 -14 c48 0
109 -73 121 -145 4 -22 10 -50 13 -62 4 -19 -1 -23 -39 -33 -64 -18 -73 -19
-198 -22 l-115 -3 2 52 c1 35 9 64 27 92 14 22 26 45 26 50 0 28 117 98 135
80 5 -5 18 -9 28 -9z m-427 -56 c76 -12 109 -51 119 -141 l7 -60 -77 -10 c-61
-9 -86 -8 -119 2 -22 7 -63 18 -89 24 -79 18 -84 30 -34 94 39 52 128 113 147
102 4 -3 25 -7 46 -11z m1261 -25 c15 -6 46 -14 67 -17 l39 -7 -40 -28 c-38
-26 -126 -57 -165 -57 -13 0 -18 8 -18 29 0 28 21 57 33 45 3 -3 4 2 3 13 -2
10 -1 21 1 26 6 10 47 9 80 -4z m-293 -278 c30 -28 176 -174 188 -188 7 -9 1
-23 -22 -50 -63 -72 -92 -77 -183 -32 -76 37 -127 75 -127 94 0 8 -6 18 -13
22 -7 4 -20 20 -29 35 -19 28 -19 27 75 113 34 30 81 33 111 6z m-1329 -88
c11 -7 27 -13 37 -13 10 0 18 -4 18 -9 0 -5 17 -12 38 -16 62 -10 69 -19 38
-49 -14 -15 -26 -35 -26 -46 0 -10 -9 -22 -20 -25 -11 -3 -20 -11 -20 -18 0
-14 -91 -97 -106 -97 -7 0 -31 -9 -55 -20 -64 -29 -149 -26 -149 5 0 7 -7 15
-15 19 -12 4 -14 16 -9 58 8 68 21 87 117 181 l80 77 26 -16 c14 -10 35 -23
46 -31z"/>
<path d="M865 1325 c-14 -14 -30 -25 -35 -25 -13 0 -22 -37 -15 -60 5 -15 15
-20 41 -20 19 0 33 3 33 8 -6 38 22 41 31 2 3 -13 14 -28 23 -34 15 -9 23 -6
42 18 14 18 23 41 22 57 -1 15 -4 25 -6 23 -2 -2 -9 2 -15 10 -6 7 -30 20 -53
29 -40 16 -42 16 -68 -8z"/>
</g>
</svg>
