<?xml version="1.0" standalone="no"?>
<!DOCTYPE svg PUBLIC "-//W3C//DTD SVG 20010904//EN"
 "http://www.w3.org/TR/2001/REC-SVG-20010904/DTD/svg10.dtd">
<svg version="1.0" xmlns="http://www.w3.org/2000/svg"
 width="417.000000pt" height="479.000000pt" viewBox="0 0 417.000000 479.000000"
 preserveAspectRatio="xMidYMid meet">
<metadata>
Created by potrace 1.16, written by Peter Selinger 2001-2019
</metadata>
<g transform="translate(0.000000,479.000000) scale(0.100000,-0.100000)"
fill="#000000" stroke="none">
<path d="M2032 4688 c-15 -9 -46 -19 -69 -22 -22 -2 -62 -14 -87 -25 -24 -12
-49 -21 -54 -21 -6 0 -12 -7 -16 -15 -3 -8 -14 -15 -25 -15 -20 0 -141 -104
-141 -122 0 -5 -13 -38 -29 -72 -34 -74 -83 -230 -80 -254 2 -9 0 -26 -4 -38
-4 -11 -9 -55 -12 -96 -2 -41 -5 -79 -6 -84 -1 -5 0 -11 1 -14 4 -11 8 -42 14
-102 7 -66 14 -94 53 -198 25 -65 41 -87 161 -225 43 -50 194 -125 252 -125
29 0 30 -2 30 -42 0 -86 5 -83 -138 -82 -130 1 -183 7 -240 25 -60 19 -81 20
-102 2 -11 -10 -20 -23 -20 -29 0 -16 -72 -158 -82 -162 -4 -2 -8 -8 -8 -14 0
-6 -22 -41 -49 -78 -49 -67 -136 -234 -134 -257 0 -7 -3 -10 -9 -7 -5 3 -19
-17 -30 -45 -12 -28 -28 -51 -34 -51 -27 0 -62 20 -110 64 -29 25 -78 61 -110
79 -104 59 -109 62 -125 75 -9 7 -34 22 -55 33 -22 12 -88 46 -147 77 -177 93
-183 97 -200 113 -8 9 -30 22 -49 29 -18 8 -38 21 -44 29 -16 21 -71 18 -89
-5 -16 -22 -20 -64 -5 -64 6 0 10 -6 10 -13 0 -7 20 -19 45 -26 25 -7 45 -16
45 -20 0 -4 30 -23 68 -42 37 -18 69 -36 72 -39 11 -13 82 -50 95 -50 7 0 15
-6 18 -13 3 -7 24 -19 48 -27 24 -8 55 -22 68 -32 13 -10 28 -18 33 -18 5 0
24 -11 42 -25 18 -14 36 -25 40 -25 4 0 18 -11 32 -25 14 -14 30 -23 35 -20 5
4 21 -2 37 -13 15 -10 35 -22 45 -25 9 -4 17 -10 17 -15 0 -5 21 -24 48 -42
26 -19 49 -38 50 -42 2 -4 9 -8 15 -8 6 0 28 -12 48 -26 48 -33 67 -24 103 48
30 61 68 128 101 178 12 19 31 58 41 85 10 28 23 55 29 62 5 7 28 37 50 67 22
31 43 56 48 56 7 0 11 -88 8 -155 -1 -16 -9 -50 -16 -75 -8 -25 -17 -97 -20
-160 -3 -63 -8 -155 -11 -205 -3 -49 -5 -97 -5 -105 0 -8 1 -71 2 -140 l3
-125 -47 -67 c-25 -37 -63 -86 -84 -109 -114 -124 -125 -137 -143 -174 -16
-32 -25 -45 -63 -87 -14 -14 -35 -41 -48 -60 -12 -18 -34 -47 -48 -64 -54 -65
-59 -72 -55 -77 2 -2 -5 -12 -16 -22 -11 -10 -20 -28 -20 -39 0 -25 53 -77 97
-95 18 -7 39 -21 49 -32 9 -10 23 -19 31 -19 7 0 13 -4 13 -8 0 -13 -94 -102
-108 -102 -13 0 -13 0 -17 -48 -1 -18 2 -35 7 -38 4 -3 6 -10 3 -15 -4 -5 -2
-9 3 -9 12 0 28 -41 38 -95 9 -46 9 -49 18 -130 4 -33 11 -86 17 -118 5 -32
12 -84 14 -115 2 -31 8 -81 14 -111 6 -30 8 -59 4 -64 -6 -9 -155 -4 -212 7
-54 12 -102 9 -115 -5 -28 -29 -27 -54 4 -86 27 -27 33 -29 75 -23 24 4 47 5
49 2 3 -2 70 -6 150 -8 135 -4 146 -3 155 14 6 11 9 21 7 23 -2 2 -7 39 -10
82 -3 44 -8 83 -11 87 -3 5 -7 30 -10 57 -3 26 -7 59 -9 73 -2 14 -7 52 -11
85 -3 33 -8 69 -10 80 -6 38 -18 180 -16 184 2 2 -2 7 -8 10 -6 4 -15 31 -21
61 -10 53 -9 57 20 72 3 2 18 20 33 40 l28 38 52 -36 c29 -20 63 -47 78 -60
14 -13 28 -24 32 -24 4 0 31 -24 60 -53 28 -28 61 -57 72 -63 28 -16 61 -1 69
31 12 48 92 159 175 243 44 45 84 82 89 82 4 0 19 10 34 23 15 13 39 32 54 43
14 10 38 28 53 39 36 29 79 55 88 55 4 0 21 -11 37 -25 16 -14 32 -25 35 -25
4 0 14 -15 24 -33 10 -18 31 -49 47 -68 17 -18 30 -39 30 -45 0 -5 8 -19 18
-30 9 -10 24 -32 32 -49 8 -16 36 -51 63 -77 26 -26 47 -50 47 -54 0 -11 25
-29 45 -31 22 -2 88 12 120 27 97 42 194 92 197 101 8 23 53 1 67 -33 8 -18
28 -52 44 -75 27 -37 30 -49 28 -110 -2 -37 -5 -86 -7 -108 -3 -22 -6 -53 -7
-70 -1 -16 -5 -32 -8 -35 -4 -3 -10 -90 -13 -194 -4 -104 -10 -194 -13 -200
-10 -15 -12 -47 -6 -74 5 -22 55 -57 66 -46 2 3 73 6 156 8 100 3 156 8 166
16 19 16 19 84 0 100 -8 6 -26 9 -42 6 -26 -5 -177 -11 -215 -7 -16 1 -18 15
-13 173 2 95 9 198 15 228 18 90 22 130 24 236 1 100 0 101 -31 138 -56 63
-75 116 -42 116 6 0 26 11 46 25 20 13 40 22 45 19 4 -3 8 -1 8 4 0 6 11 13
24 16 30 7 39 48 26 115 -10 53 -39 122 -56 133 -12 8 -51 97 -59 134 -3 11
-61 77 -132 152 -18 19 -33 35 -33 36 0 1 -25 29 -56 62 -31 32 -62 71 -70 86
-8 16 -18 28 -23 28 -4 0 -19 10 -32 23 -14 12 -40 34 -58 50 l-33 27 -4 293
c-3 160 -7 319 -10 352 -3 33 -5 87 -3 120 1 33 2 84 3 112 0 29 4 53 9 53 4
0 6 5 5 11 -2 6 2 13 7 15 6 2 35 -31 65 -72 30 -42 65 -88 77 -103 13 -14 23
-30 24 -36 0 -5 16 -30 34 -55 49 -65 94 -147 101 -186 3 -19 9 -34 13 -34 4
0 15 -20 25 -44 10 -25 28 -54 40 -64 24 -22 66 -38 66 -25 0 10 62 38 100 46
47 9 139 36 172 50 18 7 47 18 63 24 17 6 59 22 95 36 59 23 100 38 210 76 19
7 43 14 54 16 10 2 23 8 30 13 6 5 33 15 60 23 34 10 52 21 60 38 7 17 8 25 0
28 -6 2 -9 16 -6 32 7 48 -22 49 -103 3 -11 -6 -54 -23 -95 -37 -41 -15 -90
-33 -108 -41 -18 -8 -38 -14 -46 -14 -7 0 -41 -14 -77 -31 -35 -17 -100 -42
-144 -56 -235 -71 -226 -69 -261 -64 -7 0 -19 19 -27 40 -9 22 -21 42 -26 45
-6 4 -8 13 -4 21 3 8 0 15 -6 15 -6 0 -11 5 -11 12 0 6 -27 51 -60 99 -33 48
-63 96 -67 106 -4 10 -33 50 -64 88 -32 39 -75 104 -97 145 -34 66 -45 78 -88
99 -41 20 -62 23 -134 21 -232 -6 -307 -3 -291 13 6 6 6 16 -1 27 -6 9 -8 29
-4 43 6 24 11 27 49 27 23 0 53 7 65 16 14 10 33 14 47 10 13 -3 27 -2 30 4 3
5 17 10 30 10 13 0 26 4 30 9 3 5 18 12 33 16 46 10 212 178 212 214 0 5 8 19
18 32 22 29 49 101 68 186 8 34 21 83 30 109 18 53 24 259 9 284 -5 8 -10 20
-11 25 -11 67 -53 165 -118 279 -23 40 -110 136 -123 136 -5 0 -19 10 -33 23
-14 12 -50 30 -80 40 -59 19 -161 38 -172 31 -3 -2 -19 1 -34 6 -46 18 -112
17 -142 -2z m140 -109 c51 0 168 -21 168 -31 0 -4 9 -8 19 -8 11 0 26 -6 33
-14 8 -7 24 -16 36 -20 35 -11 122 -133 170 -236 24 -53 54 -177 53 -220 -3
-145 -54 -344 -112 -440 -5 -8 -12 -22 -16 -30 -4 -8 -9 -17 -12 -20 -4 -3
-25 -28 -49 -56 -43 -53 -87 -78 -167 -96 -56 -12 -58 -13 -73 -22 -7 -4 -65
-10 -129 -11 -109 -4 -118 -2 -176 24 -66 31 -197 147 -197 175 0 9 -3 16 -8
16 -19 0 -78 168 -87 251 -9 78 -6 270 5 302 5 18 19 68 29 113 20 85 81 196
122 224 12 8 31 23 41 33 10 9 24 17 32 17 7 0 31 7 52 17 49 21 170 42 206
36 15 -2 42 -4 60 -4z m-242 -1539 c91 0 190 0 220 1 30 0 109 -1 175 -3 l120
-3 0 -63 c0 -35 -3 -66 -7 -68 -3 -2 -3 -93 0 -201 4 -109 7 -308 7 -443 l0
-245 -85 -2 c-47 -1 -106 -6 -132 -11 -27 -5 -48 -6 -48 -1 0 10 -29 11 -265
13 -104 0 -218 -2 -253 -6 -61 -7 -63 -6 -73 19 -24 63 -1 619 27 664 4 7 9
86 10 176 2 90 6 168 10 174 4 6 29 8 68 4 33 -3 135 -6 226 -5z m19 -1126 c2
-2 10 1 18 7 8 7 13 8 13 2 0 -6 17 -11 38 -11 20 0 68 -4 107 -9 74 -11 237
0 268 17 11 7 17 7 17 0 0 -5 11 -10 24 -10 14 0 33 -10 43 -22 10 -13 36 -35
58 -50 22 -15 57 -45 78 -65 20 -21 41 -42 47 -48 5 -5 25 -26 43 -45 19 -19
43 -42 55 -50 12 -8 24 -22 27 -31 3 -9 30 -41 60 -70 30 -30 55 -59 55 -65 0
-22 44 -120 72 -158 42 -59 38 -90 -14 -115 -24 -11 -56 -23 -73 -27 -16 -4
-55 -22 -86 -41 -32 -18 -60 -33 -63 -33 -3 0 -31 -15 -62 -34 -31 -19 -85
-42 -120 -52 l-62 -17 -40 41 c-22 23 -44 51 -48 64 -4 13 -15 29 -25 36 -11
7 -19 18 -19 24 0 6 -6 19 -14 27 -26 29 -21 49 25 99 60 64 79 104 85 174 5
54 4 59 -23 83 -15 13 -38 25 -51 25 -17 0 -27 10 -38 35 -8 19 -20 35 -28 35
-8 0 -17 7 -20 15 -3 9 -23 23 -43 32 -21 8 -40 19 -43 24 -3 4 -22 -8 -42
-27 -20 -18 -41 -34 -47 -34 -6 0 -28 16 -50 35 -21 19 -46 35 -55 35 -30 0
-67 -32 -83 -71 -23 -60 -132 -146 -166 -133 -22 8 -44 -31 -41 -73 1 -21 -2
-46 -8 -57 -11 -21 4 -79 34 -132 l18 -31 -32 -32 c-17 -17 -35 -31 -40 -31
-4 0 -8 -6 -8 -13 0 -7 -9 -23 -20 -35 -11 -12 -20 -26 -20 -32 0 -5 -7 -10
-15 -10 -8 0 -15 -4 -15 -8 0 -5 -11 -14 -24 -20 -13 -6 -32 -29 -42 -51 -16
-37 -19 -39 -34 -26 -9 8 -19 15 -23 15 -3 0 -18 11 -33 25 -15 14 -33 25 -40
25 -8 0 -27 14 -42 30 -16 17 -34 30 -39 30 -6 0 -30 17 -54 38 -38 33 -69 52
-89 56 -15 3 -49 34 -43 39 3 4 -5 7 -19 7 -14 0 -32 8 -42 18 -15 18 -15 21
14 57 16 21 30 41 30 46 0 4 9 10 19 14 11 3 22 14 25 23 4 10 24 38 46 62 22
25 40 50 40 56 0 6 9 21 20 34 11 13 20 26 20 30 0 4 25 33 55 65 31 32 83 95
116 139 34 45 70 93 81 107 17 24 29 28 96 33 165 14 207 18 210 21 4 4 75 -6
81 -11z m108 -290 c40 -30 77 -30 109 0 26 23 26 23 62 5 21 -9 57 -40 81 -68
24 -28 49 -51 56 -51 26 0 55 -49 48 -83 -9 -47 -37 -102 -51 -99 -7 1 -12 -2
-12 -6 0 -5 -14 -18 -31 -31 l-30 -23 -52 55 c-29 30 -71 69 -94 86 l-43 33
-55 -28 c-30 -16 -55 -31 -55 -35 0 -4 -13 -12 -29 -19 -16 -6 -52 -34 -80
-61 -50 -48 -52 -49 -76 -33 -28 19 -45 68 -45 137 0 41 3 47 20 47 12 0 31 9
43 21 12 12 41 29 63 39 35 16 47 29 74 84 35 71 39 72 97 30z"/>
<path d="M1874 4133 c-29 -39 -33 -67 -13 -115 21 -51 81 -28 114 45 21 46 10
82 -31 97 -37 14 -39 14 -70 -27z"/>
<path d="M2267 4122 c-32 -33 -33 -44 -10 -83 19 -32 30 -35 67 -17 50 22 43
128 -9 128 -12 0 -33 -13 -48 -28z"/>
<path d="M2124 3886 c-11 -8 -38 -16 -60 -18 -35 -3 -39 -6 -42 -34 l-3 -31
54 8 c90 12 99 16 95 52 -4 36 -16 42 -44 23z"/>
<path d="M2157 3714 c-2 -2 -25 -6 -53 -9 -27 -3 -60 -10 -74 -15 -14 -4 -50
-14 -80 -21 -30 -7 -57 -14 -60 -14 -35 -9 -60 -28 -60 -45 0 -31 27 -35 75
-12 110 53 286 64 346 21 65 -47 117 -74 125 -66 3 3 7 21 7 39 2 27 -2 34
-21 36 -12 2 -27 12 -32 23 -6 10 -17 19 -25 19 -8 0 -15 5 -15 11 0 6 -7 9
-15 6 -8 -4 -17 -2 -21 4 -3 6 -12 8 -20 5 -8 -3 -14 -2 -14 3 0 8 -57 21 -63
15z"/>
<path d="M1922 1113 c-5 -10 -7 -24 -5 -30 3 -8 -4 -13 -16 -13 -15 0 -21 -7
-21 -22 -1 -13 -8 -41 -16 -63 -8 -22 -21 -64 -30 -93 -12 -46 -12 -55 0 -68
8 -8 18 -23 21 -34 7 -21 39 -27 50 -10 4 6 10 8 14 5 5 -2 16 4 26 15 15 17
17 31 11 87 -3 38 -9 81 -12 98 -3 17 2 45 12 68 13 28 15 43 8 55 -15 23 -31
26 -42 5z m-8 -184 c14 -70 4 -99 -34 -99 -16 0 -18 43 -3 86 18 52 28 56 37
13z"/>
<path d="M2144 934 c-1 -25 -6 -55 -11 -67 -21 -46 -39 -143 -33 -179 4 -21
15 -47 25 -58 22 -24 80 -27 89 -4 3 8 9 13 13 11 13 -8 14 133 3 193 -6 30
-12 70 -13 88 -2 34 -27 62 -56 62 -12 0 -16 -12 -17 -46z m50 -137 c7 -70 1
-127 -13 -127 -3 0 -14 7 -24 14 -16 12 -17 23 -11 75 4 34 11 64 15 67 5 3 9
14 9 25 0 10 4 19 9 19 5 0 12 -33 15 -73z"/>
<path d="M1926 545 c-14 -13 -26 -34 -27 -47 0 -13 -2 -32 -4 -43 -21 -103
-32 -186 -29 -210 3 -31 35 -65 61 -65 11 0 48 15 60 25 2 1 7 25 13 55 7 37
7 65 -1 94 -15 55 -21 92 -24 146 -3 83 -6 85 -49 45z m28 -185 c3 -19 9 -36
15 -38 12 -4 -5 -56 -23 -71 -9 -8 -18 -7 -31 2 -16 13 -17 20 -6 82 7 38 15
73 18 78 8 13 20 -11 27 -53z"/>
</g>
</svg>
