<?xml version="1.0" standalone="no"?>
<!DOCTYPE svg PUBLIC "-//W3C//DTD SVG 20010904//EN"
 "http://www.w3.org/TR/2001/REC-SVG-20010904/DTD/svg10.dtd">
<svg version="1.0" xmlns="http://www.w3.org/2000/svg"
 width="559.000000pt" height="457.000000pt" viewBox="0 0 559.000000 457.000000"
 preserveAspectRatio="xMidYMid meet">
<metadata>
Created by potrace 1.16, written by Peter Selinger 2001-2019
</metadata>
<g transform="translate(0.000000,457.000000) scale(0.100000,-0.100000)"
fill="#000000" stroke="none">
<path d="M1445 4421 c-3 -6 -25 -21 -47 -32 -68 -35 -138 -128 -138 -184 0
-53 79 -57 95 -4 4 11 40 55 81 97 71 74 95 122 60 122 -8 0 -21 3 -29 6 -8 3
-18 0 -22 -5z"/>
<path d="M1680 4297 c-56 -28 -74 -44 -132 -122 -37 -49 -79 -99 -92 -110 -46
-39 -61 -108 -30 -139 30 -30 58 -16 89 44 13 26 30 54 37 61 21 22 68 87 68
94 0 3 34 39 75 80 75 74 86 93 62 113 -10 8 -30 3 -77 -21z"/>
<path d="M2540 4234 c-19 -9 -48 -23 -65 -31 -16 -8 -37 -16 -45 -18 -8 -2
-44 -19 -80 -39 -36 -20 -72 -39 -80 -43 -8 -4 -26 -17 -40 -30 -14 -13 -28
-23 -31 -23 -8 0 -59 -47 -59 -55 0 -4 -21 -28 -47 -54 -50 -50 -93 -101 -152
-180 -19 -25 -47 -62 -61 -81 -15 -19 -34 -48 -42 -65 -19 -35 -65 -169 -83
-240 -36 -141 -35 -341 3 -480 6 -22 13 -58 16 -80 2 -22 8 -47 11 -56 4 -12
-1 -18 -21 -23 -14 -4 -28 -5 -31 -2 -3 2 -30 -4 -61 -15 -32 -11 -82 -22
-112 -26 -30 -3 -62 -9 -70 -13 -9 -5 -50 -11 -92 -14 -42 -2 -85 -9 -95 -14
-10 -5 -27 -8 -38 -6 -38 6 -130 -28 -187 -70 -32 -22 -58 -46 -58 -51 0 -6
-9 -17 -20 -25 -11 -8 -20 -20 -20 -28 0 -7 -7 -15 -15 -18 -8 -4 -12 -10 -9
-15 3 -5 0 -9 -6 -9 -12 0 -41 -61 -34 -72 3 -5 0 -8 -5 -8 -6 0 -11 -21 -11
-47 0 -27 -5 -82 -11 -123 -5 -41 -12 -97 -14 -123 -3 -26 -9 -77 -15 -112 -6
-35 -9 -68 -8 -72 1 -4 -2 -35 -7 -68 -5 -33 -8 -63 -7 -67 1 -5 -1 -8 -5 -8
-5 0 -7 -42 -6 -92 2 -51 -2 -133 -8 -182 -19 -155 -12 -473 12 -501 4 -6 10
-26 13 -45 8 -61 33 -142 47 -151 8 -5 10 -9 4 -9 -5 0 -2 -5 7 -11 10 -5 18
-14 18 -19 0 -6 9 -19 20 -30 11 -11 20 -27 20 -35 0 -8 4 -15 9 -15 5 0 12
-8 15 -17 4 -10 26 -40 51 -67 24 -27 42 -53 39 -58 -3 -4 2 -8 10 -8 8 0 16
-7 18 -16 5 -23 71 -44 92 -29 21 16 22 89 1 107 -64 53 -135 129 -135 143 0
10 -7 25 -15 34 -26 27 -73 104 -80 132 -6 25 -3 28 97 68 107 43 219 79 275
87 18 2 45 9 60 15 40 16 144 35 171 31 12 -2 22 -11 22 -20 1 -9 9 -27 20
-40 16 -19 23 -21 39 -13 26 15 38 14 23 -1 -47 -47 51 -111 203 -133 11 -1
52 -10 90 -19 70 -17 226 -23 331 -13 27 3 79 2 115 -2 35 -5 74 -5 86 0 28
11 101 13 133 4 14 -4 39 -8 56 -9 18 -1 39 -8 48 -15 13 -11 19 -11 31 -1 12
10 18 10 31 -1 14 -11 18 -11 29 4 7 10 22 20 34 22 50 9 141 40 141 47 0 4 6
8 14 8 8 0 37 16 64 35 28 19 79 44 114 56 35 12 70 28 79 35 8 8 20 14 26 14
6 0 16 6 22 14 6 7 33 19 59 26 26 7 65 21 86 31 42 19 64 17 43 -5 -6 -8 -16
-12 -21 -9 -10 7 3 -58 15 -73 16 -20 84 -25 115 -9 16 8 35 15 42 15 8 0 28
6 45 14 50 22 155 44 241 50 69 5 77 4 66 -9 -7 -8 -19 -15 -26 -15 -8 0 -14
-3 -14 -8 0 -7 -55 -35 -78 -38 -17 -3 -72 -63 -72 -78 1 -20 27 -46 47 -46
11 0 40 13 64 30 24 16 49 30 55 30 5 0 31 13 56 29 29 18 50 26 59 21 27 -17
-21 -73 -71 -82 -8 -2 -17 -5 -20 -8 -10 -11 -62 -30 -80 -30 -11 0 -20 -4
-20 -10 0 -5 -7 -10 -15 -10 -8 0 -15 -5 -15 -11 0 -5 -4 -8 -9 -5 -5 3 -11
-8 -15 -25 -7 -34 11 -59 41 -59 16 0 100 37 207 90 47 24 58 19 27 -14 -26
-28 -83 -56 -209 -106 -58 -23 -61 -82 -6 -93 28 -5 72 9 135 43 45 25 60 25
52 3 -8 -22 -39 -53 -53 -53 -6 0 -13 -7 -16 -15 -6 -13 -88 -67 -109 -71 -5
-1 -45 -13 -87 -27 -42 -15 -88 -28 -101 -31 -14 -2 -36 -10 -49 -17 -12 -7
-31 -12 -40 -10 -10 1 -18 -2 -18 -7 0 -11 -49 -34 -60 -27 -4 3 -10 -2 -13
-10 -5 -12 -35 -14 -179 -11 -189 4 -228 10 -228 35 -1 14 -2 14 -11 -2 -10
-16 -13 -17 -33 -4 -26 17 -105 20 -123 5 -7 -6 -13 -7 -13 -4 0 4 -9 2 -19
-3 -10 -6 -36 -13 -57 -15 -21 -3 -40 -10 -42 -16 -2 -5 -21 -10 -42 -10 -21
0 -51 -5 -65 -10 -15 -6 -46 -11 -68 -11 -23 -1 -53 -8 -67 -15 -23 -11 -95
-31 -210 -56 -46 -10 -56 -12 -145 -25 -43 -7 -467 -9 -533 -3 -43 4 -70 -9
-80 -40 -7 -18 -7 -30 -1 -30 5 0 9 -7 9 -15 0 -24 42 -38 81 -28 19 5 57 8
84 6 58 -4 124 -4 178 1 20 2 39 0 42 -5 3 -4 17 -4 31 1 14 6 48 10 75 10 39
0 55 -5 72 -23 30 -33 62 -48 83 -40 13 5 15 3 9 -7 -5 -8 -4 -11 2 -7 10 6
106 -4 203 -20 45 -8 319 -7 620 2 292 8 318 8 405 3 39 -3 96 -2 127 2 32 3
64 2 73 -2 9 -5 15 -5 15 0 0 6 11 13 24 16 20 5 86 59 86 71 0 7 62 65 69 65
12 0 66 61 118 135 49 69 70 115 52 115 -5 0 -9 7 -9 15 0 8 -5 15 -12 15 -6
0 16 26 49 58 79 75 98 112 85 163 -9 34 -7 42 19 77 25 34 27 43 19 73 -12
44 -9 81 7 94 7 6 15 30 18 55 2 25 12 86 21 137 14 78 20 93 42 104 35 19 43
51 41 151 -1 49 0 90 2 93 2 2 2 36 -1 75 -3 39 -2 77 2 83 4 7 3 32 -3 55 -5
25 -5 50 0 65 6 14 8 27 6 28 -2 2 -6 36 -9 75 -4 39 -11 85 -16 103 -5 17 -9
34 -9 36 -6 50 -18 90 -36 121 -13 22 -35 63 -49 92 -14 28 -30 52 -36 52 -5
0 -10 9 -10 20 0 11 -4 20 -10 20 -5 0 -16 12 -24 28 -27 52 -130 147 -191
177 -33 16 -62 30 -65 31 -3 0 -14 4 -25 9 -81 32 -143 55 -149 55 -10 0 -117
48 -136 60 -8 6 -28 17 -45 25 -16 8 -43 23 -59 34 -16 10 -35 17 -42 14 -20
-8 -18 1 25 80 21 40 52 113 69 162 28 85 33 111 47 229 4 28 9 54 11 58 5 8
6 120 1 235 -1 28 -5 55 -9 59 -5 4 -8 15 -8 23 0 9 -9 33 -20 54 -11 20 -20
44 -20 52 0 13 -30 70 -73 139 -19 31 -100 106 -114 106 -7 0 -13 4 -13 9 0 5
-23 23 -50 41 -28 18 -56 40 -63 50 -7 9 -23 20 -37 23 -14 3 -36 16 -48 28
-13 11 -26 18 -29 15 -3 -3 -19 6 -35 19 -16 14 -40 25 -52 25 -13 0 -52 9
-87 21 -71 23 -89 27 -139 36 -19 3 -39 9 -45 13 -5 4 -55 8 -110 9 -75 1
-109 -3 -135 -15z m210 -98 c20 -13 56 -26 80 -29 125 -17 147 -21 165 -33 11
-8 27 -14 37 -14 9 0 24 -7 33 -16 9 -9 33 -22 53 -29 20 -7 41 -22 47 -33 5
-11 21 -26 35 -32 43 -20 110 -64 141 -92 16 -16 34 -28 39 -28 8 0 73 -86 76
-100 1 -9 16 -43 44 -105 18 -41 27 -79 29 -120 1 -33 4 -68 7 -77 6 -21 -34
-308 -45 -322 -5 -6 -17 -38 -26 -71 -15 -53 -74 -181 -97 -210 -24 -31 -78
-106 -78 -109 0 -2 -27 -31 -60 -64 -33 -34 -60 -64 -60 -67 0 -11 -44 -44
-57 -45 -7 0 -13 -4 -13 -9 0 -11 -195 -109 -230 -115 -14 -2 -25 -5 -25 -6 0
-2 -38 -11 -65 -14 -14 -2 -54 -7 -90 -11 -99 -13 -307 -7 -375 11 -33 8 -76
19 -95 23 -81 18 -240 123 -240 159 0 7 -3 12 -7 12 -12 0 -60 91 -72 135 -6
23 -13 61 -16 85 -3 25 -15 80 -25 122 -28 106 -31 347 -6 433 35 123 84 231
125 278 17 19 31 39 31 45 0 6 6 15 13 19 7 4 23 22 36 38 39 51 205 229 238
256 10 9 39 26 64 39 24 12 51 26 59 31 8 5 35 19 60 30 25 12 54 26 64 31 21
11 95 25 141 27 17 0 46 -9 65 -23z m674 -1459 c-1 -9 2 -14 7 -12 8 6 22 1
74 -29 58 -32 150 -75 220 -102 39 -14 75 -29 80 -33 6 -4 30 -13 55 -20 25
-7 56 -21 70 -31 14 -9 35 -20 46 -24 29 -9 100 -78 109 -105 3 -11 11 -21 16
-21 5 0 9 -6 9 -13 0 -8 11 -24 25 -37 14 -14 40 -54 56 -90 17 -36 37 -76 44
-90 12 -24 47 -195 46 -229 0 -9 0 -54 0 -101 1 -47 1 -119 0 -160 0 -41 0
-101 -1 -133 0 -32 -2 -63 -5 -67 -5 -8 -52 6 -65 20 -3 3 -21 6 -40 7 -41 2
-59 6 -120 22 -24 7 -92 15 -150 18 -58 2 -139 6 -180 8 -41 2 -104 5 -140 6
l-65 1 -2 210 c-2 190 -4 211 -20 223 -31 24 -50 23 -77 -1 -22 -21 -24 -28
-15 -52 12 -30 16 -407 5 -487 -4 -27 -9 -68 -12 -90 -3 -22 -10 -43 -16 -46
-7 -4 -7 -9 1 -13 12 -8 -6 -56 -21 -56 -5 0 -54 -22 -108 -49 -55 -27 -113
-52 -129 -56 -26 -5 -39 -13 -87 -54 -23 -19 -92 -50 -98 -44 -3 4 -6 1 -6 -5
0 -17 -87 -26 -128 -14 -26 8 -39 8 -49 0 -13 -11 -99 -16 -108 -6 -5 4 -150
1 -150 -3 0 -1 -65 -3 -145 -5 -80 -2 -152 -4 -160 -5 -48 -3 -231 24 -276 41
-13 5 -39 10 -59 12 -19 1 -35 6 -35 10 0 4 -6 8 -12 8 -7 0 -24 9 -38 20 -14
11 -35 20 -47 20 -23 0 -32 28 -16 44 5 4 9 20 9 34 3 49 2 366 -1 447 -2 44
-4 128 -6 187 -2 94 -5 108 -21 114 -10 3 -22 2 -28 -1 -5 -3 -10 -1 -10 5 0
8 -27 -4 -59 -27 -7 -5 -8 -63 -1 -63 4 0 6 -11 5 -25 -2 -14 0 -25 3 -25 4 0
7 -28 7 -63 0 -34 2 -66 4 -71 7 -15 9 -393 2 -404 -3 -6 -33 -12 -66 -15 -82
-7 -152 -21 -204 -41 -24 -9 -52 -16 -62 -16 -11 0 -19 -4 -19 -9 0 -5 -17
-11 -38 -14 -52 -7 -72 -12 -123 -36 -65 -30 -139 -53 -153 -48 -15 6 -41 146
-33 176 3 12 1 23 -3 26 -9 5 -5 190 5 290 3 28 7 97 10 155 3 58 10 123 16
145 6 22 12 63 15 90 5 64 12 119 14 125 1 3 2 8 1 12 -2 14 19 203 25 228 3
14 6 34 5 44 0 27 25 73 73 131 66 80 84 93 144 106 32 6 70 15 87 20 19 6 31
6 33 0 2 -7 16 -5 37 4 19 7 51 16 72 19 21 3 56 9 78 12 22 3 74 16 115 29
41 14 82 25 90 26 40 4 90 -2 90 -11 0 -17 70 -113 94 -130 12 -8 38 -30 57
-49 18 -19 51 -46 71 -61 21 -15 34 -31 30 -35 -4 -5 -2 -5 4 -2 7 4 37 -4 68
-18 31 -14 56 -22 56 -20 0 3 10 1 21 -6 12 -6 36 -13 53 -15 17 -3 58 -9 91
-14 55 -8 330 -6 400 3 70 10 112 20 150 37 22 10 67 28 100 41 33 12 62 25
65 28 3 3 31 20 63 36 37 19 76 50 105 85 51 59 92 106 134 153 15 17 24 35
21 40 -3 5 0 7 8 5 8 -3 13 -12 13 -21z m629 -1354 c39 -14 88 -27 107 -30 52
-8 64 -23 50 -63 -1 -3 -3 -12 -4 -20 -5 -51 -31 -130 -43 -130 -7 0 -13 5
-13 12 0 19 -44 78 -57 78 -7 0 -13 5 -13 10 0 7 -6 7 -18 1 -10 -5 -59 -9
-108 -8 -71 2 -94 -2 -114 -15 -13 -10 -34 -18 -46 -18 -11 0 -47 -9 -79 -20
-79 -27 -85 -27 -75 10 5 17 5 30 0 30 -5 0 -11 9 -15 19 -8 25 -53 41 -84 29
-36 -13 -52 -3 -47 29 2 16 5 50 5 76 l1 48 240 -6 c222 -6 245 -8 313 -32z
m-106 -925 c-14 -24 -43 -60 -64 -80 -135 -129 -147 -138 -177 -139 -17 0
-119 -2 -226 -4 -107 -2 -233 -7 -280 -11 -95 -7 -115 -7 -215 -1 -38 3 -81 0
-95 -5 -33 -14 -236 -12 -330 3 -41 6 -97 12 -123 14 -58 4 -76 15 -24 15 19
0 48 5 64 11 15 6 35 12 43 15 51 13 156 36 225 50 140 28 159 32 200 44 22 6
50 14 62 17 12 3 52 -3 90 -12 50 -13 121 -18 266 -21 205 -3 210 -3 300 42
16 8 36 14 45 14 9 0 31 9 47 20 17 11 44 20 60 20 17 0 39 6 50 14 11 7 35
17 52 20 18 4 36 12 39 17 3 6 8 8 11 5 3 -3 -6 -25 -20 -48z"/>
<path d="M2456 3791 c-3 -5 -27 -14 -53 -20 -49 -13 -108 -60 -143 -117 -29
-46 -38 -199 -15 -244 26 -51 47 -69 101 -85 61 -19 136 -10 185 21 35 22 89
113 92 156 1 10 4 18 7 18 4 0 7 6 8 13 0 6 2 36 5 66 7 79 -20 148 -69 178
-39 23 -108 31 -118 14z m73 -110 c8 -5 18 -33 21 -63 7 -49 5 -57 -27 -110
-42 -70 -50 -76 -45 -33 8 66 -37 104 -92 77 -17 -9 -36 -23 -43 -31 -11 -14
-12 -12 -13 11 0 41 42 114 61 103 3 -3 18 9 33 25 27 31 75 40 105 21z"/>
<path d="M3058 3709 c-10 -6 -18 -7 -18 -3 0 3 -6 2 -13 -4 -7 -6 -21 -10 -32
-8 -11 2 -26 -4 -34 -11 -35 -35 -93 -138 -97 -172 -1 -9 -5 -42 -9 -74 -12
-106 44 -178 149 -192 34 -4 106 11 106 23 0 4 10 12 22 17 19 9 62 73 88 133
24 56 28 151 8 199 -6 15 -12 30 -12 33 -2 11 -37 55 -41 53 -3 -2 -6 -3 -7
-2 -2 0 -14 2 -28 5 -14 2 -34 6 -45 8 -11 3 -28 0 -37 -5z m56 -112 c37 -27
37 -128 -1 -158 -14 -12 -16 -12 -11 2 4 10 -2 23 -14 33 -19 17 -22 17 -68
-5 -27 -13 -48 -27 -47 -32 1 -5 -4 -12 -11 -14 -11 -4 -12 -1 -2 17 6 12 10
30 7 39 -6 26 35 104 63 118 32 16 62 16 84 0z m-144 -197 c0 -5 -2 -10 -4
-10 -3 0 -8 5 -11 10 -3 6 -1 10 4 10 6 0 11 -4 11 -10z"/>
<path d="M2564 3132 c-28 -4 -39 -53 -20 -91 27 -50 88 -64 163 -35 40 16 43
19 43 54 0 40 -24 71 -51 67 -9 -2 -28 -11 -44 -21 -23 -15 -29 -16 -36 -5 -5
8 -9 17 -9 20 0 10 -22 15 -46 11z"/>
<path d="M2205 2910 c-86 -11 -163 -80 -149 -135 5 -22 11 -25 49 -25 33 0 44
4 48 19 6 24 52 55 72 48 8 -4 22 -31 31 -63 22 -77 45 -98 111 -100 40 -1 58
3 75 18 13 12 37 27 55 34 17 8 34 18 38 24 3 5 23 10 44 10 35 0 37 -2 34
-27 -5 -36 40 -88 82 -96 37 -7 99 14 128 42 60 58 82 72 111 69 23 -2 32 -9
34 -24 4 -30 33 -54 67 -57 24 -2 30 3 40 34 19 54 -8 110 -64 132 -50 20 -76
21 -137 5 -29 -8 -53 -22 -62 -36 -9 -13 -25 -28 -36 -33 -12 -5 -29 -14 -38
-21 -22 -16 -30 -7 -30 36 0 28 -7 40 -33 60 -24 19 -35 22 -44 13 -8 -8 -11
-8 -11 2 0 15 -68 13 -89 -3 -8 -6 -17 -10 -20 -10 -12 3 -37 -9 -69 -33 -18
-13 -44 -25 -58 -26 -21 -2 -28 5 -40 38 -9 22 -18 50 -21 63 -3 12 -9 25 -15
28 -21 13 -66 19 -103 14z"/>
<path d="M1978 4224 c-44 -24 -136 -121 -188 -201 -28 -41 -50 -77 -50 -79 0
-13 -74 -100 -94 -111 -27 -14 -58 -121 -44 -148 18 -31 98 0 98 39 0 8 5 18
11 22 15 9 82 116 82 131 0 7 6 13 14 13 7 0 13 4 13 8 0 10 58 101 77 120 7
7 20 25 29 41 9 15 36 41 60 57 45 30 66 68 57 103 -6 24 -26 25 -65 5z"/>
<path d="M4249 4022 c-16 -17 -16 -71 0 -82 9 -6 23 -37 28 -63 2 -10 9 -28
15 -40 7 -12 14 -33 16 -47 10 -69 44 -94 87 -66 24 16 31 56 14 81 -3 6 -12
28 -19 50 -7 22 -16 45 -20 50 -4 6 -14 29 -21 52 -19 66 -69 98 -100 65z"/>
<path d="M3942 3955 c-25 -31 -20 -49 24 -87 27 -24 54 -71 94 -163 5 -11 13
-62 18 -112 5 -51 15 -100 22 -108 17 -21 43 -19 65 5 16 18 17 26 6 87 -6 38
-16 95 -22 128 -5 33 -24 89 -40 125 -32 67 -95 143 -111 134 -5 -3 -15 -1
-22 6 -11 8 -19 5 -34 -15z"/>
<path d="M3726 3911 c-20 -22 -18 -48 7 -75 9 -11 17 -26 17 -33 0 -7 6 -13
13 -13 6 0 13 -12 14 -28 4 -37 8 -55 14 -67 4 -5 17 -44 30 -85 23 -73 25
-99 17 -245 l-3 -60 30 3 c36 5 54 17 54 40 0 9 3 40 7 69 7 53 -10 179 -27
199 -5 6 -12 31 -15 55 -3 24 -14 63 -24 87 -11 23 -17 42 -15 42 7 0 -27 74
-47 103 -23 32 -48 35 -72 8z"/>
<path d="M383 2756 c-29 -15 -75 -85 -79 -119 -8 -62 36 -89 83 -53 16 11 27
28 26 36 -2 9 11 38 29 64 l32 49 -23 16 c-31 20 -43 21 -68 7z"/>
<path d="M651 2752 c-21 -7 -64 -52 -57 -59 3 -3 -3 -13 -13 -22 -10 -9 -38
-60 -61 -113 -24 -54 -47 -98 -51 -98 -8 0 -20 -35 -24 -71 -3 -34 18 -62 42
-55 10 3 23 6 28 7 13 1 35 41 29 51 -3 5 0 8 5 8 6 0 11 8 11 18 0 11 7 34
16 53 50 104 58 119 66 119 4 0 8 7 8 15 0 9 12 28 26 42 32 32 50 83 28 83
-8 0 -14 4 -14 9 0 12 -22 19 -39 13z"/>
<path d="M890 2724 c0 -6 -13 -14 -30 -17 -20 -4 -30 -13 -30 -24 0 -10 -14
-38 -30 -63 -16 -25 -30 -50 -30 -56 0 -6 -6 -17 -14 -23 -7 -6 -24 -39 -36
-74 -12 -34 -26 -66 -31 -72 -5 -5 -9 -15 -9 -23 0 -7 -13 -32 -28 -55 -15
-23 -28 -49 -27 -57 1 -8 -3 -21 -9 -28 -13 -18 31 -53 59 -47 11 2 23 4 26 4
4 1 9 17 12 36 3 19 24 74 47 122 24 48 51 108 63 132 11 24 39 73 63 108 24
35 44 68 44 73 0 5 -9 24 -20 42 -11 18 -20 28 -20 22z"/>
<path d="M4905 2581 c-18 -17 5 -97 35 -121 7 -6 29 -99 33 -143 4 -33 21 -47
58 -47 57 0 57 69 0 221 -28 72 -53 100 -92 97 -16 -1 -32 -4 -34 -7z"/>
<path d="M4695 2562 c-37 -8 -43 -19 -34 -69 5 -25 21 -70 35 -100 14 -30 27
-62 29 -72 3 -9 14 -50 25 -91 14 -51 19 -86 14 -110 -9 -44 -6 -60 14 -83 10
-11 22 -15 36 -11 32 10 44 34 40 78 -2 23 -6 67 -8 100 -5 54 -28 140 -61
226 -8 19 -19 51 -25 71 -13 44 -38 67 -65 61z"/>
<path d="M4405 2453 c-15 -35 -14 -48 5 -75 11 -15 20 -34 20 -42 0 -8 6 -19
14 -23 12 -7 57 -126 71 -188 2 -11 9 -40 15 -64 6 -24 11 -60 11 -80 1 -61 7
-71 42 -71 18 0 38 4 46 9 14 9 19 59 9 91 -3 8 -10 35 -17 60 -42 156 -92
286 -136 355 -10 17 -19 31 -19 32 -1 1 -13 4 -27 8 -20 5 -28 2 -34 -12z"/>
<path d="M4457 938 c-13 -10 -18 -32 -22 -85 -2 -40 -6 -76 -8 -80 -3 -5 -8
-26 -11 -47 -4 -22 -11 -45 -17 -53 -6 -7 -9 -13 -5 -13 6 0 -24 -82 -33 -90
-11 -10 -65 -123 -66 -139 -2 -30 -38 -116 -62 -148 -12 -17 -23 -36 -23 -41
0 -5 -7 -15 -15 -22 -25 -21 -65 -102 -62 -125 7 -54 65 -75 89 -33 7 13 11
27 10 31 -1 5 22 45 51 90 29 45 59 105 66 132 8 28 34 93 58 145 67 142 80
178 101 275 33 155 33 187 -4 204 -30 13 -27 14 -47 -1z"/>
<path d="M612 761 c-18 -11 -7 -98 20 -159 12 -26 22 -49 23 -52 1 -3 18 -40
38 -83 20 -43 37 -90 37 -103 0 -14 7 -27 15 -30 8 -4 13 -10 10 -15 -3 -4 3
-13 14 -18 45 -25 100 30 68 67 -21 24 -49 82 -40 82 5 0 3 4 -3 8 -17 10 -82
152 -89 192 -18 100 -26 120 -54 120 -14 0 -32 -4 -39 -9z"/>
<path d="M4650 740 c-9 -6 -15 -28 -16 -67 -2 -62 -28 -188 -42 -207 -5 -6
-14 -29 -20 -52 -7 -23 -24 -54 -39 -70 -36 -39 -40 -85 -7 -101 13 -6 32 -9
42 -7 21 6 59 62 68 101 4 15 15 44 25 64 21 42 50 147 56 204 2 22 7 47 10
55 21 54 -31 109 -77 80z"/>
<path d="M4875 680 c-17 -6 -23 -24 -34 -101 -8 -52 -20 -106 -27 -121 -8 -15
-14 -36 -14 -47 0 -28 41 -54 74 -45 20 5 28 17 42 62 20 66 31 252 16 252 -6
0 -16 2 -24 4 -7 3 -22 1 -33 -4z"/>
<path d="M440 643 c-57 -13 -37 -108 61 -295 10 -20 19 -44 19 -52 0 -8 13
-19 29 -24 23 -8 31 -7 45 9 9 11 16 26 16 34 0 15 -19 54 -31 65 -8 8 -39 77
-39 89 0 6 -6 25 -14 43 -8 18 -19 52 -25 75 -12 43 -33 63 -61 56z"/>
<path d="M250 473 c-19 -8 -40 -35 -34 -45 3 -4 6 -33 8 -64 2 -34 9 -60 17
-65 20 -12 51 -10 71 4 20 16 35 67 20 67 -6 0 -9 13 -7 29 2 22 -4 37 -22 55
-27 27 -29 28 -53 19z"/>
</g>
</svg>
