<?xml version="1.0" standalone="no"?>
<!DOCTYPE svg PUBLIC "-//W3C//DTD SVG 20010904//EN"
 "http://www.w3.org/TR/2001/REC-SVG-20010904/DTD/svg10.dtd">
<svg version="1.0" xmlns="http://www.w3.org/2000/svg"
 width="363.000000pt" height="349.000000pt" viewBox="0 0 363.000000 349.000000"
 preserveAspectRatio="xMidYMid meet">
<metadata>
Created by potrace 1.16, written by Peter Selinger 2001-2019
</metadata>
<g transform="translate(0.000000,349.000000) scale(0.100000,-0.100000)"
fill="#000000" stroke="none">
<path d="M1948 3125 c-3 -3 -57 -10 -121 -15 -99 -8 -127 -15 -199 -46 -45
-20 -90 -43 -99 -50 -8 -8 -19 -14 -23 -14 -4 0 -40 -22 -79 -50 -39 -27 -76
-50 -83 -50 -19 0 -161 -99 -192 -134 -16 -17 -50 -51 -78 -75 -90 -81 -184
-171 -184 -177 0 -3 -16 -24 -35 -47 -19 -22 -35 -44 -35 -49 0 -5 -5 -14 -10
-21 -25 -29 -60 -89 -60 -101 0 -8 -6 -19 -13 -25 -11 -8 -17 -5 -28 15 -17
33 -93 77 -130 76 -64 -2 -150 -92 -196 -204 -25 -62 -25 -66 -20 -249 5 -164
8 -192 28 -233 23 -51 54 -86 110 -128 31 -23 36 -32 34 -65 -1 -21 2 -54 7
-73 4 -19 10 -51 13 -70 3 -19 8 -42 11 -50 3 -8 8 -33 11 -55 3 -22 14 -66
24 -99 11 -32 19 -65 19 -73 0 -32 108 -235 164 -308 38 -50 173 -180 206
-200 10 -5 57 -36 104 -68 47 -31 87 -57 90 -57 2 0 38 -16 79 -35 41 -19 84
-35 95 -35 12 0 23 -4 26 -8 11 -18 258 -63 341 -63 101 1 282 32 359 62 27
10 54 19 62 19 7 0 25 7 41 15 15 8 63 28 105 44 113 44 227 112 382 231 79
61 110 80 127 80 6 0 35 17 66 38 71 48 120 78 161 99 17 9 32 20 32 25 0 4 6
8 14 8 7 0 20 7 27 16 8 9 30 27 49 39 45 29 150 129 150 144 0 6 7 11 16 11
8 0 13 4 9 9 -3 5 -1 12 3 15 5 3 9 18 10 33 0 16 1 33 2 38 5 25 -1 55 -15
69 -8 8 -15 17 -15 21 0 19 -65 56 -103 58 -24 2 -24 3 -12 27 33 61 75 168
78 195 2 17 13 62 25 100 40 131 47 297 16 416 -8 31 -14 69 -14 83 0 21 -42
193 -56 231 -2 6 -15 28 -29 50 -14 22 -29 49 -34 60 -5 11 -17 29 -28 41 -10
11 -22 27 -28 36 -19 28 -90 133 -100 146 -52 69 -268 209 -365 237 -14 4 -32
13 -40 20 -32 25 -207 80 -280 86 -41 4 -86 9 -100 12 -14 2 -77 8 -140 11
-63 4 -122 9 -131 12 -8 2 -18 2 -21 -1z m122 -140 c81 -24 89 -24 116 -3 25
20 53 21 124 3 14 -4 41 -8 60 -9 40 -4 168 -45 220 -72 19 -9 44 -22 55 -27
18 -9 75 -41 155 -88 85 -49 139 -102 200 -196 119 -184 130 -201 130 -213 0
-6 7 -22 16 -35 9 -14 13 -25 10 -25 -4 0 0 -13 8 -28 14 -28 45 -189 50 -260
1 -20 5 -42 8 -47 3 -6 6 -35 7 -65 2 -54 -1 -74 -34 -195 -9 -33 -16 -67 -17
-75 0 -30 -19 -90 -27 -90 -5 0 -11 -18 -15 -39 -3 -22 -13 -46 -21 -55 -8 -8
-15 -21 -15 -28 0 -34 -172 -357 -201 -378 -4 -3 -33 -39 -66 -81 -72 -95
-120 -149 -130 -149 -5 0 -13 -10 -18 -22 -17 -36 -319 -240 -396 -267 -30
-10 -97 -34 -149 -54 -52 -19 -102 -37 -110 -40 -39 -14 -232 -42 -290 -42
-177 1 -354 36 -461 91 -38 20 -69 39 -69 43 0 3 -34 24 -76 46 -138 72 -294
246 -380 425 -25 52 -50 137 -60 205 -3 17 -11 53 -19 80 -28 101 -41 251 -23
272 7 9 7 13 -1 13 -19 0 -14 120 6 142 10 12 12 18 4 18 -7 0 -10 7 -7 18 5
16 16 69 20 102 1 8 5 22 9 30 4 8 18 47 31 85 66 191 109 276 188 367 30 34
47 56 79 98 36 47 144 156 205 205 27 22 64 54 84 71 34 30 81 60 145 92 17 8
41 23 55 32 28 20 83 51 180 102 119 63 292 81 420 43z m-1468 -733 c9 -4 30
-24 46 -45 28 -34 30 -41 20 -70 -6 -18 -14 -36 -18 -42 -4 -5 -15 -36 -24
-67 -9 -31 -23 -63 -31 -72 -8 -8 -15 -22 -15 -31 0 -9 -7 -29 -15 -45 -8 -16
-14 -33 -13 -37 4 -20 -16 -154 -24 -159 -19 -12 -46 28 -53 79 -14 108 -17
145 -17 243 -1 97 1 103 34 160 18 32 44 63 56 69 12 5 22 13 22 17 0 9 9 9
32 0z m2622 -1004 c8 -12 13 -25 10 -30 -3 -4 0 -8 6 -8 18 0 -5 -32 -65 -93
-31 -31 -65 -59 -75 -62 -11 -3 -37 -24 -58 -46 -21 -21 -42 -36 -46 -32 -4 5
-12 0 -17 -10 -6 -9 -14 -17 -20 -17 -13 0 6 34 53 93 21 27 41 60 44 73 3 13
9 24 13 24 4 0 13 16 20 35 16 45 66 95 96 95 13 0 31 -10 39 -22z"/>
<path d="M1460 1778 c0 -5 -6 -8 -14 -8 -20 0 -29 -46 -14 -70 11 -16 20 -19
58 -15 25 2 68 7 95 10 28 3 44 1 37 -3 -7 -5 -10 -16 -6 -25 3 -10 1 -17 -5
-17 -7 0 -5 -10 6 -24 21 -29 117 -81 132 -71 6 3 11 2 11 -3 0 -11 102 -33
161 -36 20 -1 44 -10 54 -19 32 -32 72 -18 81 29 4 23 1 41 -9 57 -35 52 -86
96 -142 123 -33 16 -61 32 -63 37 -2 4 -11 7 -20 7 -9 1 -35 8 -57 17 -29 12
-75 16 -172 17 -73 1 -133 -2 -133 -6z m320 -123 c51 -19 50 -35 -2 -22 -43
10 -87 35 -88 49 0 4 12 2 28 -4 15 -6 43 -16 62 -23z"/>
<path d="M1685 1530 c-26 -13 -30 -20 -27 -52 4 -45 29 -63 78 -54 41 8 47 17
39 59 -4 21 -16 38 -33 48 -24 13 -30 13 -57 -1z"/>
<path d="M2520 1476 c-3 -2 -27 -7 -55 -10 -27 -3 -54 -11 -59 -16 -6 -6 -17
-10 -26 -10 -34 0 -53 -24 -45 -59 7 -32 8 -33 49 -27 58 8 70 11 83 19 7 4
27 5 45 1 18 -4 40 -8 48 -9 8 -1 23 -6 33 -10 10 -4 26 -8 35 -9 25 -2 70
-35 77 -56 3 -10 18 -20 36 -22 26 -4 34 0 50 26 27 44 24 61 -18 94 -50 38
-98 61 -153 73 -25 5 -56 12 -70 15 -14 3 -27 3 -30 0z"/>
<path d="M2420 1341 c-78 -24 -114 -65 -83 -96 17 -17 24 -18 75 -6 l36 8 -14
-40 c-19 -53 -19 -91 1 -84 8 4 17 2 20 -3 11 -18 45 -10 61 15 18 28 22 59
10 93 -7 20 -4 22 26 22 42 0 53 8 61 42 11 44 -13 58 -96 57 -40 0 -83 -4
-97 -8z"/>
<path d="M1846 1099 l-18 -31 30 -36 c37 -47 93 -70 133 -55 20 8 31 8 35 1 9
-14 43 31 44 56 0 37 -28 56 -74 50 -35 -5 -44 -2 -65 20 -33 35 -62 33 -85
-5z"/>
<path d="M1189 939 c-5 -3 -14 -21 -19 -39 -14 -47 5 -66 62 -60 44 3 121 4
238 1 72 -2 200 -31 270 -60 25 -11 69 -30 99 -43 111 -47 236 -121 250 -147
28 -52 101 -14 101 53 0 30 -5 38 -32 52 -18 9 -37 23 -41 30 -4 8 -17 14 -27
14 -11 0 -20 5 -20 10 0 6 -9 10 -19 10 -10 0 -32 12 -49 28 -16 15 -42 28
-58 30 -16 2 -50 14 -76 28 -26 13 -53 24 -59 24 -6 0 -25 6 -42 14 -68 29
-214 63 -237 54 -12 -4 -34 -5 -48 -2 -34 8 -281 11 -293 3z"/>
</g>
</svg>
