<?xml version="1.0" standalone="no"?>
<!DOCTYPE svg PUBLIC "-//W3C//DTD SVG 20010904//EN"
 "http://www.w3.org/TR/2001/REC-SVG-20010904/DTD/svg10.dtd">
<svg version="1.0" xmlns="http://www.w3.org/2000/svg"
 width="393.000000pt" height="443.000000pt" viewBox="0 0 393.000000 443.000000"
 preserveAspectRatio="xMidYMid meet">
<metadata>
Created by potrace 1.16, written by Peter Selinger 2001-2019
</metadata>
<g transform="translate(0.000000,443.000000) scale(0.100000,-0.100000)"
fill="#000000" stroke="none">
<path d="M2107 4368 c-62 -13 -269 -49 -302 -53 -16 -1 -42 -8 -57 -14 -16 -6
-28 -8 -28 -6 0 3 -16 -5 -36 -16 -20 -11 -44 -17 -53 -14 -8 3 -12 3 -8 -1 4
-4 -4 -14 -17 -23 -13 -9 -43 -29 -66 -46 -24 -16 -50 -34 -58 -40 -17 -11
-30 -21 -83 -65 -20 -17 -39 -30 -43 -30 -9 0 -101 -71 -104 -81 -2 -5 -8 -7
-13 -3 -5 3 -9 0 -9 -5 0 -6 -8 -11 -17 -11 -9 0 -14 -2 -11 -6 3 -3 -19 -31
-49 -62 -30 -31 -76 -80 -103 -108 -27 -28 -55 -54 -62 -57 -7 -2 -19 -25 -27
-51 -7 -25 -17 -46 -21 -46 -5 0 -12 -10 -16 -22 -4 -13 -17 -35 -30 -50 -12
-16 -28 -44 -35 -63 -7 -19 -17 -35 -21 -35 -4 0 -8 -4 -8 -9 0 -9 -58 -111
-86 -149 -10 -15 -23 -22 -35 -19 -11 3 -19 1 -19 -4 0 -5 -7 -9 -16 -9 -29 0
-112 -32 -133 -51 -11 -10 -23 -19 -27 -19 -31 0 -87 -144 -99 -255 -4 -33
-13 -80 -20 -105 -16 -51 -30 -146 -26 -173 1 -10 -2 -24 -8 -31 -7 -8 -7 -31
-2 -62 4 -28 4 -59 1 -70 -4 -10 -4 -31 1 -46 4 -14 5 -29 2 -32 -7 -7 23 -70
41 -85 12 -10 12 -17 1 -44 -13 -32 -31 -140 -27 -167 14 -126 28 -196 47
-253 8 -23 17 -61 21 -84 3 -23 15 -51 25 -62 11 -11 19 -28 19 -38 0 -10 14
-36 30 -57 17 -22 30 -45 30 -52 0 -6 8 -11 18 -10 9 0 16 -5 14 -11 -1 -7 2
-13 8 -13 12 0 43 -25 87 -70 18 -19 47 -49 63 -65 17 -17 30 -36 30 -43 0 -6
6 -12 13 -12 8 0 37 -25 65 -55 29 -30 57 -55 62 -55 29 0 189 -131 191 -156
2 -27 9 -48 21 -62 26 -33 50 -91 44 -107 -3 -9 1 -27 10 -40 47 -73 50 -467
4 -563 -11 -23 -20 -49 -20 -58 0 -23 -38 -163 -51 -189 -7 -14 -7 -30 0 -48
9 -23 16 -27 50 -27 31 0 40 4 46 22 12 38 15 52 17 73 1 11 5 22 9 25 4 3 10
19 13 35 2 17 5 30 6 30 2 0 4 14 5 30 2 17 4 31 5 33 1 1 4 7 5 12 1 6 3 11
5 13 1 1 3 11 5 22 2 11 11 45 20 75 26 84 28 397 4 471 -10 30 -18 65 -19 79
-1 35 -31 118 -61 170 -15 25 -29 54 -33 65 -8 26 -78 105 -93 105 -6 0 -13 3
-15 8 -4 9 -95 82 -102 82 -21 0 -200 182 -190 193 3 2 -8 13 -23 23 -15 10
-44 36 -64 57 -20 20 -41 37 -47 37 -7 0 -12 7 -12 15 0 9 -6 18 -14 21 -22 8
-83 139 -105 224 -11 41 -23 89 -28 105 -4 17 -8 68 -7 115 0 78 3 91 38 159
30 59 41 72 56 68 11 -3 20 -1 22 5 8 22 39 -7 49 -46 26 -93 41 -136 57 -158
10 -13 29 -48 42 -78 15 -33 49 -80 85 -116 33 -34 81 -84 107 -113 26 -28 54
-51 62 -51 8 0 21 -6 28 -13 7 -7 41 -30 75 -51 33 -21 63 -47 66 -58 3 -11
10 -17 15 -14 5 3 16 -1 23 -10 16 -20 64 -44 97 -50 15 -3 29 -8 32 -12 3 -4
12 -8 20 -10 8 -2 33 -12 56 -23 24 -10 50 -19 58 -19 8 0 17 -4 20 -9 3 -5
20 -12 38 -15 38 -7 192 -83 227 -111 13 -11 35 -29 49 -41 20 -16 29 -40 42
-102 9 -45 15 -84 12 -87 -3 -3 -5 -27 -5 -53 1 -30 -5 -59 -18 -80 -10 -18
-19 -46 -19 -62 0 -15 -5 -30 -11 -32 -6 -2 -14 -27 -17 -56 -2 -29 -8 -52
-12 -52 -4 0 -10 -12 -13 -28 -3 -15 -12 -58 -21 -97 -9 -38 -16 -82 -16 -96
0 -14 -2 -28 -5 -31 -3 -3 -7 -52 -9 -109 -5 -120 -14 -179 -28 -179 -7 0 -7
-5 0 -13 6 -7 13 -55 16 -106 3 -52 8 -96 10 -98 8 -8 71 -19 88 -15 23 5 31
50 22 135 -16 151 -2 418 25 492 11 28 22 64 25 80 12 69 32 129 38 114 7 -18
137 -18 238 1 36 7 80 12 98 11 17 0 32 3 32 7 0 4 8 8 18 9 48 3 84 12 100
26 9 8 37 17 62 20 45 5 100 25 110 39 3 4 26 16 50 26 25 11 55 29 67 41 12
12 26 21 32 21 5 0 11 7 15 15 3 8 16 20 29 26 14 6 34 29 46 50 12 21 28 44
35 52 7 7 24 31 39 53 14 22 32 47 39 55 8 8 15 18 15 22 0 5 12 26 25 47 14
20 28 49 32 64 3 14 11 26 16 26 6 0 10 8 10 19 0 10 11 34 24 54 13 19 22 38
20 40 -3 3 1 20 9 39 8 19 18 55 23 79 10 55 7 47 27 94 16 36 21 40 57 43 41
3 80 27 80 49 0 7 4 13 9 13 4 0 23 30 41 68 18 37 36 69 40 72 11 8 90 171
90 186 0 7 11 37 24 67 14 29 31 71 39 92 29 78 42 110 47 115 3 3 7 23 9 45
1 22 8 60 13 85 17 71 12 162 -10 180 -10 9 -17 20 -15 26 2 7 -13 29 -35 51
-27 29 -54 45 -92 56 -78 23 -140 29 -141 14 -1 -26 -37 122 -42 174 -3 31
-12 72 -20 90 -8 19 -24 77 -36 129 -13 52 -34 129 -48 170 -14 41 -27 86 -30
100 -9 49 -36 125 -48 140 -7 8 -25 39 -39 68 -15 29 -48 74 -74 99 -26 25
-46 49 -44 54 1 5 -3 9 -10 9 -7 0 -44 33 -82 73 -96 97 -160 149 -191 151
-14 0 -25 4 -25 8 0 4 -16 12 -35 19 -19 7 -35 17 -35 22 0 5 -6 7 -12 4 -7
-2 -26 0 -43 5 -70 22 -147 38 -156 32 -5 -3 -15 -2 -21 3 -7 4 -31 9 -53 11
-66 5 -80 7 -85 13 -3 3 -22 2 -43 -3z m128 -133 c70 -4 112 -10 150 -22 23
-8 28 -9 70 -17 17 -3 49 -15 72 -26 23 -11 47 -20 53 -20 5 0 68 -57 138
-128 71 -70 140 -137 155 -149 15 -11 41 -47 58 -79 17 -32 34 -63 38 -69 9
-11 20 -43 51 -150 12 -38 27 -79 35 -91 7 -11 14 -43 16 -70 1 -27 5 -53 8
-59 3 -5 7 -19 8 -30 2 -11 12 -46 24 -78 11 -31 18 -61 14 -66 -3 -5 -1 -12
4 -15 9 -6 16 -48 26 -166 2 -30 8 -93 12 -140 4 -47 7 -92 6 -100 -1 -8 -5
-71 -8 -140 -10 -222 -48 -488 -79 -550 -7 -14 -21 -54 -31 -90 -10 -36 -28
-101 -41 -145 -13 -44 -25 -91 -28 -105 -5 -32 -27 -80 -36 -80 -4 0 -7 -12
-8 -27 0 -16 -12 -48 -26 -73 -14 -25 -34 -62 -46 -82 -11 -20 -24 -39 -28
-42 -5 -3 -26 -35 -47 -71 -21 -36 -42 -65 -47 -65 -4 0 -8 -6 -8 -13 0 -14
-66 -78 -73 -71 -2 2 -9 -6 -16 -19 -14 -27 -173 -107 -211 -107 -14 0 -38 -7
-54 -15 -15 -8 -39 -17 -52 -19 -13 -3 -28 -7 -33 -10 -4 -3 -30 -8 -57 -11
-27 -4 -74 -9 -104 -13 -49 -7 -81 -7 -171 1 -24 2 -26 4 -17 27 12 33 17 153
7 204 -4 23 -10 60 -12 83 -3 23 -12 54 -21 70 -8 15 -18 36 -22 45 -3 10 -11
18 -16 18 -5 0 -21 12 -36 26 -15 14 -50 37 -79 50 -28 13 -55 29 -58 34 -3 6
-12 10 -19 10 -8 0 -31 7 -52 17 -22 9 -47 17 -56 18 -10 1 -26 9 -35 17 -10
8 -31 18 -47 22 -45 11 -229 96 -234 109 -2 4 -12 7 -22 7 -9 0 -22 6 -28 12
-10 13 -12 18 -12 39 0 6 -6 9 -14 6 -8 -3 -20 1 -26 9 -7 8 -20 14 -29 14 -9
0 -30 15 -46 33 -17 17 -48 44 -70 58 -22 15 -51 37 -65 51 -41 38 -113 125
-112 134 0 5 -4 15 -10 22 -6 6 -7 12 -3 12 5 0 1 8 -7 18 -9 9 -32 58 -53
107 -58 142 -68 159 -105 176 -18 9 -35 25 -37 35 -5 29 -5 112 1 132 3 9 7
34 10 55 4 21 13 51 21 67 8 16 15 38 15 50 0 11 3 20 8 20 4 0 8 16 9 36 2
49 38 165 75 244 90 190 156 309 195 352 10 11 17 22 15 24 -2 4 28 55 38 64
4 3 12 21 20 40 18 45 60 99 138 175 34 34 62 67 62 73 0 7 4 12 10 12 5 0 23
14 40 30 17 17 36 30 42 30 6 0 27 15 48 33 20 17 50 42 66 55 16 12 59 47 97
77 37 29 77 57 90 61 12 4 25 11 28 16 7 12 110 39 121 32 4 -3 8 0 8 5 0 6 8
11 17 11 10 0 35 7 58 15 55 21 211 44 260 38 22 -2 72 -6 110 -8z m-1561
-1094 c-4 -14 -15 -44 -25 -65 -11 -22 -19 -45 -19 -50 0 -6 -7 -24 -15 -39
-8 -16 -17 -43 -19 -60 -4 -29 -22 -108 -47 -197 -25 -90 -27 -106 -28 -197
-1 -54 -5 -76 -18 -89 -16 -16 -18 -16 -28 9 -18 44 -4 318 18 354 3 5 9 36
12 69 7 64 29 158 47 202 16 37 74 87 104 88 21 2 23 -1 18 -25z m2698 -256
c69 -11 108 -70 102 -154 -5 -70 -34 -204 -50 -228 -8 -12 -16 -30 -17 -40 -2
-10 -11 -34 -19 -53 -9 -19 -22 -54 -29 -77 -7 -24 -16 -43 -21 -43 -6 0 -8
-6 -5 -12 2 -7 -4 -24 -13 -38 -9 -14 -30 -54 -46 -90 -15 -36 -31 -67 -35
-70 -3 -3 -9 -15 -13 -27 -4 -11 -14 -24 -23 -27 -17 -7 -17 -10 12 119 32
148 34 163 51 415 9 134 10 227 3 282 -5 42 -3 48 15 51 12 2 28 3 36 1 8 -1
32 -5 52 -9z"/>
<path d="M1295 3039 c-16 -5 -49 -10 -72 -10 -24 -1 -43 -6 -43 -11 0 -6 -7
-7 -16 -4 -10 4 -27 -5 -46 -23 -26 -25 -30 -35 -24 -63 5 -26 2 -37 -14 -50
-11 -10 -17 -24 -14 -33 4 -8 -1 -17 -10 -21 -9 -3 -16 -14 -16 -23 0 -15 20
-86 37 -131 4 -8 6 -18 5 -21 -2 -12 65 -67 107 -88 82 -42 256 -66 289 -40 9
8 33 22 53 32 20 10 60 41 89 68 29 27 56 49 59 49 15 0 27 38 27 82 -1 34 4
51 17 60 10 7 17 25 17 45 0 27 -7 37 -37 57 -21 13 -49 35 -62 50 -14 14 -33
26 -44 26 -10 0 -31 9 -47 20 -38 27 -199 45 -255 29z m75 -98 c0 -13 -86 -32
-118 -26 -18 3 -41 1 -52 -5 -10 -5 -21 -6 -24 -2 -8 14 8 30 34 33 47 7 160
7 160 0z m125 -16 c40 -18 16 -19 -26 0 -19 8 -27 14 -19 14 8 0 29 -6 45 -14z
m75 -31 c0 -2 -7 -4 -15 -4 -8 0 -15 4 -15 10 0 5 7 7 15 4 8 -4 15 -8 15 -10z
m-125 -48 c11 -4 33 -14 48 -22 16 -8 32 -12 35 -11 4 2 20 -11 35 -29 16 -19
24 -34 18 -34 -6 0 -11 -8 -11 -19 0 -28 -77 -101 -107 -101 -14 0 -22 4 -18
10 11 17 -28 90 -44 84 -8 -2 -18 1 -22 8 -4 6 -22 13 -40 14 -25 2 -39 -5
-60 -27 -15 -17 -28 -32 -28 -34 -1 -3 -1 -12 -1 -21 0 -13 -4 -13 -30 2 -32
20 -38 29 -49 91 -7 38 -6 44 15 57 12 9 51 18 86 20 35 3 74 9 87 14 26 9 57
9 86 -2z"/>
<path d="M2455 2979 c-11 -4 -43 -8 -72 -8 -40 -1 -63 -8 -100 -31 -26 -16
-57 -30 -68 -30 -28 0 -65 -32 -65 -57 0 -23 18 -43 41 -43 21 0 120 40 140
57 8 7 34 13 56 13 22 0 43 3 46 6 10 10 87 15 87 6 0 -11 -93 -42 -126 -42
-16 0 -41 -6 -55 -14 -14 -7 -50 -19 -80 -27 -68 -17 -66 -16 -83 -18 -18 -1
-36 -52 -25 -71 5 -8 18 -37 31 -65 12 -27 28 -54 36 -59 8 -5 32 -24 52 -42
21 -19 43 -34 49 -34 6 0 11 -5 11 -11 0 -5 5 -7 11 -4 5 4 18 0 27 -8 9 -8
37 -17 62 -20 25 -3 60 -8 79 -11 19 -3 38 -3 44 1 6 3 31 7 56 8 69 3 181 62
181 95 0 4 11 22 25 39 17 19 28 48 32 78 3 26 11 64 18 83 12 35 6 72 -14 85
-6 3 -11 19 -11 34 0 16 -8 39 -18 51 -16 19 -30 23 -96 26 -42 2 -82 7 -88
10 -16 10 -160 12 -183 3z m128 -96 c-7 -2 -21 -2 -30 0 -10 3 -4 5 12 5 17 0
24 -2 18 -5z m40 -99 c33 -2 62 -6 65 -9 2 -2 12 0 21 5 11 6 24 3 40 -9 21
-16 22 -20 10 -59 -7 -23 -16 -42 -21 -42 -4 0 -8 -6 -8 -13 0 -36 -100 -101
-122 -79 -8 8 -7 18 4 35 15 22 14 25 -19 65 -33 40 -37 42 -76 37 -23 -3 -43
-10 -45 -15 -2 -6 -10 -10 -18 -10 -8 0 -14 -4 -14 -10 0 -5 -6 -10 -13 -10
-14 0 -17 -13 -17 -58 l0 -23 -43 23 c-23 13 -46 29 -50 36 -4 6 -15 12 -22
12 -10 0 -15 11 -15 33 0 31 3 34 56 52 31 10 70 18 88 17 17 0 51 7 76 17 25
10 49 16 54 13 5 -3 36 -6 69 -8z"/>
<path d="M700 2490 c0 -5 5 -10 11 -10 5 0 7 5 4 10 -3 6 -8 10 -11 10 -2 0
-4 -4 -4 -10z"/>
<path d="M1787 2404 c-23 -31 -6 -79 37 -101 42 -23 219 -22 263 1 57 29 30
106 -37 106 -16 0 -30 -5 -30 -11 0 -7 -11 -9 -30 -5 -16 3 -30 2 -30 -3 0
-16 -59 -6 -88 16 -37 27 -63 26 -85 -3z"/>
<path d="M1470 1930 c-30 -4 -68 -12 -83 -18 -16 -7 -33 -10 -38 -6 -5 3 -9
-5 -9 -18 0 -13 -4 -29 -9 -37 -12 -19 16 -61 41 -61 11 0 29 5 41 11 11 7 37
13 56 14 20 1 53 6 73 10 26 5 46 2 69 -9 18 -9 38 -16 46 -16 7 0 13 -4 13
-10 0 -5 6 -10 14 -10 8 0 31 -15 51 -33 63 -58 166 -71 240 -31 25 13 52 24
58 24 7 0 31 9 52 21 54 28 115 49 143 49 66 0 130 -61 145 -139 9 -46 34 -71
68 -71 33 0 59 32 56 70 0 14 -16 51 -35 83 -19 32 -31 61 -28 64 7 8 -45 49
-74 58 -14 4 -35 13 -47 21 -32 20 -132 21 -170 1 -18 -9 -37 -17 -43 -17 -6
0 -27 -11 -48 -24 -20 -13 -68 -34 -105 -47 l-68 -23 -37 19 c-20 11 -48 30
-62 43 -14 12 -28 22 -32 22 -4 0 -27 13 -50 30 -47 32 -122 42 -228 30z"/>
</g>
</svg>
