<?xml version="1.0" standalone="no"?>
<!DOCTYPE svg PUBLIC "-//W3C//DTD SVG 20010904//EN"
 "http://www.w3.org/TR/2001/REC-SVG-20010904/DTD/svg10.dtd">
<svg version="1.0" xmlns="http://www.w3.org/2000/svg"
 width="535.000000pt" height="411.000000pt" viewBox="0 0 535.000000 411.000000"
 preserveAspectRatio="xMidYMid meet">
<metadata>
Created by potrace 1.16, written by Peter Selinger 2001-2019
</metadata>
<g transform="translate(0.000000,411.000000) scale(0.100000,-0.100000)"
fill="#000000" stroke="none">
<path d="M4150 3874 c-130 -17 -175 -29 -297 -85 -24 -10 -49 -19 -56 -19 -7
0 -17 -4 -22 -9 -6 -4 -46 -28 -90 -51 -44 -24 -98 -55 -120 -70 -22 -15 -54
-36 -71 -46 -72 -44 -143 -95 -171 -122 -16 -16 -56 -44 -89 -63 -32 -18 -66
-38 -74 -46 -108 -93 -323 -223 -368 -223 -10 0 -22 -3 -26 -7 -4 -5 -12 -9
-17 -9 -5 -1 -10 -3 -11 -4 -3 -3 -13 -4 -130 -15 -43 -5 -78 -11 -78 -15 0
-5 -17 -12 -37 -17 -21 -5 -38 -13 -38 -18 0 -6 -4 -16 -9 -23 -4 -7 -5 -16
-2 -19 3 -3 1 -12 -4 -18 -7 -9 -3 -17 14 -28 27 -18 85 -22 136 -10 35 9 55
9 160 0 58 -5 152 -43 187 -76 11 -11 23 -17 26 -14 5 5 82 -69 153 -148 45
-50 80 -126 87 -189 3 -30 9 -66 12 -80 3 -14 8 -63 11 -110 6 -88 17 -140 54
-250 37 -110 52 -139 96 -188 24 -26 44 -53 44 -59 0 -7 5 -13 10 -13 6 0 10
-9 10 -19 0 -10 33 -52 74 -93 97 -95 97 -95 164 -124 31 -14 80 -35 107 -49
65 -31 83 -37 125 -41 200 -19 178 -19 261 -4 35 7 85 13 110 15 25 1 55 8 67
14 11 6 28 11 37 11 9 0 33 7 53 16 21 9 46 20 57 24 154 61 179 75 254 149
86 85 151 159 151 173 0 5 11 21 24 35 14 15 23 31 20 35 -3 5 3 17 13 26 11
9 23 29 26 44 4 15 13 33 20 40 18 20 67 121 67 140 0 9 8 22 18 27 9 6 14 11
10 11 -4 0 -1 15 7 32 11 29 22 90 31 178 1 14 3 25 3 25 2 0 14 151 14 180 2
90 -36 351 -54 370 -5 5 -9 21 -9 35 0 38 -35 142 -80 235 -21 44 -47 103 -58
131 -21 57 -138 234 -155 234 -5 0 -28 15 -51 33 -23 18 -54 39 -71 47 -16 8
-32 18 -35 21 -3 4 -36 16 -75 29 -38 12 -84 29 -102 36 -17 8 -35 14 -40 13
-4 -1 -10 0 -13 1 -13 6 -230 17 -260 14z m168 -109 c34 -4 62 -10 62 -14 0
-4 35 -13 78 -21 44 -7 90 -22 107 -35 17 -11 44 -28 60 -36 28 -13 112 -92
164 -154 13 -15 35 -53 48 -84 14 -31 41 -86 60 -123 53 -105 118 -341 133
-488 16 -146 16 -155 2 -280 -21 -179 -26 -201 -73 -291 -11 -20 -19 -44 -19
-53 0 -9 -5 -16 -10 -16 -6 0 -9 -3 -8 -7 3 -10 -60 -136 -71 -143 -4 -3 -16
-22 -26 -43 -10 -21 -58 -80 -107 -132 -72 -76 -104 -102 -162 -129 -162 -79
-326 -119 -479 -116 -40 1 -76 1 -82 0 -5 -2 -14 -1 -20 0 -5 1 -23 4 -40 6
-45 5 -56 8 -107 32 -26 12 -53 22 -61 22 -8 0 -20 7 -27 15 -7 8 -19 15 -26
15 -8 0 -14 3 -14 8 0 4 -17 18 -38 32 -20 13 -46 34 -57 46 -30 33 -118 144
-145 184 -13 19 -27 37 -31 40 -3 3 -12 23 -18 45 -7 22 -19 55 -28 73 -8 18
-16 43 -17 55 -2 12 -6 29 -9 37 -15 38 -27 103 -26 132 1 18 -3 65 -9 103 -7
39 -14 84 -16 100 -2 17 -5 30 -6 30 -1 0 -3 14 -5 31 -9 116 -216 339 -390
420 l-41 18 35 18 c20 10 39 18 43 18 4 0 17 8 28 18 11 9 36 26 54 37 82 49
163 104 229 158 39 31 77 57 84 57 7 0 23 10 36 23 45 41 79 67 88 67 5 0 9 4
9 9 0 6 18 20 40 32 22 13 40 26 40 31 0 4 5 8 11 8 7 0 48 22 93 48 77 46
160 88 236 120 19 8 43 18 52 23 46 23 137 49 178 50 25 1 59 5 75 9 17 4 37
6 45 4 8 -1 43 -6 78 -9z"/>
<path d="M4034 3450 c-65 -10 -154 -39 -174 -56 -9 -7 -22 -41 -29 -75 -10
-52 -10 -64 3 -84 12 -18 14 -45 10 -131 -2 -60 -7 -134 -11 -164 -6 -59 -10
-170 -13 -420 -5 -276 21 -314 240 -359 47 -9 212 22 255 49 34 21 72 68 67
84 -2 4 1 13 6 20 20 25 67 216 82 331 14 111 31 195 45 230 7 17 15 53 18 80
3 28 12 70 20 95 30 89 49 201 45 252 -4 42 -11 56 -34 75 -16 13 -41 22 -59
21 -16 0 -43 5 -58 11 -16 6 -45 11 -65 11 -20 0 -55 5 -77 11 -22 6 -62 12
-90 13 -27 2 -68 5 -90 8 -22 4 -63 3 -91 -2z m270 -61 c65 -11 137 -27 160
-35 22 -9 51 -18 64 -21 31 -7 38 -28 22 -61 -8 -15 -13 -31 -11 -36 3 -14
-32 -48 -65 -62 -35 -15 -272 -21 -334 -10 -19 4 -55 8 -80 10 -44 4 -139 40
-141 54 0 4 -2 20 -3 36 -1 16 -7 31 -13 33 -25 9 11 59 57 80 74 35 182 39
344 12z m-351 -234 c19 -8 50 -17 68 -20 19 -3 42 -8 52 -11 19 -6 156 -16
192 -14 11 1 58 2 105 4 47 1 100 6 118 10 39 9 40 2 12 -99 -11 -38 -20 -74
-20 -80 0 -5 -5 -4 -12 3 -18 18 -49 14 -55 -7 -3 -11 -21 -27 -41 -36 -21 -9
-49 -23 -64 -31 -14 -7 -36 -14 -49 -14 -12 0 -38 -5 -56 -12 -62 -22 -225 13
-271 58 -7 8 -22 14 -33 14 -16 0 -18 5 -13 28 6 25 13 116 14 190 0 36 4 38
53 17z m517 -280 c0 -2 -7 -25 -15 -50 -9 -25 -14 -49 -11 -53 3 -5 -1 -20 -8
-33 -7 -14 -16 -45 -19 -70 -3 -24 -8 -55 -11 -69 -2 -14 -7 -38 -9 -55 -6
-38 -17 -86 -24 -105 -4 -8 -8 -26 -10 -40 -11 -68 -27 -104 -64 -141 -21 -21
-48 -39 -60 -39 -11 0 -30 -5 -41 -11 -31 -16 -115 -13 -182 6 -81 24 -130 74
-146 150 -13 65 -7 455 9 482 8 15 12 15 42 1 70 -32 115 -41 218 -41 123 -1
186 13 281 64 17 9 50 12 50 4z"/>
<path d="M1381 3323 c-6 -7 -27 -13 -46 -13 -18 0 -35 -3 -37 -8 -1 -4 -41
-22 -87 -40 -46 -18 -95 -41 -109 -52 -13 -11 -29 -20 -34 -20 -9 0 -164 -136
-194 -170 -8 -8 -38 -41 -67 -72 -62 -65 -120 -141 -163 -213 -62 -101 -154
-303 -186 -407 -31 -101 -34 -107 -56 -101 -45 11 -87 10 -121 -4 -19 -7 -41
-11 -47 -9 -13 5 -94 -80 -119 -124 -57 -103 -62 -144 -30 -245 10 -33 17 -62
16 -64 -2 -2 1 -7 6 -10 4 -3 21 -31 36 -61 49 -96 130 -208 153 -209 9 -1 19
-25 40 -99 2 -7 8 -11 13 -8 5 3 11 -9 14 -27 23 -128 40 -193 67 -249 16 -36
30 -69 30 -75 0 -5 14 -30 30 -56 17 -26 30 -52 30 -58 0 -5 10 -20 23 -32 13
-12 47 -55 75 -95 58 -80 75 -101 111 -135 13 -12 53 -50 89 -84 36 -35 122
-100 191 -146 133 -88 158 -102 206 -112 17 -3 59 -18 95 -33 59 -24 76 -26
195 -26 105 1 149 6 230 26 55 14 123 29 150 33 28 4 55 11 60 15 6 5 35 18
65 29 30 11 82 43 115 71 33 27 65 50 72 50 15 0 50 34 88 85 16 22 63 80 103
129 41 50 81 105 88 122 8 18 18 35 23 38 5 4 15 23 22 44 6 20 27 69 45 107
18 39 47 112 65 164 23 65 38 95 51 99 10 2 18 10 18 17 0 7 12 23 26 36 65
59 157 158 181 195 15 22 63 107 105 184 17 30 34 60 38 65 20 26 31 126 20
182 -18 89 -19 92 -69 140 l-46 45 -58 -6 c-36 -4 -68 -14 -84 -26 -32 -25
-37 -21 -35 27 1 21 -7 74 -17 118 -10 44 -22 98 -26 120 -9 54 -41 148 -71
213 -13 29 -24 57 -24 62 0 5 -16 37 -36 72 -66 114 -254 282 -415 372 -19 10
-42 26 -52 34 -10 9 -24 17 -31 18 -12 2 -78 34 -171 83 -61 32 -132 61 -150
61 -9 0 -32 7 -53 16 -25 11 -75 17 -157 19 -66 1 -122 4 -125 5 -15 9 -58 4
-69 -7z m389 -143 c41 -12 80 -26 87 -32 21 -17 84 -47 115 -53 17 -4 41 -16
53 -27 13 -11 26 -19 30 -18 4 1 11 -2 14 -7 3 -4 15 -13 26 -19 27 -14 84
-44 120 -62 17 -9 39 -25 51 -36 11 -12 38 -34 59 -51 21 -16 46 -38 54 -47 9
-10 35 -37 58 -60 24 -24 43 -48 43 -55 0 -6 4 -13 9 -15 5 -1 11 -12 13 -23
1 -11 11 -29 20 -39 10 -10 15 -22 13 -26 -3 -5 2 -10 10 -14 8 -3 15 -12 15
-21 0 -9 8 -30 17 -48 18 -34 44 -121 68 -222 7 -33 16 -71 20 -85 14 -51 20
-278 10 -345 -2 -16 -7 -55 -10 -85 -3 -30 -7 -62 -10 -70 -8 -26 -18 -84 -21
-120 -4 -39 -9 -67 -16 -90 -3 -8 -12 -49 -20 -90 -14 -64 -68 -231 -97 -295
-5 -11 -28 -63 -52 -115 -46 -104 -104 -206 -131 -230 -9 -8 -43 -47 -76 -87
-32 -39 -83 -91 -113 -115 -119 -95 -141 -110 -146 -104 -3 3 -11 2 -17 -3
-10 -9 -96 -35 -196 -62 -111 -29 -299 -42 -370 -26 -135 32 -171 43 -215 70
-28 18 -60 37 -71 44 -10 7 -44 26 -74 44 -30 17 -89 65 -130 105 -41 40 -84
82 -96 91 -12 10 -45 47 -74 83 -30 36 -59 68 -64 72 -6 4 -7 8 -3 8 5 0 -11
26 -35 57 -60 79 -124 214 -143 298 -25 115 -31 139 -44 163 -7 13 -8 22 -2
22 7 0 9 31 5 83 -13 218 0 399 36 513 11 34 22 88 26 120 3 33 12 77 19 99 7
22 18 58 25 80 13 41 73 178 90 205 5 8 29 52 52 98 24 45 55 97 70 115 16 18
28 36 28 40 0 19 286 289 338 320 74 43 135 67 172 67 17 0 30 4 30 9 0 15 60
19 215 16 107 -2 158 -8 215 -25z m-1404 -1055 c8 -8 22 -18 30 -23 14 -8 14
-16 -4 -78 -25 -87 -42 -221 -44 -342 -1 -84 -3 -91 -17 -78 -9 8 -25 32 -36
53 -11 21 -25 42 -32 46 -15 9 -53 84 -53 104 0 8 -8 30 -19 51 -23 45 -21
123 2 169 9 17 32 48 51 69 28 31 39 36 65 32 17 -2 31 -1 31 4 0 12 10 10 26
-7z m2558 -108 c26 -26 32 -41 41 -101 6 -40 -16 -127 -40 -156 -6 -8 -26 -44
-44 -80 -36 -75 -48 -95 -76 -124 -11 -11 -35 -39 -53 -61 l-34 -40 6 30 c17
89 56 384 56 429 0 23 4 46 8 52 6 10 101 74 109 74 2 0 14 -11 27 -23z"/>
<path d="M2012 2488 c-34 -5 -62 -17 -80 -33 -15 -14 -30 -25 -33 -25 -10 0
-82 -70 -72 -70 4 0 3 -4 -3 -8 -22 -14 -44 -72 -56 -144 -15 -88 -14 -291 1
-296 6 -2 11 -9 11 -15 1 -7 20 -31 43 -55 35 -35 54 -45 107 -58 48 -11 71
-12 88 -4 13 5 32 10 43 10 11 0 22 7 25 15 4 8 11 15 18 15 34 0 100 92 132
185 27 80 24 331 -5 374 -9 15 -23 38 -30 53 -8 15 -22 30 -33 34 -10 3 -18 9
-18 13 0 4 -16 8 -37 9 -20 2 -39 4 -42 6 -3 1 -30 -1 -59 -6z m123 -132 c17
-16 24 -58 29 -163 3 -47 0 -85 -5 -89 -5 -3 -7 -15 -4 -25 10 -31 -32 -110
-83 -157 -46 -41 -49 -42 -97 -36 -96 12 -128 69 -120 214 6 113 24 181 51
190 18 7 21 4 21 -19 0 -15 10 -39 23 -54 19 -21 32 -27 66 -27 35 0 47 5 68
31 31 36 40 66 34 114 -4 39 -3 41 17 21z"/>
<path d="M1158 2451 c-45 -23 -55 -32 -99 -96 -52 -76 -63 -104 -65 -175 -2
-36 -5 -103 -7 -148 -3 -46 0 -98 6 -115 5 -18 12 -39 15 -47 3 -8 7 -24 9
-34 16 -84 174 -97 260 -22 60 53 114 185 150 370 6 29 -14 163 -27 181 -4 6
-10 22 -14 37 -15 63 -144 90 -228 49z m150 -106 c-3 -3 -9 2 -12 12 -6 14 -5
15 5 6 7 -7 10 -15 7 -18z m21 -80 c7 -31 10 -68 7 -83 -4 -15 -8 -38 -11 -51
-2 -13 -12 -49 -21 -80 -22 -70 -21 -68 -23 -87 -1 -22 -68 -83 -108 -100 -98
-42 -140 102 -92 310 12 50 28 100 36 111 13 18 13 15 8 -27 -6 -42 -4 -50 19
-73 29 -29 46 -31 84 -11 51 26 75 62 74 106 -3 58 13 49 27 -15z"/>
<path d="M1547 1450 c-42 -37 -95 -41 -115 -9 -10 15 -21 19 -50 17 -38 -3
-41 -10 -33 -71 1 -4 21 -20 46 -36 44 -28 45 -28 110 -16 43 8 74 20 86 34
11 12 24 19 28 16 16 -9 20 50 5 73 -19 30 -37 28 -77 -8z"/>
<path d="M1980 1169 c-8 -12 -22 -29 -30 -38 -8 -9 -19 -26 -25 -38 -13 -28
-100 -93 -125 -93 -11 0 -20 -4 -20 -10 0 -5 -7 -10 -15 -10 -8 0 -36 -7 -62
-16 -26 -9 -52 -18 -58 -19 -5 -1 -17 -5 -25 -8 -54 -22 -204 -28 -300 -11
-52 9 -172 69 -215 108 -23 22 -43 32 -54 29 -56 -20 -57 -68 -1 -113 55 -45
128 -90 146 -90 8 0 25 -7 38 -15 13 -9 28 -15 32 -14 5 2 36 -1 69 -6 95 -14
295 -2 330 19 11 7 34 16 50 20 30 7 166 66 175 76 3 3 16 11 30 18 14 7 32
26 42 41 9 16 31 36 49 45 48 23 72 60 64 96 -7 34 -9 35 -50 44 -24 5 -33 2
-45 -15z"/>
</g>
</svg>
