<?xml version="1.0" standalone="no"?>
<!DOCTYPE svg PUBLIC "-//W3C//DTD SVG 20010904//EN"
 "http://www.w3.org/TR/2001/REC-SVG-20010904/DTD/svg10.dtd">
<svg version="1.0" xmlns="http://www.w3.org/2000/svg"
 width="395.000000pt" height="385.000000pt" viewBox="0 0 395.000000 385.000000"
 preserveAspectRatio="xMidYMid meet">
<metadata>
Created by potrace 1.16, written by Peter Selinger 2001-2019
</metadata>
<g transform="translate(0.000000,385.000000) scale(0.100000,-0.100000)"
fill="#000000" stroke="none">
<path d="M1952 3819 c-9 -4 -29 -5 -43 -2 -15 3 -51 0 -80 -7 -68 -15 -77 -16
-174 -30 -108 -16 -289 -78 -364 -126 -34 -21 -85 -54 -114 -72 -29 -18 -59
-44 -67 -56 -21 -33 -117 -168 -132 -186 -36 -41 -137 -216 -157 -270 -5 -14
-9 -28 -10 -32 -1 -4 -10 -28 -21 -54 -11 -25 -20 -53 -20 -62 0 -8 -8 -34
-18 -56 -26 -58 -52 -172 -52 -231 0 -27 -5 -68 -10 -90 -5 -22 -10 -82 -11
-132 -3 -92 -3 -93 -28 -93 -39 0 -133 -42 -156 -69 -11 -13 -39 -60 -62 -104
-34 -63 -40 -83 -32 -99 6 -10 13 -40 16 -65 6 -47 26 -99 68 -168 13 -22 29
-52 36 -67 6 -16 14 -28 19 -28 7 0 31 -49 33 -67 0 -4 6 -14 13 -20 7 -7 23
-56 35 -109 18 -77 28 -102 53 -127 39 -40 67 -61 89 -70 18 -7 61 -91 72
-142 12 -51 61 -189 90 -250 20 -41 35 -78 35 -81 -1 -4 2 -10 7 -13 5 -3 17
-28 28 -56 10 -27 31 -66 47 -86 15 -20 28 -40 28 -43 0 -6 18 -28 87 -107 23
-26 45 -54 50 -61 4 -7 35 -36 67 -63 77 -64 91 -76 151 -130 28 -25 55 -45
61 -45 6 0 19 -9 30 -21 34 -38 101 -70 156 -75 29 -3 59 -10 66 -16 38 -32
509 3 584 43 10 5 23 9 30 9 7 0 36 11 63 25 28 13 55 25 61 25 16 0 99 47
155 87 25 18 55 36 67 40 21 8 106 79 174 146 21 20 42 37 46 37 10 0 78 73
162 175 36 44 74 88 85 99 11 12 26 32 33 46 6 14 28 52 47 85 19 33 47 87 64
120 16 33 38 71 48 85 25 33 89 166 112 232 13 39 23 54 39 56 23 3 153 127
144 137 -3 3 0 5 7 5 7 0 11 8 9 17 -2 10 7 28 19 41 12 13 22 31 22 40 3 104
37 282 70 370 44 114 52 153 42 190 -6 18 -10 35 -10 37 0 3 -13 30 -28 61
-38 78 -79 108 -146 106 -29 0 -59 -2 -67 -4 -11 -2 -16 8 -17 42 -2 40 -15
138 -27 195 -2 11 -7 38 -11 60 -9 50 -33 126 -45 140 -11 13 -78 129 -101
175 -27 54 -234 258 -298 294 -9 5 -19 13 -22 19 -7 9 -19 17 -88 55 -23 12
-65 45 -94 72 -28 27 -72 59 -96 71 -24 11 -50 27 -58 35 -8 8 -20 14 -28 14
-7 0 -15 3 -17 8 -3 7 -43 23 -178 71 -41 14 -78 29 -81 34 -5 7 -55 24 -97
33 -13 3 -43 12 -65 20 -23 9 -53 15 -67 15 -13 -1 -38 3 -55 9 -36 12 -149
18 -173 9z m173 -114 c17 -4 35 -8 40 -10 6 -1 12 -3 15 -3 3 -1 22 -8 42 -16
21 -9 46 -16 56 -16 11 0 41 -10 68 -22 27 -12 56 -23 64 -24 8 -2 23 -7 35
-12 11 -5 53 -22 93 -38 40 -15 75 -31 78 -36 3 -4 25 -16 49 -27 45 -20 138
-91 163 -123 7 -10 19 -18 27 -18 23 0 86 -42 142 -93 29 -27 66 -59 82 -72
107 -78 204 -196 278 -335 42 -80 52 -109 63 -187 7 -50 10 -99 7 -107 -4 -9
-2 -16 4 -16 6 0 8 -3 6 -7 -3 -5 2 -44 10 -88 8 -44 15 -86 15 -94 2 -27 41
-61 70 -61 15 0 28 4 28 10 0 5 17 17 37 25 31 13 42 14 61 3 30 -16 40 -36
53 -102 9 -51 8 -57 -27 -126 -45 -90 -71 -219 -74 -362 0 -16 -9 -37 -20 -48
-11 -11 -19 -23 -19 -28 5 -32 -34 -63 -54 -43 -20 20 -44 11 -71 -27 -14 -21
-26 -44 -26 -51 0 -7 -11 -37 -25 -67 -14 -30 -25 -57 -25 -61 0 -15 -73 -153
-81 -153 -5 0 -9 -6 -9 -14 0 -8 -16 -43 -36 -78 -65 -113 -78 -136 -117 -203
-21 -36 -42 -65 -47 -65 -6 0 -10 -6 -10 -12 0 -15 -38 -61 -128 -156 -129
-135 -177 -182 -194 -188 -10 -3 -18 -9 -18 -14 0 -5 -17 -18 -37 -29 -21 -11
-49 -30 -63 -43 -27 -25 -127 -89 -145 -92 -5 -1 -25 -10 -43 -20 -18 -9 -68
-29 -110 -43 -42 -14 -80 -30 -83 -35 -3 -5 -30 -11 -60 -14 -215 -18 -400
-25 -414 -15 -5 4 -25 8 -43 9 -86 6 -236 112 -441 313 -47 46 -134 148 -154
181 -27 44 -67 121 -67 131 0 4 -22 54 -50 112 -27 58 -50 110 -50 116 0 6
-11 43 -24 82 -12 40 -29 93 -36 120 -14 53 -53 96 -109 122 -45 20 -74 75
-91 169 -9 53 -62 162 -105 216 -6 8 -18 31 -25 50 -7 19 -21 46 -30 60 -16
23 -23 45 -37 111 -3 16 3 40 15 63 21 40 67 95 80 97 28 5 62 4 62 -3 0 -4
12 -14 26 -21 32 -17 72 -3 79 28 2 11 6 81 8 156 3 75 7 141 10 145 3 5 8 43
12 84 12 139 25 212 50 287 22 65 78 195 105 245 6 10 10 24 10 33 0 8 9 19
21 25 11 7 18 14 15 17 -5 5 61 99 92 132 8 8 24 30 36 50 25 39 133 151 146
151 5 0 21 11 37 24 16 14 57 34 90 45 34 11 85 30 113 41 47 19 107 35 170
46 14 3 60 7 102 10 43 2 88 8 100 13 25 9 186 7 233 -4z"/>
<path d="M2568 2670 c-23 -14 -23 -65 0 -87 12 -13 32 -18 65 -17 45 1 96 -11
124 -29 6 -4 18 -4 27 -1 9 3 16 2 16 -4 0 -5 11 -13 25 -16 14 -4 25 -11 25
-17 0 -6 4 -7 10 -4 5 3 19 0 30 -8 22 -15 64 -12 79 7 13 16 16 47 8 79 -6
22 -13 27 -37 27 -16 0 -32 5 -35 10 -3 6 -16 10 -29 10 -12 0 -27 5 -34 12
-6 6 -17 13 -24 15 -7 1 -33 8 -58 14 -64 16 -172 21 -192 9z"/>
<path d="M1689 2666 c-4 -4 -21 -7 -134 -22 -27 -4 -57 -8 -65 -9 -27 -5 -100
-38 -100 -46 0 -5 -7 -6 -15 -3 -8 4 -15 1 -15 -5 0 -6 -9 -11 -20 -11 -12 0
-32 -11 -46 -25 -19 -19 -23 -30 -18 -52 12 -45 30 -52 84 -32 25 10 62 27 81
38 40 23 130 41 208 41 80 0 106 16 106 64 0 31 -5 41 -27 52 -29 15 -33 16
-39 10z"/>
<path d="M1700 2439 c0 -5 -6 -6 -14 -3 -8 3 -41 0 -73 -7 -32 -7 -61 -12 -65
-11 -5 1 -8 -2 -8 -6 0 -5 -19 -14 -42 -21 -62 -17 -128 -51 -169 -86 -20 -16
-50 -38 -67 -47 -63 -34 -28 -124 43 -110 13 2 45 26 72 53 26 27 54 49 62 49
8 0 22 6 30 14 9 7 31 16 49 19 31 6 32 5 27 -21 -2 -15 4 -44 16 -68 15 -33
30 -46 69 -63 27 -12 58 -21 70 -21 42 0 165 102 176 146 3 13 17 30 30 39 19
12 24 23 21 43 -7 48 -18 62 -47 62 -16 0 -32 5 -35 10 -4 6 -11 8 -16 4 -5
-3 -16 -1 -23 5 -17 14 -106 31 -106 20z"/>
<path d="M2382 2415 c-30 -7 -54 -15 -55 -17 -1 -1 -8 -13 -15 -26 -9 -17 -10
-27 -3 -36 6 -7 9 -15 6 -18 -3 -3 8 -15 25 -28 21 -16 30 -32 30 -52 0 -66
46 -111 127 -124 52 -8 87 21 131 111 27 52 37 65 50 60 9 -4 34 -11 55 -16
45 -11 134 -56 145 -74 4 -6 19 -20 35 -30 15 -9 27 -22 27 -29 0 -21 68 -59
95 -52 29 7 43 47 29 81 -12 30 -138 140 -183 161 -20 8 -56 25 -81 37 -65 30
-82 36 -110 41 -14 2 -43 9 -65 14 -53 14 -177 12 -243 -3z"/>
<path d="M2779 1943 c-10 -2 -20 -23 -27 -53 -20 -87 -39 -122 -61 -115 -26 8
-39 -15 -18 -30 10 -7 17 -17 17 -23 0 -16 -44 -122 -50 -122 -3 0 -15 16 -27
35 -15 23 -28 32 -38 29 -25 -10 -17 -39 21 -79 25 -27 32 -41 25 -48 -6 -6
-11 -20 -11 -31 1 -20 1 -20 14 2 l12 23 37 -44 36 -44 -24 -47 c-13 -26 -26
-47 -30 -47 -15 0 -73 85 -67 99 3 10 1 13 -6 8 -8 -4 -20 6 -33 28 -23 39
-49 48 -49 16 0 -11 4 -20 8 -20 5 0 17 -18 27 -40 10 -21 21 -38 24 -37 11 3
81 -80 81 -96 0 -9 -13 -39 -30 -66 -30 -52 -56 -129 -46 -139 3 -3 6 1 6 9 0
23 78 179 90 179 5 0 10 -5 10 -11 0 -6 14 -31 31 -56 30 -43 31 -48 20 -80
-16 -44 -8 -54 9 -12 l13 31 34 -67 c24 -49 30 -71 23 -84 -18 -35 -38 -101
-31 -106 4 -2 15 20 25 50 9 30 20 55 24 55 4 0 20 -28 35 -61 15 -34 30 -59
32 -57 3 2 -9 31 -25 64 -16 32 -30 65 -30 72 0 21 52 122 63 122 6 0 8 3 4 6
-3 3 11 38 30 76 30 57 39 67 47 55 6 -8 17 -24 24 -34 7 -10 4 0 -6 21 l-19
39 26 51 c15 28 36 66 48 85 l21 33 16 -26 c51 -84 50 -70 12 -149 -20 -39
-65 -126 -101 -191 -36 -66 -63 -121 -61 -123 2 -2 28 35 57 84 29 48 55 90
58 93 3 3 15 23 26 45 11 22 31 59 44 81 l25 42 18 -22 c19 -21 19 -21 5 9
-14 28 -13 33 20 97 23 45 33 78 31 98 -4 35 -5 35 -36 26 -12 -4 -20 -12 -16
-17 9 -15 -5 -94 -20 -115 -13 -17 -16 -14 -41 41 -16 37 -24 69 -20 83 12 48
-26 88 -42 46 -5 -14 -9 -13 -23 7 -14 18 -17 35 -13 81 5 49 3 58 -10 58 -9
0 -22 -10 -28 -22 -11 -21 -12 -21 -40 13 -16 19 -29 44 -29 56 0 13 -8 24
-21 28 -27 9 -31 4 -34 -42 -1 -21 -10 -56 -20 -78 l-17 -39 -15 29 c-9 17
-25 40 -36 52 -17 19 -18 27 -10 45 53 110 63 134 63 149 0 21 -9 27 -31 22z
m-21 -275 c38 -49 37 -56 -12 -147 -29 -54 -35 -61 -41 -42 -3 11 -12 27 -18
33 -34 35 -34 60 -3 130 16 37 33 68 36 68 3 0 20 -19 38 -42z m184 -22 c11
-20 7 -30 -89 -235 -50 -105 -50 -105 -98 -14 l-28 52 29 48 c16 26 32 56 36
66 11 26 26 21 42 -15 8 -18 21 -42 30 -53 17 -20 17 -19 10 5 -3 14 -12 34
-18 45 -29 47 -26 86 11 123 7 7 13 21 13 29 0 13 6 11 26 -8 14 -13 30 -33
36 -43z m79 -98 c8 -14 4 -39 -16 -96 -34 -103 -40 -112 -58 -88 -8 11 -20 35
-26 53 -11 29 -10 39 10 81 39 80 50 94 66 80 8 -6 19 -20 24 -30z m-111 -134
c0 -8 10 -32 21 -52 l22 -38 -67 -134 c-37 -74 -69 -136 -71 -138 -5 -5 -55
108 -55 124 0 20 41 94 51 94 4 0 19 -19 33 -42 34 -56 33 -39 0 21 l-26 46
39 67 c38 67 53 82 53 52z m-180 -3 c0 -5 15 -31 33 -59 l34 -49 -27 -59 -26
-58 -38 68 -39 69 24 48 c22 45 39 62 39 40z"/>
<path d="M2990 1797 c0 -8 22 -40 50 -71 27 -31 64 -84 82 -116 32 -58 61 -87
33 -32 -8 15 -29 59 -47 97 -18 39 -38 74 -45 78 -7 4 -13 13 -13 18 0 16 -27
39 -44 39 -9 0 -16 -6 -16 -13z"/>
<path d="M1279 1768 c-19 -18 -43 -54 -53 -80 -10 -27 -22 -48 -27 -48 -5 0
-19 16 -30 35 -21 35 -39 46 -39 23 0 -19 41 -98 51 -98 9 0 0 -32 -12 -40 -4
-3 -24 -42 -46 -88 l-39 -83 -57 80 c-31 44 -57 86 -57 95 0 20 -19 31 -32 18
-11 -11 20 -80 47 -102 30 -25 85 -119 79 -135 -4 -10 -2 -15 6 -13 8 2 18 -7
25 -18 6 -12 16 -29 23 -37 10 -12 7 -26 -19 -77 -17 -34 -29 -63 -27 -66 3
-2 15 19 28 46 13 28 26 50 30 50 10 0 34 -29 56 -68 19 -33 19 -33 -4 -72
-12 -21 -22 -45 -22 -52 1 -7 10 4 20 24 11 20 24 39 28 42 5 3 23 -26 41 -63
31 -64 33 -70 20 -104 -7 -21 -17 -37 -21 -37 -4 0 -8 -7 -8 -15 0 -9 -6 -26
-14 -38 -7 -12 -16 -35 -20 -52 -5 -29 -5 -29 5 -5 23 54 45 96 65 127 l22 33
13 -23 c8 -12 28 -49 44 -82 38 -76 57 -98 49 -57 -4 22 12 69 67 198 40 93
75 171 79 174 4 3 10 15 14 27 4 13 13 29 21 36 7 7 27 38 44 69 28 50 30 57
15 69 -24 20 -44 1 -63 -61 -10 -30 -37 -95 -60 -145 -24 -49 -50 -111 -58
-137 -7 -27 -17 -48 -22 -48 -8 0 -71 95 -71 108 0 4 14 35 32 70 33 62 33 63
51 41 19 -24 22 -18 6 13 -13 23 -5 60 16 82 9 8 22 29 29 47 l13 32 19 -32
c10 -17 22 -31 26 -31 5 0 -4 19 -18 42 l-26 42 22 50 c32 73 34 87 19 96 -22
14 -41 -5 -45 -45 -6 -68 -22 -64 -63 12 -10 19 -8 26 10 44 24 24 60 99 53
111 -3 4 -13 8 -23 8 -13 0 -21 -10 -25 -32 -3 -18 -14 -46 -24 -61 l-19 -28
-27 42 c-26 38 -26 42 -11 59 9 10 17 30 18 46 2 23 -2 29 -18 29 -11 0 -25
-10 -31 -23 l-11 -23 -17 26 c-16 25 -16 28 3 59 34 55 4 63 -50 14z m21 -188
c-13 -27 -26 -50 -30 -50 -9 0 -52 60 -48 68 2 4 14 24 27 45 l24 39 25 -26
26 -25 -24 -51z m110 -67 c0 -7 -13 -38 -29 -69 l-30 -55 -15 26 c-9 14 -23
37 -32 52 -16 25 -15 29 12 78 l28 52 33 -35 c18 -19 33 -41 33 -49z m-178 23
l26 -33 -24 -52 c-26 -54 -39 -63 -49 -32 -3 10 -14 26 -24 35 -18 16 -18 18
7 66 14 28 28 50 31 50 3 0 18 -15 33 -34z m226 -83 c18 -19 26 -39 26 -63 -1
-35 -40 -130 -54 -130 -4 0 -21 26 -39 59 l-31 58 30 38 c17 21 30 44 30 51 0
21 10 17 38 -13z m-132 -58 c16 -30 16 -32 -16 -78 -17 -26 -38 -47 -46 -47
-8 0 -13 4 -10 8 3 5 -6 30 -20 55 -24 45 -24 48 -7 74 9 16 24 36 32 46 14
17 16 17 33 -5 9 -13 25 -37 34 -53z m-164 -24 c17 -20 16 -22 -4 -57 l-21
-36 -24 46 c-19 36 -21 51 -13 66 12 23 32 16 62 -19z m209 -43 c11 -11 19
-27 19 -33 0 -7 7 -18 15 -25 22 -18 19 -40 -16 -104 l-31 -58 -19 29 c-10 15
-24 40 -30 55 -6 16 -15 28 -20 28 -5 0 -9 4 -9 9 0 10 63 120 69 121 2 0 12
-10 22 -22z m-148 -50 c15 -20 27 -41 27 -47 0 -15 -33 -81 -40 -81 -3 0 -18
25 -33 55 -26 54 -26 56 -10 90 9 19 20 32 23 28 3 -5 18 -25 33 -45z m106
-163 c15 -32 17 -43 7 -55 -7 -8 -18 -28 -25 -45 l-13 -29 -39 71 -40 72 22
43 22 42 23 -29 c13 -17 33 -48 43 -70z m67 -111 c14 -24 30 -44 35 -44 10 0
-33 -121 -44 -123 -5 -1 -24 28 -44 65 l-37 67 24 45 c13 24 28 42 32 40 4 -3
19 -25 34 -50z"/>
<path d="M1960 1578 c-19 -10 -45 -16 -58 -14 -30 5 -74 -38 -70 -68 4 -26 76
-65 87 -47 8 12 98 32 149 33 20 0 43 -8 55 -20 38 -33 57 -35 83 -7 13 14 24
34 24 44 0 40 -72 86 -140 89 -19 1 -48 3 -65 5 -16 2 -46 -5 -65 -15z"/>
<path d="M1036 1305 c-9 -26 -7 -32 5 -12 6 10 9 21 6 23 -2 3 -7 -2 -11 -11z"/>
<path d="M2440 968 c0 -5 -8 -11 -17 -15 -10 -3 -31 -16 -48 -28 -60 -43 -127
-58 -160 -36 -17 10 -135 27 -135 19 0 -4 -10 -8 -23 -8 -14 0 -32 -11 -44
-27 -32 -44 -143 -67 -143 -31 0 5 -5 6 -11 3 -5 -4 -18 0 -28 9 -20 18 -55
21 -128 12 -42 -5 -53 -4 -53 7 0 7 -11 24 -24 36 l-25 23 -23 -25 c-37 -40
-48 -56 -47 -64 1 -4 -1 -17 -5 -28 -5 -11 -14 -38 -22 -59 -20 -53 -11 -92
24 -99 43 -9 75 20 96 86 3 10 14 17 23 16 10 -1 29 3 43 8 39 16 84 9 137
-22 45 -27 50 -28 110 -18 48 9 72 19 104 47 35 29 50 35 83 34 23 0 46 -4 51
-9 6 -4 30 -12 54 -18 47 -10 102 4 176 45 74 41 79 38 77 -37 -2 -65 -1 -67
26 -75 43 -12 46 -11 69 9 19 17 21 28 19 86 -4 80 -15 108 -54 140 -29 23
-102 37 -102 19z"/>
</g>
</svg>
