<?xml version="1.0" standalone="no"?>
<!DOCTYPE svg PUBLIC "-//W3C//DTD SVG 20010904//EN"
 "http://www.w3.org/TR/2001/REC-SVG-20010904/DTD/svg10.dtd">
<svg version="1.0" xmlns="http://www.w3.org/2000/svg"
 width="373.000000pt" height="349.000000pt" viewBox="0 0 373.000000 349.000000"
 preserveAspectRatio="xMidYMid meet">
<metadata>
Created by potrace 1.16, written by Peter Selinger 2001-2019
</metadata>
<g transform="translate(0.000000,349.000000) scale(0.100000,-0.100000)"
fill="#000000" stroke="none">
<path d="M1765 3279 c-47 -8 -163 -26 -212 -33 -11 -1 -33 -10 -47 -19 -14 -9
-30 -17 -35 -17 -6 0 -26 -10 -45 -22 -92 -60 -125 -78 -137 -78 -8 0 -49 -36
-93 -80 -43 -44 -82 -80 -87 -80 -10 0 -49 -37 -49 -46 0 -3 -32 -36 -70 -72
-76 -69 -141 -156 -180 -237 -13 -27 -34 -68 -48 -89 -25 -40 -74 -164 -118
-298 -25 -76 -39 -93 -50 -64 -8 21 -62 44 -129 54 -79 13 -127 -5 -178 -67
-55 -67 -83 -180 -58 -229 5 -9 16 -49 24 -88 9 -39 34 -109 56 -157 23 -47
41 -89 41 -92 0 -4 7 -23 16 -43 9 -21 20 -46 24 -57 5 -11 20 -46 34 -77 14
-31 26 -64 26 -72 0 -9 4 -16 10 -16 5 0 17 -16 26 -35 9 -19 23 -35 30 -35 8
0 14 -4 14 -9 0 -5 10 -11 23 -15 18 -4 26 -18 41 -78 10 -40 38 -115 62 -166
25 -51 47 -106 51 -123 3 -16 9 -29 14 -29 5 0 9 -4 9 -10 0 -5 19 -40 43 -77
23 -37 49 -80 56 -94 15 -30 199 -214 272 -273 26 -20 56 -38 67 -41 11 -2 46
-17 78 -33 75 -38 234 -97 299 -111 28 -6 82 -13 120 -16 39 -3 88 -6 109 -8
21 -2 73 3 115 10 42 8 93 16 114 18 70 7 152 27 175 42 13 8 34 16 46 17 12
1 26 5 31 8 6 3 28 11 50 18 47 14 157 70 167 85 4 6 8 6 8 2 0 -4 6 -3 13 3
6 6 26 19 44 28 28 15 129 102 217 187 40 39 144 155 139 155 -3 0 4 12 15 27
21 30 72 135 72 148 0 5 6 16 13 24 7 9 21 43 31 76 10 33 22 68 27 77 5 10 9
27 9 38 0 11 5 20 10 20 6 0 10 7 10 16 0 8 13 34 28 57 16 23 52 87 82 142
29 55 63 114 76 130 12 17 32 53 45 80 12 28 34 68 49 90 39 58 72 138 86 205
4 19 10 42 12 50 9 35 -2 140 -19 173 -50 94 -148 109 -275 42 -26 -14 -49
-23 -51 -21 -2 2 -17 70 -32 152 -35 182 -47 227 -70 279 -67 148 -98 211
-111 226 -8 10 -28 34 -45 54 -16 21 -51 58 -77 84 -26 25 -48 50 -48 54 0 11
-59 67 -71 67 -5 0 -19 9 -31 20 -11 10 -36 26 -55 35 -18 9 -39 24 -45 34 -7
11 -19 16 -30 13 -10 -2 -18 0 -18 6 0 15 -68 55 -84 49 -7 -3 -17 -2 -22 3
-13 13 -107 48 -219 81 -82 25 -122 31 -220 34 -66 2 -142 0 -170 -6z m347
-133 c59 -13 115 -29 125 -34 10 -5 54 -22 98 -37 44 -15 86 -35 95 -44 15
-16 95 -71 104 -71 20 0 103 -72 160 -139 38 -45 72 -81 76 -81 4 0 22 -30 41
-67 19 -38 37 -69 41 -71 5 -2 8 -8 8 -14 0 -6 14 -39 30 -74 43 -89 57 -133
65 -200 4 -33 13 -77 20 -99 11 -34 35 -160 51 -270 3 -16 10 -55 16 -85 21
-104 14 -371 -14 -475 -5 -22 -12 -57 -15 -78 -5 -48 -18 -81 -43 -117 -11
-15 -22 -49 -25 -76 -4 -26 -11 -57 -18 -68 -6 -12 -12 -29 -14 -38 -5 -29
-74 -168 -84 -168 -5 0 -9 -8 -9 -17 0 -10 -10 -30 -23 -44 -12 -15 -33 -41
-47 -60 -31 -41 -111 -120 -170 -167 -25 -20 -59 -49 -76 -65 -17 -15 -60 -43
-95 -61 -35 -18 -79 -42 -97 -53 -18 -11 -61 -26 -95 -33 -34 -7 -66 -17 -72
-21 -5 -5 -20 -9 -33 -9 -13 0 -31 -4 -41 -9 -9 -5 -55 -14 -101 -20 -47 -5
-101 -13 -120 -16 -19 -3 -91 -1 -160 6 -130 12 -307 59 -380 102 -19 11 -59
33 -89 50 -30 16 -71 41 -90 54 -43 29 -171 159 -171 173 0 5 -4 10 -10 10
-10 0 -68 87 -102 152 -11 21 -24 40 -28 43 -4 3 -23 42 -41 87 -18 46 -40 97
-50 113 -20 38 -51 159 -47 188 1 12 -2 28 -6 36 -10 16 -37 278 -31 301 2 8
6 56 10 107 8 126 14 185 24 235 29 143 51 238 60 259 5 13 17 49 26 79 17 56
73 184 100 230 8 14 30 54 47 90 45 89 299 350 340 350 21 0 29 6 34 25 3 14
12 25 19 25 7 0 15 6 18 13 5 13 138 87 157 87 7 0 25 11 41 24 26 22 141 55
244 70 72 10 244 -3 347 -28z m-1631 -1046 c20 -6 52 -27 73 -50 30 -33 36
-46 32 -68 -12 -54 -16 -76 -21 -136 -3 -34 -10 -86 -15 -116 -5 -30 -8 -117
-6 -193 2 -132 -6 -179 -20 -121 -4 15 -13 39 -20 53 -8 14 -14 33 -14 41 0 9
-8 27 -17 40 -10 14 -18 29 -18 35 -1 15 -22 62 -67 150 -22 44 -42 89 -44
100 -2 11 -8 43 -15 71 -16 73 8 157 54 184 37 23 48 24 98 10z m2854 -60 c22
-24 35 -173 16 -184 -6 -4 -11 -15 -11 -25 0 -19 -15 -50 -56 -116 -13 -22
-29 -51 -34 -65 -14 -33 -49 -98 -75 -137 l-22 -31 3 141 c1 78 -2 167 -7 197
-15 93 -18 150 -7 150 5 0 7 4 4 8 -5 8 37 32 114 66 46 20 53 20 75 -4z"/>
<path d="M2278 2465 c-3 -3 -23 -7 -46 -9 -25 -2 -68 -19 -118 -49 -44 -25
-88 -49 -99 -53 -11 -4 -38 -20 -59 -36 -40 -28 -80 -36 -91 -18 -12 20 -130
91 -167 101 -21 5 -99 8 -174 7 -136 -3 -136 -3 -156 -30 -24 -35 -21 -81 6
-86 20 -4 87 13 118 29 29 15 142 11 164 -6 10 -8 26 -15 34 -15 13 0 46 -24
102 -74 53 -47 126 -50 196 -8 86 53 117 71 132 78 8 4 23 17 33 28 16 17 29
21 82 19 62 -1 64 0 76 30 8 18 12 43 10 57 -4 30 -28 50 -43 35z"/>
<path d="M1505 2232 c-7 -7 -81 -24 -104 -23 -12 1 -35 -5 -50 -13 -26 -13
-57 -27 -96 -42 -11 -4 -22 -8 -25 -9 -3 -2 -15 -6 -27 -10 -13 -4 -23 -11
-23 -16 0 -5 -6 -9 -13 -9 -8 0 -34 -13 -58 -30 -37 -24 -45 -34 -43 -57 2
-40 2 -40 25 -46 16 -4 40 7 83 37 69 48 210 105 300 120 99 17 117 17 165 1
55 -18 86 -49 96 -97 9 -40 36 -88 57 -102 11 -7 28 -6 56 3 36 12 42 20 56
62 19 56 20 83 6 110 -16 29 -38 23 -59 -18 l-19 -38 -16 36 c-21 50 -112 128
-151 131 -32 2 -53 4 -70 8 -16 4 -86 5 -90 2z"/>
<path d="M2365 2220 c-3 -4 -21 -11 -40 -14 -20 -4 -53 -19 -75 -34 -38 -27
-100 -102 -100 -122 0 -10 -41 -30 -60 -30 -5 0 -15 12 -22 28 -29 59 -93 25
-78 -42 4 -19 10 -39 14 -45 10 -16 57 -37 81 -35 11 0 30 2 43 3 24 1 99 72
128 121 26 42 77 69 147 76 84 9 177 -3 177 -21 0 -8 14 -24 30 -37 17 -12 34
-36 38 -53 13 -47 58 -44 65 5 9 54 -60 170 -100 170 -7 0 -13 5 -13 10 0 6
-9 10 -21 10 -13 0 -18 -4 -13 -12 5 -9 2 -8 -9 1 -10 7 -36 15 -60 16 -23 2
-42 4 -42 5 0 6 -87 6 -90 0z"/>
<path d="M2275 1971 c-61 -21 -104 -76 -105 -133 0 -29 8 -45 43 -80 55 -57
87 -71 135 -58 35 9 49 20 102 78 24 27 27 96 5 147 -23 57 -97 75 -180 46z"/>
<path d="M1470 1974 c-8 -1 -36 -5 -61 -9 -25 -3 -55 -14 -65 -23 -10 -10 -27
-21 -36 -25 -14 -5 -18 -18 -18 -57 0 -57 10 -81 49 -123 46 -51 72 -58 143
-43 34 7 106 70 109 94 0 4 2 14 5 22 18 69 24 123 14 135 -15 19 -102 37
-140 29z"/>
<path d="M1693 1383 c-20 -7 -15 -57 6 -75 10 -9 23 -22 27 -30 12 -18 81 -47
119 -50 17 -1 58 6 92 16 61 19 91 48 84 86 -4 19 -33 41 -48 35 -6 -2 -14 1
-17 8 -3 9 -5 9 -5 0 -1 -7 -7 -13 -15 -13 -7 0 -19 -7 -26 -15 -19 -23 -58
-18 -125 15 -61 30 -70 32 -92 23z"/>
<path d="M1945 1078 c-27 -4 -51 -12 -53 -18 -2 -5 -14 -10 -26 -10 -12 0 -44
-14 -70 -30 -26 -17 -53 -32 -59 -33 -6 -1 -20 -13 -31 -26 -22 -26 -82 -55
-96 -46 -6 4 -10 1 -10 -4 0 -11 -94 -6 -113 6 -13 8 -56 14 -129 18 -31 1
-81 6 -112 9 -48 6 -58 5 -78 -13 -12 -12 -18 -21 -14 -21 5 0 3 -6 -3 -14
-39 -47 3 -127 82 -156 26 -10 47 -16 47 -12 0 3 8 -2 18 -11 10 -9 38 -17 62
-19 25 -2 48 -7 52 -13 11 -16 147 -10 213 9 33 10 72 20 88 23 15 3 27 9 27
13 0 4 11 12 24 18 22 10 143 98 156 113 21 24 259 50 300 32 22 -9 28 -10 98
-11 36 -1 61 -6 57 -11 -3 -5 -1 -12 4 -15 5 -4 11 1 13 11 2 12 15 16 53 17
48 1 50 3 68 40 18 37 18 41 1 78 -9 21 -20 38 -23 38 -3 0 -40 10 -81 21 -60
17 -108 21 -245 23 -93 1 -192 -2 -220 -6z"/>
</g>
</svg>
