<?xml version="1.0" standalone="no"?>
<!DOCTYPE svg PUBLIC "-//W3C//DTD SVG 20010904//EN"
 "http://www.w3.org/TR/2001/REC-SVG-20010904/DTD/svg10.dtd">
<svg version="1.0" xmlns="http://www.w3.org/2000/svg"
 width="363.000000pt" height="353.000000pt" viewBox="0 0 363.000000 353.000000"
 preserveAspectRatio="xMidYMid meet">
<metadata>
Created by potrace 1.16, written by Peter Selinger 2001-2019
</metadata>
<g transform="translate(0.000000,353.000000) scale(0.100000,-0.100000)"
fill="#000000" stroke="none">
<path d="M2350 3426 c-7 -7 -50 -10 -126 -8 -121 2 -339 -27 -399 -53 -93 -42
-130 -58 -140 -60 -36 -10 -55 -18 -55 -24 0 -4 -19 -18 -42 -31 -24 -12 -66
-38 -95 -56 -28 -19 -56 -34 -62 -34 -6 0 -11 -4 -11 -10 0 -5 -5 -10 -11 -10
-25 0 -201 -154 -313 -272 l-98 -106 -39 39 c-21 21 -45 40 -51 40 -43 5 -61
7 -97 13 -23 3 -42 2 -46 -4 -3 -5 -14 -10 -24 -10 -21 0 -71 -22 -71 -32 0
-5 -7 -8 -15 -8 -8 0 -15 -5 -15 -11 0 -6 -8 -23 -19 -37 -30 -45 -115 -296
-135 -406 -2 -12 -14 -59 -26 -106 -30 -114 -49 -209 -50 -244 0 -19 14 -45
43 -79 45 -55 46 -60 16 -124 -10 -24 -19 -49 -19 -56 0 -7 -4 -17 -8 -22 -25
-28 -52 -245 -53 -420 -1 -143 4 -198 21 -249 6 -16 10 -42 10 -57 0 -29 47
-170 60 -179 4 -3 21 -33 38 -66 32 -62 100 -136 182 -195 25 -18 58 -45 73
-61 16 -15 33 -28 39 -28 5 0 27 -13 47 -29 58 -46 178 -100 286 -128 89 -23
120 -26 285 -27 139 -1 204 3 260 16 41 9 86 19 100 21 14 3 63 17 110 31 47
14 93 26 104 26 10 0 38 13 61 29 45 30 130 71 148 71 5 0 28 14 51 31 23 16
65 46 94 64 l53 35 25 -25 c14 -14 35 -27 47 -29 107 -23 114 -23 151 -4 20
10 41 16 46 13 6 -3 10 -3 10 2 0 4 19 17 41 28 23 10 92 68 154 127 62 59
118 108 125 108 6 0 9 4 5 9 -3 5 4 12 15 16 11 3 26 12 32 18 7 7 38 30 68
52 70 51 88 66 172 144 55 52 71 75 83 115 18 60 19 96 3 96 -6 0 -8 3 -5 7
10 9 -59 73 -80 74 -10 0 -37 0 -60 -1 -33 -1 -43 2 -43 14 0 9 4 16 8 16 4 0
16 21 27 46 10 25 34 67 52 92 18 26 33 51 33 56 0 5 13 36 29 70 15 34 34 86
41 116 7 30 16 62 21 71 5 9 11 38 13 65 3 27 10 78 17 114 6 36 14 88 19 115
14 80 11 248 -4 322 -8 37 -17 88 -21 112 -3 24 -15 67 -27 95 -11 28 -19 51
-17 51 6 0 -16 51 -28 63 -7 8 -31 40 -52 71 -38 55 -183 198 -231 228 -14 8
-41 36 -61 61 -36 47 -179 152 -199 148 -3 -1 -18 7 -33 17 -15 9 -27 14 -27
11 0 -4 -8 0 -17 8 -37 31 -131 68 -228 88 -55 12 -112 25 -127 29 -17 6 -30
5 -38 -3z m-64 -105 c61 -11 70 -13 142 -31 27 -6 49 -7 59 -1 10 5 24 5 32 0
9 -4 44 -18 79 -30 34 -12 65 -26 68 -30 3 -5 14 -9 25 -9 10 0 19 -4 19 -9 0
-4 21 -16 47 -26 26 -10 59 -29 73 -42 13 -13 30 -23 36 -23 11 0 84 -79 84
-91 0 -3 17 -18 38 -31 77 -52 182 -150 182 -171 0 -7 13 -21 29 -32 26 -17
32 -26 40 -60 1 -3 15 -30 32 -61 81 -147 109 -412 68 -639 -10 -55 -18 -114
-18 -132 -1 -17 -17 -79 -36 -137 -32 -95 -52 -136 -120 -255 -50 -85 -121
-185 -162 -229 -25 -26 -57 -63 -71 -82 -37 -49 -361 -371 -397 -394 -16 -10
-37 -25 -45 -32 -40 -36 -83 -67 -128 -92 -27 -15 -108 -60 -180 -100 -72 -40
-146 -78 -164 -83 -18 -6 -51 -19 -73 -29 -22 -10 -85 -26 -140 -35 -55 -9
-106 -21 -113 -28 -8 -6 -30 -12 -50 -12 -21 -1 -80 -5 -132 -9 -62 -5 -116
-4 -155 4 -33 6 -85 13 -115 16 -166 15 -383 135 -549 304 -95 97 -158 225
-177 365 -2 17 -8 53 -13 80 -26 158 5 517 51 572 6 7 8 13 4 13 -4 0 3 18 14
40 11 21 20 46 20 54 0 7 6 16 14 19 8 3 15 14 15 24 -1 26 52 166 94 250 19
39 38 82 42 94 4 12 22 43 39 68 18 25 47 76 65 114 19 37 37 67 42 67 5 0 9
4 9 10 0 17 119 177 158 212 20 19 57 58 82 88 25 30 51 61 57 68 7 7 13 18
13 24 0 6 2 9 5 6 3 -3 29 17 58 44 96 89 333 246 454 301 98 44 143 59 248
82 44 9 84 18 89 19 33 7 164 5 212 -3z m-1397 -583 c23 -45 5 -126 -38 -168
-14 -14 -27 -32 -29 -40 -2 -8 -13 -24 -26 -35 -12 -11 -28 -36 -35 -55 -18
-48 -35 -84 -42 -90 -15 -11 -77 -127 -89 -165 -7 -22 -16 -42 -20 -45 -4 -3
-19 -39 -35 -80 -15 -41 -30 -77 -32 -79 -2 -3 -10 4 -18 15 -13 17 -13 39 -1
104 4 20 15 51 27 73 5 10 15 54 21 97 6 44 15 80 20 80 4 0 8 13 8 29 0 16 5
42 12 58 6 15 11 31 10 35 -2 10 29 112 38 123 4 6 15 35 25 66 21 69 62 96
151 98 33 1 43 -3 53 -21z m2394 -1496 c11 -12 14 -26 9 -44 -7 -26 -168 -180
-207 -199 -11 -5 -56 -38 -100 -74 -44 -36 -95 -75 -112 -88 -18 -12 -33 -25
-33 -28 0 -11 -63 -73 -105 -105 -22 -17 -62 -39 -90 -48 -44 -16 -54 -16 -84
-4 l-34 13 57 45 c30 25 74 59 95 75 22 17 40 34 41 39 0 5 53 60 117 123 64
63 127 129 140 146 46 63 124 136 139 130 8 -3 20 0 27 6 13 10 76 28 108 30
9 1 23 -7 32 -17z"/>
<path d="M1976 2793 c-2 -3 -45 -11 -62 -12 -10 -1 -34 -43 -34 -61 0 -5 8
-16 17 -25 13 -14 28 -16 80 -10 76 8 159 -14 198 -53 14 -13 25 -21 25 -16 0
17 63 -53 91 -102 43 -75 94 -129 150 -158 27 -15 49 -23 49 -20 0 4 8 0 18
-9 18 -16 116 -41 154 -39 10 0 20 -3 23 -9 4 -5 21 -9 40 -9 39 0 76 -12 96
-33 25 -24 77 -47 94 -41 17 7 45 54 45 78 0 18 -86 76 -114 76 -12 0 -39 7
-61 14 -22 8 -53 16 -70 19 -16 3 -50 10 -75 16 -25 6 -58 13 -75 17 -33 7
-109 59 -140 96 -11 13 -41 55 -68 93 -26 39 -58 78 -71 87 -35 25 -116 68
-151 80 -29 10 -153 26 -159 21z"/>
<path d="M1761 2536 c-10 -12 -16 -27 -14 -33 3 -7 -1 -13 -8 -13 -7 0 -4 -9
9 -20 19 -18 30 -20 96 -14 72 6 77 5 126 -25 27 -17 53 -31 56 -31 3 0 20
-15 38 -32 21 -22 40 -58 55 -105 43 -132 95 -162 291 -169 206 -8 249 -12
272 -28 12 -9 30 -16 38 -16 9 0 27 -11 40 -25 33 -36 82 -34 100 3 7 15 14
34 14 42 1 18 -56 70 -76 70 -7 0 -31 9 -53 20 -22 11 -51 20 -65 20 -14 1
-51 7 -83 15 -33 7 -67 11 -77 7 -10 -4 -66 -4 -123 -1 -115 6 -147 20 -168
74 -6 17 -15 39 -19 50 -5 11 -12 30 -15 42 -9 33 -91 110 -145 138 -27 13
-50 30 -52 37 -3 9 -34 13 -111 14 -96 0 -109 -2 -126 -20z"/>
<path d="M1705 2305 c-42 -16 -81 -18 -205 -16 -41 1 -97 -3 -125 -9 -27 -6
-76 -14 -108 -17 -47 -4 -61 -10 -74 -30 -15 -22 -14 -25 4 -42 32 -30 59 -33
145 -15 46 9 101 16 123 15 95 -3 113 -3 169 8 77 14 71 16 90 -21 9 -18 25
-46 34 -63 10 -16 33 -65 51 -107 30 -69 37 -78 60 -78 34 0 44 8 58 48 11 32
9 56 -9 77 -17 20 -79 129 -97 170 -18 41 -59 95 -70 95 -3 -1 -24 -7 -46 -15z"/>
<path d="M1287 2095 c-15 -8 -34 -12 -42 -9 -22 9 -52 -13 -60 -43 -5 -21 -2
-31 16 -44 19 -14 27 -15 53 -4 30 13 130 10 151 -4 6 -4 27 -9 49 -10 21 -2
56 -9 78 -17 22 -8 48 -14 58 -14 20 0 86 -57 77 -67 -3 -3 -20 6 -37 20 -43
37 -145 66 -227 66 -142 0 -232 -12 -245 -32 -11 -18 -9 -41 5 -60 10 -14 25
-15 110 -9 53 4 97 6 97 4 0 -1 -9 -15 -20 -30 -27 -37 -35 -92 -17 -116 13
-18 42 -25 117 -27 21 0 18 -4 -20 -22 -37 -17 -63 -21 -148 -21 -77 1 -107 4
-118 15 -17 17 -84 13 -85 -5 0 -6 -2 -19 -4 -28 -5 -29 30 -57 86 -69 30 -6
63 -11 74 -11 114 3 167 11 230 36 39 15 95 34 125 42 71 19 117 42 158 79 32
29 33 31 27 95 -6 69 -30 127 -73 178 -22 25 -46 36 -132 60 -162 45 -234 60
-241 49 -4 -5 -8 -5 -10 2 -3 7 -13 6 -32 -4z m312 -292 c19 -16 42 -31 50
-34 16 -6 -58 -49 -85 -49 -8 0 -29 -7 -45 -16 -41 -21 -49 -10 -17 24 15 15
29 43 31 62 6 43 5 40 19 40 6 0 27 -12 47 -27z"/>
<path d="M2617 1843 c-3 -2 -70 -9 -182 -18 -104 -8 -135 -16 -135 -31 0 -8
-5 -23 -12 -34 -10 -15 -9 -22 5 -38 15 -16 24 -18 60 -11 23 5 89 11 147 15
58 3 107 8 109 10 2 2 16 -5 30 -15 17 -13 40 -52 66 -114 29 -70 47 -100 67
-112 27 -15 29 -15 54 8 31 29 38 93 12 108 -8 5 -21 23 -28 41 -7 18 -26 59
-42 91 -15 33 -26 62 -23 66 7 12 -36 30 -83 33 -24 2 -44 3 -45 1z"/>
<path d="M2360 1625 c0 -6 -28 -10 -65 -10 -36 1 -65 -2 -65 -6 0 -4 -15 -29
-34 -57 -19 -27 -32 -52 -29 -56 3 -3 7 -76 9 -162 3 -163 16 -228 65 -331 30
-62 78 -73 102 -24 14 28 13 31 -14 61 -16 17 -29 37 -30 43 -2 24 -8 53 -21
102 -14 50 -17 229 -5 242 4 3 15 -1 25 -10 10 -10 23 -17 29 -17 11 0 53 -42
53 -53 0 -4 -11 -7 -24 -7 -27 0 -53 -22 -66 -55 -13 -35 7 -115 35 -141 35
-32 48 -30 90 13 28 29 35 44 35 75 0 48 10 48 34 1 10 -21 22 -45 26 -53 11
-24 72 -41 89 -25 15 14 7 95 -10 95 -5 0 -8 4 -7 8 5 14 -65 110 -89 123 -12
7 -20 15 -18 19 6 10 -79 87 -105 95 -11 3 -20 11 -20 16 0 17 22 10 80 -23 8
-4 26 -14 40 -21 25 -12 90 -71 90 -82 0 -3 5 -11 10 -18 6 -7 33 -45 61 -84
42 -61 55 -73 78 -73 20 0 31 7 39 25 7 14 12 30 12 35 0 11 -82 134 -92 138
-5 2 -8 11 -8 20 0 20 -84 101 -125 122 -17 8 -39 22 -50 31 -11 9 -33 19 -50
21 -46 7 -59 12 -67 23 -5 7 -8 7 -8 0z"/>
<path d="M1630 1389 c0 -5 -4 -8 -9 -5 -16 10 -24 -53 -10 -72 35 -46 67 -75
98 -88 35 -15 148 -19 167 -6 26 18 33 74 12 100 -12 14 -64 16 -73 2 -13 -21
-54 -9 -84 23 -17 17 -31 37 -31 42 0 6 -16 11 -35 12 -20 2 -35 -2 -35 -8z"/>
<path d="M873 1138 c-12 -5 -24 -19 -27 -31 -5 -22 20 -81 33 -73 23 15 225
-33 291 -70 14 -7 72 -32 130 -55 58 -24 123 -54 145 -69 22 -14 51 -31 65
-38 64 -32 120 -76 120 -94 0 -16 65 -67 87 -68 24 0 58 41 67 81 7 29 -7 48
-56 73 -21 11 -38 25 -38 32 0 6 -12 17 -27 23 -41 17 -133 70 -169 96 -17 13
-55 31 -85 41 -30 10 -63 23 -74 30 -11 6 -31 15 -45 19 -28 7 -119 41 -167
61 -17 8 -39 14 -48 14 -9 0 -24 4 -33 9 -10 5 -37 12 -62 15 -25 3 -54 7 -65
10 -11 3 -30 0 -42 -6z"/>
</g>
</svg>
