<?xml version="1.0" standalone="no"?>
<!DOCTYPE svg PUBLIC "-//W3C//DTD SVG 20010904//EN"
 "http://www.w3.org/TR/2001/REC-SVG-20010904/DTD/svg10.dtd">
<svg version="1.0" xmlns="http://www.w3.org/2000/svg"
 width="407.000000pt" height="401.000000pt" viewBox="0 0 407.000000 401.000000"
 preserveAspectRatio="xMidYMid meet">
<metadata>
Created by potrace 1.16, written by Peter Selinger 2001-2019
</metadata>
<g transform="translate(0.000000,401.000000) scale(0.100000,-0.100000)"
fill="#000000" stroke="none">
<path d="M2102 3839 c-46 -4 -104 -15 -130 -23 -54 -18 -118 -32 -182 -41 -65
-9 -190 -54 -227 -81 -17 -13 -34 -24 -38 -24 -12 0 -131 -84 -187 -133 -32
-27 -58 -47 -58 -44 0 3 -30 -27 -67 -66 -38 -39 -77 -78 -87 -86 -29 -21 -63
-60 -116 -131 -14 -18 -44 -56 -66 -84 -23 -28 -45 -61 -48 -73 -4 -13 -12
-23 -17 -23 -6 0 -8 -4 -4 -9 3 -5 -24 -66 -60 -135 -36 -68 -65 -133 -65
-143 -1 -43 -14 -46 -81 -18 -65 28 -169 48 -169 33 0 -4 -3 -8 -7 -7 -16 2
-53 -14 -53 -22 0 -5 -8 -9 -17 -9 -10 0 -34 -16 -52 -35 -19 -19 -43 -37 -52
-40 -9 -3 -19 -18 -22 -33 -3 -15 -13 -47 -22 -72 -25 -66 -26 -255 -1 -335
41 -134 70 -211 82 -226 8 -8 14 -22 14 -30 0 -19 80 -177 106 -208 19 -23 54
-59 84 -84 8 -8 36 -21 63 -31 32 -12 49 -25 52 -39 14 -57 26 -124 28 -144 0
-13 4 -23 8 -23 4 0 10 -16 13 -35 4 -20 20 -64 36 -98 15 -34 34 -82 40 -107
14 -51 79 -190 90 -190 3 0 22 -21 40 -47 19 -27 39 -52 46 -58 6 -5 25 -30
42 -55 16 -25 40 -54 53 -66 13 -11 40 -38 60 -60 33 -35 168 -160 208 -192
39 -31 137 -91 149 -92 12 0 23 -7 57 -38 7 -6 21 -12 30 -12 18 0 126 -35
171 -55 27 -13 62 -19 214 -41 112 -16 350 0 490 33 14 4 27 7 30 7 3 1 11 5
18 9 6 5 12 6 12 3 0 -3 25 5 56 19 31 14 65 25 75 25 11 0 19 5 19 10 0 6 5
10 11 10 6 0 47 18 92 40 75 38 217 155 217 180 0 13 58 105 117 187 28 39 66
96 83 127 18 31 38 59 45 64 7 4 15 21 18 37 9 50 31 105 42 105 9 1 65 115
65 133 0 5 14 28 30 52 17 24 30 48 30 54 0 6 4 11 8 11 5 0 14 22 20 50 6 27
18 66 27 86 12 29 18 34 35 29 11 -3 21 -3 21 2 1 4 3 18 4 30 2 23 61 103 75
103 19 0 183 208 206 260 37 84 41 93 53 125 25 68 50 295 32 295 -6 0 -11 13
-11 28 0 16 -3 32 -7 36 -4 3 -8 16 -10 29 -6 37 -55 98 -102 128 -38 23 -56
28 -114 28 -38 0 -71 2 -74 5 -6 6 -33 132 -37 177 -4 38 -36 109 -111 244
-24 44 -53 98 -64 120 -11 22 -38 57 -61 79 -22 21 -48 52 -56 68 -21 41 -151
209 -166 216 -5 2 -34 30 -65 63 -32 32 -63 59 -70 59 -6 0 -18 6 -25 14 -8 7
-24 17 -36 20 -12 4 -22 12 -22 17 0 6 -4 8 -9 4 -9 -5 -81 30 -91 45 -7 11
-104 37 -192 51 -43 7 -78 16 -78 20 0 4 -15 6 -32 3 -32 -4 -88 12 -88 25 0
9 -169 9 -268 0z m344 -141 c39 -16 81 -26 114 -26 28 0 57 -5 63 -11 6 -6 20
-11 30 -11 10 0 31 -9 45 -19 15 -10 31 -19 35 -19 11 0 71 -25 77 -31 3 -4
19 -13 35 -21 17 -8 41 -26 55 -40 14 -14 38 -34 53 -43 15 -10 31 -26 34 -35
4 -9 21 -31 38 -49 30 -29 125 -158 125 -169 0 -3 9 -15 20 -27 48 -53 70 -80
70 -87 0 -3 8 -15 18 -26 34 -39 162 -283 168 -319 1 -11 8 -45 14 -75 7 -30
14 -68 16 -85 2 -16 6 -46 10 -65 9 -52 15 -109 17 -162 0 -27 4 -48 7 -48 9
0 5 -164 -4 -205 -7 -34 -14 -102 -21 -220 -3 -49 -15 -106 -30 -149 -14 -38
-25 -77 -25 -87 0 -9 -3 -19 -7 -21 -5 -1 -21 -41 -37 -88 -38 -111 -106 -254
-129 -271 -5 -3 -8 -8 -7 -10 1 -2 -10 -31 -25 -64 -16 -33 -27 -61 -27 -62 1
-2 -14 -27 -33 -57 -19 -30 -35 -57 -35 -60 0 -9 -71 -120 -84 -131 -6 -5 -22
-30 -35 -55 -57 -107 -100 -169 -152 -222 -57 -57 -145 -109 -206 -123 -18 -3
-33 -10 -33 -14 0 -27 -213 -86 -365 -102 -137 -14 -123 -14 -233 -6 -188 14
-335 58 -480 145 -29 18 -56 32 -61 32 -4 0 -16 10 -27 21 -10 12 -35 32 -55
44 -51 33 -136 114 -169 160 -15 22 -59 72 -97 110 -37 39 -77 87 -88 108 -11
21 -28 45 -37 54 -10 9 -18 20 -18 25 0 4 -14 27 -30 50 -17 22 -30 47 -30 55
0 18 -28 112 -41 135 -5 10 -9 27 -9 38 0 11 -4 20 -9 20 -5 0 -16 30 -26 67
-9 38 -23 93 -30 123 -8 30 -17 71 -19 90 -3 19 -9 51 -14 70 -46 161 -15 632
54 835 8 24 19 69 25 99 5 31 19 77 31 103 35 82 169 321 194 348 13 14 24 29
24 32 0 17 267 279 350 343 25 19 47 37 50 40 6 7 78 48 175 100 78 42 205 81
262 81 64 -1 165 7 171 13 3 3 69 4 146 2 123 -3 149 -7 202 -28z m-1850
-1064 c38 -8 79 -23 92 -33 22 -16 23 -18 9 -61 -41 -125 -55 -228 -63 -475
-7 -225 -7 -254 1 -287 6 -23 5 -26 -13 -21 -11 3 -32 21 -45 41 -66 101 -95
149 -102 172 -4 14 -16 43 -25 65 -32 72 -49 121 -69 202 -21 85 -26 219 -9
241 6 6 8 12 4 12 -3 0 5 23 19 50 18 36 40 60 72 80 55 35 43 34 129 14z
m3115 -167 c46 -39 72 -95 75 -160 2 -34 0 -65 -4 -71 -4 -6 -7 -27 -8 -46 -2
-48 -22 -127 -38 -153 -8 -12 -17 -36 -20 -52 -4 -18 -28 -52 -56 -80 -27 -28
-50 -56 -50 -62 0 -7 -4 -13 -8 -13 -5 0 -14 -10 -20 -22 -10 -21 -11 -21 -6
7 2 17 6 64 9 105 5 83 9 123 25 220 5 36 8 90 5 120 -14 170 -14 214 -3 221
22 14 74 7 99 -14z"/>
<path d="M2440 3499 c-36 -10 -73 -23 -82 -29 -10 -5 -24 -10 -32 -10 -8 0
-30 -9 -49 -20 -19 -11 -49 -22 -66 -23 -17 -1 -31 -5 -31 -9 0 -3 -31 -5 -69
-4 -65 2 -84 8 -172 52 -39 20 -199 24 -246 7 -45 -17 -99 -33 -122 -38 -34
-6 -109 -65 -113 -89 -5 -24 17 -46 47 -46 17 0 55 19 70 36 5 7 39 22 75 34
82 28 216 29 258 2 58 -38 147 -57 254 -55 42 0 68 7 102 27 24 14 54 26 66
26 12 0 18 5 15 10 -4 6 7 10 24 10 17 0 31 4 31 9 0 9 28 16 107 27 34 5 55
0 103 -23 33 -15 60 -32 60 -36 0 -5 4 -6 9 -2 5 3 12 1 15 -4 3 -4 -25 -11
-62 -13 -48 -4 -82 -13 -113 -30 -24 -14 -66 -28 -94 -32 -27 -3 -67 -15 -90
-25 -67 -32 -108 -34 -148 -11 -27 16 -50 21 -94 19 -35 -1 -76 5 -103 15 -25
9 -72 19 -105 22 -33 3 -69 5 -80 6 -33 3 -154 -12 -178 -22 -12 -5 -34 -11
-48 -14 -14 -3 -36 -15 -49 -26 -13 -12 -39 -30 -57 -41 -36 -22 -44 -57 -18
-79 20 -17 68 -4 94 26 21 25 51 40 94 48 12 2 35 9 52 16 25 10 123 8 245 -4
8 -1 30 -10 49 -20 24 -13 46 -16 78 -12 35 4 55 0 87 -16 52 -27 124 -26 178
2 22 12 43 19 46 16 3 -3 10 -2 16 3 6 5 43 16 81 24 39 8 86 23 106 34 51 27
158 16 214 -21 43 -29 44 -30 80 -16 22 8 25 15 23 50 -2 25 -8 40 -16 40 -8
0 -26 9 -40 21 -21 16 -26 27 -23 58 3 43 -4 51 -74 75 -27 10 -55 25 -61 33
-7 7 -21 15 -32 18 -11 2 -37 8 -58 14 -51 14 -75 13 -154 -10z"/>
<path d="M1782 3016 c-9 -15 -117 -86 -131 -86 -6 0 -11 -5 -11 -12 0 -6 -3
-9 -6 -5 -7 7 -36 -16 -78 -62 -48 -52 -55 -59 -64 -63 -5 -1 -31 -36 -57 -77
-26 -41 -53 -81 -61 -88 -17 -17 -50 -92 -65 -145 -6 -22 -15 -52 -21 -67 -6
-14 -12 -28 -13 -31 0 -3 -6 -14 -12 -26 -7 -11 -12 -29 -12 -40 -1 -10 -3
-59 -6 -108 -3 -72 -1 -95 13 -120 15 -28 53 -65 60 -58 1 1 17 -5 35 -14 74
-39 184 -35 262 11 40 23 85 68 85 84 0 5 7 11 15 15 8 3 15 12 15 21 0 8 5
15 10 15 6 0 10 9 10 20 0 20 2 26 33 87 11 23 12 33 4 37 -7 3 -6 5 3 5 12 1
15 16 16 69 3 167 3 164 -10 282 -3 25 -8 67 -11 93 -3 27 -10 58 -16 68 -5
11 -7 24 -4 29 3 6 1 10 -4 10 -20 0 -11 17 16 29 15 7 33 21 41 32 7 11 18
17 23 14 16 -10 22 24 9 54 -12 31 -55 47 -68 27z m-113 -236 c4 0 8 -8 9 -17
5 -52 11 -81 21 -105 13 -34 13 -269 -1 -285 -5 -6 -8 -17 -7 -25 3 -22 -13
-78 -23 -78 -5 0 -7 -4 -3 -9 3 -5 1 -12 -4 -15 -5 -3 -7 -14 -5 -24 7 -24
-63 -95 -117 -120 -37 -17 -52 -19 -94 -11 -70 13 -105 52 -105 119 0 27 5 61
11 77 6 15 12 36 14 46 2 10 11 32 20 49 8 18 18 49 21 70 4 21 10 38 15 38 5
0 6 6 3 14 -3 7 5 22 18 32 13 11 24 27 26 37 9 52 57 114 84 109 4 -1 5 5 2
13 -4 8 -2 15 3 15 5 0 17 14 26 30 10 17 24 30 30 30 7 0 19 10 27 23 12 19
15 20 18 5 2 -10 7 -18 11 -18z"/>
<path d="M1498 2437 c-23 -9 -28 -17 -32 -61 -8 -92 -8 -94 31 -107 53 -17 80
1 83 55 5 126 -7 143 -82 113z"/>
<path d="M2600 2997 c-31 -16 -28 -41 7 -79 28 -30 25 -41 -24 -82 -18 -15
-32 -30 -31 -34 1 -4 -14 -41 -34 -82 -49 -101 -66 -181 -71 -332 -1 -37 24
-140 39 -158 6 -8 21 -35 32 -60 24 -52 53 -86 82 -95 11 -3 20 -10 20 -14 0
-4 22 -8 49 -10 28 -1 60 -4 73 -7 13 -2 43 -1 68 2 36 6 54 16 92 56 26 27
47 52 46 56 -1 4 3 18 9 32 16 41 -1 259 -25 311 -19 43 -41 100 -78 204 -10
28 -26 62 -36 77 -10 14 -18 30 -18 36 0 5 -7 16 -16 23 -9 7 -28 37 -41 66
-37 77 -95 114 -143 90z m113 -236 c-2 -6 2 -11 8 -11 5 0 8 -4 5 -9 -3 -5 0
-14 8 -20 7 -6 21 -33 31 -59 10 -26 24 -55 32 -64 8 -9 12 -22 8 -27 -3 -6
-3 -17 2 -23 8 -14 14 -35 15 -58 0 -8 9 -24 18 -35 47 -53 43 -252 -5 -301
-27 -28 -149 -31 -185 -6 -30 22 -99 149 -105 194 -8 58 -7 171 2 177 4 3 10
17 11 30 2 14 9 36 15 50 5 14 11 28 11 31 6 31 63 123 84 135 29 15 48 14 45
-4z"/>
<path d="M2700 2421 c0 -4 -12 -11 -26 -17 -20 -7 -28 -17 -30 -41 -2 -18 0
-33 6 -33 5 0 7 -6 4 -14 -3 -8 7 -22 23 -34 25 -18 31 -19 54 -6 32 16 42 39
29 63 -5 10 -7 21 -4 23 10 11 -16 56 -35 61 -12 3 -21 2 -21 -2z"/>
<path d="M2020 1680 c-68 -21 -181 -77 -197 -99 -6 -9 -11 -24 -9 -33 3 -21
35 -58 50 -58 6 0 37 19 69 43 42 31 69 44 100 46 65 6 120 5 145 -2 34 -9
111 -60 106 -69 -3 -4 6 -8 20 -8 26 0 66 34 66 56 0 18 -29 69 -37 67 -5 -2
-8 3 -8 10 -1 6 -7 11 -14 9 -7 -1 -18 1 -25 6 -16 13 -89 37 -103 34 -7 -2
-13 1 -13 5 0 14 -94 10 -150 -7z"/>
<path d="M2248 1314 c-2 -1 -55 -7 -119 -13 -64 -6 -162 -22 -217 -36 -56 -14
-117 -25 -137 -25 -19 0 -35 -3 -35 -8 0 -9 -91 -42 -117 -42 -10 0 -27 -6
-38 -13 -18 -13 -80 -32 -130 -41 -11 -3 -33 -9 -48 -15 -16 -6 -38 -11 -49
-11 -28 0 -93 -71 -96 -104 -1 -14 3 -26 8 -26 6 0 10 -8 10 -19 0 -20 29 -43
70 -56 14 -4 28 -13 32 -19 5 -8 15 -6 35 5 15 9 46 20 68 23 64 11 106 28
161 63 28 18 58 33 68 33 9 0 16 5 16 10 0 6 9 10 19 10 10 0 22 7 25 16 3 9
13 14 20 11 8 -3 16 -3 18 1 6 15 124 44 201 51 62 5 86 3 112 -10 18 -9 51
-20 72 -24 21 -5 40 -9 43 -10 50 -19 70 -32 71 -45 0 -12 2 -12 7 2 6 16 9
16 40 -3 17 -12 32 -25 32 -29 0 -4 10 -10 23 -14 12 -3 36 -19 54 -36 48 -45
80 -57 174 -62 57 -3 73 9 90 70 17 62 13 99 -17 144 -13 21 -24 42 -24 48 0
5 -6 10 -13 10 -8 0 -30 16 -50 35 -20 19 -41 35 -47 35 -6 0 -28 11 -50 25
-22 14 -49 25 -60 25 -12 0 -40 9 -63 19 -36 16 -150 34 -159 25z m282 -294
c0 -5 -2 -10 -4 -10 -3 0 -8 5 -11 10 -3 6 -1 10 4 10 6 0 11 -4 11 -10z"/>
</g>
</svg>
