<?xml version="1.0" standalone="no"?>
<!DOCTYPE svg PUBLIC "-//W3C//DTD SVG 20010904//EN"
 "http://www.w3.org/TR/2001/REC-SVG-20010904/DTD/svg10.dtd">
<svg version="1.0" xmlns="http://www.w3.org/2000/svg"
 width="361.000000pt" height="359.000000pt" viewBox="0 0 361.000000 359.000000"
 preserveAspectRatio="xMidYMid meet">
<metadata>
Created by potrace 1.16, written by Peter Selinger 2001-2019
</metadata>
<g transform="translate(0.000000,359.000000) scale(0.100000,-0.100000)"
fill="#000000" stroke="none">
<path d="M1474 3324 c-33 -6 -65 -13 -70 -17 -10 -5 -78 -17 -116 -20 -10 -1
-18 -5 -18 -9 0 -4 -9 -8 -20 -8 -11 0 -20 -5 -20 -11 0 -5 -4 -7 -10 -4 -5 3
-10 1 -10 -4 0 -6 -7 -11 -15 -11 -8 0 -15 -4 -15 -10 0 -5 -4 -10 -9 -10 -5
0 -28 -17 -50 -37 -48 -45 -57 -53 -96 -77 -53 -34 -198 -189 -229 -244 -6
-12 -35 -56 -65 -99 -30 -43 -64 -98 -75 -123 -12 -25 -28 -56 -36 -70 -8 -14
-14 -27 -15 -30 0 -3 -11 -27 -25 -52 l-24 -46 -29 24 c-30 25 -67 30 -138 18
-52 -9 -151 -106 -171 -168 -5 -17 -16 -44 -23 -61 -26 -60 -36 -225 -16 -263
6 -11 11 -28 11 -38 0 -9 29 -73 63 -143 35 -69 72 -148 82 -176 11 -27 23
-53 28 -56 6 -4 7 -14 4 -22 -7 -18 28 -77 46 -77 9 0 14 -14 15 -42 2 -44 63
-355 73 -373 4 -5 14 -37 24 -70 10 -33 21 -64 25 -70 4 -5 10 -23 14 -40 7
-29 75 -175 87 -185 3 -3 8 -12 11 -20 7 -18 122 -161 169 -210 44 -45 147
-134 162 -139 7 -2 26 -14 42 -26 17 -12 62 -35 100 -50 39 -16 75 -32 80 -36
11 -8 53 -16 130 -25 28 -3 66 -7 85 -10 88 -11 199 -12 264 -3 39 5 100 12
136 15 36 3 91 12 123 20 32 8 66 14 75 14 8 0 65 24 126 54 61 30 123 58 139
61 15 4 27 11 27 16 0 5 6 9 13 9 6 1 35 23 62 50 28 28 53 50 57 50 19 0 350
342 388 400 43 64 50 74 89 117 11 12 23 34 27 48 3 14 10 28 15 31 5 3 9 15
9 28 0 27 18 46 42 46 21 0 24 2 89 59 25 23 51 41 58 41 6 0 11 7 11 15 0 8
4 15 9 15 6 0 18 14 28 30 9 16 23 30 30 30 7 0 13 4 13 9 0 6 12 23 28 40 15
17 49 72 75 123 69 133 91 173 100 176 4 2 7 9 7 15 1 7 9 30 20 52 21 43 28
159 10 170 -6 4 -8 10 -5 15 10 16 -34 99 -61 116 -17 12 -49 17 -102 18 l-76
2 -2 89 c-3 90 -19 198 -49 310 -9 33 -18 71 -21 83 -8 41 -94 216 -109 225
-8 4 -15 16 -15 27 0 10 -3 20 -7 22 -5 2 -21 23 -38 47 -38 57 -75 93 -144
144 -31 22 -58 43 -61 46 -16 19 -136 81 -155 81 -8 0 -15 4 -15 9 0 5 -16 12
-36 16 -20 3 -50 12 -68 20 -17 7 -64 23 -103 36 -40 12 -73 25 -73 29 0 4
-13 7 -28 8 -16 0 -65 12 -110 27 -45 15 -94 25 -110 24 -15 -2 -34 1 -42 6
-8 5 -80 10 -160 12 -80 2 -197 4 -260 6 -64 1 -143 -3 -176 -9z m578 -125 c9
-5 30 -7 47 -5 17 2 31 -1 31 -5 0 -5 12 -9 28 -9 35 0 121 -23 152 -41 14 -7
29 -12 34 -10 6 1 19 -2 30 -7 12 -5 55 -22 96 -37 41 -16 77 -31 80 -35 3 -3
19 -7 35 -8 17 -1 32 -7 33 -12 2 -6 9 -10 15 -10 7 0 23 -6 37 -14 65 -34
126 -70 136 -80 91 -85 134 -131 134 -142 0 -7 6 -17 13 -21 12 -8 74 -128 97
-188 31 -79 70 -222 84 -304 19 -111 22 -276 5 -351 -6 -30 -13 -71 -15 -90
-11 -111 -63 -290 -144 -490 -24 -61 -92 -202 -101 -210 -3 -3 -14 -25 -26
-50 -11 -25 -30 -54 -42 -64 -12 -11 -21 -24 -21 -30 0 -6 -18 -31 -40 -56
-22 -25 -40 -49 -40 -53 0 -11 -299 -306 -359 -354 -25 -21 -49 -42 -53 -48
-4 -5 -8 -6 -8 -2 0 5 -12 0 -27 -11 -58 -40 -307 -146 -329 -141 -5 2 -31 0
-59 -4 -27 -3 -75 -9 -105 -12 -74 -8 -83 -9 -97 -18 -7 -4 -39 -6 -70 -3 -32
3 -100 8 -152 11 -110 7 -157 16 -228 43 -55 21 -155 75 -176 96 -6 6 -28 23
-47 36 -36 25 -93 74 -114 98 -6 7 -28 32 -48 54 -21 22 -38 46 -38 54 0 7 -9
18 -19 24 -45 24 -188 381 -205 512 -2 13 -6 34 -9 48 -13 61 -30 146 -33 174
-8 65 -11 380 -4 406 4 15 11 74 15 131 4 57 9 107 12 111 2 5 6 16 8 25 3 10
14 52 25 93 12 41 28 100 36 130 29 109 170 369 278 513 37 50 127 137 141
137 7 0 15 4 17 10 5 14 190 150 205 150 7 0 13 4 13 9 0 7 41 20 85 26 34 4
96 19 130 31 31 10 94 12 290 8 138 -4 257 -10 267 -15z m-1572 -824 c16 -17
24 -38 24 -63 0 -42 1 -37 -48 -255 -21 -92 -23 -107 -31 -224 -4 -57 -11
-100 -16 -97 -5 3 -9 12 -9 21 0 9 -6 24 -13 32 -8 9 -22 38 -31 64 -10 26
-28 60 -41 75 -61 74 -61 224 0 349 37 74 84 123 121 123 11 0 31 -11 44 -25z
m2886 -423 c6 -4 19 -28 29 -54 20 -55 16 -104 -13 -146 -11 -15 -23 -38 -27
-51 -4 -13 -14 -31 -23 -41 -22 -27 -78 -131 -86 -163 -3 -15 -11 -27 -16 -27
-6 0 -10 -4 -10 -10 0 -11 -101 -120 -112 -120 -13 0 -9 28 12 73 23 51 50
129 61 177 4 19 15 60 23 90 9 30 19 75 21 100 13 128 18 144 55 162 38 18 68
22 86 10z"/>
<path d="M1676 2618 c-9 -12 -16 -27 -16 -32 0 -5 -8 -28 -19 -50 -30 -67 -60
-149 -67 -184 -8 -42 -24 -48 -76 -32 -81 24 -154 33 -258 33 -129 -1 -127 0
-242 -58 -78 -39 -92 -57 -70 -92 10 -15 72 -29 72 -16 0 13 64 40 142 60 28
7 139 7 191 0 32 -5 109 -18 127 -22 3 -1 21 -5 40 -9 19 -5 42 -14 50 -22 11
-9 25 -11 45 -6 25 7 33 17 48 63 10 30 20 65 23 79 3 14 13 43 24 65 10 22
24 58 31 80 7 22 21 48 31 58 10 10 20 30 24 45 3 15 7 32 9 39 4 12 -26 23
-67 23 -17 0 -33 -9 -42 -22z"/>
<path d="M2058 2583 c-29 -8 -34 -104 -8 -153 7 -12 10 -33 7 -46 -2 -14 0
-27 4 -30 5 -3 9 -58 9 -123 0 -104 2 -120 20 -136 14 -13 28 -16 52 -11 18 3
53 9 78 12 25 4 50 11 57 16 20 16 257 15 276 0 9 -8 20 -11 25 -8 5 3 31 -6
58 -19 59 -30 68 -31 94 -5 23 23 26 58 7 84 -22 30 -194 68 -312 68 -33 0
-138 -12 -165 -19 -14 -3 -39 -7 -55 -8 -28 -2 -31 0 -31 29 -1 58 -15 186
-25 218 -5 18 -9 48 -9 65 0 20 -8 41 -20 53 -20 20 -29 22 -62 13z"/>
<path d="M1195 2100 c-38 -8 -89 -25 -112 -38 -23 -12 -50 -22 -61 -22 -10 0
-23 -5 -29 -11 -6 -6 -19 -12 -29 -13 -29 -4 -73 -75 -71 -115 2 -26 9 -37 32
-50 17 -9 40 -26 53 -38 27 -28 40 -28 72 -3 14 11 30 20 36 20 19 0 87 108
88 139 2 29 50 52 116 55 53 3 69 -1 98 -20 36 -25 62 -31 62 -15 0 5 8 12 18
15 16 5 26 46 11 46 -3 0 -19 11 -35 25 -36 32 -60 38 -124 33 -27 -1 -51 -1
-53 2 -1 3 -33 -2 -72 -10z"/>
<path d="M2280 1940 c-108 -13 -217 -49 -247 -82 -10 -11 -17 -22 -15 -24 1
-2 2 -5 1 -6 -14 -50 3 -88 51 -113 38 -19 120 -18 120 2 0 8 5 11 11 7 10 -6
59 40 59 55 0 3 14 22 31 41 29 33 34 35 92 34 90 -2 98 -5 129 -36 33 -34 61
-36 81 -5 12 19 13 28 2 53 -11 27 -55 75 -55 61 0 -4 -12 -2 -27 4 -33 13
-155 18 -233 9z"/>
<path d="M1540 1544 c-8 -8 -15 -28 -17 -44 -2 -23 7 -37 58 -84 33 -31 70
-56 82 -57 53 -2 96 3 160 18 56 14 71 22 83 45 11 21 12 32 2 53 -6 14 -15
26 -20 26 -4 1 -14 2 -20 3 -7 1 -19 -2 -25 -7 -7 -5 -13 -7 -13 -3 0 4 -11
-1 -25 -10 -14 -9 -47 -17 -75 -17 -39 -1 -55 4 -75 23 -14 13 -25 29 -25 35
0 12 -42 35 -64 35 -8 0 -19 -7 -26 -16z"/>
<path d="M1790 1170 c-35 -10 -68 -17 -71 -14 -12 7 -71 -17 -194 -77 -77 -38
-138 -61 -170 -65 -54 -6 -275 -116 -275 -136 0 -5 -6 -8 -14 -8 -8 0 -17 -11
-20 -25 -7 -27 11 -65 31 -65 13 0 65 21 73 30 24 25 73 48 102 48 20 0 44 4
54 10 22 11 82 23 139 28 44 3 116 -10 185 -34 25 -9 51 -17 59 -18 8 -2 17
-7 20 -13 4 -6 23 -17 43 -25 20 -9 43 -23 52 -31 9 -9 28 -18 43 -21 15 -3
30 -7 35 -10 23 -14 142 -53 150 -48 5 3 21 7 37 9 46 6 101 33 101 49 0 8 6
21 13 28 18 18 54 115 61 162 6 45 -20 113 -46 122 -9 3 -15 11 -12 18 6 14
-58 60 -96 69 -186 43 -202 44 -300 17z m130 -120 c7 -17 11 -33 8 -35 -2 -2
-33 -5 -68 -7 l-64 -3 -7 32 c-7 35 -1 38 82 42 32 1 38 -3 49 -29z m108 10
c7 0 12 -13 12 -30 0 -23 -5 -30 -19 -30 -37 0 -51 12 -51 42 0 27 3 30 23 24
12 -3 28 -6 35 -6z m-290 -17 c-4 -21 -49 -33 -95 -26 -35 6 -36 7 -12 16 21
8 75 22 102 26 5 0 7 -7 5 -16z m372 -33 c0 -5 -4 -10 -10 -10 -5 0 -10 5 -10
10 0 6 5 10 10 10 6 0 10 -4 10 -10z m-362 -65 l12 -25 -33 16 c-17 10 -43 20
-57 25 -20 6 -16 7 21 8 40 1 47 -2 57 -24z m156 12 c13 -9 16 -22 12 -52 -2
-22 -5 -43 -5 -46 -1 -11 -41 -18 -41 -8 0 5 -6 9 -13 9 -24 0 -57 40 -57 70
0 26 4 29 38 33 20 2 40 4 43 5 3 1 13 -4 23 -11z m147 -26 c5 -118 -24 -160
-80 -113 -18 15 -20 24 -15 70 6 48 9 53 38 60 48 13 56 11 57 -17z m75 -30
c2 -28 -30 -71 -38 -50 -8 22 11 81 25 76 7 -2 13 -14 13 -26z"/>
</g>
</svg>
