<?xml version="1.0" standalone="no"?>
<!DOCTYPE svg PUBLIC "-//W3C//DTD SVG 20010904//EN"
 "http://www.w3.org/TR/2001/REC-SVG-20010904/DTD/svg10.dtd">
<svg version="1.0" xmlns="http://www.w3.org/2000/svg"
 width="379.000000pt" height="361.000000pt" viewBox="0 0 379.000000 361.000000"
 preserveAspectRatio="xMidYMid meet">
<metadata>
Created by potrace 1.16, written by Peter Selinger 2001-2019
</metadata>
<g transform="translate(0.000000,361.000000) scale(0.100000,-0.100000)"
fill="#000000" stroke="none">
<path d="M1999 3390 c-8 -5 -61 -11 -118 -15 -118 -8 -115 -7 -196 -34 -52
-17 -257 -74 -308 -86 -73 -17 -278 -182 -359 -288 -20 -27 -57 -72 -82 -100
-25 -29 -51 -59 -58 -68 -15 -18 -88 -163 -88 -174 0 -5 -6 -16 -13 -24 -8 -9
-24 -41 -36 -71 -34 -80 -61 -140 -65 -140 -1 0 -25 11 -52 25 -40 21 -58 25
-99 20 -108 -13 -146 -40 -186 -130 -24 -57 -28 -74 -30 -165 -2 -45 3 -75 14
-97 10 -18 18 -36 19 -40 1 -9 14 -44 34 -91 8 -18 14 -39 14 -47 0 -7 3 -15
8 -17 4 -1 20 -30 35 -63 16 -33 32 -67 38 -75 5 -8 15 -28 22 -45 8 -16 21
-36 30 -44 10 -7 17 -19 17 -27 0 -7 6 -17 14 -21 7 -4 21 -22 29 -40 9 -17
32 -41 52 -53 19 -12 35 -26 35 -31 0 -17 62 -143 91 -186 16 -23 29 -45 29
-50 0 -4 40 -49 88 -99 88 -93 217 -202 284 -243 21 -12 41 -28 45 -34 9 -14
54 -41 96 -58 15 -6 27 -15 27 -19 0 -4 12 -10 28 -13 15 -3 54 -16 87 -30
109 -45 90 -38 214 -71 79 -21 117 -25 225 -24 72 0 136 3 141 6 6 4 19 8 30
9 50 7 215 53 225 63 3 3 34 19 70 35 71 33 187 100 207 121 7 7 22 16 33 19
19 6 250 233 250 246 0 3 15 21 33 40 57 61 87 99 80 99 -5 1 3 7 17 15 14 7
25 17 25 22 1 21 28 54 56 68 16 9 27 20 24 25 -3 5 4 11 15 15 11 4 18 10 15
14 -2 5 18 28 46 52 27 24 72 74 100 112 28 37 54 67 58 67 3 0 15 14 25 32
21 35 39 58 76 97 14 15 40 51 59 81 18 30 47 74 62 98 16 23 38 77 50 119 11
42 22 80 24 83 6 10 7 82 1 105 -2 11 -5 27 -5 35 -1 8 -12 28 -26 44 -14 16
-25 32 -25 35 0 11 -62 34 -94 34 -61 -1 -116 -17 -129 -40 -18 -29 -30 -12
-24 34 8 70 -45 303 -80 358 -7 11 -13 27 -13 37 0 10 -4 18 -10 18 -5 0 -10
7 -10 15 0 7 -6 18 -13 22 -7 4 -19 22 -26 40 -7 17 -53 72 -103 122 -49 50
-86 91 -82 91 4 0 -12 14 -37 32 -24 18 -47 36 -50 40 -9 13 -175 102 -192
103 -4 0 -11 5 -15 10 -4 6 -16 11 -27 13 -30 5 -109 35 -115 44 -4 4 -26 10
-49 13 -24 3 -49 9 -55 12 -19 12 -47 14 -232 17 -100 2 -187 0 -195 -4z m386
-115 c38 -10 82 -24 98 -32 15 -8 27 -12 27 -9 0 14 230 -92 243 -111 4 -7 14
-13 21 -13 7 0 25 -12 40 -26 14 -15 26 -24 26 -21 0 3 15 -9 33 -27 77 -80
105 -114 100 -120 -4 -3 -1 -6 6 -6 18 0 80 -70 87 -97 3 -13 10 -23 16 -23 8
0 41 -66 36 -72 -1 -2 7 -21 19 -43 22 -42 41 -108 46 -160 2 -17 6 -36 10
-41 7 -11 10 -89 11 -254 1 -105 -8 -183 -26 -230 -5 -14 -9 -25 -8 -25 4 0
-11 -81 -22 -120 -14 -55 -27 -91 -53 -150 -12 -27 -25 -57 -29 -65 -3 -8 -15
-28 -26 -45 -11 -16 -23 -38 -26 -48 -4 -9 -9 -17 -13 -17 -4 0 -13 -16 -20
-35 -7 -19 -18 -40 -24 -47 -7 -7 -29 -36 -49 -65 -20 -28 -45 -62 -55 -75
-30 -39 -275 -281 -322 -318 -24 -19 -49 -40 -56 -47 -7 -7 -39 -24 -71 -38
-33 -15 -66 -31 -74 -36 -8 -5 -31 -16 -50 -25 -19 -8 -44 -19 -55 -24 -11 -5
-38 -14 -60 -21 -22 -6 -51 -15 -65 -20 -69 -23 -158 -32 -258 -26 -113 7
-116 7 -202 30 -59 16 -82 24 -117 38 -13 5 -33 13 -45 18 -67 26 -78 31 -78
41 0 6 -4 9 -9 5 -14 -8 -214 114 -266 162 -11 10 -38 32 -60 48 -66 48 -154
136 -196 197 -21 31 -39 59 -39 61 0 3 -19 45 -42 94 -44 93 -46 98 -54 153
-2 19 -8 49 -13 65 -10 39 -15 149 -14 315 3 205 19 285 92 445 18 39 39 86
48 105 41 92 69 145 75 148 4 2 17 24 30 49 12 24 30 49 39 54 9 4 26 23 36
42 20 34 30 45 125 151 55 60 149 138 204 168 17 9 58 24 90 33 33 9 84 25
115 35 31 11 72 21 91 23 18 2 39 6 45 10 6 4 47 10 90 13 43 3 92 10 108 15
17 4 61 10 98 13 38 2 70 6 73 8 2 3 59 6 126 7 87 2 143 -3 193 -14z m-1778
-963 c25 -17 31 -29 29 -54 0 -18 -4 -36 -9 -39 -4 -3 -10 -25 -13 -50 -3 -24
-7 -55 -9 -69 -3 -13 -4 -72 -5 -130 0 -58 0 -135 0 -171 -1 -36 4 -77 9 -92
14 -35 -2 -35 -20 1 -8 15 -17 29 -20 32 -11 9 -99 199 -99 214 0 8 -4 18 -10
21 -5 3 -10 13 -10 21 0 8 -9 34 -21 57 -15 32 -20 60 -20 115 1 40 6 78 11
85 6 7 20 25 31 40 38 50 102 57 156 19z m2853 -1 c0 -5 9 -13 20 -16 11 -4
18 -11 14 -16 -3 -6 -2 -15 3 -22 14 -17 16 -104 4 -112 -6 -3 -11 -15 -11
-25 0 -21 -39 -108 -68 -151 -52 -79 -74 -109 -116 -157 -25 -29 -50 -61 -55
-70 -15 -27 -21 -9 -10 33 5 22 12 51 15 65 3 14 9 26 14 28 5 2 7 9 4 17 -3
7 -1 30 5 51 6 22 13 57 16 79 3 22 8 46 10 53 3 7 5 50 6 97 1 81 2 85 31
107 46 36 118 59 118 39z"/>
<path d="M1495 2409 c-107 -26 -142 -45 -149 -82 -3 -17 -5 -31 -4 -32 2 -1
13 -9 26 -17 21 -15 27 -14 74 9 94 45 174 38 244 -20 55 -46 107 -46 125 -1
11 30 -11 70 -44 80 -12 4 -24 10 -27 13 -10 14 -76 49 -105 55 -16 4 -37 9
-45 11 -8 2 -51 -6 -95 -16z"/>
<path d="M2350 2368 c-19 -12 -62 -36 -95 -53 -46 -24 -59 -36 -58 -53 3 -61
1 -59 36 -54 17 2 39 10 47 18 35 30 110 55 143 48 18 -4 41 -8 52 -9 36 -3
70 -17 94 -41 13 -13 31 -24 41 -24 21 0 60 41 56 60 -6 31 -30 70 -43 70 -8
0 -28 7 -45 16 -17 9 -58 17 -90 19 -33 1 -64 7 -70 13 -17 17 -28 15 -68 -10z"/>
<path d="M1527 2223 c-15 -7 -27 -18 -27 -23 0 -6 -7 -10 -15 -10 -18 0 -30
-58 -21 -104 5 -26 15 -38 41 -50 45 -22 80 -7 107 46 21 40 36 138 22 138 -5
0 -25 4 -45 9 -25 6 -44 4 -62 -6z"/>
<path d="M2346 2199 c-54 -42 -68 -105 -35 -157 8 -12 21 -22 29 -23 8 0 23
-2 33 -4 10 -2 32 8 50 23 17 14 33 27 35 28 2 1 5 23 7 49 4 53 -5 68 -59 90
-31 13 -36 13 -60 -6z"/>
<path d="M2490 1846 c-9 -12 -8 -30 5 -85 16 -66 16 -75 1 -135 -29 -118 -17
-196 33 -209 27 -7 71 32 86 77 16 45 11 89 -20 176 -12 36 -28 83 -34 105
-25 83 -44 102 -71 71z m83 -302 c3 -80 -39 -112 -49 -37 -2 15 1 57 7 92 l12
64 14 -34 c8 -19 15 -57 16 -85z"/>
<path d="M1180 1815 c0 -14 -4 -25 -8 -25 -5 0 -18 -17 -29 -37 -12 -21 -30
-47 -41 -59 -23 -25 -48 -71 -67 -124 -13 -36 -12 -40 8 -64 31 -35 71 -43 96
-19 27 25 51 94 57 161 3 33 14 68 29 92 26 41 32 70 15 70 -5 0 -10 7 -10 15
0 9 -9 15 -25 15 -20 0 -25 -5 -25 -25z m-36 -182 c-13 -62 -30 -113 -38 -113
-3 0 -10 9 -16 19 -7 14 -5 30 6 58 15 34 51 93 58 93 1 0 -3 -26 -10 -57z"/>
<path d="M1980 1733 c0 -5 -19 -17 -42 -27 -37 -16 -49 -17 -86 -7 -54 14 -58
14 -76 -5 -25 -24 -20 -63 9 -76 14 -6 25 -15 25 -19 0 -4 22 -10 49 -14 36
-5 57 -2 81 10 17 9 38 14 46 11 8 -3 14 -1 14 4 0 6 9 10 20 10 10 0 24 8 29
18 12 23 9 72 -6 72 -6 0 -13 4 -15 9 -4 11 -48 24 -48 14z"/>
<path d="M2056 1353 c-4 -4 -53 -8 -109 -8 -56 -1 -109 -4 -117 -7 -8 -3 -33
-11 -56 -17 -22 -6 -49 -20 -59 -31 -10 -11 -27 -20 -37 -20 -10 0 -21 -7 -24
-15 -4 -8 -14 -15 -24 -15 -11 0 -35 -9 -54 -21 -20 -12 -36 -18 -36 -14 0 4
-7 2 -15 -5 -9 -7 -42 -12 -81 -11 -103 1 -131 -27 -79 -83 23 -25 27 -26 97
-19 40 3 89 13 108 22 19 8 37 15 40 16 13 2 78 40 106 61 50 38 170 63 282
59 103 -3 145 -14 159 -40 5 -9 22 -25 37 -35 26 -17 30 -17 58 -1 28 15 29
19 24 64 -5 50 -38 91 -63 82 -7 -2 -13 -1 -13 4 0 7 -37 18 -116 36 -11 3
-24 2 -28 -2z"/>
<path d="M787 812 c-20 -31 -46 -68 -57 -82 -25 -32 -54 -144 -46 -179 4 -14
8 -31 9 -38 6 -26 41 -53 69 -53 30 0 68 30 68 54 0 8 4 16 10 18 5 2 13 50
16 108 3 60 12 118 20 134 18 38 18 61 -2 80 -27 27 -48 17 -87 -42z m38 -65
c-6 -18 -16 -105 -20 -166 -2 -39 -8 -59 -21 -68 -16 -12 -21 -11 -36 9 -22
29 -22 57 -1 127 18 60 59 125 73 116 5 -3 7 -11 5 -18z"/>
<path d="M2706 771 c-16 -17 -22 -31 -17 -37 20 -20 21 -108 2 -174 -33 -111
-40 -167 -24 -198 18 -34 31 -42 68 -42 40 0 49 7 74 59 25 53 27 94 5 156 -8
26 -13 52 -11 58 2 7 0 21 -6 32 -5 10 -10 31 -9 46 0 15 -6 33 -14 40 -8 6
-14 26 -14 44 0 44 -21 50 -54 16z m41 -143 c-3 -8 -6 -5 -6 6 -1 11 2 17 5
13 3 -3 4 -12 1 -19z m22 -65 c22 -98 18 -135 -16 -168 -33 -30 -38 -31 -40
-7 -1 9 -3 22 -4 27 -4 16 13 107 26 140 7 16 10 36 8 43 -3 6 0 12 5 12 6 0
15 -21 21 -47z"/>
</g>
</svg>
