<?xml version="1.0" standalone="no"?>
<!DOCTYPE svg PUBLIC "-//W3C//DTD SVG 20010904//EN"
 "http://www.w3.org/TR/2001/REC-SVG-20010904/DTD/svg10.dtd">
<svg version="1.0" xmlns="http://www.w3.org/2000/svg"
 width="509.000000pt" height="381.000000pt" viewBox="0 0 509.000000 381.000000"
 preserveAspectRatio="xMidYMid meet">
<metadata>
Created by potrace 1.16, written by Peter Selinger 2001-2019
</metadata>
<g transform="translate(0.000000,381.000000) scale(0.100000,-0.100000)"
fill="#000000" stroke="none">
<path d="M2610 3377 c-3 -3 -34 -6 -70 -8 -36 -1 -85 -7 -110 -15 -25 -7 -63
-15 -85 -18 -22 -3 -54 -10 -69 -16 -16 -6 -35 -9 -41 -6 -7 2 -24 -1 -37 -8
-14 -7 -46 -21 -71 -31 -26 -10 -47 -21 -47 -26 0 -4 -8 -10 -18 -14 -11 -3
-47 -30 -82 -60 -35 -30 -68 -55 -74 -55 -6 0 -25 -13 -43 -28 -17 -15 -49
-40 -70 -57 -68 -54 -179 -170 -202 -212 -6 -12 -18 -29 -27 -38 -10 -9 -37
-56 -62 -103 -24 -48 -60 -116 -78 -151 -18 -35 -32 -67 -32 -70 1 -3 -4 -17
-11 -31 -11 -22 -19 -25 -69 -26 -119 -3 -254 -99 -293 -209 -36 -104 -40
-203 -11 -267 12 -26 22 -52 22 -57 0 -6 5 -11 10 -11 6 0 10 -8 10 -17 0 -10
23 -34 51 -53 28 -19 59 -42 69 -52 10 -9 26 -18 37 -20 16 -3 18 -14 18 -93
1 -50 4 -95 8 -101 6 -11 24 -117 32 -189 2 -16 11 -48 20 -69 9 -22 18 -47
20 -55 8 -36 88 -219 112 -256 45 -69 176 -249 208 -284 84 -95 141 -138 260
-194 130 -62 139 -65 336 -112 155 -37 285 -33 434 12 47 14 61 19 118 42 12
5 39 15 60 21 21 7 74 32 118 56 43 24 84 44 89 44 6 0 10 3 10 8 0 4 12 13
28 19 15 7 46 30 69 50 23 21 62 54 87 73 25 19 45 40 46 47 0 7 6 16 14 20 8
4 24 26 37 48 12 22 29 47 36 55 19 20 83 120 77 120 -2 0 7 18 21 40 14 22
25 48 25 59 0 11 3 21 8 23 12 5 82 145 111 221 24 64 30 71 80 98 52 29 164
118 188 150 21 28 85 89 93 89 4 0 11 11 14 25 4 14 11 25 17 25 5 0 22 25 36
56 36 80 36 178 0 255 -15 31 -27 58 -27 61 0 3 -15 21 -34 41 -33 35 -36 36
-121 41 -48 3 -88 6 -90 8 -1 2 -5 44 -9 93 -9 136 -16 182 -37 248 -10 33
-19 65 -19 71 0 6 -12 36 -27 66 -14 30 -32 69 -38 86 -11 29 -92 159 -121
194 -53 64 -162 179 -174 184 -8 3 -36 26 -62 50 -25 25 -49 42 -53 38 -3 -4
-11 1 -17 12 -10 18 -106 66 -132 66 -7 0 -19 6 -25 14 -6 8 -31 19 -54 24
-23 6 -60 19 -82 28 -22 9 -49 18 -60 20 -61 7 -241 15 -245 11z m180 -118
c105 -18 113 -21 216 -70 45 -21 84 -39 88 -39 7 0 68 -41 76 -51 3 -4 28 -24
55 -45 85 -64 202 -188 263 -279 47 -69 59 -93 104 -214 38 -102 46 -134 52
-212 2 -20 6 -41 8 -45 12 -21 16 -370 5 -449 -13 -93 -68 -301 -87 -330 -4
-5 -12 -30 -19 -55 -7 -25 -22 -65 -33 -90 -12 -25 -31 -70 -45 -100 -13 -30
-29 -64 -35 -75 -6 -10 -21 -37 -33 -60 -105 -195 -177 -304 -237 -355 -23
-19 -54 -46 -68 -60 -26 -26 -75 -55 -200 -118 -41 -21 -86 -45 -100 -54 -14
-9 -43 -22 -65 -29 -22 -7 -44 -16 -50 -20 -12 -7 -118 -33 -196 -47 -31 -6
-83 -8 -115 -5 -32 2 -66 5 -74 5 -19 0 -182 49 -287 86 -128 45 -267 148
-361 268 -12 16 -42 55 -67 86 -25 32 -45 59 -45 61 0 2 -24 46 -54 98 -29 52
-57 105 -60 119 -4 14 -11 34 -16 45 -17 43 -50 152 -55 184 -3 19 -8 37 -11
42 -6 11 -17 140 -17 209 0 110 15 313 25 340 3 8 11 42 18 75 19 99 52 206
86 282 13 28 24 56 24 61 0 15 71 163 94 197 12 16 31 41 44 55 12 14 25 33
28 43 3 9 9 17 13 17 5 0 14 14 21 30 7 17 16 30 19 30 4 0 23 21 42 46 19 25
54 61 79 80 25 18 65 49 90 68 103 80 139 106 145 106 4 0 19 8 33 19 45 31
141 82 185 97 50 18 158 35 249 39 37 2 75 8 85 14 22 13 109 13 183 0z
m-1463 -957 c8 -2 4 -25 -12 -74 -59 -181 -60 -188 -72 -330 -3 -32 -7 -58
-11 -58 -3 0 -24 11 -47 25 -75 43 -116 181 -78 255 7 14 13 32 13 40 0 26 35
70 87 108 46 35 66 41 120 34z m2549 -242 c34 -12 47 -30 72 -102 16 -46 17
-61 7 -109 -10 -53 -50 -129 -67 -129 -5 0 -8 -6 -9 -12 -1 -12 -46 -53 -151
-139 -40 -33 -47 -26 -24 19 8 16 17 48 21 72 3 25 13 78 21 118 8 40 15 113
16 161 1 95 2 102 33 119 25 14 44 15 81 2z"/>
<path d="M2281 2855 c-5 -5 -13 -32 -20 -60 -13 -57 -38 -115 -49 -115 -4 0
-16 -16 -26 -35 -11 -19 -22 -35 -26 -35 -3 0 -22 -13 -40 -30 -18 -16 -39
-30 -46 -30 -6 0 -17 -6 -23 -14 -7 -8 -27 -18 -44 -21 -18 -4 -49 -18 -69
-31 -21 -13 -41 -24 -46 -24 -4 0 -49 -39 -99 -87 -59 -58 -100 -107 -118
-143 -15 -30 -33 -58 -40 -63 -8 -4 -21 -27 -31 -52 -13 -35 -14 -48 -5 -59
12 -14 51 -11 51 4 0 4 20 29 45 56 25 26 61 71 79 98 19 28 45 60 57 72 13
11 30 30 38 42 8 11 18 19 21 17 4 -3 15 4 25 15 10 11 22 17 26 14 5 -3 9 -1
9 4 0 13 55 44 108 61 23 8 42 17 42 21 0 3 17 16 38 27 35 20 103 83 89 83
-3 0 4 10 16 23 36 38 57 67 57 77 0 5 8 24 19 43 10 18 22 49 26 68 4 19 12
37 17 40 7 4 6 14 -1 28 -9 15 -20 21 -42 19 -17 -1 -34 -7 -38 -13z"/>
<path d="M2969 2693 c-21 -52 -2 -175 31 -203 10 -8 41 -42 69 -75 29 -32 64
-64 80 -71 15 -6 40 -23 55 -38 16 -14 32 -23 37 -21 4 3 23 -10 41 -28 18
-18 45 -38 61 -45 15 -6 28 -17 29 -24 3 -27 5 -34 21 -72 9 -21 17 -45 17
-52 0 -24 24 -104 31 -104 9 0 -11 -81 -23 -97 -20 -25 -27 -72 -12 -84 21
-17 36 0 78 85 40 81 42 90 22 137 -8 19 -17 56 -20 82 -11 77 -59 169 -101
191 -19 11 -35 23 -35 27 0 12 -72 59 -82 53 -4 -3 -8 -1 -8 5 0 5 -17 19 -37
32 -43 25 -78 61 -137 139 -36 49 -41 62 -42 114 -1 59 -11 76 -47 76 -10 0
-22 -12 -28 -27z"/>
<path d="M2068 2176 c-21 -8 -38 -11 -38 -9 0 3 -6 1 -12 -5 -7 -5 -32 -15
-55 -21 -46 -13 -70 -32 -124 -101 -41 -51 -50 -70 -57 -120 -8 -57 -7 -72 7
-143 13 -68 15 -70 67 -103 29 -19 66 -39 81 -45 33 -12 152 -19 158 -9 3 4
25 13 50 20 25 7 45 16 45 21 0 4 9 11 21 14 11 4 23 14 27 23 4 10 24 42 45
73 97 144 84 328 -28 393 -50 30 -125 34 -187 12z m136 -105 c23 -25 44 -83
41 -111 -6 -53 -17 -95 -26 -98 -5 -2 -9 -10 -9 -18 0 -34 -50 -88 -101 -109
-49 -21 -54 -21 -113 -7 -66 16 -96 35 -96 62 0 9 -5 21 -11 27 -17 17 -13
126 6 139 8 6 15 15 15 20 0 19 49 65 86 80 95 41 180 47 208 15z"/>
<path d="M1989 2032 c-30 -6 -40 -92 -15 -118 19 -18 61 -18 90 1 29 19 54 74
39 83 -5 4 -12 14 -15 22 -4 14 -58 21 -99 12z"/>
<path d="M3069 2158 c-13 -5 -31 -16 -41 -25 -10 -9 -25 -13 -34 -9 -10 4 -20
2 -24 -3 -3 -6 -15 -12 -27 -14 -24 -3 -89 -71 -99 -102 -4 -11 -17 -36 -30
-56 -29 -46 -39 -127 -24 -190 7 -27 15 -49 18 -49 4 0 18 -16 31 -35 13 -19
30 -35 37 -35 8 0 14 -3 14 -8 0 -13 83 -53 115 -55 37 -3 100 18 133 43 13
11 28 17 33 15 10 -7 89 74 89 91 0 6 6 17 14 23 8 7 18 26 21 42 4 16 10 29
14 29 11 0 35 121 32 159 -2 19 -8 46 -13 60 -6 14 -12 33 -12 41 -1 8 -11 19
-23 26 -13 6 -31 18 -40 26 -35 31 -133 45 -184 26z m124 -106 c55 -28 63
-103 21 -213 -13 -36 -35 -75 -47 -87 -35 -32 -99 -64 -119 -59 -10 3 -20 1
-23 -3 -8 -13 -44 -8 -49 7 -3 7 -17 18 -30 23 -29 11 -57 59 -61 106 -3 30 9
62 59 154 5 9 23 22 40 29 17 7 41 17 54 22 12 5 25 16 29 25 7 19 84 17 126
-4z"/>
<path d="M2954 1930 c-35 -14 -43 -123 -10 -148 17 -14 56 -21 56 -10 0 5 5 6
10 3 6 -3 13 2 16 12 3 10 10 26 15 35 16 30 10 64 -16 92 -25 27 -37 30 -71
16z"/>
<path d="M2555 1590 c-11 -4 -23 -6 -27 -3 -5 2 -8 -3 -8 -11 0 -12 -11 -16
-50 -16 -27 0 -50 5 -50 10 0 12 -48 3 -67 -13 -31 -24 -5 -96 35 -98 9 0 31
-3 47 -6 17 -3 60 1 97 8 59 10 68 15 79 40 22 54 -11 106 -56 89z"/>
<path d="M2507 1203 c-26 -14 -79 -54 -117 -90 -37 -36 -81 -72 -97 -80 -68
-38 -84 -44 -106 -47 -12 -1 -28 -6 -35 -10 -7 -4 -28 -6 -47 -5 -19 2 -37 0
-41 -4 -10 -10 -82 -9 -88 2 -10 15 -76 23 -92 10 -18 -15 -18 -63 1 -79 8 -7
15 -9 15 -4 0 4 10 -2 23 -13 12 -11 31 -21 42 -22 54 -3 162 -2 175 2 8 3 36
11 63 17 26 7 47 17 47 22 0 5 5 6 10 3 6 -4 18 -1 27 7 9 7 18 12 20 10 9 -7
65 33 128 93 90 85 119 98 220 97 44 -1 87 -3 95 -5 72 -18 103 -31 126 -52
37 -34 59 -39 83 -18 43 36 19 101 -48 136 -66 35 -139 49 -255 52 -89 1 -107
-1 -149 -22z"/>
<path d="M289 3185 c-13 -8 -34 -19 -47 -25 -43 -19 -80 -65 -102 -125 -25
-72 -23 -111 12 -185 27 -58 53 -81 84 -75 11 2 27 4 37 4 12 1 16 5 10 13 -4
7 -6 25 -4 40 1 16 -2 28 -8 28 -6 0 -11 7 -11 15 0 8 -4 15 -9 15 -12 0 -23
82 -15 114 3 14 14 28 24 31 10 3 30 16 46 30 32 27 72 25 113 -6 39 -31 92
-112 90 -139 -1 -14 0 -32 3 -40 3 -8 12 -58 21 -110 15 -93 25 -126 49 -165
38 -58 94 -72 122 -30 14 22 15 29 2 59 -8 18 -19 37 -25 40 -25 16 -44 75
-51 164 -5 52 -13 98 -18 101 -6 3 -14 24 -18 46 -23 126 -215 251 -305 200z"/>
<path d="M4633 3149 c-23 -7 -37 -20 -52 -52 -12 -24 -21 -48 -21 -53 0 -5 -6
-21 -14 -35 -16 -31 -12 -41 29 -61 26 -14 32 -14 52 -1 13 9 23 22 23 29 0 8
4 14 9 14 5 0 14 13 20 28 10 24 17 28 41 24 17 -2 30 -9 30 -14 0 -6 6 -8 14
-5 20 8 28 -4 14 -20 -9 -12 -7 -13 13 -8 22 5 26 1 40 -37 9 -25 14 -64 12
-93 -3 -45 -8 -54 -55 -97 -28 -26 -54 -45 -59 -42 -5 3 -9 1 -9 -5 0 -5 -21
-13 -47 -16 -54 -7 -185 -45 -193 -55 -7 -10 -115 -60 -128 -60 -7 0 -12 -5
-12 -11 0 -6 -7 -17 -15 -25 -16 -17 -11 -39 18 -71 25 -28 58 -29 77 -4 7 11
17 18 22 15 4 -3 8 2 8 10 0 9 7 16 16 16 9 0 30 7 47 16 18 9 40 21 51 26 33
17 158 47 172 41 8 -3 14 0 14 6 0 6 7 11 15 11 8 0 15 5 15 10 0 6 5 10 11
10 10 0 69 41 96 66 37 35 73 124 75 184 1 56 -59 199 -84 200 -5 0 -17 8 -27
18 -11 9 -26 22 -34 29 -20 16 -143 24 -184 12z"/>
<path d="M808 2483 c-8 -10 -20 -31 -25 -47 -8 -25 -5 -33 18 -59 23 -25 32
-29 62 -23 21 4 38 15 47 30 11 21 9 30 -11 68 -27 49 -64 62 -91 31z"/>
<path d="M4204 2298 c-4 -5 -15 -7 -25 -5 -14 4 -24 -3 -35 -24 -14 -28 -13
-32 7 -60 41 -59 107 -58 122 1 6 23 5 36 -2 38 -6 2 -11 14 -11 27 0 16 -7
24 -25 27 -14 3 -28 1 -31 -4z"/>
</g>
</svg>
