<?xml version="1.0" standalone="no"?>
<!DOCTYPE svg PUBLIC "-//W3C//DTD SVG 20010904//EN"
 "http://www.w3.org/TR/2001/REC-SVG-20010904/DTD/svg10.dtd">
<svg version="1.0" xmlns="http://www.w3.org/2000/svg"
 width="509.000000pt" height="347.000000pt" viewBox="0 0 509.000000 347.000000"
 preserveAspectRatio="xMidYMid meet">
<metadata>
Created by potrace 1.16, written by Peter Selinger 2001-2019
</metadata>
<g transform="translate(0.000000,347.000000) scale(0.100000,-0.100000)"
fill="#000000" stroke="none">
<path d="M3570 3119 c-18 -4 -40 -15 -47 -25 -15 -21 -17 -50 -4 -58 5 -3 12
-18 16 -33 3 -15 10 -30 14 -33 4 -3 22 -34 40 -70 18 -36 36 -67 40 -70 4 -3
15 -27 26 -55 10 -27 26 -62 36 -77 11 -14 37 -66 60 -115 23 -48 59 -125 80
-170 21 -44 39 -85 39 -91 0 -5 8 -20 18 -33 10 -13 27 -44 37 -69 11 -25 41
-85 68 -134 26 -49 46 -95 43 -103 -3 -7 -16 -18 -30 -24 -13 -6 -27 -20 -29
-31 -6 -23 11 -68 26 -68 6 0 8 -3 5 -6 -6 -6 1 -16 49 -69 13 -15 39 -50 58
-78 19 -29 43 -64 55 -79 11 -14 20 -28 20 -31 0 -2 14 -20 32 -40 18 -19 42
-53 53 -74 38 -68 114 -85 163 -36 23 23 27 35 26 83 -1 55 -26 237 -44 320
-18 77 -20 93 -24 148 -5 71 -25 98 -76 107 -40 7 -106 -13 -121 -37 -9 -14
-33 29 -158 287 -62 127 -128 262 -148 300 -101 198 -133 266 -133 275 0 6
-11 26 -24 43 -13 18 -37 57 -53 87 -33 59 -56 71 -113 59z"/>
<path d="M1515 3108 c-11 -6 -22 -14 -25 -17 -22 -26 -54 -43 -85 -46 -21 -2
-42 -11 -50 -22 -18 -24 -26 -79 -18 -128 10 -62 7 -126 -6 -170 -7 -22 -13
-54 -14 -71 0 -30 -3 -32 -46 -37 -25 -3 -47 -10 -49 -16 -2 -6 -8 -11 -13
-11 -5 0 -35 -27 -67 -59 -47 -47 -62 -71 -77 -120 -10 -34 -20 -61 -22 -61
-2 0 -14 7 -26 14 -12 8 -31 13 -42 11 -11 -2 -23 -4 -28 -4 -7 -1 -20 -12
-135 -117 -98 -89 -134 -215 -83 -285 28 -37 26 -48 -6 -47 -67 1 -134 -53
-164 -133 -10 -24 -20 -53 -25 -64 -12 -32 -13 -57 -2 -105 17 -78 17 -99 2
-114 -7 -8 -14 -17 -14 -21 0 -7 -26 -35 -33 -35 -2 0 -7 14 -11 31 -5 26 -10
30 -32 27 -18 -2 -31 -14 -46 -43 -11 -22 -24 -47 -29 -55 -5 -8 -15 -27 -24
-41 -23 -43 -34 -133 -19 -161 22 -39 17 -47 -23 -41 -33 4 -43 -1 -77 -31
-21 -19 -42 -37 -45 -38 -36 -16 -91 -148 -105 -249 -9 -71 20 -128 66 -129
13 0 15 -5 7 -27 -5 -16 -18 -63 -28 -106 l-18 -77 29 -32 c15 -17 28 -35 28
-40 0 -16 57 -37 84 -30 50 14 185 149 171 172 -3 4 1 13 9 19 11 9 10 1 -2
-41 -15 -56 -17 -86 -7 -96 3 -4 10 0 15 8 6 10 10 11 10 3 0 -20 53 -63 78
-63 29 0 64 19 116 65 16 14 31 25 33 25 6 0 -29 -65 -39 -71 -5 -3 -9 -8 -8
-10 1 -2 -3 -22 -9 -44 -15 -56 -14 -117 4 -142 40 -57 137 -28 237 73 60 59
86 65 55 13 -9 -17 -17 -42 -17 -56 0 -20 4 -24 20 -20 11 3 20 1 20 -5 0 -5
7 -16 16 -25 21 -22 85 -12 135 21 30 20 39 23 39 11 0 -21 19 -19 27 2 9 26
43 73 53 73 4 0 11 -15 14 -34 15 -79 84 -107 167 -66 l41 19 29 -32 c16 -17
29 -36 29 -42 0 -18 34 -32 80 -32 48 0 164 39 193 64 9 9 17 12 17 7 1 -5 10
2 20 15 l20 23 21 -26 c11 -15 36 -33 55 -41 30 -12 41 -12 86 2 29 8 55 18
58 22 3 3 16 12 30 19 14 7 35 27 47 44 l22 32 10 -25 c12 -33 33 -49 75 -59
30 -6 43 -2 93 27 32 19 64 44 71 55 10 14 17 16 27 8 13 -11 48 -3 41 9 -3 4
-1 13 3 20 5 7 10 -8 14 -39 8 -62 12 -70 42 -70 31 0 76 20 69 32 -3 5 -2 8
3 7 19 -3 33 2 33 11 0 11 10 24 43 61 9 10 17 22 17 27 -1 22 57 152 68 152
16 0 15 -15 -2 -30 -14 -11 -66 -152 -66 -175 0 -6 9 1 20 15 15 20 20 21 20
8 0 -30 65 -40 130 -21 30 10 57 20 60 23 3 3 28 20 56 38 27 17 61 43 74 57
28 30 40 32 33 5 -3 -11 -9 -20 -14 -20 -5 0 -9 -9 -9 -20 0 -30 20 -24 31 10
12 34 38 40 46 10 8 -31 76 -27 125 6 21 15 38 31 38 35 0 5 7 9 16 9 10 0 14
5 10 16 -3 8 -2 13 3 10 12 -8 64 61 84 113 11 29 15 58 12 79 -5 28 -10 32
-37 32 l-31 0 23 25 c32 34 43 55 102 185 31 68 16 130 -32 130 -32 0 -82 -19
-75 -29 2 -4 -5 -7 -16 -7 -10 0 -19 1 -19 2 0 1 13 28 29 60 20 40 26 65 21
79 -4 11 -5 25 -3 32 4 12 -30 36 -39 27 -6 -5 -93 -16 -123 -16 -10 1 -24 -3
-30 -8 -8 -7 -16 2 -25 30 -7 22 -16 40 -19 40 -4 0 13 40 37 89 30 63 43 102
44 135 0 26 -2 50 -6 53 -11 11 -64 5 -96 -12 l-31 -16 25 38 c33 50 66 147
66 194 0 48 -35 78 -70 59 -12 -6 -23 -10 -25 -8 -2 2 4 32 14 68 18 64 13
113 -14 132 -17 13 -70 9 -91 -7 -26 -20 -34 -19 -34 4 0 11 -4 22 -10 26 -5
3 -7 11 -5 18 11 29 -42 61 -85 52 -16 -3 -40 -17 -54 -30 -31 -29 -34 -18 -5
19 11 14 17 30 14 36 -4 6 -1 9 6 8 34 -8 49 181 18 218 -16 20 -89 17 -121
-4 -15 -10 -41 -37 -58 -60 -35 -49 -50 -53 -51 -14 0 15 -2 37 -5 50 -2 14 3
29 16 39 10 9 17 20 14 25 -3 4 -1 8 4 8 25 0 77 163 61 192 -6 10 -7 22 -4
27 3 5 -2 17 -11 25 -21 21 -74 14 -138 -19 -27 -14 -55 -25 -63 -25 -7 0 -13
-3 -13 -7 0 -5 -12 -21 -25 -38 l-26 -30 6 61 c5 41 3 70 -6 85 -7 13 -15 31
-19 39 -8 17 -70 27 -70 12 0 -6 -7 -13 -16 -16 -13 -5 -15 4 -13 63 2 38 8
69 13 68 5 -1 16 26 24 60 12 56 12 67 -3 107 -19 49 -47 64 -87 46 -27 -13
-68 -72 -68 -99 0 -11 -4 -23 -10 -26 -5 -3 -10 1 -10 9 0 22 -18 20 -23 -1
-2 -10 -2 12 -1 50 4 87 1 94 -41 91 -46 -4 -67 -16 -94 -56 -13 -18 -41 -41
-62 -50 -36 -15 -39 -15 -40 0 -1 37 -9 56 -27 74 -18 19 -24 19 -87 6 -75
-14 -77 -17 -135 -150 -11 -27 -22 -48 -24 -48 -2 0 -1 26 1 58 11 137 8 198
-9 215 -19 19 -64 22 -93 5z m59 -98 c-1 -51 -17 -81 -50 -96 -19 -9 -43 -27
-53 -40 -10 -13 -27 -24 -36 -24 -14 0 -16 6 -12 28 7 33 41 93 75 129 25 27
77 29 76 3z m496 -59 c0 -24 -60 -129 -89 -155 -11 -10 -27 -16 -36 -13 -36
14 2 99 50 111 14 4 25 14 25 23 0 18 28 53 42 53 4 0 8 -9 8 -19z m-231 -23
c4 -13 4 -38 -1 -58 -12 -42 -56 -110 -73 -110 -6 0 -20 -9 -30 -20 -10 -11
-24 -20 -30 -20 -20 0 -27 47 -14 93 15 52 36 77 63 77 12 0 29 13 41 30 24
36 33 37 44 8z m428 -29 c-7 -51 -20 -65 -74 -73 l-41 -6 14 29 c21 42 69 91
89 91 15 0 17 -7 12 -41z m-704 -116 c-16 -131 -151 -247 -176 -153 -3 11 -1
18 4 15 5 -3 18 15 30 40 23 48 42 70 99 109 47 32 49 32 43 -11z m530 7 c3
-12 -5 -33 -21 -54 -15 -19 -32 -42 -39 -52 -12 -18 -13 -18 -28 1 -15 18 -14
21 12 45 16 14 34 37 42 53 17 32 27 34 34 7z m147 -73 c0 -8 -6 -35 -14 -60
-8 -26 -13 -47 -11 -47 8 0 -72 -84 -96 -101 -26 -18 -28 -18 -49 -1 -21 17
-21 21 -9 62 7 25 25 61 41 82 43 55 138 100 138 65z m-355 -36 c-20 -20 -29
-8 -15 19 10 18 14 20 21 9 5 -9 3 -19 -6 -28z m-125 -36 c0 -10 -33 -60 -59
-87 -13 -16 -34 -28 -45 -28 -13 0 -16 3 -10 8 6 4 14 17 18 30 4 12 12 22 17
22 5 0 9 7 9 16 0 8 4 13 9 10 4 -3 16 3 26 14 17 19 35 26 35 15z m-120 -30
c-5 -13 -19 -34 -30 -45 -12 -12 -26 -35 -32 -51 -12 -35 -28 -38 -28 -6 0 24
19 56 58 100 32 34 44 35 32 2z m332 -7 c5 -15 -16 -98 -35 -135 -18 -34 -76
-93 -92 -93 -67 0 -24 168 52 205 18 9 35 20 38 25 9 14 33 12 37 -2z m387
-81 c-11 -40 -49 -91 -81 -108 -16 -8 -24 -7 -36 4 -19 20 -4 62 37 101 23 22
79 48 88 41 1 0 -2 -18 -8 -38z m271 6 c0 -28 -53 -122 -81 -142 -36 -27 -55
-22 -70 16 -11 29 1 73 20 73 5 0 25 14 43 30 18 17 39 30 46 30 8 0 12 6 8
15 -4 12 -2 13 14 2 11 -6 20 -17 20 -24z m-1346 -40 c-3 -21 -15 -57 -27 -80
-22 -45 -93 -123 -112 -123 -34 0 -45 55 -23 107 28 64 106 133 151 133 15 0
17 -6 11 -37z m193 -15 c22 -27 -18 -120 -71 -165 -56 -50 -95 -42 -91 18 3
53 66 129 125 152 23 8 27 8 37 -5z m253 -65 c-1 -10 -5 -37 -9 -61 -5 -23 -5
-45 0 -48 17 -10 9 -24 -14 -24 -25 0 -45 -20 -66 -65 -7 -17 -17 -37 -21 -45
-11 -24 -47 -24 -60 0 -35 65 72 260 143 260 19 0 27 -5 27 -17z m421 5 c4
-58 8 -66 44 -82 6 -3 6 -8 -2 -13 -6 -4 -23 -28 -38 -53 l-26 -45 7 35 c8 38
7 124 -2 152 -3 10 -1 18 5 18 6 0 11 -6 12 -12z m229 -7 c-15 -29 -13 -124 3
-119 6 3 14 13 15 24 6 30 16 35 29 15 9 -15 7 -23 -12 -44 -13 -14 -27 -37
-31 -52 -9 -36 -15 -26 -19 34 -2 27 -9 59 -15 71 -9 17 -7 27 10 55 23 37 38
48 20 16z m-855 -63 c-8 -51 -20 -67 -37 -50 -9 9 -9 15 -2 20 5 4 16 22 23
40 18 44 24 40 16 -10z m559 -35 c-3 -91 -81 -213 -136 -213 -31 0 -33 6 -17
60 9 30 18 39 40 44 27 5 29 8 25 42 -3 21 -10 40 -16 44 -19 12 57 82 83 78
20 -3 22 -9 21 -55z m-166 -2 c-18 -31 -25 -37 -31 -25 -6 10 -1 23 15 39 34
37 42 30 16 -14z m-922 -70 c-5 -57 -28 -102 -78 -155 -36 -38 -86 -76 -100
-76 -4 0 -6 20 -4 44 4 60 52 153 87 172 16 8 29 21 29 29 0 16 27 34 53 35
15 0 17 -7 13 -49z m1308 33 c3 -9 6 -37 6 -63 0 -79 -88 -192 -125 -161 -8 7
-15 22 -15 34 1 30 27 100 40 104 5 2 10 9 10 17 0 7 7 18 15 25 8 7 15 21 15
30 0 16 11 23 41 29 4 0 10 -6 13 -15z m487 -16 c1 -7 0 -17 -1 -23 -1 -5 -3
-19 -5 -30 -1 -11 -3 -20 -4 -20 -2 0 -4 -9 -6 -20 -6 -29 -91 -105 -119 -105
-50 0 -41 93 10 106 13 3 29 24 42 55 19 43 26 49 52 49 17 0 31 -6 31 -12z
m-250 -24 c-3 -10 -5 -31 -5 -46 -1 -14 -4 -24 -7 -22 -4 2 -10 -7 -13 -21 -3
-13 -22 -36 -42 -52 -35 -26 -37 -26 -50 -8 -18 24 -18 37 2 77 17 35 92 100
109 94 6 -2 8 -12 6 -22z m-1321 -14 c0 -17 -7 -20 -45 -20 -38 0 -52 -7 -101
-46 -36 -29 -54 -40 -50 -28 5 10 15 38 23 61 13 37 17 41 33 33 27 -15 92
-12 114 5 25 19 26 19 26 -5z m623 -11 c8 -29 -46 -127 -95 -172 -44 -40 -60
-43 -64 -11 -2 10 -5 33 -8 49 -5 26 1 38 39 79 25 27 45 53 45 57 0 8 24 16
56 18 14 1 24 -6 27 -20z m-532 -6 c14 -4 12 -13 -14 -61 -17 -31 -34 -58 -39
-60 -4 -2 -8 -12 -8 -23 0 -10 -3 -19 -7 -19 -5 0 -8 31 -9 70 -1 49 3 70 12
74 8 3 14 13 14 22 0 11 5 14 18 9 9 -4 24 -9 33 -12z m165 -25 c-19 -96 -135
-267 -152 -224 -9 25 0 61 16 61 39 0 66 57 44 96 -7 13 -13 29 -14 36 0 16
69 63 94 63 16 0 18 -5 12 -32z m-288 -91 c4 -36 -31 -107 -77 -154 -64 -66
-139 -101 -156 -73 -4 6 6 35 20 66 28 60 70 110 148 183 7 6 23 10 37 8 19
-1 26 -8 28 -30z m882 1 c0 -4 -4 -8 -9 -8 -6 0 -12 4 -15 8 -3 5 1 9 9 9 8 0
15 -4 15 -9z m-540 -11 c0 -2 -9 -12 -20 -22 -19 -18 -20 -17 -20 3 0 15 6 22
20 22 11 0 20 -2 20 -3z m807 -12 c0 -8 -4 -15 -9 -15 -10 0 -11 14 -1 23 9
10 10 9 10 -8z m-414 -57 c15 -3 13 -10 -17 -51 -19 -26 -37 -63 -40 -82 -4
-19 -12 -35 -18 -35 -5 0 -7 8 -4 17 9 24 -15 113 -31 113 -7 0 -10 6 -7 15 4
8 13 15 20 15 8 0 19 12 25 26 l10 27 22 -21 c12 -11 30 -22 40 -24z m827 -1
c-9 -7 -26 -25 -39 -42 -23 -30 -34 -32 -37 -7 -1 7 10 19 25 27 15 7 33 21
41 30 7 8 16 13 19 9 3 -3 -1 -11 -9 -17z m-638 -14 c23 -20 23 -31 -1 -98
-23 -65 -93 -157 -137 -181 -29 -16 -33 -16 -48 -1 -34 33 -12 125 45 189 21
24 39 46 39 50 0 15 33 39 47 34 7 -3 16 1 19 9 8 19 13 19 36 -2z m786 -10
c2 -13 -17 -65 -43 -118 -40 -84 -49 -95 -72 -95 -14 0 -31 -7 -37 -16 -8 -11
-20 -13 -38 -9 -24 6 -26 10 -21 38 13 68 62 130 111 140 20 4 27 12 28 31 3
46 12 58 41 54 20 -2 29 -9 31 -25z m-1323 -24 c2 -21 -4 -48 -15 -69 -11 -19
-22 -43 -26 -52 -3 -10 -10 -18 -15 -18 -5 0 -9 -5 -9 -11 0 -13 -19 -32 -48
-48 -16 -8 -27 -9 -42 -1 -19 10 -19 13 -4 48 20 48 42 82 54 82 5 0 12 10 16
23 3 12 13 30 22 40 8 9 11 17 6 17 -5 1 5 7 21 14 17 7 31 12 33 11 2 -2 5
-18 7 -36z m880 5 c-14 -15 -25 -31 -25 -35 0 -5 -4 -9 -10 -9 -5 0 -10 13
-10 29 0 23 5 31 23 34 44 8 46 7 22 -19z m-90 -45 c-14 -70 -121 -199 -166
-199 -31 0 -28 56 7 111 13 21 24 44 24 50 0 6 7 9 15 5 8 -3 15 -1 15 4 0 6
6 10 14 10 7 0 16 13 19 29 4 21 13 31 29 33 27 5 48 -16 43 -43z m256 44 c0
-5 2 -17 4 -27 4 -23 -21 -89 -52 -136 -28 -43 -94 -91 -101 -72 -2 7 -10 19
-18 26 -8 8 -14 21 -14 28 2 34 31 92 59 115 17 14 31 32 31 39 0 7 8 18 18
23 20 12 72 14 73 4z m-1409 -25 c-7 -7 -12 -8 -12 -2 0 14 12 26 19 19 2 -3
-1 -11 -7 -17z m988 8 c0 -3 -4 -8 -10 -11 -5 -3 -10 -1 -10 4 0 6 5 11 10 11
6 0 10 -2 10 -4z m-548 -53 c-25 -18 -30 -16 -25 11 4 21 8 23 23 13 17 -10
17 -12 2 -24z m1378 -3 c0 -26 -20 -70 -43 -97 -19 -21 -19 -21 -38 -2 -18 18
-19 25 -9 55 18 54 90 90 90 44z m-1240 -32 c0 -43 -18 -108 -30 -108 -6 0
-10 -5 -10 -11 0 -21 -60 -86 -90 -99 -47 -19 -54 -4 -30 71 18 60 67 129 91
129 5 0 14 11 19 25 6 15 17 25 30 25 16 0 20 -7 20 -32z m-970 -1 c0 -8 -9
-22 -20 -32 -11 -10 -20 -23 -20 -30 0 -7 -9 -20 -20 -30 -11 -10 -17 -21 -15
-25 7 -11 -53 -88 -87 -113 -14 -11 -34 -17 -42 -14 -14 6 -12 14 13 59 51 94
66 118 74 118 4 0 7 6 7 13 0 6 14 21 30 32 16 11 30 23 30 28 0 4 11 7 25 7
14 0 25 -6 25 -13z m514 -29 c-4 -13 -7 -36 -6 -53 1 -21 -7 -36 -25 -49 l-26
-19 8 34 c4 19 8 48 9 64 1 27 15 42 39 44 5 1 5 -9 1 -21z m-93 -10 c4 -51
-1 -67 -32 -113 -30 -45 -108 -105 -136 -105 -8 0 -13 13 -13 35 0 19 5 35 11
35 5 0 8 4 4 9 -8 14 60 81 83 81 38 0 47 9 46 45 -2 28 2 35 17 35 13 0 19
-8 20 -22z m-183 -35 c-23 -25 -60 -94 -64 -118 -2 -11 -6 -42 -10 -70 -4 -27
-10 -54 -14 -60 -7 -10 -34 -84 -35 -97 0 -3 -3 -10 -7 -14 -8 -7 -12 9 -9 33
1 6 -3 14 -9 18 -6 4 2 30 24 68 33 62 69 188 60 212 -4 8 6 16 25 20 17 4 33
11 36 16 4 5 9 9 12 9 3 0 -1 -8 -9 -17z m-126 -60 c5 -25 -23 -103 -47 -132
-72 -86 -99 -105 -125 -89 -15 10 -15 14 4 52 23 50 77 121 119 159 36 32 44
33 49 10z m888 -23 c0 -5 -4 -10 -10 -10 -5 0 -10 5 -10 10 0 6 5 10 10 10 6
0 10 -4 10 -10z m1284 -12 c-18 -58 -82 -133 -119 -140 -18 -3 -20 2 -19 40 1
50 39 97 89 111 50 15 57 13 49 -11z m-1034 -3 c-7 -8 -17 -15 -22 -15 -6 0
-5 7 2 15 7 8 17 15 22 15 6 0 5 -7 -2 -15z m297 -15 c5 -29 23 -43 23 -18 0
8 3 9 10 2 16 -16 -42 -125 -86 -163 -75 -66 -107 -16 -55 86 29 57 78 121 94
122 4 1 10 -12 14 -29z m-851 -15 c0 -29 -3 -35 -20 -35 -12 0 -31 -3 -42 -6
-19 -5 -21 -2 -16 21 3 18 15 32 36 41 42 18 41 19 42 -21z m1354 15 c19 -10
19 -11 -1 -47 -33 -58 -114 -137 -133 -130 -18 7 -23 77 -6 77 6 0 10 5 10 11
0 21 65 84 83 81 9 -2 17 1 17 7 0 14 6 14 30 1z m-1018 -17 c1 -4 8 -13 16
-19 13 -9 13 -18 4 -57 -7 -25 -9 -59 -6 -75 5 -24 2 -32 -15 -42 -12 -6 -26
-8 -31 -5 -6 3 -10 -2 -11 -12 0 -11 -3 -13 -6 -5 -3 7 5 36 17 65 16 36 22
69 21 111 -1 33 1 57 5 54 3 -4 6 -10 6 -15z m768 7 c0 -25 -31 -122 -47 -147
-40 -63 -92 -82 -114 -42 -11 22 -12 21 46 98 5 8 29 34 53 58 41 42 62 53 62
33z m-1244 -47 c-5 -35 -14 -54 -35 -73 -16 -14 -36 -39 -45 -57 -18 -37 -43
-53 -80 -53 -37 0 -34 27 10 91 20 30 37 60 37 67 0 6 2 10 5 7 3 -2 23 11 45
30 58 50 71 47 63 -12z m639 17 c-18 -19 -31 -26 -34 -19 -2 7 7 20 20 30 38
29 46 22 14 -11z m127 -48 c-7 -118 -117 -212 -179 -152 -22 20 -22 22 -6 48
37 59 154 157 178 148 6 -2 9 -21 7 -44z m-357 -4 c-9 -40 -58 -134 -88 -168
-12 -14 -36 -35 -53 -47 -25 -18 -34 -20 -42 -10 -14 16 -6 80 13 115 32 60
105 123 147 127 3 0 10 3 14 8 14 13 16 7 9 -25z m1118 -60 c7 -26 9 -25 -26
-33 -31 -8 -34 2 -9 33 22 27 28 27 35 0z m-1393 -12 c20 -53 -13 -131 -83
-198 -55 -53 -91 -62 -101 -25 -8 32 -7 65 3 85 5 9 15 30 22 45 20 43 100
117 127 117 15 0 26 -8 32 -24z m-390 -38 c0 -90 -36 -166 -98 -206 -39 -26
-62 -17 -62 24 0 32 23 104 33 104 5 0 6 4 3 9 -8 13 87 111 107 111 13 0 17
-9 17 -42z m-465 -20 c-7 -60 -14 -80 -42 -117 -15 -20 -27 -40 -25 -44 1 -5
-2 -5 -8 -2 -6 4 -19 0 -28 -9 -39 -35 -142 -61 -142 -36 0 6 19 41 42 77 60
96 137 161 190 163 13 0 16 -7 13 -32z m1728 0 c-3 -13 -7 -36 -10 -53 -2 -16
-18 -56 -35 -88 -16 -32 -32 -81 -35 -110 -4 -43 -9 -53 -25 -54 -26 -2 -117
-71 -148 -113 -14 -17 -32 -39 -40 -48 -9 -10 -27 -34 -40 -54 -24 -37 -40
-48 -40 -28 0 18 47 115 61 126 8 7 23 13 34 16 13 2 21 12 23 30 2 20 13 32
39 44 66 32 183 215 169 268 -3 13 4 32 20 53 30 39 35 41 27 11z m762 -25
c-8 -36 -50 -97 -88 -129 -58 -49 -110 -19 -79 45 17 37 121 111 155 111 16 0
18 -5 12 -27z m-435 -27 c0 -6 -7 -20 -15 -30 -8 -11 -15 -26 -15 -34 0 -21
-50 -122 -61 -122 -13 0 -11 12 5 35 7 11 14 22 14 25 0 3 3 22 7 43 4 21 9
52 10 70 2 18 3 38 4 45 1 16 51 -15 51 -32z m-1995 24 c3 -5 1 -10 -4 -10 -6
0 -11 5 -11 10 0 6 2 10 4 10 3 0 8 -4 11 -10z m1436 -13 c-10 -9 -11 -8 -5 6
3 10 9 15 12 12 3 -3 0 -11 -7 -18z m-1288 7 c12 -4 12 -13 -5 -57 -27 -70
-80 -139 -143 -181 -69 -48 -85 -47 -85 4 0 49 52 137 93 159 15 8 27 17 27
21 0 4 11 19 25 34 23 25 56 33 88 20z m-439 -78 c-14 -31 -30 -53 -35 -50
-10 6 18 80 40 106 26 30 24 4 -5 -56z m2471 35 c-12 -63 -99 -165 -135 -159
-20 4 -29 58 -14 88 13 27 38 49 93 87 37 25 63 18 56 -16z m-783 -16 c-9 -19
-20 -35 -24 -35 -4 0 -8 -6 -8 -13 0 -8 -9 -22 -20 -32 -20 -18 -20 -17 -20
10 0 19 12 39 41 66 23 22 43 39 44 39 1 0 -5 -16 -13 -35z m492 20 c9 -24
-21 -98 -51 -128 -41 -40 -97 -77 -117 -77 -11 0 -31 -3 -43 -6 -19 -5 -21 -3
-16 18 4 12 18 40 32 62 14 21 34 50 43 65 18 27 101 78 129 80 9 1 19 -6 23
-14z m-330 -3 c7 -11 -31 -92 -44 -92 -5 0 -10 -6 -10 -13 0 -28 -80 -87 -118
-87 -29 0 -46 24 -27 40 8 7 15 18 15 24 0 6 22 35 48 64 32 37 58 56 82 62
48 11 48 11 54 2z m-1015 -36 c-11 -22 -14 -24 -21 -11 -6 9 -23 15 -46 15
-27 0 -33 3 -22 10 8 5 22 7 31 5 9 -3 27 -1 40 4 31 11 32 9 18 -23z m617 19
c13 -12 13 -21 4 -50 -6 -19 -16 -35 -21 -35 -5 0 -9 -6 -9 -13 0 -15 -103
-97 -130 -102 -29 -6 -34 28 -12 72 24 46 117 143 138 143 9 0 22 -7 30 -15z
m92 -103 l3 -72 -30 0 c-16 0 -41 -4 -55 -10 -26 -9 -25 -9 9 43 30 45 41 73
44 110 1 5 7 7 14 5 8 -3 13 -30 15 -76z m-407 22 c6 -8 25 -14 41 -14 25 0
28 -3 23 -20 -4 -11 -8 -44 -10 -73 -4 -49 -9 -58 -60 -109 -30 -30 -55 -49
-55 -42 0 7 4 15 9 19 5 3 15 31 22 63 11 53 13 69 10 122 -1 11 -10 29 -21
40 -12 12 -18 25 -15 29 7 12 41 2 56 -15z m-671 -18 c0 -3 -4 -8 -10 -11 -5
-3 -10 -1 -10 4 0 6 5 11 10 11 6 0 10 -2 10 -4z m318 -25 c4 -23 -16 -100
-28 -111 -3 -3 -10 -14 -16 -25 -18 -33 -84 -65 -129 -63 -37 3 -39 5 -43 38
-3 32 3 41 58 94 33 32 60 62 60 66 0 11 50 29 75 27 13 -1 21 -11 23 -26z
m1722 -14 c0 -2 -9 -15 -21 -28 -11 -13 -24 -30 -29 -38 -7 -13 -10 -12 -24 1
-9 9 -16 21 -16 27 0 17 20 23 35 11 11 -9 16 -7 25 9 9 18 30 30 30 18z
m-2370 -48 c0 -17 -4 -28 -10 -24 -8 5 -57 -16 -141 -61 -31 -16 -39 -10 -39
25 0 36 14 54 36 47 15 -4 70 11 152 43 1 1 2 -13 2 -30z m747 -20 c-6 -10
-15 -19 -20 -19 -4 0 -20 -12 -34 -27 l-26 -28 7 25 c4 14 11 34 16 45 4 11
11 28 14 38 5 16 7 17 30 1 21 -13 23 -19 13 -35z m173 31 c32 -59 -83 -217
-155 -216 -28 1 -30 4 -28 35 1 18 8 41 15 50 7 9 22 32 32 51 25 43 85 100
108 100 10 0 22 -9 28 -20z m1626 -14 c8 -20 -11 -83 -37 -120 -40 -57 -169
-136 -203 -123 -13 5 -13 10 1 39 9 18 21 36 26 39 6 4 7 14 4 24 -4 9 -3 14
2 10 5 -3 11 0 13 7 3 7 31 40 64 73 45 46 67 61 92 63 21 2 34 -2 38 -12z
m-436 -15 c-10 -20 -30 -37 -30 -26 0 11 25 45 33 45 4 0 3 -9 -3 -19z m-1777
-3 c2 -7 -4 -37 -14 -67 -10 -29 -16 -57 -13 -62 3 -5 -2 -9 -10 -9 -9 0 -16
-4 -16 -8 0 -8 -7 -17 -64 -82 -53 -60 -98 -59 -90 2 9 77 35 127 91 177 31
28 65 52 77 54 12 2 24 5 28 6 3 0 8 -5 11 -11z m1687 -18 c0 -6 -4 -18 -9
-28 -6 -9 -18 -36 -27 -59 -10 -23 -21 -40 -26 -37 -4 3 -8 -1 -8 -8 0 -18
-56 -78 -72 -78 -49 0 -77 68 -38 92 11 7 20 16 20 20 0 12 57 63 97 85 42 24
63 29 63 13z m730 -9 c0 -28 -110 -141 -138 -141 -17 0 -18 33 -3 67 19 42
141 106 141 74z m-1349 -21 c10 0 12 -34 3 -78 -7 -36 -81 -115 -133 -142 -20
-10 -39 -19 -42 -21 -15 -9 -49 36 -49 64 0 50 113 169 143 150 5 -3 15 5 24
17 9 12 21 19 30 16 8 -3 19 -6 24 -6z m859 -22 c0 -7 -9 -28 -20 -46 -11 -17
-23 -50 -26 -72 -6 -39 -21 -60 -46 -64 -7 -1 -18 -5 -25 -9 -7 -4 -23 -1 -37
8 -21 14 -23 20 -16 46 5 17 25 48 45 70 19 21 35 44 35 49 0 6 9 10 19 10 11
0 23 5 26 10 9 14 45 12 45 -2z m-1601 -29 c-10 -19 -9 -74 2 -119 3 -9 -5
-16 -20 -18 -27 -4 -63 -25 -101 -57 -14 -12 -34 -22 -45 -22 -18 -1 -20 5
-20 58 0 32 2 60 5 60 3 1 14 3 25 4 47 5 145 74 145 102 0 7 5 13 10 13 7 0
7 -7 -1 -21z m-639 -9 c0 -49 -88 -159 -170 -214 -77 -51 -108 27 -44 112 14
17 21 32 17 32 -4 0 6 9 22 20 17 11 38 17 47 14 10 -3 21 3 28 16 6 11 7 20
3 20 -4 0 -1 5 7 10 8 5 32 10 53 10 31 0 37 -3 37 -20z m75 10 c-3 -5 -11
-10 -16 -10 -6 0 -7 5 -4 10 3 6 11 10 16 10 6 0 7 -4 4 -10z m1635 3 c0 -12
-40 -75 -64 -102 -21 -23 -92 -73 -111 -78 -5 -1 -21 -5 -34 -9 -21 -6 -22 -5
-12 15 7 11 16 21 21 21 5 0 11 9 15 19 6 21 84 101 98 101 5 0 20 9 34 20 26
20 53 27 53 13z m-1984 -29 c-3 -9 -9 -28 -12 -42 -8 -31 -86 -140 -116 -160
-34 -24 -43 0 -20 52 24 53 32 64 91 122 44 45 68 56 57 28z m1354 -21 c-1
-38 -36 -113 -62 -132 -58 -42 -84 -32 -79 31 2 25 100 128 122 128 14 0 19
-7 19 -27z m930 -33 c-5 -17 -9 -33 -9 -35 -1 -25 -45 -96 -72 -119 -19 -16
-39 -41 -46 -55 -12 -25 -12 -25 -7 9 3 19 6 42 7 51 2 8 20 33 41 55 21 21
49 58 63 82 30 50 35 53 23 12z m-1129 -29 c-12 -16 -21 -36 -21 -44 0 -9 -5
-19 -10 -22 -6 -4 -8 -10 -5 -15 6 -10 -38 -47 -68 -56 -12 -3 -31 -14 -41
-23 -18 -15 -19 -15 -14 13 3 16 2 41 -2 56 -7 24 -5 28 16 28 34 0 105 36
131 66 31 35 39 33 14 -3z m1929 -55 c-33 -68 -102 -139 -130 -134 -26 5 -24
62 3 105 45 69 126 125 151 103 5 -5 -6 -38 -24 -74z m-290 62 c0 -7 -31 -36
-70 -65 -64 -48 -69 -51 -75 -32 -4 11 -5 22 -3 24 14 12 133 85 140 85 4 0 8
-6 8 -12z m-2478 -63 c5 -43 2 -48 -40 -69 -36 -18 -73 -52 -66 -59 3 -2 -9
-19 -26 -37 -29 -31 -30 -31 -31 -9 0 13 -2 32 -4 42 -4 21 59 92 90 101 12 3
29 19 38 36 24 39 34 38 39 -5z m364 10 c7 -16 -36 -110 -63 -140 -27 -29 -81
-57 -94 -49 -7 4 -9 24 -6 52 4 35 12 53 36 74 17 15 31 31 31 36 0 11 52 41
73 42 10 0 20 -7 23 -15z m2184 -41 c0 -8 -12 -35 -26 -60 -14 -24 -23 -44
-20 -44 9 0 -38 -44 -68 -63 -15 -10 -37 -17 -49 -15 -18 2 -21 9 -19 33 3 30
34 88 46 86 20 -3 26 2 38 26 21 44 98 73 98 37z m-1223 -10 c0 -9 -12 -18
-29 -21 -18 -4 -33 -15 -38 -28 -12 -31 -30 -41 -30 -16 0 11 12 29 28 40 15
11 32 25 37 30 15 15 32 13 32 -5z m271 -6 c-25 -39 -37 -61 -59 -116 -12 -29
-23 -51 -24 -50 -2 2 -6 21 -9 42 -4 21 -9 50 -12 62 -5 19 -2 24 12 24 11 1
37 14 59 30 49 35 51 35 33 8z m-973 -29 c10 -30 -4 -61 -48 -107 -38 -39
-105 -82 -127 -82 -13 0 -13 61 0 94 12 33 57 84 93 106 33 21 74 15 82 -11z
m449 12 c16 -18 16 -20 -16 -45 -21 -16 -34 -21 -37 -14 -2 7 1 14 8 16 6 2 9
8 5 13 -7 11 5 49 15 49 4 0 16 -8 25 -19z m704 10 c16 -9 11 -37 -19 -115
-27 -71 -62 -107 -119 -124 -54 -16 -63 -6 -55 58 10 71 49 122 126 164 51 28
50 28 67 17z m362 -1 c0 -5 -5 -10 -11 -10 -5 0 -7 5 -4 10 3 6 8 10 11 10 2
0 4 -4 4 -10z m141 -22 c3 -30 -4 -65 -18 -92 -20 -39 -73 -96 -90 -96 -7 0
-13 -4 -13 -9 0 -14 -52 -23 -63 -12 -27 27 1 111 54 164 50 49 127 76 130 45z
m-257 -11 c17 -12 17 -15 1 -57 -39 -103 -55 -126 -117 -173 -35 -27 -37 -28
-47 -9 -15 29 25 152 50 152 5 0 13 8 16 18 4 9 16 25 27 35 12 10 22 23 22
28 1 5 2 11 3 14 2 9 27 5 45 -8z m-1644 -21 c0 -2 -7 -7 -16 -10 -8 -3 -12
-2 -9 4 6 10 25 14 25 6z m-287 -22 c3 -4 -1 -23 -9 -43 -8 -19 -14 -45 -13
-56 3 -38 -1 -46 -46 -94 -47 -50 -113 -88 -139 -78 -45 17 -18 143 44 204 52
52 141 89 163 67z m731 -16 c-15 -49 -38 -85 -82 -125 -51 -47 -82 -56 -82
-22 0 45 32 90 87 121 29 16 56 34 59 39 11 19 25 8 18 -13z m620 0 c23 -89
-36 -200 -109 -203 -11 -1 -26 -5 -33 -9 -20 -12 -55 32 -47 62 10 42 65 110
114 142 55 36 67 37 75 8z m-539 -5 c-4 -10 -8 -25 -10 -33 -10 -47 -63 -138
-89 -152 -20 -11 -7 40 14 55 21 15 35 43 44 86 7 36 22 61 38 61 6 0 7 -8 3
-17z m233 -90 c-23 -54 -94 -113 -134 -113 -29 0 -57 35 -60 73 -3 36 23 65
75 87 18 7 38 18 44 24 7 7 30 16 52 21 38 10 40 9 43 -16 2 -14 -7 -48 -20
-76z m-128 87 c0 -5 -4 -10 -10 -10 -5 0 -10 5 -10 10 0 6 5 10 10 10 6 0 10
-4 10 -10z m-1400 -51 c-7 -11 -14 -18 -17 -15 -8 8 5 36 17 36 7 0 7 -6 0
-21z m158 -13 c-13 -38 -73 -123 -107 -153 -14 -12 -35 -22 -47 -23 -21 0 -41
31 -39 60 1 8 3 22 3 31 1 8 30 35 64 60 71 50 78 53 112 55 23 2 24 0 14 -30z
m575 14 c-3 -11 -12 -20 -19 -20 -17 0 -18 12 -2 28 18 18 27 15 21 -8z m2227
5 c0 -16 -27 -32 -37 -21 -7 7 16 36 28 36 5 0 9 -7 9 -15z m-2730 -15 c0 -5
-5 -10 -11 -10 -5 0 -7 5 -4 10 3 6 8 10 11 10 2 0 4 -4 4 -10z m2680 -19 c0
-5 -7 -14 -15 -21 -12 -10 -15 -10 -15 2 0 8 3 18 7 21 9 10 23 9 23 -2z
m-2366 -38 c-22 -16 -25 -13 -17 15 4 18 8 20 20 10 13 -10 13 -14 -3 -25z
m86 -4 c0 -6 -4 -8 -9 -5 -5 4 -12 0 -14 -6 -4 -10 -8 -9 -16 2 -8 11 -6 17 7
21 19 7 32 2 32 -12z m2494 -5 c3 -8 2 -13 -2 -10 -9 5 -42 -28 -42 -42 0 -17
-92 -83 -117 -85 -64 -5 -16 74 77 127 52 30 75 33 84 10z m-1221 -19 c-3 -8
-9 -15 -14 -15 -10 0 -12 24 -3 33 11 11 24 -3 17 -18z m257 10 c0 -8 -4 -15
-10 -15 -5 0 -7 7 -4 15 4 8 8 15 10 15 2 0 4 -7 4 -15z m-1450 -29 c0 -25
-40 -112 -72 -158 -63 -90 -155 -147 -196 -121 -17 10 -25 43 -12 43 5 0 14
16 20 35 12 36 171 211 182 199 4 -3 16 0 27 8 30 21 51 18 51 -6z m248 12
c-2 -7 3 -12 10 -10 6 1 12 -5 12 -13 0 -25 23 -65 37 -65 10 0 8 -11 -9 -40
-14 -23 -30 -40 -41 -40 -17 0 -17 1 -2 16 8 9 14 24 11 33 -2 9 -7 33 -11 53
-4 29 -12 39 -31 44 -20 5 -22 9 -13 20 14 17 40 18 37 2z m1858 -32 c-16 -63
-180 -179 -246 -174 -43 3 -42 46 3 84 71 62 101 84 113 84 7 0 19 9 27 20 8
11 20 18 28 15 8 -3 28 -1 44 3 33 10 40 3 31 -32z m-1270 -67 c-23 -3 -61
-14 -85 -23 -49 -18 -65 -20 -57 -7 3 4 18 11 33 14 31 7 80 48 109 92 l19 29
11 -49 10 -50 -40 -6z m-731 48 c7 -7 6 -8 -1 -4 -6 3 -22 0 -37 -8 -19 -9
-29 -10 -33 -3 -4 7 -2 8 4 4 8 -5 12 1 12 14 0 17 4 20 23 15 12 -4 27 -12
32 -18z m1355 -58 c0 -51 -36 -115 -83 -147 -80 -56 -117 -53 -117 8 0 32 8
46 50 90 28 29 50 49 50 46 0 -3 15 3 33 14 48 29 67 26 67 -11z m-1250 -19
c0 -35 -74 -149 -97 -150 -7 0 -13 -4 -13 -10 0 -5 -13 -10 -30 -10 -28 0 -30
3 -30 37 0 50 57 123 125 159 29 15 45 6 45 -26z m1504 32 c7 -11 -22 -70 -58
-117 -46 -61 -66 -71 -66 -32 1 66 101 186 124 149z m-1190 -57 c-1 -27 -7
-51 -13 -53 -6 -2 -11 -10 -11 -17 0 -17 -95 -85 -118 -85 -34 0 -55 35 -49
81 6 46 18 58 102 100 80 39 90 36 89 -26z m89 2 c-16 -17 -18 -17 -21 -3 -2
9 -8 13 -14 10 -6 -4 -9 -3 -6 2 3 5 8 17 12 28 6 18 7 18 26 1 19 -17 19 -19
3 -38z m566 44 c16 -10 8 -58 -20 -112 -20 -40 -89 -105 -114 -107 -80 -9
-110 9 -100 58 5 23 70 90 88 90 4 0 18 9 30 21 20 19 85 58 97 58 3 1 11 -3
19 -8z m371 -15 c0 -2 -7 -6 -15 -10 -8 -3 -15 -1 -15 4 0 6 7 10 15 10 8 0
15 -2 15 -4z m-672 -61 c10 -10 -38 -93 -63 -109 -12 -8 -28 -21 -36 -28 -40
-39 -171 -63 -182 -34 -15 39 24 114 69 135 13 6 24 16 24 22 0 6 6 9 13 6 7
-3 24 2 38 9 23 14 123 13 137 -1z m-1148 -30 c0 -8 -4 -15 -8 -15 -5 0 -9 7
-9 15 0 8 4 15 9 15 4 0 8 -7 8 -15z"/>
<path d="M3518 2335 c-3 -14 -1 -25 3 -25 5 0 9 11 9 25 0 14 -2 25 -4 25 -2
0 -6 -11 -8 -25z"/>
<path d="M4525 1187 c-12 -12 -31 -27 -41 -33 -11 -7 -18 -19 -18 -28 1 -10
-5 -16 -15 -15 -37 3 -47 -3 -64 -41 -17 -39 -19 -41 -52 -34 -24 4 -35 2 -35
-5 0 -7 -4 -10 -8 -7 -10 6 -73 -34 -116 -73 -34 -31 -86 -109 -86 -129 0 -15
-45 -62 -58 -62 -4 0 -13 -9 -20 -20 -7 -11 -22 -20 -35 -20 -24 -1 -57 -22
-57 -37 0 -5 -8 -25 -17 -44 -10 -20 -17 -57 -18 -91 0 -70 29 -108 81 -108
36 0 84 18 84 32 0 4 6 8 14 8 8 0 22 10 30 22 21 30 31 16 17 -23 -17 -49
-14 -59 17 -59 15 0 36 -1 47 -1 27 -1 45 4 75 21 14 8 34 20 45 26 11 6 19
16 17 22 -1 7 3 11 9 10 11 -3 33 27 66 91 10 19 24 36 31 39 10 3 11 0 4 -14
-17 -32 -41 -98 -41 -114 0 -8 -2 -32 -5 -53 -8 -63 26 -107 82 -107 40 0 146
91 137 117 -2 7 2 10 10 7 8 -3 15 -22 17 -42 l3 -37 63 -3 c39 -2 62 1 62 7
0 6 6 11 14 11 8 0 21 8 28 18 7 9 33 34 57 54 47 40 75 84 64 101 -3 6 -1 7
5 3 11 -6 16 5 13 26 0 4 13 15 29 25 17 9 33 25 36 35 3 10 10 18 15 18 5 0
9 5 9 10 0 6 9 23 20 38 29 39 38 142 15 166 -19 19 -64 14 -100 -10 -11 -8
-26 -14 -34 -14 -8 0 -26 -10 -39 -22 l-24 -23 8 40 c4 22 13 49 21 61 7 11
10 24 6 27 -3 4 -1 7 6 7 8 0 11 16 10 48 -1 27 0 53 3 58 4 5 0 17 -7 27 -17
24 -74 26 -90 3 -7 -9 -21 -17 -32 -17 -10 0 -33 1 -52 1 -36 1 -81 -32 -81
-60 0 -8 -9 -23 -19 -32 -18 -15 -20 -15 -35 1 -13 14 -13 19 -2 32 23 24 44
93 40 128 -5 42 -4 41 -49 51 -32 7 -41 5 -60 -13z m57 -75 c5 -5 3 -20 -6
-38 -19 -36 -94 -112 -119 -120 -24 -8 -41 9 -33 32 3 11 5 22 3 25 -1 3 21
29 49 57 28 28 50 53 47 55 -2 2 8 3 23 1 15 -1 31 -7 36 -12z m275 -97 c3 -9
-2 -24 -11 -34 -9 -10 -16 -22 -16 -28 0 -6 -8 -10 -17 -8 -10 1 -33 -6 -51
-18 -30 -17 -35 -18 -49 -5 -13 14 -11 19 19 47 18 17 39 31 46 31 6 0 12 4
12 9 0 8 11 12 53 20 4 0 10 -6 14 -14z m-533 -77 c-15 -51 -107 -158 -134
-158 -15 0 -18 41 -4 69 10 20 20 28 33 24 16 -4 18 0 15 30 -5 38 17 55 69
56 25 1 27 -2 21 -21z m290 -14 c9 -3 13 -10 10 -15 -3 -6 0 -16 6 -24 9 -11
6 -20 -15 -42 -14 -15 -31 -47 -38 -70 -6 -24 -14 -38 -18 -32 -4 7 -11 6 -20
-3 -8 -8 -28 -19 -46 -25 -26 -10 -35 -9 -51 6 -15 12 -18 21 -11 34 6 9 7 22
3 29 -4 6 -3 8 4 4 6 -3 30 23 57 63 35 52 52 69 66 66 10 -2 21 0 24 6 7 11
9 11 29 3z m-255 -89 c-9 -32 -9 -41 4 -49 12 -8 9 -14 -15 -38 -16 -15 -33
-28 -37 -28 -5 0 -22 -17 -39 -37 -25 -31 -36 -37 -69 -38 -30 -1 -39 3 -38
15 2 26 19 44 59 65 24 12 58 46 89 88 27 37 51 66 53 64 2 -2 -1 -21 -7 -42z
m447 13 c-2 -7 -6 -21 -11 -30 -4 -10 -4 -25 -1 -34 4 -9 2 -12 -5 -8 -6 3
-27 -9 -47 -29 -43 -40 -72 -57 -101 -57 -28 0 -27 24 2 47 13 10 24 21 25 25
9 30 19 40 51 54 28 12 62 29 88 43 1 1 0 -5 -1 -11z m-366 -8 c0 -5 -5 -10
-11 -10 -5 0 -7 5 -4 10 3 6 8 10 11 10 2 0 4 -4 4 -10z m546 -90 c-30 -45
-56 -45 -56 1 0 23 7 32 38 48 31 16 38 17 40 4 2 -8 -8 -32 -22 -53z m-864
-76 c-6 -69 -84 -164 -134 -164 -38 0 -43 15 -19 65 12 25 21 51 21 60 0 8 9
19 20 25 11 6 20 17 20 24 0 8 7 16 15 20 8 3 15 1 15 -4 0 -16 27 -11 34 6
12 30 31 8 28 -32z m719 26 c-30 -26 -49 -26 -26 0 10 11 25 20 34 20 12 -1
10 -5 -8 -20z m-46 -40 c-3 -5 -11 -10 -16 -10 -6 0 -7 5 -4 10 3 6 11 10 16
10 6 0 7 -4 4 -10z m-459 -48 c-8 -16 -12 -32 -9 -36 4 -3 1 -6 -7 -6 -10 0
-10 -4 1 -17 13 -16 12 -17 -3 -5 -14 11 -21 9 -47 -17 -35 -34 -69 -47 -83
-33 -18 18 49 104 90 117 12 3 22 11 22 16 0 12 44 29 48 18 2 -4 -4 -21 -12
-37z m528 -29 c-37 -59 -107 -123 -136 -123 -15 0 -29 4 -32 8 -10 16 115 135
157 151 29 11 32 -1 11 -36z m-274 3 c0 -11 -9 -41 -20 -65 -11 -23 -17 -48
-13 -54 3 -6 1 -7 -5 -3 -7 4 -24 -4 -39 -18 -45 -42 -73 -31 -73 30 0 16 18
42 53 77 28 28 51 55 50 58 -1 3 9 4 22 1 17 -3 25 -11 25 -26z m130 -4 c-16
-17 -30 -26 -30 -22 0 11 52 61 57 56 2 -2 -10 -17 -27 -34z m-80 -62 c0 -5
-2 -10 -4 -10 -3 0 -8 5 -11 10 -3 6 -1 10 4 10 6 0 11 -4 11 -10z"/>
</g>
</svg>
