<?xml version="1.0" standalone="no"?>
<!DOCTYPE svg PUBLIC "-//W3C//DTD SVG 20010904//EN"
 "http://www.w3.org/TR/2001/REC-SVG-20010904/DTD/svg10.dtd">
<svg version="1.0" xmlns="http://www.w3.org/2000/svg"
 width="499.000000pt" height="489.000000pt" viewBox="0 0 499.000000 489.000000"
 preserveAspectRatio="xMidYMid meet">
<metadata>
Created by potrace 1.16, written by Peter Selinger 2001-2019
</metadata>
<g transform="translate(0.000000,489.000000) scale(0.100000,-0.100000)"
fill="#000000" stroke="none">
<path d="M770 4593 c-36 -6 -102 -34 -130 -56 -9 -7 -35 -43 -59 -82 -24 -38
-58 -83 -76 -100 -24 -22 -37 -48 -50 -96 -16 -61 -16 -69 -1 -113 20 -57 30
-68 89 -96 67 -32 150 -32 212 0 60 31 98 83 143 193 29 71 32 90 27 141 -9
99 -16 140 -27 163 -15 31 -79 54 -128 46z"/>
<path d="M2570 4519 c-14 -4 -41 -10 -60 -13 -75 -13 -157 -129 -172 -245 -13
-95 3 -199 39 -256 31 -49 79 -95 99 -95 8 0 14 -4 14 -8 0 -4 16 -9 37 -10
20 -2 40 -5 44 -7 15 -10 79 26 122 69 37 36 47 55 57 102 28 134 -16 369 -78
422 -44 38 -75 50 -102 41z"/>
<path d="M1126 4231 c-21 -16 -40 -31 -44 -33 -16 -7 -61 -108 -73 -163 -6
-33 -13 -112 -13 -175 -1 -111 0 -117 32 -180 28 -57 39 -68 81 -88 27 -12 58
-22 69 -22 26 0 72 20 72 32 0 4 7 8 16 8 18 0 89 71 108 109 12 24 23 110 32
262 3 51 -2 82 -20 137 -32 94 -47 114 -98 129 -73 22 -120 17 -162 -16z m201
-211 c-2 -29 -17 -24 -17 6 0 14 4 23 9 19 6 -3 9 -14 8 -25z"/>
<path d="M3715 4175 c-5 -2 -23 -6 -39 -10 -31 -7 -128 -98 -133 -125 -7 -33
-2 -183 6 -198 5 -10 10 -19 10 -22 1 -3 4 -14 7 -25 3 -11 5 -23 5 -27 -1
-18 107 -113 148 -131 59 -26 150 -26 185 0 59 42 66 86 52 292 -7 108 -35
150 -135 206 -20 11 -42 26 -49 33 -13 11 -35 14 -57 7z"/>
<path d="M2000 3803 c-26 -10 -81 -67 -101 -105 -10 -20 -30 -48 -44 -62 -22
-22 -24 -32 -21 -80 3 -38 14 -76 37 -119 18 -34 39 -74 46 -89 52 -102 177
-158 251 -111 36 24 52 39 52 52 0 6 4 11 9 11 16 0 40 76 50 159 20 161 -20
259 -136 326 -40 24 -104 32 -143 18z m191 -190 c5 -14 8 -28 5 -30 -4 -5 -36
50 -36 62 0 14 22 -9 31 -32z"/>
<path d="M2967 3730 c-81 -14 -196 -118 -252 -229 -23 -46 -26 -80 -9 -121 33
-78 81 -97 188 -75 38 8 83 23 101 34 18 10 46 22 63 26 17 3 36 13 43 21 6 8
20 14 30 14 11 0 19 7 19 15 0 8 4 15 9 15 12 0 86 72 84 82 -2 4 1 8 6 8 12
0 23 75 15 105 -3 14 -12 25 -19 25 -7 0 -15 7 -19 15 -3 8 -16 15 -28 15 -13
0 -41 14 -62 30 -42 32 -73 36 -169 20z"/>
<path d="M533 3616 c-44 -16 -90 -60 -136 -128 -46 -67 -55 -102 -52 -194 1
-54 9 -84 34 -139 18 -38 41 -79 51 -90 10 -11 20 -27 22 -35 2 -8 17 -26 33
-38 26 -21 37 -23 92 -18 64 5 123 28 123 47 0 6 9 24 20 39 27 38 58 198 56
290 -2 75 -6 87 -71 208 -33 63 -98 85 -172 58z"/>
<path d="M3815 3392 c-2 -2 -23 -5 -47 -6 -23 -2 -51 -6 -60 -10 -9 -4 -21 -5
-26 -3 -4 3 -46 -6 -92 -19 -47 -14 -114 -34 -149 -45 -36 -10 -67 -22 -70
-26 -3 -5 -19 -15 -36 -23 -16 -8 -36 -21 -43 -27 -7 -7 -20 -13 -27 -13 -8 0
-18 -6 -22 -14 -4 -7 -22 -21 -40 -30 -47 -23 -200 -184 -224 -233 -12 -24
-25 -43 -30 -43 -6 0 -7 -5 -3 -12 4 -6 1 -16 -7 -22 -12 -9 -38 -57 -42 -76
0 -3 -9 -14 -20 -25 -10 -11 -38 -58 -62 -106 -24 -47 -50 -91 -59 -98 -9 -8
-16 -22 -16 -32 0 -11 -4 -19 -8 -19 -5 0 -15 -15 -24 -32 -49 -101 -232 -288
-298 -305 -14 -3 -27 -9 -30 -13 -10 -12 -83 -42 -148 -60 -41 -11 -98 -18
-147 -17 -77 1 -254 -12 -266 -19 -3 -1 -28 -6 -55 -9 -27 -3 -62 -10 -79 -15
-16 -5 -60 -11 -97 -15 -59 -5 -143 -30 -308 -90 -24 -9 -65 -32 -91 -51 -26
-19 -51 -34 -55 -34 -5 -1 -27 -29 -49 -62 -22 -34 -43 -66 -47 -72 -14 -21
-48 -105 -48 -119 0 -7 -3 -17 -7 -21 -5 -4 -8 -20 -9 -34 0 -15 -4 -61 -9
-102 -5 -41 -8 -79 -7 -83 1 -5 3 -36 3 -70 1 -100 25 -192 81 -312 31 -65 43
-84 92 -155 14 -19 35 -52 48 -72 13 -21 33 -43 46 -49 12 -7 22 -18 22 -26 0
-7 7 -13 15 -13 8 0 15 -4 15 -9 0 -11 154 -167 215 -217 28 -23 83 -68 123
-102 40 -33 94 -71 120 -83 26 -13 53 -29 60 -36 7 -7 18 -14 23 -14 5 -1 12
-2 17 -3 4 -1 23 -11 43 -24 20 -12 42 -22 48 -22 6 0 19 -4 29 -9 9 -5 58
-19 108 -31 87 -20 138 -21 240 -5 17 3 62 7 101 10 39 3 83 9 98 15 14 5 44
10 65 10 22 0 49 4 62 9 56 23 217 70 260 76 26 3 50 10 53 16 4 5 15 9 25 9
10 0 31 7 47 15 55 29 159 73 208 90 28 9 61 27 75 39 37 34 157 109 223 139
31 15 57 30 57 35 0 4 9 8 19 9 11 1 53 29 94 62 40 34 78 61 84 61 6 0 21 8
34 19 13 10 58 35 99 57 41 21 80 43 85 49 15 17 92 75 100 75 10 0 91 57 127
91 18 16 56 44 83 62 28 17 59 42 70 55 11 13 52 58 90 99 41 44 81 98 96 131
14 32 37 75 51 97 13 22 39 83 57 135 18 52 36 104 42 115 6 12 11 27 12 35 2
8 5 20 8 25 11 20 10 297 -2 353 -15 76 -15 75 -22 92 -15 39 -48 159 -59 211
-7 33 -15 59 -19 59 -4 0 -10 17 -14 37 -6 36 -32 102 -76 200 -10 23 -19 48
-19 56 0 8 -13 34 -30 58 -16 24 -30 50 -30 57 0 15 -29 74 -40 82 -3 3 -21
41 -39 85 -18 44 -37 91 -44 105 -21 48 -84 125 -113 140 -16 8 -43 24 -60 36
-49 32 -163 64 -258 72 -48 4 -88 6 -91 4z m128 -118 c76 -6 195 -56 266 -111
2 -1 6 -22 8 -45 3 -24 8 -45 12 -48 10 -6 51 -95 51 -109 0 -6 5 -11 10 -11
6 0 10 -4 10 -9 0 -5 16 -32 35 -61 19 -29 33 -56 30 -60 -3 -5 -1 -11 4 -14
5 -4 15 -23 21 -44 7 -20 30 -74 51 -119 22 -44 39 -86 39 -92 0 -7 9 -30 20
-52 12 -22 25 -59 30 -82 10 -48 35 -125 57 -178 8 -19 16 -51 18 -70 1 -19
11 -54 20 -79 17 -45 17 -57 0 -325 -3 -57 -63 -236 -82 -248 -7 -4 -13 -13
-13 -19 0 -5 -17 -44 -37 -86 -30 -61 -60 -98 -145 -184 -59 -59 -112 -108
-118 -108 -11 0 -117 -73 -135 -94 -16 -17 -73 -56 -83 -56 -5 0 -21 -11 -36
-25 -14 -13 -26 -22 -26 -20 0 3 -8 -3 -19 -14 -10 -10 -65 -44 -122 -76 -57
-32 -117 -69 -134 -82 -77 -60 -103 -77 -195 -125 -149 -79 -223 -125 -240
-149 -3 -4 -48 -24 -100 -45 -52 -20 -100 -41 -106 -45 -6 -5 -42 -18 -80 -29
-38 -11 -77 -25 -86 -30 -10 -6 -25 -10 -34 -10 -10 0 -69 -15 -133 -34 -64
-19 -145 -39 -181 -45 -36 -5 -81 -13 -100 -16 -99 -17 -189 -27 -225 -26 -86
2 -231 45 -305 91 -8 5 -52 30 -97 55 -45 25 -114 76 -155 112 -40 36 -89 77
-108 92 -19 14 -50 41 -67 60 -234 244 -294 330 -360 516 -26 76 -28 89 -27
240 1 126 4 168 17 199 10 21 17 51 17 67 0 16 5 29 10 29 6 0 10 7 10 15 0 9
7 18 15 21 8 4 15 11 15 18 0 18 56 73 90 87 16 8 30 17 30 20 0 4 24 16 53
28 28 12 61 26 72 31 22 10 94 29 135 36 14 3 32 7 40 9 13 4 58 9 176 19 17
2 37 6 43 11 21 13 141 26 267 30 115 3 231 24 262 48 7 5 15 7 18 4 3 -3 21
3 39 13 45 25 66 36 95 49 27 12 115 75 140 100 25 26 90 109 90 116 0 3 11
16 24 28 12 12 46 60 75 107 28 47 56 92 61 100 5 8 20 35 33 60 13 25 54 97
92 160 37 63 77 132 89 154 36 65 174 187 263 230 123 60 257 101 397 121 22
3 42 8 45 11 3 3 31 3 61 -1 30 -4 72 -9 93 -11z"/>
<path d="M3677 3209 c-16 -4 -49 -24 -75 -45 -161 -127 -189 -227 -91 -325 78
-78 193 -78 353 1 76 37 107 70 142 146 40 88 16 170 -60 208 -42 20 -217 31
-269 15z m42 -233 c-2 -2 -15 -9 -29 -15 -24 -11 -24 -11 -6 3 16 13 49 24 35
12z"/>
<path d="M3500 2712 c0 -14 -43 -23 -54 -12 -17 17 -34 11 -72 -27 -98 -100
-183 -249 -184 -319 0 -60 47 -154 78 -154 5 0 15 -7 22 -15 17 -21 69 -19
105 4 44 27 111 96 180 181 33 41 62 77 65 80 18 18 35 70 35 109 0 35 -7 55
-29 84 -32 41 -77 70 -104 65 -9 -1 -23 1 -29 5 -7 5 -13 4 -13 -1z"/>
<path d="M3991 2618 c-29 -29 -59 -65 -67 -79 -7 -15 -20 -29 -28 -32 -19 -7
-40 -57 -56 -129 -10 -45 -10 -63 1 -94 13 -41 15 -47 17 -77 1 -10 15 -32 31
-48 33 -33 89 -40 115 -14 8 8 20 15 26 15 17 0 126 113 146 151 9 19 21 50
26 69 5 19 11 44 14 55 22 91 12 156 -30 193 -38 32 -62 42 -103 42 -33 0 -46
-8 -92 -52z"/>
<path d="M4250 1913 c-14 -2 -39 -6 -56 -8 -31 -5 -128 -91 -169 -149 -25 -36
-65 -133 -58 -140 3 -3 0 -12 -7 -21 -16 -20 -21 -108 -8 -146 11 -31 58 -76
94 -90 76 -28 213 90 304 262 32 60 33 63 36 126 2 39 -4 64 -22 101 -21 43
-59 75 -82 71 -4 -1 -18 -3 -32 -6z"/>
<path d="M3922 1879 c-12 -19 -11 -19 8 -9 11 6 20 15 20 20 0 17 -15 11 -28
-11z"/>
<path d="M2545 1837 c-44 -18 -85 -47 -132 -94 -52 -53 -121 -151 -125 -178
-2 -11 -7 -26 -11 -32 -5 -7 -10 -21 -12 -30 -18 -84 -19 -78 28 -128 l45 -48
94 5 c83 4 102 9 158 39 35 18 65 41 68 51 2 10 10 18 17 18 11 0 38 29 87 95
4 6 23 29 42 52 58 72 56 121 -7 183 -63 64 -183 95 -252 67z"/>
<path d="M1560 1780 c-25 -4 -57 -5 -72 -3 -60 9 -194 -86 -237 -167 -28 -55
-27 -118 3 -178 48 -94 125 -120 242 -81 90 29 123 55 177 136 52 81 64 113
62 173 -2 41 -36 119 -53 120 -4 1 -23 2 -42 4 -19 2 -55 1 -80 -4z"/>
<path d="M3455 1709 c-53 -29 -214 -196 -246 -256 -31 -57 -37 -83 -45 -186
-4 -67 -2 -85 16 -119 36 -70 85 -103 141 -95 42 6 72 33 174 162 80 102 120
189 131 290 3 28 8 53 10 57 9 14 -19 111 -39 134 -31 36 -90 42 -142 13z"/>
<path d="M1768 1306 c-26 -6 -57 -19 -68 -28 -11 -10 -22 -18 -25 -18 -3 0
-18 -12 -34 -26 -16 -14 -43 -33 -60 -42 -50 -27 -120 -91 -138 -125 -23 -43
-25 -186 -3 -212 63 -77 147 -94 242 -51 67 31 69 33 154 141 71 91 124 192
124 238 0 61 -38 110 -96 122 -6 2 -20 5 -30 8 -11 3 -40 0 -66 -7z"/>
<path d="M2475 900 c-11 -4 -25 -5 -31 -3 -6 2 -17 -3 -24 -12 -7 -8 -17 -15
-22 -15 -12 0 -65 -37 -106 -75 -18 -16 -47 -57 -63 -89 -26 -51 -29 -66 -24
-108 5 -33 15 -55 32 -70 14 -13 33 -30 42 -38 58 -53 203 -70 282 -33 44 21
131 92 175 143 12 14 33 38 47 54 36 41 42 102 14 137 -29 35 -88 69 -122 69
-15 0 -34 9 -44 21 -13 16 -30 22 -76 24 -33 1 -69 -1 -80 -5z"/>
<path d="M1515 3311 c-16 -10 -43 -33 -59 -50 -17 -17 -35 -31 -42 -31 -28 0
-36 -38 -36 -160 0 -118 24 -234 65 -318 35 -73 75 -105 147 -121 39 -9 51 -7
88 12 47 23 84 76 97 137 10 47 7 220 -4 234 -5 6 -13 34 -19 61 -6 28 -18 64
-26 80 -9 17 -16 37 -16 45 0 8 -9 34 -19 56 -31 69 -113 94 -176 55z"/>
<path d="M2304 2785 c-93 -21 -138 -59 -225 -189 -42 -64 -54 -90 -57 -131 -4
-48 -2 -54 31 -89 22 -23 38 -33 42 -26 5 8 10 8 20 0 24 -20 229 54 242 87 3
7 10 13 17 13 32 1 136 128 136 166 0 14 -13 45 -30 69 -16 24 -30 48 -30 52
0 42 -70 65 -146 48z"/>
<path d="M1015 2682 c-38 -24 -47 -34 -83 -107 -19 -37 -43 -67 -62 -78 -20
-12 -29 -24 -26 -35 3 -9 8 -35 11 -57 14 -87 40 -154 94 -236 49 -76 62 -89
111 -113 31 -14 68 -26 82 -26 32 0 88 19 88 30 0 5 8 11 18 14 17 6 74 87 71
103 -1 4 3 22 10 38 38 89 21 197 -52 332 -54 100 -78 124 -142 142 -56 15
-85 14 -120 -7z m258 -351 c2 -10 1 -25 -4 -32 -6 -10 -9 -4 -9 19 0 36 5 42
13 13z"/>
</g>
</svg>
