<?xml version="1.0" standalone="no"?>
<!DOCTYPE svg PUBLIC "-//W3C//DTD SVG 20010904//EN"
 "http://www.w3.org/TR/2001/REC-SVG-20010904/DTD/svg10.dtd">
<svg version="1.0" xmlns="http://www.w3.org/2000/svg"
 width="411.000000pt" height="401.000000pt" viewBox="0 0 411.000000 401.000000"
 preserveAspectRatio="xMidYMid meet">
<metadata>
Created by potrace 1.16, written by Peter Selinger 2001-2019
</metadata>
<g transform="translate(0.000000,401.000000) scale(0.100000,-0.100000)"
fill="#000000" stroke="none">
<path d="M1855 3879 c-33 -4 -82 -13 -110 -19 -27 -6 -84 -18 -125 -25 -141
-26 -404 -130 -512 -202 -39 -26 -79 -52 -87 -58 -33 -21 -217 -163 -241 -187
-40 -39 -164 -179 -174 -197 -5 -9 -12 -18 -16 -21 -11 -7 -140 -199 -140
-207 0 -3 -6 -14 -14 -22 -14 -17 -96 -204 -96 -221 0 -5 -11 -38 -24 -72 -26
-70 -66 -209 -78 -278 -14 -73 -34 -404 -27 -446 4 -22 9 -68 12 -104 19 -211
108 -483 219 -671 18 -30 46 -77 62 -105 48 -80 174 -232 276 -334 170 -169
436 -326 706 -419 143 -48 348 -83 482 -81 42 0 109 1 147 1 206 0 343 28 580
119 11 4 38 15 60 25 22 10 47 19 55 20 8 1 31 12 50 23 19 12 46 27 60 32 14
6 30 16 35 23 6 7 32 23 58 37 27 14 56 32 65 40 9 8 49 39 87 68 130 100 279
256 324 340 6 12 21 32 34 46 26 29 112 171 145 241 13 28 31 68 42 90 10 22
25 60 33 85 9 25 23 65 32 90 9 25 19 56 21 70 2 14 13 66 25 115 11 50 22
131 24 180 3 50 7 126 10 169 9 144 -27 391 -80 551 -35 105 -96 255 -128 310
-6 11 -21 40 -34 65 -24 47 -39 70 -163 235 -149 201 -369 380 -600 492 -200
96 -242 111 -415 153 -134 32 -172 37 -330 44 -60 3 -128 7 -150 10 -22 2 -67
0 -100 -5z m131 -246 c-1 -25 3 -28 33 -31 18 -2 38 1 44 7 6 6 20 11 30 11
14 0 18 5 14 20 -4 17 -2 19 21 14 37 -9 37 -11 10 -24 -36 -19 -88 -72 -88
-90 0 -9 5 -21 12 -28 15 -15 120 95 113 119 -4 13 0 15 19 12 16 -3 23 -10
19 -19 -9 -24 6 -64 25 -64 25 0 42 19 43 50 l1 25 11 -27 c6 -16 19 -30 29
-34 10 -3 18 -9 18 -14 0 -17 27 1 38 25 l11 24 47 -17 46 -17 -52 -10 c-55
-10 -78 -31 -67 -59 4 -11 18 -16 42 -16 20 0 49 -7 65 -15 17 -9 30 -11 30
-6 0 6 14 17 30 26 32 16 40 35 15 35 -8 0 -19 9 -25 20 -6 11 -9 20 -8 20 6
0 114 -41 143 -54 17 -8 44 -20 60 -27 17 -7 48 -25 70 -40 22 -14 47 -28 55
-31 8 -3 65 -43 125 -88 114 -85 202 -163 257 -232 18 -22 40 -48 49 -57 17
-17 111 -156 122 -181 4 -8 15 -28 25 -45 10 -16 22 -39 26 -50 6 -16 5 -18
-5 -7 -27 26 -80 5 -72 -29 3 -9 -3 -19 -12 -23 -20 -7 -38 2 -29 16 9 14 -15
55 -36 61 -29 8 -56 -62 -30 -78 6 -3 10 -16 10 -28 1 -50 42 -66 79 -33 10 9
23 16 29 16 6 0 9 7 5 17 -5 14 -1 15 27 10 25 -5 36 -3 45 10 11 14 15 9 34
-43 12 -32 26 -68 31 -79 5 -11 18 -45 28 -75 11 -30 23 -63 27 -72 6 -14 2
-18 -15 -18 -24 0 -57 -16 -78 -37 -12 -11 -11 -17 3 -39 9 -14 15 -27 13 -28
-2 -1 -18 -9 -36 -16 -33 -13 -34 -14 -27 -59 9 -70 14 -78 40 -85 26 -7 29
-17 26 -77 -2 -30 3 -40 27 -57 18 -14 29 -17 30 -9 1 7 5 28 8 48 3 21 2 39
-4 43 -7 4 -6 18 4 42 16 38 12 52 -18 63 -19 7 -18 9 15 28 l35 21 11 -62
c13 -75 15 -317 2 -368 -5 -20 -6 -39 -3 -42 3 -4 1 -6 -5 -6 -6 0 -10 -6 -10
-12 4 -31 -16 -144 -28 -169 -8 -14 -12 -29 -10 -31 6 -6 -27 -109 -54 -168
-19 -41 -21 -43 -21 -16 0 21 -4 27 -16 22 -9 -3 -22 -6 -29 -6 -19 0 -36 -55
-22 -69 15 -15 26 -14 44 4 8 9 17 14 19 12 7 -6 -63 -142 -80 -156 -9 -7 -16
-19 -16 -26 0 -20 -60 -96 -70 -90 -17 11 -11 43 10 50 27 9 26 44 -2 54 -31
12 -78 -21 -78 -55 0 -21 -3 -23 -19 -14 -45 24 -81 -1 -81 -56 0 -28 4 -35
26 -40 14 -4 30 -2 37 5 13 13 46 14 66 2 12 -8 9 -16 -15 -45 -43 -54 -104
-117 -151 -157 -46 -39 -87 -43 -98 -9 -3 10 -18 21 -32 25 -19 4 -23 9 -14
14 20 13 4 51 -26 62 -20 7 -28 6 -38 -8 -15 -20 -4 -50 20 -59 11 -5 12 -10
2 -26 -10 -16 -8 -23 13 -42 56 -50 55 -59 -17 -107 -62 -42 -160 -97 -175
-98 -4 -1 -5 5 -2 13 4 9 -6 20 -25 30 -41 22 -50 20 -63 -9 -9 -20 -8 -28 6
-44 16 -18 15 -20 -27 -40 -47 -23 -72 -26 -81 -12 -11 17 -61 -4 -64 -27 -4
-27 -9 -28 -31 -1 -15 18 -21 20 -39 10 -12 -6 -22 -20 -22 -31 0 -12 -8 -21
-22 -24 -13 -2 -48 -9 -78 -16 -121 -26 -188 -21 -130 10 11 6 20 20 20 32 0
17 3 18 15 8 15 -12 39 -5 30 10 -7 11 5 40 16 40 5 0 7 -11 3 -25 -4 -17 -1
-32 10 -44 19 -21 56 -17 56 5 0 7 9 31 21 53 14 27 18 45 12 56 -8 14 -14 11
-41 -15 -18 -16 -36 -30 -41 -30 -15 0 -25 21 -14 29 6 3 14 25 18 49 6 35 4
42 -9 42 -9 0 -20 8 -23 18 -4 9 -13 23 -21 31 -12 13 -15 12 -24 -2 -5 -9
-16 -17 -23 -17 -8 0 -15 -7 -15 -15 0 -18 -14 -19 -42 -4 -17 9 -24 7 -44
-14 -23 -25 -23 -26 -5 -49 17 -21 21 -21 45 -9 20 11 28 12 40 2 8 -7 19 -10
24 -7 5 3 18 -1 28 -9 18 -14 18 -14 -3 -30 -14 -10 -20 -22 -16 -33 3 -9 -5
-5 -18 11 -19 22 -33 28 -67 30 -46 1 -62 -11 -62 -50 0 -16 6 -23 18 -23 15
0 18 -6 14 -33 -3 -17 -9 -35 -15 -39 -14 -9 -177 -1 -242 12 -27 5 -66 12
-85 14 -69 11 -96 17 -180 42 -47 14 -89 30 -95 35 -5 5 -16 9 -24 9 -9 0 -39
12 -68 26 l-52 27 1 49 c0 28 -5 55 -11 61 -17 17 -150 15 -161 -2 -13 -22
-43 5 -31 28 16 30 23 99 11 106 -17 11 -73 -16 -61 -28 6 -6 11 -23 11 -37 0
-14 6 -32 13 -40 6 -7 -17 9 -53 36 -114 86 -120 94 -71 94 35 0 42 8 34 38
-4 17 -13 22 -37 22 -18 0 -41 -6 -52 -14 -18 -14 -24 -10 -79 48 -33 35 -87
103 -120 152 -33 49 -63 91 -66 94 -19 15 -119 206 -123 235 -1 8 -5 18 -9 21
-4 4 -7 17 -7 29 0 11 -4 25 -9 31 -7 8 -28 70 -60 179 -5 17 -13 53 -17 80
-4 28 -9 57 -11 65 -2 8 -5 43 -8 77 l-4 62 20 -20 c11 -11 27 -18 35 -15 8 3
20 8 27 11 7 3 26 -6 41 -20 34 -31 58 -26 79 18 15 30 15 32 -10 48 -13 9
-33 14 -44 12 -22 -6 -26 12 -4 21 27 10 16 26 -25 32 -22 4 -40 8 -40 11 0 2
10 22 22 43 43 73 -8 69 -57 -5 -25 -39 -25 -45 -1 -72 l19 -23 -26 0 c-15 0
-28 -6 -28 -12 -5 -43 -13 111 -9 172 4 55 9 74 18 72 14 -3 51 36 52 54 0 6
-14 17 -30 24 -21 9 -29 18 -26 29 3 9 10 39 16 66 24 116 108 341 156 422 19
30 34 58 34 60 0 8 95 137 158 215 47 59 56 66 72 56 10 -7 17 -15 14 -19 -2
-4 0 -10 6 -14 6 -4 8 -10 5 -15 -3 -4 11 -11 30 -14 19 -4 39 -14 43 -23 5
-9 35 -24 66 -33 54 -17 56 -17 56 1 0 10 -16 30 -35 45 -28 21 -33 29 -24 40
6 8 8 14 3 14 -19 1 42 29 64 30 15 0 22 6 22 19 0 11 9 23 21 26 16 5 19 12
14 35 -4 20 -2 29 9 33 9 4 16 17 16 30 0 20 7 26 43 33 35 8 42 13 40 32 -3
22 9 27 47 24 8 -1 34 5 58 14 36 14 42 19 36 37 -10 33 -22 43 -36 29 -7 -7
-19 -12 -27 -12 -12 0 -12 3 1 18 9 9 14 22 11 29 -2 6 9 18 25 25 28 14 29
14 40 -14 11 -31 20 -30 80 5 29 17 32 23 27 48 -6 25 -3 29 22 35 15 3 37 8
47 11 14 4 18 1 13 -11 -5 -13 4 -48 19 -74 4 -8 44 -9 45 -1 1 5 2 13 3 18 3
22 18 23 32 3 8 -12 24 -22 34 -22 18 0 120 49 106 51 -3 1 -10 2 -15 3 -5 0
-13 4 -17 9 -4 4 -18 7 -31 7 -20 0 -24 5 -21 23 4 32 45 36 50 5 5 -35 34
-33 70 4 29 29 40 34 89 36 56 2 56 2 55 -25z m-343 -20 c-7 -2 -19 -2 -25 0
-7 3 -2 5 12 5 14 0 19 -2 13 -5z m-206 -49 c-3 -3 -12 -4 -19 -1 -8 3 -5 6 6
6 11 1 17 -2 13 -5z m-247 -124 c0 -5 -5 -10 -11 -10 -5 0 -7 5 -4 10 3 6 8
10 11 10 2 0 4 -4 4 -10z m73 -20 c-3 -11 -9 -17 -15 -14 -5 3 -4 12 3 20 16
19 18 18 12 -6z m-160 -47 c-11 -17 -25 -27 -35 -25 -14 3 -11 9 15 32 38 34
44 32 20 -7z m-121 -85 c-18 -18 -15 -65 5 -72 9 -4 21 -2 27 4 15 15 36 12
36 -5 0 -11 -12 -15 -45 -15 -34 0 -47 -5 -55 -20 -6 -11 -8 -25 -5 -30 12
-19 -16 -10 -42 15 -27 24 -27 24 -8 47 45 54 80 88 89 88 6 0 5 -5 -2 -12z
m108 2 c0 -5 -12 -10 -27 -9 -25 0 -26 1 -8 9 27 12 35 12 35 0z m2500 -937
c0 -20 -7 -31 -27 -40 -15 -7 -29 -11 -31 -8 -4 3 47 72 56 74 1 1 2 -11 2
-26z m-2357 -1743 c6 -23 6 -24 -28 -8 -18 8 -22 14 -13 20 21 13 35 9 41 -12z"/>
<path d="M1930 3610 c-14 -3 -26 -14 -28 -25 -2 -11 -11 -34 -19 -52 -20 -43
-14 -88 12 -88 11 0 26 -6 34 -13 7 -7 20 -11 28 -8 8 3 19 6 24 6 5 0 9 6 9
13 0 8 9 22 20 32 29 26 25 35 -17 35 -32 1 -35 3 -22 13 25 20 30 45 10 59
-10 7 -20 18 -22 24 -2 6 -15 8 -29 4z"/>
<path d="M2221 3500 c-41 -41 -53 -113 -23 -142 l20 -20 12 22 c6 12 9 33 6
46 -7 27 12 41 71 50 47 7 46 6 38 43 -6 26 -9 29 -29 21 -13 -5 -29 -4 -37 1
-21 13 -25 12 -58 -21z"/>
<path d="M1484 3488 c-12 -6 -27 -20 -34 -32 -6 -12 -36 -33 -66 -46 -30 -13
-54 -29 -54 -36 0 -6 -9 -23 -20 -37 -16 -20 -18 -31 -10 -51 6 -17 6 -26 0
-26 -6 0 -10 -5 -10 -12 0 -6 -7 -19 -16 -29 -22 -24 -10 -59 21 -59 13 0 36
5 52 11 24 9 26 12 12 22 -19 14 -15 68 6 80 8 4 11 15 8 24 -4 9 1 19 10 25
10 5 17 15 17 21 0 17 37 48 63 53 26 5 32 11 46 53 13 40 5 53 -25 39z"/>
<path d="M1639 3482 c-9 -9 -18 -24 -22 -34 -8 -22 25 -50 49 -41 18 6 18 6 2
-10 -23 -24 -47 -21 -58 7 -5 13 -14 26 -21 28 -21 7 -49 -24 -49 -54 0 -26
-3 -28 -40 -28 -22 0 -40 -4 -40 -9 0 -5 -9 -13 -20 -16 -24 -8 -27 -56 -5
-75 12 -10 21 -10 41 -1 14 6 34 11 44 11 15 0 20 7 20 28 1 28 23 66 33 56 3
-3 19 2 35 10 30 15 30 15 41 -14 5 -17 14 -30 18 -30 15 0 73 61 73 77 0 9 6
13 15 9 8 -3 26 -1 40 4 28 11 33 44 11 72 -11 15 -17 16 -43 6 -26 -10 -34
-9 -48 5 -21 21 -55 21 -76 -1z"/>
<path d="M2574 3466 c-18 -14 -18 -15 10 -45 33 -34 44 -37 70 -18 17 13 17
15 2 45 -18 35 -49 42 -82 18z"/>
<path d="M2029 3434 c-6 -8 -9 -22 -7 -32 3 -10 -1 -27 -8 -37 -8 -10 -14 -36
-14 -57 0 -37 1 -38 35 -38 36 0 47 16 19 27 -11 4 -13 13 -8 37 8 35 32 57
54 51 10 -3 23 7 33 25 10 17 17 31 15 31 -2 1 -27 3 -56 4 -34 1 -56 -3 -63
-11z"/>
<path d="M2403 3423 c-7 -3 -13 -11 -13 -19 0 -18 -14 -18 -30 1 -20 24 -36
18 -51 -17 -29 -69 -2 -87 68 -47 29 17 53 27 54 22 1 -4 2 -15 3 -23 2 -8 3
-25 4 -38 3 -34 46 -72 81 -72 73 0 80 27 16 58 -47 23 -51 33 -47 107 2 29 0
31 -35 32 -21 0 -44 -1 -50 -4z"/>
<path d="M2798 3380 c-21 -19 -23 -53 -5 -67 27 -22 78 -3 76 29 0 7 -12 22
-27 34 -25 20 -28 20 -44 4z"/>
<path d="M2585 3370 c-15 -17 -16 -24 -6 -46 7 -17 17 -24 26 -20 8 3 22 9 30
12 9 4 15 0 15 -9 0 -9 9 -19 21 -22 27 -9 62 30 53 59 -9 28 -6 26 -59 31
-26 3 -50 7 -55 10 -4 2 -15 -4 -25 -15z"/>
<path d="M1850 3363 c-21 -24 -23 -68 -5 -83 17 -14 67 0 96 26 17 15 16 18
-16 45 -38 33 -55 36 -75 12z"/>
<path d="M2123 3357 c-12 -6 -26 -21 -32 -34 -11 -25 -5 -56 10 -47 5 3 17 0
26 -5 11 -6 13 -11 5 -11 -7 0 -10 -4 -7 -10 3 -5 1 -10 -6 -10 -7 0 0 -13 16
-30 29 -30 59 -39 70 -20 10 17 46 11 63 -11 15 -18 22 -19 61 -10 53 12 73
28 51 41 -8 5 -25 10 -36 10 -12 0 -27 7 -34 15 -22 26 -46 17 -42 -17 1 -3
-12 -1 -28 5 -36 14 -37 19 -7 32 32 14 28 39 -8 43 -39 5 -55 19 -52 45 2 24
-18 30 -50 14z"/>
<path d="M1700 3295 c-12 -31 1 -55 30 -55 23 0 33 -67 12 -75 -20 -7 -22 -7
-22 10 0 8 -9 15 -20 15 -13 0 -18 5 -14 15 12 30 -48 73 -73 53 -7 -6 -19 -8
-26 -5 -14 5 -32 -11 -63 -57 -13 -21 -14 -29 -4 -41 7 -8 18 -15 26 -15 18 0
44 39 37 56 -6 16 13 19 22 4 3 -5 19 -10 36 -10 32 0 35 -6 14 -34 -19 -25
-19 -55 -1 -62 18 -7 53 12 89 47 15 15 37 31 50 34 12 4 35 19 50 33 l28 26
-38 12 c-25 7 -42 7 -51 1 -22 -17 -26 2 -3 20 27 23 15 42 -32 50 -33 5 -38
3 -47 -22z"/>
<path d="M2861 3291 c-15 -10 -7 -46 15 -68 11 -12 18 -11 39 3 28 18 32 39
11 60 -16 16 -44 18 -65 5z"/>
<path d="M1182 3268 c-16 -16 -15 -40 2 -63 12 -16 17 -17 45 -6 28 12 42 31
23 31 -5 0 -14 11 -20 25 -13 27 -31 32 -50 13z"/>
<path d="M1983 3242 c-53 -8 -29 -112 25 -112 15 0 34 5 42 10 13 9 12 13 -8
28 -13 10 -27 32 -30 48 -6 23 -12 28 -29 26z"/>
<path d="M2766 3228 c-8 -37 -4 -57 14 -73 15 -14 20 -14 46 -1 35 19 41 14
20 -19 -13 -19 -14 -30 -6 -45 15 -27 39 -25 50 4 5 13 13 25 19 27 5 2 7 17
4 32 -4 21 -10 26 -24 22 -13 -4 -19 -1 -19 8 0 8 -11 18 -24 21 -14 3 -28 15
-31 26 -9 28 -43 26 -49 -2z"/>
<path d="M2711 3221 c-13 -11 -32 -23 -42 -26 -26 -8 -63 -89 -55 -121 6 -22
11 -25 34 -19 15 3 38 17 50 29 21 21 22 25 9 37 -14 12 -12 18 15 46 25 26
30 36 22 53 l-9 21 -24 -20z"/>
<path d="M2487 3205 c-10 -7 -20 -20 -21 -29 -3 -22 -75 -81 -110 -90 -50 -12
-83 -70 -53 -93 17 -14 78 13 84 37 3 11 9 17 14 14 5 -3 23 -3 40 1 23 5 28
11 24 25 -6 18 17 50 36 50 10 0 99 81 99 90 0 11 -96 7 -113 -5z"/>
<path d="M1403 3165 c-10 -7 -25 -32 -32 -53 -8 -24 -21 -42 -32 -45 -11 -3
-22 -13 -26 -24 -3 -10 -10 -20 -14 -23 -4 -3 -14 -22 -22 -43 -28 -65 2 -93
53 -50 27 23 29 27 14 37 -15 11 -15 15 0 50 13 31 19 36 30 27 26 -21 54 6
49 46 -3 20 0 33 6 33 13 0 15 46 3 54 -5 3 -18 -1 -29 -9z"/>
<path d="M3015 3161 c-24 -28 -13 -71 18 -70 12 1 29 -1 38 -5 11 -5 18 -1 23
11 3 10 8 23 11 29 3 6 -2 14 -12 17 -10 4 -27 13 -39 22 -19 14 -22 14 -39
-4z"/>
<path d="M1890 3155 c-22 -27 -86 -55 -97 -44 -16 16 -62 -30 -69 -68 -9 -46
20 -59 76 -34 23 10 41 22 42 27 0 14 67 84 79 84 13 0 8 42 -7 47 -6 2 -17
-4 -24 -12z"/>
<path d="M1178 3143 c-19 -5 -34 -45 -23 -62 3 -6 2 -11 -3 -11 -14 0 -31 -46
-22 -60 9 -15 99 -15 113 -1 5 5 -5 18 -22 30 -25 18 -29 25 -18 35 7 7 18 15
24 17 10 3 10 9 0 28 -13 26 -23 31 -49 24z"/>
<path d="M2533 3123 c-7 -2 -13 -10 -13 -17 0 -6 -27 -38 -60 -71 -33 -33 -60
-65 -60 -71 0 -7 -6 -14 -14 -17 -9 -3 -12 -15 -9 -31 7 -32 29 -33 79 -4 32
19 35 23 20 34 -15 11 -13 17 25 60 22 27 46 54 53 59 6 6 11 17 10 25 -3 43
-4 44 -31 33z"/>
<path d="M1573 3085 c4 -8 2 -17 -3 -20 -12 -7 -13 -55 -2 -70 12 -18 66 -11
100 13 17 13 32 25 32 28 0 2 -18 12 -39 21 -24 10 -37 22 -34 30 4 9 -5 13
-27 13 -24 0 -31 -4 -27 -15z"/>
<path d="M1980 3064 c-6 -14 -10 -29 -10 -34 0 -4 -27 -11 -59 -15 -49 -6 -60
-10 -65 -28 -6 -25 10 -47 33 -47 17 1 62 30 45 30 -5 0 2 9 16 19 18 15 29
17 43 9 23 -12 47 -4 47 15 0 8 7 20 15 27 21 17 19 25 -10 38 -37 17 -44 15
-55 -14z"/>
<path d="M2190 3083 c-14 -3 -31 -10 -37 -15 -16 -13 -17 -44 -2 -53 15 -10
98 17 104 34 5 14 -20 43 -34 40 -3 -1 -17 -4 -31 -6z"/>
<path d="M810 3042 c-38 -18 -72 -79 -52 -91 20 -12 154 30 147 47 -3 7 -5 19
-5 26 0 6 -13 17 -29 23 -23 8 -36 7 -61 -5z"/>
<path d="M3126 3042 c-7 -22 -38 -25 -73 -7 -37 19 -55 3 -51 -44 3 -40 8 -41
101 -27 80 11 119 50 85 84 -18 18 -56 15 -62 -6z"/>
<path d="M2098 3032 c-9 -2 -20 -12 -23 -23 -4 -10 -11 -19 -17 -19 -6 0 -8
-13 -5 -34 4 -28 2 -35 -14 -39 -24 -7 -26 -52 -1 -66 16 -9 15 -11 -5 -26
-13 -9 -23 -21 -23 -27 0 -7 -21 -31 -47 -56 l-48 -44 -12 31 c-14 34 -16 35
-42 21 -28 -14 -33 -38 -15 -65 13 -20 20 -23 34 -15 26 14 27 13 26 -12 -1
-32 49 -39 59 -9 7 23 16 26 32 10 12 -12 80 -2 89 13 4 5 1 15 -5 21 -6 6
-11 19 -11 30 0 11 -6 18 -17 16 -28 -2 -43 0 -43 9 0 4 10 8 23 8 85 5 107 8
107 17 0 6 3 7 7 3 8 -8 32 45 26 57 -2 4 -15 7 -29 7 -13 0 -24 4 -24 9 0 4
-12 6 -27 3 -26 -5 -26 -5 -7 15 10 11 27 23 37 26 33 12 18 33 -20 28 -7 -1
-13 3 -13 9 0 5 7 10 16 10 9 0 14 7 12 18 -1 9 0 22 3 27 11 18 -5 51 -23 47z"/>
<path d="M2863 3013 c-13 -8 -23 -22 -23 -30 0 -11 -5 -13 -17 -8 -34 14 -46
10 -54 -19 -11 -41 5 -59 48 -51 32 6 33 5 33 -28 0 -44 20 -61 60 -52 43 10
48 31 14 66 -24 25 -26 31 -14 39 8 5 19 10 25 10 5 0 4 5 -2 11 -9 9 -9 16 0
30 21 34 -33 58 -70 32z"/>
<path d="M2578 3006 c-25 -13 -34 -61 -13 -70 7 -2 31 4 55 15 23 10 48 19 56
19 17 0 29 19 18 30 -16 14 -92 18 -116 6z"/>
<path d="M916 2973 c-10 -32 0 -58 23 -61 28 -4 50 13 46 36 -2 9 -4 22 -4 27
-1 6 -14 12 -30 13 -21 2 -31 -3 -35 -15z"/>
<path d="M1622 2959 c-12 -5 -27 -20 -34 -34 -6 -14 -17 -25 -24 -25 -21 0
-74 -34 -79 -51 -7 -20 4 -49 17 -49 5 0 28 9 50 20 23 11 43 18 45 17 2 -2
-1 -26 -6 -53 -13 -64 3 -85 43 -59 26 17 26 17 26 -9 0 -14 3 -27 8 -27 58
-9 59 -8 75 33 l16 41 -44 -5 c-25 -3 -42 -2 -39 3 3 5 -3 9 -13 9 -12 0 -19
8 -20 21 -1 11 -8 27 -15 36 -18 22 -22 63 -5 63 8 0 24 9 37 20 13 11 27 20
32 20 5 0 8 5 6 12 -6 17 -49 27 -76 17z"/>
<path d="M1446 2944 c-10 -26 -7 -51 8 -63 15 -13 33 -6 83 30 22 16 22 16
-20 33 -53 20 -63 20 -71 0z"/>
<path d="M2204 2936 c-6 -7 -14 -33 -18 -58 -6 -37 -4 -47 9 -52 9 -3 20 -4
25 -1 4 3 -3 -18 -17 -46 -14 -28 -32 -53 -39 -56 -8 -3 -14 -14 -14 -24 0
-23 -65 -68 -106 -72 -38 -5 -56 -15 -48 -28 8 -13 -24 -61 -36 -54 -14 9 -12
-7 4 -27 7 -10 24 -18 36 -18 13 0 20 3 17 6 -6 7 22 63 33 65 3 0 16 2 30 3
30 2 70 34 70 57 0 9 9 24 20 34 20 19 29 8 9 -12 -16 -16 -7 -57 14 -61 18
-4 77 43 77 60 0 5 -12 20 -27 34 l-27 25 28 56 c27 55 28 56 39 32 7 -13 22
-28 35 -34 12 -5 24 -17 27 -25 4 -12 19 -15 78 -12 l74 4 9 -32 c8 -28 16
-35 54 -45 25 -7 55 -16 66 -20 33 -10 37 19 9 53 l-24 29 55 23 c74 32 85 47
40 55 -19 4 -39 4 -45 1 -5 -4 -13 0 -18 7 -4 7 -16 16 -25 20 -23 8 -42 -26
-33 -61 5 -22 4 -24 -9 -13 -9 8 -26 11 -38 8 -11 -3 -37 1 -56 9 -19 7 -44
15 -56 15 -17 1 -17 2 -3 6 20 5 23 36 5 50 -13 11 -93 9 -128 -2 -23 -7 -26
2 -6 24 7 9 17 26 20 39 9 26 -14 31 -38 7 -15 -15 -41 -21 -32 -7 2 4 -3 17
-12 29 -13 17 -19 19 -28 9z"/>
<path d="M2629 2934 c-9 -12 -9 -20 1 -39 11 -21 21 -25 61 -25 42 0 47 2 46
23 0 12 3 30 7 39 7 14 0 17 -48 17 -36 0 -59 -5 -67 -15z"/>
<path d="M3132 2938 c-19 -19 -14 -47 12 -73 36 -36 60 -24 53 27 -3 22 -7 41
-9 43 -13 11 -46 13 -56 3z"/>
<path d="M3221 2936 c-21 -25 -10 -61 19 -64 40 -4 56 12 44 45 -11 32 -44 42
-63 19z"/>
<path d="M1362 2920 c-26 -24 -28 -43 -7 -64 20 -19 42 -11 59 22 11 22 11 27
-5 43 -23 23 -21 23 -47 -1z"/>
<path d="M1743 2924 c-16 -16 -16 -26 -1 -59 7 -15 17 -24 25 -21 7 3 13 0 13
-6 0 -25 44 39 63 92 5 12 -89 7 -100 -6z"/>
<path d="M1886 2909 c-24 -41 -6 -64 24 -31 12 12 27 22 35 22 8 0 15 9 15 20
0 34 -52 27 -74 -11z"/>
<path d="M995 2906 c-13 -17 -13 -22 1 -38 16 -16 18 -16 56 3 31 16 37 23 28
33 -19 24 -69 25 -85 2z"/>
<path d="M691 2907 c-6 -6 -11 -17 -11 -24 0 -7 -4 -13 -8 -13 -5 0 -9 -15 -8
-32 1 -28 5 -33 26 -33 20 0 25 5 26 26 2 42 12 51 36 30 11 -11 27 -17 35
-14 7 3 13 2 12 -3 -1 -5 1 -17 5 -26 6 -13 18 -16 58 -13 63 4 78 17 53 45
-10 11 -26 20 -37 20 -10 0 -18 6 -18 14 0 23 -66 41 -92 25 -6 -4 -23 -3 -38
1 -18 5 -32 4 -39 -3z"/>
<path d="M1135 2897 c-20 -11 -19 -46 0 -53 11 -5 12 -10 6 -18 -6 -7 -8 -22
-4 -34 6 -23 27 -29 38 -12 4 6 11 8 16 5 5 -4 9 6 9 20 0 24 1 25 16 11 8 -9
18 -16 22 -16 20 1 41 30 44 60 3 30 0 35 -20 36 -13 1 -33 -8 -44 -20 -12
-11 -18 -15 -14 -8 4 6 2 12 -3 12 -6 0 -11 6 -11 14 0 16 -30 17 -55 3z"/>
<path d="M2465 2901 c-8 -14 -10 -99 -3 -107 9 -9 48 2 72 19 19 14 19 14 -2
35 -12 12 -22 28 -22 36 0 8 -7 17 -16 20 -20 8 -22 8 -29 -3z"/>
<path d="M3063 2843 c-7 -2 -13 -20 -13 -38 0 -42 27 -54 65 -29 30 19 30 22
6 52 -19 22 -33 26 -58 15z"/>
<path d="M1797 2823 c-4 -3 -7 -15 -7 -25 0 -10 -4 -18 -10 -18 -5 0 -10 -11
-10 -25 0 -32 26 -33 74 -2 45 28 56 52 21 43 -18 -5 -25 -2 -25 8 0 8 -7 17
-16 20 -19 7 -19 7 -27 -1z"/>
<path d="M950 2813 c-8 -2 -28 -22 -43 -44 -21 -29 -34 -38 -47 -34 -12 4 -27
-2 -39 -14 -26 -26 -26 -37 -2 -51 20 -10 81 -3 81 10 0 4 20 11 45 14 50 8
66 23 41 41 -14 11 -15 14 -1 25 8 7 15 18 15 24 0 15 -31 33 -50 29z"/>
<path d="M2844 2784 c-4 -17 -10 -22 -17 -15 -20 20 -47 -7 -47 -47 0 -20 -9
-52 -20 -70 -24 -39 -23 -82 1 -82 16 0 49 33 74 73 6 9 24 18 40 20 43 5 45
34 4 45 -18 4 -34 14 -37 22 -3 12 -2 13 6 1 16 -22 67 8 67 39 1 29 -11 40
-42 40 -16 0 -25 -8 -29 -26z"/>
<path d="M687 2766 c-42 -34 -33 -62 18 -58 21 2 48 10 59 18 20 14 20 14 -7
14 -17 0 -27 5 -26 13 5 43 -4 46 -44 13z"/>
<path d="M1260 2755 c-24 -63 0 -124 50 -126 30 -2 80 17 80 29 0 5 11 21 25
36 14 14 22 24 19 21 -10 -7 -64 24 -64 37 0 7 -13 0 -28 -15 -15 -15 -30 -27
-33 -27 -3 0 -5 15 -4 32 0 43 -30 52 -45 13z"/>
<path d="M1470 2751 c0 -51 21 -54 70 -11 l45 39 -57 1 c-57 0 -58 0 -58 -29z"/>
<path d="M3130 2745 c-7 -8 -10 -24 -7 -35 4 -15 -5 -27 -34 -48 -21 -16 -36
-32 -32 -36 10 -10 12 -36 3 -36 -5 0 -10 6 -12 12 -3 8 -9 4 -17 -10 -7 -12
-9 -32 -6 -43 6 -17 14 -20 48 -17 29 2 42 -2 45 -12 10 -32 23 -40 39 -25 8
8 27 15 43 15 16 0 31 4 35 10 3 5 14 1 25 -10 21 -21 38 -19 82 14 21 15 25
23 17 33 -6 7 -22 13 -35 13 -12 0 -25 4 -29 10 -8 13 -33 1 -40 -19 -5 -16
-10 -16 -40 -7 -19 6 -34 15 -32 21 2 5 -2 16 -9 23 -10 10 -18 10 -35 2 -11
-7 -23 -10 -25 -7 -4 4 67 100 79 105 18 8 5 43 -19 52 -32 12 -29 13 -44 -5z"/>
<path d="M1110 2724 c-13 -34 -13 -41 4 -47 15 -6 65 5 86 18 17 11 -29 55
-57 55 -16 0 -27 -8 -33 -26z"/>
<path d="M1042 2719 c-26 -10 -47 -51 -39 -74 10 -24 31 -28 73 -10 l39 16
-24 18 c-13 10 -21 22 -18 28 11 17 -7 31 -31 22z"/>
<path d="M572 2683 c-38 -34 -35 -114 3 -99 30 11 34 -4 9 -31 -14 -15 -28
-39 -31 -54 -3 -19 -18 -33 -49 -48 -53 -27 -62 -65 -19 -81 51 -19 92 3 65
35 -16 19 4 39 45 43 16 2 36 8 43 14 9 8 17 6 30 -5 17 -16 21 -15 53 12 32
28 33 30 17 47 -12 12 -21 14 -30 7 -26 -20 -47 -21 -66 -4 -15 12 -18 21 -11
32 15 23 10 39 -11 39 -24 0 -26 26 -5 54 35 46 1 77 -43 39z"/>
<path d="M715 2671 c-14 -45 31 -73 62 -39 17 19 17 21 -6 39 -29 24 -48 24
-56 0z"/>
<path d="M1498 2625 c-21 -20 -38 -43 -38 -52 0 -12 -3 -14 -11 -6 -11 11 -56
6 -65 -8 -12 -20 -12 -50 1 -55 7 -3 24 2 37 10 14 9 28 13 31 9 4 -3 7 2 8
13 0 11 3 14 6 6 3 -7 18 -19 34 -27 26 -14 32 -13 69 2 46 20 47 34 1 47 -34
10 -35 12 -16 74 11 33 -13 28 -57 -13z"/>
<path d="M885 2636 c-45 -20 -58 -38 -41 -62 12 -15 19 -17 43 -8 15 6 27 16
26 22 -2 7 3 12 11 12 22 0 30 19 16 35 -15 18 -17 18 -55 1z"/>
<path d="M1230 2643 c-22 -8 -80 -72 -81 -91 -1 -9 -1 -25 0 -34 1 -10 -2 -18
-8 -18 -16 0 -24 -40 -10 -56 8 -10 21 -13 41 -9 16 4 34 2 41 -4 8 -6 18 -6
27 -1 11 7 23 1 43 -17 25 -25 30 -26 60 -15 46 17 47 16 47 -23 0 -46 27 -62
52 -30 10 13 18 30 18 38 0 7 9 22 20 32 28 26 25 38 -10 33 -26 -4 -30 -1
-30 19 0 24 -14 31 -25 13 -3 -5 -29 -10 -56 -10 -31 0 -48 4 -44 10 3 6 -1
13 -9 16 -11 4 -14 15 -11 35 5 26 2 29 -20 29 -14 0 -25 -5 -25 -12 0 -8 -7
-5 -17 6 -17 16 -17 18 5 36 33 27 28 64 -8 53z"/>
<path d="M2357 2639 c-23 -14 -20 -67 6 -75 11 -3 26 1 37 11 10 9 23 14 28
11 5 -3 18 4 28 15 18 20 18 21 -1 35 -22 16 -72 18 -98 3z"/>
<path d="M2280 2621 c0 -6 -13 -18 -30 -28 -16 -9 -30 -25 -30 -33 0 -16 -58
-50 -85 -50 -8 0 -21 -10 -29 -22 -9 -12 -16 -19 -16 -14 0 5 -7 3 -15 -4 -8
-7 -15 -9 -15 -5 0 5 -8 2 -17 -7 -10 -8 -30 -19 -45 -26 -24 -10 -27 -15 -22
-44 9 -51 12 -58 29 -58 24 0 65 30 65 48 0 11 6 8 21 -9 14 -16 19 -32 15
-50 -7 -36 9 -50 45 -37 29 10 40 40 19 53 -19 12 -10 22 29 33 58 18 68 15
75 -18 5 -25 10 -30 35 -30 15 0 34 7 41 15 7 8 19 15 26 15 8 0 14 4 14 10 0
5 -7 7 -15 4 -11 -5 -13 -2 -9 10 4 10 1 16 -7 17 -8 1 -20 2 -28 3 -26 2 -22
22 13 55 22 22 32 39 29 52 -7 26 -41 34 -62 15 -10 -9 -23 -16 -29 -16 -7 0
-11 -4 -9 -8 1 -4 -10 -22 -24 -39 -20 -24 -35 -32 -65 -33 -58 -3 -60 -2 -36
20 12 12 22 25 22 30 0 8 56 25 62 19 2 -2 22 16 46 39 42 41 48 55 36 86 -7
17 -34 22 -34 7z"/>
<path d="M2880 2615 c-7 -8 -16 -13 -20 -10 -11 7 -48 -27 -51 -45 -4 -35 2
-50 19 -50 10 0 28 -13 39 -29 28 -36 57 -44 78 -20 15 16 15 21 3 46 -10 21
-12 35 -5 51 22 48 -31 96 -63 57z"/>
<path d="M1619 2603 c-6 -6 -9 -22 -7 -35 2 -17 11 -24 32 -26 17 -2 26 0 22
6 -3 6 -2 12 2 14 5 1 12 15 16 31 6 26 5 27 -24 25 -17 -1 -36 -8 -41 -15z"/>
<path d="M3424 2611 c4 -5 2 -12 -2 -15 -5 -3 -10 -36 -10 -75 -1 -62 1 -69
19 -74 44 -12 61 12 39 54 -8 15 -7 23 5 35 16 16 19 42 7 60 -9 14 -66 29
-58 15z"/>
<path d="M1010 2603 c-26 -10 -50 -36 -50 -55 0 -22 13 -23 34 -3 8 8 19 15
24 15 5 0 16 8 25 18 24 27 7 39 -33 25z"/>
<path d="M1798 2553 c-21 -24 -31 -59 -23 -83 5 -15 15 -20 41 -20 34 0 45 15
24 36 -6 6 -6 21 -1 41 13 45 -11 60 -41 26z"/>
<path d="M2515 2558 c-2 -7 -5 -21 -7 -31 -2 -12 -18 -24 -42 -32 -51 -18 -67
-35 -60 -63 8 -29 28 -28 62 3 15 14 45 34 68 45 34 17 46 18 73 9 36 -13 56
-3 46 23 -7 19 -84 58 -114 58 -12 0 -23 -6 -26 -12z"/>
<path d="M1040 2538 c-14 -5 -20 -16 -20 -38 0 -35 12 -38 57 -11 54 33 25 72
-37 49z"/>
<path d="M807 2512 c-25 -27 -21 -39 17 -53 19 -7 33 -16 30 -20 -2 -4 -1 -15
2 -24 9 -23 54 -16 81 13 19 21 22 59 3 47 -4 -2 -17 5 -28 16 -12 11 -22 17
-22 13 0 -3 -11 1 -25 10 -31 20 -38 20 -58 -2z"/>
<path d="M1581 2479 c-15 -44 -14 -84 4 -99 12 -10 20 -7 45 18 28 29 29 31
10 37 -21 7 -27 21 -10 27 12 4 -16 48 -30 48 -4 0 -13 -14 -19 -31z"/>
<path d="M3006 2479 c-11 -22 -12 -37 -6 -55 10 -26 18 -25 52 4 15 13 18 13
23 0 4 -10 16 -13 35 -10 21 3 30 0 31 -9 1 -18 17 21 18 44 1 11 -6 17 -19
17 -11 0 -20 5 -20 11 0 6 -11 8 -29 4 -21 -4 -30 -2 -34 9 -10 26 -34 18 -51
-15z"/>
<path d="M2712 2489 c-34 -13 -27 -60 10 -70 26 -7 56 10 42 24 -3 3 4 8 15
12 12 3 26 15 31 26 10 17 7 19 -32 18 -24 0 -53 -4 -66 -10z"/>
<path d="M1681 2436 c-15 -28 -8 -46 18 -46 16 0 41 37 41 60 0 21 -47 9 -59
-14z"/>
<path d="M2502 2448 c-7 -7 -12 -16 -12 -22 0 -5 -7 -17 -15 -26 -19 -21 -10
-49 13 -44 9 1 34 6 55 9 28 4 37 11 37 25 0 11 -7 20 -15 20 -8 0 -17 11 -21
25 -7 27 -23 32 -42 13z"/>
<path d="M3319 2432 c-58 -39 -63 -85 -11 -90 36 -4 41 -24 17 -56 -23 -30
-18 -63 10 -82 30 -20 60 -12 50 14 -16 38 -16 50 -1 65 13 13 15 30 12 83 -3
36 -7 68 -9 71 -12 12 -48 9 -68 -5z"/>
<path d="M1821 2416 c-9 -10 -9 -20 0 -39 17 -38 39 -37 75 3 l33 35 -27 6
c-46 11 -69 10 -81 -5z"/>
<path d="M733 2403 c-7 -2 -13 -15 -13 -28 0 -13 -4 -27 -10 -30 -19 -12 13
-46 38 -40 15 4 22 1 22 -10 0 -9 9 -15 25 -15 26 0 95 25 95 34 0 3 -16 13
-36 21 -26 11 -41 12 -49 5 -22 -18 -26 16 -5 35 11 10 17 22 14 26 -5 10 -60
11 -81 2z"/>
<path d="M1044 2369 l-27 -28 24 -10 c20 -8 28 -5 47 15 27 31 28 40 3 47 -13
3 -29 -5 -47 -24z"/>
<path d="M640 2379 c0 -5 -8 -9 -19 -9 -40 0 -59 -57 -24 -71 17 -6 29 -2 53
17 35 30 39 59 10 67 -11 3 -20 1 -20 -4z"/>
<path d="M1150 2370 c-8 -11 -22 -22 -31 -25 -33 -11 -80 -65 -74 -86 7 -21
20 -25 30 -8 4 6 13 8 20 5 8 -3 15 -1 17 4 2 5 28 10 58 11 51 1 110 17 110
29 -1 17 -42 50 -63 50 -17 0 -24 5 -23 17 2 25 -27 27 -44 3z"/>
<path d="M2660 2381 c0 -5 -9 -11 -20 -14 -13 -3 -20 -14 -20 -30 0 -32 22
-49 53 -42 30 8 42 32 26 51 -6 8 -8 14 -5 14 4 0 1 7 -8 15 -17 17 -26 19
-26 6z"/>
<path d="M941 2361 c-20 -36 6 -65 48 -54 26 7 27 25 4 45 -32 27 -42 29 -52
9z"/>
<path d="M1758 2366 c-10 -7 -15 -15 -12 -18 9 -10 -36 -86 -54 -90 -10 -3
-25 -28 -36 -61 -18 -54 -18 -58 -2 -76 15 -16 21 -18 37 -8 19 12 35 66 26
89 -9 24 -4 33 14 30 28 -5 62 17 51 31 -11 13 -5 64 8 72 9 6 1 45 -9 45 -3
0 -14 -7 -23 -14z"/>
<path d="M2960 2352 c-35 -12 -48 -41 -34 -76 13 -34 74 -3 74 38 0 23 -22 44
-40 38z"/>
<path d="M3159 2337 c-25 -19 -9 -61 25 -65 22 -3 26 -7 20 -20 -13 -29 -12
-77 1 -95 9 -13 20 -15 44 -11 37 8 52 32 27 46 -12 7 -14 14 -6 28 11 21 -10
50 -36 50 -10 0 -13 7 -8 24 3 15 -1 29 -11 40 -19 19 -34 20 -56 3z"/>
<path d="M1348 2293 c-8 -10 -18 -26 -21 -35 -4 -10 -13 -18 -22 -18 -8 0 -14
-3 -13 -7 0 -5 -2 -16 -7 -26 -4 -10 -3 -29 3 -42 8 -18 8 -25 -2 -28 -23 -9
-26 -46 -5 -58 14 -7 18 -16 14 -29 -8 -25 37 -39 61 -19 13 11 19 10 33 -10
l18 -23 40 21 c22 11 43 28 47 37 6 15 9 15 27 -4 26 -29 31 -28 58 8 18 25
19 31 7 36 -24 9 -28 35 -9 63 34 51 53 92 48 101 -10 15 -45 12 -45 -4 0 -8
-10 -23 -23 -33 -27 -21 -39 -47 -27 -59 5 -5 4 -26 -3 -46 -11 -36 -14 -38
-53 -38 -43 0 -54 10 -54 50 0 10 -6 20 -12 23 -17 5 -39 -3 -33 -13 9 -14
-25 -34 -37 -22 -8 8 -4 17 14 34 19 18 23 30 18 53 -3 17 -1 42 4 57 13 36
-4 56 -26 31z"/>
<path d="M2511 2297 c-6 -6 -11 -21 -11 -33 0 -13 -4 -26 -10 -29 -13 -8 -2
-107 14 -124 12 -11 11 -16 -5 -32 -16 -16 -17 -23 -7 -44 12 -27 23 -30 62
-15 20 7 26 17 26 39 0 25 -5 30 -27 34 -27 4 -26 4 4 6 17 0 34 4 37 9 7 12
-17 38 -42 46 -25 8 -30 36 -7 36 24 0 30 29 9 45 -11 8 -14 15 -8 15 15 0 5
47 -11 54 -7 2 -18 -1 -24 -7z"/>
<path d="M1893 2286 c-13 -6 -23 -14 -23 -18 0 -5 -13 -8 -28 -8 -15 0 -37 -7
-48 -17 -17 -13 -19 -20 -10 -40 7 -15 17 -22 29 -19 9 2 17 0 17 -5 0 -21 40
28 41 51 1 17 3 19 6 8 6 -24 28 -23 69 3 37 23 45 49 15 49 -11 0 -25 2 -33
4 -7 2 -23 -2 -35 -8z"/>
<path d="M2716 2264 c-20 -20 -36 -34 -36 -29 0 4 -7 2 -15 -5 -18 -15 -19
-49 -1 -72 18 -25 34 -22 48 7 9 20 19 25 47 25 42 0 105 48 99 76 -4 20 -49
36 -69 23 -7 -4 -19 -3 -25 2 -9 7 -23 -1 -48 -27z"/>
<path d="M1487 2275 c-20 -14 -23 -65 -4 -65 21 1 47 26 47 48 0 25 -21 34
-43 17z"/>
<path d="M847 2254 c-40 -55 0 -92 65 -60 30 15 31 15 15 -2 -20 -22 -22 -68
-4 -75 20 -8 39 7 32 25 -4 10 4 23 19 36 36 28 32 42 -11 43 -36 0 -93 17
-65 18 10 1 10 6 2 21 -14 27 -31 25 -53 -6z"/>
<path d="M2180 2233 c-8 -27 -14 -54 -14 -60 2 -15 -22 -17 -31 -3 -3 6 -10
10 -14 10 -12 0 -1 -52 15 -71 12 -13 11 -22 -3 -57 -20 -53 -7 -95 30 -90 19
3 22 9 23 48 0 75 3 90 18 90 7 0 16 -10 19 -21 5 -18 11 -20 34 -14 15 3 28
7 29 8 0 1 10 17 21 35 l20 34 -23 25 c-19 21 -25 23 -43 11 -30 -19 -49 2
-33 37 19 42 15 65 -11 65 -18 0 -25 -9 -37 -47z"/>
<path d="M2388 2272 c-14 -3 -18 -14 -18 -52 0 -61 20 -76 65 -50 37 20 46 50
16 50 -13 0 -26 10 -33 28 -9 19 -19 27 -30 24z"/>
<path d="M578 2253 c-14 -9 -31 -27 -37 -40 -9 -19 -7 -24 9 -33 10 -5 21 -10
24 -10 11 0 37 62 34 80 -3 18 -4 18 -30 3z"/>
<path d="M688 2239 c-19 -11 -24 -44 -9 -54 19 -11 61 18 61 42 0 25 -22 30
-52 12z"/>
<path d="M1062 2218 c-19 -19 -14 -48 8 -48 28 0 88 38 69 44 -41 13 -67 14
-77 4z"/>
<path d="M2990 2190 c-6 -12 -8 -30 -5 -41 6 -17 13 -20 37 -15 17 3 34 6 39
6 18 0 9 49 -10 60 -30 15 -49 12 -61 -10z"/>
<path d="M701 2165 c-22 -22 -23 -27 -11 -49 10 -20 16 -23 31 -15 27 14 52
56 45 74 -8 22 -37 17 -65 -10z"/>
<path d="M2886 2174 c-18 -18 -20 -38 -6 -64 8 -15 15 -17 40 -10 16 5 30 7
30 6 0 -2 -9 -24 -20 -49 -11 -25 -17 -52 -14 -60 3 -9 -4 -25 -15 -36 -21
-21 -28 -65 -12 -75 24 -15 61 30 61 73 0 10 9 21 20 24 13 3 18 10 14 21 -3
9 -1 30 5 48 10 28 9 35 -5 45 -9 6 -13 16 -10 22 3 5 0 15 -7 23 -7 7 -16 21
-20 31 -8 21 -40 22 -61 1z"/>
<path d="M1156 2161 c-10 -10 -19 -25 -21 -33 -9 -38 -18 -57 -25 -53 -11 7
-33 -51 -25 -64 3 -6 0 -11 -8 -11 -8 0 -17 -6 -20 -14 -3 -8 -18 -16 -34 -18
-20 -2 -29 -9 -31 -25 -2 -14 -10 -23 -21 -23 -10 0 -24 -7 -32 -16 -11 -14
-14 -13 -23 3 -6 10 -10 25 -11 33 0 8 -7 16 -16 18 -24 4 -60 -76 -45 -100 6
-10 19 -18 28 -18 10 0 18 -3 18 -8 0 -13 -58 -72 -71 -72 -8 0 -6 6 4 18 24
26 14 31 -40 17 -32 -8 -49 -18 -54 -33 -13 -33 -18 -26 -12 16 4 33 2 39 -20
49 -19 9 -29 9 -40 0 -26 -21 -25 -41 1 -69 23 -25 24 -31 13 -54 -18 -40 14
-59 63 -39 14 6 17 5 11 -4 -10 -17 12 -31 52 -31 44 0 63 9 63 31 0 12 -7 19
-20 19 -11 0 -20 5 -20 10 0 12 48 60 60 60 4 0 21 23 39 50 34 53 45 60 55
35 3 -9 19 -15 41 -15 19 0 35 -4 35 -10 0 -5 14 -10 30 -10 17 0 30 4 30 8 0
10 71 45 77 38 3 -2 0 -13 -6 -24 -21 -40 -38 -136 -28 -159 12 -28 32 -36 47
-19 8 10 7 21 -1 40 -11 23 -10 28 9 41 18 14 21 25 20 101 -1 78 1 86 22 101
63 44 82 90 34 80 -23 -4 -25 -2 -19 23 5 24 2 28 -19 32 -24 5 -48 -11 -57
-38 -6 -17 -49 2 -49 21 0 8 6 15 13 15 7 0 18 9 25 20 7 11 19 20 27 20 16 0
20 12 8 24 -4 4 -8 17 -8 29 0 28 -27 33 -49 8z m94 -173 c0 -5 -16 -16 -36
-24 -29 -12 -35 -19 -32 -41 3 -23 -2 -28 -31 -35 -42 -11 -93 7 -89 31 2 9
12 16 23 17 44 2 46 4 40 24 -5 15 -1 22 17 29 30 11 108 11 108 -1z m-339
-141 c-8 -8 -11 -7 -11 4 0 20 13 34 18 19 3 -7 -1 -17 -7 -23z"/>
<path d="M1980 2170 c-11 -7 -12 -13 -2 -34 7 -16 8 -26 2 -26 -15 0 -12 -26
4 -42 7 -8 17 -24 20 -36 8 -24 34 -30 41 -9 3 7 1 33 -3 58 -7 34 -5 48 6 58
7 7 10 17 5 21 -14 13 -58 19 -73 10z"/>
<path d="M2782 2168 c-7 -7 -12 -21 -12 -33 0 -12 -5 -26 -11 -32 -6 -6 -13
-36 -14 -66 -4 -66 8 -83 49 -67 20 7 26 16 26 39 0 16 5 33 10 36 16 10 12
35 -6 35 -13 0 -15 7 -10 34 10 53 -6 80 -32 54z"/>
<path d="M1100 2163 c-36 -7 -43 -17 -35 -52 8 -37 22 -40 34 -8 5 13 16 29
25 36 16 14 22 32 9 30 -5 -1 -19 -4 -33 -6z"/>
<path d="M1885 2162 c-6 -4 -18 -19 -28 -34 -14 -22 -15 -32 -5 -53 13 -29 16
-30 43 -9 29 22 19 117 -10 96z"/>
<path d="M853 2142 c-29 -24 -55 -79 -48 -103 9 -29 38 -19 49 16 4 17 14 41
22 55 18 36 5 54 -23 32z"/>
<path d="M565 2116 c-17 -40 -12 -62 15 -69 33 -9 49 26 36 76 -11 37 -34 34
-51 -7z"/>
<path d="M3292 2104 c-32 -33 -42 -49 -37 -64 4 -14 2 -20 -8 -20 -8 0 -20 -7
-27 -15 -9 -11 -17 -12 -31 -4 -25 13 -54 -3 -79 -44 -22 -36 -26 -72 -9 -83
7 -4 41 -7 75 -7 54 0 64 -3 64 -17 0 -9 8 -25 19 -34 16 -14 23 -15 47 -4 16
7 33 18 37 25 5 8 13 11 18 8 5 -4 6 -11 3 -17 -29 -47 7 -81 50 -47 13 10 31
17 39 13 18 -6 33 44 18 59 -5 5 -7 15 -5 22 3 7 -7 15 -26 18 -31 7 -34 10
-44 59 -5 23 -10 26 -28 19 -25 -9 -40 -53 -31 -90 5 -21 3 -23 -13 -16 -10 4
-31 10 -46 13 -16 2 -28 10 -28 18 0 7 -16 16 -35 20 -20 3 -35 12 -35 20 0
18 14 18 29 0 26 -31 85 9 75 49 -4 15 0 24 10 28 9 4 16 13 16 20 0 8 9 24
20 37 21 24 25 47 12 67 -5 8 -21 -3 -50 -33z"/>
<path d="M3402 2128 c-7 -7 -12 -17 -12 -24 0 -6 -7 -17 -16 -24 -9 -8 -14
-25 -12 -44 2 -25 7 -30 23 -28 34 6 49 29 49 78 1 48 -11 63 -32 42z"/>
<path d="M3093 2123 c-7 -2 -13 -17 -13 -32 0 -25 3 -27 42 -26 34 0 43 4 46
19 7 32 -37 55 -75 39z"/>
<path d="M2320 2075 c-17 -21 -5 -61 21 -68 25 -7 69 19 69 40 0 8 -16 21 -35
29 -42 17 -40 17 -55 -1z"/>
<path d="M1012 2059 c-13 -5 -28 -6 -33 -3 -15 9 -49 -6 -49 -22 0 -8 -4 -14
-10 -14 -15 0 -12 -40 4 -46 20 -8 140 58 144 79 4 19 -18 22 -56 6z"/>
<path d="M713 2047 c-28 -16 -63 -61 -63 -82 0 -9 9 -19 19 -22 11 -3 22 -12
25 -20 9 -23 64 15 86 59 17 36 17 38 -1 43 -10 4 -23 4 -28 0 -5 -3 -11 3
-13 14 -3 17 -6 18 -25 8z"/>
<path d="M1655 2039 c-4 -6 -14 -8 -22 -4 -24 9 -63 -22 -60 -46 2 -11 8 -24
14 -27 5 -4 12 -13 14 -20 3 -8 19 7 39 35 52 71 53 73 36 73 -8 0 -18 -5 -21
-11z"/>
<path d="M1883 2018 c-6 -7 -17 -29 -26 -48 -37 -84 -31 -105 26 -89 41 11 56
26 33 35 -13 5 -15 16 -10 60 7 54 -2 69 -23 42z"/>
<path d="M1716 1974 c-14 -14 -14 -17 0 -39 9 -14 20 -22 25 -19 5 3 9 0 9 -5
0 -20 16 -11 34 20 18 30 18 30 -3 36 -12 3 -21 9 -21 14 0 14 -27 10 -44 -7z"/>
<path d="M1383 1973 c-7 -2 -13 -18 -13 -35 l0 -30 46 7 c43 6 46 5 43 -17 -6
-66 52 -79 127 -28 42 30 61 58 29 47 -8 -4 -17 -2 -20 3 -14 23 -44 30 -59
14 -15 -14 -16 -13 -16 10 0 35 -15 40 -37 12 -14 -17 -24 -22 -34 -15 -8 5
-10 9 -5 9 6 0 1 7 -10 15 -20 15 -31 17 -51 8z"/>
<path d="M3499 1932 c-6 -21 -9 -49 -7 -62 2 -20 9 -25 33 -25 29 0 30 2 27
38 -2 21 2 37 8 37 15 0 12 16 -6 34 -25 26 -42 19 -55 -22z"/>
<path d="M2318 1949 c-29 -11 -42 -36 -32 -63 7 -18 22 -20 58 -6 38 14 39 -2
5 -49 -17 -24 -29 -52 -27 -64 4 -30 50 -45 83 -27 30 16 28 34 -3 38 -32 5
-25 32 11 45 25 9 22 47 -4 47 -18 0 -20 4 -15 26 5 18 2 32 -10 45 -19 21
-27 22 -66 8z"/>
<path d="M1665 1903 c-5 -15 -8 -31 -7 -34 0 -3 -3 -22 -7 -42 -7 -29 -5 -39
10 -53 18 -16 20 -16 39 1 18 16 23 17 47 4 20 -11 27 -11 30 -1 3 6 13 12 24
12 21 0 26 29 9 61 -13 24 -28 24 -60 -1 -37 -29 -42 -25 -37 25 2 25 1 45 -4
45 -4 0 -14 3 -22 6 -10 3 -17 -4 -22 -23z"/>
<path d="M2060 1917 c-32 -11 -35 -16 -36 -52 -1 -55 -3 -62 -12 -49 -4 6 -16
14 -27 17 -17 5 -24 -2 -43 -46 -12 -29 -22 -57 -22 -63 0 -21 28 -23 53 -3
34 26 36 25 30 -21 -5 -37 -4 -40 18 -40 36 1 65 26 51 43 -9 11 -7 27 7 70
11 30 17 58 14 61 -4 3 1 14 11 25 13 14 14 24 7 45 -6 14 -12 26 -13 25 -2 0
-19 -6 -38 -12z"/>
<path d="M2467 1923 c-4 -3 -7 -17 -7 -30 0 -12 -4 -23 -10 -23 -18 0 -11 -39
9 -49 16 -9 28 -2 72 39 54 50 61 77 13 45 -21 -14 -28 -15 -35 -4 -4 7 -5 17
-3 21 6 10 -30 11 -39 1z"/>
<path d="M612 1852 c-35 -68 -41 -112 -17 -132 12 -10 16 -8 24 11 4 13 6 29
4 36 -3 7 3 35 12 62 27 82 14 95 -23 23z"/>
<path d="M2975 1871 c-3 -12 -10 -21 -15 -21 -13 0 -22 -51 -10 -65 5 -7 21
-10 35 -7 19 3 25 11 26 33 1 16 2 39 2 51 2 30 -29 36 -38 9z"/>
<path d="M473 1853 c-9 -16 -25 -38 -36 -50 -13 -15 -17 -28 -12 -45 14 -45
60 -51 99 -14 33 30 33 46 0 46 -25 0 -26 1 -20 45 8 52 -5 59 -31 18z"/>
<path d="M1299 1849 c-14 -28 -11 -39 16 -49 30 -11 58 -3 51 16 -3 7 -1 16 4
19 6 4 10 13 10 20 0 22 -69 16 -81 -6z"/>
<path d="M2621 1851 c-13 -11 -36 -23 -52 -26 -31 -7 -54 -42 -39 -59 28 -29
138 39 132 82 -4 27 -12 28 -41 3z"/>
<path d="M2817 1848 c-12 -19 -18 -21 -28 -10 -18 17 -58 15 -65 -3 -4 -8 -12
-15 -19 -15 -8 0 -17 -9 -20 -20 -3 -11 -10 -20 -16 -20 -12 0 -39 -66 -39
-95 0 -26 33 -40 50 -21 5 7 13 28 17 47 7 40 18 49 56 49 15 0 30 7 33 15 5
13 8 13 21 -1 14 -14 18 -13 39 7 14 13 23 28 21 33 -3 6 0 19 5 29 5 10 5 17
-1 17 -5 0 -16 2 -24 5 -8 4 -21 -4 -30 -17z"/>
<path d="M746 1847 c-11 -8 -15 -19 -10 -30 12 -33 64 -13 64 25 0 21 -28 24
-54 5z"/>
<path d="M3550 1832 c0 -5 -11 -14 -25 -20 -17 -8 -25 -20 -25 -36 0 -33 34
-44 63 -20 12 11 23 20 25 20 5 3 -27 64 -33 64 -3 0 -5 -4 -5 -8z"/>
<path d="M2188 1802 c-39 -26 -50 -60 -25 -80 19 -15 56 4 63 32 3 14 12 30
19 36 15 13 9 41 -9 39 -6 -1 -28 -13 -48 -27z"/>
<path d="M1440 1807 c-9 -7 -14 -19 -13 -27 2 -8 -9 -28 -25 -45 -27 -30 -64
-39 -90 -22 -7 5 -24 6 -36 3 -29 -7 -42 -55 -17 -63 9 -2 24 -9 33 -14 29
-15 78 -11 78 6 0 11 5 10 21 -6 11 -11 18 -27 15 -34 -2 -7 5 -24 17 -37 21
-22 24 -23 50 -8 33 18 33 22 2 56 -30 32 -42 71 -27 86 6 6 8 17 5 24 -3 9 7
15 35 20 61 10 65 42 9 63 -35 13 -38 13 -57 -2z"/>
<path d="M3123 1799 c-36 -13 -27 -51 14 -61 28 -7 56 13 52 37 -5 23 -37 35
-66 24z"/>
<path d="M1020 1771 c-17 -33 22 -93 50 -76 14 9 20 67 9 81 -17 20 -47 17
-59 -5z"/>
<path d="M936 1734 c-25 -26 -36 -45 -33 -59 2 -12 -2 -27 -10 -33 -17 -17
-17 -47 2 -62 17 -14 44 -7 49 12 2 7 9 31 16 53 7 22 14 50 16 62 1 12 4 26
7 30 3 5 2 15 -2 22 -6 9 -18 3 -45 -25z"/>
<path d="M1606 1724 c-20 -14 -36 -29 -36 -34 0 -5 -6 -7 -12 -5 -7 3 -23 -13
-36 -35 -25 -43 -18 -81 14 -76 18 3 107 87 99 94 -2 3 5 16 15 30 11 13 20
28 20 32 0 19 -31 16 -64 -6z"/>
<path d="M2750 1730 c-22 -19 -23 -21 -5 -40 10 -11 29 -20 42 -20 22 0 24 4
21 37 -4 45 -24 53 -58 23z"/>
<path d="M3280 1725 c0 -26 -30 -64 -46 -58 -8 3 -13 8 -10 10 3 3 -1 11 -7
18 -9 9 -18 10 -35 2 -33 -15 -28 -69 8 -77 16 -4 29 -1 37 9 10 14 12 11 13
-16 0 -39 -3 -49 -12 -45 -5 1 -8 -2 -8 -8 0 -13 -37 -50 -43 -43 -3 2 -13 -7
-23 -22 -15 -23 -15 -28 -3 -36 8 -5 22 -9 32 -9 23 0 85 65 93 97 4 13 15 28
25 34 17 9 21 6 30 -19 11 -33 29 -41 74 -32 21 4 31 12 33 28 3 17 -2 22 -20
22 -15 0 -29 10 -40 30 -12 21 -25 30 -43 30 -24 0 -32 10 -18 24 4 4 8 22 8
41 2 30 -1 35 -22 35 -14 0 -23 -6 -23 -15z"/>
<path d="M1808 1716 c-17 -12 -16 -15 7 -40 24 -26 55 -35 55 -16 0 6 7 10 15
10 8 0 15 5 15 10 0 6 -7 13 -15 16 -8 4 -15 12 -15 20 0 18 -39 18 -62 0z"/>
<path d="M3434 1693 c-5 -19 -2 -30 11 -40 22 -15 39 -17 30 -3 -3 6 -1 10 4
10 6 0 11 14 11 30 0 25 -4 30 -25 30 -18 0 -26 -7 -31 -27z"/>
<path d="M2375 1697 c-38 -22 -18 -81 28 -82 40 0 52 49 19 78 -22 20 -21 20
-47 4z"/>
<path d="M2173 1693 c-7 -3 -13 -14 -13 -25 0 -11 -7 -35 -16 -54 -13 -27 -14
-37 -4 -49 17 -21 44 -19 65 5 13 14 31 20 60 20 60 0 68 26 13 40 -22 6 -52
24 -67 39 -14 16 -32 26 -38 24z"/>
<path d="M2895 1680 c-10 -11 -15 -20 -11 -20 4 0 -6 -19 -23 -42 -39 -54 -34
-92 10 -86 17 3 30 -1 33 -9 7 -18 80 -17 96 2 13 16 6 35 -15 35 -7 0 -22 11
-33 25 -11 13 -22 21 -26 18 -3 -3 -6 0 -6 8 0 8 5 20 11 26 13 13 8 55 -7 60
-6 2 -19 -6 -29 -17z"/>
<path d="M553 1636 c-23 -20 -26 -28 -17 -43 14 -23 44 -29 55 -11 12 18 11
78 0 78 -6 0 -23 -11 -38 -24z"/>
<path d="M1748 1625 c-17 -23 -17 -24 8 -44 21 -16 30 -18 50 -9 13 6 24 17
24 24 0 7 6 14 13 17 19 7 -23 36 -53 36 -15 0 -32 -9 -42 -24z"/>
<path d="M2467 1632 c-24 -26 -21 -49 9 -69 25 -16 27 -16 44 7 16 22 17 26 3
47 -8 12 -19 21 -23 18 -5 -3 -10 0 -12 6 -2 6 -11 2 -21 -9z"/>
<path d="M2723 1619 c-38 -35 -38 -33 -16 -70 17 -29 30 -33 70 -23 20 6 30
44 11 44 -4 0 -8 12 -8 26 0 14 4 23 10 19 15 -9 12 4 -4 21 -20 20 -27 18
-63 -17z"/>
<path d="M1036 1608 c-18 -82 9 -125 51 -83 13 14 12 20 -7 60 -24 50 -37 56
-44 23z"/>
<path d="M3041 1616 c-16 -19 -24 -78 -13 -95 16 -23 68 8 65 39 -7 69 -26 88
-52 56z"/>
<path d="M3472 1599 c-16 -25 -15 -44 2 -58 11 -10 19 -7 35 10 24 26 27 44 9
56 -22 13 -34 11 -46 -8z"/>
<path d="M1926 1591 c-30 -17 -47 -47 -39 -68 6 -15 89 -18 98 -3 7 11 -15 90
-24 89 -3 0 -19 -8 -35 -18z"/>
<path d="M2035 1600 c-3 -5 -4 -10 -1 -10 3 0 -2 -16 -10 -35 -20 -48 -18
-112 3 -123 18 -11 55 1 86 26 21 18 22 42 2 42 -8 0 -15 7 -15 15 0 8 -5 15
-11 15 -6 0 -9 7 -5 15 13 34 -31 84 -49 55z"/>
<path d="M768 1573 c-34 -8 -29 -93 6 -93 13 0 36 41 36 64 0 18 -22 33 -42
29z"/>
<path d="M1134 1572 c-35 -23 -47 -115 -16 -130 25 -12 67 -1 99 28 l28 25
-47 3 -47 3 4 40 c4 39 0 45 -21 31z"/>
<path d="M1298 1564 c-16 -8 -28 -23 -28 -34 0 -11 -9 -41 -19 -69 -19 -48
-20 -49 -1 -66 18 -16 20 -16 44 9 26 25 34 46 17 46 -5 0 -11 7 -15 15 -4 12
3 14 39 11 25 -2 45 1 45 5 0 5 -4 9 -9 9 -17 0 -21 31 -6 54 14 21 14 24 0
30 -24 9 -37 7 -67 -10z"/>
<path d="M2256 1557 c-41 -61 -35 -124 10 -115 16 3 20 13 22 62 4 69 -9 89
-32 53z"/>
<path d="M2346 1529 c-14 -46 -14 -54 0 -81 9 -16 13 -32 10 -35 -7 -7 22 -63
33 -63 15 0 41 37 41 59 0 13 -9 25 -22 30 -23 9 -23 9 5 21 29 14 38 50 12
50 -9 0 -15 6 -13 13 4 19 -21 57 -37 57 -8 0 -20 -21 -29 -51z"/>
<path d="M1649 1565 c-1 -3 -2 -9 -3 -14 0 -5 -4 -13 -8 -17 -5 -4 -8 -26 -8
-50 0 -30 5 -44 17 -48 15 -6 14 -9 -7 -19 -29 -15 -37 -49 -16 -66 13 -11 23
-10 56 6 43 19 58 46 40 68 -9 10 -7 15 9 20 33 10 24 24 -16 27 l-38 3 2 48
c2 36 -1 47 -12 47 -8 0 -16 -2 -16 -5z"/>
<path d="M586 1524 c-11 -28 -7 -42 14 -47 25 -6 64 27 56 48 -7 20 -62 20
-70 -1z"/>
<path d="M1601 1533 c-1 -7 -7 -13 -15 -13 -7 0 -19 -7 -26 -14 -8 -11 -18
-12 -35 -6 -17 7 -28 4 -46 -13 -13 -12 -32 -20 -44 -19 -11 2 -30 -6 -42 -17
-11 -11 -24 -17 -27 -14 -3 4 1 -8 10 -25 10 -20 25 -34 42 -38 36 -8 91 -33
72 -34 -30 0 40 -43 75 -46 36 -2 36 -2 21 22 -9 13 -16 30 -16 38 0 16 -34
31 -50 21 -14 -9 -70 23 -70 40 0 18 21 20 38 3 10 -10 15 -10 22 1 4 8 22 14
40 14 43 0 73 41 60 83 -4 16 -9 23 -9 17z"/>
<path d="M927 1523 c-29 -7 -19 -67 11 -71 13 -2 30 2 38 8 19 16 18 56 -2 64
-17 6 -19 6 -47 -1z"/>
<path d="M2502 1486 c-26 -49 -26 -79 0 -84 13 -3 24 12 43 53 14 32 22 61 19
66 -13 22 -41 6 -62 -35z"/>
<path d="M3440 1480 c0 -39 2 -41 26 -38 36 4 54 33 34 52 -8 8 -25 17 -37 21
-21 6 -23 3 -23 -35z"/>
<path d="M815 1497 c-22 -26 -37 -65 -33 -88 2 -18 10 -25 32 -27 28 -3 29 -2
22 29 -4 22 -1 40 9 56 23 35 -4 62 -30 30z"/>
<path d="M2889 1489 c-8 -5 -24 -9 -37 -9 -27 0 -44 -36 -29 -61 8 -13 15 -14
41 -5 57 21 74 35 69 55 -6 24 -25 32 -44 20z"/>
<path d="M3299 1484 c-18 -22 -21 -50 -6 -63 14 -11 75 15 106 45 12 11 11 15
-13 24 -39 15 -72 12 -87 -6z"/>
<path d="M705 1468 c-31 -37 -65 -101 -65 -125 0 -26 31 -39 60 -23 22 12 27
35 9 46 -14 8 -3 50 22 85 10 15 19 30 19 33 0 14 -27 4 -45 -16z"/>
<path d="M1773 1465 c-10 -22 -8 -28 9 -45 25 -23 51 -13 54 21 4 50 -42 67
-63 24z"/>
<path d="M2981 1444 c-32 -40 -25 -81 12 -81 21 0 61 71 53 93 -9 23 -43 16
-65 -12z"/>
<path d="M2731 1438 c-15 -24 -14 -68 2 -68 50 1 71 26 56 67 -10 26 -42 27
-58 1z"/>
<path d="M603 1439 c-40 -15 -51 -69 -14 -69 22 0 51 31 51 53 0 21 -11 26
-37 16z"/>
<path d="M916 1414 c-23 -23 -19 -51 9 -70 19 -13 23 -20 14 -30 -15 -18 -2
-54 19 -54 13 0 52 32 57 46 0 1 -8 11 -18 22 -17 19 -17 20 0 37 28 28 25 45
-7 45 -16 0 -32 5 -35 10 -9 14 -21 12 -39 -6z"/>
<path d="M1065 1396 c-30 -40 -31 -52 -4 -66 25 -14 29 -10 46 38 16 47 16 49
-2 56 -9 3 -24 -7 -40 -28z"/>
<path d="M2172 1418 c-7 -7 -12 -16 -12 -21 0 -5 -7 -15 -15 -23 -22 -22 -19
-61 6 -75 15 -8 24 -8 32 0 6 6 8 11 3 11 -4 0 -1 7 7 14 11 11 13 26 7 56 -9
48 -13 53 -28 38z"/>
<path d="M2564 1385 c-7 -19 -14 -43 -14 -53 0 -10 -6 -24 -12 -30 -7 -7 -13
-18 -14 -25 0 -7 -2 -22 -2 -34 -2 -16 -15 -28 -47 -42 -47 -21 -54 -35 -32
-66 13 -17 15 -17 45 1 18 10 32 22 32 26 0 4 7 8 15 8 8 0 15 7 15 15 0 20
37 19 48 -2 11 -18 14 -12 27 54 6 29 4 33 -21 39 -26 7 -27 7 -20 75 3 38 4
69 1 69 -4 0 -13 -16 -21 -35z"/>
<path d="M3170 1409 c0 -7 -17 -10 -46 -7 -36 2 -49 -1 -58 -14 -21 -34 32
-74 57 -43 6 6 7 4 4 -5 -6 -22 10 -60 26 -60 17 0 67 38 67 51 0 5 -7 9 -15
9 -12 0 -13 4 -6 18 15 29 9 62 -11 62 -10 0 -18 -5 -18 -11z"/>
<path d="M1193 1381 c-51 -56 -56 -76 -21 -87 29 -9 58 27 58 72 0 38 -12 43
-37 15z"/>
<path d="M728 1332 l-27 -57 21 -18 c21 -18 22 -17 46 7 18 17 23 30 17 43 -4
10 -8 31 -9 47 -2 47 -19 39 -48 -22z"/>
<path d="M1970 1381 c0 -6 -12 -11 -26 -11 -51 0 -96 -48 -72 -77 16 -20 37
-15 63 15 l24 27 1 -30 c0 -16 7 -38 14 -47 11 -15 16 -15 31 -4 15 11 17 20
9 72 -7 44 -13 60 -26 62 -10 2 -18 -1 -18 -7z m0 -31 c0 -5 -4 -10 -10 -10
-5 0 -10 5 -10 10 0 6 5 10 10 10 6 0 10 -4 10 -10z"/>
<path d="M2678 1352 c-15 -27 -11 -73 7 -79 15 -4 98 40 97 52 -1 6 -12 12
-24 14 -13 1 -25 6 -28 10 -3 3 -12 11 -21 18 -12 10 -18 8 -31 -15z"/>
<path d="M2876 1314 c-9 -34 11 -84 33 -84 9 0 25 10 35 21 18 21 17 22 -6 43
-54 48 -55 49 -62 20z"/>
<path d="M1286 1323 c-3 -4 -6 -17 -6 -29 0 -40 68 -44 105 -8 24 24 18 36
-13 29 -16 -3 -40 -1 -54 4 -14 5 -29 7 -32 4z"/>
<path d="M1662 1317 c-29 -9 -33 -14 -30 -41 3 -28 6 -31 40 -31 30 0 37 -4
41 -22 3 -15 -2 -24 -13 -28 -24 -8 -31 -40 -15 -62 12 -15 17 -16 34 -5 12 6
30 12 42 12 16 0 19 4 14 21 -4 12 -1 32 5 45 10 17 10 27 2 37 -7 8 -9 29 -5
50 5 32 3 37 -13 37 -12 0 -24 -12 -33 -31 -10 -23 -16 -28 -22 -18 -5 8 -6
22 -3 32 6 19 3 19 -44 4z"/>
<path d="M2268 1312 c-53 -32 -24 -86 31 -58 37 20 44 31 36 56 -8 24 -30 24
-67 2z"/>
<path d="M1043 1274 c-9 -24 13 -63 34 -59 10 2 21 4 26 4 12 1 8 46 -5 59
-17 17 -48 15 -55 -4z"/>
<path d="M870 1275 c-1 -5 -1 -20 0 -32 1 -12 -6 -50 -14 -84 -9 -33 -14 -65
-10 -70 3 -5 -1 -9 -8 -9 -7 0 -18 10 -23 23 -14 31 -48 33 -68 4 -15 -23 -15
-26 2 -41 10 -9 21 -13 24 -9 4 3 7 -3 7 -14 0 -16 10 -22 50 -30 46 -9 52 -8
61 9 12 23 12 24 -21 37 -25 10 -25 10 -2 10 12 1 25 8 29 17 3 9 15 14 28 12
48 -6 75 49 33 67 -17 7 -26 23 -32 58 -6 28 -15 47 -23 47 -7 0 -13 -6 -14
-12 0 -7 -4 -4 -9 7 -5 11 -9 16 -10 10z"/>
<path d="M2087 1273 c-3 -5 -8 -27 -12 -51 -5 -33 -13 -46 -36 -58 -16 -8 -34
-12 -39 -9 -11 7 -25 -40 -15 -54 10 -17 34 -13 47 9 8 12 19 18 33 14 35 -9
58 18 57 67 -1 68 -19 109 -35 82z"/>
<path d="M3004 1258 c-32 -36 -42 -69 -32 -105 14 -53 56 -37 56 21 0 16 6 33
15 37 11 7 13 17 8 36 -9 35 -23 38 -47 11z"/>
<path d="M3272 1260 c-17 -28 1 -60 33 -60 26 0 43 35 31 65 -8 22 -49 18 -64
-5z"/>
<path d="M1180 1235 c-8 -19 -21 -36 -29 -36 -73 -6 -83 -13 -79 -49 1 -16 -5
-36 -14 -47 -26 -29 -38 -69 -25 -82 14 -14 57 -15 57 -1 0 6 5 10 10 10 6 0
10 -7 10 -15 0 -8 5 -15 11 -15 5 0 7 -5 4 -10 -10 -17 5 -49 26 -55 21 -7 19
-35 -7 -87 -13 -25 -12 -28 7 -39 18 -9 27 -7 51 11 32 24 49 27 91 15 33 -9
36 6 5 20 -15 7 -24 21 -26 40 -5 37 -17 45 -57 38 -16 -3 -27 -3 -23 2 4 4 3
18 -2 31 -5 13 -6 24 -1 24 4 0 8 18 9 40 2 38 0 40 -26 40 -18 0 -38 10 -56
29 l-27 28 45 12 c25 6 57 11 73 11 44 0 59 14 46 42 -6 13 -15 35 -22 51 -15
37 -35 34 -51 -8z"/>
<path d="M1394 1255 c-3 -8 -28 -30 -55 -50 -36 -26 -49 -41 -49 -60 0 -22 9
-30 32 -26 3 0 3 -13 -2 -29 -5 -17 -9 -34 -10 -38 -3 -16 -8 -12 -14 13 -4
14 -13 25 -20 25 -26 0 -37 -94 -12 -103 23 -9 84 12 90 31 13 46 17 120 7
127 -14 8 -4 25 15 25 8 0 14 -7 14 -16 0 -20 69 -49 83 -35 8 8 4 22 -11 50
-12 21 -22 46 -22 55 0 9 -7 16 -15 16 -9 0 -12 6 -9 15 4 8 1 15 -5 15 -7 0
-14 -7 -17 -15z"/>
<path d="M2161 1249 c-25 -23 -27 -42 -6 -59 11 -9 21 -9 45 1 36 17 39 41 6
62 -22 15 -25 14 -45 -4z"/>
<path d="M2310 1242 c-25 -10 -46 -25 -48 -35 -4 -19 34 -87 49 -87 5 0 12 18
15 39 4 23 17 49 30 62 44 42 28 49 -46 21z"/>
<path d="M683 1233 c-49 -10 -52 -52 -5 -77 24 -13 27 -12 39 11 8 16 9 31 3
48 -5 14 -11 24 -12 24 -2 -1 -13 -4 -25 -6z"/>
<path d="M1528 1223 c-14 -9 -28 -28 -31 -41 -4 -20 2 -27 34 -41 37 -17 38
-18 23 -40 -21 -29 -9 -41 45 -48 34 -5 41 -3 41 12 0 20 -27 71 -55 103 -16
19 -17 26 -8 42 10 15 9 19 -3 24 -19 7 -14 9 -46 -11z"/>
<path d="M1868 1212 c-12 -13 -14 -22 -7 -35 6 -9 7 -22 4 -27 -10 -17 5 -50
23 -50 10 0 34 14 55 31 37 31 50 56 22 45 -23 -9 -43 3 -49 30 -7 28 -24 30
-48 6z"/>
<path d="M3093 1199 c-28 -18 -31 -23 -22 -43 9 -19 16 -22 47 -17 20 4 37 12
36 19 -1 6 -2 23 -2 37 -2 30 -17 31 -59 4z"/>
<path d="M2647 1164 c-11 -12 -8 -69 5 -82 7 -7 20 -12 29 -12 12 0 19 -9 21
-26 4 -34 34 -56 48 -34 5 8 10 32 10 52 0 20 5 40 10 43 15 9 12 35 -5 41 -9
4 -23 -3 -34 -15 -24 -28 -29 -27 -33 7 -3 26 -34 43 -51 26z"/>
<path d="M2873 1153 c-15 -6 -17 -59 -3 -68 17 -10 58 6 63 26 9 33 -26 56
-60 42z"/>
<path d="M2364 1132 c-6 -4 -13 -15 -17 -24 -3 -10 -13 -18 -22 -18 -8 0 -15
-4 -15 -10 0 -5 -8 -10 -17 -10 -12 0 -27 -19 -43 -51 -13 -28 -26 -45 -28
-40 -2 6 -12 11 -23 11 -15 0 -18 5 -14 23 6 24 -19 57 -32 43 -13 -12 -18
-91 -8 -113 13 -29 41 -29 56 -1 11 21 12 20 25 -12 l14 -33 25 23 c14 13 25
33 25 45 0 12 13 33 29 46 15 13 34 35 41 49 7 14 19 29 26 33 8 4 14 17 14
27 0 20 -16 26 -36 12z"/>
<path d="M3020 1090 c-8 -15 -7 -27 4 -49 14 -27 14 -29 -4 -34 -11 -3 -20 -1
-20 5 0 5 -4 6 -10 3 -11 -7 -13 -45 -4 -69 10 -26 41 -18 61 14 9 17 22 30
28 30 6 0 12 17 13 37 2 20 8 43 13 50 16 19 1 33 -36 33 -24 0 -38 -6 -45
-20z"/>
<path d="M1794 1069 c-9 -10 -14 -25 -11 -34 4 -8 1 -15 -6 -15 -7 0 -22 -3
-34 -6 -17 -5 -25 -1 -30 13 -7 16 -13 18 -39 11 -55 -14 -48 -77 9 -78 9 0
17 -5 17 -10 0 -6 19 -9 48 -6 45 4 47 5 47 35 0 20 4 30 12 27 6 -3 23 6 38
20 21 19 24 28 16 38 -19 23 -49 25 -67 5z"/>
<path d="M2414 1054 c-16 -21 -32 -44 -35 -53 -8 -20 6 -61 21 -61 6 0 15 -11
20 -25 5 -14 15 -25 22 -25 16 0 78 57 78 71 0 6 11 25 25 43 51 67 20 91 -34
26 -47 -57 -65 -54 -56 10 4 29 3 50 -2 50 -5 0 -23 -16 -39 -36z"/>
<path d="M1970 1052 c0 -5 -11 -14 -25 -20 -17 -8 -25 -20 -25 -36 0 -32 19
-45 53 -39 32 6 43 24 31 51 -8 20 -11 28 -13 42 -1 12 -21 14 -21 2z"/>
<path d="M1515 1031 c3 -5 0 -13 -5 -16 -15 -9 20 -47 37 -41 7 3 13 1 13 -4
0 -6 9 -10 20 -10 26 0 28 47 3 66 -20 15 -77 19 -68 5z"/>
<path d="M2784 1033 c-17 -12 -23 -51 -10 -61 28 -23 126 23 101 47 -14 13
-78 23 -91 14z"/>
<path d="M2635 1010 c-4 -6 -10 -8 -15 -5 -8 5 -19 -18 -27 -55 -2 -8 -1 -30
2 -47 5 -27 11 -33 30 -33 23 0 25 4 25 45 0 62 25 62 34 0 8 -47 31 -70 60
-59 14 5 13 9 -4 31 -12 15 -20 41 -20 63 0 23 -7 43 -18 53 -21 19 -57 22
-67 7z"/>
<path d="M902 993 c-5 -10 -8 -34 -8 -53 1 -27 6 -36 22 -38 24 -3 46 34 33
58 -4 8 -10 23 -13 33 -3 9 -10 17 -15 17 -6 0 -14 -8 -19 -17z"/>
<path d="M1365 985 c-16 -13 -35 -24 -40 -25 -19 0 -33 -21 -28 -41 6 -22 21
-25 37 -5 6 7 23 17 39 20 26 6 27 5 21 -19 -4 -14 -1 -31 6 -40 10 -11 8 -19
-8 -40 -41 -52 -38 -207 4 -213 24 -3 44 17 60 64 13 38 3 54 -34 54 -18 0
-23 4 -18 16 3 9 6 20 6 25 0 6 8 8 18 5 9 -3 46 -10 82 -15 36 -6 75 -13 88
-17 16 -5 22 -2 22 10 0 9 -4 16 -8 16 -4 0 -13 14 -19 30 -13 33 -33 38 -58
14 -25 -25 -71 -3 -69 34 1 15 -3 37 -7 50 -7 17 -5 24 6 28 20 8 18 24 -4 52
-25 29 -59 28 -96 -3z"/>
<path d="M2080 987 c-22 -17 -60 -85 -60 -107 0 -18 25 -34 40 -25 11 7 40 65
40 80 0 7 6 18 14 25 16 13 11 40 -8 40 -6 0 -18 -6 -26 -13z"/>
<path d="M1558 919 c-38 -20 -51 -38 -38 -58 5 -9 18 -11 39 -6 17 4 29 11 25
16 -3 5 5 10 18 11 13 0 30 1 38 2 12 1 30 36 18 36 -2 0 -17 4 -34 9 -23 6
-39 4 -66 -10z"/>
<path d="M1782 888 c-3 -13 -10 -17 -23 -13 -27 9 -59 -12 -59 -38 1 -55 54
-71 66 -20 6 21 10 23 38 17 46 -10 48 -13 26 -41 -27 -34 -25 -51 4 -59 29
-7 46 1 46 23 0 9 11 26 24 38 24 22 24 24 8 42 -9 11 -23 18 -29 16 -7 -3
-16 4 -20 14 -14 38 -72 54 -81 21z"/>
<path d="M2335 870 c-17 -37 -17 -42 -3 -57 15 -14 20 -13 57 18 47 39 51 54
17 63 -13 3 -31 8 -38 11 -10 4 -21 -8 -33 -35z"/>
<path d="M3045 886 c-27 -21 -28 -26 -17 -50 13 -30 26 -33 44 -10 7 8 21 24
31 35 16 17 16 22 3 34 -20 20 -26 19 -61 -9z"/>
<path d="M1082 888 c-15 -15 -15 -51 0 -66 17 -17 24 -15 43 14 16 24 16 27
-1 45 -20 22 -26 23 -42 7z"/>
<path d="M2132 888 c-25 -25 -6 -68 29 -68 10 0 24 7 33 15 12 13 13 21 4 40
-12 27 -46 33 -66 13z"/>
<path d="M2507 865 c-32 -31 -16 -85 25 -85 19 0 24 -15 9 -24 -14 -9 0 -46
22 -58 17 -9 24 -7 39 12 10 12 15 26 12 32 -3 5 2 18 12 29 16 18 16 20 0 38
-10 11 -24 17 -32 14 -8 -3 -14 0 -14 6 0 6 -5 11 -11 11 -6 0 -19 10 -28 21
-16 20 -18 20 -34 4z"/>
<path d="M2796 839 c-11 -17 -12 -28 -3 -52 8 -23 7 -32 -1 -35 -7 -2 -12 -23
-12 -47 0 -35 5 -47 21 -56 18 -9 24 -8 32 7 6 11 10 31 8 46 -1 15 5 37 13
51 9 13 13 27 9 30 -3 4 2 16 12 27 25 28 13 50 -29 50 -24 0 -39 -7 -50 -21z"/>
<path d="M2282 841 c-8 -4 -18 -28 -23 -52 -6 -24 -18 -52 -27 -62 -12 -14
-14 -22 -6 -35 15 -23 39 -26 75 -12 22 10 29 19 29 41 0 15 5 31 10 34 18 11
11 35 -11 35 -14 0 -19 5 -16 14 8 20 -15 48 -31 37z"/>
<path d="M1971 811 c-10 -6 -12 -19 -7 -46 6 -31 4 -40 -13 -52 -23 -15 -28
-48 -9 -59 6 -4 26 -9 43 -11 30 -3 33 -1 37 28 4 24 -1 37 -21 56 l-26 25 47
-6 c55 -6 67 5 39 36 -12 12 -21 25 -21 30 0 11 -51 10 -69 -1z"/>
<path d="M1259 789 c-32 -12 -43 -43 -22 -60 22 -19 85 17 81 45 -3 24 -22 29
-59 15z"/>
<path d="M2431 757 c-17 -33 8 -97 38 -97 19 0 21 6 21 55 0 30 -4 55 -9 55
-5 0 -16 2 -23 5 -8 3 -20 -4 -27 -18z"/>
<path d="M1707 732 c-13 -3 -17 -11 -15 -30 3 -30 2 -30 141 -16 98 9 87 30
-18 35 -27 1 -59 5 -70 9 -11 3 -28 5 -38 2z"/>
<path d="M2662 720 c-17 -28 -15 -47 8 -70 22 -22 44 -18 73 12 23 23 15 48
-13 48 -12 0 -19 4 -16 9 3 5 -1 12 -10 15 -24 9 -28 8 -42 -14z"/>
<path d="M1848 671 c-26 -4 -50 -10 -54 -13 -11 -11 6 -95 21 -108 20 -16 32
-6 39 35 4 19 14 40 24 47 9 7 23 21 31 31 15 19 18 19 -61 8z"/>
<path d="M1512 647 c-35 -37 -28 -54 23 -61 51 -8 98 9 57 20 -13 4 -22 14
-21 23 4 48 -23 56 -59 18z"/>
<path d="M1630 610 c0 -32 4 -37 33 -48 43 -15 47 -15 47 2 0 29 -41 85 -61
83 -15 -1 -19 -9 -19 -37z"/>
<path d="M2337 613 c7 -38 42 -66 60 -48 7 8 13 25 13 39 0 21 -5 26 -24 26
-13 0 -31 3 -39 6 -11 4 -13 -1 -10 -23z"/>
<path d="M2492 618 c-7 -7 -12 -25 -12 -40 0 -21 6 -29 26 -34 30 -8 55 19 51
55 -2 28 -44 40 -65 19z"/>
<path d="M1367 583 c-10 -9 -9 -51 2 -57 5 -3 29 -7 54 -9 52 -5 73 17 40 40
-10 7 -23 17 -30 23 -14 11 -56 14 -66 3z"/>
<path d="M1938 569 c-40 -23 -4 -106 38 -89 13 5 24 21 28 41 10 50 -22 74
-66 48z"/>
<path d="M1541 546 c-17 -21 -6 -66 17 -67 9 0 29 -2 44 -4 32 -4 48 13 27 29
-8 6 -19 20 -25 31 -14 25 -47 31 -63 11z"/>
<path d="M1672 478 c2 -26 8 -34 27 -36 31 -5 44 9 35 42 -5 21 -12 26 -36 26
-27 0 -29 -2 -26 -32z"/>
<path d="M1797 504 c-4 -4 -7 -17 -7 -29 0 -18 7 -24 36 -28 49 -8 88 7 76 30
-6 9 -16 18 -23 20 -47 11 -75 14 -82 7z"/>
</g>
</svg>
