<?xml version="1.0" standalone="no"?>
<!DOCTYPE svg PUBLIC "-//W3C//DTD SVG 20010904//EN"
 "http://www.w3.org/TR/2001/REC-SVG-20010904/DTD/svg10.dtd">
<svg version="1.0" xmlns="http://www.w3.org/2000/svg"
 width="533.000000pt" height="473.000000pt" viewBox="0 0 533.000000 473.000000"
 preserveAspectRatio="xMidYMid meet">
<metadata>
Created by potrace 1.16, written by Peter Selinger 2001-2019
</metadata>
<g transform="translate(0.000000,473.000000) scale(0.100000,-0.100000)"
fill="#000000" stroke="none">
<path d="M2408 4636 c-15 -6 -38 -22 -52 -34 -14 -12 -43 -33 -65 -47 -57 -35
-75 -74 -66 -144 4 -31 8 -72 10 -91 1 -19 3 -41 4 -47 0 -7 12 -13 25 -13 26
0 59 -40 47 -58 -4 -7 -17 -9 -31 -5 -67 17 -127 -6 -194 -73 -67 -67 -126
-209 -126 -304 0 -22 -4 -40 -9 -40 -6 0 -24 -20 -41 -44 -22 -31 -43 -47 -71
-55 -56 -17 -64 -44 -63 -202 2 -118 9 -165 21 -131 3 6 9 10 14 7 4 -3 11 6
15 20 3 14 7 25 8 25 1 0 19 -9 41 -20 44 -22 97 -19 128 8 19 17 21 13 8 -20
-5 -13 -15 -42 -22 -65 -7 -24 -15 -43 -18 -43 -3 1 -15 15 -26 33 -29 45 -62
54 -122 32 -57 -21 -155 -117 -174 -170 -18 -48 -29 -44 -18 6 13 56 22 71 65
108 29 26 35 37 30 57 -8 31 -33 31 -74 1 -47 -35 -90 -94 -103 -141 -11 -38
-3 -172 16 -269 4 -22 -2 -35 -31 -65 -19 -20 -43 -49 -52 -64 -13 -22 -22
-27 -51 -26 -45 2 -104 -26 -119 -55 -35 -69 -59 -280 -38 -329 6 -14 3 -18
-13 -18 -51 0 -92 -93 -85 -192 3 -45 2 -47 -29 -57 -38 -13 -73 -49 -109
-111 -31 -55 -60 -152 -52 -174 4 -11 1 -16 -10 -16 -41 0 -61 -122 -42 -255
4 -33 9 -75 11 -92 2 -18 11 -40 20 -50 15 -15 15 -17 1 -25 -8 -5 -22 -24
-31 -42 -15 -31 -18 -33 -74 -33 -61 -1 -86 -10 -127 -46 -55 -48 -120 -202
-126 -298 -1 -22 -6 -39 -10 -39 -11 0 -79 -68 -100 -100 -12 -18 -17 -21 -17
-9 -1 24 -28 42 -53 35 -34 -8 -81 -56 -95 -96 -6 -19 -14 -61 -18 -92 l-6
-57 -52 -6 c-46 -6 -55 -11 -75 -42 -29 -43 -41 -157 -22 -203 7 -16 16 -30
21 -30 5 0 9 -6 9 -12 1 -17 37 -42 83 -57 33 -11 42 -10 80 9 23 12 58 39 79
60 l36 37 14 -26 c33 -63 87 -87 179 -76 55 6 160 52 174 76 10 15 19 11 62
-30 23 -22 60 -45 84 -53 54 -16 203 -15 244 3 17 7 34 11 38 10 4 -1 14 5 21
12 7 7 33 19 57 27 24 8 52 23 61 32 26 26 43 22 75 -16 15 -18 48 -43 72 -56
36 -18 54 -21 110 -16 96 8 100 9 201 51 l56 23 42 -31 c53 -38 116 -48 192
-29 52 13 116 51 133 78 11 19 39 45 43 41 2 -2 6 -21 10 -43 13 -88 63 -143
138 -151 30 -4 45 -1 55 11 7 9 19 16 27 16 25 0 132 144 145 195 l12 47 24
-58 c50 -120 159 -173 242 -117 14 10 29 17 33 15 4 -1 16 10 27 24 16 21 24
23 39 15 11 -6 22 -8 25 -5 2 3 20 -1 38 -9 65 -26 118 -21 193 17 55 28 73
33 88 25 16 -9 20 -7 25 10 4 17 7 18 19 6 8 -7 14 -18 14 -23 0 -5 18 -17 40
-27 35 -16 47 -16 102 -6 93 18 205 97 244 172 25 50 28 25 5 -39 -12 -32 -21
-63 -20 -68 1 -5 -1 -17 -6 -27 -4 -10 -2 -23 5 -32 10 -12 14 -12 26 0 8 7
14 18 14 24 0 6 20 -9 44 -33 24 -25 57 -47 76 -51 77 -17 193 30 254 103 l36
44 1 -39 c1 -67 17 -101 68 -147 33 -30 143 -34 204 -7 55 24 108 61 155 108
25 26 38 32 57 27 14 -3 25 -12 25 -20 0 -21 69 -82 101 -89 36 -8 65 1 108
34 88 66 141 151 162 258 16 76 7 95 -57 137 -35 22 -52 27 -77 22 -18 -3 -39
-7 -47 -9 -20 -3 -99 -59 -129 -91 -30 -32 -43 -33 -57 -3 -12 26 -2 40 34 51
33 11 137 117 162 166 24 48 33 90 33 163 -1 56 -13 73 -64 88 -41 13 -77 4
-129 -32 -18 -12 -32 -14 -48 -8 -13 5 -28 7 -33 3 -13 -7 -11 3 5 39 57 132
57 210 -2 255 -41 31 -106 34 -128 5 -7 -10 -14 -13 -14 -6 0 6 5 15 10 18 17
10 60 84 76 127 7 21 9 36 4 33 -6 -3 -10 -1 -10 4 0 6 5 11 11 11 6 0 10 18
8 43 -1 23 1 49 5 57 3 8 4 45 3 82 -3 56 -7 70 -28 88 -20 18 -34 20 -86 17
l-63 -5 8 27 c13 46 7 131 -11 148 -14 14 -14 20 -2 43 25 48 22 112 -8 161
-31 53 -110 135 -149 155 -15 8 -28 21 -28 30 0 36 -35 85 -131 185 -53 55
-57 62 -72 142 -9 46 -26 106 -37 133 -21 50 -21 51 -3 106 38 113 1 289 -69
327 -15 7 -24 22 -25 40 -4 54 -81 263 -117 316 -11 17 -31 38 -44 49 -23 18
-23 19 -4 40 43 47 5 302 -54 367 -9 10 -14 21 -11 26 11 18 16 131 8 161 -5
17 -18 41 -30 53 -31 33 -106 23 -174 -24 -57 -40 -74 -39 -54 1 23 46 40 120
33 147 -4 14 -18 39 -33 55 -28 32 -77 40 -125 21 -13 -5 -36 -12 -52 -16 -15
-3 -26 -9 -22 -12 7 -8 -30 -40 -55 -48 -11 -4 -37 -34 -58 -67 l-38 -60 3 61
c3 52 0 65 -21 88 -21 25 -29 28 -87 27 -72 -1 -136 -33 -162 -81 -15 -28 -15
-27 -16 30 0 31 -4 57 -9 57 -5 0 -7 8 -4 18 3 11 -8 31 -30 52 -41 41 -70 66
-75 63 -1 -1 -20 -12 -42 -24 -22 -13 -40 -26 -40 -31 0 -5 -18 -5 -39 -2 -39
6 -40 6 -62 -42 -12 -27 -21 -64 -21 -81 1 -36 -4 -39 -30 -19 -16 12 -17 43
-3 85 10 27 -8 82 -35 111 -31 33 -72 38 -122 16z m76 -111 c-2 -52 -5 -64
-31 -108 -14 -23 -30 -37 -42 -37 -11 0 -31 -12 -44 -26 l-24 -26 -12 32 c-9
28 -7 40 15 88 42 92 74 123 119 119 17 -2 20 -9 19 -42z m347 -32 c14 -37 14
-110 1 -158 -15 -52 -62 -99 -90 -91 -22 7 -52 72 -52 113 0 30 31 85 74 131
36 39 53 40 67 5z m675 -88 c0 -23 -12 -67 -32 -112 -8 -17 -14 -35 -14 -40 0
-19 -79 -119 -104 -132 -24 -13 -28 -13 -41 5 -19 23 -12 122 11 168 8 16 14
38 14 48 0 20 32 58 65 77 11 6 38 10 60 8 32 -2 40 -6 41 -22z m-383 -37 c7
-46 3 -77 -16 -122 -10 -21 -17 -41 -17 -45 0 -3 -15 -23 -33 -43 -28 -32 -36
-36 -65 -31 -67 11 -82 100 -30 184 35 58 79 89 124 89 28 0 32 -4 37 -32z
m-578 -38 c3 -5 7 -34 9 -63 6 -117 -48 -227 -97 -194 -20 13 -47 83 -47 125
0 12 21 50 48 82 44 56 73 73 87 50z m1193 -136 c3 -44 -1 -53 -33 -89 -19
-22 -38 -55 -41 -72 -6 -29 -10 -33 -40 -33 -24 0 -37 6 -44 21 -17 30 -14
106 3 132 20 28 64 79 69 77 3 -1 10 1 48 13 28 10 35 1 38 -49z m-1078 -46
c-39 -31 -45 -25 -34 31 l7 32 24 -23 24 -23 -21 -17z m511 -4 c-5 -29 -13
-39 -40 -50 -33 -14 -34 -14 -19 3 9 10 23 33 32 51 22 42 34 41 27 -4z m-365
-11 c-3 -3 -13 -2 -23 1 -17 7 -17 8 2 22 18 13 20 13 23 -1 2 -9 1 -19 -2
-22z m-543 -22 c31 -3 -46 -246 -89 -281 -7 -7 -28 -13 -46 -13 -26 -2 -35 3
-46 26 -21 42 -18 84 7 111 16 17 20 30 16 49 -6 22 1 39 31 85 6 9 77 28 97
26 12 -1 26 -3 30 -3z m1197 -29 c0 -14 -91 -73 -101 -66 -6 3 11 21 38 40 50
34 63 40 63 26z m-748 -81 c-2 -78 -23 -131 -68 -176 -31 -31 -54 -29 -72 7
-11 25 -9 36 19 103 31 75 57 105 92 105 15 0 18 5 14 21 -3 13 -1 19 6 16 8
-3 11 -28 9 -76z m371 54 c-3 -9 -8 -14 -10 -11 -3 3 -2 9 2 15 9 16 15 13 8
-4z m-689 -50 c24 -19 52 -35 62 -36 10 0 15 -2 9 -4 -5 -1 -30 -9 -55 -16
-25 -7 -60 -21 -77 -31 -18 -10 -33 -14 -33 -8 0 5 4 11 8 14 5 3 15 30 22 61
7 30 15 55 17 55 3 0 24 -16 47 -35z m887 3 c15 -25 19 -43 15 -78 -9 -75 -14
-91 -43 -129 -41 -54 -51 -63 -91 -77 -34 -12 -38 -11 -54 8 -29 33 -23 97 16
168 36 67 100 140 122 140 8 0 23 -15 35 -32z m-300 12 c15 0 10 -46 -11 -102
-23 -59 -80 -128 -122 -146 -24 -10 -29 -9 -43 11 -15 22 -21 87 -7 87 4 0 15
18 26 40 32 67 100 125 134 114 8 -2 18 -4 23 -4z m813 -81 c17 -50 20 -157 5
-180 -8 -13 -38 40 -58 103 -10 29 -10 46 0 75 6 21 13 44 15 51 6 23 21 4 38
-49z m-286 -37 c-4 -79 -40 -158 -82 -182 -24 -13 -28 -13 -37 0 -12 19 -6
115 11 155 l12 30 15 -22 c19 -29 43 -19 43 19 0 34 16 68 31 68 7 0 10 -24 7
-68z m130 -15 c3 -15 -1 -17 -25 -11 -35 8 -37 10 -28 24 10 17 49 8 53 -13z
m-1171 -131 c-5 -98 -5 -99 -44 -140 -22 -22 -54 -60 -72 -84 -19 -24 -35 -41
-37 -39 -5 5 -16 76 -19 117 -2 43 18 123 42 167 16 31 32 41 72 48 9 1 15 11
14 21 -2 24 17 36 35 21 12 -9 14 -32 9 -111z m531 42 c-2 -6 -10 -14 -16 -16
-7 -2 -10 2 -6 12 7 18 28 22 22 4z m636 -24 c10 -4 16 -18 16 -36 0 -16 5
-39 11 -50 26 -48 16 -149 -15 -161 -36 -14 -72 94 -54 158 5 17 6 42 4 56 -7
37 4 46 38 33z m-1409 -51 c-7 -21 -14 -58 -16 -83 -4 -59 -8 -70 -25 -63 -9
3 -13 12 -9 22 11 28 16 55 16 97 1 33 5 44 22 52 12 6 23 11 23 11 1 1 -4
-16 -11 -36z m473 -1 c4 -41 29 -63 47 -39 16 22 27 10 12 -14 -15 -25 -39
-24 -62 1 -11 12 -38 22 -69 27 l-51 7 38 9 c20 5 42 18 48 29 15 27 33 17 37
-20z m-625 7 c46 -13 51 -43 20 -128 -25 -70 -136 -164 -162 -138 -6 6 -11 7
-11 2 0 -4 -9 0 -20 10 -11 10 -20 29 -20 43 0 35 48 129 82 161 16 14 37 34
46 44 19 20 17 20 65 6z m497 -13 c0 -9 -30 -14 -35 -6 -4 6 3 10 14 10 12 0
21 -2 21 -4z m406 -81 c-5 -45 -3 -57 9 -62 22 -8 29 2 30 42 2 48 15 57 15
11 0 -56 -56 -126 -134 -167 -22 -12 -46 -28 -54 -35 -19 -19 -28 -18 -52 8
-15 16 -20 35 -20 75 0 50 1 53 26 53 14 0 34 -5 44 -10 17 -9 21 -6 26 16 4
17 1 36 -10 55 -17 29 -17 29 29 56 11 6 37 11 59 12 l39 1 -7 -55z m274 46
c0 -5 -10 -11 -22 -14 -22 -6 -22 -6 -4 8 23 17 26 18 26 6z m-110 -55 c0 -2
-7 -6 -15 -10 -8 -3 -15 -1 -15 4 0 6 7 10 15 10 8 0 15 -2 15 -4z m-526 -16
c20 -7 26 -17 26 -39 0 -33 -19 -81 -32 -81 -4 0 -8 -6 -8 -12 0 -16 -47 -70
-80 -91 -28 -18 -50 -17 -74 2 -25 21 -19 46 19 75 33 25 40 44 22 57 -15 11
17 61 52 79 43 23 43 23 75 10z m859 -36 c30 -7 50 -34 42 -56 -8 -21 -90 -58
-128 -58 -59 0 -105 19 -124 50 -10 17 -26 30 -38 31 -16 0 -14 3 10 14 36 17
105 19 105 4 0 -16 43 -6 58 14 8 10 21 16 30 13 10 -3 29 -8 45 -12z m413
-70 c63 -131 83 -274 40 -274 -7 0 -21 -18 -32 -40 -35 -74 -78 -42 -87 66 -3
38 -13 85 -21 106 -13 30 -13 38 -2 47 10 8 12 21 6 44 -4 18 -6 42 -5 52 2
28 34 75 51 75 8 0 31 -34 50 -76z m-1663 -122 c-4 -79 -41 -175 -83 -219 -43
-44 -70 -44 -71 0 -4 125 39 249 99 281 24 14 28 13 42 -3 10 -11 15 -34 13
-59z m987 28 c22 0 70 -41 70 -60 0 -6 -17 -18 -37 -26 -21 -8 -59 -26 -85
-40 -37 -20 -49 -22 -60 -12 -7 7 -28 18 -46 25 -29 10 -41 9 -83 -7 -46 -18
-49 -19 -57 -2 -38 73 147 174 245 135 18 -7 42 -13 53 -13z m-520 -12 c0 -5
-9 -8 -20 -8 -18 0 -19 3 -8 20 9 14 14 16 20 7 4 -7 8 -15 8 -19z m976 -60
c7 -37 16 -73 20 -79 14 -24 22 -83 14 -104 -24 -64 -97 -27 -91 45 1 25 -4
51 -13 66 -10 14 -12 24 -6 24 19 0 44 72 32 91 -12 19 -5 31 17 27 10 -2 19
-26 27 -70z m-174 37 c-4 -24 -8 -25 -74 -25 -85 0 -89 19 -7 36 83 18 87 18
81 -11z m-1140 -100 c-18 -20 -32 -40 -32 -44 0 -5 -13 -14 -30 -20 -22 -7
-30 -7 -30 2 0 18 38 134 39 120 2 -20 41 -16 41 4 0 15 3 15 22 -4 l21 -22
-31 -36z m363 11 c17 -9 36 -16 43 -16 52 0 -63 -73 -168 -106 -43 -13 -48
-13 -107 13 -34 16 -63 31 -63 35 0 6 10 16 46 47 26 22 134 50 179 46 22 -2
54 -10 70 -19z m-821 -48 c31 -48 -9 -197 -69 -256 -19 -19 -35 -39 -35 -44 0
-4 -5 -8 -11 -8 -6 0 -24 -9 -39 -20 -40 -28 -77 -18 -85 22 -7 31 11 114 26
124 5 3 9 12 9 21 0 26 71 127 110 156 43 32 75 34 94 5z m1533 -1 c3 -4 16
-7 27 -7 21 0 55 -54 42 -67 -16 -16 -189 -23 -235 -10 -46 14 -44 12 -32 35
22 40 170 77 198 49z m622 -154 c1 -89 -7 -130 -27 -138 -25 -9 -44 19 -45 71
-2 41 2 53 26 76 15 15 27 34 27 43 0 8 4 15 9 15 5 0 10 -30 10 -67z m-981
23 c23 -10 42 -22 42 -28 0 -21 -22 -48 -39 -48 -10 0 -24 -7 -31 -15 -7 -8
-25 -15 -41 -15 -29 0 -71 -31 -50 -38 22 -7 11 -20 -23 -26 -25 -5 -52 0 -98
18 -34 14 -72 24 -83 22 -11 -2 -32 3 -47 11 -24 11 -28 20 -28 53 0 34 4 42
33 57 51 28 65 30 197 28 94 -1 136 -6 168 -19z m-631 -26 c13 0 23 -4 23 -10
0 -5 -9 -10 -20 -10 -11 0 -20 -4 -20 -10 0 -5 -5 -10 -11 -10 -18 0 -83 -33
-91 -46 -11 -17 -102 -28 -127 -15 -26 15 -19 36 31 83 51 49 109 62 158 36
19 -10 45 -18 57 -18z m1123 -7 c26 -22 25 -27 -5 -41 -38 -17 -73 -15 -97 8
-12 10 -25 17 -30 14 -4 -3 -8 -1 -8 3 0 9 65 28 102 32 10 0 27 -7 38 -16z
m248 -5 c3 -13 -3 -18 -21 -18 -29 0 -37 7 -30 27 8 19 47 12 51 -9z m-608 2
c0 -5 -5 -10 -11 -10 -5 0 -7 5 -4 10 3 6 8 10 11 10 2 0 4 -4 4 -10z m50 -6
c0 -2 -9 -4 -20 -4 -11 0 -20 4 -20 9 0 5 9 7 20 4 11 -3 20 -7 20 -9z m147
-88 c1 -1 -14 -19 -34 -40 -42 -43 -35 -66 12 -42 38 20 45 12 11 -15 -14 -11
-32 -27 -40 -35 -10 -9 -34 -13 -73 -13 -32 1 -87 -4 -123 -11 -59 -12 -68
-12 -93 4 -81 53 43 136 206 138 58 1 77 5 77 15 0 10 8 12 28 7 15 -4 28 -8
29 -8z m-1382 -26 c32 -62 16 -133 -47 -211 -13 -16 -115 -88 -127 -90 -15 -2
-40 -7 -60 -14 -14 -4 -21 -2 -21 7 1 43 93 240 131 279 33 34 71 59 91 59 10
0 24 -13 33 -30z m1783 13 c21 -5 23 -10 18 -37 -7 -36 -55 -82 -94 -89 -15
-3 -52 -1 -82 4 -91 14 -112 67 -42 103 15 7 41 11 59 9 20 -3 40 1 55 11 13
10 31 14 43 11 11 -4 31 -9 43 -12z m-1198 -8 l25 -13 -27 -11 c-14 -5 -29
-14 -32 -20 -8 -12 -93 -51 -112 -51 -8 0 -14 -7 -14 -15 0 -18 -4 -18 -52 -4
-30 8 -38 15 -38 32 0 18 10 27 48 40 26 10 61 26 77 37 35 23 89 25 125 5z
m-412 -55 c23 -6 47 -8 52 -5 6 3 10 -4 10 -17 0 -20 -8 -26 -47 -37 -27 -8
-61 -20 -77 -28 l-29 -15 7 32 c3 18 6 46 6 62 0 23 4 28 18 24 9 -3 36 -10
60 -16z m609 -77 c7 -9 13 -11 18 -4 8 14 95 -44 95 -63 0 -24 -73 -49 -157
-54 -58 -3 -83 -1 -83 7 0 6 -17 11 -39 11 -64 0 -68 21 -11 63 28 21 50 41
50 46 0 22 109 17 127 -6z m694 -31 c-7 -2 -32 -19 -57 -38 -51 -39 -55 -40
-71 -15 -10 15 -8 20 10 30 12 7 36 27 52 45 l30 33 24 -26 c15 -16 20 -26 12
-29z m563 25 c17 -25 46 -155 46 -203 0 -37 -10 -46 -68 -63 -42 -12 -67 -8
-57 9 3 5 1 11 -5 15 -6 4 -8 10 -6 14 3 4 -3 31 -13 61 -20 62 -20 129 -2
163 18 34 84 36 105 4z m-2410 -80 c-8 -77 -33 -137 -73 -173 -17 -15 -33 -35
-36 -45 -7 -21 -90 -84 -122 -92 -22 -5 -23 -3 -16 36 3 23 15 50 25 61 10 11
18 30 18 43 0 13 4 23 8 23 5 0 16 17 26 37 33 68 88 143 105 143 10 0 26 9
36 20 27 30 35 15 29 -53z m2203 48 c-7 -16 -37 -21 -37 -5 0 10 32 31 39 25
2 -2 1 -11 -2 -20z m-1445 -45 c34 0 40 -10 25 -40 -11 -22 -105 -81 -118 -74
-3 2 -26 -3 -51 -11 -45 -13 -95 -18 -170 -16 -31 1 -38 5 -38 21 0 43 107
121 200 145 39 10 51 9 85 -7 22 -9 52 -18 67 -18z m1365 -40 c21 -7 42 -16
46 -20 15 -13 -42 -59 -81 -65 -20 -3 -59 -11 -85 -17 -87 -19 -167 6 -167 52
0 23 35 58 46 47 3 -3 22 0 43 7 48 14 148 12 198 -4z m-464 -30 c20 -8 37
-18 37 -22 0 -4 7 -8 15 -8 17 0 39 -46 29 -61 -3 -5 -12 -9 -20 -9 -8 0 -14
-4 -14 -8 0 -21 -222 -53 -234 -33 -3 4 -27 14 -53 22 -78 21 -94 55 -49 98
37 35 217 48 289 21z m-1923 -71 c-20 -43 -21 -43 -14 -9 8 42 26 79 31 64 2
-6 -6 -31 -17 -55z m1508 18 c-1 -19 2 -39 5 -44 5 -7 -10 -12 -38 -15 -37 -2
-45 0 -45 14 0 9 -3 23 -6 32 -4 11 4 20 28 30 50 22 58 20 56 -17z m-928 -9
c0 -13 4 -28 8 -34 15 -24 88 -54 132 -55 l45 -1 -45 -13 c-67 -19 -93 -31
-117 -54 -34 -32 -49 -27 -48 17 0 20 -7 55 -17 77 -17 39 -17 40 5 62 28 28
37 28 37 1z m1910 -24 c0 -8 -5 -12 -10 -9 -6 4 -8 11 -5 16 9 14 15 11 15 -7z
m-1164 -15 c14 -15 13 -18 -13 -36 -29 -21 -102 -47 -163 -59 -92 -18 -166 1
-154 40 10 33 19 38 101 56 100 22 206 21 229 -1z m-857 -47 c30 -72 -5 -169
-86 -241 -34 -30 -98 -61 -125 -61 -11 0 -7 24 24 123 16 52 27 71 45 78 14 5
23 17 24 31 1 33 6 59 14 66 6 6 67 28 86 31 4 1 12 -12 18 -27z m-492 -4 c-3
-8 -6 -5 -6 6 -1 11 2 17 5 13 3 -3 4 -12 1 -19z m2160 2 c2 0 3 -4 3 -9 0 -4
-16 -3 -35 3 -44 14 -46 28 -3 15 18 -5 34 -9 35 -9z m-1883 -37 c-9 -21 -22
-55 -28 -75 -18 -57 -23 -54 -15 8 5 37 15 64 30 80 30 32 32 30 13 -13z
m2173 -49 c-48 -48 -59 -54 -96 -54 -48 0 -81 14 -81 34 0 8 -7 17 -17 20 -14
6 -12 11 12 36 33 34 55 38 158 26 l78 -9 -54 -53z m440 -13 c36 -55 41 -68
38 -108 -4 -51 -8 -58 -30 -50 -9 4 -15 19 -15 37 0 22 -10 41 -30 62 -25 25
-30 37 -30 80 0 64 12 60 67 -21z m-1306 0 c34 -30 49 -32 49 -5 0 8 9 14 20
14 21 0 27 -15 10 -25 -5 -3 -10 -14 -10 -23 0 -13 -17 -22 -67 -34 -70 -17
-149 -16 -210 3 -35 11 -39 19 -23 49 9 17 25 22 135 44 46 9 64 4 96 -23z
m573 -54 c23 -26 30 -40 24 -51 -5 -9 -14 -16 -21 -16 -7 0 -29 -11 -49 -25
-31 -21 -38 -22 -48 -10 -16 19 -44 19 -60 0 -17 -21 -31 -19 -60 8 -28 26
-66 39 -120 41 -28 1 -36 6 -44 28 -5 15 -7 31 -3 34 19 20 112 32 225 30
l123 -3 33 -36z m483 37 c-3 -3 -12 -4 -19 -1 -8 3 -5 6 6 6 11 1 17 -2 13 -5z
m-1417 -14 c0 -5 -2 -10 -4 -10 -3 0 -8 5 -11 10 -3 6 -1 10 4 10 6 0 11 -4
11 -10z m-279 -21 c37 -26 36 -40 0 -62 -35 -20 -49 -21 -70 -4 -24 20 -92 37
-151 37 -52 0 -63 10 -18 16 13 2 45 9 71 16 78 21 136 20 168 -3z m-804 -11
c-3 -8 -6 -5 -6 6 -1 11 2 17 5 13 3 -3 4 -12 1 -19z m-79 -65 c3 -26 -5 -40
-41 -78 -33 -34 -51 -46 -69 -43 -31 4 -35 37 -8 68 88 102 112 113 118 53z
m2677 19 c6 -4 16 -19 22 -34 11 -25 10 -27 -19 -37 -45 -16 -89 -13 -123 7
-16 10 -51 27 -77 37 -26 9 -45 21 -42 26 6 11 225 12 239 1z m-1027 -44 c5
-25 -39 -33 -75 -15 -20 11 -24 17 -13 20 8 3 22 8 30 11 27 9 55 1 58 -16z
m-401 -29 c33 -19 74 -74 62 -82 -46 -29 -212 -45 -283 -26 -41 10 -116 39
-116 45 0 19 28 53 53 64 60 25 82 29 163 26 62 -3 90 -9 121 -27z m240 17
c-8 -8 -31 -22 -52 -30 -35 -15 -39 -15 -51 1 -20 27 -18 29 38 32 29 1 55 4
57 7 2 2 8 4 13 4 5 0 3 -6 -5 -14z m-882 -11 c11 -4 32 -11 46 -17 15 -5 33
-9 40 -8 27 4 49 0 49 -9 0 -32 -240 -11 -262 23 -14 20 80 29 127 11z m-518
-10 c0 -8 -4 -15 -8 -15 -11 0 -20 16 -12 24 11 11 20 7 20 -9z m2287 -18 c19
-15 40 -27 46 -27 6 0 25 -7 41 -16 29 -15 30 -16 12 -30 -26 -20 -139 -54
-180 -54 -47 0 -62 18 -60 74 1 32 -4 50 -13 57 -26 16 10 30 67 26 37 -2 62
-11 87 -30z m671 -49 c16 -29 20 -76 7 -93 -11 -16 -85 -12 -99 5 -15 18 -17
57 -4 62 8 2 17 47 20 102 1 14 59 -44 76 -76z m-1185 -13 c20 -10 28 -20 23
-28 -4 -7 -8 -21 -8 -32 0 -39 -135 -44 -197 -7 -16 9 -28 21 -28 26 0 5 12
23 28 39 26 28 30 29 89 23 34 -3 76 -12 93 -21z m-1409 -17 c23 -36 -4 -124
-54 -175 -12 -12 -33 -34 -47 -49 -58 -62 -133 -91 -191 -72 -34 12 -53 51
-38 81 21 42 74 117 83 117 4 0 17 12 28 26 18 23 79 67 118 86 22 11 92 2
101 -14z m1099 -51 c-4 -61 -10 -79 -38 -118 -18 -25 -52 -56 -74 -69 -40 -22
-42 -22 -55 -5 -26 36 -7 109 43 162 20 21 38 52 41 68 5 28 8 31 46 33 l42 1
-5 -72z m-1391 36 c20 -16 20 -17 -5 -46 -13 -16 -22 -33 -18 -38 3 -5 -2 -9
-10 -9 -9 0 -16 2 -16 5 0 13 22 105 26 105 2 0 13 -8 23 -17z m2461 2 c0 -22
-28 -75 -40 -75 -21 0 -27 33 -11 61 17 31 51 39 51 14z m-2598 -8 c-6 -7 -10
-37 -10 -66 1 -51 -1 -56 -40 -92 -52 -49 -72 -44 -72 18 0 26 6 51 15 59 8 8
18 20 22 27 12 19 73 67 85 67 7 0 7 -4 0 -13z m2813 3 c3 -5 10 -35 15 -65
11 -70 -2 -105 -67 -172 -45 -46 -50 -49 -80 -41 -54 14 -61 45 -35 150 13 50
41 87 88 114 42 25 69 30 79 14z m-2195 -17 c0 -5 -15 -25 -33 -45 -17 -21
-40 -50 -50 -64 -31 -42 -31 -19 -1 41 15 31 37 61 48 65 27 11 36 12 36 3z
m152 -25 c5 -74 -16 -112 -100 -180 -47 -38 -111 -61 -133 -47 -10 6 -11 9 -1
9 6 0 12 9 12 19 0 11 9 30 19 43 11 12 40 48 64 78 44 56 99 100 123 100 8 0
15 -10 16 -22z m1328 -3 c22 -23 22 -26 7 -43 -10 -10 -17 -23 -17 -28 0 -10
-63 -63 -99 -81 -28 -16 -71 -17 -71 -3 0 31 121 179 146 180 6 0 21 -11 34
-25z m-1216 6 c3 -5 0 -11 -8 -14 -8 -3 -17 1 -20 9 -6 15 19 20 28 5z m377
-44 l-16 -34 -7 26 c-7 25 3 41 28 41 8 0 6 -12 -5 -33z m-105 -64 c-11 -92
-82 -176 -172 -201 -68 -20 -94 5 -58 56 8 12 13 22 10 22 -12 0 50 97 87 137
44 47 90 66 121 51 16 -9 18 -17 12 -65z m1329 49 c33 -24 36 -39 19 -107 -13
-50 -14 -69 -5 -74 18 -12 -24 -59 -74 -82 -23 -11 -55 -33 -70 -49 -28 -30
-49 -36 -79 -24 -25 9 -22 123 4 171 11 21 20 43 20 49 0 18 33 40 65 43 41 4
63 26 57 56 -4 22 -1 25 24 25 16 0 34 -4 39 -8z m-239 -23 c3 -5 -6 -24 -19
-41 -14 -18 -28 -43 -32 -56 -5 -17 -12 -22 -23 -17 -10 4 -29 9 -44 12 -34 7
-35 13 -3 47 14 16 32 38 40 50 12 17 22 22 45 18 17 -2 33 -8 36 -13z m-603
-3 l38 -13 -36 -29 c-21 -16 -63 -61 -94 -100 -55 -68 -58 -70 -68 -48 -9 21
-5 31 36 82 26 32 53 73 60 90 15 37 14 36 64 18z m-1889 -19 c7 -29 -1 -76
-17 -101 -7 -10 -29 -24 -50 -31 l-37 -13 0 35 c0 44 35 111 63 123 32 13 34
12 41 -13z m2020 -79 c-2 -18 -10 -53 -18 -78 -8 -25 -17 -58 -20 -73 l-7 -28
-37 28 c-20 15 -41 34 -45 40 -4 7 -14 13 -21 13 -23 0 -26 28 -5 33 11 3 23
14 26 25 3 11 12 23 21 26 10 4 33 16 52 26 49 28 58 26 54 -12z m1274 -2 c6
-47 -6 -73 -49 -113 -75 -70 -99 -61 -99 35 0 62 22 92 76 102 58 12 69 8 72
-24z m-2234 -136 c32 -65 55 -103 65 -109 6 -4 2 -12 -9 -19 -16 -10 -20 -10
-20 0 0 7 -13 41 -30 76 -20 43 -37 65 -55 72 -33 12 -80 13 -103 1 -9 -5 -30
-14 -45 -20 -15 -6 -37 -27 -48 -46 -23 -38 -40 -47 -32 -16 3 10 0 28 -6 40
-10 18 -9 21 10 21 20 0 122 45 163 72 11 7 33 28 50 46 l31 32 6 -57 c3 -32
13 -74 23 -93z m-394 116 c0 -13 2 -31 6 -39 3 -10 -4 -16 -23 -20 -15 -3 -59
-29 -98 -57 -55 -41 -71 -48 -73 -35 -6 27 5 43 45 64 21 11 58 40 83 64 53
52 60 55 60 23z m-410 -11 c0 -9 -22 -26 -51 -40 -42 -19 -55 -21 -71 -12 -16
11 -14 13 24 20 24 5 52 17 63 28 24 23 35 24 35 4z m1220 -16 c0 -11 7 -33
15 -49 14 -28 14 -32 -15 -79 -36 -59 -55 -58 -88 1 l-22 41 22 26 c13 14 29
30 36 34 6 4 12 14 12 20 0 17 21 38 32 31 4 -3 8 -14 8 -25z m-1383 -7 c8 -5
4 -11 -11 -18 -20 -9 -23 -8 -18 8 5 20 11 22 29 10z m2037 -18 c-1 -5 -5 -30
-8 -56 -4 -26 -8 -53 -10 -60 -3 -7 -7 -25 -10 -39 -5 -21 -12 -26 -40 -27
-32 -1 -35 0 -27 21 4 12 6 27 4 34 -2 6 1 14 6 18 6 3 11 20 11 36 0 26 3 29
21 24 15 -5 19 -4 14 5 -9 15 15 62 29 56 6 -2 10 -7 10 -12z m246 -19 c19
-23 18 -77 -3 -125 -23 -52 -67 -110 -83 -110 -6 0 -17 -6 -23 -13 -6 -8 -25
-14 -41 -15 -67 -2 -63 104 7 193 57 72 117 102 143 70z m470 -51 c0 -6 -8
-18 -19 -28 -27 -25 -45 -1 -29 41 10 28 13 29 30 14 10 -8 18 -20 18 -27z
m-2586 -8 c6 -25 31 -40 48 -30 5 3 8 15 5 25 -6 22 -1 23 42 8 36 -13 40 -37
17 -113 -25 -83 -89 -146 -149 -146 -67 0 -130 167 -83 219 16 18 92 61 107
61 4 0 10 -11 13 -24z m-274 -78 c-13 -78 -23 -101 -71 -172 -35 -53 -52 -57
-67 -18 -23 59 -23 74 -1 145 26 86 31 94 72 103 17 3 37 13 45 21 27 27 35
-1 22 -79z m1692 57 c14 -69 -33 -211 -65 -200 -19 7 -33 -7 -46 -46 -12 -38
-30 -49 -83 -49 -40 0 -52 29 -33 82 8 24 15 51 15 61 0 10 5 15 10 12 6 -3
10 1 10 9 0 10 9 16 25 16 27 0 35 26 14 47 -15 15 49 79 91 91 44 11 57 7 62
-23z m-1002 5 c0 -5 -2 -10 -4 -10 -3 0 -8 5 -11 10 -3 6 -1 10 4 10 6 0 11
-4 11 -10z m2791 -27 c19 -50 -11 -208 -52 -278 -39 -65 -130 -86 -157 -35
-20 39 -10 122 21 168 15 21 27 45 27 53 0 22 75 98 111 112 28 11 40 6 50
-20z m-1506 -5 c5 4 5 -6 1 -23 -10 -41 -51 -92 -89 -111 -18 -9 -42 -29 -55
-45 -28 -35 -72 -40 -72 -8 0 27 46 124 73 154 12 13 27 30 34 38 11 13 18 14
57 2 24 -7 47 -10 51 -7z m-976 2 c10 -5 24 -30 31 -55 19 -68 0 -124 -66
-191 -46 -48 -57 -54 -93 -54 -30 0 -41 -4 -41 -15 0 -26 -44 -17 -62 13 -14
24 -15 31 -2 61 8 19 13 39 12 46 -3 12 23 53 55 87 9 10 31 18 47 18 32 0 36
9 19 41 -19 36 -2 59 42 59 22 0 48 -4 58 -10z m-281 -10 c16 0 8 -35 -24
-101 -16 -32 -38 -57 -64 -74 -22 -14 -42 -25 -46 -25 -16 0 -34 32 -39 71 -5
40 -3 48 30 86 35 41 67 55 110 47 11 -2 26 -4 33 -4z m2358 -85 c-7 -88 -25
-134 -73 -187 -56 -62 -106 -75 -144 -37 -18 18 -20 28 -14 68 4 25 11 69 14
97 5 41 12 56 41 81 31 27 91 63 104 63 2 0 6 -12 8 -27 4 -39 33 -42 46 -4 6
16 7 33 4 37 -4 4 -1 4 7 -1 11 -6 12 -25 7 -90z m-1724 15 c-2 -117 -52 -220
-108 -220 -31 0 -64 52 -64 102 0 53 41 99 81 91 31 -6 40 12 17 35 -15 15 5
39 35 44 32 6 39 -5 39 -52z m1404 43 c16 -37 13 -69 -11 -103 -22 -32 -52
-94 -54 -112 -1 -5 -1 -21 -1 -38 0 -28 -2 -30 -39 -30 -47 0 -74 28 -65 69
20 99 57 161 97 161 12 0 17 5 14 14 -7 17 19 56 37 56 8 0 17 -8 22 -17z
m464 -22 c0 -4 -6 -15 -14 -26 -7 -11 -18 -43 -24 -70 -16 -75 -30 -105 -47
-105 -11 0 -15 6 -11 18 5 18 14 72 21 136 3 21 7 42 10 46 6 10 65 10 65 1z
m-719 -41 c18 -10 18 -12 -7 -61 -20 -40 -29 -49 -42 -43 -9 4 -35 10 -57 13
l-40 6 26 25 c14 14 36 42 48 62 20 34 24 36 38 23 8 -8 23 -20 34 -25z m-432
-83 c-8 -46 -7 -72 4 -83 15 -15 6 -52 -23 -97 -26 -41 -33 -47 -55 -41 -28 7
-65 -18 -65 -43 0 -26 -18 -13 -24 18 -14 72 -7 103 38 169 52 78 93 120 116
120 15 0 16 -6 9 -43z m-1999 18 c0 -8 -4 -15 -10 -15 -5 0 -10 7 -10 15 0 8
5 15 10 15 6 0 10 -7 10 -15z m364 -74 c3 -27 13 -54 21 -61 18 -15 45 -6 45
14 0 12 4 12 31 -1 16 -8 39 -13 50 -10 14 4 9 -5 -18 -29 -21 -18 -48 -36
-60 -40 -28 -8 -66 -57 -82 -107 -13 -38 -38 -47 -33 -11 1 10 4 35 7 55 2 20
5 40 6 45 8 43 -3 76 -30 92 l-29 16 36 42 c20 23 40 43 43 43 4 1 9 -21 13
-48z m638 -21 c-4 -30 -32 -43 -32 -16 0 12 25 46 34 46 1 0 1 -13 -2 -30z
m1118 14 c0 -3 -7 -12 -15 -20 -13 -14 -15 -13 -15 5 0 12 6 21 15 21 8 0 15
-3 15 -6z m-2071 -13 c17 -11 11 -68 -13 -124 -10 -26 -25 -42 -46 -50 -26
-10 -31 -18 -36 -60 -5 -38 -14 -56 -43 -83 -48 -46 -133 -70 -144 -41 -14 36
19 120 69 180 13 16 24 32 24 36 0 4 23 30 51 59 34 35 57 51 72 49 16 -1 23
4 25 21 4 23 18 28 41 13z m541 -21 c0 -5 -9 -10 -21 -10 -11 0 -17 5 -14 10
3 6 13 10 21 10 8 0 14 -4 14 -10z m1777 1 c16 -1 9 -137 -10 -181 -21 -48
-48 -71 -94 -77 -33 -4 -43 -1 -71 25 -38 36 -40 62 -9 118 47 87 90 122 143
118 16 -1 34 -3 41 -3z m-641 -39 c7 -4 12 -43 12 -102 0 -105 -3 -111 -71
-144 -65 -30 -123 0 -112 58 13 62 49 142 77 169 28 26 70 35 94 19z m1354
-72 c4 -48 8 -55 30 -60 21 -5 24 -11 22 -35 -6 -48 -42 -111 -94 -165 -45
-45 -88 -65 -88 -41 0 5 -16 12 -35 15 -22 5 -32 11 -29 20 3 7 6 24 8 37 8
76 47 165 104 238 51 66 75 63 82 -9z m-1632 -11 c9 -16 11 -44 7 -89 -5 -52
-11 -71 -33 -93 -67 -70 -173 -82 -188 -20 -4 13 -10 23 -15 23 -5 0 -9 30 -9
68 0 82 19 118 79 148 40 20 43 21 94 4 34 -11 57 -25 65 -41z m619 13 c-14
-17 -16 -12 -10 23 5 25 7 27 13 10 4 -11 3 -26 -3 -33z m-2247 28 c-8 -5 -19
-10 -25 -10 -5 0 -3 5 5 10 8 5 20 10 25 10 6 0 3 -5 -5 -10z m1318 -27 c4 -2
-20 -44 -34 -60 -9 -9 -13 -3 -17 25 -3 20 -8 46 -13 56 -7 19 -7 19 27 0 19
-10 35 -20 37 -21z m-894 19 c21 -34 -7 -202 -34 -202 -5 0 -10 -6 -10 -12 -1
-25 -29 -49 -61 -52 -19 -2 -42 -7 -53 -11 -10 -5 -26 -4 -35 2 -21 13 -26 70
-9 91 8 10 20 30 28 46 20 40 89 112 125 130 34 18 42 19 49 8z m724 -4 c7 -7
12 -8 13 -2 0 5 8 -20 18 -56 17 -63 17 -66 -2 -110 -21 -48 -53 -81 -112
-118 -30 -18 -39 -20 -49 -9 -19 18 -28 66 -28 146 -1 76 19 130 55 147 30 16
90 17 105 2z m-344 -20 c24 -28 15 -112 -17 -161 -28 -43 -84 -87 -111 -87
-35 0 -69 24 -77 52 -6 22 0 39 31 85 50 75 81 110 111 122 36 14 43 13 63
-11z m1864 -32 c-5 -17 -11 -38 -13 -47 -6 -27 -35 -110 -44 -128 -5 -9 -21
-17 -36 -19 -39 -3 -133 -49 -194 -94 -38 -29 -52 -35 -46 -22 4 10 13 39 20
64 l12 45 45 -3 c57 -4 119 21 148 61 35 47 80 144 80 172 0 22 2 24 19 13 15
-9 17 -17 9 -42z m-2707 18 c-12 -15 -21 -34 -21 -42 0 -12 -3 -13 -11 -5 -14
14 15 73 37 73 13 0 12 -5 -5 -26z m2945 -49 c43 -103 -15 -220 -103 -208 -45
7 -68 54 -64 134 2 46 76 104 139 108 7 1 20 -15 28 -34z m91 13 c-3 -8 -6 -5
-6 6 -1 11 2 17 5 13 3 -3 4 -12 1 -19z m666 -11 c9 -24 -12 -109 -37 -152
-39 -65 -91 -105 -137 -103 -22 1 -39 2 -39 4 0 1 9 23 20 48 10 25 17 46 15
46 -5 0 28 49 69 103 42 55 98 83 109 54z m-1406 -102 c8 -38 19 -71 24 -73
17 -7 9 -45 -16 -78 -14 -18 -41 -38 -62 -44 -21 -7 -57 -23 -80 -35 l-43 -23
-20 25 c-15 19 -18 35 -14 62 3 20 6 42 6 49 1 6 5 12 10 12 4 0 8 5 8 11 0 5
12 34 26 62 30 61 87 109 123 105 22 -3 26 -11 38 -73z m1193 38 c-10 -21 -26
-54 -34 -73 l-17 -35 6 35 c5 30 48 110 59 110 3 0 -4 -17 -14 -37z m-3620 2
c0 -8 1 -18 2 -22 1 -5 5 -23 9 -42 13 -58 -34 -129 -123 -187 -45 -29 -46
-29 -76 -6 -23 18 -23 18 -6 63 21 53 131 188 165 202 23 9 29 8 29 -8z m694
-142 c31 -50 85 -75 146 -67 27 4 50 10 50 14 0 4 12 11 26 14 14 4 44 27 67
51 l42 45 29 -23 c16 -13 31 -32 32 -43 2 -10 8 -20 13 -22 6 -2 11 -8 11 -12
0 -5 -12 -2 -27 6 -37 19 -78 18 -136 -3 -53 -19 -135 -91 -161 -140 -24 -48
-43 -48 -49 -1 -13 96 -122 133 -247 81 -43 -17 -94 -64 -128 -118 -14 -22
-36 -51 -50 -65 -21 -22 -24 -31 -19 -77 l5 -52 -50 -10 c-69 -15 -142 -48
-169 -77 l-23 -25 -13 23 c-18 33 -16 38 16 38 47 0 127 45 141 80 7 16 18 30
25 30 9 0 68 110 80 150 1 3 4 12 8 20 11 29 14 109 3 120 -16 16 7 12 30 -5
29 -22 102 -18 159 8 48 23 153 124 156 150 1 7 5 -4 8 -23 3 -19 15 -49 25
-67z m759 19 c7 -8 -3 -6 -25 5 -34 17 -35 19 -20 42 l16 24 9 -29 c6 -16 14
-35 20 -42z m425 -10 l23 -15 -23 -20 c-13 -11 -33 -29 -45 -40 -21 -19 -21
-19 -36 10 -14 27 -14 30 11 60 15 17 32 28 37 25 6 -3 20 -12 33 -20z m-328
-64 c0 -5 -4 -8 -9 -8 -5 0 -11 -9 -14 -20 -3 -11 -10 -20 -15 -20 -6 0 -8 9
-5 21 3 12 2 24 -3 28 -20 14 -31 46 -20 57 8 8 18 3 38 -20 15 -17 28 -34 28
-38z m528 46 c31 -21 31 -106 0 -172 -28 -59 -117 -148 -157 -157 -68 -15
-104 33 -81 108 7 23 15 44 19 47 3 3 13 19 22 35 20 36 86 85 117 88 23 1 30
21 12 32 -17 10 -11 23 13 28 12 2 24 5 27 6 3 0 16 -6 28 -15z m1406 -73 c10
-16 -30 -61 -54 -61 -21 0 -70 -37 -70 -53 0 -7 -10 -23 -21 -37 -17 -21 -19
-22 -10 -3 6 12 11 40 11 62 0 48 8 71 25 71 14 0 60 43 85 79 15 22 15 22 21
-11 3 -19 9 -39 13 -47z m-379 24 c-22 -19 -49 -35 -60 -35 -14 0 -5 10 30 34
64 45 81 45 30 1z m-1697 -10 c40 -47 20 -118 -55 -194 -27 -27 -44 -35 -81
-38 -57 -5 -71 4 -78 48 -5 28 -1 41 20 65 23 28 24 33 10 52 -14 20 -12 22
27 43 23 11 51 29 61 39 27 25 67 18 96 -15z m1361 -22 c19 -83 19 -83 36 -83
8 0 15 -2 15 -4 0 -28 -101 -131 -157 -160 -57 -29 -142 -12 -144 27 -2 35 2
51 14 59 7 4 9 8 4 8 -4 0 0 11 8 24 13 19 14 29 6 45 -15 28 -17 25 41 68 42
30 125 69 159 72 3 1 12 -25 18 -56z m1301 2 c0 -81 -64 -182 -139 -219 -54
-26 -79 -24 -92 10 -19 51 -11 69 60 140 75 76 115 103 149 104 19 0 22 -5 22
-35z m-3830 0 c22 -27 -11 -169 -42 -183 -5 -2 -8 -9 -8 -16 0 -17 -95 -86
-129 -92 -55 -11 -106 37 -126 117 -5 20 1 34 28 66 46 55 87 93 102 93 7 0
26 7 41 15 38 20 118 20 134 0z m1475 7 c49 -36 -4 -152 -112 -242 -48 -41
-92 -44 -95 -7 -5 74 31 159 91 212 40 36 94 53 116 37z m1112 -24 c-3 -8 -6
-5 -6 6 -1 11 2 17 5 13 3 -3 4 -12 1 -19z m131 7 c15 -2 36 2 47 7 11 6 5 -3
-13 -18 -20 -18 -46 -60 -67 -109 -31 -73 -37 -80 -65 -83 -36 -4 -37 2 -5 40
25 30 55 114 55 155 0 15 4 22 11 18 5 -4 22 -8 37 -10z m-1873 -32 c14 -13
15 -28 10 -82 -10 -94 -61 -154 -157 -181 -22 -7 -35 -3 -68 21 -54 39 -68 75
-40 101 11 10 20 28 20 39 0 31 47 82 94 101 54 22 120 23 141 1z m2107 -13
c24 -28 58 -33 58 -9 0 5 8 9 18 9 9 0 13 -4 7 -8 -5 -4 -11 -20 -13 -37 -9
-83 -83 -160 -166 -171 -37 -5 -44 -3 -58 18 -29 43 -27 115 3 147 19 20 28
22 65 17 46 -6 54 2 29 28 -14 13 -13 16 2 25 25 15 26 14 55 -19z m-2558 -31
c34 -27 33 -53 -4 -92 -16 -18 -30 -35 -30 -39 0 -5 -19 -21 -42 -38 -33 -25
-51 -30 -95 -30 -30 0 -60 6 -67 13 -19 19 -1 68 45 121 53 60 67 67 160 85 4
0 18 -8 33 -20z m2925 -39 c9 0 21 8 28 19 10 16 39 25 108 34 25 3 28 -29 8
-87 -30 -90 -121 -156 -212 -156 -57 0 -65 5 -82 53 -12 35 -12 42 8 75 27 48
48 52 51 11 3 -38 9 -49 26 -49 20 0 30 81 14 114 -10 23 -9 29 3 36 11 7 16
2 23 -20 5 -17 16 -30 25 -30z m-1132 23 c-8 -10 -15 -20 -15 -23 1 -25 -39
-129 -56 -145 -27 -27 -100 -55 -116 -45 -18 11 -27 71 -17 113 9 35 12 37 48
37 22 0 39 5 39 10 0 6 6 10 13 10 6 0 32 14 57 30 50 33 71 39 47 13z m-262
-2 c3 -5 1 -12 -5 -16 -5 -3 -10 1 -10 9 0 18 6 21 15 7z m-2404 -21 c54 -30
-13 -177 -106 -232 -7 -5 -26 -1 -41 7 -16 8 -39 15 -51 15 -13 0 -23 3 -23 6
0 11 82 128 105 149 20 19 85 64 93 65 2 0 12 -5 23 -10z m985 -165 c13 -14
24 -27 24 -28 0 -2 -14 -4 -30 -5 -39 -3 -134 -45 -178 -78 -29 -22 -35 -24
-45 -11 -7 8 -22 21 -34 29 l-23 15 29 0 c62 0 118 35 173 107 l53 70 3 -36
c2 -21 13 -47 28 -63z m1014 65 c0 -25 -4 -30 -25 -30 -24 0 -24 0 -7 30 22
38 32 38 32 0z m-1871 -52 l18 -36 -44 -7 c-25 -4 -47 -5 -49 -2 -2 2 5 25 17
52 23 51 28 50 58 -7z m1526 19 c-8 -21 33 -71 67 -83 41 -13 47 -32 12 -36
-19 -2 -36 5 -57 25 -29 27 -35 28 -142 31 -52 2 -187 -47 -226 -81 -14 -12
-19 -11 -40 7 l-24 20 25 20 c46 38 90 83 90 92 0 9 41 -9 50 -22 3 -4 18 -11
35 -17 44 -14 123 4 165 37 34 28 53 31 45 7z m1880 -4 c-5 -10 -8 -21 -7 -24
1 -4 -12 -9 -29 -11 l-30 -5 32 34 c34 34 47 37 34 6z m478 -18 c17 -24 17
-25 0 -31 -10 -2 -45 -18 -78 -35 -33 -16 -63 -29 -67 -29 -15 0 -8 19 10 24
10 4 38 26 63 51 24 24 46 45 49 44 3 0 13 -11 23 -24z m-889 -17 c-14 -22 -4
-72 16 -88 19 -15 19 -16 -6 -55 -32 -49 -123 -106 -180 -112 -52 -7 -69 15
-73 87 -2 48 0 53 41 91 24 22 57 46 73 54 76 34 143 46 129 23z m57 -21 c-1
-4 -1 -16 -1 -28 0 -11 -4 -17 -10 -14 -14 8 -13 58 1 53 6 -2 10 -7 10 -11z
m-889 -27 c11 -19 22 -28 32 -24 15 6 19 -3 29 -70 3 -16 0 -45 -5 -64 -31
-110 -130 -135 -171 -42 -33 77 -14 165 46 208 41 29 49 28 69 -8z m-202 -1
c0 -5 -4 -9 -10 -9 -5 0 -10 7 -10 16 0 8 5 12 10 9 6 -3 10 -10 10 -16z
m2340 -4 c34 -31 -10 -158 -73 -212 -64 -55 -90 -55 -117 -3 -22 44 -19 110 6
131 8 6 14 16 14 22 0 12 48 56 75 67 32 14 77 11 95 -5z m-2438 -17 c5 -33
-11 -129 -26 -158 -53 -100 -73 -124 -120 -141 -36 -13 -38 -12 -57 11 -15 20
-19 42 -19 113 0 51 4 87 10 87 6 0 10 7 10 15 0 8 14 21 30 30 17 9 30 19 30
24 0 7 16 13 95 36 29 9 44 3 47 -17z m782 16 c40 -15 -2 -106 -75 -163 -34
-26 -124 -50 -167 -44 -24 4 -34 12 -39 31 -5 22 2 33 49 77 30 28 70 57 89
64 19 7 48 19 64 26 34 15 56 18 79 9z m726 -43 c0 -39 43 -37 54 1 4 18 7 19
20 8 22 -17 20 -56 -5 -107 -33 -68 -115 -112 -185 -99 -54 11 -90 87 -56 120
48 47 89 77 117 85 46 14 55 13 55 -8z m-2360 -17 c14 -7 35 -17 47 -23 28
-13 48 -48 35 -64 -5 -7 -13 -25 -16 -42 -7 -31 -51 -65 -84 -65 -9 0 -34 -6
-55 -14 -96 -33 -188 6 -205 87 -15 76 5 105 93 133 46 15 147 8 185 -12z
m2932 -19 c-5 -63 -51 -134 -119 -186 -52 -40 -67 -46 -112 -48 -52 -1 -81 13
-81 40 0 24 81 120 98 117 11 -2 18 5 20 19 3 21 49 64 97 91 11 7 38 11 60 9
l40 -2 -3 -40z m-3887 12 c43 -43 -15 -125 -129 -182 -97 -49 -167 -26 -190
60 -6 21 9 47 34 58 8 4 29 16 45 27 75 49 109 60 166 57 37 -2 63 -9 74 -20z
m3519 14 c3 -5 -3 -20 -14 -32 l-19 -24 2 32 c2 31 19 44 31 24z m-3090 -13
c44 -12 82 -41 91 -68 13 -40 -13 -70 -92 -107 -69 -33 -85 -37 -163 -37 -98
-1 -133 12 -156 57 -15 27 -14 30 22 70 43 48 86 77 114 77 10 0 22 5 25 10 8
14 108 13 159 -2z m1005 3 c12 -8 9 -21 -20 -78 -30 -61 -40 -71 -89 -95 -63
-32 -94 -34 -138 -12 -25 12 -32 22 -32 45 0 16 5 29 10 29 6 0 10 5 10 11 0
6 7 17 15 25 8 9 15 23 15 33 0 28 57 48 140 50 41 1 81 -3 89 -8z m831 -1 c0
-5 -4 -10 -10 -10 -5 0 -10 5 -10 10 0 6 5 10 10 10 6 0 10 -4 10 -10z m-2810
-18 c0 -4 -9 -25 -20 -47 -11 -22 -20 -48 -20 -59 0 -30 -10 -13 -14 25 -5 39
17 89 39 89 8 0 15 -4 15 -8z m4145 -41 c-3 -6 -11 -11 -17 -11 -6 0 -6 6 2
15 14 17 26 13 15 -4z m-4009 -16 c33 -10 -90 -115 -136 -115 -22 0 1 39 50
85 6 6 18 17 27 27 9 9 22 14 29 12 8 -2 21 -6 30 -9z m3961 -82 c-3 -10 -5
-4 -5 12 0 17 2 24 5 18 2 -7 2 -21 0 -30z"/>
</g>
</svg>
