<?xml version="1.0" standalone="no"?>
<!DOCTYPE svg PUBLIC "-//W3C//DTD SVG 20010904//EN"
 "http://www.w3.org/TR/2001/REC-SVG-20010904/DTD/svg10.dtd">
<svg version="1.0" xmlns="http://www.w3.org/2000/svg"
 width="461.000000pt" height="435.000000pt" viewBox="0 0 461.000000 435.000000"
 preserveAspectRatio="xMidYMid meet">
<metadata>
Created by potrace 1.16, written by Peter Selinger 2001-2019
</metadata>
<g transform="translate(0.000000,435.000000) scale(0.100000,-0.100000)"
fill="#000000" stroke="none">
<path d="M2435 4212 c-4 -4 -32 -7 -63 -8 -90 -1 -254 -15 -292 -24 -19 -4
-57 -11 -85 -15 -50 -7 -188 -43 -255 -66 -167 -58 -269 -103 -378 -168 -52
-31 -105 -62 -118 -69 -13 -7 -24 -16 -24 -20 0 -4 -16 -16 -35 -26 -19 -11
-35 -22 -35 -26 0 -4 -19 -20 -43 -35 -106 -71 -329 -312 -434 -472 -92 -139
-132 -204 -144 -230 -8 -18 -17 -33 -20 -33 -3 0 -12 -19 -19 -42 -7 -24 -28
-84 -46 -135 -19 -51 -34 -99 -34 -107 0 -8 -5 -16 -11 -18 -5 -2 -12 -12 -14
-23 -2 -11 -4 -20 -5 -20 -1 0 -3 -12 -5 -26 -2 -14 -8 -43 -13 -65 -6 -21
-14 -64 -17 -94 -4 -30 -8 -57 -10 -60 -2 -3 -6 -30 -9 -60 -10 -89 -17 -152
-21 -172 -10 -50 48 -96 108 -84 17 3 225 6 462 5 236 0 459 0 495 1 36 1 70
2 75 1 6 0 147 -3 315 -5 168 -3 385 -7 482 -9 172 -3 208 2 208 30 0 5 11 19
25 31 14 13 23 27 19 33 -11 18 -7 668 11 1591 4 213 9 289 24 313 9 15 10 35
2 35 -3 0 -11 13 -17 29 -11 28 -65 57 -79 43z m-1465 -722 c0 -5 -5 -10 -11
-10 -5 0 -7 5 -4 10 3 6 8 10 11 10 2 0 4 -4 4 -10z"/>
<path d="M2708 4169 c-12 -6 -18 -22 -18 -43 0 -42 26 -61 95 -69 85 -11 102
-14 165 -36 75 -26 92 -26 115 -1 31 34 5 65 -74 91 -36 11 -80 27 -97 35 -17
7 -42 16 -55 18 -13 3 -24 5 -24 6 0 8 -94 7 -107 -1z"/>
<path d="M3310 3982 c0 -7 -11 -17 -25 -22 -18 -7 -23 -15 -20 -32 8 -40 25
-63 58 -77 63 -25 136 -65 147 -80 11 -15 74 -39 89 -34 31 11 39 24 33 48 -7
25 -79 88 -92 80 -4 -3 -10 2 -14 10 -3 8 -12 15 -19 15 -8 0 -22 9 -31 19
-10 11 -39 30 -64 42 -26 12 -50 26 -54 33 -6 8 -8 7 -8 -2z"/>
<path d="M3767 3614 c-15 -8 -27 -23 -27 -32 0 -10 -5 -23 -12 -30 -9 -9 -9
-12 0 -12 7 0 12 -7 12 -15 0 -8 6 -15 13 -15 21 0 136 -118 150 -153 3 -9 11
-17 17 -17 5 0 10 -5 10 -11 0 -18 41 -49 65 -49 11 0 30 6 40 14 31 23 20 41
-142 224 -18 20 -33 43 -33 50 0 16 -17 35 -45 49 -15 8 -27 7 -48 -3z"/>
<path d="M4132 3050 c-13 -22 -14 -100 0 -100 14 0 70 -125 84 -188 16 -74 32
-93 82 -95 33 -2 37 1 40 25 2 14 -6 44 -16 65 -11 21 -25 65 -32 98 -7 33
-22 76 -33 95 -12 19 -21 37 -21 40 3 13 -16 47 -35 63 -28 23 -53 22 -69 -3z"/>
<path d="M4332 2478 c-7 -7 -12 -16 -12 -21 0 -6 -8 -15 -17 -22 -16 -12 -16
-17 -3 -62 14 -49 19 -178 10 -314 -5 -87 5 -109 50 -109 31 0 51 19 51 47 -1
10 -1 27 -1 38 -1 11 -1 89 0 173 0 84 -2 157 -5 162 -3 5 -1 19 5 30 8 14 8
20 0 20 -6 0 -9 3 -7 8 2 4 -10 19 -28 34 -24 21 -35 24 -43 16z"/>
<path d="M334 1928 c-12 -19 -5 -95 17 -198 11 -52 23 -111 27 -130 6 -29 12
-35 42 -41 41 -9 56 1 65 42 5 21 2 36 -8 47 -18 21 -37 103 -52 222 -3 30
-12 58 -18 62 -19 12 -65 9 -73 -4z"/>
<path d="M4293 1761 c-17 -11 -33 -48 -33 -78 0 -15 -16 -71 -35 -123 -42
-114 -43 -137 -11 -151 28 -13 75 -5 81 14 2 7 15 54 29 105 15 52 34 111 44
133 10 21 16 53 14 71 -3 30 -7 33 -42 34 -20 1 -42 -1 -47 -5z"/>
<path d="M518 1300 l-23 -18 35 -78 c18 -44 37 -81 40 -84 4 -3 17 -26 29 -52
20 -43 26 -48 54 -48 43 1 65 19 60 50 -2 14 -5 37 -6 53 -1 18 -8 27 -18 27
-11 0 -31 28 -55 77 -44 87 -75 107 -116 73z"/>
<path d="M4061 1174 c-11 -14 -23 -35 -27 -47 -6 -21 -44 -77 -71 -105 -6 -6
-14 -21 -18 -32 -3 -10 -20 -33 -36 -51 -35 -38 -37 -87 -5 -105 34 -20 68 1
106 67 19 34 43 71 53 82 9 11 17 26 17 33 0 17 39 58 64 67 11 4 16 13 12 22
-3 8 -1 15 5 15 14 0 -1 53 -19 68 -25 20 -59 14 -81 -14z"/>
<path d="M817 837 c-9 -12 -17 -28 -17 -37 0 -20 175 -199 214 -220 26 -14 29
-13 47 9 19 23 25 67 11 87 -4 6 -20 18 -37 27 -16 9 -50 39 -75 68 -61 71
-70 79 -83 80 -7 0 -19 2 -28 4 -8 1 -23 -7 -32 -18z"/>
<path d="M3735 711 c-3 -5 -18 -12 -33 -16 -31 -7 -72 -38 -72 -54 0 -6 -4
-11 -8 -11 -5 0 -31 -19 -58 -42 -28 -24 -85 -63 -127 -88 -80 -48 -117 -91
-98 -114 6 -7 8 -16 4 -19 -3 -4 -1 -8 5 -8 26 -3 31 -4 37 -11 4 -4 14 -4 23
-1 29 12 232 167 288 221 7 6 17 12 23 12 6 0 23 19 38 43 14 23 33 47 40 52
22 17 5 45 -27 45 -16 0 -31 -4 -35 -9z"/>
<path d="M1252 460 c-6 -11 -12 -26 -12 -33 0 -20 39 -53 90 -77 52 -24 153
-80 160 -89 9 -11 55 -6 69 7 21 20 18 70 -5 86 -10 8 -34 17 -51 21 -18 3
-33 9 -33 13 0 4 -17 15 -37 25 -21 9 -57 28 -81 42 -51 30 -83 32 -100 5z"/>
<path d="M3015 286 c-60 -29 -147 -53 -294 -82 -65 -12 -82 -62 -35 -99 l26
-21 86 22 c127 31 331 102 351 122 25 24 22 77 -4 78 -11 1 -29 4 -40 7 -13 4
-46 -6 -90 -27z"/>
<path d="M1831 216 c-7 -8 -11 -27 -9 -43 3 -32 32 -50 94 -58 21 -3 55 -8 74
-12 19 -3 43 -5 53 -4 10 1 67 -5 127 -14 87 -14 115 -15 144 -5 32 10 35 14
30 37 -4 14 -14 33 -24 43 -18 18 -63 21 -80 4 -7 -7 -34 -5 -88 7 -154 34
-278 59 -293 59 -9 0 -22 -6 -28 -14z"/>
</g>
</svg>
