<?xml version="1.0" standalone="no"?>
<!DOCTYPE svg PUBLIC "-//W3C//DTD SVG 20010904//EN"
 "http://www.w3.org/TR/2001/REC-SVG-20010904/DTD/svg10.dtd">
<svg version="1.0" xmlns="http://www.w3.org/2000/svg"
 width="439.000000pt" height="443.000000pt" viewBox="0 0 439.000000 443.000000"
 preserveAspectRatio="xMidYMid meet">
<metadata>
Created by potrace 1.16, written by Peter Selinger 2001-2019
</metadata>
<g transform="translate(0.000000,443.000000) scale(0.100000,-0.100000)"
fill="#000000" stroke="none">
<path d="M1835 4233 c-211 -31 -453 -105 -628 -193 -123 -62 -240 -130 -245
-142 -2 -5 -9 -8 -16 -8 -7 0 -25 -11 -40 -25 -15 -14 -30 -25 -35 -25 -7 0
-138 -116 -234 -208 -63 -60 -230 -270 -287 -362 -49 -77 -150 -277 -150 -297
0 -4 -14 -35 -30 -68 -17 -33 -30 -68 -30 -78 0 -10 -13 -52 -29 -95 -24 -65
-33 -91 -46 -142 -30 -120 -44 -285 -40 -465 5 -193 12 -277 32 -370 8 -38 18
-86 22 -105 4 -19 12 -44 18 -55 5 -11 16 -42 22 -70 12 -46 47 -146 73 -205
7 -14 12 -27 13 -30 3 -16 77 -155 94 -177 12 -14 21 -30 21 -36 0 -6 11 -24
23 -41 13 -17 41 -56 62 -86 21 -30 41 -57 44 -60 4 -3 36 -43 73 -90 107
-137 303 -310 479 -422 47 -29 93 -59 104 -66 11 -6 27 -15 35 -18 8 -4 49
-22 90 -41 41 -19 98 -44 125 -54 28 -11 59 -24 70 -29 22 -10 162 -49 265
-74 75 -18 359 -47 452 -45 130 2 345 30 458 60 63 17 126 33 140 35 27 6 39
11 112 43 26 12 52 21 58 21 6 0 18 4 28 9 9 5 51 26 92 47 126 63 204 111
315 196 28 21 63 49 80 61 36 27 209 199 249 247 15 19 42 54 59 79 16 24 38
52 49 63 10 10 18 25 18 33 0 8 4 15 8 15 5 0 15 12 23 27 7 16 28 51 45 79
17 28 35 61 39 75 4 13 17 38 29 54 12 17 34 59 50 95 15 36 34 79 42 95 19
42 51 143 65 201 61 267 70 341 69 609 0 246 -57 539 -143 735 -8 19 -30 69
-47 110 -18 41 -50 101 -71 132 -22 32 -39 62 -39 68 0 5 -4 10 -9 10 -5 0
-17 17 -26 37 -26 54 -196 265 -263 326 -7 7 -27 27 -45 46 -48 51 -51 53 -96
91 -23 19 -52 43 -64 53 -45 38 -287 185 -377 230 -107 52 -293 121 -311 115
-7 -2 -21 4 -31 14 -10 10 -28 18 -41 18 -12 0 -47 7 -77 15 -30 8 -77 17
-105 19 -27 2 -86 10 -130 16 -113 17 -354 18 -460 3z m480 -187 c165 -23 324
-64 475 -124 117 -46 252 -113 281 -138 8 -8 19 -14 22 -14 14 0 204 -142 262
-196 33 -31 65 -59 70 -62 15 -10 126 -132 160 -176 17 -21 38 -47 48 -57 9
-11 17 -22 17 -26 0 -3 17 -29 39 -57 95 -125 244 -470 266 -616 4 -25 11 -52
15 -60 5 -9 11 -43 15 -75 3 -33 10 -96 16 -140 19 -168 3 -423 -40 -606 -46
-195 -138 -423 -223 -551 -21 -31 -38 -59 -38 -61 0 -11 -74 -116 -118 -167
-83 -97 -235 -249 -244 -244 -4 3 -8 1 -8 -4 0 -13 -117 -104 -214 -167 -162
-104 -325 -175 -516 -224 -153 -39 -267 -54 -430 -54 -179 -1 -305 13 -485 53
-135 29 -377 125 -486 191 -44 27 -84 49 -88 49 -7 0 -21 10 -105 73 -170 126
-389 357 -486 512 -24 39 -53 86 -66 105 -12 19 -38 69 -57 110 -107 230 -131
302 -179 535 -30 146 -32 488 -5 630 18 91 74 297 88 325 4 8 15 37 25 64 31
88 118 248 199 366 116 168 309 358 480 471 72 48 164 105 207 127 148 78 357
152 503 177 44 7 96 16 115 20 19 3 69 8 110 12 41 3 77 7 80 10 4 4 254 -5
295 -11z"/>
<path d="M2795 3640 c-16 -10 -50 -22 -74 -26 -50 -8 -81 -30 -81 -57 0 -14 5
-18 20 -14 32 8 32 -8 0 -69 -41 -79 -43 -171 -5 -227 15 -21 37 -40 53 -43
15 -4 30 -11 33 -16 3 -5 39 -10 80 -11 98 -1 168 26 243 96 31 29 56 59 56
68 0 9 7 22 15 29 13 11 13 49 -2 90 -3 8 -6 25 -7 37 -2 26 -72 94 -129 124
-20 10 -58 21 -85 24 -26 2 -56 7 -67 10 -11 3 -33 -3 -50 -15z m109 -106 c-2
-20 -11 -45 -20 -55 -10 -11 -14 -19 -10 -19 3 0 -11 -33 -32 -72 -21 -40 -43
-87 -49 -105 -11 -29 -13 -31 -36 -20 l-24 11 25 46 c14 25 33 60 43 78 9 18
22 39 28 46 6 7 8 16 4 19 -3 4 -1 7 5 7 16 0 44 56 42 83 -3 35 -1 40 13 28
8 -6 12 -26 11 -47z m-80 9 c-7 -33 -59 -151 -91 -208 -19 -34 -23 -37 -29
-20 -14 36 12 144 48 195 18 26 36 46 40 44 4 -2 9 0 13 6 13 21 25 9 19 -17z
m151 8 c-3 -5 -1 -12 4 -15 11 -7 -2 -71 -19 -91 -7 -8 -10 -15 -7 -15 3 0
-10 -28 -30 -62 -19 -35 -39 -73 -44 -85 -6 -16 -17 -23 -34 -23 l-25 0 21 53
c11 28 27 59 35 68 8 9 14 20 12 25 -1 5 12 31 30 58 18 28 32 55 32 61 0 6 5
16 12 23 14 14 21 16 13 3z m88 -105 c13 -38 13 -48 1 -71 -16 -30 -53 -64
-71 -65 -7 0 -13 -4 -13 -8 0 -4 -21 -16 -47 -25 -29 -11 -43 -13 -35 -5 6 6
12 20 12 30 0 10 9 23 20 30 11 7 20 18 20 25 0 7 5 13 11 13 6 0 9 9 6 19 -3
13 0 18 8 15 7 -3 18 9 25 28 28 71 43 74 63 14z"/>
<path d="M2125 3500 c-95 -71 -125 -104 -152 -173 -15 -37 -30 -70 -35 -73
-16 -10 -8 -82 15 -123 22 -41 87 -95 87 -71 0 7 7 5 17 -5 9 -10 26 -15 40
-12 12 2 23 1 23 -2 0 -9 158 -3 174 6 39 24 109 101 111 123 0 3 4 11 9 19
19 30 39 151 25 151 -4 0 -6 6 -3 13 6 17 -49 102 -81 123 -15 9 -52 21 -83
26 -31 5 -61 13 -66 19 -17 16 -39 10 -81 -21z m58 -91 c-8 -16 -17 -28 -20
-25 -2 2 0 13 6 24 6 11 7 22 4 26 -3 3 1 6 10 6 14 0 14 -3 0 -31z m62 -26
c-15 -49 -22 -60 -31 -50 -11 11 19 105 32 100 10 -4 10 -14 -1 -50z m-140
-25 c-6 -24 -16 -54 -22 -68 -6 -14 -19 -44 -28 -67 -22 -52 -42 -62 -50 -23
-4 20 1 42 19 77 14 26 26 54 26 60 0 7 5 13 10 13 6 0 10 7 10 15 0 12 25 34
41 35 3 0 1 -19 -6 -42z m171 -62 c-14 -29 -26 -59 -26 -65 0 -7 -8 -25 -19
-39 -10 -15 -21 -39 -25 -54 -4 -19 -13 -28 -26 -28 -11 0 -20 2 -20 4 0 39
133 281 138 252 2 -9 -8 -41 -22 -70z m-112 52 c-16 -53 -77 -194 -89 -207 -7
-7 -18 -10 -23 -7 -11 7 97 235 111 236 5 0 5 -10 1 -22z m206 -16 c14 -23 14
-33 2 -74 -15 -54 -75 -123 -116 -134 l-26 -6 23 50 c13 28 28 57 34 64 5 7
20 39 33 71 12 31 25 57 29 57 3 0 13 -12 21 -28z m-158 -29 c-9 -21 -85 -176
-88 -182 -2 -1 -8 0 -14 4 -8 5 -8 12 2 23 8 10 27 46 43 82 16 36 33 71 38
78 14 18 27 15 19 -5z"/>
<path d="M1300 3410 c-14 -4 -41 -15 -60 -26 -19 -10 -38 -17 -43 -16 -9 3
-120 -53 -158 -79 -14 -10 -29 -16 -31 -13 -3 3 -23 -19 -44 -48 -32 -45 -39
-63 -42 -114 -5 -67 8 -102 52 -143 14 -14 26 -33 26 -43 0 -20 16 -25 23 -5
3 8 22 3 67 -18 52 -25 75 -30 137 -30 69 0 76 2 101 30 15 17 45 43 67 59 22
17 44 36 48 43 5 8 22 29 39 48 30 32 88 169 88 206 0 56 -75 122 -159 140
-73 15 -85 16 -111 9z m6 -108 c-3 -15 -8 -38 -12 -52 -10 -36 -106 -242 -125
-271 -26 -38 -35 -13 -11 30 12 21 19 41 15 45 -3 3 -1 6 5 6 10 0 21 21 23
45 0 6 8 18 16 28 9 9 13 17 8 17 -4 0 -2 7 5 15 7 9 10 18 7 21 -3 4 0 13 8
21 18 18 19 24 1 48 -22 30 -42 12 -45 -39 -1 -28 -18 -85 -42 -141 l-41 -93
-31 13 c-24 10 -32 20 -32 39 -1 14 1 23 4 21 6 -6 61 104 61 121 0 8 4 14 8
14 11 0 32 46 32 69 0 10 6 24 14 30 20 16 119 50 129 44 4 -2 6 -17 3 -31z
m64 11 c-5 -16 -15 -50 -23 -78 -8 -27 -27 -83 -41 -124 -31 -85 -29 -116 3
-51 13 25 36 70 51 100 16 30 35 76 41 103 7 26 18 47 24 47 6 0 23 -12 37
-27 30 -32 32 -91 5 -121 -10 -10 -17 -23 -17 -28 0 -5 -41 -49 -90 -97 -83
-79 -94 -87 -130 -87 -22 0 -40 2 -40 5 0 3 33 71 74 153 41 81 80 166 87 190
7 23 16 42 20 42 4 0 3 -12 -1 -27z m-285 -73 c-3 -5 -2 -17 3 -27 7 -11 1
-37 -19 -86 -16 -38 -29 -76 -29 -83 0 -17 -16 -18 -26 -2 -4 7 -11 33 -15 58
-8 51 11 94 59 129 31 23 36 25 27 11z"/>
<path d="M3416 2984 c-28 -13 -54 -24 -59 -24 -19 0 -103 -86 -131 -134 -17
-29 -30 -69 -33 -100 -3 -28 -5 -53 -6 -56 -4 -30 39 -104 55 -94 4 3 8 0 8
-6 0 -6 29 -25 65 -41 57 -27 71 -30 120 -24 37 5 55 12 55 21 0 8 3 13 8 13
20 -3 32 2 26 13 -4 7 -3 8 4 4 12 -7 62 35 62 52 0 5 7 15 15 22 9 7 13 15
10 18 -2 3 2 10 10 16 9 6 17 21 20 34 2 13 10 36 18 51 7 15 12 36 11 47 -2
10 -5 41 -7 67 -4 41 -11 55 -44 89 -62 61 -128 72 -207 32z m108 -91 c-8 -38
-84 -264 -95 -285 -9 -16 -59 -26 -59 -12 0 3 15 33 33 67 19 34 40 82 47 107
7 25 18 59 25 75 7 17 16 40 20 53 10 34 37 29 29 -5z m-78 -5 c-10 -81 -96
-291 -110 -269 -11 18 0 55 45 149 21 46 39 93 39 106 0 12 3 26 7 29 13 14
22 7 19 -15z m-122 -155 c-21 -51 -41 -93 -46 -93 -12 0 -19 41 -15 82 4 39
29 87 68 130 l24 27 3 -26 c2 -15 -13 -69 -34 -120z m256 124 c0 -6 -5 -28
-11 -47 -5 -19 -12 -42 -14 -50 -13 -56 -40 -118 -60 -137 -13 -13 -26 -23
-29 -23 -4 0 26 82 82 227 16 42 32 56 32 30z"/>
<path d="M2756 2652 c-4 -7 -18 -12 -31 -12 -38 0 -102 -38 -135 -80 -16 -21
-30 -41 -30 -44 0 -4 -11 -23 -25 -43 -13 -20 -22 -40 -19 -45 3 -4 1 -8 -4
-8 -13 0 -55 -108 -46 -121 4 -8 3 -9 -4 -5 -7 4 -12 1 -12 -6 0 -7 -16 -31
-35 -53 -19 -22 -43 -49 -52 -61 -10 -11 -19 -40 -21 -65 -3 -39 1 -49 28 -78
56 -58 129 -80 225 -68 57 8 72 18 156 106 101 107 144 161 143 178 -1 7 2 11
6 8 4 -2 19 18 34 45 23 43 26 58 24 123 -4 83 -40 176 -69 177 -9 0 -23 8
-33 19 -11 12 -25 16 -42 13 -17 -3 -29 1 -38 13 -9 13 -15 15 -20 7z m17
-107 c12 -5 12 -16 -3 -78 -10 -40 -29 -98 -44 -129 -14 -31 -26 -62 -26 -68
0 -6 -9 -28 -20 -50 -24 -47 -26 -80 -5 -80 19 0 26 16 28 63 1 19 5 33 10 30
4 -2 7 1 7 7 0 12 6 26 59 144 17 37 31 74 31 81 0 7 9 23 20 36 17 21 19 22
20 6 0 -23 -24 -103 -56 -184 -13 -35 -27 -81 -30 -103 -5 -30 -18 -52 -53
-86 -71 -71 -88 -80 -173 -91 -66 -9 -70 2 -35 92 17 44 33 82 36 85 3 3 21
41 40 85 61 144 89 203 100 209 20 13 16 -3 -41 -179 -11 -33 -35 -91 -53
-130 -42 -91 -55 -134 -45 -140 9 -5 50 68 50 88 0 5 16 46 36 91 82 183 104
237 104 253 0 15 18 53 25 53 2 0 10 -2 18 -5z m-188 -147 c-4 -18 -20 -59
-36 -90 -16 -31 -40 -85 -53 -120 -49 -129 -44 -121 -61 -104 -23 23 -18 49
18 92 18 21 41 57 49 79 32 79 77 175 83 175 4 0 3 -15 0 -32z m307 10 c5 -29
-8 -61 -46 -118 -17 -25 -30 -48 -29 -52 1 -3 -4 -9 -12 -12 -17 -6 -18 -2 -5
22 12 22 34 75 55 135 19 51 32 60 37 25z"/>
<path d="M1825 2621 c-40 -10 -122 -56 -163 -92 -18 -16 -37 -29 -41 -29 -12
0 -69 -92 -73 -117 -2 -10 -7 -21 -11 -24 -5 -3 -11 -25 -14 -48 -8 -57 19
-123 65 -159 47 -37 62 -42 143 -49 126 -10 250 35 308 112 17 22 31 45 31 50
0 6 13 38 29 73 32 72 30 128 -8 163 -11 11 -21 23 -21 27 0 13 -67 53 -106
63 -22 6 -53 17 -71 25 -17 8 -33 14 -35 13 -1 -1 -16 -4 -33 -8z m124 -158
c-6 -20 -23 -62 -37 -93 -13 -30 -33 -82 -44 -115 -22 -64 -30 -75 -65 -75
-29 0 -30 21 -4 75 18 36 32 70 35 85 1 3 9 17 19 33 44 70 48 80 44 98 -3 10
-2 17 2 14 5 -2 13 7 20 21 10 23 13 24 27 10 13 -14 14 -22 3 -53z m-145 25
c-3 -13 -22 -53 -40 -89 -18 -37 -30 -69 -27 -73 4 -3 1 -6 -5 -6 -7 0 -11 -3
-10 -7 2 -5 -12 -34 -30 -67 -22 -38 -37 -55 -43 -49 -10 10 -2 63 10 63 3 0
12 15 20 33 8 17 22 44 33 59 10 14 18 33 18 42 0 9 5 16 10 16 6 0 10 6 10
14 0 8 7 22 16 31 9 8 14 22 11 29 -7 17 1 26 20 26 10 0 12 -7 7 -22z m59 7
c-3 -9 -8 -14 -10 -11 -3 3 -2 9 2 15 9 16 15 13 8 -4z m-139 -23 c2 -4 -11
-39 -30 -77 -18 -39 -43 -91 -54 -117 -11 -27 -25 -48 -29 -48 -18 0 -21 56
-6 113 22 85 96 166 119 129z m332 -59 c13 -52 -63 -159 -135 -189 l-33 -14 7
28 c7 30 91 209 109 231 8 11 13 9 28 -9 10 -12 21 -33 24 -47z m-214 35 c-3
-13 -26 -75 -52 -138 -37 -93 -50 -116 -68 -118 -12 -2 -22 0 -22 5 -1 14 74
156 92 177 10 10 15 23 12 28 -3 4 -1 8 4 8 6 0 15 14 21 30 12 35 22 40 13 8z"/>
<path d="M906 2209 c-43 -16 -108 -48 -145 -72 -36 -23 -78 -48 -94 -55 -54
-23 -67 -131 -26 -218 13 -27 22 -56 21 -64 -4 -28 125 -69 221 -70 97 0 187
58 266 174 18 25 35 62 38 81 3 19 9 35 13 35 17 0 21 70 6 99 -19 36 -74 71
-113 71 -24 0 -29 4 -29 23 1 19 -4 22 -39 24 -24 1 -72 -11 -119 -28z m27
-111 c-6 -7 -18 -38 -28 -68 -10 -30 -25 -68 -33 -85 -9 -16 -17 -36 -18 -43
-6 -32 -36 -82 -50 -82 -26 0 -14 41 52 176 24 50 44 95 44 101 0 5 5 14 12
21 16 16 35 -2 21 -20z m87 -4 c-6 -14 -10 -38 -10 -54 0 -16 -4 -32 -10 -35
-5 -3 -10 -14 -10 -24 0 -15 -10 -39 -63 -148 -8 -17 -19 -23 -43 -23 -29 0
-32 3 -28 25 2 13 15 41 29 61 14 20 22 40 19 45 -3 5 -1 9 5 9 5 0 15 17 22
38 6 20 16 42 21 49 5 7 7 17 3 23 -3 5 -2 10 4 10 6 0 13 11 17 25 4 18 13
25 30 25 21 0 23 -3 14 -26z m98 0 c25 -17 27 -30 10 -88 -15 -52 -168 -208
-168 -172 0 3 13 31 29 63 31 60 59 124 81 181 14 37 17 38 48 16z m-274 -26
c-6 -22 -45 -120 -64 -163 -4 -11 -11 -33 -15 -49 -6 -27 -7 -28 -25 -11 -28
25 -25 51 15 125 19 36 39 77 46 93 14 35 54 39 43 5z m-113 -68 c-9 -27 -22
-55 -29 -62 -22 -22 -14 56 9 86 31 39 38 31 20 -24z"/>
<path d="M3570 2045 c-14 -8 -35 -14 -48 -15 -12 0 -30 -4 -40 -9 -36 -19
-177 -86 -184 -87 -5 -1 -19 -2 -32 -3 -34 -2 -60 -33 -115 -136 -42 -79 -48
-97 -46 -147 1 -48 6 -65 34 -102 27 -35 40 -45 65 -45 100 -4 189 -10 193
-15 5 -5 69 20 87 35 127 104 168 146 211 221 68 115 81 181 45 240 -35 61
-119 92 -170 63z m-21 -127 c-4 -29 -12 -66 -19 -83 -7 -16 -16 -39 -21 -50
-55 -135 -69 -182 -48 -170 6 4 5 -2 -3 -14 -14 -23 -74 -31 -65 -8 3 6 13 32
23 57 10 25 21 47 24 50 4 3 13 23 20 45 58 185 74 221 96 225 0 0 -3 -24 -7
-52z m82 40 c2 -27 -3 -64 -13 -81 -5 -10 -11 -27 -13 -39 -14 -71 -51 -160
-76 -184 -23 -22 -29 -24 -29 -11 0 21 46 155 59 171 4 6 14 29 21 51 7 22 16
44 21 50 5 5 9 19 9 32 0 24 19 33 21 11z m-156 -30 c-16 -50 -47 -157 -51
-178 -3 -14 -17 -52 -30 -85 -14 -33 -28 -68 -31 -77 -6 -21 -63 -25 -63 -5 0
7 16 46 36 86 20 41 37 79 39 85 1 6 8 25 15 41 22 51 39 115 32 115 -9 1 40
29 50 30 4 0 6 -6 3 -12z m190 -84 c-17 -57 -31 -81 -41 -71 -4 3 -2 12 3 19
6 7 16 31 23 53 15 46 20 58 26 52 2 -2 -3 -26 -11 -53z m-298 9 c-2 -21 -16
-65 -30 -98 -14 -33 -35 -86 -48 -117 -24 -60 -26 -63 -47 -50 -9 7 -9 18 4
55 9 26 20 47 24 47 5 0 12 10 16 22 4 13 20 51 35 85 16 33 29 68 29 77 0 9
5 16 11 16 7 0 9 -14 6 -37z m-96 -74 c-13 -39 -31 -88 -42 -108 -10 -19 -19
-41 -19 -48 0 -16 -16 -17 -26 -1 -23 36 10 136 66 198 16 18 27 38 23 44 -4
7 -1 7 7 -1 10 -9 8 -26 -9 -84z"/>
<path d="M1725 1728 c-11 -6 -43 -33 -72 -59 -28 -27 -56 -49 -61 -49 -12 0
-132 -115 -132 -127 0 -5 -13 -24 -29 -42 -27 -30 -29 -38 -30 -122 -1 -90 -1
-91 31 -123 42 -42 144 -82 164 -65 8 7 12 20 9 30 -3 9 -1 20 4 24 7 3 8 0 5
-9 -9 -24 8 -19 39 9 15 14 27 22 27 18 0 -4 4 -3 8 2 9 13 42 34 65 41 9 4
17 10 17 16 0 14 30 41 80 72 123 77 170 195 121 303 -26 55 -60 76 -130 79
-31 1 -65 4 -76 7 -12 3 -30 0 -40 -5z m64 -125 c-6 -21 -11 -38 -9 -38 2 0
-7 -19 -19 -42 -11 -23 -21 -48 -21 -55 0 -7 -14 -42 -32 -78 -17 -36 -31 -69
-30 -73 3 -11 -50 -56 -65 -57 -8 0 0 30 22 81 19 45 32 86 29 90 -3 5 -1 9 5
9 5 0 17 21 26 48 10 26 26 66 36 89 11 24 19 47 19 52 0 15 34 31 44 21 4 -4
3 -25 -5 -47z m65 -38 c-7 -22 -19 -57 -28 -77 -9 -21 -16 -45 -16 -55 0 -10
-19 -31 -41 -47 -41 -29 -41 -29 -34 -5 4 13 13 33 19 44 24 39 58 134 52 144
-4 5 -1 13 6 18 7 4 20 21 28 37 l15 28 5 -23 c4 -13 1 -42 -6 -64z m-158 7
c-8 -20 -17 -46 -22 -57 -4 -11 -8 -26 -10 -33 -1 -6 -11 -31 -22 -55 -49
-107 -71 -168 -65 -183 5 -14 2 -16 -23 -10 -39 10 -48 20 -36 42 6 11 23 57
37 104 26 84 74 192 87 198 3 2 16 12 28 22 31 27 42 16 26 -28z m220 -37 c-8
-42 -58 -97 -73 -81 -5 4 30 76 50 103 14 19 28 5 23 -22z m-369 -77 c-2 -7
-17 -51 -33 -97 -19 -57 -30 -77 -34 -65 -12 33 1 93 27 134 25 37 51 55 40
28z"/>
<path d="M2543 1323 c-46 -42 -106 -126 -129 -184 -28 -68 -27 -111 5 -181 23
-51 114 -153 150 -167 25 -11 35 -9 82 15 73 37 152 93 186 135 15 19 32 36
36 38 39 17 122 149 114 182 -3 10 -1 19 4 19 19 0 9 70 -12 88 -12 9 -31 26
-43 37 -23 22 -36 25 -148 32 -48 3 -78 1 -78 -5 0 -6 -15 -10 -32 -11 -18 0
-43 -2 -56 -5 -15 -3 -25 0 -29 9 -7 20 -27 19 -50 -2z m41 -80 c-8 -40 -24
-84 -39 -113 -7 -14 -18 -43 -24 -65 -23 -83 -48 -86 -52 -5 -2 46 24 120 43
120 6 0 7 7 4 16 -3 8 -2 12 4 9 5 -3 14 4 21 17 28 51 53 63 43 21z m150 9
c3 -5 -1 -20 -8 -33 -7 -14 -16 -39 -20 -55 -8 -32 -71 -199 -86 -226 -13 -23
-13 -48 0 -48 6 0 19 19 29 43 10 23 28 65 40 92 12 28 28 64 36 80 7 17 22
51 34 77 12 26 21 52 21 57 0 6 4 11 9 11 20 0 -18 -156 -54 -219 -14 -23 -25
-49 -25 -57 0 -17 26 -18 37 -1 19 30 75 166 87 212 16 61 42 77 32 19 -4 -22
-14 -58 -22 -82 -8 -23 -14 -60 -14 -81 0 -31 -5 -40 -25 -49 -14 -7 -31 -16
-38 -22 -33 -27 -115 -78 -143 -87 -65 -22 -74 17 -26 119 11 24 26 61 35 83
28 74 79 175 87 175 5 0 11 -4 14 -8z m-94 -34 c-17 -78 -97 -278 -111 -278
-24 0 -18 46 15 114 20 41 36 79 36 85 0 6 4 11 9 11 5 0 13 10 16 23 21 72
51 110 35 45z m290 -45 c0 -18 -31 -73 -42 -73 -4 0 -6 9 -5 20 1 11 5 20 9
20 4 0 8 3 7 8 -1 4 2 17 6 29 8 24 25 22 25 -4z"/>
<path d="M1820 869 c-66 -7 -78 -10 -140 -28 -19 -6 -47 -11 -61 -11 -15 0
-38 -9 -52 -20 -14 -11 -34 -20 -46 -20 -34 0 -51 -46 -42 -115 14 -118 70
-185 176 -212 77 -20 144 -29 162 -22 21 7 69 5 125 -7 19 -4 37 1 57 15 16
12 36 21 43 21 8 0 32 15 53 33 38 33 63 96 70 172 2 33 -28 87 -69 122 -14
13 -26 26 -26 31 0 11 -53 29 -124 41 -33 6 -60 10 -60 10 -1 -1 -30 -5 -66
-10z m180 -57 c0 -15 -2 -15 -10 -2 -13 20 -13 33 0 25 6 -3 10 -14 10 -23z
m-114 -74 c-9 -24 -28 -63 -41 -88 -14 -25 -30 -57 -37 -72 -7 -16 -16 -28
-20 -28 -4 0 -8 -7 -8 -16 0 -12 -6 -15 -22 -10 -13 3 -39 9 -59 12 l-35 6 61
121 c34 68 68 123 77 125 14 3 15 -3 7 -35 -5 -21 -11 -45 -14 -55 -5 -23 -34
-78 -58 -110 -19 -26 -17 -48 6 -48 13 1 27 28 85 160 20 47 41 88 47 92 22
16 28 -12 11 -54z m89 10 c-4 -23 -11 -49 -16 -58 -4 -8 -20 -42 -34 -75 -37
-87 -39 -90 -72 -93 -28 -3 -30 -1 -25 25 5 25 24 63 60 118 7 11 24 44 38 73
32 66 59 72 49 10z m-257 -16 c-5 -20 -23 -65 -39 -99 -16 -34 -29 -67 -29
-73 0 -7 -6 -8 -19 0 -14 7 -19 19 -18 45 1 19 5 35 9 35 3 0 12 17 19 38 21
66 36 87 62 90 24 2 25 0 15 -36z m-109 -43 c-6 -30 -16 -63 -22 -74 -10 -19
-10 -19 -17 0 -4 11 -11 39 -15 63 -7 41 -6 43 27 56 18 8 34 13 36 12 1 -2
-3 -27 -9 -57z m438 45 c3 -8 1 -25 -5 -37 -32 -63 -62 -149 -56 -159 4 -7 3
-8 -4 -4 -7 4 -12 4 -12 -1 0 -4 -13 -9 -29 -10 l-29 -2 37 72 c20 40 39 74
42 77 3 3 12 22 18 43 13 39 28 47 38 21z m53 -83 c0 -18 -41 -101 -51 -101
-4 0 -14 -2 -21 -5 -9 -4 0 23 21 68 33 67 50 81 51 38z"/>
</g>
</svg>
