<?xml version="1.0" standalone="no"?>
<!DOCTYPE svg PUBLIC "-//W3C//DTD SVG 20010904//EN"
 "http://www.w3.org/TR/2001/REC-SVG-20010904/DTD/svg10.dtd">
<svg version="1.0" xmlns="http://www.w3.org/2000/svg"
 width="453.000000pt" height="437.000000pt" viewBox="0 0 453.000000 437.000000"
 preserveAspectRatio="xMidYMid meet">
<metadata>
Created by potrace 1.16, written by Peter Selinger 2001-2019
</metadata>
<g transform="translate(0.000000,437.000000) scale(0.100000,-0.100000)"
fill="#000000" stroke="none">
<path d="M2015 4142 c-150 -20 -333 -60 -351 -77 -6 -6 -45 -19 -85 -29 -115
-27 -403 -174 -488 -248 -14 -13 -51 -42 -81 -64 -30 -23 -90 -76 -134 -118
-43 -42 -82 -76 -87 -76 -4 0 -22 -21 -40 -47 -18 -27 -41 -56 -51 -66 -10
-10 -16 -22 -13 -27 3 -5 -3 -14 -14 -19 -26 -14 -64 -78 -58 -96 3 -7 -1 -19
-8 -25 -8 -7 -12 -16 -9 -21 3 -5 -3 -21 -14 -37 -11 -15 -17 -33 -15 -39 3
-7 0 -13 -6 -13 -6 0 -25 -30 -43 -67 -18 -38 -37 -71 -41 -74 -5 -3 -9 -10
-9 -15 -1 -5 -9 -27 -19 -49 -10 -22 -19 -46 -19 -54 0 -8 -10 -28 -23 -45
-34 -45 -42 -60 -29 -52 14 9 15 2 3 -44 -5 -19 -12 -48 -16 -64 -5 -23 -8
-27 -16 -15 -5 8 -9 9 -9 2 0 -6 -3 -20 -6 -30 -5 -15 -4 -15 5 -3 9 13 11 13
11 -2 0 -34 -23 -123 -35 -138 -34 -39 -46 -353 -20 -534 7 -54 16 -101 19
-104 8 -7 8 -3 -9 113 -14 105 -12 403 3 480 5 23 6 -53 4 -176 -5 -228 4
-343 39 -501 22 -103 22 -101 7 -92 -8 5 -9 2 -5 -10 4 -10 7 -22 7 -27 0 -6
4 -8 9 -5 11 7 35 -49 26 -63 -3 -6 -1 -11 5 -11 12 0 41 -62 67 -144 9 -28
27 -68 40 -88 13 -21 23 -41 23 -45 0 -5 11 -24 23 -43 13 -19 27 -46 30 -60
3 -14 15 -35 27 -47 11 -12 20 -26 20 -32 0 -5 3 -11 8 -13 4 -1 23 -25 43
-53 97 -133 280 -309 439 -422 58 -41 172 -108 254 -149 82 -41 157 -80 165
-87 9 -8 41 -21 71 -30 92 -27 174 -51 185 -53 34 -7 75 -15 105 -20 19 -3 60
-9 90 -14 30 -5 93 -12 138 -16 54 -4 85 -11 89 -20 8 -22 33 -24 53 -4 16 16
43 22 138 31 64 5 140 14 167 19 28 6 75 14 105 19 30 5 69 14 85 19 17 6 71
23 120 38 111 34 434 197 465 234 12 14 69 50 79 50 16 0 26 9 144 125 107
105 191 199 223 250 10 17 26 37 36 45 24 22 83 110 114 172 16 29 30 55 33
58 8 7 51 93 51 101 0 4 9 27 20 53 12 25 20 47 20 48 -1 2 8 27 19 56 12 30
23 66 24 82 2 16 9 35 16 44 28 33 75 353 75 506 0 95 -13 301 -20 311 -3 5
-7 21 -9 36 -20 121 -58 262 -95 348 -10 22 -21 51 -25 65 -12 41 -86 184
-106 206 -10 11 -19 25 -19 30 0 6 -25 50 -55 98 -60 95 -139 195 -229 292
-31 32 -56 62 -56 67 0 4 -6 7 -13 7 -7 0 -20 8 -28 18 -9 9 -26 24 -39 32
-12 8 -32 24 -44 36 -11 12 -57 47 -101 79 -44 32 -81 62 -83 67 -2 4 -8 8
-13 8 -5 0 -31 15 -58 33 -26 18 -61 38 -77 44 -16 6 -56 21 -89 34 -33 13
-63 23 -67 21 -5 -1 -8 2 -8 6 0 5 -19 14 -42 21 -24 7 -50 16 -58 21 -9 4
-31 11 -50 15 -19 4 -48 13 -65 20 -44 19 -199 52 -280 61 -123 12 -357 10
-460 -4z m88 -177 c-34 -14 -43 -44 -24 -74 7 -11 15 -10 44 8 19 11 37 21 41
21 11 0 7 -30 -7 -53 -8 -12 -13 -28 -12 -34 2 -7 3 -22 4 -33 0 -11 8 -20 16
-20 10 0 15 -10 16 -27 0 -16 2 -153 5 -305 l4 -278 -22 -1 c-32 -1 -82 -32
-86 -53 -9 -43 40 -53 74 -15 23 25 34 24 34 -5 0 -15 -7 -26 -20 -29 -31 -8
-25 -87 6 -87 11 0 14 -95 16 -575 2 -316 0 -575 -3 -575 -4 0 -10 7 -13 16
-4 11 -15 15 -35 12 -23 -3 -32 2 -49 28 -14 22 -17 35 -10 42 6 6 8 22 4 35
-8 32 -43 42 -58 17 -11 -17 -13 -17 -31 6 -19 24 -19 25 12 73 36 56 40 87
11 96 -13 4 -20 15 -20 30 0 13 -4 26 -9 29 -4 3 -6 17 -4 31 4 19 0 27 -18
34 -20 7 -26 4 -37 -16 -16 -29 -9 -73 19 -122 18 -31 19 -37 6 -76 -12 -35
-12 -43 -1 -51 11 -7 7 -16 -16 -42 -24 -26 -30 -29 -30 -14 0 19 -56 68 -63
54 -7 -15 -7 -78 1 -90 6 -9 16 -10 41 -1 24 9 39 9 57 0 14 -6 36 -8 50 -5
20 5 24 2 24 -14 0 -12 9 -37 21 -56 11 -19 18 -40 14 -46 -3 -5 5 -14 19 -20
19 -7 26 -17 26 -35 0 -29 -8 -32 -25 -9 -8 12 -20 15 -38 10 -34 -8 -37 -50
-5 -67 18 -10 24 -8 40 11 20 24 20 24 35 -3 9 -17 12 -15 31 18 12 20 22 42
22 48 1 7 7 26 15 42 13 29 13 26 14 -47 1 -53 -3 -78 -11 -78 -6 0 -26 -11
-43 -25 -18 -13 -35 -21 -39 -18 -3 4 -6 -1 -6 -10 0 -21 19 -32 47 -28 54 6
54 0 56 -387 l2 -357 -26 -12 c-27 -11 -29 -26 -20 -117 1 -4 11 -6 24 -2 23
5 23 4 23 -66 -1 -55 -4 -72 -16 -74 -8 -2 -25 -6 -37 -10 -23 -6 -32 9 -13
21 13 8 13 51 0 76 -14 25 -35 24 -63 -2 -21 -19 -21 -21 -4 -34 45 -33 14
-103 -43 -97 -31 4 -51 -29 -43 -71 6 -32 32 -36 58 -7 21 23 41 26 48 6 8
-20 57 -8 57 14 0 13 7 18 23 16 36 -4 43 -12 41 -46 -1 -17 -4 -33 -6 -35 -3
-3 -72 3 -228 18 -25 3 -58 8 -73 12 -25 7 -28 11 -23 34 7 31 11 40 20 63 11
25 -11 58 -39 58 -29 0 -33 -6 -44 -65 -7 -36 -5 -49 6 -60 11 -12 12 -15 1
-15 -31 1 -40 17 -33 58 6 35 3 43 -21 65 -23 22 -26 28 -14 42 11 13 10 22
-5 55 -10 22 -21 40 -25 40 -3 0 -14 6 -24 13 -16 12 -16 15 -2 42 9 17 16 36
16 43 0 16 30 15 53 -3 24 -17 47 -9 47 16 0 28 -58 82 -81 76 -24 -7 -39 13
-43 57 -3 41 -3 40 23 24 17 -10 24 -7 52 20 18 17 36 29 41 26 4 -3 8 -32 8
-64 0 -66 9 -79 35 -50 24 26 45 26 40 0 -6 -33 5 -50 35 -50 20 0 29 6 33 22
8 29 -18 69 -39 61 -12 -4 -14 0 -9 19 4 17 1 31 -10 42 -9 9 -15 23 -12 30 7
16 -28 56 -48 56 -8 0 -18 6 -22 14 -14 23 -47 27 -72 9 -48 -37 -59 -52 -57
-77 3 -23 -1 -26 -25 -26 -16 0 -29 2 -29 5 0 2 11 21 25 41 14 20 25 45 25
56 0 11 12 40 27 65 23 40 29 44 54 39 16 -3 31 -1 34 4 7 12 -4 54 -12 46 -3
-2 -16 -1 -29 4 -31 12 -51 4 -69 -29 -11 -21 -15 -23 -20 -10 -6 15 -10 15
-34 3 -25 -12 -33 -12 -65 1 -20 9 -35 19 -32 24 8 12 -54 71 -75 71 -13 0
-16 5 -12 16 3 8 0 26 -7 39 l-12 23 -37 -20 c-45 -25 -49 -31 -43 -67 3 -24
10 -30 37 -35 39 -8 59 -29 53 -54 -9 -34 13 -47 79 -47 35 -1 68 -6 74 -12 7
-7 14 -34 17 -61 3 -39 1 -50 -12 -55 -23 -9 -46 2 -39 19 3 8 2 25 -1 39 -5
19 -13 25 -35 25 -38 0 -60 -39 -41 -74 7 -14 18 -22 26 -19 21 8 17 -9 -9
-44 -22 -30 -24 -31 -35 -12 -7 11 -17 17 -22 14 -13 -8 -13 1 0 25 7 14 6 23
-6 34 -32 32 -74 6 -74 -45 0 -53 10 -79 31 -79 11 0 20 -4 21 -10 4 -29 1
-35 -22 -40 -40 -10 -33 -46 19 -97 31 -31 49 -42 62 -38 11 4 19 2 19 -4 0
-5 -12 -11 -26 -13 -30 -3 -57 -37 -46 -55 4 -6 18 -14 32 -18 32 -7 59 27 39
51 -7 9 -8 14 -1 14 6 0 12 -5 14 -11 6 -18 44 -1 55 24 7 15 7 29 0 45 -9 19
-7 25 14 40 13 9 25 14 25 12 1 -3 11 4 23 14 21 19 21 19 21 -1 0 -11 3 -23
7 -27 4 -3 7 -15 8 -26 1 -14 -5 -20 -20 -20 -41 0 -49 -23 -30 -82 10 -29 21
-59 24 -67 10 -21 31 -26 31 -7 0 8 4 17 9 21 13 7 43 -54 34 -69 -13 -20 -13
-46 -1 -46 6 0 8 -3 5 -7 -4 -3 1 -15 10 -26 14 -16 15 -19 3 -15 -120 41
-147 56 -97 54 18 -1 23 5 25 30 2 25 -2 33 -25 43 -24 11 -29 10 -44 -8 -10
-12 -15 -30 -11 -43 3 -11 1 -19 -4 -16 -27 14 -185 88 -190 88 -9 0 -242 161
-255 176 -9 11 -8 14 9 14 55 0 70 39 29 78 -17 16 -23 34 -25 78 -4 64 -22
87 -57 74 -28 -10 -30 -34 -6 -74 19 -30 20 -37 8 -60 -18 -33 -27 -24 -20 20
4 22 1 34 -6 35 -6 1 -17 2 -23 3 -7 0 -22 -8 -32 -18 -19 -19 -20 -18 -87 55
-38 41 -68 80 -69 87 0 6 -4 12 -9 12 -7 0 -39 42 -76 101 -5 9 -18 28 -29 43
-10 15 -16 29 -13 32 3 4 33 7 67 9 34 1 67 8 73 14 7 7 7 11 1 11 -6 0 -11 7
-11 15 0 8 6 15 13 15 15 0 13 62 -3 82 -12 15 -23 78 -13 78 3 0 10 -4 15 -9
15 -14 79 2 83 21 5 24 -44 70 -74 71 -22 0 -25 3 -19 21 21 67 -18 112 -60
69 -12 -11 -15 -26 -12 -50 3 -18 2 -33 -3 -33 -5 0 -12 -21 -16 -46 -5 -37
-3 -49 13 -67 15 -17 19 -31 16 -60 -4 -29 -1 -41 13 -52 24 -17 12 -30 -14
-16 -12 6 -29 11 -40 11 -22 0 -48 25 -34 34 5 3 7 17 4 31 -2 14 0 25 5 25 6
0 8 11 6 24 -6 31 -47 50 -74 35 -24 -12 -19 -38 17 -85 22 -30 22 -32 5 -37
-15 -3 -25 10 -52 65 -28 58 -31 72 -21 88 16 26 15 37 -5 58 -10 10 -25 27
-35 38 -17 19 -62 176 -71 249 -3 22 -8 55 -11 72 l-5 33 42 -40 c47 -46 77
-52 77 -17 0 13 -5 28 -12 35 -9 9 -9 12 0 12 7 0 12 -6 12 -12 1 -9 5 -7 13
3 19 25 38 0 21 -26 -11 -17 -11 -27 0 -57 16 -48 23 -54 30 -30 4 11 14 23
23 26 20 8 36 -14 22 -31 -13 -14 -3 -67 14 -81 17 -13 87 -25 87 -14 0 4 -4
12 -10 18 -5 5 -13 27 -18 49 -5 27 -16 44 -32 52 -22 11 -23 13 -6 19 10 4
33 2 50 -4 59 -21 87 -7 54 27 -11 10 -9 11 6 5 17 -6 18 -4 12 20 -6 25 -5
27 16 20 13 -4 38 -15 56 -25 33 -17 35 -17 75 4 32 17 43 29 45 50 2 18 -3
33 -13 41 -10 7 -14 18 -9 29 6 17 11 19 50 21 11 1 27 6 35 12 33 27 56 25
83 -6 19 -23 31 -30 46 -25 24 8 25 14 4 43 -15 22 -15 25 3 45 40 44 34 67
-18 67 -14 0 -20 10 -25 40 -7 46 -24 63 -55 58 -18 -2 -24 -11 -27 -38 -5
-44 -15 -50 -74 -43 -45 5 -48 4 -58 -22 -7 -18 -7 -38 -2 -54 5 -14 6 -35 2
-46 -9 -24 -19 -89 -20 -123 l0 -23 -26 20 c-15 12 -33 21 -40 21 -8 0 -14 5
-14 10 0 6 -4 10 -9 10 -6 0 -22 11 -37 25 -26 24 -68 33 -77 18 -3 -5 -7 -28
-8 -53 -3 -38 -1 -45 16 -48 23 -5 45 -21 45 -33 0 -5 -17 0 -37 11 -21 11
-43 20 -50 20 -7 0 -13 5 -13 10 0 6 -6 10 -13 10 -7 0 -18 9 -24 19 -7 11
-33 29 -58 42 -27 14 -45 29 -44 38 3 35 -2 51 -27 80 -14 17 -22 31 -17 31 4
0 1 5 -7 10 -11 7 -12 12 -3 21 16 16 -7 39 -39 39 -25 0 -24 -7 -15 133 1 16
10 34 20 41 9 7 17 18 17 25 0 6 4 11 10 11 14 0 62 79 55 91 -8 11 -46 2 -58
-15 -13 -17 2 70 26 157 18 63 25 77 42 77 26 1 50 20 59 47 7 22 7 22 27 2
26 -26 31 -25 77 22 57 56 38 92 -28 54 -47 -27 -51 -28 -65 -9 -13 17 -16 17
-26 4 -22 -30 1 41 26 81 14 21 25 43 25 48 0 11 147 231 180 269 18 22 21 22
36 8 18 -19 62 -12 80 13 15 19 -3 51 -28 51 -23 0 -23 13 0 33 16 15 18 14
31 -14 15 -35 26 -30 47 19 15 37 73 94 87 85 4 -2 7 -13 7 -23 0 -27 17 -34
51 -20 35 15 36 26 7 51 -25 22 -30 23 -47 7 -11 -10 -14 -10 -18 0 -3 6 -12
12 -21 12 -19 0 9 26 85 80 51 37 59 38 28 4 -37 -40 -29 -74 16 -74 15 0 51
91 45 115 -3 15 5 26 30 43 20 12 44 22 55 22 17 0 18 -3 9 -21 -18 -33 -5
-52 30 -45 31 6 38 -2 18 -22 -14 -14 5 -62 25 -62 8 0 20 -11 27 -25 22 -41
54 -30 58 20 2 22 10 48 19 57 9 10 13 26 10 37 -3 14 3 25 18 35 31 21 105
133 105 161 0 13 7 25 15 29 18 6 19 2 4 -25 -8 -16 -7 -25 4 -37 13 -15 14
-20 1 -36 -29 -40 -3 -93 30 -61 18 19 20 38 7 64 -12 21 21 74 57 90 12 6 22
17 22 26 0 8 12 17 28 21 15 3 41 10 59 14 31 8 31 7 21 -16 -8 -18 -8 -28 0
-36 8 -8 7 -15 -5 -26 -12 -12 -19 -13 -34 -4 -10 7 -24 12 -30 12 -16 0 -38
-31 -39 -54 0 -15 -3 -16 -15 -6 -22 18 -40 -6 -43 -62 -4 -66 32 -87 69 -40
16 21 22 24 29 12 7 -12 13 -10 34 10 15 13 26 31 26 40 0 10 11 33 24 53 13
19 24 37 23 39 -1 2 7 -6 18 -16 13 -13 15 -21 7 -24 -14 -4 -16 -50 -3 -70 5
-8 17 -12 27 -10 15 3 19 12 20 43 0 21 6 41 12 43 15 5 16 38 2 47 -5 3 -10
15 -10 26 0 13 -7 19 -22 19 -23 1 -23 1 4 24 21 19 39 24 75 24 l48 0 -32
-13z m378 5 c30 -5 74 -12 99 -15 107 -13 315 -84 463 -158 67 -33 124 -63
127 -66 3 -3 12 -10 21 -16 178 -110 359 -278 482 -448 180 -246 273 -454 329
-737 16 -80 21 -154 24 -315 2 -115 -1 -228 -6 -250 -5 -22 -17 -80 -26 -130
-23 -127 -85 -316 -125 -389 -6 -11 -27 -51 -47 -90 -19 -39 -51 -96 -71 -126
-19 -30 -40 -62 -46 -71 -53 -84 -83 -119 -184 -220 -132 -131 -208 -192 -333
-268 -217 -130 -510 -232 -735 -256 -58 -6 -62 -5 -69 17 -5 13 -9 46 -10 73
-1 28 -2 55 -3 60 0 6 -3 97 -5 203 -3 140 -1 192 8 192 6 0 4 5 -4 11 -11 8
-12 12 -2 16 6 2 12 12 12 21 0 15 -2 15 -10 2 -8 -13 -10 -12 -10 3 0 9 5 17
11 17 8 0 8 4 1 13 -10 12 -12 248 -10 1717 0 432 0 855 -1 940 -1 85 2 183 5
218 5 60 7 62 33 62 15 0 52 -4 82 -10z m-831 -95 c0 -3 -28 -33 -62 -67 -35
-35 -64 -71 -64 -81 -1 -10 -7 -29 -14 -42 -10 -18 -20 -23 -46 -22 -49 4 -52
14 -14 48 26 25 30 33 19 40 -19 12 -43 11 -56 -2 -6 -6 -21 -9 -34 -7 -17 2
8 18 93 61 64 31 123 57 131 57 9 0 19 5 22 10 6 10 25 14 25 5z m195 -83 c-3
-3 -11 0 -18 7 -9 10 -8 11 6 5 10 -3 15 -9 12 -12z m-651 -1577 c-4 -8 -10
-15 -15 -15 -5 0 -9 7 -9 15 0 8 7 15 15 15 9 0 12 -6 9 -15z m-680 -46 c-15
-16 -16 -24 -6 -39 7 -11 12 -27 12 -35 0 -9 7 -18 15 -21 8 -4 15 -15 15 -26
0 -15 -5 -18 -20 -13 -12 4 -26 0 -36 -10 -9 -9 -18 -15 -19 -13 -1 2 -5 37
-7 80 -3 56 -2 75 7 72 7 -3 18 2 25 11 7 8 17 15 23 15 5 0 2 -9 -9 -21z
m598 -11 c5 -33 2 -33 -43 -11 -43 20 -42 20 -35 32 4 5 22 9 40 8 29 -2 35
-6 38 -29z m-427 -198 c-3 -5 -10 -10 -16 -10 -5 0 -9 5 -9 10 0 6 7 10 16 10
8 0 12 -4 9 -10z m889 -1012 c-4 -24 -15 -49 -25 -56 -13 -9 -16 -19 -10 -40
10 -35 4 -52 -20 -52 -11 0 -22 -7 -25 -15 -9 -22 -34 -18 -34 4 0 11 -4 23
-10 26 -5 3 -10 16 -10 29 0 12 -5 27 -12 34 -9 9 -6 12 14 12 18 0 29 7 33
20 3 11 15 20 26 20 10 0 19 6 19 14 0 8 11 17 25 20 14 4 25 11 25 16 0 6 2
10 5 10 3 0 2 -19 -1 -42z m41 -48 c3 -5 1 -10 -4 -10 -6 0 -11 5 -11 10 0 6
2 10 4 10 3 0 8 -4 11 -10z m-520 -54 c17 -17 7 -30 -12 -15 -13 12 -18 29 -7
29 3 0 12 -6 19 -14z"/>
<path d="M1932 3698 c-6 -6 -12 -27 -12 -45 0 -25 4 -33 18 -33 28 0 50 31 43
60 -8 28 -30 37 -49 18z"/>
<path d="M2046 3688 c-20 -28 -20 -42 -2 -57 20 -17 54 2 62 35 11 44 -34 60
-60 22z"/>
<path d="M1669 3637 c-22 -17 -34 -57 -17 -57 10 0 9 -3 -2 -10 -8 -5 -25 -7
-37 -3 -27 6 -28 2 -8 -37 9 -18 21 -27 29 -24 9 4 14 -3 14 -22 0 -14 5 -30
11 -34 11 -6 65 -7 107 -1 15 1 23 58 10 71 -13 13 -49 13 -63 -1 -6 -6 -16
-8 -23 -4 -8 5 -5 12 9 22 26 17 27 33 4 33 -13 0 -9 7 15 26 17 14 32 32 32
40 0 18 -58 19 -81 1z"/>
<path d="M1813 3631 c-3 -12 -12 -21 -19 -21 -21 0 -17 -48 5 -60 26 -14 41
-13 36 3 -3 7 4 13 21 13 32 2 37 7 37 39 0 31 0 31 -41 40 -29 6 -34 4 -39
-14z"/>
<path d="M1324 3596 c-3 -8 -14 -18 -24 -21 -25 -8 -34 -39 -18 -64 16 -27 37
-34 54 -20 8 6 14 8 14 3 0 -10 65 -12 75 -2 13 13 -6 66 -26 71 -13 4 -19 12
-17 24 4 24 -49 32 -58 9z"/>
<path d="M2096 3602 c-51 -12 -59 -58 -13 -80 27 -13 37 -32 17 -32 -7 0 -7
-6 0 -19 6 -13 17 -17 30 -14 17 4 18 8 8 27 -6 11 -16 24 -22 28 -8 5 -4 20
12 47 12 22 22 41 22 43 0 5 -32 5 -54 0z"/>
<path d="M1950 3556 c0 -8 -9 -18 -20 -21 -24 -8 -27 -47 -6 -65 12 -9 17 -7
28 9 7 12 23 21 36 21 30 0 39 26 17 50 -21 23 -55 27 -55 6z"/>
<path d="M1539 3545 c-1 -3 -2 -9 -3 -15 0 -5 -19 -25 -40 -45 -36 -33 -43
-35 -81 -29 -32 4 -43 2 -48 -9 -17 -45 29 -81 73 -57 16 9 25 9 33 1 6 -6 7
-11 2 -11 -6 0 -4 -4 4 -9 19 -12 1 -41 -60 -92 -56 -46 -72 -75 -57 -101 15
-30 43 -21 67 23 13 23 38 50 56 61 18 10 36 25 39 33 2 7 15 19 27 25 17 10
15 4 -12 -29 -26 -34 -31 -46 -23 -59 12 -18 61 -24 71 -9 3 5 11 -1 19 -12
16 -22 44 -18 44 6 0 12 3 12 16 -2 12 -11 25 -14 46 -9 21 4 28 3 24 -5 -4
-6 -4 -11 1 -11 24 -1 33 -18 24 -42 -16 -41 23 -65 55 -34 16 17 19 66 4 66
-19 0 -10 26 20 60 17 18 30 39 30 46 0 14 -27 12 -59 -6 -24 -12 -26 -8 -9
20 10 16 10 24 0 41 -12 19 -11 20 7 14 22 -7 43 24 56 83 6 27 4 32 -13 32
-10 0 -25 -12 -32 -26 -12 -21 -20 -25 -52 -23 -45 4 -63 -11 -54 -45 5 -19
14 -25 38 -28 l31 -3 -26 -31 c-26 -31 -77 -50 -87 -34 -11 17 -43 15 -46 -4
-4 -25 -24 -45 -25 -26 -2 33 1 107 5 140 3 22 -1 44 -11 59 -11 18 -13 26 -5
29 18 6 14 30 -8 52 -19 19 -38 26 -41 15z"/>
<path d="M1961 3422 c-35 -32 -42 -43 -36 -61 5 -18 13 -22 31 -18 16 3 25 -1
29 -14 3 -10 16 -19 28 -21 19 -3 22 -9 22 -55 0 -40 5 -57 22 -74 33 -34 76
-5 58 39 -14 30 -14 44 -2 62 9 15 6 26 -16 59 -15 22 -27 45 -27 50 0 15 -23
19 -43 9 -19 -10 -19 -2 0 50 10 24 -25 11 -66 -26z"/>
<path d="M1216 3430 c-15 -5 -35 -19 -43 -30 -11 -16 -18 -19 -26 -11 -18 18
-24 13 -51 -39 -44 -83 -31 -113 39 -90 34 11 47 34 24 42 -9 3 -9 10 0 26 10
18 20 22 65 22 40 0 55 4 60 16 4 11 -1 18 -14 21 -19 5 -24 14 -21 41 1 6 1
12 -1 11 -2 0 -16 -5 -32 -9z"/>
<path d="M1272 3331 c-8 -4 -13 -10 -12 -12 1 -2 -4 -16 -11 -31 -10 -22 -9
-30 1 -43 7 -9 20 -13 29 -10 12 5 11 2 -3 -14 -12 -13 -16 -29 -12 -48 3 -15
-1 -50 -8 -78 -12 -42 -12 -52 0 -66 12 -14 10 -19 -16 -42 -33 -30 -39 -61
-14 -71 20 -8 64 19 64 38 0 7 14 30 30 51 35 45 37 52 10 60 -26 8 -26 39 1
66 16 16 19 27 13 47 -4 15 -6 37 -5 50 2 14 -3 22 -13 22 -21 0 -20 7 4 37
19 24 19 26 3 39 -21 15 -42 17 -61 5z"/>
<path d="M920 3281 l-35 -6 -2 -75 c-2 -56 2 -79 14 -92 20 -22 56 -23 74 -2
12 14 10 19 -14 38 -36 29 -34 54 5 86 30 25 31 28 16 44 -9 9 -18 15 -20 15
-2 -1 -19 -4 -38 -8z"/>
<path d="M1158 3232 c-10 -2 -18 -12 -18 -22 0 -13 -5 -17 -15 -14 -8 4 -15
12 -15 20 0 20 -30 17 -46 -3 -21 -28 -17 -61 8 -68 16 -6 26 -1 39 16 10 13
21 20 25 16 5 -4 -4 -18 -19 -30 -20 -16 -25 -28 -21 -44 13 -46 80 -40 70 6
-4 20 2 32 25 51 25 21 29 31 24 52 -7 26 -15 29 -57 20z"/>
<path d="M1895 3177 c-18 -44 -20 -58 -11 -85 7 -20 12 -23 34 -17 37 9 37 10
19 46 -10 22 -12 40 -7 55 7 16 5 24 -6 28 -10 4 -19 -5 -29 -27z"/>
<path d="M1458 3152 l-26 -48 20 -38 c16 -31 24 -37 41 -32 12 3 25 6 30 6 12
0 8 28 -5 33 -7 2 -10 8 -6 12 4 4 13 3 20 -3 9 -7 31 -2 76 20 77 37 83 64
13 60 -8 0 -26 9 -40 20 -23 17 -26 18 -29 4 -2 -9 -7 -16 -12 -16 -4 0 -10
-9 -13 -20 -9 -36 -28 -23 -21 15 9 52 -17 45 -48 -13z"/>
<path d="M800 3122 c-41 -20 -50 -65 -14 -70 25 -4 74 43 74 69 0 23 -14 23
-60 1z"/>
<path d="M1597 3072 c-57 -26 -63 -72 -9 -72 18 0 39 13 65 39 20 21 37 41 37
45 0 11 -55 4 -93 -12z"/>
<path d="M860 3052 c-28 -9 -80 -66 -80 -88 0 -55 52 -39 80 24 23 51 23 71 0
64z"/>
<path d="M1945 3047 c-50 -60 -55 -103 -10 -95 22 5 24 2 22 -26 -3 -42 24
-45 64 -8 22 20 29 34 23 43 -5 8 -7 22 -6 32 5 27 -46 23 -59 -5 -8 -21 -9
-20 -4 5 6 30 -1 67 -13 67 -4 -1 -12 -6 -17 -13z"/>
<path d="M696 3025 c-30 -28 -32 -38 -11 -59 13 -13 18 -13 45 0 33 17 34 21
20 58 -12 32 -20 32 -54 1z"/>
<path d="M940 3037 c-46 -11 -54 -20 -46 -51 7 -30 19 -32 59 -11 16 8 40 16
55 18 20 3 26 9 24 23 -2 10 -5 20 -7 22 -8 8 -53 8 -85 -1z"/>
<path d="M1772 3027 c-29 -13 -41 -56 -18 -69 9 -5 23 -26 31 -46 9 -20 21
-39 26 -43 18 -11 47 2 64 28 18 27 12 39 -19 45 -13 2 -23 15 -29 38 -12 48
-26 61 -55 47z"/>
<path d="M1432 2977 c-36 -37 -39 -49 -16 -68 14 -11 21 -8 49 26 27 30 32 42
24 57 -13 25 -20 23 -57 -15z"/>
<path d="M1083 2940 c-27 -33 -28 -43 -9 -59 20 -17 51 1 72 41 13 25 14 32 2
39 -23 15 -42 9 -65 -21z"/>
<path d="M2107 2959 c-27 -16 -69 -88 -65 -112 4 -31 46 -29 68 3 18 25 36
120 22 120 -4 0 -15 -5 -25 -11z"/>
<path d="M852 2928 c-18 -18 -15 -56 7 -63 24 -7 71 11 71 28 0 15 -35 47 -53
47 -7 0 -18 -5 -25 -12z"/>
<path d="M1620 2920 c-19 -5 -36 -13 -38 -19 -2 -6 -11 -11 -21 -11 -36 0 -61
-29 -59 -69 0 -21 -2 -43 -5 -48 -9 -15 19 -37 38 -30 8 4 20 27 26 52 16 63
26 64 31 3 4 -34 12 -56 24 -65 21 -16 70 -17 79 -3 5 8 11 7 21 -1 25 -21 93
-28 110 -12 21 21 17 32 -13 45 -38 16 -39 18 -26 26 8 5 9 13 3 22 -7 12 -12
12 -22 2 -17 -17 -28 -15 -28 6 0 10 -6 26 -13 36 -12 16 -14 16 -33 -1 -12
-10 -24 -30 -28 -45 -9 -39 -22 -35 -29 9 -6 32 -2 39 25 63 47 41 31 57 -42
40z"/>
<path d="M1201 2866 c-24 -29 -9 -51 34 -51 38 0 40 2 40 30 0 26 -4 30 -31
33 -18 2 -36 -3 -43 -12z"/>
<path d="M1380 2870 c-8 -5 -23 -11 -33 -14 -9 -3 -22 -17 -27 -32 -12 -30
-13 -29 18 -39 18 -5 31 1 62 33 22 22 40 45 40 51 0 13 -38 14 -60 1z"/>
<path d="M1040 2839 c0 -5 -4 -8 -9 -5 -14 9 -42 -29 -35 -48 10 -26 52 -19
85 15 16 16 27 34 24 40 -8 13 -65 12 -65 -2z"/>
<path d="M1845 2830 c-3 -11 -3 -29 0 -40 5 -17 12 -19 45 -14 35 6 39 4 42
-17 2 -16 11 -25 26 -27 54 -8 8 85 -55 109 -37 14 -51 11 -58 -11z"/>
<path d="M845 2832 c-19 -14 -34 -50 -28 -71 7 -26 39 -27 71 -3 21 16 22 20
8 31 -9 8 -16 22 -16 32 0 19 -17 25 -35 11z"/>
<path d="M625 2768 c-10 -18 -23 -36 -28 -39 -14 -10 1 -47 21 -51 21 -5 134
20 146 32 10 10 -44 39 -62 33 -8 -3 -10 1 -5 13 4 11 0 22 -12 30 -28 21 -39
17 -60 -18z"/>
<path d="M1145 2764 c-46 -13 -65 -36 -49 -61 6 -10 17 -18 25 -18 8 0 20 -6
27 -12 7 -7 25 -13 39 -13 l26 0 -24 -21 c-13 -12 -36 -26 -51 -31 -20 -7 -28
-17 -28 -33 0 -29 30 -41 60 -25 42 23 28 4 -20 -28 -48 -32 -64 -62 -39 -77
28 -18 72 11 128 82 27 35 30 44 17 49 -8 3 -21 2 -28 -2 -11 -6 -11 -5 0 8 7
9 24 19 37 22 28 7 33 31 10 40 -13 5 -14 10 -5 27 9 16 9 24 0 33 -9 8 -16 5
-30 -11 -21 -27 -35 -30 -22 -6 7 11 5 21 -5 31 -12 13 -12 17 2 31 8 10 15
20 15 23 0 8 -41 5 -85 -8z"/>
<path d="M1407 2739 c-7 -53 -1 -69 29 -69 26 0 38 27 32 76 -2 23 -9 30 -29
32 -24 3 -27 -1 -32 -39z"/>
<path d="M982 2730 c-3 -8 -16 -23 -28 -32 -38 -30 -37 -57 1 -75 40 -19 65
-6 65 33 0 12 4 25 8 28 4 2 9 18 10 35 2 28 0 31 -24 29 -15 -2 -29 -9 -32
-18z"/>
<path d="M2102 2715 c-32 -17 -34 -20 -23 -49 20 -52 89 -18 75 37 -6 26 -18
29 -52 12z"/>
<path d="M1537 2669 c-20 -21 -37 -41 -37 -46 0 -14 38 -34 45 -23 3 6 20 9
37 7 21 -1 33 4 42 18 6 11 15 23 20 26 16 12 1 31 -34 43 -34 11 -37 10 -73
-25z"/>
<path d="M741 2672 c-6 -11 -24 -25 -41 -32 -16 -7 -30 -16 -30 -19 0 -4 -16
-26 -36 -49 -38 -45 -43 -84 -11 -90 24 -5 54 23 67 62 9 28 14 32 39 28 25
-3 32 1 46 28 20 38 16 84 -7 88 -9 2 -21 -5 -27 -16z"/>
<path d="M871 2659 c-12 -16 -20 -33 -17 -37 9 -15 -30 -77 -51 -80 -26 -4
-40 -37 -23 -57 15 -18 36 -10 83 32 20 18 42 33 48 33 6 0 9 6 6 13 -2 6 2
17 10 22 11 8 10 15 -2 39 -8 15 -13 31 -11 35 2 3 -2 11 -9 18 -10 9 -17 5
-34 -18z"/>
<path d="M1795 2660 c-8 -9 -15 -22 -15 -29 0 -17 25 -41 42 -41 20 1 81 57
74 68 -11 18 -86 19 -101 2z"/>
<path d="M1370 2613 c-32 -40 -41 -76 -24 -92 3 -3 18 8 32 25 67 79 75 98 44
106 -12 3 -28 -9 -52 -39z"/>
<path d="M1939 2643 c0 -5 -2 -18 -5 -29 -7 -42 46 -59 70 -22 8 13 6 22 -8
37 -18 20 -55 29 -57 14z"/>
<path d="M1027 2615 c-59 -31 -75 -48 -64 -72 14 -32 39 -28 75 12 47 51 41
87 -11 60z"/>
<path d="M2074 2555 c-13 -20 -14 -28 -4 -40 19 -23 58 -15 68 15 17 48 -35
69 -64 25z"/>
<path d="M1690 2550 c-8 -5 -31 -10 -50 -10 -43 0 -67 -29 -50 -61 7 -12 18
-18 28 -15 60 18 72 18 72 1 0 -9 -11 -30 -25 -47 -22 -26 -27 -40 -24 -64 0
-4 -4 -10 -11 -14 -7 -5 -8 -14 -1 -32 8 -22 18 -27 61 -33 66 -9 83 4 50 40
-13 14 -29 25 -37 25 -17 0 -17 8 2 26 17 17 20 54 5 54 -5 0 -10 4 -10 8 0
12 84 34 103 26 9 -3 33 -3 52 0 31 6 35 11 35 36 0 26 -4 30 -28 30 -15 0
-33 5 -40 12 -7 7 -27 11 -46 10 -19 -1 -37 2 -41 8 -8 13 -25 13 -45 0z"/>
<path d="M1494 2520 c-12 -5 -25 -13 -29 -19 -3 -6 -18 -11 -33 -11 -23 0 -31
-8 -50 -52 -29 -64 -26 -93 8 -93 20 0 26 6 28 26 4 32 43 54 89 50 27 -2 36
3 53 31 l20 33 -27 22 c-29 25 -29 25 -59 13z"/>
<path d="M948 2473 c-10 -2 -18 -11 -18 -19 0 -8 -5 -12 -11 -9 -12 8 12 -37
25 -47 6 -4 23 3 39 14 49 35 25 78 -35 61z"/>
<path d="M1253 2461 c-3 -12 -14 -21 -24 -21 -10 0 -21 -5 -24 -10 -4 -6 -11
-8 -16 -4 -14 8 -49 -25 -49 -46 0 -10 7 -24 16 -31 14 -12 20 -9 45 21 16 19
29 38 29 42 0 14 18 8 24 -8 3 -9 -1 -25 -9 -37 -20 -29 -19 -82 2 -106 16
-20 17 -20 35 1 10 12 18 28 18 37 0 9 3 25 6 37 3 13 -1 28 -12 39 -16 16
-16 18 -1 27 25 13 21 43 -9 63 -24 16 -26 16 -31 -4z"/>
<path d="M1904 2454 c-5 -20 0 -31 27 -55 18 -16 36 -29 40 -29 15 0 17 43 3
76 -18 43 -60 49 -70 8z"/>
<path d="M564 2445 c-9 -13 -24 -27 -34 -30 -24 -8 -32 -42 -13 -60 8 -8 18
-15 23 -15 12 0 70 72 70 87 0 7 6 13 13 13 13 1 -21 30 -35 30 -4 0 -15 -11
-24 -25z"/>
<path d="M2100 2445 c0 -21 -57 -125 -80 -147 -24 -22 -24 -26 -5 -65 22 -45
39 -57 55 -38 16 19 34 19 26 0 -3 -8 -2 -15 2 -16 47 -5 52 -4 53 10 1 9 2
23 3 31 1 18 -13 30 -37 30 -10 0 -25 6 -32 14 -12 11 -12 16 0 32 8 11 15 28
15 40 0 12 11 37 24 57 23 34 23 36 7 51 -22 20 -31 20 -31 1z"/>
<path d="M746 2430 c-34 -11 -45 -25 -39 -50 11 -42 73 -28 97 21 20 40 5 48
-58 29z"/>
<path d="M1577 2398 c-9 -5 -20 -27 -23 -49 -4 -22 -10 -42 -15 -45 -5 -3 -6
3 -2 12 4 11 -1 22 -12 30 -16 12 -22 11 -42 -8 -23 -21 -32 -58 -14 -58 10 0
36 -68 29 -75 -8 -8 -98 56 -98 69 0 18 -31 29 -54 20 -21 -8 -22 -70 0 -82 9
-5 15 -13 13 -18 -1 -5 5 -10 14 -12 9 -2 17 1 17 6 0 11 38 4 57 -10 6 -5 24
-13 40 -17 27 -8 30 -6 42 23 7 17 17 38 22 46 5 8 15 26 21 40 7 14 15 27 19
30 13 11 29 50 29 73 0 28 -18 39 -43 25z"/>
<path d="M815 2370 c-8 -16 -15 -40 -15 -55 0 -21 5 -25 28 -25 15 1 41 12 57
25 30 25 30 25 8 31 -13 4 -23 14 -23 24 0 15 -18 30 -36 30 -2 0 -10 -13 -19
-30z"/>
<path d="M977 2369 c-22 -25 -19 -63 5 -67 20 -4 100 57 92 70 -3 5 -14 6 -24
3 -10 -3 -21 -1 -25 5 -10 16 -29 12 -48 -11z"/>
<path d="M1843 2318 c-16 -30 -19 -47 -12 -60 17 -31 37 -20 68 37 20 37 20
41 4 53 -27 20 -38 14 -60 -30z"/>
<path d="M592 2294 c-21 -14 -24 -36 -9 -60 6 -10 55 -12 61 -2 7 12 26 61 24
63 -16 12 -58 12 -76 -1z"/>
<path d="M849 2275 c-8 -8 -1 -97 8 -106 4 -4 19 -3 33 4 28 14 40 68 19 93
-11 13 -50 19 -60 9z"/>
<path d="M1687 2237 c-16 -11 -16 -15 -1 -60 16 -47 44 -65 44 -28 0 11 7 26
15 35 22 22 19 53 -7 60 -31 8 -32 8 -51 -7z"/>
<path d="M731 2205 c-13 -19 -28 -32 -33 -29 -12 8 -28 -14 -28 -38 0 -24 27
-23 68 2 18 11 39 20 47 20 18 0 20 51 3 68 -19 19 -31 14 -57 -23z"/>
<path d="M1578 2195 c-9 -19 -8 -31 2 -50 11 -20 11 -27 -1 -41 -21 -26 -18
-43 25 -128 l40 -79 18 23 c17 21 17 25 3 47 -9 13 -18 40 -21 60 -2 21 -11
47 -19 60 -14 21 -14 25 5 45 33 35 25 64 -23 81 -13 5 -21 0 -29 -18z"/>
<path d="M1441 2145 c-1 -5 -15 -10 -32 -11 -17 -1 -40 -10 -50 -21 -20 -19
-20 -21 -2 -56 19 -38 31 -45 50 -26 8 8 13 5 18 -10 9 -31 23 -26 30 12 13
77 13 87 5 87 -5 0 -11 8 -13 18 -3 9 -5 13 -6 7z"/>
<path d="M1867 2136 c-8 -8 -17 -13 -19 -10 -3 2 -11 -2 -17 -10 -7 -8 -19
-12 -27 -9 -22 8 -61 -5 -61 -22 0 -8 4 -15 9 -15 5 0 7 -4 4 -8 -3 -5 9 -25
26 -46 l30 -37 17 33 c9 18 23 33 31 33 20 0 40 57 22 63 -10 3 -10 7 -1 18
16 20 5 28 -14 10z"/>
<path d="M2081 2101 c-8 -5 -11 -16 -7 -29 4 -11 2 -23 -4 -27 -18 -11 7 -32
46 -40 58 -10 77 32 33 76 -22 22 -51 31 -68 20z"/>
<path d="M1073 2058 c-11 -19 -16 -68 -14 -130 1 -29 31 -41 31 -13 0 28 39 6
55 -30 17 -43 16 -57 -5 -50 -26 8 -60 -11 -60 -35 0 -13 -7 -20 -19 -20 -27
0 -35 -51 -13 -90 24 -42 39 -44 46 -5 4 18 13 36 21 39 8 3 15 17 15 31 0 23
4 25 40 25 39 0 40 1 40 35 0 19 5 35 10 35 6 0 10 -9 10 -20 0 -23 28 -27 36
-6 3 8 12 12 20 9 8 -3 14 0 14 7 0 6 4 9 9 6 5 -3 11 3 14 14 10 40 27 21 24
-27 -3 -46 -4 -48 -37 -50 -50 -4 -59 -9 -70 -38 -9 -23 -12 -24 -30 -13 -18
11 -23 10 -36 -6 -20 -28 4 -95 28 -80 6 4 28 1 49 -6 31 -10 39 -18 39 -37 0
-32 23 -39 54 -16 35 25 38 38 14 68 -16 20 -26 25 -45 20 -22 -5 -24 -3 -21
22 2 22 10 29 39 38 21 5 46 18 56 28 11 9 28 17 39 17 20 0 54 32 54 50 0 6
5 10 10 10 6 0 10 8 10 18 -1 35 -61 85 -75 62 -4 -6 -13 -10 -22 -10 -11 0
-14 6 -9 26 8 31 -8 54 -39 54 -12 0 -33 8 -46 18 -45 34 -81 45 -96 29 -19
-18 0 -72 22 -63 9 3 31 -2 49 -11 29 -13 33 -19 24 -33 -9 -14 -17 -16 -41
-9 -17 5 -34 14 -38 20 -4 7 -17 9 -33 5 -21 -5 -28 -1 -41 23 -8 17 -15 36
-15 44 0 17 -34 57 -48 57 -6 0 -14 -6 -19 -12z"/>
<path d="M1520 2010 c-11 -11 -20 -23 -21 -27 0 -5 -2 -18 -3 -30 -2 -13 1
-23 6 -23 4 0 8 -6 8 -14 0 -8 7 -21 15 -30 9 -9 11 -17 5 -21 -5 -3 -10 -22
-10 -41 0 -41 22 -54 49 -30 22 20 32 21 25 1 -7 -17 64 -85 82 -78 14 5 4 52
-21 90 -12 17 -22 22 -36 18 -17 -6 -20 -3 -17 17 2 16 -4 26 -20 33 -19 8
-23 17 -21 45 2 19 7 41 12 48 7 8 6 21 -3 37 -16 30 -24 31 -50 5z"/>
<path d="M1722 1989 c-25 -10 -27 -18 -9 -50 26 -51 28 -52 48 -30 23 25 23
24 1 59 -14 24 -21 28 -40 21z"/>
<path d="M1792 1908 c-15 -18 -17 -39 -8 -75 6 -25 3 -36 -13 -52 -27 -27 -27
-63 0 -87 21 -19 21 -19 44 10 19 24 26 27 38 18 7 -7 17 -9 21 -5 11 11 -6
77 -26 99 -17 19 -17 22 -3 34 20 17 19 40 -2 56 -23 17 -38 17 -51 2z"/>
<path d="M945 1900 c-3 -5 -12 -7 -21 -3 -8 3 -23 -2 -34 -12 -19 -17 -19 -18
0 -45 11 -16 20 -33 20 -38 0 -18 19 -23 41 -12 12 7 18 18 15 26 -4 10 2 14
20 14 14 0 22 -4 19 -10 -9 -15 18 -12 40 4 17 12 17 15 2 36 -26 38 -88 62
-102 40z"/>
<path d="M533 1864 c-17 -26 -16 -27 8 -48 14 -12 28 -29 32 -38 8 -22 49 -12
43 11 -2 9 -8 27 -11 41 -8 27 -33 60 -46 60 -5 0 -16 -12 -26 -26z"/>
<path d="M1900 1827 c0 -25 51 -86 67 -80 17 7 17 77 1 91 -21 17 -68 10 -68
-11z"/>
<path d="M1477 1763 c-10 -9 -8 -55 2 -72 11 -18 56 -7 65 15 13 35 -43 82
-67 57z"/>
<path d="M556 1738 c-21 -29 -21 -28 12 -63 42 -44 70 -59 88 -44 21 17 17 33
-19 70 -58 60 -63 63 -81 37z"/>
<path d="M949 1749 c-27 -10 -39 -42 -31 -82 6 -29 50 -17 73 19 18 30 19 32
2 52 -15 16 -23 18 -44 11z"/>
<path d="M1390 1725 c-17 -20 -8 -79 12 -83 22 -4 60 38 56 62 -4 25 -52 40
-68 21z"/>
<path d="M1906 1714 c-20 -19 -20 -34 0 -84 26 -64 63 -47 62 28 0 40 -18 72
-38 72 -5 0 -16 -7 -24 -16z"/>
<path d="M1533 1673 c-7 -3 -13 -11 -13 -20 0 -8 -18 -36 -40 -62 -44 -51 -48
-67 -25 -97 34 -45 9 -57 -50 -23 -21 13 -46 19 -60 17 -19 -4 -25 -1 -25 11
0 10 -5 22 -12 29 -17 17 -44 -2 -68 -52 -20 -38 -21 -48 -10 -80 11 -36 45
-76 62 -76 9 0 29 45 31 72 1 21 47 39 68 27 8 -4 36 -7 62 -5 63 3 89 28 86
81 -3 51 15 97 36 89 8 -3 15 -1 15 5 0 19 28 12 56 -14 15 -14 32 -24 38 -22
18 6 18 53 2 67 -9 7 -16 18 -16 25 0 18 -50 38 -65 25 -8 -7 -21 -7 -36 -2
-13 5 -30 7 -36 5z"/>
<path d="M1018 1625 c-26 -35 -24 -67 5 -63 13 2 21 -2 20 -9 -2 -7 2 -13 7
-13 6 0 10 -11 10 -25 0 -34 24 -23 36 18 7 26 15 33 42 35 17 2 32 6 32 9 0
3 -15 19 -32 37 -43 41 -95 46 -120 11z"/>
<path d="M1809 1614 c-6 -7 -9 -30 -6 -51 11 -77 20 -113 28 -113 17 0 33 46
35 100 2 50 -1 57 -22 67 -18 8 -26 8 -35 -3z"/>
<path d="M1159 1563 c-22 -5 -31 -41 -17 -67 7 -12 12 -30 12 -41 1 -22 32
-33 49 -16 13 13 10 101 -5 118 -11 13 -12 14 -39 6z"/>
<path d="M1933 1549 c-7 -7 -5 -27 5 -65 13 -44 13 -62 4 -88 -18 -50 -15 -66
13 -66 24 0 65 34 65 54 0 5 9 0 20 -12 12 -12 25 -22 29 -22 9 0 24 38 22 53
-1 5 3 6 8 3 5 -4 8 -26 6 -50 -6 -72 34 -83 52 -15 4 13 7 51 7 84 1 55 -1
60 -22 63 -13 2 -29 -2 -37 -8 -10 -8 -16 -7 -23 6 -7 13 -18 16 -45 11 -34
-5 -35 -4 -41 29 -6 27 -12 34 -29 34 -13 0 -28 -5 -34 -11z"/>
<path d="M1600 1523 c-2 -46 -15 -93 -31 -115 -26 -36 -26 -88 0 -88 10 0 24
7 31 15 7 8 19 15 26 15 12 0 12 4 -1 23 -14 22 -13 25 10 47 l25 23 0 -21 c0
-12 6 -22 13 -22 17 0 39 15 38 26 -1 5 6 17 14 27 19 22 19 30 -2 49 -20 17
-123 35 -123 21z"/>
<path d="M954 1485 c-15 -15 -22 -30 -18 -37 4 -7 7 -28 6 -48 -2 -26 3 -42
18 -55 11 -10 20 -24 20 -32 0 -9 8 -13 23 -11 18 2 22 10 23 38 0 19 -6 46
-14 59 -11 18 -12 29 -3 48 8 17 8 29 -1 43 -16 26 -24 25 -54 -5z"/>
<path d="M1090 1405 c-23 -24 -23 -27 -7 -36 9 -6 17 -17 17 -24 0 -8 4 -15
10 -15 5 0 18 -9 29 -21 19 -21 19 -21 -10 -48 -35 -34 -36 -40 -5 -76 25 -29
26 -28 53 24 16 30 16 51 1 51 -8 1 -6 6 5 14 13 10 18 24 15 48 -2 18 -5 35
-8 38 -3 3 -12 19 -20 35 -20 39 -49 43 -80 10z"/>
<path d="M1829 1414 c-17 -20 -20 -64 -5 -65 47 -5 70 13 59 46 -10 36 -33 44
-54 19z"/>
<path d="M1668 1369 c-30 -17 -20 -76 12 -73 8 0 23 2 33 2 11 2 17 11 17 28
0 15 -8 33 -17 40 -22 16 -23 16 -45 3z"/>
<path d="M2022 1308 c-7 -7 -12 -25 -12 -40 0 -26 -2 -28 -27 -22 -16 4 -30
10 -33 13 -3 3 -16 12 -29 19 -21 12 -27 11 -50 -6 -14 -10 -33 -31 -41 -46
-14 -25 -13 -28 4 -41 14 -11 22 -11 37 -2 16 10 23 8 42 -15 12 -14 31 -29
42 -32 19 -5 21 -2 17 30 -4 33 -3 35 14 26 12 -7 23 -6 35 1 13 8 23 5 44
-11 26 -21 26 -22 6 -22 -12 0 -24 -6 -27 -13 -2 -8 -27 -24 -54 -38 -27 -13
-50 -29 -50 -35 0 -19 28 -36 49 -29 29 9 61 -11 56 -35 -5 -26 28 -27 53 -2
22 22 55 118 46 133 -3 6 4 18 15 28 12 10 21 26 21 34 0 19 -28 36 -54 34
-13 -1 -22 7 -27 26 -13 46 -53 69 -77 45z m54 -96 c-17 -16 -18 -16 -5 5 7
12 15 20 18 17 3 -2 -3 -12 -13 -22z"/>
<path d="M1246 1291 c-2 -3 -7 -20 -10 -37 -4 -17 -18 -42 -32 -54 -13 -13
-24 -30 -24 -37 0 -20 25 -26 49 -13 20 10 20 9 10 -14 -15 -31 -5 -56 21 -56
21 0 27 -14 10 -25 -15 -9 -12 -51 5 -65 12 -10 19 -10 27 -2 7 7 19 12 29 12
22 0 13 46 -12 64 -15 10 -18 20 -13 43 5 26 2 32 -15 38 -25 7 -27 20 -6 29
8 3 15 15 15 27 0 13 8 31 17 41 24 26 6 53 -36 54 -17 1 -33 -2 -35 -5z"/>
<path d="M913 1279 c-13 -5 -23 -16 -23 -24 0 -14 -2 -15 -21 -1 -16 11 -28
12 -50 4 -39 -13 -37 -41 4 -78 42 -39 61 -39 55 0 -3 18 1 35 9 41 10 9 13 8
13 -5 0 -9 4 -16 8 -16 4 0 16 -13 25 -30 11 -17 27 -30 38 -30 17 0 19 5 14
38 -10 59 -25 100 -38 105 -7 2 -22 1 -34 -4z"/>
<path d="M1381 1171 c-22 -19 -27 -47 -12 -70 8 -12 12 -12 25 -2 13 11 19 11
31 1 19 -16 35 -4 35 26 0 47 -47 73 -79 45z"/>
<path d="M1054 1142 c-18 -12 -32 -46 -25 -62 7 -17 44 -18 63 -2 10 7 19 2
38 -24 38 -50 70 -56 70 -12 0 37 -32 78 -61 78 -15 0 -32 7 -39 15 -14 16
-29 19 -46 7z"/>
<path d="M950 1120 c0 -5 -5 -10 -10 -10 -6 0 -17 -6 -24 -12 -14 -13 -8 -32
23 -70 19 -24 30 -22 41 7 5 14 14 25 19 25 14 0 -11 46 -31 59 -12 7 -18 7
-18 1z"/>
<path d="M2064 950 c-78 -37 -88 -48 -64 -77 20 -25 70 -29 70 -5 0 21 43 32
57 13 16 -22 32 -5 38 39 4 35 -8 60 -29 60 -6 -1 -38 -14 -72 -30z"/>
<path d="M1204 942 c-18 -12 -26 -50 -14 -72 11 -21 50 -28 50 -8 0 6 7 19 16
29 32 35 -11 78 -52 51z"/>
<path d="M2047 823 c-6 -10 -10 -49 -8 -90 1 -26 5 -31 22 -30 36 3 60 84 33
112 -16 16 -40 20 -47 8z"/>
<path d="M1247 813 c-13 -13 -7 -50 11 -66 10 -9 40 -20 65 -23 39 -6 47 -4
47 9 0 18 -39 59 -50 52 -4 -3 -18 4 -30 15 -25 21 -33 24 -43 13z"/>
<path d="M1895 786 c-30 -22 -15 -51 29 -54 67 -6 114 16 69 31 -10 4 -32 13
-50 21 -25 11 -35 12 -48 2z"/>
<path d="M1800 752 c-15 -5 -30 -22 -30 -34 0 -4 14 -23 31 -42 38 -44 59 -39
53 12 -5 41 -31 72 -54 64z"/>
<path d="M1502 668 c-14 -14 -16 -58 -3 -58 5 0 16 -3 24 -6 14 -5 47 20 47
36 0 13 -30 40 -44 40 -6 0 -17 -5 -24 -12z"/>
<path d="M1959 653 c-9 -2 -22 -15 -29 -28 -11 -20 -11 -27 0 -40 18 -21 33
-19 59 9 19 20 21 28 12 45 -12 21 -14 22 -42 14z"/>
<path d="M590 3259 c0 -5 5 -7 10 -4 6 3 10 8 10 11 0 2 -4 4 -10 4 -5 0 -10
-5 -10 -11z"/>
<path d="M555 3205 c-5 -11 -17 -32 -27 -48 -11 -15 -18 -33 -15 -40 2 -6 10
2 18 18 7 17 19 38 27 47 8 9 12 23 9 30 -3 9 -7 7 -12 -7z"/>
<path d="M322 2580 c0 -19 2 -27 5 -17 2 9 2 25 0 35 -3 9 -5 1 -5 -18z"/>
<path d="M322 1800 c0 -14 3 -34 8 -45 l9 -20 -1 20 c0 11 -4 31 -8 45 l-8 25
0 -25z"/>
<path d="M436 1447 c3 -10 9 -15 12 -12 3 3 0 11 -7 18 -10 9 -11 8 -5 -6z"/>
</g>
</svg>
