<?xml version="1.0" standalone="no"?>
<!DOCTYPE svg PUBLIC "-//W3C//DTD SVG 20010904//EN"
 "http://www.w3.org/TR/2001/REC-SVG-20010904/DTD/svg10.dtd">
<svg version="1.0" xmlns="http://www.w3.org/2000/svg"
 width="270.000000pt" height="177.000000pt" viewBox="0 0 270.000000 177.000000"
 preserveAspectRatio="xMidYMid meet">
<metadata>
Created by potrace 1.16, written by Peter Selinger 2001-2019
</metadata>
<g transform="translate(0.000000,177.000000) scale(0.100000,-0.100000)"
fill="#000000" stroke="none">
<path d="M455 1464 c-158 -82 -256 -408 -225 -748 24 -270 103 -451 224 -511
l50 -25 800 0 c542 0 814 4 840 11 155 43 269 360 253 699 -13 269 -92 485
-203 560 l-38 25 -835 3 c-742 2 -839 0 -866 -14z m1485 -69 c0 -2 -14 -26
-30 -52 -37 -59 -75 -175 -96 -297 -24 -137 -15 -398 19 -527 24 -93 60 -176
99 -232 l20 -28 -731 3 -730 3 -37 35 c-42 40 -94 146 -117 240 -73 300 -14
713 120 831 l34 29 724 0 c399 0 725 -2 725 -5z m225 -26 c144 -127 198 -559
108 -869 -43 -149 -105 -230 -175 -230 -35 0 -47 6 -78 38 -46 49 -81 124
-111 237 -21 80 -23 112 -24 285 0 170 3 207 23 285 61 239 161 338 257 254z"/>
</g>
</svg>
