<?xml version="1.0" standalone="no"?>
<!DOCTYPE svg PUBLIC "-//W3C//DTD SVG 20010904//EN"
 "http://www.w3.org/TR/2001/REC-SVG-20010904/DTD/svg10.dtd">
<svg version="1.0" xmlns="http://www.w3.org/2000/svg"
 width="165.000000pt" height="216.000000pt" viewBox="0 0 165.000000 216.000000"
 preserveAspectRatio="xMidYMid meet">
<metadata>
Created by potrace 1.16, written by Peter Selinger 2001-2019
</metadata>
<g transform="translate(0.000000,216.000000) scale(0.100000,-0.100000)"
fill="#000000" stroke="none">
<path d="M735 2131 c-38 -17 -95 -72 -95 -91 0 -5 -28 -24 -62 -42 -88 -46
-187 -146 -231 -235 -36 -70 -75 -189 -66 -198 7 -6 221 -36 226 -32 2 2 10
30 18 61 19 71 46 125 86 171 48 55 59 57 114 29 78 -39 165 -27 227 33 25 24
29 25 58 13 43 -18 111 -86 135 -135 31 -63 33 -188 5 -253 -25 -59 -79 -112
-145 -144 l-45 -22 -32 32 c-64 61 -140 77 -213 43 -155 -72 -151 -289 7 -356
68 -28 144 -12 200 42 32 31 63 26 151 -20 146 -77 214 -239 176 -419 -27
-125 -115 -233 -226 -277 -31 -13 -34 -12 -60 19 -32 39 -95 69 -141 70 -40 0
-99 -24 -129 -51 l-21 -21 -31 23 c-47 34 -99 116 -126 198 -14 40 -25 79 -25
87 0 17 10 17 -120 -1 -58 -8 -108 -15 -111 -15 -9 0 9 -91 31 -156 43 -124
156 -249 281 -309 44 -21 84 -49 102 -71 74 -90 194 -96 282 -15 19 17 59 35
110 50 108 30 197 85 281 173 88 93 131 178 152 301 28 171 -13 329 -114 437
-56 59 -97 86 -177 115 l-59 22 32 13 c50 21 125 84 160 135 55 80 72 146 67
257 -4 89 -8 105 -42 175 -63 127 -165 213 -314 263 -42 14 -72 31 -89 52 -33
39 -95 68 -147 68 -22 0 -58 -9 -80 -19z"/>
</g>
</svg>
