<?xml version="1.0" standalone="no"?>
<!DOCTYPE svg PUBLIC "-//W3C//DTD SVG 20010904//EN"
 "http://www.w3.org/TR/2001/REC-SVG-20010904/DTD/svg10.dtd">
<svg version="1.0" xmlns="http://www.w3.org/2000/svg"
 width="161.000000pt" height="222.000000pt" viewBox="0 0 161.000000 222.000000"
 preserveAspectRatio="xMidYMid meet">
<metadata>
Created by potrace 1.16, written by Peter Selinger 2001-2019
</metadata>
<g transform="translate(0.000000,222.000000) scale(0.100000,-0.100000)"
fill="#000000" stroke="none">
<path d="M840 2134 c-45 -20 -77 -50 -101 -96 -11 -21 -25 -38 -32 -38 -38 0
-161 -74 -229 -138 -53 -50 -83 -71 -109 -76 -133 -24 -200 -178 -125 -289 23
-33 23 -36 10 -103 -23 -124 -37 -343 -30 -484 12 -223 44 -368 110 -500 25
-50 32 -74 28 -103 -13 -113 100 -222 212 -202 62 11 94 10 171 -8 125 -30
290 -16 383 32 32 16 47 19 67 11 38 -14 90 -12 133 5 97 41 146 149 108 240
-13 31 -12 40 10 105 67 198 47 429 -52 591 -48 80 -153 174 -238 215 -39 19
-78 34 -88 34 -10 0 -35 16 -57 35 -70 63 -138 79 -209 50 -44 -19 -79 -50
-98 -87 -8 -15 -33 -37 -57 -49 -23 -12 -77 -57 -119 -99 l-77 -78 5 71 c3 40
10 110 15 157 10 83 11 86 54 123 56 48 80 108 71 175 -6 48 -6 50 45 101 28
28 68 60 90 72 l40 20 52 -25 c61 -31 107 -32 165 -6 39 18 47 18 70 6 30 -16
94 -80 110 -110 7 -14 6 -29 -4 -52 -39 -92 7 -202 101 -245 153 -71 315 91
249 249 -18 44 -56 86 -93 102 -14 7 -44 40 -66 73 -47 72 -141 148 -215 174
-34 12 -51 24 -54 39 -9 36 -57 85 -101 105 -48 22 -98 23 -145 3z m-99 -1041
c20 -24 89 -53 127 -53 40 0 99 24 129 52 20 18 26 19 52 9 49 -21 121 -98
151 -164 50 -107 61 -254 28 -385 -9 -36 -17 -45 -52 -61 -55 -25 -85 -60
-106 -123 -15 -44 -25 -56 -56 -71 -49 -25 -166 -32 -223 -15 -39 12 -45 18
-62 64 -24 64 -64 102 -131 124 -52 18 -54 20 -76 81 -74 204 -14 423 145 528
54 36 56 36 74 14z"/>
</g>
</svg>
