<?xml version="1.0" standalone="no"?>
<!DOCTYPE svg PUBLIC "-//W3C//DTD SVG 20010904//EN"
 "http://www.w3.org/TR/2001/REC-SVG-20010904/DTD/svg10.dtd">
<svg version="1.0" xmlns="http://www.w3.org/2000/svg"
 width="231.000000pt" height="241.000000pt" viewBox="0 0 231.000000 241.000000"
 preserveAspectRatio="xMidYMid meet">
<metadata>
Created by potrace 1.16, written by Peter Selinger 2001-2019
</metadata>
<g transform="translate(0.000000,241.000000) scale(0.100000,-0.100000)"
fill="#000000" stroke="none">
<path d="M1395 2291 c-94 -43 -140 -153 -101 -244 l13 -33 -366 -516 c-362
-511 -366 -517 -401 -518 -44 -1 -108 -30 -137 -61 -91 -99 -56 -251 69 -304
21 -8 52 -15 70 -15 40 0 106 30 132 59 19 21 24 21 348 21 l328 0 0 -164 c0
-110 -4 -167 -11 -172 -19 -11 -49 -87 -49 -124 0 -19 9 -53 19 -75 70 -151
272 -151 342 0 10 22 19 56 19 75 0 44 -29 108 -64 139 -26 24 -26 25 -26 173
l0 148 74 0 c56 0 77 -4 87 -17 20 -24 89 -53 127 -53 71 0 141 46 173 115 47
101 4 220 -96 266 -77 36 -167 13 -221 -55 -27 -34 -32 -36 -86 -36 l-58 0 0
528 c0 528 0 529 21 548 55 49 73 147 40 219 -45 98 -152 140 -246 96z m-48
-1388 c-2 -2 -138 -2 -301 -1 l-297 3 298 425 298 425 3 -424 c1 -233 1 -426
-1 -428z"/>
</g>
</svg>
