<?xml version="1.0" standalone="no"?>
<!DOCTYPE svg PUBLIC "-//W3C//DTD SVG 20010904//EN"
 "http://www.w3.org/TR/2001/REC-SVG-20010904/DTD/svg10.dtd">
<svg version="1.0" xmlns="http://www.w3.org/2000/svg"
 width="179.000000pt" height="237.000000pt" viewBox="0 0 179.000000 237.000000"
 preserveAspectRatio="xMidYMid meet">
<metadata>
Created by potrace 1.16, written by Peter Selinger 2001-2019
</metadata>
<g transform="translate(0.000000,237.000000) scale(0.100000,-0.100000)"
fill="#000000" stroke="none">
<path d="M895 2201 c-35 -15 -85 -61 -97 -88 -1 -4 -35 -18 -74 -31 -135 -42
-244 -134 -306 -256 -31 -61 -68 -190 -68 -236 0 -27 2 -27 78 -34 42 -3 95
-9 118 -12 l41 -6 5 65 c10 121 80 232 179 282 l47 24 18 -21 c26 -28 92 -58
132 -58 40 0 99 24 130 53 23 21 23 21 58 2 49 -26 122 -107 146 -162 15 -34
21 -68 21 -122 0 -143 -63 -254 -247 -437 -66 -66 -191 -179 -276 -251 -175
-147 -313 -282 -366 -359 -33 -48 -39 -52 -61 -43 -36 13 -79 11 -121 -6 -161
-68 -161 -292 0 -360 21 -8 52 -15 70 -15 38 0 107 29 127 53 12 15 64 17 567
17 l554 0 0 120 0 120 -470 0 -471 0 11 20 c24 45 154 171 335 324 338 287
460 416 529 561 44 91 60 162 59 260 -2 144 -66 284 -171 375 -50 43 -165 104
-219 115 -18 4 -33 10 -33 15 0 19 -57 74 -95 91 -51 24 -99 24 -150 0z"/>
</g>
</svg>
