<?xml version="1.0" standalone="no"?>
<!DOCTYPE svg PUBLIC "-//W3C//DTD SVG 20010904//EN"
 "http://www.w3.org/TR/2001/REC-SVG-20010904/DTD/svg10.dtd">
<svg version="1.0" xmlns="http://www.w3.org/2000/svg"
 width="128.000000pt" height="223.000000pt" viewBox="0 0 128.000000 223.000000"
 preserveAspectRatio="xMidYMid meet">
<metadata>
Created by potrace 1.16, written by Peter Selinger 2001-2019
</metadata>
<g transform="translate(0.000000,223.000000) scale(0.100000,-0.100000)"
fill="#000000" stroke="none">
<path d="M725 2161 c-98 -45 -139 -151 -98 -253 l17 -42 -94 -88 c-97 -92
-211 -174 -317 -227 l-63 -31 0 -110 c0 -91 3 -110 15 -110 41 0 310 155 413
237 l42 34 0 -745 0 -746 120 0 120 0 0 863 0 862 36 29 c115 92 89 273 -48
331 -49 20 -94 19 -143 -4z"/>
</g>
</svg>
