<?xml version="1.0" standalone="no"?>
<!DOCTYPE svg PUBLIC "-//W3C//DTD SVG 20010904//EN"
 "http://www.w3.org/TR/2001/REC-SVG-20010904/DTD/svg10.dtd">
<svg version="1.0" xmlns="http://www.w3.org/2000/svg"
 width="559.000000pt" height="501.000000pt" viewBox="0 0 559.000000 501.000000"
 preserveAspectRatio="xMidYMid meet">
<metadata>
Created by potrace 1.16, written by Peter Selinger 2001-2019
</metadata>
<g transform="translate(0.000000,501.000000) scale(0.100000,-0.100000)"
fill="#000000" stroke="none">
<path d="M2187 4824 c-20 -21 55 -136 121 -188 44 -34 90 -76 163 -150 44 -44
72 -65 80 -60 9 5 -5 23 -44 60 -32 30 -57 55 -57 58 0 2 -15 19 -32 38 -85
88 -148 174 -154 211 -6 34 -9 37 -39 37 -17 0 -35 -3 -38 -6z"/>
<path d="M373 4743 c-24 -9 -13 -52 30 -113 23 -34 53 -79 67 -99 14 -21 33
-46 43 -55 9 -10 22 -27 28 -38 6 -12 20 -31 31 -42 10 -12 44 -59 74 -105 65
-99 140 -197 195 -252 21 -21 39 -47 39 -57 0 -9 15 -31 33 -48 17 -17 37 -38
42 -46 39 -60 128 -168 159 -193 21 -16 61 -59 88 -95 28 -36 59 -74 70 -85
10 -11 54 -57 98 -103 44 -46 80 -87 80 -92 0 -5 4 -10 9 -12 6 -1 50 -42 99
-90 l89 -88 -19 -67 c-36 -124 -58 -247 -59 -335 -1 -49 -4 -88 -8 -88 -4 0
-43 35 -88 78 -45 42 -87 83 -95 89 -7 7 -17 17 -23 23 -5 5 -26 24 -45 41
-80 71 -140 131 -140 139 0 4 -4 10 -9 12 -23 8 -216 204 -218 222 -4 24 -20
44 -53 65 -14 9 -25 21 -25 28 0 6 -21 34 -47 61 -27 28 -48 54 -48 57 0 6
-113 139 -131 155 -3 3 -24 30 -46 60 -23 30 -59 74 -82 97 -23 23 -41 47 -41
54 0 6 -20 44 -45 84 -44 70 -70 90 -101 78 -30 -11 -13 -47 46 -102 33 -31
60 -62 60 -68 0 -7 4 -13 9 -13 5 0 12 -8 15 -17 4 -10 26 -40 51 -67 25 -26
45 -51 45 -55 0 -3 20 -29 45 -56 25 -28 45 -56 45 -62 0 -7 4 -13 9 -13 5 0
29 -28 54 -62 25 -35 74 -93 110 -130 36 -36 89 -98 117 -137 28 -39 56 -71
61 -71 11 0 339 -332 339 -343 0 -5 4 -6 9 -3 4 3 26 -14 48 -37 43 -45 122
-117 129 -117 15 0 45 -39 49 -65 9 -52 13 -265 5 -265 -12 0 -170 172 -170
185 0 6 -12 18 -26 25 -32 17 -60 2 -56 -30 3 -26 12 -36 79 -82 29 -20 72
-57 97 -82 24 -25 49 -46 55 -46 13 0 36 -45 44 -88 26 -134 26 -425 1 -428
-5 -1 -27 10 -49 25 -22 15 -53 33 -69 41 -15 8 -38 25 -50 37 -11 13 -28 23
-36 23 -8 0 -21 9 -28 20 -7 11 -18 20 -25 20 -6 0 -36 23 -65 50 -30 28 -57
50 -60 50 -4 0 -47 38 -97 85 -49 47 -95 85 -102 85 -7 0 -13 4 -13 8 0 10
-46 57 -145 151 -64 60 -129 135 -167 191 -9 14 -31 41 -49 60 -45 50 -116
152 -128 183 -6 15 -18 30 -26 33 -21 8 -65 -22 -65 -45 0 -28 125 -174 202
-237 7 -6 22 -23 33 -38 77 -107 82 -112 314 -336 93 -90 129 -121 181 -157
25 -17 79 -61 120 -97 41 -37 95 -79 120 -93 25 -15 51 -33 58 -40 7 -7 23
-13 35 -13 12 0 44 -17 70 -36 47 -34 49 -37 43 -72 -3 -20 -10 -75 -15 -122
-11 -98 -14 -117 -24 -126 -4 -4 -7 -18 -7 -30 0 -13 -4 -25 -9 -28 -5 -3 -16
-39 -26 -80 -9 -41 -25 -86 -36 -99 -10 -14 -19 -30 -19 -36 0 -15 -132 -275
-145 -283 -5 -4 -6 -8 -1 -8 5 0 2 -7 -5 -17 -8 -9 -13 -18 -12 -19 5 -8 -31
-82 -54 -109 -14 -16 -46 -62 -71 -102 -66 -102 -197 -252 -264 -304 -40 -30
-58 -51 -58 -66 0 -29 25 -52 50 -46 31 8 240 219 240 243 0 4 6 13 14 19 8 7
24 31 36 54 12 23 32 53 44 67 13 14 33 42 45 63 13 21 28 43 35 50 7 6 23 35
36 62 13 28 40 77 61 110 21 33 41 74 45 90 4 17 10 35 14 40 4 6 10 22 14 38
4 15 20 49 36 76 17 26 30 52 30 56 0 4 7 21 15 38 14 31 18 46 51 177 8 36
19 72 24 81 7 14 26 96 33 148 2 14 9 27 15 29 7 2 51 -17 99 -41 49 -25 131
-65 184 -90 98 -46 161 -93 143 -105 -13 -9 -75 -148 -104 -232 -12 -36 -26
-74 -30 -85 -43 -102 -79 -344 -75 -500 5 -154 14 -310 21 -358 7 -43 28 -59
63 -46 19 8 23 15 19 44 -2 22 1 36 9 39 7 3 13 17 13 31 0 17 4 24 12 19 8
-5 9 0 4 17 -31 104 -52 247 -48 329 2 58 23 190 42 275 10 44 26 118 35 165
10 53 34 121 62 180 25 52 47 97 49 99 4 4 56 -16 146 -58 36 -17 73 -31 82
-31 8 0 17 -4 20 -9 3 -4 34 -18 68 -31 35 -12 88 -34 118 -48 30 -14 61 -25
68 -25 6 0 12 -4 12 -8 0 -3 12 -9 28 -12 57 -11 108 -27 147 -45 22 -11 65
-27 95 -37 30 -9 87 -30 125 -45 65 -26 129 -48 158 -54 7 -2 19 -6 27 -9 8
-3 40 -13 70 -22 30 -9 70 -23 87 -30 30 -14 63 -11 63 4 -1 18 -19 30 -50 34
-32 4 -134 30 -170 44 -8 3 -26 8 -39 10 -14 2 -32 8 -42 14 -10 5 -26 9 -35
9 -10 0 -25 7 -35 16 -9 8 -23 16 -31 18 -7 1 -19 5 -25 9 -7 5 -17 6 -22 3
-5 -3 -11 0 -14 8 -3 7 -22 17 -42 20 -21 4 -74 22 -119 40 -44 18 -95 35
-112 39 -17 3 -66 22 -107 41 -42 20 -82 36 -90 36 -7 0 -18 5 -23 10 -10 10
-131 58 -164 65 -9 2 -49 21 -90 43 -54 29 -74 45 -72 58 3 14 41 78 65 109 4
6 32 44 63 85 30 41 59 79 63 83 5 5 28 -1 51 -13 23 -12 68 -30 99 -40 31
-10 87 -34 124 -54 38 -20 75 -36 84 -36 8 0 27 -6 41 -14 15 -8 43 -21 62
-30 19 -8 50 -29 68 -46 27 -26 38 -30 62 -25 34 7 33 6 21 38 -7 18 -20 26
-48 32 -21 4 -56 16 -78 27 -22 10 -86 37 -141 58 -97 37 -168 72 -188 91 -6
5 -16 9 -23 9 -19 0 -93 34 -93 42 0 18 197 199 279 257 18 13 54 31 80 41 85
32 111 44 111 52 0 4 6 8 14 8 7 0 19 6 25 14 7 8 26 18 42 21 16 4 29 10 29
15 0 4 17 11 38 15 20 4 42 11 48 16 10 8 129 37 219 53 31 6 39 8 115 27 25
6 59 12 75 14 17 1 48 6 70 9 22 3 63 8 91 10 29 2 57 6 62 10 6 3 32 9 59 11
89 10 116 15 213 40 30 8 70 17 89 20 18 3 50 14 70 24 63 33 125 59 156 67
39 10 144 63 169 86 11 10 28 18 38 18 10 0 18 5 18 11 0 5 13 15 29 20 16 6
36 25 47 44 18 34 18 35 -2 54 -15 13 -25 16 -37 9 -9 -5 -17 -6 -17 -2 0 4
-6 0 -14 -11 -8 -12 -20 -16 -35 -12 -11 3 -21 2 -21 -3 0 -4 -12 -11 -27 -15
-16 -5 -32 -10 -38 -11 -5 -2 -62 -13 -125 -24 -125 -22 -302 -34 -445 -30
-11 1 -31 -2 -43 -5 -17 -4 -23 -2 -20 7 2 6 16 15 30 19 14 4 68 27 119 52
52 24 110 51 129 60 262 115 345 152 470 211 65 30 177 62 300 86 25 4 58 13
74 19 30 12 65 1 174 -57 24 -12 76 -39 115 -59 40 -20 76 -43 80 -50 9 -15
45 -17 65 -4 30 18 8 46 -53 67 -33 11 -68 24 -77 28 -9 4 -22 5 -28 1 -6 -4
-9 -1 -8 6 2 7 -20 21 -52 33 -30 11 -59 24 -65 28 -5 5 -19 15 -29 22 -17 12
-10 15 65 26 102 14 139 34 139 72 0 34 -29 55 -72 51 -18 -1 -82 -5 -143 -9
-60 -3 -114 -8 -118 -11 -5 -3 -33 -7 -62 -9 -46 -3 -61 1 -122 35 -123 67
-118 57 -67 126 24 33 61 80 82 104 20 25 44 54 52 67 62 91 88 123 93 117 4
-3 7 3 7 13 0 11 5 25 12 32 9 9 9 12 1 12 -7 0 -13 10 -15 23 -4 32 -52 36
-69 5 -7 -13 -29 -41 -51 -63 -21 -22 -38 -43 -38 -48 0 -4 -4 -6 -9 -3 -4 3
-47 -33 -94 -79 -48 -47 -91 -85 -96 -85 -5 0 -26 -15 -47 -34 l-37 -33 -71
36 c-39 20 -73 38 -76 41 -7 7 -40 26 -120 68 -36 19 -77 43 -92 53 -14 11
-29 19 -32 19 -7 0 -95 60 -114 78 -8 7 -18 10 -23 7 -5 -4 -9 -1 -9 4 0 6 -6
11 -13 11 -14 0 -55 39 -44 41 4 1 10 2 15 3 4 1 25 14 47 30 22 15 75 50 119
78 43 28 95 69 115 91 20 22 49 52 65 66 65 57 138 138 156 172 10 20 35 57
54 82 32 42 62 110 72 165 3 16 -3 29 -18 41 -20 17 -25 17 -54 3 -21 -10 -34
-24 -38 -42 -3 -19 -37 -55 -108 -117 -115 -99 -214 -176 -240 -186 -10 -3
-18 -10 -18 -15 0 -5 -15 -16 -32 -23 -18 -7 -42 -21 -52 -31 -18 -16 -37 -23
-58 -19 -5 0 -8 -4 -8 -9 0 -6 -7 -10 -15 -10 -8 0 -15 -4 -15 -10 0 -16 -56
-40 -102 -43 -10 -1 -18 -5 -18 -9 0 -4 -3 -7 -7 -6 -5 1 -21 -4 -38 -11 -79
-32 -99 -25 -191 64 -67 65 -101 92 -144 113 -19 9 -41 22 -48 29 -13 13 -42
18 -42 7 0 -15 91 -94 130 -112 25 -12 74 -48 108 -81 l62 -59 -30 -12 c-17
-7 -33 -10 -37 -7 -3 3 -12 0 -20 -8 -8 -8 -22 -15 -31 -16 -32 -1 -57 -7 -97
-23 -91 -35 -115 -25 -243 102 -35 34 -68 62 -72 62 -5 0 -13 6 -17 14 -4 7
-29 28 -54 45 -75 50 -76 53 -22 100 26 22 53 41 59 41 6 0 21 11 33 24 12 13
37 31 55 41 33 18 34 18 64 -3 51 -37 72 -26 26 13 -30 26 -28 45 7 62 87 41
120 58 164 84 28 16 66 36 85 45 95 43 137 62 156 68 26 8 36 50 21 83 -7 16
-15 22 -26 17 -9 -4 -28 -8 -42 -8 -14 -1 -32 -6 -40 -12 -8 -6 -36 -17 -64
-24 -27 -7 -59 -18 -70 -25 -11 -7 -38 -18 -60 -25 -22 -7 -57 -21 -77 -31
-21 -11 -45 -20 -55 -22 -10 -1 -49 -17 -87 -35 -37 -18 -71 -32 -75 -32 -3 0
-50 42 -102 93 -73 69 -107 111 -138 170 -29 52 -49 77 -62 79 -10 0 -24 1
-31 2 -20 2 -18 -38 3 -58 12 -10 36 -42 54 -70 18 -28 49 -64 70 -81 20 -16
56 -47 79 -68 22 -21 50 -40 62 -43 44 -11 0 -74 -52 -74 -8 0 -14 -4 -14 -8
0 -4 -12 -13 -27 -20 -16 -6 -48 -25 -73 -42 -25 -16 -63 -38 -85 -49 -22 -10
-49 -28 -59 -40 -11 -11 -23 -21 -28 -21 -7 0 -176 -107 -188 -120 -21 -22
-110 -90 -117 -90 -5 0 -15 -8 -24 -17 -8 -10 -36 -36 -63 -58 -79 -66 -138
-118 -171 -151 l-30 -31 -35 41 c-19 22 -53 61 -75 86 -54 61 -105 127 -105
136 0 5 -13 22 -29 39 -15 16 -65 80 -110 140 -45 61 -96 129 -114 151 -18 23
-41 68 -51 100 -27 85 -29 89 -69 92 -28 2 -38 -1 -47 -17 -9 -17 -7 -25 10
-43 11 -12 20 -27 20 -34 0 -13 129 -144 142 -144 4 0 8 -4 8 -10 0 -20 86
-134 112 -149 28 -16 45 -41 28 -41 -8 0 70 -112 91 -130 3 -3 19 -25 36 -50
17 -25 51 -64 75 -87 25 -22 55 -55 67 -72 l22 -31 -50 -59 c-27 -33 -66 -86
-87 -118 -21 -32 -49 -70 -63 -85 -13 -16 -22 -28 -18 -28 6 0 -22 -57 -71
-145 -6 -11 -17 -35 -24 -52 -7 -18 -16 -33 -19 -33 -8 0 -240 228 -285 280
-17 19 -42 44 -55 56 -13 12 -31 30 -39 40 -57 73 -99 124 -131 159 -21 22
-48 54 -60 70 -12 17 -42 49 -66 72 -24 23 -43 46 -43 51 0 5 -19 29 -42 54
-24 25 -50 56 -58 68 -8 12 -48 64 -87 115 -40 52 -73 98 -73 104 0 6 -4 11
-10 11 -5 0 -18 15 -27 33 -10 18 -30 50 -46 72 -67 97 -115 173 -122 194 -3
12 -24 59 -45 105 -31 66 -45 86 -67 93 -15 6 -34 8 -40 6z m2743 -398 c-36
-19 -47 -19 -22 0 11 8 27 15 35 15 9 0 3 -7 -13 -15z m-56 -32 c-1 -5 -14
-17 -30 -28 -16 -11 -63 -44 -105 -73 -41 -28 -80 -51 -87 -50 -23 5 -30 39
-11 53 19 14 86 48 123 63 14 5 41 16 60 25 40 18 50 20 50 10z m-258 -151
l28 -18 -101 -95 c-56 -52 -108 -101 -117 -110 -19 -17 -107 -115 -137 -150
-42 -51 -206 -276 -226 -309 -7 -12 -11 -11 -26 10 -9 14 -45 54 -79 89 l-63
65 26 30 c13 17 50 53 81 79 32 26 73 62 92 80 61 57 197 157 214 157 9 0 133
85 162 111 11 11 24 19 30 19 5 1 25 14 44 30 40 35 38 35 72 12z m109 -118
c13 -15 49 -45 79 -67 58 -43 210 -188 210 -200 0 -4 -9 -7 -21 -7 -11 0 -54
-11 -95 -25 -41 -14 -82 -25 -92 -25 -10 0 -22 -4 -28 -8 -5 -5 -31 -17 -59
-27 -27 -10 -68 -28 -91 -41 -22 -13 -47 -24 -55 -24 -26 0 -155 -108 -273
-229 -91 -92 -107 -96 -139 -41 -10 16 -24 30 -31 30 -23 0 -24 23 -2 61 41
70 61 101 89 137 15 21 37 50 50 67 65 87 400 425 421 425 7 0 23 -12 37 -26z
m1199 -44 c-24 -22 -48 -40 -52 -40 -4 0 -16 -8 -26 -17 -10 -10 -31 -27 -47
-38 -16 -11 -39 -31 -51 -43 -13 -13 -49 -41 -81 -62 l-58 -37 -27 20 c-16 12
-28 25 -28 30 0 10 142 77 164 77 8 0 18 5 21 10 4 6 37 26 73 45 37 18 83 48
102 64 19 17 40 31 45 31 6 0 -10 -18 -35 -40z m-388 -226 c42 -30 46 -39 21
-47 -10 -3 -56 -22 -103 -42 -47 -20 -92 -38 -100 -38 -8 -1 -21 -8 -28 -14
-22 -21 -43 -15 -84 27 -22 22 -44 40 -49 40 -5 0 -9 3 -9 8 0 13 110 44 138
38 18 -4 45 4 82 23 69 37 85 37 132 5z m-395 -77 c4 -7 32 -30 61 -51 48 -35
51 -40 35 -50 -24 -16 -120 -53 -158 -62 -67 -15 -361 -161 -420 -208 -22 -17
-51 -39 -65 -48 -23 -14 -43 -32 -150 -133 l-36 -33 -63 60 -63 60 43 44 c24
24 47 44 52 44 5 0 38 27 72 61 35 34 74 68 87 77 13 9 25 19 28 22 17 22 118
81 162 95 29 10 63 24 76 32 13 8 55 23 95 33 40 11 104 31 142 44 83 29 92
30 102 13z m567 -44 c33 -20 75 -47 92 -60 17 -13 34 -23 39 -23 4 0 51 -29
104 -64 53 -35 141 -87 196 -116 55 -29 102 -54 103 -56 2 -1 -16 -15 -40 -30
-88 -56 -115 -76 -178 -134 -36 -33 -96 -76 -134 -96 -38 -20 -115 -67 -171
-105 -57 -38 -109 -69 -116 -69 -10 0 -10 3 -1 12 19 19 14 56 -9 76 -44 35
-60 57 -71 97 -10 34 -50 107 -68 125 -3 3 -11 17 -18 31 -14 27 -151 100
-187 99 -11 0 -38 -11 -60 -23 -37 -21 -40 -26 -40 -67 0 -51 -15 -66 -30 -32
-5 12 -13 22 -17 22 -5 0 -8 6 -8 13 0 52 -103 86 -121 40 -7 -18 0 -30 36
-67 l43 -45 -14 -42 c-13 -38 -13 -48 3 -98 9 -31 26 -64 38 -73 29 -24 223
-101 254 -101 14 0 55 4 91 8 118 13 135 10 87 -15 -20 -11 -45 -20 -54 -20
-10 0 -31 -7 -48 -16 -30 -16 -154 -51 -210 -59 -16 -3 -41 -7 -55 -10 -14 -3
-52 -10 -85 -15 -33 -5 -91 -16 -130 -25 -38 -9 -77 -18 -85 -19 -8 -2 -37
-13 -63 -25 -27 -11 -52 -21 -56 -21 -8 0 -149 -71 -219 -110 -18 -10 -41 -25
-51 -34 -10 -9 -22 -16 -27 -16 -5 0 -22 -14 -38 -30 l-29 -29 -26 20 c-14 11
-47 35 -73 54 l-46 34 10 43 c5 23 15 56 22 73 8 16 26 62 42 100 15 39 31 75
36 81 4 6 20 33 34 60 14 27 37 61 51 76 15 16 22 31 18 39 -5 7 -4 10 3 5 5
-3 12 -1 14 4 2 6 19 -4 38 -22 20 -18 49 -42 64 -53 16 -11 50 -41 77 -67 26
-27 52 -48 56 -48 4 0 27 -18 50 -41 37 -35 45 -38 63 -29 31 17 21 40 -25 59
-22 9 -51 26 -65 38 -14 11 -68 58 -120 103 -99 86 -111 109 -72 138 30 21 74
56 101 79 47 41 120 93 129 93 4 0 18 11 30 25 12 14 31 25 42 25 12 0 53 18
93 39 40 22 86 42 103 44 16 3 49 14 71 26 23 11 61 24 85 27 23 4 61 19 83
33 22 14 46 26 54 27 8 2 25 5 38 9 13 3 23 1 23 -4 0 -5 24 -21 54 -36 30
-15 57 -33 60 -41 3 -8 10 -14 16 -14 13 0 110 -72 158 -117 43 -40 72 -43 72
-8 0 18 -7 26 -25 31 -14 3 -25 10 -25 15 0 5 -7 9 -15 9 -8 0 -15 4 -15 8 0
5 -11 14 -25 20 -14 7 -31 16 -38 22 -7 5 -49 39 -95 74 l-82 64 35 21 c20 11
47 24 61 27 13 3 29 15 35 25 5 11 14 19 20 19 5 0 27 11 47 25 20 14 38 25
41 25 2 0 31 -17 65 -37z m-1818 -53 c8 0 14 -6 14 -13 0 -7 29 -42 65 -78 36
-35 65 -68 65 -74 0 -10 -51 -116 -60 -125 -3 -3 -6 -12 -6 -20 -2 -19 -82
-260 -93 -280 -5 -9 -14 -43 -21 -75 -7 -33 -14 -66 -16 -73 -5 -17 -89 51
-236 191 -22 20 -44 37 -49 37 -16 0 -9 44 11 75 11 17 29 50 40 73 17 37 81
135 100 152 9 8 44 63 65 102 23 44 98 128 103 116 2 -4 10 -8 18 -8z m246
-271 c41 -44 47 -69 22 -89 -35 -30 -177 -299 -209 -397 -19 -60 -30 -71 -43
-46 -9 18 15 140 38 188 5 11 11 34 14 50 6 43 33 124 45 138 5 7 24 50 41 96
33 91 38 101 48 101 3 0 23 -18 44 -41z m2363 -120 c11 -5 29 -15 40 -24 17
-14 18 -17 5 -25 -8 -5 -24 -10 -35 -11 -38 -1 -120 -9 -148 -14 l-28 -5 42
51 c45 52 59 55 124 28z m-2211 -41 c9 -13 33 -34 56 -48 22 -14 40 -30 40
-36 0 -11 -56 -94 -70 -104 -4 -3 -23 -41 -43 -85 -76 -171 -107 -251 -109
-277 -1 -16 -5 -28 -9 -28 -8 0 -103 82 -107 93 -2 4 -17 14 -33 22 -37 20
-37 41 1 114 17 32 32 68 35 79 5 28 62 131 88 160 11 12 18 22 14 22 -11 0
98 107 110 109 7 0 19 -9 27 -21z m1866 -73 c-7 -8 -17 -15 -23 -15 -6 0 -2 7
9 15 25 19 30 19 14 0z m-40 -23 c0 -4 -5 -13 -11 -19 -6 -6 -8 -24 -5 -40 6
-27 8 -28 60 -25 38 3 60 10 72 23 9 10 25 19 36 19 10 0 26 4 36 10 20 11
186 40 222 39 29 0 36 3 -90 -50 -41 -17 -97 -42 -123 -55 -27 -13 -52 -24
-57 -24 -5 0 -21 -5 -37 -12 -15 -6 -31 -12 -34 -12 -4 -1 -42 -17 -85 -38
-44 -20 -99 -44 -124 -53 -25 -10 -62 -26 -83 -36 -22 -11 -43 -19 -49 -19 -5
0 -58 -24 -116 -54 -59 -29 -136 -64 -172 -77 -36 -12 -67 -26 -71 -31 -3 -4
-32 -21 -65 -38 -32 -16 -66 -34 -74 -40 -8 -5 -38 -19 -66 -30 -38 -16 -54
-29 -65 -54 -19 -41 -7 -63 33 -60 15 2 30 -1 33 -7 10 -15 34 -10 54 10 19
19 72 50 88 52 9 2 12 3 78 23 28 8 73 18 100 21 28 4 61 8 75 11 14 3 113 7
220 10 131 4 206 11 229 20 28 12 32 12 22 0 -11 -13 -154 -75 -221 -95 -19
-5 -75 -17 -125 -26 -49 -8 -101 -18 -115 -21 -14 -3 -86 -15 -160 -25 -74
-11 -153 -24 -175 -30 -37 -9 -190 -38 -225 -43 -9 -1 -20 -5 -25 -8 -6 -3
-32 -9 -58 -12 -27 -4 -69 -16 -94 -27 -24 -10 -54 -19 -64 -19 -11 0 -48 -14
-81 -30 -34 -17 -82 -36 -107 -42 -25 -6 -73 -25 -106 -42 -33 -18 -79 -40
-103 -51 -58 -25 -180 -134 -280 -249 -29 -33 -36 -37 -65 -31 l-32 6 24 -19
c27 -22 27 -22 -37 -101 -24 -29 -54 -76 -66 -105 -13 -28 -35 -64 -50 -81
-14 -16 -26 -33 -26 -37 0 -10 -144 62 -148 74 -2 4 -9 8 -15 8 -6 0 -18 6
-26 14 -9 7 -42 21 -73 31 -32 10 -58 22 -58 26 0 5 -7 9 -15 9 -8 0 -24 8
-34 18 -11 9 -36 30 -55 46 l-36 29 6 111 c5 100 -7 296 -22 354 -10 36 12 26
81 -38 35 -33 70 -60 76 -60 7 0 17 -6 23 -14 6 -7 36 -27 66 -43 30 -16 75
-44 100 -62 102 -72 152 -101 173 -101 13 0 28 -5 35 -12 7 -7 12 -8 12 -2 0
5 -29 28 -65 49 -121 73 -131 80 -181 116 -27 20 -62 44 -79 53 -42 23 -67 39
-83 53 -7 7 -25 16 -40 19 -31 8 -131 108 -130 133 0 9 -3 69 -6 133 -4 64 -3
119 2 121 8 5 89 -57 150 -116 27 -25 37 -29 50 -20 20 12 29 43 12 43 -10 0
-51 26 -87 55 -7 6 -40 30 -73 55 l-61 45 5 125 c5 140 24 264 50 327 21 50
21 50 116 -41 32 -31 61 -56 65 -56 3 0 12 -6 19 -12 7 -7 36 -33 65 -57 l52
-45 -6 -50 c-3 -28 -8 -67 -11 -86 -7 -40 -7 -227 -1 -314 5 -64 13 -73 60
-72 l32 1 1 86 c1 56 9 108 22 150 11 35 23 82 27 104 4 22 9 43 11 47 5 7
126 -79 132 -94 2 -5 9 -8 17 -8 25 0 37 -27 24 -52 -11 -20 -16 -39 -33 -109
-2 -8 -11 -32 -20 -53 -9 -21 -16 -51 -16 -66 0 -16 -5 -52 -11 -82 -16 -83
-29 -151 -34 -181 -7 -49 30 -127 61 -127 19 0 86 71 80 86 -7 18 34 115 45
108 5 -3 9 2 9 11 0 9 8 30 17 48 9 18 16 35 15 40 -1 4 1 7 6 7 4 0 18 18 32
40 14 22 28 40 33 40 4 0 23 16 42 35 l35 35 48 -35 c26 -19 61 -45 78 -59 17
-14 44 -30 60 -36 24 -9 31 -8 41 6 20 27 17 31 -41 58 -30 14 -58 31 -61 36
-4 6 -24 20 -47 31 l-40 20 33 25 c18 13 37 24 41 24 5 0 50 20 101 45 52 25
101 45 109 45 9 0 21 6 27 14 7 8 28 17 49 20 20 4 71 18 112 31 41 13 102 31
135 41 33 10 65 24 72 32 8 10 30 14 64 13 55 -1 106 13 196 54 29 14 61 25
71 25 10 0 27 7 39 15 12 9 48 24 80 34 58 19 250 108 275 128 7 5 42 26 78
45 36 20 92 52 125 72 62 37 75 41 75 28z m-2210 -337 c0 -14 -4 -25 -9 -25
-4 0 -6 11 -3 25 2 14 6 25 8 25 2 0 4 -11 4 -25z m320 -254 c0 -5 21 -20 46
-32 25 -13 48 -27 51 -32 3 -4 -21 -36 -54 -70 -32 -34 -78 -84 -101 -112
l-43 -50 7 40 c4 22 15 67 24 100 10 33 23 84 30 113 7 32 17 52 26 52 8 0 14
-4 14 -9z"/>
<path d="M2585 4370 c3 -5 15 -15 27 -21 16 -8 19 -8 16 2 -2 6 -14 16 -27 20
-14 6 -20 5 -16 -1z"/>
<path d="M2631 4326 c17 -18 79 -54 79 -47 0 10 -61 51 -75 51 -5 0 -6 -2 -4
-4z"/>
<path d="M4866 2380 c-48 -9 -86 -49 -86 -91 0 -21 -5 -29 -18 -29 -21 0 -99
49 -127 80 -21 23 -52 25 -77 6 -22 -16 -24 -56 -4 -56 8 0 28 -11 44 -25 17
-14 46 -32 66 -40 34 -14 36 -18 32 -52 -2 -20 0 -44 4 -52 4 -9 15 -34 26
-56 32 -69 64 -112 92 -124 15 -7 70 -36 122 -66 94 -52 96 -53 205 -60 157
-11 223 -9 239 4 10 9 20 9 33 3 23 -13 53 2 53 27 0 15 -49 61 -65 61 -17 0
-105 75 -132 112 -17 24 -43 55 -58 70 -15 15 -33 50 -40 80 -8 29 -23 59 -33
68 -11 8 -42 34 -71 57 -29 24 -70 48 -92 54 -21 7 -44 18 -50 26 -6 7 -14 12
-18 12 -3 -1 -24 -5 -45 -9z m284 -300 c0 -5 -5 -10 -11 -10 -5 0 -7 5 -4 10
3 6 8 10 11 10 2 0 4 -4 4 -10z"/>
<path d="M4035 2143 c-20 -20 -18 -33 8 -64 23 -26 114 -89 160 -110 15 -7 27
-16 27 -20 0 -4 9 -11 20 -14 16 -5 19 -12 14 -28 -30 -96 28 -255 111 -304
110 -65 197 -97 298 -109 58 -7 140 -25 152 -34 17 -12 81 -19 96 -10 9 6 22
4 37 -6 17 -11 27 -12 42 -4 11 6 21 14 21 18 9 47 5 54 -45 86 -103 66 -178
157 -226 275 -17 43 -45 94 -62 113 -16 18 -43 51 -58 74 -30 42 -54 61 -128
101 -60 32 -84 29 -131 -16 -32 -31 -41 -47 -41 -73 -1 -82 -34 -72 -150 44
-89 89 -120 106 -145 81z"/>
<path d="M3170 2071 c-43 -12 -39 -53 13 -112 34 -39 47 -63 52 -98 4 -25 13
-57 22 -70 8 -12 19 -53 24 -89 5 -37 14 -71 19 -76 6 -6 10 -16 10 -23 0 -12
22 -46 70 -111 14 -18 41 -40 60 -48 19 -9 51 -23 70 -32 19 -8 51 -16 70 -17
41 -2 119 16 122 27 0 4 1 14 2 21 1 6 7 18 14 26 12 12 18 12 40 -3 15 -9 62
-35 105 -57 76 -38 80 -39 104 -24 17 12 23 24 21 43 -2 22 -10 28 -43 34 -22
5 -58 17 -81 29 l-41 21 0 62 c0 35 -5 83 -12 107 -11 39 -20 48 -76 81 -36
21 -94 44 -136 54 -101 23 -213 70 -254 107 -11 11 -39 33 -62 49 -28 21 -44
41 -49 62 -3 17 -12 34 -18 38 -12 9 -12 9 -46 -1z"/>
<path d="M4120 1065 c-18 -22 28 -84 123 -164 59 -51 74 -68 64 -76 -8 -5 -12
-16 -10 -22 3 -7 0 -13 -6 -13 -16 0 20 -88 58 -143 36 -53 68 -79 166 -136
46 -27 82 -41 106 -41 19 0 67 -11 106 -24 l70 -24 109 20 c60 10 129 29 154
40 25 12 61 24 80 26 44 5 62 19 58 46 -2 13 -13 22 -33 26 -30 7 -52 18 -135
68 -25 15 -60 36 -79 47 -78 46 -116 81 -126 115 -5 19 -32 57 -59 85 -27 27
-55 60 -63 72 -9 13 -22 23 -31 23 -8 0 -34 11 -57 25 -83 48 -159 40 -223
-24 -36 -36 -40 -56 -15 -83 9 -10 14 -21 10 -24 -16 -16 -76 29 -125 94 -38
51 -95 102 -113 102 -9 0 -22 -7 -29 -15z"/>
</g>
</svg>
