<?xml version="1.0" standalone="no"?>
<!DOCTYPE svg PUBLIC "-//W3C//DTD SVG 20010904//EN"
 "http://www.w3.org/TR/2001/REC-SVG-20010904/DTD/svg10.dtd">
<svg version="1.0" xmlns="http://www.w3.org/2000/svg"
 width="533.000000pt" height="497.000000pt" viewBox="0 0 533.000000 497.000000"
 preserveAspectRatio="xMidYMid meet">
<metadata>
Created by potrace 1.16, written by Peter Selinger 2001-2019
</metadata>
<g transform="translate(0.000000,497.000000) scale(0.100000,-0.100000)"
fill="#000000" stroke="none">
<path d="M4009 4898 c-11 -17 -13 -39 -8 -83 10 -93 10 -259 -1 -312 -9 -49
-20 -112 -24 -149 -1 -11 -6 -25 -10 -32 -4 -7 -4 -12 0 -12 3 0 0 -7 -7 -16
-7 -9 -14 -21 -16 -28 -16 -79 -74 -157 -142 -193 -46 -24 -66 -28 -130 -27
-97 0 -195 42 -229 96 -12 19 -36 46 -53 59 -18 13 -55 47 -84 74 -53 51 -86
75 -106 75 -22 0 -40 -30 -36 -58 5 -29 27 -72 38 -72 6 0 64 -52 142 -128 46
-44 80 -99 80 -128 0 -8 7 -14 14 -14 41 0 67 -228 32 -278 -23 -33 -122 -89
-166 -95 -50 -7 -66 -30 -49 -70 8 -22 22 -33 46 -40 41 -11 91 -47 152 -112
52 -55 59 -78 28 -97 -11 -7 -20 -17 -20 -22 0 -11 -26 -31 -72 -56 -31 -17
-38 -26 -38 -50 0 -35 23 -50 89 -57 58 -6 90 -23 129 -67 29 -33 30 -38 26
-103 -5 -74 -28 -168 -44 -178 -6 -3 -10 -18 -10 -32 0 -29 -48 -134 -67 -146
-7 -4 -13 -14 -13 -22 0 -7 -14 -27 -31 -44 -32 -33 -33 -58 -1 -93 25 -29 45
-21 94 35 25 28 80 79 121 112 42 33 76 65 77 70 0 13 53 48 105 70 22 9 61
28 86 41 38 20 49 22 58 11 13 -16 16 -81 6 -160 -7 -69 3 -87 49 -87 41 0 52
9 60 47 5 21 20 39 47 57 21 15 39 30 39 35 0 9 38 26 82 35 38 8 113 -34 149
-83 15 -22 37 -45 48 -50 10 -6 22 -23 26 -38 10 -42 46 -123 55 -123 4 0 10
-30 14 -67 9 -92 16 -135 27 -155 5 -9 9 -26 9 -37 0 -10 3 -21 8 -23 4 -1 16
-25 27 -53 14 -35 27 -51 42 -53 35 -5 80 68 56 92 -7 6 -10 18 -16 61 -7 41
-19 75 -29 75 -5 0 -8 8 -7 18 1 9 -4 31 -11 47 -8 19 -13 82 -14 175 -1 189
4 247 26 269 9 11 15 21 12 24 -2 2 2 10 11 17 8 7 15 17 15 22 0 13 53 57 70
58 8 0 23 7 34 15 25 19 167 9 243 -17 24 -9 38 -9 58 0 51 23 21 101 -55 140
-28 15 -78 79 -103 133 -22 49 -16 165 13 239 25 65 64 108 137 152 52 32 72
61 60 92 -6 15 -87 36 -136 36 -23 0 -32 8 -53 48 -16 30 -25 60 -23 82 3 47
13 82 24 89 18 12 81 139 76 154 -11 28 -46 27 -107 -4 -40 -20 -73 -30 -101
-29 -23 0 -65 -1 -94 -4 -47 -4 -53 -3 -69 22 -25 38 -24 124 3 182 12 25 24
56 26 70 3 14 12 45 19 68 11 40 11 45 -5 57 -24 17 -69 5 -82 -22 -17 -34
-89 -113 -103 -113 -7 0 -20 -4 -30 -9 -78 -42 -93 -44 -149 -27 -57 18 -96
58 -107 111 -12 59 -18 91 -20 123 -3 24 -12 39 -31 52 -42 27 -48 44 -49 139
0 47 -4 91 -8 96 -3 6 -9 30 -13 55 -4 25 -9 49 -12 53 -3 5 -7 22 -8 37 -5
62 -69 93 -96 48z m135 -559 c9 -32 16 -69 16 -83 0 -13 7 -29 15 -36 8 -7 15
-18 15 -25 0 -44 137 -120 205 -112 37 4 121 26 155 41 12 5 15 -5 15 -56 2
-135 64 -211 164 -198 28 3 71 2 95 -4 48 -11 47 -9 30 -103 -9 -47 24 -147
59 -183 16 -17 32 -30 36 -30 3 0 12 -4 19 -8 10 -7 4 -18 -22 -46 -66 -73
-109 -175 -109 -261 -1 -113 23 -200 69 -262 l24 -32 -60 4 c-71 5 -109 -9
-189 -68 -68 -49 -76 -59 -97 -117 -9 -25 -19 -52 -22 -60 -3 -8 -4 -19 -3
-24 1 -5 -1 -16 -5 -25 -3 -9 -8 -31 -9 -49 -2 -18 -5 -35 -7 -37 -6 -6 -53
40 -81 81 -40 59 -135 106 -214 106 -46 1 -69 -5 -115 -30 -59 -32 -68 -30
-68 18 0 25 -28 72 -55 92 -18 13 -30 15 -68 6 -31 -6 -47 -15 -47 -25 0 -10
-6 -14 -19 -10 -12 3 -22 -1 -26 -11 -3 -8 -8 -12 -12 -9 -6 7 -106 -43 -111
-55 -2 -5 -9 -8 -17 -8 -7 0 -18 -7 -25 -16 -8 -8 -22 -20 -33 -25 -16 -9 -18
-8 -13 8 3 10 7 29 10 43 2 14 8 36 14 50 35 91 42 166 22 223 -8 20 -17 37
-21 37 -4 0 -9 10 -13 23 -3 15 -23 32 -51 47 -25 13 -45 27 -45 32 0 5 -4 7
-9 3 -5 -3 -12 -1 -16 5 -3 5 -2 10 3 10 14 0 54 98 56 136 1 18 -2 34 -6 34
-5 0 -8 5 -8 11 0 17 -110 148 -131 154 -24 8 -25 24 -1 32 38 14 80 55 106
104 26 46 28 59 27 151 0 56 -6 116 -12 135 -6 19 -9 36 -6 39 2 3 26 0 51 -6
92 -20 139 -15 220 24 59 28 82 45 101 76 14 22 29 40 34 40 11 0 51 84 51
108 0 11 10 30 23 44 17 19 23 37 23 79 1 30 7 72 13 92 l13 38 23 -26 c12
-15 30 -53 39 -86z"/>
<path d="M4130 3922 c-19 -1 -63 -16 -96 -32 -34 -17 -64 -30 -68 -30 -7 0
-110 -102 -149 -147 -15 -18 -24 -33 -21 -33 4 0 2 -6 -3 -12 -9 -11 -33 -75
-39 -103 -1 -5 -7 -30 -13 -55 -14 -58 -14 -135 -1 -180 6 -19 11 -53 11 -75
1 -22 4 -44 7 -50 4 -5 7 -12 8 -15 0 -3 9 -23 20 -44 19 -39 45 -73 114 -147
34 -36 154 -100 215 -115 17 -4 33 -12 37 -18 5 -6 8 -7 8 -1 0 6 36 9 92 8
51 -1 97 2 103 6 5 5 28 14 50 21 94 30 163 78 222 156 101 131 125 189 137
329 3 33 7 69 9 80 2 11 -2 45 -9 75 -7 30 -10 58 -8 62 3 5 1 8 -5 8 -5 0 -8
11 -6 25 1 14 -2 25 -6 25 -5 0 -11 11 -15 25 -3 14 -9 25 -13 25 -3 0 -19 21
-36 45 -16 25 -35 45 -42 45 -6 0 -18 7 -27 15 -16 16 -156 75 -178 75 -8 0
-18 3 -22 7 -3 4 -12 8 -19 9 -104 18 -154 24 -185 22 -20 -2 -53 -4 -72 -6z
m149 -102 c37 0 161 -44 172 -61 4 -7 11 -10 15 -6 7 7 107 -44 127 -66 18
-18 48 -86 62 -138 22 -83 7 -228 -32 -300 -47 -88 -137 -192 -175 -205 -10
-3 -18 -9 -18 -14 0 -5 -7 -7 -15 -4 -8 4 -15 2 -15 -4 0 -13 -127 -42 -165
-38 -56 7 -108 18 -134 29 -14 5 -28 11 -31 12 -52 15 -147 92 -159 129 -2 6
-12 20 -22 31 -28 31 -69 224 -58 277 23 119 82 238 120 238 7 0 10 3 6 6 -10
10 22 36 34 28 7 -4 9 -3 6 3 -8 13 99 71 161 87 28 7 57 9 70 4 13 -4 36 -8
51 -8z"/>
<path d="M1425 3984 c-144 -56 -190 -93 -235 -189 -60 -131 -62 -226 -5 -309
14 -20 25 -38 25 -40 0 -2 -26 -6 -57 -9 -32 -4 -69 -9 -82 -11 -32 -7 -86
-50 -108 -86 -9 -17 -21 -30 -25 -30 -4 0 -16 -30 -27 -66 -19 -59 -19 -69 -6
-100 8 -19 13 -38 12 -42 -1 -4 -44 -7 -95 -8 -70 -1 -97 -5 -111 -18 -9 -9
-20 -16 -24 -16 -3 0 -35 -21 -70 -47 -35 -27 -76 -56 -90 -66 -35 -25 -133
-155 -153 -202 -21 -52 -11 -154 21 -205 23 -37 72 -76 82 -66 3 3 17 -1 32
-8 37 -20 86 -23 105 -7 12 10 104 14 433 17 230 2 432 6 448 9 17 3 80 8 140
11 61 3 125 9 144 14 19 5 37 8 39 6 2 -2 -8 -23 -22 -45 -15 -23 -24 -41 -21
-41 3 0 -3 -10 -15 -22 -11 -12 -20 -30 -20 -41 0 -10 -9 -39 -20 -65 -31 -75
-43 -133 -40 -192 2 -30 3 -63 4 -72 0 -10 4 -18 9 -18 4 0 6 -4 3 -9 -3 -4 1
-17 9 -27 8 -10 15 -27 15 -36 0 -18 51 -61 85 -72 11 -3 30 -14 43 -24 22
-17 22 -19 7 -49 -8 -17 -22 -36 -30 -43 -18 -15 -20 -92 -4 -123 7 -12 26
-36 43 -53 32 -31 38 -33 186 -50 14 -2 49 -3 79 -3 29 0 60 -6 69 -13 12 -10
14 -10 8 -1 -6 10 17 12 107 8 95 -5 116 -3 127 10 22 26 27 17 33 -60 4 -42
12 -85 17 -95 17 -32 54 -24 100 21 36 36 107 76 167 93 15 5 28 0 45 -16 12
-13 35 -28 49 -35 37 -16 97 -71 114 -103 7 -14 34 -46 58 -71 167 -165 223
-216 255 -231 36 -17 37 -17 55 3 19 23 22 54 7 64 -6 4 -8 11 -5 16 4 5 2 9
-3 9 -5 0 -26 33 -46 73 -20 39 -45 88 -56 107 -11 19 -20 43 -20 52 0 19 5
20 125 23 68 2 204 29 251 50 27 13 97 62 116 82 4 5 19 20 33 35 36 39 47
102 31 166 -8 28 -21 58 -29 67 -8 8 -17 18 -19 22 -8 19 -70 43 -111 43 l-44
0 9 53 c9 56 3 133 -13 142 -5 4 -7 10 -4 15 3 5 -1 14 -8 22 -7 7 -18 20 -23
29 -17 32 -112 98 -155 109 -24 7 -44 11 -44 10 0 -1 -13 4 -29 10 -16 6 -49
11 -74 12 -43 1 -44 1 -39 32 9 63 -35 138 -92 158 -20 6 -57 12 -83 12 l-47
0 -7 55 c-4 31 -8 66 -8 78 -1 12 -4 25 -8 29 -5 4 -8 18 -8 31 0 13 -4 23
-10 23 -5 0 -10 6 -10 14 0 28 -45 97 -80 123 -19 15 -37 29 -40 33 -3 3 -18
10 -34 15 -23 8 -33 21 -47 62 -17 52 -47 102 -61 103 -4 0 -28 13 -53 29 -58
37 -175 54 -252 37 -42 -10 -42 1 -2 90 31 67 31 71 25 178 -6 108 -11 126
-52 172 -31 34 -130 104 -147 104 -8 0 -17 5 -19 10 -2 6 -12 12 -23 14 -11 2
-33 9 -50 16 -36 14 -167 4 -207 -15 -29 -14 -23 -25 -85 155 -20 57 -127 162
-182 179 -52 15 -128 13 -176 -5z m168 -87 c21 -9 45 -23 53 -32 25 -24 91
-161 89 -184 -1 -12 2 -21 5 -21 13 0 30 -113 26 -173 -3 -41 0 -62 11 -72 18
-18 14 -18 50 0 23 11 32 26 43 65 7 27 17 50 22 50 4 0 7 5 6 11 -2 6 10 20
25 32 21 16 39 21 75 19 81 -4 99 -8 138 -33 38 -23 53 -35 116 -91 l29 -26
-4 -99 c-4 -110 -4 -109 -36 -178 -22 -47 -30 -86 -34 -160 -2 -27 1 -30 28
-31 17 -1 46 6 65 16 22 11 64 17 115 19 105 2 160 -23 191 -88 12 -24 19 -52
17 -62 -7 -25 -72 -99 -88 -99 -7 0 -18 -7 -25 -15 -7 -8 -25 -15 -41 -15 -15
0 -30 -4 -33 -8 -5 -9 -68 -24 -176 -42 -36 -6 -87 -15 -115 -21 -27 -5 -79
-11 -114 -14 -35 -3 -80 -9 -100 -14 -20 -6 -61 -13 -91 -16 -30 -3 -77 -10
-105 -15 -68 -13 -121 -21 -175 -25 -25 -1 -70 -6 -100 -10 -116 -14 -709 -25
-790 -15 -28 4 -55 12 -59 18 -5 8 -41 16 -103 21 -16 2 -40 66 -41 107 -1 66
47 131 179 240 75 62 111 72 238 68 93 -2 113 -6 142 -26 19 -13 34 -26 34
-30 0 -5 7 -8 15 -8 8 0 15 4 15 9 0 5 8 17 18 27 20 21 25 77 5 70 -15 -6
-91 69 -104 102 -22 57 -1 133 47 171 28 22 117 36 168 27 21 -4 50 -22 76
-48 38 -39 43 -41 55 -25 7 9 17 17 24 17 6 0 11 9 11 21 0 27 -52 137 -80
169 -85 98 -94 199 -27 310 28 46 36 54 77 73 123 57 164 63 233 34z m879
-1895 c10 -15 23 -36 30 -46 34 -52 76 -122 77 -131 8 -36 63 -134 83 -147 23
-15 26 -15 40 0 23 26 57 52 67 52 5 0 11 4 13 8 6 15 75 52 97 52 14 0 25 -9
32 -27 20 -55 34 -83 41 -83 4 0 14 -17 23 -37 23 -54 119 -247 126 -253 9 -8
51 -112 47 -116 -11 -10 -168 164 -168 185 0 6 -6 11 -13 11 -8 0 -25 12 -39
28 -39 41 -75 72 -84 72 -4 0 -16 8 -26 17 -29 26 -82 17 -170 -27 -43 -22
-78 -37 -78 -33 0 4 -6 -1 -13 -11 -12 -17 -14 -17 -20 -2 -4 9 -2 16 4 16 6
0 9 6 6 13 -2 6 -1 21 3 32 4 12 0 34 -11 55 -10 19 -27 88 -39 154 -12 65
-26 129 -31 143 -15 40 -28 103 -20 103 3 0 14 -12 23 -28z m-22 -363 c0 -6
-4 -7 -10 -4 -5 3 -10 11 -10 16 0 6 5 7 10 4 6 -3 10 -11 10 -16z"/>
<path d="M1323 2274 c-7 -3 -10 -11 -7 -18 3 -7 -11 -45 -31 -84 -19 -39 -35
-73 -35 -77 0 -3 -17 -24 -37 -46 -47 -51 -52 -60 -57 -100 -5 -42 11 -87 32
-91 26 -5 85 41 116 91 18 30 29 62 32 100 9 113 14 150 24 176 19 50 6 66
-37 49z m-25 -220 c-9 -57 -43 -115 -80 -135 -35 -19 -20 40 30 117 26 40 50
74 53 74 3 0 2 -25 -3 -56z"/>
<path d="M930 2239 c0 -5 -5 -7 -10 -4 -13 8 -42 -14 -34 -26 3 -5 0 -9 -6 -9
-8 0 -23 -26 -35 -60 -12 -35 -29 -63 -57 -93 -29 -31 -49 -61 -58 -89 -28
-90 -29 -100 -17 -119 14 -22 35 -24 74 -7 64 29 97 94 112 219 5 37 20 92 35
123 25 53 27 76 5 76 -5 0 -9 -5 -9 -11z m-85 -260 c-22 -71 -81 -139 -86 -99
-1 6 -2 16 -3 23 -3 14 21 64 38 83 6 7 22 28 36 48 32 45 38 23 15 -55z"/>
<path d="M950 1785 c0 -8 -4 -15 -9 -15 -5 0 -15 -17 -21 -37 -7 -21 -18 -43
-26 -49 -7 -6 -27 -37 -44 -70 -18 -32 -38 -66 -45 -74 -19 -21 -44 -94 -42
-120 2 -36 32 -54 69 -44 25 7 40 22 60 59 14 27 25 52 23 55 -2 3 0 25 6 48
5 23 11 58 14 78 2 19 12 50 21 67 9 18 20 47 24 65 7 27 5 34 -11 43 -15 7
-19 6 -19 -6z m-68 -222 c-5 -10 -8 -34 -6 -54 5 -41 -27 -92 -51 -82 -29 10
-9 79 36 124 10 10 19 27 20 37 0 9 3 12 5 5 3 -7 1 -20 -4 -30z"/>
<path d="M1257 1653 c-4 -3 -7 -21 -7 -40 0 -18 -5 -33 -11 -33 -5 0 -8 -4 -5
-9 10 -15 -41 -102 -95 -165 -64 -76 -81 -110 -85 -170 -3 -64 3 -76 35 -76
66 0 129 93 148 220 7 49 24 123 38 166 14 42 23 86 19 96 -5 18 -25 24 -37
11z m-62 -289 c-7 -66 -17 -88 -59 -129 l-31 -30 -3 25 c-6 39 15 93 53 135
19 22 35 43 35 48 0 4 3 7 6 7 3 0 3 -25 -1 -56z"/>
<path d="M284 1492 c-6 -4 -14 -20 -18 -37 -9 -37 -53 -131 -70 -148 -43 -44
-92 -179 -79 -214 19 -50 57 -53 104 -9 18 16 32 47 43 93 9 37 22 82 28 98 5
17 14 48 18 70 9 51 19 74 42 104 20 26 24 51 8 51 -5 0 -10 -6 -10 -14 0 -8
-7 -17 -16 -20 -22 -8 -24 -8 -24 8 0 18 -13 27 -26 18z m-24 -189 c-7 -26
-14 -59 -15 -73 -6 -52 -15 -73 -40 -98 -21 -21 -28 -23 -35 -12 -5 8 -7 17
-5 20 2 4 6 19 9 34 3 15 14 42 25 59 12 18 31 53 44 78 12 26 24 45 26 43 2
-2 -2 -25 -9 -51z"/>
<path d="M471 869 c-19 -39 -50 -90 -68 -112 -18 -23 -33 -46 -33 -51 0 -5
-13 -22 -30 -37 -16 -16 -27 -29 -25 -29 3 0 0 -10 -7 -22 -19 -34 -35 -104
-32 -135 5 -45 50 -67 85 -40 20 16 73 106 66 113 -3 4 -1 18 5 33 5 14 12 37
15 51 12 66 44 170 66 219 25 53 26 81 3 81 -6 0 -26 -32 -45 -71z m-65 -236
c-21 -70 -47 -126 -61 -127 -5 -1 -11 15 -13 34 -2 27 7 49 39 98 23 35 44 61
46 58 3 -3 -2 -31 -11 -63z"/>
<path d="M1254 915 c-4 -9 -11 -15 -18 -14 -27 3 -34 -3 -39 -41 -3 -22 -17
-63 -31 -89 -14 -27 -27 -61 -30 -75 -3 -14 -14 -39 -25 -55 -11 -15 -24 -46
-29 -67 -5 -21 -11 -43 -13 -49 -2 -5 0 -25 4 -44 7 -33 8 -34 52 -29 25 3 51
11 59 17 23 19 59 157 49 187 -10 29 8 122 34 186 22 52 25 88 7 88 -8 0 -17
-7 -20 -15z m-53 -208 c-5 -13 -8 -45 -6 -72 3 -42 -24 -135 -39 -135 -30 0
-50 40 -27 55 6 3 9 13 9 23 -1 9 9 40 23 67 13 28 24 55 25 60 1 6 2 13 3 18
0 4 5 7 11 7 6 0 6 -9 1 -23z"/>
<path d="M830 656 c0 -16 -97 -213 -116 -236 -26 -31 -74 -136 -74 -161 0 -86
24 -109 86 -81 43 20 109 158 99 208 -6 32 0 55 47 203 17 52 18 65 7 72 -21
13 -49 11 -49 -5z m-45 -263 c-1 -44 -8 -80 -19 -103 -20 -39 -55 -80 -68 -80
-12 0 -10 74 5 107 9 23 79 143 82 143 1 0 0 -30 0 -67z"/>
</g>
</svg>
