<?xml version="1.0" standalone="no"?>
<!DOCTYPE svg PUBLIC "-//W3C//DTD SVG 20010904//EN"
 "http://www.w3.org/TR/2001/REC-SVG-20010904/DTD/svg10.dtd">
<svg version="1.0" xmlns="http://www.w3.org/2000/svg"
 width="545.000000pt" height="451.000000pt" viewBox="0 0 545.000000 451.000000"
 preserveAspectRatio="xMidYMid meet">
<metadata>
Created by potrace 1.16, written by Peter Selinger 2001-2019
</metadata>
<g transform="translate(0.000000,451.000000) scale(0.100000,-0.100000)"
fill="#000000" stroke="none">
<path d="M1662 4239 c-108 -10 -154 -32 -232 -114 -8 -8 -33 -33 -54 -55 -22
-22 -36 -40 -32 -40 3 0 -2 -17 -13 -37 -10 -21 -22 -54 -26 -73 -4 -19 -16
-54 -26 -78 -12 -28 -22 -80 -25 -136 -5 -77 -9 -124 -13 -146 -1 -2 -6 1 -13
8 -7 7 -24 12 -39 12 -15 0 -32 6 -38 14 -12 14 -118 19 -136 6 -5 -4 -48 -20
-94 -35 -81 -27 -94 -36 -135 -85 -18 -23 -87 -162 -90 -184 -1 -6 -4 -15 -8
-21 -22 -38 -24 -232 -2 -304 6 -22 5 -24 -17 -17 -13 3 -63 9 -110 13 -166
11 -270 -43 -317 -167 -28 -74 -31 -151 -6 -225 15 -47 31 -71 77 -116 70 -67
119 -84 267 -93 52 -3 127 -9 165 -13 79 -8 120 -8 255 0 52 3 187 9 300 12
311 10 393 14 420 20 14 3 79 8 145 11 104 4 181 12 297 29 19 3 28 -1 32 -13
4 -10 22 -35 41 -55 38 -41 44 -52 19 -43 -9 4 -22 2 -29 -4 -7 -6 -17 -10
-21 -8 -5 1 -23 -2 -41 -6 -73 -17 -133 -185 -103 -291 15 -52 80 -122 153
-165 52 -30 105 -39 228 -41 l116 -2 -4 -41 c-2 -23 -7 -52 -10 -66 -3 -14 -7
-54 -8 -90 -1 -36 -12 -102 -23 -147 -12 -44 -24 -101 -27 -125 -16 -134 -6
-124 -140 -133 -49 -4 -110 -8 -135 -10 -25 -2 -97 -6 -160 -10 -63 -3 -149
-10 -191 -16 -43 -5 -81 -9 -85 -7 -14 4 -110 -11 -249 -38 -71 -14 -164 -29
-205 -34 -41 -4 -91 -13 -110 -18 -63 -19 -223 -59 -339 -86 -66 -15 -161 -47
-228 -76 -63 -27 -119 -50 -124 -50 -6 0 -29 -9 -51 -20 -23 -11 -47 -20 -54
-20 -18 0 -54 -40 -54 -60 0 -9 8 -24 18 -32 15 -15 21 -14 63 7 26 12 55 25
65 28 11 3 73 26 139 52 66 25 152 54 190 65 39 10 86 24 105 29 64 19 204 50
300 67 89 15 131 23 302 60 37 8 100 16 140 18 40 2 73 4 73 6 0 7 74 12 255
20 113 5 223 11 245 14 93 14 212 18 219 8 9 -16 75 25 86 53 5 12 11 55 15
96 3 41 13 109 21 153 9 43 18 93 20 110 2 17 8 56 14 86 6 30 12 80 14 110 3
30 9 83 15 118 15 97 -20 144 -82 110 -30 -17 -38 -18 -152 -25 -91 -5 -103
-4 -140 17 -107 60 -148 111 -139 170 3 14 5 32 7 40 5 30 40 70 61 70 12 0
26 4 31 9 6 6 52 12 104 14 92 5 110 12 111 45 0 7 -6 15 -14 18 -8 3 -12 13
-9 25 3 11 0 19 -7 19 -6 0 -42 25 -78 56 -86 72 -106 113 -105 214 1 143 69
233 162 215 20 -3 43 -7 51 -7 8 0 21 -6 28 -11 34 -27 102 -18 102 13 0 10
-5 22 -10 25 -6 4 -8 15 -5 26 4 10 -1 44 -10 75 -9 31 -15 68 -14 83 1 14 -2
34 -6 44 -4 10 -3 29 4 43 6 14 11 32 11 40 0 24 59 154 92 202 41 60 103 118
132 126 34 8 75 -9 85 -37 5 -13 12 -54 16 -92 9 -92 22 -132 45 -138 23 -6
58 24 80 68 29 58 101 119 163 138 32 9 67 17 79 17 26 0 81 -56 74 -76 -3 -8
-1 -14 4 -14 6 0 10 -13 10 -29 0 -17 4 -32 10 -36 13 -8 8 -164 -6 -173 -6
-4 -14 -22 -17 -40 -7 -36 -36 -104 -48 -112 -5 -3 -12 -24 -17 -47 -9 -38 -7
-43 15 -61 30 -24 48 -20 92 19 20 17 45 29 61 29 27 0 66 -31 53 -43 -3 -4
-1 -7 5 -7 7 0 12 -6 12 -14 0 -8 5 -16 10 -18 23 -7 13 -168 -11 -168 -5 0
-9 -8 -9 -18 0 -10 -9 -28 -20 -40 -12 -12 -18 -22 -16 -22 15 0 -93 -94 -117
-102 -85 -30 -35 -133 52 -108 28 8 38 6 62 -13 36 -29 62 -91 60 -145 -1 -45
-36 -132 -58 -145 -7 -4 -13 -14 -13 -21 0 -24 -91 -66 -124 -58 -4 2 -14 -2
-20 -7 -7 -6 -26 -10 -42 -10 -16 1 -52 -2 -80 -6 -39 -6 -60 -4 -84 9 -18 8
-37 13 -43 9 -5 -3 -15 1 -21 9 -21 29 -100 29 -101 1 -1 -4 -6 -17 -12 -28
-12 -22 -21 -108 -28 -250 -2 -49 -7 -112 -10 -140 -4 -27 -8 -81 -10 -120 -2
-38 -6 -83 -9 -100 -2 -16 -7 -62 -10 -101 -7 -71 -10 -91 -21 -129 -10 -35
28 -72 82 -80 98 -14 118 -17 123 -20 5 -3 287 -66 445 -99 120 -25 169 -37
190 -46 11 -5 40 -14 64 -20 24 -6 55 -16 70 -22 35 -15 106 -42 161 -63 25
-9 63 -25 86 -36 22 -10 45 -19 51 -19 5 0 30 -11 54 -25 24 -14 51 -28 59
-31 8 -4 65 -40 125 -81 184 -122 227 -158 393 -322 119 -117 128 -125 166
-125 41 -1 41 -1 41 37 0 21 -3 41 -7 43 -5 3 -6 9 -3 13 2 5 -19 28 -48 52
-28 24 -87 78 -130 119 -43 41 -92 84 -110 94 -18 11 -43 32 -57 47 -14 15
-70 57 -125 93 -55 36 -104 69 -110 73 -36 28 -142 85 -205 112 -41 18 -83 36
-92 41 -10 6 -24 10 -31 10 -7 0 -40 13 -73 29 -32 15 -68 31 -79 34 -11 3
-72 21 -135 41 -63 19 -133 38 -155 42 -22 3 -76 15 -120 25 -44 10 -92 20
-107 23 -15 2 -32 7 -37 11 -5 3 -29 8 -53 11 -24 4 -72 17 -108 30 -36 13
-95 29 -132 36 -37 7 -70 18 -72 25 -3 7 0 63 5 125 6 62 13 138 14 168 2 30
7 93 11 140 5 47 8 97 8 113 1 15 3 27 6 27 3 0 4 24 4 52 -2 65 4 82 21 68
22 -18 253 -15 284 4 4 3 26 8 47 11 61 10 67 11 105 28 20 9 47 27 60 41 l24
25 235 -5 c129 -3 236 -9 238 -14 2 -4 22 -3 45 2 23 5 62 9 87 8 25 -1 47 -1
50 0 3 1 19 3 35 5 84 10 209 35 214 42 10 14 62 34 72 28 5 -4 9 -2 9 3 0 5
16 20 35 33 55 37 90 118 88 200 l-2 67 42 7 c54 11 73 12 182 18 50 3 101 9
115 14 14 5 45 11 69 12 24 2 61 9 83 17 22 8 51 14 65 14 13 0 43 10 66 22
23 12 45 21 50 20 4 -1 7 3 7 9 0 6 14 30 30 53 29 40 30 46 26 119 -4 58 -10
84 -26 104 -11 14 -20 32 -20 39 0 8 -6 14 -14 14 -8 0 -24 8 -37 19 -20 16
-23 28 -24 87 -1 38 -4 78 -8 89 -3 11 -8 32 -11 47 -2 14 -13 35 -23 46 -10
11 -31 34 -47 52 -16 17 -53 42 -83 55 -29 13 -53 26 -53 30 0 3 9 25 21 50
15 31 21 63 20 102 -1 82 -3 93 -14 93 -6 0 -8 3 -4 6 3 4 -2 23 -13 44 -11
21 -16 40 -13 44 4 3 -5 19 -19 34 -14 15 -32 40 -39 57 -11 22 -35 40 -94 69
-72 36 -87 40 -155 40 -41 -1 -94 -7 -117 -14 l-41 -14 -44 45 c-24 24 -54 49
-68 56 -25 11 -61 25 -70 27 -3 1 -9 4 -15 7 -34 20 -105 30 -140 20 -21 -6
-41 -8 -45 -6 -17 10 -138 -62 -175 -105 -22 -25 -48 -51 -57 -58 -10 -7 -18
-20 -18 -28 0 -26 -27 8 -35 44 -3 18 -12 35 -19 39 -7 5 -21 20 -31 36 -9 15
-21 27 -27 27 -5 0 -19 11 -31 24 -34 38 -144 89 -191 89 -23 0 -45 3 -51 6
-10 7 -70 6 -140 -3 -22 -3 -61 -7 -87 -11 -38 -4 -48 -3 -48 9 0 8 -13 23
-30 33 -16 9 -30 21 -30 26 0 4 -4 6 -9 3 -13 -8 -60 17 -66 36 -4 12 -17 17
-43 17 -20 0 -51 4 -68 9 -47 15 -173 6 -193 -12 -10 -9 -40 -19 -67 -22 -49
-7 -104 -31 -104 -46 0 -4 -5 -8 -12 -8 -6 0 -35 -25 -64 -55 l-53 -55 -46 45
c-26 25 -49 45 -51 45 -3 0 -14 9 -26 20 -12 11 -28 20 -35 20 -7 0 -13 4 -13
9 0 5 -17 19 -37 31 -49 29 -153 40 -230 24 -75 -16 -73 -16 -73 0 0 7 -7 19
-16 26 -8 8 -21 28 -29 46 -7 18 -23 35 -34 39 -12 3 -21 11 -21 16 0 6 -4 8
-9 5 -5 -4 -31 5 -58 18 -64 33 -82 35 -191 25z m129 -221 c57 -25 67 -50 71
-175 2 -81 4 -92 21 -97 25 -6 66 10 87 34 10 11 21 20 24 20 4 0 14 7 22 15
9 8 25 15 38 15 12 0 27 5 33 11 13 13 109 7 173 -11 42 -12 140 -76 140 -91
0 -4 26 -34 59 -66 32 -32 66 -72 75 -88 10 -17 30 -52 45 -80 l28 -50 -28
-35 c-16 -19 -29 -40 -29 -47 0 -7 -4 -13 -10 -13 -5 0 -10 -8 -10 -17 0 -10
-11 -41 -24 -68 -31 -67 -50 -173 -48 -267 l1 -77 -42 1 c-57 1 -116 -17 -155
-45 -36 -27 -73 -71 -70 -84 1 -4 -4 -28 -12 -53 -7 -25 -14 -52 -15 -60 -10
-85 -12 -86 -150 -95 -49 -3 -114 -10 -142 -16 -29 -6 -57 -7 -63 -4 -6 4 -16
2 -23 -3 -7 -5 -48 -10 -92 -10 -44 0 -105 -3 -135 -7 -220 -23 -960 -38
-1001 -19 -151 68 -173 87 -163 141 19 99 138 137 300 95 100 -27 198 -18 234
20 17 19 18 24 6 37 -8 9 -18 28 -21 44 -4 15 -11 27 -17 27 -5 0 -7 4 -4 8 7
12 -15 92 -25 92 -5 0 -8 15 -7 33 1 19 -2 39 -5 44 -8 13 -20 81 -19 106 1
30 23 87 33 87 5 0 9 4 9 10 0 16 72 77 120 102 34 17 62 23 110 23 60 0 84
-7 150 -44 8 -4 40 -21 71 -37 54 -27 58 -27 82 -11 24 16 26 22 25 94 -1 43
2 92 6 108 4 17 9 68 12 115 6 102 24 168 75 275 42 91 58 109 115 129 46 16
82 12 145 -16z m1304 -140 c41 -16 60 -36 86 -99 13 -30 30 -59 39 -66 18 -15
75 -8 145 18 28 10 64 18 80 17 17 0 40 4 51 10 37 20 184 -1 184 -26 0 -5 11
-21 24 -35 13 -14 30 -39 37 -56 8 -17 18 -31 22 -31 5 0 5 -9 2 -20 -3 -11
-3 -20 2 -20 5 0 8 -12 7 -27 -1 -16 -3 -38 -3 -50 -1 -12 -12 -34 -25 -50
-30 -36 -30 -38 -9 -73 11 -20 25 -30 41 -30 25 0 52 21 52 41 0 7 3 10 6 6 3
-3 23 5 43 17 45 29 89 27 136 -5 29 -20 34 -29 33 -64 0 -22 -6 -47 -13 -55
-14 -15 -15 -19 -15 -45 0 -22 -59 -85 -75 -79 -7 3 -18 -4 -25 -15 -6 -12
-18 -21 -26 -21 -22 0 -64 -49 -64 -76 0 -35 10 -54 29 -54 19 0 52 -34 65
-65 13 -31 18 -95 7 -95 -5 0 -7 -9 -4 -20 3 -11 2 -28 -2 -37 -5 -10 -8 -21
-7 -25 2 -11 -60 -55 -83 -60 -26 -4 -31 -47 -11 -87 15 -28 19 -29 78 -29 35
0 92 -6 128 -12 36 -7 77 -13 91 -15 14 -2 35 -7 45 -12 11 -6 49 -18 86 -28
58 -15 70 -23 97 -60 17 -24 31 -56 31 -72 0 -15 7 -41 15 -57 30 -56 27 -73
-18 -112 -47 -40 -71 -52 -120 -57 -19 -2 -38 -7 -44 -10 -6 -4 -79 -6 -164
-6 -85 0 -201 0 -258 0 -62 0 -110 4 -118 10 -7 6 -23 9 -35 6 -29 -8 -50 10
-39 32 12 23 6 79 -13 123 -9 21 -16 41 -16 45 0 4 -16 28 -35 52 -19 24 -35
45 -35 47 0 2 18 27 40 56 22 29 43 64 47 78 3 14 9 30 14 35 8 11 25 134 20
150 -2 6 -5 24 -7 40 -8 66 -17 85 -62 135 -41 46 -53 53 -95 57 -53 6 -51 -2
-20 95 19 61 13 169 -16 278 -25 93 -39 113 -91 140 -61 30 -84 31 -179 6 -90
-24 -144 -55 -156 -88 -9 -26 -22 -22 -29 10 -15 60 -49 120 -80 138 -40 23
-57 26 -105 15 l-39 -8 -16 41 c-9 23 -16 47 -16 53 0 6 -6 13 -12 15 -24 8
107 150 162 176 64 30 168 34 235 10z m-411 -3 c-7 -16 -24 -21 -24 -6 0 8 7
13 27 20 1 1 0 -6 -3 -14z m1666 -195 c11 -6 20 -7 20 -3 0 4 9 -3 20 -15 11
-12 20 -28 20 -37 0 -8 4 -15 9 -15 4 0 11 -19 14 -41 4 -30 1 -46 -10 -58
-10 -9 -12 -16 -5 -19 8 -2 8 -10 0 -27 -9 -19 -7 -27 7 -42 27 -26 46 -22 83
17 18 19 43 46 56 60 13 14 49 38 80 53 43 22 63 27 91 21 19 -3 38 -10 41
-15 3 -5 15 -9 26 -9 12 0 36 -15 54 -34 31 -32 33 -39 30 -88 -2 -29 -9 -74
-15 -99 -11 -50 -69 -201 -80 -209 -12 -9 -38 -55 -49 -87 -12 -36 -4 -47 40
-58 17 -4 35 -1 50 9 13 8 43 22 67 31 38 13 47 13 70 0 14 -8 37 -20 51 -27
36 -19 53 -39 68 -79 19 -55 15 -70 -33 -124 -29 -32 -41 -53 -35 -59 6 -6 10
-18 10 -27 0 -21 32 -31 92 -29 32 1 53 -4 63 -14 19 -19 17 -25 -20 -57 -29
-25 -39 -28 -170 -44 -11 -2 -58 -11 -105 -20 -47 -10 -96 -20 -110 -23 -40
-8 -224 -9 -235 -1 -5 3 -25 10 -42 14 -21 4 -33 13 -33 22 0 9 -3 14 -6 10
-4 -3 -23 5 -43 18 -19 14 -41 25 -47 25 -6 0 -17 7 -24 15 -7 8 -26 15 -42
15 -16 0 -31 6 -34 15 -4 8 -10 12 -16 9 -5 -3 -26 5 -46 19 -20 13 -58 33
-84 45 -46 20 -56 31 -41 46 17 17 40 205 26 214 -18 12 -10 40 14 51 13 6 23
15 23 21 0 5 6 10 13 10 8 0 24 20 36 45 12 25 29 48 37 53 9 5 14 24 14 53 0
70 -3 99 -12 99 -4 0 -8 8 -8 19 0 34 -39 107 -75 139 -19 18 -35 37 -35 42 0
6 -9 10 -21 10 -16 0 -19 4 -13 22 13 43 65 104 112 130 49 28 108 31 152 8z"/>
</g>
</svg>
