<?xml version="1.0" standalone="no"?>
<!DOCTYPE svg PUBLIC "-//W3C//DTD SVG 20010904//EN"
 "http://www.w3.org/TR/2001/REC-SVG-20010904/DTD/svg10.dtd">
<svg version="1.0" xmlns="http://www.w3.org/2000/svg"
 width="561.000000pt" height="463.000000pt" viewBox="0 0 561.000000 463.000000"
 preserveAspectRatio="xMidYMid meet">
<metadata>
Created by potrace 1.16, written by Peter Selinger 2001-2019
</metadata>
<g transform="translate(0.000000,463.000000) scale(0.100000,-0.100000)"
fill="#000000" stroke="none">
<path d="M2000 4385 c-25 -8 -73 -29 -107 -47 -55 -28 -63 -36 -75 -75 -7 -24
-16 -43 -20 -43 -4 0 -7 -3 -6 -7 1 -5 -2 -19 -6 -31 -6 -19 -13 -22 -29 -17
-43 14 -246 -3 -284 -23 -10 -5 -45 -15 -78 -22 -33 -7 -77 -19 -98 -27 -48
-20 -123 -110 -137 -166 -6 -23 -15 -53 -19 -67 -4 -14 -6 -48 -4 -77 l4 -52
-37 -7 c-20 -4 -49 -13 -63 -20 -14 -8 -31 -14 -37 -14 -7 0 -35 -16 -64 -35
-29 -19 -55 -35 -59 -35 -3 0 -15 -12 -26 -27 -11 -15 -28 -35 -38 -45 -46
-47 -77 -255 -50 -334 15 -43 62 -93 131 -139 23 -15 42 -30 42 -34 0 -3 -20
-25 -45 -49 -25 -24 -44 -46 -43 -50 1 -4 -5 -32 -14 -62 -31 -102 -32 -142
-8 -198 26 -60 91 -124 145 -142 23 -8 69 -11 121 -8 73 4 84 2 79 -11 -10
-34 -8 -160 4 -226 32 -179 55 -231 118 -275 44 -30 154 -60 223 -60 68 0 236
54 253 81 6 10 17 19 24 19 7 0 13 4 13 8 0 5 17 18 38 30 29 16 42 31 51 62
10 35 15 40 33 34 11 -3 62 -8 113 -9 52 -2 102 -8 112 -13 10 -6 41 -36 68
-68 28 -31 55 -62 60 -68 72 -79 126 -150 144 -191 12 -27 36 -76 53 -108 16
-32 31 -68 33 -80 3 -11 8 -23 13 -26 5 -3 11 -17 14 -31 3 -14 18 -56 33 -95
14 -38 27 -75 29 -81 1 -7 6 -18 12 -25 11 -15 23 -53 53 -174 59 -239 40
-370 -61 -417 -23 -11 -64 -31 -90 -44 -26 -13 -56 -24 -65 -24 -10 0 -31 -7
-48 -16 -16 -9 -53 -25 -81 -35 -28 -11 -64 -31 -80 -45 -16 -14 -52 -41 -81
-60 -28 -19 -64 -45 -79 -59 -15 -14 -35 -25 -45 -25 -10 0 -20 -4 -23 -9 -16
-25 -185 -17 -258 13 -18 7 -38 11 -45 9 -7 -2 -48 3 -93 12 -89 18 -135 15
-247 -17 l-73 -21 -43 44 c-58 59 -104 100 -151 131 l-38 26 43 -2 c58 -3 92
18 123 75 28 50 35 129 15 171 -11 24 -79 78 -98 78 -6 0 -11 4 -11 9 0 6 -19
11 -42 13 l-43 3 31 19 c34 20 74 95 74 137 0 29 -33 87 -63 111 -34 27 -136
24 -173 -4 -61 -48 -143 -135 -158 -168 l-16 -35 4 48 c4 55 -33 217 -55 239
-28 28 -64 48 -85 48 -72 0 -169 -112 -166 -191 2 -38 16 -111 27 -141 5 -13
-8 -16 -78 -20 -92 -6 -168 -33 -186 -66 -15 -29 -14 -108 3 -140 19 -37 75
-89 109 -101 16 -6 45 -11 66 -11 52 0 55 -8 20 -44 -51 -51 -79 -127 -73
-194 6 -61 17 -84 61 -128 56 -56 165 -32 243 52 22 24 42 44 44 44 1 0 8 -17
14 -39 13 -41 97 -133 145 -157 69 -36 144 2 166 84 15 52 14 177 -2 215 -8
18 -17 45 -21 61 l-7 28 65 -46 c35 -25 67 -46 70 -46 2 0 18 -12 33 -28 16
-15 46 -41 66 -59 20 -18 37 -37 37 -43 0 -5 -36 -44 -80 -86 -77 -74 -107
-124 -94 -159 9 -22 -13 -27 -104 -26 -354 4 -413 4 -421 -5 -5 -5 -11 -20
-13 -34 l-3 -25 85 4 c47 2 110 5 140 6 30 1 78 -4 107 -10 29 -7 54 -10 57
-8 10 11 106 14 123 4 11 -5 35 -13 54 -16 72 -11 129 -27 129 -36 0 -21 40
-8 46 15 11 47 2 61 -38 58 -20 -2 -39 1 -43 7 -3 6 -19 11 -36 11 -34 0 -35
6 -9 40 21 27 26 56 10 62 -22 7 80 115 122 131 11 4 24 -5 40 -25 12 -17 28
-36 34 -43 16 -16 50 -85 58 -117 5 -21 12 -28 32 -28 32 0 42 26 21 59 -9 14
-27 46 -41 71 -13 25 -38 58 -55 73 -17 16 -31 32 -31 37 0 5 21 17 48 27 64
25 279 25 319 0 6 -4 39 -9 74 -13 35 -3 73 -10 86 -15 12 -4 31 -6 42 -4 33
6 24 -9 -18 -33 -61 -35 -74 -102 -19 -102 9 0 21 7 26 15 18 33 103 112 139
131 21 10 70 44 108 75 39 30 77 59 85 63 27 12 57 31 75 46 10 8 31 20 49 26
17 7 55 21 85 33 30 11 57 19 59 16 3 -2 -7 -9 -20 -14 -33 -13 -44 -55 -23
-88 30 -45 58 -73 74 -73 24 0 170 78 216 114 63 51 63 51 59 -5 -2 -27 -6
-54 -9 -58 -3 -5 -7 -28 -10 -51 -3 -23 -10 -50 -15 -60 -30 -57 30 -108 74
-64 24 24 76 101 76 113 0 6 4 11 9 11 5 0 12 11 15 25 4 14 11 25 16 25 5 0
21 38 36 85 25 81 35 97 49 76 3 -5 19 -13 36 -16 17 -4 46 -15 63 -25 17 -10
56 -23 86 -30 30 -7 60 -18 65 -25 13 -16 75 -30 75 -16 0 5 15 11 33 13 28 3
33 7 37 38 5 29 -1 43 -33 84 -21 27 -36 50 -34 52 7 7 91 17 127 16 136 -6
184 -14 245 -43 l43 -20 -26 -60 c-14 -32 -38 -73 -54 -91 -20 -23 -28 -42
-28 -71 0 -49 24 -48 53 3 10 19 22 37 26 40 7 6 45 83 61 124 8 21 14 26 28
21 9 -4 32 -11 50 -15 19 -5 41 -15 51 -24 10 -9 20 -13 24 -10 3 3 4 -2 3
-13 -4 -24 20 -83 44 -108 10 -11 29 -30 40 -43 18 -19 28 -22 63 -18 69 9 86
17 99 47 7 16 16 29 20 29 4 0 19 18 34 41 19 30 28 62 34 120 8 80 15 102 28
83 10 -14 102 -64 118 -64 8 0 14 -4 14 -9 0 -13 36 -12 82 1 31 9 42 20 63
62 29 59 33 140 9 191 -17 36 -84 95 -108 95 -26 0 -18 17 14 32 17 7 30 16
30 20 0 5 7 8 14 8 18 0 99 76 116 109 15 30 14 124 -1 154 -45 86 -104 90
-231 17 -51 -30 -113 -78 -152 -116 l-65 -66 4 79 c5 84 -3 122 -48 215 -34
71 -69 79 -155 34 -50 -26 -78 -58 -95 -106 -21 -64 -30 -158 -19 -206 l9 -41
-98 -5 c-105 -5 -122 -12 -184 -72 -36 -35 -47 -83 -31 -136 11 -34 56 -80 79
-80 10 0 40 -10 67 -21 31 -13 63 -20 85 -17 19 2 35 3 35 1 0 -9 -54 -53 -65
-53 -14 0 -66 21 -75 30 -3 3 -34 6 -70 7 -36 1 -142 4 -236 6 l-171 5 -41 43
c-23 24 -47 60 -53 79 -6 19 -22 58 -35 87 -21 46 -40 109 -73 243 -28 108
-39 290 -35 560 2 151 7 277 13 283 5 5 33 3 71 -7 155 -40 340 -2 441 91 24
22 94 159 103 203 12 54 33 103 46 110 10 5 19 7 22 5 2 -3 44 16 93 41 62 32
108 65 153 110 36 35 71 64 78 64 7 0 37 -24 67 -52 51 -51 128 -98 158 -98 8
0 24 -7 36 -15 12 -8 34 -16 50 -17 15 -1 33 -5 38 -9 14 -10 99 -23 145 -22
67 1 176 23 245 49 39 14 88 32 111 40 51 18 137 93 166 145 12 21 25 39 30
39 4 0 8 6 8 14 0 8 6 16 14 19 28 11 75 129 92 232 15 94 15 116 -2 263 -2
18 -24 75 -49 128 -25 52 -45 97 -45 99 0 2 -24 28 -53 57 -68 68 -163 109
-315 139 -78 15 -196 1 -304 -37 -40 -14 -84 -27 -97 -29 -13 -2 -28 -10 -33
-17 -7 -10 -11 -9 -23 6 -8 11 -15 29 -16 40 0 27 -30 101 -49 124 -9 9 -26
32 -39 50 -39 56 -158 96 -242 82 -24 -4 -71 -17 -103 -29 -61 -22 -91 -27
-82 -13 2 4 -12 32 -32 62 -31 46 -43 56 -74 61 -20 3 -48 13 -61 22 -14 9
-38 17 -54 18 -29 2 -164 -34 -196 -52 -10 -5 -39 -18 -65 -28 l-48 -19 -39
29 c-22 16 -57 40 -78 54 -21 14 -47 35 -59 47 -12 12 -29 22 -37 23 -9 1 -24
6 -34 10 -9 4 -68 8 -130 9 -98 1 -116 -2 -147 -20 -19 -12 -55 -29 -80 -38
-26 -10 -60 -30 -76 -46 l-31 -28 -12 52 c-18 72 -57 124 -111 150 -25 11 -47
23 -50 26 -25 25 -77 50 -134 64 -96 25 -163 28 -216 11z m260 -117 c144 -77
147 -79 163 -127 8 -25 15 -62 16 -81 2 -52 6 -66 19 -82 6 -8 8 -18 4 -22 -4
-4 9 -6 28 -4 21 2 34 8 33 15 -4 16 126 108 202 143 54 26 69 28 150 25 102
-3 133 -14 203 -70 56 -45 92 -92 92 -120 0 -10 8 -24 18 -31 20 -16 72 -18
72 -4 0 21 58 67 130 104 71 36 79 38 147 34 44 -3 82 -12 97 -22 28 -18 57
-74 47 -91 -8 -14 -1 -68 11 -82 16 -20 35 -15 68 17 17 17 35 30 41 30 6 0 8
4 5 9 -3 4 6 6 21 3 18 -3 30 1 39 13 19 26 173 28 225 3 121 -58 177 -242
135 -438 -20 -95 -29 -113 -84 -166 -66 -64 -73 -70 -104 -77 -15 -4 -28 -15
-30 -25 -7 -34 5 -75 23 -79 22 -6 53 -77 50 -117 -1 -27 -54 -135 -71 -146
-4 -3 -14 -19 -23 -35 -15 -29 -30 -43 -107 -99 -47 -34 -134 -76 -158 -76
-11 0 -25 7 -32 15 -16 19 -54 19 -70 0 -12 -14 -11 -22 7 -93 12 -47 -56
-211 -107 -260 -65 -62 -102 -79 -192 -89 -105 -10 -148 -5 -207 24 -31 15
-57 31 -59 36 -2 4 -9 7 -16 7 -27 0 -85 70 -106 129 -32 86 -64 92 -112 22
-70 -103 -247 -102 -345 3 -30 32 -45 59 -49 86 -7 42 -22 53 -60 44 -22 -6
-24 -11 -20 -43 2 -20 9 -51 15 -69 12 -40 4 -64 -38 -113 -24 -28 -37 -35
-55 -32 -18 4 -30 -3 -47 -26 -12 -16 -26 -28 -30 -25 -5 2 -24 -2 -45 -11
-32 -13 -44 -13 -112 0 -43 9 -86 19 -97 24 -11 5 -24 9 -30 10 -5 2 -15 7
-21 12 -6 5 -19 2 -32 -7 -16 -11 -20 -21 -16 -43 13 -62 -55 -144 -156 -189
-30 -13 -73 -32 -95 -42 -34 -15 -52 -16 -115 -8 -107 13 -158 40 -191 105
-15 28 -30 69 -33 90 -15 94 -17 181 -6 223 12 47 19 152 12 183 -7 27 -64 22
-90 -8 -21 -24 -30 -26 -114 -27 -48 -1 -122 36 -149 73 -33 47 -37 132 -8
199 23 54 84 131 104 129 42 -5 54 2 53 30 -1 15 2 33 6 40 8 13 -32 31 -51
24 -34 -13 -177 108 -191 162 -10 37 6 183 24 219 8 16 14 35 14 43 0 7 7 16
15 19 8 4 15 11 15 18 0 6 29 30 65 53 56 37 72 43 139 48 42 4 81 3 88 -2 7
-4 18 -8 23 -8 15 -2 35 16 30 25 -3 5 -1 11 5 15 16 10 12 33 -9 54 -26 26
-36 97 -20 152 6 24 13 54 15 66 4 31 32 58 77 72 20 7 37 17 37 22 0 5 8 9
18 9 9 0 40 9 67 19 98 37 231 44 290 14 l36 -19 2 -90 c1 -62 7 -99 20 -123
9 -19 17 -35 17 -36 0 -1 -16 -7 -35 -15 -19 -7 -37 -22 -41 -32 -3 -11 -18
-32 -34 -48 -64 -65 -79 -94 -94 -180 -16 -94 -13 -150 10 -205 14 -35 14 -41
-2 -77 -9 -21 -22 -38 -27 -38 -6 0 -8 -3 -4 -6 3 -3 -8 -38 -25 -77 -28 -67
-30 -77 -23 -152 12 -139 15 -152 51 -217 39 -70 69 -102 105 -113 13 -4 42
-16 65 -25 l40 -18 -6 -58 c-9 -79 0 -115 33 -134 24 -14 27 -13 41 5 8 11 11
24 7 30 -27 36 23 215 61 215 9 0 18 4 20 8 2 4 33 23 70 41 48 24 70 42 79
63 6 16 9 32 5 35 -10 10 -89 3 -100 -8 -6 -5 -17 -9 -25 -9 -9 0 -38 -22 -65
-49 -47 -47 -50 -48 -97 -44 -88 7 -167 57 -184 115 -4 13 -13 37 -20 54 -26
56 -26 153 -2 209 12 28 26 55 32 61 5 6 17 21 25 33 8 12 25 21 41 21 33 0
54 23 44 47 -5 10 -9 23 -9 28 -1 6 -14 23 -29 40 -96 101 -66 273 65 373 46
36 60 42 75 33 26 -14 60 -4 66 20 3 10 1 19 -4 19 -6 0 -6 8 0 19 8 15 6 24
-12 42 -68 70 -81 214 -30 334 23 53 39 76 69 97 58 41 89 48 189 41 74 -4
100 -11 145 -35z m2525 -548 c11 -5 45 -19 75 -31 130 -51 175 -85 224 -169
31 -52 46 -93 63 -165 14 -63 14 -190 0 -229 -9 -22 -18 -56 -22 -74 -8 -38
-24 -72 -45 -94 -8 -9 -24 -28 -35 -44 -25 -35 -121 -134 -130 -134 -3 0 -21
-11 -38 -23 -39 -29 -176 -84 -237 -95 -76 -14 -197 -5 -233 17 -18 11 -49 22
-69 26 -21 4 -38 11 -38 15 0 4 -13 13 -30 18 -32 12 -100 59 -113 80 -4 6
-19 23 -32 36 l-24 24 24 51 c31 63 32 123 4 192 l-20 53 33 30 c105 97 145
179 162 330 3 27 7 50 8 50 2 1 13 7 25 14 13 6 30 12 38 12 8 0 15 4 15 9 0
5 19 19 43 31 23 11 53 30 67 40 49 38 227 57 285 30z m-2208 -1421 c10 -10
128 -9 163 1 28 9 8 -127 -30 -200 -4 -9 -11 -31 -14 -50 -16 -76 -17 -75 -61
16 -92 190 -110 244 -83 244 8 0 19 -5 25 -11z m1573 -801 c31 -50 43 -106 41
-188 -2 -99 -15 -138 -49 -146 -15 -4 -32 -11 -38 -15 -13 -10 -102 70 -124
110 -15 29 -6 131 17 178 23 50 72 93 105 93 21 0 33 -8 48 -32z m478 -113
c25 -28 30 -92 11 -127 -30 -56 -120 -110 -204 -123 -55 -8 -71 -11 -107 -20
-17 -4 -28 -3 -28 3 0 6 -8 18 -17 27 -15 16 -15 19 1 49 35 63 110 129 211
183 73 40 104 41 133 8z m-3968 -30 c21 -26 43 -162 44 -280 1 -117 0 -120
-21 -121 -14 -1 -25 5 -28 17 -4 10 -12 19 -18 19 -20 1 -83 63 -102 100 -25
48 -44 132 -37 166 9 51 95 127 132 117 11 -3 24 -11 30 -18z m401 -95 c10 -6
19 -17 19 -25 0 -8 7 -15 15 -15 20 0 19 -13 -4 -59 -24 -45 -74 -92 -121
-111 -19 -8 -48 -27 -64 -42 -16 -15 -37 -28 -47 -28 -11 0 -28 -9 -39 -20
-11 -11 -28 -20 -39 -20 -15 0 -18 7 -16 38 2 20 10 51 19 67 9 17 16 36 16
43 0 7 7 15 15 18 8 4 15 11 15 18 1 15 36 54 92 99 34 28 53 37 68 32 11 -4
20 -2 20 4 0 14 26 14 51 1z m2914 -125 c11 -8 34 -26 50 -42 43 -39 31 -68
-48 -117 -58 -37 -63 -38 -121 -31 -102 11 -145 25 -166 55 -50 70 2 132 130
154 42 7 133 -4 155 -19z m261 -73 c2 -36 -1 -42 -18 -42 -12 0 -26 -7 -32
-15 -18 -23 -56 -8 -58 24 0 14 -2 33 -2 41 -2 24 26 39 68 37 39 -3 40 -4 42
-45z m-1156 -7 c0 -8 -2 -15 -4 -15 -2 0 -6 7 -10 15 -3 8 -1 15 4 15 6 0 10
-7 10 -15z m1425 -40 c66 -28 94 -91 74 -170 -11 -44 -37 -65 -81 -65 -52 0
-161 80 -217 159 l-20 27 25 19 c13 10 24 24 24 31 0 7 8 15 18 18 27 7 144
-5 177 -19z m-4035 4 c0 -5 4 -8 9 -5 5 3 26 -10 47 -29 21 -19 42 -35 46 -35
4 0 8 -6 8 -14 0 -8 8 -21 18 -28 9 -7 17 -24 17 -38 0 -19 -9 -29 -35 -41
-47 -21 -221 -11 -266 15 -44 27 -67 62 -59 94 11 51 37 73 96 82 80 11 119
11 119 -1z m696 -80 c44 -30 46 -33 41 -70 -3 -21 -15 -55 -28 -75 l-22 -37
-84 7 c-46 3 -91 11 -101 16 -9 5 -34 16 -55 24 -20 8 -40 23 -43 33 -3 10 -9
25 -14 35 -11 21 11 37 95 68 11 4 31 12 45 17 13 5 46 11 72 12 40 2 56 -4
94 -30z m3042 -29 c6 0 14 -10 18 -22 4 -13 12 -26 18 -30 7 -4 11 -43 12 -97
1 -115 -26 -172 -96 -207 l-45 -23 -42 47 c-27 30 -42 57 -43 74 0 47 64 200
108 254 23 30 28 32 42 19 9 -8 22 -15 28 -15z m-144 2 c-6 -4 -19 -34 -29
-67 -32 -102 -35 -105 -79 -90 -75 26 -76 36 -9 104 50 52 64 61 93 61 19 0
30 -4 24 -8z m-3266 -44 c19 -16 14 -35 -15 -56 -39 -27 -89 -19 -96 15 -2 14
-2 34 1 45 4 18 10 19 51 13 25 -4 52 -12 59 -17z m-142 -109 c3 -6 8 -40 10
-76 4 -57 1 -71 -26 -120 -42 -77 -105 -133 -148 -133 -44 0 -68 14 -87 50
-22 42 -19 89 10 146 34 68 62 92 137 119 73 27 94 29 104 14z m222 -27 c26
-25 40 -48 43 -77 1 -5 10 -28 21 -49 12 -24 22 -68 25 -111 5 -63 2 -76 -18
-108 -36 -55 -69 -56 -130 -5 -79 66 -92 95 -85 181 3 40 6 85 6 101 -1 33 15
56 39 56 9 0 27 9 41 20 14 11 26 20 26 20 1 0 15 -12 32 -28z"/>
<path d="M2875 3775 c-69 -17 -139 -49 -194 -89 l-46 -34 -31 27 c-27 24 -40
28 -100 30 -61 2 -77 -2 -136 -32 -135 -68 -185 -118 -217 -218 -32 -99 -25
-199 13 -199 29 1 38 20 43 91 2 41 12 90 20 109 14 31 56 80 69 80 3 0 15 9
27 20 12 12 41 32 65 46 36 21 51 24 85 19 60 -10 105 -33 113 -58 15 -50 37
-87 53 -87 27 1 51 26 51 54 0 15 7 37 15 50 42 63 184 128 229 104 32 -17
100 -90 115 -123 40 -89 41 -156 4 -198 -26 -29 -122 -89 -132 -82 -5 3 -21 0
-35 -6 -22 -11 -26 -19 -26 -56 0 -40 3 -46 29 -56 30 -11 30 -11 24 -76 -6
-73 -20 -108 -53 -131 -12 -8 -33 -25 -47 -38 -42 -39 -99 -62 -170 -68 -56
-5 -71 -4 -82 10 -17 20 -31 20 -59 1 -20 -14 -20 -19 -9 -46 l12 -30 95 -2
c83 -3 102 0 150 22 30 14 68 35 83 48 16 13 34 23 41 23 7 0 27 14 44 31 45
44 86 173 79 249 l-5 55 64 53 c81 67 99 105 98 202 -1 133 -75 255 -182 301
-24 11 -44 19 -45 18 -1 -1 -24 -7 -52 -14z"/>
<path d="M3701 3407 c-22 -22 -12 -65 21 -96 28 -26 31 -35 32 -88 1 -53 -4
-65 -47 -131 -67 -104 -109 -139 -174 -148 -13 -1 -31 -5 -41 -8 -11 -4 -39 5
-66 19 -39 21 -50 23 -67 12 -17 -10 -20 -19 -16 -56 3 -24 10 -47 17 -51 24
-15 -12 -149 -48 -177 -9 -7 -46 -27 -82 -45 -53 -26 -78 -32 -135 -32 -79 -1
-100 11 -126 72 -15 35 -43 48 -78 37 -51 -16 2 -125 84 -173 34 -19 51 -22
120 -20 71 3 90 9 166 46 47 23 95 51 106 61 31 29 66 90 60 105 -3 7 -2 17 3
22 5 5 10 26 12 46 2 36 3 37 52 43 119 16 227 101 275 215 40 97 54 155 47
198 -7 44 -52 152 -63 153 -5 0 -15 2 -25 4 -9 2 -21 -2 -27 -8z"/>
<path d="M5012 4208 c-6 -6 -12 -20 -12 -30 0 -25 -86 -177 -116 -206 -25 -24
-31 -47 -14 -57 6 -3 10 -14 10 -25 0 -22 17 -29 50 -20 17 4 30 20 47 60 12
30 21 63 19 73 -2 9 0 17 5 17 5 0 9 7 9 15 0 8 5 15 10 15 6 0 10 7 10 16 0
8 16 29 35 47 l35 32 -18 35 c-18 37 -49 49 -70 28z"/>
<path d="M4378 4182 c-21 -13 -28 -24 -28 -49 0 -18 4 -33 8 -33 15 0 36 -119
25 -143 -11 -25 -6 -85 9 -104 15 -19 46 -16 55 5 17 36 3 256 -19 315 -12 32
-14 32 -50 9z"/>
<path d="M5452 3831 c-33 -32 -67 -54 -101 -66 -49 -16 -71 -37 -71 -69 0 -21
28 -46 51 -46 24 0 119 60 119 75 0 12 47 35 71 35 20 0 51 38 43 52 -3 4 -7
18 -9 30 -5 22 -21 38 -41 38 -7 0 -34 -22 -62 -49z"/>
<path d="M5378 3173 c-10 -2 -18 -10 -19 -16 -2 -25 3 -62 10 -70 5 -5 49 -10
100 -12 74 -2 95 0 108 13 9 10 12 17 5 20 -6 2 -9 9 -6 16 8 21 -23 46 -49
40 -33 -8 -101 -4 -111 7 -6 5 -12 8 -15 8 -4 -1 -14 -3 -23 -6z"/>
<path d="M5155 2638 c-10 -26 9 -54 75 -109 78 -65 108 -97 116 -125 3 -12 20
-28 37 -36 27 -13 34 -13 45 -2 24 26 4 66 -75 145 -43 43 -88 90 -99 104 -26
31 -90 46 -99 23z"/>
<path d="M4052 2582 c-9 -14 -26 -35 -37 -47 -11 -11 -47 -53 -79 -93 -32 -40
-64 -76 -72 -79 -9 -3 -14 -19 -14 -42 0 -38 5 -48 31 -68 24 -20 78 11 86 47
3 16 17 43 32 59 14 17 36 43 48 58 12 15 33 41 47 57 30 36 39 67 27 99 -14
36 -48 41 -69 9z"/>
<path d="M4822 2477 c-17 -20 -2 -102 26 -144 8 -13 11 -23 8 -23 -4 0 0 -13
8 -29 18 -34 46 -162 46 -211 0 -19 4 -41 8 -48 12 -18 68 -21 64 -3 -1 7 2
19 8 26 9 10 8 22 -4 47 -14 32 -19 55 -30 128 -3 19 -8 44 -11 55 -8 36 -23
89 -34 123 -5 18 -10 33 -10 35 0 1 -4 14 -10 30 -11 30 -50 38 -69 14z"/>
<path d="M4424 2459 c-4 -6 -8 -64 -9 -128 -2 -90 -7 -129 -24 -173 -23 -63
-26 -82 -11 -73 6 3 10 -3 10 -14 0 -24 17 -31 52 -19 24 9 26 13 23 53 -4 50
6 127 29 209 25 88 8 145 -44 153 -11 1 -22 -2 -26 -8z"/>
<path d="M4287 593 c-14 -14 -5 -49 16 -64 12 -9 39 -21 59 -28 20 -7 42 -19
48 -27 7 -7 20 -14 29 -14 9 0 28 -8 41 -17 27 -19 121 -23 142 -6 19 15 101
33 151 33 50 0 92 -18 127 -55 l23 -25 -24 -21 c-13 -12 -34 -25 -46 -30 -30
-11 -31 -49 -3 -49 12 0 59 23 106 51 120 72 198 91 264 65 40 -16 41 -16 51
8 7 14 9 35 6 48 -6 22 -10 23 -71 21 -36 -1 -78 -8 -93 -16 -16 -7 -46 -19
-69 -26 -37 -12 -44 -11 -70 5 -16 10 -36 25 -44 34 -8 8 -22 16 -30 18 -8 2
-23 11 -33 20 -20 18 -173 26 -194 10 -7 -5 -34 -15 -60 -22 -38 -10 -57 -10
-88 -1 -22 6 -43 12 -48 13 -12 3 -71 34 -77 41 -22 27 -98 50 -113 34z"/>
</g>
</svg>
