<?xml version="1.0" standalone="no"?>
<!DOCTYPE svg PUBLIC "-//W3C//DTD SVG 20010904//EN"
 "http://www.w3.org/TR/2001/REC-SVG-20010904/DTD/svg10.dtd">
<svg version="1.0" xmlns="http://www.w3.org/2000/svg"
 width="463.000000pt" height="441.000000pt" viewBox="0 0 463.000000 441.000000"
 preserveAspectRatio="xMidYMid meet">
<metadata>
Created by potrace 1.16, written by Peter Selinger 2001-2019
</metadata>
<g transform="translate(0.000000,441.000000) scale(0.100000,-0.100000)"
fill="#000000" stroke="none">
<path d="M1682 4175 c-24 -10 -39 -28 -54 -62 -21 -47 -20 -62 7 -150 6 -20 3
-23 -19 -24 -14 -1 -31 -2 -37 -3 -7 -1 -17 8 -23 19 -6 11 -15 23 -21 27 -5
4 -2 15 9 27 24 26 18 65 -12 69 -31 5 -82 -50 -82 -88 0 -36 69 -125 104
-134 15 -4 35 -2 46 4 11 6 20 8 20 5 0 -4 22 6 50 21 46 25 51 26 68 11 23
-21 98 -33 116 -18 10 9 16 8 25 -3 25 -30 167 -37 205 -10 29 20 49 18 74 -9
31 -32 92 -33 162 -3 54 24 55 24 76 5 24 -23 50 -24 129 -3 33 8 70 18 82 21
14 3 32 -3 49 -16 15 -12 41 -21 61 -21 21 0 36 -6 39 -15 9 -22 53 -18 100 9
30 17 46 21 64 14 29 -11 120 -8 120 4 0 4 8 8 18 8 9 0 29 7 44 14 25 13 29
13 40 -3 26 -37 56 -43 159 -36 61 4 99 3 99 -2 0 -15 48 -33 88 -33 36 0 105
19 118 33 4 3 20 -5 37 -19 27 -23 38 -25 96 -22 50 2 71 8 88 24 28 26 63 37
63 20 0 -6 -9 -43 -19 -81 -11 -39 -23 -94 -27 -123 -3 -29 -18 -87 -33 -129
-20 -58 -31 -77 -46 -79 -11 -2 -36 -6 -55 -10 -19 -4 -44 -9 -55 -11 -43 -7
-547 -3 -675 5 -146 10 -453 8 -700 -3 -260 -11 -1034 -12 -1042 -1 -3 5 0 22
7 36 8 15 17 51 21 81 6 50 40 163 63 206 10 20 40 85 70 153 25 57 27 69 18
103 -8 29 -18 33 -47 17 -18 -10 -47 -77 -37 -87 8 -7 -30 -111 -58 -159 -14
-23 -25 -48 -25 -54 0 -6 -9 -30 -20 -52 -11 -23 -20 -53 -20 -67 0 -34 -38
-181 -49 -195 -6 -7 -12 -23 -15 -36 -2 -14 -11 -41 -19 -60 -8 -19 -22 -62
-31 -95 -8 -33 -33 -100 -56 -150 -22 -49 -40 -97 -40 -106 0 -9 -6 -22 -14
-28 -7 -6 -16 -30 -18 -54 -3 -23 -17 -67 -31 -97 -14 -30 -32 -77 -40 -105
-45 -152 -72 -230 -86 -245 -18 -18 -21 -32 -26 -115 -1 -37 -13 -85 -30 -125
-15 -36 -31 -74 -36 -85 -4 -11 -17 -41 -28 -67 -12 -26 -21 -55 -21 -66 0
-10 -22 -63 -49 -118 -27 -54 -61 -144 -75 -198 -15 -55 -30 -104 -35 -110 -5
-6 -35 -96 -66 -200 -31 -104 -61 -198 -66 -208 -5 -9 -21 -61 -35 -115 -34
-129 -48 -176 -75 -248 -12 -33 -25 -76 -30 -95 -12 -52 -44 -139 -72 -195
-14 -27 -29 -63 -33 -79 -4 -16 -13 -41 -20 -55 -8 -14 -14 -34 -14 -43 0 -9
-4 -19 -9 -22 -15 -10 -19 -65 -4 -70 7 -3 13 -10 13 -16 0 -6 -4 -8 -10 -5
-5 3 -19 1 -30 -5 -24 -13 -27 -52 -5 -70 8 -7 15 -19 15 -26 0 -18 27 -18 37
0 11 20 108 25 313 15 332 -15 515 -20 670 -18 85 2 207 3 270 4 63 0 192 1
285 2 94 1 186 2 205 2 39 -1 400 -1 530 0 81 1 144 4 305 17 40 3 82 1 98 -5
30 -12 67 0 67 20 0 6 7 17 15 26 8 8 12 19 9 25 -8 13 15 88 35 111 11 13 27
18 56 16 22 -1 47 1 55 4 37 14 556 20 1065 12 333 -6 346 -6 363 -22 23 -22
51 -15 58 12 3 14 1 84 -6 155 -6 71 -10 133 -7 137 5 9 0 47 -38 268 -30 177
-33 198 -40 302 -5 87 -20 180 -40 253 -8 30 -15 68 -15 85 0 16 -11 84 -25
150 -13 66 -32 158 -41 205 -17 88 -25 123 -44 200 -6 25 -13 57 -15 71 -2 14
-8 43 -14 65 -11 38 -58 234 -67 278 -3 11 -9 80 -14 151 -6 72 -12 144 -15
160 -2 17 -9 62 -15 100 -17 111 -38 296 -45 387 -4 46 -11 99 -16 119 -5 20
-9 54 -8 75 1 35 -3 70 -15 159 -3 17 -8 78 -12 138 -5 77 -10 107 -20 107 -7
0 -16 9 -19 20 -4 13 -15 20 -31 20 -13 0 -24 2 -24 5 0 2 11 30 25 61 32 72
32 123 1 146 -30 22 -96 35 -96 18 0 -6 -10 -25 -21 -42 -19 -26 -21 -37 -14
-112 l7 -84 -48 -16 c-99 -33 -112 -9 -49 88 37 59 42 71 35 101 -10 44 -31
65 -73 72 -29 4 -37 0 -60 -26 -34 -40 -50 -102 -44 -162 5 -45 4 -47 -29 -63
-40 -18 -90 -21 -99 -5 -4 6 6 27 22 47 45 56 63 96 65 148 1 38 -3 51 -20 65
-12 9 -30 16 -40 14 -9 -2 -27 -4 -38 -4 -12 -1 -35 -13 -51 -29 -32 -29 -48
-90 -44 -168 l2 -42 -54 -6 c-68 -9 -133 17 -98 39 5 3 20 25 33 48 34 60 31
132 -6 163 -21 19 -31 21 -57 14 -38 -11 -30 -2 -64 -74 -23 -49 -26 -67 -21
-108 5 -38 4 -48 -8 -48 -7 0 -27 -7 -42 -15 -33 -17 -60 -19 -69 -6 -3 6 10
40 30 76 19 37 35 76 35 88 -1 26 -20 54 -40 57 -36 5 -70 -1 -70 -12 0 -7
-18 -33 -40 -58 -22 -25 -40 -51 -40 -58 0 -7 -5 -10 -11 -7 -10 7 -6 -38 8
-87 3 -14 -2 -18 -24 -18 -76 2 -153 30 -128 48 22 15 60 95 72 147 9 42 -2
78 -25 82 -6 2 -30 -4 -52 -13 -47 -19 -78 -76 -89 -163 l-6 -55 -64 -19 c-84
-24 -96 -13 -47 44 20 24 44 67 53 96 16 50 16 56 0 81 -14 24 -22 27 -65 26
-65 -2 -88 -16 -113 -70 -17 -36 -21 -57 -16 -105 l5 -60 -40 -20 c-39 -20
-90 -19 -103 2 -4 5 11 34 31 65 20 30 43 72 50 92 12 35 11 38 -14 59 -34 28
-102 31 -125 5 -22 -24 -60 -149 -54 -178 3 -19 -2 -26 -30 -37 -33 -13 -93
-12 -93 2 0 4 19 27 42 51 39 40 42 48 45 105 4 72 -11 93 -74 102 -35 5 -42
1 -81 -37 -23 -23 -42 -49 -42 -56 0 -8 -6 -17 -13 -20 -15 -5 -16 -10 -18
-83 -1 -41 -4 -49 -18 -44 -36 13 -40 23 -26 56 19 46 26 128 12 141 -17 16
-60 46 -67 46 -3 -1 -20 -7 -38 -15z m291 -96 c-5 -31 -15 -50 -42 -75 l-36
-33 -3 30 c-3 23 6 41 33 75 20 24 40 44 45 44 4 0 6 -19 3 -41z m-243 19 c0
-7 -5 -30 -11 -50 -15 -58 -36 -46 -30 16 3 34 41 65 41 34z m734 -6 c6 -10
-21 -64 -37 -74 -28 -18 -29 -11 -5 55 10 26 31 36 42 19z m-270 -34 c-10 -18
-19 -28 -21 -21 -5 15 15 53 28 53 5 0 2 -15 -7 -32z m985 -30 c-18 -32 -24
-1 -8 38 12 27 13 27 16 7 3 -12 -1 -32 -8 -45z m295 26 c-3 -16 -17 -42 -31
-59 l-25 -30 6 45 c4 28 14 52 28 63 26 22 30 18 22 -19z m207 -41 c-12 -20
-14 -14 -5 12 4 9 9 14 11 11 3 -2 0 -13 -6 -23z m271 -320 c6 -139 15 -259
23 -290 4 -18 19 -145 40 -343 3 -19 9 -66 15 -105 6 -38 13 -90 16 -115 3
-25 9 -67 14 -95 6 -27 12 -92 15 -143 5 -85 19 -166 60 -342 8 -36 20 -87 25
-115 6 -27 23 -102 39 -165 16 -63 37 -160 46 -215 9 -55 23 -127 31 -160 7
-33 14 -75 14 -93 0 -18 11 -78 24 -135 13 -56 27 -140 31 -187 4 -47 9 -98
11 -115 2 -16 6 -55 9 -85 3 -30 10 -84 16 -120 6 -36 12 -74 13 -85 1 -11 7
-42 13 -70 7 -27 14 -114 17 -192 l5 -143 -57 -1 c-31 0 -113 1 -182 2 -149 3
-917 0 -1112 -4 -94 -2 -138 0 -138 7 0 6 5 27 11 46 5 19 23 85 39 145 16 61
40 151 54 200 14 50 28 103 31 119 3 16 15 54 26 85 11 31 27 85 36 121 24
104 73 302 83 335 20 66 75 277 84 325 7 37 59 185 93 265 16 39 33 86 36 105
4 19 25 90 47 158 22 67 40 129 40 137 0 9 4 23 9 33 4 9 23 64 41 122 29 92
47 143 80 225 12 31 51 158 56 180 2 12 21 75 42 140 22 66 45 141 53 168 7
26 18 47 23 47 5 0 6 3 3 7 -4 3 -1 16 6 27 19 29 62 173 83 279 10 48 22 87
26 87 4 0 9 -21 10 -47z m-1068 -338 c87 -3 162 -8 167 -10 4 -3 161 -6 348
-8 299 -2 340 -4 335 -17 -3 -8 -12 -37 -19 -65 -8 -27 -21 -72 -29 -100 -8
-27 -29 -99 -47 -158 -23 -75 -38 -111 -52 -119 -28 -15 -92 -18 -497 -29 -30
0 -120 3 -200 8 -80 4 -183 8 -230 7 -282 -2 -399 -6 -426 -15 -31 -10 -96
-13 -142 -7 -12 1 -24 10 -28 20 -8 25 -22 27 -224 33 -102 3 -223 8 -270 13
-46 4 -109 5 -140 0 -148 -20 -360 -4 -360 28 0 12 25 79 60 159 17 39 23 61
44 140 19 74 23 80 47 81 14 1 32 4 38 9 7 4 119 9 249 11 609 10 746 13 872
19 74 4 137 8 139 11 2 2 49 2 105 -1 56 -2 173 -7 260 -10z m-14 -551 c19 -4
182 -8 363 -9 180 -1 329 -4 332 -6 2 -3 -20 -81 -49 -174 -29 -94 -61 -195
-69 -225 -12 -40 -22 -56 -35 -57 -10 -1 -45 -6 -78 -11 -32 -6 -90 -11 -129
-12 -38 -1 -86 -4 -105 -6 -109 -14 -482 -20 -630 -10 -207 14 -231 15 -337
16 l-102 1 6 32 c3 18 9 39 13 47 4 8 11 33 15 55 10 48 9 44 22 75 15 36 32
118 35 168 1 24 6 46 10 48 4 3 8 14 8 24 0 15 10 20 58 25 31 3 66 10 78 15
11 4 69 7 128 6 59 -1 111 1 116 4 12 7 307 2 350 -6z m-1385 -25 c11 0 34 -4
50 -9 48 -14 119 -19 281 -21 l152 -1 -22 -101 c-13 -56 -28 -112 -34 -123
-19 -36 -41 -108 -44 -144 -2 -19 -7 -38 -13 -43 -5 -4 -118 -8 -250 -8 -218
-1 -301 0 -552 5 -46 0 -83 3 -83 6 0 3 9 28 19 56 11 28 27 84 36 125 10 41
20 81 23 89 3 8 6 20 8 25 12 39 38 104 52 127 l17 29 170 -6 c93 -3 179 -6
190 -6z m940 -534 c251 -13 675 -8 676 9 0 7 2 7 5 1 2 -6 21 -9 42 -8 20 2
85 4 144 5 l107 3 -6 -25 c-17 -70 -56 -188 -98 -295 -26 -66 -48 -125 -49
-132 -4 -21 -15 -26 -30 -14 -10 8 -21 9 -33 3 -54 -29 -590 -43 -1043 -28
-629 21 -963 24 -1155 11 -71 -5 -143 -9 -160 -8 -16 0 -58 1 -93 3 -34 1 -62
6 -62 12 0 13 33 72 43 76 4 2 7 12 7 23 0 22 36 128 56 168 8 14 14 31 14 38
0 7 11 38 25 68 20 47 27 55 42 48 10 -5 68 -9 129 -8 83 0 111 -3 111 -12 0
-7 -4 -13 -9 -13 -4 0 -8 -11 -8 -25 0 -28 -25 -57 -70 -80 -69 -36 -130 -117
-130 -173 0 -25 31 -52 59 -52 30 0 99 38 115 62 16 26 -1 34 -33 15 -16 -9
-41 -17 -55 -17 -22 0 -26 4 -26 29 0 22 9 37 38 58 55 44 67 49 59 30 -11
-29 14 -30 45 -1 17 16 28 24 24 17 -8 -15 21 -32 45 -26 17 5 26 32 27 80 1
18 25 84 38 101 1 2 26 6 56 8 29 2 118 9 198 15 240 19 393 21 402 7 5 -8 8
-9 8 -2 0 6 10 9 23 7 13 -3 31 2 39 10 8 9 30 17 49 20 33 4 292 -1 434 -8z
m-1256 -58 c-9 -7 -21 -29 -28 -49 -7 -21 -15 -38 -17 -38 -3 0 -2 9 1 20 3
11 7 33 7 50 1 26 5 30 27 30 23 -1 24 -2 10 -13z m119 -458 c125 3 151 3 212
2 30 0 98 -1 150 -1 52 0 160 -2 240 -5 373 -13 830 -18 1065 -12 108 4 251
-6 262 -17 7 -6 -35 -172 -73 -286 l-34 -105 -41 -13 c-42 -13 -175 -32 -219
-32 -14 0 -59 -2 -100 -5 -86 -7 -381 -17 -455 -16 -27 0 -412 2 -855 4 -740
3 -940 9 -940 26 0 3 7 31 16 61 9 30 17 62 18 70 2 8 9 29 15 45 7 17 23 59
37 95 14 36 29 75 34 88 6 13 10 35 10 50 0 15 5 34 10 42 8 13 11 13 22 -3
14 -18 88 -41 88 -28 0 5 21 8 48 8 26 1 74 6 107 12 33 5 96 11 139 12 44 1
93 5 110 9 17 4 35 5 39 2 5 -2 48 -3 95 -3z m1062 -519 c0 -5 -7 -7 -15 -4
-8 4 -15 8 -15 10 0 2 7 4 15 4 8 0 15 -4 15 -10z m-420 -18 c179 -3 343 -5
365 -5 22 1 150 4 285 7 135 3 305 8 377 11 l132 5 -5 -42 c-3 -24 -21 -88
-40 -143 -19 -55 -36 -109 -38 -120 -3 -11 -13 -56 -24 -100 -19 -79 -19 -80
-48 -76 -16 3 -40 5 -54 4 -14 0 -207 -3 -430 -6 -223 -4 -416 -9 -430 -12
-19 -5 -221 -6 -355 -3 -21 0 -142 -13 -200 -22 -74 -12 -526 -15 -775 -5
-244 9 -305 9 -318 1 -14 -9 -42 3 -42 19 0 11 53 180 67 215 8 20 8 18 17 75
6 40 50 176 63 194 1 2 8 -1 16 -7 8 -7 18 -7 27 -2 14 9 141 14 230 9 19 -1
44 -1 55 -1 11 0 155 1 320 2 165 1 334 5 375 9 41 5 82 6 90 4 8 -2 161 -7
340 -11z m483 -524 c70 1 144 3 165 3 105 2 310 -10 334 -19 25 -10 27 -14 17
-39 -6 -15 -13 -39 -15 -53 -3 -14 -8 -36 -13 -50 -5 -14 -14 -45 -21 -70 -7
-25 -17 -56 -22 -70 -6 -14 -12 -36 -14 -50 -9 -48 -58 -134 -79 -136 -191
-21 -341 -26 -895 -30 -355 -2 -689 -7 -742 -10 -67 -5 -102 -3 -111 4 -8 7
-17 9 -20 6 -4 -4 -32 -7 -64 -7 -57 0 -415 13 -503 19 -25 1 -103 3 -174 4
-122 1 -127 2 -112 19 9 10 16 24 16 32 0 8 4 19 8 24 5 6 14 35 21 65 8 30
31 96 52 146 22 50 39 101 39 112 0 26 15 35 60 38 19 2 64 7 100 12 60 8 436
7 540 -2 96 -9 551 17 595 34 12 4 72 8 135 8 161 0 513 12 518 17 3 3 17 1
31 -2 14 -4 83 -6 154 -5z"/>
<path d="M1375 3179 c-49 -99 -64 -163 -46 -198 21 -38 58 -27 121 38 38 38
56 51 52 37 -3 -11 -12 -27 -19 -34 -18 -19 -17 -82 2 -82 8 0 19 9 25 20 6
11 8 20 5 20 -3 0 6 18 20 40 14 22 25 46 25 54 0 8 4 17 9 20 10 7 41 97 41
120 0 17 -27 21 -46 8 -6 -4 -14 -20 -18 -36 -10 -41 -145 -174 -157 -155 -11
18 -11 45 1 67 47 85 69 146 59 158 -6 8 -15 14 -19 14 -5 0 -29 -41 -55 -91z"/>
<path d="M1791 3249 c-25 -5 -63 -11 -85 -14 -41 -6 -66 -26 -66 -52 0 -20 23
-25 53 -14 36 14 35 6 -11 -87 -21 -42 -42 -89 -45 -104 -8 -29 9 -50 19 -24
3 8 12 12 19 10 8 -3 16 4 20 18 4 13 26 62 48 110 l41 87 45 -2 c41 -2 46 0
49 21 3 22 -23 64 -37 61 -3 -1 -26 -5 -50 -10z"/>
<path d="M1330 2747 c-59 -20 -120 -59 -120 -78 0 -10 4 -28 9 -41 11 -27 77
-98 91 -98 16 0 70 -42 70 -55 0 -14 -115 -8 -144 7 -10 6 -35 12 -56 14 -31
4 -41 0 -53 -16 -21 -30 -3 -66 32 -65 14 1 31 -2 36 -6 6 -4 44 -11 86 -16
115 -13 171 7 183 67 9 46 -15 89 -62 110 -38 17 -102 67 -102 79 0 9 51 31
69 31 20 -1 56 -27 56 -41 0 -6 12 -18 28 -27 21 -13 31 -14 45 -6 39 25 15
76 -58 121 -49 29 -70 33 -110 20z"/>
<path d="M1624 2716 c-19 -28 -1 -56 36 -56 33 0 33 -2 -5 -85 -13 -27 -27
-62 -30 -77 -4 -15 -17 -38 -28 -50 -29 -31 -23 -64 12 -76 30 -11 51 0 51 25
0 7 5 13 10 13 11 0 31 42 36 76 1 12 13 46 27 75 13 30 27 64 31 77 8 25 6
24 63 13 44 -9 53 -2 53 40 0 36 -38 49 -144 46 -84 -2 -100 -5 -112 -21z"/>
<path d="M1374 2129 c-4 -7 -22 -9 -46 -6 -33 4 -41 2 -54 -18 -20 -31 -11
-45 31 -45 33 0 34 -1 24 -27 -6 -16 -24 -56 -40 -89 -32 -68 -35 -84 -16 -84
20 0 57 30 57 46 0 8 16 46 36 85 38 76 39 77 111 54 18 -6 25 -2 34 18 18 40
6 57 -40 57 -22 0 -43 5 -46 10 -8 13 -42 13 -51 -1z"/>
<path d="M1348 1667 c-37 -8 -49 -16 -57 -36 -5 -14 -10 -20 -10 -13 -1 13
-40 16 -89 6 -37 -7 -60 -48 -35 -62 14 -8 13 -16 -10 -66 -15 -32 -40 -70
-56 -85 -28 -26 -52 -91 -33 -91 13 0 56 41 78 74 14 22 87 66 109 66 1 0 -6
-28 -16 -61 -11 -34 -18 -63 -17 -65 10 -9 58 11 58 25 1 9 11 46 24 84 18 51
21 77 16 107 -4 24 -3 43 3 47 5 3 37 7 71 8 77 3 73 2 79 24 6 24 -22 52 -49
50 -10 -1 -40 -6 -66 -12z m-101 -140 c-3 -11 -47 -21 -47 -11 0 3 5 14 11 25
8 16 13 18 25 8 8 -7 13 -17 11 -22z"/>
<path d="M850 1634 c-47 -27 -60 -40 -60 -63 0 -16 46 -7 70 13 22 19 49 27
55 16 3 -4 0 -10 -5 -12 -6 -2 -12 -14 -13 -28 -2 -14 -22 -65 -45 -114 -40
-84 -46 -116 -23 -116 5 0 28 33 50 73 38 70 42 73 71 69 71 -10 152 88 117
141 -33 50 -147 61 -217 21z m154 -47 c30 -22 12 -57 -27 -57 -30 0 -32 2 -32
35 0 29 4 35 21 35 11 0 28 -6 38 -13z"/>
<path d="M745 1122 c-60 -33 -94 -65 -100 -93 -7 -33 3 -56 46 -98 24 -24 30
-38 27 -63 -3 -31 -5 -33 -47 -36 -53 -4 -67 7 -51 38 16 30 0 46 -28 29 -12
-7 -26 -23 -32 -35 -28 -51 22 -89 113 -85 68 2 89 23 93 90 3 53 -21 113 -51
125 -8 3 -15 12 -15 20 0 17 49 66 66 66 21 0 24 -29 6 -59 -9 -16 -13 -33
-10 -37 11 -11 58 24 68 51 10 25 -5 95 -20 95 -4 0 -14 2 -22 5 -7 2 -27 -3
-43 -13z"/>
<path d="M995 1100 c-22 -11 -47 -20 -57 -20 -21 0 -28 -11 -51 -78 -33 -99
-39 -150 -20 -179 18 -27 68 -53 102 -53 17 0 91 61 91 75 0 3 18 28 39 55 47
59 58 99 40 143 -16 40 -30 54 -64 67 -35 13 -35 13 -80 -10z m76 -60 c29 -29
29 -29 14 -67 -9 -20 -22 -45 -30 -53 -8 -9 -15 -20 -15 -25 0 -5 -10 -19 -22
-32 -41 -44 -99 -20 -97 40 1 56 32 126 64 146 41 27 52 26 86 -9z"/>
<path d="M1020 554 c-96 -29 -120 -30 -120 -4 0 13 -7 20 -19 20 -14 0 -22
-11 -30 -42 -16 -68 -62 -200 -83 -236 -10 -18 -18 -39 -18 -47 0 -17 33 -37
52 -30 7 2 49 6 93 8 76 4 135 21 135 39 0 4 6 8 14 8 20 0 31 19 18 32 -7 7
-17 6 -32 -2 -30 -16 -200 -23 -200 -9 0 6 7 25 15 42 15 32 16 32 92 33 61 0
87 6 121 23 23 13 42 27 42 33 0 5 -38 8 -87 8 -103 -2 -134 1 -130 13 4 14
199 77 238 77 43 0 62 16 48 42 -13 24 -53 22 -149 -8z"/>
<path d="M529 548 c-1 -7 -1 -16 0 -20 0 -5 -3 -8 -9 -8 -5 0 -10 -7 -10 -15
0 -8 -9 -19 -19 -25 -21 -11 -27 -24 -36 -79 -3 -19 -17 -58 -30 -88 -27 -59
-29 -69 -16 -77 19 -12 39 7 56 50 9 24 19 44 22 44 5 0 58 -45 114 -96 9 -7
18 -14 21 -14 9 0 127 244 134 276 4 22 2 33 -8 36 -21 8 -50 -18 -53 -46 -4
-35 -66 -166 -78 -166 -5 0 -31 20 -56 43 l-47 44 23 41 c30 53 35 105 11 110
-10 2 -19 -2 -19 -10z"/>
<path d="M1595 3787 c-37 -12 -79 -62 -71 -83 6 -15 8 -15 31 0 l24 16 -14
-32 c-7 -18 -18 -34 -24 -36 -6 -2 -11 -22 -11 -45 0 -24 -11 -63 -25 -92 -28
-58 -31 -75 -11 -75 19 0 53 47 62 86 4 16 13 42 21 57 14 28 15 28 39 12 38
-25 78 -6 115 55 31 50 32 79 4 116 -23 30 -31 34 -68 33 -23 -1 -55 -6 -72
-12z m81 -55 c42 -27 11 -94 -40 -85 -36 7 -39 16 -22 58 15 34 37 44 62 27z"/>
<path d="M1885 3752 c-16 -2 -49 -19 -71 -37 -43 -35 -56 -73 -55 -154 0 -48
7 -60 37 -71 31 -12 86 10 142 57 30 25 34 35 38 88 7 91 -19 126 -91 117z
m26 -62 c14 -8 19 -21 19 -53 0 -50 -6 -59 -45 -80 -61 -31 -83 17 -45 101 20
43 36 50 71 32z"/>
</g>
</svg>
