<?xml version="1.0" standalone="no"?>
<!DOCTYPE svg PUBLIC "-//W3C//DTD SVG 20010904//EN"
 "http://www.w3.org/TR/2001/REC-SVG-20010904/DTD/svg10.dtd">
<svg version="1.0" xmlns="http://www.w3.org/2000/svg"
 width="457.000000pt" height="443.000000pt" viewBox="0 0 457.000000 443.000000"
 preserveAspectRatio="xMidYMid meet">
<metadata>
Created by potrace 1.16, written by Peter Selinger 2001-2019
</metadata>
<g transform="translate(0.000000,443.000000) scale(0.100000,-0.100000)"
fill="#000000" stroke="none">
<path d="M3063 4385 c-41 -18 -81 -89 -90 -161 -5 -38 -9 -43 -57 -64 -28 -12
-70 -25 -93 -28 -54 -6 -57 12 -13 68 23 29 32 52 34 89 3 45 1 54 -21 71 -40
31 -83 26 -122 -14 -29 -30 -66 -117 -55 -129 3 -2 9 -18 14 -35 l8 -32 -68
-20 c-76 -22 -111 -19 -84 8 44 43 65 92 60 140 -2 26 -5 53 -5 61 -1 7 -7 11
-16 7 -8 -3 -15 -1 -15 4 0 5 -18 8 -40 7 -22 -1 -40 -5 -40 -10 0 -4 -17 -23
-37 -42 -38 -34 -38 -35 -39 -115 0 -44 -5 -85 -10 -90 -13 -13 -73 -21 -96
-14 -19 6 -25 44 -8 44 6 0 10 6 10 14 0 7 7 19 15 26 20 17 39 83 32 112 -19
73 -108 104 -152 52 -45 -53 -67 -179 -34 -200 14 -8 -57 -73 -87 -80 -29 -7
-72 9 -80 30 -3 8 13 39 36 70 53 70 63 129 30 164 -45 48 -154 9 -178 -63
-21 -61 -22 -75 -13 -115 8 -34 6 -39 -19 -54 -37 -21 -106 -21 -114 0 -10 27
-8 32 44 89 28 30 50 59 50 65 0 20 -43 79 -62 86 -30 9 -87 -5 -97 -24 -4 -9
-11 -39 -15 -67 -16 -122 -19 -128 -86 -158 -50 -21 -129 -24 -142 -4 -13 20
-9 77 8 112 15 33 50 54 92 58 12 1 22 6 22 12 0 5 5 2 11 -7 13 -24 36 -23
49 3 13 23 10 64 -5 65 -5 0 -17 4 -27 8 -15 7 -68 -7 -133 -35 -65 -29 -105
-95 -105 -177 0 -126 119 -171 258 -97 l66 35 32 -31 c30 -30 36 -31 88 -26
31 3 75 15 97 27 41 21 42 21 63 2 34 -31 62 -42 109 -42 35 0 55 8 102 42 35
25 60 37 63 30 2 -6 18 -20 35 -31 34 -20 88 -18 152 8 17 7 32 12 34 11 2 -1
7 4 11 11 6 9 17 8 49 -5 53 -21 73 -20 119 3 52 26 109 33 141 17 36 -18 91
-28 91 -16 0 6 17 10 38 10 23 0 51 9 74 25 45 30 51 31 63 4 6 -12 30 -33 55
-46 35 -20 53 -24 90 -20 49 6 102 15 137 22 12 3 34 0 50 -6 15 -5 62 -10
105 -10 64 0 85 4 123 26 l46 25 37 -29 c32 -26 46 -30 112 -32 41 -2 81 0 88
5 21 13 22 4 1 -54 -11 -30 -22 -80 -25 -110 -3 -30 -12 -80 -19 -110 -8 -30
-19 -78 -25 -106 -9 -43 -15 -51 -30 -47 -10 3 -27 0 -38 -6 -23 -12 -41 -13
-207 -11 -60 1 -142 1 -182 0 -39 -1 -81 1 -92 5 -12 3 -21 3 -21 -2 0 -4 -84
-9 -188 -9 -233 -2 -514 -18 -534 -30 -7 -4 -8 -3 -4 4 5 9 -11 12 -56 13 -35
1 -81 3 -103 6 -22 2 -67 -1 -100 -7 -110 -20 -667 -30 -930 -17 -71 4 -138 7
-147 7 -15 0 -15 4 2 54 11 29 22 67 25 84 24 136 109 432 124 432 6 0 7 27 2
66 -1 13 -57 6 -69 -10 -5 -6 -14 -27 -20 -46 -6 -19 -24 -78 -40 -130 -17
-52 -33 -115 -36 -140 -3 -25 -14 -74 -25 -110 -10 -36 -24 -90 -31 -120 -7
-30 -25 -93 -41 -140 -15 -47 -31 -103 -35 -125 -4 -22 -19 -76 -34 -120 -15
-44 -42 -132 -60 -195 -17 -63 -49 -169 -70 -235 -36 -113 -65 -211 -111 -385
-11 -41 -22 -83 -24 -93 -4 -17 -30 -100 -66 -207 -10 -30 -20 -66 -23 -80 -2
-14 -20 -79 -40 -145 -20 -66 -43 -149 -52 -185 -8 -36 -26 -103 -39 -150 -14
-47 -27 -101 -30 -120 -10 -56 -54 -243 -64 -265 -4 -11 -15 -47 -24 -80 -16
-61 -45 -145 -116 -328 -21 -56 -48 -129 -59 -162 -10 -33 -26 -80 -35 -105
-19 -53 -45 -144 -51 -180 -2 -14 -9 -38 -15 -53 -6 -16 -11 -32 -11 -36 0
-17 60 -33 136 -36 44 -2 99 -8 123 -14 25 -5 49 -7 53 -5 11 7 285 5 318 -1
53 -11 311 -17 715 -16 231 1 516 1 633 1 137 0 220 4 234 11 13 7 123 12 310
14 160 2 294 7 299 12 5 5 18 38 29 74 10 35 31 101 47 146 32 93 46 102 144
97 94 -6 332 -15 374 -15 22 1 74 0 115 0 181 -3 470 3 734 16 49 2 93 8 98
13 14 14 12 86 -4 117 -17 32 -24 76 -33 190 -3 39 -10 90 -15 115 -12 61 -19
111 -26 200 -3 41 -10 96 -14 122 -5 26 -12 87 -16 135 -3 49 -8 90 -9 93 -7
11 -68 414 -80 524 -4 32 -9 70 -12 85 -3 14 -6 33 -8 41 -1 8 -7 33 -13 55
-6 22 -18 87 -27 145 -9 58 -27 159 -40 225 -13 66 -30 165 -39 220 -8 55 -17
111 -20 125 -9 47 -45 295 -51 350 -4 30 -12 107 -20 170 -8 63 -19 169 -25
235 -6 66 -15 138 -20 160 -15 62 -12 168 5 191 19 25 19 27 -5 53 -19 23 -19
23 3 55 12 17 24 33 28 36 3 3 13 22 23 43 16 35 16 39 0 66 -20 34 -63 61
-96 61 -29 0 -64 -37 -94 -100 -25 -53 -22 -95 9 -112 20 -10 20 -11 2 -24
-21 -16 -122 -19 -145 -4 -12 7 -9 13 13 34 16 15 26 30 23 35 -3 5 1 28 9 51
17 49 14 108 -6 121 -39 25 -99 -2 -144 -65 -23 -33 -29 -52 -30 -94 0 -42 -4
-56 -19 -64 -31 -17 -87 -27 -120 -21 -26 6 -27 7 -9 14 13 5 26 26 37 60 10
29 28 68 41 87 26 38 22 62 -15 82 -37 20 -74 11 -125 -31 -61 -50 -75 -75
-82 -144 -6 -61 -10 -64 -98 -72 -54 -5 -63 -3 -90 21 -29 25 -29 26 -10 40
11 9 23 16 26 16 13 0 71 106 71 128 1 62 -54 100 -109 77z m-808 -115 c6 -20
-31 -100 -47 -100 -14 0 -9 48 9 85 19 40 29 44 38 15z m515 2 c0 -11 -9 -27
-20 -37 -18 -16 -20 -17 -20 -1 0 19 21 56 32 56 5 0 8 -8 8 -18z m320 14 c0
-3 -4 -8 -10 -11 -5 -3 -10 -1 -10 4 0 6 5 11 10 11 6 0 10 -2 10 -4z m-1100
-37 c0 -11 -16 -37 -35 -57 -32 -34 -35 -35 -35 -14 0 28 25 78 42 85 23 10
28 7 28 -14z m520 3 c0 -10 -11 -29 -25 -42 -21 -20 -25 -21 -25 -6 0 19 30
65 43 66 4 0 7 -8 7 -18z m888 -8 c-7 -15 -14 -21 -16 -15 -2 7 2 18 8 26 18
22 21 18 8 -11z m553 -1 c-20 -34 -41 -57 -47 -51 -10 10 26 68 42 68 11 0 12
-4 5 -17z m-288 -35 c-3 -16 -9 -28 -14 -28 -11 0 -11 3 1 36 13 33 20 29 13
-8z m-294 -24 c-15 -18 -22 -13 -13 10 3 9 10 13 16 10 5 -3 4 -12 -3 -20z
m546 -494 c4 -52 8 -102 11 -110 6 -24 24 -167 30 -250 3 -41 10 -91 14 -110
5 -19 14 -82 20 -140 6 -57 14 -108 16 -112 3 -4 8 -29 11 -55 3 -27 11 -84
19 -128 8 -44 19 -107 24 -140 5 -33 16 -94 25 -135 9 -41 25 -129 35 -195 11
-66 24 -138 29 -160 17 -70 29 -146 52 -320 12 -93 23 -179 25 -190 8 -40 12
-72 24 -170 6 -55 20 -156 30 -225 11 -69 22 -161 26 -205 3 -44 8 -91 10
-105 8 -45 23 -193 26 -263 4 -73 9 -67 -59 -73 -267 -23 -1053 -20 -1178 4
-27 6 -53 8 -57 6 -15 -9 -16 14 -2 42 9 16 22 52 29 79 8 28 32 109 55 180
22 72 47 155 55 185 8 30 23 82 34 114 12 33 21 69 21 81 0 11 4 25 8 31 5 5
14 34 21 64 8 30 24 87 36 125 25 76 44 145 52 185 7 40 33 122 49 155 14 31
28 96 39 182 4 26 11 66 17 88 11 44 42 221 62 360 13 87 40 195 86 340 12 39
23 75 24 80 11 52 41 135 49 135 6 0 8 3 4 6 -3 3 1 23 8 45 8 22 14 40 14 42
0 1 4 13 9 27 5 14 19 59 32 100 12 41 26 89 31 105 15 44 101 375 107 408 8
51 21 14 27 -83z m-220 -184 c11 -3 26 -5 33 -5 15 -1 12 -16 -30 -151 -29
-93 -41 -127 -59 -162 -5 -10 -9 -23 -9 -30 0 -7 -5 -29 -10 -49 -11 -38 -13
-39 -111 -55 -32 -6 -246 -23 -358 -29 -46 -3 -101 -10 -122 -15 -51 -14 -330
-22 -679 -20 -157 1 -325 2 -375 1 -293 -3 -682 4 -967 18 -30 1 -30 3 -4 89
8 29 13 52 11 52 -2 0 11 42 30 93 18 51 39 121 45 155 12 60 14 62 44 63 17
0 150 2 296 4 146 1 313 7 370 13 58 6 162 11 233 12 70 1 149 4 175 7 50 6
57 6 257 4 72 0 216 3 320 8 184 8 869 6 910 -3z m-166 -538 c20 -7 37 -13 38
-13 2 -1 -17 -66 -40 -146 -55 -181 -67 -231 -67 -270 0 -24 -3 -29 -12 -21
-9 7 -40 7 -98 0 -47 -6 -128 -12 -180 -13 -52 -1 -165 -5 -250 -10 -124 -6
-930 -14 -1580 -16 -58 0 -121 -3 -140 -7 -19 -5 -53 -5 -75 -1 -22 4 -85 10
-141 13 -102 6 -143 12 -151 20 -5 5 70 276 99 359 11 31 26 58 32 58 49 6 93
7 251 8 99 0 288 -1 420 -2 132 -1 346 0 475 2 129 1 343 2 475 2 132 -1 253
1 270 4 65 10 136 16 277 23 81 4 150 11 154 15 12 12 205 8 243 -5z m-89
-554 c-4 -17 -10 -36 -14 -42 -3 -6 -11 -46 -16 -89 -5 -43 -17 -115 -27 -161
l-18 -82 -40 -12 c-41 -11 -282 -20 -470 -17 -46 1 -287 -12 -385 -20 -58 -5
-137 -10 -175 -11 -39 0 -86 -3 -105 -6 -19 -3 -125 -7 -235 -9 -234 -5 -424
-13 -479 -20 -78 -10 -597 -4 -789 8 -11 1 -15 7 -12 16 3 8 10 35 16 60 5 25
14 50 18 56 5 5 12 26 16 45 4 19 18 67 30 105 13 39 28 96 34 127 l12 57 122
-4 c248 -8 461 -4 587 11 38 4 326 6 455 3 149 -4 1004 4 1047 10 29 4 139 7
244 7 l191 -1 -7 -31z m-93 -468 c3 -3 -1 -25 -9 -48 -16 -45 -47 -142 -54
-168 -2 -8 -8 -35 -14 -60 -6 -25 -15 -56 -19 -70 -5 -14 -17 -52 -26 -85 -10
-33 -19 -66 -21 -74 -3 -10 -8 -10 -18 -2 -7 6 -31 9 -52 7 -131 -15 -182 -18
-399 -22 -132 -2 -301 -6 -375 -9 -263 -9 -1765 -12 -1796 -4 -30 9 -31 10
-24 51 4 24 15 70 25 103 9 33 21 80 25 105 12 63 26 118 43 165 17 46 21 47
172 44 310 -5 607 0 663 12 24 5 157 12 295 14 139 3 295 7 347 10 52 3 171 7
264 10 93 3 174 9 180 13 22 13 780 21 793 8z m-837 -583 c242 2 598 -2 628
-9 40 -8 40 -14 -2 -144 -18 -58 -46 -149 -61 -202 -26 -93 -36 -110 -50 -88
-3 5 -27 7 -53 4 -26 -3 -108 -4 -182 -4 -163 2 -177 2 -260 1 -36 0 -74 0
-85 1 -11 0 -144 -3 -295 -6 -507 -14 -641 -13 -651 6 -8 15 -73 35 -94 28 -5
-1 -73 -4 -150 -6 -77 -3 -189 -9 -250 -14 -177 -16 -525 -23 -525 -10 0 6 -5
8 -12 3 -12 -7 -69 -5 -76 2 -2 2 10 45 27 97 17 51 45 140 63 198 17 58 36
108 42 112 10 7 331 12 421 7 22 -1 63 -2 90 -1 28 0 316 3 640 6 325 3 610
10 635 14 25 5 59 7 75 6 17 -1 73 -2 125 -1z m342 -502 c108 -1 109 -1 144
-44 15 -18 5 -67 -34 -172 -16 -44 -42 -119 -57 -168 -15 -48 -31 -90 -35 -92
-5 -3 -6 -14 -3 -24 3 -10 0 -22 -6 -25 -6 -4 -11 -16 -11 -27 0 -10 -6 -19
-12 -20 -7 0 -26 -4 -43 -7 -30 -7 -177 -8 -245 -3 -49 4 -225 -9 -287 -20
-28 -6 -227 -11 -442 -12 l-390 -2 6 25 c4 14 17 46 30 73 27 53 48 119 69
222 8 39 22 97 31 130 9 33 16 79 16 103 0 32 4 42 16 44 9 1 81 2 161 4 418
7 796 17 800 21 2 2 45 2 95 -1 49 -3 138 -5 197 -5z m-1782 -47 c129 -10 140
-11 146 -17 5 -5 -119 -19 -161 -18 -11 0 -35 1 -54 1 -39 1 -71 -24 -71 -56
0 -29 -16 -65 -57 -131 -38 -61 -48 -93 -39 -127 9 -36 50 -46 138 -34 77 11
82 11 138 7 66 -5 101 21 80 61 -11 20 -55 34 -72 24 -6 -4 -35 -8 -65 -10
-29 -1 -71 -5 -93 -9 -46 -8 -53 7 -22 44 14 17 31 22 96 25 93 5 114 24 86
76 -8 16 -15 17 -42 9 -18 -5 -43 -9 -56 -9 -20 0 -22 4 -16 23 3 12 7 23 8
23 2 3 125 15 180 19 64 5 76 17 54 55 l-16 29 80 3 c44 2 81 2 82 0 2 -1 -7
-40 -20 -87 -12 -47 -23 -89 -24 -93 -9 -59 -85 -250 -105 -264 -6 -5 -6 -8 0
-8 6 0 1 -6 -9 -12 -14 -8 -152 -11 -474 -10 -250 1 -457 3 -459 6 -3 3 2 15
11 28 9 12 16 31 16 41 0 10 6 31 14 45 7 15 18 45 24 67 22 87 69 203 98 242
13 17 24 41 24 53 0 21 0 21 253 16 138 -3 286 -8 327 -12z m-43 -570 c-3 -3
-12 -4 -19 -1 -8 3 -5 6 6 6 11 1 17 -2 13 -5z"/>
<path d="M1539 3430 c-78 -13 -107 -38 -78 -67 13 -13 71 -7 147 14 44 12 52
18 52 39 0 21 -4 24 -37 23 -21 -1 -59 -5 -84 -9z"/>
<path d="M1363 3403 c-3 -10 -12 -25 -20 -34 -19 -23 -60 -127 -68 -175 -5
-36 -3 -45 16 -62 20 -19 24 -20 48 -7 15 7 45 33 67 57 41 44 86 78 104 78
10 0 -23 -99 -37 -109 -4 -3 -16 -23 -27 -43 -20 -41 -15 -74 10 -64 9 3 19 6
24 6 16 0 103 185 104 223 1 43 -13 57 -61 57 -26 0 -45 -13 -103 -70 -40 -39
-74 -69 -76 -67 -6 5 18 67 48 125 33 62 35 78 9 92 -26 14 -31 13 -38 -7z"/>
<path d="M1715 3353 c-27 -8 -56 -17 -63 -19 -27 -8 -8 -39 26 -42 27 -3 32
-7 26 -20 -4 -9 -8 -29 -8 -44 -1 -14 -4 -24 -7 -22 -11 6 -70 -98 -65 -113 6
-16 42 -10 63 11 17 16 79 136 87 169 5 21 12 27 32 27 14 0 34 -5 45 -11 15
-8 24 -7 35 2 24 20 33 44 24 59 -12 20 -132 22 -195 3z"/>
<path d="M1221 2840 c-48 -12 -85 -42 -89 -75 -3 -22 6 -38 44 -76 27 -27 46
-49 44 -50 -3 0 -24 -2 -46 -4 -72 -6 -104 -36 -70 -64 20 -16 143 6 169 30
28 26 16 74 -28 115 -41 37 -45 61 -11 70 17 4 31 -1 50 -21 21 -21 29 -24 46
-15 11 6 20 18 21 28 0 12 3 11 9 -6 6 -14 21 -25 39 -28 l30 -6 -24 -47 c-13
-25 -27 -59 -31 -76 -4 -16 -11 -36 -17 -43 -14 -18 6 -36 31 -28 14 5 39 43
72 110 45 91 55 104 80 108 16 2 36 0 45 -5 19 -10 55 21 55 48 0 23 -44 37
-77 24 -14 -5 -62 -11 -105 -13 -43 -1 -81 -6 -85 -9 -11 -12 -23 -8 -23 8 0
30 -60 41 -129 25z"/>
<path d="M1162 2329 c-11 -11 -27 -17 -40 -14 -21 4 -35 -8 -38 -33 -4 -22
-34 -50 -62 -57 -43 -10 -99 -51 -116 -86 -19 -38 -21 -80 -4 -97 16 -16 85
-14 133 4 22 9 50 18 63 21 26 6 28 18 6 40 -10 11 -18 13 -22 6 -4 -6 -31
-16 -60 -22 -66 -14 -62 -14 -62 5 0 25 60 76 75 64 9 -7 20 -4 38 10 24 19
57 18 57 -1 0 -13 34 -11 48 3 7 7 12 28 12 48 0 19 7 44 15 54 36 47 -4 97
-43 55z"/>
<path d="M1478 2295 c-3 -3 -52 -8 -109 -10 -85 -3 -106 -7 -116 -22 -19 -25
-12 -47 15 -51 28 -4 28 -9 -4 -89 -28 -71 -24 -84 22 -75 23 4 42 30 50 70 6
30 56 101 75 107 12 4 40 4 62 1 37 -5 44 -3 60 20 15 20 16 28 7 39 -12 15
-51 20 -62 10z"/>
<path d="M1403 1859 c-11 -11 -46 -17 -109 -18 -29 -1 -38 -45 -13 -67 16 -15
22 -15 67 0 27 9 56 14 64 11 10 -4 22 2 32 17 17 25 21 58 7 58 -5 0 -15 2
-23 5 -7 3 -19 0 -25 -6z"/>
<path d="M994 1830 c-22 -3 -61 -18 -86 -33 -44 -26 -47 -32 -39 -79 2 -14 24
-9 44 10 20 17 20 17 5 -13 -32 -60 -78 -172 -78 -187 0 -20 27 -31 48 -19 10
5 28 38 42 72 14 34 32 65 40 69 8 4 45 21 83 39 37 17 67 36 67 41 0 23 -31
69 -57 87 -21 14 -38 18 -69 13z m39 -74 c3 -8 -1 -17 -9 -20 -9 -4 -14 1 -14
14 0 23 15 27 23 6z"/>
<path d="M1149 1752 c-10 -7 -24 -33 -30 -57 -6 -25 -22 -57 -36 -72 -13 -16
-29 -37 -34 -48 -5 -11 -15 -28 -21 -37 -15 -22 -1 -50 26 -54 21 -3 66 15 66
27 0 4 16 9 36 11 35 4 36 3 30 -24 -6 -30 -6 -30 37 -33 34 -2 42 12 52 90 3
33 12 69 19 80 26 40 28 79 6 108 -19 24 -27 26 -77 24 -30 -1 -64 -8 -74 -15z
m66 -114 c-7 -18 -23 -39 -34 -47 -19 -12 -21 -11 -21 6 0 16 53 73 66 73 2 0
-3 -15 -11 -32z"/>
<path d="M762 1233 c-46 -32 -52 -40 -52 -80 0 -22 10 -44 30 -67 17 -19 26
-37 21 -40 -11 -7 -41 3 -41 14 0 12 -49 22 -72 14 -16 -5 -18 -11 -13 -32 8
-33 4 -30 40 -37 160 -34 217 3 140 92 -35 41 -43 67 -25 78 5 3 19 -3 30 -13
21 -19 21 -19 50 7 29 25 39 54 22 65 -5 3 -28 9 -50 15 -37 8 -47 6 -80 -16z"/>
<path d="M1020 1226 c-14 -9 -33 -15 -42 -16 -23 0 -67 -68 -75 -113 -17 -106
82 -148 188 -81 71 44 111 161 69 199 -26 24 -107 30 -140 11z m96 -57 c11
-19 -17 -75 -50 -101 -37 -30 -83 -37 -92 -15 -5 14 17 72 39 99 26 32 87 42
103 17z"/>
<path d="M765 780 c-15 -10 -22 -20 -17 -24 7 -4 -3 -29 -24 -64 -18 -31 -37
-65 -40 -74 -9 -25 -18 -22 -34 7 -7 14 -17 25 -22 25 -4 0 -8 6 -8 14 0 7 -7
19 -16 27 -10 8 -13 21 -9 36 3 13 1 32 -5 43 -25 47 -83 6 -114 -80 -10 -28
-21 -50 -25 -50 -4 0 -7 -10 -8 -21 -1 -12 -12 -38 -25 -58 -13 -20 -28 -45
-34 -56 -11 -22 -7 -55 7 -55 5 0 9 -7 9 -16 0 -12 3 -14 13 -6 6 6 16 10 21
10 10 0 12 4 67 114 19 37 37 68 40 68 6 0 77 -75 112 -119 10 -12 25 -21 34
-19 10 2 46 60 87 141 56 108 69 141 60 154 -14 23 -37 24 -69 3z"/>
<path d="M1547 3938 c-73 -16 -102 -49 -57 -63 19 -6 19 -7 -5 -70 -13 -36
-35 -84 -50 -108 -27 -47 -30 -64 -16 -86 8 -12 13 -11 30 10 11 13 32 47 45
76 23 46 29 53 63 58 57 9 116 26 131 37 18 15 15 77 -6 118 -15 31 -22 35
-57 36 -22 0 -57 -3 -78 -8z m81 -84 c3 -27 -1 -33 -23 -38 -33 -8 -45 -1 -45
28 0 54 63 63 68 10z"/>
<path d="M1826 3891 c-13 -15 -26 -18 -51 -14 -32 5 -34 3 -55 -43 -30 -67
-32 -105 -9 -142 16 -28 24 -32 61 -32 56 0 127 36 149 76 35 64 33 141 -5
166 -21 15 -73 8 -90 -11z m64 -77 c0 -64 -92 -124 -118 -78 -7 12 -3 24 12
42 44 54 66 72 86 72 16 0 20 -6 20 -36z"/>
</g>
</svg>
