<?xml version="1.0" standalone="no"?>
<!DOCTYPE svg PUBLIC "-//W3C//DTD SVG 20010904//EN"
 "http://www.w3.org/TR/2001/REC-SVG-20010904/DTD/svg10.dtd">
<svg version="1.0" xmlns="http://www.w3.org/2000/svg"
 width="533.000000pt" height="471.000000pt" viewBox="0 0 533.000000 471.000000"
 preserveAspectRatio="xMidYMid meet">
<metadata>
Created by potrace 1.16, written by Peter Selinger 2001-2019
</metadata>
<g transform="translate(0.000000,471.000000) scale(0.100000,-0.100000)"
fill="#000000" stroke="none">
<path d="M3603 4428 c-6 -7 -8 -41 -6 -76 4 -80 33 -138 110 -222 59 -63 60
-63 83 -47 14 9 21 17 16 17 -5 0 -2 7 5 17 12 14 12 17 0 21 -8 3 -26 17 -39
31 -13 14 -37 40 -53 57 -18 18 -39 61 -55 110 -29 89 -45 113 -61 92z"/>
<path d="M4520 4343 c-19 -26 -40 -52 -47 -58 -6 -7 -32 -44 -57 -83 -26 -39
-51 -74 -56 -77 -6 -3 -10 -22 -10 -41 0 -29 3 -34 23 -34 33 0 45 11 61 55 7
22 37 80 65 128 28 49 51 92 51 97 0 4 7 13 15 20 8 7 15 19 15 26 0 27 -25
13 -60 -33z"/>
<path d="M4010 4058 c-36 -12 -71 -28 -78 -35 -7 -7 -18 -14 -23 -14 -5 -1
-13 -2 -18 -3 -32 -4 -219 -165 -221 -189 0 -4 -12 -26 -26 -48 -20 -31 -26
-57 -29 -112 -2 -38 -9 -73 -15 -77 -12 -7 -4 -75 10 -95 4 -5 11 -32 15 -60
10 -70 43 -124 90 -151 11 -6 33 -31 49 -55 17 -26 54 -61 88 -83 52 -33 84
-46 198 -76 47 -13 127 -12 135 0 4 6 27 9 52 7 58 -4 120 24 183 85 25 24 63
59 85 78 22 20 46 48 54 63 8 15 22 36 33 46 10 11 18 26 18 32 0 7 6 20 14
28 7 9 21 36 30 61 21 58 29 245 11 280 -7 14 -15 42 -19 62 -9 48 -40 81 -91
98 -22 7 -57 24 -77 36 -54 34 -175 66 -200 53 -12 -6 -17 -17 -14 -26 3 -8 6
-19 6 -25 0 -6 6 -8 14 -5 7 3 17 2 22 -3 5 -5 25 -12 44 -15 19 -3 39 -10 45
-16 5 -5 16 -9 26 -9 9 0 37 -11 63 -25 26 -14 53 -25 61 -25 16 0 58 -68 50
-81 -4 -5 1 -24 10 -42 13 -28 14 -50 6 -141 -6 -63 -15 -114 -23 -124 -8 -9
-22 -33 -31 -52 -38 -78 -85 -140 -105 -140 -5 0 -17 -10 -29 -22 -24 -28 -63
-61 -97 -83 -24 -16 -53 -20 -181 -28 -52 -4 -155 19 -155 34 0 5 -6 6 -13 3
-18 -6 -136 73 -149 100 -5 12 -24 30 -41 42 -18 11 -31 26 -29 32 1 7 -4 12
-12 12 -22 0 -49 50 -64 120 -15 70 -15 71 -8 175 4 65 8 75 58 144 58 82 120
131 233 185 112 53 122 57 151 46 14 -6 36 -10 50 -10 13 0 24 -5 24 -11 0 -8
4 -8 14 0 10 9 16 8 26 -4 16 -20 29 -19 37 3 3 9 13 25 21 34 18 22 12 24
-78 32 -36 3 -81 8 -100 10 -21 3 -60 -3 -100 -16z"/>
<path d="M2101 4008 c-6 -13 -24 -44 -39 -70 -15 -25 -37 -64 -49 -85 -12 -22
-29 -45 -37 -53 -9 -7 -23 -28 -32 -46 -9 -18 -35 -55 -59 -81 -25 -26 -52
-63 -62 -80 -10 -18 -21 -33 -25 -33 -5 0 -8 -7 -8 -15 0 -8 -4 -15 -10 -15
-5 0 -10 -5 -10 -11 0 -6 -30 -53 -67 -106 -163 -231 -204 -289 -210 -303 -4
-8 -12 -20 -17 -27 -25 -28 -33 -41 -64 -93 -18 -30 -53 -84 -78 -120 -24 -36
-50 -73 -57 -84 -6 -10 -17 -24 -23 -30 -6 -7 -60 -84 -119 -171 -60 -88 -127
-185 -149 -215 -22 -30 -58 -82 -80 -115 -22 -33 -50 -73 -63 -88 -13 -16 -23
-41 -23 -57 0 -16 -4 -32 -10 -35 -9 -6 -8 -61 2 -70 6 -7 56 -8 188 -7 163 3
946 -7 1058 -12 52 -2 96 -7 99 -10 3 -3 6 -73 7 -155 1 -142 0 -150 -19 -153
-11 -2 -329 -3 -706 -3 l-686 0 -17 -23 c-25 -32 -17 -75 14 -82 21 -5 25 -12
25 -44 0 -28 6 -42 19 -50 11 -6 47 -40 80 -75 34 -35 77 -80 96 -100 20 -20
49 -54 65 -76 17 -22 35 -45 40 -52 21 -26 31 -39 56 -78 15 -22 33 -51 40
-66 48 -89 85 -116 135 -98 12 4 79 8 150 9 71 2 163 4 204 6 139 6 674 16
830 15 194 -2 480 -1 670 2 142 2 145 2 144 24 0 12 2 20 6 18 4 -2 19 22 34
53 15 31 54 86 87 121 32 36 59 69 59 74 0 15 247 255 277 269 52 24 40 113
-13 104 -25 -5 -41 8 -24 19 5 3 10 16 10 28 l0 22 -232 -3 c-128 -1 -466 -4
-750 -6 -495 -4 -517 -3 -508 14 5 9 7 28 4 41 -15 58 -24 1562 -11 1576 13
12 502 17 523 5 12 -7 27 -7 43 0 32 12 43 29 29 45 -8 10 -6 13 6 13 20 0 21
33 2 49 -8 7 -31 10 -55 7 -38 -5 -40 -3 -31 14 11 21 7 27 -69 90 -23 19 -65
59 -94 89 -29 29 -99 99 -156 155 -57 55 -128 131 -157 169 -45 55 -60 67 -84
67 -17 0 -30 5 -30 10 0 6 -13 10 -28 10 -20 0 -33 -7 -41 -22z m56 -561 c1
-237 3 -638 4 -889 2 -252 0 -461 -4 -464 -6 -7 -894 -10 -1135 -5 l-122 3 22
36 c45 76 121 187 129 190 5 2 9 10 9 17 0 7 3 15 8 17 4 2 25 29 46 61 22 31
43 57 47 57 4 0 11 10 15 23 4 12 10 24 14 27 4 3 24 32 43 65 19 33 45 69 56
79 12 11 21 23 21 28 0 5 16 29 35 52 19 24 35 47 35 51 0 5 8 17 17 27 10 11
26 34 38 53 11 18 46 70 78 115 31 45 57 85 57 89 0 4 8 16 18 27 32 35 72 93
72 102 0 6 4 12 9 14 5 2 28 33 52 69 103 156 163 239 171 239 5 0 7 4 4 9 -3
5 4 20 17 34 12 14 38 47 57 74 19 26 37 50 40 53 3 3 34 44 69 93 34 48 65
87 69 87 4 0 8 -195 9 -433z m201 281 c60 -62 123 -126 139 -143 16 -16 44
-44 63 -61 43 -38 84 -93 75 -102 -7 -7 -343 -10 -381 -4 -20 4 -21 8 -19 180
2 206 4 242 9 242 2 0 53 -51 114 -112z m902 -2158 c217 -1 403 -3 414 -7 15
-4 8 -15 -45 -68 -127 -125 -256 -261 -275 -288 -10 -16 -35 -54 -55 -85 l-36
-56 -69 -3 c-38 -1 -94 -4 -124 -7 -30 -2 -77 -1 -103 4 -26 4 -50 4 -52 0 -4
-6 -150 -13 -240 -12 -149 2 -331 0 -395 -3 -41 -3 -282 -6 -534 -7 l-459 -2
-23 30 c-13 16 -24 35 -24 42 0 6 -4 12 -8 12 -5 0 -14 12 -21 28 -17 36 -85
125 -141 183 -25 25 -72 76 -105 113 -33 38 -68 76 -79 86 -10 10 -16 22 -13
27 3 5 196 10 428 11 233 2 424 4 426 5 1 2 258 1 570 0 312 -1 746 -3 963 -3z"/>
<path d="M4928 3958 c-147 -50 -167 -64 -152 -102 11 -30 51 -18 212 63 40 20
86 42 102 50 35 17 40 41 8 40 -13 -1 -89 -24 -170 -51z"/>
<path d="M3217 3828 c-26 -20 -6 -83 31 -97 39 -15 124 -63 146 -83 37 -33 66
-18 66 33 0 12 -10 23 -25 29 -14 5 -25 14 -25 20 0 5 -5 10 -10 10 -6 0 -30
9 -52 20 -23 11 -47 20 -54 20 -7 0 -23 14 -36 30 -20 26 -26 28 -41 18z"/>
<path d="M4796 3513 c-13 -14 -6 -61 12 -69 39 -17 173 -40 225 -39 88 3 120
45 34 45 -45 0 -120 18 -177 42 -48 20 -86 29 -94 21z"/>
<path d="M3511 3117 c-52 -20 -171 -121 -171 -145 0 -22 35 -16 62 10 37 36
100 68 144 74 49 6 71 19 76 48 4 19 0 26 -16 30 -30 8 -35 7 -95 -17z"/>
<path d="M4636 3124 c-11 -30 157 -224 194 -224 5 0 10 -7 10 -16 0 -10 7 -14
23 -12 36 5 22 42 -44 111 -32 34 -61 70 -65 80 -3 9 -9 17 -14 17 -5 0 -16
14 -25 30 -12 23 -22 30 -44 30 -17 0 -31 -6 -35 -16z"/>
<path d="M3896 2911 c-20 -8 -25 -23 -65 -206 -18 -81 -25 -136 -22 -172 1 -7
8 -13 16 -13 9 0 21 25 35 73 22 77 54 176 76 242 18 53 18 71 -2 79 -9 3 -16
6 -17 5 -1 0 -11 -4 -21 -8z"/>
<path d="M4301 2901 c-14 -9 -9 -138 11 -269 11 -73 21 -93 39 -75 14 14 22
308 10 331 -10 19 -39 25 -60 13z"/>
<path d="M3949 1306 c-2 -2 -29 -7 -59 -10 -30 -3 -66 -8 -80 -11 -14 -3 -47
-8 -75 -12 -27 -3 -52 -9 -55 -13 -3 -4 -27 -20 -55 -36 -27 -15 -56 -34 -63
-41 -8 -7 -22 -17 -32 -23 -29 -15 -31 -47 -4 -65 20 -13 27 -13 44 -3 11 7
20 18 20 25 0 7 11 15 25 19 14 3 25 9 25 13 0 9 55 41 78 46 9 1 37 8 62 15
57 16 158 20 237 9 54 -8 90 -20 208 -75 17 -8 40 -16 50 -18 11 -3 46 -11 77
-20 32 -8 99 -18 150 -21 80 -6 102 -4 159 14 37 12 79 23 95 24 51 4 96 107
47 107 -8 0 -48 -16 -90 -36 -84 -41 -151 -49 -263 -32 -81 12 -168 36 -176
49 -3 5 -10 7 -15 4 -5 -3 -29 6 -53 20 -24 14 -70 30 -102 35 -33 5 -60 14
-62 20 -2 5 -14 7 -27 4 -13 -3 -32 -1 -43 5 -11 6 -21 9 -23 7z"/>
<path d="M825 1144 c-38 -8 -77 -17 -85 -21 -8 -3 -19 -5 -23 -4 -5 1 -7 -15
-6 -36 4 -45 25 -57 56 -33 21 17 106 37 128 31 6 -2 21 -5 34 -8 14 -2 28 -6
33 -9 16 -10 48 17 48 41 0 27 -13 38 -50 41 -14 2 -34 5 -45 7 -11 2 -51 -2
-90 -9z"/>
<path d="M268 1004 c-42 -14 -91 -38 -108 -53 l-33 -27 25 -28 c21 -25 26 -27
39 -14 42 42 134 76 216 79 50 2 197 -26 235 -46 17 -8 44 -15 59 -15 15 0 31
-5 34 -10 4 -6 11 -8 16 -5 5 4 9 2 9 -3 0 -5 6 -9 13 -10 24 -2 47 -8 53 -15
4 -4 17 -7 28 -7 11 0 75 -26 141 -59 108 -53 158 -70 220 -76 11 -1 48 -5 83
-9 40 -5 67 -4 75 2 12 11 136 35 169 34 26 -1 43 25 28 43 -17 20 -123 20
-188 -1 -45 -15 -58 -15 -145 -1 -90 14 -237 68 -237 87 0 4 -43 22 -95 39
-52 17 -107 36 -122 43 -16 6 -41 12 -56 14 -15 2 -41 11 -57 19 -16 8 -37 15
-48 15 -10 0 -22 3 -26 7 -10 10 -30 13 -146 19 -95 4 -112 2 -182 -22z"/>
<path d="M3804 776 c-28 -17 -68 -44 -90 -61 -33 -26 -124 -74 -139 -74 -3 0
-29 -7 -58 -16 -28 -8 -89 -17 -134 -20 -67 -4 -96 -1 -170 21 -48 13 -92 30
-98 37 -10 13 -115 41 -192 53 -24 3 -43 10 -43 15 0 5 -3 8 -7 8 -5 -1 -10 0
-13 1 -26 10 -250 13 -289 3 -25 -5 -89 -47 -102 -65 -8 -12 13 -78 23 -72 5
3 5 11 2 17 -4 7 -4 9 0 5 5 -4 25 3 45 16 20 12 50 27 66 33 43 14 192 8 245
-11 25 -8 73 -19 107 -25 34 -5 88 -22 120 -37 71 -33 163 -65 163 -57 0 3 6
1 13 -4 6 -6 37 -8 67 -5 30 2 87 6 126 8 47 2 88 10 125 27 29 13 68 27 84
31 26 6 89 46 105 66 3 4 31 21 62 39 65 37 72 44 63 70 -9 31 -27 30 -81 -3z"/>
<path d="M1812 605 c-83 -28 -113 -48 -137 -87 -35 -60 32 -96 70 -38 11 16
26 30 33 30 6 0 12 4 12 10 0 5 12 13 28 16 15 4 32 11 39 16 7 5 22 9 35 8
13 -1 28 -1 33 0 20 4 91 -2 130 -11 22 -5 56 -11 76 -13 20 -2 46 -10 59 -19
36 -25 83 3 77 45 -4 24 -12 26 -142 43 -27 4 -63 10 -80 14 -65 17 -158 11
-233 -14z"/>
<path d="M4935 558 c-11 -7 -31 -22 -45 -35 -56 -52 -193 -91 -276 -78 -77 11
-98 16 -109 25 -6 5 -35 12 -65 15 -30 4 -59 10 -65 14 -5 5 -25 9 -43 9 -18
0 -39 5 -45 10 -20 15 -148 14 -210 -3 -32 -8 -63 -12 -69 -9 -30 19 -368
-170 -368 -205 0 -5 -13 -24 -30 -42 -33 -38 -34 -42 -20 -70 20 -36 38 -24
117 80 29 37 118 96 163 109 19 5 34 13 33 19 -2 8 111 41 167 49 8 2 42 7 74
13 56 10 130 2 160 -17 6 -3 22 -8 36 -10 14 -2 50 -10 80 -18 150 -42 313
-53 367 -26 97 50 180 86 191 84 8 -2 11 1 8 7 -4 5 -2 12 4 16 15 9 12 41 -6
59 -18 19 -23 19 -49 4z"/>
<path d="M565 514 c-128 -23 -158 -32 -214 -61 -25 -14 -56 -34 -68 -46 -26
-23 -30 -69 -8 -87 16 -13 32 -6 58 26 35 45 76 62 237 100 43 10 209 17 227
9 10 -4 35 -9 56 -11 21 -2 54 -11 75 -21 20 -9 41 -15 46 -14 5 1 12 -2 15
-6 7 -11 117 -53 138 -53 8 0 29 -11 47 -25 18 -14 36 -22 39 -19 3 4 30 -3
59 -14 69 -27 100 -33 177 -38 38 -2 68 -9 73 -16 5 -8 11 -9 16 -3 4 6 16 15
27 21 11 6 22 22 25 35 5 20 1 26 -25 34 -19 7 -32 7 -37 1 -4 -6 -36 -6 -90
2 -122 17 -128 19 -222 62 -25 11 -52 20 -61 20 -10 0 -54 18 -98 40 -150 72
-324 95 -492 64z"/>
<path d="M2193 359 c-35 -4 -67 -10 -73 -14 -5 -3 -25 -8 -44 -10 -46 -6 -137
-47 -159 -72 -17 -19 -17 -21 1 -43 20 -25 22 -24 107 30 17 10 46 21 65 24
19 3 73 12 120 20 47 8 138 13 202 13 101 -2 120 -5 145 -23 26 -20 83 -36
171 -50 19 -3 54 -16 79 -30 74 -39 209 -31 348 19 33 12 41 20 43 44 2 23 -3
32 -23 43 -24 13 -28 12 -43 -7 -10 -12 -41 -28 -71 -37 -59 -17 -191 -22
-207 -7 -10 10 -131 41 -179 47 -16 2 -58 18 -92 34 -61 30 -65 31 -195 29
-73 -2 -161 -6 -195 -10z"/>
</g>
</svg>
