<?xml version="1.0" standalone="no"?>
<!DOCTYPE svg PUBLIC "-//W3C//DTD SVG 20010904//EN"
 "http://www.w3.org/TR/2001/REC-SVG-20010904/DTD/svg10.dtd">
<svg version="1.0" xmlns="http://www.w3.org/2000/svg"
 width="487.000000pt" height="423.000000pt" viewBox="0 0 487.000000 423.000000"
 preserveAspectRatio="xMidYMid meet">
<metadata>
Created by potrace 1.16, written by Peter Selinger 2001-2019
</metadata>
<g transform="translate(0.000000,423.000000) scale(0.100000,-0.100000)"
fill="#000000" stroke="none">
<path d="M2018 4096 c-10 -7 -18 -22 -18 -33 0 -24 -48 -173 -61 -189 -4 -5
-15 -48 -24 -95 -17 -94 -39 -178 -53 -206 -5 -10 -8 -64 -6 -120 2 -57 0
-103 -4 -103 -18 0 -118 33 -129 42 -7 6 -13 8 -13 4 0 -8 -74 29 -110 54 -14
10 -45 23 -70 30 -29 8 -59 26 -83 51 -53 54 -72 63 -91 43 -17 -16 -22 -54
-8 -54 4 0 34 -23 65 -51 37 -33 69 -52 92 -56 19 -3 35 -10 35 -14 0 -5 7 -9
15 -9 8 0 15 -4 15 -9 0 -5 14 -14 30 -20 17 -5 30 -14 30 -20 0 -5 9 -7 20
-4 12 3 29 -2 40 -12 11 -10 20 -15 20 -10 0 4 7 2 15 -5 8 -7 15 -10 15 -7 0
3 14 1 30 -5 l30 -10 -5 -322 c-9 -605 -9 -681 -1 -786 l9 -105 -21 26 c-11
14 -24 37 -27 52 -4 14 -13 28 -20 31 -7 2 -26 26 -41 53 -24 42 -66 92 -141
167 -12 12 -33 43 -47 69 -24 46 -42 71 -109 151 -17 21 -38 49 -45 63 -7 13
-28 40 -47 59 -19 20 -38 41 -42 47 -13 20 -81 67 -97 67 -8 0 -17 4 -20 9 -3
5 -23 12 -43 17 -21 4 -40 8 -43 9 -3 1 -17 5 -32 9 -25 7 -27 11 -33 94 -3
48 -10 94 -15 103 -5 9 -12 34 -16 55 -4 22 -15 50 -25 64 -9 14 -21 44 -24
65 -4 22 -14 52 -21 67 -13 25 -12 32 6 65 11 21 20 41 20 46 0 5 11 33 25 63
31 69 31 87 0 104 -22 12 -27 11 -40 -6 -8 -10 -15 -29 -15 -42 0 -12 -10 -42
-21 -65 l-22 -41 -26 70 c-14 39 -34 82 -43 97 -10 14 -18 35 -18 45 0 10 -3
22 -7 26 -5 4 -8 11 -8 14 -2 22 -18 68 -33 90 -9 14 -17 31 -18 39 -3 21 -16
30 -21 15 -4 -9 -9 -10 -17 -2 -9 7 -17 5 -28 -8 -24 -28 -29 -52 -13 -58 8
-4 15 -12 15 -18 0 -7 11 -19 25 -26 22 -12 28 -25 39 -90 3 -22 37 -90 45
-90 4 0 7 -9 8 -20 1 -10 8 -34 16 -52 9 -18 26 -67 40 -108 37 -111 47 -140
72 -195 24 -52 32 -84 40 -150 2 -22 6 -51 9 -64 16 -74 -25 -96 -105 -56 -30
15 -69 35 -87 43 -18 9 -46 33 -62 53 -23 29 -34 35 -55 32 -16 -4 -27 -14
-31 -30 -6 -20 2 -32 42 -69 27 -24 68 -53 92 -66 23 -12 42 -25 42 -30 0 -4
8 -8 18 -8 10 0 22 -4 28 -10 5 -5 52 -11 104 -13 52 -2 105 -9 116 -15 12 -6
38 -13 57 -16 45 -5 126 -50 153 -84 12 -15 34 -40 48 -57 14 -16 26 -34 26
-38 0 -4 12 -19 27 -33 32 -30 80 -98 124 -178 18 -32 43 -63 55 -68 12 -6 25
-20 28 -32 3 -11 19 -30 35 -41 16 -10 39 -38 51 -62 12 -23 34 -56 51 -72 16
-16 29 -38 29 -48 0 -10 11 -30 25 -45 13 -14 27 -38 31 -52 3 -14 12 -30 20
-37 8 -6 14 -20 14 -30 0 -29 35 -43 63 -24 22 14 23 19 16 82 -20 201 -23
268 -20 478 2 127 4 337 5 467 1 131 3 238 6 238 4 0 4 16 2 35 -6 52 22 45
50 -12 12 -27 38 -73 55 -103 18 -30 33 -63 33 -72 0 -10 4 -18 9 -18 5 0 18
-19 30 -42 11 -24 41 -70 65 -103 25 -33 45 -64 45 -68 1 -4 13 -19 27 -32 28
-26 63 -86 70 -119 2 -11 16 -45 30 -75 15 -31 36 -75 47 -98 11 -24 23 -43
27 -43 4 0 11 -21 15 -46 3 -25 17 -75 31 -110 13 -36 25 -88 25 -115 1 -27 5
-46 10 -43 5 2 17 -3 27 -13 26 -26 49 -27 66 -1 16 27 36 161 51 353 3 39 8
77 10 85 2 8 7 35 10 60 4 24 8 47 10 51 7 10 53 242 60 299 4 30 14 87 22
125 9 39 16 84 15 100 0 27 41 155 59 180 4 6 10 25 14 43 16 75 14 22 -10
-266 -2 -35 -7 -67 -10 -71 -17 -28 -21 -289 -6 -396 24 -177 42 -284 56 -330
8 -27 24 -82 35 -121 16 -58 27 -78 56 -100 31 -25 69 -39 62 -23 -2 3 9 20
25 38 15 18 27 38 27 45 0 26 103 139 362 396 244 242 355 343 368 335 6 -3
10 -3 10 2 0 23 93 103 120 103 13 0 -21 -51 -60 -91 -14 -15 -32 -37 -40 -49
-27 -41 -84 -115 -107 -140 -13 -14 -23 -28 -23 -32 0 -3 -6 -13 -13 -20 -28
-28 -157 -228 -163 -252 -3 -14 -10 -26 -15 -26 -5 0 -9 -7 -9 -15 0 -8 -9
-24 -19 -34 -39 -39 -101 -123 -101 -138 0 -17 25 -45 34 -36 3 3 12 1 20 -6
11 -9 15 -8 19 6 15 43 76 111 132 146 22 13 54 37 71 53 17 16 53 47 80 69
27 22 54 44 60 50 6 5 25 21 44 35 18 14 40 32 49 40 29 27 99 80 104 80 4 0
17 10 31 23 47 42 94 77 103 77 5 0 19 9 32 21 12 12 25 18 28 15 3 -3 -13
-22 -36 -43 -24 -21 -74 -68 -113 -105 -38 -38 -74 -68 -79 -68 -5 0 -9 -4 -9
-9 0 -5 -40 -49 -88 -98 -133 -133 -244 -267 -268 -323 -6 -14 -18 -32 -25
-40 -8 -8 -29 -48 -48 -87 -19 -40 -38 -73 -43 -73 -4 0 -8 -7 -8 -15 0 -8 -5
-15 -11 -15 -5 0 -8 -4 -5 -8 3 -5 -3 -24 -13 -43 -10 -19 -31 -63 -47 -99
-27 -63 -81 -160 -94 -170 -4 -3 -10 -17 -14 -32 -3 -16 -11 -28 -16 -28 -6 0
-10 -8 -10 -19 0 -10 -23 -74 -51 -142 -28 -68 -59 -157 -70 -197 -10 -40 -25
-87 -33 -105 -22 -45 -46 -145 -46 -187 0 -19 -7 -54 -15 -76 -8 -23 -17 -79
-20 -125 -4 -46 -9 -88 -12 -93 -11 -18 -13 -304 -3 -354 11 -49 43 -80 67
-64 20 14 39 92 22 92 -21 0 -27 127 -15 305 8 124 16 172 32 212 8 19 17 68
19 110 2 41 8 80 14 87 5 6 15 34 22 61 6 28 18 61 24 75 7 14 16 41 19 60 8
48 20 87 43 140 11 25 30 70 43 100 36 88 73 164 83 171 5 3 8 8 7 10 -5 9
161 340 180 359 11 11 18 20 15 20 -9 0 42 93 64 119 12 13 21 28 21 33 0 13
66 100 117 156 24 25 43 50 43 54 0 4 6 8 13 8 6 0 23 15 37 33 13 17 52 57
86 87 34 30 63 60 63 65 1 6 10 17 21 25 11 8 20 20 20 28 0 7 8 16 18 19 9 4
61 48 115 97 54 50 104 93 112 96 21 7 96 101 92 114 -2 5 -17 18 -34 27 -28
16 -35 16 -83 2 -29 -8 -80 -35 -114 -59 -33 -25 -83 -60 -111 -79 -27 -19
-68 -50 -90 -69 -22 -20 -46 -36 -52 -36 -7 0 -13 -4 -13 -10 0 -5 -5 -10 -10
-10 -10 0 -42 -26 -100 -82 -16 -15 -46 -38 -67 -51 -21 -14 -56 -43 -78 -66
-43 -45 -74 -57 -34 -14 14 16 38 48 53 73 51 87 60 99 98 141 15 16 35 44 44
62 9 17 25 39 35 48 11 9 19 21 19 27 0 6 6 15 13 19 7 4 23 22 36 38 12 17
52 60 87 97 35 37 64 72 64 77 0 5 10 18 23 28 12 10 39 39 60 66 21 26 44 47
50 47 15 0 51 38 60 63 9 24 -53 64 -68 44 -5 -8 -16 -12 -22 -10 -7 3 -13 -1
-13 -9 0 -7 -8 -21 -17 -30 -10 -9 -29 -32 -43 -52 -14 -19 -29 -36 -35 -36
-5 0 -18 -15 -29 -33 -19 -32 -35 -24 -21 11 4 9 9 31 11 47 8 61 27 131 45
161 11 17 19 40 19 51 0 11 3 23 7 26 3 4 8 24 10 45 2 20 8 41 14 47 5 5 9
17 9 27 0 10 5 26 10 36 6 9 19 39 30 65 11 27 24 46 29 43 5 -3 11 7 14 22
12 61 -47 109 -74 60 -7 -13 -13 -27 -14 -33 0 -14 -37 -108 -47 -121 -15 -21
-49 -139 -50 -174 0 -19 -9 -51 -21 -70 -23 -37 -26 -47 -32 -97 -2 -18 -9
-52 -16 -75 -6 -24 -12 -49 -13 -56 -1 -7 -15 -19 -30 -27 -16 -8 -38 -23 -50
-34 -72 -64 -126 -113 -182 -166 -35 -33 -99 -91 -141 -130 -84 -76 -308 -303
-329 -333 -7 -10 -49 -55 -93 -100 -45 -45 -81 -87 -81 -93 0 -6 -9 -23 -20
-39 -11 -15 -17 -30 -13 -34 3 -3 2 -6 -4 -6 -16 0 -28 21 -42 75 -7 28 -14
57 -17 65 -24 91 -42 186 -48 248 -3 29 -7 56 -10 60 -16 28 -22 348 -7 397 5
16 12 68 16 115 3 47 9 110 12 140 3 30 5 62 5 70 1 24 27 161 33 171 3 5 8
25 10 44 3 20 12 49 20 64 8 16 11 31 8 34 -3 4 -1 13 5 20 10 11 29 79 59
203 2 11 -2 25 -10 32 -23 20 -63 -7 -78 -52 -7 -21 -26 -58 -41 -83 -15 -24
-28 -48 -28 -53 0 -6 -4 -18 -9 -28 -30 -57 -81 -170 -81 -180 0 -7 -3 -12 -7
-12 -5 0 -9 -19 -11 -43 -3 -44 -30 -127 -42 -127 -4 0 -7 -6 -8 -12 0 -11 -7
-41 -16 -73 -4 -16 -15 -76 -21 -119 -7 -50 -14 -84 -25 -116 -5 -14 -11 -45
-14 -70 -3 -25 -21 -108 -41 -185 -20 -77 -40 -187 -45 -245 -6 -58 -16 -134
-23 -170 l-12 -65 -20 45 c-10 25 -20 55 -21 67 -2 13 -28 76 -60 140 -31 65
-57 128 -58 140 0 13 -5 23 -10 23 -4 0 -6 7 -2 15 3 8 2 15 -2 15 -4 0 -16
15 -27 33 -10 17 -25 38 -32 46 -14 14 -90 121 -108 151 -6 10 -17 25 -24 34
-7 9 -10 16 -5 16 4 0 -2 10 -13 23 -11 12 -27 41 -37 65 -9 24 -25 52 -35 64
-11 11 -22 31 -26 45 -6 26 -53 103 -69 115 -19 13 -7 235 18 337 13 53 28
121 34 151 6 30 18 73 28 95 10 22 19 45 20 50 9 33 37 102 45 112 13 14 -3
48 -27 57 -19 7 -15 8 -36 -8z m794 -633 c-3 -16 -7 -22 -10 -15 -4 13 4 42
11 42 2 0 2 -12 -1 -27z m1378 -653 c-33 -26 -50 -26 -20 0 13 11 28 20 34 20
6 0 0 -9 -14 -20z"/>
<path d="M1053 2714 c-17 -7 -34 -18 -38 -24 -3 -5 -15 -10 -25 -10 -11 0 -39
-13 -62 -30 -24 -16 -56 -32 -71 -34 -16 -3 -63 -23 -105 -44 -82 -42 -183
-65 -261 -60 -36 2 -45 0 -51 -17 -5 -13 -3 -28 7 -40 12 -17 26 -20 91 -20
79 0 103 7 207 55 68 32 92 41 120 47 11 2 41 16 67 32 25 16 57 32 70 36 12
4 32 14 43 21 30 21 45 17 45 -13 0 -43 41 -163 77 -221 17 -30 35 -67 38 -84
4 -16 13 -32 21 -35 8 -3 14 -17 14 -32 0 -38 32 -92 89 -151 28 -29 53 -60
56 -71 4 -10 10 -19 15 -19 5 0 17 -15 26 -32 18 -34 50 -68 66 -68 10 0 17
-5 78 -60 24 -22 48 -40 52 -40 4 0 8 -6 8 -14 0 -7 30 -44 67 -82 37 -37 80
-87 95 -110 15 -24 38 -50 52 -59 27 -18 38 -54 61 -190 7 -44 25 -114 38
-157 14 -42 29 -107 32 -145 4 -37 9 -77 12 -88 11 -54 21 -126 24 -185 5 -80
3 -550 -2 -644 -4 -60 -2 -70 17 -82 55 -37 64 20 65 391 0 260 -10 440 -31
510 -5 17 -14 77 -20 134 -8 70 -17 112 -30 130 -10 14 -21 46 -24 71 -21 190
-50 284 -94 314 -16 10 -39 35 -52 55 -47 71 -311 339 -337 342 -11 1 -71 72
-75 89 -4 17 -26 47 -55 73 -27 25 -61 87 -66 121 -1 14 -10 33 -19 43 -8 10
-21 35 -29 56 -7 20 -17 37 -21 37 -4 0 -8 8 -8 18 0 10 -5 23 -10 28 -11 11
-41 113 -47 159 -9 75 -16 93 -39 104 -31 14 -41 13 -81 -5z"/>
<path d="M4411 2621 c-7 -13 -15 -56 -18 -97 -3 -41 -9 -74 -14 -74 -4 0 -20
5 -35 11 -34 12 -62 0 -111 -50 -38 -39 -50 -86 -33 -135 15 -45 92 -149 131
-177 17 -12 28 -24 25 -26 -3 -3 14 -18 37 -33 23 -14 56 -43 74 -63 18 -20
37 -37 43 -37 5 0 11 -12 11 -27 1 -16 2 -32 4 -38 1 -5 3 -18 3 -27 1 -11 7
-15 17 -12 8 4 15 1 15 -6 0 -7 5 -6 15 4 11 11 14 36 13 98 -1 83 14 190 30
212 5 6 14 31 21 55 7 25 18 56 23 70 21 51 17 123 -9 168 -13 23 -32 44 -41
47 -52 13 -74 15 -89 8 -10 -5 -33 -17 -52 -27 -30 -16 -34 -16 -28 -2 3 9 9
42 12 74 6 49 4 62 -13 83 l-19 24 -12 -23z m184 -221 c15 -12 16 -24 11 -78
-4 -35 -15 -83 -26 -105 -16 -36 -31 -79 -47 -137 -7 -25 -22 12 -50 119 -41
156 -41 152 -3 109 21 -24 41 -38 57 -38 24 0 43 27 27 39 -32 22 -63 89 -49
103 11 10 62 3 80 -12z m-218 -23 c7 0 13 -6 13 -12 0 -16 -29 -73 -41 -80 -5
-4 -9 -19 -9 -34 0 -21 6 -30 22 -35 13 -3 27 -1 32 4 17 17 23 11 34 -32 26
-102 24 -105 -28 -58 -18 17 -37 30 -42 30 -4 0 -8 6 -8 13 0 7 -9 18 -20 25
-11 7 -20 19 -20 27 0 7 -8 20 -18 27 -10 7 -22 28 -25 47 -6 29 -3 39 20 63
20 21 32 26 52 21 14 -3 31 -6 38 -6z"/>
<path d="M3703 1778 c-4 -7 -9 -59 -11 -115 l-4 -102 -47 6 c-46 5 -49 4 -92
-42 -24 -26 -45 -57 -47 -68 -6 -50 -3 -86 9 -108 7 -13 14 -32 16 -43 4 -22
35 -76 44 -76 3 0 14 -19 25 -42 10 -24 21 -45 24 -48 3 -3 21 -25 40 -50 19
-25 46 -55 60 -67 14 -11 36 -44 49 -71 13 -29 34 -55 48 -61 22 -10 25 -8 39
24 7 19 14 50 14 70 0 19 9 60 19 90 10 29 16 56 13 59 -3 3 0 6 6 6 7 0 12 7
12 16 0 8 13 52 28 97 26 75 32 124 23 205 -2 22 -89 99 -119 105 -16 3 -45 2
-67 -3 l-38 -9 6 84 c3 47 10 92 16 102 19 36 -44 75 -66 41z m-63 -289 c0 -5
9 -9 20 -9 24 0 24 -4 6 -33 -8 -12 -22 -54 -32 -94 -17 -65 -19 -70 -32 -52
-7 11 -16 31 -18 46 -3 14 -9 34 -14 43 -13 24 33 122 54 114 9 -3 16 -10 16
-15z m210 -9 c0 -5 7 -10 15 -10 48 0 58 -146 18 -245 -12 -27 -34 -82 -50
-122 l-29 -72 -53 55 c-29 31 -58 68 -64 82 -6 15 -19 32 -27 39 -13 10 -13
15 3 42 10 17 18 34 17 38 -1 21 13 74 21 79 5 2 8 -10 7 -28 -1 -19 6 -56 16
-84 9 -27 18 -71 20 -96 4 -57 22 -79 53 -65 24 11 37 45 23 62 -5 6 -15 36
-21 66 -6 30 -18 68 -27 84 -14 28 -14 29 1 16 9 -7 22 -31 29 -52 11 -40 40
-54 51 -25 7 18 -35 141 -61 176 -36 49 -28 63 41 69 9 0 17 -3 17 -9z"/>
<path d="M963 1602 c-21 -13 -32 -59 -34 -144 -1 -46 -4 -88 -6 -93 -2 -7 -28
-9 -66 -7 -57 4 -68 1 -118 -29 -110 -66 -143 -139 -120 -267 6 -37 13 -78 16
-92 2 -14 8 -49 13 -78 9 -53 4 -104 -16 -153 -8 -20 -7 -31 3 -46 13 -18 19
-19 57 -11 24 6 58 17 76 24 18 8 42 14 52 14 11 0 20 4 20 9 0 5 15 14 33 21
106 40 126 52 180 106 91 90 145 208 146 314 0 46 -25 91 -72 129 -38 30 -63
33 -117 16 -13 -4 -22 -1 -26 9 -5 14 20 199 32 230 7 18 -13 56 -29 56 -7 0
-17 -4 -24 -8z m-80 -321 c13 -2 7 -52 -10 -82 -9 -16 -33 -36 -53 -45 -41
-20 -50 -31 -50 -62 0 -14 8 -26 21 -30 20 -8 20 -8 1 -32 -10 -14 -22 -36
-26 -50 -7 -29 -33 -66 -41 -58 -13 13 -45 152 -45 194 0 38 7 56 33 90 45 61
95 83 170 75z m228 -57 c18 -19 22 -34 20 -75 -2 -54 -27 -129 -42 -129 -5 0
-9 -5 -9 -10 0 -36 -107 -143 -175 -175 -44 -21 -166 -65 -179 -65 -11 0 9 36
31 55 13 11 23 26 23 33 0 7 4 12 9 12 5 0 14 12 20 28 6 15 15 34 21 42 15
23 57 122 64 152 3 15 13 34 22 42 8 9 12 16 8 16 -5 0 -3 5 4 12 7 7 12 21
13 33 1 17 2 16 8 -5 5 -14 7 -79 5 -144 -3 -114 3 -146 27 -146 17 0 29 80
32 201 l2 123 -30 6 c-37 7 -13 19 28 15 15 -2 29 0 32 5 8 13 41 0 66 -26z"/>
<path d="M1558 1075 c-8 -19 -8 -28 2 -40 8 -10 10 -19 4 -23 -5 -4 -10 -20
-10 -37 -3 -71 -1 -68 -33 -44 -25 18 -37 21 -85 15 -122 -16 -171 -127 -141
-316 14 -82 7 -182 -14 -231 -11 -23 -17 -48 -14 -55 7 -19 57 -26 143 -20 41
3 88 6 103 6 32 0 76 22 125 63 18 15 39 27 46 27 7 0 22 12 32 26 10 14 24
31 29 38 32 35 48 99 47 178 -1 45 -6 86 -12 92 -5 5 -10 20 -10 33 0 13 -10
39 -22 59 -22 34 -25 35 -68 30 -25 -2 -54 -8 -64 -12 -16 -6 -18 -4 -12 12
12 29 27 176 21 202 -8 32 -52 30 -67 -3z m-54 -219 c30 -27 30 -75 2 -104 -9
-9 -32 -33 -51 -53 -40 -42 -43 -59 -15 -77 16 -10 20 -10 20 0 0 10 3 9 9 -1
7 -11 10 -10 15 6 8 24 53 69 62 61 11 -12 -21 -94 -48 -123 -28 -30 -38 -75
-17 -75 18 0 80 52 94 79 7 15 16 49 21 76 7 48 8 49 15 20 5 -16 6 -38 3 -48
-7 -23 12 -46 34 -40 14 3 17 16 16 76 0 40 -6 82 -12 94 -20 36 -15 60 13 66
27 5 45 -15 45 -50 0 -11 6 -25 13 -31 20 -21 17 -132 -5 -164 -10 -14 -18
-30 -18 -35 0 -26 -128 -126 -165 -130 -11 -1 -57 -4 -103 -7 -81 -5 -82 -5
-77 17 3 12 8 36 10 52 2 17 4 32 5 35 4 13 0 82 -10 149 -5 40 -7 83 -4 95 5
22 12 55 13 68 1 3 13 20 27 37 32 38 72 41 108 7z"/>
</g>
</svg>
