<?xml version="1.0" standalone="no"?>
<!DOCTYPE svg PUBLIC "-//W3C//DTD SVG 20010904//EN"
 "http://www.w3.org/TR/2001/REC-SVG-20010904/DTD/svg10.dtd">
<svg version="1.0" xmlns="http://www.w3.org/2000/svg"
 width="429.000000pt" height="437.000000pt" viewBox="0 0 429.000000 437.000000"
 preserveAspectRatio="xMidYMid meet">
<metadata>
Created by potrace 1.16, written by Peter Selinger 2001-2019
</metadata>
<g transform="translate(0.000000,437.000000) scale(0.100000,-0.100000)"
fill="#000000" stroke="none">
<path d="M1910 4130 c-12 -8 -11 -17 13 -65 15 -31 37 -83 48 -115 20 -58 20
-59 1 -78 -17 -17 -19 -30 -15 -98 4 -51 13 -93 26 -119 11 -22 19 -41 19 -42
-1 -2 7 -22 17 -45 20 -46 96 -110 143 -122 36 -8 55 -52 62 -146 4 -41 15
-93 26 -115 24 -49 32 -135 14 -135 -7 0 -18 19 -25 42 -7 26 -27 58 -55 87
-24 24 -44 50 -44 57 0 8 -6 11 -13 8 -7 -2 -19 6 -26 18 -21 40 -92 83 -136
83 -38 0 -41 2 -64 50 -32 68 -38 83 -52 132 -20 72 -55 64 -51 -12 3 -46 51
-194 69 -213 16 -16 27 -58 20 -70 -6 -8 47 -121 61 -132 4 -3 18 -21 31 -40
21 -32 83 -81 139 -109 23 -12 60 -11 97 3 11 5 25 9 31 11 13 4 59 -21 60
-32 0 -4 4 -24 8 -43 5 -19 10 -46 12 -60 12 -93 24 -172 33 -210 14 -60 14
-60 -8 -60 -15 0 -21 10 -26 43 -4 23 -20 67 -35 97 -28 55 -80 131 -80 117 0
-5 -12 4 -27 18 -16 14 -45 30 -67 36 -35 9 -42 8 -75 -16 -32 -23 -37 -24
-46 -9 -5 9 -22 30 -37 47 -15 18 -28 35 -28 38 0 3 -8 15 -17 27 -10 11 -34
40 -53 65 -41 52 -76 80 -90 72 -20 -12 -9 -47 25 -88 19 -22 35 -45 35 -49 0
-5 5 -6 10 -3 6 3 15 3 21 -1 8 -5 8 -8 0 -14 -8 -4 0 -23 24 -58 19 -28 35
-54 35 -57 0 -3 14 -24 30 -47 17 -22 30 -52 30 -65 0 -38 49 -124 97 -170 44
-43 119 -83 154 -83 11 0 19 -6 19 -12 0 -9 3 -10 8 -2 20 30 50 34 89 13 l39
-21 20 -144 c11 -80 17 -147 15 -150 -2 -2 -18 31 -34 73 -24 64 -40 88 -89
136 -52 50 -64 57 -99 57 -22 0 -54 -7 -71 -16 -37 -19 -27 -28 -134 129 -58
84 -69 96 -83 85 -9 -7 -18 -13 -20 -15 -1 -1 1 -8 5 -15 5 -7 9 -18 10 -25 3
-15 87 -157 96 -161 5 -2 8 -8 8 -13 0 -6 17 -33 39 -62 21 -29 42 -63 46 -77
4 -14 17 -38 29 -55 12 -16 28 -44 35 -62 12 -30 65 -77 142 -127 39 -26 66
-21 106 16 23 21 23 21 23 1 0 -11 6 -26 14 -32 7 -6 17 -39 22 -74 10 -77 11
-83 23 -132 18 -68 23 -123 13 -140 -6 -13 -9 -7 -10 21 -2 46 -10 72 -33 105
-10 14 -21 37 -24 50 -3 14 -24 44 -46 67 -21 23 -39 45 -39 48 0 10 -43 44
-70 55 -14 6 -38 12 -54 13 -26 1 -35 11 -77 81 -26 44 -52 80 -58 79 -27 -2
-31 -5 -31 -18 0 -7 22 -59 49 -115 41 -87 48 -109 44 -145 -6 -49 10 -90 66
-176 40 -61 68 -90 86 -90 7 0 25 -7 41 -14 47 -24 102 -26 127 -6 21 18 22
17 44 -20 24 -39 28 -67 38 -225 3 -49 7 -117 10 -150 3 -33 7 -130 10 -215 2
-85 9 -207 14 -270 6 -63 10 -142 9 -175 -2 -79 7 -105 37 -105 34 0 42 24 39
115 -1 44 -3 80 -4 80 -4 0 -10 49 -14 125 -3 47 -5 85 -6 85 -1 0 -3 61 -5
135 -2 74 -7 164 -10 200 -2 36 -7 103 -10 150 -3 47 -8 114 -12 150 -3 36 -5
70 -3 75 6 21 -1 60 -13 70 -6 6 -13 21 -15 35 -1 16 1 21 6 12 5 -7 24 -15
43 -18 28 -5 41 -1 66 20 27 23 63 81 69 111 1 6 13 39 27 75 35 92 52 152 49
175 -2 11 2 29 7 40 5 11 17 41 27 68 9 26 20 47 25 47 4 0 7 -37 7 -81 0 -58
4 -84 13 -90 11 -7 10 -9 -4 -9 -10 0 -15 -4 -12 -10 3 -5 -1 -20 -10 -34 -18
-28 -22 -178 -6 -234 5 -18 10 -36 11 -40 10 -77 60 -146 106 -144 50 1 108
26 119 50 14 31 26 27 15 -5 -5 -16 -11 -55 -13 -88 -5 -67 -42 -296 -82 -510
-14 -77 -28 -156 -31 -175 -3 -19 -10 -60 -15 -90 -6 -30 -17 -98 -25 -150
-29 -176 -32 -195 -39 -216 -4 -13 0 -28 13 -43 15 -20 22 -22 39 -12 12 6 24
23 27 38 5 26 7 47 21 168 4 28 10 75 15 105 15 89 38 223 43 250 18 94 37
200 41 230 3 19 12 76 20 125 20 117 34 207 52 328 l6 47 25 -24 c14 -14 33
-23 46 -22 41 6 82 19 97 31 8 6 35 23 60 38 25 14 75 55 110 90 84 84 96 98
104 130 3 15 11 27 16 27 5 0 7 6 4 14 -3 7 7 23 22 35 95 75 144 125 144 148
0 49 -24 40 -145 -55 -25 -20 -35 -21 -61 -8 -23 13 -32 13 -60 1 -18 -7 -34
-11 -36 -9 -3 2 -36 -25 -74 -61 -38 -36 -74 -65 -81 -65 -15 0 -76 -62 -115
-116 -17 -24 -33 -43 -35 -41 -4 4 68 370 74 377 2 2 8 -2 12 -9 5 -7 33 -15
66 -18 43 -3 55 -2 50 8 -6 9 -1 10 19 7 14 -3 26 -2 26 2 0 4 26 18 58 31 31
13 68 33 82 46 14 13 30 23 36 23 7 0 14 10 18 23 3 13 17 36 30 52 14 16 35
56 47 89 13 34 34 70 48 81 14 11 56 51 93 88 59 58 67 71 58 87 -6 11 -15 20
-20 20 -6 0 -37 -24 -69 -54 -76 -70 -89 -77 -133 -67 -27 6 -47 3 -84 -12
-27 -12 -51 -25 -52 -29 -4 -9 -85 -48 -99 -48 -10 0 -52 -39 -102 -94 -18
-20 -36 -35 -38 -32 -3 3 0 27 6 53 6 26 13 59 15 73 2 14 9 45 15 70 5 25 12
56 15 70 11 47 36 133 41 138 3 3 5 -1 5 -9 1 -39 67 -79 129 -79 31 0 53 11
113 54 40 30 80 66 88 80 7 14 17 26 22 26 4 0 8 6 8 14 0 8 3 16 8 18 12 5
65 80 86 120 11 21 44 57 75 80 67 50 141 122 141 136 0 5 -6 15 -13 21 -10 8
-30 0 -83 -35 -38 -25 -81 -55 -97 -66 -16 -13 -45 -22 -71 -23 -25 -2 -66
-11 -93 -21 -52 -20 -171 -93 -192 -118 -8 -9 -18 -16 -23 -16 -14 0 -68 -62
-68 -77 0 -7 -4 -13 -10 -13 -12 0 -12 -2 1 40 5 19 12 44 14 55 3 11 8 34 11
50 4 17 11 41 17 55 5 14 11 32 12 40 1 8 10 51 20 95 15 69 19 76 26 53 31
-113 192 -75 309 73 14 17 32 39 40 49 8 10 33 45 55 79 38 57 70 83 185 147
24 13 70 62 70 73 0 20 -34 19 -68 -2 -88 -53 -157 -78 -201 -71 -31 4 -46 -2
-116 -48 -111 -74 -129 -86 -192 -140 -60 -51 -84 -62 -59 -26 9 12 16 35 16
50 0 23 4 28 25 28 23 0 60 28 93 71 18 24 39 115 41 179 1 30 8 87 17 126 13
63 14 76 1 106 -13 31 -13 38 6 74 11 21 23 41 26 44 3 3 20 33 38 67 26 50
30 63 19 72 -7 6 -20 9 -27 5 -12 -5 -60 -70 -109 -149 -8 -13 -28 -27 -44
-32 -63 -18 -129 -161 -141 -305 -5 -46 -7 -87 -7 -93 1 -5 3 -34 6 -63 3 -28
7 -56 10 -61 3 -5 0 -14 -8 -20 -10 -9 -15 -3 -24 27 -6 20 -14 57 -18 82 -4
25 -15 62 -25 82 -11 21 -19 43 -19 51 0 26 -25 67 -42 67 -9 0 -23 9 -31 21
-11 15 -16 17 -20 7 -9 -26 -15 -2 -22 87 -10 141 -18 158 -55 113 -13 -17
-17 -36 -14 -78 3 -57 4 -188 1 -300 -2 -89 4 -169 16 -205 10 -28 45 -82 75
-113 6 -7 12 -17 12 -21 0 -3 14 -15 30 -25 29 -16 33 -16 55 -2 14 9 25 14
25 11 0 -2 -14 -57 -31 -122 -16 -65 -32 -127 -34 -138 -3 -11 -11 -40 -18
-65 l-14 -45 -7 70 c-8 76 -41 182 -68 217 -14 19 -27 23 -75 24 -50 1 -58 3
-60 20 0 10 -8 42 -17 69 -9 28 -16 62 -16 76 0 33 -8 41 -31 29 -16 -9 -18
-21 -15 -83 2 -39 7 -100 11 -135 7 -53 5 -65 -8 -75 -24 -17 -23 -70 2 -167
12 -47 23 -90 24 -96 2 -7 16 -28 32 -47 17 -20 42 -50 56 -67 27 -34 76 -46
112 -28 15 8 17 5 11 -19 -3 -15 -8 -35 -11 -43 -2 -8 -15 -69 -29 -135 -25
-123 -44 -168 -44 -104 0 19 -4 39 -9 45 -5 5 -17 47 -27 94 -14 71 -22 90
-47 113 -30 27 -40 31 -64 28 -7 -1 -14 8 -14 21 -1 13 -4 37 -6 53 -2 17 -4
41 -6 55 -2 28 -36 52 -52 38 -6 -5 -9 -54 -7 -117 2 -81 -1 -121 -14 -157
-22 -65 -23 -111 -3 -219 9 -49 15 -93 13 -96 -2 -4 3 -9 11 -13 8 -3 21 -20
29 -38 31 -70 72 -96 117 -78 16 7 29 16 29 19 0 4 6 16 14 27 13 17 13 13 5
-31 -6 -27 -12 -56 -14 -63 -3 -7 -5 -13 -5 -15 -8 -24 -22 -91 -26 -122 -7
-56 -34 -189 -40 -194 -2 -2 -4 10 -4 27 0 74 -49 235 -80 262 -3 3 -10 18
-15 34 -7 20 -18 30 -35 33 -31 5 -39 19 -41 68 -1 45 -5 88 -17 155 -7 39
-11 45 -32 45 -14 0 -24 -5 -23 -12 2 -7 -3 -10 -11 -7 -9 4 -20 -9 -32 -35
-10 -23 -21 -41 -26 -41 -4 0 -8 -8 -8 -17 -1 -27 -25 -53 -49 -53 -28 0 -37
-9 -105 -109 -53 -79 -105 -198 -107 -244 0 -22 0 -22 -9 -1 -11 27 -36 172
-45 252 -6 62 -6 63 15 52 12 -6 34 -9 49 -5 37 8 121 88 162 155 18 30 36 57
40 60 7 6 17 55 25 125 6 49 15 69 54 130 11 17 30 50 42 75 12 25 25 47 29
50 11 9 19 45 11 55 -19 27 -40 9 -101 -85 -59 -92 -81 -116 -81 -90 0 19 -47
10 -68 -12 -12 -13 -38 -41 -59 -63 -41 -42 -53 -60 -78 -114 -18 -36 -66
-101 -76 -101 -6 0 -14 59 -26 183 l-6 68 29 0 c73 0 96 6 119 35 13 16 29 36
37 44 19 23 48 106 63 182 8 37 18 75 23 85 5 10 6 27 1 38 -16 40 -9 77 26
131 19 30 35 57 35 61 0 3 7 14 16 24 10 11 13 25 9 39 -10 31 -46 22 -65 -15
-8 -17 -26 -45 -39 -63 -20 -26 -30 -31 -56 -29 -23 3 -37 -2 -49 -17 -62 -79
-95 -128 -117 -176 -48 -103 -53 -115 -60 -135 -6 -16 -7 -15 -9 10 -1 17 -3
35 -4 40 -1 6 -5 37 -10 70 -4 33 -11 69 -16 80 -5 11 -10 32 -13 48 -4 25 -2
27 30 27 30 0 43 9 87 55 30 32 56 72 64 97 7 23 22 53 32 68 10 14 22 39 26
56 4 16 18 53 31 83 22 46 24 62 17 110 -4 31 -8 59 -8 63 -1 3 -4 10 -8 14
-14 13 -8 53 15 101 12 27 25 50 30 51 4 2 5 7 2 11 -2 5 9 33 24 63 21 39 26
59 19 71 -17 31 -36 18 -67 -45 -62 -124 -94 -175 -120 -186 -15 -6 -43 -38
-64 -69 -20 -32 -40 -63 -44 -68 -5 -6 -9 -17 -11 -25 -1 -8 -9 -30 -18 -47
-37 -81 -45 -102 -60 -157 l-16 -60 -19 39 c-10 20 -17 40 -15 44 2 3 -4 51
-14 106 -12 69 -15 106 -8 119 14 25 3 188 -16 255 -20 70 -36 92 -98 142 -38
30 -57 39 -74 35 -27 -7 -51 21 -60 71 -3 18 -10 33 -14 33 -5 0 -22 25 -39
55 -33 58 -37 61 -61 45z m234 -320 c49 -46 51 -51 65 -175 7 -60 7 -92 0
-101 -14 -17 -56 -10 -79 12 -60 58 -69 68 -64 75 2 4 0 10 -6 14 -5 3 -10 16
-10 28 0 12 -7 31 -15 41 -21 28 -19 73 4 85 10 6 22 22 25 36 9 35 30 31 80
-15z m1572 -49 c-4 -25 -9 -80 -12 -121 -5 -85 -31 -167 -55 -181 -14 -7 -17
1 -23 57 -4 36 -5 68 -2 72 3 4 7 38 10 74 6 69 18 103 50 151 17 25 20 27 29
12 5 -10 6 -38 3 -64z m-297 -191 c55 -169 69 -271 44 -298 -13 -13 -33 -8
-33 8 0 5 -13 23 -30 41 -19 21 -32 49 -38 83 -11 62 -7 155 8 170 5 5 10 21
10 34 0 40 21 20 39 -38z m-844 -79 c-3 -11 -1 -22 5 -26 16 -10 12 -64 -9
-104 -18 -34 -35 -71 -79 -171 -28 -63 -73 -113 -95 -104 -14 5 -16 14 -11 53
3 25 10 51 14 56 4 6 13 35 20 65 12 53 67 171 82 178 5 2 8 9 8 16 0 22 31
56 51 56 16 0 19 -5 14 -19z m1349 -80 c7 -10 -27 -78 -51 -101 -10 -10 -33
-34 -51 -54 -38 -40 -92 -81 -92 -69 0 4 -4 3 -8 -4 -8 -12 -24 -16 -58 -14
-16 1 -21 8 -22 30 0 23 9 37 40 62 37 31 63 48 96 65 8 4 25 18 38 30 12 13
29 24 37 24 8 0 22 9 32 20 20 22 31 25 39 11z m-1836 -236 c74 -76 92 -100
92 -124 0 -36 -6 -40 -45 -30 -57 16 -133 112 -169 212 -7 22 0 37 18 37 7 0
54 -43 104 -95z m1184 -122 c32 -37 50 -87 54 -156 2 -40 7 -89 10 -110 5 -31
2 -42 -15 -58 -11 -10 -24 -19 -28 -19 -12 1 -72 86 -89 125 -23 55 -29 133
-11 153 8 9 22 32 31 50 19 37 27 39 48 15z m-624 -143 c12 -26 11 -37 -8 -92
-12 -35 -23 -74 -25 -88 -6 -40 -21 -73 -49 -103 -20 -22 -34 -28 -59 -25 -27
3 -32 7 -31 28 4 68 12 96 46 165 54 107 81 145 102 145 6 0 17 -13 24 -30z
m1182 -6 c0 -17 -18 -45 -55 -83 -30 -32 -55 -61 -55 -65 0 -8 -48 -51 -89
-79 -19 -13 -37 -16 -65 -12 -22 3 -43 8 -47 11 -9 5 7 65 19 73 5 3 12 15 16
26 11 32 167 136 221 147 48 9 55 7 55 -18z m-1693 -132 c16 -16 36 -31 45
-35 22 -8 69 -103 61 -123 -3 -8 -1 -14 5 -14 15 0 23 -43 9 -52 -41 -26 -119
21 -180 110 -25 35 -27 43 -18 82 9 39 24 59 43 60 4 0 20 -13 35 -28z m1023
-285 c0 -12 9 -55 20 -95 21 -77 27 -198 9 -204 -5 -2 -11 -10 -12 -18 -5 -34
-25 -19 -53 40 -4 8 -11 17 -15 20 -10 7 -18 53 -23 142 -3 49 0 70 10 79 8 6
12 15 9 19 -3 5 -1 20 5 35 8 22 13 24 30 15 11 -6 20 -21 20 -33z m-430 -88
c0 -44 -26 -100 -64 -141 -14 -15 -26 -31 -26 -35 0 -4 -15 -18 -33 -31 -30
-21 -33 -21 -44 -5 -7 9 -13 24 -13 32 0 22 37 80 55 87 8 4 12 10 10 15 -15
24 75 132 102 122 8 -3 13 -21 13 -44z m962 -1 c4 -24 -49 -138 -64 -138 -4 0
-8 -9 -8 -19 0 -37 -161 -119 -230 -116 -8 0 -16 7 -18 16 -4 21 49 109 66
109 7 0 17 11 21 24 13 33 74 81 124 96 23 8 53 22 67 32 33 23 38 22 42 -4z
m-1444 -96 c31 -23 82 -109 82 -137 0 -7 7 -26 15 -41 19 -37 19 -54 -1 -54
-58 0 -174 137 -190 223 -9 52 32 56 94 9z m502 -350 c-37 -141 -81 -239 -100
-227 -5 3 -8 29 -6 58 2 61 59 187 84 187 8 0 12 3 9 6 -3 4 -1 16 5 28 18 33
22 2 8 -52z m265 -39 c11 -25 28 -56 38 -69 33 -43 27 -251 -6 -218 -4 4 -14
1 -23 -7 -14 -11 -19 -10 -35 11 -10 14 -19 34 -20 45 -3 30 -5 37 -17 68 -24
58 -10 186 23 209 17 12 19 10 40 -39z m569 -20 c0 -16 -2 -35 -2 -45 -3 -31
-133 -148 -210 -189 -86 -46 -110 -41 -68 14 14 18 26 39 26 45 0 13 121 122
137 122 6 0 13 4 15 9 4 13 80 69 93 70 6 1 10 -11 9 -26z m-1281 -16 c9 -8
17 -19 17 -25 0 -5 7 -12 15 -16 8 -3 15 -9 15 -14 0 -5 16 -36 35 -68 36 -60
44 -94 23 -94 -7 0 -31 6 -53 14 -30 10 -49 27 -76 67 -51 78 -63 116 -44 146
16 24 25 23 68 -10z"/>
<path d="M1087 3697 c-9 -29 -19 -64 -23 -79 -3 -15 -21 -39 -40 -53 -45 -35
-66 -78 -99 -210 -25 -100 -27 -116 -17 -174 6 -35 14 -67 19 -70 4 -3 14 -18
22 -33 22 -43 85 -51 125 -15 26 23 76 136 76 172 0 12 3 25 7 29 9 9 12 35
17 154 4 99 4 103 -21 128 -24 24 -25 29 -19 104 6 71 5 80 -12 89 -17 9 -21
5 -35 -42z m19 -309 c-10 -137 -49 -258 -85 -258 -30 0 -65 103 -51 148 4 15
16 61 25 102 10 41 22 81 27 88 6 6 28 12 50 12 l40 0 -6 -92z"/>
<path d="M388 3702 c-19 -4 -43 -56 -33 -71 3 -6 12 -11 18 -11 19 0 83 -81
91 -115 5 -16 10 -47 13 -68 5 -48 20 -87 32 -87 5 0 14 -14 22 -31 7 -18 37
-55 66 -85 41 -40 67 -57 109 -69 30 -9 59 -13 64 -10 6 3 10 -2 10 -11 0 -10
12 -31 27 -46 30 -32 11 -41 -23 -10 -48 44 -250 69 -333 40 -20 -7 -41 -11
-48 -10 -6 1 -18 -7 -26 -18 -14 -20 -14 -20 -73 6 -124 55 -144 60 -144 35 0
-24 10 -34 80 -78 36 -23 70 -46 75 -51 6 -5 15 -7 21 -5 6 2 40 -28 77 -67
74 -78 118 -97 219 -94 150 5 215 38 234 119 l10 40 34 -50 c19 -27 48 -65 66
-85 47 -52 119 -173 94 -158 -11 7 -23 21 -26 30 -3 10 -12 18 -20 18 -8 0
-14 4 -14 10 0 5 -12 13 -27 16 -16 4 -32 9 -38 13 -22 13 -147 17 -166 5 -9
-5 -41 -14 -69 -18 -20 -3 -80 -57 -80 -73 0 -14 -90 9 -127 33 -28 17 -73 18
-73 2 1 -15 30 -56 30 -42 0 5 4 5 8 -1 28 -39 121 -85 172 -85 22 0 30 -7 43
-40 11 -29 22 -41 44 -45 15 -3 42 -13 60 -22 76 -37 263 37 311 123 7 13 12
11 27 -12 10 -16 37 -49 61 -74 30 -33 47 -63 62 -112 19 -64 18 -80 -3 -59
-6 5 -33 11 -62 14 -29 3 -56 7 -60 10 -16 10 -233 -50 -233 -65 0 -4 -17 -4
-37 -1 -39 5 -243 99 -254 116 -10 14 -39 1 -39 -18 0 -8 19 -27 42 -41 24
-15 45 -31 46 -35 2 -5 8 -9 14 -9 5 0 28 -13 51 -29 23 -15 59 -34 80 -40 20
-7 42 -21 47 -31 5 -10 32 -36 60 -58 40 -32 61 -41 107 -47 32 -4 74 -10 93
-13 97 -15 154 11 190 86 l25 53 20 -23 c34 -40 51 -71 74 -137 12 -35 29 -77
37 -93 19 -37 16 -41 -21 -22 -33 17 -60 19 -177 16 -70 -2 -80 -5 -110 -32
-30 -28 -42 -34 -60 -31 -4 0 -12 -9 -19 -20 -9 -17 -17 -20 -41 -15 -29 6
-47 13 -164 68 -71 32 -94 35 -94 11 1 -20 47 -51 170 -113 47 -24 92 -47 100
-52 49 -28 75 -45 89 -58 16 -15 124 -44 215 -58 43 -6 57 -3 103 20 57 28 83
50 83 68 0 8 6 8 20 0 11 -6 20 -16 20 -23 0 -7 17 -48 39 -92 71 -148 111
-241 111 -259 0 -9 5 -14 10 -11 5 3 10 -3 10 -14 0 -12 5 -21 10 -21 6 0 10
-7 10 -15 0 -8 4 -15 9 -15 5 0 11 -8 14 -17 14 -46 67 -184 89 -233 14 -30
40 -95 58 -145 18 -49 41 -109 51 -132 11 -24 19 -49 19 -58 0 -8 6 -29 14
-47 19 -43 46 -136 46 -156 0 -8 6 -23 13 -31 12 -15 42 -122 50 -181 2 -14 7
-32 10 -40 3 -8 7 -24 9 -35 2 -13 12 -21 31 -23 21 -3 29 2 37 23 6 15 7 31
4 36 -3 6 -8 25 -11 42 -5 37 -71 237 -83 252 -4 6 -8 23 -8 39 0 15 -4 31 -9
35 -6 3 -15 26 -21 51 -6 25 -24 79 -42 120 -17 41 -47 116 -65 165 -18 50
-49 128 -68 175 -43 106 -49 122 -52 135 -6 26 -48 105 -56 105 -5 0 -9 8 -9
18 0 9 -7 26 -15 36 -22 29 -19 33 20 33 25 0 41 7 58 26 12 15 28 27 35 27 7
0 18 12 24 27 7 16 23 42 35 59 13 17 27 55 33 84 6 29 15 59 20 65 6 7 10 17
8 21 -1 5 3 19 10 31 19 35 -5 103 -36 103 -10 0 -7 122 3 171 7 30 -17 61
-39 53 -7 -3 -19 -37 -26 -77 -11 -57 -23 -86 -59 -137 -24 -36 -50 -70 -57
-77 -18 -19 -104 -202 -104 -225 -1 -11 -119 218 -120 232 0 3 19 5 43 5 23
-1 54 4 69 12 30 15 78 59 78 72 0 5 16 37 34 70 19 34 33 61 31 61 -2 0 3 16
11 36 22 53 30 195 13 247 -7 23 -17 45 -22 48 -5 4 -6 12 -2 19 4 7 9 45 12
85 4 67 2 75 -17 85 -23 12 -21 16 -45 -80 -21 -82 -37 -112 -69 -130 -14 -7
-26 -19 -26 -25 0 -11 -58 -105 -71 -115 -4 -3 -10 -21 -14 -40 -4 -19 -13
-42 -19 -50 -16 -19 -56 -131 -56 -156 0 -36 -26 8 -59 101 -18 50 -39 100
-47 112 -14 22 -13 22 16 17 19 -4 38 -1 53 9 27 18 109 177 131 257 17 59 28
169 18 184 -5 8 -6 167 -1 192 4 21 -2 34 -15 34 -22 0 -37 -26 -55 -96 -14
-59 -19 -68 -41 -71 -25 -3 -88 -66 -112 -113 -7 -14 -16 -27 -19 -30 -15 -12
-59 -169 -59 -210 -1 -58 -15 -35 -25 39 -5 37 -15 63 -32 80 -63 68 -141 186
-98 151 17 -14 95 -22 95 -9 0 4 8 10 18 14 15 5 72 83 72 99 0 3 9 25 19 49
11 23 22 53 24 67 3 14 10 43 16 65 13 49 14 132 2 139 -7 5 3 98 27 245 8 48
7 56 -11 74 -11 11 -22 17 -23 11 -1 -5 -8 -36 -15 -69 -7 -33 -16 -65 -21
-71 -4 -6 -13 -45 -20 -87 -8 -57 -14 -73 -22 -63 -24 29 -43 24 -84 -17 -41
-42 -92 -131 -92 -160 0 -9 -4 -18 -9 -21 -11 -7 -38 -103 -40 -145 -1 -13
-61 61 -61 76 -1 5 -21 28 -46 53 -25 25 -59 70 -75 100 -16 30 -43 73 -59 95
-31 42 -38 71 -19 77 9 3 9 10 -1 27 -6 13 -10 35 -7 49 3 15 -4 41 -19 67
-13 23 -21 44 -19 47 3 2 -14 24 -36 49 -22 24 -48 57 -57 72 -23 38 -120 88
-158 81 -16 -3 -37 -12 -47 -21 -16 -15 -19 -13 -44 45 -27 59 -41 72 -75 64z
m213 -176 c19 -8 47 -29 62 -48 66 -79 76 -93 82 -117 3 -13 13 -30 21 -35 11
-9 13 -20 6 -51 -7 -37 -10 -40 -37 -37 -15 2 -45 15 -66 29 -42 28 -109 122
-109 154 0 12 -5 39 -12 61 -10 33 -9 41 3 49 17 11 11 11 50 -5z m738 -452
c19 -14 22 -22 16 -48 -4 -17 -8 -40 -9 -51 -1 -11 -5 -26 -9 -33 -5 -7 -11
-25 -13 -40 -7 -39 -65 -132 -83 -132 -20 0 -61 40 -61 60 0 33 41 145 59 160
10 9 17 24 15 33 -2 17 38 67 54 67 4 0 18 -7 31 -16z m-654 -29 c11 -4 41
-16 66 -27 92 -40 39 -86 -108 -92 -48 -3 -80 1 -97 10 -14 8 -36 20 -49 27
-27 15 -67 54 -67 66 0 33 181 44 255 16z m463 -310 c-3 -3 -9 2 -12 12 -6 14
-5 15 5 6 7 -7 10 -15 7 -18z m-211 -16 c15 -5 40 -22 55 -36 27 -26 27 -27
10 -44 -27 -24 -156 -63 -186 -55 -15 3 -26 12 -26 19 0 6 -19 29 -42 49 -33
28 -40 39 -31 48 26 27 167 39 220 19z m623 -69 c0 -53 -19 -140 -31 -140 -6
0 -8 -4 -5 -8 6 -11 -48 -125 -67 -140 -40 -34 -75 80 -42 138 8 14 14 35 15
48 0 12 5 22 11 22 6 0 9 6 6 13 -2 6 6 30 18 52 21 37 36 46 88 54 4 0 7 -17
7 -39z m224 -328 c-3 -20 -7 -60 -9 -89 -2 -29 -10 -65 -18 -80 -8 -15 -26
-53 -40 -84 -28 -60 -40 -73 -75 -82 -36 -9 -55 18 -47 67 4 22 13 51 21 63 8
12 14 31 14 43 0 11 4 20 9 20 5 0 11 8 15 18 16 46 86 157 103 163 27 10 33
2 27 -39z m-602 -6 c15 -1 32 -6 38 -12 13 -13 2 -75 -14 -78 -6 -2 -27 -8
-46 -14 -46 -14 -172 1 -205 25 -13 10 -24 20 -24 23 0 15 56 43 92 46 22 2
46 9 51 15 7 6 25 7 46 3 19 -4 47 -8 62 -8z m226 -391 c43 -20 57 -44 50 -82
-3 -19 -64 -54 -95 -54 -37 -1 -123 18 -137 31 -9 7 -23 10 -32 6 -18 -7 -74
19 -74 35 0 11 25 39 35 39 3 0 15 8 26 19 14 13 32 18 61 16 23 -2 50 0 62 4
30 12 56 8 104 -14z m528 -36 c3 -6 1 -16 -5 -22 -6 -6 -11 -20 -11 -32 0 -12
-4 -25 -8 -30 -5 -6 -14 -35 -21 -65 -9 -41 -22 -66 -52 -97 -59 -63 -85 -58
-79 17 2 28 54 136 78 163 8 9 12 17 8 17 -3 0 6 14 21 30 27 31 56 39 69 19z"/>
<path d="M840 1660 c-13 -8 -12 -11 5 -24 11 -9 35 -22 53 -31 17 -9 32 -19
32 -24 0 -14 184 -116 203 -113 4 1 7 -7 7 -17 0 -11 9 -23 20 -26 11 -4 18
-11 15 -16 -4 -5 1 -9 9 -9 8 0 31 -11 51 -24 20 -14 42 -23 49 -20 6 2 29 -2
49 -11 84 -35 244 -6 302 55 27 28 32 57 22 119 -4 29 -70 89 -107 98 -14 3
-30 10 -36 14 -6 5 -29 15 -52 23 -37 13 -47 13 -83 1 -23 -8 -54 -15 -70 -15
-15 0 -30 -4 -34 -9 -3 -5 -29 -21 -58 -34 -29 -13 -60 -31 -69 -40 -21 -21
-53 -11 -192 62 -54 28 -98 51 -99 51 -1 0 -9 -5 -17 -10z m638 -95 c26 -14
54 -25 62 -25 8 0 23 -12 33 -26 43 -59 -27 -108 -152 -107 -31 1 -69 8 -85
16 -16 9 -33 14 -38 11 -5 -3 -16 0 -25 7 -8 7 -25 18 -36 24 -34 16 -31 39 5
56 18 9 47 23 63 32 25 13 81 30 118 36 4 0 29 -10 55 -24z"/>
</g>
</svg>
