<?xml version="1.0" standalone="no"?>
<!DOCTYPE svg PUBLIC "-//W3C//DTD SVG 20010904//EN"
 "http://www.w3.org/TR/2001/REC-SVG-20010904/DTD/svg10.dtd">
<svg version="1.0" xmlns="http://www.w3.org/2000/svg"
 width="306.000000pt" height="275.000000pt" viewBox="0 0 306.000000 275.000000"
 preserveAspectRatio="xMidYMid meet">
<metadata>
Created by potrace 1.16, written by Peter Selinger 2001-2019
</metadata>
<g transform="translate(0.000000,275.000000) scale(0.100000,-0.100000)"
fill="#000000" stroke="none">
<path d="M1271 2734 c-104 -17 -265 -71 -362 -119 -372 -188 -637 -533 -726
-945 -26 -120 -26 -429 0 -550 55 -255 177 -485 358 -674 108 -114 229 -201
374 -271 218 -105 329 -130 585 -130 202 0 284 12 435 64 348 121 646 396 791
730 l33 75 17 -39 c62 -151 72 -167 101 -163 21 2 29 9 31 28 3 27 -98 272
-122 296 -25 24 -67 15 -196 -44 -119 -55 -125 -59 -125 -87 0 -43 34 -43 129
0 43 20 81 33 84 30 11 -10 -99 -214 -159 -296 -245 -333 -612 -520 -1019
-520 -200 0 -383 42 -552 127 -344 172 -575 461 -675 844 -34 130 -43 372 -19
514 69 406 314 743 673 929 182 94 362 137 573 137 254 0 475 -66 690 -205
241 -156 434 -414 515 -687 l29 -98 38 0 c21 0 38 5 38 11 0 28 -34 137 -70
225 -176 431 -569 745 -1022 819 -115 18 -333 18 -447 -1z"/>
</g>
</svg>
