<?xml version="1.0" standalone="no"?>
<!DOCTYPE svg PUBLIC "-//W3C//DTD SVG 20010904//EN"
 "http://www.w3.org/TR/2001/REC-SVG-20010904/DTD/svg10.dtd">
<svg version="1.0" xmlns="http://www.w3.org/2000/svg"
 width="268.000000pt" height="214.000000pt" viewBox="0 0 268.000000 214.000000"
 preserveAspectRatio="xMidYMid meet">
<metadata>
Created by potrace 1.16, written by Peter Selinger 2001-2019
</metadata>
<g transform="translate(0.000000,214.000000) scale(0.100000,-0.100000)"
fill="#000000" stroke="none">
<path d="M1393 1831 c-279 -110 -518 -321 -688 -604 -81 -137 -168 -344 -190
-454 -7 -37 -5 -36 -95 -23 -35 5 -66 8 -68 6 -3 -4 155 -461 168 -485 5 -10
51 51 154 205 l146 219 -37 7 c-21 3 -55 9 -75 13 -23 3 -38 12 -38 20 0 25
61 189 106 285 129 273 348 505 590 624 38 18 93 41 122 50 28 10 52 20 52 24
0 3 -10 36 -22 74 -15 46 -27 68 -37 68 -9 -1 -48 -13 -88 -29z"/>
<path d="M2266 1714 c-263 -72 -519 -255 -699 -499 -91 -124 -206 -361 -231
-477 -7 -31 -21 -33 -111 -18 -27 4 -52 6 -54 5 -4 -5 160 -477 169 -488 6 -7
300 413 300 428 0 1 -32 6 -70 10 -39 4 -73 11 -76 16 -8 13 22 99 72 208 152
326 430 573 743 660 41 11 76 23 79 25 4 4 -27 157 -31 155 -1 0 -42 -11 -91
-25z"/>
</g>
</svg>
