<?xml version="1.0" standalone="no"?>
<!DOCTYPE svg PUBLIC "-//W3C//DTD SVG 20010904//EN"
 "http://www.w3.org/TR/2001/REC-SVG-20010904/DTD/svg10.dtd">
<svg version="1.0" xmlns="http://www.w3.org/2000/svg"
 width="143.000000pt" height="131.000000pt" viewBox="0 0 143.000000 131.000000"
 preserveAspectRatio="xMidYMid meet">
<metadata>
Created by potrace 1.16, written by Peter Selinger 2001-2019
</metadata>
<g transform="translate(0.000000,131.000000) scale(0.100000,-0.100000)"
fill="#000000" stroke="none">
<path d="M666 1262 c-9 -18 -12 -32 -6 -32 6 0 10 -41 10 -110 0 -67 4 -110
10 -110 6 0 10 43 10 109 0 73 4 111 11 113 8 3 7 12 -3 33 l-16 29 -16 -32z"/>
<path d="M31 1206 c7 -14 19 -24 28 -24 9 1 99 -54 201 -120 102 -67 187 -117
189 -111 1 5 1 11 0 12 -133 83 -369 245 -369 255 0 7 -13 12 -30 12 -28 0
-29 -2 -19 -24z"/>
<path d="M1320 1160 c-14 -4 -24 -12 -23 -17 1 -6 -67 -71 -152 -143 -85 -73
-152 -136 -149 -141 6 -10 8 -8 193 150 68 58 127 105 132 104 10 -3 32 34 27
46 -2 4 -14 4 -28 1z"/>
<path d="M627 976 c-66 -18 -98 -43 -126 -99 -13 -26 -22 -49 -20 -51 2 -2 30
-6 61 -8 55 -4 57 -4 69 24 24 59 124 79 173 33 18 -17 26 -34 26 -59 0 -30
-8 -42 -66 -93 -74 -65 -92 -93 -101 -158 l-6 -45 62 0 61 0 0 31 c0 26 14 47
78 113 85 89 99 121 82 186 -6 21 -19 49 -30 63 -46 59 -172 89 -263 63z"/>
<path d="M275 412 c-88 -71 -165 -127 -171 -125 -8 3 -34 -36 -34 -51 0 -1 13
-1 30 2 16 2 30 10 30 18 0 7 72 70 160 139 143 113 177 145 153 145 -5 0 -80
-58 -168 -128z"/>
<path d="M930 532 c0 -5 81 -61 180 -123 99 -63 180 -119 180 -125 0 -7 14
-14 30 -16 18 -3 30 0 30 6 -1 18 -24 43 -40 43 -9 0 -92 48 -185 107 -181
116 -195 124 -195 108z"/>
<path d="M640 420 l0 -60 60 0 60 0 0 60 0 60 -60 0 -60 0 0 -60z"/>
<path d="M670 200 c0 -72 -4 -120 -10 -120 -6 0 -5 -10 2 -25 6 -14 14 -25 18
-25 4 0 12 11 18 25 7 15 8 25 2 25 -6 0 -10 48 -10 120 0 73 -4 120 -10 120
-6 0 -10 -47 -10 -120z"/>
</g>
</svg>
