<?xml version="1.0" standalone="no"?>
<!DOCTYPE svg PUBLIC "-//W3C//DTD SVG 20010904//EN"
 "http://www.w3.org/TR/2001/REC-SVG-20010904/DTD/svg10.dtd">
<svg version="1.0" xmlns="http://www.w3.org/2000/svg"
 width="479.000000pt" height="489.000000pt" viewBox="0 0 479.000000 489.000000"
 preserveAspectRatio="xMidYMid meet">
<metadata>
Created by potrace 1.16, written by Peter Selinger 2001-2019
</metadata>
<g transform="translate(0.000000,489.000000) scale(0.100000,-0.100000)"
fill="#000000" stroke="none">
<path d="M2410 4725 c-63 -7 -127 -17 -142 -23 -16 -7 -53 -14 -83 -17 -30 -2
-68 -7 -83 -11 -76 -17 -323 -170 -409 -253 -63 -61 -171 -187 -219 -256 -23
-34 -68 -127 -79 -165 -4 -14 -13 -35 -21 -47 -7 -11 -15 -33 -18 -48 -3 -15
-9 -32 -14 -38 -5 -7 -12 -31 -16 -55 -6 -40 -22 -69 -79 -148 -88 -119 -133
-168 -168 -179 -10 -4 -19 -10 -19 -16 0 -5 -17 -20 -39 -33 -38 -24 -156
-137 -216 -206 -16 -19 -39 -61 -49 -92 -11 -32 -22 -58 -26 -58 -4 0 -12 -21
-18 -47 -6 -27 -15 -66 -21 -88 -15 -55 -5 -327 14 -385 8 -25 15 -54 15 -65
4 -124 2 -157 -19 -225 -25 -84 -66 -173 -87 -191 -8 -6 -14 -17 -14 -24 0 -7
-7 -15 -15 -19 -8 -3 -29 -28 -46 -56 -17 -27 -38 -56 -48 -63 -9 -6 -25 -30
-34 -52 -10 -22 -47 -71 -83 -109 -35 -38 -64 -77 -64 -86 0 -9 -10 -46 -21
-81 -12 -35 -23 -71 -24 -79 -1 -8 -8 -28 -15 -45 -6 -16 -23 -72 -36 -123
-13 -52 -26 -98 -30 -103 -3 -5 -10 -35 -14 -67 -5 -31 -11 -68 -14 -81 -14
-65 -20 -149 -19 -272 1 -109 6 -147 23 -198 12 -35 19 -70 16 -77 -3 -8 -1
-14 4 -14 6 0 22 -25 36 -55 14 -30 32 -59 40 -66 8 -6 14 -18 14 -25 0 -8 3
-14 8 -14 4 0 18 -18 32 -40 13 -22 29 -40 35 -40 7 0 18 -11 25 -25 7 -14 17
-25 20 -25 7 0 53 -35 104 -77 11 -9 63 -37 115 -63 110 -55 140 -60 371 -60
184 -1 290 7 360 28 30 8 62 16 70 17 19 3 148 46 220 75 135 53 227 69 444
79 15 0 58 6 95 12 96 15 318 20 371 7 74 -17 99 -18 237 -6 114 9 140 9 190
-5 32 -9 108 -21 169 -27 102 -9 149 -16 259 -37 22 -4 63 -6 90 -5 28 0 86
-8 130 -20 152 -39 364 -25 465 31 30 17 61 31 68 31 38 0 327 273 327 309 0
3 8 22 17 41 36 77 65 333 48 419 -6 25 -11 56 -13 68 -2 12 -6 26 -10 29 -4
4 -7 15 -7 25 0 10 -7 25 -16 33 -8 9 -13 20 -10 25 3 5 -1 44 -9 87 -35 192
-39 275 -22 411 9 70 24 148 33 173 9 25 20 70 24 100 5 30 12 66 15 80 4 14
6 41 6 60 0 19 4 53 10 75 6 22 13 69 14 105 2 36 4 85 6 110 4 62 -23 133
-96 259 -14 24 -86 110 -112 134 -13 11 -23 24 -23 29 0 10 -5 16 -50 68 -16
19 -30 39 -30 45 0 6 -8 18 -17 26 -22 20 -53 59 -96 121 -161 233 -171 252
-180 327 -3 29 -10 58 -16 65 -5 6 -11 29 -14 51 -3 22 -15 69 -26 105 -12 36
-21 79 -21 97 0 17 -5 44 -11 60 -6 15 -12 53 -14 83 -10 148 -33 287 -53 327
-12 23 -22 50 -22 59 0 9 -9 26 -20 38 -10 11 -37 44 -59 73 -23 29 -67 70
-99 91 -31 22 -79 60 -106 86 -54 50 -141 96 -196 103 -19 3 -64 13 -99 24
-35 10 -76 19 -93 19 -16 0 -48 9 -70 20 -50 24 -192 49 -268 48 -30 -1 -98 1
-150 5 -54 3 -145 0 -210 -8z m28 -207 c16 -16 167 -26 212 -13 8 2 43 -1 77
-9 34 -7 67 -10 72 -7 25 16 253 -20 351 -55 117 -41 250 -141 305 -228 16
-26 33 -46 37 -46 4 0 8 -9 8 -19 0 -11 10 -31 23 -45 12 -13 30 -46 40 -73
10 -26 25 -60 33 -75 8 -14 17 -48 20 -75 4 -26 11 -54 17 -60 5 -7 6 -13 2
-13 -4 0 -2 -7 5 -15 7 -8 10 -15 6 -15 -3 0 1 -16 9 -36 17 -42 22 -63 35
-160 5 -38 14 -83 21 -100 16 -40 17 -40 30 -119 6 -38 17 -78 24 -90 6 -11
18 -40 26 -65 16 -54 47 -110 61 -110 5 0 7 -3 5 -7 -2 -5 3 -20 12 -35 9 -14
31 -52 49 -83 19 -32 53 -78 77 -104 67 -72 191 -257 241 -361 51 -104 51
-100 41 -325 -3 -71 -13 -156 -22 -188 -8 -32 -15 -74 -15 -93 0 -19 -4 -43
-9 -52 -16 -31 -23 -105 -32 -377 -3 -91 26 -265 44 -265 6 0 8 -3 5 -6 -4 -3
5 -37 18 -76 45 -133 56 -194 50 -266 -16 -162 -45 -264 -94 -330 -14 -18 -50
-49 -81 -69 -31 -20 -65 -44 -76 -53 -36 -29 -99 -45 -215 -54 -75 -6 -176
-28 -208 -45 -17 -9 -22 -9 -22 1 0 10 -2 10 -9 0 -8 -13 -21 -13 -204 4 -27
2 -53 7 -59 10 -5 3 -33 8 -61 10 -133 10 -256 24 -292 35 -38 10 -95 20 -195
34 -25 3 -61 9 -80 12 -19 4 -42 8 -50 9 -8 1 -44 9 -80 18 -42 11 -99 16
-160 15 -172 -3 -224 -3 -345 -1 -66 2 -131 0 -145 -3 -65 -16 -135 -16 -154
-2 -17 12 -27 12 -70 1 -28 -8 -61 -14 -73 -14 -29 0 -220 -63 -272 -90 -22
-11 -51 -20 -63 -20 -13 0 -90 -14 -173 -31 -123 -25 -164 -30 -226 -25 -173
14 -344 81 -423 167 -47 51 -64 81 -91 159 -1 3 -4 12 -7 20 -50 135 -62 237
-46 400 10 107 33 216 59 289 11 31 25 70 31 86 6 17 14 35 18 40 4 6 20 41
35 80 16 38 41 87 57 109 15 21 28 43 28 47 0 12 98 150 120 169 9 8 45 49 79
90 34 41 72 87 84 101 37 43 67 88 67 99 0 5 4 10 8 10 9 0 16 12 54 95 19 42
23 69 25 170 2 66 -2 134 -8 150 -36 105 -57 391 -30 418 6 6 11 21 11 32 0
25 105 172 159 223 49 46 100 85 136 102 49 25 146 131 178 195 16 33 40 78
52 100 13 22 35 76 50 120 42 128 88 225 151 320 22 33 46 73 54 89 16 31 196
216 246 252 16 12 40 25 54 29 14 4 34 13 45 20 36 22 231 75 311 84 5 0 15
-4 22 -11z m-579 -141 c-2 -1 -13 -9 -24 -17 -19 -14 -19 -14 -6 3 7 9 18 17
24 17 6 0 8 -1 6 -3z m-408 -624 c-12 -20 -14 -14 -5 12 4 9 9 14 11 11 3 -2
0 -13 -6 -23z m-581 -1544 c-7 -11 -14 -18 -17 -15 -3 3 0 12 7 21 18 21 23
19 10 -6z"/>
<path d="M2478 4313 c-16 -2 -28 -9 -28 -14 0 -6 -4 -8 -8 -5 -14 9 -90 -18
-116 -42 -14 -12 -26 -31 -26 -42 0 -24 4 -24 38 -6 48 26 116 54 161 67 43
13 43 13 71 -21 28 -35 34 -36 135 -47 47 -4 65 -11 85 -32 30 -31 89 -55 105
-41 14 11 107 5 134 -9 27 -15 47 -14 65 5 25 24 19 34 -18 34 -19 0 -36 5
-38 11 -2 6 -43 11 -97 13 -87 3 -96 5 -115 28 -27 32 -48 40 -120 43 -45 3
-64 8 -75 23 -31 39 -70 48 -153 35z"/>
<path d="M1780 3932 c-54 -14 -66 -21 -68 -40 -5 -32 19 -37 80 -17 75 25 83
29 86 54 4 26 -8 26 -98 3z"/>
<path d="M2420 3939 c-25 -5 -54 -14 -65 -18 -11 -5 -36 -14 -55 -21 -19 -7
-48 -18 -65 -25 -16 -7 -41 -16 -55 -20 -60 -18 -105 -54 -180 -141 -36 -42
-100 -137 -100 -149 0 -6 -7 -23 -15 -39 -8 -16 -18 -52 -21 -80 -3 -28 -10
-76 -15 -106 -5 -30 -8 -87 -7 -126 1 -58 4 -73 20 -83 10 -6 23 -9 28 -6 6 4
10 -3 10 -14 0 -21 49 -86 58 -76 3 3 14 -3 24 -12 14 -12 38 -17 96 -17 87 0
119 13 169 67 38 42 50 84 58 197 7 104 27 176 57 202 60 52 168 73 254 49 50
-13 147 -101 143 -128 -2 -10 3 -29 11 -43 15 -27 19 -196 7 -260 -19 -99 -33
-139 -63 -189 -19 -31 -34 -59 -34 -63 0 -3 -21 -37 -46 -75 -63 -95 -71 -106
-136 -187 -32 -39 -58 -77 -58 -83 0 -7 -4 -13 -10 -13 -5 0 -10 -5 -10 -10 0
-6 -11 -29 -26 -51 -43 -68 -60 -103 -68 -134 -4 -16 -24 -64 -43 -105 -39
-81 -50 -116 -59 -170 -3 -19 -9 -60 -14 -90 -11 -75 1 -135 36 -171 33 -34
47 -36 95 -10 24 13 40 16 51 10 44 -24 62 21 60 146 -1 60 5 101 24 165 14
47 31 92 38 100 6 8 20 32 30 53 11 20 23 37 28 37 4 0 8 5 8 11 0 12 137 163
272 300 85 86 173 199 180 229 2 8 5 17 8 20 17 17 78 205 84 257 3 26 13 90
23 142 16 89 16 98 -2 190 -25 128 -69 243 -114 295 -20 23 -52 63 -71 88 -42
55 -87 88 -121 88 -13 0 -34 7 -46 15 -23 16 -85 40 -132 51 -46 11 -195 13
-241 3z m-265 -809 c3 -5 1 -10 -4 -10 -6 0 -11 5 -11 10 0 6 2 10 4 10 3 0 8
-4 11 -10z"/>
<path d="M3395 3743 c-11 -3 -25 -9 -32 -14 -7 -6 -12 -6 -15 1 -2 7 -14 7
-38 0 -19 -5 -47 -10 -62 -10 -36 0 -54 -31 -28 -47 18 -12 66 -5 115 17 11 4
49 12 84 17 62 8 64 9 47 26 -17 17 -33 19 -71 10z"/>
<path d="M3410 3307 c-44 -22 -32 -42 25 -40 48 2 82 23 69 44 -8 13 -65 10
-94 -4z"/>
<path d="M1440 3140 c-8 -5 -27 -10 -41 -10 -14 0 -40 -11 -57 -24 -30 -22
-32 -25 -17 -40 20 -20 20 -20 53 4 15 10 38 21 52 24 71 12 120 30 120 42 0
17 -86 20 -110 4z"/>
<path d="M3765 2843 c-11 -3 -24 -11 -28 -19 -4 -8 -16 -14 -25 -14 -10 0 -22
-4 -27 -9 -6 -5 -30 -12 -55 -15 -25 -3 -70 -9 -100 -14 -64 -9 -90 -6 -90 12
0 16 -43 36 -76 36 -22 0 -40 -7 -84 -32 -8 -4 -22 -11 -30 -15 -8 -3 -19 -12
-23 -20 -4 -7 -15 -13 -22 -13 -8 0 -15 -7 -15 -15 0 -8 -7 -15 -16 -15 -23 0
-15 -64 9 -68 10 -2 20 4 24 15 10 27 42 53 101 81 l54 24 30 -22 c20 -15 44
-22 76 -22 51 0 138 10 162 19 8 3 25 5 37 4 14 -2 41 12 66 33 24 20 49 36
54 36 13 0 24 25 16 34 -7 6 -7 6 -38 -1z"/>
<path d="M1580 2742 c-18 -5 -57 -21 -133 -57 -43 -20 -62 -36 -76 -63 -11
-20 -29 -43 -40 -50 -12 -6 -31 -33 -42 -58 -40 -83 4 -111 152 -98 76 7 95 8
174 6 132 -3 135 -3 165 25 17 14 30 32 30 39 0 7 20 34 45 61 25 26 46 57 47
68 5 64 -14 88 -80 105 -26 6 -56 14 -67 17 -50 13 -80 8 -83 -12 -2 -17 3
-21 29 -23 18 -1 37 -6 43 -11 6 -5 30 -15 54 -22 46 -13 51 -27 27 -69 -8
-14 -17 -31 -21 -38 -4 -8 -24 -33 -46 -56 -40 -44 -56 -50 -140 -46 -66 3
-186 3 -244 1 -31 -1 -58 0 -61 2 -7 8 18 50 39 65 10 7 18 19 18 25 0 18 75
85 114 101 19 8 52 17 73 21 47 7 84 31 77 49 -6 16 -32 25 -54 18z"/>
<path d="M3476 2385 c-13 -13 -13 -20 -3 -36 10 -18 19 -20 71 -15 54 4 81 19
71 37 -5 7 -86 29 -109 29 -8 0 -22 -7 -30 -15z"/>
<path d="M3990 2296 c-25 -18 -51 -40 -59 -49 -7 -10 -21 -17 -30 -17 -9 0
-22 -9 -29 -20 -7 -12 -17 -18 -22 -15 -6 3 -10 1 -10 -5 0 -7 -6 -10 -12 -7
-7 2 -25 -4 -39 -14 -36 -25 -205 -50 -379 -55 -165 -5 -269 -18 -316 -40 -37
-18 -154 -151 -154 -175 0 -9 7 -20 16 -23 20 -8 39 -8 32 0 -10 9 113 123
157 146 31 16 63 21 145 24 164 5 290 13 299 19 5 3 45 11 89 19 100 18 193
60 265 121 18 15 46 33 62 40 34 15 65 48 65 70 0 24 -32 17 -80 -19z"/>
<path d="M1709 2053 c-46 -7 -111 -15 -144 -18 -101 -8 -118 -12 -165 -34 -62
-29 -130 -70 -154 -92 -11 -11 -24 -19 -28 -19 -17 0 -62 -49 -65 -71 -5 -33
14 -49 50 -42 36 7 52 24 34 35 -27 18 167 158 219 158 8 0 14 4 14 10 0 5 7
7 15 4 8 -3 19 -3 26 1 6 4 48 10 93 12 44 2 97 8 116 13 54 15 91 12 166 -14
70 -25 84 -25 84 -2 0 11 -42 48 -60 52 -3 0 -12 3 -20 7 -30 12 -99 12 -181
0z"/>
<path d="M1572 1840 c-42 -20 -132 -119 -132 -145 0 -29 70 -102 105 -109 19
-4 54 1 90 12 33 11 105 23 160 27 117 8 147 24 151 81 2 24 -1 34 -11 34 -8
0 -12 6 -9 14 9 22 -44 56 -87 56 -22 0 -39 4 -39 9 0 33 -170 48 -228 21z
m138 -43 c0 -24 38 -45 86 -49 51 -3 74 -16 74 -42 0 -15 -26 -23 -100 -30
-62 -6 -120 -18 -125 -27 -3 -4 -26 -11 -50 -15 -50 -7 -67 2 -90 47 -14 25
-12 28 26 68 33 33 51 43 92 50 76 13 87 12 87 -2z"/>
<path d="M3532 1673 c-13 -2 -26 -11 -29 -19 -3 -8 -10 -14 -17 -14 -21 0
-144 -99 -152 -122 -11 -37 50 -67 63 -30 14 38 71 95 117 119 70 35 131 38
276 13 69 -12 141 -24 160 -27 19 -3 46 -11 60 -17 30 -15 52 -15 57 0 7 21
-23 32 -170 64 -140 29 -311 45 -365 33z"/>
<path d="M3596 1494 c-70 -24 -164 -92 -254 -182 -42 -42 -44 -46 -39 -90 3
-26 6 -48 6 -49 1 -1 17 -10 37 -19 39 -19 167 -24 239 -10 22 4 49 9 60 10
11 2 20 4 20 5 0 2 18 4 40 7 22 2 66 16 98 32 53 25 59 31 73 77 36 113 36
120 -9 171 l-40 46 -63 -7 c-57 -6 -64 -5 -74 14 -12 24 -6 25 -94 -5z m94
-53 c0 -5 6 -9 13 -8 57 2 89 -6 115 -28 l29 -24 -16 -59 c-13 -54 -19 -62
-58 -83 -23 -13 -45 -20 -48 -17 -4 3 -56 -7 -117 -23 -109 -29 -154 -31 -222
-11 -19 5 -33 18 -39 35 -7 23 -4 31 27 62 19 19 39 35 43 35 4 0 21 16 38 35
16 19 35 35 41 35 6 0 17 6 23 14 6 7 24 16 39 19 15 3 34 8 43 12 11 4 18 -1
23 -17 l6 -23 21 28 c20 27 39 35 39 18z"/>
<path d="M2315 1486 c-22 -13 -43 -22 -48 -19 -5 3 -15 -4 -23 -16 -8 -12 -20
-21 -27 -21 -18 0 -66 -62 -77 -100 -33 -114 -25 -171 33 -229 78 -80 111 -96
202 -96 67 0 89 4 128 25 26 14 47 30 47 37 0 7 9 17 21 23 23 13 49 67 42 87
-3 7 0 13 5 13 19 0 11 121 -10 170 -24 55 -92 118 -135 126 -18 3 -33 10 -33
15 0 19 -85 9 -125 -15z"/>
<path d="M1117 1444 c-4 -4 -33 -8 -64 -10 -32 -2 -59 -8 -61 -14 -2 -5 -13
-10 -24 -10 -20 0 -68 -22 -158 -72 -25 -14 -71 -40 -102 -57 -40 -22 -63 -43
-74 -67 -9 -19 -20 -34 -24 -34 -5 0 -14 -16 -20 -35 -9 -28 -8 -45 4 -88 16
-56 41 -77 90 -77 13 0 37 -5 55 -11 37 -13 68 -7 96 18 34 31 98 69 140 84
22 8 45 21 52 29 7 8 13 12 13 8 0 -4 16 0 35 8 19 8 45 12 58 9 15 -4 37 4
69 25 56 37 59 41 87 112 27 66 22 92 -19 107 -17 5 -30 15 -30 21 0 7 -15 8
-42 3 -38 -5 -42 -4 -30 9 17 21 5 48 -22 48 -13 0 -26 -3 -29 -6z m-37 -80
c-22 -25 -1 -36 59 -30 41 5 61 2 75 -9 18 -14 18 -16 1 -60 -19 -51 -54 -80
-87 -72 -11 3 -35 -1 -52 -10 -17 -10 -37 -18 -45 -19 -7 -2 -18 -7 -24 -13
-6 -6 -17 -11 -25 -11 -8 0 -51 -25 -95 -56 -73 -50 -88 -57 -132 -57 -72 0
-95 10 -111 49 -14 33 -13 36 28 97 24 34 50 63 58 65 8 2 36 19 62 38 27 19
50 34 53 34 3 0 22 7 43 16 20 10 44 18 52 20 9 2 31 10 50 18 19 8 49 14 68
14 26 0 31 -3 22 -14z"/>
<path d="M1746 1280 c-61 -50 -86 -82 -86 -109 0 -12 -4 -21 -8 -21 -16 0 -12
-65 7 -105 22 -46 40 -58 76 -49 16 4 31 -1 46 -15 13 -12 32 -21 43 -22 67
-1 99 -11 143 -43 44 -31 97 -49 143 -47 40 1 65 9 64 19 -1 7 -2 18 -3 25 0
7 -19 12 -49 13 -50 1 -149 45 -159 71 -4 9 -24 13 -65 13 -46 0 -64 4 -74 18
-9 12 -26 17 -65 17 -51 0 -53 1 -62 32 -10 33 6 93 24 93 5 0 9 6 9 13 0 6
19 25 43 42 65 46 77 58 77 77 0 33 -51 22 -104 -22z"/>
<path d="M3028 1025 c-32 -20 -58 -41 -58 -46 0 -5 -10 -13 -23 -18 -24 -10
-105 -78 -179 -153 -26 -27 -67 -57 -90 -69 -24 -11 -50 -25 -58 -30 -8 -5
-36 -19 -62 -31 -60 -26 -64 -51 -10 -65 62 -16 232 -4 240 18 2 5 8 7 12 4 5
-3 17 -2 27 3 10 6 32 15 48 22 17 7 42 19 58 27 15 8 27 12 27 9 0 -3 19 2
43 10 79 29 126 28 197 -4 43 -19 89 -31 135 -35 69 -5 153 -34 207 -70 21
-14 46 -19 105 -19 67 0 90 5 153 33 41 18 93 50 115 71 41 39 65 55 122 83
37 17 63 51 63 81 0 22 -50 54 -82 54 -8 0 -18 3 -22 7 -11 12 -46 14 -196 14
-161 -1 -180 -4 -180 -31 0 -20 14 -23 125 -20 118 4 140 3 175 -2 19 -3 43
-8 53 -12 9 -3 24 -8 34 -11 14 -5 12 -10 -11 -34 -15 -16 -45 -37 -67 -47
-21 -11 -39 -23 -39 -29 -1 -16 -86 -78 -127 -93 -57 -21 -171 -17 -197 7 -39
35 -147 70 -232 74 -54 3 -94 12 -127 27 -41 19 -59 22 -115 17 -76 -7 -99
-14 -232 -69 -117 -49 -130 -53 -155 -52 -11 1 -37 2 -59 3 -33 1 -37 3 -26
16 7 8 20 15 29 15 28 0 82 39 156 113 76 78 111 107 123 107 5 0 18 10 30 23
11 12 38 30 59 41 21 10 45 22 54 26 9 5 33 12 53 15 32 6 35 5 30 -10 -6 -15
-4 -16 14 -6 22 12 30 45 13 55 -5 4 -29 9 -53 12 -37 5 -50 1 -100 -31z"/>
<path d="M1225 860 c-3 -5 -15 -10 -26 -10 -10 0 -19 -4 -19 -9 0 -5 -30 -14
-67 -21 -68 -13 -131 -34 -210 -70 -24 -11 -47 -20 -53 -20 -25 0 -48 -83 -29
-106 17 -21 27 -18 62 18 34 35 111 88 127 88 6 0 10 4 10 8 0 5 6 9 13 9 19
1 87 20 135 37 39 15 48 15 88 1 47 -16 86 -38 118 -67 25 -22 17 -75 -19
-121 -23 -32 -26 -67 -4 -67 45 0 94 68 104 146 6 41 3 53 -15 77 -12 15 -24
26 -27 23 -3 -2 -18 9 -35 26 -16 17 -53 39 -81 49 -60 22 -64 22 -72 9z"/>
</g>
</svg>
