<?xml version="1.0" standalone="no"?>
<!DOCTYPE svg PUBLIC "-//W3C//DTD SVG 20010904//EN"
 "http://www.w3.org/TR/2001/REC-SVG-20010904/DTD/svg10.dtd">
<svg version="1.0" xmlns="http://www.w3.org/2000/svg"
 width="479.000000pt" height="429.000000pt" viewBox="0 0 479.000000 429.000000"
 preserveAspectRatio="xMidYMid meet">
<metadata>
Created by potrace 1.16, written by Peter Selinger 2001-2019
</metadata>
<g transform="translate(0.000000,429.000000) scale(0.100000,-0.100000)"
fill="#000000" stroke="none">
<path d="M2154 4264 c-50 -7 -120 -20 -155 -30 -35 -9 -82 -20 -104 -25 -133
-26 -248 -67 -442 -161 -45 -21 -85 -43 -88 -48 -3 -5 -26 -19 -51 -30 -50
-22 -120 -70 -200 -136 -28 -24 -70 -50 -92 -60 -24 -9 -42 -23 -42 -32 0 -14
-62 -91 -130 -162 -42 -45 -103 -121 -139 -174 -19 -28 -41 -57 -49 -65 -7 -7
-23 -34 -36 -60 -29 -58 -85 -160 -103 -186 -7 -11 -13 -25 -13 -32 0 -7 -9
-32 -19 -56 -57 -127 -118 -345 -141 -507 -6 -47 -15 -102 -20 -122 -12 -59
-2 -390 15 -488 8 -48 19 -106 20 -110 1 -3 5 -25 9 -50 13 -78 75 -266 122
-368 13 -29 24 -57 24 -61 0 -5 3 -11 8 -13 4 -2 22 -32 40 -68 18 -36 38 -74
44 -85 64 -106 97 -155 123 -185 16 -20 41 -51 55 -70 46 -66 275 -286 372
-358 163 -122 382 -242 543 -299 38 -13 77 -27 85 -30 8 -3 20 -7 25 -8 6 0
17 -4 25 -8 27 -11 224 -56 275 -62 28 -3 73 -10 101 -15 61 -10 353 -5 444 9
36 5 99 14 140 20 42 5 82 12 90 14 149 45 206 64 264 88 38 16 72 29 77 29
23 0 255 123 344 183 200 133 476 410 580 581 17 27 40 65 53 85 24 38 99 189
152 306 31 71 82 245 105 365 21 107 27 194 30 415 2 173 -1 227 -17 305 -10
52 -21 106 -23 120 -3 14 -9 40 -14 58 -5 18 -10 34 -11 37 -2 12 -15 48 -57
155 -53 135 -137 299 -199 388 -24 35 -44 66 -44 70 0 4 -17 28 -37 53 -21 26
-45 56 -53 69 -31 46 -190 210 -299 310 -85 77 -239 186 -326 230 -28 14 -52
28 -55 31 -9 11 -93 61 -106 63 -6 1 -18 7 -25 12 -19 14 -137 64 -152 64 -7
0 -23 6 -37 13 -14 7 -52 19 -85 26 -33 7 -89 21 -125 31 -36 11 -87 22 -115
25 -27 3 -75 9 -105 15 -76 12 -346 9 -456 -6z m446 -308 c14 -3 43 -7 65 -10
22 -3 65 -10 95 -17 30 -6 71 -14 90 -18 19 -4 76 -20 126 -36 l91 -29 -16
-28 c-9 -15 -19 -28 -23 -28 -5 0 -8 -6 -8 -14 0 -8 -4 -16 -8 -18 -4 -1 -22
-27 -40 -56 -23 -37 -31 -60 -26 -75 9 -27 25 -42 44 -41 8 1 23 2 33 3 9 0
17 7 17 15 0 8 27 55 61 104 l61 90 31 -10 c18 -6 43 -16 57 -24 14 -7 39 -20
57 -29 37 -17 120 -72 147 -97 11 -10 24 -18 29 -18 14 0 121 -94 219 -192 85
-86 268 -321 268 -345 0 -7 -5 -13 -11 -13 -10 0 -38 -22 -100 -81 -16 -15
-34 -29 -41 -32 -7 -2 -20 -17 -28 -32 -13 -24 -13 -29 -1 -33 10 -3 10 -6 1
-12 -7 -4 4 -13 30 -24 l42 -17 44 41 c24 22 50 40 59 40 8 0 15 3 15 8 0 13
54 34 58 22 2 -6 9 -16 15 -23 7 -7 13 -17 14 -22 1 -6 11 -35 23 -65 61 -160
96 -285 110 -386 6 -44 13 -91 16 -105 4 -19 6 -219 2 -334 -1 -39 -39 -258
-48 -274 -4 -9 -11 -34 -15 -56 -4 -22 -8 -46 -9 -53 -6 -32 -24 -33 -72 -5
-59 35 -96 39 -118 14 -13 -15 -15 -26 -9 -52 8 -29 20 -39 76 -68 54 -28 67
-39 67 -58 0 -13 -3 -23 -8 -23 -4 0 -25 -34 -47 -75 -59 -110 -67 -123 -118
-202 -103 -156 -260 -329 -389 -426 -32 -24 -40 -26 -58 -15 -11 7 -20 16 -20
19 0 8 -80 130 -97 147 -11 11 -18 11 -40 0 -23 -11 -28 -20 -29 -51 -1 -20 2
-37 6 -37 4 0 28 -36 53 -80 l45 -80 -28 -20 c-15 -11 -32 -20 -37 -20 -4 0
-24 -10 -43 -23 -70 -46 -318 -148 -394 -163 -12 -2 -49 -11 -84 -19 -147 -37
-208 -43 -432 -44 -143 -1 -234 8 -385 39 -53 11 -105 29 -105 37 0 11 35 63
42 63 4 0 8 6 8 13 0 6 12 23 26 36 21 20 24 32 22 70 -3 45 -3 46 -41 49 -46
4 -70 -17 -106 -96 -14 -29 -28 -52 -33 -52 -5 0 -7 -4 -3 -9 10 -17 -26 -42
-49 -35 -20 6 -106 45 -136 62 -8 5 -24 13 -35 19 -173 85 -229 127 -462 348
-45 43 -87 81 -93 85 -7 4 -11 11 -11 16 1 14 -59 94 -70 94 -6 0 -7 5 -4 10
3 6 0 10 -7 10 -7 0 -21 14 -30 30 -9 17 -14 30 -9 30 4 0 32 23 61 50 29 28
64 57 77 65 23 16 63 83 63 108 0 11 -13 14 -52 13 -53 -2 -98 -21 -98 -42 0
-6 -21 -29 -47 -50 -56 -44 -81 -62 -71 -50 5 5 -3 24 -17 41 -13 18 -27 44
-31 59 -3 14 -10 26 -15 26 -5 0 -9 10 -9 23 0 12 -6 31 -13 42 -7 11 -19 40
-26 65 -7 25 -20 52 -28 61 -8 9 -16 27 -17 40 -2 13 -9 38 -16 54 -7 17 -13
42 -14 57 0 16 -4 28 -7 28 -3 0 -7 26 -8 58 -2 60 -5 83 -26 202 -7 41 -11
109 -9 150 6 130 15 243 19 250 2 3 6 26 10 50 7 49 31 182 39 216 8 36 68
178 81 192 13 15 27 9 136 -50 25 -13 52 -27 61 -31 20 -7 76 33 71 51 -3 6 0
12 6 12 6 0 11 6 11 13 0 17 -133 87 -165 87 -14 0 -25 5 -25 10 0 6 -12 15
-27 21 -16 7 -23 13 -15 16 6 3 12 11 12 19 0 8 3 14 8 14 4 0 23 28 42 63 18
34 40 68 47 75 7 7 13 17 13 21 0 5 12 21 26 36 15 16 33 43 40 59 7 17 13 27
14 22 0 -14 60 55 60 70 0 8 4 14 9 14 9 0 57 40 117 98 19 17 37 32 40 32 3
0 15 10 28 23 43 41 71 62 166 124 l95 63 19 -38 c10 -20 23 -38 27 -40 5 -2
9 -10 9 -18 0 -8 4 -14 8 -14 5 0 21 -22 36 -50 23 -42 32 -50 56 -50 20 0 35
9 49 29 30 41 27 74 -9 101 -17 13 -44 46 -61 73 -24 40 -28 52 -17 59 86 59
417 154 598 171 52 5 351 0 380 -7z m630 -3606 c0 -5 -8 -10 -17 -10 -15 0
-16 2 -3 10 19 12 20 12 20 0z"/>
<path d="M2505 3923 c-17 -2 -44 -14 -60 -27 -25 -20 -29 -30 -30 -77 0 -49 2
-54 23 -57 27 -4 53 23 49 53 -3 31 38 32 58 1 28 -42 22 -84 -25 -165 -23
-41 -43 -85 -44 -98 0 -13 -4 -23 -8 -23 -4 0 -2 -11 4 -25 10 -23 17 -25 73
-25 34 0 65 -3 68 -7 11 -10 71 -9 82 2 16 16 11 69 -8 87 -14 12 -30 15 -66
11 -29 -3 -51 -1 -55 5 -5 9 20 66 44 97 4 6 13 33 19 61 11 47 10 57 -10 103
-19 46 -61 94 -78 89 -3 0 -20 -3 -36 -5z"/>
<path d="M2263 3861 c-32 -35 -43 -50 -43 -59 0 -4 -16 -32 -35 -62 -38 -60
-43 -85 -20 -93 9 -4 27 9 49 34 21 25 37 36 41 29 4 -6 8 -57 9 -114 2 -56 6
-108 10 -114 8 -14 35 -15 53 -4 15 10 34 100 23 107 -10 6 -18 71 -25 184 -6
107 -25 133 -62 92z"/>
<path d="M2442 3179 c-30 -5 -86 -20 -125 -33 -40 -13 -83 -26 -97 -30 -25 -6
-100 -69 -100 -84 0 -4 -13 -21 -29 -38 -16 -17 -35 -51 -42 -75 -7 -24 -17
-50 -22 -57 -14 -18 -17 -101 -4 -147 6 -22 11 -44 11 -50 3 -30 31 -75 54
-84 26 -11 147 -16 187 -8 13 2 33 30 60 84 22 45 51 92 65 105 35 35 113 69
190 84 34 7 132 -82 166 -150 41 -84 59 -312 29 -370 -8 -15 -15 -34 -15 -40
0 -7 -8 -21 -17 -32 -26 -29 -83 -113 -83 -123 0 -4 -21 -30 -46 -57 -25 -27
-52 -62 -61 -79 -9 -16 -26 -43 -38 -60 -12 -16 -35 -70 -50 -120 -14 -49 -33
-106 -40 -125 -16 -40 -38 -113 -38 -120 0 -3 -3 -15 -8 -28 -11 -27 14 -72
40 -72 9 0 43 -8 76 -18 l60 -19 22 23 c14 14 21 32 19 51 -1 15 3 53 10 83 7
30 10 58 8 62 -3 5 -1 8 3 8 5 0 24 30 43 68 19 37 37 69 40 72 4 3 10 12 13
20 4 8 16 29 27 45 11 17 23 37 27 45 9 18 65 103 73 110 41 40 160 238 160
267 0 5 7 22 16 38 45 87 61 321 30 442 -17 65 -58 172 -83 218 -28 51 -123
134 -192 167 -61 29 -75 32 -176 34 -60 1 -134 -2 -163 -7z"/>
<path d="M3918 2546 c-62 -22 -115 -96 -95 -131 18 -31 43 -26 63 11 22 41 75
64 100 43 12 -10 15 -26 12 -67 -3 -30 -9 -57 -14 -60 -13 -9 -44 -54 -44 -64
0 -19 33 -37 60 -32 24 5 31 2 44 -24 30 -57 16 -103 -34 -121 -31 -10 -60 -6
-60 10 0 11 -50 1 -64 -12 -17 -15 -16 -46 2 -62 39 -34 135 -22 194 26 30 24
60 104 52 140 -8 38 -30 85 -52 110 -11 13 -16 40 -16 100 -1 133 -43 170
-148 133z"/>
<path d="M768 2316 c-40 -17 -98 -84 -98 -112 0 -13 -4 -24 -8 -24 -4 0 -5
-19 -2 -43 5 -45 31 -86 65 -105 21 -11 85 -3 138 17 16 6 30 11 33 11 7 0 2
-130 -6 -160 -4 -15 -13 -24 -22 -22 -33 5 -72 -74 -46 -95 37 -31 98 -10 122
42 36 74 33 378 -3 413 -10 9 -21 25 -24 34 -15 42 -98 66 -149 44z m76 -81
c8 -8 20 -15 27 -15 14 0 5 -56 -12 -77 -15 -17 -83 -37 -103 -30 -10 4 -16
18 -16 38 0 71 64 123 104 84z"/>
<path d="M2495 1302 c-52 -29 -114 -93 -126 -129 -12 -39 1 -115 26 -139 33
-34 95 -42 171 -23 37 10 49 19 69 54 32 53 31 80 -1 152 -46 101 -76 120
-139 85z"/>
<path d="M2565 860 c-46 -30 -92 -86 -106 -127 -6 -21 -15 -48 -20 -61 -14
-36 -11 -160 5 -190 22 -42 87 -95 126 -101 78 -14 182 41 196 104 18 78 -3
121 -79 161 -34 18 -96 5 -144 -32 -17 -13 -34 -24 -37 -24 -6 0 -1 56 10 106
5 27 71 94 91 94 19 0 42 29 43 53 0 13 -41 41 -53 36 -1 0 -15 -9 -32 -19z
m105 -300 c0 -5 7 -10 16 -10 30 0 11 -44 -27 -64 -32 -18 -41 -18 -78 -8 -49
15 -52 31 -10 66 31 26 99 37 99 16z"/>
</g>
</svg>
