<?xml version="1.0" standalone="no"?>
<!DOCTYPE svg PUBLIC "-//W3C//DTD SVG 20010904//EN"
 "http://www.w3.org/TR/2001/REC-SVG-20010904/DTD/svg10.dtd">
<svg version="1.0" xmlns="http://www.w3.org/2000/svg"
 width="561.000000pt" height="459.000000pt" viewBox="0 0 561.000000 459.000000"
 preserveAspectRatio="xMidYMid meet">
<metadata>
Created by potrace 1.16, written by Peter Selinger 2001-2019
</metadata>
<g transform="translate(0.000000,459.000000) scale(0.100000,-0.100000)"
fill="#000000" stroke="none">
<path d="M1819 4213 c-8 -2 -24 -29 -34 -61 -10 -31 -32 -77 -49 -102 -92
-139 -108 -160 -122 -160 -8 0 -13 -4 -10 -8 3 -5 -17 -21 -45 -37 -27 -16
-49 -33 -49 -38 0 -4 -4 -6 -9 -3 -5 3 -21 -6 -35 -19 -15 -14 -33 -25 -40
-25 -7 0 -31 -12 -52 -27 -21 -14 -58 -32 -80 -39 -23 -7 -59 -21 -80 -32 -22
-11 -55 -23 -74 -26 -19 -4 -44 -11 -55 -17 -33 -15 -248 -71 -272 -70 -13 0
-23 -4 -23 -9 0 -6 -3 -9 -7 -9 -26 4 -55 -4 -85 -24 -18 -13 -49 -29 -68 -36
-62 -21 -90 -36 -90 -47 0 -5 -16 -18 -35 -27 -19 -9 -35 -23 -35 -32 0 -8 -5
-15 -12 -15 -6 0 -9 -3 -5 -6 3 -3 -3 -21 -14 -40 -26 -47 -60 -167 -66 -233
-3 -30 -12 -65 -20 -77 -9 -15 -11 -24 -4 -29 16 -9 13 -58 -8 -143 -11 -43
-22 -95 -25 -117 -6 -40 -28 -136 -38 -165 -3 -8 -10 -30 -16 -47 -7 -18 -17
-48 -23 -65 -6 -18 -18 -47 -26 -63 -8 -17 -15 -41 -16 -53 -1 -12 -5 -22 -10
-22 -5 0 -6 -7 -3 -16 4 -9 1 -23 -5 -30 -16 -19 -3 -60 29 -92 35 -37 149
-122 162 -122 6 0 10 -7 10 -15 0 -8 4 -15 9 -15 8 0 12 -11 26 -62 2 -5 4 -9
5 -10 3 -4 6 -27 14 -131 9 -115 -18 -410 -49 -542 -8 -33 -16 -80 -19 -103
-3 -24 -12 -67 -20 -95 -7 -29 -17 -70 -21 -92 -4 -22 -11 -46 -17 -52 -6 -7
-7 -13 -3 -13 4 0 1 -7 -6 -17 -11 -12 -14 -61 -14 -212 0 -216 3 -239 44
-326 16 -33 34 -82 40 -108 6 -26 19 -56 29 -66 26 -28 130 -77 187 -89 51
-10 185 -9 279 3 60 7 214 53 222 66 3 5 12 9 20 9 8 0 36 10 62 21 26 12 70
31 97 44 28 12 86 34 130 49 44 15 105 40 135 56 30 15 82 36 115 46 33 10 67
24 76 31 8 7 29 15 45 17 32 4 66 16 74 26 3 3 21 17 40 30 19 13 39 30 43 37
4 7 14 13 21 13 7 0 29 13 47 30 19 16 42 32 52 36 9 3 17 9 17 13 0 5 15 14
33 21 64 24 83 35 156 93 41 33 86 64 100 70 15 6 33 16 41 23 16 13 82 50
220 122 47 24 90 48 97 54 7 5 17 7 23 3 5 -3 10 -2 10 2 0 5 30 25 66 44 36
19 75 38 85 44 10 5 19 13 19 17 0 5 6 8 14 8 7 0 28 14 47 31 190 172 204
182 309 229 52 24 97 47 98 51 2 5 8 9 14 9 14 0 159 98 189 129 41 41 77 70
82 65 3 -3 7 5 11 18 3 13 24 37 46 53 21 17 39 36 40 44 0 8 13 26 28 41 24
23 40 47 47 70 9 33 19 50 29 50 7 0 13 6 13 13 0 6 17 40 36 75 27 46 33 64
23 68 -7 3 -11 15 -9 28 5 26 -18 38 -72 40 -27 1 -30 4 -27 30 2 16 10 46 18
68 18 52 18 98 0 98 -7 0 -21 11 -30 25 -9 14 -26 25 -37 25 -11 0 -17 4 -14
10 12 19 12 134 1 153 -16 25 -73 22 -129 -8 -44 -24 -47 -24 -47 -6 0 10 -7
24 -15 31 -19 15 -95 23 -95 10 0 -6 -6 -10 -12 -10 -17 0 -97 -55 -114 -77
-7 -10 -14 -25 -14 -33 0 -10 -11 -15 -36 -16 -26 0 -41 -7 -54 -24 -14 -19
-27 -24 -57 -22 -50 1 -163 -35 -163 -54 0 -8 -7 -14 -15 -14 -9 0 -18 -8 -22
-17 -6 -17 -74 -92 -135 -151 -16 -15 -28 -32 -28 -39 0 -7 -9 -13 -21 -13
-11 0 -18 -4 -14 -9 3 -6 -8 -25 -25 -44 -16 -19 -30 -38 -30 -41 0 -9 -41
-68 -61 -86 -16 -15 -43 -59 -44 -72 0 -3 -10 -15 -22 -26 -13 -11 -23 -24
-23 -29 0 -5 -39 -22 -87 -38 -49 -16 -91 -34 -95 -39 -5 -7 -8 -7 -8 -1 0 6
-6 2 -13 -7 -7 -9 -44 -26 -83 -39 -38 -12 -72 -26 -75 -31 -10 -15 -242 -89
-329 -104 -14 -3 -40 -10 -58 -15 -18 -6 -36 -9 -38 -6 -3 3 -26 -2 -52 -10
-26 -8 -71 -21 -100 -29 -29 -8 -93 -34 -141 -59 -48 -25 -95 -45 -104 -45 -9
0 -19 -4 -22 -10 -13 -21 -25 -9 -19 17 4 15 8 95 9 178 1 82 5 167 10 187 4
20 4 45 0 55 -12 29 -16 63 -16 138 0 39 -7 106 -14 150 -8 44 -17 113 -20
154 -3 41 -8 79 -11 83 -6 9 -8 27 -19 136 -8 79 -19 94 -68 85 -20 -4 -27
-12 -29 -29 -5 -74 -4 -110 1 -119 3 -5 6 -21 7 -35 1 -14 5 -38 9 -55 12 -51
23 -127 29 -193 3 -35 9 -68 13 -75 4 -7 8 -46 9 -87 1 -41 4 -97 9 -125 l7
-50 -56 -1 c-31 0 -56 4 -56 8 0 11 -120 68 -142 68 -10 0 -18 5 -18 10 0 6
-9 10 -19 10 -11 0 -21 4 -23 8 -2 5 -52 25 -113 46 -60 21 -112 42 -115 45
-4 6 -40 22 -135 60 -11 5 -40 18 -63 30 -24 11 -50 21 -58 21 -8 0 -14 4 -14
8 0 4 -24 21 -52 36 -62 33 -134 90 -148 116 -8 15 -6 24 7 38 10 10 19 31 20
47 1 15 6 31 10 34 4 3 10 13 12 21 1 8 12 41 22 74 10 32 19 67 19 77 0 10 5
21 10 24 6 3 10 17 10 31 0 13 6 50 14 82 35 141 38 157 51 297 10 107 47 245
66 245 4 0 11 17 15 38 8 42 41 92 61 92 7 0 13 4 13 10 0 5 16 14 36 19 20 6
44 16 53 24 20 17 131 59 131 49 0 -4 4 -1 8 6 5 7 36 18 69 25 33 7 67 18 75
24 8 7 38 15 66 18 29 2 72 13 95 24 23 10 61 24 84 30 50 14 148 56 183 80
14 10 49 27 78 39 84 34 102 15 137 -153 16 -75 22 -274 10 -342 -5 -34 -3
-45 14 -62 12 -12 34 -21 51 -21 24 0 33 7 52 44 34 65 105 147 201 233 62 56
197 90 296 74 104 -17 173 -56 275 -156 28 -27 57 -51 66 -52 8 -2 29 -6 47
-9 27 -5 34 -2 50 22 10 16 30 40 44 54 14 14 35 41 46 60 22 35 82 90 138
126 17 10 32 21 35 24 22 24 141 60 206 61 96 3 242 -43 268 -84 19 -28 38
-111 27 -115 -12 -4 17 -60 36 -70 8 -5 25 -7 38 -5 28 6 53 76 35 98 -7 8 -9
18 -7 22 3 5 8 62 12 128 11 199 14 249 19 270 2 11 5 28 5 38 1 15 5 16 21 7
11 -6 20 -16 20 -23 0 -7 18 -31 40 -55 22 -23 40 -47 40 -52 0 -6 7 -10 15
-10 9 0 28 -11 42 -24 15 -14 30 -23 35 -20 4 3 8 1 8 -4 0 -6 16 -13 35 -16
19 -4 35 -11 35 -15 0 -5 28 -14 63 -20 34 -7 76 -16 94 -22 38 -12 139 -20
243 -21 66 0 186 -18 230 -35 8 -3 22 -7 30 -8 44 -6 90 -19 127 -36 24 -10
49 -19 56 -19 22 0 162 -67 177 -85 7 -8 18 -15 24 -15 7 0 27 -17 45 -37 18
-21 56 -63 85 -93 29 -30 61 -71 72 -90 10 -19 21 -37 25 -40 3 -3 15 -30 28
-60 12 -30 26 -64 31 -75 6 -11 16 -45 24 -75 8 -30 19 -68 25 -84 20 -50 31
-113 36 -208 3 -51 10 -109 14 -128 11 -44 22 -177 27 -340 2 -69 4 -145 5
-170 1 -25 -4 -94 -9 -155 -6 -60 -13 -135 -16 -165 -5 -67 -25 -160 -34 -160
-23 0 -91 34 -85 44 4 8 3 8 -6 0 -8 -8 -27 -8 -63 -1 -37 7 -64 7 -95 -1 -24
-7 -65 -12 -93 -12 -27 0 -52 -4 -55 -10 -9 -14 -102 -42 -160 -47 -30 -3 -88
-22 -146 -49 -110 -51 -123 -53 -113 -21 17 52 21 89 24 207 2 69 4 154 5 190
1 36 -6 119 -15 185 -10 66 -16 129 -14 140 11 59 -2 132 -28 148 -11 7 -25 7
-46 -2 -34 -14 -48 -51 -35 -92 5 -13 8 -55 7 -94 -1 -38 3 -75 7 -81 5 -6 10
-19 12 -30 1 -10 6 -24 10 -31 12 -18 15 -218 6 -338 -12 -171 -15 -197 -27
-240 -6 -22 -16 -83 -22 -135 -5 -52 -12 -104 -15 -115 -15 -64 -34 -156 -40
-195 -4 -25 -14 -70 -22 -100 -8 -30 -24 -93 -35 -140 -10 -46 -23 -89 -29
-96 -5 -7 -9 -16 -8 -20 1 -5 -1 -16 -4 -24 -3 -8 -13 -44 -21 -80 -17 -73
-41 -135 -56 -145 -5 -3 -10 -19 -10 -35 0 -16 -4 -31 -9 -34 -15 -10 -3 -60
20 -79 24 -19 56 -15 77 11 15 19 30 69 42 137 10 61 83 338 90 345 3 3 6 12
7 20 1 19 32 140 40 160 10 24 12 41 17 105 2 33 11 78 20 100 8 22 17 65 20
95 7 90 18 131 35 137 9 3 57 26 106 50 54 26 114 47 150 53 33 5 89 18 124
29 35 12 73 21 85 21 11 0 42 7 68 15 44 13 52 12 113 -8 36 -13 64 -25 61
-27 -2 -3 -6 -43 -9 -90 -2 -47 -12 -121 -20 -165 -9 -44 -26 -132 -37 -195
-22 -119 -34 -175 -85 -390 -8 -36 -17 -74 -19 -85 -3 -11 -14 -56 -27 -100
-38 -141 -23 -217 42 -207 42 6 61 40 64 114 2 62 22 174 33 193 3 5 7 16 7
25 1 8 7 38 13 65 6 28 13 69 16 93 3 23 10 50 15 60 6 10 11 40 12 66 2 26 6
49 9 51 3 2 7 23 9 47 1 24 7 61 12 83 14 53 45 213 59 301 10 63 14 71 33 70
13 -1 26 8 33 21 6 13 18 31 27 41 9 10 19 40 22 67 3 27 10 64 16 82 6 18 9
43 8 55 -1 13 0 37 4 53 17 82 32 581 18 610 -3 5 -5 45 -6 90 -1 44 -4 87 -8
95 -7 18 -20 116 -24 185 -7 107 -16 164 -33 215 -4 14 -16 52 -25 85 -10 33
-24 71 -31 85 -7 14 -27 59 -44 100 -17 41 -34 77 -38 80 -4 3 -19 23 -33 45
-88 136 -316 305 -442 327 -32 6 -61 16 -63 23 -3 7 -16 12 -30 10 -13 -1 -24
2 -24 7 0 5 -4 7 -9 4 -5 -3 -55 7 -112 23 -86 24 -130 30 -257 35 -84 3 -157
8 -162 11 -4 3 -28 7 -51 10 -24 3 -53 9 -64 14 -32 13 -90 31 -103 31 -19 0
-105 70 -122 98 -8 14 -30 41 -48 60 -18 19 -37 53 -43 78 -6 24 -15 44 -19
44 -4 0 -6 29 -3 65 3 56 1 66 -14 72 -10 4 -22 12 -26 20 -6 10 -13 10 -27 3
-10 -5 -28 -10 -39 -10 -11 0 -22 -9 -26 -19 -3 -11 -70 -67 -148 -125 -78
-58 -164 -125 -192 -150 -27 -25 -72 -64 -99 -88 -63 -54 -166 -161 -166 -170
0 -5 -5 -8 -11 -8 -6 0 -46 -36 -88 -79 -42 -43 -86 -84 -98 -90 -13 -7 -23
-18 -23 -27 0 -8 -8 -24 -18 -34 -18 -19 -18 -19 -37 13 -10 17 -32 47 -49 65
-17 18 -39 47 -49 65 -20 37 -80 103 -309 338 -93 95 -168 177 -168 184 0 6
-16 19 -35 28 -35 17 -36 17 -60 -8 -16 -15 -25 -36 -25 -54 0 -25 8 -36 40
-56 22 -14 40 -30 40 -35 0 -6 7 -10 15 -10 8 0 15 -5 15 -11 0 -7 15 -26 34
-43 61 -57 105 -96 109 -96 7 0 147 -141 147 -148 0 -4 28 -36 61 -72 34 -35
57 -66 52 -67 -6 -2 -32 6 -59 18 -117 52 -269 53 -388 2 -72 -30 -98 -49
-184 -131 -36 -34 -67 -60 -70 -57 -3 3 -7 40 -9 83 -4 116 -18 210 -42 277
-18 50 -19 65 -9 95 6 19 17 40 24 45 7 6 21 27 32 48 11 22 36 55 54 75 38
42 108 182 108 218 0 16 -9 28 -30 39 -16 8 -30 14 -32 14 -2 -1 -10 -3 -19
-6z m1681 -285 c-7 -46 -15 -90 -18 -98 -3 -8 -4 -64 -4 -123 2 -122 4 -119
-78 -76 -52 27 -174 48 -267 45 -46 -1 -83 -1 -83 0 0 1 28 21 63 45 34 23 79
61 99 84 38 43 152 125 174 125 7 0 14 4 16 8 5 13 101 83 106 78 2 -3 -1 -42
-8 -88z m-32 -1510 c-6 -18 -15 -37 -19 -42 -5 -6 -9 -19 -9 -30 0 -12 -18
-48 -40 -81 -23 -33 -50 -75 -61 -92 -12 -18 -25 -33 -29 -33 -29 0 -18 -86
13 -94 50 -13 114 59 180 203 16 36 40 77 53 90 13 13 24 29 24 36 0 7 20 23
45 36 25 13 45 28 45 32 0 5 4 6 9 3 24 -15 -13 -156 -41 -156 -4 0 -8 -6 -8
-13 0 -14 -105 -168 -134 -198 -9 -9 -16 -21 -16 -27 0 -7 -4 -12 -8 -12 -13
0 -35 -51 -36 -83 -1 -31 19 -42 62 -32 27 6 35 15 67 88 10 20 21 37 26 37 5
0 12 7 16 16 7 19 35 54 86 108 21 22 45 49 53 61 14 18 15 17 8 -20 -4 -22
-18 -57 -31 -77 -12 -21 -23 -40 -23 -42 0 -13 -53 -80 -97 -125 -52 -53 -60
-75 -35 -103 24 -28 43 -22 92 30 55 56 87 82 99 82 5 0 11 4 13 9 2 4 14 11
28 15 14 4 20 4 13 -1 -6 -4 -15 -21 -18 -36 -4 -15 -17 -35 -29 -45 -12 -9
-32 -38 -44 -63 -24 -49 -148 -188 -172 -193 -39 -8 -80 -35 -80 -53 0 -4 -23
-24 -51 -43 -28 -19 -63 -45 -78 -57 -16 -12 -47 -25 -69 -29 -23 -4 -47 -13
-53 -20 -6 -8 -18 -14 -25 -14 -8 0 -14 -4 -14 -8 0 -4 -16 -14 -35 -21 -35
-12 -147 -97 -154 -116 -7 -18 -94 -95 -108 -95 -7 0 -16 -6 -19 -14 -3 -8
-18 -16 -33 -19 -16 -4 -45 -17 -65 -31 -20 -13 -51 -28 -67 -31 -17 -4 -42
-17 -56 -29 -13 -11 -84 -54 -156 -94 -154 -86 -240 -139 -319 -199 -31 -24
-87 -59 -125 -79 -37 -20 -80 -45 -95 -55 -14 -11 -30 -19 -35 -19 -5 0 -19
-11 -31 -25 -12 -14 -28 -25 -35 -25 -15 0 -99 -41 -120 -58 -8 -7 -39 -21
-69 -31 -30 -10 -70 -27 -89 -37 -19 -10 -38 -19 -44 -20 -36 -10 -87 -33
-103 -47 -10 -9 -25 -17 -32 -17 -20 0 -95 -28 -166 -61 -34 -16 -88 -38 -120
-48 -33 -11 -85 -31 -117 -46 -60 -28 -71 -29 -256 -41 -84 -5 -114 -3 -162
11 -33 10 -59 22 -59 27 0 4 -6 8 -13 8 -12 0 -49 99 -52 140 -1 8 -5 24 -9
35 -22 56 -20 48 -30 112 -3 18 -11 42 -19 55 -11 16 -13 43 -10 93 2 39 4 82
3 96 0 14 13 72 29 130 16 57 32 118 35 134 4 17 9 41 11 55 3 14 8 43 11 65
4 33 8 59 18 115 1 3 4 10 8 16 6 9 10 35 23 149 11 101 15 330 8 422 -8 100
-8 103 11 97 11 -4 26 -13 34 -20 7 -8 22 -14 33 -14 11 0 27 -4 37 -9 38 -21
142 -71 145 -69 3 2 106 -31 132 -42 152 -65 270 -130 298 -165 6 -6 10 -6 14
3 2 6 11 12 18 12 7 0 16 7 19 16 3 8 10 12 16 9 6 -4 8 -10 6 -14 -3 -4 -7
-70 -10 -147 -9 -234 -14 -268 -45 -290 -51 -37 -165 -157 -166 -176 -2 -21
10 -32 44 -43 19 -6 30 -1 55 26 59 63 102 91 145 93 50 3 53 6 56 56 1 23 8
47 16 55 21 20 250 133 284 140 17 3 48 10 70 15 22 5 54 11 70 14 43 6 89 18
95 25 3 4 46 14 95 24 50 10 119 32 155 49 36 17 83 33 105 35 22 3 58 14 80
26 22 11 55 19 73 19 17 -1 32 3 32 8 0 6 11 10 24 10 14 0 33 11 44 25 12 15
30 25 45 25 14 0 27 3 29 8 2 4 29 24 61 45 31 20 57 44 57 52 0 7 11 26 25
41 14 15 25 33 25 39 0 7 7 15 15 19 8 3 15 13 15 23 0 10 18 38 40 63 22 25
40 50 40 56 0 6 25 35 55 63 30 29 55 54 55 57 0 2 13 19 29 37 17 17 45 48
63 68 29 32 41 37 85 40 l51 4 -22 -30 c-11 -16 -29 -47 -38 -68 -10 -20 -31
-45 -48 -55 -45 -25 -48 -54 -10 -91 36 -34 30 -36 116 45 42 40 54 58 54 81
0 17 9 40 19 52 10 12 29 47 42 79 12 31 26 59 30 62 15 11 20 52 9 65 -15 18
1 20 17 4 14 -14 78 12 87 36 12 31 25 15 14 -17z"/>
<path d="M3385 2758 c-71 -7 -173 -18 -210 -23 -11 -1 -27 -5 -35 -8 -8 -2
-44 -14 -80 -25 -36 -11 -76 -25 -90 -30 -14 -5 -29 -11 -35 -13 -5 -1 -19
-11 -29 -21 -11 -10 -24 -18 -29 -18 -5 0 -22 -11 -39 -25 -16 -14 -41 -28
-56 -32 -25 -6 -192 -162 -192 -180 0 -4 -11 -20 -24 -34 -82 -89 -106 -240
-38 -239 40 1 61 22 77 78 8 27 22 55 30 62 8 7 15 17 15 23 0 8 36 52 103
125 43 48 215 152 250 152 7 0 32 9 55 20 50 24 137 47 212 54 219 23 386 14
475 -24 28 -12 60 -22 73 -23 12 -1 26 -7 30 -13 4 -6 26 -23 49 -38 47 -29
153 -134 153 -152 0 -3 6 -20 14 -37 23 -53 76 -213 76 -230 0 -10 3 -17 8
-17 4 0 8 -12 9 -28 1 -15 7 -58 12 -97 10 -82 -12 -213 -54 -316 -14 -34 -25
-66 -25 -71 0 -12 -66 -112 -84 -127 -9 -7 -16 -19 -16 -25 -1 -6 -12 -20 -26
-31 -42 -33 -74 -69 -74 -83 0 -7 -4 -11 -9 -8 -5 4 -11 2 -13 -2 -3 -8 -61
-49 -109 -77 -9 -6 -34 -25 -55 -43 -20 -18 -47 -32 -59 -32 -11 0 -25 -4 -30
-8 -25 -22 -159 -72 -176 -67 -11 4 -19 2 -19 -4 0 -6 -8 -11 -18 -11 -10 0
-23 -5 -29 -11 -6 -6 -26 -9 -44 -7 l-34 3 65 67 c64 65 69 76 62 135 -3 23
-38 34 -70 20 -16 -6 -30 -15 -30 -20 -1 -4 -28 -29 -59 -56 -32 -26 -82 -75
-112 -108 -29 -34 -64 -67 -77 -73 -51 -28 -41 -82 22 -110 23 -11 46 -20 49
-20 3 0 27 -10 53 -21 26 -12 66 -24 90 -27 23 -2 45 -9 48 -13 3 -5 12 -9 20
-9 8 0 34 -9 57 -20 63 -31 104 -33 137 -8 24 18 28 26 23 52 -3 17 -10 32
-15 34 -4 2 -8 10 -8 18 0 13 -20 19 -44 15 -5 -1 -29 3 -52 10 -47 14 -50 39
-4 39 16 0 35 7 44 15 8 8 22 15 31 15 9 0 28 9 42 20 14 11 34 20 44 20 10 0
21 5 24 10 4 6 10 8 15 5 5 -3 16 2 25 11 9 9 27 16 40 17 13 0 26 5 29 13 3
7 39 29 80 49 42 20 76 43 76 51 0 12 14 19 23 12 5 -5 81 77 79 85 -1 4 2 7
7 7 5 0 30 28 55 63 25 34 50 67 55 73 5 6 12 20 15 32 4 12 11 22 15 22 16 0
71 129 99 235 27 100 30 287 6 355 -3 8 -7 33 -10 55 -6 52 -74 265 -85 265
-4 0 -15 21 -25 48 -10 26 -30 61 -44 77 -32 38 -134 140 -137 137 -2 -1 -28
9 -59 23 -31 14 -58 25 -61 25 -2 0 -28 11 -56 24 -92 41 -247 59 -392 44z"/>
</g>
</svg>
