<?xml version="1.0" standalone="no"?>
<!DOCTYPE svg PUBLIC "-//W3C//DTD SVG 20010904//EN"
 "http://www.w3.org/TR/2001/REC-SVG-20010904/DTD/svg10.dtd">
<svg version="1.0" xmlns="http://www.w3.org/2000/svg"
 width="527.000000pt" height="433.000000pt" viewBox="0 0 527.000000 433.000000"
 preserveAspectRatio="xMidYMid meet">
<metadata>
Created by potrace 1.16, written by Peter Selinger 2001-2019
</metadata>
<g transform="translate(0.000000,433.000000) scale(0.100000,-0.100000)"
fill="#000000" stroke="none">
<path d="M1490 4083 c-19 -2 -53 -8 -75 -13 -22 -6 -53 -12 -70 -15 -118 -18
-159 -32 -235 -76 -8 -5 -25 -13 -37 -19 -13 -5 -23 -14 -23 -19 0 -6 -6 -8
-14 -5 -8 3 -17 1 -20 -5 -4 -5 -31 -21 -61 -36 -30 -14 -78 -46 -105 -70 -28
-25 -63 -53 -77 -62 -15 -10 -36 -27 -48 -38 -11 -11 -36 -34 -55 -51 -53 -46
-152 -181 -189 -255 -35 -71 -67 -178 -83 -276 -6 -35 -13 -63 -17 -63 -4 0
-8 -32 -9 -71 -1 -39 -5 -75 -8 -80 -11 -19 -19 -175 -10 -224 1 -11 7 -42 11
-70 4 -27 14 -60 22 -72 14 -21 20 -42 22 -70 1 -8 13 -10 38 -6 21 3 39 6 39
7 1 1 -6 42 -16 91 -20 99 -21 264 -2 370 6 33 17 98 25 145 8 47 25 112 37
145 12 33 26 76 32 95 5 19 16 40 23 46 8 5 17 22 20 37 4 15 10 27 14 27 4 0
12 10 18 23 18 39 137 167 156 167 5 0 36 26 69 58 32 31 77 67 100 79 22 12
53 34 68 48 14 14 30 25 35 25 5 0 40 16 79 35 39 19 96 39 126 44 30 6 89 17
130 26 161 34 332 20 515 -40 22 -7 76 -24 120 -36 44 -13 82 -26 85 -30 3 -3
28 -18 55 -33 91 -49 135 -77 135 -87 0 -5 6 -9 13 -9 19 0 157 -136 157 -154
0 -7 64 -110 71 -116 7 -5 86 -208 96 -245 13 -48 10 -281 -4 -320 -8 -22 -21
-71 -28 -110 -36 -175 -38 -282 -6 -339 12 -21 20 -44 17 -51 -2 -7 4 -21 14
-30 11 -10 22 -27 26 -38 4 -12 13 -27 20 -35 32 -32 -2 -121 -40 -106 -10 4
-16 1 -16 -7 0 -7 -3 -10 -6 -6 -7 6 -90 -37 -114 -59 -15 -15 -32 -145 -19
-154 4 -3 1 -47 -6 -98 -11 -81 -17 -96 -41 -117 -32 -27 -82 -42 -177 -50
-38 -3 -87 -12 -111 -20 -36 -12 -48 -12 -90 0 -57 17 -96 19 -96 5 0 -5 -6
-10 -14 -10 -24 0 -26 -14 -7 -56 32 -71 87 -118 181 -154 47 -18 107 -42 134
-52 29 -12 58 -17 73 -13 14 3 33 3 43 0 15 -5 17 -11 10 -36 -5 -17 -14 -37
-21 -45 -7 -8 -9 -17 -6 -20 3 -4 -2 -15 -13 -26 -10 -11 -26 -40 -36 -66 -10
-26 -23 -52 -29 -58 -6 -6 -12 -33 -14 -60 -1 -27 -6 -50 -10 -52 -4 -1 -6
-13 -4 -25 3 -15 -5 -32 -26 -52 -17 -17 -31 -35 -31 -42 0 -12 -83 -75 -139
-106 -22 -12 -63 -20 -115 -24 -70 -4 -92 -1 -161 22 -44 14 -85 31 -91 36 -6
5 -19 7 -28 3 -9 -3 -16 -2 -16 4 0 6 -8 9 -17 8 -10 -2 -20 0 -23 4 -3 5 -18
10 -35 11 -26 4 -30 0 -36 -26 -8 -41 18 -83 60 -101 19 -8 36 -12 39 -10 2 3
17 -1 33 -9 15 -8 39 -15 53 -15 14 0 28 -5 32 -11 3 -6 15 -8 26 -6 11 3 21
0 24 -8 3 -8 17 -12 37 -9 18 2 57 5 87 8 105 9 151 18 165 32 7 8 19 14 25
14 10 0 39 20 104 70 85 66 137 158 144 253 3 38 9 57 17 57 7 0 12 8 10 18
-3 18 34 92 46 92 4 0 10 13 14 30 4 16 10 30 15 30 10 0 28 80 25 112 -1 13
-3 31 -4 40 0 10 -17 28 -37 42 -28 18 -46 23 -78 21 -46 -4 -128 16 -199 50
l-47 23 42 8 c24 4 50 9 58 10 8 2 34 5 56 7 23 2 46 7 50 9 5 3 23 5 39 4 17
0 49 9 73 22 23 13 47 20 52 17 6 -3 10 1 10 9 0 8 6 19 14 23 18 10 58 99 55
121 -2 9 0 31 4 47 4 17 10 64 12 105 3 41 8 83 11 92 5 17 73 44 104 41 8 -1
20 7 28 18 7 10 19 19 26 19 17 0 39 83 36 135 -2 42 -32 119 -55 142 -21 21
-48 123 -48 183 0 51 15 129 30 154 4 6 8 30 10 53 1 23 5 62 9 85 4 24 7 120
7 213 -1 179 1 169 -58 300 -24 56 -95 200 -108 220 -64 103 -68 108 -187 211
-30 26 -57 50 -60 54 -13 19 -198 101 -310 137 -278 90 -365 104 -540 86z
m-1035 -1504 c5 -19 2 -28 -9 -32 -13 -5 -16 1 -16 35 0 45 14 43 25 -3z"/>
<path d="M2259 2880 c-36 -6 -147 -68 -168 -94 -15 -18 -1 -50 28 -65 19 -10
61 -4 61 9 0 16 53 41 95 47 36 4 46 2 51 -12 4 -10 9 -13 13 -6 5 7 19 5 44
-8 21 -11 45 -18 55 -16 9 2 20 4 23 4 4 1 10 17 13 36 7 36 -6 75 -26 75 -6
0 -19 7 -27 15 -18 16 -107 24 -162 15z"/>
<path d="M1354 2762 c-65 -35 -98 -61 -114 -92 -7 -14 -16 -27 -20 -30 -15
-12 -39 -79 -50 -140 -12 -67 -8 -191 9 -249 7 -23 7 -40 0 -53 -7 -14 -7 -23
1 -33 7 -8 11 -47 11 -89 0 -41 4 -78 9 -81 6 -3 10 -20 10 -37 0 -50 20 -103
54 -141 29 -32 89 -71 101 -65 2 2 13 -4 24 -13 35 -30 57 -31 88 -5 15 14 22
26 15 26 -7 0 -11 4 -7 9 3 6 -1 13 -9 18 -8 4 -14 17 -13 28 1 12 -5 21 -18
23 -42 7 -107 44 -112 63 -3 10 -9 19 -13 19 -11 0 -29 132 -35 260 -3 63 -11
131 -16 151 -10 33 -9 92 4 166 9 49 35 91 88 145 52 52 86 61 123 33 34 -26
61 -19 73 19 12 40 9 47 -37 75 -49 29 -104 27 -166 -7z"/>
<path d="M2320 2659 c-14 -5 -34 -23 -43 -39 -10 -17 -23 -30 -28 -30 -6 0 -8
-4 -4 -9 3 -5 0 -13 -6 -17 -9 -5 -8 -10 2 -18 8 -6 19 -20 25 -31 9 -16 22
-20 58 -19 39 0 52 6 81 34 33 32 43 63 27 85 -10 15 -70 55 -79 54 -4 0 -19
-5 -33 -10z"/>
<path d="M3234 1597 c-14 -38 -9 -52 30 -82 23 -17 66 -39 96 -49 49 -16 130
-53 200 -92 14 -7 32 -14 41 -14 9 0 20 -7 23 -16 3 -8 10 -13 15 -10 4 3 34
-12 65 -34 31 -22 60 -40 65 -40 17 0 100 -62 106 -80 4 -11 12 -16 24 -13 11
3 37 -13 72 -44 30 -27 88 -76 129 -108 78 -61 342 -322 360 -355 15 -28 -20
-43 -104 -43 -61 0 -72 -3 -93 -25 -27 -29 -27 -24 -9 -67 9 -21 22 -35 33
-36 10 0 41 -13 68 -29 28 -16 61 -34 75 -40 14 -6 48 -26 75 -44 28 -19 60
-36 72 -40 12 -4 48 -26 80 -49 32 -23 71 -48 86 -55 15 -6 30 -19 33 -27 9
-23 58 -45 96 -45 27 1 39 8 66 45 17 24 32 50 32 57 0 14 61 81 135 150 59
54 80 79 77 89 -1 5 4 9 12 9 7 0 19 7 26 15 9 10 9 15 1 15 -6 0 -11 6 -11
13 0 32 -40 52 -103 52 -55 0 -62 2 -62 20 0 20 -70 94 -211 223 -86 78 -153
127 -272 200 -52 31 -117 71 -145 89 -29 17 -63 35 -77 38 -14 4 -32 12 -40
19 -22 19 -168 96 -181 96 -6 0 -25 6 -42 14 -18 7 -59 22 -92 32 -33 10 -62
21 -65 25 -3 3 -41 18 -85 34 -44 15 -84 31 -90 35 -30 23 -85 48 -117 54 -21
4 -43 12 -50 19 -7 7 -53 26 -103 41 -49 16 -100 35 -111 42 -12 7 -45 16 -73
20 -41 5 -52 4 -57 -9z"/>
<path d="M2763 1500 c-18 -4 -40 -13 -48 -20 -20 -16 -20 -70 0 -70 7 0 18 -6
22 -13 4 -7 38 -25 74 -40 37 -16 75 -36 85 -45 17 -15 61 -46 168 -118 18
-12 44 -37 58 -55 14 -19 43 -52 63 -74 104 -114 122 -135 150 -170 17 -21 35
-44 42 -51 7 -6 10 -14 7 -17 -3 -2 9 -18 25 -34 17 -17 38 -44 48 -60 10 -17
37 -61 60 -99 23 -37 40 -71 38 -75 -3 -3 -22 -7 -44 -7 -22 0 -47 -5 -58 -10
-10 -6 -36 -14 -58 -19 -34 -7 -40 -12 -43 -36 -3 -28 21 -79 36 -75 4 1 21
-6 39 -15 18 -9 39 -17 48 -17 8 0 15 -4 15 -10 0 -5 6 -10 13 -10 12 -1 26
-10 141 -98 66 -50 186 -168 186 -182 0 -9 20 -8 73 7 9 2 17 9 17 15 0 6 7
16 15 22 8 6 16 20 18 31 3 20 39 95 122 255 75 145 59 173 -98 165 l-94 -5
-35 42 c-19 24 -39 50 -44 60 -5 9 -23 31 -39 50 -17 18 -56 65 -87 104 -31
39 -64 78 -72 87 -9 9 -33 38 -53 64 -40 52 -66 78 -191 189 -134 117 -366
259 -482 293 -25 7 -54 21 -65 30 -15 13 -28 16 -52 11z"/>
</g>
</svg>
