<?xml version="1.0" standalone="no"?>
<!DOCTYPE svg PUBLIC "-//W3C//DTD SVG 20010904//EN"
 "http://www.w3.org/TR/2001/REC-SVG-20010904/DTD/svg10.dtd">
<svg version="1.0" xmlns="http://www.w3.org/2000/svg"
 width="447.000000pt" height="391.000000pt" viewBox="0 0 447.000000 391.000000"
 preserveAspectRatio="xMidYMid meet">
<metadata>
Created by potrace 1.16, written by Peter Selinger 2001-2019
</metadata>
<g transform="translate(0.000000,391.000000) scale(0.100000,-0.100000)"
fill="#000000" stroke="none">
<path d="M4186 3735 c-20 -14 -39 -25 -42 -25 -3 0 -20 -6 -37 -14 -18 -8 -52
-22 -77 -31 -25 -9 -62 -32 -84 -50 -21 -19 -46 -35 -55 -35 -21 0 -127 -63
-162 -96 -14 -13 -30 -24 -36 -24 -14 0 -76 -35 -120 -68 -18 -13 -37 -21 -43
-17 -16 10 -110 -60 -110 -82 0 -8 -12 -19 -27 -26 -16 -6 -34 -20 -42 -30 -7
-10 -23 -23 -35 -28 -20 -9 -39 -21 -102 -64 -16 -11 -45 -36 -64 -55 -19 -19
-62 -53 -94 -75 -57 -38 -75 -54 -195 -179 -30 -31 -60 -56 -65 -56 -20 0
-155 -123 -255 -232 -96 -105 -197 -229 -236 -291 -10 -18 -41 -55 -68 -84
-27 -29 -56 -62 -65 -75 -9 -13 -22 -27 -29 -31 -7 -4 -13 -14 -13 -21 0 -7
-8 -24 -19 -37 -10 -13 -16 -29 -14 -36 5 -15 -33 -68 -104 -143 -29 -30 -53
-59 -53 -64 0 -5 -7 -17 -15 -26 -8 -9 -16 -25 -18 -36 -1 -11 -12 -33 -23
-49 -12 -17 -25 -40 -28 -52 -4 -13 -13 -23 -19 -23 -12 0 -82 -88 -138 -173
l-26 -39 -32 66 c-17 36 -31 69 -31 72 0 10 -59 91 -92 128 -18 19 -42 47 -53
61 -28 36 -153 174 -191 210 -73 70 -124 115 -129 115 -3 0 -11 5 -18 10 -7 6
-32 24 -57 40 -25 16 -70 48 -100 70 -30 22 -63 40 -72 40 -10 0 -18 5 -18 10
0 6 -7 10 -15 10 -17 0 -93 38 -101 51 -8 14 -42 1 -75 -29 -43 -38 -39 -73
13 -114 53 -42 144 -133 233 -233 39 -43 81 -88 94 -99 13 -12 38 -45 57 -73
19 -29 37 -53 42 -53 4 0 24 -29 43 -65 18 -36 37 -65 42 -65 4 0 7 -6 7 -13
0 -8 8 -21 18 -31 11 -9 25 -35 33 -59 7 -23 16 -44 19 -47 7 -7 100 -194 100
-201 0 -4 18 -39 40 -78 21 -40 51 -101 65 -137 15 -36 34 -80 44 -97 23 -44
101 -287 101 -318 0 -10 5 -21 10 -24 6 -4 8 -10 6 -14 -3 -3 0 -27 5 -52 10
-45 21 -57 71 -73 24 -7 59 42 88 124 13 36 34 84 47 108 12 23 23 49 23 57 0
8 14 37 30 65 17 28 30 53 30 57 0 3 15 44 34 92 19 47 51 129 71 181 20 52
45 113 55 135 9 22 28 65 41 95 13 30 45 95 72 143 27 49 57 113 67 143 11 30
42 101 69 157 27 56 56 118 64 137 34 81 77 167 101 203 14 21 26 40 26 43 0
3 18 26 40 51 22 25 40 52 40 59 0 7 3 14 8 16 4 2 29 30 56 63 53 64 107 126
190 215 28 31 63 70 78 87 14 17 30 32 35 34 5 2 24 24 43 48 64 80 266 277
358 349 116 90 190 151 246 205 33 31 64 57 69 57 5 0 34 23 65 51 32 28 66
55 77 60 28 14 55 30 92 57 17 12 34 22 37 22 3 0 56 32 117 70 62 39 123 70
136 70 12 0 24 6 25 13 3 25 4 32 12 56 7 19 3 28 -15 42 -30 24 -29 24 -73
-6z"/>
</g>
</svg>
