<?xml version="1.0" standalone="no"?>
<!DOCTYPE svg PUBLIC "-//W3C//DTD SVG 20010904//EN"
 "http://www.w3.org/TR/2001/REC-SVG-20010904/DTD/svg10.dtd">
<svg version="1.0" xmlns="http://www.w3.org/2000/svg"
 width="443.000000pt" height="473.000000pt" viewBox="0 0 443.000000 473.000000"
 preserveAspectRatio="xMidYMid meet">
<metadata>
Created by potrace 1.16, written by Peter Selinger 2001-2019
</metadata>
<g transform="translate(0.000000,473.000000) scale(0.100000,-0.100000)"
fill="#000000" stroke="none">
<path d="M2635 4621 c-52 -21 -84 -28 -96 -20 -26 16 -134 -26 -284 -111 -46
-25 -161 -141 -170 -170 -4 -11 -10 -20 -14 -20 -8 0 -34 -50 -66 -128 l-18
-42 -49 3 c-43 4 -52 1 -81 -27 -43 -41 -57 -90 -61 -206 -3 -85 2 -130 31
-246 6 -28 60 -84 101 -106 22 -12 32 -24 32 -41 0 -13 12 -52 26 -88 31 -75
45 -112 46 -119 1 -3 16 -33 34 -67 28 -50 31 -63 20 -72 -14 -12 -27 -71 -16
-71 4 0 7 -6 8 -12 0 -7 7 -40 14 -73 8 -33 12 -70 10 -82 -3 -24 -75 -73
-104 -73 -9 0 -18 -7 -22 -15 -3 -8 -10 -15 -15 -15 -5 0 -22 -5 -38 -11 -15
-6 -30 -10 -32 -9 -2 1 -7 -2 -10 -7 -6 -10 -91 -38 -103 -35 -5 1 -8 -3 -8
-8 0 -6 -8 -5 -20 2 -16 10 -22 10 -33 -6 -9 -13 -22 -16 -44 -13 -22 3 -33 1
-37 -9 -3 -8 -16 -14 -30 -14 -14 0 -28 -5 -31 -10 -4 -6 -11 -8 -16 -5 -5 4
-9 2 -9 -3 0 -5 -19 -15 -42 -21 -41 -13 -139 -61 -163 -81 -7 -6 -24 -11 -39
-12 -14 -1 -26 -6 -26 -10 0 -4 -6 -8 -14 -8 -7 0 -16 -9 -19 -21 -8 -31 -27
-13 -27 25 0 17 -5 37 -10 42 -15 15 -21 76 -10 94 5 8 10 12 10 7 0 -10 56
19 96 50 18 13 50 52 73 86 22 34 45 68 51 74 6 7 9 14 8 15 -1 2 6 23 17 48
17 42 25 77 27 125 2 36 -6 110 -12 115 -4 3 -17 37 -29 77 -27 83 -51 114
-83 108 -83 -16 -146 -86 -134 -149 8 -41 -25 -126 -49 -126 -9 0 -14 -4 -11
-9 7 -10 -37 -41 -58 -41 -8 0 -16 -5 -18 -11 -7 -22 -67 1 -83 31 -8 15 -19
30 -24 32 -15 5 -20 77 -7 91 7 7 18 21 24 32 10 19 21 26 127 76 100 47 122
74 129 154 5 65 -30 122 -89 146 -34 14 -137 20 -145 9 -3 -4 -16 -10 -30 -11
-14 -2 -31 -10 -38 -16 -7 -7 -22 -13 -33 -13 -11 0 -22 -7 -25 -15 -4 -8 -11
-15 -18 -15 -16 0 -66 -48 -66 -63 0 -7 -13 -20 -29 -30 l-29 -17 -62 128
c-33 70 -65 134 -71 142 -5 8 -27 47 -48 85 -22 39 -64 96 -93 128 -47 50 -59
58 -97 61 -38 3 -46 0 -74 -32 -18 -19 -37 -40 -43 -46 -6 -6 -14 -28 -18 -47
-4 -21 -12 -36 -20 -36 -21 0 -85 -56 -81 -70 2 -7 -3 -17 -12 -22 -12 -6 -18
-27 -21 -76 -4 -64 -1 -78 34 -146 10 -19 10 -35 2 -65 -13 -52 -13 -82 5
-199 7 -41 40 -131 56 -150 10 -11 33 -45 52 -75 18 -30 51 -74 72 -97 22 -23
46 -54 53 -68 8 -14 21 -37 29 -52 8 -16 15 -34 15 -42 0 -16 16 -71 33 -111
5 -14 11 -33 12 -43 1 -11 7 -22 12 -25 6 -4 17 -23 25 -42 8 -19 33 -51 54
-70 21 -19 38 -37 37 -42 -2 -4 8 -15 22 -24 31 -20 52 -89 61 -194 11 -126 8
-341 -4 -364 -3 -5 -6 -45 -8 -90 -2 -44 -6 -112 -8 -151 -3 -38 -7 -109 -9
-156 -2 -48 -8 -92 -12 -100 -5 -7 -10 -35 -12 -63 -6 -85 -23 -190 -33 -200
-29 -29 8 -76 57 -76 53 0 63 8 63 54 0 23 5 47 12 54 9 9 9 12 0 12 -16 0 -5
194 17 275 5 22 10 67 9 100 -2 51 8 220 18 320 9 80 10 336 3 380 -5 28 -10
66 -12 85 -2 19 -9 51 -15 70 -7 19 -17 53 -22 75 -11 43 -43 85 -79 104 -12
7 -19 16 -17 20 3 4 -6 14 -19 21 -16 9 -30 29 -37 54 -7 23 -18 50 -25 62
-12 18 -26 74 -38 146 -13 86 -32 119 -72 132 -12 4 -36 24 -53 44 -43 51 -44
53 -65 92 -11 19 -27 44 -36 55 -18 21 -54 134 -45 142 2 3 10 -6 17 -19 10
-20 48 -67 139 -176 11 -13 20 -29 20 -36 0 -40 93 -74 118 -43 14 18 8 58
-11 69 -9 5 -17 15 -17 23 0 8 -6 18 -13 22 -7 4 -28 30 -46 56 -18 27 -39 51
-47 54 -8 3 -14 13 -14 24 0 10 -6 22 -13 26 -32 21 -155 246 -161 295 -5 50
7 90 32 99 18 7 22 5 22 -10 0 -10 10 -33 23 -52 12 -19 31 -54 41 -79 11 -25
27 -54 37 -65 9 -11 23 -32 30 -48 8 -15 38 -76 67 -135 75 -152 77 -156 108
-164 31 -8 40 -5 53 21 7 12 6 26 -2 42 -7 13 -19 40 -27 59 -8 19 -21 43 -30
53 -8 10 -14 21 -14 25 1 4 -8 20 -19 37 -12 16 -43 70 -68 120 -26 49 -66
126 -88 169 -44 82 -52 137 -27 179 11 17 46 24 46 9 0 -4 17 -26 38 -48 40
-41 99 -134 85 -134 -4 0 -3 -4 2 -8 19 -13 55 -70 55 -86 0 -9 13 -37 29 -63
16 -27 36 -70 45 -96 28 -85 65 -147 86 -147 23 0 89 30 91 42 3 19 6 25 24
53 54 82 132 137 210 149 32 5 45 2 67 -16 20 -16 26 -29 22 -43 -6 -23 -64
-59 -112 -70 -17 -3 -32 -10 -32 -15 0 -5 -10 -12 -21 -15 -22 -7 -68 -53 -69
-69 0 -4 -11 -17 -24 -27 -14 -11 -26 -35 -31 -61 -11 -54 -12 -109 -3 -114 3
-2 4 -14 0 -26 -4 -16 -2 -20 10 -15 10 3 19 -3 27 -19 6 -13 22 -29 36 -36
14 -6 25 -17 25 -25 0 -7 6 -13 14 -13 7 0 25 -9 38 -20 14 -10 28 -16 32 -13
4 4 19 9 34 11 14 2 33 9 41 15 12 10 13 9 7 -1 -18 -29 50 18 100 70 67 69
94 124 94 188 0 62 25 71 36 13 4 -21 11 -43 16 -50 11 -14 13 -89 3 -135 -13
-59 -68 -159 -106 -192 -21 -17 -60 -40 -88 -50 -28 -10 -51 -22 -51 -26 0 -5
-9 -11 -19 -15 -12 -4 -21 -19 -26 -43 -4 -20 -11 -42 -16 -48 -6 -8 -2 -13
12 -17 19 -5 20 -8 9 -21 -10 -13 -10 -16 2 -16 7 0 18 -18 25 -42 6 -24 20
-68 30 -98 20 -57 34 -130 56 -291 27 -196 6 -666 -38 -882 -12 -57 -14 -81
-5 -96 12 -24 18 -25 54 -11 19 7 26 17 26 35 0 14 -6 25 -12 25 -10 0 -10 2
-1 8 6 4 13 25 15 47 2 22 6 42 10 45 4 3 12 51 18 105 5 55 13 120 16 145 3
25 7 103 9 173 3 70 6 131 8 135 7 12 -12 362 -20 375 -3 5 -7 23 -9 40 -3 18
-9 51 -16 75 -6 23 -7 46 -3 50 4 4 10 1 12 -5 8 -23 55 -14 102 20 51 37 162
92 201 99 8 2 21 9 28 16 7 6 23 13 35 14 12 0 27 2 32 3 64 12 92 20 103 32
7 7 22 14 33 14 23 2 27 3 62 17 16 7 33 12 38 12 5 0 29 10 52 22 23 12 50
23 60 25 11 2 28 10 40 18 12 8 25 15 28 15 10 0 1 -58 -16 -102 -14 -37 -14
-37 17 -59 30 -22 31 -22 66 -3 36 20 109 27 118 12 9 -14 215 -9 284 8 36 9
72 17 80 18 22 3 94 28 105 36 24 18 132 49 153 44 25 -7 50 10 62 42 25 64
267 47 443 -31 32 -14 66 -25 77 -25 10 0 24 -8 29 -17 6 -10 11 -14 11 -9 0
5 11 -3 25 -18 20 -21 23 -31 15 -46 -5 -10 -10 -35 -10 -55 l0 -37 -27 17
c-16 10 -35 24 -43 31 -70 61 -77 65 -160 106 -55 26 -77 31 -160 34 -52 2
-102 4 -110 6 -24 3 -80 -14 -80 -23 0 -5 -6 -9 -14 -9 -8 0 -17 -7 -20 -16
-8 -22 -7 -64 2 -64 7 0 12 -8 45 -75 8 -16 28 -45 45 -63 16 -19 44 -58 63
-87 19 -30 42 -57 52 -60 9 -4 17 -11 17 -16 0 -14 45 -52 112 -95 51 -33 85
-75 79 -98 -1 -4 2 -13 7 -20 8 -9 10 -91 3 -91 -4 0 -12 -65 -15 -120 -2 -27
-11 -76 -20 -108 -9 -32 -16 -67 -16 -78 0 -17 -49 -178 -67 -219 -3 -8 -7
-17 -8 -20 -11 -41 -42 -110 -48 -110 -4 0 -6 -4 -2 -9 3 -5 1 -12 -5 -16 -5
-3 -10 -14 -10 -23 0 -9 -10 -36 -23 -58 -12 -23 -34 -65 -50 -93 -15 -28 -31
-51 -35 -51 -13 0 -31 -67 -25 -91 8 -31 51 -44 75 -22 34 31 97 133 104 169
3 19 11 37 16 40 11 7 32 55 29 67 -1 4 5 18 14 30 8 12 15 27 15 34 0 8 11
31 25 53 14 22 25 46 25 54 0 8 5 27 12 43 6 15 13 37 15 47 2 11 8 25 14 33
6 7 9 13 7 13 -6 0 3 44 22 120 20 77 21 84 25 120 4 34 12 75 15 75 14 0 18
254 4 263 -6 4 -16 22 -22 40 -12 34 -72 102 -90 102 -10 0 -162 142 -162 152
0 3 -20 28 -45 54 -42 46 -79 103 -72 111 2 1 36 4 76 4 63 1 80 -3 137 -32
37 -19 82 -47 102 -64 87 -74 101 -93 117 -155 9 -33 13 -65 10 -70 -3 -5 -1
-11 5 -15 6 -4 8 -10 5 -15 -3 -5 -1 -11 5 -15 5 -3 10 -16 10 -29 0 -24 28
-56 48 -56 7 0 12 -6 12 -14 0 -21 79 -9 107 16 l22 20 23 -25 c33 -37 97 -67
140 -67 31 0 40 -5 52 -29 10 -18 26 -31 43 -34 15 -3 39 -8 53 -12 52 -14 96
-16 138 -7 39 9 43 8 37 -6 -4 -10 -16 -42 -26 -71 -11 -30 -27 -66 -36 -80
-10 -15 -16 -29 -15 -33 1 -5 -2 -8 -8 -8 -5 0 -10 -5 -10 -11 0 -16 -99 -109
-116 -109 -8 0 -14 -4 -14 -10 0 -5 -6 -10 -13 -10 -8 0 -32 -18 -55 -40 -22
-22 -44 -40 -49 -40 -15 0 -59 -93 -74 -157 -6 -26 -17 -59 -24 -73 -6 -14
-11 -44 -10 -68 0 -23 -3 -42 -7 -42 -4 0 -8 -18 -8 -41 0 -58 -31 -191 -86
-374 -10 -33 -18 -64 -19 -70 -5 -57 -65 -270 -96 -342 -11 -24 -19 -47 -19
-52 0 -6 -10 -26 -22 -46 -11 -20 -24 -55 -28 -76 -7 -35 -5 -42 16 -55 51
-34 87 -9 113 81 7 22 16 49 20 60 29 71 81 249 86 295 4 30 18 86 33 125 14
38 26 81 28 95 2 27 50 216 58 229 3 4 14 70 25 147 12 76 28 159 37 184 25
71 56 120 76 120 10 0 18 5 18 10 0 6 6 10 14 10 24 0 190 155 206 193 6 12
14 29 19 37 10 17 44 91 47 103 1 4 2 8 4 10 1 1 3 11 4 22 2 11 15 50 29 87
14 36 23 69 20 72 -4 3 3 16 15 29 21 23 53 87 59 121 2 10 11 34 20 53 23 49
5 103 -56 162 -45 44 -60 67 -67 101 -4 22 -30 37 -74 44 -21 3 -45 14 -52 25
-18 24 -70 50 -105 51 -15 1 -56 -2 -89 -6 -63 -7 -78 0 -79 36 0 9 -10 29
-23 45 -19 25 -31 29 -80 33 -53 4 -82 -3 -144 -36 -5 -2 -8 6 -8 17 0 13 -9
25 -24 31 -13 5 -27 14 -31 20 -3 5 -11 8 -16 4 -5 -3 -26 0 -47 7 -20 7 -39
13 -42 14 -3 0 -10 4 -17 8 -6 4 -70 22 -142 41 -114 29 -146 33 -242 32 -102
-1 -112 0 -118 18 -7 18 7 97 24 139 4 9 2 23 -4 30 -8 10 -4 19 19 35 16 12
33 22 38 22 18 0 82 86 82 110 0 11 28 47 73 93 15 16 27 34 27 41 0 8 18 16
46 20 50 6 104 39 104 62 0 8 4 14 9 14 5 0 14 15 21 33 8 17 19 39 26 47 7 8
27 60 44 115 18 55 34 107 37 115 11 29 13 139 4 145 -6 3 -8 12 -4 20 3 8 0
15 -6 15 -6 0 -11 6 -11 14 0 28 -79 37 -100 11 -23 -27 -30 -16 -30 48 0 85
-42 228 -86 293 -19 28 -34 54 -34 58 0 5 -11 17 -25 28 -14 11 -25 25 -25 31
0 7 -16 21 -35 31 -19 11 -35 22 -35 26 0 5 -17 15 -37 24 -21 9 -51 25 -68
35 -16 10 -33 17 -37 14 -4 -2 -21 3 -38 12 -34 17 -261 30 -295 16z m315
-152 c52 -19 101 -45 117 -61 15 -16 34 -34 42 -41 41 -37 80 -80 79 -86 -1
-3 6 -24 16 -46 9 -22 22 -62 27 -90 10 -51 12 -216 3 -270 -3 -16 -9 -57 -14
-90 -4 -33 -18 -91 -31 -130 -12 -38 -24 -79 -26 -90 -2 -10 -10 -29 -18 -42
-8 -12 -15 -31 -15 -41 0 -11 -8 -30 -19 -43 -10 -13 -20 -28 -22 -34 -12 -30
-101 -155 -108 -151 -5 3 -13 -6 -19 -19 -7 -14 -18 -25 -27 -25 -8 0 -15 -4
-15 -8 0 -4 -15 -16 -32 -26 -18 -11 -54 -37 -80 -58 -32 -27 -59 -40 -85 -43
-21 -2 -50 -8 -66 -14 -66 -25 -271 21 -357 81 -90 63 -138 128 -181 251 -7
20 -16 37 -20 37 -4 0 -10 19 -14 43 -4 23 -11 50 -16 59 -19 36 -39 178 -36
249 9 165 38 311 79 394 54 109 107 174 166 205 21 11 47 28 58 39 11 10 50
30 86 45 53 21 72 24 93 16 31 -12 105 -7 114 8 9 14 43 18 144 16 73 -1 104
-7 177 -35z m-986 -454 c-1 -11 -7 -67 -15 -125 -7 -58 -13 -124 -13 -148 0
-54 -15 -41 -28 25 -10 53 -11 211 -2 249 5 20 12 24 33 22 19 -2 26 -8 25
-23z m1441 -166 c-3 -27 -10 -60 -17 -72 -7 -12 -14 -33 -16 -47 -2 -13 -6
-27 -10 -30 -4 -3 -9 -14 -10 -25 -2 -11 -8 -23 -14 -26 -5 -3 -11 -12 -12
-20 -5 -25 -20 -54 -36 -72 -16 -16 -16 -15 -10 25 4 24 14 62 23 85 9 23 18
72 21 110 5 59 10 72 36 96 43 38 50 35 45 -24z m-1149 -825 c7 -6 34 -16 61
-23 26 -7 56 -17 65 -22 10 -5 25 -9 33 -9 8 0 15 -3 15 -7 0 -5 18 -9 40 -11
22 -1 50 -6 62 -11 40 -15 200 0 227 21 17 14 76 48 83 48 3 0 4 -35 4 -77 -1
-80 -11 -102 -46 -103 -8 0 -21 -9 -27 -20 -7 -10 -32 -24 -55 -30 -24 -6 -52
-15 -63 -19 -17 -7 -57 -18 -120 -34 -5 -1 -14 -5 -20 -8 -23 -12 -320 3 -334
17 -2 2 1 22 8 44 7 23 12 94 12 160 1 119 1 119 22 107 12 -7 27 -17 33 -23z
m1539 -373 c9 -29 3 -84 -12 -106 -7 -11 -13 -34 -13 -52 0 -18 -9 -47 -19
-65 -11 -17 -18 -35 -15 -40 3 -4 0 -8 -5 -8 -6 0 -11 -6 -11 -13 0 -19 -64
-116 -76 -117 -14 0 -43 42 -47 67 -1 10 -6 24 -11 31 -5 8 -10 34 -11 59 -2
24 -5 47 -8 50 -3 3 5 16 19 29 13 14 27 37 30 52 9 35 52 91 87 112 38 23 85
24 92 1z m269 -96 c16 -12 18 -22 12 -72 -8 -70 -74 -209 -112 -238 -15 -11
-34 -27 -42 -35 -8 -8 -30 -15 -48 -15 -27 -1 -36 4 -50 31 -17 31 -17 34 6
90 13 33 30 70 37 84 7 14 13 35 13 47 0 36 11 53 36 53 15 0 29 10 40 30 25
40 73 52 108 25z m136 -75 c21 -11 21 -20 1 -69 -11 -25 -12 -38 -3 -52 12
-19 -2 -79 -19 -79 -4 0 -13 -17 -20 -37 -7 -26 -27 -50 -60 -76 -72 -57 -103
-35 -43 30 13 14 26 35 29 47 4 11 18 42 31 68 14 27 22 52 19 58 -3 5 -2 10
4 10 6 0 13 17 16 38 13 77 15 78 45 62z m130 -171 c0 -10 -4 -20 -9 -23 -5
-3 -13 -25 -19 -49 -12 -47 -77 -137 -98 -137 -8 0 -14 9 -14 20 0 11 5 20 10
20 6 0 10 7 10 15 0 8 4 15 8 15 10 0 37 50 34 63 -1 4 2 7 6 7 5 0 17 25 27
55 15 42 22 52 32 43 7 -6 13 -19 13 -29z"/>
<path d="M2319 4135 c-3 -2 -14 -6 -25 -8 -43 -9 -54 -19 -54 -52 0 -42 18
-56 72 -55 24 0 52 1 63 1 37 0 88 -12 122 -31 18 -10 43 -16 53 -13 29 8 41
61 22 95 -9 15 -18 26 -21 26 -18 -3 -99 27 -94 35 3 5 -4 6 -18 1 -25 -8 -72
-7 -100 1 -8 3 -18 3 -20 0z"/>
<path d="M2824 4072 c-46 -3 -67 -31 -53 -68 12 -33 28 -39 104 -40 39 -1 89
-5 113 -9 35 -6 45 -5 56 10 14 19 14 34 1 71 -12 36 -76 47 -221 36z"/>
<path d="M2302 3918 c-15 -15 -15 -58 1 -79 7 -9 35 -20 65 -24 43 -6 57 -4
72 10 10 9 16 23 13 31 -3 8 1 14 8 14 24 0 -28 38 -67 49 -51 14 -77 14 -92
-1z"/>
<path d="M2877 3905 c-54 -8 -72 -15 -87 -35 -10 -13 -16 -27 -12 -30 4 -3 12
-14 18 -25 10 -17 21 -20 69 -18 31 1 72 7 91 13 31 10 34 15 34 49 0 51 -23
60 -113 46z"/>
<path d="M2443 3665 c-12 -9 -20 -26 -20 -42 0 -47 53 -83 130 -87 26 -1 47 1
47 6 0 4 10 3 21 -4 17 -10 23 -10 26 0 3 6 11 12 18 12 20 0 24 21 11 60 -11
34 -13 35 -56 32 -89 -5 -102 -5 -109 5 -15 24 -48 32 -68 18z"/>
<path d="M2288 3431 c-29 -29 -23 -76 14 -110 18 -17 45 -36 60 -42 16 -6 28
-15 28 -20 0 -5 9 -9 19 -9 11 0 22 -4 26 -10 3 -5 11 -7 18 -5 7 3 50 7 97 9
47 3 119 12 160 21 41 9 86 17 100 18 49 4 43 97 -8 115 -20 7 -31 6 -40 -4
-7 -7 -19 -11 -27 -8 -8 4 -15 2 -15 -3 0 -27 -269 -49 -278 -23 -2 6 -13 10
-24 10 -12 0 -19 2 -16 5 9 9 -51 65 -75 70 -13 2 -29 -3 -39 -14z"/>
</g>
</svg>
