<?xml version="1.0" standalone="no"?>
<!DOCTYPE svg PUBLIC "-//W3C//DTD SVG 20010904//EN"
 "http://www.w3.org/TR/2001/REC-SVG-20010904/DTD/svg10.dtd">
<svg version="1.0" xmlns="http://www.w3.org/2000/svg"
 width="519.000000pt" height="427.000000pt" viewBox="0 0 519.000000 427.000000"
 preserveAspectRatio="xMidYMid meet">
<metadata>
Created by potrace 1.16, written by Peter Selinger 2001-2019
</metadata>
<g transform="translate(0.000000,427.000000) scale(0.100000,-0.100000)"
fill="#000000" stroke="none">
<path d="M4252 4023 c-12 -2 -20 -8 -17 -12 2 -5 -8 -11 -23 -14 -16 -3 -50
-24 -77 -46 -28 -23 -58 -41 -67 -41 -22 0 -78 -48 -78 -67 0 -7 -6 -13 -14
-13 -19 0 -64 -72 -75 -120 -5 -23 -16 -49 -24 -58 -49 -57 -72 -308 -33 -370
4 -7 6 -16 3 -18 -8 -9 37 -139 53 -154 3 -3 22 -27 42 -55 20 -27 51 -64 70
-81 33 -31 108 -66 130 -61 15 3 41 -101 32 -132 -4 -14 -8 -30 -8 -36 -1 -11
-199 -12 -256 0 -29 5 -42 2 -77 -24 -24 -17 -43 -38 -43 -46 0 -8 -5 -15 -12
-15 -6 0 -9 -2 -6 -6 3 -3 -21 -58 -54 -122 -90 -176 -100 -193 -135 -226 -30
-29 -32 -37 -38 -121 -11 -152 -14 -178 -25 -235 -6 -30 -11 -62 -12 -70 0 -8
-5 -20 -9 -26 -5 -6 -14 -46 -20 -89 -6 -44 -18 -100 -26 -125 -9 -25 -17 -52
-18 -61 0 -8 -7 -30 -14 -47 -11 -26 -11 -38 -1 -62 21 -51 85 -52 96 -2 3 15
8 34 11 42 4 8 5 20 4 26 -1 7 10 56 24 110 14 55 25 108 25 118 0 11 4 33 9
50 10 31 35 177 47 271 9 69 43 177 54 170 4 -3 14 12 20 32 7 21 23 55 36 75
13 21 24 42 24 47 0 5 4 12 8 15 4 2 6 -50 4 -117 -6 -163 -4 -495 4 -532 20
-108 21 -108 -55 -267 -23 -47 -41 -90 -41 -96 0 -31 -85 -255 -99 -260 -25
-8 -13 -54 75 -287 12 -33 29 -91 37 -130 9 -38 20 -83 25 -100 6 -16 15 -50
22 -75 9 -38 37 -136 57 -203 5 -16 1 -18 -33 -14 -22 3 -52 10 -67 16 -40 16
-71 14 -106 -7 -24 -13 -31 -24 -31 -49 0 -39 43 -78 75 -68 43 13 88 15 101
4 8 -6 40 -12 71 -13 32 0 61 -5 65 -10 4 -6 16 -5 32 2 32 14 44 70 23 103
-22 35 -68 177 -74 231 -3 27 -9 48 -14 48 -4 0 -11 17 -15 38 -4 20 -9 42
-13 47 -3 6 -6 17 -8 25 -7 46 -45 182 -54 196 -8 10 -29 80 -51 169 -11 45
-6 68 47 210 18 50 41 119 51 155 10 36 30 83 45 105 14 22 29 53 33 70 13 53
20 55 145 56 208 1 232 0 246 -10 5 -5 17 -9 25 -9 8 -1 35 -4 60 -7 25 -4 64
-9 88 -12 37 -4 42 -8 42 -30 0 -13 -4 -32 -9 -41 -5 -9 -12 -39 -15 -67 -3
-27 -10 -68 -16 -90 -5 -22 -16 -74 -26 -115 -9 -41 -22 -82 -29 -90 -7 -8
-10 -21 -8 -27 3 -7 0 -13 -6 -13 -14 0 -14 -24 -1 -48 42 -78 107 -230 120
-282 14 -56 68 -211 78 -223 6 -7 16 -32 23 -57 7 -25 17 -50 22 -57 5 -7 6
-17 2 -23 -3 -5 -1 -10 4 -10 6 0 11 -9 11 -20 0 -11 5 -20 10 -20 6 0 10 -9
10 -19 0 -22 -28 -31 -82 -25 -29 2 -45 -3 -68 -23 -27 -22 -31 -31 -26 -62 3
-20 5 -36 6 -37 3 -5 98 -2 129 5 22 5 41 6 41 2 0 -4 7 -8 15 -8 8 0 15 4 15
9 0 8 32 5 61 -6 19 -8 47 21 52 54 2 14 -4 38 -14 55 -11 16 -19 39 -19 49 0
11 -11 42 -24 71 -27 57 -55 128 -63 163 -3 12 -9 22 -13 22 -4 0 -20 39 -35
88 -49 161 -77 237 -107 291 -16 30 -30 69 -31 85 -1 27 24 149 41 196 8 22 9
29 21 95 6 33 18 89 26 125 31 127 33 147 29 295 -7 312 -7 393 0 508 l8 118
23 -43 c12 -24 40 -83 61 -133 21 -49 51 -112 66 -138 16 -27 34 -69 40 -93 7
-24 15 -44 19 -44 6 0 11 -110 9 -195 -1 -64 -9 -199 -15 -255 -3 -36 -5 -83
-4 -105 1 -22 1 -48 1 -57 -3 -88 -2 -109 7 -127 15 -27 56 -37 87 -21 l24 13
-5 188 c-3 103 -2 190 3 193 4 2 6 98 5 213 -3 242 -3 256 -10 249 -6 -5 -43
37 -43 48 0 4 -18 39 -41 79 -22 40 -40 73 -40 75 1 1 -6 19 -15 40 -8 20 -24
59 -35 86 -11 26 -35 78 -54 114 -19 36 -35 73 -35 84 0 13 -9 20 -30 25 -20
4 -30 11 -30 24 0 34 -35 47 -123 44 -45 -1 -86 1 -92 4 -5 3 -29 6 -53 8 -24
1 -50 7 -56 12 -17 14 -19 141 -3 145 7 2 36 9 65 16 30 7 72 23 96 36 54 30
160 130 151 144 -3 5 -2 10 2 10 14 0 69 110 98 194 29 86 33 102 40 156 3 19
8 49 12 65 12 58 -5 172 -43 284 -22 65 -32 79 -67 97 -18 9 -43 27 -55 40
-22 21 -117 61 -134 56 -5 -1 -8 3 -8 10 0 6 -3 8 -7 5 -3 -4 -11 -2 -18 3 -7
6 -23 6 -43 1 -18 -5 -34 -6 -36 -2 -5 8 -51 10 -84 4z m200 -130 c15 -7 31
-14 35 -15 5 -1 28 -16 53 -33 51 -36 79 -79 91 -138 5 -23 12 -53 15 -67 15
-49 4 -128 -31 -245 -20 -66 -40 -124 -45 -130 -4 -5 -16 -30 -26 -55 -10 -25
-23 -51 -29 -58 -80 -98 -134 -124 -270 -128 -79 -2 -105 0 -125 13 -33 21
-110 103 -110 116 0 6 -9 20 -19 31 -47 51 -81 279 -51 336 7 12 9 35 6 51 -3
16 -2 29 2 29 5 0 22 29 40 64 30 61 55 92 118 147 38 33 124 92 124 84 0 -3
8 -1 18 5 24 14 171 10 204 -7z m59 -1270 c11 -11 13 -278 2 -296 -6 -10 -5
-324 2 -472 1 -38 1 -81 -2 -94 -6 -22 -9 -23 -62 -17 -31 4 -73 9 -94 11 -20
3 -46 9 -57 15 -11 6 -25 8 -30 5 -5 -3 -11 -1 -14 4 -3 5 -36 7 -73 4 -38 -2
-77 -4 -88 -4 -11 1 -62 1 -112 1 l-93 0 -1 27 c0 16 -2 37 -5 48 -8 38 -2
424 8 503 1 12 6 22 10 22 4 0 4 10 -1 23 -5 12 -7 47 -6 77 1 30 3 69 4 85 2
54 12 60 113 66 148 9 487 4 499 -8z"/>
<path d="M920 3810 c-90 -16 -151 -56 -203 -135 -14 -22 -29 -53 -33 -70 -4
-16 -10 -34 -14 -40 -18 -24 -30 -128 -29 -249 1 -136 8 -193 38 -286 10 -30
24 -75 32 -100 7 -25 16 -47 19 -50 3 -3 24 -36 45 -75 74 -135 121 -185 216
-232 57 -28 70 -30 144 -27 l82 3 11 -35 c9 -30 8 -36 -8 -44 -10 -6 -24 -10
-30 -10 -7 0 -24 -8 -38 -18 -28 -19 -76 -36 -128 -47 -26 -5 -36 -15 -57 -62
-15 -34 -23 -63 -18 -72 8 -17 7 -77 -4 -211 -3 -47 -8 -121 -10 -165 -3 -44
-9 -101 -15 -126 -6 -25 -10 -50 -9 -55 3 -19 -1 -34 -10 -34 -6 0 -29 -13
-53 -29 -24 -15 -70 -43 -103 -61 -100 -54 -148 -83 -190 -112 -22 -16 -75
-51 -117 -79 -72 -47 -78 -54 -78 -85 0 -24 5 -34 15 -34 9 0 18 -6 20 -12 5
-13 80 -16 92 -5 2 3 12 20 21 38 10 18 35 41 61 55 24 13 56 34 70 47 14 13
37 29 51 35 14 7 57 30 95 51 39 22 88 50 110 62 22 12 48 28 58 37 9 8 27 16
39 17 30 2 36 27 38 155 1 58 5 125 8 149 7 44 7 43 31 -60 21 -93 99 -299
122 -323 5 -6 9 -19 9 -30 0 -10 15 -47 34 -81 34 -60 35 -62 17 -88 -18 -28
-101 -120 -200 -222 -71 -74 -77 -98 -52 -213 11 -48 22 -107 26 -132 3 -25
10 -61 15 -80 23 -88 40 -168 40 -188 0 -12 11 -65 25 -119 39 -154 49 -142
-110 -140 -74 1 -135 -1 -135 -5 0 -5 -7 -8 -15 -8 -19 0 -44 -55 -37 -82 7
-29 32 -37 102 -30 55 5 181 6 294 2 49 -2 54 11 42 125 -2 28 -11 79 -20 115
-8 36 -17 77 -20 92 -2 15 -7 31 -10 36 -3 5 -10 37 -16 73 -14 79 -13 75 -34
124 -9 22 -15 47 -13 57 3 9 0 38 -5 65 -33 162 -34 167 -20 195 7 15 25 37
40 50 15 13 38 40 51 61 12 20 29 37 37 37 9 0 12 5 9 10 -3 6 -1 10 4 10 6 0
11 5 11 11 0 10 100 107 126 122 8 4 14 17 14 27 0 13 9 22 28 26 15 3 46 12
68 20 50 18 77 24 126 29 21 1 49 12 64 24 15 12 34 21 44 21 9 0 20 3 24 7 4
5 11 8 14 8 11 1 71 27 130 58 30 15 60 27 68 27 16 0 19 -32 5 -58 -5 -9 -15
-38 -22 -64 -6 -27 -15 -48 -20 -48 -5 0 -6 -6 -3 -14 3 -7 -2 -20 -11 -29 -8
-9 -18 -30 -21 -46 -4 -17 -10 -31 -15 -31 -5 0 -9 -7 -9 -15 0 -18 -20 -57
-35 -67 -5 -4 -6 -8 -1 -8 5 0 1 -8 -8 -19 -9 -10 -19 -30 -22 -44 -4 -23 23
-115 45 -157 5 -9 12 -31 16 -50 4 -19 14 -44 21 -55 8 -11 14 -28 14 -38 0
-9 7 -34 16 -55 10 -20 18 -42 20 -49 1 -7 15 -40 32 -75 30 -65 62 -151 62
-169 0 -6 9 -31 21 -57 26 -61 34 -80 47 -119 l10 -32 -71 4 c-40 3 -87 9
-106 14 -18 6 -37 9 -41 8 -5 -1 -15 6 -22 16 -19 26 -44 13 -62 -34 -22 -55
-20 -75 12 -97 25 -18 44 -19 225 -18 165 1 200 4 207 16 14 27 6 60 -45 165
-27 57 -68 148 -69 155 -1 3 -4 10 -8 15 -4 6 -13 40 -22 76 -8 36 -33 102
-55 147 -23 44 -41 86 -41 91 0 6 -9 30 -19 53 -25 54 -34 79 -37 98 -1 8 -9
42 -18 75 -19 69 -10 113 29 144 14 10 22 21 19 24 -3 3 1 20 9 39 8 18 18 44
21 58 10 48 35 135 50 175 8 22 15 48 16 58 0 9 4 17 9 17 6 0 10 8 10 18 0 9
1 26 3 37 1 11 -12 50 -30 87 -18 37 -32 71 -32 76 0 5 -14 33 -30 63 -34 60
-42 74 -59 106 -19 37 -91 220 -91 231 0 13 -60 193 -68 207 -4 6 -7 12 -7 15
0 3 -11 33 -24 68 -13 34 -22 65 -20 67 3 2 22 0 44 -6 22 -5 83 -12 135 -15
102 -5 350 -43 350 -53 0 -3 12 -7 28 -8 15 -2 45 -5 67 -7 37 -3 93 19 80 32
-2 3 11 24 30 48 19 23 35 46 35 51 0 4 12 19 25 32 14 13 28 34 31 47 3 13
10 24 16 24 5 0 7 4 4 9 -3 5 7 23 23 40 16 18 51 69 76 114 26 45 64 98 86
118 28 25 40 44 41 65 1 42 -13 147 -21 159 -4 6 -9 30 -10 54 -2 25 -11 73
-22 107 -15 47 -24 63 -42 68 -33 9 -34 8 -61 -21 -19 -21 -24 -33 -19 -57 3
-17 10 -36 15 -42 5 -7 11 -25 13 -40 2 -16 9 -47 14 -69 6 -22 10 -70 10
-107 0 -69 1 -66 -62 -138 -12 -14 -28 -36 -34 -50 -11 -22 -69 -108 -92 -136
-5 -6 -26 -35 -47 -65 -21 -30 -43 -59 -49 -65 -5 -7 -19 -24 -29 -38 -23 -32
-64 -34 -134 -7 -26 11 -70 22 -98 26 -27 4 -56 9 -65 10 -9 2 -70 7 -135 11
-135 8 -129 7 -167 22 -16 7 -33 12 -38 12 -5 0 -9 3 -9 8 0 11 -151 7 -158
-4 -13 -19 -125 -52 -222 -67 -29 -4 -20 29 12 47 39 22 148 126 148 141 0 6
8 26 19 45 27 51 53 217 46 298 -10 121 -15 156 -26 197 -5 22 -15 57 -20 79
-5 21 -16 51 -24 67 -9 16 -16 32 -16 36 -1 5 -5 18 -10 31 -5 13 -9 25 -9 27
0 3 -20 35 -44 72 -29 45 -57 76 -84 91 -22 12 -42 26 -44 31 -3 9 -102 56
-157 75 -41 15 -155 18 -221 6z m170 -126 c0 -7 8 -10 18 -8 9 2 36 -1 58 -8
159 -49 288 -270 293 -503 1 -44 4 -89 7 -101 7 -29 -25 -194 -43 -224 -27
-42 -144 -150 -164 -150 -10 0 -20 -4 -23 -9 -9 -14 -108 -23 -167 -15 -47 6
-60 13 -99 54 -73 75 -108 119 -116 143 -4 12 -17 38 -30 57 -70 106 -114 387
-83 530 6 30 20 74 31 97 25 52 96 123 140 138 44 16 178 15 178 -1z m558
-1243 c17 -39 32 -75 32 -81 0 -5 4 -18 9 -28 5 -9 28 -73 52 -142 23 -69 47
-128 53 -132 6 -4 8 -8 4 -8 -9 0 29 -111 42 -124 6 -6 10 -16 10 -24 0 -8 26
-65 57 -128 36 -71 53 -118 47 -123 -13 -14 -290 -130 -349 -148 -90 -26 -200
-55 -215 -57 -9 -1 -20 -5 -26 -9 -6 -3 -20 4 -31 16 -21 23 -85 153 -98 197
-4 14 -16 44 -27 67 -11 24 -24 66 -28 95 -5 29 -18 94 -29 143 -11 50 -29
142 -40 205 l-19 115 21 18 c12 10 46 29 75 42 29 13 66 34 82 45 17 12 30 19
30 16 0 -3 14 0 30 5 17 6 30 17 30 24 0 14 96 55 128 55 9 0 35 7 57 15 64
23 68 20 103 -54z"/>
</g>
</svg>
