<?xml version="1.0" standalone="no"?>
<!DOCTYPE svg PUBLIC "-//W3C//DTD SVG 20010904//EN"
 "http://www.w3.org/TR/2001/REC-SVG-20010904/DTD/svg10.dtd">
<svg version="1.0" xmlns="http://www.w3.org/2000/svg"
 width="453.000000pt" height="477.000000pt" viewBox="0 0 453.000000 477.000000"
 preserveAspectRatio="xMidYMid meet">
<metadata>
Created by potrace 1.16, written by Peter Selinger 2001-2019
</metadata>
<g transform="translate(0.000000,477.000000) scale(0.100000,-0.100000)"
fill="#000000" stroke="none">
<path d="M3255 4664 c-22 -13 -47 -27 -55 -31 -8 -4 -29 -21 -46 -37 -41 -42
-112 -99 -135 -110 -11 -5 -19 -13 -19 -18 0 -4 -6 -8 -13 -8 -7 0 -18 -9 -25
-20 -7 -11 -18 -20 -25 -20 -7 0 -17 -9 -22 -21 -6 -11 -25 -30 -42 -41 l-33
-20 -1 49 c-3 175 -11 199 -78 224 -34 12 -52 14 -78 6 -18 -6 -33 -14 -33
-19 0 -4 -6 -8 -13 -8 -12 0 -81 -35 -152 -77 -22 -13 -48 -26 -57 -30 -10 -3
-18 -9 -18 -14 0 -5 -30 -29 -67 -53 -38 -24 -84 -58 -103 -75 -54 -47 -130
-125 -130 -133 0 -5 -7 -8 -15 -8 -16 0 -135 -115 -135 -131 0 -5 -7 -9 -15
-9 -8 0 -26 -21 -39 -47 -14 -27 -47 -68 -75 -93 -28 -25 -51 -50 -51 -56 0
-6 -11 -16 -25 -22 -24 -11 -65 -78 -65 -107 0 -8 -4 -15 -9 -15 -5 0 -16 -15
-26 -32 -25 -49 -40 -74 -51 -89 -6 -8 -14 -28 -17 -44 -7 -36 -53 -138 -101
-224 -19 -33 -33 -61 -31 -61 2 0 -19 -37 -46 -81 -28 -45 -57 -98 -64 -118
-7 -20 -24 -54 -39 -75 -15 -22 -29 -51 -32 -65 -4 -14 -12 -35 -19 -46 -19
-32 -75 -201 -75 -229 0 -13 -4 -28 -10 -31 -5 -3 -10 -19 -10 -35 0 -16 -4
-31 -8 -34 -5 -3 -9 -19 -10 -35 0 -16 -5 -38 -10 -48 -5 -10 -13 -46 -17 -80
-6 -57 -13 -70 -83 -165 -42 -57 -81 -108 -87 -114 -5 -6 -17 -22 -25 -35 -8
-12 -29 -39 -45 -58 -17 -20 -43 -55 -59 -78 -16 -24 -41 -56 -56 -72 -15 -16
-35 -44 -44 -62 -9 -19 -26 -46 -38 -61 -58 -69 -87 -107 -121 -160 -21 -32
-43 -58 -48 -58 -6 0 -8 -4 -4 -10 6 -10 -15 -50 -27 -50 -5 0 -7 3 -7 8 6 35
-2 42 -46 42 -41 0 -47 -3 -69 -38 -13 -20 -42 -56 -65 -80 -22 -23 -41 -45
-41 -47 0 -7 -16 -28 -76 -94 -66 -72 -76 -91 -61 -116 35 -65 89 -57 127 18
7 15 33 49 58 75 24 26 57 67 74 91 l31 44 14 -29 c24 -51 61 -108 89 -138 11
-12 21 -35 22 -50 0 -5 4 -12 9 -15 5 -3 23 -26 40 -51 17 -25 43 -56 57 -69
14 -14 26 -29 26 -34 0 -5 10 -19 23 -31 12 -11 45 -52 72 -90 47 -67 136
-166 148 -166 3 0 30 -24 60 -52 73 -72 174 -161 195 -172 9 -5 19 -13 22 -17
9 -13 183 -119 195 -119 7 0 18 -7 25 -15 7 -8 24 -15 38 -15 14 0 33 -6 41
-13 9 -7 36 -20 60 -27 58 -19 65 -41 33 -105 -14 -27 -30 -53 -35 -56 -13 -9
-11 -67 3 -84 7 -8 15 -13 18 -10 3 3 10 1 16 -4 18 -15 56 24 75 80 10 28 24
54 30 58 18 11 27 117 19 226 -7 89 -13 140 -18 140 -2 0 -10 27 -16 60 -4 23
1 40 25 72 17 24 31 45 31 48 0 3 10 16 23 28 12 12 38 42 57 67 19 25 44 52
55 59 11 8 43 36 70 63 141 133 146 138 283 231 44 30 119 43 152 27 28 -14
145 -18 190 -8 25 6 88 11 140 12 52 1 109 6 125 11 38 10 125 53 141 70 7 7
53 33 102 58 49 26 95 53 102 62 7 8 16 15 21 15 5 0 21 12 37 27 16 16 84 75
152 133 67 58 141 122 163 142 23 21 45 38 49 38 9 0 131 71 138 80 3 3 23 19
45 36 22 16 46 35 53 42 7 6 17 12 20 12 16 0 72 111 101 200 17 52 36 104 41
115 23 48 50 127 50 146 0 12 6 35 14 52 7 18 24 60 37 95 13 34 27 62 31 62
5 0 8 10 8 23 0 13 7 32 15 43 8 10 15 27 15 37 0 9 4 17 9 17 4 0 6 12 4 28
-3 15 -6 39 -6 53 -3 38 -35 71 -66 67 -21 -2 -26 1 -27 20 -1 12 2 22 7 22
12 0 5 172 -8 195 -6 11 -31 74 -56 140 -24 66 -48 129 -52 140 -4 11 -9 25
-10 30 -7 32 -69 147 -104 195 -89 121 -111 136 -188 127 l-46 -5 35 32 c46
42 95 71 136 79 37 7 124 70 162 116 14 17 34 41 46 54 21 23 83 142 88 168 2
8 6 31 11 52 12 62 -18 115 -73 125 -63 11 -274 3 -289 -11 -3 -4 -23 -7 -44
-7 -37 0 -211 -78 -225 -101 -3 -5 -13 -9 -23 -9 -16 0 -84 -47 -135 -92 -26
-24 -31 -16 -13 24 8 18 24 53 35 78 11 25 31 91 46 148 14 57 28 108 32 113
12 19 14 121 3 135 -6 7 -8 18 -4 24 3 5 -1 10 -9 10 -9 0 -16 4 -16 9 0 17
-31 41 -53 40 -12 0 -40 -11 -62 -25z m55 -108 c0 -18 -50 -91 -67 -99 -13 -6
-23 -14 -23 -18 0 -5 -13 -15 -29 -24 -22 -11 -37 -12 -56 -5 l-25 10 40 40
c22 22 45 40 50 40 6 0 10 4 10 10 0 5 17 18 38 29 35 19 62 26 62 17z m-580
-57 c0 -22 -21 -48 -71 -88 -55 -44 -77 -46 -111 -10 -17 17 -16 19 9 38 14
12 32 21 39 21 7 0 30 11 50 25 38 26 84 33 84 14z m529 -170 c-18 -63 -63
-165 -117 -265 -7 -13 -26 -31 -42 -39 -16 -8 -34 -24 -40 -35 -6 -11 -15 -18
-21 -15 -5 4 -33 -7 -63 -24 -29 -17 -62 -31 -72 -32 -11 0 -32 -9 -49 -20
-16 -10 -55 -31 -85 -46 -30 -14 -64 -36 -76 -47 -11 -12 -38 -34 -60 -51 -21
-16 -47 -40 -58 -52 -11 -13 -25 -23 -32 -23 -7 0 -14 -4 -16 -8 -1 -5 -28
-27 -58 -50 -30 -23 -61 -47 -67 -52 -22 -18 -16 -68 11 -85 19 -13 28 -14 50
-4 14 7 26 16 26 20 0 12 99 103 123 114 12 5 38 26 59 46 20 21 59 50 87 65
28 14 57 34 64 44 6 9 25 20 41 24 16 4 62 23 101 42 40 19 78 34 85 34 6 0
26 11 44 25 18 14 38 25 44 25 7 0 29 9 49 20 21 11 43 20 49 20 6 0 17 6 23
14 7 8 32 24 57 35 24 12 44 26 44 31 0 6 7 10 16 10 9 0 34 15 57 34 40 32
131 83 190 105 21 8 27 8 27 -4 0 -52 103 -96 164 -70 36 15 134 45 148 45 17
0 -1 -48 -33 -93 -53 -73 -97 -115 -129 -122 -16 -4 -30 -11 -30 -16 0 -5 -9
-9 -20 -9 -11 0 -20 -4 -20 -10 0 -5 -13 -10 -30 -10 -16 0 -30 -4 -30 -10 0
-5 -4 -10 -9 -10 -10 0 -57 -39 -112 -93 -22 -21 -39 -36 -39 -33 0 3 -13 -8
-30 -26 -16 -17 -30 -27 -30 -23 0 4 -6 2 -13 -4 -8 -6 -31 -13 -53 -17 -21
-3 -52 -12 -69 -19 -28 -12 -216 -52 -277 -59 -30 -3 -145 -83 -153 -106 -7
-22 -112 -130 -119 -123 -3 4 -6 1 -6 -5 0 -6 -12 -17 -27 -24 -15 -7 -34 -25
-42 -39 -13 -23 -12 -28 5 -52 15 -21 27 -26 57 -25 20 1 37 4 37 8 0 4 40 48
89 98 49 50 91 98 94 106 7 18 113 70 125 62 5 -3 22 -1 38 3 16 5 54 16 84
25 30 8 78 22 105 31 28 8 62 15 75 14 14 -1 52 2 85 6 98 11 189 13 207 3 21
-10 96 -117 121 -173 10 -22 22 -42 27 -45 5 -3 10 -19 12 -35 2 -22 -2 -30
-15 -33 -22 -5 -77 -60 -77 -77 0 -20 43 -109 69 -141 39 -50 91 -135 91 -150
0 -11 -9 -10 -41 7 -45 23 -69 42 -202 172 -75 71 -97 87 -122 87 -23 0 -37
-8 -52 -29 -25 -33 -103 -81 -132 -81 -12 0 -21 -4 -21 -9 0 -13 -60 -31 -90
-28 -41 5 -113 28 -134 43 -33 23 -81 18 -95 -10 -7 -13 -10 -33 -7 -44 4 -11
3 -29 -2 -39 -5 -10 -15 -30 -23 -45 -7 -16 -18 -28 -26 -28 -7 0 -13 -8 -13
-19 0 -10 -6 -24 -13 -30 -34 -28 -153 -82 -183 -83 -19 -1 -34 -5 -34 -10 0
-4 -8 -8 -17 -8 -13 0 -23 -16 -36 -55 -19 -58 -91 -175 -107 -175 -6 0 -10 9
-10 20 0 11 4 20 10 20 5 0 0 16 -11 35 -23 38 -43 43 -77 19 -21 -14 -22 -21
-17 -82 2 -37 6 -98 7 -137 2 -38 8 -76 15 -83 7 -7 15 -29 18 -50 3 -20 9
-50 13 -67 4 -16 6 -60 4 -97 -4 -68 -4 -68 -33 -68 -18 0 -28 4 -24 10 3 6
-2 10 -12 10 -11 0 -23 4 -28 9 -34 31 -95 8 -95 -37 0 -18 39 -77 40 -59 0 4
22 -4 49 -18 27 -13 65 -27 84 -29 19 -2 47 -11 63 -19 16 -8 59 -17 96 -20
l68 -6 72 50 c40 28 85 58 101 67 15 10 29 24 32 33 5 16 128 104 150 109 6 1
19 7 30 13 11 6 25 12 30 12 14 1 67 16 85 23 8 3 29 6 46 7 17 1 35 5 41 8 7
4 14 3 18 -3 17 -28 66 0 72 43 2 11 7 25 12 31 5 6 12 25 15 43 4 17 13 37
21 43 8 6 16 24 20 39 3 16 17 43 31 62 13 18 24 38 24 44 0 6 9 17 20 25 11
8 20 18 20 23 0 8 29 36 76 76 7 6 17 11 22 11 5 0 18 11 30 25 12 14 31 25
42 25 10 0 24 8 29 19 6 10 24 21 41 25 16 3 43 9 59 12 28 6 30 4 33 -27 3
-31 -9 -72 -33 -121 -5 -10 -6 -24 -3 -32 3 -8 0 -17 -5 -21 -6 -3 -9 -10 -6
-15 3 -5 0 -20 -7 -32 -7 -13 -11 -29 -10 -35 2 -7 -2 -13 -7 -13 -6 0 -8 -13
-4 -32 6 -33 52 -83 86 -94 13 -4 16 -11 11 -22 -4 -10 -12 -31 -18 -48 -6
-18 -16 -38 -22 -45 -6 -8 -23 -54 -39 -102 -16 -49 -33 -90 -37 -93 -4 -3 -8
-12 -8 -20 0 -15 -48 -63 -63 -64 -4 0 -26 -13 -49 -30 -22 -17 -45 -30 -50
-30 -8 0 -75 -48 -106 -78 -7 -6 -20 -12 -28 -12 -8 0 -14 -4 -14 -9 0 -5 -9
-13 -20 -16 -11 -3 -20 -12 -20 -18 -1 -7 -36 -39 -80 -72 -43 -33 -79 -64
-80 -70 0 -5 -19 -23 -43 -40 -23 -16 -50 -40 -60 -52 -10 -13 -25 -23 -33
-23 -8 0 -14 -4 -14 -10 0 -5 -7 -10 -15 -10 -8 0 -15 -4 -15 -8 0 -5 -17 -17
-37 -28 -21 -10 -57 -31 -80 -46 -23 -16 -46 -28 -51 -28 -6 0 -12 -7 -16 -15
-3 -8 -12 -15 -19 -15 -8 0 -20 -6 -26 -14 -17 -20 -95 -39 -181 -43 -41 -2
-95 -5 -120 -8 -80 -9 -137 -7 -159 5 -12 6 -26 8 -31 5 -5 -3 -20 0 -32 7
-13 7 -28 11 -34 10 -7 -1 -14 5 -18 13 -3 9 -10 13 -16 10 -6 -4 -8 -11 -5
-16 4 -5 -1 -9 -10 -9 -25 0 -94 -43 -101 -62 -3 -10 -14 -18 -25 -18 -11 0
-32 -12 -46 -26 -15 -15 -56 -47 -92 -71 -36 -25 -79 -61 -96 -81 -16 -19 -36
-40 -43 -46 -47 -38 -182 -172 -182 -180 0 -6 -17 -29 -38 -51 -20 -22 -45
-52 -54 -65 -55 -79 -80 -110 -124 -155 -28 -27 -53 -58 -57 -67 -3 -10 -13
-18 -22 -18 -22 0 -84 34 -119 64 -16 14 -33 26 -37 26 -5 0 -34 25 -65 55
-32 30 -62 55 -69 55 -13 0 -47 34 -41 41 2 2 -29 31 -70 64 -40 33 -73 66
-73 73 -1 6 -5 12 -9 12 -13 0 -52 36 -52 47 0 6 -9 18 -20 28 -11 10 -20 22
-20 27 0 5 -6 15 -12 23 -7 7 -22 25 -33 41 -11 15 -31 39 -45 54 -78 80 -202
276 -183 288 5 4 26 40 46 80 36 71 108 182 152 232 12 14 40 54 61 90 21 36
55 81 75 100 33 32 77 100 64 100 -3 0 14 19 36 42 39 41 99 120 99 132 0 8
28 41 70 85 41 41 53 70 69 161 6 36 13 74 15 85 2 11 22 90 45 175 31 118 57
186 106 288 36 72 65 135 65 139 0 3 11 21 25 39 14 18 25 36 25 41 0 13 51
106 69 127 9 10 15 20 13 22 -3 5 29 57 41 65 4 3 7 10 6 15 -4 13 23 64 33
64 5 0 6 5 3 10 -3 6 -1 10 4 10 6 0 11 4 11 10 0 5 11 20 25 34 14 14 25 32
25 41 0 8 4 15 9 15 5 0 12 9 16 19 3 11 20 26 38 34 35 17 69 52 60 61 -4 3
0 14 8 23 24 29 38 70 46 130 4 37 13 61 25 72 11 9 35 39 53 66 19 28 62 75
95 105 34 30 84 76 112 103 28 26 54 47 57 47 4 0 16 8 27 18 59 54 133 110
158 121 27 11 32 10 46 -9 10 -13 36 -24 77 -32 60 -11 62 -11 100 18 21 16
48 35 61 42 19 11 22 10 22 -6 0 -11 -7 -34 -16 -51 -9 -18 -17 -47 -18 -64
-1 -17 -7 -32 -14 -35 -6 -2 -36 -27 -66 -55 -79 -76 -119 -107 -137 -107 -9
0 -22 -7 -29 -15 -7 -8 -18 -15 -25 -15 -7 0 -25 -11 -41 -25 -100 -86 -170
-151 -173 -160 -2 -5 -28 -35 -59 -65 -76 -77 -92 -140 -37 -154 31 -8 57 8
81 48 10 17 23 36 28 42 6 6 35 38 65 72 29 34 60 62 67 62 7 0 21 11 30 25 9
14 23 25 30 25 8 0 14 5 14 10 0 6 5 10 11 10 6 0 37 17 68 39 31 21 66 41 77
45 12 3 26 17 32 31 6 13 24 31 41 39 16 9 62 47 101 85 40 39 81 73 93 77 23
7 39 19 70 52 12 13 43 36 69 50 27 15 48 30 48 35 0 13 15 7 44 -18 16 -14
39 -25 50 -25 26 0 108 46 119 67 18 30 16 4 -4 -68z m629 -109 c28 3 52 3 52
-2 0 -8 -72 -30 -78 -23 -3 2 -16 -2 -31 -9 -14 -7 -42 -14 -62 -14 -29 -1
-38 3 -42 19 -7 26 22 38 72 29 20 -3 60 -3 89 0z m-2067 -453 c-10 -9 -11 -8
-5 6 3 10 9 15 12 12 3 -3 0 -11 -7 -18z m2063 -526 c10 -11 15 -24 12 -30 -4
-5 -2 -12 4 -16 5 -3 10 -14 10 -24 0 -9 5 -22 12 -29 6 -6 13 -18 14 -25 1
-7 11 -33 23 -57 37 -78 23 -97 -21 -27 -15 23 -43 66 -63 95 -35 53 -42 76
-26 86 5 3 7 15 4 26 -7 25 9 26 31 1z m-301 -193 c93 -86 157 -151 157 -159
0 -5 6 -9 14 -9 7 0 19 -6 25 -14 11 -13 0 -24 -29 -30 -27 -6 -70 -34 -70
-45 0 -8 -3 -12 -6 -8 -3 3 -11 1 -18 -4 -6 -5 -31 -23 -56 -39 -64 -41 -131
-123 -185 -226 -69 -134 -116 -199 -145 -201 -75 -8 -165 -26 -168 -34 -2 -5
-12 -9 -22 -9 -10 0 -22 -5 -25 -10 -4 -6 -10 -8 -15 -5 -4 3 -10 -2 -14 -10
-3 -8 -12 -15 -21 -15 -8 0 -15 -6 -15 -13 0 -7 -15 -18 -32 -25 -18 -7 -49
-27 -69 -45 -20 -17 -53 -45 -74 -62 -20 -16 -43 -36 -51 -43 -7 -7 -30 -19
-51 -26 -73 -26 -100 11 -101 135 0 35 -3 106 -6 157 -5 78 -3 98 11 123 10
16 21 29 25 29 4 0 8 5 8 11 0 15 79 129 90 129 6 0 10 6 10 12 0 16 65 74
110 99 19 11 50 28 68 39 17 11 32 17 32 14 0 -3 11 7 25 21 14 14 30 25 36
25 6 0 7 5 4 10 -3 6 1 10 9 10 8 0 18 9 21 20 3 11 10 20 14 20 4 0 13 16 20
35 7 19 17 35 22 35 5 0 9 7 9 15 0 18 22 19 70 5 44 -13 150 -20 150 -11 0 5
19 13 43 20 23 7 56 24 74 37 17 13 34 24 37 24 3 0 15 9 26 20 25 25 34 25
63 -2z m453 -298 c29 0 33 -3 25 -17 -5 -10 -14 -36 -20 -58 -15 -48 -43 -118
-51 -125 -10 -8 -28 -62 -35 -102 -7 -43 -16 -47 -46 -17 -15 15 -18 24 -10
32 6 6 11 25 11 42 0 16 7 50 16 75 8 24 13 52 11 62 -3 10 -1 21 4 24 5 3 9
14 9 24 0 37 19 72 36 66 9 -3 31 -6 50 -6z m-2439 -2285 c-2 -5 0 -20 4 -32
5 -13 5 -32 1 -42 -7 -20 -8 -20 -50 -1 -38 17 -57 40 -32 40 5 0 7 6 4 13 -3
8 5 18 18 24 28 13 59 12 55 -2z"/>
</g>
</svg>
