<?xml version="1.0" standalone="no"?>
<!DOCTYPE svg PUBLIC "-//W3C//DTD SVG 20010904//EN"
 "http://www.w3.org/TR/2001/REC-SVG-20010904/DTD/svg10.dtd">
<svg version="1.0" xmlns="http://www.w3.org/2000/svg"
 width="477.000000pt" height="471.000000pt" viewBox="0 0 477.000000 471.000000"
 preserveAspectRatio="xMidYMid meet">
<metadata>
Created by potrace 1.16, written by Peter Selinger 2001-2019
</metadata>
<g transform="translate(0.000000,471.000000) scale(0.100000,-0.100000)"
fill="#000000" stroke="none">
<path d="M491 4528 c-18 -5 -41 -16 -49 -25 -17 -17 -82 -48 -94 -45 -5 1 -8
-4 -8 -11 0 -7 -8 -20 -17 -29 -36 -33 -61 -64 -93 -116 -28 -46 -30 -55 -19
-70 18 -22 31 -32 45 -32 15 0 54 35 54 49 0 17 100 114 145 141 22 13 58 26
79 29 32 5 42 12 52 36 10 26 10 33 -5 51 -22 28 -48 34 -90 22z"/>
<path d="M745 4371 c-53 -18 -127 -64 -173 -108 -7 -7 -17 -13 -21 -13 -14 0
-107 -126 -124 -168 -14 -34 -15 -46 -5 -62 30 -47 74 -15 134 97 16 31 36 54
49 57 12 3 41 20 66 39 24 18 63 38 85 45 44 13 63 29 68 59 8 38 -37 68 -79
54z"/>
<path d="M3540 4311 c-5 -11 -10 -27 -10 -35 0 -9 -3 -16 -7 -16 -35 -1 -149
-33 -198 -56 -74 -34 -108 -62 -243 -194 -68 -67 -116 -123 -132 -155 -23 -46
-28 -50 -55 -46 -42 6 -127 6 -144 1 -25 -8 -68 -57 -75 -84 -3 -14 -11 -26
-16 -26 -6 0 -10 -5 -10 -11 0 -6 -6 -25 -14 -42 -8 -18 -17 -57 -20 -87 -3
-30 -13 -109 -22 -175 -9 -66 -16 -146 -16 -178 0 -52 4 -62 37 -103 21 -25
48 -51 62 -57 13 -6 26 -20 28 -31 10 -46 34 -173 39 -210 17 -107 49 -177
125 -266 31 -36 59 -66 64 -68 4 -2 7 -10 7 -18 0 -8 7 -14 15 -14 8 0 15 -4
15 -9 0 -6 29 -29 64 -52 l63 -41 -16 -32 c-17 -34 -19 -41 -28 -88 -3 -18 -9
-35 -13 -38 -6 -4 -17 -51 -47 -205 -8 -39 -19 -49 -81 -69 -28 -10 -54 -21
-57 -26 -3 -5 -31 -14 -63 -21 -31 -7 -64 -18 -72 -25 -14 -12 -72 -38 -170
-79 -25 -10 -52 -25 -61 -32 -9 -8 -34 -19 -55 -24 -22 -6 -48 -19 -59 -28
-11 -9 -49 -30 -85 -45 -72 -32 -132 -60 -170 -81 -14 -8 -42 -21 -62 -30 -81
-33 -106 -45 -118 -60 -7 -8 -18 -15 -25 -15 -7 0 -18 -7 -25 -15 -16 -19 -33
-8 -27 17 3 11 -3 27 -18 41 -12 12 -28 44 -34 71 -7 27 -19 58 -27 70 -7 11
-14 30 -14 41 -1 19 -21 81 -48 148 -7 16 -12 31 -12 34 0 7 -34 85 -51 115
-5 10 -9 23 -9 30 0 12 -32 122 -71 248 -20 62 -33 98 -49 130 -4 8 -13 40
-20 70 -6 30 -23 87 -37 125 -30 86 -28 80 -38 138 -7 43 -5 50 19 75 55 58
96 108 102 125 3 9 9 17 14 17 23 0 87 150 111 260 37 165 44 340 17 385 -3 6
-6 21 -6 35 0 35 -57 152 -82 168 -11 7 -20 17 -20 23 0 6 -7 17 -15 25 -15
16 -80 45 -92 42 -76 -17 -70 -19 -83 31 -31 114 -47 150 -94 213 -28 37 -57
67 -63 67 -7 1 -13 5 -13 9 0 5 -12 15 -27 22 -16 8 -35 19 -43 26 -8 6 -28
14 -45 17 -121 24 -128 24 -154 11 -14 -8 -34 -14 -44 -14 -35 0 -151 -64
-186 -103 -37 -41 -105 -147 -95 -147 4 0 -1 -12 -11 -26 -9 -14 -14 -28 -12
-31 3 -2 1 -19 -5 -36 -33 -106 -41 -152 -41 -227 0 -70 12 -170 24 -192 5 -9
11 -46 14 -81 5 -75 13 -114 30 -142 7 -11 18 -38 25 -60 7 -22 17 -45 22 -52
5 -7 7 -16 4 -22 -3 -5 1 -11 9 -15 8 -3 15 -12 15 -20 0 -17 87 -156 98 -156
4 0 23 -25 42 -55 19 -30 38 -54 43 -55 4 0 7 -7 7 -15 0 -8 5 -15 11 -15 6 0
30 -13 54 -30 24 -16 48 -30 54 -30 6 0 11 -4 11 -10 0 -5 6 -7 13 -4 8 3 27
0 43 -6 15 -6 47 -13 69 -16 58 -7 62 -10 69 -41 4 -15 15 -36 24 -46 9 -10
17 -24 18 -32 1 -8 9 -28 18 -46 8 -17 18 -47 22 -68 4 -20 10 -40 13 -46 4
-5 8 -23 9 -40 1 -16 13 -64 26 -105 33 -102 69 -223 107 -355 18 -60 36 -117
40 -125 5 -8 22 -62 39 -120 17 -58 36 -118 42 -135 54 -156 67 -199 72 -230
3 -20 15 -53 26 -75 11 -22 20 -47 20 -57 0 -10 8 -23 18 -30 25 -15 93 -20
112 -7 57 36 61 38 130 59 30 9 63 24 73 32 9 9 17 13 17 10 0 -8 81 23 170
65 313 147 326 153 355 178 11 10 67 41 124 69 57 28 109 56 117 62 8 6 14 8
14 3 0 -4 5 -3 12 4 7 7 21 12 31 12 15 0 17 -3 8 -13 -6 -8 -8 -16 -5 -19 3
-3 -2 -32 -11 -64 -16 -57 -34 -133 -40 -164 -1 -8 -5 -22 -8 -30 -9 -24 -39
-130 -52 -190 -7 -30 -20 -77 -29 -105 -15 -48 -66 -227 -66 -232 0 -2 0 -4
-1 -5 0 -2 -2 -19 -5 -38 -2 -19 -8 -44 -12 -55 -19 -46 -56 -154 -72 -215
-33 -122 -69 -240 -80 -259 -13 -25 -13 -88 0 -96 6 -4 8 -10 5 -15 -12 -19
40 -40 102 -40 l62 0 42 83 c22 45 46 88 51 94 7 9 7 22 -1 41 -14 33 -7 87
20 149 10 24 19 51 19 59 0 7 9 31 20 52 14 26 22 65 25 126 2 48 8 92 11 98
4 6 13 36 20 67 7 31 18 74 24 96 6 22 13 47 15 55 2 8 4 16 5 18 2 1 3 6 4
11 0 5 4 13 9 17 4 4 7 14 7 22 0 8 6 28 14 45 12 30 33 99 37 122 0 6 12 38
24 72 13 34 26 74 29 90 3 15 19 69 35 118 16 50 32 103 36 118 l6 28 32 -23
c18 -12 42 -34 55 -47 12 -13 22 -20 22 -16 0 4 8 1 18 -8 10 -10 22 -14 25
-10 4 3 7 1 7 -5 0 -7 7 -12 15 -12 8 0 15 -4 15 -9 0 -11 20 -33 102 -119 28
-28 54 -52 58 -52 5 0 32 -25 62 -57 67 -71 114 -115 187 -171 108 -85 108
-84 98 -122 -4 -19 -10 -48 -11 -65 -2 -16 -8 -64 -14 -105 -6 -41 -9 -77 -7
-81 3 -3 -10 -51 -29 -105 -18 -55 -38 -123 -45 -151 -6 -29 -16 -77 -22 -105
-6 -29 -15 -62 -19 -73 -28 -69 -29 -84 -9 -125 22 -46 50 -52 92 -20 14 11
27 16 29 10 6 -19 55 -21 76 -2 15 13 22 34 27 87 4 38 13 81 20 95 14 28 22
63 30 130 3 24 16 98 29 165 14 66 27 143 30 170 10 93 26 197 35 231 5 18 8
34 6 36 -2 2 -6 29 -9 62 -5 56 -18 86 -37 86 -4 0 -19 10 -32 22 -12 13 -36
35 -52 49 -25 22 -83 82 -185 193 -43 47 -182 156 -198 156 -5 0 -20 10 -34
23 -14 12 -42 36 -62 52 -20 17 -49 42 -63 58 -15 15 -31 27 -37 27 -6 0 -28
16 -50 35 -21 19 -41 35 -45 35 -3 0 -12 4 -19 9 -11 7 -10 21 6 77 12 38 24
92 27 119 4 28 11 68 17 90 6 22 10 50 10 62 0 21 5 22 72 22 39 0 82 3 96 6
14 2 38 8 54 11 47 10 163 76 179 101 4 7 13 13 19 13 20 0 183 179 203 223 5
12 12 24 15 27 3 3 17 27 32 55 22 42 33 51 63 57 61 13 132 71 208 169 9 13
17 29 17 36 0 7 4 13 8 13 4 0 14 16 21 35 7 19 18 41 25 48 17 17 62 113 71
152 14 61 8 133 -15 165 -12 16 -18 30 -14 30 14 0 -71 70 -86 71 -23 2 -23 2
-50 -4 -25 -6 -26 -5 -28 61 -7 179 -22 283 -48 348 -14 37 -32 74 -39 83 -8
9 -38 52 -67 96 -57 84 -88 110 -196 164 -100 50 -109 54 -119 48 -5 -3 -15
-2 -23 3 -7 5 -23 4 -37 -3 -19 -8 -27 -7 -46 11 -29 27 -34 27 -47 3z m-16
-130 c4 -5 22 -5 43 -1 21 5 40 6 43 2 3 -4 21 -7 42 -8 78 -2 209 -65 223
-107 4 -9 10 -15 15 -12 9 6 70 -76 70 -94 0 -6 5 -11 10 -11 6 0 10 -9 10
-20 0 -11 4 -20 8 -20 9 0 35 -46 38 -65 0 -5 3 -17 6 -25 3 -8 10 -33 16 -55
26 -105 16 -409 -18 -520 -10 -33 -29 -98 -41 -145 -33 -124 -143 -361 -186
-402 -13 -12 -23 -25 -23 -30 0 -4 -8 -17 -17 -27 -78 -84 -95 -101 -104 -101
-5 0 -9 -6 -9 -13 0 -29 -104 -87 -197 -111 -123 -32 -278 -9 -363 53 -55 40
-143 133 -184 195 -44 67 -60 112 -82 226 -8 47 -18 101 -22 120 -9 47 -5 246
7 284 5 17 14 58 21 91 7 33 33 101 56 152 24 50 44 99 44 107 0 9 5 16 10 16
6 0 10 7 10 16 0 9 19 44 43 78 23 34 47 68 52 77 46 73 75 107 154 179 102
93 230 167 313 179 4 1 9 -3 12 -8z m-2446 -43 c17 -5 32 -13 32 -18 0 -6 7
-10 15 -10 8 0 15 -4 15 -10 0 -5 11 -12 25 -16 13 -3 36 -22 52 -42 15 -21
29 -39 33 -42 27 -25 76 -215 94 -370 6 -50 26 -77 57 -76 39 2 56 29 63 101
10 91 12 96 42 83 13 -6 24 -15 24 -21 0 -5 11 -22 25 -39 14 -16 27 -42 30
-56 3 -15 11 -44 16 -66 20 -74 11 -212 -20 -336 -42 -163 -51 -190 -61 -190
-5 0 -11 -8 -14 -17 -3 -10 -28 -42 -56 -72 -27 -30 -50 -59 -50 -65 0 -14
-52 -46 -74 -46 -8 0 -19 -8 -25 -17 -6 -12 -23 -18 -53 -19 -47 -2 -166 23
-185 38 -7 5 -17 7 -23 3 -5 -3 -10 -1 -10 4 0 6 -6 11 -13 11 -7 0 -23 10
-34 23 -11 12 -29 29 -39 38 -23 19 -74 77 -74 84 0 2 -15 29 -34 58 -66 102
-124 247 -131 322 -5 59 -18 130 -27 147 -30 59 -16 259 23 342 11 22 19 46
19 53 0 21 49 113 60 113 6 0 10 6 10 13 1 16 73 67 97 67 11 0 23 3 27 8 13
13 101 40 116 35 8 -3 30 -9 48 -15z m1782 -432 c0 -6 -73 -172 -79 -181 -7
-9 -47 -156 -57 -210 -4 -24 -12 -100 -14 -130 -1 -17 -3 -15 -16 9 -13 22
-15 46 -10 105 11 146 24 238 40 274 8 20 12 37 8 37 -3 0 -1 5 6 12 7 7 12
19 12 28 0 20 28 55 50 62 12 4 60 -1 60 -6z m1394 -447 c-8 -30 -18 -64 -21
-76 -3 -13 -9 -23 -13 -23 -4 0 -22 -30 -41 -67 -19 -38 -41 -77 -49 -87 -34
-43 -90 -100 -93 -96 -3 3 9 38 25 79 16 40 34 99 39 132 5 32 18 87 29 121
11 35 20 75 20 89 0 31 15 46 50 51 20 2 30 -4 47 -33 22 -35 22 -38 7 -90z
m-2454 -2011 c0 -5 -4 -8 -10 -8 -5 0 -10 10 -10 23 0 18 2 19 10 7 5 -8 10
-18 10 -22z"/>
<path d="M3230 3547 c-36 -18 -56 -67 -52 -126 2 -28 8 -48 13 -45 5 3 9 1 9
-5 0 -6 15 -14 33 -19 49 -13 88 13 104 69 17 56 4 91 -44 119 -40 24 -32 23
-63 7z"/>
<path d="M3635 3453 c-27 -14 -75 -59 -75 -70 0 -20 37 -111 49 -120 20 -16
73 -16 105 -2 27 13 33 30 35 105 2 47 -1 53 -33 77 -40 31 -41 31 -81 10z"/>
<path d="M3010 3009 c-28 -50 22 -184 82 -221 21 -13 38 -26 38 -30 0 -12 61
-40 75 -34 8 3 15 0 17 -6 6 -17 124 -37 202 -34 86 3 162 35 236 101 28 25
55 45 59 45 15 0 22 32 15 76 -5 36 -10 43 -34 46 -25 4 -75 -23 -75 -41 0
-12 -45 -51 -82 -69 -51 -26 -139 -43 -193 -38 -130 12 -204 61 -243 162 -21
53 -26 59 -54 62 -24 2 -34 -2 -43 -19z"/>
</g>
</svg>
