<?xml version="1.0" standalone="no"?>
<!DOCTYPE svg PUBLIC "-//W3C//DTD SVG 20010904//EN"
 "http://www.w3.org/TR/2001/REC-SVG-20010904/DTD/svg10.dtd">
<svg version="1.0" xmlns="http://www.w3.org/2000/svg"
 width="451.000000pt" height="351.000000pt" viewBox="0 0 451.000000 351.000000"
 preserveAspectRatio="xMidYMid meet">
<metadata>
Created by potrace 1.16, written by Peter Selinger 2001-2019
</metadata>
<g transform="translate(0.000000,351.000000) scale(0.100000,-0.100000)"
fill="#000000" stroke="none">
<path d="M3670 3106 c-25 -18 -53 -44 -62 -58 -9 -13 -47 -44 -85 -68 -37 -25
-70 -47 -73 -50 -3 -3 -37 -27 -77 -54 -71 -48 -118 -91 -188 -172 -19 -23
-70 -66 -113 -95 -42 -30 -84 -59 -92 -66 -8 -7 -44 -35 -80 -63 -36 -28 -80
-70 -98 -93 -41 -51 -63 -72 -118 -111 -61 -44 -296 -246 -317 -273 -18 -23
-19 -23 -41 -6 -67 52 -135 100 -166 117 -19 11 -37 23 -40 27 -3 3 -52 30
-110 58 -136 67 -198 100 -240 131 -55 40 -98 66 -215 125 -60 31 -117 63
-125 70 -14 12 -119 64 -265 130 -33 15 -89 42 -125 60 -36 17 -94 42 -130 55
-75 26 -208 87 -230 105 -8 7 -28 17 -45 23 -16 6 -75 29 -129 51 -55 23 -107
41 -117 41 -10 0 -20 4 -23 9 -3 5 -24 11 -46 13 -35 3 -41 1 -51 -24 -6 -14
-8 -35 -5 -45 4 -11 64 -46 159 -91 242 -117 322 -156 327 -162 3 -4 41 -21
85 -40 44 -19 87 -39 95 -45 42 -31 140 -84 175 -95 22 -7 84 -42 138 -77 54
-36 113 -70 131 -75 18 -6 77 -43 130 -82 53 -40 113 -78 133 -86 40 -14 131
-80 198 -144 22 -21 56 -45 75 -53 54 -24 230 -152 230 -168 0 -4 -40 -48 -90
-97 -49 -49 -90 -95 -90 -102 0 -15 -119 -130 -243 -235 -48 -41 -87 -77 -87
-80 0 -3 -13 -19 -28 -36 -15 -16 -35 -41 -43 -55 -9 -14 -70 -81 -135 -149
-66 -68 -122 -129 -126 -135 -4 -7 -33 -39 -65 -72 -60 -60 -125 -145 -136
-176 -4 -10 -12 -18 -19 -18 -7 0 -22 -12 -33 -27 -20 -28 -168 -194 -217
-246 -16 -16 -28 -36 -28 -46 0 -25 115 -141 140 -141 12 0 28 -7 37 -15 8 -9
27 -14 41 -12 21 3 33 15 55 58 15 30 34 59 42 65 8 6 15 19 15 28 0 9 6 16
13 16 7 0 39 39 70 88 31 48 61 92 66 98 47 58 101 134 101 142 0 6 19 28 41
49 23 21 51 49 63 61 12 13 35 38 51 56 17 18 59 68 95 111 36 44 108 123 161
177 53 53 94 100 91 103 -3 3 14 25 39 49 24 23 100 103 169 177 69 73 150
160 180 192 l55 58 45 -41 c25 -23 59 -49 75 -57 37 -19 113 -72 137 -96 10
-9 22 -17 26 -17 5 0 21 -18 38 -40 16 -22 33 -40 37 -40 7 0 47 -28 95 -65
28 -22 82 -77 82 -84 0 -4 26 -24 58 -44 31 -20 99 -77 150 -127 51 -49 114
-106 140 -127 26 -21 72 -64 102 -96 72 -77 125 -129 199 -197 33 -30 60 -60
60 -66 1 -6 34 -42 74 -80 40 -38 79 -78 87 -89 8 -11 28 -28 43 -38 16 -10
45 -37 65 -59 20 -23 43 -47 50 -54 6 -7 12 -16 12 -21 0 -11 49 -33 73 -33
25 0 77 31 77 46 0 16 90 104 107 104 24 0 34 46 18 90 -14 41 -15 43 -15 58
0 5 -18 18 -39 30 -22 13 -43 33 -47 45 -8 26 -35 52 -94 91 -25 16 -89 74
-143 128 -55 54 -113 106 -131 115 -17 9 -40 25 -52 37 -56 57 -188 172 -259
225 -44 33 -87 66 -95 73 -24 22 -136 111 -182 145 -24 18 -59 47 -79 65 -20
18 -54 47 -75 63 -21 17 -52 42 -69 56 -25 22 -134 97 -194 134 -38 24 -76 50
-81 56 -3 3 -29 18 -58 34 -78 42 -82 51 -41 84 19 16 48 41 64 55 17 15 51
43 76 64 26 20 57 53 70 73 12 20 34 45 47 55 14 11 48 38 76 62 27 23 53 42
56 42 4 0 28 27 54 60 45 57 180 170 238 199 15 8 32 25 38 40 10 26 78 78
133 102 15 7 27 18 27 24 0 7 17 25 38 41 20 16 70 61 109 101 67 67 138 122
155 119 11 -2 37 37 38 55 0 9 9 24 20 34 14 12 17 22 10 30 -6 7 -6 15 2 23
6 6 8 18 5 26 -10 26 -59 18 -107 -18z m-2613 -482 c-3 -3 -12 -4 -19 -1 -8 3
-5 6 6 6 11 1 17 -2 13 -5z"/>
</g>
</svg>
