<?xml version="1.0" standalone="no"?>
<!DOCTYPE svg PUBLIC "-//W3C//DTD SVG 20010904//EN"
 "http://www.w3.org/TR/2001/REC-SVG-20010904/DTD/svg10.dtd">
<svg version="1.0" xmlns="http://www.w3.org/2000/svg"
 width="569.000000pt" height="453.000000pt" viewBox="0 0 569.000000 453.000000"
 preserveAspectRatio="xMidYMid meet">
<metadata>
Created by potrace 1.16, written by Peter Selinger 2001-2019
</metadata>
<g transform="translate(0.000000,453.000000) scale(0.100000,-0.100000)"
fill="#000000" stroke="none">
<path d="M2690 4254 c-86 -19 -240 -100 -240 -125 0 -6 -24 -41 -52 -76 -29
-36 -53 -68 -54 -71 0 -4 -6 -20 -12 -35 -7 -16 -12 -33 -12 -38 0 -5 -4 -9
-10 -9 -13 0 -51 -76 -57 -114 -2 -17 -11 -40 -18 -52 -8 -12 -12 -30 -11 -40
2 -10 -1 -30 -7 -44 -5 -14 -11 -41 -13 -60 -18 -161 -23 -219 -20 -236 2 -11
8 -47 12 -79 4 -33 8 -62 9 -65 12 -70 88 -246 116 -270 13 -12 17 -39 6 -43
-7 -2 -25 0 -42 5 -16 5 -43 11 -60 13 -16 2 -47 6 -67 10 -21 3 -44 3 -50 -2
-7 -4 -15 -8 -18 -8 -87 -12 -208 -57 -225 -85 -3 -5 -20 -16 -38 -25 -18 -8
-59 -40 -92 -70 -33 -30 -65 -55 -71 -55 -9 0 -54 -53 -54 -64 0 -10 -77 -86
-88 -86 -6 0 -19 -11 -28 -25 -9 -14 -19 -23 -23 -21 -3 2 -7 -6 -7 -19 -1
-13 -15 -37 -30 -53 -38 -40 -47 -51 -79 -103 -16 -24 -40 -55 -54 -69 -14
-14 -35 -38 -46 -54 -11 -15 -26 -34 -32 -41 -7 -8 -13 -20 -13 -28 0 -20 34
-57 53 -57 14 0 15 -4 4 -27 -6 -16 -16 -31 -21 -35 -13 -9 -36 1 -36 16 0 6
-10 27 -23 46 -13 19 -32 56 -43 82 -10 27 -22 48 -26 48 -5 0 -8 15 -8 34 0
19 -4 37 -9 41 -6 3 -9 13 -9 23 1 27 -10 90 -17 102 -4 6 -8 22 -10 36 -1 13
-14 35 -29 49 -14 13 -26 33 -26 43 0 21 -31 118 -56 177 -10 22 -18 49 -19
60 -5 68 -114 194 -185 214 -25 7 -56 18 -70 25 -14 7 -36 12 -48 11 -12 -1
-22 2 -22 6 0 5 -7 6 -15 3 -8 -4 -15 -1 -15 4 0 6 -24 16 -54 22 -42 9 -61
19 -90 50 -38 41 -99 66 -132 53 -39 -14 -82 -54 -82 -76 0 -12 -5 -41 -11
-64 -8 -30 -9 -49 -1 -62 5 -11 10 -32 10 -48 0 -31 52 -173 72 -200 35 -44
87 -85 163 -129 46 -27 84 -53 85 -57 0 -13 51 -77 61 -77 12 0 60 -47 63 -62
2 -7 8 -26 15 -42 6 -16 14 -101 16 -190 7 -223 9 -236 52 -431 15 -67 45
-168 63 -210 5 -11 16 -45 25 -75 9 -30 19 -62 22 -70 10 -26 12 -33 25 -103
10 -57 18 -73 48 -101 50 -46 76 -58 134 -61 47 -3 55 0 92 33 23 21 47 47 53
60 7 12 16 20 21 17 5 -3 16 7 24 22 19 36 75 89 104 98 12 3 22 11 22 16 0 5
7 9 15 9 8 0 15 5 15 11 0 5 15 17 33 25 17 7 48 24 68 36 20 13 69 43 110 67
41 24 82 51 91 59 14 12 20 12 33 2 8 -7 15 -19 15 -26 0 -8 5 -14 10 -14 11
0 5 -82 -10 -135 -35 -119 -29 -837 7 -894 21 -32 145 -151 159 -151 6 0 32
-11 57 -25 47 -24 231 -76 251 -70 6 2 77 6 158 9 80 4 159 8 175 11 62 11
137 16 333 22 272 9 327 8 375 -5 35 -10 140 -34 255 -61 24 -5 44 -3 63 6 22
11 27 20 27 52 0 21 5 52 11 70 10 29 8 35 -24 77 -25 31 -39 64 -47 102 -6
32 -16 66 -21 76 -6 11 -15 49 -20 85 -5 36 -13 95 -19 131 -12 80 -13 217 -1
224 4 3 11 30 14 59 4 30 18 89 33 133 14 43 26 87 27 98 1 10 16 28 34 40 18
11 35 28 38 36 3 8 17 23 30 33 21 15 25 15 25 3 0 -8 6 -21 14 -28 7 -8 17
-25 21 -38 4 -13 16 -32 26 -43 10 -11 21 -32 24 -46 3 -15 17 -35 31 -46 14
-10 33 -33 41 -49 18 -36 71 -86 90 -86 8 0 16 -6 19 -13 3 -8 33 -26 67 -41
34 -16 76 -34 92 -42 34 -16 182 -11 199 6 5 5 18 10 27 10 9 0 25 12 34 28
10 15 24 31 32 35 7 4 13 13 13 19 0 6 7 19 16 29 19 21 63 136 74 194 52 275
157 557 225 601 13 8 21 22 19 29 -3 7 3 18 13 23 10 6 34 33 53 61 39 57 59
67 165 77 52 5 73 11 83 25 7 11 21 19 31 19 10 0 21 3 25 8 4 4 11 7 15 7 8
0 32 19 71 58 16 16 43 30 61 32 18 3 36 10 40 16 4 6 11 9 17 5 12 -7 113 12
127 25 5 5 17 9 26 9 10 0 19 4 21 8 2 4 22 23 46 42 23 18 42 39 42 45 0 7 9
20 20 30 10 9 19 20 18 24 -1 3 1 13 5 21 13 36 16 112 4 132 -19 34 -50 58
-69 54 -10 -2 -18 0 -18 5 0 14 -51 11 -111 -8 -30 -9 -61 -17 -69 -18 -8 -1
-26 -6 -40 -12 -14 -6 -45 -11 -70 -12 -25 -1 -57 -3 -71 -4 -34 -3 -99 23
-99 40 0 7 -4 13 -10 13 -5 0 -10 7 -10 16 0 8 -6 22 -14 29 -7 8 -16 37 -20
66 -9 67 -34 103 -122 177 -19 16 -89 -1 -124 -30 -41 -34 -78 -105 -84 -158
-6 -48 -3 -80 18 -177 2 -12 12 -33 21 -47 19 -29 14 -56 -10 -56 -8 0 -15 -4
-15 -10 0 -5 -12 -16 -27 -24 -16 -8 -54 -40 -86 -71 -32 -30 -63 -55 -68 -55
-5 0 -9 -7 -9 -15 0 -8 -7 -15 -16 -15 -10 0 -14 -6 -10 -15 3 -9 0 -15 -9
-15 -8 0 -12 -6 -9 -13 2 -7 -7 -27 -21 -43 -40 -45 -45 -53 -45 -62 0 -5 -7
-16 -16 -23 -14 -11 -79 -105 -94 -134 -3 -5 -17 -29 -33 -52 -15 -24 -27 -48
-27 -54 0 -21 -25 -2 -35 27 -5 16 -20 47 -33 68 -13 22 -21 48 -18 58 2 11
-2 22 -9 25 -16 6 -87 147 -110 219 -9 27 -20 58 -25 69 -4 11 -16 47 -26 80
-9 33 -25 75 -35 93 -10 17 -17 32 -15 32 7 0 -70 183 -95 225 -58 99 -136
138 -249 124 -36 -4 -94 -9 -129 -10 -36 -1 -76 -8 -90 -15 -89 -42 -95 -19
-21 80 32 43 66 97 75 120 10 22 31 70 47 106 54 117 90 288 90 414 -2 191
-41 320 -133 434 -34 42 -67 80 -73 84 -6 3 -24 18 -40 31 -16 14 -41 31 -55
37 -14 7 -33 16 -42 20 -15 8 -29 11 -104 25 -11 2 -20 4 -20 5 0 8 -125 9
-164 2 -37 -7 -53 -6 -63 4 -21 20 -125 25 -198 8z m137 -104 c7 -8 13 -11 13
-6 0 5 6 3 14 -3 11 -9 20 -9 34 -2 11 6 22 8 24 5 3 -2 47 -7 99 -10 52 -4
96 -9 99 -13 3 -3 14 -7 25 -8 11 -1 34 -4 52 -6 45 -5 125 -69 193 -156 14
-18 30 -37 36 -44 16 -18 33 -72 52 -162 17 -82 19 -278 3 -299 -4 -6 -13 -38
-21 -71 -15 -73 -45 -152 -65 -172 -8 -8 -15 -19 -15 -25 0 -23 -56 -124 -85
-154 -16 -17 -44 -46 -61 -65 -43 -47 -78 -76 -103 -84 -12 -3 -21 -10 -21
-15 0 -15 -146 -81 -199 -89 -121 -19 -295 33 -392 118 -32 29 -59 56 -59 62
0 5 -15 30 -34 56 -86 121 -127 271 -122 444 2 59 7 113 12 121 5 7 10 22 11
33 13 92 84 296 113 325 3 3 12 18 20 33 20 40 135 157 153 157 8 0 20 7 27
15 7 9 15 14 17 11 2 -2 25 2 51 9 61 16 114 14 129 -5z m-2440 -1137 c7 -6
13 -14 13 -17 0 -4 41 -45 90 -93 50 -48 90 -93 90 -100 0 -18 57 -45 88 -41
22 2 28 9 30 33 2 16 -2 34 -10 40 -20 15 -50 65 -39 65 5 0 33 -9 63 -21 41
-16 61 -31 88 -69 19 -28 34 -54 32 -60 -1 -5 2 -10 8 -10 5 0 10 -9 10 -19 0
-11 4 -22 9 -25 9 -6 22 -54 27 -102 1 -17 14 -56 28 -88 14 -32 26 -69 26
-81 0 -13 7 -25 15 -29 8 -3 15 -16 15 -30 0 -14 4 -27 8 -30 5 -3 15 -37 22
-76 7 -39 17 -73 22 -76 4 -3 8 -12 8 -21 0 -22 69 -174 90 -198 32 -37 102
-199 115 -265 6 -29 13 -36 46 -44 18 -4 33 0 47 12 29 25 20 99 -19 157 -16
23 -29 50 -29 58 0 23 87 90 104 80 8 -4 32 -25 55 -45 22 -21 44 -38 49 -38
5 0 43 -36 85 -80 83 -85 127 -150 103 -150 -8 0 -16 -7 -20 -15 -5 -14 -110
-84 -112 -75 0 3 -8 -1 -16 -8 -8 -6 -37 -24 -63 -38 -100 -53 -163 -102 -274
-211 -74 -74 -121 -113 -135 -113 -35 0 -83 51 -77 84 1 4 -3 14 -9 20 -5 7
-7 15 -4 19 6 5 -24 102 -50 162 -21 48 -67 189 -81 250 -17 73 -35 174 -35
195 1 82 -8 242 -14 247 -3 3 -2 11 4 17 5 7 5 29 -1 56 -6 25 -8 59 -6 77 4
20 1 33 -8 36 -8 3 -11 15 -8 31 3 14 1 26 -4 26 -6 0 -18 16 -29 35 -10 19
-21 35 -24 35 -10 0 -87 76 -93 91 -3 9 0 22 6 28 8 8 7 11 -6 11 -24 0 -97
24 -97 31 0 4 -24 21 -53 37 -104 59 -167 165 -168 280 -1 92 28 110 88 55z
m4567 -259 c8 -27 20 -67 25 -89 12 -46 71 -119 115 -142 16 -8 47 -16 70 -17
48 -3 192 20 291 46 22 5 54 11 70 12 28 1 30 -1 27 -34 -2 -19 -8 -36 -13
-38 -5 -2 -9 -8 -9 -13 0 -16 -81 -84 -116 -96 -18 -6 -52 -12 -76 -12 -24 0
-65 -4 -93 -10 -27 -5 -53 -7 -57 -4 -5 2 -14 -8 -20 -24 -7 -15 -21 -36 -31
-46 -30 -30 -118 -70 -159 -73 -31 -2 -72 -9 -108 -19 -48 -14 -60 -18 -60
-25 0 -4 -34 -42 -75 -85 -41 -43 -75 -83 -75 -87 0 -5 -14 -27 -32 -49 -17
-22 -33 -48 -35 -58 -1 -11 -11 -34 -22 -53 -10 -18 -24 -51 -31 -73 -7 -22
-23 -68 -36 -102 -13 -34 -26 -75 -28 -90 -3 -15 -12 -50 -20 -76 -9 -27 -15
-52 -14 -55 1 -4 -2 -14 -5 -22 -6 -16 -29 -99 -51 -187 -14 -55 -51 -107 -96
-135 -34 -20 -110 -18 -161 5 -19 8 -48 19 -64 23 -31 8 -195 167 -195 190 0
7 -13 39 -29 71 -16 32 -33 72 -37 88 -4 17 -11 35 -16 42 -12 15 -2 33 18 33
8 0 14 5 14 10 0 6 6 10 13 10 7 0 27 13 44 29 33 30 168 111 185 111 10 0 67
23 101 41 19 10 21 6 7 -19 -5 -9 -17 -35 -27 -57 -9 -22 -41 -75 -70 -117
-29 -43 -53 -86 -53 -96 0 -32 24 -56 51 -49 35 10 41 17 68 72 14 28 27 52
30 55 3 3 17 25 30 50 14 25 31 51 38 58 7 7 13 20 13 29 0 8 16 37 35 63 19
26 38 62 41 79 4 17 10 31 15 31 4 0 10 9 14 19 5 17 85 135 115 168 5 7 10
16 10 20 0 4 10 17 23 28 13 11 32 34 43 50 33 52 217 245 233 245 6 0 21 10
35 23 13 12 38 34 54 49 21 19 29 34 25 48 -3 11 -9 20 -14 20 -5 0 -9 6 -9
14 0 7 -7 19 -15 26 -8 6 -14 15 -13 18 1 4 -4 19 -10 34 -38 92 -11 213 53
238 24 9 45 -21 69 -96z m-2747 63 c12 0 21 -8 21 -17 0 -8 8 -47 16 -86 15
-65 22 -78 74 -131 41 -42 87 -75 157 -112 109 -58 138 -64 285 -64 107 1 194
24 264 72 45 32 156 135 156 146 0 4 14 23 30 42 17 18 30 39 30 46 0 22 44
52 80 53 19 0 64 8 100 17 102 24 242 31 284 13 20 -8 36 -19 36 -24 0 -4 13
-24 30 -42 17 -18 30 -40 30 -48 0 -8 7 -26 15 -40 15 -27 38 -81 39 -94 1 -3
4 -10 9 -14 4 -4 7 -14 7 -22 0 -8 6 -28 14 -45 32 -70 46 -110 40 -118 -3 -5
2 -19 10 -31 9 -12 16 -32 16 -43 0 -11 9 -39 20 -60 11 -22 22 -51 25 -63 2
-13 8 -29 13 -35 8 -10 24 -58 26 -79 1 -4 7 -13 14 -19 6 -7 12 -18 12 -24 0
-5 11 -22 24 -36 13 -14 33 -45 44 -68 23 -48 26 -45 -68 -77 -30 -10 -66 -25
-80 -34 -14 -9 -38 -22 -55 -29 -38 -16 -205 -143 -261 -198 l-43 -43 0 100
c0 55 -5 108 -10 118 -9 17 -22 136 -25 233 -2 55 -36 81 -83 65 -21 -7 -29
-25 -23 -51 5 -22 29 -159 28 -164 0 -3 1 -8 2 -11 3 -7 7 -53 14 -175 5 -83
2 -111 -15 -170 -12 -38 -23 -81 -24 -95 -4 -35 -11 -61 -38 -149 -41 -132
-61 -243 -58 -321 2 -58 22 -190 32 -217 5 -13 7 -28 5 -32 -7 -10 56 -257 74
-291 8 -15 5 -18 -18 -18 -15 0 -40 3 -57 8 -16 5 -52 12 -80 15 -27 4 -69 11
-91 16 -40 8 -448 4 -462 -5 -4 -2 -41 -7 -82 -11 -41 -3 -97 -8 -125 -10
-358 -34 -569 4 -682 123 -44 46 -60 94 -63 186 0 28 -3 54 -6 58 -6 10 -6
288 1 443 5 132 12 196 25 230 6 15 13 46 15 69 3 22 14 68 24 101 33 107 50
169 57 210 4 22 9 44 11 48 3 5 6 31 7 59 1 42 -2 53 -23 69 -32 26 -49 24
-63 -6 -6 -14 -15 -25 -20 -25 -5 0 -8 -8 -6 -17 1 -10 -1 -23 -5 -30 -4 -6
-2 -23 4 -37 9 -19 9 -29 0 -40 -6 -7 -14 -31 -17 -52 -3 -22 -7 -52 -9 -68
-2 -15 -6 -30 -9 -33 -5 -5 -37 44 -80 122 -15 28 -42 64 -59 81 -18 16 -47
48 -66 69 -18 22 -47 48 -63 58 -16 9 -44 32 -62 50 -18 17 -48 43 -67 56 -65
47 -78 63 -68 88 5 13 25 40 44 60 19 20 35 40 35 44 0 9 28 45 63 81 9 10 17
21 17 24 0 4 11 17 26 30 14 13 22 24 18 24 -7 0 1 7 55 52 12 10 21 14 21 10
0 -4 8 7 19 23 20 33 191 213 191 202 0 -3 27 9 59 28 33 19 64 35 70 35 6 0
11 4 11 9 0 5 8 12 18 16 31 14 137 33 157 28 11 -2 30 -5 42 -6z m223 -26
c11 -13 160 -92 160 -85 0 2 18 -5 40 -16 22 -11 60 -23 85 -27 25 -3 47 -9
49 -12 5 -7 146 3 191 13 17 4 57 20 89 37 33 16 68 29 78 29 18 0 18 -2 4
-22 -40 -56 -121 -127 -178 -156 -50 -26 -81 -34 -153 -40 -160 -14 -262 21
-377 130 -55 50 -70 71 -77 105 -6 30 -5 43 3 46 16 6 80 4 86 -2z"/>
<path d="M3115 3852 c-11 -2 -32 -13 -46 -23 -14 -10 -29 -16 -33 -12 -3 3 -6
-8 -6 -25 0 -27 4 -32 23 -32 12 0 33 7 45 16 28 20 49 12 62 -21 8 -21 16
-26 38 -23 22 2 28 9 30 34 3 30 -2 38 -40 70 -18 14 -49 21 -73 16z"/>
<path d="M2718 3845 c-3 -4 -14 -8 -25 -9 -24 -4 -59 -64 -45 -78 7 -7 3 -27
-14 -64 -13 -30 -22 -54 -19 -54 2 0 -2 -19 -10 -41 -28 -78 -19 -116 43 -183
41 -45 70 -53 110 -29 55 34 122 140 122 193 0 16 4 31 9 34 10 6 -2 52 -25
97 -10 19 -10 29 -2 37 22 22 17 58 -11 75 -30 17 -122 33 -133 22z m42 -64
c0 -9 -24 -21 -42 -21 -6 0 -6 6 2 15 14 16 40 20 40 6z m-26 -142 c18 -21 26
-24 49 -16 15 5 25 13 21 18 -3 5 0 9 5 9 12 0 12 1 14 -55 1 -66 -12 -102
-48 -129 -42 -32 -62 -33 -90 -2 -43 47 -41 132 4 205 11 17 16 20 20 10 2 -8
14 -26 25 -40z"/>
<path d="M3061 3701 c-30 -32 -57 -82 -63 -116 -1 -11 -7 -23 -12 -26 -5 -4
-11 -37 -13 -73 -5 -58 -2 -70 18 -101 27 -38 59 -50 114 -39 39 7 95 48 95
69 0 7 6 18 13 24 8 6 20 55 27 111 13 96 12 101 -6 119 -25 23 -59 41 -85 46
-12 2 -29 7 -40 10 -14 5 -28 -2 -48 -24z m139 -105 c0 -41 -43 -147 -67 -165
-32 -26 -79 -27 -91 -3 -12 24 -6 93 12 136 14 35 16 36 58 31 24 -2 50 0 58
5 21 14 30 12 30 -4z"/>
<path d="M2776 3254 c-24 -23 -20 -53 8 -64 36 -13 145 -15 157 -3 21 21 -4
67 -39 74 -17 3 -35 2 -40 -3 -6 -6 -17 -6 -30 1 -28 15 -38 14 -56 -5z"/>
<path d="M2552 3050 l3 -35 140 -1 c77 0 142 -2 145 -3 3 -2 17 -5 33 -7 33
-3 104 -52 113 -76 8 -26 60 -24 74 2 12 23 5 60 -11 60 -6 0 -24 13 -40 29
-52 52 -113 66 -297 66 l-163 0 3 -35z"/>
</g>
</svg>
