<?xml version="1.0" standalone="no"?>
<!DOCTYPE svg PUBLIC "-//W3C//DTD SVG 20010904//EN"
 "http://www.w3.org/TR/2001/REC-SVG-20010904/DTD/svg10.dtd">
<svg version="1.0" xmlns="http://www.w3.org/2000/svg"
 width="535.000000pt" height="471.000000pt" viewBox="0 0 535.000000 471.000000"
 preserveAspectRatio="xMidYMid meet">
<metadata>
Created by potrace 1.16, written by Peter Selinger 2001-2019
</metadata>
<g transform="translate(0.000000,471.000000) scale(0.100000,-0.100000)"
fill="#000000" stroke="none">
<path d="M4334 4540 c-30 -7 -145 -78 -190 -117 -12 -10 -28 -31 -37 -48 -8
-16 -27 -41 -41 -54 -14 -14 -26 -32 -26 -42 0 -10 -6 -24 -14 -32 -17 -16
-46 -164 -46 -231 0 -26 5 -56 11 -67 6 -11 12 -62 13 -112 2 -51 8 -104 14
-118 6 -15 8 -30 5 -33 -4 -3 -1 -6 5 -6 7 0 12 -8 12 -19 0 -21 99 -139 118
-140 6 -1 12 -5 12 -10 0 -9 31 -42 81 -86 34 -31 144 -82 165 -77 6 1 28 -5
48 -13 35 -15 37 -18 34 -58 l-3 -42 -85 1 c-146 3 -146 3 -159 28 -10 18 -19
22 -39 18 -40 -7 -52 -20 -46 -51 3 -15 2 -43 -3 -62 -6 -19 -6 -47 -1 -64 14
-51 18 -77 24 -160 5 -77 5 -82 -25 -128 -17 -26 -31 -52 -31 -58 0 -5 -18
-29 -40 -53 -22 -24 -40 -47 -40 -52 0 -5 -11 -22 -25 -38 -14 -16 -25 -33
-25 -37 0 -4 -12 -22 -27 -39 -15 -18 -34 -45 -42 -60 -23 -40 -73 -100 -84
-100 -5 0 -21 -9 -35 -19 -15 -10 -66 -31 -114 -45 -48 -15 -90 -32 -94 -37
-3 -6 -12 -8 -20 -5 -8 3 -29 -1 -47 -8 -17 -8 -59 -19 -92 -26 -33 -6 -73
-18 -89 -26 -28 -14 -30 -14 -52 13 -13 15 -23 31 -24 34 0 15 -108 62 -142
63 -21 0 -38 4 -38 8 0 5 -13 8 -30 8 -32 0 -100 -29 -100 -42 0 -13 -54 -9
-75 5 -25 17 -111 19 -150 3 -16 -7 -52 -13 -80 -15 -59 -3 -118 -29 -160 -68
-16 -15 -33 -27 -37 -25 -5 1 -8 -5 -8 -14 0 -9 -7 -14 -18 -12 -11 2 -26 -3
-35 -11 -13 -10 -17 -11 -17 -1 0 10 -5 9 -17 -3 -11 -9 -45 -17 -84 -21 -37
-3 -96 -12 -130 -20 -35 -8 -91 -17 -124 -21 -33 -4 -71 -8 -85 -11 -14 -2
-53 -1 -86 2 l-62 7 -15 56 c-17 63 -80 240 -102 286 -29 62 -57 142 -69 198
-13 61 -16 65 -93 100 -21 10 -33 11 -36 4 -4 -12 -91 19 -112 39 -7 8 -49 16
-96 19 -142 10 -143 11 -113 84 l16 39 72 -5 c39 -3 104 0 144 7 107 18 228
101 327 225 17 20 38 46 47 56 10 10 31 43 47 71 17 29 40 71 52 93 66 116
126 356 135 540 3 63 -1 101 -22 180 -24 91 -65 174 -87 175 -4 0 -22 13 -40
30 -17 16 -44 32 -59 36 -16 3 -28 9 -28 13 0 18 -136 54 -195 51 -136 -5
-168 -14 -211 -56 -18 -19 -38 -34 -44 -34 -5 0 -18 -8 -29 -17 -10 -10 -39
-34 -63 -53 -25 -19 -55 -49 -67 -66 -11 -16 -31 -41 -43 -54 -13 -13 -27 -32
-33 -41 -5 -10 -34 -50 -62 -90 -29 -40 -53 -81 -53 -91 0 -10 -4 -18 -10 -18
-5 0 -10 -6 -10 -14 0 -8 -11 -28 -25 -44 -14 -17 -25 -40 -25 -53 0 -12 -6
-30 -13 -38 -15 -18 -33 -75 -43 -136 -3 -22 -8 -43 -10 -47 -6 -10 -17 -142
-17 -214 0 -119 95 -266 224 -345 43 -27 47 -40 22 -67 -10 -10 -19 -25 -21
-33 -9 -37 -44 -49 -81 -30 -9 5 -35 12 -57 15 -68 9 -188 37 -200 47 -7 5
-34 12 -61 15 -26 3 -54 7 -61 9 -6 3 -12 -2 -12 -10 0 -8 -5 -15 -11 -15 -6
0 -9 -7 -5 -15 3 -8 1 -15 -4 -15 -6 0 -10 -4 -10 -10 0 -25 -85 -111 -196
-197 -98 -78 -174 -149 -167 -157 4 -3 0 -6 -7 -6 -7 0 -37 -20 -66 -45 -28
-25 -57 -45 -64 -45 -6 0 -18 -7 -26 -15 -13 -13 -15 -74 -13 -437 1 -233 4
-431 6 -440 2 -9 18 -24 34 -32 28 -14 31 -13 47 4 43 48 44 50 32 83 -6 18
-13 99 -16 181 -2 82 -7 153 -10 158 -7 12 -6 323 2 365 7 35 58 96 119 142
17 13 63 54 102 92 40 38 76 69 80 69 4 0 27 17 52 38 90 73 85 71 77 37 -4
-16 -9 -41 -11 -55 -2 -14 -10 -45 -19 -70 -9 -25 -16 -56 -16 -70 0 -28 -24
-145 -40 -200 -6 -19 -13 -50 -16 -69 -3 -19 -10 -46 -16 -60 -5 -14 -16 -57
-24 -96 -8 -38 -20 -88 -25 -110 -17 -67 -38 -205 -45 -290 -3 -44 -12 -96
-19 -115 -7 -20 -11 -47 -8 -60 2 -14 -2 -34 -10 -44 -13 -18 -12 -25 11 -65
13 -25 30 -53 37 -61 13 -16 64 -144 102 -255 55 -163 63 -189 63 -222 0 -37
-21 -129 -47 -203 -8 -25 -16 -49 -18 -55 -1 -5 -4 -13 -5 -17 -2 -4 -8 -40
-15 -80 -15 -91 -31 -153 -61 -245 -30 -89 -30 -117 -2 -143 20 -18 30 -20 78
-13 30 4 69 6 85 6 270 -10 315 -1 315 61 0 56 -56 96 -89 63 -8 -8 -53 -12
-152 -12 -76 0 -139 1 -139 1 0 1 11 35 24 75 13 41 26 103 30 139 5 58 23
127 47 185 16 40 58 211 62 255 3 32 -1 52 -13 70 -10 14 -26 51 -35 83 -9 31
-21 57 -26 57 -6 0 -8 4 -4 9 8 14 -29 120 -71 202 -19 38 -35 77 -37 86 -2
10 -8 28 -15 40 -15 28 -15 34 1 28 6 -3 39 -9 72 -14 33 -5 85 -16 115 -24
30 -8 58 -13 62 -11 3 2 84 -7 179 -22 94 -14 181 -23 192 -20 11 2 40 -2 64
-10 25 -9 60 -14 79 -12 37 3 60 -19 68 -64 3 -12 5 -23 6 -23 1 0 3 -13 5
-30 2 -16 12 -53 23 -80 11 -28 30 -93 42 -145 12 -52 25 -102 29 -110 13 -26
39 -142 44 -198 6 -65 -14 -162 -47 -226 -15 -27 -26 -59 -26 -71 0 -13 -7
-42 -16 -66 -9 -24 -18 -57 -21 -74 -3 -16 -9 -35 -14 -41 -5 -6 -7 -13 -4
-16 3 -3 -1 -22 -8 -44 -8 -21 -12 -56 -9 -76 l4 -38 205 0 c188 0 205 1 199
17 -4 9 -2 19 4 23 7 4 0 19 -19 39 -25 26 -36 32 -58 27 -53 -11 -223 -17
-223 -8 0 4 6 31 14 58 8 27 22 85 31 129 9 44 30 107 45 140 50 105 77 248
51 264 -8 5 -21 50 -26 91 -1 8 -5 22 -8 30 -22 60 -51 161 -73 250 -14 58
-29 122 -35 142 -9 37 -14 73 -24 177 -3 30 -1 78 5 108 6 29 13 67 15 84 2
17 9 45 14 62 5 18 14 57 19 87 15 81 39 206 56 280 8 36 17 81 20 100 6 39
54 255 56 255 1 0 3 7 5 15 30 129 32 135 40 110 4 -14 20 -52 36 -85 15 -33
31 -73 35 -90 4 -16 10 -34 14 -40 15 -19 51 -140 60 -199 11 -74 38 -106 83
-100 18 3 84 7 147 10 63 3 131 10 150 14 19 5 55 14 80 20 25 7 100 13 168
15 113 2 122 1 122 -16 0 -25 85 -110 132 -132 44 -21 126 -22 154 -3 11 8 37
18 59 22 48 9 87 28 77 39 -4 4 22 4 58 1 134 -13 315 0 330 25 4 6 11 11 16
12 11 2 54 64 54 77 0 6 6 10 14 10 8 0 21 6 28 14 18 18 78 48 78 40 0 -4 8
0 18 8 9 9 28 19 42 22 14 4 34 11 45 16 11 5 46 16 77 25 32 9 60 21 64 26 3
5 9 7 14 4 5 -3 35 3 67 14 33 11 68 18 78 17 11 -2 26 1 33 7 6 5 12 6 12 1
0 -5 12 13 26 40 30 56 264 374 265 360 0 -5 3 -27 7 -49 7 -42 7 -170 0 -388
l-3 -128 -35 -27 c-19 -15 -56 -38 -84 -52 -78 -39 -87 -110 -17 -136 30 -12
45 -6 95 39 17 15 34 27 38 27 12 0 14 -135 3 -162 -4 -10 -3 -18 2 -18 5 0 9
-18 9 -41 -1 -22 2 -43 7 -46 4 -2 3 -12 -2 -21 -4 -9 -9 -33 -9 -53 -1 -20
-6 -47 -11 -61 -5 -14 -8 -28 -5 -31 3 -2 -2 -36 -11 -73 -9 -38 -18 -79 -19
-91 -2 -12 -15 -50 -29 -85 -14 -35 -28 -80 -32 -100 -3 -21 -13 -42 -22 -46
-9 -5 -14 -16 -11 -24 3 -7 -2 -29 -11 -48 -17 -34 -16 -38 6 -105 88 -271
127 -383 138 -400 17 -30 35 -85 41 -130 4 -22 14 -63 23 -92 10 -29 15 -56
12 -61 -8 -13 -94 -29 -163 -31 -40 -1 -65 3 -84 15 -26 18 -27 18 -60 -19
-41 -44 -43 -70 -9 -99 20 -18 63 -28 78 -18 1 0 18 3 37 4 127 12 186 24 232
48 20 11 44 21 52 22 22 3 47 27 40 38 -4 6 -2 13 5 17 7 5 0 29 -23 77 -20
38 -37 91 -40 119 -5 55 -10 71 -49 156 -14 30 -36 87 -48 125 -11 38 -25 78
-30 89 -21 49 -49 181 -46 214 3 20 25 98 50 174 25 76 49 158 53 182 3 25 10
48 15 51 5 3 7 10 4 15 -4 5 -3 14 1 21 4 7 9 21 11 33 6 47 12 72 21 103 12
37 12 36 12 57 0 9 9 15 23 15 12 0 54 7 92 16 39 9 102 18 141 19 61 3 259
32 347 51 32 7 33 4 11 -79 -8 -33 -16 -73 -16 -89 -1 -16 -5 -31 -10 -34 -4
-3 -8 -18 -8 -33 0 -15 -3 -31 -7 -35 -4 -3 -8 -12 -9 -19 -18 -107 -67 -279
-85 -302 -9 -12 -7 -28 9 -68 7 -16 12 -32 12 -38 0 -5 13 -39 29 -76 27 -65
84 -237 111 -333 7 -25 16 -56 21 -70 5 -14 12 -37 14 -51 3 -15 14 -46 24
-70 11 -24 21 -61 23 -82 3 -37 1 -40 -36 -52 -22 -8 -57 -17 -78 -20 -21 -4
-38 -10 -38 -14 0 -3 -22 -15 -50 -26 -27 -11 -50 -23 -50 -27 0 -4 -7 -8 -15
-8 -18 0 -19 -16 -4 -59 20 -56 71 -64 114 -17 19 20 104 56 133 56 7 0 38 11
68 25 30 14 59 25 64 25 22 0 23 96 0 125 -4 6 -13 35 -20 65 -7 30 -23 82
-35 115 -13 33 -34 96 -48 140 -73 236 -92 293 -109 323 -10 18 -19 51 -20 75
-2 55 16 163 36 208 8 21 18 67 21 105 3 37 9 72 14 78 9 12 24 67 45 171 8
39 20 88 25 110 6 23 9 61 7 85 -1 25 6 88 17 140 10 52 20 140 22 195 10 287
15 393 20 421 6 37 14 170 20 339 2 66 7 161 10 212 7 91 7 91 -20 109 -31 20
-78 21 -250 4 -66 -7 -136 -13 -155 -15 -19 -2 -59 -6 -87 -10 l-53 -7 0 49
c0 52 12 73 43 73 11 0 42 23 69 50 27 28 53 50 58 50 11 0 55 93 80 170 18
52 23 99 27 241 5 156 3 184 -16 261 -29 120 -70 210 -118 260 -67 71 -125
118 -145 118 -10 0 -31 8 -45 17 -29 19 -160 27 -219 13z m178 -115 c38 -5 57
-15 93 -48 24 -23 55 -49 68 -59 25 -18 83 -144 91 -199 18 -120 25 -198 21
-224 -2 -16 -7 -66 -10 -110 -6 -97 -11 -113 -54 -192 -32 -59 -91 -119 -105
-106 -3 4 -6 -1 -6 -10 0 -11 -8 -17 -22 -18 -13 0 -45 -2 -72 -4 -68 -4 -127
16 -194 66 l-57 43 55 14 c30 7 60 14 66 15 5 2 23 13 38 25 16 12 33 22 38
22 21 0 45 44 42 78 -3 40 -2 39 -36 47 -21 5 -33 1 -53 -19 -14 -14 -30 -26
-34 -26 -5 0 -11 -6 -14 -13 -8 -22 -81 -39 -112 -27 -20 8 -34 7 -55 -4 -32
-16 -41 -12 -62 29 -36 70 -41 85 -35 122 5 27 2 46 -9 61 -11 16 -15 43 -13
98 4 153 43 257 127 342 60 61 105 89 156 98 17 3 32 7 34 9 2 2 18 2 35 0 18
-3 53 -7 79 -10z m-2901 -150 c78 -22 174 -74 223 -120 35 -33 45 -52 60 -110
19 -75 22 -160 7 -228 -6 -23 -12 -53 -14 -67 -18 -93 -58 -230 -69 -230 -4 0
-8 -7 -8 -16 0 -9 -18 -50 -41 -90 l-40 -74 -52 5 c-136 12 -175 17 -219 31
-80 26 -133 1 -106 -49 14 -27 103 -142 140 -182 15 -16 28 -33 28 -37 0 -17
-79 -57 -135 -69 -188 -38 -345 34 -436 201 -22 40 -27 62 -28 137 -1 48 3
120 9 158 10 64 49 188 71 225 5 8 24 44 43 80 32 61 115 183 141 205 6 6 24
28 40 49 35 48 84 96 99 96 16 0 67 46 59 54 -3 3 0 6 8 6 8 1 32 9 54 20 49
24 94 25 166 5z m1 -1015 c27 0 48 -3 48 -7 0 -4 -10 -21 -22 -38 -21 -31 -22
-32 -52 -17 -27 14 -86 66 -86 77 0 2 15 -1 32 -6 18 -5 54 -9 80 -9z m3427
-95 c-1 -5 -15 -37 -31 -71 -27 -58 -37 -87 -72 -219 -9 -33 -21 -69 -26 -80
-18 -40 -40 -116 -40 -140 0 -13 -4 -34 -9 -47 -5 -13 -16 -48 -26 -78 -10
-30 -24 -62 -31 -71 -8 -8 -14 -21 -14 -29 0 -16 -30 -39 -52 -40 -9 0 -18 -4
-20 -8 -1 -5 -48 -33 -103 -63 -55 -29 -109 -59 -120 -66 -11 -7 -31 -17 -45
-23 -34 -15 -68 -33 -112 -58 -26 -15 -38 -18 -39 -9 -3 37 2 209 7 253 3 28
1 94 -5 147 -6 53 -13 167 -16 254 -2 87 -7 191 -11 231 l-6 74 24 -8 c35 -11
165 -3 190 12 4 3 20 -1 35 -9 28 -13 63 -12 73 3 6 9 125 27 230 35 113 8
185 16 189 21 9 8 32 -1 30 -11z m24 -287 c-1 -18 -5 -67 -7 -108 -3 -41 -7
-100 -10 -130 -3 -30 -8 -104 -11 -165 -3 -60 -8 -137 -11 -170 -2 -33 -6
-100 -9 -150 -2 -49 -11 -113 -20 -142 -8 -28 -14 -55 -13 -60 1 -4 -2 -27 -6
-50 -7 -39 -10 -43 -44 -48 -20 -3 -50 -9 -67 -14 -16 -4 -56 -9 -88 -10 -32
-1 -74 -9 -94 -17 -21 -9 -61 -14 -97 -13 -34 1 -85 -6 -115 -15 -30 -9 -74
-16 -97 -16 -39 0 -43 3 -53 33 -5 17 -13 72 -16 120 l-6 89 43 39 c24 21 46
39 51 39 4 0 24 10 45 23 20 13 57 29 81 37 24 8 53 22 65 31 13 10 68 41 124
70 56 28 102 55 102 58 0 4 18 15 39 24 37 17 40 21 50 81 6 36 18 83 26 106
8 24 15 53 15 66 0 13 5 24 11 24 6 0 9 6 7 12 -3 7 6 43 19 81 13 38 23 77
23 88 0 10 4 19 9 19 6 0 18 27 27 61 17 61 32 65 27 7z m-4324 -93 c43 -4
114 -16 146 -25 17 -5 53 -12 80 -16 28 -3 66 -12 85 -19 34 -13 76 -21 150
-30 100 -12 120 -16 161 -34 24 -12 52 -21 61 -21 9 0 18 -5 20 -11 8 -24 -13
-198 -32 -259 -16 -56 -29 -117 -54 -263 -3 -16 -9 -43 -15 -60 -10 -31 -38
-174 -45 -232 -2 -17 -14 -67 -25 -112 -12 -45 -21 -94 -21 -110 0 -17 -3 -33
-7 -37 -7 -7 -11 -32 -14 -87 -2 -54 -11 -62 -65 -61 -68 0 -177 13 -189 22
-5 4 -21 4 -35 1 -24 -7 -137 12 -169 28 -9 4 -34 6 -56 5 -22 -2 -56 1 -75 6
-19 4 -71 16 -115 26 -122 27 -119 24 -111 108 22 241 32 303 66 390 15 41 50
201 50 233 0 16 7 37 15 47 8 11 15 35 15 53 0 35 13 98 36 178 8 28 17 68 19
90 6 62 13 85 32 114 10 14 18 28 18 31 5 23 30 58 38 53 6 -3 22 -7 36 -8z
m2389 -567 c6 -6 22 -13 34 -15 27 -4 58 -31 58 -50 0 -8 4 -12 9 -9 14 9 22
-23 11 -44 -17 -32 -68 -62 -103 -59 -17 1 -39 -1 -47 -4 -35 -15 -120 -5
-120 14 0 5 -3 8 -7 7 -5 -1 -19 2 -32 6 -30 10 -104 -12 -97 -29 6 -16 -102
-64 -158 -71 -39 -4 -47 -1 -74 26 -17 16 -35 30 -41 30 -6 0 -11 7 -11 15 0
7 -8 18 -17 24 -17 9 -17 10 0 28 9 11 17 24 17 30 0 5 17 18 38 29 20 10 39
22 42 26 3 4 30 10 60 14 30 4 60 7 65 8 6 1 15 4 20 7 19 12 78 2 90 -14 7
-9 17 -17 22 -17 6 0 16 -6 23 -14 14 -18 37 -11 75 25 17 16 48 33 70 38 55
13 59 13 73 -1z"/>
<path d="M4194 4105 c-10 -8 -15 -15 -11 -15 4 0 3 -9 -3 -19 -8 -16 -4 -24
21 -45 35 -29 62 -28 91 5 44 52 -41 117 -98 74z"/>
<path d="M1648 3813 c-16 -20 2 -72 33 -95 57 -43 106 9 73 78 -15 32 -20 34
-56 32 -21 -1 -44 -8 -50 -15z"/>
</g>
</svg>
