<?xml version="1.0" standalone="no"?>
<!DOCTYPE svg PUBLIC "-//W3C//DTD SVG 20010904//EN"
 "http://www.w3.org/TR/2001/REC-SVG-20010904/DTD/svg10.dtd">
<svg version="1.0" xmlns="http://www.w3.org/2000/svg"
 width="397.000000pt" height="459.000000pt" viewBox="0 0 397.000000 459.000000"
 preserveAspectRatio="xMidYMid meet">
<metadata>
Created by potrace 1.16, written by Peter Selinger 2001-2019
</metadata>
<g transform="translate(0.000000,459.000000) scale(0.100000,-0.100000)"
fill="#000000" stroke="none">
<path d="M1839 4376 c-71 -29 -179 -99 -179 -115 0 -5 -18 -21 -40 -36 -59
-41 -177 -230 -194 -312 -4 -18 -16 -50 -27 -72 -10 -22 -19 -45 -19 -50 0 -6
-7 -8 -15 -5 -26 10 -81 -5 -106 -29 -27 -26 -41 -47 -66 -94 -9 -18 -20 -33
-25 -33 -12 0 2 -137 24 -230 18 -75 60 -175 80 -190 9 -7 53 -84 68 -119 11
-26 47 -61 62 -61 4 0 15 -15 23 -32 7 -18 25 -59 39 -90 14 -31 26 -60 26
-63 0 -4 9 -19 20 -35 11 -15 17 -29 14 -32 -2 -3 2 -11 11 -18 20 -17 19 -24
-12 -73 -38 -58 -43 -61 -173 -103 -63 -20 -123 -41 -132 -45 -10 -5 -29 -9
-43 -9 -14 0 -44 -9 -68 -19 -23 -10 -71 -25 -107 -31 -36 -7 -69 -16 -75 -20
-5 -4 -21 -10 -35 -13 -37 -8 -159 -52 -167 -60 -3 -4 -14 -7 -23 -7 -22 0
-89 -51 -90 -68 0 -7 -7 -15 -15 -18 -8 -4 -15 -12 -15 -19 0 -8 -5 -26 -12
-42 -6 -15 -12 -34 -14 -41 -1 -8 -6 -21 -10 -30 -24 -55 -33 -137 -39 -331
-3 -101 -7 -187 -10 -191 -2 -4 -7 -63 -10 -131 -3 -68 -7 -146 -9 -174 -3
-27 -10 -122 -16 -210 -5 -88 -15 -180 -20 -205 -20 -88 -41 -185 -45 -210 -2
-14 -7 -36 -10 -50 -36 -136 -42 -277 -15 -316 61 -86 111 -112 167 -89 27 11
32 11 46 -6 13 -15 26 -17 79 -13 35 3 83 6 108 8 115 8 219 19 258 27 29 6
49 6 63 -2 17 -9 33 -5 85 20 47 22 83 32 132 35 38 2 78 9 89 14 11 6 42 16
68 22 26 6 73 22 104 36 31 15 96 39 144 55 48 16 102 39 120 52 18 13 45 30
62 38 16 7 48 32 70 55 22 22 54 49 70 59 17 10 38 29 48 42 25 32 41 29 63
-12 11 -21 30 -39 49 -45 17 -5 42 -21 56 -34 16 -15 31 -21 39 -16 7 5 32 -2
60 -16 27 -13 63 -27 82 -30 123 -21 196 -38 213 -50 11 -8 27 -14 36 -14 9 0
22 -7 29 -15 6 -8 15 -14 18 -13 4 1 27 -2 52 -6 25 -4 52 -8 60 -10 8 -1 26
-8 40 -16 14 -8 30 -15 35 -16 6 -1 53 -17 105 -34 52 -18 113 -34 135 -36 22
-2 60 -7 85 -11 25 -3 57 -5 71 -4 14 1 44 -4 67 -12 26 -9 45 -11 48 -5 3 5
13 7 21 4 8 -3 32 3 54 14 21 11 39 18 39 14 0 -7 84 58 88 68 2 5 8 8 14 8
15 0 47 42 48 63 0 9 4 17 9 17 9 0 29 47 37 90 3 14 9 26 13 28 5 1 5 24 0
50 -9 54 -18 180 -25 337 -11 269 -10 257 -34 380 -11 55 -14 112 -21 388 -2
54 -7 100 -11 103 -5 3 -6 9 -4 12 5 9 -12 171 -20 192 -3 8 -7 31 -8 50 -3
42 -42 126 -62 134 -8 3 -14 10 -14 16 0 6 -6 18 -12 25 -7 8 -22 26 -33 41
-38 49 -66 71 -123 94 -31 13 -64 29 -72 36 -16 13 -42 21 -100 29 -43 6 -121
21 -180 36 -25 5 -74 14 -109 19 -36 6 -85 17 -111 25 -46 15 -130 84 -130
107 -1 18 -25 48 -39 48 -15 0 -14 11 3 24 8 6 44 70 81 141 36 72 74 137 84
145 25 21 79 102 102 155 11 25 24 45 28 45 5 0 12 12 15 26 6 24 36 96 55
134 9 17 27 98 34 150 3 20 -1 53 -9 75 -7 22 -14 48 -14 58 0 10 -7 20 -15
23 -8 4 -15 14 -15 23 0 9 -9 27 -20 41 -16 22 -27 25 -78 25 -64 0 -69 5 -93
85 -11 39 -73 175 -81 178 -5 2 -8 9 -8 16 0 7 -8 21 -17 32 -10 10 -36 43
-58 71 -21 29 -47 55 -56 58 -10 3 -50 30 -90 60 -40 29 -77 52 -80 49 -4 -2
-10 0 -14 6 -3 5 -15 10 -26 10 -10 0 -19 5 -19 11 0 6 -6 9 -12 6 -7 -2 -26
2 -42 10 -15 8 -37 13 -47 10 -11 -3 -21 -2 -23 2 -4 6 -136 6 -236 0 -8 -1
-28 1 -45 3 -19 3 -57 -6 -106 -26z m254 -77 c26 1 47 -4 47 -9 0 -6 11 -8 25
-4 14 3 32 1 39 -5 8 -7 20 -11 28 -10 37 7 185 -57 226 -97 7 -7 29 -23 50
-34 21 -12 49 -39 62 -61 14 -21 27 -39 31 -39 9 0 94 -174 117 -240 11 -30
23 -64 27 -75 4 -11 9 -29 10 -40 2 -11 8 -38 14 -60 12 -48 7 -286 -8 -334
-6 -19 -8 -38 -5 -42 3 -5 0 -9 -6 -9 -6 0 -9 -4 -6 -8 7 -12 -24 -112 -35
-112 -6 0 -8 -4 -4 -10 3 -5 -1 -25 -9 -45 -8 -19 -12 -35 -8 -35 4 0 3 -4 -3
-8 -5 -4 -23 -33 -40 -64 -16 -32 -33 -58 -36 -58 -4 0 -9 -10 -13 -22 -3 -13
-33 -53 -66 -90 -50 -55 -77 -75 -153 -111 -161 -78 -210 -86 -367 -56 -178
34 -250 63 -321 130 -39 37 -99 125 -99 145 0 7 -3 14 -7 16 -14 6 -43 65 -43
86 0 12 -4 23 -9 26 -8 5 -24 60 -36 124 -2 13 -7 32 -10 42 -28 87 -40 180
-40 305 0 142 8 211 30 274 8 23 15 43 15 46 2 14 13 43 26 67 8 14 14 34 14
43 0 22 27 71 63 113 15 18 27 37 27 42 0 5 35 45 78 89 56 58 95 88 142 110
59 28 71 30 135 25 38 -3 91 -5 118 -5z m811 -647 c36 -53 48 -99 34 -126 -7
-11 -13 -30 -13 -41 -4 -40 -18 -85 -27 -85 -5 0 -7 -4 -4 -9 3 -4 -1 -17 -9
-27 -13 -17 -15 -10 -16 71 -2 108 -2 92 4 140 3 22 2 49 -2 60 -7 17 -4 55 4
55 1 0 14 -17 29 -38z m-1549 -2 c-14 -66 -7 -333 10 -360 3 -6 1 -10 -5 -10
-5 0 -18 17 -28 38 -9 20 -20 39 -23 42 -3 3 -10 19 -14 35 -22 80 -28 176
-14 211 7 16 13 32 13 36 2 12 20 26 41 31 11 3 21 5 23 6 2 0 1 -13 -3 -29z
m1262 -1071 c21 -23 55 -50 76 -60 20 -11 37 -23 37 -28 0 -9 89 -29 180 -40
30 -4 60 -10 66 -14 13 -7 137 -37 169 -40 11 -1 25 -5 31 -9 5 -4 19 -5 30
-4 23 4 176 -73 168 -85 -3 -5 -1 -9 4 -9 5 0 33 -22 61 -49 65 -62 99 -142
111 -258 5 -46 7 -92 5 -102 -2 -10 1 -38 7 -62 5 -24 11 -114 13 -199 2 -85
5 -162 8 -170 3 -8 8 -37 10 -65 3 -27 8 -68 11 -90 22 -141 27 -250 11 -287
-4 -10 -3 -18 2 -18 5 0 10 -30 10 -67 1 -38 4 -90 8 -118 24 -192 17 -222
-79 -320 -47 -48 -70 -64 -101 -70 -65 -13 -129 -13 -150 1 -12 8 -36 13 -55
12 -44 -3 -121 11 -138 25 -7 5 -28 10 -46 9 -21 -1 -40 6 -51 18 -9 10 -23
16 -31 13 -8 -3 -26 2 -40 11 -27 18 -71 28 -116 27 -16 -1 -28 3 -28 7 0 9
-179 66 -243 78 -20 3 -40 10 -43 15 -3 5 -13 9 -24 9 -10 0 -50 14 -89 30
-39 17 -74 29 -78 28 -29 -8 -99 63 -124 126 -8 23 -21 40 -27 39 -18 -4 -7
105 13 127 15 16 17 50 18 237 1 120 -1 282 -4 361 l-5 142 27 31 28 31 10
-39 c6 -21 17 -70 25 -108 8 -39 19 -88 25 -110 12 -47 16 -223 6 -311 -7 -64
-2 -76 42 -86 46 -12 53 15 54 193 2 205 1 215 -16 266 -18 52 -24 81 -37 163
-5 36 -15 74 -22 85 -22 33 -30 86 -15 96 14 9 57 -46 64 -83 3 -12 14 -31 25
-43 19 -20 56 -136 58 -180 0 -11 3 -99 6 -195 5 -197 12 -234 44 -238 34 -5
61 14 55 40 -5 19 -3 21 7 11 11 -10 11 -20 1 -50 -11 -32 -10 -43 3 -68 9
-16 16 -37 16 -47 0 -17 75 -78 97 -78 7 0 13 -4 13 -10 0 -5 5 -10 11 -10 6
0 23 -9 39 -20 15 -11 30 -16 34 -13 11 11 105 2 134 -13 15 -7 35 -14 44 -14
9 0 20 -4 23 -10 3 -5 16 -10 27 -10 24 0 83 -17 113 -33 17 -8 102 -11 138
-4 21 4 27 59 9 84 -13 18 -25 23 -49 20 -31 -3 -32 -2 -32 38 0 43 -6 94 -17
135 -8 29 -11 59 -18 191 -2 53 -7 111 -11 130 -13 74 -16 110 -21 270 -4 130
-2 178 10 223 17 68 14 82 -22 89 -44 9 -68 -15 -77 -75 -8 -59 -7 -376 1
-389 8 -14 12 -42 19 -140 3 -52 8 -116 10 -144 6 -60 17 -242 16 -269 0 -33
-16 -38 -57 -21 -48 20 -64 25 -136 36 -32 5 -73 16 -90 24 -71 34 -117 62
-111 68 3 4 0 13 -7 22 -8 9 -10 27 -6 47 7 32 10 67 16 173 10 167 -74 488
-148 570 -18 19 -32 38 -32 41 0 15 -34 44 -51 44 -9 0 -19 4 -21 10 -1 5 -17
14 -35 19 -24 7 -35 6 -44 -5 -6 -8 -22 -14 -35 -14 -12 0 -26 -4 -29 -10 -3
-5 -21 -10 -39 -10 -27 0 -36 -6 -55 -40 -13 -23 -19 -45 -14 -52 4 -7 6 -24
4 -38 -3 -30 -21 -52 -21 -26 0 21 -38 55 -62 56 -10 0 -18 7 -18 15 0 10 -10
15 -34 15 -43 0 -66 -9 -66 -25 0 -7 -7 -15 -15 -19 -8 -3 -15 -15 -15 -26 0
-11 -7 -23 -15 -26 -8 -4 -12 -10 -9 -16 3 -5 -6 -27 -20 -48 -16 -24 -26 -54
-26 -75 0 -20 -5 -45 -10 -55 -18 -33 -23 -110 -23 -304 1 -112 5 -192 11
-198 13 -13 55 -3 75 17 16 15 16 93 1 165 -4 19 -6 42 -6 50 1 8 4 47 7 85 3
39 6 89 6 112 0 24 5 45 10 49 5 3 9 25 9 50 0 24 4 44 10 44 5 0 21 23 35 50
14 28 32 50 40 50 8 0 15 -3 16 -7 0 -5 3 -17 5 -28 3 -11 7 -45 10 -75 3 -30
7 -60 9 -67 2 -7 0 -15 -5 -18 -6 -3 -5 -16 0 -31 5 -13 9 -46 9 -72 -1 -26 1
-122 4 -214 3 -93 2 -168 -1 -168 -4 0 -7 -12 -8 -27 -1 -128 -4 -143 -23
-143 -17 0 -19 -6 -14 -59 7 -73 -25 -161 -65 -183 -14 -7 -44 -30 -66 -52
-22 -21 -58 -50 -81 -65 -22 -14 -42 -28 -45 -31 -14 -15 -53 -30 -75 -30 -14
0 -25 -4 -25 -10 0 -5 -8 -10 -18 -10 -10 0 -22 -4 -27 -9 -9 -8 -115 -42
-178 -57 -16 -4 -31 -13 -34 -21 -3 -7 -13 -13 -22 -12 -21 3 -100 -10 -126
-20 -55 -23 -108 -33 -146 -28 -27 3 -56 0 -77 -9 -18 -7 -43 -14 -55 -14 -12
0 -40 -2 -62 -4 -22 -3 -73 -8 -113 -11 -40 -2 -89 -8 -110 -12 -54 -10 -173
-10 -202 0 -14 4 -37 20 -52 34 -26 25 -27 28 -22 117 4 84 24 196 45 256 12
34 27 139 34 230 5 82 11 151 21 250 4 36 8 92 9 125 1 33 5 85 8 115 7 58 17
232 22 415 4 124 8 161 20 190 30 75 35 89 35 104 1 29 49 74 90 86 21 5 62
21 100 38 25 11 55 22 68 24 12 2 35 8 50 14 15 6 27 9 27 8 0 -1 11 4 25 11
14 8 27 15 30 15 3 1 18 7 34 14 16 6 43 13 60 16 51 7 83 17 226 67 30 11 66
22 80 25 38 9 150 91 150 111 0 5 7 15 15 22 13 11 20 9 43 -12 46 -43 74 -56
159 -77 92 -22 149 -39 177 -53 17 -9 200 -12 241 -4 11 3 30 5 42 5 12 1 28
7 35 14 7 7 32 21 56 31 23 11 42 22 42 26 0 4 17 12 38 18 22 7 56 25 78 40
36 27 39 28 46 10 4 -10 24 -37 45 -59z m-54 -869 c40 -158 61 -353 40 -374
-5 -4 -8 -20 -8 -34 -1 -15 -5 -27 -10 -27 -6 0 -11 32 -12 71 -4 156 -23 372
-38 419 -17 57 -19 73 -7 60 5 -6 21 -57 35 -115z"/>
<path d="M2411 3859 c-14 -12 -32 -17 -45 -13 -26 6 -66 -26 -90 -73 -9 -18
-16 -34 -15 -35 1 -2 -4 -21 -11 -42 -9 -27 -10 -62 -6 -110 4 -39 9 -84 10
-99 4 -37 55 -109 90 -125 45 -22 94 -24 127 -5 16 10 29 20 29 23 0 4 10 17
22 30 12 13 23 31 25 40 1 10 12 39 23 65 18 41 20 60 14 139 -9 125 -44 184
-127 215 -17 7 -29 4 -46 -10z m82 -203 c4 -71 -8 -146 -25 -146 -5 0 -8 -7
-6 -16 2 -9 -9 -25 -24 -36 -25 -20 -27 -20 -51 -2 -34 25 -43 51 -50 139 -2
28 0 59 4 70 7 18 8 18 8 2 1 -24 40 -56 68 -57 36 0 53 26 53 83 0 74 17 46
23 -37z"/>
<path d="M1722 3830 c-20 -12 -43 -43 -63 -82 -31 -61 -32 -67 -31 -182 1
-106 3 -123 22 -149 12 -16 24 -26 27 -23 3 3 17 -9 31 -25 22 -27 30 -30 61
-25 20 3 43 7 51 8 43 4 110 115 123 203 22 140 11 206 -44 259 -26 26 -40 31
-88 33 -42 1 -66 -3 -89 -17z m156 -138 c6 -18 9 -38 7 -45 -3 -7 -9 -42 -14
-79 -9 -65 -34 -117 -57 -118 -6 0 -17 -6 -24 -14 -14 -18 -33 -12 -68 21 -24
22 -26 29 -24 115 1 67 6 96 17 107 13 14 15 11 15 -27 0 -56 28 -73 77 -47
35 19 62 80 44 98 -5 5 -7 16 -4 24 7 18 17 7 31 -35z"/>
<path d="M1978 3273 c-24 -6 -50 -51 -43 -73 6 -20 19 -26 70 -34 119 -19 122
-19 153 4 34 25 43 46 31 77 -8 21 -58 40 -68 26 -13 -18 -87 -21 -104 -4 -6
6 -13 10 -16 10 -4 -1 -14 -3 -23 -6z"/>
<path d="M2393 3088 c-22 -11 -25 -15 -27 -40 -1 -15 -22 -33 -96 -79 l-55
-34 -135 2 c-111 1 -145 5 -192 23 -32 12 -58 25 -58 29 0 9 -57 71 -66 71 -3
0 -19 -14 -34 -31 -32 -33 -31 -46 5 -94 32 -42 161 -106 212 -105 15 1 63 -3
106 -8 49 -6 94 -6 120 0 23 5 50 11 59 13 24 5 89 36 114 54 12 9 32 23 44
31 38 25 80 74 87 99 8 31 -16 75 -42 78 -11 1 -30 -3 -42 -9z"/>
<path d="M1954 2058 c-16 -13 -30 -26 -32 -30 -7 -15 -21 -8 -27 12 -4 14 -15
20 -34 20 -72 0 -184 -143 -195 -247 -2 -21 -6 -45 -9 -53 -27 -77 -36 -227
-20 -340 8 -62 5 -194 -6 -223 -5 -14 -8 -59 -6 -100 l4 -76 -52 -47 c-51 -44
-167 -103 -167 -83 0 5 -7 9 -15 9 -8 0 -15 5 -15 10 0 13 -53 13 -66 0 -6 -6
-33 -13 -59 -16 -27 -2 -52 -10 -56 -16 -15 -24 -17 -2 -8 72 13 107 28 285
29 350 3 110 -11 467 -20 524 -5 32 -6 66 -1 75 10 20 -15 45 -48 49 -27 3
-59 -32 -55 -62 1 -12 7 -58 14 -104 12 -92 17 -542 7 -637 -4 -33 -14 -98
-23 -145 -28 -154 -21 -141 -63 -135 -55 8 -86 -12 -86 -57 -1 -29 3 -38 20
-42 34 -9 222 2 244 13 24 13 74 15 67 2 -8 -13 41 -20 98 -15 33 3 59 13 78
29 16 14 39 25 50 25 11 0 32 9 48 20 15 11 48 29 74 40 25 10 46 24 46 31 0
6 6 9 13 6 23 -8 34 5 55 64 18 52 18 59 5 88 -12 24 -13 34 -4 45 9 10 9 38
0 110 -11 90 -7 134 6 90 12 -38 23 -49 48 -52 36 -4 51 27 43 90 -4 28 -2 93
3 146 6 54 12 120 14 147 4 52 33 172 46 190 4 6 13 29 21 52 16 53 44 83 75
83 42 0 55 10 55 45 0 33 -25 65 -52 65 -8 0 -28 -10 -44 -22z m-119 -158
c-24 -62 -31 -90 -39 -160 -2 -19 -9 -50 -15 -69 -6 -18 -10 -36 -9 -40 1 -3
-2 -14 -7 -24 -4 -9 -5 -31 -3 -47 3 -17 1 -30 -3 -30 -4 0 -5 -9 -2 -20 3
-11 2 -55 -2 -98 -7 -66 -9 -73 -17 -47 -4 17 -10 62 -13 100 -3 39 -7 101
-11 138 -3 38 -1 74 4 80 5 7 12 28 15 47 3 19 13 65 24 102 15 57 24 72 56
95 20 14 37 31 37 36 0 6 2 8 5 5 3 -2 -6 -33 -20 -68z"/>
</g>
</svg>
