<?xml version="1.0" standalone="no"?>
<!DOCTYPE svg PUBLIC "-//W3C//DTD SVG 20010904//EN"
 "http://www.w3.org/TR/2001/REC-SVG-20010904/DTD/svg10.dtd">
<svg version="1.0" xmlns="http://www.w3.org/2000/svg"
 width="549.000000pt" height="485.000000pt" viewBox="0 0 549.000000 485.000000"
 preserveAspectRatio="xMidYMid meet">
<metadata>
Created by potrace 1.16, written by Peter Selinger 2001-2019
</metadata>
<g transform="translate(0.000000,485.000000) scale(0.100000,-0.100000)"
fill="#000000" stroke="none">
<path d="M3130 4835 c-6 -8 -9 -18 -6 -23 3 -5 -5 -7 -18 -5 -22 5 -208 -58
-231 -77 -5 -5 -12 -8 -15 -8 -3 -1 -18 -5 -33 -11 -16 -6 -31 -11 -33 -11 -5
0 -75 -50 -84 -60 -3 -3 -26 -18 -51 -33 -46 -26 -159 -127 -159 -142 0 -4
-22 -29 -49 -55 -27 -26 -56 -60 -64 -76 -9 -16 -28 -44 -44 -61 -15 -18 -39
-54 -52 -80 -13 -27 -31 -64 -41 -83 -9 -19 -26 -51 -38 -71 -11 -20 -22 -52
-25 -70 -2 -19 -12 -52 -22 -74 -10 -22 -19 -56 -20 -75 -1 -19 -7 -45 -13
-57 -7 -12 -12 -30 -12 -40 0 -11 -5 -24 -11 -30 -6 -6 -13 -29 -14 -50 -2
-21 -15 -78 -30 -128 -25 -83 -27 -102 -25 -245 4 -255 4 -270 11 -270 3 0 4
-12 2 -27 -3 -16 1 -48 7 -73 6 -25 12 -54 14 -65 2 -11 4 -20 6 -20 1 0 3 -9
4 -20 2 -11 12 -48 24 -82 21 -65 51 -103 79 -103 15 0 15 -1 0 -18 -10 -10
-17 -25 -17 -32 0 -7 -7 -21 -16 -31 -8 -9 -29 -45 -47 -80 -31 -60 -57 -86
-57 -56 0 8 -10 25 -23 39 -12 14 -33 39 -47 55 -29 34 -85 75 -92 67 -3 -2
-16 -7 -29 -9 -23 -4 -51 -35 -55 -60 -3 -22 -56 -107 -70 -112 -8 -3 -14 -14
-14 -24 0 -11 -15 -41 -33 -68 -18 -26 -39 -63 -47 -82 -7 -19 -26 -62 -42
-96 -50 -109 -67 -263 -60 -538 3 -118 -11 -198 -54 -292 -13 -28 -24 -61 -24
-72 0 -11 -7 -26 -15 -35 -8 -8 -15 -26 -15 -41 0 -28 -15 -61 -37 -83 -7 -7
-13 -23 -13 -35 0 -12 -7 -33 -14 -47 -43 -76 -86 -171 -86 -189 0 -12 -3 -21
-7 -21 -5 0 -19 -18 -33 -40 -13 -22 -28 -40 -32 -40 -16 0 -8 -47 11 -64 32
-29 53 -12 94 74 22 44 43 80 47 80 5 0 19 21 32 48 13 26 25 49 29 52 19 17
127 282 145 354 8 32 23 70 33 85 20 28 33 81 37 146 2 22 4 47 4 55 1 8 1 89
0 180 -1 101 3 176 10 194 6 16 9 35 6 43 -3 7 10 57 29 110 20 54 36 102 38
108 1 5 10 18 20 29 9 11 17 26 17 33 0 7 5 13 10 13 6 0 10 6 10 13 0 7 5 18
12 25 6 6 18 31 27 56 9 25 29 61 45 81 l29 36 34 -38 c19 -20 36 -49 40 -63
3 -14 8 -29 11 -35 15 -26 -29 -200 -57 -228 -5 -5 -5 -21 1 -38 11 -32 51
-49 77 -32 22 14 64 89 80 143 29 98 119 292 165 353 13 18 43 69 67 115 24
46 55 96 69 111 43 48 70 85 92 124 12 20 25 37 29 37 12 0 16 -56 6 -81 -5
-13 -11 -39 -12 -57 -2 -18 -9 -41 -17 -50 -13 -15 -21 -34 -60 -132 -6 -14
-14 -33 -19 -42 -5 -10 -9 -24 -9 -32 0 -8 -7 -22 -16 -30 -8 -9 -13 -16 -10
-16 2 0 -6 -27 -20 -60 -13 -33 -24 -73 -24 -89 0 -24 5 -31 29 -36 29 -6 71
8 71 24 0 4 11 25 25 45 14 21 23 42 19 47 -3 5 6 33 19 62 13 28 35 83 47
122 17 50 36 83 69 119 61 67 63 69 90 84 20 12 25 12 32 0 12 -19 11 -35 -10
-113 -40 -144 -48 -172 -62 -195 -7 -14 -14 -34 -16 -45 -2 -10 -15 -38 -28
-61 -14 -24 -25 -50 -25 -58 0 -9 -4 -16 -10 -16 -5 0 -7 -7 -4 -15 4 -8 1
-15 -5 -15 -6 0 -11 -6 -11 -14 0 -7 -8 -24 -18 -37 -30 -39 -32 -64 -7 -93
29 -34 79 -36 97 -3 7 12 11 26 10 30 -3 9 45 111 69 147 9 14 19 37 23 52 3
15 17 44 31 64 14 20 25 43 25 50 0 20 62 104 77 104 23 0 16 -103 -13 -193
-15 -45 -30 -84 -33 -87 -11 -9 -94 -182 -94 -196 0 -8 -4 -14 -9 -14 -5 0
-21 -26 -35 -57 l-26 -56 23 -19 c27 -22 79 -21 91 2 25 49 72 156 71 163 -1
4 2 7 6 7 5 0 15 18 22 40 7 22 17 40 22 40 5 0 7 4 4 8 -3 5 5 21 18 37 16
20 28 26 40 22 14 -6 16 -15 12 -54 -9 -74 -13 -92 -38 -142 -12 -25 -23 -48
-23 -51 -5 -33 -21 -80 -36 -107 -11 -19 -19 -40 -19 -48 0 -8 -5 -15 -11 -15
-5 0 -8 -4 -5 -9 3 -5 -9 -28 -27 -52 -18 -24 -43 -64 -55 -88 -57 -109 -219
-299 -286 -333 -98 -50 -204 -137 -311 -258 -18 -20 -68 -121 -68 -137 0 -7
-4 -13 -8 -13 -10 0 -39 -59 -39 -81 0 -10 -4 -21 -10 -24 -5 -3 -10 -14 -10
-24 0 -9 -11 -32 -25 -51 -14 -19 -25 -43 -25 -54 0 -12 -7 -34 -15 -50 -8
-15 -15 -33 -15 -40 0 -6 -11 -28 -25 -48 -35 -52 -32 -116 6 -121 8 -2 19 -5
24 -8 18 -10 31 -4 62 26 24 25 30 38 27 65 -2 19 1 44 5 55 5 11 19 45 31 75
13 30 33 78 45 105 12 28 30 69 39 93 9 23 27 60 41 82 14 22 25 43 25 48 0 5
35 44 78 87 100 101 115 115 129 115 7 0 16 6 20 14 4 7 24 21 43 30 58 27
169 128 222 202 17 24 35 44 39 44 3 0 14 15 23 33 16 30 23 42 69 111 39 60
54 85 89 156 21 41 38 83 38 92 0 9 5 28 11 42 l11 24 47 -32 c57 -40 129 -65
199 -67 29 -2 55 -6 58 -11 3 -4 16 -5 29 -2 19 5 27 0 40 -25 9 -18 13 -36
10 -41 -3 -5 -1 -11 5 -15 5 -3 8 -16 6 -28 -2 -12 3 -38 10 -59 7 -20 10 -39
7 -42 -3 -2 4 -17 15 -33 16 -24 50 -105 69 -165 3 -10 9 -18 14 -18 5 0 9 -6
9 -14 0 -7 11 -21 25 -30 51 -33 145 -123 145 -139 0 -8 36 -62 58 -85 6 -7
12 -21 12 -30 0 -9 7 -30 15 -46 8 -15 17 -38 19 -50 2 -11 9 -39 14 -61 30
-114 40 -164 45 -201 2 -23 7 -46 11 -53 4 -6 12 -37 16 -69 11 -70 18 -106
30 -152 5 -19 12 -64 15 -100 12 -148 29 -189 76 -182 16 2 29 8 29 13 0 5 7
9 15 9 10 0 15 10 15 30 0 17 -5 30 -11 30 -6 0 -9 6 -6 13 2 6 -2 34 -10 60
-8 27 -12 51 -9 55 3 3 1 10 -4 17 -5 6 -14 54 -20 106 -15 143 -20 171 -35
204 -8 17 -17 62 -21 100 -4 39 -10 75 -14 80 -13 16 -40 128 -34 137 3 5 -1
17 -9 26 -19 22 -47 89 -40 96 3 3 -2 8 -11 12 -9 3 -16 13 -16 21 0 7 -11 25
-25 39 -14 14 -25 30 -25 36 0 6 -38 48 -84 92 -81 78 -146 176 -146 220 0 9
-5 16 -12 16 -6 0 -9 3 -5 6 3 3 -1 27 -9 52 -7 26 -14 59 -14 74 0 15 -4 30
-10 33 -5 3 -10 24 -10 47 0 22 -6 52 -14 66 -7 15 -21 54 -30 87 -9 33 -26
89 -36 125 -40 132 -54 210 -38 210 5 0 12 -9 15 -20 3 -11 9 -20 13 -20 10 0
54 -84 70 -135 7 -22 20 -49 30 -60 19 -21 42 -93 35 -106 -11 -17 42 -94 72
-103 30 -9 68 27 54 52 -5 9 -10 22 -11 27 -5 20 -12 41 -42 117 -16 42 -31
82 -32 90 -1 7 -7 22 -13 33 -14 27 -31 114 -37 202 -3 39 -6 75 -7 80 -2 13
13 53 20 53 6 0 29 -43 48 -90 25 -63 37 -100 53 -170 20 -91 43 -141 70 -158
18 -11 24 -9 47 12 19 18 24 30 20 48 -18 69 -47 168 -60 203 -31 87 -48 142
-52 178 -6 47 23 157 36 136 4 -8 15 -23 24 -34 54 -68 89 -146 100 -225 11
-73 35 -151 68 -221 27 -56 37 -68 62 -73 43 -9 67 21 54 67 -6 17 -12 39 -14
47 -2 8 -4 16 -5 18 -3 3 -4 5 -19 74 -7 32 -17 60 -22 64 -5 3 -7 9 -4 14 3
4 -2 21 -10 36 -8 16 -15 36 -15 45 0 9 -7 33 -15 53 -25 60 -7 114 34 101 33
-10 67 -72 90 -161 5 -17 15 -44 24 -60 22 -41 43 -102 52 -149 4 -22 10 -44
13 -50 4 -5 8 -14 9 -20 3 -14 53 -165 63 -190 19 -53 32 -92 37 -112 7 -29
21 -33 63 -19 29 9 35 16 33 36 -10 139 -14 181 -22 220 -11 54 -7 120 9 151
l12 22 18 -24 c10 -13 18 -26 17 -29 0 -3 6 -21 15 -40 8 -19 21 -53 28 -75 7
-22 16 -48 21 -57 5 -10 14 -50 20 -90 6 -40 19 -95 29 -123 28 -77 29 -82 34
-210 4 -99 1 -132 -15 -190 -11 -38 -21 -77 -23 -85 -2 -8 -10 -35 -17 -60
-21 -76 -19 -182 6 -300 2 -14 7 -35 9 -48 3 -12 7 -26 11 -31 3 -5 17 -49 31
-97 14 -49 29 -93 34 -99 4 -5 16 -37 25 -70 9 -33 22 -84 30 -113 8 -29 31
-99 50 -157 20 -58 35 -111 33 -118 -5 -27 25 -118 42 -127 24 -13 70 -13 70
-1 0 5 7 16 15 24 12 13 13 24 3 71 -6 31 -15 56 -19 56 -5 0 -16 26 -25 58
-16 60 -40 133 -54 167 -5 11 -12 38 -15 60 -4 22 -13 51 -20 65 -14 25 -38
97 -76 220 -41 137 -49 166 -51 195 -1 17 -5 35 -10 41 -4 6 -6 29 -2 50 3 22
7 50 9 64 2 14 4 25 5 25 1 0 3 11 4 25 1 14 8 45 16 70 8 25 15 52 15 60 1 9
7 25 13 36 12 22 16 163 8 264 -6 75 -7 78 -28 150 -36 121 -78 286 -78 302 0
9 -4 20 -10 23 -5 3 -14 25 -21 48 -6 23 -17 49 -25 58 -8 9 -16 26 -19 37 -2
12 -12 34 -22 49 -10 15 -24 37 -29 48 -6 11 -22 21 -36 23 l-26 3 54 162 c89
268 93 280 103 332 5 28 12 59 14 70 53 207 72 432 48 580 -7 44 -14 105 -17
135 -2 30 -6 80 -9 110 -6 73 -90 335 -115 360 -12 12 -70 112 -70 121 0 5 -7
9 -15 9 -8 0 -15 6 -15 14 0 7 -10 24 -22 38 -47 52 -78 93 -78 106 0 6 -6 12
-14 12 -7 0 -37 26 -65 57 -28 31 -66 65 -83 75 -17 11 -47 35 -67 54 -32 31
-143 104 -157 104 -3 0 -18 8 -32 19 -42 29 -122 51 -183 49 -30 -1 -59 1 -65
4 -5 4 -87 7 -181 7 -135 0 -174 -3 -183 -14z m34 -93 c3 -5 27 -6 53 -2 96
12 307 2 384 -18 76 -20 203 -93 305 -178 68 -56 224 -211 224 -224 0 -5 5
-10 10 -10 6 0 10 -4 10 -10 0 -5 11 -20 25 -34 14 -14 39 -56 57 -93 18 -37
38 -72 45 -76 7 -4 13 -16 13 -25 0 -9 6 -29 14 -44 15 -28 49 -132 52 -158 1
-8 7 -34 13 -57 7 -24 12 -69 12 -100 0 -32 4 -71 9 -88 5 -16 12 -59 15 -95
3 -36 8 -85 11 -110 2 -25 -1 -79 -7 -120 -6 -41 -13 -84 -14 -95 -5 -31 -53
-254 -67 -307 -7 -27 -16 -48 -21 -48 -4 0 -6 -4 -3 -8 6 -10 -15 -91 -34
-137 -7 -16 -12 -34 -12 -38 1 -4 -5 -21 -13 -37 -9 -16 -16 -33 -16 -37 0
-22 -12 -53 -20 -53 -5 0 -8 -3 -7 -7 4 -16 -55 -134 -66 -130 -6 2 -23 37
-37 78 -14 41 -35 90 -47 109 -12 19 -22 40 -22 45 -1 17 -34 51 -75 77 -52
32 -99 31 -135 -5 -15 -15 -31 -27 -36 -27 -4 0 -25 19 -44 42 -28 32 -43 41
-68 41 -66 0 -120 -49 -127 -116 -1 -12 -3 -28 -4 -35 -1 -10 -5 -10 -20 0
-16 10 -26 8 -56 -8 -61 -32 -66 -42 -67 -143 0 -50 -3 -91 -6 -91 -3 0 -13 6
-21 14 -22 19 -61 30 -61 17 0 -6 -7 -8 -15 -5 -10 4 -15 0 -15 -16 0 -11 -4
-18 -10 -15 -12 8 -51 -55 -43 -69 4 -5 8 -21 9 -35 2 -14 5 -44 7 -66 3 -24
0 -43 -7 -47 -7 -5 -5 -8 6 -8 12 0 19 -12 24 -48 3 -26 15 -65 25 -86 30 -63
26 -73 -28 -78 -61 -6 -141 20 -179 56 -18 16 -37 25 -50 23 -20 -3 -20 -2 -6
47 27 101 31 153 18 212 -8 34 -56 84 -81 84 -18 0 -19 7 -2 56 23 69 6 205
-28 234 -10 8 -33 11 -66 8 l-51 -5 7 54 c7 57 -9 147 -30 171 -18 20 -85 33
-85 17 0 -7 -16 -16 -35 -19 -19 -4 -35 -11 -35 -16 0 -6 -6 -10 -14 -10 -8 0
-16 16 -20 43 -10 62 -25 76 -92 87 -75 13 -74 13 -74 -5 0 -8 -5 -15 -11 -15
-5 0 -8 -4 -5 -8 3 -5 -5 -19 -18 -33 -46 -50 -123 -156 -146 -201 l-25 -48
-10 48 c-6 26 -15 53 -19 60 -4 6 -9 20 -11 29 -2 10 -11 43 -19 73 -27 98
-44 269 -39 390 2 63 4 124 4 135 -1 26 27 140 45 185 21 53 73 263 68 272 -3
5 3 20 13 36 10 15 27 52 37 82 26 77 87 201 102 207 7 2 15 14 18 26 3 12 22
40 41 62 61 67 85 98 85 109 0 5 3 7 6 4 7 -7 29 14 67 65 15 20 35 37 43 37
8 0 28 12 44 28 38 35 133 103 140 99 3 -1 18 6 33 16 15 9 27 15 27 12 0 -3
13 1 30 10 16 8 33 16 37 16 12 2 35 10 58 19 11 5 32 11 47 14 15 4 35 17 45
31 19 26 29 30 37 17z"/>
<path d="M2872 3832 c-17 -3 -30 -17 -45 -50 -42 -95 -30 -162 28 -162 13 0
27 -4 30 -10 11 -17 43 -11 67 13 20 19 23 32 23 87 -1 36 -6 73 -12 84 -13
23 -60 43 -91 38z"/>
<path d="M3630 3825 c-51 -13 -79 -49 -65 -81 4 -10 10 -28 11 -39 9 -51 15
-62 40 -74 84 -38 158 88 104 177 -21 35 -23 35 -90 17z"/>
<path d="M3628 3006 c-10 -7 -18 -16 -18 -20 0 -6 -43 -49 -72 -71 -7 -5 -26
-17 -43 -25 -16 -8 -32 -17 -35 -20 -17 -17 -72 -36 -110 -38 -62 -4 -271 51
-328 85 -85 51 -99 49 -120 -14 -9 -27 -8 -33 4 -33 7 0 14 -4 14 -8 0 -14 78
-61 128 -76 187 -59 303 -72 377 -41 69 29 166 78 171 87 3 4 12 8 21 8 8 0
32 14 52 32 49 43 54 89 14 124 -32 28 -32 28 -55 10z"/>
<path d="M550 2960 c0 -5 5 -10 10 -10 6 0 10 5 10 10 0 6 -4 10 -10 10 -5 0
-10 -4 -10 -10z"/>
<path d="M1690 2626 c-25 -6 -56 -18 -70 -27 -14 -9 -54 -29 -90 -45 -36 -16
-67 -31 -70 -34 -7 -8 -212 -67 -265 -76 -11 -2 -40 -8 -63 -13 l-44 -9 31 29
c33 29 38 48 21 80 -15 26 -71 26 -90 -1 -8 -11 -19 -20 -24 -20 -5 0 -24 -11
-42 -25 -18 -14 -35 -25 -39 -25 -3 0 -30 -11 -58 -24 -58 -27 -135 -51 -154
-47 -7 1 -13 -3 -13 -10 0 -6 -7 -8 -16 -5 -8 3 -12 2 -9 -4 5 -9 -4 -19 -37
-43 -15 -10 -16 -18 -7 -49 5 -21 13 -38 17 -39 4 0 25 -2 47 -5 22 -3 65 -6
95 -7 30 -2 71 -6 90 -10 19 -4 73 -9 118 -11 59 -2 86 -7 93 -17 7 -11 9 -11
9 -1 0 8 6 12 12 10 23 -8 38 20 38 66 0 30 -5 46 -12 47 -7 1 -51 1 -97 0
-95 -2 -104 5 -21 14 105 11 136 16 255 46 170 41 269 77 287 103 3 5 15 11
26 13 11 1 42 14 68 28 26 14 53 23 60 21 7 -3 19 9 27 26 14 29 14 34 -1 54
-10 13 -19 23 -22 22 -3 0 -25 -5 -50 -12z"/>
<path d="M4528 2532 c-26 -42 -20 -54 42 -89 25 -14 58 -36 73 -49 16 -13 32
-22 37 -19 4 3 10 -1 13 -8 3 -8 58 -40 124 -72 65 -33 130 -70 144 -84 26
-25 26 -26 8 -42 -43 -37 -44 -108 -1 -110 9 0 29 -2 45 -4 15 -2 27 1 27 6 0
6 8 8 18 5 31 -9 174 -19 263 -17 71 1 79 7 83 69 2 25 -24 62 -42 62 -32 0
-182 99 -182 121 0 4 -10 18 -22 31 -17 17 -32 22 -56 20 -27 -3 -34 -8 -39
-34 -7 -38 -28 -46 -56 -21 -12 11 -51 31 -87 46 -36 15 -81 41 -100 58 -19
16 -48 33 -63 36 -16 3 -31 12 -34 19 -3 8 -11 14 -18 14 -7 0 -15 3 -17 8
-11 23 -89 84 -112 86 -21 3 -31 -4 -48 -32z"/>
</g>
</svg>
