<?xml version="1.0" standalone="no"?>
<!DOCTYPE svg PUBLIC "-//W3C//DTD SVG 20010904//EN"
 "http://www.w3.org/TR/2001/REC-SVG-20010904/DTD/svg10.dtd">
<svg version="1.0" xmlns="http://www.w3.org/2000/svg"
 width="569.000000pt" height="501.000000pt" viewBox="0 0 569.000000 501.000000"
 preserveAspectRatio="xMidYMid meet">
<metadata>
Created by potrace 1.16, written by Peter Selinger 2001-2019
</metadata>
<g transform="translate(0.000000,501.000000) scale(0.100000,-0.100000)"
fill="#000000" stroke="none">
<path d="M5170 4773 c-63 -38 -140 -107 -140 -125 0 -9 -80 -2 -125 10 -16 5
-46 5 -64 1 -19 -4 -39 -5 -43 -3 -18 11 -145 -47 -182 -83 -67 -65 -142 -197
-130 -228 4 -8 2 -15 -3 -15 -33 0 -36 -212 -4 -260 9 -14 23 -38 31 -53 8
-16 25 -40 37 -53 13 -14 23 -29 23 -34 0 -5 14 -11 30 -14 17 -3 44 -9 60
-12 37 -7 38 -18 1 -52 -36 -34 -51 -63 -51 -101 0 -17 -13 -50 -30 -75 -42
-62 -54 -99 -41 -125 9 -17 6 -28 -20 -64 -25 -35 -31 -56 -34 -103 -2 -53 -5
-61 -39 -90 -28 -25 -36 -38 -36 -66 0 -22 7 -41 20 -53 23 -21 26 -45 7 -45
-7 0 -28 -13 -45 -28 -35 -31 -39 -58 -18 -107 12 -28 11 -32 -21 -63 -18 -18
-31 -37 -28 -42 2 -4 -1 -13 -9 -19 -7 -6 -12 -25 -11 -43 1 -20 -6 -44 -18
-60 -14 -19 -18 -35 -14 -58 5 -25 0 -41 -28 -82 -19 -27 -35 -62 -35 -76 0
-14 -12 -41 -27 -61 -16 -20 -27 -41 -25 -47 1 -7 -8 -14 -20 -17 -26 -7 -61
-58 -57 -85 2 -9 -5 -32 -15 -50 -15 -28 -16 -44 -8 -110 8 -65 7 -81 -7 -102
-9 -14 -30 -66 -46 -117 -21 -64 -36 -95 -50 -101 -11 -5 -25 -20 -31 -33 -32
-69 -44 -102 -44 -119 0 -11 -4 -20 -10 -20 -5 0 -10 -6 -10 -14 0 -17 -71
-155 -102 -198 -13 -18 -33 -53 -44 -78 -38 -89 -75 -150 -92 -150 -30 0 -73
-36 -114 -96 -22 -31 -41 -62 -42 -68 -1 -6 -4 -15 -8 -21 -8 -13 -2 -66 9
-74 5 -3 19 -19 31 -36 40 -53 186 -133 281 -154 75 -16 128 -5 168 35 18 19
32 37 31 41 0 5 1 15 4 23 19 53 26 106 16 118 -6 7 -14 31 -18 53 -6 34 -2
53 26 119 19 43 34 83 34 88 0 10 66 159 96 217 9 16 23 50 31 75 8 25 25 56
37 70 33 39 92 171 81 182 -3 2 9 19 25 37 17 18 30 36 30 42 0 5 5 9 10 9 6
0 10 6 9 13 -3 18 22 67 35 67 14 1 56 36 56 47 0 5 21 37 46 72 52 72 73 117
68 146 -2 11 3 34 10 50 13 28 24 74 29 119 1 11 30 47 65 81 60 60 78 95 47
95 -30 0 -8 37 36 61 11 5 17 14 14 20 -4 5 -1 8 6 7 7 -2 21 19 31 47 11 28
26 54 34 58 26 15 105 101 115 126 6 16 6 28 -2 38 -9 11 -7 18 10 36 11 13
21 27 21 31 0 5 11 17 25 28 31 24 32 51 3 70 l-23 15 30 39 c16 21 37 45 47
52 10 7 18 19 18 25 0 7 10 17 23 22 16 7 22 18 22 42 0 22 11 43 37 73 21 22
40 45 43 50 8 13 -6 40 -21 40 -17 0 -18 14 -1 28 8 7 24 5 53 -8 46 -21 99
-27 161 -16 32 6 52 19 86 55 58 62 129 209 133 273 1 26 7 62 13 80 17 57 7
137 -27 203 -40 76 -53 92 -77 97 -28 4 -34 27 -18 59 8 15 16 49 18 76 3 26
7 62 10 78 30 178 -41 328 -175 367 -101 30 -141 30 -190 1z m103 -66 c3 -8
19 -13 41 -12 39 1 51 -14 14 -17 -31 -2 -40 -4 -61 -13 -10 -4 -42 -3 -70 2
l-52 9 35 22 c39 25 85 29 93 9z m167 -92 c16 -19 11 -24 -26 -31 -16 -3 -33
-9 -39 -13 -5 -4 -39 -15 -75 -24 -66 -17 -240 -20 -256 -5 -4 5 0 16 9 26 10
10 17 23 17 28 0 6 54 10 133 11 72 0 146 5 162 11 43 15 61 14 75 -3z m-595
-35 c-9 -15 -68 -44 -83 -42 -7 2 -15 -4 -18 -12 -3 -8 -17 -17 -32 -21 -15
-3 -35 -8 -44 -11 -28 -8 -21 19 10 39 55 38 183 73 167 47z m116 -10 c5 0 9
-7 9 -15 0 -8 -9 -15 -19 -15 -29 0 -51 -11 -51 -25 0 -15 -82 -90 -107 -98
-92 -28 -174 -49 -201 -53 -31 -4 -33 -2 -27 18 9 29 20 41 42 44 83 12 255
88 297 131 11 13 27 21 34 18 8 -3 18 -5 23 -5z m516 -62 c-2 -7 -11 -12 -21
-10 -9 2 -16 -2 -16 -8 0 -6 -4 -9 -9 -6 -5 3 -23 1 -40 -5 -25 -9 -29 -14
-21 -29 11 -20 4 -24 -114 -61 -71 -22 -182 -29 -207 -13 -8 5 -27 9 -44 9
-24 0 -29 4 -27 19 6 30 33 66 51 66 97 1 244 11 276 20 22 6 56 13 75 17 19
3 37 7 39 9 2 2 17 4 34 4 18 0 27 -4 24 -12z m-7 -123 c0 -8 -7 -20 -16 -27
-8 -7 -28 -25 -44 -40 -56 -51 -190 -86 -345 -89 -33 -1 -66 -6 -73 -12 -17
-14 -22 -7 -28 46 l-6 45 109 -1 c105 -1 213 17 213 35 0 5 4 7 9 4 8 -5 137
37 149 49 11 11 32 5 32 -10z m-606 -4 c7 -11 -65 -71 -114 -96 -19 -10 -37
-21 -40 -25 -3 -4 -34 -14 -70 -22 -71 -16 -125 -6 -115 20 3 7 5 17 5 22 0 5
8 9 18 9 26 -1 64 7 92 18 14 6 48 18 75 27 51 17 88 32 115 47 20 11 28 11
34 0z m-6 -163 c-54 -51 -129 -86 -228 -103 -46 -8 -84 -14 -85 -12 -1 1 -8
13 -15 26 -12 23 -11 23 19 19 17 -2 31 -1 31 4 0 4 3 7 8 6 22 -7 224 83 266
119 l31 26 6 -24 c5 -19 -2 -32 -33 -61z m552 2 c0 -5 -6 -10 -14 -10 -8 0
-16 -4 -18 -9 -1 -4 -12 -5 -23 -1 -19 8 -19 8 5 18 33 14 50 14 50 2z m-125
-45 c-30 -22 -85 -78 -85 -87 0 -4 -13 -8 -28 -8 -23 0 -28 4 -28 23 1 18 -5
23 -33 25 -19 2 -37 -2 -41 -8 -5 -9 -15 -8 -38 4 -49 26 -48 36 5 37 61 0
132 9 158 20 11 4 40 8 65 8 42 0 44 -1 25 -14z m-362 -28 c8 -21 -14 -42 -73
-71 -30 -15 -62 -31 -70 -35 -96 -52 -125 -57 -170 -30 l-35 22 35 13 c19 7
49 13 65 13 17 1 71 24 120 51 94 51 120 58 128 37z m537 -25 c-26 -9 -39 -28
-29 -43 18 -28 8 -48 -43 -85 -45 -33 -121 -62 -165 -64 -20 0 -15 41 10 81
43 69 64 89 93 89 16 0 41 8 57 18 18 12 38 17 60 14 18 -3 25 -7 17 -10z
m106 -114 c2 -10 -1 -18 -7 -18 -12 0 -79 -72 -74 -80 2 -3 -5 -7 -17 -7 -11
-1 -34 -13 -51 -26 -28 -21 -63 -31 -152 -43 -11 -1 -24 -3 -30 -4 -27 -6 -65
1 -65 13 0 7 15 12 41 13 22 0 44 5 47 11 4 7 28 16 53 22 92 21 209 106 209
152 0 10 6 19 13 22 12 4 26 -20 33 -55z m-612 27 c-3 -8 -32 -28 -64 -44 -33
-16 -56 -32 -52 -35 3 -4 -1 -4 -10 -1 -29 11 -8 41 54 73 61 32 82 34 72 7z
m96 -33 c0 -4 -9 -13 -20 -20 -22 -13 -27 -3 -8 16 14 14 28 16 28 4z m94 -40
c-3 -15 -15 -56 -26 -91 -27 -84 -21 -181 14 -249 l25 -48 -22 -32 c-12 -18
-25 -52 -28 -76 -4 -25 -21 -65 -42 -95 -19 -29 -35 -60 -35 -68 0 -8 -18 -37
-40 -63 -22 -26 -40 -51 -40 -56 0 -4 -7 -16 -17 -26 -14 -16 -14 -22 -2 -46
7 -15 15 -30 17 -34 2 -4 -7 -17 -19 -29 -32 -32 -89 -118 -89 -134 0 -7 6
-16 13 -18 9 -4 8 -8 -3 -16 -8 -6 -23 -16 -34 -23 -57 -39 -60 -45 -57 -87 2
-33 -1 -41 -15 -41 -21 0 -117 -98 -109 -111 4 -5 1 -9 -6 -9 -7 0 -6 -9 5
-26 17 -24 16 -26 -6 -43 -13 -11 -38 -33 -56 -51 -32 -30 -33 -34 -27 -85 6
-48 5 -54 -14 -60 -25 -8 -59 2 -84 23 -16 14 -16 17 8 48 14 18 25 37 25 43
0 6 17 29 39 51 21 22 44 54 51 71 12 29 12 33 -10 49 l-24 18 37 41 c21 23
35 46 32 51 -4 6 -1 10 4 10 14 0 14 43 0 57 -12 12 9 46 66 111 43 49 47 58
29 76 -14 15 -14 19 5 45 11 16 36 42 55 59 22 19 30 33 23 36 -7 2 -5 5 5 5
14 1 16 9 13 45 -3 37 1 48 25 73 33 34 46 74 32 99 -7 13 -4 26 12 51 11 18
26 33 32 33 5 0 20 19 32 42 19 37 20 45 7 64 -12 19 -11 24 13 49 35 37 62
77 62 92 0 7 -9 21 -21 32 l-21 19 38 21 c22 11 48 27 58 36 19 15 19 16 -3
60 -26 51 -19 73 29 102 17 9 30 23 30 31 0 7 5 10 10 7 6 -3 7 -18 4 -33z
m-148 -39 c1 -21 4 -55 9 -75 6 -30 5 -38 -7 -38 -8 0 -32 -15 -54 -34 -36
-31 -38 -35 -26 -60 7 -15 17 -24 22 -21 6 3 10 -1 10 -11 0 -9 -18 -34 -40
-55 -42 -41 -49 -66 -28 -99 11 -17 7 -25 -30 -63 -51 -52 -65 -91 -46 -129
13 -26 12 -27 -36 -62 -53 -38 -65 -71 -35 -96 14 -12 10 -18 -29 -55 -46 -44
-90 -124 -84 -153 2 -9 -15 -42 -38 -72 -50 -67 -60 -93 -39 -110 22 -18 19
-28 -20 -76 -19 -23 -35 -47 -35 -53 0 -6 -4 -11 -10 -11 -17 0 -11 -23 12
-48 21 -21 21 -24 6 -33 -38 -21 -79 -63 -74 -75 6 -16 -38 -71 -63 -79 -11
-3 -42 4 -70 17 -39 16 -50 26 -45 38 4 8 13 35 21 60 21 66 34 89 52 95 27 9
40 49 24 78 -12 25 -11 27 24 54 21 15 41 32 45 38 15 19 2 40 -27 45 l-30 5
44 47 c40 45 43 50 36 85 -5 21 -10 45 -11 53 -3 15 49 70 65 70 19 0 19 56 0
89 -18 30 -18 36 -5 56 8 12 31 30 51 39 47 22 55 44 26 67 -33 27 -20 67 40
123 27 25 49 50 49 55 0 14 -56 42 -65 33 -4 -4 -1 7 6 23 19 44 50 75 75 75
38 0 54 11 54 36 0 19 -7 26 -30 31 -17 3 -30 12 -30 20 0 33 62 73 242 158
31 15 62 33 69 41 18 22 25 17 25 -23z m559 -70 c-11 -50 -187 -140 -295 -150
-30 -3 -60 -9 -66 -14 -15 -12 -24 0 -24 33 0 24 4 28 30 28 17 0 30 4 30 9 0
5 19 12 43 16 76 12 162 36 172 48 6 7 15 13 22 14 6 1 28 14 49 28 20 14 39
23 42 21 2 -3 1 -17 -3 -33z m-55 -167 c-7 -20 -14 -25 -25 -19 -10 6 -38 -2
-83 -24 -88 -43 -128 -54 -158 -43 -25 10 -34 32 -11 29 22 -3 77 13 77 23 0
5 4 7 9 4 5 -3 51 9 102 28 52 19 95 33 97 31 1 -1 -2 -14 -8 -29z m-1326
-1417 c-15 -44 -31 -82 -37 -86 -12 -7 -26 16 -22 37 10 53 32 107 52 128 13
14 24 30 24 36 1 6 4 1 6 -12 2 -12 -8 -58 -23 -103z m77 -13 c-16 -37 -32
-63 -35 -57 -4 6 3 32 15 58 12 27 23 50 23 53 3 15 20 33 23 24 2 -5 -10 -40
-26 -78z m87 -18 c-11 -40 -23 -84 -27 -98 -9 -30 -25 -29 -29 0 -5 30 56 170
73 170 2 0 -5 -33 -17 -72z m110 18 c4 -21 -18 -70 -61 -134 -39 -60 -36 -56
-43 -49 -4 3 3 25 14 49 18 40 24 55 52 131 11 30 33 32 38 3z m-231 -142 c-3
-3 -12 -4 -19 -1 -8 3 -5 6 6 6 11 1 17 -2 13 -5z m6 -93 c40 -17 45 -23 49
-57 4 -30 -5 -58 -39 -131 -23 -51 -60 -121 -80 -156 -21 -34 -39 -69 -41 -77
-2 -8 -7 -17 -10 -20 -4 -3 -8 -12 -10 -20 -2 -8 -12 -33 -22 -56 -11 -23 -38
-91 -61 -151 -80 -210 -81 -212 -151 -195 -23 6 -50 7 -63 2 -12 -4 -37 -5
-56 -1 -32 6 -34 9 -33 47 0 44 46 145 102 227 19 29 44 72 55 97 11 25 25 52
32 60 7 8 15 27 19 43 3 15 12 27 18 27 20 0 48 32 48 56 0 34 66 222 85 240
8 8 15 22 15 30 0 24 38 54 69 54 16 0 49 -9 74 -19z m-590 -965 c86 -60 101
-67 196 -91 72 -19 81 -24 70 -36 -8 -8 -19 -24 -25 -34 -9 -16 -21 -19 -55
-17 -50 3 -159 40 -159 53 0 5 -7 9 -16 9 -23 0 -114 79 -114 99 0 16 26 61
36 61 3 0 33 -20 67 -44z m243 9 c21 -9 33 -19 29 -26 -10 -15 -83 -3 -138 21
l-42 20 58 0 c32 0 74 -7 93 -15z"/>
<path d="M1200 3909 c-36 -12 -76 -38 -115 -73 l-60 -53 -77 48 c-68 42 -82
47 -120 43 -24 -3 -65 -18 -91 -34 -57 -35 -77 -37 -84 -10 -7 25 -31 26 -41
1 -4 -10 -26 -40 -49 -66 -24 -26 -43 -50 -44 -54 0 -3 -2 -13 -4 -21 -4 -18
-11 -59 -20 -119 -15 -92 -3 -243 25 -306 4 -11 20 -47 35 -79 l27 -59 -20
-36 c-24 -42 -43 -142 -35 -186 11 -70 68 -233 92 -265 14 -19 26 -41 27 -48
2 -8 9 -21 17 -30 8 -10 22 -30 30 -47 19 -36 102 -127 137 -149 14 -8 73 -30
130 -47 111 -33 183 -38 250 -18 31 10 42 9 66 -7 41 -25 124 -107 124 -121 0
-42 76 -110 160 -143 45 -17 60 -29 60 -47 0 -7 5 -19 10 -26 6 -7 19 -24 31
-39 14 -19 33 -30 58 -34 48 -8 52 -11 72 -54 29 -62 64 -95 124 -115 42 -15
57 -25 62 -43 10 -40 63 -72 122 -72 44 0 53 -3 60 -23 13 -33 37 -50 63 -44
19 5 27 -1 48 -36 14 -23 25 -46 25 -52 0 -16 18 -25 52 -25 23 0 36 -6 44
-22 15 -29 49 -63 71 -71 15 -5 25 -23 57 -101 10 -25 15 -28 49 -24 46 6 94
-13 116 -47 9 -14 22 -25 30 -25 7 0 26 -19 42 -42 16 -24 31 -45 34 -48 11
-10 56 -68 70 -90 8 -13 31 -40 50 -61 54 -57 82 -91 92 -114 5 -11 26 -33 47
-48 20 -15 46 -44 56 -65 11 -20 36 -53 55 -73 50 -50 145 -172 143 -181 -2
-5 1 -8 6 -8 5 0 28 -19 50 -42 34 -36 40 -49 39 -84 0 -38 24 -104 40 -104
16 0 82 -67 92 -94 l10 -28 83 6 c51 4 98 15 125 28 44 21 132 94 132 109 0 8
7 17 53 72 15 18 17 33 14 82 -7 84 -21 113 -61 130 -18 8 -47 25 -62 38 -46
38 -74 49 -106 43 -25 -5 -36 2 -88 54 -33 33 -60 64 -60 68 0 4 -24 35 -52
68 -29 34 -64 76 -78 94 -14 18 -50 61 -81 95 -31 34 -65 72 -75 84 -10 13
-34 37 -51 54 -18 16 -35 38 -38 47 -3 10 -25 38 -48 62 -88 91 -157 198 -157
244 0 7 -16 18 -35 25 -27 10 -36 20 -41 45 -3 18 -3 41 0 52 5 16 -11 38 -76
104 -46 46 -101 107 -123 136 -40 53 -49 58 -74 43 -17 -11 -41 27 -41 63 0
38 -14 49 -57 42 -37 -7 -39 -6 -58 31 -24 48 -24 53 -9 79 7 12 10 25 6 29
-4 4 -7 12 -7 18 0 7 -18 14 -40 17 -39 5 -40 6 -40 43 -1 40 -19 61 -45 51
-65 -26 -79 -7 -85 111 -3 69 -2 68 -29 61 -48 -12 -110 28 -76 49 6 3 10 20
10 36 0 36 -35 55 -61 33 -22 -20 -46 -17 -58 5 -8 14 -7 22 5 32 46 38 32 84
-23 74 -36 -7 -63 9 -45 27 20 20 14 67 -13 93 -27 28 -63 33 -71 10 -12 -29
-55 -8 -68 33 -6 19 -4 25 14 29 23 6 23 6 7 98 -9 50 -35 103 -59 120 -22 15
-24 14 -40 -6 -10 -12 -18 -30 -18 -40 0 -25 -21 -24 -50 1 -19 16 -21 24 -14
43 6 12 7 45 3 72 -6 41 -3 55 12 77 11 16 23 47 27 70 11 68 5 223 -12 271
-21 62 -75 159 -113 204 -17 21 -52 62 -77 92 -48 58 -91 90 -150 115 -48 20
-96 19 -166 -5z m161 -66 c42 -8 157 -123 209 -207 19 -32 44 -72 55 -89 38
-59 58 -169 39 -212 -44 -96 -99 -144 -171 -145 -64 -2 -90 10 -150 70 -108
108 -190 325 -181 480 3 55 3 55 53 82 51 28 86 33 146 21z m-443 -68 c28 -20
52 -42 52 -49 0 -7 6 -19 14 -25 8 -7 16 -35 19 -64 8 -82 41 -196 81 -273 20
-39 36 -76 36 -81 0 -5 12 -20 26 -34 14 -13 30 -33 35 -44 6 -11 20 -37 33
-59 22 -36 25 -76 4 -76 -5 0 -7 -4 -4 -9 10 -15 -25 -35 -56 -33 -16 1 -36
-4 -44 -12 -17 -17 -57 -13 -156 16 -51 15 -77 30 -111 63 -25 24 -49 50 -54
57 -4 7 -23 25 -41 40 -18 15 -33 30 -33 32 0 3 -11 32 -25 63 -15 32 -28 65
-30 73 -40 158 -44 196 -31 270 7 37 66 120 86 120 6 0 11 3 11 8 0 17 71 48
120 51 8 1 39 -15 68 -34z m176 -71 c3 -9 4 -20 1 -24 -3 -5 -1 -11 5 -15 5
-3 10 -23 10 -44 0 -54 70 -249 93 -259 4 -2 5 -8 1 -13 -3 -5 5 -24 17 -42
34 -47 103 -131 112 -135 4 -2 20 -14 35 -27 15 -12 45 -26 67 -30 l40 -8 -29
-10 c-22 -7 -42 -6 -83 7 -29 9 -53 20 -53 24 0 4 -20 30 -45 57 -24 28 -45
55 -45 61 0 6 -13 26 -30 44 -16 18 -30 38 -30 43 0 5 -8 21 -19 35 -55 80
-103 352 -61 352 4 0 11 -7 14 -16z m-514 -65 c-23 -43 -12 -159 25 -274 45
-138 72 -182 170 -281 71 -72 99 -92 170 -120 18 -7 16 -8 -10 -12 -48 -6
-145 28 -188 67 -32 29 -77 79 -77 86 0 3 -16 28 -36 56 -20 28 -42 70 -51 93
-41 115 -52 322 -19 384 10 19 20 32 23 29 2 -3 -1 -15 -7 -28z m997 -609 c3
-11 9 -20 13 -20 4 0 13 -14 20 -31 13 -31 92 -99 116 -99 7 0 16 -16 20 -35
3 -19 9 -35 13 -35 4 0 12 -20 19 -44 6 -25 23 -55 38 -68 14 -13 40 -38 58
-57 17 -18 48 -51 69 -72 20 -21 37 -43 37 -48 0 -6 7 -28 16 -50 12 -30 24
-43 48 -51 22 -7 37 -21 47 -43 9 -21 30 -40 62 -57 43 -23 49 -30 64 -80 23
-80 39 -107 69 -114 33 -9 105 -87 121 -133 16 -45 49 -92 86 -124 25 -22 31
-35 33 -73 1 -33 -2 -46 -12 -46 -7 0 -23 -13 -36 -30 -24 -33 -38 -38 -38
-15 0 29 -39 57 -70 50 -28 -6 -29 -5 -24 27 3 20 0 40 -9 52 -12 17 -18 17
-50 7 -40 -14 -61 -7 -53 15 17 44 -57 74 -82 34 -23 -38 -70 -15 -76 37 -5
48 -21 63 -61 56 -31 -5 -35 -3 -40 23 -4 16 -8 34 -10 39 -1 6 4 18 13 28 14
15 13 17 -3 17 -12 0 -15 5 -11 16 5 13 0 15 -34 9 -70 -12 -96 9 -68 55 18
28 -14 61 -52 54 -42 -9 -71 27 -65 81 7 52 -14 77 -47 56 -16 -10 -24 -9 -44
4 -28 18 -31 39 -6 57 34 26 25 78 -13 78 -13 0 -36 11 -52 24 -27 23 -27 25
-10 43 22 25 22 36 -4 58 -17 16 -25 17 -51 7 -26 -9 -34 -8 -58 10 -29 21
-29 21 -13 60 17 44 7 68 -31 68 -12 0 -32 7 -45 16 -20 15 -22 22 -16 61 7
50 -5 73 -40 73 -17 0 -25 9 -34 41 -11 38 -11 44 7 61 18 19 22 19 66 4 60
-21 92 -20 141 3 53 25 76 26 82 1z m-952 -32 c16 -77 72 -234 92 -259 7 -8
13 -21 13 -27 0 -6 8 -16 18 -21 9 -5 25 -31 35 -58 17 -49 57 -100 99 -126
30 -20 162 -63 213 -71 23 -3 67 1 103 10 35 9 65 14 68 12 2 -3 -15 -23 -38
-46 -60 -60 -103 -65 -261 -28 -86 20 -101 28 -158 85 -50 50 -89 109 -140
211 -17 36 -36 72 -41 80 -25 44 -44 162 -39 248 2 34 28 26 36 -10z m140 -76
c6 -7 48 -22 95 -33 74 -18 96 -20 165 -11 79 10 105 5 105 -21 0 -11 52 -64
86 -87 23 -16 70 -160 53 -160 -5 0 -9 -11 -9 -23 0 -33 -27 -53 -80 -62 -109
-19 -236 12 -305 72 -11 10 -34 45 -50 78 -17 33 -38 67 -47 76 -21 19 -67
139 -61 157 3 6 0 12 -6 12 -6 0 -11 11 -11 25 0 25 0 25 28 8 15 -10 32 -24
37 -31z m583 -203 c22 -17 26 -27 23 -60 -2 -33 1 -40 22 -48 14 -5 26 -13 28
-18 2 -4 18 -16 34 -25 17 -9 35 -25 40 -35 6 -10 25 -35 43 -56 22 -25 32
-47 32 -70 0 -43 33 -94 73 -113 23 -11 38 -29 51 -61 13 -32 28 -49 52 -61
26 -12 37 -25 45 -54 5 -21 14 -38 20 -38 5 0 19 -9 31 -20 12 -11 28 -20 35
-20 7 0 22 -19 34 -42 27 -53 48 -78 76 -89 12 -4 25 -19 28 -31 9 -34 64 -68
112 -68 27 0 46 -6 58 -20 10 -11 32 -24 49 -28 25 -7 32 -14 36 -42 4 -28 11
-36 35 -44 17 -5 37 -11 45 -14 8 -3 22 -4 32 -3 26 3 33 -20 11 -38 -12 -9
-26 -26 -32 -38 -13 -25 -40 -31 -42 -10 -1 6 -2 20 -3 31 -2 34 -32 43 -68
22 -17 -11 -33 -15 -35 -10 -2 5 -9 20 -16 34 -13 26 -13 26 -109 19 -37 -3
-58 17 -58 57 0 39 -6 43 -64 48 -79 6 -126 52 -129 127 -2 52 -24 69 -60 50
-14 -7 -34 -10 -46 -6 -29 9 -55 50 -48 77 8 30 -12 108 -28 108 -25 0 -45
-12 -45 -27 0 -12 -8 -14 -37 -8 -21 4 -42 7 -48 8 -5 1 -24 20 -41 42 -28 36
-30 42 -17 56 26 30 19 77 -16 110 -18 16 -37 29 -42 29 -6 0 -17 7 -25 15 -8
8 -24 21 -36 29 -19 14 -20 18 -8 46 13 31 8 159 -7 184 -4 6 -8 18 -10 26 -1
8 -5 34 -8 58 -7 48 -4 50 33 21z m1321 -993 c9 -11 -3 -24 -62 -68 -40 -31
-91 -79 -112 -107 -36 -47 -41 -50 -52 -34 -18 23 -17 23 20 67 58 70 98 106
133 121 19 8 34 19 34 24 0 16 26 13 39 -3z m93 -102 c6 -6 -84 -94 -96 -94
-12 0 -32 -24 -50 -58 -60 -116 -159 -141 -105 -27 21 44 119 143 168 169 27
14 74 20 83 10z m78 -125 c0 -10 -4 -19 -10 -19 -14 0 -170 -166 -170 -181 0
-11 -51 -11 -68 0 -10 6 -3 20 27 59 23 28 41 54 41 57 0 25 143 117 168 108
6 -3 12 -14 12 -24z m151 -208 c11 -25 31 -56 46 -70 14 -14 28 -34 32 -43 7
-19 69 -92 146 -172 69 -72 146 -163 170 -200 11 -17 23 -33 28 -34 4 -2 18
-18 30 -36 27 -40 80 -105 127 -155 34 -37 54 -63 66 -88 5 -11 -33 -59 -95
-119 -40 -39 -84 -27 -148 42 -56 60 -146 166 -173 202 -26 37 -48 61 -159
177 -32 33 -70 79 -85 103 -14 23 -31 42 -36 42 -6 0 -18 16 -27 35 -9 19 -20
35 -25 35 -4 0 -14 13 -23 30 -8 16 -34 52 -58 78 -107 124 -107 123 -60 171
21 22 48 51 60 64 12 13 37 31 55 40 31 15 32 15 71 -21 21 -21 48 -57 58 -81z
m800 -848 c10 -67 8 -74 -24 -103 -17 -16 -36 -30 -40 -30 -5 0 -23 -14 -40
-31 -36 -36 -84 -59 -123 -59 -23 0 -26 3 -20 28 4 15 20 39 36 54 17 15 30
31 30 35 0 15 54 63 71 63 10 0 19 3 21 8 4 10 61 41 76 42 6 0 13 -3 13 -7z
m39 -183 c-17 -33 -74 -85 -111 -102 -19 -9 -56 -19 -84 -22 -34 -4 -42 -3
-25 3 35 11 65 29 130 76 51 37 91 63 98 64 1 1 -2 -8 -8 -19z"/>
</g>
</svg>
