<?xml version="1.0" standalone="no"?>
<!DOCTYPE svg PUBLIC "-//W3C//DTD SVG 20010904//EN"
 "http://www.w3.org/TR/2001/REC-SVG-20010904/DTD/svg10.dtd">
<svg version="1.0" xmlns="http://www.w3.org/2000/svg"
 width="521.000000pt" height="473.000000pt" viewBox="0 0 521.000000 473.000000"
 preserveAspectRatio="xMidYMid meet">
<metadata>
Created by potrace 1.16, written by Peter Selinger 2001-2019
</metadata>
<g transform="translate(0.000000,473.000000) scale(0.100000,-0.100000)"
fill="#000000" stroke="none">
<path d="M2140 4460 c-55 -7 -169 -44 -180 -58 -3 -4 -24 -22 -47 -41 -24 -18
-50 -48 -59 -66 -36 -76 -48 -234 -30 -386 8 -65 8 -66 -16 -72 -13 -4 -42
-14 -64 -23 -21 -10 -45 -19 -53 -20 -7 -1 -36 -17 -64 -34 -28 -17 -59 -29
-68 -27 -19 5 -43 -16 -56 -50 -4 -11 -32 -39 -61 -61 -53 -40 -152 -147 -152
-165 0 -6 -19 -40 -43 -76 -42 -65 -82 -147 -108 -226 -8 -22 -18 -43 -22 -46
-5 -3 -10 -12 -11 -20 -2 -8 -6 -21 -9 -29 -6 -16 -10 -38 -27 -155 -6 -38
-17 -86 -24 -105 -21 -54 -25 -462 -5 -487 1 -2 3 -7 4 -13 1 -5 3 -11 4 -12
2 -2 4 -14 7 -27 2 -14 11 -44 19 -68 8 -24 15 -48 15 -53 0 -16 61 -144 73
-155 7 -5 28 -32 47 -60 42 -60 74 -98 118 -139 17 -17 32 -34 32 -38 0 -7 37
-44 192 -190 16 -16 32 -28 34 -28 3 0 28 -18 56 -41 61 -47 196 -116 247
-125 20 -3 64 -15 99 -26 34 -11 101 -23 150 -26 l87 -7 -65 -63 c-44 -43 -90
-75 -139 -99 -41 -20 -79 -39 -85 -44 -43 -34 -75 -56 -98 -68 -15 -8 -36 -21
-45 -30 -10 -9 -39 -29 -66 -44 -28 -17 -45 -33 -41 -39 4 -7 2 -8 -5 -4 -12
8 -131 -100 -131 -120 0 -6 -12 -21 -26 -35 -30 -28 -104 -135 -104 -151 0 -6
-7 -16 -15 -22 -14 -10 -64 -128 -87 -206 -5 -19 -13 -39 -18 -45 -4 -5 -13
-38 -20 -72 -10 -50 -10 -66 0 -78 15 -18 46 -20 56 -4 5 8 10 6 16 -5 22 -39
72 5 83 74 7 47 112 273 152 326 13 17 23 35 23 40 0 27 251 244 283 244 5 0
37 17 71 39 34 21 72 42 85 46 43 13 134 77 181 126 75 81 90 100 96 127 4 15
10 32 14 37 9 12 24 67 22 77 -3 14 44 36 113 53 85 20 137 36 150 47 5 4 17
8 27 8 26 0 148 51 148 62 0 5 5 6 10 3 6 -3 10 -1 10 6 0 7 3 10 6 6 3 -3 33
12 66 34 34 21 65 39 70 39 8 0 29 17 117 99 14 13 43 31 63 41 21 9 35 20 31
24 -4 4 -3 10 3 14 5 4 18 21 28 37 11 17 43 60 73 96 29 36 53 71 53 76 0 5
11 20 24 32 13 12 31 40 41 62 10 21 21 39 25 39 4 0 17 22 29 49 11 28 25 52
30 55 5 3 12 18 16 33 3 16 18 53 33 83 14 30 27 62 29 70 19 87 27 288 14
350 -5 25 -15 79 -22 120 -8 47 -25 96 -45 131 -17 30 -34 69 -38 85 -4 16
-18 52 -32 81 -13 28 -24 61 -24 72 0 11 -4 23 -10 26 -5 3 -26 32 -47 63 -63
97 -128 165 -274 287 -52 44 -88 64 -179 100 -52 21 -96 42 -98 46 -2 5 -9 9
-16 9 -7 0 -21 9 -31 20 -21 23 -24 97 -9 240 5 55 6 112 1 135 -5 22 -11 61
-14 86 -2 25 -19 74 -36 108 -43 86 -68 95 -292 102 -49 2 -112 9 -140 16 -27
7 -54 12 -60 12 -5 -1 -35 -5 -65 -9z m147 -85 c12 -2 26 -5 30 -8 4 -3 62 -8
128 -12 151 -8 179 -16 199 -59 9 -19 16 -42 16 -52 0 -10 8 -44 17 -77 14
-52 15 -71 4 -156 -7 -53 -14 -109 -15 -126 -5 -53 -6 -56 -17 -49 -7 4 -9 25
-4 63 16 122 17 138 16 186 -1 89 -58 171 -151 221 -29 15 -62 19 -190 22
-200 4 -208 4 -250 -11 -34 -11 -112 -57 -98 -57 4 0 -4 -22 -17 -48 -19 -37
-23 -58 -19 -88 6 -42 7 -142 2 -213 -2 -32 -8 -45 -20 -47 -29 -4 -42 63 -41
216 1 112 15 161 62 208 27 27 31 36 20 43 -12 8 -11 9 1 8 17 -3 94 17 125
31 36 17 107 18 202 5z m-62 -162 c1 -17 11 -48 21 -69 18 -34 22 -37 66 -38
26 -1 45 1 43 4 -2 4 5 6 17 6 24 -1 67 64 68 102 0 12 2 22 5 22 23 0 87 -38
117 -70 32 -34 36 -44 34 -82 -4 -47 -16 -178 -21 -218 -1 -14 -3 -31 -4 -37
-1 -17 -41 -16 -121 2 -36 9 -81 18 -100 21 -19 3 -44 6 -55 8 -11 2 -26 -2
-34 -7 -10 -9 -17 -7 -27 7 -11 16 -14 16 -19 5 -7 -20 -45 -21 -135 -6 l-75
13 0 143 c-1 116 2 147 16 170 25 41 74 61 143 58 58 -2 59 -2 61 -34z m135 4
c0 -34 -2 -35 -51 -28 -9 2 -7 35 4 49 5 6 18 12 28 12 15 0 19 -7 19 -33z
m49 -473 c127 -23 245 -90 302 -170 18 -24 36 -44 41 -44 4 0 8 -5 8 -12 0 -6
8 -21 19 -32 18 -20 36 -90 48 -182 4 -37 1 -43 -30 -71 -39 -34 -70 -86 -59
-98 4 -5 2 -5 -4 -2 -11 6 -69 -50 -111 -106 -12 -16 -40 -48 -62 -72 -23 -24
-41 -46 -41 -49 0 -3 -42 -48 -94 -100 l-93 -95 -24 27 c-13 15 -43 56 -67 92
-25 36 -57 80 -73 98 -16 18 -29 36 -29 40 0 4 -20 29 -44 55 -24 26 -61 69
-82 95 -21 26 -67 76 -101 111 -35 36 -63 68 -63 72 0 4 -6 14 -13 21 -48 50
-87 109 -87 131 0 30 19 77 32 77 4 0 8 5 8 11 0 20 90 128 113 135 12 4 29
15 37 24 18 20 105 60 130 60 10 0 20 -5 22 -12 3 -9 11 -9 34 0 23 10 38 10
59 2 22 -8 32 -8 42 3 17 16 59 14 182 -9z m-572 9 c-4 -3 -2 -12 4 -19 8 -10
2 -22 -23 -47 -55 -57 -87 -100 -99 -134 -6 -18 -14 -33 -17 -33 -10 0 -87 92
-95 113 -9 23 19 48 88 82 66 32 161 58 142 38z m949 -89 c38 -20 80 -43 94
-50 14 -8 30 -14 37 -14 29 0 133 -65 133 -82 0 -4 -20 -28 -44 -53 -25 -25
-42 -45 -38 -45 3 0 -13 -18 -37 -41 -23 -23 -43 -39 -45 -38 -3 4 -25 103
-30 134 -5 31 -17 57 -40 86 -12 14 -32 41 -46 59 -14 19 -36 45 -49 57 -34
33 -14 29 65 -13z m-1212 -99 c10 -14 27 -30 39 -36 23 -10 62 -83 59 -109 -1
-8 -3 -31 -6 -50 -11 -87 -20 -188 -19 -220 2 -66 14 -155 24 -164 5 -6 9 -19
9 -29 0 -21 62 -116 105 -163 27 -28 65 -84 65 -94 0 -11 -559 -10 -652 1 -89
10 -98 13 -100 33 -2 30 -1 35 17 96 8 30 22 91 31 135 8 44 26 105 39 135 31
73 37 92 40 113 1 11 6 22 12 25 6 4 28 39 48 77 41 75 75 128 88 133 4 2 7 9
7 15 0 14 57 71 103 103 42 30 71 30 91 -1z m1632 -191 c44 -47 81 -91 83 -97
2 -6 12 -20 22 -31 10 -10 33 -53 50 -95 17 -42 35 -80 40 -85 5 -6 9 -23 9
-38 0 -15 5 -28 11 -28 5 0 8 -4 4 -9 -3 -5 -1 -12 5 -16 20 -12 43 -71 62
-155 22 -103 16 -131 -27 -120 -13 4 -180 0 -202 -4 -10 -2 -61 -7 -113 -11
-52 -4 -98 -9 -101 -11 -17 -10 -342 -5 -352 5 -8 8 -6 11 6 11 10 0 22 12 28
27 5 14 17 31 25 37 14 11 30 34 56 86 7 14 15 27 18 30 7 7 36 69 48 105 20
56 34 164 33 240 -1 49 1 53 59 115 33 36 73 80 89 98 16 17 38 32 49 32 12 0
51 -34 98 -86z m-1456 -22 c0 -5 8 -17 19 -28 10 -11 35 -42 55 -68 20 -27 61
-73 91 -104 30 -30 55 -58 55 -62 0 -3 32 -39 70 -79 39 -40 70 -78 70 -83 0
-6 17 -31 38 -57 49 -60 125 -172 119 -177 -2 -2 -66 -5 -143 -6 -169 -2 -216
10 -207 54 4 23 1 29 -21 38 -14 5 -26 13 -26 18 0 4 -16 26 -36 48 -76 81
-101 128 -113 209 -6 42 -11 99 -11 127 0 66 19 178 31 178 5 0 9 -4 9 -8z
m1094 -214 c-8 -82 -19 -118 -61 -203 -48 -95 -124 -196 -173 -230 -42 -29
-46 -30 -184 -26 -37 1 -38 2 -23 19 10 10 14 22 10 26 -5 4 -3 6 3 4 12 -4
108 94 166 170 22 28 44 52 49 52 4 0 10 8 13 18 4 10 34 47 69 83 35 35 78
83 96 107 18 23 34 42 37 42 2 0 1 -28 -2 -62z m-940 -536 c8 -15 35 -51 60
-78 43 -48 44 -52 36 -90 -5 -21 -10 -56 -10 -76 0 -20 -5 -40 -10 -43 -6 -4
-7 -11 -4 -17 4 -6 3 -8 -2 -5 -6 3 -31 -18 -57 -46 -25 -29 -114 -121 -196
-206 -83 -84 -151 -156 -153 -160 -2 -3 -25 -23 -53 -44 -27 -21 -55 -48 -61
-59 -10 -19 -12 -18 -40 21 -18 26 -34 39 -44 35 -8 -3 -11 -2 -8 2 13 12 -12
44 -30 38 -11 -4 -13 -3 -5 3 9 6 0 21 -30 54 -49 52 -97 120 -97 137 0 7 -5
12 -10 12 -6 0 -9 3 -8 8 1 4 -7 25 -17 47 -10 22 -19 49 -21 60 -6 35 -26 99
-36 120 -14 26 -22 164 -13 241 l6 61 112 2 c61 1 112 3 113 4 1 1 128 3 283
5 l280 3 15 -29z m331 18 c6 -9 -2 -20 -62 -89 l-32 -36 -33 19 c-57 33 -120
89 -108 96 6 3 52 7 102 9 51 1 94 4 97 7 8 7 30 4 36 -6z m1217 -4 l63 -13
-2 -88 c-2 -86 -3 -90 -69 -224 -79 -160 -123 -238 -176 -305 -21 -27 -36 -56
-33 -63 2 -8 1 -12 -4 -8 -5 3 -23 -14 -40 -37 -51 -71 -83 -108 -102 -118
-22 -12 -31 -3 -134 138 -42 56 -79 102 -84 102 -4 0 -14 11 -21 25 -7 13 -17
22 -21 19 -5 -3 -6 1 -3 9 3 8 -3 21 -14 28 -11 8 -19 18 -20 22 0 5 -8 19
-18 31 -63 73 -104 138 -104 163 0 15 -11 64 -25 107 -20 66 -22 81 -11 90 8
6 16 23 20 37 3 15 14 36 23 47 17 19 32 21 193 26 185 6 353 16 359 22 9 8
167 1 223 -10z m-1062 -71 c35 -35 65 -71 66 -79 4 -26 -96 -31 -191 -9 -11 3
-27 6 -35 7 -19 3 -21 6 -14 34 4 12 12 22 20 22 7 0 18 8 23 19 12 22 54 71
61 71 3 0 34 -29 70 -65z m198 57 c21 -14 -12 -79 -50 -98 -30 -16 -33 -16
-43 1 -5 9 -23 33 -38 53 l-29 37 24 6 c33 10 121 10 136 1z m-363 -228 c82
-21 204 -21 246 0 38 19 45 15 88 -53 l31 -47 -22 -56 c-15 -38 -32 -62 -55
-77 -65 -42 -180 -48 -281 -15 -24 8 -49 11 -55 8 -7 -4 -9 -4 -5 1 4 4 -13
23 -37 42 -45 34 -75 78 -75 108 0 17 28 65 45 77 5 4 6 8 1 8 -5 0 -3 7 5 16
8 10 20 13 33 9 12 -3 48 -13 81 -21z m-219 -156 c4 -13 18 -36 31 -52 17 -20
23 -36 19 -52 -3 -13 -2 -26 4 -29 5 -3 10 -15 10 -26 0 -10 5 -19 10 -19 6 0
10 -5 10 -11 0 -7 16 -34 35 -60 19 -27 35 -53 35 -57 0 -5 22 -28 50 -52 36
-31 49 -49 49 -69 -1 -14 2 -55 5 -91 9 -121 11 -288 3 -297 -11 -10 -156 -21
-160 -11 -1 4 -25 8 -53 10 -29 2 -50 6 -48 10 6 10 -54 21 -67 12 -8 -4 -9
-3 -5 4 7 11 -17 16 -61 15 -7 -1 -10 3 -7 8 3 5 -2 9 -10 9 -44 0 -202 104
-307 201 -27 25 -52 43 -55 40 -4 -3 -1 4 5 17 13 24 164 184 349 370 57 57
101 106 98 109 -5 6 34 42 46 43 4 0 10 -10 14 -22z m695 -75 c5 -7 7 -13 3
-13 -3 0 10 -20 30 -44 20 -24 36 -47 36 -51 0 -3 16 -23 35 -43 19 -20 38
-45 41 -54 3 -10 9 -18 13 -18 5 0 14 -15 22 -32 7 -18 21 -40 31 -49 10 -9
18 -21 18 -28 0 -6 11 -21 25 -33 14 -12 25 -27 25 -34 0 -6 7 -17 15 -24 8
-7 15 -16 15 -20 0 -10 -196 -133 -240 -150 -19 -7 -40 -17 -47 -23 -7 -5 -17
-6 -23 -2 -5 3 -13 -1 -16 -9 -3 -9 -10 -13 -15 -11 -5 3 -21 -1 -37 -9 -16
-8 -67 -25 -113 -36 -46 -12 -92 -24 -101 -26 -15 -5 -18 1 -18 38 0 24 4 48
8 55 4 6 4 71 -1 144 -7 115 -6 135 7 145 9 6 12 14 8 18 -4 4 -2 6 3 5 40
-11 104 67 111 134 6 65 14 95 27 100 7 3 28 35 46 72 l34 68 24 -29 c13 -16
28 -35 34 -41z m-446 -109 c78 -25 95 -25 189 -7 28 5 29 5 22 -33 -5 -27 -18
-49 -42 -71 -63 -56 -124 -48 -191 25 -40 42 -47 55 -44 75 0 4 -3 7 -8 7 -5
0 -11 7 -15 15 -7 19 -5 19 89 -11z m-2 -835 c-40 -67 -192 -189 -237 -189 -6
0 -36 -17 -66 -38 -30 -20 -85 -53 -122 -71 -38 -19 -68 -37 -68 -40 0 -4 -25
-24 -55 -46 -30 -22 -59 -50 -66 -62 -7 -12 -16 -20 -21 -17 -4 3 -8 0 -8 -6
0 -7 -21 -40 -47 -74 -27 -33 -73 -110 -103 -171 -65 -131 -59 -119 -65 -113
-9 9 55 168 76 191 12 12 25 31 30 42 47 99 204 266 289 307 25 12 72 43 105
70 33 26 65 48 72 48 7 0 13 5 13 10 0 6 6 10 13 10 27 0 143 63 169 92 15 16
32 27 38 23 5 -3 10 -1 10 4 0 14 41 61 52 61 5 0 1 -14 -9 -31z m-870 -874
c-3 -9 -8 -14 -10 -11 -3 3 -2 9 2 15 9 16 15 13 8 -4z m-13 -35 c0 -5 -5 -10
-11 -10 -5 0 -7 5 -4 10 3 6 8 10 11 10 2 0 4 -4 4 -10z"/>
<path d="M2296 3574 c-10 -7 -41 -18 -68 -24 -71 -15 -130 -74 -161 -160 -13
-36 -22 -76 -21 -90 6 -55 17 -115 23 -120 3 -3 17 -27 31 -53 14 -27 37 -60
51 -75 28 -28 117 -80 153 -89 47 -12 142 -14 182 -4 54 14 87 47 142 141 43
74 43 76 39 155 -5 78 -7 94 -20 125 -4 8 -13 33 -20 55 -24 68 -130 129 -247
141 -25 3 -50 6 -55 8 -6 2 -19 -2 -29 -10z m131 -85 c12 1 25 -4 28 -9 3 -6
16 -11 28 -11 15 -1 17 -3 6 -6 -9 -2 -19 -17 -22 -32 -6 -26 -8 -28 -61 -27
-33 1 -56 5 -56 12 0 14 -34 54 -46 54 -14 0 -34 -59 -23 -66 13 -8 -10 -36
-25 -31 -13 4 -46 -30 -46 -48 0 -7 9 -20 20 -30 23 -21 11 -45 -21 -45 -10 0
-23 -9 -29 -20 -7 -14 -7 -20 0 -20 5 0 9 -5 7 -11 -1 -6 13 -19 32 -29 18
-10 42 -33 52 -50 25 -41 77 -64 100 -44 22 20 46 17 59 -6 12 -23 29 -25 53
-7 15 11 15 15 3 39 -12 23 -12 29 0 39 11 9 18 9 26 1 7 -7 20 -12 30 -12 18
0 17 -2 -1 -39 -11 -21 -28 -42 -38 -46 -25 -11 -183 -14 -183 -4 0 4 -15 12
-34 18 -19 5 -41 14 -48 20 -7 6 -24 20 -38 30 -14 11 -35 38 -45 60 -11 22
-23 41 -26 41 -3 0 -9 25 -13 55 -6 58 17 140 52 179 32 34 107 54 192 48 25
-2 55 -3 67 -3z m140 -81 c7 -14 16 -39 19 -55 5 -24 2 -31 -21 -41 -35 -16
-34 -16 -50 20 -11 28 -11 37 1 61 8 15 12 32 8 38 -4 7 1 10 12 7 10 -2 25
-15 31 -30z m-115 -118 c35 -32 51 -70 28 -70 -5 0 -17 -8 -27 -18 -20 -20
-78 -48 -68 -33 3 6 -2 16 -10 23 -9 7 -26 23 -37 35 -12 12 -26 19 -32 16 -6
-4 -3 3 7 14 9 11 17 27 17 36 0 9 10 23 22 31 12 9 19 16 15 16 -5 0 -5 5 -2
11 7 11 17 4 87 -61z m151 -72 c-8 -42 -9 -43 -28 -25 -20 20 -19 34 3 46 28
17 32 13 25 -21z"/>
<path d="M1416 4142 c-3 -5 -7 -47 -10 -93 -2 -46 -7 -102 -11 -125 -5 -31 -3
-44 10 -57 15 -16 18 -16 39 0 21 16 24 26 24 112 1 59 6 97 13 102 18 10 -12
63 -38 67 -11 2 -24 -1 -27 -6z"/>
<path d="M3346 3998 c-36 -20 -65 -51 -59 -61 3 -6 1 -7 -6 -3 -7 5 -31 -7
-58 -28 -26 -20 -50 -36 -55 -36 -16 0 -38 -28 -38 -47 0 -24 19 -43 43 -43
21 0 98 53 137 95 14 15 40 33 58 40 36 16 42 41 15 74 -15 16 -22 18 -37 9z"/>
<path d="M859 3670 c-1 -5 -2 -16 -3 -22 -1 -7 1 -17 4 -23 4 -5 16 -35 27
-65 12 -30 25 -64 29 -75 10 -27 9 -24 23 -77 9 -33 19 -48 34 -52 51 -13 52
33 4 136 -35 74 -45 103 -51 142 -1 9 -15 23 -30 31 -34 18 -36 18 -37 5z"/>
<path d="M3617 3473 c-9 -3 -15 -8 -13 -11 2 -4 -26 -7 -63 -7 -62 0 -66 -1
-71 -25 -6 -29 35 -76 54 -61 14 10 100 24 144 22 29 -1 32 2 32 28 0 42 -35
64 -83 54z"/>
<path d="M3662 3008 c-30 -30 -1 -59 66 -66 26 -2 71 -17 101 -33 81 -43 105
-36 76 24 -11 23 -23 33 -42 35 -14 1 -31 6 -37 11 -13 11 -113 41 -136 41 -9
0 -21 -5 -28 -12z"/>
<path d="M673 2948 c-24 -31 -23 -50 5 -73 15 -13 38 -45 52 -71 55 -108 125
-184 153 -167 15 9 6 49 -18 71 -14 13 -41 51 -62 85 -20 34 -43 68 -50 75 -7
7 -13 19 -13 26 0 6 -6 24 -12 39 -14 28 -39 35 -55 15z"/>
<path d="M3732 2440 c-6 -11 -12 -23 -12 -27 0 -5 34 -43 76 -86 57 -60 79
-77 92 -71 9 4 20 6 25 6 4 -1 7 5 7 13 0 8 4 15 8 15 4 0 8 9 9 19 1 13 -7
21 -24 26 -13 3 -50 33 -80 65 -58 64 -81 72 -101 40z"/>
<path d="M706 2121 c-10 -11 -16 -27 -14 -37 4 -22 93 -77 168 -104 30 -11 63
-25 72 -30 27 -15 48 -1 48 31 0 16 -3 29 -7 30 -93 9 -209 66 -225 109 -9 25
-20 25 -42 1z"/>
<path d="M3518 1963 c-14 -3 -18 -15 -18 -44 0 -21 4 -39 8 -39 11 0 39 -99
48 -165 9 -72 46 -91 62 -31 8 26 4 57 -17 140 -28 109 -50 146 -83 139z"/>
<path d="M3190 1565 c-8 -9 -12 -39 -11 -73 0 -31 -5 -81 -13 -110 -16 -58
-13 -77 11 -86 27 -11 52 30 49 79 -1 24 1 42 5 39 5 -2 9 26 11 63 2 49 -1
73 -12 86 -18 21 -24 21 -40 2z"/>
<path d="M1147 1552 c-18 -7 -48 -16 -67 -18 -44 -6 -54 -16 -46 -47 9 -37 38
-38 108 -5 45 21 69 27 88 22 41 -12 59 -12 77 1 14 10 15 17 7 36 -10 21 -18
24 -73 24 -34 1 -76 -5 -94 -13z"/>
<path d="M1625 1327 c-22 -16 -67 -43 -100 -59 -68 -34 -77 -45 -65 -69 18
-33 41 -30 109 13 36 23 70 48 74 55 4 7 21 13 36 13 35 0 51 18 41 46 -13 34
-50 34 -95 1z"/>
<path d="M2710 1291 c0 -5 -9 -13 -20 -16 -11 -3 -20 -11 -20 -17 0 -15 -67
-115 -107 -161 -34 -39 -37 -45 -27 -71 13 -35 48 -17 82 43 19 32 43 69 56
82 58 63 86 141 54 147 -10 2 -18 -1 -18 -7z"/>
</g>
</svg>
