<?xml version="1.0" standalone="no"?>
<!DOCTYPE svg PUBLIC "-//W3C//DTD SVG 20010904//EN"
 "http://www.w3.org/TR/2001/REC-SVG-20010904/DTD/svg10.dtd">
<svg version="1.0" xmlns="http://www.w3.org/2000/svg"
 width="509.000000pt" height="441.000000pt" viewBox="0 0 509.000000 441.000000"
 preserveAspectRatio="xMidYMid meet">
<metadata>
Created by potrace 1.16, written by Peter Selinger 2001-2019
</metadata>
<g transform="translate(0.000000,441.000000) scale(0.100000,-0.100000)"
fill="#000000" stroke="none">
<path d="M2635 4383 c-64 -12 -127 -65 -119 -100 l6 -23 -121 -1 c-67 -1 -133
-3 -148 -5 -49 -5 -217 -17 -258 -18 -34 -1 -40 2 -43 20 -5 37 -72 90 -115
92 -20 1 -37 -2 -37 -6 0 -4 -14 -13 -31 -19 -17 -7 -28 -17 -24 -22 3 -6 1
-11 -4 -11 -14 0 -14 -37 -1 -45 6 -3 10 -14 10 -23 0 -20 -65 -49 -180 -82
-41 -12 -99 -37 -128 -57 -48 -33 -54 -35 -65 -19 -9 12 -20 16 -38 11 -20 -5
-33 -23 -57 -75 -35 -74 -40 -121 -17 -140 8 -7 15 -19 15 -26 0 -8 4 -14 9
-14 18 0 21 -37 7 -65 -13 -26 -13 -32 2 -59 9 -17 23 -37 30 -44 6 -7 12 -19
12 -27 0 -7 8 -16 17 -19 15 -6 14 -9 -7 -19 -28 -14 -59 -90 -60 -145 0 -38
22 -87 47 -101 16 -8 16 -13 5 -31 -17 -27 -7 -103 19 -148 18 -31 18 -33 1
-39 -28 -11 -39 -34 -36 -72 6 -55 26 -111 41 -111 7 0 13 -4 13 -10 0 -17 64
-11 98 10 38 23 49 25 33 7 -12 -15 -9 -42 13 -89 15 -34 30 -81 27 -86 -1 -1
5 -15 12 -30 8 -15 17 -43 21 -62 3 -19 20 -64 38 -100 31 -66 52 -111 83
-185 27 -66 38 -89 57 -117 10 -14 18 -32 18 -39 0 -7 6 -20 14 -28 14 -15 57
-130 61 -161 1 -15 21 -82 32 -110 6 -15 7 -21 16 -95 3 -22 17 -94 32 -160
14 -66 28 -133 30 -150 8 -55 16 -210 14 -245 -3 -42 -3 -62 5 -215 4 -66 8
-128 10 -137 2 -9 -1 -19 -7 -21 -6 -2 -12 -32 -14 -68 -1 -35 -6 -100 -12
-144 -5 -44 -10 -102 -10 -128 -2 -85 -58 -267 -83 -267 -9 0 5 -46 26 -85 13
-25 24 -31 63 -37 27 -4 82 -14 123 -22 41 -9 80 -14 87 -12 7 3 15 1 18 -3 9
-16 167 -33 350 -40 184 -6 263 -2 420 24 50 8 124 17 165 20 96 7 211 24 252
36 30 9 134 22 183 22 26 1 55 33 50 56 -2 10 -24 49 -49 86 -25 38 -46 77
-46 87 0 10 -4 18 -8 18 -8 0 -27 62 -37 122 -7 48 -42 125 -58 131 -9 4 -9 6
1 6 7 1 10 6 7 11 -11 18 -47 152 -61 230 -33 178 -50 384 -34 425 5 12 9 39
11 61 1 21 7 45 13 52 5 8 11 21 12 30 8 57 16 112 19 144 2 20 9 54 15 76 5
22 14 60 20 83 5 24 16 71 25 104 9 33 22 85 29 116 12 53 109 219 128 219 5
0 8 5 8 12 0 6 11 26 25 44 14 18 25 37 25 43 0 5 10 17 22 25 12 9 20 16 16
16 -4 0 6 13 20 28 84 87 164 225 193 332 19 67 45 92 89 85 44 -7 59 7 89 88
29 78 27 117 -5 152 -23 25 -25 31 -14 49 18 29 24 90 10 115 -9 18 -6 25 20
51 16 16 31 33 31 37 8 46 9 67 9 122 -1 36 -3 68 -6 73 -3 4 4 18 15 30 18
19 21 35 21 124 0 93 -2 103 -22 116 -32 21 -18 48 26 48 31 0 38 5 56 40 31
61 23 160 -13 160 -7 0 -23 8 -37 17 -13 9 -42 17 -64 18 -56 2 -129 15 -142
26 -9 8 -110 34 -160 42 -10 1 -23 5 -29 9 -8 5 -153 37 -241 54 -17 3 -25 16
-34 54 -15 63 -38 80 -102 75 -60 -5 -95 -28 -104 -68 -3 -18 -12 -35 -18 -39
-15 -11 -168 -9 -246 2 -36 5 -110 12 -165 15 -55 4 -103 9 -107 11 -3 2 -4
12 -1 22 9 36 -74 94 -122 85z m29 -92 c3 -5 -1 -12 -10 -15 -20 -8 -29 -1
-19 13 8 13 22 14 29 2z m-796 -37 c26 -18 20 -34 -12 -34 -27 0 -51 24 -41
40 9 14 27 13 53 -6z m1572 6 c0 -5 -4 -10 -9 -10 -6 0 -13 5 -16 10 -3 6 1
10 9 10 9 0 16 -4 16 -10z m-820 -69 c19 -1 71 1 115 5 46 3 126 1 190 -7 61
-6 202 -13 315 -14 113 -1 228 -6 255 -13 28 -6 68 -14 90 -16 40 -6 59 -10
168 -40 32 -9 68 -16 80 -16 12 0 49 -11 82 -24 59 -24 95 -61 95 -97 0 -8 9
-25 21 -38 30 -32 19 -59 -50 -129 -42 -42 -75 -66 -110 -78 -27 -10 -48 -21
-46 -24 1 -3 -21 -6 -50 -7 -29 0 -63 -6 -75 -13 -12 -7 -45 -14 -74 -17 -28
-3 -53 -7 -55 -8 -2 -2 -21 7 -42 21 -48 30 -89 32 -96 4 -6 -24 -16 -25 -33
-5 -16 19 -26 12 -50 -34 -23 -46 -39 -51 -165 -57 -93 -4 -190 -11 -310 -23
-38 -3 -85 -2 -102 3 -23 6 -51 5 -90 -4 -32 -7 -69 -13 -83 -12 -14 1 -99 6
-190 12 -235 15 -319 28 -350 56 -52 48 -180 76 -180 39 0 -25 -33 -35 -81
-23 -24 6 -49 15 -54 19 -6 4 -33 13 -60 19 -133 30 -247 127 -236 202 0 4 1
37 2 74 2 62 3 67 32 85 17 10 44 21 59 24 17 4 25 11 22 17 -4 7 -2 8 5 4 6
-4 60 9 120 28 60 20 126 36 148 36 22 0 62 4 89 9 27 5 87 12 134 17 47 4 99
8 115 10 17 2 84 6 150 10 66 3 121 7 122 8 1 1 112 -1 173 -3z m1543 -206 c4
-8 2 -17 -3 -20 -6 -4 -10 3 -10 14 0 25 6 27 13 6z m-2816 -65 c-1 -31 -5
-40 -19 -40 -20 0 -21 4 -12 49 10 47 33 40 31 -9z m58 -210 c2 -32 -14 -40
-34 -16 -9 10 -9 20 0 40 15 32 31 21 34 -24z m2688 -37 c4 -24 2 -40 -6 -45
-18 -12 -32 -3 -29 18 11 74 26 85 35 27z m-105 -18 c-1 -32 5 -54 19 -72 l20
-27 -27 -41 c-39 -58 -43 -86 -20 -146 10 -29 17 -55 15 -59 -3 -4 -17 -11
-32 -15 -59 -14 -73 -31 -73 -90 0 -29 5 -57 10 -60 32 -19 -30 -53 -103 -57
-27 -1 -50 -6 -53 -10 -3 -5 -10 -6 -15 -3 -5 4 -9 2 -9 -4 0 -10 -48 -28 -95
-34 -29 -4 -44 -8 -93 -28 -70 -28 -262 -67 -387 -79 -88 -8 -322 -4 -335 6
-8 6 -27 14 -41 18 -41 9 -42 31 -3 52 19 10 35 27 35 36 2 31 4 36 12 44 17
17 6 65 -23 96 -31 32 -38 48 -20 48 5 0 20 22 33 49 26 56 20 84 -22 100 -14
5 -21 10 -14 10 13 1 53 66 53 87 0 11 14 14 61 14 33 0 69 5 80 11 11 6 92
12 179 14 88 2 163 6 168 9 5 3 29 -5 53 -17 27 -14 61 -22 90 -21 42 0 51 5
98 52 42 42 58 52 85 52 19 0 51 8 72 17 43 18 42 18 97 27 52 8 137 36 162
53 11 7 21 13 22 13 2 0 2 -20 1 -45z m-2486 6 c34 -20 246 -93 308 -106 22
-5 46 -20 63 -41 37 -45 73 -62 122 -61 35 2 42 6 55 35 l15 32 75 -6 c41 -3
84 -8 95 -11 21 -5 118 -11 274 -17 79 -3 97 -7 107 -22 7 -11 19 -26 26 -34
42 -47 42 -48 8 -79 -31 -27 -32 -31 -25 -80 4 -28 10 -53 15 -56 4 -2 5 -16
2 -30 -2 -15 0 -25 7 -25 6 0 11 -4 11 -10 0 -5 -7 -10 -15 -10 -15 0 -18 -13
-16 -60 4 -65 11 -75 59 -97 l37 -17 -32 -4 c-19 -2 -33 -9 -33 -16 0 -18 -39
-25 -97 -16 -26 4 -94 8 -150 9 -69 2 -145 11 -240 32 -76 16 -151 31 -168 33
-63 8 -155 37 -285 91 -74 30 -150 58 -168 61 -32 6 -32 7 -30 58 2 71 -10
115 -39 140 -24 21 -24 22 -8 60 32 77 14 156 -37 156 -21 0 -23 13 -4 29 8 7
17 27 20 46 4 19 9 35 11 35 2 0 19 -9 37 -19z m-74 -176 c4 -32 -40 -79 -67
-70 -11 3 -21 11 -21 16 0 12 18 48 34 66 16 19 51 11 54 -12z m1312 -16 c0
-11 -27 -12 -34 0 -3 4 -3 11 0 14 8 8 34 -3 34 -14z m1325 -48 c-7 -32 -22
-43 -22 -16 0 8 4 15 9 15 4 0 8 10 8 22 0 12 3 19 6 15 3 -3 3 -19 -1 -36z
m-2611 -127 c12 -31 6 -82 -10 -88 -26 -10 -34 3 -34 55 0 41 3 49 19 49 10 0
22 -7 25 -16z m1286 2 c0 -15 -37 -32 -47 -22 -3 3 -3 12 0 21 8 19 47 20 47
1z m1270 -101 c0 -20 -5 -25 -25 -25 -27 0 -33 18 -13 38 20 20 38 14 38 -13z
m-1264 -87 c-3 -13 -6 -26 -6 -30 0 -5 -7 -8 -15 -8 -10 0 -14 7 -11 23 3 12
5 25 5 30 1 4 8 7 17 7 12 0 15 -6 10 -22z m-1168 -32 c12 -1 22 -4 22 -8 0
-4 16 -10 35 -14 19 -3 39 -12 46 -20 6 -8 19 -14 28 -14 9 0 21 -4 26 -9 16
-15 135 -53 215 -68 41 -7 95 -18 120 -22 173 -34 229 -42 335 -47 66 -3 131
-7 145 -9 14 -2 30 -4 37 -4 6 -1 9 -10 6 -22 -4 -15 -11 -19 -27 -15 -11 3
-93 9 -181 12 -88 3 -176 7 -195 9 -54 7 -103 16 -120 22 -8 4 -19 5 -24 4 -9
-2 -80 22 -132 45 -17 7 -73 23 -125 35 -52 11 -112 29 -134 38 -22 10 -57 25
-78 34 -50 23 -90 21 -112 -3 -27 -30 -52 -25 -60 11 -4 17 -3 35 1 39 13 12
54 17 104 11 25 -2 55 -5 68 -5z m2442 -47 c0 -11 -7 -33 -15 -50 -9 -16 -12
-35 -8 -42 4 -7 -9 0 -28 14 -64 48 -72 50 -141 35 -79 -18 -185 -49 -262 -75
-69 -25 -202 -39 -191 -21 4 6 13 9 21 6 7 -3 16 -1 19 4 3 4 24 11 48 15 23
3 65 11 92 17 28 7 56 11 63 10 6 -2 12 2 12 8 0 5 10 10 23 10 12 1 47 10 77
21 30 11 72 24 92 30 21 5 61 20 90 33 59 27 108 20 108 -15z m-2289 -135 c20
-2 65 -16 100 -29 34 -14 70 -25 78 -25 9 0 28 -6 43 -14 15 -8 59 -19 99 -25
39 -7 80 -16 91 -22 11 -6 40 -10 64 -9 115 3 167 1 272 -9 94 -10 120 -16
153 -38 44 -29 107 -33 143 -9 24 15 64 23 191 37 147 16 274 33 315 44 14 4
66 11 115 16 96 10 156 25 167 43 6 8 8 7 8 -1 0 -13 13 -10 65 13 17 7 44 15
60 18 17 3 46 10 65 16 71 20 76 17 78 -54 2 -36 -2 -67 -8 -71 -5 -3 -10 -15
-10 -26 0 -11 -6 -22 -13 -25 -7 -2 -14 -16 -15 -31 -1 -15 -9 -34 -17 -43 -8
-9 -15 -22 -15 -28 0 -7 -5 -12 -11 -12 -5 0 -7 -4 -4 -10 3 -5 2 -10 -2 -10
-5 0 -16 -12 -25 -27 -9 -16 -27 -39 -40 -53 -13 -14 -44 -52 -70 -85 -27 -33
-52 -65 -58 -72 -5 -7 -10 -17 -10 -23 0 -5 -14 -24 -30 -42 -17 -17 -33 -42
-36 -55 -4 -13 -10 -23 -15 -23 -5 0 -9 -6 -9 -13 0 -7 -11 -28 -24 -47 -12
-19 -27 -53 -31 -75 -10 -49 -9 -45 -30 -125 -9 -36 -19 -78 -21 -95 -3 -16
-9 -39 -14 -50 -9 -20 -26 -116 -37 -205 -3 -25 -10 -56 -16 -70 -5 -14 -11
-34 -12 -45 -2 -11 -8 -49 -14 -84 -5 -35 -8 -76 -6 -90 3 -14 7 -60 9 -101 3
-41 10 -97 15 -125 6 -27 13 -68 16 -90 2 -22 8 -56 13 -75 10 -42 5 -70 -12
-70 -8 0 -33 -9 -57 -19 -24 -11 -69 -23 -99 -26 -30 -4 -69 -11 -86 -16 -17
-5 -79 -11 -138 -14 -59 -3 -111 -7 -115 -10 -28 -17 -500 -22 -589 -5 -34 6
-79 13 -99 16 -57 7 -63 16 -55 92 7 75 7 189 -2 432 -6 187 -8 208 -31 340
-25 153 -33 193 -44 235 -5 22 -13 56 -16 75 -3 19 -14 64 -25 100 -10 36 -20
74 -22 85 -2 11 -9 26 -15 33 -7 7 -13 19 -13 26 0 8 -25 57 -55 111 -30 53
-55 101 -55 107 0 11 -15 45 -85 193 -33 68 -58 145 -48 145 2 0 -3 7 -11 16
-9 8 -16 26 -16 38 0 13 -7 43 -15 66 -24 69 -22 72 43 49 31 -11 73 -22 93
-25z m1564 -29 c-62 -16 -103 -19 -89 -6 5 6 29 11 54 14 79 6 86 5 35 -8z
m-137 -18 c-43 -11 -155 -24 -240 -29 -63 -4 -68 -2 -68 17 0 20 5 20 170 20
110 0 159 -3 138 -8z m-381 -12 c9 -25 -2 -28 -64 -18 -54 9 -56 11 -33 21 38
16 90 15 97 -3z m550 -2071 c-3 -3 -12 -4 -19 -1 -8 3 -5 6 6 6 11 1 17 -2 13
-5z m-92 -28 c-11 -7 -31 -16 -45 -19 -14 -3 -52 -13 -85 -22 -109 -29 -140
-36 -164 -36 -21 1 -64 -5 -176 -25 -16 -3 -137 -8 -267 -11 -254 -5 -392 9
-411 42 -4 8 -19 15 -32 15 -14 0 -25 5 -25 10 0 9 14 14 32 11 219 -31 540
-32 783 -1 44 5 96 10 115 9 19 0 82 9 140 20 58 10 116 20 130 20 24 1 24 0
5 -13z m145 -98 c17 -64 33 -112 42 -122 4 -6 8 -18 8 -29 0 -17 19 -69 56
-154 19 -42 19 -41 -23 -49 -21 -3 -72 -14 -113 -24 -41 -10 -106 -21 -145
-25 -38 -3 -99 -10 -135 -15 -282 -40 -276 -39 -455 -39 -208 1 -258 5 -425
35 -14 3 -46 7 -72 9 -64 6 -113 28 -134 60 -16 25 -16 30 9 123 15 53 29 114
32 135 5 33 9 37 35 37 16 0 40 -4 54 -10 14 -5 49 -13 78 -17 70 -10 514 -4
543 7 12 5 56 11 96 15 41 3 108 13 149 22 82 16 329 73 345 78 33 11 45 3 55
-37z"/>
</g>
</svg>
