<?xml version="1.0" standalone="no"?>
<!DOCTYPE svg PUBLIC "-//W3C//DTD SVG 20010904//EN"
 "http://www.w3.org/TR/2001/REC-SVG-20010904/DTD/svg10.dtd">
<svg version="1.0" xmlns="http://www.w3.org/2000/svg"
 width="317.000000pt" height="467.000000pt" viewBox="0 0 317.000000 467.000000"
 preserveAspectRatio="xMidYMid meet">
<metadata>
Created by potrace 1.16, written by Peter Selinger 2001-2019
</metadata>
<g transform="translate(0.000000,467.000000) scale(0.100000,-0.100000)"
fill="#000000" stroke="none">
<path d="M1479 4525 c-19 -14 -41 -39 -50 -55 -9 -16 -22 -37 -29 -45 -7 -9
-10 -27 -6 -45 3 -17 2 -30 -3 -30 -4 0 -7 -24 -5 -52 1 -29 -1 -57 -6 -63 -5
-6 -5 -17 0 -25 5 -8 4 -22 -2 -33 -7 -14 -7 -22 3 -28 9 -5 10 -11 2 -21 -11
-14 -11 -78 1 -96 3 -6 3 -13 -2 -16 -4 -3 -5 -30 -2 -61 3 -30 5 -57 3 -59
-2 -2 -5 -47 -7 -100 -1 -52 -5 -99 -9 -102 -4 -4 -3 -12 2 -18 6 -7 6 -30 0
-59 -4 -26 -5 -67 0 -91 4 -25 4 -50 0 -58 -5 -7 -6 -23 -2 -35 3 -13 1 -23
-5 -23 -11 0 -10 -25 1 -36 3 -4 2 -15 -4 -26 -7 -13 -7 -23 0 -32 6 -7 8 -16
4 -19 -8 -9 -8 -81 0 -94 4 -6 2 -24 -3 -41 -5 -20 -5 -34 1 -38 5 -3 6 -10 3
-16 -4 -6 -6 -64 -6 -129 0 -76 -3 -119 -10 -119 -7 0 -6 -5 2 -15 6 -8 9 -23
5 -34 -3 -12 -3 -26 1 -33 10 -16 5 -69 -7 -85 -7 -7 -6 -14 1 -18 21 -13 9
-48 -31 -86 -22 -21 -45 -39 -50 -39 -5 0 -9 -5 -9 -10 0 -16 -63 -69 -83 -70
-10 0 -15 -4 -12 -10 3 -5 0 -10 -7 -10 -18 0 -48 -36 -48 -56 0 -12 -6 -15
-21 -11 -16 4 -19 3 -11 -5 15 -15 0 -42 -55 -96 -27 -27 -43 -52 -43 -67 0
-13 -4 -27 -10 -30 -5 -3 -17 -21 -26 -40 -9 -19 -20 -35 -25 -35 -5 0 -9 -11
-9 -24 0 -13 -9 -35 -20 -49 -11 -14 -20 -31 -20 -39 0 -7 -7 -24 -16 -36 -8
-12 -12 -27 -9 -32 3 -6 2 -10 -4 -10 -5 0 -15 -17 -22 -37 -6 -21 -15 -43
-20 -49 -5 -6 -10 -24 -12 -41 -2 -16 -13 -43 -25 -60 -11 -16 -24 -42 -27
-59 -4 -16 -13 -44 -21 -62 -8 -18 -12 -37 -9 -42 4 -6 -1 -17 -10 -26 -12
-12 -13 -19 -5 -29 8 -10 8 -20 -3 -37 -8 -13 -14 -46 -13 -75 1 -29 -3 -53
-8 -53 -4 0 -6 -10 -2 -22 5 -23 -8 -88 -26 -121 -5 -11 -8 -47 -7 -80 2 -51
0 -63 -14 -65 -19 -4 -22 -13 -8 -27 11 -12 -4 -55 -19 -55 -6 0 -8 -5 -4 -11
11 -19 13 -98 3 -105 -6 -4 -6 -11 1 -19 8 -10 8 -19 0 -36 -7 -12 -8 -24 -3
-28 5 -3 7 -26 5 -51 -2 -25 -5 -75 -6 -112 0 -38 -5 -68 -9 -68 -4 0 -4 -8 1
-18 5 -9 9 -54 9 -100 0 -45 3 -85 6 -89 4 -3 2 -12 -4 -20 -9 -9 -8 -17 0
-27 9 -11 5 -20 -20 -45 -24 -24 -28 -35 -20 -45 6 -7 9 -20 6 -27 -6 -18 4
-33 32 -48 28 -14 36 -14 27 2 -6 9 -5 9 8 0 12 -11 18 -9 33 7 24 27 25 67 2
114 -16 33 -20 66 -21 191 -1 82 -5 156 -10 163 -4 6 -3 12 2 12 6 0 9 50 8
121 -1 66 1 122 4 124 3 2 7 30 8 61 1 65 10 114 21 114 4 0 7 12 8 28 1 71
11 140 23 161 6 13 10 32 7 42 -3 10 -1 22 4 25 6 3 5 11 -2 20 -8 10 -8 14 0
14 6 0 11 11 11 25 0 14 3 25 8 25 4 0 8 12 9 28 7 122 11 153 21 165 9 10 9
16 0 25 -9 9 -8 12 3 12 9 0 16 6 17 13 3 44 41 147 53 147 4 0 10 17 14 37 4
20 15 48 26 62 11 13 17 31 14 40 -3 9 6 28 20 43 14 15 25 34 25 42 0 8 4 17
10 21 5 3 6 13 3 23 -6 15 -4 15 15 -2 18 -15 19 -21 9 -40 -7 -11 -16 -24
-21 -27 -5 -4 -6 -15 -2 -24 3 -10 -2 -29 -14 -45 -13 -19 -19 -37 -15 -52 4
-15 -1 -30 -14 -44 -12 -13 -18 -30 -14 -42 3 -12 -3 -28 -14 -39 -10 -10 -17
-26 -15 -36 2 -10 -1 -31 -7 -45 -6 -15 -13 -55 -15 -90 -3 -34 -7 -66 -10
-71 -6 -9 -15 -76 -21 -166 -2 -33 -7 -78 -10 -100 -3 -22 -6 -62 -8 -90 -1
-27 -8 -59 -14 -70 -6 -11 -9 -33 -6 -48 3 -17 1 -27 -6 -27 -13 0 -5 -67 11
-87 6 -7 5 -19 -2 -32 -8 -15 -8 -21 0 -21 6 0 10 -8 9 -17 -2 -10 1 -37 5
-61 14 -79 10 -109 -19 -136 -17 -16 -24 -30 -19 -38 5 -7 10 -28 11 -47 2
-34 27 -71 47 -71 26 1 59 42 61 76 1 19 5 37 8 40 3 3 -4 22 -16 42 -22 38
-26 68 -30 260 -1 61 2 112 7 112 4 0 6 11 4 25 -3 14 -2 25 2 25 4 0 7 30 6
68 -1 37 1 77 5 89 5 13 4 25 -2 28 -5 4 -7 10 -4 15 3 5 6 33 6 62 1 29 6 59
11 66 6 6 7 12 4 12 -4 0 -2 8 3 18 7 13 7 22 -1 30 -8 8 -8 15 0 25 7 8 9 16
6 19 -3 4 1 19 9 35 8 15 14 48 13 73 -1 25 7 60 16 78 9 19 14 40 11 47 -2 8
2 24 11 37 9 12 16 33 16 46 0 12 6 25 14 28 9 3 13 18 12 40 -1 22 3 34 11
34 7 0 13 7 13 16 0 9 9 28 20 44 11 15 17 30 14 33 -10 10 20 67 35 67 11 0
11 3 1 15 -10 12 -10 15 3 15 8 0 17 9 20 20 3 11 6 24 7 28 2 4 11 18 21 31
11 13 19 34 19 47 0 14 6 24 15 24 9 0 12 6 8 17 -5 13 -2 15 11 10 10 -4 20
-7 22 -7 12 0 1 -25 -19 -44 -12 -11 -21 -29 -19 -38 3 -13 -1 -16 -13 -12
-13 5 -15 2 -10 -18 4 -16 0 -32 -14 -49 -11 -14 -21 -37 -23 -51 -2 -14 -10
-33 -17 -41 -7 -9 -10 -21 -6 -27 3 -5 0 -10 -8 -10 -9 0 -12 -9 -9 -28 2 -18
-2 -35 -13 -45 -9 -9 -18 -36 -21 -59 -6 -63 -12 -91 -22 -97 -5 -3 -6 -14 -3
-25 4 -10 4 -45 0 -79 -4 -33 -5 -66 -2 -74 3 -7 0 -13 -7 -13 -8 0 -10 -8 -7
-22 4 -12 1 -28 -4 -35 -6 -6 -7 -18 -3 -25 11 -17 8 -85 -3 -100 -6 -7 -9
-47 -7 -88 1 -41 -2 -83 -8 -93 -6 -12 -6 -23 2 -32 7 -9 8 -15 1 -19 -6 -4
-7 -15 -1 -30 5 -13 5 -40 0 -61 -5 -21 -5 -59 0 -84 4 -24 6 -50 3 -58 -3 -7
0 -19 5 -26 6 -7 7 -18 2 -27 -4 -7 -4 -24 1 -37 5 -12 6 -23 3 -23 -4 0 -1
-6 5 -13 6 -8 9 -16 6 -19 -3 -2 -7 -30 -10 -60 -4 -46 -1 -58 15 -73 16 -14
17 -20 7 -36 -9 -15 -9 -21 1 -28 7 -4 11 -18 8 -32 -2 -13 0 -28 4 -34 7 -10
21 -96 24 -150 1 -16 7 -39 13 -50 8 -14 8 -26 2 -38 -6 -9 -7 -17 -3 -17 3 0
1 -6 -5 -14 -9 -11 -9 -20 -2 -35 6 -11 11 -33 11 -50 0 -30 1 -31 50 -30 44
1 51 5 56 25 3 13 4 30 1 38 -3 7 -1 18 5 24 8 8 7 16 -2 27 -11 14 -11 18 -1
25 10 6 8 10 -8 15 -11 3 -21 11 -21 16 0 5 -8 9 -17 10 -11 0 -13 3 -6 6 10
3 9 12 -3 35 -8 16 -13 32 -10 35 3 3 -1 15 -9 27 -9 12 -15 44 -15 78 0 31
-5 60 -10 63 -6 4 -7 12 -3 18 13 18 8 78 -9 112 -8 17 -13 36 -11 43 3 7 0
18 -5 25 -7 8 -7 18 -2 27 5 8 6 18 3 23 -3 5 -6 34 -8 65 -2 31 -6 87 -9 125
-4 39 -3 67 3 67 9 0 8 76 -1 85 -3 3 -3 35 -1 72 2 38 4 114 6 170 1 57 5
103 10 103 5 0 6 11 3 24 -3 14 -2 27 3 30 5 3 7 28 5 56 -2 27 1 50 6 50 6 0
6 10 0 26 -13 33 -13 34 6 34 12 0 14 3 6 13 -11 13 -10 23 19 127 7 25 11 53
10 63 -1 9 2 17 7 17 9 0 24 31 26 57 1 6 5 15 9 19 4 4 7 16 7 26 0 10 4 18
9 18 9 0 24 32 27 55 1 18 27 65 35 65 5 0 11 16 15 35 3 19 10 35 16 35 5 0
6 4 3 10 -6 10 40 79 63 93 7 5 10 17 7 28 -5 15 -3 17 11 12 13 -5 16 -3 11
9 -3 9 2 23 12 32 25 23 32 20 21 -8 -5 -13 -6 -27 -3 -30 3 -3 0 -12 -6 -20
-7 -8 -10 -19 -7 -25 3 -5 1 -22 -6 -38 -6 -15 -12 -41 -14 -58 -5 -57 -16
-105 -24 -105 -4 0 -5 -10 -3 -23 2 -12 -2 -35 -11 -51 -12 -23 -12 -33 -4
-44 8 -10 9 -15 1 -20 -6 -4 -10 -29 -9 -57 1 -27 -3 -59 -8 -70 -5 -11 -10
-46 -12 -77 -1 -31 -5 -61 -8 -67 -4 -5 -2 -13 4 -16 6 -4 8 -16 4 -27 -3 -11
-5 -46 -4 -77 4 -132 2 -162 -14 -174 -9 -7 -17 -27 -19 -45 -2 -17 -7 -35
-10 -38 -3 -4 -2 -15 4 -26 6 -11 8 -27 4 -35 -3 -9 -1 -19 5 -23 6 -4 10 -15
10 -26 -1 -10 -2 -52 -1 -92 0 -54 -3 -74 -14 -78 -15 -6 -9 -33 9 -47 8 -6 7
-10 -1 -14 -16 -6 -17 -33 -2 -33 5 0 7 -6 3 -12 -5 -7 -9 -42 -9 -77 -1 -42
-7 -68 -16 -75 -10 -8 -14 -31 -14 -77 0 -80 13 -101 58 -92 56 10 66 27 61
96 -3 34 -10 64 -16 68 -7 4 -9 25 -6 53 3 25 1 46 -4 46 -5 0 -4 8 1 19 6 10
8 21 5 24 -9 8 -11 138 -2 143 4 3 5 11 1 19 -3 8 -1 15 4 15 5 0 8 36 8 80
-1 44 3 80 8 80 6 0 6 5 0 12 -6 8 -11 86 -11 180 0 92 -3 172 -6 177 -4 5 -1
13 5 16 6 4 8 18 5 30 -3 13 -2 26 3 29 4 3 7 24 5 46 -2 22 0 40 5 40 4 0 8
34 8 76 0 42 4 79 9 83 5 3 10 22 12 41 1 19 8 38 15 42 9 6 9 10 -1 17 -11 6
-10 11 3 25 10 10 14 24 10 36 -4 12 0 26 8 34 12 12 16 12 29 -4 12 -13 13
-21 5 -29 -8 -8 -8 -14 -2 -19 12 -8 13 -27 3 -37 -4 -4 -4 -15 0 -24 5 -9 8
-103 8 -208 -1 -122 3 -193 9 -193 6 0 5 -3 -1 -8 -6 -4 -9 -16 -7 -27 3 -11
5 -35 4 -52 -1 -18 4 -33 10 -33 8 0 8 -4 1 -12 -11 -15 -11 -187 1 -206 5 -7
4 -18 -2 -25 -6 -8 -6 -18 -1 -27 5 -8 3 -25 -6 -42 -8 -16 -12 -33 -9 -38 3
-5 2 -18 -4 -28 -6 -11 -6 -24 1 -35 7 -13 6 -22 -2 -33 -10 -11 -10 -17 -1
-28 8 -10 9 -15 1 -18 -6 -2 -12 -21 -14 -43 -2 -22 -5 -42 -6 -45 -1 -3 -1
-9 0 -15 9 -42 7 -95 -6 -106 -12 -10 -12 -14 3 -25 11 -8 13 -13 6 -14 -9 0
-13 -16 -13 -44 0 -25 -5 -48 -11 -51 -6 -4 -7 -14 -4 -24 14 -33 13 -92 -2
-98 -8 -3 -10 -9 -4 -17 4 -6 7 -35 6 -63 -2 -29 1 -53 6 -53 5 0 9 -10 9 -22
0 -13 2 -69 3 -126 2 -75 -1 -105 -10 -110 -18 -10 -23 -75 -10 -117 12 -40
39 -61 65 -49 9 4 20 6 25 6 4 -1 7 6 7 17 0 10 7 24 15 31 9 7 13 15 10 18
-3 3 -1 10 5 16 14 17 -6 88 -29 106 -17 12 -20 26 -20 80 1 36 -2 106 -5 155
-3 50 -2 117 3 150 5 33 5 70 0 83 -5 14 -5 22 2 22 6 0 6 8 -2 21 -7 14 -8
24 -1 31 7 7 7 20 0 41 -8 21 -8 35 0 48 7 10 12 62 13 116 1 54 4 102 7 107
3 5 6 57 8 115 2 58 4 106 5 106 1 0 3 32 5 70 1 39 5 82 7 98 2 15 1 30 -3
32 -4 3 -4 22 0 42 5 21 5 42 0 48 -9 11 -16 86 -9 100 2 6 3 24 2 40 -10 104
-8 192 4 218 8 16 12 31 9 34 -3 3 -1 14 5 25 6 11 7 25 2 31 -4 7 -7 57 -5
112 1 55 2 128 3 163 0 34 4 62 9 62 14 0 21 -36 14 -64 -3 -14 -2 -26 3 -26
5 0 8 -28 7 -62 -1 -35 2 -68 7 -74 5 -6 11 -32 13 -59 3 -27 10 -53 15 -58 7
-7 7 -16 1 -28 -7 -12 -6 -20 0 -24 6 -4 8 -15 5 -25 -3 -10 -2 -21 3 -24 5
-3 7 -17 5 -30 -3 -14 2 -38 10 -55 8 -16 11 -33 7 -38 -5 -4 -5 -30 0 -57 4
-27 5 -57 2 -68 -2 -10 1 -18 8 -18 10 0 10 -3 0 -15 -10 -12 -10 -22 -2 -40
8 -18 8 -25 -1 -28 -9 -3 -8 -8 2 -21 12 -14 12 -19 2 -25 -10 -7 -11 -13 -1
-30 7 -15 8 -26 2 -34 -6 -7 -7 -29 -2 -57 5 -27 4 -50 -1 -57 -7 -7 -6 -13 0
-17 10 -7 8 -86 -3 -104 -3 -6 -2 -13 3 -16 5 -3 7 -15 4 -26 -3 -11 0 -26 6
-34 8 -10 9 -16 1 -21 -15 -9 -12 -25 5 -25 19 0 19 -14 0 -30 -9 -7 -14 -19
-11 -26 2 -6 2 -15 -1 -18 -3 -3 -7 -24 -9 -47 -2 -23 -7 -46 -11 -52 -3 -5
-6 -25 -7 -44 -2 -57 74 -122 90 -78 4 8 9 13 14 10 10 -6 32 44 25 56 -4 5
-3 15 2 21 12 21 2 71 -21 103 -20 27 -22 38 -16 105 9 113 4 238 -9 254 -7 8
-9 27 -5 47 4 19 6 61 4 94 -2 33 -3 88 -4 123 -1 34 -4 62 -7 62 -13 0 -4 35
11 42 11 5 10 7 -5 7 -18 1 -20 8 -20 69 0 37 -2 72 -5 77 -3 6 -5 30 -6 55
-1 25 -6 63 -12 85 -5 22 -10 58 -10 80 0 22 -4 65 -8 95 -3 30 -8 64 -9 75
-2 18 -19 86 -32 125 -7 21 -11 80 -5 80 13 0 90 -93 86 -104 -3 -7 5 -30 16
-50 12 -20 19 -36 15 -36 -4 0 4 -19 18 -42 26 -46 53 -117 49 -132 -2 -4 3
-14 9 -22 7 -8 9 -17 6 -21 -4 -3 1 -12 11 -19 10 -8 12 -13 5 -14 -19 0 -16
-17 8 -50 12 -16 19 -36 16 -45 -4 -9 -1 -18 7 -21 7 -3 13 -10 13 -17 1 -7 4
-28 7 -47 4 -19 7 -42 7 -50 0 -8 3 -22 6 -30 7 -18 9 -30 17 -100 4 -30 9
-70 12 -87 3 -21 1 -33 -7 -33 -7 0 -6 -8 5 -24 9 -15 12 -27 6 -31 -6 -3 -6
-15 0 -29 6 -16 5 -27 -3 -35 -9 -9 -9 -14 2 -20 7 -5 11 -14 7 -19 -4 -6 -1
-26 6 -44 7 -18 12 -58 11 -88 -6 -163 -9 -206 -15 -215 -8 -13 -3 -143 5
-152 4 -3 2 -12 -4 -19 -6 -7 -7 -19 -3 -26 12 -18 13 -80 3 -100 -6 -10 -5
-18 2 -20 8 -3 8 -11 -2 -27 -11 -19 -11 -25 -1 -28 6 -3 10 -8 8 -12 -3 -4
-7 -53 -10 -110 -3 -56 -8 -106 -12 -112 -3 -5 -1 -16 6 -24 7 -9 8 -15 1 -20
-7 -3 -9 -29 -7 -61 4 -54 3 -57 -39 -102 -41 -44 -44 -50 -40 -92 4 -32 12
-51 30 -67 15 -13 30 -23 35 -23 13 0 40 42 34 52 -3 4 2 8 10 8 10 0 16 9 16
23 -1 12 0 40 1 63 2 22 -1 45 -5 52 -4 7 -4 17 0 23 4 7 7 31 7 55 0 24 3 44
6 44 3 0 7 95 8 210 1 116 5 215 9 222 4 6 3 8 -2 5 -6 -3 -10 26 -10 75 1 44
-3 82 -7 85 -4 3 -3 10 2 17 6 7 10 26 10 42 0 16 1 90 3 164 2 153 -6 263
-20 268 -7 2 -7 16 0 40 6 20 7 57 3 82 -7 46 -10 68 -20 154 -3 26 -10 56
-15 66 -6 10 -10 29 -9 42 1 31 -8 75 -26 121 -9 21 -13 42 -10 47 3 4 0 10
-6 12 -6 2 -13 21 -16 43 -2 22 -11 45 -19 51 -7 6 -11 14 -8 17 3 3 2 12 -2
19 -17 26 -35 84 -39 127 -3 23 -11 56 -19 72 -21 42 -5 36 40 -17 48 -57 57
-71 49 -84 -3 -5 5 -22 19 -36 13 -15 27 -40 30 -56 3 -16 15 -41 26 -55 11
-14 20 -35 20 -47 0 -11 9 -32 19 -45 10 -13 16 -32 14 -42 -4 -13 0 -19 11
-19 10 0 14 -5 11 -10 -3 -6 3 -22 15 -37 11 -14 18 -34 15 -44 -3 -9 1 -24
10 -32 8 -9 11 -17 4 -19 -6 -2 -3 -16 7 -37 9 -18 18 -53 20 -79 7 -87 15
-137 22 -139 4 -2 7 -24 6 -50 0 -26 3 -68 8 -93 5 -25 11 -61 14 -80 3 -19 7
-48 10 -65 2 -16 6 -77 7 -135 1 -58 6 -110 10 -117 4 -6 1 -13 -5 -16 -10 -3
-10 -9 0 -26 10 -18 10 -26 1 -37 -8 -10 -9 -18 0 -27 6 -8 7 -17 3 -21 -9
-10 -9 -156 1 -156 15 0 6 -22 -18 -45 -15 -13 -22 -26 -16 -29 5 -4 8 -30 6
-59 -2 -39 2 -59 15 -75 21 -25 50 -29 50 -7 0 8 6 15 14 15 15 0 24 30 28 94
2 28 -3 43 -17 55 -14 11 -21 30 -22 61 -1 25 -4 79 -6 120 -2 41 1 81 6 88 6
8 6 12 -1 12 -9 0 -10 77 -1 95 3 6 4 21 2 35 -2 14 -5 68 -9 120 -3 52 -9 97
-14 100 -5 3 -5 12 0 20 5 8 4 22 -2 34 -6 10 -12 38 -14 60 -8 79 -23 191
-29 216 -3 14 -7 53 -10 88 -2 35 -11 77 -19 94 -9 17 -13 35 -10 40 3 5 1 14
-4 21 -5 7 -13 27 -17 45 -4 18 -18 45 -31 59 -14 15 -22 33 -20 40 3 8 -1 16
-9 19 -8 4 -15 14 -15 23 0 9 -5 22 -11 28 -5 5 -11 21 -13 35 -1 14 -12 39
-24 55 -12 17 -19 38 -16 46 3 8 1 18 -5 22 -16 9 -13 32 4 39 10 3 15 1 13
-7 -3 -17 24 -57 39 -57 7 0 13 -4 13 -9 0 -6 11 -22 24 -36 14 -15 22 -33 19
-41 -3 -9 2 -14 15 -14 18 0 39 -32 34 -52 -1 -4 12 -20 28 -36 30 -31 52 -97
43 -132 -3 -11 -1 -20 5 -20 13 0 24 -32 27 -80 4 -43 21 -90 34 -90 5 0 8
-16 6 -35 -2 -19 0 -35 4 -35 4 0 8 -13 9 -30 0 -16 4 -35 8 -42 4 -6 9 -24
11 -40 1 -15 5 -42 7 -58 1 -17 6 -33 10 -37 3 -3 6 -18 6 -33 0 -14 4 -30 10
-36 5 -5 11 -34 13 -64 1 -31 6 -61 10 -67 4 -6 2 -15 -4 -18 -5 -4 -7 -14 -4
-24 4 -9 8 -44 10 -78 2 -34 6 -67 10 -73 4 -6 8 -32 11 -57 3 -26 10 -51 17
-55 9 -6 9 -10 -2 -17 -10 -6 -11 -13 -2 -29 6 -12 14 -92 17 -179 3 -87 7
-178 9 -203 4 -66 -11 -119 -40 -132 -14 -6 -21 -16 -18 -24 3 -8 -1 -14 -11
-14 -18 0 -21 -15 -6 -25 6 -4 8 -15 5 -26 -8 -23 27 -75 55 -84 12 -4 26 0
35 9 20 19 37 66 31 83 -3 7 -1 13 4 13 6 0 10 9 10 20 0 11 -4 20 -9 20 -6 0
-9 8 -9 18 1 42 -13 491 -17 530 -2 24 -7 48 -11 54 -4 5 -8 31 -11 57 -2 25
-6 62 -8 81 -3 19 -6 50 -7 68 -1 17 -4 32 -8 32 -3 0 -6 35 -6 77 -1 43 -5
94 -9 113 -4 19 -8 42 -9 50 -1 8 -8 31 -15 51 -6 20 -11 41 -9 45 1 5 -6 34
-15 66 -9 31 -17 66 -17 78 0 12 -6 31 -12 43 -7 12 -13 31 -15 42 -1 11 -5
38 -8 60 -3 22 -6 49 -6 60 0 11 -7 36 -15 55 -9 19 -23 51 -31 70 -8 19 -24
51 -35 70 -11 19 -25 47 -31 63 -6 15 -15 27 -19 27 -4 0 -8 7 -8 16 0 10 -6
13 -19 9 -21 -6 -38 20 -18 29 7 2 4 5 -6 5 -10 1 -15 5 -12 11 3 5 -15 30
-40 55 -25 25 -44 45 -41 45 3 0 -6 11 -19 25 -14 13 -25 34 -25 46 0 15 -5
19 -15 15 -10 -4 -15 1 -15 15 0 11 -6 19 -12 18 -23 -4 -52 13 -87 50 -18 20
-40 35 -47 33 -8 -2 -14 2 -14 8 0 6 -16 20 -35 31 -19 12 -35 28 -35 36 0 9
-6 13 -15 9 -9 -3 -15 0 -15 9 0 8 -6 15 -13 15 -14 0 -19 95 -20 354 0 101 3
141 12 144 9 3 9 7 1 17 -15 18 -16 66 -1 93 8 14 8 22 1 22 -5 0 -10 9 -10
20 0 11 4 20 8 20 8 0 8 39 1 125 -2 18 3 40 11 50 9 11 10 19 3 23 -5 4 -8
16 -6 27 2 11 6 73 7 137 2 64 6 120 9 125 3 4 2 28 -3 53 -5 25 -5 47 -1 50
10 6 8 86 -1 96 -4 4 -4 12 1 18 12 14 22 121 24 261 1 76 6 114 15 124 7 8
10 17 5 20 -4 3 -8 15 -8 25 0 16 -92 116 -107 116 -2 0 -20 -11 -39 -25z m41
-85 c0 -5 7 -10 15 -10 8 0 15 -4 15 -10 0 -5 -4 -10 -10 -10 -5 0 -10 -4 -10
-10 0 -5 7 -10 15 -10 18 0 18 -5 4 -31 -8 -15 -7 -24 2 -35 10 -13 10 -17 -1
-24 -11 -7 -11 -11 -1 -24 7 -8 9 -21 5 -27 -4 -7 -8 -60 -10 -118 -2 -58 -6
-128 -9 -156 -11 -80 -14 -415 -4 -421 5 -3 2 -19 -8 -37 -19 -37 -25 -97 -11
-114 5 -6 5 -14 0 -17 -4 -2 -6 -51 -4 -108 3 -89 4 -158 1 -193 0 -5 0 -36 2
-69 1 -32 -3 -61 -8 -65 -5 -3 -9 -82 -9 -176 0 -164 -1 -170 -21 -173 -37 -5
-53 23 -53 94 0 41 -4 64 -11 64 -8 0 -8 4 -1 13 6 6 9 46 8 87 -1 41 1 80 4
85 16 22 20 63 7 68 -9 3 -9 8 -1 18 9 12 11 64 3 94 -1 6 1 18 6 28 5 11 2
24 -9 35 -12 15 -14 25 -5 55 5 21 7 43 2 50 -4 6 -6 20 -5 30 2 9 -3 17 -10
17 -8 1 -5 7 7 16 20 15 20 15 1 30 -11 8 -15 14 -9 14 17 0 39 115 24 125
-12 7 0 332 12 352 4 6 3 14 -2 18 -7 3 -7 15 -1 30 6 16 5 25 -2 27 -8 3 -7
18 4 53 11 31 13 55 8 65 -6 11 -5 21 2 28 5 5 7 16 2 23 -9 15 -13 139 -5
139 4 0 7 17 9 38 4 79 8 98 26 125 18 27 36 36 36 17z m-242 -2011 c-10 -5
-14 -17 -11 -28 6 -22 -1 -35 -40 -80 -40 -48 -50 -34 -19 29 38 76 65 111 77
99 7 -7 4 -13 -7 -20z m462 -33 c0 -11 -19 -15 -25 -6 -3 5 1 10 9 10 9 0 16
-2 16 -4z m109 -53 c19 -23 27 -41 21 -47 -11 -11 -37 8 -45 35 -4 10 -13 19
-20 19 -9 0 -12 6 -9 15 9 23 20 18 53 -22z m-766 -118 c-5 -16 -33 -21 -33
-7 0 13 22 32 31 26 5 -2 6 -11 2 -19z m-80 -140 c-10 -13 -25 -24 -33 -25
-13 0 -13 1 0 10 8 5 11 10 6 10 -15 0 16 30 31 30 11 0 10 -5 -4 -25z"/>
<path d="M1245 2400 c-3 -5 -1 -10 4 -10 6 0 11 5 11 10 0 6 -2 10 -4 10 -3 0
-8 -4 -11 -10z"/>
<path d="M1605 4510 c3 -5 8 -10 11 -10 2 0 4 5 4 10 0 6 -5 10 -11 10 -5 0
-7 -4 -4 -10z"/>
<path d="M910 1930 c0 -5 5 -10 10 -10 6 0 10 5 10 10 0 6 -4 10 -10 10 -5 0
-10 -4 -10 -10z"/>
<path d="M860 1360 c0 -5 5 -10 11 -10 5 0 7 5 4 10 -3 6 -8 10 -11 10 -2 0
-4 -4 -4 -10z"/>
</g>
</svg>
