<?xml version="1.0" standalone="no"?>
<!DOCTYPE svg PUBLIC "-//W3C//DTD SVG 20010904//EN"
 "http://www.w3.org/TR/2001/REC-SVG-20010904/DTD/svg10.dtd">
<svg version="1.0" xmlns="http://www.w3.org/2000/svg"
 width="485.000000pt" height="459.000000pt" viewBox="0 0 485.000000 459.000000"
 preserveAspectRatio="xMidYMid meet">
<metadata>
Created by potrace 1.16, written by Peter Selinger 2001-2019
</metadata>
<g transform="translate(0.000000,459.000000) scale(0.100000,-0.100000)"
fill="#000000" stroke="none">
<path d="M3736 4461 c-22 -5 -45 -17 -53 -27 -56 -80 -81 -104 -98 -98 -9 4
-15 0 -15 -10 0 -9 -7 -16 -15 -16 -9 0 -15 -9 -15 -22 -1 -54 -6 -78 -15 -78
-5 0 -3 -4 5 -10 12 -7 12 -15 3 -42 -18 -53 -15 -115 8 -161 11 -23 53 -72
92 -109 l71 -68 3 -142 c2 -79 3 -159 4 -179 1 -20 -2 -45 -5 -57 -4 -11 -2
-23 4 -27 5 -3 10 -26 10 -51 l0 -44 -50 0 c-56 0 -94 -15 -126 -52 -54 -59
-59 -107 -19 -171 32 -50 80 -78 138 -82 21 -1 43 -7 49 -13 6 -6 12 -45 14
-89 6 -100 8 -120 14 -127 4 -3 4 -27 0 -53 -5 -44 -7 -48 -32 -48 -14 1 -24
-3 -21 -8 3 -5 -58 -7 -145 -3 -133 5 -159 3 -212 -14 -34 -11 -71 -20 -83
-20 -53 -1 -196 -15 -200 -20 -16 -16 -17 -59 -1 -74 13 -13 17 -36 17 -99 1
-83 10 -107 41 -107 9 0 22 12 30 28 13 26 13 49 0 140 l-6 42 34 1 c63 1 188
27 188 38 0 4 24 6 53 6 28 0 55 3 58 8 3 4 24 1 46 -7 23 -8 43 -12 46 -10 3
3 41 5 86 6 62 1 86 -3 99 -16 20 -17 68 -21 90 -7 14 8 8 75 -9 96 -12 16
-19 93 -23 265 -4 135 -7 156 -23 168 -10 7 -29 11 -43 7 -76 -17 -95 -17
-117 3 -13 11 -23 24 -23 30 0 6 -6 12 -12 15 -21 6 3 59 39 83 30 20 35 21
85 7 37 -9 60 -11 75 -4 21 10 22 15 17 83 -3 40 -10 94 -15 120 -6 26 -8 62
-4 79 9 39 9 102 0 132 -6 18 -2 17 24 -11 17 -18 31 -35 31 -38 0 -4 34 -45
58 -70 6 -7 12 -16 12 -20 0 -8 53 -68 185 -209 52 -55 104 -112 115 -128 19
-24 20 -28 5 -33 -9 -4 -47 -4 -83 0 -162 16 -217 17 -242 4 -26 -14 -32 -32
-19 -58 4 -8 10 -65 13 -125 12 -217 23 -311 42 -351 15 -32 16 -32 82 -29 37
2 110 -1 162 -7 52 -5 130 -11 172 -13 42 -2 82 -6 88 -10 6 -3 24 -1 40 7
l30 13 -5 150 c-3 83 -7 179 -9 214 -2 55 0 67 21 89 28 31 29 42 3 49 -14 4
-20 14 -20 34 0 41 -24 50 -117 42 l-80 -6 -1 30 c0 23 -26 55 -134 164 -155
158 -297 330 -315 382 -3 10 -16 23 -29 28 -13 4 -24 13 -24 19 0 17 51 60 72
60 45 0 128 72 128 111 0 8 5 20 10 25 6 6 14 44 17 85 3 41 10 77 16 80 5 4
24 3 42 -1 59 -13 94 29 60 74 -11 15 -22 17 -58 12 -24 -4 -51 -4 -59 -1 -14
6 -34 48 -30 66 3 14 -34 96 -53 119 -45 56 -111 77 -189 61z m125 -86 c16 -9
27 -20 24 -25 -3 -5 0 -12 5 -15 14 -9 27 -42 34 -91 4 -21 13 -75 21 -118 10
-54 12 -83 5 -90 -5 -5 -10 -18 -10 -28 0 -25 -54 -83 -91 -98 -24 -10 -36
-11 -50 -2 -10 7 -34 12 -52 12 -24 0 -47 10 -76 33 -67 53 -82 82 -77 152 4
50 8 63 32 81 19 16 27 32 28 56 2 41 59 131 89 140 40 11 87 8 118 -7z m157
-1331 c-6 -13 -16 -24 -21 -24 -6 0 -8 -3 -5 -6 7 -7 -36 -54 -50 -54 -12 0
-5 89 9 106 4 5 24 8 43 6 33 -4 34 -5 24 -28z m288 15 c2 -5 -3 -21 -12 -36
-18 -28 -34 -46 -165 -186 -75 -79 -104 -127 -96 -157 3 -13 -3 -15 -30 -12
-24 3 -33 8 -29 18 3 8 2 14 -3 14 -5 0 -11 9 -14 20 -3 12 0 20 7 20 6 0 20
15 31 33 10 17 21 34 25 37 3 3 23 30 44 60 22 30 45 59 52 63 8 4 14 15 14
22 0 8 6 15 13 15 8 0 37 24 65 54 39 40 57 53 72 49 11 -3 23 -9 26 -14z
m-156 2 c0 -5 -16 -28 -35 -51 -19 -23 -43 -55 -52 -71 -10 -16 -21 -29 -25
-29 -4 0 -8 -5 -8 -10 0 -11 -32 -46 -62 -69 -16 -12 -18 -10 -18 24 0 34 9
46 89 126 81 82 111 103 111 80z m260 3 c0 -3 -7 -12 -15 -20 -9 -9 -13 -25
-9 -38 6 -23 -69 -124 -180 -241 -31 -33 -59 -72 -62 -87 -4 -15 -11 -25 -16
-22 -5 3 -24 6 -43 6 -32 0 -33 0 -14 19 10 10 19 26 19 34 0 8 5 15 10 15 6
0 10 5 10 10 0 14 17 33 143 162 60 60 113 123 119 139 5 16 16 29 24 29 8 0
14 -3 14 -6z m0 -192 c0 -20 -21 -57 -65 -116 -36 -48 -65 -91 -65 -97 0 -11
-15 -11 -59 -3 -38 8 -39 16 -6 34 14 7 25 19 25 26 0 7 12 26 28 42 15 15 49
54 75 85 27 31 53 57 58 57 5 0 9 -13 9 -28z m10 -177 l0 -45 -47 0 -47 0 44
45 c24 25 45 45 47 45 2 0 3 -20 3 -45z"/>
<path d="M1065 4339 c-4 -6 -13 -8 -21 -5 -7 3 -17 -1 -21 -8 -5 -8 -27 -29
-50 -49 -23 -19 -40 -37 -37 -39 2 -3 -2 -11 -11 -18 -8 -7 -15 -19 -15 -26 0
-8 -4 -14 -8 -14 -4 0 -15 -24 -25 -52 -47 -149 -50 -184 -16 -285 16 -49 31
-72 73 -110 29 -27 56 -61 59 -76 4 -15 10 -39 13 -53 5 -17 2 -30 -7 -36 -11
-7 -11 -11 -1 -15 21 -8 13 -47 -16 -75 -76 -76 -175 -158 -191 -158 -11 0
-66 -48 -66 -59 0 -3 -12 -19 -27 -35 -24 -26 -26 -36 -23 -85 4 -61 8 -82 24
-152 6 -25 9 -56 6 -68 -2 -11 -1 -21 3 -21 4 0 7 -15 8 -32 1 -18 6 -58 11
-88 6 -30 8 -104 6 -165 -3 -60 -5 -126 -4 -146 1 -58 -18 -67 -114 -54 -127
17 -249 7 -271 -23 -16 -22 -7 -181 12 -199 15 -15 33 -14 52 4 10 9 11 28 6
72 -6 60 -6 60 22 67 37 10 110 10 152 1 26 -5 32 -3 33 11 0 16 1 16 7 0 6
-13 19 -16 62 -14 84 4 105 24 113 109 1 15 9 10 40 -23 21 -22 64 -52 95 -66
72 -32 130 -28 215 15 34 16 64 26 66 20 1 -5 20 -20 40 -33 28 -18 57 -25
123 -30 48 -3 93 -9 101 -12 20 -7 47 22 47 50 0 40 -21 48 -119 44 -49 -2
-87 0 -85 4 3 4 -4 8 -15 8 -35 0 -44 34 -36 134 12 151 12 171 3 182 -4 6 -9
23 -10 38 -1 14 -6 26 -10 26 -4 0 -8 6 -8 13 -1 22 -34 53 -78 70 -69 28
-146 31 -266 12 -90 -14 -111 -14 -121 -3 -14 15 -40 176 -37 231 3 43 21 67
52 70 11 1 20 7 20 14 0 7 6 13 13 13 6 0 21 18 31 40 11 22 21 38 24 35 3 -2
16 7 30 22 21 23 25 25 34 10 5 -9 8 -20 8 -23 -1 -4 2 -10 7 -13 5 -3 24 -37
41 -76 18 -38 37 -78 42 -87 6 -10 10 -25 10 -33 0 -8 4 -15 10 -15 5 0 12
-11 16 -24 9 -38 49 -68 101 -77 90 -15 108 -20 130 -35 44 -28 94 -5 86 40
-6 27 -50 45 -164 66 -56 10 -69 16 -80 38 -7 15 -28 50 -45 77 -18 28 -38 62
-45 77 -6 15 -16 25 -20 22 -5 -3 -6 1 -3 9 3 8 -1 30 -9 49 -17 40 -17 80 -1
85 16 5 65 -38 100 -88 16 -24 44 -58 61 -77 18 -18 41 -43 50 -56 10 -13 28
-28 40 -34 18 -10 141 -28 257 -37 38 -3 65 24 59 59 -6 29 -32 40 -75 32 -14
-2 -67 2 -118 10 -94 14 -97 15 -164 79 -34 32 -136 168 -136 181 0 7 -5 14
-12 16 -7 3 -13 34 -14 84 l-3 80 60 2 c69 1 100 17 129 65 11 18 28 43 40 55
11 13 20 31 20 39 0 8 6 29 14 46 8 18 22 58 31 90 18 64 33 76 72 58 21 -10
27 -9 39 6 18 25 17 36 -6 61 -14 14 -33 22 -55 22 -37 0 -50 15 -59 65 -8 42
-57 96 -101 112 -21 7 -46 19 -54 27 -21 17 -96 46 -121 46 -10 0 -22 -5 -25
-11z m95 -89 c19 -11 53 -28 76 -38 59 -28 74 -59 79 -154 4 -86 0 -102 -62
-222 -41 -81 -70 -100 -148 -97 -68 3 -175 77 -175 122 0 10 -4 20 -9 24 -6 3
-10 13 -10 23 0 9 -1 26 -4 37 -10 47 36 184 84 252 16 23 97 71 119 72 8 0
31 -9 50 -19z m-90 -1429 c0 -4 -11 -6 -25 -3 -14 2 -25 6 -25 8 0 2 11 4 25
4 14 0 25 -4 25 -9z m82 -15 c28 -6 44 -27 59 -79 8 -30 8 -30 -11 -11 -11 10
-37 36 -57 57 -20 20 -42 37 -50 37 -7 0 -13 4 -13 10 0 6 8 6 23 0 12 -5 34
-11 49 -14z m-199 4 c-4 -4 -29 -15 -56 -24 -26 -10 -54 -24 -61 -32 -21 -21
-33 -17 -38 11 -3 14 -5 25 -4 25 0 0 18 6 40 14 39 13 134 19 119 6z m138
-93 c36 -34 79 -87 79 -99 0 -5 -17 4 -37 20 -21 16 -49 35 -63 42 -41 22 -70
60 -35 46 8 -3 15 -1 15 4 0 16 16 11 41 -13z m-174 -34 c3 -7 -3 -9 -16 -6
-12 3 -21 10 -21 15 0 13 32 6 37 -9z m49 -17 c10 -8 16 -17 12 -21 -7 -7 -48
16 -48 27 0 12 14 9 36 -6z m-57 -127 c69 -32 77 -37 126 -69 18 -12 31 -16
34 -9 4 13 -26 47 -50 54 -20 7 -26 25 -9 25 16 0 113 -97 103 -103 -18 -11
-93 -25 -93 -17 0 4 -10 5 -23 3 -13 -3 -37 6 -60 21 -21 14 -42 26 -47 26 -6
0 -10 5 -10 11 0 6 -11 24 -25 41 -24 29 -32 48 -19 48 4 0 36 -14 73 -31z"/>
<path d="M1612 1848 c-7 -7 -12 -18 -12 -24 0 -7 -16 -25 -35 -41 -71 -59
-179 -245 -178 -307 1 -30 21 -84 44 -117 9 -12 6 -23 -12 -52 -13 -20 -30
-37 -36 -37 -7 0 -13 -4 -13 -8 0 -8 -161 -173 -202 -207 -13 -11 -32 -31 -41
-44 -9 -14 -62 -71 -117 -127 -125 -127 -131 -147 -76 -227 20 -30 49 -67 64
-84 15 -17 45 -54 67 -82 22 -28 43 -51 47 -51 5 0 8 -4 8 -9 0 -6 -21 -13
-47 -17 -27 -5 -50 -9 -53 -9 -3 -1 -30 -5 -60 -9 -30 -4 -68 -12 -85 -17 -16
-5 -66 -15 -110 -23 -77 -14 -112 -17 -395 -32 -152 -8 -167 -13 -175 -56 -19
-108 -9 -182 26 -193 34 -11 46 14 42 92 -2 39 0 74 4 76 5 3 76 8 158 11 209
8 415 32 447 52 5 3 26 8 46 10 20 2 64 9 97 15 33 6 85 13 115 16 30 3 61 10
68 16 15 12 7 66 -13 82 -6 5 -45 55 -85 110 -40 55 -79 105 -85 110 -17 15
-35 51 -35 72 0 10 39 59 88 110 48 51 105 113 127 138 22 25 49 54 59 63 11
9 31 29 45 45 24 26 49 38 36 17 -3 -5 -2 -10 4 -10 6 0 44 -34 86 -75 41 -41
78 -74 83 -74 4 1 9 0 12 -1 3 -1 21 -3 40 -5 19 -2 42 -3 50 -4 8 -1 -3 -10
-26 -20 -22 -10 -49 -29 -60 -42 -10 -14 -41 -42 -68 -64 -64 -52 -110 -133
-109 -194 1 -49 17 -101 32 -101 5 0 12 -10 15 -22 15 -57 95 -105 206 -125
76 -14 178 -9 213 9 48 25 105 107 91 130 -4 6 -2 8 3 5 27 -17 42 176 18 223
-8 16 -15 37 -15 47 0 24 -85 110 -132 134 -21 10 -49 19 -64 19 -49 0 -16 13
48 19 59 6 63 8 66 33 2 19 -3 31 -17 40 -27 17 -27 28 2 28 13 0 28 5 33 10
6 6 27 12 47 14 20 2 43 9 52 16 22 19 18 56 -8 73 -21 14 -27 13 -73 -9 -27
-13 -59 -24 -71 -24 -12 0 -48 -7 -80 -15 -31 -8 -63 -15 -70 -15 -14 0 -110
91 -135 128 -31 46 20 92 104 92 22 0 68 16 118 41 l83 42 27 -32 c32 -36 55
-39 70 -10 12 21 9 29 -40 89 l-21 26 25 54 c13 30 26 66 28 80 2 14 6 27 10
30 22 17 1 140 -24 140 -4 0 -8 6 -8 14 0 16 -88 56 -123 56 -13 0 -39 -5 -56
-11 -24 -9 -35 -9 -44 0 -14 14 -30 14 -45 -1z m205 -85 c42 -17 49 -34 35
-87 -32 -125 -79 -194 -159 -238 -60 -33 -156 -47 -170 -25 -4 7 -19 13 -33
13 -22 -1 -25 4 -28 39 -4 51 14 116 41 147 22 24 31 37 65 90 17 27 44 46 72
52 8 2 26 8 40 13 57 24 73 23 137 -4z m-360 -568 c19 -33 128 -138 156 -150
l30 -13 -30 -6 c-61 -14 -99 2 -150 63 -26 31 -50 58 -54 61 -14 12 -19 44 -7
52 20 12 46 9 55 -7z m246 -162 c-7 -2 -21 -2 -30 0 -10 3 -4 5 12 5 17 0 24
-2 18 -5z m-30 -90 c-7 -2 -19 -2 -25 0 -7 3 -2 5 12 5 14 0 19 -2 13 -5z m51
-82 c3 -5 -1 -12 -10 -15 -8 -3 -12 -10 -9 -16 4 -6 -5 -51 -20 -100 -14 -49
-35 -130 -45 -180 -10 -50 -20 -93 -22 -95 -2 -2 -14 -2 -25 1 -25 7 -24 27 8
131 10 34 19 70 19 81 0 10 4 22 9 28 5 5 14 27 21 49 16 53 52 125 61 125 4
0 10 -4 13 -9z m-133 -132 c-10 -35 -26 -104 -36 -154 -9 -49 -20 -93 -24 -97
-3 -4 -15 0 -25 8 -17 12 -18 18 -8 51 9 28 8 40 -1 52 -7 8 -7 12 -1 9 9 -6
67 109 62 123 -2 4 4 15 13 25 9 11 19 28 23 38 3 10 9 17 11 14 3 -2 -4 -33
-14 -69z m267 12 c32 -104 3 -230 -61 -270 -41 -24 -137 -39 -137 -20 0 58 73
299 91 299 10 0 -6 -174 -19 -194 -3 -6 -7 -15 -8 -21 -1 -5 -5 -17 -9 -26 -4
-10 0 -19 9 -22 18 -7 30 8 22 29 -3 9 -1 12 4 9 6 -3 10 3 10 14 0 12 4 21 9
21 8 0 27 75 23 92 -1 4 3 20 9 35 10 25 14 42 18 81 3 27 29 10 39 -27z
m-341 12 c-2 -10 -12 -49 -22 -88 -10 -38 -21 -78 -26 -87 -5 -10 -9 -25 -9
-33 0 -26 -16 -16 -33 20 -22 47 -21 83 3 123 22 35 69 81 84 82 4 0 6 -8 3
-17z"/>
<path d="M2344 1085 c-6 -12 -7 -30 -3 -41 12 -29 10 -133 -2 -156 -6 -11 -7
-23 -3 -27 5 -3 16 -19 26 -35 11 -22 24 -30 45 -31 15 -1 49 -2 76 -3 26 -1
47 -6 47 -12 0 -5 -13 -22 -29 -38 -16 -15 -34 -47 -41 -72 -7 -25 -16 -47
-21 -50 -5 -3 -6 -29 -2 -57 4 -42 13 -59 43 -91 21 -21 55 -46 76 -56 22 -10
53 -25 70 -33 44 -22 140 -12 209 22 82 40 126 98 141 185 1 8 5 32 9 53 5 32
2 46 -22 80 -15 23 -36 49 -45 58 -17 15 -14 16 41 18 l58 1 5 -38 c7 -48 -2
-212 -12 -231 -4 -7 -3 -29 3 -48 11 -36 15 -38 112 -49 114 -13 161 -15 420
-19 143 -3 311 -6 373 -8 61 -1 112 1 112 6 0 4 4 6 9 3 5 -4 20 -2 34 3 13 5
48 11 78 12 51 3 54 2 54 -22 1 -75 50 -99 210 -105 114 -4 243 25 218 49 -3
4 1 7 10 7 9 0 30 13 48 30 31 28 32 31 18 57 -39 77 -94 110 -195 120 -48 4
-70 1 -108 -16 -55 -24 -56 -24 -56 -12 0 5 9 11 19 14 11 2 27 20 36 38 10
19 27 45 40 59 12 14 27 39 33 56 13 39 8 125 -9 153 -28 43 -160 33 -213 -16
-14 -13 -29 -23 -33 -23 -4 0 -16 17 -26 38 -25 51 -60 76 -87 62 -27 -15 -25
-37 10 -89 42 -61 39 -82 -20 -143 -27 -28 -50 -55 -50 -60 0 -4 -5 -8 -11 -8
-5 0 -7 -5 -4 -10 3 -6 1 -10 -4 -10 -6 0 -11 -6 -11 -13 0 -8 -15 -31 -34
-53 l-34 -39 -88 1 c-191 2 -273 2 -369 2 -108 -1 -272 8 -320 17 -88 16 -88
17 -82 208 1 42 -2 96 -8 119 l-10 42 -150 3 c-82 2 -157 4 -165 5 -8 1 -42
-2 -75 -6 -103 -13 -215 -15 -245 -5 l-28 10 0 93 c0 52 -2 98 -6 104 -3 5
-16 12 -29 14 -17 3 -26 -2 -33 -17z m2069 -333 c-1 -28 -8 -50 -20 -61 -10
-10 -27 -30 -38 -45 -11 -15 -39 -41 -62 -57 -22 -16 -54 -41 -70 -56 -22 -22
-39 -29 -79 -31 -39 -2 -53 1 -58 13 -8 23 8 56 45 90 18 16 45 48 61 70 16
22 53 58 82 80 44 33 62 41 97 40 l44 0 -2 -43z m-1630 -9 c-14 -39 -117 -179
-169 -230 -13 -13 -30 -20 -38 -17 -16 6 -15 8 34 63 14 15 43 50 65 77 22 27
52 61 68 76 15 15 27 32 27 38 0 5 4 10 10 10 5 0 7 -8 3 -17z m-107 -8 c-11
-30 -94 -150 -119 -174 -32 -29 -47 -20 -46 27 1 60 22 103 65 133 44 32 111
41 100 14z m204 -26 c0 -6 -9 -13 -19 -16 -11 -3 -22 -16 -26 -31 -3 -14 -27
-50 -53 -81 -26 -31 -51 -62 -57 -69 -22 -29 -49 -52 -61 -52 -35 0 -20 28 62
116 23 24 61 67 85 94 41 47 69 63 69 39z m38 -98 c-10 -57 -51 -119 -86 -131
-15 -6 -35 -15 -44 -20 -17 -10 -58 -14 -58 -6 0 2 38 41 85 88 73 73 85 89
85 118 0 31 1 32 13 15 10 -13 12 -30 5 -64z m1392 -106 c-7 -8 -18 -15 -24
-15 -6 0 -2 7 8 15 25 19 32 19 16 0z m253 -28 c44 -12 72 -44 56 -63 -25 -31
-192 -47 -276 -26 -35 8 -63 18 -63 21 0 4 28 23 63 44 54 32 70 37 122 36 33
0 77 -6 98 -12z"/>
<path d="M627 732 c-22 -23 -64 -112 -52 -112 2 0 -12 -34 -30 -75 -19 -41
-34 -76 -34 -78 0 -1 -3 -10 -7 -20 -15 -40 49 -93 81 -67 10 7 197 32 212 28
5 -1 39 4 77 11 78 16 111 40 100 74 -9 28 -136 154 -200 198 -27 18 -58 41
-68 51 -27 25 -48 22 -79 -10z m92 -84 c20 -12 48 -35 63 -50 14 -15 29 -28
33 -28 7 0 65 -56 65 -63 0 -4 -106 -21 -228 -36 -70 -9 -67 -13 -41 59 6 19
16 46 22 60 6 14 11 27 12 30 7 29 18 50 27 50 6 0 27 -10 47 -22z"/>
</g>
</svg>
