<?xml version="1.0" standalone="no"?>
<!DOCTYPE svg PUBLIC "-//W3C//DTD SVG 20010904//EN"
 "http://www.w3.org/TR/2001/REC-SVG-20010904/DTD/svg10.dtd">
<svg version="1.0" xmlns="http://www.w3.org/2000/svg"
 width="535.000000pt" height="443.000000pt" viewBox="0 0 535.000000 443.000000"
 preserveAspectRatio="xMidYMid meet">
<metadata>
Created by potrace 1.16, written by Peter Selinger 2001-2019
</metadata>
<g transform="translate(0.000000,443.000000) scale(0.100000,-0.100000)"
fill="#000000" stroke="none">
<path d="M2369 4270 c-1 -3 -1 -7 -1 -10 0 -3 -16 -5 -36 -5 -32 1 -60 -4
-120 -21 -7 -2 -16 -4 -20 -5 -4 -1 -19 -10 -34 -20 -14 -10 -31 -19 -37 -19
-6 0 -11 -5 -11 -11 0 -6 -6 -9 -13 -6 -17 6 -132 -103 -182 -172 -22 -30 -50
-66 -64 -80 -13 -14 -36 -52 -51 -84 -15 -31 -32 -63 -38 -70 -5 -6 -13 -23
-16 -37 -4 -14 -11 -34 -16 -45 -11 -23 -68 -245 -76 -290 -2 -17 -9 -98 -13
-180 -18 -296 -20 -326 -25 -333 -2 -4 -7 -66 -11 -137 -4 -72 -9 -139 -11
-150 -2 -11 -6 -60 -9 -110 -3 -49 -12 -110 -19 -135 -8 -25 -22 -83 -31 -130
-16 -82 -37 -141 -80 -221 -11 -21 -33 -64 -50 -96 -16 -32 -33 -59 -37 -61
-5 -2 -8 -8 -8 -14 0 -16 -105 -152 -140 -181 -27 -23 -34 -25 -58 -14 -15 6
-36 20 -46 29 -11 10 -33 20 -50 22 -168 23 -166 22 -204 67 -50 57 -71 94
-93 156 -28 83 -65 135 -118 172 -44 29 -56 33 -91 27 -34 -5 -79 -21 -129
-45 -25 -12 -117 -178 -122 -219 0 -4 -7 -22 -16 -39 -12 -26 -14 -59 -10
-165 3 -73 8 -146 12 -163 3 -16 12 -61 20 -100 19 -103 47 -201 76 -270 11
-25 49 -136 52 -152 2 -7 10 -20 19 -30 9 -10 26 -40 38 -67 25 -55 51 -95 93
-139 15 -17 27 -33 27 -37 0 -12 199 -184 223 -193 12 -4 28 -14 37 -22 8 -7
53 -25 99 -40 71 -23 96 -27 165 -23 89 5 181 42 206 82 21 33 21 143 0 202
-11 29 -16 55 -13 58 4 3 1 6 -5 6 -7 0 -12 6 -12 13 0 7 -22 37 -50 67 -27
30 -50 60 -50 67 0 7 -5 13 -10 13 -6 0 -19 14 -29 31 -17 28 -17 33 -4 60 8
16 18 29 23 29 4 0 13 13 19 29 7 15 26 38 42 50 17 13 28 28 26 34 -3 7 5 28
17 47 25 42 26 116 3 202 l-15 57 75 78 c41 43 87 96 101 118 26 38 36 51 81
104 12 13 27 43 33 65 7 23 27 66 44 97 18 30 40 84 48 120 21 86 42 159 54
189 5 14 13 86 17 160 3 74 11 160 16 190 6 30 12 80 14 110 3 30 6 73 9 95 2
22 5 83 7 135 2 52 5 99 8 104 2 5 5 41 7 80 4 130 15 227 30 273 9 25 13 54
11 64 -3 11 -1 19 4 19 4 0 16 26 24 58 9 31 22 73 30 92 8 19 17 52 21 73 3
20 10 40 15 43 5 2 16 20 25 39 9 19 20 35 25 35 5 0 9 6 9 14 0 15 73 85 143
136 27 19 61 45 77 58 15 12 33 22 39 22 6 0 11 4 11 8 0 5 34 19 76 32 67 20
87 22 177 16 139 -10 149 -12 186 -30 18 -10 40 -16 50 -14 18 3 111 -68 111
-85 0 -5 11 -22 25 -39 14 -16 25 -36 25 -44 0 -8 6 -14 13 -14 22 0 42 -32
127 -200 42 -84 67 -190 76 -319 3 -47 11 -115 19 -151 7 -36 19 -99 25 -140
6 -41 15 -95 20 -120 4 -25 9 -90 10 -145 1 -54 4 -104 8 -110 3 -5 7 -19 8
-30 2 -35 15 -118 19 -125 2 -3 6 -30 10 -60 3 -30 11 -73 17 -95 6 -22 11
-43 10 -48 -3 -10 43 -154 85 -267 19 -52 36 -100 37 -106 1 -7 7 -18 13 -25
5 -8 13 -26 17 -41 3 -14 24 -57 46 -95 22 -38 38 -78 36 -89 -10 -49 -43
-119 -56 -120 -17 0 -102 -43 -110 -54 -3 -4 -21 -10 -40 -14 -19 -3 -48 -13
-65 -22 -16 -9 -50 -22 -74 -31 -45 -15 -121 -60 -121 -72 0 -3 -13 -21 -29
-39 -36 -40 -83 -135 -88 -176 -2 -17 -7 -32 -12 -34 -5 -1 -2 -22 6 -45 9
-23 18 -58 20 -77 9 -60 33 -95 116 -165 19 -17 59 -37 89 -44 29 -8 85 -24
123 -36 84 -26 262 -33 364 -14 145 26 359 95 441 142 19 11 62 35 96 53 34
18 79 48 100 68 21 20 44 36 51 36 13 0 73 69 73 85 0 5 16 28 36 50 40 46
110 185 121 240 2 11 7 21 11 22 11 4 2 105 -13 138 -7 17 -17 43 -21 59 -14
57 -51 111 -97 141 -23 15 -46 18 -115 16 -98 -2 -217 -8 -217 -11 0 -2 -9 -4
-21 -5 -11 -1 -47 -10 -78 -20 l-58 -18 -66 35 c-80 43 -123 53 -152 38 -17
-9 -24 -7 -40 12 -11 13 -19 27 -20 31 0 5 -16 33 -35 62 -20 29 -44 76 -54
104 -10 28 -25 59 -33 68 -8 10 -16 25 -16 33 0 8 -9 49 -20 91 -23 84 -29
115 -42 210 -5 36 -14 95 -19 130 -6 35 -11 121 -11 191 0 79 -4 129 -11 133
-6 4 -8 13 -6 19 3 7 1 32 -4 57 -5 24 -11 53 -13 64 -2 11 -4 20 -5 20 -1 0
-3 32 -5 70 -6 119 -17 228 -26 265 -5 19 -14 67 -20 105 -16 106 -36 155 -88
220 -26 33 -70 97 -97 142 -27 45 -53 79 -59 76 -5 -3 -6 -1 -2 5 7 11 -72
109 -86 104 -4 -1 -8 2 -8 7 0 11 -175 164 -193 170 -15 4 -68 27 -126 54 -36
17 -66 20 -182 21 -77 1 -140 -1 -140 -4z m239 -17 c-10 -2 -28 -2 -40 0 -13
2 -5 4 17 4 22 1 32 -1 23 -4z m51 -78 c36 -18 40 -28 9 -20 -13 3 -72 7 -133
9 -81 3 -119 0 -145 -10 -19 -8 -48 -16 -64 -18 -15 -2 -31 -8 -35 -12 -3 -5
-15 -11 -26 -12 -29 -6 -118 -71 -195 -142 -8 -8 -28 -21 -43 -29 -15 -8 -27
-18 -27 -23 0 -4 -10 -18 -22 -30 -27 -26 -68 -85 -68 -97 0 -4 -9 -25 -19
-47 -10 -21 -24 -59 -31 -84 -7 -25 -15 -49 -20 -55 -4 -5 -10 -21 -13 -35 -2
-14 -17 -70 -32 -125 -14 -55 -28 -112 -30 -127 -2 -15 -6 -37 -10 -48 -4 -12
-8 -69 -10 -128 -8 -239 -17 -374 -35 -507 -11 -77 -19 -179 -19 -226 0 -99 0
-97 -53 -284 -35 -122 -78 -235 -109 -285 -5 -8 -12 -23 -15 -32 -4 -10 -12
-18 -19 -18 -7 0 -15 -13 -18 -29 -8 -40 -222 -257 -262 -266 -52 -11 -55 -14
-55 -40 0 -44 17 -66 46 -59 35 9 49 -14 52 -86 3 -65 -12 -105 -67 -174 -17
-21 -31 -43 -31 -47 0 -5 -16 -31 -35 -58 -19 -26 -35 -55 -35 -63 0 -9 -6
-20 -13 -26 -7 -6 -14 -26 -15 -44 -4 -60 -10 -68 -38 -58 -14 6 -43 10 -65
10 -38 0 -79 26 -79 51 0 6 -10 9 -22 7 -28 -4 -36 -39 -13 -58 14 -11 13 -14
-7 -24 -34 -17 -33 -38 4 -84 41 -52 79 -65 157 -56 80 9 97 26 105 108 11
100 26 104 97 26 72 -79 98 -125 104 -187 9 -84 -22 -115 -138 -139 -50 -11
-71 -10 -154 7 -53 11 -105 25 -116 31 -28 15 -108 76 -133 101 -36 37 -74 67
-84 67 -6 0 -10 6 -10 13 0 7 -23 34 -50 60 -28 27 -61 69 -75 95 -41 82 -95
203 -95 216 0 7 -3 16 -8 20 -4 4 -7 11 -8 14 0 4 -12 45 -27 92 -52 169 -71
294 -68 465 2 94 5 110 39 178 13 29 25 57 26 63 5 36 79 94 143 113 36 10 47
9 75 -5 18 -9 38 -23 46 -30 20 -21 62 -102 62 -122 0 -9 11 -41 25 -69 13
-29 22 -53 19 -53 -13 0 -92 52 -113 74 l-22 24 -40 -19 c-35 -17 -45 -34 -40
-63 1 -4 -2 -13 -7 -20 -26 -32 -35 -131 -19 -201 3 -11 8 -54 12 -95 11 -129
14 -140 35 -169 11 -16 20 -36 20 -45 0 -9 4 -16 8 -16 5 0 21 -31 36 -69 15
-38 36 -77 46 -86 19 -17 20 -17 20 4 0 12 -5 31 -10 42 -6 10 -7 19 -3 19 12
0 91 -104 103 -134 9 -25 40 -37 40 -16 0 16 -27 66 -77 144 -44 69 -75 151
-88 236 -9 55 -13 77 -21 115 -13 59 -12 110 3 150 8 22 15 48 14 58 0 18 28
23 45 9 25 -23 191 -70 303 -86 63 -9 75 -14 76 -31 4 -48 16 -65 46 -65 16 0
29 5 29 10 0 6 7 10 15 10 8 0 15 4 15 8 0 5 10 14 23 21 12 7 38 33 57 59 19
26 55 72 80 104 25 31 78 121 117 200 89 180 104 217 108 259 1 19 7 54 13 79
32 134 39 172 34 195 -2 14 1 59 7 98 6 40 13 115 16 167 8 147 14 221 25 275
5 28 12 126 15 218 3 93 11 180 16 195 6 15 13 43 15 62 6 44 72 238 90 265 8
11 14 27 14 37 0 10 4 18 8 18 5 0 15 12 23 28 7 15 24 42 37 60 14 17 22 32
19 32 -6 0 -3 4 98 109 66 70 151 118 256 147 117 33 334 38 388 9z m221 -133
c0 -4 14 -16 30 -26 44 -25 125 -112 162 -173 18 -29 36 -53 41 -53 4 0 6 -4
2 -9 -3 -5 3 -17 12 -27 10 -10 36 -45 58 -78 22 -34 50 -74 62 -91 14 -19 26
-57 34 -105 6 -41 17 -97 24 -125 8 -27 17 -75 20 -105 4 -30 8 -66 10 -80 2
-14 6 -52 9 -85 13 -135 18 -178 31 -262 7 -48 11 -116 9 -151 -2 -34 3 -109
11 -165 9 -56 18 -122 21 -147 5 -47 36 -190 55 -250 27 -87 94 -243 118 -277
15 -21 33 -51 39 -68 23 -55 47 -78 71 -70 13 4 20 12 17 20 -3 10 7 12 43 10
48 -4 115 -35 124 -59 3 -7 26 -23 51 -36 25 -12 46 -25 46 -29 0 -4 24 -19
53 -33 74 -36 91 -43 121 -47 5 0 1 -10 -9 -21 -17 -18 -17 -21 -1 -45 12 -19
23 -24 36 -20 18 6 18 4 8 -27 -15 -43 -38 -79 -48 -73 -4 3 -13 -2 -20 -10
-10 -12 -9 -20 4 -40 9 -14 18 -25 21 -25 16 0 54 25 59 39 3 9 19 56 35 106
17 49 31 103 31 119 0 25 -3 27 -23 22 -19 -4 -27 0 -38 22 -7 15 -13 34 -14
42 0 10 -11 15 -35 16 -68 1 -85 5 -110 24 l-25 19 28 10 c50 19 81 23 218 28
l136 5 29 -29 c30 -30 64 -132 64 -191 0 -47 -35 -136 -94 -235 -57 -97 -121
-159 -247 -239 -133 -83 -345 -164 -484 -183 -27 -4 -54 -11 -60 -15 -5 -4
-68 -6 -140 -5 -109 1 -144 6 -220 29 -180 54 -239 101 -256 206 -6 40 -6 73
0 98 6 20 11 42 13 47 1 6 10 19 20 29 10 11 18 27 18 35 0 18 49 71 66 71 7
0 18 8 23 18 6 9 11 14 11 9 0 -4 14 0 32 9 17 9 68 30 112 46 44 15 85 33 90
38 14 14 56 12 56 -2 0 -15 -38 -96 -62 -129 -18 -27 -87 -69 -111 -69 -24 0
-56 -38 -50 -60 7 -27 66 -77 134 -114 100 -54 246 -57 399 -8 105 34 160 59
160 73 0 5 11 14 25 19 22 9 24 12 13 30 -14 21 -28 27 -28 10 0 -5 -4 -10
-10 -10 -20 0 -9 21 15 30 31 12 40 19 116 91 36 34 59 65 59 78 0 34 -41 26
-91 -17 -59 -51 -182 -122 -211 -122 -13 0 -28 -4 -33 -9 -25 -22 -242 -42
-295 -27 -63 17 -74 27 -46 43 13 8 86 161 86 182 0 31 64 198 81 210 26 18
24 65 -4 93 -49 50 -159 306 -223 523 -23 79 -24 82 -50 245 -22 140 -28 200
-39 380 -4 66 -38 260 -48 277 -4 6 -11 58 -16 115 -5 57 -12 114 -15 128 -3
14 -11 54 -17 90 -11 69 -61 182 -128 287 -21 34 -37 63 -35 66 2 2 -10 16
-26 32 -17 16 -30 32 -30 37 0 7 -19 33 -50 68 -45 50 -52 60 -42 60 7 0 12
-4 12 -8z m-2245 -2302 c16 -7 17 -9 3 -9 -34 -2 -46 -174 -20 -291 11 -47 22
-107 26 -135 l5 -50 -24 30 c-14 17 -27 49 -31 75 -3 25 -10 59 -15 76 -5 16
-10 73 -12 125 -1 73 2 105 17 142 20 50 20 50 51 37z m2735 -564 c0 -7 10
-16 22 -19 12 -4 19 -9 16 -12 -8 -9 -68 23 -68 35 0 6 7 10 15 10 8 0 15 -6
15 -14z m450 -6 c0 -5 -7 -10 -16 -10 -8 0 -12 5 -9 10 3 6 10 10 16 10 5 0 9
-4 9 -10z m-205 -50 c-43 -11 -143 -12 -149 -1 -3 5 35 9 87 9 62 0 82 -3 62
-8z m-2715 -321 c24 -18 37 -21 80 -15 46 6 51 5 48 -11 -3 -15 -14 -18 -61
-18 -49 0 -61 4 -82 27 -40 43 -32 51 15 17z"/>
</g>
</svg>
