<?xml version="1.0" standalone="no"?>
<!DOCTYPE svg PUBLIC "-//W3C//DTD SVG 20010904//EN"
 "http://www.w3.org/TR/2001/REC-SVG-20010904/DTD/svg10.dtd">
<svg version="1.0" xmlns="http://www.w3.org/2000/svg"
 width="461.000000pt" height="389.000000pt" viewBox="0 0 461.000000 389.000000"
 preserveAspectRatio="xMidYMid meet">
<metadata>
Created by potrace 1.16, written by Peter Selinger 2001-2019
</metadata>
<g transform="translate(0.000000,389.000000) scale(0.100000,-0.100000)"
fill="#000000" stroke="none">
<path d="M2120 3722 c-14 -1 -65 -9 -115 -18 -49 -8 -166 -16 -258 -17 -106
-2 -171 -7 -175 -13 -4 -6 -15 -10 -24 -8 -10 1 -20 -2 -23 -6 -3 -5 -12 -7
-19 -4 -8 3 -17 1 -21 -5 -3 -6 -18 -11 -32 -11 -50 0 -113 -42 -152 -100 -20
-30 -38 -64 -39 -75 -2 -11 -14 -37 -25 -58 -12 -22 -38 -70 -58 -108 -19 -38
-42 -76 -51 -86 -8 -10 -30 -45 -48 -78 -18 -33 -39 -67 -46 -76 -8 -8 -14
-20 -14 -26 0 -5 -9 -18 -19 -27 -11 -10 -37 -54 -59 -99 -22 -45 -48 -91 -59
-103 -25 -27 -36 -47 -79 -131 -20 -40 -46 -88 -57 -105 -29 -43 -58 -113 -93
-223 -15 -49 -39 -108 -51 -130 -13 -22 -23 -47 -23 -57 0 -17 -40 -109 -57
-130 -6 -7 -32 -53 -58 -103 -26 -49 -52 -91 -56 -93 -5 -2 -9 -9 -9 -15 0 -6
-9 -29 -19 -51 -25 -52 -51 -116 -49 -119 1 -1 -5 -15 -14 -32 -51 -97 -76
-154 -81 -183 -4 -18 -22 -65 -41 -105 -19 -40 -40 -92 -46 -117 -6 -25 -16
-61 -21 -80 -15 -57 -22 -138 -21 -240 2 -163 4 -190 13 -190 5 0 9 -4 9 -9 0
-12 77 -128 90 -136 6 -4 8 -11 5 -16 -4 -5 0 -9 7 -9 7 0 29 -13 48 -28 50
-40 105 -72 124 -72 9 0 16 -4 16 -10 0 -5 5 -10 10 -10 6 0 22 -8 37 -17 30
-20 48 -22 111 -13 25 4 58 4 72 -1 40 -13 98 -20 190 -25 47 -2 114 -6 150
-8 36 -1 73 -6 82 -11 12 -5 18 -3 18 6 0 8 9 3 19 -11 17 -21 21 -22 36 -10
20 17 258 19 645 7 124 -4 277 -6 340 -5 173 3 228 2 435 -4 105 -4 218 -2
253 3 35 5 107 11 160 13 97 3 274 23 302 33 8 3 29 6 45 8 156 14 335 102
335 165 0 10 6 23 14 29 8 6 16 22 19 34 8 40 76 221 96 257 10 19 26 64 35
100 9 36 23 74 30 85 7 11 17 35 21 53 3 18 13 45 21 61 8 16 30 89 49 162 52
200 69 258 102 329 16 36 35 79 41 95 11 28 41 165 47 211 2 12 10 35 19 51 8
17 12 33 9 36 -3 4 -1 12 4 19 6 7 14 28 18 47 4 19 31 106 61 195 29 89 61
184 70 211 9 28 24 68 34 90 11 22 24 67 31 100 7 33 14 65 15 70 49 185 50
277 1 395 -39 96 -83 129 -214 160 -64 14 -340 6 -683 -22 -19 -1 -113 13
-122 18 -4 3 -1 19 7 37 16 38 14 149 -3 189 -13 31 -67 58 -127 64 -22 2 -67
10 -100 18 -54 13 -91 20 -180 30 -16 2 -57 12 -90 21 -82 23 -86 24 -380 31
-143 3 -282 7 -310 8 -27 0 -61 0 -75 -2z m265 -111 c22 -1 63 0 90 1 107 3
304 -15 380 -34 71 -18 163 -31 205 -30 8 0 30 -4 49 -10 l34 -11 -84 -81
c-47 -44 -96 -97 -109 -116 -13 -19 -27 -37 -31 -40 -4 -3 -30 -34 -59 -70
-50 -62 -99 -147 -115 -200 -4 -14 -28 -57 -52 -97 -50 -83 -85 -161 -78 -173
3 -5 -1 -14 -8 -22 -28 -28 -105 -165 -112 -198 -10 -44 -75 -183 -92 -193 -7
-4 -13 -16 -13 -25 0 -10 -4 -22 -9 -27 -11 -13 -78 -181 -87 -220 -4 -16 -20
-59 -37 -95 -16 -36 -40 -90 -53 -120 -13 -30 -33 -72 -44 -92 -19 -36 -34
-78 -67 -188 -9 -30 -19 -66 -24 -80 -4 -14 -17 -59 -29 -100 l-21 -75 -187
-1 c-174 0 -382 -19 -492 -43 -25 -5 -61 -8 -80 -6 -19 2 -55 -1 -80 -6 -25
-5 -72 -14 -104 -20 -33 -5 -78 -18 -100 -28 -51 -23 -89 -36 -98 -33 -5 1
-17 -7 -28 -18 -11 -11 -26 -20 -34 -20 -7 0 -36 -25 -65 -55 -56 -61 -64 -92
-34 -135 15 -23 51 -59 78 -78 18 -13 68 -14 145 -3 139 20 311 35 398 36 17
0 32 3 32 7 0 4 12 6 28 3 152 -24 348 -22 455 6 20 5 56 10 80 10 230 1 572
8 747 15 118 5 252 8 298 7 99 -2 222 -21 222 -34 0 -6 5 -7 11 -4 5 4 18 1
27 -7 9 -8 32 -20 50 -28 17 -7 32 -18 32 -25 0 -14 -105 -56 -220 -88 -56
-15 -103 -21 -185 -21 -149 0 -302 11 -345 24 -19 5 -57 10 -85 10 -27 0 -68
5 -90 10 -22 5 -116 11 -208 14 -92 3 -194 10 -225 15 -102 18 -215 25 -327
23 -139 -4 -242 -5 -279 -2 -16 1 -32 -4 -37 -11 -4 -6 -14 -9 -22 -6 -18 7
-29 -39 -20 -84 6 -32 30 -50 42 -31 9 15 229 35 312 28 39 -3 119 -8 178 -12
58 -3 120 -10 136 -14 17 -5 110 -11 207 -14 98 -3 183 -8 188 -11 6 -4 48 -9
93 -12 45 -2 98 -9 117 -15 19 -6 73 -13 120 -14 47 -2 141 -6 210 -9 110 -6
133 -4 189 14 35 12 72 21 82 21 10 0 20 4 24 10 3 5 12 7 20 3 8 -3 15 -1 15
4 0 5 28 17 63 27 34 10 72 22 84 28 11 6 26 8 31 4 17 -10 71 42 65 63 -3 10
0 22 6 25 13 9 15 56 2 56 -5 0 -11 10 -13 22 -2 14 -13 24 -33 30 -16 4 -34
14 -40 21 -17 23 -116 65 -195 83 -80 19 -362 23 -560 9 -52 -4 -153 -6 -225
-4 -243 3 -422 -4 -542 -23 -39 -6 -79 -8 -87 -5 -8 3 -18 2 -21 -3 -3 -5 -51
-9 -108 -9 -267 0 -610 -11 -621 -20 -6 -6 -21 -10 -31 -10 -11 0 -44 -2 -74
-5 -41 -5 -60 -2 -79 10 l-25 16 39 34 c21 18 46 33 54 34 9 0 20 4 25 8 16
14 106 45 112 38 3 -3 11 -2 17 3 6 5 29 10 51 12 22 1 45 6 50 9 6 4 17 8 25
8 40 2 120 13 165 22 28 6 73 12 100 15 28 3 73 8 100 11 28 4 157 8 288 8
272 2 265 0 274 87 2 30 9 58 14 63 6 6 9 6 9 -2 0 -7 9 -12 19 -12 11 0 21
-5 23 -11 3 -8 15 -6 37 6 47 24 245 25 268 1 12 -12 63 36 63 59 0 41 36 181
96 375 17 56 26 80 63 162 12 26 21 49 21 52 0 16 131 288 150 311 5 6 20 40
35 76 14 37 34 75 44 86 11 11 26 34 35 51 9 18 20 32 25 32 5 0 11 8 15 18 8
24 39 76 70 116 14 19 26 42 26 51 0 8 6 18 13 21 8 3 14 11 14 18 0 7 11 37
26 67 39 82 73 159 97 220 12 30 30 72 41 95 10 22 19 46 19 52 0 19 16 14 49
-14 32 -26 61 -27 61 0 0 16 40 26 130 29 36 2 71 7 78 11 12 7 239 17 395 17
38 0 103 -8 144 -17 82 -18 115 -42 128 -92 4 -15 13 -41 22 -59 18 -39 14
-105 -16 -263 -13 -68 -34 -140 -51 -176 -17 -33 -30 -66 -30 -72 0 -6 -5 -23
-12 -39 -6 -15 -12 -30 -13 -33 -1 -3 -7 -18 -14 -35 -7 -16 -15 -43 -18 -60
-3 -16 -10 -35 -14 -41 -5 -6 -20 -51 -34 -100 -33 -117 -55 -191 -70 -234 -7
-19 -16 -55 -20 -80 -4 -25 -9 -56 -12 -70 -4 -26 -26 -89 -82 -240 -17 -47
-38 -110 -46 -140 -27 -96 -48 -165 -55 -175 -4 -5 -17 -44 -30 -85 -29 -97
-45 -148 -61 -185 -7 -16 -13 -34 -15 -40 -8 -27 -74 -195 -86 -221 -9 -16
-18 -42 -21 -59 -11 -57 -68 -165 -87 -165 -10 0 -20 -4 -22 -8 -7 -18 -112
-53 -151 -52 -23 1 -44 1 -47 0 -17 -8 -60 -4 -60 5 0 6 -3 6 -8 -1 -13 -21
-69 -43 -118 -48 -27 -3 -74 -8 -104 -11 -30 -3 -95 -10 -145 -16 -104 -13
-283 -15 -438 -6 -59 4 -110 8 -115 9 -4 1 -46 -2 -94 -6 -91 -9 -99 -9 -263
-2 -307 11 -758 16 -812 8 -48 -7 -65 -6 -76 5 -9 9 -55 15 -153 18 -76 3
-148 8 -158 11 -11 4 -42 8 -70 9 -28 2 -64 6 -81 9 -16 3 -55 7 -85 10 -78 5
-157 49 -236 130 -59 59 -86 112 -89 173 -2 28 -5 55 -8 60 -2 4 -5 47 -6 94
-2 103 34 259 83 359 18 36 38 85 45 110 8 25 22 66 32 92 11 26 19 53 19 62
0 8 3 16 8 18 8 4 32 52 77 158 17 41 50 106 73 144 23 37 42 70 42 73 0 3 10
19 23 36 34 48 47 76 72 152 26 78 44 130 56 160 4 11 17 47 29 80 12 33 37
89 55 125 19 36 46 91 60 123 15 31 48 83 74 115 26 31 60 83 75 116 15 32 38
73 50 90 13 17 37 56 53 86 16 30 45 80 65 110 19 30 59 100 88 155 30 55 57
102 62 103 4 2 8 14 8 27 0 34 62 85 103 85 18 0 37 4 43 8 20 19 132 34 267
37 78 2 159 8 180 13 20 6 37 8 37 5 0 -2 5 -1 11 3 7 4 30 9 52 11 22 2 42 4
43 6 1 1 58 1 126 0 68 -1 141 -2 163 -2z m906 -141 c1 -11 2 -26 2 -32 2 -58
-79 -302 -150 -448 -30 -63 -62 -131 -71 -150 -10 -19 -32 -59 -49 -88 -18
-29 -33 -56 -33 -61 0 -4 -11 -21 -25 -37 -14 -16 -35 -47 -46 -69 -11 -22
-33 -60 -49 -85 -16 -25 -41 -70 -57 -100 -15 -30 -31 -56 -35 -58 -4 -2 -8
-8 -8 -13 0 -6 -18 -49 -41 -97 -22 -48 -49 -105 -59 -127 -9 -22 -27 -62 -40
-90 -27 -60 -33 -74 -77 -195 -45 -124 -53 -149 -59 -185 -5 -30 -13 -63 -33
-141 l-11 -40 -67 7 c-38 4 -70 6 -73 4 -3 -2 -31 -6 -62 -9 -32 -3 -69 -11
-84 -16 l-26 -10 7 42 c4 24 10 48 14 53 4 6 14 30 21 55 8 25 20 56 27 70 7
14 13 33 13 42 0 9 5 20 10 23 6 3 10 14 10 24 0 10 10 38 23 62 13 24 33 71
46 104 12 33 29 74 36 90 31 68 75 178 75 189 1 12 29 71 80 161 39 70 67 127
105 210 15 33 43 81 61 108 19 26 34 51 34 56 0 15 68 156 88 182 10 13 24 40
32 59 14 36 49 101 60 110 4 3 17 24 30 48 13 23 28 42 32 42 5 0 7 4 3 9 -3
6 1 13 8 18 8 4 35 34 61 66 65 80 202 216 229 227 35 14 47 11 48 -10z"/>
</g>
</svg>
