<?xml version="1.0" standalone="no"?>
<!DOCTYPE svg PUBLIC "-//W3C//DTD SVG 20010904//EN"
 "http://www.w3.org/TR/2001/REC-SVG-20010904/DTD/svg10.dtd">
<svg version="1.0" xmlns="http://www.w3.org/2000/svg"
 width="551.000000pt" height="475.000000pt" viewBox="0 0 551.000000 475.000000"
 preserveAspectRatio="xMidYMid meet">
<metadata>
Created by potrace 1.16, written by Peter Selinger 2001-2019
</metadata>
<g transform="translate(0.000000,475.000000) scale(0.100000,-0.100000)"
fill="#000000" stroke="none">
<path d="M2480 4540 c-19 -5 -86 -10 -148 -12 -96 -3 -113 -5 -118 -20 -4 -13
-16 -18 -39 -18 -39 0 -49 -12 -50 -60 0 -30 -3 -35 -25 -35 -21 0 -26 -6 -30
-35 -6 -37 8 -60 34 -60 9 0 16 8 16 19 0 11 3 22 8 24 14 9 62 -5 62 -18 0
-7 10 -15 22 -18 19 -5 19 -22 0 -22 -19 -1 -32 -19 -32 -44 0 -53 52 -65 64
-16 4 17 11 22 21 18 10 -3 12 -9 7 -17 -16 -19 -24 -69 -13 -75 6 -4 8 -17 4
-30 -4 -18 -11 -21 -29 -17 -13 4 -29 0 -38 -9 -8 -8 -21 -15 -29 -15 -8 0
-20 -7 -27 -14 -16 -20 9 -72 33 -70 9 1 14 -2 11 -7 -3 -5 -1 -17 5 -26 8
-15 25 -18 113 -18 l103 0 -2 -29 c-1 -16 7 -42 18 -58 15 -21 19 -36 14 -56
-12 -46 -15 -108 -17 -377 -1 -143 -5 -276 -9 -296 -5 -20 -10 -50 -11 -68 -1
-17 -5 -31 -9 -31 -12 0 -69 -105 -69 -126 0 -11 -8 -31 -17 -44 -10 -14 -16
-27 -14 -30 17 -27 21 -43 13 -53 -5 -7 -10 -24 -11 -39 -1 -16 -2 -36 -3 -45
-1 -19 11 -167 18 -218 8 -62 14 -356 8 -367 -4 -6 -6 -45 -4 -87 7 -200 9
-185 -28 -197 -23 -7 -38 -22 -53 -51 -29 -60 -22 -91 29 -130 24 -18 41 -33
38 -33 -4 0 1 -11 9 -24 9 -14 16 -46 17 -73 0 -26 4 -70 9 -98 5 -27 11 -92
14 -143 3 -52 7 -97 9 -100 5 -9 15 -136 22 -267 2 -55 6 -113 8 -130 3 -16 0
-48 -4 -70 -5 -22 -12 -78 -16 -125 -9 -109 -9 -112 -17 -130 -4 -8 -13 -43
-21 -78 -8 -35 -18 -69 -23 -75 -22 -31 14 -134 43 -123 7 3 14 1 16 -4 2 -5
30 -14 63 -20 181 -31 196 -33 234 -21 21 6 47 11 57 11 11 0 39 10 64 23 61
30 70 57 90 287 6 63 13 122 17 130 11 27 14 170 4 189 -21 38 -21 76 0 119
25 52 23 125 -6 186 -17 36 -18 40 -2 65 30 47 50 95 54 131 4 29 -1 42 -25
70 -29 32 -29 36 -18 74 7 23 11 55 10 71 -5 52 -15 95 -22 95 -15 0 -41 56
-37 80 1 14 14 54 28 90 16 42 29 107 37 185 17 165 17 168 5 184 -7 11 -7 13
1 8 14 -8 23 45 25 153 1 41 7 85 12 97 7 17 6 29 -7 47 -9 14 -16 35 -16 46
0 27 -50 128 -118 240 -12 19 -22 42 -22 51 0 8 -11 26 -25 39 -14 13 -25 29
-25 37 0 7 -5 13 -11 13 -5 0 -7 5 -4 10 3 6 0 17 -8 24 -8 8 -17 33 -21 55
-5 31 -11 40 -29 43 -15 2 -23 11 -24 28 -6 57 -11 446 -6 454 3 4 6 81 7 171
2 117 6 168 15 179 7 9 11 22 8 30 -8 21 11 41 83 84 36 21 70 49 76 60 6 12
18 30 27 40 17 19 29 132 15 132 -5 0 -8 20 -8 43 0 62 -37 197 -60 222 -11
12 -17 25 -13 28 3 4 -1 7 -10 7 -10 0 -17 5 -17 11 0 5 -29 23 -65 40 -70 31
-156 43 -215 29z m24 -79 c7 -11 -3 -41 -14 -41 -4 0 -10 10 -13 21 -5 17 -11
20 -31 15 -15 -4 -26 -2 -26 4 0 12 77 13 84 1z m-172 -25 c15 -22 7 -27 -32
-23 -22 2 -52 -2 -67 -10 -31 -16 -34 -14 -26 15 4 17 9 20 23 12 13 -7 19 -6
23 3 6 15 70 18 79 3z m308 -1 c7 -8 23 -15 35 -15 25 0 76 -43 89 -75 15 -36
32 -129 30 -160 -9 -111 -12 -134 -17 -142 -3 -5 -32 -22 -64 -37 -83 -40 -88
-43 -86 -54 2 -6 -7 -19 -20 -29 -25 -21 -22 33 -30 -541 -5 -424 -5 -424 -71
-383 -29 18 -36 30 -42 66 -3 25 -3 57 1 72 4 16 9 160 10 321 2 198 7 297 14
306 7 8 11 18 10 22 -1 5 0 12 1 17 5 14 8 27 9 42 0 8 7 15 14 15 7 0 12 13
11 33 0 17 6 39 13 48 10 12 11 23 3 43 -9 23 -7 28 14 36 34 13 35 15 57 118
4 23 13 50 18 60 5 10 6 24 0 33 -4 9 -11 38 -13 65 -8 69 -13 95 -25 127 -9
23 -8 27 8 27 10 0 24 -7 31 -15z m-280 -110 c0 -9 -15 -13 -45 -13 -25 0 -53
-6 -61 -13 -12 -10 -13 -8 -5 12 7 20 14 24 45 21 20 -1 36 2 36 7 0 6 7 8 15
5 8 -4 15 -12 15 -19z m10 -79 c0 -3 -4 -8 -10 -11 -5 -3 -10 -1 -10 4 0 6 5
11 10 11 6 0 10 -2 10 -4z m62 -8 c-17 -8 -26 -8 -34 0 -9 9 -4 12 23 11 32 0
33 -1 11 -11z m66 -96 c7 -5 10 -16 6 -25 -3 -9 -7 -17 -8 -17 -24 3 -91 30
-94 38 -4 14 75 16 96 4z m-168 -20 c0 -11 -11 -24 -25 -30 -29 -14 -33 -1 -8
28 22 25 33 26 33 2z m-40 -87 c11 -13 7 -15 -29 -15 -46 0 -52 6 -18 20 31
12 33 12 47 -5z m215 -16 c4 -5 -3 -9 -14 -9 -26 0 -35 15 -11 17 11 1 22 -2
25 -8z m-81 -1115 c9 -8 16 -11 16 -6 0 14 31 24 44 14 6 -5 31 -10 56 -11 64
-3 79 -9 86 -36 8 -30 -11 -64 -42 -75 -47 -18 -140 -12 -179 12 -35 20 -37
23 -31 61 10 62 21 71 50 41z m321 -202 c11 -21 37 -63 58 -96 53 -81 67 -120
67 -180 0 -63 -21 -86 -93 -104 -62 -16 -82 -15 -125 5 -89 41 -200 156 -217
221 -4 15 -14 35 -22 45 -9 9 -13 17 -9 17 4 0 4 6 -1 13 -4 6 -8 17 -10 22
-1 6 -6 25 -12 43 -11 37 -9 38 56 16 84 -29 225 3 244 55 l10 26 18 -23 c9
-13 26 -40 36 -60z m-349 -205 c8 -26 70 -123 98 -154 12 -13 27 -23 34 -23 6
0 12 -4 12 -10 0 -5 7 -10 15 -10 8 0 15 -4 15 -8 0 -11 59 -45 103 -59 46
-14 95 -8 159 18 61 25 61 25 54 -13 -6 -35 -21 -183 -31 -313 -4 -53 -14 -97
-30 -130 -57 -120 -55 -178 8 -264 22 -31 22 -72 -2 -116 -22 -41 -17 -79 14
-103 43 -34 46 -54 14 -96 -16 -22 -29 -44 -29 -49 0 -5 -9 -20 -20 -34 -23
-29 -19 -66 12 -99 10 -11 23 -35 28 -53 9 -33 3 -52 -40 -118 l-14 -21 -18
23 c-17 22 -53 117 -76 200 -30 110 -35 171 -25 336 10 158 8 388 -2 439 -3
14 -10 54 -15 90 -13 92 -43 181 -79 235 -17 25 -31 49 -31 53 0 10 -38 42
-50 42 -12 0 -48 19 -72 39 -10 7 -24 11 -33 8 -11 -5 -15 1 -16 21 -1 15 -3
41 -4 57 -13 119 -12 155 1 144 7 -6 16 -21 20 -32z m37 -288 c20 -5 37 -14
37 -19 0 -6 7 -10 15 -10 8 0 32 -30 53 -67 80 -138 105 -402 71 -748 0 -5 2
-54 5 -109 5 -104 26 -208 57 -291 11 -28 19 -56 19 -62 0 -25 36 -88 72 -128
21 -22 38 -48 38 -57 0 -9 4 -19 8 -22 10 -6 14 -65 5 -79 -3 -5 -5 -57 -5
-116 0 -58 -4 -117 -9 -131 -7 -20 -13 -63 -18 -122 -2 -14 -106 -37 -171 -39
-102 -1 -118 0 -125 11 -3 5 -21 10 -39 10 -19 0 -43 8 -54 18 -20 16 -21 19
-7 72 8 30 15 64 15 75 0 12 6 29 13 39 9 12 11 31 7 55 -3 20 -3 50 1 66 10
40 21 166 20 240 -2 172 -14 336 -26 355 -3 4 -5 36 -6 69 -1 49 2 65 16 75
10 7 20 24 22 36 2 13 7 28 12 34 21 26 54 160 66 265 14 132 12 201 -9 300
-19 93 -87 231 -112 231 -13 0 -24 22 -24 46 0 17 4 17 53 3z m-23 -168 c0 -9
7 -25 15 -35 51 -67 60 -369 15 -513 -13 -40 -29 -73 -35 -73 -17 0 -25 70
-12 95 9 18 17 56 20 93 0 6 4 12 8 12 5 0 6 7 3 15 -3 8 -1 45 5 82 8 45 9
89 3 128 -12 81 -14 88 -35 107 -19 17 -33 78 -24 102 8 20 37 10 37 -13z"/>
<path d="M2088 4253 c-22 -6 -23 -42 -3 -69 12 -16 16 -17 24 -5 10 16 12 82
3 80 -4 -1 -15 -3 -24 -6z"/>
<path d="M2060 4130 c-9 -17 -6 -25 14 -45 14 -14 31 -22 39 -19 14 5 16 51 3
72 -11 19 -44 14 -56 -8z"/>
</g>
</svg>
