<?xml version="1.0" standalone="no"?>
<!DOCTYPE svg PUBLIC "-//W3C//DTD SVG 20010904//EN"
 "http://www.w3.org/TR/2001/REC-SVG-20010904/DTD/svg10.dtd">
<svg version="1.0" xmlns="http://www.w3.org/2000/svg"
 width="547.000000pt" height="477.000000pt" viewBox="0 0 547.000000 477.000000"
 preserveAspectRatio="xMidYMid meet">
<metadata>
Created by potrace 1.16, written by Peter Selinger 2001-2019
</metadata>
<g transform="translate(0.000000,477.000000) scale(0.100000,-0.100000)"
fill="#000000" stroke="none">
<path d="M3523 4603 c-7 -2 -13 -11 -13 -19 0 -17 -27 -19 -32 -2 -4 10 -14 8
-41 -7 -41 -22 -50 -42 -30 -66 12 -15 9 -26 -24 -90 -33 -66 -38 -71 -41 -46
-2 18 5 37 22 58 32 38 33 65 4 73 -31 8 -94 -37 -102 -72 -9 -43 -21 -55 -42
-44 -33 17 -58 -2 -73 -54 -8 -27 -24 -68 -36 -90 -12 -23 -25 -52 -29 -65 -5
-16 -9 -19 -13 -11 -5 13 -2 22 28 85 11 24 11 30 -1 37 -44 28 -83 -12 -79
-82 2 -33 -7 -63 -39 -128 -38 -79 -77 -197 -87 -264 -3 -16 -12 -42 -20 -58
-12 -24 -23 -64 -30 -108 0 -3 -7 -16 -15 -30 -7 -14 -12 -25 -11 -25 3 0 -7
-30 -41 -119 -16 -44 -31 -87 -33 -95 -2 -9 -8 -36 -14 -61 -7 -25 -14 -54
-16 -64 -3 -11 -16 -43 -29 -70 -14 -28 -27 -60 -30 -72 -6 -18 -84 -106 -131
-146 -11 -9 -93 -91 -183 -182 -90 -91 -172 -168 -182 -171 -11 -4 -20 -11
-20 -16 0 -9 -69 -80 -683 -698 -169 -170 -323 -329 -343 -353 -41 -48 -158
-178 -219 -242 -22 -23 -56 -52 -75 -65 -44 -30 -90 -78 -90 -94 0 -7 -19 -24
-43 -40 -23 -15 -78 -61 -122 -102 -44 -41 -87 -78 -97 -81 -10 -3 -21 -17
-24 -32 -3 -15 -7 -33 -10 -40 -2 -6 1 -12 5 -12 5 0 7 -9 4 -19 -3 -13 8 -34
34 -63 21 -24 50 -60 63 -80 14 -21 35 -43 47 -49 12 -7 21 -15 20 -18 -2 -7
34 -48 138 -157 80 -84 132 -150 165 -209 33 -59 67 -95 89 -95 9 0 22 -5 28
-11 9 -9 20 -9 42 1 17 7 31 16 31 20 0 4 41 47 91 96 51 49 128 126 173 172
45 46 110 111 144 145 35 34 116 115 180 181 65 65 203 205 309 310 105 105
208 214 228 241 21 28 88 100 149 161 61 61 161 164 221 229 61 64 148 157
195 205 47 48 115 121 151 161 118 132 199 209 226 215 14 4 53 21 87 39 34
18 80 38 101 45 51 15 123 49 130 60 3 5 22 14 43 21 20 6 91 38 157 70 66 33
125 59 131 59 6 0 63 26 125 58 63 32 130 65 149 72 19 8 73 31 120 53 47 21
107 48 135 59 27 11 55 24 61 29 14 11 124 50 124 43 0 -3 16 7 35 22 52 39
47 58 -12 50 -41 -5 -79 -22 -208 -89 -29 -15 -58 -28 -209 -96 -37 -17 -63
-25 -57 -17 14 17 177 99 241 121 24 9 65 28 90 43 25 15 63 34 85 44 132 54
158 67 171 86 8 11 11 27 8 36 -7 19 -6 19 -37 7 -13 -5 -30 -5 -37 -1 -15 9
-4 15 89 50 31 11 50 26 63 49 11 18 25 40 33 48 8 8 15 18 15 23 0 20 -13 40
-27 40 -17 0 -9 39 12 55 18 15 12 54 -13 80 -27 28 -37 104 -16 112 15 6 18
40 6 60 -15 24 -58 33 -81 17 -11 -8 -21 -21 -21 -27 0 -14 -52 -21 -81 -12
-17 6 -18 9 -4 35 8 16 15 38 15 50 0 17 -3 19 -19 10 -11 -5 -24 -10 -30 -10
-14 0 -14 57 -1 65 6 3 10 14 10 25 0 13 5 17 19 13 11 -3 17 -11 15 -18 -6
-15 26 -56 38 -49 4 3 11 -3 15 -13 4 -10 14 -26 23 -36 16 -17 18 -16 44 4
37 29 31 59 -15 81 -19 9 -41 23 -48 32 -8 9 -20 16 -27 16 -8 0 -14 10 -14
24 0 45 -50 61 -74 24 -8 -13 -8 -23 2 -38 16 -26 3 -26 -49 -1 -39 19 -39 19
-50 -1 -8 -14 -14 -17 -22 -9 -14 14 18 51 45 51 14 0 18 8 18 35 l0 36 30
-16 c21 -11 42 -14 68 -9 20 4 51 8 67 8 24 1 29 5 27 21 -5 27 -6 27 -49 31
-59 5 -77 10 -81 23 -2 7 3 11 11 9 18 -3 19 -1 11 29 -4 13 -10 20 -15 17 -5
-3 -9 -1 -9 5 0 5 -18 12 -40 16 -33 6 -40 11 -40 30 0 15 -7 26 -20 30 -11 3
-20 14 -20 24 0 27 -21 41 -61 41 -33 0 -38 -4 -48 -32 -10 -29 -9 -35 9 -50
25 -20 25 -36 -1 -67 -17 -21 -22 -22 -30 -10 -5 7 -8 28 -5 45 4 26 0 34 -20
43 -23 10 -25 15 -19 54 5 31 3 48 -7 58 -7 8 -19 25 -26 38 -13 23 -13 23 30
18 24 -3 52 -7 63 -9 14 -2 20 3 20 15 0 27 -107 72 -135 57 -16 -8 -19 -17
-13 -38 6 -25 5 -26 -10 -10 -9 9 -17 27 -17 40 -1 36 -33 72 -58 63 -12 -3
-22 -13 -22 -21 0 -8 -6 -14 -12 -14 -9 0 -8 -4 2 -10 21 -13 3 -12 -37 2 -30
11 -35 10 -63 -17 -31 -30 -52 -27 -32 5 10 16 8 20 -8 25 -21 7 -25 22 -11
44 7 11 15 11 39 3 19 -6 33 -7 39 -1 6 6 20 6 36 0 21 -8 27 -8 27 4 0 10 9
12 36 8 31 -5 36 -3 32 13 -2 11 -21 25 -53 36 -27 10 -51 22 -53 28 -2 5 -15
10 -28 10 -23 0 -29 -12 -25 -48 3 -16 -31 -1 -64 28 -23 21 -65 11 -65 -15 0
-8 -4 -15 -10 -15 -5 0 -10 -7 -10 -15 0 -8 -4 -15 -9 -15 -16 0 4 -63 24 -74
11 -6 32 -19 46 -28 14 -10 29 -15 33 -11 3 3 6 1 6 -5 0 -7 -5 -12 -11 -12
-7 0 -9 -11 -6 -26 3 -16 0 -28 -9 -31 -17 -6 -18 -45 -1 -62 10 -10 8 -16 -8
-29 -12 -9 -30 -32 -40 -49 -11 -18 -27 -33 -36 -33 -20 0 -38 -19 -42 -46 -3
-22 -45 -80 -52 -73 -7 7 89 196 118 230 32 39 33 43 7 69 -12 12 -18 25 -15
30 4 6 2 10 -4 10 -5 0 -12 9 -16 19 -7 22 -29 33 -51 24 -13 -5 -14 -15 -9
-57 7 -44 6 -49 -7 -38 -27 22 -30 82 -7 119 12 18 18 40 15 49 -3 8 -2 13 3
10 5 -3 14 1 21 9 10 11 7 19 -14 39 -23 20 -84 40 -95 30 -2 -2 0 -15 3 -29
5 -18 15 -27 36 -32 33 -6 35 -8 20 -26 -6 -7 -18 -21 -26 -32 -13 -16 -15
-17 -10 -3 3 11 -5 28 -21 44 -20 20 -33 25 -57 21 -54 -9 -66 -13 -84 -28
-16 -13 -82 -23 -82 -12 0 9 44 68 57 76 7 4 13 15 13 23 0 28 29 26 54 -3 22
-24 27 -26 36 -13 5 8 10 22 10 31 0 13 8 16 36 13 19 -2 43 -6 53 -9 10 -3
24 1 31 10 7 9 23 13 39 11 109 -17 121 -17 121 -3 0 8 -12 19 -27 25 -51 19
-123 35 -130 29 -3 -4 -18 2 -33 13 -21 15 -43 20 -87 19 -32 0 -64 -3 -70 -6z
m-103 -243 c0 -5 -5 -10 -11 -10 -5 0 -7 5 -4 10 3 6 8 10 11 10 2 0 4 -4 4
-10z m90 -16 c14 -14 20 -28 15 -32 -6 -4 -20 -25 -32 -47 -12 -22 -28 -41
-35 -44 -10 -3 -11 -1 0 10 20 21 15 59 -8 59 -26 0 -25 14 1 51 25 35 29 36
59 3z m-100 -8 c0 -2 -11 -26 -24 -53 -14 -27 -30 -62 -37 -78 -6 -17 -13 -25
-16 -18 -5 14 58 153 69 153 5 0 8 -2 8 -4z m-216 -102 c-13 -38 -27 -77 -29
-86 -2 -10 -10 -30 -18 -45 -33 -63 -58 -130 -60 -160 -1 -18 -5 -33 -9 -33
-3 0 -12 -17 -19 -37 -6 -21 -26 -70 -44 -108 -18 -39 -36 -82 -40 -95 -12
-40 -86 -180 -95 -180 -7 0 4 37 28 90 23 52 62 159 62 171 0 6 18 50 40 96
22 46 38 89 34 95 -4 6 -3 8 4 4 12 -7 39 70 44 124 1 19 7 44 14 55 74 131
107 185 110 182 2 -2 -8 -34 -22 -73z m121 56 c3 -5 2 -17 -3 -27 -9 -15 -11
-14 -20 4 -15 27 7 49 23 23z m305 -13 c0 -12 -35 -57 -44 -57 -2 0 4 16 13
35 16 35 31 45 31 22z m452 -59 c-13 -13 -32 -2 -32 18 0 12 4 13 21 3 14 -7
18 -14 11 -21z m-388 13 c9 -13 -19 -32 -38 -25 -17 6 -20 16 -9 27 9 10 41 9
47 -2z m-433 -108 c-12 -25 -18 -49 -15 -55 4 -6 3 -9 -2 -5 -5 3 -36 -46 -68
-109 -54 -103 -76 -133 -76 -104 0 17 65 178 111 277 43 92 44 92 58 66 12
-23 11 -31 -8 -70z m183 43 c-20 -32 -37 -34 -21 -3 23 43 31 51 34 40 3 -7
-3 -23 -13 -37z m350 19 c-6 -16 -24 -21 -24 -7 0 11 11 22 21 22 5 0 6 -7 3
-15z m202 -42 c-8 -8 -36 10 -36 25 0 13 3 12 20 -3 11 -10 18 -20 16 -22z
m-352 8 c3 -4 -6 -18 -19 -31 -22 -20 -25 -21 -31 -6 -3 9 -4 23 0 31 6 16 41
21 50 6z m579 -10 c5 -1 7 -11 5 -23 -2 -13 -9 -22 -16 -20 -7 1 -12 -8 -12
-21 0 -25 -17 -47 -37 -47 -7 0 -10 7 -7 15 4 9 -3 16 -20 21 -14 3 -26 10
-26 15 0 12 17 11 25 -1 3 -5 9 -10 13 -10 28 1 54 60 26 60 -8 0 -14 4 -14 9
0 5 12 8 28 6 15 -2 31 -4 35 -4z m-923 -60 c-11 -23 -25 -41 -30 -41 -5 0 3
24 17 52 15 29 28 47 30 41 2 -6 -5 -30 -17 -52z m358 11 c-40 -68 -56 -87
-62 -81 -9 9 61 119 75 119 6 0 0 -17 -13 -38z m20 -99 c-39 -76 -73 -140 -75
-142 -2 -3 -9 1 -15 7 -9 9 -9 17 -3 27 6 8 43 66 83 130 41 63 76 115 78 115
2 0 -28 -62 -68 -137z m239 98 c10 -16 8 -23 -8 -42 -10 -12 -19 -25 -19 -30
0 -13 -32 -3 -41 13 -5 9 -1 25 14 46 25 37 38 39 54 13z m-856 -19 c-5 -9
-10 -21 -10 -27 -4 -35 -70 -185 -81 -185 -8 0 12 101 28 140 5 14 11 30 13
35 1 6 11 19 21 29 10 11 18 24 18 28 0 5 5 6 10 3 6 -4 7 -13 1 -23z m517 -7
c2 -2 -1 -13 -8 -24 -6 -12 -8 -21 -6 -21 3 0 -5 -10 -18 -23 -13 -13 -26 -30
-29 -38 -5 -11 -10 -9 -26 9 l-20 23 31 45 c24 37 34 44 51 38 12 -4 23 -8 25
-9z m472 6 c0 -10 -23 -37 -139 -170 -31 -36 -68 -78 -83 -95 -14 -17 -30 -28
-34 -23 -4 4 -1 13 7 20 9 6 40 41 70 77 30 36 70 83 90 105 20 22 47 52 60
67 27 31 29 32 29 19z m29 -60 c-15 -5 -22 6 -14 19 6 9 10 9 16 -1 5 -8 4
-15 -2 -18z m-828 -10 c-6 -10 -8 -21 -5 -23 3 -3 -2 -8 -10 -11 -16 -6 -12
16 7 41 14 18 19 15 8 -7z m335 -16 c-8 -8 -20 -15 -27 -15 -7 0 -4 6 7 15 25
19 40 19 20 0z m887 9 c8 -8 -3 -34 -14 -34 -5 0 -9 9 -9 20 0 19 11 26 23 14z
m-450 -35 c-10 -16 -29 -40 -43 -52 -22 -20 -22 -19 5 18 41 57 47 65 52 65 2
0 -4 -14 -14 -31z m178 -2 c-13 -12 -20 -15 -16 -7 14 26 28 41 33 35 3 -3 -5
-16 -17 -28z m214 5 c-3 -3 -11 0 -18 7 -9 10 -8 11 6 5 10 -3 15 -9 12 -12z
m-624 -21 c-11 -11 -17 -28 -14 -42 2 -16 -5 -34 -23 -54 -14 -16 -37 -43 -50
-60 l-24 -30 0 41 c0 32 9 52 46 102 28 38 53 62 65 62 19 0 19 0 0 -19z m464
-1 c-10 -11 -21 -17 -24 -14 -3 3 3 12 13 20 28 20 32 17 11 -6z m-1042 -16
c-9 -15 -19 -21 -21 -15 -4 13 16 41 29 41 5 0 2 -12 -8 -26z m255 -2 c9 -25
4 -39 -30 -100 -22 -40 -44 -72 -48 -72 -5 0 -7 7 -4 15 4 8 10 15 15 15 5 0
9 7 9 15 0 26 -14 17 -40 -25 -14 -22 -28 -40 -32 -40 -5 0 -8 -5 -8 -10 0 -6
-9 -20 -20 -32 -16 -18 -20 -19 -20 -6 0 9 7 23 15 32 8 8 15 19 15 24 0 6 3
12 8 14 12 5 77 109 97 156 11 23 22 42 26 42 4 0 12 -13 17 -28z m870 -20 c5
-9 12 -29 16 -44 6 -25 5 -26 -19 -15 -24 12 -35 37 -15 37 6 0 10 5 10 10 0
6 -11 8 -27 4 -22 -6 -25 -4 -20 10 4 10 7 22 7 27 0 14 38 -8 48 -29z m-168
21 c-1 -15 -168 -174 -174 -165 -5 9 18 38 101 125 40 42 73 60 73 40z m237
-25 c-3 -8 -6 -5 -6 6 -1 11 2 17 5 13 3 -3 4 -12 1 -19z m-400 -55 c-50 -53
-128 -144 -152 -176 -11 -15 -23 -27 -27 -27 -15 0 -8 38 7 44 8 3 27 25 43
49 15 24 45 59 67 78 22 19 50 44 63 57 39 38 38 16 -1 -25z m-755 -69 c-116
-205 -136 -244 -155 -299 -20 -54 -61 -149 -68 -155 -3 -3 -11 -19 -18 -37 -7
-18 -20 -38 -29 -45 -13 -11 -14 -10 -7 12 17 56 210 447 268 544 52 89 60 71
9 -20z m-126 -85 c-35 -68 -76 -144 -90 -169 -14 -25 -55 -103 -91 -175 -102
-203 -139 -269 -152 -273 -16 -4 -6 30 25 87 31 57 52 101 83 171 38 86 123
243 168 310 17 25 31 48 31 52 0 11 81 130 86 125 2 -2 -25 -60 -60 -128z
m-26 112 c0 -6 -4 -13 -10 -16 -5 -3 -10 1 -10 9 0 9 5 16 10 16 6 0 10 -4 10
-9z m470 4 c0 -12 -69 -128 -142 -239 -43 -65 -78 -121 -78 -125 -1 -11 -40
-54 -46 -49 -6 7 50 109 93 169 18 26 33 50 33 54 0 5 6 16 14 24 13 15 64
100 88 149 10 19 38 32 38 17z m576 -11 c-3 -9 -6 -21 -6 -28 0 -7 -12 -19
-27 -27 -14 -8 -40 -27 -56 -42 -38 -36 -67 -52 -67 -37 0 6 7 13 15 16 8 4
15 13 15 22 0 20 97 112 117 112 10 0 13 -6 9 -16z m147 -21 c8 -7 -21 -43
-35 -43 -4 0 -8 11 -8 25 0 18 5 25 18 25 10 0 22 -3 25 -7z m136 -22 c10 -7
8 -12 -10 -25 -13 -9 -31 -16 -41 -16 -10 0 -18 -4 -18 -9 0 -22 -155 -161
-179 -161 -24 0 -8 26 54 91 36 37 65 65 65 64 0 -2 17 12 38 30 37 35 65 43
91 26z m-775 -33 c-4 -7 -32 -46 -61 -85 -51 -71 -72 -90 -59 -57 9 23 110
153 119 154 5 0 5 -6 1 -12z m503 -90 c-33 -32 -63 -58 -67 -58 -26 0 -7 39
57 114 26 32 28 33 49 17 22 -16 22 -16 -39 -73z m-805 60 c-7 -7 -12 -8 -12
-2 0 6 3 14 7 17 3 4 9 5 12 2 2 -3 -1 -11 -7 -17z m1144 -4 c30 -31 33 -74 5
-67 -10 3 -28 0 -39 -6 -16 -8 -21 -7 -26 5 -10 25 -7 32 14 39 15 5 19 12 14
31 -8 31 3 31 32 -2z m-576 -93 c0 -5 -7 -12 -16 -15 -14 -5 -15 -4 -4 9 14
17 20 19 20 6z m399 -60 c-3 -6 -10 -7 -18 -2 -7 5 -10 14 -6 21 9 14 29 -2
24 -19z m121 11 c0 -5 -6 -16 -13 -26 -13 -18 -14 -18 -21 -1 -4 11 -1 22 6
27 17 10 28 10 28 0z m-660 -11 c0 -11 -68 -94 -103 -126 -26 -24 -160 -174
-201 -225 -53 -66 -98 -112 -102 -107 -3 3 1 13 10 24 8 10 47 61 86 113 39
52 118 144 176 203 57 60 104 113 104 118 0 5 7 9 15 9 8 0 15 -4 15 -9z m813
-16 c18 -25 18 -25 -10 -50 -15 -13 -31 -25 -35 -25 -12 0 -10 28 2 35 16 10
12 45 -5 45 -8 0 -15 -3 -15 -8 0 -10 -41 -35 -48 -28 -3 3 5 17 18 31 30 32
69 32 93 0z m-349 -55 c-5 -4 -18 -10 -29 -12 -11 -2 -21 -13 -23 -25 -5 -31
-26 -45 -56 -37 -14 3 -26 9 -25 13 0 3 23 25 51 48 42 35 54 40 71 32 10 -6
15 -14 11 -19z m120 3 c-34 -26 -54 -34 -54 -24 0 14 36 38 56 38 14 0 14 -2
-2 -14z m297 -21 c-5 -9 -5 -26 0 -40 8 -22 5 -29 -23 -53 l-33 -27 -3 23 c-2
13 2 33 8 45 6 11 8 30 5 40 -4 12 -2 20 5 20 6 0 9 4 6 9 -9 13 17 20 31 9 8
-7 10 -16 4 -26z m-697 15 c-11 -7 -47 -37 -80 -69 -32 -31 -81 -74 -109 -96
-47 -37 -144 -127 -250 -232 -25 -24 -45 -39 -45 -33 0 19 314 329 415 410 22
18 51 32 65 32 24 0 24 0 4 -12z m776 -2 c0 -1 -7 -8 -15 -15 -13 -10 -15 -9
-15 8 0 15 5 20 15 16 8 -4 15 -7 15 -9z m-331 -56 c-13 -10 -26 -16 -28 -13
-8 8 32 44 42 37 5 -3 -1 -14 -14 -24z m-889 -13 c0 -3 -4 -8 -10 -11 -5 -3
-10 -1 -10 4 0 6 5 11 10 11 6 0 10 -2 10 -4z m956 -16 c0 -13 -4 -16 -10 -10
-6 6 -14 6 -23 -1 -17 -14 -17 -3 0 16 17 20 33 18 33 -5z m-1019 -65 c-20
-25 -38 -52 -40 -58 -2 -7 -7 -10 -10 -7 -4 4 12 32 35 64 22 31 42 55 45 52
3 -2 -11 -25 -30 -51z m648 44 c12 -19 -5 -23 -22 -6 -16 16 -16 17 -1 17 9 0
20 -5 23 -11z m478 -41 c-2 -5 -13 -8 -23 -8 -11 0 -30 -12 -44 -27 -16 -17
-37 -28 -58 -29 l-33 -2 64 58 65 58 17 -22 c9 -11 15 -24 12 -28z m105 -9 c7
-12 11 -24 8 -27 -3 -3 -6 0 -6 6 0 15 -32 16 -47 1 -6 -6 -16 -8 -22 -4 -8 4
-4 13 11 25 30 25 40 25 56 -1z m-811 -58 c-23 -22 -44 -38 -46 -35 -5 5 70
73 81 74 4 0 -12 -18 -35 -39z m533 -21 c-10 -19 -30 -28 -30 -14 0 6 30 33
38 34 1 0 -2 -9 -8 -20z m182 -22 c-7 -7 -12 -8 -12 -2 0 6 3 14 7 17 3 4 9 5
12 2 2 -3 -1 -11 -7 -17z m-772 -12 c0 -2 -8 -10 -17 -17 -16 -13 -17 -12 -4
4 13 16 21 21 21 13z m525 -16 c-3 -6 -21 -17 -38 -26 l-32 -15 30 25 c30 26
51 34 40 16z m110 -36 c-77 -58 -442 -270 -451 -262 -2 3 15 15 39 28 68 37
191 113 205 127 7 7 18 13 23 13 5 0 32 17 61 37 66 48 109 72 128 72 11 0 10
-4 -5 -15z m-695 -14 c0 -5 -5 -10 -11 -10 -5 0 -7 5 -4 10 3 6 8 10 11 10 2
0 4 -4 4 -10z m761 -29 c-16 -12 -21 -23 -16 -32 6 -11 5 -12 -5 -2 -8 8 -18
9 -24 4 -40 -33 -288 -160 -260 -133 11 11 30 23 42 26 12 4 48 25 81 47 105
70 248 141 182 90z m-798 -6 c-3 -9 -8 -14 -10 -11 -3 3 -2 9 2 15 9 16 15 13
8 -4z m167 -5 c-8 -5 -35 -23 -60 -41 -43 -32 -77 -55 -183 -128 -49 -34 -72
-38 -38 -7 34 31 285 195 291 190 2 -3 -2 -9 -10 -14z m-710 -5 c-7 -8 -17
-15 -22 -15 -6 0 -5 7 2 15 7 8 17 15 22 15 6 0 5 -7 -2 -15z m1410 5 c0 -5
-18 -21 -40 -35 -44 -28 -69 -35 -30 -8 14 9 32 25 40 35 17 20 30 23 30 8z
m-1460 -54 c0 -3 -4 -8 -10 -11 -5 -3 -10 -1 -10 4 0 6 5 11 10 11 6 0 10 -2
10 -4z m990 -151 c0 -2 -13 -11 -30 -20 -38 -19 -40 -11 -2 9 31 17 32 18 32
11z m-111 -59 c-15 -13 -49 -25 -49 -17 0 5 8 12 18 14 24 6 36 8 31 3z m48
-92 c-3 -3 -12 -4 -19 -1 -8 3 -5 6 6 6 11 1 17 -2 13 -5z m-497 -44 c-37 -31
-50 -36 -50 -20 0 8 66 49 80 49 3 0 -11 -13 -30 -29z m-232 -27 c-21 -20 -41
-34 -44 -30 -10 10 46 67 65 67 10 0 3 -13 -21 -37z m112 -63 c0 -5 -8 -10
-17 -10 -15 0 -16 2 -3 10 19 12 20 12 20 0z m-1152 -57 c20 -9 51 -21 68 -27
17 -6 46 -22 64 -36 63 -49 239 -233 242 -254 2 -12 12 -22 23 -24 22 -4 77
-74 99 -126 9 -22 22 -36 36 -38 l22 -3 -22 -28 c-19 -24 -27 -27 -54 -21 -17
3 -42 14 -56 24 -14 9 -36 20 -50 23 -14 4 -66 46 -116 94 -146 143 -212 222
-264 318 -18 33 -36 64 -41 70 -12 13 -11 45 1 45 6 0 27 -8 48 -17z m1122
-17 c0 -3 -4 -8 -10 -11 -5 -3 -10 -1 -10 4 0 6 5 11 10 11 6 0 10 -2 10 -4z
m-1220 -74 c28 -56 42 -79 78 -122 12 -15 22 -33 22 -39 0 -6 4 -11 8 -11 5 0
33 -30 63 -66 84 -103 195 -212 242 -238 12 -6 42 -25 67 -41 25 -16 47 -30
49 -32 3 -2 -124 -135 -383 -399 -71 -73 -138 -147 -149 -166 -12 -18 -41 -51
-66 -73 -25 -22 -57 -53 -71 -68 -14 -16 -61 -63 -105 -105 -95 -92 -178 -175
-221 -223 -17 -18 -64 -66 -105 -104 -41 -39 -100 -95 -131 -125 l-58 -54 -54
55 c-30 29 -73 72 -96 94 -23 22 -53 59 -68 83 -15 23 -35 45 -45 48 -10 3
-17 8 -14 10 2 3 -12 22 -32 43 -154 163 -193 215 -193 255 0 19 -5 22 -22 18
-11 -3 -29 -12 -38 -20 -10 -8 -18 -11 -18 -6 0 5 14 20 31 34 18 14 41 36 53
49 46 53 83 98 121 146 44 56 76 91 185 204 178 184 243 250 302 307 35 33 84
83 110 111 25 27 59 61 75 74 15 14 43 42 62 64 34 41 194 207 228 236 10 9
40 40 67 68 27 29 56 51 65 49 8 -2 26 -27 41 -56z m-1280 -1412 c8 -5 11 -10
5 -10 -5 0 -17 5 -25 10 -8 5 -10 10 -5 10 6 0 17 -5 25 -10z"/>
</g>
</svg>
