<?xml version="1.0" standalone="no"?>
<!DOCTYPE svg PUBLIC "-//W3C//DTD SVG 20010904//EN"
 "http://www.w3.org/TR/2001/REC-SVG-20010904/DTD/svg10.dtd">
<svg version="1.0" xmlns="http://www.w3.org/2000/svg"
 width="551.000000pt" height="489.000000pt" viewBox="0 0 551.000000 489.000000"
 preserveAspectRatio="xMidYMid meet">
<metadata>
Created by potrace 1.16, written by Peter Selinger 2001-2019
</metadata>
<g transform="translate(0.000000,489.000000) scale(0.100000,-0.100000)"
fill="#000000" stroke="none">
<path d="M2768 4757 c-32 -6 -58 -14 -58 -18 0 -5 -15 -15 -33 -24 -18 -8 -43
-25 -57 -38 -14 -12 -38 -29 -54 -37 -30 -15 -85 -87 -91 -119 -4 -20 -33 -81
-39 -81 -1 0 -29 9 -61 20 -132 45 -230 14 -355 -113 -31 -32 -44 -39 -76 -38
-21 0 -63 1 -92 2 -53 1 -116 -17 -107 -31 2 -4 -6 -5 -18 -3 -19 4 -25 -2
-36 -34 -7 -21 -21 -47 -31 -58 -22 -25 -32 -97 -34 -240 -2 -188 5 -267 25
-294 11 -13 19 -29 19 -36 0 -23 80 -95 112 -102 l31 -6 -28 -15 c-15 -8 -39
-26 -53 -41 -25 -27 -26 -45 -8 -151 16 -92 93 -282 137 -338 24 -32 25 -31
-14 -73 -111 -121 -165 -187 -171 -206 -4 -11 -13 -24 -21 -27 -8 -3 -15 -11
-15 -17 0 -6 -18 -33 -40 -59 -22 -26 -40 -50 -40 -54 0 -8 -66 -110 -82 -127
-16 -18 -57 -83 -81 -130 -10 -19 -35 -54 -55 -76 -37 -40 -52 -62 -159 -223
-30 -47 -67 -99 -82 -116 -76 -92 -201 -261 -201 -272 0 -11 -144 -190 -173
-214 -11 -10 -24 -18 -29 -18 -4 0 -8 -11 -8 -23 0 -13 -8 -33 -18 -45 -60
-71 -92 -150 -92 -231 0 -47 28 -107 70 -153 14 -14 32 -39 40 -55 26 -52 111
-125 179 -153 33 -13 33 -13 28 -70 -5 -61 -31 -159 -52 -203 -8 -15 -12 -33
-10 -40 3 -6 6 -59 9 -117 2 -62 10 -120 18 -140 22 -53 71 -90 118 -90 36 0
70 20 70 40 0 5 7 15 15 23 13 13 11 21 -11 63 -14 27 -32 67 -40 90 -24 70
-34 385 -13 392 5 2 9 12 9 22 0 10 4 22 10 25 5 3 10 17 10 30 0 13 11 36 24
52 13 15 37 50 54 77 17 27 45 64 62 82 16 18 30 37 30 42 0 15 149 205 175
224 5 4 7 8 3 8 -4 0 3 10 15 23 12 13 32 37 44 53 12 16 32 41 43 56 11 14
20 29 20 33 0 4 16 25 35 47 19 23 32 45 29 49 -3 5 0 9 5 9 6 0 11 7 11 15 0
8 9 19 19 25 20 10 111 148 111 168 0 6 6 15 14 19 8 4 28 33 46 63 18 30 50
74 72 98 21 23 36 47 33 52 -3 6 -2 10 4 10 10 0 74 91 101 143 8 16 24 38 37
51 12 12 39 47 59 77 21 30 40 56 44 59 4 3 20 25 35 50 16 25 47 63 70 85 49
47 70 81 55 90 -5 3 -10 13 -10 21 0 17 32 -4 90 -57 39 -35 122 -35 163 1 15
13 27 30 27 37 0 7 4 13 9 13 5 0 14 14 21 30 7 17 17 30 23 30 6 0 8 3 4 6
-3 3 0 12 6 19 10 10 20 8 52 -10 47 -27 146 -49 181 -41 46 12 114 17 114 9
0 -5 15 -17 33 -28 17 -10 49 -34 69 -54 57 -53 84 -61 160 -47 35 7 70 16 77
20 8 5 28 11 45 13 42 4 129 108 132 157 4 51 18 122 26 133 5 7 28 21 51 32
88 43 188 145 216 221 7 19 17 44 22 55 19 41 16 121 -9 220 -14 55 -32 108
-40 118 -14 16 -13 26 13 105 30 91 40 199 24 271 -9 42 -77 109 -162 159 -47
29 -68 34 -134 38 -119 7 -112 4 -107 39 5 30 13 67 21 95 3 8 7 54 10 102 5
80 3 93 -20 142 -21 44 -36 60 -85 90 -57 35 -141 59 -168 49 -13 -5 -23 18
-29 69 -10 75 -35 111 -132 192 -40 33 -123 47 -205 33z m131 -91 c10 -9 24
-16 32 -16 21 0 87 -57 104 -90 25 -48 30 -171 10 -224 -21 -55 -35 -59 -35
-10 0 44 -25 72 -49 57 -17 -11 -19 -29 -6 -83 l7 -34 -23 16 c-27 17 -37 57
-18 68 9 6 4 16 -15 35 l-28 28 -12 -24 c-11 -23 -16 -24 -115 -24 -98 0 -104
-1 -112 -22 -14 -38 14 -55 85 -52 86 3 108 0 101 -11 -3 -5 -11 -7 -18 -4 -7
2 -37 -5 -67 -16 l-55 -19 -20 23 c-11 13 -39 37 -62 53 -92 66 -114 119 -75
182 21 34 104 121 116 121 5 0 30 13 56 29 70 43 161 51 199 17z m-524 -278
c64 -22 95 -40 95 -53 0 -8 4 -15 8 -15 5 0 24 -15 43 -32 19 -18 51 -47 71
-63 22 -19 38 -42 41 -60 20 -119 21 -109 -20 -197 -22 -46 -45 -108 -52 -138
-27 -111 -103 -178 -212 -187 -49 -5 -62 -2 -100 23 -53 34 -92 75 -139 144
-37 54 -68 93 -122 151 -56 61 -64 82 -51 144 8 35 25 72 48 102 59 77 183
182 208 175 4 -1 7 2 7 7 0 20 117 19 175 -1z m846 -24 c15 -7 33 -19 41 -26
8 -7 23 -18 33 -24 11 -6 27 -26 36 -44 17 -35 25 -132 13 -152 -5 -7 -9 -28
-10 -48 -1 -19 -3 -37 -4 -40 -4 -9 -7 -25 -8 -46 -2 -16 -10 -23 -32 -26 -26
-4 -31 -1 -37 21 -22 93 -114 191 -177 191 -20 0 -36 1 -36 3 0 2 9 21 19 43
16 33 26 62 57 163 5 16 62 8 105 -15z m-1323 -141 c2 -9 -9 -13 -35 -13 -66
0 -115 -46 -133 -125 -6 -27 -14 -57 -17 -65 -10 -24 -3 -177 12 -260 7 -41
34 -120 48 -138 16 -21 2 -24 -21 -5 -29 25 -62 89 -68 132 -15 120 -10 230
17 366 14 76 79 126 158 122 19 -1 36 -8 39 -14z m973 -40 c38 -18 51 -47 30
-68 -5 -6 0 -30 15 -60 23 -50 33 -142 14 -130 -5 3 -10 14 -10 24 0 10 -11
34 -23 53 -13 19 -26 54 -30 78 -6 44 -29 85 -60 104 -14 9 -22 6 -40 -15 -28
-34 -67 -45 -67 -19 0 20 58 48 104 49 16 1 47 -7 67 -16z m-1009 -83 c9 -101
17 -131 44 -160 46 -50 94 -250 70 -289 -9 -14 -116 -15 -116 -1 0 6 -8 10
-19 10 -21 0 -36 33 -56 117 -2 10 -9 36 -14 58 -15 60 1 246 22 263 10 9 35
17 60 21 4 0 8 -8 9 -19z m952 -30 c17 -43 22 -125 7 -134 -5 -3 -11 9 -14 27
-4 17 -13 58 -20 90 -11 45 -12 57 -2 57 7 0 20 -18 29 -40z m328 -12 c38 -41
54 -78 33 -78 -8 0 -15 7 -15 15 0 8 -13 30 -30 48 -48 55 -37 68 12 15z
m-418 -4 c3 -9 6 -22 6 -29 0 -8 5 -26 12 -42 23 -57 21 -70 -13 -77 -17 -3
-44 -6 -59 -6 -28 0 -28 1 -18 38 6 20 19 49 29 64 11 14 19 36 19 47 0 25 15
28 24 5z m266 7 c0 -5 14 -13 32 -16 29 -7 67 -39 68 -57 0 -5 -10 -8 -22 -8
-13 0 -38 -9 -56 -20 l-32 -20 6 38 c3 20 1 49 -5 65 -7 17 -7 27 -1 27 6 0
10 -4 10 -9z m142 -174 c9 -12 15 -24 13 -27 -2 -4 8 -5 23 -3 26 4 51 -15
133 -104 29 -31 60 -186 48 -246 -10 -57 -39 -115 -71 -143 -46 -39 -82 -39
-38 1 11 10 22 27 26 39 3 11 16 31 27 44 14 15 21 38 23 75 2 28 5 67 7 85 4
27 0 35 -22 47 -14 8 -36 25 -49 39 -20 22 -29 24 -80 20 -74 -7 -148 -23
-181 -40 -14 -8 -31 -14 -38 -14 -7 0 -29 -8 -50 -17 -36 -17 -48 -25 -95 -65
-12 -10 -26 -18 -33 -18 -6 0 -20 -26 -30 -57 -11 -32 -23 -64 -28 -70 -14
-19 0 -57 32 -89 16 -16 31 -36 33 -44 3 -14 41 -40 63 -44 6 -1 26 -13 45
-26 29 -21 47 -25 103 -25 62 0 66 -1 40 -12 -39 -17 -112 -16 -162 2 -49 17
-112 77 -165 157 -32 50 -37 63 -33 100 11 93 64 188 142 253 24 21 47 46 51
57 6 21 50 68 63 68 5 0 22 13 37 29 63 62 130 74 166 28z m430 -40 c21 -9 50
-28 65 -42 16 -14 40 -33 55 -42 36 -22 52 -83 44 -167 -5 -59 -27 -116 -45
-116 -3 0 -12 14 -20 31 -17 39 -68 86 -135 124 -99 56 -156 106 -156 135 0
11 -7 23 -15 26 -8 4 -15 12 -15 19 0 7 -7 18 -15 25 -8 7 -15 17 -15 22 0 16
209 3 252 -15z m-817 -27 c13 -14 22 -17 29 -10 13 13 56 13 56 0 0 -6 -12
-20 -27 -33 -15 -12 -46 -39 -70 -61 -38 -34 -48 -38 -95 -39 -29 0 -63 -4
-76 -8 -20 -8 -21 -6 -13 9 6 10 16 24 24 31 8 6 20 32 27 56 7 25 18 44 24
44 11 -2 30 4 71 21 29 12 30 12 50 -10z m-671 -90 c39 -59 66 -89 110 -121
21 -16 37 -29 35 -29 -2 0 -53 -3 -113 -7 l-109 -6 16 24 c10 14 17 43 17 70
0 43 9 109 15 109 1 0 14 -18 29 -40z m1144 -103 c8 -9 8 -20 -2 -39 -15 -28
-5 -58 19 -58 26 0 10 -59 -24 -90 -3 -3 -22 -25 -41 -50 -63 -82 -113 -112
-180 -111 -23 1 -37 7 -126 55 -17 9 -43 33 -58 55 -23 33 -25 42 -16 67 24
63 101 116 222 154 101 31 189 38 206 17z m327 -102 c22 -19 42 -35 46 -35 3
0 18 -24 34 -52 15 -29 40 -73 56 -98 15 -25 29 -61 31 -80 2 -19 6 -38 10
-41 5 -3 11 -39 14 -80 6 -68 4 -80 -20 -132 -19 -39 -47 -74 -92 -113 -35
-31 -67 -55 -69 -52 -5 4 7 20 69 88 66 73 84 106 91 163 7 52 5 61 -16 83
-12 13 -31 24 -42 24 -23 0 -123 -45 -132 -60 -12 -19 -61 -39 -75 -30 -9 6
-17 37 -21 87 -5 49 -17 99 -32 134 -16 36 -22 60 -16 66 11 11 30 119 31 173
l0 36 47 -23 c25 -12 64 -38 86 -58z m-899 63 c-1 -7 -4 -17 -8 -23 -8 -14
-29 -119 -30 -155 -1 -19 -7 -32 -19 -35 -18 -6 -84 29 -108 59 -7 9 -25 16
-39 16 -14 0 -34 8 -44 17 -18 16 -17 18 25 58 36 34 58 45 113 57 87 20 113
21 110 6z m-322 -98 c-4 -36 -1 -44 32 -78 20 -20 41 -38 47 -38 7 -1 19 -2
28 -3 8 0 28 -14 45 -29 37 -36 80 -53 141 -58 27 -2 50 -3 53 -4 3 0 -1 -4
-8 -9 -8 -4 -35 -4 -60 1 -26 5 -80 13 -121 18 -83 11 -126 33 -187 96 -35 36
-40 48 -36 76 5 40 20 61 38 54 7 -3 16 -1 19 4 11 18 14 10 9 -30z m-324 0
c3 -1 48 -2 100 -2 l95 0 0 -54 0 -54 70 -64 c69 -64 92 -78 150 -91 l30 -7
-24 -19 c-13 -10 -20 -19 -17 -19 7 0 -24 -61 -35 -70 -4 -3 -15 -23 -27 -45
-71 -141 -87 -167 -114 -181 -25 -13 -32 -12 -30 8 1 3 -6 12 -14 19 -13 10
-19 10 -36 0 -15 -9 -27 -10 -42 -3 -11 6 -55 26 -96 45 -89 41 -123 73 -146
135 -10 26 -21 52 -24 57 -11 16 -58 176 -63 216 -5 33 -2 40 34 69 39 31 55
38 92 39 10 1 16 5 13 10 -10 16 43 23 84 11z m1350 -209 c13 -31 16 -49 25
-156 4 -38 15 -84 25 -101 20 -36 37 -134 22 -134 -5 0 -16 8 -26 18 -13 15
-25 18 -61 12 -25 -4 -45 -5 -45 -2 0 3 -8 -2 -17 -10 -34 -28 -96 -59 -104
-51 -4 4 -10 58 -13 118 -2 61 -5 110 -6 110 -1 0 -4 13 -6 29 -2 16 -8 34
-13 39 -13 13 40 67 94 95 22 12 51 30 65 41 34 28 45 26 60 -8z m-596 -95
c57 -58 104 -76 196 -76 45 0 90 4 100 10 19 10 28 -1 36 -50 2 -14 7 -35 9
-48 9 -37 -3 -43 -47 -25 -33 13 -44 14 -61 4 -53 -34 -89 -51 -127 -61 -23
-6 -49 -17 -56 -23 -108 -90 -140 -176 -91 -248 21 -32 27 -34 96 -41 95 -10
103 -18 17 -18 -98 0 -178 43 -183 100 -4 41 -4 292 0 325 19 149 18 145 44
151 15 4 22 12 19 20 -9 24 12 15 48 -20z m-163 -2 c6 -3 5 -179 -1 -179 -1 0
-3 -43 -5 -95 -3 -52 -5 -99 -5 -105 -1 -5 2 -32 5 -58 4 -27 2 -54 -3 -60 -5
-7 -17 -36 -26 -65 -9 -30 -22 -60 -29 -68 -29 -36 -52 -54 -66 -54 -26 0
-111 49 -171 99 -32 25 -67 53 -80 61 -49 32 -60 48 -54 82 10 55 12 58 49 58
25 0 43 7 58 23 40 43 72 90 87 127 8 21 22 46 31 57 9 10 19 25 23 33 20 44
68 112 96 137 23 20 64 24 91 7z m1069 -90 c0 -22 -81 -136 -103 -143 -6 -2
-20 -12 -31 -23 -31 -28 -43 -22 -44 24 -1 23 -4 49 -7 58 -4 14 37 46 117 92
41 23 68 19 68 -8z m-636 -257 c-1 -52 -7 -99 -14 -113 -13 -24 -15 -24 -127
-20 -63 3 -118 8 -123 11 -19 12 -10 46 23 90 17 24 38 44 45 45 6 0 12 4 12
9 0 5 20 14 45 20 25 6 60 20 77 31 56 34 63 26 62 -73z m81 21 c-4 -47 -4
-48 -13 -48 -10 0 -15 68 -6 82 11 17 22 -2 19 -34z m-1004 -60 c8 -19 8 -32
0 -46 -6 -12 -11 -30 -11 -42 0 -22 35 -79 58 -93 7 -5 30 -26 52 -47 21 -21
45 -40 52 -43 17 -6 7 -17 -22 -22 -30 -6 -43 -19 -47 -47 -3 -20 -47 -96 -75
-128 -17 -19 -58 -80 -58 -85 0 -2 -12 -17 -26 -32 -15 -15 -37 -44 -49 -63
-12 -19 -30 -41 -39 -49 -9 -7 -16 -20 -16 -29 0 -8 -18 -38 -39 -66 -22 -28
-51 -67 -65 -86 -39 -53 -220 -324 -225 -335 -2 -5 -9 -15 -15 -22 -6 -7 -40
-53 -76 -104 -36 -50 -99 -132 -140 -181 -41 -50 -84 -102 -95 -117 -11 -14
-31 -38 -45 -54 l-25 -27 -75 25 c-40 14 -77 30 -80 35 -3 6 -20 21 -38 33
-50 37 -107 118 -122 170 -7 26 -17 50 -21 53 -17 10 -9 33 22 66 16 18 38 45
47 61 9 15 20 27 24 27 4 0 5 6 2 13 -2 7 13 32 35 55 22 23 38 42 35 42 -3 0
0 6 6 13 33 39 160 211 160 216 0 3 11 18 25 33 13 15 46 60 71 100 26 40 68
100 94 133 48 63 100 141 100 150 0 3 9 16 21 28 11 12 46 60 77 107 31 47 60
90 65 95 36 47 77 107 97 140 24 42 145 165 161 165 6 0 21 11 34 24 l24 24
65 -31 c45 -22 69 -40 77 -59z m1259 37 c9 -11 9 -26 -1 -69 -16 -74 -88 -156
-141 -162 -33 -4 -36 -2 -42 27 -5 25 -9 29 -27 24 -18 -6 -19 -4 -10 13 6 11
12 34 13 52 2 26 8 35 30 42 16 6 28 14 28 20 0 6 7 8 15 4 8 -3 15 -1 15 5 0
5 15 16 34 24 19 8 37 19 41 25 9 14 31 12 45 -5z m170 -4 c0 -11 -31 -24 -39
-16 -3 3 1 10 9 15 19 12 30 12 30 1z m-437 -103 l-11 -33 -1 45 c-1 33 2 41
11 32 8 -8 8 -20 1 -44z m324 -72 c-5 -53 -26 -97 -57 -124 -32 -28 -103 -53
-159 -57 -52 -4 -62 -2 -94 23 -42 31 -54 57 -37 77 17 20 49 19 56 -2 13 -43
21 -48 75 -48 53 0 55 1 127 72 41 39 71 76 67 82 -3 6 -1 11 5 11 6 0 8 5 5
10 -3 6 -1 10 6 10 8 0 10 -16 6 -54z m-2583 -1349 c9 -24 24 -52 34 -63 9
-11 33 -40 53 -66 47 -61 123 -124 176 -144 23 -9 44 -22 47 -29 7 -19 -31
-50 -46 -38 -7 6 -28 13 -46 16 -18 4 -48 18 -66 32 -18 14 -37 25 -43 25 -9
0 -53 45 -53 56 0 3 -12 19 -27 35 -16 17 -37 40 -47 51 -11 12 -27 42 -37 67
-16 43 -16 48 -1 74 23 38 37 34 56 -16z m-85 -119 c58 -101 210 -258 251
-258 6 0 10 -4 10 -9 0 -5 14 -14 30 -20 30 -10 31 -11 14 -36 -18 -28 -39
-33 -47 -11 -3 8 -20 17 -38 21 -40 9 -75 30 -125 76 -37 34 -110 128 -108
139 1 3 -3 16 -8 30 -14 36 -22 110 -12 110 5 0 20 -19 33 -42z m-79 -48 c0
-10 25 -69 59 -139 35 -74 220 -225 251 -206 20 12 9 -15 -12 -29 -16 -11 -26
-12 -41 -5 -10 6 -30 9 -42 7 -16 -4 -22 -1 -18 9 3 7 1 13 -5 13 -5 0 -25 12
-44 28 -20 15 -45 33 -56 41 -12 8 -32 36 -46 61 -14 26 -32 53 -40 60 -24 19
-39 78 -31 126 3 24 10 44 16 44 5 0 9 -5 9 -10z m270 -660 c0 -5 -5 -10 -11
-10 -5 0 -7 5 -4 10 3 6 8 10 11 10 2 0 4 -4 4 -10z m-3 -101 c3 -92 7 -119
26 -155 21 -40 31 -100 19 -108 -17 -11 -42 5 -59 38 -21 39 -27 191 -12 259
6 26 14 45 17 42 3 -3 7 -38 9 -76z"/>
<path d="M2160 4239 c0 -11 -8 -14 -29 -11 -41 6 -131 -37 -132 -63 -3 -58 4
-111 17 -129 8 -11 14 -28 14 -38 0 -10 4 -18 9 -18 5 0 13 -10 17 -22 8 -27
75 -118 87 -118 9 0 67 -61 67 -71 0 -4 14 -12 30 -19 17 -7 30 -16 30 -20 0
-12 59 -40 85 -40 25 0 78 49 100 93 41 82 24 191 -38 243 -18 15 -57 50 -88
78 -105 97 -128 116 -138 116 -6 0 -15 8 -20 18 -9 14 -10 15 -11 1z m34 -129
c39 -22 89 -56 112 -77 22 -21 53 -47 68 -58 32 -24 56 -65 56 -98 0 -12 -12
-42 -27 -65 -24 -37 -32 -42 -53 -37 -14 3 -30 13 -36 21 -6 7 -15 14 -19 14
-4 0 -28 19 -52 43 -102 97 -192 242 -172 279 15 27 44 22 123 -22z"/>
<path d="M3170 570 c0 -4 9 -10 20 -13 11 -3 20 -2 20 3 0 4 -9 10 -20 13 -11
3 -20 2 -20 -3z"/>
</g>
</svg>
