<?xml version="1.0" standalone="no"?>
<!DOCTYPE svg PUBLIC "-//W3C//DTD SVG 20010904//EN"
 "http://www.w3.org/TR/2001/REC-SVG-20010904/DTD/svg10.dtd">
<svg version="1.0" xmlns="http://www.w3.org/2000/svg"
 width="481.000000pt" height="437.000000pt" viewBox="0 0 481.000000 437.000000"
 preserveAspectRatio="xMidYMid meet">
<metadata>
Created by potrace 1.16, written by Peter Selinger 2001-2019
</metadata>
<g transform="translate(0.000000,437.000000) scale(0.100000,-0.100000)"
fill="#000000" stroke="none">
<path d="M3165 4188 c-87 -20 -88 -20 -189 -67 -54 -25 -92 -55 -177 -139 -60
-58 -112 -114 -115 -125 -3 -10 -23 -45 -45 -77 -21 -33 -39 -64 -39 -70 0 -5
-4 -10 -10 -10 -5 0 -10 -7 -10 -15 0 -8 -4 -15 -9 -15 -5 0 -11 -10 -14 -22
-2 -13 -17 -63 -32 -113 -15 -49 -28 -97 -30 -105 -2 -8 -8 -35 -15 -60 -11
-39 -8 -193 5 -325 7 -67 91 -340 114 -370 5 -5 11 -23 15 -39 4 -17 23 -64
43 -105 19 -42 37 -83 38 -91 2 -8 4 -15 5 -15 2 0 7 -18 21 -80 6 -27 15 -54
19 -60 4 -5 20 -46 34 -90 14 -44 31 -95 37 -113 11 -35 26 -237 24 -329 -1
-29 -7 -59 -14 -67 -7 -8 -14 -27 -17 -41 -11 -61 -39 -94 -130 -158 -65 -45
-116 -59 -213 -58 -114 1 -161 17 -223 77 -93 91 -188 191 -188 199 0 4 -10
18 -22 30 -31 30 -122 136 -161 187 -58 76 -177 295 -271 496 -16 34 -32 62
-36 62 -9 0 -60 79 -60 94 0 6 -10 21 -23 33 -12 11 -58 57 -102 101 -44 43
-90 82 -103 86 -12 4 -22 11 -22 15 0 16 -76 58 -145 81 -87 30 -185 33 -234
8 -19 -10 -41 -18 -50 -18 -17 0 -149 -80 -189 -115 -13 -11 -30 -36 -39 -55
-9 -19 -24 -46 -34 -60 -9 -14 -21 -41 -27 -60 -6 -19 -18 -54 -26 -78 -9 -23
-18 -61 -21 -85 -3 -24 -9 -56 -13 -73 -13 -48 -14 -176 -2 -224 6 -25 11 -67
11 -95 0 -27 4 -79 10 -115 11 -69 13 -84 25 -225 10 -113 11 -288 3 -340 -27
-164 -76 -330 -124 -418 -18 -34 -36 -73 -40 -87 -4 -14 -16 -44 -26 -67 -10
-23 -19 -59 -18 -80 0 -21 -2 -62 -4 -91 -4 -38 0 -63 13 -90 11 -20 24 -52
31 -70 6 -18 29 -51 50 -75 22 -23 39 -46 39 -51 0 -13 64 -70 108 -97 94 -56
227 -80 327 -59 32 7 66 16 74 21 9 4 30 11 46 14 51 11 144 117 194 220 24
50 49 97 56 105 16 19 43 94 50 140 6 38 9 47 18 70 14 31 9 345 -7 450 -2 19
-8 81 -11 138 -4 57 -10 126 -14 153 -7 40 -5 52 6 56 31 12 71 -71 87 -177
16 -108 42 -190 72 -230 7 -8 25 -39 40 -68 16 -29 34 -63 41 -75 12 -23 106
-130 133 -153 126 -106 272 -204 304 -204 9 0 16 -4 16 -10 0 -8 22 -15 90
-25 14 -2 45 -8 70 -14 201 -44 378 -53 531 -29 116 19 290 70 329 98 14 10
45 27 69 40 41 20 106 69 204 153 21 17 56 60 78 95 22 35 55 79 74 100 19 20
35 42 35 48 0 7 15 45 34 86 39 86 77 185 82 213 1 11 6 31 9 45 16 66 36 192
40 250 3 36 9 88 15 115 28 146 33 452 8 550 -5 22 -16 65 -23 95 -30 117 -38
147 -56 192 -11 26 -19 55 -19 66 0 11 -6 25 -14 31 -7 6 -16 25 -20 41 -3 17
-22 56 -42 87 -25 39 -37 70 -38 98 -1 22 -10 55 -20 74 -14 27 -17 47 -13 89
3 30 11 60 17 66 16 16 122 14 128 -1 2 -7 10 -13 17 -13 8 0 22 -13 31 -29
10 -16 28 -34 41 -40 12 -6 23 -15 23 -21 0 -20 195 -207 270 -260 41 -30 89
-66 105 -80 41 -38 104 -75 140 -84 16 -4 75 -7 131 -7 84 0 109 4 147 22 25
12 50 32 56 45 5 12 23 33 40 45 17 12 33 35 36 50 4 16 11 31 15 34 5 3 19
27 31 53 42 93 30 347 -23 481 -11 29 -148 201 -160 201 -4 0 -8 7 -8 15 0 8
-4 15 -10 15 -5 0 -25 15 -43 33 -32 30 -102 93 -223 199 -98 86 -250 194
-329 235 -89 45 -230 96 -315 113 -97 19 -266 18 -355 -2z m375 -90 c41 -11
83 -25 93 -30 10 -5 30 -12 45 -14 38 -7 126 -50 185 -89 28 -19 56 -35 60
-35 13 0 221 -168 295 -237 18 -18 35 -33 37 -33 2 0 122 -111 137 -127 101
-109 108 -119 104 -141 -2 -13 2 -42 8 -65 14 -48 12 -133 -3 -151 -6 -7 -14
-36 -19 -66 -5 -33 -20 -73 -38 -99 -16 -24 -35 -54 -42 -67 -7 -13 -17 -24
-23 -24 -5 0 -9 -5 -9 -10 0 -22 -38 -51 -74 -55 -20 -3 -52 -11 -71 -19 -40
-17 -71 -11 -78 15 -7 25 -41 24 -66 -2 l-20 -21 -61 37 c-72 43 -223 191
-263 255 -16 25 -38 50 -50 55 -12 6 -35 29 -52 51 -31 44 -47 53 -105 63 -21
4 -35 12 -36 21 0 8 -4 27 -8 41 -4 15 -4 46 1 70 7 34 5 48 -6 61 -10 11 -14
36 -12 75 2 64 -34 193 -68 241 -10 15 -18 32 -17 37 2 19 -45 17 -59 -2 -15
-20 -8 -39 31 -86 12 -15 26 -47 30 -72 3 -25 11 -45 17 -45 17 0 1 -124 -21
-166 -32 -61 -71 -156 -76 -189 -3 -16 -8 -46 -11 -65 -5 -24 0 -56 13 -96 11
-33 23 -80 27 -104 8 -47 67 -184 84 -194 5 -3 21 -39 36 -79 82 -226 90 -251
100 -319 2 -15 9 -36 15 -47 10 -19 24 -83 36 -156 5 -36 5 -170 -1 -205 -6
-41 -14 -110 -20 -190 -10 -115 -32 -268 -50 -340 -9 -36 -18 -75 -21 -88 -2
-12 -15 -46 -28 -75 -12 -28 -31 -74 -41 -102 -17 -46 -78 -153 -94 -165 -4
-3 -23 -27 -41 -55 -19 -27 -45 -61 -60 -75 -31 -31 -144 -120 -152 -120 -3 0
-29 -15 -56 -34 -71 -47 -176 -85 -258 -93 -38 -3 -72 -10 -75 -15 -10 -15
-132 -33 -229 -33 -96 0 -258 19 -316 36 -17 5 -58 14 -90 19 -82 13 -208 80
-286 151 -37 32 -69 59 -73 59 -19 0 -173 190 -199 245 -10 22 -27 56 -37 76
-10 20 -21 52 -23 70 -3 19 -5 34 -6 34 -1 0 -4 9 -13 45 -2 8 -7 38 -11 65
-4 28 -14 65 -23 84 -8 18 -13 46 -11 62 3 16 1 29 -4 29 -5 0 -6 5 -2 12 7
10 14 57 15 93 0 26 -14 111 -21 120 -4 6 -10 24 -14 40 -10 44 -49 114 -66
120 -32 10 -190 183 -190 207 0 10 -9 36 -20 58 -14 28 -18 50 -14 78 5 34 2
42 -15 52 -36 18 -55 -11 -58 -89 -4 -90 10 -124 76 -190 86 -85 117 -133 126
-196 1 -5 5 -17 9 -25 11 -27 1 -196 -13 -214 -7 -9 -11 -25 -8 -36 3 -11 1
-22 -3 -25 -4 -3 -6 -14 -3 -24 3 -10 0 -22 -6 -25 -7 -5 -6 -14 3 -29 28 -42
48 -144 61 -297 4 -41 11 -89 16 -106 5 -17 10 -69 10 -115 0 -46 1 -97 1
-114 2 -51 -24 -194 -43 -240 -7 -16 -13 -37 -14 -45 -3 -19 -72 -153 -102
-198 -77 -116 -164 -162 -307 -163 -72 -1 -206 35 -235 62 -11 11 -24 19 -29
19 -4 0 -21 14 -37 30 -25 26 -27 32 -15 40 19 12 27 12 35 0 3 -5 29 -22 58
-37 45 -24 62 -27 134 -25 165 3 292 76 247 141 -17 24 -40 18 -67 -16 -10
-13 -24 -23 -31 -23 -7 0 -26 -7 -42 -15 -49 -24 -142 -21 -201 6 -29 13 -54
31 -56 41 -4 12 -15 18 -35 18 -39 0 -106 54 -139 111 -37 66 -29 116 43 279
14 30 29 63 34 73 6 9 14 25 19 35 17 29 53 163 47 169 -3 3 -2 11 3 17 5 6
14 40 21 76 6 36 15 82 19 102 6 26 5 38 -3 39 -6 0 -7 2 -1 5 20 8 -4 473
-27 534 -5 14 -12 59 -14 100 -5 83 -9 116 -22 176 -7 31 -3 73 16 170 26 139
30 153 70 229 49 96 110 149 234 201 132 55 243 39 387 -58 96 -65 232 -199
261 -258 13 -25 35 -58 50 -75 15 -16 36 -52 46 -80 10 -27 28 -68 40 -90 51
-95 64 -120 64 -131 0 -6 16 -33 35 -60 19 -27 35 -55 35 -62 0 -12 79 -131
111 -168 11 -11 19 -25 19 -30 0 -5 14 -20 31 -34 17 -14 55 -58 86 -97 30
-40 60 -73 67 -73 6 0 19 -18 28 -39 10 -22 28 -50 40 -64 44 -48 53 -61 50
-78 -1 -9 4 -22 13 -29 8 -7 15 -17 15 -22 0 -5 9 -18 19 -29 36 -39 35 -125
-2 -168 -34 -40 -55 -115 -52 -183 4 -84 21 -122 56 -126 33 -4 40 13 28 69
-6 24 -7 59 -4 79 6 33 49 93 74 101 6 2 37 27 69 54 42 36 68 70 93 120 33
66 37 70 77 77 56 9 158 73 213 133 96 105 112 164 109 390 -1 138 -5 164 -49
310 -12 39 -23 77 -25 85 -4 12 -32 98 -54 160 -8 23 -8 23 -17 55 -4 17 -21
62 -37 100 -16 39 -33 79 -37 90 -5 11 -20 45 -34 75 -15 30 -29 69 -31 85 -3
17 -15 55 -27 85 -35 93 -47 171 -52 355 -2 106 69 341 133 435 9 14 30 45 46
70 16 25 32 47 37 48 4 2 7 8 7 13 0 34 252 239 292 239 8 0 34 7 59 15 110
37 312 39 439 3z m1052 -1032 c3 -96 1 -106 -26 -160 -16 -32 -38 -63 -48 -69
-10 -7 -18 -16 -18 -21 0 -19 -73 -76 -106 -82 -56 -10 -196 1 -234 19 l-35
17 42 -6 c30 -4 52 0 82 15 22 12 50 21 62 21 12 0 37 17 58 39 20 21 44 41
54 44 9 4 23 19 30 34 6 15 20 35 29 43 10 8 19 24 21 35 1 11 11 33 22 49 21
32 25 43 31 101 12 111 33 66 36 -79z m-2254 -1872 c-9 -9 -21 -13 -27 -9 -16
10 -3 25 22 25 20 0 20 -1 5 -16z"/>
</g>
</svg>
