<?xml version="1.0" standalone="no"?>
<!DOCTYPE svg PUBLIC "-//W3C//DTD SVG 20010904//EN"
 "http://www.w3.org/TR/2001/REC-SVG-20010904/DTD/svg10.dtd">
<svg version="1.0" xmlns="http://www.w3.org/2000/svg"
 width="471.000000pt" height="481.000000pt" viewBox="0 0 471.000000 481.000000"
 preserveAspectRatio="xMidYMid meet">
<metadata>
Created by potrace 1.16, written by Peter Selinger 2001-2019
</metadata>
<g transform="translate(0.000000,481.000000) scale(0.100000,-0.100000)"
fill="#000000" stroke="none">
<path d="M1285 4684 c-38 -6 -97 -17 -130 -23 -33 -6 -91 -16 -130 -23 -91
-15 -105 -22 -105 -58 0 -16 -5 -41 -11 -57 -6 -15 -18 -63 -25 -107 -8 -43
-19 -87 -25 -98 -35 -65 -26 -900 11 -1078 6 -25 12 -66 15 -91 6 -61 61 -272
79 -307 18 -35 39 -136 39 -189 0 -37 -6 -49 -44 -87 -25 -24 -60 -75 -79
-113 -18 -37 -40 -72 -47 -76 -7 -4 -13 -14 -13 -21 0 -7 -9 -25 -20 -39 -11
-14 -21 -33 -23 -43 -1 -11 -15 -44 -29 -74 -22 -46 -47 -113 -54 -142 -1 -5
-2 -9 -3 -10 -13 -18 -79 -291 -117 -483 -38 -192 2 -471 87 -616 22 -36 39
-69 39 -75 0 -17 80 -174 89 -174 5 0 11 -10 15 -22 3 -13 33 -53 68 -90 56
-59 78 -74 193 -129 l130 -63 180 1 c210 0 394 21 527 59 100 29 248 93 274
118 8 9 20 16 26 16 5 0 7 7 4 16 -3 8 -2 12 4 9 6 -3 20 1 32 9 12 9 29 16
38 16 9 0 25 14 35 32 11 17 30 48 42 67 13 20 26 43 30 51 3 8 12 19 20 23 7
4 13 13 13 20 0 7 6 23 13 37 8 14 18 39 25 55 6 17 20 55 31 85 12 30 21 64
21 75 1 11 8 38 16 60 8 22 17 61 19 86 3 26 9 59 15 74 11 29 14 264 4 335
-4 25 -10 92 -13 150 -5 73 -13 119 -27 150 -12 25 -24 62 -28 82 -4 21 -13
43 -20 50 -16 17 -106 198 -106 215 0 7 -4 13 -10 13 -5 0 -12 17 -16 38 -4
20 -15 54 -26 75 -11 22 -14 37 -7 37 6 0 13 -8 15 -18 3 -9 28 -33 57 -52 45
-31 54 -43 72 -97 11 -34 35 -79 53 -100 56 -66 96 -123 86 -123 -3 0 -2 -6 3
-12 6 -7 20 -42 32 -77 12 -35 31 -81 42 -104 12 -22 23 -49 25 -61 10 -55 13
-66 22 -83 5 -10 12 -42 16 -70 4 -29 15 -73 26 -98 11 -25 17 -45 14 -45 -2
0 0 -10 7 -21 6 -12 13 -36 16 -53 19 -130 73 -287 113 -326 3 -3 14 -22 25
-44 22 -43 70 -91 129 -131 21 -14 58 -45 83 -69 49 -48 57 -52 158 -91 39
-15 77 -32 85 -39 14 -11 49 -27 128 -56 29 -11 57 -39 103 -99 8 -11 47 -31
85 -44 59 -20 74 -29 106 -72 36 -48 87 -84 120 -85 9 0 28 -11 42 -25 14 -14
28 -25 31 -25 4 0 18 -9 32 -20 14 -11 33 -20 42 -20 10 0 41 -21 71 -46 34
-29 60 -44 72 -41 10 3 18 1 18 -5 0 -6 13 -8 33 -4 29 5 35 3 47 -18 15 -29
46 -42 117 -51 76 -10 111 0 111 31 0 33 -10 37 -94 39 -67 2 -76 5 -103 33
-26 25 -38 30 -68 27 -43 -4 -86 16 -125 57 -30 33 -93 62 -111 52 -7 -4 -8
-3 -4 1 8 9 -88 75 -109 75 -6 0 -43 31 -81 68 -55 55 -82 73 -134 91 -49 18
-70 31 -86 56 -30 46 -77 78 -151 104 -35 13 -79 33 -98 46 -20 13 -60 31 -90
40 -41 12 -70 30 -119 76 -35 34 -85 74 -110 90 -25 16 -50 40 -57 54 -6 14
-15 25 -20 25 -4 0 -8 6 -8 13 0 7 -15 36 -34 64 -19 29 -37 67 -41 85 -4 18
-11 38 -15 43 -5 6 -11 31 -15 58 -4 26 -11 50 -16 53 -5 3 -7 10 -3 15 8 14
-15 106 -38 153 -11 21 -21 48 -24 60 -23 123 -38 185 -50 206 -28 52 -63 137
-84 201 -11 36 -30 76 -40 87 -11 12 -20 25 -20 31 0 5 -13 23 -30 41 -16 18
-30 34 -30 37 0 3 -9 16 -20 30 -11 14 -20 36 -20 49 0 13 -4 24 -9 24 -5 0
-12 11 -15 24 -5 22 -54 79 -74 88 -4 1 -18 18 -31 36 -21 29 -21 32 -4 32 10
0 54 -20 97 -44 43 -25 94 -50 114 -57 37 -12 136 -67 182 -101 23 -18 82 -73
282 -266 84 -80 83 -76 36 -140 -21 -29 -14 -69 18 -99 14 -13 22 -28 19 -33
-3 -6 -2 -10 4 -10 6 0 20 -19 32 -41 11 -23 51 -72 88 -109 37 -37 78 -85 91
-106 24 -39 58 -78 160 -183 61 -62 73 -65 136 -25 62 38 174 138 174 154 0
21 -34 79 -43 73 -6 -3 -7 -1 -3 6 8 12 -34 102 -62 133 -8 10 -24 35 -36 57
-28 51 -96 152 -117 171 -23 21 -70 106 -62 113 3 4 0 14 -7 22 -26 31 -44 34
-84 14 -22 -10 -46 -19 -53 -19 -8 0 -24 -7 -36 -14 -45 -30 -81 -28 -118 5
-19 17 -49 43 -68 58 -19 14 -55 47 -80 73 -25 27 -49 48 -53 48 -4 0 -43 36
-87 80 -78 78 -182 153 -251 180 -19 7 -64 29 -100 48 -125 67 -155 81 -197
92 -24 6 -42 14 -41 18 1 4 -4 17 -11 30 -12 22 -14 22 -36 8 -13 -9 -26 -12
-28 -8 -11 20 -6 95 9 129 8 21 17 54 19 73 2 19 4 35 6 35 1 0 3 9 4 20 2 11
13 56 24 100 27 103 52 216 53 235 0 8 6 44 13 80 53 261 59 323 70 657 4 130
2 229 -5 280 -6 43 -12 123 -14 178 -3 112 -10 135 -37 135 -10 0 -65 15 -121
34 -279 91 -271 90 -598 91 -191 1 -320 -3 -365 -11z m178 -78 c10 -8 18 -17
17 -20 -1 -4 1 -33 5 -66 4 -33 5 -61 3 -63 -1 -2 3 -11 10 -19 11 -13 9 -17
-12 -22 -59 -15 -82 -91 -77 -261 3 -120 17 -163 71 -217 24 -24 29 -39 35
-103 7 -70 5 -102 -9 -210 -3 -22 -8 -65 -12 -95 -3 -30 -8 -61 -10 -70 -2 -8
-8 -33 -13 -55 -6 -22 -11 -57 -11 -77 0 -20 -4 -39 -9 -43 -6 -3 -9 -13 -9
-23 2 -32 -22 -135 -35 -156 -8 -12 -13 -29 -11 -38 1 -12 -4 -18 -17 -18 -10
0 -19 3 -20 8 -2 17 -8 41 -27 107 -11 39 -23 95 -25 125 -3 30 -10 78 -15
105 -6 28 -11 88 -12 135 -1 47 -3 110 -6 140 -14 166 -21 521 -11 537 4 7 3
14 -2 17 -12 8 -12 81 -1 133 5 22 12 65 16 95 3 29 15 73 25 97 10 24 17 47
14 51 -13 21 121 26 148 6z m337 4 c11 -7 14 -24 13 -60 -3 -74 -16 -91 -66
-90 -23 0 -70 -2 -104 -6 -48 -5 -65 -3 -77 9 -8 8 -12 17 -9 21 3 3 1 11 -5
18 -5 7 -13 30 -17 51 -12 61 0 67 134 67 64 0 123 -5 131 -10z m209 -20 c19
-5 26 -14 29 -41 2 -18 8 -39 13 -45 5 -6 8 -27 8 -45 -1 -19 1 -81 6 -139 11
-146 8 -505 -4 -576 -15 -87 -20 -123 -26 -194 -3 -36 -10 -101 -16 -145 -5
-44 -12 -100 -15 -125 -11 -100 -37 -190 -56 -190 -4 0 -13 12 -20 28 -6 15
-17 42 -25 60 -8 18 -16 61 -19 95 -2 34 -7 78 -11 97 -4 19 -8 67 -9 105 -2
39 -9 120 -16 180 -12 95 -12 118 1 173 14 59 18 65 52 78 41 17 56 51 71 159
27 198 -6 361 -78 387 -34 12 -35 19 -19 103 11 56 11 57 62 49 26 -4 59 -10
72 -14z m-778 -1 c15 -7 18 -16 13 -32 -4 -12 -8 -33 -10 -47 -1 -14 -3 -25
-4 -25 -2 0 -6 -27 -16 -100 -14 -103 0 -725 23 -965 3 -36 7 -78 8 -95 4 -51
25 -163 36 -192 14 -37 38 -156 34 -164 -3 -3 11 -18 29 -33 32 -25 34 -30 36
-99 4 -112 2 -139 -12 -153 -10 -10 -38 -10 -143 1 -71 8 -133 15 -137 15 -8
0 -58 103 -64 134 -3 11 -7 30 -8 41 -2 11 -11 36 -19 55 -14 32 -14 37 1 53
14 16 14 21 2 40 -9 14 -14 54 -15 110 -1 49 -6 92 -12 98 -8 8 -10 62 -7 173
3 88 7 253 9 366 6 296 11 357 39 484 9 39 17 80 19 91 2 11 8 30 15 41 6 12
14 36 17 55 3 18 13 41 21 50 7 8 14 20 14 25 0 13 48 56 80 71 32 15 28 15
51 2z m-185 -56 c-26 -47 -50 -120 -72 -223 -2 -14 -7 -32 -9 -40 -3 -8 -7
-35 -10 -59 -3 -24 -8 -49 -12 -54 -4 -6 -8 -42 -10 -81 -12 -235 -16 -286
-22 -286 -19 1 -27 20 -26 65 1 28 -1 76 -5 107 -3 31 -2 66 2 77 4 13 3 21
-3 21 -6 0 -5 9 2 23 7 12 13 61 15 108 1 48 7 102 13 120 6 19 20 72 31 119
22 92 49 130 96 130 24 0 25 -1 10 -27z m1199 -16 c69 -26 70 -27 71 -63 1
-20 7 -39 13 -44 7 -4 15 -29 17 -56 2 -27 7 -65 10 -84 11 -58 12 -71 15
-190 2 -106 -1 -181 -17 -395 -7 -102 -8 -109 -45 -295 -55 -285 -67 -336 -95
-430 -14 -48 -29 -130 -26 -142 1 -5 -2 -8 -8 -8 -5 0 -10 -20 -10 -44 0 -25
-6 -51 -13 -58 -7 -7 -13 -17 -13 -23 1 -5 -10 -11 -24 -13 -14 -1 -58 -7 -98
-14 -43 -6 -77 -7 -82 -2 -10 10 -14 92 -11 208 2 65 6 79 20 83 22 6 46 47
71 118 21 61 55 299 45 315 -3 5 -2 10 3 10 4 0 8 12 9 28 0 15 3 47 7 72 3
25 11 88 16 140 6 52 13 109 16 125 3 17 6 76 7 133 1 56 4 102 7 102 6 0 3
255 -4 295 -3 17 -8 83 -11 149 l-5 118 32 -5 c18 -2 65 -16 103 -30z m-354
-158 c39 -39 43 -290 6 -350 -17 -28 -66 -39 -199 -46 -103 -5 -118 -4 -124
11 -3 9 -15 16 -26 16 -30 0 -58 19 -58 38 0 10 -5 23 -11 29 -11 11 -20 194
-11 239 4 20 16 32 51 47 67 30 93 33 230 34 106 0 126 -2 142 -18z m-195
-479 l94 0 0 -112 c0 -62 2 -135 5 -163 3 -27 7 -81 9 -120 3 -38 8 -97 12
-130 4 -33 9 -76 9 -95 1 -19 3 -37 4 -40 1 -3 4 -12 6 -20 10 -49 27 -100 35
-105 16 -10 12 -72 -6 -79 -22 -8 -331 -28 -379 -24 -30 2 -39 7 -36 18 2 8
10 40 18 70 8 30 16 64 18 75 2 11 4 22 6 25 3 7 4 17 13 90 4 36 16 101 26
145 11 44 22 118 26 165 3 47 8 88 11 93 2 4 5 55 5 113 1 86 4 104 15 99 8
-3 57 -5 109 -5z m-776 -110 c0 -5 -8 -10 -17 -10 -15 0 -16 2 -3 10 19 12 20
12 20 0z m-3 -46 c-9 -9 -28 6 -21 18 4 6 10 6 17 -1 6 -6 8 -13 4 -17z m0
-80 c-3 -3 -12 -4 -19 -1 -8 3 -5 6 6 6 11 1 17 -2 13 -5z m940 -764 c1 -25 3
-85 5 -135 l3 -90 -55 -8 c-64 -8 -341 1 -360 13 -20 12 -18 213 2 233 12 12
56 18 189 25 232 12 213 16 216 -38z m-509 -275 c8 -8 -150 -3 -183 5 -18 5
13 6 74 4 58 -2 107 -6 109 -9z m700 -25 c-10 -6 -25 -7 -40 -1 -20 9 -18 10
17 10 31 0 36 -2 23 -9z m-178 -10 c-20 -13 -123 -13 -115 0 3 6 34 10 68 10
44 0 58 -3 47 -10z m-754 -45 c4 -8 17 -15 29 -15 13 0 30 -7 39 -15 13 -13
17 -12 33 9 15 20 24 23 51 19 28 -5 37 -13 51 -47 18 -41 18 -68 5 -206 -3
-36 -7 -114 -9 -175 -2 -60 -6 -130 -9 -155 -9 -67 -27 -493 -25 -560 4 -125
-4 -173 -41 -243 -17 -31 -35 -59 -41 -62 -5 -4 -20 -31 -34 -61 -14 -30 -29
-54 -34 -54 -5 0 -14 -15 -20 -33 -6 -17 -22 -44 -36 -59 -14 -15 -25 -32 -25
-38 0 -5 -7 -10 -15 -10 -8 0 -22 -11 -31 -24 -16 -25 -44 -25 -44 -1 0 7 -7
18 -15 25 -9 7 -13 15 -11 18 3 2 -20 40 -51 83 -30 44 -61 99 -68 123 -7 24
-18 52 -23 62 -25 46 -42 189 -36 309 3 66 7 131 9 145 3 14 9 57 15 95 5 39
17 97 26 130 8 33 24 101 34 151 20 97 54 210 90 299 6 17 11 31 10 33 -1 2
20 46 82 164 30 58 67 107 81 108 4 0 10 -7 13 -15z m494 -13 c30 -5 60 -8 66
-5 7 2 34 -2 61 -10 27 -8 62 -13 76 -10 l27 5 1 -118 c1 -66 4 -195 7 -289 6
-172 7 -766 2 -841 -3 -37 3 -51 50 -115 78 -109 241 -309 250 -309 5 0 12
-10 16 -22 3 -13 13 -31 22 -40 8 -10 12 -18 7 -18 -4 0 -2 -7 5 -15 38 -45
-195 -165 -408 -210 -92 -19 -312 -23 -381 -7 -49 11 -198 76 -211 92 -3 3
-38 26 -78 50 -72 44 -85 62 -58 77 8 4 15 11 15 16 1 4 26 45 56 92 30 47 55
89 55 93 0 4 19 39 43 77 96 155 120 206 117 254 -4 76 -2 235 4 456 10 323
15 414 24 448 5 18 10 77 11 132 2 55 4 116 6 135 2 19 3 49 4 65 l1 31 78 -3
c42 -1 102 -6 132 -11z m599 -4 c-4 -21 13 -88 21 -88 8 0 18 -23 50 -125 13
-38 26 -72 30 -75 3 -3 19 -31 35 -63 15 -31 31 -60 36 -63 5 -3 9 -12 9 -20
0 -9 7 -22 15 -30 8 -8 19 -34 25 -57 6 -23 21 -69 34 -102 17 -45 23 -84 25
-154 1 -51 6 -114 11 -139 11 -62 3 -232 -16 -317 -9 -38 -18 -81 -20 -95 -5
-27 -40 -143 -54 -175 -4 -11 -14 -36 -21 -55 -7 -19 -29 -60 -49 -90 -20 -30
-39 -63 -43 -72 -6 -18 -27 -25 -27 -10 0 4 -19 28 -42 53 -24 25 -54 60 -68
78 -14 19 -32 41 -40 50 -9 9 -33 39 -55 66 -22 28 -43 55 -48 60 -48 60 -87
123 -88 139 -1 12 -3 156 -4 321 -2 165 -5 323 -8 350 -12 105 -15 540 -4 560
11 20 13 26 16 45 0 5 43 11 94 13 50 1 114 4 140 5 34 1 47 -2 46 -10z
m-1344 -280 c-18 -51 -37 -104 -43 -118 -10 -23 -55 -217 -53 -227 0 -2 -7
-22 -15 -45 -9 -24 -17 -54 -18 -68 -6 -62 -19 -146 -25 -155 -3 -5 -7 -41 -8
-80 0 -38 -4 -90 -7 -115 -7 -49 7 -228 23 -300 9 -40 37 -111 77 -195 9 -16
28 -48 44 -70 16 -22 39 -59 51 -82 31 -60 162 -185 223 -213 32 -15 126 -73
123 -76 -4 -5 -100 27 -107 35 -3 3 -41 22 -85 40 -44 19 -92 47 -107 62 -14
15 -33 31 -40 36 -8 4 -25 26 -38 48 -13 22 -27 42 -31 45 -9 6 -84 166 -94
199 -4 14 -20 42 -36 64 -16 22 -29 47 -29 56 0 9 -7 36 -16 61 -9 25 -18 74
-20 110 -4 73 -7 90 -15 105 -14 26 11 227 43 343 11 40 17 79 14 87 -3 8 -1
15 4 15 6 0 10 10 10 23 0 12 9 51 20 86 11 36 17 67 15 70 -3 2 -1 9 4 15 4
6 18 42 30 80 12 37 28 78 35 90 8 11 16 33 20 47 9 39 56 119 70 119 9 0 2
-29 -19 -92z m2564 -284 c11 -14 26 -39 33 -55 7 -16 16 -29 20 -29 5 0 8 -4
8 -9 0 -5 12 -22 28 -38 42 -45 59 -69 82 -114 22 -42 21 -60 -2 -42 -26 19
-56 13 -62 -14 -10 -37 1 -60 31 -66 30 -6 52 14 53 47 0 18 2 18 25 -4 14
-13 23 -25 21 -28 -2 -2 7 -25 20 -52 13 -26 24 -51 24 -54 0 -8 -88 -88 -120
-109 l-28 -17 -53 53 c-91 91 -139 147 -139 160 0 8 -34 47 -75 88 -41 41 -75
79 -75 86 0 6 -6 18 -13 25 -67 69 -65 160 3 137 23 -9 36 -6 72 14 45 25 94
45 115 46 6 1 21 -11 32 -25z"/>
<path d="M3437 1601 c-10 -47 2 -71 33 -71 22 0 30 6 39 31 13 39 14 42 1 34
-5 -3 -10 -2 -10 3 0 6 -13 15 -29 20 -27 9 -29 8 -34 -17z"/>
<path d="M3593 1538 c-23 -30 -23 -49 2 -74 13 -13 28 -24 32 -24 37 1 48 57
18 90 -21 23 -38 25 -52 8z"/>
</g>
</svg>
