<?xml version="1.0" standalone="no"?>
<!DOCTYPE svg PUBLIC "-//W3C//DTD SVG 20010904//EN"
 "http://www.w3.org/TR/2001/REC-SVG-20010904/DTD/svg10.dtd">
<svg version="1.0" xmlns="http://www.w3.org/2000/svg"
 width="481.000000pt" height="439.000000pt" viewBox="0 0 481.000000 439.000000"
 preserveAspectRatio="xMidYMid meet">
<metadata>
Created by potrace 1.16, written by Peter Selinger 2001-2019
</metadata>
<g transform="translate(0.000000,439.000000) scale(0.100000,-0.100000)"
fill="#000000" stroke="none">
<path d="M796 4148 c-50 -7 -82 -18 -113 -39 -50 -35 -48 -24 -44 -244 1 -55
0 -127 -2 -160 -2 -33 -5 -107 -7 -165 -1 -58 -5 -109 -8 -115 -3 -5 -7 -21
-9 -36 -4 -37 -67 -149 -135 -240 -86 -116 -163 -292 -176 -403 -9 -76 -8
-115 1 -241 4 -55 7 -206 6 -335 -3 -491 0 -1177 6 -1225 3 -27 8 -79 11 -115
6 -86 11 -112 30 -163 34 -91 48 -123 69 -152 11 -16 26 -42 33 -56 8 -14 26
-33 40 -41 15 -9 38 -26 51 -37 13 -12 31 -21 39 -21 9 0 45 -12 81 -26 68
-27 185 -45 325 -49 95 -2 141 6 266 46 52 17 112 32 134 34 36 4 76 28 76 46
0 5 14 31 31 59 17 27 28 54 24 60 -3 5 -2 10 2 10 5 0 9 8 10 18 1 9 7 49 14
87 22 131 25 559 5 835 -3 52 -8 190 -11 305 -13 510 -26 712 -46 699 -5 -3
-5 6 0 19 6 14 8 27 5 30 -3 2 -5 38 -5 78 -1 85 -36 356 -50 381 -5 9 -9 25
-10 35 -1 41 -78 162 -148 232 -58 58 -59 65 -63 303 -2 123 0 170 10 179 6 7
12 24 12 38 0 15 4 32 8 38 5 7 5 43 1 80 -5 51 -12 70 -29 83 -18 13 -20 23
-15 51 5 29 2 38 -19 58 -14 14 -26 29 -26 35 0 19 -49 36 -75 26 -13 -5 -26
-6 -29 -3 -10 11 -199 11 -270 1z m320 -95 c38 -50 -1 -63 -199 -67 -117 -3
-150 -1 -154 9 -2 8 -11 11 -18 9 -12 -5 -35 23 -35 43 0 18 69 36 160 42 112
7 225 -9 246 -36z m-375 -150 c31 -77 29 -123 -3 -99 -20 15 -37 126 -18 126
6 0 15 -12 21 -27z m385 4 c10 -28 6 -169 -5 -180 -18 -18 -41 43 -44 120 -4
76 -3 79 19 81 16 1 25 -5 30 -21z m-188 -49 c20 -50 26 -83 23 -135 -1 -27
-19 -30 -28 -5 -3 9 -12 24 -20 33 -20 23 -27 159 -9 159 8 0 23 -24 34 -52z
m-88 -59 c7 -39 10 -73 7 -76 -3 -2 -15 -2 -27 2 -18 6 -20 13 -19 73 1 37 4
70 6 75 10 18 22 -8 33 -74z m176 10 c2 -30 7 -66 10 -81 2 -16 0 -28 -6 -28
-9 0 -13 22 -13 73 0 9 -2 17 -6 17 -5 0 -6 55 -2 79 3 18 12 -16 17 -60z
m-306 -98 c0 -31 163 -92 250 -93 40 0 147 20 170 32 22 13 36 -59 32 -170 -6
-164 -4 -177 23 -220 14 -22 25 -42 25 -46 0 -3 10 -14 23 -24 35 -29 -8 -54
-61 -36 -16 5 -29 3 -42 -9 -17 -15 -19 -15 -24 3 -11 35 -34 47 -54 30 -28
-25 -72 -36 -168 -41 -29 -2 -58 -8 -65 -14 -16 -13 -68 -12 -66 1 2 11 -63
27 -122 29 -54 2 -61 22 -27 76 56 92 77 188 78 351 0 69 2 128 5 133 6 10 23
9 23 -2z m352 -613 c3 -25 40 -37 61 -20 7 5 26 8 44 6 18 -2 45 1 60 7 42 17
76 17 96 1 23 -20 48 -70 53 -107 3 -16 10 -44 15 -61 5 -18 12 -51 15 -75 3
-24 8 -47 11 -52 3 -5 7 -62 10 -127 l4 -118 -34 -21 c-46 -28 -174 -67 -262
-80 -192 -28 -238 -30 -390 -18 -215 16 -326 50 -339 101 -3 14 -16 26 -30 30
-27 7 -35 35 -30 104 9 106 40 221 80 295 8 15 13 27 10 27 -5 0 51 79 69 98
11 12 141 10 164 -2 22 -12 30 -12 51 -1 22 12 27 12 41 -6 15 -20 15 -20 39
-1 20 16 27 17 48 6 20 -10 32 -10 64 2 31 11 43 11 58 2 16 -10 24 -9 47 9
36 28 41 28 45 1z m392 -720 c10 -128 17 -288 21 -478 2 -102 7 -277 11 -390
4 -113 7 -250 7 -305 -1 -179 9 -156 -93 -204 -49 -23 -103 -44 -120 -47 -17
-4 -33 -11 -36 -15 -3 -5 -16 -9 -30 -9 -13 0 -24 -5 -24 -11 0 -6 -9 -8 -20
-4 -12 4 -26 3 -33 -2 -19 -15 -94 -34 -109 -28 -8 3 -32 -1 -53 -8 -25 -8
-93 -14 -182 -15 -115 -1 -153 2 -201 17 -86 28 -144 56 -165 81 -12 14 -26
20 -38 17 -10 -3 -22 -1 -25 5 -8 13 -17 874 -9 968 1 19 3 138 4 264 1 181 4
227 13 219 29 -21 127 -53 178 -58 30 -2 118 -11 196 -20 140 -14 212 -12 226
9 5 8 8 7 8 -2 0 -8 13 -12 42 -10 52 4 59 -13 29 -75 -11 -23 -24 -58 -27
-77 -8 -41 -37 -70 -70 -70 -27 0 -64 -15 -116 -47 -21 -13 -43 -23 -51 -23
-7 0 -38 -26 -68 -58 -58 -60 -83 -117 -59 -132 10 -6 10 -15 1 -41 -10 -29
-9 -36 6 -46 23 -18 24 -17 62 22 18 20 52 45 74 57 23 11 68 47 101 79 32 33
61 57 63 56 2 -2 -4 -23 -12 -47 -8 -23 -13 -46 -10 -50 7 -11 -65 -70 -85
-70 -8 0 -37 -20 -65 -45 -27 -25 -62 -53 -78 -62 -15 -10 -29 -24 -32 -33 -3
-8 -18 -31 -35 -50 -16 -19 -30 -40 -30 -46 0 -6 -7 -17 -15 -24 -8 -7 -12
-16 -10 -21 3 -4 0 -17 -7 -28 -11 -17 -10 -23 4 -38 14 -13 22 -14 42 -5 13
6 33 8 44 5 27 -7 115 22 175 58 26 16 49 29 52 29 11 0 -21 -67 -38 -80 -32
-23 -117 -109 -117 -118 0 -4 -11 -20 -25 -36 -14 -16 -25 -34 -25 -40 0 -6
-14 -37 -29 -69 -22 -43 -28 -67 -24 -95 3 -21 1 -54 -5 -73 -13 -48 0 -75 40
-84 18 -4 40 -9 48 -11 46 -12 119 -11 149 2 18 8 37 12 41 9 16 -10 107 105
124 158 28 87 32 160 10 214 -10 27 -17 53 -16 60 4 18 -45 118 -50 103 -2 -8
-9 -10 -16 -6 -11 7 -10 54 4 126 1 8 3 20 4 25 0 6 7 -3 14 -20 7 -16 27 -43
44 -60 17 -16 32 -35 32 -41 0 -18 43 -52 75 -60 17 -4 32 -10 35 -14 3 -4 24
-17 48 -29 55 -28 105 -22 98 12 -3 12 -7 47 -10 78 -3 31 -10 67 -15 80 -16
40 -145 169 -172 171 -13 1 -31 2 -40 3 -23 1 -79 60 -79 83 0 11 7 25 15 32
18 15 20 57 3 62 -6 2 -8 10 -4 16 5 9 20 2 49 -23 22 -19 46 -35 52 -35 6 0
18 -12 25 -26 19 -35 38 -43 104 -46 31 -1 56 -7 57 -13 0 -5 5 3 9 18 14 46
-11 87 -61 102 -13 4 -35 17 -47 29 -24 22 -75 119 -75 144 0 7 -13 27 -28 44
-29 31 -32 55 -11 81 7 8 14 23 16 33 2 11 12 35 21 56 18 37 30 43 108 54 20
3 70 19 110 34 39 16 77 29 84 29 7 1 13 -26 17 -71z m-354 -334 c0 -8 -4 -14
-10 -14 -5 0 -10 9 -10 21 0 11 5 17 10 14 6 -3 10 -13 10 -21z m-208 -21
c-25 -35 -69 -74 -104 -92 -15 -8 -37 -23 -48 -33 -18 -17 -21 -17 -26 -3 -8
19 73 113 88 104 2 -1 23 10 48 24 58 34 66 33 42 0z m28 -267 c0 -42 -28 -93
-75 -134 -75 -66 -186 -92 -169 -40 7 22 38 62 68 87 10 9 43 37 74 64 62 53
102 62 102 23z m216 -59 c12 -7 42 -35 67 -63 36 -40 47 -61 52 -97 4 -26 5
-47 2 -47 -2 0 -26 10 -53 21 -53 23 -104 65 -104 86 0 7 -4 13 -10 13 -13 0
-40 54 -40 80 0 16 6 20 33 20 17 -1 42 -6 53 -13z m-162 -320 c38 -80 39 -89
25 -167 -23 -129 -95 -189 -212 -176 -29 3 -57 6 -63 6 -15 0 -10 160 4 169
10 6 37 90 34 104 -2 5 2 6 7 3 5 -4 17 6 26 21 18 30 95 93 113 93 7 0 12 4
12 10 0 26 28 -7 54 -63z m521 -539 c-3 -98 -29 -240 -57 -306 -18 -42 -64
-80 -111 -93 -23 -6 -78 -22 -122 -35 -85 -25 -185 -42 -232 -38 -196 15 -253
25 -338 58 -73 28 -98 43 -135 83 -25 27 -47 58 -48 68 -2 11 -7 25 -12 30
-32 42 -79 284 -53 274 5 -2 34 -16 64 -31 106 -52 285 -91 263 -57 -4 8 -1 8
12 1 20 -10 157 -14 187 -6 10 3 14 10 10 17 -4 8 -2 8 9 -1 8 -7 22 -10 29
-8 8 3 41 7 74 10 33 3 78 12 100 20 22 8 54 17 70 20 57 10 101 23 125 36 21
11 142 55 161 59 4 0 5 -45 4 -101z"/>
<path d="M4109 2397 c-19 -5 -38 -12 -44 -17 -5 -4 -22 -10 -37 -14 -16 -3
-28 -11 -28 -16 0 -6 -6 -10 -14 -10 -8 0 -28 -14 -46 -30 -29 -28 -32 -34
-27 -73 19 -136 30 -194 44 -221 11 -21 12 -31 4 -34 -6 -2 -8 -8 -5 -13 9
-15 -24 -58 -54 -72 -36 -16 -82 -62 -82 -81 0 -9 -4 -25 -10 -36 -5 -11 -14
-29 -19 -39 -10 -19 -7 -572 4 -711 11 -140 16 -225 16 -289 0 -36 6 -73 14
-85 7 -12 24 -41 38 -66 17 -30 39 -53 69 -68 40 -21 52 -23 153 -18 61 3 126
10 145 16 19 5 52 10 73 10 41 0 143 43 196 84 19 14 42 26 50 26 17 1 61 33
61 45 0 3 12 22 26 41 15 19 24 34 20 34 -3 0 -1 12 5 27 20 53 12 328 -16
529 -8 56 -19 162 -25 235 -18 230 -20 246 -34 281 -18 42 -62 88 -99 100 -17
7 -29 19 -33 36 -10 49 -14 54 -33 49 -17 -4 -18 2 -18 67 1 39 -1 82 -5 96
-3 14 -2 34 2 45 5 14 -3 34 -26 70 -19 27 -34 56 -34 63 0 7 -5 10 -10 7 -6
-4 -23 5 -37 20 -24 23 -33 26 -89 23 -34 -1 -77 -6 -95 -11z m108 -87 c14
-11 39 -20 54 -20 24 0 29 -4 29 -25 0 -30 -37 -43 -71 -25 -18 10 -23 10 -31
-4 -13 -23 -42 -21 -35 3 3 15 0 17 -17 13 -11 -3 -30 -14 -41 -24 -14 -13
-31 -18 -60 -16 -34 3 -40 7 -43 28 -2 22 5 29 60 56 75 38 120 41 155 14z
m-197 -217 c0 -13 -4 -23 -10 -23 -5 0 -10 17 -10 38 0 27 3 33 10 22 5 -8 10
-25 10 -37z m194 10 c13 -21 20 -39 15 -41 -5 -2 -9 -10 -9 -17 0 -14 -27 -28
-40 -20 -12 7 -11 115 1 115 5 0 19 -17 33 -37z m-109 18 c3 -6 8 -28 11 -50
5 -32 3 -41 -9 -41 -11 0 -15 9 -13 33 1 17 -2 40 -6 50 -9 18 6 25 17 8z
m183 -46 c-1 -21 -7 -35 -15 -35 -11 0 -11 5 -3 20 6 10 10 23 9 27 -2 13 1
23 6 23 3 0 5 -16 3 -35z m68 -131 c3 -13 12 -24 20 -24 7 0 18 -9 24 -20 6
-11 15 -18 21 -15 5 4 9 -1 9 -9 0 -9 5 -16 10 -16 18 0 80 -44 80 -57 0 -18
-43 -44 -82 -49 -18 -3 -46 -10 -63 -15 -105 -36 -333 -44 -435 -15 -45 12
-59 19 -64 31 -5 15 48 66 94 90 17 9 30 19 30 24 0 5 13 23 28 40 27 31 31
33 118 36 49 3 104 8 122 12 64 15 82 13 88 -13z m184 -254 c0 -5 0 -11 -1
-12 0 -2 4 -15 10 -30 5 -14 11 -62 11 -105 1 -43 8 -116 16 -163 7 -47 18
-150 24 -230 9 -136 9 -146 -9 -160 -10 -9 -24 -27 -32 -41 -20 -37 -100 -106
-142 -124 -20 -8 -52 -15 -70 -15 -19 0 -48 -7 -65 -16 -72 -35 -280 -43 -337
-12 -21 11 -36 13 -47 7 -20 -11 -27 14 -33 131 -8 125 -8 130 -17 130 -5 0
-6 6 -1 13 4 6 6 73 4 147 -4 155 -5 249 -2 374 l3 88 26 -6 c70 -16 197 -33
240 -31 26 1 75 2 110 3 35 1 61 6 58 10 -3 5 8 7 23 4 16 -2 38 1 50 7 12 7
44 14 73 17 28 3 58 9 67 14 21 12 41 12 41 0z m50 -870 c0 -6 -5 -20 -12 -33
-6 -12 -14 -29 -18 -37 -4 -8 -24 -23 -46 -34 -21 -10 -41 -21 -44 -25 -13
-18 -57 -41 -77 -41 -12 0 -37 -9 -56 -20 -40 -24 -179 -44 -299 -45 -66 0
-80 3 -101 23 -26 25 -72 122 -57 122 4 0 10 -4 12 -9 4 -13 45 -20 152 -28
79 -5 90 -4 102 12 8 11 14 13 14 7 0 -18 57 -14 120 8 30 11 69 20 85 20 41
0 105 19 105 30 0 6 9 10 21 10 12 0 23 8 26 19 3 12 16 22 32 24 14 2 29 5
34 6 4 0 7 -4 7 -9z"/>
<path d="M4368 1592 c-10 -2 -18 -7 -18 -12 0 -4 -10 -6 -21 -3 -14 4 -25 0
-31 -11 -5 -9 -18 -16 -28 -16 -10 0 -22 -4 -25 -10 -3 -6 1 -7 9 -4 39 15 1
-60 -41 -83 -18 -10 -33 -21 -33 -26 0 -4 -4 -6 -9 -2 -5 3 -13 0 -16 -6 -8
-12 -56 -3 -66 13 -4 6 -29 12 -56 13 -42 1 -52 -3 -80 -31 -45 -44 -43 -75 7
-115 l40 -32 -18 -31 c-15 -25 -18 -57 -20 -166 -1 -97 -6 -136 -15 -141 -20
-12 -20 -75 0 -98 10 -12 21 -17 27 -12 6 5 45 11 88 14 70 5 156 35 166 60 2
4 10 7 19 7 8 0 39 25 69 56 46 47 56 53 68 41 8 -7 25 -13 38 -11 12 1 28 3
34 3 6 1 22 11 36 24 20 18 25 34 27 83 4 96 -22 133 -86 125 -27 -3 -27 -1
-8 62 18 59 20 196 3 213 -3 3 -4 22 -1 43 4 32 2 38 -18 47 -13 6 -32 8 -41
6z m-69 -191 c-19 -85 -72 -212 -100 -241 -16 -15 -29 -33 -29 -38 0 -9 -73
-74 -91 -80 -16 -6 -9 -49 11 -67 17 -15 24 -16 45 -7 14 6 25 17 25 24 0 8
18 35 40 62 22 26 50 66 62 87 12 21 25 39 30 39 4 0 8 10 8 23 0 12 9 39 20
60 11 20 20 44 20 54 0 26 34 123 44 123 4 0 5 -37 1 -82 -4 -46 -9 -97 -10
-113 -2 -35 -23 -105 -37 -121 -5 -7 -8 -16 -7 -20 4 -25 -5 -44 -41 -88 -22
-26 -40 -45 -40 -42 0 3 -17 -4 -37 -17 -44 -28 -89 -43 -154 -52 -44 -5 -46
-5 -44 17 1 13 3 25 4 28 1 3 2 62 2 131 l1 126 30 24 c43 34 68 61 68 73 0
10 72 66 84 66 4 0 28 16 54 35 26 19 48 35 48 35 1 0 -2 -18 -7 -39z m-245
-59 c-7 -26 -17 -28 -35 -6 -11 14 -10 18 6 30 23 17 36 6 29 -24z m407 -214
c3 -55 -11 -79 -35 -59 -11 9 -13 19 -6 37 5 13 7 24 4 24 -3 0 -2 5 1 10 11
18 35 10 36 -12z"/>
<path d="M3160 2371 c0 -4 -24 -11 -52 -14 -29 -3 -83 -19 -120 -37 -74 -35
-83 -50 -70 -121 6 -37 7 -232 1 -279 -1 -8 2 -26 5 -40 5 -19 1 -32 -15 -50
-34 -39 -70 -100 -75 -127 -10 -56 -21 -191 -18 -238 8 -171 16 -263 28 -323
7 -38 12 -83 10 -101 -3 -21 1 -34 11 -38 10 -3 12 -9 6 -17 -17 -22 -18 -294
-1 -381 12 -58 45 -95 112 -125 36 -16 60 -18 153 -14 118 4 134 6 150 16 6 4
37 5 69 3 51 -3 64 0 107 26 46 29 109 96 109 117 0 5 7 15 15 22 9 7 13 15
11 18 -3 2 8 18 23 34 23 25 30 43 35 97 3 36 9 80 11 96 9 51 2 302 -9 345
-4 14 -9 50 -11 80 -2 30 -6 66 -9 80 -2 14 -7 41 -10 60 -3 19 -8 46 -11 60
-3 14 -6 39 -6 55 -3 55 -32 129 -76 195 -25 36 -48 67 -52 70 -27 17 -54 117
-50 180 7 111 -4 179 -32 208 -13 14 -25 36 -26 50 -3 32 -28 50 -86 58 -26 4
-50 11 -53 15 -3 5 -9 7 -14 4 -4 -3 -13 2 -20 10 -13 16 -40 20 -40 6z m9
-99 c9 -15 54 -19 91 -7 21 7 60 -25 60 -49 0 -13 -91 -30 -153 -28 -15 1 -25
-3 -22 -8 3 -5 -17 -2 -45 6 -28 8 -58 14 -67 12 -21 -4 -37 47 -19 61 38 32
140 40 155 13z m199 -202 c-2 -34 -8 -55 -17 -58 -10 -3 -11 1 -5 19 5 13 8
43 8 67 -1 27 2 40 8 34 5 -5 8 -33 6 -62z m-363 52 c18 -12 37 -91 30 -123
-6 -24 -10 -28 -21 -18 -7 6 -16 27 -19 48 -3 20 -8 51 -11 69 -5 32 1 39 21
24z m220 -19 c3 -10 9 -43 12 -74 4 -48 2 -57 -13 -63 -24 -9 -29 -1 -42 74
-9 50 -9 66 1 72 20 13 34 9 42 -9z m-107 -52 c7 -16 14 -42 15 -58 2 -23 -2
-29 -23 -31 -25 -3 -25 -2 -22 58 2 33 7 60 10 60 4 0 13 -13 20 -29z m187
-10 c3 -5 1 -12 -5 -16 -5 -3 -10 1 -10 9 0 18 6 21 15 7z m88 -189 c4 -2 7
-10 7 -17 0 -7 16 -32 36 -56 l36 -43 -24 -18 c-38 -31 -86 -47 -151 -53 -163
-13 -267 -14 -318 -4 -29 6 -60 11 -66 12 -24 1 -13 36 25 76 21 23 42 38 47
34 4 -5 5 -3 1 4 -3 7 -2 32 5 56 l11 44 81 1 c106 0 238 12 257 23 11 6 19 0
30 -24 8 -18 18 -33 23 -35z m138 -219 c6 -16 12 -46 14 -69 5 -55 25 -176 30
-184 3 -4 7 -38 11 -76 3 -38 7 -75 9 -81 9 -27 5 -291 -4 -345 -17 -97 -35
-124 -99 -148 -31 -12 -86 -24 -122 -26 -36 -3 -90 -9 -120 -14 -100 -15 -221
-10 -265 10 -37 18 -41 18 -52 3 -11 -14 -13 17 -14 163 -1 198 -4 259 -18
319 -6 22 -13 90 -16 150 -4 61 -8 128 -10 150 -6 58 5 112 24 119 9 3 23 9
31 12 13 5 13 4 0 -5 -8 -6 -10 -11 -5 -12 6 -1 21 -3 35 -6 14 -2 85 -4 159
-3 l134 1 -6 -42 c-4 -31 -16 -53 -50 -88 -24 -25 -59 -66 -77 -91 -19 -25
-49 -62 -67 -83 -19 -21 -33 -48 -33 -63 0 -14 -6 -37 -13 -52 -30 -61 -23
-339 9 -372 10 -10 33 -15 74 -14 47 1 69 7 102 29 52 33 164 146 166 166 1 8
12 45 25 82 32 89 43 241 27 357 -7 47 -14 102 -15 124 -1 21 -8 42 -15 46 -8
5 1 12 26 20 22 7 53 21 69 31 40 24 44 23 56 -8z m-231 -171 c0 -4 -5 -23
-11 -42 -5 -19 -12 -46 -15 -59 -3 -13 -11 -38 -18 -55 -7 -17 -19 -56 -26
-86 -7 -30 -22 -68 -34 -85 -11 -16 -19 -31 -18 -33 2 -1 -5 -22 -16 -45 -11
-23 -27 -58 -36 -77 -19 -40 -64 -95 -72 -87 -7 7 -8 186 -1 217 17 74 38 131
54 149 10 11 23 26 28 33 9 12 34 41 118 140 31 36 47 46 47 30z m61 -187 c-1
-130 -2 -138 -31 -192 -17 -31 -30 -61 -30 -67 0 -18 -50 -75 -99 -112 -51
-39 -61 -42 -54 -14 3 11 8 20 12 20 3 0 12 15 19 33 7 17 24 56 38 84 14 29
23 57 19 63 -3 5 -2 10 3 10 5 0 14 12 20 28 24 65 61 190 67 227 7 40 23 70
33 60 3 -2 4 -66 3 -140z m119 -638 c0 -8 -10 -23 -23 -35 -22 -21 -23 -21
-35 -1 -12 19 -12 19 -34 -1 -12 -11 -27 -19 -32 -18 -6 1 -36 -6 -66 -16 -81
-28 -261 -28 -314 -1 -27 14 -42 29 -47 48 -7 24 -5 28 9 22 58 -23 185 -29
312 -15 41 5 104 12 140 15 35 3 66 8 69 10 9 10 21 5 21 -8z"/>
<path d="M2299 2315 c-3 -2 -44 -7 -91 -9 -104 -6 -123 -10 -215 -44 -64 -23
-72 -29 -77 -57 -9 -52 -7 -137 5 -200 6 -33 11 -67 10 -75 -1 -8 -3 -41 -4
-72 -2 -39 -10 -67 -24 -86 -63 -85 -91 -176 -92 -297 -1 -49 -2 -101 -4 -115
-1 -14 2 -108 7 -210 5 -102 10 -259 12 -350 2 -160 5 -186 24 -260 13 -47 76
-113 123 -129 58 -20 183 -39 238 -38 27 1 49 -1 49 -4 0 -8 84 -3 156 9 106
18 203 83 204 136 1 11 8 39 16 61 34 89 44 152 44 300 1 378 -15 573 -64 805
-8 33 -36 93 -50 105 -29 24 -64 82 -64 105 0 33 -19 80 -32 80 -7 0 -8 6 0
19 20 38 6 131 -23 152 -13 9 -11 21 5 30 10 7 9 9 -4 9 -12 0 -18 8 -18 24 0
18 -8 25 -32 32 -27 8 -34 15 -36 41 -2 22 -9 33 -25 37 -27 7 -32 7 -38 1z
m-25 -97 c-1 -10 7 -20 19 -24 16 -5 9 -10 -34 -25 -73 -26 -137 -30 -182 -10
-40 17 -49 44 -19 57 26 11 111 22 167 20 41 -1 50 -4 49 -18z m-260 -155 c-2
-21 -3 -54 -4 -73 l-2 -35 -9 30 c-6 17 -12 54 -14 83 -4 48 -2 51 14 43 13
-8 17 -20 15 -48z m376 25 c20 -32 22 -76 5 -121 -11 -26 -25 -20 -26 11 0 15
-4 53 -8 85 -4 31 -3 57 1 57 5 0 17 -15 28 -32z m-82 -81 c10 -47 16 -90 14
-96 -2 -6 -16 -11 -32 -11 -30 0 -33 7 -45 110 -3 25 -12 50 -21 56 -12 10 -8
13 23 21 21 5 39 9 41 7 2 -1 11 -40 20 -87z m-128 43 c-6 -11 -13 -20 -15
-20 -3 0 -5 9 -5 20 0 11 7 20 15 20 13 0 14 -4 5 -20z m6 -67 c4 -21 10 -43
15 -48 11 -15 -7 -43 -19 -30 -12 13 -22 115 -11 115 4 0 11 -17 15 -37z m-78
-31 c3 -31 2 -33 -17 -22 -27 14 -30 63 -3 58 11 -2 18 -14 20 -36z m339 -130
c12 -27 40 -66 62 -88 23 -21 41 -47 41 -59 0 -27 -64 -68 -96 -62 -13 2 -24
1 -24 -4 0 -9 -39 -17 -115 -24 -27 -3 -84 -11 -125 -19 -55 -11 -89 -12 -133
-5 -63 10 -117 33 -117 49 0 6 -9 10 -20 10 -11 0 -20 5 -20 12 0 12 80 141
90 146 3 1 4 18 2 37 -4 31 -1 35 19 36 13 1 28 1 32 0 5 -1 23 -3 40 -5 17
-2 36 -11 42 -19 8 -11 15 -13 29 -5 13 7 30 7 56 -2 45 -15 132 0 170 30 36
28 44 25 67 -28z m139 -339 c21 -134 33 -338 30 -539 -2 -155 -5 -184 -19
-198 -9 -10 -17 -21 -17 -26 0 -12 -92 -39 -117 -36 -10 2 -26 -1 -35 -5 -46
-24 -295 -26 -403 -3 -44 9 -92 18 -107 21 -29 6 -40 35 -26 73 8 22 9 22 22
4 19 -25 77 -24 138 1 41 17 53 30 93 96 25 42 45 84 45 94 0 9 7 32 16 51 9
19 14 43 11 54 -5 21 36 81 47 69 4 -3 9 -30 12 -60 9 -99 29 -128 95 -136 35
-5 42 -2 72 30 31 34 33 41 34 117 2 70 0 82 -17 93 -13 7 -20 23 -20 42 0 17
-5 36 -10 41 -6 6 -12 21 -15 33 -7 40 -16 61 -25 61 -4 0 1 18 11 40 31 64
35 98 13 115 -18 14 -18 14 6 15 41 2 63 8 104 30 22 11 42 18 44 16 2 -3 10
-44 18 -93z m-621 27 c6 -4 43 -13 83 -19 60 -9 84 -9 140 5 107 26 191 26
166 1 -3 -3 -7 -28 -9 -56 -2 -39 -8 -57 -28 -77 -33 -33 -102 -50 -133 -33
-15 8 -44 9 -87 5 -52 -6 -72 -13 -98 -37 -29 -26 -32 -33 -23 -56 5 -15 33
-47 63 -71 41 -33 60 -43 79 -39 14 3 31 3 38 0 17 -6 -15 -43 -37 -43 -10 0
-31 -11 -47 -25 -17 -14 -34 -25 -39 -25 -6 0 -30 -22 -54 -49 -67 -73 -78
-89 -71 -96 4 -3 0 -4 -8 0 -11 4 -15 24 -17 73 -1 68 -11 224 -17 275 -2 15
0 30 4 32 4 3 4 22 0 44 -6 36 -5 94 5 146 2 11 4 30 4 43 1 21 4 22 39 16 20
-4 42 -10 47 -14z m207 -244 c19 -8 45 -12 56 -9 42 10 22 -15 -31 -41 -68
-33 -76 -33 -117 4 -38 34 -33 46 20 53 19 2 36 5 36 5 1 1 17 -5 36 -12z
m207 -38 c11 -11 18 -25 15 -30 -3 -5 2 -20 11 -35 20 -29 22 -117 4 -139 -17
-21 -57 -17 -69 7 -6 11 -10 57 -9 102 3 123 10 137 48 95z m-250 -250 c-27
-90 -93 -154 -152 -146 l-26 3 22 50 c12 28 35 61 51 75 32 28 108 72 114 66
2 -2 -2 -24 -9 -48z m451 -353 c0 -11 -45 -91 -67 -118 -22 -28 -94 -56 -143
-55 -14 0 -50 -1 -82 -2 -120 -3 -274 22 -321 53 -12 8 -32 34 -44 58 -28 55
-24 56 102 38 110 -15 378 -13 425 4 8 3 35 8 59 11 24 3 46 8 49 11 7 7 22 6
22 0z"/>
</g>
</svg>
