<?xml version="1.0" standalone="no"?>
<!DOCTYPE svg PUBLIC "-//W3C//DTD SVG 20010904//EN"
 "http://www.w3.org/TR/2001/REC-SVG-20010904/DTD/svg10.dtd">
<svg version="1.0" xmlns="http://www.w3.org/2000/svg"
 width="557.000000pt" height="445.000000pt" viewBox="0 0 557.000000 445.000000"
 preserveAspectRatio="xMidYMid meet">
<metadata>
Created by potrace 1.16, written by Peter Selinger 2001-2019
</metadata>
<g transform="translate(0.000000,445.000000) scale(0.100000,-0.100000)"
fill="#000000" stroke="none">
<path d="M3258 4225 c-1 -1 -140 -5 -308 -9 -186 -4 -342 -12 -400 -21 -52 -8
-167 -24 -255 -35 -225 -28 -334 -53 -417 -96 -15 -8 -38 -14 -51 -14 -14 0
-30 -7 -37 -15 -7 -8 -18 -15 -26 -15 -7 0 -29 -13 -47 -30 -19 -16 -39 -30
-45 -30 -5 0 -12 -6 -15 -12 -2 -7 -42 -32 -89 -56 -88 -45 -188 -124 -188
-148 0 -8 -4 -14 -9 -14 -7 0 -40 -52 -115 -180 -24 -41 -56 -161 -60 -222 -4
-63 7 -133 34 -218 6 -19 15 -60 20 -90 4 -30 17 -93 28 -140 44 -186 72 -316
72 -330 0 -8 7 -28 15 -43 8 -16 26 -63 40 -105 76 -235 138 -385 176 -426 5
-6 9 -18 9 -27 0 -9 13 -30 28 -47 15 -16 26 -34 25 -39 -2 -5 10 -28 27 -51
16 -23 30 -48 30 -56 0 -7 7 -19 15 -26 8 -7 33 -45 55 -84 22 -40 52 -86 67
-102 15 -17 57 -63 93 -103 36 -41 88 -97 115 -126 28 -29 65 -69 83 -89 18
-20 50 -47 71 -61 22 -13 42 -28 45 -34 3 -5 27 -20 54 -32 26 -13 70 -37 98
-55 96 -61 115 -66 279 -65 83 1 175 6 205 11 30 5 91 14 135 20 144 18 333
67 418 108 58 28 135 62 182 81 76 31 187 98 246 148 19 16 48 37 64 48 50 31
185 156 248 230 84 99 90 107 111 148 11 21 34 55 53 76 18 22 33 43 33 49 0
5 14 29 32 53 46 64 194 306 219 359 34 72 54 114 66 135 23 43 73 162 73 176
0 8 8 28 18 44 9 17 27 55 39 85 33 87 36 95 38 100 1 3 7 23 13 45 7 22 27
70 46 107 19 36 32 69 29 72 -4 3 -1 6 5 6 7 0 12 6 12 13 0 7 14 27 30 45 23
26 30 42 30 76 0 23 -4 46 -9 51 -5 6 -14 69 -20 140 -13 137 -31 231 -56 291
-8 20 -15 49 -15 65 0 15 -4 31 -10 34 -5 3 -17 23 -27 43 -25 52 -101 127
-145 141 -20 7 -42 19 -48 27 -7 7 -19 14 -26 14 -8 0 -14 5 -14 10 0 6 -6 10
-13 10 -7 0 -33 13 -58 28 -82 51 -190 81 -389 107 -58 8 -152 22 -210 31 -79
13 -182 18 -412 20 -168 1 -308 1 -310 -1z m732 -91 c96 -14 207 -30 245 -34
163 -20 243 -44 312 -96 17 -13 38 -24 46 -24 8 0 30 -11 49 -24 20 -13 51
-29 69 -35 52 -18 102 -84 132 -176 58 -177 62 -193 76 -366 9 -112 0 -191
-25 -220 -8 -8 -14 -22 -14 -30 0 -8 -16 -37 -36 -64 -19 -28 -44 -69 -55 -93
-12 -25 -35 -52 -59 -68 -21 -14 -41 -32 -44 -39 -2 -7 -24 -16 -48 -20 -77
-12 -122 -28 -186 -67 -35 -21 -87 -45 -115 -54 -29 -10 -77 -25 -107 -35 -30
-10 -98 -25 -150 -35 -52 -9 -106 -22 -120 -29 -14 -7 -72 -16 -130 -20 -58
-4 -113 -12 -124 -17 -26 -14 -52 -16 -276 -26 -271 -12 -746 -9 -855 6 -148
20 -298 55 -480 112 -55 17 -125 37 -156 45 -60 13 -121 31 -154 44 -85 35
-132 60 -164 91 -70 67 -171 141 -182 134 -7 -4 -9 -3 -6 3 3 5 -14 29 -38 53
-25 24 -45 50 -45 57 0 6 -8 17 -17 23 -13 8 -14 13 -5 16 18 8 15 25 -15 69
-23 34 -27 50 -28 129 -3 93 16 168 50 202 7 8 24 34 36 59 13 25 36 60 51 77
15 17 28 36 28 42 0 6 17 22 38 36 20 14 41 30 45 37 4 7 13 13 20 13 21 0
110 50 167 95 59 45 150 95 174 95 8 0 27 6 43 14 68 35 247 74 383 83 41 3
113 11 160 19 145 25 299 33 770 40 250 3 456 7 458 9 6 5 108 -6 282 -31z
m-2580 -1200 c41 -31 84 -65 95 -74 11 -10 40 -36 65 -58 58 -51 166 -98 307
-132 61 -16 116 -31 121 -34 4 -3 19 -7 33 -10 13 -3 40 -10 59 -15 19 -6 76
-22 125 -36 172 -49 265 -66 450 -82 59 -5 775 -4 845 1 137 11 199 20 227 32
18 8 52 14 75 13 64 -2 159 12 190 27 15 8 43 14 63 14 20 0 48 6 63 14 15 7
49 16 76 20 27 3 54 10 60 15 6 5 37 14 69 21 65 13 120 36 188 80 25 17 80
38 121 49 41 10 87 26 102 36 14 10 30 15 34 11 3 -4 1 -10 -5 -14 -6 -4 -14
-24 -18 -45 -4 -20 -11 -37 -16 -37 -5 0 -9 -7 -9 -15 0 -8 -10 -36 -21 -62
-12 -27 -27 -61 -34 -78 -7 -16 -29 -64 -50 -105 -20 -41 -43 -94 -51 -118 -8
-24 -28 -62 -43 -85 -29 -43 -75 -118 -100 -166 -8 -14 -19 -31 -25 -37 -7 -6
-27 -37 -46 -68 -31 -51 -121 -179 -150 -213 -5 -7 -10 -16 -10 -20 0 -11 -65
-88 -130 -153 -64 -64 -170 -153 -240 -200 -12 -8 -39 -28 -59 -44 -20 -16
-74 -46 -121 -68 -47 -21 -104 -48 -126 -59 -23 -11 -48 -21 -55 -23 -30 -5
-59 -18 -59 -26 0 -4 -30 -16 -67 -25 -38 -9 -86 -24 -108 -32 -44 -16 -157
-38 -250 -48 -33 -3 -89 -10 -125 -16 -36 -6 -103 -7 -150 -4 -47 3 -106 2
-132 -3 -26 -5 -45 -5 -42 -1 3 5 -2 9 -10 9 -19 0 -87 35 -96 50 -3 5 -18 11
-33 12 -15 1 -27 6 -27 10 0 5 -18 15 -40 24 -22 9 -40 19 -40 23 0 4 -21 23
-47 41 -52 37 -70 54 -183 180 -91 102 -150 160 -162 160 -4 0 -8 7 -8 15 0 8
-8 23 -18 33 -10 10 -24 32 -31 50 -7 18 -16 32 -20 32 -4 0 -23 27 -42 60
-18 33 -37 60 -41 60 -5 0 -8 8 -8 18 -1 9 -14 32 -30 51 -16 19 -27 38 -25
42 3 4 -6 21 -20 37 -14 16 -25 34 -25 38 0 10 -64 139 -78 157 -4 7 -14 36
-21 65 -7 29 -20 68 -29 85 -9 18 -18 42 -19 54 -2 12 -21 68 -42 125 -21 58
-42 124 -46 149 -3 24 -15 76 -25 114 -10 39 -21 96 -25 127 -3 32 -11 60 -16
63 -11 7 -12 45 -1 45 4 0 41 -25 82 -56z"/>
<path d="M3185 4119 c-66 -4 -183 -8 -260 -9 -77 -1 -176 -6 -220 -11 -170
-17 -343 -41 -410 -55 -38 -8 -104 -22 -145 -29 -41 -8 -110 -28 -153 -45 -43
-16 -86 -30 -95 -30 -9 -1 -44 -16 -77 -34 -47 -26 -61 -39 -63 -59 -4 -32 -9
-33 -35 -9 -15 12 -21 14 -24 5 -3 -7 -10 -13 -16 -13 -7 0 -24 -11 -39 -25
-15 -14 -31 -25 -36 -25 -5 0 -50 -40 -100 -88 -126 -123 -157 -195 -156 -363
1 -96 4 -111 31 -170 17 -35 43 -77 58 -94 91 -100 134 -140 165 -153 19 -8
57 -31 83 -52 45 -37 92 -55 232 -93 114 -31 187 -47 216 -47 16 0 48 -4 71
-10 52 -11 213 -37 288 -45 30 -4 64 -8 75 -9 27 -5 192 -16 290 -21 44 -2
145 -8 225 -14 139 -9 202 -9 355 4 88 8 126 13 198 26 32 5 79 9 105 8 43 -1
153 14 170 24 4 3 61 12 127 22 139 19 285 57 335 87 31 18 78 45 145 83 60
33 95 58 95 66 0 5 6 9 13 9 18 0 184 161 190 185 8 29 35 144 42 184 12 58 7
204 -9 260 -20 70 -94 181 -122 181 -7 0 -28 14 -46 31 -18 17 -46 37 -63 46
-16 9 -35 22 -43 29 -7 8 -18 14 -24 14 -5 0 -8 7 -4 15 4 12 0 14 -18 9 -16
-4 -25 -1 -29 10 -4 9 -15 16 -25 16 -11 0 -43 13 -73 28 -30 16 -83 38 -119
50 -36 12 -87 28 -115 37 -27 9 -79 20 -115 25 -36 5 -109 15 -162 24 -54 8
-189 18 -300 21 -112 3 -223 7 -248 9 -25 1 -99 -1 -165 -5z m565 -73 c41 -4
100 -11 130 -16 30 -6 98 -16 150 -22 169 -19 374 -99 545 -213 49 -33 138
-117 136 -129 -3 -19 2 -27 29 -41 42 -22 51 -51 56 -183 7 -174 -27 -279
-115 -357 -19 -16 -44 -39 -55 -51 -26 -25 -161 -114 -174 -114 -5 0 -35 -17
-68 -38 -32 -20 -86 -46 -119 -56 -33 -10 -78 -25 -100 -32 -22 -7 -69 -15
-105 -18 -36 -3 -112 -14 -169 -26 -57 -11 -143 -23 -190 -26 -47 -3 -102 -10
-121 -15 -57 -17 -422 -23 -535 -10 -55 6 -162 14 -237 16 -75 3 -187 12 -250
21 -62 8 -138 17 -168 20 -30 3 -71 10 -90 15 -19 5 -49 9 -66 9 -18 0 -76 12
-130 26 -55 14 -139 35 -189 45 -74 16 -102 28 -159 67 -38 26 -80 52 -92 57
-38 16 -103 76 -154 140 -60 76 -85 158 -76 255 7 81 6 77 37 160 5 14 25 43
45 64 19 21 38 44 42 51 13 21 122 105 137 105 8 0 15 4 15 9 0 14 205 115
290 143 225 75 600 133 930 143 107 3 197 8 199 11 6 6 523 -3 621 -10z"/>
<path d="M4520 1254 c-35 -6 -150 -34 -180 -45 -14 -4 -36 -11 -50 -13 -14 -3
-50 -11 -80 -19 -30 -8 -91 -22 -135 -32 -44 -10 -84 -21 -90 -25 -5 -4 -50
-17 -100 -30 -49 -13 -101 -29 -115 -36 -41 -20 -91 -74 -121 -129 -6 -11 -27
-32 -46 -47 -20 -16 -30 -28 -23 -28 9 0 10 -3 1 -14 -35 -42 -147 -10 -176
50 -17 36 -26 37 -93 13 -13 -5 -36 -9 -51 -9 -15 0 -50 -11 -77 -25 -27 -14
-53 -25 -59 -25 -5 -1 -26 -14 -45 -30 -19 -17 -41 -30 -50 -30 -9 0 -20 -4
-25 -9 -11 -10 -75 -26 -190 -46 -83 -15 -124 -13 -238 11 -38 8 -85 12 -105
8 -48 -8 -151 -43 -178 -60 -11 -8 -59 -27 -107 -44 -90 -31 -182 -40 -262
-25 -53 10 -116 46 -110 63 4 11 -26 12 -159 8 l-164 -5 -45 -33 c-24 -18 -54
-47 -66 -65 -27 -38 -47 -156 -36 -210 5 -21 9 -42 9 -48 1 -14 69 -114 75
-112 3 1 31 -10 61 -24 59 -28 140 -51 140 -39 0 4 11 5 24 3 24 -5 86 16 86
28 0 3 26 14 58 23 31 10 87 31 123 47 92 41 141 47 308 42 109 -3 162 -10
211 -25 82 -26 186 -34 245 -19 25 6 67 26 93 45 41 29 112 60 217 95 17 5 71
15 122 21 84 10 97 10 165 -11 57 -17 88 -20 145 -16 86 6 109 18 118 57 4 16
11 30 16 30 5 0 9 9 9 20 0 10 9 24 20 30 11 6 20 9 21 8 0 -2 2 -12 4 -22 2
-11 13 -31 25 -45 11 -14 26 -36 32 -49 6 -12 38 -39 71 -59 50 -30 64 -35 86
-27 14 6 41 7 59 3 17 -3 32 -3 32 1 0 5 31 8 69 8 38 0 80 6 93 13 12 7 34
14 48 15 14 2 61 10 105 18 44 9 103 20 130 25 49 9 162 36 280 67 115 31 190
57 217 75 14 11 29 19 32 19 17 0 136 111 136 127 0 7 5 13 10 13 6 0 10 8 10
18 0 10 4 22 10 28 5 5 12 43 16 84 3 41 7 81 9 88 3 6 1 12 -4 12 -4 0 -16
18 -26 40 -10 23 -24 44 -31 48 -6 4 -20 22 -31 41 -10 19 -28 39 -38 45 -11
6 -44 29 -75 52 -30 23 -68 48 -85 56 -53 27 -196 43 -275 32z m195 -105 c125
-36 193 -77 215 -129 7 -17 16 -30 19 -30 4 0 17 -17 29 -39 16 -28 22 -56 22
-98 0 -90 -38 -151 -119 -190 -8 -3 -23 -15 -33 -25 -10 -10 -24 -18 -32 -18
-7 0 -19 -7 -26 -15 -7 -8 -22 -15 -34 -15 -12 0 -26 -4 -31 -9 -22 -20 -297
-92 -405 -106 -30 -4 -84 -15 -120 -25 -76 -22 -208 -45 -215 -38 -3 3 9 36
26 74 34 75 41 144 17 186 -7 13 -11 26 -10 31 1 4 -1 7 -5 7 -5 0 -8 15 -7
32 1 32 -23 105 -53 161 -8 15 -11 27 -7 27 12 0 -49 50 -68 56 -10 3 -18 9
-18 14 0 9 63 30 91 30 8 0 19 4 25 9 10 10 115 39 184 51 25 5 99 23 165 40
200 53 259 56 390 19z m-880 -230 c4 -5 17 -14 30 -19 17 -6 25 -20 30 -49 4
-23 10 -43 15 -46 5 -3 11 -24 15 -48 4 -23 14 -53 23 -67 9 -14 15 -29 14
-33 -1 -4 4 -20 11 -35 16 -32 12 -58 -14 -91 -11 -13 -19 -32 -19 -42 0 -11
-3 -19 -7 -19 -5 0 -25 -16 -46 -35 -21 -19 -46 -35 -56 -35 -33 0 -86 45
-113 98 l-28 52 46 0 c33 0 51 -5 59 -17 11 -14 15 -15 28 -4 9 7 21 10 27 6
6 -4 10 9 10 34 0 23 -3 41 -7 42 -107 13 -217 16 -265 6 -15 -3 -37 -15 -49
-26 -13 -12 -27 -21 -32 -21 -18 0 -46 -45 -41 -66 11 -43 -94 -55 -166 -20
-14 7 -54 14 -90 15 -63 2 -80 -1 -226 -33 -75 -17 -205 -72 -253 -107 -47
-35 -144 -43 -236 -20 -27 6 -68 16 -90 21 -54 12 -303 12 -388 0 -38 -6 -75
-16 -83 -24 -16 -17 -69 -30 -83 -21 -10 6 -9 12 4 50 10 27 12 80 5 138 -7
48 -6 48 19 41 97 -26 230 -14 334 30 21 9 53 17 72 18 24 1 42 10 59 29 34
38 115 54 188 39 29 -7 97 -14 150 -17 153 -8 352 41 438 107 39 30 120 60
159 60 32 0 88 -19 121 -41 69 -44 185 -52 271 -19 29 12 59 19 68 18 17 -4
51 32 51 54 0 7 -7 23 -15 36 l-16 22 -37 -20 c-20 -11 -40 -20 -44 -20 -32 0
34 77 70 83 53 8 81 7 87 -4z m-2109 -319 c19 0 53 -75 59 -131 11 -91 -26
-199 -67 -199 -9 0 -4 96 8 172 4 24 0 47 -11 68 -9 18 -14 34 -12 37 3 2 -3
13 -14 24 -26 26 -24 43 4 35 12 -3 27 -6 33 -6z m-119 -50 c32 -23 52 -91 46
-158 -8 -99 -15 -115 -58 -135 -38 -19 -39 -19 -87 4 -26 12 -48 25 -48 29 0
8 67 37 121 53 32 9 45 19 52 40 8 25 5 32 -27 63 -20 19 -35 38 -35 42 4 27
-4 43 -28 49 -16 4 -34 6 -40 5 -22 -5 -14 14 9 25 26 11 64 4 95 -17z m-120
-15 c1 -5 -14 -30 -35 -54 -33 -39 -38 -41 -36 -20 1 13 4 32 8 42 3 9 8 24
11 33 5 17 46 16 52 -1z"/>
</g>
</svg>
