<?xml version="1.0" standalone="no"?>
<!DOCTYPE svg PUBLIC "-//W3C//DTD SVG 20010904//EN"
 "http://www.w3.org/TR/2001/REC-SVG-20010904/DTD/svg10.dtd">
<svg version="1.0" xmlns="http://www.w3.org/2000/svg"
 width="553.000000pt" height="463.000000pt" viewBox="0 0 553.000000 463.000000"
 preserveAspectRatio="xMidYMid meet">
<metadata>
Created by potrace 1.16, written by Peter Selinger 2001-2019
</metadata>
<g transform="translate(0.000000,463.000000) scale(0.100000,-0.100000)"
fill="#000000" stroke="none">
<path d="M4027 4372 c-18 -2 -27 -9 -25 -19 3 -15 -11 -27 -44 -37 -10 -3 -18
-13 -18 -22 0 -9 -11 -25 -25 -36 -14 -11 -25 -25 -25 -32 0 -15 -103 -121
-181 -186 -29 -25 -149 -140 -266 -255 -116 -116 -242 -238 -280 -270 -98 -87
-142 -133 -191 -198 -53 -71 -74 -127 -71 -192 3 -95 -24 -146 -132 -252 -35
-34 -85 -85 -112 -113 -26 -27 -52 -50 -57 -50 -6 0 -10 -6 -10 -13 0 -7 -19
-31 -43 -53 -23 -21 -65 -66 -92 -99 -95 -113 -201 -223 -257 -265 -11 -8 -32
-27 -48 -41 -56 -53 -94 -69 -159 -69 -47 0 -77 -7 -128 -30 -36 -16 -71 -30
-77 -30 -25 0 -122 -93 -191 -184 -25 -32 -59 -73 -76 -90 -17 -17 -40 -44
-52 -60 -12 -16 -39 -45 -61 -65 -21 -20 -116 -113 -210 -206 -94 -94 -209
-204 -255 -245 -46 -41 -87 -79 -92 -85 -42 -48 -79 -99 -79 -109 0 -7 -8 -22
-18 -34 -42 -50 -49 -59 -57 -77 -4 -11 -7 -24 -6 -28 1 -4 3 -29 6 -55 3 -26
7 -58 9 -72 3 -14 8 -42 11 -62 16 -117 49 -208 95 -264 14 -17 41 -50 60 -73
52 -64 146 -134 230 -173 64 -29 85 -34 145 -33 95 1 154 29 226 105 32 33 62
60 68 60 6 0 11 4 11 9 0 9 203 216 430 438 69 67 182 181 251 255 118 125
150 160 210 232 13 16 40 47 60 68 39 40 78 90 118 148 20 29 24 48 25 110 l0
75 78 80 c43 44 86 87 95 95 9 8 37 33 61 55 116 104 355 350 479 493 16 18
38 38 49 45 12 7 33 20 48 31 25 18 29 18 85 2 59 -17 113 -13 141 8 8 7 26
18 40 24 14 7 36 29 50 48 14 19 34 45 45 57 108 123 158 177 205 221 61 57
175 173 377 385 204 212 263 271 272 271 15 0 21 31 10 52 -8 15 -7 24 6 38
11 12 13 20 6 25 -8 4 -6 12 5 22 36 36 -12 195 -95 319 -17 25 -31 51 -31 59
0 8 -9 20 -20 27 -11 7 -20 17 -20 23 -1 9 -62 82 -122 144 -13 13 -50 42 -83
64 -33 22 -62 43 -65 46 -24 28 -130 61 -130 41 0 -5 -6 -7 -12 -5 -23 8 -62
11 -91 7z m70 -138 c-3 -3 -12 -4 -19 -1 -8 3 -5 6 6 6 11 1 17 -2 13 -5z m82
-16 c-19 -36 -52 -78 -61 -78 -17 0 -6 29 25 63 36 41 54 48 36 15z m-168 -10
c1 -13 0 -33 -1 -45 0 -12 11 -40 25 -63 22 -34 24 -44 13 -57 -10 -13 -9 -18
11 -34 13 -11 29 -19 35 -19 7 0 25 -21 42 -47 16 -26 51 -70 79 -97 94 -96
108 -115 96 -130 -6 -7 -8 -16 -5 -19 4 -3 -23 -35 -60 -71 -36 -36 -66 -69
-66 -75 0 -5 -29 -38 -66 -73 -36 -34 -84 -83 -107 -107 -23 -24 -66 -68 -94
-97 -29 -30 -53 -57 -53 -61 0 -3 -24 -32 -52 -63 -63 -69 -146 -162 -183
-208 -19 -23 -33 -31 -46 -27 -14 5 -19 1 -19 -14 0 -11 -8 -26 -18 -33 -22
-16 -52 -78 -48 -98 7 -35 31 -71 53 -76 17 -5 32 2 58 25 20 17 40 31 45 31
12 0 120 109 157 157 15 21 55 65 88 99 33 33 83 86 110 118 28 31 82 89 120
129 39 41 86 94 105 118 54 68 54 69 70 87 9 9 27 34 40 54 14 21 28 38 32 38
12 0 58 54 58 67 0 7 9 13 20 13 11 0 20 -4 20 -10 0 -5 12 -13 28 -16 15 -4
34 -13 42 -20 8 -7 27 -17 43 -23 34 -13 34 -23 0 -53 -16 -13 -46 -46 -68
-73 -66 -82 -97 -115 -112 -115 -7 0 -13 -5 -13 -10 0 -11 -159 -179 -288
-304 -155 -150 -313 -310 -335 -339 -69 -90 -132 -122 -190 -98 -18 8 -48 16
-67 19 -19 2 -39 11 -43 18 -5 8 -38 30 -75 48 -71 36 -144 101 -227 201 -28
33 -52 62 -55 65 -38 37 -95 119 -108 157 -10 26 -23 57 -29 67 -18 32 6 91
66 161 14 16 68 70 120 120 52 49 142 139 200 199 135 139 261 264 299 296 17
14 52 43 78 65 111 93 171 151 202 197 36 53 71 65 73 26z m328 -14 c85 -62
252 -276 268 -344 3 -14 10 -31 16 -38 5 -7 12 -43 15 -81 4 -64 3 -70 -18
-81 -18 -10 -32 -10 -63 0 -45 13 -139 74 -130 84 4 3 -1 6 -11 6 -9 0 -27 10
-40 23 -13 12 -32 29 -42 38 -11 9 -32 31 -48 50 -16 19 -48 55 -70 81 -92
104 -92 106 -25 194 81 106 90 110 148 68z m31 -549 c0 -3 -18 -28 -39 -55
-22 -28 -43 -59 -46 -70 -4 -11 -10 -20 -14 -20 -4 0 -24 -24 -46 -52 -21 -29
-52 -67 -69 -84 -36 -36 -197 -210 -306 -332 -133 -147 -205 -218 -227 -224
-17 -5 -20 -2 -15 11 8 23 34 62 57 86 33 35 199 230 245 290 14 17 46 49 72
71 26 21 47 44 47 51 1 6 13 21 29 33 48 38 106 95 137 136 65 85 175 185 175
159z m-1370 -683 c14 -20 32 -44 40 -52 8 -8 33 -37 55 -65 57 -72 225 -234
260 -251 17 -8 39 -22 50 -30 20 -15 20 -16 -7 -39 -16 -13 -34 -28 -40 -32
-7 -4 -51 -51 -98 -103 -47 -52 -129 -139 -182 -194 -54 -55 -98 -104 -98
-108 0 -4 -3 -8 -8 -8 -10 0 -103 -84 -231 -209 -58 -58 -122 -116 -142 -130
-21 -16 -34 -32 -31 -41 4 -12 1 -12 -14 2 -10 9 -32 22 -49 28 -60 23 -200
126 -269 199 -39 41 -90 95 -114 120 l-43 45 36 31 c19 18 51 40 70 51 19 10
38 26 40 35 3 10 17 24 30 33 27 18 138 131 163 167 9 13 24 31 34 39 9 8 33
35 54 60 20 25 114 125 208 223 94 98 175 187 180 197 5 11 13 20 18 20 5 0
13 11 18 25 14 36 41 31 70 -13z m-969 -909 c24 -21 61 -58 84 -81 118 -128
229 -232 248 -232 4 0 13 -5 20 -10 19 -17 181 -120 188 -120 4 0 9 -6 12 -14
10 -24 -28 -89 -95 -161 -35 -39 -74 -83 -86 -99 -89 -117 -408 -450 -559
-585 -21 -18 -84 -78 -140 -132 -55 -55 -106 -99 -112 -99 -6 0 -11 -4 -11
-10 0 -5 -9 -10 -19 -10 -11 0 -30 -15 -43 -32 -57 -81 -110 -132 -163 -157
-48 -24 -115 -37 -115 -24 0 5 39 45 87 89 89 80 199 192 284 287 26 29 61 68
79 87 17 19 44 51 58 70 40 52 100 118 163 180 63 62 179 197 179 210 0 4 23
36 51 71 59 73 83 122 74 150 -5 15 -16 19 -51 19 -49 0 -74 -20 -234 -185
-135 -140 -170 -178 -170 -186 0 -10 -93 -110 -235 -254 -55 -56 -118 -122
-140 -146 -23 -24 -67 -66 -98 -93 -32 -27 -90 -83 -130 -124 -87 -89 -119
-106 -162 -84 -55 27 -163 153 -182 213 -20 63 -42 163 -37 171 2 3 -1 19 -7
35 -21 51 -20 115 1 135 11 10 23 18 28 18 5 0 9 6 10 13 4 49 13 72 48 114
21 26 46 54 56 61 10 7 18 19 18 25 1 7 21 28 46 47 71 55 467 460 594 607
142 164 160 180 236 218 60 29 81 35 98 27 16 -7 26 -5 40 9 27 26 37 24 87
-18z m99 -693 c0 -5 -7 -10 -16 -10 -8 0 -12 5 -9 10 3 6 10 10 16 10 5 0 9
-4 9 -10z m-82 -112 c-35 -50 -96 -123 -136 -162 -62 -60 -139 -148 -202 -230
-8 -11 -29 -33 -46 -50 -17 -17 -38 -44 -48 -59 -10 -16 -31 -36 -47 -45 -16
-10 -29 -21 -29 -26 0 -5 -27 -36 -60 -68 -33 -33 -60 -62 -60 -66 0 -4 -15
-17 -33 -29 -38 -27 -111 -92 -184 -164 -43 -44 -55 -51 -77 -45 -14 3 -26 10
-26 15 0 5 19 27 41 48 23 21 51 49 63 63 25 29 77 81 171 172 108 102 302
306 450 472 118 132 257 266 278 266 4 0 -21 -41 -55 -92z"/>
</g>
</svg>
