<?xml version="1.0" standalone="no"?>
<!DOCTYPE svg PUBLIC "-//W3C//DTD SVG 20010904//EN"
 "http://www.w3.org/TR/2001/REC-SVG-20010904/DTD/svg10.dtd">
<svg version="1.0" xmlns="http://www.w3.org/2000/svg"
 width="547.000000pt" height="451.000000pt" viewBox="0 0 547.000000 451.000000"
 preserveAspectRatio="xMidYMid meet">
<metadata>
Created by potrace 1.16, written by Peter Selinger 2001-2019
</metadata>
<g transform="translate(0.000000,451.000000) scale(0.100000,-0.100000)"
fill="#000000" stroke="none">
<path d="M4108 4332 c-10 -2 -18 -11 -18 -21 0 -9 -5 -22 -11 -28 -7 -7 -13
-49 -15 -95 -3 -80 -4 -84 -36 -111 -18 -15 -64 -37 -103 -48 -38 -11 -106
-34 -150 -51 -61 -23 -101 -31 -168 -34 -60 -3 -86 -1 -82 7 4 5 2 23 -5 39
-10 25 -17 29 -42 26 -33 -4 -73 -38 -95 -81 -8 -16 -25 -40 -36 -52 -11 -13
-17 -23 -13 -23 4 0 -3 -10 -14 -22 -12 -13 -28 -34 -37 -48 -8 -14 -29 -32
-46 -41 -18 -8 -75 -39 -128 -67 -53 -29 -104 -52 -113 -52 -9 0 -16 -4 -16
-8 0 -4 -8 -8 -17 -9 -10 -1 -36 -6 -58 -12 -121 -33 -224 -17 -270 43 -14 18
-25 37 -25 43 0 24 -34 74 -58 86 -31 15 -86 11 -76 -5 4 -7 2 -8 -5 -4 -13 8
-139 -62 -175 -98 -11 -11 -24 -21 -27 -21 -8 0 -172 -78 -179 -85 -3 -3 -12
-7 -20 -8 -8 -2 -41 -10 -73 -18 -31 -9 -63 -12 -70 -7 -6 4 -18 8 -25 9 -7 2
-23 10 -35 18 -44 32 -128 86 -133 86 -13 0 -56 57 -76 101 -14 29 -28 46 -36
44 -9 -3 -10 0 -4 11 10 18 -15 111 -37 137 -21 26 -73 30 -155 13 -75 -15
-126 -36 -156 -61 -27 -24 -130 -48 -176 -41 -87 12 -169 104 -166 188 1 51
-45 145 -83 168 -18 11 -41 20 -51 20 -22 0 -54 -33 -54 -55 0 -17 16 -20 25
-5 11 18 33 11 69 -24 32 -30 37 -41 45 -105 9 -70 31 -121 52 -121 6 0 8 -4
5 -9 -8 -12 29 -43 39 -34 4 5 5 3 1 -4 -4 -7 7 -18 31 -28 21 -10 47 -21 59
-27 36 -17 125 0 203 38 55 27 70 39 60 46 -10 7 -8 8 7 3 12 -3 59 1 105 9
50 9 85 11 87 5 2 -5 9 -9 16 -9 15 0 46 -74 46 -108 0 -45 66 -162 92 -162 5
0 21 -11 36 -25 15 -14 41 -32 59 -40 18 -9 35 -20 38 -25 10 -17 77 -47 118
-53 24 -4 58 1 99 14 84 28 198 80 198 90 0 5 7 9 15 9 9 0 26 10 38 23 12 12
44 33 70 47 27 14 59 35 72 46 13 12 25 20 28 18 2 -2 18 1 37 6 31 9 36 7 67
-26 18 -19 33 -43 33 -53 0 -18 61 -82 98 -100 22 -12 113 -15 183 -7 42 4
203 68 239 94 14 10 39 22 55 26 17 4 44 18 62 32 17 13 36 24 41 24 6 0 27
23 47 50 20 28 42 50 48 50 5 0 8 3 4 6 -3 3 8 24 24 47 16 22 29 45 29 51 1
16 48 48 60 41 6 -3 10 -17 10 -30 0 -13 6 -27 13 -32 16 -10 178 -7 186 4 3
4 21 9 40 11 19 1 39 7 45 11 9 8 110 38 193 58 13 3 20 10 16 16 -3 6 -1 7 6
3 15 -9 73 32 65 46 -4 6 -2 8 3 5 6 -4 15 -1 21 6 10 11 13 31 26 142 2 17 9
44 16 62 15 40 10 60 -12 55z"/>
<path d="M4937 4270 c-9 -15 -14 -30 -10 -34 3 -3 2 -6 -4 -6 -15 0 -65 -128
-67 -171 0 -21 -4 -35 -8 -33 -6 4 -22 -80 -23 -116 0 -8 -3 -17 -7 -20 -16
-13 -26 -339 -13 -421 4 -20 1 -56 -6 -80 -7 -24 -14 -50 -15 -58 -3 -17 -56
-103 -97 -158 -35 -46 -66 -58 -114 -44 -17 5 -34 7 -37 4 -3 -3 -21 6 -41 21
-41 32 -146 68 -183 64 -23 -3 -27 -10 -38 -66 -7 -34 -13 -122 -12 -195 0
-116 -3 -165 -16 -242 -2 -11 -7 -58 -11 -105 -8 -103 -10 -118 -23 -150 -14
-36 -104 -122 -122 -116 -8 2 -36 11 -62 19 l-48 15 -22 -44 c-12 -25 -27 -49
-33 -54 -6 -5 -54 -12 -106 -16 l-95 -7 -44 56 c-51 63 -75 77 -131 77 -80 0
-137 -45 -243 -190 -42 -58 -82 -112 -89 -122 -7 -9 -37 -55 -67 -103 -30 -48
-66 -100 -80 -116 l-25 -29 -75 11 c-83 11 -124 27 -189 73 -46 33 -235 220
-273 271 -23 30 -61 75 -85 101 -7 7 -13 19 -13 26 -1 22 -26 48 -46 48 -10 0
-28 -7 -38 -15 -11 -8 -29 -15 -40 -15 -43 0 -102 -30 -135 -67 -32 -37 -67
-100 -63 -115 1 -5 -1 -8 -6 -8 -4 0 -13 -15 -20 -33 -42 -102 -103 -209 -144
-252 -19 -20 -114 -149 -120 -163 -2 -4 -21 -22 -43 -40 -35 -27 -51 -33 -116
-38 l-76 -7 -48 46 -47 46 -42 -15 c-22 -9 -49 -20 -59 -25 -27 -14 -80 26
-101 77 -10 24 -20 71 -23 103 -4 44 -10 61 -22 64 -15 4 -15 5 0 6 15 1 15 8
2 79 -8 42 -15 124 -16 182 -1 90 4 126 35 250 20 80 36 163 36 184 0 45 -27
114 -54 138 -34 30 -117 60 -179 64 -50 3 -66 -1 -102 -22 -29 -17 -43 -32
-44 -47 -1 -17 -2 -18 -6 -4 -2 9 -9 17 -15 17 -5 0 -7 -7 -4 -16 3 -8 2 -12
-4 -9 -5 3 -38 -12 -72 -35 -34 -22 -71 -40 -82 -41 -12 0 -47 -4 -78 -8 -32
-4 -62 -3 -66 1 -5 5 -22 10 -39 11 -17 1 -31 4 -30 7 0 3 -9 26 -21 51 -12
25 -24 54 -26 65 -2 10 -11 44 -19 74 -19 71 -35 145 -42 195 -29 200 -34 246
-34 318 0 21 4 49 9 63 14 35 13 57 -2 48 -7 -4 -8 -3 -4 4 4 6 13 9 21 5 11
-4 15 3 15 26 0 17 5 31 11 31 6 0 9 9 6 20 -3 11 -1 18 4 14 5 -3 14 7 19 22
6 15 24 48 41 72 17 25 33 61 36 79 5 28 2 34 -18 42 -30 11 -39 6 -39 -22 0
-12 -25 -71 -55 -132 -58 -117 -88 -208 -88 -265 -1 -53 12 -157 22 -182 10
-27 11 -32 11 -58 0 -12 7 -20 18 -20 14 0 14 -2 3 -9 -12 -8 -12 -21 -1 -88
6 -43 15 -82 18 -88 4 -5 8 -21 9 -35 9 -74 50 -200 66 -200 5 0 5 -5 2 -10
-10 -16 50 -67 87 -74 18 -4 56 -6 83 -6 66 1 75 2 75 9 0 3 15 6 33 7 36 0
200 100 191 116 -3 4 2 5 11 2 8 -4 22 -1 30 6 20 17 74 18 114 3 18 -7 42
-13 52 -13 26 0 65 -42 79 -85 15 -44 9 -98 -29 -260 -16 -69 -27 -143 -26
-175 3 -81 16 -165 27 -168 5 -2 5 -9 0 -15 -10 -14 13 -231 28 -265 5 -13 10
-31 10 -40 0 -19 22 -53 56 -84 l21 -19 -25 -63 -24 -62 -97 -11 c-59 -7 -111
-20 -136 -32 -21 -12 -45 -21 -53 -21 -7 0 -11 -3 -9 -7 3 -5 -5 -9 -16 -9
-12 -1 -62 -20 -110 -43 -49 -23 -92 -41 -98 -41 -5 0 -9 -6 -9 -13 0 -7 -16
-21 -35 -30 -20 -10 -41 -30 -50 -49 -25 -53 -62 -110 -70 -108 -4 1 -11 -3
-14 -9 -4 -6 -21 -11 -38 -13 -44 -3 -56 -30 -49 -109 7 -88 11 -105 23 -121
11 -14 22 -71 29 -158 3 -30 16 -78 29 -107 13 -28 21 -54 17 -57 -3 -3 0 -6
6 -6 7 0 12 -6 12 -13 0 -7 12 -26 27 -44 16 -17 37 -43 48 -59 35 -49 109
-114 152 -135 24 -11 43 -26 43 -34 0 -14 26 -24 60 -24 8 1 47 -6 85 -15 65
-14 305 -24 350 -14 11 3 41 14 67 26 26 12 50 22 53 22 3 0 18 11 33 25 15
14 31 25 36 25 17 0 105 99 112 125 3 14 10 25 14 25 4 0 13 14 20 30 7 17 20
36 29 43 15 11 70 92 63 92 -2 0 -1 12 3 26 4 17 1 38 -9 57 -20 39 -22 80 -6
167 18 106 23 241 10 296 -7 27 -15 49 -19 49 -4 0 -7 9 -8 21 -1 11 -20 44
-42 72 -77 101 -97 119 -162 148 -25 12 -25 12 -10 54 l15 43 65 6 c76 8 89
10 116 21 26 11 85 58 85 68 0 4 8 16 18 26 22 24 53 69 52 76 0 5 42 54 78
91 6 7 12 16 12 20 0 4 6 15 14 23 21 24 60 98 86 166 13 33 30 70 38 82 8 13
12 23 9 23 -4 0 4 11 16 24 12 13 33 35 46 50 13 14 35 29 50 32 14 3 35 9 46
14 79 31 65 37 141 -65 38 -52 73 -94 77 -94 11 -1 37 -27 37 -38 0 -10 42
-38 52 -35 5 1 7 -1 6 -6 -6 -16 113 -138 144 -148 10 -3 18 -10 18 -16 0 -5
7 -8 14 -5 9 4 13 1 11 -6 -13 -34 252 -98 290 -69 6 4 22 25 36 47 99 154
169 258 208 307 25 32 63 79 84 106 38 49 53 59 116 80 26 9 41 8 68 -3 31
-13 73 -45 58 -45 -4 0 1 -7 9 -16 9 -8 16 -21 16 -28 0 -25 63 -45 116 -36
119 20 134 20 146 -3 6 -12 15 -41 18 -63 l7 -42 -56 -33 c-65 -37 -238 -210
-247 -245 -4 -13 -10 -24 -14 -24 -7 0 -29 -52 -36 -85 -1 -5 -5 -23 -8 -40
-4 -16 -7 -70 -6 -118 0 -77 -4 -97 -30 -154 -17 -36 -30 -77 -30 -90 0 -36
29 -91 51 -98 28 -9 80 -55 73 -66 -3 -5 -1 -9 5 -9 5 0 30 -29 56 -65 61 -86
150 -176 217 -218 69 -45 226 -98 305 -105 87 -7 216 15 290 50 64 30 165 123
206 191 40 64 97 183 99 207 2 14 6 27 9 30 4 3 10 32 14 65 15 131 16 160 1
180 -12 17 -12 23 7 49 15 21 21 45 21 81 0 91 -52 167 -140 205 -34 15 -45
28 -72 84 -18 37 -32 71 -32 76 0 16 -96 106 -147 137 -26 16 -64 35 -83 41
-50 16 -197 34 -219 27 -23 -7 -34 7 -54 70 -15 46 -15 51 -1 60 38 24 87 80
105 119 21 48 27 87 34 196 2 41 7 86 10 100 3 14 8 66 11 115 3 50 7 102 9
118 3 20 0 27 -13 27 -11 0 -13 3 -5 8 6 4 14 33 17 64 8 87 19 102 69 94 23
-4 53 -13 67 -20 14 -8 41 -22 60 -32 46 -24 161 -32 181 -12 34 35 94 110 94
118 0 4 3 12 8 16 4 4 7 16 7 26 0 10 3 18 8 18 4 0 18 31 31 68 20 60 22 80
17 158 -4 49 -7 117 -7 151 0 53 -3 61 -17 56 -11 -3 -13 -2 -6 4 24 17 42
143 22 143 -9 1 -8 5 3 13 14 11 59 164 59 202 0 25 50 146 72 174 23 30 23
57 -1 64 -12 3 -23 -4 -34 -23z m-872 -2040 c8 -16 15 -42 15 -59 0 -25 -5
-30 -31 -36 -36 -8 -38 -6 -45 31 -2 16 -6 38 -9 50 -3 15 2 23 23 31 15 6 28
11 29 12 1 1 9 -12 18 -29z m265 -140 c61 -13 123 -33 135 -43 6 -4 25 -19 44
-32 19 -14 32 -25 27 -25 -4 0 4 -10 18 -22 14 -13 48 -67 76 -121 38 -73 52
-111 55 -151 l4 -54 -52 -39 c-29 -22 -73 -47 -100 -57 -26 -10 -45 -21 -43
-25 3 -4 -3 -7 -12 -8 -9 0 -57 -18 -107 -39 -55 -23 -112 -39 -145 -42 -30
-2 -69 -10 -87 -18 -17 -8 -49 -14 -71 -14 -23 0 -52 -4 -65 -9 -13 -5 -59
-12 -103 -15 -43 -3 -106 -8 -139 -12 -49 -5 -63 -3 -74 10 -11 13 -11 16 0
16 8 0 5 6 -7 15 -12 8 -25 29 -29 47 -8 31 -10 39 -15 63 -14 67 21 220 65
285 32 46 140 152 189 185 32 22 119 57 266 108 25 9 122 7 170 -3z m462 -397
c31 -36 36 -75 15 -123 -28 -65 -91 -119 -200 -173 -52 -26 -97 -47 -101 -47
-3 0 -29 -11 -58 -24 -29 -14 -67 -28 -83 -32 -17 -4 -34 -10 -40 -14 -23 -18
-588 -32 -660 -17 -56 12 -102 57 -58 57 9 0 13 -3 9 -7 -16 -16 106 -31 178
-22 39 5 94 11 121 14 28 3 64 7 80 10 17 2 55 7 85 10 30 3 69 9 85 15 17 5
61 14 99 20 38 6 78 17 90 25 11 8 30 15 42 15 12 0 46 14 77 30 31 17 62 30
69 30 17 0 105 47 144 76 17 13 35 24 41 24 5 0 17 8 27 18 14 16 15 27 6 72
-12 65 -13 60 3 60 8 0 21 -8 29 -17z m-3340 -119 c34 -6 36 -8 27 -31 -14
-38 -31 -48 -74 -46 -22 1 -50 2 -61 2 -12 1 -25 8 -28 17 -3 8 -2 13 3 10 5
-3 19 8 31 24 24 31 38 34 102 24z m-197 -166 c19 -9 28 -9 37 0 7 7 41 12 79
12 52 0 68 -4 73 -16 4 -10 12 -14 23 -10 19 8 105 -35 137 -67 121 -126 148
-231 106 -432 -5 -27 -14 -69 -19 -93 -5 -23 -12 -46 -16 -50 -21 -22 -232 9
-272 40 -6 5 -33 11 -60 13 -26 2 -65 11 -86 20 -20 8 -60 16 -87 16 -28 1
-50 5 -50 10 0 4 -26 13 -57 19 -64 13 -290 97 -299 111 -3 5 -13 9 -23 9 -10
0 -28 9 -41 20 -13 11 -27 20 -32 20 -4 0 -8 9 -8 21 0 11 -4 28 -9 37 -11 21
29 108 58 129 11 7 27 20 35 28 17 18 109 65 125 65 6 0 25 9 43 20 18 11 43
20 54 20 12 0 32 8 45 19 25 19 51 27 134 37 28 3 52 8 54 10 8 7 30 4 56 -8z
m3540 -81 c-5 -65 -13 -98 -41 -154 -19 -40 -38 -73 -44 -73 -6 0 -6 9 0 25 5
14 11 40 12 58 1 18 5 40 10 50 13 27 -8 55 -47 63 -45 8 -75 0 -110 -30 -26
-22 -27 -28 -21 -73 6 -47 5 -48 -26 -61 -18 -8 -55 -24 -83 -36 -31 -15 -89
-28 -155 -35 -121 -14 -144 -8 -215 60 -22 21 -52 41 -66 44 -23 6 -30 1 -56
-42 -57 -90 -51 -131 24 -170 36 -19 100 -39 114 -35 3 0 44 -13 90 -29 46
-17 99 -33 117 -35 18 -2 40 -8 50 -13 12 -8 -3 -10 -58 -10 -78 -1 -142 11
-195 33 -16 7 -50 22 -75 32 -70 30 -164 104 -208 164 -22 30 -50 66 -61 79
-12 13 -21 29 -21 35 0 7 51 11 157 12 240 2 422 13 483 31 30 9 100 37 155
63 55 26 121 56 147 66 26 10 62 31 79 46 17 15 36 25 41 22 5 -4 7 -40 3 -87z
m-140 -124 c-2 -47 -14 -85 -24 -79 -12 8 -13 87 0 102 19 23 26 16 24 -23z
m-35 -116 c0 -2 -8 -19 -17 -38 -19 -39 -50 -69 -70 -69 -7 0 -13 -4 -13 -8 0
-14 -54 -40 -96 -45 -23 -3 -45 -7 -50 -8 -18 -5 -134 13 -134 21 0 4 -16 11
-35 14 -19 4 -35 11 -35 16 0 5 -7 10 -16 12 -9 2 24 4 73 5 94 1 243 34 267
59 16 16 126 51 126 41z m-582 -37 c16 -16 35 -30 43 -30 8 0 21 -5 29 -10 11
-7 1 -10 -36 -10 -64 0 -110 30 -94 61 14 26 25 24 58 -11z m-3491 -27 c-6 -9
13 -28 28 -28 14 -1 68 -28 82 -42 7 -6 30 -17 50 -23 21 -7 43 -16 48 -20 6
-5 35 -18 65 -29 62 -24 96 -39 124 -53 14 -7 16 -6 10 4 -5 8 2 6 19 -4 14
-10 37 -18 49 -18 13 0 50 -9 83 -21 32 -11 69 -19 82 -16 13 2 23 1 23 -3 0
-7 92 -32 132 -35 13 -1 34 -7 48 -12 101 -42 138 -49 273 -52 50 -1 57 -4 57
-21 0 -33 -33 -40 -184 -41 -147 0 -173 4 -319 52 -32 11 -75 31 -95 44 -29
19 -53 25 -108 27 -40 2 -70 5 -69 8 2 3 -20 16 -48 29 -29 13 -66 36 -83 50
-87 73 -122 95 -199 126 -38 15 -73 33 -77 39 -11 17 -9 46 3 46 5 0 8 -3 6
-7z m114 -174 c20 -10 47 -29 60 -43 13 -14 28 -26 32 -26 4 0 18 -9 30 -21
25 -23 128 -74 169 -83 l28 -6 -31 -28 c-43 -38 -56 -100 -30 -147 22 -42 20
-68 -9 -117 -30 -51 -47 -45 -156 57 -121 114 -173 234 -174 403 0 40 2 43 23
36 12 -3 38 -15 58 -25z m444 -209 c10 -12 25 -18 32 -15 8 2 12 1 9 -3 -5 -9
128 -51 174 -56 14 -1 31 -5 38 -9 16 -10 142 -25 147 -17 2 3 16 5 32 4 15
-1 48 -3 73 -3 36 -1 41 -4 28 -12 -10 -5 -18 -18 -18 -27 0 -22 -83 -110
-140 -148 -92 -62 -145 -78 -255 -76 -55 1 -114 7 -132 13 -28 9 -31 13 -26
42 16 98 39 147 68 147 15 0 25 22 25 58 0 18 -15 40 -52 74 -30 28 -46 48
-37 48 9 0 24 -9 34 -20z m-50 -64 c33 -30 35 -35 19 -44 -20 -11 -59 -102
-69 -160 -8 -50 -25 -75 -43 -63 -11 7 -10 16 7 47 25 47 27 109 4 165 l-16
42 27 24 c15 12 29 23 30 23 2 0 20 -15 41 -34z"/>
</g>
</svg>
