<?xml version="1.0" standalone="no"?>
<!DOCTYPE svg PUBLIC "-//W3C//DTD SVG 20010904//EN"
 "http://www.w3.org/TR/2001/REC-SVG-20010904/DTD/svg10.dtd">
<svg version="1.0" xmlns="http://www.w3.org/2000/svg"
 width="481.000000pt" height="429.000000pt" viewBox="0 0 481.000000 429.000000"
 preserveAspectRatio="xMidYMid meet">
<metadata>
Created by potrace 1.16, written by Peter Selinger 2001-2019
</metadata>
<g transform="translate(0.000000,429.000000) scale(0.100000,-0.100000)"
fill="#000000" stroke="none">
<path d="M2597 4086 c-16 -35 -29 -75 -31 -90 -1 -14 -6 -29 -9 -33 -4 -3 -7
-15 -7 -25 0 -27 -41 -38 -139 -37 -137 2 -357 -10 -387 -21 -15 -6 -29 -8
-32 -5 -9 9 -23 116 -23 183 -1 34 -5 65 -10 68 -10 6 -15 -89 -11 -203 l2
-73 -28 -2 c-33 -1 -29 -2 -172 12 l-115 11 -50 -55 c-46 -51 -111 -106 -125
-106 -3 0 -17 10 -30 23 -85 75 -150 127 -159 127 -6 0 -10 4 -8 9 6 22 -159
130 -200 131 -19 0 -16 -18 5 -24 9 -3 31 -18 47 -32 17 -14 45 -38 64 -52 19
-15 46 -39 59 -54 14 -16 32 -28 40 -28 9 0 12 -3 8 -7 -3 -4 22 -33 56 -64
l62 -58 -27 -7 c-26 -6 -60 -3 -162 14 -47 8 -153 7 -187 -1 -52 -13 -155
-200 -128 -233 8 -9 4 -19 -16 -39 -18 -18 -24 -33 -20 -48 5 -20 -11 -79 -36
-132 -9 -21 -16 -48 -17 -74 -1 -9 -12 -12 -41 -9 -22 2 -40 1 -40 -2 0 -3
-33 -3 -72 1 -102 11 -188 11 -188 0 0 -4 -11 -6 -25 -3 -19 3 -25 0 -25 -13
0 -15 7 -17 68 -10 37 4 70 12 74 19 5 7 8 5 8 -6 0 -10 5 -18 11 -18 5 0 7 5
4 10 -3 6 3 10 14 10 12 0 21 -4 21 -10 0 -5 10 -10 23 -10 18 0 19 2 7 10
-13 8 -12 10 3 10 9 0 17 -6 17 -13 0 -8 25 -19 65 -27 62 -13 65 -15 65 -43
0 -16 -14 -56 -32 -88 -27 -48 -40 -62 -79 -78 -26 -12 -50 -29 -54 -38 -4
-10 -9 -54 -12 -98 -2 -44 -5 -98 -7 -120 -5 -64 -56 -178 -113 -251 -59 -75
-126 -171 -134 -193 -14 -36 -13 -115 2 -143 8 -14 27 -50 44 -79 16 -30 35
-72 42 -94 14 -42 16 -34 -42 -168 -7 -16 -12 -65 -11 -110 1 -73 5 -91 39
-162 21 -43 42 -82 48 -86 7 -4 10 -71 10 -185 -1 -136 2 -192 14 -231 9 -29
20 -53 25 -53 6 0 10 -6 10 -13 0 -7 9 -28 19 -48 11 -20 24 -55 31 -77 6 -23
15 -42 20 -42 6 0 10 -5 10 -12 0 -7 9 -21 19 -33 47 -49 68 -74 91 -108 16
-23 38 -41 60 -48 19 -6 53 -19 75 -30 38 -18 149 -50 163 -47 4 1 14 -1 22
-5 23 -9 93 -30 115 -35 11 -3 85 -4 164 -3 158 2 204 -8 271 -59 62 -47 52
-45 283 -54 81 -3 147 -2 147 2 0 4 37 8 83 10 53 2 101 10 137 24 46 18 76
21 182 21 70 -1 150 -6 178 -13 31 -8 68 -9 93 -5 23 4 85 9 137 11 91 2 175
18 194 35 6 5 24 9 41 9 17 0 40 7 51 15 23 17 70 20 80 4 4 -7 25 -9 63 -4
31 4 67 9 81 10 38 3 72 16 88 32 8 7 44 33 81 57 37 24 73 52 81 61 34 41
274 173 365 200 29 9 52 27 84 66 71 87 119 139 130 139 6 0 11 4 11 8 0 5 11
14 25 20 37 17 62 77 64 154 1 37 -2 75 -8 85 -5 10 -12 77 -16 147 -4 71 -9
141 -12 155 -9 53 -15 107 -14 141 0 49 -46 214 -79 280 -74 147 -91 197 -97
284 -2 43 -16 119 -29 170 -14 50 -30 120 -36 156 -9 56 -19 75 -66 135 -31
39 -60 73 -65 76 -4 3 -15 18 -23 34 -33 63 -59 111 -68 123 -5 8 -11 21 -11
30 -4 40 -16 116 -20 122 -2 4 -7 29 -10 56 -3 27 -8 65 -11 85 l-5 36 103 38
c57 20 117 43 133 50 17 7 46 18 65 25 19 7 68 28 108 47 40 18 79 33 87 33 8
0 15 7 15 16 0 9 -6 14 -12 12 -7 -3 -53 -17 -103 -32 -49 -16 -112 -36 -140
-46 -59 -22 -140 -44 -212 -60 l-52 -12 -49 49 c-69 67 -101 93 -118 93 -14 0
-83 68 -84 83 0 8 -11 23 -41 57 -9 10 -36 21 -60 25 -48 8 -119 40 -119 54 0
12 91 91 143 124 15 10 33 29 39 43 6 13 15 24 20 24 12 0 42 29 36 35 -2 2
-31 -14 -63 -35 -33 -22 -65 -40 -72 -40 -7 0 -20 -8 -30 -18 -29 -28 -91 -72
-103 -72 -6 0 -14 8 -17 18 -12 32 -51 60 -104 72 -29 7 -75 26 -102 42 -45
26 -52 28 -86 17 -50 -17 -140 -14 -200 6 -27 9 -64 17 -81 17 -35 1 -37 5
-26 68 8 49 22 100 35 133 13 33 14 47 3 47 -4 0 -20 -29 -35 -64z m-83 -306
c-8 -57 2 -90 27 -90 11 0 19 6 18 13 -1 6 -1 36 0 65 l1 52 40 0 c22 0 74 -9
117 -21 60 -17 91 -20 144 -15 60 6 78 3 165 -26 109 -37 140 -64 110 -97 -9
-10 -32 -27 -51 -37 -19 -10 -35 -22 -35 -26 0 -4 -15 -10 -34 -13 -40 -8 -61
-41 -41 -68 8 -11 19 -15 31 -11 25 10 101 62 139 96 16 16 32 28 35 28 3 0
19 -15 37 -33 21 -22 51 -38 97 -51 67 -19 95 -43 150 -129 9 -16 33 -35 52
-43 34 -14 114 -80 114 -94 0 -4 -31 -18 -70 -31 -38 -13 -70 -27 -70 -31 0
-14 -31 -8 -36 7 -9 21 -34 19 -34 -4 0 -15 -14 -22 -65 -35 -35 -9 -73 -16
-84 -16 -23 0 -35 -30 -26 -61 6 -17 12 -19 38 -13 71 15 262 76 265 85 2 5
12 9 22 9 11 0 31 5 45 12 34 15 39 7 55 -91 6 -42 14 -87 16 -101 3 -14 9
-51 14 -82 6 -43 19 -72 54 -120 25 -35 55 -80 66 -100 11 -21 25 -38 30 -38
5 0 25 -30 44 -67 44 -82 92 -256 106 -384 6 -52 13 -109 17 -128 6 -37 64
-183 80 -203 18 -23 35 -59 39 -86 3 -15 11 -45 19 -67 17 -46 24 -98 30 -244
3 -57 5 -105 6 -105 3 -4 10 -52 15 -106 3 -36 9 -81 12 -100 4 -19 7 -53 7
-75 0 -35 -5 -43 -46 -75 -25 -19 -67 -60 -94 -90 -82 -96 -117 -130 -133
-130 -8 0 -45 -17 -82 -39 -37 -21 -89 -46 -116 -56 -49 -19 -203 -122 -272
-183 -20 -17 -47 -35 -59 -38 -13 -3 -23 -9 -23 -13 0 -3 -25 -12 -56 -20 -46
-10 -69 -10 -119 0 -60 12 -65 11 -128 -16 -36 -15 -73 -25 -81 -22 -9 4 -16
2 -16 -3 0 -16 -63 -28 -180 -35 -162 -9 -158 -10 -235 4 -98 17 -285 8 -355
-17 -64 -22 -224 -37 -360 -33 -166 4 -176 6 -232 44 -85 58 -128 68 -290 66
-130 -1 -154 2 -263 30 -66 17 -138 40 -160 51 -22 11 -55 23 -73 26 -26 5
-45 23 -90 81 -86 112 -82 105 -156 263 -28 60 -31 74 -33 189 -1 89 -6 127
-15 132 -10 7 -10 9 1 9 8 0 12 3 8 6 -3 3 -1 19 5 36 10 29 0 68 -35 133 -65
123 -70 137 -63 204 9 89 9 88 41 154 25 53 27 60 16 105 -14 55 -54 138 -83
169 -30 33 -28 110 5 159 15 20 23 42 20 47 -3 6 -1 7 5 3 7 -4 12 -4 12 1 0
4 17 26 36 48 59 65 91 117 124 201 22 54 28 80 20 82 -9 3 -9 7 1 13 10 6 15
38 17 109 4 90 6 101 25 112 34 18 66 46 84 74 7 11 24 36 38 57 24 36 33 60
39 102 3 23 40 35 76 25 14 -4 41 -7 62 -6 20 1 34 -3 31 -8 -7 -11 131 -1
149 10 7 5 20 9 29 9 8 1 37 7 63 15 39 11 46 17 44 34 -3 23 -47 49 -63 37
-5 -4 -18 -11 -29 -15 -17 -6 -18 -3 -11 36 5 24 9 63 11 88 2 49 29 120 44
120 6 0 10 7 10 15 0 8 14 29 30 47 35 36 38 48 11 48 -20 0 -61 -43 -61 -64
0 -6 -8 -23 -17 -36 -27 -38 -51 -115 -46 -144 9 -44 -17 -116 -44 -127 -48
-18 -283 -5 -283 16 0 7 9 38 21 71 44 129 58 204 36 204 -6 0 -2 7 10 15 11
8 24 31 28 52 10 53 30 88 66 114 31 22 34 22 138 9 153 -18 190 -19 243 -5
l47 12 48 -49 c40 -40 73 -60 73 -44 0 2 3 11 6 20 3 9 -11 32 -37 61 -47 51
-47 49 7 83 5 4 25 26 44 49 l33 43 163 -3 163 -2 21 -60 c28 -80 34 -90 56
-90 27 0 30 42 7 74 -11 14 -24 40 -30 58 -10 28 -9 32 10 39 28 9 196 20 359
22 l127 2 -5 -40z"/>
<path d="M2412 3520 c-18 -4 -53 -24 -79 -44 -25 -20 -52 -36 -58 -36 -7 0
-24 -9 -39 -21 -15 -11 -53 -27 -86 -35 -57 -13 -61 -13 -110 12 -111 56 -177
40 -334 -78 -88 -67 -113 -92 -151 -152 -48 -77 -57 -124 -31 -161 7 -11 17
-31 21 -45 20 -64 51 -94 114 -114 43 -13 77 -32 111 -63 28 -25 50 -49 50
-54 0 -4 21 -29 47 -54 44 -41 52 -45 98 -45 34 0 66 8 100 26 83 43 88 44
131 23 21 -10 47 -18 56 -19 9 0 21 -6 25 -14 4 -8 37 -24 72 -36 70 -23 79
-22 146 26 54 38 119 62 184 69 59 5 67 9 102 48 21 23 52 57 69 75 16 18 30
35 30 38 0 6 75 124 89 141 6 6 13 22 15 35 3 12 9 37 13 53 4 17 7 57 7 90 1
54 -3 66 -31 101 -17 22 -44 46 -60 54 -15 8 -30 18 -33 21 -15 19 -90 39
-145 39 -63 0 -86 12 -91 47 -10 67 -116 101 -232 73z m147 -75 c6 -3 11 -13
11 -21 0 -56 86 -108 175 -107 46 1 70 -4 105 -24 61 -34 69 -41 90 -83 19
-36 19 -37 -6 -106 -23 -63 -89 -171 -152 -249 -31 -39 -79 -65 -118 -65 -39
0 -119 -27 -164 -55 -66 -42 -104 -50 -141 -33 -19 9 -45 19 -59 23 -14 4 -36
15 -50 25 -14 10 -47 22 -74 28 -41 8 -52 8 -65 -5 -23 -24 -112 -63 -143 -63
-31 0 -78 37 -108 86 -21 33 -140 127 -157 122 -22 -6 -73 16 -87 38 -9 13
-14 24 -12 24 3 0 -3 20 -14 45 l-19 44 26 46 c14 25 37 54 52 63 14 9 50 39
79 67 58 55 163 115 200 115 28 0 74 -24 120 -62 37 -31 56 -34 92 -13 14 8
37 14 51 15 15 0 33 7 40 17 8 9 38 27 67 39 28 13 52 28 52 34 0 37 167 82
209 55z"/>
<path d="M3419 3018 c0 -7 -2 -23 -5 -35 -2 -13 1 -23 6 -23 6 0 10 8 11 18 0
9 2 25 4 35 2 9 -1 17 -6 17 -5 0 -9 -6 -10 -12z"/>
<path d="M1217 2966 c-7 -45 1 -76 20 -76 12 0 14 -7 9 -32 -4 -18 -9 -52 -13
-75 -3 -24 -10 -43 -14 -43 -24 0 -293 -131 -349 -170 -14 -9 -42 -25 -63 -35
-22 -10 -34 -22 -29 -27 5 -5 29 1 58 14 27 12 51 23 54 23 5 1 75 33 148 67
23 11 42 24 42 28 0 11 40 25 59 21 9 -2 12 3 8 13 -5 13 -3 14 15 3 16 -9 22
-9 25 1 3 6 9 10 14 6 5 -3 9 0 9 5 0 6 11 11 24 11 13 0 27 7 30 16 4 9 13
14 21 10 8 -3 15 -1 15 5 0 6 5 7 10 4 6 -3 10 -3 10 2 0 4 11 8 25 8 20 0 25
-5 25 -25 0 -32 12 -51 36 -54 16 -2 19 -12 20 -56 2 -54 22 -89 44 -75 8 5 7
14 -5 32 -10 14 -14 35 -11 47 3 12 1 38 -4 57 -8 27 -15 35 -32 35 -15 -1
-23 7 -29 27 -4 16 -3 27 2 27 6 0 8 4 5 8 -5 8 0 9 77 12 41 2 50 6 58 27 6
16 5 31 -2 44 -8 16 -16 19 -42 13 -17 -3 -38 -10 -47 -14 -8 -4 -31 -14 -50
-22 -19 -8 -56 -25 -83 -38 -26 -12 -50 -21 -52 -18 -3 3 -1 18 5 33 6 16 9
34 6 42 -3 7 -1 13 5 13 6 0 8 4 5 8 -2 4 -1 14 4 22 12 20 -6 39 -31 33 -18
-5 -20 -2 -15 36 5 49 -9 55 -17 7z"/>
<path d="M3410 2939 c0 -5 5 -7 10 -4 6 3 10 8 10 11 0 2 -4 4 -10 4 -5 0 -10
-5 -10 -11z"/>
<path d="M3386 2879 c-9 -16 -14 -29 -11 -29 4 0 -3 -13 -15 -30 -12 -16 -28
-30 -36 -30 -8 0 -50 18 -94 40 -81 41 -105 43 -115 9 -9 -27 10 -56 42 -63
14 -4 54 -20 87 -36 82 -38 230 -82 250 -74 9 3 16 11 16 18 0 12 -14 21 -93
58 -43 20 -47 25 -42 48 5 21 26 70 42 102 2 4 0 9 -5 12 -5 3 -16 -8 -26 -25z"/>
<path d="M3241 2686 c-6 -7 -27 -17 -46 -20 -19 -4 -43 -18 -54 -32 -17 -21
-26 -25 -50 -19 -16 3 -32 12 -34 19 -3 7 -15 16 -26 19 -18 4 -21 1 -21 -24
0 -17 5 -29 13 -29 7 0 21 -6 32 -13 17 -13 16 -15 -15 -30 -18 -10 -40 -17
-50 -17 -9 0 -20 -4 -25 -9 -6 -6 -36 -24 -68 -41 -46 -24 -69 -30 -105 -28
l-46 3 -13 62 c-16 70 -37 87 -65 53 -21 -25 -23 -50 -6 -50 6 0 9 -3 6 -6 -4
-3 0 -21 8 -39 8 -19 14 -38 14 -43 0 -10 -71 -58 -102 -68 -12 -3 -28 -13
-36 -20 -7 -8 -32 -14 -55 -15 -97 -2 -165 0 -205 6 -37 6 -41 8 -32 25 5 10
10 32 10 48 0 24 -5 31 -25 34 -30 6 -40 -5 -48 -56 -3 -21 -8 -40 -10 -42 -9
-9 -163 -15 -175 -6 -16 11 -1 57 27 81 10 9 18 25 18 36 0 25 -25 55 -47 55
-18 0 -40 -38 -40 -69 0 -30 -29 -91 -43 -91 -7 0 -37 11 -65 25 -29 14 -56
25 -62 25 -5 0 -14 9 -20 20 -17 31 -81 12 -86 -25 -2 -16 62 -55 91 -55 8 0
15 -3 15 -8 0 -4 27 -18 60 -31 44 -18 59 -28 56 -40 -3 -9 -14 -50 -25 -91
-12 -41 -26 -90 -32 -108 -6 -18 -13 -45 -16 -60 -3 -15 -6 -31 -7 -37 -1 -5
-12 -32 -24 -59 -12 -27 -22 -51 -22 -53 0 -11 24 5 26 18 1 7 12 36 24 62 25
56 60 148 97 260 l26 77 56 1 c31 1 76 2 101 3 l44 1 1 -152 c0 -84 3 -153 7
-153 8 0 9 4 12 76 2 22 5 45 8 50 3 5 9 40 13 78 4 38 9 75 12 82 4 10 43 13
167 12 127 -1 169 2 196 15 19 8 61 24 93 35 l58 20 23 -36 c35 -54 122 -136
130 -123 4 6 -2 24 -13 40 -12 16 -21 33 -21 38 0 5 -8 18 -17 29 -21 22 -48
73 -42 77 27 20 61 37 74 37 9 0 33 9 55 20 22 11 49 20 61 20 11 0 34 11 51
25 16 14 35 25 43 25 7 0 18 7 25 15 9 11 22 14 42 10 27 -6 28 -5 23 18 -5
19 -2 28 14 37 12 6 21 17 21 24 0 8 9 16 20 19 13 3 18 10 14 21 -4 10 -1 16
9 16 20 0 32 19 20 31 -6 6 -14 5 -22 -5z"/>
<path d="M3186 2511 c-3 -5 -3 -23 0 -40 5 -22 14 -33 30 -37 21 -5 24 -12 24
-58 1 -56 24 -103 36 -72 4 10 2 22 -5 29 -6 6 -11 34 -11 62 0 43 -4 54 -30
78 -17 16 -28 33 -24 38 3 5 1 9 -5 9 -5 0 -12 -4 -15 -9z"/>
<path d="M1432 2468 c-6 -6 -12 -21 -12 -32 0 -18 -31 -65 -65 -100 -37 -36
-62 -164 -36 -180 9 -6 6 -100 -4 -141 -2 -11 -9 -40 -15 -63 -6 -24 -20 -63
-32 -85 -12 -23 -23 -57 -25 -75 -2 -18 -15 -53 -29 -77 -13 -25 -22 -45 -19
-45 3 0 1 -9 -5 -21 -6 -11 -17 -48 -25 -82 -7 -34 -25 -116 -39 -182 -15 -66
-26 -145 -26 -175 2 -76 -14 -159 -39 -201 -11 -19 -27 -70 -35 -112 -8 -43
-22 -84 -30 -93 -8 -8 -13 -21 -10 -29 10 -26 32 -16 43 18 12 38 32 117 35
134 1 7 5 16 9 19 4 4 7 18 7 30 0 13 4 25 9 28 5 3 12 23 16 43 5 21 10 45
12 53 2 8 6 47 9 85 6 72 33 255 39 266 2 3 7 21 10 40 7 44 35 131 47 145 5
7 8 16 6 20 -1 5 6 24 15 42 10 18 17 38 16 45 -2 13 4 32 27 85 8 18 14 39
14 46 0 7 7 27 16 45 19 39 44 215 32 233 -14 23 -9 102 10 136 9 17 32 47 50
67 36 38 53 80 43 108 -5 14 -9 15 -19 5z"/>
<path d="M3380 2185 c0 -8 17 -23 39 -34 41 -22 68 -70 95 -173 7 -29 26 -75
41 -102 15 -27 29 -67 32 -89 7 -64 55 -137 89 -137 8 0 26 -12 40 -27 l25
-27 -4 29 c-3 29 -10 34 -77 65 -26 12 -52 69 -55 118 -2 26 -9 50 -18 57 -12
9 -73 162 -80 200 -1 6 -12 24 -24 42 -13 17 -23 36 -23 42 0 9 -60 51 -74 51
-3 0 -6 -7 -6 -15z"/>
<path d="M3840 1352 c0 -6 6 -17 13 -24 15 -16 55 -80 56 -90 1 -5 1 -11 1
-15 0 -4 5 -2 11 4 8 8 5 22 -9 49 -21 41 -72 95 -72 76z"/>
</g>
</svg>
