<?xml version="1.0" standalone="no"?>
<!DOCTYPE svg PUBLIC "-//W3C//DTD SVG 20010904//EN"
 "http://www.w3.org/TR/2001/REC-SVG-20010904/DTD/svg10.dtd">
<svg version="1.0" xmlns="http://www.w3.org/2000/svg"
 width="487.000000pt" height="433.000000pt" viewBox="0 0 487.000000 433.000000"
 preserveAspectRatio="xMidYMid meet">
<metadata>
Created by potrace 1.16, written by Peter Selinger 2001-2019
</metadata>
<g transform="translate(0.000000,433.000000) scale(0.100000,-0.100000)"
fill="#000000" stroke="none">
<path d="M2689 4036 c-2 -2 -36 -7 -75 -10 -70 -6 -89 -9 -129 -26 -27 -11
-78 -24 -88 -21 -5 1 -22 -8 -38 -20 -16 -11 -55 -31 -87 -44 -31 -12 -84 -39
-116 -59 -33 -19 -68 -38 -78 -42 -10 -3 -29 -15 -42 -27 -44 -42 -67 -57
-107 -71 -43 -15 -97 -58 -212 -171 -40 -39 -90 -87 -113 -106 -22 -20 -50
-51 -62 -70 -11 -19 -44 -54 -72 -79 -28 -25 -57 -51 -63 -59 -7 -7 -39 -41
-71 -74 -32 -34 -70 -82 -83 -107 -23 -43 -88 -140 -101 -150 -8 -6 -25 -33
-52 -82 -11 -21 -27 -38 -35 -38 -8 0 -15 -3 -16 -7 -2 -28 -11 -58 -21 -76
-7 -12 -13 -28 -14 -35 -1 -7 -11 -27 -23 -45 -31 -50 -100 -193 -107 -224 -4
-15 -17 -46 -30 -68 -22 -40 -44 -97 -89 -230 -39 -117 -49 -206 -48 -410 2
-220 9 -313 29 -373 8 -23 14 -48 14 -55 0 -12 6 -24 59 -120 39 -72 54 -97
89 -151 18 -28 32 -55 32 -61 0 -7 9 -20 20 -30 11 -10 20 -24 20 -30 0 -14
102 -120 144 -150 37 -26 96 -62 121 -74 11 -5 37 -23 59 -40 35 -28 276 -151
297 -151 4 0 28 -7 52 -15 69 -23 276 -65 323 -65 24 0 53 -4 66 -9 13 -5 45
-12 72 -15 27 -4 54 -10 59 -13 20 -12 236 -4 327 12 95 17 198 49 255 79 17
8 57 26 90 39 56 22 78 30 203 73 89 31 127 46 182 73 30 14 68 27 85 29 16 2
37 9 45 17 8 7 62 34 120 61 121 55 188 96 282 170 37 30 69 54 72 54 4 0 14
8 24 18 11 9 43 37 72 62 87 73 151 141 143 153 -3 7 -3 9 1 6 4 -4 17 3 30
15 13 11 38 35 57 52 45 42 84 84 157 174 34 41 67 80 72 85 43 41 70 78 70
92 0 10 12 43 26 73 25 51 62 163 85 255 6 21 14 44 19 50 5 6 12 29 16 51 3
21 10 47 15 56 25 47 28 385 5 493 -21 95 -29 122 -72 225 -11 24 -19 47 -20
50 -3 24 -31 100 -45 120 -9 14 -29 50 -44 80 -36 74 -67 125 -92 152 -11 13
-28 38 -37 56 -9 17 -20 32 -25 32 -5 0 -14 12 -20 28 -6 15 -62 74 -122 132
-61 58 -147 139 -191 181 -82 79 -80 78 -278 151 -52 19 -64 28 -62 44 2 14
-8 24 -38 37 -22 9 -46 17 -54 17 -8 0 -16 4 -18 8 -5 11 -149 80 -180 86 -14
2 -35 9 -45 14 -10 5 -47 12 -83 16 -36 4 -103 11 -150 17 -84 11 -354 22
-361 15z m341 -75 c41 -5 104 -12 140 -15 36 -3 89 -15 118 -26 29 -11 59 -20
68 -20 8 0 25 -7 37 -17 22 -16 22 -16 -75 -114 -90 -90 -103 -108 -99 -132 1
-5 -3 -6 -8 -3 -8 6 -76 -68 -97 -105 -9 -16 -62 -82 -96 -120 -10 -10 -15
-19 -12 -19 4 0 -18 -28 -48 -62 -31 -35 -67 -81 -82 -102 -15 -22 -57 -73
-94 -114 -37 -42 -74 -87 -83 -102 -9 -15 -28 -36 -42 -46 -13 -11 -32 -34
-41 -51 -9 -18 -27 -43 -40 -56 -14 -14 -39 -50 -56 -81 -18 -31 -36 -56 -41
-56 -5 0 -9 -6 -9 -13 0 -8 -17 -31 -38 -53 -56 -58 -95 -112 -88 -123 9 -15
-79 -180 -118 -223 -19 -21 -42 -38 -51 -38 -39 0 -114 -51 -161 -111 -27 -34
-68 -85 -90 -114 -23 -28 -45 -62 -48 -73 -4 -12 -11 -22 -15 -22 -14 0 -61
-97 -61 -128 0 -34 44 -83 91 -102 16 -7 29 -16 29 -20 0 -5 22 -11 49 -15 41
-6 56 -3 93 18 83 46 200 174 253 277 28 54 12 133 -34 174 -11 11 -21 23 -21
28 0 21 51 75 125 134 44 34 89 71 100 82 11 11 30 22 43 26 13 4 22 15 22 27
0 10 12 29 26 42 56 48 80 72 101 100 12 16 41 50 65 76 24 25 60 66 82 91 21
25 59 68 85 97 57 65 119 136 163 187 18 22 51 60 74 85 22 26 62 73 90 106
27 33 57 67 66 76 10 9 18 21 18 26 0 5 8 19 18 32 20 27 119 146 149 181 12
14 31 36 42 49 12 13 21 30 21 37 0 20 37 26 67 10 15 -8 44 -31 63 -51 46
-48 158 -131 201 -149 19 -8 45 -26 58 -40 13 -14 28 -23 34 -19 6 3 7 1 3 -5
-3 -6 -2 -13 4 -17 15 -10 151 -193 196 -266 23 -36 45 -78 49 -95 11 -38 10
-34 25 -69 19 -45 30 -125 35 -275 6 -166 -17 -291 -76 -420 -21 -47 -40 -92
-41 -100 -2 -8 -7 -19 -11 -25 -4 -5 -41 -62 -82 -125 -40 -63 -82 -126 -93
-140 -10 -14 -36 -50 -57 -80 -42 -60 -207 -229 -270 -275 -22 -17 -47 -38
-56 -47 -9 -10 -20 -18 -24 -18 -4 0 -30 -20 -58 -43 -58 -49 -183 -131 -237
-156 -19 -9 -55 -29 -78 -44 -52 -33 -226 -123 -297 -153 -28 -12 -75 -27
-105 -34 -30 -7 -59 -15 -65 -18 -5 -3 -16 -7 -25 -8 -20 -2 -128 -32 -138
-37 -11 -7 -167 -19 -247 -19 -99 -1 -475 18 -535 27 -72 10 -143 25 -154 34
-6 4 -24 11 -39 15 -16 4 -57 20 -91 36 -35 17 -68 30 -75 30 -47 0 -211 145
-284 250 -34 49 -35 50 -72 97 -39 49 -93 155 -117 231 -17 54 -21 96 -23 220
-1 83 1 152 5 152 11 0 31 105 35 178 3 68 12 119 25 137 6 9 22 90 35 182 4
23 15 59 26 80 10 20 19 45 19 54 0 9 7 22 15 29 8 7 15 22 15 34 0 11 6 31
13 43 6 12 26 47 42 78 17 31 56 88 87 127 32 38 60 77 63 87 5 17 175 194
231 241 16 14 39 41 51 60 12 20 48 59 80 87 32 28 79 70 104 94 71 69 145
127 176 141 15 7 30 15 33 18 3 3 21 14 40 24 19 11 51 32 70 47 90 70 368
190 470 204 181 25 303 27 460 6z m470 -166 c0 -2 -9 -13 -21 -23 -19 -18 -19
-21 -4 -36 9 -9 23 -16 31 -16 8 0 12 -4 9 -10 -11 -18 -40 -10 -78 21 -49 41
-35 61 46 68 9 0 17 -1 17 -4z m-62 -145 c26 0 38 -18 23 -33 -12 -12 -82 -17
-75 -6 2 3 -8 12 -21 19 -14 7 -27 22 -31 32 -3 10 -10 16 -15 13 -13 -8 -11
9 2 22 8 8 23 3 54 -18 24 -16 52 -29 63 -29z m307 30 c6 -4 24 -11 42 -15 17
-3 49 -19 70 -35 30 -22 148 -128 185 -167 4 -5 29 -30 56 -58 26 -27 59 -59
73 -70 58 -47 249 -337 266 -405 3 -14 11 -31 17 -39 5 -7 12 -25 14 -39 2
-15 7 -31 11 -37 16 -20 66 -192 76 -260 3 -22 8 -46 11 -54 6 -18 6 -308 0
-336 -10 -50 -50 -188 -77 -268 -16 -49 -29 -92 -29 -98 0 -5 -13 -37 -28 -71
-16 -35 -34 -75 -40 -90 -6 -16 -16 -28 -22 -28 -5 0 -10 -11 -10 -25 0 -16
-17 -43 -47 -75 -27 -28 -66 -71 -88 -97 -87 -101 -289 -307 -361 -368 -191
-163 -496 -326 -808 -430 -39 -13 -96 -33 -126 -45 -30 -12 -82 -30 -116 -40
-33 -10 -69 -22 -80 -28 -10 -5 -33 -16 -49 -25 -17 -8 -64 -23 -105 -32 -41
-9 -93 -22 -114 -28 -43 -12 -248 -14 -306 -2 -19 4 -89 18 -155 31 -66 13
-121 28 -123 33 -2 5 -12 7 -22 4 -27 -7 -140 15 -229 44 -101 33 -233 98
-306 149 -16 12 -55 34 -85 50 -54 28 -82 48 -127 91 -13 12 -23 19 -23 15 0
-4 -6 3 -13 14 -6 12 -31 47 -55 77 -23 31 -42 61 -42 68 0 6 -10 25 -22 42
-46 65 -148 265 -148 291 0 6 -5 17 -11 23 -5 5 -12 49 -14 96 -2 48 -6 91
-10 97 -14 22 -6 309 10 377 36 152 44 179 56 208 15 36 14 33 24 70 4 17 20
57 35 90 15 33 32 71 38 85 20 46 14 -11 -8 -80 -11 -34 -20 -88 -20 -120 0
-31 -9 -99 -19 -151 -13 -61 -20 -138 -21 -219 0 -107 3 -135 23 -195 31 -91
70 -171 104 -217 116 -153 150 -194 225 -268 54 -55 102 -93 134 -107 27 -12
81 -36 119 -53 140 -64 347 -107 429 -90 17 3 65 0 106 -7 42 -7 160 -13 270
-14 174 -1 208 2 314 25 66 14 122 29 125 33 3 5 11 8 16 8 32 1 129 31 185
58 36 17 73 32 83 34 10 2 43 19 73 38 30 19 60 35 67 35 7 0 34 13 60 30 26
16 52 30 58 30 5 0 31 15 58 33 27 17 76 48 108 69 133 83 363 281 494 425 54
59 150 196 148 209 0 4 3 10 8 13 4 3 24 29 42 56 19 28 37 52 40 55 10 8 51
83 67 120 9 19 24 53 34 74 11 22 17 43 14 48 -3 4 -1 8 5 8 10 0 32 58 48
128 7 30 7 42 -1 42 -6 0 -6 4 2 9 20 12 28 64 31 190 2 84 -1 111 -9 106 -9
-6 -9 -2 -1 14 13 23 -3 188 -20 206 -5 5 -9 18 -9 30 0 11 -6 29 -14 40 -7
11 -16 33 -20 48 -4 16 -15 38 -26 49 -21 23 -55 89 -52 101 1 4 -4 7 -11 7
-8 0 -19 11 -25 25 -7 14 -16 31 -22 38 -47 57 -60 76 -60 86 0 6 -6 11 -14
11 -8 0 -38 27 -66 59 -33 38 -63 62 -81 66 -16 4 -32 12 -36 19 -5 7 -26 24
-48 38 -43 27 -145 119 -145 130 0 8 28 0 45 -12z m-428 -100 c26 -16 53 -30
60 -30 18 0 16 -25 -2 -40 -8 -7 -15 -9 -15 -4 0 5 -17 20 -38 34 -39 25 -72
55 -72 65 0 12 22 4 67 -25z m-49 -90 c28 -14 52 -30 52 -36 0 -6 -10 -20 -22
-31 l-23 -21 -35 29 c-19 16 -45 29 -57 29 -27 0 -29 10 -7 52 14 27 18 29 28
17 6 -8 35 -26 64 -39z m-48 -140 c0 -5 8 -6 17 -3 12 5 9 -4 -11 -30 -34 -44
-44 -48 -76 -28 -37 23 -50 38 -50 56 0 8 -7 18 -15 21 -19 8 -19 19 -1 37 13
13 23 11 75 -14 34 -16 61 -33 61 -39z m-163 -197 c9 -16 8 -23 -4 -36 -41
-41 -135 67 -97 112 15 17 18 16 52 -18 21 -20 42 -46 49 -58z m77 68 c3 -5
-1 -15 -10 -22 -13 -10 -17 -10 -25 2 -5 8 -9 17 -9 22 0 10 38 9 44 -2z
m-254 -202 l43 -42 -18 -31 c-10 -17 -39 -51 -64 -76 -67 -66 -255 -271 -259
-281 -2 -5 -9 -9 -15 -9 -7 0 -18 -9 -25 -20 -13 -21 -42 -28 -42 -10 0 5 -11
12 -25 16 -30 8 -32 19 -4 42 11 9 41 47 66 85 25 37 50 67 54 67 5 0 8 4 6 9
-2 8 44 77 82 120 12 13 21 27 21 32 0 4 15 22 33 41 18 18 43 48 56 66 12 17
28 32 35 32 8 0 33 -19 56 -41z m100 21 c0 -5 -4 -10 -10 -10 -5 0 -10 5 -10
10 0 6 5 10 10 10 6 0 10 -4 10 -10z m-545 -563 c11 -11 7 -18 -20 -40 -41
-33 -50 -25 -22 19 25 39 24 38 42 21z m-280 -307 c-3 -5 -12 -7 -20 -3 -21 7
-19 13 6 13 11 0 18 -4 14 -10z m25 -38 c0 -5 11 -14 25 -20 28 -13 64 -72 43
-72 -17 1 -38 18 -66 54 -24 31 -28 46 -12 46 6 0 10 -4 10 -8z m-90 -33 c0
-22 94 -132 120 -141 22 -7 -7 -53 -71 -112 -83 -77 -117 -93 -166 -78 -21 7
-53 25 -72 40 l-33 28 20 45 c11 24 28 53 36 64 26 33 80 107 91 124 19 29 47
50 61 44 8 -3 14 -9 14 -14z"/>
<path d="M2051 2944 c0 -11 3 -14 6 -6 3 7 2 16 -1 19 -3 4 -6 -2 -5 -13z"/>
</g>
</svg>
