<?xml version="1.0" standalone="no"?>
<!DOCTYPE svg PUBLIC "-//W3C//DTD SVG 20010904//EN"
 "http://www.w3.org/TR/2001/REC-SVG-20010904/DTD/svg10.dtd">
<svg version="1.0" xmlns="http://www.w3.org/2000/svg"
 width="513.000000pt" height="413.000000pt" viewBox="0 0 513.000000 413.000000"
 preserveAspectRatio="xMidYMid meet">
<metadata>
Created by potrace 1.16, written by Peter Selinger 2001-2019
</metadata>
<g transform="translate(0.000000,413.000000) scale(0.100000,-0.100000)"
fill="#000000" stroke="none">
<path d="M1340 3976 c-29 -17 -138 -51 -192 -61 -26 -5 -38 -13 -38 -24 0 -14
-2 -14 -10 -1 -8 12 -22 8 -92 -27 -90 -45 -132 -75 -120 -88 4 -5 2 -5 -5 -1
-15 8 -88 -36 -123 -74 -44 -49 -125 -143 -139 -162 -7 -11 -29 -37 -50 -58
-40 -42 -138 -221 -153 -279 -5 -20 -11 -61 -13 -91 -3 -30 -7 -62 -10 -70
-12 -29 -16 -358 -6 -438 11 -88 46 -218 80 -295 84 -194 180 -355 202 -342 5
4 6 -1 3 -9 -6 -15 24 -65 38 -66 8 0 30 -18 96 -78 21 -18 54 -40 75 -49 20
-8 37 -19 37 -24 0 -5 4 -9 9 -9 5 0 47 -22 93 -48 46 -26 103 -55 128 -64 66
-25 175 -32 261 -18 41 6 87 14 103 16 52 8 280 95 381 145 137 68 155 79 155
90 0 6 4 8 9 4 10 -5 61 40 96 85 11 14 35 38 54 53 19 16 44 47 56 70 106
206 108 212 160 392 15 50 31 103 37 118 6 16 12 43 13 60 2 18 4 32 5 32 17
0 17 389 0 430 -7 17 -14 41 -16 55 -2 14 -13 43 -24 65 -11 21 -20 47 -20 57
0 26 -39 125 -55 138 -7 6 -17 25 -21 43 -4 21 -34 58 -94 116 -144 141 -170
162 -180 156 -6 -3 -7 1 -4 9 4 10 -1 18 -12 23 -11 3 -37 21 -59 38 -77 62
-241 124 -369 141 -17 2 -32 8 -35 13 -19 28 -211 49 -251 27z m130 -87 c8 -2
18 -8 22 -14 5 -6 8 -6 8 1 0 8 28 4 83 -11 45 -13 117 -31 160 -40 43 -10 80
-22 83 -27 3 -4 13 -8 22 -8 26 0 159 -87 214 -140 54 -51 152 -140 185 -167
23 -19 93 -150 93 -174 0 -8 7 -27 15 -43 26 -50 47 -119 64 -216 15 -84 15
-115 5 -246 -6 -82 -16 -159 -22 -171 -6 -11 -13 -35 -14 -52 -1 -17 -6 -31
-10 -31 -4 0 -8 -7 -8 -15 0 -8 -9 -43 -20 -77 -11 -35 -27 -85 -36 -113 -9
-27 -34 -85 -55 -128 -22 -43 -36 -83 -33 -89 4 -7 2 -8 -4 -4 -7 4 -12 2 -12
-4 0 -20 -173 -186 -225 -216 -27 -16 -79 -42 -115 -58 -36 -16 -77 -35 -92
-43 -15 -7 -53 -22 -85 -33 -32 -10 -77 -26 -100 -34 -22 -8 -52 -17 -65 -20
-12 -2 -43 -10 -68 -17 -25 -7 -92 -12 -150 -12 -86 0 -114 4 -154 21 -27 12
-54 22 -62 22 -7 0 -17 6 -21 14 -4 7 -37 27 -73 44 -77 37 -193 117 -255 176
-25 23 -48 40 -51 37 -3 -3 -2 1 1 10 3 9 -9 31 -30 54 -19 22 -35 44 -35 50
0 5 -22 54 -49 110 -27 55 -54 113 -60 128 -6 16 -15 26 -20 23 -5 -4 -7 4 -3
16 3 13 1 19 -5 15 -6 -4 -8 4 -5 20 4 19 2 24 -8 18 -8 -5 -11 -4 -7 3 8 11
-13 112 -22 112 -7 0 -6 360 1 405 3 17 9 68 13 115 4 47 16 104 26 128 10 23
16 42 13 42 -8 0 26 59 80 138 82 121 207 255 291 313 27 19 59 42 70 52 32
30 152 87 182 88 16 0 69 13 118 28 83 25 170 33 225 20z m-145 -2229 c3 -5 1
-10 -4 -10 -6 0 -11 5 -11 10 0 6 2 10 4 10 3 0 8 -4 11 -10z"/>
<path d="M3553 2052 c-12 -9 -35 -12 -64 -9 -100 11 -206 -29 -299 -113 -25
-22 -48 -40 -51 -40 -3 0 -15 -18 -27 -39 -12 -22 -26 -41 -30 -43 -23 -9 -96
-143 -107 -193 -41 -203 -44 -229 -40 -309 8 -147 51 -286 108 -349 12 -12 31
-40 42 -60 11 -21 38 -57 60 -81 22 -24 51 -58 65 -75 37 -47 141 -109 210
-125 34 -8 68 -20 76 -27 10 -9 67 -12 192 -13 l177 -1 49 29 c27 17 57 31 66
31 32 3 145 99 135 116 -3 5 0 7 7 4 8 -3 26 14 43 40 17 24 34 45 39 45 4 0
5 12 2 28 -4 16 -3 22 2 14 6 -9 12 -5 21 15 8 16 20 40 28 56 8 15 11 32 7
39 -4 6 -3 8 4 4 7 -4 15 15 22 51 7 32 21 84 31 115 24 71 27 218 6 326 -8
40 -15 73 -15 75 1 21 -28 85 -35 80 -6 -4 -8 0 -4 11 4 10 2 26 -4 37 -6 11
-12 29 -14 39 -2 10 -12 28 -22 39 -10 11 -40 47 -68 80 -27 33 -59 63 -70 67
-11 3 -34 17 -52 30 -17 13 -42 29 -55 35 -13 5 -39 18 -58 29 -19 10 -38 16
-42 13 -5 -2 -8 0 -8 5 0 28 -293 49 -327 24z m85 -88 c22 -4 32 -3 32 6 0 9
19 11 78 5 42 -4 82 -10 87 -15 6 -4 27 -13 49 -20 51 -16 192 -103 234 -143
74 -72 116 -162 147 -322 12 -64 13 -205 2 -265 -14 -69 -90 -279 -107 -295
-11 -10 -20 -24 -20 -30 0 -24 -145 -150 -211 -183 -72 -36 -171 -52 -289 -45
-73 4 -216 37 -270 61 -55 24 -140 83 -140 95 0 7 -20 34 -45 62 -25 27 -48
57 -51 67 -3 10 -10 16 -15 12 -5 -3 -8 -2 -7 3 4 14 -13 53 -23 53 -5 0 -9
-4 -9 -10 0 -5 -5 -10 -10 -10 -7 0 -7 6 -1 19 8 14 6 25 -7 42 -55 75 -68
133 -65 274 3 146 6 174 16 168 4 -2 7 7 7 20 0 27 26 121 43 157 14 28 13 28
67 94 21 27 37 53 34 58 -3 5 -1 7 4 6 5 -2 35 21 67 50 32 28 63 52 69 52 6
0 25 7 41 16 47 26 208 36 293 18z"/>
</g>
</svg>
