<?xml version="1.0" standalone="no"?>
<!DOCTYPE svg PUBLIC "-//W3C//DTD SVG 20010904//EN"
 "http://www.w3.org/TR/2001/REC-SVG-20010904/DTD/svg10.dtd">
<svg version="1.0" xmlns="http://www.w3.org/2000/svg"
 width="397.000000pt" height="487.000000pt" viewBox="0 0 397.000000 487.000000"
 preserveAspectRatio="xMidYMid meet">
<metadata>
Created by potrace 1.16, written by Peter Selinger 2001-2019
</metadata>
<g transform="translate(0.000000,487.000000) scale(0.100000,-0.100000)"
fill="#000000" stroke="none">
<path d="M1947 4661 c-16 -16 -16 -19 -2 -24 8 -4 15 -14 15 -22 0 -9 4 -14 8
-11 19 12 9 -53 -17 -108 -40 -86 -54 -133 -49 -167 l5 -30 -186 7 c-102 3
-201 9 -220 13 -30 6 -32 8 -20 21 30 31 30 125 0 184 -21 39 -26 43 -42 33
-26 -16 -24 -53 5 -78 20 -17 22 -26 16 -54 -4 -18 -20 -51 -36 -74 l-29 -40
-97 0 c-98 0 -113 4 -98 28 4 8 4 26 0 42 -6 19 -4 30 3 33 7 2 1 8 -12 12
-19 6 -21 9 -9 13 14 5 14 11 2 51 -7 25 -18 64 -24 88 -9 35 -15 42 -35 42
-22 0 -25 -4 -25 -36 0 -19 4 -33 8 -30 12 7 52 -124 52 -171 0 -58 -19 -70
-129 -82 -51 -6 -96 -9 -100 -9 -11 3 -115 -24 -161 -42 -25 -10 -70 -28 -101
-40 -60 -23 -131 -84 -162 -138 -10 -17 -17 -34 -17 -37 1 -3 -2 -19 -5 -37
-10 -43 -12 -148 -2 -148 4 0 7 -7 7 -15 0 -8 11 -22 25 -31 28 -18 33 -49 9
-58 -31 -12 5 -36 55 -36 25 -1 64 -9 86 -20 22 -11 43 -19 48 -20 8 0 172
-62 228 -86 40 -17 189 -165 189 -187 0 -7 11 -36 25 -63 22 -43 25 -62 26
-159 0 -60 -5 -132 -11 -160 -7 -27 -14 -59 -15 -70 -8 -51 -27 -123 -42 -155
-8 -19 -22 -51 -31 -70 -19 -43 -92 -150 -102 -150 -4 0 -26 -24 -48 -53 -22
-28 -49 -63 -61 -77 -51 -58 -57 -66 -93 -132 -7 -13 -19 -27 -25 -31 -7 -4
-13 -15 -13 -23 0 -9 -11 -30 -24 -47 -21 -28 -44 -82 -36 -82 2 0 -7 -19 -18
-42 -24 -47 -88 -234 -96 -278 -3 -17 -8 -50 -11 -75 -4 -24 -8 -47 -10 -50
-6 -9 -19 -125 -19 -175 -1 -27 -5 -53 -10 -57 -14 -10 13 -362 29 -389 4 -5
8 -25 10 -44 4 -46 105 -299 125 -315 3 -3 20 -25 37 -50 17 -25 81 -95 142
-157 61 -61 111 -116 111 -122 0 -6 11 -16 25 -21 14 -5 25 -16 25 -24 0 -8 8
-15 18 -15 9 1 62 -15 117 -35 119 -41 141 -45 355 -52 91 -3 188 -7 215 -10
136 -12 509 8 593 32 29 8 56 13 60 10 4 -2 21 1 37 8 57 24 97 35 111 29 8
-3 14 1 14 11 0 9 8 16 18 16 10 0 27 8 38 19 11 10 44 35 74 56 30 21 59 45
64 53 5 8 23 31 41 51 18 20 33 38 32 41 0 3 12 25 28 50 30 47 85 184 85 211
0 9 3 19 7 23 4 3 8 13 9 22 1 8 9 38 18 67 8 28 17 72 20 97 2 25 6 54 9 65
3 11 8 39 12 62 5 33 16 51 48 78 22 19 42 33 45 30 8 -8 106 35 148 65 23 16
45 30 47 30 23 0 131 79 149 108 12 20 31 45 41 55 25 25 95 174 102 217 3 19
8 43 11 53 15 47 4 249 -19 382 -35 194 -35 193 -137 325 -101 130 -126 159
-137 159 -6 1 -13 5 -15 9 -7 18 -66 50 -108 60 -25 6 -63 15 -85 21 -78 21
-205 11 -205 -16 0 -8 -3 -12 -8 -9 -4 2 -34 -9 -67 -25 -33 -17 -71 -32 -85
-35 -14 -3 -33 -7 -43 -10 -10 -3 -20 1 -23 10 -3 9 -10 13 -15 10 -6 -3 -16
0 -24 6 -8 6 -18 9 -24 6 -11 -7 -81 31 -81 44 0 4 -35 38 -77 75 -43 37 -90
86 -104 109 -27 42 -60 132 -65 176 -2 14 -6 41 -9 60 -16 105 -2 220 37 285
9 17 24 44 31 60 16 33 58 79 101 110 16 11 38 30 50 42 25 26 148 72 226 84
78 13 103 26 97 48 -3 13 3 22 21 31 48 21 80 85 81 162 1 26 -3 50 -9 53 -5
3 -10 14 -10 24 0 43 -53 101 -93 101 -7 0 -25 7 -42 16 -39 21 -142 49 -230
63 -38 7 -104 18 -145 26 -41 8 -108 20 -148 26 -67 11 -73 14 -69 33 8 35 28
89 50 132 18 36 18 44 6 69 -16 34 -37 43 -44 21 -3 -9 -8 -24 -11 -33 -4 -10
-8 -34 -9 -53 -1 -20 -16 -58 -34 -88 l-33 -53 -62 3 -61 3 3 49 c3 51 32 145
64 209 l19 38 -28 41 c-33 49 -42 53 -66 29z m-573 -475 c1 -57 5 -71 24 -86
12 -10 22 -23 22 -29 0 -12 40 -15 41 -3 0 4 3 19 5 34 3 19 -1 31 -16 41 -16
11 -21 26 -22 56 0 23 3 45 7 49 8 8 232 6 383 -4 l102 -6 13 -32 c8 -17 19
-47 26 -66 33 -92 35 -101 23 -121 -19 -30 -14 -48 14 -55 20 -5 29 -2 37 12
25 45 14 104 -40 207 -14 27 -23 50 -21 51 9 9 118 -8 116 -18 -8 -44 45 -155
74 -156 15 0 28 40 19 57 -21 39 -41 86 -38 90 7 6 262 -39 362 -64 55 -14
110 -28 123 -31 37 -8 79 -56 80 -93 1 -39 -23 -89 -43 -89 -8 0 -40 -17 -72
-37 -56 -35 -125 -54 -258 -69 -22 -2 -76 -11 -120 -20 -64 -13 -159 -16 -470
-16 -343 -1 -460 3 -750 28 -103 8 -266 78 -322 137 -23 23 -28 37 -28 79 0
46 3 53 41 87 52 45 257 118 352 123 64 4 74 -2 48 -31 -8 -9 -18 -32 -21 -50
-3 -19 -8 -38 -10 -41 -3 -4 2 -30 10 -57 20 -68 71 -105 119 -87 31 12 12 64
-23 64 -31 0 -44 19 -51 69 -3 28 -2 51 2 51 5 0 6 5 3 10 -3 6 -2 10 3 10 5
0 17 16 28 35 l18 34 86 4 c135 5 123 12 124 -67z m1444 -208 c9 -37 -7 -112
-29 -132 -18 -18 -108 -50 -206 -75 -78 -19 -182 -32 -303 -36 -36 -1 -78 -6
-95 -10 -24 -6 -28 -5 -18 5 6 7 62 18 125 25 176 21 245 38 338 87 47 24 95
51 106 59 25 17 54 70 54 99 0 30 18 15 28 -22z m-2241 -25 c13 -33 88 -94
158 -129 118 -57 265 -82 545 -91 182 -6 696 -8 755 -3 58 5 81 -3 30 -10 -97
-15 -363 -25 -650 -24 -286 0 -407 6 -475 24 -19 5 -72 14 -117 20 -112 15
-176 39 -234 85 -41 34 -48 45 -49 77 0 61 22 91 37 51z m1813 -284 c0 -5 -16
-17 -35 -25 -19 -8 -35 -19 -35 -24 0 -6 -6 -10 -14 -10 -7 0 -24 -8 -37 -19
-13 -10 -44 -26 -69 -34 -25 -9 -40 -16 -35 -17 6 0 -3 -8 -20 -18 -26 -15
-64 -17 -280 -18 -137 -1 -314 -5 -392 -8 -121 -6 -151 -4 -198 10 -30 10 -55
21 -55 26 0 4 -6 8 -13 8 -12 0 -99 43 -172 84 -30 17 -29 17 55 10 47 -4 96
-6 110 -6 14 0 167 3 340 6 174 4 361 11 415 17 55 5 145 13 200 16 55 2 102
7 104 9 10 9 131 3 131 -7z m-1151 -229 c32 -17 61 -26 75 -23 35 9 304 23
406 21 303 -5 461 -2 468 8 4 6 15 13 24 17 15 5 16 1 11 -26 -3 -18 -12 -39
-19 -48 -8 -9 -12 -18 -9 -21 3 -3 -1 -20 -8 -39 -12 -34 -14 -117 -4 -174 7
-34 27 -147 33 -185 8 -50 10 -58 20 -71 6 -8 18 -30 27 -51 17 -35 102 -128
119 -128 4 0 37 -28 72 -62 35 -35 75 -72 89 -83 14 -11 26 -26 27 -33 0 -7 4
-11 9 -7 5 3 12 1 16 -5 4 -6 12 -7 18 -3 7 5 26 9 42 10 48 3 117 23 150 43
86 53 132 71 180 72 63 1 132 -10 167 -28 15 -8 29 -14 30 -14 2 1 19 -6 39
-14 39 -16 172 -159 199 -212 8 -16 25 -41 39 -56 14 -16 21 -28 17 -28 -4 0
-4 -6 0 -12 5 -7 9 -19 10 -28 0 -8 8 -51 17 -95 21 -102 31 -189 29 -240 -6
-164 -26 -238 -94 -344 -66 -104 -73 -111 -155 -159 -148 -85 -183 -102 -213
-102 -16 0 -30 -4 -30 -9 0 -5 -14 -14 -31 -21 -52 -22 -60 -41 -103 -245 -2
-11 -7 -44 -10 -73 -4 -29 -16 -83 -27 -120 -21 -69 -88 -214 -101 -220 -5 -2
-8 -10 -8 -18 0 -8 -4 -14 -10 -14 -5 0 -10 -7 -10 -15 0 -23 -114 -133 -146
-141 -16 -3 -41 -19 -55 -35 -14 -15 -38 -31 -52 -34 -15 -4 -25 -10 -22 -14
7 -12 -165 -50 -254 -56 -47 -3 -89 -10 -95 -14 -12 -10 -555 -6 -596 3 -14 4
-56 7 -95 7 -109 1 -315 56 -318 84 -1 14 -21 34 -29 29 -12 -7 -38 8 -38 22
0 8 -6 14 -12 14 -7 0 -28 16 -47 35 -19 20 -40 34 -47 31 -8 -3 -11 0 -7 10
3 7 1 14 -4 14 -12 0 -103 85 -103 96 0 5 -13 23 -28 39 -27 29 -56 70 -77
105 -6 10 -17 25 -24 34 -7 9 -11 16 -7 16 4 0 -1 12 -11 27 -10 14 -19 38
-21 51 -2 14 -10 41 -19 61 -8 20 -17 45 -18 56 -7 48 -15 98 -24 137 -28 124
-14 450 23 570 8 27 18 67 21 89 9 61 112 328 140 365 14 18 25 35 25 38 0 4
12 24 28 45 15 21 34 49 42 61 8 13 34 45 57 72 24 27 51 61 60 76 10 15 28
35 41 45 37 31 140 206 147 252 1 6 5 17 8 25 3 8 13 49 21 90 9 41 21 96 27
122 20 87 5 337 -21 373 -14 18 -39 85 -32 85 4 -1 31 -14 61 -30z"/>
<path d="M2850 2456 c-67 -25 -113 -44 -187 -77 -48 -22 -57 -23 -48 -9 3 6 2
10 -2 10 -5 0 -14 -9 -21 -20 -7 -11 -18 -20 -25 -20 -15 0 -11 -56 4 -66 5
-3 9 -20 9 -39 0 -19 6 -38 14 -42 7 -4 19 -26 26 -48 7 -22 21 -52 31 -67 11
-14 19 -34 19 -43 0 -9 3 -14 8 -12 4 3 8 -10 10 -29 1 -19 9 -45 16 -57 17
-25 58 -163 58 -189 -1 -10 3 -20 9 -23 5 -4 9 -19 9 -35 0 -16 6 -44 14 -62
8 -18 22 -50 31 -70 9 -21 20 -38 26 -38 5 0 19 -8 30 -19 26 -24 76 -20 179
15 105 36 163 82 212 169 22 39 39 70 38 70 -1 0 1 7 4 15 10 31 30 136 29
150 -8 67 -15 117 -18 130 -2 8 -7 31 -10 50 -12 80 -29 130 -44 130 -8 0 -12
3 -8 6 3 4 -6 23 -21 43 -15 20 -31 42 -37 49 -11 15 -50 55 -75 76 -15 14
-90 49 -125 60 -56 16 -93 14 -155 -8z m205 -97 c71 -36 76 -40 131 -108 38
-48 62 -99 69 -146 27 -191 27 -190 0 -280 -36 -116 -71 -161 -164 -207 -77
-38 -142 -53 -184 -43 -21 6 -28 19 -46 78 -12 40 -31 99 -42 132 -12 33 -25
78 -29 100 -4 22 -19 63 -34 91 -14 29 -26 60 -26 71 0 10 -11 38 -24 63 -25
49 -48 134 -43 163 4 23 88 68 202 109 65 23 109 18 190 -23z"/>
<path d="M1770 1700 c-30 -4 -75 -15 -99 -24 -24 -9 -55 -18 -69 -21 -26 -4
-201 -91 -262 -130 -57 -36 -113 -106 -159 -200 -58 -118 -101 -228 -101 -259
0 -13 -4 -27 -9 -30 -28 -17 -14 -245 23 -376 14 -47 28 -107 32 -135 9 -60
24 -78 60 -69 23 6 25 4 19 -15 -5 -17 -1 -23 20 -31 15 -6 32 -7 38 -3 7 4
149 9 317 9 168 1 355 4 416 8 61 3 169 7 240 9 71 2 140 9 154 15 14 6 21 11
17 11 -5 1 -1 8 7 17 9 8 16 29 16 46 0 16 13 70 30 118 24 73 29 105 29 182
0 51 -4 120 -9 153 -5 33 -12 87 -15 120 -12 126 -96 330 -148 360 -18 10 -59
39 -92 64 -33 26 -78 58 -100 71 -22 13 -43 29 -47 34 -4 6 -8 7 -8 3 0 -5
-11 1 -25 12 -14 11 -39 23 -55 26 -17 4 -30 11 -30 16 0 6 -4 8 -9 5 -5 -3
-31 1 -57 9 -27 8 -53 14 -59 14 -5 -1 -35 -5 -65 -9z m121 -76 c30 -9 78 -29
108 -45 29 -17 55 -28 58 -25 5 5 27 -12 97 -75 23 -20 57 -44 76 -54 19 -10
43 -25 53 -33 21 -19 63 -106 76 -160 5 -20 16 -62 25 -92 8 -30 17 -80 20
-110 3 -30 9 -77 14 -105 5 -27 6 -88 3 -135 l-6 -85 -45 3 c-25 2 -72 11
-105 19 -33 9 -82 17 -108 18 -26 1 -52 6 -58 12 -5 5 -10 31 -11 57 0 25 -5
49 -9 52 -5 3 -7 10 -3 15 19 31 -47 99 -95 99 -9 0 -34 9 -56 20 -22 11 -47
20 -57 20 -28 0 -31 18 -6 53 18 26 23 45 23 97 0 36 -7 81 -14 100 -37 94
-46 112 -72 142 -16 17 -29 35 -29 39 0 4 -13 11 -28 17 -24 8 -31 7 -40 -9
-6 -10 -9 -31 -6 -47 4 -21 -6 -56 -42 -133 -39 -85 -48 -113 -47 -157 1 -29
7 -60 15 -69 7 -9 8 -14 3 -11 -9 5 -91 -15 -157 -38 -9 -3 -28 -32 -43 -65
-15 -34 -33 -59 -41 -59 -12 0 -14 -12 -8 -74 l7 -74 -39 -12 c-22 -6 -55 -14
-74 -17 -19 -3 -42 -11 -50 -17 -33 -28 -38 -26 -53 22 -35 106 -46 232 -27
310 6 26 15 63 19 82 10 46 80 190 129 265 63 98 237 203 414 250 112 29 119
29 189 9z m-104 -306 c9 -18 19 -46 20 -62 2 -16 8 -35 14 -43 17 -20 4 -88
-23 -122 -26 -33 -55 -42 -42 -13 4 9 8 56 10 105 2 77 0 88 -17 97 -18 10
-18 13 -4 40 9 17 18 30 20 30 2 0 12 -15 22 -32z m-83 -130 c3 -21 1 -49 -5
-64 -8 -24 -12 -25 -24 -13 -12 12 -11 22 3 66 9 28 18 50 19 50 0 -1 4 -19 7
-39z m-18 -233 c34 -29 60 -32 85 -9 14 13 29 15 68 9 28 -4 53 -11 57 -16 3
-5 13 -9 23 -9 10 0 24 -7 31 -15 11 -13 0 -15 -91 -16 -57 0 -164 -2 -237 -2
-72 -1 -132 -1 -132 0 0 1 4 13 10 27 7 18 22 29 57 40 69 21 96 19 129 -9z
m-202 -153 c6 -10 161 -18 286 -14 52 2 120 4 150 5 30 1 58 6 61 11 12 16 39
-3 38 -26 0 -13 4 -48 9 -78 5 -30 8 -58 6 -61 -2 -3 -134 -7 -295 -7 l-291
-1 5 87 c3 48 6 88 6 90 2 5 20 1 25 -6z m754 -148 c32 -9 74 -25 94 -35 34
-18 37 -22 31 -52 -11 -62 21 -56 -413 -71 -47 -2 -98 -8 -113 -15 -37 -15
-112 -14 -137 1 -14 9 -37 10 -95 1 -42 -6 -91 -9 -108 -6 -18 3 -77 6 -132 8
-55 1 -105 3 -111 4 -13 1 -54 74 -54 94 0 27 110 70 150 60 17 -5 20 -11 15
-35 -7 -31 8 -60 28 -53 7 3 86 7 177 9 91 3 167 6 170 7 7 2 70 -2 105 -6 97
-11 232 -15 244 -7 7 6 15 31 16 58 2 27 4 50 4 52 3 8 82 0 129 -14z"/>
</g>
</svg>
