<?xml version="1.0" standalone="no"?>
<!DOCTYPE svg PUBLIC "-//W3C//DTD SVG 20010904//EN"
 "http://www.w3.org/TR/2001/REC-SVG-20010904/DTD/svg10.dtd">
<svg version="1.0" xmlns="http://www.w3.org/2000/svg"
 width="497.000000pt" height="445.000000pt" viewBox="0 0 497.000000 445.000000"
 preserveAspectRatio="xMidYMid meet">
<metadata>
Created by potrace 1.16, written by Peter Selinger 2001-2019
</metadata>
<g transform="translate(0.000000,445.000000) scale(0.100000,-0.100000)"
fill="#000000" stroke="none">
<path d="M2375 4290 c-252 -10 -321 -25 -403 -88 -21 -15 -50 -33 -66 -40 -16
-7 -26 -15 -23 -19 6 -6 -69 -109 -110 -152 -13 -13 -23 -32 -23 -42 0 -10 -4
-21 -10 -24 -5 -3 -9 -18 -9 -33 1 -28 8 -51 55 -206 l28 -88 -22 -42 c-12
-22 -22 -48 -22 -57 0 -17 30 -49 46 -49 5 0 15 -9 21 -19 14 -22 53 -131 48
-131 -2 0 2 -18 10 -40 8 -22 12 -40 8 -40 -3 0 0 -7 7 -15 6 -8 18 -47 27
-87 8 -40 25 -94 38 -120 13 -26 26 -71 28 -100 3 -29 12 -69 20 -88 8 -19 18
-75 22 -124 4 -49 13 -103 20 -120 7 -17 16 -56 19 -86 4 -30 12 -57 17 -61 6
-3 14 -35 19 -70 5 -35 13 -77 19 -94 37 -101 65 -246 67 -345 2 -154 19 -353
30 -371 3 -5 0 -9 -5 -9 -8 0 -9 -32 -5 -98 4 -53 6 -191 4 -307 -6 -575 0
-943 17 -949 7 -3 13 -11 13 -18 0 -19 36 -39 56 -31 14 5 16 2 12 -15 -7 -25
9 -41 49 -48 15 -3 53 -11 83 -17 57 -13 202 -15 280 -4 25 4 75 11 112 18 37
6 83 9 103 6 23 -3 35 -1 35 7 0 6 12 17 28 24 78 36 74 29 66 112 -4 41 -6
84 -5 95 1 11 2 27 2 35 0 100 1 290 1 390 1 157 -11 775 -17 855 -17 221 -14
319 10 436 14 65 29 128 34 140 8 20 20 86 22 121 0 4 5 22 10 40 5 18 12 51
15 73 2 22 8 58 13 80 6 22 12 65 15 95 3 30 15 80 27 110 11 30 23 73 25 95
3 22 16 85 30 140 14 55 27 118 30 140 3 22 13 69 23 105 47 165 53 187 54
213 1 15 5 27 8 27 4 0 10 11 13 25 4 14 16 35 27 46 16 16 19 28 13 67 -5 39
-1 61 20 115 23 57 32 94 51 212 2 11 7 41 13 67 10 51 4 63 -32 69 -18 4 -84
99 -69 99 4 0 -2 10 -13 23 -11 12 -26 34 -34 50 -7 15 -30 40 -49 55 -32 24
-45 27 -116 28 -44 1 -100 7 -125 12 -44 11 -172 19 -395 26 -60 1 -200 0
-310 -4z m390 -64 c77 -4 169 -7 205 -8 96 -1 257 -45 298 -80 18 -15 37 -28
42 -28 15 0 12 -46 -5 -88 -19 -44 -55 -78 -99 -91 -103 -31 -652 -46 -851
-23 -249 28 -342 68 -366 155 -9 34 -8 42 14 70 44 58 122 78 347 88 107 5
211 10 230 12 19 1 37 2 40 1 3 -1 68 -5 145 -8z m-841 -209 c8 -33 77 -94
133 -118 110 -47 402 -82 617 -74 178 7 293 13 428 24 88 7 117 14 170 40 40
20 72 44 87 66 26 38 36 43 45 20 8 -23 -7 -55 -34 -68 -21 -11 -25 -20 -27
-66 -2 -57 -12 -71 -50 -71 -12 0 -31 -12 -42 -27 -21 -25 -23 -26 -62 -13
-34 11 -48 11 -82 1 -23 -8 -69 -15 -102 -16 -41 -1 -72 -9 -97 -24 -34 -21
-39 -21 -67 -7 -32 17 -91 22 -91 8 0 -9 -44 -32 -60 -32 -6 0 -9 3 -9 8 4 22
-3 32 -24 32 -13 0 -27 -3 -31 -7 -13 -13 -173 -5 -202 10 -57 29 -70 29 -82
2 -14 -29 -27 -31 -72 -9 -18 9 -53 19 -79 22 -28 3 -57 14 -75 29 -31 26 -94
29 -103 6 -3 -7 -11 -13 -17 -13 -20 0 -79 58 -71 69 3 6 0 11 -7 11 -11 0
-10 2 0 9 11 7 11 9 -2 14 -10 4 -16 18 -16 37 0 34 -34 74 -56 66 -21 -8 -17
8 10 36 12 14 26 33 29 42 9 24 34 19 41 -7z m-66 -277 c13 0 26 -21 46 -81
17 -47 9 -61 -29 -57 -16 3 -24 19 -42 86 -20 76 -20 83 -4 68 10 -9 23 -16
29 -16z m1551 -75 c-22 -66 -33 -83 -43 -67 -7 11 25 105 43 126 24 28 24 10
0 -59z m-230 1 l24 -13 -34 -32 c-76 -69 -104 -91 -117 -91 -16 0 -64 -30 -75
-48 -6 -9 -21 -11 -53 -6 -29 4 -49 2 -59 -6 -18 -15 -45 -6 -45 15 0 8 -4 15
-9 15 -5 0 -13 10 -17 23 -8 27 -22 37 -50 37 -15 0 -23 8 -26 25 -5 21 1 27
40 42 43 16 45 16 61 -3 27 -33 46 -34 92 -3 35 23 55 29 99 29 30 1 69 7 85
15 38 17 54 17 84 1z m-930 -28 c66 -22 89 -23 129 -3 29 15 34 14 72 -4 39
-19 44 -19 67 -4 16 11 27 13 34 6 12 -12 -68 -93 -91 -93 -8 0 -23 7 -33 15
-23 17 -45 10 -75 -24 -16 -17 -26 -22 -29 -13 -2 6 -9 12 -14 12 -13 0 -136
81 -174 114 l-30 27 45 -7 c25 -4 69 -15 99 -26z m-151 -49 c51 -44 160 -109
184 -109 17 0 28 -20 28 -51 0 -10 12 -26 26 -35 19 -13 22 -19 12 -25 -7 -5
-8 -9 -3 -9 6 0 10 -54 10 -143 l-1 -142 -39 4 c-22 2 -52 9 -67 17 -15 8 -33
14 -41 14 -16 0 -33 31 -41 75 -4 17 -9 43 -12 59 -3 16 -23 66 -45 112 -35
73 -44 107 -54 189 -1 11 -3 23 -4 28 0 4 -12 7 -26 7 -30 0 -31 7 -7 31 24
25 28 24 80 -22z m543 -1 c8 -7 27 -30 43 -50 15 -21 35 -38 44 -38 18 -1 62
-61 62 -86 0 -8 4 -14 8 -14 5 0 15 -12 23 -27 7 -16 21 -39 31 -52 13 -17 16
-34 12 -70 -3 -25 -6 -72 -7 -105 0 -57 -1 -59 -34 -73 -27 -11 -73 -13 -219
-9 -102 3 -189 8 -195 11 -10 7 -5 218 7 275 4 19 12 40 18 46 6 7 20 24 31
40 39 54 140 164 150 164 6 0 18 -6 26 -12z m584 -25 c-7 -37 -36 -112 -55
-143 -5 -8 -22 -40 -36 -70 -15 -30 -32 -61 -38 -69 -5 -7 -11 -19 -12 -26 -1
-8 -15 -33 -31 -57 -16 -24 -35 -55 -42 -70 -14 -28 -36 -38 -85 -38 l-29 0 7
88 c4 48 7 97 7 109 0 13 7 24 18 28 20 6 43 48 36 67 -7 19 50 75 84 83 16 3
62 35 102 70 41 35 75 64 77 65 2 0 0 -17 -3 -37z m119 -117 c-2 -21 -11 -66
-20 -100 -15 -55 -20 -79 -40 -165 -3 -13 -9 -32 -15 -43 -7 -13 -6 -18 3 -18
10 0 10 -2 1 -8 -13 -8 -21 -39 -30 -112 -3 -25 -9 -50 -14 -56 -5 -5 -11 -26
-13 -45 -9 -60 -34 -162 -54 -224 -11 -33 -22 -86 -25 -117 -3 -32 -10 -72
-16 -90 -5 -18 -15 -64 -21 -103 -16 -98 -31 -167 -41 -185 -9 -16 -12 38 -11
180 2 112 2 157 -2 269 -2 77 1 97 16 116 21 26 23 52 7 57 -15 5 -4 72 15 91
9 8 12 28 9 57 -5 46 14 147 29 156 4 3 8 14 8 24 0 19 33 91 54 118 5 8 11
23 13 34 2 11 31 76 65 144 l62 125 11 -33 c6 -18 10 -51 9 -72z m-1384 47
c12 -27 23 -57 26 -68 2 -11 10 -36 17 -55 8 -19 26 -73 42 -120 15 -47 39
-100 53 -119 14 -18 26 -47 28 -63 2 -17 11 -53 20 -82 32 -104 44 -170 46
-247 1 -44 4 -79 8 -79 3 0 6 -8 6 -17 5 -160 17 -430 21 -435 2 -5 -1 -16 -6
-25 -9 -16 -11 -14 -12 10 -1 15 -2 30 -4 35 -1 4 -5 21 -10 37 -4 17 -12 35
-17 41 -5 7 -8 16 -6 20 4 16 -14 98 -27 124 -7 14 -15 52 -18 84 -3 33 -11
62 -17 66 -6 4 -14 40 -16 81 -3 41 -15 106 -26 144 -11 39 -22 92 -24 120 -3
31 -14 64 -29 88 -14 20 -28 59 -31 85 -3 26 -16 76 -29 112 -13 36 -33 94
-43 130 -17 57 -18 67 -5 82 8 9 14 29 13 45 -5 70 11 72 40 6z m396 -482 c1
-1 4 -15 6 -32 5 -30 4 -31 -25 -25 -16 3 -47 6 -69 6 -40 0 -56 16 -44 46 5
13 18 15 68 10 35 -2 64 -5 64 -5z m606 -35 c3 -38 0 -46 -17 -50 -48 -13 -56
-8 -53 35 2 40 17 58 49 59 13 0 18 -11 21 -44z m-317 22 c22 -1 77 2 122 5
l83 7 -5 -51 c-6 -64 -10 -69 -46 -69 -16 0 -38 -5 -49 -12 -14 -9 -32 -10
-71 -2 -51 11 -109 1 -109 -18 0 -11 -29 2 -90 40 -30 19 -57 36 -58 37 -2 2
-7 19 -12 39 l-8 36 102 -6 c55 -3 119 -6 141 -6z m-296 -129 c43 -15 39 -29
-6 -25 -21 2 -46 4 -55 5 -10 0 -18 8 -18 16 0 18 34 20 79 4z m321 -109 c41
-11 91 -18 138 -19 20 -1 32 -6 32 -15 0 -10 -19 -15 -62 -19 -69 -6 -325 -3
-332 4 -2 2 -6 13 -8 24 -3 17 4 20 47 23 27 2 52 5 54 8 8 8 96 4 131 -6z
m265 -37 c-24 -17 -45 -17 -45 1 0 17 18 25 44 18 18 -5 18 -6 1 -19z m-548 2
c0 -10 -11 -15 -36 -15 -33 0 -34 1 -15 15 25 19 51 19 51 0z m373 -82 l65 1
8 -44 c5 -26 5 -64 -1 -94 -5 -28 -10 -84 -11 -125 -1 -41 -4 -78 -6 -81 -2
-4 -6 -51 -9 -106 -3 -54 -9 -112 -14 -129 -5 -16 -8 -37 -7 -47 4 -21 -21
-26 -166 -27 l-117 -2 -5 63 c-11 167 -18 238 -29 293 -6 33 -12 98 -12 145
-1 47 -5 100 -10 118 l-8 32 59 1 c32 0 83 0 114 -1 34 -1 60 3 64 10 5 8 10
8 14 2 3 -5 35 -9 71 -9z m174 -15 c-3 -13 -5 -45 -5 -71 0 -38 11 -395 13
-417 0 -3 0 -30 -1 -61 l-1 -57 -40 -4 c-26 -2 -41 1 -45 10 -6 15 3 171 11
184 3 4 1 8 -4 8 -5 0 -8 12 -7 28 2 15 6 74 10 131 7 95 10 127 15 141 1 3 2
29 1 58 -2 63 2 72 34 72 20 0 23 -4 19 -22z m-547 6 c-3 -3 1 -24 9 -46 8
-22 13 -64 12 -92 -2 -46 6 -125 18 -196 10 -57 16 -287 8 -293 -5 -3 -34 0
-64 7 -53 12 -55 14 -62 52 -4 21 -7 77 -7 124 0 47 -3 167 -6 268 l-6 182 52
0 c29 0 50 -3 46 -6z m38 -694 c97 -16 357 -14 425 3 3 1 24 -6 48 -16 34 -14
42 -22 43 -44 2 -41 3 -46 16 -69 6 -11 12 -65 14 -120 1 -54 3 -130 4 -169
24 -619 26 -732 14 -783 -6 -26 -11 -135 -11 -242 -1 -230 -5 -269 -27 -278
-9 -3 -20 -12 -26 -19 -19 -24 -130 -44 -282 -50 -129 -5 -159 -3 -205 12 -29
10 -65 17 -80 17 -22 -1 -28 4 -28 21 2 95 -12 1195 -15 1242 -7 106 -7 379 0
420 15 97 8 92 110 75z"/>
</g>
</svg>
