<?xml version="1.0" standalone="no"?>
<!DOCTYPE svg PUBLIC "-//W3C//DTD SVG 20010904//EN"
 "http://www.w3.org/TR/2001/REC-SVG-20010904/DTD/svg10.dtd">
<svg version="1.0" xmlns="http://www.w3.org/2000/svg"
 width="421.000000pt" height="463.000000pt" viewBox="0 0 421.000000 463.000000"
 preserveAspectRatio="xMidYMid meet">
<metadata>
Created by potrace 1.16, written by Peter Selinger 2001-2019
</metadata>
<g transform="translate(0.000000,463.000000) scale(0.100000,-0.100000)"
fill="#000000" stroke="none">
<path d="M1917 4536 c-3 -8 -26 -28 -51 -45 -35 -24 -55 -31 -93 -31 -26 0
-54 4 -62 9 -19 12 -58 -6 -64 -31 -3 -11 1 -34 8 -52 10 -23 11 -44 5 -72 -5
-21 -10 -59 -11 -82 -2 -30 -10 -50 -26 -65 -12 -12 -23 -27 -23 -32 0 -6 -24
-36 -52 -67 -46 -48 -69 -63 -163 -103 -60 -26 -128 -55 -150 -65 -22 -10 -70
-29 -106 -43 -138 -53 -241 -128 -365 -263 -99 -109 -116 -131 -164 -219 -18
-33 -36 -62 -39 -65 -14 -11 -71 -131 -104 -220 -69 -186 -81 -226 -92 -304
-4 -25 -10 -46 -14 -46 -4 0 -8 -12 -9 -26 -1 -15 -6 -32 -11 -38 -13 -16 -25
-126 -31 -281 -1 -18 9 -209 15 -290 6 -84 45 -236 75 -295 10 -19 41 -79 69
-134 27 -54 57 -106 66 -115 8 -10 15 -21 15 -24 0 -4 8 -15 18 -26 36 -39 68
-85 212 -308 18 -29 37 -53 42 -53 5 0 7 -4 4 -8 -3 -5 4 -19 15 -30 10 -12
19 -24 19 -27 0 -3 0 -9 0 -13 0 -5 9 -18 20 -30 12 -12 18 -22 14 -22 -4 0 5
-13 20 -29 31 -32 39 -46 82 -131 15 -30 38 -73 53 -95 14 -22 34 -56 46 -76
11 -20 37 -56 58 -79 55 -63 56 -78 10 -189 l-39 -96 -47 -3 c-31 -2 -55 2
-69 12 -12 9 -30 16 -40 16 -10 0 -18 5 -18 10 0 11 -60 14 -61 3 0 -5 -2 -18
-3 -31 -5 -41 19 -59 101 -76 43 -9 98 -21 122 -27 43 -10 58 -4 63 26 17 99
68 225 92 225 12 0 52 -25 76 -48 8 -8 30 -21 48 -29 19 -8 51 -25 72 -38 20
-13 57 -29 81 -35 43 -12 79 -25 109 -40 9 -4 43 -13 75 -20 33 -6 123 -32
200 -56 167 -52 183 -54 395 -61 126 -4 182 -1 235 10 92 21 232 48 270 54 60
9 76 14 70 23 -3 5 1 7 9 4 9 -3 48 13 88 36 40 23 87 44 104 47 29 5 32 2 52
-45 12 -28 22 -64 22 -79 0 -16 6 -38 14 -48 14 -19 16 -19 98 -2 45 10 115
24 153 30 39 6 72 14 75 17 3 4 11 9 19 12 12 3 10 9 -8 27 -12 12 -20 29 -17
37 7 19 -23 18 -66 -1 -54 -24 -198 -48 -213 -35 -7 6 -18 31 -25 55 -7 25
-17 45 -21 45 -5 0 -9 11 -9 24 0 17 18 40 61 77 90 80 117 106 199 198 41 47
80 89 86 95 12 13 84 135 84 143 0 4 7 13 15 22 32 34 65 79 65 89 0 14 63
121 115 197 40 58 49 78 102 230 21 63 55 181 69 246 8 39 12 54 14 57 2 1 3
5 4 10 4 19 49 182 62 222 41 127 55 181 60 245 4 39 11 78 16 88 5 10 11 32
14 50 10 66 13 83 24 132 7 28 14 61 16 75 6 31 22 98 31 125 10 36 3 284 -12
370 -14 81 -67 227 -94 254 -80 83 -126 140 -166 203 -17 27 -33 48 -36 48 -4
0 -10 11 -13 25 -4 14 -11 25 -16 25 -6 0 -10 9 -10 19 0 11 -6 26 -14 33 -7
8 -21 28 -29 45 -30 57 -258 273 -289 273 -5 0 -16 7 -24 15 -9 8 -48 24 -87
35 -40 12 -115 34 -167 51 -52 16 -126 36 -165 45 -38 8 -101 24 -140 35 -38
10 -87 19 -108 19 -21 0 -46 4 -56 10 -10 5 -44 12 -77 15 -32 3 -75 10 -94
16 -19 5 -51 9 -71 9 -45 0 -112 23 -147 50 -15 12 -44 46 -64 76 -21 31 -50
68 -65 85 -16 16 -36 50 -45 76 -16 47 -18 48 -56 47 -23 0 -51 -9 -68 -21
l-28 -20 -53 23 c-62 28 -79 30 -86 10z m83 -101 c15 -8 30 -20 33 -27 4 -11
8 -11 23 0 11 7 27 15 37 18 9 4 17 10 17 15 0 19 37 8 47 -13 6 -13 30 -48
55 -78 24 -30 53 -69 63 -87 34 -58 96 -100 171 -117 155 -33 313 -65 379 -75
187 -29 267 -45 359 -75 56 -18 133 -41 171 -51 96 -24 167 -64 253 -140 40
-36 69 -65 65 -65 -4 0 4 -8 17 -17 14 -10 33 -28 43 -40 10 -13 24 -29 31
-36 7 -7 28 -44 46 -82 30 -63 71 -129 121 -193 9 -12 48 -56 86 -96 51 -54
72 -85 80 -117 6 -24 18 -70 27 -102 9 -31 15 -61 14 -65 -2 -7 8 -142 18
-238 2 -28 -1 -64 -7 -80 -10 -27 -33 -118 -43 -174 -3 -14 -14 -59 -24 -100
-18 -70 -22 -94 -37 -225 -6 -52 -22 -112 -35 -130 -8 -11 -5 -1 -66 -235 -24
-96 -49 -186 -54 -200 -5 -14 -11 -38 -14 -55 -5 -29 -27 -99 -61 -193 -17
-48 -54 -124 -64 -132 -18 -15 -66 -87 -93 -142 -16 -34 -45 -82 -62 -107 -18
-25 -51 -77 -73 -116 -28 -47 -85 -115 -175 -205 -125 -127 -225 -218 -231
-209 -13 21 -67 140 -67 148 0 14 -26 68 -98 202 -22 41 -43 89 -47 108 -4 18
-15 52 -25 75 -10 22 -21 67 -23 98 -3 31 -8 62 -12 68 -4 6 -2 17 4 24 9 11
2 18 -31 36 -50 26 -102 70 -106 91 -2 8 -11 18 -20 23 -9 5 -46 39 -82 75
-36 37 -99 92 -140 123 -116 87 -210 185 -210 219 0 29 -11 48 -24 43 -33 -13
-59 68 -71 221 -3 39 -8 77 -10 85 -3 8 -7 79 -9 158 -3 78 -7 145 -9 150 -9
13 -19 312 -12 352 l7 40 41 -7 c23 -3 47 -12 54 -19 7 -7 39 -27 70 -45 32
-18 60 -36 61 -41 2 -4 10 -8 17 -8 7 0 15 -3 17 -7 5 -13 81 -59 127 -77 24
-9 55 -26 69 -37 14 -10 29 -19 34 -19 5 0 49 -28 98 -62 49 -35 112 -78 141
-96 l52 -32 106 24 c95 22 195 38 416 67 39 5 99 16 135 23 97 21 184 36 207
36 17 0 21 8 27 47 3 25 4 48 2 51 -3 2 -24 -3 -48 -12 -24 -9 -72 -21 -108
-26 -36 -6 -117 -19 -180 -30 -63 -11 -149 -25 -190 -31 -41 -5 -137 -22 -213
-35 -134 -25 -139 -25 -165 -7 -15 9 -43 26 -62 36 -19 11 -64 38 -100 61 -99
65 -132 83 -222 127 -46 23 -96 51 -113 63 -16 12 -52 35 -80 51 -27 15 -60
38 -71 51 -12 12 -45 30 -73 40 -42 16 -51 23 -52 44 -1 22 -1 115 1 201 0 17
8 29 25 37 47 22 122 87 155 137 30 44 52 92 79 175 11 34 14 236 4 253 -4 6
-8 19 -10 27 -8 57 -17 88 -32 110 -9 14 -22 36 -29 50 -13 25 -72 70 -92 70
-5 0 -10 6 -10 14 0 8 -20 24 -44 36 -65 31 -199 24 -274 -14 -70 -36 -129
-90 -151 -140 -31 -69 -61 -165 -61 -194 0 -15 0 -56 0 -92 0 -63 30 -185 54
-221 16 -23 98 -119 121 -141 26 -25 137 -78 163 -78 11 0 22 -7 26 -15 7 -20
21 -147 17 -160 -1 -5 -3 -31 -2 -56 0 -51 -11 -63 -99 -108 -25 -13 -61 -36
-80 -52 -50 -43 -54 -45 -81 -59 -13 -7 -63 -39 -111 -71 -49 -33 -90 -59 -93
-59 -3 0 -34 -20 -69 -44 -36 -24 -79 -47 -97 -51 -30 -7 -36 -3 -80 46 -26
30 -54 65 -61 79 -7 14 -18 28 -25 33 -7 4 -37 44 -68 90 -30 45 -77 108 -103
139 -98 117 -168 206 -187 239 -11 19 -27 45 -35 59 -46 78 -80 98 -100 61
-12 -23 -1 -60 24 -80 9 -7 16 -19 16 -27 0 -7 6 -17 13 -21 6 -4 25 -26 42
-48 16 -22 32 -42 35 -45 4 -3 18 -23 32 -45 14 -22 48 -63 74 -92 27 -28 69
-79 94 -113 44 -60 95 -126 128 -165 9 -11 28 -36 42 -56 33 -48 69 -93 102
-131 l28 -30 47 27 c27 16 76 48 111 71 35 24 65 44 67 44 9 0 183 121 195
135 7 8 16 15 20 15 4 0 44 25 89 55 112 75 118 74 125 -22 3 -43 5 -85 5 -93
1 -40 9 -139 14 -175 7 -47 20 -211 18 -240 -1 -11 3 -49 9 -85 5 -36 12 -94
15 -130 3 -36 7 -83 9 -105 2 -22 1 -44 -2 -49 -3 -6 -6 -20 -7 -31 -1 -25
-37 -72 -81 -106 -67 -51 -183 -146 -274 -225 -57 -48 -114 -88 -143 -99 -35
-13 -51 -26 -58 -44 -5 -14 -14 -34 -19 -43 -6 -10 -10 -28 -10 -41 0 -13 -14
-44 -32 -68 -17 -23 -42 -70 -55 -103 -14 -33 -31 -69 -39 -80 -8 -11 -14 -28
-14 -37 0 -10 -3 -19 -8 -21 -9 -4 -72 -102 -72 -112 0 -20 -60 -145 -79 -163
-11 -12 -16 -11 -33 3 -32 29 -112 153 -166 257 -43 83 -99 168 -123 187 -3 3
-12 17 -20 32 -33 63 -81 137 -123 192 -25 32 -46 65 -46 72 0 8 -4 14 -8 14
-5 0 -15 12 -23 28 -7 15 -24 41 -36 58 -13 17 -23 34 -23 38 0 4 -19 30 -41
59 -23 29 -59 88 -80 132 -21 44 -49 98 -62 120 -32 55 -75 197 -82 270 -12
140 -15 405 -5 485 12 89 38 197 52 216 5 7 8 16 6 20 -4 16 14 94 22 99 5 3
14 30 21 60 7 30 15 55 19 55 4 0 10 10 13 23 15 58 47 131 100 220 31 54 57
102 57 107 0 5 6 13 13 17 6 4 24 24 39 43 59 77 205 230 220 230 5 0 24 11
41 23 46 34 183 102 247 122 30 10 96 37 146 60 50 24 108 48 128 55 25 8 53
32 88 73 28 34 54 64 58 67 24 16 69 122 75 175 4 33 14 75 21 94 13 31 17 33
47 28 20 -3 40 0 52 9 10 8 26 14 36 14 9 0 27 11 40 25 28 28 49 31 89 10z
m142 -478 c18 -8 48 -28 66 -45 18 -17 41 -34 51 -37 30 -9 58 -58 75 -133 17
-74 20 -205 6 -232 -4 -8 -10 -30 -13 -48 -10 -64 -88 -163 -172 -218 -37 -24
-140 -14 -208 21 -59 30 -169 158 -181 210 -19 80 -23 125 -20 180 4 61 32
165 45 165 4 0 9 10 13 23 11 46 96 116 154 128 50 10 144 3 184 -14z m60
-2254 c10 -9 18 -21 18 -28 0 -9 57 -77 117 -138 23 -23 141 -119 176 -144 22
-15 79 -68 126 -116 83 -85 124 -143 114 -160 -3 -5 4 -11 15 -14 14 -3 24
-19 32 -51 19 -71 42 -132 51 -132 4 0 10 -13 14 -30 3 -16 16 -48 27 -72 11
-23 21 -47 22 -54 1 -7 7 -18 13 -26 13 -16 107 -220 118 -258 4 -14 12 -31
18 -39 9 -10 6 -18 -11 -31 -55 -45 -155 -91 -224 -104 -40 -8 -118 -23 -173
-35 -55 -12 -122 -26 -148 -31 -27 -6 -112 -10 -190 -10 -159 0 -267 19 -397
70 -43 16 -108 34 -145 40 -37 6 -88 20 -112 31 -24 11 -74 29 -111 41 -36 11
-80 31 -97 44 -18 13 -37 24 -42 24 -8 0 -98 61 -141 95 -2 2 74 164 119 250
87 168 134 254 152 280 12 17 30 46 40 65 10 20 34 53 53 74 19 21 33 40 30
43 -2 3 21 25 52 50 31 25 64 53 72 62 8 9 49 42 90 73 134 102 182 142 233
196 28 28 55 52 60 52 6 0 19 -7 29 -17z"/>
<path d="M2875 3770 c-55 -10 -118 -19 -140 -19 -47 -1 -70 -17 -54 -38 16
-18 50 -16 160 8 52 11 114 22 139 25 85 10 93 13 76 29 -19 19 -56 18 -181
-5z"/>
<path d="M1286 3722 c-13 -22 -29 -162 -18 -162 4 0 8 -9 8 -20 0 -23 -13 -26
-35 -6 -26 22 -56 27 -76 12 -16 -12 -17 -16 -6 -30 7 -9 21 -16 31 -16 9 0
34 -11 54 -25 20 -14 39 -25 43 -25 3 0 22 -13 42 -28 58 -46 191 -113 191
-98 0 22 -30 52 -92 93 -61 42 -115 102 -124 140 -4 13 -3 43 1 66 11 67 11
100 -2 104 -6 2 -14 0 -17 -5z"/>
<path d="M3562 3689 c-33 -13 -22 -35 16 -31 16 2 33 -2 37 -9 6 -10 -20 -83
-46 -129 -40 -70 -71 -118 -87 -135 -68 -70 -159 -151 -234 -209 l-88 -66 -87
0 c-117 -1 -311 -45 -368 -84 -16 -12 -31 -21 -32 -21 -1 0 -4 -12 -8 -28 -9
-34 7 -35 42 -3 27 25 156 73 183 68 57 -10 189 -7 220 5 28 11 51 12 130 2
52 -7 109 -14 125 -16 49 -6 251 -12 235 -8 -8 3 -53 9 -100 13 -69 7 -172 29
-279 58 -8 3 19 35 69 82 109 101 201 195 220 222 8 12 22 32 31 44 26 33 87
168 92 201 7 50 -18 66 -71 44z"/>
<path d="M2773 3359 c-19 -19 27 -75 86 -106 43 -22 68 -28 120 -28 51 0 66 3
66 15 0 10 -21 18 -72 26 -86 15 -104 24 -139 69 -28 37 -43 42 -61 24z"/>
<path d="M1050 2230 c-8 -6 -11 -10 -6 -10 12 0 -143 -152 -176 -174 -13 -9
-33 -17 -43 -19 -53 -10 -144 -56 -156 -78 -5 -10 -7 -19 -4 -19 3 0 -2 -14
-10 -31 -9 -17 -14 -33 -11 -36 3 -3 13 10 22 30 32 66 107 79 157 26 25 -27
87 -24 161 7 198 85 236 105 236 120 0 9 -21 2 -68 -21 -80 -39 -215 -85 -252
-85 -34 0 -72 28 -50 37 25 10 122 114 173 187 48 67 55 84 27 66z"/>
<path d="M3320 2178 c-41 -17 -97 -32 -125 -34 -155 -9 -400 -38 -455 -54 -19
-6 -58 -10 -87 -10 -65 0 -83 -7 -83 -32 0 -19 4 -20 48 -14 47 6 182 -13 234
-33 14 -5 29 -19 33 -30 7 -22 73 -56 128 -66 80 -15 133 -84 151 -196 3 -20
10 -49 16 -64 6 -16 13 -40 15 -54 4 -31 70 -226 88 -260 18 -37 88 -112 111
-121 49 -18 66 -21 66 -11 0 14 -60 42 -74 34 -6 -3 -8 -3 -5 0 3 4 -11 25
-32 47 -51 54 -80 119 -124 280 -8 30 -24 87 -35 126 -11 39 -20 76 -20 83 0
17 24 13 46 -6 97 -88 310 -191 337 -164 5 5 -15 14 -43 21 -28 7 -54 19 -57
26 -3 8 -10 14 -17 14 -26 0 -171 108 -256 190 -51 50 -112 99 -138 111 -26
12 -61 33 -79 45 -17 13 -40 24 -50 24 -28 0 -102 29 -76 30 12 0 24 4 27 9 3
4 49 11 101 15 88 7 145 17 263 46 62 15 172 61 172 71 0 5 -1 9 -2 8 -2 -1
-37 -15 -78 -31z"/>
<path d="M2176 3734 c-11 -28 -6 -51 14 -69 24 -22 33 -15 33 24 0 47 -34 79
-47 45z"/>
<path d="M1902 3720 c-9 -15 -9 -25 0 -45 14 -31 32 -32 52 -3 20 28 20 33 0
52 -21 21 -37 20 -52 -4z"/>
<path d="M1920 1275 c-19 -23 -1 -36 57 -42 26 -2 65 -9 85 -15 36 -10 36 -11
21 -34 -14 -23 -14 -24 12 -34 14 -5 34 -10 44 -10 41 0 55 -24 53 -91 -1 -66
-12 -207 -18 -247 -18 -111 -27 -198 -18 -189 6 5 10 31 40 262 8 66 17 131
19 145 2 14 4 38 4 53 1 16 5 26 11 22 25 -15 -3 56 -35 91 -31 34 -116 80
-160 87 -22 4 -54 9 -71 13 -21 4 -34 1 -44 -11z"/>
<path d="M2266 1045 c4 -8 8 -15 10 -15 2 0 4 7 4 15 0 8 -4 15 -10 15 -5 0
-7 -7 -4 -15z"/>
<path d="M2439 760 c13 -11 30 -20 39 -20 19 0 15 3 -28 24 l-35 17 24 -21z"/>
<path d="M2146 572 c-5 -18 -5 -36 -2 -39 7 -7 19 43 13 59 -2 7 -7 -2 -11
-20z"/>
</g>
</svg>
