<?xml version="1.0" standalone="no"?>
<!DOCTYPE svg PUBLIC "-//W3C//DTD SVG 20010904//EN"
 "http://www.w3.org/TR/2001/REC-SVG-20010904/DTD/svg10.dtd">
<svg version="1.0" xmlns="http://www.w3.org/2000/svg"
 width="563.000000pt" height="477.000000pt" viewBox="0 0 563.000000 477.000000"
 preserveAspectRatio="xMidYMid meet">
<metadata>
Created by potrace 1.16, written by Peter Selinger 2001-2019
</metadata>
<g transform="translate(0.000000,477.000000) scale(0.100000,-0.100000)"
fill="#000000" stroke="none">
<path d="M4087 4504 c-1 -2 -26 -4 -55 -5 -28 -2 -52 -6 -52 -11 0 -7 -47 -53
-126 -123 -18 -16 -88 -82 -154 -147 -66 -64 -141 -134 -167 -155 -27 -21 -70
-59 -98 -85 -27 -25 -63 -57 -80 -70 -16 -12 -66 -57 -110 -99 -82 -79 -161
-152 -319 -294 -49 -44 -123 -114 -166 -155 -128 -125 -259 -241 -390 -347
-69 -55 -235 -210 -370 -344 -135 -134 -275 -269 -310 -299 -95 -80 -194 -176
-469 -452 -135 -136 -252 -253 -259 -260 -84 -87 -181 -184 -242 -242 -41 -39
-117 -114 -170 -167 -52 -53 -112 -108 -132 -124 -26 -19 -38 -35 -38 -52 0
-22 -3 -24 -24 -19 -20 5 -31 -2 -59 -34 -19 -22 -39 -40 -44 -40 -6 0 -13 -7
-17 -15 -3 -8 -12 -15 -20 -15 -30 0 -42 -58 -17 -80 3 -3 16 -27 29 -55 13
-27 27 -57 32 -65 5 -8 18 -32 30 -54 64 -118 204 -292 258 -320 15 -8 45 -32
67 -53 22 -21 55 -49 74 -63 18 -14 46 -35 61 -48 15 -12 31 -22 35 -22 3 0
26 -14 51 -31 57 -39 98 -55 155 -63 42 -6 48 -3 84 29 21 20 40 33 43 31 6
-6 42 64 42 81 0 7 -4 13 -8 13 -5 0 -16 17 -24 39 -11 27 -23 40 -42 45 -34
8 -36 10 -144 116 -48 47 -111 105 -140 130 -28 25 -54 52 -57 61 -3 9 -25 32
-49 50 -37 29 -79 75 -196 214 -14 16 -36 41 -50 56 -14 14 -35 37 -47 50
l-22 24 31 2 c26 2 42 -8 100 -64 37 -37 80 -84 94 -105 15 -21 32 -38 38 -38
7 0 19 -12 29 -27 25 -41 188 -208 297 -304 52 -46 109 -96 125 -111 17 -15
40 -35 53 -46 12 -11 22 -27 22 -36 0 -53 66 -55 102 -2 12 17 60 67 107 111
46 44 143 140 215 214 72 73 200 201 285 285 193 189 417 414 587 587 72 74
163 163 203 199 40 36 80 73 89 83 9 10 51 54 93 97 42 43 90 96 105 117 43
57 123 142 289 306 158 157 188 184 276 256 30 25 104 96 164 159 61 63 129
133 153 156 169 163 395 394 547 560 55 61 131 139 169 175 38 37 82 86 99
111 16 25 42 55 56 67 14 11 23 24 20 28 -4 3 -1 28 6 54 7 27 9 54 5 62 -4 8
-10 30 -14 50 -3 19 -17 51 -31 69 -14 19 -25 38 -25 42 0 24 -139 198 -158
198 -4 0 -34 26 -67 57 -58 55 -155 123 -185 131 -8 2 -26 5 -40 6 -14 2 -36
7 -50 11 -25 8 -78 14 -83 9z m194 -112 c39 -19 92 -56 130 -92 35 -34 74 -68
86 -77 28 -19 101 -120 138 -191 33 -63 46 -142 23 -142 -16 0 -58 36 -58 50
0 6 -4 10 -10 10 -5 0 -46 35 -89 78 -44 42 -99 95 -123 117 -24 22 -58 58
-76 80 -18 22 -66 74 -107 116 -41 43 -75 80 -75 84 0 17 100 -4 161 -33z
m-144 -74 c32 -34 132 -137 223 -229 156 -158 220 -228 229 -253 2 -6 8 -14
14 -17 5 -4 5 -9 -2 -13 -6 -4 -11 -2 -11 3 0 6 -5 11 -11 11 -25 0 -214 176
-323 301 -21 24 -82 88 -135 142 -77 79 -93 99 -81 107 27 17 39 11 97 -52z
m-191 7 c4 -9 12 -14 19 -13 23 5 124 -86 245 -222 36 -40 94 -103 129 -139
63 -65 99 -111 87 -111 -9 0 -32 19 -54 44 -9 10 -26 26 -37 35 -11 9 -39 35
-64 59 -24 23 -46 42 -48 42 -21 0 -323 296 -323 316 0 12 41 2 46 -11z m-64
-78 c34 -20 113 -90 232 -205 27 -26 63 -57 79 -69 29 -22 233 -220 290 -282
l29 -31 -54 -62 c-117 -139 -354 -388 -368 -388 -5 0 -9 -3 -7 -8 2 -7 -188
-201 -283 -288 -60 -55 -190 -190 -190 -197 0 -10 -47 -53 -82 -75 -18 -12
-46 -35 -61 -52 -16 -16 -33 -30 -38 -30 -26 0 -126 76 -189 144 -25 27 -103
108 -173 180 -71 72 -143 149 -160 170 -18 22 -58 68 -90 104 -82 92 -82 101
-11 174 70 71 106 105 188 176 117 102 211 187 296 269 47 45 100 93 117 106
18 13 31 27 28 30 -3 4 -2 5 2 2 4 -3 30 17 58 44 27 27 79 76 114 108 36 32
78 71 94 86 16 15 46 39 66 53 19 13 32 24 27 24 -8 0 35 39 44 40 3 0 21 -10
42 -23z m620 -458 c16 -14 25 -28 21 -32 -7 -8 -83 61 -83 76 0 10 14 0 62
-44z m-1612 -802 c14 -16 66 -71 115 -121 83 -83 187 -195 226 -242 22 -27
107 -102 122 -107 9 -3 8 -9 -5 -22 -15 -17 -18 -16 -45 11 -16 16 -67 63
-113 104 -46 41 -111 104 -144 138 -34 35 -74 76 -91 90 -48 43 -136 133 -192
199 -49 57 -99 154 -86 167 5 5 159 -151 213 -217z m-252 115 c64 -89 211
-247 274 -295 20 -16 53 -50 73 -76 20 -26 81 -88 136 -136 54 -49 99 -95 99
-102 0 -7 14 -22 30 -35 36 -26 37 -37 5 -61 -21 -15 -25 -15 -25 -3 0 8 -9
21 -21 29 -11 8 -19 23 -17 32 2 10 -5 22 -14 28 -14 9 -24 7 -47 -11 -36 -27
-43 -27 -40 -4 3 36 -2 53 -21 69 -11 10 -20 24 -20 33 0 9 -10 24 -22 34 -18
16 -25 17 -42 6 -11 -7 -32 -16 -48 -21 -27 -7 -28 -7 -13 14 33 48 5 104 -69
135 -31 14 -15 25 -175 -127 -68 -64 -101 -91 -113 -91 -15 0 12 30 47 52 17
10 26 18 21 18 -5 0 6 13 25 29 19 17 56 61 82 99 52 76 53 96 8 136 -16 15
-18 21 -9 28 10 5 7 14 -13 31 -24 23 -26 24 -47 7 -12 -10 -22 -23 -22 -29 0
-5 -23 -29 -52 -53 -121 -102 -190 -169 -238 -234 -19 -26 -42 -54 -50 -63 -8
-9 -16 -33 -18 -53 -3 -31 0 -37 20 -43 13 -4 26 -12 30 -18 10 -17 99 13 147
49 70 54 78 36 11 -22 -42 -36 -64 -86 -56 -126 8 -44 24 -58 73 -65 34 -4 42
0 83 40 25 25 50 51 56 59 21 26 149 141 174 156 l25 16 -27 -30 c-15 -16 -39
-47 -55 -70 -31 -45 -114 -124 -131 -124 -6 0 -21 -15 -33 -32 -13 -18 -26
-35 -30 -38 -4 -3 -9 -16 -10 -30 -5 -35 72 -92 118 -87 18 2 36 7 40 10 3 4
13 7 21 7 11 0 13 -8 8 -34 -8 -42 6 -82 32 -88 25 -7 69 12 107 46 45 40 85
68 85 59 -1 -4 -41 -51 -91 -103 l-89 -95 -19 23 c-11 12 -23 22 -28 22 -5 0
-37 26 -70 58 -33 31 -71 66 -85 77 -117 91 -340 307 -400 385 l-50 65 41 7
c33 6 121 54 141 78 14 16 141 110 149 110 5 0 18 15 30 33 11 18 30 42 43 54
13 12 32 31 42 42 10 11 23 18 27 15 5 -3 9 -4 9 -2 0 2 4 17 9 35 6 22 5 39
-5 58 -7 14 -13 29 -13 33 7 44 -27 60 -75 35 -35 -18 -123 -92 -206 -173 -31
-30 -74 -71 -96 -91 -36 -34 -83 -86 -118 -134 -14 -19 -16 -19 -32 -3 -16 16
-15 19 17 55 40 43 171 170 209 201 14 11 45 36 68 56 24 20 47 36 51 36 4 0
38 31 77 70 38 38 72 70 76 70 5 0 20 -17 36 -38z m-75 -180 c-13 -18 -34 -43
-46 -55 -12 -12 -35 -39 -51 -60 -16 -20 -35 -37 -41 -37 -6 0 -24 -12 -41
-27 -16 -16 -41 -34 -54 -41 -14 -7 -43 -26 -65 -42 -22 -16 -43 -29 -47 -30
-22 -1 -1 33 58 96 36 38 84 90 106 116 23 26 49 50 57 53 9 3 28 16 43 30 14
13 41 33 60 45 31 18 33 19 39 2 4 -10 -3 -30 -18 -50z m138 -122 c46 0 -119
-194 -225 -264 -48 -32 -96 -47 -96 -30 0 11 105 154 113 154 5 0 34 24 65 54
81 78 105 96 120 91 8 -3 18 -5 23 -5z m151 -177 c-6 -10 -34 -39 -63 -63 -28
-25 -77 -72 -108 -104 -93 -99 -112 -116 -131 -116 -59 0 -19 58 145 210 82
76 115 99 131 93 8 -3 14 1 14 8 0 9 3 10 11 2 7 -7 8 -17 1 -30z m-714 -12
c3 -8 -1 -12 -9 -9 -7 2 -15 10 -17 17 -3 8 1 12 9 9 7 -2 15 -10 17 -17z
m-62 -53 c22 -24 55 -63 74 -88 38 -49 227 -241 275 -278 52 -41 245 -223 308
-292 21 -22 24 -30 13 -30 -9 0 -16 5 -16 10 0 6 -17 19 -38 28 -43 20 -73 42
-226 171 -119 100 -417 398 -444 444 -9 15 -20 27 -24 27 -12 0 -9 25 4 38 19
19 31 14 74 -30z m933 -35 c-1 -10 2 -27 6 -37 7 -16 2 -24 -20 -40 -35 -26
-51 -41 -140 -140 -38 -43 -82 -84 -97 -92 -34 -18 -72 -18 -87 -1 -8 11 10
34 86 105 53 51 93 92 89 92 -7 0 -3 6 43 58 52 61 125 94 120 55z m-1030 -44
c13 -17 59 -65 102 -107 82 -79 94 -98 58 -89 -13 3 -40 -6 -70 -24 -28 -16
-52 -29 -55 -29 -7 0 -237 -232 -281 -283 -23 -28 -33 -49 -33 -73 0 -45 -11
-43 -45 7 -15 23 -38 51 -52 63 l-25 21 43 1 c24 1 45 7 47 13 2 6 10 11 17
11 14 0 125 109 125 123 0 4 6 7 13 7 7 0 31 18 52 40 21 22 43 40 47 40 5 0
33 23 63 52 68 64 79 102 41 134 -14 13 -26 27 -26 32 0 5 -8 17 -19 26 -18
16 -20 15 -47 -11 -16 -16 -47 -40 -69 -53 -22 -13 -60 -43 -85 -67 -25 -24
-48 -43 -51 -43 -10 0 -119 -111 -119 -121 0 -5 -6 -9 -12 -9 -19 -1 -58 -67
-58 -98 -1 -25 -2 -25 -12 -8 -6 11 -14 34 -18 52 -7 30 -4 35 73 105 121 112
203 187 276 256 36 35 73 63 82 63 8 0 26 -14 38 -31z m1164 -105 c-1 -10 -10
-23 -19 -29 -10 -5 -54 -46 -99 -90 -79 -80 -166 -155 -179 -155 -33 0 91 141
226 256 54 46 74 51 71 18z m-1163 -44 c0 -3 -33 -33 -72 -67 -40 -33 -110
-97 -155 -142 -59 -58 -90 -81 -108 -81 -14 0 -25 6 -25 13 0 24 82 114 190
209 112 97 110 96 142 84 15 -6 28 -13 28 -16z m291 -150 c14 0 11 -20 -5 -36
-8 -8 -17 -14 -19 -14 -8 0 -66 -52 -124 -112 -31 -32 -62 -58 -69 -58 -6 0
-18 -7 -25 -16 -8 -9 -31 -27 -52 -41 -42 -26 -129 -141 -137 -179 -5 -25 -6
-24 -49 20 l-43 44 53 26 c30 14 79 49 110 78 31 29 79 71 107 93 27 22 57 53
66 68 9 16 25 31 36 34 11 3 20 9 20 13 0 5 12 22 26 39 23 28 25 37 19 78
l-7 47 42 -42 c23 -23 46 -42 51 -42z m-156 11 c3 -5 -2 -17 -11 -25 -8 -9
-13 -16 -10 -16 4 0 -9 -15 -27 -32 -18 -18 -38 -40 -43 -48 -5 -8 -34 -35
-64 -60 -30 -25 -59 -50 -63 -57 -4 -7 -28 -26 -52 -43 -43 -30 -75 -39 -75
-21 0 17 192 221 208 221 4 0 14 13 23 28 23 40 99 76 114 53z m295 -144 c25
-21 56 -48 70 -60 14 -13 59 -49 100 -82 41 -33 81 -65 87 -71 7 -7 18 -15 25
-17 9 -4 8 -10 -6 -21 -18 -14 -22 -13 -55 16 -20 17 -39 40 -43 50 -4 10 -13
18 -20 18 -8 0 -70 -55 -139 -122 -70 -68 -138 -132 -151 -143 -35 -28 -88
-108 -88 -134 0 -12 -5 -21 -11 -21 -6 0 -3 -7 6 -16 17 -17 54 -20 105 -9
l28 6 -36 -40 -36 -40 -45 37 c-25 20 -51 41 -57 47 -7 5 -24 19 -40 30 -15
11 -44 34 -63 50 -43 36 -45 37 -98 75 -24 17 -43 34 -43 38 0 4 28 18 63 31
34 13 72 35 84 47 12 13 26 24 31 24 5 0 21 13 36 29 48 53 100 105 163 164
71 67 81 86 57 121 -9 14 -13 33 -10 42 7 18 8 18 86 -49z m-930 -47 c18 -28
51 -67 74 -88 24 -20 55 -55 69 -77 15 -22 43 -53 63 -70 20 -16 90 -83 156
-147 65 -65 122 -117 126 -115 4 1 23 -14 43 -33 44 -44 87 -79 117 -92 12 -6
22 -17 22 -24 0 -6 7 -14 15 -18 8 -3 15 -12 15 -21 0 -8 -7 -15 -15 -15 -8 0
-15 7 -15 15 0 8 -4 15 -8 15 -12 0 -208 153 -272 213 -103 96 -174 157 -182
157 -4 0 -8 6 -8 13 0 7 -15 21 -32 32 -18 10 -35 22 -38 25 -3 4 -36 42 -75
84 -80 88 -105 129 -105 168 0 41 14 34 50 -22z m783 33 c4 -18 -15 -42 -132
-160 -34 -34 -61 -66 -61 -72 0 -6 -4 -11 -9 -11 -5 0 -35 -16 -67 -35 -34
-20 -62 -31 -67 -26 -16 16 40 87 114 147 40 33 84 70 98 84 44 42 102 90 111
90 5 0 10 -8 13 -17z m-855 -98 c12 -19 22 -39 22 -43 0 -12 79 -92 91 -92 6
0 8 -4 5 -8 -7 -11 43 -61 160 -162 54 -47 129 -114 165 -149 37 -35 79 -71
94 -81 15 -10 40 -31 55 -46 16 -16 47 -47 69 -69 23 -22 41 -45 41 -51 0 -6
-53 -60 -117 -120 -154 -143 -333 -323 -333 -335 0 -5 -6 -9 -14 -9 -8 0 -17
-8 -21 -19 -3 -10 -67 -76 -141 -147 -75 -71 -153 -145 -173 -164 -53 -51 -92
-62 -133 -38 -18 11 -42 28 -53 38 -11 10 -34 31 -51 47 -17 15 -52 45 -77 66
-26 21 -47 45 -47 53 0 8 -6 14 -14 14 -21 0 -346 331 -346 352 0 5 11 8 25 8
14 0 29 8 35 20 7 14 7 20 0 20 -5 0 -10 9 -10 19 0 20 -18 31 -52 31 -17 0
-20 -5 -16 -41 l4 -40 -48 51 c-46 48 -48 51 -33 73 8 12 28 33 45 46 16 13
27 27 24 32 -3 5 -1 8 5 7 9 -3 302 270 340 316 9 11 52 56 96 101 44 45 98
102 121 126 67 72 238 229 249 229 5 0 20 -16 33 -35z m1165 -164 c5 -22 -10
-39 -113 -131 -41 -36 -79 -71 -86 -77 -7 -7 -16 -13 -21 -13 -5 0 -16 -9 -26
-20 -9 -11 -26 -20 -38 -20 -20 0 -19 3 10 38 17 20 36 42 42 47 6 6 41 39 77
75 69 67 132 120 143 120 4 0 9 -9 12 -19z m-2191 -836 c41 -23 88 -73 88 -94
0 -5 9 -12 20 -16 11 -3 30 -21 42 -38 68 -97 508 -527 538 -527 25 0 6 -38
-32 -63 -35 -23 -50 -27 -82 -22 -63 9 -167 75 -311 196 -152 128 -216 198
-272 296 -21 36 -47 79 -57 96 -11 18 -24 54 -31 81 -11 47 -10 50 19 82 16
19 31 34 32 34 1 0 21 -11 46 -25z"/>
<path d="M3940 3982 c-47 -15 -57 -54 -30 -117 7 -16 16 -48 21 -70 6 -34 4
-45 -17 -77 -23 -33 -100 -78 -134 -78 -6 0 -16 -5 -23 -10 -7 -6 -32 -24 -55
-41 -24 -17 -51 -44 -60 -60 -22 -38 -29 -37 -34 6 -6 49 13 88 55 114 49 30
61 84 35 160 -11 33 -16 71 -14 97 4 38 2 44 -14 44 -10 0 -28 -12 -40 -27
-18 -23 -21 -36 -16 -71 6 -44 27 -77 41 -64 5 4 4 0 0 -8 -5 -8 -8 -26 -7
-40 1 -18 -7 -31 -28 -45 -16 -11 -30 -25 -30 -30 0 -6 -5 -16 -12 -23 -16
-16 -22 -47 -23 -115 0 -31 -1 -57 -3 -57 -32 0 -92 84 -92 128 0 76 -46 124
-107 115 -18 -3 -33 -9 -33 -14 0 -5 -7 -9 -15 -9 -14 0 -13 -3 2 -25 10 -13
28 -25 39 -25 30 0 45 -22 55 -77 5 -25 16 -55 26 -65 19 -21 21 -20 -37 -24
-25 -2 -52 -5 -60 -6 -8 -1 -45 1 -81 6 -62 8 -70 6 -113 -19 -25 -15 -46 -25
-46 -23 0 3 -21 -14 -46 -37 -33 -31 -45 -49 -42 -65 5 -37 34 -32 85 14 65
58 104 71 176 59 37 -7 77 -7 113 0 57 9 134 -3 134 -22 0 -5 -23 -12 -52 -15
-106 -14 -135 -39 -145 -124 -5 -54 -41 -108 -81 -123 -15 -6 -34 -17 -42 -24
-8 -7 -17 -14 -20 -14 -38 0 -56 -35 -35 -68 l16 -23 46 35 c25 19 51 35 57
35 14 0 86 66 86 79 0 5 7 17 16 26 9 9 19 36 22 61 3 32 11 49 26 58 21 14
116 30 116 20 0 -2 -11 -26 -24 -52 -35 -69 -35 -123 1 -178 7 -11 16 -45 19
-75 5 -46 3 -58 -15 -78 -12 -13 -21 -35 -21 -48 0 -20 4 -24 23 -21 15 2 31
19 49 53 38 69 39 161 3 229 -14 26 -25 49 -25 51 0 10 65 63 72 59 4 -3 8
-18 8 -33 0 -27 41 -81 62 -81 6 0 25 -7 43 -16 24 -11 35 -24 37 -42 2 -21 9
-28 30 -30 58 -7 57 79 -1 123 -19 14 -42 25 -51 25 -19 0 -50 30 -50 48 0 7
8 12 18 13 179 6 204 4 226 -22 22 -25 63 -49 51 -29 -4 6 1 17 9 25 12 12 13
22 5 45 -14 39 -61 54 -169 55 -107 0 -122 8 -74 41 44 30 90 33 168 10 81
-23 114 -14 170 44 25 26 46 53 46 59 0 6 5 11 10 11 6 0 10 5 10 10 0 6 8 28
19 49 21 45 13 71 -23 71 -24 0 -36 -21 -36 -67 0 -24 -38 -73 -80 -103 -22
-15 -34 -18 -56 -11 -16 5 -55 15 -87 22 -36 8 -62 19 -68 31 -12 22 -60 19
-87 -5 -23 -21 -42 -22 -42 -2 0 27 45 60 137 100 48 21 93 44 98 50 46 57 79
114 77 135 -3 36 -24 114 -32 123 -4 5 -6 26 -3 47 6 39 -2 51 -27 42z"/>
<path d="M4216 3735 c-16 -12 -18 -19 -8 -40 13 -29 53 -31 78 -4 14 15 13 19
-7 38 -27 25 -37 26 -63 6z"/>
<path d="M4102 3718 c-17 -17 -15 -45 4 -52 25 -10 44 -7 60 8 12 13 10 17
-12 35 -31 24 -36 25 -52 9z"/>
<path d="M4324 3705 c-12 -30 5 -65 30 -65 19 0 26 7 31 31 5 22 3 34 -6 40
-22 14 -49 10 -55 -6z"/>
<path d="M4022 3642 c-14 -2 -27 -14 -33 -30 -9 -23 -7 -30 12 -45 28 -22 41
-18 50 17 11 39 -1 62 -29 58z"/>
<path d="M3897 3563 c-12 -22 -16 -63 -6 -68 16 -11 61 4 53 17 -4 6 1 17 11
25 18 12 18 13 -3 13 -12 0 -22 5 -22 10 0 12 -27 14 -33 3z"/>
<path d="M3211 3328 c-11 -29 -6 -40 22 -54 18 -8 26 -6 40 6 18 17 23 46 10
53 -5 2 -20 7 -36 11 -23 5 -29 3 -36 -16z"/>
<path d="M3106 3265 c-20 -20 -7 -59 21 -63 15 -2 24 5 32 29 6 17 8 35 5 40
-8 14 -41 10 -58 -6z"/>
<path d="M2832 3247 c-35 -37 -6 -64 63 -59 29 3 33 57 6 72 -30 15 -45 12
-69 -13z"/>
<path d="M2998 3221 c-25 -27 -25 -30 -10 -44 9 -8 27 -17 39 -20 32 -7 43 47
16 74 -19 19 -20 19 -45 -10z"/>
<path d="M2292 1902 c-60 -60 -121 -117 -138 -127 -16 -10 -52 -44 -81 -76
-44 -48 -51 -62 -46 -86 3 -15 6 -35 6 -43 1 -25 29 -39 78 -40 43 0 50 4 130
77 46 43 100 94 119 113 19 19 48 43 63 53 15 10 25 22 22 26 -2 5 2 14 9 21
23 18 29 66 13 92 -8 13 -18 36 -22 53 -6 28 -20 44 -38 45 -4 0 -56 -49 -115
-108z m105 -39 c-5 -27 -19 -48 -54 -81 -26 -24 -81 -75 -121 -113 -40 -38
-82 -69 -92 -69 -29 0 -38 47 -14 65 22 15 67 56 175 161 87 85 115 95 106 37z"/>
<path d="M1394 1701 c3 -5 -12 -20 -33 -35 -102 -71 -125 -150 -75 -256 42
-88 46 -109 28 -147 -9 -18 -21 -36 -26 -39 -11 -7 -40 15 -33 25 2 4 -16 29
-41 55 -86 93 -101 162 -46 219 29 30 36 46 33 75 -1 13 -51 17 -51 4 0 -4
-16 -25 -34 -46 -41 -44 -55 -107 -37 -165 6 -21 41 -79 78 -130 78 -109 77
-124 -5 -129 -62 -4 -119 29 -145 83 -22 46 -23 138 -2 155 14 12 14 15 0 30
-13 14 -13 19 -3 23 7 3 -3 3 -22 0 -19 -4 -40 -13 -47 -22 -18 -25 -11 -179
10 -218 23 -43 79 -94 125 -114 l37 -16 -50 -25 c-69 -35 -119 -29 -163 21
-18 21 -31 45 -30 57 4 35 -19 55 -48 42 -27 -13 -41 -45 -25 -61 6 -6 11 -18
11 -27 0 -9 21 -38 46 -63 25 -26 42 -47 36 -47 -18 0 -23 -32 -8 -55 11 -17
12 -25 3 -35 -7 -7 2 -4 19 8 48 33 61 52 43 63 -10 6 -5 9 19 9 18 0 31 -4
28 -9 -3 -5 2 -18 12 -29 14 -16 22 -18 50 -10 37 10 50 32 34 58 -9 15 -6 20
18 30 16 7 35 18 41 26 17 20 32 18 20 -3 -5 -10 -9 -30 -10 -45 -2 -48 -4
-58 -11 -58 -3 0 -12 -15 -18 -34 -9 -24 -22 -38 -44 -45 -44 -16 -100 -14
-137 5 -30 15 -33 15 -45 -2 -30 -40 5 -74 77 -76 123 -2 175 32 231 154 20
42 36 81 36 85 0 10 40 36 46 30 18 -17 -15 -246 -44 -307 -14 -28 -23 -35
-47 -35 -17 0 -41 -8 -54 -17 -23 -16 -23 -18 -7 -42 9 -15 24 -24 34 -23 41
8 114 51 126 76 16 32 38 113 35 126 -1 6 3 30 10 54 7 23 10 49 7 57 -3 8 -3
35 1 60 l6 46 23 -29 c13 -15 28 -34 34 -41 15 -16 32 -129 25 -153 -4 -10
-11 -19 -16 -19 -6 0 -6 -7 -1 -17 5 -10 7 -23 5 -29 -8 -22 40 -9 58 16 38
52 21 154 -45 275 -20 35 -36 68 -36 73 0 9 79 25 127 27 12 1 25 4 29 7 10
11 37 -3 72 -36 26 -24 32 -36 27 -56 -4 -14 -10 -27 -13 -30 -4 -3 -12 -15
-19 -27 -10 -17 -9 -24 2 -33 18 -15 75 -4 75 14 0 7 7 28 16 46 31 61 -11
137 -100 178 -35 17 -50 19 -82 12 -76 -18 -77 -12 -5 50 73 63 123 90 167 90
27 0 84 -28 84 -42 0 -4 9 -8 20 -8 16 0 20 -7 20 -30 0 -27 3 -30 30 -30 38
0 50 36 25 74 -23 34 -118 96 -148 96 -20 0 -23 4 -20 23 6 31 -38 57 -63 36
-9 -7 -28 -13 -42 -14 -34 0 -66 -50 -42 -66 12 -8 7 -16 -30 -49 -38 -34 -47
-37 -60 -26 -17 15 -40 10 -40 -9 0 -7 -7 -15 -15 -19 -17 -6 -21 33 -6 62 6
9 21 42 34 74 14 32 35 62 48 69 32 16 71 20 86 8 23 -20 53 7 51 47 l-1 36
-46 -7 c-102 -14 -110 -17 -136 -50 -14 -19 -36 -54 -48 -80 l-24 -46 -27 61
c-20 45 -26 69 -21 97 7 46 15 55 65 78 48 22 64 60 35 82 -21 15 -39 17 -31
4z m-184 -660 c0 -13 -28 -22 -35 -11 -3 4 1 11 7 13 20 8 28 8 28 -2z"/>
<path d="M1775 1435 c-3 -8 -7 -22 -10 -30 -3 -10 5 -19 21 -25 37 -14 41 -13
49 17 5 20 2 31 -11 40 -24 17 -44 16 -49 -2z"/>
<path d="M1872 1365 c-3 -36 27 -71 53 -62 33 13 10 95 -27 95 -20 0 -24 -6
-26 -33z"/>
<path d="M1965 1306 c-3 -9 -7 -22 -9 -28 -15 -54 88 -114 108 -63 3 10 -22
73 -38 92 0 1 -13 4 -28 8 -21 5 -29 3 -33 -9z"/>
<path d="M727 972 c-10 -10 -17 -24 -17 -31 0 -17 26 -42 35 -33 3 4 14 7 23
7 25 0 22 44 -4 61 -18 13 -23 12 -37 -4z"/>
<path d="M377 853 c-11 -11 -8 -48 5 -61 20 -20 55 -14 62 11 9 33 -45 73 -67
50z"/>
<path d="M465 737 c-26 -19 -13 -65 20 -73 24 -6 55 9 55 27 0 8 -44 59 -52
59 -2 0 -12 -6 -23 -13z"/>
<path d="M527 639 c-9 -32 13 -70 37 -67 29 4 44 51 23 72 -22 23 -54 20 -60
-5z"/>
<path d="M615 576 c-3 -9 -7 -22 -9 -30 -3 -8 4 -22 15 -32 16 -14 23 -15 45
-6 20 10 24 17 19 35 -9 28 -14 33 -43 42 -16 4 -24 2 -27 -9z"/>
<path d="M733 453 c-21 -8 -15 -51 7 -63 24 -13 60 -4 60 13 0 19 -30 57 -43
56 -7 0 -18 -3 -24 -6z"/>
<path d="M793 378 c-12 -15 -2 -48 19 -65 18 -15 55 -6 63 15 12 31 -62 75
-82 50z"/>
<path d="M920 285 c-15 -18 -5 -52 20 -65 13 -7 24 -5 40 8 l22 17 -26 28
c-29 31 -39 33 -56 12z"/>
</g>
</svg>
