<?xml version="1.0" standalone="no"?>
<!DOCTYPE svg PUBLIC "-//W3C//DTD SVG 20010904//EN"
 "http://www.w3.org/TR/2001/REC-SVG-20010904/DTD/svg10.dtd">
<svg version="1.0" xmlns="http://www.w3.org/2000/svg"
 width="419.000000pt" height="481.000000pt" viewBox="0 0 419.000000 481.000000"
 preserveAspectRatio="xMidYMid meet">
<metadata>
Created by potrace 1.16, written by Peter Selinger 2001-2019
</metadata>
<g transform="translate(0.000000,481.000000) scale(0.100000,-0.100000)"
fill="#000000" stroke="none">
<path d="M2407 4554 c-1 -1 -22 -5 -47 -8 -25 -3 -53 -7 -63 -9 -28 -5 -57
-35 -57 -57 0 -11 -3 -19 -7 -19 -35 6 -42 -2 -38 -38 3 -21 7 -99 10 -173 3
-74 7 -151 9 -170 3 -19 7 -118 11 -220 4 -102 9 -188 11 -192 9 -15 20 -347
16 -503 -3 -117 7 -383 15 -420 5 -22 6 -62 2 -90 -4 -27 -5 -81 -3 -120 2
-38 6 -164 9 -280 4 -115 9 -228 11 -250 3 -22 7 -89 10 -150 2 -60 9 -131 15
-156 6 -25 10 -79 9 -120 0 -41 -1 -98 0 -128 0 -51 -25 -113 -53 -132 -5 -4
-10 -20 -12 -37 -2 -24 -24 -54 -90 -124 -48 -51 -97 -100 -109 -108 -32 -21
-99 -91 -112 -115 -6 -11 -7 -32 -3 -47 6 -23 3 -28 -35 -43 -50 -21 -184 -51
-286 -66 -82 -11 -216 -48 -295 -81 -27 -12 -77 -24 -110 -29 -33 -4 -69 -9
-80 -11 -16 -2 -20 3 -20 26 -1 16 -7 32 -14 34 -7 2 -16 15 -21 28 -14 35
-32 38 -83 15 -25 -12 -52 -21 -59 -21 -7 0 -28 -9 -46 -20 -17 -11 -51 -23
-75 -26 -34 -5 -164 -60 -249 -105 -10 -5 -22 -9 -28 -9 -6 0 -30 -9 -53 -20
-30 -14 -48 -31 -59 -55 -15 -34 -15 -35 13 -66 28 -32 30 -49 4 -49 -16 0
-153 -78 -175 -99 -8 -8 -35 -23 -60 -34 -99 -42 -117 -53 -127 -74 -16 -34 6
-48 53 -33 20 7 32 15 25 19 -15 10 253 161 311 175 30 7 49 -11 21 -20 -50
-16 -115 -50 -134 -71 -13 -12 -27 -23 -32 -23 -5 0 -22 -9 -38 -20 -15 -12
-43 -26 -61 -32 -51 -18 -88 -49 -88 -75 0 -27 30 -32 54 -8 8 8 19 15 25 15
6 0 11 5 11 10 0 6 6 10 14 10 7 0 54 27 103 60 49 32 109 64 134 70 24 6 54
14 65 17 13 3 27 -2 35 -12 49 -59 41 -58 123 -20 41 19 82 35 90 35 9 0 24 4
34 9 19 10 174 68 294 109 43 15 78 32 78 39 0 6 6 13 13 16 9 3 9 9 1 24 -11
18 -5 22 73 53 47 18 109 35 137 38 28 3 61 11 73 19 12 8 52 19 90 24 37 5
93 19 123 30 121 46 244 57 257 23 3 -8 14 -14 25 -14 16 0 19 -5 13 -29 -5
-24 -2 -30 15 -36 11 -3 35 -2 53 3 59 19 161 31 302 37 77 3 176 9 220 12 44
4 91 7 105 5 47 -3 415 19 480 30 36 6 157 11 270 12 204 1 205 1 208 23 2 13
12 29 22 36 17 12 20 26 20 103 0 117 5 194 15 218 6 14 5 17 -4 12 -8 -5 -27
7 -52 33 -22 22 -53 48 -70 58 -16 9 -29 23 -29 30 0 7 -5 13 -11 13 -13 0
-129 119 -129 132 0 4 -7 8 -15 8 -8 0 -15 7 -15 15 0 17 -38 35 -57 28 -16
-6 -43 92 -59 217 -2 14 -6 70 -9 125 -4 54 -9 103 -11 107 -3 4 -7 45 -10 90
-2 46 -6 90 -9 98 -2 8 -7 110 -10 225 -2 116 -8 253 -12 305 -3 52 -7 145 -9
205 -4 176 -22 493 -28 504 -4 5 -7 72 -8 148 0 76 -4 145 -8 153 -4 8 -11 49
-14 90 -4 41 -9 89 -11 105 -3 17 -7 53 -9 80 -3 28 -11 98 -19 155 -9 58 -18
132 -21 165 -3 33 -10 75 -15 92 -5 17 -8 33 -6 35 9 9 12 79 4 84 -5 3 -9 17
-9 32 0 23 -8 32 -52 54 -87 44 -156 60 -268 64 -58 2 -123 8 -145 13 -34 9
-182 20 -188 15z m138 -74 c17 -5 85 -12 152 -14 114 -5 254 -33 268 -55 10
-18 -178 -50 -245 -43 -14 2 -49 3 -78 2 -57 -1 -200 26 -216 41 -6 5 -24 9
-40 9 -43 1 -73 24 -57 44 7 8 25 16 39 18 61 8 149 7 177 -2z m-204 -134 c14
-3 48 -8 75 -11 27 -4 67 -12 89 -19 47 -16 376 -21 403 -6 9 5 31 13 48 18
40 13 55 0 47 -39 -3 -17 -1 -29 5 -29 8 0 20 -55 27 -125 1 -5 5 -32 10 -60
4 -27 9 -63 10 -80 2 -16 7 -59 13 -95 6 -36 14 -103 17 -149 3 -47 8 -88 11
-93 9 -14 -10 -8 -36 12 -32 25 -50 25 -50 0 0 -11 6 -20 13 -20 7 0 20 -9 30
-20 9 -11 14 -20 11 -20 -3 0 -2 -6 3 -12 4 -7 8 -18 9 -25 1 -7 9 -26 18 -43
12 -25 13 -42 6 -78 -10 -53 -31 -102 -43 -102 -5 0 -15 -7 -23 -15 -17 -17
-84 -21 -84 -5 0 5 -18 13 -39 16 -28 4 -42 13 -50 30 -10 23 -72 68 -96 69
-21 2 -182 85 -197 102 -9 10 -23 33 -32 51 -10 18 -31 46 -49 62 -45 40 -40
84 17 155 33 40 42 59 39 79 -7 35 -23 46 -74 49 l-44 2 2 48 c1 26 7 54 13
62 7 8 9 15 4 15 -4 0 9 18 30 39 34 35 44 39 87 39 39 1 51 -3 60 -19 8 -15
19 -20 42 -17 26 2 34 -2 47 -27 8 -16 20 -35 27 -42 8 -9 10 -31 6 -62 -10
-83 5 -155 38 -198 17 -21 44 -42 60 -46 22 -6 29 -13 29 -32 0 -30 33 -34 62
-9 14 14 21 14 32 4 21 -16 39 -8 41 19 3 38 -53 50 -120 25 -17 -7 -65 46
-86 95 -13 29 -16 61 -14 130 3 88 2 95 -27 142 -27 42 -37 50 -70 56 -29 4
-42 12 -48 28 -11 28 -28 35 -58 24 -13 -5 -34 -6 -48 -3 -18 5 -31 -1 -56
-28 -85 -89 -100 -122 -97 -212 2 -66 21 -86 77 -84 40 1 52 -10 29 -26 -9 -7
-17 -18 -17 -24 0 -5 -6 -12 -13 -15 -17 -6 -39 -102 -34 -142 7 -45 14 -58
46 -79 16 -11 39 -42 51 -69 12 -27 30 -51 39 -54 9 -2 57 -25 108 -49 50 -24
99 -44 107 -44 9 0 28 -19 43 -42 44 -70 54 -79 69 -67 11 9 20 7 40 -6 35
-23 88 -15 143 20 24 14 44 25 46 23 7 -8 17 -134 20 -263 3 -77 8 -156 12
-175 4 -19 7 -96 8 -170 1 -231 15 -631 25 -720 5 -47 12 -123 15 -170 3 -47
7 -103 9 -125 3 -22 8 -71 11 -110 3 -38 8 -100 11 -136 l6 -67 -40 -3 c-33
-4 -38 -2 -34 13 2 10 -5 22 -17 30 -12 7 -21 18 -21 25 0 6 -10 19 -21 27
-18 12 -21 21 -16 48 10 54 16 79 28 115 14 45 7 70 -34 116 -23 25 -43 37
-61 37 -26 0 -26 0 -10 31 15 30 39 93 69 187 8 23 14 71 13 105 0 34 2 72 6
83 9 29 -10 74 -30 74 -13 0 -15 5 -8 28 4 15 9 47 11 72 2 25 5 59 7 77 3 26
0 32 -20 37 -14 4 -21 11 -18 20 3 7 -9 29 -25 47 -17 18 -31 39 -31 46 0 23
-92 108 -114 105 -51 -7 -65 -14 -91 -48 -24 -31 -29 -48 -30 -104 -2 -77 -15
-100 -82 -145 -23 -16 -44 -36 -47 -45 -3 -8 -11 -31 -19 -50 -18 -48 -12
-143 13 -205 22 -53 50 -81 108 -104 17 -8 32 -17 32 -22 0 -5 6 -9 14 -9 15
0 26 -21 26 -52 0 -23 -39 -92 -72 -128 -82 -89 -87 -171 -17 -260 33 -42 45
-50 86 -56 26 -5 51 -7 54 -6 17 4 37 -38 41 -83 l3 -50 -45 -11 c-51 -13
-221 -11 -325 2 -115 15 -128 41 -140 268 -3 65 -8 123 -11 127 -2 4 -7 52 -9
106 -3 54 -7 116 -10 138 -12 111 -17 245 -21 495 -2 151 -7 326 -10 388 -8
124 2 143 31 65 10 -26 22 -52 27 -58 4 -5 26 -33 48 -61 53 -69 117 -81 159
-30 7 9 31 21 53 27 49 13 74 60 64 124 -8 52 -23 133 -32 168 -8 33 -57 77
-87 78 -44 2 -82 -3 -85 -12 -8 -21 -40 -8 -50 19 -8 24 -21 32 -70 48 l-59
19 -7 145 c-4 80 -9 177 -12 215 -4 82 -11 206 -19 395 -3 74 -8 149 -10 165
-7 54 -7 203 -1 214 5 7 14 6 29 -3 12 -7 34 -16 48 -20z m29 -1191 c17 -9 30
-24 30 -34 0 -10 6 -24 13 -30 14 -11 25 -8 139 28 22 7 28 6 33 -9 3 -11 14
-22 25 -25 16 -5 28 -40 36 -100 0 -5 4 -27 8 -47 11 -54 1 -85 -30 -92 -15
-4 -42 -19 -60 -33 -36 -27 -101 -37 -97 -15 2 6 -1 12 -6 12 -5 0 -14 15 -21
33 -20 55 -50 115 -59 119 -15 6 -71 136 -71 165 0 47 13 53 60 28z m541 -537
c14 -6 35 -27 45 -47 10 -20 25 -42 31 -49 7 -7 15 -25 19 -40 3 -15 9 -35 15
-44 6 -13 4 -22 -9 -35 -10 -10 -27 -44 -37 -76 -18 -54 -18 -59 -3 -85 11
-18 27 -28 47 -30 30 -3 31 -6 32 -50 1 -26 2 -54 1 -62 -1 -26 -44 -185 -52
-190 -6 -4 -16 -34 -25 -70 0 -3 -6 -15 -13 -27 -15 -26 0 -73 22 -73 9 0 31
-8 50 -17 42 -21 43 -31 15 -143 -24 -98 -22 -131 9 -145 12 -5 22 -13 22 -18
0 -4 11 -19 25 -33 l26 -26 -33 3 c-29 2 -89 -11 -134 -28 -9 -3 -14 1 -14 11
0 9 -6 27 -14 39 -8 12 -17 36 -19 52 -11 65 -20 73 -97 82 -62 7 -74 15 -104
73 -33 64 -33 88 4 138 17 23 30 46 30 51 0 5 3 11 8 13 21 9 62 89 67 133 5
44 3 54 -18 78 -14 15 -52 41 -85 58 -48 24 -63 37 -75 67 -31 78 -19 222 19
222 7 0 36 22 65 48 56 51 54 47 58 185 1 16 12 39 26 53 25 24 27 25 48 9 12
-9 34 -21 48 -27z m112 -278 c-3 -11 -7 -20 -9 -20 -2 0 -4 9 -4 20 0 11 4 20
9 20 5 0 7 -9 4 -20z m0 -67 c7 -9 5 -13 -7 -13 -11 0 -16 8 -15 28 0 15 3 21
6 12 3 -8 10 -21 16 -27z m305 -970 c15 -10 68 -58 118 -108 50 -49 114 -111
144 -137 l53 -47 -2 -68 c-2 -58 -5 -99 -10 -160 -1 -10 -26 -12 -93 -11 -51
1 -111 -1 -133 -5 -98 -17 -402 -39 -710 -52 -77 -4 -165 -8 -195 -10 -30 -3
-116 -9 -190 -14 -74 -6 -162 -15 -195 -21 -93 -16 -96 -15 -80 16 14 27 14
35 -2 74 -6 14 -13 55 -16 93 -6 65 -5 68 26 105 18 20 37 39 42 41 17 6 224
227 244 260 7 10 29 10 117 0 187 -21 409 -14 601 20 29 6 56 12 61 15 4 2 41
7 82 11 41 3 77 8 79 11 9 9 33 3 59 -13z m-1368 -545 c0 -8 -10 -11 -105 -28
-33 -7 -90 -20 -127 -31 -38 -11 -107 -29 -155 -40 -49 -11 -135 -31 -193 -45
-58 -14 -121 -28 -140 -31 -19 -3 -41 -12 -47 -21 -14 -18 -18 -16 -27 14 -8
26 -2 29 199 93 94 30 189 53 230 57 39 3 95 12 125 20 30 7 69 15 85 17 53 6
155 2 155 -5z m-930 -87 c0 -5 18 -36 40 -69 22 -33 40 -67 40 -75 0 -9 7 -22
15 -30 11 -12 12 -17 2 -25 -24 -19 -272 -117 -322 -127 -16 -4 -52 -16 -78
-26 -62 -26 -92 -22 -92 10 0 18 -8 27 -28 34 -39 13 -74 47 -92 90 -8 20 -15
38 -15 40 0 10 183 93 302 137 126 46 228 65 228 41z"/>
<path d="M896 614 c-34 -23 -129 -62 -218 -89 -32 -10 -63 -24 -69 -31 -15
-18 -15 -67 -1 -72 6 -2 21 -19 32 -38 24 -37 46 -42 88 -20 15 7 86 42 157
77 117 57 130 67 133 92 2 16 -2 34 -8 42 -7 8 -9 18 -7 22 10 16 -18 39 -47
38 -16 0 -43 -9 -60 -21z"/>
</g>
</svg>
